<svg xmlns="http://www.w3.org/2000/svg" viewBox="0 0 64 64" x="0px" y="0px"><g data-name="Smart Car-Internet of Things-Keys-Smartphone-Car"><rect x="32" y="23" width="14" height="2"></rect><rect x="32" y="19" width="14" height="2"></rect><path d="M53,25a3,3,0,1,0-3-3A3,3,0,0,0,53,25Zm0-4a1,1,0,1,1-1,1A1,1,0,0,1,53,21Z"></path><path d="M25,25a3,3,0,1,0-3-3A3,3,0,0,0,25,25Zm0-4a1,1,0,1,1-1,1A1,1,0,0,1,25,21Z"></path><path d="M62,13a2.994,2.994,0,0,0-5.42-1.76L53.96,2.71A1.008,1.008,0,0,0,53,2H25a1.008,1.008,0,0,0-.96.71l-2.62,8.53a2.995,2.995,0,1,0-3.45,4.57A2.966,2.966,0,0,0,17,18v8H7a5,5,0,0,0-5,5V57a5,5,0,0,0,5,5H21a5,5,0,0,0,5-5V33H52v4a2.006,2.006,0,0,0,2,2h4a2.006,2.006,0,0,0,2-2V32.22A2.986,2.986,0,0,0,61,30V18a2.966,2.966,0,0,0-.97-2.19A3,3,0,0,0,62,13ZM25.74,4H52.26l.62,2H25.12ZM24.51,8H53.49l2.16,7H33.86a3.983,3.983,0,0,0-7.72,0H22.35Zm7.21,7H28.28a1.979,1.979,0,0,1,3.44,0ZM19,12a1,1,0,1,1-1,1A1,1,0,0,1,19,12Zm5,45a3.009,3.009,0,0,1-3,3H7a3.009,3.009,0,0,1-3-3V54H24Zm0-5H4V34H24Zm0-20H4V31a3.009,3.009,0,0,1,3-3H21a3.009,3.009,0,0,1,3,3Zm34,5H54V33h4Zm1-7a1,1,0,0,1-1,1H26a4.941,4.941,0,0,0-.42-2H59Zm0-3H23.97A4.939,4.939,0,0,0,21,26H19V18a1,1,0,0,1,1-1H58a1,1,0,0,1,1,1Zm0-13a1,1,0,1,1,1-1A1,1,0,0,1,59,14Z"></path><rect x="13" y="56" width="2" height="2"></rect><path d="M13,43.858V50h2V47.993h2v-2H15V43.858a4,4,0,1,0-2,0ZM14,38a2,2,0,1,1-2,2A2,2,0,0,1,14,38Z"></path><path d="M44,48H28v2H45a1,1,0,0,0,1-1V35H44Z"></path><rect x="32" y="44" width="2" height="2"></rect><rect x="28" y="44" width="2" height="2"></rect><rect x="36" y="44" width="2" height="2"></rect><rect x="40" y="44" width="2" height="2"></rect></g></svg>