<svg xmlns="http://www.w3.org/2000/svg" viewBox="0 0 64 64" x="0px" y="0px"><g data-name="Money-Currency-Mobile Phone-Finance-Stats"><path d="M29,52H25a3,3,0,0,0,0,6h4a3,3,0,0,0,0-6Zm0,4H25a1,1,0,0,1,0-2h4a1,1,0,0,1,0,2Z"></path><rect x="20" y="6" width="2" height="2"></rect><rect x="24" y="6" width="6" height="2"></rect><path d="M47,41h2a1,1,0,0,1,1,1h2a3,3,0,0,0-3-3V38H47v1a3,3,0,0,0,0,6h2a1,1,0,0,1,0,2H47a1,1,0,0,1-1-1H44a3,3,0,0,0,3,3v1h2V49a3,3,0,0,0,0-6H47a1,1,0,0,1,0-2Z"></path><path d="M48,34A10,10,0,1,0,58,44,10.011,10.011,0,0,0,48,34Zm0,18a8,8,0,1,1,8-8A8.009,8.009,0,0,1,48,52Z"></path><path d="M48,30c-.34,0-.67.03-1,.05V8a6,6,0,0,0-6-6H13A6,6,0,0,0,7,8V56a6,6,0,0,0,6,6H41a5.944,5.944,0,0,0,5.67-4.07c.44.04.88.07,1.33.07a14,14,0,0,0,0-28ZM9,8a4,4,0,0,1,4-4H41a4,4,0,0,1,4,4v2H9Zm0,4H45V30.33A13.972,13.972,0,0,0,34.59,48H9ZM41,60H13a4,4,0,0,1-4-4V50H35.37a14.05,14.05,0,0,0,9.29,7.58A3.958,3.958,0,0,1,41,60Zm7-4A12,12,0,1,1,60,44,12.01,12.01,0,0,1,48,56Z"></path><path d="M21,34A10,10,0,1,0,11,24,10.011,10.011,0,0,0,21,34Zm0-2a7.948,7.948,0,0,1-4.9-1.688l1.426-1.427A5.984,5.984,0,0,0,26.91,25h2.021A8.008,8.008,0,0,1,21,32Zm0-12a4,4,0,1,1-4,4A4,4,0,0,1,21,20Zm7.931,3H26.91A6.008,6.008,0,0,0,22,18.09V16.069A8.008,8.008,0,0,1,28.931,23ZM20,16.069V18.09a5.984,5.984,0,0,0-3.885,9.381L14.688,28.9A7.981,7.981,0,0,1,20,16.069Z"></path><rect x="31" y="14" width="4" height="2"></rect><rect x="31" y="18" width="4" height="2"></rect><rect x="31" y="34" width="4" height="2"></rect><rect x="31" y="30" width="2" height="2"></rect><rect x="13" y="38" width="4" height="2"></rect><rect x="19" y="38" width="10" height="2"></rect><rect x="13" y="42" width="16" height="2"></rect></g></svg>