<svg xmlns="http://www.w3.org/2000/svg" viewBox="0 0 32 32" x="0px" y="0px"><title>Browser_8</title><g data-name="Browser"><path d="M31,0H1A1,1,0,0,0,0,1V31a1,1,0,0,0,1,1H31a1,1,0,0,0,1-1V1A1,1,0,0,0,31,0ZM2,2H12V6H2ZM4,30H2V8H4Zm26,0H6V8H30ZM30,6H14V2H30Z"></path><rect x="3" y="3" width="2" height="2"></rect><rect x="6" y="3" width="2" height="2"></rect><rect x="9" y="3" width="2" height="2"></rect><path d="M18,21a1,1,0,0,0,.707-.293l2.828-2.829-1.414-1.414L19,17.585V13H17v4.585l-1.121-1.121-1.414,1.414,2.828,2.829A1,1,0,0,0,18,21Z"></path><path d="M15,24h6a1,1,0,0,0,1-1V21H20v1H16V21H14v2A1,1,0,0,0,15,24Z"></path></g></svg>