<svg xmlns="http://www.w3.org/2000/svg" viewBox="0 0 64 64" x="0px" y="0px"><g><polygon points="53 10 55 10 55 8 57 8 57 6 55 6 55 4 53 4 53 6 51 6 51 8 53 8 53 10"></polygon><rect x="46" y="12" width="6" height="2"></rect><rect x="51" y="16" width="6" height="2"></rect><polygon points="53 54 51 54 51 56 49 56 49 58 51 58 51 60 53 60 53 58 55 58 55 56 53 56 53 54"></polygon><path d="M19,7H31a1,1,0,0,0,1-1V4H18V6A1,1,0,0,0,19,7Z"></path><path d="M42,55.6A20,20,0,1,1,42,16.4V7a3,3,0,0,0-3-3H34V6a3,3,0,0,1-3,3H19a3,3,0,0,1-3-3V4H11A3,3,0,0,0,8,7V57a3,3,0,0,0,3,3H39a3,3,0,0,0,3-3ZM30,11h2v2H30Zm-4,0h2v2H26Zm-4,0h2v2H22Zm1.34,5.972L24.625,18.5,23.092,19.79l-1.285-1.533Zm-1.55,4.121-1.285,1.532-1.532-1.286,1.285-1.532ZM18,11h2v2H18Zm-.284,12.134,1.731,1-1,1.732-1.731-1Zm-1.927,3.718,1.88.684-.684,1.88-1.88-.685Zm-1.251,4,1.97.347-.348,1.97-1.97-.348ZM14,35h2v2H14Zm.19,4.183,1.97-.348.348,1.97-1.97.347Zm.915,4.086,1.88-.685.684,1.88-1.88.684Zm1.611,3.865,1.731-1,1,1.732-1.731,1Zm3.542,5.059-1.285-1.532,1.532-1.286,1.285,1.532Zm3.082,2.835-1.533-1.285,1.285-1.533L24.625,53.5Zm3.526,2.257-1.732-1,1-1.732,1.732,1Z"></path><circle cx="38" cy="36" r="4"></circle><path d="M45.687,33.8a7.951,7.951,0,0,0-.7-1.69,1,1,0,0,1,.042-1.04l.873-1.31-1.669-1.67-1.31.874a1,1,0,0,1-1.042.041,7.946,7.946,0,0,0-1.688-.7,1,1,0,0,1-.706-.765L39.181,26H36.819l-.309,1.548a1,1,0,0,1-.706.765,7.946,7.946,0,0,0-1.688.7,1,1,0,0,1-1.042-.041l-1.31-.874L30.1,29.764l.873,1.31a1,1,0,0,1,.042,1.04,7.951,7.951,0,0,0-.7,1.69,1,1,0,0,1-.765.706L28,34.82v2.36l1.548.31a1,1,0,0,1,.765.706,7.951,7.951,0,0,0,.7,1.69,1,1,0,0,1-.042,1.04l-.873,1.31,1.669,1.67,1.31-.874a1,1,0,0,1,1.042-.041,7.946,7.946,0,0,0,1.688.7,1,1,0,0,1,.706.765L36.819,46h2.362l.309-1.548a1,1,0,0,1,.706-.765,7.946,7.946,0,0,0,1.688-.7,1,1,0,0,1,1.042.041l1.31.874,1.669-1.67-.873-1.31a1,1,0,0,1-.042-1.04,7.951,7.951,0,0,0,.7-1.69,1,1,0,0,1,.765-.706L48,37.18V34.82l-1.548-.31A1,1,0,0,1,45.687,33.8ZM38,42a6,6,0,1,1,6-6A6.006,6.006,0,0,1,38,42Z"></path><path d="M56,36A18,18,0,1,0,38,54,18.021,18.021,0,0,0,56,36Zm-6,2a1,1,0,0,1-.8.98l-1.774.355a9.7,9.7,0,0,1-.4.971l1,1.5a1,1,0,0,1-.125,1.262L45.071,45.9a1,1,0,0,1-1.261.125l-1.5-1a10.076,10.076,0,0,1-.97.4L40.98,47.2A1,1,0,0,1,40,48H36a1,1,0,0,1-.98-.8l-.356-1.774a10.076,10.076,0,0,1-.97-.4l-1.5,1a1,1,0,0,1-1.261-.125L28.1,43.071a1,1,0,0,1-.125-1.262l1-1.5a9.7,9.7,0,0,1-.4-.971L26.8,38.98A1,1,0,0,1,26,38V34a1,1,0,0,1,.8-.98l1.774-.355a9.7,9.7,0,0,1,.4-.971l-1-1.5a1,1,0,0,1,.125-1.262L30.929,26.1a1,1,0,0,1,1.261-.125l1.5,1a10.076,10.076,0,0,1,.97-.4L35.02,24.8A1,1,0,0,1,36,24h4a1,1,0,0,1,.98.8l.356,1.774a10.076,10.076,0,0,1,.97.4l1.5-1a1,1,0,0,1,1.261.125L47.9,28.929a1,1,0,0,1,.125,1.262l-1,1.5a9.7,9.7,0,0,1,.4.971l1.774.355A1,1,0,0,1,50,34Z"></path></g></svg>