<svg xmlns="http://www.w3.org/2000/svg" viewBox="0 0 64 64" x="0px" y="0px"><g data-name="Gun"><path d="M61,21H58a1,1,0,0,0-1-1V17a1,1,0,0,0-1-1H52a1,1,0,0,0-1,1v3H14V17a1,1,0,0,0-1-1H9a1,1,0,0,0-1,1v3.723L2.143,30.485A1,1,0,0,0,2,31V45a1,1,0,0,0,1,1h8a1,1,0,0,0,1-1V34h9.557l-2.494,6.648A1.009,1.009,0,0,0,19,41v4a1,1,0,0,0,1,1h8a1,1,0,0,0,1-1V41.192L30.277,38H37a1,1,0,0,0,.986-.836L38.847,32H57a1,1,0,0,0,1-1V27h3a1,1,0,0,0,1-1V22A1,1,0,0,0,61,21Zm-8-3h2v2H53Zm-3,4v2H40V22ZM33,22v2H25V22ZM10,18h2v2H10ZM36.153,36H31.077l.943-2.358A3.977,3.977,0,0,0,35,35V33a1.993,1.993,0,0,1-1.722-1h3.541ZM56,30H32a1,1,0,0,0-.929.629L29.323,35H27v2h1.523l-.4,1H26v2h1.323l-.252.629A1,1,0,0,0,27,41H25v2h2v1H21V41.182l2.937-7.83A1,1,0,0,0,23,32H11a1,1,0,0,0-1,1V44H4V43H6V41H4V40H6V38H4V37H6V35H4V31.277L9.566,22H23v3a1,1,0,0,0,1,1H34a1,1,0,0,0,1-1V22h3v3a1,1,0,0,0,1,1H51a1,1,0,0,0,1-1V22h4Zm4-5H58V23h2Z"></path><path d="M20,24H10a1,1,0,0,0-1,1v4a1,1,0,0,0,1,1H20a1,1,0,0,0,1-1V25A1,1,0,0,0,20,24Zm-1,4H11V26h8Z"></path><rect x="23" y="28" width="6" height="2"></rect></g></svg>