<svg xmlns="http://www.w3.org/2000/svg" viewBox="0 0 64 64" x="0px" y="0px"><path d="M49,17h-.06A8.513,8.513,0,0,0,49,16a9.014,9.014,0,0,0-9-9,8.77,8.77,0,0,0-2.49.36A12.995,12.995,0,0,0,14,15a12.833,12.833,0,0,0,.17,2.03A10,10,0,0,0,15,37h3V57a5,5,0,0,0,5,5H41a5,5,0,0,0,5-5V37h3a10,10,0,0,0,0-20ZM44,57a3.009,3.009,0,0,1-3,3H23a3.009,3.009,0,0,1-3-3V27a3.009,3.009,0,0,1,3-3H41a3.009,3.009,0,0,1,3,3Zm5-22H46V27a5,5,0,0,0-5-5H23a5,5,0,0,0-5,5v8H15a8,8,0,0,1,0-16h.39a1,1,0,0,0,.79-.38,1.022,1.022,0,0,0,.18-.86A11.44,11.44,0,0,1,16,15,11,11,0,0,1,36.27,9.09a.988.988,0,0,0,1.2.39A6.985,6.985,0,0,1,47,16a7.4,7.4,0,0,1-.23,1.76,1.022,1.022,0,0,0,.18.86,1,1,0,0,0,.79.38H49a8,8,0,0,1,0,16Z"></path><path d="M18,15h2a7.009,7.009,0,0,1,7-7V6A9.01,9.01,0,0,0,18,15Z"></path><rect x="25" y="26" width="2" height="2"></rect><rect x="29" y="26" width="6" height="2"></rect><rect x="29" y="56" width="6" height="2"></rect><path d="M32,31c-4.47,0-9,1.37-9,4V49c0,2.63,4.53,4,9,4s9-1.37,9-4V35C41,32.37,36.47,31,32,31Zm7,18c0,.58-2.45,2-7,2s-7-1.42-7-2V44.6A15.9,15.9,0,0,0,32,46a15.9,15.9,0,0,0,7-1.4Zm0-7c0,.58-2.45,2-7,2s-7-1.42-7-2V37.6A15.9,15.9,0,0,0,32,39a15.9,15.9,0,0,0,7-1.4Zm-7-5c-4.55,0-7-1.42-7-2s2.45-2,7-2,7,1.42,7,2S36.55,37,32,37Z"></path><rect x="27" y="40" width="2" height="2"></rect><rect x="31" y="41" width="2" height="2"></rect><rect x="27" y="47" width="2" height="2"></rect><rect x="31" y="48" width="2" height="2"></rect><path d="M53,27a4,4,0,0,1-4,4v2a6.006,6.006,0,0,0,6-6Z"></path></svg>