<svg xmlns="http://www.w3.org/2000/svg" viewBox="0 0 64 64" x="0px" y="0px"><title>Line Graph</title><g data-name="Line Graph"><path d="M7,60V53.414l9.968-9.967,5.27,6.2A1,1,0,0,0,23,50a.932.932,0,0,0,.157-.013,1,1,0,0,0,.769-.609L28.989,37H47a1,1,0,0,0,.848-.47L49.4,34.042l5.685,11.369-3.58-1.026-.551,1.923,5.768,1.653A.969.969,0,0,0,57,48a1,1,0,0,0,.96-.724l1.654-5.768-1.922-.551-.946,3.3-6.1-12.2,5.822-9.316.591,3.345,1.968-.348-1.042-5.909a1,1,0,0,0-1.158-.811l-5.909,1.042.348,1.97,3.7-.652L49.6,29.958l-1.7-3.4A1,1,0,0,0,47,26H32a1,1,0,0,0-.926.622L27.647,35H23a1,1,0,0,0-.707.293L17.087,40.5,7,28.633V2H5V4H2V6H5V18H2v2H5V32H2v2H5V46H2v2H5V61a1,1,0,0,0,1,1H62V60ZM32.671,28H46.382l1.973,3.945L46.445,35H29.807Zm-9.257,9h3.415L22.7,47.1l-4.311-5.072Zm-7.746,4.918L7,50.586V31.72Z"></path><rect x="42" y="4" width="2" height="2"></rect><rect x="46" y="4" width="12" height="2"></rect><rect x="42" y="8" width="16" height="2"></rect><rect x="42" y="12" width="16" height="2"></rect></g></svg>