<svg xmlns="http://www.w3.org/2000/svg" viewBox="0 0 64 64" x="0px" y="0px"><g data-name="Cloud-Upload-Sync-Cloud Computing-Data"><path d="M45.79,46.04a1,1,0,0,1-.69-.39.966.966,0,0,1-.18-.77A5.858,5.858,0,0,0,45,44a5,5,0,0,0-5-5,4.879,4.879,0,0,0-2.15.5,1.01,1.01,0,0,1-.85,0V50H35V28a1,1,0,0,1,1-1h.59L32,22.41,27.41,27H28a1,1,0,0,1,1,1V50H27V35.23A8.953,8.953,0,0,0,20,44a9.082,9.082,0,0,0,.05.91,1.01,1.01,0,0,1-1,1.09A7,7,0,1,0,19,60H45a7,7,0,0,0,.79-13.96ZM45,58V56a3,3,0,0,0,3-3h2A5.006,5.006,0,0,1,45,58Z"></path><path d="M50.83,20.17a1,1,0,0,1-.84-.99c0-.03.01-.14.01-.17a8.008,8.008,0,0,0-10.35-7.66,1,1,0,0,1-1.18-.48A13,13,0,0,0,14,17a12.177,12.177,0,0,0,.17,2,1.021,1.021,0,0,1-.18.74,1,1,0,0,1-.66.4A10.993,10.993,0,0,0,15,42h3.18A10.93,10.93,0,0,1,27,33.19V29H25a.987.987,0,0,1-.92-.62,1,1,0,0,1,.21-1.09l7-7a1.008,1.008,0,0,1,1.42,0l7,7a1,1,0,0,1,.21,1.09A.987.987,0,0,1,39,29H37v7.5a10.421,10.421,0,0,1,.77.87A6.775,6.775,0,0,1,40,37a7.024,7.024,0,0,1,6.71,5H49a10.991,10.991,0,0,0,1.83-21.83ZM27,9a8.009,8.009,0,0,0-8,8H17A10.011,10.011,0,0,1,27,7ZM49,39V37a6.006,6.006,0,0,0,6-6h2A8.009,8.009,0,0,1,49,39Z"></path></g></svg>