<svg xmlns="http://www.w3.org/2000/svg" viewBox="0 0 64 64" x="0px" y="0px"><g><path d="M32,21A11,11,0,1,0,43,32,11.013,11.013,0,0,0,32,21Zm-4,4a3,3,0,1,1-3,3A3,3,0,0,1,28,25ZM26.707,38.707l-1.414-1.414,12-12,1.414,1.414ZM36,39a3,3,0,1,1,3-3A3,3,0,0,1,36,39Z"></path><circle cx="28" cy="28" r="1"></circle><path d="M31,11.051V7.025A25.028,25.028,0,0,0,7.025,31h4.026A20.992,20.992,0,0,1,31,11.051Z"></path><circle cx="36" cy="36" r="1"></circle><path d="M31,56.975V52.949A20.992,20.992,0,0,1,11.051,33H7.025A25.028,25.028,0,0,0,31,56.975Z"></path><path d="M33,7.025v4.026A20.992,20.992,0,0,1,52.949,31h4.026A25.028,25.028,0,0,0,33,7.025Z"></path><path d="M33,50.949A18.993,18.993,0,0,0,50.949,33H48V31h2.949A18.993,18.993,0,0,0,33,13.051V16H31V13.051A18.993,18.993,0,0,0,13.051,31H16v2H13.051A18.993,18.993,0,0,0,31,50.949V48h2ZM32,45A13,13,0,1,1,45,32,13.015,13.015,0,0,1,32,45Z"></path><path d="M56.975,33H52.949A20.992,20.992,0,0,1,33,52.949v4.026A25.028,25.028,0,0,0,56.975,33Z"></path><rect x="31" y="2" width="2" height="5"></rect><rect x="57" y="31" width="4" height="2"></rect><rect x="31" y="57" width="2" height="5"></rect><rect x="2" y="31" width="5" height="2"></rect></g></svg>