<svg xmlns="http://www.w3.org/2000/svg" viewBox="0 0 64 64" x="0px" y="0px"><g><path d="M41.664,3.81A31.479,31.479,0,0,0,32,2a31.443,31.443,0,0,0-9.664,1.811A2,2,0,0,0,21,5.7V58.3a2,2,0,0,0,1.336,1.887A31.479,31.479,0,0,0,32,62a31.457,31.457,0,0,0,9.665-1.811A2,2,0,0,0,43,58.3V5.7A2,2,0,0,0,41.664,3.81ZM32,60a29.381,29.381,0,0,1-9-1.7V5.7A29.359,29.359,0,0,1,32,4a29.374,29.374,0,0,1,9,1.7V58.3h0A29.367,29.367,0,0,1,32,60Z"></path><path d="M32,22a7,7,0,1,0,7,7A7.008,7.008,0,0,0,32,22Zm0,12a5,5,0,1,1,5-5A5.006,5.006,0,0,1,32,34Z"></path><path d="M32,20a3,3,0,1,0-3-3A3,3,0,0,0,32,20Zm0-4a1,1,0,1,1-1,1A1,1,0,0,1,32,16Z"></path><path d="M28,38a3,3,0,1,0,3,3A3,3,0,0,0,28,38Zm0,4a1,1,0,1,1,1-1A1,1,0,0,1,28,42Z"></path><path d="M36,38a3,3,0,1,0,3,3A3,3,0,0,0,36,38Zm0,4a1,1,0,1,1,1-1A1,1,0,0,1,36,42Z"></path><path d="M28,46a3,3,0,1,0,3,3A3,3,0,0,0,28,46Zm0,4a1,1,0,1,1,1-1A1,1,0,0,1,28,50Z"></path><path d="M36,46a3,3,0,1,0,3,3A3,3,0,0,0,36,46Zm0,4a1,1,0,1,1,1-1A1,1,0,0,1,36,50Z"></path><rect x="37" y="7" width="2" height="2"></rect><rect x="31" y="6" width="2" height="4"></rect><path d="M53,15a3,3,0,1,0,3,3A3,3,0,0,0,53,15Zm0,4a1,1,0,1,1,1-1A1,1,0,0,1,53,19Z"></path><path d="M48.051,13.05l1.414,1.414a5,5,0,0,1,7.07,0l1.414-1.414a7,7,0,0,0-9.9,0Z"></path><path d="M45.222,10.222l1.414,1.414a9.01,9.01,0,0,1,12.728,0l1.414-1.414A11.012,11.012,0,0,0,45.222,10.222Z"></path><path d="M11,15a3,3,0,1,0,3,3A3,3,0,0,0,11,15Zm0,4a1,1,0,1,1,1-1A1,1,0,0,1,11,19Z"></path><path d="M6.05,13.05l1.414,1.414a5.008,5.008,0,0,1,7.072,0L15.95,13.05A7.009,7.009,0,0,0,6.05,13.05Z"></path><path d="M3.222,10.222l1.414,1.414a9.01,9.01,0,0,1,12.728,0l1.414-1.414A11.012,11.012,0,0,0,3.222,10.222Z"></path></g></svg>