<svg xmlns="http://www.w3.org/2000/svg" viewBox="0 0 64 64" x="0px" y="0px"><g><path d="M57,2H7A5,5,0,0,0,2,7V45a5,5,0,0,0,5,5H32.65c1.47,2.23,5.4,3.79,10.35,3.98v2.2A3.035,3.035,0,0,0,41.18,58H28v2H41.18a2.988,2.988,0,0,0,5.64,0H60V58H46.82A3.035,3.035,0,0,0,45,56.18v-2.2c4.95-.19,8.88-1.75,10.35-3.98H57a5,5,0,0,0,5-5V7A5,5,0,0,0,57,2ZM44,60a1,1,0,1,1,1-1A1,1,0,0,1,44,60ZM54,48c0,1.89-4.28,4-10,4s-10-2.11-10-4V44.41C36.11,45.99,39.73,47,44,47s7.89-1.01,10-2.59Zm0-7c0,1.89-4.28,4-10,4s-10-2.11-10-4V37.41C36.11,38.99,39.73,40,44,40s7.89-1.01,10-2.59ZM44,38c-5.72,0-10-2.11-10-4s4.28-4,10-4,10,2.11,10,4S49.72,38,44,38Zm16,7a3.009,3.009,0,0,1-3,3H56V34c0-3.42-5.16-6-12-6s-12,2.58-12,6V48H7a3.009,3.009,0,0,1-3-3V12H60Zm0-35H4V7A3.009,3.009,0,0,1,7,4H57a3.009,3.009,0,0,1,3,3Z"></path><rect x="6" y="6" width="2" height="2"></rect><rect x="10" y="6" width="2" height="2"></rect><rect x="14" y="6" width="2" height="2"></rect><rect x="35" y="40" width="2" height="2"></rect><rect x="39" y="41" width="2" height="2"></rect><rect x="35" y="47" width="2" height="2"></rect><rect x="39" y="48" width="2" height="2"></rect><rect x="38" y="33" width="12" height="2"></rect><polygon points="24 18 22 18 22 31 20 31 20 26 18 26 18 31 16 31 16 22 14 22 14 31 12 31 12 24 10 24 10 31 8 31 8 33 26 33 26 31 24 31 24 18"></polygon><rect x="8" y="37" width="2" height="2"></rect><rect x="12" y="37" width="14" height="2"></rect><rect x="8" y="41" width="14" height="2"></rect><rect x="24" y="41" width="2" height="2"></rect><rect x="32" y="16" width="2" height="2"></rect><rect x="36" y="16" width="10" height="2"></rect><rect x="48" y="16" width="8" height="2"></rect><rect x="32" y="20" width="20" height="2"></rect><rect x="54" y="20" width="2" height="2"></rect><rect x="32" y="24" width="24" height="2"></rect></g></svg>