<svg xmlns="http://www.w3.org/2000/svg" viewBox="0 0 64 64" x="0px" y="0px"><g><path d="M58,8a1.976,1.976,0,0,0-1.926,2.512l-6.562,6.562a1.808,1.808,0,0,0-1.024,0l-2.562-2.562a2,2,0,1,0-3.852,0l-4.562,4.562a2.033,2.033,0,1,0,1.414,1.414l4.562-4.562a1.808,1.808,0,0,0,1.024,0l2.562,2.562a2,2,0,1,0,3.852,0l6.562-6.562A2,2,0,1,0,58,8Z"></path><path d="M39.483,37.713a22.864,22.864,0,0,1-5.694-.741,21.113,21.113,0,0,0-5.773-.693,21.1,21.1,0,0,0-5.779.694,23.128,23.128,0,0,1-6.244.748,23.087,23.087,0,0,1-6.245-.749,20.569,20.569,0,0,0-4.818-.679,18,18,0,1,0,34.553,1.42ZM14,50a3,3,0,1,1,3-3A3,3,0,0,1,14,50Zm16,3a4,4,0,1,1,4-4A4,4,0,0,1,30,53Z"></path><circle cx="30" cy="49" r="2"></circle><path d="M10.215,35.028a21.138,21.138,0,0,0,5.778.693,21.15,21.15,0,0,0,5.778-.693,23.087,23.087,0,0,1,6.245-.749,23.056,23.056,0,0,1,6.24.749,20.586,20.586,0,0,0,4.594.67A17.969,17.969,0,0,0,27.684,24.931,1,1,0,0,1,27,23.982V8H17V23.982a1,1,0,0,1-.684.949,17.968,17.968,0,0,0-10.588,9.4A22.67,22.67,0,0,1,10.215,35.028ZM26,25H24V23h2Zm-4-5h2v2H22Zm-4,9h2V27h2v2H20v2H18Z"></path><rect x="15" y="4" width="14" height="2"></rect><circle cx="14" cy="47" r="1"></circle></g></svg>