<svg xmlns="http://www.w3.org/2000/svg" viewBox="0 0 48 48" x="0px" y="0px"><title>Online-Payment</title><g data-name="Online-Payment"><path d="M12,9H36v6h2V6a5.006,5.006,0,0,0-5-5H15a5.006,5.006,0,0,0-5,5V22h2Zm0-3a3,3,0,0,1,3-3H33a3,3,0,0,1,3,3V7H12Z"></path><path d="M36,37H12V32H10V42a5.006,5.006,0,0,0,5,5H33a5.006,5.006,0,0,0,5-5V24H36Zm0,5a3,3,0,0,1-3,3H15a3,3,0,0,1-3-3V39H36Z"></path><path d="M28,22V21a2,2,0,0,0-2-2H25V17H23v2H22a2,2,0,0,0-2,2v2a2,2,0,0,0,2,2h4v2H22V26H20v1a2,2,0,0,0,2,2h1v2h2V29h1a2,2,0,0,0,2-2V25a2,2,0,0,0-2-2H22V21h4v1Z"></path><rect x="29" y="23" width="2" height="2"></rect><rect x="17" y="23" width="2" height="2"></rect><path d="M34,23a1,1,0,0,0,.707-.293l4.243-4.243L37.536,17.05l-2.624,2.624A11,11,0,0,0,13,21h2a9,9,0,0,1,17.856-1.559L30.464,17.05,29.05,18.464l4.243,4.243A1,1,0,0,0,34,23Z"></path><path d="M35,26H33a9,9,0,0,1-17.856,1.558l2.392,2.391,1.414-1.414-4.243-4.242a1,1,0,0,0-1.414,0L9.05,28.535l1.414,1.414,2.624-2.623A11,11,0,0,0,35,26Z"></path><rect x="19" y="4" width="2" height="2"></rect><rect x="23" y="4" width="6" height="2"></rect></g></svg>