<svg xmlns="http://www.w3.org/2000/svg" viewBox="0 0 64 64" x="0px" y="0px"><g data-name="World-Time Zone-Clock-Time-Earth"><path d="M9.59,52,11,50.59V48a1.033,1.033,0,0,1,.29-.71L14,44.59V42.41l-4.71-4.7A1.033,1.033,0,0,1,9,37V34a1,1,0,0,1,1-1h2.59L16,29.59V26a1.033,1.033,0,0,1,.29-.71L20,21.59V18.41l-2.4-2.39A22.96,22.96,0,0,0,9.59,52Z"></path><path d="M28,29.586l1.707,1.707A1,1,0,0,1,30,32v3h.586L32,33.586V29H28Z"></path><path d="M41.29,49.71A1.033,1.033,0,0,1,41,49V44.41l-3.71-3.7A1.033,1.033,0,0,1,37,40V36a1.033,1.033,0,0,1,.29-.71L39,33.59V29.67A15.086,15.086,0,0,1,33.74,24H30a1.033,1.033,0,0,1-.71-.29l-4-4A1.033,1.033,0,0,1,25,19V14.09a22.8,22.8,0,0,0-5.37,1.13l2.08,2.07A1.033,1.033,0,0,1,22,18v4a1.033,1.033,0,0,1-.29.71L18,26.41V30a1.033,1.033,0,0,1-.29.71l-4,4A1.033,1.033,0,0,1,13,35H11v1.59l4.71,4.7A1.033,1.033,0,0,1,16,42v3a1.033,1.033,0,0,1-.29.71L13,48.41V51a1.033,1.033,0,0,1-.29.71l-1.75,1.75A22.926,22.926,0,0,0,25,59.91v-2.5l-1.71-1.7A1.033,1.033,0,0,1,23,55V52H20a1.033,1.033,0,0,1-.71-.29l-2-2A1.033,1.033,0,0,1,17,49V46a1.033,1.033,0,0,1,.29-.71l4-4A1.033,1.033,0,0,1,22,41h8a1.033,1.033,0,0,1,.71.29l5,5A1.033,1.033,0,0,1,36,47v4a1.033,1.033,0,0,1-.29.71L34,53.41V57a1.033,1.033,0,0,1-.29.71l-1.75,1.75a23.056,23.056,0,0,0,12.07-7.02ZM34,34a1,1,0,0,1-.293.707l-2,2A1,1,0,0,1,31,37H29a1,1,0,0,1-1-1V32.414l-1.707-1.707A1,1,0,0,1,26,30V28a1,1,0,0,1,1-1h6a1,1,0,0,1,1,1Z"></path><path d="M27,14v4.59L30.41,22h2.47A14.807,14.807,0,0,1,32,17a14.546,14.546,0,0,1,.21-2.39A22.829,22.829,0,0,0,27,14Z"></path><path d="M29.02,59.91a1.029,1.029,0,0,1,.27-.62L32,56.59V53a1.033,1.033,0,0,1,.29-.71L34,50.59V47.41L29.59,43H22.41L19,46.41v2.18L20.41,50H24a1,1,0,0,1,1,1v3.59l1.71,1.7A1.033,1.033,0,0,1,27,57v3C27.68,60,28.35,59.96,29.02,59.91Z"></path><path d="M54,16h1.941a8.956,8.956,0,0,0-1.916-4.611l-1.368,1.368-1.414-1.414,1.368-1.368A8.956,8.956,0,0,0,48,8.059V10H46V8.059a8.956,8.956,0,0,0-4.611,1.916l1.368,1.368-1.414,1.414-1.368-1.368A8.956,8.956,0,0,0,38.059,16H40v2H38.059a8.956,8.956,0,0,0,1.916,4.611l1.368-1.368,1.414,1.414-1.368,1.368A8.956,8.956,0,0,0,46,25.941V24h2v1.941a8.956,8.956,0,0,0,4.611-1.916l-1.368-1.368,1.414-1.414,1.368,1.368A8.956,8.956,0,0,0,55.941,18H54Zm-6,1a1,1,0,0,1-.293.707l-2,2-1.414-1.414L46,16.586V12h2Z"></path><path d="M47,4A13,13,0,1,0,60,17,13.012,13.012,0,0,0,47,4Zm0,24A11,11,0,1,1,58,17,11.013,11.013,0,0,1,47,28Z"></path><path d="M50,37a22.829,22.829,0,0,0-.61-5.21A14.546,14.546,0,0,1,47,32a14.857,14.857,0,0,1-6-1.26V34a1.033,1.033,0,0,1-.29.71L39,36.41v3.18l3.71,3.7A1.033,1.033,0,0,1,43,44v4.59l2.31,2.31A22.894,22.894,0,0,0,50,37Z"></path></g></svg>