<svg xmlns="http://www.w3.org/2000/svg" viewBox="0 0 64 64" x="0px" y="0px"><g><path d="M54,10H46V5a3.009,3.009,0,0,0-3-3H21a3.009,3.009,0,0,0-3,3v5H10a5,5,0,0,0-5,5V45a5,5,0,0,0,5,5H23.87l-.75,6H22a3,3,0,0,0,0,6H42a3,3,0,0,0,0-6H40.88l-.75-6H54a5,5,0,0,0,5-5V15A5,5,0,0,0,54,10ZM20,5a1,1,0,0,1,1-1H43a1,1,0,0,1,1,1V39a1,1,0,0,1-1,1H21a1,1,0,0,1-1-1ZM7,15a3.009,3.009,0,0,1,3-3h8V39a3,3,0,0,0,.18,1H7ZM42,58a1,1,0,0,1,0,2H22a1,1,0,0,1,0-2ZM25.13,56l.75-6H38.12l.75,6ZM57,45a3.009,3.009,0,0,1-3,3H10a3.009,3.009,0,0,1-3-3V42H57Zm0-5H45.82A3,3,0,0,0,46,39V12h8a3.009,3.009,0,0,1,3,3Z"></path><rect x="51" y="44" width="2" height="2"></rect><path d="M24,38H40a2,2,0,0,0,2-2V20a2,2,0,0,0-2-2H24a2,2,0,0,0-2,2V36A2,2,0,0,0,24,38Zm0-6h4v4H24Zm10-6v4H30V26Zm-4-2V20h4v4Zm6,2h4v4H36Zm-2,6v4H30V32Zm-6-2H24V26h4Zm8,6V32h4v4Zm4-12H36V20h4ZM28,20v4H24V20Z"></path><path d="M24,16H40a2,2,0,0,0,2-2V8a2,2,0,0,0-2-2H24a2,2,0,0,0-2,2v6A2,2,0,0,0,24,16Zm0-8H40v6H24Z"></path><rect x="35" y="10" width="2" height="2"></rect><rect x="31" y="10" width="2" height="2"></rect><rect x="27" y="10" width="2" height="2"></rect></g></svg>