<svg xmlns="http://www.w3.org/2000/svg" viewBox="0 0 64 64" x="0px" y="0px"><g data-name="Make money-Business-Coins-Hand"><path d="M42,19a8,8,0,1,0,8,8A8.009,8.009,0,0,0,42,19Zm-1,7h2a3,3,0,0,1,0,6v1H41V32a3,3,0,0,1-3-3h2a1,1,0,0,0,1,1h2a1,1,0,0,0,0-2H41a3,3,0,0,1,0-6V21h2v1a3,3,0,0,1,3,3H44a1,1,0,0,0-1-1H41a1,1,0,0,0,0,2Z"></path><path d="M4.81,46.56,9.6,59.72l9.39-3.42L14.21,43.14ZM16.431,55.1l-1.879.684-.684-1.879,1.879-.684Z"></path><path d="M57.61,45.44a2,2,0,0,0,1.14-2.7,2.121,2.121,0,0,0-2.67-1L46.4,45.26a3.851,3.851,0,0,1-1.51,2.1,3.939,3.939,0,0,1-2.28.73,4.253,4.253,0,0,1-.71-.06L31.07,46.12l.35-1.97,10.83,1.91a2.04,2.04,0,0,0,1.5-.33,2.06,2.06,0,0,0,.82-1.3,2,2,0,0,0-1.62-2.31L31.94,40.18a17.1,17.1,0,0,0-8.77.76L16.43,43.4l4.1,11.27,4.19-1.52a12.766,12.766,0,0,1,5.34-.75l4.75.33a11.059,11.059,0,0,0,4.52-.64Z"></path><path d="M28,8a5,5,0,1,0,5,5A5.006,5.006,0,0,0,28,8Zm0,8V14a1,1,0,0,0,1-1h2A3,3,0,0,1,28,16Z"></path><path d="M55,4a5,5,0,1,0,5,5A5.006,5.006,0,0,0,55,4Zm0,8V10a1,1,0,0,0,1-1h2A3,3,0,0,1,55,12Z"></path><rect x="38" y="9" width="2" height="6"></rect><rect x="38" y="5" width="2" height="2"></rect><rect x="43" y="6" width="2" height="6"></rect><rect x="43" y="2" width="2" height="2"></rect><rect x="55" y="28" width="2" height="2"></rect><rect x="55" y="24" width="2" height="2"></rect><rect x="27" y="28" width="2" height="2"></rect><rect x="27" y="24" width="2" height="2"></rect></g></svg>