<svg xmlns="http://www.w3.org/2000/svg" viewBox="0 0 64 64" x="0px" y="0px"><g><path d="M48.3,15h2a1.36,1.36,0,0,1,.465-1.021,3.322,3.322,0,0,0,0-4.62,1.358,1.358,0,0,1,0-2.048A3.29,3.29,0,0,0,51.7,5h-2a1.362,1.362,0,0,1-.466,1.024,3.326,3.326,0,0,0,0,4.622,1.356,1.356,0,0,1,0,2.045A3.28,3.28,0,0,0,48.3,15Z"></path><path d="M54.3,13h2a1.36,1.36,0,0,1,.465-1.021,3.322,3.322,0,0,0,0-4.62,1.358,1.358,0,0,1,0-2.048A3.29,3.29,0,0,0,57.7,3h-2a1.362,1.362,0,0,1-.466,1.024,3.326,3.326,0,0,0,0,4.622,1.356,1.356,0,0,1,0,2.045A3.28,3.28,0,0,0,54.3,13Z"></path><path d="M6.3,12h2a1.36,1.36,0,0,1,.465-1.021,3.322,3.322,0,0,0,0-4.62,1.358,1.358,0,0,1,0-2.048A3.29,3.29,0,0,0,9.7,2h-2a1.362,1.362,0,0,1-.466,1.024,3.326,3.326,0,0,0,0,4.622,1.356,1.356,0,0,1,0,2.045A3.28,3.28,0,0,0,6.3,12Z"></path><path d="M11.3,15h2a1.36,1.36,0,0,1,.465-1.021,3.322,3.322,0,0,0,0-4.62,1.358,1.358,0,0,1,0-2.048A3.29,3.29,0,0,0,14.7,5h-2a1.362,1.362,0,0,1-.466,1.024,3.326,3.326,0,0,0,0,4.622,1.356,1.356,0,0,1,0,2.045A3.28,3.28,0,0,0,11.3,15Z"></path><path d="M21,38H7V60H21ZM11,56H9V54h2Zm0-4H9V50h2Zm0-4H9V46h2Zm0-4H9V42h2Zm4,12H13V54h2Zm0-4H13V50h2Zm0-4H13V46h2Zm0-4H13V42h2Zm4,12H17V54h2Zm0-4H17V50h2Zm0-4H17V46h2Zm0-4H17V42h2Z"></path><path d="M18.167,11.455c.461,3.748,1.56,10.317,3.178,12.241.1.118.2.2.294.3h6.5A3.992,3.992,0,0,1,28,23c0-1.945,2.712-5.063,3.256-5.668a1.033,1.033,0,0,1,1.488,0C33.288,17.937,36,21.055,36,23a3.992,3.992,0,0,1-.143,1h6.5c.1-.1.2-.185.29-.3,1.63-1.938,2.19-8.121,2.319-11.488-1.39.269-3.735.741-5.744,1.229-2.928.7-4.973,1.605-5.761,2.542L31.935,14.7c.947-1.124,2.8-2.082,5.511-2.854A66.9,66.9,0,0,0,32,4.527a62.017,62.017,0,0,0-6.122,8.439C24.326,15.66,24,17.19,24,18H22a11.192,11.192,0,0,1,1.522-4.886C21.657,12.6,19.55,11.918,18.167,11.455ZM40.02,17.2l1.96-.392c.048.239,1.13,5.88-2.664,7.145l-.632-1.9C40.788,21.35,40.028,17.237,40.02,17.2ZM28,11h2v2H28Zm-4,9v2H22V20Z"></path><path d="M30,23a1.979,1.979,0,0,0,.274,1h3.452A1.979,1.979,0,0,0,34,23c0-.621-.938-2.12-2-3.452C30.939,20.873,30,22.361,30,23Z"></path><path d="M23,60h4V51a1,1,0,0,1,1-1h8a1,1,0,0,1,1,1v9h4V30H23ZM37,34h2v2H37Zm0,4h2v2H37Zm0,4h2v2H37Zm0,4h2v2H37ZM33,34h2v2H33Zm0,4h2v2H33Zm0,4h2v2H33Zm0,4h2v2H33ZM29,34h2v2H29Zm0,4h2v2H29Zm0,4h2v2H29Zm0,4h2v2H29ZM25,34h2v2H25Zm0,4h2v2H25Zm0,4h2v2H25Zm0,4h2v2H25Z"></path><rect x="29" y="52" width="6" height="8"></rect><rect x="5" y="34" width="16" height="2"></rect><path d="M57,38H43V60H57ZM47,56H45V54h2Zm0-4H45V50h2Zm0-4H45V46h2Zm0-4H45V42h2Zm4,12H49V54h2Zm0-4H49V50h2Zm0-4H49V46h2Zm0-4H49V42h2Zm4,12H53V54h2Zm0-4H53V50h2Zm0-4H53V46h2Zm0-4H53V42h2Z"></path><rect x="43" y="34" width="16" height="2"></rect><path d="M13.233,29.048A5.986,5.986,0,0,1,11.361,30.5,6.6,6.6,0,0,1,11.83,32H14A6.278,6.278,0,0,0,13.233,29.048Z"></path><path d="M55.809,30.428A1.044,1.044,0,0,0,55,30c-1.559,0-2.41-1.335-2.777-2.93A4.651,4.651,0,0,0,51,30a4.159,4.159,0,0,0,.455,2h4.912A2.8,2.8,0,0,0,55.809,30.428Z"></path><rect x="20" y="26" width="24" height="2"></rect><path d="M9.776,32a4.684,4.684,0,0,0-1.483-2.293,5.078,5.078,0,0,1-1.118-2.656C6.18,27.925,5,29.087,5,30a4.01,4.01,0,0,0,.721,2Z"></path><rect x="52.586" y="20" width="2.828" height="2" transform="translate(0.967 44.335) rotate(-45)"></rect><polygon points="56.707 14.293 55.293 15.707 56.586 17 55.293 18.293 56.707 19.707 58 18.414 59.293 19.707 60.707 18.293 59.414 17 60.707 15.707 59.293 14.293 58 15.586 56.707 14.293"></polygon><rect x="8" y="18.586" width="2" height="2.828" transform="translate(-11.506 12.222) rotate(-45)"></rect><polygon points="3.707 18.707 5 17.414 6.293 18.707 7.707 17.293 6.414 16 7.707 14.707 6.293 13.293 5 14.586 3.707 13.293 2.293 14.707 3.586 16 2.293 17.293 3.707 18.707"></polygon></g></svg>