<svg xmlns="http://www.w3.org/2000/svg" data-name="skyscraper-building-tower-city-real estate" viewBox="0 0 64 64" x="0px" y="0px"><path d="M55,60V17a1,1,0,0,0-1-1H48a1,1,0,0,0-.51.14L39,21.23V15a1,1,0,0,0-1-1H37V11a1,1,0,0,0-1-1H35V7a1,1,0,0,0-1-1H33V2H31V6H30a1,1,0,0,0-1,1v3H28a1,1,0,0,0-1,1v3H26a1,1,0,0,0-1,1v6.23l-8.49-5.09A1,1,0,0,0,16,16H10a1,1,0,0,0-1,1V60H5v2H59V60ZM31,8h2v2H31Zm-2,4h6v2H29ZM21.29,40.29A1.033,1.033,0,0,0,21,41V60H11V18h4.72L25,23.57v3.02l-1.71,1.7A1.033,1.033,0,0,0,23,29V28H21v2h2v2H21v2h2v2H21v2h2v.59ZM34,60H30V56h4Zm7,0H36V56h1V54H27v2h1v4H23V41.41l1.71-1.7A1.033,1.033,0,0,0,25,39V29.41l1.71-1.7A1.033,1.033,0,0,0,27,27V16H37V27a1.033,1.033,0,0,0,.29.71L39,29.41V39a1.033,1.033,0,0,0,.29.71L41,41.41Zm12,0H43V41a1.033,1.033,0,0,0-.29-.71L41,38.59V38h2V36H41V34h2V32H41V30h2V28H41v1a1.033,1.033,0,0,0-.29-.71L39,26.59V23.57L48.28,18H53Z"></path><rect x="29" y="18" width="6" height="2"></rect><rect x="29" y="22" width="6" height="2"></rect><rect x="29" y="26" width="6" height="2"></rect><rect x="27" y="30" width="10" height="2"></rect><rect x="27" y="34" width="10" height="2"></rect><rect x="27" y="38" width="10" height="2"></rect><rect x="25" y="42" width="14" height="2"></rect><rect x="25" y="46" width="14" height="2"></rect><rect x="25" y="50" width="14" height="2"></rect><rect x="49" y="24" width="2" height="2"></rect><rect x="45" y="24" width="2" height="2"></rect><rect x="49" y="28" width="2" height="2"></rect><rect x="45" y="28" width="2" height="2"></rect><rect x="41" y="24" width="2" height="2"></rect><rect x="49" y="32" width="2" height="2"></rect><rect x="45" y="32" width="2" height="2"></rect><rect x="49" y="36" width="2" height="2"></rect><rect x="45" y="36" width="2" height="2"></rect><rect x="49" y="40" width="2" height="2"></rect><rect x="45" y="40" width="2" height="2"></rect><rect x="49" y="44" width="2" height="2"></rect><rect x="45" y="44" width="2" height="2"></rect><rect x="49" y="48" width="2" height="2"></rect><rect x="45" y="48" width="2" height="2"></rect><rect x="49" y="52" width="2" height="2"></rect><rect x="45" y="52" width="2" height="2"></rect><rect x="49" y="56" width="2" height="2"></rect><rect x="45" y="56" width="2" height="2"></rect><rect x="13" y="24" width="2" height="2"></rect><rect x="17" y="24" width="2" height="2"></rect><rect x="13" y="28" width="2" height="2"></rect><rect x="17" y="28" width="2" height="2"></rect><rect x="21" y="24" width="2" height="2"></rect><rect x="13" y="32" width="2" height="2"></rect><rect x="17" y="32" width="2" height="2"></rect><rect x="13" y="36" width="2" height="2"></rect><rect x="17" y="36" width="2" height="2"></rect><rect x="13" y="40" width="2" height="2"></rect><rect x="17" y="40" width="2" height="2"></rect><rect x="13" y="44" width="2" height="2"></rect><rect x="17" y="44" width="2" height="2"></rect><rect x="13" y="48" width="2" height="2"></rect><rect x="17" y="48" width="2" height="2"></rect><rect x="13" y="52" width="2" height="2"></rect><rect x="17" y="52" width="2" height="2"></rect><rect x="13" y="56" width="2" height="2"></rect><rect x="17" y="56" width="2" height="2"></rect></svg>