<svg xmlns="http://www.w3.org/2000/svg" viewBox="0 0 64 64" x="0px" y="0px"><g data-name="Mobile Game"><path d="M46,2H18a5.006,5.006,0,0,0-5,5V57a5.006,5.006,0,0,0,5,5H46a5.006,5.006,0,0,0,5-5V7A5.006,5.006,0,0,0,46,2ZM25,4H39V5a1,1,0,0,1-1,1H26a1,1,0,0,1-1-1ZM49,57a3,3,0,0,1-3,3H18a3,3,0,0,1-3-3V7a3,3,0,0,1,3-3h5V5a3,3,0,0,0,3,3H38a3,3,0,0,0,3-3V4h5a3,3,0,0,1,3,3Z"></path><path d="M36.777,24.223a11,11,0,1,0,0,15.554,1,1,0,0,0,0-1.414L30.414,32l6.363-6.363a1,1,0,0,0,0-1.414Zm-8.484,7.07a1,1,0,0,0,0,1.414l6.324,6.324a9,9,0,1,1,0-14.062Z"></path><rect x="27" y="25" width="2" height="2"></rect><rect x="35" y="31" width="2" height="2"></rect><rect x="39" y="31" width="2" height="2"></rect><rect x="43" y="31" width="2" height="2"></rect></g></svg>