<svg xmlns="http://www.w3.org/2000/svg" viewBox="0 0 64 64" x="0px" y="0px"><title>Book-Writing-Tool-Pencil-Education</title><g><path d="M35,14V49.184A2.966,2.966,0,0,1,36,49H56V19.824L43.6,41.3a1.008,1.008,0,0,1-.2.248l-4.733,4.2a1,1,0,0,1-1.642-.948l1.267-6.2a1.026,1.026,0,0,1,.113-.3L53.01,13H36A1,1,0,0,0,35,14Zm2,3H47v2H37Zm0,4h8v2H37Zm0,4h6v2H37Zm0,4h4v2H37Z"></path><polygon points="39.581 42.262 41.819 40.277 40.18 39.331 39.581 42.262"></polygon><path d="M60,17H58V50a1,1,0,0,1-1,1H36a1,1,0,0,0-1,1v1H60Z"></path><path d="M33,16H31V54a1,1,0,0,0,2,0Z"></path><path d="M57.134,9.859l-1.5,2.6,1.732,1,1.5-2.6a1,1,0,0,0-1.732-1Z"></path><path d="M4,17V53H29V52a1,1,0,0,0-1-1H7a1,1,0,0,1-1-1V17Z"></path><rect x="54.75" y="14.122" width="1" height="2" transform="translate(14.533 55.413) rotate(-60.006)"></rect><rect x="36" y="26.679" width="24" height="2" transform="translate(0.031 55.413) rotate(-60.005)"></rect><path d="M12.293,15.293a1,1,0,0,1,1.414,0l.293.293V13H12v2.586Z"></path><path d="M29,14a1,1,0,0,0-1-1H16v5a1,1,0,0,1-1.707.707L13,17.414l-1.293,1.293A1,1,0,0,1,10,18V13H8V49H28a2.966,2.966,0,0,1,1,.184ZM18,17h6v2H18Zm8,30H10V45H26Zm0-4H10V41H26Zm0-4H10V37H26Zm0-4H10V33H26Zm0-4H10V29H26Zm0-4H10V25H26Zm0-4H10V21H26Z"></path></g></svg>