<svg xmlns="http://www.w3.org/2000/svg" viewBox="0 0 64 64" x="0px" y="0px"><g data-name="Cloud-Smartphone-Cloud Computing-Internet-Storage"><rect x="25" y="30" width="2" height="2"></rect><rect x="29" y="30" width="6" height="2"></rect><rect x="29" y="56" width="6" height="2"></rect><path d="M51.98,18.36A10.01,10.01,0,0,0,42,9a9.663,9.663,0,0,0-2.16.24A15,15,0,0,0,12,17a12.414,12.414,0,0,0,.07,1.34A13,13,0,0,0,15,44h4V57a5,5,0,0,0,5,5H40a5,5,0,0,0,5-5V44h4a12.992,12.992,0,0,0,2.98-25.64ZM43,57a3.009,3.009,0,0,1-3,3H24a3.009,3.009,0,0,1-3-3V31a3.009,3.009,0,0,1,3-3H40a3.009,3.009,0,0,1,3,3Zm6-15H45V31a5,5,0,0,0-5-5H24a5,5,0,0,0-5,5V42H15a10.993,10.993,0,0,1-1.67-21.86,1,1,0,0,0,.66-.4,1.021,1.021,0,0,0,.18-.74A12.177,12.177,0,0,1,14,17a13,13,0,0,1,24.47-6.13.984.984,0,0,0,1.18.48A8.008,8.008,0,0,1,50,19.01c0,.03-.01.14-.01.17a1,1,0,0,0,.84.99A10.991,10.991,0,0,1,49,42Z"></path><path d="M17,17h2a8.009,8.009,0,0,1,8-8V7A10.011,10.011,0,0,0,17,17Z"></path><path d="M55,31a6.006,6.006,0,0,1-6,6v2a8.009,8.009,0,0,0,8-8Z"></path><path d="M28.465,44.464l1.414,1.414a3.074,3.074,0,0,1,4.242,0l1.414-1.414a5,5,0,0,0-7.07,0Z"></path><path d="M25.636,41.636,27.05,43.05a7.011,7.011,0,0,1,9.9,0l1.414-1.414A9.01,9.01,0,0,0,25.636,41.636Z"></path><path d="M30.586,47.586,32,49l1.414-1.414A2,2,0,0,0,30.586,47.586Z"></path></g></svg>