<svg xmlns="http://www.w3.org/2000/svg" viewBox="0 0 64 64" x="0px" y="0px"><g><path d="M21,38a7,7,0,1,0-7-7A7.008,7.008,0,0,0,21,38Zm-3-9.131a2,2,0,0,1,3.11-1.664l3.2,2.131a2,2,0,0,1,0,3.328l-3.2,2.131A2,2,0,0,1,18,33.131Z"></path><path d="M12,10H60V5a1,1,0,0,0-1-1H13a1,1,0,0,0-1,1ZM24,6h2V8H24ZM20,6h2V8H20ZM16,6h2V8H16Z"></path><circle cx="17" cy="45" r="1"></circle><path d="M5,52H37a1,1,0,0,0,1-1V19a1,1,0,0,0-1-1H5a1,1,0,0,0-1,1V51A1,1,0,0,0,5,52ZM21,22a9,9,0,1,1-9,9A9.01,9.01,0,0,1,21,22ZM8,44h6.184a2.982,2.982,0,0,1,5.632,0H34v2H19.816a2.982,2.982,0,0,1-5.632,0H8Z"></path><polygon points="20 28.869 20 33.138 23.197 31 20 28.869"></polygon><rect x="40" y="34" width="14" height="10"></rect><path d="M13,60H59a1,1,0,0,0,1-1V12H12v4H37a3,3,0,0,1,3,3V32H55a1,1,0,0,1,1,1V45a1,1,0,0,1-1,1H40v5a3,3,0,0,1-3,3H12v5A1,1,0,0,0,13,60ZM52,16h4v2H52Zm-4,0h2v2H48Zm-4,0h2v2H44Zm0,4H56v2H44Zm0,4H56v2H44Zm0,6V28H56v2ZM54,48h2v2H54ZM44,48h8v2H44Zm0,4H56v2H44Z"></path></g></svg>