<svg xmlns="http://www.w3.org/2000/svg" viewBox="0 0 64 64" x="0px" y="0px"><g><path d="M22,19.083V24h4.917A6.017,6.017,0,0,0,22,19.083Z"></path><path d="M18,29a1,1,0,0,1-1-1V22.083A6,6,0,1,0,23.917,29Z"></path><path d="M59,38H56V60h3a1,1,0,0,0,1-1V39A1,1,0,0,0,59,38Zm0,12H57V48h2Z"></path><path d="M46,30a3.009,3.009,0,0,1-3-3V14H8a1,1,0,0,0-1,1V44H22v2H4v2H24V39a3.009,3.009,0,0,1,3-3H48V30ZM35,17h4v2H35Zm0,4h4v2H35ZM21,41H9V39H21Zm-3-5a8,8,0,0,1,0-16,1,1,0,0,1,1,1v6h6a1,1,0,0,1,1,1A8.011,8.011,0,0,1,18,36Zm3-10a1,1,0,0,1-1-1V18a1,1,0,0,1,1-1,8.011,8.011,0,0,1,8,8,1,1,0,0,1-1,1Zm12,6H27V30h6Zm0-13H31.41l-1.7,1.71-1.42-1.42,2-2A1.033,1.033,0,0,1,31,17h2Zm4,15a3,3,0,1,1,3-3A3.009,3.009,0,0,1,37,34Z"></path><path d="M27,38a1,1,0,0,0-1,1V59a1,1,0,0,0,1,1H54V38ZM52,57H29a1,1,0,0,1-1-1V42h2V55h2V51h2v4h2V46h2v9h2V49h2v6h2V47h2v8h2V44h2V55h2Z"></path><path d="M45,24v3a1,1,0,0,0,1,1H58a1,1,0,0,0,1-1V24Zm8,3H51V25h2Z"></path><circle cx="37" cy="31" r="1"></circle><path d="M58,4H46a1,1,0,0,0-1,1V22H59V5A1,1,0,0,0,58,4ZM53,17H51V15h2Zm4,0H55V15h2Zm0-4H51V11h6Zm0-4H51V7h6Z"></path></g></svg>