<svg xmlns="http://www.w3.org/2000/svg" viewBox="0 0 64 64" x="0px" y="0px"><g data-name="House-Check list"><path d="M47,60H15a3,3,0,0,1-3-3V56H31V54H9a3,3,0,0,1-3-3V7A3,3,0,0,1,9,4H32v7a1,1,0,0,0,1.707.707L36,9.414l2.293,2.293A1,1,0,0,0,39,12a.987.987,0,0,0,.383-.076A1,1,0,0,0,40,11V4h1a3,3,0,0,1,3,3V26h2V10h1a3,3,0,0,1,3,3V27h2V13a5.006,5.006,0,0,0-5-5H46V7a5.006,5.006,0,0,0-5-5H9A5.006,5.006,0,0,0,4,7V51a5.006,5.006,0,0,0,5,5h1v1a5.006,5.006,0,0,0,5,5H47a5.005,5.005,0,0,0,3.263-1.21l-1.307-1.516A2.994,2.994,0,0,1,47,60ZM38,4V8.586L36.707,7.293a1,1,0,0,0-1.414,0L34,8.586V4Z"></path><path d="M21.293,10.293l-1.362,1.362A.994.994,0,0,0,19,11H11a1,1,0,0,0-1,1v8a1,1,0,0,0,1,1h8a1,1,0,0,0,1-1V14.414l2.707-2.707ZM18,19H12V13h6v.586l-2,2-1.293-1.293-1.414,1.414,2,2a1,1,0,0,0,1.414,0L18,16.414Z"></path><path d="M20,28.414l2.707-2.707-1.414-1.414-1.362,1.362A.994.994,0,0,0,19,25H11a1,1,0,0,0-1,1v8a1,1,0,0,0,1,1h8a1,1,0,0,0,1-1ZM12,33V27h6v.586l-2,2-1.293-1.293-1.414,1.414,2,2a1,1,0,0,0,1.414,0L18,30.414V33Z"></path><path d="M19,38H11a1,1,0,0,0-1,1v8a1,1,0,0,0,1,1h8a1,1,0,0,0,1-1V39A1,1,0,0,0,19,38Zm-1,8H12V40h6Z"></path><rect x="24" y="17" width="10" height="2"></rect><rect x="24" y="13" width="6" height="2"></rect><rect x="24" y="31" width="10" height="2"></rect><rect x="24" y="27" width="6" height="2"></rect><path d="M61.157,39.18,56,35.54V30a1,1,0,0,0-1-1H51a1,1,0,0,0-1,1v1.3l-4.424-3.122a1,1,0,0,0-1.152,0l-15.581,11A2.786,2.786,0,1,0,32.1,43.7L34,42.307V56a2,2,0,0,0,2,2H54a2,2,0,0,0,2-2V42.307L57.9,43.7a2.786,2.786,0,1,0,3.255-4.522ZM52,31h2v3.128l-2-1.411ZM40,56V50h4v6Zm14,0H46V49a1,1,0,0,0-1-1H39a1,1,0,0,0-1,1v7H36V40.84l9-6.6,9,6.6Zm6.2-14.108a.783.783,0,0,1-.517.337.77.77,0,0,1-.6-.14l-13.494-9.9a1,1,0,0,0-1.184,0l-13.494,9.9a.773.773,0,0,1-.6.14A.785.785,0,0,1,30,40.814l15-10.59L60,40.813A.784.784,0,0,1,60.2,41.892Z"></path><path d="M47,49v4a1,1,0,0,0,1,1h4a1,1,0,0,0,1-1V49a1,1,0,0,0-1-1H48A1,1,0,0,0,47,49Zm2,1h2v2H49Z"></path><path d="M41,42a4,4,0,1,0,4-4A4,4,0,0,0,41,42Zm6,0a2,2,0,1,1-2-2A2,2,0,0,1,47,42Z"></path></g></svg>