<svg xmlns="http://www.w3.org/2000/svg" viewBox="0 0 64 64" x="0px" y="0px"><g><path d="M40.423,25.948A3.011,3.011,0,0,0,38,24.03V18.185a4.937,4.937,0,0,0-.861-2.806C34.143,11,32.53,11,32,11s-2.144,0-5.139,4.378A4.949,4.949,0,0,0,26,18.185V24.03a3.012,3.012,0,0,0-2.423,1.917L21.57,31.3A2,2,0,0,0,23.443,34H27a1,1,0,0,0,.895-.553l.52-1.04.636,1.909A1,1,0,0,0,30,35h4a1,1,0,0,0,.948-.684l.637-1.91.52,1.041A1,1,0,0,0,37,34h3.557a2,2,0,0,0,1.873-2.7ZM28,18.185a2.959,2.959,0,0,1,.511-1.677C30.41,13.733,31.624,13,32,13s1.59.733,3.489,3.509A2.951,2.951,0,0,1,36,18.185V30H33V24H31v6H28ZM23.443,32l2.006-5.351a1,1,0,0,1,.551-.56V31a.982.982,0,0,0,.469.826L26.382,32Zm7.278,1-.334-1h3.226l-.334,1Zm6.9-1-.087-.174A.982.982,0,0,0,38,31V26.089a.993.993,0,0,1,.55.56L40.557,32Z"></path><path d="M32,21a3,3,0,1,0-3-3A3,3,0,0,0,32,21Zm0-4a1,1,0,1,1-1,1A1,1,0,0,1,32,17Z"></path><path d="M36.329,40.4A4.993,4.993,0,0,1,35,37H33a6.976,6.976,0,0,0,1.862,4.754Z"></path><path d="M31,37H29a4.989,4.989,0,0,1-1.328,3.394l1.469,1.357A6.977,6.977,0,0,0,31,37Z"></path><path d="M35,43v2a2,2,0,0,1,0,4,1,1,0,0,0-1,1,2,2,0,0,1-4,0,1,1,0,0,0-1-1,2,2,0,0,1,0-4V43a4,4,0,0,0-.9,7.9,4,4,0,0,0,7.8,0A4,4,0,0,0,35,43Z"></path><path d="M53,14a1,1,0,0,1-1-1H50a3,3,0,0,0,2,2.816V17h2V15.816A2.993,2.993,0,0,0,53,10a1,1,0,1,1,1-1h2a3,3,0,0,0-2-2.816V5H52V6.184A2.993,2.993,0,0,0,53,12a1,1,0,0,1,0,2Z"></path><path d="M12,17V15.816A2.993,2.993,0,0,0,11,10a1,1,0,1,1,1-1h2a3,3,0,0,0-2-2.816V5H10V6.184A2.993,2.993,0,0,0,11,12a1,1,0,1,1-1,1H8a3,3,0,0,0,2,2.816V17Z"></path><path d="M11,50a1,1,0,0,1,1,1h2a3,3,0,0,0-2-2.816V47H10v1.184A2.993,2.993,0,0,0,11,54a1,1,0,1,1-1,1H8a3,3,0,0,0,2,2.816V59h2V57.816A2.993,2.993,0,0,0,11,52a1,1,0,0,1,0-2Z"></path><path d="M53,50a1,1,0,0,1,1,1h2a3,3,0,0,0-2-2.816V47H52v1.184A2.993,2.993,0,0,0,53,54a1,1,0,1,1-1,1H50a3,3,0,0,0,2,2.816V59h2V57.816A2.993,2.993,0,0,0,53,52a1,1,0,0,1,0-2Z"></path><path d="M56.848,44.877a27.879,27.879,0,0,0,0-25.754A8.992,8.992,0,1,0,44.877,7.151a27.887,27.887,0,0,0-25.754,0A8.992,8.992,0,1,0,7.151,19.123a27.887,27.887,0,0,0,0,25.754A8.992,8.992,0,1,0,19.123,56.849a27.887,27.887,0,0,0,25.754,0A8.992,8.992,0,1,0,56.848,44.877ZM53,4a7,7,0,1,1-7,7A7.008,7.008,0,0,1,53,4ZM4,11a7,7,0,1,1,7,7A7.008,7.008,0,0,1,4,11Zm7,49a7,7,0,1,1,7-7A7.008,7.008,0,0,1,11,60Zm21-2a25.923,25.923,0,0,1-12.215-3.064A8.982,8.982,0,0,0,9.064,44.215a25.88,25.88,0,0,1,0-24.43A8.982,8.982,0,0,0,19.785,9.064a25.884,25.884,0,0,1,24.43,0A8.983,8.983,0,0,0,54.937,19.785a25.888,25.888,0,0,1,0,24.43A8.983,8.983,0,0,0,44.215,54.937,25.931,25.931,0,0,1,32,58Zm21,2a7,7,0,1,1,7-7A7.008,7.008,0,0,1,53,60Z"></path><path d="M19.812,19.753a18,18,0,0,0-1.058,25.435l1.472-1.355a16,16,0,0,1,.941-22.608Z"></path><path d="M45.246,45.188a18,18,0,0,0-1.058-25.435l-1.355,1.472a16,16,0,0,1,.942,22.608Z"></path></g></svg>