<svg xmlns="http://www.w3.org/2000/svg" viewBox="0 0 64 64" x="0px" y="0px"><g data-name="skyscraper-building-tower-city-real estate"><path d="M38,8H33V5h1V3H30V5h1V8H26v6H38Zm-7,4H29V10h2Zm4,0H33V10h2Z"></path><polygon points="16 24 15 24 15 17 13 17 13 24 11 24 11 19 9 19 9 24 8 24 8 26 16 26 16 24"></polygon><polygon points="56 24 55 24 55 19 53 19 53 24 51 24 51 17 49 17 49 24 48 24 48 26 56 26 56 24"></polygon><path d="M57,60V28H39V60H37V27a1,1,0,0,1,1-1h3V16H23V26h3a1,1,0,0,1,1,1V60H25V28H7V60H2v2H62V60ZM37,18h2v2H37Zm0,4h2v2H37ZM11,56H9V54h2Zm0-4H9V50h2Zm0-4H9V46h2Zm0-4H9V42h2Zm0-4H9V38h2Zm0-4H9V34h2Zm0-4H9V30h2Zm4,24H13V54h2Zm0-4H13V50h2Zm0-4H13V46h2Zm0-4H13V42h2Zm0-4H13V38h2Zm0-4H13V34h2Zm0-4H13V30h2Zm4,24H17V54h2Zm0-4H17V50h2Zm0-4H17V46h2Zm0-4H17V42h2Zm0-4H17V38h2Zm0-4H17V34h2Zm0-4H17V30h2Zm4,24H21V54h2Zm0-4H21V50h2Zm0-4H21V46h2Zm0-4H21V42h2Zm0-4H21V38h2Zm0-4H21V34h2Zm0-4H21V30h2Zm4-8H25V22h2Zm0-4H25V18h2Zm4,36H29V54h2Zm0-4H29V50h2Zm0-4H29V46h2Zm0-4H29V42h2Zm0-4H29V38h2Zm0-4H29V34h2Zm0-4H29V30h2Zm0-4H29V26h2Zm0-4H29V22h2Zm0-4H29V18h2Zm4,36H33V54h2Zm0-4H33V50h2Zm0-4H33V46h2Zm0-4H33V42h2Zm0-4H33V38h2Zm0-4H33V34h2Zm0-4H33V30h2Zm0-4H33V26h2Zm0-4H33V22h2Zm0-4H33V18h2Zm8,36H41V54h2Zm0-4H41V50h2Zm0-4H41V46h2Zm0-4H41V42h2Zm0-4H41V38h2Zm0-4H41V34h2Zm0-4H41V30h2Zm4,24H45V54h2Zm0-4H45V50h2Zm0-4H45V46h2Zm0-4H45V42h2Zm0-4H45V38h2Zm0-4H45V34h2Zm0-4H45V30h2Zm4,24H49V54h2Zm0-4H49V50h2Zm0-4H49V46h2Zm0-4H49V42h2Zm0-4H49V38h2Zm0-4H49V34h2Zm0-4H49V30h2Zm4,24H53V54h2Zm0-4H53V50h2Zm0-4H53V46h2Zm0-4H53V42h2Zm0-4H53V38h2Zm0-4H53V34h2Zm0-4H53V30h2Z"></path></g></svg>