<svg xmlns="http://www.w3.org/2000/svg" viewBox="0 0 64 64" x="0px" y="0px"><g><path d="M37,16V7A5,5,0,0,0,27,7v9a3,3,0,0,0,0,6V51a5.005,5.005,0,0,0,2,3.979V59a3,3,0,0,0,6,0V54.979A5.005,5.005,0,0,0,37,51V22a3,3,0,0,0,0-6ZM29,7a3,3,0,0,1,6,0v9H29Zm6,19H34a1,1,0,0,0,0,2h1v4H34a1,1,0,0,0,0,2h1v4H34a1,1,0,0,0,0,2h1v4H34a1,1,0,0,0,0,2h1v5a2.968,2.968,0,0,1-1.5,2.581,1,1,0,0,0-.5.864V59a1,1,0,0,1-2,0V54.445a1,1,0,0,0-.5-.864A2.968,2.968,0,0,1,29,51V22h6Zm2-6H27a1,1,0,0,1,0-2H37a1,1,0,0,1,0,2Z"></path></g></svg>