<svg xmlns="http://www.w3.org/2000/svg" viewBox="0 0 64 64" x="0px" y="0px"><g><path d="M37.142,14.728A2,2,0,0,0,41,14v-.688a15.631,15.631,0,0,0-1.608.608A14.667,14.667,0,0,1,37.142,14.728Z"></path><path d="M56,7a3.009,3.009,0,0,0-3-3H25a3.009,3.009,0,0,0-3,3V32.88A14.992,14.992,0,0,1,32,47a14.819,14.819,0,0,1-.3,3H53a3.009,3.009,0,0,0,3-3ZM32,21a4.994,4.994,0,0,1,3.667-4.8A3.968,3.968,0,0,1,35,14V12a4,4,0,0,1,8,0v2a3.968,3.968,0,0,1-.667,2.2A4.994,4.994,0,0,1,46,21v1a1,1,0,0,1-1,1H33a1,1,0,0,1-1-1Zm-6,6h2v2H26ZM52,45H34V43H52ZM34,41V39H48v2Zm18,0H50V39h2Zm0-4H30V35H52Zm0-4H26V31H52Zm0-4H30V27H52Z"></path><path d="M41,18H37a3,3,0,0,0-3,3H44A3,3,0,0,0,41,18Z"></path><path d="M17,34A13,13,0,1,0,30,47,13.012,13.012,0,0,0,17,34Zm0,24A11,11,0,1,1,28,47,11.013,11.013,0,0,1,17,58Z"></path><path d="M40.858,11.272A2,2,0,0,0,37,12v.688a15.631,15.631,0,0,0,1.608-.608A14.667,14.667,0,0,1,40.858,11.272Z"></path><path d="M24,46h1.941a8.956,8.956,0,0,0-1.916-4.611l-1.368,1.368-1.414-1.414,1.368-1.368A8.956,8.956,0,0,0,18,38.059V40H16V38.059a8.956,8.956,0,0,0-4.611,1.916l1.368,1.368-1.414,1.414L9.975,41.389A8.956,8.956,0,0,0,8.059,46H10v2H8.059a8.956,8.956,0,0,0,1.916,4.611l1.368-1.368,1.414,1.414-1.368,1.368A8.956,8.956,0,0,0,16,55.941V54h2v1.941a8.956,8.956,0,0,0,4.611-1.916l-1.368-1.368,1.414-1.414,1.368,1.368A8.956,8.956,0,0,0,25.941,48H24Zm-6,1a1,1,0,0,1-.293.707l-2,2-1.414-1.414L16,46.586V42h2Z"></path></g></svg>