<svg xmlns="http://www.w3.org/2000/svg" viewBox="0 0 64 64" x="0px" y="0px"><g data-name="Vending Machine"><path d="M54,2H10A1,1,0,0,0,9,3V57a1,1,0,0,0,1,1h1v3a1,1,0,0,0,1,1h4a1,1,0,0,0,1-1V58H47v3a1,1,0,0,0,1,1h4a1,1,0,0,0,1-1V58h1a1,1,0,0,0,1-1V3A1,1,0,0,0,54,2ZM15,60H13V58h2Zm36,0H49V58h2Zm2-4H11V4H53Z"></path><path d="M14,38H38a1,1,0,0,0,1-1V7a1,1,0,0,0-1-1H14a1,1,0,0,0-1,1V37A1,1,0,0,0,14,38ZM37,26H15V18H37Zm0,10H15V28H37ZM15,8H37v8H15Z"></path><path d="M36,44H16a1,1,0,0,0-1,1v6a1,1,0,0,0,1,1H36a1,1,0,0,0,1-1V45A1,1,0,0,0,36,44Zm-1,6H17V46H35Z"></path><rect x="17" y="10" width="2" height="4"></rect><rect x="21" y="10" width="2" height="4"></rect><rect x="25" y="10" width="2" height="4"></rect><rect x="29" y="10" width="2" height="4"></rect><rect x="33" y="10" width="2" height="4"></rect><rect x="17" y="20" width="2" height="4"></rect><rect x="21" y="20" width="2" height="4"></rect><rect x="25" y="20" width="2" height="4"></rect><rect x="29" y="20" width="2" height="4"></rect><rect x="33" y="20" width="2" height="4"></rect><rect x="17" y="30" width="2" height="4"></rect><rect x="21" y="30" width="2" height="4"></rect><rect x="25" y="30" width="2" height="4"></rect><rect x="29" y="30" width="2" height="4"></rect><rect x="33" y="30" width="2" height="4"></rect><path d="M42,26h8a1,1,0,0,0,1-1V13a1,1,0,0,0-1-1H42a1,1,0,0,0-1,1V25A1,1,0,0,0,42,26Zm1-12h6V24H43Z"></path><rect x="45" y="16" width="2" height="2"></rect><rect x="45" y="20" width="2" height="2"></rect><rect x="23" y="47" width="6" height="2"></rect><rect x="43" y="29" width="2" height="4"></rect><rect x="47" y="29" width="2" height="4"></rect><rect x="43" y="35" width="6" height="2"></rect></g></svg>