<svg xmlns="http://www.w3.org/2000/svg" viewBox="0 0 64 64" x="0px" y="0px"><g><rect x="31" y="10" width="2" height="2"></rect><rect x="16.15" y="16.151" width="2" height="2" transform="translate(-7.104 17.151) rotate(-45)"></rect><rect x="10" y="31" width="2" height="2"></rect><rect x="16.15" y="45.849" width="2" height="2" transform="translate(-28.104 25.849) rotate(-45)"></rect><rect x="31" y="52" width="2" height="2"></rect><rect x="45.85" y="45.849" width="2" height="2" transform="translate(-19.405 46.849) rotate(-45)"></rect><rect x="52" y="31" width="2" height="2"></rect><rect x="45.85" y="16.151" width="2" height="2" transform="translate(1.594 38.151) rotate(-45)"></rect><path d="M34.311,4.1l1.4-1.4L34.293,1.293l-3,3a1,1,0,0,0,0,1.414l3,3,1.414-1.414L34.54,6.126a26,26,0,0,1,2.225,51.438l.363,1.967A28,28,0,0,0,34.311,4.1Z"></path><path d="M29.707,55.293l-1.414,1.414,1.167,1.167A26,26,0,0,1,28.154,6.282L27.861,4.3A28,28,0,0,0,29.689,59.9l-1.4,1.4,1.414,1.414,3-3a1,1,0,0,0,0-1.414Z"></path><rect x="31" y="24" width="2" height="6"></rect><rect x="35" y="24" width="6" height="2"></rect><rect x="23" y="24" width="6" height="2"></rect><path d="M35,28v3a1,1,0,0,1-1,1H30a1,1,0,0,1-1-1V28H23V40H41V28ZM33,38H31V36h2Zm6,0H35V36h4Z"></path><path d="M32,16A16,16,0,1,0,48,32,16.019,16.019,0,0,0,32,16ZM43,40a2,2,0,0,1-2,2H23a2,2,0,0,1-2-2V24a2,2,0,0,1,2-2H41a2,2,0,0,1,2,2Z"></path></g></svg>