<svg xmlns="http://www.w3.org/2000/svg" viewBox="0 0 64 64" x="0px" y="0px"><g><path d="M36,51H34V61a1,1,0,0,0,1,1h8V60H36Z"></path><rect x="45" y="60" width="2" height="2"></rect><rect x="49" y="60" width="2" height="2"></rect><rect x="53" y="60" width="2" height="2"></rect><path d="M28,58H21v2h8a1,1,0,0,0,1-1V51H28Z"></path><rect x="17" y="58" width="2" height="2"></rect><rect x="13" y="58" width="2" height="2"></rect><rect x="9" y="58" width="2" height="2"></rect><path d="M45,49v6a1,1,0,0,0,1,1h8V54H47V49Z"></path><path d="M59,52a3,3,0,1,0,3,3A3,3,0,0,0,59,52Zm0,4a1,1,0,1,1,1-1A1,1,0,0,1,59,56Z"></path><path d="M17,50H10v2h8a1,1,0,0,0,1-1V47H17Z"></path><path d="M5,48a3,3,0,1,0,3,3A3,3,0,0,0,5,48Zm0,4a1,1,0,1,1,1-1A1,1,0,0,1,5,52Z"></path><rect x="26" y="26" width="13" height="2"></rect><rect x="41" y="26" width="2" height="2"></rect><rect x="22" y="26" width="2" height="2"></rect><path d="M10,32h4v2a1,1,0,0,0,.858.99l3.906.56a13.515,13.515,0,0,0,.659,1.6L17.06,40.3a1,1,0,0,0,.093,1.308l4.24,4.24a1,1,0,0,0,1.308.093l3.147-2.363a13.515,13.515,0,0,0,1.6.659l.56,3.906A1,1,0,0,0,29,49h6a1,1,0,0,0,.99-.858l.561-3.906a13.671,13.671,0,0,0,1.6-.659L41.3,45.94a1,1,0,0,0,1.307-.093l4.24-4.24a1,1,0,0,0,.092-1.307l-2.362-3.148a13.655,13.655,0,0,0,.659-1.6l3.906-.56A1,1,0,0,0,50,34V32h2a10,10,0,0,0,.935-19.957A7.011,7.011,0,0,0,46,6a6.928,6.928,0,0,0-4.051,1.292,11.994,11.994,0,0,0-21.533,3.6A6.984,6.984,0,0,0,10.083,16,8,8,0,1,0,10,32Zm38,1.133-3.672.527a1,1,0,0,0-.82.715,11.672,11.672,0,0,1-.985,2.4,1,1,0,0,0,.078,1.08l2.218,2.956-3.012,3.013L38.851,41.6a1,1,0,0,0-1.082-.077,11.664,11.664,0,0,1-2.394.986,1,1,0,0,0-.715.819L34.134,47H29.867l-.527-3.672a1,1,0,0,0-.715-.819,11.641,11.641,0,0,1-2.394-.986,1,1,0,0,0-1.082.077l-2.955,2.219-3.013-3.013L21.4,37.851a1,1,0,0,0,.077-1.082,11.641,11.641,0,0,1-.986-2.394,1,1,0,0,0-.819-.715L16,33.133V32h8.069a7.993,7.993,0,0,0,15.862,0H48ZM26.09,32H37.91a5.993,5.993,0,0,1-11.82,0ZM10,18a5.914,5.914,0,0,1,.861.07,1.027,1.027,0,0,0,.8-.274A1.086,1.086,0,0,0,12,17a4.993,4.993,0,0,1,8.412-3.646,1,1,0,0,0,1.675-.606A9.993,9.993,0,0,1,40.82,9.29a1,1,0,0,0,1.6.226A5,5,0,0,1,51,13a1,1,0,0,0,1,1,8,8,0,0,1,0,16H10a6,6,0,0,1,0-12Z"></path><rect x="47" y="12" width="2" height="2"></rect><rect x="43" y="12" width="2" height="2"></rect><path d="M58,22H56a4,4,0,0,1-4,4v2A6.006,6.006,0,0,0,58,22Z"></path><rect x="48" y="26" width="2" height="2"></rect></g></svg>