<svg xmlns="http://www.w3.org/2000/svg" viewBox="0 0 64 64" x="0px" y="0px"><title>Watermelon</title><g><path d="M60,32.037V32a1,1,0,0,0-.037-.2,1.013,1.013,0,0,0-.03-.157.965.965,0,0,0-.112-.187.862.862,0,0,0-.085-.136l0-.007L33.463,3.1a2.067,2.067,0,0,0-2.926,0L4.269,31.318l0,.007a.862.862,0,0,0-.085.136.965.965,0,0,0-.112.187,1.013,1.013,0,0,0-.03.157A1,1,0,0,0,4,32v.04C4.02,49.123,16.05,62,32,62S59.98,49.123,60,32.04ZM32,4.468,57.8,32.182C54.42,39.113,46.753,50,32,50S9.58,39.113,6.2,32.182ZM32,60C18.633,60,8.232,50.209,6.318,36.579,12.346,46.559,21.323,52,32,52s19.654-5.441,25.682-15.421C55.768,50.209,45.367,60,32,60Z"></path><path d="M24,25a1,1,0,0,0,1-1V22a1,1,0,0,0-2,0v2A1,1,0,0,0,24,25Z"></path><path d="M32,19a1,1,0,0,0,1-1V16a1,1,0,0,0-2,0v2A1,1,0,0,0,32,19Z"></path><path d="M40,25a1,1,0,0,0,1-1V22a1,1,0,0,0-2,0v2A1,1,0,0,0,40,25Z"></path><path d="M32,32a1,1,0,0,0,1-1V29a1,1,0,0,0-2,0v2A1,1,0,0,0,32,32Z"></path><path d="M18,32a1,1,0,0,0,1-1V29a1,1,0,0,0-2,0v2A1,1,0,0,0,18,32Z"></path><path d="M46,32a1,1,0,0,0,1-1V29a1,1,0,0,0-2,0v2A1,1,0,0,0,46,32Z"></path><path d="M32,43a1,1,0,0,0,1-1V40a1,1,0,0,0-2,0v2A1,1,0,0,0,32,43Z"></path><path d="M24,40a1,1,0,0,0,1-1V37a1,1,0,0,0-2,0v2A1,1,0,0,0,24,40Z"></path><path d="M40,40a1,1,0,0,0,1-1V37a1,1,0,0,0-2,0v2A1,1,0,0,0,40,40Z"></path></g></svg>