<svg xmlns="http://www.w3.org/2000/svg" viewBox="0 0 64 64" x="0px" y="0px"><g data-name="Robotic Arm-Robot-Technology-Engineer-Industry"><polygon points="52.532 50 43.468 50 40.135 54 55.865 54 52.532 50"></polygon><rect x="35" y="56" width="26" height="4"></rect><path d="M16,14a5,5,0,1,0-5-5A5.006,5.006,0,0,0,16,14Zm0-8a3,3,0,1,1-3,3A3,3,0,0,1,16,6Z"></path><circle cx="16" cy="9" r="1"></circle><path d="M48.305,12l.121-.619A6.892,6.892,0,0,1,48.685,6H22.315a6.912,6.912,0,0,1,0,6Z"></path><circle cx="16" cy="39" r="4"></circle><path d="M10.305,46.794a1,1,0,0,1,1.111-.06,8.892,8.892,0,0,0,2.356.975,1,1,0,0,1,.743.828L14.867,51h2.266l.352-2.463a1,1,0,0,1,.743-.828,8.892,8.892,0,0,0,2.356-.975,1,1,0,0,1,1.111.06l1.99,1.492,1.6-1.6L23.794,44.7a1,1,0,0,1-.06-1.111,8.892,8.892,0,0,0,.975-2.356,1,1,0,0,1,.828-.743L28,40.133V37.867l-2.463-.352a1,1,0,0,1-.828-.743,8.892,8.892,0,0,0-.975-2.356,1,1,0,0,1,.06-1.111l1.492-1.99-1.6-1.6L21.7,31.206a1,1,0,0,1-1.111.06,8.892,8.892,0,0,0-2.356-.975,1,1,0,0,1-.743-.828L17.133,27H14.867l-.352,2.463a1,1,0,0,1-.743.828,8.892,8.892,0,0,0-2.356.975,1,1,0,0,1-1.111-.06l-1.99-1.492-1.6,1.6,1.492,1.99a1,1,0,0,1,.06,1.111,8.892,8.892,0,0,0-.975,2.356,1,1,0,0,1-.828.743L4,37.867v2.266l2.463.352a1,1,0,0,1,.828.743,8.892,8.892,0,0,0,.975,2.356,1,1,0,0,1-.06,1.111l-1.492,1.99,1.6,1.6ZM24,38h2v2H24ZM8,40H6V38H8Zm9,9H15V47h2Zm6.778-3.636-1.414,1.414L20.95,45.364l1.414-1.414ZM22.364,31.222l1.414,1.414L22.364,34.05,20.95,32.636ZM15,29h2v2H15Zm1,4a6,6,0,1,1-6,6A6.006,6.006,0,0,1,16,33Zm-7.778-.364,1.414-1.414,1.414,1.414L9.636,34.05ZM9.636,43.95l1.414,1.414L9.636,46.778,8.222,45.364Z"></path><path d="M12,14.736V18h8V14.736a6.961,6.961,0,0,1-8,0Z"></path><circle cx="55" cy="9" r="1"></circle><path d="M55,14a5,5,0,1,0-5-5A5.006,5.006,0,0,0,55,14Zm0-8a3,3,0,1,1-3,3A3,3,0,0,1,55,6Z"></path><circle cx="48" cy="43" r="1"></circle><path d="M48,38a5,5,0,1,0,5,5A5.006,5.006,0,0,0,48,38Zm0,8a3,3,0,1,1,3-3A3,3,0,0,1,48,46Z"></path><path d="M45.593,36.435a6.952,6.952,0,0,1,7.752,2.055l4.49-23.1A6.967,6.967,0,0,1,50.11,14h-.156Z"></path><path d="M14.043,27.457l-2.75-2.75A1,1,0,0,1,11,24V20h2v3.586l2.457,2.457Z"></path><path d="M17.957,27.457l-1.414-1.414L19,23.586V20h2v4a1,1,0,0,1-.293.707Z"></path></g></svg>