<svg xmlns="http://www.w3.org/2000/svg" viewBox="0 0 64 64" x="0px" y="0px"><g data-name="Video Player-Smartphone-Streaming-Technology-Entertainment"><path d="M22,15H19a1,1,0,0,0-1,1v3h4Z"></path><path d="M18,46a1,1,0,0,0,1,1h3V43H18Z"></path><rect x="30" y="43" width="4" height="4"></rect><rect x="36" y="15" width="4" height="4"></rect><rect x="24" y="15" width="4" height="4"></rect><rect x="36" y="43" width="4" height="4"></rect><path d="M34,54H30a1,1,0,0,0,0,2h4a1,1,0,0,0,0-2Z"></path><rect x="30" y="15" width="4" height="4"></rect><rect x="24" y="43" width="4" height="4"></rect><path d="M45,15H42v4h4V16A1,1,0,0,0,45,15Z"></path><path d="M50,8a4,4,0,0,0-4-4H18a4,4,0,0,0-4,4V56a4,4,0,0,0,4,4H46a4,4,0,0,0,4-4ZM29,6h6V8H29ZM25,6h2V8H25Zm9,52H30a3,3,0,0,1,0-6h4a3,3,0,0,1,0,6ZM48,46a3,3,0,0,1-3,3H19a3,3,0,0,1-3-3V16a3,3,0,0,1,3-3H45a3,3,0,0,1,3,3Z"></path><path d="M42,47h3a1,1,0,0,0,1-1V43H42Z"></path><path d="M18,41H46V21H18ZM32,23a8,8,0,1,1-8,8A8.009,8.009,0,0,1,32,23Z"></path><polygon points="34.197 31 31 28.868 31 33.138 34.197 31"></polygon><path d="M32,37a6,6,0,1,0-6-6A6.006,6.006,0,0,0,32,37Zm-3-8.132A2,2,0,0,1,32.109,27.2l3.2,2.132a2,2,0,0,1,0,3.328l-3.2,2.132A2,2,0,0,1,29,33.132Z"></path></g></svg>