<svg xmlns="http://www.w3.org/2000/svg" viewBox="0 0 64 64" x="0px" y="0px"><g><path d="M54,6H42.65a5.99,5.99,0,0,0-11.3,0H10A3,3,0,0,0,7,9V59a3,3,0,0,0,3,3H54a3,3,0,0,0,3-3V9A3,3,0,0,0,54,6ZM19,8v6.586l-1.293-1.293a1,1,0,0,0-1.414,0L15,14.586V8ZM42,60H10a1,1,0,0,1-1-1V9a1,1,0,0,1,1-1h3v9a1,1,0,0,0,1.707.707L17,15.414l2.293,2.293A1,1,0,0,0,21,17V8H31V20h2V8a4,4,0,0,1,8,0v8.5a2.5,2.5,0,0,1-5,0V9a1,1,0,0,1,2,0v8h2V9a3,3,0,0,0-6,0v7.5a4.5,4.5,0,0,0,9,0V8h3a1,1,0,0,1,1,1V59a1,1,0,0,1-1,1Zm6.816,0A2.966,2.966,0,0,0,49,59V9a2.966,2.966,0,0,0-.184-1H50a1,1,0,0,1,1,1V59a1,1,0,0,1-1,1ZM55,59a1,1,0,0,1-1,1H52.816A2.966,2.966,0,0,0,53,59V9a2.966,2.966,0,0,0-.184-1H54a1,1,0,0,1,1,1Z"></path><rect x="13" y="25" width="30" height="2"></rect><rect x="13" y="31" width="30" height="2"></rect><rect x="13" y="37" width="30" height="2"></rect><rect x="13" y="43" width="30" height="2"></rect><rect x="13" y="49" width="30" height="2"></rect></g></svg>