<svg xmlns="http://www.w3.org/2000/svg" viewBox="0 0 64 64" x="0px" y="0px"><g data-name="Time is money-Money-Time-Clock-Cash"><path d="M4,50v2H22V46H4v2H16v2Zm14-2h2v2H18Z"></path><path d="M22,40V38H4v6H22V42H10V40ZM8,42H6V40H8Z"></path><path d="M19,36a1,1,0,0,0,1-1V33a1,1,0,0,0-1-1H18v2H16V32H14v2H12V32H10v2H8V32H7a1,1,0,0,0-1,1v2a1,1,0,0,0,1,1Z"></path><path d="M30,26v2H28V26H26v2H24V26H23a1,1,0,0,0-1,1v2a1,1,0,0,0,1,1h9.74a15.147,15.147,0,0,1-1.44-4Z"></path><path d="M39,24H37.059a8.956,8.956,0,0,0,1.916,4.611l1.368-1.368,1.414,1.414-1.368,1.368A8.956,8.956,0,0,0,45,31.941V30h2v1.941a8.956,8.956,0,0,0,4.611-1.916l-1.368-1.368,1.414-1.414,1.368,1.368A8.956,8.956,0,0,0,54.941,24H53V22h1.941a8.956,8.956,0,0,0-1.916-4.611l-1.368,1.368-1.414-1.414,1.368-1.368A8.956,8.956,0,0,0,47,14.059V16H45V14.059a8.956,8.956,0,0,0-4.611,1.916l1.368,1.368-1.414,1.414-1.368-1.368A8.956,8.956,0,0,0,37.059,22H39Zm6-1.414V18h2v5a1,1,0,0,1-.293.707l-2,2-1.414-1.414Z"></path><path d="M10,20v2H8V20H7a1,1,0,0,0-1,1v2a1,1,0,0,0,1,1H19a1,1,0,0,0,1-1V21a1,1,0,0,0-1-1H18v2H16V20H14v2H12V20Z"></path><path d="M46,36A13,13,0,1,0,33,23,13.012,13.012,0,0,0,46,36Zm0-24A11,11,0,1,1,35,23,11.013,11.013,0,0,1,46,12Z"></path><path d="M32,32H30v2H28V32H26v2H24V32H23a1,1,0,0,0-1,1v2a1,1,0,0,0,1,1H35a1,1,0,0,0,1-1v-.85A14.872,14.872,0,0,1,34.03,32H34v2H32Z"></path><path d="M7,26a1,1,0,0,0-1,1v2a1,1,0,0,0,1,1H19a1,1,0,0,0,1-1V27a1,1,0,0,0-1-1H18v2H16V26H14v2H12V26H10v2H8V26Z"></path><path d="M60,48V46H42v6H60V50H48V48ZM46,50H44V48h2Z"></path><path d="M24,60H40V38H24Zm9-10H31a3,3,0,0,1,0-6V43h2v1a3,3,0,0,1,3,3H34a1,1,0,0,0-1-1H31a1,1,0,0,0,0,2h2a3,3,0,0,1,0,6v1H31V54a3,3,0,0,1-3-3h2a1,1,0,0,0,1,1h2a1,1,0,0,0,0-2Z"></path><path d="M60,54H42v2H54v2H42v2H60Zm-2,4H56V56h2Z"></path><path d="M60,38H42v2H54v2H42v2H60Zm-2,4H56V40h2Z"></path><path d="M22,58H10V56H22V54H4v6H22ZM8,58H6V56H8Z"></path><path d="M20.21,8.46a5.99,5.99,0,0,0-6.53,3.78L13,14l-.68-1.76A5.99,5.99,0,0,0,5.79,8.46l-1.87.3.68,1.76a5.983,5.983,0,0,0,6.53,3.77l.87-.135V18h2V14.155l.87.135a5.983,5.983,0,0,0,6.53-3.77l.68-1.76Z"></path></g></svg>