<svg xmlns="http://www.w3.org/2000/svg" viewBox="0 0 64 64" x="0px" y="0px"><g><path d="M22,50a3,3,0,0,0,3-3,2.951,2.951,0,0,0-.3-1.285l3.008-3.008-1.414-1.414L23.285,44.3A2.965,2.965,0,0,0,22,44a3,3,0,0,0,0,6Zm0-4a1,1,0,1,1-1,1A1,1,0,0,1,22,46Z"></path><path d="M60.11,16.82A2.993,2.993,0,0,0,57.12,14H54V12a10,10,0,0,0-20,0v2H30.88a2.993,2.993,0,0,0-2.99,2.82l-.97,16.03A15.139,15.139,0,0,0,25,32.3V30h1a1,1,0,0,0,1-1V25a1,1,0,0,0-1-1H18a1,1,0,0,0-1,1v4a1,1,0,0,0,1,1h1v2.3a14.944,14.944,0,0,0-5.26,2.19l-1.76-1.76a1.008,1.008,0,0,0-1.42,0L7.73,35.56a1.033,1.033,0,0,0-.29.71,1.052,1.052,0,0,0,.29.71l1.76,1.76A14.913,14.913,0,0,0,7,47a14.712,14.712,0,0,0,.15,2H2v2H7.56a14.769,14.769,0,0,0,.7,2H4v2H9.33a14.836,14.836,0,0,0,1.52,2H6v2h7.04A14.954,14.954,0,0,0,36.85,49h19.9a5,5,0,0,0,4.99-5.3ZM36,12a8,8,0,0,1,16,0v7a1,1,0,0,1-2,0V12a6,6,0,0,0-12,0v7a1,1,0,0,1-2,0Zm12,0v2H40V12a4,4,0,0,1,8,0ZM19,26h6v2H19Zm4,4v2.05c-.33-.02-.66-.05-1-.05s-.67.03-1,.05V30ZM11.27,34.85l.87.87a15.858,15.858,0,0,0-1.42,1.42l-.87-.87ZM10.48,53a13.009,13.009,0,0,1-.84-2h2.12a11.455,11.455,0,0,0,1.03,2Zm1.29,2h2.7a10.923,10.923,0,0,0,2.97,2H13.71A13.109,13.109,0,0,1,11.77,55Zm3.54-2a8.827,8.827,0,0,1-1.36-2H16V49H13.23A8.759,8.759,0,0,1,13,47a9.031,9.031,0,1,1,4.9,8H18V53ZM22,60a12.957,12.957,0,0,1-4.99-1H20V57.81A11.04,11.04,0,1,0,11.19,49H9.17A13.161,13.161,0,0,1,9,47,13,13,0,1,1,22,60Zm9.86-24.28.87-.87,1.42,1.42-.87.87A15.858,15.858,0,0,0,31.86,35.72ZM58.93,46.06a2.958,2.958,0,0,1-2.18.94H37a14.913,14.913,0,0,0-2.49-8.26l1.54-1.54A8.985,8.985,0,1,0,35,33a9.489,9.489,0,0,0,.12,1.42l-1.68-1.69a1.008,1.008,0,0,0-1.42,0l-1.76,1.76c-.44-.29-.91-.56-1.38-.81l1.01-16.74a.989.989,0,0,1,.99-.94H34v3a3,3,0,0,0,6,0V16h8v3a3,3,0,0,0,6,0V16h3.12a.989.989,0,0,1,.99.94l1.63,26.88A2.959,2.959,0,0,1,58.93,46.06ZM37,33a7,7,0,1,1,7,7A7.008,7.008,0,0,1,37,33Z"></path><rect x="40" y="32" width="8" height="2" transform="translate(-10.448 40.773) rotate(-44.995)"></rect><rect x="40.172" y="29.172" width="2" height="2" transform="translate(-9.275 37.959) rotate(-45.01)"></rect><rect x="45.828" y="34.828" width="2" height="2" transform="translate(-11.617 43.617) rotate(-45.01)"></rect></g></svg>