<svg xmlns="http://www.w3.org/2000/svg" viewBox="0 0 64 64" x="0px" y="0px"><g><path d="M61,28H57V20a1,1,0,0,0-1-1H46a1,1,0,0,0-1,1v8H43V26a1.012,1.012,0,0,0-.071-.372L41,20.808V9a1,1,0,0,0-1-1H26a1,1,0,0,0-1,1V20.649l-3.781,4.726A1,1,0,0,0,21,26v2H19V20a1,1,0,0,0-1-1H8a1,1,0,0,0-1,1v8H3a1,1,0,0,0-1,1v6a1,1,0,0,0,1,1H7v8a1,1,0,0,0,1,1H18a1,1,0,0,0,1-1V36h2a3,3,0,0,0,4,2.829V39a3,3,0,0,0,5,2.234,3,3,0,0,0,4.528-.62,3,3,0,0,0,4-1A3,3,0,0,0,43,37V36h2v8a1,1,0,0,0,1,1H56a1,1,0,0,0,1-1V36h4a1,1,0,0,0,1-1V29A1,1,0,0,0,61,28ZM4,34V30H7v4Zm13,9H9V21h8Zm2-9V30h2v4Zm22,3a1,1,0,0,1-2,0V33a1,1,0,0,0-2,0v5a1,1,0,0,1-2,0V34a1,1,0,0,0-2,0v5a1,1,0,0,1-2,0V34a1,1,0,0,0-2,0v5a1,1,0,0,1-2,0V32a1,1,0,0,0-2,0v4a1,1,0,0,1-2,0V26.351l3.781-4.726A1,1,0,0,0,27,21V10H39V21a1.012,1.012,0,0,0,.071.372L41,26.192Zm2-3V30h2v4Zm12,9H47V21h8Zm5-9H57V30h3Z"></path><rect x="11" y="23" width="4" height="2"></rect><rect x="11" y="27" width="4" height="2"></rect><rect x="11" y="31" width="4" height="2"></rect><rect x="11" y="35" width="4" height="2"></rect><rect x="11" y="39" width="4" height="2"></rect><rect x="49" y="23" width="4" height="2"></rect><rect x="49" y="27" width="4" height="2"></rect><rect x="49" y="31" width="4" height="2"></rect><rect x="49" y="35" width="4" height="2"></rect><rect x="49" y="39" width="4" height="2"></rect></g></svg>