<svg xmlns="http://www.w3.org/2000/svg" viewBox="0 0 64 64" x="0px" y="0px"><g><path d="M37,28.051V27.83c2.552-.207,4.176-.591,4.707-1.123A1,1,0,0,0,42,26,2.522,2.522,0,0,1,43.447,23.9c2.344-1.172,3.455-4.44,3.5-4.579A1,1,0,0,0,46,18a2.513,2.513,0,0,1-1.943-1.188c.025-.05.061-.114.113-.2A6.268,6.268,0,0,0,45,13a5.234,5.234,0,0,0-3.138-4.718,6.542,6.542,0,0,0-5.281-5.239C35.442,1.526,33.339,1.6,32,1.957c-1.338-.361-3.443-.432-4.581,1.086a6.542,6.542,0,0,0-5.281,5.239A5.234,5.234,0,0,0,19,13a6.268,6.268,0,0,0,.83,3.608c.052.09.088.154.113.2A2.511,2.511,0,0,1,18,18a1,1,0,0,0-.949,1.316c.047.139,1.158,3.407,3.5,4.579A2.557,2.557,0,0,1,22,26a1,1,0,0,0,.293.707c.531.532,2.155.916,4.707,1.123v.221A13.008,13.008,0,0,0,15,41V61a1,1,0,0,0,1,1H48a1,1,0,0,0,1-1V41A13.008,13.008,0,0,0,37,28.051Zm3.753,6.578-2.308,1.539a1,1,0,0,0-.152,1.539l1.2,1.2-4.959,3.857,4.4-10.391a1,1,0,0,0-.1-.927l-.837-1.255c.324.06.641.136.954.223Zm-15.2,1.539-2.308-1.539,1.8-4.216c.313-.087.63-.163.954-.223l-.837,1.255a1,1,0,0,0-.1.927l4.4,10.391-4.959-3.857,1.2-1.2a1,1,0,0,0-.152-1.539ZM34.236,16l-1.789-.895a1,1,0,0,0-.894,0L29.764,16H24V13H40v3Zm-3.829-5a11.708,11.708,0,0,0,3.676-2.327A21.79,21.79,0,0,0,36.443,11ZM25,18h5a1,1,0,0,0,.447-.105L32,17.118l1.553.777A1,1,0,0,0,34,18h5v3a3,3,0,0,1-3,3H28a3,3,0,0,1-3-3Zm10,8v2.65L32,32.4,29,28.65V26Zm-6.927,4.692,2.5,3.127-2.131,1.6-1.32-3.3ZM32,35.25l2.763,2.072L32,43.538l-2.763-6.216Zm3.556.167-2.131-1.6,2.5-3.127.949,1.425ZM21.447,22.105a5.441,5.441,0,0,1-2.04-2.366A5.128,5.128,0,0,0,21.9,17.447,1,1,0,0,0,22,17a2.6,2.6,0,0,0-.438-1.392A4.412,4.412,0,0,1,21,13a3.436,3.436,0,0,1,2.316-3.051A1,1,0,0,0,23.98,9.2C24.8,5.1,27.878,5,28,5a1,1,0,0,0,.895-.553c.587-1.176,2.771-.5,2.789-.5a1.017,1.017,0,0,0,.629,0c.022-.008,2.2-.68,2.792.5A1,1,0,0,0,36,5c.032,0,3.19.048,4.02,4.2a1.008,1.008,0,0,0,.658.751A3.438,3.438,0,0,1,43,13a4.412,4.412,0,0,1-.562,2.608A2.6,2.6,0,0,0,42,17a1,1,0,0,0,.1.447A5.131,5.131,0,0,0,44.6,19.74a5.412,5.412,0,0,1-2.042,2.365,4.526,4.526,0,0,0-2.474,3.223,13.838,13.838,0,0,1-2.731.464A4.992,4.992,0,0,0,41,21V18a1,1,0,0,0,1-1V12a1,1,0,0,0-1-1h-.813c-2.626-.962-5.359-4.564-5.387-4.6a1,1,0,0,0-1.749.285c-.56,1.68-5.66,3.522-9.166,4.316H23a1,1,0,0,0-1,1v5a1,1,0,0,0,1,1v3a4.992,4.992,0,0,0,3.652,4.792,13.838,13.838,0,0,1-2.731-.464A4.526,4.526,0,0,0,21.447,22.105ZM17,41a10.994,10.994,0,0,1,5.385-9.442l-1.3,3.048a1,1,0,0,0,.364,1.226l1.985,1.323-1.137,1.138a1,1,0,0,0,.093,1.5L31,46.489V60H23V41H21V60H17ZM47,60H43V41H41V60H33V46.489l8.614-6.7a1,1,0,0,0,.093-1.5L40.57,37.155l1.985-1.323a1,1,0,0,0,.364-1.226l-1.3-3.048A10.994,10.994,0,0,1,47,41Z"></path></g></svg>