<svg xmlns="http://www.w3.org/2000/svg" viewBox="0 0 64 64" x="0px" y="0px"><g><path d="M57,4H7A5.006,5.006,0,0,0,2,9V45a5.006,5.006,0,0,0,5,5H23.867l-.75,6H22a2,2,0,0,0-2,2v2H18v2H46V60H44V58a2,2,0,0,0-2-2H40.883l-.75-6H57a5.006,5.006,0,0,0,5-5V9A5.006,5.006,0,0,0,57,4ZM7,6H57a3,3,0,0,1,3,3V40H4V9A3,3,0,0,1,7,6ZM42,60H22V58H42Zm-3.133-4H25.133l.75-6H38.117ZM57,48H7a3,3,0,0,1-3-3V42H60v3A3,3,0,0,1,57,48Z"></path><rect x="55" y="44" width="2" height="2"></rect><path d="M46.414,13H48V11H46a1,1,0,0,0-.707.293l-3,3,1.414,1.414Z"></path><rect x="50" y="10" width="4" height="2"></rect><rect x="50" y="14" width="4" height="2"></rect><path d="M43.707,29.293l-1.414,1.414,3,3A1,1,0,0,0,46,34h2V32H46.414Z"></path><rect x="50" y="30" width="4" height="2"></rect><rect x="50" y="34" width="4" height="2"></rect><path d="M20.293,15.707l1.414-1.414-3-3A1,1,0,0,0,18,11H16v2h1.586Z"></path><rect x="10" y="10" width="4" height="2"></rect><rect x="10" y="14" width="4" height="2"></rect><path d="M18.707,33.707l3-3-1.414-1.414L17.586,32H16v2h2A1,1,0,0,0,18.707,33.707Z"></path><rect x="10" y="30" width="4" height="2"></rect><rect x="10" y="34" width="4" height="2"></rect><path d="M26,28H38a5,5,0,0,0,0-10H26a5,5,0,0,0,0,10Zm15-5a3,3,0,0,1-3,3H33V20h5A3,3,0,0,1,41,23ZM26,20h5v6H26a3,3,0,0,1,0-6Z"></path></g></svg>