<svg xmlns="http://www.w3.org/2000/svg" viewBox="0 0 48 48" x="0px" y="0px"><title>Alcohol Drink_1</title><g data-name="Alcohol Drink"><path d="M20,14.071V3a1,1,0,0,0-1-1H13a1,1,0,0,0-1,1V14.071A7.011,7.011,0,0,0,6,21V43a3,3,0,0,0,3,3H23a3,3,0,0,0,3-3V21A7.011,7.011,0,0,0,20,14.071ZM18,4V5.951H14V4Zm6,39a1,1,0,0,1-1,1H9a1,1,0,0,1-1-1V21a5.006,5.006,0,0,1,5-5,1,1,0,0,0,1-1V7.951h4V15a1,1,0,0,0,1,1,5.006,5.006,0,0,1,5,5Z"></path><path d="M20,40H18v2h3a1,1,0,0,0,1-1V38H20Z"></path><path d="M10,23a1,1,0,0,0-1,1v8a1,1,0,0,0,1,1H22a1,1,0,0,0,1-1V24a1,1,0,0,0-1-1Zm11,8H11V25H21Z"></path><path d="M37,38.07c2.909-.978,5-6.168,5-12.851a54.254,54.254,0,0,0-.507-7.413A1,1,0,0,0,40.512,17H31.488a1,1,0,0,0-.981.806A54.254,54.254,0,0,0,30,25.219c0,6.683,2.091,11.873,5,12.851V44H31v2H41V44H37ZM39.655,19c.07.568.131,1.267.182,2H32.163c.051-.733.112-1.432.182-2ZM32,25.219c0-.6.018-1.386.053-2.219h7.894c.035.833.053,1.616.053,2.219,0,6.313-2.112,11.031-4,11.031S32,31.532,32,25.219Z"></path></g></svg>