<svg xmlns="http://www.w3.org/2000/svg" viewBox="0 0 64 64" x="0px" y="0px"><g data-name="Idea-Light-Cloud"><path d="M32,24.179v6.773a14.959,14.959,0,0,0,4.528-1C35.433,26.912,33.819,24.767,32,24.179Z"></path><path d="M38.342,29.073A14.967,14.967,0,0,0,40.615,27.5,14.981,14.981,0,0,0,36.1,24.911,15.789,15.789,0,0,1,38.342,29.073Z"></path><path d="M32,53.821c1.638-.529,3.108-2.32,4.185-4.889A14.965,14.965,0,0,0,32,48.048Z"></path><path d="M32,46.048a16.935,16.935,0,0,1,4.862,1A27.529,27.529,0,0,0,37.976,40H32Z"></path><path d="M32,38h5.976a28.3,28.3,0,0,0-.853-6.143A16.961,16.961,0,0,1,32,32.952Z"></path><path d="M38.975,31.017a29.669,29.669,0,0,1,1,6.983h5.975a14.915,14.915,0,0,0-3.894-9.1A16.956,16.956,0,0,1,38.975,31.017Z"></path><path d="M60,32A12.058,12.058,0,0,1,48.92,43.97V44H47.23A16.992,16.992,0,1,0,14,39a16.547,16.547,0,0,0,.77,5H13a9,9,0,0,1-2.6-17.62.987.987,0,0,0,.71-.82A11.007,11.007,0,0,1,22,16c.16,0,.31.01.46.02l.2.01a.99.99,0,0,0,.95-.53,13.985,13.985,0,0,1,26.15,3.98.994.994,0,0,0,.77.79A12.053,12.053,0,0,1,60,32Z"></path><path d="M36.1,53.089a14.973,14.973,0,0,0,3.876-2.1,14.991,14.991,0,0,0-1.952-1.251A14.959,14.959,0,0,1,36.1,53.089Z"></path><path d="M45.949,40H39.974a28.981,28.981,0,0,1-1.261,7.847,16.891,16.891,0,0,1,2.827,1.811A14.946,14.946,0,0,0,45.949,40Z"></path><path d="M16.051,38h5.975a29.669,29.669,0,0,1,1-6.983,17.006,17.006,0,0,1-3.08-2.12A14.921,14.921,0,0,0,16.051,38Z"></path><path d="M25.472,29.948a14.959,14.959,0,0,0,4.528,1V24.179C28.181,24.766,26.567,26.912,25.472,29.948Z"></path><path d="M25.138,47.052a16.935,16.935,0,0,1,4.862-1V40H24.024A27.529,27.529,0,0,0,25.138,47.052Z"></path><path d="M20.46,49.658a16.931,16.931,0,0,1,2.827-1.811A28.981,28.981,0,0,1,22.026,40H16.051A14.946,14.946,0,0,0,20.46,49.658Z"></path><path d="M23.658,29.073A15.789,15.789,0,0,1,25.9,24.911,15.02,15.02,0,0,0,21.384,27.5,14.953,14.953,0,0,0,23.658,29.073Z"></path><path d="M30,32.952a16.961,16.961,0,0,1-5.123-1.095A28.3,28.3,0,0,0,24.024,38H30Z"></path><path d="M22.026,50.991a14.973,14.973,0,0,0,3.876,2.1,14.921,14.921,0,0,1-1.924-3.349A14.991,14.991,0,0,0,22.026,50.991Z"></path><path d="M30,53.821V48.048a14.965,14.965,0,0,0-4.185.884C26.892,51.5,28.362,53.292,30,53.821Z"></path></g></svg>