<svg xmlns="http://www.w3.org/2000/svg" viewBox="0 0 64 64" x="0px" y="0px"><g data-name="Drone-Internet of Things-Electronics-Navigator-Smartphone"><path d="M34,31a3,3,0,1,0-3-3A3,3,0,0,0,34,31Zm0-4a1,1,0,1,1-1,1A1,1,0,0,1,34,27Z"></path><rect x="10" y="12" width="4" height="2"></rect><rect x="16" y="12" width="2" height="2"></rect><rect x="54" y="12" width="4" height="2"></rect><rect x="50" y="12" width="2" height="2"></rect><rect x="46" y="12" width="2" height="2"></rect><rect x="20" y="12" width="2" height="2"></rect><rect x="33" y="10" width="2" height="2"></rect><rect x="37" y="10" width="2" height="2"></rect><rect x="29" y="10" width="2" height="2"></rect><path d="M62,2H44V4h6.18A3,3,0,0,0,50,5V8H43.3L40.55,6.17A.967.967,0,0,0,40,6H28a.967.967,0,0,0-.55.17L24.7,8H18V5a3,3,0,0,0-.18-1H24V2H6V4h6.18A3,3,0,0,0,12,5V8H9a3.009,3.009,0,0,0-3,3v4a3.009,3.009,0,0,0,3,3h9.38L19,19.24V25a1,1,0,0,0,1,1H7a5,5,0,0,0-5,5V57a5,5,0,0,0,5,5H21a5,5,0,0,0,5-5V31a5,5,0,0,0-5-5h3a1,1,0,0,0,1-1V20h6v2H30a2.006,2.006,0,0,0-2,2v8a2.006,2.006,0,0,0,2,2h8a2.006,2.006,0,0,0,2-2V24a2.006,2.006,0,0,0-2-2H37V20h6v5a1,1,0,0,0,1,1h4a1,1,0,0,0,1-1V19.24L49.62,18H59a3.009,3.009,0,0,0,3-3V11a3.009,3.009,0,0,0-3-3H56V5a3,3,0,0,0-.18-1H62ZM52,5a1,1,0,0,1,2,0V8H52ZM14,5a1,1,0,0,1,2,0V8H14ZM24,57a3.009,3.009,0,0,1-3,3H7a3.009,3.009,0,0,1-3-3V54H24Zm0-5H4V34H24Zm0-21v1H4V31a3.009,3.009,0,0,1,3-3H21A3.009,3.009,0,0,1,24,31Zm-1-7H21V20h2Zm15,0v8H30V24Zm-5-2V20h2v2Zm7-4H28V17a1,1,0,0,1,1-1H39a1,1,0,0,1,1,1Zm7,6H45V20h2ZM59,10a1,1,0,0,1,1,1v4a1,1,0,0,1-1,1H49a.988.988,0,0,0-.89.55L47.38,18H42V17a3.009,3.009,0,0,0-3-3H29a3.009,3.009,0,0,0-3,3v1H20.62l-.73-1.45A.988.988,0,0,0,19,16H9a1,1,0,0,1-1-1V11a1,1,0,0,1,1-1H25a.967.967,0,0,0,.55-.17L28.3,8H39.7l2.75,1.83A.967.967,0,0,0,43,10Z"></path><path d="M43.879,31.121l-1.414,1.414a5,5,0,0,0,7.07,0l-1.414-1.414A3.072,3.072,0,0,1,43.879,31.121Z"></path><path d="M47.414,29.414,46,28l-1.414,1.414a2,2,0,0,0,2.828,0Z"></path><path d="M10.465,43.465l1.414,1.414a3.072,3.072,0,0,1,4.242,0l1.414-1.414a5,5,0,0,0-7.07,0Z"></path><path d="M7.636,40.636,9.05,42.05a7.009,7.009,0,0,1,9.9,0l1.414-1.414A9.012,9.012,0,0,0,7.636,40.636Z"></path><path d="M12.586,46.586,14,48l1.414-1.414A2,2,0,0,0,12.586,46.586Z"></path><rect x="13" y="56" width="2" height="2"></rect><path d="M45,42H28v2H46a1,1,0,0,0,1-1V36H45Z"></path></g></svg>