<svg xmlns="http://www.w3.org/2000/svg" viewBox="0 0 64 64" x="0px" y="0px"><g data-name="Smart House-Internet of Things-Smart Home-Control-Internet-Smartphone"><path d="M31,26.858V24H28.142A3.991,3.991,0,0,0,31,26.858Z"></path><path d="M25.97,60H51V24.32L32,8.31,13,24.42V26h9a5,5,0,0,1,5,5V57A4.924,4.924,0,0,1,25.97,60ZM47,43a8,8,0,1,1-8-8A8.009,8.009,0,0,1,47,43ZM26,23a6,6,0,1,1,6,6A6.006,6.006,0,0,1,26,23Z"></path><path d="M35.858,24H33v2.858A3.991,3.991,0,0,0,35.858,24Z"></path><path d="M31,19.142A3.991,3.991,0,0,0,28.142,22H31Z"></path><path d="M33,19.142V22h2.858A3.991,3.991,0,0,0,33,19.142Z"></path><path d="M39,49a6,6,0,1,0-6-6A6.006,6.006,0,0,0,39,49Zm0-3-1.414-1.414a2,2,0,0,1,2.828,0Zm0-6a4.965,4.965,0,0,1,3.535,1.465l-1.414,1.414a3.072,3.072,0,0,0-4.242,0l-1.414-1.414A4.965,4.965,0,0,1,39,40Z"></path><path d="M59.7,26.43,32.64,3.84a.983.983,0,0,0-1.27,0L4.38,26.48a1.119,1.119,0,0,0-.31,1.35c.02.02.04.03.05.05A4.977,4.977,0,0,1,8,26h.04L31.35,6.24a.987.987,0,0,1,1.29,0L58.41,27.96a1.012,1.012,0,0,0,1.42-.13A1,1,0,0,0,59.7,26.43Z"></path><path d="M25,34H5V52H25ZM15,48l-1.414-1.414a2,2,0,0,1,2.828,0Zm2.121-3.121a3.072,3.072,0,0,0-4.242,0l-1.414-1.414a5,5,0,0,1,7.07,0ZM19.95,42.05a7.009,7.009,0,0,0-9.9,0L8.636,40.636a9.012,9.012,0,0,1,12.728,0Z"></path><path d="M25,31a3.009,3.009,0,0,0-3-3H8a3.009,3.009,0,0,0-3,3v1H25Z"></path><path d="M25,57V54H5v3a3.009,3.009,0,0,0,3,3H22A3.009,3.009,0,0,0,25,57Zm-9,1H14V56h2Z"></path></g></svg>