<svg xmlns="http://www.w3.org/2000/svg" viewBox="0 0 64 64" x="0px" y="0px"><g data-name="Bomb"><path d="M38,21H26a1,1,0,0,0-1,1v6a1,1,0,0,0,1,1H38a1,1,0,0,0,1-1V22A1,1,0,0,0,38,21Zm-1,6H27V23H37Z"></path><path d="M38,31H26a1,1,0,0,0-1,1V42a1,1,0,0,0,1,1H38a1,1,0,0,0,1-1V32A1,1,0,0,0,38,31ZM37,41H27V33H37Z"></path><rect x="29" y="34" width="6" height="2"></rect><rect x="29" y="38" width="6" height="2"></rect><rect x="31" y="24" width="2" height="2"></rect><rect x="34" y="24" width="2" height="2"></rect><rect x="28" y="24" width="2" height="2"></rect><path d="M56,23a3,3,0,0,0,3-3V12a3,3,0,0,0-3-3H51V8a2,2,0,0,0-2-2H47a2,2,0,0,0-2,2V9H19V8a2,2,0,0,0-2-2H15a2,2,0,0,0-2,2V9H8a3,3,0,0,0-3,3v8a3,3,0,0,0,3,3h5v2H8a3,3,0,0,0-3,3v8a3,3,0,0,0,3,3h5v2H8a3,3,0,0,0-3,3v8a3,3,0,0,0,3,3h5v1a2,2,0,0,0,2,2h2a2,2,0,0,0,2-2V55H45v1a2,2,0,0,0,2,2h2a2,2,0,0,0,2-2V55h5a3,3,0,0,0,3-3V44a3,3,0,0,0-3-3H51V39h5a3,3,0,0,0,3-3V28a3,3,0,0,0-3-3H51V23ZM8,21a1,1,0,0,1-1-1V12a1,1,0,0,1,1-1h5V21ZM8,37a1,1,0,0,1-1-1V28a1,1,0,0,1,1-1h5V37ZM8,53a1,1,0,0,1-1-1V44a1,1,0,0,1,1-1h5V53Zm9,3H15V8h2ZM45,11V21H43V20a3,3,0,0,0-3-3H24a3,3,0,0,0-3,3v1H19V11ZM43,39h2v2H43Zm0-2V27h2V37Zm0-12V23h2v2Zm-2-5V44a1,1,0,0,1-1,1H24a1,1,0,0,1-1-1V20a1,1,0,0,1,1-1H40A1,1,0,0,1,41,20ZM21,41H19V39h2Zm0-4H19V27h2Zm0-12H19V23h2ZM19,53V43h2v1a3,3,0,0,0,3,3H40a3,3,0,0,0,3-3V43h2V53Zm30,3H47V8h2Zm7-45a1,1,0,0,1,1,1v8a1,1,0,0,1-1,1H51V11Zm0,32a1,1,0,0,1,1,1v8a1,1,0,0,1-1,1H51V43Zm0-16a1,1,0,0,1,1,1v8a1,1,0,0,1-1,1H51V27Z"></path></g></svg>