<svg xmlns="http://www.w3.org/2000/svg" viewBox="0 0 64 64" x="0px" y="0px"><g data-name="Safe Flight"><path d="M22,31H49a2,2,0,0,0,2-2V26a3,3,0,0,0-3-3H41.627l-4.555-9.435a1,1,0,0,0-.9-.565H33a1,1,0,0,0-.98,1.2L33.78,23H24.847l-.861-5.164A1,1,0,0,0,23,17H20a1,1,0,0,0-1,1V28A3,3,0,0,0,22,31ZM21,19h1.153l.861,5.164A1,1,0,0,0,24,25H35a1,1,0,0,0,.98-1.2L34.22,15h1.324L40.1,24.435A1,1,0,0,0,41,25h7a1,1,0,0,1,1,1v3H22a1,1,0,0,1-1-1Z"></path><path d="M61.021,30.986a3.963,3.963,0,0,0-2.831-1.181h0a3.958,3.958,0,0,0-2.827,1.178L43.633,42.7l-.023.022A4,4,0,0,0,40,37H19a1,1,0,0,0-.707.293l-3.471,3.47L12.366,36.51A1,1,0,0,0,11,36.144l-8.66,5a1,1,0,0,0-.366,1.366l10,17.32a1,1,0,0,0,1.366.366l8.66-5a1,1,0,0,0,.366-1.366L20.732,51H44.59a5.035,5.035,0,0,0,3.537-1.463l12.89-12.9a3.97,3.97,0,0,0,0-5.651ZM13.206,57.964l-9-15.588,6.928-4,9,15.588ZM59.6,35.223l-12.89,12.9A3.02,3.02,0,0,1,44.59,49H19.578l-3.719-6.445L19.414,39H40a2,2,0,0,1,0,4H29v2H42.92a2.987,2.987,0,0,0,2.127-.883L56.78,32.4a1.975,1.975,0,0,1,1.41-.59h0A1.995,1.995,0,0,1,59.6,35.223Z"></path></g></svg>