<svg xmlns="http://www.w3.org/2000/svg" viewBox="0 0 64 64" x="0px" y="0px"><g data-name="Swing"><path d="M61.008,42.234,60.491,40.3a2,2,0,0,0-2.449-1.414l-3.864,1.035L48.3,18H54a1,1,0,0,0,1-1V13a.935.935,0,0,0-.026-.13,1.038,1.038,0,0,0-.049-.243,1,1,0,0,0-.1-.164,1.029,1.029,0,0,0-.106-.157,1.019,1.019,0,0,0-.2-.142.949.949,0,0,0-.11-.078L37,4.35V3a1,1,0,0,0-1-1H28a1,1,0,0,0-1,1V4.35L9.594,12.086a.949.949,0,0,0-.11.078,1.019,1.019,0,0,0-.2.142,1.029,1.029,0,0,0-.106.157,1,1,0,0,0-.1.164,1.038,1.038,0,0,0-.049.243A.935.935,0,0,0,9,13v4a1,1,0,0,0,1,1h5.7L9.822,39.924,5.959,38.889A2,2,0,0,0,3.509,40.3l-.517,1.931a2,2,0,0,0,1.414,2.45l9.658,2.587a2.031,2.031,0,0,0,.522.07,2,2,0,0,0,1.929-1.484l.517-1.931a2,2,0,0,0-1.414-2.449l-3.864-1.036L17.767,18H29V56H5a1,1,0,0,0-1,1v4a1,1,0,0,0,1,1H59a1,1,0,0,0,1-1V57a1,1,0,0,0-1-1H35V18H46.233l6.013,22.441-3.864,1.036a2,2,0,0,0-1.414,2.449l.517,1.931a1.992,1.992,0,0,0,2.45,1.414l9.659-2.587a2,2,0,0,0,1.414-2.45ZM14.583,45.34l-9.66-2.588.518-1.932,9.66,2.588ZM49.287,12H35V8h1a1,1,0,0,0,1-1V6.539ZM31,8h2v4H31ZM29,4h6V6H29ZM28,8h1v4H14.713L27,6.539V7A1,1,0,0,0,28,8ZM11,14H53v2H11ZM58,60H6V58H58ZM33,56H31V18h2ZM49.417,45.34,48.9,43.408l9.66-2.588.517,1.932Zm9.66-2.588h0Z"></path></g></svg>