<svg xmlns="http://www.w3.org/2000/svg" viewBox="0 0 64 64" x="0px" y="0px"><g><path d="M20,13H18V10a1,1,0,0,1,1-1h2v2H20Z"></path><path d="M45.593,42.5h0a2.973,2.973,0,0,0-.479-.624,2.992,2.992,0,0,0-4.707.624A2.97,2.97,0,0,0,40,44a3,3,0,0,0,6,0A2.97,2.97,0,0,0,45.593,42.5ZM43.71,44.71A1,1,0,0,1,42,44a1,1,0,0,1,.08-.38,1.032,1.032,0,0,1,.21-.33,1.047,1.047,0,0,1,1.42,0,1.032,1.032,0,0,1,.21.33A1,1,0,0,1,44,44,1.052,1.052,0,0,1,43.71,44.71Z"></path><path d="M56.593,42.5h0a2.973,2.973,0,0,0-.479-.624,2.992,2.992,0,0,0-4.707.624A2.97,2.97,0,0,0,51,44a3,3,0,0,0,6,0A2.97,2.97,0,0,0,56.593,42.5ZM54.71,44.71A1,1,0,0,1,53,44a1,1,0,0,1,.08-.38,1.032,1.032,0,0,1,.21-.33,1.047,1.047,0,0,1,1.42,0,1.032,1.032,0,0,1,.21.33A1,1,0,0,1,55,44,1.052,1.052,0,0,1,54.71,44.71Z"></path><path d="M57.4,40.344c.058.054.118.106.174.163.1.1.188.207.278.316.043.052.089.1.129.153L58,41h2V37H18v4H39l.021-.025c.04-.052.086-.1.128-.151.09-.109.181-.217.279-.317.056-.057.116-.109.174-.163.093-.087.187-.171.286-.25.066-.052.133-.1.2-.149.1-.072.2-.14.3-.2.073-.044.145-.086.22-.126.108-.059.218-.113.33-.163.075-.035.151-.069.228-.1.118-.047.239-.086.36-.124.076-.023.151-.049.228-.068.135-.035.272-.06.411-.083.066-.012.132-.027.2-.036a4.7,4.7,0,0,1,1.254,0c.067.009.133.024.2.036.139.023.276.048.411.083.077.019.152.045.228.068.121.038.242.077.36.124.077.03.153.064.229.1.112.05.222.1.329.163.075.04.147.082.219.126.105.064.206.133.306.2.068.049.135.1.2.149.1.079.193.164.286.25.058.054.118.106.174.163.1.1.188.207.278.316.043.052.089.1.129.153L47,41H50l.021-.025c.04-.052.086-.1.128-.151.09-.109.181-.217.279-.317.056-.057.116-.109.174-.163.093-.087.187-.171.286-.25.066-.052.133-.1.2-.149.1-.072.2-.14.3-.2.073-.044.145-.086.22-.126.108-.059.218-.113.33-.163.075-.035.151-.069.228-.1.118-.047.239-.086.36-.124.076-.023.151-.049.228-.068.135-.035.272-.06.411-.083.066-.012.132-.027.2-.036a4.7,4.7,0,0,1,1.254,0c.067.009.133.024.2.036.139.023.276.048.411.083.077.019.152.045.228.068.121.038.242.077.36.124.077.03.153.064.229.1.112.05.222.1.329.163.075.04.147.082.219.126.105.064.206.133.306.2.068.049.135.1.2.149C57.208,40.173,57.3,40.258,57.4,40.344Z"></path><path d="M12.593,42.5h0a2.973,2.973,0,0,0-.479-.624,2.992,2.992,0,0,0-4.707.624A2.97,2.97,0,0,0,7,44a3,3,0,0,0,6,0A2.97,2.97,0,0,0,12.593,42.5ZM10.71,44.71A1,1,0,0,1,9,44a1,1,0,0,1,.08-.38,1.032,1.032,0,0,1,.21-.33,1,1,0,0,1,1.42,1.42Z"></path><polygon points="7.618 25 4 32.236 4 33 8 33 8 25 7.618 25"></polygon><polygon points="18 15 18 24 18 35 20 35 20 15 18 15"></polygon><path d="M13.4,40.344c.058.054.118.106.174.163.1.1.188.207.278.316.043.052.089.1.129.153L14,41h2V25H10v9a1,1,0,0,1-1,1H4v1H7v2H4v3H6l.021-.025c.04-.052.086-.1.128-.151.09-.109.181-.217.279-.317.056-.057.116-.109.174-.163.093-.087.187-.171.286-.25.066-.052.133-.1.2-.149.1-.072.2-.14.305-.2.073-.044.145-.086.22-.126.108-.059.218-.113.33-.163.075-.035.151-.069.228-.1.118-.047.239-.086.36-.124.076-.023.151-.049.228-.068.135-.035.272-.06.411-.083.066-.012.132-.027.2-.036a4.7,4.7,0,0,1,1.254,0c.067.009.133.024.2.036.139.023.276.048.411.083.077.019.152.045.228.068.121.038.242.077.36.124.077.03.153.064.229.1.112.05.222.1.329.163.075.04.147.082.219.126.105.064.206.133.306.2.068.049.135.1.2.149C13.208,40.173,13.3,40.258,13.4,40.344Z"></path><path d="M60,32V16H27V32ZM55,18h2V30H55Zm-5,0h2V30H50Zm-5,0h2V30H45Zm-5,0h2V30H40Zm-5,0h2V30H35Zm-5,0h2V30H30Z"></path></g></svg>