<svg xmlns="http://www.w3.org/2000/svg" viewBox="0 0 48 48" x="0px" y="0px"><title>Money-Saving_1</title><g><path d="M43.438,25.562a5.01,5.01,0,0,0-7.075,0l-5.281,5.281a2.815,2.815,0,0,0-.255-.218A2.988,2.988,0,0,0,29,30H23.583A4.99,4.99,0,0,0,19,27H15a5,5,0,0,0-3,1V27a1,1,0,0,0-1-1H5a1,1,0,0,0-1,1V43a1,1,0,0,0,1,1h6a1,1,0,0,0,1-1V42H28a1,1,0,0,0,.707-.293l14.731-14.73a1,1,0,0,0,0-1.415ZM10,42H6V28h4Zm17.586-2H12V32a2.642,2.642,0,0,1,.091-.712c0-.014,0-.028.008-.042A2.987,2.987,0,0,1,15,29h4a2.987,2.987,0,0,1,2.9,2.246A1,1,0,0,0,22.87,32H29a1.012,1.012,0,0,1,.616.217.943.943,0,0,1,.334.494c0,.011.01.02.014.031h0A.819.819,0,0,1,30,33a.977.977,0,0,1-.307.713A.959.959,0,0,1,29,34H18v2H29a3.015,3.015,0,0,0,3-3c0-.077-.012-.152-.018-.228l5.8-5.795a3.009,3.009,0,0,1,3.418-.586Z"></path><rect x="7" y="30" width="2" height="2"></rect><path d="M24,26A11,11,0,1,0,13,15,11.013,11.013,0,0,0,24,26ZM24,6a9,9,0,1,1-9,9A9.01,9.01,0,0,1,24,6Z"></path><path d="M22,20h1v2h2V20h1a2,2,0,0,0,2-2V16a2,2,0,0,0-2-2H22V12h4v1h2V12a2,2,0,0,0-2-2H25V8H23v2H22a2,2,0,0,0-2,2v2a2,2,0,0,0,2,2h4v2H22V17H20v1A2,2,0,0,0,22,20Z"></path><rect x="29" y="14" width="2" height="2"></rect><rect x="17" y="14" width="2" height="2"></rect></g></svg>