<svg xmlns="http://www.w3.org/2000/svg" viewBox="0 0 64 64" x="0px" y="0px"><title>Book-Notebook-Agenda-Address Book</title><g><polygon points="31 22.879 32.72 16 29.28 16 31 22.879"></polygon><polygon points="33.17 22.439 38 16 34.78 16 33.17 22.439"></polygon><polygon points="35.382 10 32.618 10 34 12.764 35.382 10"></polygon><polygon points="29.382 10 26.618 10 28 12.764 29.382 10"></polygon><polygon points="31 11.236 29.618 14 32.382 14 31 11.236"></polygon><polygon points="46.057 33.312 44.675 35.707 49.14 35.975 50.522 33.581 46.057 33.312"></polygon><polygon points="25 11.236 23.618 14 26.382 14 25 11.236"></polygon><path d="M48,56V54H9a3,3,0,0,0,0,6H48V58H11V56Z"></path><path d="M6,53.026A4.948,4.948,0,0,1,9,52h1V4H9A3,3,0,0,0,6,7Z"></path><polygon points="24 16 28.83 22.439 27.22 16 24 16"></polygon><rect x="12" y="4" width="2" height="48"></rect><polygon points="37 11.236 35.618 14 38.382 14 37 11.236"></polygon><path d="M50.35,20.322c-.232.062-.455.142-.68.218l.859,1.3a11.434,11.434,0,0,1,1.651-1.85A11.159,11.159,0,0,0,50.35,20.322Z"></path><polygon points="53.021 29.251 48.557 28.982 47.175 31.376 51.639 31.645 53.021 29.251"></polygon><path d="M54.139,27.315l1.382-2.395-4.464-.268c-.455.747-.915,1.553-1.392,2.394Z"></path><polygon points="40.479 30.975 42.943 34.707 44.325 32.313 41.861 28.581 40.479 30.975"></polygon><path d="M49.325,23.651l-1.508-2.289A10.835,10.835,0,0,0,45.8,22.8l2.135,3.234C48.409,25.207,48.866,24.405,49.325,23.651Z"></path><path d="M52.358,22.727l4.28.257L57.8,20.972a4.134,4.134,0,0,0-2.767-.375A5.464,5.464,0,0,0,52.358,22.727Z"></path><path d="M46.825,27.983l-2.409-3.649a10.9,10.9,0,0,0-.746,1.113l-.691,1.2,2.464,3.732Z"></path><path d="M48,37.909l-4.443-.266L37.866,47.5l-1.732-1,5.691-9.857-3.356-5.082a1,1,0,0,1-.032-1.051l3.5-6.063A12.9,12.9,0,0,1,48,19.045V4H16V52H48ZM37,38H23V36H37Zm0-4H23V32H37ZM21.105,14.553l3-6A1,1,0,0,1,25,8H37a1,1,0,0,1,.9.553l3,6a1,1,0,0,1-.1,1.047l-9,12a1,1,0,0,1-1.6,0l-9-12A1,1,0,0,1,21.105,14.553ZM28,47H20V45h8Zm6,0H30V45h4Z"></path></g></svg>