<svg xmlns="http://www.w3.org/2000/svg" viewBox="0 0 64 64" x="0px" y="0px"><g><path d="M53,10H50V29a3.009,3.009,0,0,1-3,3H36.54l-3.71,5.55a.99.99,0,0,1-1.66,0L27.46,32H17a3.009,3.009,0,0,1-3-3V10H11a1,1,0,0,0-1,1V42H54V11A1,1,0,0,0,53,10ZM14,34h2v2H14Zm10,6H14V38H24Zm0-4H18V34h6Zm16-2h2v2H40Zm10,6H40V38H50Zm0-4H44V34h6Z"></path><path d="M48,5a1,1,0,0,0-1-1H17a1,1,0,0,0-1,1v5H48ZM20,8H18V6h2Zm4,0H22V6h2Zm4,0H26V6h2Z"></path><path d="M17,30H28a1,1,0,0,1,.832.445L32,35.2l3.168-4.752A1,1,0,0,1,36,30H47a1,1,0,0,0,1-1V12H16V29A1,1,0,0,0,17,30Zm16-4H31V24h2Zm1.122-3.122a3.006,3.006,0,0,0-4.244,0l-1.414-1.414a5.008,5.008,0,0,1,7.072,0ZM32,16a8.941,8.941,0,0,1,6.364,2.636L36.95,20.05a7,7,0,0,0-9.9,0l-1.414-1.414A8.941,8.941,0,0,1,32,16Z"></path><path d="M23.382,54l1.723-3.447A1,1,0,0,1,26,50H38a1,1,0,0,1,.9.553L40.618,54H59.382l-5-10H9.618l-5,10ZM54,52H52V50h2Zm-3-6h2v2H51Zm-1,6H48V50h2Zm-3-6h2v2H47Zm-4,0h2v2H43Zm-1,4h4v2H42Zm-3-4h2v2H39Zm-4,0h2v2H35Zm-4,0h2v2H31Zm-4,0h2v2H27Zm-4,0h2v2H23Zm-4,0h2v2H19Zm-1,4h4v2H18Zm-3-4h2v2H15Zm-1,4h2v2H14Zm-3-4h2v2H11Zm-1,4h2v2H10Z"></path><polygon points="26.618 52 25.618 54 38.382 54 37.382 52 26.618 52"></polygon><path d="M4,59a1,1,0,0,0,1,1H59a1,1,0,0,0,1-1V56H4Z"></path></g></svg>