<svg xmlns="http://www.w3.org/2000/svg" viewBox="0 0 64 64" x="0px" y="0px"><g><path d="M48.305,41.684,39,39.229V36.106A14.029,14.029,0,0,0,45.668,27H46a4,4,0,0,0,0-8V17.722A1.993,1.993,0,0,0,47,16V14a1.987,1.987,0,0,0-.31-1.059,3.981,3.981,0,0,0-1.924-6.862,4.489,4.489,0,0,0-6.547-2.454A4,4,0,0,0,33.1,2.48a3.992,3.992,0,0,0-5.91-.326A5,5,0,0,0,19,6c0,.042,0,.084,0,.126a3.984,3.984,0,0,0-1.692,6.815A1.987,1.987,0,0,0,17,14v2a1.993,1.993,0,0,0,1,1.722V19a4,4,0,0,0,0,8h.332A14.029,14.029,0,0,0,25,36.106v3.123l-9.3,2.454A12.989,12.989,0,0,0,6,54.25V61a1,1,0,0,0,1,1H57a1,1,0,0,0,1-1V54.25A12.988,12.988,0,0,0,48.305,41.684ZM18,43.144l4.077-1.075C22.667,46.529,26.889,50,32,50s9.333-3.471,9.923-7.931L46,43.144V60H18ZM48,23a2,2,0,0,1-2,2V21A2,2,0,0,1,48,23ZM19.992,8a.987.987,0,0,0,.847-.285,1,1,0,0,0,.261-.948A3.139,3.139,0,0,1,21,6a3,3,0,0,1,5.465-1.7A1,1,0,0,0,28.2,4.148,1.991,1.991,0,0,1,31.87,4.3a1,1,0,0,0,.745.637.982.982,0,0,0,.932-.305A1.948,1.948,0,0,1,35,4a1.975,1.975,0,0,1,1.914,1.449,1,1,0,0,0,1.718.4A2.489,2.489,0,0,1,42.97,7.141,1.041,1.041,0,0,0,44,8a2,2,0,0,1,0,4H20a2,2,0,0,1-.008-4ZM20,14l24.019,0H45v2H19V14ZM18,25a2,2,0,0,1,0-4v4Zm2-1V18H44v6a12,12,0,0,1-24,0Zm6.255,16.967A1,1,0,0,0,27,40V37.061a13.782,13.782,0,0,0,10,0V40a1,1,0,0,0,.745.967l2.223.586C39.644,45.154,36.2,48,32,48c-4.174,0-7.608-2.814-7.964-6.448ZM8,54.25a10.987,10.987,0,0,1,8-10.57V60H8ZM56,60H48V43.68a10.984,10.984,0,0,1,8,10.57Z"></path><path d="M32,27a3,3,0,0,0,3-3V20H33v4a1,1,0,0,1-2,0V20H29v4A3,3,0,0,0,32,27Z"></path><path d="M37.29,20.71A.991.991,0,0,0,38,21a1,1,0,0,0,.38-.07,1.484,1.484,0,0,0,.33-.22A.994.994,0,0,0,39,20a1.05,1.05,0,0,0-.29-.71,1,1,0,0,0-.16-.12.568.568,0,0,0-.17-.09.609.609,0,0,0-.191-.06.922.922,0,0,0-.569.06,1.032,1.032,0,0,0-.33.21,1.035,1.035,0,0,0-.221,1.09A1.523,1.523,0,0,0,37.29,20.71Z"></path><path d="M26.71,20.71a1.169,1.169,0,0,0,.21-.33.942.942,0,0,0,0-.76,1.155,1.155,0,0,0-.21-.33,1.017,1.017,0,0,0-1.09-.21,1.032,1.032,0,0,0-.33.21,1.155,1.155,0,0,0-.21.33.943.943,0,0,0,0,.76,1.169,1.169,0,0,0,.21.33.99.99,0,0,0,1.09.21A1.169,1.169,0,0,0,26.71,20.71Z"></path><path d="M37.952,29.655l-1.51-1.31A5.992,5.992,0,0,1,32,30a5.992,5.992,0,0,1-4.442-1.655l-1.51,1.31A7.893,7.893,0,0,0,32,32,7.893,7.893,0,0,0,37.952,29.655Z"></path></g></svg>