<svg xmlns="http://www.w3.org/2000/svg" viewBox="0 0 64 64" x="0px" y="0px"><g data-name="File Center"><path d="M32,36a1,1,0,0,1-.707-.293l-2.829-2.828,1.414-1.414L31,32.586V30H27a1,1,0,0,1-1-1V23a1,1,0,0,1,1-1H37a1,1,0,0,1,1,1v6a1,1,0,0,1-1,1H33v2.586l1.122-1.121,1.414,1.414-2.829,2.828A1,1,0,0,1,32,36a7.008,7.008,0,0,1,7,7,1,1,0,0,1,.293-.707l2.829-2.828,1.414,1.414L42.415,42H44V39a1,1,0,0,1,1-1h8V29H44V27h9V25H52V23h1V12.846a1.172,1.172,0,0,0-.292-.7L48.877,8.3,46,5.418V11a1,1,0,0,0,1,1h4v2H47a3,3,0,0,1-3-3V4H12a1,1,0,0,0-1,1V23h9v2H11v2h1v2H11v9h8a1,1,0,0,1,1,1v3h1.585l-1.121-1.121,1.414-1.414,2.829,2.828A1,1,0,0,1,25,43,7.008,7.008,0,0,1,32,36ZM44,23h6v2H44ZM20,29H14V27h6ZM19,8H39v2H19ZM15,8h2v2H15Zm0,6V12H39v2Z"></path><circle cx="32" cy="43" r="5"></circle><rect x="28" y="24" width="8" height="4"></rect><rect x="46" y="40" width="8" height="6"></rect><path d="M45,48a1,1,0,0,1-1-1V44H42.415l1.121,1.121-1.414,1.414-2.829-2.828A1,1,0,0,1,39,43a7,7,0,0,1-14,0,1,1,0,0,1-.293.707l-2.829,2.828-1.414-1.414L21.585,44H20v3a1,1,0,0,1-1,1H11V59a1,1,0,0,0,1,1H52a1,1,0,0,0,1-1V48Z"></path><rect x="10" y="40" width="8" height="6"></rect></g></svg>