<svg xmlns="http://www.w3.org/2000/svg" viewBox="0 0 48 48" x="0px" y="0px"><g><path d="M38,19.08a6.29,6.29,0,0,0-2,0,6.991,6.991,0,0,0,0,13.84,6.29,6.29,0,0,0,2,0,6.991,6.991,0,0,0,0-13.84ZM41,24H39V23H35v2h4a2.006,2.006,0,0,1,2,2v2a2.006,2.006,0,0,1-2,2H38v1H36V31H35a2.006,2.006,0,0,1-2-2V28h2v1h4V27H35a2.006,2.006,0,0,1-2-2V23a2.006,2.006,0,0,1,2-2h1V20h2v1h1a2.006,2.006,0,0,1,2,2Z"></path><path d="M28,26a9.016,9.016,0,0,1,8-8.94V15.55a6.651,6.651,0,0,1-5.31-.46,6.769,6.769,0,0,1-3.45-5.92,1.012,1.012,0,0,1,.47-.85,6.739,6.739,0,0,1,6.84-.24A6.843,6.843,0,0,1,36,9.16V2H22A12.731,12.731,0,0,0,9.96,10.39C9.9,10.57,4.44,25,4.44,25H8a1,1,0,0,1,1,1v7a3.009,3.009,0,0,0,3,3h7a1,1,0,0,1,1,1v9H35a1,1,0,0,0,1-1V34.94A9.008,9.008,0,0,1,28,26Z"></path><path d="M33.588,9.834a4.717,4.717,0,0,0-4.31-.095,4.648,4.648,0,0,0,6.688,3.691A4.717,4.717,0,0,0,33.588,9.834Z"></path><path d="M36,10v4h2V10.31a4.73,4.73,0,0,0,4.19-.73,4.7,4.7,0,0,0,1.84-3.9,4.7,4.7,0,0,0-4.25.71A4.609,4.609,0,0,0,38,9.43a4.145,4.145,0,0,0-.04.57Z"></path></g></svg>