<svg xmlns="http://www.w3.org/2000/svg" viewBox="0 0 64 64" x="0px" y="0px"><title>Speaker</title><g><path d="M49,2H15V58h2v4H47V58h2ZM45,60H19V58H45Zm2-4H17V4H47Z"></path><path d="M32,54A13,13,0,1,0,19,41,13.015,13.015,0,0,0,32,54Zm0-24A11,11,0,1,1,21,41,11.013,11.013,0,0,1,32,30Z"></path><path d="M32,44a3,3,0,1,0-3-3A3,3,0,0,0,32,44Zm0-4a1,1,0,1,1-1,1A1,1,0,0,1,32,40Z"></path><path d="M32,23a7,7,0,1,0-7-7A7.008,7.008,0,0,0,32,23Zm0-12a5,5,0,1,1-5,5A5.006,5.006,0,0,1,32,11Z"></path><path d="M32,19a3,3,0,1,0-3-3A3,3,0,0,0,32,19Zm0-4a1,1,0,1,1-1,1A1,1,0,0,1,32,15Z"></path><rect x="19" y="6" width="2" height="2"></rect><rect x="22" y="6" width="2" height="2"></rect><rect x="19" y="9" width="2" height="2"></rect></g></svg>