<svg xmlns="http://www.w3.org/2000/svg" viewBox="0 0 64 64" x="0px" y="0px"><g data-name="Robotics Arm"><path d="M55,54H49.618L44.9,44.553A1,1,0,0,0,44,44H36.89a6.929,6.929,0,0,0,1.883-6.738L50.081,17.684A7,7,0,1,0,43.11,6H20a1,1,0,0,0-1,1V8H16.475A9.008,9.008,0,0,0,8,2H6A1,1,0,0,0,5,3V7A1,1,0,0,0,6,8H8a3,3,0,0,1,0,6H6a1,1,0,0,0-1,1v4a1,1,0,0,0,1,1H8a9.008,9.008,0,0,0,8.475-6H19v1a1,1,0,0,0,1,1H39.516l-9.4,16.264A6.987,6.987,0,0,0,27.11,44H20a1,1,0,0,0-.895.553L14.382,54H9a1,1,0,0,0-1,1v6a1,1,0,0,0,1,1H55a1,1,0,0,0,1-1V55A1,1,0,0,0,55,54ZM8,18H7V16H8A5,5,0,0,0,8,6H7V4H8A7,7,0,0,1,8,18Zm8.941-6a8.5,8.5,0,0,0,0-2H19v2ZM32.565,32.029,42.339,15.1A6.991,6.991,0,0,0,47.6,17.98L37.755,35.026A7,7,0,0,0,32.565,32.029ZM48,6a5,5,0,1,1-5,5A5.006,5.006,0,0,1,48,6ZM21,14V8H41.685a6.9,6.9,0,0,0-.4,4.946L40.672,14Zm6,25a5,5,0,1,1,5,5A5.006,5.006,0,0,1,27,39Zm-6.382,7H43.382l4,8H16.618ZM54,60H10V56H54Z"></path><path d="M32,36a3,3,0,1,0,3,3A3,3,0,0,0,32,36Zm0,4a1,1,0,1,1,1-1A1,1,0,0,1,32,40Z"></path><path d="M48,14a3,3,0,1,0-3-3A3,3,0,0,0,48,14Zm0-4a1,1,0,1,1-1,1A1,1,0,0,1,48,10Z"></path><rect x="19" y="18" width="2" height="2"></rect><rect x="23" y="18" width="8" height="2"></rect><rect x="41" y="29.804" width="12" height="2" transform="translate(-3.175 56.11) rotate(-60.005)"></rect><rect x="50.5" y="22.009" width="2" height="2" transform="translate(5.826 56.109) rotate(-60.005)"></rect><path d="M58.78,8.8l-1.96.4A9.1,9.1,0,0,1,57,11a8.922,8.922,0,0,1-1.8,5.4l1.6,1.2A10.9,10.9,0,0,0,59,11,11.068,11.068,0,0,0,58.78,8.8Z"></path><path d="M58.084,6.6A11,11,0,0,0,56.8,4.4L55.2,5.6a8.933,8.933,0,0,1,1.05,1.8Z"></path></g></svg>