<svg xmlns="http://www.w3.org/2000/svg" viewBox="0 0 64 64" x="0px" y="0px"><title>Oil Tank</title><g data-name="Oil Tank"><path d="M55.108,27.126A2.942,2.942,0,0,0,56,25a3,3,0,0,0-3-3V12a3,3,0,0,0,0-6H49V4a2,2,0,0,0-2-2H43a2,2,0,0,0-2,2V6H11a3,3,0,0,0,0,6V22a3.015,3.015,0,0,0-3,3,3,3,0,0,0,3,3V40a3.015,3.015,0,0,0-3,3,3,3,0,0,0,3,3V56a3.015,3.015,0,0,0-3,3,3,3,0,0,0,3,3H53a3.015,3.015,0,0,0,3-3,3,3,0,0,0-3-3V46a3.015,3.015,0,0,0,3-3,3,3,0,0,0-3-3V28A2.928,2.928,0,0,0,55.108,27.126ZM43,4h4V6H43ZM10,9a1,1,0,0,1,1-1H53a1,1,0,0,1,0,2H11A1,1,0,0,1,10,9Zm3,3H51V22H13ZM10,25a.974.974,0,0,1,.306-.712A.957.957,0,0,1,11,24H53a1,1,0,0,1,1,1,.974.974,0,0,1-.306.712A.957.957,0,0,1,53,26H11A1,1,0,0,1,10,25ZM54,59a.974.974,0,0,1-.306.712A.957.957,0,0,1,53,60H11a1,1,0,0,1-1-1,.974.974,0,0,1,.306-.712A.957.957,0,0,1,11,58H53A1,1,0,0,1,54,59Zm-3-3H13V46H51Zm3-13a.974.974,0,0,1-.306.712A.957.957,0,0,1,53,44H11a1,1,0,0,1-1-1,.974.974,0,0,1,.306-.712A.957.957,0,0,1,11,42H53A1,1,0,0,1,54,43Zm-3-3H13V28H51Z"></path><path d="M32,39a4,4,0,0,0,4-4c0-1.941-2.712-5.062-3.256-5.668a1.031,1.031,0,0,0-1.488,0C30.712,29.938,28,33.059,28,35A4,4,0,0,0,32,39Zm0-7.451c1.062,1.332,2,2.831,2,3.451a2,2,0,0,1-4,0C30,34.363,30.939,32.875,32,31.549Z"></path></g></svg>