<svg xmlns="http://www.w3.org/2000/svg" viewBox="0 0 64 64" x="0px" y="0px"><g><rect x="18" y="11" width="2" height="2"></rect><rect x="22" y="11" width="2" height="2"></rect><rect x="26" y="11" width="2" height="2"></rect><rect x="30" y="11" width="2" height="2"></rect><path d="M58,36A20.035,20.035,0,0,0,44,16.922V7a5.006,5.006,0,0,0-5-5H11A5.006,5.006,0,0,0,6,7V57a5.006,5.006,0,0,0,5,5H39a5.006,5.006,0,0,0,5-5V55.078A20.035,20.035,0,0,0,58,36Zm-2,0A18,18,0,1,1,38,18,18.021,18.021,0,0,1,56,36ZM18,4H32V6a1,1,0,0,1-1,1H19a1,1,0,0,1-1-1ZM42,57a3,3,0,0,1-3,3H11a3,3,0,0,1-3-3V7a3,3,0,0,1,3-3h5V6a3,3,0,0,0,3,3H31a3,3,0,0,0,3-3V4h5a3,3,0,0,1,3,3v9.4A20,20,0,1,0,42,55.6Z"></path><rect x="22.216" y="17.381" width="2.001" height="2" transform="translate(-6.384 19.217) rotate(-39.988)"></rect><rect x="19.381" y="20.216" width="2" height="2" transform="translate(-8.972 23.198) rotate(-50.012)"></rect><rect x="17.082" y="23.5" width="1.999" height="1.999" transform="translate(-12.177 27.904) rotate(-59.991)"></rect><rect x="15.387" y="27.133" width="2" height="2" transform="translate(-15.654 33.912) rotate(-70.004)"></rect><rect x="14.349" y="31.006" width="2" height="2" transform="translate(-18.835 41.567) rotate(-80.004)"></rect><rect x="14" y="35" width="2" height="2"></rect><rect x="14.349" y="38.994" width="2" height="2" transform="translate(-6.709 3.271) rotate(-9.996)"></rect><rect x="15.387" y="42.866" width="2" height="2" transform="translate(-14.013 8.248) rotate(-19.996)"></rect><rect x="17.082" y="46.5" width="1.999" height="1.999" transform="translate(-21.332 15.411) rotate(-30.009)"></rect><rect x="19.381" y="49.784" width="2" height="2" transform="translate(-27.87 24.972) rotate(-39.988)"></rect><rect x="22.216" y="52.619" width="2" height="2.001" transform="translate(-32.79 36.967) rotate(-50.03)"></rect><rect x="25.5" y="54.919" width="2" height="2" transform="translate(-35.177 50.915) rotate(-60.005)"></rect><rect x="54.619" y="20.216" width="2" height="2" transform="translate(-0.629 40.703) rotate(-39.988)"></rect><rect x="56.919" y="23.5" width="1.999" height="1.999" transform="translate(-4.489 32.251) rotate(-30.009)"></rect><rect x="58.613" y="27.133" width="2" height="2" transform="translate(-6.027 22.081) rotate(-19.996)"></rect><rect x="59.651" y="31.006" width="2" height="2" transform="translate(-4.635 11.013) rotate(-9.996)"></rect><rect x="60" y="35" width="2" height="2"></rect><rect x="59.651" y="38.994" width="2" height="2" transform="translate(10.737 92.782) rotate(-80.004)"></rect><rect x="58.613" y="42.866" width="2" height="2" transform="translate(-1.994 84.885) rotate(-70.004)"></rect><rect x="56.919" y="46.5" width="1.999" height="1.999" transform="translate(-12.181 73.898) rotate(-59.991)"></rect><rect x="54.619" y="49.784" width="2" height="2" transform="matrix(0.643, -0.766, 0.766, 0.643, -19.035, 60.748)"></rect><polygon points="53 10 55 10 55 8 57 8 57 6 55 6 55 4 53 4 53 6 51 6 51 8 53 8 53 10"></polygon><rect x="46" y="12" width="6" height="2"></rect><rect x="51" y="16" width="6" height="2"></rect><polygon points="52 54 50 54 50 56 48 56 48 58 50 58 50 60 52 60 52 58 54 58 54 56 52 56 52 54"></polygon><path d="M42.707,40.707A1,1,0,0,0,43,40V37H41v2.586l-.707.707,1.414,1.414Z"></path><path d="M36.707,25.293A1,1,0,0,0,36,25H33a1,1,0,0,0-.707.293l-1,1A1,1,0,0,0,31,27v1.219l-3.242.811A1,1,0,0,0,27,30v2.382l-1.447.723A1,1,0,0,0,25,34v4a1,1,0,0,0,.684.949L28,39.721V42a1,1,0,0,0,.293.707l1,1A1,1,0,0,0,30,44h1.465l1.7,2.555A1,1,0,0,0,34,47h2a1,1,0,0,0,.707-.293L38,45.414l1.293,1.293A1,1,0,0,0,40,47h2a1,1,0,0,0,.832-.445L44.535,44H46a1,1,0,0,0,.707-.293l1-1A1,1,0,0,0,48,42V39.721l2.316-.772A1,1,0,0,0,51,38V34a1,1,0,0,0-.553-.9L49,32.382V30a1,1,0,0,0-.758-.97L45,28.219V27a1,1,0,0,0-.293-.707l-1-1A1,1,0,0,0,43,25H40a1,1,0,0,0-.707.293L38,26.586ZM35.586,45H34.535l-1.7-2.555A1,1,0,0,0,32,42H30.414L30,41.586V39.414l1.707-1.707A1,1,0,0,0,32,37V36H30v.586l-1.27,1.27L27,37.279V34.618L28.236,34H30V32H29V30.781l2.693-.674L33,31.414V33h2V31a1,1,0,0,0-.293-.707L33,28.586V27.414L33.414,27h2.172L37,28.414V43.586Zm4.828-18h2.172l.414.414v1.172l-1.707,1.707A1,1,0,0,0,41,31v2h2V31.414l1.307-1.307L47,30.781V32H46v2h1.764L49,34.618v2.661l-1.73.577L46,36.586V36H44v1a1,1,0,0,0,.293.707L46,39.414v2.172L45.586,42H44a1,1,0,0,0-.832.445L41.465,45H40.414L39,43.586V28.414Z"></path><path d="M35,37H33v3a1,1,0,0,0,.293.707l1,1,1.414-1.414L35,39.586Z"></path></g></svg>