<svg xmlns="http://www.w3.org/2000/svg" viewBox="0 0 64 64" x="0px" y="0px"><title>World-Football-Soccer-Save</title><g><path d="M18,30A16,16,0,1,0,34,46,16.019,16.019,0,0,0,18,30Zm11.964,8.767a13.894,13.894,0,0,1,1.428,3.16l-2.156-.615Zm-1.5-2.035-1.292,4.522-4,1.6L19,39.519v-4.1l2.86-2.86A14.007,14.007,0,0,1,28.465,36.732ZM20.279,49H15.721l-1.552-4.654L18,41.28l3.831,3.066ZM19.5,32.084l-1.5,1.5-1.5-1.5a13.471,13.471,0,0,1,3,0Zm-5.362.47L17,35.414v4.1l-4.17,3.336-4-1.6L7.535,36.732A14.007,14.007,0,0,1,14.14,32.554ZM6.764,41.312l-2.156.615a13.894,13.894,0,0,1,1.428-3.16Zm-2.626,2.83,3.808-1.086,4.252,1.7,1.691,5.071c-.551.651-1.532,1.874-3.37,4.172H6.527a13.67,13.67,0,0,1-2.389-9.858Zm6.406,13.686A14.032,14.032,0,0,1,8.221,56H10.18Zm2.271,1.165-.743-3.731c1.214-1.519,2.781-3.474,3.418-4.262H20.5c.643.793,2.272,2.817,3.5,4.351V58.63a13.837,13.837,0,0,1-11.185.363ZM26,57.473V56h1.779A14.039,14.039,0,0,1,26,57.473ZM29.473,54H25.479c-1.825-2.273-2.811-3.5-3.373-4.156l1.7-5.087,4.252-1.7,3.808,1.086A13.67,13.67,0,0,1,29.473,54Z"></path><path d="M46,2A16,16,0,1,0,62,18,16.019,16.019,0,0,0,46,2ZM59.949,17H53.976A28.564,28.564,0,0,0,52.8,9.481,15.858,15.858,0,0,0,55.564,7.8,13.946,13.946,0,0,1,59.949,17ZM47,4.237c1.177.532,2.335,1.973,3.243,4.091A13.944,13.944,0,0,1,47,8.956Zm3.556.539A13.974,13.974,0,0,1,53.969,6.5a13.768,13.768,0,0,1-1.856,1.081A14.09,14.09,0,0,0,50.556,4.776ZM45,4.237V8.956a13.944,13.944,0,0,1-3.243-.628C42.665,6.21,43.823,4.769,45,4.237ZM39.887,7.585A13.768,13.768,0,0,1,38.031,6.5a13.974,13.974,0,0,1,3.413-1.728A14.09,14.09,0,0,0,39.887,7.585ZM45,10.956V17H40.024a26.444,26.444,0,0,1,1.051-6.792A15.974,15.974,0,0,0,45,10.956ZM45,19v6.044a15.974,15.974,0,0,0-3.925.748A26.444,26.444,0,0,1,40.024,19Zm0,8.044v4.719c-1.177-.532-2.335-1.973-3.243-4.091A13.944,13.944,0,0,1,45,27.044Zm-3.556,4.18A13.974,13.974,0,0,1,38.031,29.5a13.768,13.768,0,0,1,1.856-1.081A14.09,14.09,0,0,0,41.444,31.224ZM47,31.763V27.044a13.944,13.944,0,0,1,3.243.628C49.335,29.79,48.177,31.231,47,31.763Zm5.113-3.348A13.768,13.768,0,0,1,53.969,29.5a13.974,13.974,0,0,1-3.413,1.728A14.09,14.09,0,0,0,52.113,28.415ZM47,25.044V19h4.976a26.444,26.444,0,0,1-1.051,6.792A15.974,15.974,0,0,0,47,25.044ZM47,17V10.956a15.974,15.974,0,0,0,3.925-.748A26.444,26.444,0,0,1,51.976,17ZM36.436,7.8A15.858,15.858,0,0,0,39.2,9.481,28.564,28.564,0,0,0,38.024,17H32.051A13.946,13.946,0,0,1,36.436,7.8ZM32.051,19h5.973A28.564,28.564,0,0,0,39.2,26.519,15.858,15.858,0,0,0,36.436,28.2,13.946,13.946,0,0,1,32.051,19Zm23.513,9.2A15.858,15.858,0,0,0,52.8,26.519,28.564,28.564,0,0,0,53.976,19h5.973A13.946,13.946,0,0,1,55.564,28.2Z"></path><path d="M53.609,35.079l-3.681,1.564.781,1.841,1.448-.614A21.028,21.028,0,0,1,33.863,52.919l.176,1.992A23.031,23.031,0,0,0,54.02,38.6l.623,1.467,1.841-.781-1.563-3.682A1,1,0,0,0,53.609,35.079Z"></path><path d="M10,30a1,1,0,0,0,.517-.145l3.421-2.071L12.9,26.073l-1.24.751a21.133,21.133,0,0,1,18.43-15.738l-.18-1.992A23.152,23.152,0,0,0,9.673,26.529l-.889-1.468L7.073,26.1l2.072,3.422A1,1,0,0,0,10,30Z"></path></g></svg>