<svg xmlns="http://www.w3.org/2000/svg" viewBox="0 0 64 64" x="0px" y="0px"><g><rect x="15" y="31" width="16" height="2"></rect><path d="M15,11V29h3.56A3.906,3.906,0,0,1,18,27V11Z"></path><rect x="33" y="11" width="2" height="18"></rect><rect x="15" y="35" width="16" height="2"></rect><rect x="33" y="31" width="2" height="6"></rect><path d="M31,11H26V23a2.006,2.006,0,0,1-2,2H22a2,2,0,0,0,0,4h9V26.3a6.961,6.961,0,0,1,0-12.6Z"></path><path d="M31,24V16a5,5,0,0,0,0,8Z"></path><path d="M20,8V23.54A3.989,3.989,0,0,1,22,23h2V7H21A1,1,0,0,0,20,8Z"></path><path d="M53,11H48.09A5.992,5.992,0,0,0,53,15.91Z"></path><path d="M53,24.09A5.992,5.992,0,0,0,48.09,29H53Z"></path><rect x="37" y="35" width="16" height="2"></rect><path d="M37,16v8a5,5,0,0,0,0-8Z"></path><rect x="37" y="31" width="16" height="2"></rect><path d="M53,17.93A8,8,0,0,1,46.07,11H37v2.7a6.961,6.961,0,0,1,0,12.6V29h9.07A8,8,0,0,1,53,22.07ZM46,21H44V19h2Z"></path><path d="M19,44H18V54h3.92a1.21,1.21,0,0,1,.19.01l12.78,1.42a14.908,14.908,0,0,0,9.16-1.93l13.63-7.87a1.968,1.968,0,0,0,.94-1.21,2.009,2.009,0,0,0-2.94-2.25L45.01,48.33a4.9,4.9,0,0,1-2.5.67H32V47H42a2.006,2.006,0,0,0,2-2,2.015,2.015,0,0,0-2-2H35a.937.937,0,0,1-.37-.07l-3.21-1.28A8.881,8.881,0,0,0,28.07,41h-1.3a8.884,8.884,0,0,0-4.63,1.29l-2.63,1.57A1,1,0,0,1,19,44Z"></path><rect x="2" y="44" width="6" height="11"></rect><path d="M16,56V43H10V56Zm-4-3h2v2H12Z"></path></g></svg>