<svg xmlns="http://www.w3.org/2000/svg" viewBox="0 0 64 64" x="0px" y="0px"><title>External CD Rom</title><g data-name="External CD Rom"><path d="M9,12A3,3,0,1,0,6,9,3,3,0,0,0,9,12ZM9,8A1,1,0,1,1,8,9,1,1,0,0,1,9,8Z"></path><path d="M9,52a3,3,0,1,0,3,3A3,3,0,0,0,9,52Zm0,4a1,1,0,1,1,1-1A1,1,0,0,1,9,56Z"></path><path d="M62,32A21.008,21.008,0,0,0,42,11.051V5a3,3,0,0,0-3-3H5A3,3,0,0,0,2,5V59a3,3,0,0,0,3,3H39a3,3,0,0,0,3-3V52.949A21.008,21.008,0,0,0,62,32ZM4,59V5A1,1,0,0,1,5,4H32V60H5A1,1,0,0,1,4,59Zm35,1H34V4h5a1,1,0,0,1,1,1v6.05q-1.005.048-2,.19V9H36V55h2V52.76q1,.142,2,.19V59A1,1,0,0,1,39,60Zm2-9a19.116,19.116,0,0,1-3-.26V35.974A4.948,4.948,0,0,0,41,37a5,5,0,0,0,0-10,4.948,4.948,0,0,0-3,1.026V13.26A18.99,18.99,0,1,1,41,51ZM38,32a3,3,0,1,1,3,3A3,3,0,0,1,38,32Z"></path><path d="M41,15v2A15.017,15.017,0,0,1,56,32h2A17.019,17.019,0,0,0,41,15Z"></path></g></svg>