<svg xmlns="http://www.w3.org/2000/svg" viewBox="0 0 64 64" x="0px" y="0px"><g data-name="Smart light-Internet of Things-App-Application-Network"><path d="M57.77,29.64,53.27,4.48A2.982,2.982,0,0,0,50.33,2H27.67a2.983,2.983,0,0,0-2.94,2.47L20.87,26H11a5,5,0,0,0-5,5V57a5,5,0,0,0,5,5H52a2.006,2.006,0,0,0,2-2V56a2.006,2.006,0,0,0-2-2H42V36h2a1,1,0,0,0,1-1V32h6v8.18A3.01,3.01,0,0,0,49,43v2a3,3,0,0,0,6,0V43a3.01,3.01,0,0,0-2-2.82V32h2.81a1.988,1.988,0,0,0,1.96-2.36ZM26.69,4.82A1.006,1.006,0,0,1,27.67,4H50.33a1,1,0,0,1,.98.83L54.02,20H23.98ZM23.62,22H54.38l.36,2H23.26ZM28,57a3.009,3.009,0,0,1-3,3H11a3.009,3.009,0,0,1-3-3V54H28Zm0-5H8V34H28Zm0-20H8V31a3.009,3.009,0,0,1,3-3H25a3.009,3.009,0,0,1,3,3ZM52,56v4l-23.03.01A4.954,4.954,0,0,0,30,57V56ZM34,36h2V54H30V32h3v3A1,1,0,0,0,34,36Zm4,18V36h2V54Zm5-20H35V32h8ZM53,45a1,1,0,0,1-2,0V43a1,1,0,0,1,2,0ZM29.9,30A5.017,5.017,0,0,0,25,26H55.09l.72,4Z"></path><rect x="17" y="56" width="2" height="2"></rect><path d="M13,44a5,5,0,1,0,6-4.9V38H17v1.1A5.009,5.009,0,0,0,13,44Zm4-2.816V44h2V41.184a3,3,0,1,1-2,0Z"></path></g></svg>