<svg xmlns="http://www.w3.org/2000/svg" viewBox="0 0 64 64" x="0px" y="0px"><g><path d="M33.35,40.1,32,41l-1.35-.9a1.94,1.94,0,0,0-1.1-.33,1.978,1.978,0,0,0-1.4,3.38L32,47l3.85-3.85a1.981,1.981,0,0,0-2.5-3.05Z"></path><path d="M26.526,17.934a6.641,6.641,0,0,1,2.112-.8A1.958,1.958,0,0,0,29,16v-.01a4.68,4.68,0,0,1-.536-.452,4.97,4.97,0,0,1-1.207-1.976A4.768,4.768,0,0,1,27,12V10.659a4.24,4.24,0,0,1-.588.534A1.009,1.009,0,0,0,26,12a.944.944,0,0,0,.268.674,1,1,0,0,1-.237,1.573A2,2,0,0,0,25,16,1.97,1.97,0,0,0,26.526,17.934Z"></path><path d="M28,8v.265a3.255,3.255,0,0,1-.1.755A.835.835,0,0,1,28,9h1.343a3.017,3.017,0,0,0,2.121-.879l.829-.828a1,1,0,0,1,1.414,0l1.414,1.414A1,1,0,0,0,35.829,9H36c.034,0,.063.016.1.019a3.273,3.273,0,0,1-.1-.746,4.394,4.394,0,0,0-1.335-3.159A3.9,3.9,0,0,0,31.855,4,3.99,3.99,0,0,0,28,8Z"></path><path d="M39,27V24a4.975,4.975,0,0,0-2.267-4.182,4.775,4.775,0,0,0-1.112-.529A4.186,4.186,0,0,1,32,21a4.186,4.186,0,0,1-3.62-1.71,4.73,4.73,0,0,0-1.108.524A4.98,4.98,0,0,0,25,24v3h2V23h2v4h6V23h2v4Z"></path><path d="M30.9,16.866a3.9,3.9,0,0,1-.7,1.5,2.907,2.907,0,0,0,3.612,0,3.926,3.926,0,0,1-.7-1.5,4.649,4.649,0,0,1-2.208,0Z"></path><path d="M37,12a4.979,4.979,0,0,1-2,3.972c0,.009,0,.019,0,.028a1.958,1.958,0,0,0,.362,1.139,6.606,6.606,0,0,1,2.112.8A1.969,1.969,0,0,0,39,16a2,2,0,0,0-1.031-1.753,1,1,0,0,1-.237-1.573A.944.944,0,0,0,38,12a.99.99,0,0,0-.4-.8,4.254,4.254,0,0,1-.6-.539Z"></path><path d="M35,12V10.885a2.991,2.991,0,0,1-1.293-.764L33,9.414l-.122.121A4.968,4.968,0,0,1,29.343,11H29v1a2.749,2.749,0,0,0,.154.929,2.99,2.99,0,0,0,.732,1.2,2.624,2.624,0,0,0,.551.42,1.07,1.07,0,0,1,.111.074A3,3,0,0,0,35,12Z"></path><path d="M60,60V59a4.975,4.975,0,0,0-2.267-4.182,4.775,4.775,0,0,0-1.112-.529,4.687,4.687,0,0,1-7.241,0,4.73,4.73,0,0,0-1.108.524A4.98,4.98,0,0,0,46,59v1h2V58h2v2h6V58h2v2Z"></path><path d="M54.014,38.1a4.959,4.959,0,0,1,1.612.66A.995.995,0,1,0,54,38,.9.9,0,0,0,54.014,38.1Z"></path><path d="M57.773,39.114a3.018,3.018,0,0,1-.681,1.028A4.965,4.965,0,0,1,58,43v3a3.006,3.006,0,0,0,2,2.829V42a2.955,2.955,0,0,0-2.227-2.886Z"></path><path d="M51.9,51.866a3.9,3.9,0,0,1-.7,1.505,2.907,2.907,0,0,0,3.612,0,3.926,3.926,0,0,1-.7-1.5,4.649,4.649,0,0,1-2.208,0Z"></path><path d="M50,47a2.749,2.749,0,0,0,.154.929,2.99,2.99,0,0,0,.732,1.2,2.624,2.624,0,0,0,.551.42,1.07,1.07,0,0,1,.111.074A3,3,0,0,0,56,47V45.885a2.991,2.991,0,0,1-1.293-.764L54,44.414l-.122.121A4.968,4.968,0,0,1,50.343,46H50Z"></path><path d="M50,43v1h.343a3.017,3.017,0,0,0,2.121-.879l.829-.828a1,1,0,0,1,1.414,0L56,43.586V43a3,3,0,0,0-6,0Z"></path><path d="M18,60V54.47a3.039,3.039,0,0,0-1.66-2.688l-2.718-1.355a2.972,2.972,0,0,1-5.244,0L5.656,51.784A3.037,3.037,0,0,0,4,54.47V60H6V56H8v4h6V56h2v4Z"></path><path d="M14,44V42.535l-1.873-1.248-1.42,1.42A1,1,0,0,1,10,43H8v1a3,3,0,0,0,6,0Z"></path><path d="M14,38H6.618l.277.553A1,1,0,0,1,7,39v1.586L7.414,41H9.586l1.707-1.707a1,1,0,0,1,1.262-.125l2.057,1.372L15,39.764V39A1,1,0,0,0,14,38Z"></path><path d="M10,48.9V49a1,1,0,0,0,2,0v-.1a5,5,0,0,1-2,0Z"></path><rect x="31" y="31" width="2" height="6"></rect><rect x="20.964" y="47.5" width="7.071" height="2" transform="translate(-27.119 31.529) rotate(-45)"></rect><rect x="38.5" y="44.964" width="2" height="7.071" transform="translate(-22.725 42.136) rotate(-45)"></rect></g></svg>