<svg xmlns="http://www.w3.org/2000/svg" viewBox="0 0 64 64" x="0px" y="0px"><title>Barcode</title><g><path d="M61,13H3a1,1,0,0,0-1,1V50a1,1,0,0,0,1,1H61a1,1,0,0,0,1-1V14A1,1,0,0,0,61,13Zm-1,2v8.032c-5.905.012-37.76,0-56,0V15ZM4,49V25.027l47.937.01L60,25.031V49Z"></path><rect x="6" y="27" width="4" height="20"></rect><rect x="11" y="27" width="2" height="16"></rect><rect x="14" y="27" width="2" height="16"></rect><rect x="17" y="27" width="2" height="16"></rect><polygon points="21 27 21 43 23 43 25 43 25 27 23 27 21 27"></polygon><rect x="27" y="27" width="2" height="16"></rect><rect x="31" y="27" width="2" height="16"></rect><rect x="34" y="27" width="2" height="16"></rect><polygon points="38 27 38 43 40 43 42 43 42 27 40 27 38 27"></polygon><rect x="44" y="27" width="2" height="16"></rect><rect x="47" y="27" width="2" height="16"></rect><rect x="50" y="27" width="2" height="16"></rect><rect x="53" y="27" width="2" height="16"></rect><rect x="56" y="27" width="2" height="20"></rect></g></svg>