<svg xmlns="http://www.w3.org/2000/svg" viewBox="0 0 64 64" x="0px" y="0px"><title>Website-Love</title><g><path d="M57,2H7A5.006,5.006,0,0,0,2,7V57a5.006,5.006,0,0,0,5,5H57a5.006,5.006,0,0,0,5-5V7A5.006,5.006,0,0,0,57,2ZM4,7A3,3,0,0,1,7,4H57a3,3,0,0,1,3,3v7H4ZM57,60H7a3,3,0,0,1-3-3V16H60V57A3,3,0,0,1,57,60Z"></path><path d="M7.38,8.08a1.017,1.017,0,0,0-1.09.21,1.014,1.014,0,0,0,0,1.42l.15.12a.757.757,0,0,0,.18.09.636.636,0,0,0,.18.06A1.5,1.5,0,0,0,7,10a1,1,0,0,0,.71-1.71A1.032,1.032,0,0,0,7.38,8.08Z"></path><path d="M10.29,8.29A1.052,1.052,0,0,0,10,9a1,1,0,0,0,.08.38,1.155,1.155,0,0,0,.21.33,1.014,1.014,0,0,0,1.42,0,1.155,1.155,0,0,0,.21-.33A1,1,0,0,0,12,9a1,1,0,0,0-1.71-.71Z"></path><path d="M14.62,8.08a1.155,1.155,0,0,0-.33.21A1.052,1.052,0,0,0,14,9a1,1,0,0,0,.08.38.9.9,0,0,0,.54.54A1,1,0,0,0,15,10a1,1,0,0,0,.71-1.71A1,1,0,0,0,14.62,8.08Z"></path><path d="M53,6H23a3,3,0,0,0,0,6H53a3,3,0,0,0,0-6Zm0,4H23a1,1,0,0,1,0-2H53a1,1,0,0,1,0,2Z"></path><path d="M38,26a7.948,7.948,0,0,0-6,2.343A7.948,7.948,0,0,0,26,26a8.009,8.009,0,0,0-8,8c0,9.53,13.026,15.652,13.581,15.908a1,1,0,0,0,.838,0C32.974,49.652,46,43.53,46,34A8.009,8.009,0,0,0,38,26ZM32,47.885C29.831,46.783,20,41.377,20,34a6.006,6.006,0,0,1,6-6,5.672,5.672,0,0,1,5.143,2.515,1.039,1.039,0,0,0,1.714,0A5.672,5.672,0,0,1,38,28a6.006,6.006,0,0,1,6,6C44,41.377,34.169,46.783,32,47.885Z"></path></g></svg>