<svg xmlns="http://www.w3.org/2000/svg" viewBox="0 0 64 64" x="0px" y="0px"><g data-name="Search-Money-Money Bag-Magnifying Glass-Finance"><path d="M56.72,54.76l-8.95-8.93a14.926,14.926,0,0,0-2.23-18.49A14.909,14.909,0,0,0,33.72,16.25,2.9,2.9,0,0,0,34,15a3,3,0,0,0-1.28-2.45l6.03-6.89A1,1,0,0,0,38,4a2.557,2.557,0,0,1-1.87-.78,4.612,4.612,0,0,0-6.25,0,2.644,2.644,0,0,1-3.75,0,4.612,4.612,0,0,0-6.25,0A2.6,2.6,0,0,1,18,4a1,1,0,0,0-.75,1.66l6.03,6.89a2.953,2.953,0,0,0-.99,3.71A15.017,15.017,0,0,0,10,31V42.38a3.021,3.021,0,0,1-1.33,2.38A3.978,3.978,0,0,0,7,48.22,4.1,4.1,0,0,0,11.16,52h18.5a14.837,14.837,0,0,0,12.27-.71l9.13,9.13a4,4,0,1,0,5.66-5.66ZM19.87,5.61a5.856,5.856,0,0,0,1.26-.83A2.557,2.557,0,0,1,23,4a2.6,2.6,0,0,1,1.88.78,4.612,4.612,0,0,0,6.25,0,2.644,2.644,0,0,1,3.75,0,6.164,6.164,0,0,0,1.25.83L30.55,12h-5.1ZM32,15a1,1,0,0,1-1,1H25a1,1,0,0,1,0-2h6A1,1,0,0,1,32,15ZM11.16,50A2.124,2.124,0,0,1,9,48.11a2,2,0,0,1,.84-1.73,5,5,0,0,0,2.16-4V31A13.015,13.015,0,0,1,23.45,18.1,5.974,5.974,0,0,0,22,22v1h2V22a4,4,0,0,1,8,0v1h2V22a5.974,5.974,0,0,0-1.45-3.9,12.876,12.876,0,0,1,10.02,6.97A14.861,14.861,0,0,0,35,23a14.98,14.98,0,0,0-8.96,27ZM35,51A13,13,0,1,1,48,38,13.012,13.012,0,0,1,35,51Zm20.31,8a2,2,0,0,1-2.84,0l-8.79-8.79a15.124,15.124,0,0,0,2.93-2.72l8.69,8.69A2,2,0,0,1,55.31,59Z"></path><path d="M35,27A11,11,0,1,0,46,38,11.013,11.013,0,0,0,35,27Zm0,20a9,9,0,1,1,9-9A9.01,9.01,0,0,1,35,47Z"></path><path d="M33,35h4a1,1,0,0,1,1,1h2a3,3,0,0,0-3-3H36V31H34v2H33a3,3,0,0,0,0,6h4a1,1,0,0,1,0,2H33a1,1,0,0,1-1-1H30a3,3,0,0,0,3,3h1v2h2V43h1a3,3,0,0,0,0-6H33a1,1,0,0,1,0-2Z"></path></g></svg>