<svg xmlns="http://www.w3.org/2000/svg" viewBox="0 0 64 64" x="0px" y="0px"><g><path d="M60.118,19,61.9,15.447A1,1,0,0,0,61,14H53a1,1,0,0,0-.9.553L50.382,18H48.949A16.989,16.989,0,1,0,29,35.719v3.663l-2,1V39a1,1,0,0,0-1-1H18a1,1,0,0,0-1,1v3H4a1,1,0,0,0-1,1V57a1,1,0,0,0,1,1H17v1a1,1,0,0,0,1,1h8a1,1,0,0,0,1-1h2a3,3,0,0,0,3,3,3.015,3.015,0,0,0,3-3h9a3,3,0,0,0,3-3V44a3,3,0,0,0-3-3H41.816A3,3,0,0,0,39,39H35V35.719A17.007,17.007,0,0,0,48.949,20h1.433l1.723,3.447A1,1,0,0,0,53,24h8a1,1,0,0,0,.9-1.447ZM5,56V44H17V56Zm14,2V40h6V58Zm13.694,1.713A.965.965,0,0,1,32,60a1,1,0,0,1-1-1V50.7a6.951,6.951,0,0,0,2-.954V59A.976.976,0,0,1,32.694,59.713ZM35,56V47.581l.051-.086A2.866,2.866,0,0,0,35.78,50a2.954,2.954,0,0,0,0,4,2.908,2.908,0,0,0-.6,3H35Zm.78-10c-.045.05-.087.1-.129.156.025-.075.051-.149.072-.225C35.743,45.954,35.76,45.978,35.78,46ZM37,52a1,1,0,0,1,1-1h7v2H38A1,1,0,0,1,37,52Zm8-3H38a1,1,0,0,1,0-2h7Zm0,7a1,1,0,0,1-1,1H38a1,1,0,0,1,0-2h7Zm0-12v1H39a2.994,2.994,0,0,0,2.818-2H44A1,1,0,0,1,45,44Zm-5-2a.977.977,0,0,1-.307.713A.959.959,0,0,1,39,43H35a1,1,0,0,0-1,1,4.911,4.911,0,0,1-.835,2.759A4.977,4.977,0,0,1,29,49v8H27V42.618L30.236,41H39A1,1,0,0,1,40,42Zm-7-3H31V35.949c.333.02.662.051,1,.051s.667-.031,1-.051Zm-1-5A15,15,0,1,1,46.949,18h-4a11,11,0,1,0,0,2h4A15.006,15.006,0,0,1,32,34Zm4.9-16a5,5,0,1,0,0,2h4.042a9,9,0,1,1,0-2Zm-2.083,2a3,3,0,1,1,0-2H32v2Zm23.289-.553L59.382,22H53.618l-1.5-3,1.5-3h5.764l-1.277,2.553A1,1,0,0,0,58.105,19.447Z"></path></g></svg>