<svg xmlns="http://www.w3.org/2000/svg" viewBox="0 0 64 64" x="0px" y="0px"><g data-name="Time To Work"><path d="M46.146,28.27,44.73,26.854l-.75.75A18.191,18.191,0,0,1,45.4,29.02Z"></path><circle cx="32" cy="41" r="1"></circle><path d="M20.02,27.6l-.75-.75L17.854,28.27l.75.75A18.191,18.191,0,0,1,20.02,27.6Z"></path><path d="M32,23c.338,0,.667.032,1,.051V22H31v1.051C31.333,23.032,31.662,23,32,23Z"></path><rect x="29" y="18" width="6" height="2"></rect><path d="M32,57A16,16,0,1,0,16,41,16.019,16.019,0,0,0,32,57ZM44,40h2v2H44ZM33,55H31V53h2ZM31,27h2v2H31ZM24,40h5.184A3,3,0,0,1,31,38.184V31h2v7.184A2.993,2.993,0,1,1,29.184,42H24Zm-4,0v2H18V40Z"></path><path d="M12,60H52a1,1,0,0,0,1-1V15H47a3,3,0,0,1-3-3V4H12a1,1,0,0,0-1,1V59A1,1,0,0,0,12,60ZM22,8H32v2H22ZM16,8h4v2H16Zm0,4H36v2H16Zm-.267,16.977a1,1,0,0,1,0-1.415l2.83-2.829a1,1,0,0,1,1.414,0l1.611,1.611A17.879,17.879,0,0,1,29,23.271V22a2,2,0,0,1-2-2V18a2,2,0,0,1,2-2h6a2,2,0,0,1,2,2v2a2,2,0,0,1-2,2v1.271a17.893,17.893,0,0,1,7.412,3.073l1.611-1.611a1,1,0,0,1,1.414,0l2.83,2.829a1,1,0,0,1,0,1.415l-1.611,1.611a18,18,0,1,1-29.312,0Z"></path><path d="M51.868,13,46,5.81V12a1,1,0,0,0,1,1Z"></path></g></svg>