<svg xmlns="http://www.w3.org/2000/svg" viewBox="0 0 64 64" x="0px" y="0px"><g data-name="Cloud-Cloud Computing-Data-Storage-Disk"><path d="M51.98,18.36A10.01,10.01,0,0,0,42,9a9.663,9.663,0,0,0-2.16.24A15,15,0,0,0,12,17a12.414,12.414,0,0,0,.07,1.34A13,13,0,0,0,15,44h3V60a2.006,2.006,0,0,0,2,2H44a2.006,2.006,0,0,0,2-2V44h3a12.992,12.992,0,0,0,2.98-25.64ZM40,60H24V46H40Zm4,0H42V46a2.006,2.006,0,0,0-2-2H24a2.006,2.006,0,0,0-2,2V60H20V36h4v5a1,1,0,0,0,1,1H39a1,1,0,0,0,1-1V37.41l4,4ZM34,38v2H26V36H38v4H36V38Zm15,4H46V41a1.033,1.033,0,0,0-.29-.71l-6-6A1.033,1.033,0,0,0,39,34H20a2.006,2.006,0,0,0-2,2v6H15a10.993,10.993,0,0,1-1.67-21.86,1,1,0,0,0,.66-.4,1.021,1.021,0,0,0,.18-.74A12.177,12.177,0,0,1,14,17a13,13,0,0,1,24.47-6.13,1,1,0,0,0,1.18.48A8.008,8.008,0,0,1,50,19.01c0,.03-.01.14-.01.17a1,1,0,0,0,.84.99A10.991,10.991,0,0,1,49,42Z"></path><path d="M17,17h2a8.009,8.009,0,0,1,8-8V7A10.011,10.011,0,0,0,17,17Z"></path><path d="M55,31a6.006,6.006,0,0,1-6,6v2a8.009,8.009,0,0,0,8-8Z"></path><rect x="26" y="52" width="12" height="2"></rect><rect x="26" y="48" width="12" height="2"></rect><rect x="26" y="56" width="12" height="2"></rect></g></svg>