<svg xmlns="http://www.w3.org/2000/svg" viewBox="0 0 64 64" x="0px" y="0px"><g data-name="Wifi-Social Network-Smartphone-Mobile-App"><path d="M49,54H22.6a11.075,11.075,0,0,1,.4,2.93v1.3A11.529,11.529,0,0,1,22.85,60H44a5,5,0,0,0,5-5ZM34,58H30V56h4Z"></path><path d="M49,12H15V44.66l2.44-4.22a3.948,3.948,0,0,1,2.43-1.87,4,4,0,0,1,4.5,5.87l-3.26,5.64L21.88,52H49ZM19,23H17V21h2Zm0-7v3H17V15a1,1,0,0,1,1-1h4v2ZM32,42A11,11,0,1,1,43,31,11.013,11.013,0,0,1,32,42Z"></path><path d="M32,22a9,9,0,1,0,9,9A9.011,9.011,0,0,0,32,22Zm.707,14.293a1.023,1.023,0,0,0-1.414,0l-1.415-1.414a3.072,3.072,0,0,1,4.244,0Zm2.829-2.829a5.008,5.008,0,0,0-7.072,0L27.05,32.05a7.009,7.009,0,0,1,9.9,0Zm2.828-2.828a9.01,9.01,0,0,0-12.728,0l-1.414-1.414a11.012,11.012,0,0,1,15.556,0Z"></path><path d="M49,9a5,5,0,0,0-5-5H20a5,5,0,0,0-5,5v1H49ZM27,8H25V6h2Zm8,0H29V6h6Z"></path><path d="M21,58.23v-1.3a9.149,9.149,0,0,0-.64-3.35l-1.29-3.21a1.023,1.023,0,0,1,.06-.87l3.5-6.06a1.969,1.969,0,0,0,.2-1.52,1.927,1.927,0,0,0-.93-1.21,2,2,0,0,0-2.73.73l-5,8.66-1.73-1,.56-.98V35.15l-4.51,7.8a14.956,14.956,0,0,0-1.92,9.16L7.561,61h13A8.945,8.945,0,0,0,21,58.23Z"></path></g></svg>