<svg xmlns="http://www.w3.org/2000/svg" viewBox="0 0 64 64" x="0px" y="0px"><g><path d="M11.18,57.64A4.846,4.846,0,0,1,11.97,60h9.07l-6.85-9.41a1.016,1.016,0,0,1-.14-.91l.81-2.41-1.57-1.56a1.029,1.029,0,0,1-.25-.99l1.2-4.18L8.91,42.2A6.964,6.964,0,0,0,4,48.88V60H9.97a2.655,2.655,0,0,0-.45-1.23A8.855,8.855,0,0,1,8,54a8.723,8.723,0,0,1,2.29-5.71l1.42,1.42A6.609,6.609,0,0,0,10,54,6.723,6.723,0,0,0,11.18,57.64Z"></path><polygon points="22.88 47 21.93 54.05 23 57.57 24.07 54.05 23.12 47 22.88 47"></polygon><path d="M26,34.57a10.68,10.68,0,0,1-6,0V37.5l3,2.25,3-2.25Z"></path><path d="M30.88,44.71l-.91-3.17L25.69,55.6l4.2-5.77-.84-2.51a1.007,1.007,0,0,1,.24-1.03Z"></path><path d="M32,24V16.96a9.468,9.468,0,0,1-6.69-3.3A19.161,19.161,0,0,1,14,17.97V24a9,9,0,0,0,18,0ZM17,21a2,2,0,1,1,2,2A2,2,0,0,1,17,21Zm6,8a5.006,5.006,0,0,1-3.532-1.458l1.4-1.424a3.082,3.082,0,0,0,4.256,0l1.4,1.424A5.006,5.006,0,0,1,23,29Zm4-6a2,2,0,1,1,2-2A2,2,0,0,1,27,23Z"></path><polygon points="23 42.23 21.7 43.16 22.62 45 23.38 45 24.3 43.16 23 42.23"></polygon><path d="M26.78,12.29A7.75,7.75,0,0,0,33,15a1,1,0,0,1,1,1v8a11.014,11.014,0,0,1-6,9.79v.42A2.963,2.963,0,0,0,30,35a3.007,3.007,0,0,0,2.83-2.01,1,1,0,0,1,1.5-.5A2.911,2.911,0,0,0,36,33a3.009,3.009,0,0,0,3-3,2.964,2.964,0,0,0-.51-1.67.99.99,0,0,1-.13-.88,1.035,1.035,0,0,1,.62-.64A2.968,2.968,0,0,0,41,24a3.009,3.009,0,0,0-3-3,2.876,2.876,0,0,0-.73.11.97.97,0,0,1-.87-.16,1.014,1.014,0,0,1-.4-.8V17A12.975,12.975,0,0,0,30.33,6.28a15.167,15.167,0,0,1-3.13,5.54C27.07,11.98,26.93,12.13,26.78,12.29Z"></path><path d="M7.02,26.81a1.035,1.035,0,0,1,.62.64.99.99,0,0,1-.13.88A2.964,2.964,0,0,0,7,30a3.009,3.009,0,0,0,3,3,2.911,2.911,0,0,0,1.67-.51,1,1,0,0,1,1.5.5A3.007,3.007,0,0,0,16,35a2.963,2.963,0,0,0,2-.79v-.42A11.014,11.014,0,0,1,12,24V17a1,1,0,0,1,1-1,17.117,17.117,0,0,0,11.83-4.59c.32-.31.6-.6.86-.9a13.216,13.216,0,0,0,2.86-5.25A12.991,12.991,0,0,0,10,17v3.15a1.014,1.014,0,0,1-.4.8.97.97,0,0,1-.87.16A2.876,2.876,0,0,0,8,21a3.009,3.009,0,0,0-3,3A2.968,2.968,0,0,0,7.02,26.81Z"></path><path d="M40.86,40H38v2.86A4.017,4.017,0,0,0,40.86,40Z"></path><path d="M38,49.14V52h2.86A4.017,4.017,0,0,0,38,49.14Z"></path><path d="M15.12,44.71l1.59,1.58a1.007,1.007,0,0,1,.24,1.03l-.84,2.51,4.2,5.77L16.03,41.54Z"></path><polygon points="25.03 46.17 25.47 49.45 26.84 44.97 25.95 44.34 25.03 46.17"></polygon><path d="M36,41.86l-4.24-1.32,1.2,4.18a1.029,1.029,0,0,1-.25.99l-1.57,1.56.81,2.41a1.016,1.016,0,0,1-.14.91L24.96,60H36Z"></path><rect x="38" y="58" width="22" height="2"></rect><path d="M60,49.14A4.017,4.017,0,0,0,57.14,52H60Z"></path><polygon points="28.5 39.52 27.19 39.11 24.69 40.98 27.45 42.95 28.5 39.52"></polygon><rect x="38" y="54" width="22" height="2"></rect><circle cx="49" cy="46" r="2"></circle><path d="M60,44.91A5.992,5.992,0,0,1,55.09,40H42.91A5.992,5.992,0,0,1,38,44.91v2.18A5.992,5.992,0,0,1,42.91,52H55.09A5.992,5.992,0,0,1,60,47.09ZM49,50a4,4,0,1,1,4-4A4,4,0,0,1,49,50Z"></path><path d="M60,40H57.14A4.017,4.017,0,0,0,60,42.86Z"></path><polygon points="20.97 46.17 20.05 44.34 19.16 44.97 20.53 49.45 20.97 46.17"></polygon><polygon points="18.81 39.11 17.5 39.52 18.55 42.95 21.31 40.98 18.81 39.11"></polygon></g></svg>