<svg xmlns="http://www.w3.org/2000/svg" viewBox="0 0 64 64" x="0px" y="0px"><g data-name="Presentaion infographic"><circle cx="32" cy="28" r="7"></circle><path d="M31,19.059V17.051A11.01,11.01,0,0,0,21.051,27h2.008A9.013,9.013,0,0,1,31,19.059Z"></path><path d="M40.941,27h2.008a10.943,10.943,0,0,0-2.47-6H39V19.521a10.943,10.943,0,0,0-6-2.47v2.008A9.013,9.013,0,0,1,40.941,27Z"></path><rect x="23" y="58" width="18" height="2"></rect><path d="M38.569,34.132l1.414,1.414a11.089,11.089,0,0,0,.97-1.179l-.66-.66,1.414-1.414.283.283A10.881,10.881,0,0,0,42.949,29H40.941A8.967,8.967,0,0,1,38.569,34.132Z"></path><rect x="4" y="8" width="56" height="2"></rect><rect x="30" y="4" width="4" height="2"></rect><path d="M6,44H58V12H6Zm10-6H12V36h4ZM14,20V18h4v2ZM54,39H50V37h4Zm0-4H50V33h4ZM50,14h4v2H50Zm-4,0h2v2H46Zm0,3h8v2H46ZM32,15a12.9,12.9,0,0,1,7,2.063V15h5v2H41v1.641a12.943,12.943,0,0,1,2.486,15.431l.928.928H48v2H43.586L42.38,35.794a12.953,12.953,0,0,1-17.7,2.94L22.414,41H18V39h3.586l1.533-1.533A12.981,12.981,0,0,1,32,15ZM10,14h8v2H10Zm0,4h2v2H10Zm0,22h6v2H10Z"></path><path d="M25.293,35.293l1.414,1.414-.579.579a10.917,10.917,0,0,0,12.351-.416l-1.427-1.427A8.991,8.991,0,0,1,23.059,29H21.051a10.971,10.971,0,0,0,3.481,7.054Z"></path><rect x="4" y="46" width="56" height="2"></rect><rect x="30" y="50" width="4" height="6"></rect></g></svg>