<svg xmlns="http://www.w3.org/2000/svg" viewBox="0 0 64 64" x="0px" y="0px"><g data-name="Vaccine-Covid 19-Syring-Drug-Coronavirus"><path d="M52,14H45V8h4a1,1,0,0,0,1-1V3a1,1,0,0,0-1-1H35a1,1,0,0,0-1,1V7a1,1,0,0,0,1,1h4v6H36.16A15,15,0,1,0,34,37.67V43a1,1,0,0,0,1,1h2v3a1,1,0,0,0,1,1h1V61a1.008,1.008,0,0,0,.71.96A.967.967,0,0,0,40,62a.984.984,0,0,0,.83-.45l4-6A.967.967,0,0,0,45,55V48h1a1,1,0,0,0,1-1V44h2a1,1,0,0,0,1-1V20h2a1,1,0,0,0,1-1V15A1,1,0,0,0,52,14ZM36,6V4H48V6Zm7,2v6H41V8ZM26,38A13,13,0,1,1,39,25,13.012,13.012,0,0,1,26,38ZM43,54.7l-2,3V48h2ZM45,46H39V44h6Zm3-24H46v2h2v2H46v2h2v2H44v2h4v2H46v2h2v2H46v2h2v2H36V36.15A14.851,14.851,0,0,0,40.12,20H48Zm3-4H39.26a15.5,15.5,0,0,0-1.29-2H51Z"></path><path d="M30.9,26h2.379a2,2,0,1,0,0-2H30.9a4.969,4.969,0,0,0-.732-1.753l1.687-1.687a1.941,1.941,0,0,0,1.924-.51h0a2,2,0,1,0-3.34-.9l-1.686,1.687A4.961,4.961,0,0,0,27,20.1V17.722a2,2,0,1,0-2,0V20.1a4.961,4.961,0,0,0-1.753.732l-1.686-1.687a2.04,2.04,0,1,0-1.415,1.414l1.687,1.687A4.969,4.969,0,0,0,21.1,24H18.722a2,2,0,1,0,0,2H21.1a4.969,4.969,0,0,0,.732,1.753L20.146,29.44a1.992,1.992,0,0,0-1.924.51h0a2,2,0,1,0,3.34.9l1.686-1.687A4.961,4.961,0,0,0,25,29.9v2.379a2,2,0,1,0,2,0V29.9a4.961,4.961,0,0,0,1.753-.732l1.686,1.687a2,2,0,1,0,1.415-1.413l-1.687-1.688A4.969,4.969,0,0,0,30.9,26ZM26,28a3,3,0,1,1,3-3A3,3,0,0,1,26,28Z"></path><rect x="25" y="24" width="2" height="2"></rect></g></svg>