<svg xmlns="http://www.w3.org/2000/svg" viewBox="0 0 64 64" x="0px" y="0px"><g><path d="M45,50H19v1a5.006,5.006,0,0,0,5,5H40a5.006,5.006,0,0,0,5-5ZM34,54H30V52h4Z"></path><rect x="19" y="16" width="26" height="32"></rect><path d="M45,13a5.006,5.006,0,0,0-5-5H24a5.006,5.006,0,0,0-5,5v1H45ZM25,12H23V10h2Zm8,0H27V10h6Z"></path><path d="M52,32a3,3,0,0,0-3-3v6A3,3,0,0,0,52,32Z"></path><path d="M56,32a7.008,7.008,0,0,0-7-7v2a5,5,0,0,1,0,10v2A7.008,7.008,0,0,0,56,32Z"></path><path d="M60,32A11.013,11.013,0,0,0,49,21v2a9,9,0,0,1,0,18v2A11.013,11.013,0,0,0,60,32Z"></path><path d="M12,32a3,3,0,0,0,3,3V29A3,3,0,0,0,12,32Z"></path><path d="M4,32A11.013,11.013,0,0,0,15,43V41a9,9,0,0,1,0-18V21A11.013,11.013,0,0,0,4,32Z"></path><path d="M8,32a7.008,7.008,0,0,0,7,7V37a5,5,0,0,1,0-10V25A7.008,7.008,0,0,0,8,32Z"></path></g></svg>