<svg xmlns="http://www.w3.org/2000/svg" viewBox="0 0 64 64" x="0px" y="0px"><g><rect x="34" y="12" width="16" height="4"></rect><circle cx="44" cy="42" r="1"></circle><path d="M50,5a1,1,0,0,0-1-1H34v6H50Z"></path><path d="M44,37a5,5,0,0,0-5,5c0,2.57,3.15,6.53,5,8.55,1.85-2.02,5-5.98,5-8.55A5,5,0,0,0,44,37Zm0,8a3,3,0,1,1,3-3A3.009,3.009,0,0,1,44,45Z"></path><path d="M44,32A12,12,0,1,0,56,44,12.01,12.01,0,0,0,44,32Zm.71,20.71a1.014,1.014,0,0,1-1.42,0C42.65,52.06,37,46.29,37,42a7,7,0,0,1,14,0C51,46.29,45.35,52.06,44.71,52.71Z"></path><rect x="22" y="4" width="10.001" height="18"></rect><path d="M34,18v4a2.006,2.006,0,0,1-2,2H22a2.006,2.006,0,0,1-2-2V18H4V49a1,1,0,0,0,1,1H27.03A17.8,17.8,0,0,1,26,44,18.014,18.014,0,0,1,44,26a17.8,17.8,0,0,1,6,1.03V18ZM10,40h2v2H10Zm8,6H10V44h8Zm0-4H14V40h4Z"></path><path d="M44,28A16,16,0,1,0,60,44,16.021,16.021,0,0,0,44,28Zm0,30A14,14,0,1,1,58,44,14.015,14.015,0,0,1,44,58Z"></path><rect x="4" y="12" width="16" height="4"></rect><path d="M20,4H5A1,1,0,0,0,4,5v5H20Z"></path></g></svg>