<svg xmlns="http://www.w3.org/2000/svg" viewBox="0 0 64 64" x="0px" y="0px"><g><rect x="6" y="48" width="2" height="2"></rect><rect x="10" y="49" width="2" height="2"></rect><rect x="6" y="55" width="2" height="2"></rect><rect x="10" y="56" width="2" height="2"></rect><rect x="9" y="41" width="12" height="2"></rect><path d="M57,36H50V33a1,1,0,0,0-1-1H34.82A3.035,3.035,0,0,0,33,30.18V27.95a13,13,0,1,0-2,0v2.23A3.035,3.035,0,0,0,29.18,32H15a1,1,0,0,0-1,1v3.02C7.66,36.26,3,38.75,3,42V56c0,3.42,5.16,6,12,6s12-2.58,12-6V42c0-3.25-4.66-5.74-11-5.98V34H29.18a2.988,2.988,0,0,0,5.64,0H48v2H41a3.009,3.009,0,0,0-3,3V51a3.009,3.009,0,0,0,3,3h4v2.18A3.01,3.01,0,0,0,43,59v2a1,1,0,0,0,1,1H54a1,1,0,0,0,1-1V59a3.01,3.01,0,0,0-2-2.82V54h4a3.009,3.009,0,0,0,3-3V39A3.009,3.009,0,0,0,57,36ZM36.5,25.03a13.048,13.048,0,0,0,.88-1.62,9.1,9.1,0,0,1,.93.59A11.918,11.918,0,0,1,36.5,25.03Zm3.38-2.37a13,13,0,0,0-1.8-1.14A22.06,22.06,0,0,0,38.97,16h3.98A10.913,10.913,0,0,1,39.88,22.66ZM42.95,14H38.97a22.06,22.06,0,0,0-.89-5.52,13,13,0,0,0,1.8-1.14A10.913,10.913,0,0,1,42.95,14ZM38.31,6a9.1,9.1,0,0,1-.93.59,13.048,13.048,0,0,0-.88-1.62A11.918,11.918,0,0,1,38.31,6ZM33,4.27a6.363,6.363,0,0,1,2.54,3.14A10.456,10.456,0,0,1,33,7.95Zm0,5.68a12.632,12.632,0,0,0,3.23-.67A19.79,19.79,0,0,1,36.97,14H33ZM33,16h3.97a19.79,19.79,0,0,1-.74,4.72A12.632,12.632,0,0,0,33,20.05Zm0,6.05a10.456,10.456,0,0,1,2.54.54A6.363,6.363,0,0,1,33,25.73ZM25,56c0,1.89-4.28,4-10,4S5,57.89,5,56V52.41C7.11,53.99,10.73,55,15,55s7.89-1.01,10-2.59Zm0-7c0,1.89-4.28,4-10,4S5,50.89,5,49V45.41C7.11,46.99,10.73,48,15,48s7.89-1.01,10-2.59Zm0-7c0,1.89-4.28,4-10,4S5,43.89,5,42s4.28-4,10-4S25,40.11,25,42ZM31,4.27V7.95a10.456,10.456,0,0,1-2.54-.54A6.363,6.363,0,0,1,31,4.27Zm0,5.68V14H27.03a19.79,19.79,0,0,1,.74-4.72A12.632,12.632,0,0,0,31,9.95ZM27.5,4.97a13.048,13.048,0,0,0-.88,1.62A9.1,9.1,0,0,1,25.69,6,11.918,11.918,0,0,1,27.5,4.97ZM24.12,7.34a13,13,0,0,0,1.8,1.14A22.06,22.06,0,0,0,25.03,14H21.05A10.913,10.913,0,0,1,24.12,7.34ZM21.05,16h3.98a22.06,22.06,0,0,0,.89,5.52,13,13,0,0,0-1.8,1.14A10.913,10.913,0,0,1,21.05,16Zm4.64,8a9.1,9.1,0,0,1,.93-.59,13.048,13.048,0,0,0,.88,1.62A11.918,11.918,0,0,1,25.69,24Zm1.34-8H31v4.05a12.632,12.632,0,0,0-3.23.67A19.79,19.79,0,0,1,27.03,16Zm1.43,6.59A10.456,10.456,0,0,1,31,22.05v3.68A6.363,6.363,0,0,1,28.46,22.59ZM32,34a1,1,0,1,1,1-1A1,1,0,0,1,32,34ZM53,60H45V59a1,1,0,0,1,1-1h6a1,1,0,0,1,1,1Zm-6-4V54h4v2Zm11-5a1,1,0,0,1-1,1H41a1,1,0,0,1-1-1V50H58Zm0-3H40V39a1,1,0,0,1,1-1H57a1,1,0,0,1,1,1Z"></path><rect x="14" y="28" width="2" height="2"></rect><rect x="18" y="28" width="2" height="2"></rect><rect x="22" y="28" width="2" height="2"></rect><rect x="48" y="28" width="2" height="2"></rect><rect x="44" y="28" width="2" height="2"></rect><rect x="40" y="28" width="2" height="2"></rect></g></svg>