<svg xmlns="http://www.w3.org/2000/svg" viewBox="0 0 64 64" x="0px" y="0px"><g data-name="Planing-Worker-Hand-Thumb up-Document"><rect x="50" y="28" width="2" height="15"></rect><polygon points="53 50.538 53.683 49 52.317 49 53 50.538"></polygon><polygon points="51.428 47 54.572 47 55.461 45 50.539 45 51.428 47"></polygon><rect x="20" y="10" width="24" height="4"></rect><rect x="54" y="28" width="2" height="15"></rect><polygon points="38 52 44 52 44 50 40 50 40 48 44 48 44 46 42 46 42 44 44 44 44 42 42 42 42 40 44 40 44 38 40 38 40 36 44 36 44 34 42 34 42 32 44 32 44 30 42 30 42 28 44 28 44 26 40 26 40 24 44 24 44 22 38 22 38 52"></polygon><path d="M58.75,12,53,5.61V11a1,1,0,0,0,1,1Z"></path><path d="M19,35a1,1,0,0,0-1,1v3a.984.984,0,0,1-.2.6l-3,4a1.014,1.014,0,0,1-.8.4H12V54h2a1,1,0,0,1,.45.11L18.24,56H27a1,1,0,0,0,0-2H26a1,1,0,0,1,0-2h2a1,1,0,0,0,0-2H26a1,1,0,0,1,0-2h3a1,1,0,0,0,0-2H26a1,1,0,0,1,0-2h3a1,1,0,0,0,0-2H21a1,1,0,0,1-1-1V36A1,1,0,0,0,19,35Z"></path><rect x="4" y="43" width="6" height="12"></rect><rect x="50" y="22" width="6" height="4"></rect><path d="M60,14H54a3.009,3.009,0,0,1-3-3V4H17a3.009,3.009,0,0,0-3,3V41.33l2-2.66V36a3,3,0,0,1,6,0v4h7a3.009,3.009,0,0,1,3,3,2.965,2.965,0,0,1-.77,2A2.965,2.965,0,0,1,32,47a3,3,0,0,1-1.39,2.53A2.934,2.934,0,0,1,31,51a3,3,0,0,1-1.39,2.53A2.934,2.934,0,0,1,30,55a3.009,3.009,0,0,1-3,3H18a1,1,0,0,1-.45-.11L14,56.12V57a3.009,3.009,0,0,0,3,3H57a3.009,3.009,0,0,0,3-3ZM32,30H18V28H32Zm0-4H18V24H32Zm0-4H18V20H32ZM46,53a1,1,0,0,1-1,1H37a1,1,0,0,1-1-1V21a1,1,0,0,1,1-1h8a1,1,0,0,1,1,1Zm0-38a1,1,0,0,1-1,1H19a1,1,0,0,1-1-1V9a1,1,0,0,1,1-1H45a1,1,0,0,1,1,1ZM58,44a1,1,0,0,1-.086.406l-4,9a1,1,0,0,1-1.828,0l-4-9A1,1,0,0,1,48,44V21a1,1,0,0,1,1-1h8a1,1,0,0,1,1,1Z"></path></g></svg>