<svg xmlns="http://www.w3.org/2000/svg" viewBox="0 0 64 64" x="0px" y="0px"><g><path d="M61.288,22.494A2.99,2.99,0,0,0,58.332,20H46V13a1,1,0,0,0-.293-.707l-10-10A1,1,0,0,0,35,2H5A3,3,0,0,0,2,5V59a3,3,0,0,0,3,3H43a3,3,0,0,0,3-3V38H58.332a2.99,2.99,0,0,0,2.956-2.494A43.7,43.7,0,0,0,62,29,43.7,43.7,0,0,0,61.288,22.494ZM36,5.414,42.586,12H37a1,1,0,0,1-1-1ZM44,59a1,1,0,0,1-1,1H5a1,1,0,0,1-1-1V5A1,1,0,0,1,5,4H34v7a3,3,0,0,0,3,3h7v6a3,3,0,0,0-3,3v1H16a1,1,0,0,0-.707.293l-3,3a1,1,0,0,0-.15,1.222l3,5a1,1,0,0,0,1.564.192l3.185-3.185L22.2,33.6a1,1,0,0,0,.729.4.982.982,0,0,0,.778-.291L26,31.414l2.293,2.293a1,1,0,0,0,1.414,0L33,30.414l1.293,1.293A1,1,0,0,0,35,32h2.382l.723,1.447A1,1,0,0,0,39,34h2v1a3,3,0,0,0,3,3ZM41,32H39.618L38.9,30.553A1,1,0,0,0,38,30H35.414l-1.707-1.707a1,1,0,0,0-1.414,0L29,31.586l-2.293-2.293a1,1,0,0,0-1.414,0l-2.185,2.185L20.8,28.4a1,1,0,0,0-1.507-.107L16.2,31.387l-1.939-3.232L16.414,26H41Zm18.317,3.17a1,1,0,0,1-.985.83H44a1,1,0,0,1-1-1V23a1,1,0,0,1,1-1H58.332a1,1,0,0,1,.985.831A43.154,43.154,0,0,1,60,29,43.185,43.185,0,0,1,59.317,35.17Z"></path><path d="M55,26a3,3,0,1,0,3,3A3,3,0,0,0,55,26Zm0,4a1,1,0,1,1,1-1A1,1,0,0,1,55,30Z"></path><path d="M30.832,38.972a11.13,11.13,0,0,1-6.33-1.437,1,1,0,0,0-1,0,10.526,10.526,0,0,1-6.3,1.43,1,1,0,0,0-1.008.574,13.021,13.021,0,0,0,7.476,17.714,1,1,0,0,0,.664,0A13,13,0,0,0,33,45a12.856,12.856,0,0,0-1.192-5.451A1,1,0,0,0,30.832,38.972ZM24,55.244A11.029,11.029,0,0,1,17.743,41,13.051,13.051,0,0,0,24,39.541,13.086,13.086,0,0,0,30.253,41,11.017,11.017,0,0,1,24,55.244Z"></path><path d="M23,47.586l-1.293-1.293-1.414,1.414,2,2a1,1,0,0,0,1.414,0l5-5-1.414-1.414Z"></path><rect x="11" y="8" width="6" height="2"></rect><rect x="19" y="8" width="8" height="2"></rect><rect x="11" y="12" width="16" height="2"></rect><rect x="11" y="18" width="24" height="2"></rect></g></svg>