<svg xmlns="http://www.w3.org/2000/svg" viewBox="0 0 64 64" x="0px" y="0px"><g data-name="Clock in"><path d="M32,56A12,12,0,1,0,20,44,12.013,12.013,0,0,0,32,56ZM24,43h5.184A3,3,0,0,1,31,41.184V36h2v5.184A2.993,2.993,0,1,1,29.184,45H24Z"></path><rect x="20" y="8" width="6" height="6"></rect><circle cx="13" cy="56" r="1"></circle><circle cx="13" cy="32" r="1"></circle><circle cx="51" cy="56" r="1"></circle><circle cx="32" cy="44" r="1"></circle><path d="M10,60H54a1,1,0,0,0,1-1V29a1,1,0,0,0-1-1H10a1,1,0,0,0-1,1V59A1,1,0,0,0,10,60ZM51,29a3,3,0,1,1-3,3A3,3,0,0,1,51,29Zm0,24a3,3,0,1,1-3,3A3,3,0,0,1,51,53ZM32,30A14,14,0,1,1,18,44,14.015,14.015,0,0,1,32,30ZM13,29a3,3,0,1,1-3,3A3,3,0,0,1,13,29Zm0,24a3,3,0,1,1-3,3A3,3,0,0,1,13,53Z"></path><circle cx="51" cy="32" r="1"></circle><path d="M48,4H16V26H48ZM32,8h4v2H32ZM18,15V7a1,1,0,0,1,1-1h8a1,1,0,0,1,1,1v8a1,1,0,0,1-1,1H19A1,1,0,0,1,18,15Zm12,9H24V22h6Zm0-4H24V18h6Zm14,4H34V22H44Zm0-4H34V18H44Zm2-6H32V12H46Zm0-4H38V8h8Z"></path></g></svg>