<svg xmlns="http://www.w3.org/2000/svg" viewBox="0 0 64 64" x="0px" y="0px"><g data-name="Phone-Heart-Call-Medical-Medical Assistance"><path d="M39.621,42.207a3,3,0,0,0-4.242,0L30.1,47.491a4.984,4.984,0,0,1-5.719.971,15.083,15.083,0,0,1-6.838-6.838,4.982,4.982,0,0,1,.971-5.719l5.284-5.284a3,3,0,0,0,0-4.242l-8.99-8.99a3,3,0,0,0-4.4.163A27,27,0,0,0,19.887,59.61,27.049,27.049,0,0,0,48.448,55.6a2.977,2.977,0,0,0,1.044-2.144,3.025,3.025,0,0,0-.881-2.26Zm-27.7-23.362a.964.964,0,0,1,.7-.339h.042a1.022,1.022,0,0,1,.721.3l8.99,8.99a1,1,0,0,1,0,1.414L20,31.586,9.96,21.546A24.786,24.786,0,0,1,11.925,18.845Zm8.786,38.944a25,25,0,0,1-12.5-12.5,24.957,24.957,0,0,1,.7-21.963L18.586,33,17.1,34.491a6.982,6.982,0,0,0-1.352,8.016,17.115,17.115,0,0,0,7.75,7.75,6.984,6.984,0,0,0,8.016-1.352L33,47.414l9.676,9.676a24.956,24.956,0,0,1-21.965.7Zm26.444-3.714a24.786,24.786,0,0,1-2.7,1.965L34.414,46l2.379-2.379a1,1,0,0,1,1.414,0l8.99,8.99a1.024,1.024,0,0,1,.3.763A.964.964,0,0,1,47.155,54.075Z"></path><path d="M46.9,9.34a3.971,3.971,0,0,0-2.827,1.173L44,10.586l-.073-.073A3.971,3.971,0,0,0,41.1,9.34a4.026,4.026,0,0,0-2.827,1.173,4,4,0,0,0,0,5.654l5.02,5.021a1,1,0,0,0,1.414,0l5.02-5.021a4,4,0,0,0,0-5.653A4.027,4.027,0,0,0,46.9,9.34Zm1.412,5.413L44,19.066l-4.313-4.313a2,2,0,0,1,0-2.827A2.012,2.012,0,0,1,41.1,11.34a1.986,1.986,0,0,1,1.413.587l.78.78a1,1,0,0,0,1.414,0l.78-.78a2.052,2.052,0,0,1,2.825,0,2,2,0,0,1,0,2.826Z"></path><path d="M55,2H33a5.006,5.006,0,0,0-5,5V23a5.006,5.006,0,0,0,5,5h1v5a1,1,0,0,0,1.6.8L43.333,28H55a5.006,5.006,0,0,0,5-5V7A5.006,5.006,0,0,0,55,2Zm3,21a3,3,0,0,1-3,3H43a1,1,0,0,0-.6.2L36,31V27a1,1,0,0,0-1-1H33a3,3,0,0,1-3-3V7a3,3,0,0,1,3-3H55a3,3,0,0,1,3,3Z"></path></g></svg>