<svg xmlns="http://www.w3.org/2000/svg" viewBox="0 0 64 64" x="0px" y="0px"><g data-name="Profit-Money-Hand-Coin-money Tree"><path d="M50,35V33a1,1,0,0,0-1-1H48v2H46V32H44v2H42V32H40v2H38V32H37a1,1,0,0,0-1,1v2a1,1,0,0,0,1,1H49A1,1,0,0,0,50,35Z"></path><path d="M42,41V39a1,1,0,0,0-1-1H40v2H38V38H36v2H34V38H32v2H30V38H29a1,1,0,0,0-1,1v2a1,1,0,0,0,1,1H41A1,1,0,0,0,42,41Z"></path><path d="M58,41V39a1,1,0,0,0-1-1H56v2H54V38H52v2H50V38H48v2H46V38H45a1,1,0,0,0-1,1v2a1,1,0,0,0,1,1H57A1,1,0,0,0,58,41Z"></path><path d="M22.91,57a1.408,1.408,0,0,1,.2.01l12.78,1.42a14.956,14.956,0,0,0,9.16-1.92l13.63-7.88a1.986,1.986,0,0,0,.73-2.73,2,2,0,0,0-2.73-.73L46.01,51.33a4.982,4.982,0,0,1-2.5.67H33V50H43a2,2,0,0,0,0-4H36a.937.937,0,0,1-.37-.07l-3.21-1.29A9.149,9.149,0,0,0,29.07,44h-1.3a9,9,0,0,0-4.63,1.28l-2.63,1.58A1,1,0,0,1,20,47H2V58.991Z"></path><path d="M43,14a8,8,0,1,0,8,8A8.011,8.011,0,0,0,43,14Zm-1,7h2a3,3,0,0,1,0,6v1H42V27a3,3,0,0,1-3-3h2a1,1,0,0,0,1,1h2a1,1,0,0,0,0-2H42a3,3,0,0,1,0-6V16h2v1a3,3,0,0,1,3,3H45a1,1,0,0,0-1-1H42a1,1,0,0,0,0,2Z"></path><path d="M50.21,2.46a5.99,5.99,0,0,0-6.53,3.78L43,8l-.68-1.76a5.99,5.99,0,0,0-6.53-3.78l-1.87.3.68,1.76a5.983,5.983,0,0,0,6.53,3.77L42,8.155V12h2V8.155l.87.135A5.983,5.983,0,0,0,51.4,4.52l.68-1.76Z"></path></g></svg>