<svg xmlns="http://www.w3.org/2000/svg" viewBox="0 0 64 64" x="0px" y="0px"><g data-name="Unprotect Sex"><path d="M52.192,37.192a12.982,12.982,0,0,0-8.232-22.14A11.983,11.983,0,0,0,34.934,4.371a3,3,0,0,0-5.868,0A11.984,11.984,0,0,0,20,16V56H17a1,1,0,0,0-1,1v4a1,1,0,0,0,1,1H47a1,1,0,0,0,1-1V57a1,1,0,0,0-1-1H44V40.947A12.931,12.931,0,0,0,52.192,37.192Zm-1.414-1.414a11.01,11.01,0,0,1-14.813.672L51.45,20.965A11.01,11.01,0,0,1,50.778,35.778ZM43,17.005a10.972,10.972,0,0,1,7.035,2.545L34.55,35.035A10.991,10.991,0,0,1,43,17.005Zm3,43H18V58H46ZM22,56V16a9.986,9.986,0,0,1,8.2-9.829A1.089,1.089,0,0,0,31,5a1,1,0,0,1,2-.01c0,.013-.011.091-.013.1A1,1,0,0,0,33.8,6.171a9.985,9.985,0,0,1,8.152,8.885A12.984,12.984,0,0,0,42,40.947V56Z"></path></g></svg>