<svg xmlns="http://www.w3.org/2000/svg" viewBox="0 0 64 64" x="0px" y="0px"><g><path d="M55,4a3,3,0,0,0-3,3v5h6V7a2.994,2.994,0,0,0-3-3Z"></path><path d="M33,25H31a3,3,0,0,0-3,3v1h8V28A3,3,0,0,0,33,25Z"></path><path d="M28,40a3,3,0,0,0,3,3h2a3,3,0,0,0,3-3V31H28Z"></path><path d="M6,52v5a3,3,0,0,0,3,3H43a4.989,4.989,0,0,1-1-3V52Z"></path><path d="M50,7a4.983,4.983,0,0,1,.094-.928c.018-.095.047-.185.07-.278a5.086,5.086,0,0,1,.186-.6c.039-.1.081-.194.126-.29a5.02,5.02,0,0,1,.288-.53c.052-.084.1-.169.159-.249.028-.041.049-.086.079-.125H17.11A3.115,3.115,0,0,0,14,7.11V50H43a1,1,0,0,1,1,1v6a3,3,0,0,0,6,0ZM18,8h2v2H18ZM41,33a1,1,0,0,1,.707.293l2,2-1.414,1.414L40.586,35H38v3h3a1,1,0,0,1,.707.293l2,2-1.414,1.414L40.586,40H38a5.006,5.006,0,0,1-5,5H31a5.006,5.006,0,0,1-5-5H23.414l-1.707,1.707-1.414-1.414,2-2A1,1,0,0,1,23,38h3V35H23.414l-1.707,1.707-1.414-1.414,2-2A1,1,0,0,1,23,33h3V30H23a1,1,0,0,1-.707-.293l-2-2,1.414-1.414L23.414,28H26a5,5,0,0,1,3-4.576v-2.01l-1.707-1.707,1.414-1.414,2,2A1,1,0,0,1,31,21v2h2V21a1,1,0,0,1,.293-.707l2-2,1.414,1.414L35,21.414v2.01A5,5,0,0,1,38,28h2.586l1.707-1.707,1.414,1.414-2,2A1,1,0,0,1,41,30H38v3Zm5-19H18V12H46Zm0-4H22V8H46Z"></path></g></svg>