<svg xmlns="http://www.w3.org/2000/svg" viewBox="0 0 64 64" x="0px" y="0px"><g><path d="M55,2H27a3,3,0,0,0-3,3V21a3,3,0,0,0,3,3h8v5a1,1,0,0,0,1.707.707L42.414,24H55a3,3,0,0,0,3-3V5A3,3,0,0,0,55,2Zm1,19a1,1,0,0,1-1,1H42a1,1,0,0,0-.707.293L37,26.586V23a1,1,0,0,0-1-1H27a1,1,0,0,1-1-1V5a1,1,0,0,1,1-1H55a1,1,0,0,1,1,1Z"></path><path d="M32,34H28V32a8,8,0,0,0-16,0v2H8a2.006,2.006,0,0,0-2,2v2a2.006,2.006,0,0,0,2,2v2a12.014,12.014,0,0,0,9,11.61V56H16a3.009,3.009,0,0,0-3,3v2a1,1,0,0,0,1,1H26a1,1,0,0,0,1-1V59a3.009,3.009,0,0,0-3-3H23V53.61A12.014,12.014,0,0,0,32,42V40a2.006,2.006,0,0,0,2-2V36A2.006,2.006,0,0,0,32,34ZM14,40V38h4V36H14V34h4V32H14a6,6,0,0,1,12,0H22v2h4v2H22v2h4v2H22v2h4a6,6,0,0,1-12,0h4V40ZM8,36h4v2H8ZM24,58a1,1,0,0,1,1,1v1H15V59a1,1,0,0,1,1-1Zm-5-2V53.95c.33.03.66.05,1,.05s.67-.02,1-.05V56ZM30,42a10,10,0,0,1-20,0V40h2v2a8,8,0,0,0,16,0V40h2Zm2-4H28V36h4Z"></path><rect x="19" y="44" width="2" height="2"></rect><rect x="19" y="28" width="2" height="2"></rect><rect x="30" y="8" width="2" height="2"></rect><rect x="34" y="8" width="18" height="2"></rect><rect x="30" y="12" width="22" height="2"></rect><rect x="30" y="16" width="22" height="2"></rect></g></svg>