<svg xmlns="http://www.w3.org/2000/svg" viewBox="0 0 64 64" x="0px" y="0px"><g data-name="Speech Bubble"><path d="M55.252,22.955a1,1,0,0,1-.415-1A10.988,10.988,0,0,0,42.046,9.163a1.009,1.009,0,0,1-1-.415,10.989,10.989,0,0,0-18.09,0,1.01,1.01,0,0,1-1,.415A10.988,10.988,0,0,0,9.163,21.954a1,1,0,0,1-.415,1,10.989,10.989,0,0,0,0,18.09,1,1,0,0,1,.415,1c-.551,3.033-3.492,13.325-4.7,17.487,4.162-1.2,14.454-4.145,17.487-4.7a1.092,1.092,0,0,1,.179-.016,1,1,0,0,1,.822.431,10.989,10.989,0,0,0,18.09,0,1.007,1.007,0,0,1,1-.415A10.988,10.988,0,0,0,54.837,42.046a1,1,0,0,1,.415-1,10.989,10.989,0,0,0,0-18.09ZM25,22h2v2H25Zm-4,0h2v2H21Zm0,6H35v2H21Zm8,14H21V40h8Zm4,0H31V40h2Zm4,0H35V40h2Zm6,0H39V40h4Zm0-6H21V34H43Zm-6-6V28h2v2Zm6,0H41V28h2Zm0-6H29V22H43Z"></path></g></svg>