<svg xmlns="http://www.w3.org/2000/svg" viewBox="0 0 64 64" x="0px" y="0px"><title>Cupcake</title><g><path d="M47.155,38.45A8.992,8.992,0,0,0,40,24h-.726A7.987,7.987,0,0,0,36.4,10.368,4.973,4.973,0,0,0,37,8c0-2.6-3.688-5.3-4.428-5.82a1,1,0,0,0-1.144,0C30.688,2.7,27,5.4,27,8a4.973,4.973,0,0,0,.6,2.368A7.987,7.987,0,0,0,24.726,24H24a8.991,8.991,0,0,0-7.154,14.449,2.083,2.083,0,0,0-.228.2,2.006,2.006,0,0,0-.514,1.531l1.735,19.089A2.985,2.985,0,0,0,20.826,62H43.174a2.985,2.985,0,0,0,2.987-2.729L47.9,40.182a2.006,2.006,0,0,0-.514-1.531A1.966,1.966,0,0,0,47.155,38.45ZM29,8c0-1.017,1.6-2.665,3-3.756C33.4,5.335,35,6.983,35,8a2.935,2.935,0,0,1-.8,2.01c-.067,0-.132-.01-.2-.01H30c-.067,0-.132.008-.2.01A2.935,2.935,0,0,1,29,8ZM24,18a6.006,6.006,0,0,1,5.483-5.974h.009c.168-.014.337-.026.508-.026h4a6,6,0,0,1,0,12H30A6.006,6.006,0,0,1,24,18Zm0,8H40a6.99,6.99,0,0,1,4.884,12H19.1c-.016-.015-.033-.029-.048-.044A7,7,0,0,1,24,26ZM44.169,59.09a1,1,0,0,1-.995.91H39.117l1.877-16.89a1,1,0,0,0-.884-1.1,1.012,1.012,0,0,0-1.1.884L37.1,60H33V43a1,1,0,0,0-2,0V60H26.9l-1.9-17.11a1,1,0,0,0-1.988.22L24.883,60H20.826a1,1,0,0,1-1-.91L18.1,40H45.9Z"></path></g></svg>