<svg xmlns="http://www.w3.org/2000/svg" viewBox="0 0 64 64" x="0px" y="0px"><g><circle cx="38" cy="58" r="3"></circle><circle cx="11" cy="58" r="3"></circle><rect x="28" y="35" width="4" height="4"></rect><rect x="34" y="41" width="4" height="4"></rect><rect x="28" y="41" width="4" height="4"></rect><rect x="22" y="35" width="4" height="4"></rect><rect x="34" y="35" width="4" height="4"></rect><rect x="16" y="41" width="4" height="4"></rect><rect x="16" y="35" width="4" height="4"></rect><rect x="22" y="41" width="4" height="4"></rect><polygon points="14 45 14 41 8.057 41 8.826 45 14 45"></polygon><path d="M28.15,18.324A6,6,0,0,0,23.9,8,6.069,6.069,0,0,0,18,13.778a5.929,5.929,0,0,0,1.789,4.491A7.162,7.162,0,0,1,21.99,23h4.02A7.007,7.007,0,0,1,28.15,18.324ZM25,21H23V16.816A3,3,0,0,1,21,14h2a1,1,0,0,0,2,0h2a3,3,0,0,1-2,2.816Z"></path><rect x="22" y="25" width="4" height="2"></rect><polygon points="14 35 6.903 35 7.672 39 14 39 14 35"></polygon><polygon points="6.518 33 14 33 14 29 5.749 29 6.518 33"></polygon><path d="M59,3H51a1.955,1.955,0,0,0-1.41.59,1.911,1.911,0,0,0-.311.41H46a1,1,0,0,0-.9.553l-1,2A1,1,0,0,0,44,7V21H28.62a5.018,5.018,0,0,0-.58,2H30v2H28v2a2.006,2.006,0,0,1-2,2H22a2.006,2.006,0,0,1-2-2V25H18V23h1.96a4.935,4.935,0,0,0-.6-2H4.21l1.15,6H15a1,1,0,0,1,1,1v5H32V30h2v3h4V28h2v5h4v2H40v4h4v2H40v4h4v4H7a3,3,0,0,0,0,6H45V53H7a1,1,0,0,1,0-2H45a1,1,0,0,0,1-1V7.236L46.618,6h2.661A2,2,0,0,0,51,7h8a2.015,2.015,0,0,0,2-2A2.006,2.006,0,0,0,59,3Z"></path><rect x="23" y="2" width="2" height="2"></rect><rect x="17.5" y="3.473" width="2" height="2" transform="translate(0.241 9.848) rotate(-29.995)"></rect><rect x="13.474" y="7.5" width="2" height="2" transform="translate(-0.125 16.784) rotate(-59.998)"></rect><rect x="12" y="13" width="2" height="2"></rect><rect x="13.474" y="18.5" width="2" height="2" transform="translate(-7.81 9.847) rotate(-29.995)"></rect><rect x="32.526" y="18.5" width="2" height="2" transform="translate(-0.125 38.783) rotate(-59.998)"></rect><rect x="34" y="13" width="2" height="2"></rect><rect x="32.526" y="7.5" width="2" height="2" transform="translate(0.241 17.899) rotate(-29.995)"></rect><rect x="28.5" y="3.473" width="2" height="2" transform="translate(10.878 27.786) rotate(-60.005)"></rect></g></svg>