<svg xmlns="http://www.w3.org/2000/svg" viewBox="0 0 64 64" x="0px" y="0px"><g><rect x="51" y="54" width="2" height="2"></rect><rect x="51" y="58" width="2" height="2"></rect><path d="M57,10v2a3,3,0,0,1,3,3V45a3,3,0,0,1-3,3H29a5,5,0,0,0,0,10H43a2,2,0,0,0,2,2h4V54H45a2,2,0,0,0-2,2H29a3,3,0,0,1,0-6H57a5.006,5.006,0,0,0,5-5V15A5.006,5.006,0,0,0,57,10Z"></path><rect x="31" y="17" width="6" height="2"></rect><path d="M16,22H31a1,1,0,0,1,1,1v2H51V7H31A15.028,15.028,0,0,0,16,21.924C16,21.95,16,21.975,16,22ZM32,9H48a1,1,0,0,1,1,1V20a1,1,0,0,1-1,1H20.17a1,1,0,0,1-.986-1.165A12.95,12.95,0,0,1,32,9Z"></path><rect x="53" y="9" width="2" height="4"></rect><path d="M3.024,42H45V40H3.1C3.071,40.332,3.04,40.665,3.024,42Z"></path><path d="M3.4,38H45V27H31a1,1,0,0,1-1-1V24H13.184A21.077,21.077,0,0,0,3.4,38ZM39,34h4v2H39Zm-4,0h2v2H35Z"></path></g></svg>