<svg xmlns="http://www.w3.org/2000/svg" viewBox="0 0 64 64" x="0px" y="0px"><g><rect x="25" y="6" width="2" height="2"></rect><rect x="29" y="6" width="6" height="2"></rect><path d="M52.97,14.76,52,10.88V8a6,6,0,0,0-6-6H18a6,6,0,0,0-6,6v2.88l-.97,3.88A.986.986,0,0,0,11,15a4.939,4.939,0,0,0,1,2.97V56a6,6,0,0,0,6,6H46a6,6,0,0,0,6-6V17.97A4.939,4.939,0,0,0,53,15,.986.986,0,0,0,52.97,14.76ZM14,8a4,4,0,0,1,4-4H46a4,4,0,0,1,4,4v2H14Zm29,4v3a3,3,0,0,1-6,0V12Zm-8,0v3a3,3,0,0,1-6,0V12Zm-8,0v3a3,3,0,0,1-6,0V12ZM13,15.11,13.78,12H19v3a3,3,0,0,1-6,.11ZM50,56a4,4,0,0,1-4,4H18a4,4,0,0,1-4-4V19.58A4.941,4.941,0,0,0,16,20a4.994,4.994,0,0,0,4-2.03,4.956,4.956,0,0,0,8,0,4.956,4.956,0,0,0,8,0,4.956,4.956,0,0,0,8,0A4.994,4.994,0,0,0,48,20a4.941,4.941,0,0,0,2-.42ZM48,18a3.009,3.009,0,0,1-3-3V12h5.22L51,15.11A3,3,0,0,1,48,18Z"></path><path d="M16,23v2h1V56a1,1,0,0,0,1.58.81l2.22-1.58,2.23,1.58a.991.991,0,0,0,1.16,0l2.22-1.58,2.22,1.58a.991.991,0,0,0,1.16,0l2.22-1.58,2.21,1.58a1.006,1.006,0,0,0,1.17,0l2.22-1.58,2.21,1.58a1.006,1.006,0,0,0,1.17,0l2.21-1.58,2.22,1.58A.939.939,0,0,0,46,57a1.072,1.072,0,0,0,.46-.11A1,1,0,0,0,47,56V25h1V23ZM45,54.06l-1.21-.87a1.006,1.006,0,0,0-1.17,0l-2.21,1.58-2.22-1.58a1.006,1.006,0,0,0-1.17,0l-2.21,1.58-2.22-1.58a.991.991,0,0,0-1.16,0l-2.22,1.58-2.22-1.58a.991.991,0,0,0-1.16,0l-2.22,1.58-2.23-1.58A.939.939,0,0,0,20.8,53a.981.981,0,0,0-.58.19L19,54.06V25H45Z"></path><path d="M26,36H24a1,1,0,0,1-1-1H21a3,3,0,0,0,3,3v1h2V38a3,3,0,0,0,0-6H24a1,1,0,0,1,0-2h2a1,1,0,0,1,1,1h2a3,3,0,0,0-3-3V27H24v1a3,3,0,0,0,0,6h2a1,1,0,0,1,0,2Z"></path><rect x="31" y="36" width="8" height="2"></rect><rect x="41" y="36" width="2" height="2"></rect><rect x="31" y="32" width="8" height="2"></rect><rect x="41" y="32" width="2" height="2"></rect><rect x="31" y="28" width="8" height="2"></rect><rect x="41" y="28" width="2" height="2"></rect><rect x="21" y="41" width="2" height="2"></rect><rect x="25" y="41" width="2" height="2"></rect><rect x="29" y="41" width="2" height="2"></rect><rect x="33" y="41" width="2" height="2"></rect><rect x="37" y="41" width="2" height="2"></rect><rect x="41" y="41" width="2" height="2"></rect><rect x="21" y="46" width="6" height="2"></rect><rect x="29" y="46" width="2" height="2"></rect><rect x="33" y="46" width="6" height="2"></rect><rect x="41" y="46" width="2" height="2"></rect><rect x="21" y="50" width="6" height="2"></rect><rect x="29" y="50" width="2" height="2"></rect><rect x="33" y="50" width="6" height="2"></rect><rect x="41" y="50" width="2" height="2"></rect></g></svg>