<svg xmlns="http://www.w3.org/2000/svg" viewBox="0 0 64 64" x="0px" y="0px"><g><path d="M54,28.744V10a3,3,0,0,0-3-3H5a3,3,0,0,0-3,3V40a3,3,0,0,0,3,3H32.051A14.991,14.991,0,1,0,54,28.744ZM5,9H51a1,1,0,0,1,1,1v2.371L30.164,22.853a4.985,4.985,0,0,1-4.328,0L4,12.371V10A1,1,0,0,1,5,9ZM4,40V14.589L24.971,24.655a6.966,6.966,0,0,0,6.058,0L52,14.589V27.875A14.941,14.941,0,0,0,32.051,41H5A1,1,0,0,1,4,40ZM47,55A13,13,0,1,1,60,42,13.015,13.015,0,0,1,47,55Z"></path><rect x="10" y="47" width="2" height="2"></rect><rect x="14" y="47" width="10" height="2"></rect><path d="M8,36V34H6v2a3,3,0,0,0,3,3h2V37H9A1,1,0,0,1,8,36Z"></path><rect x="6" y="30" width="2" height="2"></rect><rect x="46" y="31" width="2" height="2"></rect><rect x="39.636" y="33.636" width="2" height="2" transform="translate(-12.589 38.879) rotate(-45)"></rect><rect x="37" y="40" width="2" height="2"></rect><rect x="52.364" y="33.636" width="2" height="2" transform="translate(-8.861 47.879) rotate(-45)"></rect><rect x="55" y="40" width="2" height="2"></rect><path d="M53,41a6,6,0,1,0-9.446,4.905,1.272,1.272,0,0,1,.11.095H42v2h2v2a1,1,0,0,0,1,1h4a1,1,0,0,0,1-1V48h2V46H50.347c.025-.021.037-.051.065-.07A6,6,0,0,0,53,41Zm-5,8H46V48h2Zm-2.084-3A2.994,2.994,0,0,0,44.7,44.269a4,4,0,1,1,4.569.017A2.945,2.945,0,0,0,48.083,46Z"></path><polygon points="49.447 41.895 48.553 40.105 47 40.882 45.447 40.105 44.553 41.895 46 42.618 46 44 48 44 48 42.618 49.447 41.895"></polygon></g></svg>