<svg xmlns="http://www.w3.org/2000/svg" viewBox="0 0 64 64" x="0px" y="0px"><g><path d="M13.089,56.954h0c.3.027.6.046.908.046H48c.309,0,.608-.009.908-.036a12,12,0,0,0,2.414-23.5c-.316-.093-.628-.166-.949-.231a1,1,0,0,1-.755-.674A7.972,7.972,0,0,0,42,27q-.318,0-.635.026A.982.982,0,0,1,40.4,26.5a14.008,14.008,0,0,0-26.117,9.32,1,1,0,0,1-.184.81,1.009,1.009,0,0,1-.733.391,10,10,0,0,0-.273,19.936Z"></path><path d="M38.266,20.757c.3.248.578.508.854.776.171.166.344.33.508.5.283.3.547.617.806.938.13.161.268.314.392.48A16.388,16.388,0,0,1,41.854,25H42c.091,0,.18.008.271.01.155,0,.31.007.463.018.065,0,.128.013.193.019.2.018.394.038.589.067l.045.008a9.921,9.921,0,0,1,6.2,3.565l.016.019c.117.144.226.3.334.447.039.054.08.105.118.159.085.124.164.254.243.383.055.087.112.172.164.261.065.112.123.228.184.342s.12.221.175.336.095.213.142.32.1.217.146.329A9,9,0,0,0,37.309,19.99c.133.1.253.208.384.308C37.888,20.447,38.078,20.6,38.266,20.757Z"></path><rect x="43" y="9" width="2" height="4"></rect><rect x="32.394" y="13.394" width="2" height="4" transform="translate(-1.104 28.121) rotate(-45)"></rect><rect x="57" y="25" width="4" height="2"></rect><rect x="52.607" y="14.394" width="4" height="2" transform="translate(5.109 43.121) rotate(-45)"></rect></g></svg>