<svg xmlns="http://www.w3.org/2000/svg" viewBox="0 0 64 64" x="0px" y="0px"><title>Premium-Quality</title><g><path d="M59,2H5A3,3,0,0,0,2,5V21a3,3,0,0,0,3,3V58a4,4,0,0,0,4,4H55a4,4,0,0,0,4-4V24a3,3,0,0,0,3-3V5A3,3,0,0,0,59,2ZM57,58a2,2,0,0,1-2,2H9a2,2,0,0,1-2-2V24H18.06a14.054,14.054,0,0,0,1.28,4.929L13.574,38.92a1,1,0,0,0,.748,1.493l7.134.85,4.3,5.756a1,1,0,0,0,.8.4l.059,0a1,1,0,0,0,.807-.5L32,38.988l4.574,7.932a1,1,0,0,0,.807.5l.059,0a1,1,0,0,0,.8-.4l4.3-5.756,7.134-.85a1,1,0,0,0,.748-1.493L44.66,28.929A14.054,14.054,0,0,0,45.94,24H57ZM20.479,30.956c.008.01.016.019.023.029.264.379.549.739.846,1.088.059.069.118.138.178.206q.445.5.932.957c.062.057.125.112.188.168.339.3.688.6,1.053.867l.037.027c.367.269.75.514,1.141.746.073.043.144.088.218.129q.575.327,1.178.6c.083.037.167.072.25.108.415.176.836.338,1.267.474.044.014.089.024.133.038q.627.191,1.273.32c.064.013.126.029.19.041a13.469,13.469,0,0,0,1.348.179c.029,0,.057.009.086.012l.027.045-4.395,7.617L22.8,39.722a1,1,0,0,0-.683-.4l-6.054-.721Zm12.7,5.987c.029,0,.058-.01.087-.012q.673-.06,1.334-.182c.078-.015.155-.034.233-.05.43-.089.855-.194,1.273-.322.035-.011.07-.019.105-.03.434-.137.857-.3,1.274-.479.083-.035.166-.069.248-.106q.6-.271,1.178-.6c.076-.043.15-.089.225-.133.392-.233.777-.479,1.146-.75l.042-.033c.361-.266.7-.554,1.039-.855.06-.054.122-.107.182-.163q.488-.453.931-.955c.06-.068.119-.138.178-.207.3-.347.58-.7.842-1.082.007-.01.016-.019.024-.03l4.415,7.65-6.054.721a1,1,0,0,0-.683.4l-3.651,4.883-4.4-7.617Zm9.472-8.414a12.029,12.029,0,0,1-10.173,6.456C32.32,35,32.152,35,32,35s-.307,0-.46-.014c-.027,0-.049,0-.078,0a11.987,11.987,0,1,1,11.19-6.452ZM60,21a1,1,0,0,1-1,1H45.949a13.984,13.984,0,0,0-27.9,0H5a1,1,0,0,1-1-1V5A1,1,0,0,1,5,4H59a1,1,0,0,1,1,1Z"></path><path d="M32,12A11,11,0,1,0,43,23,11.013,11.013,0,0,0,32,12Zm0,20a9,9,0,1,1,9-9A9.01,9.01,0,0,1,32,32Z"></path></g></svg>