<svg xmlns="http://www.w3.org/2000/svg" viewBox="0 0 64 64" x="0px" y="0px"><g data-name="Power Off-Shutdown-Smartphone-Mobile-App"><path d="M32,38a6,6,0,0,0,3.6-10.8,1,1,0,0,0-1.2,1.6,4,4,0,1,1-4.8,0,1,1,0,1,0-1.2-1.6A6,6,0,0,0,32,38Z"></path><path d="M32,32a1,1,0,0,0,1-1V25a1,1,0,0,0-2,0v6A1,1,0,0,0,32,32Z"></path><path d="M44,2H20a7.008,7.008,0,0,0-7,7V31.152l-6.238,10.8A16.893,16.893,0,0,0,4.586,52.332L5.673,62.11l1.987-.22L6.574,52.111a14.9,14.9,0,0,1,1.92-9.16L13,35.15V48.123l-.563.975,1.733,1,5-8.66a2,2,0,1,1,3.465,2l-3.5,6.062a1,1,0,0,0-.063.871l1.285,3.212A8.967,8.967,0,0,1,21,56.926v1.3a8.968,8.968,0,0,1-.664,3.393l1.852.754c.051-.124.087-.252.133-.377H44a7.009,7.009,0,0,0,7-7V9A7.009,7.009,0,0,0,44,2ZM20,4H44a5.006,5.006,0,0,1,5,5v1H15V9A5.006,5.006,0,0,1,20,4Zm2,28A10,10,0,1,1,32,42,10.011,10.011,0,0,1,22,32Zm2.366,12.438a3.961,3.961,0,0,0,.428-2.865,11.963,11.963,0,1,0-2.8-2.97,4,4,0,0,0-4.553,1.835L15,44.659V12H49V52H21.877l-.768-1.921ZM44,60H22.846A10.985,10.985,0,0,0,23,58.23v-1.3A10.954,10.954,0,0,0,22.6,54H49v1A5.006,5.006,0,0,1,44,60Z"></path><rect x="25" y="6" width="2" height="2"></rect><rect x="29" y="6" width="6" height="2"></rect><rect x="30" y="56" width="4" height="2"></rect><path d="M17,15v4h2V16h3V14H18A1,1,0,0,0,17,15Z"></path><rect x="17" y="21" width="2" height="2"></rect></g></svg>