<svg xmlns="http://www.w3.org/2000/svg" viewBox="0 0 64 64" x="0px" y="0px"><g data-name="Credit Card"><rect x="6.766" y="44.331" width="6" height="12" transform="translate(-16.624 6.375) rotate(-19.999)"></rect><rect x="14.223" y="39.253" width="8" height="16" transform="translate(-15.062 9.082) rotate(-19.999)"></rect><path d="M37.732,51,59.15,38.634a1.983,1.983,0,0,0,1-1.734,2,2,0,0,0-3-1.731l-9.193,5.306A3.992,3.992,0,0,1,44,44H33V42H44a2,2,0,0,0,2-2,1.691,1.691,0,0,0-.116-.644,1.915,1.915,0,0,0-.471-.769A1.983,1.983,0,0,0,44,38H29.259l-6.668,3.71L25.972,51Z"></path><path d="M45,22a1.968,1.968,0,0,0-1.3.486,3.946,3.946,0,0,1,0,3.028A1.968,1.968,0,0,0,45,26a2,2,0,0,0,0-4Z"></path><circle cx="40" cy="24" r="2"></circle><rect x="17" y="12" width="6" height="4"></rect><path d="M53,9a3,3,0,0,0-3-3H14a3,3,0,0,0-3,3V29a3,3,0,0,0,3,3H50a3,3,0,0,0,3-3ZM43,11h2v4H43Zm-4,0h2v4H39ZM15,11a1,1,0,0,1,1-1h8a1,1,0,0,1,1,1v6a1,1,0,0,1-1,1H16a1,1,0,0,1-1-1ZM25,22v2H23V22Zm-4,0v2H19V22Zm-6,0h2v2H15Zm14,6H15V26H29Zm0-4H27V22h2Zm6-13h2v4H35ZM45,28a3.986,3.986,0,0,1-2.51-.894,4,4,0,1,1,0-6.212A4,4,0,1,1,45,28Zm4-13H47V11h2Z"></path></g></svg>