<svg xmlns="http://www.w3.org/2000/svg" viewBox="0 0 64 64" x="0px" y="0px"><g><path d="M4,31.029H2V60a1,1,0,0,0,1,1H22V59H4Z"></path><rect x="9" y="34" width="2" height="2"></rect><rect x="13" y="34" width="8" height="2"></rect><rect x="9" y="38" width="12" height="2"></rect><rect x="9" y="42" width="12" height="2"></rect><rect x="9" y="46" width="12" height="2"></rect><path d="M46,58a1,1,0,0,0,1-1V29a1,1,0,0,0-1-1H28a1,1,0,0,0-1,1v1H25V29a1,1,0,0,0-1-1H6a1,1,0,0,0-1,1V57a1,1,0,0,0,1,1H23v1a3,3,0,0,0,6,0V58ZM29,30H45V56H29ZM7,56V30H23V56Zm20,3a1,1,0,0,1-2,0V32h2Z"></path><path d="M48,59H30v2H49a1,1,0,0,0,1-1V31.029H48Z"></path><rect x="39" y="34" width="4" height="2"></rect><rect x="31" y="34" width="6" height="2"></rect><rect x="31" y="38" width="12" height="2"></rect><rect x="31" y="42" width="12" height="2"></rect><rect x="31" y="46" width="12" height="2"></rect><rect x="9" y="50" width="12" height="2"></rect><rect x="31" y="50" width="12" height="2"></rect><path d="M59,2H25a3,3,0,0,0-3,3V26h2V5a1,1,0,0,1,1-1H51v7a1,1,0,0,0,1.707.707L54,10.414l1.293,1.293A1,1,0,0,0,57,11V4h2a1,1,0,0,1,1,1V53a1,1,0,0,1-1,1H52v2h7a3,3,0,0,0,3-3V5A3,3,0,0,0,59,2ZM55,8.586l-.293-.293a1,1,0,0,0-1.414,0L53,8.586V4h2Z"></path><rect x="28" y="8" width="4" height="2"></rect><rect x="34" y="8" width="8" height="2"></rect><rect x="28" y="12" width="14" height="2"></rect><rect x="28" y="18" width="22" height="2"></rect><rect x="52" y="18" width="4" height="2"></rect><rect x="28" y="22" width="28" height="2"></rect><rect x="52" y="32" width="4" height="2"></rect><rect x="52" y="36" width="4" height="2"></rect><rect x="52" y="40" width="4" height="2"></rect><rect x="52" y="44" width="4" height="2"></rect><rect x="52" y="48" width="4" height="2"></rect><rect x="7" y="24" width="2" height="2"></rect><rect x="7" y="20" width="2" height="2"></rect><path d="M9,9h3V7H8A1,1,0,0,0,7,8V18H9Z"></path><rect x="14" y="7" width="2" height="2"></rect><rect x="18" y="7" width="2" height="2"></rect><rect x="18" y="24" width="2" height="2"></rect><rect x="18" y="20" width="2" height="2"></rect><rect x="18" y="16" width="2" height="2"></rect></g></svg>