<svg xmlns="http://www.w3.org/2000/svg" viewBox="0 0 64 64" x="0px" y="0px"><g data-name="Credit Card"><path d="M30.493,37.376a1.985,1.985,0,0,0-.248,2.81L36,47.05V40.833l-2.695-3.21A2.051,2.051,0,0,0,30.493,37.376Z"></path><rect x="41" y="54" width="12" height="6"></rect><rect x="10" y="10" width="8.001" height="6"></rect><path d="M56,41v8a3.009,3.009,0,0,1-3,3H41a3.009,3.009,0,0,1-3-3V26a2,2,0,0,1,4,0V39h2V36h3v3h2V36h2a5.468,5.468,0,0,1,1,.1V40h2V37.03A4.952,4.952,0,0,1,56,41Z"></path><path d="M51,10a2.977,2.977,0,0,0-1.679.53,4.832,4.832,0,0,1,0,4.94A2.994,2.994,0,1,0,51,10Z"></path><circle cx="45" cy="13" r="3"></circle><path d="M57,4H7A3.009,3.009,0,0,0,4,7V38a3.009,3.009,0,0,0,3,3H28.37a4.01,4.01,0,0,1-.58-2.45,4,4,0,0,1,7.05-2.21L36,37.72V26.17a4.115,4.115,0,0,1,3.609-4.151A4,4,0,0,1,44,26v8h7a7,7,0,0,1,6.92,6H58a2,2,0,0,0,2-2V7A3.009,3.009,0,0,0,57,4ZM8,10a2.006,2.006,0,0,1,2-2h8a2.006,2.006,0,0,1,2,2v6a2.006,2.006,0,0,1-2,2H10a2.006,2.006,0,0,1-2-2Zm4,15V23h4v2Zm2,6v2H12V31Zm2,0h2v2H16ZM8,31h2v2H8Zm14,6H8V35H22Zm0-4H20V31h2Zm0-8H18V23h4Zm6,0H24V23h4Zm6,0H30V23h4Zm14,7H46V30h2Zm4,0H50V30h2Zm0-7H48V23h4Zm4,7H54V30h2ZM51,18a4.948,4.948,0,0,1-3.01-1.02,5,5,0,1,1,0-7.96A4.948,4.948,0,0,1,51,8a5,5,0,0,1,0,10Z"></path></g></svg>