<svg xmlns="http://www.w3.org/2000/svg" viewBox="0 0 64 64" x="0px" y="0px"><g><polygon points="25 56 29 56 29 44.743 25 43.54 25 56"></polygon><path d="M34,43V37.618L28.553,34.9A1,1,0,0,1,28,34V29H20.5L15,36.333V42h1.434l2.709-4.515A1,1,0,0,1,20,37h2a1.006,1.006,0,0,1,.555.168L24,38.132V36h2v4a4.953,4.953,0,0,1-.3,1.661L30.147,43Z"></path><polygon points="47 16 45 16 45 16.586 45.414 17 46.586 17 47 16.586 47 16"></polygon><path d="M20.566,39l-2.709,4.515A1,1,0,0,1,17,44H15V60h4V44a1,1,0,0,1,1-1h1a3,3,0,0,0,2.949-2.5L21.7,39Z"></path><path d="M58.535,19H60V17.236l-1.9-3.789A1,1,0,0,1,58,13V8.277L55.434,4h-2.02L52.32,5.094,54.8,8.4A1,1,0,0,1,55,9v4.7Z"></path><path d="M52,60V29.414l-.293.293A1,1,0,0,1,51,30H40a1,1,0,0,1-.769-.36L36,25.762V28a1,1,0,0,1-1,1H30v4.382L35.447,36.1A1,1,0,0,1,36,37V60h4V44a1,1,0,0,1,1-1,3,3,0,0,0,3-3V39h2v1a4.948,4.948,0,0,1-1.026,3H47a1,1,0,0,1,1,1V60Z"></path><path d="M7,39h6V37H4.171A3.006,3.006,0,0,0,7,39Z"></path><path d="M54,19.414,50.586,16H49v1a1,1,0,0,1-.293.707l-1,1A1,1,0,0,1,47,19v1.586L48.414,22h1.172L50,21.586V20h2v2a1,1,0,0,1-.293.707l-1,1A1,1,0,0,1,50,24a3,3,0,0,1-3,3H45a3,3,0,0,1-3-3,1,1,0,0,1-.707-.293l-1-1A1,1,0,0,1,40,22V20h2v1.586l.414.414h1.172L45,20.586V19a1,1,0,0,1-.707-.293l-1-1A1,1,0,0,1,43,17V16h-.68L36,20.515v2.123L40.469,28H50.586L54,24.586Z"></path><path d="M51.707,14.293,53,15.586V9.333L50.5,6H38.618L36,11.236v6.821l5.419-3.871A1,1,0,0,1,42,14h9A1,1,0,0,1,51.707,14.293ZM43,12H41V10h2Zm6-2h2v2H49Z"></path><path d="M44,24a1,1,0,0,0,1,1h2a1,1,0,0,0,1-1,1,1,0,0,1-.707-.293L46,22.414l-1.293,1.293A1,1,0,0,1,44,24Z"></path><path d="M34.414,4,30,8.414v4.6a1,1,0,0,1-.293.708L28,15.426V23h1.435l2.714-4.515A1,1,0,0,1,33.007,18H34V11a1,1,0,0,1,.1-.447l3-6c0-.008.01-.013.014-.02L36.586,4Z"></path></g></svg>