<svg xmlns="http://www.w3.org/2000/svg" viewBox="0 0 64 64" x="0px" y="0px"><g data-name="Business Bag-Commerce-Order-Business-Money"><path d="M52,13a1,1,0,0,0-1-1H5a1,1,0,0,0-1,1v1H52Z"></path><path d="M38,4.17V10h2V7A3.014,3.014,0,0,0,38,4.17Z"></path><path d="M25,24H45a3.009,3.009,0,0,0,3-3V16H22v5A3.009,3.009,0,0,0,25,24Z"></path><path d="M40,56a8,8,0,1,0-8-8A8.009,8.009,0,0,0,40,56Zm1-7H39a3,3,0,0,1,0-6V42h2v1a3,3,0,0,1,3,3H42a1,1,0,0,0-1-1H39a1,1,0,0,0,0,2h2a3,3,0,0,1,0,6v1H39V53a3,3,0,0,1-3-3h2a1,1,0,0,0,1,1h2a1,1,0,0,0,0-2Z"></path><path d="M23,60H57a3,3,0,1,0-3-3,1,1,0,0,1-2,0V36H28V57a1,1,0,0,1-2,0,3,3,0,1,0-3,3ZM40,38A10,10,0,1,1,30,48,10.011,10.011,0,0,1,40,38Z"></path><path d="M26,53V35a3,3,0,0,0-6,0V53a5,5,0,0,1,6,0Z"></path><path d="M54,53a5,5,0,0,1,6,0V35a3,3,0,0,0-6,0Z"></path><path d="M15,28H9a1,1,0,0,0-1,1V46h8V29A1,1,0,0,0,15,28ZM50,16V34h2V16ZM25,26a4.924,4.924,0,0,1-3-1.03V30.1a4.712,4.712,0,0,1,1-.1,5.017,5.017,0,0,1,4.9,4H48V24.97A4.924,4.924,0,0,1,45,26ZM4,16V45a1,1,0,0,0,1,1H6V29a3.009,3.009,0,0,1,3-3h6a3.009,3.009,0,0,1,3,3v6a5.01,5.01,0,0,1,2-4V16Zm14,6H16v2H14V22H6V20H18Z"></path><rect x="20" y="4" width="16" height="2"></rect><path d="M16,10h2V4.17A3.014,3.014,0,0,0,16,7Z"></path></g></svg>