<svg xmlns="http://www.w3.org/2000/svg" viewBox="0 0 64 64" x="0px" y="0px"><g><path d="M61,20a1,1,0,0,0,1-1V16a.984.984,0,0,0-.65-.93l-29-11a.941.941,0,0,0-.7,0l-29,11A.984.984,0,0,0,2,16v3a1,1,0,0,0,1,1H4v8H2v2H4V54H3a1,1,0,0,0-1,1v4a1,1,0,0,0,1,1H61a1,1,0,0,0,1-1V55a1,1,0,0,0-1-1H60V30h2V28H60V20ZM60,58H4V56H60ZM11,22V20h2v2h2V20h2v2h2V20h2v2h2V20h2v2h2V20h2v2h2V20h2v2h2V20h2v2h2V20h2v2h2V20h2v2h2V20h2v2h2V20h2v2h2V20h3v4H6V20H9v2Zm47,4v2H6V26ZM56,46V34h2V46Zm2,2v2H56V48ZM56,32V30h2v2Zm-2-2V50H50V30ZM46,46V34h2V46Zm2,2v2H46V48ZM46,32V30h2v2Zm-2-2V50H40V30ZM36,46V34h2V46Zm2,2v2H36V48ZM36,32V30h2v2Zm-2-2V50H30V30ZM26,46V34h2V46Zm2,2v2H26V48ZM26,32V30h2v2Zm-2-2V50H20V30ZM16,46V34h2V46Zm2,2v2H16V48ZM16,32V30h2v2Zm-2-2V50H10V30ZM8,30v2H6V30Zm0,4V46H6V34ZM8,48v2H6V48Zm50,4v2H6V52ZM4,18V16.69L32,6.07,60,16.69V18Z"></path></g></svg>