<svg xmlns="http://www.w3.org/2000/svg" viewBox="0 0 48 48" x="0px" y="0px"><g><path d="M37.777,26.977l-5.8,5.795c.006.076.018.151.018.228a3.015,3.015,0,0,1-3,3H18V34H29a.959.959,0,0,0,.693-.287A.977.977,0,0,0,30,33a.819.819,0,0,0-.039-.257h0c0-.011-.011-.02-.014-.031a.943.943,0,0,0-.334-.494A1.012,1.012,0,0,0,29,32H22.87a1,1,0,0,1-.969-.754A2.987,2.987,0,0,0,19,29H15a2.987,2.987,0,0,0-2.9,2.246c0,.014-.005.028-.008.042A2.642,2.642,0,0,0,12,32v8H27.586L41.2,26.391A3.009,3.009,0,0,0,37.777,26.977Z"></path><path d="M10,42V28H6V42ZM7,30H9v2H7Z"></path><path d="M24,6a9,9,0,1,0,9,9A9.01,9.01,0,0,0,24,6ZM19,16H17V14h2Zm9-3H26V12H22v2h4a2,2,0,0,1,2,2v2a2,2,0,0,1-2,2H25v2H23V20H22a2,2,0,0,1-2-2V17h2v1h4V16H22a2,2,0,0,1-2-2V12a2,2,0,0,1,2-2h1V8h2v2h1a2,2,0,0,1,2,2Zm1,3V14h2v2Z"></path></g></svg>