<svg xmlns="http://www.w3.org/2000/svg" viewBox="0 0 64 64" x="0px" y="0px"><g data-name="Drinking"><rect x="46" y="49" width="2" height="2" transform="translate(-21.589 47.879) rotate(-45)"></rect><rect x="52" y="41" width="2" height="2"></rect><rect x="44" y="37" width="2" height="2"></rect><rect x="53" y="32" width="2" height="2" transform="translate(-7.518 47.849) rotate(-45)"></rect><path d="M52,8.414V26.459c.579-.052,1.237-.086,2-.094V10a1,1,0,0,1,.293-.707L57.586,6,56,4.414Z"></path><path d="M36,22.644V19a1,1,0,0,1,1-1h6.91A6.126,6.126,0,0,0,44,17a6,6,0,1,0-8,5.644Z"></path><path d="M56,26.409a20.179,20.179,0,0,1,3.911.621l.089.021V20H56Z"></path><rect x="10" y="4" width="16.001" height="4"></rect><rect x="10" y="29" width="16" height="20"></rect><path d="M6,56H30V25.333L24.2,17.6A1,1,0,0,1,24,17V10H12v7a1,1,0,0,1-.2.6L6,25.333ZM8,28a1,1,0,0,1,1-1H27a1,1,0,0,1,1,1V50a1,1,0,0,1-1,1H9a1,1,0,0,1-1-1Z"></path><path d="M4,59a1,1,0,0,0,1,1H60a1,1,0,0,0,1-1V58H4Z"></path><path d="M38,26.894q.282.065.559.132a18.6,18.6,0,0,0,5.1.614,18.661,18.661,0,0,0,5.107-.613c.395-.094.8-.189,1.233-.277V20H38Z"></path><path d="M43.66,29.64a20.547,20.547,0,0,1-5.569-.67L38,28.949V35.7l1.832,2.748a1,1,0,0,1,.162.445L41.9,56h14.21l1.9-17.11a1,1,0,0,1,.162-.445L60,35.7V29.106l-.557-.131a18.65,18.65,0,0,0-5.113-.615,18.611,18.611,0,0,0-5.1.612A20.619,20.619,0,0,1,43.66,29.64ZM47,31h2v2H47Zm-7,3V32h2v2Zm2,6V36a1,1,0,0,1,1-1h4a1,1,0,0,1,1,1v4a1,1,0,0,1-1,1H43A1,1,0,0,1,42,40Zm1,3h2v2H43Zm7.536,7.707-2.829,2.829a1,1,0,0,1-1.414,0l-2.829-2.829a1,1,0,0,1,0-1.414l2.829-2.829a1,1,0,0,1,1.414,0l2.829,2.829A1,1,0,0,1,50.536,50.707ZM54,50H52V48h2ZM50.464,32.293l2.829-2.829a1,1,0,0,1,1.414,0l2.829,2.829a1,1,0,0,1,0,1.414l-2.829,2.829a1,1,0,0,1-1.414,0l-2.829-2.829A1,1,0,0,1,50.464,32.293ZM50,40a1,1,0,0,1,1-1h4a1,1,0,0,1,1,1v4a1,1,0,0,1-1,1H51a1,1,0,0,1-1-1Z"></path></g></svg>