<svg xmlns="http://www.w3.org/2000/svg" viewBox="0 0 64 64" x="0px" y="0px"><g><circle cx="45" cy="59" r="2"></circle><circle cx="35" cy="59" r="2"></circle><path d="M49,47V31H32.117L33.9,47ZM35,34a1,1,0,0,1,1-1H46a1,1,0,0,1,1,1V44a1,1,0,0,1-1,1H36a1,1,0,0,1-1-1Z"></path><rect x="37" y="35" width="1" height="2"></rect><path d="M45,39H44a1,1,0,0,1-1,1H39a1,1,0,0,1-1-1H37v4h8Z"></path><rect x="40" y="35" width="2" height="3"></rect><rect x="10" y="18" width="10" height="8"></rect><rect x="44" y="35" width="1" height="2"></rect><path d="M53,8H52V22H50V12.03H4V49a1,1,0,0,0,1,1H29v2H8v1a1,1,0,0,0,1,1H30a3.009,3.009,0,0,1,3-3H49V49H33a.989.989,0,0,1-.99-.89l-2-18a1,1,0,0,1,.24-.78A1.022,1.022,0,0,1,31,29H49V27a1,1,0,0,1,.11-.45l1-2A.988.988,0,0,1,51,24h1.18A3.01,3.01,0,0,1,54,22.18V9A1,1,0,0,0,53,8ZM26,16h4v2H26ZM8,17a1,1,0,0,1,1-1H21a1,1,0,0,1,1,1V27a1,1,0,0,1-1,1H9a1,1,0,0,1-1-1ZM26,46H8V44H26Zm0-4H8V40H26Zm0-4H8V36H26Zm0-4H8V32H26Zm16-8H26V24H42Zm0-4H26V20H42Zm0-4H32V16H42Z"></path><path d="M50,5a1,1,0,0,0-1-1H5A1,1,0,0,0,4,5v5.032H50ZM10,8H8V6h2Zm4,0H12V6h2Zm4,0H16V6h2Z"></path><path d="M55,26h4a1,1,0,0,0,0-2H55a1,1,0,0,0,0,2Z"></path><path d="M54,27.82V53a1,1,0,0,1-1,1H52v1H33a1,1,0,0,1,0-2H50a1,1,0,0,0,1-1V27.24L51.62,26h.56A3.01,3.01,0,0,0,54,27.82Z"></path></g></svg>