<svg xmlns="http://www.w3.org/2000/svg" viewBox="0 0 64 64" x="0px" y="0px"><g data-name="Capsule Hostel"><rect x="35" y="52" width="10" height="2"></rect><rect x="35" y="40" width="10" height="2"></rect><rect x="35" y="48" width="10" height="2"></rect><rect x="35" y="44" width="10" height="2"></rect><path d="M59.707,36H47V55.64A28.009,28.009,0,0,0,59.707,36Z"></path><path d="M60,32H4c0,.673.032,1.339.079,2H59.926C59.973,33.337,60,32.671,60,32Z"></path><path d="M35,56v2h9.847L45,57.921V56Z"></path><path d="M9,28a1,1,0,0,0,0,2h6a1,1,0,0,0,0-2Z"></path><path d="M35,60v.846A28.862,28.862,0,0,0,39.554,60Z"></path><path d="M23,28a1,1,0,0,0,0,2H55a1,1,0,0,0,0-2Z"></path><rect x="35" y="36" width="10" height="2"></rect><path d="M6.184,30A2.966,2.966,0,0,1,6,29a3,3,0,0,1,3-3h6a3,3,0,0,1,3,3,2.966,2.966,0,0,1-.184,1h2.368A2.966,2.966,0,0,1,20,29a3,3,0,0,1,3-3H55a3,3,0,0,1,3,3,2.966,2.966,0,0,1-.184,1h2.1A27.992,27.992,0,0,0,4.079,30Z"></path><path d="M32,60c.362,0,.691-.006,1-.018V36H4.29A28.039,28.039,0,0,0,32,60Z"></path><rect x="45" y="60" width="2" height="1"></rect></g></svg>