<svg xmlns="http://www.w3.org/2000/svg" viewBox="0 0 64 64" x="0px" y="0px"><g><path d="M8,42a3,3,0,1,0,3-3A3,3,0,0,0,8,42Zm4,0a1,1,0,1,1-1-1A1,1,0,0,1,12,42Z"></path><path d="M16,42a3,3,0,1,0,3-3A3,3,0,0,0,16,42Zm4,0a1,1,0,1,1-1-1A1,1,0,0,1,20,42Z"></path><rect x="28" y="41" width="2" height="2"></rect><path d="M8,26a3,3,0,1,0,3-3A3,3,0,0,0,8,26Zm4,0a1,1,0,1,1-1-1A1,1,0,0,1,12,26Z"></path><path d="M16,26a3,3,0,1,0,3-3A3,3,0,0,0,16,26Zm4,0a1,1,0,1,1-1-1A1,1,0,0,1,20,26Z"></path><rect x="28" y="25" width="2" height="2"></rect><rect x="32" y="25" width="2" height="2"></rect><rect x="36" y="25" width="2" height="2"></rect><rect x="40" y="25" width="2" height="2"></rect><path d="M14,10a3,3,0,1,0-3,3A3,3,0,0,0,14,10Zm-4,0a1,1,0,1,1,1,1A1,1,0,0,1,10,10Z"></path><path d="M19,13a3,3,0,1,0-3-3A3,3,0,0,0,19,13Zm0-4a1,1,0,1,1-1,1A1,1,0,0,1,19,9Z"></path><rect x="28" y="9" width="2" height="2"></rect><rect x="32" y="9" width="2" height="2"></rect><rect x="36" y="9" width="2" height="2"></rect><rect x="40" y="9" width="2" height="2"></rect><path d="M41,19V17A7,7,0,0,0,41,3H9A7,7,0,0,0,9,17v2A7,7,0,0,0,9,33v2A7,7,0,0,0,9,49H30V47H9A5,5,0,0,1,9,37H34a1,1,0,0,0,1-1V33h3V31H9A5,5,0,0,1,9,21H41a5,5,0,0,1,4.33,7.5l1.73,1A6.93,6.93,0,0,0,48,26,7.008,7.008,0,0,0,41,19ZM17,33H33v2H17Zm-6,0h4v2H11Zm4-14H11V17h4Zm18,0H17V17H33Zm6,0H35V17h4ZM9,15A5,5,0,0,1,9,5H41a5,5,0,0,1,0,10Z"></path><path d="M47,31A15,15,0,1,0,62,46,15.018,15.018,0,0,0,47,31Zm0,2A13.008,13.008,0,0,1,59.95,45H57.96a11.006,11.006,0,0,0-21.92,0H34.05A13.008,13.008,0,0,1,47,33Zm0,26A13.008,13.008,0,0,1,34.05,47H39V45h-.94a8.972,8.972,0,0,1,2.38-5.14l.9.9,1.42-1.42-.8-.79A8.907,8.907,0,0,1,46,37.06V38h2v-.94a8.907,8.907,0,0,1,4.04,1.49l-.8.79,1.42,1.42.9-.9A8.972,8.972,0,0,1,55.94,45H55v2h4.95A13.008,13.008,0,0,1,47,59Z"></path><path d="M47,48a3,3,0,0,0,3-3,2.951,2.951,0,0,0-.3-1.285l2.008-2.008-1.414-1.414L48.285,42.3A2.951,2.951,0,0,0,47,42a3,3,0,0,0,0,6Zm0-4a1,1,0,1,1-1,1A1,1,0,0,1,47,44Z"></path><path d="M51,50H43a1,1,0,0,0-1,1v4a1,1,0,0,0,1,1h8a1,1,0,0,0,1-1V51A1,1,0,0,0,51,50Zm-1,4H44V52h6Z"></path></g></svg>