<svg xmlns="http://www.w3.org/2000/svg" viewBox="0 0 64 64" x="0px" y="0px"><g><path d="M50.532,18.458A5.006,5.006,0,0,0,46,17.1V13a4.995,4.995,0,0,0-5-5,4.948,4.948,0,0,0-3,1.026V7A5,5,0,0,0,28,7V9.025A4.975,4.975,0,0,0,20,13v1.025A4.975,4.975,0,0,0,12,18V40a1,1,0,0,0,.105.447L17,50.236V52a1,1,0,0,0-1,1v8a1,1,0,0,0,1,1H45a1,1,0,0,0,1-1V53a1,1,0,0,0-1-1V50.291l6.844-10.754A1.012,1.012,0,0,0,52,39V22A5.014,5.014,0,0,0,50.532,18.458ZM44,60H18V54H44Zm6-21.291L43.156,49.463A1.012,1.012,0,0,0,43,50v2H19V50a1,1,0,0,0-.105-.447L14,39.764V18a3,3,0,1,1,6,0v3h2V13a3,3,0,1,1,6,0v4h2V7a3,3,0,1,1,6,0V19h2V13a3,3,0,1,1,6,0v5.026A4.977,4.977,0,0,0,42,22V33.061a7.766,7.766,0,0,0-4.128,1.814,6.715,6.715,0,0,0-1.043,1.038A7.9,7.9,0,0,0,35,41h2a5.918,5.918,0,0,1,1.373-3.816,4.884,4.884,0,0,1,.766-.763A5.872,5.872,0,0,1,43,35a1,1,0,0,0,1-1V22a3,3,0,1,1,6,0Z"></path><path d="M33.133,44H30.867l-.351-2.463a1,1,0,0,0-.744-.828,8.859,8.859,0,0,1-2.356-.975,1,1,0,0,0-1.11.06l-1.991,1.492-1.6-1.6,1.492-1.99a1,1,0,0,0,.061-1.111,8.923,8.923,0,0,1-.977-2.357,1,1,0,0,0-.827-.742L20,33.133V30.867l2.463-.352a1,1,0,0,0,.827-.742,8.923,8.923,0,0,1,.977-2.357,1,1,0,0,0-.061-1.111l-1.492-1.99,1.6-1.6,1.991,1.492a1,1,0,0,0,1.11.06,8.859,8.859,0,0,1,2.356-.975,1,1,0,0,0,.744-.828L30.867,20h2.266l.351,2.463a1,1,0,0,0,.744.828,8.859,8.859,0,0,1,2.356.975,1,1,0,0,0,1.11-.06l1.991-1.492.608.608,1.414-1.414-1.222-1.221a1,1,0,0,0-1.306-.093l-2.167,1.624a10.9,10.9,0,0,0-1.639-.678l-.383-2.682A1,1,0,0,0,34,18H30a1,1,0,0,0-.99.858l-.383,2.682a10.855,10.855,0,0,0-1.639.678l-2.167-1.624a1,1,0,0,0-1.306.093l-2.828,2.828a1,1,0,0,0-.093,1.307l1.625,2.166a10.86,10.86,0,0,0-.679,1.639l-2.682.383A1,1,0,0,0,18,30v4a1,1,0,0,0,.858.99l2.682.383a10.86,10.86,0,0,0,.679,1.639l-1.625,2.166a1,1,0,0,0,.093,1.307l2.828,2.828a1,1,0,0,0,1.306.093l2.167-1.624a10.855,10.855,0,0,0,1.639.678l.383,2.682A1,1,0,0,0,30,46h4a1,1,0,0,0,.99-.858l.475-3.322-1.981-.283Z"></path><path d="M32,26a6,6,0,1,0,6,6A6.006,6.006,0,0,0,32,26Zm0,10a4,4,0,1,1,4-4A4,4,0,0,1,32,36Z"></path><rect x="31" y="22" width="2" height="2"></rect><rect x="24.636" y="24.636" width="2" height="2" transform="translate(-10.619 25.636) rotate(-45)"></rect><rect x="22" y="31" width="2" height="2"></rect><rect x="24.636" y="37.364" width="2" height="2" transform="translate(-19.62 29.372) rotate(-45.01)"></rect><rect x="31" y="40" width="2" height="2"></rect><rect x="37.364" y="24.636" width="2" height="2" transform="translate(-6.891 34.636) rotate(-45)"></rect></g></svg>