<svg xmlns="http://www.w3.org/2000/svg" viewBox="0 0 64 64" x="0px" y="0px"><g><path d="M57,2H33a5.006,5.006,0,0,0-5,5V30H7a5.006,5.006,0,0,0-5,5V57a5.006,5.006,0,0,0,5,5H49a5.006,5.006,0,0,0,5-5V44h3a5.006,5.006,0,0,0,5-5V7A5.006,5.006,0,0,0,57,2ZM4,38H28v1a4.948,4.948,0,0,0,1.026,3H4Zm3-6H28v4H4V35A3,3,0,0,1,7,32ZM52,57a3,3,0,0,1-3,3H7a3,3,0,0,1-3-3V44H52Zm8-18a3,3,0,0,1-3,3H33a3,3,0,0,1-3-3V7a3,3,0,0,1,3-3H57a3,3,0,0,1,3,3Z"></path><path d="M53,6H37a5.006,5.006,0,0,0-5,5v4a5.006,5.006,0,0,0,5,5H53a5.006,5.006,0,0,0,5-5V11A5.006,5.006,0,0,0,53,6Zm3,9a3,3,0,0,1-3,3H37a3,3,0,0,1-3-3V11a3,3,0,0,1,3-3H53a3,3,0,0,1,3,3Z"></path><path d="M36,22a4,4,0,1,0,4,4A4,4,0,0,0,36,22Zm0,6a2,2,0,1,1,2-2A2,2,0,0,1,36,28Z"></path><path d="M45,22a4,4,0,1,0,4,4A4,4,0,0,0,45,22Zm0,6a2,2,0,1,1,2-2A2,2,0,0,1,45,28Z"></path><path d="M36,32a4,4,0,1,0,4,4A4,4,0,0,0,36,32Zm0,6a2,2,0,1,1,2-2A2,2,0,0,1,36,38Z"></path><path d="M45,32a4,4,0,1,0,4,4A4,4,0,0,0,45,32Zm0,6a2,2,0,1,1,2-2A2,2,0,0,1,45,38Z"></path><path d="M54,22a4,4,0,0,0-4,4V36a4,4,0,0,0,8,0V26A4,4,0,0,0,54,22Zm2,14a2,2,0,0,1-4,0V26a2,2,0,0,1,4,0Z"></path><path d="M37,58a4.991,4.991,0,0,0,3-1.007,5,5,0,1,0,0-7.986A5,5,0,1,0,37,58Zm6-8a3,3,0,1,1-1.669,5.489,5.02,5.02,0,0,0,.319-.676c.025-.062.043-.126.065-.189a5.022,5.022,0,0,0,.167-.6c.016-.075.032-.148.045-.224a4.437,4.437,0,0,0,0-1.6c-.013-.075-.029-.148-.045-.222a4.793,4.793,0,0,0-.168-.6c-.021-.062-.039-.125-.063-.186a5.038,5.038,0,0,0-.32-.677A2.986,2.986,0,0,1,43,50Zm-6,0a3.009,3.009,0,0,1,3,3,2.933,2.933,0,0,1-.065.592A3,3,0,1,1,37,50Z"></path><path d="M19,52H9a1,1,0,0,0,0,2H19a1,1,0,0,0,0-2Z"></path><path d="M19,56H9a1,1,0,0,0,0,2H19a1,1,0,0,0,0-2Z"></path></g></svg>