<svg xmlns="http://www.w3.org/2000/svg" viewBox="0 0 64 64" x="0px" y="0px"><g data-name="Computer"><path d="M60,40H4v1a3,3,0,0,0,3,3H57a3,3,0,0,0,3-3Zm-5.08,2.38a1.169,1.169,0,0,1-.21.33,1.014,1.014,0,0,1-1.42,0,1.169,1.169,0,0,1-.21-.33A.838.838,0,0,1,53,42a1,1,0,0,1,.08-.38,1.032,1.032,0,0,1,.21-.33,1.047,1.047,0,0,1,1.42,0,1.032,1.032,0,0,1,.21.33.942.942,0,0,1,0,.76Z"></path><rect x="16" y="18" width="32" height="8"></rect><path d="M16,34H48V28H16Zm26-5h4v4H42Zm-6,0h4v4H36Zm-6,0h4v4H30Zm-6,0h4v4H24Zm-6,0h4v4H18Z"></path><rect x="21" y="56" width="22" height="2"></rect><path d="M16,16H48V10H16Zm26-5h4v4H42Zm-6,0h4v4H36Zm-6,0h4v4H30Zm-6,0h4v4H24Zm-6,0h4v4H18Z"></path><polygon points="26.819 46 25.22 54 38.78 54 37.181 46 26.819 46"></polygon><path d="M60,9a3,3,0,0,0-3-3H7A3,3,0,0,0,4,9V38H60ZM50,35a1,1,0,0,1-1,1H15a1,1,0,0,1-1-1V9a1,1,0,0,1,1-1H49a1,1,0,0,1,1,1Z"></path></g></svg>