<svg xmlns="http://www.w3.org/2000/svg" viewBox="0 0 32 32" x="0px" y="0px"><title>Eye</title><g><path d="M29,2H25a2,2,0,0,0-2-2H21a2,2,0,0,0-2,2H13a2,2,0,0,0-2-2H9A2,2,0,0,0,7,2H3A3,3,0,0,0,0,5V29a3,3,0,0,0,3,3H18a1,1,0,0,0,0-2H3a1,1,0,0,1-1-1V10H30v8a1,1,0,0,0,2,0V5A3,3,0,0,0,29,2ZM2,8V5A1,1,0,0,1,3,4H7V5A1,1,0,0,0,9,5V2h2V5a1,1,0,0,0,2,0V4h6V5a1,1,0,0,0,2,0V2h2V5a1,1,0,0,0,2,0V4h4a1,1,0,0,1,1,1V8Z"></path><path d="M11,14a1,1,0,0,0-1-1H6a1,1,0,0,0-1,1v4a1,1,0,0,0,1,1h4a1,1,0,0,0,1-1ZM9,17H7V15H9Z"></path><path d="M14,19h4a1,1,0,0,0,1-1V14a1,1,0,0,0-1-1H14a1,1,0,0,0-1,1v4A1,1,0,0,0,14,19Zm1-4h2v2H15Z"></path><path d="M26,17a1,1,0,0,0,1-1V14a1,1,0,0,0-1-1H22a1,1,0,0,0-1,1v3a1,1,0,0,0,2,0V15h2v1A1,1,0,0,0,26,17Z"></path><path d="M10,21H6a1,1,0,0,0-1,1v4a1,1,0,0,0,1,1h4a1,1,0,0,0,1-1V22A1,1,0,0,0,10,21ZM9,25H7V23H9Z"></path><path d="M17,23a1,1,0,0,0,0-2H14a1,1,0,0,0-1,1v4a1,1,0,0,0,1,1h2a1,1,0,0,0,0-2H15V23Z"></path><path d="M25,22c-3.718,0-6.623,3.2-6.745,3.333a1,1,0,0,0,0,1.334C18.377,26.8,21.282,30,25,30s6.623-3.2,6.745-3.333a1,1,0,0,0,0-1.334C31.623,25.2,28.718,22,25,22Zm0,5a1,1,0,1,1,1-1A1,1,0,0,1,25,27Zm-2.715-2.256a2.91,2.91,0,0,0,0,2.512A10.156,10.156,0,0,1,20.45,26,10.055,10.055,0,0,1,22.285,24.744Zm5.431,2.512a2.919,2.919,0,0,0,0-2.512A10.117,10.117,0,0,1,29.549,26,10.032,10.032,0,0,1,27.716,27.256Z"></path></g></svg>