<svg xmlns="http://www.w3.org/2000/svg" viewBox="0 0 64 64" x="0px" y="0px"><g><rect x="36" y="20" width="4" height="4"></rect><rect x="36" y="26" width="4.001" height="4"></rect><path d="M57,42H7v3a3.009,3.009,0,0,0,3,3H54a3.009,3.009,0,0,0,3-3Zm-4,4H51V44h2Z"></path><rect x="36" y="32" width="4.001" height="4"></rect><rect x="30" y="20" width="4" height="4"></rect><polygon points="25.88 50 25.13 56 38.87 56 38.12 50 25.88 50"></polygon><path d="M40,8H24v6H40ZM29,12H27V10h2Zm4,0H31V10h2Zm4,0H35V10h2Z"></path><path d="M21,59a1,1,0,0,0,1,1H42a1,1,0,0,0,0-2H22A1,1,0,0,0,21,59Z"></path><path d="M7,40H18.18A3,3,0,0,1,18,39V12H10a3.009,3.009,0,0,0-3,3Z"></path><rect x="24" y="32" width="4" height="4"></rect><path d="M20,39a1,1,0,0,0,1,1H43a1,1,0,0,0,1-1V5a1,1,0,0,0-1-1H21a1,1,0,0,0-1,1ZM22,8a2,2,0,0,1,2-2H40a2,2,0,0,1,2,2v6a2,2,0,0,1-2,2H24a2,2,0,0,1-2-2Zm0,12a2,2,0,0,1,2-2H40a2,2,0,0,1,2,2V36a2,2,0,0,1-2,2H24a2,2,0,0,1-2-2Z"></path><path d="M57,15a3.009,3.009,0,0,0-3-3H46V39a3,3,0,0,1-.18,1H57Z"></path><rect x="24" y="26" width="4" height="4"></rect><rect x="30" y="32" width="4" height="4"></rect><rect x="30" y="26" width="4" height="4"></rect><rect x="24" y="20" width="4" height="4"></rect></g></svg>