<svg xmlns="http://www.w3.org/2000/svg" viewBox="0 0 64 64" x="0px" y="0px"><g data-name="Notification Time"><rect x="33" y="33" width="2" height="2" transform="translate(-14.083 34) rotate(-45)"></rect><path d="M34,8a25.915,25.915,0,0,0-4.7.438A14.981,14.981,0,0,1,8.438,29.3,25.995,25.995,0,1,0,34,8ZM21,33h9.758L33,30.758V19h2V30.758l2.535,2.535a1,1,0,0,1,0,1.414l-2.828,2.828a1,1,0,0,1-1.414,0L30.758,35H21ZM33,16V14h2v2Zm2,36v2H33V52ZM20.565,46.021l1.414,1.414L20.564,48.85,19.15,47.436ZM14,33h2v2H14ZM34,58A24.028,24.028,0,0,1,10,34c0-.35.007-.7.022-1.044l2,.088Q12,33.519,12,34A22,22,0,1,0,34,12q-.48,0-.956.021l-.088-2C33.3,10.007,33.65,10,34,10a24,24,0,0,1,0,48ZM47.435,46.021l1.415,1.415L47.436,48.85l-1.415-1.415ZM46.021,20.565l1.415-1.415,1.414,1.414-1.415,1.415ZM52,35V33h2v2Z"></path><path d="M20.605,19.447A5.772,5.772,0,0,1,20,16.882v-1.71a3.118,3.118,0,0,0-2.7-3.158A3,3,0,0,0,14,15v1.882a5.772,5.772,0,0,1-.605,2.565A3.76,3.76,0,0,0,13,21h8A3.76,3.76,0,0,0,20.605,19.447Z"></path><path d="M18,23H16a1,1,0,0,0,2,0Z"></path><path d="M30,17A13,13,0,1,0,17,30,13.015,13.015,0,0,0,30,17ZM14,23H12a1,1,0,0,1-1-1v-.882a5.772,5.772,0,0,1,.605-2.565A3.753,3.753,0,0,0,12,16.882V15a5.011,5.011,0,0,1,1.638-3.7,4.954,4.954,0,0,1,1.41-.873A2,2,0,1,1,19,10a2.031,2.031,0,0,1-.049.43A5.205,5.205,0,0,1,22,15.172v1.71a3.753,3.753,0,0,0,.395,1.671A5.772,5.772,0,0,1,23,21.118V22a1,1,0,0,1-1,1H20a3,3,0,0,1-6,0Z"></path></g></svg>