<svg xmlns="http://www.w3.org/2000/svg" viewBox="0 0 64 64" x="0px" y="0px"><g data-name="World Business"><path d="M34,9.058l-.183.019c-.11.012-.219.03-.328.046a16.765,16.765,0,0,0-1.5,3.416A10.12,10.12,0,0,0,34,12.947Z"></path><path d="M33.809,28.922l.191.02V25.053a10.08,10.08,0,0,0-2.011.409,16.763,16.763,0,0,0,1.5,3.415C33.6,28.893,33.7,28.91,33.809,28.922Z"></path><path d="M27.513,25.624a11.927,11.927,0,0,1,2.09-1.341A23.268,23.268,0,0,1,29.032,20H25.05A9.82,9.82,0,0,0,27.513,25.624Z"></path><path d="M31.478,23.523A12.111,12.111,0,0,1,34,23.053V20H31.032A21.4,21.4,0,0,0,31.478,23.523Z"></path><path d="M31.032,18H34V14.952a12,12,0,0,1-2.522-.473A21.294,21.294,0,0,0,31.032,18Z"></path><path d="M30.629,10.015q-.2.1-.4.207-.393.215-.766.466c-.11.073-.222.142-.33.22-.043.032-.081.07-.124.1a9.668,9.668,0,0,0,1.135.732q.309-.939.7-1.819C30.773,9.956,30.7,9.981,30.629,10.015Z"></path><path d="M29.136,27.093c.1.076.214.143.321.214.252.169.51.328.776.473.131.071.262.139.395.2.071.034.145.06.216.092a19.451,19.451,0,0,1-.7-1.819,10.111,10.111,0,0,0-1.135.732C29.053,27.022,29.092,27.061,29.136,27.093Z"></path><path d="M25.05,18h3.982a23.3,23.3,0,0,1,.571-4.283,11.854,11.854,0,0,1-2.09-1.341A9.819,9.819,0,0,0,25.05,18Z"></path><path d="M36,6V5H31.414L27.207,9.207a1,1,0,0,1-1.414,0L22.586,6H18a1,1,0,0,1-1-1V4H4V8H9a1,1,0,0,1,1,1v6a1,1,0,0,1-.293.707L6,19.414V24h7a1,1,0,0,1,.707.293l5,5A1,1,0,0,1,19,30v8.586L20.414,40H21V32a1,1,0,0,1,.293-.707l2.969-2.97.707.707,1.073-2.052a11.992,11.992,0,0,1,.72-16.7h0l0,0a11.954,11.954,0,0,1,4.1-2.535c.327-.121.658-.232,1-.324q.408-.111.827-.193a12.365,12.365,0,0,1,4.618,0,11.986,11.986,0,0,1,5.932,3.055A11.989,11.989,0,0,1,43.936,27H46V26h4a1,1,0,0,1,1,1V38.613l1.273,1.4L54,38.113V30.125a1,1,0,0,1,.293-.707L58,25.711V15a1,1,0,0,1,.316-.729L60,12.691V4H44V8H42V4H38V6Z"></path><path d="M42.487,12.376a11.927,11.927,0,0,1-2.09,1.341A23.268,23.268,0,0,1,40.968,18H44.95A9.82,9.82,0,0,0,42.487,12.376Z"></path><path d="M40.543,10.693c-.252-.169-.51-.328-.776-.473-.131-.071-.262-.139-.4-.2-.071-.034-.145-.06-.216-.092a19.451,19.451,0,0,1,.7,1.819,10.111,10.111,0,0,0,1.135-.732c-.043-.033-.082-.072-.126-.1C40.76,10.831,40.65,10.764,40.543,10.693Z"></path><path d="M40.4,24.283a11.854,11.854,0,0,1,2.09,1.341A9.819,9.819,0,0,0,44.95,20H40.968A23.3,23.3,0,0,1,40.4,24.283Z"></path><path d="M39.371,27.985q.2-.1.4-.207.393-.214.766-.466c.11-.073.222-.142.33-.22.043-.032.081-.07.124-.1a9.668,9.668,0,0,0-1.135-.732q-.309.939-.7,1.819C39.227,28.044,39.3,28.019,39.371,27.985Z"></path><path d="M36,23.053a12.087,12.087,0,0,1,2.522.47A21.332,21.332,0,0,0,38.968,20H36Z"></path><path d="M36,28.942l.19-.02c.107-.012.214-.029.321-.045a16.765,16.765,0,0,0,1.5-3.416A10.12,10.12,0,0,0,36,25.053Z"></path><path d="M36.332,9.1c-.111-.015-.221-.014-.332-.025v3.874a10.08,10.08,0,0,0,2.011-.409,16.763,16.763,0,0,0-1.5-3.415C36.451,9.114,36.391,9.105,36.332,9.1Z"></path><path d="M36,18h2.968a21.279,21.279,0,0,0-.446-3.522A11.945,11.945,0,0,1,36,14.952Z"></path><path d="M36,41a1,1,0,0,0,1-1V39a1,1,0,0,0-2,0v1A1,1,0,0,0,36,41Z"></path><path d="M39,60V47a1,1,0,0,1,.293-.707l7.42-7.42a.51.51,0,0,0,.012-.7A.513.513,0,0,0,46,38.163l-6.533,6.544A1,1,0,0,1,38.76,45H33.24a1,1,0,0,1-.707-.293l-6.54-6.55a.508.508,0,0,0-.706,0,.492.492,0,0,0-.147.363.484.484,0,0,0,.147.353l7.42,7.42A1,1,0,0,1,33,47V60h2V52h2v8Z"></path></g></svg>