<svg xmlns="http://www.w3.org/2000/svg" viewBox="0 0 64 64" x="0px" y="0px"><defs><style>.cls-1{fill:#231f20;}</style></defs><title>Crown</title><g><path class="cls-1" d="M59,12a3,3,0,0,0-3,3,2.972,2.972,0,0,0,.573,1.749L43.352,25.563,33.47,7.6a3,3,0,1,0-2.94,0L20.648,25.563,7.427,16.749A2.972,2.972,0,0,0,8,15a3,3,0,1,0-3,3c.059,0,.114-.014.173-.017L11.787,52H11a1,1,0,0,0-1,1v8a1,1,0,0,0,1,1H53a1,1,0,0,0,1-1V53a1,1,0,0,0-1-1h-.787l6.614-34.017c.059,0,.114.017.173.017a3,3,0,0,0,0-6ZM32,4a1,1,0,1,1-1,1A1,1,0,0,1,32,4ZM4,15a1,1,0,1,1,1,1A1,1,0,0,1,4,15ZM52,60H12V54H52Zm-1.824-8H13.824L7.438,19.161l13.007,8.671a1.008,1.008,0,0,0,.792.14,1,1,0,0,0,.639-.491L32,9.075,42.124,27.481a1,1,0,0,0,1.431.351l13.007-8.671ZM59,16a1,1,0,1,1,1-1A1,1,0,0,1,59,16Z"></path><path class="cls-1" d="M32,26A11,11,0,1,0,43,37,11.013,11.013,0,0,0,32,26Zm0,20a9,9,0,1,1,9-9A9.01,9.01,0,0,1,32,46Z"></path><path class="cls-1" d="M34.18,34l-1.229-3.78a1,1,0,0,0-1.9,0L29.82,34H25.845a1,1,0,0,0-.588,1.809l3.216,2.337-1.229,3.782a1,1,0,0,0,1.539,1.117L32,40.708l3.217,2.337a1,1,0,0,0,1.539-1.117l-1.229-3.782,3.216-2.337A1,1,0,0,0,38.155,34Zm-.78,4.072.5,1.546-1.314-.955a1,1,0,0,0-1.176,0l-1.314.955.5-1.546a1,1,0,0,0-.364-1.117L28.922,36h1.625a1,1,0,0,0,.951-.691l.5-1.545.5,1.545a1,1,0,0,0,.951.691h1.625l-1.314.955A1,1,0,0,0,33.4,38.072Z"></path><path class="cls-1" d="M14,13h2a4,4,0,0,1,4-4V7a4,4,0,0,1-4-4H14a4,4,0,0,1-4,4V9A4,4,0,0,1,14,13Zm-.687-5A6.049,6.049,0,0,0,15,6.313,6.049,6.049,0,0,0,16.687,8,6.049,6.049,0,0,0,15,9.687l-.009-.012a6.06,6.06,0,0,0-1.666-1.666Z"></path><path class="cls-1" d="M46,18h2a4,4,0,0,1,4-4V12a4,4,0,0,1-4-4H46a4,4,0,0,1-4,4v2A4,4,0,0,1,46,18Zm-.687-5A6.049,6.049,0,0,0,47,11.313,6.049,6.049,0,0,0,48.687,13,6.049,6.049,0,0,0,47,14.687l-.009-.012a6.06,6.06,0,0,0-1.666-1.666Z"></path></g></svg>