<svg xmlns="http://www.w3.org/2000/svg" viewBox="0 0 64 64" x="0px" y="0px"><path d="M52.163,43.407a12.913,12.913,0,0,0-3.858-1.723L39,39.229V36.106A14.029,14.029,0,0,0,45.668,27H46a4,4,0,0,0,4-4,3.962,3.962,0,0,0-1-2.618V19a17,17,0,0,0-34,0v1.382A3.962,3.962,0,0,0,14,23a4,4,0,0,0,4,4h.332A14.029,14.029,0,0,0,25,36.106v3.123l-9.3,2.455A12.99,12.99,0,0,0,6,54.25V61a1,1,0,0,0,1,1H57a1,1,0,0,0,1-1V54.25A12.94,12.94,0,0,0,52.163,43.407ZM33.278,50H30.722l-.814-2.446L32,47.031l2.092.523Zm-6.736-8.044,3.5,3.5-4.67,1.168Zm7.414,3.5,3.5-3.5,1.168,4.67ZM33,25a1,1,0,0,1-2,0V20h2ZM21,19H20v-.947c.287,0,.622-.011,1-.038Zm2-1h6v4H23Zm12,0h6v4H35Zm-1-2a1,1,0,0,0-1,1v1H31V17a1,1,0,0,0-1-1H27.905a22.8,22.8,0,0,0,5.151-3.663A38.4,38.4,0,0,0,38.573,16Zm9,1.75c.336.077.671.143,1,.185V19H43ZM46,25V21a2,2,0,0,1,0,4ZM32,4A15.017,15.017,0,0,1,47,19v.142A3.939,3.939,0,0,0,46,19V17a1,1,0,0,0-1-1c-4.569,0-11.282-5.7-11.35-5.76a1,1,0,0,0-1.357.053C25.766,16.82,19.4,16.047,19.142,16.01A1,1,0,0,0,18,17v2a3.939,3.939,0,0,0-1,.142V19A15.017,15.017,0,0,1,32,4ZM18,25a2,2,0,0,1,0-4v4Zm2-1V21h1v2a1,1,0,0,0,1,1h7v1a3,3,0,0,0,6,0V24h7a1,1,0,0,0,1-1V21h1v3a12,12,0,0,1-24,0ZM32,38a13.894,13.894,0,0,0,5-.939v2.525l-5,5-5-5V37.061A13.894,13.894,0,0,0,32,38ZM8,54.25a10.994,10.994,0,0,1,8.2-10.633L24.62,41.4l-1.59,6.36a1,1,0,0,0,1.212,1.212l3.72-.93,1,3.025L27.18,60H19V53H17v7H8ZM29.22,60l1.6-8h2.362l1.6,8ZM56,60H47V53H45v7H36.82l-1.787-8.935,1-3.025,3.72.93a1,1,0,0,0,1.212-1.212L39.38,41.4,47.8,43.617A11,11,0,0,1,56,54.25Z"></path><path d="M38.55,19.17a.568.568,0,0,0-.17-.09.609.609,0,0,0-.191-.06.922.922,0,0,0-.569.06,1.032,1.032,0,0,0-.33.21,1.035,1.035,0,0,0-.221,1.09,1.523,1.523,0,0,0,.221.33.99.99,0,0,0,1.09.21,1.169,1.169,0,0,0,.33-.21A.994.994,0,0,0,39,20a1.05,1.05,0,0,0-.29-.71A1,1,0,0,0,38.55,19.17Z"></path><path d="M25.62,19.08a.933.933,0,0,0-.33.21A1.045,1.045,0,0,0,25,20a.99.99,0,0,0,1,1,1,1,0,0,0,.38-.07,1.2,1.2,0,0,0,.33-.22A.994.994,0,0,0,27,20a1.05,1.05,0,0,0-.29-.71A1,1,0,0,0,25.62,19.08Z"></path><path d="M37.952,30.655l-1.51-1.31A5.992,5.992,0,0,1,32,31a5.992,5.992,0,0,1-4.442-1.655l-1.51,1.31A7.893,7.893,0,0,0,32,33,7.893,7.893,0,0,0,37.952,30.655Z"></path></svg>