<svg xmlns="http://www.w3.org/2000/svg" viewBox="0 0 64 64" x="0px" y="0px"><g data-name="Bell Boy-Avatar-Occupation-Woman-Hotel"><circle cx="56" cy="59" r="2"></circle><circle cx="48" cy="59" r="2"></circle><path d="M36,58.38V60h6V45.88a6.964,6.964,0,0,0-4.91-6.68l-9.9-3.09L24,38.5V60H34V58.38a4.907,4.907,0,0,1,.82-2.74A6.723,6.723,0,0,0,36,52a6.609,6.609,0,0,0-1.71-4.29l1.42-1.42A8.723,8.723,0,0,1,38,52a8.855,8.855,0,0,1-1.52,4.77A2.756,2.756,0,0,0,36,58.38ZM28,58H26V56h2Zm0-4H26V52h2Zm0-4H26V48h2Zm0-4H26V44h2Zm0-4H26V40h2Z"></path><path d="M10.59,20.41A1.983,1.983,0,0,0,12,21V17a2.006,2.006,0,0,0-2,2A1.983,1.983,0,0,0,10.59,20.41Z"></path><path d="M11.3,24.87a1,1,0,0,1,.64.75,1.012,1.012,0,0,1-.3.93A1.938,1.938,0,0,0,11,28a2,2,0,0,0,2.73,1.86,1.016,1.016,0,0,1,.82.02,1.053,1.053,0,0,1,.53.64A1.99,1.99,0,0,0,17,32a2.05,2.05,0,0,0,.94-.24A11.042,11.042,0,0,1,12.05,23H12a3.961,3.961,0,0,1-1.92-.51A1.7,1.7,0,0,0,10,23,1.991,1.991,0,0,0,11.3,24.87Z"></path><path d="M44,53a3.009,3.009,0,0,0,3,3H57a3.009,3.009,0,0,0,3-3V41a3.009,3.009,0,0,0-3-3H47a3.009,3.009,0,0,0-3,3ZM55,41h2V53H55Zm-4,0h2V53H51Zm-4,0h2V53H47Z"></path><path d="M34,21a2.015,2.015,0,0,0,2-2,2.006,2.006,0,0,0-2-2Z"></path><path d="M22,36V32.95a10.244,10.244,0,0,1-2-.38V34.5Z"></path><path d="M26,34.5V32.57a10.244,10.244,0,0,1-2,.38V36Z"></path><path d="M31,4H15a1,1,0,0,0-1,1v5H32V5A1,1,0,0,0,31,4Z"></path><path d="M29,14a3.014,3.014,0,0,0,2.83-2H14.17A3.014,3.014,0,0,0,17,14Z"></path><path d="M4,60h6V58.38a2.756,2.756,0,0,0-.48-1.61A8.855,8.855,0,0,1,8,52a8.723,8.723,0,0,1,2.29-5.71l1.42,1.42A6.609,6.609,0,0,0,10,52a6.723,6.723,0,0,0,1.18,3.64A4.907,4.907,0,0,1,12,58.38V60H22V38.5l-3.19-2.39L8.91,39.2A6.964,6.964,0,0,0,4,45.88ZM14,44h6v2H14Z"></path><path d="M33.95,23a11.042,11.042,0,0,1-5.89,8.76A2.05,2.05,0,0,0,29,32a1.99,1.99,0,0,0,1.92-1.48,1.053,1.053,0,0,1,.53-.64,1.016,1.016,0,0,1,.82-.02A2,2,0,0,0,35,28a1.938,1.938,0,0,0-.64-1.45,1.012,1.012,0,0,1-.3-.93,1,1,0,0,1,.64-.75A1.991,1.991,0,0,0,36,23a1.7,1.7,0,0,0-.08-.51A3.961,3.961,0,0,1,34,23Z"></path><path d="M32,22V14.97A4.924,4.924,0,0,1,29,16H17a4.924,4.924,0,0,1-3-1.03V22a9,9,0,0,0,18,0ZM17,19a2,2,0,1,1,2,2A2,2,0,0,1,17,19Zm6,8a4.994,4.994,0,0,1-3.307-1.25l1.323-1.5a3.076,3.076,0,0,0,3.968,0l1.323,1.5A4.994,4.994,0,0,1,23,27Zm4-6a2,2,0,1,1,2-2A2,2,0,0,1,27,21Z"></path><path d="M49,30a1,1,0,0,0-1,1v5h2V32h4v4h2V31a1,1,0,0,0-1-1Z"></path></g></svg>