<svg xmlns="http://www.w3.org/2000/svg" viewBox="0 0 64 64" x="0px" y="0px"><g data-name="Glass Cleaning"><path d="M57,22H54V5a3,3,0,0,0-3-3H3A1,1,0,0,0,2,3V61a1,1,0,0,0,1,1H61a1,1,0,0,0,1-1V27A5.006,5.006,0,0,0,57,22Zm3,5v6.184A2.966,2.966,0,0,0,59,33a3.009,3.009,0,0,0-1,.171V33a3,3,0,0,0-4-2.829V28a3,3,0,0,0-6,0v1.171A3,3,0,0,0,44,32v9.756L41.343,39.1a3.013,3.013,0,0,0-4.24,0,2.98,2.98,0,0,0-.883,2.117,3.033,3.033,0,0,0,.883,2.127L39.756,46H33a3,3,0,0,1-3-3V27a3,3,0,0,1,3-3H57A3,3,0,0,1,60,27ZM4,4H51a1,1,0,0,1,1,1V22H33a5.006,5.006,0,0,0-5,5V43a5.006,5.006,0,0,0,5,5h8.756L44,50.244V60H4ZM60,60H46V49.83a1,1,0,0,0-.293-.707l-7.181-7.181a1.038,1.038,0,0,1-.306-.721,1.006,1.006,0,0,1,1.713-.7l4.36,4.36A1,1,0,0,0,46,44.17V32a1,1,0,0,1,2,0V42a1,1,0,0,0,2,0V28a1,1,0,0,1,2,0V42a1,1,0,0,0,2,0V33a1,1,0,0,1,2,0V43a1,1,0,0,0,2,0V36a1,1,0,0,1,2,0V60Z"></path><path d="M15.707,7.293a1,1,0,0,0-1.414,0l-8,8a1,1,0,1,0,1.414,1.414l8-8A1,1,0,0,0,15.707,7.293Z"></path><path d="M13.707,17.707l10-10a1,1,0,1,0-1.414-1.414l-10,10a1,1,0,1,0,1.414,1.414Z"></path><path d="M23.707,49.293a1,1,0,0,0-1.414,0l-7,7a1,1,0,1,0,1.414,1.414l7-7A1,1,0,0,0,23.707,49.293Z"></path><path d="M29.293,49.293l-7,7a1,1,0,1,0,1.414,1.414l7-7a1,1,0,0,0-1.414-1.414Z"></path><path d="M15,37a3,3,0,0,1,3-3h3a1,1,0,0,0,1-1h0a1,1,0,0,0-1-1H18a5,5,0,0,0-5,5v7a1,1,0,0,0,1,1h0a1,1,0,0,0,1-1Z"></path><path d="M17,39v5a1,1,0,0,0,1,1h0a1,1,0,0,0,1-1V39a1,1,0,0,1,1-1h3a1,1,0,0,0,1-1h0a1,1,0,0,0-1-1H20A3,3,0,0,0,17,39Z"></path></g></svg>