<svg xmlns="http://www.w3.org/2000/svg" viewBox="0 0 64 64" x="0px" y="0px"><g><path d="M27.241,28.181,32,31.75l4.759-3.569a2.2,2.2,0,1,0-2.64-3.52L32.6,25.8a1,1,0,0,1-1.2,0l-1.519-1.139a2.2,2.2,0,0,0-2.64,3.52Z"></path><polygon points="22.414 4 18.414 8 45.586 8 41.586 4 22.414 4"></polygon><path d="M23,13h2a3,3,0,0,0,6,0h2a3,3,0,0,0,6,0h2a3,3,0,0,0,6,0V10H17v3a3,3,0,0,0,6,0Z"></path><path d="M3.835,24.516,7.594,45.831l4.546,4a.994.994,0,0,1,.325.581l.17.984,9.846-1.736-1.16-6.58-8.7-10.366a2,2,0,0,0-1.878-.688,3.049,3.049,0,0,0-.349.108,1.97,1.97,0,0,0-.616.352,2,2,0,0,0-.223,2.805l7.348,8.748-1.531,1.286-7.351-8.75a4.014,4.014,0,0,1,.493-5.638,4.567,4.567,0,0,1,.459-.313l-1.2-6.8a2.007,2.007,0,0,0-.828-1.294,1.978,1.978,0,0,0-1.5-.334A2,2,0,0,0,3.835,24.516Z"></path><rect x="11.427" y="52.45" width="14" height="6" transform="translate(-9.346 4.041) rotate(-9.997)"></rect><rect x="42.573" y="48.45" width="6" height="14" transform="translate(-16.947 90.703) rotate(-80.002)"></rect><path d="M59.837,23.019a2,2,0,0,0-3.609.8l-1.2,6.8a3.917,3.917,0,0,1,.947,5.95l-7.349,8.757L47.1,44.041l7.348-8.757a2.008,2.008,0,0,0-.249-2.821,1.841,1.841,0,0,0-.59-.333c-.034-.011-.3-.094-.349-.1a1.984,1.984,0,0,0-1.88.684l-8.7,10.365-1.161,6.581,9.848,1.736.174-.985a1.007,1.007,0,0,1,.324-.577l4.544-4,3.76-21.32A1.986,1.986,0,0,0,59.837,23.019Z"></path><path d="M21.259,39.891A2.825,2.825,0,0,0,22,40H42a2.782,2.782,0,0,0,.74-.109l2.242-2.672c.006-.073.018-.142.018-.219V17.9a4.962,4.962,0,0,1-5-1.93,4.954,4.954,0,0,1-8,0,4.954,4.954,0,0,1-8,0,4.962,4.962,0,0,1-5,1.93V37c0,.077.012.147.018.221ZM25.282,23.8a4.181,4.181,0,0,1,5.8-.736L32,23.75l.918-.689a4.2,4.2,0,0,1,5.041,6.72L32.6,33.8a1,1,0,0,1-1.2,0l-5.359-4.019a4.2,4.2,0,0,1-.759-5.984Z"></path></g></svg>