<svg xmlns="http://www.w3.org/2000/svg" viewBox="0 0 64 64" x="0px" y="0px"><g data-name="Action Camera"><path d="M53,2H11A7.008,7.008,0,0,0,4,9V55a7.008,7.008,0,0,0,7,7H53a7.008,7.008,0,0,0,7-7V9A7.008,7.008,0,0,0,53,2Zm5,53a5.006,5.006,0,0,1-5,5H11a5.006,5.006,0,0,1-5-5V9a5.006,5.006,0,0,1,5-5H53a5.006,5.006,0,0,1,5,5Z"></path><path d="M49,34H15a3,3,0,0,0-3,3V53a3,3,0,0,0,3,3H49a3,3,0,0,0,3-3V37A3,3,0,0,0,49,34Zm1,19a1,1,0,0,1-1,1H15a1,1,0,0,1-1-1V37a1,1,0,0,1,1-1H49a1,1,0,0,1,1,1Z"></path><path d="M40,8A12,12,0,1,0,52,20,12.013,12.013,0,0,0,40,8Zm0,22A10,10,0,1,1,50,20,10.011,10.011,0,0,1,40,30Z"></path><path d="M40,12a8,8,0,1,0,8,8A8.009,8.009,0,0,0,40,12Zm0,14a6,6,0,1,1,6-6A6.006,6.006,0,0,1,40,26Z"></path><rect x="12" y="15" width="12" height="2"></rect><rect x="12" y="19" width="12" height="2"></rect><rect x="12" y="23" width="12" height="2"></rect><path d="M46,38H41v2h5v3h2V40A2,2,0,0,0,46,38Z"></path><rect x="46" y="45" width="2" height="2"></rect><circle cx="40" cy="20" r="2"></circle></g></svg>