<svg xmlns="http://www.w3.org/2000/svg" viewBox="0 0 64 64" x="0px" y="0px"><g><polygon points="39 45.54 39.68 44 38.32 44 39 45.54"></polygon><polygon points="37.43 42 40.57 42 41.46 40 36.54 40 37.43 42"></polygon><polygon points="22 47 30 47 30 45 26 45 26 43 30 43 30 41 28 41 28 39 30 39 30 37 28 37 28 35 30 35 30 33 26 33 26 31 30 31 30 29 28 29 28 27 30 27 30 25 28 25 28 23 30 23 30 21 26 21 26 19 30 19 30 17 22 17 22 47"></polygon><rect x="36" y="23" width="2" height="15"></rect><rect x="40" y="23" width="2" height="15"></rect><rect x="36" y="17" width="6" height="4"></rect><path d="M52.75,12,47,5.61V11a1,1,0,0,0,1,1Z"></path><path d="M54,14H48a3.009,3.009,0,0,1-3-3V4H13a3.009,3.009,0,0,0-3,3V57a3.009,3.009,0,0,0,3,3H51a3.009,3.009,0,0,0,3-3ZM32,48a1,1,0,0,1-1,1H21a1,1,0,0,1-1-1V16a1,1,0,0,1,1-1H31a1,1,0,0,1,1,1Zm12-9a.978.978,0,0,1-.09.41l-4,9a1,1,0,0,1-1.82,0l-4-9A.978.978,0,0,1,34,39V16a1,1,0,0,1,1-1h8a1,1,0,0,1,1,1Z"></path></g></svg>