<svg xmlns="http://www.w3.org/2000/svg" viewBox="0 0 48 48" x="0px" y="0px"><title>Research</title><g><path d="M44,32H43v6a2,2,0,0,0,2-2V33A1,1,0,0,0,44,32Z"></path><path d="M5,32V9A3,3,0,0,1,8,6H38a3,3,0,0,1,3,3h2a5.006,5.006,0,0,0-5-5H8A5.006,5.006,0,0,0,3,9V32H2a1,1,0,0,0-1,1v3a2,2,0,0,0,2,2H34V36H3V34H19a1,1,0,0,0,1,1h6a1,1,0,0,0,1-1h7V32Z"></path><path d="M35,8H8A1,1,0,0,0,7,9V29a1,1,0,0,0,1,1H34V28H9V10H35Z"></path><path d="M39,14a4,4,0,0,0-4,4h2a2,2,0,0,1,2-2Z"></path><path d="M40,28.184V25.931a8,8,0,1,0-2,0v2.253A3,3,0,0,0,36,31v6a3,3,0,0,0,6,0V31A3,3,0,0,0,40,28.184ZM33,18a6,6,0,1,1,6,6A6.006,6.006,0,0,1,33,18Zm7,19a1,1,0,0,1-2,0V31a1,1,0,0,1,2,0Z"></path><rect x="21" y="18" width="2" height="2"></rect><rect x="15" y="18" width="2" height="2"></rect><rect x="27" y="18" width="2" height="2"></rect></g></svg>