<svg xmlns="http://www.w3.org/2000/svg" viewBox="0 0 32 32" x="0px" y="0px"><g data-name="Smartphone-Mobile-Banking"><path d="M3,21H15V20a2,2,0,0,1-2-2V17h2v1h2V16H15a2,2,0,0,1-2-2V12a2,2,0,0,1,2-2V9H3Zm6-7h2v2H9Z"></path><rect x="9" y="6" width="14" height="1"></rect><path d="M23,3a1,1,0,0,0-1-1H10A1,1,0,0,0,9,3V4H23Z"></path><rect x="9" y="23" width="14" height="1"></rect><path d="M29,9H17v1a2,2,0,0,1,2,2v1H17V12H15v2h2a2,2,0,0,1,2,2v2a2,2,0,0,1-2,2v1H29Zm-6,7H21V14h2Z"></path><path d="M10,30H22a1,1,0,0,0,1-1V26H9v3A1,1,0,0,0,10,30Zm5-3h2v2H15Z"></path></g></svg>