<svg xmlns="http://www.w3.org/2000/svg" viewBox="0 0 64 64" x="0px" y="0px"><g data-name="Electronic Music-Keyboard"><path d="M18,32V44h3V40H20a1,1,0,0,1-1-1V32Z"></path><path d="M13,44h3V32H15v7a1,1,0,0,1-1,1H13Z"></path><rect x="11" y="32" width="2" height="6"></rect><rect x="21" y="32" width="2" height="6"></rect><circle cx="9" cy="25" r="1"></circle><path d="M8,32V44h3V40H10a1,1,0,0,1-1-1V32Z"></path><path d="M23,44h3V32H25v7a1,1,0,0,1-1,1H23Z"></path><rect x="24" y="24" width="16" height="2"></rect><path d="M59,44a1,1,0,0,0,1-1V21a1,1,0,0,0-1-1H5a1,1,0,0,0-1,1V43a1,1,0,0,0,1,1H6V32a2,2,0,0,1,2-2H56a2,2,0,0,1,2,2V44ZM9,28a3,3,0,1,1,3-3A3,3,0,0,1,9,28Zm11-3H14V23h6Zm22,2a1,1,0,0,1-1,1H23a1,1,0,0,1-1-1V23a1,1,0,0,1,1-1H41a1,1,0,0,1,1,1Zm6-2H47v3H45V25H44V23h1V22h2v1h1Zm5,2H52v1H50V27H49V25h1V22h2v3h1Zm4-2v3H55V25H54V23h1V22h2v1h1v2Z"></path><rect x="51" y="32" width="2" height="6"></rect><path d="M43,44h3V32H45v7a1,1,0,0,1-1,1H43Z"></path><rect x="41" y="32" width="2" height="6"></rect><path d="M28,32V44h3V40H30a1,1,0,0,1-1-1V32Z"></path><path d="M53,44h3V32H55v7a1,1,0,0,1-1,1H53Z"></path><path d="M48,32V44h3V40H50a1,1,0,0,1-1-1V32Z"></path><path d="M33,44h3V32H35v7a1,1,0,0,1-1,1H33Z"></path><rect x="31" y="32" width="2" height="6"></rect><path d="M38,32V44h3V40H40a1,1,0,0,1-1-1V32Z"></path></g></svg>