<svg xmlns="http://www.w3.org/2000/svg" viewBox="0 0 64 64" x="0px" y="0px"><g><path d="M56,57a3,3,0,0,1-3,3H11a2.989,2.989,0,0,1-1.983-.75l-1.325,1.5A5,5,0,0,0,11,62H53a5.006,5.006,0,0,0,5-5V36H56Z"></path><path d="M8,20H32V18H8V15a3,3,0,0,1,3-3H32V10H11a5.006,5.006,0,0,0-5,5V34H8Z"></path><rect x="12" y="14" width="2" height="2"></rect><rect x="16" y="14" width="2" height="2"></rect><rect x="20" y="14" width="2" height="2"></rect><path d="M61.707,8.293l-6-6A1,1,0,0,0,55,2H37a3,3,0,0,0-3,3V31a3,3,0,0,0,3,3H59a3,3,0,0,0,3-3V9A1,1,0,0,0,61.707,8.293ZM56,5.414,58.586,8H57a1,1,0,0,1-1-1ZM59,32H37a1,1,0,0,1-1-1V5a1,1,0,0,1,1-1H54V7a3,3,0,0,0,3,3h3V31A1,1,0,0,1,59,32Z"></path><rect x="40" y="14" width="16" height="2"></rect><rect x="40" y="18" width="16" height="2"></rect><rect x="40" y="22" width="16" height="2"></rect><rect x="40" y="26" width="16" height="2"></rect><rect x="40" y="8" width="10" height="2"></rect><path d="M32.555,57.832,35.3,56H37a3,3,0,0,0,0-6H35.3l-2.748-1.832A1.006,1.006,0,0,0,32,48H7A5,5,0,0,0,7,58H32A1.006,1.006,0,0,0,32.555,57.832ZM30,52H13V50H30ZM11,56H10V50h1Zm2-2H30v2H13Zm25-1a1,1,0,0,1-1,1H36V52h1A1,1,0,0,1,38,53Zm-4-1.465v2.93L32,55.8V50.2ZM4,53a3,3,0,0,1,3-3H8v6H7A3,3,0,0,1,4,53Z"></path><path d="M3,46H39a1,1,0,0,0,1-1V37a1,1,0,0,0-1-1H3a1,1,0,0,0-1,1v8A1,1,0,0,0,3,46Zm1-8H38v6H34V40H32v4H30V42H28v2H26V42H24v2H22V40H20v4H18V42H16v2H14V42H12v2H10V40H8v4H4Z"></path><rect x="12" y="24" width="18" height="2"></rect><rect x="12" y="28" width="18" height="2"></rect><rect x="12" y="32" width="18" height="2"></rect><rect x="44" y="42" width="8" height="2"></rect><rect x="44" y="38" width="8" height="2"></rect><rect x="44" y="46" width="8" height="2"></rect><rect x="44" y="50" width="8" height="2"></rect><rect x="44" y="54" width="8" height="2"></rect></g></svg>