<svg xmlns="http://www.w3.org/2000/svg" viewBox="0 0 64 64" x="0px" y="0px"><title>Browser_29</title><g data-name="Browser"><path d="M2,2V62H62V2ZM60,4v6H4V4ZM4,32V12H60V32Zm0,2h8V60H4ZM14,60V34H60V60Z"></path><rect x="6" y="6" width="2" height="2"></rect><rect x="10" y="6" width="2" height="2"></rect><rect x="14" y="6" width="2" height="2"></rect><rect x="56" y="6" width="2" height="2"></rect><rect x="18" y="38" width="2" height="2"></rect><rect x="22" y="38" width="34" height="2"></rect><rect x="18" y="42" width="38" height="2"></rect><rect x="18" y="46" width="38" height="2"></rect><rect x="18" y="50" width="38" height="2"></rect><rect x="18" y="54" width="38" height="2"></rect></g></svg>