<svg xmlns="http://www.w3.org/2000/svg" viewBox="0 0 64 64" x="0px" y="0px"><g data-name="Gps"><path d="M46,2H18a5.006,5.006,0,0,0-5,5V57a5.006,5.006,0,0,0,5,5H46a5.006,5.006,0,0,0,5-5V7A5.006,5.006,0,0,0,46,2ZM25,4H39V6a1,1,0,0,1-1,1H26a1,1,0,0,1-1-1ZM49,57a3,3,0,0,1-3,3H18a3,3,0,0,1-3-3V7a3,3,0,0,1,3-3h5V6a3,3,0,0,0,3,3H38a3,3,0,0,0,3-3V4h5a3,3,0,0,1,3,3Z"></path><path d="M32.934,18.641a1,1,0,0,0-1.868,0l-10,26a1,1,0,0,0,1.559,1.14L32,38.281l9.375,7.5a1,1,0,0,0,1.559-1.14ZM31,36.519l-6.741,5.393L31,24.386Zm2,0V24.386l6.741,17.526Z"></path><rect x="40.162" y="16.192" width="2.001" height="2" transform="translate(-1.947 5.724) rotate(-7.772)"></rect><rect x="40.703" y="20.156" width="2.001" height="2" transform="translate(-2.47 5.811) rotate(-7.742)"></rect><rect x="41.783" y="28.083" width="2.001" height="2" transform="translate(-3.539 6.051) rotate(-7.77)"></rect><rect x="42.324" y="32.046" width="2.001" height="2" transform="translate(-4.07 6.161) rotate(-7.77)"></rect><rect x="42.864" y="36.009" width="2.001" height="2" transform="matrix(0.991, -0.135, 0.135, 0.991, -4.603, 6.274)"></rect><rect x="41.243" y="24.119" width="2.001" height="2" transform="translate(-3.008 5.942) rotate(-7.77)"></rect><rect x="20.756" y="24.119" width="2" height="2.001" transform="translate(-6.074 43.28) rotate(-82.23)"></rect><rect x="21.837" y="16.192" width="2" height="2.001" transform="translate(2.715 37.496) rotate(-82.23)"></rect><rect x="19.675" y="32.046" width="2" height="2.001" transform="translate(-14.862 49.064) rotate(-82.23)"></rect><rect x="20.216" y="28.082" width="2" height="2.001" transform="translate(-10.468 46.172) rotate(-82.23)"></rect><rect x="21.297" y="20.155" width="2" height="2.001" transform="translate(-1.67 40.399) rotate(-82.258)"></rect><rect x="19.135" y="36.009" width="2" height="2.001" transform="translate(-19.257 51.953) rotate(-82.226)"></rect></g></svg>