<svg xmlns="http://www.w3.org/2000/svg" viewBox="0 0 64 64" x="0px" y="0px"><g data-name="Light"><path d="M53.447,9.105l-6-3A1,1,0,0,0,47,6H44V3a1,1,0,0,0-1-1H39a1,1,0,0,0-1,1V6H35a1,1,0,0,0-.447.105l-6,3A1,1,0,0,0,28,10v3a1,1,0,0,0,1,1h1.2L34,31.109V35a1,1,0,0,0,1,1h2v3a1,1,0,0,0,1,1V50H10V45a1,1,0,0,0-1-1H3a1,1,0,0,0-1,1V61a1,1,0,0,0,1,1H9a1,1,0,0,0,1-1V56H41a3,3,0,0,0,3-3V40a1,1,0,0,0,1-1V36h2a1,1,0,0,0,1-1V31.109L51.8,14H53a1,1,0,0,0,1-1V10A1,1,0,0,0,53.447,9.105ZM40,4h2V6H40ZM35.8,30,32.247,14H40V30ZM8,60H4V46H8Zm34-7a1,1,0,0,1-1,1H10V52H39a1,1,0,0,0,1-1V40h2Zm1-15H39V36h4Zm3-4H36V32H46Zm.2-4H42V14h7.753ZM52,12H30V10.618L35.236,8H46.764L52,10.618Z"></path></g></svg>