<svg xmlns="http://www.w3.org/2000/svg" viewBox="0 0 64 64" x="0px" y="0px"><g data-name="Door Lock-Security-Protection-Door-Smartphone"><path d="M5,44a3.009,3.009,0,0,0,3,3H20a3.009,3.009,0,0,0,3-3V20a3.009,3.009,0,0,0-3-3H8a3.009,3.009,0,0,0-3,3Zm10,1H13V43h2Zm-1-9-1.414-1.414a2,2,0,0,1,2.828,0Zm2.122-3.122a3.006,3.006,0,0,0-4.244,0l-1.414-1.414a5.008,5.008,0,0,1,7.072,0ZM11,19h6v2H11Zm3,7a8.941,8.941,0,0,1,6.364,2.636L18.95,30.05a7,7,0,0,0-9.9,0L7.636,28.636A8.941,8.941,0,0,1,14,26Z"></path><rect x="14" y="4" width="38" height="4"></rect><path d="M46,30h4V28H46a5,5,0,0,0,0,10h4V36H46a3,3,0,0,1,0-6Z"></path><rect x="14" y="56" width="38" height="4"></rect><path d="M50,10H16v5h4a5,5,0,0,1,5,5V44a5,5,0,0,1-5,5H16v5H50V40H46a7.016,7.016,0,0,1-7-7,7.008,7.008,0,0,1,7-7h4ZM40,24H38V22h2Zm4,0H42V22h2Zm4,0H46V22h2Z"></path><path d="M59,33a1,1,0,0,0-1-1H46a1,1,0,0,0,0,2H58A1,1,0,0,0,59,33Z"></path></g></svg>