<svg xmlns="http://www.w3.org/2000/svg" viewBox="0 0 64 64" x="0px" y="0px"><g><rect x="19" y="24" width="2" height="4"></rect><rect x="43" y="24" width="2" height="4"></rect><rect x="19" y="20" width="2" height="2"></rect><rect x="25" y="4" width="13" height="4"></rect><path d="M23,13.236V23a1,1,0,0,0,2,0V20a1,1,0,0,1,2,0v3a1,1,0,0,0,2,0V20a1,1,0,0,1,2,0v3a1,1,0,0,0,2,0V20a1,1,0,0,1,2,0v3a1,1,0,0,0,2,0V17a1,1,0,0,1,2,0v2a1,1,0,0,0,2,0V13.333L38.5,10H24.618Z"></path><path d="M39,22h1a3,3,0,0,1-1-.171Z"></path><path d="M45,22V20H42.816A3,3,0,0,1,40,22Z"></path><path d="M8,59a1,1,0,0,0,1,1H55a1,1,0,0,0,1-1V43.414l-2.293,2.293A1,1,0,0,1,53,46H11a1,1,0,0,1-.707-.293L8,43.414Z"></path><path d="M52.586,44,56,40.586V30H8V40.586L11.414,44ZM29,40h6v2H29Z"></path></g></svg>