<svg xmlns="http://www.w3.org/2000/svg" viewBox="0 0 64 64" x="0px" y="0px"><g><path d="M19,46a1,1,0,0,0,1,1H34a1,1,0,0,0,0-2H20A1,1,0,0,0,19,46Z"></path><polygon points="21.883 55 32.117 55 32.867 49 21.133 49 21.883 55"></polygon><path d="M32.865,36.431l.259-.967-.966-.258a3,3,0,0,0-3.675,2.121l-.258.966.965.259A3,3,0,0,0,32.865,36.431Z"></path><path d="M24.119,35.505a2.976,2.976,0,0,0-2.277-.3l-.966.258.259.967a3.006,3.006,0,0,0,3.675,2.121l.965-.259-.258-.966A2.988,2.988,0,0,0,24.119,35.505Z"></path><path d="M35,23a8,8,0,1,0-8,8A8.009,8.009,0,0,0,35,23Zm-9-1h2a3,3,0,0,1,0,6v1H26V28a3,3,0,0,1-3-3h2a1,1,0,0,0,1,1h2a1,1,0,0,0,0-2H26a3,3,0,0,1,0-6V17h2v1a3,3,0,0,1,3,3H29a1,1,0,0,0-1-1H26a1,1,0,0,0,0,2Z"></path><path d="M39.168,8.445a1,1,0,0,1,1.664,0L41,8.7V4H39V8.7Z"></path><polygon points="42 39 42 43 56 43 56 39 54 39 54 41 52 41 52 39 50 39 50 41 48 41 48 39 46 39 46 41 44 41 44 39 42 39"></polygon><path d="M42,37h5V5a1,1,0,0,0-1-1H43v8a1.008,1.008,0,0,1-.71.96A.967.967,0,0,1,42,13a.984.984,0,0,1-.83-.45L40,10.8l-1.17,1.75a.992.992,0,0,1-1.12.41A1.008,1.008,0,0,1,37,12V4H8A1,1,0,0,0,7,5V59a1,1,0,0,0,1,1H46a1,1,0,0,0,1-1V57H41a2.006,2.006,0,0,1-2-2V51a2.006,2.006,0,0,1,2-2V45a2.061,2.061,0,0,1,.03-.26A2.007,2.007,0,0,1,40,43V39A2.006,2.006,0,0,1,42,37ZM14,25H12V23h2Zm0-4H12V19h2Zm1.29-8.29L14,11.41V17H12V11.41l-1.29,1.3L9.29,11.29l3-3a1.008,1.008,0,0,1,1.42,0l3,3ZM28.88,33.77a5.045,5.045,0,0,1,3.8-.5l1.93.52a.994.994,0,0,1,.7,1.23l-.51,1.93a5.012,5.012,0,0,1-4.83,3.7,4.837,4.837,0,0,1-1.3-.17L28,40.3V43h6a2.993,2.993,0,0,1,.9,5.85l-.91,7.27A1,1,0,0,1,33,57H21a1,1,0,0,1-.99-.88l-.91-7.27A2.993,2.993,0,0,1,20,43h6V40.3l-.67.18a4.837,4.837,0,0,1-1.3.17,5.012,5.012,0,0,1-4.83-3.7l-.51-1.93a.994.994,0,0,1,.7-1.23l1.93-.52a5,5,0,0,1,3.8.5,5.186,5.186,0,0,1,.88.66V32.95a10,10,0,1,1,2,0v1.48A5.186,5.186,0,0,1,28.88,33.77ZM43,35H41V33h2Zm0-4H41V29h2Zm-3.29-6.29-1.42-1.42,3-3a1.008,1.008,0,0,1,1.42,0l3,3-1.42,1.42L43,23.41V27H41V23.41Z"></path><polygon points="53 53 51 53 51 51 49 51 49 53 47 53 47 51 45 51 45 53 43 53 43 51 41 51 41 55 55 55 55 51 53 51 53 53"></polygon><polygon points="57 45 55 45 55 47 53 47 53 45 51 45 51 47 49 47 49 45 47 45 47 47 45 47 45 45 43 45 43 49 57 49 57 45"></polygon></g></svg>