<svg xmlns="http://www.w3.org/2000/svg" viewBox="0 0 64 64" x="0px" y="0px"><g><path d="M50,17h2v5h3V7.851A14.92,14.92,0,0,0,45,4H44V17h3a1,1,0,0,1,1,1v8a3,3,0,0,1-3,3H44V60h6Z"></path><path d="M42,29H41a3,3,0,0,1-3-3V18a1,1,0,0,1,1-1h3V4H40.489A9,9,0,0,1,33,9.938V60h9Z"></path><path d="M38.33,4H25.67A7.009,7.009,0,0,0,38.33,4Z"></path><path d="M23.511,4H22V60h9V9.938A9,9,0,0,1,23.511,4Z"></path><path d="M46,26V19H40v7a1,1,0,0,0,1,1h4A1,1,0,0,0,46,26Z"></path><path d="M4,19v3H7V10.038A14.9,14.9,0,0,0,4,19Z"></path><rect x="4" y="24" width="8" height="2"></rect><rect x="52" y="24" width="8" height="2"></rect><path d="M60,19a14.9,14.9,0,0,0-3-8.962V22h3Z"></path><path d="M20,60V4H19A14.92,14.92,0,0,0,9,7.851V22h3V17h2V60Z"></path></g></svg>