<svg xmlns="http://www.w3.org/2000/svg" viewBox="0 0 64 64" x="0px" y="0px"><g><circle cx="45" cy="56" r="5"></circle><circle cx="54" cy="42" r="3"></circle><circle cx="10" cy="51" r="4"></circle><path d="M52,14a1,1,0,0,1-1-1,5,5,0,0,0-5-5,4.946,4.946,0,0,0-3.58,1.52,1.039,1.039,0,0,1-.86.29,1.026,1.026,0,0,1-.74-.52,9.991,9.991,0,0,0-18.73,3.46,1,1,0,0,1-1.68.6A4.995,4.995,0,0,0,12,17a1.088,1.088,0,0,1-.34.8,1.034,1.034,0,0,1-.8.27A5.605,5.605,0,0,0,10,18a6,6,0,0,0,0,12h7.05a11,11,0,0,1,21.9,0H52a8,8,0,0,0,0-16Zm-7,0H43V12h2Zm2-2h2v2H47Zm3,16H48V26h2Zm2,0V26a4,4,0,0,0,4-4h2A6,6,0,0,1,52,28Z"></path><path d="M28,22a9,9,0,1,0,9,9A9.014,9.014,0,0,0,28,22Zm4,7H30V28H26v2h4a2.006,2.006,0,0,1,2,2v2a2.006,2.006,0,0,1-2,2H29v2H27V36H26a2.006,2.006,0,0,1-2-2V33h2v1h4V32H26a2.006,2.006,0,0,1-2-2V28a2.006,2.006,0,0,1,2-2h1V24h2v2h1a2.006,2.006,0,0,1,2,2Z"></path><rect x="9" y="42" width="2" height="2"></rect><rect x="9" y="38" width="2" height="2"></rect><rect x="9" y="34" width="2" height="2"></rect><rect x="44" y="46" width="2" height="2"></rect><rect x="44" y="42" width="2" height="2"></rect><rect x="44" y="36" width="2" height="4"></rect><rect x="53" y="34" width="2" height="2"></rect><polygon points="24 56 22 56 22 58 20 58 20 60 22 60 22 62 24 62 24 60 26 60 26 58 24 58 24 56"></polygon><rect x="22" y="52" width="2" height="2"></rect><rect x="22" y="48" width="2" height="2"></rect><polygon points="34 51 32 51 32 53 30 53 30 55 32 55 32 57 34 57 34 55 36 55 36 53 34 53 34 51"></polygon><rect x="32" y="47" width="2" height="2"></rect><rect x="32" y="43" width="2" height="2"></rect><rect x="22" y="44" width="2" height="2"></rect></g></svg>