<svg xmlns="http://www.w3.org/2000/svg" viewBox="0 0 64 64" x="0px" y="0px"><g><path d="M58,2H42a5.006,5.006,0,0,0-5,5v4.67a18.1,18.1,0,0,0-2.86-.554A18.689,18.689,0,0,0,17.3,18H14.414l-2.707-2.707-1.414,1.414,3,3A1,1,0,0,0,14,20h1.867a19.09,19.09,0,0,0-1.887,4H10v2h3.438A19.041,19.041,0,0,0,13,29.646l-6.484,8.11A2,2,0,0,0,8.08,41H11v8a5.006,5.006,0,0,0,5,5h5v7a1,1,0,0,0,1,1H44a1,1,0,0,0,1-1V43.851A18.991,18.991,0,0,0,48.141,40H58a5.006,5.006,0,0,0,5-5V7A5.006,5.006,0,0,0,58,2ZM43.333,42.665A1,1,0,0,0,43,43.41V60H23V53a1,1,0,0,0-1-1H16a3,3,0,0,1-3-3V40a1,1,0,0,0-1-1L8.081,39l6.7-8.38A1,1,0,0,0,15,30a16.932,16.932,0,0,1,.5-4H24V24H16.121a16.982,16.982,0,0,1,2.133-4H24V18H19.991c.222-.223.433-.455.668-.666A16.872,16.872,0,0,1,33.923,13.1,16.142,16.142,0,0,1,37,13.748V35a5.006,5.006,0,0,0,5,5h3.747A17.1,17.1,0,0,1,43.333,42.665ZM61,35a3,3,0,0,1-3,3H42a3,3,0,0,1-3-3V7a3,3,0,0,1,3-3H58a3,3,0,0,1,3,3Z"></path><rect x="48" y="34" width="4" height="2"></rect><rect x="43" y="6" width="2" height="2"></rect><rect x="47" y="6" width="6" height="2"></rect><path d="M49.864,10a8.09,8.09,0,0,0-7.858,7.705,8.008,8.008,0,0,0,2.386,5.99A5.347,5.347,0,0,1,45.776,26H44v2h2v2a2,2,0,0,0,2,2h4a2,2,0,0,0,2-2V28h2V26H54.216a4.965,4.965,0,0,1,1.317-2.23A8,8,0,0,0,49.864,10ZM52,30H48V28h4Zm2.15-7.676A7.008,7.008,0,0,0,52.138,26H47.86a7.279,7.279,0,0,0-2.067-3.73A5.929,5.929,0,0,1,44,17.778,6.067,6.067,0,0,1,49.9,12H50A5.993,5.993,0,0,1,54.15,22.324Z"></path><path d="M50,19a1,1,0,0,1-1-1H47a3,3,0,0,0,2,2.816V24h2V20.816A3,3,0,0,0,53,18H51A1,1,0,0,1,50,19Z"></path><path d="M8,16a3,3,0,1,0-3-3A3,3,0,0,0,8,16Zm0-4a1,1,0,1,1-1,1A1,1,0,0,1,8,12Z"></path><path d="M8,25a3,3,0,1,0-3,3A3,3,0,0,0,8,25ZM5,26a1,1,0,1,1,1-1A1,1,0,0,1,5,26Z"></path></g></svg>