<svg xmlns="http://www.w3.org/2000/svg" viewBox="0 0 64 64" x="0px" y="0px"><g data-name="Dish Washing"><circle cx="10" cy="8" r="2"></circle><path d="M32,8A24,24,0,1,0,56,32,24.028,24.028,0,0,0,32,8ZM20,18h1a1,1,0,0,1,0,2H20a1,1,0,0,1,0-2Zm-3-2a1,1,0,0,1,2,0v1a1,1,0,0,1-2,0Zm2,5v1a1,1,0,0,1-2,0V21a1,1,0,0,1,2,0Zm-3-1H15a1,1,0,0,1,0-2h1a1,1,0,0,1,0,2ZM32,47A15,15,0,1,1,47,32,15.017,15.017,0,0,1,32,47ZM49.239,21a1,1,0,0,1-.821-.428,20.187,20.187,0,0,0-9.782-7.448A1,1,0,0,1,39.3,11.24a22.21,22.21,0,0,1,10.76,8.192A1,1,0,0,1,49.239,21Zm3.2,6.039a1.018,1.018,0,0,1-.282.041,1,1,0,0,1-.959-.72,19.893,19.893,0,0,0-1.137-2.972,1,1,0,1,1,1.8-.863A21.854,21.854,0,0,1,53.114,25.8,1,1,0,0,1,52.436,27.042Z"></path><circle cx="32" cy="32" r="13"></circle><path d="M57,5a1,1,0,0,0,1-1V3a1,1,0,0,0-2,0V4A1,1,0,0,0,57,5Z"></path><path d="M54.172,5.586a1,1,0,0,0,1.414-1.414l-.708-.708a1,1,0,0,0-1.414,1.414Z"></path><path d="M53,8h1a1,1,0,0,0,0-2H53a1,1,0,0,0,0,2Z"></path><path d="M54.172,8.414l-.708.708a1,1,0,1,0,1.414,1.414l.708-.708a1,1,0,1,0-1.414-1.414Z"></path><path d="M57,12a1,1,0,0,0,1-1V10a1,1,0,0,0-2,0v1A1,1,0,0,0,57,12Z"></path><path d="M59.828,8.414a1,1,0,1,0-1.414,1.414l.708.708a1,1,0,1,0,1.414-1.414Z"></path><path d="M61,6H60a1,1,0,0,0,0,2h1a1,1,0,0,0,0-2Z"></path><path d="M59.121,5.879a1,1,0,0,0,.707-.293l.708-.708a1,1,0,0,0-1.414-1.414l-.708.708a1,1,0,0,0,.707,1.707Z"></path><path d="M55,50v1a1,1,0,0,0,2,0V50a1,1,0,0,0-2,0Z"></path><path d="M54,52H53a1,1,0,0,0,0,2h1a1,1,0,0,0,0-2Z"></path><path d="M56,54a1,1,0,0,0-1,1v1a1,1,0,0,0,2,0V55A1,1,0,0,0,56,54Z"></path><path d="M59,52H58a1,1,0,0,0,0,2h1a1,1,0,0,0,0-2Z"></path></g></svg>