<svg xmlns="http://www.w3.org/2000/svg" viewBox="0 0 64 64" x="0px" y="0px"><title>Presentaion algorithm</title><g data-name="Presentaion algorithm"><path d="M15,40H27v2H37V40H49V16H39V14H25v2H15v6H11v6h4v3H11v6h4Zm20,0H29V38h6ZM47,18V38H37V36H33V24h7v2H37v6h8V26H42V22H33V20h6V18ZM43,28v2H39V28ZM27,16H37v2H27ZM13,24h6v2H13Zm4,4h4V22H17V18h8v2h6V36H27v2H17V37h4V31H17Zm-4,5h6v2H13Z"></path><rect x="52" y="17" width="4" height="2"></rect><rect x="52" y="21" width="4" height="2"></rect><path d="M62,12V6H36V2H28V6H2v6H4V44H2v6H28v6H21v6H43V56H36V50H62V44H60V12ZM30,4h4V6H30ZM4,8H60v2H4ZM41,58v2H23V58Zm-7-2H30V50h4Zm26-8H4V46H60Zm-2-4H6V12H58Z"></path></g></svg>