<svg xmlns="http://www.w3.org/2000/svg" viewBox="0 0 64 64" x="0px" y="0px"><g data-name="DNA"><path d="M9.055,4.2c0,.044.011.085.016.129a12.072,12.072,0,0,0,3.737,7.462A38.586,38.586,0,0,0,18,15.936a34.48,34.48,0,0,0,5.756-4.745c.053-.059.108-.117.161-.177.1-.108.185-.22.277-.33a11.615,11.615,0,0,0,2.66-5.743c.007-.046.011-.094.017-.141.037-.256.069-.516.089-.783C26.985,3.686,27,3.349,27,3H9Q9,3.617,9.055,4.2ZM22,11H14V9h8Zm3-7V6H11V4Z"></path><path d="M8.08,33.351c.032.282.071.56.121.829.013.069.026.136.04.2.065.31.139.613.227.907.006.017.01.035.015.052a10.746,10.746,0,0,0,1.288,2.728l.066.1c.152.228.312.449.479.667.047.062.094.124.143.185.144.182.3.359.45.534.07.08.137.161.21.24.129.142.265.279.4.416a20.654,20.654,0,0,0,1.547,1.417l.148.124c.188.153.382.306.579.458.078.061.156.122.236.183.176.134.357.268.54.4.112.081.224.163.338.244q.246.177.5.354c.839.583,1.708,1.154,2.592,1.727l.08-.052c.232-.15.461-.3.691-.45l.436-.288q.267-.176.531-.353l.464-.315c.162-.111.324-.222.484-.334s.31-.22.463-.33.308-.22.458-.332.3-.227.452-.342.291-.222.433-.335.292-.238.437-.358.274-.226.407-.341.279-.25.417-.376.255-.232.377-.35.263-.263.392-.395.236-.24.349-.363.242-.278.361-.418c.107-.125.215-.248.317-.376.114-.145.219-.294.327-.443.095-.131.193-.26.283-.394.1-.154.194-.314.289-.472.082-.137.168-.271.245-.411.09-.166.168-.34.25-.511.068-.141.14-.279.2-.424.077-.18.14-.37.207-.557.052-.145.11-.286.156-.435.063-.2.109-.412.16-.621.036-.144.079-.284.109-.432.047-.239.077-.49.11-.74.017-.128.043-.25.056-.38C27.98,32.807,28,32.41,28,32s-.019-.826-.056-1.22c-.012-.13-.038-.251-.054-.378-.032-.259-.062-.521-.11-.769-.026-.139-.067-.269-.1-.4-.053-.227-.1-.457-.166-.676-.04-.136-.094-.263-.139-.4-.071-.209-.137-.42-.219-.621-.054-.132-.121-.257-.18-.387-.087-.192-.169-.387-.266-.572-.065-.124-.141-.241-.21-.363-.1-.182-.2-.368-.317-.545-.073-.114-.156-.222-.233-.334-.121-.176-.238-.355-.368-.526-.079-.105-.168-.205-.251-.309-.137-.171-.272-.343-.417-.509-.082-.094-.171-.183-.256-.275-.156-.171-.31-.342-.474-.508-.081-.082-.168-.16-.25-.24-.176-.172-.35-.343-.533-.51-.08-.073-.164-.142-.245-.214-.194-.172-.387-.343-.587-.511-.07-.058-.143-.114-.213-.172-.218-.179-.436-.357-.661-.532l-.16-.122c-.248-.191-.5-.381-.751-.569l-.057-.041c-.882-.65-1.8-1.286-2.73-1.927-.733.506-1.458,1.01-2.166,1.519a29.5,29.5,0,0,0-4.508,3.842c-.024.027-.049.053-.073.079-.146.16-.282.323-.419.487-.1.114-.191.229-.283.347s-.169.22-.252.331c-.145.2-.287.4-.421.6-.033.05-.067.1-.1.15a11.219,11.219,0,0,0-1.541,3.832c-.01.052-.021.1-.03.156-.055.3-.1.6-.129.908-.008.077-.019.153-.026.231C8.02,31.227,8,31.607,8,32c0,.377.02.741.051,1.1C8.059,33.183,8.071,33.266,8.08,33.351ZM20,43H16V41h4Zm4-5H12V36H24ZM16,21h4v2H16Zm-4,5H24v2H12Zm14,5v2H10V31Z"></path><path d="M27.946,59.834c-.006-.072-.017-.141-.024-.212-.035-.327-.079-.648-.139-.96-.006-.036-.014-.071-.021-.107a11.869,11.869,0,0,0-2.847-5.578l-.075-.086c-.181-.2-.37-.4-.562-.6-.07-.071-.137-.142-.208-.212-.134-.132-.274-.26-.413-.389s-.251-.237-.383-.354l-.049-.042a34.055,34.055,0,0,0-3.236-2.473h0c-.655-.448-1.321-.887-1.988-1.32l-.214.139-.233.152q-.385.252-.764.5l-.276.184q-.327.22-.648.442c-.132.09-.262.181-.393.273q-.239.168-.474.338c-.181.131-.362.263-.54.4-.091.068-.181.138-.272.207-.235.18-.469.362-.7.548l-.064.053c-2.8,2.3-4.991,5.058-5.368,9.022C8.021,60.164,8,60.575,8,61H28C28,60.6,27.98,60.212,27.946,59.834ZM14,53h8v2H14Zm-3,7V58H25v2Z"></path><path d="M37.055,4.2c0,.044.011.085.016.129a12.072,12.072,0,0,0,3.737,7.462A38.586,38.586,0,0,0,46,15.936a34.48,34.48,0,0,0,5.756-4.745c.053-.059.108-.117.161-.177.1-.108.185-.22.277-.33a11.615,11.615,0,0,0,2.66-5.743c.007-.046.011-.094.017-.141.037-.256.069-.516.089-.783C54.985,3.686,55,3.349,55,3H37Q37,3.617,37.055,4.2ZM50,11H42V9h8Zm3-7V6H39V4Z"></path><path d="M36.08,33.351c.032.282.071.56.121.829.013.069.026.136.04.2.065.31.139.613.227.907.006.017.01.035.015.052a10.746,10.746,0,0,0,1.288,2.728l.066.1c.152.228.312.449.479.667.047.062.094.124.143.185.144.182.3.359.45.534.07.08.137.161.21.24.129.142.265.279.4.416a20.654,20.654,0,0,0,1.547,1.417l.148.124c.188.153.382.306.579.458.078.061.156.122.236.183.176.134.357.268.54.4.112.081.224.163.338.244q.246.177.5.354c.839.583,1.708,1.154,2.592,1.727l.08-.052c.232-.15.461-.3.691-.45l.436-.288q.267-.176.531-.353l.464-.315c.162-.111.324-.222.484-.334s.31-.22.463-.33.308-.22.458-.332.3-.227.452-.342.291-.222.433-.335.292-.238.437-.358.274-.226.407-.341.279-.25.417-.376.255-.232.377-.35.263-.263.392-.395.236-.24.349-.363.242-.278.361-.418c.107-.125.215-.248.317-.376.114-.145.219-.294.327-.443.095-.131.193-.26.283-.394.1-.154.194-.314.289-.472.082-.137.168-.271.245-.411.09-.166.168-.34.25-.511.068-.141.14-.279.2-.424.077-.18.14-.37.207-.557.052-.145.11-.286.156-.435.063-.2.109-.412.16-.621.036-.144.079-.284.109-.432.047-.239.077-.49.11-.74.017-.128.043-.25.056-.38C55.98,32.807,56,32.41,56,32s-.019-.826-.056-1.22c-.012-.13-.038-.251-.054-.378-.032-.259-.062-.521-.11-.769-.026-.139-.067-.269-.1-.4-.053-.227-.1-.457-.166-.676-.04-.136-.094-.263-.139-.4-.071-.209-.137-.42-.219-.621-.054-.132-.121-.257-.18-.387-.087-.192-.169-.387-.266-.572-.065-.124-.141-.241-.21-.363-.1-.182-.2-.368-.317-.545-.073-.114-.156-.222-.233-.334-.121-.176-.238-.355-.368-.526-.079-.105-.168-.205-.251-.309-.137-.171-.272-.343-.417-.509-.082-.094-.171-.183-.256-.275-.156-.171-.31-.342-.474-.508-.081-.082-.168-.16-.25-.24-.176-.172-.35-.343-.533-.51-.08-.073-.164-.142-.245-.214-.194-.172-.387-.343-.587-.511-.07-.058-.143-.114-.213-.172-.218-.179-.436-.357-.661-.532l-.16-.122c-.248-.191-.5-.381-.751-.569l-.057-.041c-.882-.65-1.8-1.286-2.73-1.927-.733.506-1.458,1.01-2.166,1.519a29.5,29.5,0,0,0-4.508,3.842c-.024.027-.049.053-.073.079-.146.16-.282.323-.419.487-.1.114-.191.229-.283.347s-.169.22-.252.331c-.145.2-.287.4-.421.6-.033.05-.067.1-.1.15a11.219,11.219,0,0,0-1.541,3.832c-.01.052-.021.1-.03.156-.055.3-.1.6-.129.908-.008.077-.019.153-.026.231-.032.37-.052.75-.052,1.143,0,.377.02.741.051,1.1C36.059,33.183,36.071,33.266,36.08,33.351ZM48,43H44V41h4Zm4-5H40V36H52ZM44,21h4v2H44Zm-4,5H52v2H40Zm14,5v2H38V31Z"></path><path d="M55.946,59.834c-.006-.072-.017-.141-.024-.212-.035-.327-.079-.648-.139-.96-.006-.036-.014-.071-.021-.107a11.869,11.869,0,0,0-2.847-5.578l-.075-.086c-.181-.2-.37-.4-.562-.6-.07-.071-.137-.142-.208-.212-.134-.132-.274-.26-.413-.389s-.251-.237-.383-.354l-.049-.042a34.055,34.055,0,0,0-3.236-2.473h0c-.655-.448-1.321-.887-1.988-1.32l-.214.139-.233.152q-.386.252-.764.5l-.276.184q-.327.22-.648.442c-.132.09-.262.181-.393.273q-.239.168-.474.338c-.181.131-.362.263-.54.4-.091.068-.181.138-.272.207-.235.18-.469.362-.7.548l-.064.053c-2.8,2.3-4.991,5.058-5.368,9.022-.037.4-.058.811-.058,1.236H56C56,60.6,55.98,60.212,55.946,59.834ZM42,53h8v2H42Zm-3,7V58H53v2Z"></path></g></svg>