<svg xmlns="http://www.w3.org/2000/svg" viewBox="0 0 64 64" x="0px" y="0px"><title>Check-List</title><g><path d="M16,20a1,1,0,0,0-1,1v6a1,1,0,0,0,1,1h6a1,1,0,0,0,1-1V25.414l4.364-4.364L25.95,19.636,23,22.586V21a1,1,0,0,0-1-1Zm2.879,2.464-1.414,1.414L19.586,26H17V22h4v2.586Z"></path><rect x="29" y="21" width="2" height="2"></rect><rect x="33" y="21" width="16" height="2"></rect><rect x="29" y="25" width="20" height="2"></rect><rect x="29" y="31" width="20" height="2"></rect><rect x="29" y="35" width="4" height="2"></rect><rect x="29" y="41" width="2" height="2"></rect><rect x="33" y="41" width="16" height="2"></rect><rect x="29" y="45" width="20" height="2"></rect><rect x="35" y="35" width="14" height="2"></rect><path d="M23,32.586V31a1,1,0,0,0-1-1H16a1,1,0,0,0-1,1v6a1,1,0,0,0,1,1h6a1,1,0,0,0,1-1V35.414l4.364-4.364L25.95,29.636ZM17,32h4v2.586l-2.121-2.122-1.414,1.414L19.586,36H17Z"></path><path d="M25.95,39.636,23,42.586V41a1,1,0,0,0-1-1H16a1,1,0,0,0-1,1v6a1,1,0,0,0,1,1h6a1,1,0,0,0,1-1V45.414l4.364-4.364ZM17,42h4v2.586l-2.121-2.122-1.414,1.414L19.586,46H17Z"></path><path d="M55,2H9A2,2,0,0,0,7,4V60a2,2,0,0,0,2,2H55a2,2,0,0,0,2-2V4A2,2,0,0,0,55,2ZM40,4V6H24V4ZM23,12H41a1,1,0,0,0,1-1V8h9V56H13V8h9v3A1,1,0,0,0,23,12Zm17-2H24V8H40ZM9,60V4H22V6H12a1,1,0,0,0-1,1V57a1,1,0,0,0,1,1H52a1,1,0,0,0,1-1V7a1,1,0,0,0-1-1H42V4H55V60Z"></path></g></svg>