<svg xmlns="http://www.w3.org/2000/svg" viewBox="0 0 64 64" x="0px" y="0px"><g><path d="M33,59.957V55H31v4.921c-4.061-.577-7.648-4.63-10.02-10.681a27.851,27.851,0,0,1,9.087-2.175l-.134-1.995a29.937,29.937,0,0,0-9.625,2.307A49.168,49.168,0,0,1,18.013,33H31v6h2V33h6V31H33V18.977A29.977,29.977,0,0,0,43.685,16.63a48.537,48.537,0,0,1,2.281,13.405l2-.07A50.244,50.244,0,0,0,45.52,15.782a29.937,29.937,0,0,0,5.9-3.921A27.914,27.914,0,0,1,59.975,31H55v2h4.966a28.259,28.259,0,0,1-.23,2.863l1.981.274A30.024,30.024,0,0,0,32,2a30,30,0,1,0,5.171,59.556l-.342-1.971A28.049,28.049,0,0,1,33,59.957ZM18.013,31a49.18,49.18,0,0,1,2.294-14.373A29.975,29.975,0,0,0,31,18.977V31ZM31,4.079v12.9a27.963,27.963,0,0,1-10.013-2.233C23.359,8.7,26.942,4.656,31,4.079Zm2,12.9V4.08c4.029.578,7.621,4.615,10,10.668A27.98,27.98,0,0,1,33,16.977Zm16.927-6.465a28.025,28.025,0,0,1-5.1,3.377,23.607,23.607,0,0,0-5.906-9.022A27.938,27.938,0,0,1,49.927,10.512ZM19.163,13.883a28,28,0,0,1-5.09-3.371A27.929,27.929,0,0,1,25.055,4.873,23.581,23.581,0,0,0,19.163,13.883Zm-6.586-2.022a30.029,30.029,0,0,0,5.9,3.918A50.754,50.754,0,0,0,16.013,31H4.025A27.914,27.914,0,0,1,12.577,11.861ZM4.025,33H16.013a50.7,50.7,0,0,0,2.466,15.241,29.971,29.971,0,0,0-5.889,3.911A27.919,27.919,0,0,1,4.025,33ZM14.089,53.5a28.054,28.054,0,0,1,5.07-3.4,23.6,23.6,0,0,0,5.9,9.02A27.93,27.93,0,0,1,14.089,53.5Z"></path><path d="M47,32A15,15,0,1,0,62,47,15.017,15.017,0,0,0,47,32Zm0,28A13,13,0,1,1,60,47,13.015,13.015,0,0,1,47,60Z"></path><path d="M48,44.184V39H46v5.184A3,3,0,0,0,44.184,46H41v2h3.184A2.993,2.993,0,1,0,48,44.184ZM47,48a1,1,0,1,1,1-1A1,1,0,0,1,47,48Z"></path><rect x="35" y="46" width="2" height="2"></rect><rect x="46" y="57" width="2" height="2"></rect><rect x="57" y="46" width="2" height="2"></rect><rect x="46" y="35" width="2" height="2"></rect></g></svg>