<svg xmlns="http://www.w3.org/2000/svg" viewBox="0 0 64 64" x="0px" y="0px"><g data-name="Handbag"><path d="M55.994,7.1,55.219,4H52.781l-.775,3.1.857,17.128a2.961,2.961,0,0,1,2.274,0Z"></path><circle cx="54" cy="27" r="1"></circle><polygon points="4 54.851 20.219 41.193 4 32.656 4 54.851"></polygon><path d="M41.635,42H39v5a1,1,0,0,1-1,1H26a1,1,0,0,1-1-1V42H22.365L5.74,56H58.26Z"></path><rect x="27" y="42" width="10" height="4"></rect><polygon points="60 32.656 43.781 41.193 60 54.85 60 32.656"></polygon><path d="M5,60H59a1,1,0,0,0,1-1V58H4v1A1,1,0,0,0,5,60Z"></path><path d="M59,30H5a.985.985,0,0,0-.835.483L22.247,40H41.753l18.082-9.517A.984.984,0,0,0,59,30Z"></path></g></svg>