<svg xmlns="http://www.w3.org/2000/svg" viewBox="0 0 64 64" x="0px" y="0px"><g><polygon points="22.174 27 29.782 35.876 27.246 27 22.174 27"></polygon><polygon points="30.132 21 25.868 21 28 24.197 30.132 21"></polygon><polygon points="34.132 25 32 21.803 29.868 25 34.132 25"></polygon><polygon points="38.132 21 33.868 21 36 24.197 38.132 21"></polygon><path d="M34,54H30a1,1,0,0,0,0,2h4a1,1,0,0,0,0-2Z"></path><polygon points="24 21.803 21.869 25 26.132 25 24 21.803"></polygon><polygon points="29.326 27 32 36.36 34.674 27 29.326 27"></polygon><polygon points="37.868 25 42.132 25 40 21.803 37.868 25"></polygon><polygon points="34.218 35.876 41.826 27 36.755 27 34.218 35.876"></polygon><path d="M50,8a4,4,0,0,0-4-4H18a4,4,0,0,0-4,4V56a4,4,0,0,0,4,4H46a4,4,0,0,0,4-4ZM29,6h6V8H29ZM25,6h2V8H25Zm9,52H30a3,3,0,0,1,0-6h4a3,3,0,0,1,0,6ZM44.759,26.65l-12,14a1,1,0,0,1-1.518,0l-12-14a1,1,0,0,1-.073-1.2l4-6A1,1,0,0,1,24,19H40a1,1,0,0,1,.832.445l4,6A1,1,0,0,1,44.759,26.65Z"></path></g></svg>