<svg xmlns="http://www.w3.org/2000/svg" viewBox="0 0 64 64" x="0px" y="0px"><g><path d="M11.414,56H52.586l-4-4H15.414ZM46,53h2v2H46Zm-4,0h2v2H42ZM24,53H40v2H24Zm-4,0h2v2H20Zm-4,0h2v2H16Z"></path><rect x="10" y="58" width="44" height="2"></rect><path d="M19,50H17V48a1,1,0,0,0-1-1H10a3,3,0,0,1,0-6h6a1,1,0,0,0,1-1V38h2v2a3,3,0,0,1-3,3H10a1,1,0,0,0,0,2h6a3,3,0,0,1,3,3Z"></path><path d="M53,9V30H11V9a1,1,0,0,1,1-1h9.63A12,12,0,1,0,42.37,8H52A1,1,0,0,1,53,9Z"></path><path d="M30.6,15.072l-.5,1.545,1.314-.954a1,1,0,0,1,1.176,0l1.314.955-.5-1.546a1,1,0,0,1,.363-1.117L35.078,13H33.453a1,1,0,0,1-.951-.691L32,10.764l0-.012-.5,1.557a1,1,0,0,1-.951.691H28.922l1.315.955A1,1,0,0,1,30.6,15.072Z"></path><path d="M32,24A10,10,0,1,0,22,14,10.011,10.011,0,0,0,32,24ZM27.02,12.382A1.97,1.97,0,0,1,28.922,11h.9l.278-.854a2,2,0,0,1,3.8,0L34.18,11h.9a2,2,0,0,1,1.175,3.617l-.726.529L35.8,16a1.969,1.969,0,0,1-.726,2.236,1.969,1.969,0,0,1-2.351,0L32,17.708l-.727.527A2,2,0,0,1,28.2,16l.277-.854-.726-.529A1.97,1.97,0,0,1,27.02,12.382Z"></path><rect x="23" y="44" width="18" height="2"></rect><rect x="28" y="38" width="8" height="4"></rect><path d="M11,35a1,1,0,0,0,1,1H52a1,1,0,0,0,1-1V32H11Zm36-2h2v2H47Z"></path></g></svg>