<svg xmlns="http://www.w3.org/2000/svg" viewBox="0 0 64 64" x="0px" y="0px"><g data-name="Business-Woman-Avatar-Long-Hair"><path d="M35,16a1.369,1.369,0,0,0,.2-.02.646.646,0,0,0,.18-.06.776.776,0,0,0,.18-.09l.15-.12c.04-.05.08-.1.12-.16a.578.578,0,0,0,.09-.17.6.6,0,0,0,.059-.18A1.234,1.234,0,0,0,36,15a1.052,1.052,0,0,0-.29-.71l-.15-.12a.776.776,0,0,0-.18-.09.646.646,0,0,0-.18-.06,1.018,1.018,0,0,0-.91.27A1,1,0,0,0,35,16Z"></path><path d="M29,16a.99.99,0,0,0,1-1,1,1,0,0,0-.08-.38,1.155,1.155,0,0,0-.21-.33,1.047,1.047,0,0,0-1.42,0,1.155,1.155,0,0,0-.21.33A.838.838,0,0,0,28,15a.99.99,0,0,0,1,1Z"></path><path d="M48.37,32.365A8.983,8.983,0,0,0,51,26a1,1,0,0,0-1-1H46a3,3,0,0,1-3-3V13A11,11,0,0,0,31.212,2.032,11.178,11.178,0,0,0,21,13.31V22a3,3,0,0,1-3,3H14a1,1,0,0,0-1,1,9,9,0,0,0,4.282,7.658A12.921,12.921,0,0,0,15,41V61a1,1,0,0,0,1,1H48a1,1,0,0,0,1-1V41a12.925,12.925,0,0,0-2.284-7.345A9.29,9.29,0,0,0,48.37,32.365ZM15.071,27H18a5.006,5.006,0,0,0,5-5V13.31a9.175,9.175,0,0,1,8.353-9.283A9,9,0,0,1,41,13v9a5.006,5.006,0,0,0,5,5h2.93a6.99,6.99,0,0,1-1.972,3.948,7.148,7.148,0,0,1-1.533,1.124A12.949,12.949,0,0,0,37,28.051V25.188A6,6,0,0,0,40,20V10H38v1H35.721l-.773-2.316a1,1,0,0,0-1.779-.241l-1.7,2.541H26V10H24V20a6,6,0,0,0,3,5.188v2.863a12.951,12.951,0,0,0-8.438,4.036A7,7,0,0,1,15.071,27ZM26,12.984h6a1,1,0,0,0,.831-.443L33.7,11.25l.356,1.066A1,1,0,0,0,35,13h3v7a4,4,0,0,1-4,4H30a4,4,0,0,1-4-4ZM30,26h4a6,6,0,0,0,1-.09v2.739L32,32.4l-3-3.75V25.91A6,6,0,0,0,30,26Zm-1.927,4.693,2.5,3.126-2.13,1.6-1.32-3.3ZM32,35.25l2.763,2.071L32,43.538l-2.763-6.217Zm3.556.167-2.13-1.6,2.5-3.126.949,1.424ZM47,60H43V50.447a8.417,8.417,0,0,0,0-10.894V38H41v2a1,1,0,0,0,.4.8c.9.679,1.6,2.815,1.6,4.2s-.7,3.522-1.6,4.2a1,1,0,0,0-.4.8V60H23V50a1,1,0,0,0-.4-.8c-.9-.679-1.6-2.815-1.6-4.2s.7-3.522,1.6-4.2A1,1,0,0,0,23,40V38H21v1.553a8.417,8.417,0,0,0,0,10.894V60H17V41a11.013,11.013,0,0,1,9-10.81l-.837,1.255a1,1,0,0,0-.1.927l6.015,14.034a1,1,0,0,0,1.828,0l6.015-14.034a1,1,0,0,0-.1-.927l-.837-1.255A11.013,11.013,0,0,1,47,41Z"></path></g></svg>