<svg xmlns="http://www.w3.org/2000/svg" viewBox="0 0 64 64" x="0px" y="0px"><g data-name="Credit Card-Payment Method-Mobile-Payment-Smartphone"><path d="M37,34H34a3,3,0,0,0,0,6h3a3,3,0,0,0,0-6Zm0,4H34a1,1,0,0,1,0-2h3a1,1,0,0,1,0,2Z"></path><path d="M23,24H15a1,1,0,0,0-1,1v6a1,1,0,0,0,1,1h8a1,1,0,0,0,1-1V25A1,1,0,0,0,23,24Zm-7,2h2v4H16Zm6,4H20V26h2Z"></path><rect x="38" y="24" width="2" height="2"></rect><rect x="34" y="24" width="2" height="2"></rect><rect x="30" y="24" width="2" height="2"></rect><rect x="26" y="24" width="2" height="2"></rect><rect x="26" y="28" width="14" height="2"></rect><path d="M53,2H31a7.008,7.008,0,0,0-7,7V20H13a3.009,3.009,0,0,0-3,3v2.26A4.983,4.983,0,0,0,7.02,27.9L3.01,36.59A10.843,10.843,0,0,0,2,41.2V62H4V41.2a8.863,8.863,0,0,1,.83-3.77l4.01-8.69A2.936,2.936,0,0,1,10,27.46V41a3,3,0,0,0,.71,1.9L9.44,45.1l1.73,1,6-10.39a2,2,0,0,1,1.21-.94,2.06,2.06,0,0,1,1.52.2,2.007,2.007,0,0,1,.94,1.23,1.969,1.969,0,0,1-.2,1.52c-1.79,3.08-4.51,7.78-4.51,7.78a1.031,1.031,0,0,0,.01,1.02l2.14,3.56A4.987,4.987,0,0,1,19,52.65V62h2V52.65a7.026,7.026,0,0,0-1-3.6l-1.84-3.06L19.31,44H24v9a7.008,7.008,0,0,0,7,7H53a7.008,7.008,0,0,0,7-7V9A7.008,7.008,0,0,0,53,2ZM20.47,42c.51-.89,1.04-1.8,1.53-2.64V40h2V38H22.7a3.988,3.988,0,0,0,.13-2H24V34H22v.19a3.875,3.875,0,0,0-1.1-.95,4.007,4.007,0,0,0-3.03-.4,3.948,3.948,0,0,0-2.43,1.87L12,40.66V23a1,1,0,0,1,1-1H41a1,1,0,0,1,1,1V41a1,1,0,0,1-1,1ZM58,53a5,5,0,0,1-5,5H31a5,5,0,0,1-5-5V44H41a3.009,3.009,0,0,0,3-3V23a3.009,3.009,0,0,0-3-3H26V9a5,5,0,0,1,5-5H53a5,5,0,0,1,5,5Z"></path><rect x="35" y="6" width="2" height="2"></rect><rect x="39" y="6" width="6" height="2"></rect><path d="M44,50H40a3,3,0,0,0,0,6h4a3,3,0,0,0,0-6Zm0,4H40a1,1,0,0,1,0-2h4a1,1,0,0,1,0,2Z"></path><rect x="34" y="12" width="20" height="2"></rect><rect x="30" y="12" width="2" height="2"></rect><rect x="30" y="16" width="24" height="2"></rect><rect x="48" y="20" width="6" height="2"></rect><rect x="48" y="24" width="6" height="2"></rect><rect x="48" y="28" width="6" height="2"></rect><rect x="48" y="32" width="6" height="2"></rect><rect x="48" y="36" width="6" height="2"></rect><rect x="48" y="40" width="6" height="2"></rect></g></svg>