<svg xmlns="http://www.w3.org/2000/svg" viewBox="0 0 64 64" x="0px" y="0px"><g data-name="Heart Rate"><path d="M42.927,17.388,41.223,4.6A3.01,3.01,0,0,0,38.249,2h-12.5a3.01,3.01,0,0,0-2.974,2.6l-1.7,12.784A5.006,5.006,0,0,0,18,22V42a5.006,5.006,0,0,0,3.073,4.612l1.7,12.784A3.01,3.01,0,0,0,25.751,62h12.5a3.01,3.01,0,0,0,2.974-2.6l1.7-12.784A5.006,5.006,0,0,0,46,42V22A5.006,5.006,0,0,0,42.927,17.388ZM24.76,4.868A1,1,0,0,1,25.751,4h12.5a1,1,0,0,1,.991.868L40.858,17H23.142ZM39.24,59.132a1,1,0,0,1-.991.868h-12.5a1,1,0,0,1-.991-.868L23.142,47H40.858ZM44,42a3,3,0,0,1-3,3H23a3,3,0,0,1-3-3V22a3,3,0,0,1,3-3H41a3,3,0,0,1,3,3Z"></path><path d="M23,22h1V20H23a2,2,0,0,0-2,2v1h2Z"></path><path d="M36.685,24a5.16,5.16,0,0,0-3.778,1.652L32,26.613l-.907-.961a5.146,5.146,0,0,0-7.556,0,5.784,5.784,0,0,0,0,7.838l7.736,8.2a1,1,0,0,0,1.454,0l7.736-8.2a5.784,5.784,0,0,0,0-7.838A5.158,5.158,0,0,0,36.685,24Zm2.324,8.117L32,39.543l-7.009-7.426a3.758,3.758,0,0,1,0-5.092,3.147,3.147,0,0,1,4.648,0l1.634,1.731a1.029,1.029,0,0,0,1.454,0l1.634-1.731a3.219,3.219,0,0,1,4.648,0A3.758,3.758,0,0,1,39.009,32.117Z"></path></g></svg>