<svg xmlns="http://www.w3.org/2000/svg" viewBox="0 0 64 64" x="0px" y="0px"><g><path d="M49,26A11,11,0,1,0,38,15,11.013,11.013,0,0,0,49,26ZM44.051,11.464l1.414-1.414L49,13.586l3.535-3.536,1.414,1.414L50.414,15l3.535,3.536L52.535,19.95,49,16.414,45.465,19.95l-1.414-1.414L47.586,15Z"></path><path d="M5.04,43H4V57H60V43H50.96a7,7,0,0,1-5.389-2.53l-.546-.667A4.993,4.993,0,0,0,41.18,38h-.9a21.528,21.528,0,0,0-.62,2.523l-1.39,8A3,3,0,0,1,35.32,51H33.76a3.015,3.015,0,0,1-2.982-2.609l-1.1-8.523A1,1,0,0,0,28.69,39H27.31a1,1,0,0,0-.989.87l-1.1,8.518A3.017,3.017,0,0,1,22.24,51H20.68a3,3,0,0,1-2.954-2.474l-1.391-8.005A21.5,21.5,0,0,0,15.715,38H14.82a5,5,0,0,0-3.851,1.81l-.534.653A7,7,0,0,1,5.04,43Z"></path><path d="M34.865,17.045a8.876,8.876,0,0,0-4.632.791,5.265,5.265,0,0,1-4.464,0A8.986,8.986,0,0,0,14.6,31.107a22.489,22.489,0,0,1,2.807,5.573,23.629,23.629,0,0,1,.9,3.5l1.389,8A1,1,0,0,0,20.68,49h1.56a1.008,1.008,0,0,0,1-.871l1.1-8.517A3.008,3.008,0,0,1,27.31,37h1.38a3.006,3.006,0,0,1,2.971,2.61l1.1,8.522a1.006,1.006,0,0,0,1,.868h1.56a1,1,0,0,0,.986-.826l1.388-7.994a23.659,23.659,0,0,1,.9-3.5,22.517,22.517,0,0,1,2.8-5.566,8.825,8.825,0,0,0,1.565-4.61,13.022,13.022,0,0,1-6.745-9.2A8.221,8.221,0,0,0,34.865,17.045ZM28,23a9.524,9.524,0,0,1-5.589-1.693l1.178-1.616a8.086,8.086,0,0,0,8.822,0l1.178,1.616A9.524,9.524,0,0,1,28,23Z"></path></g></svg>