<svg xmlns="http://www.w3.org/2000/svg" viewBox="0 0 64 64" x="0px" y="0px"><g><path d="M55.707,56.293l-6-6A1,1,0,0,0,49,50H19V48a3,3,0,0,0-3-3H10a1,1,0,0,1,0-2h6a3,3,0,0,0,3-3V38h7v4H22a1,1,0,0,0-1,1v4a1,1,0,0,0,1,1H42a1,1,0,0,0,1-1V43a1,1,0,0,0-1-1H38V38H52a3,3,0,0,0,3-3V9a3,3,0,0,0-3-3H44V8h8a1,1,0,0,1,1,1V30H11V9a1,1,0,0,1,1-1h8V6H12A3,3,0,0,0,9,9V35a3,3,0,0,0,3,3h5v2a1,1,0,0,1-1,1H10a3,3,0,0,0,0,6h6a1,1,0,0,1,1,1v2H15a1,1,0,0,0-.707.293l-6,6A1,1,0,0,0,8,57v3a2,2,0,0,0,2,2H54a2,2,0,0,0,2-2V57A1,1,0,0,0,55.707,56.293ZM41,46H23V44H41Zm-5-4H28V38h8ZM11,35V32H53v3a1,1,0,0,1-1,1H12A1,1,0,0,1,11,35Zm4.414,17H48.586l4,4H11.414ZM10,60V58H54v2Z"></path><rect x="16" y="53" width="2" height="2"></rect><rect x="20" y="53" width="2" height="2"></rect><rect x="42" y="53" width="2" height="2"></rect><rect x="24" y="53" width="16" height="2"></rect><rect x="46" y="53" width="2" height="2"></rect><rect x="47" y="33" width="2" height="2"></rect><path d="M31.293,20.188a1,1,0,0,0,1.414,0l5.02-5.021a4,4,0,0,0,0-5.653A4.027,4.027,0,0,0,34.9,8.34a3.971,3.971,0,0,0-2.827,1.173L32,9.586l-.073-.073A3.971,3.971,0,0,0,29.1,8.34a4.026,4.026,0,0,0-2.827,1.173,4,4,0,0,0,0,5.654Zm-3.605-9.262A2.012,2.012,0,0,1,29.1,10.34a1.986,1.986,0,0,1,1.413.587l.78.78a1,1,0,0,0,1.414,0l.78-.78a2.051,2.051,0,0,1,2.825,0,2,2,0,0,1,0,2.826L32,18.066l-4.313-4.313a2,2,0,0,1,0-2.827Z"></path><path d="M32,26A12,12,0,1,0,20,14,12.013,12.013,0,0,0,32,26ZM32,4A10,10,0,1,1,22,14,10.011,10.011,0,0,1,32,4Z"></path></g></svg>