<svg xmlns="http://www.w3.org/2000/svg" viewBox="0 0 64 64" x="0px" y="0px"><g><circle cx="32" cy="29" r="1"></circle><polygon points="13 15 11.7 15 13 17.34 13 15"></polygon><path d="M11,54H53V17.859l-1.983,3.569A5,5,0,0,1,46.646,24H17.354a5,5,0,0,1-4.371-2.572L11,17.858ZM32,26a2.993,2.993,0,0,1,1,5.816V39H31V31.816A2.993,2.993,0,0,1,32,26Z"></path><path d="M41.105,6.553a1.042,1.042,0,0,1,1.79,0l.1.211V4H41V6.764Z"></path><path d="M16,4a1,1,0,0,0-1,1V20.817A2.979,2.979,0,0,0,17.354,22H46.646A2.98,2.98,0,0,0,49,20.817V5a1,1,0,0,0-1-1H45v7a1,1,0,0,1-1.9.447L42,9.236l-1.1,2.211A1,1,0,0,1,39,11V4Zm9,4H37v2H25ZM19,8h4v2H19Zm0,4H37v2H19Zm14,8H19V18H33Zm12-2v2H35V18Z"></path><polygon points="51 15 51 17.341 52.3 15 51 15"></polygon><path d="M11,59a1,1,0,0,0,1,1H52a1,1,0,0,0,1-1V56H11Z"></path></g></svg>