<svg xmlns="http://www.w3.org/2000/svg" viewBox="0 0 64 64" x="0px" y="0px"><g><path d="M25.6,16.072l-.5,1.545,1.314-.954a1,1,0,0,1,1.176,0l1.314.955-.5-1.546a1,1,0,0,1,.363-1.117L30.078,14H28.453a1,1,0,0,1-.951-.691L27,11.764l0-.012-.5,1.557a1,1,0,0,1-.951.691H23.922l1.315.955A1,1,0,0,1,25.6,16.072Z"></path><path d="M8,60H46a1,1,0,0,0,1-1V50H39.81a.986.986,0,0,0-.85.48l-2.21,3.59a4.059,4.059,0,0,1-7.51-2.42L30,40.93A7.006,7.006,0,0,1,37,34H47V5a1,1,0,0,0-1-1H17v6a1.008,1.008,0,0,1-.71.96A.967.967,0,0,1,16,11a.984.984,0,0,1-.83-.45L14,8.8l-1.17,1.75a.992.992,0,0,1-1.12.41A1.008,1.008,0,0,1,11,10V4H8A1,1,0,0,0,7,5V59A1,1,0,0,0,8,60ZM29,36H17V34H29ZM22.02,13.382A1.97,1.97,0,0,1,23.922,12h.9l.278-.854a2,2,0,0,1,3.8,0L29.18,12h.9a2,2,0,0,1,1.175,3.617l-.726.529L30.8,17a1.969,1.969,0,0,1-.726,2.236,1.969,1.969,0,0,1-2.351,0L27,18.708l-.727.527A2,2,0,0,1,23.2,17l.277-.854-.726-.529A1.97,1.97,0,0,1,22.02,13.382ZM16,24H38v2H16Zm-3,4H41v2H13Zm0,6h2v2H13Zm0,4H27v2H13Zm0,4H27v2H13Zm0,4H27v2H13Zm0,4H27v2H13Z"></path><path d="M51,48H50a.967.967,0,0,1-.55-.17L46.7,46H41.3l-2.75,1.83A.967.967,0,0,1,38,48H37a6.985,6.985,0,0,1-5.32-2.46l-.45,6.25A2.07,2.07,0,0,0,33.29,54a2.074,2.074,0,0,0,1.75-.98l2.21-3.59A2.989,2.989,0,0,1,39.81,48h8.38a2.989,2.989,0,0,1,2.56,1.43l2.21,3.59a2.074,2.074,0,0,0,1.75.98,2.07,2.07,0,0,0,2.06-2.21l-.45-6.25A6.985,6.985,0,0,1,51,48Z"></path><path d="M13.17,6.45a.99.99,0,0,1,1.66,0L15,6.7V4H13V6.7Z"></path><path d="M32,41a5,5,0,0,0,5,5h.7l2.75-1.83A.967.967,0,0,1,41,44h6a.967.967,0,0,1,.55.17L50.3,46H51a5,5,0,0,0,0-10H37A5,5,0,0,0,32,41Zm16-1h2V38h2v2h2v2H52v2H50V42H48Zm-5-2h2v2H43Zm-3,2v2H38v2H36V42H34V40h2V38h2v2Z"></path><rect x="50" y="40" width="2" height="2"></rect></g></svg>