<svg xmlns="http://www.w3.org/2000/svg" viewBox="0 0 64 64" x="0px" y="0px"><g data-name="Cctv Camera-Security-Security Camera-Smartphone-Online"><path d="M56,10H40v8a8,8,0,0,0,16,0Zm-4.465,3.05,1.414,1.414-1.414,1.414-1.414-1.414ZM47,12h2v2H47Zm-5,7V17h2v2Zm2.465,3.95-1.414-1.414,1.414-1.414,1.414,1.414Zm0-7.072-1.414-1.414,1.414-1.414,1.414,1.414ZM49,24H47V22h2Zm-1-4a2,2,0,1,1,2-2A2,2,0,0,1,48,20Zm3.535,2.95-1.414-1.414,1.414-1.414,1.414,1.414ZM54,19H52V17h2Z"></path><path d="M58,7V4H38V7a1,1,0,0,0,1,1H57A1,1,0,0,0,58,7Z"></path><path d="M32,24H6V52H32ZM19,43l-1.414-1.414a2,2,0,0,1,2.828,0Zm2.121-3.122a3.074,3.074,0,0,0-4.242,0l-1.414-1.414a5,5,0,0,1,7.07,0ZM23.95,37.05a7.011,7.011,0,0,0-9.9,0l-1.414-1.414a9.01,9.01,0,0,1,12.728,0Z"></path><path d="M32,54H6v3a3,3,0,0,0,3,3H29a3,3,0,0,0,3-3ZM20,58H18V56h2Z"></path><path d="M32,19a3,3,0,0,0-3-3H9a3,3,0,0,0-3,3v3H32ZM22,20H16V18h6Z"></path></g></svg>