<svg xmlns="http://www.w3.org/2000/svg" viewBox="0 0 64 64" x="0px" y="0px"><g data-name="Mobile Phone-Cellphone-Vintage-Communication-Technology"><path d="M48,2H16A7.008,7.008,0,0,0,9,9V55a7.008,7.008,0,0,0,7,7H48a7.009,7.009,0,0,0,7-7V9A7.009,7.009,0,0,0,48,2Zm5,53a5.006,5.006,0,0,1-5,5H16a5.006,5.006,0,0,1-5-5V9a5.006,5.006,0,0,1,5-5H48a5.006,5.006,0,0,1,5,5Z"></path><path d="M44,6H20a5.006,5.006,0,0,0-5,5V53a5.006,5.006,0,0,0,5,5H44a5.006,5.006,0,0,0,5-5V11A5.006,5.006,0,0,0,44,6ZM20,8H44a3,3,0,0,1,3,3v1H17V11A3,3,0,0,1,20,8Zm27,6V36H17V14ZM44,56H20a3,3,0,0,1-3-3V38H47V53A3,3,0,0,1,44,56Z"></path><path d="M33,44H31a2,2,0,0,0-2,2v2a2,2,0,0,0,2,2h2a2,2,0,0,0,2-2V46A2,2,0,0,0,33,44Zm-2,4V46h2l0,2Z"></path><path d="M39,43a3,3,0,0,0-3-3H28a3,3,0,0,0-3,3v3H19v2h6v3a3,3,0,0,0,3,3h8a3,3,0,0,0,3-3V48h6V46H39Zm-2,8a1,1,0,0,1-1,1H28a1,1,0,0,1-1-1V43a1,1,0,0,1,1-1h8a1,1,0,0,1,1,1Z"></path><rect x="41" y="42" width="4" height="2"></rect><rect x="41" y="50" width="4" height="2"></rect><rect x="19" y="42" width="4" height="2"></rect><rect x="19" y="50" width="4" height="2"></rect><path d="M21,19a1,1,0,0,1,1-1h2V16H22a3,3,0,0,0-3,3v2h2Z"></path><rect x="19" y="23" width="2" height="2"></rect></g></svg>