<svg xmlns="http://www.w3.org/2000/svg" viewBox="0 0 64 64" x="0px" y="0px"><g data-name="skyscraper-building-tower-city-real estate"><path d="M51,60V8H49V3H47V8H45V5H43V8H41V22h3a1,1,0,0,1,1,1V60H43V24H25V60H23V16H21V13H19v3H17V9H15v7H13V60H7v2H57V60ZM47,10h2v2H47Zm0,4h2v2H47Zm0,4h2v2H47Zm0,4h2v2H47Zm0,4h2v2H47Zm0,4h2v2H47Zm0,4h2v2H47Zm0,4h2v2H47Zm0,4h2v2H47Zm0,4h2v2H47Zm0,4h2v2H47Zm0,4h2v2H47ZM43,10h2v2H43Zm0,4h2v2H43Zm0,6V18h2v2ZM19,18h2v2H19Zm0,4h2v2H19Zm0,4h2v2H19Zm0,4h2v2H19Zm0,4h2v2H19Zm0,4h2v2H19Zm0,4h2v2H19Zm0,4h2v2H19Zm0,4h2v2H19Zm0,4h2v2H19ZM15,18h2v2H15Zm0,4h2v2H15Zm0,4h2v2H15Zm0,4h2v2H15Zm0,4h2v2H15Zm0,4h2v2H15Zm0,4h2v2H15Zm0,4h2v2H15Zm0,4h2v2H15Zm0,4h2v2H15ZM39,26h2v2H39Zm0,4h2v2H39Zm0,4h2v2H39Zm0,4h2v2H39Zm0,4h2v2H39Zm0,4h2v2H39Zm0,4h2v2H39ZM35,26h2v2H35Zm0,4h2v2H35Zm0,4h2v2H35Zm0,4h2v2H35Zm0,4h2v2H35Zm0,4h2v2H35Zm0,4h2v2H35ZM31,26h2v2H31Zm0,4h2v2H31Zm0,4h2v2H31Zm0,4h2v2H31Zm0,4h2v2H31Zm0,4h2v2H31Zm0,4h2v2H31ZM27,26h2v2H27Zm0,4h2v2H27Zm0,4h2v2H27Zm0,4h2v2H27Zm0,4h2v2H27Zm0,4h2v2H27Zm0,4h2v2H27ZM37,60V56H35v4H33V56H31v4H29V55a1,1,0,0,1,1-1h8a1,1,0,0,1,1,1v5Z"></path></g></svg>