<svg xmlns="http://www.w3.org/2000/svg" viewBox="0 0 64 64" x="0px" y="0px"><g data-name="Web Design"><path d="M52,45V42H4v3a3,3,0,0,0,3,3H49A3,3,0,0,0,52,45Zm-4,1H46V44h2Z"></path><rect x="35" y="23" width="2" height="1"></rect><path d="M39,23v2a1,1,0,0,1-1,1H34a1,1,0,0,1-1-1V23H32a2,2,0,0,1-2-2V15a2,2,0,0,1,2-2h1V12H7a3,3,0,0,0-3,3V40H52V23ZM20.293,17.707l1.414-1.414,3,3a1,1,0,0,1,0,1.414l-3,3-1.414-1.414L22.586,20Zm-3.23-2.058,1.874.7-3,8-1.874-.7Zm-8.77,3.644,3-3,1.414,1.414L10.414,20l2.293,2.293-1.414,1.414-3-3A1,1,0,0,1,8.293,19.293ZM8,28h4v2H8Zm6,6H10V32h4Zm0-6H24v2H14Zm12,6H16V32H26Zm6,0H28V32h4Zm10,0H34V32h8Z"></path><path d="M60,15H32v6H60ZM36,19H34V17h2Zm4,0H38V17h2Zm4,0H42V17h2Zm6,1H48V16h2Zm4,0H52V16h2Zm4,0H56V16h2Z"></path><rect x="55" y="23" width="2" height="1"></rect><path d="M32,10H60V4H32ZM56,5h2V9H56ZM52,5h2V9H52ZM48,5h2V9H48ZM42,6h2V8H42ZM38,6h2V8H38ZM34,6h2V8H34Z"></path><rect x="35" y="12" width="2" height="1"></rect><rect x="55" y="12" width="2" height="1"></rect><path d="M49,12H39v1H51.216A2.967,2.967,0,0,0,49,12Z"></path><polygon points="34.117 50 21.883 50 21.133 56 34.867 56 34.117 50"></polygon><polygon points="39 58 35.117 58 20.883 58 17 58 17 60 39 60 39 58"></polygon></g></svg>