<svg xmlns="http://www.w3.org/2000/svg" viewBox="0 0 64 64" x="0px" y="0px"><path d="M44,27.586V23.3L42.845,21.57,42,22.414V23H40V22a1,1,0,0,1,.293-.707L42,19.586V16.414L40.586,15H38.414L37,16.414V17H35V16a1,1,0,0,1,.293-.707l1.563-1.563L36.279,12H34.414L33,13.414V34.586L34.414,36h1.865l.577-1.73-1.563-1.563A1,1,0,0,1,35,32V31h2v.586l1.307,1.307L41,32.219V27h2v1.586ZM35,22V19h2v2.586l1.707,1.707-1.414,1.414-2-2A1,1,0,0,1,35,22Zm4,8H37V28.414l-.707-.707,1.414-1.414,1,1A1,1,0,0,1,39,28Z"></path><path d="M28.707,32.707,27.144,34.27,27.721,36h1.865L31,34.586V13.414L29.586,12H27.721l-.577,1.73,1.563,1.563A1,1,0,0,1,29,16v1H27v-.586L25.586,15H23.414L22,16.414v3.172l1.707,1.707A1,1,0,0,1,24,22v1H22v-.586l-.845-.844L20,23.3v4.283l1,1V27h2v5.219l2.693.674L27,31.586V31h2v1A1,1,0,0,1,28.707,32.707ZM27,28.414V30H25V28a1,1,0,0,1,.293-.707l1-1,1.414,1.414Zm1.707-5.707-2,2-1.414-1.414L27,21.586V19h2v3A1,1,0,0,1,28.707,22.707Z"></path><path d="M40,44H24a2,2,0,0,0,0,4H40a2,2,0,0,0,0-4Z"></path><path d="M38,50H26a2,2,0,0,0,0,4H38a2,2,0,0,0,0-4Z"></path><path d="M28,56a4,4,0,0,0,8,0Z"></path><rect x="31" y="2" width="2" height="4"></rect><rect x="25.823" y="4.681" width="2" height="2" transform="matrix(0.966, -0.259, 0.259, 0.966, -0.557, 7.134)"></rect><rect x="16.858" y="9.858" width="2" height="2" transform="translate(-2.446 15.815) rotate(-45.02)"></rect><rect x="11.682" y="18.824" width="2" height="2" transform="translate(-9.749 26.943) rotate(-75)"></rect><rect x="11.682" y="29.176" width="2" height="2" transform="translate(-7.378 4.31) rotate(-15)"></rect><rect x="16.858" y="38.142" width="2" height="2" transform="translate(-22.442 24.078) rotate(-44.98)"></rect><rect x="45.142" y="38.142" width="2" height="2" transform="translate(-14.161 44.113) rotate(-45.02)"></rect><rect x="50.318" y="29.176" width="2" height="2" transform="translate(8.888 71.936) rotate(-75)"></rect><rect x="50.318" y="18.824" width="2" height="2" transform="translate(-3.382 13.958) rotate(-15)"></rect><rect x="45.142" y="9.858" width="2" height="2" transform="translate(5.828 35.794) rotate(-44.98)"></rect><rect x="36.177" y="4.682" width="2" height="2" transform="translate(22.067 40.121) rotate(-75)"></rect><rect x="20.5" y="4.814" width="2" height="4" transform="translate(-0.526 11.663) rotate(-30.002)"></rect><rect x="12.813" y="12.5" width="2" height="4.001" transform="translate(-5.65 19.215) rotate(-60.005)"></rect><rect x="9" y="24" width="4" height="2"></rect><rect x="11.813" y="34.5" width="4.001" height="2" transform="translate(-15.897 11.66) rotate(-29.995)"></rect><rect x="49.186" y="33.5" width="2" height="4.001" transform="translate(-5.648 61.218) rotate(-60.005)"></rect><rect x="51" y="24" width="4" height="2"></rect><rect x="48.186" y="13.5" width="4.001" height="2" transform="translate(-0.527 27.031) rotate(-29.995)"></rect><rect x="40.5" y="5.813" width="4" height="2" transform="translate(15.352 40.215) rotate(-60.005)"></rect></svg>