<svg xmlns="http://www.w3.org/2000/svg" viewBox="0 0 64 64" x="0px" y="0px"><g><path d="M61,21a5.006,5.006,0,0,0-5,5v5H48.618L46.9,27.553A1,1,0,0,0,46,27H33a3,3,0,0,1-3-3V16.414l1.293,1.293A1,1,0,0,0,32,18h2a1,1,0,0,0,1-1V12.414l.707-.707A1,1,0,0,0,36,11V8a1,1,0,0,0-.2-.6l-3-4A1,1,0,0,0,32,3H27.118L26.9,2.553A1,1,0,0,0,26,2H13a1,1,0,0,0-.8.4l-.45.6H6a1,1,0,0,0-.8.4l-3,4A1,1,0,0,0,2,8v3a1,1,0,0,0,.293.707L3,12.414V17a1,1,0,0,0,1,1H6a1,1,0,0,0,.832-.445L8.535,15h.078l-.562,1.684A1,1,0,0,0,8,17v6a1,1,0,0,0,.293.707L10,25.414V61a1,1,0,0,0,1,1h6a1,1,0,0,0,1-1V47h4V61a1,1,0,0,0,1,1h6a1,1,0,0,0,1-1V47h5V57a1,1,0,0,0,1,1h6a1,1,0,0,0,1-1V46.576A4.95,4.95,0,0,0,45,47V61a1,1,0,0,0,1,1h6a1,1,0,0,0,1-1V40a1,1,0,0,0-.1-.447L51.618,37H59a3,3,0,0,0,3-3V22A1,1,0,0,0,61,21ZM31.5,5,34,8.333v2.253l-.707.707A1,1,0,0,0,33,12v4h-.586L30,13.586V9a1,1,0,0,0-.105-.447L28.118,5ZM28,9.236v11.4l-1,1.2V15a1,1,0,0,0-.553-.895L19,10.382V4h6.382ZM10,22.586V17.162l.8-2.393,7.145-2.679L25,15.618v8.62L23.532,26H13.414ZM13.5,4H17v6.307l-6,2.25V7.333ZM8,13a1,1,0,0,0-.832.445L5.465,16H5V12a1,1,0,0,0-.293-.707L4,10.586V8.333L6.5,5h3.75L9.2,6.4A1,1,0,0,0,9,7v6Zm4,47V58h4v2Zm5.5-15L16,43h1a1,1,0,0,0,.994-.89l.5-4.474,1.56,4.68a1,1,0,0,0,1.4.579l1.841-.921L22.279,45ZM24,60V58h4v2ZM37,46.743l4-1.2V52H37ZM37,56V54h4v2Zm10,4V58h4v2Zm4-4H47V46a1,1,0,0,0-1-1H45a3,3,0,0,1-3-3V36H40v6a4.953,4.953,0,0,0,.3,1.661L35.853,45H30.618l.277-.553A1,1,0,0,0,31,44V40a1,1,0,0,0-.105-.447l-1-2-1.79.894L29,40.236v3.528l-.895,1.789.01,0A.978.978,0,0,0,28,46V56H24V46.163l1.949-5.847a1,1,0,0,0-1.4-1.211L21.584,40.59l-2.635-7.906a1,1,0,0,0-1.943.206l-.9,8.11H14a1,1,0,0,0-.8,1.6L16,46.333V56H12V27.414l.293.293A1,1,0,0,0,13,28H24a1,1,0,0,0,.768-.36L28,23.762V24a5.006,5.006,0,0,0,5,5H45.382L51,40.236Zm9-22a1,1,0,0,1-1,1H50.618l-1-2H57a1,1,0,0,0,1-1V26a3.006,3.006,0,0,1,2-2.829Z"></path><rect x="21" y="9" width="2" height="2"></rect><rect x="13" y="9" width="2" height="2"></rect><path d="M17,25h2a3,3,0,0,0,3-3,1,1,0,0,0,.707-.293l1-1A1,1,0,0,0,24,20V18H22v1.586L21.586,20H20.414L19,18.586V17a1,1,0,0,0,.707-.293l1-1A1,1,0,0,0,21,15V14H19v.586L18.586,15H17.414L17,14.586V14H15v1a1,1,0,0,0,.293.707l1,1A1,1,0,0,0,17,17v1.586L15.586,20H14.414L14,19.586V18H12v2a1,1,0,0,0,.293.707l1,1A1,1,0,0,0,14,22,3,3,0,0,0,17,25Zm1-4.586,1.293,1.293A1,1,0,0,0,20,22a1,1,0,0,1-1,1H17a1,1,0,0,1-1-1,1,1,0,0,0,.707-.293Z"></path></g></svg>