<svg xmlns="http://www.w3.org/2000/svg" viewBox="0 0 48 48" x="0px" y="0px"><title>Entertain-Music</title><g><path d="M24,0A24,24,0,1,0,48,24,24.028,24.028,0,0,0,24,0Zm0,46A22,22,0,1,1,46,24,22.025,22.025,0,0,1,24,46Z"></path><path d="M24,9A15,15,0,1,0,39,24,15.017,15.017,0,0,0,24,9Zm0,28A13,13,0,1,1,37,24,13.015,13.015,0,0,1,24,37Z"></path><path d="M29.469,23.116l-8-4.242A1,1,0,0,0,20,19.758v8.484a1,1,0,0,0,1,1,1.014,1.014,0,0,0,.469-.116l8-4.242a1,1,0,0,0,0-1.768ZM22,26.58V21.42L26.865,24Z"></path></g></svg>