<svg xmlns="http://www.w3.org/2000/svg" viewBox="0 0 64 64" x="0px" y="0px"><g><rect x="16" y="16" width="2" height="4"></rect><rect x="46" y="16" width="2" height="4"></rect><polygon points="7 10 7 12 13.28 12 13.78 14 50.219 14 50.719 12 57 12 57 10 7 10"></polygon><circle cx="32" cy="37" r="1"></circle><path d="M39.294,31.634l.811-.468A10.07,10.07,0,0,0,37.834,28.9l-.468.811-1.732-1,.47-.815a9.875,9.875,0,0,0-3.1-.84V28H31v-.949a9.9,9.9,0,0,0-3.1.84l.47.815-1.732,1-.468-.811A10.07,10.07,0,0,0,23.9,31.166l.811.468-1,1.732-.815-.47a9.9,9.9,0,0,0-.84,3.1H23v2h-.949a9.9,9.9,0,0,0,.84,3.1l.815-.47,1,1.732-.811.468a9.967,9.967,0,0,0,16.21,0l-.811-.468,1-1.732.815.47a9.894,9.894,0,0,0,.84-3.1H41V36h.949a9.894,9.894,0,0,0-.84-3.1l-.815.47ZM35,37a3,3,0,1,1-3-3,2.951,2.951,0,0,1,1.285.3l3.008-3.008,1.414,1.414L34.7,35.715A2.951,2.951,0,0,1,35,37Z"></path><path d="M59.611,45.509,52.484,22.7a1,1,0,0,0-.955-.7H12.471a1,1,0,0,0-.955.7L4.389,45.509A5,5,0,0,0,9.161,52H54.839a5,5,0,0,0,4.772-6.491ZM32,49A12,12,0,1,1,44,37,12.013,12.013,0,0,1,32,49Z"></path></g></svg>