<svg xmlns="http://www.w3.org/2000/svg" viewBox="0 0 64 64" x="0px" y="0px"><g data-name="Home Automation-Internet of Things-Application-Internet-Network"><path d="M19,24a5.017,5.017,0,0,1-4.9-4H7v8H18V26h2v2.1A5.017,5.017,0,0,1,24,33v5h7V20H23.9A5.017,5.017,0,0,1,19,24Zm-7.071,3.485-1.414-1.414,2.828-2.828,1.414,1.414Zm15.556-1.414-1.414,1.414-2.828-2.828,1.414-1.414Z"></path><path d="M24,40V57a4.924,4.924,0,0,1-1.03,3H31V40Z"></path><path d="M32,4.59,21.1,18H42.9ZM32,16a3,3,0,1,1,3-3A3,3,0,0,1,32,16Z"></path><circle cx="32" cy="13" r="1"></circle><path d="M7,60H19a3.009,3.009,0,0,0,3-3V54H4v3A3.009,3.009,0,0,0,7,60Zm5-4h2v2H12Z"></path><path d="M4,52H22V36H4Zm8-12.9V38h2v1.1a5,5,0,1,1-2,0Z"></path><path d="M19,22a3.01,3.01,0,0,0,2.82-2H16.18A3.01,3.01,0,0,0,19,22Z"></path><polygon points="9.57 10 4.77 18 18.52 18 25.02 10 9.57 10"></polygon><path d="M13,47a2.993,2.993,0,0,0,1-5.816V44H12V41.184A2.993,2.993,0,0,0,13,47Z"></path><path d="M45,22a3.01,3.01,0,0,0,2.82-2H42.18A3.01,3.01,0,0,0,45,22Z"></path><path d="M22,33a3.009,3.009,0,0,0-3-3H7a3.009,3.009,0,0,0-3,3v1H22Z"></path><path d="M47.82,40H42.18a2.988,2.988,0,0,0,5.64,0Z"></path><polygon points="54.43 10 38.98 10 45.48 18 59.23 18 54.43 10"></polygon><path d="M57,20H49.9a5,5,0,0,1-9.8,0H33V38H57ZM37.929,27.485l-1.414-1.414,2.828-2.828,1.414,1.414ZM46,30H44V26h2Zm6.071-2.515-2.828-2.828,1.414-1.414,2.828,2.828Z"></path><path d="M57,40H49.9a5,5,0,0,1-9.8,0H33V60H57ZM37.929,47.485l-1.414-1.414,2.828-2.828,1.414,1.414ZM46,50H44V46h2Zm6.071-2.515-2.828-2.828,1.414-1.414,2.828,2.828Z"></path></g></svg>