<svg xmlns="http://www.w3.org/2000/svg" viewBox="0 0 64 64" x="0px" y="0px"><g data-name="Time Management"><circle cx="32" cy="32" r="1"></circle><path d="M36.59,7.8,36.116,4H27.883l-.472,3.8A1.99,1.99,0,0,1,29,7h6A1.992,1.992,0,0,1,36.59,7.8Z"></path><path d="M32,14c.338,0,.667.032,1,.051V13H31v1.051C31.333,14.032,31.662,14,32,14Z"></path><rect x="29" y="9" width="6" height="2"></rect><polygon points="25 43 19 43 19 51.685 19 60 21 60 21 48 23 48 23 60 25 60 25 54.2 24.987 52.733 25.001 52.739 25 43"></polygon><polygon points="23 27.123 22.219 24 21.781 24 21 27.123 21 28 23 28 23 27.123"></polygon><path d="M36.117,60l.814-6.545.654-.172h.006c.068-.018.135-.042.2-.061a22.088,22.088,0,0,0,3.694-1.38c.543-.261,1.079-.537,1.6-.842l.01,0,.58-.339,5.207,4.053,5.821-5.821L50.655,43.68l.335-.573L51,43.09a22.249,22.249,0,0,0,2.2-5.212c.027-.1.061-.191.086-.288v-.005l.172-.654L60,36.117V27.883l-6.545-.814-.172-.654v0c-.029-.112-.068-.22-.1-.331A21.671,21.671,0,0,0,51,20.91l-.007-.017-.335-.573,4.053-5.208-5.821-5.82L43.68,13.345l-.58-.339-.01,0c-.5-.292-1.015-.559-1.537-.812-.161-.078-.326-.149-.489-.223-.364-.165-.731-.321-1.1-.465a22.036,22.036,0,0,0-2.377-.785L37,10.563V11a2,2,0,0,1-2,2v1.271a17.885,17.885,0,0,1,7.412,3.073l1.611-1.611a1,1,0,0,1,1.414,0l2.83,2.83a1,1,0,0,1,0,1.414l-1.611,1.611A17.971,17.971,0,0,1,32,50a18.185,18.185,0,0,1-3.175-.279l.35-1.969A16,16,0,1,0,16,32a15.873,15.873,0,0,0,1.415,6.588l-1.822.824a17.945,17.945,0,0,1,1.751-17.824l-1.611-1.611a1,1,0,0,1,0-1.414l2.829-2.83a1,1,0,0,1,1.415,0l1.611,1.611A17.885,17.885,0,0,1,29,14.271V13a2,2,0,0,1-2-2v-.437l-.585.154a22.036,22.036,0,0,0-2.377.785c-.371.144-.738.3-1.1.465-.163.074-.328.145-.489.223-.522.253-1.037.52-1.537.812l-.01,0-.58.339L15.113,9.292l-5.821,5.82,4.053,5.208-.335.573L13,20.91a21.721,21.721,0,0,0-2.181,5.155c-.032.115-.073.229-.1.345v0l-.172.654L4,27.883v8.234l6.545.814.172.654v.005c.025.1.059.191.086.288A22.249,22.249,0,0,0,13,43.09l.007.017.335.573L9.292,48.887l5.821,5.821L17,53.241V43a2,2,0,0,1,2-2h2V30H20a1,1,0,0,1-1-1V27a1,1,0,0,1,.03-.243l1-4A1,1,0,0,1,21,22h2a1,1,0,0,1,.97.757l1,4A1,1,0,0,1,25,27v2a1,1,0,0,1-1,1H23V41h2a2,2,0,0,1,2,2V53.4l.063.012L27.883,60h8.234Zm.216-40.26A13.016,13.016,0,0,1,44.26,36.334l-1.885-.667a11.017,11.017,0,0,0-6.708-14.041ZM32,19a13.136,13.136,0,0,1,2.166.18l-.332,1.972A11.1,11.1,0,0,0,32,21Zm0,10a3,3,0,0,1,3,3,2.951,2.951,0,0,1-.3,1.285l5.008,5.008-1.414,1.414L33.285,34.7A2.951,2.951,0,0,1,32,35a3,3,0,0,1,0-6Z"></path><path d="M17.854,19.27l.75.75A18.191,18.191,0,0,1,20.02,18.6l-.75-.75Z"></path><path d="M44.73,17.854l-.75.75A18.191,18.191,0,0,1,45.4,20.02l.75-.75Z"></path></g></svg>