<svg xmlns="http://www.w3.org/2000/svg" viewBox="0 0 64 64" x="0px" y="0px"><g data-name="Assistance-Health Checkup-Smartphone-Application-Medical"><path d="M17,34a5.558,5.558,0,0,1-1-.1V35a1,1,0,0,1-1,1,4.363,4.363,0,0,0-.52.05A3.488,3.488,0,0,0,17,37a3.488,3.488,0,0,0,2.52-.95A4.363,4.363,0,0,0,19,36a1,1,0,0,1-1-1V33.9A5.468,5.468,0,0,1,17,34Z"></path><path d="M22.97,31.25a1.023,1.023,0,0,1-.51-.73,1.059,1.059,0,0,1,.27-.85A.92.92,0,0,0,23,29a1,1,0,0,0-.4-.8,3.855,3.855,0,0,1-.6-.54V29a4.952,4.952,0,0,1-2,3.97v1.1a7.035,7.035,0,0,1,2.48.86A1.966,1.966,0,0,0,24,33,2.006,2.006,0,0,0,22.97,31.25Z"></path><path d="M20,27a8.391,8.391,0,0,0-3.6.92,14.647,14.647,0,0,1-2.4.84V29a3,3,0,0,0,6,0Z"></path><path d="M30,46V18a1,1,0,0,0-1-1H5a1,1,0,0,0-1,1V46a1,1,0,0,0,1,1H29A1,1,0,0,0,30,46Zm-4-5v3a1,1,0,0,1-1,1H9a1,1,0,0,1-1-1V41a6.949,6.949,0,0,1,1.8-4.67A3.952,3.952,0,0,1,8,33a4,4,0,0,1,1.22-2.88A2.832,2.832,0,0,1,9,29a3.022,3.022,0,0,1,1.23-2.42A1.7,1.7,0,0,0,11,25.26V25a5.977,5.977,0,0,1,1.75-4.24A6.052,6.052,0,0,1,16.78,19a5.847,5.847,0,0,1,4.27,1.67A6.389,6.389,0,0,1,23,25.24a1.734,1.734,0,0,0,.78,1.35A2.993,2.993,0,0,1,25,29a2.832,2.832,0,0,1-.22,1.12A4,4,0,0,1,26,33a3.952,3.952,0,0,1-1.8,3.33A6.949,6.949,0,0,1,26,41Z"></path><path d="M11.52,34.93A7.035,7.035,0,0,1,14,34.07v-1.1a4.332,4.332,0,0,1-.53-.43A5.013,5.013,0,0,1,12,29V27.93a.96.96,0,0,1,.06-.33,3.335,3.335,0,0,1-.65.59A1,1,0,0,0,11,29a.92.92,0,0,0,.27.67,1.059,1.059,0,0,1,.27.85,1.023,1.023,0,0,1-.51.73A2.006,2.006,0,0,0,10,33,1.966,1.966,0,0,0,11.52,34.93Z"></path><path d="M21.51,36.7A5.176,5.176,0,0,1,17,39a5.176,5.176,0,0,1-4.51-2.3A4.988,4.988,0,0,0,10,41v2h2V40h2v3h6V40h2v3h2V41A4.988,4.988,0,0,0,21.51,36.7Z"></path><path d="M15.61,26.08A10.362,10.362,0,0,1,20,25a8.265,8.265,0,0,1,.86.05.482.482,0,0,1,.12,0,4.4,4.4,0,0,0-1.32-2.94A3.835,3.835,0,0,0,16.85,21,3.981,3.981,0,0,0,13,25v.26a3.42,3.42,0,0,1-.62,1.91.9.9,0,0,1,.49-.23A10.084,10.084,0,0,0,15.61,26.08Z"></path><path d="M50,54H14v2a4,4,0,0,0,4,4H46a4,4,0,0,0,4-4ZM33,58H31V56h2Z"></path><path d="M50,41H39a3.009,3.009,0,0,1-3-3V18a3.009,3.009,0,0,1,3-3H50V12H14v3H29a3.009,3.009,0,0,1,3,3V46a3.009,3.009,0,0,1-3,3H14v3H50Z"></path><circle cx="55" cy="23" r="1"></circle><path d="M60,38V18a1,1,0,0,0-1-1H39a1,1,0,0,0-1,1V38a1,1,0,0,0,1,1H59A1,1,0,0,0,60,38ZM56,25.82V32a5,5,0,0,1-5,5H48a5,5,0,0,1-5-5V28a3.009,3.009,0,0,1-3-3V21a1,1,0,0,1,1-1h2v2H42v3a1,1,0,0,0,1,1h2a1,1,0,0,0,1-1V22H45V20h2a1,1,0,0,1,1,1v4a3.009,3.009,0,0,1-3,3v4a3.009,3.009,0,0,0,3,3h3a3.009,3.009,0,0,0,3-3V25.82a3,3,0,1,1,2,0Z"></path><path d="M14,10H50V8a4,4,0,0,0-4-4H18a4,4,0,0,0-4,4ZM29,6h6V8H29ZM25,6h2V8H25Z"></path></g></svg>