<svg xmlns="http://www.w3.org/2000/svg" viewBox="0 0 64 64" x="0px" y="0px"><g data-name="Robot"><path d="M32,6A11.013,11.013,0,0,0,21,17v2a1,1,0,0,0,1,1H42a1,1,0,0,0,1-1V17A11.013,11.013,0,0,0,32,6Zm9,12H23V17a9,9,0,0,1,18,0Z"></path><path d="M37,26H35V24a1,1,0,0,0-1-1H30a1,1,0,0,0-1,1v2H27a1,1,0,0,0-1,1v4a1,1,0,0,0,1,1h2v2a1,1,0,0,0,1,1h4a1,1,0,0,0,1-1V32h2a1,1,0,0,0,1-1V27A1,1,0,0,0,37,26Zm-1,4H34a1,1,0,0,0-1,1v2H31V31a1,1,0,0,0-1-1H28V28h2a1,1,0,0,0,1-1V25h2v2a1,1,0,0,0,1,1h2Z"></path><path d="M56.48,34.685A2.981,2.981,0,0,0,57,33V21.618A3.98,3.98,0,0,0,51.382,16H46.949a14.981,14.981,0,0,0-29.9,0H12.618A3.98,3.98,0,0,0,7,21.618V33a2.981,2.981,0,0,0,.52,1.685A4.983,4.983,0,0,0,5,39H7a3,3,0,0,1,6,0h2a4.983,4.983,0,0,0-2.52-4.315A2.981,2.981,0,0,0,13,33V22h4V41a1,1,0,0,0,.105.447l4,8A1,1,0,0,0,22,50h3v9a3,3,0,0,0,3,3h8a3,3,0,0,0,3-3V50h3a1,1,0,0,0,.9-.553l4-8A1,1,0,0,0,47,41V22h4V33a2.981,2.981,0,0,0,.52,1.685A4.983,4.983,0,0,0,49,39h2a3,3,0,0,1,6,0h2A4.983,4.983,0,0,0,56.48,34.685ZM11,33a1,1,0,0,1-2,0V22.858a3.592,3.592,0,0,0,2,0ZM10,21a2,2,0,1,1,2-2A2,2,0,0,1,10,21Zm7-1H13.858a3.592,3.592,0,0,0,0-2H17ZM37,52H34v2h3v2H34v2h3v1a1,1,0,0,1-1,1H28a1,1,0,0,1-1-1V58h3V56H27V54h3V52H27V50H37Zm4.382-4H22.618l-3-6H44.382ZM45,40H19V39H45Zm0-3H19V17a13,13,0,0,1,26,0Zm5.142-17H47V18h3.142a3.592,3.592,0,0,0,0,2ZM55,33a1,1,0,0,1-2,0V22.858a3.592,3.592,0,0,0,2,0ZM54,21a2,2,0,1,1,2-2A2,2,0,0,1,54,21Z"></path></g></svg>