<svg xmlns="http://www.w3.org/2000/svg" viewBox="0 0 64 64" x="0px" y="0px"><g><rect x="24" y="11" width="16" height="2"></rect><path d="M45.82,29H18.18a2.985,2.985,0,0,0-2.92,2.33L10.26,53H53.74l-5-21.67A2.985,2.985,0,0,0,45.82,29Zm-3.2,13H45.59a1,1,0,0,1,.914,1.405A6.03,6.03,0,0,1,41,47a5.932,5.932,0,0,1-4.448-2h-9.1A5.932,5.932,0,0,1,23,47a6.03,6.03,0,0,1-5.5-3.595A1,1,0,0,1,18.41,42h2.972l.5-1-.5-1H18.41A1,1,0,0,1,17.5,38.6,6.03,6.03,0,0,1,23,35a5.932,5.932,0,0,1,4.448,2h9.1A5.932,5.932,0,0,1,41,35,6.03,6.03,0,0,1,46.5,38.6,1,1,0,0,1,45.59,40H42.618l-.5,1Z"></path><path d="M41.105,38.553A1,1,0,0,1,42,38h1.644A4.008,4.008,0,0,0,41,37a3.963,3.963,0,0,0-3.179,1.6,1,1,0,0,1-.8.4H26.977a1,1,0,0,1-.8-.4A3.963,3.963,0,0,0,23,37a4.008,4.008,0,0,0-2.644,1H22a1,1,0,0,1,.895.553l1,2a1,1,0,0,1,0,.894l-1,2A1,1,0,0,1,22,44H20.356A4.008,4.008,0,0,0,23,45a3.963,3.963,0,0,0,3.179-1.6,1,1,0,0,1,.8-.4H37.023a1,1,0,0,1,.8.4A3.963,3.963,0,0,0,41,45a4.008,4.008,0,0,0,2.644-1H42a1,1,0,0,1-.9-.553l-1-2a1,1,0,0,1,0-.894Z"></path><path d="M4.78,40.02A13.16,13.16,0,0,0,4,44.47V53H8.2l5.11-22.12A4.956,4.956,0,0,1,18,27.02V21H13.8a3.014,3.014,0,0,0-2.82,1.97Z"></path><path d="M60,53V44.47a13.16,13.16,0,0,0-.78-4.45l-6.2-17.05A3.014,3.014,0,0,0,50.2,21H46v6.02a4.956,4.956,0,0,1,4.69,3.86L55.8,53Z"></path><path d="M20,27h2V11.17A3.014,3.014,0,0,0,20,14Z"></path><path d="M42,11.17V27h2V14A3.014,3.014,0,0,0,42,11.17Z"></path><rect x="24" y="21" width="16" height="6"></rect></g></svg>