<svg xmlns="http://www.w3.org/2000/svg" viewBox="0 0 64 64" x="0px" y="0px"><g><path d="M4,57V22H46V34h2V7a5.006,5.006,0,0,0-5-5H7A5.006,5.006,0,0,0,2,7V57a5.006,5.006,0,0,0,5,5H29V60H7A3,3,0,0,1,4,57ZM7,4H43a3,3,0,0,1,3,3V20H4V7A3,3,0,0,1,7,4Z"></path><path d="M8,18H42a2,2,0,0,0,2-2V8a2,2,0,0,0-2-2H8A2,2,0,0,0,6,8v8A2,2,0,0,0,8,18ZM8,8H42v8H8Z"></path><rect x="24" y="11" width="2" height="2"></rect><rect x="28" y="11" width="2" height="2"></rect><rect x="20" y="11" width="2" height="2"></rect><path d="M44,33V28a2,2,0,0,0-2-2H8a2,2,0,0,0-2,2V54a2,2,0,0,0,2,2H25V54H20V42h5V40H20V28H30v6h2V28H42v5ZM18,54H8V42H18Zm0-14H8V28H18Z"></path><polygon points="12 37 14 37 14 35 16 35 16 33 14 33 14 31 12 31 12 33 10 33 10 35 12 35 12 37"></polygon><polygon points="26.414 31.172 25 32.586 23.586 31.172 22.172 32.586 23.586 34 22.172 35.414 23.586 36.828 25 35.414 26.414 36.828 27.828 35.414 26.414 34 27.828 32.586 26.414 31.172"></polygon><rect x="10" y="47" width="6" height="2"></rect><path d="M62,38a2,2,0,0,0-2-2H46.174A14,14,0,1,0,42.7,61.488,1.964,1.964,0,0,0,44,62H60a2,2,0,0,0,2-2V56a1.978,1.978,0,0,0-.278-1A1.978,1.978,0,0,0,62,54V50a1.978,1.978,0,0,0-.278-1A1.978,1.978,0,0,0,62,48V44a1.978,1.978,0,0,0-.278-1A1.978,1.978,0,0,0,62,42Zm-9,0v2h2V38h2v2h2V38h1v4H51.63a14.068,14.068,0,0,0-2.851-4Zm7,10H53a13.917,13.917,0,0,0-.59-4H53v2h2V44h2v2h2V44h1Zm0,6H51.63a13.844,13.844,0,0,0,1.21-4H53v2h2V50h2v2h2V50h1ZM27,48A12,12,0,1,1,39,60,12.013,12.013,0,0,1,27,48ZM60,60H46.174a14.09,14.09,0,0,0,4.3-4H53v2h2V56h2v2h2V56h1Z"></path><path d="M37,43h4a1,1,0,0,1,1,1h2a3,3,0,0,0-3-3H40V39H38v2H37a3,3,0,0,0-3,3v2a3,3,0,0,0,3,3h4a1,1,0,0,1,1,1v2a1,1,0,0,1-1,1H37a1,1,0,0,1-1-1H34a3,3,0,0,0,3,3h1v2h2V55h1a3,3,0,0,0,3-3V50a3,3,0,0,0-3-3H37a1,1,0,0,1-1-1V44A1,1,0,0,1,37,43Z"></path></g></svg>