<svg xmlns="http://www.w3.org/2000/svg" viewBox="0 0 64 64" x="0px" y="0px"><g data-name="File"><path d="M55,5a1,1,0,0,0-1-1H51v9a1,1,0,0,1-.684.949A1.019,1.019,0,0,1,50,14a1,1,0,0,1-.8-.4L47,10.667,44.8,13.6A1,1,0,0,1,43,13V4H16a1,1,0,0,0-1,1V52H48a1,1,0,0,1,1,1v4a3,3,0,0,0,6,0ZM33,18h4v2H33Zm6,8v2H33V26Zm-6-2H27V22h6ZM23,8h7v2H23ZM19,8h2v2H19Zm0,4H30v2H19Zm0,6H31v2H19Zm0,4h6v2H19Zm0,4H31v2H19Zm0,8h6v2H19Zm14,4v2H23V38Zm-6-2V34H41v2Zm-8,2h2v2H19Zm0,4H41v2H19Zm32,6H19V46H51Zm0-4H43V42h8Zm0-4H35V38H51Zm0-4H43V34h8Zm0-4H19V30H51ZM41,28V26h6v2Zm10,0H49V26h2Zm0-4H35V22H51Zm0-4H39V18H51Z"></path><path d="M46.2,8.4a1.036,1.036,0,0,1,1.6,0L49,10V4H45v6Z"></path><path d="M9,57a3,3,0,0,0,3,3H48a4.973,4.973,0,0,1-1-3V54H9Z"></path></g></svg>