<svg xmlns="http://www.w3.org/2000/svg" viewBox="0 0 64 64" x="0px" y="0px"><g data-name="Truck-Gift Box-Delivery-Transport-Clock"><path d="M61.5,38.13,57,35.56V28a3.009,3.009,0,0,0-3-3H44V17h1a1,1,0,0,0,1-1V10a1,1,0,0,0-1-1H31.97A4.924,4.924,0,0,0,33,6V4a1,1,0,0,0-1-1H28a4.994,4.994,0,0,0-4,2.03A4.994,4.994,0,0,0,20,3H16a1,1,0,0,0-1,1V6a4.924,4.924,0,0,0,1.03,3H3a1,1,0,0,0-1,1v6a1,1,0,0,0,1,1H4V50a1,1,0,0,0,1,1H9.1a4.988,4.988,0,0,0,9.4,1.14A4.988,4.988,0,0,0,27.9,51H48.1a5,5,0,0,0,9.8,0H61a1,1,0,0,0,1-1V39A1,1,0,0,0,61.5,38.13ZM51,27h3a1,1,0,0,1,1,1v7H51ZM25,8a3.009,3.009,0,0,1,3-3h3V6a3.009,3.009,0,0,1-3,3H25Zm2,3v4H21V11ZM17,5h3a3.009,3.009,0,0,1,3,3V9H20a3.009,3.009,0,0,1-3-3ZM4,15V11H19v4ZM14,53a3,3,0,1,1,3-3A3.009,3.009,0,0,1,14,53Zm9,0a3,3,0,1,1,3-3A3.009,3.009,0,0,1,23,53Zm19-4H27.9a4.988,4.988,0,0,0-9.4-1.14A4.988,4.988,0,0,0,9.1,49H6V43H42Zm0-8H6V17H42ZM29,15V11H44v4ZM53,53a3,3,0,1,1,3-3A3.009,3.009,0,0,1,53,53Zm7-9H58V42h2Zm0-4H57a1,1,0,0,0-1,1v4a1,1,0,0,0,1,1h3v3H57.9a5,5,0,0,0-9.8,0H44V27h5v9a1,1,0,0,0,1,1h5.49a.01.01,0,0,1,.01.01L60,39.58Z"></path><rect x="50" y="39" width="4" height="2"></rect><polygon points="14 55 2 55 2 57 62 57 62 55 53 55 23 55 14 55"></polygon><path d="M24,39A10,10,0,1,0,14,29,10.011,10.011,0,0,0,24,39Zm0-18a8,8,0,1,1-8,8A8.009,8.009,0,0,1,24,21Z"></path><path d="M23.553,29.9l4,2,.894-1.79L25,28.382V23H23v6A1,1,0,0,0,23.553,29.9Z"></path><rect x="13" y="49" width="2" height="2"></rect><rect x="22" y="49" width="2" height="2"></rect><rect x="52" y="49" width="2" height="2"></rect></g></svg>