<svg xmlns="http://www.w3.org/2000/svg" viewBox="0 0 64 64" x="0px" y="0px"><title>Blog-Article-Content-Blog-News</title><g><rect x="8" y="6" width="2" height="2"></rect><rect x="12" y="6" width="2" height="2"></rect><rect x="16" y="6" width="2" height="2"></rect><polygon points="16 56 14 56 14 58 12 58 12 60 14 60 14 62 16 62 16 60 18 60 18 58 16 58 16 56"></polygon><rect x="20" y="58" width="2" height="2"></rect><rect x="24" y="58" width="2" height="2"></rect><rect x="28" y="58" width="2" height="2"></rect><polygon points="60 32 58 32 58 34 56 34 56 36 58 36 58 38 60 38 60 36 62 36 62 34 60 34 60 32"></polygon><rect x="58" y="40" width="2" height="2"></rect><rect x="58" y="44" width="2" height="2"></rect><rect x="58" y="48" width="2" height="2"></rect><path d="M21,16H9a1,1,0,0,0-1,1V27a1,1,0,0,0,1,1H21a1,1,0,0,0,1-1V17A1,1,0,0,0,21,16ZM20,26H10V18H20Z"></path><rect x="26" y="16" width="4" height="2"></rect><rect x="32" y="16" width="16" height="2"></rect><rect x="26" y="20" width="16" height="2"></rect><rect x="26" y="24" width="12" height="2"></rect><rect x="8" y="32" width="14" height="2"></rect><rect x="8" y="36" width="14" height="2"></rect><rect x="8" y="40" width="14" height="2"></rect><rect x="8" y="44" width="14" height="2"></rect><path d="M62.162,19.3a1,1,0,0,0-.466-.608c-.327-.188-.645-.346-.959-.49A12.911,12.911,0,0,0,54,17.017V5a3,3,0,0,0-3-3H5A3,3,0,0,0,2,5V51a3,3,0,0,0,3,3H51a3,3,0,0,0,3-3V34.02l8.062-13.965A1,1,0,0,0,62.162,19.3Zm-9.633,1.548-.859-1.3a11.123,11.123,0,0,1,2.494-.533A11.465,11.465,0,0,0,52.529,20.844Zm-2.711-.48,1.507,2.287c-.459.755-.916,1.556-1.387,2.388L47.806,21.81A10.924,10.924,0,0,1,49.818,20.364Zm-3.4,2.971,2.408,3.647-1.382,2.394-2.464-3.731.691-1.2A11.177,11.177,0,0,1,46.417,23.335Zm-2.556,4.246,2.464,3.731-1.382,2.394-2.464-3.731Zm4.2,4.731,4.464.269-1.382,2.394-4.464-.268Zm1.118-1.936,1.382-2.394,4.464.269-1.382,2.394Zm2.491-4.33c.477-.841.936-1.647,1.392-2.394l4.463.269-1.382,2.393Zm2.692-4.319a5.464,5.464,0,0,1,2.675-2.13,4.141,4.141,0,0,1,2.767.376l-1.161,2.011ZM5,4H51a1,1,0,0,1,1,1v5.032H4V5A1,1,0,0,1,5,4ZM51,52H5a1,1,0,0,1-1-1V12.032H52v5.327a12.961,12.961,0,0,0-8.063,6.088l-3.5,6.063a1,1,0,0,0,.032,1.051l3.356,5.081L38.134,45.5l1.732,1,5.691-9.857,6.079.365.06,0a.976.976,0,0,0,.3-.053V51A1,1,0,0,1,51,52Z"></path><rect x="26" y="32" width="4" height="2"></rect><rect x="32" y="32" width="6" height="2"></rect><rect x="26" y="36" width="12" height="2"></rect><rect x="26" y="40" width="8" height="2"></rect><rect x="36" y="40" width="2" height="2"></rect><rect x="26" y="44" width="6" height="2"></rect></g></svg>