<svg xmlns="http://www.w3.org/2000/svg" data-name="Phone-customer service-money-call-phone call" viewBox="0 0 64 64" x="0px" y="0px"><path d="M37.621,42.207a3,3,0,0,0-4.242,0L28.1,47.491a4.984,4.984,0,0,1-5.719.971,15.083,15.083,0,0,1-6.838-6.838,4.982,4.982,0,0,1,.971-5.719l5.284-5.284a3,3,0,0,0,0-4.242l-8.99-8.99a3,3,0,0,0-4.4.163A27,27,0,0,0,17.887,59.61,27.049,27.049,0,0,0,46.448,55.6a2.977,2.977,0,0,0,1.044-2.144,3.025,3.025,0,0,0-.881-2.26ZM9.925,18.845a.964.964,0,0,1,.7-.339h.042a1.022,1.022,0,0,1,.721.3l8.99,8.99a1,1,0,0,1,0,1.414L18,31.586,7.96,21.546A24.786,24.786,0,0,1,9.925,18.845Zm8.786,38.944a25,25,0,0,1-12.5-12.5,24.957,24.957,0,0,1,.7-21.963L16.586,33,15.1,34.491a6.982,6.982,0,0,0-1.352,8.016,17.115,17.115,0,0,0,7.75,7.75,6.984,6.984,0,0,0,8.016-1.352L31,47.414l9.676,9.676a24.956,24.956,0,0,1-21.965.7Zm26.444-3.714a24.786,24.786,0,0,1-2.7,1.965L32.414,46l2.379-2.379a1,1,0,0,1,1.414,0l8.99,8.99a1.024,1.024,0,0,1,.3.763A.964.964,0,0,1,45.155,54.075Z"></path><path d="M48.778,2.243a15.986,15.986,0,0,0-14.791,26.3l-.961,5.447a1,1,0,0,0,.985,1.174.986.986,0,0,0,.43-.1l5.1-2.438A15.995,15.995,0,1,0,48.778,2.243Zm11.01,18.188a13.959,13.959,0,0,1-19.819,10.19.994.994,0,0,0-.862,0l-3.774,1.8.708-4.016a1,1,0,0,0-.254-.856A13.986,13.986,0,0,1,45.993,4,14.008,14.008,0,0,1,59.788,20.431Z"></path><path d="M45,15h2a1,1,0,0,1,1,1h2a3,3,0,0,0-3-3V12H45v1a3,3,0,0,0,0,6h2a1,1,0,0,1,0,2H45a1,1,0,0,1-1-1H42a3,3,0,0,0,3,3v1h2V23a3,3,0,0,0,0-6H45a1,1,0,0,1,0-2Z"></path><rect x="52" y="17" width="2" height="2"></rect><rect x="38" y="17" width="2" height="2"></rect></svg>