<svg xmlns="http://www.w3.org/2000/svg" viewBox="0 0 64 64" x="0px" y="0px"><g><path d="M61,35H22V14a1,1,0,0,0-1-1H20V11h1V9H19a1,1,0,0,0-1,1v3H17a1,1,0,0,0-1,1v9H7a1,1,0,0,0-.895.553l-4,8A1,1,0,0,0,2,32V42a1,1,0,0,0,1,1H5.114A4.874,4.874,0,0,0,5,44a5,5,0,0,0,10,0,4.943,4.943,0,0,0-.113-1H38.114A4.874,4.874,0,0,0,38,44a5,5,0,0,0,10,0,4.943,4.943,0,0,0-.113-1h1.227A4.874,4.874,0,0,0,49,44a5,5,0,0,0,10,0,4.943,4.943,0,0,0-.113-1H61a1,1,0,0,0,1-1V36A1,1,0,0,0,61,35ZM18,15h2V35H18V15ZM4,32.236,7.618,25H8v8H4ZM4,38H7V36H4V35H9a1,1,0,0,0,1-1V25h6V41H14l-.021-.024c-.04-.053-.086-.1-.129-.153-.09-.109-.18-.216-.278-.316-.056-.057-.116-.109-.174-.163-.093-.086-.187-.171-.286-.25-.066-.052-.133-.1-.2-.149-.1-.071-.2-.14-.306-.2-.072-.044-.144-.086-.219-.126-.107-.059-.217-.113-.329-.163-.076-.035-.152-.069-.229-.1-.118-.047-.239-.086-.36-.124-.076-.023-.151-.049-.228-.068-.135-.035-.272-.06-.411-.083-.066-.012-.132-.027-.2-.036a4.7,4.7,0,0,0-1.254,0c-.067.009-.133.024-.2.036-.139.023-.276.048-.411.083-.077.019-.152.045-.228.068-.121.038-.242.077-.36.124-.077.03-.153.064-.228.1-.112.05-.222.1-.33.163-.075.04-.147.082-.22.126-.1.064-.205.132-.305.2-.068.049-.135.1-.2.149-.1.079-.193.163-.286.25-.058.054-.118.106-.174.163-.1.1-.189.208-.279.317-.042.051-.088.1-.128.151L6,41H4Zm6,9a3,3,0,0,1-3-3,3,3,0,0,1,3.781-2.9,3.01,3.01,0,0,1,1.333.771,2.973,2.973,0,0,1,.479.624h0A2.97,2.97,0,0,1,13,44,3,3,0,0,1,10,47Zm33,0a3,3,0,0,1-3-3,3,3,0,0,1,3.781-2.9,3.01,3.01,0,0,1,1.333.771,2.973,2.973,0,0,1,.479.624h0A2.97,2.97,0,0,1,46,44,3,3,0,0,1,43,47Zm11,0a3,3,0,0,1-3-3,3,3,0,0,1,3.781-2.9,3.01,3.01,0,0,1,1.333.771,2.973,2.973,0,0,1,.479.624h0A2.97,2.97,0,0,1,57,44,3,3,0,0,1,54,47Zm6-6H58l-.021-.024c-.04-.053-.086-.1-.129-.153-.09-.109-.18-.216-.278-.316-.056-.057-.116-.109-.174-.163-.093-.086-.187-.171-.286-.25-.066-.052-.133-.1-.2-.149-.1-.071-.2-.14-.306-.2-.072-.044-.144-.086-.219-.126-.107-.059-.217-.113-.329-.163-.076-.035-.152-.069-.229-.1-.118-.047-.239-.086-.36-.124-.076-.023-.151-.049-.228-.068-.135-.035-.272-.06-.411-.083-.066-.012-.132-.027-.2-.036a4.7,4.7,0,0,0-1.254,0c-.067.009-.133.024-.2.036-.139.023-.276.048-.411.083-.077.019-.152.045-.228.068-.121.038-.242.077-.36.124-.077.03-.153.064-.228.1-.112.05-.222.1-.33.163-.075.04-.147.082-.22.126-.1.064-.2.132-.3.2-.068.049-.135.1-.2.149-.1.079-.193.163-.286.25-.058.054-.118.106-.174.163-.1.1-.189.208-.279.317-.042.051-.088.1-.128.151L50,41H47l-.021-.024c-.04-.053-.086-.1-.129-.153-.09-.109-.18-.216-.278-.316-.056-.057-.116-.109-.174-.163-.093-.086-.187-.171-.286-.25-.066-.052-.133-.1-.2-.149-.1-.071-.2-.14-.306-.2-.072-.044-.144-.086-.219-.126-.107-.059-.217-.113-.329-.163-.076-.035-.152-.069-.229-.1-.118-.047-.239-.086-.36-.124-.076-.023-.151-.049-.228-.068-.135-.035-.272-.06-.411-.083-.066-.012-.132-.027-.2-.036a4.7,4.7,0,0,0-1.254,0c-.067.009-.133.024-.2.036-.139.023-.276.048-.411.083-.077.019-.152.045-.228.068-.121.038-.242.077-.36.124-.077.03-.153.064-.228.1-.112.05-.222.1-.33.163-.075.04-.147.082-.22.126-.1.064-.2.132-.3.2-.068.049-.135.1-.2.149-.1.079-.193.163-.286.25-.058.054-.118.106-.174.163-.1.1-.189.208-.279.317-.042.051-.088.1-.128.151L39,41H18V37H60Z"></path><path d="M61,14H26a1,1,0,0,0-1,1V33a1,1,0,0,0,1,1H61a1,1,0,0,0,1-1V15A1,1,0,0,0,61,14ZM60,32H27V16H60Z"></path><path d="M9.29,43.29a1.032,1.032,0,0,0-.21.33A1,1,0,0,0,9,44a1,1,0,0,0,1.71.71,1,1,0,0,0-1.42-1.42Z"></path><path d="M43.71,43.29a1.047,1.047,0,0,0-1.42,0,1.032,1.032,0,0,0-.21.33A1,1,0,0,0,42,44a1,1,0,1,0,2,0,1,1,0,0,0-.08-.38A1.032,1.032,0,0,0,43.71,43.29Z"></path><path d="M54.71,43.29a1.047,1.047,0,0,0-1.42,0,1.032,1.032,0,0,0-.21.33A1,1,0,0,0,53,44a1,1,0,1,0,2,0,1,1,0,0,0-.08-.38A1.032,1.032,0,0,0,54.71,43.29Z"></path><rect x="45" y="18" width="2" height="12"></rect><rect x="50" y="18" width="2" height="12"></rect><rect x="55" y="18" width="2" height="12"></rect><rect x="40" y="18" width="2" height="12"></rect><rect x="35" y="18" width="2" height="12"></rect><rect x="30" y="18" width="2" height="12"></rect></g></svg>