<svg xmlns="http://www.w3.org/2000/svg" viewBox="0 0 64 64" x="0px" y="0px"><g data-name="Truck"><rect x="56" y="36" width="4" height="2"></rect><path d="M51.6,22H44v8H59.234l-3.343-5.572A5.027,5.027,0,0,0,51.6,22Z"></path><path d="M55.92,46H59a1,1,0,0,0,1-1V44H57V42h3V40H56a2,2,0,0,1-2-2V36a2,2,0,0,1,2-2h4V32.108c0-.037-.013-.072-.015-.108H43a1,1,0,0,1-1-1V22H40V46h2.08a6.991,6.991,0,0,1,13.84,0ZM46,36H42V34h4Z"></path><path d="M21.92,46H38V16.414L33.586,12H5a1,1,0,0,0-1,1V45a1,1,0,0,0,1,1H8.08a6.991,6.991,0,0,1,13.84,0Z"></path><path d="M15,42a5,5,0,1,0,5,5A5.006,5.006,0,0,0,15,42Zm1,6H14V46h2Z"></path><path d="M49,42a5,5,0,1,0,5,5A5.006,5.006,0,0,0,49,42Zm1,6H48V46h2Z"></path><path d="M46,20H44V14H42V12h2a2,2,0,0,1,2,2Z"></path></g></svg>