<svg xmlns="http://www.w3.org/2000/svg" viewBox="0 0 64 64" x="0px" y="0px"><title>Cargo-Shipping-Global Distribution-Delivery-Ship</title><g><path d="M12,36v6.31l14,.482V36H12Zm10,2h2v4H22Zm-4,0h2v4H18Zm-2,4H14V38h2Z"></path><rect x="48" y="20" width="2" height="2"></rect><path d="M7.054,52H60V45.966L4.4,44.05ZM37,48h2v2H37Zm-4,0h2v2H33Zm-4,0h2v2H29Zm-4,0h2v2H25Zm-4,0h2v2H21Zm-4,0h2v2H17Zm-4,0h2v2H13ZM9,48h2v2H9Z"></path><path d="M28,42.861l18,.621V36H28ZM42,38h2v4H42Zm-4,0h2v4H38Zm-4,0h2v4H34Zm-4,0h2v4H30Z"></path><path d="M46,27.618l-.9-.447a1.986,1.986,0,0,1-1-1.171H32v8H46ZM36,32H34V28h2Zm4,0H38V28h2Zm4,0H42V28h2Z"></path><path d="M16,34H30V26H16Zm10-6h2v4H26Zm-4,0h2v4H22Zm-4,0h2v4H18Z"></path><path d="M46,25.382l1.447.723A1,1,0,0,1,48,27V43.551l8,.276V27a1,1,0,0,1,.553-.895L58,25.382V24H46ZM50,26h4v2H50Zm0,4h4v2H50Zm0,4h4v2H50Zm0,4h4v2H50Z"></path><rect x="55" y="20" width="2" height="2"></rect><path d="M11.226,58.36c.876-1.051,1.966-2.36,4.1-2.36s3.225,1.309,4.1,2.36S20.849,60,21.991,60s1.691-.593,2.564-1.64S26.521,56,28.656,56s3.225,1.309,4.1,2.36S34.18,60,35.322,60s1.691-.592,2.563-1.64S39.851,56,41.985,56s3.226,1.309,4.1,2.36S47.511,60,48.653,60s1.7-.593,2.57-1.641S53.19,56,55.327,56s3.228,1.308,4.1,2.359c.2.245.388.46.569.653V54H7.721l1.925,5.776A4.8,4.8,0,0,0,11.226,58.36Z"></path><path d="M15.326,58c-1.142,0-1.691.593-2.563,1.64-.1.117-.2.238-.3.36h5.735c-.1-.122-.206-.243-.3-.36C17.018,58.593,16.468,58,15.326,58Z"></path><path d="M55.327,58c-1.144,0-1.7.593-2.569,1.641-.1.117-.2.238-.3.359H58.2c-.1-.122-.206-.243-.3-.36C57.021,58.593,56.471,58,55.327,58Z"></path><path d="M28.656,58c-1.142,0-1.692.593-2.565,1.64-.1.117-.2.238-.3.36h5.736c-.1-.122-.206-.243-.3-.36C30.348,58.593,29.8,58,28.656,58Z"></path><path d="M41.985,58c-1.141,0-1.691.593-2.563,1.64-.1.117-.2.238-.3.36h5.737c-.1-.122-.206-.243-.3-.36C43.678,58.593,43.128,58,41.985,58Z"></path><path d="M60,8v2a1,1,0,0,1-1,1H58a3,3,0,0,0-3,3v2h2V14a1,1,0,0,1,1-1h1a3,3,0,0,0,3-3V8Z"></path><path d="M50,14a1,1,0,0,1,1-1,3,3,0,0,0,3-3V8H52v2a1,1,0,0,1-1,1,3,3,0,0,0-3,3v2h2Z"></path></g></svg>