<svg xmlns="http://www.w3.org/2000/svg" viewBox="0 0 64 64" x="0px" y="0px"><rect x="19" y="37" width="10" height="2"></rect><rect x="19" y="41" width="10" height="2"></rect><rect x="19" y="45" width="10" height="2"></rect><path d="M61.316,28.051A1,1,0,0,0,60.2,28.4L58,31.333,55.8,28.4a1.036,1.036,0,0,0-1.6,0L52,31.335,49.789,28.4a1,1,0,0,0-.8-.4h0a1,1,0,0,0-.8.4L46,31.332,43.8,28.4a.991.991,0,0,0-.8-.378V17a1,1,0,0,0-1-1H37V11A8.985,8.985,0,0,0,22.5,3.892,8.985,8.985,0,0,0,8,11v5H4a1,1,0,0,0-1,1V55a1,1,0,0,0,1,1H36v5a1,1,0,0,0,1,1H61a1,1,0,0,0,1-1V29A1,1,0,0,0,61.316,28.051ZM35,11v5H26V11a8.958,8.958,0,0,0-2.044-5.7A6.989,6.989,0,0,1,35,11ZM22.5,6.684A6.961,6.961,0,0,1,24,11v5H21V11A6.961,6.961,0,0,1,22.5,6.684ZM10,11A6.989,6.989,0,0,1,21.044,5.3,8.958,8.958,0,0,0,19,11v5H10ZM9.769,48.36a1.036,1.036,0,0,0-1.538,0L5,52.238V19.762L8.231,23.64a1,1,0,0,0,1.538,0L13,19.762V52.238Zm2.1,5.64H6.135L9,50.562ZM6.135,18h5.73L9,21.438ZM36.684,28.051A1,1,0,0,0,36,29V54H15V18h4v2.184a3,3,0,1,0,2,0V18H35v2.184a3,3,0,1,0,2,0V18h4V30l-1,1.333L37.8,28.4A1,1,0,0,0,36.684,28.051ZM21,23a1,1,0,1,1-1-1A1,1,0,0,1,21,23Zm16,0a1,1,0,1,1-1-1A1,1,0,0,1,37,23ZM60,60H38V32l1.2,1.6a1.036,1.036,0,0,0,1.6,0L43,30.667,45.2,33.6a1,1,0,0,0,.8.4h0a1,1,0,0,0,.8-.4l2.192-2.932L51.2,33.6a1,1,0,0,0,.8.4h0a1,1,0,0,0,.8-.4L55,30.667,57.2,33.6a1.036,1.036,0,0,0,1.6,0L60,32Z"></path><rect x="42" y="46" width="8" height="2"></rect><rect x="52" y="46" width="4" height="2"></rect><rect x="42" y="50" width="8" height="2"></rect><rect x="52" y="50" width="4" height="2"></rect><rect x="44" y="54" width="6" height="2"></rect><rect x="52" y="54" width="4" height="2"></rect><rect x="42" y="42" width="8" height="2"></rect><rect x="52" y="42" width="4" height="2"></rect><rect x="50" y="38" width="6" height="2"></rect></svg>