<svg xmlns="http://www.w3.org/2000/svg" viewBox="0 0 64 64" x="0px" y="0px"><g><path d="M37.242,54.049c.122-.184.232-.351.358-.538C42.936,45.5,51,33.4,51,23a19,19,0,0,0-38,0c0,10.4,8.064,22.5,13.4,30.511.126.187.236.354.358.538A.986.986,0,0,0,26,55v4a3,3,0,0,0,3,3h6a3,3,0,0,0,3-3V55A.986.986,0,0,0,37.242,54.049ZM29.126,54c-.343-.519-.69-1.041-1.062-1.6L27.8,52H36.2l-.267.4c-.372.558-.719,1.08-1.062,1.6ZM37.2,50l1.636-9h4.221c-1.784,3.219-3.734,6.28-5.527,9Zm-2.032,0H33V41h3.8ZM31,50H28.834L27.2,41H31Zm-5.834-9L26.8,50h-.33c-1.793-2.72-3.743-5.781-5.527-9ZM32,6A17.019,17.019,0,0,1,49,23c0,5.075-2.115,10.684-4.872,16H19.872C17.115,33.684,15,28.075,15,23A17.019,17.019,0,0,1,32,6Zm4,53a1,1,0,0,1-1,1H29a1,1,0,0,1-1-1V56h8Z"></path><rect x="51" y="33" width="2" height="4"></rect><rect x="51" y="39" width="2" height="2"></rect><rect x="55" y="36" width="2" height="6"></rect><rect x="55" y="44" width="2" height="2"></rect><rect x="11" y="33" width="2" height="4"></rect><rect x="11" y="39" width="2" height="2"></rect><rect x="15" y="44" width="2" height="4"></rect><rect x="15" y="50" width="2" height="2"></rect><rect x="47" y="44" width="2" height="4"></rect><rect x="47" y="50" width="2" height="2"></rect><rect x="7" y="36" width="2" height="6"></rect><rect x="7" y="44" width="2" height="2"></rect><path d="M16,9a3,3,0,0,0-3-3A4,4,0,0,0,5,6a3,3,0,0,0,0,6h8A3,3,0,0,0,16,9ZM4,9A1,1,0,0,1,5,8H6.184a1,1,0,0,0,.942-1.334,2,2,0,1,1,3.748,0A1,1,0,0,0,11.816,8H13a1,1,0,0,1,0,2H5A1,1,0,0,1,4,9Z"></path><path d="M59,8a4,4,0,0,0-8,0,3,3,0,0,0,0,6h8a3,3,0,0,0,0-6Zm0,4H51a1,1,0,0,1,0-2h1.184a1,1,0,0,0,.942-1.334,2,2,0,1,1,3.748,0A1,1,0,0,0,57.816,10H59a1,1,0,0,1,0,2Z"></path><rect x="23.515" y="22" width="16.971" height="2" transform="translate(-6.891 29.364) rotate(-45)"></rect><path d="M36,24a3,3,0,1,0,3,3A3,3,0,0,0,36,24Zm0,4a1,1,0,1,1,1-1A1,1,0,0,1,36,28Z"></path><path d="M28,22a3,3,0,1,0-3-3A3,3,0,0,0,28,22Zm0-4a1,1,0,1,1-1,1A1,1,0,0,1,28,18Z"></path><path d="M32,36A13,13,0,1,0,19,23,13.015,13.015,0,0,0,32,36Zm0-24A11,11,0,1,1,21,23,11.013,11.013,0,0,1,32,12Z"></path></g></svg>