<svg xmlns="http://www.w3.org/2000/svg" viewBox="0 0 64 64" x="0px" y="0px"><g data-name="Raipei 101-Taiwan-Landmark-Skyscraper-Building"><polygon points="34.22 26 34.72 24 29.28 24 29.78 26 34.22 26"></polygon><polygon points="34.22 30 34.72 28 29.28 28 29.78 30 34.22 30"></polygon><polygon points="34.22 22 34.72 20 29.28 20 29.78 22 34.22 22"></polygon><polygon points="34.22 34 34.72 32 29.28 32 29.78 34 34.22 34"></polygon><polygon points="33.12 14 33.87 8 33 8 33 2 31 2 31 8 30.13 8 30.88 14 33.12 14"></polygon><polygon points="34.22 18 34.72 16 29.28 16 29.78 18 34.22 18"></polygon><polygon points="34.22 38 34.72 36 29.28 36 29.78 38 34.22 38"></polygon><polygon points="34.1 48 29.9 48 29.11 56 34.9 56 34.1 48"></polygon><polygon points="34.22 46 34.72 44 29.28 44 29.78 46 34.22 46"></polygon><polygon points="34.22 42 34.72 40 29.28 40 29.78 42 34.22 42"></polygon><path d="M55,60V52H51v8H49V44H43V60H35V58H29v2H21V50H15V60H13V42H7V60H3v2H61V60Zm-3-6h2v2H52Zm-7-8h2v2H45Zm0,4h2v2H45Zm0,4h2v2H45ZM17,52h2v2H17Zm0,4h2v2H17ZM9,44h2v2H9Zm0,4h2v2H9Zm0,4h2v2H9Zm0,4h2v2H9Z"></path></g></svg>