<svg xmlns="http://www.w3.org/2000/svg" viewBox="0 0 64 64" x="0px" y="0px"><g data-name="Cactus"><circle cx="32" cy="10" r="3"></circle><rect x="23" y="43" width="18" height="2"></rect><path d="M39,60V47H25V60Zm-4-7h2v2H35Zm0,3h2v2H35Zm-3,0h2v2H32Z"></path><path d="M35,19a3,3,0,0,0-6,0V41h6ZM33,39H31V37h2Zm0-6H31V31h2Zm0-6H31V25h2Zm0-6H31V19h2Z"></path><rect x="31" y="2" width="2" height="4"></rect><rect x="26.757" y="3.757" width="2" height="4.001" transform="translate(4.059 21.314) rotate(-45)"></rect><rect x="24" y="9" width="4" height="2"></rect><rect x="36" y="9" width="4" height="2"></rect><rect x="34.242" y="4.757" width="4.001" height="2" transform="translate(6.544 27.314) rotate(-45)"></rect><rect x="36" y="19" width="4" height="2"></rect><rect x="36" y="25" width="4" height="2"></rect><rect x="36" y="31" width="4" height="2"></rect><rect x="24" y="19" width="4" height="2"></rect><rect x="24" y="25" width="4" height="2"></rect><rect x="24" y="31" width="4" height="2"></rect><rect x="36" y="37" width="4" height="2"></rect><rect x="24" y="37" width="4" height="2"></rect></g></svg>