<svg xmlns="http://www.w3.org/2000/svg" viewBox="0 0 48 48" x="0px" y="0px"><g><path d="M11.4,21.2a.975.975,0,0,1,.269-.141.8.8,0,0,1,.1-.023,1,1,0,0,1,.2-.032c.015,0,.029-.007.043-.007s.03.01.046.011A.971.971,0,0,1,13,22v2.5a2.5,2.5,0,0,0,5,0V18.42a1,1,0,0,1,1.37-.929A7.083,7.083,0,0,0,22,18a7,7,0,0,0,6.633-4.761,1,1,0,0,1,1.394-.574A3.5,3.5,0,1,0,31.5,6a3.425,3.425,0,0,0-2.387.95.967.967,0,0,1-.777.277,1,1,0,0,1-.72-.4A6.993,6.993,0,0,0,15.642,8.082a1,1,0,0,1-1.658.254A4,4,0,0,0,7,11a3.917,3.917,0,0,0,.567,2.045,1,1,0,0,1-.4,1.4A3.985,3.985,0,0,0,5,18a4.033,4.033,0,0,0,2.4,3.673,4.166,4.166,0,0,0,4-.47Z"></path><path d="M36,15H34v-.6c-.08.042-.169.064-.251.1a5.415,5.415,0,0,1-.577.23c-.1.031-.2.052-.3.077a5.419,5.419,0,0,1-.65.131c-.112.014-.223.02-.336.028-.129.009-.255.032-.386.032-.095,0-.187-.013-.281-.017-.066,0-.131-.007-.2-.012a5.41,5.41,0,0,1-.878-.139A9,9,0,0,1,20,19.775V24.5a4.5,4.5,0,0,1-9,0v-.838a5.857,5.857,0,0,1-.96.238c-.078.014-.155.025-.234.035A6.042,6.042,0,0,1,8,23.917V41a3,3,0,0,0,3,3H31a3,3,0,0,0,3-3V29h2a5.006,5.006,0,0,0,5-5V20A5.006,5.006,0,0,0,36,15Zm3,9a3,3,0,0,1-3,3H34V17h2a3,3,0,0,1,3,3Z"></path></g></svg>