<svg xmlns="http://www.w3.org/2000/svg" data-name="Feedback-Rating-Heart-Social Media-Smartphone" viewBox="0 0 64 64" x="0px" y="0px"><path d="M25,15H13a5,5,0,0,0-5,5V32.08A7,7,0,0,0,2,39V51a.986.986,0,0,0,.03.24L3,55.12V62H5V55a.986.986,0,0,0-.03-.24L4,50.88V39a5.009,5.009,0,0,1,4-4.9V42a1,1,0,0,0,.14.51l2.43,4.05a2.956,2.956,0,0,0,2.53,1.45h.04a2.974,2.974,0,0,0,2.88-2.21l1.15-4.3a1,1,0,0,1,.47-.61,1,1,0,0,1,1.36.36.974.974,0,0,1,.1.76l-1.86,6.97A6.922,6.922,0,0,0,17,50.79v1.88L14.2,56.4a.984.984,0,0,0-.2.6v5h2V57.33l2.8-3.73A.984.984,0,0,0,19,53V50.79a5.074,5.074,0,0,1,.17-1.29l.13-.5H25a5,5,0,0,0,5-5V20A5,5,0,0,0,25,15Zm3,29a3.009,3.009,0,0,1-3,3H19.84l.53-2H22V43H20.91l.13-.47a3.032,3.032,0,0,0-.3-2.28,3.007,3.007,0,0,0-5.5.73l-1.15,4.3a1.029,1.029,0,0,1-.97.73.953.953,0,0,1-.83-.48L10,41.72V20a3.009,3.009,0,0,1,3-3H25a3.009,3.009,0,0,1,3,3Z"></path><rect x="16" y="19" width="6" height="2"></rect><rect x="12" y="19" width="2" height="2"></rect><rect x="13" y="25" width="12" height="2"></rect><rect x="13" y="29" width="12" height="2"></rect><rect x="13" y="33" width="12" height="2"></rect><path d="M41,31.929h0a3,3,0,0,0-4.242,4.244l3.535,3.535a1,1,0,0,0,1.414,0l3.535-3.535A3,3,0,0,0,41,31.929Zm2.828,2.829L41,37.586l-2.828-2.828a1,1,0,0,1,0-1.415,1,1,0,0,1,1.413,0l.707.706a1,1,0,0,0,1.414,0l.707-.707a1,1,0,1,1,1.414,1.415Z"></path><path d="M56.242,22.929a3,3,0,0,0-4.242,0h0a3,3,0,0,0-4.242,4.244l3.535,3.535a1,1,0,0,0,1.414,0l3.535-3.535A3,3,0,0,0,56.242,22.929Zm-1.414,2.829L52,28.586l-2.828-2.828a1,1,0,0,1,0-1.415,1,1,0,0,1,1.413,0l.707.706a1,1,0,0,0,1.414,0l.707-.707a1,1,0,1,1,1.414,1.415Z"></path><path d="M49.293,13.707a1,1,0,0,0,1.414,0l3.535-3.535A3,3,0,0,0,50,5.929h0a3,3,0,0,0-4.242,4.244Zm-2.12-6.364a1,1,0,0,1,1.413,0l.707.706a1,1,0,0,0,1.414,0l.707-.707a1,1,0,1,1,1.414,1.415L50,11.586,47.172,8.758A1,1,0,0,1,47.173,7.343Z"></path><path d="M52,17a9.014,9.014,0,0,0-9,9c0,.08.01.16.01.23A9.524,9.524,0,0,0,41,26a9,9,0,1,0,9,9c0-.08-.01-.16-.01-.23A9,9,0,1,0,52,17ZM41,42a7,7,0,1,1,7-7A7.008,7.008,0,0,1,41,42Zm11-9a6.9,6.9,0,0,1-2.34-.41,9.009,9.009,0,0,0-4.58-5.6A6.607,6.607,0,0,1,45,26a7,7,0,1,1,7,7Z"></path><path d="M37.293,17.707a1,1,0,0,0,1.414,0l2.121-2.121a2,2,0,0,0,0-2.829,2.047,2.047,0,0,0-2.827,0,2.047,2.047,0,0,0-2.828,0,2,2,0,0,0,0,2.828Z"></path><path d="M38,22a7,7,0,1,0-7-7A7.009,7.009,0,0,0,38,22Zm0-12a5,5,0,1,1-5,5A5.006,5.006,0,0,1,38,10Z"></path></svg>