<svg xmlns="http://www.w3.org/2000/svg" viewBox="0 0 64 64" x="0px" y="0px"><g data-name="Pay per click-cost-hand-money-browser"><path d="M17,54a1,1,0,0,0,1-1V51a1,1,0,0,0-1-1H16v2H14V50H12v2H10V50H8v2H6V50H5a1,1,0,0,0-1,1v2a1,1,0,0,0,1,1Z"></path><rect x="9" y="38" width="1" height="4"></rect><path d="M7,32H6v1a3.009,3.009,0,0,0,3,3h1V35A3.009,3.009,0,0,0,7,32Z"></path><path d="M5,60H17a1,1,0,0,0,1-1V57a1,1,0,0,0-1-1H16v2H14V56H12v2H10V56H8v2H6V56H5a1,1,0,0,0-1,1v2A1,1,0,0,0,5,60Z"></path><path d="M12,44v2H10V44H8v2H6V44H5a1,1,0,0,0-1,1v2a1,1,0,0,0,1,1H17a1,1,0,0,0,1-1V45a1,1,0,0,0-1-1H16v2H14V44Z"></path><path d="M46,43a4.012,4.012,0,0,1,3.43,1.94,3.976,3.976,0,0,1,5.57.43V12H9V30.42a5.043,5.043,0,0,1,2.68,2.87A4.962,4.962,0,0,1,15,32h2a1,1,0,0,1,1,1v2a5,5,0,0,1-5,5H12v2h5a3.009,3.009,0,0,1,3,3v2a2.974,2.974,0,0,1-.78,2A2.974,2.974,0,0,1,20,51v1h8.42a3.969,3.969,0,0,1,1.98-3.43,4,4,0,0,1,5.47,1.47l.13.23V37a3.677,3.677,0,0,1,.11-.89A9.91,9.91,0,0,1,32,37a10.04,10.04,0,1,1,7.98-4H40a4,4,0,0,1,4,4v6.54A3.989,3.989,0,0,1,46,43Z"></path><path d="M32,19a8,8,0,1,0,8,8A8.011,8.011,0,0,0,32,19Zm-1,7h2a3,3,0,0,1,0,6v1H31V32a3,3,0,0,1-3-3h2a1,1,0,0,0,1,1h2a1,1,0,0,0,0-2H31a3,3,0,0,1,0-6V21h2v1a3,3,0,0,1,3,3H34a1,1,0,0,0-1-1H31a1,1,0,0,0,0,2Z"></path><path d="M55,7a3.009,3.009,0,0,0-3-3H12A3.009,3.009,0,0,0,9,7v3H55ZM13,8H11V6h2Zm4,0H15V6h2Zm4,0H19V6h2Z"></path><path d="M60,61V49a2,2,0,0,0-4,0v2a1,1,0,0,1-2,0V48a2,2,0,0,0-4,0v3a1,1,0,0,1-2,0V47a2,2,0,0,0-4,0v4a1,1,0,0,1-2,0V37a2,2,0,0,0-4,0V54a1,1,0,0,1-1.87.5l-2-3.46a1.942,1.942,0,0,0-1.21-.94,2.06,2.06,0,0,0-1.52.2,2.018,2.018,0,0,0-.73,2.74L35.181,61Z"></path><path d="M16,35V34H15a3.009,3.009,0,0,0-3,3v1h1A3.009,3.009,0,0,0,16,35Z"></path></g></svg>