<svg xmlns="http://www.w3.org/2000/svg" viewBox="0 0 64 64" x="0px" y="0px"><g><rect x="29" y="10" width="2" height="2"></rect><rect x="15.565" y="15.565" width="2" height="2" transform="translate(-6.861 16.565) rotate(-45)"></rect><rect x="10" y="29" width="2" height="2"></rect><rect x="15.565" y="42.435" width="2" height="2" transform="translate(-25.861 24.435) rotate(-45)"></rect><rect x="29" y="48" width="2" height="2"></rect><rect x="48" y="29" width="2" height="2"></rect><rect x="42.435" y="15.565" width="2" height="2" transform="translate(1.009 35.565) rotate(-45)"></rect><path d="M31,26.757V15H29V26.757L26.757,29H17v2h9.757l2.536,2.536a1,1,0,0,0,1.414,0l2.829-2.829a1,1,0,0,0,0-1.414Zm-1,4.658L28.585,30,30,28.585,31.415,30Z"></path><path d="M57.018,37.308a28.049,28.049,0,1,0-19.71,19.71,13.989,13.989,0,1,0,19.71-19.71ZM30,56A26.041,26.041,0,1,1,55.275,36.061a13.97,13.97,0,0,0-1.831-.959A24.038,24.038,0,1,0,35.1,53.444a13.97,13.97,0,0,0,.959,1.831A26.076,26.076,0,0,1,30,56Zm4-8a13.945,13.945,0,0,0,.47,3.537A22.022,22.022,0,1,1,51.537,34.47,13.947,13.947,0,0,0,34,48ZM48,60A12,12,0,1,1,60,48,12.013,12.013,0,0,1,48,60Z"></path><path d="M58,49H55.931a8.009,8.009,0,0,0-5.957-6.743A1.98,1.98,0,0,0,50,42a2,2,0,0,0-4,0,1.98,1.98,0,0,0,.026.257A8.009,8.009,0,0,0,40.069,49H38v2h1.382l1.723,3.447A1,1,0,0,0,42,55H54a1,1,0,0,0,.9-.553L56.618,51H58ZM48,44a6.006,6.006,0,0,1,5.91,5H42.09A6.006,6.006,0,0,1,48,44Zm5.382,9H42.618l-1-2H54.382Z"></path></g></svg>