<svg xmlns="http://www.w3.org/2000/svg" viewBox="0 0 64 64" x="0px" y="0px"><g><path d="M35,31.58A11.09,11.09,0,0,1,32,32a10.665,10.665,0,0,1-3-.43v3.3c1.02.08,2.03.13,3,.13s1.98-.05,3-.13Z"></path><path d="M31.29,47.71,29,45.41V60h6V45.41l-2.29,2.3a1.014,1.014,0,0,1-1.42,0Z"></path><path d="M35,36.88c-1.01.07-2.02.12-3,.12s-1.99-.05-3-.12v.71l3,3,3-3Z"></path><path d="M27,30.79A11.028,11.028,0,0,1,21.05,22H21a3.964,3.964,0,0,1-3.88-3.07L15.25,31.4a1,1,0,0,0,.74,1.11c1.58.42,4.53,1.15,7.86,1.71A5.025,5.025,0,0,1,27,32.1Z"></path><path d="M25,37V60h2V36.69c-.65-.08-1.3-.16-1.94-.25A2.6,2.6,0,0,0,25,37Z"></path><path d="M27,34.17a3.1,3.1,0,0,0-.76.41l.76.09Z"></path><path d="M35.97,8A4.971,4.971,0,0,0,37,5V4H28a5.017,5.017,0,0,0-4.9,4Z"></path><path d="M51,60V45.88a6.964,6.964,0,0,0-4.91-6.68L41,37.61V60h2V45h2V60Z"></path><path d="M35,40.41l-2.29,2.3a1.014,1.014,0,0,1-1.42,0L29,40.41v2.18l3,3,3-3Z"></path><path d="M38.7,7a7.1,7.1,0,0,1-.38,1H41V7Z"></path><rect x="17" y="10" width="30" height="2"></rect><path d="M33.89,26.99l.22-1.98,5.6.62a8.791,8.791,0,0,0,.86-1.9l-6.81-1.36a9.065,9.065,0,0,0-3.52,0l-6.81,1.36a9.3,9.3,0,0,0,.86,1.9l5.6-.62.22,1.98-4.34.49a8.973,8.973,0,0,0,12.47,0Z"></path><path d="M23,60V37.61L17.91,39.2A6.964,6.964,0,0,0,13,45.88V60h6V45h2V60Z"></path><path d="M40.15,34.22c3.33-.56,6.28-1.29,7.86-1.71a1,1,0,0,0,.74-1.11L46.88,18.93A3.964,3.964,0,0,1,43,22h-.05a10.919,10.919,0,0,1-3.17,6.78A11.064,11.064,0,0,1,37,30.79V32.1A5.025,5.025,0,0,1,40.15,34.22Z"></path><path d="M37,34.17v.5l.76-.09A3.1,3.1,0,0,0,37,34.17Z"></path><path d="M46.44,15.99,46.14,14H43A3.984,3.984,0,0,1,46.44,15.99Z"></path><path d="M43,20a2.015,2.015,0,0,0,2-2,2.006,2.006,0,0,0-2-2Z"></path><path d="M39,37a2.6,2.6,0,0,0-.06-.56c-.64.09-1.29.17-1.94.25V60h2Z"></path><path d="M34.16,20.41l6.8,1.36c.02-.25.04-.51.04-.77V14H23v7c0,.26.02.52.04.77l6.8-1.36A11.214,11.214,0,0,1,34.16,20.41ZM36,15a2,2,0,1,1-2,2A2,2,0,0,1,36,15Zm-8,4a2,2,0,1,1,2-2A2,2,0,0,1,28,19Z"></path><path d="M19.59,19.41A1.983,1.983,0,0,0,21,20V16a2.006,2.006,0,0,0-2,2A1.983,1.983,0,0,0,19.59,19.41Z"></path><path d="M17.86,14l-.3,1.99A3.984,3.984,0,0,1,21,14Z"></path></g></svg>