<svg xmlns="http://www.w3.org/2000/svg" viewBox="0 0 64 64" x="0px" y="0px"><g data-name="QR Code-Smartphone-Scan-Code-QR Scan"><path d="M46,2H18a6.006,6.006,0,0,0-6,6V56a6.006,6.006,0,0,0,6,6H46a6.006,6.006,0,0,0,6-6V8A6.006,6.006,0,0,0,46,2Zm4,54a4,4,0,0,1-4,4H18a4,4,0,0,1-4-4V8a4,4,0,0,1,4-4H46a4,4,0,0,1,4,4Z"></path><path d="M34,52H30a3,3,0,0,0,0,6h4a3,3,0,0,0,0-6Zm0,4H30a1,1,0,0,1,0-2h4a1,1,0,0,1,0,2Z"></path><rect x="25" y="6" width="2" height="2"></rect><rect x="29" y="6" width="6" height="2"></rect><path d="M22,25h4a1,1,0,0,0,1-1V20a1,1,0,0,0-1-1H22a1,1,0,0,0-1,1v4A1,1,0,0,0,22,25Zm1-4h2v2H23Z"></path><path d="M42,19H38a1,1,0,0,0-1,1v4a1,1,0,0,0,1,1h4a1,1,0,0,0,1-1V20A1,1,0,0,0,42,19Zm-1,4H39V21h2Z"></path><path d="M27,36a1,1,0,0,0-1-1H22a1,1,0,0,0-1,1v4a1,1,0,0,0,1,1h4a1,1,0,0,0,1-1Zm-2,3H23V37h2Z"></path><polygon points="23 31 25 31 25 33 27 33 27 31 30 31 30 29 28 29 28 27 26 27 26 29 23 29 23 27 21 27 21 33 23 33 23 31"></polygon><path d="M41,39H39v2h3a1,1,0,0,0,1-1V37H41Z"></path><polygon points="34 37 35 37 35 35 34 35 34 32 32 32 32 35 29 35 29 37 32 37 32 39 29 39 29 41 37 41 37 39 34 39 34 37"></polygon><rect x="41" y="27" width="2" height="8"></rect><rect x="32" y="28" width="3" height="2"></rect><rect x="37" y="35" width="2" height="2"></rect><polygon points="31 26 33 26 33 25 35 25 35 23 33 23 33 21 35 21 35 19 29 19 29 21 31 21 31 26"></polygon><rect x="37" y="28" width="2" height="5"></rect></g></svg>