<svg xmlns="http://www.w3.org/2000/svg" viewBox="0 0 64 64" x="0px" y="0px"><g data-name="Graphic Tablet"><path d="M57,17H48.28l-6.6,24.67a1.982,1.982,0,0,1-1.65,1.43l-3.19,4.85a1.026,1.026,0,0,1-.84.45,1.266,1.266,0,0,1-.26-.04l-.77,2.9-1.94-.52.78-2.9a.992.992,0,0,1-.74-.9l-.34-5.76a1.89,1.89,0,0,1-.51-.58,1.969,1.969,0,0,1-.2-1.52L37.93,17H7a3.009,3.009,0,0,0-3,3V52a3.009,3.009,0,0,0,3,3H57a3.009,3.009,0,0,0,3-3V20A3.009,3.009,0,0,0,57,17ZM8,20h4v2H8Zm0,4h4v2H8Zm0,4h4v2H8Zm4,24H8V50h4Zm0-4H8V46h4Zm0-4H8V42h4Zm-2-4a4,4,0,1,1,4-4A4,4,0,0,1,10,40ZM21,52H18a2.006,2.006,0,0,1-2-2V47h2v3h3Zm0-30H18v3H16V22a2.006,2.006,0,0,1,2-2h3ZM58,50a2.006,2.006,0,0,1-2,2H53V50h3V47h2Zm0-25H56V22H53V20h3a2.006,2.006,0,0,1,2,2Z"></path><circle cx="10" cy="36" r="2"></circle><rect x="43.87" y="9.431" width="2" height="2" transform="translate(23.184 51.074) rotate(-75.004)"></rect><polygon points="35.563 46.243 37.887 42.724 34.772 41.89 35.024 46.098 35.563 46.243"></polygon><path d="M41.2,12.55,33.95,39.6l5.79,1.55h.01l7.24-27.04ZM38.85,36.77l-1.93-.52,1.55-5.79,1.93.51Z"></path></g></svg>