<svg xmlns="http://www.w3.org/2000/svg" viewBox="0 0 64 64" x="0px" y="0px"><g data-name="Car Control-Internet of Things-Internet-Car-Smartphone"><rect x="49" y="35" width="2" height="4"></rect><rect x="35" y="49" width="4" height="2"></rect><polygon points="47.92 12 44.72 8 39 8 39 12 47.92 12"></polygon><rect x="57" y="18" width="2" height="2"></rect><path d="M11,26H31V25a3.009,3.009,0,0,0-3-3H14a3.009,3.009,0,0,0-3,3Z"></path><polygon points="37 12 37 8 29.54 8 26.87 12 37 12"></polygon><path d="M24.12,13.47a.963.963,0,0,1,.05-1.02l4-6A1,1,0,0,1,29,6H43.12l-1.3-1.62A1,1,0,0,0,41.04,4h-13a1.043,1.043,0,0,0-.83.43l-6.09,8.71a2.007,2.007,0,0,1-1.64.86H17v6H28a5,5,0,0,1,5,5v1h4V14H25A.984.984,0,0,1,24.12,13.47ZM29,18H25V16h4Z"></path><path d="M21,32a2.006,2.006,0,0,0-2,2v2h4V34A2.006,2.006,0,0,0,21,32Z"></path><path d="M16.46,48l-2.28,3.96.54.82A7.535,7.535,0,0,1,15.37,54H28a3.009,3.009,0,0,0,3-3V48ZM22,52H20V50h2Z"></path><path d="M50,23a4,4,0,1,0,4,4A4,4,0,0,0,50,23Zm1,5H49V26h2Z"></path><path d="M15.77,43.21a1.831,1.831,0,0,1,.36.26A.947.947,0,0,1,16,43V37a1,1,0,0,1,1-1V34a4,4,0,0,1,8,0v2a1,1,0,0,1,1,1v6a1,1,0,0,1-1,1H17a.886.886,0,0,1-.43-.11A3,3,0,0,1,17.25,46H31V28H11V45.46l.67-1.16A3,3,0,0,1,15.77,43.21Z"></path><path d="M12.13,51.5a.994.994,0,0,0,.04,1.05l.89,1.34A5.627,5.627,0,0,1,14,57a5.554,5.554,0,0,1-.87,3H4.88l-.62-9.9a9.055,9.055,0,0,1,2.26-6.55L9,40.76v8.17l-.33.57,1.73,1,3-5.2a1.007,1.007,0,0,1,1.37-.36.99.99,0,0,1,.46.6.963.963,0,0,1-.1.76Z"></path><rect x="18" y="38" width="6" height="4"></rect><path d="M56,16h3V15a1,1,0,0,0-1-1H39V26h5.09a5.993,5.993,0,0,1,11.82,0H59V22H56a1,1,0,0,1-1-1V17A1,1,0,0,1,56,16ZM45,18H41V16h4Z"></path><path d="M58,51V49l-2.21-.55a6.159,6.159,0,0,0-.6-1.45l1.17-1.95-1.41-1.41L53,44.81a6.159,6.159,0,0,0-1.45-.6L51,42H49l-.55,2.21a6.159,6.159,0,0,0-1.45.6l-1.95-1.17-1.41,1.41L44.81,47a6.159,6.159,0,0,0-.6,1.45L42,49v2l2.21.55a6.159,6.159,0,0,0,.6,1.45l-1.17,1.95,1.41,1.41L47,55.19a6.159,6.159,0,0,0,1.45.6L49,58h2l.55-2.21a6.159,6.159,0,0,0,1.45-.6l1.95,1.17,1.41-1.41L55.19,53a6.159,6.159,0,0,0,.6-1.45Zm-8,1a2,2,0,1,1,2-2A2.006,2.006,0,0,1,50,52Z"></path></g></svg>