<svg xmlns="http://www.w3.org/2000/svg" viewBox="0 0 64 64" x="0px" y="0px"><g data-name="Goal-On top-Success-Business-Mountain-Flag"><path d="M51,23h8a2,2,0,0,0,0-4H57.82a3,3,0,1,0-5.64,0H51a2,2,0,0,0,0,4Z"></path><path d="M9,13h8a2,2,0,0,0,0-4H15.82a3,3,0,1,0-5.64,0H9a2,2,0,0,0,0,4Z"></path><path d="M16.29,34.29a1.008,1.008,0,0,1,1.42,0L19,35.59l.32-.33L17,29.63l-2.32,5.63.32.33Z"></path><path d="M36.64,33.77a1.01,1.01,0,0,1-1.35-.06L32,30.41l-3.29,3.3a1.011,1.011,0,0,1-1.35.06l-1.22-1.02L13.56,60H50.44L37.86,32.75Z"></path><path d="M20.15,37.27l-.44.44a1.014,1.014,0,0,1-1.42,0L17,36.41l-1.29,1.3a1.008,1.008,0,0,1-1.42,0l-.44-.44L4.49,60h6.87l9.59-20.78Z"></path><path d="M46.29,34.29a1.008,1.008,0,0,1,1.42,0L49,35.59l.32-.33L47,29.63l-2.32,5.63.32.33Z"></path><path d="M33,12V23h.36l3.63,7.87-.93.78-3.35-3.36a1.008,1.008,0,0,0-1.42,0l-3.35,3.36-.93-.78L30.64,23H31V4H43v8Z"></path><path d="M50.15,37.27l-.44.44a1.014,1.014,0,0,1-1.42,0L47,36.41l-1.29,1.3a1.008,1.008,0,0,1-1.42,0l-.44-.44-.8,1.95L52.64,60h6.87Z"></path></g></svg>