<svg xmlns="http://www.w3.org/2000/svg" viewBox="0 0 64 64" x="0px" y="0px"><g><path d="M57,38H39a1,1,0,0,0-1,1V57a1,1,0,0,0,1,1H57a1,1,0,0,0,1-1V39A1,1,0,0,0,57,38Zm-1,6H52V40h4ZM46,50V46h4v4Zm4,2v4H46V52Zm-6-2H40V46h4Zm2-6V40h4v4Zm6,2h4v4H52Zm-8-6v4H40V40ZM40,52h4v4H40Zm12,4V52h4v4Z"></path><path d="M60,20.184V3a1,1,0,0,0-1.588-.809L56.251,3.763l-2.16-1.572a1,1,0,0,0-1.177,0L50.756,3.763,48.6,2.191a1,1,0,0,0-1.177,0L45.258,3.763,43.1,2.191a1,1,0,0,0-1.176,0L39.754,3.764,37.587,2.191A1,1,0,0,0,36,3V20.184A3,3,0,0,0,34,23V34H32V11a1,1,0,0,0-.293-.707l-8-8A1,1,0,0,0,23,2H5A3,3,0,0,0,2,5V39a3,3,0,0,0,3,3H8V56a2,2,0,0,0,2,2H34v1a3,3,0,0,0,3,3H59a3,3,0,0,0,3-3V23A3,3,0,0,0,60,20.184ZM39.167,5.809a1,1,0,0,0,1.175,0l2.166-1.573L44.67,5.809a1,1,0,0,0,1.177,0l2.161-1.572,2.16,1.572a1,1,0,0,0,1.177,0L53.5,4.237l2.16,1.572a1,1,0,0,0,1.176,0L58,4.964V20H38V4.962ZM10,52H20v1H10Zm12,0h4v4H22Zm6,0h6v1H28ZM14.91,50A6.008,6.008,0,0,0,10,45.09V40.91A6.008,6.008,0,0,0,14.91,36H34V50ZM10,38.858V36h2.858A4,4,0,0,1,10,38.858ZM24,5.414,28.586,10H25a1,1,0,0,1-1-1ZM5,40a1,1,0,0,1-1-1V5A1,1,0,0,1,5,4H22V9a3,3,0,0,0,3,3h5V34H10a2,2,0,0,0-2,2v4Zm5,7.126A4.007,4.007,0,0,1,12.859,50H10ZM10,55H20v1H10Zm18,1V55h6v1Zm32,3a1,1,0,0,1-1,1H37a1,1,0,0,1-1-1V23a1,1,0,0,1,1-1H59a1,1,0,0,1,1,1Z"></path><path d="M57,24H39a1,1,0,0,0-1,1V35a1,1,0,0,0,1,1H57a1,1,0,0,0,1-1V25A1,1,0,0,0,57,24ZM56,34H40V26H56Z"></path><rect x="41" y="8" width="10" height="2"></rect><rect x="53" y="8" width="2" height="2"></rect><rect x="41" y="12" width="10" height="2"></rect><rect x="53" y="12" width="2" height="2"></rect><rect x="41" y="16" width="10" height="2"></rect><rect x="53" y="16" width="2" height="2"></rect><rect x="51" y="29" width="2" height="2"></rect><rect x="47" y="29" width="2" height="2"></rect><rect x="43" y="29" width="2" height="2"></rect><path d="M24,38a5,5,0,1,0,5,5A5.006,5.006,0,0,0,24,38Zm0,8a3,3,0,1,1,3-3A3,3,0,0,1,24,46Z"></path><rect x="8" y="6" width="2" height="2"></rect><rect x="12" y="6" width="6" height="2"></rect><rect x="8" y="10" width="10" height="2"></rect><rect x="8" y="16" width="2" height="2"></rect><rect x="12" y="16" width="2" height="2"></rect><rect x="16" y="16" width="10" height="2"></rect><rect x="8" y="20" width="18" height="2"></rect><rect x="8" y="24" width="18" height="2"></rect><rect x="8" y="28" width="12" height="2"></rect><rect x="22" y="28" width="4" height="2"></rect></g></svg>