<svg xmlns="http://www.w3.org/2000/svg" viewBox="0 0 64 64" x="0px" y="0px"><g><path d="M37,44A18,18,0,1,0,19,26,18.021,18.021,0,0,0,37,44Zm0-34A16,16,0,1,1,21,26,16.019,16.019,0,0,1,37,10Z"></path><path d="M37,40A14,14,0,1,0,23,26,14.015,14.015,0,0,0,37,40Zm0-26A12,12,0,1,1,25,26,12.013,12.013,0,0,1,37,14Z"></path><path d="M31.03,30.242A1,1,0,0,0,32,31H42a1,1,0,0,0,.97-.758l2-8A1,1,0,0,0,43.4,21.2l-3.113,2.335-2.43-4.05a1.04,1.04,0,0,0-1.714,0l-2.43,4.05L30.6,21.2a1,1,0,0,0-1.57,1.042ZM33.4,25.8a1,1,0,0,0,1.457-.285L37,21.943l2.143,3.572A1,1,0,0,0,40.6,25.8l1.747-1.31L41.219,29H32.781l-1.128-4.51Z"></path><rect x="31" y="32" width="12" height="2"></rect><path d="M58,2H12A7.008,7.008,0,0,0,5,9V55a7.008,7.008,0,0,0,7,7H58a1,1,0,0,0,1-1V3A1,1,0,0,0,58,2ZM57,48H17V4H57ZM13,4h2V48H13ZM7,9a5.009,5.009,0,0,1,4-4.9V17.08a6.975,6.975,0,0,0-4,2.031ZM7,24a5.009,5.009,0,0,1,4-4.9V34.08a6.975,6.975,0,0,0-4,2.031Zm4,12.1V48.08a6.988,6.988,0,0,0-4,2.025V41A5.009,5.009,0,0,1,11,36.1ZM12,60a5,5,0,0,1,0-10H57v2H13a3,3,0,0,0,0,6H57v2Zm45-6v2H13a1,1,0,0,1,0-2Z"></path></g></svg>