<svg xmlns="http://www.w3.org/2000/svg" viewBox="0 0 64 64" x="0px" y="0px"><g data-name="Stop Watch"><path d="M32,12A24,24,0,1,0,56,36,24.028,24.028,0,0,0,32,12Zm0,46A22,22,0,1,1,54,36,22.025,22.025,0,0,1,32,58Z"></path><circle cx="32" cy="36" r="1"></circle><path d="M32,16A20,20,0,1,0,52,36,20.023,20.023,0,0,0,32,16Zm0,4a16.129,16.129,0,0,1,2.132.141l-.264,1.982A14.179,14.179,0,0,0,32,22Zm7.293,24.707L33.285,38.7A2.951,2.951,0,0,1,32,39a3,3,0,1,1,3-3,2.951,2.951,0,0,1-.3,1.285l6.008,6.008ZM44.835,41.6a14.013,14.013,0,0,0-9.1-19.1l.532-1.928A16.04,16.04,0,0,1,48,36a15.878,15.878,0,0,1-1.332,6.4Z"></path><path d="M13.62,16.2,12.2,17.62l.729.729q.679-.735,1.416-1.416Z"></path><path d="M32,10c.335,0,.668.013,1,.025V8H31v2.025C31.332,10.013,31.665,10,32,10Z"></path><rect x="28" y="4" width="8.001" height="2"></rect><path d="M49.651,16.933q.735.679,1.416,1.416l.729-.729L50.38,16.2Z"></path></g></svg>