<svg xmlns="http://www.w3.org/2000/svg" viewBox="0 0 64 64" x="0px" y="0px"><g><rect x="52" y="52" width="4.002" height="4"></rect><path d="M40,28v6H56V28Zm5,4H43V30h2Zm4,0H47V30h2Zm4,0H51V30h2Z"></path><rect x="52" y="46" width="4.001" height="4"></rect><rect x="52" y="40" width="4" height="4"></rect><rect x="46" y="40" width="4" height="4"></rect><rect x="46" y="52" width="4" height="4"></rect><rect x="46" y="46" width="4" height="4"></rect><rect x="32" y="40" width="2" height="4"></rect><path d="M48.29,10.29a1.014,1.014,0,0,1,1.42,0l.29.3V8H48v2.59Z"></path><path d="M58,22V5a1,1,0,0,0-1-1H32V6H54a2.006,2.006,0,0,1,2,2V22Z"></path><rect x="32" y="46" width="2" height="2"></rect><path d="M34,25a3.009,3.009,0,0,1,3-3H54V8H52v5a.987.987,0,0,1-.62.92A.838.838,0,0,1,51,14a1.007,1.007,0,0,1-.71-.29L49,12.41l-1.29,1.3a1,1,0,0,1-1.09.21A.987.987,0,0,1,46,13V8H32v6h2v2H32v4h2v2H32v4h2Z"></path><rect x="40" y="40" width="4" height="4"></rect><rect x="32" y="28" width="2" height="4"></rect><rect x="32" y="34" width="2" height="4"></rect><path d="M28,53v8H11.84L8.4,55.04a1.01,1.01,0,0,1,.37-1.37.99.99,0,0,1,1.36.37l2,3.46a1.022,1.022,0,0,0,1.13.47A1,1,0,0,0,14,57V45a1,1,0,0,1,2,0v9a1,1,0,0,0,2,0V51a1.074,1.074,0,0,1,1-1,1,1,0,0,1,1,1v3a1,1,0,0,0,2,0V52a1,1,0,0,1,2,0v3a1,1,0,0,0,2,0V53a1,1,0,0,1,2,0Z"></path><path d="M4,5V47a1,1,0,0,0,1,1h7V46H8a2.006,2.006,0,0,1-2-2V8A2.006,2.006,0,0,1,8,6H30V4H5A1,1,0,0,0,4,5Z"></path><rect x="40" y="46" width="4" height="4"></rect><path d="M30,14V8H8V44h4.18a2.988,2.988,0,0,1,5.64,0H30V40H28V38h2V34H28V32h2V28H28V26h2V22H28V20h2V16H28V14ZM10,30H20v2H10ZM24,40H10V38H24Zm0-4H10V34H24Zm0-4H22V30h2Zm0-4H10V26H24Zm.54-5.88-1.42,1.42L21,21.41l-2.12,2.13-1.42-1.42L19.59,20l-2.13-2.12,1.42-1.42L21,18.59l2.12-2.13,1.42,1.42L22.41,20ZM26,14H17.74l-2.78,9.29a1.006,1.006,0,0,1-.81.7A.757.757,0,0,1,14,24a1.008,1.008,0,0,1-.83-.45L11.46,21H10V19h2a1,1,0,0,1,.83.45l.82,1.23,2.39-7.97A1.008,1.008,0,0,1,17,12h9Z"></path><path d="M59,24H37a1,1,0,0,0-1,1V59a1,1,0,0,0,1,1H59a1,1,0,0,0,1-1V25A1,1,0,0,0,59,24ZM58,56a2.006,2.006,0,0,1-2,2H40a2.006,2.006,0,0,1-2-2V40a2.006,2.006,0,0,1,2-2H56a2.006,2.006,0,0,1,2,2Zm0-22a2.006,2.006,0,0,1-2,2H40a2.006,2.006,0,0,1-2-2V28a2.006,2.006,0,0,1,2-2H56a2.006,2.006,0,0,1,2,2Z"></path><rect x="40" y="52" width="4" height="4"></rect><rect x="18" y="46" width="12" height="2"></rect></g></svg>