<svg xmlns="http://www.w3.org/2000/svg" viewBox="0 0 64 64" x="0px" y="0px"><g><path d="M61,23a1,1,0,0,0,1-1V16a1,1,0,0,0-1-1H59V12a1,1,0,0,0-1-1H55.414L46.707,2.293A1,1,0,0,0,46,2H18a1,1,0,0,0-.707.293L8.586,11H6a1,1,0,0,0-1,1v3H3a1,1,0,0,0-1,1v6a1,1,0,0,0,1,1H7V50H6a1,1,0,0,0-1,1v3H3a1,1,0,0,0-1,1v6a1,1,0,0,0,1,1H61a1,1,0,0,0,1-1V55a1,1,0,0,0-1-1H59V51a1,1,0,0,0-1-1H57V23Zm-1-6v4h-16.4a11.932,11.932,0,0,0,.4-3c0-.338-.023-.669-.051-1H60ZM32,8A10,10,0,1,1,22,18,10.011,10.011,0,0,1,32,8Zm25,7h-13.4a11.9,11.9,0,0,0-.71-2H57ZM18.414,4H45.586l7,7H41.727a11.961,11.961,0,0,0-19.454,0H11.414ZM7,13H21.105a11.9,11.9,0,0,0-.71,2H7ZM4,17H20.051c-.028.331-.051.662-.051,1a11.932,11.932,0,0,0,.395,3H4ZM4,56H18V54H7V52H19.78l-1.6,8H4Zm16.22,4,1.6-8H42.181l1.6,8ZM39,50H33V35h6Zm-8,0H25V35h6Zm15,4v2H60v4H45.82l-1.6-8H57v2Zm9-4H41V34a1,1,0,0,0-1-1H24a1,1,0,0,0-1,1V50H9V23H21.105A11.979,11.979,0,0,0,42.9,23H55Z"></path><rect x="24" y="53" width="16" height="2"></rect><rect x="23" y="57" width="18" height="2"></rect><path d="M44,41h8a1,1,0,0,0,1-1V34a1,1,0,0,0-1-1H44a1,1,0,0,0-1,1v6A1,1,0,0,0,44,41Zm1-6h6v4H45Z"></path><path d="M20,33H12a1,1,0,0,0-1,1v6a1,1,0,0,0,1,1h8a1,1,0,0,0,1-1V34A1,1,0,0,0,20,33Zm-1,6H13V35h6Z"></path><path d="M27,24H37a2,2,0,0,0,2-2V14a2,2,0,0,0-2-2H27a2,2,0,0,0-2,2v8A2,2,0,0,0,27,24Zm0-2V17h2a1,1,0,0,0,1,1h4a1,1,0,0,0,1-1h2v5Zm10-7H35V14h2Zm-4-1v2H31V14Zm-4,0v1H27V14Z"></path></g></svg>