<svg xmlns="http://www.w3.org/2000/svg" viewBox="0 0 64 64" x="0px" y="0px"><g data-name="Bull Mastiff-Dog"><polygon points="60 4 55.081 4 60 10.149 60 4"></polygon><polygon points="45.382 16 46 14.764 46 14 44 14 44 14.764 44.618 16 45.382 16"></polygon><polygon points="26 58 26 45.27 22 44.088 22 58 26 58"></polygon><polygon points="31 4 31 10.149 35.919 4 31 4"></polygon><path d="M55,60V30H34a1,1,0,0,1-1-1V27H16a5.006,5.006,0,0,0-5,5V60h3V50a1,1,0,0,1,.293-.707L17,46.586V40h2v1.219L32.145,45H35a1,1,0,0,1,1,1V60h4V46a1,1,0,0,1,1-1h9a1,1,0,0,1,1,1V60ZM41,42V40c.408,0,1-.779,1-2h2C44,40.243,42.683,42,41,42Zm1-6c0-1.221-.592-2-1-2V32c1.683,0,3,1.757,3,4Zm7,6c-1.683,0-3-1.757-3-4h2c0,1.221.592,2,1,2Zm0-8c-.408,0-1,.779-1,2H46c0-2.243,1.317-4,3-4Z"></path><path d="M40.143,12.485A1,1,0,0,1,41,12h1V8H38.721L38,10.162v2.3l1.539,1.026ZM39,9h2v2H39Z"></path><path d="M55,7.1,52.519,4H38.481L35,8.351V28H55ZM54,13a1,1,0,0,1-.445.832l-2.064,1.376,1.366,2.277A1,1,0,0,1,53,18v7a1,1,0,0,1-1,1H48a1,1,0,0,1-.707-.293L46.586,25H43.414l-.707.707A1,1,0,0,1,42,26H38a1,1,0,0,1-1-1V18a1,1,0,0,1,.143-.515l1.366-2.277-2.064-1.376A1,1,0,0,1,36,13V10a1,1,0,0,1,.052-.316l1-3A1,1,0,0,1,38,6h5a1,1,0,0,1,1,1v5h2V7a1,1,0,0,1,1-1h5a1,1,0,0,1,.948.684l1,3A1,1,0,0,1,54,10Z"></path><path d="M48,8v4h1a1,1,0,0,1,.857.485l.6,1.006L52,12.465v-2.3L51.279,8Zm3,3H49V9h2Z"></path><path d="M7,34H9V32H4.171A3.006,3.006,0,0,0,7,34Z"></path><path d="M48,14v1a1,1,0,0,1-.1.447l-1,2A1,1,0,0,1,46,18v.764L46.618,20h.764l.723-1.447,1.79.894-1,2A1,1,0,0,1,48,22H46a1,1,0,0,1-.9-.553l-.1-.211-.1.211A1,1,0,0,1,44,22H42a1,1,0,0,1-.9-.553l-1-2,1.79-.894L42.618,20h.764L44,18.764V18a1,1,0,0,1-.9-.553l-1-2A1,1,0,0,1,42,15V14h-.434L39,18.277V24h2.586l.707-.707A1,1,0,0,1,43,23h4a1,1,0,0,1,.707.293l.707.707H51V18.277L48.434,14Z"></path></g></svg>