<svg xmlns="http://www.w3.org/2000/svg" viewBox="0 0 64 64" x="0px" y="0px"><g data-name="Student Data"><path d="M17,14a1,1,0,0,0,1-1V12a1,1,0,0,0-2,0v1A1,1,0,0,0,17,14Z"></path><path d="M11,8V21H23V8ZM21,20H13a1,1,0,0,1-1-1,4.994,4.994,0,0,1,2.52-4.32A2.957,2.957,0,0,1,14,13V12a3,3,0,0,1,6,0v1a2.957,2.957,0,0,1-.52,1.68A4.994,4.994,0,0,1,22,19,1,1,0,0,1,21,20Z"></path><path d="M17,16a3.006,3.006,0,0,0-2.829,2h5.658A3.006,3.006,0,0,0,17,16Z"></path><path d="M43,11h4.586L42,5.414V10A1,1,0,0,0,43,11Z"></path><path d="M55.775,18.743l-1.914,4.618,1.848.766,1.914-4.619a1,1,0,1,0-1.848-.765Z"></path><polygon points="42.031 54.512 43.015 53.505 42.049 53.104 42.031 54.512"></polygon><polygon points="54.94 25.97 52 33.06 49 40.3 44.22 51.84 42.37 51.07 49 35.09 52 27.86 53.1 25.21 54.94 25.97"></polygon><path d="M43,13a3.009,3.009,0,0,1-3-3V4H7V60H49V45.54l-3.31,7.99a.945.945,0,0,1-.21.31L41.72,57.7A1.015,1.015,0,0,1,41,58a.838.838,0,0,1-.38-.08.991.991,0,0,1-.62-.93l.07-5.39a.971.971,0,0,1,.07-.37L49,29.86V13ZM29,15h4v2H29ZM9,22V7a1,1,0,0,1,1-1H24a1,1,0,0,1,1,1V22a1,1,0,0,1-1,1H10A1,1,0,0,1,9,22Zm3,18h4v2H12Zm28,9H12V47H40Zm3-7H18V40H43Zm2-6H12V34H45Zm0-6H12V28H45Zm0-8H29V20H45Zm0-5H35V15H45Z"></path><path d="M57.919,32.394l-1.838-.788,2.628-6.133L57.553,24.9l.894-1.79,2,1a1,1,0,0,1,.472,1.289Z"></path></g></svg>