<svg xmlns="http://www.w3.org/2000/svg" viewBox="0 0 64 64" x="0px" y="0px"><g><path d="M47,56H22V45h2a1,1,0,0,0,1-1H40a1,1,0,0,0,1-1V40a1,1,0,0,0-1-1H25V38a1,1,0,0,0-1-1H22V20h5.113A5,5,0,0,0,29,22.992V29a1,1,0,0,0,.105.447l1,2A1,1,0,0,0,31,32v3h2V32a1,1,0,0,0,.9-.553l1-2A1,1,0,0,0,35,29V27h7V25H35V22.992A5,5,0,0,0,36.887,20H39a1,1,0,0,0,1-1V12h3a1,1,0,0,0,1-1V3a1,1,0,0,0-1-1H13a1,1,0,0,0-1,1v8a1,1,0,0,0,1,1h1v7a1,1,0,0,0,1,1h1V37H14a1,1,0,0,0-1,1v6a1,1,0,0,0,1,1h2V56H13a1,1,0,0,0-1,1v4a1,1,0,0,0,1,1H47a1,1,0,0,0,1-1V57A1,1,0,0,0,47,56ZM39,41v1H25V41ZM33,28.764,32.382,30h-.764L31,28.764V23.9c.037.008.075.005.111.012a4.388,4.388,0,0,0,1.778,0c.037-.007.075,0,.111-.012Zm.5-7.17a2.988,2.988,0,0,1-2.269.3,3.047,3.047,0,0,1-.733-.3,3,3,0,1,1,3,0ZM14,4H42v6H14Zm24,8v6H36.9v0c0-.018-.012-.034-.016-.052a4.972,4.972,0,0,0-.259-.833c-.039-.095-.091-.182-.136-.274a5,5,0,0,0-.29-.534c-.064-.1-.136-.189-.207-.283a4.87,4.87,0,0,0-.354-.43c-.084-.089-.171-.172-.261-.255a4.873,4.873,0,0,0-.422-.348c-.1-.073-.2-.143-.3-.209a5,5,0,0,0-.494-.268c-.106-.052-.21-.106-.32-.15a5.134,5.134,0,0,0-.6-.185c-.1-.026-.194-.06-.295-.08a4.749,4.749,0,0,0-1.9,0c-.1.02-.2.054-.3.08a5.134,5.134,0,0,0-.595.185c-.11.044-.214.1-.32.15a5,5,0,0,0-.494.268c-.1.066-.2.136-.3.209a4.873,4.873,0,0,0-.422.348c-.09.083-.177.166-.261.255a4.87,4.87,0,0,0-.354.43c-.071.094-.143.184-.207.283a5,5,0,0,0-.29.534c-.045.092-.1.179-.136.274a4.972,4.972,0,0,0-.259.833c0,.018-.012.034-.016.052v0H16V12ZM18,20h2V37H18ZM15,39h8v4H15Zm3,6h2V56H18ZM46,60H14V58H46Z"></path><path d="M32.71,18.29A1,1,0,0,0,31,19a.99.99,0,0,0,.29.71,1.461,1.461,0,0,0,.33.22A1,1,0,0,0,32,20a.99.99,0,0,0,.92-1.38A1.032,1.032,0,0,0,32.71,18.29Z"></path></g></svg>