<svg xmlns="http://www.w3.org/2000/svg" viewBox="0 0 64 64" x="0px" y="0px"><g><path d="M4,18H7V49a1,1,0,0,0,1,1h4V48H9V14h2V12H8a1,1,0,0,0-1,1v3H3a1,1,0,0,0-1,1V53a1,1,0,0,0,1,1H14V52H4Z"></path><path d="M61,16H57V13a1,1,0,0,0-1-1H36a5,5,0,0,0-4,2,5,5,0,0,0-4-2H23v2h5a3,3,0,0,1,3,3V49.013A4.961,4.961,0,0,0,28,48H22v2h6a3,3,0,0,1,2.816,2H20v2H61a1,1,0,0,0,1-1V17A1,1,0,0,0,61,16ZM36,14H55V48H36a4.961,4.961,0,0,0-3,1.013V17A3,3,0,0,1,36,14ZM60,52H33.184A3,3,0,0,1,36,50H56a1,1,0,0,0,1-1V18h3Z"></path><path d="M21,47V19.414l2,2V27h2V21a1,1,0,0,0-.293-.707L21,16.586V13a1,1,0,0,0-1-1V7a1,1,0,0,0-1-1H15a1,1,0,0,0-1,1v5a1,1,0,0,0-1,1V47a1,1,0,0,0,.105.447l2,4A1,1,0,0,0,16,52v3h2V52a1,1,0,0,0,.895-.553l2-4A1,1,0,0,0,21,47Zm-6-2V20h4V45Zm0-27V14h4v4ZM16,8h2v4H16Zm1.382,42h-.764l-1.5-3h3.764Z"></path><path d="M38.293,27.293l1.414,1.414,1.49-1.49.8.4V29a1,1,0,0,0,.553.895L44,30.618V33h2V30.618l.8-.4,1.49,1.49,1.414-1.414L48,28.586V27a1,1,0,0,0-.553-.895L46,25.382v-.764l1.447-.723A1,1,0,0,0,48,23V21.414l1.707-1.707-1.414-1.414-1.49,1.49-.8-.4V17H44v2.382l-1.447.723A1,1,0,0,0,42,21v1.382l-.8.4-1.49-1.49-1.414,1.414L40,24.414v1.172ZM46,28.382l-1,.5-1-.5v-.764l1-.5,1,.5Zm-2-6.764,1-.5,1,.5v.764l-1,.5-1-.5Zm-2,3,1-.5,1,.5v.764l-1,.5-1-.5Z"></path><rect x="37" y="35" width="4" height="2"></rect><rect x="43" y="35" width="8" height="2"></rect><rect x="37" y="39" width="14" height="2"></rect><rect x="37" y="43" width="14" height="2"></rect></g></svg>