<svg xmlns="http://www.w3.org/2000/svg" viewBox="0 0 64 64" x="0px" y="0px"><title>Cactus_2</title><g data-name="Cactus"><path d="M61,31H48.577A18.007,18.007,0,0,0,50,24a17.823,17.823,0,0,0-.512-4.168,6.971,6.971,0,0,0,2.7-1.226l2.172,2.172,1.414-1.414-2.172-2.172A6.943,6.943,0,0,0,54.921,14H58V12H54.92A6.947,6.947,0,0,0,53.6,8.816l2.18-2.18L54.364,5.222,52.184,7.4A6.947,6.947,0,0,0,49,6.08V3H47V6.074a6.964,6.964,0,0,0-4.845,3.094A17.908,17.908,0,0,0,33,6.05V2H31V6.049A17.8,17.8,0,0,0,22.912,8.5L19.858,5.444,18.444,6.858l2.777,2.777a18.221,18.221,0,0,0-3.134,2.983A6,6,0,0,0,15,11.094V8H13v3.09a5.964,5.964,0,0,0-2.471,1.025L8.343,9.929,6.929,11.343l2.186,2.186A5.964,5.964,0,0,0,8.09,16H5v2H8.09a5.964,5.964,0,0,0,1.025,2.471L6.929,22.657l1.414,1.414,2.186-2.186A5.961,5.961,0,0,0,14,23c.017,0,.034,0,.051,0-.019.334-.051.665-.051,1a18.007,18.007,0,0,0,1.423,7H3a1,1,0,0,0-1,1v4a1,1,0,0,0,1,1H7.147l3.866,24.158A1,1,0,0,0,12,62H52a1,1,0,0,0,.987-.842L56.853,37H61a1,1,0,0,0,1-1V32A1,1,0,0,0,61,31ZM24,23A17.271,17.271,0,0,1,31,8.96V31H25.883A17.79,17.79,0,0,1,24,23ZM33,8.959A17.273,17.273,0,0,1,40,23a17.79,17.79,0,0,1-1.883,8H33ZM35.515,8.4c.256.059.505.135.756.205s.486.127.722.206c.253.084.5.187.746.283.232.09.467.173.693.273.241.107.472.232.707.35s.447.216.662.338.447.275.669.415.421.255.622.395c.216.15.418.316.626.476s.394.292.58.451.386.353.577.531.364.327.535.5.354.392.529.589c.161.181.329.356.482.544.167.206.317.425.474.639.143.2.294.384.428.586.149.223.279.458.416.689.123.206.255.406.369.618.131.244.241.5.36.751.1.211.209.416.3.632.112.266.2.542.3.815.076.213.163.42.23.637.089.289.154.588.227.884.051.209.116.414.159.626.068.333.108.674.155,1.014.025.183.064.363.083.548.053.529.081,1.064.081,1.606a15.965,15.965,0,0,1-1.61,7H40.318A19.84,19.84,0,0,0,42,23,19.4,19.4,0,0,0,35.515,8.4ZM48,8a5,5,0,0,1,.943,9.908,17.908,17.908,0,0,0-5.195-7.539A4.984,4.984,0,0,1,48,8ZM14.257,20.991a4,4,0,1,1,2.628-6.761,17.628,17.628,0,0,0-1.378,2.611c-.045.1-.094.2-.137.306-.151.365-.28.737-.406,1.112-.074.217-.151.433-.216.654-.086.29-.156.585-.227.88-.076.316-.15.632-.21.955C14.3,20.83,14.271,20.909,14.257,20.991ZM16,24c0-.542.028-1.078.081-1.607.018-.177.056-.347.079-.522.043-.319.083-.638.145-.95.018-.09.04-.179.059-.269.031-.145.074-.285.109-.428.074-.3.141-.608.232-.9v0c.066-.213.152-.418.226-.627.1-.276.188-.555.3-.823.091-.218.2-.425.3-.638.118-.249.227-.5.357-.745.116-.216.25-.421.376-.631.135-.226.263-.458.408-.677s.3-.41.45-.615.292-.412.45-.608.353-.4.531-.6c.159-.178.311-.362.478-.532.2-.2.406-.384.611-.573.166-.153.325-.313.5-.459.22-.186.453-.355.683-.53.173-.131.341-.27.519-.395.243-.169.5-.32.75-.476.18-.111.354-.23.537-.334.261-.147.534-.275.8-.408.189-.093.372-.194.564-.279.274-.122.557-.224.839-.33.2-.076.395-.159.6-.227.28-.093.57-.166.857-.244.215-.058.426-.125.645-.174h0A19.4,19.4,0,0,0,22,23a19.84,19.84,0,0,0,1.682,8H17.61A15.965,15.965,0,0,1,16,24ZM51.147,60H12.853L9.173,37H54.827ZM60,35H4V33H60Z"></path><rect x="47" y="56" width="2" height="2"></rect><rect x="47" y="52" width="2" height="2"></rect><rect x="43" y="56" width="2" height="2"></rect></g></svg>