<svg xmlns="http://www.w3.org/2000/svg" viewBox="0 0 64 64" x="0px" y="0px"><g data-name="Mail box"><polygon points="61 13 51 13 51 19 61 19 59 16 61 13"></polygon><rect x="50" y="11" width="2" height="16"></rect><path d="M40,41h6V32a3,3,0,0,0-6,0Z"></path><path d="M60,32a3,3,0,0,0-3-3H46.974A4.948,4.948,0,0,1,48,32v9H60Z"></path><rect x="50" y="43" width="2" height="17"></rect><path d="M34,31.868l-6.336,4.224a2.991,2.991,0,0,1-3.329,0L18,31.869V40H34Z"></path><path d="M26.554,34.428,33.2,30H18.8l6.642,4.428A1,1,0,0,0,26.554,34.428Z"></path><rect x="6" y="30" width="8" height="2"></rect><rect x="2" y="30" width="2" height="2"></rect><rect x="10" y="35" width="4" height="2"></rect><rect x="6" y="35" width="2" height="2"></rect><rect x="12" y="39" width="2" height="2"></rect></g></svg>