<svg xmlns="http://www.w3.org/2000/svg" viewBox="0 0 64 64" x="0px" y="0px"><g data-name="Chair"><path d="M53,43V27a1,1,0,0,0-2,0V41a1,1,0,0,1-1,1H14a1,1,0,0,1-1-1V27a1,1,0,0,0-2,0V43a1,1,0,0,0,1,1H52A1,1,0,0,0,53,43Z"></path><polygon points="49 60 49 46 46.133 46 47.883 60 49 60"></polygon><polygon points="42.827 20 45.009 8 18.991 8 21.173 20 42.827 20"></polygon><polygon points="40 54 40 46 37.883 46 38.883 54 40 54"></polygon><polygon points="25.117 54 26.117 46 24 46 24 54 25.117 54"></polygon><polygon points="16.117 60 17.867 46 15 46 15 60 16.117 60"></polygon><path d="M17.685,23.179a1,1,0,0,0,.984.821H45.331a1,1,0,0,0,.984-.821L49.159,7.537A3,3,0,0,0,46.207,4H17.793a3,3,0,0,0-2.952,3.537Zm-.66-16.82A1,1,0,0,1,17.793,6H46.207a1,1,0,0,1,.983,1.179l-2.544,14a1,1,0,0,1-.984.821H20.338a1,1,0,0,1-.984-.821l-2.544-14A1,1,0,0,1,17.025,6.359Z"></path><rect x="41" y="26" width="2" height="6"></rect><rect x="21" y="26" width="2" height="6"></rect><rect x="15" y="34" width="34" height="6"></rect></g></svg>