<svg xmlns="http://www.w3.org/2000/svg" viewBox="0 0 64 64" x="0px" y="0px"><g><path d="M47,5v9h4.184A2.966,2.966,0,0,1,51,13V5a1,1,0,0,0-1-1H48A1,1,0,0,0,47,5Z"></path><circle cx="27" cy="12" r="2"></circle><circle cx="39" cy="42" r="4"></circle><path d="M45,55V52.15c-.034.023-.062.049-.1.07A2.825,2.825,0,0,1,42.48,52.1a3.636,3.636,0,0,0-.855-.24,5.145,5.145,0,0,0-.546.6A2.875,2.875,0,0,1,39,53.8a2.875,2.875,0,0,1-2.079-1.343,3.481,3.481,0,0,0-.588-.611,3.015,3.015,0,0,0-.813.252,2.82,2.82,0,0,1-2.423.121c-.036-.02-.064-.047-.1-.069V55h2v2H33v2.483l5-2.142V55h2v2.341l5,2.142V57H43V55Z"></path><path d="M8,4A1,1,0,0,0,7,5V52H31V49.02a.06.06,0,0,1-.04-.01,2.842,2.842,0,0,1-2.18-1.11,2.842,2.842,0,0,1,.12-2.42,3.064,3.064,0,0,0,.24-.86,5.269,5.269,0,0,0-.6-.54A2.867,2.867,0,0,1,27.2,42a2.867,2.867,0,0,1,1.34-2.08,3.147,3.147,0,0,0,.61-.59,4.036,4.036,0,0,0-.25-.81,2.842,2.842,0,0,1-.12-2.42,2.842,2.842,0,0,1,2.18-1.11,3.247,3.247,0,0,0,.84-.22,4.438,4.438,0,0,0,.19-.81,2.842,2.842,0,0,1,1.11-2.18,2.842,2.842,0,0,1,2.42.12,3.449,3.449,0,0,0,.86.24,5.269,5.269,0,0,0,.54-.6A2.867,2.867,0,0,1,39,30.2a2.867,2.867,0,0,1,2.08,1.34,3.147,3.147,0,0,0,.59.61,3.091,3.091,0,0,0,.81-.25,2.842,2.842,0,0,1,2.42-.12.359.359,0,0,1,.1.07V5a3,3,0,0,1,.18-1ZM27,8a4,4,0,1,1-4,4A4,4,0,0,1,27,8ZM16,19H38v2H16Zm7,20H13V37H23Zm0-4H13V33H23Zm18-9H13V24H41Z"></path><path d="M48.17,41.45a3.333,3.333,0,0,1-1.25-1.57,3.4,3.4,0,0,1,.3-2.04,5.83,5.83,0,0,0,.22-.72,3.959,3.959,0,0,0-.75-.16,3.418,3.418,0,0,1-1.89-.76,3.334,3.334,0,0,1-.75-1.89,4.89,4.89,0,0,0-.17-.75,5.83,5.83,0,0,0-.72.22,3.4,3.4,0,0,1-2.04.3,3.333,3.333,0,0,1-1.57-1.25,6.447,6.447,0,0,0-.55-.59,6.447,6.447,0,0,0-.55.59,3.333,3.333,0,0,1-1.57,1.25,3.4,3.4,0,0,1-2.04-.3,5.83,5.83,0,0,0-.72-.22,3.959,3.959,0,0,0-.16.75,3.418,3.418,0,0,1-.76,1.89,3.334,3.334,0,0,1-1.89.75,4.89,4.89,0,0,0-.75.17,5.83,5.83,0,0,0,.22.72,3.4,3.4,0,0,1,.3,2.04,3.333,3.333,0,0,1-1.25,1.57,6.447,6.447,0,0,0-.59.55,6.447,6.447,0,0,0,.59.55,3.333,3.333,0,0,1,1.25,1.57,3.4,3.4,0,0,1-.3,2.04,5.83,5.83,0,0,0-.22.72,3.959,3.959,0,0,0,.75.16,3.418,3.418,0,0,1,1.89.76,3.334,3.334,0,0,1,.75,1.89,4.89,4.89,0,0,0,.17.75,5.83,5.83,0,0,0,.72-.22,4.571,4.571,0,0,1,1.52-.36,2.306,2.306,0,0,1,.52.06,3.333,3.333,0,0,1,1.57,1.25,6.447,6.447,0,0,0,.55.59,6.447,6.447,0,0,0,.55-.59,3.333,3.333,0,0,1,1.57-1.25,3.463,3.463,0,0,1,2.04.3,5.83,5.83,0,0,0,.72.22,3.959,3.959,0,0,0,.16-.75,3.418,3.418,0,0,1,.76-1.89,3.334,3.334,0,0,1,1.89-.75,4.89,4.89,0,0,0,.75-.17,5.83,5.83,0,0,0-.22-.72,3.4,3.4,0,0,1-.3-2.04,3.333,3.333,0,0,1,1.25-1.57,6.447,6.447,0,0,0,.59-.55A6.447,6.447,0,0,0,48.17,41.45ZM39,48a6,6,0,1,1,6-6A6,6,0,0,1,39,48Z"></path><path d="M57,13V8H53v5a1,1,0,0,0,1,1h2A1,1,0,0,0,57,13Z"></path></g></svg>