<svg xmlns="http://www.w3.org/2000/svg" viewBox="0 0 64 64" x="0px" y="0px"><g data-name="Reseach-Smartphone-Search-Seo-Search Engine"><path d="M34,54H30a1,1,0,0,0,0,2h4a1,1,0,0,0,0-2Z"></path><path d="M30,34A10,10,0,1,0,20,24,10.011,10.011,0,0,0,30,34Zm0-18a8.009,8.009,0,0,1,8,8H36a6.006,6.006,0,0,0-6-6Z"></path><path d="M19,40a6,6,0,1,0-6,6A6.006,6.006,0,0,0,19,40Zm-6-4a4,4,0,0,1,4,4H15a2,2,0,0,0-2-2Z"></path><path d="M46,4H18a4,4,0,0,0-4,4V32.06a8,8,0,0,1,0,15.88V56a4,4,0,0,0,4,4H46a4,4,0,0,0,4-4V8A4,4,0,0,0,46,4ZM29,6h6V8H29ZM25,6h2V8H25Zm9,52H30a3,3,0,0,1,0-6h4a3,3,0,0,1,0,6Zm3-10H25V46H37ZM25,44V42H41v2Zm18,4H39V46h4Zm1.85-7.74-7.11-7.11a12.038,12.038,0,1,1,1.41-1.41l7.11,7.11Z"></path></g></svg>