<svg xmlns="http://www.w3.org/2000/svg" viewBox="0 0 64 64" x="0px" y="0px"><g><rect x="4" y="58" width="2" height="2"></rect><rect x="17" y="30" width="6" height="6"></rect><rect x="17" y="38" width="6" height="6"></rect><rect x="25" y="10" width="6" height="2"></rect><rect x="17" y="14" width="6" height="6"></rect><rect x="8" y="10" width="7" height="2"></rect><rect x="17" y="22" width="6" height="6"></rect><rect x="17" y="10" width="6" height="2"></rect><rect x="25" y="14" width="6" height="6"></rect><rect x="17" y="46" width="6" height="6"></rect><rect x="33" y="22" width="6" height="6"></rect><rect x="33" y="46" width="6" height="6"></rect><rect x="33" y="30" width="6" height="6"></rect><rect x="33" y="38" width="6" height="6"></rect><rect x="25" y="38" width="6" height="6"></rect><rect x="25" y="22" width="6" height="6"></rect><rect x="25" y="30" width="6" height="6"></rect><rect x="33" y="10" width="6" height="2"></rect><rect x="33" y="14" width="6" height="6"></rect><rect x="25" y="46" width="6" height="6"></rect><rect x="41" y="30" width="6" height="6"></rect><rect x="41" y="38" width="6" height="6"></rect><rect x="49" y="10" width="7" height="2"></rect><rect x="41" y="22" width="6" height="6"></rect><rect x="41" y="46" width="6" height="6"></rect><rect x="41" y="14" width="6" height="6"></rect><path d="M60,5a1,1,0,0,0-2,0V8h2Z"></path><rect x="41" y="10" width="6" height="2"></rect><rect x="58" y="58" width="2" height="2"></rect><rect x="4" y="10" width="2" height="2"></rect><path d="M6,5A1,1,0,0,0,4,5V8H6Z"></path><rect x="4" y="14" width="2" height="34"></rect><rect x="4" y="50" width="2" height="2"></rect><rect x="58" y="54" width="2" height="2"></rect><rect x="58" y="50" width="2" height="2"></rect><rect x="58" y="14" width="2" height="34"></rect><rect x="58" y="10" width="2" height="2"></rect><rect x="4" y="54" width="2" height="2"></rect><rect x="17" y="54" width="2" height="6"></rect><rect x="45" y="54" width="2" height="6"></rect></g></svg>