<svg xmlns="http://www.w3.org/2000/svg" viewBox="0 0 64 64" x="0px" y="0px"><g data-name="Real Estate-Investment-Loan-Finance-Building"><path d="M48,38H16a2.006,2.006,0,0,0-2,2V60a2.006,2.006,0,0,0,2,2H48a2.006,2.006,0,0,0,2-2V40A2.006,2.006,0,0,0,48,38ZM16,40h2.86A4.017,4.017,0,0,1,16,42.86Zm0,11.13A4.013,4.013,0,0,1,18.86,54H16ZM28,60H16V59H28Zm0-3H16V56H28Zm6,3H30V56h4Zm14,0H36V59H48Zm0-3H36V56H48Zm0-3H45.14A4.017,4.017,0,0,1,48,51.14Zm0-4.91A5.992,5.992,0,0,0,43.09,54H20.91A5.992,5.992,0,0,0,16,49.09V44.91A5.992,5.992,0,0,0,20.91,40H43.09A5.992,5.992,0,0,0,48,44.91Zm0-6.23A4.017,4.017,0,0,1,45.14,40H48Z"></path><path d="M32,42a5,5,0,1,0,5,5A5.006,5.006,0,0,0,32,42Zm0,8a3,3,0,1,1,3-3A3,3,0,0,1,32,50Z"></path><path d="M53,32V16h1a1,1,0,0,0,1-1V11a1,1,0,0,0-1-1H43V8h1a1,1,0,0,0,1-1V3a1,1,0,0,0-1-1H20a1,1,0,0,0-1,1V7a1,1,0,0,0,1,1h1v2H10a1,1,0,0,0-1,1v4a1,1,0,0,0,1,1h1V32H6v2H58V32ZM21,32H13V16h8Zm0-18H11V12H21ZM21,4H43V6H21ZM34,32H30V28h4Zm7,0H36V28h1V26H27v2h1v4H23V8H41Zm10,0H43V16h8ZM43,14V12H53v2Z"></path><rect x="25" y="10" width="2" height="2"></rect><rect x="29" y="10" width="2" height="2"></rect><rect x="33" y="10" width="2" height="2"></rect><rect x="37" y="10" width="2" height="2"></rect><rect x="25" y="14" width="2" height="2"></rect><rect x="29" y="14" width="2" height="2"></rect><rect x="33" y="14" width="2" height="2"></rect><rect x="37" y="14" width="2" height="2"></rect><rect x="25" y="18" width="2" height="2"></rect><rect x="29" y="18" width="2" height="2"></rect><rect x="33" y="18" width="2" height="2"></rect><rect x="37" y="18" width="2" height="2"></rect><rect x="25" y="22" width="2" height="2"></rect><rect x="29" y="22" width="2" height="2"></rect><rect x="33" y="22" width="2" height="2"></rect><rect x="37" y="22" width="2" height="2"></rect><rect x="45" y="18" width="4" height="2"></rect><rect x="45" y="22" width="4" height="2"></rect><rect x="45" y="26" width="4" height="2"></rect><rect x="15" y="18" width="4" height="2"></rect><rect x="15" y="22" width="4" height="2"></rect><rect x="15" y="26" width="4" height="2"></rect><rect x="60" y="32" width="2" height="2"></rect><rect x="2" y="32" width="2" height="2"></rect><rect x="56" y="36" width="2" height="2"></rect><rect x="56" y="40" width="2" height="2"></rect><rect x="56" y="44" width="2" height="2"></rect><rect x="56" y="48" width="2" height="2"></rect><rect x="52" y="48" width="2" height="2"></rect><rect x="6" y="36" width="2" height="2"></rect><rect x="6" y="40" width="2" height="2"></rect><rect x="6" y="44" width="2" height="2"></rect><rect x="6" y="48" width="2" height="2"></rect><rect x="10" y="48" width="2" height="2"></rect></g></svg>