<svg xmlns="http://www.w3.org/2000/svg" viewBox="0 0 64 64" x="0px" y="0px"><g data-name="Phone Call"><path d="M45.071,26.172a1.029,1.029,0,0,0-1.414,0l-1.414,1.414a2,2,0,0,0,0,2.828,1,1,0,0,1-1.415,0l-4.242-4.242a1,1,0,0,1,0-1.415,2,2,0,0,0,2.828,0l1.414-1.414a1,1,0,0,0,0-1.414l-5.656-5.657a1,1,0,0,0-1.414,0l-1.416,1.415a2,2,0,0,0,0,2.828,6.007,6.007,0,0,0,0,8.485L38,34.657a6.008,6.008,0,0,0,8.485,0,2,2,0,0,0,2.828,0l1.415-1.414a1,1,0,0,0,0-1.414ZM34.465,18.393l4.242,4.244L38,23.344h0L33.757,19.1Zm10.606,14.85a4.006,4.006,0,0,1-5.657,0l-5.657-5.657a4,4,0,0,1,0-5.657h0l1.415,1.414a3,3,0,0,0,0,4.243l4.242,4.242a3,3,0,0,0,4.243,0l1.414,1.415Zm2.829,0h0L43.657,29l.707-.707,4.242,4.243Z"></path><path d="M55.455,22.859A15.9,15.9,0,0,0,48,13.144,16.112,16.112,0,0,0,45,11.8V7a5.006,5.006,0,0,0-5-5H12A5.006,5.006,0,0,0,7,7V57a5.006,5.006,0,0,0,5,5H40a5.006,5.006,0,0,0,5-5V42.179a15.966,15.966,0,0,0,10.455-19.32ZM19,4H33V5a1,1,0,0,1-1,1H20a1,1,0,0,1-1-1ZM40,60H12a3,3,0,0,1-3-3V7a3,3,0,0,1,3-3h5V5a3,3,0,0,0,3,3H32a3,3,0,0,0,3-3V4h5a3,3,0,0,1,3,3v4.294A15.978,15.978,0,0,0,25.627,34L23.09,39.586a1,1,0,0,0,1.174,1.379l5.655-1.547A15.857,15.857,0,0,0,43,42.714V57A3,3,0,0,1,40,60ZM52.124,34A14,14,0,0,1,33,39.124a14.13,14.13,0,0,1-2.185-1.563,1,1,0,0,0-.655-.245,1.035,1.035,0,0,0-.264.035l-4.105,1.123,1.855-4.085a1,1,0,0,0-.025-.878,13.993,13.993,0,1,1,24.5.489Z"></path><rect x="13" y="16" width="10" height="2"></rect><rect x="13" y="20" width="10" height="2"></rect><rect x="13" y="24" width="8" height="2"></rect><rect x="13" y="28" width="8" height="2"></rect><rect x="13" y="32" width="8" height="2"></rect><rect x="13" y="36" width="8" height="2"></rect><rect x="13" y="44" width="22" height="2"></rect><rect x="13" y="48" width="26" height="2"></rect><rect x="13" y="52" width="26" height="2"></rect></g></svg>