<svg xmlns="http://www.w3.org/2000/svg" viewBox="0 0 64 64" x="0px" y="0px"><g data-name="Presentaion person profile"><path d="M46,35H44a1,1,0,0,0-1,1v5h4V36A1,1,0,0,0,46,35Z"></path><circle cx="45" cy="29" r="1"></circle><circle cx="32" cy="26" r="2"></circle><rect x="4" y="46" width="56" height="2"></rect><path d="M34,33H30a1,1,0,0,0-1,1v7h6V34A1,1,0,0,0,34,33Z"></path><rect x="30" y="50" width="4" height="6"></rect><circle cx="19" cy="29" r="1"></circle><path d="M20,35H18a1,1,0,0,0-1,1v5h4V36A1,1,0,0,0,20,35Z"></path><rect x="23" y="58" width="18" height="2"></rect><path d="M6,44H58V12H6Zm31-1H27V34a3,3,0,0,1,3-3h4a3,3,0,0,1,3,3ZM28,26a4,4,0,1,1,4,4A4,4,0,0,1,28,26Zm17,0a3,3,0,1,1-3,3A3,3,0,0,1,45,26ZM41,36a3,3,0,0,1,3-3h2a3,3,0,0,1,3,3v7H41ZM31,14h6v2H31Zm-4,0h2v2H27Zm-2,4H39v2H25Zm-6,8a3,3,0,1,1-3,3A3,3,0,0,1,19,26ZM15,36a3,3,0,0,1,3-3h2a3,3,0,0,1,3,3v7H15Z"></path><rect x="30" y="4" width="4" height="2"></rect><rect x="4" y="8" width="56" height="2"></rect></g></svg>