<svg xmlns="http://www.w3.org/2000/svg" viewBox="0 0 64 64" x="0px" y="0px"><g data-name="Hand-Coronavirus-Virus-Protection-Healthcare"><path d="M48.167,29.247l1.49-1.49-1.414-1.414-1.49,1.49A4.961,4.961,0,0,0,45,27.1V25H43v2.1a4.961,4.961,0,0,0-1.753.732l-1.49-1.49-1.414,1.414,1.49,1.49A4.961,4.961,0,0,0,39.1,31H37v2h2.1a4.961,4.961,0,0,0,.732,1.753l-1.49,1.49,1.414,1.414,1.49-1.49A4.961,4.961,0,0,0,43,36.9V39h2V36.9a4.961,4.961,0,0,0,1.753-.732l1.49,1.49,1.414-1.414-1.49-1.49A4.961,4.961,0,0,0,48.9,33H51V31H48.9A4.961,4.961,0,0,0,48.167,29.247ZM44,35a3,3,0,1,1,3-3A3,3,0,0,1,44,35Z"></path><rect x="43" y="31" width="2" height="2"></rect><path d="M44,20a11.968,11.968,0,0,0-6,1.62V15a2,2,0,0,1,4,0v3h2V15a4,4,0,0,0-4-4,3.906,3.906,0,0,0-2,.56V11a3.994,3.994,0,0,0-6-3.46V6a4,4,0,1,0-8,0V7.54A3.995,3.995,0,0,0,18,11V27.27l-2.14-3.7a4,4,0,0,0-6.93,4L20,46.73V50H19a1,1,0,0,0-1,1V62h2V52H42V62h2V51a1,1,0,0,0-1-1H42V46H40v4H22V46.46a1.063,1.063,0,0,0-.13-.5L10.67,26.57a1.94,1.94,0,0,1-.27-.99,2,2,0,0,1,3.73-1.01l4,6.93A1,1,0,0,0,19,32h3a7.008,7.008,0,0,1,7,7v2h2V39a9.014,9.014,0,0,0-9-9H20V11a2.015,2.015,0,0,1,2-2,2.006,2.006,0,0,1,2,2V25a1,1,0,0,0,2,0V6a2.015,2.015,0,0,1,2-2,2.006,2.006,0,0,1,2,2V25a1,1,0,0,0,2,0V11a2.015,2.015,0,0,1,2-2,2.006,2.006,0,0,1,2,2V23.08A11.98,11.98,0,1,0,44,20Zm0,22A10,10,0,1,1,54,32,10.016,10.016,0,0,1,44,42Z"></path></g></svg>