<svg xmlns="http://www.w3.org/2000/svg" viewBox="0 0 64 64" x="0px" y="0px"><g data-name="Pipe-Plumbering-Home Repair-Water-Blocked"><circle cx="15" cy="57" r="1"></circle><rect x="52" y="22" width="8" height="8"></rect><rect x="4" y="4" width="12" height="4" rx="1"></rect><circle cx="20" cy="54" r="2"></circle><path d="M14.15,46.43a1.48,1.48,0,0,0-1.01-.38c-.84,0-1.28.55-1.98,1.53-.75,1.06-1.69,2.37-3.59,2.37a3.425,3.425,0,0,1-.74-.08A14.944,14.944,0,0,0,12,56.97,3,3,0,0,1,15,54a2.887,2.887,0,0,1,1.02.19c0-.06-.02-.12-.02-.19a3.956,3.956,0,0,1,1.4-3.01A7.011,7.011,0,0,1,14.15,46.43ZM12,53H10V51h2Z"></path><rect x="46" y="20" width="4" height="12" rx="1"></rect><path d="M34.45,49.58c-.75,1.05-1.69,2.37-3.6,2.37s-2.85-1.31-3.6-2.37c-.16-.22-.32-.43-.47-.63a7.117,7.117,0,0,1-3.57,2.69,3.917,3.917,0,0,1,.21,4.41,1.994,1.994,0,0,1,.66,3.63A15.022,15.022,0,0,0,35.62,48.3,4.825,4.825,0,0,0,34.45,49.58ZM28,56H26V54h2Z"></path><rect x="26" y="38" width="12" height="4" rx="1"></rect><path d="M44,30V22H43A15.015,15.015,0,0,0,28.05,36h8.03A7,7,0,0,1,43,30Z"></path><path d="M36,45V44H28v1a7.1,7.1,0,0,1-.3,2.02,8.512,8.512,0,0,1,1.18,1.4c.7.98,1.13,1.53,1.97,1.53s1.28-.55,1.98-1.53a4.59,4.59,0,0,1,3.11-2.33C35.97,45.73,36,45.37,36,45Z"></path><path d="M22.49,59.92A1.984,1.984,0,0,1,21,58c0-.05.01-.1.01-.15A3.737,3.737,0,0,1,20,58a3.943,3.943,0,0,1-2.04-.58,3,3,0,0,1-1.17,1.97A15.035,15.035,0,0,0,21,60,14.716,14.716,0,0,0,22.49,59.92Z"></path><path d="M7.57,47.95c.83,0,1.27-.55,1.97-1.53.75-1.05,1.69-2.37,3.6-2.37a3.5,3.5,0,0,1,.86.11V10H6V45a15.5,15.5,0,0,0,.17,2.17A1.746,1.746,0,0,0,7.57,47.95Z"></path></g></svg>