<svg xmlns="http://www.w3.org/2000/svg" viewBox="0 0 32 32" x="0px" y="0px"><title>File Text_25</title><g data-name="File Text"><path d="M27.99,7.944a.967.967,0,0,0-.039-.22c-.01-.032-.015-.065-.028-.1a.994.994,0,0,0-.164-.278l-6-7a.974.974,0,0,0-.3-.231c-.031-.016-.061-.027-.093-.04A.98.98,0,0,0,21.05.011C21.032.01,21.017,0,21,0H5A1,1,0,0,0,4,1V31a1,1,0,0,0,1,1H27a1,1,0,0,0,1-1V8C28,7.981,27.991,7.963,27.99,7.944ZM22,3.7,24.826,7H22ZM12,2V5.586l-.293-.293a1,1,0,0,0-1.414,0L10,5.586V2ZM6,30V2H8V8a1,1,0,0,0,1.707.707L11,7.414l1.293,1.293A1,1,0,0,0,13,9a.987.987,0,0,0,.383-.076A1,1,0,0,0,14,8V2h6V8a1,1,0,0,0,1,1h5V30Z"></path><rect x="9" y="13" width="14" height="2"></rect><rect x="9" y="17" width="14" height="2"></rect><rect x="9" y="21" width="14" height="2"></rect><rect x="9" y="25" width="9" height="2"></rect></g></svg>