<svg xmlns="http://www.w3.org/2000/svg" viewBox="0 0 64 64" x="0px" y="0px"><g data-name="Ear Ring"><path d="M18,24.127V16H16v8.127a4,4,0,0,1,2,0Z"></path><path d="M17,30a2,2,0,0,0,2-2,1.949,1.949,0,0,0-.657-1.476,1.852,1.852,0,0,0-.153-.115,2.033,2.033,0,0,0-2.519.1A1.962,1.962,0,0,0,15,28,2,2,0,0,0,17,30Z"></path><path d="M17,38A11,11,0,1,0,28,49,11.013,11.013,0,0,0,17,38Zm0,3a8.009,8.009,0,0,0-8,8H7A10.011,10.011,0,0,1,17,39Z"></path><path d="M18,14H16V9.874A4,4,0,1,1,21,6H19a2,2,0,1,0-2,2,1,1,0,0,1,1,1Z"></path><rect x="16" y="32" width="2" height="4"></rect><path d="M48,14H46V9.874A4,4,0,1,1,51,6H49a2,2,0,1,0-2,2,1,1,0,0,1,1,1Z"></path><rect x="46" y="32" width="2" height="4"></rect><path d="M48,24.127V16H46v8.127a4,4,0,0,1,2,0Z"></path><path d="M47,30a2,2,0,0,0,2-2,1.949,1.949,0,0,0-.657-1.476,1.852,1.852,0,0,0-.153-.115,2.033,2.033,0,0,0-2.519.1A1.962,1.962,0,0,0,45,28,2,2,0,0,0,47,30Z"></path><path d="M47,38A11,11,0,1,0,58,49,11.013,11.013,0,0,0,47,38Zm0,3a8.009,8.009,0,0,0-8,8H37A10.011,10.011,0,0,1,47,39Z"></path></g></svg>