<svg xmlns="http://www.w3.org/2000/svg" viewBox="0 0 64 64" x="0px" y="0px"><g><path d="M27.293,21.293a1,1,0,0,1,1.414,0L31,23.586V13H25V23.586Z"></path><rect x="33" y="13" width="17" height="6"></rect><polygon points="11.535 4 6.868 11 49.132 11 44.465 4 11.535 4"></polygon><path d="M44.071,31.929a10,10,0,1,0,0,14.142A9.965,9.965,0,0,0,44.071,31.929ZM37,47a8,8,0,1,1,5.657-2.339A7.976,7.976,0,0,1,37,47Z"></path><path d="M43.757,50l-.672-.673A11.809,11.809,0,0,1,41.77,50Z"></path><path d="M41.243,34.757a6,6,0,1,0,0,8.486A5.984,5.984,0,0,0,41.243,34.757Z"></path><polygon points="58.213 57.385 58.214 57.384 52.556 51.728 49.728 54.556 55.385 60.213 58.213 57.385"></polygon><rect x="47.021" y="50.021" width="4" height="2" transform="translate(-21.719 49.613) rotate(-45.005)"></rect><rect x="6" y="13" width="17" height="6"></rect><path d="M6,49a1,1,0,0,0,1,1H32.23a12,12,0,1,1,15.1-4.915l1.694,1.693A1.015,1.015,0,0,1,50,46.547V21H33v5a1,1,0,0,1-1.707.707L28,23.414l-3.293,3.293A1,1,0,0,1,23,26V21H6Z"></path><path d="M47.607,48.192l-1.45-1.45c-.215.254-.433.505-.672.743s-.49.457-.743.672l1.45,1.45Z"></path></g></svg>