<svg xmlns="http://www.w3.org/2000/svg" viewBox="0 0 512 512" x="0px" y="0px"><g data-name="Ring"><path d="M390.777,252.3,414.4,220.8a8,8,0,0,0,0-9.6l-24-32A8,8,0,0,0,384,176H288a8,8,0,0,0-6.4,3.2l-24,32a8,8,0,0,0,0,9.6l23.622,31.5q-2.991,1.419-5.907,2.991A127.6,127.6,0,0,0,230.776,220.3L254.4,188.8a8,8,0,0,0,0-9.6l-24-32A8,8,0,0,0,224,144H128a8,8,0,0,0-6.4,3.2l-24,32a8,8,0,0,0,0,9.6l23.623,31.5A128.008,128.008,0,1,0,236.669,448.71,128,128,0,1,0,390.777,252.3ZM298.108,297.53A79.351,79.351,0,0,1,311,292l18.6,24.8c.011.015.025.028.036.043a8,8,0,0,0,.538.636c.039.042.081.08.121.12q.237.242.493.462c.057.049.113.1.171.144a7.842,7.842,0,0,0,.659.488l.042.025c.218.141.444.268.675.387.065.034.129.065.195.1.21.1.425.194.644.277.042.016.083.034.125.049a8.06,8.06,0,0,0,.8.24c.058.014.116.024.174.037.218.048.438.087.662.117.075.01.149.021.224.029a7.276,7.276,0,0,0,1.686,0c.075-.008.149-.019.224-.029.224-.03.444-.069.662-.117.058-.013.116-.023.174-.037a8.06,8.06,0,0,0,.8-.24c.042-.015.083-.033.125-.049.219-.083.434-.176.644-.277.066-.032.13-.063.195-.1.231-.119.457-.246.675-.387l.042-.025a7.842,7.842,0,0,0,.659-.488c.058-.046.114-.095.171-.144q.256-.22.493-.462c.04-.04.082-.078.121-.12a8,8,0,0,0,.538-.636c.011-.015.025-.028.036-.043L361,292a80,80,0,1,1-87.088,126.42,128.111,128.111,0,0,0,24.2-120.892ZM322.246,224h27.508L336,279.015ZM328,208l8-10.667L344,208Zm24-16h16l-8,10.666Zm-40,10.666L304,192h16ZM296,208H280l8-10.667Zm9.754,16,12.877,51.508L280,224Zm47.615,51.508L366.246,224H392ZM392,208H376l8-10.667Zm-91.048,70.6a95.437,95.437,0,0,0-16.849,8.627,96.738,96.738,0,0,0-28.3,28.01A95.44,95.44,0,0,0,240,368a96.73,96.73,0,0,0,1.1,14.454,80.716,80.716,0,0,1-13.316,14.477A112.094,112.094,0,0,1,291.046,265.4Zm-107.583-35.1L206.246,192H232ZM189.754,192,176,247.015,162.246,192ZM168,176l8-10.667L184,176Zm24-16h16l-8,10.666Zm-40,10.666L144,160h16ZM136,176H120l8-10.667Zm9.754,16,12.877,51.508L120,192ZM169.6,284.8c.011.015.025.028.036.043a8,8,0,0,0,.538.636c.039.042.081.08.121.12q.237.242.493.462c.057.049.113.1.171.144a7.842,7.842,0,0,0,.659.488l.042.025c.218.141.444.268.675.387.065.034.129.065.195.1.21.1.425.194.644.277.042.016.083.034.125.049a8.06,8.06,0,0,0,.8.24c.058.014.116.024.174.037.218.048.438.087.662.117.075.01.149.021.224.029a7.276,7.276,0,0,0,1.686,0c.075-.008.149-.019.224-.029.224-.03.444-.069.662-.117.058-.013.116-.023.174-.037a8.06,8.06,0,0,0,.8-.24c.042-.015.083-.033.125-.049.219-.083.434-.176.644-.277.066-.032.13-.063.195-.1.231-.119.457-.246.675-.387l.042-.025a7.842,7.842,0,0,0,.659-.488c.058-.046.114-.095.171-.144q.257-.22.493-.462c.04-.04.082-.078.121-.12a8,8,0,0,0,.538-.636c.011-.015.025-.028.036-.043L201,260.006a79.932,79.932,0,0,1,37.089,25.568,128.126,128.126,0,0,0-24.194,120.892A80.005,80.005,0,1,1,151,260Zm92.033-20.983a127.829,127.829,0,0,0-12.417,10.113,96,96,0,0,0-38.181-27.31l9.911-13.214A111.618,111.618,0,0,1,261.633,263.817ZM232,176H216l8-10.667ZM64,336a111.984,111.984,0,0,1,67.054-102.594l9.9,13.2A96.053,96.053,0,1,0,270.9,321.555a80.736,80.736,0,0,1,13.316-14.484A112.007,112.007,0,1,1,64,336ZM336,480a112.382,112.382,0,0,1-85.622-39.831,128.171,128.171,0,0,0,12.4-10.1A96,96,0,1,0,371.047,278.605l9.9-13.2A112,112,0,0,1,336,480Z"></path><path d="M87.992,128a8,8,0,0,0,6.936-4l24-41.57a24,24,0,0,0-41.57-24l-4,6.928-6.928-4a24,24,0,1,0-24,41.569l41.569,24A7.956,7.956,0,0,0,87.992,128ZM47.5,78.144a8.008,8.008,0,0,1,10.929-2.929l13.856,8a8,8,0,0,0,10.928-2.928l8-13.857a8,8,0,1,1,13.856,8l-20,34.641-34.64-20A8.009,8.009,0,0,1,47.5,78.144Z"></path><path d="M478.354,86.143a24.03,24.03,0,0,0-32.785-8.784l-6.928,4-4-6.928a24,24,0,1,0-41.57,24l24,41.569A8,8,0,0,0,428,142.928l41.569-24A24.029,24.029,0,0,0,478.354,86.143Zm-16.785,18.929-34.64,20-20-34.641a8,8,0,1,1,13.856-8l8,13.856a8,8,0,0,0,10.928,2.928l13.856-8a8,8,0,0,1,8,13.857Z"></path><path d="M250.343,93.657a8,8,0,0,0,11.314,0L295.6,59.716a24,24,0,1,0-33.943-33.941L256,31.432l-5.657-5.658a24.03,24.03,0,0,0-33.941,0h0a24.027,24.027,0,0,0,0,33.94ZM227.715,37.089a8.01,8.01,0,0,1,11.314,0L250.343,48.4a8,8,0,0,0,11.314,0L272.97,37.089A8,8,0,0,1,284.285,48.4L256,76.686,227.716,48.4a8.01,8.01,0,0,1,0-11.314Z"></path></g></svg>