<svg xmlns="http://www.w3.org/2000/svg" viewBox="0 0 64 64" x="0px" y="0px"><path d="M45.256,34.592q.459-.447.887-.923l-1.487-1.338c-.256.284-.52.561-.8.827A12.947,12.947,0,0,0,40,42.4V44H24V42.4a12.651,12.651,0,0,0-3.759-9.143q-.465-.446-.9-.927l-1.487,1.338q.483.536,1,1.034A10.645,10.645,0,0,1,22,42.4V44a3.99,3.99,0,0,0-1.313,7.761A4,4,0,0,0,24,58h1.1A5.009,5.009,0,0,0,30,62h4a5.009,5.009,0,0,0,4.9-4H40a4,4,0,0,0,3.313-6.239A3.99,3.99,0,0,0,42,44V42.4A10.932,10.932,0,0,1,45.256,34.592ZM34,60H30a3,3,0,0,1-2.816-2h9.632A3,3,0,0,1,34,60Zm6-4H24a2,2,0,0,1,0-4H40a2,2,0,0,1,0,4Zm4-8a2,2,0,0,1-2,2H22a2,2,0,0,1,0-4H42A2,2,0,0,1,44,48Z"></path><path d="M12,28H29v1a3,3,0,0,0,6,0V28H52a1,1,0,0,0,1-1V3a1,1,0,0,0-1-1H34a1,1,0,0,0-1,1V4H31V3a1,1,0,0,0-1-1H12a1,1,0,0,0-1,1V27A1,1,0,0,0,12,28ZM35,4H51V26H35ZM33,6V29a1,1,0,0,1-2,0V6ZM13,4H29V26H13Z"></path><path d="M9,31H28V29H10V5.028H8V30A1,1,0,0,0,9,31Z"></path><rect x="15" y="8" width="2" height="2"></rect><rect x="19" y="8" width="8" height="2"></rect><rect x="15" y="12" width="12" height="2"></rect><rect x="15" y="16" width="12" height="2"></rect><rect x="15" y="20" width="12" height="2"></rect><path d="M54,29H36v2H55a1,1,0,0,0,1-1V5.028H54Z"></path><rect x="47" y="8" width="2" height="2"></rect><rect x="37" y="8" width="8" height="2"></rect><rect x="37" y="12" width="12" height="2"></rect><rect x="37" y="16" width="12" height="2"></rect><rect x="37" y="20" width="12" height="2"></rect><path d="M61,15H58v2h2V47H57v2h4a1,1,0,0,0,1-1V16A1,1,0,0,0,61,15Z"></path><rect x="53" y="47" width="2" height="2"></rect><rect x="49" y="47" width="2" height="2"></rect><path d="M13.112,47.7l.412-1.957A12.016,12.016,0,0,1,4.258,31.524L2.3,31.112A14.017,14.017,0,0,0,13.112,47.7Z"></path><path d="M7,51H5v4a1,1,0,0,0,1,1H18V54H7Z"></path><rect x="5" y="47" width="2" height="2"></rect><path d="M32,33.929a3,3,0,1,0-4.242,4.243l3.535,3.535a1,1,0,0,0,1.414,0l3.535-3.535A3,3,0,1,0,32,33.928Zm1.414,1.415a1,1,0,1,1,1.414,1.414L32,39.586l-2.828-2.828a1,1,0,0,1,1.414-1.415l.707.707a1,1,0,0,0,1.414,0Z"></path></svg>