<svg xmlns="http://www.w3.org/2000/svg" viewBox="0 0 64 64" x="0px" y="0px"><g><path d="M59.141,27.69c-.975-.818-1.984-1.664-2.175-2.381-.207-.773.255-2.049.7-3.284.645-1.784,1.312-3.629.455-5.109-.869-1.5-2.819-1.848-4.706-2.181-1.276-.226-2.6-.46-3.145-1.006s-.78-1.868-1.005-3.145c-.333-1.886-.678-3.836-2.181-4.706-1.481-.855-3.326-.189-5.111.455-1.234.447-2.516.907-3.283.7-.716-.192-1.563-1.2-2.381-2.176C35.063,3.375,33.775,1.84,32,1.84s-3.063,1.535-4.31,3.019c-.818.975-1.665,1.984-2.38,2.175-.773.206-2.049-.255-3.284-.7-1.785-.644-3.63-1.31-5.111-.455-1.5.87-1.847,2.819-2.18,4.705-.225,1.277-.459,2.6-1.006,3.145s-1.869.781-3.145,1.006c-1.887.334-3.837.679-4.7,2.181-.858,1.481-.191,3.327.455,5.111.445,1.234.906,2.51.7,3.283-.191.717-1.2,1.563-2.175,2.381C3.375,28.936,1.84,30.224,1.84,32s1.535,3.064,3.019,4.31c.975.818,1.984,1.664,2.175,2.381.207.773-.255,2.049-.7,3.284-.645,1.784-1.312,3.629-.455,5.109.869,1.5,2.819,1.848,4.706,2.181,1.276.226,2.6.46,3.145,1.006s.78,1.868,1.005,3.145c.333,1.886.678,3.836,2.181,4.706,1.481.855,3.326.189,5.111-.455,1.234-.446,2.516-.906,3.283-.7.716.192,1.563,1.2,2.381,2.176,1.247,1.484,2.535,3.019,4.31,3.019s3.063-1.535,4.31-3.019c.818-.975,1.665-1.984,2.38-2.175.771-.208,2.048.254,3.284.7,1.785.644,3.63,1.31,5.111.455,1.5-.87,1.847-2.819,2.18-4.7.225-1.277.459-2.6,1.006-3.145s1.869-.781,3.145-1.006c1.887-.334,3.837-.679,4.705-2.181.858-1.481.191-3.327-.455-5.111-.445-1.234-.906-2.51-.7-3.283.191-.717,1.2-1.563,2.175-2.381,1.484-1.246,3.019-2.534,3.019-4.31S60.625,28.936,59.141,27.69Zm-1.286,7.088c-1.212,1.017-2.466,2.07-2.821,3.4-.369,1.379.2,2.955.751,4.479.467,1.292,1,2.755.606,3.43-.4.7-1.954.971-3.323,1.213-1.582.28-3.218.569-4.211,1.562s-1.282,2.629-1.562,4.211c-.241,1.369-.516,2.919-1.212,3.322-.671.39-2.139-.139-3.43-.606-1.524-.55-3.1-1.122-4.479-.751-1.326.354-2.379,1.608-3.4,2.821-.906,1.081-1.934,2.3-2.777,2.3s-1.871-1.224-2.777-2.3c-1.018-1.213-2.071-2.467-3.4-2.822a3.652,3.652,0,0,0-.942-.117,10.988,10.988,0,0,0-3.536.87c-1.293.466-2.759.995-3.43.6-.7-.4-.972-1.955-1.213-3.324-.28-1.581-.569-3.217-1.561-4.21s-2.629-1.282-4.211-1.561c-1.369-.242-2.92-.516-3.324-1.213-.389-.675.14-2.138.606-3.429.552-1.524,1.121-3.1.752-4.48-.355-1.326-1.609-2.379-2.821-3.4-1.081-.907-2.3-1.935-2.3-2.778s1.224-1.871,2.3-2.778c1.212-1.017,2.466-2.07,2.821-3.4.369-1.379-.2-2.955-.751-4.479-.467-1.292-1-2.755-.606-3.43.4-.7,1.954-.971,3.323-1.213,1.582-.28,3.218-.569,4.211-1.562s1.282-2.629,1.562-4.211c.241-1.369.516-2.919,1.212-3.322.671-.39,2.138.139,3.43.606,1.524.551,3.1,1.122,4.479.751,1.326-.354,2.379-1.608,3.4-2.821.906-1.081,1.934-2.3,2.777-2.3s1.871,1.224,2.777,2.3c1.018,1.213,2.071,2.467,3.4,2.822,1.376.368,2.955-.2,4.478-.753,1.293-.466,2.759-1,3.43-.605.7.4.972,1.955,1.213,3.324.28,1.581.569,3.217,1.561,4.21s2.629,1.282,4.211,1.561c1.369.242,2.92.516,3.324,1.213.389.675-.14,2.138-.606,3.429-.552,1.524-1.121,3.1-.752,4.48.355,1.326,1.609,2.379,2.821,3.4,1.081.907,2.3,1.935,2.3,2.778S58.936,33.871,57.855,34.778Z"></path><path d="M32,11A21,21,0,1,0,53,32,21.024,21.024,0,0,0,32,11Zm0,40A19,19,0,1,1,51,32,19.021,19.021,0,0,1,32,51Z"></path><path d="M35,34.071v-1.1A4.977,4.977,0,0,0,37,29V28a1,1,0,0,0,1-1V25a6,6,0,0,0-12,0v2a1,1,0,0,0,1,1v1a4.977,4.977,0,0,0,2,3.974v1.1A7.011,7.011,0,0,0,23,41v3a1,1,0,0,0,1,1H40a1,1,0,0,0,1-1V41A7.011,7.011,0,0,0,35,34.071ZM28,25a4,4,0,0,1,8,0v1h-.172a1.009,1.009,0,0,1-.707-.293l-1.414-1.414a1,1,0,0,0-1.414,0l-.828.829A2.983,2.983,0,0,1,29.343,26H28Zm1.343,3a4.968,4.968,0,0,0,3.536-1.464L33,26.415l.707.706A2.96,2.96,0,0,0,35,27.87V29a3,3,0,0,1-6,0V28ZM32,34a5,5,0,0,0,1-.1v.687l-1,1-1-1V33.9A5,5,0,0,0,32,34Zm7,9H25V41a4.991,4.991,0,0,1,4.624-4.962l1.669,1.669a1,1,0,0,0,1.414,0l1.669-1.669A4.991,4.991,0,0,1,39,41Z"></path></g></svg>