<svg xmlns="http://www.w3.org/2000/svg" viewBox="0 0 64 64" x="0px" y="0px"><g><path d="M46,2H18a6.006,6.006,0,0,0-6,6V56a6.006,6.006,0,0,0,6,6H46a6.006,6.006,0,0,0,6-6V8A6.006,6.006,0,0,0,46,2Zm4,54a4,4,0,0,1-4,4H18a4,4,0,0,1-4-4V8a4,4,0,0,1,4-4H46a4,4,0,0,1,4,4Z"></path><path d="M34,52H30a3,3,0,0,0,0,6h4a3,3,0,0,0,0-6Zm0,4H30a1,1,0,0,1,0-2h4a1,1,0,0,1,0,2Z"></path><rect x="25" y="6" width="2" height="2"></rect><rect x="29" y="6" width="6" height="2"></rect><path d="M42.447,22.105l-10-5a1,1,0,0,0-.894,0l-10,5A1,1,0,0,0,21,23v6.206a13.066,13.066,0,0,0,6.312,11.147l4.173,2.5a1,1,0,0,0,1.03,0l4.173-2.5A13.066,13.066,0,0,0,43,29.206V23A1,1,0,0,0,42.447,22.105ZM41,29.206a11.056,11.056,0,0,1-5.341,9.432L32,40.834l-3.659-2.2A11.056,11.056,0,0,1,23,29.206V23.618l9-4.5,9,4.5Z"></path><path d="M31.553,21.577l-6,3a1,1,0,0,0-.553.895v3.734a9.046,9.046,0,0,0,4.369,7.718h0l2.116,1.269a1,1,0,0,0,1.029,0l2.115-1.268A9.046,9.046,0,0,0,39,29.206V25.472a1,1,0,0,0-.553-.895l-6-3A1,1,0,0,0,31.553,21.577ZM37,26.09v3.116a7.037,7.037,0,0,1-3.4,6l-1.6.96-1.6-.96a7.036,7.036,0,0,1-3.4-6V26.09l5-2.5Z"></path></g></svg>