<svg xmlns="http://www.w3.org/2000/svg" viewBox="0 0 64 64" x="0px" y="0px"><g data-name="Book Bank-Money-Report-Cash-Business"><path d="M48,37H45.14A4.017,4.017,0,0,0,48,39.86Z"></path><circle cx="32" cy="44" r="3"></circle><rect x="16" y="56" width="12" height="1"></rect><rect x="30" y="10" width="4" height="25"></rect><path d="M48,46.09V41.91A5.992,5.992,0,0,1,43.09,37H20.91A5.992,5.992,0,0,1,16,41.91v4.18A5.992,5.992,0,0,1,20.91,51H43.09A5.992,5.992,0,0,1,48,46.09ZM32,49a5,5,0,1,1,5-5A5.006,5.006,0,0,1,32,49Z"></path><path d="M16,48.13V51h2.86A4,4,0,0,0,16,48.13Z"></path><path d="M4,10V45H14V43H7a1,1,0,0,1-1-1V10Z"></path><path d="M14,37a2.006,2.006,0,0,1,2-2H28V7H8V41h6ZM24,20h2v2H24Zm-5,2H17a3,3,0,0,1,0-6V15h2v1a3,3,0,0,1,3,3H20a1,1,0,0,0-1-1H17a1,1,0,0,0,0,2h2a3,3,0,0,1,0,6v1H17V26a3,3,0,0,1-3-3h2a1,1,0,0,0,1,1h2a1,1,0,0,0,0-2Zm-7,0H10V20h2Z"></path><path d="M48,48.14A4.017,4.017,0,0,0,45.14,51H48Z"></path><rect x="16" y="53" width="12" height="1"></rect><path d="M16,39.86A4.017,4.017,0,0,0,18.86,37H16Z"></path><rect x="30" y="53" width="4" height="4"></rect><rect x="36" y="53" width="12" height="1"></rect><path d="M51.29,9.29a1.014,1.014,0,0,1,1.42,0l.29.3V7H51V9.59Z"></path><path d="M60,10H58V42a1,1,0,0,1-1,1H50v2H60Z"></path><path d="M50,37v4h6V7H55v5a.987.987,0,0,1-.62.92A.838.838,0,0,1,54,13a1.007,1.007,0,0,1-.71-.29L52,11.41l-1.29,1.3a1,1,0,0,1-1.09.21A.987.987,0,0,1,49,12V7H36V35H48A2.006,2.006,0,0,1,50,37ZM39,11h6v2H39Zm0,4H53v2H39Zm0,4H53v2H39Zm0,4H53v2H39Zm0,4H53v2H39Zm0,6V31H53v2Z"></path><rect x="36" y="56" width="12" height="1"></rect></g></svg>