<svg xmlns="http://www.w3.org/2000/svg" viewBox="0 0 64 64" x="0px" y="0px"><g><path d="M42,35a4,4,0,0,0-4-4h-.1a4.85,4.85,0,0,0,.1-1,5,5,0,0,0-9.587-1.971A3,3,0,0,0,25,31q0,.063,0,.126A4,4,0,0,0,26,39H38A4,4,0,0,0,42,35Zm-4,2H26a2,2,0,0,1,0-4h.277a1,1,0,0,0,.865-1.5A.984.984,0,0,1,27,31a1.018,1.018,0,0,1,1.533-.841,1,1,0,0,0,1.522-.673A2.994,2.994,0,0,1,36,30a2.946,2.946,0,0,1-.419,1.5,1,1,0,0,0,.864,1.5H38a2,2,0,0,1,0,4Z"></path><path d="M31,13.91V23h2V13.91a6,6,0,1,0-2,0ZM32,4a4,4,0,1,1-4,4A4,4,0,0,1,32,4Z"></path><path d="M56,26a6.006,6.006,0,0,0-5.91,5H44v2h6.09A6,6,0,1,0,56,26Zm0,10a4,4,0,1,1,4-4A4,4,0,0,1,56,36Z"></path><path d="M48.971,42.971A5.954,5.954,0,0,0,45.5,44.083l-3.791-3.79-1.414,1.414,3.8,3.8a5.979,5.979,0,1,0,4.879-2.535ZM51.8,51.8a4,4,0,0,1-5.657-5.657,4.1,4.1,0,0,1,5.657,0,4,4,0,0,1,0,5.657Z"></path><path d="M33,50.09V41H31v9.09a6,6,0,1,0,2,0ZM32,60a4,4,0,1,1,4-4A4,4,0,0,1,32,60Z"></path><path d="M13.91,33H20V31H13.91a6,6,0,1,0,0,2ZM8,36a4,4,0,1,1,4-4A4,4,0,0,1,8,36Z"></path><path d="M15.029,21.029A5.954,5.954,0,0,0,18.5,19.917l6.791,6.79,1.414-1.414-6.8-6.8a5.979,5.979,0,1,0-4.879,2.535ZM12.2,12.2a4,4,0,0,1,5.657,5.657,4.1,4.1,0,0,1-5.657,0,4,4,0,0,1,0-5.657Z"></path><path d="M39.707,25.707l5.791-5.79a6.036,6.036,0,1,0-1.406-1.423l-5.8,5.8ZM46.142,12.2A4,4,0,1,1,51.8,17.858a4.1,4.1,0,0,1-5.657,0A4,4,0,0,1,46.142,12.2Z"></path><path d="M22.293,40.293,18.5,44.083a6.036,6.036,0,1,0,1.406,1.423l3.8-3.8ZM17.858,51.8a4.1,4.1,0,0,1-5.657,0,4,4,0,1,1,5.657,0Z"></path></g></svg>