<svg xmlns="http://www.w3.org/2000/svg" viewBox="0 0 64 64" x="0px" y="0px"><g><path d="M24,4C14.843,4,9,6.369,9,8s5.843,4,15,4S39,9.631,39,8,33.157,4,24,4Zm6,5H18V7H30Z"></path><path d="M23.1,43.986a12.046,12.046,0,0,1-1.044-6.029C16.931,37.766,11.746,36.8,9,34.985V40C9,41.576,14.468,43.835,23.1,43.986ZM19,40h2v2H19Zm-4-1h2v2H15Zm-4-1h2v2H11Z"></path><path d="M39,28.106V26.991a9.93,9.93,0,0,1-1.171.651A11.822,11.822,0,0,1,39,28.106Z"></path><path d="M26.137,29.953c-.7.028-1.413.047-2.137.047-5.973,0-11.982-1.035-15-3.031V32c0,1.08,3.884,3.682,13.406,3.965a11.9,11.9,0,0,1,3.109-5.45C25.714,30.315,25.927,30.135,26.137,29.953ZM13,32H11V30h2Zm4,1H15V31h2Zm4,1H19V32h2Z"></path><path d="M39,10.969C35.982,12.965,29.973,14,24,14S12.018,12.965,9,10.969V16c0,1.631,5.843,4,15,4s15-2.369,15-4ZM13,16H11V14h2Zm4,1H15V15h2Zm4,1H19V16h2Z"></path><path d="M39,18.969C35.982,20.965,29.973,22,24,22S12.018,20.965,9,18.969V24c0,1.631,5.843,4,15,4a46.2,46.2,0,0,0,6.336-.416,12.062,12.062,0,0,1,3.027-.549C37.236,26.119,39,24.82,39,24ZM13,24H11V22h2Zm4,1H15V23h2Zm4,1H19V24h2Z"></path><path d="M38.243,43.243a6,6,0,1,0-8.486,0A6.008,6.008,0,0,0,38.243,43.243Z"></path><path d="M44.607,48.192l-1.45-1.45c-.215.253-.433.505-.672.743s-.489.457-.743.672l1.45,1.45Z"></path><rect x="44.021" y="50.021" width="4" height="2" transform="translate(-22.597 47.479) rotate(-44.995)"></rect><rect x="48.97" y="51.97" width="4.001" height="8" transform="translate(-24.648 52.444) rotate(-45.006)"></rect><path d="M41.071,46.071a10,10,0,1,0-14.142,0A10.011,10.011,0,0,0,41.071,46.071ZM28.343,33.343a8,8,0,1,1,0,11.314A8.01,8.01,0,0,1,28.343,33.343Z"></path></g></svg>