<svg xmlns="http://www.w3.org/2000/svg" viewBox="0 0 64 64" x="0px" y="0px"><g><path d="M32,2A30,30,0,1,0,62,32,30.034,30.034,0,0,0,32,2ZM59.544,37H36.889c.02-.019.041-.036.06-.055L56.113,17.791A27.846,27.846,0,0,1,59.544,37ZM28.467,35.533h0a4.991,4.991,0,0,1-.006-7.061l.007-.006h0a4.991,4.991,0,0,1,7.061-.006l.006.007h0a4.991,4.991,0,0,1,.006,7.061l-.007.006h0a4.991,4.991,0,0,1-7.061.006Zm26.54-19.465L39,32.072c0-.024,0-.048,0-.072V4.886A28.09,28.09,0,0,1,55.007,16.068ZM37,4.456V27.111c-.019-.02-.036-.041-.055-.06L17.791,7.887A27.846,27.846,0,0,1,37,4.456ZM16.068,8.993,32.072,25c-.024,0-.048,0-.072,0H4.886A28.09,28.09,0,0,1,16.068,8.993ZM4.456,27H27.111c-.02.019-.041.036-.06.055L7.887,46.209A27.846,27.846,0,0,1,4.456,27ZM8.993,47.932,25,31.928c0,.024,0,.048,0,.072V59.114A28.09,28.09,0,0,1,8.993,47.932ZM27,59.544V36.889c.019.02.036.041.055.06L46.209,56.113A27.846,27.846,0,0,1,27,59.544Zm20.932-4.537L31.928,39c.024,0,.048,0,.072,0H59.114A28.09,28.09,0,0,1,47.932,55.007Z"></path></g></svg>