<svg xmlns="http://www.w3.org/2000/svg" viewBox="0 0 64 64" x="0px" y="0px"><g><path d="M39.007,30.85a2,2,0,0,0,.733-2.732h0a1.984,1.984,0,0,0-1.214-.932A2.016,2.016,0,0,0,38,27.117a2,2,0,1,0,1,3.733Z"></path><path d="M14.15,35.47A5,5,0,0,0,18.5,38h7.41A14.3,14.3,0,0,1,25,36.62a15.008,15.008,0,0,1,.49-15.78A.975.975,0,0,1,25,20V6a2.015,2.015,0,0,0-2-2,2.006,2.006,0,0,0-2,2V20a1,1,0,0,1-2,0V9a2.015,2.015,0,0,0-2-2,2.006,2.006,0,0,0-2,2V25a1,1,0,0,1-.74.97,1.022,1.022,0,0,1-1.13-.47l-2-3.46a2.033,2.033,0,0,0-2.73-.73,2.006,2.006,0,0,0-.73,2.73Z"></path><path d="M34.63,41.68a13.008,13.008,0,1,0-7.9-6.06A12.91,12.91,0,0,0,34.63,41.68ZM32.507,19.591a11,11,0,1,1-4.026,15.027A11.015,11.015,0,0,1,32.507,19.591Z"></path><path d="M55.51,59.42a2.99,2.99,0,0,0,1.1-4.09L52.1,47.54l-5.19,3,4.5,7.79A3,3,0,0,0,55.51,59.42Z"></path><path d="M42.507,36.912a9,9,0,1,0-12.294-3.294A8.939,8.939,0,0,0,42.507,36.912ZM32.471,26.6l2.071.555a3.956,3.956,0,0,1,.67-.877l-1.071-1.855,1.733-1,1.071,1.855a3.931,3.931,0,0,1,1.095-.144l.555-2.07,1.931.518-.554,2.068a3.933,3.933,0,0,1,.877.674L42.7,25.252l1,1.732-1.855,1.071a3.906,3.906,0,0,1,.144,1.1l2.069.554-.518,1.932-2.068-.554a3.953,3.953,0,0,1-.673.876l1.071,1.854-1.733,1L39.076,32.97a3.977,3.977,0,0,1-1.062.147l-.042,0-.552,2.058-1.931-.518.55-2.055a4,4,0,0,1-.882-.68l-1.845,1.065-1-1.732,1.855-1.071a3.942,3.942,0,0,1-.142-1.1l-2.072-.555Z"></path><path d="M49.1,42.34l-1.14-2a14.5,14.5,0,0,1-2.46,1.77,15.277,15.277,0,0,1-2.74,1.24l1.15,1.99Z"></path><path d="M36.41,11.59A1.983,1.983,0,0,0,35,11a2.006,2.006,0,0,0-2,2v1.97a14.909,14.909,0,0,1,4-.82V13A1.983,1.983,0,0,0,36.41,11.59Z"></path><path d="M44.28,49.4a.963.963,0,0,0,.76-.1l6.93-4a.978.978,0,0,0,.47-.6,1.007,1.007,0,0,0-1.47-1.13l-6.93,4a1.007,1.007,0,0,0-.36,1.37A.99.99,0,0,0,44.28,49.4Z"></path><path d="M27,18.9a14.69,14.69,0,0,1,3.49-2.78c.17-.1.34-.18.51-.27V10a2.015,2.015,0,0,0-2-2,2.006,2.006,0,0,0-2,2Z"></path></g></svg>