<svg xmlns="http://www.w3.org/2000/svg" viewBox="0 0 64 64" x="0px" y="0px"><g data-name="Vacuum Cleaner"><path d="M61,9H39a1,1,0,0,0-1,1v3a2,2,0,0,0,2,2h6v3a1,1,0,0,0,1,1V40a1,1,0,0,1-1,1H34.722A1.993,1.993,0,0,0,33,40H31V30h2a1,1,0,0,0,1-1V25a1,1,0,0,0-1-1H23V21a1,1,0,0,0-1-1H14a1,1,0,0,0-1,1v3H3a1,1,0,0,0-1,1v4a1,1,0,0,0,1,1H5V50H3a1,1,0,0,0-1,1v4a1,1,0,0,0,1,1H5.556A3.959,3.959,0,0,0,5,58a4,4,0,0,0,8,0,3.959,3.959,0,0,0-.556-2H23.556A3.959,3.959,0,0,0,23,58a4,4,0,0,0,8,0,3.959,3.959,0,0,0-.556-2H33a1,1,0,0,0,1-1V51a1,1,0,0,0-1-1H31V48h2a1.993,1.993,0,0,0,1.722-1H47a6.006,6.006,0,0,0,6-6V19a1,1,0,0,0,1-1V15h6a2,2,0,0,0,2-2V10A1,1,0,0,0,61,9ZM15,22h6v2H15ZM4,26H32v2H4Zm7,32a2,2,0,1,1-2-2A2,2,0,0,1,11,58Zm18,0a2,2,0,1,1-2-2A2,2,0,0,1,29,58Zm3-4H4V52H32ZM7,50V30H29V50Zm24-4V42h2v4Zm20-5a4,4,0,0,1-4,4H35V43H46a3,3,0,0,0,3-3V19h2Zm1-24H48V15h4ZM40,13V11H60v2Z"></path><path d="M52.62,3.92a.99.99,0,0,0,1.3-1.3,1.032,1.032,0,0,0-.21-.33,1.155,1.155,0,0,0-.33-.21.949.949,0,0,0-.58-.06.636.636,0,0,0-.18.06.556.556,0,0,0-.17.09.955.955,0,0,0-.16.12,1.032,1.032,0,0,0-.21.33.99.99,0,0,0,.21,1.09A1.155,1.155,0,0,0,52.62,3.92Z"></path><path d="M56.29,6.71a1.014,1.014,0,0,0,1.42,0,1.169,1.169,0,0,0,.21-.33.942.942,0,0,0,0-.76,1.032,1.032,0,0,0-.21-.33,1,1,0,0,0-1.09-.21.9.9,0,0,0-.54.54.943.943,0,0,0,0,.76A1.169,1.169,0,0,0,56.29,6.71Z"></path><path d="M58.62,3.92A.99.99,0,0,0,60,3a.838.838,0,0,0-.08-.38,1.155,1.155,0,0,0-.21-.33,1.576,1.576,0,0,0-.15-.12.757.757,0,0,0-.18-.09.636.636,0,0,0-.18-.06.856.856,0,0,0-.39,0,.6.6,0,0,0-.19.06.757.757,0,0,0-.18.09,1.576,1.576,0,0,0-.15.12,1.155,1.155,0,0,0-.21.33.99.99,0,0,0,.21,1.09A1.155,1.155,0,0,0,58.62,3.92Z"></path><path d="M51.29,6.71a1.014,1.014,0,0,0,1.42,0,1.169,1.169,0,0,0,.21-.33A.838.838,0,0,0,53,6a1,1,0,0,0-.08-.38,1.032,1.032,0,0,0-.21-.33,1,1,0,0,0-1.09-.21.9.9,0,0,0-.54.54.943.943,0,0,0,0,.76A1.169,1.169,0,0,0,51.29,6.71Z"></path><path d="M48.29,5.71a1.155,1.155,0,0,0,.33.21.942.942,0,0,0,.76,0,1.155,1.155,0,0,0,.33-.21A1.024,1.024,0,0,0,50,5a.838.838,0,0,0-.08-.38,1.155,1.155,0,0,0-.21-.33,1.576,1.576,0,0,0-.15-.12.757.757,0,0,0-.18-.09.636.636,0,0,0-.18-.06,1.009,1.009,0,0,0-.91.27,1.155,1.155,0,0,0-.21.33.943.943,0,0,0,0,.76A1.169,1.169,0,0,0,48.29,5.71Z"></path><path d="M46,4a1,1,0,0,0,.38-.08,1.155,1.155,0,0,0,.33-.21.99.99,0,0,0,.21-1.09,1.032,1.032,0,0,0-.21-.33,1.576,1.576,0,0,0-.15-.12.757.757,0,0,0-.18-.09.636.636,0,0,0-.18-.06.949.949,0,0,0-.58.06,1.155,1.155,0,0,0-.33.21,1.032,1.032,0,0,0-.21.33A.99.99,0,0,0,46,4Z"></path><path d="M39.29,6.71a1.155,1.155,0,0,0,.33.21.99.99,0,0,0,1.09-.21,1.169,1.169,0,0,0,.21-.33.943.943,0,0,0,0-.76,1.032,1.032,0,0,0-.21-.33,1.047,1.047,0,0,0-1.42,0,1.032,1.032,0,0,0-.21.33.943.943,0,0,0,0,.76A1.169,1.169,0,0,0,39.29,6.71Z"></path><path d="M41,4a1,1,0,0,0,.38-.08,1.155,1.155,0,0,0,.33-.21.99.99,0,0,0,.21-1.09,1.032,1.032,0,0,0-.21-.33.955.955,0,0,0-.16-.12.556.556,0,0,0-.17-.09.636.636,0,0,0-.18-.06.949.949,0,0,0-.58.06,1.155,1.155,0,0,0-.33.21,1.032,1.032,0,0,0-.21.33A.99.99,0,0,0,41,4Z"></path><path d="M43.29,6.71a1.014,1.014,0,0,0,1.42,0,1.169,1.169,0,0,0,.21-.33.943.943,0,0,0,0-.76.9.9,0,0,0-.54-.54,1,1,0,0,0-1.09.21,1.032,1.032,0,0,0-.21.33A1,1,0,0,0,43,6a.838.838,0,0,0,.08.38A1.169,1.169,0,0,0,43.29,6.71Z"></path></g></svg>