<svg xmlns="http://www.w3.org/2000/svg" viewBox="0 0 64 64" x="0px" y="0px"><g><rect x="10.101" y="42.444" width="2" height="2" transform="translate(-27.468 20.574) rotate(-45)"></rect><rect x="23.243" y="28.302" width="4" height="2" transform="translate(-13.326 26.435) rotate(-45.005)"></rect><rect x="18.057" y="24.766" width="4.472" height="2" transform="translate(-10.57 36.865) rotate(-71.556)"></rect><rect x="26.542" y="33.251" width="4.472" height="2" transform="translate(-9.356 10.861) rotate(-18.439)"></rect><path d="M57,2H11A5.006,5.006,0,0,0,6,7V40.379L3.708,43.587a1.989,1.989,0,0,0-.248,1.84l-.845.845a3.005,3.005,0,0,0,0,4.243l1.414,1.414a2.983,2.983,0,0,0,2.052.87A5,5,0,0,0,11,57h3.759l2.7,2.707A3,3,0,0,0,22.526,57H57a5.006,5.006,0,0,0,5-5V7A5.006,5.006,0,0,0,57,2ZM11,4H57a3,3,0,0,1,3,3v3H8V7A3,3,0,0,1,11,4Zm.228,32.5,6.816,6.816-8.25,5.892L8.272,47.686l1.414-1.414L8.272,44.858,6.858,46.272,5.336,44.75Zm9.575-.324-2.434-2.435A1.981,1.981,0,0,1,20.8,36.176Zm1.258,4.086a1.5,1.5,0,1,1-2.122,2.121L12.161,34.6a1.5,1.5,0,0,1,2.122-2.122ZM4.03,49.1a1,1,0,0,1,0-1.415l.707-.707,2.829,2.828-.707.708a1,1,0,0,1-1.415,0ZM11,55a3,3,0,0,1-2.986-2.861,2.851,2.851,0,0,0,.258-.21l.707-.708h0c.007.007.017.009.024.015L12.761,55Zm9.293,3.293a1.017,1.017,0,0,1-1.416,0l-7.644-7.654,1.646-1.176,7.413,7.414A1,1,0,0,1,20.293,58.293ZM57,55H21.244l-6.715-6.715,5.192-3.709a3.5,3.5,0,0,0,3.754-5.728l-1.161-1.162a3.981,3.981,0,0,0-5.456-5.456L15.7,31.069a3.5,3.5,0,0,0-5.729,3.754L8,37.579V12H60V52A3,3,0,0,1,57,55Z"></path><rect x="12" y="6" width="2" height="2"></rect><rect x="16" y="6" width="2" height="2"></rect><rect x="20" y="6" width="2" height="2"></rect><path d="M55,15H31a2,2,0,0,0-2,2V31h2V17H55V41H31V37H29v4a2,2,0,0,0,2,2H55a2,2,0,0,0,2-2V17A2,2,0,0,0,55,15Z"></path><path d="M40,33a1,1,0,0,0,.447-.1l6-3a1,1,0,0,0,0-1.79l-6-3A1,1,0,0,0,39,26v6a1,1,0,0,0,1,1Zm1-5.382L43.764,29,41,30.382Z"></path><rect x="29" y="46" width="4" height="2"></rect><rect x="35" y="46" width="8" height="2"></rect><rect x="45" y="46" width="12" height="2"></rect><rect x="29" y="50" width="12" height="2"></rect><rect x="43" y="50" width="14" height="2"></rect></g></svg>