<svg xmlns="http://www.w3.org/2000/svg" viewBox="0 0 64 64" x="0px" y="0px"><g><path d="M25,23.693v10.6a4.972,4.972,0,0,0,2.764,4.472L32,40.882l4.236-2.118A4.972,4.972,0,0,0,39,34.292v-10.6l-7-2.625Zm12.778,3.943-7.071,7.071a1,1,0,0,1-1.414,0l-2.828-2.829,1.414-1.414L30,32.586l6.364-6.364Z"></path><path d="M12,60H52a1,1,0,0,0,1-1V12.846a1,1,0,0,0-.292-.707L46,5.418V11a1,1,0,0,0,1,1h4v2H47a3,3,0,0,1-3-3V4H12a1,1,0,0,0-1,1V59A1,1,0,0,0,12,60ZM41,23V34.292a6.962,6.962,0,0,1-3.869,6.261L32.447,42.9a1,1,0,0,1-.894,0l-4.684-2.342A6.962,6.962,0,0,1,23,34.292V23a1,1,0,0,1,.648-.937l8-3a1.015,1.015,0,0,1,.7,0l8,3A1,1,0,0,1,41,23ZM19,8H39v2H19ZM15,8h2v2H15Zm0,4H39v2H15Z"></path></g></svg>