<svg xmlns="http://www.w3.org/2000/svg" viewBox="0 0 64 64" x="0px" y="0px"><title>Cactus_25</title><g data-name="Cactus"><path d="M50,30H37.414l9.022-9.022c.15-.15.289-.3.428-.45l.012-.012A11,11,0,0,0,32,4.451,11,11,0,0,0,17.136,20.528c.139.151.278.3.427.449L26.586,30H14a1,1,0,0,0-1,1v6a1,1,0,0,0,1,1h2V61a1,1,0,0,0,1,1H47a1,1,0,0,0,1-1V38h2a1,1,0,0,0,1-1V31A1,1,0,0,0,50,30ZM18.976,19.562c-.13-.13-.251-.26-.36-.378A9,9,0,0,1,31.331,6.493a1,1,0,0,0,1.338,0A9,9,0,0,1,45.39,19.178c-.119.128-.238.256-.367.384L34.586,30H29.414ZM46,60H18V38H46Zm3-24H15V32H49Z"></path><rect x="42" y="56" width="2" height="2"></rect><rect x="42" y="53" width="2" height="2"></rect><rect x="39" y="56" width="2" height="2"></rect></g></svg>