<svg xmlns="http://www.w3.org/2000/svg" viewBox="0 0 64 64" x="0px" y="0px"><g data-name="avatar-man-young-account-profile"><path d="M46.92,37.32l-5.58-.75A4.974,4.974,0,0,0,38,34.1V32.21A11.029,11.029,0,0,0,42.95,24H43a3.985,3.985,0,0,0,2-7.44V9a7.008,7.008,0,0,0-7-7,6.912,6.912,0,0,0-4.2,1.4L32,4.75c-.41-.32-.99-.75-1.8-1.35A7.006,7.006,0,0,0,19,9v7.56A3.986,3.986,0,0,0,21,24h.05A11.029,11.029,0,0,0,26,32.21V34.1a4.974,4.974,0,0,0-3.34,2.47l-5.58.75A7,7,0,0,0,11,44.25V61a1,1,0,0,0,1,1H52a1,1,0,0,0,1-1V44.25A7,7,0,0,0,46.92,37.32ZM26,60H21V48H19V60H13V44.25a5,5,0,0,1,4.34-4.95l4.69-.63c0,.11-.03.22-.03.33v5a1,1,0,0,0,2,0,1,1,0,0,1,2,0Zm0-18.83a3.026,3.026,0,0,0-2,0V39a3.014,3.014,0,0,1,2-2.83ZM40,39v2.17a3.026,3.026,0,0,0-2,0v-5A3.014,3.014,0,0,1,40,39Zm5-19a2.015,2.015,0,0,1-2,2V18A2.006,2.006,0,0,1,45,20ZM21,22a2.015,2.015,0,0,1-2-2,2.006,2.006,0,0,1,2-2Zm0-6V9a5,5,0,0,1,8-4c1.01.75,2.16,1.61,2.35,1.76a.858.858,0,0,0,.2.13A1,1,0,0,0,32.6,6.8L35,5a5,5,0,0,1,8,4v7H42a3.009,3.009,0,0,1-3-3v-.76a1.98,1.98,0,0,0-.81-1.6,2.014,2.014,0,0,0-1.81-.29,15.365,15.365,0,0,1-8.76,0,2.014,2.014,0,0,0-1.81.29,1.98,1.98,0,0,0-.81,1.6V13a3.009,3.009,0,0,1-3,3Zm2,7V17.9A5.009,5.009,0,0,0,27,13l.01-.75A17.173,17.173,0,0,0,37,12.24V13a5.009,5.009,0,0,0,4,4.9V23a9,9,0,0,1-18,0ZM36,60H28V40.73a10.775,10.775,0,0,0,8,0Zm0-21.47a8.938,8.938,0,0,1-8,0V33.24a10.906,10.906,0,0,0,8,0ZM51,60H45V48H43V60H38V44a1,1,0,0,1,2,0,1,1,0,0,0,2,0V39c0-.11-.03-.22-.03-.33l4.69.63A5,5,0,0,1,51,44.25Z"></path><path d="M29,21h2a3,3,0,0,0-6,0h2a1,1,0,0,1,2,0Z"></path><path d="M36,20a1,1,0,0,1,1,1h2a3,3,0,0,0-6,0h2A1,1,0,0,1,36,20Z"></path><path d="M36.331,26.5l-1.732-1a3,3,0,0,1-5.2,0l-1.732,1a5,5,0,0,0,8.662,0Z"></path></g></svg>