<svg xmlns="http://www.w3.org/2000/svg" viewBox="0 0 64 64" x="0px" y="0px"><g><rect x="11" y="16" width="14" height="2"></rect><rect x="11" y="20" width="14" height="2"></rect><rect x="11" y="24" width="14" height="2"></rect><rect x="17" y="28" width="8" height="2"></rect><rect x="17" y="32" width="8" height="2"></rect><rect x="39" y="12" width="14" height="2"></rect><rect x="39" y="16" width="14" height="2"></rect><rect x="39" y="20" width="14" height="2"></rect><rect x="39" y="24" width="14" height="2"></rect><rect x="39" y="28" width="8" height="2"></rect><rect x="39" y="32" width="8" height="2"></rect><path d="M62,45V11a1,1,0,0,0-1-1H59V7a1,1,0,0,0-1-1H36a3,3,0,0,0-3,3H31a3,3,0,0,0-3-3H6A1,1,0,0,0,5,7v3H3a1,1,0,0,0-1,1V45a1,1,0,0,0,1,1H4.87l-2.6,4.5a1,1,0,0,0,.366,1.366l13.86,8a1,1,0,0,0,.759.1,1,1,0,0,0,.607-.466L25.658,46H38.342l7.792,13.5a1,1,0,0,0,.607.466,1,1,0,0,0,.759-.1l13.86-8a1,1,0,0,0,.366-1.366L59.13,46H61A1,1,0,0,0,62,45ZM35,9a1,1,0,0,1,1-1H57V38.319l-3.042-5.266a3,3,0,0,0-5.2,3l1.537,2.655A6.715,6.715,0,0,0,49.062,40H36a2.966,2.966,0,0,0-1,.184ZM47.632,44H34.816A2.966,2.966,0,0,0,35,43a1,1,0,0,1,1-1H47.988A7.066,7.066,0,0,0,47.632,44ZM16.369,44a7.046,7.046,0,0,0-.358-2H28a1,1,0,0,1,1,1,2.966,2.966,0,0,0,.184,1ZM11,8h2v2.586l-.293-.293a1,1,0,0,0-1.414,0L11,10.586ZM9,8v5a1,1,0,0,0,1.707.707L12,12.414l1.293,1.293A1,1,0,0,0,15,13V8H28a1,1,0,0,1,1,1V40.184A2.966,2.966,0,0,0,28,40H14.937a6.81,6.81,0,0,0-1.229-1.294l1.543-2.666a3,3,0,0,0-5.207-2.99L7,38.323V8ZM4,12H5V41a.984.984,0,0,0,.383.768L5.248,44H4ZM16.634,57.634l-12.128-7,2.5-4.335a1,1,0,0,0,.132-.437l.256-4.222,4.384-7.593a.99.99,0,0,1,.609-.468.97.97,0,0,1,.75.095.986.986,0,0,1,.47.626.971.971,0,0,1-.092.749l-2,3.462a1,1,0,0,0,.364,1.364,5.105,5.105,0,0,1,1.969,2.1,5.058,5.058,0,0,1,.493,2.892,4.885,4.885,0,0,1-.632,1.836l1.726,1.01A6.858,6.858,0,0,0,16.142,46h7.206ZM31,43V11h2V43a1,1,0,0,1-2,0ZM47.366,57.634,40.652,46h7.206a6.9,6.9,0,0,0,.709,1.715l1.726-1.01a4.875,4.875,0,0,1-.631-1.829,5.061,5.061,0,0,1,.491-2.9,5.142,5.142,0,0,1,.26-.457,4.861,4.861,0,0,1,1.71-1.647,1,1,0,0,0,.364-1.364l-2-3.451a.989.989,0,0,1-.094-.779.973.973,0,0,1,.463-.606,1,1,0,0,1,1.363.375l4.3,7.457.078.133.256,4.222a1,1,0,0,0,.132.437l2.5,4.335ZM60,44H58.752l-.135-2.232A.984.984,0,0,0,59,41V12h1Z"></path></g></svg>