<svg xmlns="http://www.w3.org/2000/svg" data-name="Gaming Gear-Smartphone" viewBox="0 0 64 64" x="0px" y="0px"><path d="M57,7a3,3,0,0,0-3-3H10A3,3,0,0,0,7,7V27a3,3,0,0,0,3,3H31V21H26a3,3,0,0,1-3-3V14a1,1,0,0,1,1-1H40a1,1,0,0,1,1,1v4a3,3,0,0,1-3,3H33v9H54a3,3,0,0,0,3-3V26H55a3,3,0,0,1-3-3V11a3,3,0,0,1,3-3h2ZM25,11H23V9h2Zm4,0H27V9h2Zm4,0H31V9h2Zm4,0H35V9h2Zm4,0H39V9h2Z"></path><path d="M54,11V23a1,1,0,0,0,1,1h2V10H55A1,1,0,0,0,54,11Z"></path><path d="M39,18V15H25v3a1,1,0,0,0,1,1H38A1,1,0,0,0,39,18Zm-4,0H29V16h6Z"></path><path d="M14,60h7V38H14a3,3,0,0,0-3,3V57A3,3,0,0,0,14,60ZM13,50h2V48h2v2h2v2H17v2H15V52H13Zm0,6h6v2H13Z"></path><rect x="28" y="38" width="8" height="2"></rect><rect x="47" y="50" width="2" height="2"></rect><path d="M53,41a3,3,0,0,0-3-3H43V60h7a3,3,0,0,0,3-3ZM51,58H45V56h6Zm0-6H49v2H47V52H45V50h2V48h2v2h2Z"></path><path d="M38,40a2,2,0,0,1-2,2H28a2,2,0,0,1-2-2V38H23V60H41V38H38ZM29,52H27V50h2Zm4,0H31V50h2Zm4,0H35V50h2Z"></path><rect x="31" y="32" width="2" height="4"></rect></svg>