<svg xmlns="http://www.w3.org/2000/svg" viewBox="0 0 64 64" x="0px" y="0px"><g data-name="Browser-Online Learning"><path d="M50,60V56a1.012,1.012,0,0,1,.071-.372L52,50.808V40a1,1,0,0,0-2,0v2H48V39a1,1,0,0,0-2,0v3H44V38a1,1,0,0,0-2,0v4H40V28a1,1,0,0,0-2,0V46H36V40a1,1,0,0,0-2,0V50.649l3.781,4.726A1,1,0,0,1,38,56v4Z"></path><path d="M55,50a1,1,0,0,0,1-1V12H4V49a1,1,0,0,0,1,1H32V40a3,3,0,0,1,3-3,2.966,2.966,0,0,1,1,.184V28a3,3,0,0,1,6,0v7.184A2.94,2.94,0,0,1,45.529,36.4a2.955,2.955,0,0,1,4,1A2.967,2.967,0,0,1,51,37a3,3,0,0,1,3,3V50ZM26,40H22.816a2.982,2.982,0,0,1-5.632,0H8V38h9.184a2.982,2.982,0,0,1,5.632,0H26Zm0-7a1,1,0,0,1-1,1H9a1,1,0,0,1-1-1V17a1,1,0,0,1,1-1H25a1,1,0,0,1,1,1Zm8-7H32V24h2Zm4-4H32V20h6Zm14,4H44V24h8Zm0-4H40V20H52Zm0-4H32V16H52Z"></path><polygon points="15 23.618 15 26.382 17.764 25 15 23.618"></polygon><circle cx="20" cy="39" r="1"></circle><path d="M4,10H56V5a1,1,0,0,0-1-1H5A1,1,0,0,0,4,5ZM14,6h2V8H14ZM10,6h2V8H10ZM6,6H8V8H6Z"></path><path d="M10,32H24V18H10Zm3-10a1,1,0,0,1,1.447-.895l6,3a1,1,0,0,1,0,1.79l-6,3A1,1,0,0,1,13,28Z"></path></g></svg>