<svg xmlns="http://www.w3.org/2000/svg" viewBox="0 0 32 32" x="0px" y="0px"><g data-name="Tablet-Charge Battery"><path d="M25,3a1,1,0,0,0-1-1H6A1,1,0,0,0,5,3V4H25Z"></path><path d="M5,6V24H19V19a1,1,0,0,1,1-1h1V17a1,1,0,0,1,1-1h3V6Zm6,10H9V14h2Zm5,0H14V14h2Zm5,0H19V14h2Z"></path><path d="M5,26v3a1,1,0,0,0,1,1H19V26Zm11,3H14V27h2Z"></path><polygon points="21 24.586 25.293 20.293 26.707 21.707 25.414 23 27 23 27 20 21 20 21 24.586"></polygon><polygon points="21 30 27 30 27 24.414 22.707 28.707 21.293 27.293 23.586 25 21 25 21 30"></polygon><rect x="23" y="18" width="2" height="1"></rect></g></svg>