<svg xmlns="http://www.w3.org/2000/svg" viewBox="0 0 64 64" x="0px" y="0px"><g><path d="M17,34A13,13,0,1,0,30,47,13.012,13.012,0,0,0,17,34Zm0,24A11,11,0,1,1,28,47,11.013,11.013,0,0,1,17,58Z"></path><path d="M59,49a1,1,0,0,0,1-1V29H48a1,1,0,0,1-.81-.42L42.49,22H20V32.3A15.034,15.034,0,0,1,32,47a14.712,14.712,0,0,1-.15,2Z"></path><path d="M20,20h4V14H21a1,1,0,0,0-1,1Z"></path><path d="M24,46h1.941a8.956,8.956,0,0,0-1.916-4.611l-1.368,1.368-1.414-1.414,1.368-1.368A8.956,8.956,0,0,0,18,38.059V40H16V38.059a8.956,8.956,0,0,0-4.611,1.916l1.368,1.368-1.414,1.414L9.975,41.389A8.956,8.956,0,0,0,8.059,46H10v2H8.059a8.956,8.956,0,0,0,1.916,4.611l1.368-1.368,1.414,1.414-1.368,1.368A8.956,8.956,0,0,0,16,55.941V54h2v1.941a8.956,8.956,0,0,0,4.611-1.916l-1.368-1.368,1.414-1.414,1.368,1.368A8.956,8.956,0,0,0,25.941,48H24Zm-6,1a1,1,0,0,1-.293.707l-2,2-1.414-1.414L16,46.586V42h2Z"></path><path d="M43.81,20.42,48.51,27H54V4H26V20H43A1,1,0,0,1,43.81,20.42ZM30,8H50v2H30Zm0,4H50v2H30Zm0,4H50v2H30Z"></path><path d="M60,22a1,1,0,0,0-1-1H56v6h4Z"></path></g></svg>