<svg xmlns="http://www.w3.org/2000/svg" viewBox="0 0 64 64" x="0px" y="0px"><g data-name="Bath mat"><rect x="9" y="15" width="4" height="34"></rect><rect x="51" y="15" width="4" height="34"></rect><rect x="45" y="15" width="4" height="34"></rect><rect x="15" y="15" width="4" height="34"></rect><rect x="21" y="15" width="22" height="34"></rect><rect x="57" y="15" width="4" height="2"></rect><rect x="57" y="19" width="4" height="2"></rect><rect x="57" y="23" width="4" height="2"></rect><rect x="57" y="27" width="4" height="2"></rect><rect x="57" y="31" width="4" height="2"></rect><rect x="57" y="35" width="4" height="2"></rect><rect x="57" y="39" width="4" height="2"></rect><rect x="57" y="43" width="4" height="2"></rect><rect x="57" y="47" width="4" height="2"></rect><rect x="3" y="15" width="4" height="2"></rect><rect x="3" y="19" width="4" height="2"></rect><rect x="3" y="23" width="4" height="2"></rect><rect x="3" y="27" width="4" height="2"></rect><rect x="3" y="31" width="4" height="2"></rect><rect x="3" y="35" width="4" height="2"></rect><rect x="3" y="39" width="4" height="2"></rect><rect x="3" y="43" width="4" height="2"></rect><rect x="3" y="47" width="4" height="2"></rect></g></svg>