<svg xmlns="http://www.w3.org/2000/svg" viewBox="0 0 64 64" x="0px" y="0px"><g><path d="M14,42a9.993,9.993,0,0,0,16,7.993V34.007A9.993,9.993,0,0,0,14,42Zm4,1H16V41h2Zm10-3H26a1,1,0,0,0-1-1H23a1,1,0,0,0,0,2h2a3,3,0,0,1,0,6v1H23V47a3,3,0,0,1-3-3h2a1,1,0,0,0,1,1h2a1,1,0,0,0,0-2H23a3,3,0,0,1,0-6V36h2v1A3,3,0,0,1,28,40Z"></path><rect x="17" y="20" width="13" height="2"></rect><path d="M4,49A11.013,11.013,0,0,0,15,60H31a4.982,4.982,0,0,1-1-3V52.393a12,12,0,1,1,0-20.786V24H17A13.015,13.015,0,0,0,4,37Z"></path><path d="M35,12h1V4.052a4.759,4.759,0,0,0-1.711.79A6.213,6.213,0,0,1,30.5,6.04a6.236,6.236,0,0,1-3.8-1.2,4.61,4.61,0,0,0-5.422,0,6.213,6.213,0,0,1-3.789,1.2,6.2,6.2,0,0,1-3.779-1.2A4.736,4.736,0,0,0,12,4.052V15a3,3,0,0,0,3,3h1.867l-.859-6.876,1.984-.248L18.883,18H23V11h2v7h4.117l.891-7.124,1.984.248-.266,2.128A4.955,4.955,0,0,1,35,12Z"></path><path d="M60,54H32v3a2.993,2.993,0,0,0,2.459,2.946c.012,0,.021.01.032.012v0A2.454,2.454,0,0,0,35,60H57a3,3,0,0,0,3-3ZM50,58H42V56h8Z"></path><rect x="32" y="22" width="28" height="30"></rect><path d="M60,17a3,3,0,0,0-3-3H35a3,3,0,0,0-3,3v3H60ZM40,18H36V16h4Zm10,0H42V16h8Z"></path></g></svg>