<svg xmlns="http://www.w3.org/2000/svg" data-name="Money Bag" viewBox="0 0 64 64" x="0px" y="0px"><path d="M39.435,18.739a2.985,2.985,0,0,0,.385-.752,2.9,2.9,0,0,1,1.15.458,4.4,4.4,0,0,0,2.35.751,4.46,4.46,0,0,0,.791-.072,4.2,4.2,0,0,0,2.721-1.712,2.289,2.289,0,0,1,3.33-.587,4.183,4.183,0,0,0,3.143.678l-.348-1.969a2.306,2.306,0,0,1-1.794-.441A4.258,4.258,0,0,0,45.3,16.127a2.289,2.289,0,0,1-1.536,1.028,2.016,2.016,0,0,1-.85-.018,4.055,4.055,0,0,0,1.574-.852,4.2,4.2,0,0,0,1.5-2.845,2.285,2.285,0,0,1,.816-1.658,2.247,2.247,0,0,1,1.731-.515h.085a4.17,4.17,0,0,0,3.019-.985L50.354,8.752a2.246,2.246,0,0,1-1.731.516c-.028,0-.059,0-.085,0A4.252,4.252,0,0,0,44.019,13.1a2.292,2.292,0,0,1-.816,1.658,2.23,2.23,0,0,1-1.712.515h-.06a4.7,4.7,0,0,0-1.838.252,2.994,2.994,0,0,0-1.164-1.14L42.9,5.447A1,1,0,0,0,42,4a2.583,2.583,0,0,1-1.872-.78,4.61,4.61,0,0,0-6.248,0A2.586,2.586,0,0,1,32.006,4a2.62,2.62,0,0,1-1.878-.781,4.618,4.618,0,0,0-6.252,0A2.587,2.587,0,0,1,22,4a1,1,0,0,0-.895,1.447l4.466,8.932a2.967,2.967,0,0,0-1.006,4.36A21.018,21.018,0,0,0,9,39V57a5.006,5.006,0,0,0,5,5H50a5.006,5.006,0,0,0,5-5V39A21.018,21.018,0,0,0,39.435,18.739ZM25.125,4.781A2.622,2.622,0,0,1,27,4a2.587,2.587,0,0,1,1.876.781,4.616,4.616,0,0,0,6.251,0,2.64,2.64,0,0,1,3.748,0,5.312,5.312,0,0,0,1.623.982L36.382,14H27.618L23.5,5.763A5.325,5.325,0,0,0,25.125,4.781ZM27,18a1,1,0,0,1,0-2H37a1,1,0,0,1,0,2H27ZM21,52V50h2v2h2V50h2v2h2V50h2v4H17V50h2v2Zm5-7a8,8,0,1,1,8-8A8.009,8.009,0,0,1,26,45Zm7.129-1H35v2h2V44h2v2h2V44h2v2h2V44h2v4H33l-.021-3.852C33.029,44.1,33.08,44.05,33.129,44ZM33,54V50h2v2h2V50h2v2h2V50h2v2h2V50h2v4ZM17,60V56h2v2h2V56h2v2h2V56h2v2h2V56h2v4Zm16,0V56h2v2h2V56h2v2h2V56h2v2h2V56h2v4Zm20-3a3,3,0,0,1-3,3H49V56a1.978,1.978,0,0,0-.278-1A1.978,1.978,0,0,0,49,54V50a1.978,1.978,0,0,0-.278-1A1.978,1.978,0,0,0,49,48V44a2,2,0,0,0-2-2H34.647A10.031,10.031,0,1,0,31,45.647V48H17a2,2,0,0,0-2,2v4a1.978,1.978,0,0,0,.278,1A1.978,1.978,0,0,0,15,56v4H14a3,3,0,0,1-3-3V39A19.021,19.021,0,0,1,30,20h4A19.021,19.021,0,0,1,53,39Z"></path><path d="M26,34a1,1,0,0,1,1,1h2a3,3,0,0,0-2-2.816V31H25v1.184A2.993,2.993,0,0,0,26,38a1,1,0,1,1-1,1H23a3,3,0,0,0,2,2.816V43h2V41.816A2.993,2.993,0,0,0,26,36a1,1,0,0,1,0-2Z"></path></svg>