<svg xmlns="http://www.w3.org/2000/svg" viewBox="0 0 64 64" x="0px" y="0px"><g><path d="M58.78,41.22a10.928,10.928,0,0,0-6.9-3.18L50.14,25H52a2,2,0,0,0,1.95-1.58A3.979,3.979,0,0,0,56,24h1a1,1,0,0,0,1-1V17a1,1,0,0,0-1-1H56a3.979,3.979,0,0,0-2.05.58A2,2,0,0,0,52,15H44a4,4,0,0,0-3.86,3H36.5a2.5,2.5,0,0,0,0,5h4.05A3.959,3.959,0,0,0,44,25V44a3.009,3.009,0,0,1-3,3H34V35a1,1,0,0,0,1-1V32a3.009,3.009,0,0,0-3-3H26V13a2.006,2.006,0,0,0-2-2H18V10a3,3,0,0,0-6,0v1H6a2.006,2.006,0,0,0-2,2V29a2.006,2.006,0,0,0,2,2H7.18A2.98,2.98,0,0,0,10,35h.1a13.3,13.3,0,0,0-3.14,2.75A2.952,2.952,0,0,0,5,37a3,3,0,0,0-.62,5.93A12.971,12.971,0,0,0,4,46v6a1,1,0,0,0,1,1h5.07A8.258,8.258,0,0,0,10,54a8,8,0,0,0,16,0,8.258,8.258,0,0,0-.07-1h17.3a6.894,6.894,0,0,0,1.88-.28A8.958,8.958,0,0,0,45,54a8,8,0,0,0,16,0,8.1,8.1,0,0,0-1.08-4H61a1,1,0,0,0,1-1A10.922,10.922,0,0,0,58.78,41.22ZM56,18v4a2,2,0,0,1,0-4ZM44,17h8v6H45.5a2.5,2.5,0,0,0,0-5H42.28A1.988,1.988,0,0,1,44,17Zm-7.5,4a.5.5,0,0,1,0-1h9a.5.5,0,0,1,0,1ZM25,31h7a1,1,0,0,1,1,1v1H25ZM14,10a1,1,0,0,1,2,0v1H14ZM6,29V13H24V29Zm4,4a1,1,0,0,1,0-2H23v2ZM5.01,40.99A1.023,1.023,0,0,1,4,40a1,1,0,0,1,1.81-.58A12.182,12.182,0,0,0,5.01,40.99ZM18,60a6,6,0,0,1-6-6,6.638,6.638,0,0,1,.09-1h3.09a3,3,0,1,0,5.64,0h3.09A6.638,6.638,0,0,1,24,54,6,6,0,0,1,18,60Zm-1-6a1,1,0,1,1,1,1A1,1,0,0,1,17,54Zm11-3H10V49H28Zm0-4H10.1A5.017,5.017,0,0,1,15,43H27a1,1,0,0,1,1,1Zm15.23,4H30V44a3.009,3.009,0,0,0-3-3H15a7.008,7.008,0,0,0-7,7v3H6V46A11.007,11.007,0,0,1,17,35H32V48a1,1,0,0,0,1,1h8a5,5,0,0,0,5-5V25h2.12l1.86,13.95L48.1,47.12A4.975,4.975,0,0,1,43.23,51ZM53,60a6,6,0,0,1-6-6,5.879,5.879,0,0,1,.55-2.49A6.989,6.989,0,0,0,48.96,50h8.5A5.99,5.99,0,0,1,53,60ZM49.91,48c.04-.14.1-.28.14-.43l1.74-7.53A9.021,9.021,0,0,1,59.95,48Z"></path><path d="M12,24v2a1,1,0,0,0,1,1h4a1,1,0,0,0,1-1V24h2a1,1,0,0,0,1-1V19a1,1,0,0,0-1-1H18V16a1,1,0,0,0-1-1H13a1,1,0,0,0-1,1v2H10a1,1,0,0,0-1,1v4a1,1,0,0,0,1,1Zm-1-4h2a1,1,0,0,0,1-1V17h2v2a1,1,0,0,0,1,1h2v2H17a1,1,0,0,0-1,1v2H14V23a1,1,0,0,0-1-1H11Z"></path><path d="M53,57a3,3,0,1,0-3-3A3,3,0,0,0,53,57Zm0-4a1,1,0,1,1-1,1A1,1,0,0,1,53,53Z"></path><rect x="14" y="2" width="2" height="3"></rect><rect x="17.586" y="4" width="2.828" height="2" transform="translate(2.029 14.899) rotate(-45)"></rect><rect x="10" y="3.586" width="2" height="2.828" transform="translate(-0.314 9.243) rotate(-45)"></rect></g></svg>