<svg xmlns="http://www.w3.org/2000/svg" viewBox="0 0 64 64" x="0px" y="0px"><g><path d="M26.618,52.912l.944-.546-1-1.732-.941.543a6.139,6.139,0,0,0-.8-.8l.543-.941-1.732-1-.546.944A5.992,5.992,0,0,0,22,49.09V48H20v1.09a5.992,5.992,0,0,0-1.088.292l-.546-.944-1.732,1,.543.941a6.139,6.139,0,0,0-.8.8l-.942-.543-1,1.732.945.546A5.992,5.992,0,0,0,15.09,54H14v2h1.09a5.992,5.992,0,0,0,.292,1.088l-.945.546,1,1.732.942-.543a6.139,6.139,0,0,0,.8.8l-.543.941,1.732,1,.546-.944A5.992,5.992,0,0,0,20,60.91V62h2V60.91a5.992,5.992,0,0,0,1.088-.292l.546.944,1.732-1-.543-.941a6.139,6.139,0,0,0,.8-.8l.941.543,1-1.732-.944-.546A5.992,5.992,0,0,0,26.91,56H28V54H26.91A5.992,5.992,0,0,0,26.618,52.912ZM25,55a4,4,0,1,1-4-4A4,4,0,0,1,25,55Z"></path><rect x="20" y="54" width="2" height="2"></rect><path d="M54.618,52.912l.944-.546-1-1.732-.941.543a6.139,6.139,0,0,0-.8-.8l.543-.941-1.732-1-.546.944A5.992,5.992,0,0,0,50,49.09V48H48v1.09a5.992,5.992,0,0,0-1.088.292l-.546-.944-1.732,1,.543.941a6.139,6.139,0,0,0-.8.8l-.942-.543-1,1.732.945.546A5.992,5.992,0,0,0,43.09,54H42v2h1.09a5.992,5.992,0,0,0,.292,1.088l-.945.546,1,1.732.942-.543a6.139,6.139,0,0,0,.8.8l-.543.941,1.732,1,.546-.944A5.992,5.992,0,0,0,48,60.91V62h2V60.91a5.992,5.992,0,0,0,1.088-.292l.546.944,1.732-1-.543-.941a6.139,6.139,0,0,0,.8-.8l.941.543,1-1.732-.944-.546A5.992,5.992,0,0,0,54.91,56H56V54H54.91A5.992,5.992,0,0,0,54.618,52.912ZM53,55a4,4,0,1,1-4-4A4,4,0,0,1,53,55Z"></path><rect x="48" y="54" width="2" height="2"></rect><path d="M26.078,19.43a3.871,3.871,0,0,0-.715.828c-.554.758-1.246,1.7-2.363,1.7s-1.809-.944-2.363-1.7a3.871,3.871,0,0,0-.715-.828,2.757,2.757,0,0,0-.922.037v6.767l3.485-2.091a1,1,0,0,1,1.03,0L27,26.234V19.468A2.711,2.711,0,0,0,26.078,19.43Z"></path><path d="M15.035,12.035a6.775,6.775,0,0,0,.889.715,4.054,4.054,0,0,1,1.494,1.561,4.177,4.177,0,0,1,.059,2.219,4.939,4.939,0,0,0-.089,1.082,5,5,0,0,0,1.083-.089,8.227,8.227,0,0,1,1.206-.121,2.61,2.61,0,0,1,1.012.181,4.044,4.044,0,0,1,1.561,1.493,3.719,3.719,0,0,0,.785.889,6.859,6.859,0,0,0,.715-.889,4.033,4.033,0,0,1,1.562-1.493,4.162,4.162,0,0,1,2.218-.06,4.793,4.793,0,0,0,1.082.089,4.939,4.939,0,0,0-.089-1.082,4.173,4.173,0,0,1,.059-2.218,4.05,4.05,0,0,1,1.494-1.562,4.372,4.372,0,0,0,.872-.75,4.372,4.372,0,0,0-.872-.75,4.054,4.054,0,0,1-1.494-1.561,4.177,4.177,0,0,1-.059-2.219,4.939,4.939,0,0,0,.089-1.082,5.069,5.069,0,0,0-1.083.089,4.182,4.182,0,0,1-2.218-.06A4.037,4.037,0,0,1,23.75,4.924a3.719,3.719,0,0,0-.785-.889,6.859,6.859,0,0,0-.715.889,4.04,4.04,0,0,1-1.562,1.493,4.161,4.161,0,0,1-2.218.06,4.784,4.784,0,0,0-1.082-.089,4.939,4.939,0,0,0,.089,1.082,4.173,4.173,0,0,1-.059,2.218,4.05,4.05,0,0,1-1.494,1.562A3.676,3.676,0,0,0,15.035,12.035ZM23,7a5,5,0,1,1-5,5A5.006,5.006,0,0,1,23,7Z"></path><path d="M34,21H29v7a1,1,0,0,1-1.515.857L23,26.166l-4.485,2.691A1,1,0,0,1,17,28V21H13a3,3,0,0,0-3,3V34H34Z"></path><path d="M21,44a10.994,10.994,0,0,1,9.793,6H34V36H10v2h1a2,2,0,0,1,2,2v2a2,2,0,0,1-2,2H10v2h3v1.462A10.985,10.985,0,0,1,21,44Z"></path><path d="M10,49a1,1,0,0,0,1,1h.207a10.967,10.967,0,0,1,1.344-2H10Z"></path><rect x="10" y="40" width="1" height="2"></rect><circle cx="23" cy="12" r="3"></circle><path d="M56,42h4V41a4.827,4.827,0,0,0-.114-1H56Z"></path><path d="M59,50a1,1,0,0,0,1-1V48H57.449a10.967,10.967,0,0,1,1.344,2Z"></path><path d="M41.358,22.334A3,3,0,0,0,38.86,21H36V34H49.132Z"></path><polygon points="8 31 8 28 4 28 4 29 5 29 5 31 4 31 4 33 5 33 5 35 4 35 4 38 8 38 8 37 7 37 7 35 8 35 8 33 7 33 7 31 8 31"></polygon><path d="M49,44a10.985,10.985,0,0,1,8,3.462V46h3V44H56a2,2,0,0,1-2-2V40a2,2,0,0,1,2-2h3a4.99,4.99,0,0,0-4-2H36V50h3.207A10.994,10.994,0,0,1,49,44ZM38,38h4v2H38Z"></path></g></svg>