<svg xmlns="http://www.w3.org/2000/svg" viewBox="0 0 64 64" x="0px" y="0px"><g data-name="Money Bag"><path d="M32,48a1,1,0,0,1,1,1h2a3,3,0,0,0-2-2.816V45H31v1.184A2.993,2.993,0,0,0,32,52a1,1,0,1,1-1,1H29a3,3,0,0,0,2,2.816V57h2V55.816A2.993,2.993,0,0,0,32,50a1,1,0,0,1,0-2Z"></path><rect x="36" y="50" width="2" height="2"></rect><rect x="26" y="50" width="2" height="2"></rect><path d="M47,21a2,2,0,0,1,2,2,1,1,0,0,0,2,0A19.007,19.007,0,0,0,33,4.051V2H31V4.051A19.007,19.007,0,0,0,13,23a1,1,0,0,0,2,0,2,2,0,0,1,4,0,1,1,0,0,0,2,0,2,2,0,0,1,4,0,1,1,0,0,0,2,0,2,2,0,0,1,4,0v8.06A2.717,2.717,0,0,0,29,30a3.8,3.8,0,0,0-2,.632A1.924,1.924,0,0,1,26,31a1,1,0,0,0-.937,1.351L27.181,38H26v1.623A12,12,0,0,0,20,50v5a7.009,7.009,0,0,0,7,7H37a7.009,7.009,0,0,0,7-7V50a12,12,0,0,0-6-10.377V38H36.819l2.118-5.649A1,1,0,0,0,38,31a1.924,1.924,0,0,1-1-.368A3.8,3.8,0,0,0,35,30a2.717,2.717,0,0,0-2,1.06V23a2,2,0,0,1,4,0,1,1,0,0,0,2,0,2,2,0,0,1,4,0,1,1,0,0,0,2,0A2,2,0,0,1,47,21ZM42,50v5a5.006,5.006,0,0,1-5,5H27a5.006,5.006,0,0,1-5-5V50a10.013,10.013,0,0,1,6.21-9.249A4.008,4.008,0,0,0,28,42v1h2V42a2,2,0,0,1,4,0v1h2V42a4.008,4.008,0,0,0-.21-1.249A10.013,10.013,0,0,1,42,50ZM34.253,32.658C34.5,32.381,34.829,32,35,32a1.924,1.924,0,0,1,1,.368,6.715,6.715,0,0,0,.661.345L34.683,38H29.317l-1.982-5.287A6.715,6.715,0,0,0,28,32.368,1.924,1.924,0,0,1,29,32c.171,0,.5.381.747.658A4.428,4.428,0,0,0,31,33.75V34h2v-.25A4.428,4.428,0,0,0,34.253,32.658ZM23,19a3.99,3.99,0,0,0-3,1.357,4,4,0,0,0-4.6-1.022A17.036,17.036,0,0,1,29.642,6.179c-1.636,2.236-3.912,6.53-4.491,13.473A3.955,3.955,0,0,0,23,19Zm12,0a3.99,3.99,0,0,0-3,1.357,3.951,3.951,0,0,0-4.823-.9C27.891,11.978,30.715,7.92,32,6.439c1.285,1.481,4.109,5.539,4.823,13.017A3.963,3.963,0,0,0,35,19Zm9,1.357a3.946,3.946,0,0,0-5.151-.7c-.579-6.943-2.855-11.237-4.491-13.473A17.036,17.036,0,0,1,48.6,19.335,4,4,0,0,0,44,20.357Z"></path><polygon points="60 27 58 27 58 25 56 25 56 27 54 27 54 29 56 29 56 31 58 31 58 29 60 29 60 27"></polygon><polygon points="51 48 49 48 49 50 47 50 47 52 49 52 49 54 51 54 51 52 53 52 53 50 51 50 51 48"></polygon><polygon points="17 36 15 36 15 38 13 38 13 40 15 40 15 42 17 42 17 40 19 40 19 38 17 38 17 36"></polygon><path d="M51,37a3,3,0,1,0-3,3A3,3,0,0,0,51,37Zm-4,0a1,1,0,1,1,1,1A1,1,0,0,1,47,37Z"></path><path d="M10,27a3,3,0,1,0-3,3A3,3,0,0,0,10,27ZM7,28a1,1,0,1,1,1-1A1,1,0,0,1,7,28Z"></path><path d="M11,52a3,3,0,1,0,3,3A3,3,0,0,0,11,52Zm0,4a1,1,0,1,1,1-1A1,1,0,0,1,11,56Z"></path></g></svg>