<svg xmlns="http://www.w3.org/2000/svg" viewBox="0 0 64 64" x="0px" y="0px"><g data-name="Service mind"><path d="M50,20V16H46v4a1,1,0,0,1-1,1H41v4h4a1,1,0,0,1,1,1v4h4V26a1,1,0,0,1,1-1h4V21H51A1,1,0,0,1,50,20Z"></path><path d="M41.192,14.28l-8.485,8.486a1,1,0,0,1-1.414,0L22.808,14.28A11,11,0,0,0,7.251,29.837L32,54.586,56.749,29.837A11,11,0,0,0,41.192,14.28ZM10.079,17.109a7,7,0,0,0-1.558,7.525l-1.862.732a9.008,9.008,0,0,1,4.963-11.641l.756,1.851A6.974,6.974,0,0,0,10.079,17.109ZM57,26a1,1,0,0,1-1,1H52v4a1,1,0,0,1-1,1H45a1,1,0,0,1-1-1V27H40a1,1,0,0,1-1-1V20a1,1,0,0,1,1-1h4V15a1,1,0,0,1,1-1h6a1,1,0,0,1,1,1v4h4a1,1,0,0,1,1,1Z"></path></g></svg>