<svg xmlns="http://www.w3.org/2000/svg" viewBox="0 0 48 48" x="0px" y="0px"><title>Order_2</title><g><path d="M44.991,8a1,1,0,0,0-.284-.707l-6-6A.988.988,0,0,0,38,1.008V1H13a1,1,0,0,0-1,1V19.008l-1.154.01a1,1,0,0,0-.7.3L1.288,28.3A1,1,0,0,0,1,29L1,40.99a1,1,0,0,0,.3.715l3.916,3.836a1,1,0,0,0,.7.285h.01a1,1,0,0,0,.7-.3l.769-.785a4.967,4.967,0,0,0,2.714.8h.053A4.977,4.977,0,0,0,12,45.167V46a1,1,0,0,0,1,1H44a1,1,0,0,0,1-1V8ZM39,4.414,41.586,7H39ZM10.147,43.541a2.926,2.926,0,0,1-2.13-.857.909.909,0,0,0-.71-.287,1,1,0,0,0-.7.3l-.7.715L3,40.57,3,29.41l8.276-8.4L12,21.008V25a1,1,0,0,0,.238.647l2.022,2.06a1,1,0,0,0,.707.293L21,28v.986a3.064,3.064,0,0,1-1.292,2.481A3.019,3.019,0,0,1,18,32H11.062a1,1,0,0,0-.708.293L8.231,34.416a3.005,3.005,0,0,1-2.978.755l-.568,1.918A5,5,0,0,0,9.646,35.83L11.476,34H12v8.858A2.967,2.967,0,0,1,10.147,43.541ZM14,45V34h4a4.993,4.993,0,0,0,5-5V28a2.006,2.006,0,0,0-2-2H15.38L14,24.623V3H37V7a2,2,0,0,0,2,2h4V45Z"></path><rect x="16" y="7" width="2" height="2"></rect><rect x="20" y="7" width="2" height="2"></rect><rect x="16" y="13" width="23" height="2"></rect><rect x="16" y="19" width="23" height="2"></rect><rect x="24" y="7" width="10" height="2"></rect><rect x="27" y="25" width="8" height="2"></rect><rect x="37" y="25" width="2" height="2"></rect><rect x="27" y="31" width="8" height="2"></rect><rect x="37" y="31" width="2" height="2"></rect><rect x="16" y="36" width="23" height="2"></rect></g></svg>