<svg xmlns="http://www.w3.org/2000/svg" viewBox="0 0 64 64" x="0px" y="0px"><g><path d="M11.414,56H52.586l-4-4H15.414ZM46,53h2v2H46Zm-4,0h2v2H42ZM24,53H40v2H24Zm-4,0h2v2H20Zm-4,0h2v2H16Z"></path><rect x="10" y="58" width="44" height="2"></rect><path d="M19,50H17V48a1,1,0,0,0-1-1H10a3,3,0,0,1,0-6h6a1,1,0,0,0,1-1V38h2v2a3,3,0,0,1-3,3H10a1,1,0,0,0,0,2h6a3,3,0,0,1,3,3Z"></path><rect x="28" y="38" width="8" height="4"></rect><path d="M44,16a4,4,0,0,0-4-4h-.349a1,1,0,0,1-.942-1.333A4.995,4.995,0,0,0,29.478,6.88a1,1,0,0,1-1.432.425A1.967,1.967,0,0,0,27,7a2,2,0,0,0-2,2,1.979,1.979,0,0,0,.521,1.331A1,1,0,0,1,24.778,12H24a4,4,0,0,0,0,8H40A4,4,0,0,0,44,16Z"></path><path d="M11,32v3a1,1,0,0,0,1,1H52a1,1,0,0,0,1-1V32Zm36,1h2v2H47ZM52,8H40.92A6.634,6.634,0,0,1,41,9a7.706,7.706,0,0,1-.08,1.07A6,6,0,0,1,40,22H39v1.59L40.41,25h1.77a3,3,0,1,1,0,2H40a1.033,1.033,0,0,1-.71-.29l-2-2A1.033,1.033,0,0,1,37,24V22H33v3.18A2.986,2.986,0,0,1,34.23,30H53V9A1,1,0,0,0,52,8ZM29.77,30A2.986,2.986,0,0,1,31,25.18V22H27v2a1.033,1.033,0,0,1-.29.71l-2,2A1.033,1.033,0,0,1,24,27H21.82a3,3,0,1,1,0-2h1.77L25,23.59V22H24a6,6,0,0,1-.85-11.94A3.771,3.771,0,0,1,23,9a3.66,3.66,0,0,1,.14-1H12a1,1,0,0,0-1,1V30Z"></path><circle cx="32" cy="28" r="1"></circle><rect x="23" y="44" width="18" height="2"></rect><circle cx="19" cy="26" r="1"></circle><circle cx="45" cy="26" r="1"></circle></g></svg>