<svg xmlns="http://www.w3.org/2000/svg" viewBox="0 0 64 64" x="0px" y="0px"><g data-name="Tooth"><path d="M37.589,16.307l-1.178-1.616a8.088,8.088,0,0,1-8.823,0L26.41,16.307A9.527,9.527,0,0,0,32,18,9.522,9.522,0,0,0,37.589,16.307Z"></path><path d="M61,36H54.96a5,5,0,0,1-3.846-1.8l-.545-.667A6.993,6.993,0,0,0,45.18,31H45a20.573,20.573,0,0,1,2.047-3.749,10.991,10.991,0,0,0-13.66-16.23,3.223,3.223,0,0,1-2.77,0,10.991,10.991,0,0,0-13.66,16.23A20.573,20.573,0,0,1,19,31H18.82a6.994,6.994,0,0,0-5.394,2.537l-.534.653A5,5,0,0,1,9.04,36H3a1,1,0,0,0-1,1V53a1,1,0,0,0,1,1H61a1,1,0,0,0,1-1V37A1,1,0,0,0,61,36ZM17.073,19.838a8.992,8.992,0,0,1,12.7-7,5.263,5.263,0,0,0,4.458,0A8.992,8.992,0,0,1,45.4,26.111,22.894,22.894,0,0,0,41.7,35.18L40.3,43.175a1,1,0,0,1-.985.825H37.757a1,1,0,0,1-.991-.871l-1.1-8.515A3.008,3.008,0,0,0,32.687,32H31.313a3.008,3.008,0,0,0-2.975,2.614l-1.1,8.514a1,1,0,0,1-.991.872H24.682a1,1,0,0,1-.985-.825L22.3,35.18A22.894,22.894,0,0,0,18.6,26.111,9.017,9.017,0,0,1,17.073,19.838ZM60,52H4V38H9.04a7,7,0,0,0,5.394-2.537l.535-.653A5,5,0,0,1,18.82,33h.9a21.017,21.017,0,0,1,.61,2.523l1.394,8A2.992,2.992,0,0,0,24.682,46h1.561a3.009,3.009,0,0,0,2.975-2.614l1.1-8.514A1,1,0,0,1,31.313,34h1.374a1,1,0,0,1,.992.871l1.1,8.515A3.009,3.009,0,0,0,37.757,46h1.561a2.992,2.992,0,0,0,2.955-2.481l1.394-8A21.017,21.017,0,0,1,44.277,33h.9a5,5,0,0,1,3.846,1.8l.545.667A6.994,6.994,0,0,0,54.96,38H60Z"></path></g></svg>