<svg xmlns="http://www.w3.org/2000/svg" viewBox="0 0 64 64" x="0px" y="0px"><g><rect x="13" y="54" width="6" height="6"></rect><rect x="13" y="50" width="6" height="2"></rect><path d="M19,17a2,2,0,0,0,1.8,1.98A5.9,5.9,0,0,1,20,16a6.3,6.3,0,0,1,.05-.75A2,2,0,0,0,19,17Z"></path><path d="M26,22a5.947,5.947,0,0,1-2.99-.81,8.989,8.989,0,0,0,15.35,6.17,8.908,8.908,0,0,0,2.63-6.17A5.984,5.984,0,0,1,32,16,6,6,0,0,1,26,22Zm8.6,1.5,1.73,1a5,5,0,0,1-8.66,0l1.73-1a3,3,0,0,0,5.2,0Z"></path><rect x="45" y="50" width="6" height="2"></rect><path d="M51,45.88a6.964,6.964,0,0,0-4.91-6.68l-5.25-1.64c-.93,4.93-5.98,7.6-6.6,7.91l-1.79.9a1.063,1.063,0,0,1-.9,0l-1.79-.89c-.62-.32-5.67-2.99-6.6-7.92L17.91,39.2A6.964,6.964,0,0,0,13,45.88V48h6V45h2V60H43V45h2v3h6Z"></path><rect x="45" y="54" width="6" height="6"></rect><path d="M22,16a4,4,0,1,0,4-4A4,4,0,0,0,22,16Zm5-2a2,2,0,1,1-2,2A2,2,0,0,1,27,14Z"></path><path d="M30.66,43.69l1.34.66,1.34-.67c.53-.26,4.96-2.59,5.58-6.72l-1.95-.61c-.27,3.37-4.34,5.45-4.52,5.54a.975.975,0,0,1-.9,0c-.18-.09-4.25-2.17-4.52-5.54l-1.95.61C25.7,41.09,30.13,43.42,30.66,43.69Z"></path><path d="M35,36V31.58A11.09,11.09,0,0,1,32,32a10.665,10.665,0,0,1-3-.43V36c0,1.81,2.08,3.28,3.01,3.85C33.13,39.17,35,37.68,35,36Z"></path><path d="M38,12a4,4,0,1,0,4,4A4,4,0,0,0,38,12Zm-1,6a2,2,0,1,1,2-2A2,2,0,0,1,37,18Z"></path><path d="M26,10a6,6,0,0,1,6,6,6,6,0,0,1,6-6,5.844,5.844,0,0,1,2.67.64,8.98,8.98,0,0,0-17.34,0A5.844,5.844,0,0,1,26,10Z"></path><path d="M44.41,18.41a1.982,1.982,0,0,0-.46-3.16A6.3,6.3,0,0,1,44,16a5.9,5.9,0,0,1-.8,2.98A1.99,1.99,0,0,0,44.41,18.41Z"></path></g></svg>