<svg xmlns="http://www.w3.org/2000/svg" viewBox="0 0 32 32" x="0px" y="0px"><g><path d="M14,4h1V6h2V4h1a1,1,0,0,0,0-2H14a1,1,0,0,0,0,2Z"></path><path d="M25,18a1,1,0,0,1,1-1h1.949A11.955,11.955,0,0,0,24.17,9.244l1.537-1.537a1,1,0,1,0-1.414-1.414L22.589,8A11.907,11.907,0,0,0,17,6.051V8a1,1,0,0,1-2,0V6.051A12.006,12.006,0,0,0,4.051,17H6a1,1,0,0,1,0,2H4.051A12.006,12.006,0,0,0,15,29.949V28a1,1,0,0,1,2,0v1.949A12.006,12.006,0,0,0,27.949,19H26A1,1,0,0,1,25,18Zm-8,0a1,1,0,0,1-2,0V12a1,1,0,0,1,2,0Z"></path></g></svg>