<svg xmlns="http://www.w3.org/2000/svg" viewBox="0 0 64 64" x="0px" y="0px"><g><path d="M48,38a1.268,1.268,0,0,0,1.256-1.108l.614-4.91a1,1,0,0,1-.765-.535l-.379-.759-1.019,1.019A1,1,0,0,1,47,32h-.867l.611,4.892A1.268,1.268,0,0,0,48,38Z"></path><path d="M40.074,60,41,47.923A1,1,0,0,1,42,47h6a1,1,0,0,1,1,.923L49.926,60H52V36h-.617l-.143,1.14a3.265,3.265,0,0,1-6.48,0l-.154-1.23a.959.959,0,0,1-.256-.151l-6.3-5.4-1.345,1.345A1,1,0,0,1,36,32H23.1L14,33.82V60h1.105l.9-8.11A1,1,0,0,1,17,51a3,3,0,0,0,3-3V42h2v2H32a1,1,0,0,1,.515.143l5,3A1,1,0,0,1,38,48V60ZM40,40a1,1,0,0,1,.293-.707l1-1,1.414,1.414L42,40.414V43h5.586l1.707-1.707,1.414,1.414-2,2A1,1,0,0,1,48,45H41a1,1,0,0,1-1-1Z"></path><path d="M22,48V58h1.117l.891-7.124A1,1,0,0,1,25,50a2,2,0,0,0,2-2V46H22Z"></path><path d="M7,26a1,1,0,0,1-.2.6L4,30.333V34a3,3,0,0,0,3,3h5V35H8a2,2,0,0,1-2-2V30a1,1,0,0,1,.293-.707L8,27.586V23H7Z"></path><path d="M58,25.7V19a1.006,1.006,0,0,1,.168-.555l1.809-2.713L59.074,4H57.566l-5.709,9.515a1,1,0,0,1-.733.477l-8,1a1,1,0,0,1-.871-.327L34.551,6H33v5.838l.948,2.846A1,1,0,0,1,34,15v2.586l4.707,4.707A1,1,0,0,1,39,23v5.54l5.247,4.5-.2-1.573-3.757-3.757,1.414-1.414L45.414,30h1.172L48,28.586v-.77A3,3,0,0,1,46,25h2a1,1,0,0,0,2,0h2a3,3,0,0,1-2,2.816v.948L50.618,30h.816l2.709-4.515,1.714,1.03-3,5A1,1,0,0,1,52,32h-.117l-.25,2h.832Zm-19.707-5.99-2-2A1,1,0,0,1,36,17V13h2v3.586l1.707,1.707ZM44,21H42V19h2Zm10-1H52V18h2Zm1.1-3.447.9-1.789V11h2v4a1,1,0,0,1-.1.447l-1,2Z"></path></g></svg>