<svg xmlns="http://www.w3.org/2000/svg" viewBox="0 0 64 64" x="0px" y="0px"><g><path d="M18,14.09v3.116a7.036,7.036,0,0,0,3.4,6h0l1.6.96,1.6-.96a7.035,7.035,0,0,0,3.4-6V14.09l-5-2.5Z"></path><path d="M49,47a5,5,0,1,0,5,5A5,5,0,0,0,49,47Zm0,7a2,2,0,1,1,2-2A2,2,0,0,1,49,54Z"></path><path d="M21.92,51H34V37H11.95a2.964,2.964,0,0,1-2.48-1.32,3,3,0,0,1-.3-2.8l2.4-5.99A3.011,3.011,0,0,1,14.35,25h.26a13.138,13.138,0,0,1-1.21-2h-.78a3.012,3.012,0,0,0-2.75,1.8L4.76,36.48A8.9,8.9,0,0,0,4,40.09V50a1,1,0,0,0,1,1H8.08a6.991,6.991,0,0,1,13.84,0ZM16,41H12V39h4Z"></path><path d="M15,47a5,5,0,1,0,5,5A5,5,0,0,0,15,47Zm0,7a2,2,0,1,1,2-2A2,2,0,0,1,15,54Z"></path><rect x="58" y="41" width="2" height="2"></rect><path d="M55.92,51H59a1,1,0,0,0,1-1V45H58a2.006,2.006,0,0,1-2-2V41a2.006,2.006,0,0,1,2-2h2v-.19a.99.99,0,0,0-.9-.99L50.95,37H36V51h6.08a6.991,6.991,0,0,1,13.84,0ZM42,41H38V39h4Z"></path><polygon points="49.06 35 43.34 27 36 27 36 35 49.06 35"></polygon><path d="M14,11.62v5.59a11.067,11.067,0,0,0,5.34,9.43L23,28.83l3.66-2.19A11.067,11.067,0,0,0,32,17.21V11.62l-9-4.5Zm15.447.957a1,1,0,0,1,.553.895v3.734a9.045,9.045,0,0,1-4.371,7.718l-2.115,1.268a1,1,0,0,1-1.028,0L20.37,24.924h0A9.045,9.045,0,0,1,16,17.206V13.472a1,1,0,0,1,.553-.895l6-3a1,1,0,0,1,.894,0Z"></path><path d="M41.39,24.26A3.009,3.009,0,0,0,38.94,23H32.6a13.138,13.138,0,0,1-1.21,2H41.91Z"></path><path d="M34,27H29.51a13.4,13.4,0,0,1-1.82,1.35l-4.18,2.51a1,1,0,0,1-1.02,0l-4.18-2.51A13.4,13.4,0,0,1,16.49,27H14.35a1,1,0,0,0-.92.63l-2.4,6A.989.989,0,0,0,11.95,35H34Z"></path></g></svg>