<svg xmlns="http://www.w3.org/2000/svg" viewBox="0 0 64 64" x="0px" y="0px"><g><path d="M35.011,15.538a16.763,16.763,0,0,0-1.5-3.415c-.06-.009-.12-.018-.179-.025a10.311,10.311,0,0,0-1.258-.093c-.1,0-.195,0-.293.007-.2,0-.409.012-.613.028-.116.01-.233.023-.35.037s-.219.03-.329.046a16.765,16.765,0,0,0-1.5,3.416A10.217,10.217,0,0,0,35.011,15.538Z"></path><path d="M28.989,28.462a16.763,16.763,0,0,0,1.5,3.415c.107.016.213.033.32.045s.224.026.336.035l.12.007c.16.012.321.019.482.023.084,0,.169.005.254.005s.163,0,.244-.005c.161,0,.321-.011.481-.022.045,0,.09,0,.135-.009.109-.009.218-.021.327-.034s.215-.029.323-.045a16.765,16.765,0,0,0,1.5-3.416A10.217,10.217,0,0,0,28.989,28.462Z"></path><path d="M28.478,26.523a12.235,12.235,0,0,1,7.044,0A21.332,21.332,0,0,0,35.968,23H28.032A21.4,21.4,0,0,0,28.478,26.523Z"></path><path d="M37.99,14.011c-.043-.033-.082-.072-.126-.1-.1-.076-.214-.143-.321-.214-.252-.169-.51-.328-.776-.473-.131-.071-.262-.139-.4-.2-.071-.034-.145-.06-.216-.092a19.451,19.451,0,0,1,.7,1.819A10.111,10.111,0,0,0,37.99,14.011Z"></path><path d="M26.032,23H22.05a9.82,9.82,0,0,0,2.463,5.624,11.927,11.927,0,0,1,2.09-1.341A23.268,23.268,0,0,1,26.032,23Z"></path><path d="M27.23,13.222q-.393.215-.766.466c-.11.073-.222.142-.33.22-.043.032-.081.07-.124.1a9.668,9.668,0,0,0,1.135.732q.309-.939.7-1.819c-.071.033-.145.058-.215.092Q27.428,13.114,27.23,13.222Z"></path><path d="M26.01,29.989c.043.033.082.072.126.1.1.076.214.143.321.214.252.169.51.328.776.473.131.071.262.139.395.2.071.034.145.06.216.092a19.451,19.451,0,0,1-.7-1.819A10.111,10.111,0,0,0,26.01,29.989Z"></path><path d="M26.6,16.717a11.854,11.854,0,0,1-2.09-1.341A9.819,9.819,0,0,0,22.05,21h3.982A23.3,23.3,0,0,1,26.6,16.717Z"></path><path d="M32,18a12.066,12.066,0,0,1-3.522-.521A21.294,21.294,0,0,0,28.032,21h7.936a21.279,21.279,0,0,0-.446-3.522A12.01,12.01,0,0,1,32,18Z"></path><path d="M37.4,16.717A23.268,23.268,0,0,1,37.968,21H41.95a9.82,9.82,0,0,0-2.463-5.624A11.927,11.927,0,0,1,37.4,16.717Z"></path><path d="M54,36a1,1,0,0,1,1-1h4.615L53.051,15.184A17.881,17.881,0,0,0,36.609,4H27.391A17.9,17.9,0,0,0,10.924,15.252L4.385,35H9a1,1,0,0,1,1,1v8a5.006,5.006,0,0,0,5,5H29v2H24v9h7V43h2V60h7V51H35V49H49a5.006,5.006,0,0,0,5-5ZM12.464,19.879l1.414-1.414,1.288,1.287a16.993,16.993,0,0,1,33.317-1.931l-1.94.491a14.994,14.994,0,0,0-29.292,1.023l.871-.87,1.414,1.414-2.829,2.828a1,1,0,0,1-1.414,0ZM44,22a11.852,11.852,0,0,1-3.762,8.726h0l0,0a11.967,11.967,0,0,1-5.094,2.859q-.408.111-.827.193c-.387.073-.775.128-1.161.164S32.382,34,32,34a12.429,12.429,0,0,1-2.3-.218,11.986,11.986,0,0,1-5.932-3.055,12,12,0,0,1,0-17.453h0l0,0a11.954,11.954,0,0,1,4.1-2.535c.327-.121.658-.232,1-.324q.408-.111.827-.193a12.365,12.365,0,0,1,4.618,0,11.986,11.986,0,0,1,5.932,3.055A11.849,11.849,0,0,1,44,22Zm6.122,3.535-1.288-1.287a16.992,16.992,0,0,1-33.3,2l1.936-.5a15,15,0,0,0,29.277-1.086l-.871.87-1.414-1.414,2.829-2.828a1,1,0,0,1,1.414,0l2.829,2.828Z"></path><path d="M37.4,27.283a11.854,11.854,0,0,1,2.09,1.341A9.819,9.819,0,0,0,41.95,23H37.968A23.3,23.3,0,0,1,37.4,27.283Z"></path><path d="M36.156,31.077c.071-.033.145-.058.215-.092q.2-.1.4-.207.393-.214.766-.466c.11-.073.222-.142.33-.22.043-.032.081-.07.124-.1a9.668,9.668,0,0,0-1.135-.732Q36.546,30.2,36.156,31.077Z"></path></g></svg>