<svg xmlns="http://www.w3.org/2000/svg" viewBox="0 0 48 48" x="0px" y="0px"><title>Wallet-Finance</title><g data-name="Wallet-Finance"><path d="M43,24H42V17a3,3,0,0,0-3-3V5a1,1,0,0,0-1-1H5A1,1,0,0,0,4,5v9.184A3,3,0,0,0,2,17V43a3,3,0,0,0,3,3H39a3,3,0,0,0,3-3V34h1a3,3,0,0,0,3-3V27A3,3,0,0,0,43,24ZM6,6H37v8H36V11.651a1,1,0,0,0-.666-.943,4.971,4.971,0,0,1-3.042-3.042A1,1,0,0,0,31.349,7H28V9h2.681A6.957,6.957,0,0,0,34,12.319V14H29a7,7,0,0,0-14,0H9V12.319A6.957,6.957,0,0,0,12.319,9H16V7H11.651a1,1,0,0,0-.943.666,4.971,4.971,0,0,1-3.042,3.042A1,1,0,0,0,7,11.651V14H6Zm21,8H17a5,5,0,0,1,10,0ZM40,43a1,1,0,0,1-1,1H5a1,1,0,0,1-1-1V17a1,1,0,0,1,1-1H39a1,1,0,0,1,1,1v7H33a3,3,0,0,0-3,3v4a3,3,0,0,0,3,3h7Zm4-12a1,1,0,0,1-1,1H33a1,1,0,0,1-1-1V27a1,1,0,0,1,1-1H43a1,1,0,0,1,1,1Z"></path><rect x="34" y="28" width="2" height="2"></rect></g></svg>