<svg xmlns="http://www.w3.org/2000/svg" viewBox="0 0 64 64" x="0px" y="0px"><g data-name="skyscraper-building-tower-city-real estate"><path d="M54,60V41a1,1,0,0,0-.63-.93l-20-8A.937.937,0,0,0,33,32H28V9a1,1,0,0,0-1-1H25.92A6.991,6.991,0,0,0,12.08,8H11a1,1,0,0,0-1,1V60H6v2H58V60ZM19,4a5.017,5.017,0,0,1,4.9,4H14.1A5.017,5.017,0,0,1,19,4Zm3,56H16V58h6Zm4,0H24V57a1,1,0,0,0-1-1H15a1,1,0,0,0-1,1v3H12V10H26Zm26,0H28V34h4.81L52,41.68Z"></path><rect x="14" y="52" width="10" height="2"></rect><rect x="14" y="48" width="10" height="2"></rect><rect x="14" y="44" width="10" height="2"></rect><rect x="14" y="40" width="10" height="2"></rect><rect x="14" y="36" width="10" height="2"></rect><rect x="30" y="36" width="6" height="2"></rect><rect x="14" y="32" width="10" height="2"></rect><rect x="14" y="28" width="10" height="2"></rect><rect x="14" y="24" width="10" height="2"></rect><rect x="14" y="20" width="10" height="2"></rect><rect x="14" y="16" width="10" height="2"></rect><rect x="14" y="12" width="10" height="2"></rect><rect x="30" y="40" width="14" height="2"></rect><rect x="30" y="44" width="20" height="2"></rect><rect x="30" y="48" width="20" height="2"></rect><rect x="30" y="52" width="20" height="2"></rect><rect x="30" y="56" width="20" height="2"></rect></g></svg>