<svg xmlns="http://www.w3.org/2000/svg" viewBox="0 0 64 64" x="0px" y="0px"><g data-name="Bird House"><path d="M60.987,30.573,32.707,2.293a1,1,0,0,0-1.414,0L3.013,30.573a1,1,0,0,0,0,1.413l2.821,2.83a1,1,0,0,0,.707.294h0a1,1,0,0,0,.707-.293L14.168,27.9,15.921,51H8a1,1,0,0,0-1,1v4a1,1,0,0,0,1,1H26v4a1,1,0,0,0,1,1H37a1,1,0,0,0,1-1V57H56a1,1,0,0,0,1-1V52a1,1,0,0,0-1-1H48.079l1.753-23.1,6.921,6.918a1,1,0,0,0,.707.293h0a1,1,0,0,0,.707-.294l2.821-2.83A1,1,0,0,0,60.987,30.573ZM36,60H28V57h8Zm19-5H9V53H55ZM39,51H25V40a7,7,0,0,1,14,0Zm7.073,0H41V40a9,9,0,0,0-18,0V51H17.927L16.032,26.036,32,10.074,47.968,26.036ZM57.458,32.694,32.707,7.953a1,1,0,0,0-1.414,0L6.542,32.694,5.133,31.281,32,4.414,58.867,31.281Z"></path><path d="M27,22a5,5,0,1,0,5-5A5.006,5.006,0,0,0,27,22Zm8,0a3,3,0,1,1-3-3A3,3,0,0,1,35,22Z"></path></g></svg>