<svg xmlns="http://www.w3.org/2000/svg" viewBox="0 0 64 64" x="0px" y="0px"><g><polygon points="27.56 43.14 28.73 39.59 27.09 39.07 24.69 40.27 27.56 43.14"></polygon><path d="M59,44H37a.988.988,0,0,0-.84.49L48,50.86l11.84-6.37A.988.988,0,0,0,59,44Z"></path><path d="M34,20v4a2.015,2.015,0,0,0,2-2A2.006,2.006,0,0,0,34,20Z"></path><path d="M36.83,24.83A4,4,0,0,1,34,26h-.19a11.02,11.02,0,0,1-5.17,7.43A1.956,1.956,0,0,0,30,34a1.99,1.99,0,0,0,1.92-1.48,1.053,1.053,0,0,1,.53-.64,1.016,1.016,0,0,1,.82-.02A2,2,0,0,0,36,30a1.938,1.938,0,0,0-.64-1.45,1.012,1.012,0,0,1-.3-.93,1,1,0,0,1,.64-.75A1.991,1.991,0,0,0,37,25a1.861,1.861,0,0,0-.04-.34A1.092,1.092,0,0,1,36.83,24.83Z"></path><circle cx="23" cy="8" r="1"></circle><path d="M10.74,7.04,13.58,12H32.42l2.84-4.96a1.008,1.008,0,0,0-.27-1.3L34,5a5.053,5.053,0,0,0-3-1H15a5.053,5.053,0,0,0-3,1l-.99.74A1.008,1.008,0,0,0,10.74,7.04ZM23,5a3,3,0,1,1-3,3A3,3,0,0,1,23,5Z"></path><path d="M36.58,42.04l-5.94-1.85-1.69,5.12a1,1,0,0,1-.72.66A.908.908,0,0,1,28,46a1.007,1.007,0,0,1-.71-.29L24,42.41V60H34.18A3,3,0,0,1,34,59V45A3,3,0,0,1,36.58,42.04Z"></path><path d="M11.18,57.64A4.846,4.846,0,0,1,11.97,60H22V42.41l-3.29,3.3A1.007,1.007,0,0,1,18,46a.908.908,0,0,1-.23-.03,1,1,0,0,1-.72-.66l-1.69-5.12L8.91,42.2A6.964,6.964,0,0,0,4,48.88V60H9.97a2.655,2.655,0,0,0-.45-1.23A8.855,8.855,0,0,1,8,54a8.723,8.723,0,0,1,2.29-5.71l1.42,1.42A6.609,6.609,0,0,0,10,54,6.723,6.723,0,0,0,11.18,57.64ZM14,49h6v2H14Z"></path><path d="M12,14.83a.483.483,0,0,0,.38.48,22.723,22.723,0,0,0,5.57.69h10.1a22.723,22.723,0,0,0,5.57-.69.483.483,0,0,0,.38-.48V14H12Z"></path><polygon points="60 46.67 51.54 51.23 60 57.09 60 46.67"></polygon><path d="M32,24V17.67a24.966,24.966,0,0,1-3.95.33H17.95A24.966,24.966,0,0,1,14,17.67V24a9,9,0,0,0,18,0Zm-5-5a2,2,0,1,1-2,2A2,2,0,0,1,27,19ZM17,21a2,2,0,1,1,2,2A2,2,0,0,1,17,21Zm4.016,5.25a3.076,3.076,0,0,0,3.968,0l1.323,1.5a5,5,0,0,1-6.614,0Z"></path><path d="M37,60H59a.978.978,0,0,0,.88-.56L49.56,52.3l-1.09.58a.98.98,0,0,1-.94,0l-1.08-.58L36.12,59.44A.978.978,0,0,0,37,60Z"></path><polygon points="36 46.67 36 57.09 44.47 51.24 36 46.67"></polygon><path d="M26,37.38V34.57a10.8,10.8,0,0,1-6,.01v2.8l3,1.5Z"></path><path d="M9.04,24.66A1.861,1.861,0,0,0,9,25a1.991,1.991,0,0,0,1.3,1.87,1,1,0,0,1,.64.75,1.012,1.012,0,0,1-.3.93A1.938,1.938,0,0,0,10,30a2,2,0,0,0,2.73,1.86,1.016,1.016,0,0,1,.82.02,1.053,1.053,0,0,1,.53.64A1.99,1.99,0,0,0,16,34a1.956,1.956,0,0,0,1.36-.57A10.83,10.83,0,0,1,12.19,26H12a4,4,0,0,1-2.83-1.17A1.092,1.092,0,0,1,9.04,24.66Z"></path><polygon points="21.31 40.27 18.91 39.07 17.27 39.59 18.44 43.14 21.31 40.27"></polygon><path d="M12,24V20a2.006,2.006,0,0,0-2,2,2.015,2.015,0,0,0,2,2Z"></path></g></svg>