<svg xmlns="http://www.w3.org/2000/svg" viewBox="0 0 64 64" x="0px" y="0px"><g data-name="Phone-Fax-Telephone-Phone Call-Vintage"><path d="M52,22H28a2,2,0,0,0-2,2v8a2,2,0,0,0,2,2H52a2,2,0,0,0,2-2V24A2,2,0,0,0,52,22ZM28,32V24H52v8Z"></path><rect x="48" y="28" width="2" height="2"></rect><rect x="44" y="28" width="2" height="2"></rect><rect x="40" y="28" width="2" height="2"></rect><rect x="36" y="28" width="2" height="2"></rect><path d="M34,44H30a1,1,0,0,0-1,1v4a1,1,0,0,0,1,1h4a1,1,0,0,0,1-1V45A1,1,0,0,0,34,44Zm-1,4H31V46h2Z"></path><path d="M34,36H30a1,1,0,0,0-1,1v4a1,1,0,0,0,1,1h4a1,1,0,0,0,1-1V37A1,1,0,0,0,34,36Zm-1,4H31V38h2Z"></path><path d="M42,36H38a1,1,0,0,0-1,1v4a1,1,0,0,0,1,1h4a1,1,0,0,0,1-1V37A1,1,0,0,0,42,36Zm-1,4H39V38h2Z"></path><path d="M50,36H46a1,1,0,0,0-1,1v4a1,1,0,0,0,1,1h4a1,1,0,0,0,1-1V37A1,1,0,0,0,50,36Zm-1,4H47V38h2Z"></path><path d="M42,44H38a1,1,0,0,0-1,1v4a1,1,0,0,0,1,1h4a1,1,0,0,0,1-1V45A1,1,0,0,0,42,44Zm-1,4H39V46h2Z"></path><path d="M50,44H46a1,1,0,0,0-1,1v4a1,1,0,0,0,1,1h4a1,1,0,0,0,1-1V45A1,1,0,0,0,50,44Zm-1,4H47V46h2Z"></path><path d="M34,52H30a1,1,0,0,0-1,1v4a1,1,0,0,0,1,1h4a1,1,0,0,0,1-1V53A1,1,0,0,0,34,52Zm-1,4H31V54h2Z"></path><path d="M42,52H38a1,1,0,0,0-1,1v4a1,1,0,0,0,1,1h4a1,1,0,0,0,1-1V53A1,1,0,0,0,42,52Zm-1,4H39V54h2Z"></path><path d="M50,52H46a1,1,0,0,0-1,1v4a1,1,0,0,0,1,1h4a1,1,0,0,0,1-1V53A1,1,0,0,0,50,52Zm-1,4H47V54h2Z"></path><path d="M59,20H58V19a1,1,0,0,0-1-1H54V3a1,1,0,0,0-1-1H27a1,1,0,0,0-1,1V18H23a1,1,0,0,0-1,1v1H20a3.009,3.009,0,0,0-3-3H9a3.009,3.009,0,0,0-3,3H5a3.009,3.009,0,0,0-3,3V57a3.009,3.009,0,0,0,3,3H6a3.009,3.009,0,0,0,3,3h8a3.009,3.009,0,0,0,3-3h2v1a1,1,0,0,0,1,1H57a1,1,0,0,0,1-1V60h1a3.009,3.009,0,0,0,3-3V23A3.009,3.009,0,0,0,59,20ZM6,58H5a1,1,0,0,1-1-1V23a1,1,0,0,1,1-1H6Zm12,2a1,1,0,0,1-1,1H9a1,1,0,0,1-1-1V20a1,1,0,0,1,1-1h8a1,1,0,0,1,1,1Zm4-2H20V22h2ZM28,4H52V18H28ZM56,60H24V20H56Zm4-3a1,1,0,0,1-1,1H58V22h1a1,1,0,0,1,1,1Z"></path><rect x="30" y="6" width="20" height="2"></rect><rect x="30" y="10" width="20" height="2"></rect><rect x="30" y="14" width="20" height="2"></rect></g></svg>