<svg xmlns="http://www.w3.org/2000/svg" viewBox="0 0 64 64" x="0px" y="0px"><g data-name="Presentaion travel"><rect x="23" y="58" width="18" height="2"></rect><polygon points="37.414 38 44.586 38 41 34.414 37.414 38"></polygon><polygon points="44.459 35.045 47.414 38 54 38 54 35.414 49.045 30.459 44.459 35.045"></polygon><rect x="30" y="4" width="4" height="2"></rect><rect x="4" y="8" width="56" height="2"></rect><rect x="30" y="50" width="4" height="6"></rect><rect x="4" y="46" width="56" height="2"></rect><polygon points="43.045 33.631 49.045 27.631 54 32.586 54 26 36 26 36 36.586 41 31.586 43.045 33.631"></polygon><path d="M6,44H58V12H6ZM30,34H26V32h4Zm0-4H16V28H30ZM56,40H34V24H56ZM10,24H30v2H10Zm0,4h4v2H10Zm0,4H24v2H10Zm0,4H30v2H10Z"></path></g></svg>