<svg xmlns="http://www.w3.org/2000/svg" viewBox="0 0 64 64" x="0px" y="0px"><g data-name="Coding-Smartphone-Software Developer-Web Programming-Code"><path d="M46,2H18a6.006,6.006,0,0,0-6,6V56a6.006,6.006,0,0,0,6,6H46a6.006,6.006,0,0,0,6-6V8A6.006,6.006,0,0,0,46,2Zm4,54a4,4,0,0,1-4,4H18a4,4,0,0,1-4-4V8a4,4,0,0,1,4-4H46a4,4,0,0,1,4,4Z"></path><path d="M34,52H30a3,3,0,0,0,0,6h4a3,3,0,0,0,0-6Zm0,4H30a1,1,0,0,1,0-2h4a1,1,0,0,1,0,2Z"></path><rect x="25" y="6" width="2" height="2"></rect><rect x="29" y="6" width="6" height="2"></rect><path d="M27.293,32.707l1.414-1.414L26.414,29l2.293-2.293-1.414-1.414-3,3a1,1,0,0,0,0,1.414Z"></path><path d="M36.707,25.293l-1.414,1.414L37.586,29l-2.293,2.293,1.414,1.414,3-3a1,1,0,0,0,0-1.414Z"></path><rect x="28.838" y="28" width="6.325" height="1.999" transform="translate(-5.638 50.176) rotate(-71.547)"></rect><rect x="24" y="35" width="4" height="2"></rect><rect x="30" y="35" width="8" height="2"></rect><rect x="26" y="39" width="6" height="2"></rect><rect x="34" y="39" width="4" height="2"></rect><path d="M45,15H19a3,3,0,0,0-3,3V42a3,3,0,0,0,3,3H45a3,3,0,0,0,3-3V18A3,3,0,0,0,45,15ZM19,17H45a1,1,0,0,1,1,1v3H18V18A1,1,0,0,1,19,17ZM45,43H19a1,1,0,0,1-1-1V23H46V42A1,1,0,0,1,45,43Z"></path><rect x="20" y="18" width="2" height="2"></rect><rect x="24" y="18" width="2" height="2"></rect><rect x="28" y="18" width="2" height="2"></rect></g></svg>