<svg xmlns="http://www.w3.org/2000/svg" viewBox="0 0 64 64" x="0px" y="0px"><g data-name="Shirt-Clothes"><rect x="52" y="50" width="8" height="2"></rect><rect x="14" y="33" width="36" height="10"></rect><path d="M32,12a9.01,9.01,0,0,0,8.941-8H23.059A9.01,9.01,0,0,0,32,12Z"></path><path d="M60,10.031a1.989,1.989,0,0,0-1.257-1.857L45.993,4.048A1.037,1.037,0,0,0,45.685,4H42.949a10.994,10.994,0,0,1-21.9,0H18.315a1.007,1.007,0,0,0-.308.049L5.193,8.2A1.974,1.974,0,0,0,4,10.031V48h8V19h2V31H50V19h2V48h8Z"></path><rect x="14" y="45" width="36" height="15"></rect><rect x="4" y="50" width="8" height="2"></rect></g></svg>