<svg xmlns="http://www.w3.org/2000/svg" viewBox="0 0 64 64" x="0px" y="0px"><g><path d="M59,34.311V20a1,1,0,0,0-1-1,6.006,6.006,0,0,1-6-6,1,1,0,0,0-1-1H49.96a9.267,9.267,0,0,1-7.581-4.154A9.021,9.021,0,0,0,35,4H29a9.021,9.021,0,0,0-7.379,3.846A9.267,9.267,0,0,1,14.04,12H13a1,1,0,0,0-1,1,6.006,6.006,0,0,1-6,6,1,1,0,0,0-1,1V34.311A8.971,8.971,0,0,0,2,41V53a1,1,0,0,0,1,1H5v5a1,1,0,0,0,1,1H9a1,1,0,0,0,.986-.835L10.847,54H53.153l.861,5.165A1,1,0,0,0,55,60h3a1,1,0,0,0,1-1V54h2a1,1,0,0,0,1-1V41A8.971,8.971,0,0,0,59,34.311ZM7,20.938A8.019,8.019,0,0,0,13.938,14h.1a11.242,11.242,0,0,0,9.219-5.006A7.018,7.018,0,0,1,29,6h6a7.018,7.018,0,0,1,5.741,2.994A11.242,11.242,0,0,0,49.96,14h.1A8.019,8.019,0,0,0,57,20.938V32.95a8.906,8.906,0,0,0-2-.718V23.25a1,1,0,0,0-.634-.931,10.061,10.061,0,0,1-5.748-5.866,1,1,0,0,0-.767-.639A13.668,13.668,0,0,1,39.1,10.136,5.011,5.011,0,0,0,35,8H29a5.011,5.011,0,0,0-4.1,2.136,13.668,13.668,0,0,1-8.752,5.678,1,1,0,0,0-.767.639,10.061,10.061,0,0,1-5.748,5.866A1,1,0,0,0,9,23.25v8.982a8.906,8.906,0,0,0-2,.718ZM37,31V27a1,1,0,0,1,1-1h8a1,1,0,0,1,1,1v4a1,1,0,0,1-1,1H38A1,1,0,0,1,37,31Zm9-7H38a3,3,0,0,0-3,3v4a2.966,2.966,0,0,0,.184,1H28.816A2.966,2.966,0,0,0,29,31V27a3,3,0,0,0-3-3H18a3,3,0,0,0-3,3v4a2.966,2.966,0,0,0,.184,1H11V23.91a12.065,12.065,0,0,0,6.047-6.232,15.743,15.743,0,0,0,9.492-6.394A3.01,3.01,0,0,1,29,10h6a3.007,3.007,0,0,1,2.46,1.284,15.748,15.748,0,0,0,9.493,6.394A12.065,12.065,0,0,0,53,23.91V32H48.816A2.966,2.966,0,0,0,49,31V27A3,3,0,0,0,46,24ZM17,31V27a1,1,0,0,1,1-1h8a1,1,0,0,1,1,1v4a1,1,0,0,1-1,1H18A1,1,0,0,1,17,31Zm-6,3H53a7.011,7.011,0,0,1,6.929,6H4.071A7.011,7.011,0,0,1,11,34ZM8.153,58H7V54H8.82ZM57,58H55.847l-.667-4H57Zm3-6H4V42H60Z"></path><polygon points="33 13 31 13 31 14 30 14 30 16 31 16 31 17 33 17 33 16 34 16 34 14 33 14 33 13"></polygon><polygon points="33 21 31 21 31 22 30 22 30 24 31 24 31 25 33 25 33 24 34 24 34 22 33 22 33 21"></polygon><polygon points="43 18 41 18 41 19 40 19 40 21 41 21 41 22 43 22 43 21 44 21 44 19 43 19 43 18"></polygon><polygon points="23 18 21 18 21 19 20 19 20 21 21 21 21 22 23 22 23 21 24 21 24 19 23 19 23 18"></polygon></g></svg>