<svg xmlns="http://www.w3.org/2000/svg" viewBox="0 0 64 64" x="0px" y="0px"><g><path d="M62,31H51V25a1,1,0,0,0-1-1H40V14a1,1,0,0,0-1-1H25a1,1,0,0,0-1,1V24H14a1,1,0,0,0-1,1v6H2v2H13v6a1,1,0,0,0,1,1H24V50a1,1,0,0,0,1,1H39a1,1,0,0,0,1-1V40H50a1,1,0,0,0,1-1V33H62ZM15,26H25a1,1,0,0,0,1-1V15H38V25a1,1,0,0,0,1,1H49v5H37a1,1,0,0,0-.832.445l-.821,1.232-2.389-7.964A1,1,0,0,0,32.016,24H32a1,1,0,0,0-.948.684l-2.859,8.575-1.216-5.476a1,1,0,0,0-.855-.775.988.988,0,0,0-1.017.545L23.382,31H15ZM49,38H39a1,1,0,0,0-1,1V49H26V39a1,1,0,0,0-1-1H15V33h9a1,1,0,0,0,.895-.553l.74-1.48,1.388,6.25a1,1,0,0,0,.925.782H28a1,1,0,0,0,.948-.684l3-9,2.092,6.975a1,1,0,0,0,.811.7,1.013,1.013,0,0,0,.979-.434L37.535,33H49Z"></path></g></svg>