<svg xmlns="http://www.w3.org/2000/svg" viewBox="0 0 64 64" x="0px" y="0px"><g data-name="Fluurescent Light"><path d="M61,17H3a1,1,0,0,0-1,1V32a1,1,0,0,0,1,1H7a1,1,0,0,0,1-1V30H9v1a2,2,0,0,0,2,2H53a2,2,0,0,0,2-2V30h1v2a1,1,0,0,0,1,1h4a1,1,0,0,0,1-1V18A1,1,0,0,0,61,17ZM4,19H60v2H4ZM6,31H4V23H6Zm5,0V27H53l0,4Zm44-3V27a2,2,0,0,0-2-2H11a2,2,0,0,0-2,2v1H8V23H56v5Zm5,3H58V23h2Z"></path><rect x="31" y="35" width="2" height="6"></rect><rect x="41.5" y="34.959" width="2" height="6.083" transform="translate(-5.669 7.504) rotate(-9.462)"></rect><rect x="18.459" y="37" width="6.083" height="2" transform="translate(-19.513 52.973) rotate(-80.556)"></rect></g></svg>