<svg xmlns="http://www.w3.org/2000/svg" viewBox="0 0 64 64" x="0px" y="0px"><g><path d="M57.32,2.05a1.007,1.007,0,0,0-1.12.35L54,5.33,51.8,2.4a1.041,1.041,0,0,0-1.6,0L48,5.33,45.8,2.4a1.041,1.041,0,0,0-1.6,0L42,5.33,39.8,2.4a1.041,1.041,0,0,0-1.6,0L36,5.33,33.8,2.4a1.041,1.041,0,0,0-1.6,0L30,5.33,27.8,2.4a1.041,1.041,0,0,0-1.6,0L24,5.33,21.8,2.4a1.041,1.041,0,0,0-1.6,0L18,5.33,15.8,2.4A1,1,0,0,0,14,3V23.15L7.76,33.95A16.835,16.835,0,0,0,5.59,44.33l1.4,12.63L6.02,61.8l1.96.4,1-5a.81.81,0,0,0,.01-.31L7.57,44.11A14.908,14.908,0,0,1,9.5,34.95l4.5-7.8V40.12l-.57.98,1.74,1,5-8.66a1.968,1.968,0,0,1,1.21-.94,2.016,2.016,0,0,1,1.52.21,1.97,1.97,0,0,1,1,1.73,1.949,1.949,0,0,1-.27,1l-3.5,6.06a1.021,1.021,0,0,0-.06.87l1.28,3.22A8.793,8.793,0,0,1,22,48.93v1.3a8.919,8.919,0,0,1-1.29,4.64l-1.47,2.44-.11.19A1.063,1.063,0,0,0,19,58v4h2V60a1.014,1.014,0,0,0,.8-.4L24,56.67l2.2,2.93a1.041,1.041,0,0,0,1.6,0L30,56.67l2.2,2.93a1.041,1.041,0,0,0,1.6,0L36,56.67l2.2,2.93a1.041,1.041,0,0,0,1.6,0L42,56.67l2.2,2.93a1.041,1.041,0,0,0,1.6,0L48,56.67l2.2,2.93a1.041,1.041,0,0,0,1.6,0L54,56.67l2.2,2.93a.985.985,0,0,0,.8.4,1.185,1.185,0,0,0,.32-.05A1.014,1.014,0,0,0,58,59V3A1.014,1.014,0,0,0,57.32,2.05ZM56,56l-1.2-1.6a1.041,1.041,0,0,0-1.6,0L51,57.33,48.8,54.4a1.041,1.041,0,0,0-1.6,0L45,57.33,42.8,54.4a1.041,1.041,0,0,0-1.6,0L39,57.33,36.8,54.4a1.041,1.041,0,0,0-1.6,0L33,57.33,30.8,54.4a1.041,1.041,0,0,0-1.6,0L27,57.33,24.8,54.4a1.041,1.041,0,0,0-1.6,0l-.06.08A11.014,11.014,0,0,0,24,50.23v-1.3a10.907,10.907,0,0,0-.79-4.09l-1.1-2.76,3.26-5.64a4.005,4.005,0,0,0-6.94-4L16,36.65V6l1.2,1.6a1.041,1.041,0,0,0,1.6,0L21,4.67,23.2,7.6a1.041,1.041,0,0,0,1.6,0L27,4.67,29.2,7.6a1.041,1.041,0,0,0,1.6,0L33,4.67,35.2,7.6a1.041,1.041,0,0,0,1.6,0L39,4.67,41.2,7.6a1.041,1.041,0,0,0,1.6,0L45,4.67,47.2,7.6a1.041,1.041,0,0,0,1.6,0L51,4.67,53.2,7.6a1.041,1.041,0,0,0,1.6,0L56,6Z"></path><rect x="36" y="18" width="4" height="2"></rect><rect x="42" y="18" width="10" height="2"></rect><rect x="36" y="22" width="16" height="2"></rect><rect x="25" y="28" width="21" height="2"></rect><rect x="48" y="28" width="4" height="2"></rect><rect x="27" y="32" width="19" height="2"></rect><rect x="48" y="32" width="4" height="2"></rect><rect x="27" y="36" width="19" height="2"></rect><rect x="48" y="36" width="4" height="2"></rect><rect x="25" y="40" width="21" height="2"></rect><rect x="48" y="40" width="4" height="2"></rect><rect x="25" y="44" width="21" height="2"></rect><rect x="48" y="44" width="4" height="2"></rect><path d="M27,21H25a3,3,0,0,0,3,3v2h2V24a3,3,0,0,0,0-6V16a1,1,0,0,1,1,1h2a3,3,0,0,0-3-3V12H28v2a3,3,0,0,0,0,6v2A1,1,0,0,1,27,21Zm0-4a1,1,0,0,1,1-1v2A1,1,0,0,1,27,17Zm3,3a1,1,0,0,1,0,2Z"></path></g></svg>