<svg xmlns="http://www.w3.org/2000/svg" viewBox="0 0 64 64" x="0px" y="0px"><g><path d="M31,15h2V14a2,2,0,0,0,2-2V11a2,2,0,0,0-2-2H31V8h4V6H33V5H31V6a2,2,0,0,0-2,2V9a2,2,0,0,0,2,2h2v1H29v2h2Z"></path><path d="M33,44H31v1a2,2,0,0,0-2,2v1a2,2,0,0,0,2,2h2v1H29v2h2v1h2V53a2,2,0,0,0,2-2V50a2,2,0,0,0-2-2H31V47h4V45H33Z"></path><path d="M51.4,22.02A20.922,20.922,0,0,0,39.97,10.6c.014-.2.03-.4.03-.6a8,8,0,0,0-16,0c0,.2.016.4.03.6A20.922,20.922,0,0,0,12.6,22.02a7.989,7.989,0,0,0,0,15.96A20.912,20.912,0,0,0,21,47.87V61a1,1,0,0,0,1,1H42a1,1,0,0,0,1-1V47.87a20.912,20.912,0,0,0,8.4-9.89,7.989,7.989,0,0,0,0-15.96ZM32,4a6,6,0,1,1-6,6A6.006,6.006,0,0,1,32,4ZM7,30a6,6,0,1,1,6,6A6.006,6.006,0,0,1,7,30ZM41,60H23V48.954c.334.159.676.3,1.02.444a7.989,7.989,0,0,0,15.96,0c.344-.141.686-.285,1.02-.444ZM32,34a3.981,3.981,0,0,0,3.166-1.583L41,43.252v3.46c-.387.208-.784.4-1.188.581a8,8,0,0,0-15.624,0c-.4-.182-.8-.373-1.188-.581v-3.46l5.834-10.835A3.981,3.981,0,0,0,32,34Zm0-6a2,2,0,1,1-2,2A2,2,0,0,1,32,28Zm6,21a6,6,0,1,1-6-6A6.006,6.006,0,0,1,38,49Zm5-3.536V43a.99.99,0,0,0-.12-.474L36.674,31H41V29H35.858A4,4,0,0,0,33,26.142V22H31v4.142A4,4,0,0,0,28.142,29H23v2h4.326L21.12,42.526A.99.99,0,0,0,21,43v2.464a18.907,18.907,0,0,1-6.294-7.652,8,8,0,0,0,0-15.624A18.919,18.919,0,0,1,24.44,12.6a7.99,7.99,0,0,0,15.12,0,18.919,18.919,0,0,1,9.733,9.593,8,8,0,0,0,0,15.624A18.907,18.907,0,0,1,43,45.464ZM51,36a6,6,0,1,1,6-6A6.006,6.006,0,0,1,51,36Z"></path><path d="M52,25H50v1a2,2,0,0,0-2,2v1a2,2,0,0,0,2,2h2v1H48v2h2v1h2V34a2,2,0,0,0,2-2V31a2,2,0,0,0-2-2H50V28h4V26H52Z"></path><path d="M14,35V34a2,2,0,0,0,2-2V31a2,2,0,0,0-2-2H12V28h4V26H14V25H12v1a2,2,0,0,0-2,2v1a2,2,0,0,0,2,2h2v1H10v2h2v1Z"></path><path d="M52.915,20.417l1.817-.834A25.168,25.168,0,0,0,43.459,7.775l-.918,1.777A23.158,23.158,0,0,1,52.915,20.417Z"></path><path d="M57.228,20.357l1.868-.714a29.183,29.183,0,0,0-15.7-16.319l-.786,1.839A27.171,27.171,0,0,1,57.228,20.357Z"></path><path d="M11.085,39.583l-1.817.834a25.024,25.024,0,0,0,9.19,10.6l1.084-1.681A23.019,23.019,0,0,1,11.085,39.583Z"></path><path d="M6.772,39.643,4.9,40.357A29.033,29.033,0,0,0,18.535,55.691l.93-1.771A27.031,27.031,0,0,1,6.772,39.643Z"></path></g></svg>