<svg xmlns="http://www.w3.org/2000/svg" viewBox="0 0 64 64" x="0px" y="0px"><g><rect x="25" y="6" width="6" height="2"></rect><rect x="27" y="48" width="2" height="2"></rect><path d="M57,6H44.3A6.983,6.983,0,0,0,38,2H18a7.008,7.008,0,0,0-7,7V30.3a3.069,3.069,0,0,0-1.45,1.44L5.01,41.59A11.085,11.085,0,0,0,4,46.19V62H6V46.19a9.038,9.038,0,0,1,.83-3.76L11,33.38V47a6.966,6.966,0,0,0,.89,3.41,1,1,0,0,0,1.78.09l4.5-7.79a2,2,0,0,1,1.21-.94,2.06,2.06,0,0,1,1.52.2,2,2,0,0,1,.73,2.74l-4.5,7.79a1.031,1.031,0,0,0,.01,1.02l2.14,3.56A4.987,4.987,0,0,1,20,59.65v2.34h2V59.65a7.026,7.026,0,0,0-1-3.6L19.77,54h5.77a4.033,4.033,0,0,0,.4,3.04l3.15,5.46,1.73-1-3.15-5.46a2,2,0,1,1,3.46-2l2,3.46A1,1,0,0,0,35,57V38a2,2,0,0,1,4,0V54a1,1,0,0,0,2,0V50a2,2,0,0,1,4,0v4a1,1,0,0,0,2,0V51a2,2,0,0,1,4,0v3a1,1,0,0,0,2,0V52a2,2,0,0,1,4,0V62h2V52a4,4,0,0,0-4-4,3.94,3.94,0,0,0-2.57.94A4.012,4.012,0,0,0,49,47a3.94,3.94,0,0,0-2.57.94A4,4,0,0,0,45,46.54V20h2v3a.987.987,0,0,0,.62.92A.838.838,0,0,0,48,24a1.007,1.007,0,0,0,.71-.29L52.41,20H57a3.009,3.009,0,0,0,3-3V9A3.009,3.009,0,0,0,57,6ZM43,46a3.989,3.989,0,0,0-2,.54V38a4,4,0,0,0-8,0V52H31.98a4.008,4.008,0,0,0-4.58-.43,4.247,4.247,0,0,0-.59.43H19.73l3.64-6.29a4,4,0,0,0-4.5-5.87,3.948,3.948,0,0,0-2.43,1.87l-3.4,5.89A4.032,4.032,0,0,1,13,47V9a5,5,0,0,1,5-5H38a4.993,4.993,0,0,1,4.1,2.15A3,3,0,0,0,40,9v8a3.009,3.009,0,0,0,3,3ZM58,17a1,1,0,0,1-1,1H52a1.033,1.033,0,0,0-.71.29L49,20.59V19a1,1,0,0,0-1-1H43a1,1,0,0,1-1-1V9a1,1,0,0,1,1-1H57a1,1,0,0,1,1,1Z"></path><path d="M37,23a1,1,0,0,0,1-1V20a5,5,0,0,0-5-5H23a5,5,0,0,0-5,5v2a1,1,0,0,0,1,1h1v2H19a1,1,0,0,0-1,1v3a2.006,2.006,0,0,0,2,2H36a2.006,2.006,0,0,0,2-2V26a1,1,0,0,0-1-1H36V23Zm-1,6H20V27H36ZM22,25V23H34v2Zm-2-4V20a3.009,3.009,0,0,1,3-3v2h2V17h2v2h2V17h2v2h2V17a3.009,3.009,0,0,1,3,3v1Z"></path><rect x="44" y="10" width="12" height="2"></rect><rect x="44" y="14" width="12" height="2"></rect></g></svg>