<svg xmlns="http://www.w3.org/2000/svg" data-name="Smartphone-Online-Credit Card-Bill-Report" viewBox="0 0 64 64" x="0px" y="0px"><path d="M57,16H44V3a1,1,0,0,0-1-1c-1.618,0-2.355,1.476-2.9,2.553C39.682,5.4,39.354,6,39,6s-.674-.6-1.095-1.442C37.367,3.479,36.63,2,35.01,2s-2.356,1.476-2.895,2.553C31.691,5.4,31.364,6,31.01,6s-.682-.6-1.106-1.447C29.365,3.476,28.628,2,27.01,2s-2.356,1.476-2.9,2.553C23.691,5.4,23.364,6,23.01,6s-.682-.6-1.106-1.447C21.365,3.476,20.628,2,19.01,2s-2.356,1.476-2.9,2.553C15.691,5.4,15.364,6,15.01,6s-.682-.6-1.106-1.447C13.365,3.476,12.628,2,11.01,2S8.654,3.476,8.115,4.553C7.691,5.4,7.364,6,7.01,6s-.691-.6-1.116-1.452C5.354,3.473,4.616,2,3,2A1,1,0,0,0,2,3V56a2,2,0,0,0,2,2H32.1A5.009,5.009,0,0,0,37,62H57a5.006,5.006,0,0,0,5-5V21A5.006,5.006,0,0,0,57,16ZM42,18H52v2H42ZM32,21V56H4V5.235c.034.069.069.138.105.209C4.646,6.522,5.387,8,7.01,8S9.365,6.524,9.9,5.447C10.328,4.6,10.655,4,11.01,4s.681.6,1.105,1.447C12.654,6.524,13.392,8,15.01,8S17.365,6.524,17.9,5.447C18.328,4.6,18.655,4,19.01,4s.681.6,1.1,1.447C20.654,6.524,21.392,8,23.01,8S25.365,6.524,25.9,5.447C26.328,4.6,26.655,4,27.01,4s.681.6,1.1,1.447C28.654,6.524,29.392,8,31.01,8S33.365,6.524,33.9,5.447C34.328,4.6,34.655,4,35.01,4s.682.6,1.105,1.45C36.652,6.526,37.388,8,39,8s2.355-1.476,2.9-2.553c.036-.072.071-.141.1-.21V16H37A5.006,5.006,0,0,0,32,21ZM60,57a3,3,0,0,1-3,3H37a3,3,0,0,1-3-3V21a3,3,0,0,1,3-3h3v2a2,2,0,0,0,2,2H52a2,2,0,0,0,2-2V18h3a3,3,0,0,1,3,3Z"></path><path d="M55,26H39a3,3,0,0,0-3,3V53a3,3,0,0,0,3,3H55a3,3,0,0,0,3-3V29A3,3,0,0,0,55,26Zm1,27a1,1,0,0,1-1,1H39a1,1,0,0,1-1-1V29a1,1,0,0,1,1-1H55a1,1,0,0,1,1,1Z"></path><path d="M43,43a3,3,0,0,0-3,3,2.965,2.965,0,0,0,.421,1.507A2.959,2.959,0,0,0,40,49a3,3,0,0,0,6,0,2.959,2.959,0,0,0-.421-1.493A2.965,2.965,0,0,0,46,46,3,3,0,0,0,43,43Zm0,2a1,1,0,1,1-1,1A1,1,0,0,1,43,45Zm0,5a1,1,0,0,1-1-1,.956.956,0,0,1,.038-.173,2.761,2.761,0,0,0,1.924,0A.956.956,0,0,1,44,49,1,1,0,0,1,43,50Z"></path><path d="M53,30H49a1,1,0,0,0-1,1v6a1,1,0,0,0,1,1h4a1,1,0,0,0,1-1V31A1,1,0,0,0,53,30Zm-1,6H50V32h2Z"></path><rect x="49" y="50" width="4" height="2"></rect><rect x="49" y="46" width="4" height="2"></rect><rect x="49" y="42" width="4" height="2"></rect><rect x="40" y="30" width="2" height="2"></rect><rect x="40" y="34" width="2" height="2"></rect><rect x="40" y="38" width="2" height="2"></rect><rect x="44" y="30" width="2" height="10"></rect><rect x="18" y="15" width="10" height="2"></rect><rect x="18" y="19" width="10" height="2"></rect><path d="M13,19H11a1,1,0,0,1-1-1H8a3,3,0,0,0,3,3v1h2V21a3,3,0,0,0,0-6H11a1,1,0,0,1,0-2h2a1,1,0,0,1,1,1h2a3,3,0,0,0-3-3V10H11v1a3,3,0,0,0,0,6h2a1,1,0,0,1,0,2Z"></path><path d="M17,31a9,9,0,1,0,9,9A9.01,9.01,0,0,0,17,31Zm6.92,8H18V33.08A7,7,0,0,1,23.92,39Zm-4.506,2H23.92A6.947,6.947,0,0,1,22.6,44.184ZM10,40a7.006,7.006,0,0,1,6-6.92V40h.009a.991.991,0,0,0,.284.707L21.184,45.6A6.986,6.986,0,0,1,10,40Z"></path></svg>