<svg xmlns="http://www.w3.org/2000/svg" viewBox="0 0 64 64" x="0px" y="0px"><g><polygon points="56.604 40 57.643 40 59.695 32.356 58.727 32.096 56.604 40"></polygon><path d="M33,9a1,1,0,0,0-1-1H29a1,1,0,0,1-1-1V5a1,1,0,0,0-1-1H25a1,1,0,0,0-1,1V7a1,1,0,0,1-1,1H20a1,1,0,0,0-1,1v4H33Z"></path><path d="M38.368,55.8A3,3,0,0,0,41.116,60h7.768a3,3,0,0,0,2.748-4.2l-2.093-4.785c-.073-.026-.153-.048-.225-.074a5.681,5.681,0,0,0-3.975,0,6.911,6.911,0,0,1-2.679.48,6.8,6.8,0,0,1-2.234-.328Z"></path><rect x="17" y="20" width="18" height="6"></rect><path d="M43,40v5a.991.991,0,0,1-.084.4l-1.681,3.842a4.942,4.942,0,0,0,1.425.177,5.02,5.02,0,0,0,2-.361,6.878,6.878,0,0,1,2.668-.479,8.049,8.049,0,0,1,1.18.081L47.084,45.4A.991.991,0,0,1,47,45V40Z"></path><rect x="49" y="42" width="11" height="2"></rect><path d="M57,58a1,1,0,0,0,1-1V54H56V52h2V50H56V48h2V46H49.529l3.935,9a4.984,4.984,0,0,1,.319,3Z"></path><path d="M41,37a1,1,0,0,0,1,1h6a1,1,0,0,0,0-2H42A1,1,0,0,0,41,37Z"></path><path d="M41,10H35v2h6a1,1,0,0,1,1,1V32H40V14H35a1,1,0,0,1-1,1H18a1,1,0,0,1-1-1H12V50H36v2H11a1,1,0,0,1-1-1V13a1,1,0,0,1,1-1h6V10H11a3.009,3.009,0,0,0-3,3V51a3.009,3.009,0,0,0,3,3H36.98L41,44.79V39.82A3,3,0,0,1,42,34h2V13A3.009,3.009,0,0,0,41,10ZM23,46H15V44h8Zm0-4H15V40h8Zm0-4H15V36h8Zm0-4H15V32h8ZM37,46H25V44H37Zm0-4H25V40H37Zm0-4H25V36H37Zm0-4H25V32H37Zm0-7a1,1,0,0,1-1,1H16a1,1,0,0,1-1-1V19a1,1,0,0,1,1-1H36a1,1,0,0,1,1,1Z"></path></g></svg>