<svg xmlns="http://www.w3.org/2000/svg" viewBox="0 0 64 64" x="0px" y="0px"><g><path d="M55.909,14.066A7.1,7.1,0,0,0,56,13a7.008,7.008,0,0,0-7-7,6.937,6.937,0,0,0-2.656.531A9.982,9.982,0,0,0,28,12c0,.087.01.176.013.263A8,8,0,1,0,26,28h9v7a1,1,0,0,0,1.625.781L46.351,28H55a7,7,0,0,0,.909-13.934ZM55,26H46a.98.98,0,0,0-.615.231l-.01-.012L37,32.919V27a1,1,0,0,0-1-1H26a6,6,0,1,1,5.423-8.558,5.569,5.569,0,0,1,.55,2.086,1.019,1.019,0,0,0,1.065.93,1,1,0,0,0,.93-1.066,7.517,7.517,0,0,0-.743-2.818,7.993,7.993,0,0,0-3.133-3.417A8.236,8.236,0,0,1,30,12a8,8,0,0,1,16,0,1,1,0,0,0,2,0,9.975,9.975,0,0,0-.716-3.685A4.876,4.876,0,0,1,49,8a5.007,5.007,0,0,1,4.88,6.1,6.865,6.865,0,0,0-4.088,2.24,1,1,0,1,0,1.5,1.326,4.9,4.9,0,0,1,3.418-1.645c.026,0,.05-.012.076-.016s.027,0,.041,0A1.717,1.717,0,0,1,55,16a5,5,0,0,1,0,10Z"></path><path d="M25.005,46h0l-2.844-.008A7,7,0,0,0,29,39V37a7,7,0,0,0-14,0v2a7,7,0,0,0,6.823,6.991l-2.7-.008h0a1,1,0,0,0-.146.018A9.01,9.01,0,0,0,10,55v5a2,2,0,0,0,2,2H32a2,2,0,0,0,2-2V55A9.011,9.011,0,0,0,25.005,46ZM22,32a5.009,5.009,0,0,1,4.9,4H22.618L21.9,34.553a1,1,0,0,0-1.6-.26L18.586,36H17.1A5.009,5.009,0,0,1,22,32Zm-5,7V38h2a1,1,0,0,0,.707-.293l1.019-1.019.379.759A1,1,0,0,0,22,38h5v1a5,5,0,0,1-10,0Zm5.02,12.37L20.621,48h2.857ZM12,55a7.005,7.005,0,0,1,6.467-6.973L21,54.133V60H12Zm20,5H23V54.141l2.643-6.108A7.008,7.008,0,0,1,32,55Z"></path><rect x="26" y="53" width="4" height="2"></rect></g></svg>