<svg xmlns="http://www.w3.org/2000/svg" viewBox="0 0 64 64" x="0px" y="0px"><g data-name="Payment-Calculator"><path d="M15,20H31a5.006,5.006,0,0,0,5-5V11a5.006,5.006,0,0,0-5-5H15a5.006,5.006,0,0,0-5,5v4A5.006,5.006,0,0,0,15,20Zm-3-9a3,3,0,0,1,3-3H31a3,3,0,0,1,3,3v4a3,3,0,0,1-3,3H15a3,3,0,0,1-3-3Z"></path><path d="M14,30a4,4,0,1,0-4-4A4,4,0,0,0,14,30Zm0-6a2,2,0,1,1-2,2A2,2,0,0,1,14,24Z"></path><path d="M23,22a4,4,0,1,0,4,4A4,4,0,0,0,23,22Zm0,6a2,2,0,1,1,2-2A2,2,0,0,1,23,28Z"></path><path d="M14,40a4,4,0,1,0-4-4A4,4,0,0,0,14,40Zm0-6a2,2,0,1,1-2,2A2,2,0,0,1,14,34Z"></path><path d="M23,32a4,4,0,1,0,4,4A4,4,0,0,0,23,32Zm0,6a2,2,0,1,1,2-2A2,2,0,0,1,23,38Z"></path><path d="M32,22a4,4,0,0,0-4,4V36a4,4,0,0,0,8,0V26A4,4,0,0,0,32,22Zm2,14a2,2,0,0,1-4,0V26a2,2,0,0,1,4,0Z"></path><path d="M59,25H40V7a5.006,5.006,0,0,0-5-5H11A5.006,5.006,0,0,0,6,7V25H5a3,3,0,0,0-3,3V54a3,3,0,0,0,3,3H59a3,3,0,0,0,3-3V28A3,3,0,0,0,59,25Zm0,2a1,1,0,0,1,1,1v6.945A9.018,9.018,0,0,1,52.056,27Zm-8.949,0A11.01,11.01,0,0,0,60,36.949v8.1A11.01,11.01,0,0,0,50.051,55h-36.1A11.01,11.01,0,0,0,4,45.051v-8.1a10.715,10.715,0,0,0,2-.379V39a5.006,5.006,0,0,0,5,5H21.421A11,11,0,0,0,43,41a10.924,10.924,0,0,0-3-7.529V27ZM40,39V36.887A8.992,8.992,0,0,1,32,50a9.032,9.032,0,0,1-8.478-6H35A5.006,5.006,0,0,0,40,39ZM8,7a3,3,0,0,1,3-3H35a3,3,0,0,1,3,3V39a3,3,0,0,1-3,3H11a3,3,0,0,1-3-3ZM5,27H6v7.473a8.766,8.766,0,0,1-2,.469V28A1,1,0,0,1,5,27ZM4,54V47.059A9.012,9.012,0,0,1,11.941,55H5A1,1,0,0,1,4,54Zm55,1H52.059A9.012,9.012,0,0,1,60,47.059V54A1,1,0,0,1,59,55Z"></path></g></svg>