<svg xmlns="http://www.w3.org/2000/svg" viewBox="0 0 64 64" x="0px" y="0px"><g><polygon points="26.8 40.15 28.59 36.54 27.09 36.07 24.55 37.34 26.8 40.15"></polygon><path d="M35,60V46H11V60h4V51a1,1,0,0,1,1-1H30a1,1,0,0,1,1,1v9Z"></path><polygon points="13 44 13 37.92 11 38.55 11 44 13 44"></polygon><polygon points="17.41 36.54 19.2 40.15 21.45 37.34 18.91 36.07 17.41 36.54"></polygon><path d="M20,31.57v2.81l3,1.5,3-1.5V31.57a10.68,10.68,0,0,1-6,0Z"></path><path d="M34,20a2.015,2.015,0,0,0,2-2,2.006,2.006,0,0,0-2-2Z"></path><path d="M14,10.18A3,3,0,0,1,15,10h8a5,5,0,0,0,5-5V4H19a5,5,0,0,0-5,5Z"></path><rect x="17" y="52" width="12" height="8"></rect><path d="M10,18a2.015,2.015,0,0,0,2,2V16A2.006,2.006,0,0,0,10,18Z"></path><path d="M27.9,42.44a.991.991,0,0,1-.79.55A.41.41,0,0,1,27,43a1,1,0,0,1-.78-.38L23,38.6l-3.22,4.02A1,1,0,0,1,19,43a.41.41,0,0,1-.11-.01.991.991,0,0,1-.79-.55l-2.62-5.29L15,37.3V44H31V37.3l-.48-.15Z"></path><path d="M4,60H9V39.18l-.09.02A6.964,6.964,0,0,0,4,45.88Z"></path><polygon points="33 44 35 44 35 38.55 33 37.92 33 44"></polygon><path d="M42,59.89A6.952,6.952,0,0,1,40,55V45a1,1,0,0,1,1-1h.73a6.916,6.916,0,0,0-4.64-4.79L37,39.18V60h5Z"></path><path d="M14,21a9,9,0,0,0,18,0V13a1,1,0,0,0-1-1H15a1,1,0,0,0-1,1Zm13-5a2,2,0,1,1-2,2A2,2,0,0,1,27,16Zm-2.017,7.25,1.325,1.5a5,5,0,0,1-6.616,0l1.325-1.5A3.074,3.074,0,0,0,24.983,23.25ZM19,16a2,2,0,1,1-2,2A2,2,0,0,1,19,16Z"></path><path d="M27.89,10H31a3,3,0,0,1,1,.18V7H29.71A7.065,7.065,0,0,1,27.89,10Z"></path><path d="M52,44a8.476,8.476,0,0,1,1.832-5.445A10.5,10.5,0,0,0,56,32H54a8.476,8.476,0,0,1-1.832,5.445A10.5,10.5,0,0,0,50,44Z"></path><path d="M47.832,38.555A10.5,10.5,0,0,0,50,32H48a8.476,8.476,0,0,1-1.832,5.445A10.5,10.5,0,0,0,44,44h2A8.476,8.476,0,0,1,47.832,38.555Z"></path><path d="M55,46H42v9a5,5,0,0,0,5,5h2a5,5,0,0,0,4.9-4H55a5,5,0,0,0,0-10Zm0,8H54V48h1a3,3,0,0,1,0,6Z"></path></g></svg>