<svg xmlns="http://www.w3.org/2000/svg" viewBox="0 0 64 64" x="0px" y="0px"><g data-name="Mobile Phone-Cellphone-Communication-Retro-Technology"><path d="M42,4H22a1,1,0,0,0-1,1V27.59l1.71,1.7A1.033,1.033,0,0,1,23,30v2H41V30a1.033,1.033,0,0,1,.29-.71L43,27.59V5A1,1,0,0,0,42,4ZM39,30H25V28H39Zm2-6a2,2,0,0,1-2,2H25a2,2,0,0,1-2-2V8a2,2,0,0,1,2-2H39a2,2,0,0,1,2,2Z"></path><rect x="31" y="38" width="2" height="2"></rect><path d="M22,60H42a1,1,0,0,0,1-1V34H21V59A1,1,0,0,0,22,60ZM37,36h4v2H37Zm0,4h4v2H37Zm0,6h4v2H37Zm0,4h4v2H37Zm0,4h4v2H37ZM29,37a1,1,0,0,1,1-1h4a1,1,0,0,1,1,1v4a1,1,0,0,1-1,1H30a1,1,0,0,1-1-1Zm0,9h6v2H29Zm0,4h6v2H29Zm0,4h6v2H29ZM23,36h4v2H23Zm0,4h4v2H23Zm0,6h4v2H23Zm0,4h4v2H23Zm0,4h4v2H23Z"></path><path d="M25,24H39V8H25Zm2-12a2,2,0,0,1,2-2h3v2H29v3H27Zm0,5h2v2H27Z"></path></g></svg>