<svg xmlns="http://www.w3.org/2000/svg" viewBox="0 0 64 64" x="0px" y="0px"><g data-name="Database Network"><circle cx="41" cy="32" r="2"></circle><path d="M26,28H4v8H26ZM9,35a3,3,0,1,1,3-3A3,3,0,0,1,9,35Zm7-3H14V30h2Zm4,0H18V30h2Zm4,0H22V30h2Z"></path><circle cx="9" cy="32" r="1"></circle><path d="M26,38H4v8H26ZM9,45a3,3,0,1,1,3-3A3,3,0,0,1,9,45Zm7-3H14V40h2Zm4,0H18V40h2Zm4,0H22V40h2Z"></path><rect x="6" y="48" width="18" height="2"></rect><circle cx="9" cy="22" r="1"></circle><path d="M4,26H26V18H4Zm18-6h2v2H22Zm-4,0h2v2H18Zm-4,0h2v2H14ZM9,19a3,3,0,1,1-3,3A3,3,0,0,1,9,19Z"></path><circle cx="9" cy="42" r="1"></circle><path d="M60,44H50v4H60Zm-7,3H51V45h2Zm3,0H54V45h2Z"></path><path d="M60,38H50v4H60Zm-7,3H51V39h2Zm3,0H54V39h2Z"></path><path d="M50,54H60V50H50Zm4-3h2v2H54Zm-3,0h2v2H51Z"></path><path d="M50,26H60V22H50Zm4-3h2v2H54Zm-3,0h2v2H51Z"></path><path d="M60,16H50v4H60Zm-7,3H51V17h2Zm3,0H54V17h2Z"></path><path d="M60,10H50v4H60Zm-7,3H51V11h2Zm3,0H54V11h2Z"></path><rect x="30" y="31" width="2" height="2"></rect><rect x="34" y="31" width="2" height="2"></rect><rect x="40" y="37" width="2" height="2"></rect><rect x="40" y="41" width="2" height="2"></rect><rect x="40" y="45" width="2" height="2"></rect><rect x="44" y="45" width="2" height="2"></rect><rect x="40" y="25" width="2" height="2"></rect><rect x="40" y="21" width="2" height="2"></rect><rect x="40" y="17" width="2" height="2"></rect><rect x="44" y="17" width="2" height="2"></rect></g></svg>