<svg xmlns="http://www.w3.org/2000/svg" viewBox="0 0 64 64" x="0px" y="0px"><g><path d="M40.284,28.74A4.969,4.969,0,0,0,42,25V23a4.952,4.952,0,0,0-1-2.969V19a3,3,0,0,0,3-3V11.816A3,3,0,0,0,46,9V5a3,3,0,0,0-3-3H25a5.006,5.006,0,0,0-5,5v9a3,3,0,0,0,3,3v1.031A4.952,4.952,0,0,0,22,23v2a4.969,4.969,0,0,0,1.716,3.74A13.011,13.011,0,0,0,15,41V61a1,1,0,0,0,1,1H48a1,1,0,0,0,1-1V41A13.011,13.011,0,0,0,40.284,28.74Zm.469,5.889-2.308,1.539a1,1,0,0,0-.152,1.539l1.2,1.2-4.96,3.858,4.4-10.393a1,1,0,0,0-.1-.926l-.837-1.255c.324.06.641.136.954.223Zm-15.2,1.539-2.308-1.539,1.8-4.216c.313-.087.63-.163.954-.223l-.837,1.255a1,1,0,0,0-.1.926l4.4,10.393-4.96-3.858,1.2-1.2a1,1,0,0,0-.152-1.539ZM22,12h1v1a2.966,2.966,0,0,0-1,.184Zm19,0h1v1.184A2.966,2.966,0,0,0,41,13Zm-2,6v.424A4.95,4.95,0,0,0,37,18H35.414L35,17.586A1.986,1.986,0,0,0,33.586,17H30.414A1.986,1.986,0,0,0,29,17.586L28.586,18H27a4.95,4.95,0,0,0-2,.424V12H39ZM24,23a3,3,0,0,1,3-3h2a1,1,0,0,0,.707-.293L30.414,19h3.172l.707.707A1,1,0,0,0,35,20h2a3,3,0,0,1,3,3v2a3,3,0,0,1-3,3H27a3,3,0,0,1-3-3Zm8,9.4L30.081,30h3.838Zm-1.425,1.42-2.131,1.6-1.32-3.3.949-1.425ZM32,35.25l2.763,2.072L32,43.538l-2.763-6.216Zm3.556.167-2.131-1.6,2.5-3.127.949,1.425ZM41,17V15a1,1,0,0,1,0,2ZM22,7a3,3,0,0,1,3-3H43a1,1,0,0,1,1,1V9a1,1,0,0,1-1,1H22Zm0,9a1,1,0,0,1,1-1v2A1,1,0,0,1,22,16ZM17,41a10.994,10.994,0,0,1,5.385-9.442l-1.3,3.048a1,1,0,0,0,.364,1.226l1.985,1.323-1.137,1.138a1,1,0,0,0,.093,1.5L31,46.489V60H23V41H21V60H17ZM47,60H43V41H41V60H33V46.489l8.614-6.7a1,1,0,0,0,.093-1.5L40.57,37.155l1.985-1.323a1,1,0,0,0,.364-1.226l-1.3-3.048A10.994,10.994,0,0,1,47,41Z"></path><path d="M34.29,14.71A1.011,1.011,0,0,0,35,15a.99.99,0,0,0,1-1,1.05,1.05,0,0,0-.29-.71.933.933,0,0,0-.33-.21.916.916,0,0,0-.76,0,1.032,1.032,0,0,0-.33.21A1.05,1.05,0,0,0,34,14a1,1,0,0,0,.08.38A1.169,1.169,0,0,0,34.29,14.71Z"></path><path d="M28.29,14.71a1.155,1.155,0,0,0,.33.21A.99.99,0,0,0,30,14a1.05,1.05,0,0,0-.29-.71,1.155,1.155,0,0,0-.33-.21.991.991,0,0,0-.76,0,.9.9,0,0,0-.54.54.943.943,0,0,0,0,.76A1.169,1.169,0,0,0,28.29,14.71Z"></path></g></svg>