<svg xmlns="http://www.w3.org/2000/svg" viewBox="0 0 64 64" x="0px" y="0px"><g><rect x="41" y="56" width="16" height="4"></rect><polygon points="28 21 27 21 27 23.49 28 24.285 28 21"></polygon><rect x="19" y="38" width="4" height="4"></rect><path d="M44,23a2.937,2.937,0,0,1,2.127.893,2.893,2.893,0,0,1,.847,1.843A1.993,1.993,0,0,0,46,22H40a2,2,0,0,0,0,4h1A3,3,0,0,1,44,23Z"></path><path d="M40,34v7.764l2.9,5.789A1,1,0,0,1,43,48v6H55V50a1,1,0,0,1,.052-.316L57,43.838V34a1,1,0,0,0-2,0v4H53V32a1,1,0,0,0-2,0v6H49V31a1,1,0,0,0-2,0v6H45V26a.959.959,0,0,0-.287-.693A.977.977,0,0,0,44,25a1,1,0,0,0-1,1v5.78A2.985,2.985,0,0,1,44,34v6H42V34a1,1,0,0,0-2,0Z"></path><path d="M15,30.766V42h2V37a1,1,0,0,1,1-1h6a1,1,0,0,1,1,1v5h2V30.766l-6-4.515ZM24,31a3,3,0,1,1-3-3A3,3,0,0,1,24,31Z"></path><path d="M21,21.277h0L9.042,30.78A.8.8,0,0,0,8.8,31.892a.786.786,0,0,0,1.118.2L20.4,24.2a1,1,0,0,1,1.2,0L32.1,32.1A.786.786,0,1,0,33,30.813Z"></path><path d="M60,17a3,3,0,0,0-3-3H56V28H54V14H7a3,3,0,0,0-3,3V47a3,3,0,0,0,3,3H41V48.236l-2.9-5.789A1,1,0,0,1,38,42V34a3,3,0,0,1,3-3V28H40a4,4,0,0,1,0-8h6a4,4,0,0,1,2.827,6.827A3.956,3.956,0,0,1,47,27.858v.326A2.94,2.94,0,0,1,50.529,29.4a2.961,2.961,0,0,1,4.355,1.819A2.99,2.99,0,0,1,59,34V44a1,1,0,0,1-.052.316l-1.892,5.678A3,3,0,0,0,60,47ZM34.868,33a2.785,2.785,0,0,1-3.966.7L29,32.271V42a2,2,0,0,1-2,2H15a2,2,0,0,1-2-2V32.27l-1.893,1.424a2.785,2.785,0,1,1-3.264-4.513l11.913-9.47a1.994,1.994,0,0,1,2.488,0L25,21.9V20a1,1,0,0,1,1-1h3a1,1,0,0,1,1,1v5.874l4.2,3.34A2.758,2.758,0,0,1,34.868,33Z"></path><circle cx="21" cy="31" r="1"></circle></g></svg>