<svg xmlns="http://www.w3.org/2000/svg" viewBox="0 0 64 64" x="0px" y="0px"><g><path d="M41,52V36.84l-9-6.6-9,6.6V52h2V45a1,1,0,0,1,1-1h6a1,1,0,0,1,1,1v7Zm-1-7v4a1,1,0,0,1-1,1H35a1,1,0,0,1-1-1V45a1,1,0,0,1,1-1h4A1,1,0,0,1,40,45Zm-8-3a4,4,0,1,1,4-4A4,4,0,0,1,32,42Z"></path><circle cx="32" cy="38" r="2"></circle><polygon points="21 44 21 38.307 20 39.04 20 44 21 44"></polygon><rect x="27" y="46" width="4" height="6"></rect><rect x="36" y="46" width="2" height="2"></rect><path d="M46.688,38.229A.785.785,0,0,0,47,36.813L32,26.224,17,36.814a.785.785,0,0,0,.315,1.415.8.8,0,0,0,.6-.14l13.494-9.9a1,1,0,0,1,1.182,0l13.494,9.9A.8.8,0,0,0,46.688,38.229Z"></path><polygon points="44 44 44 39.04 43 38.307 43 44 44 44"></polygon><path d="M49.285,38a2.763,2.763,0,0,1-.285.753V40h2V38Z"></path><path d="M54,28.846,45,22.24,37.563,27.7l3.451,2.436c0-.047-.014-.091-.014-.138a4,4,0,1,1,5.2,3.8l1.959,1.383a2.8,2.8,0,0,1,.77.82H52a1,1,0,0,1,1,1v4a1,1,0,0,1-1,1H48a1,1,0,0,1-1-1v-.8a2.523,2.523,0,0,1-1-.019V44h8Z"></path><circle cx="45" cy="30" r="2"></circle><path d="M59.68,30.231A.782.782,0,0,0,60,28.813L45,18.224,34.568,25.588l1.273.9,8.567-6.292a1,1,0,0,1,1.184,0l13.49,9.9A.783.783,0,0,0,59.68,30.231Z"></path><path d="M12,37a1,1,0,0,1,1-1h2.074a2.806,2.806,0,0,1,.769-.819L17.8,33.8A3.992,3.992,0,1,1,23,30c0,.047-.012.092-.014.139L26.437,27.7,19,22.24l-9,6.606V44h2Z"></path><path d="M18,40.18A2.762,2.762,0,0,1,15.132,39a2.806,2.806,0,0,1-.417-1H14v6h4Z"></path><circle cx="19" cy="30" r="2"></circle><path d="M19.592,20.194l8.568,6.293,1.273-.9L19,18.224,4,28.817A.793.793,0,0,0,3.8,29.9a.812.812,0,0,0,.663.337.8.8,0,0,0,.467-.152l13.481-9.895A1,1,0,0,1,19.592,20.194Z"></path></g></svg>