<svg xmlns="http://www.w3.org/2000/svg" viewBox="0 0 64 64" x="0px" y="0px"><g><path d="M47,18H40V5a3.009,3.009,0,0,0-3-3H27a3.009,3.009,0,0,0-3,3V18H17a3.009,3.009,0,0,0-3,3V55a3.009,3.009,0,0,0,3,3h2.18a3,3,0,1,0,5.64,0H39.18a3,3,0,1,0,5.64,0H47a3.009,3.009,0,0,0,3-3V21A3.009,3.009,0,0,0,47,18ZM26,5a1,1,0,0,1,1-1H37a1,1,0,0,1,1,1V6H26ZM38,8V18H36V8ZM34,8V18H30V8ZM26,8h2V18H26ZM22,60a1,1,0,1,1,1-1A1,1,0,0,1,22,60Zm20,0a1,1,0,1,1,1-1A1,1,0,0,1,42,60Zm2-4H20V30H38v2a1,1,0,0,0-.97.76l-1,4a1.022,1.022,0,0,0,.18.86A1,1,0,0,0,37,38h4a1,1,0,0,0,.79-.38,1.022,1.022,0,0,0,.18-.86l-1-4A1,1,0,0,0,40,32V30h4ZM38.28,36l.5-2h.44l.5,2ZM44,28H20V25a1,1,0,0,1,1-1H43a1,1,0,0,1,1,1Zm4,27a1,1,0,0,1-1,1H46V25a3.009,3.009,0,0,0-3-3H21a3.009,3.009,0,0,0-3,3V56H17a1,1,0,0,1-1-1V21a1,1,0,0,1,1-1H47a1,1,0,0,1,1,1Z"></path></g></svg>