<svg xmlns="http://www.w3.org/2000/svg" viewBox="0 0 48 48" x="0px" y="0px"><g data-name="Mobile phone"><path d="M18,21v1h9v2H18V39a1,1,0,0,0,1,1H29a1,1,0,0,0,1-1V36H20V34H30V21a1,1,0,0,0-1-1H19A1,1,0,0,0,18,21Zm5,16h2v2H23Z"></path><path d="M38.586,9,33,3.414V8a1,1,0,0,0,1,1Z"></path><path d="M9,46H39a1,1,0,0,0,1-1V11H34a3,3,0,0,1-3-3V2H9A1,1,0,0,0,8,3V45A1,1,0,0,0,9,46ZM32,21V39a3,3,0,0,1-3,3H19a3,3,0,0,1-3-3V21a3,3,0,0,1,3-3H29A3,3,0,0,1,32,21ZM16,6h4V8H16ZM12,6h2V8H12Zm0,4h8v2H12Z"></path></g></svg>