<svg xmlns="http://www.w3.org/2000/svg" viewBox="0 0 64 64" x="0px" y="0px"><g data-name="Cactus"><path d="M41,26v4H52a1,1,0,0,0,1-1V17a1,1,0,0,0-1-1H50a1,1,0,0,0-1,1v8a1,1,0,0,1-1,1Z"></path><rect x="19" y="43" width="26" height="2"></rect><path d="M32,7a7.008,7.008,0,0,0-7,7V41H39V14A7.008,7.008,0,0,0,32,7Z"></path><path d="M16,22h7V20H18a1,1,0,0,1-1-1V12a1,1,0,0,0-2,0v9A1,1,0,0,0,16,22Z"></path><path d="M43,60V47H21V60Zm-4-7h2v2H39Zm0,3h2v2H39Zm-3,0h2v2H36Z"></path><path d="M34.293,2.293,33,3.586V2H31V3.586L29.707,2.293,28.293,3.707l3,3L31.3,6.7a.985.985,0,0,0,1.408.006l3-3Z"></path></g></svg>