<svg xmlns="http://www.w3.org/2000/svg" viewBox="0 0 64 64" x="0px" y="0px"><g><rect x="28" y="22" width="2" height="2"></rect><rect x="38" y="4" width="2" height="2"></rect><rect x="40" y="6" width="2" height="2"></rect><rect x="38" y="8" width="2" height="2"></rect><rect x="36" y="6" width="2" height="2"></rect><rect x="55" y="38" width="2" height="2"></rect><rect x="57" y="40" width="2" height="2"></rect><rect x="55" y="42" width="2" height="2"></rect><rect x="53" y="40" width="2" height="2"></rect><rect x="6" y="28" width="2" height="2"></rect><rect x="4" y="30" width="2" height="2"></rect><rect x="6" y="32" width="2" height="2"></rect><rect x="8" y="30" width="2" height="2"></rect><path d="M30,11V9a1,1,0,0,0,1-1V7a5.006,5.006,0,0,0-5-5H24a5.006,5.006,0,0,0-5,5V8a1,1,0,0,0,1,1v2a5,5,0,0,0,10,0ZM24,4h2a3,3,0,0,1,3,3H25.236l-1.789-.895a1,1,0,0,0-1.154.188L21.586,7H21A3,3,0,0,1,24,4Zm1,10a3,3,0,0,1-3-3V9a1,1,0,0,0,.707-.293l.49-.49,1.356.678A1,1,0,0,0,25,9h3v2A3,3,0,0,1,25,14Z"></path><path d="M58.25,8,60.8,4.6A1,1,0,0,0,60,3H48a1,1,0,0,0-1,1V16H13V3a1,1,0,0,0-1-1H8A1,1,0,0,0,7,3V19a3,3,0,0,0,3,3h7V33a1,1,0,0,0,1,1V54H13a1,1,0,0,0-1,1v6a1,1,0,0,0,1,1H37a1,1,0,0,0,1-1V55a1,1,0,0,0-1-1H32V34a1,1,0,0,0,1-1V22H47V55h2V22h1a1,1,0,0,0,1-1V17a1,1,0,0,0-1-1H49V13H60a1,1,0,0,0,.8-1.6ZM26.483,18,25,21.461,23.517,18ZM9,4h2V6H9Zm1,16a1,1,0,0,1-1-1V8h2v9a1,1,0,0,0,1,1h9.341L24,24.205V32H19V21a1,1,0,0,0-1-1ZM36,60H14V56H36Zm-6-6H26V39H24V54H20V34H30Zm2-34a1,1,0,0,0-1,1V32H26v-7.8L28.659,18H45v2Zm17,0H47V18h2ZM56.2,8.6,58,11H49V5h9L56.2,7.4A1,1,0,0,0,56.2,8.6Z"></path></g></svg>