<svg xmlns="http://www.w3.org/2000/svg" viewBox="0 0 64 64" x="0px" y="0px"><g data-name="Shopping Bag-Hands-Bag-Purchase-Buy"><path d="M40,21V32H56V21Zm13,4a5,5,0,0,1-10,0V23h2v2a3,3,0,0,0,6,0V23h2Z"></path><path d="M38,35a2.772,2.772,0,0,0,.18,1H23a1,1,0,0,1-1-1V34H38Z"></path><path d="M42,14v5H39a1,1,0,0,0-1,1V32H22V14h3v3h2V14H37v3h2V14Z"></path><path d="M56,34v1a1,1,0,0,1-1,1H41a1,1,0,0,1-1-1V34Z"></path><path d="M39,14H37V9A5,5,0,0,0,27,9v5H25V9A7,7,0,0,1,39,9Z"></path><path d="M26.656,55.972a12.97,12.97,0,0,1,5.312-.959l4.753.145a10.879,10.879,0,0,0,4.5-.812L59.225,46.99a1.989,1.989,0,0,0,1.086-1.078,2.011,2.011,0,0,0-.052-1.666,2.13,2.13,0,0,0-2.7-.9l-9.528,3.892a3.981,3.981,0,0,1-4.4,2.943l-10.9-1.49L33,46.715,43.9,48.2a2,2,0,1,0,.541-3.963L32.308,42.582a13.013,13.013,0,0,0-6.676.846l-1.53.625a14.952,14.952,0,0,0-3.98,2.411L24.385,56.9Z"></path><polygon points="6.886 51.08 10.856 60.804 5.54 61.01 2.256 52.971 6.886 51.08"></polygon><polygon points="23.295 59.512 21.088 60.408 12.984 60.722 8.363 49.402 17.613 45.621 23.295 59.512"></polygon></g></svg>