<svg xmlns="http://www.w3.org/2000/svg" viewBox="0 0 64 64" x="0px" y="0px"><g><rect x="10" y="47" width="2" height="2"></rect><rect x="14" y="47" width="10" height="2"></rect><path d="M47,29A13,13,0,1,0,60,42,13.015,13.015,0,0,0,47,29Zm7.071,15.829a1,1,0,0,1,0,1.414l-2.829,2.828a1,1,0,0,1-1.414,0L47,46.243l-2.828,2.828a1,1,0,0,1-1.414,0l-2.829-2.828a1,1,0,0,1,0-1.414L42.758,42l-2.829-2.829a1,1,0,0,1,0-1.414l2.829-2.828a1,1,0,0,1,1.414,0L47,37.757l2.828-2.828a1,1,0,0,1,1.414,0l2.829,2.828a1,1,0,0,1,0,1.414L51.242,42Z"></path><path d="M5,41H32.051A14.941,14.941,0,0,1,52,27.875V14.589L31.029,24.655a6.966,6.966,0,0,1-6.058,0L4,14.589V40A1,1,0,0,0,5,41ZM6,30H8v2H6Zm0,4H8v2a1,1,0,0,0,1,1h2v2H9a3,3,0,0,1-3-3Z"></path><path d="M4,12.371,25.836,22.853a4.985,4.985,0,0,0,4.328,0L52,12.371V10a1,1,0,0,0-1-1H5a1,1,0,0,0-1,1Z"></path><path d="M47.707,39.878a1,1,0,0,1-1.414,0L43.465,37.05,42.05,38.464l2.829,2.829a1,1,0,0,1,0,1.414L42.05,45.536l1.415,1.414,2.828-2.828a1,1,0,0,1,1.414,0l2.828,2.828,1.415-1.414-2.829-2.829a1,1,0,0,1,0-1.414l2.829-2.829L50.535,37.05Z"></path></g></svg>