<svg xmlns="http://www.w3.org/2000/svg" viewBox="0 0 64 64" x="0px" y="0px"><g><polygon points="42 48 41 48 41 50 39 50 39 48 37 48 37 50 35 50 35 48 33 48 33 50 31 50 31 48 29 48 29 50 27 50 27 48 26 48 26 52 42 52 42 48"></polygon><polygon points="42 58 42 54 41 54 41 56 39 56 39 54 37 54 37 56 35 56 35 54 33 54 33 56 31 56 31 54 29 54 29 56 27 56 27 54 26 54 26 58 33 58 42 58"></polygon><path d="M34,29a8,8,0,1,0,8,8A8.011,8.011,0,0,0,34,29Zm0,7a3,3,0,0,1,1,5.82V43H33V41.82A3.01,3.01,0,0,1,31,39h2a1,1,0,1,0,1-1,3,3,0,0,1-1-5.82V31h2v1.18A3.01,3.01,0,0,1,37,35H35a1,1,0,1,0-1,1Z"></path><path d="M53,15H5a1,1,0,0,0-1,1V40a1,1,0,0,0,1,1H24.86A9.7,9.7,0,0,1,24,37a10,10,0,0,1,19.56-2.95A2.118,2.118,0,0,1,44,34H54V16A1,1,0,0,0,53,15ZM13,37H9a1,1,0,0,1-1-1V32h2v3h3Zm0-16H10v3H8V20a1,1,0,0,1,1-1h4Zm4,8H15V27h2Zm17.42-3.57A6,6,0,0,0,23,28a5.938,5.938,0,0,0,1.08,3.43l-1.65,1.14a8,8,0,1,1,13.8-8ZM43,29H41V27h2Zm7-5H48V21H45V19h4a1,1,0,0,1,1,1Z"></path><polygon points="44 36 44 40 60 40 60 36 59 36 59 38 57 38 57 36 55 36 55 38 53 38 53 36 51 36 51 38 49 38 49 36 47 36 47 38 45 38 45 36 44 36"></polygon><path d="M53,13a2.966,2.966,0,0,1,1,.184V12a1,1,0,0,0-1-1H5a1,1,0,0,0-1,1v1.184A2.966,2.966,0,0,1,5,13Z"></path><polygon points="44 52 60 52 60 48 59 48 59 50 57 50 57 48 55 48 55 50 53 50 53 48 51 48 51 50 49 50 49 48 47 48 47 50 45 50 45 48 44 48 44 52"></polygon><polygon points="44 46 60 46 60 42 59 42 59 44 57 44 57 42 55 42 55 44 53 44 53 42 51 42 51 44 49 44 49 42 47 42 47 44 45 44 45 42 44 42 44 46"></polygon><polygon points="60 54 59 54 59 56 57 56 57 54 55 54 55 56 53 56 53 54 51 54 51 56 49 56 49 54 47 54 47 56 45 56 45 54 44 54 44 58 60 58 60 54"></polygon><path d="M54,8a1,1,0,0,0-1-1H5A1,1,0,0,0,4,8V9.184A2.966,2.966,0,0,1,5,9H53a2.966,2.966,0,0,1,1,.184Z"></path></g></svg>