<svg xmlns="http://www.w3.org/2000/svg" viewBox="0 0 64 64" x="0px" y="0px"><g data-name="Barrier-Security-Traffic Barrier-Street-Village"><path d="M8,13.65v5.289a11.007,11.007,0,0,0,5.658,9.616L16,29.856l2.342-1.3A11.007,11.007,0,0,0,24,18.939V13.65l-8-3.556Zm12.707,4.057-5,5a1,1,0,0,1-1.414,0l-3-3,1.414-1.414L15,20.586l4.293-4.293Z"></path><polygon points="34 54 34 56 35.22 56 35.72 54 34 54"></polygon><polygon points="55 56 55 54 53.78 54 53.28 56 55 56"></polygon><polygon points="47.22 56 47.72 54 45.78 54 45.28 56 47.22 56"></polygon><polygon points="43.22 56 43.72 54 41.78 54 41.28 56 43.22 56"></polygon><polygon points="49.28 56 51.22 56 51.72 54 49.78 54 49.28 56"></polygon><polygon points="39.72 54 37.78 54 37.28 56 39.22 56 39.72 54"></polygon><path d="M40,37V49H50V37Zm6,11H44V46h2Zm0-4H44V42h2Zm0-4H44V38h2Z"></path><rect x="43" y="27" width="4" height="6"></rect><path d="M54,33V19.07l-9-9-9,9V33h5V26a1,1,0,0,1,1-1h6a1,1,0,0,1,1,1v7ZM45,23a4,4,0,1,1,4-4A4,4,0,0,1,45,23Z"></path><circle cx="45" cy="19" r="2"></circle><path d="M59.14,18.56,45,4.41,30.86,18.56l1.41,1.41L44.29,7.95a1.014,1.014,0,0,1,1.42,0L57.73,19.97Z"></path><polygon points="52 6 52 8.59 54 10.59 54 6 52 6"></polygon><path d="M22,60V49.07l-6-6-6,6V60h3V55a1,1,0,0,1,1-1h4a1,1,0,0,1,1,1v5Zm-6-8a2,2,0,1,1,2-2A2,2,0,0,1,16,52Z"></path><path d="M27.31,48.73,16,37.41,4.69,48.73,6.1,50.14l9.19-9.19a1.014,1.014,0,0,1,1.42,0l9.19,9.19Z"></path><rect x="15" y="56" width="2" height="4"></rect><path d="M32,58V52a1,1,0,0,0-2,0v6H29v2h4V58Z"></path></g></svg>