<svg xmlns="http://www.w3.org/2000/svg" viewBox="0 0 64 64" x="0px" y="0px"><g><path d="M37,22h2a2.006,2.006,0,0,1,2-2h5a2.006,2.006,0,0,1,2,2h2V18H4V52a1,1,0,0,0,1,1H34V51H30a2.006,2.006,0,0,1-2-2V44a2.006,2.006,0,0,1,2-2h4V40H30a2.006,2.006,0,0,1-2-2V33a2.006,2.006,0,0,1,2-2h4V29H30a2.006,2.006,0,0,1-2-2V22a2.006,2.006,0,0,1,2-2h5A2.006,2.006,0,0,1,37,22ZM15,49a2,2,0,0,1-2,2H8a2,2,0,0,1-2-2V44a2,2,0,0,1,2-2h5a2,2,0,0,1,2,2Zm0-11a2,2,0,0,1-2,2H8a2,2,0,0,1-2-2V33a2,2,0,0,1,2-2h5a2,2,0,0,1,2,2Zm0-11a2,2,0,0,1-2,2H8a2,2,0,0,1-2-2V22a2,2,0,0,1,2-2h5a2,2,0,0,1,2,2ZM26,49a2,2,0,0,1-2,2H19a2,2,0,0,1-2-2V44a2,2,0,0,1,2-2h5a2,2,0,0,1,2,2Zm0-11a2,2,0,0,1-2,2H19a2,2,0,0,1-2-2V33a2,2,0,0,1,2-2h5a2,2,0,0,1,2,2Zm0-11a2,2,0,0,1-2,2H19a2,2,0,0,1-2-2V22a2,2,0,0,1,2-2h5a2,2,0,0,1,2,2Z"></path><rect x="19" y="22" width="5.001" height="5"></rect><rect x="30" y="33" width="4" height="5"></rect><path d="M15,11a1,1,0,0,0,2,0V5a1,1,0,0,0-2,0Z"></path><rect x="30" y="44" width="4" height="5"></rect><path d="M5,9a1,1,0,0,0-1,1v6H50V10a1,1,0,0,0-1-1H41v2a3,3,0,0,1-6,0V9H19v2a3,3,0,0,1-6,0V9Z"></path><rect x="19" y="33" width="5.001" height="5"></rect><path d="M30,27h4V25a2.986,2.986,0,0,1,1-2.22V22H30Z"></path><rect x="19" y="44" width="5.001" height="5"></rect><rect x="8" y="44" width="5.001" height="5"></rect><rect x="8" y="33" width="5.001" height="5"></rect><rect x="8" y="22" width="5.001" height="5"></rect><path d="M37,11a1,1,0,0,0,2,0V5a1,1,0,0,0-2,0Z"></path><rect x="40" y="40" width="4" height="4"></rect><rect x="46" y="52" width="4" height="4"></rect><rect x="46" y="46" width="4" height="4"></rect><rect x="40" y="46" width="4" height="4"></rect><path d="M37,60H59a1,1,0,0,0,1-1V25a1,1,0,0,0-1-1H37a1,1,0,0,0-1,1V59A1,1,0,0,0,37,60Zm1-32a2,2,0,0,1,2-2H56a2,2,0,0,1,2,2v6a2,2,0,0,1-2,2H40a2,2,0,0,1-2-2Zm0,12a2,2,0,0,1,2-2H56a2,2,0,0,1,2,2V56a2,2,0,0,1-2,2H40a2,2,0,0,1-2-2Z"></path><rect x="40" y="52" width="4" height="4"></rect><rect x="46" y="40" width="4" height="4"></rect><rect x="52" y="46" width="4.001" height="4"></rect><path d="M56,28H40v6H56ZM45,32H43V30h2Zm4,0H47V30h2Zm4,0H51V30h2Z"></path><rect x="52" y="40" width="4" height="4"></rect><rect x="52" y="52" width="4.001" height="4"></rect></g></svg>