<svg xmlns="http://www.w3.org/2000/svg" viewBox="0 0 64 64" x="0px" y="0px"><title>Calculator-Math-Book</title><g data-name="Calculator-Math-Book"><path d="M60,28V55H33V54a3,3,0,0,1,3-3H57a1,1,0,0,0,1-1V30H56V49H36a4.961,4.961,0,0,0-3,1.013V18a3,3,0,0,1,3-3h2V13H36a5,5,0,0,0-4,2,5,5,0,0,0-4-2H7a1,1,0,0,0-1,1v5H3a1,1,0,0,0-1,1V56a1,1,0,0,0,1,1H61a1,1,0,0,0,1-1V28ZM8,15H28a3,3,0,0,1,3,3V50.013A4.961,4.961,0,0,0,28,49H8ZM4,21H6V50a1,1,0,0,0,1,1H28a3,3,0,0,1,3,3v1H4Z"></path><rect x="12" y="23" width="14" height="2"></rect><rect x="12" y="31" width="14" height="2"></rect><rect x="12" y="39" width="14" height="2"></rect><rect x="38" y="39" width="14" height="2"></rect><path d="M41,28H57a1,1,0,0,0,1-1V11a1,1,0,0,0-1-1H41a1,1,0,0,0-1,1V27A1,1,0,0,0,41,28Zm1-8h6v6H42Zm14,6H50V12h6ZM48,12v6H42V12Z"></path><polygon points="44 17 46 17 46 16 47 16 47 14 46 14 46 13 44 13 44 14 43 14 43 16 44 16 44 17"></polygon><rect x="43" y="22" width="4" height="2"></rect><rect x="51" y="20" width="4" height="2"></rect><rect x="51" y="17" width="4" height="2"></rect></g></svg>