<svg xmlns="http://www.w3.org/2000/svg" viewBox="0 0 64 64" x="0px" y="0px"><g data-name="Video"><path d="M61,16H57a1,1,0,0,0-.832.445L50,25.7V17a3,3,0,0,0-3-3H45.945c.033-.335.055-.669.055-1a10,10,0,0,0-20,0c0,.331.022.665.055,1H23.931a8,8,0,0,0-15.888.171A3,3,0,0,0,6,17v6.22l-2.484.621A2,2,0,0,0,2,25.781V42.219a2,2,0,0,0,1.516,1.94L6,44.78V51a3,3,0,0,0,3,3h5v4a2,2,0,0,0,2,2H40a2,2,0,0,0,2-2V54h5a3,3,0,0,0,3-3V42.3l6.168,9.252A1,1,0,0,0,57,52h4a1,1,0,0,0,1-1V17A1,1,0,0,0,61,16ZM36,5a8.009,8.009,0,0,1,8,8,8.354,8.354,0,0,1-.2,1.778A8.056,8.056,0,0,1,36,21a7.918,7.918,0,0,1-1.365-.119,8.066,8.066,0,0,1-6.44-6.1v0A8.4,8.4,0,0,1,28,13,8.009,8.009,0,0,1,36,5ZM16,9a6,6,0,1,1-6,6A6.006,6.006,0,0,1,16,9ZM4,42.219V25.78l2-.5V42.719ZM40,58H16V54H40Zm8-7a1,1,0,0,1-1,1H9a1,1,0,0,1-1-1V17a.992.992,0,0,1,.14-.509c0,.021.01.04.014.061.018.093.043.183.065.275.035.152.072.3.117.454.029.1.062.193.095.289.048.139.1.277.152.413.039.1.08.19.122.284.059.132.122.262.188.39.047.091.095.181.145.27.072.127.149.252.228.375.053.082.1.165.16.245.089.128.183.251.279.374.054.068.106.139.162.206.123.148.254.289.388.427.034.036.066.075.1.11.171.171.351.333.537.488.053.044.109.083.163.126.137.108.275.214.418.313.076.052.154.1.232.148.128.082.256.162.389.237.087.049.176.094.264.139.131.067.262.131.4.191.093.042.187.081.282.119.136.055.275.105.415.152.1.032.192.065.29.093.146.044.295.08.445.115.095.022.189.046.285.065.166.032.336.055.5.077.083.011.165.026.248.034.255.024.513.039.774.039a7.869,7.869,0,0,0,.787-.04c.087-.008.171-.025.258-.036.17-.023.341-.045.508-.078.1-.02.2-.047.3-.071.149-.035.3-.07.443-.114.1-.031.2-.068.306-.1.136-.047.272-.094.405-.149.1-.041.2-.087.3-.133.127-.058.253-.117.376-.182.1-.051.2-.106.293-.162q.178-.1.351-.213c.094-.061.186-.124.278-.188.111-.079.22-.161.327-.245.087-.069.174-.138.259-.211.1-.089.2-.181.3-.276.08-.075.161-.151.238-.23.1-.1.188-.2.28-.308.071-.081.144-.161.212-.246.09-.112.174-.229.259-.347.06-.083.123-.163.18-.249.087-.132.167-.269.247-.406.045-.077.094-.152.137-.231.107-.2.206-.406.3-.615.011-.026.024-.051.035-.077.094-.223.178-.452.251-.685.027-.085.046-.173.07-.259.044-.158.089-.315.123-.477.022-.1.036-.21.054-.315s.046-.234.062-.354h2.516l.008.023c.04.125.088.246.131.369.051.14.1.282.154.419.049.119.105.234.158.351.061.135.12.271.187.4.057.112.12.221.181.331.072.129.144.258.221.384.065.106.136.208.205.311.081.122.163.244.25.362.073.1.151.2.228.294.091.114.182.227.278.337.081.093.165.183.249.273q.148.159.3.312c.088.086.178.169.269.252q.162.147.33.286c.094.078.189.154.286.229.116.089.234.174.354.258.1.07.2.139.3.2.124.08.25.156.377.23.105.061.209.122.316.18.131.07.265.135.4.2.109.052.217.105.328.153.139.061.281.115.423.169.111.043.221.087.334.126.148.05.3.093.449.137.112.032.222.068.336.1.16.04.323.071.486.1.107.022.214.047.323.066.183.03.369.05.556.071.092.01.182.025.275.033.28.023.563.036.849.036s.569-.013.849-.036c.093-.008.183-.023.275-.033.187-.021.373-.041.556-.071.109-.018.215-.044.322-.066.163-.032.327-.064.488-.105.112-.028.221-.063.332-.095.152-.044.3-.088.453-.139.111-.038.218-.081.327-.122.145-.056.291-.112.433-.174.106-.046.21-.1.314-.147.14-.067.278-.134.415-.208.1-.054.2-.112.3-.17.134-.078.267-.158.4-.243.094-.061.186-.124.278-.188.13-.091.257-.183.382-.28.087-.067.172-.135.257-.2.124-.1.245-.208.365-.317.078-.071.156-.143.232-.217.119-.116.234-.235.347-.356.069-.075.139-.15.207-.227.112-.129.22-.262.326-.4.061-.077.122-.153.18-.232.107-.143.207-.291.305-.441.051-.077.1-.153.152-.231.1-.159.19-.323.28-.488.041-.076.085-.15.125-.228.09-.176.172-.358.252-.541.031-.072.066-.141.095-.213.082-.2.154-.4.224-.61.02-.062.045-.121.065-.183,0-.013.009-.024.013-.037H47a1,1,0,0,1,1,1Zm12-1H57.535L50,38.7V29.3L57.535,18H60Z"></path><path d="M16,20a5,5,0,1,0-5-5A5.006,5.006,0,0,0,16,20Zm0-8a3,3,0,1,1-3,3A3,3,0,0,1,16,12Z"></path><path d="M36,20a7,7,0,1,0-7-7A7.009,7.009,0,0,0,36,20ZM36,8a5,5,0,1,1-5,5A5.006,5.006,0,0,1,36,8Z"></path></g></svg>