<svg xmlns="http://www.w3.org/2000/svg" viewBox="0 0 64 64" x="0px" y="0px"><g data-name="Cloud-Cloud Computing-Computer-Storage-Data"><path d="M58,38H50V35a1,1,0,0,0-1-1H33V31H45a9,9,0,0,0,2-17.77V13a7.008,7.008,0,0,0-7-7,6.775,6.775,0,0,0-2.23.37A11,11,0,0,0,18,13v.06A9,9,0,0,0,19,31H31v3H15a1,1,0,0,0-1,1v3H6a3.009,3.009,0,0,0-3,3V51a3.009,3.009,0,0,0,3,3h5v2H10a3.009,3.009,0,0,0-3,3v2a1,1,0,0,0,1,1H22a1,1,0,0,0,1-1V59a3.009,3.009,0,0,0-3-3H19V54h5a3.009,3.009,0,0,0,3-3V41a3.009,3.009,0,0,0-3-3H16V36H48v2H40a3.009,3.009,0,0,0-3,3V51a3.009,3.009,0,0,0,3,3h5v2H44a3.009,3.009,0,0,0-3,3v2a1,1,0,0,0,1,1H56a1,1,0,0,0,1-1V59a3.009,3.009,0,0,0-3-3H53V54h5a3.009,3.009,0,0,0,3-3V41A3.009,3.009,0,0,0,58,38ZM20,58a1,1,0,0,1,1,1v1H9V59a1,1,0,0,1,1-1Zm-7-2V54h4v2Zm12-5a1,1,0,0,1-1,1H6a1,1,0,0,1-1-1V50H25ZM24,40a1,1,0,0,1,1,1v7H5V41a1,1,0,0,1,1-1Zm7-11H19a7,7,0,1,1,.05-14,1,1,0,0,0,.74-.33,1.036,1.036,0,0,0,.26-.77c-.03-.3-.05-.6-.05-.9A8.99,8.99,0,0,1,36.56,8.14a1.011,1.011,0,0,0,1.28.36A4.984,4.984,0,0,1,45,13a5.532,5.532,0,0,1-.08.88,1.006,1.006,0,0,0,.18.77,1.029,1.029,0,0,0,.69.4A7,7,0,0,1,45,29H33V26.82a3,3,0,1,0-2,0Zm1-4a1,1,0,1,1,1-1A1,1,0,0,1,32,25ZM54,58a1,1,0,0,1,1,1v1H43V59a1,1,0,0,1,1-1Zm-7-2V54h4v2Zm12-5a1,1,0,0,1-1,1H40a1,1,0,0,1-1-1V50H59Zm0-3H39V41a1,1,0,0,1,1-1H58a1,1,0,0,1,1,1Z"></path><path d="M50,22H48a3,3,0,0,1-3,3v2A5.006,5.006,0,0,0,50,22Z"></path><rect x="41" y="25" width="2" height="2"></rect><path d="M29,6a7.008,7.008,0,0,0-7,7h2a5.006,5.006,0,0,1,5-5Z"></path></g></svg>