<svg xmlns="http://www.w3.org/2000/svg" viewBox="0 0 64 64" x="0px" y="0px"><title>Setting</title><g><path d="M35,29.816V34h2V29.816a2.982,2.982,0,0,0,0-5.632V12H35V24.184a2.982,2.982,0,0,0,0,5.632ZM36,26a1,1,0,1,1-1,1A1,1,0,0,1,36,26Z"></path><path d="M19,29.816V34h2V29.816a2.982,2.982,0,0,0,0-5.632V12H19V24.184a2.982,2.982,0,0,0,0,5.632ZM20,26a1,1,0,1,1-1,1A1,1,0,0,1,20,26Z"></path><path d="M27,23.816V34h2V23.816a2.982,2.982,0,0,0,0-5.632V12H27v6.184a2.982,2.982,0,0,0,0,5.632ZM28,20a1,1,0,1,1-1,1A1,1,0,0,1,28,20Z"></path><path d="M43,23.816V34h2V23.816a2.982,2.982,0,0,0,0-5.632V12H43v6.184a2.982,2.982,0,0,0,0,5.632ZM44,20a1,1,0,1,1-1,1A1,1,0,0,1,44,20Z"></path><path d="M59,2H5A3,3,0,0,0,2,5V45a3,3,0,0,0,3,3H22.9l-.8,8H19a1,1,0,0,0-1,1v3H16v2H48V60H46V57a1,1,0,0,0-1-1H41.905l-.8-8H59a3,3,0,0,0,3-3V5A3,3,0,0,0,59,2ZM44,58v2H20V58ZM24.105,56l.8-8H39.1l.8,8ZM60,45a1,1,0,0,1-1,1H5a1,1,0,0,1-1-1V5A1,1,0,0,1,5,4H59a1,1,0,0,1,1,1Z"></path><path d="M56,6H8A2,2,0,0,0,6,8V39a1,1,0,0,0,1,1H57a1,1,0,0,0,1-1V8A2,2,0,0,0,56,6Zm0,32H8V8H56Z"></path><rect x="31" y="42" width="2" height="2"></rect></g></svg>