<svg xmlns="http://www.w3.org/2000/svg" viewBox="0 0 64 64" x="0px" y="0px"><g><path d="M61,6H46V5a3,3,0,0,0-6,0V6H34V5a3,3,0,0,0-6,0V6H22V5a3,3,0,0,0-6,0V6H9A1,1,0,0,0,8,7V50H3a1,1,0,0,0-1,1v2a5,5,0,0,0,5,5H8v3a1,1,0,0,0,1,1H61a1,1,0,0,0,1-1V7A1,1,0,0,0,61,6ZM42,5a1,1,0,0,1,2,0V6H42ZM30,5a1,1,0,0,1,2,0V6H30ZM18,5a1,1,0,0,1,2,0V6H18ZM7,56a3.009,3.009,0,0,1-3-3V52H44v1a4.985,4.985,0,0,0,1,3Zm45,4H10V58H49a4.924,4.924,0,0,0,3-1.03Zm0-7a3,3,0,0,1-6,0V51a1,1,0,0,0-1-1H10V16H52Zm0-39H10V8h6V9a3.009,3.009,0,0,0,3,3V10a1,1,0,0,1-1-1V8H28V9a3.009,3.009,0,0,0,3,3V10a1,1,0,0,1-1-1V8H40V9a3.009,3.009,0,0,0,3,3V10a1,1,0,0,1-1-1V8H52Zm4,46H54V16h2Zm4,0H58V16h2Zm0-46H54V8h6Z"></path><path d="M36.776,34H38a1,1,0,0,0,.824-1.566L35.776,28H37a1,1,0,0,0,.759-1.65l-6-7a1.031,1.031,0,0,0-1.518,0l-6,7A1,1,0,0,0,25,28h1.224l-3.048,4.434A1,1,0,0,0,24,34h1.224l-3.048,4.434A1,1,0,0,0,23,40h7v5H27v2h8V45H32V40h7a1,1,0,0,0,.824-1.566ZM24.9,38l3.048-4.434A1,1,0,0,0,27.125,32H25.9l3.048-4.434A1,1,0,0,0,28.125,26h-.951L31,21.536,34.826,26h-.951a1,1,0,0,0-.824,1.566L36.1,32H34.875a1,1,0,0,0-.824,1.566L37.1,38Z"></path><rect x="29" y="34" width="2" height="2"></rect><rect x="31" y="30" width="2" height="2"></rect><rect x="30" y="24" width="2" height="2"></rect><polygon points="47 29 49 29 49 27 47 27 47 25 45 25 45 27 43 27 43 29 45 29 45 31 47 31 47 29"></polygon><polygon points="17 31 15 31 15 33 13 33 13 35 15 35 15 37 17 37 17 35 19 35 19 33 17 33 17 31"></polygon><rect x="38" y="21" width="2" height="2"></rect><rect x="42" y="35" width="2" height="2"></rect><rect x="19" y="25" width="2" height="2"></rect><rect x="14" y="21" width="2" height="2"></rect></g></svg>