<svg xmlns="http://www.w3.org/2000/svg" viewBox="0 0 64 64" x="0px" y="0px"><g data-name="Luggage"><path d="M53,11H11a1,1,0,0,0-1,1V56a1,1,0,0,0,1,1h4a1,1,0,0,0,1-1V23H48V56a1,1,0,0,0,1,1h4a1,1,0,0,0,1-1V12A1,1,0,0,0,53,11ZM12,13H52v8H12Zm2,42H12V23h2Zm38,0H50V23h2Z"></path><rect x="2" y="38" width="6" height="2"></rect><rect x="4" y="26.146" width="2" height="6.708" transform="translate(-23.622 20.779) rotate(-63.435)"></rect><rect x="1.646" y="47.5" width="6.708" height="2" transform="translate(-21.162 7.356) rotate(-26.565)"></rect><rect x="56" y="38" width="6" height="2"></rect><rect x="55.646" y="28.5" width="6.708" height="2" transform="translate(-6.964 29.5) rotate(-26.565)"></rect><rect x="58" y="45.146" width="2" height="6.708" transform="translate(-10.765 79.581) rotate(-63.435)"></rect><path d="M42,33H37V30a1,1,0,0,0-1-1H28a1,1,0,0,0-1,1v3H22a2,2,0,0,0-2,2V49a2,2,0,0,0,2,2H42a2,2,0,0,0,2-2V35A2,2,0,0,0,42,33ZM29,31h6v2H29ZM22,49V35H42V49Z"></path><rect x="30" y="16" width="4" height="2"></rect><rect x="36" y="16" width="4" height="2"></rect><rect x="24" y="16" width="4" height="2"></rect></g></svg>