<svg xmlns="http://www.w3.org/2000/svg" viewBox="0 0 64 64" x="0px" y="0px"><g data-name="Smartphone-Mobile Store-Ecommerce-Shopping Bag-Credit Card"><path d="M51,55h4a1,1,0,0,0,0-2H51a1,1,0,0,0,0,2Z"></path><path d="M30,41v2H60V41a1,1,0,0,0-1-1H31A1,1,0,0,0,30,41Z"></path><rect x="30" y="45" width="30" height="2"></rect><path d="M39,4H19a5,5,0,0,0-5,5V34.93l1.44-2.49a3.948,3.948,0,0,1,2.43-1.87,4.09,4.09,0,0,1,2.3.07L21,18.93A1.011,1.011,0,0,1,22,18h3V16a4,4,0,0,1,8,0v2h3a1.011,1.011,0,0,1,1,.93l.84,11.86A3,3,0,0,1,34.85,34H23.15a2.85,2.85,0,0,1-.29-.03,4.034,4.034,0,0,1-.49,2.47l-3.26,5.64,1.1,2.76A10.825,10.825,0,0,1,21,48.93V50h7V48H27a3.009,3.009,0,0,1-3-3,3,3,0,0,1,3-3h1V41a3.009,3.009,0,0,1,3-3H44V9A5,5,0,0,0,39,4ZM23,8H21V6h2ZM33,8H25V6h8Z"></path><path d="M31,16a2,2,0,0,0-4,0v2h4Z"></path><path d="M22.93,20l-.78,10.93a.949.949,0,0,0,.27.75.97.97,0,0,0,.73.32h11.7a.97.97,0,0,0,.73-.32.949.949,0,0,0,.27-.75L35.07,20H33v2H31V20H27v2H25V20Z"></path><path d="M26.31,44.29A.949.949,0,0,0,26,45a1,1,0,0,0,1,1h1V44H27A.928.928,0,0,0,26.31,44.29Z"></path><path d="M30,49V59a1,1,0,0,0,1,1H59a1,1,0,0,0,1-1V49Zm10,2h2v2H40Zm-4,0h2v2H36Zm-4,0h2v2H32Zm14,6H32V55H46Zm0-4H44V51h2Zm9,4H51a3,3,0,0,1,0-6h4a3,3,0,0,1,0,6Z"></path><path d="M17.13,41.5a1.023,1.023,0,0,0-.06.87l1.29,3.21A9.149,9.149,0,0,1,19,48.93v1.3a9,9,0,0,1-1.28,4.63l-1.58,2.63A1,1,0,0,0,16,58v3H5.22l.76-3.8a.81.81,0,0,0,.01-.31L4.57,44.11A14.908,14.908,0,0,1,6.5,34.95L12,25.42V38.39L10.44,41.1l1.73,1,5-8.66a2,2,0,0,1,2.73-.73,1.927,1.927,0,0,1,.93,1.21,1.969,1.969,0,0,1-.2,1.52Z"></path></g></svg>