<svg xmlns="http://www.w3.org/2000/svg" viewBox="0 0 64 64" x="0px" y="0px"><g data-name="Curriculum"><polygon points="24 12 24 18 27.165 18 28.256 12 24 12"></polygon><path d="M15,60H49a1,1,0,0,0,1-1V17a1,1,0,0,0-1-1H42v3a1,1,0,0,1-1,1H23a1,1,0,0,1-1-1V16H15a1,1,0,0,0-1,1V59A1,1,0,0,0,15,60Zm13-3H22V55h6Zm-2-4V51H42v2Zm20,4H30V55H46Zm0-4H44V51h2Zm0-8H42V43h4Zm0-4H30V39H46ZM28,43H40v2H28Zm-2-2V39h2v2Zm2-4V35h4v2Zm18,0H34V35H46ZM42,23h4v2H42Zm4,4v2H22V27ZM30,23H40v2H30ZM18,23H28v2H18Zm0,4h2v2H18Zm0,4H46v2H18Zm0,4h8v2H18Zm0,4h6v2H18Zm0,4h8v2H18Zm0,4H46v2H18Zm0,4h6v2H18Zm0,4h2v2H18Z"></path><polygon points="40 12 35.744 12 36.835 18 40 18 40 12"></polygon><polygon points="30.289 12 29.198 18 34.802 18 33.711 12 30.289 12"></polygon><path d="M38,5.4v.16A2.978,2.978,0,0,1,35.95,8.4l-.81.27.6,3.33H33.71l-.69-3.82a1,1,0,0,1,.66-1.13l1.64-.54A1,1,0,0,0,36,5.56V5.4a1.012,1.012,0,0,0-.75-.97,12.5,12.5,0,0,0-6.5,0A1.012,1.012,0,0,0,28,5.4v.16a1,1,0,0,0,.68.95l1.64.54a1,1,0,0,1,.66,1.13L30.29,12H28.26l.6-3.33-.81-.27A2.978,2.978,0,0,1,26,5.56V5.4a3.013,3.013,0,0,1,2.22-2.89,14.263,14.263,0,0,1,7.56,0A3.013,3.013,0,0,1,38,5.4Z"></path></g></svg>