<svg xmlns="http://www.w3.org/2000/svg" viewBox="0 0 64 64" x="0px" y="0px"><g><rect x="8" y="33" width="48" height="7"></rect><polygon points="50.095 60 51.895 42 12.105 42 13.905 60 50.095 60"></polygon><path d="M51.6,31A20,20,0,1,0,12,27a20.191,20.191,0,0,0,.4,4H21V29h2v2h8V29h2v2h8V29h2v2ZM23,25H21V23h2Zm0-6H21V17h2Zm10,6H31V23h2Zm0-6H31V17h2Zm0-6H31V11h2Zm8,4h2v2H41Zm0,8V23h2v2Z"></path><rect x="31" y="2" width="2" height="4"></rect><rect x="19.5" y="5.081" width="2" height="4" transform="translate(-0.794 11.198) rotate(-29.998)"></rect><rect x="11.081" y="13.5" width="2" height="4" transform="translate(-7.383 18.212) rotate(-59.998)"></rect><rect x="7" y="26" width="4" height="2"></rect><rect x="53" y="26" width="4" height="2"></rect><rect x="49.919" y="14.5" width="4" height="2" transform="translate(-0.795 28.031) rotate(-29.995)"></rect><rect x="41.5" y="6.081" width="4" height="2" transform="translate(15.621 41.215) rotate(-60.005)"></rect></g></svg>