<svg xmlns="http://www.w3.org/2000/svg" viewBox="0 0 64 64" x="0px" y="0px"><g><rect x="10" y="19" width="10" height="2"></rect><path d="M22.92,47.91A7.766,7.766,0,0,1,23,49a8.035,8.035,0,1,1-2-5.27V39.79A10.857,10.857,0,0,0,15,38,11,11,0,1,0,26,49,4.956,4.956,0,0,1,22.92,47.91Z"></path><path d="M52.1,48h1.8a4.953,4.953,0,0,0-.909-1.981A4.866,4.866,0,0,0,52.1,48Z"></path><rect x="11" y="15" width="8" height="2"></rect><path d="M15,26a10.857,10.857,0,0,0,6-1.79V22.72A2,2,0,0,1,20,23H10a2.006,2.006,0,0,1-2-2V18a1,1,0,0,1,1-1V15a1,1,0,0,1-1-1V11a4,4,0,0,1,4-4h6a4,4,0,0,1,4,4v3a1,1,0,0,1-1,1v2a.961.961,0,0,1,.76.38A5.008,5.008,0,0,1,26,15,11,11,0,1,0,15,26Z"></path><path d="M45.01,51.981A4.866,4.866,0,0,0,45.9,50H44.1A4.953,4.953,0,0,0,45.01,51.981Z"></path><path d="M52.99,51.981A4.953,4.953,0,0,0,53.9,50H52.1A4.866,4.866,0,0,0,52.99,51.981Z"></path><path d="M44.1,48h1.8a4.866,4.866,0,0,0-.886-1.981A4.953,4.953,0,0,0,44.1,48Z"></path><path d="M47.919,50a6.993,6.993,0,0,1-1.414,3.307,4.838,4.838,0,0,0,4.99,0A6.993,6.993,0,0,1,50.081,50Z"></path><path d="M46.505,44.693A6.993,6.993,0,0,1,47.919,48h2.162A6.993,6.993,0,0,1,51.5,44.693a4.838,4.838,0,0,0-4.99,0Z"></path><path d="M49,38a10.857,10.857,0,0,0-6,1.79V44a5,5,0,0,1-5,5A11,11,0,1,0,49,38Zm0,18a7,7,0,1,1,7-7A7.009,7.009,0,0,1,49,56Z"></path><path d="M43,20v4.21A10.857,10.857,0,0,0,49,26,11,11,0,1,0,38,15,5,5,0,0,1,43,20Zm.273-9.487A4.026,4.026,0,0,1,46.1,9.34a3.971,3.971,0,0,1,2.827,1.173l.073.073.073-.073A3.971,3.971,0,0,1,51.9,9.34a4.027,4.027,0,0,1,2.828,1.174,4,4,0,0,1,0,5.653l-5.02,5.021a1,1,0,0,1-1.414,0l-5.02-5.021a4,4,0,0,1,0-5.654Z"></path><path d="M15,43a6,6,0,1,0,6,6A6,6,0,0,0,15,43Zm3.306,7.664-3.2,2.132A2,2,0,0,1,12,51.132V46.868A2,2,0,0,1,15.109,45.2l3.2,2.132a2,2,0,0,1,0,3.328Z"></path><path d="M38,47a3.009,3.009,0,0,0,3-3V35H35V33h6V31H35V29h6V20a3.009,3.009,0,0,0-3-3H26a3.009,3.009,0,0,0-3,3v9h6v2H23v2h6v2H23v9a3.009,3.009,0,0,0,3,3Zm-5-2H31V43h2ZM29,19h6v2H29Z"></path><polygon points="14 51.138 17.197 49 14 46.868 14 51.138"></polygon><path d="M20,11a2.006,2.006,0,0,0-2-2v2H16V9H14v2H12V9a2.006,2.006,0,0,0-2,2v2H20Z"></path><path d="M49,19.066l4.312-4.313a2,2,0,0,0,0-2.826,2.052,2.052,0,0,0-2.825,0l-.78.78a1,1,0,0,1-1.414,0l-.78-.78A1.986,1.986,0,0,0,46.1,11.34a2.012,2.012,0,0,0-1.412.586,2,2,0,0,0,0,2.827Z"></path><path d="M23,31H17a1,1,0,0,1-.707-.293l-2-2,1.414-1.414L17.414,29H23Z"></path><path d="M15.707,36.707l-1.414-1.414,2-2A1,1,0,0,1,17,33h6v2H17.414Z"></path><path d="M47,31H41V29h5.586l1.707-1.707,1.414,1.414-2,2A1,1,0,0,1,47,31Z"></path><path d="M48.293,36.707,46.586,35H41V33h6a1,1,0,0,1,.707.293l2,2Z"></path></g></svg>