<svg xmlns="http://www.w3.org/2000/svg" viewBox="0 0 64 64" x="0px" y="0px"><g><path d="M61.89,50.55,56,38.76V5a3.009,3.009,0,0,0-3-3H11A3.009,3.009,0,0,0,8,5V38.76L2.11,50.55A1,1,0,0,0,2,51v4a3.009,3.009,0,0,0,3,3H7v4H9V49a1,1,0,0,1,2,0v3a1,1,0,0,0,2,0V48a1,1,0,0,1,2,0v4a1,1,0,0,0,2,0V47a1,1,0,0,1,2,0v5a1,1,0,0,0,2,0V47a1,1,0,0,1,2,0v8a1,1,0,0,0,1.87.5l2-3.46a.988.988,0,0,1,1.36-.37,1.01,1.01,0,0,1,.37,1.37L23.71,61.5l1.73,1,2.6-4.5h7.92l2.6,4.5,1.73-1L35.4,53.04a1.01,1.01,0,0,1,.37-1.37.988.988,0,0,1,1.36.37l2,3.46a1.022,1.022,0,0,0,1.13.47A1,1,0,0,0,41,55V47a1,1,0,0,1,2,0v5a1,1,0,0,0,2,0V47a1,1,0,0,1,2,0v5a1,1,0,0,0,2,0V48a1,1,0,0,1,2,0v4a1,1,0,0,0,2,0V49a1,1,0,0,1,2,0V62h2V58h2a3.009,3.009,0,0,0,3-3V51A1,1,0,0,0,61.89,50.55ZM10,5a1,1,0,0,1,1-1H53a1,1,0,0,1,1,1V38H10ZM7,56H5a1,1,0,0,1-1-1V52H7Zm22.2,0,1.13-1.96A3,3,0,0,0,30.67,52h2.66a3,3,0,0,0,.34,2.04L34.8,56ZM39,51.27l-.13-.23a3,3,0,0,0-4.1-1.1l-.09.06H29.32l-.09-.06a3,3,0,0,0-4.1,1.1l-.13.23v-.03L26.62,48H37.38L39,51.24ZM54,46a2.934,2.934,0,0,0-1.47.39A3,3,0,0,0,50,45a2.934,2.934,0,0,0-1.47.39A3,3,0,0,0,46,44a2.965,2.965,0,0,0-2,.77,2.985,2.985,0,0,0-4.98,2.03l-.13-.25A.977.977,0,0,0,38,46H26a.977.977,0,0,0-.89.55l-.13.25A2.985,2.985,0,0,0,20,44.77,2.965,2.965,0,0,0,18,44a3,3,0,0,0-2.53,1.39A2.934,2.934,0,0,0,14,45a3,3,0,0,0-2.53,1.39A2.934,2.934,0,0,0,10,46a3.009,3.009,0,0,0-3,3v1H4.62l5-10H54.38l5,10H57V49A3.009,3.009,0,0,0,54,46Zm6,9a1,1,0,0,1-1,1H57V52h3Z"></path><rect x="15" y="42" width="2" height="2"></rect><rect x="11" y="42" width="2" height="2"></rect><rect x="19" y="42" width="2" height="2"></rect><rect x="23" y="42" width="2" height="2"></rect><rect x="27" y="42" width="2" height="2"></rect><rect x="31" y="42" width="2" height="2"></rect><rect x="35" y="42" width="2" height="2"></rect><rect x="39" y="42" width="2" height="2"></rect><rect x="43" y="42" width="2" height="2"></rect><rect x="47" y="42" width="2" height="2"></rect><rect x="51" y="42" width="2" height="2"></rect><path d="M51,6H13a1,1,0,0,0-1,1V35a1,1,0,0,0,1,1H51a1,1,0,0,0,1-1V7A1,1,0,0,0,51,6ZM46,33a1,1,0,0,1-1,1H33a1,1,0,0,1-1-1V31a1,1,0,0,1,1-1h1v2h2V30h2v2h2V30h2v2h2V30h1a1,1,0,0,1,1,1Zm0-6a1,1,0,0,1-1,1H33a1,1,0,0,1-1-1V25a1,1,0,0,1,1-1h1v2h2V24h2v2h2V24h2v2h2V24h1a1,1,0,0,1,1,1ZM38,17H37a3.009,3.009,0,0,1-3-3V13h1a3.009,3.009,0,0,1,3,3ZM50,34H47.82A3,3,0,0,0,48,33V31a2.974,2.974,0,0,0-.78-2A2.974,2.974,0,0,0,48,27V25a3.009,3.009,0,0,0-3-3H40V21h1a5,5,0,0,0,5-5V14a1,1,0,0,0-1-1H43a4.962,4.962,0,0,0-3.32,1.29A5,5,0,0,0,35,11H33a1,1,0,0,0-1,1v2a5,5,0,0,0,5,5h1v3H33a3.009,3.009,0,0,0-3,3v2a2.974,2.974,0,0,0,.78,2A2.974,2.974,0,0,0,30,31v2a3,3,0,0,0,.18,1H14V8H50ZM40,19V18a3.009,3.009,0,0,1,3-3h1v1a3.009,3.009,0,0,1-3,3Z"></path><path d="M22,20H20a1,1,0,0,1-1-1H17a3,3,0,0,0,3,3v1h2V22a3,3,0,0,0,0-6H20a1,1,0,0,1,0-2h2a1,1,0,0,1,1,1h2a3,3,0,0,0-3-3V11H20v1a3,3,0,0,0,0,6h2a1,1,0,0,1,0,2Z"></path><rect x="16" y="26" width="2" height="2"></rect><rect x="20" y="26" width="6" height="2"></rect><rect x="16" y="30" width="10" height="2"></rect></g></svg>