<svg xmlns="http://www.w3.org/2000/svg" viewBox="0 0 64 64" x="0px" y="0px"><g><rect x="6" y="20" width="26" height="4"></rect><rect x="6" y="58" width="52" height="2"></rect><circle cx="49" cy="33" r="1"></circle><rect x="16" y="26" width="6" height="2"></rect><rect x="18" y="30" width="2" height="4"></rect><path d="M6,8H57.9A5.017,5.017,0,0,0,53,4H7A1,1,0,0,0,6,5Z"></path><path d="M15,56h8a9.014,9.014,0,0,0,9-9V36H6V47A9.014,9.014,0,0,0,15,56Z"></path><rect x="6" y="10" width="52" height="2"></rect><rect x="6" y="14" width="52" height="4"></rect><path d="M58,20H41.9L38.11,56H58ZM49,30a3,3,0,1,1-3,3A3,3,0,0,1,49,30Zm0,20a6,6,0,1,1,6-6A6.006,6.006,0,0,1,49,50Z"></path><circle cx="49" cy="44" r="4"></circle></g></svg>