<svg xmlns="http://www.w3.org/2000/svg" viewBox="0 0 64 64" x="0px" y="0px"><g data-name="File Business Growth Up"><polygon points="42 49 45 49 45 38.414 42 41.414 42 49"></polygon><path d="M50,51a1,1,0,0,1-1-1V32a1,1,0,0,1,1-1h3V30H52V26.414L41.707,36.707A1,1,0,0,1,41,37H20.414L11,46.414V59a1,1,0,0,0,1,1H52a1,1,0,0,0,1-1V51ZM20,50a1,1,0,0,1-1,1H15a1,1,0,0,1-1-1V46a1,1,0,0,1,.293-.707l4-4A1,1,0,0,1,20,42Zm9,0a1,1,0,0,1-1,1H23a1,1,0,0,1-1-1V40a1,1,0,0,1,1-1h5a1,1,0,0,1,1,1Zm9,0a1,1,0,0,1-1,1H32a1,1,0,0,1-1-1V40a1,1,0,0,1,1-1h5a1,1,0,0,1,1,1Zm9,0a1,1,0,0,1-1,1H41a1,1,0,0,1-1-1V41a1,1,0,0,1,.293-.707l5-5A1,1,0,0,1,47,36Z"></path><rect x="33" y="41" width="3" height="8"></rect><rect x="24" y="41" width="3" height="8"></rect><polygon points="16 49 18 49 18 44.414 16 46.414 16 49"></polygon><path d="M19.293,35.293A1,1,0,0,1,20,35H40.586l10-10H47V23h6V12.846a1.172,1.172,0,0,0-.292-.7L48.877,8.3,46,5.418V11a1,1,0,0,0,1,1h4v2H47a3,3,0,0,1-3-3V4H12a1,1,0,0,0-1,1V43.586ZM25,28H19V26h6ZM19,8H39v2H19ZM15,8h2v2H15Zm0,4H39v2H15Zm0,10H25v2H15Zm0,4h2v2H15Z"></path><rect x="51" y="33" width="3" height="16"></rect></g></svg>