<svg xmlns="http://www.w3.org/2000/svg" viewBox="0 0 64 64" x="0px" y="0px"><g><path d="M33,42H31a7.008,7.008,0,0,0-7,7v6a7.008,7.008,0,0,0,7,7h2a7.008,7.008,0,0,0,7-7V49A7.008,7.008,0,0,0,33,42Zm0,18H31a5.006,5.006,0,0,1-5-5V52H38v3A5.006,5.006,0,0,1,33,60Zm5-10H26V49a5.006,5.006,0,0,1,5-5h2a5.006,5.006,0,0,1,5,5Z"></path><rect x="31" y="46" width="2" height="2"></rect><path d="M47,36H17V34H15v3a1,1,0,0,0,1,1H31v2h2V38H48a1,1,0,0,0,1-1V34H47Z"></path><rect x="47" y="30" width="2" height="2"></rect><rect x="15" y="30" width="2" height="2"></rect><path d="M15,28h2V25.949a12,12,0,1,0-2,0ZM6,14A10,10,0,1,1,16,24,10.011,10.011,0,0,1,6,14Z"></path><rect x="11" y="32" width="2" height="6"></rect><rect x="11" y="28" width="2" height="2"></rect><rect x="51" y="32" width="2" height="6"></rect><rect x="51" y="28" width="2" height="2"></rect><rect x="42" y="51" width="4" height="2"></rect><rect x="41.379" y="45.5" width="4.243" height="2" transform="translate(-20.14 44.379) rotate(-45)"></rect><rect x="42.5" y="55.379" width="2" height="4.243" transform="translate(-27.918 47.601) rotate(-45)"></rect><rect x="18" y="51" width="4" height="2"></rect><rect x="19.5" y="44.379" width="2" height="4.243" transform="translate(-26.876 28.115) rotate(-45)"></rect><rect x="18.379" y="56.5" width="4.243" height="2" transform="translate(-34.654 31.337) rotate(-45)"></rect><rect x="7.515" y="13" width="16.971" height="2" transform="translate(-5.213 15.414) rotate(-45)"></rect><path d="M20,15a3,3,0,1,0,3,3A3,3,0,0,0,20,15Zm0,4a1,1,0,1,1,1-1A1,1,0,0,1,20,19Z"></path><path d="M12,13a3,3,0,1,0-3-3A3,3,0,0,0,12,13Zm0-4a1,1,0,1,1-1,1A1,1,0,0,1,12,9Z"></path><rect x="39.515" y="13" width="16.971" height="2" transform="translate(4.159 38.042) rotate(-45)"></rect><path d="M52,15a3,3,0,1,0,3,3A3,3,0,0,0,52,15Zm0,4a1,1,0,1,1,1-1A1,1,0,0,1,52,19Z"></path><path d="M44,13a3,3,0,1,0-3-3A3,3,0,0,0,44,13Zm0-4a1,1,0,1,1-1,1A1,1,0,0,1,44,9Z"></path><path d="M48,2a12,12,0,0,0-1,23.949V28h2V25.949A12,12,0,0,0,48,2Zm0,22A10,10,0,1,1,58,14,10.011,10.011,0,0,1,48,24Z"></path></g></svg>