<svg xmlns="http://www.w3.org/2000/svg" viewBox="0 0 64 64" x="0px" y="0px"><title>Files-Writing-Document-Archive-Pencil</title><g><path d="M47,16H46V15a3,3,0,0,0-3-3H25V10a1,1,0,0,0-1-1H20.721l-.256-1.385A3,3,0,0,0,19,2H17a3,3,0,0,0-1.465,5.615L15.279,9H12a1,1,0,0,0-1,1v2H9a3,3,0,0,0-3,3V55a3,3,0,0,0,3,3h1v1a3,3,0,0,0,3,3H47a3,3,0,0,0,3-3V19A3,3,0,0,0,47,16ZM36,14h2v3.7l-.168-.252a1.039,1.039,0,0,0-1.664,0L36,17.7ZM23,11v4H21.832l-.741-4Zm-3.2,4H16.2l.741-4h2.114ZM17.491,6.393a1,1,0,0,0-.655-.413A1,1,0,0,1,17,4h2a1,1,0,0,1,.164,1.98,1,1,0,0,0-.82,1.169L18.687,9H17.313l.343-1.851A1,1,0,0,0,17.491,6.393ZM13,11h1.909l-.741,4H13ZM8,55V15a1,1,0,0,1,1-1h2v2a1,1,0,0,0,1,1H24a1,1,0,0,0,1-1V14h9v7a1,1,0,0,0,1.832.555L37,19.8l1.168,1.752A1,1,0,0,0,40,21V14h3a1,1,0,0,1,1,1V55a1,1,0,0,1-1,1H9A1,1,0,0,1,8,55Zm40,4a1,1,0,0,1-1,1H13a1,1,0,0,1-1-1V58H43a3,3,0,0,0,3-3V18h1a1,1,0,0,1,1,1Z"></path><rect x="12" y="28" width="18" height="2"></rect><rect x="12" y="24" width="4" height="2"></rect><rect x="18" y="24" width="12" height="2"></rect><rect x="12" y="34" width="12" height="2"></rect><rect x="26" y="34" width="14" height="2"></rect><rect x="12" y="38" width="18" height="2"></rect><rect x="32" y="38" width="8" height="2"></rect><rect x="12" y="42" width="28" height="2"></rect><rect x="12" y="46" width="12" height="2"></rect><rect x="26" y="46" width="6" height="2"></rect><rect x="34" y="46" width="6" height="2"></rect><rect x="12" y="50" width="6" height="2"></rect><rect x="20" y="50" width="20" height="2"></rect><path d="M55,16a3,3,0,0,0-3,3V53a1,1,0,0,0,.052.316l2,6a1,1,0,0,0,1.9,0l2-6A1,1,0,0,0,58,53V19A3,3,0,0,0,55,16Zm0,2a1,1,0,0,1,1,1v3H54V19A1,1,0,0,1,55,18ZM54,51V27h2V51Zm0-26V24h2v1Zm1,30.838L54.054,53h1.892Z"></path></g></svg>