<svg xmlns="http://www.w3.org/2000/svg" viewBox="0 0 64 64" x="0px" y="0px"><g data-name="Online Payment-Online Shopping-Smartphone-Basket-Credit Card"><path d="M33.69,23.71A.949.949,0,0,0,34,23a1,1,0,0,0-1-1H30.9l-.36,2H33A.928.928,0,0,0,33.69,23.71Z"></path><path d="M29.76,16.98c0-.06.01-.12.01-.18a1,1,0,0,0-.83-.98,1.02,1.02,0,0,0-.74.16,1,1,0,0,0-.41.65L26.48,24h2.03Z"></path><path d="M32,43V59a1,1,0,0,0,1,1H59a1,1,0,0,0,1-1V43a1,1,0,0,0-1-1H33A1,1,0,0,0,32,43Zm8,13H38V54h2Zm4,0H42V54h2Zm11,2H52a3,3,0,0,1,0-6h3a3,3,0,0,1,0,6Zm1-14h2v2H56Zm-4,0h2v2H52Zm-4,0h2v2H48Zm0,4H58v2H48ZM34,45a1,1,0,0,1,1-1h8a1,1,0,0,1,1,1v6a1,1,0,0,1-1,1H35a1,1,0,0,1-1-1Zm0,9h2v2H34Z"></path><path d="M4,10H46V7a3,3,0,0,0-3-3H7A3,3,0,0,0,4,7ZM14,6h2V8H14ZM10,6h2V8H10ZM6,6H8V8H6Z"></path><path d="M55,54H52a1,1,0,0,0,0,2h3a1,1,0,0,0,0-2Z"></path><rect x="40" y="46" width="2" height="4"></rect><rect x="36" y="46" width="2" height="4"></rect><polygon points="24.45 24 24.81 22 17.2 22 17.55 24 24.45 24"></polygon><path d="M13.49,24h2.03l-1.3-7.37a1.05,1.05,0,0,0-.42-.65,1.005,1.005,0,0,0-1.57.82,1.366,1.366,0,0,0,.02.19Z"></path><path d="M4,12V43a3.009,3.009,0,0,0,3,3H30V43a3.009,3.009,0,0,1,3-3H46V12ZM35.11,25.13A2.954,2.954,0,0,1,33,26h-.07l-.72,9.3A5,5,0,0,1,27.22,40H14.78a5,5,0,0,1-4.99-4.72L9.07,26H9a3.009,3.009,0,0,1-3-3,3,3,0,0,1,3-3h1.75l-.47-2.68a2.292,2.292,0,0,1-.05-.52,3.01,3.01,0,0,1,2.49-2.95,2.921,2.921,0,0,1,2.22.49,3,3,0,0,1,1.25,1.95L16.84,20h8.32l.66-3.71a2.945,2.945,0,0,1,1.24-1.95,2.9,2.9,0,0,1,2.23-.48,2.992,2.992,0,0,1,2.48,2.94,2.848,2.848,0,0,1-.04.51L31.25,20H33a3.009,3.009,0,0,1,3,3A2.971,2.971,0,0,1,35.11,25.13Z"></path><path d="M11.08,26l.71,9.14A3,3,0,0,0,14.78,38H27.22a2.994,2.994,0,0,0,2.99-2.83L30.92,26ZM17,36H15V28h2Zm5,0H20V28h2Zm5,0H25V28h2Z"></path><path d="M11.1,22H9a.928.928,0,0,0-.69.29A.949.949,0,0,0,8,23a1,1,0,0,0,1,1h2.46Z"></path></g></svg>