<svg xmlns="http://www.w3.org/2000/svg" viewBox="0 0 64 64" x="0px" y="0px"><g data-name="Handbag"><path d="M56.208,24.723A5,5,0,0,0,51.216,20H46V11a5.006,5.006,0,0,0-5-5H23a5.006,5.006,0,0,0-5,5v9H12.784a5,5,0,0,0-4.992,4.723L6.119,54.834a3,3,0,0,0,3,3.166H54.886a3,3,0,0,0,2.995-3.167Zm-10.582.113A1,1,0,0,1,44.639,26H41.361a1,1,0,0,1-.987-1.164L40.847,22h4.306Zm-22,0A1,1,0,0,1,22.639,26H19.361a1,1,0,0,1-.986-1.164L18.847,22h4.306ZM24,20V12H40v8Zm20-9v9H42V8.171A3.006,3.006,0,0,1,44,11Zm-4-1H24V8H40ZM20,11a3.006,3.006,0,0,1,2-2.829V20H20ZM12.784,22H16.82L16.4,24.507A3,3,0,0,0,19.361,28h3.278A3,3,0,0,0,25.6,24.507L25.18,22H38.819L38.4,24.507A3,3,0,0,0,41.361,28h3.278a3,3,0,0,0,2.96-3.493L47.181,22h4.035a3,3,0,0,1,3,2.834L54.61,32H9.39l.4-7.166A3,3,0,0,1,12.784,22ZM28,43a3,3,0,0,1-3,3H24V45a1,1,0,0,0-1-1H19a1,1,0,0,0-1,1v1H17a3,3,0,0,1-3-3V41a1,1,0,0,1,1-1H27a1,1,0,0,1,1,1Zm-6,3v2H20V46Zm-8,.974A4.948,4.948,0,0,0,17,48h1v1a1,1,0,0,0,1,1h4a1,1,0,0,0,1-1V48h1a4.948,4.948,0,0,0,3-1.026V56H14ZM50,43a3,3,0,0,1-3,3H46V45a1,1,0,0,0-1-1H41a1,1,0,0,0-1,1v1H39a3,3,0,0,1-3-3V41a1,1,0,0,1,1-1H49a1,1,0,0,1,1,1Zm-6,3v2H42V46Zm-8,.974A4.948,4.948,0,0,0,39,48h1v1a1,1,0,0,0,1,1h4a1,1,0,0,0,1-1V48h1a4.948,4.948,0,0,0,3-1.026V56H36Zm19.612,8.714a.991.991,0,0,1-.726.312H52V41a3,3,0,0,0-3-3H37a3,3,0,0,0-3,3V56H30V41a3,3,0,0,0-3-3H15a3,3,0,0,0-3,3V56H9.114a1,1,0,0,1-1-1.055L9.279,34H54.721l1.164,20.944A1,1,0,0,1,55.612,55.688Z"></path></g></svg>