<svg xmlns="http://www.w3.org/2000/svg" viewBox="0 0 64 64" x="0px" y="0px"><g><path d="M54.707,23.293A1,1,0,0,0,54,23H45a2,2,0,0,0-2,2V39a2,2,0,0,0,2,2H57a2,2,0,0,0,2-2V28a1,1,0,0,0-.293-.707ZM55.586,27H54V25.414ZM45,39V25h7v2a2,2,0,0,0,2,2h3V39Z"></path><rect x="47" y="31" width="8" height="2"></rect><rect x="47" y="35" width="8" height="2"></rect><rect x="47" y="27" width="2" height="2"></rect><path d="M58.707,6.293l-4-4A1,1,0,0,0,54,2H45a2,2,0,0,0-2,2V18a2,2,0,0,0,2,2H57a2,2,0,0,0,2-2V7A1,1,0,0,0,58.707,6.293ZM55.586,6H54V4.414ZM45,18V4h7V6a2,2,0,0,0,2,2h3V18Z"></path><rect x="47" y="10" width="8" height="2"></rect><rect x="47" y="14" width="8" height="2"></rect><rect x="47" y="6" width="2" height="2"></rect><path d="M54.707,44.293A1,1,0,0,0,54,44H45a2,2,0,0,0-2,2V60a2,2,0,0,0,2,2H57a2,2,0,0,0,2-2V49a1,1,0,0,0-.293-.707ZM55.586,48H54V46.414ZM45,60V46h7v2a2,2,0,0,0,2,2h3V60Z"></path><rect x="47" y="52" width="8" height="2"></rect><rect x="47" y="56" width="8" height="2"></rect><rect x="47" y="48" width="2" height="2"></rect><path d="M32,13V31H25v2h7V51a3,3,0,0,0,3,3h6V52H35a1,1,0,0,1-1-1V33h7V31H34V13a1,1,0,0,1,1-1h6V10H35A3,3,0,0,0,32,13Z"></path><path d="M22,18H19a1,1,0,0,0-.949.684L17.279,21h-.558l-.772-2.316A1,1,0,0,0,15,18H13a1,1,0,0,0-.949.684L11.279,21h-.558l-.772-2.316A1,1,0,0,0,9,18H6a1,1,0,0,0-1,1v4a1,1,0,0,0,.105.447l1.466,2.932A2.989,2.989,0,0,0,8,32h.78l-.727,3.634-2.91,4.851A1,1,0,0,0,5,41v3a2,2,0,0,0,2,2H21a2,2,0,0,0,2-2V41a1,1,0,0,0-.143-.515l-2.91-4.851L19.22,32H20a2.989,2.989,0,0,0,1.429-5.621L22.9,23.447A1,1,0,0,0,23,23V19A1,1,0,0,0,22,18ZM7,20H8.279l.772,2.316A1,1,0,0,0,10,23h2a1,1,0,0,0,.949-.684L13.721,20h.558l.772,2.316A1,1,0,0,0,16,23h2a1,1,0,0,0,.949-.684L19.721,20H21v2.764L19.382,26H8.618L7,22.764ZM7,44V42H21v2Zm13.234-4H7.766l1.8-3h8.868ZM17.78,35H10.22l.6-3h6.36ZM20,30H8a1,1,0,0,1,0-2H20a1,1,0,0,1,0,2Z"></path></g></svg>