<svg xmlns="http://www.w3.org/2000/svg" viewBox="0 0 64 64" x="0px" y="0px"><g><path d="M55,36H52V34h3a5.006,5.006,0,0,0,5-5V27a5.006,5.006,0,0,0-5-5H52V20h3a7.008,7.008,0,0,1,7,7v2A7.008,7.008,0,0,1,55,36Z"></path><path d="M26,14h2c0-.561.217-.8.707-1.291a3.479,3.479,0,0,0,0-5.413C28.217,6.806,28,6.565,28,6s.217-.8.707-1.294A3.565,3.565,0,0,0,30,2H28c0,.562-.217.8-.707,1.294A3.565,3.565,0,0,0,26,6,3.563,3.563,0,0,0,27.293,8.71C27.783,9.2,28,9.442,28,10s-.217.8-.707,1.29A3.562,3.562,0,0,0,26,14Z"></path><path d="M36,14h2c0-.561.217-.8.707-1.291a3.479,3.479,0,0,0,0-5.413C38.217,6.806,38,6.565,38,6s.217-.8.707-1.294A3.565,3.565,0,0,0,40,2H38c0,.562-.217.8-.707,1.294A3.565,3.565,0,0,0,36,6,3.563,3.563,0,0,0,37.293,8.71C37.783,9.2,38,9.442,38,10s-.217.8-.707,1.29A3.562,3.562,0,0,0,36,14Z"></path><path d="M16,14h2c0-.561.217-.8.707-1.291a3.479,3.479,0,0,0,0-5.413C18.217,6.806,18,6.565,18,6s.217-.8.707-1.294A3.565,3.565,0,0,0,20,2H18c0,.562-.217.8-.707,1.294A3.565,3.565,0,0,0,16,6,3.563,3.563,0,0,0,17.293,8.71C17.783,9.2,18,9.442,18,10s-.217.8-.707,1.29A3.562,3.562,0,0,0,16,14Z"></path><circle cx="17" cy="47" r="1"></circle><path d="M50,33V20H6V35c0,.578.037,1.158.091,1.737A14.981,14.981,0,0,1,30.256,54H31A19.021,19.021,0,0,0,50,35Z"></path><path d="M17,34A13,13,0,1,0,30,47,13.015,13.015,0,0,0,17,34Zm0,25A12,12,0,1,1,29,47,12.013,12.013,0,0,1,17,59Z"></path><path d="M17,37A10,10,0,1,0,27,47,10.011,10.011,0,0,0,17,37Zm0,13a3,3,0,0,1-3-3,2.962,2.962,0,0,1,.055-.545L11.3,44.866l1-1.732,2.76,1.594A2.981,2.981,0,0,1,16,44.184V39h2v5.184A2.993,2.993,0,0,1,17,50Z"></path></g></svg>