<svg xmlns="http://www.w3.org/2000/svg" viewBox="0 0 64 64" x="0px" y="0px"><g><path d="M10,32h1V30H10a6,6,0,0,1,0-12,5.914,5.914,0,0,1,.861.07,1.033,1.033,0,0,0,.8-.274A1.086,1.086,0,0,0,12,17a4.993,4.993,0,0,1,8.412-3.646,1,1,0,0,0,1.675-.606A9.993,9.993,0,0,1,40.82,9.29a1,1,0,0,0,1.6.226A5,5,0,0,1,51,13a1,1,0,0,0,1,1,8,8,0,0,1,0,16H45v2h7a10,10,0,0,0,.935-19.957A7.01,7.01,0,0,0,46,6a6.928,6.928,0,0,0-4.051,1.292,11.994,11.994,0,0,0-21.533,3.6A6.984,6.984,0,0,0,10.083,16H10a8,8,0,0,0,0,16Z"></path><rect x="47" y="12" width="2" height="2"></rect><rect x="43" y="12" width="2" height="2"></rect><path d="M56,22a4,4,0,0,1-4,4v2a6.006,6.006,0,0,0,6-6Z"></path><rect x="48" y="26" width="2" height="2"></rect><path d="M30,29H29V27H27v2H26a2,2,0,0,0-2,2v2a2,2,0,0,0,2,2h4v2H26V36H24v1a2,2,0,0,0,2,2h1v2h2V39h1a2,2,0,0,0,2-2V35a2,2,0,0,0-2-2H26V31h4v1h2V31A2,2,0,0,0,30,29Z"></path><path d="M28,23A11,11,0,1,0,39,34,11.013,11.013,0,0,0,28,23Zm0,20a9,9,0,1,1,9-9A9.011,9.011,0,0,1,28,43Z"></path><path d="M43.555,43.9l0,0a1,1,0,0,0,0-1.416L41.52,40.454a15.056,15.056,0,1,0-7.066,7.066l2.027,2.036a1,1,0,0,0,.708.294h0a1,1,0,0,0,.707-.293l0,0L49.213,60.87a4,4,0,0,0,5.657-5.657ZM15,34A13,13,0,1,1,28,47,13.015,13.015,0,0,1,15,34ZM36.265,46.505a15.1,15.1,0,0,0,4.24-4.24l.93.926-4.244,4.244ZM53.456,59.456a2,2,0,0,1-2.829,0L39.313,48.141l2.828-2.828L53.456,56.627A2,2,0,0,1,53.456,59.456Z"></path><polygon points="14 56 12 56 12 58 10 58 10 60 12 60 12 62 14 62 14 60 16 60 16 58 14 58 14 56"></polygon><rect x="12" y="52" width="2" height="2"></rect><rect x="12" y="48" width="2" height="2"></rect><polygon points="6 46 4 46 4 48 2 48 2 50 4 50 4 52 6 52 6 50 8 50 8 48 6 48 6 46"></polygon><rect x="4" y="42" width="2" height="2"></rect><rect x="4" y="38" width="2" height="2"></rect><rect x="12" y="44" width="2" height="2"></rect><polygon points="60 45 58 45 58 47 56 47 56 49 58 49 58 51 60 51 60 49 62 49 62 47 60 47 60 45"></polygon><rect x="58" y="41" width="2" height="2"></rect><rect x="58" y="37" width="2" height="2"></rect><rect x="58" y="33" width="2" height="2"></rect><rect x="51" y="34" width="2" height="6"></rect><rect x="51" y="42" width="2" height="2"></rect><rect x="51" y="46" width="2" height="2"></rect><rect x="21" y="51" width="2" height="6"></rect><rect x="21" y="59" width="2" height="2"></rect><rect x="28" y="53" width="2" height="5"></rect><rect x="28" y="60" width="2" height="2"></rect></g></svg>