<svg xmlns="http://www.w3.org/2000/svg" viewBox="0 0 64 64" x="0px" y="0px"><polygon points="39 37 39 35 39 33 32 33 25 33 25 35 25 37 32 37 39 37"></polygon><path d="M16,60V54H6v6H7V57a1,1,0,0,1,1-1h3a1,1,0,0,1,1,1v3Z"></path><polygon points="16.382 50 5.618 50 4.618 52 17.382 52 16.382 50"></polygon><rect x="9" y="58" width="1" height="2"></rect><path d="M37,60V54H27v6h1V57a1,1,0,0,1,1-1h3a1,1,0,0,1,1,1v3Z"></path><rect x="30" y="58" width="1" height="2"></rect><polygon points="37.382 50 26.618 50 25.618 52 38.382 52 37.382 50"></polygon><path d="M58,60V54H48v6h1V57a1,1,0,0,1,1-1h3a1,1,0,0,1,1,1v3Z"></path><rect x="51" y="58" width="1" height="2"></rect><polygon points="58.382 50 47.618 50 46.618 52 59.382 52 58.382 50"></polygon><path d="M53,34H41v2H52V46h2V35A1,1,0,0,0,53,34ZM31,39v6h2V39Zm0-14v6h2V25ZM11,34a1,1,0,0,0-1,1V46h2V36H23V34Z"></path><path d="M43,13H39.706a1,1,0,0,1-.958-1.286,6,6,0,1,0-11.555-3.2,1,1,0,0,1-.535.654,1.006,1.006,0,0,1-.845.011A1.96,1.96,0,0,0,25,9a1.973,1.973,0,0,0-1.874,2.667A1,1,0,0,1,22.184,13H21a4,4,0,0,0,0,8H43a4,4,0,0,0,0-8ZM27,19H25V17h2Zm4,0H29V17h2Zm0-8h2v2H31Zm4,8H33V17h2Zm0-8h2v2H35Zm4,8H37V17h2Z"></path><rect x="6" y="44" width="2" height="2"></rect><rect x="6" y="40" width="2" height="2"></rect><rect x="6" y="36" width="2" height="2"></rect><rect x="56" y="44" width="2" height="2"></rect><rect x="56" y="40" width="2" height="2"></rect><rect x="56" y="36" width="2" height="2"></rect><rect x="42" y="30" width="2" height="2"></rect><rect x="46" y="30" width="2" height="2"></rect><rect x="50" y="30" width="2" height="2"></rect><rect x="20" y="30" width="2" height="2"></rect><rect x="16" y="30" width="2" height="2"></rect><rect x="12" y="30" width="2" height="2"></rect></svg>