<svg xmlns="http://www.w3.org/2000/svg" viewBox="0 0 64 64" x="0px" y="0px"><g><polygon points="49.767 45 52.233 45 51 42.944 49.767 45"></polygon><rect x="49" y="47" width="4" height="11"></rect><rect x="38" y="38" width="12" height="2"></rect><polygon points="37.566 42 35.767 45 47.434 45 49.234 42 37.566 42"></polygon><polygon points="14.766 58 17.234 58 16 55.944 14.766 58"></polygon><rect x="35" y="47" width="12" height="11"></rect><path d="M36,35H34V32H24v3H22V32H20V58H33V46a1,1,0,0,1,.143-.515L36,40.723V37a1,1,0,0,1,1-1h1V32H36Z"></path><path d="M29,22a5,5,0,0,0-1.008.1A6.975,6.975,0,0,1,30,27v3h4V27A5.006,5.006,0,0,0,29,22Z"></path><polygon points="17.234 32 14.766 32 16 34.056 17.234 32"></polygon><path d="M14,55.39l1.143-1.905a1.039,1.039,0,0,1,1.714,0L18,55.39V34.61l-1.143,1.905a1,1,0,0,1-1.714,0L14,34.61Z"></path><path d="M18,27v3h4V27a6.975,6.975,0,0,1,2.008-4.9A5,5,0,0,0,18,27Z"></path><path d="M52,16a1,1,0,0,1-1-1,5,5,0,0,0-5-5,4.946,4.946,0,0,0-3.58,1.52,1.039,1.039,0,0,1-.86.29,1.026,1.026,0,0,1-.74-.52,9.991,9.991,0,0,0-18.73,3.46,1,1,0,0,1-1.68.6A4.995,4.995,0,0,0,12,19a1.088,1.088,0,0,1-.34.8,1.034,1.034,0,0,1-.8.27A5.605,5.605,0,0,0,10,20a6,6,0,0,0,0,12h2V31a1,1,0,0,1,1-1h3V27a7.008,7.008,0,0,1,7-7,6.884,6.884,0,0,1,3,.69A6.884,6.884,0,0,1,29,20a7.008,7.008,0,0,1,7,7v3h3a1,1,0,0,1,1,1v1H52a8,8,0,0,0,0-16Zm-7,0H43V14h2Zm2-2h2v2H47Zm3,16H48V28h2Zm2,0V28a4,4,0,0,0,4-4h2A6,6,0,0,1,52,30Z"></path><path d="M26,23.026A4.977,4.977,0,0,0,24,27v3h4V27A4.977,4.977,0,0,0,26,23.026Z"></path></g></svg>