<svg xmlns="http://www.w3.org/2000/svg" viewBox="0 0 64 64" x="0px" y="0px"><g data-name="Growth"><rect x="13.224" y="41.253" width="8" height="16" transform="translate(-15.808 8.862) rotate(-20.001)"></rect><path d="M36.732,53,58.15,40.634a1.983,1.983,0,0,0,1-1.734,2,2,0,0,0-3-1.731l-9.194,5.306A3.992,3.992,0,0,1,43,46H32V44H43a2,2,0,0,0,2-2,1.661,1.661,0,0,0-.116-.641,1.919,1.919,0,0,0-.472-.773A1.985,1.985,0,0,0,43,40H28.26l-6.669,3.71L24.972,53Z"></path><rect x="5.766" y="46.331" width="6" height="12" transform="translate(-17.37 6.155) rotate(-20.001)"></rect><path d="M37.618,23h2.939L38.55,17.649a.993.993,0,0,0-.55-.56V22a.982.982,0,0,1-.469.826Z"></path><path d="M36,9.185a2.951,2.951,0,0,0-.511-1.676C33.59,4.733,32.376,4,32,4s-1.59.733-3.488,3.508A2.95,2.95,0,0,0,28,9.185V21h3V15h2v6h3ZM32,12a3,3,0,1,1,3-3A3,3,0,0,1,32,12Z"></path><circle cx="32" cy="9" r="1"></circle><polygon points="30.721 24 33.279 24 33.613 23 30.387 23 30.721 24"></polygon><path d="M25.45,17.648,23.443,23h2.939l.087-.174A.982.982,0,0,1,26,22V17.089A.994.994,0,0,0,25.45,17.648Z"></path><rect x="31" y="30" width="2" height="6"></rect><rect x="35" y="28" width="2" height="6"></rect><rect x="27" y="28" width="2" height="6"></rect><path d="M41,27H39a7.008,7.008,0,0,0,7,7V32A5.006,5.006,0,0,1,41,27Z"></path><path d="M18,32v2a7.008,7.008,0,0,0,7-7H23A5.006,5.006,0,0,1,18,32Z"></path><path d="M48,9.414V22h2V9.414l2.293,2.293,1.414-1.414-4-4a1,1,0,0,0-1.414,0l-4,4,1.414,1.414Z"></path><path d="M54.707,21.707,56,20.414V26h2V20.414l1.293,1.293,1.414-1.414-3-3a1,1,0,0,0-1.414,0l-3,3Z"></path><path d="M14,9.414V22h2V9.414l2.293,2.293,1.414-1.414-4-4a1,1,0,0,0-1.414,0l-4,4,1.414,1.414Z"></path><rect x="56" y="28" width="2" height="2"></rect><path d="M6,20.414V26H8V20.414l1.293,1.293,1.414-1.414-3-3a1,1,0,0,0-1.414,0l-3,3,1.414,1.414Z"></path><rect x="6" y="28" width="2" height="2"></rect><rect x="48" y="24" width="2" height="2"></rect><rect x="14" y="24" width="2" height="2"></rect></g></svg>