<svg xmlns="http://www.w3.org/2000/svg" viewBox="0 0 64 64" x="0px" y="0px"><g data-name="Perfume-Bottle"><path d="M43.721,26.515l-7.721-6V16a1,1,0,0,0,.948-.684l2-6A1,1,0,0,0,39,9V7a1,1,0,0,0-.03-.243l-1-4A1,1,0,0,0,37,2H27a1,1,0,0,0-.97.757l-1,4A1,1,0,0,0,25,7V9a1,1,0,0,0,.052.316l2,6A1,1,0,0,0,28,16v4.511l-7.721,6a3.013,3.013,0,0,0-1.135,2.728l3.756,31A2,2,0,0,0,24.886,62H39.114A2,2,0,0,0,41.1,60.24l3.755-30.995A3.014,3.014,0,0,0,43.721,26.515ZM36.219,4l.5,2H27.281l.5-2ZM27,8.838V8H37v.838L35.279,14H28.721ZM21.508,28.094l8.106-6.3A1,1,0,0,0,30,21V16h4v5a1,1,0,0,0,.386.79l8.106,6.3a1,1,0,0,1,.378.91l-.484,4H21.613l-.484-4A1,1,0,0,1,21.508,28.094ZM21.856,35H42.144L40.69,47H23.311ZM39.114,60H24.887L23.553,49H40.447Z"></path></g></svg>