<svg xmlns="http://www.w3.org/2000/svg" viewBox="0 0 512 512" x="0px" y="0px"><g data-name="Love Letter"><path d="M301.255,133.49a39.731,39.731,0,0,0-28.283,11.716L256,162.177l-16.971-16.97a40,40,0,1,0-56.568,56.568l67.882,67.882a8,8,0,0,0,11.314,0l67.882-67.882a40,40,0,0,0-28.284-68.285Zm16.97,56.971L256,252.687l-62.225-62.226a24,24,0,1,1,33.941-33.94l22.627,22.626a8,8,0,0,0,11.314,0l22.627-22.626h0a24,24,0,1,1,33.94,33.941Z"></path><path d="M492.972,201.732,432,153.375V72a8,8,0,0,0-8-8H319.307L260.972,17.732a8,8,0,0,0-9.944,0L192.693,64H88a8,8,0,0,0-8,8v81.375L19.028,201.732A8,8,0,0,0,16,208V488a8,8,0,0,0,8,8H488a8,8,0,0,0,8-8V208A8,8,0,0,0,492.972,201.732ZM80,236.9,49.693,216H80ZM195.3,335.85,32,471V223.235ZM384,270l-80.111,55.247L261.1,289.837a8,8,0,0,0-10.2,0l-42.788,35.412L128,270V143.184A40.32,40.32,0,0,0,159.2,112h193.61A40.324,40.324,0,0,0,384,143.184ZM256,306.385,465.786,480H46.214Zm60.7,29.465L480,223.235V471ZM432,216h30.307L432,236.9Zm33.039-16H432V173.8ZM256,34.211,293.559,64H218.441ZM416,80V247.935l-16,11.034V136a8,8,0,0,0-8-8,24.119,24.119,0,0,1-23.928-22.1c-.048-.583-.072-1.222-.072-1.9a8,8,0,0,0-8-8H152a8,8,0,0,0-8,8c0,.679-.024,1.318-.074,1.925A24.114,24.114,0,0,1,120,128a8,8,0,0,0-8,8V258.969L96,247.935V80ZM80,200H46.961L80,173.8Z"></path></g></svg>