<svg xmlns="http://www.w3.org/2000/svg" viewBox="0 0 64 64" x="0px" y="0px"><g data-name="Files"><path d="M37.2,8.4a1.036,1.036,0,0,1,1.6,0L40,10V4H36v6Z"></path><path d="M7,60H45a1,1,0,0,0,1-1V5a1,1,0,0,0-1-1H42v9a1,1,0,0,1-.684.949A1.019,1.019,0,0,1,41,14a1,1,0,0,1-.8-.4L38,10.667,35.8,13.6A1,1,0,0,1,34,13V4H12v8a2,2,0,0,0,4,0V7h2v5a4,4,0,0,1-8,0V4H7A1,1,0,0,0,6,5V59A1,1,0,0,0,7,60ZM32,42H26V40h6Zm10,6H34V46h8Zm0-6H34V40h8Zm0-8H32V32H42Zm0-4H26V28H42ZM30,26V24h8v2Zm12,0H40V24h2Zm-8-6h8v2H34Zm-2,2H30V20h2ZM22,10h8v2H22Zm0,4h8v2H22Zm-6,6H28v2H16Zm-6,0h4v2H10Zm0,4H28v2H10Zm0,4H24v2H10Zm0,4H30v2H10Zm0,4H42v2H10Zm0,4H24v2H10Z"></path><path d="M51,4H47.816A2.966,2.966,0,0,1,48,5V59a2.966,2.966,0,0,1-.184,1H51a1,1,0,0,0,1-1V5A1,1,0,0,0,51,4Z"></path><path d="M53.816,60H57a1,1,0,0,0,1-1V5a1,1,0,0,0-1-1H53.816A2.966,2.966,0,0,1,54,5V59A2.966,2.966,0,0,1,53.816,60Z"></path></g></svg>