<svg xmlns="http://www.w3.org/2000/svg" viewBox="0 0 64 64" x="0px" y="0px"><g><path d="M32,19a5.047,5.047,0,0,1,.982.1A.821.821,0,0,0,33,19a1,1,0,0,0-2,0,.821.821,0,0,0,.018.1A5.047,5.047,0,0,1,32,19Z"></path><path d="M36,29H28a1,1,0,0,0,0,2h8a1,1,0,0,0,0-2Z"></path><path d="M32,34a1,1,0,0,0,1-1H31A1,1,0,0,0,32,34Z"></path><path d="M35,24a3,3,0,0,0-6,0v3h6Z"></path><path d="M60,42H4v3a3,3,0,0,0,3,3H57a3,3,0,0,0,3-3Zm-4,4H54V44h2Z"></path><polygon points="25.883 50 25.133 56 38.867 56 38.117 50 25.883 50"></polygon><path d="M20,59a1,1,0,0,0,1,1H43a1,1,0,0,0,0-2H21A1,1,0,0,0,20,59Z"></path><path d="M60,7a3,3,0,0,0-3-3H7A3,3,0,0,0,4,7v3H60ZM10,8H8V6h2Zm4,0H12V6h2Zm4,0H16V6h2Z"></path><path d="M60,12H4V40H60ZM16.316,32.949l-.632-1.9,6-2,.632,1.9ZM16,27V25h6v2Zm5.684-4.051-6-2,.632-1.9,6,2ZM36,33H35a3,3,0,0,1-6,0H28a2.993,2.993,0,0,1-1-5.816V24a4.992,4.992,0,0,1,2.15-4.1,3,3,0,1,1,5.7,0A4.992,4.992,0,0,1,37,24v3.184A2.993,2.993,0,0,1,36,33Zm11.684-.051-6-2,.632-1.9,6,2ZM42,27V25h6v2Zm.316-4.051-.632-1.9,6-2,.632,1.9Z"></path></g></svg>