<svg xmlns="http://www.w3.org/2000/svg" viewBox="0 0 64 64" x="0px" y="0px"><g data-name="Flash Light"><path d="M44.85,6.423a1,1,0,0,0-1.414,0l-4.244,4.243a1.055,1.055,0,0,0-.079.118c-.021.028-.053.044-.071.074l-2.058,3.431L4.666,46.606a2,2,0,0,0,0,2.829L3.251,50.849a2,2,0,0,0,0,2.829l7.071,7.071a2,2,0,0,0,2.828,0l1.415-1.415h0a2,2,0,0,0,2.829,0L49.711,27.016l3.431-2.058c.03-.018.047-.051.075-.073a.983.983,0,0,0,.117-.077l4.243-4.243a1,1,0,0,0,0-1.414ZM51.014,23.9l-1.767,1.06L39.037,14.753,40.1,12.985ZM11.737,59.335h0L4.665,52.263,6.08,50.849l7.071,7.071Zm4.243-1.414-9.9-9.9,31.7-31.7,9.9,9.9ZM52.627,22.687,41.313,11.373l2.83-2.829L55.456,19.858Z"></path><rect x="9.186" y="40.864" width="17.414" height="2" transform="translate(-24.362 24.915) rotate(-45.001)"></rect><rect x="13.429" y="45.107" width="17.414" height="2" transform="translate(-26.119 29.157) rotate(-45)"></rect><rect x="51.748" y="8.251" width="6" height="2" transform="translate(9.494 41.423) rotate(-45)"></rect><rect x="56.076" y="13.201" width="5.83" height="2" transform="translate(-1.683 14.731) rotate(-14.036)"></rect><rect x="46.883" y="4.009" width="5.831" height="1.999" transform="translate(32.851 52.102) rotate(-75.95)"></rect></g></svg>