<svg xmlns="http://www.w3.org/2000/svg" viewBox="0 0 64 64" x="0px" y="0px"><g><path d="M28.53,27.366c-2.315,2.3-3.276,4.289-2.788,5.134s2.693,1.006,5.856.149c-.2-1.046-.341-2.143-.441-3.258C30.21,28.731,29.33,28.052,28.53,27.366Z"></path><path d="M30.021,26q.471.4.994.8C31.009,26.537,31,26.268,31,26s.008-.532.013-.8Q30.493,25.605,30.021,26Z"></path><path d="M34,18h-.006c.983.349,1.995.769,3.016,1.248,1.017-.472,2.04-.9,3.046-1.25-.839-3.167-2.078-5-3.056-5a1.114,1.114,0,0,0-.6.219A2.97,2.97,0,0,1,37,15,3,3,0,0,1,34,18Z"></path><circle cx="34" cy="15" r="1"></circle><path d="M40,20.8c.231.134.457.273.684.411q-.087-.648-.2-1.251-.578.207-1.181.455C39.538,20.547,39.769,20.67,40,20.8Z"></path><path d="M31.149,22.631c.1-1.142.247-2.246.442-3.291-.54-.147-1.07-.276-1.575-.368-2.644-.485-3.94-.044-4.27.528a1.448,1.448,0,0,0-.042,1.1,10.412,10.412,0,0,0,2.83,4.049C29.345,23.955,30.228,23.278,31.149,22.631Z"></path><path d="M33.31,21.219c.23-.14.458-.281.69-.415s.469-.261.7-.39q-.6-.249-1.194-.463C33.436,20.365,33.368,20.786,33.31,21.219Z"></path><path d="M7,50.105a6.988,6.988,0,0,1,4-2.025V36.1A5.009,5.009,0,0,0,7,41Z"></path><path d="M57,50H12a5,5,0,0,0,0,10H57V58H13a3,3,0,0,1,0-6H57Z"></path><path d="M12,55a1,1,0,0,0,1,1H57V54H13A1,1,0,0,0,12,55Z"></path><path d="M7,36.111a6.975,6.975,0,0,1,4-2.031V19.1A5.009,5.009,0,0,0,7,24Z"></path><path d="M7,19.111a6.975,6.975,0,0,1,4-2.031V4.1A5.009,5.009,0,0,0,7,9Z"></path><rect x="13" y="4" width="2" height="44"></rect><path d="M43.977,26c-.32-.269-.648-.536-.991-.8.005.268.014.536.014.8s-.009.532-.014.8Q43.505,26.4,43.977,26Z"></path><path d="M45.463,24.64c2.32-2.308,3.284-4.294,2.8-5.14-.267-.463-1.046-.723-2.213-.723a14.489,14.489,0,0,0-3.642.577c.2,1.048.341,2.148.441,3.266C43.78,23.275,44.659,23.952,45.463,24.64Z"></path><path d="M39,22.535c-.665-.384-1.332-.738-2-1.071-.654.328-1.319.677-2,1.072s-1.32.8-1.93,1.2c-.045.744-.07,1.5-.07,2.265,0,.79.029,1.543.073,2.274q.91.6,1.927,1.19c.666.385,1.333.739,2,1.072.654-.327,1.319-.678,2-1.072s1.318-.795,1.927-1.2C40.971,27.538,41,26.788,41,26s-.029-1.54-.073-2.269C40.305,23.32,39.662,22.919,39,22.535ZM37,29a3,3,0,1,1,3-3A3,3,0,0,1,37,29Z"></path><path d="M45,29a2.979,2.979,0,0,1,.488-1.63l-.022-.022c-.813.7-1.7,1.378-2.622,2.026-.1,1.124-.245,2.23-.443,3.283.543.149,1.076.279,1.583.371,2.645.485,3.94.044,4.27-.528a1.061,1.061,0,0,0,.115-.537A2.9,2.9,0,0,1,45,29Z"></path><circle cx="48" cy="29" r="1"></circle><path d="M39.291,31.584q.6.249,1.2.464.11-.609.2-1.264c-.228.138-.455.279-.685.412S39.527,31.454,39.291,31.584Z"></path><path d="M34,31.2c-.232-.134-.457-.271-.684-.408q.088.649.2,1.253.578-.208,1.186-.457C34.466,31.455,34.232,31.331,34,31.2Z"></path><path d="M57,4H17V48H57ZM49.985,33.5c-.491.851-1.577,1.734-3.965,1.734A13.421,13.421,0,0,1,43.626,35c-.538-.1-1.1-.234-1.672-.389C40.967,38.3,39.3,41,37,41s-3.971-2.7-4.958-6.408a16.027,16.027,0,0,1-4.07.625c-1.839,0-3.268-.514-3.963-1.717-1.148-1.989.351-4.781,3.057-7.483a11.976,11.976,0,0,1-3.295-4.9,3.338,3.338,0,0,1,.245-2.62c.631-1.093,2.249-2.241,6.358-1.493.532.1,1.088.231,1.653.383l.033-.118A2.987,2.987,0,0,1,34,12a3.016,3.016,0,0,1,.649.075A3.35,3.35,0,0,1,37,11c2.3,0,3.972,2.705,4.958,6.411,3.7-1,6.882-.906,8.033,1.089s-.352,4.783-3.06,7.486c.057.056.108.113.163.169A2.959,2.959,0,0,1,48,26a3,3,0,0,1,3,3,2.973,2.973,0,0,1-.753,1.967A3.326,3.326,0,0,1,49.985,33.5Z"></path><path d="M33.943,34c.838,3.17,2.079,5,3.057,5s2.213-1.825,3.052-4.982c-1-.352-2.022-.778-3.058-1.263C35.975,33.228,34.95,33.644,33.943,34Z"></path><circle cx="37" cy="26" r="1"></circle></g></svg>