<svg xmlns="http://www.w3.org/2000/svg" viewBox="0 0 64 64" x="0px" y="0px"><g><path d="M61.944,60.67l-14-40a1,1,0,0,0-1.886,0L40.34,37.01,33,16.825V11h9a1,1,0,0,0,.832-1.555L41.2,7l1.63-2.445A1,1,0,0,0,42,3H33V2H31V16.825L23.66,37.01,17.943,20.67a1,1,0,0,0-1.886,0l-14,40A1,1,0,0,0,3,62H61a1,1,0,0,0,.944-1.33ZM47,24.026l3.889,11.113L50,36.333,47.789,33.4a1,1,0,0,0-.8-.4h0a1,1,0,0,0-.8.4L44,36.329l-.888-1.188ZM36.017,30.972,35,32.334,32.789,29.4a1,1,0,0,0-.8-.4h0a1,1,0,0,0-.8.4L29,32.33l-1.017-1.358L32,19.926ZM40.132,5l-.964,1.445a1,1,0,0,0,0,1.11L40.132,9H33V5ZM17,24.026l3.888,11.115L20,36.329,17.811,33.4a1,1,0,0,0-.8-.4h0a1,1,0,0,0-.8.4L14,36.333l-.892-1.194ZM12.314,37.414,13.2,38.6a1,1,0,0,0,.8.4h0a1,1,0,0,0,.8-.4l2.208-2.935L19.2,38.6a1.036,1.036,0,0,0,1.6,0l.883-1.182.9,2.563L15.3,60H4.409ZM17.428,60l9.739-26.782L28.2,34.6a1.036,1.036,0,0,0,1.6,0l2.192-2.932L34.2,34.6a1,1,0,0,0,.8.4h0a1,1,0,0,0,.8-.4l1.032-1.381L46.572,60ZM48.7,60,41.42,39.98l.9-2.563L43.2,38.6a1,1,0,0,0,1.6,0l2.192-2.932L49.2,38.6a1,1,0,0,0,.8.4h0a1,1,0,0,0,.8-.4l.885-1.185L59.591,60Z"></path></g></svg>