<svg xmlns="http://www.w3.org/2000/svg" viewBox="0 0 64 64" x="0px" y="0px"><g><path d="M51,36H41a2,2,0,0,0-2,2v2a1.978,1.978,0,0,0,.278,1A1.978,1.978,0,0,0,39,42v2a1.978,1.978,0,0,0,.278,1A1.978,1.978,0,0,0,39,46a2,2,0,0,0-2-2H33V35.364a6.851,6.851,0,0,0,1.386.143A6.64,6.64,0,0,0,38.4,34.17a6.747,6.747,0,0,0,2.561-6.349,1,1,0,0,0-.585-.773,6.751,6.751,0,0,0-6.806.744,6.474,6.474,0,0,0-.571.5v-1.35a9,9,0,1,0-2,0v5.226a6.527,6.527,0,0,0-1.446-1.084,6.75,6.75,0,0,0-6.842.239,1,1,0,0,0-.468.849,6.752,6.752,0,0,0,3.446,5.916,6.6,6.6,0,0,0,3.192.817A6.82,6.82,0,0,0,31,38.552V44H27a2,2,0,0,0-2,2v2a1.978,1.978,0,0,0,.278,1A1.978,1.978,0,0,0,25,50a2,2,0,0,0-2-2H13a2,2,0,0,0-2,2v2a1.978,1.978,0,0,0,.278,1A1.978,1.978,0,0,0,11,54v2a1.978,1.978,0,0,0,.278,1A1.978,1.978,0,0,0,11,58v2a2,2,0,0,0,2,2H23a2,2,0,0,0,2-2,2,2,0,0,0,2,2H37a2,2,0,0,0,2-2,2,2,0,0,0,2,2H51a2,2,0,0,0,2-2V58a1.978,1.978,0,0,0-.278-1A1.978,1.978,0,0,0,53,56V54a1.978,1.978,0,0,0-.278-1A1.978,1.978,0,0,0,53,52V50a1.978,1.978,0,0,0-.278-1A1.978,1.978,0,0,0,53,48V46a1.978,1.978,0,0,0-.278-1A1.978,1.978,0,0,0,53,44V42a1.978,1.978,0,0,0-.278-1A1.978,1.978,0,0,0,53,40V38A2,2,0,0,0,51,36ZM34.778,29.387a4.728,4.728,0,0,1,4.253-.711A4.642,4.642,0,0,1,33,33.3v-.858A4.671,4.671,0,0,1,34.778,29.387ZM25,18a7,7,0,1,1,7,7A7.008,7.008,0,0,1,25,18Zm1.656,18.336a4.72,4.72,0,0,1-2.378-3.6,4.646,4.646,0,0,1,6.688,3.69A4.726,4.726,0,0,1,26.656,36.336ZM41,38H51v2H41Zm10,6H41V42H51Zm0,4H41V46H51Zm0,4H41V50H51Zm0,4H41V54H51ZM27,50H37v2H27Zm0,4H37v2H27Zm12.278-5A1.978,1.978,0,0,0,39,50a1.978,1.978,0,0,0-.278-1A1.978,1.978,0,0,0,39,48,1.978,1.978,0,0,0,39.278,49Zm0,4A1.978,1.978,0,0,0,39,54a1.978,1.978,0,0,0-.278-1A1.978,1.978,0,0,0,39,52,1.978,1.978,0,0,0,39.278,53ZM27,46H37v2H27Zm-1.722,7A1.978,1.978,0,0,0,25,54a1.978,1.978,0,0,0-.278-1A1.978,1.978,0,0,0,25,52,1.978,1.978,0,0,0,25.278,53ZM13,54H23v2H13Zm0-4H23v2H13ZM23,60H13V58H23Zm1.722-3A1.978,1.978,0,0,0,25,56a1.978,1.978,0,0,0,.278,1A1.978,1.978,0,0,0,25,58,1.978,1.978,0,0,0,24.722,57ZM37,60H27V58H37Zm1.722-3A1.978,1.978,0,0,0,39,56a1.978,1.978,0,0,0,.278,1A1.978,1.978,0,0,0,39,58,1.978,1.978,0,0,0,38.722,57ZM51,60H41V58H51Z"></path><path d="M33,24V23h1a2,2,0,0,0,2-2V19a2,2,0,0,0-2-2H30V15h4v1h2V15a2,2,0,0,0-2-2H33V12H31v1H30a2,2,0,0,0-2,2v2a2,2,0,0,0,2,2h4v2H30V20H28v1a2,2,0,0,0,2,2h1v1Z"></path><rect x="10" y="21" width="2" height="2"></rect><rect x="12" y="23" width="2" height="2"></rect><rect x="10" y="25" width="2" height="2"></rect><rect x="8" y="23" width="2" height="2"></rect><rect x="51" y="9" width="2" height="2"></rect><rect x="53" y="11" width="2" height="2"></rect><rect x="51" y="13" width="2" height="2"></rect><rect x="49" y="11" width="2" height="2"></rect><rect x="47" y="24" width="2" height="2"></rect><rect x="49" y="26" width="2" height="2"></rect><rect x="47" y="28" width="2" height="2"></rect><rect x="45" y="26" width="2" height="2"></rect></g></svg>