<svg xmlns="http://www.w3.org/2000/svg" viewBox="0 0 64 64" x="0px" y="0px"><g data-name="Banking-Credit Card-Smartphone-Online-Payment"><rect x="24" y="45" width="4" height="2"></rect><rect x="23" y="49" width="6" height="2"></rect><path d="M40,32H34a1,1,0,0,0-1,1v6a1,1,0,0,0,1,1h6a1,1,0,0,0,1-1V33A1,1,0,0,0,40,32Zm-1,6H35V34h4Z"></path><path d="M12,32a1,1,0,0,0-1,1v6a1,1,0,0,0,1,1h6a1,1,0,0,0,1-1V33a1,1,0,0,0-1-1Zm5,6H13V34h4Z"></path><path d="M48,26v2H4V24H26V22H7V20H26V18H12.3l6-4H26V12H18a.967.967,0,0,0-.55.17L8.7,18H6a1,1,0,0,0-1,1v3H3a1,1,0,0,0-1,1v6a1,1,0,0,0,1,1H7V42H6a1,1,0,0,0-1,1v3H3a1,1,0,0,0-1,1v6a1,1,0,0,0,1,1H40V52H33.82l-.8-4H40V46H32.62l-.4-2H40V42H31V33a1,1,0,0,0-1-1H22a1,1,0,0,0-1,1v9H9V30H49a1,1,0,0,0,1-1V26ZM18.18,52H4V48H18.98ZM23,34h6v8H23ZM21.82,44h8.36l1.6,8H20.22Zm-2.04,0-.4,2H7V44Z"></path><path d="M57,32H47a5.006,5.006,0,0,0-5,5V57a5.006,5.006,0,0,0,5,5H57a5.006,5.006,0,0,0,5-5V37A5.006,5.006,0,0,0,57,32Zm3,25a3,3,0,0,1-3,3H47a3,3,0,0,1-3-3V37a3,3,0,0,1,3-3H57a3,3,0,0,1,3,3Z"></path><rect x="50" y="36" width="4" height="2"></rect><rect x="46" y="36" width="2" height="2"></rect><rect x="50" y="56" width="4" height="2"></rect><rect x="51" y="50" width="2" height="2"></rect><path d="M48.465,47.465l1.414,1.414a3.072,3.072,0,0,1,4.242,0l1.414-1.414a5,5,0,0,0-7.07,0Z"></path><path d="M45.636,44.636,47.05,46.05a7.009,7.009,0,0,1,9.9,0l1.414-1.414A9.012,9.012,0,0,0,45.636,44.636Z"></path><path d="M31,24H57a3,3,0,0,0,3-3V5a3,3,0,0,0-3-3H31a3,3,0,0,0-3,3V21A3,3,0,0,0,31,24Zm26-2H31a1,1,0,0,1-1-1V20H58v1A1,1,0,0,1,57,22ZM30,18V16H58v2ZM31,4H57a1,1,0,0,1,1,1v9H30V5A1,1,0,0,1,31,4Z"></path><path d="M33,12h6a1,1,0,0,0,1-1V7a1,1,0,0,0-1-1H33a1,1,0,0,0-1,1v4A1,1,0,0,0,33,12Zm1-4h4v2H34Z"></path><rect x="54" y="7" width="2" height="4"></rect><rect x="50" y="7" width="2" height="4"></rect><rect x="46" y="7" width="2" height="4"></rect></g></svg>