<svg xmlns="http://www.w3.org/2000/svg" viewBox="0 0 64 64" x="0px" y="0px"><g data-name="Avatar-Man-Boy-Profile-Glasses-Bow Tie"><path d="M46.69,37.3,41,35.52V33a.983.983,0,0,0-.43-.82,1,1,0,0,0-.92-.12l-2.65,1V30.79a11.064,11.064,0,0,0,2.78-2.01A10.919,10.919,0,0,0,42.95,22H43a3.993,3.993,0,0,0,1-7.86V14a1,1,0,0,0-1-1V6a1,1,0,0,0-1-1H39V3a1,1,0,0,0-1-1H28a7.008,7.008,0,0,0-7,7v4a1,1,0,0,0-1,1v.14A3.993,3.993,0,0,0,21,22h.05A11.028,11.028,0,0,0,27,30.79v2.27l-2.65-1a1,1,0,0,0-.92.12A.983.983,0,0,0,23,33v2.52L17.31,37.3A8.941,8.941,0,0,0,11,45.88V61a1,1,0,0,0,1,1H52a1,1,0,0,0,1-1V45.88A8.941,8.941,0,0,0,46.69,37.3ZM44,18V16.28a1.979,1.979,0,0,1,.41,3.13,1.9,1.9,0,0,1-.79.48A4.942,4.942,0,0,0,44,18ZM19.59,19.41A1.979,1.979,0,0,1,20,16.28V18a4.942,4.942,0,0,0,.38,1.89A1.9,1.9,0,0,1,19.59,19.41ZM19,60H13V49.28l6,1.5Zm0-11.28-6-1.5V45.88a6.964,6.964,0,0,1,4.91-6.68L19,38.86ZM23,60H21V38.24l2-.63ZM40.59,23.7,37.1,23H39a5,5,0,0,0,1.85-.36C40.78,23,40.69,23.35,40.59,23.7ZM42,18a3.009,3.009,0,0,1-3,3H37a3.009,3.009,0,0,1-3-3V15h8Zm-6.99,4.58-.85-.17a10.834,10.834,0,0,0-4.32,0l-.85.17A5,5,0,0,0,32,18,5,5,0,0,0,35.01,22.58ZM38.71,7H41v3.18A3,3,0,0,0,40,10H36.89A7.065,7.065,0,0,0,38.71,7ZM23,9a5,5,0,0,1,5-5h9V5a5,5,0,0,1-5,5H24a3,3,0,0,0-1,.18Zm1,3H40a1,1,0,0,1,1,1H23A1,1,0,0,1,24,12Zm-2,6V15h8v3a3.009,3.009,0,0,1-3,3H25A3.009,3.009,0,0,1,22,18Zm1.42,5.7a7.456,7.456,0,0,1-.26-1.06A4.9,4.9,0,0,0,25,23h1.9Zm3.54,4.75,4.15-.46-.22-1.98-5.88.65a9.149,9.149,0,0,1-.75-1.09l5.98-1.2a9.065,9.065,0,0,1,3.52,0l5.98,1.2A8.714,8.714,0,0,1,39,26.66l-5.89-.65-.22,1.98,4.15.46a8.969,8.969,0,0,1-10.08,0ZM35,31.58v2.23l-3,1.12-3-1.12V31.57A10.665,10.665,0,0,0,32,32,11.09,11.09,0,0,0,35,31.58ZM25,34.44l6,2.25v.62l-6,2.25ZM39,60H25V41.69l7-2.62,7,2.62Zm0-20.44-6-2.25v-.62l6-2.25ZM43,60H41V37.61l2,.63Zm8,0H45V50.78l6-1.5Zm0-12.78-6,1.5V38.86l1.09.34A6.964,6.964,0,0,1,51,45.88Z"></path><rect x="31" y="41" width="2" height="2"></rect><rect x="31" y="45" width="2" height="2"></rect><rect x="31" y="49" width="2" height="2"></rect><circle cx="27" cy="18" r="2"></circle><circle cx="37" cy="18" r="2"></circle></g></svg>