<svg xmlns="http://www.w3.org/2000/svg" viewBox="0 0 64 64" x="0px" y="0px"><g data-name="Work Time-Time Management-Laptop-Computer-Time"><path d="M40,18H38.059a8.956,8.956,0,0,0,1.916,4.611l1.368-1.368,1.414,1.414-1.368,1.368A8.956,8.956,0,0,0,46,25.941V24h2v1.941a8.956,8.956,0,0,0,4.611-1.916l-1.368-1.368,1.414-1.414,1.368,1.368A8.956,8.956,0,0,0,55.941,18H54V16h1.941a8.956,8.956,0,0,0-1.916-4.611l-1.368,1.368-1.414-1.414,1.368-1.368A8.956,8.956,0,0,0,48,8.059V10H46V8.059a8.956,8.956,0,0,0-4.611,1.916l1.368,1.368-1.414,1.414-1.368-1.368A8.956,8.956,0,0,0,38.059,16H40Zm6-1.414V12h2v5a1,1,0,0,1-.293.707l-2,2-1.414-1.414Z"></path><path d="M47,30A13,13,0,1,0,34,17,13.012,13.012,0,0,0,47,30ZM47,6A11,11,0,1,1,36,17,11.013,11.013,0,0,1,47,6Z"></path><rect x="15" y="26" width="14" height="8"></rect><path d="M55,52h2V28.15a14.836,14.836,0,0,1-2,1.52Z"></path><path d="M7,52H9V20a2.006,2.006,0,0,1,2-2H32.05c-.02-.33-.05-.66-.05-1s.03-.67.05-1H10a3.009,3.009,0,0,0-3,3Z"></path><path d="M60,54H38v2a2.006,2.006,0,0,1-2,2H28a2.006,2.006,0,0,1-2-2V54H4v3a3.009,3.009,0,0,0,3,3H57a3.009,3.009,0,0,0,3-3Z"></path><rect x="28" y="54" width="8" height="2"></rect><path d="M11,20V52H53V30.74A14.857,14.857,0,0,1,47,32,15.034,15.034,0,0,1,32.3,20Zm2,5a1,1,0,0,1,1-1H30a1,1,0,0,1,1,1V35a1,1,0,0,1-1,1H14a1,1,0,0,1-1-1Zm0,13h2v2H13ZM33,48H13V46H33Zm4,0H35V46h2Zm14,0H39V46H51Zm0-4H13V42H51Zm0-4H17V38H51ZM33,30h4v2H33Zm0,4H51v2H33Z"></path></g></svg>