<svg xmlns="http://www.w3.org/2000/svg" viewBox="0 0 64 64" x="0px" y="0px"><g><rect x="18" y="38" width="10" height="2"></rect><rect x="18" y="46" width="10" height="2"></rect><path d="M50,58H14a1,1,0,0,0,0,2H50a1,1,0,0,0,0-2Z"></path><rect x="22" y="54" width="8" height="2"></rect><path d="M20,54a2.006,2.006,0,0,1,2-2h8a2.006,2.006,0,0,1,2,2v2h2V18H18v2H28a2.006,2.006,0,0,1,2,2v2a2.006,2.006,0,0,1-2,2H18v2H28a2.006,2.006,0,0,1,2,2v2a2.006,2.006,0,0,1-2,2H18v2H28a2.006,2.006,0,0,1,2,2v2a2.006,2.006,0,0,1-2,2H18v2H28a2.006,2.006,0,0,1,2,2v2a2.006,2.006,0,0,1-2,2H18v6h2Z"></path><rect x="18" y="30" width="10" height="2"></rect><rect x="18" y="22" width="10" height="2"></rect><rect x="42" y="42" width="3" height="2"></rect><rect x="42" y="50" width="3" height="2"></rect><path d="M45,54H42a2.006,2.006,0,0,1-2-2V50a2.006,2.006,0,0,1,2-2h3V46H42a2.006,2.006,0,0,1-2-2V42a2.006,2.006,0,0,1,2-2h3V38H36V56h9Z"></path><polygon points="22.52 9 20 9 20 3 18 3 18 9 18 10 18 12 24.92 12 22.52 9"></polygon><rect x="18" y="14" width="14" height="2"></rect></g></svg>