<svg xmlns="http://www.w3.org/2000/svg" viewBox="0 0 64 64" x="0px" y="0px"><g data-name="Development Investment"><path d="M24,18h7v2.059a9,9,0,1,0,2,0V14h7a7.009,7.009,0,0,0,7-7V3a1,1,0,0,0-1-1H38a7.007,7.007,0,0,0-6.946,6.17A6.973,6.973,0,0,0,26,6H18a1,1,0,0,0-1,1v4A7.009,7.009,0,0,0,24,18ZM39,29a7,7,0,1,1-7-7A7.009,7.009,0,0,1,39,29ZM38,4h7V7a5.006,5.006,0,0,1-5,5H33V10h7V8H33.1A5.009,5.009,0,0,1,38,4ZM19,8h7a5.009,5.009,0,0,1,4.9,4H24v2h7v2H24a5.006,5.006,0,0,1-5-5Z"></path><path d="M31,23v1.184A2.993,2.993,0,0,0,32,30a1,1,0,1,1-1,1H29a3,3,0,0,0,2,2.816V35h2V33.816A2.993,2.993,0,0,0,32,28a1,1,0,1,1,1-1h2a3,3,0,0,0-2-2.816V23Z"></path><path d="M12,44H31v4h2V44H52v4h2V44a2,2,0,0,0-2-2H33V40H31v2H12a2,2,0,0,0-2,2v4h2Z"></path><path d="M16,50H6a1,1,0,0,0-1,1V61a1,1,0,0,0,1,1H16a1,1,0,0,0,1-1V51A1,1,0,0,0,16,50ZM15,60H7V52h8Z"></path><path d="M37,50H27a1,1,0,0,0-1,1V61a1,1,0,0,0,1,1H37a1,1,0,0,0,1-1V51A1,1,0,0,0,37,50ZM36,60H28V52h8Z"></path><path d="M58,50H48a1,1,0,0,0-1,1V61a1,1,0,0,0,1,1H58a1,1,0,0,0,1-1V51A1,1,0,0,0,58,50ZM57,60H49V52h8Z"></path></g></svg>