<svg xmlns="http://www.w3.org/2000/svg" viewBox="0 0 64 64" x="0px" y="0px"><g><path d="M5,36H39a1,1,0,0,0,1-1V19a1,1,0,0,0-1-1H5a1,1,0,0,0-1,1V35A1,1,0,0,0,5,36Zm33-3a1,1,0,0,1-1,1H33V32h3V29h2ZM33,20h4a1,1,0,0,1,1,1v4H36V22H33Zm-2,6h2v2H31Zm-9-6a7,7,0,1,1-7,7A7.008,7.008,0,0,1,22,20Zm-9,8H11V26h2ZM6,21a1,1,0,0,1,1-1h4v2H8v3H6Zm0,8H8v3h3v2H7a1,1,0,0,1-1-1Z"></path><path d="M4,15v1.184A2.966,2.966,0,0,1,5,16H39a2.966,2.966,0,0,1,1,.184V15a1,1,0,0,0-1-1H5A1,1,0,0,0,4,15Z"></path><circle cx="22" cy="27" r="5"></circle><path d="M60,4H58V6H56V4H54V6H52V4H50V6H48V4H46V6H44V4H42V6H40V4H38V6H36V4H34V6H32V4H30v8h9a3,3,0,0,1,3,3V35a3,3,0,0,1-3,3H30V50H60ZM50,44H44V42h6Zm0-4H44V38h6Zm0-4H44V34h6Zm0-4H44V30h6Zm0-4H44V26h6Zm0-4H44V22h6Zm6,20H52V42h4Zm0-4H52V38h4Zm0-4H52V34h4Zm0-4H52V30h4Zm0-4H52V26h4Zm0-4H52V22h4Zm0-6H46V16H56Zm0-4H46V12H56Z"></path><polygon points="4 44 4 48 18 48 18 44 16 44 16 46 14 46 14 44 12 44 12 46 10 46 10 44 8 44 8 46 6 46 6 44 4 44"></polygon><polygon points="18 52 16 52 16 50 14 50 14 52 12 52 12 50 10 50 10 52 8 52 8 50 6 50 6 54 20 54 20 50 18 50 18 52"></polygon><polygon points="18 56 16 56 16 58 14 58 14 56 12 56 12 58 10 58 10 56 8 56 8 58 6 58 6 56 4 56 4 60 18 60 18 56"></polygon><polygon points="34 56 32 56 32 58 30 58 30 56 28 56 28 58 26 58 26 56 24 56 24 58 22 58 22 56 20 56 20 60 34 60 34 56"></polygon></g></svg>