<svg xmlns="http://www.w3.org/2000/svg" viewBox="0 0 64 64" x="0px" y="0px"><g><path d="M58,36h3a1,1,0,0,0,1-1V31a1,1,0,0,0-1-1H41.98A7.8,7.8,0,0,0,46,28.01a11.4,11.4,0,0,0,3.44-6.48,11.364,11.364,0,0,0-1.01-7.27,7.283,7.283,0,0,0-5.13-3.97,6.088,6.088,0,0,0-1.13-.1,7,7,0,0,0-2.94.67,5.266,5.266,0,0,1-1.14.38c-.01-.37-.04-.75-.08-1.13a5.718,5.718,0,0,0,3.94-1.82,5.331,5.331,0,0,0,1.66-5.26,1.018,1.018,0,0,0-.64-.64,5.331,5.331,0,0,0-5.26,1.66,6.535,6.535,0,0,0-1.33,1.86A5.314,5.314,0,0,0,33.2,4.02l-.4,1.96c2.74.55,3.25,3.43,3.29,5.29a5.18,5.18,0,0,1-1.32-.41,6.8,6.8,0,0,0-4.07-.57c-4.34.76-7.1,5.81-6.14,11.24A11.4,11.4,0,0,0,28,28.01,7.813,7.813,0,0,0,32.05,30H16a8,8,0,0,0,0,16h.09L1.66,51.25l.68,1.88,18.11-6.59a17.113,17.113,0,0,1,8.77-.77l11.01,1.94a2.017,2.017,0,0,1,1.62,2.32,1.975,1.975,0,0,1-.82,1.29,1.952,1.952,0,0,1-1.5.33L28.7,49.74l-.35,1.97,10.84,1.91a3.26,3.26,0,0,0,.7.07,3.939,3.939,0,0,0,2.28-.73,3.994,3.994,0,0,0,1.52-2.1l9.67-3.53a2.137,2.137,0,0,1,2.67,1A2.027,2.027,0,0,1,56.02,50a2.006,2.006,0,0,1-1.13,1.03L36.61,57.69a10.863,10.863,0,0,1-4.52.63L27.34,58a12.789,12.789,0,0,0-5.34.75l-6.34,2.31.68,1.88,6.34-2.31a10.893,10.893,0,0,1,4.52-.64l4.75.33a12.929,12.929,0,0,0,5.34-.75l18.28-6.66a3.936,3.936,0,0,0,2.26-2.07,4.007,4.007,0,0,0,.03-3.32A3.824,3.824,0,0,0,56.6,46H61a1,1,0,0,0,1-1V41a1,1,0,0,0-1-1H58a2,2,0,0,1,0-4ZM39.12,5.46a3.735,3.735,0,0,1,2.65-1.23,3.778,3.778,0,0,1-1.23,2.65,3.8,3.8,0,0,1-2.65,1.24A3.738,3.738,0,0,1,39.12,5.46ZM29.34,26.52a9.367,9.367,0,0,1-2.81-5.34c-.77-4.35,1.26-8.35,4.52-8.92a4.74,4.74,0,0,1,2.87.41,7.219,7.219,0,0,0,6.16,0,4.751,4.751,0,0,1,2.87-.41,5.306,5.306,0,0,1,3.71,2.94,9.374,9.374,0,0,1,.81,5.98,9.367,9.367,0,0,1-2.81,5.34,5.315,5.315,0,0,1-4.49,1.5,4.447,4.447,0,0,1-1.07-.34,5.125,5.125,0,0,0-4.2,0,4.447,4.447,0,0,1-1.07.34A5.356,5.356,0,0,1,29.34,26.52ZM40,30H34.04c.04-.01.09-.01.13-.02a6.127,6.127,0,0,0,1.56-.48,3.122,3.122,0,0,1,2.54,0,6.127,6.127,0,0,0,1.56.48C39.88,29.99,39.94,29.99,40,30ZM18,44H16a6,6,0,0,1-6-6,6.009,6.009,0,0,1,6-6h2v2H16a4,4,0,1,0,0,8h2Zm36.56-4H16a2.015,2.015,0,0,1-2-2,2.006,2.006,0,0,1,2-2H54.56a3.851,3.851,0,0,0,0,4ZM43.75,48.7A4.012,4.012,0,0,0,41.42,46h9.76ZM60,42v2H30.68l-1.11-.2a19.133,19.133,0,0,0-7.54.2H20V42ZM20,34V32H60v2Z"></path></g></svg>