<svg xmlns="http://www.w3.org/2000/svg" viewBox="0 0 64 64" x="0px" y="0px"><g><path d="M36.313,22.2a7.951,7.951,0,0,0,.7,1.69,1,1,0,0,1-.042,1.04l-.873,1.31,1.669,1.67,1.31-.874a1,1,0,0,1,1.042-.041,7.946,7.946,0,0,0,1.688.7,1,1,0,0,1,.706.765L42.819,30h2.362l.309-1.548a1,1,0,0,1,.706-.765,7.946,7.946,0,0,0,1.688-.7,1,1,0,0,1,1.042.041l1.31.874,1.669-1.67-.873-1.31a1,1,0,0,1-.042-1.04,7.951,7.951,0,0,0,.7-1.69,1,1,0,0,1,.765-.706L54,21.18V18.82l-1.548-.31a1,1,0,0,1-.765-.706,7.951,7.951,0,0,0-.7-1.69,1,1,0,0,1,.042-1.04l.873-1.31-1.669-1.67-1.31.874a1,1,0,0,1-1.042.041,7.946,7.946,0,0,0-1.688-.7,1,1,0,0,1-.706-.765L45.181,10H42.819l-.309,1.548a1,1,0,0,1-.706.765,7.946,7.946,0,0,0-1.688.7,1,1,0,0,1-1.042-.041l-1.31-.874L36.1,13.764l.873,1.31a1,1,0,0,1,.042,1.04,7.951,7.951,0,0,0-.7,1.69,1,1,0,0,1-.765.706L34,18.82v2.36l1.548.31A1,1,0,0,1,36.313,22.2ZM44,14a6,6,0,1,1-6,6A6.006,6.006,0,0,1,44,14Z"></path><circle cx="44" cy="20" r="4"></circle><path d="M12.315,23.458c-.013.03-.027.059-.039.089-.179.431-.333.875-.476,1.324-.024.078-.054.154-.078.233-.123.408-.222.825-.314,1.245-.026.119-.061.235-.084.355-.08.4-.134.817-.185,1.231-.016.135-.043.267-.057.4C11.029,28.885,11,29.439,11,30v.351L9.784,31.87,4.081,39H9v8a3,3,0,0,0,3,3h7V60H39V42.963l.333-.3.014-.013a17.139,17.139,0,0,0,1.33-1.352c.128-.143.251-.289.372-.436.3-.361.583-.736.852-1.12A17.15,17.15,0,0,0,43,37.972V36h2v1.949a17.989,17.989,0,0,0,2.686-.331l-.511-1.9,1.931-.519.509,1.9a17.791,17.791,0,0,0,2.495-1.044l-.976-1.691,1.732-1,.979,1.7A18.046,18.046,0,0,0,55.981,33.4l-1.375-1.375,1.415-1.415L57.4,31.982a17.97,17.97,0,0,0,1.656-2.138l-1.7-.978,1-1.732,1.692.976a17.887,17.887,0,0,0,1.043-2.5l-1.9-.508.518-1.932,1.9.51A17.96,17.96,0,0,0,61.949,21H60V19h1.949a17.96,17.96,0,0,0-.331-2.685l-1.9.51L59.2,14.893l1.9-.508a17.887,17.887,0,0,0-1.043-2.495l-1.692.976-1-1.732,1.7-.978A17.97,17.97,0,0,0,57.4,8.018L56.021,9.394,54.606,7.979,55.981,6.6a18.046,18.046,0,0,0-2.136-1.655l-.979,1.7-1.732-1,.976-1.691a17.791,17.791,0,0,0-2.495-1.044l-.509,1.9-1.931-.519.511-1.9A17.989,17.989,0,0,0,45,2.051V4H43V2.038a17.957,17.957,0,0,0-2.684.352l.509,1.9-1.931.519-.51-1.9a17.741,17.741,0,0,0-2.5,1.04l.98,1.7-1.732,1-.98-1.7a18.277,18.277,0,0,0-2.146,1.647l1.386,1.385L31.979,9.394,30.6,8.013a18.264,18.264,0,0,0-1.648,2.144l1.693.977-1,1.732-1.7-.983q-.285.56-.532,1.142A17.039,17.039,0,0,0,12.315,23.458Zm14.039.235,1.933-.518.517,1.932-1.932.518Zm9.512,12.4-1.732-1,1-1.732,1.732,1Zm4.441,1.558-1.932-.519.519-1.932,1.931.519ZM32,18a1,1,0,0,1,.8-.98l1.774-.355a9.7,9.7,0,0,1,.4-.971l-1-1.5a1,1,0,0,1,.125-1.262L36.929,10.1a1,1,0,0,1,1.261-.125l1.5,1a10.076,10.076,0,0,1,.97-.4L41.02,8.8A1,1,0,0,1,42,8h4a1,1,0,0,1,.98.8l.356,1.774a10.076,10.076,0,0,1,.97.4l1.5-1a1,1,0,0,1,1.261.125L53.9,12.929a1,1,0,0,1,.125,1.262l-1,1.5a9.7,9.7,0,0,1,.4.971l1.774.355A1,1,0,0,1,56,18v4a1,1,0,0,1-.8.98l-1.774.355a9.7,9.7,0,0,1-.4.971l1,1.5a1,1,0,0,1-.125,1.262L51.071,29.9a1,1,0,0,1-1.261.125l-1.5-1a10.076,10.076,0,0,1-.97.4L46.98,31.2A1,1,0,0,1,46,32H42a1,1,0,0,1-.98-.8l-.356-1.774a10.076,10.076,0,0,1-.97-.4l-1.5,1a1,1,0,0,1-1.261-.125L34.1,27.071a1,1,0,0,1-.125-1.262l1-1.5a9.7,9.7,0,0,1-.4-.971L32.8,22.98A1,1,0,0,1,32,22Zm-.021,12.606,1.415,1.415-1.415,1.414-1.414-1.414Zm-1.335-1.74-1.732,1-1-1.732,1.732-1ZM26.872,14.375l1.932.518-.517,1.932-1.933-.518ZM26,19h2v2H26Z"></path></g></svg>