<svg xmlns="http://www.w3.org/2000/svg" viewBox="0 0 64 64" x="0px" y="0px"><g data-name="Artificial Intelligence-Chip"><circle cx="40" cy="44" r="1"></circle><path d="M43,14H29V28H43Zm-2,8a1,1,0,0,1-.293.707l-3,3A1,1,0,0,1,37,26H32a1,1,0,0,1-1-1V17a1,1,0,0,1,1-1h8a1,1,0,0,1,1,1Z"></path><path d="M52,60V43.939a1,1,0,0,1,.292-.706A23,23,0,0,0,20.263,10.227,22.785,22.785,0,0,0,13,27a1,1,0,0,1-.26.673L4.26,37H10a1,1,0,0,1,1,1v7a5.006,5.006,0,0,0,5,5h8a2,2,0,0,1,2,2v8ZM21,43a3,3,0,1,1,3-3A3,3,0,0,1,21,43Zm4-17H23V24h2Zm0-4H23V20h2Zm0-4H23V16h2Zm7,38a3,3,0,1,1,3-3A3,3,0,0,1,32,56Zm8-9a2.993,2.993,0,0,1-1-5.816V36h2v5.184A2.993,2.993,0,0,1,40,47ZM37,34H35V32h2Zm2,0V32h2v2Zm8-18h2v2H47Zm0,4h2v2H47Zm0,4h2v2H47ZM39,8h2v2H39ZM35,8h2v2H35ZM31,8h2v2H31Zm-4,5a1,1,0,0,1,1-1H44a1,1,0,0,1,1,1V29a1,1,0,0,1-1,1H28a1,1,0,0,1-1-1Zm6,19v2H31V32Zm-7,7h5V36h2v3h2V36h2v4a1,1,0,0,1-1,1H33v7H31V41H26Z"></path><circle cx="32" cy="53" r="1"></circle><polygon points="33 24 36.589 24 39 21.586 39 18 33 18 33 24"></polygon><circle cx="21" cy="40" r="1"></circle></g></svg>