<svg xmlns="http://www.w3.org/2000/svg" viewBox="0 0 64 64" x="0px" y="0px"><g><path d="M50,14H46V8h2a1,1,0,0,0,1-1V3a1,1,0,0,0-1-1H38a1,1,0,0,0-1,1V7a1,1,0,0,0,1,1h2v6H36a1,1,0,0,0-1,1v4a1,1,0,0,0,1,1h1V43a1,1,0,0,0,1,1h1v3a1,1,0,0,0,1,1V61a1,1,0,0,0,.74.97A1.222,1.222,0,0,0,41,62a1.016,1.016,0,0,0,.87-.5l4-7A1.128,1.128,0,0,0,46,54V48a1,1,0,0,0,1-1V44h1a1,1,0,0,0,1-1V20h1a1,1,0,0,0,1-1V15A1,1,0,0,0,50,14ZM39,6V4h8V6Zm5,2v6H42V8Zm0,45.73-2,3.5V48h2ZM45,46H41V44h4Zm2-24H45v2h2v2H45v2h2v2H43v2h4v2H45v2h2v2H45v2h2v2H39V20h8Zm2-4H37V16H49Z"></path><path d="M29,36.1V34h1a1,1,0,0,0,1-1V27a1,1,0,0,0-1-1H16a1,1,0,0,0-1,1v6a1,1,0,0,0,1,1h1v2.1A5.017,5.017,0,0,0,13,41V60a2.006,2.006,0,0,0,2,2H31a2.006,2.006,0,0,0,2-2V41A5.017,5.017,0,0,0,29,36.1ZM17,28H29v4H17Zm10,6v2H19V34Zm4,26H15V56H31Zm0-6H15V44H31Zm0-12H15V41a3.009,3.009,0,0,1,3-3H28a3.009,3.009,0,0,1,3,3Z"></path><polygon points="22 52 24 52 24 50 26 50 26 48 24 48 24 46 22 46 22 48 20 48 20 50 22 50 22 52"></polygon></g></svg>