<svg xmlns="http://www.w3.org/2000/svg" viewBox="0 0 64 64" x="0px" y="0px"><g data-name="Cctv Camera-Security-Security Camera-Smartphone-Keypad"><rect x="18" y="6" width="2" height="2"></rect><rect x="22" y="6" width="8" height="2"></rect><path d="M52.421,27.043a6,6,0,1,0-8.842,0A2.994,2.994,0,0,0,41,30v4a1,1,0,0,0,1,1H54a1,1,0,0,0,1-1V30A2.994,2.994,0,0,0,52.421,27.043ZM48,19a4,4,0,1,1-4,4A4,4,0,0,1,48,19Zm5,14H43V30a1,1,0,0,1,1-1h8a1,1,0,0,1,1,1Z"></path><circle cx="48" cy="23" r="2"></circle><path d="M48,12a13.884,13.884,0,0,0-5,.94V9a7.008,7.008,0,0,0-7-7H16A7.008,7.008,0,0,0,9,9V28.3a3.026,3.026,0,0,0-1.45,1.44L3.01,39.59A11.085,11.085,0,0,0,2,44.19V62H4V44.19a9.038,9.038,0,0,1,.83-3.76L9,31.38V45a6.994,6.994,0,0,0,.89,3.41.992.992,0,0,0,1.79.05l4.49-7.75a2.054,2.054,0,0,1,2.73-.73,1.968,1.968,0,0,1,.94,1.21,2.016,2.016,0,0,1-.21,1.52l-4.5,7.79a1.031,1.031,0,0,0,.01,1.02l2.14,3.55A5.049,5.049,0,0,1,18,57.65v4.34h2V57.65a7.143,7.143,0,0,0-1-3.61L17.77,52H36a7.008,7.008,0,0,0,7-7V39.06A13.993,13.993,0,1,0,48,12ZM41,45a5,5,0,0,1-5,5H17.73l3.44-5.95A2.961,2.961,0,0,0,24,48h4a3,3,0,0,0,0-6H24a2.982,2.982,0,0,0-2.42,1.25,4,4,0,0,0-7.15-3.54l-3.4,5.88A5.828,5.828,0,0,1,11,45V9a5,5,0,0,1,5-5H36a5,5,0,0,1,5,5v4.89a13.975,13.975,0,0,0,0,24.22ZM23,45a1,1,0,0,1,1-1h4a1,1,0,0,1,0,2H24A1,1,0,0,1,23,45Zm25-7A12,12,0,1,1,60,26,12.01,12.01,0,0,1,48,38Z"></path><path d="M23.6,12.2a.99.99,0,0,0-1.2,0l-8,6,1.2,1.6L17,18.75V25a2.006,2.006,0,0,0,2,2h8a2.006,2.006,0,0,0,2-2V18.75l1.4,1.05,1.2-1.6ZM27,25H19V17.25l4-3,4,3Z"></path><rect x="22" y="17" width="2" height="2"></rect><polygon points="24.414 29.172 23 30.586 21.586 29.172 20.172 30.586 21.586 32 20.172 33.414 21.586 34.828 23 33.414 24.414 34.828 25.828 33.414 24.414 32 25.828 30.586 24.414 29.172"></polygon><polygon points="17.414 29.172 16 30.586 14.586 29.172 13.172 30.586 14.586 32 13.172 33.414 14.586 34.828 16 33.414 17.414 34.828 18.828 33.414 17.414 32 18.828 30.586 17.414 29.172"></polygon><polygon points="31.414 29.172 30 30.586 28.586 29.172 27.172 30.586 28.586 32 27.172 33.414 28.586 34.828 30 33.414 31.414 34.828 32.828 33.414 31.414 32 32.828 30.586 31.414 29.172"></polygon></g></svg>