<svg xmlns="http://www.w3.org/2000/svg" viewBox="0 0 64 64" x="0px" y="0px"><title>Chart-Report_2</title><g data-name="Chart-Report"><path d="M32,53A13,13,0,1,0,19,40,13.015,13.015,0,0,0,32,53ZM21.051,41h2.008a8.991,8.991,0,0,0,13.993,6.443l1.427,1.427A10.974,10.974,0,0,1,21.051,41ZM32,33a7,7,0,1,1-7,7A7.008,7.008,0,0,1,32,33Zm7.983,14.546-1.414-1.414A8.967,8.967,0,0,0,40.941,41h2.008A10.954,10.954,0,0,1,39.983,47.546ZM42.949,39H40.941A9.013,9.013,0,0,0,33,31.059V29.051A11.01,11.01,0,0,1,42.949,39ZM31,29.051v2.008A9.013,9.013,0,0,0,23.059,39H21.051A11.01,11.01,0,0,1,31,29.051Z"></path><path d="M24,21h6a1,1,0,0,0,1-1V16a1,1,0,0,0-1-1H24a1,1,0,0,0-1,1v4A1,1,0,0,0,24,21Zm1-4h4v2H25Z"></path><rect x="23" y="23" width="2" height="2"></rect><rect x="27" y="23" width="4" height="2"></rect><rect x="33" y="15" width="8" height="2"></rect><rect x="33" y="19" width="2" height="2"></rect><rect x="37" y="19" width="4" height="2"></rect><rect x="33" y="23" width="8" height="2"></rect><path d="M55,2H9A2,2,0,0,0,7,4V60a2,2,0,0,0,2,2H55a2,2,0,0,0,2-2V4A2,2,0,0,0,55,2ZM40,4V6H24V4ZM23,12H41a1,1,0,0,0,1-1V8h9V56H13V8h9v3A1,1,0,0,0,23,12Zm17-2H24V8H40ZM9,60V4H22V6H12a1,1,0,0,0-1,1V57a1,1,0,0,0,1,1H52a1,1,0,0,0,1-1V7a1,1,0,0,0-1-1H42V4H55V60Z"></path></g></svg>