<svg xmlns="http://www.w3.org/2000/svg" viewBox="0 0 64 64" x="0px" y="0px"><g data-name="Elearning-Book-Lesson-Audio Book-Online"><path d="M33,28H5a3.009,3.009,0,0,0-3,3V59a3.009,3.009,0,0,0,3,3H33a3.009,3.009,0,0,0,3-3V31A3.009,3.009,0,0,0,33,28Zm1,31a1,1,0,0,1-1,1H5a1,1,0,0,1-1-1V36H34Zm0-25H4V31a1,1,0,0,1,1-1H33a1,1,0,0,1,1,1Z"></path><rect x="6" y="31" width="2" height="2"></rect><rect x="10" y="31" width="2" height="2"></rect><rect x="14" y="31" width="2" height="2"></rect><path d="M22.307,46.336l-3.2-2.131A2,2,0,0,0,16,45.869v4.262A2,2,0,0,0,19.109,51.8l3.2-2.131a2,2,0,0,0,0-3.328ZM18,50.138V45.869L21.2,48Z"></path><path d="M19,39a9,9,0,1,0,9,9A9.01,9.01,0,0,0,19,39Zm0,16a7,7,0,1,1,7-7A7.008,7.008,0,0,1,19,55Z"></path><path d="M61,6H58V3a1,1,0,0,0-1-1H43a4.994,4.994,0,0,0-4,2.03A4.994,4.994,0,0,0,35,2H21a1,1,0,0,0-1,1V6H17a1,1,0,0,0-1,1V26h2V8h2V26h2V4H35a3.009,3.009,0,0,1,3,3V35a1,1,0,0,0,1,1H61a1,1,0,0,0,1-1V7A1,1,0,0,0,61,6ZM56,34H40.17A3.014,3.014,0,0,1,43,32H56Zm0-4H43a4.924,4.924,0,0,0-3,1.03V7a3.009,3.009,0,0,1,3-3H56Zm4,4H58V8h2Z"></path><rect x="24" y="16" width="12" height="2"></rect><rect x="24" y="20" width="12" height="2"></rect><rect x="42" y="8" width="12" height="2"></rect><rect x="42" y="12" width="12" height="2"></rect><rect x="42" y="16" width="12" height="2"></rect><rect x="42" y="20" width="12" height="2"></rect><rect x="24" y="24" width="12" height="2"></rect><rect x="42" y="24" width="12" height="2"></rect><path d="M35,6H25a1,1,0,0,0-1,1v6a1,1,0,0,0,1,1H35a1,1,0,0,0,1-1V7A1,1,0,0,0,35,6Zm-1,6H26V8h8Z"></path><path d="M54,49H38v2H55a1,1,0,0,0,1-1V38H54Z"></path><rect x="58" y="38" width="2" height="2"></rect><rect x="58" y="42" width="2" height="2"></rect><rect x="58" y="46" width="2" height="2"></rect><rect x="38" y="53" width="2" height="2"></rect><rect x="42" y="53" width="2" height="2"></rect><rect x="46" y="53" width="2" height="2"></rect><rect x="50" y="53" width="2" height="2"></rect><rect x="54" y="53" width="2" height="2"></rect><rect x="4" y="8" width="2" height="2"></rect><rect x="4" y="12" width="2" height="2"></rect><rect x="4" y="16" width="2" height="2"></rect><rect x="4" y="20" width="2" height="2"></rect><rect x="4" y="24" width="2" height="2"></rect><path d="M10,10h4V8H9A1,1,0,0,0,8,9V26h2Z"></path><rect x="12" y="4" width="2" height="2"></rect><rect x="8" y="4" width="2" height="2"></rect></g></svg>