<svg xmlns="http://www.w3.org/2000/svg" viewBox="0 0 64 64" x="0px" y="0px"><g data-name="Moka Pot-Coffee Maker-Espresso-Coffee Shop-Machine"><path d="M55,14H47.24L35.45,8.11a1.055,1.055,0,0,0-.19-.05l.71-2.82a.978.978,0,0,0-.08-.69l-1-2A.988.988,0,0,0,34,2H30a.988.988,0,0,0-.89.55l-1,2a.978.978,0,0,0-.08.69l.71,2.82a1.055,1.055,0,0,0-.19.05L16.69,14.04l-5.85.97a1.005,1.005,0,0,0-.59,1.65l7.59,8.54,2.18,11.98a1,1,0,0,0,.27.53L22,39.41V42a1,1,0,0,0-.98.79l-3,14a1.01,1.01,0,0,0,.27.92l4,4A1.033,1.033,0,0,0,23,62H41a1.033,1.033,0,0,0,.71-.29l4-4a1.01,1.01,0,0,0,.27-.92l-3-14A1,1,0,0,0,42,42V39.41l1.71-1.7a1,1,0,0,0,.27-.53L47.11,20H50v3.87L47.04,34.74a.974.974,0,0,0,.17.87A1,1,0,0,0,48,36h4a.985.985,0,0,0,.96-.74l3-11A.746.746,0,0,0,56,24V15A1,1,0,0,0,55,14ZM12.95,16.69l3.24-.54.96,5.26ZM42.76,14H36.72l-1.21-3.63Zm-5.84,2h3.95L38.12,38H35.09ZM30.62,4h2.76l.56,1.12L33.22,8H30.78l-.72-2.88Zm.1,6h2.56l1.33,4H29.39Zm4.19,6L33.08,38H30.92L29.09,16Zm-6,22H25.88L23.13,16h3.95Zm-.42-27.63L27.28,14H21.24ZM21.93,36.51,18.2,16h2.92l2.75,22h-.46Zm.31,22.31-2.15-2.14L22.81,44h1.07ZM27.1,60H24.12L25.9,44h2.98Zm2.02,0L30.9,44h2.2l1.78,16Zm7.78,0L35.12,44H38.1l1.78,16ZM40,42H24V40H40Zm3.91,14.68-2.15,2.14L40.12,44h1.07ZM42.07,36.51,40.59,38h-.46l2.75-22H45.8ZM54,23.87,51.24,34H49.31l2.65-9.74A.746.746,0,0,0,52,24V19a1,1,0,0,0-1-1H47.47l.36-2H54Z"></path></g></svg>