<svg xmlns="http://www.w3.org/2000/svg" viewBox="0 0 64 64" x="0px" y="0px"><g data-name="Wireless Antenna"><path d="M39.988,30.846A1,1,0,0,0,39,30H33V27.949a13,13,0,1,0-2,0V30H25a1,1,0,0,0-.986.836l-5,30A1,1,0,0,0,20,62H44a1,1,0,0,0,.985-1.168ZM32,18a3,3,0,1,1,3-3A3,3,0,0,1,32,18Zm1,1.9a5,5,0,1,0-2,0V21.92a7,7,0,1,1,2,0ZM21,15A11,11,0,1,1,33,25.949V23.941a9,9,0,1,0-2,0v2.008A11.01,11.01,0,0,1,21,15Zm9.412,31.09L22.42,52.563l1.9-11.408ZM26.073,40H37.931L32,44.8ZM32,47.376,40.177,54H23.823Zm1.589-1.287,6.023-4.878,1.929,11.321ZM25.848,32h12.3l.937,6H24.848ZM21.181,60l.666-4H42.134l.681,4Z"></path></g></svg>