<svg xmlns="http://www.w3.org/2000/svg" viewBox="0 0 64 64" x="0px" y="0px"><title>Record-Microphone-Book</title><g><path d="M15,12H53V38h2V3a1,1,0,0,0-1-1H14A5.006,5.006,0,0,0,9,7V57a5.006,5.006,0,0,0,5,5H40V60H15ZM14,4H53V6H15V8H53v2H14a3,3,0,0,1,0-6ZM11,57V10.974a4.954,4.954,0,0,0,2,.925V59.816A3,3,0,0,1,11,57Z"></path><path d="M49,27V17a1,1,0,0,0-1-1H20a1,1,0,0,0-1,1V27a1,1,0,0,0,1,1H48A1,1,0,0,0,49,27Zm-2-1H21V18H47Z"></path><path d="M51,54a5.006,5.006,0,0,0,5-5V45a5,5,0,0,0-10,0v4A5.006,5.006,0,0,0,51,54Zm0-12a3,3,0,0,1,2.816,2H52v2h2v2H52v2h1.816a2.982,2.982,0,0,1-5.632,0H50V48H48V46h2V44H48.184A3,3,0,0,1,51,42Z"></path><path d="M52,57.941A9.01,9.01,0,0,0,60,49H58a7,7,0,0,1-14,0H42a9.01,9.01,0,0,0,8,8.941V60H44v2H58V60H52Z"></path></g></svg>