<svg xmlns="http://www.w3.org/2000/svg" viewBox="0 0 64 64" x="0px" y="0px"><g data-name="TV Table"><path d="M57,42H33V52H57ZM47,46H43V44h4Z"></path><rect x="53" y="54" width="2" height="6"></rect><rect x="4" y="38" width="56" height="2"></rect><path d="M31,42H7V52H31ZM21,46H17V44h4Z"></path><rect x="9" y="54" width="2" height="6"></rect><polygon points="35 32 29 32 29 34 27 34 27 36 37 36 37 34 35 34 35 32"></polygon><path d="M12,8V30H52V8Zm35,4H45V10h2Zm3,3H48V13h2Zm0-3H48V10h2Z"></path></g></svg>