<svg xmlns="http://www.w3.org/2000/svg" viewBox="0 0 64 64" x="0px" y="0px"><g><path d="M60,12H4V40H60ZM42,17h8v2H42Zm-6,0h4v2H36Zm0,4h2v2H36Zm0,4H46v2H36Zm10,4v2H44V29ZM36,29h6v2H36Zm-4,6a1,1,0,0,1-1,1H9a1,1,0,0,1-1-1V17a1,1,0,0,1,1-1H31a1,1,0,0,1,1,1Zm24,0H36V33H56Zm-8-4V29h4v2Zm8,0H54V29h2Zm0-4H48V25h8Zm0-4H40V21H56Zm0-4H52V17h4Z"></path><polygon points="10 32.414 10 34 21.586 34 15 27.414 10 32.414"></polygon><path d="M10,29.586l4.293-4.293a1,1,0,0,1,1.414,0L18.5,28.086l5.793-5.793a1,1,0,0,1,1.414,0L30,26.586V18H10Z"></path><polygon points="19.914 29.5 24.414 34 30 34 30 29.414 25 24.414 19.914 29.5"></polygon><path d="M20,59a1,1,0,0,0,1,1H43a1,1,0,0,0,0-2H21A1,1,0,0,0,20,59Z"></path><polygon points="25.883 50 25.133 56 38.867 56 38.117 50 25.883 50"></polygon><path d="M60,7a3,3,0,0,0-3-3H7A3,3,0,0,0,4,7v3H60ZM10,8H8V6h2Zm4,0H12V6h2Zm4,0H16V6h2Z"></path><path d="M60,42H4v3a3,3,0,0,0,3,3H57a3,3,0,0,0,3-3Zm-4,4H54V44h2Z"></path></g></svg>