<svg xmlns="http://www.w3.org/2000/svg" viewBox="0 0 64 64" x="0px" y="0px"><g><path d="M46.658,13.064a1,1,0,0,0-.554-.96c-.153-.076-3.749-1.816-6.774-.068a6.129,6.129,0,0,0-2.33,2.5,6.129,6.129,0,0,0-2.33-2.5c-3.028-1.748-6.622-.007-6.774.068a1,1,0,0,0-.554.96c.011.169.3,4.152,3.328,5.9a5.352,5.352,0,0,0,.636.3,9.317,9.317,0,0,0-3.41.835,1,1,0,0,0-.554.96,8.3,8.3,0,0,0,2.588,5.378A9.244,9.244,0,0,0,27.9,27.1a1,1,0,0,0-.554.96c.011.169.3,4.152,3.328,5.9a6.043,6.043,0,0,0,3.055.775A8.676,8.676,0,0,0,36,34.416V40h2V34.416a8.669,8.669,0,0,0,2.275.323,6.04,6.04,0,0,0,3.055-.775c3.027-1.748,3.317-5.731,3.328-5.9a1,1,0,0,0-.554-.96,9.276,9.276,0,0,0-2.034-.663,8.3,8.3,0,0,0,2.588-5.377,1,1,0,0,0-.554-.96,9.3,9.3,0,0,0-3.409-.835,5.579,5.579,0,0,0,.635-.3C46.357,17.216,46.647,13.233,46.658,13.064ZM38,19.416a8.988,8.988,0,0,0,1.966.309,5.482,5.482,0,0,0-.636.311A5.673,5.673,0,0,0,38,21.112Zm-2,1.7a5.673,5.673,0,0,0-1.33-1.076,5.5,5.5,0,0,0-.637-.311A8.987,8.987,0,0,0,36,19.416Zm-6.554-7.471a5.378,5.378,0,0,1,4.224.128,5.35,5.35,0,0,1,2.225,3.59,5.367,5.367,0,0,1-4.225-.128A5.342,5.342,0,0,1,29.446,13.641Zm0,8a5.378,5.378,0,0,1,4.224.128,5.35,5.35,0,0,1,2.225,3.59,5.367,5.367,0,0,1-4.225-.128A5.342,5.342,0,0,1,29.446,21.641Zm2.224,10.59a5.342,5.342,0,0,1-2.224-3.59,5.378,5.378,0,0,1,4.224.128,5.35,5.35,0,0,1,2.225,3.59A5.372,5.372,0,0,1,31.67,32.231Zm3.737-4.675c.211-.043.408-.09.593-.14v.7A5.827,5.827,0,0,0,35.407,27.556ZM38,27.416c.185.05.382.1.593.14a5.827,5.827,0,0,0-.593.556Zm4.33,4.815a5.356,5.356,0,0,1-4.225.131,5.352,5.352,0,0,1,2.225-3.593,5.342,5.342,0,0,1,4.225-.13A5.348,5.348,0,0,1,42.33,32.231Zm0-7a5.351,5.351,0,0,1-4.225.131,5.352,5.352,0,0,1,2.225-3.593,5.342,5.342,0,0,1,4.225-.13A5.348,5.348,0,0,1,42.33,25.231Zm0-8a5.356,5.356,0,0,1-4.225.131,5.352,5.352,0,0,1,2.225-3.593,5.338,5.338,0,0,1,4.225-.13A5.348,5.348,0,0,1,42.33,17.231Z"></path><path d="M58,2H12A7.008,7.008,0,0,0,5,9V55a7.008,7.008,0,0,0,7,7H58a1,1,0,0,0,1-1V3A1,1,0,0,0,58,2ZM57,9.92A7,7,0,0,1,51.08,4H57ZM49.059,48H24.941A9.012,9.012,0,0,0,17,40.059V11.941A9.012,9.012,0,0,0,24.941,4H49.059A9.012,9.012,0,0,0,57,11.941V40.059A9.012,9.012,0,0,0,49.059,48ZM57,42.08V48H51.08A7,7,0,0,1,57,42.08ZM13,4h2V48H13Zm4,0h5.92A7,7,0,0,1,17,9.92Zm0,38.08A7,7,0,0,1,22.92,48H17ZM7,9a5.009,5.009,0,0,1,4-4.9V17.08a6.975,6.975,0,0,0-4,2.031ZM7,24a5.009,5.009,0,0,1,4-4.9V34.08a6.975,6.975,0,0,0-4,2.031Zm4,12.1V48.08a6.988,6.988,0,0,0-4,2.025V41A5.009,5.009,0,0,1,11,36.1ZM12,60a5,5,0,0,1,0-10H57v2H13a3,3,0,0,0,0,6H57v2Zm45-6v2H13a1,1,0,0,1,0-2Z"></path></g></svg>