<svg xmlns="http://www.w3.org/2000/svg" viewBox="0 0 64 64" x="0px" y="0px"><g data-name="Smart House-Internet of Things-Smart Home-Control-Internet"><path d="M46,42a4,4,0,1,0,4,4A4,4,0,0,0,46,42Zm0,6a2,2,0,1,1,2-2A2,2,0,0,1,46,48Z"></path><path d="M60.85,43.44,48.12,30.71a3,3,0,0,0-4.24,0L31.15,43.44a3,3,0,0,0,2.12,5.12A3.046,3.046,0,0,0,35,48V60a2.006,2.006,0,0,0,2,2H55a2.006,2.006,0,0,0,2-2V48a2.994,2.994,0,0,0,3.85-4.56ZM48,60H44V54h4Zm7,0H50V53a1,1,0,0,0-1-1H43a1,1,0,0,0-1,1v7H37V46.07l9-9,9,9Zm4.44-13.74a1,1,0,0,1-1.42,0L46.71,34.95a1.008,1.008,0,0,0-1.42,0L33.98,46.26a1,1,0,0,1-1.42-1.41L45.29,32.12a1.014,1.014,0,0,1,1.42,0L59.44,44.85A1,1,0,0,1,59.44,46.26Z"></path><path d="M18,14a4,4,0,1,0,4,4A4,4,0,0,0,18,14Zm0,6a2,2,0,1,1,2-2A2,2,0,0,1,18,20Z"></path><path d="M32.85,15.44,20.12,2.71a3,3,0,0,0-4.24,0L3.15,15.44a3,3,0,0,0,2.12,5.12A3.046,3.046,0,0,0,7,20V32a2.006,2.006,0,0,0,2,2H27a2.006,2.006,0,0,0,2-2V20a2.994,2.994,0,0,0,3.85-4.56ZM20,32H16V26h4Zm7,0H22V25a1,1,0,0,0-1-1H15a1,1,0,0,0-1,1v7H9V18.07l9-9,9,9Zm4.44-13.74a1,1,0,0,1-1.42,0L18.71,6.95a1.008,1.008,0,0,0-1.42,0L5.98,18.26a1,1,0,0,1-1.42-1.41L17.29,4.12a1.014,1.014,0,0,1,1.42,0L31.44,16.85A1,1,0,0,1,31.44,18.26Z"></path><path d="M9.465,52.465l1.414,1.414a3.072,3.072,0,0,1,4.242,0l1.414-1.414a5,5,0,0,0-7.07,0Z"></path><path d="M11.586,55.586,13,57l1.414-1.414A2,2,0,0,0,11.586,55.586Z"></path><path d="M13,46a8,8,0,1,0,8,8A8.009,8.009,0,0,0,13,46Zm0,14a6,6,0,1,1,6-6A6.006,6.006,0,0,1,13,60Z"></path><path d="M53.121,9.879l1.414-1.414a5,5,0,0,0-7.07,0l1.414,1.414A3.072,3.072,0,0,1,53.121,9.879Z"></path><path d="M49.586,11.586,51,13l1.414-1.414A2,2,0,0,0,49.586,11.586Z"></path><path d="M51,18a8,8,0,1,0-8-8A8.009,8.009,0,0,0,51,18ZM51,4a6,6,0,1,1-6,6A6.006,6.006,0,0,1,51,4Z"></path><rect x="50" y="20" width="2" height="2"></rect><rect x="50" y="24" width="2" height="2"></rect><rect x="12" y="38" width="2" height="2"></rect><rect x="12" y="42" width="2" height="2"></rect><rect x="39" y="9" width="2" height="2"></rect><rect x="35" y="9" width="2" height="2"></rect><rect x="31" y="9" width="2" height="2"></rect><rect x="31" y="52" width="2" height="2"></rect><rect x="27" y="52" width="2" height="2"></rect><rect x="23" y="52" width="2" height="2"></rect></g></svg>