<svg xmlns="http://www.w3.org/2000/svg" viewBox="0 0 64 64" x="0px" y="0px"><g data-name="Customer Relationship"><path d="M25,5H20a3.006,3.006,0,0,0-2.829,2H12V5A3,3,0,0,0,9,2H5A3,3,0,0,0,2,5V50H4V5A1,1,0,0,1,5,4H9a1,1,0,0,1,1,1V7.1A5.009,5.009,0,0,0,6,12V52a5.006,5.006,0,0,0,5,5h6.171A3.006,3.006,0,0,0,20,59h5a1,1,0,0,0,1-1V44a1,1,0,0,0-1-1H20a3.006,3.006,0,0,0-2.829,2H16V19h1.171A3.006,3.006,0,0,0,20,21h5a1,1,0,0,0,1-1V6A1,1,0,0,0,25,5ZM24,57H23V45h1ZM19,18a1,1,0,0,0-1-1H15a1,1,0,0,0-1,1V46a1,1,0,0,0,1,1h3a1,1,0,0,0,1-1,1,1,0,0,1,1-1h1V57H20a1,1,0,0,1-1-1,1,1,0,0,0-1-1H11a3,3,0,0,1-3-3V12a3,3,0,0,1,3-3h7a1,1,0,0,0,1-1,1,1,0,0,1,1-1h1V19H20A1,1,0,0,1,19,18Zm5,1H23V7h1Z"></path><rect x="2" y="52" width="2" height="2"></rect><rect x="2" y="56" width="2" height="2"></rect><rect x="2" y="60" width="2" height="2"></rect><rect x="10" y="31" width="2" height="2"></rect><rect x="10" y="25" width="2" height="4"></rect><rect x="10" y="35" width="2" height="4"></rect><rect x="28" y="50" width="2" height="2"></rect><rect x="28" y="46" width="2" height="2"></rect><rect x="28" y="54" width="2" height="2"></rect><rect x="28" y="12" width="2" height="2"></rect><rect x="28" y="8" width="2" height="2"></rect><rect x="28" y="16" width="2" height="2"></rect><path d="M53,23a9.01,9.01,0,0,0-8.941,8H28v2H44.059A9,9,0,1,0,53,23Zm0,16a7,7,0,1,1,7-7A7.009,7.009,0,0,1,53,39Z"></path><path d="M47,44a8.948,8.948,0,0,0-5.611,1.975L29.707,34.293l-1.414,1.414L39.975,47.389A8.992,8.992,0,1,0,47,44Zm0,16a7,7,0,1,1,7-7A7.009,7.009,0,0,1,47,60Z"></path><path d="M57.243,28.929a3.005,3.005,0,0,0-4.243,0h0a3,3,0,0,0-4.242,4.243l3.535,3.535a1,1,0,0,0,1.414,0l3.535-3.535A3,3,0,0,0,57.243,28.929Zm-1.415,2.829L53,34.586l-2.828-2.828a1,1,0,0,1,1.414-1.415l.707.707a1,1,0,0,0,1.414,0l.707-.706a1,1,0,1,1,1.414,1.414Z"></path><path d="M46.293,15.707a1,1,0,0,0,1.414,0l3.535-3.535A3,3,0,1,0,47,7.928h0a3,3,0,0,0-4.242,4.243ZM44.172,9.343a1,1,0,0,1,1.414,0l.707.707a1,1,0,0,0,1.414,0l.707-.706a1,1,0,1,1,1.414,1.414L47,13.586l-2.828-2.828A1,1,0,0,1,44.172,9.343Z"></path><path d="M47,49.928h0a3,3,0,0,0-4.242,4.243l3.535,3.535a1,1,0,0,0,1.414,0l3.535-3.535A3,3,0,1,0,47,49.928Zm2.828,2.83L47,55.586l-2.828-2.828a1,1,0,0,1,1.414-1.415l.707.707a1,1,0,0,0,1.414,0l.707-.706a1,1,0,1,1,1.414,1.414Z"></path><rect x="20" y="31" width="2" height="2"></rect><rect x="24" y="31" width="2" height="2"></rect><path d="M28.293,28.293l1.414,1.414L41.389,18.025a9.023,9.023,0,1,0-1.414-1.414ZM47,4a7,7,0,1,1-7,7A7.009,7.009,0,0,1,47,4Z"></path></g></svg>