<svg xmlns="http://www.w3.org/2000/svg" viewBox="0 0 64 64" x="0px" y="0px"><g data-name="First Aid Kit"><path d="M47,54.543l7.009-7.426a3.758,3.758,0,0,0,0-5.092,3.219,3.219,0,0,0-4.648,0l-1.634,1.731a1.029,1.029,0,0,1-1.454,0l-1.634-1.731a3.147,3.147,0,0,0-4.648,0,3.758,3.758,0,0,0,0,5.092Z"></path><rect x="30" y="33" width="4" height="6"></rect><path d="M55.44,34a.992.992,0,0,0,.969-.75L59.719,20H4.281L7.59,33.248A.993.993,0,0,0,8.56,34H28V32a1,1,0,0,1,1-1h6a1,1,0,0,1,1,1v2Z"></path><path d="M18,51v5h4V51a1,1,0,0,1,1-1h5V46H23a1,1,0,0,1-1-1V40H18v5a1,1,0,0,1-1,1H12v4h5A1,1,0,0,1,18,51Z"></path><path d="M4,60H60V27.128l-1.65,6.6A2.987,2.987,0,0,1,55.44,36H36v4a1,1,0,0,1-1,1H29a1,1,0,0,1-1-1V36H8.56a2.988,2.988,0,0,1-2.911-2.27L4,27.128ZM38.537,40.652a5.146,5.146,0,0,1,7.556,0l.907.961.907-.961a5.146,5.146,0,0,1,7.556,0,5.784,5.784,0,0,1,0,7.838l-7.736,8.2a1,1,0,0,1-1.454,0l-7.736-8.2A5.784,5.784,0,0,1,38.537,40.652ZM10,45a1,1,0,0,1,1-1h5V39a1,1,0,0,1,1-1h6a1,1,0,0,1,1,1v5h5a1,1,0,0,1,1,1v6a1,1,0,0,1-1,1H24v5a1,1,0,0,1-1,1H17a1,1,0,0,1-1-1V52H11a1,1,0,0,1-1-1Z"></path><path d="M41,8H23a1,1,0,0,0-1,1v9h2V12H40v6h2V9A1,1,0,0,0,41,8Z"></path></g></svg>