<svg xmlns="http://www.w3.org/2000/svg" viewBox="0 0 64 64" x="0px" y="0px"><g data-name="Cloud-Cloud Computing-Sent-Transfer-Sharing"><path d="M49,45a12.994,12.994,0,0,0,2.979-25.643,10,10,0,0,0-12.146-9.12A15,15,0,0,0,12,18c0,.43.023.875.07,1.347A12.993,12.993,0,0,0,15,45h6v4H11a1,1,0,0,0-1,1v4.184a3,3,0,1,0,2,0V51H22a1,1,0,0,0,1-1V45h8v9.184a3,3,0,1,0,2,0V45h8v5a1,1,0,0,0,1,1H52v3.184a3,3,0,1,0,2,0V50a1,1,0,0,0-1-1H43V45ZM11,58a1,1,0,1,1,1-1A1,1,0,0,1,11,58Zm21,0a1,1,0,1,1,1-1A1,1,0,0,1,32,58Zm21,0a1,1,0,1,1,1-1A1,1,0,0,1,53,58ZM33,43V38.816a3,3,0,1,0-2,0V43H23V38.816a3,3,0,1,0-2,0V43H15a10.992,10.992,0,0,1-1.667-21.859A1,1,0,0,0,14.171,20a12.99,12.99,0,0,1,24.292-8.128,1,1,0,0,0,1.177.484A8,8,0,0,1,50,20.024c0,.019-.007.121-.007.138a1,1,0,0,0,.835,1A10.993,10.993,0,0,1,49,43H43V38.816a3,3,0,1,0-2,0V43Zm-2-7a1,1,0,1,1,1,1A1,1,0,0,1,31,36ZM21,36a1,1,0,1,1,1,1A1,1,0,0,1,21,36Zm20,0a1,1,0,1,1,1,1A1,1,0,0,1,41,36Z"></path><path d="M17,18h2a8.009,8.009,0,0,1,8-8V8A10.011,10.011,0,0,0,17,18Z"></path><path d="M57,32H55a6.006,6.006,0,0,1-6,6v2A8.009,8.009,0,0,0,57,32Z"></path></g></svg>