<svg xmlns="http://www.w3.org/2000/svg" viewBox="0 0 64 64" x="0px" y="0px"><g><path d="M51,34.332V25a19.046,19.046,0,0,0-3.466-10.9l1.492-1.493a.967.967,0,0,0,.249-.326,1,1,0,0,0-.122-1.058,22,22,0,0,0-34.3,0,1,1,0,0,0,.078,1.339l1.54,1.54A19.046,19.046,0,0,0,13,25v9.332a14,14,0,1,0,6,0V25a12.878,12.878,0,0,1,2.086-7.04,5.024,5.024,0,0,0,1.586.277,5.081,5.081,0,0,0,3.147-1.093,9.981,9.981,0,0,1,12.363,0,5.05,5.05,0,0,0,4.732.815A12.878,12.878,0,0,1,45,25v9.332a14,14,0,1,0,6,0ZM28,48A12,12,0,1,1,16,36,12.013,12.013,0,0,1,28,48ZM17,25v9.051c-.332-.024-.662-.051-1-.051s-.668.027-1,.051V25a16.782,16.782,0,0,1,2.9-9.468l1.255,1.255c.063.063.137.106.2.165A14.865,14.865,0,0,0,17,25Zm22.419-9.427a11.983,11.983,0,0,0-14.837,0,3.028,3.028,0,0,1-4.015-.2l-3.584-3.584a20,20,0,0,1,30.034,0l-3.584,3.584A3.031,3.031,0,0,1,39.419,15.573Zm5.227,1.38c.065-.058.138-.1.2-.166L46.1,15.532A16.777,16.777,0,0,1,49,25v9.051c-.332-.024-.662-.051-1-.051s-.668.027-1,.051V25A14.869,14.869,0,0,0,44.646,16.953ZM48,60A12,12,0,1,1,60,48,12.013,12.013,0,0,1,48,60Z"></path><path d="M58.68,45.357a11,11,0,0,0-21.36,0,2.881,2.881,0,0,0,.541,2.477A3.021,3.021,0,0,0,40.259,49a2.943,2.943,0,0,0,.8-.12,6.993,6.993,0,0,0,13.877,0,2.976,2.976,0,0,0,.809.121,3.019,3.019,0,0,0,2.391-1.166A2.881,2.881,0,0,0,58.68,45.357ZM48,53a5,5,0,1,1,5-5A5.006,5.006,0,0,1,48,53Zm8.564-6.4a1.049,1.049,0,0,1-.823.4,1,1,0,0,1-.964-.756l-.008,0a6.99,6.99,0,0,0-13.538,0l-.008,0a1,1,0,0,1-.971.756,1.045,1.045,0,0,1-.816-.4.885.885,0,0,1-.174-.765,9,9,0,0,1,17.476,0A.885.885,0,0,1,56.564,46.6Z"></path><path d="M5.319,45.357a2.881,2.881,0,0,0,.542,2.477A3.024,3.024,0,0,0,8.259,49a2.982,2.982,0,0,0,.8-.12,6.993,6.993,0,0,0,13.877,0,2.976,2.976,0,0,0,.809.121,3.021,3.021,0,0,0,2.391-1.166,2.877,2.877,0,0,0,.541-2.477,11,11,0,0,0-21.361,0ZM16,53a5,5,0,1,1,5-5A5.006,5.006,0,0,1,16,53Zm8.738-7.164a.885.885,0,0,1-.174.765,1.049,1.049,0,0,1-.823.4,1,1,0,0,1-.963-.756l-.009,0a6.99,6.99,0,0,0-13.538,0l-.009,0a1,1,0,0,1-.97.756,1.045,1.045,0,0,1-.816-.4.888.888,0,0,1-.175-.765,9,9,0,0,1,17.477,0Z"></path></g></svg>