<svg xmlns="http://www.w3.org/2000/svg" viewBox="0 0 64 64" x="0px" y="0px"><g data-name="Payment-Money-Credit Card-Cash-Economy"><path d="M27,11a6,6,0,1,0,6,6A6.006,6.006,0,0,0,27,11Zm0,10a4,4,0,1,1,4-4A4,4,0,0,1,27,21Z"></path><path d="M59,35H52V6a1,1,0,0,0-1-1H3A1,1,0,0,0,2,6V44a1,1,0,0,0,1,1H28V56a3.009,3.009,0,0,0,3,3H59a3.009,3.009,0,0,0,3-3V38A3.009,3.009,0,0,0,59,35ZM50,7v5.92A7,7,0,0,1,44.08,7ZM4,7H9.92A7,7,0,0,1,4,12.92ZM4,21.08A7,7,0,0,1,9.92,27H4ZM20,43H4V41H20Zm0-4H4V37H20Zm0-4H4V33H20Zm0-4H4V29H20Zm-8.06-4A9.013,9.013,0,0,0,4,19.06V14.94A9.013,9.013,0,0,0,11.94,7H42.06A9.013,9.013,0,0,0,50,14.94v4.12A9.013,9.013,0,0,0,42.06,27ZM34,31V29H50v2Zm16,2v2H34V33Zm-5.92-6A7,7,0,0,1,50,21.08V27ZM28,38v5H22V29H32v6H31A3.009,3.009,0,0,0,28,38ZM60,56a1,1,0,0,1-1,1H31a1,1,0,0,1-1-1V38a1,1,0,0,1,1-1H59a1,1,0,0,1,1,1Z"></path><path d="M34,47h6a2,2,0,0,0,2-2V41a2,2,0,0,0-2-2H34a2,2,0,0,0-2,2v4A2,2,0,0,0,34,47Zm6-2H38V41h2Zm-6-4h2v4H34Z"></path><rect x="44" y="44" width="14" height="2"></rect><rect x="32" y="49" width="2" height="2"></rect><rect x="36" y="49" width="2" height="2"></rect><rect x="40" y="49" width="2" height="2"></rect><rect x="44" y="49" width="2" height="2"></rect><rect x="32" y="52" width="14" height="2"></rect><path d="M55,49H51a3,3,0,0,0,0,6h4a3,3,0,0,0,0-6Zm0,4H51a1,1,0,0,1,0-2h4a1,1,0,0,1,0,2Z"></path><rect x="48" y="40" width="2" height="2"></rect><rect x="52" y="40" width="2" height="2"></rect><rect x="56" y="40" width="2" height="2"></rect><rect x="44" y="40" width="2" height="2"></rect></g></svg>