<svg xmlns="http://www.w3.org/2000/svg" viewBox="0 0 64 64" x="0px" y="0px"><g data-name="Coffee Beans-Coffee-Seeds-Beans-Hand"><path d="M30.13,9.29,31,9.155v8.687a9.135,9.135,0,0,0-2.88,1.968,8.4,8.4,0,0,0-2.47,4.67,5.154,5.154,0,0,0,.17,2.31,8.882,8.882,0,0,1,1.37-.29,3.359,3.359,0,0,0,2.34-1.04,3.711,3.711,0,0,0,1.14-2.31,5.856,5.856,0,0,1,1.69-3.35,5.363,5.363,0,0,1,3.5-1.6l.43-.06a4.189,4.189,0,0,0-2.64-.87,6,6,0,0,0-.65.046V9.155l.87.135A5.983,5.983,0,0,0,40.4,5.52l.68-1.76-1.87-.3a5.99,5.99,0,0,0-6.53,3.78L32,9l-.68-1.76a5.99,5.99,0,0,0-6.53-3.78l-1.87.3.68,1.76A5.983,5.983,0,0,0,30.13,9.29Z"></path><path d="M33.78,21.22a3.757,3.757,0,0,0-1.14,2.32,5.835,5.835,0,0,1-1.69,3.34,5.444,5.444,0,0,1-3.48,1.6c-.16.02-.31.05-.46.07,2.02,1.62,5.59.93,8.18-1.67a8.476,8.476,0,0,0,2.48-4.68,4.968,4.968,0,0,0-.18-2.3,8.45,8.45,0,0,1-1.36.28A3.363,3.363,0,0,0,33.78,21.22Z"></path><path d="M43,25.13a2.11,2.11,0,0,0-1.85-2.12,1.941,1.941,0,0,0-1.56.58,1.757,1.757,0,0,0-.29.37c-.08.25-.17.5-.27.74A1.526,1.526,0,0,0,39,25v9a1,1,0,0,1-2,0V27.87c-.13.14-.26.29-.39.42A11.073,11.073,0,0,1,33,30.71V34a1,1,0,0,1-2,0V31.28a8.778,8.778,0,0,1-1.34.12A6.6,6.6,0,0,1,27,30.84V34a1,1,0,0,1-2,0V29.37a6.383,6.383,0,0,1-1.33-5.17,9.114,9.114,0,0,1,.78-2.58A2.028,2.028,0,0,0,23,21a2.015,2.015,0,0,0-2,2V37l.5.87a6.034,6.034,0,0,1,6.32,3.27l1.37,2.79-1.8.88-1.37-2.79a4.017,4.017,0,0,0-4.62-2.09l-.13.03a1,1,0,0,1-1.14-.46l-4-6.93a2.049,2.049,0,0,0-2.73-.73,2.006,2.006,0,0,0-.73,2.73l8.2,14.2a1.063,1.063,0,0,1,.13.5V62H42.994L42,49.08v-.12Z"></path></g></svg>