<svg xmlns="http://www.w3.org/2000/svg" viewBox="0 0 64 64" x="0px" y="0px"><path d="M60.827,43.173A3.971,3.971,0,0,0,58,42a3,3,0,0,0-3-3,3,3,0,0,0-3-3H46V33.949a10,10,0,0,0,0-19.9V3a1,1,0,0,0-1.8-.6L42,5.333,39.8,2.4a1.036,1.036,0,0,0-1.6,0L36,5.333,33.8,2.4a1.036,1.036,0,0,0-1.6,0L30,5.333,27.8,2.4a1.036,1.036,0,0,0-1.6,0L24,5.333,21.8,2.4a1.036,1.036,0,0,0-1.6,0L18,5.333,15.8,2.4a1.036,1.036,0,0,0-1.6,0L12,5.333,9.8,2.4a1.036,1.036,0,0,0-1.6,0L6,5.333,3.8,2.4A1,1,0,0,0,2,3V61a1,1,0,0,0,1.8.6L6,58.667,8.2,61.6a1.036,1.036,0,0,0,1.6,0L12,58.667,14.2,61.6a1.036,1.036,0,0,0,1.6,0L18,58.667,20.2,61.6a1.036,1.036,0,0,0,1.6,0L24,58.667,26.2,61.6a1.036,1.036,0,0,0,1.6,0L30,58.667,32.2,61.6a1.036,1.036,0,0,0,1.6,0L36,58.667,38.2,61.6a1.036,1.036,0,0,0,1.6,0L42,58.667,44.2,61.6a1,1,0,0,0,.8.4,1,1,0,0,0,1-1V50H58a4,4,0,0,0,2.827-6.827ZM56,42H48.561a4.124,4.124,0,0,0-.073-.438A3.908,3.908,0,0,0,48.277,41H55A1,1,0,0,1,56,42Zm-3-3H46.392L44.66,38H52A1,1,0,0,1,53,39Zm0-15a8,8,0,1,1-8-8A8.009,8.009,0,0,1,53,24ZM44,58l-1.2-1.6a1.036,1.036,0,0,0-1.6,0L39,59.333,36.8,56.4a1.036,1.036,0,0,0-1.6,0L33,59.333,30.8,56.4a1.036,1.036,0,0,0-1.6,0L27,59.333,24.8,56.4a1.036,1.036,0,0,0-1.6,0L21,59.333,18.8,56.4a1.036,1.036,0,0,0-1.6,0L15,59.333,12.8,56.4a1.036,1.036,0,0,0-1.6,0L9,59.333,6.8,56.4a1.036,1.036,0,0,0-1.6,0L4,58V6L5.2,7.6a1.036,1.036,0,0,0,1.6,0L9,4.667,11.2,7.6a1.036,1.036,0,0,0,1.6,0L15,4.667,17.2,7.6a1.036,1.036,0,0,0,1.6,0L21,4.667,23.2,7.6a1.036,1.036,0,0,0,1.6,0L27,4.667,29.2,7.6a1.036,1.036,0,0,0,1.6,0L33,4.667,35.2,7.6a1.036,1.036,0,0,0,1.6,0L39,4.667,41.2,7.6a1.036,1.036,0,0,0,1.6,0L44,6v8.051a10,10,0,0,0,0,19.9V36H41.2l-6.7-3.866A1.189,1.189,0,0,0,33.95,32H28V31a1,1,0,0,0-1-1H19a1,1,0,0,0-1,1V47a1,1,0,0,0,1,1h8a1,1,0,0,0,1-1V46h.649l4.726,3.781A1,1,0,0,0,34,50H44ZM26,32V46H20V32ZM58,48H34.351l-4.726-3.781A1,1,0,0,0,29,44H28V34h5.732l11.892,6.866a2,2,0,1,1-2,3.464l-8.13-4.694-1,1.732,8.13,4.694A4,4,0,0,0,48.089,44.6a4.1,4.1,0,0,0,.271-.6H58a2,2,0,0,1,0,4Z"></path><path d="M44,18v1a3,3,0,0,0,0,6h2a1,1,0,0,1,0,2H44a1,1,0,0,1-1-1H41a3,3,0,0,0,3,3v1h2V29a3,3,0,0,0,0-6H44a1,1,0,0,1,0-2h2a1,1,0,0,1,1,1h2a3,3,0,0,0-3-3V18Z"></path><rect x="6" y="30" width="4" height="2"></rect><rect x="12" y="30" width="4" height="2"></rect><rect x="6" y="34" width="4" height="2"></rect><rect x="12" y="34" width="4" height="2"></rect><rect x="6" y="22" width="4" height="2"></rect><rect x="12" y="22" width="20" height="2"></rect><rect x="6" y="26" width="4" height="2"></rect><rect x="12" y="26" width="20" height="2"></rect><rect x="6" y="38" width="4" height="2"></rect><rect x="12" y="38" width="4" height="2"></rect><rect x="6" y="42" width="4" height="2"></rect><rect x="12" y="42" width="4" height="2"></rect><rect x="6" y="46" width="4" height="2"></rect><rect x="12" y="46" width="4" height="2"></rect><rect x="6" y="50" width="4" height="2"></rect><rect x="12" y="50" width="18" height="2"></rect><rect x="6" y="12" width="10" height="2"></rect><rect x="6" y="16" width="16" height="2"></rect><rect x="18" y="12" width="4" height="2"></rect></svg>