<svg xmlns="http://www.w3.org/2000/svg" viewBox="0 0 64 64" x="0px" y="0px"><g><path d="M19,10c-8.45,0-17,2.06-17,6V48c0,3.94,8.55,6,17,6s17-2.06,17-6V16C36,12.06,27.45,10,19,10ZM34,48c0,1.63-5.84,4-15,4S4,49.63,4,48V42.97C7.02,44.96,13.03,46,19,46s11.98-1.04,15-3.03Zm0-8c0,1.63-5.84,4-15,4S4,41.63,4,40V34.97C7.02,36.96,13.03,38,19,38s11.98-1.04,15-3.03Zm0-8c0,1.63-5.84,4-15,4S4,33.63,4,32V26.97C7.02,28.96,13.03,30,19,30s11.98-1.04,15-3.03Zm0-8c0,1.63-5.84,4-15,4S4,25.63,4,24V18.97C7.02,20.96,13.03,22,19,22s11.98-1.04,15-3.03ZM19,20C9.84,20,4,17.63,4,16s5.84-4,15-4,15,2.37,15,4S28.16,20,19,20Z"></path><rect x="6" y="22" width="2" height="2"></rect><rect x="10" y="23" width="2" height="2"></rect><rect x="14" y="24" width="2" height="2"></rect><rect x="6" y="30" width="2" height="2"></rect><rect x="10" y="31" width="2" height="2"></rect><rect x="14" y="32" width="2" height="2"></rect><rect x="6" y="38" width="2" height="2"></rect><rect x="10" y="39" width="2" height="2"></rect><rect x="14" y="40" width="2" height="2"></rect><rect x="6" y="46" width="2" height="2"></rect><rect x="10" y="47" width="2" height="2"></rect><rect x="14" y="48" width="2" height="2"></rect><rect x="13" y="15" width="12" height="2"></rect><path d="M52,19a1,1,0,0,0-.553-.895l-4-2A1,1,0,0,0,46,17v6H44V17a1,1,0,0,0-1.447-.895l-4,2A1,1,0,0,0,38,19v6.93a3,3,0,0,0,1.336,2.5L41,29.535V45a3,3,0,0,0,3,3h2a3,3,0,0,0,3-3V29.535l1.664-1.109A3,3,0,0,0,52,25.93Zm-2,6.93a1,1,0,0,1-.445.832l-2.11,1.406A1,1,0,0,0,47,29V45a1,1,0,0,1-1,1H44a1,1,0,0,1-1-1V29a1,1,0,0,0-.445-.832l-2.11-1.406A1,1,0,0,1,40,25.93V19.618l2-1V24a1,1,0,0,0,1,1h4a1,1,0,0,0,1-1V18.618l2,1Z"></path><path d="M59,30H58V24h1a1,1,0,0,0,1-1V21a.986.986,0,0,0-.03-.24l-1-4A1,1,0,0,0,58,16H56a1,1,0,0,0-.97.76l-1,4A.986.986,0,0,0,54,21v2a1,1,0,0,0,1,1h1v6H55a3.009,3.009,0,0,0-3,3V45a3.009,3.009,0,0,0,3,3h4a3.009,3.009,0,0,0,3-3V33A3.009,3.009,0,0,0,59,30Zm-3-8.88L56.78,18h.44L58,21.12V22H56ZM60,45a1,1,0,0,1-1,1H58V35H56V46H55a1,1,0,0,1-1-1V33a1,1,0,0,1,1-1h4a1,1,0,0,1,1,1Z"></path></g></svg>