<svg xmlns="http://www.w3.org/2000/svg" viewBox="0 0 64 64" x="0px" y="0px"><g><path d="M54,20H40a2,2,0,0,0-2,2V34a2,2,0,0,0,2,2H54a2,2,0,0,0,2-2V22A2,2,0,0,0,54,20Zm0,7H48V22h6Zm-8-5v5H40V22Zm-6,7h6v5H40Zm8,5V29h6v5Z"></path><path d="M54,8H40a2,2,0,0,0-2,2v6a2,2,0,0,0,2,2H54a2,2,0,0,0,2-2V10A2,2,0,0,0,54,8Zm0,8H40V10H54Z"></path><rect x="50" y="12" width="2" height="2"></rect><rect x="46" y="12" width="2" height="2"></rect><rect x="42" y="12" width="2" height="2"></rect><path d="M20.5,16.33l-1-1.73a3.06,3.06,0,0,1-3,0l-1,1.73a5,5,0,0,0,5,0Z"></path><path d="M61,38H59.82A3,3,0,0,0,60,37V7a3.009,3.009,0,0,0-3-3H37a3.009,3.009,0,0,0-3,3V37a3,3,0,0,0,.18,1H32V28.71a5,5,0,0,0-3.14-4.65l-6.3-2.52L22,20.7v-.96A7.007,7.007,0,0,0,24.92,15H25a3,3,0,0,0,0-6h-.18a3.174,3.174,0,0,0-.6-1A2.974,2.974,0,0,0,25,6V3a1,1,0,0,0-1-1H15a4,4,0,0,0-4,4V9a3,3,0,0,0,0,6h.08A7.007,7.007,0,0,0,14,19.74v.96l-.56.84L7.13,24.06A5,5,0,0,0,4,28.71V38H3a1,1,0,0,0-1,1v4a1,1,0,0,0,1,1H6V61a1,1,0,0,0,1,1H57a1,1,0,0,0,1-1V44h3a1,1,0,0,0,1-1V39A1,1,0,0,0,61,38ZM25,11a1,1,0,0,1,0,2ZM11,13a1,1,0,0,1,0-2ZM36,7a1,1,0,0,1,1-1H57a1,1,0,0,1,1,1V37a1,1,0,0,1-1,1H37a1,1,0,0,1-1-1ZM23.97,24.26l4.15,1.66A3,3,0,0,1,30,28.71V38H28V28a2.006,2.006,0,0,0-2-2H23.62ZM13,6a2.006,2.006,0,0,1,2-2h8V6a1,1,0,0,1-1,1H14a3,3,0,0,0-1,.18Zm0,8V10a1,1,0,0,1,1-1h8a1,1,0,0,1,1,1v4a5,5,0,0,1-10,0Zm3,6.72v-.01a7.042,7.042,0,0,0,4,0v.01l-2,3.34Zm.68,5.02-.34.26H14.42l-.36-1.79.9-1.34Zm4.36-2.87.9,1.34L21.58,26H19.66l-.34-.26ZM26,28V38H10V28ZM6,28.71a3,3,0,0,1,1.88-2.79l4.15-1.66L12.38,26H10a2.006,2.006,0,0,0-2,2V38H6ZM25,59a1,1,0,0,1-1,1H16a1,1,0,0,1-1-1V57a1,1,0,0,1,1-1h1v2h2V56h2v2h2V56h1a1,1,0,0,1,1,1Zm12,0a1,1,0,0,1-1,1H28a1,1,0,0,1-1-1V57a1,1,0,0,1,1-1h1v2h2V56h2v2h2V56h1a1,1,0,0,1,1,1Zm0-6a1,1,0,0,1-1,1H28a1,1,0,0,1-1-1V51a1,1,0,0,1,1-1h1v2h2V50h2v2h2V50h1a1,1,0,0,1,1,1Zm12,6a1,1,0,0,1-1,1H40a1,1,0,0,1-1-1V57a1,1,0,0,1,1-1h1v2h2V56h2v2h2V56h1a1,1,0,0,1,1,1Zm7,1H50.82A3,3,0,0,0,51,59V57a3.009,3.009,0,0,0-3-3H40a2.923,2.923,0,0,0-1.32.32A2.923,2.923,0,0,0,39,53V51a3.009,3.009,0,0,0-3-3H28a3.009,3.009,0,0,0-3,3v2a2.923,2.923,0,0,0,.32,1.32A2.923,2.923,0,0,0,24,54H16a3.009,3.009,0,0,0-3,3v2a3,3,0,0,0,.18,1H8V44H56Zm4-18H4V40H60Z"></path><path d="M18,36a3,3,0,1,0-3-3A3,3,0,0,0,18,36Zm0-4a1,1,0,1,1-1,1A1,1,0,0,1,18,32Z"></path></g></svg>