<svg xmlns="http://www.w3.org/2000/svg" viewBox="0 0 64 64" x="0px" y="0px"><g data-name="Wall Clock"><rect x="31" y="10" width="2" height="2"></rect><rect x="20.5" y="12.813" width="2" height="2" transform="translate(-4.026 12.598) rotate(-29.995)"></rect><rect x="12.813" y="20.5" width="2" height="2" transform="translate(-11.713 22.715) rotate(-60.005)"></rect><rect x="10" y="31" width="2" height="2"></rect><rect x="12.813" y="41.5" width="2" height="2" transform="translate(-19.397 12.598) rotate(-29.995)"></rect><rect x="20.5" y="49.186" width="2" height="2" transform="translate(-32.713 43.718) rotate(-60.005)"></rect><rect x="31" y="52" width="2" height="2"></rect><rect x="41.5" y="49.186" width="2" height="2" transform="translate(-19.397 27.968) rotate(-29.995)"></rect><rect x="49.186" y="41.5" width="2" height="2" transform="translate(-11.711 64.719) rotate(-60.005)"></rect><rect x="52" y="31" width="2" height="2"></rect><rect x="49.186" y="20.5" width="2" height="2" transform="translate(-4.027 27.969) rotate(-29.995)"></rect><rect x="41.5" y="12.813" width="2" height="2" transform="translate(9.29 43.716) rotate(-60.005)"></rect><path d="M57,2H7A5.006,5.006,0,0,0,2,7V57a5.006,5.006,0,0,0,5,5H57a5.006,5.006,0,0,0,5-5V7A5.006,5.006,0,0,0,57,2Zm3,55a3,3,0,0,1-3,3H7a3,3,0,0,1-3-3V7A3,3,0,0,1,7,4H57a3,3,0,0,1,3,3Z"></path><path d="M56,6H8A2,2,0,0,0,6,8V56a2,2,0,0,0,2,2H56a2,2,0,0,0,2-2V8A2,2,0,0,0,56,6ZM8,56V8H56l0,48Z"></path><path d="M33,28.142V17H31V28.142A3.991,3.991,0,0,0,28.142,31H19v2h9.142A3.991,3.991,0,0,0,31,35.858V38h2V35.858A3.991,3.991,0,0,0,35.858,33H38V31H35.858A3.991,3.991,0,0,0,33,28.142ZM32,34a2,2,0,1,1,2-2A2,2,0,0,1,32,34Z"></path></g></svg>