<svg xmlns="http://www.w3.org/2000/svg" viewBox="0 0 64 64" x="0px" y="0px"><title>Propose-Love</title><g><path d="M37,30.08V22a2.984,2.984,0,0,0-1.419-2.55,3.055,3.055,0,0,0-3.025-.1h0A2.923,2.923,0,0,0,31,21.979V23a3,3,0,0,1-3,3H13A11,11,0,0,0,2,37a11.039,11.039,0,0,0,8,10.579V57a5,5,0,0,0,10,0V52h2a1,1,0,0,0,1-1V48h5a3,3,0,0,1,3,3v1.021a2.923,2.923,0,0,0,1.556,2.631A3.26,3.26,0,0,0,34.005,55,3.005,3.005,0,0,0,37,52V43.92a6.991,6.991,0,0,0,0-13.84ZM4,37a9,9,0,0,1,9-9h5V46H13a8.99,8.99,0,0,1-9-9ZM18,57a3,3,0,0,1-6,0V47.955c.332.03,6,.045,6,.045Zm3-7H20V48h1Zm14,2a.993.993,0,0,1-.475.851,1.066,1.066,0,0,1-1.081.009A.931.931,0,0,1,33,52.021V51a5.006,5.006,0,0,0-5-5H20V28h8a5.006,5.006,0,0,0,5-5V21.979a.929.929,0,0,1,.444-.839,1.072,1.072,0,0,1,1.082.009A1,1,0,0,1,35,22Zm2-10.1V32.1a5,5,0,0,1,0,9.8Z"></path><path d="M60.243,3.759A5.95,5.95,0,0,0,56.005,2h-.016A5.883,5.883,0,0,0,52,3.545,5.893,5.893,0,0,0,48.021,2H48a5.976,5.976,0,0,0-6,5.993c0,2.376,1.2,4.83,3.567,7.3a28.48,28.48,0,0,0,5.946,4.586,1,1,0,0,0,.97,0C52.874,19.658,62,14.515,62,8h0A5.96,5.96,0,0,0,60.243,3.759ZM60,8c0,4.585-6.2,8.729-8,9.836a26.649,26.649,0,0,1-4.99-3.935C45.011,11.824,44,9.837,44,8A4.012,4.012,0,0,1,45.14,5.191,3.91,3.91,0,0,1,48.019,4a3.972,3.972,0,0,1,3.186,1.626,1,1,0,0,0,.8.4h0a1,1,0,0,0,.8-.4A3.936,3.936,0,0,1,55.992,4H56A3.993,3.993,0,0,1,60,8Z"></path><path d="M52.706,23.5a3.5,3.5,0,0,0-2.094.358,3.487,3.487,0,0,0-1.845-1.052,4.01,4.01,0,0,0-4.634,3.244c-.6,3.413,3.717,7.277,4.211,7.706A1,1,0,0,0,49,34a.987.987,0,0,0,.358-.066c.611-.234,5.991-2.388,6.593-5.8h0A4.006,4.006,0,0,0,52.706,23.5Zm1.275,4.287c-.3,1.712-3.208,3.339-4.775,4.044-1.233-1.2-3.407-3.715-3.1-5.433a2,2,0,0,1,1.969-1.653,2.062,2.062,0,0,1,.348.03c.5.088,1.012.747,1.181.963a1,1,0,0,0,1.318.233,2.611,2.611,0,0,1,1.439-.5A2,2,0,0,1,53.981,27.786Z"></path></g></svg>