<svg xmlns="http://www.w3.org/2000/svg" viewBox="0 0 64 64" x="0px" y="0px"><g data-name="Idea Book"><path d="M38.3,32.7a8.994,8.994,0,0,1-.938.187c-.129.02-.259.035-.389.049-.236.025-.473.04-.711.047-.087,0-.173.017-.261.017s-.173-.015-.26-.017c-.239-.007-.476-.022-.713-.047-.13-.014-.258-.029-.386-.048a9.134,9.134,0,0,1-.945-.19c-.054-.014-.106-.034-.16-.049-.18-.051-.36-.1-.536-.164V34h6V32.485c-.172.061-.348.111-.524.161C38.416,32.663,38.359,32.684,38.3,32.7Z"></path><path d="M36,38a3,3,0,0,0,2.816-2H33.184A3,3,0,0,0,36,38Z"></path><path d="M36,17a6.995,6.995,0,0,0-3.5,13.052,6.644,6.644,0,0,0,1.69.7,7.08,7.08,0,0,0,5.305-.692A7,7,0,0,0,36,17Zm2.7,8.708a1,1,0,0,1-1.414,0L36,24.414l-1.292,1.293a1.027,1.027,0,0,1-1.414,0l-2-2,1.414-1.414L34,23.585l1.291-1.292a1,1,0,0,1,1.414,0L38,23.586l1.3-1.294,1.414,1.416Z"></path><path d="M51,54V50H16a5.006,5.006,0,0,0-5,5,5.009,5.009,0,0,0,5,5H51V56H16V54Z"></path><path d="M53,4H19V45H17V4H16a5.006,5.006,0,0,0-5,5V50.105c.009-.009.02-.017.029-.027.078-.079.163-.151.244-.226s.167-.158.255-.231.179-.138.27-.206.177-.138.27-.2.2-.123.3-.184.185-.118.282-.171.214-.106.322-.158.193-.1.293-.141.231-.087.347-.129c.1-.037.2-.078.3-.11.128-.04.26-.069.39-.1.1-.024.187-.053.284-.073.153-.032.31-.051.467-.073.078-.01.153-.027.231-.035A7.141,7.141,0,0,1,16,48H53Zm-7.1,8.687L47.313,14.1l-2.828,2.828-1.414-1.414ZM35,9h2v4H35Zm-8.9,3.687,2.828,2.828-1.414,1.414L24.687,14.1ZM21,23h4v2H21Zm5.1,12.313L24.687,33.9l2.828-2.828,1.414,1.414ZM41,31.453V35a5,5,0,0,1-10,0V31.453a9,9,0,1,1,10,0Zm4.9,3.86-2.828-2.828,1.414-1.414L47.313,33.9ZM51,25H47V23h4Z"></path></g></svg>