<svg xmlns="http://www.w3.org/2000/svg" viewBox="0 0 64 64" x="0px" y="0px"><g><rect x="41" y="48" width="2" height="2"></rect><rect x="45" y="49" width="2" height="2"></rect><rect x="41" y="55" width="2" height="2"></rect><rect x="45" y="56" width="2" height="2"></rect><rect x="44" y="41" width="12" height="2"></rect><path d="M50,36c-6.84,0-12,2.58-12,6V56c0,3.42,5.16,6,12,6s12-2.58,12-6V42C62,38.58,56.84,36,50,36ZM60,56c0,1.89-4.28,4-10,4s-10-2.11-10-4V52.41C42.11,53.99,45.73,55,50,55s7.89-1.01,10-2.59Zm0-7c0,1.89-4.28,4-10,4s-10-2.11-10-4V45.41C42.11,46.99,45.73,48,50,48s7.89-1.01,10-2.59ZM50,46c-5.72,0-10-2.11-10-4s4.28-4,10-4,10,2.11,10,4S55.72,46,50,46Z"></path><rect x="5" y="48" width="2" height="2"></rect><rect x="9" y="49" width="2" height="2"></rect><rect x="5" y="55" width="2" height="2"></rect><rect x="9" y="56" width="2" height="2"></rect><rect x="8" y="41" width="12" height="2"></rect><path d="M14,36C7.16,36,2,38.58,2,42V56c0,3.42,5.16,6,12,6s12-2.58,12-6V42C26,38.58,20.84,36,14,36ZM24,56c0,1.89-4.28,4-10,4S4,57.89,4,56V52.41C6.11,53.99,9.73,55,14,55s7.89-1.01,10-2.59Zm0-7c0,1.89-4.28,4-10,4S4,50.89,4,49V45.41C6.11,46.99,9.73,48,14,48s7.89-1.01,10-2.59ZM14,46C8.28,46,4,43.89,4,42s4.28-4,10-4,10,2.11,10,4S19.72,46,14,46Z"></path><path d="M53.29,29.29,52,30.59V18.82A3,3,0,1,0,48.18,15H45.95a13.985,13.985,0,0,0-27.9,0H15.82A3,3,0,1,0,12,18.82V30.59l-1.29-1.3L9.29,30.71l3,3a1.014,1.014,0,0,0,1.42,0l3-3-1.42-1.42L14,30.59V18.82A3.035,3.035,0,0,0,15.82,17h2.23a13.985,13.985,0,0,0,27.9,0h2.23A3.035,3.035,0,0,0,50,18.82V30.59l-1.29-1.3-1.42,1.42,3,3a1.014,1.014,0,0,0,1.42,0l3-3ZM13,17a1,1,0,1,1,1-1A1,1,0,0,1,13,17ZM39.31,6.51a12.055,12.055,0,0,1-1.04.72,12.563,12.563,0,0,0-1.19-2.08A11.766,11.766,0,0,1,39.31,6.51ZM39,15a1,1,0,1,1-1,1A1,1,0,0,1,39,15Zm-2.82,0H33V12.82a2.991,2.991,0,0,0,1.91-2.14,13.365,13.365,0,0,0,2.26-.67,20.488,20.488,0,0,1,.66,3.23A3.014,3.014,0,0,0,36.18,15Zm1.65,3.76a20.488,20.488,0,0,1-.66,3.23A13.812,13.812,0,0,0,33,21.05V17h3.18A3.014,3.014,0,0,0,37.83,18.76ZM33,4.19c1.34.48,2.56,1.92,3.47,3.95a12.216,12.216,0,0,1-1.78.55A3.058,3.058,0,0,0,33,7.18Zm-2,0V7.18a3.058,3.058,0,0,0-1.69,1.51,12.38,12.38,0,0,1-1.79-.56C28.41,6.11,29.64,4.67,31,4.19Zm-4.12.97a13.944,13.944,0,0,0-1.15,2.06c-.36-.22-.71-.46-1.04-.71A11.728,11.728,0,0,1,26.88,5.16ZM23.19,7.88A15.759,15.759,0,0,0,25,9.13,22.442,22.442,0,0,0,24.03,15H20.05A11.958,11.958,0,0,1,23.19,7.88ZM20.05,17h3.97c.01.25.03.49.04.73a2.972,2.972,0,0,0,.93,5.08.235.235,0,0,0,.02.08,12.9,12.9,0,0,0-1.81,1.24A11.938,11.938,0,0,1,20.05,17Zm4.63,8.49a12.086,12.086,0,0,1,1.05-.71,13.854,13.854,0,0,0,1.16,2.06A12.22,12.22,0,0,1,24.68,25.49ZM26,21a1,1,0,1,1,1-1A1,1,0,0,1,26,21Zm5,6.81c-1.33-.48-2.57-1.89-3.48-3.94A11.713,11.713,0,0,1,31,23.05Zm0-6.76a12.7,12.7,0,0,0-2.38.38A2.908,2.908,0,0,0,29,20a3,3,0,0,0-2.98-3H31ZM31,15H26.03a20.264,20.264,0,0,1,.81-4.99,12.989,12.989,0,0,0,2.25.67A2.991,2.991,0,0,0,31,12.82Zm1-4a1,1,0,1,1,1-1A1,1,0,0,1,32,11Zm1,16.81V23.05a12.028,12.028,0,0,1,3.47.81C35.56,25.89,34.34,27.33,33,27.81Zm4.08-.96a12.563,12.563,0,0,0,1.19-2.08,12.2,12.2,0,0,1,1.05.72A11.844,11.844,0,0,1,37.08,26.85Zm3.72-2.72a12.9,12.9,0,0,0-1.81-1.24,21.8,21.8,0,0,0,.84-4.02A3.02,3.02,0,0,0,41.82,17h2.13A11.938,11.938,0,0,1,40.8,24.13ZM41.82,15a3.02,3.02,0,0,0-1.99-1.87,22.432,22.432,0,0,0-.83-4,15.759,15.759,0,0,0,1.81-1.25A11.958,11.958,0,0,1,43.95,15ZM51,17a1,1,0,1,1,1-1A1,1,0,0,1,51,17Z"></path><rect x="54" y="19" width="2" height="2"></rect><rect x="54" y="23" width="2" height="2"></rect><rect x="8" y="19" width="2" height="2"></rect><rect x="8" y="23" width="2" height="2"></rect></g></svg>