<svg xmlns="http://www.w3.org/2000/svg" viewBox="0 0 64 64" x="0px" y="0px"><title>Speech Bubble_19</title><g data-name="Speech Bubble"><path d="M32,2A30,30,0,1,0,62,32,30.034,30.034,0,0,0,32,2Zm0,58A28,28,0,1,1,60,32,28.032,28.032,0,0,1,32,60Z"></path><path d="M53,18H23a1,1,0,0,0-1,1v5H9a1,1,0,0,0-1,1V39a1,1,0,0,0,1,1h4v7a1,1,0,0,0,.684.949A1.019,1.019,0,0,0,14,48a1,1,0,0,0,.8-.4L20.491,40H39a1,1,0,0,0,1-1V34h1.507L47.2,41.6a1,1,0,0,0,.8.4,1.019,1.019,0,0,0,.316-.051A1,1,0,0,0,49,41V34h4a1,1,0,0,0,1-1V19A1,1,0,0,0,53,18ZM38,38H19.99a1,1,0,0,0-.8.4L15,44V39a1,1,0,0,0-1-1H10V26H22v7a1,1,0,0,0,1,1H38Zm14-6H48a1,1,0,0,0-1,1v5l-4.192-5.6a1,1,0,0,0-.8-.4H24V20H52Z"></path></g></svg>