<svg xmlns="http://www.w3.org/2000/svg" viewBox="0 0 64 64" x="0px" y="0px"><g data-name="Payment-Credit Card"><path d="M57.707,12.293l-10-10A1,1,0,0,0,47,2H25a5.006,5.006,0,0,0-5,5v9H15a3,3,0,0,0-3,3v7.586L7.465,31.122A4.968,4.968,0,0,0,6,34.657V54H5a1,1,0,0,0-1,1v6a1,1,0,0,0,1,1H24a1,1,0,0,0,1-1V55a1,1,0,0,0-1-1H22v-.1A5.006,5.006,0,0,0,25.89,50H53a5.006,5.006,0,0,0,5-5V13A1,1,0,0,0,57.707,12.293ZM48,5.414,54.586,12H49a1,1,0,0,1-1-1ZM23,56v4H6V56Zm1-7a3,3,0,0,1-3,3,1,1,0,0,0-1,1v1H8V34.657a3.017,3.017,0,0,1,.879-2.121L12,29.414V37h2.52a1,1,0,0,0,.707-.293l4.266-4.259.7.7a3.056,3.056,0,0,1,.839,2.667,3.013,3.013,0,0,1-.835,1.583l-4.9,4.9A1,1,0,0,0,15,43v3a3,3,0,0,1-3,3v2a5.006,5.006,0,0,0,5-5h7Zm0-5H17v-.586l4.607-4.607a5.034,5.034,0,0,0,1.384-2.617h0l0-.016a5.067,5.067,0,0,0-1.387-4.442l-.7-.7a2.005,2.005,0,0,0-2.834,0L14.105,35H14V19a1,1,0,0,1,1-1h9Zm32,1a3,3,0,0,1-3,3H26V46h4a3,3,0,0,0,3-3V19a3,3,0,0,0-3-3H22V7a3,3,0,0,1,3-3H46v7a3,3,0,0,0,3,3h7ZM26,44V18h1V44Zm3,0V18h1a1,1,0,0,1,1,1V43a1,1,0,0,1-1,1Z"></path><rect x="26" y="8" width="2" height="2"></rect><rect x="30" y="8" width="4" height="2"></rect><rect x="26" y="12" width="8" height="2"></rect><rect x="36" y="23" width="18" height="2"></rect><rect x="36" y="28" width="2" height="2"></rect><rect x="40" y="28" width="14" height="2"></rect><rect x="50" y="18" width="4" height="2"></rect><rect x="36" y="18" width="12" height="2"></rect><path d="M53,34H37a1,1,0,0,0-1,1v8a1,1,0,0,0,1,1H53a1,1,0,0,0,1-1V35A1,1,0,0,0,53,34Zm-1,8H38V36H52Z"></path></g></svg>