<svg xmlns="http://www.w3.org/2000/svg" viewBox="0 0 64 64" x="0px" y="0px"><g><path d="M60.43,51.71a4.968,4.968,0,0,0-8.46,2.84L48.41,51l7.79-7.78a7.026,7.026,0,0,0,0-9.9,1.014,1.014,0,0,0-1.42,0L47,41.1l-7.52-7.52A5.009,5.009,0,0,0,41,30a4.9,4.9,0,0,0-.33-1.79A4.989,4.989,0,0,0,38,19V17A15,15,0,1,0,8,17v2a4.989,4.989,0,0,0-2.67,9.21A4.9,4.9,0,0,0,5,30a5,5,0,0,0,5,5,5.058,5.058,0,0,0,1.78-.32,4.978,4.978,0,0,0,6.21,1.9,1.01,1.01,0,0,1-.69.91L8.31,40.3A8.941,8.941,0,0,0,2,48.88V61a1,1,0,0,0,1,1H43a1,1,0,0,0,1-1V55.41l3-3,6.36,6.37a5.005,5.005,0,0,0,8.54-3.54A4.939,4.939,0,0,0,60.43,51.71ZM55.42,35.52a4.992,4.992,0,0,1-.64,6.28l-3.54,3.54-2.82-2.82ZM36,17v3.15a1.014,1.014,0,0,0,.4.8.965.965,0,0,0,.87.16A2.942,2.942,0,0,1,38,21a3.009,3.009,0,0,1,3,3,2.968,2.968,0,0,1-2.02,2.81,1.035,1.035,0,0,0-.62.64.99.99,0,0,0,.13.88A2.964,2.964,0,0,1,39,30a3,3,0,0,1-4.67,2.49.993.993,0,0,0-.87-.12,1.035,1.035,0,0,0-.64.62A2.963,2.963,0,0,1,28,34.21v-.42A11.014,11.014,0,0,0,34,24V16a1,1,0,0,0-1-1,7.75,7.75,0,0,1-6.22-2.71c.15-.16.29-.31.42-.47a15.167,15.167,0,0,0,3.13-5.54A12.975,12.975,0,0,1,36,17Zm-.08,22.74L28.7,37.49a1.01,1.01,0,0,1-.69-.91,4.978,4.978,0,0,0,6.21-1.9A5.058,5.058,0,0,0,36,35c.21,0,.4-.04.61-.06A6.993,6.993,0,0,0,35.92,39.74ZM23,33a9.014,9.014,0,0,1-9-9V17.98a19.236,19.236,0,0,0,11.31-4.32A9.468,9.468,0,0,0,32,16.96V24A9.014,9.014,0,0,1,23,33Zm-7,2a2.985,2.985,0,0,1-2.82-2.01,1.035,1.035,0,0,0-.64-.62.993.993,0,0,0-.87.12,3,3,0,0,1-4.16-4.16.99.99,0,0,0,.13-.88,1.035,1.035,0,0,0-.62-.64A2.968,2.968,0,0,1,5,24a3.009,3.009,0,0,1,3-3,2.942,2.942,0,0,1,.73.11.97.97,0,0,0,.87-.16,1.014,1.014,0,0,0,.4-.8V17A12.974,12.974,0,0,1,28.53,5.25a13.265,13.265,0,0,1-2.84,5.26,10.137,10.137,0,0,1-.86.9A17.117,17.117,0,0,1,13,16a1,1,0,0,0-1,1v7a11.014,11.014,0,0,0,6,9.79v.42A2.982,2.982,0,0,1,16,35Zm0,4.99,1.9-.6A3.007,3.007,0,0,0,20,36.53V34.57a10.68,10.68,0,0,0,6,0v1.96a3.007,3.007,0,0,0,2.1,2.86l1.9.6V41a7,7,0,1,1-14,0ZM42,60H38.57a5.079,5.079,0,0,0,2.07-1.22L42,57.41Zm-7.02-2.64a3,3,0,1,1,4.24,0A3.056,3.056,0,0,1,34.98,57.36ZM42,54.24A5.013,5.013,0,1,0,35.63,60H11.8a4.444,4.444,0,0,0-.63-1.36A6.794,6.794,0,0,1,10,55a6.609,6.609,0,0,1,1.71-4.29l-1.42-1.42A8.723,8.723,0,0,0,8,55a8.855,8.855,0,0,0,1.52,4.77,1.665,1.665,0,0,1,.12.23H4V48.88A6.964,6.964,0,0,1,8.91,42.2L14,40.61V41a9,9,0,0,0,18,0v-.39l4.94,1.55a7.2,7.2,0,0,0,.87,1.06l3.97,3.97A7,7,0,0,1,42,48.88Zm2-1.65V49.41L45.59,51Zm-.53-6.54-4.25-4.24a5,5,0,0,1-.63-6.3L49.83,46.76,47,49.59ZM59.02,57.36a3.056,3.056,0,0,1-4.24,0,3,3,0,1,1,4.24,0Z"></path><circle cx="19" cy="21" r="2"></circle><circle cx="27" cy="21" r="2"></circle><path d="M26.532,27.542l-1.4-1.424a3.082,3.082,0,0,1-4.256,0l-1.4,1.424a5.007,5.007,0,0,0,7.064,0Z"></path></g></svg>