<svg xmlns="http://www.w3.org/2000/svg" viewBox="0 0 64 64" x="0px" y="0px"><g><path d="M38.828,6.112a14.967,14.967,0,0,1,13.15,14.4l-2.224-2.385L48.291,19.5l3.858,4.137a1,1,0,0,0,1.413.049L57.7,19.823,56.336,18.36l-2.359,2.2a16.991,16.991,0,0,0-32.8-5.784l1.861.73A14.987,14.987,0,0,1,38.828,6.112Z"></path><path d="M52.82,27.22A16.969,16.969,0,0,1,37.01,38a16.247,16.247,0,0,1-2.08-.13A16.944,16.944,0,0,1,20.02,21.44l-2.36,2.2L16.3,22.18l4.14-3.86a.988.988,0,0,1,1.41.05l3.86,4.13-1.46,1.37-2.23-2.39a14.992,14.992,0,0,0,28.94,5.01Z"></path><path d="M38,24a1,1,0,0,0,0-2Z"></path><path d="M37,11A10,10,0,1,0,47,21,10,10,0,0,0,37,11Zm4,12a3,3,0,0,1-3,3v2H36V26a3,3,0,0,1-3-3h2a1,1,0,0,0,1,1V22a3,3,0,0,1,0-6V14h2v2a3,3,0,0,1,3,3H39a1,1,0,0,0-1-1v2A3,3,0,0,1,41,23Z"></path><path d="M35,19a1,1,0,0,0,1,1V18A1,1,0,0,0,35,19Z"></path><path d="M19,46H18V56h3.92a1.148,1.148,0,0,1,.19.01l12.78,1.42a14.908,14.908,0,0,0,9.16-1.93l13.63-7.87a1.968,1.968,0,0,0,.94-1.21,2.009,2.009,0,0,0-2.94-2.25L45.01,50.33a4.9,4.9,0,0,1-2.5.67H32V49H42a2.006,2.006,0,0,0,2-2,2.015,2.015,0,0,0-2-2H35a.937.937,0,0,1-.37-.07l-3.21-1.28A8.881,8.881,0,0,0,28.07,43h-1.3a8.858,8.858,0,0,0-4.63,1.29l-2.63,1.57A1,1,0,0,1,19,46Z"></path><rect x="2" y="46" width="6" height="11"></rect><path d="M16,58V45H10V58Zm-4-3h2v2H12Z"></path></g></svg>