<svg xmlns="http://www.w3.org/2000/svg" viewBox="0 0 64 64" x="0px" y="0px"><g data-name="Shopping Bag-Calculator-Shopping-Commerce-Bag"><circle cx="30" cy="22" r="1"></circle><rect x="52" y="46" width="4.001" height="4"></rect><rect x="52" y="40" width="4" height="4"></rect><path d="M4.35,48l-.14,2.85A3.008,3.008,0,0,0,7.2,54H34V48Z"></path><path d="M21,26a8,8,0,1,0,8,8A8.009,8.009,0,0,0,21,26Zm-1,7h2a3,3,0,0,1,0,6v1H20V39a3,3,0,0,1-3-3h2a1,1,0,0,0,1,1h2a1,1,0,0,0,0-2H20a3,3,0,0,1,0-6V28h2v1a3,3,0,0,1,3,3H23a1,1,0,0,0-1-1H20a1,1,0,0,0,0,2Z"></path><path d="M36.35,22.07,36.05,16H31v3.18a3,3,0,1,1-2,0V16H13v3.18a3,3,0,1,1-2,0V16H5.95L4.45,46H34V25A3.012,3.012,0,0,1,36.35,22.07ZM21,44A10,10,0,1,1,31,34,10.011,10.011,0,0,1,21,44Z"></path><circle cx="12" cy="22" r="1"></circle><path d="M56,28H40v6H56ZM45,32H43V30h2Zm4,0H47V30h2Zm4,0H51V30h2Z"></path><rect x="40" y="40" width="4" height="4"></rect><rect x="40" y="46" width="4" height="4"></rect><path d="M37,60H59a1,1,0,0,0,1-1V25a1,1,0,0,0-1-1H37a1,1,0,0,0-1,1V59A1,1,0,0,0,37,60Zm1-32a2,2,0,0,1,2-2H56a2,2,0,0,1,2,2v6a2,2,0,0,1-2,2H40a2,2,0,0,1-2-2Zm0,12a2,2,0,0,1,2-2H56a2,2,0,0,1,2,2V56a2,2,0,0,1-2,2H40a2,2,0,0,1-2-2Z"></path><path d="M31,16H29V12a8,8,0,0,0-16,0v4H11V12a10,10,0,0,1,20,0Z"></path><rect x="46" y="52" width="4" height="4"></rect><rect x="40" y="52" width="4" height="4"></rect><rect x="46" y="46" width="4" height="4"></rect><rect x="52" y="52" width="4.001" height="4"></rect><rect x="46" y="40" width="4" height="4"></rect></g></svg>