<svg xmlns="http://www.w3.org/2000/svg" viewBox="0 0 64 64" x="0px" y="0px"><g><path d="M22,13V8.1a5,5,0,1,0,3.753,9.066l-3.459-3.459A.994.994,0,0,1,22,13Z"></path><path d="M27.167,15.753A4.961,4.961,0,0,0,27.9,14H25.414Z"></path><path d="M60,11a3,3,0,0,0-3-3H52v2h5a1,1,0,0,1,1,1V39a1,1,0,0,1-1,1H7a1,1,0,0,1-1-1V11a1,1,0,0,1,1-1h5V8H7a3,3,0,0,0-3,3V43a3,3,0,0,0,3,3H57a3,3,0,0,0,3-3ZM33,44H31V42h2Z"></path><path d="M24,8.1V12h3.9A5.016,5.016,0,0,0,24,8.1Z"></path><rect x="22" y="58" width="20" height="2"></rect><rect x="26" y="48" width="12" height="8"></rect><rect x="8" y="12" width="4" height="26"></rect><polygon points="30 38 34 38 34 28 30 28 30 31 30 38"></polygon><polygon points="36 38 40 38 40 24 36 24 36 27 36 38"></polygon><rect x="52" y="12" width="4" height="26"></rect><rect x="24" y="32" width="4" height="6"></rect><path d="M50,38V4H14V38h8V31a1,1,0,0,1,1-1h5V27a1,1,0,0,1,1-1h5V23a1,1,0,0,1,1-1h6a1,1,0,0,1,1,1V38ZM32,8H42v2H32Zm0,4H42v2H32Zm-9,8a7,7,0,1,1,7-7A7.008,7.008,0,0,1,23,20Zm9-2V16H42v2Z"></path></g></svg>