<svg xmlns="http://www.w3.org/2000/svg" viewBox="0 0 64 64" x="0px" y="0px"><g data-name="Payment"><polygon points="45 43 48 43 48 45 16 45 16 43 19 43 19 29 12 29 12 59 52 59 52 29 45 29 45 43"></polygon><path d="M4,56a3,3,0,0,0,3,3h3V29H7a3,3,0,0,0-3,3ZM6,40H8v8H6ZM6,50H8v4H6Z"></path><path d="M60,32a3,3,0,0,0-3-3H54V59h3a3,3,0,0,0,3-3ZM58,48H56V40h2Z"></path><circle cx="32" cy="24" r="4"></circle><path d="M21,43H43V6a1,1,0,0,0-1-1H22a1,1,0,0,0-1,1Zm2-31.1a1,1,0,0,1,.8-.979A4,4,0,0,0,26.921,7.8,1,1,0,0,1,27.9,7h8.2a1,1,0,0,1,.979.8A4,4,0,0,0,40.2,10.921a1,1,0,0,1,.8.979V16H39V12.658A5.982,5.982,0,0,1,35.342,9H28.658A5.982,5.982,0,0,1,25,12.658V16H23ZM38,24a6,6,0,1,1-6-6A6.006,6.006,0,0,1,38,24ZM23,32h2v3.342A5.982,5.982,0,0,1,28.658,39h6.684A5.982,5.982,0,0,1,39,35.342V32h2v4.1a1,1,0,0,1-.8.979A4,4,0,0,0,37.079,40.2a1,1,0,0,1-.979.8H27.9a1,1,0,0,1-.979-.8A4,4,0,0,0,23.8,37.079,1,1,0,0,1,23,36.1Z"></path></g></svg>