<svg xmlns="http://www.w3.org/2000/svg" viewBox="0 0 64 64" x="0px" y="0px"><g data-name="Ruler"><circle cx="48" cy="16" r="1"></circle><path d="M58.013,17.574,46.7,6.26,43.87,9.088,45.284,10.5,43.87,11.917,42.456,10.5l-2.829,2.829,1.415,1.414-1.414,1.414-1.415-1.414-2.828,2.829L36.8,18.988,35.385,20.4l-1.414-1.414-2.829,2.828,1.415,1.414-1.414,1.415L29.728,23.23,26.9,26.059l1.414,1.414L26.9,28.887l-1.414-1.414L22.657,30.3l1.414,1.414L22.657,33.13l-1.415-1.414-2.828,2.828,1.414,1.414-1.414,1.415L17,35.958l-2.828,2.829L15.586,40.2l-1.414,1.414L12.758,40.2,9.929,43.03l1.414,1.414L9.929,45.858,8.515,44.444,5.687,47.272,17,58.586ZM48,13a3,3,0,1,1-3,3A3,3,0,0,1,48,13Z"></path></g></svg>