<svg xmlns="http://www.w3.org/2000/svg" viewBox="0 0 64 64" x="0px" y="0px"><g data-name="Alternative Medicine"><rect x="16" y="56" width="32" height="4"></rect><path d="M60,43V28H4v4H57v2H4v9A11.013,11.013,0,0,0,15,54H49A11.013,11.013,0,0,0,60,43Z"></path><path d="M34,26h5.5A12.926,12.926,0,0,0,33,8.007,12.926,12.926,0,0,0,26.5,26H32V22.414l-4.707-4.707,1.414-1.414L32,19.586V13h2v9.638l3.319-3.319,1.414,1.414L34,25.466Z"></path><path d="M19.04,26,14.678,7.924a4.314,4.314,0,0,0-4.2-3.3,3.853,3.853,0,0,0-.74.062A4.346,4.346,0,0,0,6.174,9.43L8.043,26Z"></path><path d="M50.293,16.121l-1.99,1.99a7.975,7.975,0,0,0,8.59-10,7.975,7.975,0,0,0-10,8.59l3.4-3.4V9.464h2v1.829l1.829-1.829,1.414,1.414-3.243,3.243h1.828v2Z"></path></g></svg>