<svg xmlns="http://www.w3.org/2000/svg" viewBox="0 0 64 64" x="0px" y="0px"><g><path d="M55,36H48V28a4,4,0,0,0-8,0V39.724l-1.16-1.382a4,4,0,1,0-6.126,5.131l7.519,8.969,0,0A5,5,0,0,0,43,55.576V61a1,1,0,0,0,1,1H58a1,1,0,0,0,1-1V55.576A5,5,0,0,0,62,51V43A7.009,7.009,0,0,0,55,36ZM33.783,40.729a1.977,1.977,0,0,1,.71-1.353,2.052,2.052,0,0,1,2.812.247l2.7,3.21V49.05l-5.755-6.864A1.982,1.982,0,0,1,33.783,40.729ZM57,60H45V56H57Zm3-9a3,3,0,0,1-3,3H45a3,3,0,0,1-3-3V28a2,2,0,0,1,4,0V41h2V38h3v3h2V38h2a5,5,0,0,1,1,.1V42h2V39.026A4.977,4.977,0,0,1,60,43Z"></path><path d="M4,49V20H36V35h2V5a3,3,0,0,0-3-3H5A3,3,0,0,0,2,5V49a3,3,0,0,0,3,3H35V50H5A1,1,0,0,1,4,49ZM5,4H35a1,1,0,0,1,1,1V18H4V5A1,1,0,0,1,5,4Z"></path><path d="M7,16H33a1,1,0,0,0,1-1V7a1,1,0,0,0-1-1H7A1,1,0,0,0,6,7v8A1,1,0,0,0,7,16ZM8,8H32v6H8Z"></path><path d="M34,35V25a1,1,0,0,0-1-1H7a1,1,0,0,0-1,1V45a1,1,0,0,0,1,1H31V44H24V26h8v9ZM14,26v8H8V26ZM8,36h6v8H8Zm8,8V36h6v8Zm6-10H16V26h6Z"></path><rect x="19" y="10" width="2" height="2"></rect><rect x="23" y="10" width="2" height="2"></rect><rect x="15" y="10" width="2" height="2"></rect></g></svg>