<svg xmlns="http://www.w3.org/2000/svg" viewBox="0 0 64 64" x="0px" y="0px"><g data-name="Home Loan"><polygon points="26 31.618 19 28.118 12 31.618 12 32 26 32 26 31.618"></polygon><path d="M46,47.216l-.8,1.392a.987.987,0,0,1-.315.334l-5.4,3.566L37.6,55.768a2.984,2.984,0,0,1-1.822,1.4,3.019,3.019,0,0,1-.781.1,3,3,0,0,1-2.593-4.5l1.882-3.26.388-6.46a.989.989,0,0,1,.132-.44L46,23.215V15a5.006,5.006,0,0,0-5-5H33v2.071A7.011,7.011,0,0,1,39,19v2a1,1,0,0,1-1,1H12a1,1,0,0,1-1-1V19a7.011,7.011,0,0,1,6-6.929V10H9a5.006,5.006,0,0,0-5,5V55a5.006,5.006,0,0,0,5,5H41a5.006,5.006,0,0,0,5-5ZM10,31a1,1,0,0,1,.553-.895l8-4a1,1,0,0,1,.894,0l8,4A1,1,0,0,1,28,31v2a1,1,0,0,1-1,1H26v9a1,1,0,0,1-1,1H13a1,1,0,0,1-1-1V34H11a1,1,0,0,1-1-1ZM8,50h6v2H8Zm12,6H8V54H20Zm10,0H22V54h8Zm0-4H16V50H30Zm0-4H8V46H30Z"></path><circle cx="25" cy="9" r="1"></circle><path d="M14,42h1V37a1,1,0,0,1,1-1h6a1,1,0,0,1,1,1v5h1V34H14Z"></path><rect x="17" y="38" width="4" height="4"></rect><path d="M19,13a1,1,0,0,1-1,1,5.006,5.006,0,0,0-5,5v1H37V19a5.006,5.006,0,0,0-5-5,1,1,0,0,1-1-1V7a3,3,0,0,0-3-3H22a3,3,0,0,0-3,3Zm6-7a3,3,0,1,1-3,3A3,3,0,0,1,25,6Z"></path><polygon points="52.366 26.19 42.205 43.789 44.203 46.329 54.964 27.689 52.366 26.19"></polygon><path d="M59.464,19.9a3,3,0,0,0-1.1-4.1l-1.732-1a3,3,0,0,0-4.1,1.1l-1.5,2.6,6.928,4Z"></path><rect x="52" y="19.091" width="2" height="8" transform="translate(6.502 57.444) rotate(-59.999)"></rect><polygon points="42.872 47.872 40.461 44.808 36.603 44.253 36.303 49.247 38.697 50.629 42.872 47.872"></polygon><polygon points="48.036 23.689 37.274 42.329 40.472 42.789 50.634 25.189 48.036 23.689"></polygon><path d="M34.134,53.768a1,1,0,0,0,1.732,1l1.5-2.6-1.732-1Z"></path></g></svg>