<svg xmlns="http://www.w3.org/2000/svg" viewBox="0 0 64 64" x="0px" y="0px"><g data-name="Mobile Marketing"><path d="M14.929,36l1.155,2h11.03c-.056-.077-.126-.139-.176-.223L25.912,36Z"></path><path d="M30.043,37.132l1.727-1a1,1,0,0,0,.359-1.373L28.67,28.772l-.205.03-3.295,1.9h0l3.5,6.062A1.019,1.019,0,0,0,30.043,37.132Z"></path><path d="M32.785,10.481a1.049,1.049,0,0,0-.26-.034,1,1,0,0,0-.865,1.5l8,13.857a1,1,0,1,0,1.731-1l-8-13.857A1,1,0,0,0,32.785,10.481Z"></path><path d="M40.088,17.134a1,1,0,0,0-1.463-1.124h0l1,1.732A.992.992,0,0,0,40.088,17.134Z"></path><path d="M8,51v1H18V45.317L11.235,33.6c-.022-.027-.055-.079-.074-.107a1.892,1.892,0,0,0-.653-.614A1.945,1.945,0,0,0,9.5,32.6a2.992,2.992,0,0,0-.359.041,1.831,1.831,0,0,0-.651.231A2.005,2.005,0,0,0,7.766,35.6l5.72,9.9-1.732,1-5.72-9.9A4,4,0,0,1,7,31.5V20.274A1.979,1.979,0,0,0,6,20a2,2,0,0,0-2,2V45.649l3.781,4.726A1,1,0,0,1,8,51Z"></path><path d="M54.5,32.6a2.033,2.033,0,0,0-1.661.894.971.971,0,0,1-.06.083L46,45.317V52H56V51a1,1,0,0,1,.219-.625L60,45.649V22a2,2,0,0,0-2-2,1.979,1.979,0,0,0-1,.274V31.5a4,4,0,0,1,.966,5.1l-5.72,9.9-1.732-1,5.72-9.9a2.008,2.008,0,0,0-.736-2.735,1.812,1.812,0,0,0-.639-.224A2.992,2.992,0,0,0,54.5,32.6Z"></path><rect x="23.402" y="22.374" width="1.996" height="6.001" transform="translate(-9.418 15.597) rotate(-29.995)"></rect><path d="M19.44,24.776a.992.992,0,0,0-.47.611.966.966,0,0,0,.1.745l2,3.479a1,1,0,0,0,1.367.361l.861-.5-3-5.2Z"></path><polygon points="25.334 20.997 28.659 26.756 29.062 26.7 37.188 25.522 30.666 14.224 25.334 20.997"></polygon><path d="M33.97,34H50.226L51,32.659V8H42.538l-.984,3.67-1.931-.518L40.467,8H13V32.659L13.775,34H24.758l-1.324-2.293a3,3,0,0,1-4.089-1.1l-2-3.472a2.943,2.943,0,0,1-.307-2.264,2.975,2.975,0,0,1,1.406-1.833l5.021-2.9,6.189-7.861a3,3,0,0,1,5.471-2.331l2.5,4.331h0a3,3,0,0,1,3,5.2h0l2.5,4.33a3.006,3.006,0,0,1-1.1,4.1h0a2.982,2.982,0,0,1-3.659-.531L30.8,28.464l3.064,5.306C33.909,33.846,33.934,33.923,33.97,34ZM17,10h2v2H17Zm8,6H17V14h8Zm0-4H21V10h4Zm23.428,8.4-4.1-1.1.517-1.932,4.1,1.1ZM42.955,13.51l3.463-2,1,1.732-3.463,2Z"></path><path d="M54,4H10A1,1,0,0,0,9,5V30.638a3.293,3.293,0,0,1,.5-.038,3.946,3.946,0,0,1,1.5.3V8a2,2,0,0,1,2-2H51a2,2,0,0,1,2,2V30.9a3.949,3.949,0,0,1,1.5-.3,3.293,3.293,0,0,1,.5.038V5A1,1,0,0,0,54,4Z"></path><path d="M58,54H44v6H58ZM48,58H46V56h2Z"></path><path d="M20,54H6v6H20Zm-2,4H16V56h2Z"></path><path d="M49.071,36h-14.9a3,3,0,0,1-1.394,1.864L32.539,38H47.916Z"></path></g></svg>