<svg xmlns="http://www.w3.org/2000/svg" viewBox="0 0 64 64" x="0px" y="0px"><g data-name="Lawyer"><circle cx="49" cy="6" r="1"></circle><path d="M61.89,13.55,58.62,7H60V5H51.82a2.868,2.868,0,0,1,0,2h3.56l-3.27,6.55A1,1,0,0,0,52,14a5,5,0,0,0,10,0A1,1,0,0,0,61.89,13.55ZM54.62,13,57,8.24,59.38,13ZM50,21V8.82a2.868,2.868,0,0,1-2,0V21H43v2H55V21ZM48,2V3.18a2.868,2.868,0,0,1,2,0V2ZM46,6a2.772,2.772,0,0,1,.18-1H38V7h1.38l-3.27,6.55A1,1,0,0,0,36,14a5,5,0,0,0,10,0,1,1,0,0,0-.11-.45L42.62,7h3.56A2.772,2.772,0,0,1,46,6Zm-2.62,7H38.62L41,8.24Z"></path><rect x="39" y="21" width="2" height="2"></rect><rect x="57" y="21" width="2" height="2"></rect><rect x="48" y="25" width="2" height="2"></rect><path d="M50,29H48v8a7.008,7.008,0,0,1-7,7H38v2h3a9.011,9.011,0,0,0,9-9Z"></path><polygon points="52 48 50 48 50 50 48 50 48 52 50 52 50 54 52 54 52 52 54 52 54 50 52 50 52 48"></polygon><polygon points="60 32 58 32 58 34 56 34 56 36 58 36 58 38 60 38 60 36 62 36 62 34 60 34 60 32"></polygon><path d="M13,11v9a4,4,0,0,0,4,4h4a4,4,0,0,0,4-4V9.238A8.024,8.024,0,0,1,20,11Zm3,4a1,1,0,1,1,1-1A1,1,0,0,1,16,15Zm6-2a1,1,0,1,1-1,1A1,1,0,0,1,22,13Z"></path><path d="M27,8.881V20a6,6,0,0,1-3,5.188v2.857c.063,0,.127,0,.19.008a13.046,13.046,0,0,1,7.278,3.086A3.994,3.994,0,0,0,29,24a1,1,0,0,1-1-1V13A8.946,8.946,0,0,0,27,8.881Z"></path><path d="M30,60h4V41a10.974,10.974,0,0,0-9.011-10.819l.843,1.264a1,1,0,0,1,.1.927L19.914,46.406a1,1,0,0,1-1.828,0L12.071,32.372a1,1,0,0,1,.1-.927l.84-1.26A10.966,10.966,0,0,0,4,41V60H8V50.447A8.417,8.417,0,0,1,8,39.553V38h2v2a1,1,0,0,1-.4.8C8.7,41.478,8,43.614,8,45s.7,3.522,1.6,4.2a1,1,0,0,1,.4.8V60H28V50a1,1,0,0,1,.4-.8c.9-.679,1.6-2.815,1.6-4.2s-.7-3.522-1.6-4.2A1,1,0,0,1,28,40V38h2v1.553a8.417,8.417,0,0,1,0,10.894Z"></path><path d="M10,23a1,1,0,0,1-1,1,4,4,0,0,0-2.465,7.143A12.916,12.916,0,0,1,14,28.048v-2.86A6,6,0,0,1,11,20V10a1,1,0,0,1,1-1h8a5.928,5.928,0,0,0,4.993-2.7A8.987,8.987,0,0,0,10,13Z"></path><polygon points="14.124 32.117 15.444 35.417 17.575 33.819 15.073 30.692 14.124 32.117"></polygon><path d="M22,28.65V25.91A6,6,0,0,1,21,26H17a6,6,0,0,1-1-.09v2.74L19,32.4Z"></path><polygon points="21.763 37.322 19 35.25 16.237 37.322 19 43.538 21.763 37.322"></polygon><polygon points="23.876 32.117 22.927 30.692 20.425 33.819 22.556 35.417 23.876 32.117"></polygon></g></svg>