<svg xmlns="http://www.w3.org/2000/svg" viewBox="0 0 64 64" x="0px" y="0px"><g data-name="Resume"><rect x="15" y="32" width="26" height="2"></rect><rect x="15" y="36" width="6" height="2"></rect><rect x="23" y="36" width="14" height="2"></rect><rect x="39" y="36" width="2" height="2"></rect><rect x="15" y="40" width="2" height="2"></rect><rect x="19" y="40" width="10" height="2"></rect><rect x="31" y="40" width="10" height="2"></rect><rect x="15" y="44" width="22" height="2"></rect><rect x="39" y="44" width="2" height="2"></rect><rect x="15" y="48" width="26" height="2"></rect><path d="M16,30H32a1,1,0,0,0,1-1V28a7.011,7.011,0,0,0-6-6.929v-1.1A4.977,4.977,0,0,0,29,16V15a1,1,0,0,0,1-1V12a6,6,0,0,0-12,0v2a1,1,0,0,0,1,1v1a4.977,4.977,0,0,0,2,3.974v1.1A7.011,7.011,0,0,0,15,28v1A1,1,0,0,0,16,30Zm4-18a4,4,0,0,1,8,0v1h-.172a1,1,0,0,1-.707-.293l-1.414-1.414a1,1,0,0,0-1.414,0l-.828.828A2.98,2.98,0,0,1,21.343,13H20Zm1.343,3a4.969,4.969,0,0,0,3.536-1.465L25,13.414l.707.707A2.98,2.98,0,0,0,27,14.87V16a3,3,0,0,1-6,0V15ZM24,21a5,5,0,0,0,1-.1v.687l-1,1-1-1V20.9A5,5,0,0,0,24,21Zm-2.376,2.038,1.669,1.669a1,1,0,0,0,1.414,0l1.669-1.669A4.991,4.991,0,0,1,31,28H17A4.991,4.991,0,0,1,21.624,23.038Z"></path><path d="M59,20a11.961,11.961,0,0,0-4-8.919V5a3,3,0,0,0-3-3H14a3,3,0,0,0-3,3V52H6a1,1,0,0,0-1,1v4a5.006,5.006,0,0,0,5,5H50a5.006,5.006,0,0,0,5-5V28.919A11.961,11.961,0,0,0,59,20Zm-2,0A10,10,0,1,1,47,10,10.011,10.011,0,0,1,57,20ZM49,48H45V40h4ZM45,36h4v2H45Zm1-2V31.949c.331.028.662.051,1,.051s.669-.023,1-.051V34ZM10,60a3,3,0,0,1-3-3V54H45v3a4.989,4.989,0,0,0,1,3Zm43-3a3,3,0,1,1-6,0V53a1,1,0,0,0-1-1H13V5a1,1,0,0,1,1-1H52a1,1,0,0,1,1,1V9.623a11.988,11.988,0,1,0-9,21.982V34a1,1,0,0,0-1,1V48a2,2,0,0,0,2,2h4a2,2,0,0,0,2-2V35a1,1,0,0,0-1-1V31.605a11.91,11.91,0,0,0,3-1.228Z"></path><path d="M47,12a8,8,0,1,0,8,8A8.009,8.009,0,0,0,47,12Zm0,14a6,6,0,1,1,6-6A6.006,6.006,0,0,1,47,26Z"></path></g></svg>