<svg xmlns="http://www.w3.org/2000/svg" viewBox="0 0 64 64" x="0px" y="0px"><g><path d="M59,2H53a3,3,0,0,0-2.816,2H48a1,1,0,0,0-.9.553l-1,2A1,1,0,0,0,46,7V50H5a3,3,0,0,0,0,6H6.556A3.959,3.959,0,0,0,6,58a4,4,0,0,0,8,0,3.959,3.959,0,0,0-.556-2H36.556A3.959,3.959,0,0,0,36,58a4,4,0,0,0,8,0,3.959,3.959,0,0,0-.556-2H45a3,3,0,0,0,3-3V7.236L48.618,6h1.566A3,3,0,0,0,53,8h6a3,3,0,0,0,0-6ZM12,58a2,2,0,1,1-2-2A2,2,0,0,1,12,58Zm30,0a2,2,0,1,1-2-2A2,2,0,0,1,42,58Zm4-5a1,1,0,0,1-1,1H5a1,1,0,0,1,0-2H46ZM59,6H53a1,1,0,0,1,0-2h6a1,1,0,0,1,0,2Z"></path><path d="M6,42h.22l.621,2.484A2,2,0,0,0,8.781,46H39.219a2,2,0,0,0,1.94-1.516L41.78,42H42a3,3,0,0,0,0-6H40.721A17.018,17.018,0,0,0,26.727,22.234,2.966,2.966,0,0,0,27,21a3,3,0,0,0-6,0,2.966,2.966,0,0,0,.273,1.234A16.992,16.992,0,0,0,7.288,36H6a3,3,0,0,0,0,6Zm33.219,2H8.78l-.5-2H39.719ZM23,21a1,1,0,1,1,1,1A1,1,0,0,1,23,21Zm1,3A15.023,15.023,0,0,1,38.693,36H9.315A15,15,0,0,1,24,24ZM6,38H42a1,1,0,0,1,0,2H6a1,1,0,0,1,0-2Z"></path></g></svg>