<svg xmlns="http://www.w3.org/2000/svg" viewBox="0 0 64 64" x="0px" y="0px"><g data-name="Presentaion info"><rect x="23" y="58" width="18" height="2"></rect><rect x="4" y="46" width="56" height="2"></rect><circle cx="51" cy="35" r="3"></circle><path d="M33,34h3.9A5.016,5.016,0,0,0,33,30.1Z"></path><rect x="30" y="50" width="4" height="6"></rect><rect x="30" y="4" width="4" height="2"></rect><rect x="4" y="8" width="56" height="2"></rect><circle cx="32" cy="19" r="3"></circle><circle cx="13" cy="35" r="3"></circle><path d="M6,44H58V12H6ZM46,16h8v2H46Zm0,4h8v2H46ZM43.121,31.465l1.414,1.414L43.414,34H46.1a5,5,0,1,1,0,2H43.414l1.121,1.121-1.414,1.414L39.586,35ZM27,19a5,5,0,1,1,6,4.9V28.08a7,7,0,1,1-2,0V23.9A5.009,5.009,0,0,1,27,19ZM14,16h6v2H14Zm-4,0h2v2H10Zm0,4H20v2H10Zm3,10a5.009,5.009,0,0,1,4.9,4h2.687l-1.121-1.121,1.414-1.414L24.414,35l-3.535,3.535-1.414-1.414L20.586,36H17.9A5,5,0,1,1,13,30Z"></path><path d="M31,30.1A5,5,0,1,0,36.9,36H31Z"></path></g></svg>