<svg xmlns="http://www.w3.org/2000/svg" viewBox="0 0 64 64" x="0px" y="0px"><title>Shopping</title><g><path d="M61.59,39.706l-1.41-1.42,0,0a5.02,5.02,0,0,0-7.081.007l-9.261,9.433A5.011,5.011,0,0,0,39,44H32.321A6.986,6.986,0,0,0,26,40H21a6.973,6.973,0,0,0-5,2.111V39a1,1,0,0,0-1-1H3a1,1,0,0,0-1,1V61a1,1,0,0,0,1,1H15a1,1,0,0,0,1-1V59l27.269.019h0a1,1,0,0,0,.707-.293l17.61-17.61A1,1,0,0,0,61.59,39.706ZM14,60H4V40H14Zm28.855-2.98L16,57V47a5.006,5.006,0,0,1,5-5h5a4.977,4.977,0,0,1,4.706,3.329A1,1,0,0,0,31.65,46H39a3,3,0,0,1,3,3H27v2H43v-.009a1,1,0,0,0,.714-.29l10.8-11a3.014,3.014,0,0,1,4.246-.005l.707.713Z"></path><rect x="10" y="42" width="2" height="2"></rect><path d="M27,38H47a1,1,0,0,0,1-.958l1-24A1,1,0,0,0,48,12H44V7a5.006,5.006,0,0,0-5-5H35a5.006,5.006,0,0,0-5,5v5H26a1,1,0,0,0-1,1.042l1,24A1,1,0,0,0,27,38ZM32,7a3,3,0,0,1,3-3h4a3,3,0,0,1,3,3v5H32Zm-2,7v5h2V14H42v5h2V14h2.957l-.916,22H27.959l-.916-22Z"></path></g></svg>