<svg xmlns="http://www.w3.org/2000/svg" viewBox="0 0 64 64" x="0px" y="0px"><g data-name="Education"><path d="M60.919,24.955a25.068,25.068,0,0,0-23.29-22.9A24.784,24.784,0,0,0,18.9,8.769,25.1,25.1,0,0,0,11,26.61L2.78,35.654A2,2,0,0,0,4.261,39H9v6a7.008,7.008,0,0,0,7,7h8v9a1,1,0,0,0,1,1H53a1,1,0,0,0,1-1V44.348A25.039,25.039,0,0,0,60.919,24.955ZM52.292,43.233l0,.006a23.155,23.155,0,0,1-4.67,3.615l1.012,1.724A24.955,24.955,0,0,0,52,46.193V60H26V52a2,2,0,0,0-2-2H16a5.006,5.006,0,0,1-5-5V38a1,1,0,0,0-1-1H4.26l8.48-9.327A1,1,0,0,0,13,27,23,23,0,0,1,37.5,4.048a23,23,0,0,1,14.79,39.185Z"></path><path d="M50.359,18.066l-13-5a1.02,1.02,0,0,0-.718,0l-13,5A1,1,0,0,0,23,19v4.586l-2.707,2.707,1.414,1.414L23,26.414V28h2V26.414l1.293,1.293,1.414-1.414L25,23.586v-3.13L29,22v6a1,1,0,0,0,.553.895C29.725,28.98,33.8,31,37,31s7.275-2.02,7.447-2.105A1,1,0,0,0,45,28V22l5.359-2.061a1,1,0,0,0,0-1.868ZM43,27.363A17.14,17.14,0,0,1,37,29a17.178,17.178,0,0,1-6-1.637v-4.6l5.641,2.17a1.009,1.009,0,0,0,.718,0L43,22.764Zm-6-4.434L26.786,19,37,15.071,47.214,19Z"></path><rect x="36" y="33" width="2" height="2"></rect><rect x="40" y="33" width="2" height="2"></rect><rect x="32" y="33" width="2" height="2"></rect></g></svg>