<svg xmlns="http://www.w3.org/2000/svg" viewBox="0 0 64 64" x="0px" y="0px"><title>Cactus_4</title><g data-name="Cactus"><path d="M48,41H41V34h3V32H41V26h3V24H41V18h3V16H41V14a8.955,8.955,0,0,0-2.442-6.144l1.927-1.927L39.071,4.515,37.039,6.547A8.944,8.944,0,0,0,33,5.059V2H31V5.059a8.944,8.944,0,0,0-4.039,1.488L24.929,4.515,23.515,5.929l1.927,1.927A8.955,8.955,0,0,0,23,14v2H20v2h3v6H20v2h3v6H20v2h3v7H16a1,1,0,0,0-1,1V55a7.008,7.008,0,0,0,7,7H42a7.008,7.008,0,0,0,7-7V42A1,1,0,0,0,48,41ZM25,14a7,7,0,0,1,14,0V41H37V19H35V41H33V12H31V41H29V24H27V41H25ZM47,55a5.006,5.006,0,0,1-5,5H22a5.006,5.006,0,0,1-5-5V43H47Z"></path><rect x="42" y="55" width="2" height="2"></rect><rect x="42" y="51" width="2" height="2"></rect><rect x="38" y="55" width="2" height="2"></rect></g></svg>