<svg xmlns="http://www.w3.org/2000/svg" viewBox="0 0 64 64" x="0px" y="0px"><g data-name="Team Work"><path d="M25,28H39a2,2,0,0,0,2-2V23a7.019,7.019,0,0,0-7-7H30a7.02,7.02,0,0,0-7,7v3A2,2,0,0,0,25,28Zm14-5v3H33V24.2l2.544-5.948A4.963,4.963,0,0,1,39,23Zm-5.521-5L32,21.457,30.521,18ZM25,23a4.962,4.962,0,0,1,3.456-4.744L31,24.2V26H25Z"></path><rect x="35" y="22" width="2" height="2"></rect><path d="M35.12,50.093A6.983,6.983,0,0,0,34,50H30a7.02,7.02,0,0,0-7,7v3a2,2,0,0,0,2,2H39a2,2,0,0,0,2-2V57A6.965,6.965,0,0,0,35.12,50.093ZM33.479,52,32,55.457,30.521,52ZM25,57a4.962,4.962,0,0,1,3.456-4.744L31,58.2V60H25Zm14,3H33V58.2l2.544-5.948A4.963,4.963,0,0,1,39,57Z"></path><rect x="35" y="56" width="2" height="2"></rect><path d="M55.12,50.093A6.983,6.983,0,0,0,54,50H50a7.02,7.02,0,0,0-7,7v3a2,2,0,0,0,2,2H59a2,2,0,0,0,2-2V57A6.965,6.965,0,0,0,55.12,50.093ZM53.479,52,52,55.457,50.521,52ZM45,57a4.962,4.962,0,0,1,3.456-4.744L51,58.2V60H45Zm14,3H53V58.2l2.544-5.948A4.963,4.963,0,0,1,59,57Z"></path><rect x="55" y="56" width="2" height="2"></rect><path d="M15.12,50.093A6.983,6.983,0,0,0,14,50H10a7.02,7.02,0,0,0-7,7v3a2,2,0,0,0,2,2H19a2,2,0,0,0,2-2V57A6.965,6.965,0,0,0,15.12,50.093ZM13.479,52,12,55.457,10.521,52ZM5,57a4.962,4.962,0,0,1,3.456-4.744L11,58.2V60H5Zm14,3H13V58.2l2.544-5.948A4.963,4.963,0,0,1,19,57Z"></path><rect x="15" y="56" width="2" height="2"></rect><path d="M37,11V9a1,1,0,0,0,1-1V7a5.006,5.006,0,0,0-5-5H31a5.006,5.006,0,0,0-5,5V8a1,1,0,0,0,1,1v2a5,5,0,0,0,10,0ZM31,4h2a3,3,0,0,1,3,3H32.236l-1.789-.895a1,1,0,0,0-1.154.188L28.586,7H28A3,3,0,0,1,31,4Zm1,10a3,3,0,0,1-3-3V9a1,1,0,0,0,.707-.293l.49-.49,1.356.678A1,1,0,0,0,32,9h3v2A3,3,0,0,1,32,14Z"></path><path d="M37,45V43a1,1,0,0,0,1-1V41a5.006,5.006,0,0,0-5-5H31a5.006,5.006,0,0,0-5,5v1a1,1,0,0,0,1,1v2a5,5,0,0,0,10,0Zm-6-7h2a3,3,0,0,1,3,3H32.236l-1.789-.9a1,1,0,0,0-1.154.188L28.586,41H28A3,3,0,0,1,31,38Zm1,10a3,3,0,0,1-3-3V43a1,1,0,0,0,.707-.293l.49-.49,1.356.678A1,1,0,0,0,32,43h3v2A3,3,0,0,1,32,48Z"></path><path d="M57,45V43a1,1,0,0,0,1-1V41a5.006,5.006,0,0,0-5-5H51a5.006,5.006,0,0,0-5,5v1a1,1,0,0,0,1,1v2a5,5,0,0,0,10,0Zm-6-7h2a3,3,0,0,1,3,3H52.236l-1.789-.9a1,1,0,0,0-1.154.188L48.586,41H48A3,3,0,0,1,51,38Zm1,10a3,3,0,0,1-3-3V43a1,1,0,0,0,.707-.293l.49-.49,1.356.678A1,1,0,0,0,52,43h3v2A3,3,0,0,1,52,48Z"></path><path d="M17,45V43a1,1,0,0,0,1-1V41a5.006,5.006,0,0,0-5-5H11a5.006,5.006,0,0,0-5,5v1a1,1,0,0,0,1,1v2a5,5,0,0,0,10,0Zm-6-7h2a3,3,0,0,1,3,3H12.236l-1.789-.9a1,1,0,0,0-1.154.188L8.586,41H8A3,3,0,0,1,11,38Zm1,10a3,3,0,0,1-3-3V43a1,1,0,0,0,.707-.293l.49-.49,1.356.678A1,1,0,0,0,12,43h3v2A3,3,0,0,1,12,48Z"></path><path d="M13,33H31v1h2V33H51v1h2V32a1,1,0,0,0-1-1H33V30H31v1H12a1,1,0,0,0-1,1v2h2Z"></path></g></svg>