<svg xmlns="http://www.w3.org/2000/svg" viewBox="0 0 64 64" x="0px" y="0px"><g data-name="Reseach-Smartphone-Search-Seo-Search Engine"><path d="M46,2H18a6.006,6.006,0,0,0-6,6V30h2V8a4,4,0,0,1,4-4H46a4,4,0,0,1,4,4V56a4,4,0,0,1-4,4H18a4,4,0,0,1-4-4V50H12v6a6.006,6.006,0,0,0,6,6H46a6.006,6.006,0,0,0,6-6V8A6.006,6.006,0,0,0,46,2Z"></path><path d="M30,52a3,3,0,0,0,0,6h4a3,3,0,0,0,0-6Zm5,3a1,1,0,0,1-1,1H30a1,1,0,0,1,0-2h4A1,1,0,0,1,35,55Z"></path><rect x="25" y="6" width="2" height="2"></rect><rect x="29" y="6" width="6" height="2"></rect><path d="M18,24a11.988,11.988,0,0,0,19.741,9.155l7.109,7.108,1.414-1.414-7.109-7.108A12,12,0,1,0,18,24ZM30,14A10,10,0,1,1,20,24,10.011,10.011,0,0,1,30,14Z"></path><path d="M36,24h2a8.009,8.009,0,0,0-8-8v2A6.006,6.006,0,0,1,36,24Z"></path><path d="M21,40a8,8,0,1,0-8,8A8.009,8.009,0,0,0,21,40ZM7,40a6,6,0,1,1,6,6A6.006,6.006,0,0,1,7,40Z"></path><rect x="25" y="46" width="12" height="2"></rect><rect x="39" y="46" width="4" height="2"></rect><rect x="25" y="42" width="16" height="2"></rect><path d="M15,40h2a4,4,0,0,0-4-4v2A2,2,0,0,1,15,40Z"></path></g></svg>