<svg xmlns="http://www.w3.org/2000/svg" viewBox="0 0 64 64" x="0px" y="0px"><g><path d="M44,22h2a1,1,0,0,1,.707.293l1.563,1.563L50,23.279v-8.6L46.382,13.23l-1.55,2.325A1,1,0,0,1,44,16H42.816a3,3,0,1,1,0-2h.649L45,11.7V8.351L41.52,4H41V6.586l.707.707L40.293,8.707l-1-1A1,1,0,0,1,39,7V4H36.333L33.667,6,36.6,8.2A1,1,0,0,1,37,9v2H35V9.5L33,8V26h1.614L36,24.614V21.057a1,1,0,0,1,.293-.708l1.015-1.014,1.414,1.415L38,21.471v3.557a1,1,0,0,1-.293.707l-1.972,1.972a1,1,0,0,1-.707.293H33V39.5L36.333,42h3.334L43,39.5V37.414L40.586,35h-.77a3,3,0,1,1,0-2H41a1,1,0,0,1,.707.293l2.49,2.49,2.8-1.4V25.414L45.586,24h-.968l-.462.923A2.994,2.994,0,1,1,42,24a2.9,2.9,0,0,1,.363.037l.742-1.484A1,1,0,0,1,44,22Z"></path><circle cx="37" cy="34" r="1"></circle><circle cx="42" cy="27" r="1"></circle><path d="M48.887,54.708l5.821-5.821L50.655,43.68l.335-.573L51,43.09a22.249,22.249,0,0,0,2.2-5.212c.027-.1.061-.191.086-.288v-.005l.172-.654L60,36.117V28H49.54A18.788,18.788,0,0,0,49,26.127V35a1,1,0,0,1-.553.9L45,37.618V40a1,1,0,0,1-.4.8l-4,3a1,1,0,0,1-.6.2H36a1,1,0,0,1-.6-.2L32,41.25,28.6,43.8a1,1,0,0,1-.6.2H24a1,1,0,0,1-.6-.2l-4-3A1,1,0,0,1,19,40V37.618L15.553,35.9A1,1,0,0,1,15,35V26.107A18.125,18.125,0,0,0,14.453,28H4v8.117l6.545.814.172.654v.005c.031.118.071.233.1.35a22.074,22.074,0,0,0,1.323,3.517c.265.554.545,1.1.856,1.633l0,.012.338.578L9.292,48.887l5.821,5.821,5.207-4.053.578.338.012,0c.475.277.96.533,1.452.773a22.006,22.006,0,0,0,3.689,1.4c.12.034.238.076.359.107h0l.654.172L27.883,60h8.234l.814-6.545.654-.172h.006c.068-.018.135-.042.2-.061a22.088,22.088,0,0,0,3.694-1.38c.543-.261,1.079-.537,1.6-.842l.01,0,.58-.339ZM54,31h4v2H54ZM10,33H6V31h4ZM51.092,49.678l-1.414,1.414L46.85,48.263l1.414-1.414Zm-36.77,1.414-1.414-1.414,2.829-2.829,1.414,1.414ZM33,58H31V54h2Zm-1-7A19.019,19.019,0,0,1,14.056,38.259l1.888-.658a17.007,17.007,0,0,0,32.112,0l1.888.658A19.019,19.019,0,0,1,32,51Z"></path><circle cx="40" cy="15" r="1"></circle><circle cx="24" cy="17" r="1"></circle><circle cx="27" cy="34" r="1"></circle><path d="M27.4,11.2,31,8.5v-2L27.667,4H26V7a1,1,0,0,1-.293.707l-1,1L23.293,7.293,24,6.586V4H22.48L19,8.351v3.413L19.618,13H21v2H19a1,1,0,0,1-.895-.553l-.588-1.176L14,14.677v6.788l1.873,1.248,1.42-1.42A1,1,0,0,1,18,21h2a1,1,0,0,1,.895.553l.742,1.484A2.9,2.9,0,0,1,22,23a3.015,3.015,0,1,1-2.156.923L19.382,23h-.968L17,24.414v9.968l2.8,1.4,2.49-2.49A1,1,0,0,1,23,33h1.184a3,3,0,1,1,0,2h-.77L21,37.414V39.5L24.333,42h3.334L31,39.5V26H28.972a1,1,0,0,1-.707-.293l-1.972-1.972A1,1,0,0,1,26,23.028V19.471l-.138-.138A2.967,2.967,0,0,1,24,20a3,3,0,1,1,3-3,3.036,3.036,0,0,1-.059.584l.766.766a1,1,0,0,1,.293.707v3.557L29.386,24H31V11l-2,1.5V14H27V12A1,1,0,0,1,27.4,11.2Z"></path><circle cx="22" cy="26" r="1"></circle></g></svg>