<svg xmlns="http://www.w3.org/2000/svg" viewBox="0 0 64 64" x="0px" y="0px"><g><path d="M40,18a8,8,0,1,0-8,8A8.009,8.009,0,0,0,40,18Zm-8,6a6,6,0,1,1,6-6A6.006,6.006,0,0,1,32,24Z"></path><path d="M33,13H31v1a2,2,0,0,0-2,2v1a2,2,0,0,0,2,2h2v1H29v2h2v1h2V22a2,2,0,0,0,2-2V19a2,2,0,0,0-2-2H31V16h4V14H33Z"></path><path d="M45.576,31.217A1,1,0,0,0,44.954,31H44V11a1,1,0,0,0-.412-.809l-11-8a1,1,0,0,0-1.176,0l-11,8A1,1,0,0,0,20,11V31h-.954a1,1,0,0,0-.622.217l-5.046,4.007a1,1,0,0,0-.356.993l3,13.992A1,1,0,0,0,17,51h2a1,1,0,0,0,1-1V41a1,1,0,0,0,1,1h.28l.772,2.316A1,1,0,0,0,23,45h6v5a1,1,0,0,0,1,1h4a1,1,0,0,0,1-1V45h6a1,1,0,0,0,.948-.684L42.72,42H43a1,1,0,0,0,1-1v9a1,1,0,0,0,1,1h2a1,1,0,0,0,.978-.791l3-13.992a1,1,0,0,0-.356-.993ZM19,37a1,1,0,0,0-1,1V49h-.191l-2.7-12.6L19.4,33H20v4Zm4.721,6-.333-1H29v1ZM33,49H31V33h2ZM30,31a1,1,0,0,0-1,1v8H22V11.509L32,4.236l10,7.273V40H35V32a1,1,0,0,0-1-1ZM40.279,43H35V42h5.612Zm5.912,6H46V38a1,1,0,0,0-1-1H44V33h.6l4.288,3.4Z"></path><path d="M34.133,60H33V53H31v7H29.867L27.99,46.858l-1.98.284,2,14A1,1,0,0,0,29,62h6a1,1,0,0,0,.99-.858l2-14-1.98-.284Z"></path><path d="M10,2H8V3A2,2,0,0,0,6,5V6A2,2,0,0,0,8,8h2V9H6v2H8v1h2V11a2,2,0,0,0,2-2V8a2,2,0,0,0-2-2H8V5h4V3H10Z"></path><path d="M59,24V23a2,2,0,0,0-2-2H55V20h4V18H57V17H55v1a2,2,0,0,0-2,2v1a2,2,0,0,0,2,2h2v1H53v2h2v1h2V26A2,2,0,0,0,59,24Z"></path><rect x="3" y="14" width="2" height="10"></rect><rect x="3" y="26" width="2" height="2"></rect><rect x="3" y="30" width="2" height="2"></rect><rect x="8" y="42" width="2" height="8"></rect><rect x="8" y="52" width="2" height="2"></rect><rect x="4" y="47" width="2" height="2"></rect><rect x="4" y="51" width="2" height="2"></rect><rect x="4" y="55" width="2" height="4"></rect><rect x="54" y="34" width="2" height="8"></rect><rect x="54" y="44" width="2" height="2"></rect><rect x="58" y="39" width="2" height="2"></rect><rect x="58" y="43" width="2" height="2"></rect><rect x="58" y="47" width="2" height="4"></rect><rect x="14" y="9" width="2" height="4"></rect><rect x="14" y="15" width="2" height="2"></rect><rect x="14" y="19" width="2" height="2"></rect><rect x="9" y="23" width="2" height="4"></rect><rect x="47" y="2" width="2" height="6"></rect><rect x="47" y="10" width="2" height="2"></rect><rect x="52" y="6" width="2" height="4"></rect><rect x="52" y="12" width="2" height="2"></rect></g></svg>