<svg xmlns="http://www.w3.org/2000/svg" viewBox="0 0 64 64" x="0px" y="0px"><title>Typewriter-Typing-Computer-Keyboard-Hands</title><g data-name="Typewriter"><path d="M60,11H4a2,2,0,0,0-2,2V31a2,2,0,0,0,2,2H6v7a1,1,0,0,0,.143.515L9,45.277V46H8a1,1,0,0,0-1,1v6a1,1,0,0,0,1,1v7a1,1,0,0,0,1,1H23a1,1,0,0,0,1-1V54a1,1,0,0,0,1-1V47a1,1,0,0,0-1-1v-.586l3.707-3.707A1,1,0,0,0,28,41V33h8v8a1,1,0,0,0,.293.707L40,45.414V46a1,1,0,0,0-1,1v6a1,1,0,0,0,1,1v7a1,1,0,0,0,1,1H55a1,1,0,0,0,1-1V54a1,1,0,0,0,1-1V47a1,1,0,0,0-1-1H55v-.723l2.857-4.762A1,1,0,0,0,58,40V33h2a2,2,0,0,0,2-2V13A2,2,0,0,0,60,11ZM9,48H23v4H9ZM22,60H10V54H22Zm4-19.414-3.707,3.707A1,1,0,0,0,22,45v1H11V45a1,1,0,0,0-.143-.515L8,39.723V30a1,1,0,0,1,2,0v3a1,1,0,0,0,2,0V26a1,1,0,0,1,2,0v7a1,1,0,0,0,2,0V25a1,1,0,0,1,2,0v8a1,1,0,0,0,2,0V26a1,1,0,0,1,2,0V37a1,1,0,0,0,2,0V31a1,1,0,0,1,2,0ZM28,31a2.981,2.981,0,0,0-.78-2h9.56A2.981,2.981,0,0,0,36,31ZM55,48v4H41V48ZM54,60H42V54H54Zm2-20.277-2.857,4.762A1,1,0,0,0,53,45v1H42V45a1,1,0,0,0-.293-.707L38,40.586V31a1,1,0,0,1,2,0v6a1,1,0,0,0,2,0V26a1,1,0,0,1,2,0v7a1,1,0,0,0,2,0V25a1,1,0,0,1,2,0v8a1,1,0,0,0,2,0V26a1,1,0,0,1,2,0v7a1,1,0,0,0,2,0V30a1,1,0,0,1,2,0ZM60,31H58V30a3,3,0,0,0-4-2.829V26a3,3,0,0,0-4.472-2.614,3,3,0,0,0-5.056,0A3,3,0,0,0,40,26v1H24V26a3,3,0,0,0-4.472-2.614,3,3,0,0,0-5.056,0A3,3,0,0,0,10,26v1.171A3,3,0,0,0,6,30v1H4V13H60Z"></path><rect x="25" y="23" width="2" height="2"></rect><rect x="29" y="23" width="2" height="2"></rect><rect x="33" y="23" width="2" height="2"></rect><rect x="37" y="23" width="2" height="2"></rect><rect x="17" y="19" width="2" height="2"></rect><rect x="13" y="19" width="2" height="2"></rect><rect x="21" y="19" width="2" height="2"></rect><rect x="25" y="19" width="2" height="2"></rect><rect x="29" y="19" width="2" height="2"></rect><rect x="33" y="19" width="2" height="2"></rect><rect x="37" y="19" width="2" height="2"></rect><rect x="41" y="19" width="2" height="2"></rect><rect x="45" y="19" width="2" height="2"></rect><rect x="49" y="19" width="2" height="2"></rect><rect x="17" y="15" width="2" height="2"></rect><rect x="13" y="15" width="2" height="2"></rect><rect x="9" y="19" width="2" height="2"></rect><rect x="9" y="15" width="2" height="2"></rect><rect x="21" y="15" width="2" height="2"></rect><rect x="25" y="15" width="2" height="2"></rect><rect x="29" y="15" width="2" height="2"></rect><rect x="33" y="15" width="2" height="2"></rect><rect x="37" y="15" width="2" height="2"></rect><rect x="41" y="15" width="2" height="2"></rect><rect x="45" y="15" width="2" height="2"></rect><rect x="49" y="15" width="2" height="2"></rect><rect x="53" y="19" width="2" height="2"></rect><rect x="53" y="15" width="2" height="2"></rect><rect x="50" y="56" width="2" height="2"></rect><rect x="12" y="56" width="2" height="2"></rect></g></svg>