<svg xmlns="http://www.w3.org/2000/svg" viewBox="0 0 64 64" x="0px" y="0px"><g data-name="Real Estate-Loan-Finance-Property-House"><path d="M29,56a1,1,0,0,0-1,1v2a1,1,0,0,0,1,1H41a1,1,0,0,0,1-1V57a1,1,0,0,0-1-1H40v2H38V56H36v2H34V56H32v2H30V56Z"></path><path d="M26,59V57a2.974,2.974,0,0,1,.78-2A2.974,2.974,0,0,1,26,53V51a2.974,2.974,0,0,1,.78-2A2.974,2.974,0,0,1,26,47V45a3.009,3.009,0,0,1,3-3h5V39.17l-.71.11a6.559,6.559,0,0,1-1.08.09,7.057,7.057,0,0,1-6.55-4.49l-.67-1.76a1,1,0,0,1,.06-.86,1.03,1.03,0,0,1,.71-.49l1.87-.29A7,7,0,0,1,35,35.35a7,7,0,0,1,7.37-3.87l1.87.29a1.052,1.052,0,0,1,.71.49,1,1,0,0,1,.06.86l-.67,1.76a7.057,7.057,0,0,1-6.55,4.49,6.559,6.559,0,0,1-1.08-.09L36,39.17V42h5a3.009,3.009,0,0,1,3,3v2a2.923,2.923,0,0,1-.32,1.32A2.923,2.923,0,0,1,45,48h6V24.32L32,8.31,13,24.42V36.05c.33-.03.66-.05,1-.05a10,10,0,0,1,0,20c-.34,0-.67-.02-1-.05V60H26.18A3,3,0,0,1,26,59Z"></path><path d="M14,54a8,8,0,1,0-8-8A8.011,8.011,0,0,0,14,54Zm1-7H13a3,3,0,0,1,0-6V40h2v1a3,3,0,0,1,3,3H16a1,1,0,0,0-1-1H13a1,1,0,0,0,0,2h2a3,3,0,0,1,0,6v1H13V51a3,3,0,0,1-3-3h2a1,1,0,0,0,1,1h2a1,1,0,0,0,0-2Z"></path><path d="M57,50H56v2H54V50H52v2H50V50H48v2H46V50H45a1,1,0,0,0-1,1v2a1,1,0,0,0,1,1H57a1,1,0,0,0,1-1V51A1,1,0,0,0,57,50Z"></path><path d="M4.07,27.82a1.02,1.02,0,0,0,.7.48.977.977,0,0,0,.81-.22L31.35,6.24a.987.987,0,0,1,1.29,0L58.42,27.96a.988.988,0,0,0,1.4-.13.913.913,0,0,0,.23-.72.948.948,0,0,0-.35-.68L32.64,3.84A1,1,0,0,0,32,3.61a1.047,1.047,0,0,0-.64.23L4.38,26.48A1.094,1.094,0,0,0,4.07,27.82Z"></path><path d="M58,59V57a1,1,0,0,0-1-1H56v2H54V56H52v2H50V56H48v2H46V56H45a1,1,0,0,0-1,1v2a1,1,0,0,0,1,1H57A1,1,0,0,0,58,59Z"></path><path d="M42,51a1,1,0,0,0-1-1H40v2H38V50H36v2H34V50H32v2H30V50H29a1,1,0,0,0-1,1v2a1,1,0,0,0,1,1H41a1,1,0,0,0,1-1Z"></path><path d="M27.94,33.45l-.64.1.23.61a5.039,5.039,0,0,0,5.45,3.15l.64-.1-.23-.61A5.039,5.039,0,0,0,27.94,33.45Z"></path><path d="M42.47,34.16l.23-.61-.64-.1a5.039,5.039,0,0,0-5.45,3.15l-.23.61.64.1A5.051,5.051,0,0,0,42.47,34.16Z"></path><path d="M42,45a1,1,0,0,0-1-1H40v2H38V44H36v2H34V44H32v2H30V44H29a1,1,0,0,0-1,1v2a1,1,0,0,0,1,1H41a1,1,0,0,0,1-1Z"></path></g></svg>