<svg xmlns="http://www.w3.org/2000/svg" viewBox="0 0 64 64" x="0px" y="0px"><g><path d="M60,49V18a5,5,0,0,0-5-5H46V8a3.009,3.009,0,0,0-3-3H21a3.009,3.009,0,0,0-3,3v5H9a5,5,0,0,0-5,5V49a2.006,2.006,0,0,0-2,2v3a5,5,0,0,0,5,5H57a5,5,0,0,0,5-5V51A2.006,2.006,0,0,0,60,49ZM46,15h9a3.009,3.009,0,0,1,3,3V49H56V19a2.006,2.006,0,0,0-2-2H46ZM20,8a1,1,0,0,1,1-1H43a1,1,0,0,1,1,1V42a1,1,0,0,1-1,1H21a1,1,0,0,1-1-1Zm1,37H43a3.009,3.009,0,0,0,3-3V19h8V49H10V19h8V42A3.009,3.009,0,0,0,21,45Zm15,6v2H28V51ZM6,18a3.009,3.009,0,0,1,3-3h9v2H10a2.006,2.006,0,0,0-2,2V49H6ZM60,54a3.009,3.009,0,0,1-3,3H7a3.009,3.009,0,0,1-3-3V51H26v2a2.006,2.006,0,0,0,2,2h8a2.006,2.006,0,0,0,2-2V51H60Z"></path><path d="M24,41H40a2,2,0,0,0,2-2V23a2,2,0,0,0-2-2H24a2,2,0,0,0-2,2V39A2,2,0,0,0,24,41Zm0-6h4v4H24Zm10-6v4H30V29Zm-4-2V23h4v4Zm6,2h4v4H36Zm-2,6v4H30V35Zm-6-2H24V29h4Zm8,6V35h4v4Zm4-12H36V23h4ZM28,23v4H24V23Z"></path><path d="M24,19H40a2,2,0,0,0,2-2V11a2,2,0,0,0-2-2H24a2,2,0,0,0-2,2v6A2,2,0,0,0,24,19Zm0-8H40v6H24Z"></path><rect x="35" y="13" width="2" height="2"></rect><rect x="31" y="13" width="2" height="2"></rect><rect x="27" y="13" width="2" height="2"></rect></g></svg>