<svg xmlns="http://www.w3.org/2000/svg" viewBox="0 0 64 64" x="0px" y="0px"><title>Cocktail_8</title><g data-name="Cocktail"><path d="M57.106,9.823A16,16,0,0,0,34.823,5.894a1,1,0,0,0-.246,1.392L39.278,14H9a1,1,0,0,0-1,1.087l4,46A1,1,0,0,0,13,62H45a1,1,0,0,0,1-.913l2.9-33.351,2.888,4.124a1,1,0,0,0,.646.411.923.923,0,0,0,.174.016.994.994,0,0,0,.573-.181A16,16,0,0,0,57.106,9.823ZM51.1,27.4l-.431-.615-1.506-2.151L50,15.087A1,1,0,0,0,49,14H41.72L38.536,9.452A11,11,0,0,1,51.1,27.4ZM47.387,22h-.066l-4.2-6h4.788Zm-6.708-6,4.2,6H10.613l-.522-6ZM13.917,60l-.348-4H44.431l-.348,4Zm30.688-6H13.4L10.786,24H46.28l.83,1.186ZM57.787,21.431a13.9,13.9,0,0,1-4.958,8.435l-.583-.832A12.987,12.987,0,0,0,37.392,7.819l-.582-.832A14,14,0,0,1,57.787,21.431Z"></path><path d="M42,42H34a1,1,0,0,0-1,1v8a1,1,0,0,0,1,1h8a1,1,0,0,0,1-1V43A1,1,0,0,0,42,42Zm-1,8H35V44h6Z"></path><path d="M39.794,35.5l-4-6.928a1,1,0,0,0-1.366-.366l-6.928,4a1,1,0,0,0-.366,1.366l4,6.928a1,1,0,0,0,1.366.366l6.928-4A1,1,0,0,0,39.794,35.5Zm-7.428,3.134-3-5.2,5.2-3,3,5.2Z"></path><path d="M30.329,41.307,22.6,39.236a1,1,0,0,0-1.225.707l-2.07,7.728a1,1,0,0,0,.707,1.225l7.727,2.07A1.015,1.015,0,0,0,28,51a1,1,0,0,0,.965-.741l2.07-7.728A1,1,0,0,0,30.329,41.307Zm-3.036,7.468-5.8-1.552,1.553-5.8,5.8,1.552Z"></path><path d="M16.71,29.7A.954.954,0,0,0,17,29a1,1,0,0,0-.08-.38,1.032,1.032,0,0,0-.21-.33,1.047,1.047,0,0,0-1.42,0,1.032,1.032,0,0,0-.21.33A1,1,0,0,0,15,29a.951.951,0,0,0,.29.7A1.038,1.038,0,0,0,16,30,.964.964,0,0,0,16.71,29.7Z"></path><path d="M22.62,33.92a.99.99,0,0,0,1.3-1.3,1.032,1.032,0,0,0-.21-.33,1.047,1.047,0,0,0-1.42,0,1.032,1.032,0,0,0-.21.33.99.99,0,0,0,.21,1.09A1.032,1.032,0,0,0,22.62,33.92Z"></path><path d="M17.71,38.29a1.017,1.017,0,0,0-1.09-.21.9.9,0,0,0-.54.54A.838.838,0,0,0,16,39a1,1,0,0,0,.069.38,1.523,1.523,0,0,0,.221.33,1.155,1.155,0,0,0,.33.21.942.942,0,0,0,.76,0,.9.9,0,0,0,.54-.54.942.942,0,0,0,0-.76A1.032,1.032,0,0,0,17.71,38.29Z"></path><path d="M27,28a.994.994,0,0,0,.71-.29A1.011,1.011,0,0,0,28,27a1,1,0,1,0-2,0,.99.99,0,0,0,1,1Z"></path><path d="M42,32a.99.99,0,0,0,1-1,1.05,1.05,0,0,0-.29-.71,1.017,1.017,0,0,0-1.09-.21,1.032,1.032,0,0,0-.33.21A1.045,1.045,0,0,0,41,31a.99.99,0,0,0,1,1Z"></path><path d="M35.29,19.71a1.012,1.012,0,0,0,1.41,0A.964.964,0,0,0,37,19a1,1,0,0,0-.08-.38.911.911,0,0,0-.22-.33.628.628,0,0,0-.15-.12.568.568,0,0,0-.17-.09.609.609,0,0,0-.191-.06.809.809,0,0,0-.379,0,.6.6,0,0,0-.19.06.782.782,0,0,0-.181.09,1.7,1.7,0,0,0-.149.12,1.032,1.032,0,0,0-.21.33A.838.838,0,0,0,35,19,.99.99,0,0,0,35.29,19.71Z"></path><path d="M17.29,11.71a1.155,1.155,0,0,0,.33.21.99.99,0,0,0,1.09-.21,1.169,1.169,0,0,0,.21-.33.943.943,0,0,0,0-.76,1.032,1.032,0,0,0-.21-.33,1.047,1.047,0,0,0-1.42,0,1.032,1.032,0,0,0-.21.33A1,1,0,0,0,17,11a.838.838,0,0,0,.08.38A1.169,1.169,0,0,0,17.29,11.71Z"></path><path d="M21,5a1,1,0,0,0,.38-.08,1.015,1.015,0,0,0,.33-.22A.954.954,0,0,0,22,4a1.05,1.05,0,0,0-.29-.71,1,1,0,0,0-1.09-.21,1.032,1.032,0,0,0-.33.21,1.032,1.032,0,0,0-.21.33A.838.838,0,0,0,20,4a.951.951,0,0,0,.29.7A.96.96,0,0,0,21,5Z"></path><path d="M12,7a.994.994,0,0,0,.71-.29,1.169,1.169,0,0,0,.21-.33.943.943,0,0,0,0-.76,1.155,1.155,0,0,0-.21-.33,1.712,1.712,0,0,0-.15-.12.776.776,0,0,0-.18-.09.609.609,0,0,0-.191-.06.852.852,0,0,0-.389,0,.636.636,0,0,0-.18.06.782.782,0,0,0-.181.09,1.7,1.7,0,0,0-.149.12,1.155,1.155,0,0,0-.21.33A.838.838,0,0,0,11,6a.99.99,0,0,0,1,1Z"></path><path d="M25,7h1V8a1,1,0,0,0,2,0V7h1a1,1,0,0,0,0-2H28V4a1,1,0,0,0-2,0V5H25a1,1,0,0,0,0,2Z"></path></g></svg>