<svg xmlns="http://www.w3.org/2000/svg" viewBox="0 0 64 64" x="0px" y="0px"><g data-name="Cactus"><rect x="36" y="16" width="2" height="2"></rect><rect x="31" y="25" width="2" height="2"></rect><path d="M46,60V38H18V60Zm-4-7h2v2H42Zm0,3h2v2H42Zm-3,0h2v2H39Z"></path><path d="M43.921,32A14.38,14.38,0,0,0,48,22c0-8.271-7.178-15-16-15S16,13.729,16,22a14.38,14.38,0,0,0,4.079,10ZM34,16h2V14h2v2h2v2H38v2H36V18H34Zm-3,7h2v2h2v2H33v2H31V27H29V25h2Zm-8-7h2V14h2v2h2v2H27v2H25V18H23Z"></path><rect x="25" y="16" width="2" height="2"></rect><rect x="15" y="34" width="34" height="2"></rect><path d="M33,3.586V2H31V3.586L29.879,2.465,28.465,3.879l2.828,2.828a1,1,0,0,0,1.414,0l2.828-2.828L34.121,2.465Z"></path><path d="M53,19H51.414l1.121-1.121-1.414-1.414-2.828,2.828a1,1,0,0,0,0,1.414l2.828,2.828,1.414-1.414L51.414,21H53Z"></path><path d="M12.879,16.465l-1.414,1.414L12.586,19H11v2h1.586l-1.121,1.121,1.414,1.414,2.828-2.828a1,1,0,0,0,0-1.414Z"></path></g></svg>