<svg xmlns="http://www.w3.org/2000/svg" viewBox="0 0 64 64" x="0px" y="0px"><g><path d="M62,24H60V11H58V9h3a1,1,0,0,1,1,1Z"></path><path d="M40,10H18V20H40ZM26,16H24V14h2Zm4,0H28V14h2Zm4,0H32V14h2Z"></path><rect x="4" y="4" width="6" height="56"></rect><path d="M46,60V4H12V60ZM16,9a1,1,0,0,1,1-1H41a1,1,0,0,1,1,1V21a1,1,0,0,1-1,1H17a1,1,0,0,1-1-1Zm0,19H42v2H16Zm0,6H42v2H16Z"></path><rect x="52" y="8" width="4" height="10"></rect><polygon points="52 54.764 54 58.764 56 54.764 56 20 52 20 52 54.764"></polygon><rect x="53" y="4" width="2" height="2"></rect></g></svg>