<svg xmlns="http://www.w3.org/2000/svg" viewBox="0 0 64 64" x="0px" y="0px"><g><path d="M13,41V25a1,1,0,0,0-1-1H9V22H5v6H9V26h2V42a1,1,0,0,0,1,1h2V41Z"></path><rect x="29" y="4" width="10" height="8"></rect><path d="M34,52a5,5,0,1,0-5-5A5.006,5.006,0,0,0,34,52Zm0-8a3,3,0,0,1,3,3H35a1,1,0,0,0-1-1Z"></path><path d="M41,29a7,7,0,1,0-7,7A7.008,7.008,0,0,0,41,29Zm-7,5a5,5,0,1,1,5-5A5.006,5.006,0,0,1,34,34Z"></path><circle cx="34" cy="29" r="3"></circle><path d="M25,4V16H43V4H41v9a1,1,0,0,1-1,1H28a1,1,0,0,1-1-1V4Z"></path><polygon points="58 37 58 35 54 35 54 49 58 49 58 47 56 47 56 45 58 45 58 43 56 43 56 41 58 41 58 39 56 39 56 37 58 37"></polygon><rect x="50" y="38" width="2" height="8"></rect><rect x="23" y="18" width="22" height="2"></rect><path d="M25,47a9,9,0,1,0,9-9A9.014,9.014,0,0,0,25,47Zm9-7a7,7,0,1,1-7,7A7.009,7.009,0,0,1,34,40Z"></path><path d="M20,60H48V22H39.64a8.987,8.987,0,0,1-1.31,14.89,11,11,0,1,1-8.66,0A8.987,8.987,0,0,1,28.36,22H20ZM44,39a2,2,0,1,1,2-2A2,2,0,0,1,44,39Zm0,17h2v2H44ZM24,35a2,2,0,1,1-2,2A2,2,0,0,1,24,35ZM22,56h2v2H22Z"></path><rect x="16" y="40" width="2" height="4"></rect></g></svg>