<svg xmlns="http://www.w3.org/2000/svg" viewBox="0 0 64 64" x="0px" y="0px"><title>Bar Graph Down</title><g data-name="Bar Graph Down"><path d="M57,60V41a1,1,0,0,0-1-1H44a1,1,0,0,0-1,1V60H41V31a1,1,0,0,0-1-1H28a1,1,0,0,0-1,1V60H25V21a1,1,0,0,0-1-1H12a1,1,0,0,0-1,1V60H7V2H5V4H2V6H5V18H2v2H5V32H2v2H5V46H2v2H5V61a1,1,0,0,0,1,1H62V60ZM13,60V22H23V60Zm16,0V32H39V60Zm16,0V42H55V60Z"></path><path d="M29,23H40.558l8.181,9H45v2h6a1,1,0,0,0,1-1V27H50v3.413l-8.26-9.086A1,1,0,0,0,41,21H29.4L14.184,6.77,12.816,8.23l15.5,14.5A1,1,0,0,0,29,23Z"></path><rect x="42" y="6" width="2" height="2"></rect><rect x="46" y="6" width="12" height="2"></rect><rect x="42" y="10" width="16" height="2"></rect><rect x="42" y="14" width="16" height="2"></rect></g></svg>