<svg xmlns="http://www.w3.org/2000/svg" viewBox="0 0 64 64" x="0px" y="0px"><title>Brush</title><g><path d="M40,22V9a7.008,7.008,0,0,0-7-7H31a7.008,7.008,0,0,0-7,7V22A11.013,11.013,0,0,0,13,33V61a1,1,0,0,0,1,1H50a1,1,0,0,0,1-1V33A11.013,11.013,0,0,0,40,22ZM15,33a9.01,9.01,0,0,1,9-9h1a1,1,0,0,0,1-1V9a5.006,5.006,0,0,1,5-5h2a5.006,5.006,0,0,1,5,5V23a1,1,0,0,0,1,1h1a9.01,9.01,0,0,1,9,9v5H15ZM49,60H45V46H43V60H39V46H37V60H33V46H31V60H27V46H25V60H21V46H19V60H15V40H49Z"></path><path d="M32,6a3,3,0,1,0,3,3A3,3,0,0,0,32,6Zm0,4a1,1,0,1,1,1-1A1,1,0,0,1,32,10Z"></path></g></svg>