<svg xmlns="http://www.w3.org/2000/svg" viewBox="0 0 64 64" x="0px" y="0px"><g><path d="M24.443,23H28a1,1,0,0,0,.895-.553l.52-1.041.637,1.91A1,1,0,0,0,31,24h2a1,1,0,0,0,.948-.684l.637-1.91.52,1.041A1,1,0,0,0,36,23h3.557a2,2,0,0,0,1.873-2.7l-2.007-5.35A3.011,3.011,0,0,0,37,13.03V10.379a10.729,10.729,0,0,0-1.873-6.142Q32-.278,28.873,4.238A10.723,10.723,0,0,0,27,10.379V13.03a3.012,3.012,0,0,0-2.423,1.917L22.57,20.3A2,2,0,0,0,24.443,23Zm7.278-1-.334-1h1.226l-.334,1Zm5.829-6.351L39.557,21H36.618l-.087-.174A.982.982,0,0,0,37,20V15.089A.993.993,0,0,1,37.55,15.649ZM29,10.379a8.729,8.729,0,0,1,1.518-5C31.27,4.29,31.8,4,32,4s.73.29,1.482,1.375a8.734,8.734,0,0,1,1.518,5V19H33V13H31v6H29Zm-2.55,5.269a.994.994,0,0,1,.55-.559V20a.982.982,0,0,0,.469.826L27.382,21H24.443Z"></path><path d="M32,9.118l1.553.777.894-1.79-2-1a1,1,0,0,0-.894,0l-2,1,.894,1.79Z"></path><rect x="37" y="25" width="2" height="2"></rect><rect x="25" y="25" width="2" height="2"></rect><path d="M19,46v1a3,3,0,0,0,0,6h2a1,1,0,0,1,0,2H19a1,1,0,0,1-1-1H16a3,3,0,0,0,3,3v1h2V57a3,3,0,0,0,0-6H19a1,1,0,0,1,0-2h2a1,1,0,0,1,1,1h2a3,3,0,0,0-3-3V46Z"></path><path d="M43,49h2a1,1,0,0,1,1,1h2a3,3,0,0,0-3-3V46H43v1a3,3,0,0,0,0,6h2a1,1,0,0,1,0,2H43a1,1,0,0,1-1-1H40a3,3,0,0,0,3,3v1h2V57a3,3,0,0,0,0-6H43a1,1,0,0,1,0-2Z"></path><path d="M44.436,42.022,33,30.586V26H31v4.586L19.564,42.022a9.972,9.972,0,1,0,2.606.222L32,32.414l9.83,9.83a10.024,10.024,0,1,0,2.606-.222ZM28,52a8,8,0,1,1-8-8A8.009,8.009,0,0,1,28,52Zm16,8a8,8,0,1,1,8-8A8.009,8.009,0,0,1,44,60Z"></path><path d="M59,8a4,4,0,0,0-8,0,3,3,0,0,0,0,6h8a3,3,0,0,0,0-6Zm0,4H51a1,1,0,0,1,0-2h1.184a1,1,0,0,0,.942-1.334,2,2,0,1,1,3.748,0A1,1,0,0,0,57.816,10H59a1,1,0,0,1,0,2Z"></path><rect x="44" y="11" width="2" height="2"></rect><rect x="40" y="11" width="2" height="2"></rect><rect x="44" y="7" width="2" height="2"></rect><path d="M16,20a3,3,0,0,0-3-3,4,4,0,0,0-8,0,3,3,0,0,0,0,6h8A3,3,0,0,0,16,20ZM4,20a1,1,0,0,1,1-1H6.184a1,1,0,0,0,.942-1.334,2,2,0,1,1,3.748,0A1,1,0,0,0,11.816,19H13a1,1,0,0,1,0,2H5A1,1,0,0,1,4,20Z"></path><rect x="39" y="29" width="2" height="2"></rect><rect x="23" y="29" width="2" height="2"></rect><path d="M53,18a3,3,0,1,0,3,3A3,3,0,0,0,53,18Zm0,4a1,1,0,1,1,1-1A1,1,0,0,1,53,22Z"></path><rect x="52" y="26" width="2" height="2"></rect><rect x="52" y="30" width="2" height="2"></rect><rect x="52" y="34" width="2" height="2"></rect><path d="M12,30a3,3,0,1,0-3,3A3,3,0,0,0,12,30ZM8,30a1,1,0,1,1,1,1A1,1,0,0,1,8,30Z"></path><rect x="8" y="35" width="2" height="2"></rect><rect x="8" y="39" width="2" height="2"></rect></g></svg>