<svg xmlns="http://www.w3.org/2000/svg" viewBox="0 0 64 64" x="0px" y="0px"><g><path d="M61,41.28V17a5,5,0,0,0-5-5H38a11.025,11.025,0,0,0-10.24,7H26a4,4,0,0,0-8,0h-.39a1.976,1.976,0,0,0-1.78,1.1L10.48,30.81a.987.987,0,0,1-.58.5L6.86,32.34A4.968,4.968,0,0,0,3,37.21v4.07A2,2,0,0,0,2,43v2a2,2,0,0,0,1,1.72V48a3.009,3.009,0,0,0,3,3h5.29a7,7,0,0,0,13.42,0H38.29a7,7,0,0,0,13.42,0H58a3.009,3.009,0,0,0,3-3V46.72A2,2,0,0,0,62,45V43A2,2,0,0,0,61,41.28ZM22,17a2.015,2.015,0,0,1,2,2H20A2.006,2.006,0,0,1,22,17ZM5.97,35H7v2H5.02A2.965,2.965,0,0,1,5.97,35ZM4,43H8v2H4ZM18,54a5,5,0,1,1,5-5A5,5,0,0,1,18,54Zm9-31V49H25a7,7,0,0,0-14,0H6a1,1,0,0,1-1-1V47H8a2.006,2.006,0,0,0,2-2V43a2.006,2.006,0,0,0-2-2H5V39H7a2.006,2.006,0,0,0,2-2V35a1.972,1.972,0,0,0-.37-1.15l1.91-.64a3.027,3.027,0,0,0,1.72-1.5L17.61,21h9.58A11.023,11.023,0,0,0,27,23Zm2,0a9.014,9.014,0,0,1,9-9H56a3.009,3.009,0,0,1,3,3V28H58a3.009,3.009,0,0,0-3,3v1H53.54l-.63-1.41a1,1,0,0,0-1.8-.04L50,32.76,48.95,27.8a1,1,0,0,0-.98-.8h-.01a.994.994,0,0,0-.97.81l-.96,4.95-.07.28-.08-.3c-.02-.05-.04-.11-.06-.15l-.91-2a1,1,0,0,0-1.8-.04L42.38,32H29Zm30,7v6H58a1,1,0,0,1-1-1V31a1,1,0,0,1,1-1ZM45,54a5,5,0,1,1,5-5A5,5,0,0,1,45,54Zm14-6a1,1,0,0,1-1,1H52a7,7,0,0,0-14,0H29V34H43a.977.977,0,0,0,.89-.55l.07-.13,1.08,3.94A.985.985,0,0,0,46,38h.01a.994.994,0,0,0,.96-.76l1.01-4.05L48,33.1l.02.1a1.064,1.064,0,0,0,.09.25l1,2a1.039,1.039,0,0,0,1.78,0l1.06-2.11.03.07a1,1,0,0,0,.91.59H55v1a3.009,3.009,0,0,0,3,3h1v3H56a2.006,2.006,0,0,0-2,2v2a2.006,2.006,0,0,0,2,2h3Zm1-3H56V43h4Z"></path><path d="M23,23H20.618a1.99,1.99,0,0,0-1.789,1.105l-3,6A2,2,0,0,0,17.618,33H23a2,2,0,0,0,2-2V25A2,2,0,0,0,23,23Zm-5.382,8,3-6H23v6Z"></path><rect x="20" y="35" width="4" height="2"></rect><path d="M18,46a3,3,0,1,0,3,3A3,3,0,0,0,18,46Zm0,4a1,1,0,1,1,1-1A1,1,0,0,1,18,50Z"></path><path d="M45,46a3,3,0,1,0,3,3A3,3,0,0,0,45,46Zm0,4a1,1,0,1,1,1-1A1,1,0,0,1,45,50Z"></path><path d="M38,30a7,7,0,1,0-7-7A7.008,7.008,0,0,0,38,30Zm0-12a5,5,0,1,1-5,5A5.006,5.006,0,0,1,38,18Z"></path><polygon points="37 26 39 26 39 24 41 24 41 22 39 22 39 20 37 20 37 22 35 22 35 24 37 24 37 26"></polygon><rect x="21" y="10" width="2" height="3"></rect><rect x="14.99" y="12.489" width="2" height="3" transform="translate(-5.209 15.406) rotate(-45.007)"></rect><rect x="26.51" y="12.989" width="3" height="2" transform="translate(-1.688 23.904) rotate(-45)"></rect></g></svg>