<svg xmlns="http://www.w3.org/2000/svg" viewBox="0 0 64 64" x="0px" y="0px"><title>Broccoli</title><g><path d="M31.913,33.958a5.8,5.8,0,0,0-.957-1.967,5.991,5.991,0,0,0-6.787-8.378,5.99,5.99,0,0,0-5.8-1.555,5.908,5.908,0,0,0-3.463,2.526,5.913,5.913,0,0,0-4.263-.456A5.991,5.991,0,0,0,6.4,28.375,5.986,5.986,0,0,0,4.713,39.023a5.788,5.788,0,0,0,.155,2.182A5.995,5.995,0,0,0,9.8,45.589l3.823,8.944a1,1,0,0,0,.919.608.962.962,0,0,0,.259-.035l15.455-4.14a1,1,0,0,0,.734-1.085L29.83,40.222A6.006,6.006,0,0,0,31.913,33.958Zm-3.01,15.3L15.124,52.95,11.941,45.5c.091-.02.184-.03.275-.055a5.784,5.784,0,0,0,1.967-.958,5.953,5.953,0,0,0,5.929-.48,5.956,5.956,0,0,0,5.377-2.548,5.739,5.739,0,0,0,2.181-.154c.091-.025.177-.058.266-.086Zm-1.75-9.884a3.947,3.947,0,0,1-1.936.011,1,1,0,0,0-1.112.506,3.953,3.953,0,0,1-4.121,2.089,1,1,0,0,0-.775.207,3.951,3.951,0,0,1-4.613.251,1,1,0,0,0-1.216.118,3.962,3.962,0,0,1-6.591-3.8,1,1,0,0,0-.507-1.112,3.99,3.99,0,0,1,.831-7.389.833.833,0,0,1,.11-.016c.066-.008.132-.017.2-.029a1,1,0,0,0,.816-.844,4,4,0,0,1,2.925-3.3,3.956,3.956,0,0,1,1.025-.136,4,4,0,0,1,2.484.877.985.985,0,0,0,.879.181,1,1,0,0,0,.671-.6,3.96,3.96,0,0,1,2.668-2.4,4,4,0,0,1,4.185,1.4,1,1,0,0,0,1.12.325c.068-.024.134-.051.2-.079a.85.85,0,0,1,.1-.04,4,4,0,0,1,4.9,2.829,3.949,3.949,0,0,1-.49,3.155,1,1,0,0,0,.117,1.216,3.932,3.932,0,0,1,.959,1.683A4,4,0,0,1,27.153,39.375Z"></path><path d="M44,26a1,1,0,0,0,.936-.646L47.6,18.3a3.961,3.961,0,0,0,2.335-1.4A3.975,3.975,0,0,0,52.1,10.127a4,4,0,0,0-2.923-4.445A3.755,3.755,0,0,0,48,5.554a3.983,3.983,0,0,0-5.073-1.667A3.985,3.985,0,0,0,37.7,2.794a3.845,3.845,0,0,0-1.081-.477,4,4,0,0,0-4.754,2.389A3.971,3.971,0,0,0,30.073,11.4a4,4,0,0,0,2.35,4.232l-1,6.1a1,1,0,0,0,.728,1.128l11.591,3.106A1.013,1.013,0,0,0,44,26ZM32.109,11.446a1,1,0,0,0-.346-1.241,1.979,1.979,0,0,1,.972-3.625,1.014,1.014,0,0,0,.917-.917A2,2,0,0,1,36.1,4.249a1.942,1.942,0,0,1,.873.513,1,1,0,0,0,1.381.022,1.981,1.981,0,0,1,1.869-.466A2.007,2.007,0,0,1,41.6,5.623a1,1,0,0,0,1.607.431,2.006,2.006,0,0,1,1.846-.442A1.984,1.984,0,0,1,46.439,6.95a1,1,0,0,0,1.208.671,1.942,1.942,0,0,1,1.012-.008,2,2,0,0,1,1.4,2.469,1,1,0,0,0,.348,1.234,2,2,0,0,1,.82,2.163,1.981,1.981,0,0,1-1.873,1.466,1,1,0,0,0-.82.475,1.976,1.976,0,0,1-2.891.55,1,1,0,0,0-1.466.3,1.985,1.985,0,0,1-2.231.931A2.006,2.006,0,0,1,40.571,15.9a1,1,0,0,0-1.607-.43,2.009,2.009,0,0,1-1.845.442,1.985,1.985,0,0,1-1.386-1.338,1,1,0,0,0-1.206-.671,1.936,1.936,0,0,1-1.013.008,1.985,1.985,0,0,1-1.216-.931A1.962,1.962,0,0,1,32.109,11.446Zm1.433,9.717.81-4.94A3.953,3.953,0,0,0,36.6,17.841a3.994,3.994,0,0,0,2.644-.206,3.981,3.981,0,0,0,2.186,1.5,3.939,3.939,0,0,0,1.027.136,4,4,0,0,0,2.853-1.205c.069.03.143.049.214.074L43.385,23.8Z"></path><path d="M60.1,43.127a4,4,0,0,0-2.923-4.445A3.732,3.732,0,0,0,56,38.554a3.983,3.983,0,0,0-5.073-1.667A3.985,3.985,0,0,0,45.7,35.794a3.845,3.845,0,0,0-1.081-.477,4,4,0,0,0-4.754,2.389A3.971,3.971,0,0,0,38.073,44.4a4,4,0,0,0,2.35,4.232l-1,6.1a1,1,0,0,0,.728,1.128l11.591,3.106A1.013,1.013,0,0,0,52,59a1,1,0,0,0,.936-.646L55.6,51.3a3.961,3.961,0,0,0,2.335-1.4A3.975,3.975,0,0,0,60.1,43.127ZM51.385,56.8l-9.843-2.637.81-4.94A3.953,3.953,0,0,0,44.6,50.841a4,4,0,0,0,2.644-.206,3.981,3.981,0,0,0,2.186,1.5,3.939,3.939,0,0,0,1.027.136,4,4,0,0,0,2.853-1.2c.069.03.143.049.214.074Zm7.844-10.321a1.981,1.981,0,0,1-1.873,1.466,1,1,0,0,0-.82.475,1.976,1.976,0,0,1-2.891.55,1,1,0,0,0-1.466.3,1.985,1.985,0,0,1-2.231.931A2.006,2.006,0,0,1,48.571,48.9a1,1,0,0,0-1.607-.43,2.011,2.011,0,0,1-1.845.442,1.985,1.985,0,0,1-1.386-1.338,1,1,0,0,0-1.206-.671,1.936,1.936,0,0,1-1.013.008,1.985,1.985,0,0,1-1.216-.931,1.962,1.962,0,0,1-.189-1.531,1,1,0,0,0-.346-1.241,1.979,1.979,0,0,1,.972-3.625,1.014,1.014,0,0,0,.917-.917,2,2,0,0,1,2.45-1.414,1.942,1.942,0,0,1,.873.513,1,1,0,0,0,1.381.022,1.981,1.981,0,0,1,1.869-.466,2.007,2.007,0,0,1,1.376,1.3,1,1,0,0,0,1.607.431,2.006,2.006,0,0,1,1.846-.442,1.984,1.984,0,0,1,1.385,1.338,1,1,0,0,0,1.208.671,1.953,1.953,0,0,1,1.012-.008,2,2,0,0,1,1.4,2.469,1,1,0,0,0,.348,1.234A2,2,0,0,1,59.229,46.479Z"></path></g></svg>