<svg xmlns="http://www.w3.org/2000/svg" viewBox="0 0 64 64" x="0px" y="0px"><path d="M60,47V45H42v6H60V49H48V47ZM46,49H44V47h2Z"></path><path d="M24,59H40V37H24Zm9-10H31a3,3,0,0,1,0-6V42h2v1a3,3,0,0,1,3,3H34a1,1,0,0,0-1-1H31a1,1,0,0,0,0,2h2a3,3,0,0,1,0,6v1H31V53a3,3,0,0,1-3-3h2a1,1,0,0,0,1,1h2a1,1,0,0,0,0-2Z"></path><path d="M22,57H10V55H22V53H4v6H22ZM8,57H6V55H8Z"></path><path d="M4,49v2H22V45H4v2H16v2Zm14-2h2v2H18Z"></path><path d="M60,53H42v2H54v2H42v2H60Zm-2,4H56V55h2Z"></path><path d="M22,39V37H4v6H22V41H10V39ZM8,41H6V39H8Z"></path><path d="M60,37H42v2H54v2H42v2H60Zm-2,4H56V39h2Z"></path><path d="M32,10a8,8,0,1,0,8,8A8.009,8.009,0,0,0,32,10Zm-1,7h2a3,3,0,0,1,0,6v1H31V23a3,3,0,0,1-3-3h2a1,1,0,0,0,1,1h2a1,1,0,0,0,0-2H31a3,3,0,0,1,0-6V12h2v1a3,3,0,0,1,3,3H34a1,1,0,0,0-1-1H31a1,1,0,0,0,0,2Z"></path><path d="M4,23.06V31h7.94A9.013,9.013,0,0,0,4,23.06Z"></path><path d="M11.94,5H4v7.94A9.013,9.013,0,0,0,11.94,5Z"></path><path d="M60,23.06A9.013,9.013,0,0,0,52.06,31H60Z"></path><path d="M60,12.94V5H52.06A9.013,9.013,0,0,0,60,12.94Z"></path><path d="M60,21.05v-6.1A11.013,11.013,0,0,1,50.05,5H13.95A11.013,11.013,0,0,1,4,14.95v6.1A11.013,11.013,0,0,1,13.95,31h36.1A11.013,11.013,0,0,1,60,21.05ZM32,28A10,10,0,1,1,42,18,10.011,10.011,0,0,1,32,28Z"></path></svg>