<svg xmlns="http://www.w3.org/2000/svg" viewBox="0 0 64 64" x="0px" y="0px"><g><path d="M23,12h1V23H22a2,2,0,0,0-2,2V42a2,2,0,0,0,2,2h6a2,2,0,0,0,2-2V25a2,2,0,0,0-2-2H26V12h1a1,1,0,0,0,1-1V9a.984.984,0,0,0-.03-.242l-1-4A1,1,0,0,0,26,4H24a1,1,0,0,0-.97.758l-1,4A.984.984,0,0,0,22,9v2A1,1,0,0,0,23,12Zm5,30H26V30H24V42H22V25h6ZM24,9.123,24.781,6h.438L26,9.123V10H24Z"></path><path d="M61,52H57V19a5.006,5.006,0,0,0-5-5H46v2h6a3,3,0,0,1,3,3V52H9V19a3,3,0,0,1,3-3H22V14H12a5.006,5.006,0,0,0-5,5V52H3a1,1,0,0,0-1,1v4a3,3,0,0,0,3,3H59a3,3,0,0,0,3-3V53A1,1,0,0,0,61,52ZM28,54h8v1H28Zm32,3a1,1,0,0,1-1,1H5a1,1,0,0,1-1-1V54H26v1a2,2,0,0,0,2,2h8a2,2,0,0,0,2-2V54H60Z"></path><rect x="28" y="14" width="2" height="2"></rect><rect x="13" y="46" width="38" height="2"></rect><path d="M35,16V41a3,3,0,0,0,6,0V16a3,3,0,0,0,3-3V8a4,4,0,0,0-4-4,1,1,0,0,0-1,1V9H37V5a1,1,0,0,0-1-1,4,4,0,0,0-4,4v5A3,3,0,0,0,35,16ZM34,8a2,2,0,0,1,1-1.731V10a1,1,0,0,0,1,1h4a1,1,0,0,0,1-1V6.269A2,2,0,0,1,42,8v5a1,1,0,0,1-1,1H40a1,1,0,0,0-1,1V41a1,1,0,0,1-2,0V15a1,1,0,0,0-1-1H35a1,1,0,0,1-1-1Z"></path><rect x="45" y="33" width="2" height="2"></rect><rect x="45" y="37" width="2" height="2"></rect><rect x="45" y="29" width="2" height="2"></rect><rect x="45" y="25" width="2" height="2"></rect><rect x="15" y="33" width="2" height="2"></rect><rect x="15" y="37" width="2" height="2"></rect><rect x="15" y="29" width="2" height="2"></rect><rect x="15" y="25" width="2" height="2"></rect></g></svg>