<svg xmlns="http://www.w3.org/2000/svg" data-name="Online Shopping-Shopping Bag-Smartphone-List-Commerce" viewBox="0 0 64 64" x="0px" y="0px"><path d="M23,40V34H21v8.829A3.006,3.006,0,0,0,23,40Z"></path><path d="M11,42.829V34H9v6A3.006,3.006,0,0,0,11,42.829Z"></path><rect x="13" y="41" width="6" height="2"></rect><polygon points="36 30 34 30 34 55.65 36 58.15 36 30"></polygon><polygon points="31.08 60 34.92 60 33 57.6 31.08 60"></polygon><path d="M4,60H28V30H4ZM7,33a1,1,0,0,1,1-1h4a1,1,0,0,1,1,1v6h6V33a1,1,0,0,1,1-1h4a1,1,0,0,1,1,1v7a5.006,5.006,0,0,1-5,5H12a5.006,5.006,0,0,1-5-5Z"></path><polygon points="30 58.15 32 55.65 32 30 30 30 30 58.15"></polygon><path d="M36.707,19.707l-1.414-1.414L38.285,15.3A2.951,2.951,0,0,0,37,15a3,3,0,1,0,3,3,2.951,2.951,0,0,0-.3-1.285Z"></path><path d="M44,54H38v2h6a1,1,0,0,0,0-2ZM56,4H28a4,4,0,0,0-4,4V28H37a1,1,0,0,1,1,1V52h6a3,3,0,0,1,0,6H38v2H56a4,4,0,0,0,4-4V8A4,4,0,0,0,56,4ZM45,17V15h6v2Zm6,2v2H45V19ZM39,6h6V8H39ZM35,6h2V8H35Zm2,17a5,5,0,1,1,2.75-9.17l1.54-1.54,1.42,1.42-1.54,1.54A4.993,4.993,0,0,1,37,23ZM56,44H42V42H56Zm0-4H42V38H56Zm0-4H42V34H56Zm0-4H42V30H56Z"></path></svg>