<svg xmlns="http://www.w3.org/2000/svg" viewBox="0 0 48 48" x="0px" y="0px"><title>Sattlelite</title><g><path d="M24,0A24,24,0,1,0,48,24,24.028,24.028,0,0,0,24,0Zm0,46A22,22,0,1,1,46,24,22.025,22.025,0,0,1,24,46Z"></path><path d="M24,12v2a6.006,6.006,0,0,1,6,6h2A8.009,8.009,0,0,0,24,12Z"></path><path d="M27.435,22.021a3.977,3.977,0,0,0-5.455-5.456l-2.933-2.932a1,1,0,0,0-.707-.293h0a1,1,0,0,0-.707.294,9.031,9.031,0,0,0-.991,11.535L14.018,38.811A1,1,0,0,0,15,40H26a1,1,0,0,0,.965-1.262l-2.646-9.76a8.976,8.976,0,0,0,6.047-2.609,1,1,0,0,0,0-1.416ZM24,18a2,2,0,0,1,2,2,2.033,2.033,0,0,1-.067.518l-2.451-2.45A1.99,1.99,0,0,1,24,18ZM16.211,38l2.117-11.008A8.957,8.957,0,0,0,22.2,28.81L24.692,38Zm2.837-13.046a7.032,7.032,0,0,1-.656-9.148l2.781,2.781,4.24,4.24,2.781,2.781A7.031,7.031,0,0,1,19.048,24.954Z"></path><path d="M25,7V9A10.011,10.011,0,0,1,35,19h2A12.013,12.013,0,0,0,25,7Z"></path></g></svg>