<svg xmlns="http://www.w3.org/2000/svg" viewBox="0 0 64 64" x="0px" y="0px"><g data-name="Jig Saw-Saw-Hacksaw-Carpenter-Sawing-Tools"><path d="M60,39v2H58V24a7.008,7.008,0,0,0-7-7H25a7.008,7.008,0,0,0-7,7V41H15.04l-8.97-.75a3.762,3.762,0,1,0-.31,7.51c.11,0,.21,0,.31-.01L15.04,47H26a2.006,2.006,0,0,0,2-2H52v1a1,1,0,0,0,1,1h7a2.006,2.006,0,0,0,2-2V39ZM14,45.08l-8.09.67a1.754,1.754,0,0,1-1.34-.46,1.76,1.76,0,0,1,1.19-3.05.757.757,0,0,1,.15.01l8.09.67ZM18,45H16V43h2Zm8,0H24V43h2Zm26-2H28V39H26v2H24V24a1,1,0,0,1,1-1H51a1,1,0,0,1,1,1Zm4,2H54V24a3.009,3.009,0,0,0-3-3H25a3.009,3.009,0,0,0-3,3V45H20V24a5,5,0,0,1,5-5H51a5,5,0,0,1,5,5Zm4,0H58V43h2Z"></path></g></svg>