<svg xmlns="http://www.w3.org/2000/svg" viewBox="0 0 64 64" x="0px" y="0px"><g data-name="Online File"><circle cx="48" cy="44" r="4"></circle><path d="M57.54,42.52a1,1,0,0,1-.83-.75,8.664,8.664,0,0,0-.98-2.35,1.017,1.017,0,0,1,.06-1.11l1.5-1.99-1.61-1.61-1.99,1.5a1.017,1.017,0,0,1-1.11.06,8.664,8.664,0,0,0-2.35-.98,1,1,0,0,1-.75-.83L49.13,32H46.87l-.35,2.46a1,1,0,0,1-.75.83,8.664,8.664,0,0,0-2.35.98,1.017,1.017,0,0,1-1.11-.06l-1.99-1.5-1.61,1.61,1.5,1.99a1.017,1.017,0,0,1,.06,1.11,8.664,8.664,0,0,0-.98,2.35,1,1,0,0,1-.83.75L36,42.87v2.26l2.46.35a1,1,0,0,1,.83.75,8.664,8.664,0,0,0,.98,2.35,1.017,1.017,0,0,1-.06,1.11l-1.5,1.99,1.61,1.61,1.99-1.5a1.017,1.017,0,0,1,1.11-.06,8.664,8.664,0,0,0,2.35.98,1,1,0,0,1,.75.83L46.87,56h2.26l.35-2.46a1,1,0,0,1,.75-.83,8.664,8.664,0,0,0,2.35-.98,1.017,1.017,0,0,1,1.11.06l1.99,1.5,1.61-1.61-1.5-1.99a1.017,1.017,0,0,1-.06-1.11,8.664,8.664,0,0,0,.98-2.35,1,1,0,0,1,.83-.75L60,45.13V42.87ZM40,45H38V43h2Zm7-11h2v2H47Zm-6.78,3.64,1.42-1.42,1.41,1.42-1.41,1.41Zm1.42,14.14-1.42-1.42,1.42-1.41,1.41,1.41ZM49,54H47V52h2Zm-1-4a6,6,0,1,1,6-6A6,6,0,0,1,48,50Zm7.78.36-1.42,1.42-1.41-1.42,1.41-1.41ZM54.36,39.05l-1.41-1.41,1.41-1.42,1.42,1.42ZM58,45H56V43h2Z"></path><path d="M16,10v4H37a3.009,3.009,0,0,1,3,3V31H38V17a1,1,0,0,0-1-1H34v6a1.008,1.008,0,0,1-.71.96A.967.967,0,0,1,33,23a.984.984,0,0,1-.83-.45L31,20.8l-1.17,1.75a.992.992,0,0,1-1.12.41A1.008,1.008,0,0,1,28,22V16H5a1,1,0,0,0-1,1V59a1,1,0,0,0,1,1H37a1,1,0,0,0,1-1V54h.2l-1.51-1.51a.994.994,0,0,1-.1-1.31l1.63-2.17a10.291,10.291,0,0,1-.68-1.64l-2.68-.38A1,1,0,0,1,34,46V42a1,1,0,0,1,.86-.99l2.68-.38a10.291,10.291,0,0,1,.68-1.64l-1.63-2.17a.994.994,0,0,1,.1-1.31l2.82-2.82a.994.994,0,0,1,1.31-.1l2.17,1.63a10.291,10.291,0,0,1,1.64-.68l.38-2.68A1,1,0,0,1,46,30h4a1,1,0,0,1,.99.86l.38,2.68c.21.07.42.14.63.23V10Zm0,16h8v2H16ZM8,26h6v2H8Zm4,26H8V50h4Zm16,4H14V54H28Zm4-16v2H14V40ZM14,38V36h6v2Zm18,6v2H14V44Zm-8,6v2H14V50Zm10,6H30V54h4Zm0-18H22V36H34Zm0-6H8V30H34Z"></path><path d="M31,18a1,1,0,0,1,.832.445L32,18.7V16H30v2.7l.168-.252A1,1,0,0,1,31,18Z"></path><path d="M51,4H17a1,1,0,0,0-1,1V8H52V5A1,1,0,0,0,51,4ZM22,7H20V5h2Zm4,0H24V5h2Zm4,0H28V5h2Z"></path></g></svg>