<svg xmlns="http://www.w3.org/2000/svg" viewBox="0 0 64 64" x="0px" y="0px"><g><path d="M39.333,42.665A1,1,0,0,0,39,43.41V60H19V51a1,1,0,0,0-1-1H12a3,3,0,0,1-3-3V40a1,1,0,0,0-1-1H4.081l6.7-8.375A1,1,0,0,0,11,30,16.969,16.969,0,0,1,26.11,13.1l-.22-1.988A18.966,18.966,0,0,0,9,29.645L2.519,37.75A2,2,0,0,0,4.081,41H7v6a5.006,5.006,0,0,0,5,5h5v9a1,1,0,0,0,1,1H40a1,1,0,0,0,1-1V43.85A19.075,19.075,0,0,0,43.833,40.5L42.167,39.4A17.019,17.019,0,0,1,39.333,42.665Z"></path><rect x="43" y="2" width="2" height="2"></rect><rect x="38.6" y="2.579" width="2" height="2" transform="matrix(0.966, -0.259, 0.259, 0.966, 0.422, 10.369)"></rect><rect x="34.5" y="4.278" width="2" height="2" transform="translate(2.118 18.458) rotate(-30.002)"></rect><rect x="30.979" y="6.979" width="2" height="2" transform="translate(3.724 24.95) rotate(-45)"></rect><rect x="28.277" y="10.5" width="2" height="2" transform="translate(4.679 31.104) rotate(-59.998)"></rect><rect x="26.579" y="14.6" width="2" height="2" transform="matrix(0.259, -0.966, 0.966, 0.259, 5.374, 38.204)"></rect><rect x="26" y="19" width="2" height="2"></rect><rect x="26.579" y="23.4" width="2" height="2" transform="translate(-5.375 7.969) rotate(-15)"></rect><rect x="28.278" y="27.5" width="2" height="2" transform="translate(-10.327 18.453) rotate(-29.995)"></rect><rect x="30.979" y="31.021" width="2" height="2" transform="translate(-13.276 31.991) rotate(-45)"></rect><rect x="34.5" y="33.722" width="2" height="2" transform="translate(-12.319 48.11) rotate(-60.005)"></rect><rect x="38.6" y="35.421" width="2" height="2" transform="matrix(0.259, -0.966, 0.966, 0.259, -5.827, 65.248)"></rect><rect x="43" y="36" width="2" height="2"></rect><rect x="47.4" y="35.421" width="2" height="2" transform="matrix(0.966, -0.259, 0.259, 0.966, -7.776, 13.764)"></rect><rect x="51.5" y="33.722" width="2" height="2" transform="translate(-10.328 30.904) rotate(-30.002)"></rect><rect x="55.021" y="31.021" width="2" height="2" transform="translate(-6.234 48.991) rotate(-45)"></rect><rect x="57.722" y="27.5" width="2" height="2" transform="translate(4.678 65.104) rotate(-59.998)"></rect><rect x="59.421" y="23.4" width="2" height="2" transform="translate(21.218 76.449) rotate(-75.004)"></rect><rect x="60" y="19" width="2" height="2"></rect><rect x="59.421" y="14.6" width="2" height="2" transform="matrix(0.966, -0.259, 0.259, 0.966, -1.979, 16.166)"></rect><rect x="57.722" y="10.5" width="2" height="2" transform="translate(2.118 30.904) rotate(-30.002)"></rect><rect x="55.021" y="6.979" width="2" height="2" transform="translate(10.766 41.95) rotate(-45)"></rect><rect x="51.5" y="4.277" width="2" height="2" transform="translate(21.683 48.108) rotate(-60.005)"></rect><rect x="47.4" y="2.579" width="2" height="2" transform="translate(32.416 49.404) rotate(-75)"></rect><path d="M43.5,27.868a1,1,0,0,0,.992,0C45.264,27.429,52,23.452,52,19a4.982,4.982,0,0,0-8-3.982A4.982,4.982,0,0,0,36,19C36,23.452,42.736,27.429,43.5,27.868ZM41,16a2.959,2.959,0,0,1,2.248,1.038,1.031,1.031,0,0,0,1.5,0A2.959,2.959,0,0,1,47,16a3,3,0,0,1,3,3c0,2.57-3.955,5.562-6,6.835-2.046-1.271-6-4.259-6-6.835A3,3,0,0,1,41,16Z"></path></g></svg>