<svg xmlns="http://www.w3.org/2000/svg" viewBox="0 0 64 64" x="0px" y="0px"><g data-name="Smartphone-Cloud Computing"><path d="M59.56,18.454a10,10,0,0,0-6.625-3.41A7.012,7.012,0,0,0,46,9a6.928,6.928,0,0,0-4.051,1.292,11.994,11.994,0,0,0-21.533,3.6A6.984,6.984,0,0,0,10.083,19,7.906,7.906,0,0,0,4.01,21.7,8.037,8.037,0,0,0,2.061,28a8.143,8.143,0,0,0,8.205,7H13V33H10.266a6.141,6.141,0,0,1-6.219-5.244,5.956,5.956,0,0,1,6.814-6.686,1.022,1.022,0,0,0,.8-.274A1.083,1.083,0,0,0,12,20a4.993,4.993,0,0,1,8.412-3.646,1,1,0,0,0,1.676-.606A9.993,9.993,0,0,1,40.82,12.29a1,1,0,0,0,1.6.226A5,5,0,0,1,51,16a1,1,0,0,0,1,1,8,8,0,0,1,7.914,9.192A8.18,8.18,0,0,1,51.72,33H51v2h.72A10.191,10.191,0,0,0,61.9,26.477,10.056,10.056,0,0,0,59.56,18.454Z"></path><rect x="47" y="15" width="2" height="2"></rect><rect x="43" y="15" width="2" height="2"></rect><path d="M56,25a4,4,0,0,1-4,4v2a6.006,6.006,0,0,0,6-6Z"></path><path d="M16,37a3,3,0,1,0,3,3A3,3,0,0,0,16,37Zm0,4a1,1,0,1,1,1-1A1,1,0,0,1,16,41Z"></path><rect x="15" y="31" width="2" height="4"></rect><rect x="15" y="27" width="2" height="2"></rect><rect x="15" y="23" width="2" height="2"></rect><path d="M48,23a3,3,0,1,0,3,3A3,3,0,0,0,48,23Zm0,4a1,1,0,1,1,1-1A1,1,0,0,1,48,27Z"></path><rect x="47" y="31" width="2" height="4"></rect><rect x="47" y="37" width="2" height="2"></rect><rect x="47" y="41" width="2" height="2"></rect><path d="M40,24H24a3,3,0,0,0-3,3V53a3,3,0,0,0,3,3H40a3,3,0,0,0,3-3V27A3,3,0,0,0,40,24ZM29,26h6v2H29ZM41,53a1,1,0,0,1-1,1H24a1,1,0,0,1-1-1V27a1,1,0,0,1,1-1h3v2a2,2,0,0,0,2,2h6a2,2,0,0,0,2-2V26h3a1,1,0,0,1,1,1Z"></path><rect x="31" y="37" width="2" height="2"></rect><rect x="31" y="41" width="2" height="2"></rect><rect x="31" y="45" width="2" height="2"></rect><rect x="35" y="45" width="2" height="2"></rect><rect x="35" y="41" width="2" height="2"></rect><rect x="35" y="37" width="2" height="2"></rect><rect x="27" y="45" width="2" height="2"></rect><rect x="27" y="41" width="2" height="2"></rect><rect x="27" y="37" width="2" height="2"></rect></g></svg>