<svg xmlns="http://www.w3.org/2000/svg" viewBox="0 0 64 64" x="0px" y="0px"><g><polygon points="35.34 29.03 32.51 31.86 30.39 29.74 22.62 21.96 25.44 19.13 33.22 26.91 35.34 29.03"></polygon><polygon points="23.79 17.95 21.44 20.31 19.08 17.01 20.49 15.59 23.79 17.95"></polygon><polygon points="19.08 14.18 17.67 15.6 13.42 11.35 14.84 9.94 19.08 14.18"></polygon><rect x="9.302" y="5.816" width="4" height="4" transform="translate(-2.217 10.281) rotate(-45)"></rect><rect x="21" y="44" width="2" height="2"></rect><rect x="33" y="40" width="2" height="6"></rect><rect x="46" y="48" width="2" height="2"></rect><rect x="16" y="48" width="2" height="2"></rect><path d="M13.9,48a4.969,4.969,0,0,0-.732-1.753l-.631.632-1.414-1.414.631-.632A4.961,4.961,0,0,0,10,44.1V45H8v-.9a4.961,4.961,0,0,0-1.753.732l.631.632L5.464,46.879l-.631-.632A4.969,4.969,0,0,0,4.1,48H5v2H4.1a4.969,4.969,0,0,0,.732,1.753l.631-.632,1.414,1.414-.631.632A4.961,4.961,0,0,0,8,53.9V53h2v.9a4.961,4.961,0,0,0,1.753-.732l-.631-.632,1.414-1.414.631.632A4.969,4.969,0,0,0,13.9,50H13V48ZM9,52a3,3,0,1,1,3-3A3,3,0,0,1,9,52Z"></path><circle cx="9" cy="49" r="1"></circle><circle cx="55" cy="49" r="1"></circle><path d="M59.9,48a4.969,4.969,0,0,0-.732-1.753l-.631.632-1.414-1.414.631-.632A4.961,4.961,0,0,0,56,44.1V45H54v-.9a4.961,4.961,0,0,0-1.753.732l.631.632-1.414,1.414-.631-.632A4.969,4.969,0,0,0,50.1,48H51v2h-.9a4.969,4.969,0,0,0,.732,1.753l.631-.632,1.414,1.414-.631.632A4.961,4.961,0,0,0,54,53.9V53h2v.9a4.961,4.961,0,0,0,1.753-.732l-.631-.632,1.414-1.414.631.632A4.969,4.969,0,0,0,59.9,50H59V48ZM55,52a3,3,0,1,1,3-3A3,3,0,0,1,55,52Z"></path><rect x="31" y="48" width="13" height="2"></rect><rect x="27" y="46" width="2" height="8"></rect><rect x="20" y="48" width="5" height="2"></rect><polygon points="21 42 22.936 42 22.061 28 21 28 21 42"></polygon><rect x="37.06" y="38.076" width="10" height="0.998" transform="translate(-14.956 41.067) rotate(-45.028)"></rect><polygon points="29.689 33.274 31.097 31.861 30.389 31.153 28.976 32.562 29.689 33.274"></polygon><rect x="29.989" y="31.006" width="10" height="0.998" transform="translate(-12.028 33.99) rotate(-45.026)"></rect><rect x="40.353" y="29.709" width="1.999" height="5" transform="translate(-10.66 38.703) rotate(-45.032)"></rect><rect x="34.694" y="26.056" width="2.003" height="0.999" transform="translate(-8.323 33.018) rotate(-45)"></rect><rect x="40.354" y="43.026" width="2.003" height="0.999" transform="translate(-18.664 41.991) rotate(-45)"></rect><rect x="46.013" y="37.364" width="1.999" height="1.002" transform="translate(-13.005 44.333) rotate(-45)"></rect><rect x="34.699" y="35.37" width="1.998" height="5" transform="translate(-16.324 36.365) rotate(-45.035)"></rect></g></svg>