<svg xmlns="http://www.w3.org/2000/svg" viewBox="0 0 64 64" x="0px" y="0px"><g><path d="M62,43H51V41a1,1,0,0,0-1-1H44a1,1,0,0,0-1,1v2H41V39.858A3.992,3.992,0,0,0,40,32H38V28.63a14,14,0,1,0-12,0V32H24a3.992,3.992,0,0,0-1,7.858V43H21V41a1,1,0,0,0-1-1H14a1,1,0,0,0-1,1v2H2a1,1,0,0,0-1,1V58a1,1,0,0,0,1,1H13v2a1,1,0,0,0,1,1h6a1,1,0,0,0,1-1V59H43v2a1,1,0,0,0,1,1h6a1,1,0,0,0,1-1V59H62a1,1,0,0,0,1-1V44A1,1,0,0,0,62,43ZM20,16A12,12,0,1,1,32,28,12.013,12.013,0,0,1,20,16Zm8,13.41a13.854,13.854,0,0,0,8,0V32H28ZM22,36a2,2,0,0,1,2-2H40a2,2,0,0,1,0,4H24A2,2,0,0,1,22,36ZM3,57V45H13V57Zm16,3H15V42h4V60Zm2-15h2V57H21Zm4-1V40H39V57H25ZM41,57V45h2V57Zm8,3H45V42h4V60Zm12-3H51V45H61Z"></path><path d="M25.682,20.9a7.861,7.861,0,0,1-1.6-3.9H26V15H24.069a7.953,7.953,0,0,1,1.619-3.9l1.362,1.362,1.414-1.414L27.1,9.688A7.953,7.953,0,0,1,31,8.069V10h2V8.069a7.953,7.953,0,0,1,3.9,1.619L35.536,11.05l1.414,1.414L38.312,11.1A7.953,7.953,0,0,1,39.931,15H38v2h1.918a7.861,7.861,0,0,1-1.6,3.9L36.95,19.536,35.536,20.95l2.117,2.117a1,1,0,0,0,1.411,0A9.888,9.888,0,0,0,42,16a10,10,0,0,0-20,0,9.888,9.888,0,0,0,2.936,7.069,1,1,0,0,0,1.411,0l2.117-2.117L27.05,19.536Z"></path><path d="M32,18a2,2,0,1,0-2-2,1.96,1.96,0,0,0,.075.511l-1.782,1.782,1.414,1.414,1.782-1.782A1.96,1.96,0,0,0,32,18Z"></path><rect x="5" y="47" width="2" height="2"></rect><rect x="27" y="53" width="2" height="2"></rect><rect x="31" y="53" width="4" height="2"></rect><rect x="55" y="47" width="4" height="2"></rect></g></svg>