<svg xmlns="http://www.w3.org/2000/svg" viewBox="0 0 64 64" x="0px" y="0px"><g><path d="M30,51a3,3,0,1,0,3,3A3,3,0,0,0,30,51Zm0,4a1,1,0,1,1,1-1A1,1,0,0,1,30,55Z"></path><path d="M22,51a3,3,0,1,0,3,3A3,3,0,0,0,22,51Zm0,4a1,1,0,1,1,1-1A1,1,0,0,1,22,55Z"></path><path d="M38,51a3,3,0,1,0,3,3A3,3,0,0,0,38,51Zm0,4a1,1,0,1,1,1-1A1,1,0,0,1,38,55Z"></path><path d="M46,51a3,3,0,1,0,3,3A3,3,0,0,0,46,51Zm0,4a1,1,0,1,1,1-1A1,1,0,0,1,46,55Z"></path><path d="M54,51a3,3,0,1,0,3,3A3,3,0,0,0,54,51Zm0,4a1,1,0,1,1,1-1A1,1,0,0,1,54,55Z"></path><path d="M56,48H52V41a1,1,0,0,0-1-1H41a1,1,0,0,0-1,1v7H38V41a1,1,0,0,0-1-1H27a1,1,0,0,0-1,1v7H13.967l-.959-28.772,7.266-7.257A3.918,3.918,0,0,0,22.615,11H43V25a1,1,0,0,0,1,1h1v1a1.006,1.006,0,0,0-.555.168l-3,2A1,1,0,0,0,41,30v4a1,1,0,0,0,.293.707l2,2,1.414-1.414L43,33.586V30.535L45.3,29h1.283L49,31.414v2.172l-1.707,1.707,1.414,1.414,2-2A1,1,0,0,0,51,34V31a1,1,0,0,0-.293-.707l-3-3A1,1,0,0,0,47,27V26h1a1,1,0,0,0,1-1V10.613A3.946,3.946,0,0,0,50,8a4,4,0,0,0-4-4,3.947,3.947,0,0,0-2.615,1H22.613A3.946,3.946,0,0,0,20,4a3.991,3.991,0,0,0-3.972,3.728l-7.29,7.3a3.99,3.99,0,0,0-3.733,3.923c0,.006,0,.011,0,.018L4.033,48H3a1,1,0,0,0-1,1V59a1,1,0,0,0,1,1H56a6,6,0,0,0,0-12Zm-9-6v2H45V42Zm-5,0h1v3a1,1,0,0,0,1,1h4a1,1,0,0,0,1-1V42h1v6H42Zm-9,0v2H31V42Zm-5,0h1v3a1,1,0,0,0,1,1h4a1,1,0,0,0,1-1V42h1v6H28ZM47,24H45V11.873c.059.015.119.022.179.034s.115.024.173.033a4.077,4.077,0,0,0,.615.057L46,12l.033,0a4.049,4.049,0,0,0,.613-.056c.06-.01.119-.022.178-.034s.118-.019.176-.034ZM48,8a1.955,1.955,0,0,1-.671,1.488,2.039,2.039,0,0,1-2.038.372,1.956,1.956,0,0,1-.631-.381c-.064-.056-.129-.122-.158-.15A1.969,1.969,0,0,1,44,8a2,2,0,0,1,.523-1.343A1.95,1.95,0,0,1,46,6,2,2,0,0,1,48,8ZM42.127,7c-.015.06-.022.121-.035.181s-.023.11-.032.166A4.055,4.055,0,0,0,42,8a4.107,4.107,0,0,0,.06.658c.009.054.019.107.03.16s.02.122.035.182H23.873c.015-.059.022-.121.035-.181s.023-.11.032-.167A4.033,4.033,0,0,0,24,8a3.921,3.921,0,0,0-.06-.651c-.009-.057-.021-.114-.033-.171s-.019-.119-.034-.178ZM20,6a1.955,1.955,0,0,1,1.488.671,2.009,2.009,0,0,1-1.456,3.338.9.9,0,0,0-.146-.018,1.985,1.985,0,0,1-1.877-1.877A.548.548,0,0,0,18,8,2,2,0,0,1,20,6Zm-3.451,4.037c.019.032.048.056.067.088a3.943,3.943,0,0,0,1.259,1.259c.032.019.056.048.088.067l-5.519,5.512c-.019-.032-.048-.056-.067-.088a4,4,0,0,0-.541-.7l-.013-.013a4,4,0,0,0-.7-.541c-.032-.019-.056-.048-.088-.067ZM9.008,17a1.009,1.009,0,0,0,.109.012A2,2,0,0,1,11,18.959h.007v0c0,.013-.007.024-.007.037a2,2,0,1,1-1.992-2Zm-2.12,5.4a3.542,3.542,0,0,0,.49.253,4.117,4.117,0,0,0,.469.162c.02,0,.039.012.059.018A3.958,3.958,0,0,0,9,23a3.958,3.958,0,0,0,1.094-.171c.02-.006.039-.013.059-.018a4.117,4.117,0,0,0,.469-.162,3.542,3.542,0,0,0,.49-.253L11.966,48H6.034ZM4,50H14v8H4Zm52,8H16V50H56a4,4,0,0,1,0,8Z"></path><path d="M8.29,19.71a1.014,1.014,0,0,0,1.42,0,1.169,1.169,0,0,0,.21-.33.943.943,0,0,0,0-.76,1.032,1.032,0,0,0-.21-.33,1.712,1.712,0,0,0-.15-.12.776.776,0,0,0-.18-.09.646.646,0,0,0-.18-.06,1.009,1.009,0,0,0-.91.27,1.032,1.032,0,0,0-.21.33.942.942,0,0,0,0,.76A1.169,1.169,0,0,0,8.29,19.71Z"></path><path d="M19.29,8.71a1.155,1.155,0,0,0,.33.21.942.942,0,0,0,.76,0,1.169,1.169,0,0,0,.33-.21,1.169,1.169,0,0,0,.21-.33A1,1,0,0,0,21,8a1.105,1.105,0,0,0-.021-.19.577.577,0,0,0-.059-.19.824.824,0,0,0-.09-.181l-.12-.149a1.047,1.047,0,0,0-1.42,0,1.7,1.7,0,0,0-.12.149.782.782,0,0,0-.09.181.6.6,0,0,0-.06.19A1.213,1.213,0,0,0,19,8a1,1,0,0,0,.08.38A1.169,1.169,0,0,0,19.29,8.71Z"></path><path d="M45.29,8.71a1.155,1.155,0,0,0,.33.21,1,1,0,0,0,1.08-.21A.964.964,0,0,0,47,8a1.105,1.105,0,0,0-.021-.19.577.577,0,0,0-.059-.19.824.824,0,0,0-.09-.181,1.9,1.9,0,0,0-.13-.149,1.034,1.034,0,0,0-1.41,0,1.7,1.7,0,0,0-.12.149.782.782,0,0,0-.09.181.6.6,0,0,0-.06.19A1.213,1.213,0,0,0,45,8a.838.838,0,0,0,.08.38A1.169,1.169,0,0,0,45.29,8.71Z"></path></g></svg>