<svg xmlns="http://www.w3.org/2000/svg" viewBox="0 0 64 64" x="0px" y="0px"><g data-name="Server-Smartphone-Transfer-Mobile Phone-Hosting"><rect x="12" y="6" width="2" height="2"></rect><rect x="16" y="6" width="8" height="2"></rect><rect x="17" y="48" width="6" height="2"></rect><path d="M55,10H38V9a7.008,7.008,0,0,0-7-7H9A7.008,7.008,0,0,0,2,9V47a7.008,7.008,0,0,0,7,7H26v1a7.008,7.008,0,0,0,7,7H55a7.008,7.008,0,0,0,7-7V17A7.008,7.008,0,0,0,55,10ZM4,9A5,5,0,0,1,9,4H31a5,5,0,0,1,5,5v1H4ZM26,52H9a5,5,0,0,1-5-5V46H26Zm0-8H4V12H28.11A6.97,6.97,0,0,0,26,17ZM60,55a5,5,0,0,1-5,5H33a5,5,0,0,1-5-5V54H60Zm0-3H28V20H60Zm0-34H28V17a5,5,0,0,1,5-5H55a5,5,0,0,1,5,5Z"></path><rect x="36" y="14" width="2" height="2"></rect><rect x="40" y="14" width="8" height="2"></rect><rect x="41" y="56" width="6" height="2"></rect><path d="M44,25c-4.473,0-9,1.374-9,4V43c0,2.626,4.527,4,9,4s9-1.374,9-4V29C53,26.374,48.473,25,44,25Zm0,2c4.547,0,7,1.42,7,2s-2.453,2-7,2-7-1.42-7-2S39.453,27,44,27Zm0,18c-4.547,0-7-1.42-7-2V38.6A15.855,15.855,0,0,0,44,40a15.855,15.855,0,0,0,7-1.4V43C51,43.58,48.547,45,44,45Zm0-7c-4.547,0-7-1.42-7-2V31.6A15.855,15.855,0,0,0,44,33a15.855,15.855,0,0,0,7-1.4V36C51,36.58,48.547,38,44,38Z"></path><rect x="39" y="34" width="2" height="2"></rect><rect x="43" y="35" width="2" height="2"></rect><rect x="39" y="41" width="2" height="2"></rect><rect x="43" y="42" width="2" height="2"></rect><path d="M15,17c-4.473,0-9,1.374-9,4V35c0,2.626,4.527,4,9,4s9-1.374,9-4V21C24,18.374,19.473,17,15,17Zm0,20c-4.547,0-7-1.42-7-2V30.6A15.855,15.855,0,0,0,15,32a15.855,15.855,0,0,0,7-1.4V35C22,35.58,19.547,37,15,37Zm0-7c-4.547,0-7-1.42-7-2V23.6A15.855,15.855,0,0,0,15,25a15.855,15.855,0,0,0,7-1.4V28C22,28.58,19.547,30,15,30Zm0-7c-4.547,0-7-1.42-7-2s2.453-2,7-2,7,1.42,7,2S19.547,23,15,23Z"></path><rect x="10" y="26" width="2" height="2"></rect><rect x="14" y="27" width="2" height="2"></rect><rect x="10" y="33" width="2" height="2"></rect><rect x="14" y="34" width="2" height="2"></rect></g></svg>