<svg xmlns="http://www.w3.org/2000/svg" viewBox="0 0 64 64" x="0px" y="0px"><g><path d="M49.642,5.772,51.8,3.615,50.385,2.2,48.233,4.353a24.074,24.074,0,0,0-2.471-2.018L44.615,3.974A22,22,0,1,1,13.974,34.615l-1.639,1.148a24.123,24.123,0,0,0,2.018,2.47L12.2,40.385,13.615,41.8l2.157-2.157A23.869,23.869,0,0,0,31,45.941V56h2V45.941A23.936,23.936,0,0,0,49.642,5.772Z"></path><path d="M46.956,32A17.969,17.969,0,0,0,35,4.271V7.989a1,1,0,0,1-.293.707L33,10.4V12h3a1,1,0,0,1,1,1v3h2a1,1,0,0,1,1,1v3a1,1,0,0,1-1,1H34v3h7a1,1,0,0,1,1,1v4h3a1,1,0,0,1,1,1v2Z"></path><path d="M14.529,26.255l9.832,3.812A1,1,0,0,1,25,31v2h2V23H23a1,1,0,0,1-1-1V17a1,1,0,0,1,1-1h2V5.417A17.9,17.9,0,0,0,14.529,26.255Z"></path><path d="M44,33V31H41a1,1,0,0,1-1-1V26H33a1,1,0,0,1-1-1V20a1,1,0,0,1,1-1h5V18H36a1,1,0,0,1-1-1V14H32a1,1,0,0,1-1-1V9.989a1,1,0,0,1,.293-.707L33,7.575V4.051C32.667,4.032,32.338,4,32,4a17.916,17.916,0,0,0-5,.721V17a1,1,0,0,1-1,1H24v3h4a1,1,0,0,1,1,1V34a1,1,0,0,1-1,1H24a1,1,0,0,1-1-1V31.685L15.308,28.7A17.954,17.954,0,0,0,45.378,34H45A1,1,0,0,1,44,33Z"></path><path d="M48,59a1,1,0,0,0-1-1H17a1,1,0,0,0-1,1v1H48Z"></path></g></svg>