<svg xmlns="http://www.w3.org/2000/svg" viewBox="0 0 64 64" x="0px" y="0px"><g><path d="M43.79,35.46l-1.87.3.68,1.76a5.983,5.983,0,0,0,6.53,3.77l.87-.135v3.568L47.77,46h6.46L52,44.723V41.155l.87.135a5.983,5.983,0,0,0,6.53-3.77l.68-1.76-1.87-.3A5.978,5.978,0,0,0,52,38.58V33.818a3.056,3.056,0,0,0,1.65-1.428,2.975,2.975,0,0,0,3.74-3.74,2.986,2.986,0,0,0,0-5.3,2.975,2.975,0,0,0-3.74-3.74,2.986,2.986,0,0,0-5.3,0,2.975,2.975,0,0,0-3.74,3.74,2.986,2.986,0,0,0,0,5.3,2.975,2.975,0,0,0,3.74,3.74A3.056,3.056,0,0,0,50,33.818V38.58A5.978,5.978,0,0,0,43.79,35.46ZM49,26a2,2,0,1,1,2,2A2.006,2.006,0,0,1,49,26Z"></path><path d="M32,16.96A38.37,38.37,0,0,0,23,16a38.37,38.37,0,0,0-9,.96V23a9,9,0,0,0,18,0ZM17,21a2,2,0,1,1,2,2A2,2,0,0,1,17,21Zm6,8a4.994,4.994,0,0,1-3.307-1.25l1.323-1.5a3.076,3.076,0,0,0,3.968,0l1.323,1.5A4.994,4.994,0,0,1,23,29Zm4-6a2,2,0,1,1,2-2A2,2,0,0,1,27,23Z"></path><path d="M12,16.39V16.2a1,1,0,0,1,.72-.96A38.357,38.357,0,0,1,23,14a38.357,38.357,0,0,1,10.28,1.24,1,1,0,0,1,.72.96v.19c1.58-.63,2-1.21,2-1.39,0-.32-.9-1.21-3.7-1.95A37.234,37.234,0,0,0,23,12a37.234,37.234,0,0,0-9.3,1.05C10.9,13.79,10,14.68,10,15,10,15.18,10.42,15.76,12,16.39Z"></path><path d="M36,54h5a1,1,0,0,1-1-1V47a1,1,0,0,1,1-1h.93a6.933,6.933,0,0,0-4.84-5.79L31.96,38.6c.01.13.04.26.04.4v4a1,1,0,0,1-2,0,1,1,0,0,0-2,0,.992.992,0,0,1-1.97.17l-2.14,4.28a1,1,0,0,1-1.78,0l-2.14-4.28A.992.992,0,0,1,18,43a1,1,0,0,0-2,0,1,1,0,0,1-2,0V39c0-.14.03-.27.04-.4L8.91,40.2A6.964,6.964,0,0,0,4,46.88V54h6V48h2V60H34V48h2Z"></path><rect x="42" y="48" width="18" height="4"></rect><rect x="4" y="56" width="6" height="4"></rect><polygon points="45.78 60 56.22 60 57.72 54 44.28 54 45.78 60"></polygon><path d="M22,6h2v4.01a39.188,39.188,0,0,1,8.54,1.04A9.985,9.985,0,0,0,15.93,6.93a9.836,9.836,0,0,0-2.48,4.12A39.206,39.206,0,0,1,22,10.01Z"></path><path d="M20,33.57v5.19l3,6,3-6V33.58a10.8,10.8,0,0,1-6-.01Z"></path><path d="M28,36.17v4a3.026,3.026,0,0,1,2,0V39A3.014,3.014,0,0,0,28,36.17Z"></path><path d="M16,40.17a3.026,3.026,0,0,1,2,0v-4A3.014,3.014,0,0,0,16,39Z"></path><rect x="36" y="56" width="6" height="4"></rect><path d="M34,19v4a2.015,2.015,0,0,0,2-2A2.006,2.006,0,0,0,34,19Z"></path><path d="M12,23V19a2.006,2.006,0,0,0-2,2,2.015,2.015,0,0,0,2,2Z"></path></g></svg>