<svg xmlns="http://www.w3.org/2000/svg" viewBox="0 0 64 64" x="0px" y="0px"><g><circle cx="42" cy="39" r="4"></circle><circle cx="22" cy="39" r="4"></circle><path d="M57.751,4.1A2.713,2.713,0,0,0,57,4a3,3,0,0,0-3,3v3h6V7a3.018,3.018,0,0,0-.882-2.128A3.063,3.063,0,0,0,57.751,4.1Z"></path><circle cx="32" cy="21" r="4"></circle><path d="M52,7a4.964,4.964,0,0,1,.094-.927c.018-.1.047-.188.071-.282a5.1,5.1,0,0,1,.184-.593c.04-.1.083-.2.129-.3a4.917,4.917,0,0,1,.283-.52c.054-.087.1-.175.164-.258.028-.039.049-.084.077-.122H17a5.006,5.006,0,0,0-5,5V52H43a1,1,0,0,1,1,1v2a5.006,5.006,0,0,0,5,5,3,3,0,0,0,3-3ZM32,7h4V9H32ZM28,7h2V9H28Zm0,4h8v2H28ZM20,49H18V47h2Zm6,0H22V47h4Zm14,0H38V47h2Zm6,0H42V47h4Zm-4-4a6,6,0,0,1-1-11.91V32a1,1,0,0,0-1-1H24a1,1,0,0,0-1,1v1.09a6,6,0,1,1-2,0V32a3,3,0,0,1,3-3h7V26.91a6,6,0,1,1,2,0V29h7a3,3,0,0,1,3,3v1.09A6,6,0,0,1,42,45Z"></path><path d="M4,54v1a5.006,5.006,0,0,0,5,5h35.1A6.98,6.98,0,0,1,42,55V54Z"></path></g></svg>