<svg xmlns="http://www.w3.org/2000/svg" viewBox="0 0 64 64" x="0px" y="0px"><g><path d="M12.8,29H51.2a9,9,0,0,0-5.715-9.808L37.963,16.42A3.011,3.011,0,0,1,36,13.605V12H28v1.605a3.011,3.011,0,0,1-1.963,2.815l-7.524,2.772A9,9,0,0,0,12.8,29Z"></path><polygon points="25.303 4 23 5.535 23 8.465 25.303 10 38.697 10 41 8.465 41 5.535 38.697 4 25.303 4"></polygon><path d="M12,60H52a1,1,0,0,0,1-1v-.328A8.9,8.9,0,0,0,52.589,56H11.411A8.913,8.913,0,0,0,11,58.672V59A1,1,0,0,0,12,60Z"></path><path d="M12.049,54h39.9C50.76,50.172,49,43.724,49,39a24.643,24.643,0,0,1,1.673-8H13.328A24.665,24.665,0,0,1,15,39C15,43.724,13.24,50.173,12.049,54Z"></path></g></svg>