<svg xmlns="http://www.w3.org/2000/svg" viewBox="0 0 64 64" x="0px" y="0px"><g><rect x="13" y="54" width="17" height="2"></rect><rect x="13" y="50" width="17" height="2"></rect><rect x="10" y="50" width="1" height="6"></rect><polygon points="34 51.535 32 50.202 32 55.798 34 54.465 34 51.535"></polygon><path d="M37,34a3.009,3.009,0,0,1-3-3V20H8V36H39a1,1,0,0,1,1,1v8a1,1,0,0,1-1,1H8v2H32a1.032,1.032,0,0,1,.54.16L35.3,50h1.56a3.106,3.106,0,0,1,3.08,2.4A3,3,0,0,1,37,56H35.3l-2.76,1.84A1.032,1.032,0,0,1,32,58H8a2.015,2.015,0,0,0,2,2H53a3.009,3.009,0,0,0,3-3V34Zm-7,0H12V32H30Zm0-4H12V28H30Zm0-4H12V24H30ZM52,56H44V54h8Zm0-4H44V50h8Zm0-4H44V46h8Zm0-4H44V42h8Zm0-4H44V38h8Z"></path><path d="M11,12a3.009,3.009,0,0,0-3,3v3H34V12Zm3,4H12V14h2Zm4,0H16V14h2Zm4,0H20V14h2Z"></path><path d="M8,50H7a3,3,0,0,0,0,6H8Z"></path><polygon points="8 40 10 40 10 44 12 44 12 42 14 42 14 44 16 44 16 42 18 42 18 44 20 44 20 40 22 40 22 44 24 44 24 42 26 42 26 44 28 44 28 42 30 42 30 44 32 44 32 40 34 40 34 44 38 44 38 38 4 38 4 44 8 44 8 40"></polygon><path d="M57,10a3.009,3.009,0,0,1-3-3V4H37a1,1,0,0,0-1,1V31a1,1,0,0,0,1,1H59a1,1,0,0,0,1-1V10ZM40,8H50v2H40ZM56,28H40V26H56Zm0-4H40V22H56Zm0-4H40V18H56Zm0-4H40V14H56Z"></path><path d="M38,53a1,1,0,0,0-1-1H36v2h1A1,1,0,0,0,38,53Z"></path><path d="M57,8h1.586L56,5.414V7A1,1,0,0,0,57,8Z"></path></g></svg>