<svg xmlns="http://www.w3.org/2000/svg" viewBox="0 0 64 64" x="0px" y="0px"><g data-name="Game Console"><polygon points="10 44 8 44 8 46 6 46 6 48 8 48 8 50 10 50 10 48 12 48 12 46 10 46 10 44"></polygon><rect x="22" y="44" width="2" height="2"></rect><rect x="24" y="46" width="2" height="2"></rect><rect x="22" y="48" width="2" height="2"></rect><rect x="20" y="46" width="2" height="2"></rect><rect x="13" y="44" width="2" height="2"></rect><rect x="17" y="44" width="2" height="2"></rect><path d="M54,40H49V37a1,1,0,0,0-1-1H37V32H51a1,1,0,0,0,1-1V3a1,1,0,0,0-1-1H13a1,1,0,0,0-1,1V31a1,1,0,0,0,1,1H27v2H16a1,1,0,0,0-1,1v5H10a8.009,8.009,0,0,0-8,8V59a3,3,0,0,0,3,3H7.249a3.011,3.011,0,0,0,2.974-2.6l.719-5.4H21.058l.719,5.4A3.011,3.011,0,0,0,24.751,62H27a3,3,0,0,0,3-3V48a8.009,8.009,0,0,0-8-8H17V36H28a1,1,0,0,0,1-1V32h6v5a1,1,0,0,0,1,1H47v2H42a8.009,8.009,0,0,0-8,8V59a3,3,0,0,0,3,3h2.249a3.011,3.011,0,0,0,2.974-2.6l.719-5.4H53.058l.719,5.4A3.011,3.011,0,0,0,56.751,62H59a3,3,0,0,0,3-3V48A8.009,8.009,0,0,0,54,40ZM28,48V59a1,1,0,0,1-1,1H24.751a1,1,0,0,1-.991-.868l-.72-5.4A2.006,2.006,0,0,0,21.058,52H10.942A2.006,2.006,0,0,0,8.96,53.735l-.72,5.4A1,1,0,0,1,7.249,60H5a1,1,0,0,1-1-1V48a6.006,6.006,0,0,1,6-6H22A6.006,6.006,0,0,1,28,48ZM50,22H40V15.1a8.948,8.948,0,0,0-1-9.749V4H50ZM27,5.721V4H37V5.721a1,1,0,0,0,.25.661,7,7,0,1,1-10.5,0A1,1,0,0,0,27,5.721ZM26,17.689a8.944,8.944,0,0,0,12,0V22H26ZM25,4V5.355A8.948,8.948,0,0,0,24,15.1V22H14V4Zm4,26V28h1V26H26v2h1v2H14V24H50v6H37V28h1V26H34v2h1v2ZM60,59a1,1,0,0,1-1,1H56.751a1,1,0,0,1-.991-.868l-.72-5.4A2.006,2.006,0,0,0,53.058,52H42.942a2.006,2.006,0,0,0-1.982,1.735l-.72,5.4a1,1,0,0,1-.991.868H37a1,1,0,0,1-1-1V48a6.006,6.006,0,0,1,6-6H54a6.006,6.006,0,0,1,6,6Z"></path><polygon points="42 44 40 44 40 46 38 46 38 48 40 48 40 50 42 50 42 48 44 48 44 46 42 46 42 44"></polygon><rect x="54" y="44" width="2" height="2"></rect><rect x="56" y="46" width="2" height="2"></rect><rect x="54" y="48" width="2" height="2"></rect><rect x="52" y="46" width="2" height="2"></rect><rect x="45" y="44" width="2" height="2"></rect><rect x="49" y="44" width="2" height="2"></rect><path d="M45,20a3,3,0,1,0-3-3A3,3,0,0,0,45,20Zm0-4a1,1,0,1,1-1,1A1,1,0,0,1,45,16Z"></path><path d="M19,20a3,3,0,1,0-3-3A3,3,0,0,0,19,20Zm0-4a1,1,0,1,1-1,1A1,1,0,0,1,19,16Z"></path><rect x="29" y="14" width="6" height="2"></rect><rect x="30" y="11" width="4" height="2"></rect></g></svg>