<svg xmlns="http://www.w3.org/2000/svg" viewBox="0 0 64 64" x="0px" y="0px"><title>Megaphone</title><g><path d="M52,20H50V11a1,1,0,0,0-1-1H45a1,1,0,0,0-1,1v.212L19.767,17.028A1,1,0,0,0,19,18H9a2,2,0,0,0-2,2H4a2,2,0,0,0-2,2V32a2,2,0,0,0,2,2H7a1.994,1.994,0,0,0,1.055,1.752L10,61.077A1,1,0,0,0,11,62h6a1,1,0,0,0,1-1V43h2a1,1,0,0,0,.985-.829l.818-4.71L44,42.788V43a1,1,0,0,0,1,1h4a1,1,0,0,0,1-1V34h2a2,2,0,0,0,2-2V22A2,2,0,0,0,52,20ZM9,20H19V34H9V32h2a1,1,0,0,0,0-2H9V28h2a1,1,0,0,0,0-2H9V24h2a1,1,0,0,0,0-2H9ZM4,32V22H7V32ZM16,60H11.926L10.08,36H16Zm3.854-23.006L19.159,41H18V36h1a1,1,0,0,0,.767.972ZM21,35.212V18.789l23-5.52V40.731ZM48,42H46V12h2Zm2-10V22h2V32Z"></path><path d="M57,28h4a1,1,0,0,0,0-2H57a1,1,0,0,0,0,2Z"></path><path d="M61.447,34.1l-4-2a1,1,0,0,0-.894,1.79l4,2a1,1,0,1,0,.894-1.79Z"></path><path d="M57,22a1,1,0,0,0,.446-.105l4-2a1,1,0,1,0-.894-1.79l-4,2A1,1,0,0,0,57,22Z"></path></g></svg>