<svg xmlns="http://www.w3.org/2000/svg" viewBox="0 0 48 48" x="0px" y="0px"><title>Curve-Gift Box_1</title><g data-name="Curve-Gift Box"><path d="M45,15H40V10.361A3,3,0,0,0,36.507,7.4L26.836,9.014a.962.962,0,0,0-.243.086A1.971,1.971,0,0,0,26,9H22a1.971,1.971,0,0,0-.593.1.969.969,0,0,0-.242-.086L11.493,7.4A3,3,0,0,0,8,10.361V15H3a3,3,0,0,0-3,3v6a3,3,0,0,0,2,2.816V36a5.006,5.006,0,0,0,5,5H41a5.006,5.006,0,0,0,5-5V26.816A3,3,0,0,0,48,24V18A3,3,0,0,0,45,15ZM28,10.847l8.835-1.473a.971.971,0,0,1,.811.224.985.985,0,0,1,.354.763V15H28V10.847ZM26,11v4H22V11Zm-16-.639a1,1,0,0,1,1.164-.987L20,10.847V15H10ZM41,39H7a3,3,0,0,1-3-3V33.149a13.633,13.633,0,0,1,4.008,1.744C9.841,35.929,11.737,37,14,37a9.847,9.847,0,0,0,5.555-2.168C20.968,33.89,22.3,33,24,33s3.032.89,4.445,1.832A9.847,9.847,0,0,0,34,37c2.266,0,4.162-1.084,6-2.132a13.585,13.585,0,0,1,4-1.762V36A3,3,0,0,1,41,39Zm5-15a1,1,0,0,1-1,1H15a1,1,0,0,0,0,2H44v4.077a14.2,14.2,0,0,0-5,2.055C37.322,34.093,35.734,35,34,35c-1.7,0-3.032-.89-4.445-1.832A9.847,9.847,0,0,0,24,31a9.847,9.847,0,0,0-5.555,2.168C17.032,34.11,15.7,35,14,35c-1.737,0-3.326-.9-5.008-1.849A14.3,14.3,0,0,0,4,31.12V27H5a1,1,0,0,0,0-2H3a1,1,0,0,1-1-1V18a1,1,0,0,1,1-1H45a1,1,0,0,1,1,1Z"></path><path d="M11,25H9a1,1,0,0,0,0,2h2a1,1,0,0,0,0-2Z"></path></g></svg>