<svg xmlns="http://www.w3.org/2000/svg" viewBox="0 0 64 64" x="0px" y="0px"><g data-name="Online Shopping"><path d="M61,54H59V21a5.006,5.006,0,0,0-5-5H48v2h6a3,3,0,0,1,3,3V54H7V21a3,3,0,0,1,3-3h6V16H10a5.006,5.006,0,0,0-5,5V54H3a1,1,0,0,0-1,1v4a3,3,0,0,0,3,3H59a3,3,0,0,0,3-3V55A1,1,0,0,0,61,54ZM35.613,56l-.334,1H28.721l-.334-1ZM60,59a1,1,0,0,1-1,1H5a1,1,0,0,1-1-1V56H26.28l.772,2.316A1,1,0,0,0,28,59h8a1,1,0,0,0,.948-.684L37.72,56H60Z"></path><rect x="9" y="48" width="46" height="2"></rect><path d="M19,44H45a1,1,0,0,0,1-1V15a1,1,0,0,0-1-1H42V9A6.984,6.984,0,0,0,32,2.685,6.984,6.984,0,0,0,22,9v5H19a1,1,0,0,0-1,1V43A1,1,0,0,0,19,44Zm1-2V18.444a3.875,3.875,0,0,0,4,0V42Zm.278-26h3.444a1.983,1.983,0,0,1-3.444,0ZM44,16V42H26V16h2v4h2V16H40v4h2V16ZM32,5.026A4.977,4.977,0,0,1,34,9v5H30V9A4.977,4.977,0,0,1,32,5.026ZM40,9v5H36V9a6.975,6.975,0,0,0-2.008-4.9A5,5,0,0,1,40,9ZM24,9a5,5,0,0,1,6.008-4.9A6.975,6.975,0,0,0,28,9v5H24Z"></path><path d="M35,27a1,1,0,0,1,1,1h2a3,3,0,0,0-2-2.816V24H34v1.184A2.993,2.993,0,0,0,35,31a1,1,0,1,1-1,1H32a3,3,0,0,0,2,2.816V36h2V34.816A2.993,2.993,0,0,0,35,29a1,1,0,0,1,0-2Z"></path><rect x="50" y="40" width="2" height="2"></rect><rect x="50" y="36" width="2" height="2"></rect><rect x="50" y="32" width="2" height="2"></rect><rect x="50" y="28" width="2" height="2"></rect><rect x="12" y="40" width="2" height="2"></rect><rect x="12" y="36" width="2" height="2"></rect><rect x="12" y="32" width="2" height="2"></rect><rect x="12" y="28" width="2" height="2"></rect></g></svg>