<svg xmlns="http://www.w3.org/2000/svg" viewBox="0 0 64 64" x="0px" y="0px"><g><path d="M60,25V23H58V21h1.59l-4-4H46.41l-2.19,2.2,2.03,3.19,1.02-1.08A1,1,0,0,1,48,21h7a1,1,0,0,1,1,1v2a5.005,5.005,0,0,0,4,4.9V27H58V25Z"></path><path d="M42.4,54.72a5.025,5.025,0,0,0,2.39,4.26l2.36-6.48a3.019,3.019,0,0,0-1.79-3.85l-2.85-1.04-3.82,2.87,3.42,1.24a1.037,1.037,0,0,1,.57.52,1.026,1.026,0,0,1,.03.77A4.789,4.789,0,0,0,42.4,54.72Z"></path><path d="M46.03,42.48l.95-15.22L40.45,17H23.55L17.02,27.26l.95,15.22L29.33,51h5.34ZM32,19h7a1,1,0,0,1,.848.47l1.03,1.649-1.7,1.059L38.445,21H32Zm-1,5a1,1,0,0,1,1-1h3a1,1,0,0,1,1,1v3h2V24a1,1,0,0,1,1-1h3a1,1,0,0,1,1,1V34a3,3,0,0,1-3,3H34a3,3,0,0,1-3-3Zm6,15v2H35V39ZM28,21h2v2H28Zm1,6v2H27V27Zm-2-1H25V24h2Zm-2.848-6.531A1,1,0,0,1,25,19h1v2h-.446l-4.768,7.615-1.7-1.062Zm-1.4,24.157L20.386,41.79A1,1,0,0,1,20,41.082l-.161-1.961,1.994-.164.125,1.523,2.016,1.567Zm3.387,1a1,1,0,0,1-.867-.5l-4.5-7.8a.989.989,0,0,1-.132-.44l-.12-2L19.134,31.5a1,1,0,0,1,.366-1.366l3.464-2a.992.992,0,0,1,.759-.1,1,1,0,0,1,.607.466l1.382,2.394L27.381,32a1,1,0,0,1,.315.334l4.5,7.8a1,1,0,0,1-.366,1.366l-5.2,3A.992.992,0,0,1,26.135,44.625ZM34,43v2H32V43Zm0,6H30a1,1,0,0,1-.614-.21l-2.62-2.038,1.228-1.579L30.343,47h3.314l8.38-6.518.273-3.543,1.994.154L44,41.077a1,1,0,0,1-.383.713l-9,7A1,1,0,0,1,34,49Z"></path><path d="M24.413,32.433A1.009,1.009,0,0,1,24.1,32.1l-1-1.732-1.732,1,1,1.732a1,1,0,0,1,.132.44l.12,2L26.5,42.258l3.464-2-3.882-6.723Z"></path><path d="M8,22a1,1,0,0,1,1-1h7a1,1,0,0,1,.73.31l1.02,1.08,2.03-3.19L17.59,17H8.41l-4,4H6v2H4v2H6v2H4v1.9A5.005,5.005,0,0,0,8,24Z"></path><path d="M34,35h6a1,1,0,0,0,1-1V33H35V31h6V25H40v3a1,1,0,0,1-1,1H35a1,1,0,0,1-1-1V25H33v9A1,1,0,0,0,34,35Z"></path><polygon points="32 55.59 33 54.59 33 53 31 53 31 54.59 32 55.59"></polygon><path d="M27,7.54V12.7L28.54,15H31V13H30a.988.988,0,0,1-.89-.55l-1-2,1.78-.9L30.62,11H31V8h2v3h.38l.73-1.45,1.78.9-1,2A.988.988,0,0,1,34,13H33v2h2.46L37,12.7V7.54L32,4.2Z"></path><path d="M21.89,51.72l3.42-1.24-3.82-2.87-2.85,1.04a3.019,3.019,0,0,0-1.79,3.85l2.36,6.48a5.025,5.025,0,0,0,2.39-4.26,4.789,4.789,0,0,0-.31-1.71,1.026,1.026,0,0,1,.03-.77A1.037,1.037,0,0,1,21.89,51.72Z"></path></g></svg>