<svg xmlns="http://www.w3.org/2000/svg" viewBox="0 0 64 64" x="0px" y="0px"><g data-name="Audio Book"><path d="M4,35.028H2V60a1,1,0,0,0,1,1H24V59H4Z"></path><rect x="13" y="36" width="10" height="2"></rect><rect x="9" y="40" width="14" height="2"></rect><rect x="9" y="44" width="14" height="2"></rect><rect x="9" y="48" width="14" height="2"></rect><rect x="9" y="52" width="14" height="2"></rect><path d="M52,59H32v2H53a1,1,0,0,0,1-1V35.028H52Z"></path><rect x="9" y="36" width="2" height="2"></rect><path d="M38.056,48.9a2,2,0,0,0,2.053-.1l3.2-2.132a2,2,0,0,0,0-3.328l-3.2-2.132A2,2,0,0,0,37,42.868v4.264A2,2,0,0,0,38.056,48.9ZM39,42.868,42.2,45,39,47.138Z"></path><path d="M40,53a8,8,0,1,0-8-8A8.009,8.009,0,0,0,40,53Zm0-14a6,6,0,1,1-6,6A6.006,6.006,0,0,1,40,39Z"></path><path d="M60,18V16a14,14,0,0,0-28,0v2a2,2,0,0,0-2,2H27a3,3,0,0,1-3-3V9A7,7,0,0,0,10,9V32H6a1,1,0,0,0-1,1V57a1,1,0,0,0,1,1H25v1a3,3,0,0,0,6,0V58H50a1,1,0,0,0,1-1V33a1,1,0,0,0-1-1H30a1,1,0,0,0-1,1v1H27V33a1,1,0,0,0-1-1H12V9A5,5,0,0,1,22,9v8a5.006,5.006,0,0,0,5,5h3a2,2,0,0,0,2,2h1.184A2.993,2.993,0,0,0,39,23V19a2.987,2.987,0,0,0-5-2.22V16a12,12,0,0,1,24,0v.78A2.987,2.987,0,0,0,53,19v4a2.993,2.993,0,0,0,5.816,1H60a2,2,0,0,0,2-2V20A2,2,0,0,0,60,18ZM31,34H49V56H31Zm-2,2V59a1,1,0,0,1-2,0V36ZM25,56H7V34H25Zm7-36h1v2H32Zm3-1a1,1,0,0,1,2,0v4a1,1,0,0,1-2,0Zm22,4a1,1,0,0,1-2,0V19a1,1,0,0,1,2,0Zm3-1H59V20h1Z"></path><rect x="14" y="28" width="2" height="2"></rect><rect x="14" y="24" width="2" height="2"></rect><rect x="14" y="20" width="2" height="2"></rect><rect x="56" y="53" width="2" height="2"></rect><rect x="56" y="49" width="2" height="2"></rect><rect x="56" y="45" width="2" height="2"></rect><rect x="56" y="41" width="2" height="2"></rect></g></svg>