<svg xmlns="http://www.w3.org/2000/svg" viewBox="0 0 64 64" x="0px" y="0px"><g data-name="Home-Working-Work From Home-World-Online"><rect x="12" y="32" width="2" height="2"></rect><rect x="18" y="32" width="2" height="2"></rect><path d="M35,50a3,3,0,1,0,3,3A3,3,0,0,0,35,50Zm0,4a1,1,0,1,1,1-1A1,1,0,0,1,35,54Z"></path><path d="M60.98,25.89,33.93,3.3a3.005,3.005,0,0,0-3.85.01L14.67,16.23l1.29,1.54L31.36,4.84a1,1,0,0,1,1.28,0L59.7,27.43a.948.948,0,0,1,.35.68.913.913,0,0,1-.23.72.988.988,0,0,1-1.4.13L32.64,7.24a.987.987,0,0,0-1.29,0l-11.79,10,1.29,1.52L32,9.31,51,25.32V60H45.82A3,3,0,0,0,46,59V47a3.009,3.009,0,0,0-3-3H27a2.974,2.974,0,0,0-2.36,1.18L20,43.32v-2.4A8.06,8.06,0,0,0,23.74,36H24a3,3,0,0,0,0-6V27A8,8,0,0,0,8,27v3a3,3,0,0,0,0,6h.26A8.06,8.06,0,0,0,12,40.92v2.4L6.4,45.56A6.971,6.971,0,0,0,2,52.06V59a3.009,3.009,0,0,0,3,3H52a1,1,0,0,0,1-1V27.01l4.13,3.48a3,3,0,1,0,3.85-4.6ZM24,32a1,1,0,0,1,0,2ZM8,34a1,1,0,0,1,0-2ZM20.88,45.83l-1.04,1.59-1.82-1.81,1.03-.51ZM10,27a6,6,0,0,1,12,0v1.97a2.009,2.009,0,0,1-1.6-1.48l-.43-1.73A1,1,0,0,0,18,26a3.009,3.009,0,0,1-3,3H10Zm0,7V31h5a5.012,5.012,0,0,0,3.93-1.91A3.99,3.99,0,0,0,22,30.98V34a6,6,0,0,1-12,0Zm8,7.74v1.64L16.76,44H15.24L14,43.38V41.74a7.822,7.822,0,0,0,4,0ZM12.95,45.1l1.03.51-1.82,1.81-1.04-1.59ZM12,60V58a3.01,3.01,0,0,1,2.82,2Zm12,0H19a1,1,0,0,1-1-1V58h6Zm0-4H17a1,1,0,0,0-1,1v1.03A4.994,4.994,0,0,0,12,56H9V53H7v4a1,1,0,0,0,1,1h2v2H5a1,1,0,0,1-1-1V52.06a4.962,4.962,0,0,1,3.14-4.64l2.09-.84,1.93,2.97a1.059,1.059,0,0,0,.74.45H12a1.007,1.007,0,0,0,.71-.29L16,46.41l3.29,3.3A1.007,1.007,0,0,0,20,50h.1a1.059,1.059,0,0,0,.74-.45l1.93-2.97,1.23.5Zm20,3a1,1,0,0,1-1,1H26V47a1,1,0,0,1,1-1H43a1,1,0,0,1,1,1Z"></path><path d="M47,32a9,9,0,1,0-9,9A9.01,9.01,0,0,0,47,32ZM36.431,36h3.138C39.1,37.963,38.376,39,38,39S36.9,37.963,36.431,36ZM31,32a6.956,6.956,0,0,1,.3-2h2.8c-.061.658-.1,1.329-.1,2s.035,1.342.1,2H31.3A6.956,6.956,0,0,1,31,32Zm5,0a19.536,19.536,0,0,1,.1-2h3.8a19.659,19.659,0,0,1,0,4H36.1A19.536,19.536,0,0,1,36,32Zm2-7c.376,0,1.1,1.037,1.569,3H36.431C36.9,26.037,37.624,25,38,25Zm7,7a6.956,6.956,0,0,1-.3,2H41.9c.061-.658.1-1.329.1-2s-.035-1.342-.1-2h2.8A6.956,6.956,0,0,1,45,32Zm-4.1,6.361A12.56,12.56,0,0,0,41.614,36h2.122A7.033,7.033,0,0,1,40.9,38.361ZM43.736,28H41.614a12.56,12.56,0,0,0-.71-2.361A7.033,7.033,0,0,1,43.736,28ZM35.1,25.639A12.56,12.56,0,0,0,34.386,28H32.264A7.033,7.033,0,0,1,35.1,25.639ZM32.264,36h2.122a12.56,12.56,0,0,0,.71,2.361A7.033,7.033,0,0,1,32.264,36Z"></path></g></svg>