<svg xmlns="http://www.w3.org/2000/svg" viewBox="0 0 64 64" x="0px" y="0px"><g data-name="Cloud-Cloud Computing-Email-Mail-Message"><rect x="25" y="34" width="14" height="2"></rect><rect x="25" y="38" width="14" height="2"></rect><rect x="27" y="42" width="10" height="2"></rect><path d="M51.98,20.36A10.01,10.01,0,0,0,42,11a9.729,9.729,0,0,0-2.16.24A15,15,0,0,0,12,19a12.283,12.283,0,0,0,.07,1.34A12.99,12.99,0,0,0,14,45.95V58a2.006,2.006,0,0,0,2,2H48a2.006,2.006,0,0,0,2-2V45.95a12.985,12.985,0,0,0,1.98-25.59ZM48,58H16v-.53l11.85-9.75,3.64,2.14a1,1,0,0,0,1.02,0l3.64-2.14L48,57.47ZM26.01,46.64,16,54.88V40.75Zm-9.17-7.72L19,37.4v2.79ZM43,32v9.37L32,47.84,21,41.37V32ZM29.48,30l1.94-1.37a1.008,1.008,0,0,1,1.15,0L34.52,30ZM48,54.88,37.99,46.64,48,40.75ZM45,40.19V37.4l2.16,1.52Zm5,3.76V39a1.028,1.028,0,0,0-.42-.82L45,34.95V31a1,1,0,0,0-1-1H37.99l-4.27-3.01a3.025,3.025,0,0,0-3.45,0L26.01,30H20a1,1,0,0,0-1,1v3.95l-4.58,3.23A1.028,1.028,0,0,0,14,39v4.95a10.99,10.99,0,0,1-.67-21.81,1,1,0,0,0,.66-.4,1.035,1.035,0,0,0,.18-.75,12.994,12.994,0,0,1,24.3-8.12,1,1,0,0,0,1.18.48A8.008,8.008,0,0,1,50,21.01c0,.03-.01.14-.01.17a1,1,0,0,0,.84.99A10.988,10.988,0,0,1,50,43.95Z"></path><path d="M17,19h2a8.009,8.009,0,0,1,8-8V9A10.011,10.011,0,0,0,17,19Z"></path><path d="M55,33a6.031,6.031,0,0,1-3.429,5.423l.858,1.806A8.039,8.039,0,0,0,57,33Z"></path></g></svg>