<svg xmlns="http://www.w3.org/2000/svg" viewBox="0 0 32 32" x="0px" y="0px"><g><path d="M21.449,28.875c.165-.07.33-.142.493-.219.252-.118.5-.248.744-.381.151-.082.3-.162.45-.25.263-.156.517-.326.77-.5.118-.081.241-.157.357-.242.359-.263.707-.541,1.041-.839l.012-.01.008-.008a20.8,20.8,0,0,0-2.893-.826,14.986,14.986,0,0,1-1.869,3.615c.041-.014.082-.027.123-.042C20.943,29.081,21.2,28.982,21.449,28.875Z"></path><path d="M17,2.237V6.98a29.84,29.84,0,0,0,3.391-.3C19.464,4.366,18.241,2.8,17,2.237Z"></path><path d="M17,15h4.976a26.855,26.855,0,0,0-.936-6.393A31.61,31.61,0,0,1,17,8.976Z"></path><path d="M29.958,17H23.976a29.393,29.393,0,0,1-.928,6.685A21.24,21.24,0,0,1,26.8,24.872,13.839,13.839,0,0,0,29.958,17Z"></path><path d="M17,29.763c1.253-.567,2.489-2.159,3.419-4.509A29.185,29.185,0,0,0,17,25Z"></path><path d="M21.976,17H17v6.007a30.68,30.68,0,0,1,4.062.308A26.916,26.916,0,0,0,21.976,17Z"></path><path d="M29.95,15a13.835,13.835,0,0,0-3.258-8,21.132,21.132,0,0,1-3.674,1.215A29.287,29.287,0,0,1,23.976,15Z"></path><path d="M24.811,5.152c-.243-.2-.487-.391-.741-.571-.134-.1-.274-.181-.411-.271-.237-.156-.477-.309-.723-.449-.151-.087-.3-.167-.459-.248-.243-.127-.489-.249-.739-.362-.161-.073-.324-.142-.487-.209-.227-.092-.457-.175-.688-.255A14.85,14.85,0,0,1,22.4,6.3a20.637,20.637,0,0,0,2.8-.837c-.021-.018-.039-.039-.06-.057C25.029,5.32,24.917,5.239,24.811,5.152Z"></path><path d="M10.024,15H15V8.976a31.61,31.61,0,0,1-4.04-.369A26.855,26.855,0,0,0,10.024,15Z"></path><path d="M10.608,3.1c-.165.069-.331.136-.493.211-.265.124-.523.261-.78.4-.138.075-.278.144-.414.224-.338.2-.667.414-.988.641-.046.033-.1.06-.141.094-.341.247-.667.515-.985.794a20.637,20.637,0,0,0,2.8.837A14.81,14.81,0,0,1,11.44,2.783c-.025.008-.05.015-.074.024C11.11,2.9,10.858,3,10.608,3.1Z"></path><path d="M2.042,15H8.024a29.287,29.287,0,0,1,.958-6.786A21.086,21.086,0,0,1,5.312,7,13.829,13.829,0,0,0,2.042,15Z"></path><path d="M9.012,23.885A29.182,29.182,0,0,1,8.024,17H2.05a13.83,13.83,0,0,0,3.368,8.126A21.045,21.045,0,0,1,9.012,23.885Z"></path><path d="M15,2.237c-1.241.561-2.464,2.129-3.391,4.44A29.84,29.84,0,0,0,15,6.98Z"></path><path d="M6.925,26.645c.042.035.088.066.131.1.3.253.615.5.936.721.138.1.283.181.424.273.236.152.472.3.716.442.165.093.334.177.5.263.231.118.463.233.7.339.18.079.362.153.544.226s.372.138.56.2a14.723,14.723,0,0,1-1.8-3.421A20.516,20.516,0,0,0,6.925,26.645Z"></path><path d="M15,17H10.024a26.754,26.754,0,0,0,.957,6.465A31.627,31.627,0,0,1,15,23.038Z"></path><path d="M15,29.763V25.035a29.65,29.65,0,0,0-3.363.352C12.561,27.662,13.771,29.208,15,29.763Z"></path></g></svg>