<svg xmlns="http://www.w3.org/2000/svg" viewBox="0 0 64 64" x="0px" y="0px"><g data-name="Car Sensor"><path d="M51.707,34.293a1,1,0,0,1,0,1.414l1.414,1.415a3,3,0,0,0,0-4.244Z"></path><path d="M55.95,30.05l-1.414,1.414a5.008,5.008,0,0,1,0,7.072L55.95,39.95A7.009,7.009,0,0,0,55.95,30.05Z"></path><path d="M58.778,27.222l-1.414,1.414a9.01,9.01,0,0,1,0,12.728l1.414,1.414A11.012,11.012,0,0,0,58.778,27.222Z"></path><polygon points="24 27 24 23 16.535 23 13.869 27 24 27"></polygon><path d="M28.82,19.375A1,1,0,0,0,28.039,19h-13a1,1,0,0,0-.82.427l-6.1,8.72A2,2,0,0,1,6.479,29H4V41H7.09a5.993,5.993,0,0,1,11.82,0H24V29H12a1,1,0,0,1-.832-1.555l4-6A1,1,0,0,1,16,21H30.12ZM12,31h4v2H12Z"></path><path d="M46,41V37H43a1,1,0,0,1-1-1V32a1,1,0,0,1,1-1h3V29H26V41h5.09a5.993,5.993,0,0,1,11.82,0ZM32,33H28V31h4Z"></path><path d="M37,38a4,4,0,1,0,4,4A4,4,0,0,0,37,38Zm1,5H36V41h2Z"></path><path d="M13,38a4,4,0,1,0,4,4A4,4,0,0,0,13,38Zm1,5H12V41h2Z"></path><rect x="44" y="33" width="2" height="2"></rect><polygon points="34.919 27 31.72 23 26 23 26 27 34.919 27"></polygon></g></svg>