<svg xmlns="http://www.w3.org/2000/svg" viewBox="0 0 64 64" x="0px" y="0px"><g><path d="M59.493,32.735l-9.86-1.643L43.02,19.52A5.009,5.009,0,0,0,38.679,17H37V15h2a1,1,0,0,0,1-1V10a1,1,0,0,0-1-1H21a1,1,0,0,0-1,1v4a1,1,0,0,0,1,1h2v2H20.472A4.972,4.972,0,0,0,16,19.764l-5.655,11.31-5.717.715A3,3,0,0,0,2,34.766V46a3,3,0,0,0,3,3H8.08a6.991,6.991,0,0,0,13.84,0H42.08a6.991,6.991,0,0,0,13.84,0H59a3,3,0,0,0,3-3V35.694A2.991,2.991,0,0,0,59.493,32.735ZM34,23h8.7l4.572,8H34Zm-2,8H18.348l2.392-8H32ZM22,11H38v2H22Zm3,4H35v2H25ZM4,46V45H7V43H4V34.766a1,1,0,0,1,.876-.993l6.248-.781a1,1,0,0,0,.771-.545l5.894-11.789A2.982,2.982,0,0,1,20.472,19H38.679a3,3,0,0,1,2.6,1.512l.279.488H20.74a1.989,1.989,0,0,0-1.908,1.423l-2.4,7.989a1.974,1.974,0,0,0,.3,1.774A2,2,0,0,0,18.34,33H32V47H21.92A6.991,6.991,0,0,0,8.08,47H5A1,1,0,0,1,4,46Zm11,7a5,5,0,1,1,5-5A5.006,5.006,0,0,1,15,53Zm34,0a5,5,0,1,1,5-5A5.006,5.006,0,0,1,49,53Zm10-6H55.92a6.991,6.991,0,0,0-13.84,0H34V33H48.918l10.247,1.708a.989.989,0,0,1,.542.292H56a2,2,0,0,0-2,2v2a2,2,0,0,0,2,2h4v2H57v2h3v1A1,1,0,0,1,59,47Zm1-10v2H56V37Z"></path><rect x="36" y="35" width="4" height="2"></rect><rect x="19" y="35" width="4" height="2"></rect><rect x="14" y="47" width="2" height="2"></rect><rect x="48" y="47" width="2" height="2"></rect></g></svg>