<svg xmlns="http://www.w3.org/2000/svg" viewBox="0 0 64 64" x="0px" y="0px"><g data-name="Plant"><path d="M61,46H33V41.453a21.229,21.229,0,0,0,6.655,1.156,13.346,13.346,0,0,0,6.737-1.681c6.434-3.715,7.352-12.461,7.388-12.831A1,1,0,0,0,53.2,27.09c-.339-.154-8.373-3.732-14.807-.018A13.863,13.863,0,0,0,33,33.153V23.414l3.95-3.95a9.009,9.009,0,0,0,0-12.727L32.707,2.494a1,1,0,0,0-1.414,0L27.05,6.737a9.009,9.009,0,0,0,0,12.727L31,23.414v5.739a13.863,13.863,0,0,0-5.392-6.081c-6.434-3.714-14.468-.136-14.807.018A1,1,0,0,0,10.22,24.1c.036.37.954,9.116,7.388,12.831a13.349,13.349,0,0,0,6.737,1.681A21.235,21.235,0,0,0,31,37.453V46H3a1,1,0,0,0-1,1v6a1,1,0,0,0,1,1H5.219L7.03,61.243A1,1,0,0,0,8,62H56a1,1,0,0,0,.97-.757L58.781,54H61a1,1,0,0,0,1-1V47A1,1,0,0,0,61,46ZM39.392,28.8c4.543-2.623,10.326-.889,12.291-.166C51.33,30.7,49.949,36.565,45.392,39.2c-3.814,2.2-8.491,1.334-11.061.571l8.184-4.91-1.03-1.714L33.39,38C34.031,35.379,35.627,30.978,39.392,28.8ZM28.464,18.05a7.008,7.008,0,0,1,0-9.9L32,4.615l3.536,3.536a7.008,7.008,0,0,1,0,9.9L33,20.586V14H31v6.586ZM18.608,35.2c-4.543-2.622-5.933-8.494-6.29-10.559,1.968-.722,7.748-2.455,12.29.167,3.765,2.174,5.361,6.575,6,9.2l-8.095-4.857-1.03,1.714,8.184,4.91C27.1,36.531,22.422,37.4,18.608,35.2ZM55.219,60H8.781l-1.5-6H56.719ZM60,52H4V48H60Z"></path></g></svg>