<svg xmlns="http://www.w3.org/2000/svg" viewBox="0 0 64 64" x="0px" y="0px"><g><path d="M38.38,22.08a1,1,0,0,0-1.09.21A1.05,1.05,0,0,0,37,23a.99.99,0,0,0,1,1,1,1,0,0,0,.38-.07,1.461,1.461,0,0,0,.33-.22A.99.99,0,0,0,39,23a1.05,1.05,0,0,0-.29-.71A1.032,1.032,0,0,0,38.38,22.08Z"></path><path d="M27,23a1,1,0,1,0-2,0,1,1,0,1,0,2,0Z"></path><path d="M56.753,50.716a9.019,9.019,0,0,0,.5-6.056l-7.81-29.009a18.451,18.451,0,0,0-35.716.327L6.52,44.818a8.993,8.993,0,0,0,.628,6.1A12.967,12.967,0,0,0,6,56.25V61a1,1,0,0,0,1,1H57a1,1,0,0,0,1-1V56.25A12.952,12.952,0,0,0,56.753,50.716Zm-1.348-2.247a12.937,12.937,0,0,0-7.1-4.785L39,41.229V38.106A14.029,14.029,0,0,0,45.668,29H46a3.992,3.992,0,0,0,3.97-3.707l5.354,19.886A7,7,0,0,1,55.405,48.469ZM27,42V39.061a13.782,13.782,0,0,0,10,0V42a1,1,0,0,0,.745.967l3.534.932a4.465,4.465,0,0,0-.378,1.718,4.47,4.47,0,0,1-.177,1.119,5.485,5.485,0,0,1-.937-.256,3.915,3.915,0,0,0-2.439-.266,3.491,3.491,0,0,0-1.631,1.613,7.228,7.228,0,0,1-.64.9,3.847,3.847,0,0,1-.87-.6A3.683,3.683,0,0,0,32,47.04a3.683,3.683,0,0,0-2.207,1.089,8.452,8.452,0,0,1-.8.607,3.654,3.654,0,0,1-.714-.909,3.492,3.492,0,0,0-1.639-1.616,3.9,3.9,0,0,0-2.437.27,5.285,5.285,0,0,1-.935.255,4.408,4.408,0,0,1-.176-1.122,4.422,4.422,0,0,0-.375-1.715l3.534-.932A1,1,0,0,0,27,42ZM46,27V23a2,2,0,0,1,0,4ZM8.46,45.3l7.21-28.84A16.424,16.424,0,0,1,31.63,4,16.465,16.465,0,0,1,47.514,16.17l1.763,6.548A3.993,3.993,0,0,0,46,21H44v5a12,12,0,0,1-24,0V21H18a4,4,0,0,0,0,8h.332A14.029,14.029,0,0,0,25,38.106v3.123l-9.3,2.454A12.944,12.944,0,0,0,8.45,48.674,7.057,7.057,0,0,1,8.46,45.3ZM18,26v1a2,2,0,0,1,0-4ZM56,60H49.914A6.931,6.931,0,0,0,50,59a7.009,7.009,0,0,0-3-5.739V51H45v2.81a1,1,0,0,0,.5.867A5,5,0,0,1,48,59a4.827,4.827,0,0,1-.114,1H16.114A4.827,4.827,0,0,1,16,59a5,5,0,0,1,2.5-4.323,1,1,0,0,0,.5-.867V51H17v2.261A7.009,7.009,0,0,0,14,59a6.931,6.931,0,0,0,.086,1H8V56.25a10.99,10.99,0,0,1,8.2-10.633l4.29-1.131a1.835,1.835,0,0,1,.468.333,3.91,3.91,0,0,1,.139.95,3.165,3.165,0,0,0,1.132,2.7,3.05,3.05,0,0,0,2.6-.092,3.883,3.883,0,0,1,1.146-.282,3.882,3.882,0,0,1,.621.818c.478.735,1.071,1.65,2.073,1.793a3.14,3.14,0,0,0,2.377-1.027A3.736,3.736,0,0,1,32,49.04a3.591,3.591,0,0,1,.951.641,3.551,3.551,0,0,0,2.1,1.049,1.768,1.768,0,0,0,.269-.02c1.014-.145,1.607-1.06,2.085-1.8a4.747,4.747,0,0,1,.59-.806,3.494,3.494,0,0,1,1.17.27,3.06,3.06,0,0,0,2.614.09A3.188,3.188,0,0,0,42.9,45.776a4.262,4.262,0,0,1,.135-.946,1.821,1.821,0,0,1,.475-.344L47.8,45.618A10.989,10.989,0,0,1,56,56.25Z"></path><path d="M29,23v5a3,3,0,0,0,6,0V23H33v5a1,1,0,0,1-2,0V23Z"></path><path d="M20.145,15.573A1,1,0,0,0,20.9,16l.061,0a1,1,0,0,0,.742-.329C23.784,13.372,27.633,12,32,12s8.2,1.367,10.287,3.658a1,1,0,0,0,1.549-.086l.714-.986a1,1,0,0,0,.087-1.026C43.168,10.567,39.783,7,32,7s-11.168,3.567-12.637,6.56a1,1,0,0,0,.079,1.015ZM32,9c4.22,0,7.446,1.173,9.477,3.418A17.909,17.909,0,0,0,32,10a17.9,17.9,0,0,0-9.476,2.418C24.555,10.173,27.78,9,32,9Z"></path><path d="M22.249,20.78a3.129,3.129,0,0,0,2.317-1.059c.388-.372.541-.5.932-.5s.542.129.928.5a3.064,3.064,0,0,0,4.634,0c.387-.372.541-.5.931-.5s.544.129.931.5A3.129,3.129,0,0,0,35.24,20.78a3.1,3.1,0,0,0,2.318-1.058c.387-.373.542-.5.932-.5s.546.129.935.5a3.072,3.072,0,0,0,4.639,0c.39-.373.544-.5.936-.5v-2a3.09,3.09,0,0,0-2.319,1.058c-.389.373-.544.5-.936.5s-.547-.129-.936-.5a3.069,3.069,0,0,0-4.637,0c-.388.373-.542.5-.932.5s-.544-.129-.932-.5a3.065,3.065,0,0,0-4.634,0c-.388.373-.542.5-.932.5s-.542-.129-.929-.5a3.063,3.063,0,0,0-4.633,0c-.388.372-.541.5-.931.5s-.544-.129-.932-.5A3.127,3.127,0,0,0,19,17.22v2c.39,0,.544.129.932.5A3.13,3.13,0,0,0,22.249,20.78Z"></path><path d="M32,33a5.992,5.992,0,0,1-4.442-1.655l-1.511,1.31A7.9,7.9,0,0,0,32,35a7.9,7.9,0,0,0,5.953-2.345l-1.511-1.31A5.992,5.992,0,0,1,32,33Z"></path></g></svg>