<svg xmlns="http://www.w3.org/2000/svg" viewBox="0 0 64 64" x="0px" y="0px"><g data-name="First aid kit-Bag"><path d="M59,12H43V5a1,1,0,0,0-1-1H22a1,1,0,0,0-1,1v7H5a3,3,0,0,0-3,3V56a3,3,0,0,0,3,3H59a3,3,0,0,0,3-3V15A3,3,0,0,0,59,12ZM41,6V7H23V6ZM23,9H41v3H23ZM60,56a1,1,0,0,1-1,1H5a1,1,0,0,1-1-1V15a1,1,0,0,1,1-1H59a1,1,0,0,1,1,1Z"></path><path d="M41,32H36V27a1,1,0,0,0-1-1H29a1,1,0,0,0-1,1v5H23a1,1,0,0,0-1,1v6a1,1,0,0,0,1,1h5v5a1,1,0,0,0,1,1h6a1,1,0,0,0,1-1V40h5a1,1,0,0,0,1-1V33A1,1,0,0,0,41,32Zm-1,6H35a1,1,0,0,0-1,1v5H30V39a1,1,0,0,0-1-1H24V34h5a1,1,0,0,0,1-1V28h4v5a1,1,0,0,0,1,1h5Z"></path><path d="M32,20A16,16,0,1,0,48,36,16.019,16.019,0,0,0,32,20Zm0,30A14,14,0,1,1,46,36,14.015,14.015,0,0,1,32,50Z"></path></g></svg>