<svg xmlns="http://www.w3.org/2000/svg" viewBox="0 0 64 64" x="0px" y="0px"><g data-name="Luggage"><path d="M37,33H35V32H29v1H27V31a1,1,0,0,1,1-1h8a1,1,0,0,1,1,1Z"></path><rect x="2" y="38" width="6" height="2"></rect><rect x="4" y="26.146" width="2" height="6.708" transform="translate(-23.622 20.779) rotate(-63.435)"></rect><rect x="1.646" y="47.5" width="6.708" height="2" transform="translate(-21.162 7.356) rotate(-26.565)"></rect><rect x="56" y="38" width="6" height="2"></rect><rect x="55.646" y="28.5" width="6.708" height="2" transform="translate(-6.964 29.5) rotate(-26.565)"></rect><rect x="58" y="45.146" width="2" height="6.708" transform="translate(-10.765 79.581) rotate(-63.435)"></rect><rect x="22" y="35" width="20.001" height="14"></rect><rect x="50" y="23" width="2" height="32"></rect><path d="M52,13H12v8H52ZM28,18H24V16h4Zm6,0H30V16h4Zm6,0H36V16h4Z"></path><rect x="12" y="23" width="2" height="32"></rect></g></svg>