<svg xmlns="http://www.w3.org/2000/svg" viewBox="0 0 64 64" x="0px" y="0px"><g data-name="Game Boy"><circle cx="40" cy="49" r="1"></circle><path d="M24,43V40H22v3a1,1,0,0,1-1,1H18v2h3a1,1,0,0,1,1,1v3h2V47a1,1,0,0,1,1-1h3V44H25A1,1,0,0,1,24,43Z"></path><circle cx="40" cy="41" r="1"></circle><circle cx="35" cy="45" r="1"></circle><path d="M51,5a1,1,0,0,0-1-1H14a1,1,0,0,0-1,1V59a1,1,0,0,0,1,1h5V57a3,3,0,0,1,3-3H42a3,3,0,0,1,3,3v2.92A7,7,0,0,0,51,53ZM30,47a1,1,0,0,1-1,1H26v3a1,1,0,0,1-1,1H21a1,1,0,0,1-1-1V48H17a1,1,0,0,1-1-1V43a1,1,0,0,1,1-1h3V39a1,1,0,0,1,1-1h4a1,1,0,0,1,1,1v3h3a1,1,0,0,1,1,1Zm2-2a3,3,0,1,1,3,3A3,3,0,0,1,32,45Zm5-4a3,3,0,1,1,3,3A3,3,0,0,1,37,41Zm3,11a3,3,0,1,1,3-3A3,3,0,0,1,40,52Zm5-4a3,3,0,1,1,3-3A3,3,0,0,1,45,48Zm4-16a2,2,0,0,1-2,2H17a2,2,0,0,1-2-2V8a2,2,0,0,1,2-2H47a2,2,0,0,1,2,2Z"></path><path d="M43,60V57a1,1,0,0,0-1-1H22a1,1,0,0,0-1,1v3h2V58h2v2h2V58h2v2h2V58h2v2h2V58h2v2h2V58h2v2Z"></path><path d="M17,8V32H47V8ZM29,21H27V19h2Zm4,0H31V19h2Zm4,0H35V19h2Z"></path><circle cx="45" cy="45" r="1"></circle></g></svg>