<svg xmlns="http://www.w3.org/2000/svg" viewBox="0 0 64 64" x="0px" y="0px"><g><polygon points="11 58 2 58 2 60 62 60 62 58 53 58 20 58 11 58"></polygon><path d="M20,50a3,3,0,1,0,3,3A3.009,3.009,0,0,0,20,50Zm1,4H19V52h2Z"></path><path d="M24.9,52H42V46H4v6H6.1a4.988,4.988,0,0,1,9.4-1.14A4.988,4.988,0,0,1,24.9,52Z"></path><path d="M11,50a3,3,0,1,0,3,3A3.009,3.009,0,0,0,11,50Zm1,4H10V52h2Z"></path><path d="M42,20H36.26A14.977,14.977,0,0,1,14.04,39H8V37h3.85a14.836,14.836,0,0,1-1.52-2H6V33H9.26a14.769,14.769,0,0,1-.7-2H4V44H42Z"></path><path d="M4,20v9H8.15A14.712,14.712,0,0,1,8,27a14.873,14.873,0,0,1,1.74-7Z"></path><path d="M60,42.58l-4.5-2.57a.01.01,0,0,0-.01-.01H50a1,1,0,0,1-1-1V30H44V52h4.1a5,5,0,0,1,9.8,0H60V49H57a1,1,0,0,1-1-1V44a1,1,0,0,1,1-1h3ZM54,44H50V42h4Z"></path><rect x="58" y="45" width="2" height="2"></rect><path d="M53,50a3,3,0,1,0,3,3A3.009,3.009,0,0,0,53,50Zm1,4H52V52h2Z"></path><path d="M55,31a1,1,0,0,0-1-1H51v8h4Z"></path><path d="M23,12c.34,0,.67.03,1,.05V10H22v2.05C22.33,12.03,22.66,12,23,12Z"></path><circle cx="23" cy="27" r="1"></circle><path d="M14.71,37h3.73a10.923,10.923,0,0,1-2.97-2h-2.7A13.109,13.109,0,0,0,14.71,37Z"></path><path d="M10.64,31a13.009,13.009,0,0,0,.84,2h2.31a11.455,11.455,0,0,1-1.03-2Z"></path><path d="M13.14,15.72l-.87-.87-1.42,1.42.87.87A15.858,15.858,0,0,1,13.14,15.72Z"></path><path d="M18.9,35A8.993,8.993,0,1,0,14,27a8.759,8.759,0,0,0,.23,2H17v2H14.95a8.827,8.827,0,0,0,1.36,2H19v2ZM23,24a2.965,2.965,0,0,1,1.285.3l3.008-3.008,1.414,1.414L25.7,25.715A2.951,2.951,0,0,1,26,27a3,3,0,1,1-3-3Z"></path><rect x="20" y="6" width="6" height="2"></rect><path d="M32.86,15.72a15.858,15.858,0,0,1,1.42,1.42l.87-.87-1.42-1.42Z"></path><path d="M10.17,29h2.02A11.04,11.04,0,1,1,21,37.81V39H18.01A13,13,0,1,0,10,27,13.161,13.161,0,0,0,10.17,29Z"></path></g></svg>