<svg xmlns="http://www.w3.org/2000/svg" viewBox="0 0 64 64" x="0px" y="0px"><g><path d="M28,25H26a2,2,0,0,1-4,0H20a4,4,0,0,0,8,0Z"></path><rect x="18" y="19" width="2" height="2"></rect><rect x="28" y="19" width="2" height="2"></rect><path d="M60,30H44a5.006,5.006,0,0,0-5,5v4.559a11.324,11.324,0,0,0-1.721-.7L29,36.265V32.786A11,11,0,0,0,35,23V22a3,3,0,0,0,0-6V13a11,11,0,0,0-22,0v3a3,3,0,0,0,0,6v1a11,11,0,0,0,6,9.786v3.479l-8.277,2.589A10.943,10.943,0,0,0,3,49.35V61a1,1,0,0,0,1,1H44a1,1,0,0,0,1-1V58H60a1,1,0,0,0,1-1V31A1,1,0,0,0,60,30ZM44,32H59V50H43a3.959,3.959,0,0,0-2,.556V35A3,3,0,0,1,44,32ZM27.98,57.8l-1.895-9.475,1.622-1.622a1,1,0,0,0,0-1.414l-.626-.626L29,44.347V60H27.388l.561-1.684A.989.989,0,0,0,27.98,57.8Zm-7.929.512L20.612,60H19V44.347l1.919.32-.626.626a1,1,0,0,0,0,1.414l1.622,1.622L20.02,57.8A.989.989,0,0,0,20.051,58.316ZM23.414,47l-1-1,1-1h1.172l1,1-1,1Zm5.9-8.542.553,3.717-4.058.676,2.661-4.657ZM36,19a1,1,0,0,1-1,1V18A1,1,0,0,1,36,19ZM24,4a9.01,9.01,0,0,1,9,9v3.606a5.592,5.592,0,0,1-3.051-2.922A1,1,0,0,0,29,13a4.269,4.269,0,0,0-3.249,1.611,8.007,8.007,0,0,1-1.8-2.928,1,1,0,0,0-1.191-.653c-2.769.692-5.88,3.077-7.757,4.7V13A9.01,9.01,0,0,1,24,4ZM12,19a1,1,0,0,1,1-1v2A1,1,0,0,1,12,19Zm3,4V18.424c.995-.946,4.417-4.065,7.423-5.195a7.736,7.736,0,0,0,3.13,3.666,1.009,1.009,0,0,0,1.339-.442A3.044,3.044,0,0,1,28.414,15.1,8.088,8.088,0,0,0,33,18.733V23a9,9,0,0,1-18,0Zm9,11a10.928,10.928,0,0,0,3-.427v3.162l-3,5.249-3-5.249V33.573A10.928,10.928,0,0,0,24,34Zm-4.469,4.194,2.661,4.657-4.058-.676.553-3.717ZM5,49.35a8.951,8.951,0,0,1,6.319-8.586l5.247-1.642-.555,3.731a1,1,0,0,0,.824,1.133l.165.028V60H12V48H10V60H5ZM22.721,60l-.688-2.064L23.82,49h.36l1.787,8.936L25.279,60ZM43,60H38V48H36V60H31V44.014l.165-.028a1,1,0,0,0,.824-1.133l-.555-3.731,5.245,1.641A8.9,8.9,0,0,1,39,41.907V54a4,4,0,0,0,4,4Zm0-4a2,2,0,0,1,0-4H59v1H43v2H59v1Z"></path><polygon points="49 46 51 46 51 40 53 40 53 38 51 38 51 36 49 36 49 38 47 38 47 40 49 40 49 46"></polygon></g></svg>