<svg xmlns="http://www.w3.org/2000/svg" viewBox="0 0 64 64" x="0px" y="0px"><g data-name="New Car"><rect x="27" y="15" width="6" height="2"></rect><path d="M18,28H14a1,1,0,0,0-1,1v2a3,3,0,0,0,3,3h4a1,1,0,0,0,1-1V31A3,3,0,0,0,18,28Zm1,4H16a1,1,0,0,1-1-1V30h3a1,1,0,0,1,1,1Z"></path><path d="M50,28H46a3,3,0,0,0-3,3v2a1,1,0,0,0,1,1h4a3,3,0,0,0,3-3V29A1,1,0,0,0,50,28Zm-1,3a1,1,0,0,1-1,1H45V31a1,1,0,0,1,1-1h3Z"></path><path d="M37,28H27a3,3,0,0,0,0,6H37a3,3,0,0,0,0-6Zm-4,2v2H31V30Zm-7,1a1,1,0,0,1,1-1h2v2H27A1,1,0,0,1,26,31Zm11,1H35V30h2a1,1,0,0,1,0,2Z"></path><path d="M61,52V51a1,1,0,0,0-.293-.707l-2-2A1,1,0,0,0,58,48H55.816A2.966,2.966,0,0,0,56,47V44h2a2,2,0,0,0,2-2V38a2,2,0,0,0-2-2h-.184A2.966,2.966,0,0,0,58,35V27.354A2.982,2.982,0,0,0,56.858,25h.362a1.991,1.991,0,0,0,1.94-1.517l.5-2A2,2,0,0,0,57.72,19H49.5L45,13a5.025,5.025,0,0,0-4-2H23a5.025,5.025,0,0,0-4,2l-4.5,6H6.28a2,2,0,0,0-1.94,2.483l.5,2A1.993,1.993,0,0,0,6.78,25h.362A2.982,2.982,0,0,0,6,27.354V35a2.966,2.966,0,0,0,.184,1H6a2,2,0,0,0-2,2v4a2,2,0,0,0,2,2H8v3a2.966,2.966,0,0,0,.184,1H6a1,1,0,0,0-.707.293l-2,2A1,1,0,0,0,3,51v1a1,1,0,0,0-1,1v8a1,1,0,0,0,1,1H61a1,1,0,0,0,1-1V53A1,1,0,0,0,61,52Zm-7-5a1,1,0,0,1-1,1H49a1,1,0,0,1-1-1V44h6ZM18,44H46v3a2.966,2.966,0,0,0,.184,1H17.816A2.966,2.966,0,0,0,18,47ZM57.721,21l-.5,2H52.511c-.015-.017-.034-.03-.048-.049L51,21ZM20.6,14.2A3.017,3.017,0,0,1,23,13H41a3.017,3.017,0,0,1,2.4,1.2L50,23H28.9a5,5,0,0,0-9.8,0H14ZM26.816,23H21.184a2.982,2.982,0,0,1,5.632,0ZM6.779,23l-.5-2H13l-1.463,1.95c-.014.019-.034.032-.049.05ZM8,35V34h3V32H8V30h3V28H8v-.646a1,1,0,0,1,.628-.928l3.223-1.289c.086-.034.158-.095.241-.137H51.908c.083.042.155.1.241.137l3.222,1.288a1,1,0,0,1,.629.929V28H53v2h3v2H53v2h3v1a1,1,0,0,1-1,1H9A1,1,0,0,1,8,35ZM6,38H58v4H6Zm4,9V44h6v3a1,1,0,0,1-1,1H11A1,1,0,0,1,10,47ZM5,51.414,6.414,50H57.586L59,51.414V52H5ZM60,60H4V54H60Z"></path><polygon points="9 10 11 10 11 8 13 8 13 6 11 6 11 4 9 4 9 6 7 6 7 8 9 8 9 10"></polygon><polygon points="52 14 54 14 54 12 56 12 56 10 54 10 54 8 52 8 52 10 50 10 50 12 52 12 52 14"></polygon></g></svg>