<svg xmlns="http://www.w3.org/2000/svg" viewBox="0 0 64 64" x="0px" y="0px"><g data-name="Graphic Design-Sketch-Keyboard-Art-Design"><path d="M59,36H5a3.009,3.009,0,0,0-3,3V57a3.009,3.009,0,0,0,3,3H9v1a1,1,0,0,0,1,1H30a1,1,0,0,0,1-1V60h2v1a1,1,0,0,0,1,1H54a1,1,0,0,0,1-1V60h4a3.009,3.009,0,0,0,3-3V39A3.009,3.009,0,0,0,59,36ZM29,60H11V53a1,1,0,0,1,2,0v2a1,1,0,0,0,2,0V49a1,1,0,0,1,2,0v6a1,1,0,0,0,2,0V48a1,1,0,0,1,2,0v7a1,1,0,0,0,2,0V49a1,1,0,0,1,2,0v8a1,1,0,0,0,2,0V54a1,1,0,0,1,2,0Zm24,0H35V54a1,1,0,0,1,2,0v3a1,1,0,0,0,2,0V49a1,1,0,0,1,2,0v6a1,1,0,0,0,2,0V48a1,1,0,0,1,2,0v7a1,1,0,0,0,2,0V49a1,1,0,0,1,2,0v6a1,1,0,0,0,2,0V53a1,1,0,0,1,2,0Zm7-3a1,1,0,0,1-1,1H55V53a3,3,0,0,0-4-2.83V49a3.009,3.009,0,0,0-3-3,2.934,2.934,0,0,0-1.47.39,3,3,0,0,0-5.06,0A2.934,2.934,0,0,0,40,46a3.009,3.009,0,0,0-3,3v2.17A3,3,0,0,0,33,54v4H31V54a3,3,0,0,0-4-2.83V49a3.009,3.009,0,0,0-3-3,2.934,2.934,0,0,0-1.47.39,3,3,0,0,0-5.06,0A2.934,2.934,0,0,0,16,46a3.009,3.009,0,0,0-3,3v1.17A3,3,0,0,0,9,53v5H5a1,1,0,0,1-1-1V39a1,1,0,0,1,1-1H59a1,1,0,0,1,1,1Z"></path><rect x="41" y="40" width="2" height="2"></rect><rect x="45" y="40" width="2" height="2"></rect><rect x="9" y="40" width="2" height="2"></rect><rect x="13" y="40" width="2" height="2"></rect><rect x="17" y="40" width="2" height="2"></rect><rect x="21" y="40" width="2" height="2"></rect><rect x="25" y="40" width="2" height="2"></rect><rect x="29" y="40" width="2" height="2"></rect><rect x="33" y="40" width="2" height="2"></rect><rect x="37" y="40" width="2" height="2"></rect><rect x="49" y="44" width="2" height="2"></rect><rect x="37" y="44" width="2" height="2"></rect><rect x="25" y="44" width="2" height="2"></rect><rect x="13" y="44" width="2" height="2"></rect><rect x="49" y="40" width="2" height="2"></rect><rect x="53" y="40" width="2" height="2"></rect><rect x="9" y="44" width="2" height="2"></rect><rect x="29" y="44" width="2" height="2"></rect><rect x="33" y="44" width="2" height="2"></rect><rect x="29" y="48" width="2" height="2"></rect><rect x="33" y="48" width="2" height="2"></rect><rect x="53" y="44" width="2" height="2"></rect><path d="M54,2a5.017,5.017,0,0,0-4.9,4H46.82a2.988,2.988,0,0,0-5.64,0H34.54L32.83,3.45a1.03,1.03,0,0,0-1.66,0L29.46,6H22.82a2.988,2.988,0,0,0-5.64,0H14.9A5,5,0,0,0,5,7V29a5,5,0,0,0,5,5H54a5,5,0,0,0,5-5V7A5,5,0,0,0,54,2ZM44,6a1,1,0,1,1-1,1A1,1,0,0,1,44,6ZM31,7.3V11h2V7.3l1.85,2.77L33.38,13H30.62l-1.47-2.93ZM30,15h4a1,1,0,0,1,0,2H30a1,1,0,0,1,0-2Zm3,4v9H31V19ZM20,6a1,1,0,1,1-1,1A1,1,0,0,1,20,6ZM7,7a3,3,0,0,1,6,0V25a5,5,0,0,0-6,0ZM54,32H10a3,3,0,1,1,3-3,1,1,0,0,0,2,0V8h2.18a2.988,2.988,0,0,0,5.64,0h2.89a11.038,11.038,0,0,0-4.67,8.17,3,3,0,1,0,2,.03A9.073,9.073,0,0,1,27.2,9.39l-.03.06a.994.994,0,0,0-.06,1l1.46,2.93A2.98,2.98,0,0,0,29,18.82V29a1,1,0,0,0,1,1h4a1,1,0,0,0,1-1V18.82a2.98,2.98,0,0,0,.43-5.44l1.46-2.93a.994.994,0,0,0-.06-1l-.03-.06a9.073,9.073,0,0,1,4.16,6.81,3,3,0,1,0,2-.03A11.038,11.038,0,0,0,38.29,8h2.89a2.988,2.988,0,0,0,5.64,0H49V29a1,1,0,0,0,2,0,3,3,0,1,1,3,3ZM23,19a1,1,0,1,1-1-1A1,1,0,0,1,23,19Zm18,0a1,1,0,1,1,1,1A1,1,0,0,1,41,19Zm16,6a5,5,0,0,0-6,0V7a3,3,0,0,1,6,0Z"></path></g></svg>