<svg xmlns="http://www.w3.org/2000/svg" viewBox="0 0 64 64" x="0px" y="0px"><g data-name="Image Processing-Face Detection-Smartphone-Application-Scan"><path d="M26.66,43.94a1,1,0,0,1-.64-.74l-.69-3.44A8,8,0,0,0,21,46.85V47H43v-.15a8,8,0,0,0-4.33-7.09l-.69,3.44a1,1,0,0,1-.64.74A.974.974,0,0,1,37,44a1.048,1.048,0,0,1-.63-.22l-2.6-2.09-.88,1.76a1,1,0,0,1-1.78,0l-.88-1.76-2.6,2.09A1.048,1.048,0,0,1,27,44,.974.974,0,0,1,26.66,43.94Z"></path><path d="M31.61,23.08A10.362,10.362,0,0,1,36,22a7.718,7.718,0,0,1,1,.07V22a5,5,0,0,0-10,0v1.91A5.022,5.022,0,0,0,28,24,8.622,8.622,0,0,0,31.61,23.08Z"></path><polygon points="29.31 39.86 28.53 38.3 27.2 38.89 27.66 41.19 29.31 39.86"></polygon><path d="M27,28H37V24.09A5.022,5.022,0,0,0,36,24a8.622,8.622,0,0,0-3.61.92A10.362,10.362,0,0,1,28,26a7.718,7.718,0,0,1-1-.07Z"></path><path d="M34,36.76V34.71a7.042,7.042,0,0,1-4,0v2.05l2,4Z"></path><path d="M50,30H38.71A7.073,7.073,0,0,1,36,33.74v2.61l3.06,1.36A10.013,10.013,0,0,1,45,46.85V48a1,1,0,0,1-1,1H20a1,1,0,0,1-1-1V46.85a10.021,10.021,0,0,1,5.93-9.14L28,36.35V33.74A7.073,7.073,0,0,1,25.29,30H14V52H50Z"></path><path d="M50,54H14v2a4,4,0,0,0,4,4H46a4,4,0,0,0,4-4ZM33,58H31V56h2Z"></path><path d="M25,26a1,1,0,0,0,0,2Z"></path><polygon points="34.69 39.86 36.34 41.19 36.8 38.89 35.47 38.3 34.69 39.86"></polygon><path d="M50,8a4,4,0,0,0-4-4H18a4,4,0,0,0-4,4v2H50ZM27,8H25V6h2Zm8,0H29V6h6Z"></path><path d="M50,12H14V28h8.18A2.98,2.98,0,0,1,25,24V22a7,7,0,0,1,14,0v2a2.98,2.98,0,0,1,2.82,4H50Z"></path><path d="M39,26v2a1,1,0,0,0,0-2Z"></path><path d="M27.42,30a5,5,0,0,0,9.16,0Z"></path><path d="M57,14.414V20h2V14.414l1.293,1.293,1.414-1.414-3-3a1,1,0,0,0-1.414,0l-3,3,1.414,1.414Z"></path><rect x="57" y="22" width="2" height="2"></rect><path d="M59,43.586V38H57v5.586l-1.293-1.293-1.414,1.414,3,3a1,1,0,0,0,1.414,0l3-3-1.414-1.414Z"></path><rect x="57" y="34" width="2" height="2"></rect><path d="M5,14.414V20H7V14.414l1.293,1.293,1.414-1.414-3-3a1,1,0,0,0-1.414,0l-3,3,1.414,1.414Z"></path><rect x="5" y="22" width="2" height="2"></rect><path d="M7,43.586V38H5v5.586L3.707,42.293,2.293,43.707l3,3a1,1,0,0,0,1.414,0l3-3L8.293,42.293Z"></path><rect x="5" y="34" width="2" height="2"></rect><path d="M14,28H8.816a3,3,0,1,0,0,2H14Z"></path><path d="M58,26a2.99,2.99,0,0,0-2.816,2H50v2h5.184A2.995,2.995,0,1,0,58,26Z"></path></g></svg>