<svg xmlns="http://www.w3.org/2000/svg" viewBox="0 0 64 64" x="0px" y="0px"><g data-name="Saving-Money Bag-Coins-Money-Loan"><path d="M16,43h2a1,1,0,0,1,1,1h2a3,3,0,0,0-3-3V40H16v1a3,3,0,0,0,0,6h2a1,1,0,0,1,0,2H16a1,1,0,0,1-1-1H13a3,3,0,0,0,3,3v1h2V51a3,3,0,0,0,0-6H16a1,1,0,0,1,0-2Z"></path><path d="M60,36H30a2,2,0,0,0-1.918,1.465A9.025,9.025,0,0,0,23.639,34.4,2.957,2.957,0,0,0,24,33a3,3,0,0,0-2.211-2.881l3.043-4.564A1,1,0,0,0,24,24H10a1,1,0,0,0-.832,1.555l3.043,4.564A3,3,0,0,0,10,33a2.957,2.957,0,0,0,.361,1.4A9.016,9.016,0,0,0,4,43v9.171A3,3,0,0,0,5,58H28v2a2,2,0,0,0,2,2H60a2,2,0,0,0,2-2V38A2,2,0,0,0,60,36Zm0,20H49V54H60ZM30,49.126A4.007,4.007,0,0,1,32.859,52H30ZM30,54H41v2H30Zm13,0h4v6H43Zm17-2H57.142A3.993,3.993,0,0,1,60,49.143Zm0-4.909A6.006,6.006,0,0,0,55.09,52H34.91A6.008,6.008,0,0,0,30,47.09V42.91A6.008,6.008,0,0,0,34.91,38H55.09A6.007,6.007,0,0,0,60,42.91Zm0-6.233A4,4,0,0,1,57.142,38H60ZM32.858,38A4,4,0,0,1,30,40.858V38ZM22.131,26l-2.666,4h-4.93l-2.666-4ZM12,33a1,1,0,0,1,1-1h8a1,1,0,0,1,0,2H13A1,1,0,0,1,12,33ZM5,56a1,1,0,0,1,0-2,1,1,0,0,0,1-1V43a7.008,7.008,0,0,1,7-7h8a7.008,7.008,0,0,1,7,7V56Zm25,2H41v2H30Zm30,2H49V58H60Z"></path><path d="M45,40a5,5,0,1,0,5,5A5.006,5.006,0,0,0,45,40Zm0,8a3,3,0,1,1,3-3A3,3,0,0,1,45,48Z"></path><path d="M62,16a2,2,0,0,0-2-2H46a2.024,2.024,0,0,0-.206.021A10,10,0,1,0,30.025,20H30a2,2,0,0,0-2,2v4a2,2,0,0,0-2,2v4a2,2,0,0,0,2,2H42a1.978,1.978,0,0,0,1-.278A1.978,1.978,0,0,0,44,34H58a2,2,0,0,0,2-2V28a2,2,0,0,0,2-2V22a1.978,1.978,0,0,0-.278-1A1.978,1.978,0,0,0,62,20ZM46,16h2v2h2V16h2v2h2V16h2v2h2V16h2v4H46Zm-2,4H41.974A10.077,10.077,0,0,0,44,17.974ZM28,12a8,8,0,1,1,8,8A8.009,8.009,0,0,1,28,12Zm2,10h2v2h2V22h2v2h2V22h2v2h2V22h2v4H30ZM28,32V28h2v2h2V28h2v2h2V28h2v2h2V28h2v4Zm30,0H44V28h2v2h2V28h2v2h2V28h2v2h2V28h2Zm2-6H46V22h2v2h2V22h2v2h2V22h2v2h2V22h2Z"></path><path d="M35,9h2a1,1,0,0,1,1,1h2a3,3,0,0,0-3-3V6H35V7a3,3,0,0,0,0,6h2a1,1,0,0,1,0,2H35a1,1,0,0,1-1-1H32a3,3,0,0,0,3,3v1h2V17a3,3,0,0,0,0-6H35a1,1,0,0,1,0-2Z"></path></g></svg>