<svg xmlns="http://www.w3.org/2000/svg" viewBox="0 0 64 64" x="0px" y="0px"><g><path d="M56,49a1,1,0,0,0-1,1,1,1,0,0,1-2,0,1,1,0,0,0-1-1,.988.988,0,0,0-.966.832L52.618,53h2.764l1.584-3.168A.988.988,0,0,0,56,49Z"></path><path d="M55,57V55H53v2a1,1,0,0,0,2,0Z"></path><path d="M57,25H51V47.184a2.846,2.846,0,0,1,2,0V27h2V47.179a2.846,2.846,0,0,1,2,0Z"></path><rect x="51" y="22" width="6" height="1"></rect><path d="M57,19a3,3,0,0,0-6,0v1h6Z"></path><rect x="15" y="19" width="22" height="1"></rect><circle cx="36" cy="51" r="1"></circle><path d="M29,42v1a1,1,0,0,1-.293.707L28,44.414v1.354a8.965,8.965,0,0,0,3.888-1.977L29.649,42Z"></path><path d="M15,17H37V16a3,3,0,0,0-3-3H31a1,1,0,0,1-1-1V7a3,3,0,0,0-3-3H25a3,3,0,0,0-3,3v5a1,1,0,0,1-1,1H18a3,3,0,0,0-3,3ZM26,6a3,3,0,1,1-3,3A3,3,0,0,1,26,6Z"></path><circle cx="26" cy="9" r="1"></circle><path d="M45,17a3,3,0,0,0-3-3H38.576A4.95,4.95,0,0,1,39,16h2a2,2,0,0,1,2,2V56a2,2,0,0,1-2,2H16a7.008,7.008,0,0,1-7-7V18a2,2,0,0,1,2-2h2a4.95,4.95,0,0,1,.424-2H10a3,3,0,0,0-3,3V57a3,3,0,0,0,3,3H42a3,3,0,0,0,3-3Z"></path><path d="M30,36.279,32.162,37H35a8.97,8.97,0,0,0-2.682-6.4L32,31.236V33a1,1,0,0,1-.553.9L30,34.618Z"></path><path d="M13,21V18H11V49h4a3,3,0,0,1,3,3v4H41V18H39v3a1,1,0,0,1-1,1H14A1,1,0,0,1,13,21Zm0,8V27h4v2ZM31,53H29a1,1,0,0,1-.707-.293l-2-2,1.414-1.414L29.414,51H31Zm8-2a3,3,0,1,1-3-3A3,3,0,0,1,39,51ZM26,26A11,11,0,1,1,15,37,11.013,11.013,0,0,1,26,26Zm-9,0H13V24h4Z"></path><path d="M11,51a5.006,5.006,0,0,0,5,5V52a1,1,0,0,0-1-1Z"></path><path d="M17.71,40.5,21.205,42H23v-.382L21.553,40.9A1,1,0,0,1,21,40V38a1,1,0,0,1,.445-.832L24,35.465V34.414l-.707-.707A1,1,0,0,1,23,33V30.333l-1.028-1.37A8.985,8.985,0,0,0,17.71,40.5Z"></path><path d="M25,30v2.586l.707.707A1,1,0,0,1,26,34v2a1,1,0,0,1-.445.832L23,38.535v.847l1.447.723A1,1,0,0,1,25,41v2a1,1,0,0,1-1,1H21a.985.985,0,0,1-.394-.081l-.667-.285A8.955,8.955,0,0,0,26,46V44a1,1,0,0,1,.293-.707L27,42.586V41a1,1,0,0,1,1-1h2a1,1,0,0,1,.625.219l2.621,2.1A8.953,8.953,0,0,0,34.768,39H32a1,1,0,0,1-.316-.051l-3-1A1,1,0,0,1,28,37V34a1,1,0,0,1,.553-.9L30,32.382V31a1,1,0,0,1,.105-.447l.6-1.208a8.856,8.856,0,0,0-6.773-1.1L24.8,29.4A1,1,0,0,1,25,30Z"></path></g></svg>