<svg xmlns="http://www.w3.org/2000/svg" viewBox="0 0 64 64" x="0px" y="0px"><g><path d="M56,26h5a1,1,0,0,0,1-1V11a1,1,0,0,0-.73-.96l-29-8a.991.991,0,0,0-.54,0l-29,8A1,1,0,0,0,2,11V25a1,1,0,0,0,1,1H8V50H5a1,1,0,0,0-1,1v3H3a1,1,0,0,0-1,1v6a1,1,0,0,0,1,1H61a1,1,0,0,0,1-1V55a1,1,0,0,0-1-1H60V51a1,1,0,0,0-1-1H56ZM4,11.76,32,4.04l28,7.72V20H4ZM60,56v4H4V56Zm-2-4v2H6V52ZM16,30V46H10V30Zm-6-2V26h6v2Zm6,20v2H10V48Zm2,2V26h9V50ZM35,30V46H29V30Zm-6-2V26h6v2Zm6,20v2H29V48Zm2,2V26h9V50ZM54,30V46H48V30Zm-6-2V26h6v2Zm6,20v2H48V48ZM4,24V22H60v2Z"></path><path d="M33,15H31a1,1,0,0,1-1-1H28a3,3,0,0,0,3,3v1h2V17a3,3,0,0,0,0-6H31a1,1,0,0,1,0-2h2a1,1,0,0,1,1,1h2a3,3,0,0,0-3-3V6H31V7a3,3,0,0,0,0,6h2a1,1,0,0,1,0,2Z"></path><rect x="38" y="11" width="2" height="2"></rect><rect x="24" y="11" width="2" height="2"></rect></g></svg>