<svg xmlns="http://www.w3.org/2000/svg" viewBox="0 0 64 64" x="0px" y="0px"><g data-name="Coin-Money-Investment-Money Bag-Tree"><rect x="50" y="39" width="10" height="2"></rect><rect x="48" y="43" width="10" height="2"></rect><rect x="48" y="51" width="10" height="2"></rect><rect x="50" y="47" width="10" height="2"></rect><rect x="6" y="39" width="10" height="2"></rect><rect x="4" y="43" width="10" height="2"></rect><rect x="6" y="47" width="10" height="2"></rect><rect x="4" y="51" width="10" height="2"></rect><path d="M32,20a8,8,0,1,0-8-8A8.009,8.009,0,0,0,32,20Zm1-7H31a3,3,0,0,1,0-6V6h2V7a3,3,0,0,1,3,3H34a1,1,0,0,0-1-1H31a1,1,0,0,0,0,2h2a3,3,0,0,1,0,6v1H31V17a3,3,0,0,1-3-3h2a1,1,0,0,0,1,1h2a1,1,0,0,0,0-2Z"></path><path d="M35.7,24.4c-2.234,1.29-2.626,3.9-2.689,5.016,1,.5,3.454,1.471,5.689.18s2.626-3.9,2.689-5.016C40.389,24.078,37.93,23.113,35.7,24.4Z"></path><path d="M22.615,24.582c.063,1.113.455,3.726,2.689,5.016s4.691.323,5.689-.18c-.063-1.113-.455-3.726-2.689-5.016S23.613,24.079,22.615,24.582Z"></path><polygon points="34.382 40 36.382 36 27.618 36 29.618 40 34.382 40"></polygon><path d="M20,59a1,1,0,0,0,1,1H43a1,1,0,0,0,0-2,1,1,0,0,1-1-1V49a7.008,7.008,0,0,0-7-7H29a7.008,7.008,0,0,0-7,7v8a1,1,0,0,1-1,1A1,1,0,0,0,20,59Zm13-7H31a3,3,0,0,1,0-6V44h2v2a3,3,0,0,1,3,3H34a1,1,0,0,0-1-1H31a1,1,0,0,0,0,2h2a3,3,0,0,1,0,6v2H31V56a3,3,0,0,1-3-3h2a1,1,0,0,0,1,1h2a1,1,0,0,0,0-2Z"></path><path d="M9,25a5,5,0,1,0,5,5A5.006,5.006,0,0,0,9,25Zm1,5a1,1,0,0,0-1-1V27a3,3,0,0,1,3,3Z"></path><path d="M55,23a5,5,0,1,0,5,5A5.006,5.006,0,0,0,55,23Zm0,9a4,4,0,0,1-4-4h2a2,2,0,0,0,2,2Zm2-4a2,2,0,0,0-2-2V24a4,4,0,0,1,4,4Z"></path><rect x="31" y="22" width="2" height="12"></rect></g></svg>