<svg xmlns="http://www.w3.org/2000/svg" viewBox="0 0 64 64" x="0px" y="0px"><g><path d="M55,52H49v5a3,3,0,0,0,6,0Z"></path><path d="M59,49V5a1,1,0,0,0-1-1H55v6a1,1,0,0,1-1.832.555L52,8.8l-1.168,1.752A1,1,0,0,1,49,10V4H26a1,1,0,0,0-1,1V31.708l.357.292H48a1,1,0,0,1,1,1V50h9A1,1,0,0,0,59,49ZM35,8h6v2H35ZM29,8h4v2H29Zm0,4H41v2H29Zm0,10H39v2H29ZM55,44H51V42h4Zm0-4H51V38h4Zm0-4H51V34h4Zm0-4H51V30h4Zm0-4H29V26H55Zm0-4H41V22H55Zm0-4H29V18H55Z"></path><path d="M51.168,6.445a1.039,1.039,0,0,1,1.664,0L53,6.7V4H51V6.7Z"></path><path d="M5,57a3,3,0,0,0,3,3H48.026A4.948,4.948,0,0,1,47,57V34H25a1,1,0,0,1-.633-.226L13.643,25H5Z"></path><path d="M14.633,23.226,23,30.072V25.654L13.643,18H5v5h9A1,1,0,0,1,14.633,23.226Z"></path></g></svg>