<svg xmlns="http://www.w3.org/2000/svg" viewBox="0 0 64 64" x="0px" y="0px"><g data-name="Hand shake"><path d="M61,19H54a1,1,0,0,0-1,1v2H48a1,1,0,0,0-1,1H17a1,1,0,0,0-1-1H11V20a1,1,0,0,0-1-1H3a1,1,0,0,0-1,1V40a1,1,0,0,0,1,1h7a1,1,0,0,0,1-1V38h5a1,1,0,0,0,1-1h4.956l7.267,7.267a2.991,2.991,0,0,0,4.234,0l.715-.71a1.99,1.99,0,0,0,1.418.586h0a1.992,1.992,0,0,0,1.418-.588l1.409-1.4.7.693a1.989,1.989,0,0,0,1.417.587h0a1.988,1.988,0,0,0,1.419-.588l1.409-1.4.7.693a1.991,1.991,0,0,0,1.417.587h0a1.986,1.986,0,0,0,1.417-.586l1.41-1.41.008-.009A2.012,2.012,0,0,0,48.4,38H53v2a1,1,0,0,0,1,1h7a1,1,0,0,0,1-1V20A1,1,0,0,0,61,19Zm-8,6V35H49V25ZM47,35H45.414l-7.707-7.707A1,1,0,0,0,37,27H33.66a1,1,0,0,0-.707.293l-2.91,2.9a.91.91,0,0,1-.7.28c-.019,0-.058-.007-.057,0l-.073-.008a.9.9,0,0,1-.579-.269.936.936,0,0,1-.281-.59.993.993,0,0,0-.017-.132.993.993,0,0,1,.3-.694L32.414,25H47ZM11,35V25h4V35ZM9,39H4V21H9Zm36.482,1.717-.7-.693a1.99,1.99,0,0,0-1.417-.586h0a2,2,0,0,0-1.42.587l-1.408,1.4-.7-.694a1.99,1.99,0,0,0-1.418-.586h0a1.992,1.992,0,0,0-1.418.588l-1.423,1.389a2.047,2.047,0,0,0-2.815.019l-.71.71a1.016,1.016,0,0,1-1.406,0l-7.56-7.56A1,1,0,0,0,22.37,35H17V25H29.586l-2.362,2.362a2.979,2.979,0,0,0-.884,2.118,1.714,1.714,0,0,0,.03.353,2.952,2.952,0,0,0,2.6,2.614,1.053,1.053,0,0,0,.367.025,2.867,2.867,0,0,0,2.121-.865L34.074,29h2.511L46.892,39.323ZM60,39H55V21h5Z"></path><rect x="50" y="26" width="2" height="2"></rect><rect x="12" y="26" width="2" height="2"></rect><rect x="21.828" y="39.829" width="2" height="8" transform="translate(-24.305 28.977) rotate(-44.998)"></rect><rect x="20.414" y="41.657" width="2" height="10" transform="translate(-26.719 28.806) rotate(-44.998)"></rect><rect x="34" y="18" width="8" height="2"></rect><rect x="34" y="15" width="10" height="2"></rect></g></svg>