<svg xmlns="http://www.w3.org/2000/svg" viewBox="0 0 64 64" x="0px" y="0px"><g><path d="M43,30A11,11,0,1,0,32,41,11.013,11.013,0,0,0,43,30ZM32,40A10,10,0,1,1,42,30,10.011,10.011,0,0,1,32,40Z"></path><path d="M37.005,45.277a7.022,7.022,0,0,0-3.931,5.143,6.983,6.983,0,0,0,10.4-4.848A7.019,7.019,0,0,0,37.005,45.277Z"></path><path d="M51.586,16,41,5.414V13a3,3,0,0,0,3,3Z"></path><path d="M27,45.277a7.027,7.027,0,0,0-6.467.3,6.983,6.983,0,0,0,10.4,4.848A7.024,7.024,0,0,0,27,45.277Z"></path><path d="M32,22a8,8,0,1,0,8,8A8.009,8.009,0,0,0,32,22Zm-1,7h2a3,3,0,0,1,0,6v1H31V35a3,3,0,0,1-3-3h2a1,1,0,0,0,1,1h2a1,1,0,0,0,0-2H31a3,3,0,0,1,0-6V24h2v1a3,3,0,0,1,3,3H34a1,1,0,0,0-1-1H31a1,1,0,0,0,0,2Z"></path><path d="M53,18H44a5.006,5.006,0,0,1-5-5V4H14a3,3,0,0,0-3,3V57a3,3,0,0,0,3,3H50a3,3,0,0,0,3-3ZM28,8h8v2H28ZM24,8h2v2H24Zm0,4H36v2H24ZM40.386,52.527a8.941,8.941,0,0,1-3.786.837A9.046,9.046,0,0,1,33,52.6V56H31V52.594a9.046,9.046,0,0,1-3.6.769,8.969,8.969,0,0,1-8.941-8.2,1,1,0,0,1,.424-.909,9.033,9.033,0,0,1,8.958-.786A8.918,8.918,0,0,1,31,45.96V42.949a13,13,0,1,1,2,0V45.96a8.918,8.918,0,0,1,3.159-2.495,9.026,9.026,0,0,1,8.958.786,1,1,0,0,1,.424.909A9.026,9.026,0,0,1,40.386,52.527Z"></path></g></svg>