<svg xmlns="http://www.w3.org/2000/svg" viewBox="0 0 32 32" x="0px" y="0px"><title>Browser_11</title><g data-name="Browser"><path d="M31,0H1A1,1,0,0,0,0,1V31a1,1,0,0,0,1,1H31a1,1,0,0,0,1-1V1A1,1,0,0,0,31,0ZM30,6H14V2H30ZM12,2V6H2V2ZM2,8H4V30H2ZM6,30V8H30V30Z"></path><rect x="3" y="3" width="2" height="2"></rect><rect x="6" y="3" width="2" height="2"></rect><rect x="9" y="3" width="2" height="2"></rect><path d="M13,21.414l3-3,2.293,2.293a1,1,0,0,0,1.414,0l5-5-1.414-1.414L19,18.586l-2.293-2.293a1,1,0,0,0-1.414,0L13,18.586V13H11V24a1,1,0,0,0,1,1H25V23H13Z"></path></g></svg>