<svg xmlns="http://www.w3.org/2000/svg" viewBox="0 0 64 64" x="0px" y="0px"><g><circle cx="15" cy="15" r="3"></circle><circle cx="52" cy="45" r="2"></circle><path d="M48,57h8V52a3,3,0,0,0-3-3H51a3,3,0,0,0-3,3Z"></path><circle cx="39" cy="45" r="2"></circle><path d="M35,57h8V52a3,3,0,0,0-3-3H38a3,3,0,0,0-3,3Z"></path><circle cx="25" cy="45" r="2"></circle><path d="M21,57h8V52a3,3,0,0,0-3-3H24a3,3,0,0,0-3,3Z"></path><circle cx="12" cy="45" r="2"></circle><path d="M8,57h8V52a3,3,0,0,0-3-3H11a3,3,0,0,0-3,3Z"></path><path d="M52,16a4,4,0,0,0,3.858-3H51V8.142A3.992,3.992,0,0,0,52,16Z"></path><path d="M53,8.142V11h2.858A3.991,3.991,0,0,0,53,8.142Z"></path><path d="M28,4V18h7v6H28v6H60V4Zm4,2h2V8H32ZM44,28H42V26h2Zm0-16H32V10H44Zm0-4H36V6h8Zm3,20H45V24h2Zm3,0H48V22h2Zm3,0H51V24h2Zm3,0H54V20h2ZM52,18a6,6,0,1,1,6-6A6,6,0,0,1,52,18Z"></path><path d="M33,20v2H21V32H9V23a3.009,3.009,0,0,1,3-3Z"></path></g></svg>