<svg xmlns="http://www.w3.org/2000/svg" viewBox="0 0 64 64" x="0px" y="0px"><title>Study</title><g><path d="M17.5,24A2.5,2.5,0,0,1,15,21.5H13a4.5,4.5,0,0,0,9,0H20A2.5,2.5,0,0,1,17.5,24Z"></path><path d="M58,40a9.01,9.01,0,0,1-9,9,1,1,0,0,0-1,1V60H26V51h5V49H17a5.006,5.006,0,0,1-5-5V36a1,1,0,0,0-1-1H6.385l6.539-19.748A17.9,17.9,0,0,1,29.392,4H32V2H29.392A19.914,19.914,0,0,0,11.051,14.555l-7,21.131A1,1,0,0,0,5,37h5v7a7.009,7.009,0,0,0,7,7h7V61a1,1,0,0,0,1,1H49a1,1,0,0,0,1-1V50.955A11.015,11.015,0,0,0,60,40V24H58Z"></path><path d="M61,4H59V3a1,1,0,0,0-1-1H52a.984.984,0,0,0-.242.03L48,2.97l-3.758-.94A.984.984,0,0,0,44,2H38a1,1,0,0,0-1,1V4H35a1,1,0,0,0-1,1V20a1,1,0,0,0,1,1h8.877l3.881.97a.991.991,0,0,0,.484,0L52.123,21H61a1,1,0,0,0,1-1V5A1,1,0,0,0,61,4ZM52.123,4H57V16H52a.984.984,0,0,0-.242.03L49,16.719V4.781ZM39,4h4.877L47,4.781V16.719l-2.758-.689A.984.984,0,0,0,44,16H39ZM60,19H52a.984.984,0,0,0-.242.03L48,19.969l-3.758-.939A.984.984,0,0,0,44,19H36V6h1V17a1,1,0,0,0,1,1h5.877l3.881.97a.991.991,0,0,0,.484,0L52.123,18H58a1,1,0,0,0,1-1V6h1Z"></path><rect x="51" y="6" width="5" height="2"></rect><rect x="51" y="9" width="5" height="2"></rect><rect x="51" y="12" width="5" height="2"></rect><rect x="40" y="6" width="5" height="2"></rect><rect x="40" y="9" width="5" height="2"></rect><rect x="40" y="12" width="5" height="2"></rect></g></svg>