<svg xmlns="http://www.w3.org/2000/svg" viewBox="0 0 64 64" x="0px" y="0px"><g data-name="coffee cup-coffee mug-espresso-drink-coffee"><path d="M54.284,24.745a10.182,10.182,0,0,0-7.622-2.251A13.745,13.745,0,0,0,44,23.015V20a1,1,0,0,0-1-1H7a1,1,0,0,0-1,1V47a14.847,14.847,0,0,0,4.7,10.9A4.269,4.269,0,0,1,12,61a1,1,0,0,0,1,1H37a1,1,0,0,0,1-1,4.266,4.266,0,0,1,1.3-3.1,14.877,14.877,0,0,0,4.114-6.761A19.351,19.351,0,0,0,53.2,44.712a19.1,19.1,0,0,0,4.636-10.787A10.677,10.677,0,0,0,54.284,24.745ZM44,29.447c2.541-1.269,4.97-1.331,6.427-.112,2.493,2.1,1.654,7.374-1.832,11.521A14.638,14.638,0,0,1,44,44.563ZM42,47a12.867,12.867,0,0,1-4.075,9.441A6.213,6.213,0,0,0,36.077,60H13.922a6.2,6.2,0,0,0-1.846-3.558A12.865,12.865,0,0,1,8,47V21H42ZM55.836,33.794a17.1,17.1,0,0,1-4.172,9.633,17.831,17.831,0,0,1-7.8,5.505A15.278,15.278,0,0,0,44,47v-.244a16.2,16.2,0,0,0,6.126-4.612C54.454,36.995,55.151,30.7,51.712,27.8c-1.925-1.611-4.733-1.786-7.712-.56V25.112a11.966,11.966,0,0,1,2.837-.626A8.242,8.242,0,0,1,53,26.276,8.731,8.731,0,0,1,55.836,33.794Z"></path><path d="M19,16h2a2.258,2.258,0,0,1,.759-1.681,4.208,4.208,0,0,0,0-5.968,2.245,2.245,0,0,1,0-3.366A4.168,4.168,0,0,0,23,2H21a2.261,2.261,0,0,1-.759,1.683,4.209,4.209,0,0,0,0,5.969,2.244,2.244,0,0,1,0,3.365A4.164,4.164,0,0,0,19,16Z"></path><path d="M27,16h2a2.258,2.258,0,0,1,.759-1.681,4.208,4.208,0,0,0,0-5.968,2.245,2.245,0,0,1,0-3.366A4.168,4.168,0,0,0,31,2H29a2.261,2.261,0,0,1-.759,1.683,4.209,4.209,0,0,0,0,5.969,2.244,2.244,0,0,1,0,3.365A4.164,4.164,0,0,0,27,16Z"></path></g></svg>