<svg xmlns="http://www.w3.org/2000/svg" viewBox="0 0 64 64" x="0px" y="0px"><g><path d="M55,17a5,5,0,0,0-5,5V45a.978.978,0,0,0,.09.41l4,9a1,1,0,0,0,1.82,0l4-9A.978.978,0,0,0,60,45V22A5,5,0,0,0,55,17Zm-3,8h2V44H52Zm3,26.54L54.32,50h1.36ZM56.57,48H53.43l-.89-2h4.92ZM58,44H56V25h2Zm0-21H52V22a3,3,0,0,1,6,0Z"></path><path d="M41,10H35.97A4.939,4.939,0,0,0,33,9H31V7A5,5,0,0,0,21,7V9H19a4.939,4.939,0,0,0-2.97,1H11a7.008,7.008,0,0,0-7,7V55a7.008,7.008,0,0,0,7,7H41a7.008,7.008,0,0,0,7-7V17A7.008,7.008,0,0,0,41,10ZM16,14a3.009,3.009,0,0,1,3-3h3a1,1,0,0,0,1-1V7a3,3,0,0,1,6,0v3a1,1,0,0,0,1,1h3a3.009,3.009,0,0,1,3,3v1H16Zm0,3H36v1H16Zm21,3a1,1,0,0,0,1-1V16h3a1,1,0,0,1,1,1V48H37a3.009,3.009,0,0,0-3,3v5H11a1,1,0,0,1-1-1V17a1,1,0,0,1,1-1h3v3a1,1,0,0,0,1,1Zm5,31.41V55a1,1,0,0,1-1,1H37.41Zm-6,3.18V51a1,1,0,0,1,1-1h3.59ZM46,55a5,5,0,0,1-5,5H11a5,5,0,0,1-5-5V17a5,5,0,0,1,5-5h3.42A4.941,4.941,0,0,0,14,14H11a3.009,3.009,0,0,0-3,3V55a3.009,3.009,0,0,0,3,3H41a3.009,3.009,0,0,0,3-3V17a3.009,3.009,0,0,0-3-3H38a4.941,4.941,0,0,0-.42-2H41a5,5,0,0,1,5,5Z"></path><rect x="25" y="6" width="2" height="2"></rect><polygon points="16 30 18 30 18 28 20 28 20 26 18 26 18 24 16 24 16 26 14 26 14 28 16 28 16 30"></polygon><rect x="24" y="28" width="14" height="2"></rect><rect x="24" y="24" width="14" height="2"></rect><polygon points="14 36 18 36 18 38 14 38 14 40 18 40 18 42 14 42 14 44 18 44 18 46 14 46 14 48 18 48 18 50 20 50 20 48 33 48 33 46 20 46 20 44 38 44 38 42 20 42 20 40 38 40 38 38 20 38 20 36 38 36 38 34 14 34 14 36"></polygon></g></svg>