<svg xmlns="http://www.w3.org/2000/svg" viewBox="0 0 64 64" x="0px" y="0px"><g><path d="M42,44v2H40V44H38v2H36V44H34v2H32V44H31a1,1,0,0,0-1,1v2a1,1,0,0,0,1,1H43a1,1,0,0,0,1-1V45.97A9.713,9.713,0,0,1,42.84,44Z"></path><path d="M59,50H58v2H56V50H54v2H52V50H50v2H48V50H47a1,1,0,0,0-1,1v2a1,1,0,0,0,1,1H59a1,1,0,0,0,1-1V51A1,1,0,0,0,59,50Z"></path><path d="M43,50H42v2H40V50H38v2H36V50H34v2H32V50H31a1,1,0,0,0-1,1v2a1,1,0,0,0,1,1H43a1,1,0,0,0,1-1V51A1,1,0,0,0,43,50Z"></path><path d="M43,56H42v2H40V56H38v2H36V56H34v2H32V56H31a1,1,0,0,0-1,1v2a1,1,0,0,0,1,1H43a1,1,0,0,0,1-1V57A1,1,0,0,0,43,56Z"></path><circle cx="21" cy="40" r="3"></circle><path d="M44,40a8,8,0,1,0,9-7.931V26.91l.99-.09a4,4,0,0,0,3.57-3.21l.39-1.96-2,.18a3.972,3.972,0,0,0-3.56,3.21L52.2,26,52,27l-.2-1-.19-.96a3.972,3.972,0,0,0-3.56-3.21l-2-.18.39,1.96a4,4,0,0,0,3.57,3.21l.99.09v5.159A8.009,8.009,0,0,0,44,40Zm12-2H54a1,1,0,0,0-1-1H51a1,1,0,0,0,0,2h2a3,3,0,0,1,0,6v1H51V45a3,3,0,0,1-3-3h2a1,1,0,0,0,1,1h2a1,1,0,0,0,0-2H51a3,3,0,0,1,0-6V34h2v1A3,3,0,0,1,56,38Z"></path><path d="M8.91,32H4v4.91A5.992,5.992,0,0,0,8.91,32Z"></path><path d="M34,42h4V38.93A8,8,0,0,1,31.07,32H10.93A8,8,0,0,1,4,38.93v2.14A8,8,0,0,1,10.93,48H28.18A3,3,0,0,1,28,47V45a3.009,3.009,0,0,1,3-3ZM21,45a5,5,0,1,1,5-5A5.006,5.006,0,0,1,21,45Z"></path><path d="M28.78,55A2.974,2.974,0,0,1,28,53V51a3,3,0,0,1,.18-1H27V60h1.18A3,3,0,0,1,28,59V57A2.974,2.974,0,0,1,28.78,55Z"></path><rect x="4" y="50" width="11" height="2"></rect><rect x="4" y="58" width="11" height="2"></rect><path d="M38,36.91V32H33.09A5.992,5.992,0,0,0,38,36.91Z"></path><path d="M59,56H58v2H56V56H54v2H52V56H50v2H48V56H47a1,1,0,0,0-1,1v2a1,1,0,0,0,1,1H59a1,1,0,0,0,1-1V57A1,1,0,0,0,59,56Z"></path><rect x="4" y="54" width="11" height="2"></rect><path d="M14,13V30H28V13a1,1,0,0,1,1-1h2.06L21,4.26,10.94,12H13A1,1,0,0,1,14,13Z"></path><path d="M4,43.09V48H8.91A5.992,5.992,0,0,0,4,43.09Z"></path><rect x="17" y="50" width="8" height="10"></rect></g></svg>