<svg xmlns="http://www.w3.org/2000/svg" viewBox="0 0 64 64" x="0px" y="0px"><g><path d="M55.71,56.29l-6-6A1.033,1.033,0,0,0,49,50H19V48a3.009,3.009,0,0,0-3-3H10a1,1,0,0,1,0-2h6a3.009,3.009,0,0,0,3-3V38h7v4H22a1,1,0,0,0-1,1v4a1,1,0,0,0,1,1H42a1,1,0,0,0,1-1V43a1,1,0,0,0-1-1H38V38H52a3.009,3.009,0,0,0,3-3V9a3.009,3.009,0,0,0-3-3H50V8h2a1,1,0,0,1,1,1V30H47.82A3,3,0,0,0,48,29V5a3.009,3.009,0,0,0-3-3H19a3.009,3.009,0,0,0-3,3V29a3,3,0,0,0,.18,1H11V9a1,1,0,0,1,1-1h2V6H12A3.009,3.009,0,0,0,9,9V35a3.009,3.009,0,0,0,3,3h5v2a1,1,0,0,1-1,1H10a3,3,0,0,0,0,6h6a1,1,0,0,1,1,1v2H15a1.033,1.033,0,0,0-.71.29l-6,6A1.033,1.033,0,0,0,8,57v3a2.006,2.006,0,0,0,2,2H54a2.006,2.006,0,0,0,2-2V57A1.033,1.033,0,0,0,55.71,56.29ZM41,44v2H23V44ZM28,42V38h8v4ZM18,5a1,1,0,0,1,1-1H45a1,1,0,0,1,1,1V8H18Zm0,5H46V29a1,1,0,0,1-1,1H19a1,1,0,0,1-1-1ZM12,36a1,1,0,0,1-1-1V32H53v3a1,1,0,0,1-1,1Zm3.41,16H48.59l4,4H11.41ZM54,60H10V58H54Z"></path><rect x="16" y="53" width="2" height="2"></rect><rect x="20" y="53" width="2" height="2"></rect><rect x="42" y="53" width="2" height="2"></rect><rect x="24" y="53" width="16" height="2"></rect><rect x="46" y="53" width="2" height="2"></rect><rect x="47" y="33" width="2" height="2"></rect><rect x="20" y="5" width="2" height="2"></rect><rect x="24" y="5" width="2" height="2"></rect><rect x="28" y="5" width="2" height="2"></rect><path d="M32,12a3,3,0,0,0-3,3c0,1.249,1.615,4.492,2.11,5.457a1,1,0,0,0,1.78,0C33.385,19.492,35,16.249,35,15A3,3,0,0,0,32,12Zm0,5.7A12.007,12.007,0,0,1,31,15a1,1,0,0,1,2,0A12.008,12.008,0,0,1,32,17.7Z"></path><circle cx="32" cy="25" r="2"></circle></g></svg>