<svg xmlns="http://www.w3.org/2000/svg" viewBox="0 0 64 64" x="0px" y="0px"><g><rect x="38" y="25" width="2" height="2"></rect><path d="M49,50H15v6a4,4,0,0,0,4,4H45a4,4,0,0,0,4-4ZM34,58H30a3,3,0,0,1,0-6h4a3,3,0,0,1,0,6Z"></path><path d="M34,54H30a1,1,0,0,0,0,2h4a1,1,0,0,0,0-2Z"></path><path d="M39,33H38a1.006,1.006,0,0,1-.555-.168L34.7,31H29.3l-2.748,1.832A1.006,1.006,0,0,1,26,33H25a6.983,6.983,0,0,1-5.321-2.464l-.447,6.257A2.06,2.06,0,0,0,21.286,39a2.076,2.076,0,0,0,1.758-.98l2.211-3.592A2.98,2.98,0,0,1,27.81,33h8.38a2.981,2.981,0,0,1,2.555,1.428l2.21,3.592A2.077,2.077,0,0,0,42.71,39a2.06,2.06,0,0,0,2.059-2.207l-.447-6.258A6.983,6.983,0,0,1,39,33Z"></path><path d="M25,31h.7l2.748-1.832A1.006,1.006,0,0,1,29,29h6a1.006,1.006,0,0,1,.555.168L38.3,31H39a5,5,0,0,0,0-10H25a5,5,0,0,0,0,10Zm11-6h2V23h2v2h2v2H40v2H38V27H36Zm-5-2h2v2H31Zm-9,2h2V23h2v2h2v2H26v2H24V27H22Z"></path><path d="M49,8a4,4,0,0,0-4-4H19a4,4,0,0,0-4,4v2H49ZM27,8H25V6h2Zm8,0H29V6h6Z"></path><path d="M49,12H15V48H49ZM45.686,39.706a4.064,4.064,0,0,1-6.434-.638l-2.21-3.591A.993.993,0,0,0,36.19,35H27.81a.993.993,0,0,0-.852.477l-2.21,3.591a4.062,4.062,0,0,1-7.511-2.418L18,25.929h0A7.005,7.005,0,0,1,25,19H39a7.006,7.006,0,0,1,7,6.929h0l.766,10.721A4.071,4.071,0,0,1,45.686,39.706Z"></path></g></svg>