<svg xmlns="http://www.w3.org/2000/svg" viewBox="0 0 64 64" x="0px" y="0px"><g><rect x="28" y="31" width="2" height="2"></rect><rect x="34" y="31" width="2" height="2"></rect><rect x="10" y="25" width="2" height="7"></rect><rect x="10" y="38" width="2" height="10"></rect><path d="M52,57a3,3,0,0,1-3,3H15a3,3,0,0,1-3-3V54H10v3a5.006,5.006,0,0,0,5,5H49a5.006,5.006,0,0,0,5-5V54H52Z"></path><rect x="52" y="38" width="2" height="10"></rect><rect x="52" y="25" width="2" height="7"></rect><path d="M50,36h6V34H50V23h6V21H50V15a3,3,0,0,0-3-3H45V10h4a3,3,0,0,1,3,3v6h2V13a5.006,5.006,0,0,0-5-5H45V7a1,1,0,0,0-1-1H34.816A2.966,2.966,0,0,0,35,5a3,3,0,0,0-6,0,2.966,2.966,0,0,0,.184,1H20a1,1,0,0,0-1,1V8H15a5.006,5.006,0,0,0-5,5v6h2V13a3,3,0,0,1,3-3h4v2H17a3,3,0,0,0-3,3v6H8v2h6V34H8v2h6V50H10v2h4v3a3,3,0,0,0,3,3H47a3,3,0,0,0,3-3V52h4V50H50ZM31,5a1,1,0,1,1,1,1A1,1,0,0,1,31,5ZM21,8H43v5a1,1,0,0,1-1,1H22a1,1,0,0,1-1-1ZM16,34V23h1.586l3.707,3.707,1.414-1.414-4-4A1,1,0,0,0,18,21H16V15a1,1,0,0,1,1-1h2.184A3,3,0,0,0,22,16H42a3,3,0,0,0,2.816-2H47a1,1,0,0,1,1,1v6H46a1,1,0,0,0-.707.293l-4,4,1.414,1.414L46.414,23H48V34H44v2h4v8.78a2.989,2.989,0,0,0-1-.6V44a5.006,5.006,0,0,0-5-5h-.7l-1.876-1.251A2.972,2.972,0,0,0,40,36V30a3,3,0,0,0-3-3H33V24.816a3,3,0,1,0-2,0V27H27a3,3,0,0,0-3,3v6a2.972,2.972,0,0,0,.573,1.749L22.7,39H22a5.006,5.006,0,0,0-5,5v.184a2.989,2.989,0,0,0-1,.6V36h4V34Zm10,2V30a1,1,0,0,1,1-1H37a1,1,0,0,1,1,1v6a1,1,0,0,1-1,1H36V35a1,1,0,0,0-1-1H29a1,1,0,0,0-1,1v2H27A1,1,0,0,1,26,36Zm5-14a1,1,0,1,1,1,1A1,1,0,0,1,31,22Zm3,15H30V36h4Zm-7.7,2H37.7L40,40.535V47H37.91a5.993,5.993,0,0,0-11.82,0H24V40.535Zm9.555,8H28.142a3.981,3.981,0,0,1,7.716,0Zm3.524,2-1,2H25.618l-1-2ZM48,55a1,1,0,0,1-1,1H17a1,1,0,0,1-1-1V52h4V50H16V47h1a1,1,0,0,1,2,0h2a3,3,0,0,0-2-2.816V44a3,3,0,0,1,3-3v7a1,1,0,0,0,.105.447l2,4A1,1,0,0,0,25,53H39a1,1,0,0,0,.9-.553l2-4A1,1,0,0,0,42,48V41a3,3,0,0,1,3,3v.184A3,3,0,0,0,43,47h2a1,1,0,0,1,2,0h1v3H44v2h4Z"></path><rect x="58" y="21" width="4" height="2"></rect><rect x="58" y="25" width="4" height="2"></rect><path d="M59,48a3,3,0,1,0,3,3A3,3,0,0,0,59,48Zm0,4a1,1,0,1,1,1-1A1,1,0,0,1,59,52Z"></path><rect x="58" y="34" width="4" height="2"></rect><rect x="58" y="38" width="4" height="2"></rect><rect x="2" y="21" width="4" height="2"></rect><rect x="2" y="25" width="4" height="2"></rect><path d="M5,48a3,3,0,1,0,3,3A3,3,0,0,0,5,48Zm0,4a1,1,0,1,1,1-1A1,1,0,0,1,5,52Z"></path><rect x="2" y="34" width="4" height="2"></rect><rect x="2" y="38" width="4" height="2"></rect></g></svg>