<svg xmlns="http://www.w3.org/2000/svg" viewBox="0 0 64 64" x="0px" y="0px"><g><path d="M57,42.8V31H55V42H9V13a1,1,0,0,1,1-1H36V10H10a3,3,0,0,0-3,3V42.8L2.077,54.615A1,1,0,0,0,2,55v4a3,3,0,0,0,3,3H59a3,3,0,0,0,3-3V55a1,1,0,0,0-.077-.385ZM55.333,44,59.5,54H4.5L8.667,44ZM59,60H5a1,1,0,0,1-1-1V56H60v3A1,1,0,0,1,59,60Z"></path><rect x="10" y="50" width="2" height="2"></rect><rect x="14" y="50" width="2" height="2"></rect><rect x="48" y="50" width="2" height="2"></rect><rect x="52" y="50" width="2" height="2"></rect><rect x="15" y="46" width="2" height="2"></rect><rect x="11" y="46" width="2" height="2"></rect><rect x="19" y="46" width="2" height="2"></rect><rect x="23" y="46" width="2" height="2"></rect><rect x="27" y="46" width="2" height="2"></rect><rect x="31" y="46" width="2" height="2"></rect><rect x="35" y="46" width="2" height="2"></rect><rect x="39" y="46" width="2" height="2"></rect><rect x="43" y="46" width="2" height="2"></rect><rect x="47" y="46" width="2" height="2"></rect><rect x="51" y="46" width="2" height="2"></rect><rect x="18" y="50" width="4" height="2"></rect><rect x="42" y="50" width="4" height="2"></rect><rect x="24" y="50" width="16" height="2"></rect><path d="M45.961,23H44v2h2v2a2,2,0,0,0,2,2h1v8H26v2H50a1,1,0,0,0,1-1V29h1a2,2,0,0,0,2-2V25h2V23H54.037a4.979,4.979,0,0,1,1.5-3.231A8,8,0,0,0,49.864,6a8.09,8.09,0,0,0-7.858,7.7,8.006,8.006,0,0,0,2.386,5.99A5.17,5.17,0,0,1,45.961,23ZM48,27V25h4v2ZM49.9,8A5.993,5.993,0,0,1,54.15,18.324,7.009,7.009,0,0,0,52.01,23H47.99a7.166,7.166,0,0,0-2.2-4.731A5.923,5.923,0,0,1,44,13.778,6.067,6.067,0,0,1,49.9,8Z"></path><path d="M49,16.816V21h2V16.816A3,3,0,0,0,53,14H51a1,1,0,0,1-2,0H47A3,3,0,0,0,49,16.816Z"></path><rect x="49" y="2" width="2" height="2"></rect><rect x="43.5" y="3.474" width="2" height="2" transform="translate(3.725 22.851) rotate(-30.002)"></rect><rect x="39.473" y="7.5" width="2" height="2" transform="translate(12.878 39.304) rotate(-60.005)"></rect><rect x="38" y="13" width="2" height="2"></rect><rect x="39.473" y="18.5" width="2" height="2" transform="translate(-4.328 22.845) rotate(-29.995)"></rect><rect x="58.526" y="18.5" width="2" height="2" transform="translate(12.88 61.306) rotate(-60.005)"></rect><rect x="60" y="13" width="2" height="2"></rect><rect x="58.526" y="7.5" width="2" height="2" transform="translate(3.723 30.897) rotate(-29.995)"></rect><rect x="54.5" y="3.474" width="2" height="2" transform="translate(23.88 50.304) rotate(-60.005)"></rect><rect x="22" y="37" width="2" height="2"></rect><rect x="18" y="37" width="2" height="2"></rect><rect x="31" y="24" width="6" height="2"></rect><rect x="31" y="28" width="6" height="2"></rect><rect x="31" y="32" width="6" height="2"></rect><polygon points="29 32 27 32 27 25 25 25 25 32 23 32 23 19 21 19 21 32 19 32 19 23 17 23 17 32 15 32 15 27 13 27 13 32 11 32 11 34 29 34 29 32"></polygon></g></svg>