<svg xmlns="http://www.w3.org/2000/svg" viewBox="0 0 64 64" x="0px" y="0px"><g data-name="Business Idea"><polygon points="6 31 8 31 8 29 10 29 10 27 8 27 8 25 6 25 6 27 4 27 4 29 6 29 6 31"></polygon><polygon points="19 16 21 16 21 14 23 14 23 12 21 12 21 10 19 10 19 12 17 12 17 14 19 14 19 16"></polygon><polygon points="55 39 53 39 53 41 51 41 51 43 53 43 53 45 55 45 55 43 57 43 57 41 55 41 55 39"></polygon><rect x="32" y="10" width="4" height="2"></rect><rect x="33.5" y="3.379" width="2" height="4.243" transform="translate(6.216 26.006) rotate(-45)"></rect><rect x="32.379" y="15.5" width="4.243" height="2" transform="translate(-1.562 29.228) rotate(-45)"></rect><rect x="58" y="10" width="4" height="2"></rect><rect x="57.379" y="4.5" width="4.243" height="2" transform="translate(13.538 43.684) rotate(-45)"></rect><rect x="58.5" y="14.379" width="2" height="4.243" transform="translate(5.76 46.906) rotate(-45)"></rect><path d="M50.906,22.845a2.967,2.967,0,0,0,1.473-4.652,9,9,0,1,0-10.758,0,2.967,2.967,0,0,0,1.473,4.652A4,4,0,0,0,46,25.858V56a4,4,0,0,1-8,0V33a11,11,0,0,0-22,0v5H5a3,3,0,0,0-3,3V59a3,3,0,0,0,3,3H31a3,3,0,0,0,3-3V41a3,3,0,0,0-3-3H18V33a9,9,0,0,1,18,0V56a6,6,0,0,0,12,0V25.858A4,4,0,0,0,50.906,22.845ZM32,59a1,1,0,0,1-1,1H5a1,1,0,0,1-1-1V47a1,1,0,0,1,1-1H31a1,1,0,0,1,1,1Zm0-14.816A2.966,2.966,0,0,0,31,44H5a2.966,2.966,0,0,0-1,.184V44a1,1,0,0,1,1-1H31a1,1,0,0,1,1,1ZM32,41v.184A2.966,2.966,0,0,0,31,41H5a2.966,2.966,0,0,0-1,.184V41a1,1,0,0,1,1-1H31A1,1,0,0,1,32,41ZM50,21H44a1,1,0,0,1,0-2h6a1,1,0,0,1,0,2ZM40,11a7,7,0,1,1,10.48,6.049A2.925,2.925,0,0,0,50,17H44a2.925,2.925,0,0,0-.48.049A6.946,6.946,0,0,1,40,11Zm7,13a1.993,1.993,0,0,1-1.722-1h3.444A1.993,1.993,0,0,1,47,24Z"></path><path d="M45.832,13.555,47,11.8l1.168,1.752a1,1,0,0,0,1.664,0l2-3-1.664-1.11L49,11.2,47.832,9.445a1.039,1.039,0,0,0-1.664,0L45,11.2,43.832,9.445l-1.664,1.11,2,3A1.039,1.039,0,0,0,45.832,13.555Z"></path><path d="M18,48a5,5,0,1,0,5,5A5.006,5.006,0,0,0,18,48Zm0,8a3,3,0,1,1,3-3A3,3,0,0,1,18,56Z"></path><rect x="25" y="52" width="2" height="2"></rect><rect x="9" y="52" width="2" height="2"></rect><path d="M7,10A3,3,0,1,0,4,7,3,3,0,0,0,7,10ZM7,6A1,1,0,1,1,6,7,1,1,0,0,1,7,6Z"></path><path d="M58,25a3,3,0,1,0,3,3A3,3,0,0,0,58,25Zm0,4a1,1,0,1,1,1-1A1,1,0,0,1,58,29Z"></path></g></svg>