<svg xmlns="http://www.w3.org/2000/svg" viewBox="0 0 64 64" x="0px" y="0px"><g><path d="M34,8H30v4.081c.662-.051,1.328-.081,2-.081s1.339.035,2,.087Z"></path><rect x="28" y="4" width="8" height="2"></rect><path d="M49,36h1.949A18.892,18.892,0,0,0,46.1,24.312l-1.374,1.375-1.414-1.415L44.688,22.9A18.892,18.892,0,0,0,33,18.051V20H31V18.051A18.892,18.892,0,0,0,19.312,22.9l1.374,1.374-1.414,1.415L17.9,24.312A18.892,18.892,0,0,0,13.051,36H15v2H13.051a18.9,18.9,0,0,0,4.371,11.164l1.85-1.851,1.414,1.415-1.9,1.9A18.919,18.919,0,0,0,31,55.949V53h2v2.949a18.919,18.919,0,0,0,12.212-5.323l-1.9-1.9,1.414-1.415,1.85,1.851A18.9,18.9,0,0,0,50.949,38H49Zm-3,2H35.858a3.981,3.981,0,0,1-7.716,0H26V36h2.142a3.981,3.981,0,0,1,7.716,0H46Z"></path><circle cx="32" cy="37" r="2"></circle><path d="M32,14a22.694,22.694,0,0,0-14.095,4.838h0l0,.006A22.026,22.026,0,0,0,13.843,22.9l-.007.006h0A22.694,22.694,0,0,0,9,37,23,23,0,1,0,32,14Zm0,44A21,21,0,1,1,53,37,21.024,21.024,0,0,1,32,58Z"></path><path d="M15.8,17.969l-2.178-2.184-2.834,2.834L12.969,20.8A24.055,24.055,0,0,1,15.8,17.969Z"></path></g></svg>