<svg xmlns="http://www.w3.org/2000/svg" viewBox="0 0 64 64" x="0px" y="0px"><g><path d="M56,20A12,12,0,1,0,44,32,12.013,12.013,0,0,0,56,20ZM37.636,24.95l-1.374,1.374A9.945,9.945,0,0,1,34.051,21H36V19H34.051a9.945,9.945,0,0,1,2.211-5.324l1.374,1.374,1.414-1.414-1.374-1.374A9.942,9.942,0,0,1,43,10.051V12h2V10.051a9.942,9.942,0,0,1,5.324,2.211L48.95,13.636l1.414,1.414,1.374-1.374A9.945,9.945,0,0,1,53.949,19H52v2h1.949a9.945,9.945,0,0,1-2.211,5.324L50.364,24.95,48.95,26.364l1.374,1.374A9.942,9.942,0,0,1,45,29.949V28H43v1.949a9.942,9.942,0,0,1-5.324-2.211l1.374-1.374Z"></path><path d="M44,23a2.993,2.993,0,0,0,1-5.816V14H43v3.184A3,3,0,0,0,41.184,19H39v2h2.184A3,3,0,0,0,44,23Zm0-4a1,1,0,1,1-1,1A1,1,0,0,1,44,19Z"></path><path d="M39.334,42.665A1,1,0,0,0,39,43.41V60H19V51a1,1,0,0,0-1-1H12a3,3,0,0,1-3-3V40a1,1,0,0,0-1-1H4.081l6.7-8.375A1,1,0,0,0,11,30,16.969,16.969,0,0,1,26.11,13.1l-.22-1.988A18.966,18.966,0,0,0,9,29.645L2.519,37.751A2,2,0,0,0,4.081,41H7v6a5.006,5.006,0,0,0,5,5h5v9a1,1,0,0,0,1,1H40a1,1,0,0,0,1-1V43.85A19.059,19.059,0,0,0,43.833,40.5L42.167,39.4A17.068,17.068,0,0,1,39.334,42.665Z"></path><rect x="43" y="2" width="2" height="2"></rect><rect x="38.6" y="2.579" width="2" height="2.001" transform="translate(0.426 10.387) rotate(-15.023)"></rect><rect x="34.5" y="4.278" width="2" height="2" transform="translate(2.118 18.458) rotate(-30.002)"></rect><rect x="30.98" y="6.979" width="2" height="2" transform="translate(3.721 24.945) rotate(-44.99)"></rect><rect x="28.277" y="10.5" width="2" height="2" transform="translate(4.681 31.107) rotate(-60.005)"></rect><rect x="26.579" y="14.6" width="2" height="2" transform="translate(5.373 38.202) rotate(-75)"></rect><rect x="26" y="19" width="2" height="2"></rect><rect x="26.579" y="23.4" width="2" height="2" transform="translate(-5.375 7.969) rotate(-15)"></rect><rect x="28.277" y="27.5" width="2" height="2" transform="translate(-10.327 18.453) rotate(-29.995)"></rect><rect x="30.979" y="31.021" width="2" height="2" transform="translate(-13.276 31.992) rotate(-45)"></rect><rect x="34.5" y="33.722" width="2" height="2" transform="translate(-12.319 48.11) rotate(-60.005)"></rect><rect x="38.6" y="35.421" width="2.001" height="2" transform="translate(-5.841 65.227) rotate(-74.977)"></rect><rect x="43" y="36" width="2" height="2"></rect><rect x="47.4" y="35.42" width="2" height="2.001" transform="translate(-7.786 13.791) rotate(-15.023)"></rect><rect x="51.5" y="33.722" width="2" height="2" transform="translate(-10.328 30.904) rotate(-30.002)"></rect><rect x="55.021" y="31.021" width="2" height="2" transform="translate(-6.237 48.98) rotate(-44.99)"></rect><rect x="57.722" y="27.5" width="2" height="2" transform="translate(4.683 65.11) rotate(-60.005)"></rect><rect x="59.421" y="23.4" width="2" height="2" transform="translate(21.214 76.447) rotate(-75)"></rect><rect x="60" y="19" width="2" height="2"></rect><rect x="59.421" y="14.6" width="2" height="2" transform="translate(-1.979 16.17) rotate(-15)"></rect><rect x="57.722" y="10.5" width="2" height="2" transform="translate(2.116 30.897) rotate(-29.995)"></rect><rect x="55.02" y="6.979" width="2" height="2" transform="translate(10.766 41.95) rotate(-45)"></rect><rect x="51.5" y="4.277" width="2" height="2" transform="translate(21.683 48.108) rotate(-60.005)"></rect><rect x="47.4" y="2.579" width="2.001" height="2" transform="translate(32.394 49.396) rotate(-74.973)"></rect></g></svg>