<svg xmlns="http://www.w3.org/2000/svg" viewBox="0 0 64 64" x="0px" y="0px"><g data-name="Mobile Phone-Cellphone-Vintage-Communication-Technology"><path d="M17,53a3,3,0,0,0,3,3H44a3,3,0,0,0,3-3V38H17Zm28-1H41V50h4ZM41,42h4v2H41ZM19,42h4v2H19Zm0,4h6V43a3,3,0,0,1,3-3h8a3,3,0,0,1,3,3v3h6v2H39v3a3,3,0,0,1-3,3H28a3,3,0,0,1-3-3V48H19Zm0,4h4v2H19Z"></path><path d="M28,52h8a1,1,0,0,0,1-1V43a1,1,0,0,0-1-1H28a1,1,0,0,0-1,1v8A1,1,0,0,0,28,52Zm1-6a2,2,0,0,1,2-2h2a2,2,0,0,1,2,2v2a2,2,0,0,1-2,2H31a2,2,0,0,1-2-2Z"></path><rect x="31" y="46" width="2.001" height="2"></rect><path d="M44,8H20a3,3,0,0,0-3,3v1H47V11A3,3,0,0,0,44,8Z"></path><path d="M53,9a5.006,5.006,0,0,0-5-5H16a5.006,5.006,0,0,0-5,5V55a5.006,5.006,0,0,0,5,5H48a5.006,5.006,0,0,0,5-5ZM49,53a5.006,5.006,0,0,1-5,5H20a5.006,5.006,0,0,1-5-5V11a5.006,5.006,0,0,1,5-5H44a5.006,5.006,0,0,1,5,5Z"></path><path d="M17,36H47V14H17Zm2-17a3,3,0,0,1,3-3h2v2H22a1,1,0,0,0-1,1v2H19Zm0,4h2v2H19Z"></path></g></svg>