<svg xmlns="http://www.w3.org/2000/svg" viewBox="0 0 64 64" x="0px" y="0px"><g data-name="Video Game-Setting-Keyboard-Online-Joystick"><rect x="46" y="16" width="2" height="2"></rect><circle cx="13" cy="23" r="2"></circle><path d="M59,36H5a1,1,0,0,0-1,1V55a1,1,0,0,0,1,1H9V51a3,3,0,0,1,4-2.83V47a3.009,3.009,0,0,1,3-3,2.934,2.934,0,0,1,1.47.39,3,3,0,0,1,5.06,0A2.934,2.934,0,0,1,24,44a3.009,3.009,0,0,1,3,3v2.17A3,3,0,0,1,31,52v4h2V52a3,3,0,0,1,4-2.83V47a3.009,3.009,0,0,1,3-3,2.934,2.934,0,0,1,1.47.39,3,3,0,0,1,5.06,0A2.934,2.934,0,0,1,48,44a3.009,3.009,0,0,1,3,3v1.17A3,3,0,0,1,55,51v5h4a1,1,0,0,0,1-1V37A1,1,0,0,0,59,36ZM11,44H9V42h2Zm0-4H9V38h2Zm4,4H13V42h2Zm0-4H13V38h2Zm4,0H17V38h2Zm4,0H21V38h2Zm4,4H25V42h2Zm0-4H25V38h2Zm4,8H29V46h2Zm0-4H29V42h2Zm0-4H29V38h2Zm4,8H33V46h2Zm0-4H33V42h2Zm0-4H33V38h2Zm4,4H37V42h2Zm0-4H37V38h2Zm4,0H41V38h2Zm4,0H45V38h2Zm4,4H49V42h2Zm0-4H49V38h2Zm4,4H53V42h2Zm0-4H53V38h2Z"></path><path d="M12,50a1,1,0,0,0-1,1v9H29V52a1,1,0,0,0-2,0v4a1,1,0,0,1-2,0V47a1,1,0,0,0-2,0v7a1,1,0,0,1-2,0V46a1,1,0,0,0-2,0v8a1,1,0,0,1-2,0V47a1,1,0,0,0-2,0v7a1,1,0,0,1-2,0V51A1,1,0,0,0,12,50Z"></path><path d="M36,51a1,1,0,0,0-1,1v8H53V51a1,1,0,0,0-2,0v3a1,1,0,0,1-2,0V47a1,1,0,0,0-2,0v7a1,1,0,0,1-2,0V46a1,1,0,0,0-2,0v8a1,1,0,0,1-2,0V47a1,1,0,0,0-2,0v9a1,1,0,0,1-2,0V52A1,1,0,0,0,36,51Z"></path><path d="M18.55,22.42a1.026,1.026,0,0,1-.73-.71,5.118,5.118,0,0,0-.49-1.21.988.988,0,0,1,0-1.01l.77-1.28-.31-.31-1.28.77a1.012,1.012,0,0,1-1.01,0,5.118,5.118,0,0,0-1.21-.49,1.026,1.026,0,0,1-.71-.73L13.22,16h-.44l-.36,1.45a1.026,1.026,0,0,1-.71.73,5.118,5.118,0,0,0-1.21.49.988.988,0,0,1-1.01,0L8.21,17.9l-.31.31.77,1.28a.988.988,0,0,1,0,1.01,5.118,5.118,0,0,0-.49,1.21,1.026,1.026,0,0,1-.73.71L6,22.78v.44l1.45.36a1.026,1.026,0,0,1,.73.71,5.118,5.118,0,0,0,.49,1.21.988.988,0,0,1,0,1.01L7.9,27.79l.31.31,1.28-.77a1.012,1.012,0,0,1,1.01,0,5.118,5.118,0,0,0,1.21.49,1.026,1.026,0,0,1,.71.73L12.78,30h.44l.36-1.45a1.026,1.026,0,0,1,.71-.73,5.118,5.118,0,0,0,1.21-.49,1.012,1.012,0,0,1,1.01,0l1.28.77.31-.31-.77-1.28a.988.988,0,0,1,0-1.01,5.118,5.118,0,0,0,.49-1.21,1.026,1.026,0,0,1,.73-.71L20,23.22v-.44ZM13,27a4,4,0,1,1,4-4A4,4,0,0,1,13,27Z"></path><path d="M47,24H46a.967.967,0,0,1-.55-.17L42.7,22H37.3l-2.75,1.83A.967.967,0,0,1,34,24H33a6.985,6.985,0,0,1-5.32-2.46l-.45,6.25A2.07,2.07,0,0,0,29.29,30a2.074,2.074,0,0,0,1.75-.98l2.21-3.59A2.989,2.989,0,0,1,35.81,24h8.38a2.989,2.989,0,0,1,2.56,1.43l2.21,3.59a2.074,2.074,0,0,0,1.75.98,2.07,2.07,0,0,0,2.06-2.21l-.45-6.25A6.985,6.985,0,0,1,47,24Z"></path><path d="M47,12H33a5,5,0,0,0,0,10h.7l2.75-1.83A.967.967,0,0,1,37,20h6a.967.967,0,0,1,.55.17L46.3,22H47a5,5,0,0,0,0-10ZM36,18H34v2H32V18H30V16h2V14h2v2h2Zm5-2H39V14h2Zm9,2H48v2H46V18H44V16h2V14h2v2h2Z"></path><path d="M51.89,12A6.964,6.964,0,0,1,54,16.93l.76,10.72a4.062,4.062,0,0,1-7.51,2.42l-2.21-3.59a.986.986,0,0,0-.85-.48H35.81a.986.986,0,0,0-.85.48l-2.21,3.59a4.059,4.059,0,0,1-7.51-2.42L26,16.93A6.964,6.964,0,0,1,28.11,12H18v3.65a.986.986,0,0,1,.66.28l1.41,1.41a.986.986,0,0,1,.15,1.22l-.88,1.48c.08.19.16.38.23.57l1.67.42A1,1,0,0,1,22,22v2a1,1,0,0,1-.76.97l-1.67.42c-.07.19-.15.38-.23.57l.88,1.48a.986.986,0,0,1-.15,1.22l-1.41,1.41a.986.986,0,0,1-.66.28V34H59a3,3,0,0,1,1,.18V12ZM59,4H19a1,1,0,0,0-1,1v5H60V5A1,1,0,0,0,59,4ZM22,8H20V6h2Zm4,0H24V6h2Zm4,0H28V6h2Z"></path></g></svg>