<svg xmlns="http://www.w3.org/2000/svg" viewBox="0 0 64 64" x="0px" y="0px"><g data-name="Factory"><path d="M16,12v2h2V12a1,1,0,0,1,1-1h4a3,3,0,0,0,3-3V6H24V8a1,1,0,0,1-1,1H19A3,3,0,0,0,16,12Z"></path><path d="M13,8a1,1,0,0,1,1-1h4a3,3,0,0,0,3-3V2H19V4a1,1,0,0,1-1,1H14a3,3,0,0,0-3,3v2h2Z"></path><path d="M29,21v2h2V21a1,1,0,0,1,1-1h4a3,3,0,0,0,3-3V15H37v2a1,1,0,0,1-1,1H32A3,3,0,0,0,29,21Z"></path><path d="M24,17v2h2V17a1,1,0,0,1,1-1h4a3,3,0,0,0,3-3V11H32v2a1,1,0,0,1-1,1H27A3,3,0,0,0,24,17Z"></path><path d="M61,40H51.721l-1.773-5.316A1,1,0,0,0,49,34H43a1,1,0,0,0-1,1v5H39.721l-1.773-5.316A1,1,0,0,0,37,34H35V26a1,1,0,0,0-1-1H22V17a1,1,0,0,0-1-1H7a1,1,0,0,0-1,1v9.934L2.009,56.868A.976.976,0,0,0,2,57v4a1,1,0,0,0,1,1H61a1,1,0,0,0,1-1V41A1,1,0,0,0,61,40ZM4,57.066,7.991,27.132A.976.976,0,0,0,8,27V18H20v9a.976.976,0,0,0,.009.132L24,57.066V60H4ZM30,35V60H26V57a.976.976,0,0,0-.009-.132L22.009,27H33v7H31A1,1,0,0,0,30,35ZM60,60H32V36h4.279l1.773,5.316A1,1,0,0,0,39,42h4a1,1,0,0,0,1-1V36h4.279l1.773,5.316A1,1,0,0,0,51,42h9Z"></path><path d="M39,44H35a1,1,0,0,0-1,1v6a1,1,0,0,0,1,1h4a1,1,0,0,0,1-1V45A1,1,0,0,0,39,44Zm-1,6H36V46h2Z"></path><path d="M48,44H44a1,1,0,0,0-1,1v6a1,1,0,0,0,1,1h4a1,1,0,0,0,1-1V45A1,1,0,0,0,48,44Zm-1,6H45V46h2Z"></path><path d="M53,52h4a1,1,0,0,0,1-1V45a1,1,0,0,0-1-1H53a1,1,0,0,0-1,1v6A1,1,0,0,0,53,52Zm1-6h2v4H54Z"></path><rect x="37" y="11" width="2" height="2"></rect></g></svg>