<svg xmlns="http://www.w3.org/2000/svg" viewBox="0 0 64 64" x="0px" y="0px"><title>Mango</title><g><path d="M41,14c5.607,0,10-2.636,10-6S46.607,2,41,2a13.041,13.041,0,0,0-8,2.369V3a1,1,0,0,0-2,0V14.05c-7.7.514-13,6.918-13,15.95a28.431,28.431,0,0,0,.848,6.265A41.918,41.918,0,0,1,20,46c0,1.089-.038,2.159-.074,3.2-.142,4.06-.277,7.9,2.068,10.324C23.606,61.188,26.226,62,30,62c8.832,0,15-6.58,15-16a25.727,25.727,0,0,1,1.458-7.713A27.7,27.7,0,0,0,48,30,16.007,16.007,0,0,0,33,14.051v-2.42A13.041,13.041,0,0,0,41,14ZM41,4c4.715,0,8,2.108,8,4s-3.285,4-8,4c-3.89,0-6.8-1.435-7.7-3H40a1,1,0,0,0,0-2H33.3C34.2,5.435,37.11,4,41,4Zm5,26a25.727,25.727,0,0,1-1.458,7.713A27.7,27.7,0,0,0,43,46c0,8.374-5.225,14-13,14-3.2,0-5.352-.612-6.566-1.871-1.755-1.817-1.641-5.083-1.509-8.864C21.962,48.206,22,47.113,22,46a43.616,43.616,0,0,0-1.2-10.154A26.482,26.482,0,0,1,20,30c0-6.969,3.711-14,12-14A14.015,14.015,0,0,1,46,30Z"></path><path d="M22,30a1,1,0,0,0,2,0c0-1.67.386-10,8-10a1,1,0,0,0,0-2C24.619,18,22,24.464,22,30Z"></path><path d="M22.29,32.29a1,1,0,1,0,1.42,0A1.047,1.047,0,0,0,22.29,32.29Z"></path></g></svg>