<svg xmlns="http://www.w3.org/2000/svg" viewBox="0 0 64 64" x="0px" y="0px"><g data-name="Online Shopping-Ecommerce-Online Shop-Shopping Cart-Smartphone"><rect x="19" y="25" width="2" height="2"></rect><path d="M59,8V56a6,6,0,0,1-6,6H25a6,6,0,0,1-6-6V41h2V56a4,4,0,0,0,4,4H53a4,4,0,0,0,4-4V8a4,4,0,0,0-4-4H25a4,4,0,0,0-4,4v7H19V8a6,6,0,0,1,6-6H53A6,6,0,0,1,59,8Z"></path><path d="M37,52a3,3,0,0,0,0,6h4a3,3,0,0,0,0-6Zm5,3a1,1,0,0,1-1,1H37a1,1,0,0,1,0-2h4A1,1,0,0,1,42,55Z"></path><rect x="32" y="6" width="2" height="2"></rect><rect x="36" y="6" width="6" height="2"></rect><path d="M47,37H32V35H47a1.01,1.01,0,0,0,1-.92l1-12a1.055,1.055,0,0,0-.26-.76A1.029,1.029,0,0,0,48,21H31.41l-1.7-1.71A1.033,1.033,0,0,0,29,19H27.82A3.01,3.01,0,0,0,25,17H23a3,3,0,0,0,0,6h2a3.01,3.01,0,0,0,2.82-2h.77L30,22.41V38a1,1,0,0,0,1,1h1.18a3,3,0,1,0,5.64,0h2.36a3,3,0,1,0,5.64,0H47a1,1,0,0,1,1,1h2A3.009,3.009,0,0,0,47,37ZM44,23h2.91l-.16,2H44Zm0,4h2.58l-.17,2H44Zm0,4h2.25l-.17,2H44Zm-4-8h2v2H40Zm0,4h2v2H40Zm0,4h2v2H40Zm-4-8h2v2H36Zm0,4h2v2H36Zm0,4h2v2H36Zm-4-8h2v2H32Zm0,4h2v2H32Zm0,4h2v2H32ZM25,21H23a1,1,0,0,1,0-2h2a1,1,0,0,1,0,2ZM35,41a1,1,0,1,1,1-1A1,1,0,0,1,35,41Zm8,0a1,1,0,1,1,1-1A1,1,0,0,1,43,41Z"></path><rect x="6" y="37" width="2" height="2"></rect><rect x="10" y="37" width="4" height="2"></rect><rect x="16" y="37" width="12" height="2"></rect><rect x="13" y="33" width="10" height="2"></rect><rect x="18" y="29" width="8" height="2"></rect><rect x="14" y="29" width="2" height="2"></rect><rect x="9" y="33" width="2" height="2"></rect></g></svg>