<svg xmlns="http://www.w3.org/2000/svg" viewBox="0 0 64 64" x="0px" y="0px"><g data-name="Online Education-Book-Home-Smartphone-Online"><circle cx="35" cy="8" r="2"></circle><path d="M31,31a2.015,2.015,0,0,0,2-2,2,2,0,1,0-2,2Z"></path><path d="M60,30a3,3,0,0,0-3-3H47a3,3,0,0,0-3,3V50a3,3,0,0,0,3,3H57a3,3,0,0,0,3-3ZM50,29h4v2H50Zm-4,0h2v2H46Zm8,22H50V49h4Zm-3-6V43h2v2Zm3.122-3.121a3,3,0,0,0-4.244,0l-1.414-1.414a5.008,5.008,0,0,1,7.072,0ZM56.95,39.05a7.009,7.009,0,0,0-9.9,0l-1.414-1.414a9.009,9.009,0,0,1,12.728,0Z"></path><path d="M35.41,32l-.97-.97a4.195,4.195,0,0,1-1.41,1.41l1.26,1.27A1.033,1.033,0,0,0,35,34h5V32Z"></path><path d="M52.71,17.29l-10-10A1.033,1.033,0,0,0,42,7H38.87a3.911,3.911,0,0,1,0,2h2.72L51,18.41V23h2V18A1.033,1.033,0,0,0,52.71,17.29Z"></path><path d="M51,58H32v2H52a1,1,0,0,0,1-1V57H51Z"></path><rect x="32" y="54" width="2" height="2"></rect><rect x="36" y="54" width="2" height="2"></rect><rect x="40" y="54" width="2" height="2"></rect><path d="M16.17,22H26V20H19A3.014,3.014,0,0,0,16.17,22Z"></path><path d="M11,20H4v2h9.83A3.014,3.014,0,0,0,11,20Z"></path><path d="M26,4H19a3.009,3.009,0,0,0-3,3V19.03A4.924,4.924,0,0,1,19,18h7ZM24,16H18V14h6Zm0-4H18V10h6Zm0-4H18V6h6Z"></path><path d="M11,4H4V18h7a4.924,4.924,0,0,1,3,1.03V7A3.009,3.009,0,0,0,11,4Zm1,12H6V14h6Zm0-4H6V10h6Zm0-4H6V6h6Z"></path><path d="M27,60V46.71L19,41.1l-8,5.61V60h4V55a1,1,0,0,1,1-1h6a1,1,0,0,1,1,1v5Zm-8-8a4,4,0,1,1,4-4A4,4,0,0,1,19,52Z"></path><circle cx="19" cy="48" r="2"></circle><path d="M32.77,47.95a1.079,1.079,0,0,0,.65-.41,1.018,1.018,0,0,0-.25-1.4L19,36.22,4.83,46.14a1.018,1.018,0,0,0-.25,1.4,1.079,1.079,0,0,0,.65.41,1,1,0,0,0,.75-.17l12.45-8.72a.993.993,0,0,1,1.14,0l12.45,8.72A1,1,0,0,0,32.77,47.95Z"></path><rect x="17" y="56" width="4" height="4"></rect><polygon points="26 36 26 38.68 28 40.08 28 36 26 36"></polygon></g></svg>