<svg xmlns="http://www.w3.org/2000/svg" viewBox="0 0 64 64" x="0px" y="0px"><g><path d="M61,18H56V13a1,1,0,0,0-1-1H49a1,1,0,0,0-1,1v5H16V13a1,1,0,0,0-1-1H9a1,1,0,0,0-1,1v5H3a1,1,0,0,0-1,1v6a1,1,0,0,0,1,1H5V59a3,3,0,0,0,3,3H56a3,3,0,0,0,3-3V26h2a1,1,0,0,0,1-1V19A1,1,0,0,0,61,18ZM50,14h4v4H50ZM10,14h4v4H10ZM57,59a1,1,0,0,1-1,1H8a1,1,0,0,1-1-1V26H57Zm3-35H4V20H60Z"></path><path d="M25.553,41.9l5.3,2.65-1.831,8.238a1,1,0,0,0,1.758.842l8-10a1,1,0,0,0-.334-1.52l-5.156-2.578,2.628-6.133a1,1,0,0,0-1.583-1.142l-9,8a1,1,0,0,0,.217,1.643Zm6.763-5.171-1.235,2.882a1,1,0,0,0,.472,1.289l4.893,2.446-4.535,5.67,1.066-4.794a1,1,0,0,0-.53-1.112l-4.678-2.339Z"></path><path d="M32,57A14,14,0,1,0,18,43,14.015,14.015,0,0,0,32,57Zm0-26A12,12,0,1,1,20,43,12.013,12.013,0,0,1,32,31Z"></path><polygon points="11 34 13 34 13 32 15 32 15 30 13 30 13 28 11 28 11 30 9 30 9 32 11 32 11 34"></polygon><rect x="49" y="30" width="6" height="2"></rect><path d="M13,7H28.142a3.981,3.981,0,0,0,7.716,0H51v3h2V6a1,1,0,0,0-1-1H35.858a3.981,3.981,0,0,0-7.716,0H12a1,1,0,0,0-1,1v4h2ZM32,4a2,2,0,1,1-2,2A2,2,0,0,1,32,4Z"></path></g></svg>