<svg xmlns="http://www.w3.org/2000/svg" viewBox="0 0 64 64" x="0px" y="0px"><title>Towel_1</title><g data-name="Towel"><path d="M59,26h-.184A2.966,2.966,0,0,0,59,25V23a2.981,2.981,0,0,0-.78-2A2.981,2.981,0,0,0,59,19V17a3,3,0,0,0-2.233-2.888A6.99,6.99,0,0,0,52,2H8A3,3,0,0,0,5,5V7a2.981,2.981,0,0,0,.78,2A2.981,2.981,0,0,0,5,11v2a3,3,0,0,0,2.233,2.888A6.973,6.973,0,0,0,7.11,26H5a3,3,0,0,0-3,3v2a3,3,0,0,0,2.138,2.859L9.016,61.176A1,1,0,0,0,10,62H54a1,1,0,0,0,.984-.824l4.878-27.317A3,3,0,0,0,62,31V29A3,3,0,0,0,59,26ZM8,14a1,1,0,0,1-1-1V11a1,1,0,0,1,1-1H50V8H8A1,1,0,0,1,7,7V5A1,1,0,0,1,8,4H52a5,5,0,0,1,0,10ZM7,21a5.006,5.006,0,0,1,5-5H56a1,1,0,0,1,1,1v2a1,1,0,0,1-1,1H14v2H56a1,1,0,0,1,1,1v2a1,1,0,0,1-1,1H12A5.006,5.006,0,0,1,7,21ZM53.163,60H10.837L6.194,34H57.806ZM60,31a1,1,0,0,1-1,1H5a1,1,0,0,1-1-1V29a1,1,0,0,1,1-1H59a1,1,0,0,1,1,1Z"></path><rect x="31" y="38" width="2" height="18"></rect><rect x="39" y="38" width="2" height="18"></rect><rect x="47" y="38" width="2" height="18"></rect><rect x="23" y="38" width="2" height="18"></rect><rect x="15" y="38" width="2" height="18"></rect></g></svg>