<svg xmlns="http://www.w3.org/2000/svg" viewBox="0 0 64 64" x="0px" y="0px"><g data-name="Control Panel"><path d="M59,2H5A3,3,0,0,0,2,5V59a3,3,0,0,0,3,3H59a3,3,0,0,0,3-3V5A3,3,0,0,0,59,2Zm1,57a1,1,0,0,1-1,1H5a1,1,0,0,1-1-1V5A1,1,0,0,1,5,4H59a1,1,0,0,1,1,1Z"></path><path d="M32,21a8,8,0,1,0,8,8A8.009,8.009,0,0,0,32,21Zm0,14a6.006,6.006,0,0,1-5.91-5H28V28H26.09a5.964,5.964,0,0,1,1.025-2.471l1.349,1.35,1.414-1.414-1.349-1.35A5.964,5.964,0,0,1,31,23.09V25h2V23.09a5.964,5.964,0,0,1,2.471,1.025l-1.349,1.35,1.414,1.414,1.349-1.35A5.964,5.964,0,0,1,37.91,28H36v2h1.91A6.006,6.006,0,0,1,32,35Z"></path><rect x="31" y="28" width="2" height="5"></rect><path d="M50,21a8,8,0,1,0,8,8A8.009,8.009,0,0,0,50,21Zm0,14a6.006,6.006,0,0,1-5.91-5H46V28H44.09a5.964,5.964,0,0,1,1.025-2.471l1.349,1.35,1.414-1.414-1.349-1.35A5.964,5.964,0,0,1,49,23.09V25h2V23.09a5.964,5.964,0,0,1,2.471,1.025l-1.349,1.35,1.414,1.414,1.349-1.35A5.964,5.964,0,0,1,55.91,28H54v2h1.91A6.006,6.006,0,0,1,50,35Z"></path><rect x="49" y="28" width="2" height="5"></rect><path d="M22,29a8,8,0,1,0-8,8A8.009,8.009,0,0,0,22,29ZM8.09,30H10V28H8.09a5.964,5.964,0,0,1,1.025-2.471l1.349,1.35,1.414-1.414-1.349-1.35A5.964,5.964,0,0,1,13,23.09V25h2V23.09a5.964,5.964,0,0,1,2.471,1.025l-1.349,1.35,1.414,1.414,1.349-1.35A5.964,5.964,0,0,1,19.91,28H18v2h1.91A5.993,5.993,0,0,1,8.09,30Z"></path><rect x="13" y="28" width="2" height="5"></rect><path d="M7,18H21a1,1,0,0,0,1-1V9a1,1,0,0,0-1-1H7A1,1,0,0,0,6,9v8A1,1,0,0,0,7,18Zm1-8H20v6H8Z"></path><path d="M39,8H25a1,1,0,0,0-1,1v8a1,1,0,0,0,1,1H39a1,1,0,0,0,1-1V9A1,1,0,0,0,39,8Zm-1,8H26V10H38Z"></path><path d="M57,8H43a1,1,0,0,0-1,1v8a1,1,0,0,0,1,1H57a1,1,0,0,0,1-1V9A1,1,0,0,0,57,8Zm-1,8H44V10H56Z"></path><path d="M23,38a4,4,0,0,0-3.87,5.01L18,43.637V40a1,1,0,0,0-1-1H11a1,1,0,0,0-1,1V55a1,1,0,0,0,1,1h6a1,1,0,0,0,1-1V45.924l2.105-1.168A4,4,0,1,0,23,38ZM16,54H12V41h4v3.747l-2.485,1.379.97,1.748L16,47.034Zm7-10a2,2,0,1,1,2-2A2,2,0,0,1,23,44Z"></path><path d="M34,42H30a1,1,0,0,0-1,1v4a1,1,0,0,0,1,1h4a1,1,0,0,0,1-1V43A1,1,0,0,0,34,42Zm-1,4H31V44h2Z"></path><path d="M34,50H30a1,1,0,0,0-1,1v4a1,1,0,0,0,1,1h4a1,1,0,0,0,1-1V51A1,1,0,0,0,34,50Zm-1,4H31V52h2Z"></path><path d="M52,42H48a1,1,0,0,0-1,1v4a1,1,0,0,0,1,1h4a1,1,0,0,0,1-1V43A1,1,0,0,0,52,42Zm-1,4H49V44h2Z"></path><path d="M52,50H48a1,1,0,0,0-1,1v4a1,1,0,0,0,1,1h4a1,1,0,0,0,1-1V51A1,1,0,0,0,52,50Zm-1,4H49V52h2Z"></path></g></svg>