<svg xmlns="http://www.w3.org/2000/svg" viewBox="0 0 64 64" x="0px" y="0px"><g data-name="Bonus-Award-head-human mind-money"><path d="M27,24a8,8,0,1,0,8-8A8.009,8.009,0,0,0,27,24Zm9,1H34a3,3,0,0,1,0-6V18h2v1a3,3,0,0,1,3,3H37a1,1,0,0,0-1-1H34a1,1,0,0,0,0,2h2a3,3,0,0,1,0,6v1H34V29a3,3,0,0,1-3-3h2a1,1,0,0,0,1,1h2a1,1,0,0,0,0-2Z"></path><path d="M44.949,23h2a11.941,11.941,0,0,0-2.794-6.741l-1.417,1.417A9.945,9.945,0,0,1,44.949,23Z"></path><path d="M42.741,14.845A11.941,11.941,0,0,0,36,12.051v2a9.945,9.945,0,0,1,5.324,2.211Z"></path><path d="M42.738,30.324l1.417,1.417A11.941,11.941,0,0,0,46.949,25h-2A9.945,9.945,0,0,1,42.738,30.324Z"></path><path d="M27.259,33.155A11.941,11.941,0,0,0,34,35.949v-2a9.945,9.945,0,0,1-5.324-2.211Z"></path><path d="M36,33.949v2a11.941,11.941,0,0,0,6.741-2.794l-1.417-1.417A9.945,9.945,0,0,1,36,33.949Z"></path><path d="M46.92,60V41.87a1,1,0,0,1,.333-.745A23,23,0,0,0,54.92,24a20,20,0,0,0-40,0,1,1,0,0,1-.219.625L8,33l3.919,0a1,1,0,0,1,1,1V45a3,3,0,0,0,3,3h6a1,1,0,0,1,1,1V60ZM21,24A14,14,0,1,1,35,38,14.015,14.015,0,0,1,21,24Z"></path><path d="M27.262,30.324A9.945,9.945,0,0,1,25.051,25h-2a11.941,11.941,0,0,0,2.794,6.741Z"></path><path d="M27.262,17.676l-1.417-1.417A11.941,11.941,0,0,0,23.051,23h2A9.945,9.945,0,0,1,27.262,17.676Z"></path><path d="M34,14.051v-2a11.941,11.941,0,0,0-6.741,2.794l1.417,1.417A9.945,9.945,0,0,1,34,14.051Z"></path></g></svg>