<svg xmlns="http://www.w3.org/2000/svg" viewBox="0 0 64 64" x="0px" y="0px"><g data-name="Cactus"><circle cx="13" cy="8" r="1"></circle><path d="M12.006,4.013a5.046,5.046,0,0,0-3.67,1.325C5.6,8.084,7.251,14.366,11.946,19.052a17.858,17.858,0,0,0,6.535,4.28c.048-.17.111-.33.162-.5.07-.226.141-.449.218-.671.122-.349.256-.689.395-1.025.084-.2.165-.409.256-.607.165-.361.345-.709.53-1.053.085-.156.161-.318.249-.471.283-.489.582-.961.9-1.41.018-.025.038-.046.056-.07.306-.422.631-.824.971-1.208.118-.133.245-.254.367-.382.25-.263.5-.522.769-.764.152-.138.31-.266.467-.4.253-.211.509-.416.775-.607.172-.125.347-.244.525-.361.122-.08.236-.171.36-.247a19.121,19.121,0,0,0-3.432-4.614C18.905,5.794,15.038,4.013,12.006,4.013ZM10,8a3,3,0,1,1,3,3A3,3,0,0,1,10,8Zm7,11a3,3,0,1,1,3-3A3,3,0,0,1,17,19Z"></path><circle cx="39" cy="30" r="1"></circle><path d="M47,40H17V55a5.006,5.006,0,0,0,5,5H42a5.006,5.006,0,0,0,5-5ZM40,57H38V55h2Zm4,0H42V55h2Zm0-4H42V51h2Z"></path><circle cx="17" cy="16" r="1"></circle><ellipse cx="34" cy="21" rx="1" ry="2"></ellipse><path d="M54.2,14.8c-.811-.817-2.2-1.017-3.909-.566a12.981,12.981,0,0,0-5.619,3.446,15.926,15.926,0,0,0-1.232,1.387,19.307,19.307,0,0,1,2.515,8.608l0,.024a13.3,13.3,0,0,0,5.361-3.374A12.969,12.969,0,0,0,54.768,18.7C55.219,17,55.019,15.609,54.2,14.8ZM51,22a3,3,0,1,1,3-3A3,3,0,0,1,51,22Z"></path><path d="M20.193,24.716a.955.955,0,0,1-.018.107,18.3,18.3,0,0,0-.445,4.067A17.777,17.777,0,0,0,22.173,38H41.558A17.786,17.786,0,0,0,44,28.912a17.186,17.186,0,0,0-2.648-9.3.981.981,0,0,1-.134-.353c-2.313-3.512-5.71-5.529-9.357-5.529a9.953,9.953,0,0,0-4.6,1.139,1.021,1.021,0,0,1-.122.053A14.669,14.669,0,0,0,20.193,24.716ZM42,30a3,3,0,1,1-3-3A3,3,0,0,1,42,30ZM34,17c1.683,0,3,1.757,3,4s-1.317,4-3,4-3-1.757-3-4S32.317,17,34,17ZM29,32a3,3,0,1,1-3-3A3,3,0,0,1,29,32Z"></path><circle cx="51" cy="19" r="1"></circle><circle cx="26" cy="32" r="1"></circle></g></svg>