<svg xmlns="http://www.w3.org/2000/svg" viewBox="0 0 64 64" x="0px" y="0px"><g data-name="Avatar-Man-Boy-Profile-Glasses-Bow Tie"><polygon points="39 34.44 33 36.69 33 37.31 39 39.56 39 34.44"></polygon><path d="M34,18a3.009,3.009,0,0,0,3,3h2a3.009,3.009,0,0,0,3-3V15H34Zm3-2a2,2,0,1,1-2,2A2,2,0,0,1,37,16Z"></path><polygon points="23 60 23 37.61 21 38.24 21 60 23 60"></polygon><path d="M37,23a5,5,0,0,1-5-5,5,5,0,0,1-5,5H25a4.9,4.9,0,0,1-1.84-.36,8.986,8.986,0,0,0,15.2,4.72,8.907,8.907,0,0,0,2.49-4.72A5,5,0,0,1,39,23Zm-5,4a5.018,5.018,0,0,1-4.331-2.5l1.732-1a3,3,0,0,0,5.2,0l1.73,1A5.017,5.017,0,0,1,32,27Z"></path><path d="M23,10.18A3,3,0,0,1,24,10h8a5,5,0,0,0,5-5V4H28a5,5,0,0,0-5,5Z"></path><path d="M44,16.28V18a4.942,4.942,0,0,1-.38,1.89,1.9,1.9,0,0,0,.79-.48A1.979,1.979,0,0,0,44,16.28Z"></path><path d="M35,33.81V31.58A11.09,11.09,0,0,1,32,32a10.665,10.665,0,0,1-3-.43v2.24l3,1.12Z"></path><polygon points="25 39.56 31 37.31 31 36.69 25 34.44 25 39.56"></polygon><path d="M39,41.69l-7-2.62-7,2.62V60H39ZM33,51H31V49h2Zm0-4H31V45h2Zm0-4H31V41h2Z"></path><polygon points="41 60 43 60 43 38.24 41 37.61 41 60"></polygon><polygon points="13 60 19 60 19 50.78 13 49.28 13 60"></polygon><path d="M36.89,10H40a3,3,0,0,1,1,.18V7H38.71A7.065,7.065,0,0,1,36.89,10Z"></path><polygon points="51 49.28 45 50.78 45 60 51 60 51 49.28"></polygon><path d="M13,47.22l6,1.5V38.86l-1.09.34A6.964,6.964,0,0,0,13,45.88Z"></path><path d="M51,45.88a6.964,6.964,0,0,0-4.91-6.68L45,38.86v9.86l6-1.5Z"></path><path d="M41,13a1,1,0,0,0-1-1H24a1,1,0,0,0-1,1Z"></path><path d="M19,18a1.983,1.983,0,0,0,.59,1.41,1.9,1.9,0,0,0,.79.48A4.942,4.942,0,0,1,20,18V16.28A1.988,1.988,0,0,0,19,18Z"></path><path d="M22,18a3.009,3.009,0,0,0,3,3h2a3.009,3.009,0,0,0,3-3V15H22Zm5-2a2,2,0,1,1-2,2A2,2,0,0,1,27,16Z"></path></g></svg>