<svg xmlns="http://www.w3.org/2000/svg" viewBox="0 0 64 64" x="0px" y="0px"><g><rect x="20" y="29" width="2" height="2"></rect><rect x="25" y="32" width="2" height="2"></rect><rect x="26" y="27" width="2" height="2"></rect><rect x="36" y="32" width="2" height="2"></rect><rect x="40" y="31" width="2" height="2"></rect><rect x="38" y="23" width="2" height="2"></rect><rect x="23" y="21" width="2" height="2"></rect><path d="M39,5h4a2,2,0,0,0,2-2V2H43V3H39a2,2,0,0,0-2,2V6h2Z"></path><rect x="26" y="4" width="2" height="2"></rect><rect x="22" y="3" width="2" height="2"></rect><path d="M57,44a1,1,0,0,1,0-2,3,3,0,0,0,0-6H48.579a2.969,2.969,0,0,0-.132-2.342L42,20.764V13.816A2.993,2.993,0,0,0,41,8H35a2.993,2.993,0,0,0-1,5.816v6.948l-.779,1.558A10.017,10.017,0,0,0,29,18.841V13.816A2.993,2.993,0,0,0,28,8H22a2.993,2.993,0,0,0-1,5.816v5.025a10.059,10.059,0,0,0-5.4,5.774A9.75,9.75,0,0,0,15,28a9.98,9.98,0,0,0,4.026,8H15a6.991,6.991,0,0,0-4.83,12.054A7,7,0,0,0,11,62H53a3,3,0,0,0,0-6,1,1,0,0,1,0-2,3,3,0,0,0,3-3,2.966,2.966,0,0,0-.184-1H57a3,3,0,0,0,0-6Zm-2.816,0H15a1,1,0,0,1,0-2H54.184a2.809,2.809,0,0,0,0,2Zm-7.57-8.474a.984.984,0,0,1-.85.474H30.236a1,1,0,0,1-.894-1.447L32.118,29H43.882l2.776,5.553A.981.981,0,0,1,46.614,35.526ZM42.882,27H33.118L35.9,21.447A1,1,0,0,0,36,21V14h4v7a1,1,0,0,0,.1.447ZM35,10h6a1,1,0,0,1,0,2H35a1,1,0,0,1,0-2ZM22,10h6a1,1,0,0,1,0,2H22a1,1,0,0,1,0-2Zm.334,10.462A1,1,0,0,0,23,19.52V14h4v5.52a1,1,0,0,0,.666.942,8.012,8.012,0,0,1,4.356,3.722c-.114-.04-.228-.078-.343-.12a10.353,10.353,0,0,0-4.019-.724,10.309,10.309,0,0,0-4,.719,8.33,8.33,0,0,1-3.332.6,8.374,8.374,0,0,1-2.435-.3A8.066,8.066,0,0,1,22.334,20.462ZM17,28a7.763,7.763,0,0,1,.208-1.76,10.333,10.333,0,0,0,3.122.42,10.341,10.341,0,0,0,4.01-.72,8.281,8.281,0,0,1,3.32-.6A8.3,8.3,0,0,1,31,25.945c.112.04.234.081.35.121l-3.8,7.592a2.962,2.962,0,0,0-.228,1.989A7.882,7.882,0,0,1,25,36,8.009,8.009,0,0,1,17,28ZM50.184,56H11a1,1,0,0,1,0-2H50.184a2.809,2.809,0,0,0,0,2ZM54,51a1,1,0,0,1-1,1H11a3,3,0,0,0,0,6H53a1,1,0,0,1,0,2H11a5,5,0,0,1,0-10H53A1,1,0,0,1,54,51Zm3-3H15a5,5,0,0,1,0-10H57a1,1,0,0,1,0,2H15a3,3,0,0,0,0,6H57a1,1,0,0,1,0,2Z"></path></g></svg>