<svg xmlns="http://www.w3.org/2000/svg" viewBox="0 0 64 64" x="0px" y="0px"><g><rect x="4" y="54" width="12" height="6"></rect><circle cx="37" cy="13" r="2"></circle><path d="M16.63,34.9V34.9c0-.015,0-.03,0-.045a1.043,1.043,0,0,1,.132-.454l6.87-11.89a2.008,2.008,0,0,0,.266-1,2,2,0,0,0-3.734-1L12.666,33.5l-1.732-1L12,30.653V15.624a2.925,2.925,0,0,0-.781.881L6.206,25.181A8.986,8.986,0,0,0,5,29.68V52H15V51a1,1,0,0,1,.142-.514l1-1.67A13.013,13.013,0,0,0,18,42.12v-.85a12.91,12.91,0,0,0-.668-4.112L16.71,35.3a.986.986,0,0,1-.08-.393V34.9Z"></path><path d="M40.858,12H53.63L60,6.54V5a1,1,0,0,0-1-1H15a1,1,0,0,0-1,1V6.54L20.37,12H33.142a3.981,3.981,0,0,1,7.716,0Z"></path><path d="M60,33V9.174l-5.35,4.585A.994.994,0,0,1,54,14H40.858a3.981,3.981,0,0,1-7.716,0H20a.994.994,0,0,1-.65-.241L14,9.174V27.189l4.434-7.679a4,4,0,0,1,6.933,4L19.305,34H59A1,1,0,0,0,60,33ZM42,25H40V23h2Zm5-2h2a3,3,0,0,1,0,6v2H47V29a3,3,0,0,1-3-3h2a1,1,0,0,0,1,1h2a1,1,0,0,0,0-2H47a3,3,0,0,1,0-6V17h2v2a3,3,0,0,1,3,3H50a1,1,0,0,0-1-1H47a1,1,0,0,0,0,2Zm9,2H54V23h2Z"></path><polygon points="30 50 30 54 44 54 44 50 42 50 42 52 40 52 40 50 38 50 38 52 36 52 36 50 34 50 34 52 32 52 32 50 30 50"></polygon><polygon points="44 56 42 56 42 58 40 58 40 56 38 56 38 58 36 58 36 56 34 56 34 58 32 58 32 56 30 56 30 60 44 60 44 56"></polygon><polygon points="60 56 58 56 58 58 56 58 56 56 54 56 54 58 52 58 52 56 50 56 50 58 48 58 48 56 46 56 46 60 60 60 60 56"></polygon><polygon points="60 50 58 50 58 52 56 52 56 50 54 50 54 52 52 52 52 50 50 50 50 52 48 52 48 50 46 50 46 54 60 54 60 50"></polygon><polygon points="46 44 46 48 60 48 60 44 58 44 58 46 56 46 56 44 54 44 54 46 52 46 52 44 50 44 50 46 48 46 48 44 46 44"></polygon></g></svg>