<svg xmlns="http://www.w3.org/2000/svg" viewBox="0 0 64 64" x="0px" y="0px"><g><path d="M26.774,49.675a.99.99,0,0,0-.748-.165l-.984.173-1.207-6.844a1,1,0,0,0-.218-.468L14.746,31.8a4.018,4.018,0,0,0-3.262-1.422l-1.152-6.533A4.007,4.007,0,0,0,4.917,20.82a4.089,4.089,0,0,0-2.438,4.559L6.273,46.9a1,1,0,0,0,.325.578l4.544,4,.113.639-.985.174a1,1,0,0,0-.812,1.158L10.5,59.355a1,1,0,0,0,.984.827.95.95,0,0,0,.175-.016l15.757-2.778a1,1,0,0,0,.811-1.159L27.185,50.32A1,1,0,0,0,26.774,49.675ZM8.182,46.207,4.448,25.031a2.114,2.114,0,0,1,1.195-2.347,2.006,2.006,0,0,1,2.719,1.508l1.2,6.8a4.251,4.251,0,0,0-.455.314,4.012,4.012,0,0,0-.492,5.635L15.962,45.7l1.532-1.285-7.348-8.757a2.006,2.006,0,0,1,.24-2.813,1.847,1.847,0,0,1,.6-.341.931.931,0,0,0,.1-.038,1.19,1.19,0,0,1,.249-.064,1.984,1.984,0,0,1,1.881.684l8.7,10.364,1.16,6.581-9.848,1.738-.173-.986a1.007,1.007,0,0,0-.324-.577ZM12.3,58.023,11.6,54.085l13.787-2.433.694,3.94Z"></path><path d="M59.083,20.82a4.006,4.006,0,0,0-5.415,3.025l-1.152,6.533A4.016,4.016,0,0,0,49.254,31.8L40.383,42.371a1,1,0,0,0-.218.468l-1.207,6.844-.984-.173a1,1,0,0,0-1.159.81l-1.042,5.909a1,1,0,0,0,.811,1.159l15.757,2.778a.95.95,0,0,0,.175.016,1,1,0,0,0,.984-.827l1.042-5.908a1,1,0,0,0-.812-1.158l-.985-.174.113-.639,4.544-4a1,1,0,0,0,.325-.578l3.794-21.521A4.089,4.089,0,0,0,59.083,20.82ZM51.7,58.023,37.917,55.592l.694-3.94L52.4,54.085Zm7.848-32.992L55.818,46.207l-4.545,4a1.007,1.007,0,0,0-.324.577l-.173.986L40.928,50.03l1.16-6.581,8.7-10.364a1.976,1.976,0,0,1,1.882-.683,1.145,1.145,0,0,1,.248.063.931.931,0,0,0,.1.038,1.823,1.823,0,0,1,.591.333,2.008,2.008,0,0,1,.25,2.821l-7.348,8.757L48.038,45.7l7.349-8.758a4.014,4.014,0,0,0-.5-5.642,4.144,4.144,0,0,0-.445-.306l1.2-6.8a2,2,0,0,1,2.719-1.508A2.114,2.114,0,0,1,59.552,25.031Z"></path><path d="M43,32V18.307l1.9,1.4a2.785,2.785,0,1,0,3.253-4.522L43,11.54V6a1,1,0,0,0-1-1H38a1,1,0,0,0-1,1v1.3L32.577,4.183a1,1,0,0,0-1.154,0l-15.58,11A2.785,2.785,0,1,0,19.1,19.7l1.9-1.4V32a2,2,0,0,0,2,2H41A2,2,0,0,0,43,32ZM39,7h2v3.128L39,8.717ZM17.915,18.089A.786.786,0,1,1,17,16.814L32,6.224,47,16.813a.786.786,0,1,1-.917,1.276l-13.494-9.9a1,1,0,0,0-1.182,0ZM23,16.84l9-6.6,9,6.6V32H33V25a1,1,0,0,0-1-1H26a1,1,0,0,0-1,1v7H23ZM27,32V26h4v6Z"></path><path d="M34,25v4a1,1,0,0,0,1,1h4a1,1,0,0,0,1-1V25a1,1,0,0,0-1-1H35A1,1,0,0,0,34,25Zm2,1h2v2H36Z"></path><path d="M32,22a4,4,0,1,0-4-4A4,4,0,0,0,32,22Zm0-6a2,2,0,1,1-2,2A2,2,0,0,1,32,16Z"></path></g></svg>