<svg xmlns="http://www.w3.org/2000/svg" viewBox="0 0 64 64" x="0px" y="0px"><g data-name="Plane"><path d="M61.447,25.105,56,22.382V19a1,1,0,0,0-1-1H54V17h2V15H50v2h2v1H51a1,1,0,0,0-1,1v.382l-8-4V12A10.014,10.014,0,0,0,32,2,10.011,10.011,0,0,0,22,12v3.382l-8,4V19a1,1,0,0,0-1-1H12V17h2V15H8v2h2v1H9a1,1,0,0,0-1,1v3.382L2.553,25.105A1,1,0,0,0,2,26v4a1,1,0,0,0,1,1H8v2a1,1,0,0,0,1,1h4a1,1,0,0,0,1-1V31h8V42.882l-8.447,4.223A1,1,0,0,0,13,48v3a1,1,0,0,0,1,1h8a10,10,0,0,0,20,0h8a1,1,0,0,0,1-1V48a1,1,0,0,0-.553-.9L42,42.882V31h8v2a1,1,0,0,0,1,1h4a1,1,0,0,0,1-1V31h5a1,1,0,0,0,1-1V26A1,1,0,0,0,61.447,25.105ZM52,20h2v1.382l-2-1ZM10,20h2v.382l-2,1Zm2,12H10V31h2ZM4,29V26.618l18-9V29ZM15,50V48.618L28.236,42H29v8Zm18-9V54H31V38h2ZM32,60a8.009,8.009,0,0,1-8-8h5v3a1,1,0,0,0,1,1h4a1,1,0,0,0,1-1V52h5A8.009,8.009,0,0,1,32,60ZM49,50H35V42h.764L49,48.618ZM36.447,40.1A1,1,0,0,0,36,40H35V37a1,1,0,0,0-1-1H30a1,1,0,0,0-1,1v3H28a1,1,0,0,0-.447.1L24,41.882V12a8.009,8.009,0,0,1,8-8,8.015,8.015,0,0,1,8,8V41.882ZM54,32H52V31h2Zm6-3H42V17.618l18,9Z"></path><path d="M37.555,11.168l-3-2A1.006,1.006,0,0,0,34,9H30a1.006,1.006,0,0,0-.555.168l-3,2A1,1,0,0,0,26,12v2a1,1,0,0,0,1,1H37a1,1,0,0,0,1-1V12A1,1,0,0,0,37.555,11.168ZM36,13H28v-.465L30.3,11H33.7L36,12.535Z"></path><rect x="36" y="17" width="2" height="2"></rect><rect x="36" y="21" width="2" height="2"></rect><rect x="36" y="25" width="2" height="2"></rect><rect x="36" y="29" width="2" height="2"></rect><rect x="36" y="33" width="2" height="2"></rect><rect x="26" y="17" width="2" height="2"></rect><rect x="26" y="21" width="2" height="2"></rect><rect x="26" y="25" width="2" height="2"></rect><rect x="26" y="29" width="2" height="2"></rect><rect x="26" y="33" width="2" height="2"></rect></g></svg>