<svg xmlns="http://www.w3.org/2000/svg" viewBox="0 0 64 64" x="0px" y="0px"><g><path d="M57,4H7A5.006,5.006,0,0,0,2,9V43a5.006,5.006,0,0,0,5,5H23.9l-.8,8H21a2,2,0,0,0-2,2v2a2,2,0,0,0,2,2H43a2,2,0,0,0,2-2V58a2,2,0,0,0-2-2H40.905l-.8-8H57a5.006,5.006,0,0,0,5-5V9A5.006,5.006,0,0,0,57,4ZM7,6H57a3,3,0,0,1,3,3V38H4V9A3,3,0,0,1,7,6ZM43,60H21V58H43Zm-4.1-4H25.105l.8-8H38.1ZM57,46H7a3,3,0,0,1-3-3V40H60v3A3,3,0,0,1,57,46Z"></path><rect x="54" y="42" width="2" height="2"></rect><rect x="31" y="11" width="2" height="6"></rect><rect x="27" y="12.072" width="2" height="6" transform="translate(-3.785 16.019) rotate(-29.999)"></rect><rect x="24.072" y="15" width="2" height="6" transform="translate(-3.052 30.713) rotate(-60.001)"></rect><rect x="21" y="21" width="6" height="2"></rect><rect x="22.072" y="25" width="6" height="2" transform="translate(-9.641 16.019) rotate(-29.999)"></rect><rect x="25" y="27.928" width="6" height="2" transform="translate(-11.052 38.716) rotate(-60.005)"></rect><rect x="31" y="27" width="2" height="6"></rect><rect x="35" y="25.928" width="2" height="6" transform="translate(-9.641 21.875) rotate(-29.999)"></rect><rect x="37.928" y="23" width="2" height="6" transform="translate(-3.052 46.713) rotate(-60.001)"></rect><rect x="37" y="21" width="6" height="2"></rect><rect x="35.928" y="17" width="6" height="2" transform="translate(-3.785 21.875) rotate(-29.999)"></rect><rect x="33" y="14.072" width="6" height="2" transform="translate(4.95 38.716) rotate(-60.005)"></rect></g></svg>