<svg xmlns="http://www.w3.org/2000/svg" viewBox="0 0 64 64" x="0px" y="0px"><g><path d="M51,30H47V10h1a1,1,0,0,0,1-1V3a1,1,0,0,0-1-1H16a1,1,0,0,0-1,1V9a1,1,0,0,0,1,1h1V30H13a1,1,0,0,0-1,1v8a1,1,0,0,0,1,1h1V61a1,1,0,0,0,1,1H49a1,1,0,0,0,1-1V40h1a1,1,0,0,0,1-1V31A1,1,0,0,0,51,30ZM17,4H47V8H17Zm28,6V30H19V10Zm3,50H16V40H48Zm2-22H14V32H50Z"></path><path d="M27,48H37a1,1,0,0,0,1-1V43a1,1,0,0,0-1-1H27a1,1,0,0,0-1,1v4A1,1,0,0,0,27,48Zm1-4h8v2H28Z"></path><path d="M37,12H27a1,1,0,0,0-1,1v4a1,1,0,0,0,1,1H37a1,1,0,0,0,1-1V13A1,1,0,0,0,37,12Zm-1,4H28V14h8Z"></path></g></svg>