<svg xmlns="http://www.w3.org/2000/svg" viewBox="0 0 64 64" x="0px" y="0px"><g data-name="Computer Game-PC-Gaming-Keyboard-Fighting Game"><path d="M8.468,52,5.135,56h39.73l-3.333-4ZM11,55H9V53h2Zm4,0H13V53h2Zm18,0H17V53H33Zm4,0H35V53h2Zm4,0H39V53h2Z"></path><rect x="4" y="58" width="42" height="2"></rect><polygon points="33.84 4.33 30.1 5.27 26.34 9.5 28.53 11.97 32.9 8.08 33.84 4.33"></polygon><polygon points="28.93 21.34 30.34 22.76 34.59 18.51 33.17 17.1 28.93 21.34"></polygon><rect x="34.29" y="21.466" width="2.005" height="3.999" transform="translate(-6.225 31.975) rotate(-45.203)"></rect><path d="M46,35V32H4v3a1,1,0,0,0,1,1H45A1,1,0,0,0,46,35Zm-4,0H40V33h2Z"></path><rect x="16" y="44" width="18" height="2"></rect><rect x="21" y="38" width="8" height="4"></rect><polygon points="21.07 21.34 16.83 17.1 15.41 18.51 19.66 22.76 21.07 21.34"></polygon><polygon points="16.16 4.33 17.1 8.07 28.89 18.55 30.07 17.38 30.38 17.06 19.9 5.27 16.16 4.33"></polygon><path d="M60,31H53.86A4,4,0,0,1,50,34a3.906,3.906,0,0,1-2-.56V35a3,3,0,0,1-.18,1H60Z"></path><circle cx="50" cy="30" r="2"></circle><rect x="40" y="38" width="20" height="8"></rect><rect x="12.708" y="22.463" width="3.999" height="2.005" transform="translate(-12.262 17.177) rotate(-44.797)"></rect><path d="M60,12H48V26.56A3.906,3.906,0,0,1,50,26a4,4,0,0,1,3.86,3H60Zm-6,8H52V16h2Zm4,0H56V16h2Z"></path><path d="M15.23,8.86,15.02,8H5A1,1,0,0,0,4,9V30H46V9a1,1,0,0,0-1-1H34.98l-.21.86a1.04,1.04,0,0,1-.31.51l-4.6,4.09,1.94,2.18.66-.66a1.008,1.008,0,0,1,1.42,0l2.83,2.83a1,1,0,0,1,0,1.41l-.71.71,3.54,3.53a1.052,1.052,0,0,1,.29.71,1.033,1.033,0,0,1-.29.71l-2.83,2.83a1.014,1.014,0,0,1-1.42,0l-3.53-3.54-.71.71a.99.99,0,0,1-.71.29.967.967,0,0,1-.7-.29l-2.83-2.83a1,1,0,0,1,0-1.41l.66-.67L25,17.78l-2.47,2.19.66.67a1,1,0,0,1,0,1.41l-2.83,2.83a.967.967,0,0,1-.7.29.99.99,0,0,1-.71-.29l-.71-.71-3.53,3.54a1.014,1.014,0,0,1-1.42,0l-2.83-2.83a1.033,1.033,0,0,1-.29-.71,1.052,1.052,0,0,1,.29-.71L14,19.93l-.71-.71a1,1,0,0,1,0-1.41l2.83-2.83a1.008,1.008,0,0,1,1.42,0l.66.66,1.94-2.18-4.6-4.1A1.011,1.011,0,0,1,15.23,8.86Z"></path><polygon points="23.5 16.44 21.64 14.79 19.62 17.06 21.11 18.56 23.5 16.44"></polygon><path d="M60,58a2,2,0,0,0-2-2H54a2,2,0,0,0-2,2v2h8Z"></path></g></svg>