<svg xmlns="http://www.w3.org/2000/svg" viewBox="0 0 64 64" x="0px" y="0px"><g data-name="Partnership"><path d="M58.456,26.657a1,1,0,0,0-.293-.707L56,23.787V5a3,3,0,0,0-3-3H15a3,3,0,0,0-3,3V18.373L7.958,22.414a1,1,0,0,0,0,1.414L12,27.87V52H7a1,1,0,0,0-1,1v4a5.006,5.006,0,0,0,5,5H51a5.006,5.006,0,0,0,5-5V29.527l2.163-2.163A1,1,0,0,0,58.456,26.657ZM14,5a1,1,0,0,1,1-1H53a1,1,0,0,1,1,1V21.787l-8.565-8.565a1.029,1.029,0,0,0-1.414,0l-5.657,5.657a1,1,0,0,0,0,1.414l.707.707-1.909,1.909-1.533.306-2.922-2.922A1,1,0,0,0,32,20H28.171l-1.828-1.828h0a1,1,0,0,0,0-1.414L20.686,11.1a1,1,0,0,0-1.414,0L14,16.373ZM44.375,41.859a1,1,0,0,1-1.415,0l-1.414-1.415a1,1,0,0,1,1.414-1.414l1.414,1.414A1,1,0,0,1,44.375,41.859Zm-2.536,2.122a.99.99,0,0,1-.294.707,1.022,1.022,0,0,1-1.413,0l-1.414-1.414a1,1,0,1,1,1.414-1.415l1.414,1.415A.993.993,0,0,1,41.839,43.981Zm-3.121,3.536a1,1,0,0,1-1.415,0L35.889,46.1a1,1,0,0,1,0-1.415,1,1,0,0,1,1.412,0h0L38.717,46.1A1,1,0,0,1,38.718,47.517Zm-4.243-4.243a2.992,2.992,0,0,0-.767,2.884l-.294.3a1,1,0,0,1-1.427-1.4l.013-.01,1.883-1.884.943-.94h0l0,0L33.414,40.8l-.709.709-2.126,2.119-.009.011a1,1,0,0,1-1.4-1.425L32,39.385l-1.414-1.414L27.757,40.8a1.022,1.022,0,0,1-1.414,0,1,1,0,0,1,0-1.413l2.828-2.829-1.414-1.414L24.929,37.97a1,1,0,1,1-1.414-1.414l6.665-6.672c.018,0,.034,0,.052,0a4.968,4.968,0,0,0,2.758-.827L36.6,32.667a3,3,0,0,0,4.243-4.242l-3.51-3.51h0l8.815,8.815-.294.294a2.966,2.966,0,0,0-3.754,2.73,2.957,2.957,0,0,0-2.83,2.829,2.955,2.955,0,0,0-2.83,2.855A2.967,2.967,0,0,0,34.475,43.274ZM17.858,29.485l-1.415-1.414,8.486-8.485L26.343,21ZM28.171,22h3.415l7.839,7.839a1,1,0,1,1-1.415,1.414L33.768,27.01a1.029,1.029,0,0,0-1.414,0,3.07,3.07,0,0,1-4.243,0L26.7,28.424a4.961,4.961,0,0,0,1.235.881l-5.125,5.13L19.272,30.9ZM45.789,39.031l-1.414-1.414a1,1,0,0,1,0-1.414,1,1,0,0,1,1.414,0L47.2,37.617a1,1,0,0,1,0,1.414A1.022,1.022,0,0,1,45.789,39.031Zm1.768-6.718-8.485-8.485,1.413-1.414L48.971,30.9ZM19.979,13.222l4.243,4.242-9.9,9.9L10.08,23.121ZM11,60a3,3,0,0,1-3-3V54H46v3a4.987,4.987,0,0,0,1,3Zm43-3a3,3,0,1,1-6,0V53a1,1,0,0,0-1-1H14V29.714a.987.987,0,0,0,.322.064,1,1,0,0,0,.707-.293h0l2.122,2.121,4.373,4.373a2.972,2.972,0,0,0,2.541,4.268,2.959,2.959,0,0,0,2.83,2.83A2.952,2.952,0,0,0,29.724,45.9a2.994,2.994,0,0,0,5.1,1.964l1.063,1.063a2.987,2.987,0,0,0,5.1-1.965,2.957,2.957,0,0,0,2.83-2.83,2.952,2.952,0,0,0,2.827-2.827A2.991,2.991,0,0,0,48.617,36.2l-1.058-1.058.708-.708s.007-.012.012-.017l2.106-2.107.707.708a1,1,0,0,0,1.414,0L54,31.526ZM51.8,30.9,40.485,19.586l4.243-4.243L56.042,26.657Z"></path><rect x="23" y="8" width="4" height="2"></rect><rect x="29" y="8" width="20" height="2"></rect><rect x="26" y="12" width="8" height="2"></rect><rect x="36" y="12" width="4" height="2"></rect><rect x="46" y="46" width="4" height="2"></rect><rect x="18" y="46" width="8" height="2"></rect><rect x="18" y="42" width="4" height="2"></rect></g></svg>