<svg xmlns="http://www.w3.org/2000/svg" viewBox="0 0 64 64" x="0px" y="0px"><g data-name="Pharmacist"><path d="M21.8,13.42a3.346,3.346,0,0,0,1.914-.563,1.551,1.551,0,0,1,1.769,0,3.541,3.541,0,0,0,3.83,0,1.554,1.554,0,0,1,1.774,0A3.362,3.362,0,0,0,33,13.42v-2a1.419,1.419,0,0,1-.887-.278,3.547,3.547,0,0,0-3.832,0,1.419,1.419,0,0,1-.887.278,1.4,1.4,0,0,1-.885-.277,3.533,3.533,0,0,0-3.827,0,1.549,1.549,0,0,1-1.768,0A3.346,3.346,0,0,0,19,10.58v2a1.4,1.4,0,0,1,.884.277A3.345,3.345,0,0,0,21.8,13.42Z"></path><path d="M43,36c-.334,0-.662.025-.99.05A12.9,12.9,0,0,0,40.394,33.2,9,9,0,0,0,37,17.221V13a11,11,0,0,0-22,0v4.221a9,9,0,0,0-3.381,15.986A12.921,12.921,0,0,0,9,41V61a1,1,0,0,0,1,1H43a13,13,0,0,0,0-26ZM10,26a7,7,0,0,1,6.123-6.948A1,1,0,0,0,17,18.06V13a9,9,0,0,1,18,0v5.06a1,1,0,0,0,.877.992,6.991,6.991,0,0,1,3.185,12.633A13.012,13.012,0,0,0,31,28.039V25.188A6,6,0,0,0,34,20V14H32v6a4,4,0,0,1-4,4H24a4,4,0,0,1-4-4V14H18v6a6,6,0,0,0,3,5.188v2.863a12.947,12.947,0,0,0-8.054,3.639A6.993,6.993,0,0,1,10,26Zm14.575,7.819-2.131,1.6-1.32-3.3.949-1.425ZM23,28.65V25.91A6,6,0,0,0,24,26h4a6,6,0,0,0,1-.09v2.74L26,32.4Zm3,6.6,2.763,2.072L26,43.538l-2.763-6.216Zm1.425-1.431,2.5-3.127.949,1.425-1.32,3.3ZM17,60V50a1,1,0,0,0-.4-.8c-.9-.679-1.6-2.815-1.6-4.2s.7-3.522,1.6-4.2A1,1,0,0,0,17,40V38H15v1.553a8.417,8.417,0,0,0,0,10.894V60H11V41a11.013,11.013,0,0,1,9-10.81l-.837,1.255a1,1,0,0,0-.1.927l6.015,14.034a1,1,0,0,0,1.828,0l6.015-14.034a1,1,0,0,0-.1-.927L32,30.19a11.01,11.01,0,0,1,7.977,6.181A12.975,12.975,0,0,0,36.1,60Zm26,0A11,11,0,1,1,54,49,11.013,11.013,0,0,1,43,60Z"></path><path d="M50,46H46V42a1,1,0,0,0-1-1H41a1,1,0,0,0-1,1v4H36a1,1,0,0,0-1,1v4a1,1,0,0,0,1,1h4v4a1,1,0,0,0,1,1h4a1,1,0,0,0,1-1V52h4a1,1,0,0,0,1-1V47A1,1,0,0,0,50,46Zm-1,4H45a1,1,0,0,0-1,1v4H42V51a1,1,0,0,0-1-1H37V48h4a1,1,0,0,0,1-1V43h2v4a1,1,0,0,0,1,1h4Z"></path><circle cx="23" cy="16" r="1"></circle><circle cx="29" cy="16" r="1"></circle></g></svg>