<svg xmlns="http://www.w3.org/2000/svg" viewBox="0 0 64 64" x="0px" y="0px"><g data-name="Television"><path d="M22,57v1H42V57a1,1,0,0,0-1-1H23A1,1,0,0,0,22,57Z"></path><polygon points="26.905 46 26.105 54 37.895 54 37.095 46 26.905 46"></polygon><polygon points="30 29.387 36.764 26 30 22.618 30 29.387"></polygon><path d="M8,12V40H56V12ZM37.658,27.789,30.9,31.171a1.988,1.988,0,0,1-1.947-.088,1.986,1.986,0,0,1-.948-1.7V22.618A2,2,0,0,1,30.9,20.829l6.763,3.382a2,2,0,0,1,0,3.578Z"></path><path d="M60,43V9a1,1,0,0,0-1-1H5A1,1,0,0,0,4,9V43a1,1,0,0,0,1,1H59A1,1,0,0,0,60,43Zm-2-3a2,2,0,0,1-2,2H8a2,2,0,0,1-2-2V12a2,2,0,0,1,2-2H56a2,2,0,0,1,2,2Z"></path></g></svg>