<svg xmlns="http://www.w3.org/2000/svg" viewBox="0 0 64 64" x="0px" y="0px"><title>Create Idea</title><g data-name="Create Idea"><path d="M43,2H29.391a19.913,19.913,0,0,0-18.34,12.555l-7,21.131A1,1,0,0,0,5,37h5v7a7.008,7.008,0,0,0,7,7h7V61a1,1,0,0,0,1,1H49a1,1,0,0,0,1-1V50.955A11.015,11.015,0,0,0,60,40V19A17.019,17.019,0,0,0,43,2ZM58,40a9.011,9.011,0,0,1-9,9,1,1,0,0,0-1,1V60H26V51h5V49H17a5.006,5.006,0,0,1-5-5V36a1,1,0,0,0-1-1H6.385l6.539-19.748A17.9,17.9,0,0,1,29.391,4H43A15.017,15.017,0,0,1,58,19Z"></path><path d="M35,23a1,1,0,0,1,1,1h2a3,3,0,0,0-2-2.816V20H34v1.184A2.993,2.993,0,0,0,35,27a1,1,0,1,1-1,1H32a3,3,0,0,0,2,2.816V32h2V30.816A2.993,2.993,0,0,0,35,25a1,1,0,0,1,0-2Z"></path><path d="M35,17a9,9,0,1,0,9,9A9.011,9.011,0,0,0,35,17Zm0,16a7,7,0,1,1,7-7A7.008,7.008,0,0,1,35,33Z"></path><rect x="39" y="25" width="2" height="2"></rect><rect x="29" y="25" width="2" height="2"></rect><rect x="34" y="6" width="2" height="4"></rect><rect x="21.272" y="11.272" width="2" height="4" transform="translate(-2.861 19.636) rotate(-45)"></rect><rect x="15" y="25" width="4" height="2"></rect><rect x="20.272" y="37.728" width="4" height="2" transform="translate(-20.861 27.092) rotate(-45)"></rect><rect x="45.728" y="12.272" width="4" height="2" transform="translate(4.594 37.636) rotate(-45)"></rect><rect x="51" y="25" width="4" height="2"></rect><rect x="46.728" y="36.728" width="2" height="4" transform="translate(-13.406 45.092) rotate(-45)"></rect><path d="M49,26A14,14,0,1,0,29,38.649V42H27v2h3v3a1,1,0,0,0,1,1h1v2a1,1,0,0,0,1,1h4a1,1,0,0,0,1-1V48h1a1,1,0,0,0,1-1V44h3V42H41V38.649A13.963,13.963,0,0,0,49,26ZM36,49H34V48h2Zm2-3H32V44h6Zm1.615-8.923A1,1,0,0,0,39,38v3H36V37H34v4H31V38a1,1,0,0,0-.615-.923,12,12,0,1,1,9.23,0Z"></path></g></svg>