<svg xmlns="http://www.w3.org/2000/svg" viewBox="0 0 64 64" x="0px" y="0px"><g data-name="Radiation"><path d="M32,60A28,28,0,1,1,60,32c0,.651-.022,1.3-.066,1.931l2,.138C61.977,33.394,62,32.7,62,32A29.969,29.969,0,1,0,38.206,61.357L37.794,59.4A28.213,28.213,0,0,1,32,60Z"></path><path d="M32,37a5,5,0,1,0-5-5A5.006,5.006,0,0,0,32,37Zm0-8a3,3,0,1,1-3,3A3,3,0,0,1,32,29Z"></path><path d="M36.11,41.115l2.024,3.509,1.732-1-2.5-4.334A1,1,0,0,0,36,38.926a8.1,8.1,0,0,1-7.992,0,1,1,0,0,0-1.37.365l-6.5,11.27a1,1,0,0,0,.365,1.364,23.083,23.083,0,0,0,18.818,1.888l-.634-1.9a21.3,21.3,0,0,1-16.306-1.243l5.513-9.559A10.127,10.127,0,0,0,36.11,41.115Z"></path><path d="M40,32a1,1,0,0,0,1,1H54a1,1,0,0,0,1-1A23.089,23.089,0,0,0,43.5,12.074a1,1,0,0,0-1.367.366l-6.5,11.27A1,1,0,0,0,36,25.077,8.008,8.008,0,0,1,40,32Zm3.354-17.672A21.094,21.094,0,0,1,52.976,31H41.949a10.025,10.025,0,0,0-4.108-7.113Z"></path><path d="M28.466,24.469a1,1,0,0,0-.1-.759l-6.5-11.27a1,1,0,0,0-1.367-.366A23.089,23.089,0,0,0,9,32a1,1,0,0,0,1,1H23a1,1,0,0,0,1-1,8.008,8.008,0,0,1,4-6.923A1.006,1.006,0,0,0,28.466,24.469ZM22.051,31H11.024a21.094,21.094,0,0,1,9.622-16.672l5.513,9.559A10.025,10.025,0,0,0,22.051,31Z"></path><path d="M32,57A25,25,0,1,1,57,32c0,.645-.024,1.292-.073,1.923l1.994.154C58.974,33.394,59,32.7,59,32A26.974,26.974,0,1,0,38.229,58.277l-.458-1.946A25.129,25.129,0,0,1,32,57Z"></path><path d="M60,36H42a2,2,0,0,0-2,2v1a2,2,0,0,0,2,2v4H41v2h1v4H41v2h1v4a2,2,0,0,0-2,2v1a2,2,0,0,0,2,2H60a2,2,0,0,0,2-2V59a2,2,0,0,0-2-2V53h1V51H60V47h1V45H60V41a2,2,0,0,0,2-2V38A2,2,0,0,0,60,36Zm0,24H42V59H60Zm-2-3H44V53H58Zm0-6H44V47H58Zm0-6H44V41H58Zm2-6H42V38H60Z"></path></g></svg>