<svg xmlns="http://www.w3.org/2000/svg" viewBox="0 0 64 64" x="0px" y="0px"><g><path d="M19,7H31a1,1,0,0,0,1-1V4H18V6A1,1,0,0,0,19,7Z"></path><path d="M39.955,32.309,38,26.292l-.005-.012-1.95,6.029a1,1,0,0,1-.951.691H28.767l5.119,3.719a1,1,0,0,1,.363,1.118l-1.955,6.017,5.118-3.719a1,1,0,0,1,1.176,0l5.118,3.719-1.955-6.017a1,1,0,0,1,.363-1.118L47.233,33H40.906A1,1,0,0,1,39.955,32.309Z"></path><path d="M42,55.6A20,20,0,1,1,42,16.4V7a3,3,0,0,0-3-3H34V6a3,3,0,0,1-3,3H19a3,3,0,0,1-3-3V4H11A3,3,0,0,0,8,7V57a3,3,0,0,0,3,3H39a3,3,0,0,0,3-3ZM30,11h2v2H30Zm-4,0h2v2H26Zm-4,0h2v2H22Zm1.339,5.972L24.625,18.5,23.093,19.79l-1.286-1.533ZM21.79,21.093,20.5,22.625l-1.532-1.286,1.285-1.532ZM18,11h2v2H18Zm-.285,12.134,1.732,1-1,1.732-1.732-1Zm-1.926,3.718,1.879.684-.684,1.879-1.879-.684Zm-1.251,4,1.97.347-.347,1.97-1.97-.348ZM14,35h2v2H14Zm.191,4.183,1.97-.348.347,1.97-1.97.347Zm.914,4.086,1.879-.684.684,1.879-1.879.684Zm1.61,3.865,1.732-1,1,1.732-1.732,1Zm3.542,5.059-1.285-1.532L20.5,49.375l1.286,1.532Zm3.082,2.835-1.532-1.285,1.286-1.533L24.625,53.5Zm3.527,2.257-1.732-1,1-1.732,1.732,1Z"></path><path d="M56,36A18,18,0,1,0,38,54,18.021,18.021,0,0,0,56,36Zm-7.591-1.382L43.878,37.91l1.73,5.326a1.97,1.97,0,0,1-.725,2.236,1.974,1.974,0,0,1-2.353,0L38,42.18l-4.531,3.292a2,2,0,0,1-3.077-2.236l1.73-5.326-4.531-3.292A2,2,0,0,1,28.767,31h5.6L36.1,25.674a2,2,0,0,1,3.8,0h0L41.633,31h5.6a2,2,0,0,1,1.176,3.618Zm5.8-13.525L55.5,22.625l1.532-1.286-1.285-1.532Zm3.343,4.773,1.732-1-1-1.732-1.732,1Zm1.463,3.549,1.879-.684-.684-1.879-1.879.684Zm.823,3.75,1.97-.348-.347-1.969-1.97.347ZM60,35v2h2V35Zm-.508,5.805,1.97.347.347-1.969-1.97-.348Zm-1.16,3.659,1.879.684.684-1.879-1.879-.684Zm-1.779,3.4,1.732,1,1-1.732-1.732-1ZM54.21,50.907l1.533,1.286,1.285-1.532L55.5,49.375ZM53,10h2V8h2V6H55V4H53V6H51V8h2Zm-1,2H46v2h6Zm5,4H51v2h6ZM52,54H50v2H48v2h2v2h2V58h2V56H52Z"></path></g></svg>