<svg xmlns="http://www.w3.org/2000/svg" viewBox="0 0 64 64" x="0px" y="0px"><g><rect x="50" y="32" width="4" height="4"></rect><rect x="30" y="42" width="4" height="4"></rect><rect x="20" y="22" width="4" height="4"></rect><rect x="20" y="32" width="4" height="4"></rect><path d="M6,60H58V18H6Zm38.828-4.586-1.414,1.414L42,55.414l-1.414,1.414-1.414-1.414L40.586,54l-1.414-1.414,1.414-1.414L42,52.586l1.414-1.414,1.414,1.414L43.414,54ZM48,21a1,1,0,0,1,1-1h6a1,1,0,0,1,1,1v6a1,1,0,0,1-1,1H49a1,1,0,0,1-1-1Zm0,10a1,1,0,0,1,1-1h6a1,1,0,0,1,1,1v6a1,1,0,0,1-1,1H49a1,1,0,0,1-1-1Zm0,10a1,1,0,0,1,1-1h6a1,1,0,0,1,1,1v6a1,1,0,0,1-1,1H49a1,1,0,0,1-1-1Zm0,10a1,1,0,0,1,1-1h6a1,1,0,0,1,1,1v6a1,1,0,0,1-1,1H49a1,1,0,0,1-1-1ZM39.172,22.586l1.414-1.414L42,22.586l1.414-1.414,1.414,1.414L43.414,24l1.414,1.414-1.414,1.414L42,25.414l-1.414,1.414-1.414-1.414L40.586,24ZM38,31a1,1,0,0,1,1-1h6a1,1,0,0,1,1,1v6a1,1,0,0,1-1,1H39a1,1,0,0,1-1-1Zm0,10a1,1,0,0,1,1-1h6a1,1,0,0,1,1,1v6a1,1,0,0,1-1,1H39a1,1,0,0,1-1-1ZM28,21a1,1,0,0,1,1-1h6a1,1,0,0,1,1,1v6a1,1,0,0,1-1,1H29a1,1,0,0,1-1-1Zm6.828,14.414-1.414,1.414L32,35.414l-1.414,1.414-1.414-1.414L30.586,34l-1.414-1.414,1.414-1.414L32,32.586l1.414-1.414,1.414,1.414L33.414,34ZM28,41a1,1,0,0,1,1-1h6a1,1,0,0,1,1,1v6a1,1,0,0,1-1,1H29a1,1,0,0,1-1-1Zm0,10a1,1,0,0,1,1-1h6a1,1,0,0,1,1,1v6a1,1,0,0,1-1,1H29a1,1,0,0,1-1-1ZM18,21a1,1,0,0,1,1-1h6a1,1,0,0,1,1,1v6a1,1,0,0,1-1,1H19a1,1,0,0,1-1-1Zm0,10a1,1,0,0,1,1-1h6a1,1,0,0,1,1,1v6a1,1,0,0,1-1,1H19a1,1,0,0,1-1-1Zm0,10a1,1,0,0,1,1-1h6a1,1,0,0,1,1,1v6a1,1,0,0,1-1,1H19a1,1,0,0,1-1-1Zm0,10a1,1,0,0,1,1-1h6a1,1,0,0,1,1,1v6a1,1,0,0,1-1,1H19a1,1,0,0,1-1-1ZM9.172,22.586l1.414-1.414L12,22.586l1.414-1.414,1.414,1.414L13.414,24l1.414,1.414-1.414,1.414L12,25.414l-1.414,1.414L9.172,25.414,10.586,24ZM8,31a1,1,0,0,1,1-1h6a1,1,0,0,1,1,1v6a1,1,0,0,1-1,1H9a1,1,0,0,1-1-1Zm6.828,14.414-1.414,1.414L12,45.414l-1.414,1.414L9.172,45.414,10.586,44,9.172,42.586l1.414-1.414L12,42.586l1.414-1.414,1.414,1.414L13.414,44ZM8,51a1,1,0,0,1,1-1h6a1,1,0,0,1,1,1v6a1,1,0,0,1-1,1H9a1,1,0,0,1-1-1Z"></path><rect x="30" y="22" width="4" height="4"></rect><rect x="50" y="42" width="4" height="4"></rect><rect x="40" y="42" width="4" height="4"></rect><rect x="50" y="52" width="4" height="4"></rect><rect x="40" y="32" width="4" height="4"></rect><rect x="30" y="52" width="4" height="4"></rect><rect x="10" y="32" width="4" height="4"></rect><path d="M58,14V13a1,1,0,0,0-.7-.952L33.953,4.575a2,2,0,0,0-3.906,0L6.7,12.048A1,1,0,0,0,6,13v1H4v2H60V14ZM8,14v-.271L30.663,6.478a1.973,1.973,0,0,0,2.674,0L56,13.729V14Z"></path><rect x="50" y="22" width="4" height="4"></rect><rect x="10" y="52" width="4" height="4"></rect><rect x="20" y="52" width="4" height="4"></rect><rect x="20" y="42" width="4" height="4"></rect></g></svg>