<svg xmlns="http://www.w3.org/2000/svg" viewBox="0 0 64 64" x="0px" y="0px"><g data-name="Bill"><path d="M55.316,2.051A1,1,0,0,0,54.2,2.4L52,5.333,49.8,2.4a1.036,1.036,0,0,0-1.6,0L46,5.333,43.8,2.4a1.036,1.036,0,0,0-1.6,0L40,5.333,37.8,2.4a1.036,1.036,0,0,0-1.6,0L34,5.333,31.8,2.4a1.036,1.036,0,0,0-1.6,0L28,5.333,25.8,2.4a1.036,1.036,0,0,0-1.6,0L22,5.333,19.8,2.4a1.036,1.036,0,0,0-1.6,0L16,5.333,13.8,2.4A1,1,0,0,0,12,3v8.214a10.98,10.98,0,0,0,0,19.572V61a1,1,0,0,0,1.8.6L16,58.667,18.2,61.6a1.036,1.036,0,0,0,1.6,0L22,58.667,24.2,61.6a1.036,1.036,0,0,0,1.6,0L28,58.667,30.2,61.6a1.036,1.036,0,0,0,1.6,0L34,58.667,36.2,61.6a1.036,1.036,0,0,0,1.6,0L40,58.667,42.2,61.6a1.036,1.036,0,0,0,1.6,0L46,58.667,48.2,61.6a1.036,1.036,0,0,0,1.6,0L52,58.667,54.2,61.6a1,1,0,0,0,.8.4,1.019,1.019,0,0,0,.316-.051A1,1,0,0,0,56,61V3A1,1,0,0,0,55.316,2.051ZM8,21a9,9,0,1,1,9,9A9.01,9.01,0,0,1,8,21ZM54,58l-1.2-1.6a1.036,1.036,0,0,0-1.6,0L49,59.333,46.8,56.4a1.036,1.036,0,0,0-1.6,0L43,59.333,40.8,56.4a1.036,1.036,0,0,0-1.6,0L37,59.333,34.8,56.4a1.036,1.036,0,0,0-1.6,0L31,59.333,28.8,56.4a1.036,1.036,0,0,0-1.6,0L25,59.333,22.8,56.4a1.036,1.036,0,0,0-1.6,0L19,59.333,16.8,56.4a1.036,1.036,0,0,0-1.6,0L14,58V31.574a11,11,0,1,0,0-21.148V6l1.2,1.6a1.036,1.036,0,0,0,1.6,0L19,4.667,21.2,7.6a1.036,1.036,0,0,0,1.6,0L25,4.667,27.2,7.6a1.036,1.036,0,0,0,1.6,0L31,4.667,33.2,7.6a1.036,1.036,0,0,0,1.6,0L37,4.667,39.2,7.6a1.036,1.036,0,0,0,1.6,0L43,4.667,45.2,7.6a1.036,1.036,0,0,0,1.6,0L49,4.667,51.2,7.6a1.036,1.036,0,0,0,1.6,0L54,6Z"></path><rect x="40" y="16" width="10" height="2"></rect><rect x="40" y="20" width="10" height="2"></rect><rect x="30" y="26" width="14" height="2"></rect><rect x="46" y="26" width="4" height="2"></rect><rect x="27" y="30" width="17" height="2"></rect><rect x="46" y="30" width="4" height="2"></rect><rect x="18" y="34" width="26" height="2"></rect><rect x="46" y="34" width="4" height="2"></rect><rect x="18" y="38" width="26" height="2"></rect><rect x="46" y="38" width="4" height="2"></rect><rect x="18" y="42" width="26" height="2"></rect><rect x="46" y="42" width="4" height="2"></rect><rect x="34" y="48" width="10" height="2"></rect><rect x="46" y="48" width="4" height="2"></rect><path d="M18,28V26a3,3,0,0,0,0-6H16a1,1,0,0,1,0-2h2a1,1,0,0,1,1,1h2a3,3,0,0,0-3-3V14H16v2a3,3,0,0,0,0,6h2a1,1,0,0,1,0,2H16a1,1,0,0,1-1-1H13a3,3,0,0,0,3,3v2Z"></path></g></svg>