<svg xmlns="http://www.w3.org/2000/svg" viewBox="0 0 64 64" x="0px" y="0px"><g><rect x="18" y="56" width="8" height="2"></rect><rect x="14" y="56" width="2" height="2"></rect><rect x="20" y="52" width="6" height="2"></rect><rect x="22" y="48" width="4" height="2"></rect><rect x="16" y="52" width="2" height="2"></rect><path d="M44.98,12.549C44.193,10.351,43.061,9,42,9s-2.193,1.351-2.98,3.549A10.214,10.214,0,0,0,44.98,12.549Z"></path><path d="M47,32H34.54a14.828,14.828,0,0,0,1.834.91l-.75,1.853A16.948,16.948,0,0,1,31.059,32H30V48H47V35.231a16.8,16.8,0,0,1-3.841.73l-.135-1.995A14.879,14.879,0,0,0,47,33.134Zm-9,7h2a3,3,0,0,1,0,6v2H38V45a3,3,0,0,1-3-3h2a1,1,0,0,0,1,1h2a1,1,0,0,0,0-2H38a3,3,0,0,1,0-6V33h2v2a3,3,0,0,1,3,3H41a1,1,0,0,0-1-1H38a1,1,0,0,0,0,2Z"></path><path d="M45.938,28.189a10,10,0,0,0,2.046-1.2,9.968,9.968,0,0,0-1.145-.744A12.025,12.025,0,0,1,45.938,28.189Z"></path><path d="M51.949,20H47.976a22.638,22.638,0,0,1-.557,4.293,11.891,11.891,0,0,1,2.059,1.323A9.946,9.946,0,0,0,51.949,20Z"></path><path d="M5,40H28V31a1,1,0,0,1,1-1h.05a16.959,16.959,0,0,1-3.514-6.75l1.936-.5A15.016,15.016,0,0,0,31.818,30h5.4a11.989,11.989,0,0,1-.057-21.973A.978.978,0,0,0,37,8H31.837a14.958,14.958,0,0,0-4.64,8.69l1.224-1.027L29.707,17.2l-3.064,2.571a1,1,0,0,1-1.409-.123l-2.571-3.064L24.2,15.293l1.01,1.2A16.919,16.919,0,0,1,29.062,8H5A1,1,0,0,0,4,9v5H21v2H4V39A1,1,0,0,0,5,40ZM8,12H6V10H8Zm4,0H10V10h2Zm4,0H14V10h2ZM15,29H13a3,3,0,0,1,0-6V21h2v2a3,3,0,0,1,3,3H16a1,1,0,0,0-1-1H13a1,1,0,0,0,0,2h2a3,3,0,0,1,0,6v2H13V33a3,3,0,0,1-3-3h2a1,1,0,0,0,1,1h2a1,1,0,0,0,0-2Z"></path><path d="M57.894,56.01h1.1a1.018,1.018,0,0,0,1.01-1v-5H53a2,2,0,0,1-2-2l.007-3a2,2,0,0,1,1.772-1.972l-1.15-1.023H49V49a1,1,0,0,1-1,1H30v4.99a1,1,0,0,0,.99,1H33.1a5.009,5.009,0,0,1,4.9-4h0a5.007,5.007,0,0,1,4.895,4l5.2,0a5.007,5.007,0,0,1,4.9-4h0a5,5,0,0,1,4.895,4Z"></path><path d="M53,54.006a3,3,0,0,0,0,6h0a3,3,0,0,0,0-6Zm1,4-2,0,0-2,2,0Z"></path><path d="M37.995,53.994a3,3,0,0,0,0,6h0a3,3,0,0,0,0-6Zm1,4-2,0,0-2,2,0Z"></path><path d="M45.977,18a20.557,20.557,0,0,0-.453-3.522,12.156,12.156,0,0,1-7.048,0A20.557,20.557,0,0,0,38.023,18Z"></path><path d="M32.051,18h3.973a22.638,22.638,0,0,1,.557-4.293,11.891,11.891,0,0,1-2.059-1.323A9.946,9.946,0,0,0,32.051,18Z"></path><path d="M47.419,13.707A22.638,22.638,0,0,1,47.976,18h3.973a9.946,9.946,0,0,0-2.471-5.616A11.929,11.929,0,0,1,47.419,13.707Z"></path><polygon points="53.007 45.01 53 48.01 58.372 48.01 55.001 45.01 53.007 45.01"></polygon><path d="M34.522,25.616a11.929,11.929,0,0,1,2.059-1.323A22.638,22.638,0,0,1,36.024,20H32.051A9.946,9.946,0,0,0,34.522,25.616Z"></path><path d="M38.476,23.524a12.223,12.223,0,0,1,7.048,0A20.556,20.556,0,0,0,45.977,20H38.023A20.582,20.582,0,0,0,38.476,23.524Z"></path><path d="M37.161,11.751a12.025,12.025,0,0,1,.9-1.94,10,10,0,0,0-2.046,1.2A9.968,9.968,0,0,0,37.161,11.751Z"></path><path d="M46.839,11.752a10.112,10.112,0,0,0,1.145-.745,10,10,0,0,0-2.046-1.2A11.913,11.913,0,0,1,46.839,11.752Z"></path><path d="M39.02,25.451C39.807,27.649,40.939,29,42,29s2.193-1.351,2.98-3.549A10.214,10.214,0,0,0,39.02,25.451Z"></path><path d="M37.161,26.248a10.112,10.112,0,0,0-1.145.745,10,10,0,0,0,2.046,1.2A11.913,11.913,0,0,1,37.161,26.248Z"></path><path d="M58.48,14.82l-1.94.49A14.977,14.977,0,0,0,31.83,8H29.07a16.976,16.976,0,0,1,29.41,6.82Z"></path><path d="M61.34,21.42l-1.53,1.29L58.79,21.5A17.014,17.014,0,0,1,47,35.24v-2.1a15.017,15.017,0,0,0,9.8-11.83l-1.22,1.03-1.29-1.53,3.07-2.58a1,1,0,0,1,1.41.13Z"></path></g></svg>