<svg xmlns="http://www.w3.org/2000/svg" viewBox="0 0 64 64" x="0px" y="0px"><g data-name="Logistic"><path d="M48,36A12,12,0,1,0,60,48,12.013,12.013,0,0,0,48,36Zm8,17a2,2,0,0,1-2,2H42a2,2,0,0,1-2-2V43a2,2,0,0,1,2-2H54a2,2,0,0,1,2,2Z"></path><path d="M59.721,35.833c.039-.28.07-.563.1-.845.056-.541.1-1.083.124-1.627.006-.12.01-.241.015-.361H33V59.961c.122,0,.245-.009.367-.015.536-.025,1.071-.068,1.6-.123.287-.03.573-.062.857-.1.433-.058.863-.133,1.292-.211Q38.259,59.3,39.363,59A13.985,13.985,0,1,1,59,39.363q.3-1.088.508-2.207C59.585,36.716,59.662,36.277,59.721,35.833Z"></path><path d="M33,4.079v12.9a27.963,27.963,0,0,0,10.013-2.233C40.641,8.7,37.058,4.656,33,4.079Z"></path><path d="M51,47v1a1,1,0,0,1-1,1H46a1,1,0,0,1-1-1V47H42v6H54V47Z"></path><path d="M49.927,10.512A27.929,27.929,0,0,0,38.945,4.873a23.581,23.581,0,0,1,5.892,9.01A28.039,28.039,0,0,0,49.927,10.512Z"></path><path d="M33,31H45.987a49.18,49.18,0,0,0-2.294-14.373A29.975,29.975,0,0,1,33,18.977Z"></path><rect x="51" y="43" width="3" height="2"></rect><rect x="47" y="43" width="2" height="4"></rect><rect x="42" y="43" width="3" height="2"></rect><path d="M31,59.921v-12.9a27.963,27.963,0,0,0-10.013,2.233C23.359,55.3,26.942,59.344,31,59.921Z"></path><path d="M19.163,50.117a28.039,28.039,0,0,0-5.09,3.371,27.929,27.929,0,0,0,10.982,5.639A23.581,23.581,0,0,1,19.163,50.117Z"></path><path d="M31,33H18.013a49.18,49.18,0,0,0,2.294,14.373A29.975,29.975,0,0,1,31,45.023Z"></path><path d="M31,18.977a29.975,29.975,0,0,1-10.693-2.35A49.18,49.18,0,0,0,18.013,31H31Z"></path><path d="M31,4.079c-4.058.577-7.641,4.623-10.013,10.665A27.963,27.963,0,0,0,31,16.977Z"></path><path d="M59.975,31a27.921,27.921,0,0,0-8.551-19.139,30.016,30.016,0,0,1-5.9,3.917A50.766,50.766,0,0,1,47.987,31Z"></path><path d="M4.025,31H16.013a50.766,50.766,0,0,1,2.459-15.222,30.016,30.016,0,0,1-5.9-3.917A27.921,27.921,0,0,0,4.025,31Z"></path><path d="M25.055,4.873a27.929,27.929,0,0,0-10.982,5.639,28.039,28.039,0,0,0,5.09,3.371A23.581,23.581,0,0,1,25.055,4.873Z"></path><path d="M12.576,52.139a30.016,30.016,0,0,1,5.9-3.917A50.766,50.766,0,0,1,16.013,33H4.025A27.921,27.921,0,0,0,12.576,52.139Z"></path></g></svg>