<svg xmlns="http://www.w3.org/2000/svg" viewBox="0 0 64 64" x="0px" y="0px"><g><path d="M33,44a2.949,2.949,0,0,1,1.99.78l1.07-2.13.78-3.13A1.99,1.99,0,0,1,38.78,38H41V35a1,1,0,0,1,1-1h2V6L42.8,7.6a1.041,1.041,0,0,1-1.6,0L39,4.67,36.8,7.6a1.041,1.041,0,0,1-1.6,0L33,4.67,30.8,7.6a1.041,1.041,0,0,1-1.6,0L27,4.67,24.8,7.6a1.041,1.041,0,0,1-1.6,0L21,4.67,18.8,7.6a1.041,1.041,0,0,1-1.6,0L15,4.67,12.8,7.6a1.041,1.041,0,0,1-1.6,0L9,4.67,6.8,7.6a1.041,1.041,0,0,1-1.6,0L4,6V58l1.2-1.6a1.041,1.041,0,0,1,1.6,0L9,59.33l2.2-2.93a1.041,1.041,0,0,1,1.6,0L15,59.33l2.2-2.93a1.041,1.041,0,0,1,1.6,0L21,59.33l2.2-2.93a1.041,1.041,0,0,1,1.6,0L27,59.33l2.2-2.93a1,1,0,0,1,1.6,0l.2.27V51a2.942,2.942,0,0,1,.4-1.47A3,3,0,0,1,33,44Zm5-8H36V34h2Zm2-6v2H36V30ZM26,18H36v2H26Zm-6,0h4v2H20Zm0,4H36v2H20Zm-7-2H11a3,3,0,0,1,0-6V13h2v1a3,3,0,0,1,3,3H14a1,1,0,0,0-1-1H11a1,1,0,0,0,0,2h2a3,3,0,0,1,0,6v1H11V24a3,3,0,0,1-3-3h2a1,1,0,0,0,1,1h2a1,1,0,0,0,0-2ZM8,30H34v2H8Zm0,4H34v2H8Zm0,4H34v2H8ZM28,52H8V50H28Zm0-4H8V46H28Zm2-4H8V42H30Z"></path><polygon points="35.62 48 56.38 48 54.38 44 37.62 44 35.62 48"></polygon><polygon points="38.78 40 38.28 42 53.72 42 53.22 40 38.78 40"></polygon><path d="M59,55V51a1,1,0,0,0-1-1H34a1,1,0,0,0-1,1v4a1,1,0,0,0,1,1H58A1,1,0,0,0,59,55ZM37,55a2,2,0,1,1,2-2A2,2,0,0,1,37,55Zm12-1H43V52h6Zm6,1a2,2,0,1,1,2-2A2,2,0,0,1,55,55Z"></path><path d="M37,58H34a3,3,0,0,1-1-.18V60h4Z"></path><path d="M59,57.82A3,3,0,0,1,58,58H55v2h4Z"></path><path d="M60,47a.992.992,0,0,0-1.97-.17l.53,1.05A.966.966,0,0,0,59,48,1,1,0,0,0,60,47Z"></path><rect x="43" y="36" width="6" height="2"></rect><path d="M33,48a.966.966,0,0,0,.44-.12l.53-1.05A.993.993,0,1,0,33,48Z"></path></g></svg>