<svg xmlns="http://www.w3.org/2000/svg" viewBox="0 0 64 64" x="0px" y="0px"><g><circle cx="38" cy="16" r="4"></circle><path d="M9,29.1a31.251,31.251,0,0,1,4.692.8A3.017,3.017,0,0,1,16,32.81V34a.965.965,0,0,0,.287.694.954.954,0,0,0,.8.3A1.081,1.081,0,0,0,18,33.89V31a3,3,0,0,1,6,0v6a1,1,0,0,0,2,0V34a3,3,0,0,1,6,0v1a1.009,1.009,0,0,0,1.084.995A1.081,1.081,0,0,0,34,34.89V32.11a2.973,2.973,0,0,1,2.671-2.985A39.679,39.679,0,0,1,41,28.92a34.14,34.14,0,0,1,9.242,1.109A32.709,32.709,0,0,0,55,30.9V25a3,3,0,0,0-3-3H12a3,3,0,0,0-3,3Z"></path><path d="M9,41.089a34.483,34.483,0,0,1,5.225.937A32.026,32.026,0,0,0,23,43.08a31.775,31.775,0,0,0,7.059-.661,2.993,2.993,0,0,1,5.4-1.132A37.551,37.551,0,0,1,41,40.92a34.14,34.14,0,0,1,9.242,1.109A32.709,32.709,0,0,0,55,42.9V32.911a34.483,34.483,0,0,1-5.225-.937A32.026,32.026,0,0,0,41,30.92a37.768,37.768,0,0,0-4.121.194,1,1,0,0,0-.879,1v2.78a3.075,3.075,0,0,1-2.734,3.1,2.714,2.714,0,0,1-.284.014A3.015,3.015,0,0,1,30,35V34a1,1,0,0,0-2,0v3a3,3,0,0,1-6,0V31a1,1,0,0,0-2,0v2.89a3.075,3.075,0,0,1-2.734,3.1,2.714,2.714,0,0,1-.284.014A3.015,3.015,0,0,1,14,34V32.81a1,1,0,0,0-.768-.966A29.6,29.6,0,0,0,9,31.106Zm41.707-4.8,1.5,1.5-1.414,1.414-1.5-1.5Zm-4.414-2,1.414,1.414-2,2-1.414-1.414Zm-5.586-2,2,2-1.414,1.414-2-2ZM39,37h2v2H39ZM15.707,38.293l2,2-1.414,1.414-2-2ZM11,36h2v2H11Z"></path><path d="M4,58a1,1,0,0,0,1,1H60a1,1,0,0,0,1-1V57H4Z"></path><circle cx="33" cy="43" r="1"></circle><path d="M9,55H55V44.911a34.483,34.483,0,0,1-5.225-.937A32.026,32.026,0,0,0,41,42.92a36.057,36.057,0,0,0-5.023.312A2.98,2.98,0,0,1,30.362,44.4,33.823,33.823,0,0,1,23,45.08a34.14,34.14,0,0,1-9.242-1.109A32.709,32.709,0,0,0,9,43.1Zm41.293-7.707,1.414,1.414-2,2-1.414-1.414Zm-5-3,1.414,1.414-2,2-1.414-1.414Zm-2.586,5,2,2-1.414,1.414-2-2Zm-7.414-2,1.414,1.414-2,2-1.414-1.414ZM25,47h2v2H25Zm-2.293,3.293,1.5,1.5-1.414,1.414-1.5-1.5Zm-5.414-3,1.414,1.414-2,2-1.414-1.414Z"></path><path d="M41.71,4.71a8.563,8.563,0,0,0-2.72,5.38A5.361,5.361,0,0,0,38,10a5.47,5.47,0,0,0-1,.09,10.492,10.492,0,0,1,3.29-6.8Z"></path></g></svg>