<svg xmlns="http://www.w3.org/2000/svg" viewBox="0 0 64 64" x="0px" y="0px"><g><path d="M18,45a1,1,0,0,0-1-1H16v2H14V44H12v2H10V44H9a1,1,0,0,0-1,1v2a1,1,0,0,0,1,1h8a1,1,0,0,0,1-1Z"></path><rect x="52" y="46" width="4.001" height="4"></rect><path d="M9,56a1,1,0,0,0-1,1v2a1,1,0,0,0,1,1h8a1,1,0,0,0,1-1V57a1,1,0,0,0-1-1H16v2H14V56H12v2H10V56Z"></path><path d="M18,39a1,1,0,0,0-1-1H16v2H14V38H12v2H10V38H9a1,1,0,0,0-1,1v2a1,1,0,0,0,1,1h8a1,1,0,0,0,1-1Z"></path><rect x="52" y="40" width="4" height="4"></rect><path d="M18,33a1,1,0,0,0-1-1H16v2H14V32H12v2H10V32H9a1,1,0,0,0-1,1v2a1,1,0,0,0,1,1h8a1,1,0,0,0,1-1Z"></path><path d="M18,51a1,1,0,0,0-1-1H16v2H14V50H12v2H10V50H9a1,1,0,0,0-1,1v2a1,1,0,0,0,1,1h8a1,1,0,0,0,1-1Z"></path><path d="M30,33a1,1,0,0,0-1-1H28v2H26V32H24v2H22V32H21a1,1,0,0,0-1,1v2a1,1,0,0,0,1,1h8a1,1,0,0,0,1-1Z"></path><path d="M21,56a1,1,0,0,0-1,1v2a1,1,0,0,0,1,1h8a1,1,0,0,0,1-1V57a1,1,0,0,0-1-1H28v2H26V56H24v2H22V56Z"></path><path d="M9,13a1.033,1.033,0,0,1-.29.71L4.3,18.12a1,1,0,0,0-.3.71V59a1,1,0,0,0,1,1H6.18A3,3,0,0,1,6,59V57a2.974,2.974,0,0,1,.78-2A2.974,2.974,0,0,1,6,53V51a2.974,2.974,0,0,1,.78-2A2.974,2.974,0,0,1,6,47V45a2.974,2.974,0,0,1,.78-2A2.974,2.974,0,0,1,6,41V39a2.974,2.974,0,0,1,.78-2A2.974,2.974,0,0,1,6,35V33a3.009,3.009,0,0,1,3-3h8a2.974,2.974,0,0,1,2,.78A2.974,2.974,0,0,1,21,30h8a3.009,3.009,0,0,1,3,3v2a2.974,2.974,0,0,1-.78,2A2.974,2.974,0,0,1,32,39v2a2.974,2.974,0,0,1-.78,2A2.974,2.974,0,0,1,32,45v2a2.974,2.974,0,0,1-.78,2A2.974,2.974,0,0,1,32,51v2a2.974,2.974,0,0,1-.78,2A2.974,2.974,0,0,1,32,57v2a3,3,0,0,1-.18,1h2.36A3,3,0,0,1,34,59V25a3.009,3.009,0,0,1,3-3h3V18.83a1,1,0,0,0-.3-.71l-4.41-4.41A1.033,1.033,0,0,1,35,13V12H9Zm14,9H21a3,3,0,0,1,0-6V15h2v1a3,3,0,0,1,3,3H24a1,1,0,0,0-1-1H21a1,1,0,0,0,0,2h2a3,3,0,0,1,0,6v1H21V26a3,3,0,0,1-3-3h2a1,1,0,0,0,1,1h2a1,1,0,0,0,0-2Z"></path><path d="M30,51a1,1,0,0,0-1-1H28v2H26V50H24v2H22V50H21a1,1,0,0,0-1,1v2a1,1,0,0,0,1,1h8a1,1,0,0,0,1-1Z"></path><path d="M30,45a1,1,0,0,0-1-1H28v2H26V44H24v2H22V44H21a1,1,0,0,0-1,1v2a1,1,0,0,0,1,1h8a1,1,0,0,0,1-1Z"></path><path d="M30,39a1,1,0,0,0-1-1H28v2H26V38H24v2H22V38H21a1,1,0,0,0-1,1v2a1,1,0,0,0,1,1h8a1,1,0,0,0,1-1Z"></path><polygon points="35 10 35 4 9 4 9 10 11 10 11 6 13 6 13 10 15 10 15 6 17 6 17 10 19 10 19 6 21 6 21 10 23 10 23 6 25 6 25 10 27 10 27 6 29 6 29 10 31 10 31 6 33 6 33 10 35 10"></polygon><path d="M40,34H56V28H40Zm11-4h2v2H51Zm-4,0h2v2H47Zm-4,0h2v2H43Z"></path><rect x="46" y="40" width="4" height="4"></rect><rect x="40" y="52" width="4" height="4"></rect><path d="M60,59V25a1,1,0,0,0-1-1H37a1,1,0,0,0-1,1V59a1,1,0,0,0,1,1H59A1,1,0,0,0,60,59Zm-2-3a2,2,0,0,1-2,2H40a2,2,0,0,1-2-2V40a2,2,0,0,1,2-2H56a2,2,0,0,1,2,2Zm0-22a2,2,0,0,1-2,2H40a2,2,0,0,1-2-2V28a2,2,0,0,1,2-2H56a2,2,0,0,1,2,2Z"></path><rect x="52" y="52" width="4.002" height="4"></rect><rect x="40" y="46" width="4" height="4"></rect><rect x="40" y="40" width="4" height="4"></rect><rect x="46" y="52" width="4" height="4"></rect><rect x="46" y="46" width="4" height="4"></rect></g></svg>