<svg xmlns="http://www.w3.org/2000/svg" viewBox="0 0 64 64" x="0px" y="0px"><g><path d="M44,18H60V8H44Zm3-8H57v2H47Zm0,4H57v2H47Z"></path><rect x="10" y="28" width="2" height="19"></rect><path d="M36,9v8a1,1,0,0,0,1,1h5V8H37A1,1,0,0,0,36,9Z"></path><path d="M4,57a3.009,3.009,0,0,0,3,3H34.18A3,3,0,0,1,34,59V25a3.009,3.009,0,0,1,3-3H48V20H37a3.009,3.009,0,0,1-3-3V9a3.009,3.009,0,0,1,3-3H47.82A3.01,3.01,0,0,0,45,4H7A3.009,3.009,0,0,0,4,7ZM20,17a1,1,0,0,1,1-1h8a1,1,0,0,1,1,1V57a1,1,0,0,1-1,1H21a1,1,0,0,1-1-1ZM8,19a3.009,3.009,0,0,1,3-3h4a3.009,3.009,0,0,1,3,3V48a.978.978,0,0,1-.09.41l-4,9a1,1,0,0,1-1.82,0l-4-9A.978.978,0,0,1,8,48Z"></path><rect x="52" y="40" width="4" height="4"></rect><rect x="52" y="46" width="4.001" height="4"></rect><rect x="40" y="52" width="4" height="4"></rect><polygon points="13 54.54 13.68 53 12.32 53 13 54.54"></polygon><polygon points="11.43 51 14.57 51 15.46 49 10.54 49 11.43 51"></polygon><polygon points="28 18 22 18 22 20 26 20 26 22 22 22 22 24 24 24 24 26 22 26 22 28 24 28 24 30 22 30 22 32 26 32 26 34 22 34 22 36 24 36 24 38 22 38 22 40 24 40 24 42 22 42 22 44 26 44 26 46 22 46 22 48 24 48 24 50 22 50 22 52 24 52 24 54 22 54 22 56 28 56 28 18"></polygon><path d="M16,19a1,1,0,0,0-1-1H11a1,1,0,0,0-1,1v3h6Z"></path><rect x="10" y="24" width="6" height="2"></rect><rect x="14" y="28" width="2" height="19"></rect><path d="M60,59V25a1,1,0,0,0-1-1H37a1,1,0,0,0-1,1V59a1,1,0,0,0,1,1H59A1,1,0,0,0,60,59Zm-2-3a2,2,0,0,1-2,2H40a2,2,0,0,1-2-2V40a2,2,0,0,1,2-2H56a2,2,0,0,1,2,2Zm0-22a2,2,0,0,1-2,2H40a2,2,0,0,1-2-2V28a2,2,0,0,1,2-2H56a2,2,0,0,1,2,2Z"></path><rect x="52" y="52" width="4.001" height="4"></rect><rect x="40" y="46" width="4" height="4"></rect><rect x="46" y="40" width="4" height="4"></rect><path d="M40,34H56V28H40Zm11-4h2v2H51Zm-4,0h2v2H47Zm-4,0h2v2H43Z"></path><rect x="40" y="40" width="4" height="4"></rect><rect x="46" y="52" width="4" height="4"></rect><rect x="46" y="46" width="4" height="4"></rect></g></svg>