<svg xmlns="http://www.w3.org/2000/svg" viewBox="0 0 64 64" x="0px" y="0px"><g><path d="M46,53a1,1,0,0,0,1,1H59a1,1,0,0,0,1-1V51a1,1,0,0,0-1-1H58v2H56V50H54v2H52V50H50v2H48V50H47a1,1,0,0,0-1,1Z"></path><path d="M50,38v2H48V38H47a1,1,0,0,0-1,1v2a1,1,0,0,0,1,1H59a1,1,0,0,0,1-1V39a1,1,0,0,0-1-1H58v2H56V38H54v2H52V38Z"></path><path d="M46,59a1,1,0,0,0,1,1H59a1,1,0,0,0,1-1V57a1,1,0,0,0-1-1H58v2H56V56H54v2H52V56H50v2H48V56H47a1,1,0,0,0-1,1Z"></path><path d="M32,38a8,8,0,1,0,8,8A8.011,8.011,0,0,0,32,38Zm-1,7h2a3,3,0,0,1,0,6v1H31V51a3.009,3.009,0,0,1-3-3h2a1,1,0,0,0,1,1h2a1,1,0,0,0,0-2H31a3,3,0,0,1,0-6V40h2v1a3.009,3.009,0,0,1,3,3H34a1,1,0,0,0-1-1H31a1,1,0,0,0,0,2Z"></path><path d="M47,44a1,1,0,0,0-1,1v2a1,1,0,0,0,1,1H59a1,1,0,0,0,1-1V45a1,1,0,0,0-1-1H58v2H56V44H54v2H52V44H50v2H48V44Z"></path><path d="M50.72,30.35,38.16,34.92a2.962,2.962,0,0,1-1.02.18,3.013,3.013,0,0,1-2.83-1.98,2.87,2.87,0,0,1-.16-1s-1.21.42-1.25.43a2.969,2.969,0,0,1-1.93-.02l-1.1-.41a3.148,3.148,0,0,1-.18,1,3,3,0,0,1-1.56,1.7,3,3,0,0,1-2.29.1L13.28,30.35A13.1,13.1,0,0,0,13,33v9h4a3.009,3.009,0,0,1,3,3v2a2.974,2.974,0,0,1-.78,2A2.974,2.974,0,0,1,20,51v2a2.974,2.974,0,0,1-.78,2A2.974,2.974,0,0,1,20,57v2a3,3,0,0,1-.18,1H44.18A3,3,0,0,1,44,59V57a2.974,2.974,0,0,1,.78-2A2.974,2.974,0,0,1,44,53V51a2.974,2.974,0,0,1,.78-2A2.974,2.974,0,0,1,44,47V45a2.974,2.974,0,0,1,.78-2A2.974,2.974,0,0,1,44,41V39a3.009,3.009,0,0,1,3-3h4V33A13.1,13.1,0,0,0,50.72,30.35ZM32,56A10,10,0,1,1,42,46,10.016,10.016,0,0,1,32,56Z"></path><path d="M36.79,10.59l.63.11L40.4,5.73a5.357,5.357,0,0,1-1.52-.95A2.6,2.6,0,0,0,37,4a2.551,2.551,0,0,0-1.86.78A4.559,4.559,0,0,1,32.01,6a4.538,4.538,0,0,1-3.13-1.22,2.656,2.656,0,0,0-3.76,0,5.357,5.357,0,0,1-1.52.95l2.98,4.97.63-.11a2.989,2.989,0,0,1,3.47,2.43,2.931,2.931,0,0,1,0,.98h2.64a2.931,2.931,0,0,1,0-.98,2.981,2.981,0,0,1,3.47-2.43Z"></path><path d="M10.68,25.25l2.91,3.08,12.93,4.71a.98.98,0,0,0,.77-.04,1.021,1.021,0,0,0,.52-.56,1.009,1.009,0,0,0-.59-1.28l-4.71-1.71a1,1,0,0,1,.68-1.88l8.46,3.08a.984.984,0,0,0,.77-.04.971.971,0,0,0,.51-.56,1.028,1.028,0,0,0-.03-.77.971.971,0,0,0-.56-.51l-8.46-3.08a1,1,0,1,1,.68-1.88l12.22,4.45a1.05,1.05,0,0,0,.76-.04.956.956,0,0,0,.52-.56,1.016,1.016,0,0,0,.06-.34,1,1,0,0,0-.66-.94L25.25,21.93a1,1,0,0,1,.68-1.88l8.46,3.08a1,1,0,0,0,.76-.03,1.037,1.037,0,0,0,.52-.57.993.993,0,0,0-.6-1.28L23.8,17.14a.987.987,0,0,1-.66-1.02,1.009,1.009,0,0,1,.82-.9l3.94-.69a1.025,1.025,0,0,0,.65-.41,1,1,0,0,0,.16-.75.988.988,0,0,0-1.15-.81L14.82,14.8a.981.981,0,0,1-.51-.04l-.25-.1L10.29,25A1.006,1.006,0,0,1,10.68,25.25Z"></path><path d="M28.25,16.5l-.26.04L32,18l4.02-1.46-.27-.04a3.145,3.145,0,0,1-1.19-.5H29.44A3.213,3.213,0,0,1,28.25,16.5Z"></path><path d="M18,51a1,1,0,0,0-1-1H16v2H14V50H12v2H10V50H8v2H6V50H5a1,1,0,0,0-1,1v2a1,1,0,0,0,1,1H17a1,1,0,0,0,1-1Z"></path><path d="M18,45a1,1,0,0,0-1-1H16v2H14V44H12v2H10V44H8v2H6V44H5a1,1,0,0,0-1,1v2a1,1,0,0,0,1,1H17a1,1,0,0,0,1-1Z"></path><path d="M6.54,11.93,4,18.9v3.81l4.42,1.61,3.76-10.34Zm.68,9.82-1.88-.68.68-1.88,1.88.68Z"></path><path d="M49.69,14.76a.981.981,0,0,1-.51.04L36.44,12.56a.982.982,0,0,0-1.15.81,1,1,0,0,0,.16.75,1.025,1.025,0,0,0,.65.41l3.94.69a.994.994,0,0,1,.76.64,3,3,0,0,0,3.85,1.8l.94-.35.68,1.88-.94.35a5.093,5.093,0,0,1-1.71.3,5.028,5.028,0,0,1-2.11-.47,4.9,4.9,0,0,1-2.13-1.92l-4.45,1.62.83.3a3.063,3.063,0,0,1,1.37,1.02l.94-.34a1,1,0,1,1,.68,1.88l-1.04.38a2.8,2.8,0,0,1-.16.9,3.1,3.1,0,0,1-.5.89l.8.29,1.59-.58a1,1,0,1,1,.68,1.88l-.4.15a1.432,1.432,0,0,1,.12.21,3,3,0,0,1,.23,1.79l.74-.27a1,1,0,1,1,.68,1.88l-4.71,1.71.01.01a1,1,0,0,0-.6,1.28,1.02,1.02,0,0,0,1.29.59l12.93-4.71,2.91-3.08a1.006,1.006,0,0,1,.39-.25L49.94,14.66Z"></path><path d="M5,60H17a1,1,0,0,0,1-1V57a1,1,0,0,0-1-1H16v2H14V56H12v2H10V56H8v2H6V56H5a1,1,0,0,0-1,1v2A1,1,0,0,0,5,60Z"></path><path d="M57.46,11.93l-5.64,2.05,3.76,10.34L60,22.71V18.9Zm-.68,9.82-.68-1.88,1.88-.68.68,1.88Z"></path></g></svg>