<svg xmlns="http://www.w3.org/2000/svg" viewBox="0 0 64 64" x="0px" y="0px"><g data-name="Stategy Plan"><circle cx="21" cy="34" r="2"></circle><polygon points="29 51.3 29 49.703 20.174 60 21.54 60 29 51.3"></polygon><rect x="4" y="4" width="56" height="2"></rect><circle cx="43" cy="14" r="2"></circle><rect x="4" y="44" width="56" height="2"></rect><path d="M57,42V8H7V42ZM38.828,33.414l-1.414,1.414L36,33.414l-1.414,1.414-1.414-1.414L34.586,32l-1.414-1.414,1.414-1.414L36,30.586l1.414-1.414,1.414,1.414L37.414,32ZM53,39H45V37h8Zm-8-3V34h2v2Zm8,0H49V34h4ZM49,23.586l1.414-1.414,1.414,1.414L50.414,25l1.414,1.414-1.414,1.414L49,26.414l-1.414,1.414-1.414-1.414L47.586,25l-1.414-1.414,1.414-1.414Zm-24.828-9,1.414-1.414L27,14.586l1.414-1.414,1.414,1.414L28.414,16l1.414,1.414-1.414,1.414L27,17.414l-1.414,1.414-1.414-1.414L25.586,16ZM20,30.142V30a7.009,7.009,0,0,1,7-7H37a5.006,5.006,0,0,0,5-5v-.142a4,4,0,1,1,2,0V18a7.009,7.009,0,0,1-7,7H27a5.006,5.006,0,0,0-5,5v.142a4,4,0,1,1-2,0Zm-2.172-6.728-1.414,1.414L15,23.414l-1.414,1.414-1.414-1.414L13.586,22l-1.414-1.414,1.414-1.414L15,20.586l1.414-1.414,1.414,1.414L16.414,22ZM11,10h6v2H11Zm0,3h6v2H11Z"></path><polygon points="43.826 60 35 49.703 35 51.3 42.46 60 43.826 60"></polygon><rect x="31" y="48" width="2" height="12"></rect></g></svg>