<svg xmlns="http://www.w3.org/2000/svg" viewBox="0 0 64 64" x="0px" y="0px"><g><circle cx="26" cy="9" r="1"></circle><path d="M31,4H14V7h4V9H14v4h2v2H14v4h4v2H14v4h2v2H14v4h4v2H14v4h2v2H14v4h4v2H14v4h2v2H14v4h4v2H14v3H31Zm-5,8a3,3,0,1,1,3-3A3,3,0,0,1,26,12Z"></path><polygon points="39.094 46 42.649 54 45.351 54 48.906 46 39.094 46"></polygon><path d="M49,14H47V25a3,3,0,0,1-6,0V14H39V44H49Z"></path><path d="M45,56H43v3a1,1,0,0,0,2,0Z"></path><path d="M49,5a1,1,0,0,0-1-1H40a1,1,0,0,0-1,1V8H49Z"></path><rect x="39" y="10" width="10" height="2"></rect><path d="M45,25V14H43V25a1,1,0,0,0,2,0Z"></path></g></svg>