<svg xmlns="http://www.w3.org/2000/svg" viewBox="0 0 64 64" x="0px" y="0px"><title>Date-Schedule-Date And Time-Calendar-Delivery</title><g><path d="M58,6H46V5a3,3,0,0,0-6,0V6H35V5a3,3,0,0,0-6,0V6H24V5a3,3,0,0,0-6,0V6H12a1,1,0,0,0-1,1V46H6a1,1,0,0,0-1,1v4a5.006,5.006,0,0,0,5,5h1v5a1,1,0,0,0,1,1H58a1,1,0,0,0,1-1V7A1,1,0,0,0,58,6Zm-1,8H53V8h4ZM42,5a1,1,0,0,1,2,0V6H42ZM31,5a1,1,0,0,1,2,0V6H31ZM20,5a1,1,0,0,1,2,0V6H20ZM18,8V9a3,3,0,0,0,3,3V10a1,1,0,0,1-1-1V8h9V9a3,3,0,0,0,3,3V10a1,1,0,0,1-1-1V8h9V9a3,3,0,0,0,3,3V10a1,1,0,0,1-1-1V8h9v6H13V8ZM44,46H13V16H51V51a3,3,0,0,1-6,0V47A1,1,0,0,0,44,46ZM7,51V48H43v3a4.973,4.973,0,0,0,1,3H10A3,3,0,0,1,7,51Zm6,5H48a4.948,4.948,0,0,0,3-1.026V60H13Zm40,4V16h4V60Z"></path><path d="M45,22a1,1,0,0,0-1-1H20a1,1,0,0,0-1,1V40a1,1,0,0,0,1,1H44a1,1,0,0,0,1-1Zm-6,3H34V23h5ZM28,23h4v5.131l-1.445-.963a1,1,0,0,0-1.11,0L28,28.131Zm-2,0v2H21V23ZM21,39V27h5v3a1,1,0,0,0,1.555.832L30,29.2l2.445,1.63A1,1,0,0,0,34,30V27h5V39Zm22,0H41V23h2Z"></path></g></svg>