<svg xmlns="http://www.w3.org/2000/svg" viewBox="0 0 64 64" x="0px" y="0px"><g><polygon points="41.618 50.654 39.504 40.327 36.134 42.273 38.247 52.601 41.618 50.654"></polygon><path d="M60,32A12.01,12.01,0,0,1,48,44H42.3l-.55-2.66,6.88-3.97a2.012,2.012,0,0,0,.74-2.74l-.5-.86a5,5,0,0,0-6.83-1.83L26.69,40.8l-2.85-2.25a1.016,1.016,0,0,0-1.12-.08l-5.2,3a1.006,1.006,0,0,0-.12,1.66l1.11.87H13a9,9,0,0,1-2.6-17.62.987.987,0,0,0,.71-.82A11.007,11.007,0,0,1,22,16c.15,0,.3.01.45.02l.21.01a1,1,0,0,0,.95-.53,13.985,13.985,0,0,1,26.15,3.98.994.994,0,0,0,.77.79A12.053,12.053,0,0,1,60,32Z"></path><path d="M47.134,34.768a3,3,0,0,0-4.1-1.1L27.1,42.87a1,1,0,0,1-1.172-.126l-2.795-2.2L19.8,42.468,26.566,47.8l2.914-1.681,4.828-2.788-.278-1.359a1,1,0,0,1,.48-1.067l5.2-3a1,1,0,0,1,1.479.666l.145.707,6.3-3.64Z"></path></g></svg>