<svg xmlns="http://www.w3.org/2000/svg" viewBox="0 0 64 64" x="0px" y="0px"><g data-name="Service-Cloud"><path d="M59.99,30.36A12.28,12.28,0,0,1,47.61,42H33V36a5,5,0,0,0-10,0v5a1,1,0,0,1-1,1H13.33A9.228,9.228,0,0,1,4,33.2a9.043,9.043,0,0,1,6.4-8.82.987.987,0,0,0,.71-.82A11.007,11.007,0,0,1,22,14c.16,0,.31.01.46.02l.2.01a.99.99,0,0,0,.95-.53,13.985,13.985,0,0,1,26.15,3.98.994.994,0,0,0,.77.79A11.993,11.993,0,0,1,59.99,30.36Z"></path><path d="M31,36v6H24.82A2.772,2.772,0,0,0,25,41V36a3,3,0,0,1,6,0Z"></path><path d="M46,48H33V42H31v6H18a1,1,0,0,0-1,1v8a1,1,0,0,0,1,1H46a1,1,0,0,0,1-1V49A1,1,0,0,0,46,48ZM35,50h2v2H35Zm-4,0h2v2H31Zm-4,0h2v2H27Zm-4,0h2v2H23Zm-2,6H19V54h2Zm0-4H19V50h2Zm20,4H23V54H41Zm0-4H39V50h2Zm4,4H43V54h2Zm0-4H43V50h2Z"></path></g></svg>