<svg xmlns="http://www.w3.org/2000/svg" viewBox="0 0 64 64" x="0px" y="0px"><g data-name="Business-Woman-Avatar-Long-Hair-Braid"><path d="M26,12.955V20a4,4,0,0,0,4,4h4a4,4,0,0,0,4-4V11.6a19.107,19.107,0,0,1-2.924-2.16C32.363,12.167,27.969,12.806,26,12.955Zm3.92,1.425a1.155,1.155,0,0,1-.21.33A1.052,1.052,0,0,1,29,15a1,1,0,0,1-.38-.08,1.032,1.032,0,0,1-.33-.21,1.155,1.155,0,0,1-.21-.33A.838.838,0,0,1,28,14a1.355,1.355,0,0,1,.02-.2.636.636,0,0,1,.06-.18.757.757,0,0,1,.09-.18,1.576,1.576,0,0,1,.12-.15,1.032,1.032,0,0,1,.33-.21,1,1,0,0,1,1.09.21l.12.15a.8.8,0,0,1,.09.18.6.6,0,0,1,.059.18A1.234,1.234,0,0,1,30,14,1,1,0,0,1,29.92,14.38Zm5.91-.94a.8.8,0,0,1,.09.18.6.6,0,0,1,.059.18A1.234,1.234,0,0,1,36,14a1,1,0,0,1-.08.38,1.155,1.155,0,0,1-.21.33A1.052,1.052,0,0,1,35,15a1.213,1.213,0,0,1-.19-.02.6.6,0,0,1-.19-.06.782.782,0,0,1-.181-.09l-.149-.12a1.032,1.032,0,0,1-.21-.33A1,1,0,0,1,34,14a1.028,1.028,0,0,1,.29-.71,1.047,1.047,0,0,1,1.42,0Z"></path><polygon points="28.444 35.417 30.574 33.819 28.073 30.693 27.124 32.117 28.444 35.417"></polygon><path d="M30,26a5.92,5.92,0,0,1-.613-.031c-.129-.009-.259-.014-.387-.028v2.708l3,3.75,3-3.75V25.932c-.086.009-.172.01-.258.017A6.055,6.055,0,0,1,34,26Z"></path><path d="M41,60V50a1,1,0,0,1,.4-.8c.9-.679,1.6-2.815,1.6-4.2s-.7-3.522-1.6-4.2c-.015-.012-.022-.031-.036-.044-.2.319-.394.6-.539.813a1,1,0,0,1-1.646,0c-.632-.914-2.058-3.119-2.158-4.421l-4.1,9.259a1,1,0,0,1-1.828,0L25.071,32.372a1,1,0,0,1,.1-.927l.837-1.255A11.013,11.013,0,0,0,17,41V60h4V50.447a8.417,8.417,0,0,1,0-10.894V38h2v2a1,1,0,0,1-.4.8c-.9.679-1.6,2.815-1.6,4.2s.7,3.522,1.6,4.2a1,1,0,0,1,.4.8V60Z"></path><path d="M23,17a6.942,6.942,0,0,0,1.036,3.646A5.993,5.993,0,0,1,24,20V12a1,1,0,0,1,1-1c.065,0,6.541-.054,9.2-3.6a1,1,0,0,1,.729-.4.986.986,0,0,1,.778.289,17.678,17.678,0,0,0,3.74,2.813A1,1,0,0,1,40,11v9a6.161,6.161,0,0,1-.037.655A6.979,6.979,0,0,0,41,17V13a9,9,0,0,0-18,0Z"></path><path d="M40.5,28a.5.5,0,0,0,0-1h-1a.5.5,0,0,0,0,1Z"></path><path d="M39,24.5a.5.5,0,0,0,.5.5h1a.5.5,0,0,0,0-1h-1A.5.5,0,0,0,39,24.5Z"></path><path d="M40.5,30h-1a.5.5,0,0,0,0,1h1a.5.5,0,0,0,0-1Z"></path><path d="M40,36a1,1,0,0,0-1,1,7.443,7.443,0,0,0,1,2.146A7.515,7.515,0,0,0,41,37,1,1,0,0,0,40,36Z"></path><path d="M47,41a11.037,11.037,0,0,0-4.353-8.76,2.446,2.446,0,0,1-.293,2.922A2.975,2.975,0,0,1,43,37a3.237,3.237,0,0,1-.212,1H43v1.553a8.417,8.417,0,0,1,0,10.894V60h4Z"></path><polygon points="34.763 37.321 32 35.25 29.237 37.321 32 43.538 34.763 37.321"></polygon><path d="M40.5,33h-1a.5.5,0,0,0,0,1h1a.5.5,0,0,0,0-1Z"></path><polygon points="36.876 32.117 35.927 30.693 33.426 33.819 35.556 35.417 36.876 32.117"></polygon></g></svg>