<svg xmlns="http://www.w3.org/2000/svg" viewBox="0 0 64 64" x="0px" y="0px"><g><path d="M59,2a3,3,0,0,0-3,3V8H8V5A3,3,0,0,0,2,5V61a1,1,0,0,0,1,1H7a1,1,0,0,0,1-1V14h8v4.09a6,6,0,1,0,2,0V14H31v4.09a6,6,0,1,0,2,0V14H46v4.09a6,6,0,1,0,2,0V14h8V61a1,1,0,0,0,1,1h4a1,1,0,0,0,1-1V5A3,3,0,0,0,59,2ZM21,24a4,4,0,1,1-4-4A4,4,0,0,1,21,24Zm15,0a4,4,0,1,1-4-4A4,4,0,0,1,36,24Zm15,0a4,4,0,1,1-4-4A4,4,0,0,1,51,24Zm9,28H58V50h2Zm-2,2h2v2H58Zm2-42H58V10h2ZM58,5a1,1,0,0,1,2,0V8H58ZM5,4A1,1,0,0,1,6,5V8H4V5A1,1,0,0,1,5,4ZM4,10H6v2H4ZM4,54H6v2H4Zm2-2H4V50H6Zm0,8H4V58H6ZM6,48H4V14H6ZM8,12V10h8v2Zm10,0V10H31v2Zm15,0V10H46v2Zm15,0V10h8v2Zm12,2V48H58V14Zm0,46H58V58h2Z"></path></g></svg>