<svg xmlns="http://www.w3.org/2000/svg" viewBox="0 0 64 64" x="0px" y="0px"><g data-name="Business"><path d="M62,38V30a1,1,0,0,0-1-1H55a1,1,0,0,0,1-1V20a1,1,0,0,0-1-1H45a1,1,0,0,0-1,1v8a1,1,0,0,0,1,1H39a1,1,0,0,0-1,1v8a1,1,0,0,0,1,1H2v2H30.268L24.206,51.5a1,1,0,0,0,.866,1.5H38.928a1,1,0,0,0,.866-1.5L33.732,41H62V39H61A1,1,0,0,0,62,38ZM26.8,51,32,42l5.2,9ZM52,31h1v2a1,1,0,0,0,1,1h4a1,1,0,0,0,1-1V31h1v6H52Zm5,0v1H55V31ZM51,21v1H49V21Zm-5,0h1v2a1,1,0,0,0,1,1h4a1,1,0,0,0,1-1V21h1v6H46Zm5,8a1,1,0,0,0-1,1,1,1,0,0,0-1-1Zm-6,2v1H43V31Zm-5,0h1v2a1,1,0,0,0,1,1h4a1,1,0,0,0,1-1V31h1v6H40Zm9,8a1,1,0,0,0,1-1,1,1,0,0,0,1,1Z"></path><path d="M11,32a1,1,0,0,1-1-1H8a3,3,0,0,0,2,2.816V35h2V33.816A2.993,2.993,0,0,0,11,28a1,1,0,1,1,1-1h2a3,3,0,0,0-2-2.816V23H10v1.184A2.993,2.993,0,0,0,11,30a1,1,0,0,1,0,2Z"></path><path d="M11,38a9,9,0,1,0-9-9A9.01,9.01,0,0,0,11,38Zm0-16a7,7,0,1,1-7,7A7.008,7.008,0,0,1,11,22Z"></path><rect x="15" y="28" width="2" height="2"></rect><rect x="5" y="28" width="2" height="2"></rect><rect x="10" y="8" width="2" height="2"></rect><rect x="12" y="10" width="2" height="2"></rect><rect x="10" y="12" width="2" height="2"></rect><rect x="8" y="10" width="2" height="2"></rect><rect x="23" y="15" width="2" height="2"></rect><rect x="25" y="17" width="2" height="2"></rect><rect x="23" y="19" width="2" height="2"></rect><rect x="21" y="17" width="2" height="2"></rect><rect x="56" y="9" width="2" height="2"></rect><rect x="58" y="11" width="2" height="2"></rect><rect x="56" y="13" width="2" height="2"></rect><rect x="54" y="11" width="2" height="2"></rect></g></svg>