<svg xmlns="http://www.w3.org/2000/svg" viewBox="0 0 64 64" x="0px" y="0px"><g><path d="M47.37,38.27a2.948,2.948,0,0,0-2.26-1.76l-1.67-.28a2.983,2.983,0,0,0-2.99,1.29L39.46,39H38.28a2.01,2.01,0,0,0-1.94,2.49l.61,2.43L33.8,51.57l-1.09-4.64a6.946,6.946,0,0,0-4.39-4.97,5.965,5.965,0,0,0,.45-9.63A4.044,4.044,0,0,0,29,31a4,4,0,0,0-3-3.87V24A9,9,0,0,0,8,24v3.13A4,4,0,0,0,5,31a4.044,4.044,0,0,0,.23,1.33,5.963,5.963,0,0,0,.53,9.68A7.025,7.025,0,0,0,2,48.2V61a1,1,0,0,0,1,1H25a1,1,0,0,0,1-1V59.56a3.008,3.008,0,0,1,.68-1.9q.12-.135.24-.3l1.12,3.91A1,1,0,0,0,29,62h8a.977.977,0,0,0,.92-.62l6.97-16.91,2.23-3.34A3,3,0,0,0,47.37,38.27ZM25,29a2.006,2.006,0,0,1,2,2,2.13,2.13,0,0,1-.34,1.13.958.958,0,0,0-.13.77.988.988,0,0,0,.47.64,3.987,3.987,0,0,1-1.47,7.41L21,39.3V36.92A8.005,8.005,0,0,0,25,30ZM19.66,40.94l.7.25a7.374,7.374,0,0,1-6.72,0l.7-.25A.992.992,0,0,0,15,40V37.74A7.9,7.9,0,0,0,17,38a8.242,8.242,0,0,0,2-.26V40A.992.992,0,0,0,19.66,40.94ZM17,36a6.009,6.009,0,0,1-6-6V25.94A7.792,7.792,0,0,0,12,26a10.362,10.362,0,0,0,4.39-1.08A8.622,8.622,0,0,1,20,24a3.237,3.237,0,0,1,2.4.8c.18.13.38.28.6.42V30A6,6,0,0,1,17,36Zm0-19a7,7,0,0,1,6.97,6.47c-.12-.09-.24-.18-.37-.27A5.178,5.178,0,0,0,20,22a10.362,10.362,0,0,0-4.39,1.08A8.622,8.622,0,0,1,12,24a3.589,3.589,0,0,1-1.58-.28.953.953,0,0,0-.4-.08A7,7,0,0,1,17,17ZM5,37a4.015,4.015,0,0,1,2-3.46.988.988,0,0,0,.47-.64.958.958,0,0,0-.13-.77A2.13,2.13,0,0,1,7,31a2.006,2.006,0,0,1,2-2v1a7.949,7.949,0,0,0,2.34,5.66A7.74,7.74,0,0,0,13,36.92V39.3L8.46,40.95A4.015,4.015,0,0,1,5,37ZM16,60H10v-.44a4.99,4.99,0,0,0-1.14-3.17A3.527,3.527,0,0,1,8,54c0-1.59.75-2.34,1.71-3.29A1.033,1.033,0,0,0,10,50V48H8v1.59A5.866,5.866,0,0,0,6,54a5.449,5.449,0,0,0,1.32,3.66A3.008,3.008,0,0,1,8,59.56V60H4V48.2a5.022,5.022,0,0,1,3.29-4.7l3.41-1.24L16,49.33ZM14.19,43.58a9.61,9.61,0,0,0,5.62,0L17,47.33ZM30.33,60h-.58l-1.76-6.18A5.924,5.924,0,0,0,26,49.59V48H24v2a1.033,1.033,0,0,0,.29.71c.96.95,1.71,1.7,1.71,3.29a3.527,3.527,0,0,1-.86,2.39A4.99,4.99,0,0,0,24,59.56V60H18V49.33l5.3-7.07,4.31,1.57a5,5,0,0,1,3.16,3.56l1.72,7.35Zm6,0H32.49l6.18-15h3.84Zm9.12-19.98L43.46,43H38.78l-.5-2H40a1,1,0,0,0,.83-.45l1.28-1.92a1,1,0,0,1,1-.43l1.68.28a.967.967,0,0,1,.75.59A1.007,1.007,0,0,1,45.45,40.02Z"></path><rect x="13" y="27" width="2" height="2"></rect><rect x="19" y="27" width="2" height="2"></rect><path d="M17,32a1,1,0,0,1-1-1H14a3,3,0,0,0,6,0H18A1,1,0,0,1,17,32Z"></path><path d="M59,9H35a3,3,0,0,0-3,3V26a3,3,0,0,0,3,3h7v3a1,1,0,0,0,1.555.832L49.3,29H59a3,3,0,0,0,3-3V12A3,3,0,0,0,59,9Zm1,17a1,1,0,0,1-1,1H49a1.006,1.006,0,0,0-.555.168L44,30.131V28a1,1,0,0,0-1-1H35a1,1,0,0,1-1-1V12a1,1,0,0,1,1-1H59a1,1,0,0,1,1,1Z"></path><rect x="42" y="14" width="14" height="2"></rect><rect x="38" y="18" width="18" height="2"></rect><rect x="38" y="22" width="16" height="2"></rect><rect x="38" y="14" width="2" height="2"></rect></g></svg>