<svg xmlns="http://www.w3.org/2000/svg" viewBox="0 0 64 64" x="0px" y="0px"><g><polygon points="18.348 36.997 32 36.998 32 29 20.74 29 18.348 36.997"></polygon><path d="M15,49a5,5,0,1,0,5,5A5.006,5.006,0,0,0,15,49Zm1,6H14V53h2Z"></path><polygon points="34 29 34 36.999 47.277 37 42.705 29 34 29"></polygon><path d="M41.283,26.512A3,3,0,0,0,38.679,25H20.472a2.982,2.982,0,0,0-2.683,1.658L11.9,38.447a1,1,0,0,1-.771.545l-6.248.781A1,1,0,0,0,4,40.766V49H7v2H4v1a1,1,0,0,0,1,1H8.08a6.991,6.991,0,0,1,13.84,0H32V39H18.34a2,2,0,0,1-1.608-.814,1.974,1.974,0,0,1-.3-1.774l2.4-7.989A1.989,1.989,0,0,1,20.74,27H41.562ZM19,41h4v2H19Z"></path><path d="M55.92,53H59a1,1,0,0,0,1-1V51H57V49h3V47H56a2,2,0,0,1-2-2V43a2,2,0,0,1,2-2h3.707a.989.989,0,0,0-.542-.292L48.918,39H34V53h8.08a6.991,6.991,0,0,1,13.84,0ZM40,43H36V41h4Z"></path><path d="M49,49a5,5,0,1,0,5,5A5.006,5.006,0,0,0,49,49Zm1,6H48V53h2Z"></path><path d="M20.055,23.029c.138-.012.276-.029.417-.029H20.05Z"></path><circle cx="30" cy="22" r="1"></circle><rect x="56" y="43" width="4" height="2"></rect><path d="M38.192,9.9a1,1,0,0,1-1.088.049A14.274,14.274,0,0,0,33.5,8.458a1,1,0,0,1-.732-.8L32.153,4H27.847l-.611,3.655a1,1,0,0,1-.732.8A14.237,14.237,0,0,0,22.9,9.952,1,1,0,0,1,21.808,9.9L18.8,7.747l-3.05,3.05L17.9,13.808a1,1,0,0,1,.049,1.089A14.237,14.237,0,0,0,16.458,18.5a1,1,0,0,1-.8.732L12,19.847v4.306l3.655.611a1,1,0,0,1,.672.444A4.962,4.962,0,0,1,18.119,23.6,12.362,12.362,0,0,1,18,22a11.992,11.992,0,0,1,6-10.4,12.228,12.228,0,0,1,12,0A11.839,11.839,0,0,1,41.8,24.1,4.967,4.967,0,0,1,43.02,25.52l.334.585c.062-.2.135-.4.188-.605a1,1,0,0,1,.8-.736L48,24.153V19.847l-3.655-.611a1,1,0,0,1-.8-.732A14.239,14.239,0,0,0,42.048,14.9a1,1,0,0,1,.049-1.089L44.253,10.8,41.2,7.747Z"></path><path d="M38.679,23a5,5,0,0,1,1.254.164c.006-.054,0-.11.009-.164H39V21h.935a9.965,9.965,0,0,0-.828-3.1l-.813.469-1-1.732.813-.47a9.933,9.933,0,0,0-2.272-2.271l-.469.813-1.732-1,.467-.81a9.99,9.99,0,0,0-3.1-.809V13H29v-.913a9.975,9.975,0,0,0-3.1.809l.467.81-1.732,1-.469-.813a9.917,9.917,0,0,0-2.272,2.272l.813.469-1,1.732-.813-.469a9.945,9.945,0,0,0-.828,3.1H21v2h6.184A2.966,2.966,0,0,1,27,22a3,3,0,0,1,3-3,2.951,2.951,0,0,1,1.285.3l2.958-2.958,1.414,1.414L32.7,20.715A2.856,2.856,0,0,1,32.816,23ZM30,17a5.006,5.006,0,0,0-5,5H23a7.008,7.008,0,0,1,7-7Z"></path></g></svg>