<svg xmlns="http://www.w3.org/2000/svg" viewBox="0 0 64 64" x="0px" y="0px"><g data-name="Working Desk-Working-Desk-Study-Computer"><path d="M36,53.28V51a3,3,0,0,0-3-3H28V45H26v3H21a3,3,0,0,0-3,3v2.28a2,2,0,1,0,2,0V51a1,1,0,0,1,1-1h5v3.28a2,2,0,1,0,2,0V50h5a1,1,0,0,1,1,1v2.28a2,2,0,1,0,2,0Z"></path><path d="M35,42a1,1,0,0,0-1-1H20a1,1,0,0,0-1,1v1H35Z"></path><path d="M20,32a3.009,3.009,0,0,0,3,3h1V28a1,1,0,0,1,1-1h4a1,1,0,0,1,1,1v7h1a3.009,3.009,0,0,0,3-3V24a3.009,3.009,0,0,0-3-3H23a3.009,3.009,0,0,0-3,3Z"></path><rect x="26" y="29" width="2" height="10"></rect><rect x="4" y="26" width="14" height="2"></rect><rect x="7" y="30" width="2" height="26"></rect><path d="M58,19V18H40v1a1,1,0,0,0,1,1H57A1,1,0,0,0,58,19Z"></path><rect x="6" y="14" width="2" height="10"></rect><rect x="10" y="14" width="2" height="10"></rect><path d="M57,8H41a1,1,0,0,0-1,1v7H58V9A1,1,0,0,0,57,8Z"></path><path d="M45,56H57V46H45Zm4-8h4v2H49Z"></path><rect x="47" y="22" width="4" height="2"></rect><path d="M57,38H45v6H57Zm-4,4H49V40h4Z"></path><rect x="36" y="26" width="24" height="2"></rect><path d="M57,30H45v6H57Zm-4,4H49V32h4Z"></path><rect x="2" y="56" width="60" height="2"></rect></g></svg>