<svg xmlns="http://www.w3.org/2000/svg" viewBox="0 0 64 64" x="0px" y="0px"><g><path d="M61.9,54.553,56,42.764V11a3,3,0,0,0-3-3H42.482c-.222-.268-.456-.528-.7-.777A10.916,10.916,0,0,0,34.828,4.04a2.98,2.98,0,0,0-5.657,0A10.986,10.986,0,0,0,21.521,8H11a3,3,0,0,0-3,3V42.764L2.105,54.553A1,1,0,0,0,2,55v5a2,2,0,0,0,2,2H60a2,2,0,0,0,2-2V55A1,1,0,0,0,61.9,54.553ZM29,56h6v1H29ZM4.618,54l5-10H54.382l5,10ZM42.945,14H35V6.059A9,9,0,0,1,42.945,14ZM44,16h1a1,1,0,0,1,0,2H19a1,1,0,0,1,0-2H44ZM34.816,32a2.982,2.982,0,0,1-5.632,0ZM32,30A11.01,11.01,0,0,1,21.051,20h21.9A11.01,11.01,0,0,1,32,30ZM16,17a3,3,0,0,0,3,3h.051a12.993,12.993,0,0,0,6.121,10.042A9.011,9.011,0,0,0,17.059,38H14V14h5A3,3,0,0,0,16,17ZM26,32h1.1a5,5,0,0,0,9.8,0H38a7,7,0,0,1,6.92,6H19.08A7,7,0,0,1,26,32Zm20.941,6a9.011,9.011,0,0,0-8.113-7.958A12.993,12.993,0,0,0,44.949,20H45a3,3,0,0,0,0-6h5V38ZM32,4a1,1,0,0,1,1,1v9H31V5A1,1,0,0,1,32,4ZM29,6.061V14H21.055A9.014,9.014,0,0,1,29,6.061ZM10,11a1,1,0,0,1,1-1h9.214a10.974,10.974,0,0,0-.788,2H13a1,1,0,0,0-1,1V39a1,1,0,0,0,1,1H51a1,1,0,0,0,1-1V13a1,1,0,0,0-1-1H44.579a10.845,10.845,0,0,0-.785-2H53a1,1,0,0,1,1,1V42H10ZM4,60V56H27v1a2,2,0,0,0,2,2h6a2,2,0,0,0,2-2V56H60v4Z"></path><rect x="10" y="50" width="2" height="2"></rect><rect x="14" y="50" width="2" height="2"></rect><rect x="18" y="50" width="28" height="2"></rect><rect x="48" y="50" width="2" height="2"></rect><rect x="52" y="50" width="2" height="2"></rect><rect x="15" y="46" width="2" height="2"></rect><rect x="11" y="46" width="2" height="2"></rect><rect x="19" y="46" width="2" height="2"></rect><rect x="23" y="46" width="2" height="2"></rect><rect x="27" y="46" width="2" height="2"></rect><rect x="31" y="46" width="2" height="2"></rect><rect x="35" y="46" width="2" height="2"></rect><rect x="39" y="46" width="2" height="2"></rect><rect x="43" y="46" width="2" height="2"></rect><rect x="47" y="46" width="2" height="2"></rect><rect x="51" y="46" width="2" height="2"></rect><path d="M32,26a3.969,3.969,0,0,1-3.2-1.6l-1.6,1.2a6,6,0,0,0,9.6,0l-1.6-1.2A3.969,3.969,0,0,1,32,26Z"></path><rect x="58" y="30" width="2" height="2"></rect><rect x="4" y="30" width="2" height="2"></rect><rect x="4" y="24" width="2" height="2"></rect><rect x="4" y="18" width="2" height="2"></rect><rect x="58" y="24" width="2" height="2"></rect><rect x="58" y="18" width="2" height="2"></rect><rect x="57" y="5" width="2" height="2"></rect><rect x="5" y="5" width="2" height="2"></rect></g></svg>