<svg xmlns="http://www.w3.org/2000/svg" viewBox="0 0 64 64" x="0px" y="0px"><g><path d="M9,59.551c1.853-2.02,5-5.985,5-8.551A5,5,0,0,0,4,51C4,53.566,7.147,57.531,9,59.551ZM9,48a3,3,0,1,1-3,3A3,3,0,0,1,9,48Z"></path><circle cx="9" cy="51" r="1"></circle><path d="M15.53,37.642l-1.151,1.634a14.663,14.663,0,0,0,1.835,1.1L17.12,38.6A13.134,13.134,0,0,1,15.53,37.642Z"></path><path d="M53.768,48.96A9.115,9.115,0,0,1,54,50.742l2-.056a11.045,11.045,0,0,0-.28-2.177Z"></path><rect x="13" y="60" width="2" height="2"></rect><rect x="17" y="60" width="2" height="2"></rect><path d="M22.47,39.989l-.082,2q.3.014.612.013h1.428V40H23C22.822,40,22.646,40,22.47,39.989Z"></path><path d="M10.216,24.626,8.25,24.263a14.949,14.949,0,0,0-.237,2.127l2,.08A13.037,13.037,0,0,1,10.216,24.626Z"></path><path d="M18.19,41.212a15.2,15.2,0,0,0,2.072.538l.363-1.967a13.023,13.023,0,0,1-1.8-.466Z"></path><path d="M53.39,54.266l1.863.726a10.957,10.957,0,0,0,.588-2.116l-1.971-.34A9.056,9.056,0,0,1,53.39,54.266Z"></path><path d="M19.848,14.385l-.485-1.94a15.06,15.06,0,0,0-2.034.665l.755,1.852A13.033,13.033,0,0,1,19.848,14.385Z"></path><path d="M16.423,15.784,15.411,14.06a15.056,15.056,0,0,0-1.763,1.212L14.9,16.835A13.177,13.177,0,0,1,16.423,15.784Z"></path><path d="M11.4,21.121l-1.783-.9a14.919,14.919,0,0,0-.831,1.972l1.895.643A12.93,12.93,0,0,1,11.4,21.121Z"></path><path d="M23,14h.57V12H23a15.237,15.237,0,0,0-1.528.077l.2,1.99A12.961,12.961,0,0,1,23,14Z"></path><path d="M11.782,33.575a13.132,13.132,0,0,1-.822-1.66l-1.851.756a14.8,14.8,0,0,0,.95,1.918Z"></path><path d="M13.532,18.092l-1.457-1.369a14.983,14.983,0,0,0-1.352,1.658l1.635,1.15A13.236,13.236,0,0,1,13.532,18.092Z"></path><path d="M8.077,28.528a14.963,14.963,0,0,0,.367,2.108l1.94-.483a13.181,13.181,0,0,1-.318-1.828Z"></path><path d="M14.092,36.47A13.24,13.24,0,0,1,12.833,35.1l-1.562,1.249a15.309,15.309,0,0,0,1.45,1.572Z"></path><rect x="21" y="60" width="2" height="2"></rect><rect x="38.428" y="40" width="2" height="2"></rect><rect x="42.428" y="40" width="2" height="2"></rect><path d="M45,60v2a11.108,11.108,0,0,0,2.183-.217l-.393-1.961A9.116,9.116,0,0,1,45,60Z"></path><rect x="41" y="60" width="2" height="2"></rect><path d="M46.563,40.111l-.28,1.981a8.868,8.868,0,0,1,1.742.429l.671-1.884A11.027,11.027,0,0,0,46.563,40.111Z"></path><path d="M55.008,46.429a10.9,10.9,0,0,0-1.11-1.9l-1.616,1.178a8.9,8.9,0,0,1,.907,1.55Z"></path><path d="M48.5,59.293l.78,1.842a11.144,11.144,0,0,0,1.925-1.052l-1.127-1.652A9.061,9.061,0,0,1,48.5,59.293Z"></path><path d="M51.454,57.272l1.435,1.393a11.094,11.094,0,0,0,1.365-1.717l-1.68-1.084A9.1,9.1,0,0,1,51.454,57.272Z"></path><path d="M49.647,43.29a9.016,9.016,0,0,1,1.437,1.078L52.438,42.9a10.961,10.961,0,0,0-1.757-1.317Z"></path><rect x="25" y="60" width="2" height="2"></rect><rect x="30.428" y="40" width="2" height="2"></rect><rect x="33" y="60" width="2" height="2"></rect><rect x="26.428" y="40" width="2" height="2"></rect><rect x="29" y="60" width="2" height="2"></rect><rect x="34.428" y="40" width="2" height="2"></rect><rect x="37" y="60" width="2" height="2"></rect><path d="M29,22H59a1,1,0,0,0,1-1V5a1,1,0,0,0-1-1H29a1,1,0,0,0-1,1V21A1,1,0,0,0,29,22Zm.553-15.1.894-1.79,13.106,6.553a1,1,0,0,0,.9,0l13.1-6.553.894,1.79-8.092,4.046,8.352,8.352-1.414,1.414-8.824-8.824-3.127,1.564a3.014,3.014,0,0,1-2.683,0l-3.128-1.564-8.824,8.824-1.414-1.414,8.352-8.352Z"></path></g></svg>