<svg xmlns="http://www.w3.org/2000/svg" viewBox="0 0 64 64" x="0px" y="0px"><g data-name="Payment-Taxi-Service-Credit Card-Payment Method"><path d="M37,21H11a3.009,3.009,0,0,0-3,3v2.08A7,7,0,0,0,2,33V44.53a2.971,2.971,0,0,0,.32,1.34L4,49.24V52H3a1,1,0,0,0-1,1v8a1,1,0,0,0,1,1H17a1,1,0,0,0,1-1V53a1,1,0,0,0-1-1H16v-.67l2.8-3.73A.984.984,0,0,0,19,47V44.79a5.074,5.074,0,0,1,.17-1.29l.13-.5H37a3.009,3.009,0,0,0,3-3V24A3.009,3.009,0,0,0,37,21ZM16,60H4V54H16Zm3.1-23.99-1.86,6.97A6.922,6.922,0,0,0,17,44.79v1.88L14.2,50.4a.984.984,0,0,0-.2.6v1H6V49a1,1,0,0,0-.11-.45L4.11,44.97A.956.956,0,0,1,4,44.53V33a5.009,5.009,0,0,1,4-4.9V36a1,1,0,0,0,.14.51l2.43,4.05a2.956,2.956,0,0,0,2.53,1.45h.04a2.974,2.974,0,0,0,2.88-2.21l1.15-4.3a1,1,0,0,1,.47-.61,1,1,0,0,1,1.36.36A.974.974,0,0,1,19.1,36.01ZM18,31V27h2v4Zm20,9a1,1,0,0,1-1,1H19.84l1.2-4.47A2.967,2.967,0,0,0,19.3,33H21a1,1,0,0,0,1-1V26a1,1,0,0,0-1-1H13a1,1,0,0,0-1,1v6a1,1,0,0,0,1,1h3.98a2.6,2.6,0,0,0-.34.16,2.986,2.986,0,0,0-1.4,1.82l-1.15,4.3a1.008,1.008,0,0,1-.97.73.953.953,0,0,1-.83-.48L10,35.72V24a1,1,0,0,1,1-1H37a1,1,0,0,1,1,1ZM16,27v4H14V27Z"></path><path d="M33,33H30a3,3,0,0,0,0,6h3a3,3,0,0,0,0-6Zm0,4H30a1,1,0,0,1,0-2h3a1,1,0,0,1,0,2Z"></path><rect x="34" y="25" width="2" height="2"></rect><rect x="30" y="25" width="2" height="2"></rect><rect x="26" y="25" width="2" height="2"></rect><rect x="12" y="35" width="2" height="2"></rect><rect x="26" y="29" width="10" height="2"></rect><rect x="42" y="26" width="5" height="2"></rect><rect x="42" y="22" width="5" height="2"></rect><path d="M57,25a3,3,0,1,0-3,3A3,3,0,0,0,57,25Zm-4,0a1,1,0,1,1,1,1A1,1,0,0,1,53,25Z"></path><path d="M35,17a2,2,0,0,1,2,2h2a4,4,0,0,0-8,0h2A2,2,0,0,1,35,17Z"></path><path d="M62,17a3.009,3.009,0,0,0-3-3,2.942,2.942,0,0,0-1.62.49L55.96,10.7l-.8-3.18A2,2,0,0,0,53.22,6H48V3a1,1,0,0,0-1-1H37a1,1,0,0,0-1,1V6H30.78a2,2,0,0,0-1.94,1.52l-.8,3.18-1.41,3.79A2.975,2.975,0,0,0,25,14a2.995,2.995,0,0,0-1.5,5.59l1-1.72A1.016,1.016,0,0,1,24,17a1,1,0,0,1,1.87-.48l-.68,1.78,1.88.7.81-2.14a.185.185,0,0,1,.02-.07L29.69,12H54.31l2.25,6H41v2H58a1,1,0,0,1,1,1v8a1,1,0,0,1-1,1H42v2H53v2a2.006,2.006,0,0,0,2,2h4a2.006,2.006,0,0,0,2-2V21a2.942,2.942,0,0,0-.4-1.47A2.983,2.983,0,0,0,62,17ZM38,4h8V6H38Zm-7.72,6,.5-2H53.22l.5,2ZM59,34H55V32h3a3,3,0,0,0,1-.18Zm0-16a.96.96,0,0,1-.33-.06l-.53-1.43A.973.973,0,0,1,59,16a1,1,0,0,1,0,2Z"></path></g></svg>