<svg xmlns="http://www.w3.org/2000/svg" data-name="Blood Pressure-Healthcare-Sphymomanometer-Medical-Heart Rate" viewBox="0 0 64 64" x="0px" y="0px"><path d="M23.081,20.394a1,1,0,0,0,1.814.053L26.618,17H29V15H26a1,1,0,0,0-.895.553l-1.036,2.071-2.15-5.018A.965.965,0,0,0,20.958,12a1,1,0,0,0-.906.683L17.944,19l-2.007-5.356a1,1,0,0,0-.823-.641.985.985,0,0,0-.946.438L12.465,16H11v2h2a1,1,0,0,0,.832-.445l.917-1.376,2.314,6.173A1,1,0,0,0,18,23h.019a1,1,0,0,0,.929-.684l2.169-6.5Z"></path><path d="M55,28H37a5,5,0,0,0-5,5V46H31a3.009,3.009,0,0,0-3,3H22a1,1,0,0,1-1-1V31.41L34.85,17.56A9,9,0,0,0,22.12,4.84L20,6.96,17.88,4.84A9,9,0,0,0,5.15,17.56L19,31.41V48a3.009,3.009,0,0,0,3,3h6a3.009,3.009,0,0,0,3,3h1v3a5,5,0,0,0,5,5H55a5,5,0,0,0,5-5V33A5,5,0,0,0,55,28ZM6.56,16.15a7,7,0,0,1,9.9-9.9l2.83,2.83a1.027,1.027,0,0,0,1.42,0l2.83-2.83a7,7,0,0,1,9.9,9.9L20,29.59ZM32,52H31a1,1,0,0,1-1-1V49a1,1,0,0,1,1-1h1Zm26,5a3.009,3.009,0,0,1-3,3H37a3.009,3.009,0,0,1-3-3V33a3.009,3.009,0,0,1,3-3H55a3.009,3.009,0,0,1,3,3Z"></path><path d="M54,32H44a2,2,0,0,0-2,2V50a2,2,0,0,0,2,2H54a2,2,0,0,0,2-2V34A2,2,0,0,0,54,32Zm0,18H44V34H54Z"></path><rect x="46" y="36" width="6" height="2"></rect><rect x="46" y="40" width="6" height="2"></rect><rect x="48" y="44" width="4" height="2"></rect><rect x="52" y="54" width="2" height="2"></rect><rect x="46" y="54" width="4" height="2"></rect><rect x="42" y="54" width="2" height="2"></rect><rect x="36" y="36" width="4" height="2"></rect><rect x="36" y="40" width="4" height="2"></rect><rect x="36" y="44" width="4" height="2"></rect></svg>