<svg xmlns="http://www.w3.org/2000/svg" viewBox="0 0 64 64" x="0px" y="0px"><g data-name="skyscraper-building-tower-city-real estate"><polygon points="23 6 25 6 25 8 27 8 27 6 29 6 29 8 31 8 31 6 33 6 33 8 35 8 35 6 37 6 37 8 39 8 39 6 41 6 41 8 43 8 43 4 21 4 21 8 23 8 23 6"></polygon><path d="M59,60V14H49V60H47V10H17V60H15V14H5V60H2v2H62V60ZM55,16h2v2H55Zm0,4h2v2H55Zm0,4h2v2H55Zm0,4h2v2H55Zm0,4h2v2H55Zm0,4h2v2H55Zm0,4h2v2H55Zm0,4h2v2H55Zm0,4h2v2H55Zm0,4h2v2H55Zm0,4h2v2H55ZM51,16h2v2H51Zm0,4h2v2H51Zm0,4h2v2H51Zm0,4h2v2H51Zm0,4h2v2H51Zm0,4h2v2H51Zm0,4h2v2H51Zm0,4h2v2H51Zm0,4h2v2H51Zm0,4h2v2H51Zm0,4h2v2H51ZM11,16h2v2H11Zm0,4h2v2H11Zm0,4h2v2H11Zm0,4h2v2H11Zm0,4h2v2H11Zm0,4h2v2H11Zm0,4h2v2H11Zm0,4h2v2H11Zm0,4h2v2H11Zm0,4h2v2H11Zm0,4h2v2H11ZM7,16H9v2H7Zm0,4H9v2H7Zm0,4H9v2H7Zm0,4H9v2H7Zm0,4H9v2H7Zm0,4H9v2H7Zm0,4H9v2H7Zm0,4H9v2H7Zm0,4H9v2H7Zm0,4H9v2H7Zm0,4H9v2H7ZM43,12h2v2H43Zm0,4h2v2H43Zm0,4h2v2H43Zm0,4h2v2H43Zm0,4h2v2H43Zm0,4h2v2H43Zm0,4h2v2H43Zm0,4h2v2H43Zm0,4h2v2H43Zm0,4h2v2H43Zm0,4h2v2H43ZM39,12h2v2H39Zm0,4h2v2H39Zm0,4h2v2H39Zm0,4h2v2H39Zm0,4h2v2H39Zm0,4h2v2H39Zm0,4h2v2H39Zm0,4h2v2H39Zm0,4h2v2H39Zm0,4h2v2H39Zm0,4h2v2H39ZM35,12h2v2H35Zm0,4h2v2H35Zm0,4h2v2H35Zm0,4h2v2H35Zm0,4h2v2H35Zm0,4h2v2H35Zm0,4h2v2H35Zm0,4h2v2H35Zm0,4h2v2H35Zm0,4h2v2H35Zm0,4h2v2H35ZM31,12h2v2H31Zm0,4h2v2H31Zm0,4h2v2H31Zm0,4h2v2H31Zm0,4h2v2H31Zm0,4h2v2H31Zm0,4h2v2H31Zm0,4h2v2H31Zm0,4h2v2H31Zm0,4h2v2H31Zm0,4h2v2H31ZM27,12h2v2H27Zm0,4h2v2H27Zm0,4h2v2H27Zm0,4h2v2H27Zm0,4h2v2H27Zm0,4h2v2H27Zm0,4h2v2H27Zm0,4h2v2H27Zm0,4h2v2H27Zm0,4h2v2H27Zm0,4h2v2H27ZM23,12h2v2H23Zm0,4h2v2H23Zm0,4h2v2H23Zm0,4h2v2H23Zm0,4h2v2H23Zm0,4h2v2H23Zm0,4h2v2H23Zm0,4h2v2H23Zm0,4h2v2H23Zm0,4h2v2H23Zm0,4h2v2H23ZM19,12h2v2H19Zm0,4h2v2H19Zm0,4h2v2H19Zm0,4h2v2H19Zm0,4h2v2H19Zm0,4h2v2H19Zm0,4h2v2H19Zm0,4h2v2H19Zm0,4h2v2H19Zm0,4h2v2H19Zm0,4h2v2H19Zm9,8V58H26v2H24V58H22v2H20V57a1,1,0,0,1,1-1h8a1,1,0,0,1,1,1v3Zm14,0V58H40v2H38V58H36v2H34V57a1,1,0,0,1,1-1h8a1,1,0,0,1,1,1v3Z"></path></g></svg>