<svg xmlns="http://www.w3.org/2000/svg" viewBox="0 0 64 64" x="0px" y="0px"><g><path d="M16.765,34.169A2.005,2.005,0,0,0,18.387,35H24a1,1,0,0,0,.895-.553L25.618,33h.764l1.723,3.447A1,1,0,0,0,29,37h6a1,1,0,0,0,.9-.553L37.618,33h.764l.723,1.447A1,1,0,0,0,40,35h5.612a2,2,0,0,0,1.9-2.633L44.4,23.051A3,3,0,0,0,41.559,21H41V15.583A15.059,15.059,0,0,0,36.112,4.5C33.688,2.285,32.642,2,32,2s-1.689.285-4.113,2.5A15.06,15.06,0,0,0,23,15.583V21h-.559A3,3,0,0,0,19.6,23.051L16.49,32.367A2.007,2.007,0,0,0,16.765,34.169ZM34.382,35H29.618l-1-2h6.764Zm7.177-12a1,1,0,0,1,.949.684L45.612,33H40.618l-.267-.535A1.987,1.987,0,0,0,41,31V23ZM25,15.583a13.05,13.05,0,0,1,4.238-9.6C31.323,4.069,31.979,4,32,4s.681.069,2.768,1.978A13.059,13.059,0,0,1,39,15.583V31H33V24H31v7H25Zm-3.507,8.1A1,1,0,0,1,22.441,23H23v8a1.987,1.987,0,0,0,.649,1.465L23.382,33H18.388Z"></path><path d="M32,17a1,1,0,0,1-1-1H29a3,3,0,0,0,2,2.816V20h2V18.816A2.993,2.993,0,0,0,32,13a1,1,0,1,1,1-1h2a3,3,0,0,0-2-2.816V8H31V9.184A2.993,2.993,0,0,0,32,15a1,1,0,0,1,0,2Z"></path><rect x="31" y="44" width="2" height="2"></rect><path d="M26,45c0,4.514,5.262,7.723,5.485,7.857a1,1,0,0,0,1.03,0C32.738,52.723,38,49.514,38,45a6,6,0,0,0-12,0Zm10,0c0,2.681-2.815,4.958-4,5.8-1.185-.84-4-3.117-4-5.8a4,4,0,0,1,8,0Z"></path><path d="M42,37H40a7.008,7.008,0,0,0,7,7V42A5.006,5.006,0,0,1,42,37Z"></path><path d="M17,42v2a7.008,7.008,0,0,0,7-7H22A5.006,5.006,0,0,1,17,42Z"></path><rect x="49" y="42" width="2" height="2"></rect><rect x="13" y="42" width="2" height="2"></rect><rect x="47" y="9" width="2" height="6"></rect><rect x="47" y="17" width="2" height="2"></rect><rect x="54" y="15" width="2" height="6"></rect><rect x="54" y="23" width="2" height="2"></rect><rect x="15" y="9" width="2" height="6"></rect><rect x="15" y="17" width="2" height="2"></rect><rect x="8" y="15" width="2" height="6"></rect><rect x="8" y="23" width="2" height="2"></rect><path d="M56.46,60A5.99,5.99,0,0,0,52,50c-.113,0-.227,0-.339.01a6,6,0,0,0-11.407.272A2.987,2.987,0,0,0,36,53h2a1,1,0,0,1,2,0,1.516,1.516,0,0,1-.014.172,1,1,0,0,0,1.508.966A.976.976,0,0,1,42,54a1,1,0,0,1,0,2v2a2.994,2.994,0,1,0,0-5.988V52a4,4,0,0,1,7.935-.707,1,1,0,0,0,1.209.8A3.826,3.826,0,0,1,52,52a4,4,0,0,1,0,8H12a4,4,0,0,1,0-8,3.848,3.848,0,0,1,.857.095,1,1,0,0,0,1.208-.8A4,4,0,0,1,22,52v.013A2.994,2.994,0,1,0,22,58V56a1,1,0,0,1,0-2,.974.974,0,0,1,.506.138,1,1,0,0,0,1.508-.971A1.253,1.253,0,0,1,24,53a1,1,0,0,1,2,0h2a2.987,2.987,0,0,0-4.254-2.718,6,6,0,0,0-11.408-.272C12.226,50,12.113,50,12,50A5.99,5.99,0,0,0,7.54,60H2v2H62V60Z"></path></g></svg>