<svg xmlns="http://www.w3.org/2000/svg" viewBox="0 0 64 64" x="0px" y="0px"><g data-name="Tokyo Tower-Tokyo-Japan-Landmark-Asia"><polygon points="30.05 34 33.95 34 33.68 28 30.32 28 30.05 34"></polygon><polygon points="30.96 14 30.77 18 33.23 18 33.04 14 30.96 14"></polygon><rect x="29" y="36" width="6" height="4"></rect><polygon points="44.42 56 42.81 53.6 40.41 56 44.42 56"></polygon><polygon points="30.41 26 33.59 26 33.32 20 30.68 20 30.41 26"></polygon><polygon points="34 10 33 10 33 2 31 2 31 10 30 10 30 12 34 12 34 10"></polygon><polygon points="32 47.25 34.05 42 29.95 42 32 47.25"></polygon><polygon points="21.19 53.6 19.58 56 23.59 56 21.19 53.6"></polygon><path d="M25.43,53.23A7.2,7.2,0,0,1,27.04,51H22.95l-.62.92,2.54,2.54Z"></path><polygon points="28.24 43.14 24.29 49 30.53 49 28.24 43.14"></polygon><polygon points="39.71 49 35.76 43.14 33.47 49 39.71 49"></polygon><path d="M38.57,53.23l.56,1.23,2.54-2.54L41.05,51H36.96A7.2,7.2,0,0,1,38.57,53.23Z"></path><polygon points="47.12 60 45.77 58 40.73 58 41.64 60 22.36 60 23.27 58 18.23 58 16.88 60 2 60 2 62 62 62 62 60 47.12 60"></polygon></g></svg>