<svg xmlns="http://www.w3.org/2000/svg" viewBox="0 0 64 64" x="0px" y="0px"><g><path d="M59,34H55V31a6.988,6.988,0,0,0-10.5-6.053A6.953,6.953,0,0,0,41,24a7.026,7.026,0,0,0-1,.08V19a1,1,0,0,0-1-1H36V13A10.976,10.976,0,0,0,21,2.764,10.976,10.976,0,0,0,6,13v5H3a1,1,0,0,0-1,1V61a1,1,0,0,0,1,1H59a1,1,0,0,0,1-1V35A1,1,0,0,0,59,34Zm-6-3v3H48V31a6.963,6.963,0,0,0-1.787-4.655A4.942,4.942,0,0,1,48,26,5.006,5.006,0,0,1,53,31Zm-8.5-3.562A4.981,4.981,0,0,1,46,31v3H43V31A4.981,4.981,0,0,1,44.5,27.438ZM41,26a4.942,4.942,0,0,1,1.787.345A6.963,6.963,0,0,0,41,31v3H40V26.1A5,5,0,0,1,41,26Zm-5,8V31a4.977,4.977,0,0,1,2-3.974V34Zm-1.414,2L34,36.586,33.414,36ZM25,4a9.01,9.01,0,0,1,9,9v5H28V13a10.98,10.98,0,0,0-4.512-8.863A8.977,8.977,0,0,1,25,4Zm-4,.95A9,9,0,0,1,26,13v5H16V13A9,9,0,0,1,21,4.95ZM8,13A8.951,8.951,0,0,1,18.512,4.137,10.98,10.98,0,0,0,14,13v5H8Zm.586,7L7,21.586,5.414,20ZM4,21.414l2.293,2.293a1,1,0,0,0,1.414,0L10,21.414V60H4ZM12,20h2v5h2V20H34v5h2V20h2v4.685A7,7,0,0,0,34,31v3H31a1,1,0,0,0-1,1V60H12ZM32,37.414l1.293,1.293a1,1,0,0,0,1.414,0L36,37.414V60H32ZM58,60H38V36h3v3h2V36H53v3h2V36h3Z"></path></g></svg>