<svg xmlns="http://www.w3.org/2000/svg" viewBox="0 0 64 64" x="0px" y="0px"><g><path d="M61,54H59V21a3,3,0,0,0-3-3H46V16h9a3,3,0,0,0,3-3V7a1,1,0,0,0-1-1H52V5a3,3,0,0,0-3-3H17a3,3,0,0,0-3,3V18H8a3,3,0,0,0-3,3V54H3a1,1,0,0,0-1,1v4a3,3,0,0,0,3,3H59a3,3,0,0,0,3-3V55A1,1,0,0,0,61,54ZM56,13a1,1,0,0,1-1,1H53a1,1,0,0,1-1-1V8h4ZM49,4a1,1,0,0,1,1,1v8a2.966,2.966,0,0,0,.184,1H46V5a1,1,0,0,1,1-1ZM16,5a1,1,0,0,1,1-1H44.184A2.966,2.966,0,0,0,44,5V45H16ZM7,21a1,1,0,0,1,1-1h6V45a2,2,0,0,0,2,2H44a2,2,0,0,0,2-2V20H56a1,1,0,0,1,1,1V54H7ZM60,59a1,1,0,0,1-1,1H5a1,1,0,0,1-1-1V56H60Z"></path><rect x="28" y="57" width="8" height="2"></rect><path d="M21,18h8a1,1,0,0,0,1-1V11a1,1,0,0,0-1-1H21a1,1,0,0,0-1,1v6A1,1,0,0,0,21,18Zm1-6h6v4H22Z"></path><rect x="32" y="15" width="8" height="2"></rect><rect x="32" y="11" width="4" height="2"></rect><rect x="20" y="22" width="20" height="2"></rect><rect x="20" y="28" width="20" height="2"></rect><rect x="20" y="34" width="20" height="2"></rect></g></svg>