<svg xmlns="http://www.w3.org/2000/svg" viewBox="0 0 64 64" x="0px" y="0px"><g><rect x="43" y="10" width="8" height="2"></rect><rect x="4" y="14" width="56" height="4"></rect><rect x="13" y="10" width="8" height="2"></rect><rect x="15" y="4" width="4" height="4"></rect><rect x="45" y="4" width="4" height="4"></rect><path d="M55,52V20H9V52ZM44,24h2V22h2v2h2v2H48v2H46V26H44ZM25.293,36.293l8-8A1,1,0,0,1,35,29v7h3a1,1,0,0,1,.707,1.707l-8,8A1,1,0,0,1,29,45V38H26a1,1,0,0,1-.707-1.707ZM14,24h6v2H14Z"></path><polygon points="60 54 53 54 53 57 51 57 51 54 43 54 43 57 41 57 41 54 33 54 33 57 31 57 31 54 23 54 23 57 21 57 21 54 13 54 13 57 11 57 11 54 4 54 4 60 60 60 60 54"></polygon><path d="M31,37v5.586L35.586,38H34a1,1,0,0,1-1-1V31.414L28.414,36H30A1,1,0,0,1,31,37Z"></path></g></svg>