<svg xmlns="http://www.w3.org/2000/svg" viewBox="0 0 64 64" x="0px" y="0px"><g><path d="M61,7H3A1,1,0,0,0,2,8V56a1,1,0,0,0,1,1H61a1,1,0,0,0,1-1V8A1,1,0,0,0,61,7ZM4,9H60V19H4ZM4,55V21H60V55Z"></path><rect x="31" y="25" width="2" height="26"></rect><rect x="6" y="25" width="6" height="2"></rect><rect x="14" y="25" width="14" height="2"></rect><rect x="6" y="31" width="6" height="2"></rect><rect x="14" y="31" width="14" height="2"></rect><rect x="6" y="37" width="6" height="2"></rect><rect x="14" y="37" width="14" height="2"></rect><rect x="6" y="43" width="6" height="2"></rect><rect x="14" y="43" width="14" height="2"></rect><rect x="6" y="49" width="6" height="2"></rect><rect x="14" y="49" width="14" height="2"></rect><rect x="36" y="25" width="6" height="2"></rect><rect x="44" y="25" width="14" height="2"></rect><rect x="36" y="31" width="6" height="2"></rect><rect x="44" y="31" width="14" height="2"></rect><rect x="36" y="37" width="6" height="2"></rect><rect x="44" y="37" width="14" height="2"></rect><rect x="36" y="43" width="6" height="2"></rect><rect x="44" y="43" width="14" height="2"></rect><rect x="36" y="49" width="6" height="2"></rect><rect x="44" y="49" width="14" height="2"></rect><path d="M16.921,10.553l-1.789.894L16.408,14H14V13H12v2a1,1,0,0,0,1,1h8V14H18.645Z"></path><rect x="36" y="11" width="4" height="2"></rect><rect x="42" y="11" width="10" height="2"></rect><rect x="36" y="15" width="8" height="2"></rect><rect x="46" y="15" width="6" height="2"></rect></g></svg>