<svg xmlns="http://www.w3.org/2000/svg" viewBox="0 0 64 64" x="0px" y="0px"><g data-name="Money-Time"><path d="M31,29h2a1,1,0,0,1,1,1h2a3,3,0,0,0-3-3V26H31v1a3,3,0,0,0,0,6h2a1,1,0,0,1,0,2H31a1,1,0,0,1-1-1H28a3,3,0,0,0,3,3v1h2V37a3,3,0,0,0,0-6H31a1,1,0,0,1,0-2Z"></path><path d="M33,23.059V16H31v7.059A9,9,0,1,0,40.941,33H46V31H40.941A9.012,9.012,0,0,0,33,23.059ZM32,39a7,7,0,1,1,7-7A7.008,7.008,0,0,1,32,39Z"></path><path d="M32,2A30,30,0,1,0,62,32,30.034,30.034,0,0,0,32,2Zm0,58A28,28,0,1,1,60,32,28.032,28.032,0,0,1,32,60Z"></path><path d="M32,6A26,26,0,1,0,58,32,26.03,26.03,0,0,0,32,6Zm0,50A24,24,0,1,1,56,32,24.028,24.028,0,0,1,32,56Z"></path><rect x="31" y="10" width="2" height="2"></rect><rect x="20.5" y="12.813" width="2" height="2" transform="translate(-4.026 12.598) rotate(-29.995)"></rect><rect x="12.813" y="20.5" width="2" height="2" transform="translate(-11.713 22.715) rotate(-60.005)"></rect><rect x="10" y="31" width="2" height="2"></rect><rect x="12.813" y="41.5" width="2" height="2" transform="translate(-19.397 12.598) rotate(-29.995)"></rect><rect x="20.5" y="49.186" width="2" height="2" transform="translate(-32.713 43.718) rotate(-60.005)"></rect><rect x="31" y="52" width="2" height="2"></rect><rect x="41.5" y="49.186" width="2" height="2" transform="translate(-19.397 27.968) rotate(-29.995)"></rect><rect x="49.186" y="41.5" width="2" height="2" transform="translate(-11.711 64.719) rotate(-60.005)"></rect><rect x="52" y="31" width="2" height="2"></rect><rect x="49.186" y="20.5" width="2" height="2" transform="translate(-4.027 27.969) rotate(-29.995)"></rect><rect x="41.5" y="12.813" width="2" height="2" transform="translate(9.29 43.716) rotate(-60.005)"></rect></g></svg>