<svg xmlns="http://www.w3.org/2000/svg" viewBox="0 0 64 64" x="0px" y="0px"><g><path d="M33,20.051V15H31v5.051A12.006,12.006,0,0,0,20.051,31H15v2h5.051A12,12,0,1,0,33,20.051ZM28,41.159V39a4,4,0,1,1,8,0v2.159a9.933,9.933,0,0,1-8,0ZM34,30a2,2,0,0,1-4,0V28a2,2,0,0,1,4,0Zm4,9.981V39a5.959,5.959,0,0,0-3.893-5.615A3.99,3.99,0,0,0,36,30V28a4,4,0,0,0-8,0v2a3.992,3.992,0,0,0,1.9,3.388A6,6,0,0,0,26,39v.981a10,10,0,1,1,12,0Z"></path><path d="M32,2A30,30,0,1,0,62,32,30.034,30.034,0,0,0,32,2Zm0,58A28,28,0,1,1,60,32,28.032,28.032,0,0,1,32,60Z"></path><path d="M32,6A26,26,0,1,0,58,32,26.03,26.03,0,0,0,32,6Zm0,50A24,24,0,1,1,56,32,24.028,24.028,0,0,1,32,56Z"></path><rect x="31" y="10" width="2" height="2"></rect><rect x="20.5" y="12.813" width="2" height="2" transform="translate(-4.026 12.598) rotate(-29.995)"></rect><rect x="12.813" y="20.5" width="2" height="2" transform="translate(-11.713 22.715) rotate(-60.005)"></rect><rect x="10" y="31" width="2" height="2"></rect><rect x="12.813" y="41.5" width="2" height="2" transform="translate(-19.397 12.598) rotate(-29.995)"></rect><rect x="20.5" y="49.186" width="2" height="2" transform="translate(-32.713 43.718) rotate(-60.005)"></rect><rect x="31" y="52" width="2" height="2"></rect><rect x="41.5" y="49.186" width="2" height="2" transform="translate(-19.397 27.968) rotate(-29.995)"></rect><rect x="49.186" y="41.5" width="2" height="2" transform="translate(-11.711 64.719) rotate(-60.005)"></rect><rect x="52" y="31" width="2" height="2"></rect><rect x="49.186" y="20.5" width="2" height="2" transform="translate(-4.027 27.969) rotate(-29.995)"></rect><rect x="41.5" y="12.813" width="2" height="2" transform="translate(9.29 43.716) rotate(-60.005)"></rect></g></svg>