<svg xmlns="http://www.w3.org/2000/svg" viewBox="0 0 64 64" x="0px" y="0px"><g data-name="Tow Truck-Crane-Vehicle-Car-Crane Truck"><circle cx="46" cy="47" r="1"></circle><polygon points="31 27 29.512 27 26.634 31 31 31 31 27"></polygon><path d="M37,44v4h2.08A6.634,6.634,0,0,1,39,47a7.02,7.02,0,0,1,.68-3Z"></path><path d="M46,42a5,5,0,1,0,5,5A5,5,0,0,0,46,42Zm0,8a3,3,0,1,1,3-3A3,3,0,0,1,46,50Z"></path><path d="M43.66,40.41,40.65,38H37v4h4.11A7.042,7.042,0,0,1,43.66,40.41Z"></path><polygon points="4.75 47.25 7 48.38 7 45 3.62 45 4.75 47.25"></polygon><rect x="6" y="38" width="2" height="2"></rect><path d="M30,21h2V20a.928.928,0,0,0-.29-.69A.949.949,0,0,0,31,19a1,1,0,0,0-1,1Z"></path><path d="M57.67,48l2.35-1.76L54.79,44H52.32A7.02,7.02,0,0,1,53,47a6.634,6.634,0,0,1-.08,1Z"></path><circle cx="18" cy="47" r="1"></circle><path d="M18,42a5,5,0,1,0,5,5A5,5,0,0,0,18,42Zm0,8a3,3,0,1,1,3-3A3,3,0,0,1,18,50Z"></path><path d="M35,48V24a1,1,0,0,0-1-1H28.03a1.028,1.028,0,0,0-.82.42l-5.9,8.34a2.957,2.957,0,0,1-2.12,1.36L8.6,34.53A3.005,3.005,0,0,0,6.41,36H8a2.006,2.006,0,0,1,2,2v2a2.006,2.006,0,0,1-2,2H6v1H7a2.006,2.006,0,0,1,2,2v3h2.08A6.634,6.634,0,0,1,11,47a7,7,0,0,1,14,0,6.634,6.634,0,0,1-.08,1ZM33,37H29V35h4Zm-8.083-4.949a1.988,1.988,0,0,1-.088-1.946,1.051,1.051,0,0,1,.083-.136l2.977-4.137A2.005,2.005,0,0,1,29.512,25H31a2,2,0,0,1,2,2v4a2,2,0,0,1-2,2H26.618A1.985,1.985,0,0,1,24.917,32.051Z"></path><rect x="30" y="13" width="2" height="3"></rect><rect x="24.697" y="15.197" width="2" height="3" transform="translate(-4.28 23.061) rotate(-45)"></rect><rect x="34.803" y="15.697" width="3" height="2" transform="translate(-1.173 30.561) rotate(-45)"></rect><path d="M57.1,29.83l-2.3-3.97a4.046,4.046,0,0,1-1.73.99l2.09,3.62-.37,1.36-1.36-.36-.79-1.37-1.74,1,1,1.73a1.056,1.056,0,0,0,.61.47l1.75.46a2.017,2.017,0,0,0,.54.08,1.914,1.914,0,0,0,.99-.27,1.968,1.968,0,0,0,.94-1.21l.47-1.77A1.055,1.055,0,0,0,57.1,29.83Z"></path><path d="M54,23a2.006,2.006,0,0,1-2,2,1.5,1.5,0,0,1-.37-.04L41.9,36H37V34.87l13.04-11.5A1.5,1.5,0,0,1,50,23a2,2,0,0,1,4,0Z"></path></g></svg>