<svg xmlns="http://www.w3.org/2000/svg" viewBox="0 0 48 48" x="0px" y="0px"><title>Shipping</title><g data-name="Shipping"><path d="M45.25,22.918,40.9,19.438A2,2,0,0,0,39.649,19H32.436L19.733,5.319A1,1,0,0,0,19,5H13a1,1,0,0,0-.814,1.581L21.057,19H9.566L6.857,14.485A1,1,0,0,0,6,14H4a1,1,0,0,0-1,1v9a1,1,0,0,0,.684.949l12.015,4a1.03,1.03,0,0,0,.316.051h5.042L12.186,41.419A1,1,0,0,0,13,43h6a1,1,0,0,0,.733-.319L32.436,29H44a2,2,0,0,0,2-2V24.48A2,2,0,0,0,45.25,22.918ZM41,22.081,42.149,23H41ZM14.943,7h3.621L29.707,19H23.515ZM5,16h.434l1.8,3H5ZM18.564,41H14.943l8.572-12h6.192ZM16.177,27,5,23.279V21H39v3a1,1,0,0,0,1,1h4l0,2Z"></path><rect x="35" y="22" width="2" height="2"></rect><rect x="31" y="22" width="2" height="2"></rect><rect x="27" y="22" width="2" height="2"></rect><rect x="23" y="22" width="2" height="2"></rect><rect x="19" y="22" width="2" height="2"></rect><rect x="15" y="22" width="2" height="2"></rect><rect x="6" y="7" width="5" height="2"></rect><rect x="2" y="7" width="2" height="2"></rect><rect x="7" y="11" width="6" height="2"></rect><rect x="3" y="11" width="2" height="2"></rect><rect x="6" y="31" width="5" height="2"></rect><rect x="2" y="31" width="2" height="2"></rect><rect x="7" y="35" width="6" height="2"></rect><rect x="3" y="35" width="2" height="2"></rect></g></svg>