<svg xmlns="http://www.w3.org/2000/svg" viewBox="0 0 64 64" x="0px" y="0px"><g><path d="M41,8H29a1,1,0,0,0-1,1v6a1,1,0,0,0,1,1H41a1,1,0,0,0,1-1V9A1,1,0,0,0,41,8Zm-1,6H30V10H40Z"></path><path d="M57,8H47V3a1,1,0,0,0-1-1H22a5.006,5.006,0,0,0-5,5V8H7a5.006,5.006,0,0,0-5,5V45a5.006,5.006,0,0,0,5,5H25.867l-.75,6H22a1,1,0,0,0-1,1v4a1,1,0,0,0,1,1H42a1,1,0,0,0,1-1V57a1,1,0,0,0-1-1H38.883l-.75-6H57a5.006,5.006,0,0,0,5-5V13A5.006,5.006,0,0,0,57,8ZM43,32H22v2H43v2H22a3,3,0,0,1,0-6H43ZM25,28V4H45V28ZM19,7a3,3,0,0,1,3-3h1V28H22a4.964,4.964,0,0,0-.927.094c-.1.018-.186.047-.28.07a4.982,4.982,0,0,0-.6.186c-.1.039-.2.082-.293.126a5.261,5.261,0,0,0-.528.287c-.084.053-.17.1-.251.16-.04.028-.085.049-.124.079ZM7,10H17V33a4.995,4.995,0,0,0,5,5H44a1,1,0,0,0,1-1V30h1a1,1,0,0,0,1-1V10H57a3,3,0,0,1,3,3V40H4V13A3,3,0,0,1,7,10ZM41,60H23V58H41Zm-4.133-4H27.133l.75-6h8.234ZM57,48H7a3,3,0,0,1-3-3V42H60v3A3,3,0,0,1,57,48Z"></path><path d="M55.71,44.29a1.155,1.155,0,0,0-.33-.21.949.949,0,0,0-.58-.06.636.636,0,0,0-.18.06.556.556,0,0,0-.17.09.955.955,0,0,0-.16.12,1.155,1.155,0,0,0-.21.33,1,1,0,1,0,1.84,0A1.155,1.155,0,0,0,55.71,44.29Z"></path></g></svg>