<svg xmlns="http://www.w3.org/2000/svg" viewBox="0 0 64 64" x="0px" y="0px"><g data-name="Smartphone-Money-Payment-Pay-Online Payment"><path d="M29,52H25a3,3,0,0,0,0,6h4a3,3,0,0,0,0-6Zm0,4H25a1,1,0,0,1,0-2h4a1,1,0,0,1,0,2Z"></path><rect x="20" y="6" width="2" height="2"></rect><rect x="24" y="6" width="6" height="2"></rect><path d="M56,14H47V8a6,6,0,0,0-6-6H13A6,6,0,0,0,7,8V56a6,6,0,0,0,6,6H41a6,6,0,0,0,6-6V46h9a1,1,0,0,0,1-1V15A1,1,0,0,0,56,14ZM9,8a4,4,0,0,1,4-4H41a4,4,0,0,1,4,4v2H9ZM45,56a4,4,0,0,1-4,4H13a4,4,0,0,1-4-4V50H45Zm0-8H9V12H45v2H20a1,1,0,0,0-1,1V45a1,1,0,0,0,1,1H45ZM25.91,16A5.992,5.992,0,0,1,21,20.91V16ZM21,40V38H32v2Zm11,2v2H21V42ZM21,36V34H32v2Zm0-4V27.09A5.992,5.992,0,0,1,25.91,32ZM34,44V34h8V44Zm21,0H44V42H55Zm0-4H44V38H55Zm0-4H44V34H55Zm0-4H50.09A5.992,5.992,0,0,1,55,27.09Zm0-6.93A8,8,0,0,0,48.07,32H27.93A8,8,0,0,0,21,25.07V22.93A8,8,0,0,0,27.93,16H48.07A8,8,0,0,0,55,22.93Zm0-4.16A5.992,5.992,0,0,1,50.09,16H55Z"></path><path d="M38,29a5,5,0,1,0-5-5A5.006,5.006,0,0,0,38,29Zm0-8a3,3,0,1,1-3,3A3,3,0,0,1,38,21Z"></path></g></svg>