<svg xmlns="http://www.w3.org/2000/svg" viewBox="0 0 64 64" x="0px" y="0px"><g><rect x="32" y="23" width="6.001" height="4"></rect><polygon points="46.382 23 43 23 43 27 48.387 27 46.382 23"></polygon><polygon points="23.535 23 20.869 27 27.001 27 27 23 23.535 23"></polygon><path d="M6.03,33a2.85,2.85,0,0,0-.03.29v1.04l2-.23V33Z"></path><path d="M56.61,34h2.84l-.18-1.95a.09.09,0,0,0-.01-.05H57.62Z"></path><circle cx="13" cy="42" r="1"></circle><path d="M13,37a5,5,0,1,0,5,5A5,5,0,0,0,13,37Zm0,8a3,3,0,1,1,3-3A3,3,0,0,1,13,45Z"></path><circle cx="51" cy="42" r="1"></circle><path d="M51,37a5,5,0,1,0,5,5A5,5,0,0,0,51,37Zm0,8a3,3,0,1,1,3-3A3,3,0,0,1,51,45Z"></path><path d="M59.63,36H56.62a2,2,0,0,1-1.8-2.89l1.01-2.01A1.98,1.98,0,0,1,57.62,30h.57a3.021,3.021,0,0,0-1.3-.62L55,29a3.036,3.036,0,0,1-2.59-1.69l-3.22-6.62A2.99,2.99,0,0,0,46.5,19H24.11a3.022,3.022,0,0,0-2.48,1.3l-5.2,7.59a2.99,2.99,0,0,1-1.9,1.25l-6.11,1.2A3.108,3.108,0,0,0,7.07,31H9a1,1,0,0,1,1,1v3a.989.989,0,0,1-.89.99l-4.15.47L4,37.41v1.94a1,1,0,0,0,.81.98l1.331.266A7,7,0,0,1,12.4,35.03,6.032,6.032,0,0,1,13,35a6.994,6.994,0,0,1,6.92,6H44.08A6.994,6.994,0,0,1,51,35c.2,0,.4.011.6.03a6.993,6.993,0,0,1,6.16,5.165l1.484-.575a1,1,0,0,0,.63-1.02ZM29,33H25V31h4Zm0-6a2,2,0,0,1-2,2H20.869A2,2,0,0,1,19.2,25.89l2.666-4A2,2,0,0,1,23.535,21H27a2,2,0,0,1,2,2Zm11,0a2,2,0,0,1-2,2H32a2,2,0,0,1-2-2V23a2,2,0,0,1,2-2h6a2,2,0,0,1,2,2Zm3,2a2,2,0,0,1-2-2V23a2,2,0,0,1,2-2h3.382a1.99,1.99,0,0,1,1.789,1.105l2,4A2,2,0,0,1,48.382,29Zm8,4H47V31h4Z"></path></g></svg>