<svg xmlns="http://www.w3.org/2000/svg" viewBox="0 0 64 64" x="0px" y="0px"><g data-name="Creative-Development-Business-More Idea-Inspiration"><path d="M28,27a1,1,0,0,0,0-2Z"></path><path d="M25,22a1,1,0,0,0,1,1V21A1,1,0,0,0,25,22Z"></path><path d="M14,48a1,1,0,0,0,1,1H39a1,1,0,0,0,0-2H15A1,1,0,0,0,14,48Z"></path><path d="M27,15a9,9,0,1,0,9,9A9.01,9.01,0,0,0,27,15Zm4,11a3,3,0,0,1-3,3v2H26V29a3,3,0,0,1-3-3h2a1,1,0,0,0,1,1V25a3,3,0,0,1,0-6V17h2v2a3,3,0,0,1,3,3H29a1,1,0,0,0-1-1v2A3,3,0,0,1,31,26Z"></path><path d="M40,52a1,1,0,0,0-1-1H15a1,1,0,0,0,0,2H39A1,1,0,0,0,40,52Z"></path><path d="M46.84,21.54a11.011,11.011,0,0,1-7.5-13.26A19.933,19.933,0,0,0,25.92,4.03,20.26,20.26,0,0,0,7,23.75a19.964,19.964,0,0,0,8.74,16.78A5.054,5.054,0,0,1,18,44.71V45H36v-.29a5.054,5.054,0,0,1,2.26-4.18A20,20,0,0,0,47,24,18.26,18.26,0,0,0,46.84,21.54ZM27,39A15,15,0,1,1,42,24,15.018,15.018,0,0,1,27,39Z"></path><path d="M26.4,59.982A8.971,8.971,0,0,0,35.06,55H19.039A8.929,8.929,0,0,0,26.4,59.982Z"></path><path d="M27,11A13,13,0,1,0,40,24,13.015,13.015,0,0,0,27,11Zm0,24A11,11,0,1,1,38,24,11.013,11.013,0,0,1,27,35Z"></path><path d="M50,2a9,9,0,1,0,9,9A9.01,9.01,0,0,0,50,2Zm0,16a7,7,0,1,1,7-7A7.008,7.008,0,0,1,50,18Z"></path><rect x="45" y="10" width="10" height="2"></rect></g></svg>