<svg xmlns="http://www.w3.org/2000/svg" viewBox="0 0 64 64" x="0px" y="0px"><g data-name="Hands Washing-Hand Soap-Hands-Washing-Healthcare"><circle cx="57" cy="18" r="3"></circle><circle cx="48" cy="11" r="2"></circle><circle cx="34" cy="11" r="2"></circle><path d="M53,46a2.006,2.006,0,0,0,2-2,2.015,2.015,0,0,0-2-2H45.45A3.953,3.953,0,0,1,46,44a3.906,3.906,0,0,1-.56,2Z"></path><path d="M49,52a2.006,2.006,0,0,0,2-2,2.015,2.015,0,0,0-2-2H41.45A3.953,3.953,0,0,1,42,50a3.906,3.906,0,0,1-.56,2Z"></path><path d="M47,34a3.995,3.995,0,0,1,4,4,4.422,4.422,0,0,1-.11.89,3.981,3.981,0,0,0,.48-7.63,1.008,1.008,0,0,1-.63-.7.984.984,0,0,1,.23-.91,3.986,3.986,0,1,0-6.46-4.58.993.993,0,0,1-1.6.2A3.952,3.952,0,0,0,40,24a4,4,0,0,0-4,4h6a4,4,0,0,1,2.83,1.17A4.008,4.008,0,0,1,46,32a3.906,3.906,0,0,1-.56,2Z"></path><path d="M7.37,50.07,12.19,52H38a2.006,2.006,0,0,0,2-2,2.015,2.015,0,0,0-2-2H28a1,1,0,0,1,0-2H42a2.006,2.006,0,0,0,2-2,2.015,2.015,0,0,0-2-2H28a1,1,0,0,1,0-2H47a1.938,1.938,0,0,0,1.51-.7A2,2,0,0,0,47,36H28a1,1,0,0,1,0-2H42a2.006,2.006,0,0,0,2-2,2.036,2.036,0,0,0-.18-.83A2.039,2.039,0,0,0,42,30H22a1,1,0,0,1-.97-.74,1.022,1.022,0,0,1,.47-1.13l6.93-4a2.006,2.006,0,0,0,.73-2.73,2.04,2.04,0,0,0-2.73-.73L7.04,31.87a1.063,1.063,0,0,1-.5.13H2V50H7A.937.937,0,0,1,7.37,50.07Z"></path><path d="M53.21,29.95a5.943,5.943,0,0,1,2.511,3.31,3,3,0,0,0-2.107-4.2A6.2,6.2,0,0,1,53.21,29.95Z"></path><path d="M34,28a6,6,0,0,1,6-6c.13,0,.26.02.38.03a1.968,1.968,0,0,0-.22-.63,2.04,2.04,0,0,0-2.73-.73l-6.62,3.82a3.963,3.963,0,0,1-1.38,1.38L25.73,28Z"></path><path d="M53.31,40H58a2.006,2.006,0,0,0,2-2,2.015,2.015,0,0,0-2-2H55.91A6.008,6.008,0,0,1,53.31,40Z"></path></g></svg>