<svg xmlns="http://www.w3.org/2000/svg" viewBox="0 0 64 64" x="0px" y="0px"><g><path d="M59,56H49a2.006,2.006,0,0,0-2,2v2H61V58A2.006,2.006,0,0,0,59,56Z"></path><path d="M11.18,57.64A4.846,4.846,0,0,1,11.97,60H14V40.61L8.91,42.2A6.964,6.964,0,0,0,4,48.88V60H9.97a2.655,2.655,0,0,0-.45-1.23A8.855,8.855,0,0,1,8,54a8.723,8.723,0,0,1,2.29-5.71l1.42,1.42A6.609,6.609,0,0,0,10,54,6.723,6.723,0,0,0,11.18,57.64Z"></path><path d="M20.04,54.39c.31.39.36.41.46.41s.15-.02.46-.42a2.353,2.353,0,0,1,4.08,0c.31.4.36.42.46.42s.15-.02.46-.41a4.5,4.5,0,0,1,.57-.63L24.28,47H21.72l-2.25,6.76A4.5,4.5,0,0,1,20.04,54.39Z"></path><path d="M24,45a2,2,0,0,0,0-4H22a2,2,0,0,0,0,4Z"></path><path d="M26.78,12.29A7.75,7.75,0,0,0,33,15a1,1,0,0,1,1,1v8a11.014,11.014,0,0,1-6,9.79v.42A2.963,2.963,0,0,0,30,35a3.007,3.007,0,0,0,2.83-2.01,1,1,0,0,1,1.5-.5A2.911,2.911,0,0,0,36,33a3.009,3.009,0,0,0,3-3,2.964,2.964,0,0,0-.51-1.67.99.99,0,0,1-.13-.88,1.035,1.035,0,0,1,.62-.64A2.968,2.968,0,0,0,41,24a3.009,3.009,0,0,0-3-3,2.876,2.876,0,0,0-.73.11.97.97,0,0,1-.87-.16,1.014,1.014,0,0,1-.4-.8V17A12.975,12.975,0,0,0,30.33,6.28a15.167,15.167,0,0,1-3.13,5.54C27.07,11.98,26.93,12.13,26.78,12.29Z"></path><path d="M36.03,60H42V48.88a6.964,6.964,0,0,0-4.91-6.68L32,40.61V60h2.03a4.846,4.846,0,0,1,.79-2.36A6.723,6.723,0,0,0,36,54a6.609,6.609,0,0,0-1.71-4.29l1.42-1.42A8.723,8.723,0,0,1,38,54a8.855,8.855,0,0,1-1.52,4.77A2.655,2.655,0,0,0,36.03,60Z"></path><path d="M7.02,26.81a1.035,1.035,0,0,1,.62.64.99.99,0,0,1-.13.88A2.964,2.964,0,0,0,7,30a3.009,3.009,0,0,0,3,3,2.911,2.911,0,0,0,1.67-.51,1,1,0,0,1,1.5.5A3.007,3.007,0,0,0,16,35a2.963,2.963,0,0,0,2-.79v-.42A11.014,11.014,0,0,1,12,24V17a1,1,0,0,1,1-1,17.117,17.117,0,0,0,11.83-4.59c.32-.31.6-.6.86-.9a13.216,13.216,0,0,0,2.86-5.25A12.991,12.991,0,0,0,10,17v3.15a1.014,1.014,0,0,1-.4.8.97.97,0,0,1-.87.16A2.876,2.876,0,0,0,8,21a3.009,3.009,0,0,0-3,3A2.968,2.968,0,0,0,7.02,26.81Z"></path><path d="M32,24V16.96a9.468,9.468,0,0,1-6.69-3.3A19.161,19.161,0,0,1,14,17.97V24a9,9,0,0,0,18,0ZM17,21a2,2,0,1,1,2,2A2,2,0,0,1,17,21Zm6,8a5.006,5.006,0,0,1-3.532-1.458l1.4-1.424a3.082,3.082,0,0,0,4.256,0l1.4,1.424A5.006,5.006,0,0,1,23,29Zm4-6a2,2,0,1,1,2-2A2,2,0,0,1,27,23Z"></path><path d="M20,34.57V38c0,.25,1.06,1,3,1s3-.75,3-1V34.57a10.68,10.68,0,0,1-6,0Z"></path><path d="M30,39.98l-2.42-.75a3.24,3.24,0,0,1-.89.83,3.969,3.969,0,0,1-.52,6.29l2.52,7.57a1.01,1.01,0,0,1-.75,1.29c-.1.02-.25.22-.4.41a2.353,2.353,0,0,1-4.08,0c-.31-.4-.36-.42-.46-.42s-.15.02-.46.42a2.353,2.353,0,0,1-4.08,0c-.15-.19-.3-.39-.4-.41a1.01,1.01,0,0,1-.75-1.29l2.52-7.57a3.969,3.969,0,0,1-.52-6.29,3.24,3.24,0,0,1-.89-.83L16,39.98V60H30Z"></path><rect x="53" y="40" width="2" height="12"></rect><rect x="53" y="36" width="2" height="2"></rect><polygon points="57 29 57 30 51 30 51 29 49 29 49 30 49 34 49 35 51 35 51 34 57 34 57 35 59 35 59 34 59 30 59 29 57 29"></polygon></g></svg>