<svg xmlns="http://www.w3.org/2000/svg" viewBox="0 0 64 64" x="0px" y="0px"><g><rect x="34" y="6" width="2" height="6"></rect><rect x="32" y="14" width="26" height="2"></rect><path d="M60,18H30V57H60V49H37a1,1,0,0,1-1-1V26a1,1,0,0,1,1-1H60Z"></path><rect x="38" y="27" width="22" height="20"></rect><rect x="42" y="6" width="2" height="6"></rect><rect x="38" y="6" width="2" height="6"></rect><polygon points="30 12 31 12 32 12 32 6 30 6 30 12"></polygon><polygon points="58 12 59 12 60 12 60 6 58 6 58 12"></polygon><rect x="46" y="6" width="2" height="6"></rect><rect x="54" y="6" width="2" height="6"></rect><rect x="50" y="6" width="2" height="6"></rect><path d="M20,37H4V48a7.008,7.008,0,0,0,7,7h2a7.008,7.008,0,0,0,7-7Z"></path><path d="M20,24a7.008,7.008,0,0,0-7-7H11a7.008,7.008,0,0,0-7,7V35H20Z"></path></g></svg>