<svg xmlns="http://www.w3.org/2000/svg" viewBox="0 0 64 64" x="0px" y="0px"><g><path d="M57.707,10.293l-8-8A1,1,0,0,0,49,2H19a3,3,0,0,0-3,3V21.084a5.012,5.012,0,0,0-3.521,2.426l-5,8.67A11.009,11.009,0,0,0,6,37.68V61a1,1,0,0,0,1,1H19a1,1,0,0,0,1-1V59.835A4.517,4.517,0,0,0,22.21,58H55a3,3,0,0,0,3-3V11A1,1,0,0,0,57.707,10.293ZM50,5.414,54.586,10H51a1,1,0,0,1-1-1ZM19,58a1,1,0,0,0-1,1v1H8V37.68a9.006,9.006,0,0,1,1.206-4.5l5.005-8.67A3.01,3.01,0,0,1,16,23.126V34.2l-3.062,5.3,1.732,1,5.5-9.526a2,2,0,1,1,3.465,2l-5.5,9.526A1,1,0,0,0,19,44c1.416,0,3,2.993,3,7S20.416,58,19,58Zm9.768-28.723,3,5.2-1.732,1-3-5.2Zm16.32-5.143a.992.992,0,0,1-.464.608l-1-1.732h0a1,1,0,0,1,1.463,1.124Zm1.3,7.67a1,1,0,1,1-1.731,1l-8-13.857a1,1,0,0,1,.865-1.5,1.049,1.049,0,0,1,.26.034,1,1,0,0,1,.607.466ZM35.667,21.226l6.523,11.3-8.529,1.23L30.338,28ZM33.466,35.8l.207-.03,3.461,5.995a1,1,0,0,1-.366,1.366l-1.732,1a1,1,0,0,1-1.366-.366l-3.5-6.062Zm-5.162.671-.861.5a1,1,0,0,1-1.366-.36l-1.114-1.941.4-.7a3.971,3.971,0,0,0,.511-1.7ZM55,56H23.2a14.967,14.967,0,0,0,.8-5c0-4.176-1.424-7.516-3.49-8.614l3.3-5.712.538.937a3.007,3.007,0,0,0,4.093,1.1l3.5,6.062a2.98,2.98,0,0,0,1.821,1.4,3.034,3.034,0,0,0,.782.1,2.981,2.981,0,0,0,1.5-.4l1.733-1a3,3,0,0,0,1.1-4.1l-3.061-5.3,7.566-1.09a2.983,2.983,0,0,0,3.655.526h0a3.006,3.006,0,0,0,1.1-4.1l-2.5-4.33h0a3,3,0,0,0-3-5.2h0l-2.5-4.331a2.993,2.993,0,0,0-5.47,2.333l-6.186,7.861-3.3,1.9h0l-.362.208a3.981,3.981,0,0,0-6.371.723L18,30.731V5a1,1,0,0,1,1-1H48V9a3,3,0,0,0,3,3h5V55A1,1,0,0,1,55,56Z"></path><rect x="48.187" y="19.376" width="4" height="2" transform="translate(-3.465 27.818) rotate(-29.995)"></rect><rect x="44.016" y="15.362" width="4.242" height="2" transform="translate(18.391 56.693) rotate(-75)"></rect><rect x="50.638" y="23.767" width="2" height="4.243" transform="matrix(0.259, -0.966, 0.966, 0.259, 13.27, 69.07)"></rect><rect x="22" y="8" width="2" height="2"></rect><rect x="26" y="8" width="6" height="2"></rect><rect x="22" y="12" width="10" height="2"></rect><rect x="42" y="50" width="10" height="2"></rect><rect x="50" y="46" width="2" height="2"></rect><rect x="42" y="46" width="6" height="2"></rect><rect x="42" y="42" width="2" height="2"></rect><rect x="46" y="42" width="6" height="2"></rect></g></svg>