<svg xmlns="http://www.w3.org/2000/svg" viewBox="0 0 64 64" x="0px" y="0px"><g><path d="M53,2H27a3,3,0,0,0-3,3v8.01H22.81a5,5,0,0,0-4.327,2.5l-5.008,8.67A10.992,10.992,0,0,0,12,29.68V52a1,1,0,0,0-1,1v8a1,1,0,0,0,1,1H26a1,1,0,0,0,1-1V53a1,1,0,0,0-1-1v-.724l.857-1.431A15,15,0,0,0,28.877,44H53a3,3,0,0,0,3-3V5A3,3,0,0,0,53,2ZM25,60H13V54H25Zm2-17.88a13.013,13.013,0,0,1-1.858,6.7l-1,1.67A1,1,0,0,0,24,51v1H14V29.68a8.986,8.986,0,0,1,1.206-4.5l5.012-8.674a2.988,2.988,0,0,1,2.592-1.5H24V25.457L19.934,32.5l1.732,1,7.5-12.991a2,2,0,0,1,3.468,2L25.764,34.4a1.043,1.043,0,0,0-.132.454c0,.015,0,.03,0,.045v.012a.986.986,0,0,0,.08.393l.622,1.855A12.91,12.91,0,0,1,27,41.27Zm7.8-21.5A3.95,3.95,0,0,1,38,19a4,4,0,1,1-3.868,4.914l.235-.407a4.013,4.013,0,0,0,.533-2A4.064,4.064,0,0,0,34.8,20.616ZM29,42v-.73a14.931,14.931,0,0,0-.771-4.748l-.507-1.512,5.156-8.925a5.986,5.986,0,1,0,.906-7.349,4.03,4.03,0,0,0-.882-.691,4,4,0,0,0-5.468,1.465L26,21.993V5a1,1,0,0,1,1-1H49a1,1,0,0,1,1,1V41a1,1,0,0,1-1,1Zm25-1a1,1,0,0,1-1,1H51.816A2.966,2.966,0,0,0,52,41V5a2.966,2.966,0,0,0-.184-1H53a1,1,0,0,1,1,1Z"></path><path d="M46,7H42V9h3v3h2V8A1,1,0,0,0,46,7Z"></path><path d="M45,37H42v2h4a1,1,0,0,0,1-1V34H45Z"></path><path d="M29,8v4h2V9h3V7H30A1,1,0,0,0,29,8Z"></path><path d="M31,34H29v4a1,1,0,0,0,1,1h4V37H31Z"></path><rect x="37" y="33" width="2" height="2"></rect><rect x="37" y="11" width="2" height="2"></rect></g></svg>