<svg xmlns="http://www.w3.org/2000/svg" viewBox="0 0 64 64" x="0px" y="0px"><g data-name="Shoulder bag"><path d="M50,2H31A12.013,12.013,0,0,0,19,14V30a2,2,0,0,0-2,2v2a2,2,0,0,0-2,2V51A11.013,11.013,0,0,0,26,62H38A11.013,11.013,0,0,0,49,51V36a2,2,0,0,0-2-2V32a2,2,0,0,0-2-2V19a3,3,0,0,1,3-3h2A7,7,0,0,0,50,2ZM43,36v9a1,1,0,0,1-1,1H36V44a1,1,0,0,0-1-1H29a1,1,0,0,0-1,1v2H22a1,1,0,0,1-1-1V36ZM34,51H30V45h4ZM19,32h2v2H19ZM47,51a9.01,9.01,0,0,1-9,9H26a9.01,9.01,0,0,1-9-9V36h2v9a3,3,0,0,0,3,3h6v3a2,2,0,0,0,2,2h4a2,2,0,0,0,2-2V48h6a3,3,0,0,0,3-3V36h2ZM43,34V32h2v2Zm7-20H48a5.006,5.006,0,0,0-5,5V30a2,2,0,0,0-2,2v2H23V32a2,2,0,0,0-2-2V14A10.011,10.011,0,0,1,31,4H50a5,5,0,0,1,0,10Z"></path></g></svg>