<svg xmlns="http://www.w3.org/2000/svg" viewBox="0 0 64 64" x="0px" y="0px"><title>Growth-Book</title><g><path d="M60,55H33V54a3,3,0,0,1,3-3H57a1,1,0,0,0,1-1V30H56V49H36a4.967,4.967,0,0,0-3,1.012V18a3,3,0,0,1,3-3h2V13H36a5,5,0,0,0-4,2,5,5,0,0,0-4-2H7a1,1,0,0,0-1,1v5H3a1,1,0,0,0-1,1V56a1,1,0,0,0,1,1H61a1,1,0,0,0,1-1V28H60ZM8,15H28a3,3,0,0,1,3,3V50.012A4.967,4.967,0,0,0,28,49H8ZM4,21H6V50a1,1,0,0,0,1,1H28a3,3,0,0,1,3,3v1H4Z"></path><rect x="12" y="23" width="14" height="2"></rect><rect x="12" y="31" width="14" height="2"></rect><rect x="12" y="39" width="14" height="2"></rect><rect x="38" y="39" width="14" height="2"></rect><path d="M51,29A11,11,0,1,0,40,18,11.013,11.013,0,0,0,51,29ZM51,9a9,9,0,1,1-9,9A9.01,9.01,0,0,1,51,9Z"></path><path d="M50,14.414V23H47v2h3a2,2,0,0,0,2-2V14.414l2.535,2.536,1.414-1.414-4.242-4.243a1.029,1.029,0,0,0-1.414,0l-4.242,4.243,1.414,1.414Z"></path></g></svg>