<svg xmlns="http://www.w3.org/2000/svg" viewBox="0 0 64 64" x="0px" y="0px"><g data-name="Online Payment-Browser"><path d="M4,47V14H46V32h2V7a3,3,0,0,0-3-3H5A3,3,0,0,0,2,7V47a3,3,0,0,0,3,3H24V48H5A1,1,0,0,1,4,47ZM5,6H45a1,1,0,0,1,1,1v5H4V7A1,1,0,0,1,5,6Z"></path><rect x="6" y="8" width="2" height="2"></rect><rect x="10" y="8" width="2" height="2"></rect><rect x="14" y="8" width="2" height="2"></rect><path d="M26,19a1,1,0,0,0-1-1H11a1,1,0,0,0-1,1V31a1,1,0,0,0,1,1H25a1,1,0,0,0,1-1Zm-2,3H21V20h3Zm-7-2h2v2.586l-.293-.293a1,1,0,0,0-1.414,0L17,22.586Zm-2,0v2H12V20ZM12,30V24h3v1a1,1,0,0,0,1.707.707L18,24.414l1.293,1.293A1,1,0,0,0,21,25V24h3v6Z"></path><path d="M59,34H33a3,3,0,0,0-3,3v1H29a3,3,0,0,0-3,3V57a3,3,0,0,0,3,3H55a3,3,0,0,0,3-3V56h1a3,3,0,0,0,3-3V37A3,3,0,0,0,59,34ZM56,57a1,1,0,0,1-1,1H29a1,1,0,0,1-1-1V41a1,1,0,0,1,1-1H55a1,1,0,0,1,1,1Zm4-4a1,1,0,0,1-1,1H58V41a3,3,0,0,0-3-3H32V37a1,1,0,0,1,1-1H59a1,1,0,0,1,1,1Z"></path><path d="M51,50a2.959,2.959,0,0,0-1.493.421A2.965,2.965,0,0,0,48,50a3,3,0,0,0,0,6,2.965,2.965,0,0,0,1.507-.421A2.959,2.959,0,0,0,51,56a3,3,0,0,0,0-6Zm-3,4a1,1,0,1,1,1-1A1,1,0,0,1,48,54Zm3,0a.928.928,0,0,1-.172-.038,2.776,2.776,0,0,0,0-1.924A.928.928,0,0,1,51,52a1,1,0,0,1,0,2Z"></path><path d="M31,48h6a1,1,0,0,0,1-1V43a1,1,0,0,0-1-1H31a1,1,0,0,0-1,1v4A1,1,0,0,0,31,48Zm1-4h4v2H32Z"></path><rect x="52" y="43" width="2" height="4"></rect><rect x="48" y="43" width="2" height="4"></rect><rect x="44" y="43" width="2" height="4"></rect><rect x="30" y="54" width="2" height="2"></rect><rect x="34" y="54" width="2" height="2"></rect><rect x="38" y="54" width="2" height="2"></rect><rect x="30" y="50" width="10" height="2"></rect><rect x="30" y="18" width="2" height="2"></rect><rect x="34" y="18" width="8" height="2"></rect><rect x="30" y="22" width="12" height="2"></rect><rect x="30" y="26" width="12" height="2"></rect><rect x="30" y="30" width="12" height="2"></rect></g></svg>