<svg xmlns="http://www.w3.org/2000/svg" viewBox="0 0 64 64" x="0px" y="0px"><g data-name="Coffee Grinder-Mill-Grains-Coffee"><path d="M8,60H28a1,1,0,0,0,1-1V38H7V59A1,1,0,0,0,8,60Z"></path><path d="M29,18H7v5.86A8.945,8.945,0,0,0,9.42,30H26.58A8.945,8.945,0,0,0,29,23.86Z"></path><path d="M7.6,34.53A3.027,3.027,0,0,0,7.03,36H28.97a3.027,3.027,0,0,0-.57-1.47L26.5,32H9.5Z"></path><path d="M31,15a1,1,0,0,0-1-1H6a1,1,0,0,0,0,2H30A1,1,0,0,0,31,15Z"></path><path d="M57.95,6.45A2.993,2.993,0,0,0,55,4H53a2.993,2.993,0,0,0-2.95,2.45.957.957,0,0,0,.1.61L52.62,12H53v2H46.255L35.479,8.122A1,1,0,0,0,35,8H19.22l.72-2.88a2.24,2.24,0,0,0-3.88,0L16.78,8H15v2h2v2h2V10H34.745l10.776,5.878A1,1,0,0,0,46,16h7v2h2V12h.38l2.47-4.94A.957.957,0,0,0,57.95,6.45Z"></path></g></svg>