<svg xmlns="http://www.w3.org/2000/svg" viewBox="0 0 64 64" x="0px" y="0px"><g data-name="LED Light"><path d="M20,18a1,1,0,0,0-1,1V45a1,1,0,0,0,1,1H44a1,1,0,0,0,1-1V19a1,1,0,0,0-1-1ZM43,44H21V20H43Z"></path><path d="M19.293,15.707A1,1,0,0,0,20,16H44a1,1,0,0,0,.707-.293l12-12A1,1,0,0,0,56,2H8a1,1,0,0,0-.707,1.707ZM53.586,4l-10,10H20.414l-10-10Z"></path><path d="M44.707,48.293A1,1,0,0,0,44,48H20a1,1,0,0,0-.707.293l-12,12A1,1,0,0,0,8,62H56a1,1,0,0,0,.707-1.707ZM10.414,60l10-10H43.586l10,10Z"></path><path d="M61.464,9.114a1,1,0,0,0-1.033.064l-13,9A1,1,0,0,0,47,19V45a1,1,0,0,0,.431.822l13,9A1,1,0,0,0,62,54V10A1,1,0,0,0,61.464,9.114ZM60,52.092,49,44.476V19.524l11-7.616Z"></path><path d="M17,45V19a1,1,0,0,0-.431-.822l-13-9A1,1,0,0,0,2,10V54a1,1,0,0,0,1.569.822l13-9A1,1,0,0,0,17,45Zm-2-.524L4,52.092V11.908l11,7.616Z"></path><path d="M32,23a.994.994,0,0,0,.71-.29,1.169,1.169,0,0,0,.21-.33.942.942,0,0,0,0-.76,1.032,1.032,0,0,0-.21-.33,1.018,1.018,0,0,0-.91-.27.636.636,0,0,0-.18.06.782.782,0,0,0-.181.09,1.7,1.7,0,0,0-.149.12,1.032,1.032,0,0,0-.21.33A.99.99,0,0,0,32,23Z"></path><path d="M35.29,22.71a1.014,1.014,0,0,0,1.42,0,1.169,1.169,0,0,0,.21-.33A1,1,0,0,0,37,22a1,1,0,1,0-2,0,.838.838,0,0,0,.08.38A1.169,1.169,0,0,0,35.29,22.71Z"></path><path d="M39.62,22.92a.942.942,0,0,0,.76,0,1.169,1.169,0,0,0,.33-.21A.994.994,0,0,0,41,22a1.05,1.05,0,0,0-.29-.71,1,1,0,0,0-.16-.12.568.568,0,0,0-.17-.09.609.609,0,0,0-.191-.06,1,1,0,0,0-.9.27A1.045,1.045,0,0,0,39,22a.99.99,0,0,0,.29.71A1.155,1.155,0,0,0,39.62,22.92Z"></path><path d="M32,27a.994.994,0,0,0,.71-.29,1.169,1.169,0,0,0,.21-.33A1,1,0,0,0,33,26a.96.96,0,0,0-.62-.92.949.949,0,0,0-.58-.06.636.636,0,0,0-.18.06.782.782,0,0,0-.181.09,1.7,1.7,0,0,0-.149.12A1.025,1.025,0,0,0,31,26a.99.99,0,0,0,1,1Z"></path><path d="M35.29,26.71a1.014,1.014,0,0,0,1.42,0,1.169,1.169,0,0,0,.21-.33.943.943,0,0,0,0-.76,1.032,1.032,0,0,0-.21-.33,1.047,1.047,0,0,0-1.42,0,1.032,1.032,0,0,0-.21.33.942.942,0,0,0,0,.76A1.169,1.169,0,0,0,35.29,26.71Z"></path><path d="M39.62,26.92a.942.942,0,0,0,.76,0,1.169,1.169,0,0,0,.33-.21A.994.994,0,0,0,41,26a1.05,1.05,0,0,0-.29-.71,1,1,0,0,0-.16-.12.568.568,0,0,0-.17-.09.609.609,0,0,0-.191-.06,1,1,0,0,0-.9.27A1.045,1.045,0,0,0,39,26a.99.99,0,0,0,.29.71A1.155,1.155,0,0,0,39.62,26.92Z"></path><path d="M32,31a.994.994,0,0,0,.71-.29,1.169,1.169,0,0,0,.21-.33.943.943,0,0,0,0-.76,1.155,1.155,0,0,0-.21-.33,1.169,1.169,0,0,0-.33-.21.949.949,0,0,0-.58-.06.636.636,0,0,0-.18.06.782.782,0,0,0-.181.09,1.7,1.7,0,0,0-.149.12,1.032,1.032,0,0,0-.21.33A.99.99,0,0,0,32,31Z"></path><path d="M36,31a.99.99,0,0,0,.92-1.38,1.032,1.032,0,0,0-.21-.33,1.047,1.047,0,0,0-1.42,0,1.032,1.032,0,0,0-.21.33A.838.838,0,0,0,35,30a.99.99,0,0,0,1,1Z"></path><path d="M39.29,30.71a1.155,1.155,0,0,0,.33.21.942.942,0,0,0,.76,0,.9.9,0,0,0,.54-.54A1,1,0,0,0,41,30a1.05,1.05,0,0,0-.29-.71,1,1,0,0,0-.16-.12.568.568,0,0,0-.17-.09.609.609,0,0,0-.191-.06,1,1,0,0,0-.9.27A1.045,1.045,0,0,0,39,30a.838.838,0,0,0,.08.38A1.169,1.169,0,0,0,39.29,30.71Z"></path><path d="M32,35a.994.994,0,0,0,.71-.29A1.011,1.011,0,0,0,33,34a1,1,0,0,0-.08-.38,1.155,1.155,0,0,0-.21-.33,1.018,1.018,0,0,0-.91-.27.636.636,0,0,0-.18.06.782.782,0,0,0-.181.09,1.7,1.7,0,0,0-.149.12,1.155,1.155,0,0,0-.21.33A.99.99,0,0,0,32,35Z"></path><path d="M35.29,34.71a1.014,1.014,0,0,0,1.42,0,1.169,1.169,0,0,0,.21-.33.942.942,0,0,0,0-.76,1.032,1.032,0,0,0-.21-.33,1,1,0,0,0-.16-.12.568.568,0,0,0-.17-.09.609.609,0,0,0-.191-.06,1,1,0,0,0-.9.27,1.032,1.032,0,0,0-.21.33.943.943,0,0,0,0,.76A1.169,1.169,0,0,0,35.29,34.71Z"></path><path d="M39.29,34.71a1.155,1.155,0,0,0,.33.21.942.942,0,0,0,.76,0,1.169,1.169,0,0,0,.33-.21A.994.994,0,0,0,41,34a1.05,1.05,0,0,0-.29-.71,1,1,0,0,0-.16-.12.568.568,0,0,0-.17-.09.609.609,0,0,0-.191-.06,1,1,0,0,0-.9.27A1.025,1.025,0,0,0,39,34a.838.838,0,0,0,.08.38A1.169,1.169,0,0,0,39.29,34.71Z"></path><path d="M31.29,38.71a1.014,1.014,0,0,0,1.42,0,1.169,1.169,0,0,0,.21-.33A1,1,0,0,0,33,38a1.05,1.05,0,0,0-.29-.71,1.018,1.018,0,0,0-.91-.27.636.636,0,0,0-.18.06.782.782,0,0,0-.181.09l-.149.12A1.025,1.025,0,0,0,31,38a1,1,0,0,0,.08.38A1.169,1.169,0,0,0,31.29,38.71Z"></path><path d="M36,39a.99.99,0,0,0,1-1,1.05,1.05,0,0,0-.29-.71,1,1,0,0,0-.16-.12.568.568,0,0,0-.17-.09.609.609,0,0,0-.191-.06,1,1,0,0,0-.9.27A1.045,1.045,0,0,0,35,38a.99.99,0,0,0,1,1Z"></path><path d="M39.29,38.7a.974.974,0,0,0,1.09.22,1.015,1.015,0,0,0,.33-.22A1.039,1.039,0,0,0,41,38a1.05,1.05,0,0,0-.29-.71c-.05-.04-.1-.08-.16-.12a.568.568,0,0,0-.17-.09.609.609,0,0,0-.191-.06,1,1,0,0,0-.9.27A1.025,1.025,0,0,0,39,38a.838.838,0,0,0,.08.38A1,1,0,0,0,39.29,38.7Z"></path><path d="M31.29,42.71a1.014,1.014,0,0,0,1.42,0,1.169,1.169,0,0,0,.21-.33A1,1,0,0,0,33,42a1.05,1.05,0,0,0-.29-.71,1.018,1.018,0,0,0-.91-.27.636.636,0,0,0-.18.06.782.782,0,0,0-.181.09,1.7,1.7,0,0,0-.149.12A1.025,1.025,0,0,0,31,42a1,1,0,0,0,.08.38A1.169,1.169,0,0,0,31.29,42.71Z"></path><path d="M36,43a.99.99,0,0,0,.92-1.38,1.032,1.032,0,0,0-.21-.33,1.047,1.047,0,0,0-1.42,0,1.032,1.032,0,0,0-.21.33A.838.838,0,0,0,35,42a.99.99,0,0,0,1,1Z"></path><path d="M39.29,42.71a1.155,1.155,0,0,0,.33.21.942.942,0,0,0,.76,0,.9.9,0,0,0,.54-.54.942.942,0,0,0,0-.76,1.032,1.032,0,0,0-.21-.33,1.047,1.047,0,0,0-1.42,0,1.032,1.032,0,0,0-.21.33A1,1,0,0,0,39,42a.838.838,0,0,0,.08.38A1.169,1.169,0,0,0,39.29,42.71Z"></path><path d="M27.29,22.71a.99.99,0,0,0,1.09.21.9.9,0,0,0,.54-.54.942.942,0,0,0,0-.76,1.155,1.155,0,0,0-.21-.33,1.047,1.047,0,0,0-1.42,0,1.155,1.155,0,0,0-.21.33.943.943,0,0,0,0,.76A1.169,1.169,0,0,0,27.29,22.71Z"></path><path d="M24,23a.99.99,0,0,0,1-1,1.05,1.05,0,0,0-.29-.71,1.712,1.712,0,0,0-.15-.12.776.776,0,0,0-.18-.09.609.609,0,0,0-.191-.06,1,1,0,0,0-.9.27,1.032,1.032,0,0,0-.21.33A.99.99,0,0,0,24,23Z"></path><path d="M27.29,26.71a.99.99,0,0,0,1.09.21.9.9,0,0,0,.54-.54A1,1,0,0,0,29,26a1,1,0,1,0-2,0,.838.838,0,0,0,.08.38A1.169,1.169,0,0,0,27.29,26.71Z"></path><path d="M24,27a.99.99,0,0,0,1-1,1.05,1.05,0,0,0-.29-.71l-.15-.12a.776.776,0,0,0-.18-.09.609.609,0,0,0-.191-.06,1.025,1.025,0,0,0-.9.27,1.155,1.155,0,0,0-.21.33A.99.99,0,0,0,24,27Z"></path><path d="M28,31a1,1,0,0,0,.38-.08,1.169,1.169,0,0,0,.33-.21.99.99,0,0,0,.21-1.09,1.155,1.155,0,0,0-.21-.33,1.047,1.047,0,0,0-1.42,0,1.155,1.155,0,0,0-.21.33A.838.838,0,0,0,27,30a.99.99,0,0,0,1,1Z"></path><path d="M24,31a.99.99,0,0,0,1-1,1.05,1.05,0,0,0-.29-.71,1.712,1.712,0,0,0-.15-.12.776.776,0,0,0-.18-.09.609.609,0,0,0-.191-.06,1,1,0,0,0-.9.27A1.025,1.025,0,0,0,23,30a.99.99,0,0,0,1,1Z"></path><path d="M28,35a1,1,0,0,0,.38-.08,1.169,1.169,0,0,0,.33-.21A.994.994,0,0,0,29,34a1,1,0,1,0-2,0,.99.99,0,0,0,1,1Z"></path><path d="M24,35a.99.99,0,0,0,1-1,1.05,1.05,0,0,0-.29-.71,1.712,1.712,0,0,0-.15-.12.776.776,0,0,0-.18-.09.609.609,0,0,0-.191-.06.965.965,0,0,0-1.109.6A.99.99,0,0,0,24,35Z"></path><path d="M27.29,38.71a.99.99,0,0,0,1.09.21.9.9,0,0,0,.54-.54A1,1,0,0,0,29,38a1,1,0,1,0-2,0,.838.838,0,0,0,.08.38A1.169,1.169,0,0,0,27.29,38.71Z"></path><path d="M24,39a.99.99,0,0,0,.92-1.38,1.155,1.155,0,0,0-.21-.33,1.712,1.712,0,0,0-.15-.12.776.776,0,0,0-.18-.09.609.609,0,0,0-.191-.06,1,1,0,0,0-.9.27,1.155,1.155,0,0,0-.21.33A.99.99,0,0,0,24,39Z"></path><path d="M28,43a1,1,0,0,0,.38-.08,1.169,1.169,0,0,0,.33-.21.99.99,0,0,0,.21-1.09,1.155,1.155,0,0,0-.21-.33,1.047,1.047,0,0,0-1.42,0,1.155,1.155,0,0,0-.21.33A.838.838,0,0,0,27,42a.99.99,0,0,0,1,1Z"></path><path d="M24,43a.994.994,0,0,0,.71-.29,1.169,1.169,0,0,0,.21-.33.942.942,0,0,0,0-.76,1.032,1.032,0,0,0-.21-.33,1.712,1.712,0,0,0-.15-.12.776.776,0,0,0-.18-.09.609.609,0,0,0-.191-.06,1,1,0,0,0-.9.27,1.032,1.032,0,0,0-.21.33A.99.99,0,0,0,24,43Z"></path></g></svg>