<svg xmlns="http://www.w3.org/2000/svg" viewBox="0 0 64 64" x="0px" y="0px"><g data-name="Payment-Mobile Payment-Smartphone-Smartphone-Online"><path d="M33,30H31a1,1,0,0,1-1-1H28a3,3,0,0,0,3,3v1h2V32a3,3,0,0,0,0-6H31a1,1,0,0,1,0-2h2a1,1,0,0,1,1,1h2a3,3,0,0,0-3-3V21H31v1a3,3,0,0,0,0,6h2a1,1,0,0,1,0,2Z"></path><path d="M22,27A10,10,0,1,0,32,17,10.011,10.011,0,0,0,22,27Zm10-8a8,8,0,1,1-8,8A8.009,8.009,0,0,1,32,19Z"></path><path d="M56,32a3.974,3.974,0,0,0-1.382-3A3.983,3.983,0,0,0,52,22H50V9a7.008,7.008,0,0,0-7-7H21a7.008,7.008,0,0,0-7,7v5.556A3.959,3.959,0,0,0,12,14H9a1,1,0,0,0-1,1V46.586L1.293,53.293l1.414,1.414,7-7A1,1,0,0,0,10,47V16h2a2,2,0,0,1,2,2v8a1,1,0,0,0,.143.515l1,1.674A13,13,0,0,1,17,34.878v1.455a9.994,9.994,0,0,1-1.429,5.151l1.714,1.032A12.005,12.005,0,0,0,19,36.333V34.878a15,15,0,0,0-2.138-7.718L16,25.723V9a5.006,5.006,0,0,1,5-5H43a5.006,5.006,0,0,1,5,5V22a3.983,3.983,0,0,0-2.618,7,3.947,3.947,0,0,0,0,6,3.947,3.947,0,0,0,0,6A3.983,3.983,0,0,0,48,48v1a5.006,5.006,0,0,1-5,5H21a5.006,5.006,0,0,1-5-5V44H14v5a7.008,7.008,0,0,0,7,7H33.586l-5.293,5.293,1.414,1.414L36.414,56H43a7.008,7.008,0,0,0,7-7V48h2a3.983,3.983,0,0,0,2.618-7,3.947,3.947,0,0,0,0-6A3.974,3.974,0,0,0,56,32ZM46,26a2,2,0,0,1,2-2h4a2,2,0,0,1,0,4H48A2,2,0,0,1,46,26Zm8,18a2,2,0,0,1-2,2H48a2,2,0,0,1,0-4h4A2,2,0,0,1,54,44Zm0-6a2,2,0,0,1-2,2H48a2,2,0,0,1,0-4h4A2,2,0,0,1,54,38Zm-6-4a2,2,0,0,1,0-4h4a2,2,0,0,1,0,4Z"></path><rect x="25" y="6" width="2" height="2"></rect><rect x="29" y="6" width="6" height="2"></rect><path d="M30,46a3,3,0,0,0,0,6h4a3,3,0,0,0,0-6Zm5,3a1,1,0,0,1-1,1H30a1,1,0,0,1,0-2h4A1,1,0,0,1,35,49Z"></path></g></svg>