<svg xmlns="http://www.w3.org/2000/svg" viewBox="0 0 64 64" x="0px" y="0px"><g><path d="M57,12H36v2H57a3,3,0,0,1,3,3V40H14V36H12v9a5.006,5.006,0,0,0,5,5H28.867l-.75,6H27a3,3,0,0,0,0,6H47a3,3,0,0,0,0-6H45.883l-.75-6H57a5.006,5.006,0,0,0,5-5V17A5.006,5.006,0,0,0,57,12ZM48,59a1,1,0,0,1-1,1H27a1,1,0,0,1,0-2H47A1,1,0,0,1,48,59Zm-4.133-3H30.133l.75-6H43.117ZM57,48H17a3,3,0,0,1-3-3V42H60v3A3,3,0,0,1,57,48Z"></path><rect x="54" y="44" width="2" height="2"></rect><path d="M34,31V5a3,3,0,0,0-3-3H5A3,3,0,0,0,2,5V31a3,3,0,0,0,3,3H31A3,3,0,0,0,34,31ZM5,4H31a1,1,0,0,1,1,1V8H4V5A1,1,0,0,1,5,4ZM4,31V10H32V31a1,1,0,0,1-1,1H5A1,1,0,0,1,4,31Z"></path><rect x="6" y="5" width="2" height="2"></rect><rect x="10" y="5" width="2" height="2"></rect><rect x="14" y="5" width="2" height="2"></rect><polygon points="26 20 24 20 24 27 22 27 22 14 20 14 20 27 18 27 18 18 16 18 16 27 14 27 14 22 12 22 12 27 10 27 10 29 28 29 28 27 26 27 26 20"></polygon><rect x="6" y="13" width="6" height="2"></rect><rect x="6" y="17" width="6" height="2"></rect><rect x="39" y="18" width="2" height="2"></rect><rect x="43" y="18" width="12" height="2"></rect><rect x="39" y="22" width="16" height="2"></rect><rect x="39" y="26" width="16" height="2"></rect><rect x="39" y="30" width="12" height="2"></rect><rect x="53" y="30" width="2" height="2"></rect></g></svg>