<svg xmlns="http://www.w3.org/2000/svg" viewBox="0 0 32 32" x="0px" y="0px"><g data-name="Smartphone-Download"><path d="M23,3a1,1,0,0,0-1-1H10A1,1,0,0,0,9,3V4H23Z"></path><path d="M9,6V24h7V22a1,1,0,0,1,1-1h4.51L23,19.51V6Zm4,10H11V14h2Zm4,0H15V14h2Zm4,0H19V14h2Z"></path><path d="M23,28.49V29a1,1,0,0,1-1,1H10a1,1,0,0,1-1-1V26h7a1,1,0,0,0,1,1h4.51Z"></path><path d="M27.707,23.293l-2.829-2.829-1.414,1.414L24.586,23H18v2h6.586l-1.122,1.122,1.414,1.414,2.829-2.829A1,1,0,0,0,27.707,23.293Z"></path></g></svg>