<svg xmlns="http://www.w3.org/2000/svg" viewBox="0 0 64 64" x="0px" y="0px"><g><polygon points="4.281 60 27.719 60 27.219 58 4.781 58 4.281 60"></polygon><polygon points="7.781 46 5.281 56 26.719 56 24.219 46 7.781 46"></polygon><path d="M15,40h2V31a1,1,0,0,0-2,0Z"></path><path d="M28,43a1,1,0,0,0-1-1H5a1,1,0,0,0-1,1v9.878l2.03-8.121A1,1,0,0,1,7,44H25a1,1,0,0,1,.97.757L28,52.878Z"></path><path d="M46,36h2V5a1,1,0,0,0-2,0Z"></path><path d="M60,60V56H34v4h2V58a1,1,0,0,1,2,0v2h2V58a1,1,0,0,1,2,0v2h2V58a1,1,0,0,1,2,0v2h2V58a1,1,0,0,1,2,0v2h2V58a1,1,0,0,1,2,0v2h2V58a1,1,0,0,1,2,0v2Z"></path><polygon points="36.379 44 57.621 44 57.192 42 36.808 42 36.379 44"></polygon><polygon points="34.236 54 59.764 54 58.049 46 35.951 46 34.236 54"></polygon><rect x="45" y="38" width="4" height="2"></rect></g></svg>