<svg xmlns="http://www.w3.org/2000/svg" viewBox="0 0 64 64" x="0px" y="0px"><g><rect x="49" y="40" width="4" height="4"></rect><rect x="21" y="8" width="4" height="4"></rect><rect x="21" y="40" width="4" height="4"></rect><path d="M7,50.105a6.988,6.988,0,0,1,4-2.025V36.1A5.009,5.009,0,0,0,7,41Z"></path><path d="M57,50H12a5,5,0,0,0,0,10H57V58H13a3,3,0,0,1,0-6H57Z"></path><path d="M12,55a1,1,0,0,0,1,1H57V54H13A1,1,0,0,0,12,55Z"></path><path d="M7,19.111a6.978,6.978,0,0,1,4-2.031V4.1A5.009,5.009,0,0,0,7,9Z"></path><path d="M7,36.111a6.978,6.978,0,0,1,4-2.031V19.1A5.009,5.009,0,0,0,7,24Z"></path><rect x="13" y="4" width="2" height="44"></rect><rect x="49" y="8" width="4" height="4"></rect><path d="M47,13V8H27v5a1,1,0,0,1-1,1H21V38h5a1,1,0,0,1,1,1v5H47V39a1,1,0,0,1,1-1h5V14H48A1,1,0,0,1,47,13ZM45,34a1,1,0,0,1-1,1H30a1,1,0,0,1-1-1V28a1,1,0,0,1,1-1H44a1,1,0,0,1,1,1Zm0-10a1,1,0,0,1-1,1H30a1,1,0,0,1-1-1V18a1,1,0,0,1,1-1H44a1,1,0,0,1,1,1Z"></path><path d="M57,4H17V48H57ZM55,45a1,1,0,0,1-1,1H20a1,1,0,0,1-1-1V7a1,1,0,0,1,1-1H54a1,1,0,0,1,1,1Z"></path><rect x="31" y="19" width="12" height="4"></rect><rect x="31" y="29" width="12" height="4"></rect></g></svg>