<svg xmlns="http://www.w3.org/2000/svg" viewBox="0 0 64 64" x="0px" y="0px"><title>Presentaion travel</title><g data-name="Presentaion travel"><path d="M50,14H14v6H50Zm-2,4H16V16H48Z"></path><path d="M34,40H56V24H34Zm10.586-2H37.414L41,34.414Zm2.828,0-2.955-2.955,4.586-4.586L54,35.414V38ZM54,26v6.586l-4.955-4.955-6,6L41,31.586l-5,5V26Z"></path><rect x="10" y="24" width="20" height="2"></rect><rect x="10" y="28" width="4" height="2"></rect><rect x="16" y="28" width="14" height="2"></rect><rect x="10" y="32" width="14" height="2"></rect><rect x="26" y="32" width="4" height="2"></rect><rect x="10" y="36" width="20" height="2"></rect><path d="M62,12V6H36V2H28V6H2v6H4V44H2v6H28v6H21v6H43V56H36V50H62V44H60V12ZM30,4h4V6H30ZM4,8H60v2H4ZM41,58v2H23V58Zm-7-2H30V50h4Zm26-8H4V46H60Zm-2-4H6V12H58Z"></path></g></svg>