<svg xmlns="http://www.w3.org/2000/svg" viewBox="0 0 64 64" x="0px" y="0px"><g data-name="Gamer-Game Console-Smartphone-Application-Control"><polygon points="19 43 17 43 17 45 15 45 15 47 17 47 17 49 19 49 19 47 21 47 21 45 19 45 19 43"></polygon><rect x="40" y="42" width="2" height="2"></rect><rect x="43" y="45" width="2" height="2"></rect><rect x="40" y="48" width="2" height="2"></rect><rect x="37" y="45" width="2" height="2"></rect><rect x="24" y="45" width="2" height="2"></rect><rect x="28" y="45" width="2" height="2"></rect><path d="M41,38a8,8,0,1,0,8,8A8.009,8.009,0,0,0,41,38Zm0,14a6,6,0,1,1,6-6A6.006,6.006,0,0,1,41,52Z"></path><path d="M55,2H9A7.008,7.008,0,0,0,2,9V45a6.96,6.96,0,0,0,5,6.7V55a7.008,7.008,0,0,0,7,7H50a7.008,7.008,0,0,0,7-7V51.7A6.96,6.96,0,0,0,62,45V9A7.008,7.008,0,0,0,55,2Zm0,39.38-1.45.73A.988.988,0,0,0,53,43v6a.988.988,0,0,0,.55.89l1.45.73V55a5,5,0,0,1-5,5H14a5,5,0,0,1-5-5V37a5,5,0,0,1,5-5H50a5,5,0,0,1,5,5ZM60,45a4.939,4.939,0,0,1-3,4.56V37a7.008,7.008,0,0,0-7-7H14a7.008,7.008,0,0,0-7,7V49.56A4.939,4.939,0,0,1,4,45V9A5,5,0,0,1,9,4H55a5,5,0,0,1,5,5Z"></path><path d="M55,6H9A3,3,0,0,0,6,9V31H8V9A1,1,0,0,1,9,8H55a1,1,0,0,1,1,1V31h2V9A3,3,0,0,0,55,6Z"></path><path d="M30.414,19l3-3a1,1,0,0,0,.08-1.324,7,7,0,1,0,0,8.654A1,1,0,0,0,33.417,22ZM28,24a5,5,0,0,1,0-10,4.945,4.945,0,0,1,3.321,1.265l-3.028,3.028a1,1,0,0,0,0,1.414l3.028,3.028A4.945,4.945,0,0,1,28,24Z"></path><rect x="27" y="15" width="2" height="2"></rect><rect x="33" y="18" width="2" height="2"></rect><rect x="37" y="18" width="2" height="2"></rect><rect x="41" y="18" width="2" height="2"></rect></g></svg>