<svg xmlns="http://www.w3.org/2000/svg" viewBox="0 0 64 64" x="0px" y="0px"><g><path d="M34,43.24l-3-.94V47a5,5,0,0,1-5,5H24v2H34Z"></path><path d="M34,22v4a2.015,2.015,0,0,0,2-2A2.006,2.006,0,0,0,34,22Z"></path><path d="M26,6.23V14h6.95a8.94,8.94,0,0,0-2.59-5.36c-.11-.12-.24-.21-.36-.32V12H28V6.95A9.024,9.024,0,0,0,26,6.23Z"></path><path d="M14,27a9,9,0,0,0,18,0V20H14Zm13-5a2,2,0,1,1-2,2A2,2,0,0,1,27,22Zm-2.017,7.25,1.325,1.5a5,5,0,0,1-6.616,0l1.325-1.5A3.074,3.074,0,0,0,24.983,29.25ZM19,22a2,2,0,1,1-2,2A2,2,0,0,1,19,22Z"></path><circle cx="48" cy="47" r="1"></circle><path d="M22,14h2V5a1,1,0,0,0-2,0Z"></path><path d="M20,37.57V40a3,3,0,0,0,6,0V37.57a10.68,10.68,0,0,1-6,0Z"></path><path d="M13.06,14H20V6.23a9.209,9.209,0,0,0-2,.72V12H16V8.31A9,9,0,0,0,13.06,14Z"></path><rect x="11" y="16" width="24" height="2"></rect><path d="M55,60V47.07l-7-7-7,7V60h3V54a1,1,0,0,1,1-1h6a1,1,0,0,1,1,1v6ZM48,50a3,3,0,1,1,3-3A3,3,0,0,1,48,50Z"></path><path d="M38.81,49.26a3.046,3.046,0,0,1-2.81.77V60h3V49.07Z"></path><path d="M12,26V22a2.006,2.006,0,0,0-2,2,2.015,2.015,0,0,0,2,2Z"></path><rect x="24" y="56" width="10" height="4"></rect><path d="M60.02,47.85a.99.99,0,0,0,.29-.71.967.967,0,0,0-.29-.7L48.71,35.12a1.008,1.008,0,0,0-1.42,0L35.98,46.44a.967.967,0,0,0-.29.7.99.99,0,0,0,.29.71,1.014,1.014,0,0,0,1.41,0l9.9-9.9a1.014,1.014,0,0,1,1.42,0l9.9,9.9A1.014,1.014,0,0,0,60.02,47.85Z"></path><rect x="46" y="55" width="4" height="5"></rect><path d="M29,47V41.67l-1.19-.37a4.976,4.976,0,0,1-9.62,0L17,41.67V47a3.009,3.009,0,0,0,3,3h6A3.009,3.009,0,0,0,29,47Z"></path><path d="M4,60h6V43.86l-1.09.34A6.964,6.964,0,0,0,4,50.88Z"></path><path d="M22,52H20a5,5,0,0,1-5-5V42.3l-3,.94V54H22Z"></path><rect x="12" y="56" width="10" height="4"></rect></g></svg>