<svg xmlns="http://www.w3.org/2000/svg" viewBox="0 0 48 48" x="0px" y="0px"><g data-name="Product Delivery"><polygon points="24 5 21 5 21 32 2 32 2 35 21 35 21 39 24 39 26 39 42 39 46 39 46 34 24 34 24 5"></polygon><circle cx="26" cy="42" r="3"></circle><circle cx="42" cy="42" r="3"></circle><path d="M5,8v8H17V8H14v2a1,1,0,0,1-1,1H9a1,1,0,0,1-1-1V8Z"></path><rect x="10" y="8" width="2" height="1"></rect><path d="M5,20v8H17V20H14v2a1,1,0,0,1-1,1H9a1,1,0,0,1-1-1V20Z"></path><rect x="10" y="20" width="2" height="1"></rect><polygon points="42 18 38.071 18 32.071 24 42 24 42 18"></polygon><path d="M27,32H45V15H35.414L27,23.414Zm16-3H39V27h4ZM30,23.657a1,1,0,0,1,.293-.707l6.657-6.657A1,1,0,0,1,37.657,16H43a1,1,0,0,1,1,1v8a1,1,0,0,1-1,1H31a1,1,0,0,1-1-1Z"></path></g></svg>