<svg xmlns="http://www.w3.org/2000/svg" viewBox="0 0 64 64" x="0px" y="0px"><g><path d="M46,60H10a3,3,0,0,1-3-3V7a3,3,0,0,1,3-3H38v9a1,1,0,0,0,1.707.707L42,11.414l2.293,2.293A1,1,0,0,0,46,13V4a3,3,0,0,1,3,3V30h2V7a5.006,5.006,0,0,0-5-5H10A5.006,5.006,0,0,0,5,7V57a5.006,5.006,0,0,0,5,5H46a5,5,0,0,0,3.308-1.25l-1.325-1.5A2.989,2.989,0,0,1,46,60ZM44,10.586,42.707,9.293a1,1,0,0,0-1.414,0L40,10.586V4h4Z"></path><rect x="11" y="8" width="4" height="2"></rect><rect x="17" y="8" width="10" height="2"></rect><rect x="11" y="12" width="16" height="2"></rect><rect x="11" y="20" width="26" height="2"></rect><rect x="39" y="20" width="6" height="2"></rect><rect x="11" y="26" width="34" height="2"></rect><rect x="11" y="32" width="16" height="2"></rect><rect x="11" y="38" width="14" height="2"></rect><rect x="11" y="48" width="10" height="2"></rect><rect x="11" y="52" width="10" height="2"></rect><rect x="29" y="32" width="6" height="2"></rect><path d="M57,52.184V50a3.017,3.017,0,0,0-1.2-2.4l-2.4-1.8a1,1,0,0,1,0-1.6l2.4-1.8A3.015,3.015,0,0,0,57,40V37.816A2.993,2.993,0,0,0,56,32H44a2.993,2.993,0,0,0-1,5.816V40a3.017,3.017,0,0,0,1.2,2.4l2.4,1.8a1,1,0,0,1,0,1.6l-2.4,1.8A3.015,3.015,0,0,0,43,50v2.184A2.993,2.993,0,0,0,44,58H56a2.993,2.993,0,0,0,1-5.816ZM44,34H56a1,1,0,0,1,0,2H44a1,1,0,0,1,0-2Zm1.4,15.2,2.4-1.8a3,3,0,0,0,0-4.8l-2.4-1.8A1.007,1.007,0,0,1,45,40V38H55v2a1.006,1.006,0,0,1-.4.8l-2.4,1.8a3,3,0,0,0,0,4.8l2.4,1.8a1.007,1.007,0,0,1,.4.8v2H45V50A1.006,1.006,0,0,1,45.4,49.2ZM56,56H44a1,1,0,0,1,0-2H56a1,1,0,0,1,0,2Z"></path></g></svg>