<svg xmlns="http://www.w3.org/2000/svg" viewBox="0 0 64 64" x="0px" y="0px"><g><path d="M28.468,49.047a4.941,4.941,0,0,0-3.954,2.786A5.853,5.853,0,0,0,28.468,49.047Z"></path><path d="M12,16a1,1,0,0,1,1-1H24.465l1.7-2.555a1,1,0,0,1,1.539-.152L30.414,15H33a1,1,0,0,1,1,1V15a10.942,10.942,0,0,0-2.071-6.436,11.572,11.572,0,0,0-1.4-1.588c-.064-.063-.112-.1-.164-.149A11,11,0,0,0,12,15Z"></path><path d="M42,60V49.352a8.961,8.961,0,0,0-6.315-8.59l-1.348-.421L34.6,43.01a6.95,6.95,0,0,0,1.948,4.178A10.238,10.238,0,0,1,39,54a10.752,10.752,0,0,1-1.791,6Z"></path><path d="M21.486,51.833a4.941,4.941,0,0,0-3.954-2.786A5.853,5.853,0,0,0,21.486,51.833Z"></path><path d="M12,20V18a1,1,0,0,0,0,2Z"></path><path d="M29,38.673l-2.3-.718A1,1,0,0,1,26,37V33.574a10.776,10.776,0,0,1-6,0V37a1,1,0,0,1-.7.955l-2.3.718V47a6.967,6.967,0,0,1,6,3.393A6.967,6.967,0,0,1,29,47Z"></path><path d="M33.724,7.655a.94.94,0,0,0,.168-.214A.961.961,0,0,0,34,7a1,1,0,0,0-1-1,.976.976,0,0,0-.5.142A13.48,13.48,0,0,1,33.55,7.393C33.611,7.478,33.664,7.568,33.724,7.655Z"></path><path d="M34,20a1,1,0,0,0,0-2Z"></path><path d="M34.953,9.267l-.012.012c-.062.053-.138.086-.2.134A12.941,12.941,0,0,1,36,15v1.78A2.989,2.989,0,0,1,34,22v1a10.945,10.945,0,0,1-2.846,7.357A12.993,12.993,0,0,0,38,32.961V16A9,9,0,0,0,34.953,9.267Z"></path><path d="M35.13,48.6a8.968,8.968,0,0,1-2.515-5.386l-.354-3.517L31,39.3V46.99C31,50.86,27.411,54,23,54s-8-3.14-8-7V39.3l-1.26.394-.355,3.518a8.963,8.963,0,0,1-2.512,5.382A8.257,8.257,0,0,0,9,54a8.1,8.1,0,0,0,1.967,5.494,5.2,5.2,0,0,1,.475.506H34.558a5.2,5.2,0,0,1,.475-.506A8.1,8.1,0,0,0,37,54,8.258,8.258,0,0,0,35.13,48.6Z"></path><path d="M4,60H8.791A10.752,10.752,0,0,1,7,54a10.239,10.239,0,0,1,2.45-6.814A6.958,6.958,0,0,0,11.4,43.01l.269-2.67-1.349.422A8.961,8.961,0,0,0,4,49.352Z"></path><path d="M32,17H30a1,1,0,0,1-.707-.293L27.155,14.57l-1.323,1.985A1,1,0,0,1,25,17H14v6a9,9,0,0,0,18,0ZM17,19h2v2H17Zm6,10a4,4,0,0,1-4-4h2a2,2,0,0,0,4,0h2A4,4,0,0,1,23,29Zm6-8H27V19h2Z"></path><path d="M45.878,55.536l5.728-2.455a1,1,0,0,1,.788,0l5.728,2.455,1.987-23.181A22.863,22.863,0,0,0,59.93,27H44.07a22.863,22.863,0,0,0-.179,5.355ZM55,48h2v4H55Zm-4-3h2v4H51Zm-4,3h2v4H47Z"></path><path d="M44.459,25H59.541c-.164-.675-.352-1.343-.575-2H45.034C44.811,23.657,44.623,24.325,44.459,25Z"></path><path d="M49.789,14.919A22.963,22.963,0,0,0,45.822,21H51V13.587Z"></path><path d="M53,13.587V21h5.178a22.963,22.963,0,0,0-3.967-6.081h0Z"></path></g></svg>