<svg xmlns="http://www.w3.org/2000/svg" viewBox="0 0 48 48" x="0px" y="0px"><title>Online-Connection-Learning</title><g><path d="M45,34H44V18H42V34H6V11A3,3,0,0,1,9,8H24V6H9a5.006,5.006,0,0,0-5,5V34H3a1,1,0,0,0-1,1v3a2,2,0,0,0,2,2H44a2,2,0,0,0,2-2V35A1,1,0,0,0,45,34ZM4,38V36H20a1,1,0,0,0,1,1h6a1,1,0,0,0,1-1H44v2Z"></path><path d="M10,12H24V10H9a1,1,0,0,0-1,1V31a1,1,0,0,0,1,1H39a1,1,0,0,0,1-1V18H38V30H10Z"></path><path d="M43,2H29a3,3,0,0,0-3,3v8a3,3,0,0,0,3,3h1v3a1,1,0,0,0,.684.949A1.019,1.019,0,0,0,31,20a1,1,0,0,0,.8-.4L34.5,16H43a3,3,0,0,0,3-3V5A3,3,0,0,0,43,2Zm1,11a1,1,0,0,1-1,1H34a1,1,0,0,0-.8.4L32,16V15a1,1,0,0,0-1-1H29a1,1,0,0,1-1-1V5a1,1,0,0,1,1-1H43a1,1,0,0,1,1,1Z"></path><rect x="30" y="5" width="2" height="2"></rect><rect x="34" y="5" width="8" height="2"></rect><rect x="30" y="8" width="12" height="2"></rect><rect x="30" y="11" width="6" height="2"></rect><rect x="38" y="11" width="4" height="2"></rect><rect x="18" y="20" width="2" height="2"></rect><rect x="23" y="20" width="2" height="2"></rect><rect x="28" y="20" width="2" height="2"></rect></g></svg>