<svg xmlns="http://www.w3.org/2000/svg" viewBox="0 0 64 64" x="0px" y="0px"><title>Headphone</title><g><path d="M24,34h2a1,1,0,0,0,1-1V25a1,1,0,0,0-1-1H25V21a7,7,0,0,1,14,0v3H38a1,1,0,0,0-1,1v8a1,1,0,0,0,1,1h2a5,5,0,0,0,1-9.9V21a9,9,0,0,0-18,0v3.1A5,5,0,0,0,24,34Zm15-2V26h1v6Zm4-3a2.985,2.985,0,0,1-1,2.22V26.78A2.985,2.985,0,0,1,43,29ZM25,32H24V26h1Zm-3-5.22v4.44a2.964,2.964,0,0,1,0-4.44Z"></path><path d="M59,2H5A3,3,0,0,0,2,5V45a3,3,0,0,0,3,3H22.9l-.8,8H19a1,1,0,0,0-1,1v3H16v2H48V60H46V57a1,1,0,0,0-1-1H41.905l-.8-8H59a3,3,0,0,0,3-3V5A3,3,0,0,0,59,2ZM44,58v2H20V58ZM24.105,56l.8-8H39.1l.8,8ZM60,45a1,1,0,0,1-1,1H5a1,1,0,0,1-1-1V5A1,1,0,0,1,5,4H59a1,1,0,0,1,1,1Z"></path><path d="M56,6H8A2,2,0,0,0,6,8V39a1,1,0,0,0,1,1H57a1,1,0,0,0,1-1V8A2,2,0,0,0,56,6Zm0,32H8V8H56Z"></path><rect x="31" y="42" width="2" height="2"></rect></g></svg>