<svg xmlns="http://www.w3.org/2000/svg" viewBox="0 0 64 64" x="0px" y="0px"><g data-name="Picture-Smartphone"><path d="M44,2H20a5.006,5.006,0,0,0-5,5V57a5.006,5.006,0,0,0,5,5H44a5.006,5.006,0,0,0,5-5V7A5.006,5.006,0,0,0,44,2ZM20,4H44a3,3,0,0,1,3,3v3H17V7A3,3,0,0,1,20,4Zm27,8V52H17V12ZM44,60H20a3,3,0,0,1-3-3V54H47v3A3,3,0,0,1,44,60Z"></path><rect x="30" y="56" width="4" height="2"></rect><rect x="21" y="6" width="2" height="2"></rect><rect x="25" y="6" width="6" height="2"></rect><path d="M20,50H44a1,1,0,0,0,1-1V15a1,1,0,0,0-1-1H20a1,1,0,0,0-1,1V49A1,1,0,0,0,20,50Zm1-2V44.414l6-6L36.586,48Zm22,0H39.414l-8-8L39,32.414l4,4Zm0-32V33.586l-3.293-3.293a1,1,0,0,0-1.414,0L30,38.586l-2.293-2.293a1,1,0,0,0-1.414,0L21,41.586V16Z"></path><path d="M35,26a4,4,0,1,0-4-4A4,4,0,0,0,35,26Zm0-6a2,2,0,1,1-2,2A2,2,0,0,1,35,20Z"></path></g></svg>