<svg xmlns="http://www.w3.org/2000/svg" viewBox="0 0 64 64" x="0px" y="0px"><g data-name="Swing"><path d="M62,16V14a2,2,0,0,0-2-2H4a2,2,0,0,0-2,2v2a1.993,1.993,0,0,0,1,1.722V56a1,1,0,0,0-1,1v4a1,1,0,0,0,1,1H9a1,1,0,0,0,1-1V57a1,1,0,0,0-1-1V18h4V46a2,2,0,0,0-2,2v2a2,2,0,0,0,2,2H29a2,2,0,0,0,2-2V48a2,2,0,0,0-2-2V18h6V46a2,2,0,0,0-2,2v2a2,2,0,0,0,2,2H51a2,2,0,0,0,2-2V48a2,2,0,0,0-2-2V18h4V56a1,1,0,0,0-1,1v4a1,1,0,0,0,1,1h6a1,1,0,0,0,1-1V57a1,1,0,0,0-1-1V17.722A1.993,1.993,0,0,0,62,16ZM49,14v2H37V14ZM27,14v2H15V14ZM8,60H4V58H8ZM7,56H5V18H7ZM4,16V14h9v2ZM29,50H13V48H29ZM15,46V41a5.006,5.006,0,0,1,5-5h2a5.006,5.006,0,0,1,5,5v5Zm12-9.89A6.977,6.977,0,0,0,22,34H20a6.977,6.977,0,0,0-5,2.11V18H27ZM29,16V14h6v2ZM51,50H35V48H51ZM37,46V41a5.006,5.006,0,0,1,5-5h2a5.006,5.006,0,0,1,5,5v5Zm12-9.89A6.977,6.977,0,0,0,44,34H42a6.977,6.977,0,0,0-5,2.11V18H49ZM51,14h9v2H51Zm9,46H56V58h4Zm-3-4V18h2V56Z"></path></g></svg>