<svg xmlns="http://www.w3.org/2000/svg" viewBox="0 0 64 64" x="0px" y="0px"><g><path d="M28,40a7.008,7.008,0,0,0,7-7V22H15V33a7.008,7.008,0,0,0,7,7Z"></path><rect x="49" y="54" width="1" height="2"></rect><path d="M44.29,57.29a1.014,1.014,0,0,1,1.42,0L47,58.59V50H43v8.59Z"></path><path d="M55.13,51.12A3.005,3.005,0,0,0,53,46H12.97a4.84,4.84,0,0,1,.93,2H53v2H49v2h4A3.03,3.03,0,0,0,55.13,51.12Z"></path><path d="M57.95,44.04A7.026,7.026,0,0,0,53,42H52v2h1a5,5,0,0,1,0,10H52v2h1a7.007,7.007,0,0,0,4.95-11.96Z"></path><path d="M41,50H13.9a4.84,4.84,0,0,1-.93,2H41Z"></path><rect x="8" y="54" width="33" height="2"></rect><rect x="8" y="42" width="42" height="2"></rect><path d="M43,27a5,5,0,0,0-5-5H37v2h1a3,3,0,0,1,0,6H37v2h1A5,5,0,0,0,43,27Z"></path><path d="M25.658,11.753C27.693,9.972,30,7.954,30,4H28c0,3.046-1.7,4.529-3.658,6.247C22.307,12.028,20,14.046,20,18h2C22,14.954,23.7,13.471,25.658,11.753Z"></path><path d="M30,18c0-3.046,1.7-4.529,3.658-6.247C35.693,9.972,38,7.954,38,4H36c0,3.046-1.7,4.529-3.658,6.247C30.307,12.028,28,14.046,28,18Z"></path></g></svg>