<svg xmlns="http://www.w3.org/2000/svg" viewBox="0 0 64 64" x="0px" y="0px"><g data-name="Home-Working-Computer-Work From Home-Laptop"><rect x="13" y="44" width="2" height="2"></rect><rect x="17" y="44" width="2" height="2"></rect><rect x="9" y="44" width="2" height="2"></rect><path d="M61.21,25.79,38.12,2.71a3,3,0,0,0-4.24,0L10.79,25.79a3.125,3.125,0,0,0,4.42,4.42L17,28.41V38H7a3.009,3.009,0,0,0-3,3v9.84L2.05,56.68A1.185,1.185,0,0,0,2,57v3a2.006,2.006,0,0,0,2,2H24a2.006,2.006,0,0,0,2-2V57a1.185,1.185,0,0,0-.05-.32L25.39,55H54a1,1,0,0,0,1-1V28.41l1.79,1.8a3.139,3.139,0,0,0,4.42,0A3.145,3.145,0,0,0,61.21,25.79ZM6,41a1,1,0,0,1,1-1H21a1,1,0,0,1,1,1v9H6ZM5.72,52H22.28l1.33,4H18.72l-.77-2.32A1.014,1.014,0,0,0,17,53H11a1.014,1.014,0,0,0-.95.68L9.28,56H4.39Zm10.89,4H11.39l.33-1h4.56ZM24,60H4V58H24Zm17-7H31V42a5,5,0,0,1,10,0Zm12,0H43V42a7,7,0,0,0-14,0V53H24.72L24,50.84V41a3.009,3.009,0,0,0-3-3H19V26.41l17-17,17,17Zm6.79-24.21a1.129,1.129,0,0,1-1.58,0L37.41,8a2,2,0,0,0-2.82,0L13.79,28.79a1.117,1.117,0,0,1-1.58-1.58L35.29,4.12a1.008,1.008,0,0,1,1.42,0L59.79,27.21A1.111,1.111,0,0,1,59.79,28.79Z"></path><path d="M30,24a6,6,0,1,0,6-6A6.006,6.006,0,0,0,30,24Zm5-3.858V23H32.142A4,4,0,0,1,35,20.142ZM32.142,25H35v2.858A4,4,0,0,1,32.142,25ZM37,27.858V25h2.858A4,4,0,0,1,37,27.858ZM39.858,23H37V20.142A4,4,0,0,1,39.858,23Z"></path><rect x="33" y="45" width="2" height="2"></rect></g></svg>