<svg xmlns="http://www.w3.org/2000/svg" viewBox="0 0 64 64" x="0px" y="0px"><title>Bulb-Light-Love</title><g><path d="M40.243,21.759A5.95,5.95,0,0,0,36.005,20h-.014A5.884,5.884,0,0,0,32,21.545,5.869,5.869,0,0,0,28,20a5.976,5.976,0,0,0-6,5.993c0,2.375,1.2,4.829,3.567,7.3a28.44,28.44,0,0,0,5.946,4.586,1,1,0,0,0,.97,0C32.874,37.658,42,32.516,42,26A5.963,5.963,0,0,0,40.243,21.759ZM32,35.838a26.679,26.679,0,0,1-4.99-3.937C25.011,29.823,24,27.837,24,26A3.974,3.974,0,0,1,28,22h.012A3.97,3.97,0,0,1,31.2,23.628a1,1,0,0,0,.8.4h0a1,1,0,0,0,.8-.4A3.94,3.94,0,0,1,35.993,22H36A3.993,3.993,0,0,1,40,26C40,30.587,33.8,34.73,32,35.838Z"></path><path d="M52,28A20,20,0,1,0,23,45.842V48H21a1,1,0,0,0-1,1v4a1,1,0,0,0,.105.447L22,57.236V61a1,1,0,0,0,1,1H41a1,1,0,0,0,1-1V57.236l1.9-3.789A1,1,0,0,0,44,53V49a1,1,0,0,0-1-1H41V45.842A20.074,20.074,0,0,0,52,28ZM40,60H24V58H40Zm2-7.236L40.382,56H23.618L22,52.764V50H42ZM25,48V45.216a1,1,0,0,0-.578-.906,18,18,0,1,1,15.156,0,1,1,0,0,0-.578.906V48Z"></path><path d="M32,6a1,1,0,0,0,1-1V3a1,1,0,0,0-2,0V5A1,1,0,0,0,32,6Z"></path><path d="M19.634,8.581a1,1,0,1,0,1.732-1l-1-1.731a1,1,0,1,0-1.732,1Z"></path><path d="M9.849,16.366l1.733,1a.992.992,0,0,0,.5.134,1,1,0,0,0,.5-1.866l-1.733-1a1,1,0,0,0-1,1.732Z"></path><path d="M10,28a1,1,0,0,0-1-1H7a1,1,0,0,0,0,2H9A1,1,0,0,0,10,28Z"></path><path d="M11.582,38.634l-1.733,1a1,1,0,1,0,1,1.732l1.733-1a1,1,0,1,0-1-1.732Z"></path><path d="M54.151,39.634l-1.733-1a1,1,0,1,0-1,1.732l1.733,1a1,1,0,0,0,1-1.732Z"></path><path d="M57,27H55a1,1,0,0,0,0,2h2a1,1,0,0,0,0-2Z"></path><path d="M51.919,17.5a.992.992,0,0,0,.5-.134l1.733-1a1,1,0,0,0-1-1.732l-1.733,1a1,1,0,0,0,.5,1.866Z"></path><path d="M43,8.947a1,1,0,0,0,1.366-.366l1-1.731a1,1,0,1,0-1.732-1l-1,1.731A1,1,0,0,0,43,8.947Z"></path></g></svg>