<svg xmlns="http://www.w3.org/2000/svg" viewBox="0 0 64 64" x="0px" y="0px"><g data-name="Television"><path d="M59,6H5A3,3,0,0,0,2,9V43a3,3,0,0,0,3,3H24.9l-.8,8H23a3,3,0,0,0-3,3v1a2,2,0,0,0,2,2H42a2,2,0,0,0,2-2V57a3,3,0,0,0-3-3H39.905l-.8-8H59a3,3,0,0,0,3-3V9A3,3,0,0,0,59,6ZM42,57v1H22V57a1,1,0,0,1,1-1H41A1,1,0,0,1,42,57Zm-4.1-3H26.105l.8-8H37.1ZM60,43a1,1,0,0,1-1,1H5a1,1,0,0,1-1-1V9A1,1,0,0,1,5,8H59a1,1,0,0,1,1,1Z"></path><path d="M56,10H8a2,2,0,0,0-2,2V40a2,2,0,0,0,2,2H56a2,2,0,0,0,2-2V12A2,2,0,0,0,56,10ZM8,40V12H56V40Z"></path><path d="M37.658,24.211,30.9,20.829A2,2,0,0,0,28,22.618v6.764a2,2,0,0,0,2,2,2.01,2.01,0,0,0,.9-.213l6.763-3.382a2,2,0,0,0,0-3.578ZM30,29.387V22.618L36.764,26Z"></path></g></svg>