<svg xmlns="http://www.w3.org/2000/svg" viewBox="0 0 64 64" x="0px" y="0px"><g data-name="Telephone-Vintage-Retro-Phone Call-Tool"><rect x="8" y="7" width="2" height="2"></rect><circle cx="32" cy="39" r="1"></circle><path d="M45,11V7H43v4H41v2h2v4a3,3,0,0,1-3,3H24a3,3,0,0,1-3-3V13h2V11H21V7H19v4H4v2H19v4a5.006,5.006,0,0,0,5,5h7v2.04c.33-.03.66-.04,1-.04s.67.01,1,.04V22h7a5.006,5.006,0,0,0,5-5V13H60V11Z"></path><rect x="25" y="10" width="14" height="4"></rect><rect x="8" y="15" width="2" height="2"></rect><rect x="4" y="23" width="10" height="2"></rect><rect x="5" y="19" width="8" height="2"></rect><rect x="54" y="7" width="2" height="2"></rect><rect x="51" y="19" width="8" height="2"></rect><rect x="12" y="54" width="40" height="2"></rect><rect x="50" y="23" width="10" height="2"></rect><rect x="10" y="58" width="44" height="2"></rect><rect x="54" y="15" width="2" height="2"></rect><path d="M40.941,38a9,9,0,1,0,0,2H37V38ZM31,32h2v2H31Zm-3.243,1.343,1.415,1.415-1.414,1.414-1.415-1.415ZM25,40V38h2v2Zm2.757,4.657-1.414-1.414,1.415-1.415,1.414,1.414ZM33,46H31V44h2Zm-1-4a3,3,0,1,1,3-3A3,3,0,0,1,32,42Zm5.657,1.243-1.414,1.414-1.415-1.415,1.414-1.414Zm-1.415-7.071-1.414-1.414,1.415-1.415,1.414,1.414Z"></path><path d="M44.63,34a1,1,0,0,1-.9-.57,12.974,12.974,0,0,0-23.46,0,1,1,0,0,1-.9.57H15V52H49V34ZM45,40H42.949a11,11,0,1,1,0-2H45Z"></path></g></svg>