<svg xmlns="http://www.w3.org/2000/svg" viewBox="0 0 64 64" x="0px" y="0px"><g data-name="DJ"><path d="M34,27h3a1,1,0,0,0,1-1V22a1,1,0,0,0-1-1H34Z"></path><path d="M30,39a3,3,0,0,1,3-3h3.915l-.949-7H34c-.064,0-.125-.013-.188-.019A11.024,11.024,0,0,1,28,36.786v3.479l2,.625Z"></path><path d="M8,22v4a1,1,0,0,0,1,1h3V21H9A1,1,0,0,0,8,22Z"></path><path d="M4,60h6V52h2v8H30.184A2.966,2.966,0,0,1,30,59V42.985L27.807,42.3a4.973,4.973,0,0,1-9.614,0l-7.875,2.464A8.947,8.947,0,0,0,4,53.35Z"></path><circle cx="42" cy="49" r="1"></circle><path d="M31,21a7.038,7.038,0,0,1-5.6-2.8l-.51-.68-1.43,1.43A6.959,6.959,0,0,1,18.51,21H14v6a9,9,0,0,0,18,0V21ZM17,23h2v2H17Zm6,10a4,4,0,0,1-4-4h2a2,2,0,0,0,4,0h2A4,4,0,0,1,23,33Zm6-8H27V23h2Z"></path><path d="M15,41h.651L18,40.265V36.786a11.024,11.024,0,0,1-5.812-7.8c-.063.006-.124.019-.188.019H10.034L8.6,39.594a3,3,0,0,0,1.668,3.09l2.132-.667A3.977,3.977,0,0,1,11,39h2A2,2,0,0,0,15,41Z"></path><path d="M11.393,19h7.122a4.97,4.97,0,0,0,3.536-1.465l2.242-2.242A.991.991,0,0,1,25.071,15a1,1,0,0,1,.729.4L27,17a5.025,5.025,0,0,0,4,2h3.607l-.2-1.477A11.03,11.03,0,0,0,23.51,8H22.49a11.03,11.03,0,0,0-10.9,9.523Z"></path><path d="M20,37.574V41a3,3,0,0,0,6,0V37.574a10.776,10.776,0,0,1-6,0Z"></path><path d="M59,38H33a1,1,0,0,0-1,1V59a1,1,0,0,0,1,1H59a1,1,0,0,0,1-1V39A1,1,0,0,0,59,38ZM34,40h2v2H34Zm2,18H34V56h2Zm6-1a8,8,0,1,1,8-8A8.011,8.011,0,0,1,42,57Zm16,1H56V56h2Zm-2-9.18V53a1.033,1.033,0,0,1-.29.71l-3,3-1.42-1.42L54,52.59V48.82a3,3,0,1,1,2,0ZM58,42H56V40h2Z"></path><path d="M42,43a6,6,0,1,0,6,6A6,6,0,0,0,42,43Zm0,9a3,3,0,1,1,3-3A3.009,3.009,0,0,1,42,52Z"></path><circle cx="55" cy="46" r="1"></circle><path d="M37,19H35V15A11.013,11.013,0,0,0,24,4H22A11.013,11.013,0,0,0,11,15v4H9V15A13.015,13.015,0,0,1,22,2h2A13.015,13.015,0,0,1,37,15Z"></path><path d="M58.615,18.212a1,1,0,0,0-.857-.182l-8,2A1,1,0,0,0,49,21v5.184A2.966,2.966,0,0,0,48,26a3,3,0,1,0,3,3V21.781l6-1.5v3.9A2.966,2.966,0,0,0,56,24a3,3,0,1,0,3,3V19A1,1,0,0,0,58.615,18.212Z"></path></g></svg>