<svg xmlns="http://www.w3.org/2000/svg" viewBox="0 0 64 64" x="0px" y="0px"><g data-name="Report"><rect x="15" y="6" width="2" height="2"></rect><rect x="19" y="6" width="2" height="2"></rect><rect x="23" y="6" width="2" height="2"></rect><path d="M55,14H53V5a3,3,0,0,0-3-3H14a3,3,0,0,0-3,3V41a3,3,0,0,0,3,3h5v9a1,1,0,0,0,.2.6L22,57.333V61a1,1,0,0,0,1,1H44a1,1,0,0,0,1-1V57.333L47.8,53.6A1,1,0,0,0,48,53V44h2a3,3,0,0,0,3-3V28h2a2,2,0,0,0,2-2V16A2,2,0,0,0,55,14ZM14,4H50a1,1,0,0,1,1,1v5H13V5A1,1,0,0,1,14,4ZM46,52.667,43.2,56.4a1,1,0,0,0-.2.6v3H24V57a1,1,0,0,0-.2-.6L21,52.667V44h3v2h2V44h3v2h2V44h3v2h2V44h4v1.764l-1.9,3.789A1,1,0,0,0,38,50v3h2V50.236l1.9-3.789A1,1,0,0,0,42,46V38a2,2,0,0,1,4,0ZM51,41a1,1,0,0,1-1,1H48V38a4,4,0,0,0-8,0v4H14a1,1,0,0,1-1-1V12H51v2H39a2,2,0,0,0-2,2V26a2,2,0,0,0,2,2h5v3a1,1,0,0,0,1.707.707L49.414,28H51Zm4-15H49a1,1,0,0,0-.707.293L46,28.586V27a1,1,0,0,0-1-1H39V16H55Z"></path><rect x="41" y="18" width="12" height="2"></rect><rect x="41" y="22" width="12" height="2"></rect><path d="M32,14H16a1,1,0,0,0-1,1V29a1,1,0,0,0,1,1H32a1,1,0,0,0,1-1V15A1,1,0,0,0,32,14ZM31,28H17V16H31Z"></path><rect x="19" y="22" width="2" height="4"></rect><rect x="23" y="20" width="2" height="6"></rect><rect x="27" y="18" width="2" height="8"></rect><rect x="15" y="32" width="4" height="2"></rect><rect x="21" y="32" width="12" height="2"></rect><rect x="15" y="36" width="8" height="2"></rect><rect x="25" y="36" width="8" height="2"></rect></g></svg>