<svg xmlns="http://www.w3.org/2000/svg" viewBox="0 0 64 64" x="0px" y="0px"><g><path d="M20,38V26a1,1,0,0,0-1-1H7a1,1,0,0,0-1,1V38a1,1,0,0,0,1,1H19A1,1,0,0,0,20,38ZM10,37a2,2,0,1,1,2-2A2,2,0,0,1,10,37Zm0-6a2,2,0,1,1,2-2A2,2,0,0,1,10,31Zm6,6a2,2,0,1,1,2-2A2,2,0,0,1,16,37Zm0-6a2,2,0,1,1,2-2A2,2,0,0,1,16,31Z"></path><path d="M17,60V41H9V60ZM11,43h4v2H11Zm0,4h4v2H11Zm0,4h4v2H11Zm0,4h4v2H11Z"></path><path d="M9,4V23h8V4Zm6,17H11V19h4Zm0-4H11V15h4Zm0-4H11V11h4Zm0-4H11V7h4Z"></path><path d="M60,7a3,3,0,0,0-3-3H51V6a2,2,0,0,1-2,2H39a2,2,0,0,1-2-2V4H31a3,3,0,0,0-3,3V57a3,3,0,0,0,3,3H57a3,3,0,0,0,3-3ZM44.574,41.819,41.1,44.253l-1.147-1.639,1.4-.981a10,10,0,0,1-.66-19.073l.662,1.888A8,8,0,0,0,41.871,39.7L40.747,38.1l1.639-1.147,2.433,3.475A1,1,0,0,1,44.574,41.819Zm2.835-.416-.681-1.88a8,8,0,0,0-.6-15.227L47.253,25.9l-1.639,1.147-2.433-3.475a1,1,0,0,1,.245-1.393L46.9,19.747l1.147,1.639-1.4.981A9.995,9.995,0,0,1,47.409,41.4Z"></path><rect x="39" y="4" width="10" height="2"></rect></g></svg>