<svg xmlns="http://www.w3.org/2000/svg" viewBox="0 0 64 64" x="0px" y="0px"><g><path d="M33.414,30.343l-.707.707a1,1,0,0,1-1.414,0l-.707-.706a1,1,0,1,0-1.414,1.414L32,34.586l2.828-2.828a1,1,0,1,0-1.414-1.415Z"></path><path d="M16.414,43.343l-.707.707a1,1,0,0,1-1.414,0l-.707-.706a1,1,0,1,0-1.414,1.414L15,47.586l2.828-2.828a1,1,0,1,0-1.414-1.415Z"></path><rect x="43" y="29" width="7" height="7"></rect><path d="M49,21.586l2.828-2.828a1,1,0,1,0-1.414-1.414l-.707.706a1,1,0,0,1-1.414,0l-.707-.707a1,1,0,0,0-1.414,1.415Z"></path><path d="M24,25a1,1,0,0,0-1,1V39a1,1,0,0,0,1,1H40a1,1,0,0,0,1-1V26a1,1,0,0,0-1-1Zm12.242,8.172-3.535,3.535a1,1,0,0,1-1.414,0l-3.535-3.535A3,3,0,0,1,32,28.928h0a3,3,0,0,1,4.242,4.243Z"></path><path d="M24,52V42a3.009,3.009,0,0,1-3-3V38H7a1,1,0,0,0-1,1V52a1,1,0,0,0,1,1H23A1,1,0,0,0,24,52Zm-4.758-5.828-3.535,3.535a1,1,0,0,1-1.414,0l-3.535-3.535A3,3,0,0,1,15,41.928h0a3,3,0,1,1,4.242,4.243Z"></path><path d="M14,10h9a3.009,3.009,0,0,1,3,3V23H38V13a3.009,3.009,0,0,1,3-3h9V8a4,4,0,0,0-4-4H18a4,4,0,0,0-4,4ZM29,6h6V8H29ZM25,6h2V8H25Z"></path><path d="M40,13V23a3.009,3.009,0,0,1,3,3v1H57a1,1,0,0,0,1-1V13a1,1,0,0,0-1-1H41A1,1,0,0,0,40,13Zm4.758,2.929a3,3,0,0,1,4.242,0h0a3,3,0,0,1,4.242,4.244l-3.535,3.535a1,1,0,0,1-1.414,0l-3.535-3.535A3,3,0,0,1,44.758,15.929Z"></path><path d="M50.414,43.344l-.707.706a1,1,0,0,1-1.414,0l-.707-.707a1,1,0,1,0-1.414,1.415L49,47.586l2.828-2.828a1,1,0,1,0-1.414-1.414Z"></path><path d="M58,52V39a1,1,0,0,0-1-1H43v1a3.009,3.009,0,0,1-3,3V52a1,1,0,0,0,1,1H57A1,1,0,0,0,58,52Zm-4.758-5.828-3.535,3.535a1,1,0,0,1-1.414,0l-3.535-3.535A3,3,0,0,1,49,41.929h0a3,3,0,1,1,4.242,4.244Z"></path><rect x="14" y="29" width="7" height="7"></rect><path d="M6,13V26a1,1,0,0,0,1,1H21V26a3.009,3.009,0,0,1,3-3V13a1,1,0,0,0-1-1H7A1,1,0,0,0,6,13Zm4.758,2.929a3,3,0,0,1,4.242,0h0a3,3,0,1,1,4.242,4.243l-3.535,3.535a1,1,0,0,1-1.414,0l-3.535-3.535A3,3,0,0,1,10.758,15.929Z"></path><path d="M15,21.586l2.828-2.828a1,1,0,1,0-1.414-1.415l-.707.707a1,1,0,0,1-1.414,0l-.707-.706a1,1,0,1,0-1.414,1.414Z"></path><path d="M50,55H41a3.009,3.009,0,0,1-3-3V42H26V52a3.009,3.009,0,0,1-3,3H14v1a4,4,0,0,0,4,4H46a4,4,0,0,0,4-4ZM33,58H31V56h2Z"></path></g></svg>