<svg xmlns="http://www.w3.org/2000/svg" viewBox="0 0 64 64" x="0px" y="0px"><g data-name="Businessman-Avatar"><path d="M23,16h4.029a10.928,10.928,0,0,0,7.779-3.222l.485-.485A1,1,0,0,1,36,12a.968.968,0,0,1,.16.013,1,1,0,0,1,.735.54l.894,1.789A2.983,2.983,0,0,0,40.472,16H41V13a9,9,0,0,0-18,0Z"></path><polygon points="32 55.586 33.953 53.633 32.104 37 31.896 37 30.047 53.633 32 55.586"></polygon><path d="M49,60V40.58a5.026,5.026,0,0,0-3.686-4.826L35.858,33h-.24l-1.591,3.183L35.994,53.89a1,1,0,0,1-.287.817l-3,3a1,1,0,0,1-1.414,0l-3-3a1,1,0,0,1-.287-.817l1.967-17.707L28.382,33h-.24L18.7,35.75A5.031,5.031,0,0,0,15,40.58V60h5V41h2V60H42V41h2V60Z"></path><path d="M35,29.539a9.992,9.992,0,0,1-6,0V31h6Z"></path><polygon points="33.382 33 30.618 33 31.618 35 32.382 35 33.382 33"></polygon><path d="M40,20V17.967a4.962,4.962,0,0,1-4-2.731l-.282-.565A12.906,12.906,0,0,1,27.029,18H24v2a8,8,0,0,0,16,0Zm-8,6a4,4,0,0,1-4-4h2a2,2,0,0,0,4,0h2A4,4,0,0,1,32,26Z"></path></g></svg>