<svg xmlns="http://www.w3.org/2000/svg" viewBox="0 0 64 64" x="0px" y="0px"><g><path d="M56.78,60,53.71,47.71A5.991,5.991,0,0,0,51,37.09V26.91a6,6,0,1,0-5.52-9.84l-7.91-4.84A6.1,6.1,0,0,0,38,10a6,6,0,0,0-12,0,6.1,6.1,0,0,0,.43,2.23l-7.91,4.84A5.994,5.994,0,1,0,13,26.91V37.09a5.991,5.991,0,0,0-2.71,10.62L7.22,60H2v2H62V60ZM53.8,56.33l-2.66-.76,2.06-1.65ZM54,43a4,4,0,1,1-4-4A4,4,0,0,1,54,43ZM50,17a4,4,0,1,1-4,4A4,4,0,0,1,50,17Zm-1,9.91V37.09a5.968,5.968,0,0,0-3.52,1.98l-7.91-4.84A6.1,6.1,0,0,0,38,32a5.922,5.922,0,0,0-.53-2.45l7.64-5.09A5.968,5.968,0,0,0,49,26.91ZM36.52,13.93l7.91,4.84A6.1,6.1,0,0,0,44,21a5.907,5.907,0,0,0,.23,1.64l-7.87,5.25A6,6,0,0,0,33,26.09V15.91A5.968,5.968,0,0,0,36.52,13.93ZM34,46a1,1,0,0,0-.45.11L29.76,48H27.97l.57-3H30a.967.967,0,0,0,.55-.17L33.3,43h1.78l.57,3Zm2.03,2,.4,2.12L33.36,52H30.64l-3.07-1.88.02-.12H30a1,1,0,0,0,.45-.11L34.24,48Zm-7.11-5,1.03-5.37a5.864,5.864,0,0,0,4.1,0L34.69,41H33a.967.967,0,0,0-.55.17L29.7,43ZM32,36a4,4,0,1,1,4-4A4,4,0,0,1,32,36ZM32,6a4,4,0,1,1-4,4A4,4,0,0,1,32,6ZM19.57,18.77l7.91-4.84A5.968,5.968,0,0,0,31,15.91V26.09a5.968,5.968,0,0,0-3.52,1.98l-7.91-4.84a6,6,0,0,0,0-4.46Zm-1.05,6.16,7.91,4.84A6.1,6.1,0,0,0,26,32a5.922,5.922,0,0,0,.53,2.45l-7.64,5.09A5.968,5.968,0,0,0,15,37.09V26.91A5.968,5.968,0,0,0,18.52,24.93ZM10,21a4,4,0,1,1,4,4A4,4,0,0,1,10,21Zm0,22a4,4,0,1,1,4,4A4,4,0,0,1,10,43Zm.8,10.92,2.06,1.65-2.66.76ZM13.12,60H9.28l.36-1.43,3.79-1.08Zm.77-6.17-2.01-1.61,2.29-.66Zm.55-4.43-2.7.78.37-1.49A5.943,5.943,0,0,0,14,49a4.193,4.193,0,0,0,.5-.03ZM25.17,52H23v2h2v6H15.13l1.45-11.59a6.23,6.23,0,0,0,1.94-1.47l6.82,4.17Zm.57-2.99-6.18-3.77A6,6,0,0,0,20,43a5.907,5.907,0,0,0-.23-1.64l7.87-5.25c.15.16.31.31.47.45ZM33,60H31V58h2Zm4,0H35V57a1,1,0,0,0-1-1H30a1,1,0,0,0-1,1v3H27V54H37ZM35.89,36.56a6.244,6.244,0,0,0,.63-.63l7.91,4.84a6,6,0,0,0,0,4.46l-6.17,3.78ZM39,60V54h2V52H38.83l-.17-.89,6.82-4.18a6.112,6.112,0,0,0,1.94,1.48L48.87,60ZM49.5,48.97A4.193,4.193,0,0,0,50,49a5.943,5.943,0,0,0,1.89-.31l.37,1.49-2.7-.78Zm.33,2.59,2.29.66-2.01,1.61ZM50.88,60l-.31-2.51,3.79,1.08L54.72,60Z"></path></g></svg>