<svg xmlns="http://www.w3.org/2000/svg" viewBox="0 0 64 64" x="0px" y="0px"><g data-name="VHS Player-Video Tape-Tape-Recorder-Electronic"><path d="M15,32H45a1,1,0,0,0,1-1V25a1,1,0,0,0-1-1H15a1,1,0,0,0-1,1v6A1,1,0,0,0,15,32Zm1-6H44v4H16Z"></path><path d="M61,20H3a1,1,0,0,0-1,1V39a1,1,0,0,0,1,1H5v3a1,1,0,0,0,1,1h6a1,1,0,0,0,1-1V40H51v3a1,1,0,0,0,1,1h6a1,1,0,0,0,1-1V40h2a1,1,0,0,0,1-1V21A1,1,0,0,0,61,20ZM11,42H7V40h4Zm46,0H53V40h4Zm3-4H4V22H60Z"></path><rect x="8" y="25" width="4" height="2"></rect><rect x="8" y="29" width="4" height="2"></rect><path d="M53,34a5,5,0,1,0-5-5A5.006,5.006,0,0,0,53,34Zm0-2a3,3,0,0,1-2.816-2h5.632A3,3,0,0,1,53,32Zm0-6a3,3,0,0,1,2.816,2H50.184A3,3,0,0,1,53,26Z"></path><rect x="20" y="34" width="2" height="2"></rect><rect x="24" y="34" width="2" height="2"></rect><rect x="34" y="34" width="2" height="2"></rect><rect x="38" y="34" width="2" height="2"></rect></g></svg>