<svg xmlns="http://www.w3.org/2000/svg" viewBox="0 0 64 64" x="0px" y="0px"><g data-name="Battle-Game-Esport-Multiplayer-Video Game"><rect x="20" y="12" width="2" height="4"></rect><path d="M29,14a3.01,3.01,0,0,1,2-2.82V8H20v2h3a1,1,0,0,1,1,1v6a1,1,0,0,1-1,1H20v2H31V16.82A3.01,3.01,0,0,1,29,14Z"></path><rect x="30" y="26" width="4" height="4"></rect><rect x="26" y="32" width="12" height="2"></rect><path d="M47,4H17a1,1,0,0,0-1,1V23a1,1,0,0,0,1,1H47a1,1,0,0,0,1-1V5A1,1,0,0,0,47,4ZM46,21a1,1,0,0,1-1,1H19a1,1,0,0,1-1-1V7a1,1,0,0,1,1-1H45a1,1,0,0,1,1,1Z"></path><circle cx="32" cy="14" r="1"></circle><path d="M33,11.18a2.988,2.988,0,0,1,0,5.64V20H44V18H41a1,1,0,0,1-1-1V11a1,1,0,0,1,1-1h3V8H33Z"></path><rect x="42" y="12" width="2" height="4"></rect><path d="M17,40H15a2,2,0,0,0-2-2H10a4,4,0,0,1,0-8h8a2,2,0,0,0,2-2V26h2v2a4,4,0,0,1-4,4H10a2,2,0,0,0,0,4h3A4,4,0,0,1,17,40Z"></path><path d="M49,40H47a4,4,0,0,1,4-4h3a2,2,0,0,0,0-4H46a4,4,0,0,1-4-4V26h2v2a2,2,0,0,0,2,2h8a4,4,0,0,1,0,8H51A2,2,0,0,0,49,40Z"></path><path d="M23,54H22a.967.967,0,0,1-.55-.17L18.7,52H13.3l-2.75,1.83A.967.967,0,0,1,10,54H9a6.985,6.985,0,0,1-5.32-2.46l-.45,6.25A2.07,2.07,0,0,0,5.29,60a2.074,2.074,0,0,0,1.75-.98l2.21-3.59A2.989,2.989,0,0,1,11.81,54h8.38a2.989,2.989,0,0,1,2.56,1.43l2.21,3.59a2.074,2.074,0,0,0,1.75.98,2.07,2.07,0,0,0,2.06-2.21l-.45-6.25A6.985,6.985,0,0,1,23,54Z"></path><rect x="22" y="46" width="2" height="2"></rect><path d="M9,52h.7l2.75-1.83A.967.967,0,0,1,13,50h6a.967.967,0,0,1,.55.17L22.3,52H23a5,5,0,0,0,0-10H9A5,5,0,0,0,9,52Zm11-6h2V44h2v2h2v2H24v2H22V48H20Zm-5-2h2v2H15ZM6,46H8V44h2v2h2v2H10v2H8V48H6Z"></path><path d="M55,54H54a.967.967,0,0,1-.55-.17L50.7,52H45.3l-2.75,1.83A.967.967,0,0,1,42,54H41a6.985,6.985,0,0,1-5.32-2.46l-.45,6.25A2.07,2.07,0,0,0,37.29,60a2.039,2.039,0,0,0,1.75-.98l2.21-3.59A2.989,2.989,0,0,1,43.81,54h8.38a2.989,2.989,0,0,1,2.56,1.43l2.21,3.59a2.039,2.039,0,0,0,1.75.98,2.07,2.07,0,0,0,2.06-2.21l-.45-6.25A6.985,6.985,0,0,1,55,54Z"></path><rect x="54" y="46" width="2" height="2"></rect><path d="M41,52h.7l2.75-1.83A.967.967,0,0,1,45,50h6a.967.967,0,0,1,.55.17L54.3,52H55a5,5,0,0,0,0-10H41a5,5,0,0,0,0,10Zm11-6h2V44h2v2h2v2H56v2H54V48H52Zm-5-2h2v2H47Zm-9,2h2V44h2v2h2v2H42v2H40V48H38Z"></path></g></svg>