<svg xmlns="http://www.w3.org/2000/svg" viewBox="0 0 64 64" x="0px" y="0px"><g><path d="M27,8H37a2,2,0,0,0,0-4H27a2,2,0,0,0,0,4Z"></path><circle cx="20" cy="28" r="1"></circle><circle cx="38" cy="24" r="1"></circle><circle cx="18" cy="53" r="1"></circle><path d="M54,54a1,1,0,0,1-1-1V39a21.285,21.285,0,0,0-.469-4.369c-1.257-.188-2.285-.427-3.27-.663A30.12,30.12,0,0,0,41,33c-.324,0-.633.007-.943.013A8.933,8.933,0,0,1,41,37v6a1,1,0,0,1-.293.707l-1.6,1.6.863,3.45A1,1,0,0,1,39,50H25a1,1,0,0,1-.97-1.243l.863-3.45-1.6-1.6A1,1,0,0,1,23,43V37a8.94,8.94,0,0,1,.233-2c-.081,0-.151,0-.233,0a32.053,32.053,0,0,1-8.73-1.03c-.819-.2-1.607-.386-2.52-.545A21.187,21.187,0,0,0,11,39V53a1,1,0,0,1-1,1,3,3,0,0,0,0,6H54a3,3,0,0,0,0-6ZM16,38h2v2H16Zm2,18a3,3,0,1,1,3-3A3,3,0,0,1,18,56Zm13,1H29V55h2Zm13-2H42V53h2Zm3-7a3,3,0,1,1,3-3A3,3,0,0,1,47,48Z"></path><circle cx="47" cy="45" r="1"></circle><circle cx="29" cy="39" r="1"></circle><path d="M39,42.586V37a7,7,0,0,0-14,0v5.586l1.707,1.707a1,1,0,0,1,.263.95L26.281,48H29V44h2v4h2V44h2v4h2.719l-.689-2.757a1,1,0,0,1,.263-.95ZM35,42a3,3,0,0,1-3-3,3,3,0,1,1-3-3,3,3,0,0,1,3,3,3,3,0,1,1,3,3Z"></path><circle cx="35" cy="39" r="1"></circle><path d="M12.379,31.507c.86.16,1.622.34,2.359.518A29.971,29.971,0,0,0,23,33c.337,0,.641-.007.956-.012a8.972,8.972,0,0,1,14.787-1.929C39.471,31.023,40.211,31,41,31a32.2,32.2,0,0,1,8.727,1.023c.732.175,1.449.342,2.245.489a20.868,20.868,0,0,0-15.2-13.96A1,1,0,0,1,36,17.578V10H28v7.578a1,1,0,0,1-.773.974A20.868,20.868,0,0,0,12.379,31.507ZM38,21a3,3,0,1,1-3,3A3,3,0,0,1,38,21Zm-6-8h2v2H32Zm-4,8h2v2H28Zm-8,4a3,3,0,1,1-3,3A3,3,0,0,1,20,25Z"></path></g></svg>