<svg xmlns="http://www.w3.org/2000/svg" viewBox="0 0 64 64" x="0px" y="0px"><g><rect x="26" y="52" width="8" height="2"></rect><rect x="26" y="56" width="8" height="4"></rect><rect x="22" y="41" width="2" height="19"></rect><path d="M26,37.57a10.68,10.68,0,0,1-6,0V39h6Z"></path><rect x="4" y="52" width="6" height="2"></rect><path d="M34,20a4,4,0,1,1,0,8h-.05a10.983,10.983,0,0,1-4.65,8H40.88L39.1,20Z"></path><circle cx="23" cy="15" r="3"></circle><path d="M26,6.23v4.8A5.013,5.013,0,0,1,27.9,14h5.05A9.025,9.025,0,0,0,26,6.23Z"></path><path d="M22,10.1a5.05,5.05,0,0,1,2,0V5a1,1,0,0,0-2,0Z"></path><rect x="4" y="56" width="6" height="4"></rect><path d="M34,22v4a2.015,2.015,0,0,0,2-2A2.006,2.006,0,0,0,34,22Z"></path><path d="M26.97,18H39V16H27.9A4.84,4.84,0,0,1,26.97,18Z"></path><path d="M14,27a9,9,0,0,0,18,0V20H14Zm13-5a2,2,0,1,1-2,2A2,2,0,0,1,27,22Zm-2.016,7.25,1.323,1.5a5,5,0,0,1-6.614,0l1.323-1.5A3.076,3.076,0,0,0,24.984,29.25ZM19,22a2,2,0,1,1-2,2A2,2,0,0,1,19,22Z"></path><path d="M5.12,36H16.7a10.983,10.983,0,0,1-4.65-8H12a4,4,0,0,1,0-8H6.9Z"></path><path d="M10,43.86l-1.09.34A6.958,6.958,0,0,0,4.07,50H10Z"></path><path d="M10.59,25.41A1.983,1.983,0,0,0,12,26V22a2.006,2.006,0,0,0-2,2A1.983,1.983,0,0,0,10.59,25.41Z"></path><polygon points="26 41 26 50 34 50 34 43.24 26.85 41 26 41"></polygon><rect x="36" y="56" width="6" height="4"></rect><rect x="36" y="52" width="6" height="2"></rect><path d="M36,43.86V50h5.93a6.958,6.958,0,0,0-4.84-5.8Z"></path><rect x="12" y="56" width="8" height="4"></rect><rect x="12" y="52" width="8" height="2"></rect><polygon points="20 41 19.15 41 12 43.24 12 50 20 50 20 41"></polygon><path d="M7,18H19.03a4.84,4.84,0,0,1-.93-2H7Z"></path><path d="M13.05,14H18.1A5.013,5.013,0,0,1,20,11.03V6.23A8.956,8.956,0,0,0,13.05,14Z"></path><path d="M59.27,46.94A20.014,20.014,0,0,0,60,42a20.014,20.014,0,0,0-.73-4.94l-1.9.15A20.863,20.863,0,0,1,58,42a20.863,20.863,0,0,1-.63,4.79Z"></path><path d="M56,42a19.52,19.52,0,0,0-.65-4.64L48,37.93v8.14l7.35.57A19.52,19.52,0,0,0,56,42Z"></path><polygon points="53 60 53 48.46 51 48.31 51 60 53 60"></polygon><polygon points="51 34 51 35.69 53 35.54 53 34 51 34"></polygon></g></svg>