<svg xmlns="http://www.w3.org/2000/svg" viewBox="0 0 64 64" x="0px" y="0px"><g><path d="M33,12a1,1,0,0,0-2,0v2h2Z"></path><path d="M45.77,37.88a3.009,3.009,0,0,1-2.98,3.34,3.046,3.046,0,0,1-1.81-.6L38,38.37v4.31a11.02,11.02,0,0,0,2.71,7.2L52,38.59V35a9.014,9.014,0,0,0-9-9H41a3.009,3.009,0,0,0-3,3v1.84l6.6,4.99A3,3,0,0,1,45.77,37.88Z"></path><path d="M22.3,50.89A11.034,11.034,0,0,0,26,42.68V42H13.41Z"></path><polygon points="26 40 26 38.37 23.84 40 26 40"></polygon><path d="M45.14,52.98l2.81,1.05A2.994,2.994,0,0,0,52,51.23V41.41l-9.86,9.86A10.717,10.717,0,0,0,45.14,52.98Z"></path><rect x="31" y="16" width="2" height="2"></rect><path d="M13.29,53.69a2.956,2.956,0,0,0,2.76.34l2.81-1.05a10.953,10.953,0,0,0,1.82-.89L12,43.41v7.82A2.951,2.951,0,0,0,13.29,53.69Z"></path><rect x="31" y="20" width="2" height="2"></rect><path d="M8,60H56V35A13.012,13.012,0,0,0,43,22H39a1,1,0,0,1-1-1V4H26V21a1,1,0,0,1-1,1H21A13.012,13.012,0,0,0,8,35Zm2-25A11.007,11.007,0,0,1,21,24h2a5,5,0,0,1,5,5v.33l.6-.46a1.014,1.014,0,0,0,.4-.8V12a3,3,0,0,1,6,0V28.07a1.014,1.014,0,0,0,.4.8l.6.46V29a5,5,0,0,1,5-5h2A11.007,11.007,0,0,1,54,35V51.23a5,5,0,0,1-5,4.99,5.046,5.046,0,0,1-1.75-.31l-2.81-1.05A13.075,13.075,0,0,1,36,42.68V36.87l-3.4-2.56a1.021,1.021,0,0,0-1.2,0L28,36.87v5.81a13.075,13.075,0,0,1-8.44,12.18l-2.81,1.05a5.046,5.046,0,0,1-1.75.31,5,5,0,0,1-5-4.99Z"></path><path d="M20.22,38.11a1,1,0,0,0,1.59.91l8.39-6.3a2.974,2.974,0,0,1,1.8-.6,3.03,3.03,0,0,1,1.8.59l8.39,6.31a1,1,0,0,0,1.2-1.6l-9.2-6.95A3.046,3.046,0,0,1,33,28.07V24H31v4.07a2.984,2.984,0,0,1-1.19,2.39l-9.2,6.96A1,1,0,0,0,20.22,38.11Z"></path><path d="M18.23,37.88a3,3,0,0,1,1.17-2.05L26,30.84V29a3.009,3.009,0,0,0-3-3H21a9.014,9.014,0,0,0-9,9v5h6.81A3.013,3.013,0,0,1,18.23,37.88Z"></path></g></svg>