<svg xmlns="http://www.w3.org/2000/svg" viewBox="0 0 64 64" x="0px" y="0px"><g><path d="M40,37a7.008,7.008,0,0,0-7,7V26H31V40a7.008,7.008,0,0,0-7-7H11v5a7.008,7.008,0,0,0,7,7H31V60H15v2H49V60H33V49H46a7.008,7.008,0,0,0,7-7V37Z"></path><path d="M32,7a7,7,0,1,0,7,7A7.008,7.008,0,0,0,32,7Zm0,6a2.937,2.937,0,0,1,2.862,3A2.993,2.993,0,0,1,33,18.8V20H31V18.8A2.993,2.993,0,0,1,29.138,16h2A.872.872,0,1,0,32,15a2.937,2.937,0,0,1-2.862-3A2.993,2.993,0,0,1,31,9.2V8h2V9.2A2.993,2.993,0,0,1,34.862,12h-2a.872.872,0,1,0-1.724,0A.94.94,0,0,0,32,13Z"></path><path d="M6,4V24H58V4ZM24,22H10.939l-.263-.595A4.082,4.082,0,0,0,8.6,19.324L8,19.061V8.939l.6-.263A4.082,4.082,0,0,0,10.676,6.6L10.939,6H24V8H12.2A6.069,6.069,0,0,1,10,10.2v7.6A6.069,6.069,0,0,1,12.2,20H24Zm-3-9v2H19V13ZM32,23a9,9,0,1,1,9-9A9.01,9.01,0,0,1,32,23Zm24-3.939-.595.263a4.082,4.082,0,0,0-2.081,2.081L53.061,22H40V20H51.8A6.069,6.069,0,0,1,54,17.8V10.2A6.069,6.069,0,0,1,51.8,8H40V6H53.061l.263.595a4.082,4.082,0,0,0,2.081,2.081L56,8.939ZM43,15V13h2v2Z"></path></g></svg>