<svg xmlns="http://www.w3.org/2000/svg" viewBox="0 0 64 64" x="0px" y="0px"><g data-name="Mobile Phone-Retro-Telephone-Conversation-Tool"><rect x="26" y="14" width="12" height="4"></rect><rect x="25" y="4" width="2" height="4"></rect><polygon points="37.72 41 26.28 41 26.78 43 37.22 43 37.72 41"></polygon><path d="M25.03,44.24,24.22,41H22V60h.6a7.813,7.813,0,0,1,5.23-2h8.34a7.8,7.8,0,0,1,5.23,2H42V41H39.78l-.81,3.24A1,1,0,0,1,38,45H26A1,1,0,0,1,25.03,44.24Z"></path><path d="M42,10H22V39H42ZM28,37H24V35h4Zm0-4H24V31h4Zm0-4H24V27h4Zm0-4H24V23h4Zm6,12H30V35h4Zm0-4H30V31h4Zm0-4H30V27h4Zm0-5H30V22h4Zm6,13H36V35h4Zm0-4H36V31h4Zm0-4H36V27h4Zm0-4H36V23h4Zm0-6a1,1,0,0,1-1,1H25a1,1,0,0,1-1-1V13a1,1,0,0,1,1-1H39a1,1,0,0,1,1,1Z"></path></g></svg>