<svg xmlns="http://www.w3.org/2000/svg" viewBox="0 0 64 64" x="0px" y="0px"><g><path d="M32,19a7,7,0,1,0-7-7A7.009,7.009,0,0,0,32,19ZM32,7a5,5,0,1,1-5,5A5.006,5.006,0,0,1,32,7Z"></path><rect x="31" y="24" width="2" height="2"></rect><rect x="35" y="24" width="2" height="2"></rect><rect x="27" y="24" width="2" height="2"></rect><path d="M37,28H27a1,1,0,0,0-1,1v7a1,1,0,0,0,1,1H37a1,1,0,0,0,1-1V29A1,1,0,0,0,37,28Zm-1,7H28V30h8Z"></path><path d="M58.707,34.293,58.414,34l.293-.293a1,1,0,0,0,0-1.414l-3-3a1,1,0,0,0-1.414,0L54,29.586l-9.292-9.292A1,1,0,0,0,44,20H39.974A4.948,4.948,0,0,0,41,17V15h1a2,2,0,0,0,2-2V9a2,2,0,0,0-2-2H41a5.006,5.006,0,0,0-5-5H28a5.006,5.006,0,0,0-5,5H22a2,2,0,0,0-2,2v4a2,2,0,0,0,2,2h1v2a4.948,4.948,0,0,0,1.026,3H20a.994.994,0,0,0-.708.294L10,29.586l-.293-.293a1,1,0,0,0-1.414,0l-3,3a1,1,0,0,0,0,1.414L5.586,34l-.293.293a3.828,3.828,0,0,0,5.414,5.414L11,39.414l.293.293a1,1,0,0,0,1.414,0l3-3a1,1,0,0,0,0-1.414L15.414,35,19,31.414V41a1,1,0,0,0,1,1h1V56.184A3,3,0,0,0,19,59v2a1,1,0,0,0,1,1H44a1,1,0,0,0,1-1V59a3,3,0,0,0-2-2.816V42h1a1,1,0,0,0,1-1V31.414L48.586,35l-.293.293a1,1,0,0,0,0,1.414l3,3a1,1,0,0,0,1.414,0L53,39.414l.293.293a3.828,3.828,0,0,0,5.414-5.414ZM25,40V22H39V40ZM42,9v4H41V9ZM22,13V9h1v4Zm3,4V7a3,3,0,0,1,3-3h8a3,3,0,0,1,3,3V17a3,3,0,0,1-3,3H28A3,3,0,0,1,25,17Zm-4,5h2V40H21ZM9.293,38.293a1.894,1.894,0,0,1-2.586,0,1.837,1.837,0,0,1,0-2.586L7,35.414,9.586,38ZM12,37.586,7.414,33,9,31.414,13.586,36Zm2-4L11.414,31,19,23.414v5.172ZM21,59a1,1,0,0,1,1-1h8a1,1,0,0,1,1,1v1H21Zm22,1H33V59a1,1,0,0,1,1-1h8a1,1,0,0,1,1,1Zm-2-4H34a2.966,2.966,0,0,0-1,.184V46H31V56.184A2.966,2.966,0,0,0,30,56H23V42H41Zm2-16H41V22h2Zm2-11.414V23.414L52.586,31,50,33.586ZM50.414,36,55,31.414,56.586,33,52,37.586Zm6.879,2.293a1.894,1.894,0,0,1-2.586,0L54.414,38,57,35.414l.293.293a1.84,1.84,0,0,1,0,2.586Z"></path><path d="M34,12h2a4,4,0,0,0-4-4v2A2,2,0,0,1,34,12Z"></path><rect x="25" y="49" width="4" height="2"></rect><rect x="35" y="49" width="4" height="2"></rect></g></svg>