<svg xmlns="http://www.w3.org/2000/svg" viewBox="0 0 64 64" x="0px" y="0px"><g data-name="Security-Payment Method-Shield-Credit Card-Mobile-Payment"><path d="M55,2H29a7.008,7.008,0,0,0-7,7v6H5a3.009,3.009,0,0,0-3,3V36a3.009,3.009,0,0,0,3,3H22V55a7.008,7.008,0,0,0,7,7H55a7.008,7.008,0,0,0,7-7V9A7.008,7.008,0,0,0,55,2ZM5,37a1,1,0,0,1-1-1V18a1,1,0,0,1,1-1H33a1,1,0,0,1,1,1v2.88l-2.45,1.23A.988.988,0,0,0,31,23H18v2H31v4.21c0,.2.03.4.04.6A2.987,2.987,0,0,0,29,29H26a3,3,0,0,0,0,6h3a2.977,2.977,0,0,0,2.69-1.71,13.227,13.227,0,0,0,1.82,3.57A.975.975,0,0,1,33,37ZM42,19.12l9,4.5v5.59a11.067,11.067,0,0,1-5.34,9.43L42,40.83l-3.66-2.19A11.067,11.067,0,0,1,33,29.21V23.62ZM30,32a1,1,0,0,1-1,1H26a1,1,0,0,1,0-2h3A1,1,0,0,1,30,32ZM60,55a5,5,0,0,1-5,5H29a5,5,0,0,1-5-5V39h9a2.978,2.978,0,0,0,1.81-.62,12.923,12.923,0,0,0,2.5,1.97l4.18,2.51a1,1,0,0,0,1.02,0l4.18-2.51A13.051,13.051,0,0,0,53,29.21V23a.988.988,0,0,0-.55-.89l-10-5a.956.956,0,0,0-.9,0L36,19.88V18a3.009,3.009,0,0,0-3-3H24V9a5,5,0,0,1,5-5H55a5,5,0,0,1,5,5Z"></path><rect x="34" y="6" width="2" height="2"></rect><rect x="38" y="6" width="8" height="2"></rect><path d="M44,52H40a3,3,0,0,0,0,6h4a3,3,0,0,0,0-6Zm0,4H40a1,1,0,0,1,0-2h4a1,1,0,0,1,0,2Z"></path><path d="M43,33H41a1,1,0,0,1-1-1H38a3,3,0,0,0,3,3v1h2V35a3,3,0,0,0,0-6H41a1,1,0,0,1,0-2h2a1,1,0,0,1,1,1h2a3,3,0,0,0-3-3V24H41v1a3,3,0,0,0,0,6h2a1,1,0,0,1,0,2Z"></path><path d="M15,19H7a1,1,0,0,0-1,1v6a1,1,0,0,0,1,1h8a1,1,0,0,0,1-1V20A1,1,0,0,0,15,19ZM8,21h2v4H8Zm6,4H12V21h2Z"></path><rect x="30" y="19" width="2" height="2"></rect><rect x="26" y="19" width="2" height="2"></rect><rect x="22" y="19" width="2" height="2"></rect><rect x="18" y="19" width="2" height="2"></rect><rect x="6" y="33" width="2" height="2"></rect><rect x="10" y="33" width="2" height="2"></rect><rect x="14" y="33" width="2" height="2"></rect><rect x="6" y="29" width="10" height="2"></rect></g></svg>