<svg xmlns="http://www.w3.org/2000/svg" viewBox="0 0 64 64" x="0px" y="0px"><g data-name="House-Security-Insureance-Hand-Real Estate"><path d="M20.327,19.81l8.23-4.751A4.107,4.107,0,0,0,30.3,9.768a4,4,0,0,0-5.6-1.723L7.856,17.771a12.94,12.94,0,0,0-4.012,3.612L1.191,25.028,2.809,26.2,5.461,22.56A10.937,10.937,0,0,1,8.856,19.5L25.7,9.777a2,2,0,0,1,2.8.864,2.128,2.128,0,0,1-.948,2.685l-8.92,5.15a3.993,3.993,0,0,0-5.013,1.668l-5.5,9.526,1.732,1,5.5-9.526a2,2,0,1,1,3.464,2L12.7,33.751A13.02,13.02,0,0,1,7.938,38.51l-1.431.825a14.944,14.944,0,0,1-4.492,1.706l-.215.044.4,1.959L2.416,43a16.958,16.958,0,0,0,5.09-1.933l1.432-.825a15.027,15.027,0,0,0,5.49-5.491l6.124-10.607A4,4,0,0,0,20.327,19.81Z"></path><path d="M57.493,39.335l-1.431-.825A13.02,13.02,0,0,1,51.3,33.751L45.18,23.144a2,2,0,1,1,3.464-2l5.5,9.526,1.732-1-5.5-9.526a3.994,3.994,0,0,0-5.013-1.668l-8.92-5.15a2.128,2.128,0,0,1-.948-2.685,2,2,0,0,1,2.8-.864L55.144,19.5a10.957,10.957,0,0,1,3.4,3.055L61.191,26.2l1.618-1.176-2.653-3.646a12.936,12.936,0,0,0-4.012-3.611L39.3,8.045a4,4,0,0,0-5.6,1.723,4.108,4.108,0,0,0,1.747,5.291l8.23,4.751a4,4,0,0,0-.226,4.334l6.124,10.607a15.037,15.037,0,0,0,5.491,5.491l1.431.825A16.97,16.97,0,0,0,61.585,43l.215.044.4-1.959-.215-.044A14.944,14.944,0,0,1,57.493,39.335Z"></path><path d="M28,41a4,4,0,1,0,4-4A4,4,0,0,0,28,41Zm6,0a2,2,0,1,1-2-2A2,2,0,0,1,34,41Z"></path><path d="M48.26,39.85,43,34.59V27a1,1,0,0,0-1-1H38a1,1,0,0,0-1,1v1.59l-4.29-4.3a1.047,1.047,0,0,0-1.42,0L15.74,39.85a1,1,0,0,0,0,1.41l2.82,2.83a1.008,1.008,0,0,0,1.42,0L21,43.07V55a2.006,2.006,0,0,0,2,2H41a2.006,2.006,0,0,0,2-2V43.07l1.02,1.02a.982.982,0,0,0,.71.29.96.96,0,0,0,.7-.29l2.83-2.83a.976.976,0,0,0,.3-.7A1,1,0,0,0,48.26,39.85ZM39,28h2v4.59l-2-2ZM34,55H30V49h4Zm7,0H36V48a1,1,0,0,0-1-1H29a1,1,0,0,0-1,1v7H23V41.07l9-9,9,9Zm3.73-13.03L32.71,29.95a1.014,1.014,0,0,0-1.42,0L19.27,41.97l-1.41-1.41L32,26.41,46.14,40.56Z"></path></g></svg>