<svg xmlns="http://www.w3.org/2000/svg" viewBox="0 0 48 48" x="0px" y="0px"><g data-name="Make-Money"><path d="M9,31.93v2.25A3.01,3.01,0,0,0,7,37v5H5a1,1,0,0,1-1-1V29.27A7.959,7.959,0,0,0,9,31.93Z"></path><path d="M43,24H33a1,1,0,0,0-1,1v4a1,1,0,0,0,1,1H43a1,1,0,0,0,1-1V25A1,1,0,0,0,43,24Zm-7,4H34V26h2Z"></path><path d="M22,7a5.006,5.006,0,0,0-5,5H27A5.006,5.006,0,0,0,22,7Z"></path><path d="M37,12V4H6v8H7V9.651a1,1,0,0,1,.666-.943,4.971,4.971,0,0,0,3.042-3.042A1,1,0,0,1,11.651,5H16V7H12.319A6.957,6.957,0,0,1,9,10.319V12h6a7,7,0,0,1,14,0h5V10.319A6.948,6.948,0,0,1,30.681,7H28V5h3.349a1,1,0,0,1,.942.667,4.977,4.977,0,0,0,3.043,3.042A1,1,0,0,1,36,9.651V12Z"></path><path d="M10,18a6,6,0,1,0,6,6A6,6,0,0,0,10,18Zm0,4a2.006,2.006,0,0,0-2,2H6a4,4,0,0,1,4-4Z"></path><path d="M11,37v6a1,1,0,0,1-2,0V37a1,1,0,0,1,2,0Z"></path><path d="M30,25v4a3.009,3.009,0,0,0,3,3h7v9a1,1,0,0,1-1,1H13V37a3.01,3.01,0,0,0-2-2.82V31.93A8,8,0,1,0,4,18.72V15a1,1,0,0,1,1-1H39a1,1,0,0,1,1,1v7H33A3.009,3.009,0,0,0,30,25Z"></path></g></svg>