<svg xmlns="http://www.w3.org/2000/svg" viewBox="0 0 64 64" x="0px" y="0px"><g data-name="Mobile Shopping-Basket-Mobile-Payment-Smartphone"><polygon points="30.98 21 27.02 21 27.37 23 30.63 23 30.98 21"></polygon><path d="M25.34,23l-1.12-6.36a1.045,1.045,0,0,0-.42-.66.985.985,0,0,0-.73-.16,1,1,0,0,0-.84.98,1.366,1.366,0,0,0,.02.19L23.31,23Z"></path><path d="M19,21a.928.928,0,0,0-.69.29A.949.949,0,0,0,18,22a1,1,0,0,0,1,1h2.28l-.36-2Z"></path><path d="M21.1,25l.69,7.13A3,3,0,0,0,24.78,35h8.44a2.994,2.994,0,0,0,2.99-2.83L36.9,25ZM27,33H25V27h2Zm6,0H31V27h2Z"></path><path d="M35.77,16.8a1,1,0,0,0-.83-.98,1.02,1.02,0,0,0-.74.16,1,1,0,0,0-.41.65L32.66,23h2.03l1.06-6.02A1.1,1.1,0,0,0,35.77,16.8Z"></path><path d="M59,50V61H33.69l-4.02-6.96a2.018,2.018,0,0,1,.73-2.74,2.066,2.066,0,0,1,1.52-.2,1.942,1.942,0,0,1,1.21.94l2,3.46a1.022,1.022,0,0,0,1.13.47A1,1,0,0,0,37,55V38a2,2,0,0,1,4,0V52a1,1,0,0,0,2,0V48a2,2,0,0,1,4,0v4a1,1,0,0,0,2,0V49a2,2,0,0,1,4,0v3a1,1,0,0,0,2,0V50a2,2,0,0,1,4,0Z"></path><path d="M40,4H18a5,5,0,0,0-5,5V44.66l3.44-5.95a4,4,0,0,1,7.33.96,4.038,4.038,0,0,1-.4,3.04l-4.21,7.28L20.37,52h7.17a3.962,3.962,0,0,1,1.27-2H27a3,3,0,0,1,0-6h4a3.009,3.009,0,0,1,3,3,2.968,2.968,0,0,1-1.14,2.33,3.955,3.955,0,0,1,2.01,1.71l.13.23V38a3.918,3.918,0,0,1,.29-1.46,5.135,5.135,0,0,1-2.07.46H24.78a5,5,0,0,1-4.99-4.72L19.09,25H19a3.009,3.009,0,0,1-3-3,3,3,0,0,1,3-3h1.57l-.3-1.68a3.027,3.027,0,0,1,2.45-3.47,2.931,2.931,0,0,1,2.22.49,3,3,0,0,1,1.25,1.95L26.66,19h4.68l.48-2.72a2.948,2.948,0,0,1,1.24-1.94,2.9,2.9,0,0,1,2.23-.48,2.992,2.992,0,0,1,2.48,2.94,2.848,2.848,0,0,1-.04.51L37.43,19H39a3.009,3.009,0,0,1,3,3,3,3,0,0,1-3,3h-.09l-.7,7.32a4.822,4.822,0,0,1-.53,1.92A3.906,3.906,0,0,1,39,34a4,4,0,0,1,4,4v6.54A3.989,3.989,0,0,1,45,44V9A5,5,0,0,0,40,4ZM23,8H21V6h2ZM33,8H25V6h8Z"></path><path d="M17.13,49.5a1.031,1.031,0,0,0,.01,1.02l2.15,3.56A5.074,5.074,0,0,1,20,56.65V61H5V43.2a8.863,8.863,0,0,1,.83-3.77l4.01-8.69A2.911,2.911,0,0,1,11,29.47V47a6.5,6.5,0,0,0,.08.99l-.64,1.11,1.73,1,6-10.39a2,2,0,0,1,1.21-.94,2.06,2.06,0,0,1,1.52.2,2.012,2.012,0,0,1,.73,2.74Z"></path><path d="M39.69,22.71A.949.949,0,0,0,40,22a1,1,0,0,0-1-1H37.08l-.36,2H39A.928.928,0,0,0,39.69,22.71Z"></path><path d="M27,46a1,1,0,0,0,0,2h4a1,1,0,0,0,0-2Z"></path></g></svg>