<svg xmlns="http://www.w3.org/2000/svg" viewBox="0 0 64 64" x="0px" y="0px"><title>Mobile-Exchange-Data_1</title><g data-name="Mobile-Exchange-Data"><path d="M46,50H6V12H40V10H6V9A3,3,0,0,1,9,6H41V4H9A5.006,5.006,0,0,0,4,9V55a5.006,5.006,0,0,0,5,5H43a5.006,5.006,0,0,0,5-5V39H46Zm-3,8H9a3,3,0,0,1-3-3V52H46v3A3,3,0,0,1,43,58Z"></path><rect x="25" y="54" width="2" height="2"></rect><rect x="25" y="27" width="2" height="2"></rect><rect x="35" y="27" width="2" height="2"></rect><rect x="15" y="27" width="2" height="2"></rect><path d="M57,5H45a3,3,0,0,0-3,3V34a3,3,0,0,0,3,3H57a3,3,0,0,0,3-3V8A3,3,0,0,0,57,5ZM45,7H57a1,1,0,0,1,1,1V9H44V8A1,1,0,0,1,45,7Zm13,4V29H44V11ZM57,35H45a1,1,0,0,1-1-1V31H58v3A1,1,0,0,1,57,35Z"></path><rect x="50" y="32" width="2" height="2"></rect><rect x="50" y="18" width="2" height="2"></rect><rect x="54" y="18" width="2" height="2"></rect><rect x="46" y="18" width="2" height="2"></rect></g></svg>