<svg xmlns="http://www.w3.org/2000/svg" viewBox="0 0 64 64" x="0px" y="0px"><g data-name="Smartphone-Application-Mobile Phone-App-Technology"><rect x="31" y="31" width="14" height="14" rx="1"></rect><path d="M39,29V26a1,1,0,0,0-1-1H26a1,1,0,0,0-1,1V38a1,1,0,0,0,1,1h3V32a3,3,0,0,1,3-3Z"></path><path d="M33,23V20a1,1,0,0,0-1-1H20a1,1,0,0,0-1,1V32a1,1,0,0,0,1,1h3V26a3,3,0,0,1,3-3Z"></path><path d="M50,54H14v2a4,4,0,0,0,4,4H46a4,4,0,0,0,4-4ZM33,58H31V56h2Z"></path><path d="M50,12H14V52H50ZM47,44a3,3,0,0,1-3,3H32a3,3,0,0,1-3-3V41H26a3,3,0,0,1-3-3V35H20a3,3,0,0,1-3-3V20a3,3,0,0,1,3-3H32a3,3,0,0,1,3,3v3h3a3,3,0,0,1,3,3v3h3a3,3,0,0,1,3,3Z"></path><path d="M50,8a4,4,0,0,0-4-4H18a4,4,0,0,0-4,4v2H50ZM27,8H25V6h2Zm8,0H29V6h6Z"></path></g></svg>