<svg xmlns="http://www.w3.org/2000/svg" viewBox="0 0 64 64" x="0px" y="0px"><g data-name="Route"><path d="M15,56a1,1,0,0,0,.6-.2C16.106,55.42,28,46.392,28,37A13,13,0,0,0,2,37c0,9.392,11.894,18.42,12.4,18.8A1,1,0,0,0,15,56ZM4,37a11,11,0,0,1,22,0c0,7.271-8.623,14.791-11,16.725C12.622,51.792,4,44.281,4,37Z"></path><path d="M21,37a6,6,0,1,0-6,6A6.006,6.006,0,0,0,21,37ZM11,37a4,4,0,1,1,4,4A4,4,0,0,1,11,37Z"></path><path d="M49,2A13.015,13.015,0,0,0,36,15c0,9.392,11.894,18.42,12.4,18.8a1,1,0,0,0,1.2,0C50.106,33.42,62,24.392,62,15A13.015,13.015,0,0,0,49,2Zm0,29.725C46.622,29.792,38,22.281,38,15a11,11,0,0,1,22,0C60,22.271,51.377,29.791,49,31.725Z"></path><path d="M49,9a6,6,0,1,0,6,6A6.006,6.006,0,0,0,49,9Zm0,10a4,4,0,1,1,4-4A4,4,0,0,1,49,19Z"></path><path d="M48,57a3,3,0,0,1-3,3H16V58H14v2a2,2,0,0,0,2,2H45a5.006,5.006,0,0,0,5-5V36H48Z"></path></g></svg>