<svg xmlns="http://www.w3.org/2000/svg" viewBox="0 0 64 64" x="0px" y="0px"><g data-name="Cloud Computing-Smartphone-Cloud-Dowload-Technology"><path d="M34,54H30a1,1,0,0,0,0,2h4a1,1,0,0,0,0-2Z"></path><circle cx="32" cy="43" r="1"></circle><circle cx="43" cy="41" r="1"></circle><circle cx="21" cy="41" r="1"></circle><path d="M42.727,22.075a1,1,0,0,1-.8-.8A3.993,3.993,0,0,0,38,18a3.936,3.936,0,0,0-1.991.555,1,1,0,0,1-1.288-.249,5.989,5.989,0,0,0-10.652,2.836A1,1,0,0,1,23.08,22H22a4,4,0,0,0,0,8H42a4,4,0,0,0,.727-7.925ZM39,28H37V26h2Zm2,0V26a1,1,0,0,0,1-1h2A3,3,0,0,1,41,28Z"></path><path d="M50,8a4,4,0,0,0-4-4H18a4,4,0,0,0-4,4V56a4,4,0,0,0,4,4H46a4,4,0,0,0,4-4ZM29,6h6V8H29ZM25,6h2V8H25Zm9,52H30a3,3,0,0,1,0-6h4a3,3,0,0,1,0,6Zm8-26H40v4.586L41.715,38.3A2.951,2.951,0,0,1,43,38a3,3,0,1,1-3,3,2.951,2.951,0,0,1,.3-1.285l-2.008-2.008A1,1,0,0,1,38,37V32H33v8.184a3,3,0,1,1-2,0V32H26v5a1,1,0,0,1-.293.707L23.7,39.715A2.951,2.951,0,0,1,24,41a3,3,0,1,1-3-3,2.951,2.951,0,0,1,1.285.3L24,36.586V32H22a6,6,0,0,1,0-12h.262A8.038,8.038,0,0,1,30,14a7.942,7.942,0,0,1,5.756,2.452A5.8,5.8,0,0,1,38,16a5.99,5.99,0,0,1,5.735,4.265A6,6,0,0,1,42,32Z"></path></g></svg>