<svg xmlns="http://www.w3.org/2000/svg" viewBox="0 0 64 64" x="0px" y="0px"><title>Speech Bubble_5</title><g data-name="Speech Bubble"><path d="M32,2A30,30,0,1,0,62,32,30.034,30.034,0,0,0,32,2Zm0,58A28,28,0,1,1,60,32,28.032,28.032,0,0,1,32,60Z"></path><path d="M47.658,38.177A14.963,14.963,0,0,0,37.646,17.462,14.98,14.98,0,0,0,12,28a14.834,14.834,0,0,0,1.342,6.177l-3.287,9.5A1,1,0,0,0,11,45a1.019,1.019,0,0,0,.35-.063l9.164-3.418a15.318,15.318,0,0,0,2.822,1.011,14.953,14.953,0,0,0,17.151,2.989l9.163,3.418A1.019,1.019,0,0,0,50,49a1,1,0,0,0,.945-1.327Zm-26.63,1.364a1.009,1.009,0,0,0-.807-.048L12.64,42.321l2.725-7.874a.994.994,0,0,0-.046-.764A12.88,12.88,0,0,1,14,28,12.994,12.994,0,0,1,33.92,17,15,15,0,0,0,21.034,39.544ZM40.779,43.16a1,1,0,0,0-.751.021,17.065,17.065,0,0,1-1.937.877A13.029,13.029,0,1,1,36.908,19h.009a12.974,12.974,0,0,1,8.771,18.333,1.014,1.014,0,0,0-.053.779l2.725,7.874Z"></path><path d="M41,29a3,3,0,1,0,3,3A3,3,0,0,0,41,29Zm0,4a1,1,0,1,1,1-1A1,1,0,0,1,41,33Z"></path><path d="M34,29a3,3,0,1,0,3,3A3,3,0,0,0,34,29Zm0,4a1,1,0,1,1,1-1A1,1,0,0,1,34,33Z"></path><path d="M27,29a3,3,0,1,0,3,3A3,3,0,0,0,27,29Zm0,4a1,1,0,1,1,1-1A1,1,0,0,1,27,33Z"></path></g></svg>