<svg xmlns="http://www.w3.org/2000/svg" viewBox="0 0 64 64" x="0px" y="0px"><g data-name="Financial Plan"><path d="M53,48a1,1,0,0,0,0-2,.928.928,0,0,0-.172.038,2.776,2.776,0,0,1,0,1.924A.928.928,0,0,0,53,48Z"></path><path d="M31,10H29a1,1,0,0,1-1-1V6.17A2.127,2.127,0,0,0,26.11,4a2.037,2.037,0,0,0-1.49.55A1.989,1.989,0,0,0,24,6V9a1,1,0,0,1-1,1H21a3.009,3.009,0,0,0-3,3v1H34V13A3.009,3.009,0,0,0,31,10ZM27,8H25V6h2Z"></path><rect x="34" y="38" width="4" height="2"></rect><path d="M31,32H46V13a3.009,3.009,0,0,0-3-3H34.97a4.84,4.84,0,0,1,.93,2H42a2.006,2.006,0,0,1,2,2V30H42V14H36v1a1,1,0,0,1-1,1H17a1,1,0,0,1-1-1V14H10V39H8V14a2.006,2.006,0,0,1,2-2h6.1a4.84,4.84,0,0,1,.93-2H9a3.009,3.009,0,0,0-3,3V41H8v2H6V57a3.009,3.009,0,0,0,3,3H43a3.009,3.009,0,0,0,3-3V54H31a3.009,3.009,0,0,1-3-3V35A3.009,3.009,0,0,1,31,32ZM29,22h6v2H29Zm0,4H39v2H29ZM16,49h8v2H16Zm-2-2V45h2v2Zm4,0V45h8v2Zm7.71-24.29-5,5a1.014,1.014,0,0,1-1.42,0l-3-3,1.42-1.42L20,25.59l4.29-4.3ZM14,22a1,1,0,0,1,1-1h6v2H16v6h6V27h2v3a1,1,0,0,1-1,1H15a1,1,0,0,1-1-1Zm0,14a1,1,0,0,1,1-1h8a1,1,0,0,1,1,1v3H22V37H16v2H14Zm-4,5H24v2H10Zm4,8v2H12V49Zm30,7a2.006,2.006,0,0,1-2,2H10a2.006,2.006,0,0,1-2-2V45h2V56Z"></path><circle cx="50" cy="47" r="1"></circle><path d="M57,34H31a1,1,0,0,0-1,1V51a1,1,0,0,0,1,1H57a1,1,0,0,0,1-1V35A1,1,0,0,0,57,34Zm-7,3h2v4H50ZM32,37a1,1,0,0,1,1-1h6a1,1,0,0,1,1,1v4a1,1,0,0,1-1,1H33a1,1,0,0,1-1-1Zm2,13H32V48h2Zm4,0H36V48h2Zm4,0H40V48h2Zm0-4H32V44H42Zm4-9h2v4H46Zm7,13a2.988,2.988,0,0,1-1.49-.42,3,3,0,1,1,0-5.16A2.991,2.991,0,1,1,53,50Zm3-9H54V37h2Z"></path></g></svg>