<svg xmlns="http://www.w3.org/2000/svg" viewBox="0 0 64 64" x="0px" y="0px"><g data-name="Barista-Waiter-Woman-Coffee Shop-Coffee"><path d="M32,15.95a10.053,10.053,0,0,1-5.53-2.39A17.437,17.437,0,0,1,21.68,17H32Z"></path><path d="M34,26h-.05a10.919,10.919,0,0,1-3.17,6.78A11.064,11.064,0,0,1,28,34.79v3.48l4.14,1.29a27.591,27.591,0,0,0,4.8-14.87,1.71,1.71,0,0,0-.11.14A4,4,0,0,1,34,26Z"></path><path d="M14,22a3.009,3.009,0,0,0,3,3h2a3.009,3.009,0,0,0,3-3V19H14Zm5-2a2,2,0,1,1-2,2A2,2,0,0,1,19,20Z"></path><path d="M27,25h2a3.009,3.009,0,0,0,3-3V19H24v3A3.009,3.009,0,0,0,27,25Zm0-5a2,2,0,1,1-2,2A2,2,0,0,1,27,20Z"></path><polygon points="31 48 33 48 33 41.92 31 41.3 31 48"></polygon><path d="M33,14a1,1,0,0,1,1,1v3a3.979,3.979,0,0,1,2.76,1.12c-.7-5.6-2.92-9.98-6.22-12.55a15.142,15.142,0,0,1-2.73,5.51A7.869,7.869,0,0,0,33,14Z"></path><path d="M54.61,46h-.7l-.329,3.291,1.553-.62A1.367,1.367,0,0,0,56,47.39,1.392,1.392,0,0,0,54.61,46Z"></path><path d="M44.725,52.2a1.994,1.994,0,0,0,1.99,1.8h2.57a1.994,1.994,0,0,0,1.99-1.8L51.9,46h-7.79Z"></path><path d="M13,17a16.725,16.725,0,0,0,12.7-5.5,13.162,13.162,0,0,0,3.06-6.11A12.286,12.286,0,0,0,23,4C16.29,4,11.36,8.9,9.66,16.69A18.7,18.7,0,0,0,13,17Z"></path><path d="M23,34a9.015,9.015,0,0,0,8.94-7.97A5,5,0,0,1,29,27H27a4.994,4.994,0,0,1-4-2.03A4.994,4.994,0,0,1,19,27H17a5,5,0,0,1-2.94-.97A9.013,9.013,0,0,0,23,34Zm-2.128-6.882a3.082,3.082,0,0,0,4.256,0l1.4,1.424a5.007,5.007,0,0,1-7.064,0Z"></path><path d="M49,38A11,11,0,1,0,60,49,11.007,11.007,0,0,0,49,38Zm6.867,12.529-2.515,1.006-.087.863a3.987,3.987,0,0,1-3.98,3.6h-2.57a3.987,3.987,0,0,1-3.98-3.6l-.62-6.2a2,2,0,0,1,1.99-2.2H54.61A3.394,3.394,0,0,1,58,47.39,3.353,3.353,0,0,1,55.867,50.529Z"></path><path d="M34.56,50H11.44a6.242,6.242,0,0,0-.26,7.64A4.846,4.846,0,0,1,11.97,60H15V55a1,1,0,0,1,1-1H30a1,1,0,0,1,1,1v5h3.03a4.846,4.846,0,0,1,.79-2.36A6.242,6.242,0,0,0,34.56,50Z"></path><polygon points="15 41.3 13 41.92 13 48 15 48 15 41.3"></polygon><path d="M9.06,24.69a27.591,27.591,0,0,0,4.8,14.87L18,38.27V34.79A11.028,11.028,0,0,1,12.05,26H12a4,4,0,0,1-2.83-1.17A1.71,1.71,0,0,0,9.06,24.69Z"></path><path d="M4,60H9.97a2.655,2.655,0,0,0-.45-1.23A8.855,8.855,0,0,1,8,54a8.723,8.723,0,0,1,2.29-5.71A1.033,1.033,0,0,1,11,48V42.55l-2.09.65A6.964,6.964,0,0,0,4,49.88Z"></path><path d="M9.24,19.12a4.223,4.223,0,0,1,.47-.39c-.13-.03-.27-.05-.41-.07C9.28,18.81,9.26,18.96,9.24,19.12Z"></path><path d="M42,59.94a13.133,13.133,0,0,1-4.19-4.36,9.243,9.243,0,0,1-1.33,3.19A2.655,2.655,0,0,0,36.03,60H42Z"></path><path d="M20,35.57V38.7l3,4.5,3-4.5V35.58a10.8,10.8,0,0,1-6-.01Z"></path><path d="M37.34,43.29c-.08-.02-.16-.06-.24-.08L35,42.55V48a1.033,1.033,0,0,1,.71.29c.1.11.2.23.31.35A12.875,12.875,0,0,1,37.34,43.29Z"></path><rect x="17" y="56" width="12" height="4"></rect><path d="M34,20v4a2.015,2.015,0,0,0,2-2A2.006,2.006,0,0,0,34,20Z"></path><path d="M17,48H29V40.67l-1.58-.49-3.59,5.37a.99.99,0,0,1-1.66,0l-3.59-5.37L17,40.67Z"></path><path d="M10.59,23.41A1.983,1.983,0,0,0,12,24V20a2.006,2.006,0,0,0-2,2A1.983,1.983,0,0,0,10.59,23.41Z"></path></g></svg>