<svg xmlns="http://www.w3.org/2000/svg" viewBox="0 0 64 64" x="0px" y="0px"><g data-name="Payment-Smartphone-Truck-Online Payment-Banking"><rect x="14" y="4" width="14" height="2"></rect><path d="M15,31a9,9,0,1,0-9-9A9.011,9.011,0,0,0,15,31Zm1-8H14a3,3,0,0,1,0-6V15h2v2a3,3,0,0,1,3,3H17a1,1,0,0,0-1-1H14a1,1,0,0,0,0,2h2a3,3,0,0,1,0,6v2H14V27a3,3,0,0,1-3-3h2a1,1,0,0,0,1,1h2a1,1,0,0,0,0-2Z"></path><path d="M33.1,53.99H30.99a3,3,0,0,1-2.99-3V27a1,1,0,0,1,1-1h9V7a3,3,0,0,0-3-3H30V6a2,2,0,0,1-2,2H14a2,2,0,0,1-2-2V4H7A3,3,0,0,0,4,7V22A11,11,0,1,1,15,33,11.013,11.013,0,0,1,4,22V57a3,3,0,0,0,3,3H35a3,3,0,0,0,2.823-2.023A5,5,0,0,1,33.1,53.99ZM32,16h4v2H32Zm-4,0h2v2H28Zm0,4h8v2H28ZM16,54H14V52h2Zm0-6h2v2H16Zm10,6H18V52h8Zm0-4H20V48h6Zm0-4H22V44h4Z"></path><path d="M52.994,50.006a3,3,0,0,0,0,6h0a3,3,0,0,0,0-6Zm1,4-2,0,0-2,2,0Z"></path><polygon points="53.008 41.01 53 44.01 58.372 44.01 55 41.01 53.008 41.01"></polygon><path d="M37.995,55.994a3,3,0,0,0,0-6h0a3,3,0,0,0,0,6Zm-1-4,2,0,0,2-2,0Z"></path><path d="M30,44H47V28H30Zm10-7H38a3,3,0,0,1,0-6V29h2v2a3,3,0,0,1,3,3H41a1,1,0,0,0-1-1H38a1,1,0,0,0,0,2h2a3,3,0,0,1,0,6v2H38V41a3,3,0,0,1-3-3h2a1,1,0,0,0,1,1h2a1,1,0,0,0,0-2Z"></path><path d="M57.9,52.01H58.99a1.019,1.019,0,0,0,1.01-1v-5H53a2,2,0,0,1-2-2l.008-3a2,2,0,0,1,1.771-1.972l-1.15-1.023H49V45a1,1,0,0,1-1,1H30v4.99a1,1,0,0,0,.99,1H33.1a5.007,5.007,0,0,1,4.9-4H38a5.009,5.009,0,0,1,4.9,4l5.2,0a5.007,5.007,0,0,1,4.9-4H53A5.011,5.011,0,0,1,57.9,52.01Z"></path></g></svg>