<svg xmlns="http://www.w3.org/2000/svg" viewBox="0 0 64 64" x="0px" y="0px"><g data-name="Heart Rate-Smartwatch-Beats-Heart-Hand"><path d="M61,26H56a2.006,2.006,0,0,0-2-2H44a2.006,2.006,0,0,0-2,2H39.73L24.24,17.05a3.5,3.5,0,0,0-4.78,1.28,3.443,3.443,0,0,0-.35,2.66,3.492,3.492,0,0,0,1.63,2.13l1.53.88H9.5A3.5,3.5,0,0,0,6,27.5,3.438,3.438,0,0,0,6.34,29H5.5a3.5,3.5,0,0,0,0,7h.84A3.438,3.438,0,0,0,6,37.5,3.5,3.5,0,0,0,9.5,41h1.84A3.438,3.438,0,0,0,11,42.5,3.5,3.5,0,0,0,14.5,46H35a1,1,0,0,0,.45-.11L39.24,44H42a2.006,2.006,0,0,0,2,2H54a2.006,2.006,0,0,0,2-2h5a1,1,0,0,0,1-1V27A1,1,0,0,0,61,26ZM40.78,42H39a1,1,0,0,0-.45.11L34.76,44H14.5a1.5,1.5,0,0,1,0-3H22a1,1,0,0,0,0-2H9.5a1.5,1.5,0,0,1,0-3H22a1,1,0,0,0,0-2H5.5a1.5,1.5,0,0,1,0-3H22a1,1,0,0,0,0-2H9.5a1.5,1.5,0,0,1,0-3H26a1,1,0,0,0,.97-.74,1.022,1.022,0,0,0-.47-1.13l-4.76-2.75a1.458,1.458,0,0,1-.7-.91,1.5,1.5,0,0,1,2.2-1.68l15.72,9.08a1.128,1.128,0,0,0,.5.13h1.32A2.974,2.974,0,0,0,40,30V40A2.974,2.974,0,0,0,40.78,42ZM44,26H54v1H44ZM54,44H44V43H54Zm2-4a1,1,0,0,1-1,1H43a1,1,0,0,1-1-1V30a1,1,0,0,1,1-1H55a1,1,0,0,1,1,1Zm4,2H57.22A2.974,2.974,0,0,0,58,40V30a2.974,2.974,0,0,0-.78-2H60Z"></path><path d="M49,31.928h0a3,3,0,0,0-4.242,4.243l3.535,3.535a1,1,0,0,0,1.414,0l3.535-3.535A3,3,0,1,0,49,31.928Zm2.828,2.83L49,37.586l-2.828-2.828a1,1,0,0,1,1.414-1.415l.707.707a1,1,0,0,0,1.414,0l.707-.706a1,1,0,1,1,1.414,1.414Z"></path></g></svg>