<svg xmlns="http://www.w3.org/2000/svg" viewBox="0 0 64 64" x="0px" y="0px"><title>Communication-Internet-Connection_1</title><g data-name="Communication-Internet-Connection"><rect x="9" y="42" width="46" height="2"></rect><path d="M53,17H11a2,2,0,0,0-2,2V38h2V19H53V38h2V19A2,2,0,0,0,53,17Z"></path><path d="M56,12H8a3,3,0,0,0-3,3V49a3,3,0,0,0,3,3H24v6H23a1,1,0,0,0-1,1v3H18v2H46V62H42V59a1,1,0,0,0-1-1H40V52H56a3,3,0,0,0,3-3V15A3,3,0,0,0,56,12ZM24,62V60H40v2Zm14-4H26V52H38Zm19-9a1,1,0,0,1-1,1H8a1,1,0,0,1-1-1V15a1,1,0,0,1,1-1H56a1,1,0,0,1,1,1Z"></path><path d="M24.925,5.929a10.009,10.009,0,0,1,14.15,0,1,1,0,1,0,1.41-1.418,12.008,12.008,0,0,0-16.97,0,1,1,0,0,0,1.41,1.418Z"></path><path d="M27.757,8.749a1,1,0,1,0,1.406,1.422,4.12,4.12,0,0,1,5.674,0,1,1,0,0,0,1.406-1.422,6.021,6.021,0,0,0-8.486,0Z"></path><path d="M51,26V22a1,1,0,0,0-1-1H46v2h3v3Z"></path><rect x="31" y="29" width="2" height="2"></rect><rect x="37" y="29" width="2" height="2"></rect><rect x="25" y="29" width="2" height="2"></rect></g></svg>