<svg xmlns="http://www.w3.org/2000/svg" viewBox="0 0 64 64" x="0px" y="0px"><g data-name="Robot"><path d="M33,27V25H31v2a1,1,0,0,1-1,1H28v2h2a1,1,0,0,1,1,1v2h2V31a1,1,0,0,1,1-1h2V28H34A1,1,0,0,1,33,27Z"></path><rect x="19" y="39" width="26" height="1"></rect><polygon points="44.382 42 19.618 42 22.618 48 41.382 48 44.382 42"></polygon><circle cx="54" cy="19" r="2"></circle><path d="M27,58v1a1,1,0,0,0,1,1h8a1,1,0,0,0,1-1V58H34V56h3V54H34V52h3V50H27v2h3v2H27v2h3v2Z"></path><path d="M55,22.858a3.592,3.592,0,0,1-2,0V33a1,1,0,0,0,2,0Z"></path><path d="M47,18v2h3.142a3.592,3.592,0,0,1,0-2Z"></path><path d="M32,8a9.011,9.011,0,0,0-9,9v1H41V17A9.011,9.011,0,0,0,32,8Z"></path><path d="M17,20V18H13.858a3.592,3.592,0,0,1,0,2Z"></path><circle cx="10" cy="19" r="2"></circle><path d="M11,22.858a3.592,3.592,0,0,1-2,0V33a1,1,0,0,0,2,0Z"></path><path d="M45,17a13,13,0,0,0-26,0V37H45ZM38,31a1,1,0,0,1-1,1H35v2a1,1,0,0,1-1,1H30a1,1,0,0,1-1-1V32H27a1,1,0,0,1-1-1V27a1,1,0,0,1,1-1h2V24a1,1,0,0,1,1-1h4a1,1,0,0,1,1,1v2h2a1,1,0,0,1,1,1Zm5-12a1,1,0,0,1-1,1H22a1,1,0,0,1-1-1V17a11,11,0,0,1,22,0Z"></path><path d="M59,39H57a3,3,0,0,0-6,0H49a5,5,0,0,1,10,0Z"></path><path d="M15,39H13a3,3,0,0,0-6,0H5a5,5,0,0,1,10,0Z"></path></g></svg>