<svg xmlns="http://www.w3.org/2000/svg" viewBox="0 0 64 64" x="0px" y="0px"><g data-name="Read Book"><path d="M33,55H60V15H58V50a1,1,0,0,1-1,1H36a2.987,2.987,0,0,0-2.9,2.246A2.713,2.713,0,0,0,33,54Zm3-3H58v2H36Z"></path><path d="M28.831,49.07c.089.015.173.045.261.065a4.9,4.9,0,0,1,.53.136c.1.034.194.084.292.125a4.677,4.677,0,0,1,.446.2c.1.052.187.119.282.177.12.075.245.142.358.227V15a3,3,0,0,0-3-3H8V49H28A4.966,4.966,0,0,1,28.831,49.07ZM11,17h2v2H11Zm0,15h4v2H11ZM27,44H11V42H27Zm0-5H11V37H27Zm0-5H17V32H27Zm0-5H11V27H27Zm0-5H11V22H27Zm0-5H15V17H27Z"></path><path d="M33,50c.086-.064.182-.113.272-.172.124-.08.243-.166.373-.236s.258-.115.388-.17.227-.108.347-.149a4.933,4.933,0,0,1,.506-.13c.095-.021.186-.054.283-.07A4.966,4.966,0,0,1,36,49H56V12H36a3,3,0,0,0-3,3Zm8-33H53v2H41Zm-4,0h2v2H37Zm0,5H53v2H37Zm0,5H53v2H37Zm0,5H53v2H37Zm0,5H53v2H37Zm0,5H53v2H37Z"></path><path d="M4,15V55H31V54a2.634,2.634,0,0,0-.093-.729A2.989,2.989,0,0,0,28,51H7a1,1,0,0,1-1-1V15ZM28,52v2H6V52Z"></path></g></svg>