<svg xmlns="http://www.w3.org/2000/svg" viewBox="0 0 64 64" x="0px" y="0px"><title>Cocktail</title><g data-name="Cocktail"><path d="M42,14H40V9.414l5.707-5.707a1,1,0,1,0-1.414-1.414l-6,6A1,1,0,0,0,38,9v5H36V3a1,1,0,0,0-2,0V14H22a2,2,0,0,0-2,2V59a3,3,0,0,0,3,3H41a3,3,0,0,0,3-3V16A2,2,0,0,0,42,14Zm0,2v8H40V16Zm-4,0v8H36V16Zm-4,0v8H22V16Zm7,44H23a1,1,0,0,1-1-1V26H34V57a1,1,0,0,0,2,0V26h2V57a1,1,0,0,0,2,0V26h2V59A1,1,0,0,1,41,60Z"></path><path d="M28,31H27V30a1,1,0,0,0-2,0v1H24a1,1,0,0,0,0,2h1v1a1,1,0,0,0,2,0V33h1a1,1,0,0,0,0-2Z"></path><path d="M25.38,56.08a1,1,0,0,0-.76,0,1.155,1.155,0,0,0-.33.21A1.052,1.052,0,0,0,24,57a1,1,0,0,0,.08.38,1.032,1.032,0,0,0,.21.33,1.014,1.014,0,0,0,1.42,0,1.032,1.032,0,0,0,.21-.33A1,1,0,0,0,26,57a1.052,1.052,0,0,0-.29-.71A1.155,1.155,0,0,0,25.38,56.08Z"></path><path d="M32.71,34.29a1,1,0,0,0-1.09-.21.9.9,0,0,0-.54.54A1,1,0,0,0,31,35a1.052,1.052,0,0,0,.29.71,1.155,1.155,0,0,0,.33.21A1,1,0,0,0,32,36a.99.99,0,0,0,1-1,1,1,0,0,0-.08-.38A1.155,1.155,0,0,0,32.71,34.29Z"></path><path d="M30.62,43.08a1.032,1.032,0,0,0-.33.21,1.155,1.155,0,0,0-.21.33A1,1,0,0,0,30,44a1.355,1.355,0,0,0,.02.2.636.636,0,0,0,.06.18.757.757,0,0,0,.09.18l.12.15a1.155,1.155,0,0,0,.33.21A.838.838,0,0,0,31,45a1.355,1.355,0,0,0,.2-.02.636.636,0,0,0,.18-.06.757.757,0,0,0,.18-.09l.15-.12.12-.15a.757.757,0,0,0,.09-.18.636.636,0,0,0,.06-.18A1.355,1.355,0,0,0,32,44a1.052,1.052,0,0,0-.29-.71A1.017,1.017,0,0,0,30.62,43.08Z"></path><path d="M26.71,44.29a1,1,0,0,0-1.09-.21,1.155,1.155,0,0,0-.33.21,1.032,1.032,0,0,0-.21.33A1,1,0,0,0,25,45a1.033,1.033,0,0,0,.29.71,1.155,1.155,0,0,0,.33.21A.838.838,0,0,0,26,46a1.052,1.052,0,0,0,.71-.29l.12-.15a.757.757,0,0,0,.09-.18.636.636,0,0,0,.06-.18A1.355,1.355,0,0,0,27,45a1,1,0,0,0-.08-.38A1.032,1.032,0,0,0,26.71,44.29Z"></path><path d="M31,22a.99.99,0,1,0-.71-.29A1.052,1.052,0,0,0,31,22Z"></path><path d="M26,20a.99.99,0,0,0,1-1,.838.838,0,0,0-.08-.38,1.155,1.155,0,0,0-.21-.33c-.05-.04-.1-.08-.16-.12a.556.556,0,0,0-.17-.09.636.636,0,0,0-.18-.06,1.018,1.018,0,0,0-.91.27,1.155,1.155,0,0,0-.21.33A1,1,0,0,0,25,19a.99.99,0,0,0,1,1Z"></path><path d="M12.29,8.29A1.052,1.052,0,0,0,12,9a1.033,1.033,0,0,0,.29.71,1,1,0,0,0,1.42-1.42A1.047,1.047,0,0,0,12.29,8.29Z"></path><path d="M16.29,16.29a1,1,0,1,0,1.42,0A1.052,1.052,0,0,0,16.29,16.29Z"></path><path d="M10.71,35.29a1.032,1.032,0,0,0-.33-.21,1,1,0,0,0-.76,0,.9.9,0,0,0-.54.54.942.942,0,0,0,0,.76.9.9,0,0,0,.54.54.943.943,0,0,0,.76,0,1.032,1.032,0,0,0,.33-.21,1.155,1.155,0,0,0,.21-.33.943.943,0,0,0,0-.76A1.155,1.155,0,0,0,10.71,35.29Z"></path><path d="M17.56,28.17a.757.757,0,0,0-.18-.09.636.636,0,0,0-.18-.06,1.018,1.018,0,0,0-.91.27A1,1,0,0,0,17,30a1.355,1.355,0,0,0,.2-.02.636.636,0,0,0,.18-.06.757.757,0,0,0,.18-.09l.15-.12a1.014,1.014,0,0,0,0-1.42A1.576,1.576,0,0,0,17.56,28.17Z"></path><path d="M48.55,36.17a.556.556,0,0,0-.17-.09.636.636,0,0,0-.18-.06.9.9,0,0,0-.4,0,.636.636,0,0,0-.18.06.757.757,0,0,0-.18.09,1.576,1.576,0,0,0-.15.12A1.052,1.052,0,0,0,47,37a1.5,1.5,0,0,0,.02.2.636.636,0,0,0,.06.18.757.757,0,0,0,.09.18,1.576,1.576,0,0,0,.12.15A1.052,1.052,0,0,0,48,38a1.5,1.5,0,0,0,.2-.02.636.636,0,0,0,.18-.06.556.556,0,0,0,.17-.09c.06-.04.11-.08.16-.12l.12-.15a.757.757,0,0,0,.09-.18.636.636,0,0,0,.06-.18A1.5,1.5,0,0,0,49,37a1.052,1.052,0,0,0-.29-.71A.955.955,0,0,0,48.55,36.17Z"></path><path d="M48.62,18.08a1.032,1.032,0,0,0-.33.21A1.052,1.052,0,0,0,48,19a1.5,1.5,0,0,0,.02.2.636.636,0,0,0,.06.18.757.757,0,0,0,.09.18,1.576,1.576,0,0,0,.12.15,1.014,1.014,0,0,0,1.42,0l.12-.15a.757.757,0,0,0,.09-.18.636.636,0,0,0,.06-.18A1.5,1.5,0,0,0,50,19a1.052,1.052,0,0,0-.29-.71A1.021,1.021,0,0,0,48.62,18.08Z"></path><path d="M30.8,53.02a.636.636,0,0,0-.18.06.757.757,0,0,0-.18.09l-.15.12a1.155,1.155,0,0,0-.21.33A1,1,0,0,0,30,54a1.5,1.5,0,0,0,.02.2.636.636,0,0,0,.06.18.757.757,0,0,0,.09.18l.12.15.15.12a.757.757,0,0,0,.18.09.636.636,0,0,0,.18.06A1.5,1.5,0,0,0,31,55a1.052,1.052,0,0,0,.71-.29l.12-.15a.757.757,0,0,0,.09-.18.636.636,0,0,0,.06-.18A1.5,1.5,0,0,0,32,54a.993.993,0,0,0-1.2-.98Z"></path><path d="M21,8h1V9a1,1,0,0,0,2,0V8h1a1,1,0,0,0,0-2H24V5a1,1,0,0,0-2,0V6H21a1,1,0,0,0,0,2Z"></path><path d="M52,26H51V25a1,1,0,0,0-2,0v1H48a1,1,0,0,0,0,2h1v1a1,1,0,0,0,2,0V28h1a1,1,0,0,0,0-2Z"></path><path d="M48,13V12h1a1,1,0,0,0,0-2H48V9a1,1,0,0,0-2,0v1H45a1,1,0,0,0,0,2h1v1a1,1,0,0,0,2,0Z"></path><path d="M13,22H12V21a1,1,0,0,0-2,0v1H9a1,1,0,0,0,0,2h1v1a1,1,0,0,0,2,0V24h1a1,1,0,0,0,0-2Z"></path></g></svg>