<svg xmlns="http://www.w3.org/2000/svg" viewBox="0 0 64 64" x="0px" y="0px"><g data-name="Shirt-Clothes-Uniform"><polygon points="32 12.414 30.414 14 33.586 14 32 12.414"></polygon><path d="M60,29V14.03a1.978,1.978,0,0,0-1.257-1.85L45.991,8.051A.922.922,0,0,0,45.68,8h-.3l-8.716,7.748a1,1,0,0,1-1.371-.041l-.281-.281L36,52.974a1,1,0,0,1-.293.733l-3,3a1,1,0,0,1-1.414,0l-3-3A1,1,0,0,1,28,52.974l.988-37.548-.281.281a1,1,0,0,1-1.371.041L18.62,8h-.3a.906.906,0,0,0-.289.043L5.2,12.2A1.964,1.964,0,0,0,4,14.03V29h8V23h2V60H50V23h2v6Z"></path><polygon points="32 54.586 33.989 52.597 33.026 16 30.974 16 30.011 52.597 32 54.586"></polygon><polygon points="20.353 6.864 27.96 13.626 28.293 13.293 30.503 11.083 22.181 4.425 20.353 6.864"></polygon><polygon points="32 9.719 39.149 4 24.851 4 32 9.719"></polygon><polygon points="36.04 13.626 43.647 6.864 41.819 4.425 33.497 11.083 35.707 13.293 36.04 13.626"></polygon></g></svg>