<svg xmlns="http://www.w3.org/2000/svg" viewBox="0 0 64 64" x="0px" y="0px"><g><polygon points="25.883 50 25.133 56 38.867 56 38.117 50 25.883 50"></polygon><path d="M4,45a3,3,0,0,0,3,3H57a3,3,0,0,0,3-3V42H4Zm52-1h2v2H56Z"></path><polygon points="41 58 23 58 23 60 17 60 17 62 47 62 47 60 41 60 41 58"></polygon><circle cx="27" cy="19" r="1"></circle><circle cx="37" cy="29" r="1"></circle><path d="M57,8H7a3,3,0,0,0-3,3V40H60V11A3,3,0,0,0,57,8ZM40,29a3,3,0,1,1-3-3A3,3,0,0,1,40,29Zm-19.081-.385-1.845.771A14.006,14.006,0,0,1,37.385,11.074l-.77,1.845a12.008,12.008,0,0,0-15.7,15.7ZM24,19a3,3,0,1,1,3,3A3,3,0,0,1,24,19Zm13.293-1.707,1.414,1.414-12,12-1.414-1.414ZM32,38a13.906,13.906,0,0,1-5.385-1.074l.769-1.845a12.009,12.009,0,0,0,15.7-15.7l1.845-.77A14.007,14.007,0,0,1,32,38Z"></path></g></svg>