<svg xmlns="http://www.w3.org/2000/svg" viewBox="0 0 64 64" x="0px" y="0px"><title>Euro</title><g><path d="M59,2H5A3,3,0,0,0,2,5V59a3,3,0,0,0,3,3H59a3,3,0,0,0,3-3V5A3,3,0,0,0,59,2Zm1,48H4V42H60Zm0-20H53.062A8.019,8.019,0,0,1,60,23.062Zm0,10H4V32H60ZM4,30V23.062A8.019,8.019,0,0,1,10.938,30Zm47.051,0h-38.1A10.015,10.015,0,0,0,4,21.051v-8.1A10.015,10.015,0,0,0,12.949,4h38.1A10.015,10.015,0,0,0,60,12.949v8.1A10.015,10.015,0,0,0,51.051,30ZM59,4a1,1,0,0,1,1,1v5.938A8.019,8.019,0,0,1,53.062,4ZM4,5A1,1,0,0,1,5,4h5.938A8.019,8.019,0,0,1,4,10.938ZM59,60H5a1,1,0,0,1-1-1V52H60v7A1,1,0,0,1,59,60Z"></path><path d="M32,7A10,10,0,1,0,42,17,10.011,10.011,0,0,0,32,7Zm0,18a8,8,0,1,1,8-8A8.009,8.009,0,0,1,32,25Z"></path><path d="M33,13a2.38,2.38,0,0,1,1.414.479l1.172-1.621A4.4,4.4,0,0,0,33,11a4.925,4.925,0,0,0-4.323,3H27v2h1.075a6.7,6.7,0,0,0,0,2H27v2h1.677A4.925,4.925,0,0,0,33,23a4.4,4.4,0,0,0,2.586-.858l-1.172-1.621A2.38,2.38,0,0,1,33,21a2.605,2.605,0,0,1-1.963-1H35V18H30.107a4.726,4.726,0,0,1,0-2H35V14H31.037A2.605,2.605,0,0,1,33,13Z"></path></g></svg>