<svg xmlns="http://www.w3.org/2000/svg" viewBox="0 0 64 64" x="0px" y="0px"><g data-name="Money Management"><path d="M4,43.05V52h8.95A10.018,10.018,0,0,0,4,43.05Z"></path><path d="M60,43.05A10.018,10.018,0,0,0,51.05,52H60Z"></path><rect x="4" y="58" width="56" height="2"></rect><path d="M32,32a7,7,0,1,0,7,7A7.008,7.008,0,0,0,32,32Zm-1,6h2a3,3,0,0,1,0,6v1H31V44a3,3,0,0,1-3-3h2a1,1,0,0,0,1,1h2a1,1,0,0,0,0-2H31a3,3,0,0,1,0-6V33h2v1a3,3,0,0,1,3,3H34a1,1,0,0,0-1-1H31a1,1,0,0,0,0,2Z"></path><rect x="4" y="54" width="56" height="2"></rect><path d="M32,17a8.008,8.008,0,0,0-7.931,7H39.931A8.008,8.008,0,0,0,32,17Z"></path><path d="M60,26H51.05A10.018,10.018,0,0,0,60,34.95Z"></path><path d="M40.833,10.91a1,1,0,0,1-1.1.085,15.573,15.573,0,0,0-3.3-1.353,1,1,0,0,1-.719-.838l-.6-4.8H28.883l-.6,4.8a1,1,0,0,1-.719.838A15.573,15.573,0,0,0,24.266,11a1,1,0,0,1-1.1-.085L19.354,7.951l-4.4,4.4,2.959,3.813a1,1,0,0,1,.084,1.1,15.668,15.668,0,0,0-1.352,3.3,1,1,0,0,1-.838.718l-4.8.6V24H22.051a10,10,0,0,1,19.9,0H53V21.883l-4.8-.6a1,1,0,0,1-.838-.718,15.668,15.668,0,0,0-1.352-3.3,1,1,0,0,1,.084-1.1l2.959-3.813-4.4-4.4Z"></path><path d="M4,34.95A10.018,10.018,0,0,0,12.95,26H4Z"></path><path d="M60,36.949A12.006,12.006,0,0,1,49.051,26h-34.1A12.006,12.006,0,0,1,4,36.949v4.1A12.006,12.006,0,0,1,14.949,52h34.1A12.006,12.006,0,0,1,60,41.051ZM32,48a9,9,0,1,1,9-9A9.01,9.01,0,0,1,32,48Z"></path></g></svg>