<svg xmlns="http://www.w3.org/2000/svg" viewBox="0 0 64 64" x="0px" y="0px"><title>Bamboo Shoot</title><g data-name="Bamboo Shoot"><path d="M56.3,27.071A64.8,64.8,0,0,0,50.292,11.48c-3.947-7.035-7.631-9.251-7.786-9.342a1,1,0,0,0-1.014,0c-.215.127-5.32,3.223-9.966,13.715Q30.31,18.6,29.282,21.683c-.019.058-.036.118-.055.176q-.914,2.766-1.668,5.789-.63,2.511-1.151,5.182h0c-.41,2.083-.768,4.323-1.081,6.666a61.267,61.267,0,0,0-7.546-13.121,1.034,1.034,0,0,0-1.562,0C15.72,27,4,41.869,4,61a1,1,0,0,0,1,1H59a1,1,0,0,0,1-1C60,48.022,58.754,36.607,56.3,27.071Zm-2.188-.428a16.764,16.764,0,0,0-6.98,4.766,33.156,33.156,0,0,0-5.653-10.29A19.483,19.483,0,0,1,49,13.293,63.106,63.106,0,0,1,54.111,26.643ZM41.469,40.818a22.755,22.755,0,0,0-5.264-5.864,13.652,13.652,0,0,0-7.59-2.927c.073-.356.143-.717.219-1.069.05-.229.1-.452.156-.679.114-.506.227-1.013.348-1.509.066-.272.136-.537.2-.806.112-.441.223-.883.34-1.316.077-.286.158-.565.237-.848.115-.406.228-.813.347-1.212.086-.288.175-.568.263-.852.119-.382.238-.765.361-1.14.094-.286.192-.566.288-.848.124-.36.247-.72.375-1.073.1-.283.207-.561.312-.839.129-.341.258-.68.39-1.013.109-.276.221-.547.333-.818.077-.187.156-.37.234-.555a14.792,14.792,0,0,1,6.493,4.437,31.389,31.389,0,0,1,6.113,11.344A33.017,33.017,0,0,0,41.469,40.818ZM42,4.225a25.968,25.968,0,0,1,6.02,7.321,21.1,21.1,0,0,0-7.952,8.026,16.255,16.255,0,0,0-6.231-3.958C37.215,8.416,40.72,5.22,42,4.225ZM28.224,34.017a11.628,11.628,0,0,1,6.771,2.529A22.165,22.165,0,0,1,40.806,43.6,43.508,43.508,0,0,1,45.664,60H29.981a53.6,53.6,0,0,0-3.115-16.553C27.221,40.077,27.679,36.918,28.224,34.017ZM17.542,47.627c-.538-1.455-1.137-2.917-1.8-4.373a63.7,63.7,0,0,1,4.545-9.341c.767,1.361,1.574,2.91,2.373,4.629A66.426,66.426,0,0,0,17.542,47.627ZM17,28.681c.522.733,1.274,1.848,2.136,3.259a66.229,66.229,0,0,0-4.564,8.9c-.727-1.451-1.489-2.869-2.3-4.23A63.171,63.171,0,0,1,17,28.681ZM11.221,38.806c.894,1.579,1.754,3.2,2.53,4.882a62.994,62.994,0,0,1,2.615,6.63A59.313,59.313,0,0,0,13.279,60H6.011A54.374,54.374,0,0,1,11.221,38.806ZM15.333,60a57.68,57.68,0,0,1,3.019-9.262c.01-.025.02-.051.029-.079a65.19,65.19,0,0,1,5.243-9.942A53.28,53.28,0,0,1,27.989,60Zm32.343,0a45.974,45.974,0,0,0-4.907-16.96,31.837,31.837,0,0,1,4.759-9.014A15.86,15.86,0,0,1,54.6,28.583,136.364,136.364,0,0,1,58,60Z"></path></g></svg>