<svg xmlns="http://www.w3.org/2000/svg" viewBox="0 0 64 64" x="0px" y="0px"><g data-name="Money-Envelope"><path d="M53,22H49V4a2,2,0,0,0-2-2H17a2,2,0,0,0-2,2V22H11a1,1,0,0,0-1,1V59a3,3,0,0,0,3,3H51a3,3,0,0,0,3-3V23A1,1,0,0,0,53,22ZM48.3,54.883A2.987,2.987,0,0,0,46.17,54H17.85a3.027,3.027,0,0,0-2.126.872L12,58.588V26l1.2,1.6a1,1,0,0,0,.8.4H50a1,1,0,0,0,.8-.4L52,26V58.586ZM50.586,60H13.417l3.711-3.7a1.044,1.044,0,0,1,.722-.3H46.17a1,1,0,0,1,.713.3ZM51,24l-1.5,2H49V24ZM17,4H47V6H17ZM47,8v2H17V8Zm0,4V26H17V12ZM15,26h-.5L13,24h2Z"></path><path d="M32,36a3,3,0,1,0-3-3A3,3,0,0,0,32,36Zm0-4a1,1,0,1,1-1,1A1,1,0,0,1,32,32Z"></path><path d="M41,38H23a1,1,0,0,0-1,1V51a1,1,0,0,0,1,1H41a1,1,0,0,0,1-1V39A1,1,0,0,0,41,38ZM40,50H24V40H40Z"></path><rect x="26" y="42" width="12" height="2"></rect><rect x="26" y="46" width="12" height="2"></rect><path d="M32,24a5,5,0,1,0-5-5A5.006,5.006,0,0,0,32,24Zm0-8a3,3,0,1,1-3,3A3,3,0,0,1,32,16Z"></path><path d="M21,16h2V14H20a1,1,0,0,0-1,1v3h2Z"></path><path d="M44,18h2V15a1,1,0,0,0-1-1H42v2h2Z"></path><path d="M20,24h3V22H21V20H19v3A1,1,0,0,0,20,24Z"></path><path d="M46,23V20H44v2H42v2h3A1,1,0,0,0,46,23Z"></path></g></svg>