<svg xmlns="http://www.w3.org/2000/svg" viewBox="0 0 64 64" x="0px" y="0px"><g><path d="M13.03,24h7c.18-7.23,2.36-13.38,5.62-16.89A19.022,19.022,0,0,0,13.03,24Z"></path><path d="M31,6.1c-4.8.95-8.7,8.68-8.97,17.9H31Z"></path><path d="M50.97,24A19.022,19.022,0,0,0,38.35,7.11c3.26,3.51,5.44,9.66,5.62,16.89Z"></path><path d="M33,6.1V24h8.97C41.7,14.78,37.8,7.05,33,6.1Z"></path><rect x="31" y="3" width="2" height="3"></rect><path d="M23,46.07V60h5V53a1,1,0,0,1,1-1h6a1,1,0,0,1,1,1v7h5V46.07l-9-9ZM36,46a4,4,0,1,1-4-4A4,4,0,0,1,36,46Z"></path><circle cx="32" cy="46" r="2"></circle><rect x="30" y="54" width="4" height="6"></rect><path d="M33,32.411V24H31v8.411L17.86,45.56l1.41,1.41L31.29,34.95a1.014,1.014,0,0,1,1.42,0L44.73,46.97l1.41-1.41Z"></path><polygon points="41 33 39 33 39 35.59 41 37.59 41 33"></polygon></g></svg>