<svg xmlns="http://www.w3.org/2000/svg" viewBox="0 0 64 64" x="0px" y="0px"><g><path d="M29.45,48.17a.975.975,0,0,1,1.1,0l1.45.96V39H29.86l-1.53,9.91Z"></path><path d="M37,36a1,1,0,0,0-1-1H28a1,1,0,0,0,0,2h8A1,1,0,0,0,37,36Z"></path><path d="M42,58.38V60h4V50.42a10.978,10.978,0,0,0-6.08-9.85l-1.68-.83,1.75,13.13A.995.995,0,0,1,39,54a.991.991,0,0,1-.55-.17L36,52.2l-2.45,1.63a.963.963,0,0,1-1.02.05A.984.984,0,0,1,32,53V51.54L30,50.2l-2.45,1.63A.991.991,0,0,1,27,52a.972.972,0,0,1-.54-.16,1,1,0,0,1-.45-.99l1.83-11.87a3.559,3.559,0,0,1-.47-.05l-3.29,1.65A10.951,10.951,0,0,0,18,50.42V60h4V58.38a2.756,2.756,0,0,0-.48-1.61A8.855,8.855,0,0,1,20,52a8.723,8.723,0,0,1,2.29-5.71l1.42,1.42A6.609,6.609,0,0,0,22,52a6.723,6.723,0,0,0,1.18,3.64A4.907,4.907,0,0,1,24,58.38V60H40V58.38a4.907,4.907,0,0,1,.82-2.74A6.723,6.723,0,0,0,42,52a6.609,6.609,0,0,0-1.71-4.29l1.42-1.42A8.723,8.723,0,0,1,44,52a8.855,8.855,0,0,1-1.52,4.77A2.756,2.756,0,0,0,42,58.38Z"></path><path d="M40.82,38.79a13.088,13.088,0,0,1,2.96,2.04,2.015,2.015,0,0,0,1.19-1.44,2.04,2.04,0,0,0-.34-1.56,2.986,2.986,0,0,1-.04-3.61A2.014,2.014,0,0,0,45,33a1.977,1.977,0,0,0-.54-1.38,5.175,5.175,0,0,1-1.48-3.9c.01-.22.02-.47.02-.72V20c0-.06-.01-.12-.01-.18A2.946,2.946,0,0,1,42,20H41v6a8.995,8.995,0,0,1-3.74,7.29,2.983,2.983,0,0,1,1.25,4.35Z"></path><path d="M19.03,39.38a2.031,2.031,0,0,0,1.19,1.45,12.868,12.868,0,0,1,2.96-2.04l2.31-1.15a2.983,2.983,0,0,1,1.25-4.35A8.995,8.995,0,0,1,23,26V20H22a2.831,2.831,0,0,1-.97-.18c-.01.18-.03.35-.03.53V27c0,.25.01.5.02.75a5.152,5.152,0,0,1-1.48,3.87,2.013,2.013,0,0,0-.13,2.59,3.016,3.016,0,0,1-.04,3.63A1.992,1.992,0,0,0,19.03,39.38Z"></path><path d="M36.55,50.17l1.17.77L36.12,39H34V51.13l1.45-.96A.963.963,0,0,1,36.55,50.17Z"></path><path d="M22,16a1,1,0,0,0,0,2H42a1,1,0,0,0,0-2Z"></path><path d="M52,3a2.006,2.006,0,0,0-2,2,1.685,1.685,0,0,0,.08.54A2,2,0,1,0,52,3Z"></path><path d="M48.18,4H31a5,5,0,0,0-4.62,3.08L23.5,14H40.38L38.11,9.45l1.78-.9,1.8,3.58,1.34-5.37a1,1,0,0,1,.7-.72l4.29-1.23A3.146,3.146,0,0,1,48.18,4Z"></path><path d="M39,26V20H25v6a7,7,0,0,0,14,0Zm-5-4h2v2H34Zm-6,0h2v2H28Zm2.017,5.25a3.074,3.074,0,0,0,3.966,0l1.325,1.5a5,5,0,0,1-6.616,0Z"></path></g></svg>