<svg xmlns="http://www.w3.org/2000/svg" viewBox="0 0 64 64" x="0px" y="0px"><g><path d="M25,55a1,1,0,0,0,1,1H38a1,1,0,0,0,1-1V52H25Zm6-2h2v2H31Z"></path><path d="M60,32A12.01,12.01,0,0,1,48,44H41V33a3.009,3.009,0,0,0-3-3H26a3.009,3.009,0,0,0-3,3V44H13a9,9,0,0,1-2.6-17.62.987.987,0,0,0,.71-.82A11.007,11.007,0,0,1,22,16c.16,0,.31.01.46.02l.2.01a.99.99,0,0,0,.95-.53,13.985,13.985,0,0,1,26.15,3.98.994.994,0,0,0,.77.79A12.053,12.053,0,0,1,60,32Z"></path><path d="M25,50H39V38H25Zm10-7h2v2H35Zm-4,0h2v2H31Zm-4,0h2v2H27Z"></path><path d="M38,32H26a1,1,0,0,0-1,1v3H39V33A1,1,0,0,0,38,32Zm-9,3H27V33h2Zm6,0H31V33h4Z"></path></g></svg>