<svg xmlns="http://www.w3.org/2000/svg" viewBox="0 0 64 64" x="0px" y="0px"><g><path d="M38,26H50a1,1,0,0,0,1-1V18H37v7A1,1,0,0,0,38,26Zm7-5h2v2H45Zm-4,0h2v2H41Z"></path><path d="M51,15a1,1,0,0,0-1-1H38a1,1,0,0,0-1,1v1H51Z"></path><path d="M12.316,23.455c-.013.031-.028.061-.041.092-.178.432-.332.875-.474,1.323-.025.079-.055.155-.079.234-.123.408-.222.825-.314,1.245-.026.119-.061.235-.084.355-.08.4-.134.817-.185,1.231-.016.135-.043.267-.057.4C11.029,28.885,11,29.439,11,30v.351l-.218.272v0L4.081,39H9v8a3,3,0,0,0,3,3h7V60H39V42.963l.333-.3.014-.013a17.139,17.139,0,0,0,1.33-1.352c.128-.143.251-.289.372-.436.3-.361.583-.736.852-1.12A17.15,17.15,0,0,0,43,37.972V36h2v1.949a17.989,17.989,0,0,0,2.686-.331l-.511-1.9,1.931-.519.509,1.9a17.791,17.791,0,0,0,2.495-1.044l-.976-1.691,1.732-1,.979,1.7A18.046,18.046,0,0,0,55.981,33.4l-1.375-1.375,1.415-1.415L57.4,31.982a17.97,17.97,0,0,0,1.656-2.138l-1.7-.978,1-1.732,1.692.976a17.887,17.887,0,0,0,1.043-2.5l-1.9-.508.518-1.932,1.9.51A17.96,17.96,0,0,0,61.949,21H60V19h1.949a17.96,17.96,0,0,0-.331-2.685l-1.9.51L59.2,14.893l1.9-.508a17.887,17.887,0,0,0-1.043-2.495l-1.692.976-1-1.732,1.7-.978A17.97,17.97,0,0,0,57.4,8.018L56.021,9.394,54.606,7.979,55.981,6.6a18.046,18.046,0,0,0-2.136-1.655l-.979,1.7-1.732-1,.976-1.691a17.791,17.791,0,0,0-2.495-1.044l-.509,1.9-1.931-.519.511-1.9A17.989,17.989,0,0,0,45,2.051V4H43V2.038a17.957,17.957,0,0,0-2.684.352l.509,1.9-1.931.519-.51-1.9a17.741,17.741,0,0,0-2.5,1.04l.98,1.7-1.732,1-.98-1.7a18.184,18.184,0,0,0-2.145,1.647l1.385,1.385L31.979,9.394,30.6,8.013a18.264,18.264,0,0,0-1.648,2.144l1.693.977-1,1.732-1.7-.983q-.285.56-.532,1.142A17.038,17.038,0,0,0,12.316,23.455ZM40.307,37.646l-1.932-.519.519-1.932,1.931.519ZM35,15a3,3,0,0,1,3-3H50a3,3,0,0,1,3,3V25a3,3,0,0,1-3,3H38a3,3,0,0,1-3-3Zm.134,18.356,1.732,1-1,1.732-1.732-1Zm-8.78-9.663,1.932-.518.518,1.932-1.932.518Zm5.625,6.913,1.415,1.415-1.415,1.414-1.414-1.414Zm-1.335-1.74-1.733,1-1-1.732,1.733-1ZM26.872,14.375l1.932.518-.518,1.932-1.932-.518ZM26,19h2v2H26Z"></path></g></svg>