<svg xmlns="http://www.w3.org/2000/svg" viewBox="0 0 32 32" x="0px" y="0px"><title>File Time_1</title><g data-name="File Time"><path d="M27.99,7.944a1.494,1.494,0,0,0-.067-.316.985.985,0,0,0-.164-.279l-6-7a.986.986,0,0,0-.3-.23c-.031-.016-.06-.027-.092-.04A1,1,0,0,0,21.048.01C21.031.01,21.017,0,21,0H5A1,1,0,0,0,4,1V31a1,1,0,0,0,1,1H27a1,1,0,0,0,1-1V8C28,7.981,27.991,7.963,27.99,7.944ZM22,3.7,24.826,7H22ZM26,30H6V2H20V8a1,1,0,0,0,1,1h5Z"></path><path d="M16,9a7,7,0,1,0,7,7A7.008,7.008,0,0,0,16,9Zm0,12a5,5,0,1,1,5-5A5.006,5.006,0,0,1,16,21Z"></path><path d="M17,16V14a1,1,0,0,0-2,0v3a1,1,0,0,0,1,1h3a1,1,0,0,0,0-2Z"></path></g></svg>