<svg xmlns="http://www.w3.org/2000/svg" viewBox="0 0 64 64" x="0px" y="0px"><g data-name="Credit Card-Payment"><path d="M28.856,22.3l-1.429,1.4A9.01,9.01,0,0,1,28.8,25.5l1.732-1A11.044,11.044,0,0,0,28.856,22.3Z"></path><path d="M21,21a8.983,8.983,0,0,1,4.5,1.2l1-1.732A11,11,0,0,0,21,19Z"></path><path d="M59.376,26.942l-5.659-5.649a3.851,3.851,0,0,0-.717-.56V14a3,3,0,0,0-3-3H34a3,3,0,0,0-3,3v4.848a14.823,14.823,0,0,0-7.29-3.582A2.97,2.97,0,0,0,24,14a3,3,0,0,0-6,0,2.963,2.963,0,0,0,.282,1.251A15.088,15.088,0,0,0,6.313,27H5a3,3,0,0,0-3,3,2.922,2.922,0,0,0,.874,2.108A2.944,2.944,0,0,0,5,33h.22l.619,2.479A1.993,1.993,0,0,0,7.78,37H31v3a3,3,0,0,0,3,3h8V61a1,1,0,0,0,1,1H54a1,1,0,0,0,1-1V57.66a3.02,3.02,0,0,1,.877-2.123l2.32-2.32A13.067,13.067,0,0,0,62,44.041l.01-10.717A8.944,8.944,0,0,0,59.376,26.942ZM53,31.414l.123.123A3.02,3.02,0,0,1,54,33.66V40a2,2,0,0,1-1.76,1.976A2.976,2.976,0,0,0,53,40ZM20,14a1,1,0,1,1,1,1A1,1,0,0,1,20,14Zm1,3a12.915,12.915,0,0,1,10,4.715V27H8.348A13.068,13.068,0,0,1,21,17ZM4.287,30.694A.965.965,0,0,1,4,30a1,1,0,0,1,1-1H31v2H5A.978.978,0,0,1,4.287,30.694ZM7.779,35l-.5-2H31v2ZM42,36v5H34a1,1,0,0,1-1-1V14a1,1,0,0,1,1-1H50a1,1,0,0,1,1,1V40a.989.989,0,0,1-.751.95A1.982,1.982,0,0,1,50,40V36a4,4,0,0,0-8,0Zm18,8.04A11.058,11.058,0,0,1,56.783,51.8l-2.32,2.32A5.035,5.035,0,0,0,53,57.66V60H44V36a2,2,0,0,1,4,0v4a3.9,3.9,0,0,0,.972,2.6,2.136,2.136,0,0,0,.2.224A4,4,0,0,0,56,40V33.66a5.035,5.035,0,0,0-1.463-3.537L53,28.586V23.4l4.96,4.951a6.961,6.961,0,0,1,2.05,4.965Z"></path><path d="M38,30a3,3,0,0,0-3,3,2.965,2.965,0,0,0,.421,1.507A2.956,2.956,0,0,0,35,36a3,3,0,0,0,6,0,2.956,2.956,0,0,0-.421-1.493A2.965,2.965,0,0,0,41,33,3,3,0,0,0,38,30Zm0,2a1,1,0,1,1-1,1A1,1,0,0,1,38,32Zm0,5a1,1,0,0,1-1-1,.956.956,0,0,1,.038-.173,2.761,2.761,0,0,0,1.924,0A.956.956,0,0,1,39,36,1,1,0,0,1,38,37Z"></path><path d="M48,23a1,1,0,0,0,1-1V16a1,1,0,0,0-1-1H44a1,1,0,0,0-1,1v6a1,1,0,0,0,1,1Zm-3-6h2v4H45Z"></path><rect x="44" y="29" width="4" height="2"></rect><rect x="35" y="15" width="2" height="2"></rect><rect x="35" y="19" width="2" height="2"></rect><rect x="35" y="23" width="2" height="2"></rect><rect x="39" y="15" width="2" height="10"></rect></g></svg>