<svg xmlns="http://www.w3.org/2000/svg" viewBox="0 0 64 64" x="0px" y="0px"><title>Report</title><g><path d="M61.987,18.937a.945.945,0,0,0-.051-.257c-.011-.032-.019-.063-.033-.094a.984.984,0,0,0-.2-.293l-10-10a1,1,0,0,0-.293-.2c-.03-.014-.061-.022-.092-.033a.99.99,0,0,0-.263-.052C51.039,8.011,51.02,8,51,8H5a3,3,0,0,0-3,3V47a3,3,0,0,0,3,3H28v1a5.006,5.006,0,0,0,5,5H51a5.006,5.006,0,0,0,5-5V50h3a3,3,0,0,0,3-3V19C62,18.978,61.989,18.959,61.987,18.937ZM58.586,18H52V11.414ZM54,51a3,3,0,0,1-3,3H33a3,3,0,0,1-3-3V27a3,3,0,0,1,3-3H51a3,3,0,0,1,3,3Zm5-3H56V27a5.006,5.006,0,0,0-5-5H33a5.006,5.006,0,0,0-5,5V48H5a1,1,0,0,1-1-1V11a1,1,0,0,1,1-1H50v8a2,2,0,0,0,2,2h8V47A1,1,0,0,1,59,48Z"></path><path d="M17,23a2,2,0,0,1,2,2,1,1,0,0,0,1,1h3a1,1,0,0,0,1-1,7.01,7.01,0,0,0-5-6.7V16a1,1,0,0,0-1-1H16a1,1,0,0,0-1,1v2.3A7,7,0,0,0,17,32a2,2,0,1,1-2,2,1,1,0,0,0-1-1H11a1,1,0,0,0-1,1,7.01,7.01,0,0,0,5,6.7V43a1,1,0,0,0,1,1h2a1,1,0,0,0,1-1v-2.3A7,7,0,0,0,17,27a2,2,0,0,1,0-4Zm0,6a5,5,0,1,1-4.9,6h1.025A4,4,0,1,0,17,30a5,5,0,1,1,4.9-6H20.874A4,4,0,1,0,17,29Z"></path><path d="M50,26H34a2,2,0,0,0-2,2v4a2,2,0,0,0,2,2H50a2,2,0,0,0,2-2V28A2,2,0,0,0,50,26ZM34,32V28H50v4Z"></path><rect x="35" y="48" width="6" height="2"></rect><polygon points="37 44 39 44 39 42 41 42 41 40 39 40 39 38 37 38 37 40 35 40 35 42 37 42 37 44"></polygon><path d="M50,35H34a2,2,0,0,0-2,2V51a2,2,0,0,0,2,2H50a2,2,0,0,0,2-2V37A2,2,0,0,0,50,35Zm-8,2v8H34V37ZM34,47h8v4H34Zm10,4V37h6V51Z"></path><rect x="45" y="45" width="4" height="2"></rect><rect x="45" y="42" width="4" height="2"></rect><rect x="42" y="29" width="2" height="2"></rect><rect x="46" y="29" width="2" height="2"></rect></g></svg>