<svg xmlns="http://www.w3.org/2000/svg" viewBox="0 0 64 64" x="0px" y="0px"><title>Weather</title><g><path d="M62,45a14.085,14.085,0,0,0-8.8-13A10.98,10.98,0,0,0,35.6,18.932,15.985,15.985,0,0,0,12,33a16.421,16.421,0,0,0,.139,2.142,11.994,11.994,0,0,0,.442,23.76A1,1,0,0,0,13,59H49a.989.989,0,0,0,.4-.083A14.048,14.048,0,0,0,62,45ZM44,17a9,9,0,0,1,7.285,14.283c-.045-.112-.1-.219-.146-.329s-.091-.216-.142-.32-.116-.224-.175-.336-.119-.23-.184-.342c-.052-.089-.109-.174-.164-.261-.079-.129-.158-.259-.243-.383-.038-.054-.079-.105-.118-.159-.108-.152-.217-.3-.334-.447l-.016-.019a9.921,9.921,0,0,0-6.2-3.565l-.045-.008c-.2-.029-.392-.049-.589-.067-.065-.006-.128-.015-.193-.019-.153-.011-.308-.014-.463-.018-.091,0-.18-.01-.271-.01h-.146a16.388,16.388,0,0,0-1.028-1.546c-.124-.166-.262-.319-.392-.48-.259-.321-.523-.638-.806-.938-.164-.174-.337-.338-.508-.5-.276-.268-.559-.528-.854-.776-.188-.157-.378-.31-.573-.459-.131-.1-.251-.212-.384-.308A8.994,8.994,0,0,1,44,17Zm4.908,39.964c-.3.027-.6.036-.908.036H14c-.309,0-.608-.019-.908-.046h0a10,10,0,0,1,.273-19.936,1.009,1.009,0,0,0,.733-.391,1,1,0,0,0,.184-.81A14,14,0,0,1,40.4,26.5a.982.982,0,0,0,.969.529Q41.682,27,42,27a7.972,7.972,0,0,1,7.618,5.556,1,1,0,0,0,.755.674c.321.065.633.138.949.231a12,12,0,0,1-2.414,23.5Z"></path><rect x="43" y="9" width="2" height="4"></rect><rect x="32.394" y="13.394" width="2" height="4" transform="translate(-1.104 28.121) rotate(-45)"></rect><rect x="57" y="25" width="4" height="2"></rect><rect x="52.607" y="14.394" width="4" height="2" transform="translate(5.109 43.121) rotate(-45)"></rect></g></svg>