<svg xmlns="http://www.w3.org/2000/svg" viewBox="0 0 64 64" x="0px" y="0px"><path d="M15,60H49a1,1,0,0,0,1-1V11a1,1,0,0,0-1-1H43v5a1,1,0,0,1-1,1H22a1,1,0,0,1-1-1V10H15a1,1,0,0,0-1,1V59A1,1,0,0,0,15,60Zm13-4H22V54h6Zm-2-4V50H42v2Zm20,4H30V54H46Zm0-4H44V50h2Zm0-8H42V42h4Zm0-4H30V38H46ZM28,42H40v2H28Zm-2-2V38h2v2Zm2-4V34h4v2Zm18,0H34V34H46Zm0-8H22V26H46ZM30,24V22H40v2Zm16,0H42V22h4ZM26,18H46v2H26Zm-8,0h6v2H18Zm0,4H28v2H18Zm0,4h2v2H18Zm0,4H46v2H18Zm0,4h8v2H18Zm0,4h6v2H18Zm0,4h8v2H18Zm0,4H46v2H18Zm0,4h6v2H18Zm0,4h2v2H18Z"></path><rect x="29" y="4" width="6" height="2"></rect><rect x="23" y="8" width="18" height="6"></rect></svg>