<svg xmlns="http://www.w3.org/2000/svg" viewBox="0 0 64 64" x="0px" y="0px"><g data-name="Human Mind-Percentage"><path d="M61.941,28.486a19.119,19.119,0,0,0-14.72-17.02l-.442,1.951A17.1,17.1,0,0,1,59.947,28.641a16.905,16.905,0,0,1-5.614,14.024A1,1,0,0,0,54,43.41V60H34V51a1,1,0,0,0-1-1H27a3,3,0,0,1-3-3V40a1,1,0,0,0-1-1H19.081l6.7-8.375A1,1,0,0,0,26,30a17.211,17.211,0,0,1,.1-1.89l-1.988-.22c-.064.578-.1,1.167-.113,1.755L17.519,37.75A2,2,0,0,0,19.081,41H22v6a5.006,5.006,0,0,0,5,5h5v9a1,1,0,0,0,1,1H55a1,1,0,0,0,1-1V43.851A18.888,18.888,0,0,0,61.941,28.486Z"></path><path d="M19,51a1,1,0,0,0-1-1H12a3,3,0,0,1-3-3V40a1,1,0,0,0-1-1H4.081l6.7-8.375A1,1,0,0,0,11,30a16.9,16.9,0,0,1,6.612-13.457l-1.224-1.582A18.88,18.88,0,0,0,9,29.645L2.519,37.75A2,2,0,0,0,4.081,41H7v6a5.006,5.006,0,0,0,5,5h5v9a1,1,0,0,0,1,1H30V60H19Z"></path><rect x="23.515" y="14" width="16.971" height="2" transform="translate(-1.234 27.021) rotate(-45)"></rect><path d="M36,16a3,3,0,1,0,3,3A3,3,0,0,0,36,16Zm0,4a1,1,0,1,1,1-1A1,1,0,0,1,36,20Z"></path><path d="M28,14a3,3,0,1,0-3-3A3,3,0,0,0,28,14Zm0-4a1,1,0,1,1-1,1A1,1,0,0,1,28,10Z"></path><path d="M32,28A13,13,0,1,0,19,15,13.015,13.015,0,0,0,32,28ZM32,4A11,11,0,1,1,21,15,11.013,11.013,0,0,1,32,4Z"></path></g></svg>