<svg xmlns="http://www.w3.org/2000/svg" viewBox="0 0 64 64" x="0px" y="0px"><g data-name="Nuclear Plant"><path d="M17,8a1,1,0,0,1,1-1h4a3,3,0,0,0,3-3V2H23V4a1,1,0,0,1-1,1H18a3,3,0,0,0-3,3v2h2Z"></path><path d="M21,11v2h2V11a1,1,0,0,1,1-1h4a3,3,0,0,0,3-3V5H29V7a1,1,0,0,1-1,1H24A3,3,0,0,0,21,11Z"></path><path d="M42,13a1,1,0,0,1,1-1h4a3,3,0,0,0,3-3V7H48V9a1,1,0,0,1-1,1H43a3,3,0,0,0-3,3v2h2Z"></path><path d="M46,16v2h2V16a1,1,0,0,1,1-1h4a3,3,0,0,0,3-3V10H54v2a1,1,0,0,1-1,1H49A3,3,0,0,0,46,16Z"></path><path d="M18.243,51.172l-1.435,1.434a7.014,7.014,0,0,0,8.384,0l-1.435-1.434A5.023,5.023,0,0,1,18.243,51.172Z"></path><path d="M58,60V53.123L52.03,29.242A.984.984,0,0,1,52,29V22H38v7a1,1,0,0,1-.03.243L35.307,39.884,37.979,52.8A.992.992,0,0,1,38,53v7Z"></path><path d="M17.541,40.818l-.525-1.959a7.016,7.016,0,0,0-4.192,7.261l1.96-.525A5.02,5.02,0,0,1,17.541,40.818Z"></path><path d="M30,24V17H12v7a.976.976,0,0,1-.021.2L6,53.1V60H36V53.1L30.021,24.2A.976.976,0,0,1,30,24ZM12.047,48.363a1,1,0,0,1-.965-.741A9.009,9.009,0,0,1,17.446,36.6a1,1,0,0,1,1.224.707l1.036,3.863A1,1,0,0,1,19,42.4a3,3,0,0,0-2.122,3.674,1,1,0,0,1-.707,1.225l-3.863,1.035A.973.973,0,0,1,12.047,48.363ZM21,44a2,2,0,1,1-2,2A2,2,0,0,1,21,44Zm6.364,9.364a9.01,9.01,0,0,1-12.728,0,1,1,0,0,1,0-1.414l2.828-2.829a1.029,1.029,0,0,1,1.414,0,3.074,3.074,0,0,0,4.244,0,1,1,0,0,1,1.414,0l2.828,2.829A1,1,0,0,1,27.364,53.364Zm3.554-5.742a1,1,0,0,1-.965.741.973.973,0,0,1-.26-.034L25.83,47.294a1,1,0,0,1-.707-1.225A3,3,0,0,0,23,42.4a1,1,0,0,1-.707-1.225l1.036-3.863a1,1,0,0,1,1.224-.707A9.009,9.009,0,0,1,30.918,47.622Z"></path><path d="M24.984,38.859l-.525,1.959A5.02,5.02,0,0,1,27.216,45.6l1.96.525A7.016,7.016,0,0,0,24.984,38.859Z"></path><rect x="54" y="6" width="2" height="2"></rect><rect x="48" y="3" width="2" height="2"></rect></g></svg>