<svg xmlns="http://www.w3.org/2000/svg" data-name="Loan-Real estate-Growth up" viewBox="0 0 64 64" x="0px" y="0px"><path d="M61.2,12.214,57,8.874V3a1,1,0,0,0-1-1H53a1,1,0,0,0-1,1V4.9l-2.756-2.19a1.994,1.994,0,0,0-2.488,0l-11.913,9.47a2.785,2.785,0,1,0,3.264,4.513L40,15.27V25a2,2,0,0,0,2,2H54a2,2,0,0,0,2-2V15.271L57.9,16.7a2.785,2.785,0,0,0,3.3-4.488ZM54,4h1V7.285L54,6.49ZM46,25V21h4v4Zm8,0H52V20a1,1,0,0,0-1-1H45a1,1,0,0,0-1,1v5H42V13.766l6-4.515,6,4.515Zm6.2-10.108A.787.787,0,0,1,59.1,15.1L48.6,7.2a1,1,0,0,0-1.2,0L36.914,15.089a.786.786,0,0,1-1.118-.2.8.8,0,0,1,.246-1.112L48,4.277h0l12,9.536A.784.784,0,0,1,60.2,14.892Z"></path><path d="M45,14a3,3,0,1,0,3-3A3,3,0,0,0,45,14Zm4,0a1,1,0,1,1-1-1A1,1,0,0,1,49,14Z"></path><path d="M34.973,52.264A1.92,1.92,0,0,0,35,52V50a1.978,1.978,0,0,0-.278-1A1.978,1.978,0,0,0,35,48V46a1.978,1.978,0,0,0-.278-1A1.978,1.978,0,0,0,35,44V42a2,2,0,0,0-2-2H23a2,2,0,0,0-2,2v2a1.978,1.978,0,0,0,.278,1A1.978,1.978,0,0,0,21,46v2a1.978,1.978,0,0,0,.278,1A1.978,1.978,0,0,0,21,50v2a1.993,1.993,0,0,0,1.027,1.736A1.92,1.92,0,0,0,22,54v2a1.92,1.92,0,0,0,.027.264A1.993,1.993,0,0,0,21,58v2a2,2,0,0,0,2,2H33a2,2,0,0,0,2-2V58a1.92,1.92,0,0,0-.027-.264A1.993,1.993,0,0,0,36,56V54A1.993,1.993,0,0,0,34.973,52.264ZM34,54v2H24l0-2H34ZM23,52l0-2H33v2H23Zm0-6H33v2H23Zm0-4H33v2H23l0-2ZM33,60H23l0-2H33Z"></path><path d="M15.973,52.264A1.92,1.92,0,0,0,16,52V50a2,2,0,0,0-2-2H4a2,2,0,0,0-2,2v2a1.993,1.993,0,0,0,1.027,1.736A1.92,1.92,0,0,0,3,54v2a1.92,1.92,0,0,0,.027.264A1.993,1.993,0,0,0,2,58v2a2,2,0,0,0,2,2H14a2,2,0,0,0,2-2V58a1.92,1.92,0,0,0-.027-.264A1.993,1.993,0,0,0,17,56V54A1.993,1.993,0,0,0,15.973,52.264ZM15,54v2H5l0-2H15ZM4,50H14v2H4l0-2ZM14,60H4l0-2H14Z"></path><path d="M53,32H43a2,2,0,0,0-2,2v2a1.92,1.92,0,0,0,.027.264A1.993,1.993,0,0,0,40,38v2a1.993,1.993,0,0,0,1.027,1.736A1.92,1.92,0,0,0,41,42v2a1.978,1.978,0,0,0,.278,1A1.978,1.978,0,0,0,41,46v2a1.92,1.92,0,0,0,.027.264A1.993,1.993,0,0,0,40,50v2a1.993,1.993,0,0,0,1.027,1.736A1.92,1.92,0,0,0,41,54v2a1.92,1.92,0,0,0,.027.264A1.993,1.993,0,0,0,40,58v2a2,2,0,0,0,2,2H52a2,2,0,0,0,2-2V58a1.92,1.92,0,0,0-.027-.264A1.993,1.993,0,0,0,55,56V54a1.993,1.993,0,0,0-1.027-1.736A1.92,1.92,0,0,0,54,52V50a1.92,1.92,0,0,0-.027-.264A1.993,1.993,0,0,0,55,48V46a1.978,1.978,0,0,0-.278-1A1.978,1.978,0,0,0,55,44V42a1.993,1.993,0,0,0-1.027-1.736A1.92,1.92,0,0,0,54,40V38a1.92,1.92,0,0,0-.027-.264A1.993,1.993,0,0,0,55,36V34A2,2,0,0,0,53,32ZM43,34H53v2H43l0-2Zm9,6H42l0-2H52Zm1,2v2H43l0-2H53Zm0,6H43l0-2H53Zm-1,4H42l0-2H52Zm1,2v2H43l0-2H53Zm-1,6H42l0-2H52Z"></path><path d="M22,24h2v9h2V23a1,1,0,0,0-1-1h-.586L28,18.414,31.586,22H31a1,1,0,0,0-1,1V33h2V24h2a1,1,0,0,0,.707-1.707l-6-6a1,1,0,0,0-1.414,0l-6,6A1,1,0,0,0,22,24Z"></path><path d="M3,39H5v7H7V38a1,1,0,0,0-1-1H5.414L9,33.414,12.586,37H12a1,1,0,0,0-1,1v8h2V39h2a1,1,0,0,0,.707-1.707l-6-6a1,1,0,0,0-1.414,0l-6,6A1,1,0,0,0,3,39Z"></path><rect x="24" y="35" width="2" height="2"></rect><rect x="30" y="36" width="2" height="2"></rect></svg>