<svg xmlns="http://www.w3.org/2000/svg" viewBox="0 0 64 64" x="0px" y="0px"><g data-name="Van"><rect x="14" y="20" width="8" height="12"></rect><rect x="28" y="20" width="6" height="28"></rect><path d="M49,44a5,5,0,1,0,5,5A5.006,5.006,0,0,0,49,44Zm1,6H48V48h2Z"></path><path d="M55.92,48H59a1,1,0,0,0,1-1V46H57V44h3V42H57a3,3,0,0,1,0-6h3V34H40V48h2.08a6.991,6.991,0,0,1,13.84,0ZM46,38H42V36h4Z"></path><path d="M47,18h6V17a5.006,5.006,0,0,0-5-5H19A11.058,11.058,0,0,0,8.44,19.92L4.6,33.086a15.009,15.009,0,0,0-.6,4.2V44H7v2H4.184A3,3,0,0,0,7,48H8.08a6.991,6.991,0,0,1,13.84,0H26V19a1,1,0,0,1,1-1h8a1,1,0,0,1,1,1V48h2V21a3,3,0,0,1,3-3ZM24,33a1,1,0,0,1-1,1H13a1,1,0,0,1-1-1V19a1,1,0,0,1,1-1H23a1,1,0,0,1,1,1Z"></path><path d="M15,44a5,5,0,1,0,5,5A5.006,5.006,0,0,0,15,44Zm1,6H14V48h2Z"></path><path d="M40,21V32H58.586l-12-12H41A1,1,0,0,0,40,21Z"></path><path d="M56,39a1,1,0,0,0,1,1h3V38H57A1,1,0,0,0,56,39Z"></path></g></svg>