<svg xmlns="http://www.w3.org/2000/svg" viewBox="0 0 64 64" x="0px" y="0px"><g data-name="Washing Machine"><path d="M49,14H37.444a3.934,3.934,0,0,0-.132-4.239A3.99,3.99,0,0,0,36,2H22a4,4,0,0,0-4,4,3.959,3.959,0,0,0,.556,2H18a4,4,0,0,0-4,4,3.953,3.953,0,0,0,.58,2.042A4.991,4.991,0,0,0,10,19V57a5.006,5.006,0,0,0,5,5H49a5.006,5.006,0,0,0,5-5V19A5.006,5.006,0,0,0,49,14ZM22,4H32.5a.5.5,0,0,1,0,1H24V7h8.5a2.5,2.5,0,0,0,2.449-3H36a2,2,0,0,1,0,4H22a2,2,0,0,1,0-4Zm-4,6H30.5a.5.5,0,0,1,0,1H20v2H30.5a2.5,2.5,0,0,0,2.449-3H34a2,2,0,0,1,0,4H18a2,2,0,0,1,0-4Zm6,6v2H20V16ZM12,19a3,3,0,0,1,3-3h3v2a2,2,0,0,0,2,2h4a2,2,0,0,0,2-2V16h5v6H12ZM49,60H15a3,3,0,0,1-2.816-2H51.816A3,3,0,0,1,49,60Zm3-4H12V24H52Zm0-34H33V16H49a3,3,0,0,1,3,3Z"></path><path d="M32,54A14,14,0,1,0,18,40,14.015,14.015,0,0,0,32,54ZM44,40a11.986,11.986,0,0,1-.181,2H38V38h5.819A11.986,11.986,0,0,1,44,40Zm-6,4h.909a8,8,0,1,1,0-8H38a2,2,0,0,0-2,2v4A2,2,0,0,0,38,44ZM32,28a12.01,12.01,0,0,1,11.3,8H41.158a10,10,0,1,0,0,8H43.3A11.994,11.994,0,1,1,32,28Z"></path><rect x="37" y="18" width="2" height="2"></rect><rect x="41" y="18" width="2" height="2"></rect><rect x="45" y="18" width="2" height="2"></rect></g></svg>