<svg xmlns="http://www.w3.org/2000/svg" viewBox="0 0 64 64" x="0px" y="0px"><g><path d="M57,2H7A5,5,0,0,0,2,7V57a5,5,0,0,0,5,5H61a1,1,0,0,0,1-1V7A5,5,0,0,0,57,2ZM38,50V60H36V50.71a3,3,0,0,1,1.88-2.79l4.15-1.66L42.38,48H40A2.006,2.006,0,0,0,38,50ZM56,60H40V50H56ZM44,31h8a1,1,0,0,1,1,1v4a5,5,0,0,1-10,0V32A1,1,0,0,1,44,31Zm-1-1.82V28a2.006,2.006,0,0,1,2-2h8v2a1,1,0,0,1-1,1H44A3,3,0,0,0,43,29.18Zm8.04,15.69.9,1.34L51.58,48H49.66l-.34-.26ZM48,46.06l-2-3.34v-.01a7.042,7.042,0,0,0,4,0v.01Zm-3.04-1.19,1.72,2.87-.34.26H44.42l-.36-1.79ZM60,60H58V50a2.006,2.006,0,0,0-2-2H53.62l.35-1.74,4.15,1.66A3,3,0,0,1,60,50.71Zm0-13.28a5.141,5.141,0,0,0-1.14-.66l-6.29-2.51L52,42.7v-.96A7.007,7.007,0,0,0,54.92,37H55a3,3,0,0,0,0-6h-.18a3.174,3.174,0,0,0-.6-1A2.974,2.974,0,0,0,55,28V25a1,1,0,0,0-1-1H45a4,4,0,0,0-4,4v3a3,3,0,0,0,0,6h.08A7.007,7.007,0,0,0,44,41.74v.96l-.57.85-6.29,2.51A5,5,0,0,0,34,50.71V60H7a3.009,3.009,0,0,1-3-3V11.96H60ZM55,35V33a1,1,0,0,1,0,2ZM41,33v2a1,1,0,0,1,0-2ZM60,9.96H4V7A3.009,3.009,0,0,1,7,4H57a3.009,3.009,0,0,1,3,3Z"></path><rect x="8" y="6" width="2" height="2"></rect><rect x="12" y="6" width="2" height="2"></rect><rect x="16" y="6" width="2" height="2"></rect><path d="M50.5,38.33l-1-1.73a3.057,3.057,0,0,1-3,0l-1,1.73a5.007,5.007,0,0,0,5,0Z"></path><path d="M48,52a3,3,0,1,0,3,3A3,3,0,0,0,48,52Zm0,4a1,1,0,1,1,1-1A1,1,0,0,1,48,56Z"></path><rect x="11" y="30" width="2" height="2"></rect><rect x="15" y="31" width="2" height="2"></rect><rect x="11" y="37" width="2" height="2"></rect><rect x="15" y="38" width="2" height="2"></rect><rect x="14" y="23" width="12" height="2"></rect><path d="M20,18c-6.84,0-12,2.58-12,6V38c0,3.42,5.16,6,12,6s12-2.58,12-6V24C32,20.58,26.84,18,20,18ZM30,38c0,1.89-4.28,4-10,4s-10-2.11-10-4V34.41C12.11,35.99,15.73,37,20,37s7.89-1.01,10-2.59Zm0-7c0,1.89-4.28,4-10,4s-10-2.11-10-4V27.41C12.11,28.99,15.73,30,20,30s7.89-1.01,10-2.59ZM20,28c-5.72,0-10-2.11-10-4s4.28-4,10-4,10,2.11,10,4S25.72,28,20,28Z"></path></g></svg>