<svg xmlns="http://www.w3.org/2000/svg" viewBox="0 0 64 64" x="0px" y="0px"><title>Ocaen liner</title><g data-name="Ocaen liner"><path d="M61,21a1,1,0,0,0,1-1V15a1,1,0,0,0-1-1H56V7a1,1,0,0,0-1-1H49a1,1,0,0,0-1,1v7H22a1,1,0,0,0-1,1v5a1,1,0,0,0,1,1h4V39H24.535l-3.7-5.555A1,1,0,0,0,20,33H3a1,1,0,0,0-.874,1.485L12.05,52.35l.665,3.325a2.884,2.884,0,0,1-.962-.713,1.034,1.034,0,0,0-1.506,0,3.017,3.017,0,0,1-4.494,0,1.034,1.034,0,0,0-1.506,0A2.955,2.955,0,0,1,2,56v2a4.957,4.957,0,0,0,3-1.019,5.068,5.068,0,0,0,6,0,5.068,5.068,0,0,0,6,0,5.068,5.068,0,0,0,6,0,5.068,5.068,0,0,0,6,0,5.068,5.068,0,0,0,6,0,5.068,5.068,0,0,0,6,0,5.068,5.068,0,0,0,6,0,5.068,5.068,0,0,0,6,0,5.068,5.068,0,0,0,6,0A4.957,4.957,0,0,0,62,58V40a1,1,0,0,0-1-1H58V21ZM54,8V9H50V8Zm-4,3h4v3H50ZM23,16H60v3H23ZM19.465,35,20.8,37H5.811L4.7,35ZM59.753,54.962a1.034,1.034,0,0,0-1.506,0,3.017,3.017,0,0,1-4.494,0,1.034,1.034,0,0,0-1.506,0,3.017,3.017,0,0,1-4.494,0,1.034,1.034,0,0,0-1.506,0,3.017,3.017,0,0,1-4.494,0,1.034,1.034,0,0,0-1.506,0,3.017,3.017,0,0,1-4.494,0,1.034,1.034,0,0,0-1.506,0,3.017,3.017,0,0,1-4.494,0,1.034,1.034,0,0,0-1.506,0,3.017,3.017,0,0,1-4.494,0,1.034,1.034,0,0,0-1.506,0,3.017,3.017,0,0,1-4.494,0,1.034,1.034,0,0,0-1.506,0,2.91,2.91,0,0,1-1.458.887L14.22,53H60v2.192A2.964,2.964,0,0,1,59.753,54.962ZM60,51H13.588L6.922,39h15.21l1.036,1.555A1,1,0,0,0,24,41H60ZM56,39H28V21H56Z"></path><rect x="31" y="23" width="2" height="2"></rect><rect x="35" y="23" width="2" height="2"></rect><rect x="39" y="23" width="2" height="2"></rect><rect x="43" y="23" width="2" height="2"></rect><rect x="47" y="23" width="2" height="2"></rect><rect x="51" y="23" width="2" height="2"></rect><rect x="31" y="27" width="2" height="2"></rect><rect x="35" y="27" width="2" height="2"></rect><rect x="39" y="27" width="2" height="2"></rect><rect x="43" y="27" width="2" height="2"></rect><rect x="47" y="27" width="2" height="2"></rect><rect x="51" y="27" width="2" height="2"></rect><rect x="31" y="31" width="2" height="2"></rect><rect x="35" y="31" width="2" height="2"></rect><rect x="39" y="31" width="2" height="2"></rect><rect x="43" y="31" width="2" height="2"></rect><rect x="47" y="31" width="2" height="2"></rect><rect x="51" y="31" width="2" height="2"></rect><rect x="31" y="35" width="2" height="2"></rect><rect x="35" y="35" width="2" height="2"></rect><rect x="39" y="35" width="2" height="2"></rect><rect x="43" y="35" width="2" height="2"></rect><rect x="47" y="35" width="2" height="2"></rect><rect x="51" y="35" width="2" height="2"></rect><rect x="23" y="43" width="2" height="2"></rect><rect x="27" y="43" width="2" height="2"></rect><rect x="31" y="43" width="2" height="2"></rect><rect x="35" y="43" width="2" height="2"></rect><rect x="39" y="43" width="2" height="2"></rect><rect x="43" y="43" width="2" height="2"></rect><rect x="47" y="43" width="2" height="2"></rect><rect x="51" y="43" width="2" height="2"></rect><rect x="55" y="43" width="2" height="2"></rect></g></svg>