<svg xmlns="http://www.w3.org/2000/svg" viewBox="0 0 64 64" x="0px" y="0px"><g data-name="Work From Home-Sofa-Living Room-Laptop-Working"><path d="M19,39a1,1,0,0,0,1,1H44a1,1,0,0,0,1-1V38H19Z"></path><rect x="9" y="58" width="2" height="2"></rect><path d="M59,53V38.19a5.961,5.961,0,0,1-6,0v1.99A3.01,3.01,0,0,1,55,43v6a3.009,3.009,0,0,1-3,3H12a3.009,3.009,0,0,1-3-3V43a3.01,3.01,0,0,1,2-2.82V38.19a5.961,5.961,0,0,1-6,0V53a3.009,3.009,0,0,0,3,3H56A3.009,3.009,0,0,0,59,53Z"></path><path d="M42,22H22a1,1,0,0,0-1,1V36H43V23A1,1,0,0,0,42,22ZM29,30H27V28h2Zm4,0H31V28h2Zm4,0H35V28h2Z"></path><rect x="53" y="58" width="2" height="2"></rect><path d="M9,27.09a5.989,5.989,0,0,1,4,9.22V40h4.18A3,3,0,0,1,17,39V37a1,1,0,0,1,1-1h1V23a3.009,3.009,0,0,1,3-3H42a3.009,3.009,0,0,1,3,3V36h1a1,1,0,0,1,1,1v2a3,3,0,0,1-.18,1H51V36.31a5.989,5.989,0,0,1,4-9.22V21a5,5,0,0,0-5-5H14a5,5,0,0,0-5,5Z"></path><path d="M56,29a4,4,0,1,0,4,4A4,4,0,0,0,56,29Zm1,5H55V32h2Z"></path><rect x="11" y="42" width="42" height="8" rx="1"></rect><path d="M4,33a4,4,0,1,0,4-4A4,4,0,0,0,4,33Zm5,1H7V32H9Z"></path></g></svg>