<svg xmlns="http://www.w3.org/2000/svg" viewBox="0 0 64 64" x="0px" y="0px"><g><path d="M13,44a3,3,0,1,0-3-3A3,3,0,0,0,13,44Zm0-4a1,1,0,1,1-1,1A1,1,0,0,1,13,40Z"></path><path d="M41,44a3,3,0,1,0-3-3A3,3,0,0,0,41,44Zm0-4a1,1,0,1,1-1,1A1,1,0,0,1,41,40Z"></path><rect x="20" y="42" width="14" height="2"></rect><rect x="20" y="38" width="14" height="2"></rect><path d="M44,13a5,5,0,1,0,5,5A5.006,5.006,0,0,0,44,13Zm0,8a3,3,0,1,1,3-3A3,3,0,0,1,44,21Z"></path><path d="M59,4H29a3,3,0,0,0-3,3v9H12a1,1,0,0,0-.986.835L8.153,34H6a1,1,0,0,0-1,1V46H3a1,1,0,0,0-1,1v6a1,1,0,0,0,1,1H6v5a1,1,0,0,0,1,1h8a1,1,0,0,0,1-1V54H38v5a1,1,0,0,0,1,1h8a1,1,0,0,0,1-1V54h3a1,1,0,0,0,1-1V47a1,1,0,0,0-1-1H49V35a1,1,0,0,0-1-1H45.847l-1-6H59a3,3,0,0,0,3-3V7A3,3,0,0,0,59,4ZM29,6H59a1,1,0,0,1,1,1V8.184A2.966,2.966,0,0,0,59,8H29a2.966,2.966,0,0,0-1,.184V7A1,1,0,0,1,29,6ZM26,18v2H12.513l.334-2ZM14,58H8V54h6Zm32,0H40V54h6Zm4-6H4V48H50Zm-3-6H7V36H47ZM43.82,34H10.18l2-12H26v3a3,3,0,0,0,3,3H42.823ZM60,25a1,1,0,0,1-1,1H29a1,1,0,0,1-1-1V11a1,1,0,0,1,1-1H59a1,1,0,0,1,1,1Z"></path><path d="M30,13v3h2V14h2V12H31A1,1,0,0,0,30,13Z"></path><path d="M57,12H54v2h2v2h2V13A1,1,0,0,0,57,12Z"></path><path d="M32,20H30v3a1,1,0,0,0,1,1h3V22H32Z"></path><path d="M56,22H54v2h3a1,1,0,0,0,1-1V20H56Z"></path><rect x="51" y="17" width="2" height="2"></rect><rect x="35" y="17" width="2" height="2"></rect></g></svg>