<svg xmlns="http://www.w3.org/2000/svg" viewBox="0 0 64 64" x="0px" y="0px"><g><path d="M32,27a3,3,0,0,0-3,3c0,1.051,1.583,3.107,3,4.587,1.416-1.481,3-3.538,3-4.587A3,3,0,0,0,32,27Zm1,4H31V29h2Z"></path><path d="M32,22a9,9,0,1,0,9,9A9.01,9.01,0,0,0,32,22Zm.687,14.726a1,1,0,0,1-1.375,0C30.592,36.043,27,32.512,27,30a5,5,0,0,1,10,0C37,32.512,33.408,36.043,32.687,36.726Z"></path><path d="M49,12H15V44.66l2.44-4.22a3.948,3.948,0,0,1,2.43-1.87,4,4,0,0,1,4.5,5.87l-3.26,5.64L21.88,52H49ZM19,23H17V21h2Zm0-7v3H17V15a1,1,0,0,1,1-1h4v2ZM32,42A11,11,0,1,1,43,31,11.013,11.013,0,0,1,32,42Z"></path><path d="M49,9a5,5,0,0,0-5-5H20a5,5,0,0,0-5,5v1H49ZM27,8H25V6h2Zm8,0H29V6h6Z"></path><path d="M21,58.23v-1.3a9.149,9.149,0,0,0-.64-3.35l-1.29-3.21a1.023,1.023,0,0,1,.06-.87l3.5-6.06a2,2,0,1,0-3.46-2l-5,8.66-1.73-1,.56-.98V35.15l-4.51,7.8a14.956,14.956,0,0,0-1.92,9.16L7.561,61h13A8.945,8.945,0,0,0,21,58.23Z"></path><path d="M49,54H22.6a11.075,11.075,0,0,1,.4,2.93v1.3A11.529,11.529,0,0,1,22.85,60H44a5,5,0,0,0,5-5ZM34,58H30V56h4Z"></path></g></svg>