<svg xmlns="http://www.w3.org/2000/svg" viewBox="0 0 64 64" x="0px" y="0px"><g data-name="Contract"><path d="M40.371,52.929l5-2a1,1,0,0,0,0-1.858l-5-2A1,1,0,0,0,40,47H8a3,3,0,0,0,0,6H40A1,1,0,0,0,40.371,52.929ZM38,51H11V49H38Zm4.308-1L40,50.923V49.077ZM7,50a1,1,0,0,1,1-1H9v2H8A1,1,0,0,1,7,50Z"></path><path d="M58.744,12.362l-9-10.03A1,1,0,0,0,49,2H20a3,3,0,0,0-3,3V6H16a3,3,0,0,0-3,3V45h2V9a1,1,0,0,1,1-1h1V45h2V5a1,1,0,0,1,1-1H48v7a3,3,0,0,0,3,3h6V55a1,1,0,0,1-1,1H20a1,1,0,0,1-1-1H17a3,3,0,0,0,3,3H54v1a1,1,0,0,1-1,1H16a1,1,0,0,1-1-1V55H13v4a3,3,0,0,0,3,3H53a3,3,0,0,0,3-3V58a3,3,0,0,0,3-3V13.03A1,1,0,0,0,58.744,12.362ZM50,11V5.615L55.732,12H51A1,1,0,0,1,50,11Z"></path><rect x="23" y="8" width="2" height="2"></rect><rect x="27" y="8" width="8" height="2"></rect><rect x="23" y="12" width="12" height="2"></rect><rect x="23" y="20" width="4" height="2"></rect><rect x="29" y="20" width="24" height="2"></rect><rect x="23" y="26" width="30" height="2"></rect><rect x="23" y="32" width="30" height="2"></rect><rect x="23" y="38" width="30" height="2"></rect><rect x="45" y="44" width="8" height="2"></rect></g></svg>