<svg xmlns="http://www.w3.org/2000/svg" viewBox="0 0 64 64" x="0px" y="0px"><g><polygon points="4 18 4 23.997 12.553 23.967 6.586 18 4 18"></polygon><path d="M60,37V32H49a1,1,0,0,1-1-1V26H4v5.383L17.172,38H59A1,1,0,0,0,60,37ZM17,30H15V28h2Zm4,0H19V28h2Zm4,0H23V28h2Zm4,0H27V28h2Zm4,0H31V28h2Zm4,0H35V28h2Zm4,0H39V28h2Zm4,0H43V28h2Z"></path><polygon points="41.837 40 33.521 40 20.92 58 26.538 58 41.837 40"></polygon><polygon points="50 30 56.724 30 50 26.672 50 30"></polygon><polygon points="20.92 6 33.521 24 41.837 24 26.538 6 20.92 6"></polygon><rect x="8" y="4" width="8" height="2"></rect><rect x="4" y="4" width="2" height="2"></rect><rect x="10" y="8" width="8" height="2"></rect><rect x="6" y="8" width="2" height="2"></rect><rect x="12" y="12" width="8" height="2"></rect><rect x="8" y="12" width="2" height="2"></rect><rect x="8" y="58" width="8" height="2"></rect><rect x="4" y="58" width="2" height="2"></rect><rect x="10" y="54" width="8" height="2"></rect><rect x="6" y="54" width="2" height="2"></rect><rect x="12" y="50" width="8" height="2"></rect><rect x="8" y="50" width="2" height="2"></rect></g></svg>