<svg xmlns="http://www.w3.org/2000/svg" viewBox="0 0 64 64" x="0px" y="0px"><g><path d="M39.64,43A4,4,0,0,0,37,36H27V32a4,4,0,0,0-4-4H20a1,1,0,0,0-1,1v7.5L15.67,39H14a1,1,0,0,0-1-1H3a1,1,0,0,0-1,1V61a1,1,0,0,0,1,1H13a1,1,0,0,0,1-1V60h.76l3.79,1.89A1,1,0,0,0,19,62H37a4,4,0,0,0,2.64-7,3.989,3.989,0,0,0,0-6,3.989,3.989,0,0,0,0-6ZM12,60H4V40h8ZM32,44h5a2,2,0,0,1,0,4H32a1,1,0,0,0,0,2h5a2,2,0,0,1,0,4H32a1,1,0,0,0,0,2h5a2,2,0,0,1,0,4H19.24l-3.79-1.89A1,1,0,0,0,15,58H14V41h2a.984.984,0,0,0,.6-.2l4-3A1.014,1.014,0,0,0,21,37V30h2a2.006,2.006,0,0,1,2,2v5a1,1,0,0,0,1,1H37a2,2,0,0,1,0,4H32a1,1,0,0,0,0,2Z"></path><path d="M61.95,13.68l-.99-2.96-.99-3.96A1,1,0,0,0,59,6H39a1,1,0,0,0-.97.76l-.99,3.96-.99,2.96A1.185,1.185,0,0,0,36,14a3.98,3.98,0,0,0,2,3.44V30a2.006,2.006,0,0,0,2,2H58a2.006,2.006,0,0,0,2-2V17.44A3.98,3.98,0,0,0,62,14,1.185,1.185,0,0,0,61.95,13.68ZM39.78,8H58.22l.5,2H39.28ZM54,12v2a2,2,0,0,1-4,0V12Zm-6,0v2a2,2,0,0,1-4,0V12Zm-9.99,2.15L38.72,12H42v2a2,2,0,0,1-3.99.15ZM51,30H47V24h4Zm7,0H53V23a1,1,0,0,0-1-1H46a1,1,0,0,0-1,1v7H40V18a3.967,3.967,0,0,0,3-1.38,3.951,3.951,0,0,0,6,0,3.951,3.951,0,0,0,6,0A3.967,3.967,0,0,0,58,18Zm0-14a2.006,2.006,0,0,1-2-2V12h3.28l.71,2.15A2,2,0,0,1,58,16Z"></path><path d="M17.747,18.617l.726.529L18.2,20a2,2,0,0,0,3.077,2.235L22,21.708l.727.527a1.969,1.969,0,0,0,2.351,0A1.969,1.969,0,0,0,25.8,20l-.277-.854.726-.529A2,2,0,0,0,25.078,15h-.9l-.278-.854a2,2,0,0,0-3.8,0L19.82,15h-.9a2,2,0,0,0-1.175,3.617ZM20.547,17a1,1,0,0,0,.951-.691l.5-1.557,0,.012.5,1.545a1,1,0,0,0,.951.691h1.625l-1.315.955a1,1,0,0,0-.363,1.117l.5,1.546-1.314-.955a1,1,0,0,0-1.176,0l-1.314.954.5-1.545a1,1,0,0,0-.363-1.117L18.922,17Z"></path><rect x="29" y="17" width="4" height="2"></rect><rect x="28.697" y="12" width="3.606" height="2" transform="translate(-2.089 19.102) rotate(-33.69)"></rect><rect x="29.5" y="21.197" width="2" height="3.606" transform="translate(-5.556 35.619) rotate(-56.31)"></rect><rect x="11" y="17" width="4" height="2"></rect><rect x="12.5" y="11.197" width="2" height="3.606" transform="translate(-4.805 17.022) rotate(-56.31)"></rect><rect x="11.697" y="22" width="3.606" height="2" transform="translate(-10.491 11.351) rotate(-33.69)"></rect></g></svg>