<svg xmlns="http://www.w3.org/2000/svg" viewBox="0 0 64 64" x="0px" y="0px"><g data-name="Mobile Phone-Conversation-Communications-Vintage-Telephone"><path d="M59,24H32V5a3.009,3.009,0,0,0-3-3H9A3.009,3.009,0,0,0,6,5V24H5a3.009,3.009,0,0,0-3,3V53a3.009,3.009,0,0,0,3,3H7.15l.86,5.16A1,1,0,0,0,9,62H55a1,1,0,0,0,.99-.84L56.85,56H59a3.009,3.009,0,0,0,3-3V27A3.009,3.009,0,0,0,59,24ZM8,5A1,1,0,0,1,9,4H29a1,1,0,0,1,1,1V47a1,1,0,0,1-1,1H9a1,1,0,0,1-1-1ZM54.15,60H9.85l-.67-4H54.82ZM60,53a1,1,0,0,1-1,1H5a1,1,0,0,1-1-1V27a1,1,0,0,1,1-1H6V47a3.009,3.009,0,0,0,3,3H29a3.009,3.009,0,0,0,3-3V26H59a1,1,0,0,1,1,1Z"></path><path d="M13,26H25a3,3,0,0,0,3-3V13a3,3,0,0,0-3-3H13a3,3,0,0,0-3,3V23A3,3,0,0,0,13,26ZM12,13a1,1,0,0,1,1-1H25a1,1,0,0,1,1,1V23a1,1,0,0,1-1,1H13a1,1,0,0,1-1-1Z"></path><path d="M21,28H17a1,1,0,0,0-1,1v4a1,1,0,0,0,1,1h4a1,1,0,0,0,1-1V29A1,1,0,0,0,21,28Zm-1,4H18V30h2Z"></path><rect x="24" y="28" width="4" height="2"></rect><rect x="24" y="32" width="4" height="2"></rect><rect x="10" y="28" width="4" height="2"></rect><rect x="10" y="32" width="4" height="2"></rect><rect x="17" y="36" width="4" height="2"></rect><rect x="11" y="36" width="4" height="2"></rect><rect x="23" y="36" width="4" height="2"></rect><rect x="17" y="40" width="4" height="2"></rect><rect x="11" y="40" width="4" height="2"></rect><rect x="23" y="40" width="4" height="2"></rect><rect x="17" y="44" width="4" height="2"></rect><rect x="11" y="44" width="4" height="2"></rect><rect x="23" y="44" width="4" height="2"></rect><rect x="44" y="40" width="4" height="2"></rect><rect x="38" y="40" width="4" height="2"></rect><rect x="50" y="40" width="4" height="2"></rect><rect x="44" y="44" width="4" height="2"></rect><rect x="38" y="44" width="4" height="2"></rect><rect x="50" y="44" width="4" height="2"></rect><rect x="44" y="48" width="4" height="2"></rect><rect x="38" y="48" width="4" height="2"></rect><rect x="50" y="48" width="4" height="2"></rect><rect x="16" y="6" width="6" height="2"></rect><path d="M16,16h3V14H15a1,1,0,0,0-1,1v4h2Z"></path><path d="M55,28H37a1,1,0,0,0-1,1v8a1,1,0,0,0,1,1H55a1,1,0,0,0,1-1V29A1,1,0,0,0,55,28Zm-1,8H38V30H54Z"></path></g></svg>