<svg xmlns="http://www.w3.org/2000/svg" viewBox="0 0 512 512" x="0px" y="0px"><g data-name="Wedding Certificate"><path d="M416,32a32.036,32.036,0,0,0-32,32v48h64V64A32.036,32.036,0,0,0,416,32Z"></path><path d="M216,180.687l62.226-62.226A24,24,0,1,0,244.284,84.52h0l-22.627,22.626a8,8,0,0,1-11.314,0L187.716,84.521a24,24,0,0,0-33.942,33.941Z"></path><path d="M368,64a47.8,47.8,0,0,1,12.262-32H88A24.028,24.028,0,0,0,64,56V456a24.028,24.028,0,0,0,24,24H344a24.028,24.028,0,0,0,24-24ZM142.461,73.206a40,40,0,0,1,56.569,0L216,90.177l16.971-16.971h0a40,40,0,1,1,56.569,56.568l-67.882,67.882a8,8,0,0,1-11.314,0l-67.882-67.882a40,40,0,0,1,0-56.569ZM325,440H96V424H325Zm0-48H96V376H325Zm0-48H96V328H325Zm0-48H96V280H325Zm0-48H96V232H325Z"></path></g></svg>