<svg xmlns="http://www.w3.org/2000/svg" viewBox="0 0 64 64" x="0px" y="0px"><g><path d="M57.833,44.4a4,4,0,0,0-5.126-2.391l-6.234,2.269a4.011,4.011,0,0,0-2.862-2.115l-13.591-2.4a.966.966,0,0,0-.514.045l-6.532,2.377-.342-.94a1,1,0,0,0-1.281-.6l-7.518,2.737a1,1,0,0,0-.6,1.281h0l-6.578,2.4a1,1,0,0,0-.6,1.281L10.849,61.5a1,1,0,0,0,.939.658.979.979,0,0,0,.342-.061L18.708,59.7h0a1,1,0,0,0,1.282.6l7.517-2.737a1,1,0,0,0,.6-1.281l-.342-.94.61-.222,5.734,1.937a1.011,1.011,0,0,0,.663-.008l20.673-7.525A4,4,0,0,0,57.833,44.4ZM18.024,57.822l-5.638,2.052L8.282,48.6l5.638-2.053Zm2.222.256L15.457,44.922,21.1,42.87l4.789,13.155ZM54.759,47.645l-20.344,7.4-5.734-1.937a1,1,0,0,0-.662.008l-.94.342-3.42-9.4,6.279-2.285,13.326,2.35A1.982,1.982,0,0,1,44.8,45.417a1.211,1.211,0,0,1,.069.249c0,.034.009.068.016.1a1.833,1.833,0,0,1,.008.678,2.009,2.009,0,0,1-2.319,1.627L31.312,46.087l-.347,1.97,11.259,1.985a4.01,4.01,0,0,0,4.636-3.258,4.113,4.113,0,0,0,.042-.537l6.489-2.362a2,2,0,0,1,1.368,3.76Z"></path><rect x="26" y="7" width="2" height="4"></rect><rect x="26" y="3" width="2" height="2"></rect><rect x="31" y="4" width="2" height="2"></rect><rect x="36" y="10" width="2" height="6"></rect><rect x="36" y="6" width="2" height="2"></rect><rect x="31" y="8" width="2" height="6"></rect><rect x="41" y="6" width="2" height="8"></rect><rect x="41" y="2" width="2" height="2"></rect><rect x="46" y="9" width="2" height="2"></rect><rect x="46" y="5" width="2" height="2"></rect><path d="M28,38H46a2,2,0,0,0,2-2V20a2,2,0,0,0-2-2H28a2,2,0,0,0-2,2V36A2,2,0,0,0,28,38Zm0-2V24h6v3a1,1,0,0,0,1,1h4a1,1,0,0,0,1-1V24h6V36ZM46,22H40V20h6Zm-8-2v6H36V20Zm-4,0v2H28V20Z"></path><rect x="40" y="32" width="4" height="2"></rect><rect x="36" y="32" width="2" height="2"></rect></g></svg>