<svg xmlns="http://www.w3.org/2000/svg" viewBox="0 0 64 64" x="0px" y="0px"><g data-name="Credit Card-Bill-Payment-Money-Credit"><rect x="12" y="40" width="4" height="2"></rect><rect x="12" y="44" width="4" height="2"></rect><path d="M60,18H54V47a3,3,0,0,0,6,0Z"></path><path d="M53.03,50A4.924,4.924,0,0,1,52,47V5.24a2.116,2.116,0,0,1-.11.21C51.36,6.52,50.62,8,49,8s-2.35-1.47-2.88-2.55C45.69,4.6,45.36,4,45.01,4s-.68.6-1.11,1.45C43.37,6.52,42.63,8,41.01,8s-2.36-1.48-2.89-2.55C37.69,4.6,37.36,4,37.01,4s-.68.6-1.11,1.45C35.37,6.52,34.63,8,33.01,8s-2.36-1.48-2.89-2.55C29.69,4.6,29.36,4,29.01,4s-.68.6-1.11,1.45C27.37,6.52,26.63,8,25.01,8s-2.36-1.48-2.89-2.55C21.69,4.6,21.36,4,21.01,4s-.68.6-1.11,1.45C19.37,6.52,18.63,8,17.01,8s-2.36-1.48-2.9-2.56c-.04-.07-.08-.14-.11-.2V34H41a3.009,3.009,0,0,1,3,3V50ZM48,30H44V28h4Zm0-4H44V24h4ZM34,12H48v2H34Zm-4,0h2v2H30Zm-7,5H21a3,3,0,0,1,0-6V10h2v1a3,3,0,0,1,3,3H24a1,1,0,0,0-1-1H21a1,1,0,0,0,0,2h2a3,3,0,0,1,0,6v1H21V21a3,3,0,0,1-3-3h2a1,1,0,0,0,1,1h2a1,1,0,0,0,0-2ZM42,30H18V28H42Zm0-4H18V24H42ZM30,18V16H48v2Z"></path><path d="M32,52a2,2,0,0,0,0,4h4a2,2,0,0,0,0-4Z"></path><rect x="8" y="40" width="2" height="6"></rect><path d="M5,60H41a1,1,0,0,0,1-1V37a1,1,0,0,0-1-1H5a1,1,0,0,0-1,1V59A1,1,0,0,0,5,60Zm11-6H14V50h2Zm10,0H24V50h2Zm14,0a4,4,0,0,1-4,4H32a4,4,0,0,1,0-8h4A4,4,0,0,1,40,54ZM34,40h4v2H34Zm-6,0h4v2H28Zm-6,0h4v2H22Zm0,5H38v2H22Zm-2,5h2v4H20Zm0,6h6v2H20ZM6,40a2,2,0,0,1,2-2h8a2,2,0,0,1,2,2v6a2,2,0,0,1-2,2H8a2,2,0,0,1-2-2Zm6,10v4H10V50ZM6,50H8v4H6Zm0,6H16v2H6Z"></path></g></svg>