<svg xmlns="http://www.w3.org/2000/svg" viewBox="0 0 64 64" x="0px" y="0px"><g data-name="Smartphone-Online Consult"><path d="M61.142,45.01l-2.682-.383a10.96,10.96,0,0,0-.678-1.639l1.624-2.166a1,1,0,0,0-.093-1.307l-2.828-2.828a1,1,0,0,0-1.307-.093l-2.166,1.624a11,11,0,0,0-1.639-.678l-.383-2.682A1,1,0,0,0,50,34H46a1,1,0,0,0-.99.858l-.383,2.682c-.212.068-.42.149-.627.23V7a5.006,5.006,0,0,0-5-5H21a5.006,5.006,0,0,0-5,5V17.01H14.81a5.016,5.016,0,0,0-4.331,2.5l-5,8.67A11.012,11.012,0,0,0,4,33.68V52a1,1,0,0,0-1,1v8a1,1,0,0,0,1,1H18a1,1,0,0,0,1-1V53a1,1,0,0,0-1-1v-.723l1.022-1.7A4.938,4.938,0,0,0,21,50H34a1,1,0,0,0,.858.99l2.682.383a10.96,10.96,0,0,0,.678,1.639l-1.624,2.166a1,1,0,0,0,.093,1.307l2.828,2.828a1,1,0,0,0,1.307.093l2.166-1.624a10.96,10.96,0,0,0,1.639.678l.383,2.682A1,1,0,0,0,46,62h4a1,1,0,0,0,.99-.858l.383-2.682a11,11,0,0,0,1.639-.678l2.166,1.624a1,1,0,0,0,1.307-.093l2.828-2.828a1,1,0,0,0,.093-1.307l-1.624-2.166a10.96,10.96,0,0,0,.678-1.639l2.682-.383A1,1,0,0,0,62,50V46A1,1,0,0,0,61.142,45.01ZM26,4h8V6H26ZM17,60H5V54H17Zm.573-11.9-1.43,2.38A1,1,0,0,0,16,51v1H6V33.68a9.006,9.006,0,0,1,1.206-4.5l5.005-8.67a3.008,3.008,0,0,1,2.6-1.5H16v7.713l-3.38,5.856,1.732,1,4.814-8.34a2,2,0,0,1,3.467,2l-4.6,7.97a1,1,0,0,0-.082.818l.53,1.581A9.943,9.943,0,0,1,19,40.78v2.178A10,10,0,0,1,17.573,48.105ZM21,48a2.963,2.963,0,0,1-1.034-.19A12,12,0,0,0,21,42.958V40.78a11.965,11.965,0,0,0-.621-3.807l-.388-1.154,4.375-7.579A4,4,0,0,0,18,23.5V7a3,3,0,0,1,3-3h3V6a2,2,0,0,0,2,2h8a2,2,0,0,0,2-2V4h3a3,3,0,0,1,3,3V37.477l-1.178-.883a1,1,0,0,0-1.307.093l-2.828,2.828a1,1,0,0,0-.093,1.307l1.624,2.166a10.96,10.96,0,0,0-.678,1.639l-2.682.383A1,1,0,0,0,34,46v2Zm39,1.133-2.463.352a1,1,0,0,0-.828.743,8.892,8.892,0,0,1-.975,2.356,1,1,0,0,0,.06,1.111l1.492,1.99-1.6,1.6L53.7,55.794a1,1,0,0,0-1.111-.06,8.892,8.892,0,0,1-2.356.975,1,1,0,0,0-.743.828L49.133,60H46.867l-.352-2.463a1,1,0,0,0-.743-.828,8.892,8.892,0,0,1-2.356-.975,1,1,0,0,0-1.111.06l-1.99,1.492-1.6-1.6,1.492-1.99a1,1,0,0,0,.06-1.111,8.892,8.892,0,0,1-.975-2.356,1,1,0,0,0-.828-.743L36,49.133V46.867l2.463-.352a1,1,0,0,0,.828-.743,8.892,8.892,0,0,1,.975-2.356,1,1,0,0,0-.06-1.111l-1.492-1.99,1.6-1.6,1.99,1.492a1,1,0,0,0,1.111.06,8.892,8.892,0,0,1,2.356-.975,1,1,0,0,0,.743-.828L46.867,36h2.266l.352,2.463a1,1,0,0,0,.743.828,8.892,8.892,0,0,1,2.356.975,1,1,0,0,0,1.111-.06l1.99-1.492,1.6,1.6-1.492,1.99a1,1,0,0,0-.06,1.111,8.892,8.892,0,0,1,.975,2.356,1,1,0,0,0,.828.743L60,46.867Z"></path><path d="M48,42a6,6,0,1,0,6,6A6.006,6.006,0,0,0,48,42Zm0,10a4,4,0,1,1,4-4A4,4,0,0,1,48,52Z"></path><rect x="47" y="38" width="2" height="2"></rect><rect x="40.636" y="40.636" width="2" height="2" transform="translate(-17.246 41.636) rotate(-45)"></rect><rect x="38" y="47" width="2" height="2"></rect><rect x="40.636" y="53.364" width="2" height="2" transform="translate(-26.246 45.364) rotate(-45)"></rect><rect x="47" y="56" width="2" height="2"></rect><rect x="53.364" y="53.364" width="2" height="2" transform="translate(-22.518 54.364) rotate(-45)"></rect><rect x="56" y="47" width="2" height="2"></rect><rect x="53.364" y="40.636" width="2" height="2" transform="translate(-13.518 50.636) rotate(-45)"></rect><path d="M36,40V26a2,2,0,0,0-2-2H32V18h1a1,1,0,0,0,1-1V15a1,1,0,0,0-.03-.243l-1-4A1,1,0,0,0,32,10H30a1,1,0,0,0-.97.757l-1,4A1,1,0,0,0,28,15v2a1,1,0,0,0,1,1h1v6H28a2,2,0,0,0-2,2V40a2,2,0,0,0,2,2h6A2,2,0,0,0,36,40ZM30,15.123,30.781,12h.438L32,15.123V16H30ZM28,26h6V40H32V29H30V40H28Z"></path></g></svg>