<svg xmlns="http://www.w3.org/2000/svg" data-name="Credit Card-PaymentCredit Card-Payment" viewBox="0 0 48 48" x="0px" y="0px"><title>Credit Card-Payment_2</title><path d="M2,7V25a3,3,0,0,0,3,3H6V26H5a1,1,0,0,1-1-1V7A1,1,0,0,1,5,6H6V4H5A3,3,0,0,0,2,7Z"></path><path d="M36,18h2V7a3,3,0,0,0-3-3H18V6H35a1,1,0,0,1,1,1V9H18v2H36v2H18v2H36Z"></path><path d="M43,20H15v2H43a1,1,0,0,1,1,1V41a1,1,0,0,1-1,1H15v2H43a3,3,0,0,0,3-3V23A3,3,0,0,0,43,20Z"></path><path d="M42,28a4,4,0,1,0-4,4A4,4,0,0,0,42,28Zm-6,0a2,2,0,1,1,2,2A2,2,0,0,1,36,28Z"></path><path d="M15,35v4a1,1,0,0,0,1,1H40a1,1,0,0,0,1-1V35a1,1,0,0,0-1-1H16A1,1,0,0,0,15,35Zm2,1H39v2H17Z"></path><path d="M23,31a1,1,0,0,0,1-1V26a1,1,0,0,0-1-1H17a1,1,0,0,0-1,1v4a1,1,0,0,0,1,1Zm-5-4h4v2H18Z"></path><path d="M16,16V6a1,1,0,0,0-1-1H13V3a2,2,0,0,0-2-2H9A2,2,0,0,0,7,3V41a1,1,0,0,0,.071.371l2,5a1,1,0,0,0,1.858,0l2-5A1,1,0,0,0,13,41V7h1v9ZM11,3V9H9V3ZM10,43.308l-1-2.5V11h2V40.808Z"></path></svg>