<svg xmlns="http://www.w3.org/2000/svg" viewBox="0 0 64 64" x="0px" y="0px"><title>Cocktail-Wine</title><g><path d="M24.215,25.512l-1.729,1.006a11.034,11.034,0,0,0,7.3,5.257l.4-1.959A9.029,9.029,0,0,1,24.215,25.512Z"></path><path d="M41,57H33V35.949A15.006,15.006,0,0,0,47,21a1,1,0,0,0-.006-.11l-2-18A1,1,0,0,0,44,2H20a1,1,0,0,0-.994.89l-2,18A1,1,0,0,0,17,21,15.006,15.006,0,0,0,31,35.949V57H23a3,3,0,0,0-3,3v1a1,1,0,0,0,1,1H43a1,1,0,0,0,1-1V60A3,3,0,0,0,41,57ZM20.9,4H43.1l1,9H19.9ZM19,21.055,19.673,15H44.327L45,21.055a13,13,0,0,1-26,0ZM22,60a1,1,0,0,1,1-1H41a1,1,0,0,1,1,1Z"></path></g></svg>