<svg xmlns="http://www.w3.org/2000/svg" viewBox="0 0 64 64" x="0px" y="0px"><title>Document-file-tool-paper-office
</title><g data-name="Document File"><circle cx="12" cy="52" r="4"></circle><path d="M19,4H5V43H19ZM18,36a1,1,0,0,1-1,1H7a1,1,0,0,1-1-1V10A1,1,0,0,1,7,9H17a1,1,0,0,1,1,1Z"></path><path d="M8,35h8V11H8ZM9,13h2v2H9Zm0,4h2V30H9Z"></path><path d="M5,60H19V45H5Zm7-14a6,6,0,1,1-6,6A6.006,6.006,0,0,1,12,46Z"></path><path d="M39,4H25V43H39ZM38,36a1,1,0,0,1-1,1H27a1,1,0,0,1-1-1V10a1,1,0,0,1,1-1H37a1,1,0,0,1,1,1Z"></path><path d="M28,35h8V11H28Zm1-22h2v2H29Zm0,4h2V30H29Z"></path><circle cx="32" cy="52" r="4"></circle><path d="M25,60H39V45H25Zm7-14a6,6,0,1,1-6,6A6.006,6.006,0,0,1,32,46Z"></path><path d="M59,4H45V43H59ZM58,36a1,1,0,0,1-1,1H47a1,1,0,0,1-1-1V10a1,1,0,0,1,1-1H57a1,1,0,0,1,1,1Z"></path><path d="M48,35h8V11H48Zm1-22h2v2H49Zm0,4h2V30H49Z"></path><circle cx="52" cy="52" r="4"></circle><path d="M45,60H59V45H45Zm7-14a6,6,0,1,1-6,6A6.006,6.006,0,0,1,52,46Z"></path></g></svg>