<svg xmlns="http://www.w3.org/2000/svg" viewBox="0 0 64 64" x="0px" y="0px"><g><path d="M44.242,19.03,48,19.969l3.758-.939A.984.984,0,0,1,52,19h8V6H59V17a1,1,0,0,1-1,1H52.123l-3.881.97a.991.991,0,0,1-.484,0L43.877,18H38a1,1,0,0,1-1-1V6H36V19h8A.984.984,0,0,1,44.242,19.03Z"></path><path d="M39,4V16h5a.984.984,0,0,1,.242.03L47,16.719V4.781L43.877,4Zm6,10H40V12h5Zm0-3H40V9h5Zm0-3H40V6h5Z"></path><path d="M49,16.719l2.758-.689A.984.984,0,0,1,52,16h5V4H52.123L49,4.781ZM51,6h5V8H51Zm0,3h5v2H51Zm0,3h5v2H51Z"></path><path d="M35,4H29.392A17.9,17.9,0,0,0,12.934,15.229L6.385,35H12v9a5.006,5.006,0,0,0,5,5H31v2H26v9H48V49h1a9.011,9.011,0,0,0,9-9V21H52.123l-3.881.97a.991.991,0,0,1-.484,0L43.877,21H35a1,1,0,0,1-1-1V5A1,1,0,0,1,35,4ZM17.5,26A4.505,4.505,0,0,1,13,21.5h2a2.5,2.5,0,0,0,5,0h2A4.505,4.505,0,0,1,17.5,26Z"></path></g></svg>