<svg xmlns="http://www.w3.org/2000/svg" viewBox="0 0 64 64" x="0px" y="0px"><g data-name="Data Center-Server-Network-Technology-Cloud"><rect x="23" y="33" width="2" height="2"></rect><rect x="27" y="34" width="2" height="2"></rect><rect x="23" y="40" width="2" height="2"></rect><rect x="27" y="41" width="2" height="2"></rect><rect x="26" y="26" width="12" height="2"></rect><path d="M56,45H53.94A8.386,8.386,0,0,0,54,44a8.011,8.011,0,0,0-8-8,8.246,8.246,0,0,0-2,.27V27c0-2.72-3.27-4.9-8.04-5.68A6.006,6.006,0,0,0,30,16H27.94A8.262,8.262,0,0,0,28,15a7.993,7.993,0,0,0-15.42-2.96A3.77,3.77,0,0,0,12,12a4,4,0,0,0-4,4A6,6,0,0,0,8,28H20V41c0,3.01,4.01,5.37,9.64,5.89A5.991,5.991,0,0,0,34,57H56a6,6,0,0,0,0-12ZM42,27c0,1.89-4.28,4-10,4s-10-2.11-10-4,4.28-4,10-4S42,25.11,42,27Zm0,3.41V34c0,1.89-4.28,4-10,4s-10-2.11-10-4V30.41C24.11,31.99,27.73,33,32,33S39.89,31.99,42,30.41ZM20.17,26H8a4,4,0,0,1,0-8H9.18a1.014,1.014,0,0,0,.82-.42,1.035,1.035,0,0,0,.12-.92A1.963,1.963,0,0,1,10,16a2.007,2.007,0,0,1,2.82-1.82,1,1,0,0,0,1.38-.66A5.992,5.992,0,0,1,26,15a5.707,5.707,0,0,1-.25,1.71,1.017,1.017,0,0,0,.16.89,1,1,0,0,0,.8.4H30a4,4,0,0,1,3.87,3.07C33.26,21.03,32.64,21,32,21,25.85,21,21.07,23.09,20.17,26ZM22,41V37.41C24.11,38.99,27.73,40,32,40a19.777,19.777,0,0,0,8.32-1.61,7.953,7.953,0,0,0-1.75,2.65A3.642,3.642,0,0,0,38,41a4,4,0,0,0-3.99,3.9c-.66.06-1.33.1-2.01.1C26.28,45,22,42.89,22,41ZM56,55H34a4,4,0,0,1,0-8h1.18a1,1,0,0,0,.95-1.33A1.89,1.89,0,0,1,36,45a1.992,1.992,0,0,1,2.82-1.82.987.987,0,0,0,1.37-.67A6,6,0,0,1,52,44a5.85,5.85,0,0,1-.25,1.71,1.04,1.04,0,0,0,.15.89,1.018,1.018,0,0,0,.81.4H56a4,4,0,0,1,0,8Z"></path><path d="M11.133,34.256,13.691,36.4l1.285-1.532-4.333-3.636a1,1,0,0,0-1.409.123L5.6,35.691,7.13,36.976l2.026-2.414a22.837,22.837,0,0,0,14.48,18.87l.727-1.864A20.85,20.85,0,0,1,11.133,34.256Z"></path><path d="M52.875,29.751,50.309,27.6,49.024,29.13l4.333,3.636a1,1,0,0,0,1.409-.123L58.4,28.309,56.87,27.024l-2.017,2.4A23.031,23.031,0,0,0,32,9v2A21.026,21.026,0,0,1,52.875,29.751Z"></path></g></svg>