<svg xmlns="http://www.w3.org/2000/svg" viewBox="0 0 64 64" x="0px" y="0px"><g><path d="M48,32a16.031,16.031,0,1,0-5.144,11.736A15.972,15.972,0,0,0,48,32ZM18.052,31a13.964,13.964,0,0,1,3.831-8.637A15.8,15.8,0,0,0,24.2,23.947,25.959,25.959,0,0,0,23.028,31Zm27.9,2a13.964,13.964,0,0,1-3.831,8.637,15.8,15.8,0,0,0-2.312-1.584A25.959,25.959,0,0,0,40.972,33Zm-7.976,6.159A15.919,15.919,0,0,0,33,38.047V33h5.974A24.316,24.316,0,0,1,37.972,39.159ZM33,40.047a13.9,13.9,0,0,1,4.289,1c-1.085,2.52-2.6,4.28-4.289,4.79ZM33,31V25.953a15.919,15.919,0,0,0,4.972-1.112,24.316,24.316,0,0,1,1,6.159Zm-2-7.047a13.9,13.9,0,0,1-4.289-1c1.085-2.52,2.6-4.28,4.289-4.79Zm2,0V18.167c1.69.51,3.2,2.27,4.289,4.79A13.9,13.9,0,0,1,33,23.953Zm4.348-4.883A13.835,13.835,0,0,1,40.635,21a13.734,13.734,0,0,1-1.545,1.056A14.37,14.37,0,0,0,37.348,19.07ZM24.91,22.056A13.838,13.838,0,0,1,23.364,21a13.851,13.851,0,0,1,3.289-1.931A14.381,14.381,0,0,0,24.91,22.056Zm1.118,2.785A15.919,15.919,0,0,0,31,25.953V31H25.026A24.316,24.316,0,0,1,26.028,24.841ZM31,33v5.047a15.919,15.919,0,0,0-4.972,1.112,24.316,24.316,0,0,1-1-6.159Zm0,7.047v5.786c-1.69-.51-3.2-2.27-4.289-4.79A13.9,13.9,0,0,1,31,40.047ZM26.652,44.93A13.835,13.835,0,0,1,23.365,43a13.734,13.734,0,0,1,1.545-1.056A14.37,14.37,0,0,0,26.652,44.93ZM39.09,41.944A13.838,13.838,0,0,1,40.636,43a13.851,13.851,0,0,1-3.289,1.931A14.381,14.381,0,0,0,39.09,41.944ZM45.948,31H40.972a25.959,25.959,0,0,0-1.167-7.053,15.8,15.8,0,0,0,2.312-1.584A13.957,13.957,0,0,1,45.948,31Zm-27.9,2h4.976A25.959,25.959,0,0,0,24.2,40.053a15.8,15.8,0,0,0-2.312,1.584A13.957,13.957,0,0,1,18.052,33Z"></path><path d="M62,32a4,4,0,0,0-3.3-3.929,26.727,26.727,0,0,0-5.047-12.162,3.98,3.98,0,0,0-.439-5.122,4.106,4.106,0,0,0-5.117-.435A26.725,26.725,0,0,0,35.929,5.3a3.989,3.989,0,0,0-7.858,0A26.725,26.725,0,0,0,15.9,10.352a4.106,4.106,0,0,0-5.117.435,3.98,3.98,0,0,0-.439,5.122A26.727,26.727,0,0,0,5.3,28.071a3.989,3.989,0,0,0,0,7.858,26.727,26.727,0,0,0,5.047,12.162,3.989,3.989,0,0,0,5.561,5.561A26.727,26.727,0,0,0,28.071,58.7a3.989,3.989,0,0,0,7.858,0,26.727,26.727,0,0,0,12.162-5.047,3.989,3.989,0,0,0,5.561-5.561A26.727,26.727,0,0,0,58.7,35.929,4,4,0,0,0,62,32Zm-2,0a2,2,0,1,1-2-2A2,2,0,0,1,60,32ZM50.385,11.615A2,2,0,0,1,51.8,15.029a2.047,2.047,0,0,1-2.828,0,2,2,0,0,1,1.414-3.414ZM32,4a2,2,0,1,1-2,2A2,2,0,0,1,32,4ZM12.2,12.2a2,2,0,1,1,2.828,2.828,2.047,2.047,0,0,1-2.828,0,2,2,0,0,1,0-2.828ZM4,32a2,2,0,1,1,2,2A2,2,0,0,1,4,32Zm8.2,19.8a2,2,0,1,1,2.828,0A2.047,2.047,0,0,1,12.2,51.8ZM32,60a2,2,0,1,1,2-2A2,2,0,0,1,32,60Zm0-6a3.992,3.992,0,0,0-3.766,2.7A24.728,24.728,0,0,1,17.2,52.122a3.951,3.951,0,0,0-.76-4.565,4.1,4.1,0,0,0-4.554-.745A24.731,24.731,0,0,1,7.3,35.766a3.975,3.975,0,0,0,0-7.532A24.728,24.728,0,0,1,11.878,17.2,3.975,3.975,0,0,0,17.2,11.878,24.728,24.728,0,0,1,28.234,7.3a3.975,3.975,0,0,0,7.532,0A24.728,24.728,0,0,1,46.8,11.878,3.975,3.975,0,0,0,52.122,17.2,24.728,24.728,0,0,1,56.7,28.234a3.975,3.975,0,0,0,0,7.532,24.731,24.731,0,0,1-4.592,11.046,4.1,4.1,0,0,0-4.554.745,3.951,3.951,0,0,0-.76,4.565A24.728,24.728,0,0,1,35.766,56.7,3.992,3.992,0,0,0,32,54Zm19.8-2.2a2.047,2.047,0,0,1-2.828,0,2,2,0,1,1,2.828,0Z"></path></g></svg>