<svg xmlns="http://www.w3.org/2000/svg" viewBox="0 0 64 64" x="0px" y="0px"><g data-name="Hollandse Herder-Dog"><path d="M31,42.723V44a1,1,0,0,0,1,1,1,1,0,0,1,.994.89L33.9,54H35V43.969A4.953,4.953,0,0,1,34.1,42H32.266Z"></path><path d="M39,44h1a1,1,0,0,1,1,.929L41.931,58H43V35.414l-3-3V36a1,1,0,0,1-.1.447l-1,2-1.79-.894.9-1.789V32H35v3a1.006,1.006,0,0,1-.168.555l-2,3-1.664-1.11L33,34.7V32H29v4a1.006,1.006,0,0,1-.168.555l-2,3-1.664-1.11L27,35.7V32H23.8l-1.825,8.217a1,1,0,0,1-.422.615l-3,2-1.11-1.664,2.666-1.777L21.753,32H21a.972.972,0,0,1-.482-.141L17.868,36.5A1,1,0,0,1,17,37H11a1,1,0,0,1-.868-.5l-1.709-2.99.4,4.25,1.837,2.455,1.788.894-.894,1.79-2-1a1.012,1.012,0,0,1-.354-.3l-.019-.025L10.91,60H12V45a1,1,0,0,1,1-1h5a1,1,0,0,1,1,.938L19.939,60H21V45a1,1,0,0,1,1-1h2.734l6.77-3.868A.993.993,0,0,1,32,40h2V39h2v2A3,3,0,0,0,39,44Z"></path><path d="M51,44V37a3,3,0,0,0-3-3H44.414l.293.293A1,1,0,0,1,45,35v1h1a3,3,0,0,1,3,3v7a3,3,0,0,0,3,3h3a3.006,3.006,0,0,0,2.829-2H54A3,3,0,0,1,51,44Z"></path><path d="M14,32a.695.695,0,0,0,.685-.808l-.647-3.879L14,27.236l-.038.077-.647,3.879A.695.695,0,0,0,14,32Z"></path><path d="M9.706,13.048A64.421,64.421,0,0,1,8.218,5.821a14.105,14.105,0,0,0-.965,10.814l1.89-3.15A1,1,0,0,1,9.706,13.048Z"></path><path d="M18.294,13.048a1,1,0,0,1,.563.437l1.89,3.15a14.1,14.1,0,0,0-.965-10.813A64.9,64.9,0,0,1,18.294,13.048Z"></path><path d="M16.42,35,20,28.734V19.277L17.434,15H10.566L8,19.277v9.457L11.58,35ZM16,17h2v2H16Zm-6,0h2v2H10Zm1.293,10.707-2-2,1.414-1.414,1.686,1.686L13,24.764V24a1,1,0,0,1-.707-.293l-1-1A1,1,0,0,1,11,22V21h2v.586l.414.414h1.172L15,21.586V21h2v1a1,1,0,0,1-.293.707l-1,1A1,1,0,0,1,15,24v.764l.607,1.215,1.686-1.686,1.414,1.414-2,2a.984.984,0,0,1-.532.258l.482,2.9a2.694,2.694,0,1,1-5.314,0l.482-2.9A.984.984,0,0,1,11.293,27.707Z"></path></g></svg>