<svg xmlns="http://www.w3.org/2000/svg" viewBox="0 0 64 64" x="0px" y="0px"><g data-name="Mobile Phone-Cellphone-Retro-Communication-Technology"><path d="M19,40v4h9.556a3.875,3.875,0,0,1,0-4Z"></path><path d="M35.444,40a3.875,3.875,0,0,1,0,4H45V40Z"></path><circle cx="32" cy="42" r="2"></circle><path d="M19,12V34H45V12Zm4,11H21V21h2Zm3-7H23v3H21V16a2,2,0,0,1,2-2h3Z"></path><path d="M49,7a3,3,0,0,0-3-3H18a3,3,0,0,0-3,3V57a3,3,0,0,0,3,3H46a3,3,0,0,0,3-3ZM38,6h2V8H38ZM28,6h8V8H28ZM26,58H18V56h8Zm0-4H18V52h8Zm0-4H18V48h8Zm10,8H28V56h8Zm0-4H28V52h8Zm0-4H28V48h8Zm10,8H38V56h8Zm0-4H38V52h8Zm0-4H38V48h8Zm1-6a2,2,0,0,1-2,2H19a2,2,0,0,1-2-2V40a2,2,0,0,1,2-2H45a2,2,0,0,1,2,2Zm0-10a2,2,0,0,1-2,2H19a2,2,0,0,1-2-2V12a2,2,0,0,1,2-2H45a2,2,0,0,1,2,2Z"></path></g></svg>