<svg xmlns="http://www.w3.org/2000/svg" viewBox="0 0 64 64" x="0px" y="0px"><g><path d="M32,38.736V49a3,3,0,0,0,6,0V48H37a2.987,2.987,0,0,1-2.22-5,2.954,2.954,0,0,1,0-4,2.849,2.849,0,0,1-.73-2.492A7.048,7.048,0,0,1,32,38.736Z"></path><path d="M34.722,34.93c-.021.072-.039.145-.062.216.039-.05.078-.1.12-.146C34.76,34.977,34.742,34.953,34.722,34.93Z"></path><rect x="30" y="16" width="10" height="2"></rect><path d="M43,34V33a1,1,0,0,0-1-1H40.816A3,3,0,0,1,38,34Z"></path><rect x="29" y="20" width="12" height="4"></rect><path d="M30,12v2H40V12H38V10h2V9a5,5,0,0,0-.1-1H38V6h.974a4.948,4.948,0,0,0-7.948,0H32V8H30.1A5,5,0,0,0,30,9v1h2v2Zm4-6h2V8H34Zm0,4h2v2H34Z"></path><polygon points="24 47 24 31 24 30 18 30 18 47 24 47"></polygon><rect x="32" y="26" width="6" height="2"></rect><path d="M26,46h4v-6.3a6.956,6.956,0,0,1-2,.3V38a5.006,5.006,0,0,0,5-5,1,1,0,0,1,1-1h4a1,1,0,0,0,0-2H29.236L26,31.618Z"></path><rect x="4" y="33" width="12" height="12"></rect><path d="M36,37a1,1,0,0,0,1,1h6V36H37A1,1,0,0,0,36,37Z"></path><path d="M37,42h6V40H37a1,1,0,0,0,0,2Z"></path><path d="M37,46h5a1,1,0,0,0,1-1V44H37a1,1,0,0,0,0,2Z"></path><path d="M47,62H11a3,3,0,0,1,0-6H33a1,1,0,0,0,1-1V54h2v1a3,3,0,0,1-3,3H11a1,1,0,0,0,0,2H47Z"></path><rect x="42" y="14" width="2" height="2"></rect><rect x="26" y="14" width="2" height="2"></rect><rect x="49" y="60" width="2" height="2"></rect><rect x="53" y="60" width="2" height="2"></rect><rect x="57" y="60" width="2" height="2"></rect><rect x="8" y="6" width="14" height="2"></rect><rect x="4" y="6" width="2" height="2"></rect><rect x="12" y="12" width="10" height="2"></rect><rect x="8" y="12" width="2" height="2"></rect><rect x="16" y="18" width="6" height="2"></rect><rect x="12" y="18" width="2" height="2"></rect></g></svg>