<svg xmlns="http://www.w3.org/2000/svg" viewBox="0 0 64 64" x="0px" y="0px"><title>Mobile Synchronize_2</title><g data-name="Mobile Synchronize"><path d="M41,40H40V39H38v1H6V21a1,1,0,0,1,1-1H37a1,1,0,0,1,1,1h2a3,3,0,0,0-3-3H7a3,3,0,0,0-3,3V40H3a1,1,0,0,0-1,1v2a3,3,0,0,0,3,3H39a3,3,0,0,0,3-3V41A1,1,0,0,0,41,40Zm-1,3a1,1,0,0,1-1,1H5a1,1,0,0,1-1-1V42H19a1,1,0,0,0,1,1h4a1,1,0,0,0,1-1H40Z"></path><rect x="21" y="30" width="2" height="2"></rect><rect x="27" y="30" width="2" height="2"></rect><rect x="15" y="30" width="2" height="2"></rect><path d="M41.074,21.511a1,1,0,0,0,0,1.414,10.009,10.009,0,0,1,0,14.15,1,1,0,1,0,1.418,1.41,12.008,12.008,0,0,0,0-16.97A1,1,0,0,0,41.074,21.511Z"></path><path d="M38.95,35.95a.993.993,0,0,0,.707-.293,8,8,0,0,0,0-11.314,1,1,0,0,0-1.414,1.414,6,6,0,0,1,0,8.486,1,1,0,0,0,.707,1.707Z"></path><path d="M35.413,32.827a1,1,0,0,0,1.414,0,3.993,3.993,0,0,0,0-5.654,1,1,0,0,0-1.414,1.414,1.994,1.994,0,0,1,0,2.826A1,1,0,0,0,35.413,32.827Z"></path><path d="M59,18H51a3,3,0,0,0-3,3V39a3,3,0,0,0,3,3h8a3,3,0,0,0,3-3V21A3,3,0,0,0,59,18Zm0,22H51a1,1,0,0,1-1-1V24h8V22H50V21a1,1,0,0,1,1-1h8a1,1,0,0,1,1,1V34H52v2h8v3A1,1,0,0,1,59,40Z"></path><rect x="54" y="37" width="2" height="2"></rect><rect x="52" y="28" width="2" height="2"></rect><rect x="56" y="28" width="2" height="2"></rect></g></svg>