<svg xmlns="http://www.w3.org/2000/svg" viewBox="0 0 64 64" x="0px" y="0px"><g data-name="Speech Bubble"><path d="M59.118,52.987l-3.806-9.515a1,1,0,0,1,.065-.877A18.951,18.951,0,0,0,39.708,14.036,20.969,20.969,0,0,1,29.575,49.483,18.769,18.769,0,0,0,39,52a19,19,0,0,0,10.433-3.126,1,1,0,0,1,.98-.065ZM47.4,21.8l1.2-1.6A15.88,15.88,0,0,1,55,33H53A13.9,13.9,0,0,0,47.4,21.8Z"></path><path d="M14.573,44.874A19.1,19.1,0,1,0,8.622,38.6a1,1,0,0,1,.066.878L4.882,48.987l8.708-4.179A1,1,0,0,1,14.573,44.874ZM19,39H17V37h2Zm16,0H21V37H35Zm-6-6V31h2v2Zm6,0H33V31h2ZM31,19h4v2H31Zm-4,0h2v2H27Zm-4,0h2v2H23ZM13,19h8v2H13Zm0,6H35v2H13Zm0,6H27v2H13Zm0,6h2v2H13Z"></path></g></svg>