<svg xmlns="http://www.w3.org/2000/svg" viewBox="0 0 64 64" x="0px" y="0px"><g data-name="Time is money-Money-Time-Clock-Cash"><path d="M31,46h2a1,1,0,0,1,1,1h2a3,3,0,0,0-3-3V43H31v1a3,3,0,0,0,0,6h2a1,1,0,0,1,0,2H31a1,1,0,0,1-1-1H28a3,3,0,0,0,3,3v1h2V54a3,3,0,0,0,0-6H31a1,1,0,0,1,0-2Z"></path><path d="M60,36H53.45A14.993,14.993,0,1,0,31,23c0,.34.03.67.05,1H23a2.923,2.923,0,0,0-1.32.32A2.923,2.923,0,0,0,22,23V21a3.009,3.009,0,0,0-3-3H14V15.17l.71.11a6.559,6.559,0,0,0,1.08.09,7.057,7.057,0,0,0,6.55-4.49l.67-1.76a1,1,0,0,0-.06-.86,1.052,1.052,0,0,0-.71-.49l-1.87-.29A7.005,7.005,0,0,0,13,11.36,6.992,6.992,0,0,0,5.63,7.48l-1.87.29a1.052,1.052,0,0,0-.71.49,1,1,0,0,0-.06.86l.67,1.76a7.057,7.057,0,0,0,6.55,4.49,6.559,6.559,0,0,0,1.08-.09l.71-.11V18H7a3.009,3.009,0,0,0-3,3v2a2.974,2.974,0,0,0,.78,2A2.974,2.974,0,0,0,4,27v2a2.974,2.974,0,0,0,.78,2A2.974,2.974,0,0,0,4,33v2a3,3,0,0,0,.18,1H4a2.006,2.006,0,0,0-2,2V60a2.006,2.006,0,0,0,2,2H60a2.006,2.006,0,0,0,2-2V38A2.006,2.006,0,0,0,60,36ZM14.61,12.6a5.039,5.039,0,0,1,5.45-3.15l.64.1-.23.61a5.051,5.051,0,0,1-5.45,3.15l-.64-.1Zm-3.63.71a5.039,5.039,0,0,1-5.45-3.15L5.3,9.55l.64-.1a5.039,5.039,0,0,1,5.45,3.15l.23.61ZM22,27a1,1,0,0,1,1-1h1v2h2V26h2v2h2V26h1.3a15.147,15.147,0,0,0,1.44,4H23a1,1,0,0,1-1-1ZM6,21a1,1,0,0,1,1-1H8v2h2V20h2v2h2V20h2v2h2V20h1a1,1,0,0,1,1,1v2a1,1,0,0,1-1,1H7a1,1,0,0,1-1-1Zm0,6a1,1,0,0,1,1-1H8v2h2V26h2v2h2V26h2v2h2V26h1a1,1,0,0,1,1,1v2a1,1,0,0,1-1,1H7a1,1,0,0,1-1-1Zm0,6a1,1,0,0,1,1-1H8v2h2V32h2v2h2V32h2v2h2V32h1a1,1,0,0,1,1,1v2a1,1,0,0,1-1,1H7a1,1,0,0,1-1-1ZM22,56H10v2H22v2H4V54H22Zm0-4H4V50H16V48H4V46H22Zm0-12H10v2H22v2H4V38H22Zm0-5V33a1,1,0,0,1,1-1h1v2h2V32h2v2h2V32h2v2h2V32h.03A14.872,14.872,0,0,0,36,34.15V35a1,1,0,0,1-1,1H23A1,1,0,0,1,22,35ZM40,60H24V38H40ZM37.82,36c.04-.12.08-.25.11-.37.2.13.41.25.62.37ZM33,23A13,13,0,1,1,46,36,13.012,13.012,0,0,1,33,23ZM60,60H42V58H54V56H42V54H60Zm0-12H48v2H60v2H42V46H60Zm0-4H42V42H54V40H42V38H60Z"></path><rect x="6" y="40" width="2" height="2"></rect><rect x="6" y="56" width="2" height="2"></rect><rect x="18" y="48" width="2" height="2"></rect><rect x="56" y="40" width="2" height="2"></rect><rect x="56" y="56" width="2" height="2"></rect><rect x="44" y="48" width="2" height="2"></rect><path d="M46,34A11,11,0,1,0,35,23,11.013,11.013,0,0,0,46,34ZM37.059,22a8.956,8.956,0,0,1,1.916-4.611l1.368,1.368,1.414-1.414-1.368-1.368A8.956,8.956,0,0,1,45,14.059V16h2V14.059a8.956,8.956,0,0,1,4.611,1.916l-1.368,1.368,1.414,1.414,1.368-1.368A8.956,8.956,0,0,1,54.941,22H53v2h1.941a8.956,8.956,0,0,1-1.916,4.611l-1.368-1.368-1.414,1.414,1.368,1.368A8.956,8.956,0,0,1,47,31.941V30H45v1.941a8.956,8.956,0,0,1-4.611-1.916l1.368-1.368-1.414-1.414-1.368,1.368A8.956,8.956,0,0,1,37.059,24H39V22Z"></path><path d="M46.707,23.707A1,1,0,0,0,47,23V18H45v4.586l-1.707,1.707,1.414,1.414Z"></path></g></svg>