<svg xmlns="http://www.w3.org/2000/svg" viewBox="0 0 64 64" x="0px" y="0px"><g data-name="Touch Screen-Smartphone-Application-Hand-Technology"><path d="M14,12V52h8.05l-1.12-1.97a4,4,0,0,1,6.94-3.99l.13.23V31a4,4,0,0,1,8,0v8.54a3.993,3.993,0,0,1,5.43,1.4A3.94,3.94,0,0,1,44,40a4.012,4.012,0,0,1,3.43,1.94A3.94,3.94,0,0,1,50,41V12ZM39.45,35.67a.981.981,0,0,1-.74.33,1,1,0,0,1-.67-.25,1.01,1.01,0,0,1-.08-1.42,8,8,0,1,0-11.92,0,1,1,0,1,1-1.49,1.34,10,10,0,1,1,14.9,0Z"></path><path d="M14,54v2a4,4,0,0,0,4,4h8.58l-3.4-6Z"></path><path d="M52,45V61H29.45L22.67,49.04a2.018,2.018,0,0,1,.73-2.74,2.06,2.06,0,0,1,1.52-.2,1.942,1.942,0,0,1,1.21.94l2,3.46a1.022,1.022,0,0,0,1.13.47A1,1,0,0,0,30,50V31a2,2,0,0,1,4,0V47a1,1,0,0,0,2,0V43a2,2,0,0,1,4,0v4a1,1,0,0,0,2,0V44a2,2,0,0,1,4,0v3a1,1,0,0,0,2,0V45a2,2,0,0,1,4,0Z"></path><path d="M46,4H18a4,4,0,0,0-4,4v2H50V8A4,4,0,0,0,46,4ZM27,8H25V6h2Zm8,0H29V6h6Z"></path></g></svg>