<svg xmlns="http://www.w3.org/2000/svg" viewBox="0 0 64 64" x="0px" y="0px"><g data-name="Game-Smartphone-Gamepad-Video Game-Game Controller"><rect x="47" y="31" width="2" height="2"></rect><path d="M33,35a4.949,4.949,0,0,0,3.322-1.265l-3.029-3.028a1,1,0,0,1,0-1.414l3.029-3.028A4.949,4.949,0,0,0,33,25a5,5,0,0,0,0,10Zm-1-9h2v2H32Z"></path><path d="M41,41V19H23V41ZM33,23a6.945,6.945,0,0,1,5.5,2.673A1,1,0,0,1,38.417,27l-3,3,3,3a1,1,0,0,1,.08,1.324A7,7,0,1,1,33,23Z"></path><path d="M53,22a3,3,0,0,0-3-3H43V41h7a3,3,0,0,0,3-3ZM51,39H45V37h6Zm0-6H49v2H47V33H45V31h2V29h2v2h2Z"></path><path d="M46,4H18a4,4,0,0,0-4,4v9H50V8A4,4,0,0,0,46,4ZM27,8H25V6h2Zm8,0H29V6h6Z"></path><path d="M34,54H30a1,1,0,0,0,0,2h4a1,1,0,0,0,0-2Z"></path><path d="M21,41V19H14a3,3,0,0,0-3,3V38a3,3,0,0,0,3,3ZM13,31h2V29h2v2h2v2H17v2H15V33H13Zm0,6h6v2H13Z"></path><path d="M14,43V56a4,4,0,0,0,4,4H46a4,4,0,0,0,4-4V43ZM34,58H30a3,3,0,0,1,0-6h4a3,3,0,0,1,0,6Z"></path></g></svg>