<svg xmlns="http://www.w3.org/2000/svg" viewBox="0 0 64 64" x="0px" y="0px"><g><path d="M21.34,21.38a.774.774,0,0,1-.07-.16l.05-.19Z"></path><path d="M27,4V7a1,1,0,0,1-.219.625L23,12.351V20a1,1,0,0,0,2,0V16a1,1,0,0,1,2,0v7a1,1,0,0,0,2,0V18a1,1,0,0,1,2,0v5a1,1,0,0,0,2,0V18a1,1,0,0,1,2,0v4a1,1,0,0,0,2,0V17a1,1,0,0,1,2,0v4a1,1,0,0,0,2,0V12.192l-1.929-4.82A1.012,1.012,0,0,1,39,7V4Z"></path><path d="M21.27,21.22,19.32,28H17.25L21,14.87V20A2.793,2.793,0,0,0,21.27,21.22Z"></path><path d="M23.69,28H21.68l-.34-6.62a3.007,3.007,0,0,0,2.08,1.56Z"></path><path d="M43.69,28H41.68l-.23-4.37A3.024,3.024,0,0,0,43,21V14.95Z"></path><polygon points="49.867 60 49.367 56 19.689 56 19.939 60 49.867 60"></polygon><path d="M16.061,30h-.178L12.354,58.232l1.939-1.939a1,1,0,0,1,1.414,0l2.13,2.13Z"></path><polygon points="13.414 60 16.586 60 15 58.414 13.414 60"></polygon><polygon points="49.117 54 46.117 30 43.766 30 43.998 33.941 42.002 34.059 41.763 30 23.766 30 23.999 33.942 22.001 34.058 21.763 30 18.064 30 19.564 54 49.117 54"></polygon></g></svg>