<svg xmlns="http://www.w3.org/2000/svg" viewBox="0 0 64 64" x="0px" y="0px"><g data-name="Handbag"><path d="M26,46a4.948,4.948,0,0,1-3-1.026V51a3,3,0,0,0,3,3H38a3,3,0,0,0,3-3V44.974A4.948,4.948,0,0,1,38,46Z"></path><path d="M23,41a3,3,0,0,0,3,3H38a3,3,0,0,0,3-3V40H23Z"></path><path d="M54,28H51V60a3,3,0,0,0,3-3Z"></path><path d="M10,57a3,3,0,0,0,3,3V28H10Z"></path><path d="M54,21a3,3,0,0,0-3-3H13a3,3,0,0,0-3,3v5h3.184A3,3,0,0,1,16,24H48a3,3,0,0,1,2.816,2H54Z"></path><rect x="24" y="4" width="16" height="3"></rect><rect x="42" y="14" width="2" height="2"></rect><path d="M44,7a3.006,3.006,0,0,0-2-2.829V12h2Z"></path><rect x="20" y="14" width="2" height="2"></rect><path d="M20,12h2V4.171A3.006,3.006,0,0,0,20,7Z"></path><path d="M48,26H16a1,1,0,0,0-1,1V60H49V27A1,1,0,0,0,48,26ZM43,51a5.006,5.006,0,0,1-5,5H26a5.006,5.006,0,0,1-5-5V40a2,2,0,0,1,2-2H41a2,2,0,0,1,2,2Z"></path></g></svg>