<svg xmlns="http://www.w3.org/2000/svg" viewBox="0 0 32 32" x="0px" y="0px"><g data-name="Tablet-Upload"><path d="M24.878,20.465l-1.414,1.414L24.585,23H18v2h6.585l-1.121,1.121,1.414,1.414,2.829-2.828a1,1,0,0,0,0-1.414Z"></path><path d="M26,3a1,1,0,0,0-1-1H7A1,1,0,0,0,6,3V4H26Z"></path><path d="M6,6V24H16V22a1,1,0,0,1,1-1h4.51l2.66-2.66a1.008,1.008,0,0,1,1.42,0l.41.41V6Zm6,10H10V14h2Zm5,0H15V14h2Zm5,0H20V14h2Z"></path><path d="M21.51,27l3.01,3H7a1,1,0,0,1-1-1V26H16a1,1,0,0,0,1,1Z"></path></g></svg>