<svg xmlns="http://www.w3.org/2000/svg" viewBox="0 0 64 64" x="0px" y="0px"><g><path d="M61,52H60V21a5.006,5.006,0,0,0-5-5V4a2,2,0,0,0-2-2H14A5.006,5.006,0,0,0,9,7v9a5.006,5.006,0,0,0-5,5V52H3a1,1,0,0,0-1,1v4a3,3,0,0,0,3,3H59a3,3,0,0,0,3-3V53A1,1,0,0,0,61,52ZM58,21V48H39V30H50a5.006,5.006,0,0,0,5-5V18A3,3,0,0,1,58,21ZM42,4a2.994,2.994,0,0,1,3,3V25a4.948,4.948,0,0,0,1.026,3H39V7A3,3,0,0,1,42,4ZM53,25a3,3,0,0,1-6,0V7a4.975,4.975,0,0,0-1.026-3H53ZM11,7a3,3,0,0,1,3-3H38.026A4.948,4.948,0,0,0,37,7V48H11ZM9,18V48H6V21A3,3,0,0,1,9,18ZM6,50H58v2H6Zm21,4H37v1H27Zm33,3a1,1,0,0,1-1,1H5a1,1,0,0,1-1-1V54H25v1a2,2,0,0,0,2,2H37a2,2,0,0,0,2-2V54H60Z"></path><rect x="13" y="14" width="22" height="2"></rect><rect x="31" y="21" width="4" height="2"></rect><path d="M26.293,22.293,24.73,23.855A6.992,6.992,0,1,0,16,34.736V37a1,1,0,0,0,.293.707l2,2,1.414-1.414L18,36.586v-.881a6.986,6.986,0,0,0,8-10.291L27.414,24H29V22H27A1,1,0,0,0,26.293,22.293ZM18,33.576V31H16v.969A4.952,4.952,0,0,1,15,29a5.009,5.009,0,0,1,4-4.9V29a1,1,0,0,0,.293.707l3.46,3.46A4.951,4.951,0,0,1,18,33.576ZM25,29a4.969,4.969,0,0,1-.833,2.753L21,28.586V24.1a4.967,4.967,0,0,1,2.307,1.178l-1.014,1.014,1.414,1.414.812-.812A4.94,4.94,0,0,1,25,29Z"></path><rect x="13" y="10" width="4" height="2"></rect><rect x="31" y="24" width="4" height="2"></rect><rect x="21" y="38" width="2" height="2"></rect><rect x="21" y="42" width="8" height="2"></rect><rect x="25" y="38" width="4" height="2"></rect><rect x="19" y="10" width="10" height="2"></rect><rect x="43" y="34" width="2" height="2"></rect><rect x="47" y="34" width="6" height="2"></rect><rect x="43" y="38" width="10" height="2"></rect></g></svg>