<svg xmlns="http://www.w3.org/2000/svg" viewBox="0 0 64 64" x="0px" y="0px"><g data-name="Speech Bubble"><path d="M35,15H3a1,1,0,0,0-1,1V40a1,1,0,0,0,1,1H18.5l5.7,7.6a1,1,0,0,0,.8.4,1.019,1.019,0,0,0,.316-.051A1,1,0,0,0,26,48V41h9a1,1,0,0,0,1-1V16A1,1,0,0,0,35,15ZM34,39H25a1,1,0,0,0-1,1v5l-4.2-5.6A1,1,0,0,0,19,39H4V17H34Z"></path><path d="M61,15H39a1,1,0,0,0-1,1V32a1,1,0,0,0,1,1h4v5a1,1,0,0,0,1.707.707L50.414,33H61a1,1,0,0,0,1-1V16A1,1,0,0,0,61,15ZM60,31H50a1,1,0,0,0-.707.293L45,35.586V32a1,1,0,0,0-1-1H40V17H60Z"></path><rect x="8" y="21" width="2" height="2"></rect><rect x="12" y="21" width="2" height="2"></rect><rect x="16" y="21" width="14" height="2"></rect><rect x="8" y="25" width="14" height="2"></rect><rect x="24" y="25" width="2" height="2"></rect><rect x="28" y="25" width="2" height="2"></rect><rect x="8" y="29" width="22" height="2"></rect><rect x="8" y="33" width="8" height="2"></rect><rect x="18" y="33" width="2" height="2"></rect><rect x="22" y="33" width="2" height="2"></rect><rect x="26" y="33" width="4" height="2"></rect><rect x="42" y="19" width="2" height="2"></rect><rect x="46" y="19" width="2" height="2"></rect><rect x="50" y="19" width="8" height="2"></rect><rect x="42" y="23" width="8" height="2"></rect><rect x="52" y="23" width="2" height="2"></rect><rect x="56" y="23" width="2" height="2"></rect><rect x="42" y="27" width="16" height="2"></rect></g></svg>