<svg xmlns="http://www.w3.org/2000/svg" viewBox="0 0 64 64" x="0px" y="0px"><g><path d="M30,24v5a.983.983,0,0,1-.084.4l-1.681,3.843a4.942,4.942,0,0,0,1.425.177,5.02,5.02,0,0,0,2-.361,6.874,6.874,0,0,1,2.668-.479,8.074,8.074,0,0,1,1.181.081L34.084,29.4A.983.983,0,0,1,34,29V24Z"></path><path d="M29,22h6a1,1,0,0,0,0-2H29a1,1,0,0,0,0,2Z"></path><path d="M32,49A17,17,0,1,0,15,32,17.019,17.019,0,0,0,32,49ZM23.535,39,28,28.791V23.816A2.993,2.993,0,0,1,29,18h6a2.993,2.993,0,0,1,1,5.816v4.975L40.465,39a5,5,0,0,1-4.581,7H28.116a5,5,0,0,1-4.581-7Z"></path><path d="M28.116,44h7.768a3,3,0,0,0,2.749-4.2l-2.094-4.785c-.073-.025-.153-.047-.226-.074a5.678,5.678,0,0,0-3.974,0,6.911,6.911,0,0,1-2.679.48,6.8,6.8,0,0,1-2.234-.328l-2.059,4.7A3,3,0,0,0,28.116,44ZM32,38h2v2H32Zm-4,2h2v2H28Z"></path><path d="M19.791,51.071A1,1,0,0,1,20.91,51a21.881,21.881,0,0,0,5.5,2.284,1,1,0,0,1,.739.844L27.883,60h8.234l.735-5.875a1,1,0,0,1,.739-.844A21.881,21.881,0,0,0,43.09,51a1,1,0,0,1,1.119.074l4.679,3.64,5.823-5.823-3.64-4.679A1,1,0,0,1,51,43.09a21.881,21.881,0,0,0,2.284-5.5,1,1,0,0,1,.844-.739L60,36.117V27.883l-5.875-.735a1,1,0,0,1-.844-.739A21.881,21.881,0,0,0,51,20.91a1,1,0,0,1,.074-1.119l3.64-4.679L48.888,9.289l-4.679,3.64A1,1,0,0,1,43.09,13a21.881,21.881,0,0,0-5.5-2.284,1,1,0,0,1-.739-.844L36.117,4H27.883l-.735,5.875a1,1,0,0,1-.739.844A21.881,21.881,0,0,0,20.91,13a1,1,0,0,1-1.119-.074l-4.679-3.64L9.289,15.112l3.64,4.679A1,1,0,0,1,13,20.91a21.881,21.881,0,0,0-2.284,5.5,1,1,0,0,1-.844.739L4,27.883v8.234l5.875.735a1,1,0,0,1,.844.739A21.881,21.881,0,0,0,13,43.09a1,1,0,0,1-.074,1.119l-3.64,4.679,5.823,5.823ZM54,31h2v2H54ZM10,33H8V31h2ZM33,56H31V54h2Zm15.264-6.322L46.85,48.264l1.414-1.414,1.414,1.414Zm0-35.356,1.414,1.414L48.264,17.15,46.85,15.736ZM31,8h2v2H31ZM15.736,14.322l1.414,1.414L15.736,17.15l-1.414-1.414ZM13,32A19,19,0,1,1,32,51,19.021,19.021,0,0,1,13,32Zm2.736,14.85,1.414,1.414-1.414,1.414-1.414-1.414Z"></path></g></svg>