<svg xmlns="http://www.w3.org/2000/svg" viewBox="0 0 64 64" x="0px" y="0px"><g data-name="Security Man-Avatar-Occupation-Man-Guard"><path d="M15,56h6a1,1,0,0,0,1-1V49a1,1,0,0,0-1-1H15a1,1,0,0,0-1,1v6A1,1,0,0,0,15,56Zm1-6h4v4H16Z"></path><path d="M39,48H33a1,1,0,0,0-1,1v6a1,1,0,0,0,1,1h6a1,1,0,0,0,1-1V49A1,1,0,0,0,39,48Zm-1,6H34V50h4Z"></path><circle cx="23" cy="21" r="2"></circle><circle cx="31" cy="21" r="2"></circle><path d="M30.307,27.75l-1.323-1.5a3.076,3.076,0,0,1-3.968,0l-1.323,1.5a5,5,0,0,0,6.614,0Z"></path><path d="M27,11a3,3,0,1,0-3-3A3,3,0,0,0,27,11Zm0-4a1,1,0,1,1-1,1A1,1,0,0,1,27,7Z"></path><path d="M56.8,25.19a3.883,3.883,0,0,0-6.68,2.85L51,51.01V59a3,3,0,0,0,6,0V51.01l.88-22.97A3.862,3.862,0,0,0,56.8,25.19ZM55,59a1,1,0,0,1-2,0V52h2Zm.04-9H52.96l-.85-22.04a1.86,1.86,0,0,1,.53-1.38,1.925,1.925,0,0,1,2.72,0,1.86,1.86,0,0,1,.53,1.38Z"></path><path d="M46.77,44.39a2.964,2.964,0,0,0-1.54-4.35L37.71,37.3a1,1,0,0,0-1.28.6l-.25.67L32,37.26V33.79A11.028,11.028,0,0,0,37.95,25H38a4,4,0,0,0,1.46-7.72c.03-.06.21-.38.21-.38A2.979,2.979,0,0,0,38,12.75V7a5,5,0,0,0-5-5H21a5,5,0,0,0-5,5v5.75a2.979,2.979,0,0,0-1.67,4.15s.18.32.21.38A4,4,0,0,0,16,25h.05a10.919,10.919,0,0,0,3.17,6.78A11.064,11.064,0,0,0,22,33.79v3.47l-4.18,1.31-.25-.67a1,1,0,0,0-1.28-.6L8.77,40.04a2.964,2.964,0,0,0-1.54,4.35A8.908,8.908,0,0,0,6,48.88V61a1,1,0,0,0,1,1H47a1,1,0,0,0,1-1V48.88A8.908,8.908,0,0,0,46.77,44.39ZM38,19a2.006,2.006,0,0,1,2,2,2.015,2.015,0,0,1-2,2ZM16,23a2.015,2.015,0,0,1-2-2,2.006,2.006,0,0,1,2-2ZM41.72,40.89l2.82,1.03a1,1,0,0,1,.6,1.28,1.016,1.016,0,0,1-1.28.6l-2.82-1.03Zm-3.75-1.37,1.88.69-.69,1.88-1.88-.69Zm-5.24.07-1.17,3.55-2.87-2.87,2.4-1.2ZM27,38.88l-3-1.5v-2.8a10.8,10.8,0,0,0,6-.01v2.81Zm1.12,3.66L27.38,44h-.76l-.74-1.46L27,41.41ZM18,7a3.009,3.009,0,0,1,3-3H33a3.009,3.009,0,0,1,3,3v5.37l-6.42-.98a16.6,16.6,0,0,0-5.17,0L18,12.37Zm-1.78,9.21-.1-.2a1.006,1.006,0,0,1,.01-.91.978.978,0,0,1,.73-.53l7.86-1.21a15.374,15.374,0,0,1,4.56,0l7.86,1.21a.978.978,0,0,1,.73.53,1.006,1.006,0,0,1,.01.91l-.1.2a1.02,1.02,0,0,1-1.08.54l-7.37-1.34a13.031,13.031,0,0,0-4.66,0L17.3,16.75A1.006,1.006,0,0,1,16.22,16.21Zm4.42,14.15A8.942,8.942,0,0,1,18,24V18.65l7.03-1.28a11.1,11.1,0,0,1,3.94.01L36,18.65V24a8.994,8.994,0,0,1-15.36,6.36Zm2.27,8.71,2.4,1.2-2.87,2.87-1.17-3.55Zm-6.88.45.69,1.88-1.88.69-.69-1.88Zm-6.57,2.4,2.82-1.03.68,1.88L10.14,43.8a.974.974,0,0,1-.34.06.9.9,0,0,1-.42-.1.956.956,0,0,1-.52-.56A1,1,0,0,1,9.46,41.92ZM23.12,60H15V57H13v3H8V48.88a6.989,6.989,0,0,1,.79-3.21,2.874,2.874,0,0,0,1.01.19,3,3,0,0,0,1.02-.18l7.52-2.74a1,1,0,0,0,.6-1.28l-.44-1.21.86-.27,1.69,5.13a1,1,0,0,0,.72.66A.908.908,0,0,0,22,46a1.007,1.007,0,0,0,.71-.29l1.68-1.69.58,1.16Zm2.01,0,1.75-14h.24l1.75,14ZM46,60H41V57H39v3H30.88L29.03,45.18l.58-1.16,1.68,1.69A1.007,1.007,0,0,0,32,46a.908.908,0,0,0,.23-.03,1,1,0,0,0,.72-.66l1.69-5.13.86.27-.44,1.21a1,1,0,0,0,.6,1.28l7.52,2.74a3,3,0,0,0,1.02.18,2.874,2.874,0,0,0,1.01-.19A6.989,6.989,0,0,1,46,48.88Z"></path></g></svg>