<svg xmlns="http://www.w3.org/2000/svg" viewBox="0 0 64 64" x="0px" y="0px"><title>Cloud Database</title><g data-name="Cloud Database"><path d="M51.6,14.472A15.989,15.989,0,0,0,22.149,10L22,10A13.025,13.025,0,0,0,9.221,20.671,11.061,11.061,0,0,0,2.048,32.044,11.241,11.241,0,0,0,13.3,42H17V40H13.3A9.226,9.226,0,0,1,4.04,31.86,9.047,9.047,0,0,1,10.4,22.384a1,1,0,0,0,.7-.827A11.016,11.016,0,0,1,22,12c.157,0,.311.011.465.021l.2.013a.987.987,0,0,0,.944-.533A13.989,13.989,0,0,1,49.76,15.475a1,1,0,0,0,.774.8,12.021,12.021,0,0,1,9.411,12.893A12.28,12.28,0,0,1,47.639,40H47v2h.639a14.294,14.294,0,0,0,14.3-12.646A14.026,14.026,0,0,0,51.6,14.472Z"></path><rect x="39" y="51" width="2" height="2"></rect><rect x="35" y="51" width="2" height="2"></rect><rect x="31" y="51" width="2" height="2"></rect><rect x="39" y="41" width="2" height="2"></rect><rect x="35" y="41" width="2" height="2"></rect><rect x="31" y="41" width="2" height="2"></rect><path d="M43,27H21a2,2,0,0,0-2,2v8a1.978,1.978,0,0,0,.278,1A1.978,1.978,0,0,0,19,39v8a1.978,1.978,0,0,0,.278,1A1.978,1.978,0,0,0,19,49v8a2,2,0,0,0,2,2v2a1,1,0,0,0,1,1H42a1,1,0,0,0,1-1V59a2,2,0,0,0,2-2V49a1.978,1.978,0,0,0-.278-1A1.978,1.978,0,0,0,45,47V39a1.978,1.978,0,0,0-.278-1A1.978,1.978,0,0,0,45,37V29A2,2,0,0,0,43,27ZM21,29H43v8H21ZM43,47H21V39H43ZM41,60H23V59H41Zm2-3H21V49H43Z"></path><rect x="39" y="31" width="2" height="2"></rect><rect x="35" y="31" width="2" height="2"></rect><rect x="31" y="31" width="2" height="2"></rect><path d="M26,30a3,3,0,1,0,3,3A3,3,0,0,0,26,30Zm0,4a1,1,0,1,1,1-1A1,1,0,0,1,26,34Z"></path><path d="M26,46a3,3,0,1,0-3-3A3,3,0,0,0,26,46Zm0-4a1,1,0,1,1-1,1A1,1,0,0,1,26,42Z"></path><path d="M26,56a3,3,0,1,0-3-3A3,3,0,0,0,26,56Zm0-4a1,1,0,1,1-1,1A1,1,0,0,1,26,52Z"></path></g></svg>