<svg xmlns="http://www.w3.org/2000/svg" viewBox="0 0 32 32" x="0px" y="0px"><title>Browser_41</title><g data-name="Browser"><path d="M31,0H1A1,1,0,0,0,0,1V31a1,1,0,0,0,1,1H17V30H6V8H30v8h2V1A1,1,0,0,0,31,0ZM12,2V6H2V2ZM4,30H2V8H4ZM14,6V2H30V6Z"></path><rect x="3" y="3" width="2" height="2"></rect><rect x="6" y="3" width="2" height="2"></rect><rect x="9" y="3" width="2" height="2"></rect><path d="M28,22a3.485,3.485,0,0,0-1.45.314A2.995,2.995,0,0,0,21.9,23a3,3,0,0,0-2.553,1.593,3.164,3.164,0,0,0,.257,3.293A2.634,2.634,0,0,0,21.812,29h6.4a3.159,3.159,0,0,0,2.709-1.5,3.658,3.658,0,0,0,.126-3.721A3.509,3.509,0,0,0,28,22Zm1.208,4.471a1.154,1.154,0,0,1-.995.529h-6.4a.669.669,0,0,1-.549-.233,1.169,1.169,0,0,1-.147-1.235A1,1,0,0,1,22,25a.977.977,0,0,1,.269.036,1,1,0,0,0,1.253-.749A1,1,0,0,1,24.5,23.5a.994.994,0,0,1,.9.578,1,1,0,0,0,1.587.318,1.548,1.548,0,0,1,2.319.368A1.625,1.625,0,0,1,29.208,26.471Z"></path></g></svg>