<svg xmlns="http://www.w3.org/2000/svg" viewBox="0 0 64 64" x="0px" y="0px"><path d="M22,29a5.4,5.4,0,0,1-1.15-.14A4.9,4.9,0,0,1,22,32a4.9,4.9,0,0,1,1.15-3.14A5.4,5.4,0,0,1,22,29Z"></path><path d="M23.03,35A4.924,4.924,0,0,1,22,32a4.924,4.924,0,0,1-1.03,3Z"></path><path d="M23.03,43A4.924,4.924,0,0,1,22,40a4.924,4.924,0,0,1-1.03,3Z"></path><circle cx="22" cy="24" r="3"></circle><circle cx="17" cy="32" r="3"></circle><path d="M20.97,45A4.924,4.924,0,0,1,22,48a4.924,4.924,0,0,1,1.03-3Z"></path><path d="M20.97,37A4.924,4.924,0,0,1,22,40a4.924,4.924,0,0,1,1.03-3Z"></path><circle cx="17" cy="40" r="3"></circle><path d="M23.03,51A4.924,4.924,0,0,1,22,48a4.924,4.924,0,0,1-1.03,3Z"></path><circle cx="7" cy="40" r="3"></circle><path d="M22,19H47a3,3,0,0,0,0-6H20.97a4.873,4.873,0,0,1-.12,6.14A5.4,5.4,0,0,1,22,19Zm22-4h2v2H44Zm-6,0h4v2H38Z"></path><circle cx="7" cy="32" r="3"></circle><path d="M57,45H30.97a4.884,4.884,0,0,1,0,6H57a3,3,0,0,0,0-6Zm-5,4H48V47h4Zm4,0H54V47h2Z"></path><circle cx="7" cy="48" r="3"></circle><circle cx="12" cy="24" r="3"></circle><circle cx="17" cy="16" r="3"></circle><path d="M17,27a5.4,5.4,0,0,1,1.15.14A4.9,4.9,0,0,1,17,24a4.9,4.9,0,0,1-1.15,3.14A5.4,5.4,0,0,1,17,27Z"></path><path d="M17,21a5.4,5.4,0,0,1-1.15-.14A4.9,4.9,0,0,1,17,24a4.9,4.9,0,0,1,1.15-3.14A5.4,5.4,0,0,1,17,21Z"></path><circle cx="27" cy="40" r="3"></circle><circle cx="17" cy="48" r="3"></circle><path d="M57,37H30.97a4.884,4.884,0,0,1,0,6H57a3,3,0,0,0,0-6Zm-5,4H48V39h4Zm4,0H54V39h2Z"></path><circle cx="27" cy="48" r="3"></circle><circle cx="27" cy="32" r="3"></circle><path d="M55,24a3.009,3.009,0,0,0-3-3H25.97a4.873,4.873,0,0,1-.12,6.14A5.4,5.4,0,0,1,27,27H52A3.009,3.009,0,0,0,55,24Zm-8,1H43V23h4Zm4,0H49V23h2Z"></path><path d="M57,29H30.97a4.884,4.884,0,0,1,0,6H57a3,3,0,0,0,0-6Zm-5,4H48V31h4Zm4,0H54V31h2Z"></path><path d="M13.03,35A4.924,4.924,0,0,1,12,32a4.924,4.924,0,0,1-1.03,3Z"></path><path d="M13.03,43A4.924,4.924,0,0,1,12,40a4.924,4.924,0,0,1-1.03,3Z"></path><path d="M10.85,28.86A4.9,4.9,0,0,1,12,32a4.9,4.9,0,0,1,1.15-3.14A5.4,5.4,0,0,1,12,29,5.4,5.4,0,0,1,10.85,28.86Z"></path><path d="M10.97,37A4.924,4.924,0,0,1,12,40a4.924,4.924,0,0,1,1.03-3Z"></path><path d="M13.03,51A4.924,4.924,0,0,1,12,48a4.924,4.924,0,0,1-1.03,3Z"></path><path d="M10.97,45A4.924,4.924,0,0,1,12,48a4.924,4.924,0,0,1,1.03-3Z"></path></svg>