<svg xmlns="http://www.w3.org/2000/svg" viewBox="0 0 64 64" x="0px" y="0px"><g><path d="M51,60a1,1,0,0,0,1-1V40a4.982,4.982,0,0,1-4-2.031,4.954,4.954,0,0,1-8,0,4.954,4.954,0,0,1-8,0,4.954,4.954,0,0,1-8,0,4.954,4.954,0,0,1-8,0A4.982,4.982,0,0,1,12,40V59a1,1,0,0,0,1,1h3V47a3,3,0,0,1,3-3h6a3,3,0,0,1,3,3V60ZM32,46a2,2,0,0,1,2-2H46a2,2,0,0,1,2,2v6a2,2,0,0,1-2,2H34a2,2,0,0,1-2-2Z"></path><path d="M19,46a1,1,0,0,0-1,1V60h8V47a1,1,0,0,0-1-1Zm6,9H23V51h2Z"></path><path d="M13.043,10.183a6.954,6.954,0,0,0,4.331,7.3,7.031,7.031,0,0,0,6.394-.583,4.972,4.972,0,0,1,4.078-.676l.027.006a3.529,3.529,0,0,1,.642.235c.206.094.421.174.645.255a6.153,6.153,0,0,0,2.661.216,5.866,5.866,0,0,0,1.827-.553c.126-.063.256-.136.377-.209.019-.012.037-.024.057-.035A5.905,5.905,0,0,0,36.173,14H32a1,1,0,0,1-1-1V9a1,1,0,0,1,1-1h4.2a6,6,0,0,0-3.96-2.88A6.094,6.094,0,0,0,28.61,5.5a4.981,4.981,0,0,1-4.76-.342,7,7,0,0,0-10.807,5.028ZM19,13H17V9h2Zm6-6a4,4,0,1,1-4,4A4,4,0,0,1,25,7Z"></path><polygon points="51 9.133 51 12.867 57 12.117 57 9.883 51 9.133"></polygon><circle cx="25" cy="11" r="2"></circle><path d="M17,31v4a3,3,0,0,0,6,0V25a8.968,8.968,0,0,1,2.463-6.179c-.346.13-.691.27-1.035.433A13.074,13.074,0,0,0,17,31Z"></path><rect x="34" y="46" width="12.001" height="6"></rect><rect x="33" y="10" width="16" height="2"></rect><path d="M8,34a1,1,0,0,1,1,1,2.987,2.987,0,0,0,2.247,2.9A2.7,2.7,0,0,0,12,38a3,3,0,0,0,3-3V31a15.07,15.07,0,0,1,4.835-11.008,8.829,8.829,0,0,1-2.785-.5A16.968,16.968,0,0,0,7.029,34Z"></path><path d="M52.729,37.907A2.994,2.994,0,0,0,55,35a1,1,0,0,1,1-1h.971A16.986,16.986,0,0,0,41.6,18.078,15.086,15.086,0,0,1,49,31v4a3,3,0,0,0,3,3A2.634,2.634,0,0,0,52.729,37.907Z"></path><path d="M44,38a3,3,0,0,0,3-3V31a13.075,13.075,0,0,0-7.43-11.747c-.336-.16-.68-.3-1.027-.426A9,9,0,0,1,41,25V35A3,3,0,0,0,44,38Z"></path><path d="M28,38a3,3,0,0,0,3-3V19a8.164,8.164,0,0,1-2.06-.287,7.107,7.107,0,0,0-1.9,1.339A6.986,6.986,0,0,0,25,25V35A3,3,0,0,0,28,38Z"></path><path d="M33,18.721V35a3,3,0,0,0,6,0V25a6.979,6.979,0,0,0-4.893-6.655A7.718,7.718,0,0,1,33,18.721Z"></path></g></svg>