<svg xmlns="http://www.w3.org/2000/svg" viewBox="0 0 64 64" x="0px" y="0px"><title>Power-Shutdown</title><g><path d="M32,35a11,11,0,0,0,3.3-21.5l-.6,1.908a9,9,0,1,1-5.4,0L28.7,13.5A11,11,0,0,0,32,35Z"></path><rect x="31" y="11" width="2" height="14"></rect><path d="M59,2H5A3,3,0,0,0,2,5V45a3,3,0,0,0,3,3H22.9l-.8,8H19a1,1,0,0,0-1,1v3H16v2H48V60H46V57a1,1,0,0,0-1-1H41.905l-.8-8H59a3,3,0,0,0,3-3V5A3,3,0,0,0,59,2ZM44,58v2H20V58ZM24.105,56l.8-8H39.1l.8,8ZM60,45a1,1,0,0,1-1,1H5a1,1,0,0,1-1-1V5A1,1,0,0,1,5,4H59a1,1,0,0,1,1,1Z"></path><path d="M56,6H8A2,2,0,0,0,6,8V39a1,1,0,0,0,1,1H57a1,1,0,0,0,1-1V8A2,2,0,0,0,56,6Zm0,32H8V8H56Z"></path><rect x="31" y="42" width="2" height="2"></rect></g></svg>