<svg xmlns="http://www.w3.org/2000/svg" viewBox="0 0 64 64" x="0px" y="0px"><g><path d="M60,32A12.01,12.01,0,0,1,48,44H42a10.023,10.023,0,0,0-7-9.54V32a1,1,0,0,0-1-1H33V29a1,1,0,0,1,1-1h1a3.009,3.009,0,0,0,3-3V20H36v5a1,1,0,0,1-1,1H34a3.009,3.009,0,0,0-3,3v2H30a1,1,0,0,0-1,1v2.46A10.023,10.023,0,0,0,22,44H13a9,9,0,0,1-2.6-17.62.987.987,0,0,0,.71-.82A11.007,11.007,0,0,1,22,16c.15,0,.3.01.45.02l.21.01a1,1,0,0,0,.95-.53,13.985,13.985,0,0,1,26.15,3.98.994.994,0,0,0,.77.79A12.053,12.053,0,0,1,60,32Z"></path><path d="M24,44a8,8,0,1,0,8-8A8.009,8.009,0,0,0,24,44Zm8,5v2a7.008,7.008,0,0,1-7-7h2A5.006,5.006,0,0,0,32,49Z"></path><path d="M33,34.051V33H31v1.051a9.829,9.829,0,0,1,2,0Z"></path></g></svg>