<svg xmlns="http://www.w3.org/2000/svg" viewBox="0 0 64 64" x="0px" y="0px"><g><path d="M53,41a5.961,5.961,0,0,1-1.115,3.471L53.312,45.9A7.981,7.981,0,0,0,48,33.069V35.09A6.006,6.006,0,0,1,53,41Z"></path><path d="M47,47a6.006,6.006,0,0,1-5.91-5H39.069A7.981,7.981,0,0,0,51.9,47.312l-1.427-1.427A5.961,5.961,0,0,1,47,47Z"></path><circle cx="47" cy="41" r="4"></circle><path d="M41.09,40A6.008,6.008,0,0,1,46,35.09V33.069A8.008,8.008,0,0,0,39.069,40Z"></path><circle cx="25" cy="9" r="1"></circle><circle cx="25" cy="21" r="1"></circle><path d="M42.269,12.457,46,5.741V5a1,1,0,0,0-1-1H5A1,1,0,0,0,4,5v.741l3.731,6.716A3,3,0,0,0,10.354,14H24V11.816a3,3,0,1,1,2,0V14H39.646A3,3,0,0,0,42.269,12.457Z"></path><path d="M55,26h3.586L54,21.414V25A1,1,0,0,0,55,26Z"></path><path d="M55,28a3.009,3.009,0,0,1-3-3V20H35a1,1,0,0,0-1,1V55a1,1,0,0,0,1,1H59a1,1,0,0,0,1-1V28ZM42,22h4v2H42Zm-4,0h2v2H38Zm0,4h8v2H38Zm-2,4h4v2H36Zm4,23H36V51h4Zm7-2A10,10,0,1,1,57,41,10.016,10.016,0,0,1,47,51ZM58,32H54V30h4Z"></path><path d="M18,28a8,8,0,1,0,8,8A8.011,8.011,0,0,0,18,28Zm-1,7h2a3,3,0,0,1,0,6v1H17V41a3.009,3.009,0,0,1-3-3h2a1,1,0,0,0,1,1h2a1,1,0,0,0,0-2H17a3,3,0,0,1,0-6V30h2v1a3.009,3.009,0,0,1,3,3H20a1,1,0,0,0-1-1H17a1,1,0,0,0,0,2Z"></path><path d="M35,18H46V9.86l-1.98,3.57A5.017,5.017,0,0,1,39.65,16H26v2.18a3,3,0,1,1-2,0V16H10.35a5.017,5.017,0,0,1-4.37-2.57L4,9.86V59a1,1,0,0,0,1,1H45a1,1,0,0,0,1-1V58H35a3.009,3.009,0,0,1-3-3V21A3.009,3.009,0,0,1,35,18ZM18,46A10,10,0,1,1,28,36,10.016,10.016,0,0,1,18,46Z"></path></g></svg>