<svg xmlns="http://www.w3.org/2000/svg" viewBox="0 0 64 64" x="0px" y="0px"><g data-name="Pot"><path d="M59,24H55V21a1,1,0,0,0-1-1H10a1,1,0,0,0-1,1v3H5a3,3,0,0,0-3,3v4a3,3,0,0,0,3,3H9V53a5.006,5.006,0,0,0,5,5H50a5.006,5.006,0,0,0,5-5V34h4a3,3,0,0,0,3-3V27A3,3,0,0,0,59,24ZM9,32H5a1,1,0,0,1-1-1V27a1,1,0,0,1,1-1H9Zm4-10v1h2V22h2v1h2V22h2v1h2V22h2v1h2V22h2v1h2V22h2v1h2V22h2v1h2V22h2v1h2V22h2v1h2V22h2v1h2V22h2v2H11V22ZM50,56H14a3,3,0,0,1-3-3V26H53V53A3,3,0,0,1,50,56ZM60,31a1,1,0,0,1-1,1H55V26h4a1,1,0,0,1,1,1Z"></path><path d="M8,18H56a1,1,0,0,0,1-1V15a3,3,0,0,0-3-3H36.886A4.874,4.874,0,0,0,37,11a5,5,0,0,0-10,0,4.874,4.874,0,0,0,.114,1H10a3,3,0,0,0-3,3v2A1,1,0,0,0,8,18Zm21-7a3,3,0,0,1,6,0,2.926,2.926,0,0,1-.2,1H29.2A2.926,2.926,0,0,1,29,11ZM9,15a1,1,0,0,1,1-1H54a1,1,0,0,1,1,1v1H9Z"></path><path d="M49,51a1,1,0,0,1-1,1H44v2h4a3,3,0,0,0,3-3V47H49Z"></path><rect x="40" y="52" width="2" height="2"></rect></g></svg>