<svg xmlns="http://www.w3.org/2000/svg" viewBox="0 0 64 64" x="0px" y="0px"><g><path d="M25.681,20.9a7.86,7.86,0,0,1-1.6-3.9H26V15H24.069a7.953,7.953,0,0,1,1.619-3.9l1.363,1.363,1.414-1.414L27.1,9.688A7.953,7.953,0,0,1,31,8.069V10h2V8.069a7.953,7.953,0,0,1,3.9,1.619l-1.363,1.363,1.414,1.414L38.312,11.1A7.953,7.953,0,0,1,39.931,15H38v2h1.918a7.86,7.86,0,0,1-1.6,3.9l-1.37-1.369-1.414,1.414,2.118,2.118a1,1,0,0,0,1.412,0A9.893,9.893,0,0,0,42,16a10,10,0,0,0-20,0,9.893,9.893,0,0,0,2.935,7.069,1,1,0,0,0,1.412,0l2.118-2.118-1.414-1.414Z"></path><path d="M32,18a2,2,0,1,0-2-2,1.96,1.96,0,0,0,.075.511l-1.782,1.782,1.414,1.414,1.782-1.782A1.96,1.96,0,0,0,32,18Z"></path><path d="M61,49H48.72A2,2,0,0,0,47,48H43a2,2,0,0,0-1.72,1H37V41h2.18A3.01,3.01,0,0,0,42,43h1a3,3,0,0,0,6,0V41a3,3,0,0,0,0-6V33a3,3,0,0,0-6,0H42a3.01,3.01,0,0,0-2.82,2H37V34a1,1,0,0,0-1-1H35V29.67a14,14,0,1,0-6,0V33H28a1,1,0,0,0-1,1V49H22.72A2,2,0,0,0,21,48H17a2,2,0,0,0-1.72,1H3a1,1,0,0,0-1,1V60a1,1,0,0,0,1,1H15.28A2,2,0,0,0,17,62h4a2,2,0,0,0,1.72-1h4.06a14.124,14.124,0,0,0,10.44,0h4.06A2,2,0,0,0,43,62h4a2,2,0,0,0,1.72-1H61a1,1,0,0,0,1-1V50A1,1,0,0,0,61,49ZM49,37a1,1,0,0,1,0,2Zm-4-4a1,1,0,0,1,2,0v2H45Zm0,4h2v2H45Zm0,4h2v2a1,1,0,0,1-2,0Zm-4-5a1,1,0,0,1,1-1h1v6H42a1,1,0,0,1-1-1Zm-4,1h2v2H37ZM15,59H4V51H15Zm6,1H17V58h4Zm0-4H17V54h4Zm0-4H17V50h4ZM20,16A12,12,0,1,1,32,28,12.01,12.01,0,0,1,20,16ZM33,29.95V33H31V29.95c.33.02.66.05,1,.05S32.67,29.97,33,29.95ZM41,59H37a1,1,0,0,0-.45.11A11.305,11.305,0,0,1,32,60a11.484,11.484,0,0,1-4.55-.89A1,1,0,0,0,27,59H23V51h5a1,1,0,0,0,1-1V35h6V50a1,1,0,0,0,1,1h5Zm6,1H43V58h4Zm0-4H43V54h4Zm0-4H43V50h4Zm13,7H49V51H60Z"></path><rect x="6" y="53" width="2" height="2"></rect><rect x="51" y="53" width="2" height="2"></rect><path d="M32,56a3.46,3.46,0,0,1-2.3-.719l-1.4,1.426A5.306,5.306,0,0,0,32,58a5.306,5.306,0,0,0,3.707-1.293l-1.4-1.426A3.46,3.46,0,0,1,32,56Z"></path></g></svg>