<svg xmlns="http://www.w3.org/2000/svg" viewBox="0 0 64 64" x="0px" y="0px"><g><path d="M60.575,8.376A6.961,6.961,0,0,0,53.6,2H10.4A6.961,6.961,0,0,0,3.425,8.376C2.721,16.327,2,25.351,2,32s.721,15.673,1.425,23.624A6.961,6.961,0,0,0,10.4,62H53.6a6.961,6.961,0,0,0,6.972-6.376C61.279,47.673,62,38.649,62,32S61.279,16.327,60.575,8.376ZM58.583,55.447A4.972,4.972,0,0,1,53.6,60H10.4a4.972,4.972,0,0,1-4.98-4.553C4.716,47.54,4,38.571,4,32S4.716,16.46,5.417,8.553A4.972,4.972,0,0,1,10.4,4H53.6a4.972,4.972,0,0,1,4.98,4.553C59.284,16.46,60,25.429,60,32S59.284,47.54,58.583,55.447Z"></path><path d="M28,12h8a3,3,0,0,0,0-6H28a3,3,0,0,0,0,6Zm0-4h8a1,1,0,0,1,0,2H28a1,1,0,0,1,0-2Z"></path><path d="M32,14a20.723,20.723,0,0,0-14.526,5.881A3.961,3.961,0,0,0,15,19a3.992,3.992,0,0,0-2.137,7.369A21,21,0,1,0,32,14ZM15,21a2,2,0,1,1-2,2A2,2,0,0,1,15,21ZM32,54A18.979,18.979,0,0,1,14.788,26.979c.071,0,.139.021.212.021a3.992,3.992,0,0,0,3.7-5.523A18.755,18.755,0,0,1,32,16a19,19,0,0,1,0,38Z"></path><path d="M32,30a5,5,0,1,0,5,5A5.006,5.006,0,0,0,32,30Zm0,8a3,3,0,1,1,3-3A3,3,0,0,1,32,38Z"></path><path d="M32,24A11,11,0,1,0,43,35,11.013,11.013,0,0,0,32,24Zm0,20a9,9,0,1,1,9-9A9.01,9.01,0,0,1,32,44Z"></path><path d="M32,20A15,15,0,1,0,47,35,15.017,15.017,0,0,0,32,20Zm0,28A13,13,0,1,1,45,35,13.015,13.015,0,0,1,32,48Z"></path><path d="M15,10a3,3,0,1,0-3,3A3,3,0,0,0,15,10Zm-4,0a1,1,0,1,1,1,1A1,1,0,0,1,11,10Z"></path><rect x="47" y="7" width="6" height="2"></rect><rect x="47" y="11" width="6" height="2"></rect></g></svg>