<svg xmlns="http://www.w3.org/2000/svg" viewBox="0 0 64 64" x="0px" y="0px"><g><path d="M46.69,43.3l-8.7-2.72-.01-.01a87.019,87.019,0,0,0,10.54-2.12,3,3,0,0,0,2.21-3.35l-1.5-10a2.764,2.764,0,0,0,.15-.43,2.944,2.944,0,0,0-.39-2.44,2.948,2.948,0,0,0-.02-4.46,2.961,2.961,0,0,0,.42-2.43,3.152,3.152,0,0,0-.39-.83V14a1.994,1.994,0,0,0-1.03-1.74A2.842,2.842,0,0,0,47.59,11,3.01,3.01,0,0,0,45.6,9.57,3,3,0,0,0,42.43,6.4a2.981,2.981,0,0,0-3.87-2.23,2.974,2.974,0,0,0-1.9-1.55,2.923,2.923,0,0,0-2.42.39,2.989,2.989,0,0,0-4.48,0,2.923,2.923,0,0,0-2.42-.39,2.974,2.974,0,0,0-1.9,1.55A2.919,2.919,0,0,0,23,4.41,3.01,3.01,0,0,0,21.57,6.4,3,3,0,0,0,18.4,9.57a2.945,2.945,0,0,0-1.98,1.42,2.9,2.9,0,0,0-.39,1.27A1.994,1.994,0,0,0,15,14v.51a2.906,2.906,0,0,0-.38.82,2.944,2.944,0,0,0,.41,2.44,2.959,2.959,0,0,0-.02,4.47,2.9,2.9,0,0,0-.4,2.41,3.43,3.43,0,0,0,.16.45l-1.5,10a3,3,0,0,0,2.21,3.35,87.019,87.019,0,0,0,10.54,2.12l-.01.01-8.7,2.71A8.963,8.963,0,0,0,11,51.88V61a1,1,0,0,0,1,1H52a1,1,0,0,0,1-1V51.88A8.941,8.941,0,0,0,46.69,43.3Zm.89-14.29a2.717,2.717,0,0,0,.16-.35l1.01,6.74a1,1,0,0,1-.74,1.11A83.941,83.941,0,0,1,37,38.67V36.76a9.556,9.556,0,0,0,1.53-.95,2.96,2.96,0,0,0,3.9-2.21,2.914,2.914,0,0,0,2.29-.87,2.944,2.944,0,0,0,.88-2.3A2.977,2.977,0,0,0,47.58,29.01Zm-13.42-4.6a10.834,10.834,0,0,0-4.32,0L23,25.78V19a8.262,8.262,0,0,1,.06-1H40.94A8.386,8.386,0,0,1,41,19v6.78ZM43,20V19c0-.33-.02-.67-.05-1h3.19l.47,3.14a.922.922,0,0,0-.41.48A3.986,3.986,0,0,0,43,20Zm2,4a2.015,2.015,0,0,1-2,2V22A2.006,2.006,0,0,1,45,24Zm-2,4a3.99,3.99,0,0,0,2.76-1.11A.963.963,0,0,1,45.85,28a1,1,0,0,1-1.31.39,1,1,0,0,0-1.19,1.56,1,1,0,0,1-.04,1.37.97.97,0,0,1-1.25.09c.03-.07.07-.15.1-.22A10.666,10.666,0,0,0,42.95,28Zm3.92-3.23A3.945,3.945,0,0,0,47,24c0-.12-.01-.25-.02-.37l.15,1.01A1.071,1.071,0,0,1,46.92,24.77Zm-.07-1.81c.01.01.02.01.04.02l.03.21C46.9,23.11,46.87,23.04,46.85,22.96ZM19.01,11.51a1.018,1.018,0,0,1,.45.1,1,1,0,0,0,1.19-1.56.991.991,0,0,1,1.4-1.4,1,1,0,0,0,1.56-1.19,1.008,1.008,0,0,1,.4-1.32.984.984,0,0,1,1.32.33,1.019,1.019,0,0,0,1.23.37,1,1,0,0,0,.59-1.13,1,1,0,0,1,.71-1.17,1.013,1.013,0,0,1,1.2.66,1,1,0,0,0,1.95-.25.991.991,0,0,1,1.98,0,.994.994,0,0,0,.87.93,1,1,0,0,0,1.08-.68.989.989,0,0,1,1.91.51,1,1,0,0,0,1.82.76A.982.982,0,0,1,40,6.15a1,1,0,0,1,.39,1.31,1,1,0,0,0,1.56,1.19.991.991,0,0,1,1.4,1.4,1,1,0,0,0,1.19,1.56,1,1,0,0,1,1.31.39h-5.4a10.925,10.925,0,0,0-16.9,0h-5.4A.981.981,0,0,1,19.01,11.51ZM37.65,12H26.35a8.981,8.981,0,0,1,11.3,0ZM17,14H47v2H17Zm3.71,14.67a1,1,0,0,0-1.25-.28,1.017,1.017,0,0,1-1.32-.4.967.967,0,0,1,.1-1.1A3.99,3.99,0,0,0,21,28h.05a10.755,10.755,0,0,0,.78,3.17c.04.09.08.16.12.24a.982.982,0,0,1-1.3-1.46A1,1,0,0,0,20.71,28.67ZM17.8,21.62a.922.922,0,0,0-.41-.48L17.86,18h3.19c-.03.33-.05.67-.05,1v1A3.986,3.986,0,0,0,17.8,21.62ZM21,22v4a2.015,2.015,0,0,1-2-2A2.006,2.006,0,0,1,21,22Zm-3.85.97c-.02.08-.05.14-.07.22l.03-.2A.052.052,0,0,0,17.15,22.97Zm-.13.65c-.01.12-.02.25-.02.38a3.945,3.945,0,0,0,.08.77.771.771,0,0,1-.21-.14ZM20.39,60a3.6,3.6,0,0,0-.22-.37A6.735,6.735,0,0,1,19,56a6.609,6.609,0,0,1,1.71-4.29l-1.42-1.42A8.137,8.137,0,0,0,18.08,60H13V51.88a6.964,6.964,0,0,1,4.91-6.68l5.05-1.57-1.67,1.66a1.008,1.008,0,0,0,0,1.42l2.14,2.13-1.98,1.33a.993.993,0,0,0-.31,1.34L26.23,60ZM27,57.39,23.35,51.3l2.2-1.47A.989.989,0,0,0,26,49.1a1.046,1.046,0,0,0-.29-.81L23.41,46,27,42.41Zm0-18.72a83.941,83.941,0,0,1-11.01-2.16,1,1,0,0,1-.74-1.11l1.01-6.74c.05.11.09.23.15.34a3.01,3.01,0,0,0,1.99,1.43,3,3,0,0,0,3.17,3.17,3.012,3.012,0,0,0,2.92,2.39,3.029,3.029,0,0,0,.98-.18,10.021,10.021,0,0,0,1.53.95ZM35,60H29V44.97a4.884,4.884,0,0,0,6,0Zm0-19a3,3,0,0,1-6,0v-.12c1.01.07,2.02.12,3,.12s1.99-.05,3-.12Zm0-2.13c-1.02.08-2.03.13-3,.13s-1.98-.05-3-.13v-1.3a10.68,10.68,0,0,0,6,0Zm-6.6-3.63a8.626,8.626,0,0,1-2.18-1.35,9.133,9.133,0,0,1-1.91-2.25l5.8-.65-.22-1.98-6.46.71a8.875,8.875,0,0,1-.39-1.91l7.2-1.44a9.065,9.065,0,0,1,3.52,0l7.2,1.44a8.875,8.875,0,0,1-.39,1.91l-6.46-.71-.22,1.98,5.81.65a9.251,9.251,0,0,1-1.34,1.72,6.315,6.315,0,0,1-.59.54,8.848,8.848,0,0,1-2.18,1.35A8.95,8.95,0,0,1,28.4,35.24ZM37,42.41,40.59,46l-2.3,2.29a1.046,1.046,0,0,0-.29.81.989.989,0,0,0,.45.73l2.2,1.47L37,57.39ZM51,60H45.92a8.137,8.137,0,0,0-1.21-9.71l-1.42,1.42A6.609,6.609,0,0,1,45,56a6.723,6.723,0,0,1-1.18,3.64c-.08.12-.14.24-.21.36H37.77l5.09-8.49a.993.993,0,0,0-.31-1.34l-1.98-1.33,2.14-2.13a1.008,1.008,0,0,0,0-1.42l-1.67-1.66,5.05,1.58A6.943,6.943,0,0,1,51,51.88Z"></path><circle cx="28" cy="21" r="2"></circle><circle cx="36" cy="21" r="2"></circle></g></svg>