<svg xmlns="http://www.w3.org/2000/svg" viewBox="0 0 64 64" x="0px" y="0px"><g><circle cx="32" cy="32" r="3"></circle><path d="M60,51.586V47.3L58.845,45.57,58,46.414V47H56V46a1,1,0,0,1,.293-.707L58,43.586V40.414L56.586,39H54.414L53,40.414V41H51V40a1,1,0,0,1,.293-.707l1.563-1.563L52.279,36H50.414L49,37.414V58.586L50.414,60h1.865l.577-1.73-1.563-1.563A1,1,0,0,1,51,56V55h2v.586l1.307,1.307L57,56.219V51h2v1.586ZM51,46V43h2v2.586l1.707,1.707-1.414,1.414-2-2A1,1,0,0,1,51,46Zm4,8H53V52.414l-.707-.707,1.414-1.414,1,1A1,1,0,0,1,55,52Z"></path><path d="M37.758,57.97A1,1,0,0,1,37,57V55.414l-2.707-2.707A1,1,0,0,1,34,52V47a1.006,1.006,0,0,1,.168-.555L36,43.7V40a1,1,0,0,1,.293-.707l2-2A1,1,0,0,1,39,37h2.279l.773-2.316A1,1,0,0,1,43,34h3a1,1,0,0,1,.707.293L48,35.586l1.293-1.293A1,1,0,0,1,50,34h3a1,1,0,0,1,.948.684L54.721,37H57a1,1,0,0,1,.707.293l1.454,1.454c.187-.747.346-1.5.469-2.266.083-.518.148-1.04.2-1.565.023-.22.053-.439.071-.661.06-.75.1-1.5.1-2.255A28,28,0,1,0,32,60c.466,0,.931-.013,1.4-.036.118-.006.235-.017.353-.024.351-.022.7-.047,1.049-.081.132-.013.264-.031.395-.045.332-.038.663-.08.993-.129l.426-.069c.312-.051.622-.108.932-.17a27.5,27.5,0,0,0,3-.78ZM32,37a4.977,4.977,0,0,1-3.974-2H20a3.015,3.015,0,0,1-3-3,3,3,0,0,1,3-3h8.026A4.993,4.993,0,0,1,29,28.026V17a3,3,0,0,1,6,0V28.026A4.983,4.983,0,0,1,32,37Zm1,15v2H31V52ZM22.866,49.82l-1,1.733-1.732-1,1-1.733ZM20.134,13.447l1.732-1,1,1.733-1.732,1ZM31,12V10h2v2Zm11.866,3.18-1.732-1,1-1.733,1.732,1Zm6.954,7.686-1-1.732,1.733-1,1,1.732ZM54,33H52V31h2ZM32,58A26,26,0,1,1,58,32a26.571,26.571,0,0,1-.185,3.118l-1.986-.236A24.523,24.523,0,0,0,56,32,24,24,0,1,0,32,56a24.443,24.443,0,0,0,2.881-.171l.238,1.985A26.138,26.138,0,0,1,32,58ZM14.18,22.866l-1.733-1,1-1.732,1.733,1Zm1,20-1.733,1-1-1.732,1.733-1ZM12,31v2H10V31Z"></path><path d="M44.707,56.707,43.144,58.27,43.721,60h1.865L47,58.586V37.414L45.586,36H43.721l-.577,1.73,1.563,1.563A1,1,0,0,1,45,40v1H43v-.586L41.586,39H39.414L38,40.414v3.172l1.707,1.707A1,1,0,0,1,40,46v1H38v-.586l-.845-.844L36,47.3v4.283l1,1V51h2v5.219l2.693.674L43,55.586V55h2v1A1,1,0,0,1,44.707,56.707ZM43,52.414V54H41V52a1,1,0,0,1,.293-.707l1-1,1.414,1.414Zm1.707-5.707-2,2-1.414-1.414L43,45.586V43h2v3A1,1,0,0,1,44.707,46.707Z"></path><path d="M20,31a1,1,0,0,0-1,1,.965.965,0,0,0,.287.694A.978.978,0,0,0,20,33h7.1a5,5,0,0,1,0-2Z"></path><path d="M33,27.1V17a1,1,0,0,0-2,0V27.1a5,5,0,0,1,2,0Z"></path></g></svg>