<svg xmlns="http://www.w3.org/2000/svg" viewBox="0 0 64 64" x="0px" y="0px"><g><path d="M61,52H59l.019-27.269a1.006,1.006,0,0,0-.293-.708L41.117,6.413a1,1,0,0,0-1.412,0l-1.42,1.41,0,0A5.019,5.019,0,0,0,38.29,14.9l2.8,2.744a7.589,7.589,0,0,0-8.3,1.467l-.819.8-.821-.8a7.509,7.509,0,0,0-8.188-1.509l2.761-2.71a5.017,5.017,0,0,0,0-7.073l0,0L24.3,6.41a1,1,0,0,0-1.412,0L5.273,24.022a1.006,1.006,0,0,0-.293.708L5,52H3a1,1,0,0,0-1,1v8a1,1,0,0,0,1,1H25a1,1,0,0,0,1-1V53a1,1,0,0,0-1-1H21.889A6.973,6.973,0,0,0,24,47V42a6.986,6.986,0,0,0-4-6.321V30.253c3.656,5.3,11.089,9.407,11.487,9.625a1,1,0,0,0,.95.005c.4-.214,7.89-4.252,11.563-9.537v5.333A6.986,6.986,0,0,0,40,42v5a6.973,6.973,0,0,0,2.111,5H39a1,1,0,0,0-1,1v8a1,1,0,0,0,1,1H61a1,1,0,0,0,1-1V53A1,1,0,0,0,61,52ZM45.271,21.758l2.452,2.407a4.96,4.96,0,0,0-1.733.864A6.853,6.853,0,0,0,45.271,21.758ZM18.019,25.037a4.942,4.942,0,0,0-1.742-.872l2.371-2.327A6.783,6.783,0,0,0,18.019,25.037ZM24,54v6H4V54ZM22,42v5a5.006,5.006,0,0,1-5,5H7L6.98,25.144,23.592,8.532l.713.707a3.012,3.012,0,0,1,0,4.238L13.3,24.286a1,1,0,0,0-.291.714H13V41h2V26a3,3,0,0,1,3,3v7.35a1,1,0,0,0,.672.944A4.979,4.979,0,0,1,22,42Zm9.973-4.148c-2.186-1.278-11.2-6.866-11.928-12.461a5.455,5.455,0,0,1,1.99-4.832,5.652,5.652,0,0,1,3.889-1.535,5.471,5.471,0,0,1,3.828,1.525l1.518,1.474a1,1,0,0,0,1.394,0l1.517-1.474a5.57,5.57,0,0,1,7.708,0l.009.01a5.591,5.591,0,0,1,2.054,4.968C43.2,31.12,34.164,36.6,31.973,37.852ZM42,47V42a4.979,4.979,0,0,1,3.328-4.706A1,1,0,0,0,46,36.35V29a3,3,0,0,1,3-3V41h2V25h-.009a1,1,0,0,0-.291-.714l-11-10.8a3.013,3.013,0,0,1,0-4.246l.712-.707L57.02,25.145,57,52H47A5.006,5.006,0,0,1,42,47ZM60,60H40V54H60Z"></path><rect x="42" y="57" width="2" height="2"></rect><rect x="20" y="57" width="2" height="2"></rect><path d="M22,25h2a2,2,0,0,1,2-2V21A4,4,0,0,0,22,25Z"></path></g></svg>