<svg xmlns="http://www.w3.org/2000/svg" viewBox="0 0 64 64" x="0px" y="0px"><title>Cactus_1</title><g data-name="Cactus"><path d="M52,5H50a3,3,0,0,0-3,3v7H41V11a9,9,0,0,0-18,0V25H19V19a3,3,0,0,0-6,0v9a3,3,0,0,0,3,3h7v7H16a1,1,0,0,0-1,1V55a7.008,7.008,0,0,0,7,7H42a7.008,7.008,0,0,0,7-7V39a1,1,0,0,0-1-1H41V23H52a3,3,0,0,0,3-3V8A3,3,0,0,0,52,5ZM16,29a1,1,0,0,1-1-1V19a1,1,0,0,1,2,0v7a1,1,0,0,0,1,1h5v2ZM47,55a5.006,5.006,0,0,1-5,5H22a5.006,5.006,0,0,1-5-5V40H47ZM25,38V11a7,7,0,0,1,14,0V38ZM53,20a1,1,0,0,1-1,1H41V17h7a1,1,0,0,0,1-1V8a1,1,0,0,1,1-1h2a1,1,0,0,1,1,1Z"></path><rect x="42" y="55" width="2" height="2"></rect><rect x="42" y="51" width="2" height="2"></rect><rect x="38" y="55" width="2" height="2"></rect><rect x="29" y="8" width="2" height="2"></rect><rect x="33" y="8" width="2" height="2"></rect><rect x="29" y="14" width="2" height="2"></rect><rect x="33" y="14" width="2" height="2"></rect><rect x="29" y="20" width="2" height="2"></rect><rect x="33" y="20" width="2" height="2"></rect><rect x="29" y="26" width="2" height="2"></rect><rect x="33" y="26" width="2" height="2"></rect><rect x="29" y="32" width="2" height="2"></rect><rect x="33" y="32" width="2" height="2"></rect></g></svg>