<svg xmlns="http://www.w3.org/2000/svg" viewBox="0 0 64 64" x="0px" y="0px"><g><rect x="31" y="24" width="2" height="2"></rect><path d="M60,42H4v3a3,3,0,0,0,3,3H57a3,3,0,0,0,3-3Zm-4,4H54V44h2Z"></path><path d="M60,12H4V40H60ZM27,28H22a1,1,0,0,1-1-1V15a1,1,0,0,1,1-1H34a1,1,0,0,1,1,1v5H33V16H23V26h4Zm8-5v4a1,1,0,0,1-1,1H30a1,1,0,0,1-1-1V23a1,1,0,0,1,1-1h4A1,1,0,0,1,35,23Zm8,12a1,1,0,0,1-1,1H30a1,1,0,0,1-1-1V30h2v4H41V24H37V22h5a1,1,0,0,1,1,1Z"></path><path d="M20,59a1,1,0,0,0,1,1H43a1,1,0,0,0,0-2H21A1,1,0,0,0,20,59Z"></path><path d="M60,7a3,3,0,0,0-3-3H7A3,3,0,0,0,4,7v3H60ZM10,8H8V6h2Zm4,0H12V6h2Zm4,0H16V6h2Z"></path><polygon points="25.883 50 25.133 56 38.867 56 38.117 50 25.883 50"></polygon></g></svg>