<svg xmlns="http://www.w3.org/2000/svg" viewBox="0 0 64 64" x="0px" y="0px"><g data-name="Cloud Idea"><path d="M50.53,19.27a.994.994,0,0,1-.77-.79A13.985,13.985,0,0,0,23.61,14.5a1,1,0,0,1-.95.53l-.2-.01c-.15-.01-.3-.02-.46-.02a11.007,11.007,0,0,0-10.89,9.56.987.987,0,0,1-.71.82,9.057,9.057,0,0,0-6.36,9.48A9.226,9.226,0,0,0,13.3,43H24.58l.71-.71a1.008,1.008,0,0,1,1.42,0l.71.71H32V39h2v4h3.58l.71-.71a1.008,1.008,0,0,1,1.42,0l.71.71h7.22A12.29,12.29,0,0,0,59.95,32.17,12.032,12.032,0,0,0,50.53,19.27ZM42.9,16.69l1.41,1.41-2.82,2.83-1.42-1.42ZM32,13h2v4H32Zm-8.9,3.69,2.83,2.82-1.42,1.42L21.69,18.1ZM18,27h4v2H18Zm5.1,12.31L21.69,37.9l2.82-2.83,1.42,1.42ZM33,37a9,9,0,1,1,9-9A9.014,9.014,0,0,1,33,37Zm9.9,2.31-2.83-2.82,1.42-1.42,2.82,2.83ZM48,29H44V27h4Z"></path><path d="M33,35a7,7,0,1,0-7-7A7.008,7.008,0,0,0,33,35Zm4-8h2v2H37Zm-4,2a2.993,2.993,0,0,1-1-5.816V22h2v1.184A3,3,0,0,1,36,26H34a1,1,0,1,0-1,1,2.993,2.993,0,0,1,1,5.816V34H32V32.816A3,3,0,0,1,30,30h2a1,1,0,1,0,1-1Zm-4-2v2H27V27Z"></path><path d="M41,47h.586L39,44.414,36.414,47H37a1,1,0,0,1,1,1V59h2V48A1,1,0,0,1,41,47Z"></path><path d="M28,47h.586L26,44.414,23.414,47H24a1,1,0,0,1,1,1V59h2V48A1,1,0,0,1,28,47Z"></path></g></svg>