<svg xmlns="http://www.w3.org/2000/svg" viewBox="0 0 64 64" x="0px" y="0px"><g><path d="M60,44.47a13.233,13.233,0,0,0-.781-4.454L56.667,33H7.333L4.779,40.021A13.231,13.231,0,0,0,4,44.47V53H60ZM29,42a1,1,0,0,1-1,1v5a3,3,0,0,1-3,3H17a3,3,0,0,1-3-3V43a1,1,0,0,1-1-1V38a1,1,0,0,1,1-1H28a1,1,0,0,1,1,1Zm22,0a1,1,0,0,1-1,1v5a3,3,0,0,1-3,3H39a3,3,0,0,1-3-3V43a1,1,0,0,1-1-1V38a1,1,0,0,1,1-1H50a1,1,0,0,1,1,1Z"></path><path d="M38,48a1,1,0,0,0,1,1h8a1,1,0,0,0,1-1V43H38Z"></path><rect x="37" y="39" width="12" height="2"></rect><path d="M16,48a1,1,0,0,0,1,1h8a1,1,0,0,0,1-1V43H16Z"></path><rect x="15" y="39" width="12" height="2"></rect><rect x="6" y="55" width="52" height="2"></rect><path d="M42,11.171V27h2V14A3.006,3.006,0,0,0,42,11.171Z"></path><rect x="24" y="11" width="16" height="2"></rect><path d="M13.8,21a3.018,3.018,0,0,0-2.821,1.975L8.06,31H55.94l-2.919-8.028A3.019,3.019,0,0,0,50.2,21H46v7a1,1,0,0,1-1,1H41a1,1,0,0,1-1-1V21H24v7a1,1,0,0,1-1,1H19a1,1,0,0,1-1-1V21Z"></path><path d="M20,27h2V11.171A3.006,3.006,0,0,0,20,14Z"></path></g></svg>