<svg xmlns="http://www.w3.org/2000/svg" viewBox="0 0 64 64" x="0px" y="0px"><g data-name="Business-Man-Avatar"><path d="M37,28.051V25.9A5.009,5.009,0,0,0,41,21V19a3,3,0,0,0,0-6V10.955a8.918,8.918,0,0,0-2.266-5.918c-.109-.134-.231-.267-.375-.412a9.816,9.816,0,0,0-1.7-1.332,9.167,9.167,0,0,0-9.321.006A9.063,9.063,0,0,0,23,10.96V13a3,3,0,0,0,0,6v2a5.009,5.009,0,0,0,4,4.9v2.152A13.008,13.008,0,0,0,15,41V61a1,1,0,0,0,1,1H48a1,1,0,0,0,1-1V41A13.008,13.008,0,0,0,37,28.051Zm3.754,6.578-2.309,1.539a1,1,0,0,0-.152,1.539l1.2,1.2-4.958,3.857,4.4-10.391a1,1,0,0,0-.1-.927l-.837-1.255c.324.06.641.136.954.223Zm-15.2,1.539-2.309-1.539,1.8-4.216c.313-.087.63-.163.954-.223l-.837,1.255a1,1,0,0,0-.1.927l4.395,10.391-4.958-3.857,1.2-1.2a1,1,0,0,0-.152-1.539ZM35,26v2.649L32,32.4l-3-3.75V26Zm-6.927,4.693,2.5,3.126-2.13,1.6-1.32-3.3ZM32,35.25l2.763,2.071L32,43.538l-2.763-6.217Zm3.556.167-2.13-1.6,2.5-3.126.949,1.424ZM42,16a1,1,0,0,1-1,1V15A1,1,0,0,1,42,16ZM38.814,9.425A4.562,4.562,0,0,1,37.061,6.3a1.009,1.009,0,0,0-.085-.232c.076.079.149.156.241.267A6.93,6.93,0,0,1,38.814,9.425ZM32,4a7.011,7.011,0,0,1,3.614,1,7.95,7.95,0,0,1,.7.488.975.975,0,0,0-.533-.005,14.332,14.332,0,0,1-7.562,0,.973.973,0,0,0-.491-.01,7.542,7.542,0,0,1,.649-.467A7.015,7.015,0,0,1,32,4ZM26.79,6.331c.066-.074.147-.138.216-.21a1,1,0,0,0-.067.183,4.562,4.562,0,0,1-1.753,3.121A6.956,6.956,0,0,1,26.79,6.331ZM22,16a1,1,0,0,1,1-1v2A1,1,0,0,1,22,16Zm3,5V11.745a5.98,5.98,0,0,0,3.687-4.08,16.758,16.758,0,0,0,6.626,0A5.98,5.98,0,0,0,39,11.745V21a3,3,0,0,1-3,3H28A3,3,0,0,1,25,21ZM17,41a11,11,0,0,1,5.386-9.443l-1.3,3.049a1,1,0,0,0,.364,1.226l1.986,1.323-1.138,1.138a1,1,0,0,0,.093,1.5L31,46.49V60H23V41H21V60H17ZM47,60H43V41H41V60H33V46.49l8.614-6.7a1,1,0,0,0,.093-1.5l-1.138-1.138,1.986-1.323a1,1,0,0,0,.364-1.226l-1.3-3.049A11,11,0,0,1,47,41Z"></path><path d="M35,15a1.033,1.033,0,0,0,.71-.29A1.052,1.052,0,0,0,36,14a1,1,0,0,0-.08-.38,1.155,1.155,0,0,0-.21-.33,1.047,1.047,0,0,0-1.42,0,1.155,1.155,0,0,0-.21.33A1,1,0,0,0,34,14a1.028,1.028,0,0,0,.29.71A1.05,1.05,0,0,0,35,15Z"></path><path d="M29,15a.99.99,0,1,0-.71-.29A1.052,1.052,0,0,0,29,15Z"></path></g></svg>