<svg xmlns="http://www.w3.org/2000/svg" viewBox="0 0 64 64" x="0px" y="0px"><g data-name="Education Tools-Ruler-Pencil-Edit Tools"><polygon points="49 28 45 28 45 58.86 49 55.53 49 28"></polygon><path d="M35,40V32H33V42.83A3.014,3.014,0,0,0,35,40Z"></path><rect x="45" y="12" width="2" height="14"></rect><polygon points="50 57.3 46.76 60 53.24 60 50 57.3"></polygon><polygon points="55 28 51 28 51 55.53 55 58.86 55 28"></polygon><rect x="49" y="12" width="2" height="14"></rect><polygon points="45.54 10 50.46 10 49.57 8 46.43 8 45.54 10"></polygon><polygon points="47.32 6 48.68 6 48 4.46 47.32 6"></polygon><rect x="36" y="18" width="2" height="8"></rect><rect x="30" y="14" width="8" height="2"></rect><polygon points="23 6 23 4 17 4 17 26 23 26 23 24 21 24 21 22 23 22 23 20 19 20 19 18 23 18 23 16 21 16 21 14 23 14 23 12 21 12 21 10 23 10 23 8 19 8 19 6 23 6"></polygon><rect x="30" y="18" width="2" height="8"></rect><path d="M23,42.83V32H21v8A3.014,3.014,0,0,0,23,42.83Z"></path><path d="M13,60H43V28H13Zm6-29a1,1,0,0,1,1-1h4a1,1,0,0,1,1,1v8h6V31a1,1,0,0,1,1-1h4a1,1,0,0,1,1,1v9a5,5,0,0,1-5,5H24a5,5,0,0,1-5-5Z"></path><rect x="25" y="41" width="6" height="2"></rect><path d="M35,6.183V4H33V6.183a3,3,0,1,0,2,0ZM35,10H33V8h2Z"></path></g></svg>