<svg xmlns="http://www.w3.org/2000/svg" viewBox="0 0 64 64" x="0px" y="0px"><g data-name="Cafe"><path d="M41,36a1,1,0,0,0-1,1v1H51a1,1,0,0,0,0-2Z"></path><rect x="31" y="44" width="2" height="12"></rect><rect x="20" y="40" width="24" height="2"></rect><path d="M8,46h6V40H13a3,3,0,0,1-3-3,2.966,2.966,0,0,1,.184-1H8Z"></path><rect x="8" y="32" width="2" height="2"></rect><rect x="54" y="32" width="2" height="2"></rect><path d="M50,40v6h6V36H53.816A2.966,2.966,0,0,1,54,37a3,3,0,0,1-3,3Z"></path><path d="M56,24H51.5L50,26h1a1,1,0,0,1,1,1v3h4Z"></path><path d="M56,20H50v1a1,1,0,0,0,1,1h5Z"></path><path d="M23,36H13a1,1,0,0,0,0,2H24V37A1,1,0,0,0,23,36Z"></path><path d="M48,51a1,1,0,0,1,1-1h6a1,1,0,0,0,1-1V48H47a1,1,0,0,0-1,1v7h2Z"></path><path d="M48,58H44a1,1,0,0,0-1,1v1h5Z"></path><path d="M60,60V39a1,1,0,0,0-.353-.762,1.016,1.016,0,0,0-.823-.224A1.086,1.086,0,0,0,58,39.107V49a3,3,0,0,1-3,3H50.344l2.4,8Z"></path><path d="M10,24v6h2V27a1,1,0,0,1,1-1h1l-1.5-2Z"></path><rect x="27" y="58" width="10" height="2"></rect><path d="M13.656,52H9a3,3,0,0,1-3-3V39.107a1.085,1.085,0,0,0-.825-1.093A1,1,0,0,0,4,39V60h7.256Z"></path><path d="M21,59a1,1,0,0,0-1-1H16v2h5Z"></path><path d="M4,21v9H8V24a2,2,0,0,1,2-2h3a1,1,0,0,0,1-1V20H5A1,1,0,0,0,4,21Z"></path><path d="M16,51v5h2V49a1,1,0,0,0-1-1H8v1a1,1,0,0,0,1,1h6A1,1,0,0,1,16,51Z"></path><rect x="31" y="21" width="2" height="2"></rect><rect x="35.949" y="18.949" width="2" height="2" transform="translate(-3.28 31.984) rotate(-45.02)"></rect><path d="M32,17a1.993,1.993,0,0,0,1.722-1H30.278A1.993,1.993,0,0,0,32,17Z"></path><path d="M32,10a5.009,5.009,0,0,0-4.9,4h9.8A5.009,5.009,0,0,0,32,10Z"></path><polygon points="45 2 19 2 19 4 31 4 31 8 33 8 33 4 45 4 45 2"></polygon><rect x="26.05" y="18.949" width="2" height="2" transform="translate(-6.185 24.959) rotate(-44.98)"></rect></g></svg>