<svg xmlns="http://www.w3.org/2000/svg" viewBox="0 0 64 64" x="0px" y="0px"><g data-name="Save-Computer-Disk-Save File-Data"><path d="M11.414,56H52.586l-4-4H15.414ZM46,53h2v2H46Zm-4,0h2v2H42ZM24,53H40v2H24Zm-4,0h2v2H20Zm-4,0h2v2H16Z"></path><rect x="10" y="58" width="44" height="2"></rect><path d="M19,50H17V48a1,1,0,0,0-1-1H10a3,3,0,0,1,0-6h6a1,1,0,0,0,1-1V38h2v2a3,3,0,0,1-3,3H10a1,1,0,0,0,0,2h6a3,3,0,0,1,3,3Z"></path><path d="M38,24V16H26v8ZM28,18h8v2H28Z"></path><polygon points="34 4 32 4 32 6 30 6 30 4 26 4 26 8 34 8 34 4"></polygon><path d="M53,9V30H11V9a1,1,0,0,1,1-1h8V24a2.006,2.006,0,0,0,2,2H42a2.006,2.006,0,0,0,2-2V9a1,1,0,0,0-.23-.64L43.47,8H52A1,1,0,0,1,53,9Z"></path><path d="M42,24V9.36L37.53,4H36V9a1,1,0,0,1-1,1H25a1,1,0,0,1-1-1V4H22V24h2V15a1,1,0,0,1,1-1H39a1,1,0,0,1,1,1v9Z"></path><path d="M11,35a1,1,0,0,0,1,1H52a1,1,0,0,0,1-1V32H11Zm36-2h2v2H47Z"></path><rect x="28" y="38" width="8" height="4"></rect><rect x="23" y="44" width="18" height="2"></rect></g></svg>