<svg xmlns="http://www.w3.org/2000/svg" viewBox="0 0 64 64" x="0px" y="0px"><g><path d="M24,37.03V21a3.009,3.009,0,0,0-3-3H14V36h7A4.924,4.924,0,0,1,24,37.03ZM16,20h6v2H16Zm0,4h6v2H16Zm0,4h6v2H16Zm0,4h6v2H16Z"></path><rect x="10" y="22" width="2" height="18"></rect><path d="M21,38H14v2h9.83A3.014,3.014,0,0,0,21,38Z"></path><path d="M26.17,40H36V38H29A3.014,3.014,0,0,0,26.17,40Z"></path><path d="M36,36V18H29a3.009,3.009,0,0,0-3,3V37.03A4.924,4.924,0,0,1,29,36ZM28,20h6v2H28Zm0,4h6v2H28Zm0,4h6v2H28Zm0,4h6v2H28Z"></path><rect x="38" y="22" width="2" height="18"></rect><rect x="10" y="48" width="18" height="6"></rect><path d="M60,11.96H4V57a3.009,3.009,0,0,0,3,3H57a3.009,3.009,0,0,0,3-3ZM46,20h2v2H46ZM8,21a1,1,0,0,1,1-1h3V17a1,1,0,0,1,1-1h8a4.994,4.994,0,0,1,4,2.03A4.994,4.994,0,0,1,29,16h8a1,1,0,0,1,1,1v3h3a1,1,0,0,1,1,1V41a1,1,0,0,1-1,1H9a1,1,0,0,1-1-1ZM38,46v2H34V46Zm-8,9a1,1,0,0,1-1,1H9a1,1,0,0,1-1-1V47a1,1,0,0,1,1-1H29a1,1,0,0,1,1,1Zm26,1H34V54H56Zm0-4H34V50H56Zm0-4H40V46H56Zm0-6H46V40H56Zm0-4H46V36H56Zm0-4H46V32H56Zm0-4H46V28H56Zm0-4H46V24H56Zm0-4H50V20h6Z"></path><path d="M60,7a3.009,3.009,0,0,0-3-3H7A3.009,3.009,0,0,0,4,7V9.96H60ZM10,8H8V6h2Zm4,0H12V6h2Zm4,0H16V6h2Z"></path></g></svg>