<svg xmlns="http://www.w3.org/2000/svg" viewBox="0 0 64 64" x="0px" y="0px"><g data-name="Pen"><path d="M38,2H26a1,1,0,0,0-1,1V50a1,1,0,0,0,.122.479l6,11a1,1,0,0,0,1.756,0l6-11A1,1,0,0,0,39,50V3A1,1,0,0,0,38,2ZM37,4V8H27V4ZM27.139,50h9.722l-2.182,4H29.321ZM27,48V14H37V48Zm0-36V10H37v2Zm5,46.912L30.412,56h3.176Z"></path><path d="M18,2H10A3,3,0,0,0,7,5V50a1.012,1.012,0,0,0,.071.372l2,5A1,1,0,0,0,10,56h1v5a1,1,0,0,0,1,1h4a1,1,0,0,0,1-1V56h1a1,1,0,0,0,.929-.628l2-5A1.012,1.012,0,0,0,21,50V5A3,3,0,0,0,18,2ZM10,4h8a1,1,0,0,1,1,1V8H9V5A1,1,0,0,1,10,4ZM9,48V14h2V25a3,3,0,0,0,6,0V14h2V48Zm4-34h2V25a1,1,0,0,1-2,0ZM9,12V10H19v2Zm6,48H13V56h2Zm2.323-6H10.677l-1.6-4h9.846Z"></path><path d="M50,2a7.008,7.008,0,0,0-7,7V50a1,1,0,0,0,.122.479l6,11a1,1,0,0,0,1.756,0l6-11A1,1,0,0,0,57,50V9A7.008,7.008,0,0,0,50,2Zm0,2a5.006,5.006,0,0,1,5,5v3H45V9A5.006,5.006,0,0,1,50,4ZM45.139,50h9.722l-2.182,4H47.321ZM45,48V18H55V48Zm0-32V14H55v2Zm5,42.912L48.412,56h3.176Z"></path></g></svg>