<svg xmlns="http://www.w3.org/2000/svg" viewBox="0 0 64 64" x="0px" y="0px"><g><polygon points="39.67 24.92 33.57 38 30.43 38 24.33 24.92 26.14 24.08 31 34.49 31 23 33 23 33 34.49 37.86 24.08 39.67 24.92"></polygon><path d="M23.98,21.772a5.116,5.116,0,0,1-.545.218l.251,1.027,1.415-.661-.632-.86C24.309,21.591,24.151,21.691,23.98,21.772Z"></path><path d="M17.213,7.276a6.022,6.022,0,0,0-2.905,7.982,9.873,9.873,0,0,0,5.216,4.658,4.775,4.775,0,0,0,3.6.048,3.652,3.652,0,0,0,.892-.594,6.373,6.373,0,0,0,1.724-3.559A11.477,11.477,0,0,1,24,10a8,8,0,0,1,.123-1.349A5.95,5.95,0,0,0,17.213,7.276Z"></path><path d="M32,18c3.091,0,6-4.507,6-8a6,6,0,0,0-12,0C26,13.493,28.909,18,32,18Z"></path><path d="M32,20a5.186,5.186,0,0,1-.573-.044L31.219,21h1.562l-.208-1.044A5.186,5.186,0,0,1,32,20Z"></path><path d="M46.787,7.276a5.949,5.949,0,0,0-6.91,1.375A8,8,0,0,1,40,10a11.477,11.477,0,0,1-1.743,5.811,6.372,6.372,0,0,0,1.727,3.561,3.65,3.65,0,0,0,.9.6,4.787,4.787,0,0,0,3.595-.052,9.879,9.879,0,0,0,5.217-4.658A6.023,6.023,0,0,0,46.787,7.276Z"></path><path d="M39.531,21.5l-.632.861,1.415.661.251-1.026a5.432,5.432,0,0,1-.538-.215C39.853,21.693,39.693,21.593,39.531,21.5Z"></path><circle cx="32" cy="47" r="3"></circle><rect x="17" y="59" width="30" height="1"></rect><path d="M47,45h0V40H17V54H47ZM23,52H20a1,1,0,0,1-1-1V48h2v2h2Zm0-8H21v2H19V43a1,1,0,0,1,1-1h3Zm9,8a5,5,0,1,1,5-5A5.006,5.006,0,0,1,32,52Zm13-1a1,1,0,0,1-1,1H41V50h2V48h2Zm0-5H43V44H41V42h3a1,1,0,0,1,1,1Z"></path><rect x="17" y="56" width="30" height="1"></rect></g></svg>