<svg xmlns="http://www.w3.org/2000/svg" viewBox="0 0 48 48" x="0px" y="0px"><g><path d="M45,15V33a1,1,0,0,1-1,1H40V14h1v2h2V14h1A1,1,0,0,1,45,15Z"></path><path d="M4,14a1,1,0,0,0-1,1V33a1,1,0,0,0,1,1H34V14ZM16,33H10.41a1,1,0,0,1-.92-.62,7.064,7.064,0,0,0-3.87-3.87A1,1,0,0,1,5,27.59V20.41a1,1,0,0,1,.62-.92,7.064,7.064,0,0,0,3.87-3.87,1,1,0,0,1,.92-.62H16v2H11.06A9.063,9.063,0,0,1,7,21.06v5.88A9.063,9.063,0,0,1,11.06,31H16ZM12,23v2H10V23ZM24,33a9,9,0,1,1,9-9A9.014,9.014,0,0,1,24,33Z"></path><path d="M24,17a7,7,0,1,0,7,7A7.008,7.008,0,0,0,24,17Zm4,5H26V21H22v2h4a2.006,2.006,0,0,1,2,2v2a2.006,2.006,0,0,1-2,2H25v1H23V29H22a2.006,2.006,0,0,1-2-2V26h2v1h4V25H22a2.006,2.006,0,0,1-2-2V21a2.006,2.006,0,0,1,2-2h1V18h2v1h1a2.006,2.006,0,0,1,2,2Z"></path><polygon points="38 11 38 40.81 37 43.31 36 40.81 36 11 38 11"></polygon><rect x="36" y="3" width="2" height="6"></rect><polygon points="40 5 40 7 41 7 41 12 43 12 43 7 43 6 43 5 40 5"></polygon></g></svg>