<svg xmlns="http://www.w3.org/2000/svg" viewBox="0 0 64 64" x="0px" y="0px"><g data-name="Guitar Player"><path d="M35.5,21.582A2.966,2.966,0,0,1,34,22v1a11,11,0,0,1-6,9.786v3.48L30.348,37H31a2,2,0,0,0,2-2h2a3.974,3.974,0,0,1-1.4,3.016l2.132.667A3,3,0,0,0,37.4,35.6Z"></path><path d="M23,34a10.966,10.966,0,0,1-3-.426V37a1,1,0,0,1-.7.954L18,38.36v7.683a7.382,7.382,0,0,1,5,2.173,7.382,7.382,0,0,1,5-2.173V38.36l-1.3-.406A1,1,0,0,1,26,37V33.574A10.966,10.966,0,0,1,23,34Z"></path><path d="M48.177,40.682a2,2,0,0,0,2.449-1.414,2,2,0,1,0-3.864-1.036,2,2,0,0,0,1.415,2.45Z"></path><path d="M34.337,40.343,34.6,43.01a6.978,6.978,0,0,0,.457,1.876,15.993,15.993,0,0,1,2.785-3.105,8.828,8.828,0,0,0-2.163-1.016Z"></path><path d="M40.1,60a12.845,12.845,0,0,1-2.159-1.284A8.473,8.473,0,0,1,37.2,60Z"></path><path d="M32,23V16H14v7a9,9,0,0,0,18,0ZM17,19h2v2H17Zm6,10a4,4,0,0,1-4-4h2a2,2,0,0,0,4,0h2A4,4,0,0,1,23,29Zm6-8H27V19h2Z"></path><path d="M51.122,58.4a8.7,8.7,0,0,0,4.125-5.47c.551-2.053-.089-4.019-.766-6.1a15.9,15.9,0,0,1-1.023-4.738,4.667,4.667,0,0,1,.932-2.512,4.976,4.976,0,0,0,.617-1.208,6,6,0,0,0-4.242-7.35,6.061,6.061,0,0,0-1.564-.207,6.007,6.007,0,0,0-5.785,4.45,4.915,4.915,0,0,0-.069,1.355,4.674,4.674,0,0,1-.45,2.643,15.951,15.951,0,0,1-3.253,3.59c-1.628,1.463-3.165,2.846-3.715,4.9a8.7,8.7,0,0,0,.838,6.8,10.432,10.432,0,0,0,6.492,4.481A10.448,10.448,0,0,0,51.122,58.4ZM44.83,37.715a4,4,0,1,1,.4,3.035A4,4,0,0,1,44.83,37.715ZM41.018,48.081l9.659,2.588L50.159,52.6,40.5,50.013Z"></path><path d="M50.3,28.9a7.292,7.292,0,0,1,1.932.517l3.642-13.59-1.932-.517Z"></path><path d="M8.6,35.594a3,3,0,0,0,1.668,3.089l2.132-.667A3.974,3.974,0,0,1,11,35h2a2,2,0,0,0,2,2h.65L18,36.265V32.786A11,11,0,0,1,12,23V22a2.966,2.966,0,0,1-1.5-.418Z"></path><path d="M12,20V18a1,1,0,0,0,0,2Z"></path><path d="M4,60H8.791A10.752,10.752,0,0,1,7,54a10.234,10.234,0,0,1,2.45-6.814A6.955,6.955,0,0,0,11.4,43.011l.268-2.668-1.345.421A8.95,8.95,0,0,0,4,49.35Z"></path><path d="M35.053,55.583A10.682,10.682,0,0,1,34,47.235c.006-.021.015-.041.021-.062a8.9,8.9,0,0,1-1.4-3.965l-.354-3.514L30,38.986V47a1,1,0,0,1-1,1c-1.857,0-5,.632-5,3a1,1,0,0,1-2,0c0-2.368-3.143-3-5-3a1,1,0,0,1-1-1V38.986l-2.261.708-.354,3.517a8.963,8.963,0,0,1-2.512,5.38A8.268,8.268,0,0,0,9,54a8.1,8.1,0,0,0,1.967,5.494,5.456,5.456,0,0,1,.476.506H34.558a5.2,5.2,0,0,1,.476-.506,5.864,5.864,0,0,0,1.335-2.171A10.509,10.509,0,0,1,35.053,55.583Z"></path><path d="M23.51,4H22.49a11.03,11.03,0,0,0-10.9,9.523l-.35,2.586A2.973,2.973,0,0,1,12,16V15a1,1,0,0,1,1-1H24V10h2v4h2V12h2v2h3a1,1,0,0,1,1,1v1a2.973,2.973,0,0,1,.759.109l-.35-2.586A11.03,11.03,0,0,0,23.51,4Z"></path><path d="M34,18v2a1,1,0,0,0,0-2Z"></path><polygon points="58.056 8.129 55.897 7.551 53.62 13.152 57.227 14.119 58.056 8.129"></polygon><polygon points="61.81 9.13 61.29 11.07 59.73 10.65 60 8.65 61.81 9.13"></polygon><polygon points="61.03 12.03 60.51 13.96 59.31 13.64 59.59 11.65 61.03 12.03"></polygon><polygon points="53.95 7.03 53.19 8.9 51.63 8.48 52.15 6.55 53.95 7.03"></polygon><polygon points="52.81 9.83 52.05 11.7 50.85 11.38 51.37 9.44 52.81 9.83"></polygon></g></svg>