<svg xmlns="http://www.w3.org/2000/svg" viewBox="0 0 64 64" x="0px" y="0px"><g data-name="Web Design"><polygon points="25.883 50 25.133 56 38.867 56 38.117 50 25.883 50"></polygon><path d="M8,45a3,3,0,0,0,3,3H53a3,3,0,0,0,3-3V42H8Zm42-1h2v2H50Z"></path><polygon points="24.883 58 21 58 21 60 43 60 43 58 39.117 58 24.883 58"></polygon><path d="M50,4H26V36H50ZM30,9a1,1,0,0,1,1-1h5v2H32v4h5v2H31a1,1,0,0,1-1-1Zm0,12a1,1,0,0,1,1-1h5v2H32v4h5v2H31a1,1,0,0,1-1-1Zm2,11H30V30h2Zm6,0H34V30h4Zm-2.264-6.322a1,1,0,0,1-1.414,0l-1.971-1.971,1.414-1.414,1.264,1.264,3.264-3.264,1.414,1.414Zm0-12a1,1,0,0,1-1.414,0l-1.971-1.971,1.414-1.414,1.264,1.264,3.264-3.264,1.414,1.414ZM46,32H40V30h6Zm0-5H42V25h4Zm0-4H42V21h4Zm0-8H42V13h4Zm0-4H42V9h4Z"></path><path d="M52,12V36a2,2,0,0,1-2,2H26a2,2,0,0,1-2-2V12H11a3,3,0,0,0-3,3v3H22v2H8V40H56V20H54V18h2V15a3,3,0,0,0-3-3ZM22,38H12V36H22Zm0-4H12V32H22Zm0-4H12V28H22Zm0-4H12V24H22ZM14,16H12V14h2Zm4,0H16V14h2Zm4,0H20V14h2Z"></path></g></svg>