<svg xmlns="http://www.w3.org/2000/svg" viewBox="0 0 64 64" x="0px" y="0px"><g data-name="Police Car-Vehicle-Security-Patrol-Automobile"><path d="M61.12,39.7l-.82-.82a1,1,0,0,1-.3-.71V34.96A4.951,4.951,0,0,0,55.04,30a2.97,2.97,0,0,1-2.32-1.1l-5.75-7.06A4.962,4.962,0,0,0,43.1,20H40a4,4,0,0,0-8,0h-.53a5.019,5.019,0,0,0-3.23,1.18L17.56,30.07,6.03,32.38A5,5,0,0,0,2,37.28v3.83a9.11,9.11,0,0,0,.95,4.03l1.61,3.2A2.988,2.988,0,0,0,7.24,50h3.45a6.977,6.977,0,0,0,12.62,0H40.69a6.989,6.989,0,0,0,12.81-.4l6.11-1.29A3,3,0,0,0,62,45.38V41.83A3,3,0,0,0,61.12,39.7ZM36,18a2.015,2.015,0,0,1,2,2H34A2.006,2.006,0,0,1,36,18ZM4,37.28c0-.1.02-.19.02-.28H7v1.22l-3,.75ZM17,52a5,5,0,1,1,5-5A5,5,0,0,1,17,52Zm30,0a5,5,0,1,1,5-5A5,5,0,0,1,47,52Zm13-6.62a.985.985,0,0,1-.8.97l-5.22,1.1c.01-.15.02-.3.02-.45a7,7,0,0,0-14,0,6.634,6.634,0,0,0,.08,1H23.92A6.634,6.634,0,0,0,24,47a7,7,0,0,0-14,0,6.634,6.634,0,0,0,.08,1H7.24a1,1,0,0,1-.9-.56l-1.6-3.19A7.034,7.034,0,0,1,4,41.11v-.08l4.24-1.06A1,1,0,0,0,9,39V36a1,1,0,0,0-1-1H5.06a2.988,2.988,0,0,1,1.36-.66L18.2,31.98a.947.947,0,0,0,.44-.21l10.89-9.06A2.993,2.993,0,0,1,31.47,22H43.1a2.97,2.97,0,0,1,2.32,1.1l5.75,7.06A4.962,4.962,0,0,0,55.04,32a2.935,2.935,0,0,1,2.09.87,2.9,2.9,0,0,1,.7,1.13H54a.984.984,0,0,0-.88.53.963.963,0,0,0,.05,1.02l2,3A1,1,0,0,0,56,39h2.13a3.1,3.1,0,0,0,.75,1.3l.82.82a1,1,0,0,1,.3.71ZM58,36v1H56.54l-.67-1Z"></path><path d="M44.067,24.719A2,2,0,0,0,42.531,24H31.37a2.01,2.01,0,0,0-1.3.481l-6.718,5.76A1,1,0,0,0,24,32H45.865A2,2,0,0,0,47.4,28.72ZM31.37,26H36v4H26.7ZM38,30V26h4.531l3.342,4Z"></path><path d="M17,44a3,3,0,1,0,3,3A3,3,0,0,0,17,44Zm0,4a1,1,0,1,1,1-1A1,1,0,0,1,17,48Z"></path><path d="M47,44a3,3,0,1,0,3,3A3,3,0,0,0,47,44Zm0,4a1,1,0,1,1,1-1A1,1,0,0,1,47,48Z"></path><rect x="35" y="10" width="2" height="4"></rect><rect x="40.364" y="13.636" width="4" height="2" transform="translate(2.059 34.243) rotate(-45)"></rect><rect x="28.636" y="12.636" width="2" height="4" transform="translate(-1.67 25.24) rotate(-44.995)"></rect><rect x="32" y="34" width="4" height="2"></rect></g></svg>