<svg xmlns="http://www.w3.org/2000/svg" viewBox="0 0 64 64" x="0px" y="0px"><g data-name="Shopping-Shopping Bag-Gift-Commerce-Business"><path d="M18,12v7.03a4.741,4.741,0,0,1,1,1A4.994,4.994,0,0,1,23,18h4a1,1,0,0,1,1,1v2a4.924,4.924,0,0,1-1.03,3H32a1,1,0,0,1,1,1v6a1,1,0,0,1-1,1H31v2h7V16a1,1,0,0,1,1-1h1V12H36v3H34V12H24v3H22V12Z"></path><path d="M18,24V23a3.009,3.009,0,0,0-3-3H12v1a3.009,3.009,0,0,0,3,3Z"></path><path d="M56,35V34H40v1a1,1,0,0,0,1,1H55A1,1,0,0,0,56,35Z"></path><polygon points="58.37 42 53.87 38 53 38 53 42 58.37 42"></polygon><rect x="7" y="26" width="7" height="4"></rect><rect x="9" y="32" width="6" height="10"></rect><path d="M5,60H59a1,1,0,0,0,1-1V44H42.62l-.73,1.45A.988.988,0,0,1,41,46H23a.988.988,0,0,1-.89-.55L21.38,44H4V59A1,1,0,0,0,5,60Zm14.893-9.127A2.92,2.92,0,0,1,22,50H42a3,3,0,0,1,3,3,3.015,3.015,0,0,1-3,3H22a3,3,0,0,1-3-3A2.937,2.937,0,0,1,19.893,50.873Z"></path><path d="M22,54H42a.959.959,0,0,0,.693-.287A.977.977,0,0,0,43,53a1,1,0,0,0-1-1H22a.959.959,0,0,0-.693.287A.977.977,0,0,0,21,53,1,1,0,0,0,22,54Z"></path><polygon points="29 44 29 32 23 32 23 42.76 23.62 44 29 44"></polygon><rect x="17" y="32" width="4" height="10"></rect><path d="M41.11,42.55A.988.988,0,0,1,42,42h9V38H42v1a3.009,3.009,0,0,1-3,3H31v2h9.38Z"></path><path d="M40,32H56V17H40Zm4-13h2v3a2,2,0,0,0,4,0V19h2v3a4,4,0,0,1-8,0Z"></path><rect x="16" y="26" width="6" height="4"></rect><path d="M26,21V20H23a3.009,3.009,0,0,0-3,3v1h3A3.009,3.009,0,0,0,26,21Z"></path><path d="M40,39V37.82A3.035,3.035,0,0,1,38.18,36H31v4h8A1,1,0,0,0,40,39Z"></path><rect x="24" y="26" width="7" height="4"></rect><path d="M36,12H34V9A5,5,0,0,0,24,9v3H22V9A7,7,0,0,1,36,9Z"></path></g></svg>