<svg xmlns="http://www.w3.org/2000/svg" viewBox="0 0 64 64" x="0px" y="0px"><g><rect x="31" y="29" width="2" height="2"></rect><path d="M50,8a4,4,0,0,0-4-4H18a4,4,0,0,0-4,4V56a4,4,0,0,0,4,4H46a4,4,0,0,0,4-4ZM18,36H16V34h2Zm0-5H16V29h2Zm0-5H16V24h2ZM37,14h2v2H37ZM29,6h6V8H29Zm4,8v2H31V14ZM25,6h2V8H25Zm0,8h2v2H25Zm9,44H30a3,3,0,0,1,0-6h4a3,3,0,0,1,0,6ZM25,46V44h2v2Zm6,0V44h2v2Zm8,0H37V44h2Zm5-20H42.224l-1.789.895a1.007,1.007,0,0,1-.448.105H39v2h5v2H39v2h.987a1.007,1.007,0,0,1,.448.1l1.789.9H44v2H41.987a1,1,0,0,1-.447-.1L39.751,35H39v1a1,1,0,0,1-1,1H37v.583l1.707,1.708A1,1,0,0,1,39,40v2H37V40.412l-1.707-1.707A1,1,0,0,1,35,38V37H33v5H31V37H29v.968a1,1,0,0,1-.293.707L27,40.382V42H25V39.968a1,1,0,0,1,.293-.707L27,37.554V37H26a1,1,0,0,1-1-1V35h-.751l-1.789.9a1,1,0,0,1-.447.1H20V34h1.776l1.789-.9a1.007,1.007,0,0,1,.448-.1H25V31H20V29h5V27h-.987a1.007,1.007,0,0,1-.448-.105L21.776,26H20V24h2.013a1,1,0,0,1,.447.105L24.249,25H25V24a1,1,0,0,1,1-1h1v-.554l-1.707-1.707A1,1,0,0,1,25,20.032V18h2v1.618l1.707,1.707a1,1,0,0,1,.293.707V23h2V18h2v5h2V22a1,1,0,0,1,.293-.707L37,19.588V18h2v2a1,1,0,0,1-.293.707L37,22.417V23h1a1,1,0,0,1,1,1v1h.751l1.789-.895A1,1,0,0,1,41.987,24H44Zm4,10H46V34h2Zm0-5H46V29h2Zm0-5H46V24h2Z"></path><path d="M34,54H30a1,1,0,0,0,0,2h4a1,1,0,0,0,0-2Z"></path><path d="M27,35H37V25H27Zm2-7a1,1,0,0,1,1-1h4a1,1,0,0,1,1,1v4a1,1,0,0,1-1,1H30a1,1,0,0,1-1-1Z"></path></g></svg>