<svg xmlns="http://www.w3.org/2000/svg" viewBox="0 0 64 64" x="0px" y="0px"><g><path d="M61.963,18.731v-.005c0-.012-.012-.021-.016-.033a.984.984,0,0,0-.109-.232.857.857,0,0,0-.064-.082.95.95,0,0,0-.132-.137.849.849,0,0,0-.09-.068.779.779,0,0,0-.065-.048,1,1,0,0,0-.1-.04.848.848,0,0,0-.1-.039.988.988,0,0,0-.241-.04c-.015,0-.028-.007-.043-.007H58V5a1,1,0,0,0-1-1H7A1,1,0,0,0,6,5V18H3c-.015,0-.028.006-.042.007a1.012,1.012,0,0,0-.243.04c-.034.01-.065.025-.1.038s-.07.023-.1.041a.779.779,0,0,0-.065.048.849.849,0,0,0-.09.068.95.95,0,0,0-.132.137.857.857,0,0,0-.064.082.984.984,0,0,0-.109.232c0,.012-.012.021-.016.033v.005A1,1,0,0,0,2,19V55c0,.02.008.039.009.059a.9.9,0,0,0,.024.154.879.879,0,0,0,.037.136c.007.018.007.037.015.054a.809.809,0,0,0,.05.079.968.968,0,0,0,.076.123,1.052,1.052,0,0,0,.1.109,1.139,1.139,0,0,0,.1.092.97.97,0,0,0,.137.078.877.877,0,0,0,.084.049c.011,0,.023,0,.034.006A1,1,0,0,0,3,56H61a1,1,0,0,0,1-1V19A1,1,0,0,0,61.963,18.731ZM8,6H56V20.924l-24,14.9L12.955,24H46V22H12v1.407L8,20.924ZM4,20.8l18.447,11.45L4,52.424ZM5.269,54,24.176,33.32l7.3,4.53a1,1,0,0,0,1.055,0l7.3-4.53L58.731,54ZM60,52.424,41.553,32.247,60,20.8Z"></path><rect x="12" y="10" width="4" height="2"></rect><rect x="18" y="10" width="34" height="2"></rect><rect x="12" y="16" width="40" height="2"></rect></g></svg>