<svg xmlns="http://www.w3.org/2000/svg" viewBox="0 0 64 64" x="0px" y="0px"><g><rect x="24" y="28" width="16" height="8" rx="1" ry="1"></rect><path d="M60,31a7.009,7.009,0,0,0-7-7H11a7.009,7.009,0,0,0-7,7v2a7.009,7.009,0,0,0,7,7H53a7.009,7.009,0,0,0,7-7ZM12,37H10V35h2Zm0-4H10V31h2Zm0-4H10V27h2Zm4,8H14V35h2Zm0-4H14V31h2Zm0-4H14V27h2Zm4,8H18V35h2Zm0-4H18V31h2Zm0-4H18V27h2Zm22,6a3,3,0,0,1-3,3H25a3,3,0,0,1-3-3V29a3,3,0,0,1,3-3H39a3,3,0,0,1,3,3Zm4,2H44V35h2Zm0-4H44V31h2Zm0-4H44V27h2Zm4,8H48V35h2Zm0-4H48V31h2Zm0-4H48V27h2Zm4,8H52V35h2Zm0-4H52V31h2Zm0-4H52V27h2Z"></path></g></svg>