<svg xmlns="http://www.w3.org/2000/svg" viewBox="0 0 64 64" x="0px" y="0px"><g data-name="Valve-Water-Pipes-Industry-Gas Pipe"><path d="M42,30a2.006,2.006,0,0,0-2-2H24a2,2,0,0,0,0,4H40A2.006,2.006,0,0,0,42,30Z"></path><path d="M26,16H40.38l1.73-3.45A.977.977,0,0,1,43,12H54V10H41.62l-1.73,3.45A.977.977,0,0,1,39,14H26Z"></path><path d="M25,51H39V34H25Zm6-4h4v2H31Zm-4,0h2v2H27Z"></path><rect x="30" y="10" width="4" height="2"></rect><path d="M60,51V39H51V51ZM53,41h5v2H53Z"></path><rect x="41" y="39" width="2" height="12"></rect><rect x="45" y="36" width="4" height="18"></rect><path d="M13,51V39H4V51ZM6,41H8v2H6Z"></path><rect x="15" y="36" width="4" height="18"></rect><rect x="30" y="18" width="4" height="2"></rect><rect x="28" y="22" width="8" height="4"></rect><rect x="21" y="39" width="2" height="12"></rect></g></svg>