<svg xmlns="http://www.w3.org/2000/svg" viewBox="0 0 64 64" x="0px" y="0px"><g data-name="Home Office-Work From Home-Studio-Desk-Man"><polygon points="22.84 37.42 23.92 35.76 22.06 35.09 21.02 35.61 22.84 37.42"></polygon><path d="M13,19h5a3.009,3.009,0,0,0,3-3,1,1,0,0,1,1.97-.24l.43,1.73A2.009,2.009,0,0,0,25,18.97V17a6,6,0,0,0-12,0Z"></path><path d="M13,24a6,6,0,0,0,12,0V20.98a3.99,3.99,0,0,1-3.07-1.89A5.012,5.012,0,0,1,18,21H13Zm8-2h2v2H21Zm-6,0h2v2H15Z"></path><rect x="7" y="58" width="50" height="2"></rect><rect x="4" y="54" width="56" height="2"></rect><path d="M17,31.74v1.64l1.24.62h1.52L21,33.38V31.74a7.822,7.822,0,0,1-4,0Z"></path><path d="M12,52V50H10a1,1,0,0,1-1-1V43h2v5h3a5.017,5.017,0,0,1,4.9,4h.2A5.017,5.017,0,0,1,24,48h3V43h2v6a1,1,0,0,1-1,1H26v2h3a3.009,3.009,0,0,0,3-3V43.6a7.03,7.03,0,0,0-4.61-6.58l-1.54-.56-2.01,3.09a1.015,1.015,0,0,1-.74.44A.34.34,0,0,1,23,40a1.007,1.007,0,0,1-.71-.29L19,36.41l-3.29,3.3A1.007,1.007,0,0,1,15,40a.34.34,0,0,1-.1-.01,1.015,1.015,0,0,1-.74-.44l-2.01-3.09-1.54.56A7.03,7.03,0,0,0,6,43.6V49a3.009,3.009,0,0,0,3,3Z"></path><rect x="47" y="40" width="4" height="8"></rect><path d="M59,30H39a1,1,0,0,0-1,1V43a1,1,0,0,0,1,1h6V39a1,1,0,0,1,1-1h6a1,1,0,0,1,1,1v5h6a1,1,0,0,0,1-1V31A1,1,0,0,0,59,30Z"></path><rect x="44" y="50" width="10" height="2"></rect><path d="M14,52h2.82A3.01,3.01,0,0,0,14,50Z"></path><polygon points="16.98 35.61 15.94 35.09 14.08 35.76 15.16 37.42 16.98 35.61"></polygon><path d="M32.97,52H33v-.046C32.989,51.969,32.981,51.985,32.97,52Z"></path><path d="M24,52V50a3.01,3.01,0,0,0-2.82,2Z"></path><path d="M9,23a2.006,2.006,0,0,0,2,2V21A2.006,2.006,0,0,0,9,23Z"></path><path d="M29,23a2.006,2.006,0,0,1-2,2V21A2.006,2.006,0,0,1,29,23Z"></path><rect x="48" y="19" width="2" height="5"></rect><path d="M54,24V14.071l-5-5-5,5V24h2V18a1,1,0,0,1,1-1h4a1,1,0,0,1,1,1v6Zm-4-9H48V13h2Z"></path><path d="M59.02,14.85a1,1,0,0,0,0-1.414L49.707,4.121a1,1,0,0,0-1.414,0l-9.314,9.313a1,1,0,0,0,0,1.414h0a1.023,1.023,0,0,0,1.414,0l7.9-7.9a1,1,0,0,1,1.414,0l7.9,7.9A1.024,1.024,0,0,0,59.02,14.85Z"></path></g></svg>