<svg xmlns="http://www.w3.org/2000/svg" viewBox="0 0 64 64" x="0px" y="0px"><g><path d="M31,30A13,13,0,1,0,44,43,13.015,13.015,0,0,0,31,30Zm6.364,17.95L35.95,49.364,31,44.414l-4.95,4.95L24.636,47.95,29.586,43l-4.95-4.95,1.414-1.414L31,41.586l4.95-4.95,1.414,1.414L32.414,43Z"></path><path d="M60,32A12.01,12.01,0,0,1,48,44H45.96c.03-.33.04-.66.04-1a15,15,0,0,0-30,0c0,.34.01.67.04,1H13a9,9,0,0,1-2.6-17.62.987.987,0,0,0,.71-.82A11.007,11.007,0,0,1,22,16c.15,0,.3.01.45.02l.21.01a1.025,1.025,0,0,0,.95-.53,13.985,13.985,0,0,1,26.15,3.98.994.994,0,0,0,.77.79A12.053,12.053,0,0,1,60,32Z"></path></g></svg>