<svg xmlns="http://www.w3.org/2000/svg" viewBox="0 0 64 64" x="0px" y="0px"><g data-name="Brain Process"><path d="M48,46H40V41a1,1,0,0,0-1-1H25a1,1,0,0,0-1,1v5H16A13.015,13.015,0,0,0,3,59v2a1,1,0,0,0,1,1H60a1,1,0,0,0,1-1V59A13.015,13.015,0,0,0,48,46ZM26,42H38v4H26Zm8.6,7.7h0l-.037-.027L32.6,48.2a1,1,0,0,0-1.2,0l-1.96,1.47L29.4,49.7h0L29,50V48h6v2ZM31,51h2l0,2H31ZM5,59A11.013,11.013,0,0,1,16,48H27v4a1,1,0,0,0,1.6.8l.4-.3v1.427L28.132,60H15V55H13v5H5Zm25.153,1,.714-5h2.266l.714,5ZM59,60H51V55H49v5H35.868L35,53.927V52.5l.4.3A1,1,0,0,0,37,52V48H48A11.013,11.013,0,0,1,59,59Z"></path><path d="M18.562,14.217l1.859,1.859A12.657,12.657,0,0,0,19.627,18H17a1,1,0,0,0-1,1v6a1,1,0,0,0,1,1h2.627a12.657,12.657,0,0,0,.794,1.924l-1.859,1.859a1,1,0,0,0,0,1.414L22.8,35.438a1,1,0,0,0,1.414,0l1.859-1.859A12.657,12.657,0,0,0,28,34.373V37a1,1,0,0,0,1,1h6a1,1,0,0,0,1-1V34.373a12.657,12.657,0,0,0,1.924-.794l1.859,1.859a1,1,0,0,0,1.414,0l4.24-4.241a1,1,0,0,0,0-1.414l-1.858-1.859A12.657,12.657,0,0,0,44.373,26H47a1,1,0,0,0,1-1V19a1,1,0,0,0-1-1H44.373a12.657,12.657,0,0,0-.794-1.924l1.858-1.859a1,1,0,0,0,0-1.414L41.2,8.562a1,1,0,0,0-1.414,0l-1.859,1.859A12.657,12.657,0,0,0,36,9.627V7a1,1,0,0,0-1-1H29a1,1,0,0,0-1,1V9.627a12.657,12.657,0,0,0-1.924.794L24.217,8.562a1,1,0,0,0-1.414,0L18.562,12.8A1,1,0,0,0,18.562,14.217Zm4.948-3.533,1.683,1.683a1,1,0,0,0,1.218.153,10.736,10.736,0,0,1,2.836-1.171A1,1,0,0,0,30,10.38V8h4v2.38a1,1,0,0,0,.753.969,10.736,10.736,0,0,1,2.836,1.171,1,1,0,0,0,1.218-.153l1.683-1.683,2.826,2.826-1.683,1.683a1,1,0,0,0-.153,1.218,10.736,10.736,0,0,1,1.171,2.836A1,1,0,0,0,43.62,20H46v4H43.62a1,1,0,0,0-.969.753,10.736,10.736,0,0,1-1.171,2.836,1,1,0,0,0,.153,1.218l1.683,1.683L40.49,33.316l-1.683-1.683a1,1,0,0,0-1.218-.153,10.736,10.736,0,0,1-2.836,1.171A1,1,0,0,0,34,33.62V36H30V33.62a1,1,0,0,0-.753-.969,10.736,10.736,0,0,1-2.836-1.171,1,1,0,0,0-1.218.153L23.51,33.316,20.684,30.49l1.683-1.683a1,1,0,0,0,.153-1.218,10.736,10.736,0,0,1-1.171-2.836A1,1,0,0,0,20.38,24H18V20h2.38a1,1,0,0,0,.969-.753,10.736,10.736,0,0,1,1.171-2.836,1,1,0,0,0-.153-1.218L20.684,13.51Z"></path><path d="M32,29a7,7,0,1,0-7-7A7.009,7.009,0,0,0,32,29Zm0-12a5,5,0,1,1-5,5A5.006,5.006,0,0,1,32,17Z"></path><path d="M49,12.087A18.009,18.009,0,0,1,44.931,36.3l1.215,1.59A20.015,20.015,0,0,0,50.678,11H52V9H48a1,1,0,0,0-1,1v4h2Z"></path><path d="M12,33v2h4a1,1,0,0,0,1-1V30H15v1.913A18.009,18.009,0,0,1,19.069,7.7l-1.215-1.59A20.015,20.015,0,0,0,13.322,33Z"></path></g></svg>