<svg xmlns="http://www.w3.org/2000/svg" viewBox="0 0 64 64" x="0px" y="0px"><g data-name="Shopping-Shopping Bag-Smartphone-Computer-Payment"><path d="M56,34v6H8V34H6V45a5,5,0,0,0,5,5H23.87l-.75,6H22a3,3,0,0,0,0,6H42a3,3,0,0,0,0-6H40.88l-.75-6H53a5,5,0,0,0,5-5V34ZM42,58a1,1,0,0,1,0,2H22a1,1,0,0,1,0-2ZM25.13,56l.75-6H38.12l.75,6ZM56,45a3.009,3.009,0,0,1-3,3H11a3.009,3.009,0,0,1-3-3V42H56Z"></path><rect x="24" y="10" width="2" height="2"></rect><rect x="50" y="44" width="2" height="2"></rect><path d="M17,2H7A5,5,0,0,0,2,7V27a5,5,0,0,0,5,5H17a5,5,0,0,0,5-5V7A5,5,0,0,0,17,2Zm3,25a3.009,3.009,0,0,1-3,3H7a3.009,3.009,0,0,1-3-3V7A3.009,3.009,0,0,1,7,4H17a3.009,3.009,0,0,1,3,3Z"></path><rect x="10" y="6" width="4" height="2"></rect><rect x="6" y="6" width="2" height="2"></rect><rect x="10" y="26" width="4" height="2"></rect><path d="M11,18h2a1,1,0,0,1,0,2H11a1,1,0,0,1-1-1H8a3,3,0,0,0,3,3v1h2V22a3,3,0,0,0,0-6H11a1,1,0,0,1,0-2h2a1,1,0,0,1,1,1h2a3,3,0,0,0-3-3V11H11v1a3,3,0,0,0,0,6Z"></path><path d="M34,15V12H49V10H46V9A7,7,0,0,0,32,9v1H29a1,1,0,0,0-1,1V29a3.009,3.009,0,0,0,3,3H42V30H31a1,1,0,0,1-1-1V28H42V26H30V12h2v3Zm0-6A5,5,0,0,1,44,9v1H34Z"></path><path d="M61,13H45a1,1,0,0,0-1,1V29a3.009,3.009,0,0,0,3,3H59a3.009,3.009,0,0,0,3-3V14A1,1,0,0,0,61,13ZM60,29a1,1,0,0,1-1,1H47a1,1,0,0,1-1-1V28H60Zm0-3H46V15H60Z"></path><path d="M53,24a5.006,5.006,0,0,0,5-5V17H56v2a3,3,0,0,1-6,0V17H48v2A5.006,5.006,0,0,0,53,24Z"></path></g></svg>