<svg xmlns="http://www.w3.org/2000/svg" viewBox="0 0 64 64" x="0px" y="0px"><g><path d="M50,43a1,1,0,0,0-1-1H15a1,1,0,0,0,0,2H49A1,1,0,0,0,50,43Z"></path><path d="M26,48.23A7,7,0,0,1,26.376,46H24.522l-.111.261A4.982,4.982,0,0,0,24,48.23V53a1,1,0,0,0,1,1,.957.957,0,0,0,.694-.288A.974.974,0,0,0,26,53Z"></path><path d="M18.831,46h-1.95a6.869,6.869,0,0,1-.454,1.527L14.41,52.262A4.99,4.99,0,0,0,14,54.23V59a1,1,0,0,0,1,1,.957.957,0,0,0,.694-.288A.974.974,0,0,0,16,59V54.23a6.991,6.991,0,0,1,.573-2.757l2.017-4.735A4.93,4.93,0,0,0,18.831,46Z"></path><path d="M48.288,59.694A.974.974,0,0,0,49,60a1,1,0,0,0,1-1V54.23a4.973,4.973,0,0,0-.408-1.962L47.57,47.522A6.9,6.9,0,0,1,47.119,46H45.168a4.893,4.893,0,0,0,.24.732l2.022,4.746A7,7,0,0,1,48,54.23V59A.957.957,0,0,0,48.288,59.694Z"></path><path d="M39.479,46H37.624A6.982,6.982,0,0,1,38,48.23V53a.957.957,0,0,0,.288.694A.974.974,0,0,0,39,54a1,1,0,0,0,1-1V48.23a4.973,4.973,0,0,0-.408-1.962Z"></path><path d="M43,13V10H21v3a1,1,0,0,0,1,1H42A1,1,0,0,0,43,13Z"></path><path d="M27,38.77A6.876,6.876,0,0,1,26.884,40h1.938A4.868,4.868,0,0,0,29,38.77V16H27V38.77Z"></path><path d="M17,40h2V27.94a7,7,0,0,1,2.414-5.284l2.551-2.212A3,3,0,0,0,25,18.17V16H23a4.992,4.992,0,0,1-1.725,3.757l-2.548,2.209A5,5,0,0,0,17,25.74Z"></path><path d="M20,8H44V7a3,3,0,0,0-3-3H23a3,3,0,0,0-3,3Z"></path><path d="M37,16H35V38.77A4.868,4.868,0,0,0,35.178,40h1.938A6.876,6.876,0,0,1,37,38.77V16Z"></path><path d="M47,40V25.74a5.005,5.005,0,0,0-1.727-3.776l-2.548-2.208A4.993,4.993,0,0,1,41,16H39v2.17a3,3,0,0,0,1.034,2.273l2.551,2.211A7.008,7.008,0,0,1,45,27.94V40Z"></path></g></svg>