<svg xmlns="http://www.w3.org/2000/svg" viewBox="0 0 64 64" x="0px" y="0px"><g data-name="Digital Graphic-Graphic Editor-Browser-Interface-Screen"><path d="M57,2H7A5.006,5.006,0,0,0,2,7V57a5.006,5.006,0,0,0,5,5H57a5.006,5.006,0,0,0,5-5V7A5.006,5.006,0,0,0,57,2ZM7,4H57a3,3,0,0,1,3,3v3H4V7A3,3,0,0,1,7,4ZM57,60H7a3,3,0,0,1-3-3V12H60V57A3,3,0,0,1,57,60Z"></path><rect x="8" y="6" width="2" height="2"></rect><rect x="12" y="6" width="2" height="2"></rect><rect x="16" y="6" width="2" height="2"></rect><path d="M55,16H45a1,1,0,0,0-1,1v1H41a1,1,0,0,0-.707.293l-2,2,1.414,1.414L41.414,20H44v1a1,1,0,0,0,1,1H55a1,1,0,0,0,1-1V17A1,1,0,0,0,55,16Zm-1,4H46V18h8Z"></path><path d="M55,50H45a1,1,0,0,0-1,1v1H41.414l-1.707-1.707-1.414,1.414,2,2A1,1,0,0,0,41,54h3v1a1,1,0,0,0,1,1H55a1,1,0,0,0,1-1V51A1,1,0,0,0,55,50Zm-1,4H46V52h8Z"></path><path d="M55,33H49a1,1,0,0,0-1,1v1H39v2h9v1a1,1,0,0,0,1,1h6a1,1,0,0,0,1-1V34A1,1,0,0,0,55,33Zm-1,4H50V35h4Z"></path><rect x="44" y="24" width="2" height="2"></rect><rect x="48" y="24" width="8" height="2"></rect><rect x="44" y="28" width="12" height="2"></rect><rect x="48" y="41" width="8" height="2"></rect><rect x="52" y="45" width="4" height="2"></rect><rect x="48" y="45" width="2" height="2"></rect><path d="M23,18H20V17a1,1,0,0,0-1-1H9a1,1,0,0,0-1,1v4a1,1,0,0,0,1,1H19a1,1,0,0,0,1-1V20h2.586l1.707,1.707,1.414-1.414-2-2A1,1,0,0,0,23,18Zm-5,2H10V18h8Z"></path><path d="M22.586,52H20V51a1,1,0,0,0-1-1H9a1,1,0,0,0-1,1v4a1,1,0,0,0,1,1H19a1,1,0,0,0,1-1V54h3a1,1,0,0,0,.707-.293l2-2-1.414-1.414ZM18,54H10V52h8Z"></path><path d="M9,39h6a1,1,0,0,0,1-1V37h9V35H16V34a1,1,0,0,0-1-1H9a1,1,0,0,0-1,1v4A1,1,0,0,0,9,39Zm1-4h4v2H10Z"></path><rect x="8" y="24" width="2" height="2"></rect><rect x="12" y="24" width="8" height="2"></rect><rect x="8" y="28" width="12" height="2"></rect><rect x="8" y="41" width="8" height="2"></rect><rect x="12" y="45" width="4" height="2"></rect><rect x="8" y="45" width="2" height="2"></rect><path d="M35,20V19a3,3,0,0,0-6,0v1a1,1,0,0,0-1,1V47a1,1,0,0,0,.03.243l2,8A1,1,0,0,0,31,56h2a1,1,0,0,0,.97-.757l2-8A1,1,0,0,0,36,47V21A1,1,0,0,0,35,20ZM30.281,48h3.438l-.5,2H30.781ZM30,46V22h4V46Zm1-27a1,1,0,0,1,2,0v1H31Zm.781,35-.5-2h1.438l-.5,2Z"></path></g></svg>