<svg xmlns="http://www.w3.org/2000/svg" viewBox="0 0 64 64" x="0px" y="0px"><title>Airplane-Flight-Delivery-Transportation-Travel</title><g><path d="M59,9H57.82a3,3,0,1,0-5.64,0H51a2,2,0,0,0,0,4h8a2,2,0,0,0,0-4Z"></path><path d="M25,57H23.82a3,3,0,1,0-5.64,0H17a2,2,0,0,0,0,4h8a2,2,0,0,0,0-4Z"></path><polygon points="28 21 28 25 35.495 25 34.262 21 28 21"></polygon><path d="M54,37a1,1,0,0,0,1-1V34a7.008,7.008,0,0,0-7-7H18a1,1,0,0,1-.937-.649L14.307,19H9V34a3,3,0,0,0,3,3H26V33h2V45h6.261l3.783-12.294,1.912.588L38.815,37ZM23,31H21V29h2Zm4,0H25V29h2Zm4,0H29V29h2Zm4,0H33V29h2Zm4,0H37V29h2Zm8-2h4v2H47Zm-6,0h2v2H41Z"></path><rect x="6" y="59" width="6" height="2"></rect><rect x="2" y="59" width="2" height="2"></rect><rect x="8" y="55" width="4" height="2"></rect><rect x="40" y="11" width="6" height="2"></rect><rect x="36" y="11" width="2" height="2"></rect><rect x="42" y="7" width="4" height="2"></rect></g></svg>