<svg xmlns="http://www.w3.org/2000/svg" viewBox="0 0 64 64" x="0px" y="0px"><g><path d="M4,45V20H34V42h2V5a3,3,0,0,0-3-3H5A3,3,0,0,0,2,5V45a3,3,0,0,0,3,3h9V46H5A1,1,0,0,1,4,45ZM5,4H33a1,1,0,0,1,1,1V18H4V5A1,1,0,0,1,5,4Z"></path><path d="M7,16H31a1,1,0,0,0,1-1V7a1,1,0,0,0-1-1H7A1,1,0,0,0,6,7v8A1,1,0,0,0,7,16ZM8,8H30v6H8Z"></path><path d="M32,42V23a1,1,0,0,0-1-1H7a1,1,0,0,0-1,1V43a1,1,0,0,0,1,1h9V34h6v9h2V24h6V42ZM14,24v8H8V24Zm0,18H8V34h6Zm8-10H16V24h6Z"></path><rect x="18" y="10" width="2" height="2"></rect><rect x="22" y="10" width="2" height="2"></rect><rect x="14" y="10" width="2" height="2"></rect><path d="M60,44H55V42a1,1,0,0,0-1-1H53V18a1,1,0,0,0-1-1H46v2h5V41H50a1,1,0,0,0-1,1v2H18a2,2,0,0,0-2,2V60a2,2,0,0,0,2,2H60a2,2,0,0,0,2-2V46A2,2,0,0,0,60,44Zm-9-1h2v1H51Zm9,17H18V46H60Z"></path><rect x="24" y="56" width="28" height="2"></rect><rect x="54" y="56" width="4" height="2"></rect><rect x="20" y="56" width="2" height="2"></rect><rect x="24" y="52" width="2" height="2"></rect><rect x="20" y="52" width="2" height="2"></rect><rect x="28" y="52" width="2" height="2"></rect><rect x="32" y="52" width="2" height="2"></rect><rect x="36" y="52" width="2" height="2"></rect><rect x="40" y="52" width="2" height="2"></rect><rect x="44" y="52" width="2" height="2"></rect><rect x="48" y="52" width="2" height="2"></rect><rect x="52" y="52" width="2" height="2"></rect><rect x="56" y="52" width="2" height="2"></rect><rect x="24" y="48" width="2" height="2"></rect><rect x="20" y="48" width="2" height="2"></rect><rect x="28" y="48" width="2" height="2"></rect><rect x="32" y="48" width="2" height="2"></rect><rect x="36" y="48" width="2" height="2"></rect><rect x="40" y="48" width="2" height="2"></rect><rect x="44" y="48" width="2" height="2"></rect><rect x="48" y="48" width="2" height="2"></rect><rect x="52" y="48" width="2" height="2"></rect><rect x="56" y="48" width="2" height="2"></rect><polygon points="44 13 46 13 46 11 48 11 48 9 46 9 46 7 44 7 44 9 42 9 42 11 44 11 44 13"></polygon><polygon points="57.586 29.172 56.172 30.586 57.586 32 56.172 33.414 57.586 34.828 59 33.414 60.414 34.828 61.828 33.414 60.414 32 61.828 30.586 60.414 29.172 59 30.586 57.586 29.172"></polygon><rect x="38" y="24" width="6" height="2"></rect><rect x="42" y="34" width="6" height="2"></rect><rect x="42" y="37" width="6" height="2"></rect><rect x="52" y="5" width="6" height="2"></rect><rect x="54" y="2" width="2" height="2"></rect><rect x="54" y="8" width="2" height="2"></rect><rect x="42" y="17" width="2" height="2"></rect><rect x="38" y="17" width="2" height="2"></rect></g></svg>