<svg xmlns="http://www.w3.org/2000/svg" viewBox="0 0 64 64" x="0px" y="0px"><g><path d="M61,2H51a2.974,2.974,0,0,0-2,.78A2.974,2.974,0,0,0,47,2H37a1,1,0,0,0-1,1V21a1,1,0,0,0,1,1H61a1,1,0,0,0,1-1V3A1,1,0,0,0,61,2ZM38,20V18h7a3.014,3.014,0,0,1,2.83,2Zm10-2.97A4.924,4.924,0,0,0,45,16H38V4h9a1,1,0,0,1,1,1ZM60,20H50.17A3.014,3.014,0,0,1,53,18h7Zm0-4H53a4.924,4.924,0,0,0-3,1.03V5a1,1,0,0,1,1-1h9Z"></path><rect x="52" y="7" width="6" height="2"></rect><rect x="52" y="11" width="6" height="2"></rect><rect x="40" y="7" width="6" height="2"></rect><rect x="40" y="11" width="6" height="2"></rect><path d="M61,42H51a2.974,2.974,0,0,0-2,.78A2.974,2.974,0,0,0,47,42H37a1,1,0,0,0-1,1V61a1,1,0,0,0,1,1H61a1,1,0,0,0,1-1V43A1,1,0,0,0,61,42ZM38,60V58h7a3.014,3.014,0,0,1,2.83,2Zm10-2.97A4.924,4.924,0,0,0,45,56H38V44h9a1,1,0,0,1,1,1ZM60,60H50.17A3.014,3.014,0,0,1,53,58h7Zm0-4H53a4.924,4.924,0,0,0-3,1.03V45a1,1,0,0,1,1-1h9Z"></path><rect x="52" y="47" width="6" height="2"></rect><rect x="52" y="51" width="6" height="2"></rect><rect x="40" y="47" width="6" height="2"></rect><rect x="40" y="51" width="6" height="2"></rect><path d="M27,42H17a2.974,2.974,0,0,0-2,.78A2.974,2.974,0,0,0,13,42H3a1,1,0,0,0-1,1V61a1,1,0,0,0,1,1H27a1,1,0,0,0,1-1V43A1,1,0,0,0,27,42ZM4,60V58h7a3.014,3.014,0,0,1,2.83,2Zm10-2.97A4.924,4.924,0,0,0,11,56H4V44h9a1,1,0,0,1,1,1ZM26,60H16.17A3.014,3.014,0,0,1,19,58h7Zm0-4H19a4.924,4.924,0,0,0-3,1.03V45a1,1,0,0,1,1-1h9Z"></path><rect x="18" y="47" width="6" height="2"></rect><rect x="18" y="51" width="6" height="2"></rect><rect x="6" y="47" width="6" height="2"></rect><rect x="6" y="51" width="6" height="2"></rect><path d="M27,2H17a2.974,2.974,0,0,0-2,.78A2.974,2.974,0,0,0,13,2H3A1,1,0,0,0,2,3V21a1,1,0,0,0,1,1H27a1,1,0,0,0,1-1V3A1,1,0,0,0,27,2ZM4,20V18h7a3.014,3.014,0,0,1,2.83,2Zm10-2.97A4.924,4.924,0,0,0,11,16H4V4h9a1,1,0,0,1,1,1ZM26,20H16.17A3.014,3.014,0,0,1,19,18h7Zm0-4H19a4.924,4.924,0,0,0-3,1.03V5a1,1,0,0,1,1-1h9Z"></path><rect x="18" y="7" width="6" height="2"></rect><rect x="18" y="11" width="6" height="2"></rect><rect x="6" y="7" width="6" height="2"></rect><rect x="6" y="11" width="6" height="2"></rect><path d="M41,32a9,9,0,1,0-9,9A9.01,9.01,0,0,0,41,32Zm-3.3,4.042a8.956,8.956,0,0,0-1.9-1.189A21.072,21.072,0,0,0,36,32a21.236,21.236,0,0,0-.194-2.853,8.964,8.964,0,0,0,1.9-1.189,6.956,6.956,0,0,1,0,8.084ZM30,32a19.547,19.547,0,0,1,.122-2.207,8.623,8.623,0,0,0,3.756,0,20.042,20.042,0,0,1,0,4.416,9.039,9.039,0,0,0-3.756,0A19.6,19.6,0,0,1,30,32Zm4.9-6.361a6.992,6.992,0,0,1,1.413.862,6.985,6.985,0,0,1-.914.605A11.351,11.351,0,0,0,34.9,25.639Zm-1.379,2.17a6.975,6.975,0,0,1-3.05,0C30.942,25.966,31.636,25,32,25S33.058,25.967,33.525,27.809Zm-4.928-.7a6.985,6.985,0,0,1-.914-.605,6.992,6.992,0,0,1,1.413-.862A11.3,11.3,0,0,0,28.6,27.106Zm.5,11.255a6.992,6.992,0,0,1-1.413-.862,6.985,6.985,0,0,1,.914-.605A11.3,11.3,0,0,0,29.1,38.361Zm1.379-2.17a6.99,6.99,0,0,1,3.05,0C33.058,38.034,32.364,39,32,39S30.942,38.033,30.475,36.191Zm4.928.7a6.886,6.886,0,0,1,.914.605,6.992,6.992,0,0,1-1.413.862A11.351,11.351,0,0,0,35.4,36.894ZM26.3,27.958a8.956,8.956,0,0,0,1.9,1.189,21.022,21.022,0,0,0,0,5.706,8.949,8.949,0,0,0-1.9,1.189,6.956,6.956,0,0,1,0-8.084Z"></path><path d="M45.707,29.707l4-4-1.414-1.414L44.586,28H43v2h2A1,1,0,0,0,45.707,29.707Z"></path><path d="M43,37h1.586l3.707,3.707,1.414-1.414-4-4A1,1,0,0,0,45,35H43Z"></path><path d="M21,28H19.414l-3.707-3.707-1.414,1.414,4,4A1,1,0,0,0,19,30h2Z"></path><path d="M18.293,35.293l-4,4,1.414,1.414L19.414,37H21V35H19A1,1,0,0,0,18.293,35.293Z"></path></g></svg>