<svg xmlns="http://www.w3.org/2000/svg" viewBox="0 0 64 64" x="0px" y="0px"><g data-name="Business-Woman-Avatar-Long-Hair"><path d="M45.883,32.556A5.987,5.987,0,0,0,43,22.083V13A10.993,10.993,0,0,0,21.764,9H20v2h1.191A10.989,10.989,0,0,0,21,13v9.083a5.988,5.988,0,0,0-2.884,10.473A12.933,12.933,0,0,0,15,41V61a1,1,0,0,0,1,1H48a1,1,0,0,0,1-1V41A12.929,12.929,0,0,0,45.883,32.556ZM42,24a3.995,3.995,0,0,1,2.468,7.14,13.048,13.048,0,0,0-7.278-3.087c-.063-.005-.127,0-.19-.008V25.188A6,6,0,0,0,40,20V8.881A8.946,8.946,0,0,1,41,13V23A1,1,0,0,0,42,24ZM26,11h7a7.961,7.961,0,0,0,5-1.751V20a4,4,0,0,1-4,4H30a4,4,0,0,1-4-4Zm4,15h4a6,6,0,0,0,1-.09v2.739L32,32.4l-3-3.75V25.91A6,6,0,0,0,30,26Zm-1.927,4.693,2.5,3.126-2.13,1.6-1.32-3.3ZM32,35.25l2.763,2.071L32,43.538l-2.763-6.217Zm3.556.167-2.13-1.6,2.5-3.126.949,1.424ZM32,4a8.927,8.927,0,0,1,6,2.307A5.941,5.941,0,0,1,33,9H23.95A9,9,0,0,1,32,4ZM22,24a1,1,0,0,0,1-1V13a8.971,8.971,0,0,1,.232-2H24v9a6,6,0,0,0,3,5.188v2.86a12.914,12.914,0,0,0-7.464,3.1A3.995,3.995,0,0,1,22,24ZM47,60H43V50.447a8.417,8.417,0,0,0,0-10.894V38H41v2a1,1,0,0,0,.4.8c.9.679,1.6,2.815,1.6,4.2s-.7,3.522-1.6,4.2a1,1,0,0,0-.4.8V60H23V50a1,1,0,0,0-.4-.8c-.9-.679-1.6-2.815-1.6-4.2s.7-3.522,1.6-4.2A1,1,0,0,0,23,40V38H21v1.553a8.417,8.417,0,0,0,0,10.894V60H17V41a10.966,10.966,0,0,1,9.008-10.815l-.84,1.26a1,1,0,0,0-.1.927l6.015,14.034a1,1,0,0,0,1.828,0l6.015-14.034a1,1,0,0,0-.1-.927l-.843-1.264A10.972,10.972,0,0,1,47,41Z"></path><path d="M34.29,14.71l.149.12a.782.782,0,0,0,.181.09.6.6,0,0,0,.19.06A1.213,1.213,0,0,0,35,15a1.052,1.052,0,0,0,.71-.29,1.155,1.155,0,0,0,.21-.33A1,1,0,0,0,36,14a1.234,1.234,0,0,0-.021-.2.6.6,0,0,0-.059-.18.8.8,0,0,0-.09-.18l-.12-.15a1.047,1.047,0,0,0-1.42,0A1.028,1.028,0,0,0,34,14a1,1,0,0,0,.08.38A1.032,1.032,0,0,0,34.29,14.71Z"></path><path d="M28.29,14.71a1.032,1.032,0,0,0,.33.21A1,1,0,0,0,29,15a1.052,1.052,0,0,0,.71-.29,1.155,1.155,0,0,0,.21-.33A1,1,0,0,0,30,14a1.234,1.234,0,0,0-.021-.2.6.6,0,0,0-.059-.18.8.8,0,0,0-.09-.18l-.12-.15a1.021,1.021,0,0,0-1.09-.21,1.032,1.032,0,0,0-.33.21,1.576,1.576,0,0,0-.12.15.757.757,0,0,0-.09.18.636.636,0,0,0-.06.18A1.355,1.355,0,0,0,28,14a.838.838,0,0,0,.08.38A1.155,1.155,0,0,0,28.29,14.71Z"></path></g></svg>