<svg xmlns="http://www.w3.org/2000/svg" viewBox="0 0 64 64" x="0px" y="0px"><g><path d="M48.707,14.293l-12-12A.99.99,0,0,0,36,2.01V2H4A1,1,0,0,0,3,3V61a1,1,0,0,0,1,1H48a1,1,0,0,0,1-1V15h-.009A.991.991,0,0,0,48.707,14.293ZM37,5.414,45.586,14H38a1,1,0,0,1-1-1ZM5,60V4H35v9a3,3,0,0,0,3,3h9V60Z"></path><path d="M60,14H58V12a3,3,0,0,0-6,0V50a1.012,1.012,0,0,0,.071.372l2,5a1,1,0,0,0,1.858,0l2-5A1.012,1.012,0,0,0,58,50V16h1v9h2V15A1,1,0,0,0,60,14Zm-5-3a1,1,0,0,1,1,1v6H54V12A1,1,0,0,1,55,11ZM54,49V20h2V49Zm.477,2h1.046L55,52.308Z"></path><path d="M36,24a1,1,0,0,0-1-1H31a1,1,0,0,0-1,1V41H29V30a1,1,0,0,0-1-1H24a1,1,0,0,0-1,1V41H22V34a1,1,0,0,0-1-1H17a1,1,0,0,0-1,1v7H14V20H12V42a1,1,0,0,0,1,1H40V41H36ZM18,41V35h2v6Zm7,0V31h2V41Zm7,0V25h2V41Z"></path><rect x="12" y="47" width="4" height="2"></rect><rect x="18" y="47" width="22" height="2"></rect><rect x="12" y="51" width="28" height="2"></rect><rect x="13" y="7" width="2" height="2"></rect><rect x="17" y="7" width="10" height="2"></rect><rect x="13" y="11" width="14" height="2"></rect></g></svg>