<svg xmlns="http://www.w3.org/2000/svg" viewBox="0 0 64 64" x="0px" y="0px"><g><circle cx="11" cy="11" r="1"></circle><rect x="46" y="54" width="2" height="2"></rect><rect x="38" y="54" width="2" height="2"></rect><rect x="46" y="38" width="2" height="2"></rect><rect x="46" y="46" width="2" height="2"></rect><rect x="38" y="38" width="2" height="2"></rect><path d="M39,11a1,1,0,0,0,1,1h4.75L39,5.61Z"></path><rect x="54" y="54" width="2" height="2"></rect><circle cx="19" cy="19" r="1"></circle><path d="M4,57a3.009,3.009,0,0,0,3,3H32.18A3,3,0,0,1,32,59V23a3.009,3.009,0,0,1,3-3H46V14H40a3.009,3.009,0,0,1-3-3V4H7A3.009,3.009,0,0,0,4,7Zm24-9H14V46H28Zm0-4H14V42H28Zm0-4H14V38H28Zm0-4H14V34H28Zm0-4H14V30H28Zm0-4H14V26H28ZM25,8H35v2H25Zm0,4H35v2H25Zm0,4H35v2H25Zm-6,6a3,3,0,1,1,3-3A3,3,0,0,1,19,22ZM21.707,9.707l-12,12L8.293,20.293l12-12ZM11,8a3,3,0,1,1-3,3A3,3,0,0,1,11,8ZM8,26h4v2H8Zm0,4h4v2H8Zm0,4h4v2H8Zm0,4h4v2H8Zm0,4h4v2H8Zm0,4h4v2H8Z"></path><path d="M50,20V7a3.009,3.009,0,0,0-3-3H40.25l7.49,8.33A.971.971,0,0,1,48,13v7Z"></path><rect x="38" y="46" width="2" height="2"></rect><path d="M38,26v6H56V26Zm6,4H42V28h2Zm4,0H46V28h2Zm4,0H50V28h2Z"></path><rect x="54" y="38" width="2" height="2"></rect><rect x="54" y="46" width="2" height="2"></rect><path d="M60,59V23a1,1,0,0,0-1-1H35a1,1,0,0,0-1,1V59a1,1,0,0,0,1,1H59A1,1,0,0,0,60,59ZM42,57a1,1,0,0,1-1,1H37a1,1,0,0,1-1-1V53a1,1,0,0,1,1-1h4a1,1,0,0,1,1,1Zm0-8a1,1,0,0,1-1,1H37a1,1,0,0,1-1-1V45a1,1,0,0,1,1-1h4a1,1,0,0,1,1,1Zm0-8a1,1,0,0,1-1,1H37a1,1,0,0,1-1-1V37a1,1,0,0,1,1-1h4a1,1,0,0,1,1,1Zm8,16a1,1,0,0,1-1,1H45a1,1,0,0,1-1-1V53a1,1,0,0,1,1-1h4a1,1,0,0,1,1,1Zm0-8a1,1,0,0,1-1,1H45a1,1,0,0,1-1-1V45a1,1,0,0,1,1-1h4a1,1,0,0,1,1,1Zm0-8a1,1,0,0,1-1,1H45a1,1,0,0,1-1-1V37a1,1,0,0,1,1-1h4a1,1,0,0,1,1,1Zm8,16a1,1,0,0,1-1,1H53a1,1,0,0,1-1-1V53a1,1,0,0,1,1-1h4a1,1,0,0,1,1,1Zm0-8a1,1,0,0,1-1,1H53a1,1,0,0,1-1-1V45a1,1,0,0,1,1-1h4a1,1,0,0,1,1,1Zm0-8a1,1,0,0,1-1,1H53a1,1,0,0,1-1-1V37a1,1,0,0,1,1-1h4a1,1,0,0,1,1,1Zm0-9a2,2,0,0,1-2,2H38a2,2,0,0,1-2-2V26a2,2,0,0,1,2-2H56a2,2,0,0,1,2,2Z"></path></g></svg>