<svg xmlns="http://www.w3.org/2000/svg" viewBox="0 0 64 64" x="0px" y="0px"><g><polygon points="49.618 50 51.618 54 54.382 54 56.382 50 49.618 50"></polygon><rect x="52" y="18" width="2.001" height="8"></rect><path d="M54,56H52v3a1,1,0,0,0,2,0Z"></path><path d="M57,18H56v8a2,2,0,0,1-2,2H52a2,2,0,0,1-2-2V18H49V48h8Z"></path><rect x="51" y="4" width="4" height="4"></rect><rect x="49" y="14" width="8" height="2"></rect><rect x="49" y="10" width="8" height="2"></rect><path d="M35,18a14,14,0,1,0,8.98,24.74V21.26A13.966,13.966,0,0,0,35,18Zm6,11H39V28a1,1,0,0,0-1-1H32a1,1,0,0,0-1,1v2a1,1,0,0,0,1,1h6a3.009,3.009,0,0,1,3,3v2a3.009,3.009,0,0,1-3,3H36v2H34V39H32a3.009,3.009,0,0,1-3-3V35h2v1a1,1,0,0,0,1,1h6a1,1,0,0,0,1-1V34a1,1,0,0,0-1-1H32a3.009,3.009,0,0,1-3-3V28a3.009,3.009,0,0,1,3-3h2V23h2v2h2a3.009,3.009,0,0,1,3,3Z"></path><path d="M35,16a16,16,0,0,1,8.98,2.77V13.02c-.04-.02-.07-.03-.11-.05-.18-.09-.37-.17-.55-.25-.23-.1-.47-.2-.71-.29a.488.488,0,0,1-.07-.03c-.33-.13-.66-.25-1-.35-.34-.12-.68-.22-1.03-.31a1.021,1.021,0,0,1-.73-.86L39.09,4H30.91l-.69,6.88a1.028,1.028,0,0,1-.7.85l-.04.01a21.029,21.029,0,0,0-4.91,2.03,1,1,0,0,1-1.1-.07L18.1,9.3l-5.8,5.8,4.4,5.37a1,1,0,0,1,.07,1.1,20.925,20.925,0,0,0-2.03,4.92,1.021,1.021,0,0,1-.86.73L7,27.91v8.18l6.88.69a1.021,1.021,0,0,1,.86.73,20.925,20.925,0,0,0,2.03,4.92,1,1,0,0,1-.07,1.1L12.3,48.9l5.8,5.8,5.36-4.39a.983.983,0,0,1,1.11-.08,21.029,21.029,0,0,0,4.91,2.03l.04.01a1.028,1.028,0,0,1,.7.85L30.91,60h8.18l.69-6.88a1.017,1.017,0,0,1,.74-.86c.34-.09.68-.19,1.02-.31.26-.08.53-.18.79-.27.24-.09.48-.19.72-.29.19-.08.38-.16.56-.24.12-.05.24-.11.36-.17V45.23A15.993,15.993,0,1,1,35,16Zm-1-4h2v2H34ZM15,33V31h2v2ZM34,50h2v2H34ZM21.57,44.02l1.41,1.41-1.42,1.42-1.41-1.41Zm0-24.04-1.42-1.42,1.41-1.41,1.42,1.42Z"></path></g></svg>