<svg xmlns="http://www.w3.org/2000/svg" viewBox="0 0 64 64" x="0px" y="0px"><g data-name="Smartphone-Online Learning"><rect x="10" y="34" width="2" height="2"></rect><path d="M57,2H31a5.006,5.006,0,0,0-5,5V30H23a1,1,0,0,0-.447.105L18.764,32H16V31a1,1,0,0,0-1-1H3a1,1,0,0,0-1,1V59a1,1,0,0,0,1,1H15a1,1,0,0,0,1-1V58H26.1A5.009,5.009,0,0,0,31,62H57a5.006,5.006,0,0,0,5-5V7A5.006,5.006,0,0,0,57,2ZM38,4H50V6H38ZM14,58H4V32H14Zm2-24h3a1,1,0,0,0,.447-.1L23.236,32H39a3,3,0,0,1,0,6H31a1,1,0,0,0-1,1,7.008,7.008,0,0,1-7,7v2a8.96,8.96,0,0,0,3-.523V56H16ZM34,22A10,10,0,1,1,44,32a9.844,9.844,0,0,1-1.093-.081A4.97,4.97,0,0,0,39,30h-.973A10.006,10.006,0,0,1,34,22ZM60,57a3,3,0,0,1-3,3H31a3,3,0,0,1-3-3V46.47A9,9,0,0,0,31.944,40H39a5,5,0,0,0,4.9-6c.035,0,.068,0,.1,0a12.03,12.03,0,1,0-8.928-4H28V7a3,3,0,0,1,3-3h5V6a2,2,0,0,0,2,2H50a2,2,0,0,0,2-2V4h5a3,3,0,0,1,3,3Z"></path><path d="M43.553,26.9A1,1,0,0,0,45,26V18a1,1,0,0,0-1.447-.895L39.764,19H37a1,1,0,0,0-1,1v4a1,1,0,0,0,1,1h2.764ZM43,24.382l-2-1V20.618l2-1ZM38,21h1v2H38Z"></path><path d="M48.121,24.122a3,3,0,0,0,0-4.244l-1.414,1.415a1,1,0,0,1,0,1.414Z"></path><path d="M48.828,24.829l1.414,1.414a6,6,0,0,0,0-8.486l-1.414,1.414a4,4,0,0,1,0,5.658Z"></path><path d="M54,42H38a2,2,0,0,0-2,2v2.382l-3.447,1.723a1,1,0,0,0,0,1.79L36,51.618V54a2,2,0,0,0,2,2H54a2,2,0,0,0,2-2V44A2,2,0,0,0,54,42Zm0,12H38V51a1,1,0,0,0-.553-.9L35.236,49l2.211-1.1A1,1,0,0,0,38,47V44H54Z"></path><rect x="40" y="46" width="12" height="2"></rect><rect x="40" y="50" width="12" height="2"></rect></g></svg>