<svg xmlns="http://www.w3.org/2000/svg" viewBox="0 0 64 64" x="0px" y="0px"><g data-name="Hand-Coronavirus-Search-Virus-Magnifying Glass"><path d="M43.48,42.48a11.9,11.9,0,0,0,1.74-2.18,12.652,12.652,0,0,0,.89-1.72,12,12,0,1,0-6.53,6.52,11.523,11.523,0,0,0,3.9-2.62Zm-4.237-2.823-1.486-1.486A4.974,4.974,0,0,1,36,38.893V41H34V38.893a4.974,4.974,0,0,1-1.757-.722l-1.486,1.486-1.414-1.414,1.486-1.486A4.935,4.935,0,0,1,30.1,35H28V33h2.1a4.935,4.935,0,0,1,.728-1.757l-1.486-1.486,1.414-1.414,1.486,1.486A4.972,4.972,0,0,1,34,29.108V27h2v2.107a4.974,4.974,0,0,1,1.757.722l1.486-1.486,1.414,1.414-1.486,1.486A4.935,4.935,0,0,1,39.9,33H42v2H39.9a4.935,4.935,0,0,1-.728,1.757l1.486,1.486Z"></path><path d="M37,50V47.85a13.588,13.588,0,0,1-2,.16A14.015,14.015,0,0,1,21,34a13.414,13.414,0,0,1,.11-1.68A7.147,7.147,0,0,0,19,32H16a1,1,0,0,1-.87-.5l-4-6.93A2,2,0,0,0,7.4,25.58a1.94,1.94,0,0,0,.27.99l11.2,19.39a1.063,1.063,0,0,1,.13.5V50Z"></path><path d="M35,31a3,3,0,1,0,2.122.877A2.992,2.992,0,0,0,35,31Zm1,4H34V33h2Z"></path><path d="M21.49,30.36A13.905,13.905,0,0,1,25.1,24.1,14.219,14.219,0,0,1,27,22.52V6a2.006,2.006,0,0,0-2-2,2.015,2.015,0,0,0-2,2V24a1,1,0,0,1-2,0V11a2.006,2.006,0,0,0-2-2,2.015,2.015,0,0,0-2,2V30h2A9.03,9.03,0,0,1,21.49,30.36Z"></path><path d="M49.15,45.32l-2.83,2.83,6.36,6.35a1.994,1.994,0,1,0,2.82-2.82Z"></path><path d="M49.15,42.49l-1.84-1.83c-.12.23-.25.47-.39.7a14.322,14.322,0,0,1-4.56,4.56c-.23.14-.47.27-.7.39l1.83,1.84Z"></path><path d="M29,21.36a13.811,13.811,0,0,1,4-1.2V11a2.006,2.006,0,0,0-2-2,2.015,2.015,0,0,0-2,2Z"></path><path d="M35,20a14.02,14.02,0,0,1,4,.58V15a2.006,2.006,0,0,0-2-2,2.015,2.015,0,0,0-2,2Z"></path><rect x="17" y="52" width="22" height="9"></rect></g></svg>