<svg xmlns="http://www.w3.org/2000/svg" viewBox="0 0 64 64" x="0px" y="0px"><g data-name="Payment-Taxi-Service-Smartphone-Online Payment"><path d="M6.858,12H4v2.858A4,4,0,0,0,6.858,12Z"></path><path d="M4,23.142V26H6.858A4,4,0,0,0,4,23.142Z"></path><path d="M37,46H34a3,3,0,0,1-1-.18V48h4Z"></path><path d="M33,32a2.949,2.949,0,0,1,1.99.78l1.07-2.13.78-3.14A1.992,1.992,0,0,1,38.78,26H41V23a1,1,0,0,1,1-1h8V8a4,4,0,0,0-4-4H18a4,4,0,0,0-4,4v2H32a2.006,2.006,0,0,1,2,2V26a2.006,2.006,0,0,1-2,2H14V56a4,4,0,0,0,4,4H46a4,4,0,0,0,4-4V46H39v2a2.006,2.006,0,0,1-2,2H33a2.006,2.006,0,0,1-2-2V39a2.942,2.942,0,0,1,.4-1.47A3,3,0,0,1,33,32ZM27,8H25V6h2Zm2,0V6h6V8Zm5,44a3,3,0,0,1,0,6H30a3,3,0,0,1,0-6Z"></path><path d="M34,54H30a1,1,0,0,0,0,2h4a1,1,0,0,0,0-2Z"></path><circle cx="18" cy="19" r="3"></circle><path d="M32,26V23.143A3.993,3.993,0,0,0,29.142,26Z"></path><path d="M27.09,12H8.91A6.008,6.008,0,0,1,4,16.91v4.18A6.008,6.008,0,0,1,8.91,26H27.09A6.006,6.006,0,0,1,32,21.091V16.91A6.007,6.007,0,0,1,27.09,12ZM18,24a5,5,0,1,1,5-5A5.006,5.006,0,0,1,18,24Z"></path><path d="M32,12H29.142A4,4,0,0,0,32,14.858Z"></path><path d="M60,35a.992.992,0,0,0-1.97-.17l.53,1.05A.966.966,0,0,0,59,36,1,1,0,0,0,60,35Z"></path><rect x="43" y="24" width="6" height="2"></rect><path d="M59,43V39a1,1,0,0,0-1-1H34a1,1,0,0,0-1,1v4a1,1,0,0,0,1,1H58A1,1,0,0,0,59,43ZM37,43a2,2,0,1,1,2-2A2,2,0,0,1,37,43Zm12-1H43V40h6Zm6,1a2,2,0,1,1,2-2A2,2,0,0,1,55,43Z"></path><polygon points="38.28 30 53.72 30 53.22 28 38.78 28 38.28 30"></polygon><path d="M59,45.82A3,3,0,0,1,58,46H55v2h4Z"></path><path d="M33.44,35.88l.53-1.05A.993.993,0,1,0,33,36,.966.966,0,0,0,33.44,35.88Z"></path><polygon points="35.62 36 56.38 36 54.38 32 37.62 32 35.62 36"></polygon></g></svg>