<svg xmlns="http://www.w3.org/2000/svg" viewBox="0 0 64 64" x="0px" y="0px"><g data-name="Playground"><path d="M59,56H41V53a1,1,0,0,0-1-1H35V47H55a1,1,0,0,0,1-1V34a1.008,1.008,0,0,0-.025-.124.982.982,0,0,0-.041-.2.934.934,0,0,0-.093-.184.906.906,0,0,0-.057-.112L35,7.171V7a.994.994,0,0,0-.3-.713,3,3,0,1,0-5.4,0A.991.991,0,0,0,29,7v.169L8.216,33.379a.906.906,0,0,0-.057.112.934.934,0,0,0-.093.184.982.982,0,0,0-.041.2A1.008,1.008,0,0,0,8,34V46a1,1,0,0,0,1,1H29v5H24a1,1,0,0,0-1,1v3H5a1,1,0,0,0-1,1v4a1,1,0,0,0,1,1H59a1,1,0,0,0,1-1V57A1,1,0,0,0,59,56ZM54,45H35V43H54ZM10,41V35h2v6Zm34,0V35h6v6Zm-9,0V35h7v6Zm8.69-8-7.5-19.787L49.149,33ZM20.31,33H14.851L27.814,13.213ZM29,15.727V33H22.449Zm2-5.274L31.93,8h.14L33,10.453V33H31Zm4,5.274L41.551,33H35ZM52,35h2v6H52Zm-.46-2L44.927,22.907l8,10.093ZM12.46,33H11.069l8-10.087ZM14,35h6v6H14Zm8,0h7v6H22Zm9,0h2v6H31Zm2,8v2H31V43ZM32,4a1,1,0,1,1-1,1A1,1,0,0,1,32,4ZM10,45V43H29v2Zm21,2h2v5H31Zm-6,7H39v2H25Zm33,6H6V58H58Z"></path></g></svg>