<svg xmlns="http://www.w3.org/2000/svg" viewBox="0 0 64 64" x="0px" y="0px"><g data-name="Power Button-Smartphone-Application-Reset"><path d="M32,21A11,11,0,1,0,43,32,11.013,11.013,0,0,0,32,21Zm-1,4a1,1,0,0,1,2,0v6a1,1,0,0,1-2,0Zm1,13a6,6,0,0,1-3.6-10.8,1,1,0,1,1,1.2,1.6,4,4,0,1,0,4.8,0,1,1,0,1,1,1.2-1.6A6,6,0,0,1,32,38Z"></path><path d="M50,12H14V52H50ZM32,45A13,13,0,1,1,45,32,13.015,13.015,0,0,1,32,45Z"></path><path d="M50,8a4,4,0,0,0-4-4H18a4,4,0,0,0-4,4v2H50ZM27,8H25V6h2Zm8,0H29V6h6Z"></path><path d="M50,54H14v2a4,4,0,0,0,4,4H46a4,4,0,0,0,4-4ZM33,58H31V56h2Z"></path></g></svg>