<svg xmlns="http://www.w3.org/2000/svg" viewBox="0 0 64 64" x="0px" y="0px"><g><path d="M18,29a1,1,0,0,0-1-1H5a1,1,0,0,0,0,2H17A1,1,0,0,0,18,29Z"></path><polygon points="4.766 40 17.234 40 15.434 37 6.566 37 4.766 40"></polygon><rect x="7" y="32" width="8" height="3"></rect><rect x="4" y="42" width="14" height="2"></rect><path d="M15.949,22.316A1,1,0,0,1,15,23H13a1,1,0,0,1-.949-.684L11.279,20h-.558l-.772,2.316A1,1,0,0,1,9,23H7a1,1,0,0,1-.949-.684L5.279,20H4v2.764L5.618,26H16.382L18,22.764V20H16.721Z"></path><rect x="54" y="52" width="2" height="2"></rect><path d="M36,59a1,1,0,0,0,1,1h2.653L43.9,56.646A3,3,0,0,1,45.761,56h4.478a3.008,3.008,0,0,1,1.86.646L56.347,60H59a1,1,0,0,0,1-1V54a6.006,6.006,0,0,0-6-6H42a6.006,6.006,0,0,0-6,6Zm16-7h2V50h2v2h2v2H56v2H54V54H52Zm-3-2h2v2H49Zm-4,0h2v2H45Zm-7,2h2V50h2v2h2v2H42v2H40V54H38Z"></path><path d="M36,37a1,1,0,0,0,1,1h2.653L43.9,34.646A3,3,0,0,1,45.761,34h4.478a3.008,3.008,0,0,1,1.86.646L56.347,38H59a1,1,0,0,0,1-1V32a6.006,6.006,0,0,0-6-6H42a6.006,6.006,0,0,0-6,6Zm16-7h2V28h2v2h2v2H56v2H54V32H52Zm-3-2h2v2H49Zm-4,0h2v2H45Zm-7,2h2V28h2v2h2v2H42v2H40V32H38Z"></path><rect x="54" y="30" width="2" height="2"></rect><rect x="54" y="8" width="2" height="2"></rect><path d="M36,15a1,1,0,0,0,1,1h2.653L43.9,12.646A3,3,0,0,1,45.761,12h4.478a3.008,3.008,0,0,1,1.86.646L56.347,16H59a1,1,0,0,0,1-1V10a6.006,6.006,0,0,0-6-6H42a6.006,6.006,0,0,0-6,6ZM52,8h2V6h2V8h2v2H56v2H54V10H52ZM49,6h2V8H49ZM45,6h2V8H45ZM38,8h2V6h2V8h2v2H42v2H40V10H38Z"></path><path d="M24.18,31H22v2h2.18a2.868,2.868,0,0,1,0-2ZM27,9a1,1,0,0,0-1,1V29.18a2.868,2.868,0,0,1,2,0V11h4V9Zm2.82,22a2.868,2.868,0,0,1,0,2H32V31ZM28,53V34.82a2.868,2.868,0,0,1-2,0V54a1,1,0,0,0,1,1h5V53Z"></path><circle cx="27" cy="32" r="1"></circle></g></svg>