<svg xmlns="http://www.w3.org/2000/svg" viewBox="0 0 64 64" x="0px" y="0px"><g data-name="Detergent"><polygon points="11.905 4 11.105 12 20.895 12 20.095 4 11.905 4"></polygon><path d="M6,19V30H26V19a1,1,0,0,0-1-1H7A1,1,0,0,0,6,19Z"></path><rect x="13" y="14" width="6" height="2"></rect><path d="M7,60H25a1,1,0,0,0,1-1V48H6V59A1,1,0,0,0,7,60Z"></path><rect x="7" y="32" width="18" height="14"></rect><path d="M60,43a3,3,0,0,0-3-3H35a3,3,0,0,0-3,3v5H60Z"></path><polygon points="59 56 59 50 33 50 33 56 35 56 35 53 37 53 37 56 39 56 39 53 41 53 41 56 43 56 43 53 45 53 45 56 47 56 47 53 49 53 49 56 51 56 51 53 53 53 53 56 55 56 55 53 57 53 57 56 59 56"></polygon></g></svg>