<svg xmlns="http://www.w3.org/2000/svg" viewBox="0 0 64 64" x="0px" y="0px"><g><path d="M15,4a1,1,0,0,0-1,1V6.184A2.966,2.966,0,0,1,15,6H51a2.966,2.966,0,0,1,1,.184V5a1,1,0,0,0-1-1Z"></path><path d="M51,10a2.966,2.966,0,0,1,1,.184V9a1,1,0,0,0-1-1H15a1,1,0,0,0-1,1v1.184A2.966,2.966,0,0,1,15,10Z"></path><path d="M41,26a2,2,0,0,0-2,2V51a3,3,0,0,0,3,3H54a3,3,0,0,0,3-3V43a4.977,4.977,0,0,0-2-3.974V42H53V38.1a5,5,0,0,0-1-.1H50v3H48V38H45v3H43V28A2,2,0,0,0,41,26Z"></path><path d="M51,12H15a1,1,0,0,0-1,1V23.05c.33-.03.66-.05,1-.05a10.021,10.021,0,0,1,9.95,9H37V28a2.85,2.85,0,0,1,.03-.29A6.936,6.936,0,0,1,33,29a7.018,7.018,0,1,1,6.62-4.74A3.935,3.935,0,0,1,41,24a4,4,0,0,1,4,4v4h6a1,1,0,0,0,1-1V13A1,1,0,0,0,51,12ZM21,16H18v3H16V15a1,1,0,0,1,1-1h4Zm3,7H22V21h2Zm20,0H42V21h2Zm6,6a1,1,0,0,1-1,1H47V28h1V25h2Zm0-10H48V16H45V14h4a1,1,0,0,1,1,1Z"></path><rect x="42" y="56" width="12" height="4"></rect><path d="M37,49.05V42.834l-2.7-3.21a2.045,2.045,0,0,0-2.81-.248,1.986,1.986,0,0,0-.249,2.81Z"></path><circle cx="33" cy="22" r="5"></circle><path d="M15,25a8,8,0,1,0,8,8A8.011,8.011,0,0,0,15,25Zm0,7a3,3,0,0,1,1,5.82V39H14V37.82A3.01,3.01,0,0,1,12,35h2a1,1,0,1,0,1-1,3,3,0,0,1-1-5.82V27h2v1.18A3.01,3.01,0,0,1,18,31H16a1,1,0,1,0-1,1Z"></path></g></svg>