<svg xmlns="http://www.w3.org/2000/svg" viewBox="0 0 64 64" x="0px" y="0px"><title>Artificial Intelligence-Robot-Robotic-Automation</title><g data-name="Artificial Intelligence"><rect x="35" y="16" width="2" height="2"></rect><rect x="39" y="16" width="3" height="2"></rect><rect x="32" y="20" width="8" height="2"></rect><rect x="30" y="16" width="3" height="2"></rect><path d="M23,29.929V24H17.071A7.016,7.016,0,0,0,23,29.929Z"></path><circle cx="30" cy="9" r="1"></circle><path d="M54.929,24H49v5.929A7.016,7.016,0,0,0,54.929,24Z"></path><path d="M52,60V49.94a1,1,0,0,1,.291-.706,23.044,23.044,0,0,0,6.632-18.125A21.748,21.748,0,0,0,58.449,28H55.478a9,9,0,0,1-6.661,3.959l-2.839,13.25A1,1,0,0,1,45,46H27a1,1,0,0,1-.978-.791l-2.839-13.25A9,9,0,0,1,16.522,28H13.547A22.929,22.929,0,0,0,13,33a1,1,0,0,1-.26.673L4.26,43,10,43a1,1,0,0,1,1,1v7a5.006,5.006,0,0,0,5,5h8a2,2,0,0,1,2,2v2Z"></path><rect x="30" y="28" width="12" height="4"></rect><path d="M44.191,44,47,30.894V24H25v6.894L27.809,44ZM28,27a1,1,0,0,1,1-1H43a1,1,0,0,1,1,1v6a1,1,0,0,1-1,1H40v5a1,1,0,0,1-1,1H33a1,1,0,0,1-1-1V34H29a1,1,0,0,1-1-1Z"></path><rect x="34" y="34" width="4" height="4"></rect><circle cx="42" cy="9" r="1"></circle><path d="M47,4H25a1,1,0,0,0-1,1V17a1,1,0,0,0,1,1h3V15a1,1,0,0,1,1-1H43a1,1,0,0,1,1,1v3h3a1,1,0,0,0,1-1V5A1,1,0,0,0,47,4ZM30,12a3,3,0,1,1,3-3A3,3,0,0,1,30,12Zm12,0a3,3,0,1,1,3-3A3,3,0,0,1,42,12Z"></path><rect x="54" y="6" width="2" height="4"></rect><rect x="54" y="12" width="2" height="2"></rect><rect x="54" y="16" width="2" height="2"></rect><rect x="58" y="6" width="2" height="2"></rect><rect x="58" y="10" width="2" height="2"></rect><rect x="58" y="14" width="2" height="2"></rect><rect x="12" y="6" width="2" height="4"></rect><rect x="12" y="12" width="2" height="2"></rect><rect x="12" y="16" width="2" height="2"></rect><rect x="16" y="6" width="2" height="2"></rect><rect x="16" y="10" width="2" height="2"></rect><rect x="16" y="14" width="2" height="2"></rect></g></svg>