<svg xmlns="http://www.w3.org/2000/svg" data-name="Online Shopping-Shopping Bag-Smartphone-List-Commerce" viewBox="0 0 64 64" x="0px" y="0px"><path d="M62,8V56a6,6,0,0,1-6,6H40V60H56a4,4,0,0,0,4-4V8a4,4,0,0,0-4-4H28a4,4,0,0,0-4,4V26H22V8a6,6,0,0,1,6-6H56A6,6,0,0,1,62,8Z"></path><path d="M44,56H40v2h4a3,3,0,0,0,0-6H40v2h4a1,1,0,0,1,0,2Z"></path><rect x="35" y="6" width="2" height="2"></rect><rect x="39" y="6" width="6" height="2"></rect><path d="M24,32H20a1,1,0,0,0-1,1v6H13V33a1,1,0,0,0-1-1H8a1,1,0,0,0-1,1v7a5.006,5.006,0,0,0,5,5h8a5.006,5.006,0,0,0,5-5V33A1,1,0,0,0,24,32ZM9,40V34h2v8.829A3.006,3.006,0,0,1,9,40Zm4,1h6v2H13Zm10-1a3.006,3.006,0,0,1-2,2.829V34h2Z"></path><path d="M37,28H3a1,1,0,0,0-1,1V61a1,1,0,0,0,1,1H37a1,1,0,0,0,1-1V29A1,1,0,0,0,37,28ZM28,60H4V30H28Zm2-30h2V55.65l-2,2.5Zm1.08,30L33,57.6,34.92,60ZM36,58.15l-2-2.5V30h2Z"></path><path d="M32,18a5,5,0,1,0,9.167-2.753l1.54-1.54-1.414-1.414-1.54,1.54A4.992,4.992,0,0,0,32,18Zm5-3a2.951,2.951,0,0,1,1.285.3l-2.992,2.992,1.414,1.414L39.7,16.715A2.951,2.951,0,0,1,40,18a3,3,0,1,1-3-3Z"></path><rect x="45" y="15" width="6" height="2"></rect><rect x="45" y="19" width="6" height="2"></rect><rect x="42" y="30" width="14" height="2"></rect><rect x="42" y="34" width="14" height="2"></rect><rect x="42" y="38" width="14" height="2"></rect><rect x="42" y="42" width="14" height="2"></rect></svg>