<svg xmlns="http://www.w3.org/2000/svg" viewBox="0 0 64 64" x="0px" y="0px"><g><path d="M53.982,44.86A7.88,7.88,0,0,0,55,41a8.027,8.027,0,0,0-6-7.739V25.618a3.927,3.927,0,0,0,0-5.236V19a17,17,0,0,0-34,0v1.382a3.927,3.927,0,0,0,0,5.236v7.643A8.027,8.027,0,0,0,9,41a7.877,7.877,0,0,0,1.018,3.86A12.989,12.989,0,0,0,6,54.25V61a1,1,0,0,0,1,1H57a1,1,0,0,0,1-1V54.25A12.989,12.989,0,0,0,53.982,44.86ZM53,41a5.919,5.919,0,0,1-.591,2.577,12.946,12.946,0,0,0-4.1-1.894L39,39.229V36.106A14.029,14.029,0,0,0,45.668,27H46a3.939,3.939,0,0,0,1-.142V34.08a1,1,0,0,0,.86.99A6.01,6.01,0,0,1,53,41ZM27,37.061a13.782,13.782,0,0,0,10,0V40a5,5,0,0,1-10,0Zm-1.879,4.2a6.993,6.993,0,0,0,13.758,0l1.948.513a9.006,9.006,0,0,1-17.654,0ZM48,23a2,2,0,0,1-2,2V21A2,2,0,0,1,48,23ZM32,4A15.017,15.017,0,0,1,47,19v.142A3.939,3.939,0,0,0,46,19V18H44v6a12,12,0,0,1-24,0V18H18v1a3.939,3.939,0,0,0-1,.142V19A15.017,15.017,0,0,1,32,4ZM16,23a2,2,0,0,1,2-2v4A2,2,0,0,1,16,23Zm.14,12.07a1,1,0,0,0,.86-.99V26.858A3.939,3.939,0,0,0,18,27h.332A14.029,14.029,0,0,0,25,36.106v3.123l-9.3,2.454a12.915,12.915,0,0,0-4.106,1.9A5.927,5.927,0,0,1,11,41,6.01,6.01,0,0,1,16.14,35.07ZM56,60H49.914A6.931,6.931,0,0,0,50,59a7.008,7.008,0,0,0-3-5.739V51H45v2.81a1,1,0,0,0,.5.867A5,5,0,0,1,48,59a4.819,4.819,0,0,1-.114,1H16.114A4.819,4.819,0,0,1,16,59a5,5,0,0,1,2.5-4.323,1,1,0,0,0,.5-.867V51H17v2.261A7.008,7.008,0,0,0,14,59a6.931,6.931,0,0,0,.086,1H8V54.25a10.99,10.99,0,0,1,8.2-10.633l5.036-1.328a11,11,0,0,0,21.518,0L47.8,43.617A10.99,10.99,0,0,1,56,54.25Z"></path><path d="M29,20v4a3,3,0,0,0,6,0V20H33v4a1,1,0,0,1-2,0V20Z"></path><path d="M37.29,19.29a1,1,0,1,0,1.42,0A1.052,1.052,0,0,0,37.29,19.29Z"></path><path d="M27,20a.99.99,0,1,0-.29.71A1.052,1.052,0,0,0,27,20Z"></path><path d="M22,18a3.98,3.98,0,0,0,2-.538,4.067,4.067,0,0,0,4,0,4.067,4.067,0,0,0,4,0,4.067,4.067,0,0,0,4,0,4.067,4.067,0,0,0,4,0A4,4,0,0,0,46,14H44a2,2,0,0,1-2,2,1.979,1.979,0,0,1-1.329-.511,1,1,0,0,0-1.342,0,2.034,2.034,0,0,1-2.658,0,1,1,0,0,0-1.342,0,2.034,2.034,0,0,1-2.658,0,1,1,0,0,0-1.342,0,2.034,2.034,0,0,1-2.658,0,1,1,0,0,0-1.342,0,2.034,2.034,0,0,1-2.658,0,1,1,0,0,0-1.342,0A1.979,1.979,0,0,1,22,16a2,2,0,0,1-2-2H18A4,4,0,0,0,22,18Z"></path><path d="M32,30a5.988,5.988,0,0,1-4.442-1.655l-1.511,1.31A7.892,7.892,0,0,0,32,32a7.892,7.892,0,0,0,5.953-2.345l-1.511-1.31A5.988,5.988,0,0,1,32,30Z"></path></g></svg>