<svg xmlns="http://www.w3.org/2000/svg" viewBox="0 0 64 64" x="0px" y="0px"><g><path d="M29.879,17.436,31,18.557V12h2v6.557l1.121-1.121a7.009,7.009,0,0,0,0-9.9L32,5.414,29.879,7.535A7.009,7.009,0,0,0,29.879,17.436Z"></path><path d="M31,32V31a5.006,5.006,0,0,0-5-5H19v1a5.006,5.006,0,0,0,5,5Z"></path><path d="M45,23H38a5.006,5.006,0,0,0-5,5v1h7a5.006,5.006,0,0,0,5-5Z"></path><path d="M21.946,60H42.054l.889-16H21.057ZM39,45h2v2H39Zm0,3h2v2H39Zm-3-3h2v2H36Z"></path><rect x="19" y="40" width="26" height="2"></rect><rect x="31" y="20" width="2" height="18"></rect></g></svg>