<svg xmlns="http://www.w3.org/2000/svg" viewBox="0 0 64 64" x="0px" y="0px"><g data-name="Game-Cloud"><rect x="39" y="43" width="2" height="2"></rect><path d="M40,39H22a5,5,0,1,0,4.706,6.672A1,1,0,0,1,27.65,45h6.7a1,1,0,0,1,.944.672A5,5,0,1,0,40,39ZM25,45H23v2H21V45H19V43h2V41h2v2h2Zm5-2H28V41h2Zm4,0H32V41h2Zm9,2H41v2H39V45H37V43h2V41h2v2h2Z"></path><path d="M60,32A12.047,12.047,0,0,1,48.9,43.97V44H47a7.008,7.008,0,0,0-7-7H34V35H32V33h4a2.006,2.006,0,0,0,2-2V26H36v5H32a2.006,2.006,0,0,0-2,2v2H28v2H22a7.008,7.008,0,0,0-7,7H13a9,9,0,0,1-2.6-17.62.987.987,0,0,0,.71-.82A11.007,11.007,0,0,1,22,16c.15,0,.3.01.45.02l.21.01a1.017,1.017,0,0,0,.95-.53,13.985,13.985,0,0,1,26.15,3.98.994.994,0,0,0,.77.79A12.053,12.053,0,0,1,60,32Z"></path></g></svg>