<svg xmlns="http://www.w3.org/2000/svg" viewBox="0 0 64 64" x="0px" y="0px"><g data-name="skyscraper-building-tower-city-real estate"><path d="M57,60V21a1,1,0,0,0-1-1H41V13a1,1,0,0,0-1-1H25V3a1,1,0,0,0-1-1H8A1,1,0,0,0,7,3V60H3v2H61V60ZM19,60H13V54h6Zm4,0H21V53a1,1,0,0,0-1-1H12a1,1,0,0,0-1,1v7H9V4H23Zm16,0H25V14H39Zm16,0H41V22H55Z"></path><rect x="11" y="48" width="10" height="2"></rect><rect x="11" y="44" width="10" height="2"></rect><rect x="11" y="40" width="10" height="2"></rect><rect x="11" y="36" width="10" height="2"></rect><rect x="11" y="32" width="10" height="2"></rect><rect x="11" y="28" width="10" height="2"></rect><rect x="11" y="24" width="10" height="2"></rect><rect x="11" y="20" width="10" height="2"></rect><rect x="11" y="16" width="10" height="2"></rect><rect x="27" y="16" width="10" height="2"></rect><rect x="11" y="12" width="10" height="2"></rect><rect x="11" y="8" width="10" height="2"></rect><rect x="27" y="52" width="10" height="2"></rect><rect x="27" y="48" width="10" height="2"></rect><rect x="27" y="44" width="10" height="2"></rect><rect x="27" y="40" width="10" height="2"></rect><rect x="27" y="36" width="10" height="2"></rect><rect x="27" y="32" width="10" height="2"></rect><rect x="27" y="28" width="10" height="2"></rect><rect x="27" y="24" width="10" height="2"></rect><rect x="27" y="20" width="10" height="2"></rect><rect x="43" y="52" width="10" height="2"></rect><rect x="27" y="56" width="10" height="2"></rect><rect x="43" y="56" width="10" height="2"></rect><rect x="43" y="48" width="10" height="2"></rect><rect x="43" y="44" width="10" height="2"></rect><rect x="43" y="40" width="10" height="2"></rect><rect x="43" y="36" width="10" height="2"></rect><rect x="43" y="32" width="10" height="2"></rect><rect x="43" y="28" width="10" height="2"></rect><rect x="43" y="24" width="10" height="2"></rect></g></svg>