<svg xmlns="http://www.w3.org/2000/svg" viewBox="0 0 64 64" x="0px" y="0px"><g data-name="Good Idea"><path d="M17,26a4,4,0,0,0,3.906-3.155,2.967,2.967,0,0,0,1.474-4.651,9,9,0,1,0-10.76,0,2.967,2.967,0,0,0,1.474,4.651A4,4,0,0,0,17,26Zm0-2a1.993,1.993,0,0,1-1.722-1h3.444A1.993,1.993,0,0,1,17,24Zm3-3H14a1,1,0,0,1,0-2h6a1,1,0,0,1,0,2ZM10,11a7,7,0,1,1,10.48,6.049A2.925,2.925,0,0,0,20,17H14a2.925,2.925,0,0,0-.48.049A6.945,6.945,0,0,1,10,11Z"></path><path d="M15.832,13.555,17,11.8l1.168,1.752a1,1,0,0,0,1.664,0l2-3-1.664-1.11L19,11.2,17.832,9.445a1.039,1.039,0,0,0-1.664,0L15,11.2,13.832,9.445l-1.664,1.11,2,3A1.039,1.039,0,0,0,15.832,13.555Z"></path><rect x="2" y="10" width="4" height="2"></rect><rect x="3.5" y="3.379" width="2" height="4.243" transform="translate(-2.571 4.793) rotate(-45)"></rect><rect x="2.379" y="15.5" width="4.243" height="2" transform="translate(-10.349 8.015) rotate(-45)"></rect><rect x="28" y="10" width="4" height="2"></rect><rect x="27.379" y="4.5" width="4.243" height="2" transform="translate(4.751 22.471) rotate(-45)"></rect><rect x="28.5" y="14.379" width="2" height="4.243" transform="translate(-3.027 25.692) rotate(-45)"></rect><path d="M57,2H34V4H48v9a1,1,0,0,0,1.707.707L52,11.414l2.293,2.293A1,1,0,0,0,55,14a.987.987,0,0,0,.383-.076A1,1,0,0,0,56,13V4h1a3,3,0,0,1,3,3V57a3,3,0,0,1-3,3H21a3,3,0,0,1-3-3V28H16V57a5.006,5.006,0,0,0,5,5H57a5.006,5.006,0,0,0,5-5V7A5.006,5.006,0,0,0,57,2Zm-3,8.586L52.707,9.293a1,1,0,0,0-1.414,0L50,10.586V4h4Z"></path><rect x="36" y="18" width="20" height="2"></rect><rect x="54" y="24" width="2" height="2"></rect><rect x="50" y="24" width="2" height="2"></rect><rect x="24" y="24" width="24" height="2"></rect><rect x="24" y="30" width="32" height="2"></rect><rect x="24" y="36" width="32" height="2"></rect><rect x="24" y="42" width="2" height="2"></rect><rect x="28" y="42" width="2" height="2"></rect><rect x="32" y="42" width="24" height="2"></rect><rect x="24" y="48" width="32" height="2"></rect></g></svg>