<svg xmlns="http://www.w3.org/2000/svg" viewBox="0 0 64 64" x="0px" y="0px"><g data-name="Navigation Setting"><path d="M18.938,51.734a1,1,0,0,1,1.134-.065,22.817,22.817,0,0,0,6.454,2.67,1,1,0,0,1,.755.848l.6,4.813h8.234l.6-4.813a1,1,0,0,1,.755-.848,22.817,22.817,0,0,0,6.454-2.67,1,1,0,0,1,1.134.065l3.826,2.976,5.822-5.822-2.976-3.826a1,1,0,0,1-.065-1.134,22.83,22.83,0,0,0,2.67-6.454,1,1,0,0,1,.848-.755l4.813-.6V27.883l-4.813-.6a1,1,0,0,1-.848-.755,22.842,22.842,0,0,0-2.67-6.454,1,1,0,0,1,.065-1.133l2.976-3.827L48.888,9.29l-3.826,2.976a1,1,0,0,1-1.134.065,22.817,22.817,0,0,0-6.454-2.67,1,1,0,0,1-.755-.848L36.117,4H27.883l-.6,4.813a1,1,0,0,1-.755.848,22.817,22.817,0,0,0-6.454,2.67,1,1,0,0,1-1.134-.065L15.112,9.29,9.29,15.112l2.976,3.827a1,1,0,0,1,.065,1.133,22.842,22.842,0,0,0-2.67,6.454,1,1,0,0,1-.848.755L4,27.883v8.234l4.813.6a1,1,0,0,1,.848.755,22.83,22.83,0,0,0,2.67,6.454,1,1,0,0,1-.065,1.134L9.29,48.888l5.822,5.822ZM52,31h2v2H52ZM12,33H10V31h2Zm5.151,15.263-1.414-1.414,1.414-1.414,1.414,1.414ZM33,54H31V52h2Zm13.849-5.737-1.414-1.414,1.414-1.414,1.414,1.414Zm0-32.526,1.414,1.414-1.414,1.414-1.414-1.414ZM31,10h2v2H31ZM17.151,15.737l1.414,1.414-1.414,1.414-1.414-1.414ZM32,14A18,18,0,1,1,14,32,18.021,18.021,0,0,1,32,14Z"></path><path d="M32,48A16,16,0,1,0,16,32,16.019,16.019,0,0,0,32,48ZM18.084,32.292a1,1,0,0,1,.609-1.022l21.92-9.192a1,1,0,0,1,1.309,1.309L32.73,45.307a1,1,0,0,1-.922.613c-.033,0-.066,0-.1,0a1,1,0,0,1-.881-.8l-1.99-9.954-9.954-1.99A1,1,0,0,1,18.084,32.292Z"></path><polygon points="32.148 41.523 38.111 27.303 30.772 34.642 32.148 41.523"></polygon><polygon points="36.697 25.889 22.477 31.852 29.358 33.228 36.697 25.889"></polygon></g></svg>