<svg xmlns="http://www.w3.org/2000/svg" viewBox="0 0 64 64" x="0px" y="0px"><g data-name="Tow Truck-Tow-Assistance-Emergency-Truck"><rect x="42" y="43" width="4" height="2"></rect><path d="M61.31,38.57l-4.86-8.99A2.973,2.973,0,0,0,53.81,28H39a1,1,0,0,0-1,1V46H3a1,1,0,0,0-1,1v8a2.006,2.006,0,0,0,2,2H8.09a5.993,5.993,0,0,0,11.82,0H43.09a5.993,5.993,0,0,0,11.82,0H59a3.009,3.009,0,0,0,3-3V41.11A5.064,5.064,0,0,0,61.31,38.57ZM14,60a4,4,0,1,1,4-4A4,4,0,0,1,14,60Zm24-5H19.91A5.993,5.993,0,0,0,8.09,55H4V48H38Zm6-25h9.81a.984.984,0,0,1,.88.53L59.27,39H44Zm5,30a4,4,0,1,1,4-4A4,4,0,0,1,49,60ZM60,47H56V45h4Zm0-4H56a2.006,2.006,0,0,0-2,2v2a2.006,2.006,0,0,0,2,2h4v2H57v2h3v1a1,1,0,0,1-1,1H54.91a5.993,5.993,0,0,0-11.82,0H40V30h2V40a1,1,0,0,0,1,1H59.98a.425.425,0,0,1,.02.11Z"></path><path d="M33.71,38.29l-1.99-2a1.033,1.033,0,0,0-.71-.29H29.37l-6.72-5.76A.969.969,0,0,0,22,30H13.24a2.988,2.988,0,0,0-2.68,1.66L8.38,36H6a2.006,2.006,0,0,0-2,2v5a1,1,0,0,0,1,1H7.18a2.988,2.988,0,0,0,5.64,0H25.18a2.988,2.988,0,0,0,5.64,0H33a1,1,0,0,0,1-1V39A1.007,1.007,0,0,0,33.71,38.29ZM19,32h2.63l4.67,4H19Zm-6.66.56a1,1,0,0,1,.9-.56H17v4H10.62ZM10,44a1,1,0,1,1,1-1A1,1,0,0,1,10,44Zm18,0a1,1,0,1,1,1-1A1,1,0,0,1,28,44Zm4-2H30.82a2.988,2.988,0,0,0-5.64,0H12.82a2.988,2.988,0,0,0-5.64,0H6V38H30.59L32,39.41Z"></path><circle cx="14" cy="56" r="2"></circle><circle cx="49" cy="56" r="2"></circle><path d="M30.807,23.923A9.287,9.287,0,0,0,31.991,24,8.962,8.962,0,0,0,38.9,20.771a1,1,0,0,0-.061-1.348l-3.63-3.63a1,1,0,0,0-1.414,0L32.006,17.58a.961.961,0,0,1-.958.267,3.015,3.015,0,0,1-1.894-1.9.954.954,0,0,1,.266-.958l1.787-1.787a1,1,0,0,0,0-1.414l-3.63-3.63a1,1,0,0,0-1.348-.06,8.994,8.994,0,0,0,4.578,15.82ZM34.5,17.914l2.235,2.235a6.9,6.9,0,0,1-1.253.919L33.413,19l.007-.006Zm-4.085,1.83a2.784,2.784,0,0,0,1.044.13l1.973,1.973a7.136,7.136,0,0,1-2.369.091,7.037,7.037,0,0,1-6-6,7.115,7.115,0,0,1,.092-2.37l1.974,1.973a2.775,2.775,0,0,0,.13,1.046A5.027,5.027,0,0,0,30.415,19.744Zm-3.564-9.479L29.086,12.5l-1.08,1.08,0,.006-2.069-2.069A6.924,6.924,0,0,1,26.851,10.265Z"></path><path d="M34,14h2a3,3,0,0,0-3-3v2A1,1,0,0,1,34,14Z"></path><path d="M38,14h2a7.008,7.008,0,0,0-7-7V9A5.006,5.006,0,0,1,38,14Z"></path><path d="M32,2A12.994,12.994,0,0,0,20.42,20.9l-1.38,4.83a.991.991,0,0,0,1.23,1.23l4.38-1.25A13,13,0,1,0,32,2Zm0,24a10.918,10.918,0,0,1-6.56-2.19.976.976,0,0,0-.6-.19,1.241,1.241,0,0,0-.27.03l-3.11.89.99-3.48a1.015,1.015,0,0,0-.09-.76A11,11,0,1,1,32,26Z"></path></g></svg>