<svg xmlns="http://www.w3.org/2000/svg" viewBox="0 0 64 64" x="0px" y="0px"><g><path d="M61.91,31.58A1,1,0,0,0,61,31H58.98A27.176,27.176,0,0,0,36.41,5.37L32.64,2.23A1,1,0,0,0,31,3V5.02A27.176,27.176,0,0,0,5.37,27.59L2.23,31.36A1,1,0,0,0,3,33H5.02A27.176,27.176,0,0,0,27.59,58.63l3.77,3.14A1,1,0,0,0,32,62a1.023,1.023,0,0,0,.42-.09A1,1,0,0,0,33,61V58.98A27.176,27.176,0,0,0,58.63,36.41l3.14-3.77A1,1,0,0,0,61.91,31.58ZM32,7a1,1,0,0,0,1-1V5.14L36.44,8,33,10.86V10a1,1,0,0,0-1-1A23.17,23.17,0,0,0,9.67,26.45l-.9-1.09a1.032,1.032,0,0,0-.75-.34A25.171,25.171,0,0,1,32,7ZM50.23,32.64l2.46,2.95A21.151,21.151,0,0,1,33,52.98V51a1,1,0,0,0-1.64-.77l-2.95,2.46A21.151,21.151,0,0,1,11.02,33H13a1,1,0,0,0,.77-1.64l-2.46-2.95A21.151,21.151,0,0,1,31,11.02V13a1,1,0,0,0,1.64.77l2.95-2.46A21.151,21.151,0,0,1,52.98,31H51a1,1,0,0,0-.77,1.64ZM25.36,55.23a1.035,1.035,0,0,0-.36.75A25.184,25.184,0,0,1,7,32a1,1,0,0,0-1-1H5.13L8,27.56,10.87,31H10a1,1,0,0,0-1,1A23.172,23.172,0,0,0,26.44,54.33ZM32,57a1,1,0,0,0-1,1v.86L27.56,56,31,53.14V54a1,1,0,0,0,1,1A23.17,23.17,0,0,0,54.33,37.55l.9,1.09a1.035,1.035,0,0,0,.75.36A25.184,25.184,0,0,1,32,57ZM56,36.44,53.13,33H54a1,1,0,0,0,1-1A23.172,23.172,0,0,0,37.56,9.67l1.08-.9A1.035,1.035,0,0,0,39,8.02,25.184,25.184,0,0,1,57,32a1,1,0,0,0,1,1h.87Z"></path><path d="M31,29h2a1,1,0,0,1,1,1h2a3,3,0,0,0-3-3V26H31v1a3,3,0,0,0,0,6h2a1,1,0,0,1,0,2H31a1,1,0,0,1-1-1H28a3,3,0,0,0,3,3v1h2V37a3,3,0,0,0,0-6H31a1,1,0,0,1,0-2Z"></path><path d="M32,18A14,14,0,1,0,46,32,14.015,14.015,0,0,0,32,18ZM43.95,31h-2a9.949,9.949,0,0,0-2.21-5.32l1.41-1.42A11.9,11.9,0,0,1,43.95,31ZM33,20.05a11.9,11.9,0,0,1,6.74,2.8l-1.42,1.41A9.949,9.949,0,0,0,33,22.05Zm-2,0v2a9.949,9.949,0,0,0-5.32,2.21l-1.42-1.41A11.9,11.9,0,0,1,31,20.05Zm-8.15,4.21,1.41,1.42A9.949,9.949,0,0,0,22.05,31h-2A11.9,11.9,0,0,1,22.85,24.26ZM20.05,33h2a9.949,9.949,0,0,0,2.21,5.32l-1.41,1.42A11.9,11.9,0,0,1,20.05,33ZM31,43.95a11.9,11.9,0,0,1-6.74-2.8l1.42-1.41A9.949,9.949,0,0,0,31,41.95ZM24,32a8,8,0,1,1,8,8A8.011,8.011,0,0,1,24,32Zm9,11.95v-2a9.949,9.949,0,0,0,5.32-2.21l1.42,1.41A11.9,11.9,0,0,1,33,43.95Zm8.15-4.21-1.41-1.42A9.949,9.949,0,0,0,41.95,33h2A11.9,11.9,0,0,1,41.15,39.74Z"></path></g></svg>