<svg xmlns="http://www.w3.org/2000/svg" viewBox="0 0 64 64" x="0px" y="0px"><title>Browser_4</title><g data-name="Browser"><path d="M2,2V62H62V2ZM60,4v6H4V4ZM4,12h8V60H4ZM14,60V12H60V60Z"></path><rect x="6" y="6" width="2" height="2"></rect><rect x="10" y="6" width="2" height="2"></rect><rect x="14" y="6" width="2" height="2"></rect><rect x="56" y="6" width="2" height="2"></rect><path d="M16,59H28V13H16Zm2-44h8V57H18Z"></path><path d="M31,59H43V13H31Zm2-44h8V57H33Z"></path><path d="M46,59H58V13H46Zm2-44h8V57H48Z"></path></g></svg>