<svg xmlns="http://www.w3.org/2000/svg" viewBox="0 0 64 64" x="0px" y="0px"><g><path d="M32,43a6.967,6.967,0,0,0,6.93-6.04l-1.83-.57A2.986,2.986,0,0,1,35,33.53V31.57a10.68,10.68,0,0,1-6,0v1.96a2.982,2.982,0,0,1-2.11,2.86l-1.82.57A6.99,6.99,0,0,0,32,43Z"></path><path d="M19,18a2.015,2.015,0,0,0,2,2h.09c-.06-.73-.09-1.4-.09-2V16A2.006,2.006,0,0,0,19,18Z"></path><path d="M36,4H23v9.38a26.623,26.623,0,0,1,3.91-5.82A.991.991,0,0,1,28,7.31a12.249,12.249,0,0,0,8.02,0,.992.992,0,0,1,1.08.26A26.875,26.875,0,0,1,41,13.38V9A5,5,0,0,0,36,4Z"></path><path d="M43,16v2c0,.6-.03,1.27-.09,2H43a2.015,2.015,0,0,0,2-2A2.006,2.006,0,0,0,43,16Z"></path><path d="M32,45a8.963,8.963,0,0,1-8.85-7.44L21,38.24V60H43V38.23l-2.15-.67A8.94,8.94,0,0,1,32,45Z"></path><path d="M23.38,22.55a8.712,8.712,0,0,0,17.24,0A36.557,36.557,0,0,0,41,18.18a35.141,35.141,0,0,0-4.94-8.77,14.293,14.293,0,0,1-8.12-.01A35.489,35.489,0,0,0,23,18.18,36.557,36.557,0,0,0,23.38,22.55ZM36,15a2,2,0,1,1-2,2A2,2,0,0,1,36,15ZM32,25a3,3,0,0,0,3-3h2a5,5,0,0,1-10,0h2A3,3,0,0,0,32,25ZM28,15a2,2,0,1,1-2,2A2,2,0,0,1,28,15Z"></path><path d="M51,45.88a6.964,6.964,0,0,0-4.91-6.68L45,38.86V60h6Z"></path><path d="M13,60h6V38.86l-1.09.34A6.964,6.964,0,0,0,13,45.88Z"></path></g></svg>