<svg xmlns="http://www.w3.org/2000/svg" viewBox="0 0 64 64" x="0px" y="0px"><g><path d="M24.4,47.344c.058.054.118.106.174.163.1.1.188.207.278.316.043.052.089.1.129.153L25,48H40V44H4v4H6l.021-.025c.04-.052.086-.1.128-.151.09-.109.181-.217.279-.317.056-.057.116-.109.174-.163.093-.087.187-.171.286-.25.066-.052.133-.1.2-.149.1-.072.2-.14.305-.2.073-.044.145-.086.22-.126.108-.059.218-.113.33-.163.075-.035.151-.069.228-.1.118-.047.239-.086.36-.124.076-.023.151-.049.228-.068.135-.035.272-.06.411-.083.066-.012.132-.027.2-.036a4.7,4.7,0,0,1,1.254,0c.067.009.133.024.2.036.139.023.276.048.411.083.077.019.152.045.228.068.121.038.242.077.36.124.077.03.153.064.229.1.112.05.222.1.329.163.075.04.147.082.219.126.105.064.206.133.306.2.068.049.135.1.2.149.1.079.193.164.286.25.058.054.118.106.174.163.1.1.188.207.278.316.043.052.089.1.129.153L14,48H17l.021-.025c.04-.052.086-.1.128-.151.09-.109.181-.217.279-.317.056-.057.116-.109.174-.163.093-.087.187-.171.286-.25.066-.052.133-.1.2-.149.1-.072.2-.14.3-.2.073-.044.145-.086.22-.126.108-.059.218-.113.33-.163.075-.035.151-.069.228-.1.118-.047.239-.086.36-.124.076-.023.151-.049.228-.068.135-.035.272-.06.411-.083.066-.012.132-.027.2-.036a4.7,4.7,0,0,1,1.254,0c.067.009.133.024.2.036.139.023.276.048.411.083.077.019.152.045.228.068.121.038.242.077.36.124.077.03.153.064.229.1.112.05.222.1.329.163.075.04.147.082.219.126.105.064.206.133.306.2.068.049.135.1.2.149C24.208,47.173,24.3,47.258,24.4,47.344Z"></path><path d="M12.593,49.5h0a2.973,2.973,0,0,0-.479-.624,2.992,2.992,0,0,0-4.707.624A2.97,2.97,0,0,0,7,51a3,3,0,0,0,6,0A2.97,2.97,0,0,0,12.593,49.5ZM10.98,51.2a.636.636,0,0,1-.06.18.757.757,0,0,1-.09.18,1.576,1.576,0,0,1-.12.15A1.052,1.052,0,0,1,10,52a1,1,0,0,1-.38-.08,1.032,1.032,0,0,1-.33-.21,1.576,1.576,0,0,1-.12-.15.757.757,0,0,1-.09-.18.636.636,0,0,1-.06-.18A1.355,1.355,0,0,1,9,51a1.052,1.052,0,0,1,.29-.71,1.032,1.032,0,0,1,.33-.21,1.021,1.021,0,0,1,1.09.21,1.576,1.576,0,0,1,.12.15.757.757,0,0,1,.09.18.636.636,0,0,1,.06.18A1.5,1.5,0,0,1,11,51,1.355,1.355,0,0,1,10.98,51.2Z"></path><path d="M23.593,49.5h0a2.973,2.973,0,0,0-.479-.624,2.992,2.992,0,0,0-4.707.624A2.97,2.97,0,0,0,18,51a3,3,0,0,0,6,0A2.97,2.97,0,0,0,23.593,49.5ZM21.98,51.2a.636.636,0,0,1-.06.18.757.757,0,0,1-.09.18l-.12.15-.15.12a.757.757,0,0,1-.18.09.636.636,0,0,1-.18.06A1.355,1.355,0,0,1,21,52a1,1,0,0,1-.38-.08,1.155,1.155,0,0,1-.33-.21l-.12-.15a.757.757,0,0,1-.09-.18.636.636,0,0,1-.06-.18A1.355,1.355,0,0,1,20,51a1.052,1.052,0,0,1,.29-.71,1.155,1.155,0,0,1,.33-.21.956.956,0,0,1,.58-.06.636.636,0,0,1,.18.06.757.757,0,0,1,.18.09l.15.12A1.052,1.052,0,0,1,22,51,1.355,1.355,0,0,1,21.98,51.2Z"></path><path d="M60,42V40H45a1,1,0,0,1-1-1V32H42V48h6l.021-.025c.04-.052.086-.1.128-.151.09-.109.181-.217.279-.317.056-.057.116-.109.174-.163.093-.087.187-.171.286-.25.066-.052.133-.1.2-.149.1-.072.2-.14.3-.2.073-.044.145-.086.22-.126.108-.059.218-.113.33-.163.075-.035.151-.069.228-.1.118-.047.239-.086.36-.124.076-.023.151-.049.228-.068.135-.035.272-.06.411-.083.066-.012.132-.027.2-.036a4.7,4.7,0,0,1,1.254,0c.067.009.133.024.2.036.139.023.276.048.411.083.077.019.152.045.228.068.121.038.242.077.36.124.077.03.153.064.229.1.112.05.222.1.329.163.075.04.147.082.219.126.105.064.206.133.306.2.068.049.135.1.2.149.1.079.193.164.286.25.058.054.118.106.174.163.1.1.188.207.278.316.043.052.089.1.129.153L56,48h4V44H58V42ZM48,43H44V41h4Z"></path><path d="M54.593,49.5h0a2.973,2.973,0,0,0-.479-.624,2.992,2.992,0,0,0-4.707.624A2.97,2.97,0,0,0,49,51a3,3,0,0,0,6,0A2.97,2.97,0,0,0,54.593,49.5ZM52.98,51.2a.636.636,0,0,1-.06.18.757.757,0,0,1-.09.18l-.12.15a1.155,1.155,0,0,1-.33.21A1,1,0,0,1,52,52a1.052,1.052,0,0,1-.71-.29l-.12-.15a.757.757,0,0,1-.09-.18.636.636,0,0,1-.06-.18A1.355,1.355,0,0,1,51,51a1.052,1.052,0,0,1,.29-.71,1.021,1.021,0,0,1,1.09-.21,1.155,1.155,0,0,1,.33.21A1.052,1.052,0,0,1,53,51,1.355,1.355,0,0,1,52.98,51.2Z"></path><polygon points="39.046 17.035 40.045 18.763 41.413 17.971 41.782 16.607 40.413 16.243 39.046 17.035"></polygon><path d="M33.312,11.107l-29.446,17L7.268,34H15a.976.976,0,0,1,.35.071c.022.008.043.015.064.024s.037.012.053.021L38.816,20.633l0,0-.1-.168-5.363-9.282-.039-.068h0Z"></path><polygon points="35.547 10.974 36.5 12.625 36.545 12.703 37.913 11.911 38.282 10.547 36.913 10.183 35.547 10.974"></polygon><polygon points="29 42 29 28.612 27 29.767 27 42 29 42"></polygon><polygon points="14 36 6.69 36 6 36 6 42 14 42 14 36"></polygon><polygon points="46 38 49.867 38 49.117 32 46 32 46 38"></polygon></g></svg>