<svg xmlns="http://www.w3.org/2000/svg" viewBox="0 0 64 64" x="0px" y="0px"><g data-name="Avatar-Man-Men-Profile-Mustaches-Short Hair"><path d="M46.69,37.3l-6.52-2.04A5.02,5.02,0,0,0,37,33.1V30.79A11.028,11.028,0,0,0,42.95,22H43a4,4,0,0,0,0-8V9a7.008,7.008,0,0,0-7-7H28a7.008,7.008,0,0,0-7,7v5a4,4,0,1,0,0,8h.05A11.028,11.028,0,0,0,27,30.79V33.1a5.02,5.02,0,0,0-3.17,2.16l-6.52,2.03A8.963,8.963,0,0,0,11,45.88V61a1,1,0,0,0,1,1H52a1,1,0,0,0,1-1V45.88A8.941,8.941,0,0,0,46.69,37.3ZM43,16a2.006,2.006,0,0,1,2,2,2.015,2.015,0,0,1-2,2ZM21,20a2.015,2.015,0,0,1-2-2,2.006,2.006,0,0,1,2-2ZM39,38v1.17a3.026,3.026,0,0,0-2,0v-4A3.014,3.014,0,0,1,39,38ZM23,9a5,5,0,0,1,5-5h8a5,5,0,0,1,5,5v3.82A3.01,3.01,0,0,1,39,10V7.24a1.98,1.98,0,0,0-.81-1.6,2.014,2.014,0,0,0-1.81-.29,15.365,15.365,0,0,1-8.76,0,2.014,2.014,0,0,0-1.81.29A1.98,1.98,0,0,0,25,7.24V10a3.01,3.01,0,0,1-2,2.82Zm0,5.9A5.017,5.017,0,0,0,27,10l.01-2.75A17.173,17.173,0,0,0,37,7.24V10a5.017,5.017,0,0,0,4,4.9v4.88l-3.94-.79a2,2,0,1,0-.89-.18l-2.01-.4a10.834,10.834,0,0,0-4.32,0l-2.01.4A1.979,1.979,0,0,0,29,17a2,2,0,1,0-2.06,1.99L23,19.78Zm1.3,10.74,5.81-.65-.22-1.98-6.47.71a9.235,9.235,0,0,1-.38-1.91l7.2-1.44a9.065,9.065,0,0,1,3.52,0l7.2,1.44a9.235,9.235,0,0,1-.38,1.91l-6.47-.71-.22,1.98,5.81.65a8.979,8.979,0,0,1-15.4,0ZM35,31.57V38a3,3,0,0,1-6,0V31.57a10.68,10.68,0,0,0,6,0ZM25,38a3.014,3.014,0,0,1,2-2.83v4a3.026,3.026,0,0,0-2,0ZM19,60H13V54.13l6,.75Zm0-7.13-6-.75V50.13l6,.75ZM51,60H45V54.88l6-.75Zm0-7.88-6,.75V50.88l6-.75Zm0-4-6,.75V45H43V60H21V45H19v3.87l-6-.75V45.88a6.964,6.964,0,0,1,4.91-6.68l5.13-1.6c-.01.13-.04.26-.04.4v4a1,1,0,0,0,2,0,1,1,0,0,1,2,0,1,1,0,0,0,2,0v-.03a4.884,4.884,0,0,0,6,0V42a1,1,0,0,0,2,0,1,1,0,0,1,2,0,1,1,0,0,0,2,0V38c0-.14-.03-.27-.04-.4l5.13,1.61A6.943,6.943,0,0,1,51,45.88Z"></path></g></svg>