<svg xmlns="http://www.w3.org/2000/svg" viewBox="0 0 64 64" x="0px" y="0px"><title>Time-Package-Box-Clock</title><path d="M30,56c.66,0,1.33-.036,2-.089V53.9c-.671.057-1.34.1-2,.1A24,24,0,1,1,54,30c0,.66-.039,1.329-.1,2h2.007c.053-.67.089-1.34.089-2A26,26,0,1,0,30,56Z"></path><path d="M46.445,46.168a1,1,0,0,1,1.11,0L49,47.132V40H45v7.132Z"></path><polygon points="37.535 34 34.868 38 59.132 38 56.465 34 37.535 34"></polygon><rect x="51" y="40" width="9" height="3"></rect><rect x="34" y="40" width="9" height="3"></rect><path d="M35,60H59a1,1,0,0,0,1-1V45H51v4a1,1,0,0,1-1.555.832L47,48.2l-2.445,1.63A1,1,0,0,1,43,49V45H34V59A1,1,0,0,0,35,60Z"></path><rect x="29" y="29" width="2" height="2" transform="translate(-12.426 30) rotate(-45)"></rect><path d="M32,39a1.006,1.006,0,0,1,.168-.555l4-6A1,1,0,0,1,37,32H51.9c.062-.671.1-1.341.1-2A22,22,0,1,0,30,52c.659,0,1.329-.043,2-.1ZM48,29h2v2H48ZM43.436,15.15l1.414,1.414-1.415,1.415-1.414-1.414ZM12,31H10V29h2ZM29,10h2v2H29ZM16.564,15.15l1.415,1.415-1.414,1.414L15.15,16.564Zm0,29.7L15.15,43.436l1.415-1.415,1.414,1.414ZM17,31V29h9.758L29,26.758V15h2V26.758l2.535,2.535a1,1,0,0,1,0,1.414l-2.828,2.828a1,1,0,0,1-1.414,0L26.758,31ZM31,50H29V48h2Z"></path></svg>