<svg xmlns="http://www.w3.org/2000/svg" viewBox="0 0 64 64" x="0px" y="0px"><g data-name="Coffee-Break"><path d="M53,12H50.677l-3.5-8.743A1.989,1.989,0,0,0,45.323,2H18.677A1.989,1.989,0,0,0,16.82,3.257L13.323,12H11a2,2,0,0,0-2,2v8a2,2,0,0,0,2,2h2.076L15.93,60.157A2.011,2.011,0,0,0,17.924,62H46.076a2.011,2.011,0,0,0,1.994-1.843L50.924,24H53a2,2,0,0,0,2-2V14A2,2,0,0,0,53,12ZM18.677,4H45.323l3.2,8H15.477Zm27.4,56H17.924L15.082,24H48.918ZM11,22V14H53v8Z"></path><path d="M32,51A11,11,0,1,0,21,40,11.013,11.013,0,0,0,32,51Zm0-2a8.948,8.948,0,0,1-5.6-1.964,8.448,8.448,0,0,0,3.7-2.27,8.68,8.68,0,0,0,2.352-3.954,7.383,7.383,0,0,1,5.027-5.026,10.129,10.129,0,0,0,1.979-.819A9,9,0,0,1,32,49Zm0-18a8.958,8.958,0,0,1,6.11,2.411,10.294,10.294,0,0,1-1.248.472,9.385,9.385,0,0,0-6.314,6.31,7.359,7.359,0,0,1-5.022,5.026c-.22.072-.444.144-.674.227A8.983,8.983,0,0,1,32,31Z"></path></g></svg>