<svg xmlns="http://www.w3.org/2000/svg" viewBox="0 0 64 64" x="0px" y="0px"><g data-name="Tissue-Paper Towel-Hand-Cleaning-Hygiene"><path d="M15,37.72l2.29,3.81a.987.987,0,0,0,1.8-.25l1.15-4.3a3.007,3.007,0,0,1,5.5-.73,3.032,3.032,0,0,1,.3,2.28L24.17,45.5A5.074,5.074,0,0,0,24,46.79v.71l.3.23,1.97-1.52a1.006,1.006,0,0,1,1.23,0l1.94,1.52,1.96-1.52a.991.991,0,0,1,1.22,0l1.96,1.52,1.96-1.52a.991.991,0,0,1,1.22,0l1.96,1.52.28-.22v-.72a5.074,5.074,0,0,0-.17-1.29l-1.87-6.97a3.032,3.032,0,0,1,.3-2.28,3.007,3.007,0,0,1,5.5.73l1.15,4.3a1,1,0,0,0,.96.73h.01a.953.953,0,0,0,.83-.48L49,37.72V11H15Z"></path><path d="M45.9,44.01a3,3,0,0,1-2.92-2.21l-1.15-4.3a1,1,0,0,0-.47-.61,1,1,0,0,0-1.36.36.974.974,0,0,0-.1.76l1.86,6.97A6.922,6.922,0,0,1,42,46.79v1.88l2.8,3.73a.984.984,0,0,1,.2.6v1h8V51a1,1,0,0,1,.11-.45l1.78-3.58a.956.956,0,0,0,.11-.44V35a5.009,5.009,0,0,0-4-4.9V38a1,1,0,0,1-.14.51l-2.43,4.05A2.956,2.956,0,0,1,45.9,44.01Z"></path><path d="M52,11H51v5h2V12A1,1,0,0,0,52,11Z"></path><path d="M12,11a1,1,0,0,0-1,1v4h2V11Z"></path><path d="M13,38V30.1A5.009,5.009,0,0,0,9,35V46.53a.956.956,0,0,0,.11.44l1.78,3.58A1,1,0,0,1,11,51v3h8V53a.984.984,0,0,1,.2-.6L22,48.67V46.79a6.922,6.922,0,0,1,.24-1.81l1.86-6.97a.974.974,0,0,0-.1-.76.963.963,0,0,0-.6-.46,1.006,1.006,0,0,0-1.23.71l-1.15,4.3a3.024,3.024,0,0,1-2.92,2.21,2.956,2.956,0,0,1-2.53-1.45l-2.43-4.05A1,1,0,0,1,13,38Z"></path><path d="M5,16H9V12a3.009,3.009,0,0,1,3-3H52a3.009,3.009,0,0,1,3,3v4h4a1,1,0,0,0,1-1V2H4V15A1,1,0,0,0,5,16Z"></path><rect x="43" y="56" width="12" height="5"></rect><rect x="9" y="56" width="12" height="5"></rect></g></svg>