<svg xmlns="http://www.w3.org/2000/svg" viewBox="0 0 64 64" x="0px" y="0px"><g data-name="Swing"><rect x="44" y="16" width="2" height="30"></rect><rect x="18" y="16" width="2" height="30"></rect><rect x="20" y="14" width="24" height="2"></rect><rect x="4" y="14" width="14" height="2"></rect><rect x="4" y="58" width="4" height="2"></rect><rect x="5" y="18" width="2" height="38"></rect><rect x="56" y="58" width="4" height="2"></rect><polygon points="60.001 16 60 14 46 14 46 16 60 16 60.001 16"></polygon><rect x="57" y="18" width="2" height="38"></rect><path d="M20,46H44V41a5.006,5.006,0,0,0-5-5H25a5.006,5.006,0,0,0-5,5Z"></path><rect x="18" y="48" width="28" height="2"></rect></g></svg>