<svg xmlns="http://www.w3.org/2000/svg" viewBox="0 0 64 64" x="0px" y="0px"><g><path d="M25.63,41.19a1.9,1.9,0,0,0,.58-1.51v-.02a1.992,1.992,0,0,0-1.87-1.87h-.13a1.917,1.917,0,0,0-1.4.58,1.994,1.994,0,1,0,2.82,2.82Z"></path><path d="M22.85,36.03a9.978,9.978,0,0,1,0-8.06,4.016,4.016,0,0,1-1.46-.92c-.07-.08-.13-.17-.2-.25a11.978,11.978,0,0,0,0,10.41,2.56,2.56,0,0,1,.2-.26A4.153,4.153,0,0,1,22.85,36.03Z"></path><path d="M27.05,27.05a4,4,0,0,1-.81.61l1.6,1.59a4.983,4.983,0,0,1,1.41-1.41l-1.59-1.6A4,4,0,0,1,27.05,27.05Z"></path><path d="M25.64,25.64a2.016,2.016,0,0,0,0-2.83,2,2,0,1,0-2.83,2.83A2.061,2.061,0,0,0,25.64,25.64Z"></path><path d="M39.8,37.78c-.04,0-.08.01-.12.01a1.993,1.993,0,0,0-1.31,3.4,1.994,1.994,0,1,0,2.82-2.82A1.955,1.955,0,0,0,39.8,37.78Z"></path><path d="M38.37,22.81a1.994,1.994,0,0,0,1.29,3.4,1.932,1.932,0,0,0,1.53-.58,1.994,1.994,0,1,0-2.82-2.82Z"></path><path d="M37,32a5.364,5.364,0,0,1-.05.7l2.41,2.41a7.876,7.876,0,0,0,0-6.22L36.95,31.3A5.364,5.364,0,0,1,37,32Z"></path><rect x="50" y="30" width="6" height="4"></rect><rect x="50" y="36" width="6" height="4"></rect><rect x="58" y="26" width="2" height="12"></rect><path d="M48,38V26H44.65a14.008,14.008,0,0,1,0,12Z"></path><rect x="50" y="24" width="6" height="4"></rect><path d="M42.81,26.79a2.56,2.56,0,0,1-.2.26,3.99,3.99,0,0,1-1.46.91,10,10,0,0,1,0,8.07,4.153,4.153,0,0,1,1.46.92,2.56,2.56,0,0,1,.2.26,12,12,0,0,0,0-10.42Z"></path><path d="M37.21,42.81a2.56,2.56,0,0,1-.26-.2,4.153,4.153,0,0,1-.92-1.46,9.978,9.978,0,0,1-8.06,0,4.153,4.153,0,0,1-.92,1.46,2.56,2.56,0,0,1-.26.2,12,12,0,0,0,10.42,0Z"></path><rect x="8" y="30" width="6" height="4"></rect><rect x="8" y="36" width="6" height="4"></rect><path d="M27.65,37.76l1.6-1.6a4.983,4.983,0,0,1-1.41-1.41l-1.6,1.6a3.421,3.421,0,0,1,1.41,1.41Z"></path><path d="M16,26V38h3.35a14.008,14.008,0,0,1,0-12Z"></path><rect x="4" y="26" width="2" height="12"></rect><rect x="8" y="24" width="6" height="4"></rect><path d="M26.8,21.19c.08.07.17.13.25.2a4.054,4.054,0,0,1,.92,1.47,10.255,10.255,0,0,1,8.06,0,3.924,3.924,0,0,1,.92-1.47,2.56,2.56,0,0,1,.26-.2,11.978,11.978,0,0,0-10.41,0Z"></path><path d="M35.11,39.35l-2.41-2.4a4.925,4.925,0,0,1-1.4,0l-2.41,2.4A8.171,8.171,0,0,0,35.11,39.35Z"></path><path d="M31.22,34.89a2.817,2.817,0,0,0,1.55.01,2.989,2.989,0,0,0,2.12-2.12A2.671,2.671,0,0,0,35,32a2.908,2.908,0,0,0-.1-.77,2.989,2.989,0,0,0-2.12-2.12A2.671,2.671,0,0,0,32,29a2.908,2.908,0,0,0-.77.1,2.989,2.989,0,0,0-2.12,2.12A2.671,2.671,0,0,0,29,32a2.908,2.908,0,0,0,.1.77A2.989,2.989,0,0,0,31.22,34.89Z"></path><path d="M36.95,36.95a4.245,4.245,0,0,1,.81-.6l-1.6-1.6a4.983,4.983,0,0,1-1.41,1.41l1.6,1.6A4.245,4.245,0,0,1,36.95,36.95Z"></path><path d="M32.7,27.05l2.41-2.4a8.171,8.171,0,0,0-6.22,0l2.41,2.4A5.467,5.467,0,0,1,32.7,27.05Z"></path><path d="M27,32a5.364,5.364,0,0,1,.05-.7l-2.41-2.41a7.876,7.876,0,0,0,0,6.22l2.41-2.41A5.364,5.364,0,0,1,27,32Z"></path><path d="M36.35,26.24l-1.6,1.6a4.983,4.983,0,0,1,1.41,1.41l1.6-1.6a3.421,3.421,0,0,1-1.41-1.41Z"></path></g></svg>