<svg xmlns="http://www.w3.org/2000/svg" viewBox="0 0 64 64" x="0px" y="0px"><g><path d="M52,48.7V19a2.994,2.994,0,0,0-.02-.343L51,2.938A1,1,0,0,0,50,2H47a1,1,0,0,0-1,1V18H25a1,1,0,0,0-1,1v4a.969.969,0,0,0,.018.186l3.117,16.477a13.325,13.325,0,0,0-6.856-5.009l2.66-7.312A1,1,0,0,0,22,26a4.051,4.051,0,0,0-2.33.984A2.733,2.733,0,0,1,18.5,27.6c-.1,0-.152-.021-.46-.415A2.511,2.511,0,0,0,16,26a2.516,2.516,0,0,0-2.038,1.183c-.311.4-.362.417-.465.417a2.736,2.736,0,0,1-1.168-.615A4.043,4.043,0,0,0,10,26a1,1,0,0,0-.939,1.342l2.659,7.312C5.862,36.505,2,42.126,2,49a12.9,12.9,0,0,0,2.954,8.654A11.109,11.109,0,0,0,6.373,59.02,15.156,15.156,0,0,0,16,62c7.254,0,12.185-3.525,13.582-9.4l1.436,7.588A1,1,0,0,0,32,61H45.432A6.891,6.891,0,0,0,49,62a6.986,6.986,0,0,0,3-13.3ZM13.5,29.6a2.517,2.517,0,0,0,2.039-1.184C15.847,28.021,15.9,28,16,28s.152.021.46.415A2.514,2.514,0,0,0,18.5,29.6a3.175,3.175,0,0,0,1.693-.553l-1.877,5.16a14.788,14.788,0,0,0-4.629,0L11.81,29.05A3.172,3.172,0,0,0,13.5,29.6ZM16,60a13.2,13.2,0,0,1-8.371-2.537,9.083,9.083,0,0,1-1.166-1.121A10.806,10.806,0,0,1,4,49c0-6.337,3.718-11.438,9.258-12.7a12.505,12.505,0,0,1,5.49,0C24.282,37.562,28,42.663,28,49,28,55.888,23.514,60,16,60ZM49.372,18.075a1.163,1.163,0,0,1,.107.064,1.01,1.01,0,0,1,.2.135,1.074,1.074,0,0,1,.091.111.977.977,0,0,1,.123.183,1,1,0,0,1,.05.146.974.974,0,0,1,.055.271v.023a1.008,1.008,0,1,1-.626-.933ZM48,4h1.061l.756,12.113c-.04-.011-.083-.015-.125-.024-.063-.016-.127-.027-.192-.038a3.084,3.084,0,0,0-.348-.036c-.051,0-.1-.015-.152-.015-.022,0-.042.006-.064.007a3.058,3.058,0,0,0-.508.051c-.049.009-.094.026-.142.037-.1.023-.194.044-.286.076ZM26,20H46.171c.012.035.031.066.045.1.021.053.044.1.068.155a3.071,3.071,0,0,0,.179.329c.03.047.058.095.091.141a3.017,3.017,0,0,0,.279.338c.021.021.037.045.058.066a3.14,3.14,0,0,0,.4.333c.04.027.083.05.125.076a2.991,2.991,0,0,0,.339.184c.055.025.11.047.166.069a3.15,3.15,0,0,0,.361.113c.055.013.108.029.164.039A2.941,2.941,0,0,0,49,22a3,3,0,0,0,.564-.057c.058-.011.112-.03.168-.044.09-.023.182-.04.268-.07V22H26Zm6.828,39L26.207,24H50V48.072A6.925,6.925,0,0,0,49,48a6.962,6.962,0,0,0-6.924,7.988c.014.1.038.2.057.3.042.224.092.444.155.662.032.11.067.218.1.326.072.211.156.416.248.618.044.095.084.191.131.284a7.014,7.014,0,0,0,.433.733c.019.028.032.059.051.086ZM49,60a4.918,4.918,0,0,1-2.759-.834A5,5,0,0,1,49,50a4.875,4.875,0,0,1,1.672.294A5,5,0,0,1,49,60Z"></path><path d="M49,51a4,4,0,1,0,4,4A4,4,0,0,0,49,51Zm0,6a2,2,0,1,1,2-2A2,2,0,0,1,49,57Z"></path></g></svg>