<svg xmlns="http://www.w3.org/2000/svg" viewBox="0 0 64 64" x="0px" y="0px"><g><path d="M40.754,34.629l-1.8-4.216c-.313-.087-.63-.163-.954-.223l.837,1.255a1,1,0,0,1,.1.926l-4.4,10.392,4.959-3.857-1.2-1.2a1,1,0,0,1,.152-1.539Z"></path><path d="M24.508,38.906l4.959,3.857-4.4-10.392a1,1,0,0,1,.1-.926l.837-1.255c-.324.06-.641.136-.954.223l-1.8,4.216,2.309,1.539a1,1,0,0,1,.152,1.539Z"></path><polygon points="28.073 30.693 27.124 32.117 28.444 35.417 30.574 33.819 28.073 30.693"></polygon><path d="M47,60V41a11,11,0,0,0-5.386-9.443l1.3,3.049a1,1,0,0,1-.364,1.226l-1.986,1.323,1.138,1.138a1,1,0,0,1-.093,1.5L33,46.489V60h8V41h2V60Z"></path><path d="M23,15a1,1,0,0,0,0,2Z"></path><path d="M24,4a1,1,0,0,0-1,1v6a1,1,0,0,0,1,1,.959.959,0,0,0,.693-.287A.977.977,0,0,0,25,11a1,1,0,0,1,1-1H40a3,3,0,0,0,3-3V4H30a3,3,0,0,0-3,3,1,1,0,0,1-2,0V5A1,1,0,0,0,24,4Z"></path><path d="M31,60V46.489l-8.614-6.7a1,1,0,0,1-.093-1.5l1.138-1.138-1.986-1.323a1,1,0,0,1-.364-1.226l1.3-3.049A11,11,0,0,0,17,41V60h4V41h2V60Z"></path><polygon points="35 28.648 35 26 29 26 29 28.648 32 32.398 35 28.648"></polygon><polygon points="36.876 32.117 35.927 30.693 33.426 33.819 35.556 35.417 36.876 32.117"></polygon><path d="M26.107,13.127A2.844,2.844,0,0,1,25,13.819V21a3,3,0,0,0,3,3h8a3,3,0,0,0,3-3V12H26.83A2.908,2.908,0,0,1,26.107,13.127Zm7.973.493a1.032,1.032,0,0,1,.21-.33,1.009,1.009,0,0,1,.91-.27.646.646,0,0,1,.18.06.776.776,0,0,1,.18.09,1.712,1.712,0,0,1,.15.12,1.032,1.032,0,0,1,.21.33.943.943,0,0,1,0,.76,1.169,1.169,0,0,1-.21.33,1.014,1.014,0,0,1-1.42,0,1.523,1.523,0,0,1-.221-.33,1.007,1.007,0,0,1,.011-.76Zm-5.79-.33A1,1,0,0,1,30,14a1,1,0,0,1-.08.38.9.9,0,0,1-.54.54.99.99,0,0,1-1.09-.21,1.169,1.169,0,0,1-.21-.33A.838.838,0,0,1,28,14,1.045,1.045,0,0,1,28.29,13.29Z"></path><path d="M42,16a1,1,0,0,0-1-1v2A1,1,0,0,0,42,16Z"></path><polygon points="34.763 37.321 32 35.25 29.237 37.321 32 43.538 34.763 37.321"></polygon></g></svg>