<svg xmlns="http://www.w3.org/2000/svg" viewBox="0 0 64 64" x="0px" y="0px"><title>Creative Design</title><g data-name="Creative Design"><path d="M47,50H21v2H47v5a3,3,0,0,1-3,3H20a3,3,0,0,1-3-3V28H15V57a5.006,5.006,0,0,0,5,5H44a5.006,5.006,0,0,0,5-5V28H47Z"></path><path d="M17,12H43V10H17V7a3,3,0,0,1,3-3H44a3,3,0,0,1,3,3V18h2V7a5.006,5.006,0,0,0-5-5H20a5.006,5.006,0,0,0-5,5V18h2Z"></path><rect x="31" y="55" width="2" height="2"></rect><rect x="24" y="6" width="2" height="2"></rect><rect x="28" y="6" width="2" height="2"></rect><path d="M38.829,33.651a1,1,0,0,0,.04-1.252l-6.07-8.07a1.036,1.036,0,0,0-1.6,0l-6.07,8.07a1,1,0,0,0,.04,1.252L28,36.95V38H26v2h2v7a1,1,0,0,0,1,1h6a1,1,0,0,0,1-1V40h2V38H36V36.95ZM34,46H30V40h4Zm-4-8V36.58a1,1,0,0,0-.241-.651l-2.547-2.97L31,27.923V34h2V27.923l3.788,5.036-2.547,2.97A1,1,0,0,0,34,36.58V38Z"></path><path d="M48,20a3,3,0,0,0-2.032.819,34.178,34.178,0,0,0-11.114-2.7,2.98,2.98,0,0,0-5.708,0,34.144,34.144,0,0,0-11.1,2.692A2.991,2.991,0,1,0,19,23a3.018,3.018,0,0,0-.041-.406,32.25,32.25,0,0,1,10.263-2.472,2.994,2.994,0,0,0,5.556,0A32.238,32.238,0,0,1,45.05,22.6,2.988,2.988,0,1,0,48,20ZM16,24a1,1,0,1,1,1-1A1,1,0,0,1,16,24Zm16-4a1,1,0,1,1,1-1A1,1,0,0,1,32,20Zm16,4a1,1,0,0,1-1-1,.986.986,0,0,1,1-1,1,1,0,0,1,0,2Z"></path></g></svg>