<svg xmlns="http://www.w3.org/2000/svg" viewBox="0 0 64 64" x="0px" y="0px"><title>Speech Bubble_23</title><g data-name="Speech Bubble"><path d="M32,2A30,30,0,1,0,62,32,30.034,30.034,0,0,0,32,2Zm0,58A28,28,0,1,1,60,32,28.032,28.032,0,0,1,32,60Z"></path><path d="M46.868,17.009l-30,4A1,1,0,0,0,16,22V40a1,1,0,0,0,1,1H31v7a1,1,0,0,0,.684.949A1.019,1.019,0,0,0,32,49a1,1,0,0,0,.8-.4L38.5,41H47a1,1,0,0,0,1-1V18a1,1,0,0,0-1.132-.991ZM46,39H38a1,1,0,0,0-.8.4L33,45V40a1,1,0,0,0-1-1H18V22.875l28-3.733Z"></path><path d="M21,28H43a1,1,0,0,0,0-2H21a1,1,0,0,0,0,2Z"></path><path d="M21,34H43a1,1,0,0,0,0-2H21a1,1,0,0,0,0,2Z"></path></g></svg>