<svg xmlns="http://www.w3.org/2000/svg" viewBox="0 0 48 48" x="0px" y="0px"><g data-name="On time Delivery"><path d="M24,7a1,1,0,0,1-.97-.76L22.22,3H15.78l-.81,3.24A1,1,0,0,1,14,7H12V9H26V7ZM19,8a2,2,0,1,1,2-2A2.006,2.006,0,0,1,19,8Z"></path><path d="M32,9H28v1a1,1,0,0,1-1,1H11a1,1,0,0,1-1-1V9H6a1,1,0,0,0-1,1V43a1,1,0,0,0,1,1H28.71a10.958,10.958,0,0,1-2.16-16.03l-.74-.75-.71.71-1.41-1.42,2.82-2.82,1.42,1.41-.71.71.75.74A10.835,10.835,0,0,1,32,24.43V23H31a1,1,0,0,1-1-1V19a1,1,0,0,1,1-1h2V10A1,1,0,0,0,32,9ZM8,16H24v2H8ZM8,26h8v2H8ZM22,38H8V36H22Zm0-5H8V31H22Zm-4-5V26h2v2Zm10-5H8V21H28Zm0-5H26V16h2Z"></path><path d="M42,34h1.94A9.013,9.013,0,0,0,36,26.06V28H34V26.06A9.013,9.013,0,0,0,26.06,34H28v2H26.06A9.013,9.013,0,0,0,34,43.94V42h2v1.94A9.013,9.013,0,0,0,43.94,36H42Zm-4.36-1.3a13.6,13.6,0,0,1-.98,3.41,1.949,1.949,0,0,1-1.27.85A1.722,1.722,0,0,1,35,37a2,2,0,0,1-1.66-3.11,14,14,0,0,1,2.76-2.21l2.03-1.38Z"></path><rect x="34" y="23" width="2" height="1"></rect><rect x="32" y="20" width="6" height="1"></rect><polygon points="46.313 26.515 43.485 23.687 42.071 25.101 42.778 25.808 42.293 26.293 43.707 27.707 44.192 27.222 44.899 27.929 46.313 26.515"></polygon></g></svg>