<svg xmlns="http://www.w3.org/2000/svg" viewBox="0 0 64 64" x="0px" y="0px"><g data-name="Shopping-Cloud"><path d="M25.847,47H40.153L41.82,37H24.18ZM36,40h2v2H36Zm-4,0h2v2H32Zm-4,0h2v2H28Z"></path><path d="M60,32A12.01,12.01,0,0,1,48,44H42.68l1.17-7H45V35H21v2h1.15l1.17,7H21.34L20,29.91A1,1,0,0,0,19,29H15v2h3.09l1.24,13H13a9,9,0,0,1-2.6-17.62.987.987,0,0,0,.71-.82A11.007,11.007,0,0,1,22,16c.16,0,.31.01.46.02l.2.01a.99.99,0,0,0,.95-.53,13.985,13.985,0,0,1,26.15,3.98.994.994,0,0,0,.77.79A12.053,12.053,0,0,1,60,32Z"></path><path d="M45,50v2H21a1,1,0,0,1-1-.91L19.33,44h2.01l.57,6Z"></path><circle cx="25" cy="55" r="2"></circle><circle cx="40" cy="55" r="2"></circle></g></svg>