<svg xmlns="http://www.w3.org/2000/svg" viewBox="0 0 64 64" x="0px" y="0px"><g data-name="Profile"><rect x="17" y="20" width="12" height="16"></rect><path d="M12,60H52a1,1,0,0,0,1-1V12.846a.992.992,0,0,0-.292-.706L46,5.418V11a1,1,0,0,0,1,1h4v2H47a3,3,0,0,1-3-3V4H12a1,1,0,0,0-1,1V59A1,1,0,0,0,12,60ZM49,44H19V42H49Zm0-6H33V36H49Zm0-6H33V30H49Zm0-6H33V24H49ZM33,20V18h2v2Zm16-2v2H37V18ZM19,8H39v2H19ZM15,8h2v2H15Zm0,4H39v2H15Zm0,7a1,1,0,0,1,1-1H30a1,1,0,0,1,1,1V37a1,1,0,0,1-1,1H16a1,1,0,0,1-1-1Zm0,23h2v2H15Zm0,6H49v2H15Zm0,6H49v2H15Z"></path></g></svg>