<svg xmlns="http://www.w3.org/2000/svg" viewBox="0 0 64 64" x="0px" y="0px"><g data-name="Solar Cell Light"><path d="M54,14H34a1,1,0,0,0-.405.089v0L17,21.461V11.824l6.607-6.607a1,1,0,0,0,0-1.414L22.2,2.393a1,1,0,0,0-1.414,0L2.393,20.783a1,1,0,0,0,0,1.414l1.41,1.41a1,1,0,0,0,1.414,0L11,17.824V61a1,1,0,0,0,1,1h4a1,1,0,0,0,1-1V23.65l16-7.111V17a2,2,0,0,0,2,2H53a2,2,0,0,0,2-2V15A1,1,0,0,0,54,14ZM15,60H13V15.824l2-2ZM35,17V16H53v1Z"></path><rect x="43" y="21" width="2" height="4"></rect><rect x="48.5" y="20.938" width="1.999" height="4.123" transform="translate(-4.1 12.692) rotate(-14.036)"></rect><rect x="36.438" y="22" width="4.123" height="1.999" transform="translate(6.857 54.78) rotate(-75.977)"></rect></g></svg>