<svg xmlns="http://www.w3.org/2000/svg" viewBox="0 0 512 512" x="0px" y="0px"><g data-name="Heart Tree"><path d="M392,288H264V256h36a60.068,60.068,0,0,0,60-60V184a8,8,0,0,0-8-8H308a59.84,59.84,0,0,0-44,19.265V147.313l65.539-65.539a40,40,0,0,0-56.568-56.568L256,42.177,239.029,25.206a40,40,0,0,0-56.568,56.568L248,147.313v31.952A59.84,59.84,0,0,0,204,160H160a8,8,0,0,0-8,8v12a60.068,60.068,0,0,0,60,60h36v48H120a8,8,0,0,0-8,8v48a8,8,0,0,0,8,8h24.84l15.209,136.884A8,8,0,0,0,168,496H344a8,8,0,0,0,7.951-7.116L367.16,352H392a8,8,0,0,0,8-8V296A8,8,0,0,0,392,288Zm-84-96h36v4a44.049,44.049,0,0,1-44,44H264v-4A44.049,44.049,0,0,1,308,192ZM193.774,36.52a24.026,24.026,0,0,1,33.942,0l22.627,22.627a8,8,0,0,0,11.314,0L284.284,36.52a24,24,0,0,1,33.942,33.941L256,132.686,193.774,70.461A24.028,24.028,0,0,1,193.774,36.52ZM168,180v-4h36a44.049,44.049,0,0,1,44,44v4H212A44.049,44.049,0,0,1,168,180ZM336.84,480H175.16L160.938,352H351.062ZM384,336H128V304H384Z"></path><path d="M119.728,122.071l12.423-46.364A24,24,0,1,0,85.786,63.283l-2.07,7.727-7.728-2.071A24,24,0,0,0,63.565,115.3l46.364,12.424a7.995,7.995,0,0,0,9.8-5.657ZM106.343,110.2,67.706,99.849a8,8,0,0,1-5.657-9.8h0a8.01,8.01,0,0,1,7.715-5.933,8.031,8.031,0,0,1,2.083.277L87.3,88.536a8,8,0,0,0,9.8-5.657l4.141-15.455A8,8,0,0,1,116.7,71.565Z"></path><path d="M465.406,85.91h0a24,24,0,0,0-29.394-16.972l-7.728,2.071-2.07-7.727a24,24,0,0,0-46.365,12.424l12.423,46.364a7.995,7.995,0,0,0,9.8,5.657L448.435,115.3A24,24,0,0,0,465.406,85.91ZM449.152,96.122a7.951,7.951,0,0,1-4.859,3.727L405.657,110.2,395.3,71.565a8,8,0,0,1,5.657-9.8,8.03,8.03,0,0,1,2.083-.276,8.01,8.01,0,0,1,7.715,5.933L414.9,82.879a8,8,0,0,0,9.8,5.657L440.153,84.4a8,8,0,0,1,9.8,5.656h0A7.949,7.949,0,0,1,449.152,96.122Z"></path></g></svg>