<svg xmlns="http://www.w3.org/2000/svg" viewBox="0 0 64 64" x="0px" y="0px"><g data-name="Profit-Arrow Down-Bar Chart-Analytics-Money"><path d="M59,43a3.009,3.009,0,0,0-3-3H48a3.009,3.009,0,0,0-3,3v2a2.974,2.974,0,0,0,.78,2A2.974,2.974,0,0,0,45,49v2a3.009,3.009,0,0,0,3,3h8a3.009,3.009,0,0,0,3-3V49a2.974,2.974,0,0,0-.78-2A2.974,2.974,0,0,0,59,45Zm-2,8a1,1,0,0,1-1,1H48a1,1,0,0,1-1-1V49a1,1,0,0,1,1-1h1v2h2V48h2v2h2V48h1a1,1,0,0,1,1,1Zm0-6a1,1,0,0,1-1,1H48a1,1,0,0,1-1-1V43a1,1,0,0,1,1-1h1v2h2V42h2v2h2V42h1a1,1,0,0,1,1,1Z"></path><path d="M42,31a3.009,3.009,0,0,0-3-3H31a3.009,3.009,0,0,0-3,3v2a2.974,2.974,0,0,0,.78,2A2.974,2.974,0,0,0,28,37v2a2.974,2.974,0,0,0,.78,2A2.974,2.974,0,0,0,28,43v2a2.974,2.974,0,0,0,.78,2A2.974,2.974,0,0,0,28,49v2a3.009,3.009,0,0,0,3,3h8a3.009,3.009,0,0,0,3-3V49a2.974,2.974,0,0,0-.78-2A2.974,2.974,0,0,0,42,45V43a2.974,2.974,0,0,0-.78-2A2.974,2.974,0,0,0,42,39V37a2.974,2.974,0,0,0-.78-2A2.974,2.974,0,0,0,42,33ZM40,51a1,1,0,0,1-1,1H31a1,1,0,0,1-1-1V49a1,1,0,0,1,1-1h1v2h2V48h2v2h2V48h1a1,1,0,0,1,1,1Zm0-6a1,1,0,0,1-1,1H31a1,1,0,0,1-1-1V43a1,1,0,0,1,1-1h1v2h2V42h2v2h2V42h1a1,1,0,0,1,1,1Zm0-6a1,1,0,0,1-1,1H31a1,1,0,0,1-1-1V37a1,1,0,0,1,1-1h1v2h2V36h2v2h2V36h1a1,1,0,0,1,1,1Zm0-6a1,1,0,0,1-1,1H31a1,1,0,0,1-1-1V31a1,1,0,0,1,1-1h1v2h2V30h2v2h2V30h1a1,1,0,0,1,1,1Z"></path><path d="M25,19a3.009,3.009,0,0,0-3-3H14a3.009,3.009,0,0,0-3,3v2a2.974,2.974,0,0,0,.78,2A2.974,2.974,0,0,0,11,25v2a2.974,2.974,0,0,0,.78,2A2.974,2.974,0,0,0,11,31v2a2.974,2.974,0,0,0,.78,2A2.974,2.974,0,0,0,11,37v2a2.974,2.974,0,0,0,.78,2A2.974,2.974,0,0,0,11,43v2a2.974,2.974,0,0,0,.78,2A2.974,2.974,0,0,0,11,49v2a3.009,3.009,0,0,0,3,3h8a3.009,3.009,0,0,0,3-3V49a2.974,2.974,0,0,0-.78-2A2.974,2.974,0,0,0,25,45V43a2.974,2.974,0,0,0-.78-2A2.974,2.974,0,0,0,25,39V37a2.974,2.974,0,0,0-.78-2A2.974,2.974,0,0,0,25,33V31a2.974,2.974,0,0,0-.78-2A2.974,2.974,0,0,0,25,27V25a2.974,2.974,0,0,0-.78-2A2.974,2.974,0,0,0,25,21ZM23,51a1,1,0,0,1-1,1H14a1,1,0,0,1-1-1V49a1,1,0,0,1,1-1h1v2h2V48h2v2h2V48h1a1,1,0,0,1,1,1Zm0-6a1,1,0,0,1-1,1H14a1,1,0,0,1-1-1V43a1,1,0,0,1,1-1h1v2h2V42h2v2h2V42h1a1,1,0,0,1,1,1Zm0-6a1,1,0,0,1-1,1H14a1,1,0,0,1-1-1V37a1,1,0,0,1,1-1h1v2h2V36h2v2h2V36h1a1,1,0,0,1,1,1Zm0-6a1,1,0,0,1-1,1H14a1,1,0,0,1-1-1V31a1,1,0,0,1,1-1h1v2h2V30h2v2h2V30h1a1,1,0,0,1,1,1Zm0-6a1,1,0,0,1-1,1H14a1,1,0,0,1-1-1V25a1,1,0,0,1,1-1h1v2h2V24h2v2h2V24h1a1,1,0,0,1,1,1Zm0-6a1,1,0,0,1-1,1H14a1,1,0,0,1-1-1V19a1,1,0,0,1,1-1h1v2h2V18h2v2h2V18h1a1,1,0,0,1,1,1Z"></path><path d="M61,56H8V3A1,1,0,0,0,7,2H3A1,1,0,0,0,2,3V59a3,3,0,0,0,3,3H61a1,1,0,0,0,1-1V57A1,1,0,0,0,61,56Zm-1,4H5a1,1,0,0,1-1-1V4H6V57a1,1,0,0,0,1,1H60Z"></path><path d="M54.06,23.67a1,1,0,0,0-1.75-.47l-1.28,1.53L24.21,2.23a.982.982,0,0,0-1.4.13L20.23,5.42a1,1,0,0,0,.13,1.41l26.81,22.5-1.29,1.53a1,1,0,0,0,.77,1.64l7.81.03a.972.972,0,0,0,.76-.36.951.951,0,0,0,.22-.82Zm-5.27,6.84.55-.66a1,1,0,0,0-.12-1.41L22.41,5.94l1.28-1.53,26.82,22.5a.982.982,0,0,0,1.4-.13l.56-.66.79,4.41Z"></path><path d="M53,15H51a1,1,0,0,1-1-1H48a3,3,0,0,0,3,3v1h2V17a3,3,0,0,0,0-6H51a1,1,0,0,1,0-2h2a1,1,0,0,1,1,1h2a3,3,0,0,0-3-3V6H51V7a3,3,0,0,0,0,6h2a1,1,0,0,1,0,2Z"></path></g></svg>