<svg xmlns="http://www.w3.org/2000/svg" viewBox="0 0 64 64" x="0px" y="0px"><g><path d="M34.516,45.537,34.867,48h2.266l.351-2.463a1,1,0,0,1,.744-.827,8.9,8.9,0,0,0,2.356-.977,1,1,0,0,1,1.11.061l1.991,1.492,1.6-1.6-1.492-1.991a1,1,0,0,1-.061-1.11,8.9,8.9,0,0,0,.977-2.356,1,1,0,0,1,.827-.744L48,37.133V34.867l-2.463-.351a1,1,0,0,1-.827-.744,8.9,8.9,0,0,0-.977-2.356,1,1,0,0,1,.061-1.11l1.492-1.991-1.6-1.6-1.991,1.492a1,1,0,0,1-1.11.061,8.9,8.9,0,0,0-2.356-.977,1,1,0,0,1-.744-.827L37.133,24H34.867l-.351,2.463a1,1,0,0,1-.744.827,8.9,8.9,0,0,0-2.356.977,1,1,0,0,1-1.11-.061l-1.991-1.492-1.6,1.6,1.492,1.991a1,1,0,0,1,.061,1.11,8.9,8.9,0,0,0-.977,2.356,1,1,0,0,1-.827.744L24,34.867v2.266l2.463.351a1,1,0,0,1,.827.744,8.9,8.9,0,0,0,.977,2.356,1,1,0,0,1-.061,1.11l-1.492,1.991,1.6,1.6,1.991-1.492a1,1,0,0,1,1.11-.061,8.9,8.9,0,0,0,2.356.977A1,1,0,0,1,34.516,45.537ZM44,35h2v2H44ZM28,37H26V35h2Zm9,9H35V44h2Zm6.778-3.636-1.414,1.414L40.95,42.364l1.414-1.414ZM42.364,28.222l1.414,1.414L42.364,31.05,40.95,29.636ZM35,26h2v2H35Zm-6.778,3.636,1.414-1.414,1.414,1.414L29.636,31.05Zm1.414,14.142-1.414-1.414,1.414-1.414,1.414,1.414ZM30,36a6,6,0,1,1,6,6A6.006,6.006,0,0,1,30,36Z"></path><circle cx="36" cy="36" r="4"></circle><path d="M59,52a1,1,0,0,0,1-1V17a1,1,0,0,0-1-1H56v6a1,1,0,0,1-1.832.555L53,20.8l-1.168,1.752A1,1,0,0,1,50,22V16H33a1,1,0,0,0-1,1v6H30V17a3,3,0,0,1,3-3H45V5a1,1,0,0,0-1-1H41v6a1,1,0,0,1-1.832.555L38,8.8l-1.168,1.752A1,1,0,0,1,35,10V4H18a1,1,0,0,0-1,1V39a1,1,0,0,0,1,1h5v2H18a3,3,0,0,1-3-3V24H14v6a1,1,0,0,1-1.832.555L11,28.8,9.832,30.555A1,1,0,0,1,8,30V24H5a1,1,0,0,0-1,1V59a1,1,0,0,0,1,1H31a1,1,0,0,0,1-1V53.816A3,3,0,0,1,30,51V48h2v3a1,1,0,0,0,1,1Zm-3-5H48V45h8Zm0-4H49V41h7Zm0-4H52V37h4ZM48,25h7a1,1,0,0,1,1,1v8a1,1,0,0,1-1,1H52V33h2V27H48ZM19,15h8v2H19Zm0,4h8v2H19Zm0,4h8v2H19Zm3,22v2H12V45ZM6,35h6v2H6Zm0,4h6v2H6Zm0,6h4v2H6Zm0,4H22v2H6Zm20,6H6V53H26Zm0-4H24V49h2Zm4.988-5.219-2.167,1.625a1,1,0,0,1-1.306-.093l-2.828-2.828a1,1,0,0,1-.093-1.306l1.625-2.167a10.86,10.86,0,0,1-.679-1.639l-2.682-.383A1,1,0,0,1,22,38V34a1,1,0,0,1,.858-.99l2.682-.383a10.86,10.86,0,0,1,.679-1.639l-1.625-2.167a1,1,0,0,1,.093-1.306l2.828-2.828a.994.994,0,0,1,1.306-.093l2.167,1.625a10.86,10.86,0,0,1,1.639-.679l.383-2.682A1,1,0,0,1,34,22h4a1,1,0,0,1,.99.858l.383,2.682a10.9,10.9,0,0,1,1.639.679l2.167-1.625a1,1,0,0,1,1.306.093l2.828,2.828a1,1,0,0,1,.093,1.306l-1.625,2.167a10.86,10.86,0,0,1,.679,1.639l2.682.383A1,1,0,0,1,50,34v4a1,1,0,0,1-.858.99l-2.682.383a10.86,10.86,0,0,1-.679,1.639l1.625,2.167a1,1,0,0,1-.093,1.306l-2.828,2.828a1,1,0,0,1-1.306.093l-2.167-1.625a10.9,10.9,0,0,1-1.639.679l-.383,2.682A1,1,0,0,1,38,50H34a1,1,0,0,1-.99-.858l-.383-2.682A10.86,10.86,0,0,1,30.988,45.781Z"></path><path d="M53,18a1,1,0,0,1,.832.445L54,18.7V16H52v2.7l.168-.252A1,1,0,0,1,53,18Z"></path><path d="M38,6a1,1,0,0,1,.832.445L39,6.7V4H37V6.7l.168-.252A1,1,0,0,1,38,6Z"></path><path d="M11,26a1,1,0,0,1,.832.445L12,26.7V24H10v2.7l.168-.252A1,1,0,0,1,11,26Z"></path></g></svg>