<svg xmlns="http://www.w3.org/2000/svg" viewBox="0 0 64 64" x="0px" y="0px"><g data-name="Solar Energy"><circle cx="16" cy="12" r="4"></circle><rect x="15" y="2" width="2" height="2"></rect><rect x="8.636" y="4.636" width="2" height="2" transform="translate(-1.163 8.464) rotate(-45)"></rect><rect x="6" y="11" width="2" height="2"></rect><rect x="8.636" y="17.364" width="2" height="2" transform="translate(-10.163 12.192) rotate(-45)"></rect><rect x="15" y="20" width="2" height="2"></rect><rect x="21.364" y="17.364" width="2" height="2" transform="translate(-6.435 21.192) rotate(-45)"></rect><rect x="24" y="11" width="2" height="2"></rect><rect x="21.364" y="4.636" width="2" height="2" transform="translate(2.565 17.464) rotate(-45)"></rect><path d="M47,9a1.979,1.979,0,0,0-1.439.619,1,1,0,0,1-1.672-1A1.994,1.994,0,1,0,40,8c0,.025.016.1.017.128a1,1,0,0,1-1.339,1A1.977,1.977,0,0,0,38,9a2,2,0,0,0,0,4h9a2,2,0,0,0,0-4Z"></path><rect x="10" y="24" width="2" height="4"></rect><path d="M7.293,29.707l3,3a1,1,0,0,0,1.414,0l3-3-1.414-1.414L11,30.586,8.707,28.293Z"></path><rect x="20" y="24" width="2" height="4"></rect><path d="M17.293,29.707l3,3a1,1,0,0,0,1.414,0l3-3-1.414-1.414L21,30.586l-2.293-2.293Z"></path><path d="M49.293,47.293l-3,3,1.414,1.414L50,49.414l2.293,2.293,1.414-1.414-3-3A1,1,0,0,0,49.293,47.293Z"></path><rect x="48" y="39" width="4" height="4"></rect><path d="M58,43V33H42V43h4V38a1,1,0,0,1,1-1h6a1,1,0,0,1,1,1v5Z"></path><polygon points="56.382 25 43.618 25 40.618 31 59.382 31 56.382 25"></polygon><polygon points="27.131 47 23.476 47 23.876 50 27.776 50 27.131 47"></polygon><polygon points="15 42 11.209 42 10.809 45 15 45 15 42"></polygon><polygon points="26.057 42 22.809 42 23.209 45 26.702 45 26.057 42"></polygon><polygon points="17 47 17 50 21.858 50 21.458 47 17 47"></polygon><rect x="19" y="55" width="1" height="2"></rect><polygon points="20.124 37 17 37 17 40 20.524 40 20.124 37"></polygon><polygon points="20.791 42 17 42 17 45 21.191 45 20.791 42"></polygon><polygon points="24.983 37 22.142 37 22.542 40 25.628 40 24.983 37"></polygon><polygon points="4.224 50 8.124 50 8.524 47 4.869 47 4.224 50"></polygon><polygon points="5.298 45 8.791 45 9.191 42 5.943 42 5.298 45"></polygon><rect x="12" y="55" width="1" height="2"></rect><polygon points="17 52 15 52 15 60 13 60 13 61 19 61 19 60 17 60 17 52"></polygon><polygon points="15 47 10.542 47 10.142 50 15 50 15 47"></polygon><polygon points="6.372 40 9.458 40 9.858 37 7.017 37 6.372 40"></polygon><polygon points="15 37 11.876 37 11.476 40 15 40 15 37"></polygon><path d="M50,57H22V55H49V52h2v4A1,1,0,0,1,50,57Z"></path></g></svg>