<svg xmlns="http://www.w3.org/2000/svg" viewBox="0 0 64 64" x="0px" y="0px"><g><path d="M50,22a3,3,0,0,0-6,0V34a1,1,0,0,1-1,1,5.872,5.872,0,0,0-3.861,1.421,4.884,4.884,0,0,0-.766.763A5.918,5.918,0,0,0,37,41H35a7.9,7.9,0,0,1,1.829-5.087,6.715,6.715,0,0,1,1.043-1.038A7.766,7.766,0,0,1,42,33.061V22a4.977,4.977,0,0,1,2-3.974V13a3,3,0,0,0-6,0v6H36V7a3,3,0,0,0-6,0V17H28V13a3,3,0,0,0-6,0v8H20V18a3,3,0,0,0-6,0V39.764L18.9,49.553A1,1,0,0,1,19,50v2H43V50a1.012,1.012,0,0,1,.156-.537L50,38.709ZM32,38a6,6,0,1,1,6-6A6.006,6.006,0,0,1,32,38Zm1,2v2H31V40Zm-5.95-1.636-1.414,1.414-1.414-1.414,1.414-1.414ZM24.222,25.636l1.414-1.414,1.414,1.414L25.636,27.05ZM31,24V22h2v2Zm7.364,3.05L36.95,25.636l1.414-1.414,1.414,1.414ZM34.99,45.142A1,1,0,0,1,34,46H30a1,1,0,0,1-.99-.858l-.383-2.682a10.855,10.855,0,0,1-1.639-.678l-2.167,1.624a1,1,0,0,1-1.306-.093l-2.828-2.828a1,1,0,0,1-.093-1.307l1.625-2.166a10.86,10.86,0,0,1-.679-1.639l-2.682-.383A1,1,0,0,1,18,34V30a1,1,0,0,1,.858-.99l2.682-.383a10.86,10.86,0,0,1,.679-1.639l-1.625-2.166a1,1,0,0,1,.093-1.307l2.828-2.828a1,1,0,0,1,1.306-.093l2.167,1.624a10.855,10.855,0,0,1,1.639-.678l.383-2.682A1,1,0,0,1,30,18h4a1,1,0,0,1,.99.858l.383,2.682a10.9,10.9,0,0,1,1.639.678l2.167-1.624a1,1,0,0,1,1.306.093l1.222,1.221-1.414,1.414-.608-.608-1.991,1.492a1,1,0,0,1-1.11.06,8.859,8.859,0,0,0-2.356-.975,1,1,0,0,1-.744-.828L33.133,20H30.867l-.351,2.463a1,1,0,0,1-.744.828,8.859,8.859,0,0,0-2.356.975,1,1,0,0,1-1.11-.06l-1.991-1.492-1.6,1.6,1.492,1.99a1,1,0,0,1,.061,1.111,8.923,8.923,0,0,0-.977,2.357,1,1,0,0,1-.827.742L20,30.867v2.266l2.463.352a1,1,0,0,1,.827.742,8.923,8.923,0,0,0,.977,2.357,1,1,0,0,1-.061,1.111l-1.492,1.99,1.6,1.6,1.991-1.492a1,1,0,0,1,1.11-.06,8.859,8.859,0,0,0,2.356.975,1,1,0,0,1,.744.828L30.867,44h2.266l.351-2.463,1.981.283ZM24,31v2H22V31Z"></path><circle cx="32" cy="32" r="4"></circle><rect x="18" y="54" width="26" height="6"></rect></g></svg>