<svg xmlns="http://www.w3.org/2000/svg" viewBox="0 0 64 64" x="0px" y="0px"><g><rect x="24" y="57" width="16" height="2"></rect><path d="M32,37a3.007,3.007,0,0,0,2.994-2.8,1.037,1.037,0,0,0-.02-.278,17.527,17.527,0,0,0-2.127-4.261,1.039,1.039,0,0,0-1.694,0,17.527,17.527,0,0,0-2.127,4.261,1.037,1.037,0,0,0-.02.278A3.007,3.007,0,0,0,32,37Zm0-4.865a11.166,11.166,0,0,1,.98,2.065,1,1,0,0,1-1.96,0A11.166,11.166,0,0,1,32,32.135Z"></path><path d="M50,44.184V19.816a2.982,2.982,0,0,0,0-5.632V13a5.006,5.006,0,0,0-5-5H42V4h4V2H18V4h4V8H19a5.006,5.006,0,0,0-5,5v1.184a2.982,2.982,0,0,0,0,5.632V44.184a2.982,2.982,0,0,0,0,5.632V51a5.009,5.009,0,0,0,4,4.9V61a1,1,0,0,0,1,1H45a1,1,0,0,0,1-1V55.9A5.009,5.009,0,0,0,50,51V49.816a2.982,2.982,0,0,0,0-5.632ZM48,20V44H16V20ZM40,8H33V4h7ZM24,4h7V8H24Zm-5,6H45a3,3,0,0,1,3,3v1H16V13A3,3,0,0,1,19,10Zm-4,6H49a1,1,0,0,1,0,2H15a1,1,0,0,1,0-2Zm5,44V56H44v4Zm25-6H19a3,3,0,0,1-3-3V50H48v1A3,3,0,0,1,45,54Zm4-6H15a1,1,0,0,1,0-2H49a1,1,0,0,1,0,2Z"></path><path d="M32,41a7.008,7.008,0,0,0,7-7c0-3.593-5.615-9.954-6.256-10.668a1.031,1.031,0,0,0-1.488,0C30.615,24.046,25,30.407,25,34A7.008,7.008,0,0,0,32,41Zm0-15.475c2.184,2.59,5,6.566,5,8.475a5,5,0,0,1-10,0C27,32.094,29.816,28.116,32,25.525Z"></path></g></svg>