<svg xmlns="http://www.w3.org/2000/svg" viewBox="0 0 64 64" x="0px" y="0px"><g data-name="Handbag"><path d="M55,30H54V24a22,22,0,0,0-44,0v6H9a3,3,0,0,0-3,3V57a5.006,5.006,0,0,0,5,5H53a5.006,5.006,0,0,0,5-5V33A3,3,0,0,0,55,30ZM12,24a20,20,0,0,1,40,0v6H50V24a18,18,0,0,0-36,0v6H12Zm36,6H16V24a16,16,0,0,1,32,0ZM28,49a3,3,0,0,1-3,3H23.78l.19-.757A1,1,0,0,0,23,50H19a1,1,0,0,0-.97,1.243l.19.757H17a3,3,0,0,1-3-3V47a1,1,0,0,1,1-1H27a1,1,0,0,1,1,1Zm-6.281,3-.5,2h-.438l-.5-2ZM14,52.974A4.948,4.948,0,0,0,17,54h1.72l.31,1.243A1,1,0,0,0,20,56h2a1,1,0,0,0,.97-.757L23.28,54H25a4.948,4.948,0,0,0,3-1.026V60H14ZM50,49a3,3,0,0,1-3,3H45.78l.19-.757A1,1,0,0,0,45,50H41a1,1,0,0,0-.97,1.243l.19.757H39a3,3,0,0,1-3-3V47a1,1,0,0,1,1-1H49a1,1,0,0,1,1,1Zm-6.281,3-.5,2h-.438l-.5-2ZM36,52.974A4.948,4.948,0,0,0,39,54h1.72l.31,1.243A1,1,0,0,0,42,56h2a1,1,0,0,0,.97-.757L45.28,54H47a4.948,4.948,0,0,0,3-1.026V60H36ZM56,57a3,3,0,0,1-3,3H52V47a3,3,0,0,0-3-3H37a3,3,0,0,0-3,3V60H30V47a3,3,0,0,0-3-3H15a3,3,0,0,0-3,3V60H11a3,3,0,0,1-3-3V39.889A6.973,6.973,0,0,0,13,42H28.556a3.965,3.965,0,0,0,6.888,0H51a6.973,6.973,0,0,0,5-2.111ZM30,40a2,2,0,1,1,2,2A2,2,0,0,1,30,40Zm21,0H36a4,4,0,0,0-8,0H13a5.006,5.006,0,0,1-5-5V33a1,1,0,0,1,1-1H55a1,1,0,0,1,1,1v2A5.006,5.006,0,0,1,51,40Z"></path></g></svg>