<svg xmlns="http://www.w3.org/2000/svg" viewBox="0 0 64 64" x="0px" y="0px"><g data-name="Robot Vaccuum Cleaner"><path d="M32,2A30.034,30.034,0,0,0,2,32,29.553,29.553,0,0,0,4.706,44.445v0a28.783,28.783,0,0,0,1.95,3.585c.134.213.252.433.392.644a30.025,30.025,0,0,0,49.9,0,28.9,28.9,0,0,0,2.336-4.217A29.574,29.574,0,0,0,62,32,30.034,30.034,0,0,0,32,2ZM29.24,8.173a3,3,0,0,0,5.52,0A23.78,23.78,0,0,1,47,13.314V17H17V13.314A23.78,23.78,0,0,1,29.24,8.173ZM31,7a1,1,0,1,1,1,1A1,1,0,0,1,31,7ZM17,19H47V37a5.006,5.006,0,0,1-5,5H22a5.006,5.006,0,0,1-5-5Zm5,25H42a7.008,7.008,0,0,0,7-7V15.119a24,24,0,1,1-34,0V37A7.008,7.008,0,0,0,22,44ZM9.53,45.056,8.072,46.514c-.153-.252-.316-.5-.46-.754-.108-.194-.2-.39-.307-.585-.162-.306-.314-.616-.463-.926l1.511-1.461Q8.887,43.954,9.53,45.056ZM32,60A27.986,27.986,0,0,1,9.186,48.228l1.444-1.444a25.966,25.966,0,0,0,42.74,0l1.444,1.444A27.988,27.988,0,0,1,32,60ZM55.928,46.514,54.47,45.056q.642-1.1,1.177-2.268l1.511,1.462C56.79,45.016,56.378,45.771,55.928,46.514Zm2.1-4.2L56.465,40.8A25.981,25.981,0,0,0,34.87,6.174a2.981,2.981,0,0,0-5.74,0A25.981,25.981,0,0,0,7.535,40.8L5.968,42.312A27.609,27.609,0,0,1,4,32a28,28,0,0,1,56,0A27.616,27.616,0,0,1,58.032,42.312Z"></path><path d="M32,29a4,4,0,1,0-4-4A4,4,0,0,0,32,29Zm0-6a2,2,0,1,1-2,2A2,2,0,0,1,32,23Z"></path><rect x="38" y="24" width="2" height="2"></rect><rect x="24" y="24" width="2" height="2"></rect><path d="M30,39h4a3,3,0,0,0,3-3V32a1,1,0,0,0-1-1H28a1,1,0,0,0-1,1v4A3,3,0,0,0,30,39Zm-1-6h6v3a1,1,0,0,1-1,1H30a1,1,0,0,1-1-1Z"></path></g></svg>