<svg xmlns="http://www.w3.org/2000/svg" viewBox="0 0 64 64" x="0px" y="0px"><g data-name="Home Office-Working At Home-Desk-Office-Work Station"><rect x="45" y="52" width="2" height="8"></rect><rect x="14" y="44" width="36" height="2"></rect><rect x="17" y="48" width="30" height="2"></rect><rect x="21" y="52" width="22" height="8"></rect><path d="M59.7,26.43,32.64,3.84A1,1,0,0,0,32,3.61a1.025,1.025,0,0,0-.64.23L4.38,26.48a1.083,1.083,0,0,0-.31,1.33,1,1,0,0,0,.7.49.977.977,0,0,0,.81-.22L31.35,6.24a.987.987,0,0,1,1.29,0L58.42,27.96a1,1,0,0,0,1.28-1.53Z"></path><rect x="17" y="52" width="2" height="8"></rect><path d="M20,40H17.02v2H21V41A1,1,0,0,0,20,40Z"></path><polygon points="41.22 40 38.78 40 38.28 42 41.72 42 41.22 40"></polygon><path d="M21,31.07l3.24-3.24-.41-.42H22.41a.967.967,0,0,1-.7-.29L21,26.41l-1.41,1.42.7.71a.976.976,0,0,1,.3.7v1.42Z"></path><path d="M54,59V26.85L32,8.31,10,26.96V59a1,1,0,0,0,1,1h4V48H13a1,1,0,0,1-1-1V43a1,1,0,0,1,1-1h2V39c0-.03.02-.06.02-.1V31a.99.99,0,0,1,.29-.71l2-1.99a.984.984,0,0,1,.15-1.18l2.83-2.83a1.047,1.047,0,0,1,1.42,0l1.12,1.12h1.41a1,1,0,0,1,.71.3l1.41,1.41a1,1,0,0,1,.3.71,1.017,1.017,0,0,1-.3.71l-4.65,4.65a.99.99,0,0,1-1.42,0l-1.41-1.41a.99.99,0,0,1-.29-.71V29.85l-1.57,1.56V38H20a3.009,3.009,0,0,1,3,3v1H36.22l.5-2H34a3.009,3.009,0,0,1-3-3V29a3.009,3.009,0,0,1,3-3H46a3.009,3.009,0,0,1,3,3v8a3.009,3.009,0,0,1-3,3H43.28l.5,2H51a1,1,0,0,1,1,1v4a1,1,0,0,1-1,1H49V60h4A1,1,0,0,0,54,59Z"></path><path d="M33,37a1,1,0,0,0,1,1H46a1,1,0,0,0,1-1V36H33Z"></path><path d="M47,29a1,1,0,0,0-1-1H34a1,1,0,0,0-1,1v5H47Z"></path></g></svg>