<svg xmlns="http://www.w3.org/2000/svg" viewBox="0 0 64 64" x="0px" y="0px"><g><path d="M61,12H53a1,1,0,0,0-1,1v1H50.384L40.669,5.257A1,1,0,0,0,40,5H17a3.987,3.987,0,0,0-3.449,6.01,3.905,3.905,0,0,0,0,4,3.9,3.9,0,0,0,0,3.992A3.969,3.969,0,0,0,13,20.993,4.012,4.012,0,0,0,17.008,25H33a2,2,0,0,1,0,4H4a2,2,0,0,0-2,2V57a2,2,0,0,0,2,2H42a2,2,0,0,0,2-2V37h8a1,1,0,0,0,1,1h8a1,1,0,0,0,1-1V13A1,1,0,0,0,61,12ZM42,53H27V51H42ZM25,57H21V51h4Zm-6-4H4V51H19ZM4,55H19v2H4Zm23,2V55H42v2Zm15-8H4V31H25.556a3.876,3.876,0,0,0-.273,3.454A6.033,6.033,0,1,0,28.126,36.9,4,4,0,0,0,29,37H42ZM27,40a4,4,0,1,1-4-4A4,4,0,0,1,27,40Zm2-5a2,2,0,0,1,0-4h4a4,4,0,0,0,0-8H17.008a2.008,2.008,0,0,1,0-4.015h0L38,19l0-2L17.01,16.985h0a3.964,3.964,0,0,0-1.937.519A1.923,1.923,0,0,1,15,17a2,2,0,0,1,2-2H38V13H17a3.949,3.949,0,0,0-1.924.515A1.973,1.973,0,0,1,15,13a2,2,0,0,1,2-2H38V9H17a3.949,3.949,0,0,0-1.924.515A1.973,1.973,0,0,1,15,9a2,2,0,0,1,2-2H39.616l9.715,8.743A1,1,0,0,0,50,16h2V35Zm31,1H54V14h6Z"></path><path d="M10,43H8v3a1,1,0,0,0,1,1h3V45H10Z"></path><path d="M38,46V43H36v2H34v2h3A1,1,0,0,0,38,46Z"></path><path d="M8,34v3h2V35h2V33H9A1,1,0,0,0,8,34Z"></path></g></svg>