<svg xmlns="http://www.w3.org/2000/svg" viewBox="0 0 64 64" x="0px" y="0px"><g data-name="Coat Hanger"><path d="M49,16a3,3,0,0,0,3-3V7a3,3,0,0,0-3.5-2.959A3.082,3.082,0,0,0,46,7.107V10H40V5a3,3,0,0,0-6,0V18H30.429a3,3,0,0,0-2.06-5.6l-.212.057L24.533,5.926a1,1,0,0,0-1.133-.48L13.741,8.034A1,1,0,0,0,13,9.017l.126,7.464-.212.057a3,3,0,1,0,1.553,5.795L22,20.315V21a3,3,0,0,0,3,3h9V52H27a5.006,5.006,0,0,0-5,5v2a3,3,0,0,0,6,0V58h6v1a3,3,0,0,0,6,0V58h6v1a3,3,0,0,0,6,0V57a5.006,5.006,0,0,0-5-5H40V32h7a3,3,0,0,0,3-3V25a3,3,0,0,0-3.5-2.959A3.082,3.082,0,0,0,44,25.107V26H40V16Zm-2-4a1,1,0,0,0,1-1V7.107a1.086,1.086,0,0,1,.824-1.093A1,1,0,0,1,50,7v6a1,1,0,0,1-1,1H40V12ZM15.013,9.764,23.164,7.58l3,5.407L15.117,15.948ZM13.949,20.4a1,1,0,0,1-1.224-.708,1,1,0,0,1,.707-1.224l15.455-4.141a1.011,1.011,0,0,1,.26-.035,1,1,0,0,1,.257,1.967ZM25,22a1,1,0,0,1-1-1V19.779l2.047-.548A.985.985,0,0,0,27,20h7v2ZM38,59a1,1,0,0,1-2,0V58h2Zm12-2v2a1,1,0,0,1-2,0V58a2,2,0,0,0-2-2H28a2,2,0,0,0-2,2v1a1,1,0,0,1-2,0V57a3,3,0,0,1,3-3H47A3,3,0,0,1,50,57ZM36,52V5a1,1,0,0,1,2,0V52Zm9-24a1,1,0,0,0,1-1V25.107a1.086,1.086,0,0,1,.824-1.093A1,1,0,0,1,48,25v4a1,1,0,0,1-1,1H40V28Z"></path></g></svg>