<svg xmlns="http://www.w3.org/2000/svg" viewBox="0 0 64 64" x="0px" y="0px"><g><path d="M43,13H41.931a1,1,0,0,1-.993-1.124A6.854,6.854,0,0,0,41,11,7,7,0,0,0,27.768,7.826,1,1,0,0,1,26.5,8.3,3.988,3.988,0,0,0,21,11.956c0,.046.009.1.009.133a1,1,0,0,1-.836.986A5,5,0,0,0,21,23H43a5,5,0,0,0,0-10Zm-8,0H33V11h2Zm4,0H37V11h2Z"></path><path d="M29.18,34a2.868,2.868,0,0,0,0,2H17v5H15V35a1,1,0,0,1,1-1Z"></path><path d="M31,27h2v5.18a2.868,2.868,0,0,0-2,0Z"></path><path d="M49,35v6H47V36H34.82a2.868,2.868,0,0,0,0-2H48A1,1,0,0,1,49,35Z"></path><path d="M21,52h-.422a1,1,0,0,1-.916-1.4A3.951,3.951,0,0,0,20,49a3.988,3.988,0,0,0-7.746-1.348,1,1,0,0,1-1.381.56,1.976,1.976,0,0,0-2.747,2.455A1,1,0,0,1,7.184,52H7a3,3,0,0,0,0,6H21a3,3,0,0,0,0-6Zm-7,0H12V50h2Zm4,0H16V50h2Z"></path><path d="M57,52h-.422a1,1,0,0,1-.916-1.4A3.951,3.951,0,0,0,56,49a3.988,3.988,0,0,0-7.746-1.348,1,1,0,0,1-1.381.56,1.976,1.976,0,0,0-2.747,2.455A1,1,0,0,1,43.184,52H43a3,3,0,0,0,0,6H57a3,3,0,0,0,0-6Zm-7,0H48V50h2Zm4,0H52V50h2Z"></path><circle cx="32" cy="35" r="1"></circle></g></svg>