<svg xmlns="http://www.w3.org/2000/svg" viewBox="0 0 64 64" x="0px" y="0px"><g><path d="M36,42V41a2,2,0,0,0-2-2H33V37H31v2H30a2,2,0,0,0-2,2v2a2,2,0,0,0,2,2h4v2H30V46H28v1a2,2,0,0,0,2,2h1v2h2V49h1a2,2,0,0,0,2-2V45a2,2,0,0,0-2-2H30V41h4v1Z"></path><rect x="37" y="43" width="2" height="2"></rect><rect x="25" y="43" width="2" height="2"></rect><path d="M22.2,36h2.32A8.94,8.94,0,0,0,23,41H21A10.915,10.915,0,0,1,22.2,36Z"></path><path d="M46.95,38.46l-4.24,4.25a1.014,1.014,0,0,1-1.42,0l-4.24-4.25,1.41-1.41,2.4,2.39A9.062,9.062,0,0,0,39.46,36h2.33a11.119,11.119,0,0,1,1.12,3.67l2.63-2.62Z"></path><path d="M32,55a9.01,9.01,0,0,1-8.856-7.441l2.391,2.391,1.414-1.414-4.242-4.243a1.029,1.029,0,0,0-1.414,0l-4.242,4.243,1.414,1.414,2.623-2.624A11,11,0,0,0,43,46H41A9.01,9.01,0,0,1,32,55Z"></path><rect x="53" y="44" width="2" height="2"></rect><rect x="55" y="46" width="2" height="2"></rect><rect x="53" y="48" width="2" height="2"></rect><rect x="51" y="46" width="2" height="2"></rect><rect x="48" y="53" width="2" height="2"></rect><rect x="50" y="55" width="2" height="2"></rect><rect x="48" y="57" width="2" height="2"></rect><rect x="46" y="55" width="2" height="2"></rect><rect x="7" y="42" width="2" height="2"></rect><rect x="9" y="44" width="2" height="2"></rect><rect x="7" y="46" width="2" height="2"></rect><rect x="5" y="44" width="2" height="2"></rect><path d="M58.92,11H5.08A1.076,1.076,0,0,0,4,12.08V34.92A1.076,1.076,0,0,0,5.08,36H22.2a11,11,0,0,1,19.59,0H58.92A1.076,1.076,0,0,0,60,34.92V12.08A1.076,1.076,0,0,0,58.92,11ZM23,33H13a1,1,0,0,1-1-1,4,4,0,0,0-4-4,1,1,0,0,1-1-1V20a1,1,0,0,1,1-1,4,4,0,0,0,4-4,1,1,0,0,1,1-1H23v2H13.92A6.038,6.038,0,0,1,9,20.92v5.16A6.038,6.038,0,0,1,13.92,31H23Zm15.22-4.97A7.887,7.887,0,0,0,40,23a8,8,0,0,0-16,0,7.887,7.887,0,0,0,1.78,5.03l-1.56,1.26a10,10,0,1,1,15.56,0ZM57,27a1,1,0,0,1-1,1,4,4,0,0,0-4,4,1,1,0,0,1-1,1H41V31h9.08A6.038,6.038,0,0,1,55,26.08V20.92A6.038,6.038,0,0,1,50.08,16H41V14H51a1,1,0,0,1,1,1,4,4,0,0,0,4,4,1,1,0,0,1,1,1ZM32,32a9.01,9.01,0,0,0-7.48,4H39.46A8.947,8.947,0,0,0,32,32Z"></path></g></svg>