<svg xmlns="http://www.w3.org/2000/svg" viewBox="0 0 64 64" x="0px" y="0px"><g><path d="M55,57a3,3,0,0,1-3,3H21v2H52a5.006,5.006,0,0,0,5-5V38H55Z"></path><path d="M15,15a3,3,0,0,1,3-3h5.424A4.95,4.95,0,0,0,23,14H19a2,2,0,0,0-2,2V32h2V16h4v3a1,1,0,0,0,1,1H46a1,1,0,0,0,1-1V16h4v6h2V16a2,2,0,0,0-2-2H47a4.95,4.95,0,0,0-.424-2H52a3,3,0,0,1,3,3v5h2V15a5.006,5.006,0,0,0-5-5H44.969A4.952,4.952,0,0,0,42,9H40V7A5,5,0,0,0,30,7V9H28a4.952,4.952,0,0,0-2.969,1H18a5.006,5.006,0,0,0-5,5V32h2Zm10-1a3,3,0,0,1,3-3h3a1,1,0,0,0,1-1V7a3,3,0,0,1,6,0v3a1,1,0,0,0,1,1h3a3,3,0,0,1,3,3v1H25Zm0,3H45v1H25Z"></path><path d="M30,58H51a2,2,0,0,0,2-2V42H51v6H46a3,3,0,0,0-3,3v5H30Zm21-2H46.414L51,51.414Zm-6-5a1,1,0,0,1,1-1h3.586L45,54.586Z"></path><rect x="34" y="6" width="2" height="2"></rect><path d="M60.87,23.13a5.006,5.006,0,0,0-7.071,0L36.122,40.808a1,1,0,0,0-.274.51L35.2,44.557l-1.907,1.907a3,3,0,0,0,4.243,4.243L39.443,48.8l3.239-.648a1,1,0,0,0,.51-.274L60.87,30.2A5.006,5.006,0,0,0,60.87,23.13Zm-9.9,5.656L52.385,30.2,40.364,42.222,38.95,40.808ZM36.122,49.293a1,1,0,0,1-1.415-1.415l1.414-1.414,1.415,1.415Zm3.156-2.5-2.071-2.071.472-2.357,3.956,3.956Zm3.914-1.743-1.414-1.414L53.8,31.615l1.415,1.414ZM56.628,31.615l-4.243-4.243.707-.707,4.243,4.243Zm2.828-2.828-.707.707-4.243-4.243.707-.707a3,3,0,1,1,4.243,4.243Z"></path><path d="M23.178,59.406a1,1,0,0,0,1.307-.093l2.828-2.828a1,1,0,0,0,.093-1.307l-1.624-2.166a10.96,10.96,0,0,0,.678-1.639l2.682-.383A1,1,0,0,0,30,50V46a1,1,0,0,0-.858-.99l-2.682-.383a10.96,10.96,0,0,0-.678-1.639l1.624-2.166a1,1,0,0,0-.093-1.307l-2.828-2.828a1,1,0,0,0-1.307-.093l-2.166,1.624a10.96,10.96,0,0,0-1.639-.678l-.383-2.682A1,1,0,0,0,18,34H14a1,1,0,0,0-.99.858l-.383,2.682a10.96,10.96,0,0,0-1.639.678L8.822,36.594a1,1,0,0,0-1.307.093L4.687,39.515a1,1,0,0,0-.093,1.307l1.624,2.166a10.96,10.96,0,0,0-.678,1.639l-2.682.383A1,1,0,0,0,2,46v4a1,1,0,0,0,.858.99l2.682.383a10.96,10.96,0,0,0,.678,1.639L4.594,55.178a1,1,0,0,0,.093,1.307l2.828,2.828a1,1,0,0,0,1.307.093l2.166-1.624a10.96,10.96,0,0,0,1.639.678l.383,2.682A1,1,0,0,0,14,62h4a1,1,0,0,0,.99-.858l.383-2.682a10.96,10.96,0,0,0,1.639-.678Zm-4.95-2.7a1,1,0,0,0-.743.828L17.133,60H14.867l-.352-2.463a1,1,0,0,0-.743-.828,8.892,8.892,0,0,1-2.356-.975,1,1,0,0,0-1.111.06l-1.99,1.492-1.6-1.6L8.206,53.7a1,1,0,0,0,.06-1.111,8.892,8.892,0,0,1-.975-2.356,1,1,0,0,0-.828-.743L4,49.133V46.867l2.463-.352a1,1,0,0,0,.828-.743,8.892,8.892,0,0,1,.975-2.356,1,1,0,0,0-.06-1.111l-1.492-1.99,1.6-1.6,1.99,1.492a1,1,0,0,0,1.111.06,8.892,8.892,0,0,1,2.356-.975,1,1,0,0,0,.743-.828L14.867,36h2.266l.352,2.463a1,1,0,0,0,.743.828,8.892,8.892,0,0,1,2.356.975,1,1,0,0,0,1.111-.06l1.99-1.492,1.6,1.6-1.492,1.99a1,1,0,0,0-.06,1.111,8.892,8.892,0,0,1,.975,2.356,1,1,0,0,0,.828.743L28,46.867v2.266l-2.463.352a1,1,0,0,0-.828.743,8.892,8.892,0,0,1-.975,2.356,1,1,0,0,0,.06,1.111l1.492,1.99-1.6,1.6L21.7,55.794a1,1,0,0,0-1.111-.06A8.892,8.892,0,0,1,18.228,56.709Z"></path><path d="M16,42a6,6,0,1,0,6,6A6.006,6.006,0,0,0,16,42Zm0,10a4,4,0,1,1,4-4A4,4,0,0,1,16,52Z"></path><rect x="15" y="38" width="2" height="2"></rect><rect x="8.636" y="40.636" width="2" height="2" transform="translate(-26.619 19.009) rotate(-45)"></rect><rect x="6" y="47" width="2" height="2"></rect><rect x="8.636" y="53.364" width="2" height="2" transform="translate(-35.619 22.737) rotate(-45)"></rect><rect x="15" y="56" width="2" height="2"></rect><rect x="21.364" y="53.364" width="2" height="2" transform="translate(-31.891 31.737) rotate(-45)"></rect><rect x="24" y="47" width="2" height="2"></rect><rect x="21.364" y="40.636" width="2" height="2" transform="translate(-22.891 28.009) rotate(-45)"></rect><path d="M28,26a3.008,3.008,0,0,1,.751.095l.5-1.938A5.059,5.059,0,0,0,28,24a5,5,0,1,0,4.842,6.249l-1.936-.5A3,3,0,1,1,28,26Z"></path><rect x="26.964" y="26.5" width="7.071" height="2" transform="translate(-10.512 29.621) rotate(-45)"></rect><rect x="35" y="26" width="2" height="2"></rect><rect x="39" y="26" width="4" height="2"></rect><rect x="35" y="30" width="6" height="2"></rect></g></svg>