<svg xmlns="http://www.w3.org/2000/svg" viewBox="0 0 64 64" x="0px" y="0px"><g><path d="M16.186,24.118A6.943,6.943,0,0,0,15,28v1a1,1,0,0,0,1,1H32a1,1,0,0,0,1-1V28a6.943,6.943,0,0,0-1.186-3.882,4.987,4.987,0,0,0-.814-8.7V13a7.008,7.008,0,0,0-7-7,7.009,7.009,0,0,0-7,7v2.418a4.987,4.987,0,0,0-.814,8.7ZM17,28a4.991,4.991,0,0,1,4.624-4.962l1.669,1.669a1,1,0,0,0,1.414,0l1.669-1.669A4.991,4.991,0,0,1,31,28Zm7-9a3,3,0,0,1-3-3V15h.343a4.968,4.968,0,0,0,3.535-1.465L25,13.414l.707.707A2.991,2.991,0,0,0,27,14.885V16A3,3,0,0,1,24,19Zm0,2a5,5,0,0,0,1-.1v.687l-1,1-1-1V20.9A5,5,0,0,0,24,21Zm5.753-3.9a2.992,2.992,0,0,1,.707,5.514A6.964,6.964,0,0,0,27,21.071v-1.1A4.977,4.977,0,0,0,29,16v.13A1,1,0,0,0,29.753,17.1ZM19,13a5.009,5.009,0,0,1,5-5,5.006,5.006,0,0,1,5,5v1a1,1,0,0,0-1-1h-.171a1,1,0,0,1-.708-.293l-1.414-1.414a1,1,0,0,0-1.414,0l-.829.828A3.017,3.017,0,0,1,21.343,13H20a1,1,0,0,0-1,1Zm-.753,4.1A1,1,0,0,0,19,16.13V16a4.977,4.977,0,0,0,2,3.974v1.1a6.964,6.964,0,0,0-3.46,1.542,2.992,2.992,0,0,1,.707-5.514Z"></path><rect x="15" y="32" width="26" height="2"></rect><rect x="15" y="36" width="6" height="2"></rect><rect x="23" y="36" width="14" height="2"></rect><rect x="39" y="36" width="2" height="2"></rect><rect x="15" y="40" width="2" height="2"></rect><rect x="19" y="40" width="10" height="2"></rect><rect x="31" y="40" width="10" height="2"></rect><rect x="15" y="44" width="22" height="2"></rect><rect x="39" y="44" width="2" height="2"></rect><rect x="15" y="48" width="26" height="2"></rect><path d="M59,20a11.961,11.961,0,0,0-4-8.919V5a3,3,0,0,0-3-3H14a3,3,0,0,0-3,3V52H6a1,1,0,0,0-1,1v4a5.006,5.006,0,0,0,5,5H50a5.006,5.006,0,0,0,5-5V28.919A11.961,11.961,0,0,0,59,20Zm-2,0A10,10,0,1,1,47,10,10.011,10.011,0,0,1,57,20ZM49,48H45V40h4ZM45,36h4v2H45Zm1-2V31.949c.331.028.662.051,1,.051s.669-.023,1-.051V34ZM10,60a3,3,0,0,1-3-3V54H45v3a4.987,4.987,0,0,0,1,3Zm43-3a3,3,0,1,1-6,0V53a1,1,0,0,0-1-1H13V5a1,1,0,0,1,1-1H52a1,1,0,0,1,1,1V9.624a11.988,11.988,0,1,0-9,21.981V34a1,1,0,0,0-1,1V48a2,2,0,0,0,2,2h4a2,2,0,0,0,2-2V35a1,1,0,0,0-1-1V31.605a11.875,11.875,0,0,0,3-1.229Z"></path><path d="M47,12a8,8,0,1,0,8,8A8.009,8.009,0,0,0,47,12Zm0,14a6,6,0,1,1,6-6A6.006,6.006,0,0,1,47,26Z"></path></g></svg>