<svg xmlns="http://www.w3.org/2000/svg" viewBox="0 0 64 64" x="0px" y="0px"><g data-name="Delivery Man"><path d="M42,52H40.721A17.018,17.018,0,0,0,26.727,38.234,2.963,2.963,0,0,0,27,37a3,3,0,0,0-6,0,2.966,2.966,0,0,0,.273,1.234A16.991,16.991,0,0,0,7.288,52H6a3,3,0,0,0,0,6h.219l.621,2.484A2,2,0,0,0,8.781,62H39.219a2,2,0,0,0,1.94-1.516L41.78,58H42a3,3,0,0,0,0-6ZM23,37a1,1,0,1,1,1,1A1,1,0,0,1,23,37Zm1,3A15.022,15.022,0,0,1,38.693,52H9.315A15,15,0,0,1,24,40ZM39.219,60H8.781l-.5-2H39.719ZM42,56H6a1,1,0,0,1,0-2H42a1,1,0,0,1,0,2Z"></path><path d="M52,12a4.827,4.827,0,0,0-1.077.122,5,5,0,0,0-9.846,0A4.827,4.827,0,0,0,40,12a5,5,0,0,0-1,9.9V27a1,1,0,0,0,1,1H52a1,1,0,0,0,1-1V21.9A5,5,0,0,0,52,12ZM41,26V25H51v1Zm11-6a1,1,0,0,0-1,1v2H41V21a1,1,0,0,0-1-1,3,3,0,0,1,0-6,2.941,2.941,0,0,1,1.542.442.994.994,0,0,0,1.071-.034,1.011,1.011,0,0,0,.432-.991A2.742,2.742,0,0,1,43,13a3,3,0,0,1,6,0,2.928,2.928,0,0,1-.048.438,1,1,0,0,0,1.506,1A2.941,2.941,0,0,1,52,14a3,3,0,0,1,0,6Z"></path><path d="M46,2a16,16,0,0,0-7,30.383V39a1,1,0,0,0,.648.937A1.026,1.026,0,0,0,40,40a1,1,0,0,0,.753-.342l4.958-5.666c.1.005.192.008.289.008A16,16,0,0,0,46,2Zm0,30c-.131,0-.26-.01-.389-.019l-.285-.016a.963.963,0,0,0-.8.341L41,36.339v-4.6a1,1,0,0,0-.6-.916A13.992,13.992,0,1,1,46,32Z"></path></g></svg>