<svg xmlns="http://www.w3.org/2000/svg" viewBox="0 0 64 64" x="0px" y="0px"><g data-name="Advertising-Digital Marketing-Megaphone-Ecommerce-Website"><path d="M57,2H13A5,5,0,0,0,8,7v7.26A7.01,7.01,0,0,0,5,20v2.54a3.87,3.87,0,0,0-.83.63A4,4,0,0,0,7,30h.58a8.064,8.064,0,0,0,.42.83v5.63L4.23,38.98A4.974,4.974,0,0,0,2,43.14V61a1,1,0,0,0,1,1H57a5,5,0,0,0,5-5V7A5,5,0,0,0,57,2ZM7,20a5,5,0,0,1,5-5h9v1a3.009,3.009,0,0,1-3,3H11a2.006,2.006,0,0,0-2,2,1,1,0,0,1-1,1H7Zm0,8a2.006,2.006,0,0,1-2-2,2.015,2.015,0,0,1,2-2H8a3.009,3.009,0,0,0,3-3h8a2.006,2.006,0,0,1,2,2v4a6,6,0,0,1-6,6,5.928,5.928,0,0,1-4.24-1.76,5.682,5.682,0,0,1-.91-1.16,5.811,5.811,0,0,1-.6-1.37A1.008,1.008,0,0,0,8.29,28Zm7,6.93v1.89l-4-.67V33.24A7.9,7.9,0,0,0,14,34.93ZM21,60H10V46a1.185,1.185,0,0,0-.05-.32l-1-3-1.9.64L8,46.16V60H4V43.14a3.008,3.008,0,0,1,1.33-2.5l3.89-2.59,5.39.9,4.3,3.07A5.018,5.018,0,0,1,21,46.09Zm6.32,0H23V57.25l6.46-11.99,1.54.62V50a1.064,1.064,0,0,0,.13.47Zm1.53-21.6a.972.972,0,0,1,.8-.4H31a1,1,0,0,1,0,2H30v2h1v1.72l-1.17-.47-1.14-3.97A.985.985,0,0,1,28.85,38.4ZM27,32a3.009,3.009,0,0,1,3-3h1v6H30A3.009,3.009,0,0,1,27,32ZM60,57a3.009,3.009,0,0,1-3,3H29.48l3.6-9H36a1,1,0,0,0,1-1V46a3.009,3.009,0,0,0,3-3V39a2.9,2.9,0,0,0-.12-.79L45,39.74V40a1,1,0,0,0,1,1h4a1,1,0,0,0,1-1V24a1,1,0,0,0-1-1H46a1,1,0,0,0-1,1v.26L35.85,27H30a4.994,4.994,0,0,0-2.05,9.55,2.8,2.8,0,0,0-.69.64,2.956,2.956,0,0,0-.49,2.63l1.16,4.06L23,53.03V46.09a6.968,6.968,0,0,0-2.93-5.69L16,37.49V34.93A8,8,0,0,0,23,27V23a4.028,4.028,0,0,0-1.68-3.26A5,5,0,0,0,23,16V14a1,1,0,0,0-1-1H12a7.268,7.268,0,0,0-2,.29V12H60ZM38,39v4a1,1,0,0,1-1,1H36a1,1,0,0,1-1-1V39a1,1,0,0,1,1-1h1A1,1,0,0,1,38,39Zm-1-3.74V28.74l8-2.4V37.66ZM35,35H33V29h2Zm-1.22,2a2.387,2.387,0,0,0-.28.35,2.387,2.387,0,0,0-.28-.35ZM35,45.82V49H33V43A3.01,3.01,0,0,0,35,45.82ZM47,39V25h2V39ZM60,10H10V7a3.009,3.009,0,0,1,3-3H57a3.009,3.009,0,0,1,3,3Z"></path><rect x="14" y="6" width="2" height="2"></rect><rect x="18" y="6" width="2" height="2"></rect><rect x="22" y="6" width="2" height="2"></rect><rect x="53" y="31" width="4" height="2"></rect><rect x="52.764" y="26" width="4.472" height="2" transform="translate(-6.268 27.447) rotate(-26.565)"></rect><rect x="54" y="34.764" width="2" height="4.472" transform="translate(-2.691 69.647) rotate(-63.435)"></rect><path d="M56,18H38.816a2.982,2.982,0,0,0-5.632,0H29v2h4.184a2.982,2.982,0,0,0,5.632,0H56ZM36,20a1,1,0,1,1,1-1A1,1,0,0,1,36,20Z"></path></g></svg>