<svg xmlns="http://www.w3.org/2000/svg" viewBox="0 0 64 64" x="0px" y="0px"><g data-name="Sent-Email"><path d="M59,12H11a3,3,0,0,0-3,3v1h2V15a1,1,0,0,1,1-1H59a1,1,0,0,1,1,1V42H10V31H8V47a3,3,0,0,0,3,3H26.867l-.75,6H25a1,1,0,0,0-1,1v3H22v2H48V60H46V57a1,1,0,0,0-1-1H43.883l-.75-6H59a3,3,0,0,0,3-3V15A3,3,0,0,0,59,12ZM44,60H26V58H44Zm-2.133-4H28.133l.75-6H41.117ZM59,48H11a1,1,0,0,1-1-1V44H60v3A1,1,0,0,1,59,48Z"></path><rect x="52" y="45" width="4" height="2"></rect><path d="M52,39a2,2,0,0,0,2-2V27a2,2,0,0,0-2-2H36a2,2,0,0,0-2,2V37a2,2,0,0,0,2,2ZM36,37V28.868l6.336,4.224a2.989,2.989,0,0,0,3.328,0L52,28.868V37Zm.8-10H51.2l-6.642,4.428a1,1,0,0,1-1.11,0Z"></path><path d="M28,17H16a2,2,0,0,0-2,2v8a2,2,0,0,0,2,2H28a2,2,0,0,0,2-2V19A2,2,0,0,0,28,17Zm-1.015,2L22,21.848,17.015,19ZM16,27V20.723l5.008,2.861a2,2,0,0,0,1.984,0L28,20.723V27Z"></path><rect x="6" y="18" width="6" height="2"></rect><rect x="2" y="18" width="2" height="2"></rect><rect x="8" y="23" width="4" height="2"></rect><rect x="4" y="23" width="2" height="2"></rect><rect x="10" y="27" width="2" height="2"></rect><rect x="26" y="32" width="6" height="2"></rect><rect x="22" y="32" width="2" height="2"></rect><rect x="28" y="36" width="4" height="2"></rect><rect x="24" y="36" width="2" height="2"></rect></g></svg>