<svg xmlns="http://www.w3.org/2000/svg" viewBox="0 0 64 64" x="0px" y="0px"><g><path d="M29.707,56.293,32,58.586V51.411a7.935,7.935,0,0,1-6,0v7.175l2.293-2.293A1,1,0,0,1,29.707,56.293Z"></path><path d="M48,16V11a3,3,0,0,0-6,0v8h7A4.973,4.973,0,0,1,48,16Z"></path><path d="M48.532,7.458A5.014,5.014,0,0,1,50,11v5a3,3,0,0,0,6,0V4H12V6H45A5.01,5.01,0,0,1,48.532,7.458Z"></path><path d="M29,38a6,6,0,1,0,6,6A6,6,0,0,0,29,38Zm0,11a5,5,0,1,1,5-5A5,5,0,0,1,29,49Z"></path><circle cx="29" cy="44" r="3"></circle><path d="M7,8a3.009,3.009,0,0,0-3,3V52H24V50.24a8,8,0,1,1,10,0V52h6V11a4.924,4.924,0,0,1,1.03-3Zm1,4h4v2H8ZM8,24H30v2H8Zm0,6h2v2H8ZM18,46H8V44H18Zm0-5a3.037,3.037,0,0,1-2.1-.7A1.14,1.14,0,0,0,15,40c-.44,0-.8.29-1.35.76A4,4,0,0,1,11,42a3.037,3.037,0,0,1-2.1-.7A1.154,1.154,0,0,0,8,41V39a3.037,3.037,0,0,1,2.1.7,1.154,1.154,0,0,0,.9.3c.44,0,.8-.29,1.35-.76A4,4,0,0,1,15,38a3.037,3.037,0,0,1,2.1.7,1.14,1.14,0,0,0,.9.3Zm18-9H12V30H36Zm0-6H32V24h4Zm0-6H8V18H36Zm0-6H14V12H36Z"></path><path d="M59.833,24.809c-1.157-.024-4,.274-6.544,3.559a9.182,9.182,0,0,0-1.8,5.929,51.678,51.678,0,0,1,3.417-4.8l1.539,1.276a51.217,51.217,0,0,0-3.252,4.621,8.715,8.715,0,0,0,4.846-3.353C60.573,28.756,60.155,25.928,59.833,24.809Z"></path><path d="M56,58.558a9.4,9.4,0,0,1-2.674-.617,8.561,8.561,0,0,0-5.99,0,10.56,10.56,0,0,1-7.344,0,7.424,7.424,0,0,0-1.993-.5V60H56Z"></path><path d="M45.14,56.49h.01a2.477,2.477,0,0,1,.03-.27A2.512,2.512,0,0,0,45.14,56.49Z"></path><path d="M56,55v1.55a7.318,7.318,0,0,1-2-.49,10.534,10.534,0,0,0-7.34,0,8.2,8.2,0,0,1-1.51.43,2.477,2.477,0,0,1,.03-.27,2.512,2.512,0,0,0-.04.27h.01c-.07.53-.12,1.05-.15,1.58l-2-.14c.03-.45.08-.89.12-1.34a7.527,7.527,0,0,1-2.45-.53A9.219,9.219,0,0,0,38,55.44V55a3.009,3.009,0,0,1,3-3h2.87c.15-.67.31-1.34.49-2H43V48h1.96a58.659,58.659,0,0,1,5.65-12.3,6.3,6.3,0,0,0,.16.83,6.063,6.063,0,0,0,1.72,0A59.013,59.013,0,0,0,47.09,48H51v2H46.46c-.19.66-.36,1.32-.52,2H53A3.009,3.009,0,0,1,56,55Z"></path></g></svg>