<svg xmlns="http://www.w3.org/2000/svg" viewBox="0 0 64 64" x="0px" y="0px"><g><path d="M32,32A14,14,0,1,0,18,18,14.015,14.015,0,0,0,32,32ZM43,12v2H41V12ZM39,8h2v2H39ZM25,14a7.008,7.008,0,0,1,7-7,7.009,7.009,0,0,1,7,7v2.126a3.991,3.991,0,0,1,0,7.732V28a1,1,0,0,1-1,1H26a1,1,0,0,1-1-1V23.858a3.991,3.991,0,0,1,0-7.732ZM22,9h2v2H22Zm0,5v2H20V14Z"></path><path d="M47.87,19.939A15.8,15.8,0,0,1,47,23.529,14.943,14.943,0,0,1,49,31v4a3,3,0,0,0,3,3,2.634,2.634,0,0,0,.729-.093A2.994,2.994,0,0,0,55,35a1,1,0,0,1,1-1h.972a16.937,16.937,0,0,0-9.1-14.061Z"></path><path d="M51,60a1,1,0,0,0,1-1V40a4.982,4.982,0,0,1-4-2.031,4.954,4.954,0,0,1-8,0,4.954,4.954,0,0,1-8,0,4.954,4.954,0,0,1-8,0,4.954,4.954,0,0,1-8,0A4.982,4.982,0,0,1,12,40V59a1,1,0,0,0,1,1h3V47a3,3,0,0,1,3-3h6a3,3,0,0,1,3,3V60ZM32,46a2,2,0,0,1,2-2H46a2,2,0,0,1,2,2v6a2,2,0,0,1-2,2H34a2,2,0,0,1-2-2Z"></path><path d="M25.256,21.853a2.946,2.946,0,0,1,.166-.387A3.011,3.011,0,0,1,28,20h1v-.78A2.985,2.985,0,0,1,28,17V13a1,1,0,0,1,1-1h6a1,1,0,0,1,1,1v4a2.985,2.985,0,0,1-1,2.22V20h1a3.011,3.011,0,0,1,2.58,1.47,2.884,2.884,0,0,1,.164.383A2,2,0,0,0,38,18a1,1,0,0,1-1-1V14a5.009,5.009,0,0,0-5-5,5.006,5.006,0,0,0-5,5v3a1,1,0,0,1-1,1,2,2,0,0,0-.744,3.853Z"></path><path d="M36,22H34.816a2.982,2.982,0,0,1-5.632,0H28a.992.992,0,0,0-.86.49A.981.981,0,0,0,27,23v4H37V23a.972.972,0,0,0-.137-.5A.993.993,0,0,0,36,22Z"></path><path d="M34,17V14H30v3a1,1,0,0,0,1,1h2A1,1,0,0,0,34,17Z"></path><path d="M31,21a1,1,0,0,0,2,0V20H31Z"></path><rect x="34" y="46" width="12" height="6"></rect><path d="M17,35a3,3,0,0,0,6,0V31.218a16.1,16.1,0,0,1-4.93-5.374A12.953,12.953,0,0,0,17,31Z"></path><path d="M31,35V33.949a15.852,15.852,0,0,1-6-1.584V35a3,3,0,0,0,6,0Z"></path><path d="M39,35V32.365a15.852,15.852,0,0,1-6,1.584V35a3,3,0,0,0,6,0Z"></path><path d="M41,31.218V35a3,3,0,0,0,6,0V31a12.962,12.962,0,0,0-1.07-5.157A16.092,16.092,0,0,1,41,31.218Z"></path><path d="M7.029,34H8a1,1,0,0,1,1,1,2.987,2.987,0,0,0,2.247,2.9A2.7,2.7,0,0,0,12,38a3,3,0,0,0,3-3V31a14.939,14.939,0,0,1,2-7.47,15.847,15.847,0,0,1-.876-3.6A16.941,16.941,0,0,0,7.029,34Z"></path><path d="M19,46a1,1,0,0,0-1,1V60h8V47a1,1,0,0,0-1-1Zm6,9H23V51h2Z"></path></g></svg>