<svg xmlns="http://www.w3.org/2000/svg" viewBox="0 0 64 64" x="0px" y="0px"><g><path d="M44,36a2,2,0,0,0,0-4,1.9,1.9,0,0,0-.25.03,7.887,7.887,0,0,1,0,3.94A1.9,1.9,0,0,0,44,36Z"></path><path d="M44,30a4,4,0,0,1,0,8,4.153,4.153,0,0,1-1-.13,7.893,7.893,0,0,1-1.25,1.68A6.1,6.1,0,0,0,44,40a6,6,0,0,0,0-12,6.1,6.1,0,0,0-2.25.45A7.893,7.893,0,0,1,43,30.13,4.153,4.153,0,0,1,44,30Z"></path><path d="M36,36a2,2,0,0,0,0-4,1.9,1.9,0,0,0-.25.03,7.887,7.887,0,0,1,0,3.94A1.9,1.9,0,0,0,36,36Z"></path><path d="M36,30a4,4,0,0,1,0,8,4.153,4.153,0,0,1-1-.13,7.893,7.893,0,0,1-1.25,1.68A5.9,5.9,0,0,0,36,40a6,6,0,0,0,0-12,5.9,5.9,0,0,0-2.25.45A7.893,7.893,0,0,1,35,30.13,4.153,4.153,0,0,1,36,30Z"></path><path d="M28,30a4,4,0,0,1,0,8,4.153,4.153,0,0,1-1-.13,7.893,7.893,0,0,1-1.25,1.68A6.1,6.1,0,0,0,28,40a6,6,0,0,0,0-12,6.1,6.1,0,0,0-2.25.45A7.893,7.893,0,0,1,27,30.13,4.153,4.153,0,0,1,28,30Z"></path><path d="M4,14H60V7a3.009,3.009,0,0,0-3-3H7A3.009,3.009,0,0,0,4,7ZM54,8h2v2H54ZM50,8h2v2H50ZM45,6a3,3,0,1,1-3,3A3,3,0,0,1,45,6ZM24,7a1,1,0,0,1,1-1H39a1,1,0,0,1,1,1v4a1,1,0,0,1-1,1H25a1,1,0,0,1-1-1ZM19,6a3,3,0,1,1-3,3A3,3,0,0,1,19,6ZM12,8h2v2H12ZM8,8h2v2H8Z"></path><rect x="26" y="8" width="12" height="2"></rect><circle cx="45" cy="9" r="1"></circle><circle cx="19" cy="9" r="1"></circle><path d="M20,40a6,6,0,1,0-6-6A6,6,0,0,0,20,40Zm0-10a4,4,0,1,1-4,4A4,4,0,0,1,20,30Z"></path><path d="M9,48H55a1,1,0,0,0,1-1V21a1,1,0,0,0-1-1H9a1,1,0,0,0-1,1V47A1,1,0,0,0,9,48ZM20,26a7.923,7.923,0,0,1,4.01,1.09,7.884,7.884,0,0,1,8,0,7.884,7.884,0,0,1,8,0A7.915,7.915,0,0,1,44,26a8,8,0,0,1,0,16,7.915,7.915,0,0,1-3.99-1.09,7.884,7.884,0,0,1-8,0,7.884,7.884,0,0,1-8,0A7.923,7.923,0,0,1,20,42a8,8,0,0,1,0-16Z"></path><path d="M4,52H60V16H4ZM6,21a3.009,3.009,0,0,1,3-3H55a3.009,3.009,0,0,1,3,3V47a3.009,3.009,0,0,1-3,3H9a3.009,3.009,0,0,1-3-3Z"></path><path d="M28,36a2,2,0,0,0,0-4,1.9,1.9,0,0,0-.25.03,7.887,7.887,0,0,1,0,3.94A1.9,1.9,0,0,0,28,36Z"></path><path d="M4,59a1,1,0,0,0,1,1H59a1,1,0,0,0,1-1V54H4Z"></path><circle cx="20" cy="34" r="2"></circle></g></svg>