<svg xmlns="http://www.w3.org/2000/svg" viewBox="0 0 64 64" x="0px" y="0px"><g data-name="Eco Energy"><path d="M23.757,14.757a4.964,4.964,0,0,0,3.484-1.421A22.05,22.05,0,0,0,22.553,9.9l.894-1.79a23.6,23.6,0,0,1,4.936,3.554,5.007,5.007,0,0,0-1.09-5.437c-1.815-1.815-6.844-2.393-9.582-2.511.118,2.738.7,7.767,2.511,9.582A4.967,4.967,0,0,0,23.757,14.757Z"></path><path d="M35.828,12.172a2.971,2.971,0,0,0,.125.81,21.541,21.541,0,0,1,3.532-2.839l1.031,1.714a20.454,20.454,0,0,0-3.385,2.781,3,3,0,0,0,3.819-.345c1.221-1.221,1.666-4.189,1.789-6.032-1.843.123-4.811.568-6.032,1.789A2.986,2.986,0,0,0,35.828,12.172Z"></path><path d="M30.186,30.419l3.108-4.353C32.865,26.033,32.437,26,32,26a16.877,16.877,0,0,0-8.515,2.309l1.139.91a1,1,0,0,1,.271.334l2,4A1,1,0,0,1,27,34v3.586l2.707,2.707A1,1,0,0,1,30,41v4a1,1,0,0,1-.485.857l-4.683,2.81L24,51.162V55a1,1,0,0,1-.293.707L22.4,57.016a16.917,16.917,0,0,0,6.6,2.7V58.3l-1.832-2.748A1.006,1.006,0,0,1,27,55V52a1,1,0,0,1,.293-.707l2-2A1,1,0,0,1,30,49h4a1,1,0,0,1,.707.293l2,2A1,1,0,0,1,37,52v3a1,1,0,0,1-.553.9l-2,1A1,1,0,0,1,34,57v2.872a16.881,16.881,0,0,0,8.173-3.284l-3.88-3.881A1,1,0,0,1,38.2,51.4L41,47.667V44.5l-3.6-2.7A1,1,0,0,1,37,41V38.659l-6.394-2.74A1,1,0,0,1,30,35V31A1,1,0,0,1,30.186,30.419Z"></path><path d="M32,60V56a1,1,0,0,1,1-1h.764L35,54.382V52.414L33.586,51H30.414L29,52.414V54.7l1.832,2.748A1.006,1.006,0,0,1,31,58v1.949C31.333,59.969,31.662,60,32,60Z"></path><path d="M20.815,55.77,22,54.586V51a1,1,0,0,1,.051-.316l1-3a1,1,0,0,1,.434-.541L28,44.434v-3.02l-2.707-2.707A1,1,0,0,1,25,38V34.236l-1.8-3.592-1.462-1.168a16.932,16.932,0,0,0-.927,26.294Z"></path><path d="M35.53,26.374,32,31.32v3.021l6.394,2.74A1,1,0,0,1,39,38v2.5l3.6,2.7a1,1,0,0,1,.4.8v4a1,1,0,0,1-.2.6l-2.48,3.306,3.388,3.388a16.972,16.972,0,0,0-8.178-28.92Z"></path><path d="M35.78,16.13A21.458,21.458,0,0,0,33,20.25V24H31V18.25a17.192,17.192,0,0,0-2.38-3.46.647.647,0,0,0,.09-.08,7.164,7.164,0,0,0,.71-.84,4.876,4.876,0,0,0,.44-.71,20.656,20.656,0,0,1,2.74,3.85,24.881,24.881,0,0,1,1.85-2.43,5,5,0,0,0,.45.68,3.912,3.912,0,0,0,.39.45A4.928,4.928,0,0,0,35.78,16.13Z"></path></g></svg>