<svg xmlns="http://www.w3.org/2000/svg" viewBox="0 0 64 64" x="0px" y="0px"><title>Artificial Intelligence-Robot-Laptop-Technology</title><g data-name="Artificial Intelligence-Robot"><path d="M61.9,56.553,56,44.764V23.444a3.95,3.95,0,0,0,1-6.062V8a2.981,2.981,0,0,0-.52-1.685A4.983,4.983,0,0,0,59,2H57a3,3,0,0,1-6,0H49a4.983,4.983,0,0,0,2.52,4.315A2.981,2.981,0,0,0,51,8v4H40.852l-.265-.212A.981.981,0,0,0,41,11V10h2a1,1,0,0,0,1-1V5a1,1,0,0,0-1-1H41V3a1,1,0,0,0-1-1H24a1,1,0,0,0-1,1V4H21a1,1,0,0,0-1,1V9a1,1,0,0,0,1,1h2v1a.981.981,0,0,0,.413.788L23.148,12H13V8a2.981,2.981,0,0,0-.52-1.685A4.983,4.983,0,0,0,15,2H13A3,3,0,0,1,7,2H5A4.983,4.983,0,0,0,7.52,6.315,2.981,2.981,0,0,0,7,8v9.382a3.95,3.95,0,0,0,1,6.062v21.32L2.105,56.553A1,1,0,0,0,2,57v3a2,2,0,0,0,2,2H60a2,2,0,0,0,2-2V57A1,1,0,0,0,61.9,56.553ZM40.618,56,38.9,52.553A1,1,0,0,0,38,52H26a1,1,0,0,0-.895.553L23.382,56H4.618l5-10H54.382l5,10Zm-2.236,0H25.618l1-2H37.382ZM54,22a2,2,0,1,1,2-2A2,2,0,0,1,54,22Zm-3.858-1H48V19h2.142a3.592,3.592,0,0,0,0,2ZM55,8v8.142a3.592,3.592,0,0,0-2,0V8a1,1,0,0,1,2,0Zm-4,6v3H48a2,2,0,0,0-2-2H44a1,1,0,0,0-.375-.781L43.352,14ZM23.618,28,22,24.764V15.48L26.351,12h11.3L42,15.48v9.284L40.382,28ZM33,39a1,1,0,1,1-1-1A1,1,0,0,1,33,39ZM20,23H18V17h2Zm24-6h2v6H44ZM42,6V8H41V6ZM25,4H39v6H25ZM22,8V6h1V8Zm-1.352,6-.273.219A1,1,0,0,0,20,15H18a2,2,0,0,0-2,2H13V14ZM16,21H13.858a3.592,3.592,0,0,0,0-2H16ZM8,20a2,2,0,1,1,2,2A2,2,0,0,1,8,20ZM11,8v8.142a3.592,3.592,0,0,0-2,0V8a1,1,0,0,1,2,0Zm1.618,15H16a2,2,0,0,0,2,2h2a1,1,0,0,0,.105.447l2,4A1,1,0,0,0,23,30h2v2.586L22.586,35h-1.77a3,3,0,1,0,0,2H23a1,1,0,0,0,.707-.293l3-3A1,1,0,0,0,27,33V30h4v6.184a3,3,0,1,0,2,0V30h3v3a1,1,0,0,0,.293.707l3,3A1,1,0,0,0,40,37h2.184a3,3,0,1,0,0-2h-1.77L38,32.586V30h3a1,1,0,0,0,.9-.553l2-4A1,1,0,0,0,44,25h2a2,2,0,0,0,2-2h3.382A3.962,3.962,0,0,0,54,24V44H10V24A3.962,3.962,0,0,0,12.618,23ZM19,36a1,1,0,1,1-1-1A1,1,0,0,1,19,36Zm25,0a1,1,0,1,1,1,1A1,1,0,0,1,44,36ZM4,60V58H60v2Z"></path><rect x="10" y="52" width="2" height="2"></rect><rect x="14" y="52" width="2" height="2"></rect><rect x="48" y="52" width="2" height="2"></rect><rect x="52" y="52" width="2" height="2"></rect><rect x="15" y="48" width="2" height="2"></rect><rect x="11" y="48" width="2" height="2"></rect><rect x="19" y="48" width="2" height="2"></rect><rect x="23" y="48" width="2" height="2"></rect><rect x="27" y="48" width="2" height="2"></rect><rect x="31" y="48" width="2" height="2"></rect><rect x="35" y="48" width="2" height="2"></rect><rect x="39" y="48" width="2" height="2"></rect><rect x="43" y="48" width="2" height="2"></rect><rect x="47" y="48" width="2" height="2"></rect><rect x="51" y="48" width="2" height="2"></rect><rect x="18" y="52" width="4" height="2"></rect><rect x="42" y="52" width="4" height="2"></rect><path d="M36,16H28a3,3,0,0,0-3,3v2a3,3,0,0,0,3,3h8a3,3,0,0,0,3-3V19A3,3,0,0,0,36,16Zm1,5a1,1,0,0,1-1,1H28a1,1,0,0,1-1-1V19a1,1,0,0,1,1-1h8a1,1,0,0,1,1,1Z"></path><rect x="31" y="19" width="2" height="2"></rect><rect x="27" y="6" width="2" height="2"></rect><rect x="35" y="6" width="2" height="2"></rect></g></svg>