<svg xmlns="http://www.w3.org/2000/svg" viewBox="0 0 64 64" x="0px" y="0px"><g data-name="Candle Light"><path d="M62,48a1,1,0,0,0-1-1H56V36a1,1,0,0,0-1-1H52V32.858A4,4,0,0,0,55,29c0-1.941-2.712-5.062-3.256-5.668a1.031,1.031,0,0,0-1.488,0C49.712,23.938,47,27.059,47,29a4,4,0,0,0,3,3.858V35H47a1,1,0,0,0-1,1V47H41a1,1,0,0,0-1,1c0,3.166,4.28,5.685,9.925,5.971A7.006,7.006,0,0,1,43,60H40a7.008,7.008,0,0,1-7-7V10H43a1,1,0,0,0,1-1V3a1,1,0,0,0-1-1H21a1,1,0,0,0-1,1V9a1,1,0,0,0,1,1H31V53a7.008,7.008,0,0,1-7,7H21a7.006,7.006,0,0,1-6.925-6.029C19.72,53.685,24,51.166,24,48a1,1,0,0,0-1-1H18V36a1,1,0,0,0-1-1H14V32.858A4,4,0,0,0,17,29c0-1.941-2.712-5.062-3.256-5.668a1.031,1.031,0,0,0-1.488,0C11.712,23.938,9,27.059,9,29a4,4,0,0,0,3,3.858V35H9a1,1,0,0,0-1,1V47H3a1,1,0,0,0-1,1c0,3.19,4.346,5.721,10.055,5.975A9.012,9.012,0,0,0,21,62h3a9,9,0,0,0,8-4.9A9,9,0,0,0,40,62h3a9.012,9.012,0,0,0,8.945-8.025C57.654,53.721,62,51.19,62,48ZM49,29c0-.637.939-2.125,2-3.451,1.062,1.332,2,2.831,2,3.451a2,2,0,0,1-4,0ZM22,4H42V8H22ZM11,29c0-.637.939-2.125,2-3.451,1.062,1.332,2,2.831,2,3.451a2,2,0,0,1-4,0Zm-1,8h6V47H10ZM4.328,49H21.672c-1.014,1.565-4.3,3-8.672,3S5.342,50.565,4.328,49ZM48,37h6V47H48Zm3,15c-4.376,0-7.658-1.435-8.672-3H59.672C58.658,50.565,55.376,52,51,52Z"></path></g></svg>