<svg xmlns="http://www.w3.org/2000/svg" viewBox="0 0 64 64" x="0px" y="0px"><g data-name="Text Message-Communication-Smartphone-Hands-Working At Home"><path d="M44,50a2.971,2.971,0,0,1,2.13.89,2.811,2.811,0,0,1,.4.51,2.957,2.957,0,0,1,3.6.49,2.811,2.811,0,0,1,.4.51,2.916,2.916,0,0,1,3.47.39V26.85L32,8.31,10,26.96V59a1,1,0,0,0,1,1h4V49.33a11.067,11.067,0,0,1,2.2-6.6L21,37.67V29a5,5,0,0,1,5-5H38a5,5,0,0,1,5,5V50.18A3,3,0,0,1,44,50Z"></path><path d="M33.38,60l-1.71-2.96A3.068,3.068,0,0,1,31.31,56H27.15A5.959,5.959,0,0,1,28,59.07V60Z"></path><path d="M21,41l-2.2,2.93a9.077,9.077,0,0,0-1.8,5.4V60h9v-.93a4,4,0,0,0-1.17-2.83l-1.54-1.53a1.014,1.014,0,0,1-.16-1.21l3-5.2a.995.995,0,0,0-1.12-1.46,1.01,1.01,0,0,0-.61.46l-3,5.2-1.73-1L21,49.2Z"></path><path d="M36.83,54H37V48H28.25a3.007,3.007,0,0,1-.38,1.3l-2.62,4.53.08.09A3,3,0,0,0,26,54h5.7a2.954,2.954,0,0,1,2.56-1.47A2.994,2.994,0,0,1,36.83,54ZM33,52H31V50h2Z"></path><path d="M53,55a.928.928,0,0,0-.29-.69A.949.949,0,0,0,52,54a1,1,0,0,0-1,1v1H49V54a.928.928,0,0,0-.29-.69A.949.949,0,0,0,48,53a1,1,0,0,0-1,1v2H45V53a.928.928,0,0,0-.29-.69A.949.949,0,0,0,44,52a1,1,0,0,0-1,1v3H41V46a.928.928,0,0,0-.29-.69A.949.949,0,0,0,40,45a1,1,0,0,0-1,1V58a1,1,0,0,1-.74.97,1.022,1.022,0,0,1-1.13-.47l-1.99-3.45a1,1,0,0,0-1.37-.38.9.9,0,0,0-.45.59.93.93,0,0,0,.09.78L35.69,60H53Z"></path><path d="M38,26H26a3.01,3.01,0,0,0-2.82,2H40.82A3.01,3.01,0,0,0,38,26Z"></path><path d="M40,43a3.051,3.051,0,0,1,1,.18V30H23V45.84a2.921,2.921,0,0,1,1.49-.93,2.975,2.975,0,0,1,2.28.3,2.931,2.931,0,0,1,.89.79H37A3.009,3.009,0,0,1,40,43Zm-2-4H26V37H38ZM26,35V33h5v2Zm0,8V41H38v2Z"></path><path d="M60.05,27.11a.948.948,0,0,0-.35-.68L32.64,3.84A1,1,0,0,0,32,3.61a1.047,1.047,0,0,0-.64.23L4.38,26.48a1.094,1.094,0,0,0-.31,1.34,1.02,1.02,0,0,0,.7.48.977.977,0,0,0,.81-.22L31.35,6.24a.987.987,0,0,1,1.29,0L58.42,27.96a.988.988,0,0,0,1.4-.13A.913.913,0,0,0,60.05,27.11Z"></path></g></svg>