<svg xmlns="http://www.w3.org/2000/svg" viewBox="0 0 64 64" x="0px" y="0px"><g><path d="M31,27.667V26a2,2,0,0,0,2-2V20a2,2,0,0,0-2-2H7a2,2,0,0,0-2,2v4a2,2,0,0,0,2,2v1.667L4.607,30.861A2.945,2.945,0,0,0,4,32.67V59a3,3,0,0,0,3,3H31a3,3,0,0,0,3-3V32.67a2.933,2.933,0,0,0-.6-1.8ZM7,20h3v2h2V20h2v2h2V20h2v2h2V20h2v2h2V20h2v2h2V20h3v4H7ZM6.2,32.07,8.8,28.6A1,1,0,0,0,9,28V26H29v2a1,1,0,0,0,.2.6l2.608,3.479A.965.965,0,0,1,32,32.67V36H6V32.67A.967.967,0,0,1,6.2,32.07ZM32,38V52H6V38ZM31,60H7a1,1,0,0,1-1-1V54H32v5A1,1,0,0,1,31,60Z"></path><path d="M59.728,2.314A1,1,0,0,0,59,2H35a1,1,0,0,0-1,1.06l2.887,48.12A2.994,2.994,0,0,0,39,53.853V60a2,2,0,0,0,2,2H53a2,2,0,0,0,2-2V53.853a2.994,2.994,0,0,0,2.111-2.673L60,3.06A1,1,0,0,0,59.728,2.314ZM38,4V7h2V4h2V7h2V4h2V7h2V4h2V7h2V4h2V7h2V4h1.938L57.7,8H36.3l-.24-4Zm-.8,19H56.8l-.84,14H38.041Zm-.12-2-.659-11H57.578l-.659,11ZM53,60H41V54H53Zm1.116-8H39.884a1,1,0,0,1-1-.94L38.161,39H55.839l-.724,12.06A1,1,0,0,1,54.116,52Z"></path><rect x="46" y="55" width="2" height="4"></rect><rect x="50" y="55" width="2" height="4"></rect><rect x="42" y="55" width="2" height="4"></rect></g></svg>