<svg xmlns="http://www.w3.org/2000/svg" viewBox="0 0 64 64" x="0px" y="0px"><g data-name="Customer Service-Telephone-Help-Call Center-Shopping Cart"><path d="M7.96,21.546,18,31.586l2.379-2.379a1,1,0,0,0,0-1.414L11.389,18.8a1.02,1.02,0,0,0-.721-.3h-.041a.966.966,0,0,0-.7.339A24.766,24.766,0,0,0,7.96,21.546Z"></path><path d="M29.509,48.905a6.979,6.979,0,0,1-8.016,1.352,17.1,17.1,0,0,1-7.749-7.75A6.98,6.98,0,0,1,15.1,34.491L16.586,33,6.91,23.323A24.976,24.976,0,0,0,40.676,57.09L31,47.414Z"></path><path d="M45.155,54.075a.964.964,0,0,0,.339-.7,1.024,1.024,0,0,0-.3-.763l-8.99-8.99a1,1,0,0,0-1.414,0L32.414,46l10.04,10.04A24.786,24.786,0,0,0,45.155,54.075Z"></path><rect x="43" y="15" width="2" height="2"></rect><polygon points="49.37 19 47 19 47 21 49.12 21 49.37 19"></polygon><rect x="39" y="15" width="2" height="2"></rect><polygon points="49.87 15 47 15 47 17 49.62 17 49.87 15"></polygon><rect x="43" y="19" width="2" height="2"></rect><rect x="39" y="19" width="2" height="2"></rect><path d="M43,4A15.991,15.991,0,0,0,30.7,30.22a.991.991,0,0,1,.16.99l-1.15,3.08L33,33.06a.922.922,0,0,1,.36-.07.957.957,0,0,1,.56.18A16,16,0,1,0,43,4Zm9,24a1,1,0,0,0-1-1H49.82a3,3,0,1,1-5.64,0H41.82A3,3,0,1,1,37,25.78V12.41L35.59,11H33V9h3a1.033,1.033,0,0,1,.71.29l2,2A1.033,1.033,0,0,1,39,12v1H51a.981.981,0,0,1,.75.34.968.968,0,0,1,.24.78l-1,8A1,1,0,0,1,50,23H39v2H51a3.009,3.009,0,0,1,3,3Z"></path><circle cx="47" cy="28" r="1"></circle><circle cx="39" cy="28" r="1"></circle></g></svg>