<svg xmlns="http://www.w3.org/2000/svg" viewBox="0 0 64 64" x="0px" y="0px"><g data-name="Reading-Book-Eye Glasses-Time-Clock"><path d="M27,21v5.023A4.974,4.974,0,0,0,19.1,29H14.9A5,5,0,0,0,10,25a4.951,4.951,0,0,0-3,1.024V21H5v9a5,5,0,0,0,9.9,1h4.2A5,5,0,0,0,29,30V21ZM11,30a1,1,0,0,0-1-1V27a3.009,3.009,0,0,1,3,3Zm14,0a1,1,0,0,0-1-1V27a3.009,3.009,0,0,1,3,3Z"></path><path d="M46,35A13,13,0,1,0,33,22,13.012,13.012,0,0,0,46,35Zm0-24A11,11,0,1,1,35,22,11.013,11.013,0,0,1,46,11Z"></path><path d="M39,23H37.059a8.956,8.956,0,0,0,1.916,4.611l1.368-1.368,1.414,1.414-1.368,1.368A8.956,8.956,0,0,0,45,30.941V29h2v1.941a8.956,8.956,0,0,0,4.611-1.916l-1.368-1.368,1.414-1.414,1.368,1.368A8.956,8.956,0,0,0,54.941,23H53V21h1.941a8.956,8.956,0,0,0-1.916-4.611l-1.368,1.368-1.414-1.414,1.368-1.368A8.956,8.956,0,0,0,47,13.059V15H45V13.059a8.956,8.956,0,0,0-4.611,1.916l1.368,1.368-1.414,1.414-1.368-1.368A8.956,8.956,0,0,0,37.059,21H39Zm6-1.414V17h2v5a1,1,0,0,1-.293.707l-2,2-1.414-1.414Z"></path><path d="M55.13,46.12A3.005,3.005,0,0,0,53,41H7.97a4.84,4.84,0,0,1,.93,2H53v2H48v2h5A3.03,3.03,0,0,0,55.13,46.12Z"></path><path d="M57.95,39.04A7.026,7.026,0,0,0,53,37H52v2h1a5,5,0,0,1,0,10H52v2h1a7.007,7.007,0,0,0,4.95-11.96Z"></path><path d="M43.29,52.29a1.014,1.014,0,0,1,1.42,0L46,53.59V45H42v8.59Z"></path><rect x="48" y="49" width="2" height="2"></rect><rect x="4" y="37" width="46" height="2"></rect><path d="M40,45H8.9a4.84,4.84,0,0,1-.93,2H40Z"></path><rect x="4" y="49" width="36" height="2"></rect></g></svg>