<svg xmlns="http://www.w3.org/2000/svg" viewBox="0 0 64 64" x="0px" y="0px"><g data-name="Cloud-Cloud Computing-Contact-Phone-Data"><path d="M34,45h2a3,3,0,0,0-3-3v2A1,1,0,0,1,34,45Z"></path><path d="M33,38v2a5.006,5.006,0,0,1,5,5h2A7.008,7.008,0,0,0,33,38Z"></path><path d="M51.98,18.36A10.01,10.01,0,0,0,42,9a9.663,9.663,0,0,0-2.16.24A15,15,0,0,0,12,17a12.283,12.283,0,0,0,.07,1.34A13,13,0,0,0,15,44h1.14A16.515,16.515,0,0,0,16,46a16,16,0,0,0,32,0,16.515,16.515,0,0,0-.14-2H49a12.992,12.992,0,0,0,2.98-25.64ZM32,60A14,14,0,1,1,46,46,14.015,14.015,0,0,1,32,60ZM49,42H47.47a15.972,15.972,0,0,0-30.94,0H15a10.993,10.993,0,0,1-1.67-21.86,1,1,0,0,0,.66-.4,1.021,1.021,0,0,0,.18-.74A13.276,13.276,0,0,1,14,17a13,13,0,0,1,24.47-6.13.984.984,0,0,0,1.18.48A8.008,8.008,0,0,1,50,19.01c0,.03-.01.14-.01.17a1.007,1.007,0,0,0,.84.99A10.991,10.991,0,0,1,49,42Z"></path><path d="M38.84,50.42l-3.63-3.63a1.008,1.008,0,0,0-1.42,0l-1.78,1.79a.97.97,0,0,1-.96.27,3.041,3.041,0,0,1-1.9-1.9.97.97,0,0,1,.27-.96l1.79-1.78a1.008,1.008,0,0,0,0-1.42l-3.63-3.63a1.011,1.011,0,0,0-1.35-.06,9,9,0,0,0,4.58,15.82,9.356,9.356,0,0,0,1.18.08,8.972,8.972,0,0,0,6.91-3.23A1.011,1.011,0,0,0,38.84,50.42ZM26.85,41.26l2.24,2.24-1.08,1.08c-.01,0-.01,0-.01.01l-2.07-2.07A7.528,7.528,0,0,1,26.85,41.26Zm4.21,11.68a7.043,7.043,0,0,1-6-6,7.212,7.212,0,0,1,.09-2.37l1.98,1.97a2.688,2.688,0,0,0,.13,1.05,4.98,4.98,0,0,0,3.16,3.15,2.616,2.616,0,0,0,1.04.13l1.97,1.98A7.212,7.212,0,0,1,31.06,52.94Zm4.42-.87L33.41,50c.01,0,.01,0,.01-.01l1.08-1.08,2.23,2.24A7.066,7.066,0,0,1,35.48,52.07Z"></path><path d="M17,17h2a8.009,8.009,0,0,1,8-8V7A10.011,10.011,0,0,0,17,17Z"></path><path d="M55,31a6.006,6.006,0,0,1-6,6v2a8.009,8.009,0,0,0,8-8Z"></path></g></svg>