<svg xmlns="http://www.w3.org/2000/svg" viewBox="0 0 64 64" x="0px" y="0px"><g><path d="M49.55,36.03l-1.72-2.58A1,1,0,0,0,47,33H43V31h4a1,1,0,0,0,.83-.45l1.72-2.58A12.991,12.991,0,1,0,36,15H28A13,13,0,1,0,14.45,27.97l1.72,2.58A1,1,0,0,0,17,31h4v2H17a1,1,0,0,0-.83.45l-1.72,2.58A12.991,12.991,0,1,0,28,49h8A13,13,0,1,0,49.55,36.03ZM46.46,35l.76,1.13A12.774,12.774,0,0,0,43,37.47V35Zm0-6H43V26.53a12.774,12.774,0,0,0,4.22,1.34ZM49,4a11,11,0,0,1,0,22,10.857,10.857,0,0,1-6-1.79V20a5,5,0,0,0-5-5A11.007,11.007,0,0,1,49,4ZM15,26A11,11,0,1,1,26,15a5.008,5.008,0,0,0-4.24,2.38A.961.961,0,0,0,21,17V15a1,1,0,0,0,1-1V11a4,4,0,0,0-4-4H12a4,4,0,0,0-4,4v3a1,1,0,0,0,1,1v2a1,1,0,0,0-1,1v3a2.006,2.006,0,0,0,2,2H20a2,2,0,0,0,1-.28v1.49A10.857,10.857,0,0,1,15,26Zm5-7v2H10V19Zm-9-2V15h8v2Zm-1-4V11a2.006,2.006,0,0,1,2-2v2h2V9h2v2h2V9a2.006,2.006,0,0,1,2,2v2Zm7.54,16-.76-1.13A12.774,12.774,0,0,0,21,26.53V29Zm0,6H21v2.47a12.774,12.774,0,0,0-4.22-1.34ZM15,60a11,11,0,0,1,0-22,10.857,10.857,0,0,1,6,1.79v3.94A7.984,7.984,0,1,0,23,49a7.766,7.766,0,0,0-.08-1.09A4.956,4.956,0,0,0,26,49,11.007,11.007,0,0,1,15,60Zm6-11a6,6,0,1,1-6-6A6,6,0,0,1,21,49Zm5-2a3.009,3.009,0,0,1-3-3V35h6V33H23V31h6V29H23V20a3.009,3.009,0,0,1,3-3H38a3.009,3.009,0,0,1,3,3v9H35v2h6v2H35v2h6v9a3.009,3.009,0,0,1-3,3ZM49,60A11.007,11.007,0,0,1,38,49a5,5,0,0,0,5-5V39.79A10.857,10.857,0,0,1,49,38a11,11,0,0,1,0,22Z"></path><path d="M48.293,21.188a1,1,0,0,0,1.414,0l5.02-5.021a4,4,0,0,0,0-5.653A4.027,4.027,0,0,0,51.9,9.34a3.971,3.971,0,0,0-2.827,1.173L49,10.586l-.073-.073A3.971,3.971,0,0,0,46.1,9.34a4.026,4.026,0,0,0-2.827,1.173,4,4,0,0,0,0,5.654Zm-3.6-9.262A2.012,2.012,0,0,1,46.1,11.34a1.986,1.986,0,0,1,1.413.587l.78.78a1,1,0,0,0,1.414,0l.78-.78a2.052,2.052,0,0,1,2.825,0,2,2,0,0,1,0,2.826L49,19.066l-4.313-4.313a2,2,0,0,1,0-2.827Z"></path><path d="M49,42a7,7,0,1,0,7,7A7.009,7.009,0,0,0,49,42Zm3.1,8h1.8a4.953,4.953,0,0,1-.909,1.981A4.866,4.866,0,0,1,52.1,50Zm0-2a4.866,4.866,0,0,1,.886-1.981A4.953,4.953,0,0,1,53.9,48ZM51.5,44.693A6.993,6.993,0,0,0,50.081,48H47.919a6.993,6.993,0,0,0-1.414-3.307,4.838,4.838,0,0,1,4.99,0ZM45.01,51.981A4.953,4.953,0,0,1,44.1,50h1.8A4.866,4.866,0,0,1,45.01,51.981ZM44.1,48a4.953,4.953,0,0,1,.909-1.981A4.866,4.866,0,0,1,45.9,48Zm2.4,5.307A6.993,6.993,0,0,0,47.919,50h2.162A6.993,6.993,0,0,0,51.5,53.307a4.838,4.838,0,0,1-4.99,0Z"></path><path d="M18.307,47.336l-3.2-2.132A2,2,0,0,0,12,46.868v4.264A2,2,0,0,0,15.109,52.8l3.2-2.132a2,2,0,0,0,0-3.328ZM14,51.138v-4.27L17.2,49Z"></path><rect x="29" y="19" width="6" height="2"></rect><rect x="31" y="43" width="2" height="2"></rect></g></svg>