<svg xmlns="http://www.w3.org/2000/svg" viewBox="0 0 64 64" x="0px" y="0px"><g><rect x="37.632" y="23.768" width="1" height="6.001" transform="translate(-7.759 34.804) rotate(-45)"></rect><polygon points="15 36 15 16.414 4.414 27 13.414 36 15 36"></polygon><rect x="27.733" y="13.868" width="1" height="6.001" transform="translate(-3.659 24.904) rotate(-45)"></rect><path d="M4,59a1,1,0,0,0,1,1H59a1,1,0,0,0,1-1V29.414l-8.293,8.293A1,1,0,0,1,51,38H13a1,1,0,0,1-.707-.293L4,29.414Z"></path><polygon points="49 16.414 49 36 50.586 36 59.586 27 49 16.414"></polygon><path d="M17,36H47V7a3,3,0,0,0-3-3H39V5a3,3,0,0,1-3,3H28a3,3,0,0,1-3-3V4H20a3,3,0,0,0-3,3Zm6.757-20.9a1.982,1.982,0,0,1,.587-1.415l1.413-1.414a1.029,1.029,0,0,1,1.414,0l5.657,5.657a1,1,0,0,1,0,1.414l-1.414,1.414a2,2,0,0,1-2.828,0,1,1,0,0,0,0,1.415l4.242,4.242a1,1,0,0,0,1.415,0,2,2,0,0,1,0-2.828l1.414-1.414a1,1,0,0,1,1.414,0l5.657,5.657a1,1,0,0,1,0,1.414l-1.415,1.414a2,2,0,0,1-2.828,0,6.005,6.005,0,0,1-8.485,0L24.343,25a6.007,6.007,0,0,1,0-8.485A1.986,1.986,0,0,1,23.757,15.1Z"></path><path d="M31.414,29.243a4.006,4.006,0,0,0,5.657,0l-1.414-1.415a3,3,0,0,1-4.243,0l-4.242-4.242a3,3,0,0,1,0-4.243l-1.415-1.414a4.006,4.006,0,0,0,0,5.657Z"></path><path d="M28,6h8a1,1,0,0,0,1-1V4H27V5A1,1,0,0,0,28,6Z"></path></g></svg>