<svg xmlns="http://www.w3.org/2000/svg" viewBox="0 0 64 64" x="0px" y="0px"><g><path d="M49,26H45V14a1.022,1.022,0,0,0-.06-.342l-4-11a1,1,0,0,0-1.88,0l-4,11A1.022,1.022,0,0,0,35,14V26H33V21a1,1,0,0,0-1-1h-.719l1.689-6.757a1,1,0,0,0-.075-.69l-5-10A1,1,0,0,0,27,2H25a1,1,0,0,0-.895.553l-5,10a1,1,0,0,0-.075.69L20.719,20H20a1,1,0,0,0-1,1v5H15a1,1,0,0,0-1,1v6a1,1,0,0,0,1,1h1V59a3,3,0,0,0,3,3H45a3,3,0,0,0,3-3V34h1a1,1,0,0,0,1-1V27A1,1,0,0,0,49,26ZM42.936,14H37.064l1.455-4h2.962ZM40.754,8H39.246L40,5.926ZM37,16h6V26H37ZM27,13a1,1,0,1,1-1-1A1,1,0,0,1,27,13Zm-5.94.116L25,5.236v4.948a3,3,0,1,0,2,0V5.236l3.94,7.88L29.219,20H22.781ZM21,22H31v4H21ZM46,59a1,1,0,0,1-1,1H19a1,1,0,0,1-1-1V34H46Zm2-27H16V28H48Z"></path></g></svg>