<svg xmlns="http://www.w3.org/2000/svg" viewBox="0 0 64 64" x="0px" y="0px"><g data-name="Bull Arab-Dog"><path d="M61,32H59a1,1,0,0,0-.9.553L55.382,38h-1.9L50,33.65V33a1,1,0,0,0-.375-.781l-5-4A1,1,0,0,0,44,28H30V17l1.2,1.6a1,1,0,0,0,.8.4h3a1,1,0,0,0,1-1V16a1,1,0,0,0-.143-.515l-2.9-4.826-.971-6.8A1,1,0,0,0,31,3H30a1,1,0,0,0-1-1H7A1,1,0,0,0,6,3V4.382L2.553,6.105A1,1,0,0,0,2.02,7.2l.947,4.74-.916,2.748A1,1,0,0,0,2,15v2a1,1,0,0,0,1,1H5a1,1,0,0,0,.895-.553L6,17.236V29a1,1,0,0,0,1,1h3V61a1,1,0,0,0,1,1h4a1,1,0,0,0,.99-.858L17.867,48h2.2L21,61.071A1,1,0,0,0,22,62h4a1,1,0,0,0,1-.929L27.931,48H32.18l1.84,9.2A1,1,0,0,0,35,58h4a1,1,0,0,0,1-1V48h2.153l1.861,11.165A1,1,0,0,0,45,60h4a1,1,0,0,0,1-1V43.868l1.445.964A1.006,1.006,0,0,0,52,45h4a1,1,0,0,0,.515-.143l5-3A1,1,0,0,0,62,41V33A1,1,0,0,0,61,32ZM8,23.414l5-5,2.293,2.293A1,1,0,0,0,16,21v2.382L12.764,25H8ZM17.586,19H16.414l-2-2,2-2h2.051l1.248,1.873ZM18,21a1,1,0,0,0,.707-.293l2.138-2.137L24,23.3V25H20.3L18,23.465Zm7.832,1.445-6-9A1,1,0,0,0,19,13H16a1,1,0,0,0-.707.293L8,20.586V16h3a1,1,0,0,0,.707-.293l3-3A1,1,0,0,0,15,12V6.414l.707-.707A1,1,0,0,0,16,5V4h1V9a1,1,0,0,0,.293.707l6,6A1,1,0,0,0,24,16h4V28H26V23A1.006,1.006,0,0,0,25.832,22.445ZM30.133,5l.877,6.142a1.006,1.006,0,0,0,.133.373L34,16.277V17H32.5L30,13.664V5ZM28,14H24.414L19,8.586V4h9ZM14,4v.586l-.707.707A1,1,0,0,0,13,6v5.586L10.586,14H8V4ZM4.382,16H4v-.838l.949-2.846A.989.989,0,0,0,4.98,11.8L4.13,7.553,6,6.618v6.146ZM8,27h5a1,1,0,0,0,.447-.105l3.481-1.741,2.517,1.678A1.006,1.006,0,0,0,20,27h4v1H8ZM38,56H35.82l-1.6-8H38Zm10,2H45.847L43.986,46.835A1,1,0,0,0,43,46H27a1,1,0,0,0-1,.929L25.069,60H22.931L22,46.929A1,1,0,0,0,21,46H17a1,1,0,0,0-.99.858L14.133,60H12V30H43.649L48,33.48ZM60,40.434,55.723,43H52.3L50,41.465V36.85l2.219,2.775A1,1,0,0,0,53,40h3a1,1,0,0,0,.9-.553L59.618,34H60Z"></path><rect x="10" y="10" width="2" height="2"></rect><rect x="23" y="10" width="2" height="2"></rect><rect x="17" y="32" width="2" height="2"></rect><rect x="22" y="35" width="2" height="2"></rect><rect x="15" y="37" width="2" height="2"></rect><rect x="18" y="40" width="2" height="2"></rect><rect x="25" y="41" width="2" height="2"></rect><rect x="25" y="32" width="2" height="2"></rect><rect x="30" y="34" width="2" height="2"></rect><rect x="31" y="38" width="2" height="2"></rect><rect x="36" y="38" width="2" height="2"></rect><rect x="40" y="36" width="2" height="2"></rect><rect x="42" y="33" width="2" height="2"></rect><rect x="36" y="33" width="2" height="2"></rect><rect x="14" y="42" width="2" height="2"></rect></g></svg>