<svg xmlns="http://www.w3.org/2000/svg" data-name="World-Internet of Things-Smartphone-Networking-Communications" viewBox="0 0 64 64" x="0px" y="0px"><path d="M51.29,39.71A1.033,1.033,0,0,1,51,39V34.41l-3.71-3.7A1.033,1.033,0,0,1,47,30V26a1.033,1.033,0,0,1,.29-.71L49,23.59V18.41L44.59,14H40a1.033,1.033,0,0,1-.71-.29l-4-4A1.033,1.033,0,0,1,35,9V4.09a22.8,22.8,0,0,0-5.37,1.13l2.08,2.07A1.033,1.033,0,0,1,32,8v4a1.033,1.033,0,0,1-.29.71L28,16.41V20a1.033,1.033,0,0,1-.29.71l-4,4A1.033,1.033,0,0,1,23,25H21v1a5,5,0,0,1,5,5V47.17a22.6,22.6,0,0,0,9,2.73V47.41l-1.71-1.7A1.033,1.033,0,0,1,33,45V42H30a1.033,1.033,0,0,1-.71-.29l-2-2A1.033,1.033,0,0,1,27,39V36a1.033,1.033,0,0,1,.29-.71l4-4A1.033,1.033,0,0,1,32,31h8a1.033,1.033,0,0,1,.71.29l5,5A1.033,1.033,0,0,1,46,37v4a1.033,1.033,0,0,1-.29.71L44,43.41V47a1.033,1.033,0,0,1-.29.71l-1.75,1.75a23.056,23.056,0,0,0,12.07-7.02ZM44,24a1,1,0,0,1-.293.707l-2,2A1,1,0,0,1,41,27H39a1,1,0,0,1-1-1V22.414l-1.707-1.707A1,1,0,0,1,36,20V18a1,1,0,0,1,1-1h6a1,1,0,0,1,1,1Z"></path><path d="M38,19.586l1.707,1.707A1,1,0,0,1,40,22v3h.586L42,23.586V19H38Z"></path><path d="M39.02,49.91a1.029,1.029,0,0,1,.27-.62L42,46.59V43a1.033,1.033,0,0,1,.29-.71L44,40.59V37.41L39.59,33H32.41L29,36.41v2.18L30.41,40H34a1,1,0,0,1,1,1v3.59l1.71,1.7A1.033,1.033,0,0,1,37,47v3C37.68,50,38.35,49.96,39.02,49.91Z"></path><path d="M24,54H4v3a3.009,3.009,0,0,0,3,3H21a3.009,3.009,0,0,0,3-3Zm-9,4H13V56h2Z"></path><path d="M19,26V24a1,1,0,0,1,1-1h2.59L26,19.59V16a1.033,1.033,0,0,1,.29-.71L30,11.59V8.41L27.6,6.02A23.011,23.011,0,0,0,14.03,26Z"></path><path d="M24,31a3.009,3.009,0,0,0-3-3H7a3.009,3.009,0,0,0-3,3v1H24Z"></path><path d="M60,27A23.029,23.029,0,0,0,37,4V8.59L40.41,12H45a1.033,1.033,0,0,1,.71.29l5,5A1.033,1.033,0,0,1,51,18v6a1.033,1.033,0,0,1-.29.71L49,26.41v3.18l3.71,3.7A1.033,1.033,0,0,1,53,34v4.59l2.31,2.31A22.894,22.894,0,0,0,60,27Z"></path><path d="M24,34H4V52H24ZM14,48l-1.414-1.414a2,2,0,0,1,2.828,0Zm2.121-3.121a3.072,3.072,0,0,0-4.242,0l-1.414-1.414a5,5,0,0,1,7.07,0ZM18.95,42.05a7.009,7.009,0,0,0-9.9,0L7.636,40.636a9.012,9.012,0,0,1,12.728,0Z"></path></svg>