<svg xmlns="http://www.w3.org/2000/svg" viewBox="0 0 64 64" x="0px" y="0px"><g data-name="Files"><path d="M57,2H7A3,3,0,0,0,4,5V59a3,3,0,0,0,3,3H57a3,3,0,0,0,3-3V5A3,3,0,0,0,57,2ZM36,4h4v6L38.8,8.4a1.036,1.036,0,0,0-1.6,0L36,10Zm8,56H7a1,1,0,0,1-1-1V5A1,1,0,0,1,7,4h3v8a4,4,0,0,0,8,0V7H16v5a2,2,0,0,1-4,0V4H34v9a1,1,0,0,0,1.8.6L38,10.667,40.2,13.6a1,1,0,0,0,.8.4,1.019,1.019,0,0,0,.316-.051A1,1,0,0,0,42,13V4h3a1,1,0,0,1,1,1V59a1,1,0,0,1-1,1Zm3.816,0A2.966,2.966,0,0,0,48,59V5a2.966,2.966,0,0,0-.184-1H51a1,1,0,0,1,1,1V59a1,1,0,0,1-1,1ZM58,59a1,1,0,0,1-1,1H53.816A2.966,2.966,0,0,0,54,59V5a2.966,2.966,0,0,0-.184-1H57a1,1,0,0,1,1,1Z"></path><rect x="10" y="24" width="18" height="2"></rect><rect x="10" y="20" width="4" height="2"></rect><rect x="16" y="20" width="12" height="2"></rect><rect x="10" y="28" width="14" height="2"></rect><rect x="26" y="28" width="16" height="2"></rect><rect x="10" y="32" width="20" height="2"></rect><rect x="32" y="32" width="10" height="2"></rect><rect x="10" y="36" width="32" height="2"></rect><rect x="10" y="40" width="14" height="2"></rect><rect x="26" y="40" width="6" height="2"></rect><rect x="34" y="40" width="8" height="2"></rect><rect x="34" y="46" width="8" height="2"></rect><rect x="30" y="20" width="2" height="2"></rect><rect x="34" y="20" width="8" height="2"></rect><rect x="30" y="24" width="8" height="2"></rect><rect x="40" y="24" width="2" height="2"></rect><rect x="22" y="10" width="8" height="2"></rect><rect x="22" y="14" width="8" height="2"></rect></g></svg>