<svg xmlns="http://www.w3.org/2000/svg" viewBox="0 0 64 64" x="0px" y="0px"><g><path d="M45.26,6.55,44.25,8.3A19.559,19.559,0,0,0,33.81,4.08C33.17,4.03,32.56,4,32,4A20,20,0,0,0,19.72,8.23L18.71,6.49A21.938,21.938,0,0,1,32,2c.61,0,1.28.03,1.98.08A21.4,21.4,0,0,1,45.26,6.55Z"></path><polygon points="37.523 27 36.477 27 37 28.308 37.523 27"></polygon><polygon points="27.523 27 26.477 27 27 28.308 27.523 27"></polygon><circle cx="26" cy="19" r="2"></circle><circle cx="38" cy="19" r="2"></circle><path d="M39.677,27l-1.748,4.371a1,1,0,0,1-1.858,0L34.323,27H29.677l-1.748,4.371a1,1,0,0,1-1.858,0L24.323,27H22.05a10,10,0,0,0,19.9,0Z"></path><path d="M57,29H51a2,2,0,0,1-2-2V24.41A17.327,17.327,0,0,0,33.551,7.066,17.008,17.008,0,0,0,15,24v3a2,2,0,0,1-2,2H7a3,3,0,0,0-3,3v4.83A2.119,2.119,0,0,0,5.892,39,2,2,0,0,0,8,37V35a2,2,0,0,1,2-2h2a3,3,0,0,1,3,3V59a1,1,0,0,0,1,1h4.341l2.74-6.394a1,1,0,0,1,1.838,0L27.659,60h8.682l2.74-6.394a1,1,0,0,1,1.838,0L43.659,60H48a1,1,0,0,0,1-1V36a3,3,0,0,1,3-3h2a2,2,0,0,1,2,2v1.83A2.119,2.119,0,0,0,57.892,39,2,2,0,0,0,60,37V32A3,3,0,0,0,57,29ZM38,15a4,4,0,1,1-4,4A4,4,0,0,1,38,15ZM26,15a4,4,0,1,1-4,4A4,4,0,0,1,26,15ZM24.105,48.447,22.88,46l-1.453.623.468.934-1.79.894-.519-1.039-1.192.511-.788-1.838,1.084-.464-.585-1.17,1.79-.894.637,1.274,1.452-.622-.879-1.758,1.79-.894.931,1.863.78-.335.788,1.838-.672.288L25.9,47.553ZM32,38A12.013,12.013,0,0,1,20,26a1,1,0,0,1,1-1H43a1,1,0,0,1,1,1A12.013,12.013,0,0,1,32,38Zm15,5H45v2H43V43H42v1H40V43H39V41h1V40h2v1h1V40h2v1h2Z"></path><path d="M15.175,4.377a6,6,0,0,0,.647,9.709A18.961,18.961,0,0,1,18.7,10.469Z"></path><path d="M48.825,4.377l-3.571,6.185a19.716,19.716,0,0,1,2.837,3.574A5.868,5.868,0,0,0,50.191,12a5.989,5.989,0,0,0-1.366-7.626Z"></path></g></svg>