<svg xmlns="http://www.w3.org/2000/svg" viewBox="0 0 64 64" x="0px" y="0px"><g><rect x="40" y="25" width="11" height="1"></rect><rect x="42" y="19" width="11" height="1"></rect><rect x="42" y="16" width="11" height="1"></rect><rect x="40" y="28" width="11" height="1"></rect><path d="M4,47a1,1,0,0,0,1,1H59a1,1,0,0,0,1-1V42H4Zm48-3h4v2H52Z"></path><polygon points="42 58 22 58 22 60 16 60 16 62 48 62 48 60 42 60 42 58"></polygon><rect x="40" y="31" width="11" height="1"></rect><polygon points="24.883 50 24.133 56 39.867 56 39.117 50 24.883 50"></polygon><rect x="42" y="22" width="11" height="1"></rect><rect x="13" y="22" width="11" height="1"></rect><rect x="11" y="28" width="11" height="1"></rect><rect x="11" y="31" width="11" height="1"></rect><rect x="11" y="25" width="11" height="1"></rect><path d="M37,23h3V16H26v7h1v2H24v7H38V25H37Zm-2-1H33V21H31v2h2a2,2,0,0,1,2,2v2a2,2,0,0,1-2,2v1H31V29a2,2,0,0,1-2-2V26h2v1h2V25H31a2,2,0,0,1-2-2V21a2,2,0,0,1,2-2V18h2v1a2,2,0,0,1,2,2Z"></path><rect x="13" y="19" width="11" height="1"></rect><rect x="13" y="16" width="11" height="1"></rect><path d="M5,8A1,1,0,0,0,4,9V40H60V9a1,1,0,0,0-1-1ZM55,24a1,1,0,0,1-1,1H53v8a1,1,0,0,1-1,1H10a1,1,0,0,1-1-1V24a1,1,0,0,1,1-1h1V15a1,1,0,0,1,1-1H54a1,1,0,0,1,1,1Z"></path></g></svg>