<svg xmlns="http://www.w3.org/2000/svg" viewBox="0 0 64 64" x="0px" y="0px"><g data-name="Startup"><path d="M18,44V42a1,1,0,0,1,0-2,.974.974,0,0,1,.506.138,1,1,0,0,0,1.508-.971A1.253,1.253,0,0,1,20,39a1,1,0,0,1,2,0h2a3,3,0,0,0-5.831-.995A3,3,0,1,0,18,44Z"></path><path d="M46,42v2a3,3,0,1,0-.17-5.995A3,3,0,0,0,40,39h2a1,1,0,0,1,2,0,1.516,1.516,0,0,1-.014.172,1,1,0,0,0,1.508.966A.976.976,0,0,1,46,40a1,1,0,0,1,0,2Z"></path><path d="M23.443,25H27a1,1,0,0,0,.895-.553l.52-1.04.636,1.909A1,1,0,0,0,30,26h4a1,1,0,0,0,.948-.684l.637-1.91.52,1.041A1,1,0,0,0,37,25h3.557a2,2,0,0,0,1.873-2.7l-2.007-5.35A3.011,3.011,0,0,0,38,15.03V9.185a4.937,4.937,0,0,0-.861-2.806C34.143,2,32.53,2,32,2s-2.144,0-5.139,4.378A4.949,4.949,0,0,0,26,9.185V15.03a3.012,3.012,0,0,0-2.423,1.917L21.57,22.3A2,2,0,0,0,23.443,25Zm7.278-1-.334-1h3.226l-.334,1Zm7.829-6.351L40.557,23H37.618l-.087-.174A.982.982,0,0,0,38,22V17.089A.993.993,0,0,1,38.55,17.649ZM28,9.185a2.959,2.959,0,0,1,.511-1.677C30.41,4.733,31.624,4,32,4s1.59.733,3.489,3.509A2.951,2.951,0,0,1,36,9.185V21H33V15H31v6H28Zm-2.551,8.464a1,1,0,0,1,.551-.56V22a.982.982,0,0,0,.469.826L26.382,23H23.443Z"></path><path d="M32,12a3,3,0,1,0-3-3A3,3,0,0,0,32,12Zm0-4a1,1,0,1,1-1,1A1,1,0,0,1,32,8Z"></path><path d="M57.46,60A5.99,5.99,0,0,0,53,50c-.113,0-.227,0-.339.01a6.008,6.008,0,0,0-8.182-3.458A6,6,0,0,0,33,49h2a4,4,0,0,1,7.927-.748,1,1,0,0,0,1.6.6,4,4,0,0,1,6.406,2.438,1,1,0,0,0,1.209.8A3.826,3.826,0,0,1,53,52a4,4,0,0,1,0,8H48a4,4,0,0,1-4-4H42a5.969,5.969,0,0,0,1.54,4H20.46A5.969,5.969,0,0,0,22,56H20a4,4,0,0,1-4,4H11a4,4,0,0,1,0-8,3.848,3.848,0,0,1,.857.095,1,1,0,0,0,1.208-.8,4,4,0,0,1,6.406-2.438,1,1,0,0,0,1.6-.6A4,4,0,0,1,29,49h2a6,6,0,0,0-11.479-2.448,6.009,6.009,0,0,0-8.183,3.458C11.226,50,11.113,50,11,50A5.99,5.99,0,0,0,6.54,60H2v2H62V60Z"></path><rect x="31" y="33" width="2" height="2"></rect><path d="M31.485,41.857a1,1,0,0,0,1.03,0C32.738,41.723,38,38.514,38,34a6,6,0,0,0-12,0C26,38.514,31.262,41.723,31.485,41.857ZM32,30a4,4,0,0,1,4,4c0,2.681-2.815,4.958-4,5.8-1.185-.84-4-3.117-4-5.8A4,4,0,0,1,32,30Z"></path><path d="M40,27H38a7.008,7.008,0,0,0,7,7V32A5.006,5.006,0,0,1,40,27Z"></path><path d="M19,32v2a7.008,7.008,0,0,0,7-7H24A5.006,5.006,0,0,1,19,32Z"></path><path d="M31,55H29a3,3,0,0,1-3,3v2A5.006,5.006,0,0,0,31,55Z"></path><rect x="29" y="51" width="2" height="2"></rect><path d="M35,55V53H33v2a5.006,5.006,0,0,0,5,5V58A3,3,0,0,1,35,55Z"></path><rect x="42" y="52" width="2" height="2"></rect><rect x="20" y="52" width="2" height="2"></rect><rect x="47" y="32" width="2" height="2"></rect><rect x="15" y="32" width="2" height="2"></rect><rect x="45" y="9" width="2" height="6"></rect><rect x="45" y="17" width="2" height="2"></rect><rect x="51" y="13" width="2" height="6"></rect><rect x="51" y="21" width="2" height="2"></rect><rect x="17" y="9" width="2" height="6"></rect><rect x="17" y="17" width="2" height="2"></rect><rect x="11" y="13" width="2" height="6"></rect><rect x="11" y="21" width="2" height="2"></rect></g></svg>