<svg xmlns="http://www.w3.org/2000/svg" viewBox="0 0 64 64" x="0px" y="0px"><g><path d="M18.79,13.75A4.089,4.089,0,0,1,19,15v1H17V15a2,2,0,0,0-4,0v1H11V15a4.089,4.089,0,0,1,.21-1.25A10.018,10.018,0,0,0,5,23v5a5,5,0,0,0,5,5H20a5,5,0,0,0,5-5V23A10.018,10.018,0,0,0,18.79,13.75ZM11,25H9V23h2Zm4-2a3,3,0,0,1,1,5.82V30H14V28.82A3.01,3.01,0,0,1,12,26h2a1,1,0,1,0,1-1,3,3,0,0,1-1-5.82V18h2v1.18A3.01,3.01,0,0,1,18,22H16a1,1,0,1,0-1,1Zm6,2H19V23h2Z"></path><rect x="45" y="30" width="1" height="2"></rect><path d="M12.747,5.658C12.5,5.381,12.171,5,12,5a1.924,1.924,0,0,0-1,.368,6.715,6.715,0,0,1-.661.345L12.317,11h5.366l1.982-5.287A6.715,6.715,0,0,1,19,5.368,1.924,1.924,0,0,0,18,5c-.171,0-.5.381-.747.658A3.056,3.056,0,0,1,15,7,3.056,3.056,0,0,1,12.747,5.658Z"></path><polygon points="41.582 7 40 5.42 40 7 41.582 7"></polygon><path d="M40,9a2.006,2.006,0,0,1-2-2V4H21a1.005,1.005,0,0,1,.94,1.35L20,10.52V11h1v1.62A12.006,12.006,0,0,1,27,23v5a7.008,7.008,0,0,1-7,7v1H43V9ZM25,7h4V9H25Zm0,6V11h8v2ZM39,31H29V29H39Zm0-4H29V25H39Zm0-4H29V21H39Zm0-4H28V17H39Z"></path><path d="M53,46H11V60H53Zm-8,2h2v2H45Zm-4,0h2v2H41Zm0,4h2v2H41Zm-4-4h2v2H37Zm0,4h2v2H37Zm-4-4h2v2H33Zm0,4h2v2H33Zm-4-4h2v2H29Zm0,4h2v2H29Zm-4-4h2v2H25Zm0,4h2v2H25Zm-4-4h2v2H21Zm0,4h2v2H21Zm-4-4h2v2H17Zm0,4h2v2H17Zm-2,6H13V56h2Zm0-4H13V52h2Zm0-4H13V48h2Zm30,8H17V56H45Zm0-6h2v2H45Zm6,6H47V56h4Zm0-4H49V52h2Zm0-4H49V48h2Z"></path><path d="M33,44H31V43a3,3,0,0,1,3-3H55a4,4,0,0,0,0-8H48V30h7a6,6,0,0,1,0,12H34a1,1,0,0,0-1,1Z"></path></g></svg>