<svg xmlns="http://www.w3.org/2000/svg" viewBox="0 0 64 64" x="0px" y="0px"><g><path d="M5,60H59a1,1,0,0,0,1-1V28H33v2h3v2H33v2h3v2H33v2h3v2H33v2h3v2H33v2h1.219a2,2,0,0,1,1.94,1.515l1.5,6A2,2,0,0,1,35.719,56H28.281a2,2,0,0,1-1.941-2.485l1.5-6A2,2,0,0,1,29.781,46H31V44H28V42h3V40H28V38h3V36H28V34h3V32H28V30h3V27.414L18.586,15H4V59A1,1,0,0,0,5,60Z"></path><path d="M4,13H19a1,1,0,0,1,.707.293L32.414,26H60V18a1,1,0,0,0-1-1H32a1,1,0,0,1-.707-.293L18.586,4H5A1,1,0,0,0,4,5Z"></path><path d="M28.281,54h7.441l-1.5-6H29.781ZM30,50h4v2H30Z"></path></g></svg>