<svg xmlns="http://www.w3.org/2000/svg" viewBox="0 0 64 64" x="0px" y="0px"><g><polygon points="35.613 53 28.387 53 28.721 54 35.279 54 35.613 53"></polygon><polygon points="44 19 44 23 60 23 60 19 59 19 59 21 57 21 57 19 55 19 55 21 53 21 53 19 51 19 51 21 49 21 49 19 47 19 47 21 45 21 45 19 44 19"></polygon><path d="M44,43a2,2,0,0,1-1-.28A2,2,0,0,1,42,43H26a2.006,2.006,0,0,1-2-2V37a2,2,0,0,1,.28-1A2,2,0,0,1,24,35V31a2.006,2.006,0,0,1,2-2h2.03A9.989,9.989,0,0,1,24,21a9.845,9.845,0,0,1,2.03-6H10a3.009,3.009,0,0,0-3,3V51H57V43ZM18.42,17.24l3.94.69-.35,1.97-3.94-.69ZM11,25a1,1,0,0,1,1-1h4a1,1,0,0,1,1,1v1h2a1.033,1.033,0,0,1,.71.29l3,3-1.42,1.42L18.59,28H17v1a1,1,0,0,1-1,1H12a1,1,0,0,1-1-1Zm3,12a2.98,2.98,0,0,1,1.29.3l2-2.01A1.033,1.033,0,0,1,18,35h4v2H18.41L16.7,38.71A2.995,2.995,0,1,1,14,37ZM55,49H9V47H55Z"></path><polygon points="44 29 60 29 60 25 59 25 59 27 57 27 57 25 55 25 55 27 53 27 53 25 51 25 51 27 49 27 49 25 47 25 47 27 45 27 45 25 44 25 44 29"></polygon><rect x="13" y="26" width="2" height="2"></rect><circle cx="14" cy="40" r="1"></circle><path d="M27.051,55.316,26.279,53H4v3a1,1,0,0,0,1,1H59a1,1,0,0,0,1-1V53H37.72l-.772,2.316A1,1,0,0,1,36,56H28A1,1,0,0,1,27.051,55.316Z"></path><polygon points="42 31 41 31 41 33 39 33 39 31 37 31 37 33 35 33 35 31 33 31 33 33 31 33 31 31 29 31 29 33 27 33 27 31 26 31 26 35 42 35 42 31"></polygon><path d="M42,26.974A10.077,10.077,0,0,1,39.974,29H42Z"></path><polygon points="44 35 60 35 60 31 59 31 59 33 57 33 57 31 55 31 55 33 53 33 53 31 51 31 51 33 49 33 49 31 47 31 47 33 45 33 45 31 44 31 44 35"></polygon><path d="M39.28,15A7.993,7.993,0,1,0,42,21,7.98,7.98,0,0,0,39.28,15ZM34,20a3,3,0,0,1,1,5.82V27H33V25.82A3.01,3.01,0,0,1,31,23h2a1,1,0,1,0,1-1,3,3,0,0,1-1-5.82V15h2v1.18A3.01,3.01,0,0,1,37,19H35a1,1,0,1,0-1,1Z"></path><polygon points="44 41 60 41 60 37 59 37 59 39 57 39 57 37 55 37 55 39 53 39 53 37 51 37 51 39 49 39 49 37 47 37 47 39 45 39 45 37 44 37 44 41"></polygon><polygon points="26 37 26 41 42 41 42 37 41 37 41 39 39 39 39 37 37 37 37 39 35 39 35 37 33 37 33 39 31 39 31 37 29 37 29 39 27 39 27 37 26 37"></polygon><polygon points="26.22 11.81 26.03 12 24.81 13.22 23.59 12 21.98 10.39 23.39 8.98 26.22 11.81"></polygon><rect x="30.569" y="5.213" width="2" height="4" transform="translate(-0.773 5.59) rotate(-9.997)"></rect><path d="M41.99,15a10.453,10.453,0,0,1,1.24,2.16A2,2,0,0,1,44,17H57a2,2,0,0,0-2-2Z"></path></g></svg>