<svg xmlns="http://www.w3.org/2000/svg" viewBox="0 0 64 64" x="0px" y="0px"><g data-name="Banking-Credit Card-Smartphone-Online-Payment"><path d="M31,22H57a1,1,0,0,0,1-1V20H30v1A1,1,0,0,0,31,22Z"></path><path d="M20.22,52H31.78l-1.6-8H21.82ZM24,45h4v2H24Zm-1,4h6v2H23Z"></path><path d="M57,4H31a1,1,0,0,0-1,1v9H58V5A1,1,0,0,0,57,4ZM40,11a1,1,0,0,1-1,1H33a1,1,0,0,1-1-1V7a1,1,0,0,1,1-1h6a1,1,0,0,1,1,1Zm8,0H46V7h2Zm4,0H50V7h2Zm4,0H54V7h2Z"></path><path d="M48,24v4H4V24H26V22H7V20H26V18H12.3l6-4H28v7a3.009,3.009,0,0,0,3,3Z"></path><path d="M60,37a3,3,0,0,0-3-3H47a3,3,0,0,0-3,3V57a3,3,0,0,0,3,3H57a3,3,0,0,0,3-3ZM50,36h4v2H50Zm-4,0h2v2H46Zm8,22H50V56h4Zm-3-6V50h2v2Zm3.121-3.121a3.072,3.072,0,0,0-4.242,0l-1.414-1.414a5,5,0,0,1,7.07,0ZM56.95,46.05a7.009,7.009,0,0,0-9.9,0l-1.414-1.414a9.012,9.012,0,0,1,12.728,0Z"></path><rect x="30" y="16" width="28" height="2"></rect><rect x="34" y="8" width="4" height="2"></rect><rect x="23" y="34" width="6" height="8"></rect><rect x="13" y="34" width="4" height="4"></rect><polygon points="7 46 19.38 46 19.78 44 7 44 7 46"></polygon><path d="M9,30V42H21V33a1,1,0,0,1,1-1h8a1,1,0,0,1,1,1v9h9v2H32.22l.4,2H40v2H33.02l.8,4H42V37a4.952,4.952,0,0,1,2-3.97V30Zm10,9a1,1,0,0,1-1,1H12a1,1,0,0,1-1-1V33a1,1,0,0,1,1-1h6a1,1,0,0,1,1,1Zm22,0a1,1,0,0,1-1,1H34a1,1,0,0,1-1-1V33a1,1,0,0,1,1-1h6a1,1,0,0,1,1,1Z"></path><polygon points="4 52 18.18 52 18.98 48 4 48 4 52"></polygon><rect x="35" y="34" width="4" height="4"></rect></g></svg>