<svg xmlns="http://www.w3.org/2000/svg" viewBox="0 0 64 64" x="0px" y="0px"><g><rect x="28" y="29" width="8" height="4"></rect><path d="M24.555,35.168,26,36.131V29H22v7.131l1.445-.963A1,1,0,0,1,24.555,35.168Z"></path><path d="M12,49H36V35H28v3a1,1,0,0,1-1.555.832L24,37.2l-2.445,1.63A1,1,0,0,1,20,38V35H12Z"></path><rect x="12" y="29" width="8" height="4"></rect><path d="M36,13H28v3a1,1,0,0,1-1.555.832L24,15.2l-2.445,1.63A1,1,0,0,1,20,16V13H12V27H36Z"></path><rect x="28" y="7" width="8" height="4"></rect><path d="M23.445,13.168a1,1,0,0,1,1.11,0L26,14.131V7H22v7.131Z"></path><rect x="12" y="7" width="8" height="4"></rect><path d="M47,6h6a1,1,0,0,0,0-2H47a1,1,0,0,0,0,2Z"></path><path d="M41,54a1,1,0,0,0,1-1V52H9a1,1,0,0,0,0,2Z"></path><circle cx="38" cy="58" r="2"></circle><circle cx="12" cy="58" r="2"></circle><path d="M42,50H40V7a1,1,0,0,1,.1-.447l1-2A1,1,0,0,1,42,4h2V6H42.618L42,7.236Z"></path></g></svg>