<svg xmlns="http://www.w3.org/2000/svg" viewBox="0 0 64 64" x="0px" y="0px"><g data-name="coffee cup-coffee mug-espresso-drink-coffee"><path d="M7,60H49a3.014,3.014,0,0,0,2.83-2H4.17A3.014,3.014,0,0,0,7,60Z"></path><path d="M47,25a8.739,8.739,0,0,0-1.467.136c-.084-1.64-.219-3.34-.423-5.136H10.89c-1.43,12.6.17,20.83,3.83,32H41.28c1.107-3.379,2.022-6.487,2.725-9.53A8.829,8.829,0,0,0,47,43a9,9,0,0,0,0-18Zm0,16a6.966,6.966,0,0,1-2.568-.5,59.417,59.417,0,0,0,1.176-13.349A6.656,6.656,0,0,1,47,27a7,7,0,0,1,0,14Z"></path><rect x="17" y="54" width="22" height="2"></rect><path d="M22,16h2a2.258,2.258,0,0,1,.759-1.681,4.208,4.208,0,0,0,0-5.968,2.244,2.244,0,0,1,0-3.366A4.171,4.171,0,0,0,26,2H24a2.259,2.259,0,0,1-.76,1.683,4.212,4.212,0,0,0,0,5.969,2.243,2.243,0,0,1,0,3.365A4.164,4.164,0,0,0,22,16Z"></path><path d="M30,16h2a2.258,2.258,0,0,1,.759-1.681,4.208,4.208,0,0,0,0-5.968,2.244,2.244,0,0,1,0-3.366A4.171,4.171,0,0,0,34,2H32a2.259,2.259,0,0,1-.76,1.683,4.212,4.212,0,0,0,0,5.969,2.243,2.243,0,0,1,0,3.365A4.164,4.164,0,0,0,30,16Z"></path></g></svg>