<svg xmlns="http://www.w3.org/2000/svg" viewBox="0 0 64 64" x="0px" y="0px"><g data-name="Business-Woman-Avatar-Long-Hair"><path d="M44.111,32.857A8.924,8.924,0,0,0,45,29V15a13,13,0,0,0-26,0V29a8.924,8.924,0,0,0,.889,3.857A12.978,12.978,0,0,0,15,43V61a1,1,0,0,0,1,1H48a1,1,0,0,0,1-1V43A12.978,12.978,0,0,0,44.111,32.857ZM32,4A10.984,10.984,0,0,1,43,15V29a6.96,6.96,0,0,1-.557,2.725,12.915,12.915,0,0,0-1.822-.861A4.911,4.911,0,0,0,41,29V26H39v3a2.948,2.948,0,0,1-.3,1.286,12.8,12.8,0,0,0-1.7-.235V27.188A6,6,0,0,0,40,22V9a1,1,0,0,0-2,0,3,3,0,0,1-3,3H21.426A11.013,11.013,0,0,1,32,4Zm2,22H30a4,4,0,0,1-4-4V14h9a4.973,4.973,0,0,0,3-1v9A4,4,0,0,1,34,26Zm-4,2h4a6,6,0,0,0,1-.09v2.738L32,34.4l-3-3.75V27.91A6,6,0,0,0,30,28Zm-1.927,4.693,2.5,3.126-2.13,1.6-1.32-3.3ZM32,37.25l2.763,2.071L32,45.538l-2.763-6.217Zm3.556.167-2.13-1.6,2.5-3.126.949,1.424ZM21,29V15c0-.338.021-.67.051-1H24v8a6,6,0,0,0,3,5.188v2.863a12.8,12.8,0,0,0-1.7.235A2.948,2.948,0,0,1,25,29V26H23v3a4.911,4.911,0,0,0,.379,1.864,12.915,12.915,0,0,0-1.822.861A6.96,6.96,0,0,1,21,29ZM47,60H43V52.447a8.417,8.417,0,0,0,0-10.894V40H41v2a1,1,0,0,0,.4.8c.9.679,1.6,2.815,1.6,4.2s-.7,3.522-1.6,4.2a1,1,0,0,0-.4.8v8H23V52a1,1,0,0,0-.4-.8c-.9-.679-1.6-2.815-1.6-4.2s.7-3.522,1.6-4.2A1,1,0,0,0,23,42V40H21v1.553a8.417,8.417,0,0,0,0,10.894V60H17V43a11.013,11.013,0,0,1,9-10.81l-.837,1.255a1,1,0,0,0-.1.926l6.015,14.035a1,1,0,0,0,1.828,0l6.015-14.035a1,1,0,0,0-.1-.926l-.837-1.255A11.013,11.013,0,0,1,47,43Z"></path><path d="M35.71,15.29A1,1,0,0,0,34,16a.99.99,0,0,0,1.38.92,1.169,1.169,0,0,0,.33-.21.99.99,0,0,0,.21-1.09A1.032,1.032,0,0,0,35.71,15.29Z"></path><path d="M29.56,15.17a.776.776,0,0,0-.18-.09.609.609,0,0,0-.191-.06.809.809,0,0,0-.379,0,.6.6,0,0,0-.19.06.782.782,0,0,0-.181.09,1.7,1.7,0,0,0-.149.12A1.045,1.045,0,0,0,28,16a.99.99,0,0,0,.29.71,1.155,1.155,0,0,0,.33.21A.99.99,0,0,0,30,16a1.05,1.05,0,0,0-.29-.71A1.712,1.712,0,0,0,29.56,15.17Z"></path></g></svg>