<svg xmlns="http://www.w3.org/2000/svg" viewBox="0 0 64 64" x="0px" y="0px"><g><path d="M43,33V19H36a3.009,3.009,0,0,0-3,3V34.03A4.924,4.924,0,0,1,36,33ZM35,21h6v2H35Zm0,4h6v2H35Zm0,4h6v2H35Z"></path><path d="M31,34.03V22a3.009,3.009,0,0,0-3-3H21V33h7A4.924,4.924,0,0,1,31,34.03ZM23,21h6v2H23Zm0,4h6v2H23Zm0,4h6v2H23Z"></path><path d="M33.17,37H43V35H36A3.014,3.014,0,0,0,33.17,37Z"></path><path d="M34,54H30a1,1,0,0,0,0,2h4a1,1,0,0,0,0-2Z"></path><path d="M14,48H50V8H14Zm5-30a1,1,0,0,1,1-1h8a4.994,4.994,0,0,1,4,2.03A4.994,4.994,0,0,1,36,17h8a1,1,0,0,1,1,1V38a1,1,0,0,1-1,1H20a1,1,0,0,1-1-1Z"></path><path d="M54,7a3.009,3.009,0,0,0-3-3H13a3.009,3.009,0,0,0-3,3V57a3.009,3.009,0,0,0,3,3H51a3.009,3.009,0,0,0,3-3ZM34,58H30a3,3,0,0,1,0-6h4a3,3,0,0,1,0,6ZM52,48a2.006,2.006,0,0,1-2,2H14a2.006,2.006,0,0,1-2-2V8a2.006,2.006,0,0,1,2-2H50a2.006,2.006,0,0,1,2,2Z"></path><path d="M28,35H21v2h9.83A3.014,3.014,0,0,0,28,35Z"></path></g></svg>