<svg xmlns="http://www.w3.org/2000/svg" viewBox="0 0 64 64" x="0px" y="0px"><g data-name="Wind Mill"><path d="M18.37,33.25l-1.7,1.08A16.849,16.849,0,0,1,15,27h2A14.841,14.841,0,0,0,18.37,33.25Z"></path><path d="M30.47,41.92l-.15,1.99a16.985,16.985,0,0,1-12.33-7.3l1.79-.92A15.047,15.047,0,0,0,30.47,41.92Z"></path><path d="M42.61,40.28a16.914,16.914,0,0,1-8.93,3.63l-.15-1.99a14.7,14.7,0,0,0,7.83-3.2Z"></path><path d="M14.12,35.96l-1.69,1.09A21.9,21.9,0,0,1,10,27h2A19.978,19.978,0,0,0,14.12,35.96Z"></path><path d="M30.09,46.91l-.15,1.99a22.035,22.035,0,0,1-16.42-9.97L15.31,38A20.01,20.01,0,0,0,30.09,46.91Z"></path><path d="M46.62,43.44A21.949,21.949,0,0,1,34.06,48.9l-.15-1.99a19.972,19.972,0,0,0,11.38-4.97Z"></path><path d="M30.087,46.9c.63.06,1.267.1,1.913.1s1.279-.034,1.913-.095l-.231-3A16.828,16.828,0,0,1,32,44c-.568,0-1.129-.031-1.683-.085Z"></path><path d="M33.529,41.916,33.074,36H30.926l-.456,5.923A15.173,15.173,0,0,0,32,42C32.515,42,33.024,41.966,33.529,41.916Z"></path><path d="M34.066,48.9c-.684.064-1.373.1-2.066.1s-1.386-.036-2.066-.1L29.08,60h5.84Z"></path><path d="M35,27a2.883,2.883,0,0,0-.149-.914,2.775,2.775,0,0,0-.615-1.076,2.98,2.98,0,0,0-4.454-.02,2.791,2.791,0,0,0-.628,1.08A2.919,2.919,0,0,0,29,27a3.008,3.008,0,0,0,2.376,2.932,2.816,2.816,0,0,0,1.239,0A3.011,3.011,0,0,0,35,27Z"></path><path d="M31.1,22.087a4.714,4.714,0,0,1,1.8,0c.031.006.063.009.094.015a4.925,4.925,0,0,1,.812.241c.024.009.049.012.073.022L33.044,4H30.956l-.835,18.365c.019-.008.04-.01.06-.018a4.983,4.983,0,0,1,.827-.246C31.038,22.1,31.068,22.093,31.1,22.087Z"></path><path d="M36.764,28.462c-.02.065-.03.134-.053.2a5.028,5.028,0,0,1-.38.822c-.039.067-.089.126-.131.192a4.973,4.973,0,0,1-.39.543c-.071.084-.15.157-.226.236a5.241,5.241,0,0,1-.419.4c-.035.028-.063.065-.1.093L51.393,39.4,52.437,37.6l-15.486-9.9c0,.027-.015.052-.019.079A4.889,4.889,0,0,1,36.764,28.462Z"></path><path d="M28.193,30.221a5,5,0,0,1-.4-.562c-.038-.06-.084-.114-.119-.175a5.008,5.008,0,0,1-.381-.824c-.023-.063-.032-.13-.052-.194a4.811,4.811,0,0,1-.169-.694c0-.027-.015-.052-.019-.079L18.377,33.24a15.01,15.01,0,0,0,1.413,2.441l9.144-4.738c-.034-.026-.06-.06-.093-.088a5.058,5.058,0,0,1-.439-.415C28.333,30.367,28.259,30.3,28.193,30.221Z"></path><path d="M12.607,39.4l.921-.477a21.652,21.652,0,0,1-1.093-1.886l-.872.557Z"></path><path d="M15.314,38l2.679-1.388a16.936,16.936,0,0,1-1.311-2.288L14.14,35.95A20.121,20.121,0,0,0,15.314,38Z"></path><path d="M18,10a4,4,0,0,0-8,0h2a2,2,0,1,1,2,2H2v2H14A4,4,0,0,0,18,10Z"></path><path d="M20,16a2,2,0,1,1,2,2H10v2H22a4,4,0,1,0-4-4Z"></path><rect x="6" y="18" width="2" height="2"></rect><path d="M48.966,28.082c.022-.358.034-.719.034-1.082a16.893,16.893,0,0,0-9.563-15.291l-.875,1.8A14.907,14.907,0,0,1,47,27c0,.32-.01.639-.03.955Z"></path><path d="M52,27q0,.487-.023.969l2,.1c.017-.354.025-.709.025-1.067A22.123,22.123,0,0,0,38.243,5.9l-.566,1.918A20.113,20.113,0,0,1,52,27Z"></path></g></svg>