<svg xmlns="http://www.w3.org/2000/svg" viewBox="0 0 64 64" x="0px" y="0px"><g data-name="Racing-Car-Vehicle-Race car-Automobile"><path d="M50,43.9a5.038,5.038,0,0,0,1.75-.73L50.29,41.7c-.1.04-.19.08-.29.12Z"></path><path d="M51.82,40c-.04.1-.08.19-.12.29l1.47,1.46A5.038,5.038,0,0,0,53.9,40Z"></path><path d="M51.75,34.83A5.038,5.038,0,0,0,50,34.1v2.08c.1.04.19.08.29.12Z"></path><path d="M53.17,36.25,51.7,37.71c.04.1.08.19.12.29H53.9A5.038,5.038,0,0,0,53.17,36.25Z"></path><path d="M44.83,41.75l1.47-1.46c-.04-.1-.08-.19-.12-.29H44.1A5.038,5.038,0,0,0,44.83,41.75Z"></path><path d="M56,38.92l4-2.48V32H58.31a2.007,2.007,0,0,1-1.84-1.22,1.941,1.941,0,0,1,.29-2.04l.79-1.42-28.2,2.33a2.009,2.009,0,0,1-1.19-3.72l8.16-4.19-.52-.52L20.5,28.83,5.73,34.15A2.936,2.936,0,0,0,4.5,35H8a1,1,0,0,1,.89,1.45l-2,4A.977.977,0,0,1,6,41H5.51l.8,1.47a.984.984,0,0,0,.88.53h6.07a7,7,0,1,1,11.66-.28L42.54,41.7A6.922,6.922,0,0,1,42,39a7,7,0,0,1,14-.08ZM40.1,32.17l-.174-1.992,3.984-.348.174,1.992Z"></path><path d="M48,41.82c-.1-.04-.19-.08-.29-.12l-1.46,1.47A5.038,5.038,0,0,0,48,43.9Z"></path><path d="M46.3,37.71l-1.47-1.46A5.038,5.038,0,0,0,44.1,38h2.08C46.22,37.9,46.26,37.81,46.3,37.71Z"></path><path d="M48,34.1a5.038,5.038,0,0,0-1.75.73l1.46,1.47c.1-.04.19-.08.29-.12Z"></path><path d="M14.83,41.75l1.47-1.46c-.04-.1-.08-.19-.12-.29H14.1A5.038,5.038,0,0,0,14.83,41.75Z"></path><circle cx="49" cy="39" r="1"></circle><path d="M23.17,36.25,21.7,37.71c.04.1.08.19.12.29H23.9A5.038,5.038,0,0,0,23.17,36.25Z"></path><path d="M23.9,40H21.82c-.04.1-.08.19-.12.29l1.47,1.46A5.038,5.038,0,0,0,23.9,40Z"></path><path d="M3.76,37a2.88,2.88,0,0,0,.35,1.4l.32.6h.95l1-2Z"></path><path d="M21.75,34.83A5.038,5.038,0,0,0,20,34.1v2.08c.1.04.19.08.29.12Z"></path><path d="M53,23h-.51a1,1,0,0,0-.96.72l-.64,2.15L53,25.69Z"></path><path d="M44,23h-.51a1,1,0,0,0-.96.72l-.88,2.92,2.35-.2Z"></path><path d="M18,34.1a5.038,5.038,0,0,0-1.75.73l1.46,1.47c.1-.04.19-.08.29-.12Z"></path><path d="M18,41.82c-.1-.04-.19-.08-.29-.12l-1.46,1.47A5.038,5.038,0,0,0,18,43.9Z"></path><path d="M20,41.82V43.9a5.038,5.038,0,0,0,1.75-.73L20.29,41.7C20.19,41.74,20.1,41.78,20,41.82Z"></path><path d="M16.3,37.71l-1.47-1.46A5.038,5.038,0,0,0,14.1,38h2.08C16.22,37.9,16.26,37.81,16.3,37.71Z"></path><circle cx="19" cy="39" r="1"></circle></g></svg>