<svg xmlns="http://www.w3.org/2000/svg" viewBox="0 0 64 64" x="0px" y="0px"><g data-name="Curriculum"><path d="M27,38a4.991,4.991,0,0,0-4.624-4.962l-1.669,1.669a1,1,0,0,1-1.414,0l-1.669-1.669A4.991,4.991,0,0,0,13,38v2H27Z"></path><path d="M19,30.9v.687l1,1,1-1V30.9a5,5,0,0,1-2,0Z"></path><path d="M21,23.414l-.122.122A4.966,4.966,0,0,1,17.343,25H17v1a3,3,0,0,0,6,0V24.87a2.96,2.96,0,0,1-1.293-.749Z"></path><path d="M19.464,22.122l.829-.829a1,1,0,0,1,1.414,0l1.414,1.414a1,1,0,0,0,.708.293H24V22a4,4,0,0,0-8,0v1h1.343A3.02,3.02,0,0,0,19.464,22.122Z"></path><rect x="9" y="4" width="38" height="6"></rect><path d="M41.105,14.553a1.042,1.042,0,0,1,1.79,0l.1.211V12H41v2.764Z"></path><path d="M55,59V12H53V59a2.966,2.966,0,0,1-.184,1H54A1,1,0,0,0,55,59Z"></path><rect x="49" y="4" width="2" height="6"></rect><path d="M9,59a1,1,0,0,0,1,1H46a1,1,0,0,0,1-1V12H45v7a1,1,0,0,1-.77.973,1,1,0,0,1-1.125-.526L42,17.236l-1.1,2.211A1,1,0,0,1,39,19V12H9Zm18-7H25V50h2Zm0-4H17V46H27Zm-4,2v2H21V50Zm22,2H41V50h4Zm0-10H39V40h6ZM35,32H45v2H35Zm-4,0h2v2H31Zm0,4H45v2H31Zm0,4h6v2H31Zm0,6H45v2H31Zm0,4h8v2H31Zm0,4H45v2H31ZM11,38a7.011,7.011,0,0,1,6-6.929v-1.1A4.977,4.977,0,0,1,15,26V25a1,1,0,0,1-1-1V22a6,6,0,0,1,12,0v2a1,1,0,0,1-1,1v1a4.977,4.977,0,0,1-2,3.974v1.1A7.011,7.011,0,0,1,29,38v3a1,1,0,0,1-1,1H12a1,1,0,0,1-1-1Zm0,8h4v2H11Zm0,4h8v2H11Zm0,4H27v2H11Z"></path><rect x="53" y="4" width="2" height="6"></rect><path d="M51,59V12H49V59a2.966,2.966,0,0,1-.184,1H50A1,1,0,0,0,51,59Z"></path></g></svg>