<svg xmlns="http://www.w3.org/2000/svg" viewBox="0 0 64 64" x="0px" y="0px"><g data-name="Web Server"><rect x="35" y="50" width="2" height="1"></rect><path d="M53,52V50H39v2a1,1,0,0,1-1,1H34a1,1,0,0,1-1-1V50H32a2,2,0,0,1-2-2V42a2,2,0,0,1,2-2h1V39H32a2,2,0,0,1-2-2V31a2,2,0,0,1,2-2H54V15H4V56a1,1,0,0,0,1,1H53a1,1,0,0,0,1-1V53A1,1,0,0,1,53,52ZM43,17a3,3,0,1,1-3,3A3,3,0,0,1,43,17ZM11,19a3,3,0,1,1-3,3A3,3,0,0,1,11,19Zm0,13a3,3,0,1,1-3,3A3,3,0,0,1,11,32Zm0,23a3,3,0,1,1,3-3A3,3,0,0,1,11,55ZM23,39V35a2,2,0,0,1,2-2h3v2H25V45h3v2H25a2,2,0,0,1-2-2V41H21v1a3,3,0,0,1-3,3H13a1,1,0,0,0-1,1v1H10V46a3,3,0,0,1,3-3h5a1,1,0,0,0,1-1V36H16V34h3V24a1,1,0,0,0-1-1H16V21h2a3,3,0,0,1,3,3v1h7a1,1,0,0,0,1-1V22a3,3,0,0,1,3-3h6v2H32a1,1,0,0,0-1,1v2a3,3,0,0,1-3,3H21V39Z"></path><circle cx="11" cy="52" r="1"></circle><path d="M5,7A1,1,0,0,0,4,8v5H54V8a1,1,0,0,0-1-1Zm5,4H8V9h2Zm4,0H12V9h2Zm4,0H16V9h2Zm28,0H24V9H46Z"></path><rect x="55" y="50" width="2" height="1"></rect><path d="M60,42H32v6H60ZM36,46H34V44h2Zm4,0H38V44h2Zm4,0H42V44h2Zm6,1H48V43h2Zm4,0H52V43h2Zm4,0H56V43h2Z"></path><circle cx="11" cy="35" r="1"></circle><rect x="39" y="39" width="14" height="1"></rect><rect x="35" y="39" width="2" height="1"></rect><circle cx="11" cy="22" r="1"></circle><rect x="55" y="39" width="2" height="1"></rect><path d="M32,37H60V31H32Zm24-5h2v4H56Zm-4,0h2v4H52Zm-4,0h2v4H48Zm-6,1h2v2H42Zm-4,0h2v2H38Zm-4,0h2v2H34Z"></path><circle cx="43" cy="20" r="1"></circle></g></svg>