<svg xmlns="http://www.w3.org/2000/svg" viewBox="0 0 64 64" x="0px" y="0px"><g><path d="M29.18,10a2.868,2.868,0,0,0,0,2H24V10Z"></path><path d="M32,14a2.772,2.772,0,0,0,1-.18V17H31V13.82A2.772,2.772,0,0,0,32,14Z"></path><path d="M40,10v2H34.82a2.868,2.868,0,0,0,0-2Z"></path><path d="M9,24h2v5.18a2.868,2.868,0,0,0-2,0Z"></path><path d="M10,35a2.772,2.772,0,0,0,1-.18V40H9V34.82A2.772,2.772,0,0,0,10,35Z"></path><path d="M16,31v2H12.82a2.868,2.868,0,0,0,0-2Z"></path><path d="M51.18,31a2.868,2.868,0,0,0,0,2H48V31Z"></path><path d="M55,24v5.18a2.868,2.868,0,0,0-2,0V24Z"></path><path d="M54,35a2.772,2.772,0,0,0,1-.18V40H53V34.82A2.772,2.772,0,0,0,54,35Z"></path><path d="M29.18,52a2.868,2.868,0,0,0,0,2H24V52Z"></path><path d="M31,47h2v3.18a2.868,2.868,0,0,0-2,0Z"></path><path d="M40,52v2H34.82a2.868,2.868,0,0,0,0-2Z"></path><path d="M44,32H20v6H44ZM26,36H24V34h2Zm10,0H34V34h2Zm4,0H38V34h2Z"></path><polygon points="23.12 24 22.88 24 22.13 30 23.87 30 23.12 24"></polygon><polygon points="41.12 24 40.88 24 40.13 30 41.87 30 41.12 24"></polygon><path d="M59,44H45a1,1,0,0,0-1,1v7H60V45A1,1,0,0,0,59,44Zm-7,7-1.414-1.414a2,2,0,0,1,2.828,0Zm2.121-2.121a3.072,3.072,0,0,0-4.242,0l-1.414-1.414a5,5,0,0,1,7.07,0Z"></path><polygon points="54.22 58 49.78 58 49.28 60 45 60 45 62 59 62 59 60 54.72 60 54.22 58"></polygon><path d="M44,55a1,1,0,0,0,1,1H59a1,1,0,0,0,1-1V54H44Z"></path><polygon points="54.22 18 49.78 18 49.28 20 45 20 45 22 59 22 59 20 54.72 20 54.22 18"></polygon><path d="M59,4H45a1,1,0,0,0-1,1v7H60V5A1,1,0,0,0,59,4Zm-7,7L50.586,9.586a2,2,0,0,1,2.828,0Zm2.121-2.121a3.072,3.072,0,0,0-4.242,0L48.465,7.465a5,5,0,0,1,7.07,0Z"></path><path d="M44,15a1,1,0,0,0,1,1H59a1,1,0,0,0,1-1V14H44Z"></path><path d="M19,44H5a1,1,0,0,0-1,1v7H20V45A1,1,0,0,0,19,44Zm-7,7-1.414-1.414a2,2,0,0,1,2.828,0Zm2.122-2.121a3,3,0,0,0-4.244,0L8.464,47.465a5.008,5.008,0,0,1,7.072,0Z"></path><polygon points="14.219 58 9.781 58 9.281 60 5 60 5 62 19 62 19 60 14.719 60 14.219 58"></polygon><path d="M4,55a1,1,0,0,0,1,1H19a1,1,0,0,0,1-1V54H4Z"></path><path d="M19,4H5A1,1,0,0,0,4,5v7H20V5A1,1,0,0,0,19,4Zm-7,7L10.586,9.586a2,2,0,0,1,2.828,0Zm2.122-2.121a3,3,0,0,0-4.244,0L8.464,7.465a5.008,5.008,0,0,1,7.072,0Z"></path><polygon points="14.219 18 9.781 18 9.281 20 5 20 5 22 19 22 19 20 14.719 20 14.219 18"></polygon><path d="M4,15a1,1,0,0,0,1,1H19a1,1,0,0,0,1-1V14H4Z"></path><circle cx="32" cy="11" r="1"></circle><circle cx="54" cy="32" r="1"></circle><circle cx="32" cy="53" r="1"></circle><circle cx="10" cy="32" r="1"></circle></g></svg>