<svg xmlns="http://www.w3.org/2000/svg" viewBox="0 0 64 64" x="0px" y="0px"><path d="M57,6H7a5,5,0,0,0-5,5V45a5,5,0,0,0,5,5H23.87l-.75,6H22a3,3,0,0,0,0,6H42a3,3,0,0,0,0-6H40.88l-.75-6H57a5,5,0,0,0,5-5V11A5,5,0,0,0,57,6ZM42,58a1,1,0,0,1,0,2H22a1,1,0,0,1,0-2ZM25.13,56l.75-6H38.12l.75,6ZM60,45a3.009,3.009,0,0,1-3,3H7a3.009,3.009,0,0,1-3-3V42H60ZM13.57,17l.89,2H9.54l.89-2Zm-2.25-2L12,13.46,12.68,15ZM15,21V34H13V21Zm-4,0V34H9V21Zm4,15v4H9V36Zm45,4H17V20a.978.978,0,0,0-.09-.41l-4-9a1,1,0,0,0-1.82,0l-4,9A.978.978,0,0,0,7,20V40H4V11A3.009,3.009,0,0,1,7,8H57a3.009,3.009,0,0,1,3,3Z"></path><rect x="54" y="44" width="2" height="2"></rect><path d="M56,14H53V12a1,1,0,0,0-1-1H42a4.994,4.994,0,0,0-4,2.03A4.994,4.994,0,0,0,34,11H24a1,1,0,0,0-1,1v2H20a1,1,0,0,0-1,1V36a1,1,0,0,0,1,1H56a1,1,0,0,0,1-1V15A1,1,0,0,0,56,14ZM23,35H21V16h2Zm2,0V33h9a3.014,3.014,0,0,1,2.83,2Zm12-2.97A4.924,4.924,0,0,0,34,31H25V13h9a3.009,3.009,0,0,1,3,3ZM51,35H39.17A3.014,3.014,0,0,1,42,33h9Zm0-4H42a4.924,4.924,0,0,0-3,1.03V16a3.009,3.009,0,0,1,3-3h9Zm4,4H53V16h2Z"></path><rect x="27" y="15" width="8" height="2"></rect><rect x="27" y="19" width="8" height="2"></rect><rect x="41" y="15" width="8" height="2"></rect><rect x="41" y="19" width="8" height="2"></rect><rect x="27" y="23" width="8" height="2"></rect><rect x="41" y="23" width="8" height="2"></rect><rect x="27" y="27" width="8" height="2"></rect><rect x="41" y="27" width="8" height="2"></rect></svg>