<svg xmlns="http://www.w3.org/2000/svg" viewBox="0 0 64 64" x="0px" y="0px"><g><path d="M59.372,6.071l-10-4A1,1,0,0,0,48,3V24.058A9.315,9.315,0,0,0,47,24c-3.364,0-6,1.757-6,4s2.636,4,6,4,6-1.757,6-4c0-1.509-1.2-2.8-3-3.477V11.677l9.372-3.748a1,1,0,0,0,0-1.858ZM43,28c0-.944,1.71-2,4-2a7.1,7.1,0,0,1,1,.077v3.846A7.1,7.1,0,0,1,47,30C44.71,30,43,28.944,43,28Zm8,0c0,.437-.379.895-1,1.264V26.736C50.621,27.105,51,27.563,51,28ZM50,9.523V4.477L56.308,7Z"></path><path d="M27.806,51.256a2.973,2.973,0,0,0-2.63-.489L14.828,53.723,11.094,27.586a1.963,1.963,0,0,0,.776-1.807l-1.777-16A2,2,0,0,0,8.105,8H4.117A2,2,0,0,0,2.13,10.221l1.777,16a1.994,1.994,0,0,0,1.183,1.6L8.8,59.351A3,3,0,0,0,11.778,62H26a3,3,0,0,0,3-3V53.651A2.974,2.974,0,0,0,27.806,51.256ZM4.117,10H8.105L9.884,26H5.9ZM27,59a1,1,0,0,1-1,1H11.778a1,1,0,0,1-.993-.883L7.125,28H9.133l3.715,26.006a2,2,0,0,0,2.529,1.64L25.726,52.69A1,1,0,0,1,27,53.651Z"></path><rect x="17" y="56" width="8" height="2"></rect><path d="M34,34a4,4,0,1,0,4,4A4,4,0,0,0,34,34Zm0,6a2,2,0,1,1,2-2A2,2,0,0,1,34,40Z"></path><rect x="26.172" y="44" width="5.657" height="2" transform="translate(-23.326 33.686) rotate(-45)"></rect><rect x="26.586" y="40" width="2.828" height="2" transform="translate(-20.79 31.808) rotate(-45)"></rect><rect x="22.586" y="44" width="2.828" height="2" transform="translate(-24.79 30.151) rotate(-45)"></rect></g></svg>