<svg xmlns="http://www.w3.org/2000/svg" viewBox="0 0 64 64" x="0px" y="0px"><g data-name="Order Now"><path d="M35,26H32V23a8.98,8.98,0,0,0-13-8.05A8.98,8.98,0,0,0,6,23v3H3a1,1,0,0,0-1,1V61a1,1,0,0,0,1,1H35a1,1,0,0,0,1-1V27A1,1,0,0,0,35,26ZM23,16a7.009,7.009,0,0,1,7,7v3H24V23a8.97,8.97,0,0,0-3.014-6.7A6.984,6.984,0,0,1,23,16Zm-4,1.264A6.993,6.993,0,0,1,22,23v3H16V23A6.993,6.993,0,0,1,19,17.264ZM8,23a6.994,6.994,0,0,1,9.014-6.7A8.97,8.97,0,0,0,14,23v3H8ZM7.832,54.445a1.039,1.039,0,0,0-1.664,0L4,57.7V30.3l2.168,3.252a1,1,0,0,0,1.664,0L10,30.3V57.7ZM9.132,60H4.868L7,56.8ZM4.868,28H9.132L7,31.2ZM34,60H12V28h2v5h2V28H30v5h2V28h2Z"></path><rect x="18" y="6" width="2" height="2"></rect><rect x="22" y="6" width="2" height="2"></rect><rect x="26" y="6" width="2" height="2"></rect><path d="M59,2H15a3,3,0,0,0-3,3v6a1,1,0,0,0,1,1H60V51a1,1,0,0,1-1,1H38v2H59a3,3,0,0,0,3-3V5A3,3,0,0,0,59,2Zm1,8H14V5a1,1,0,0,1,1-1H59a1,1,0,0,1,1,1Z"></path><path d="M54,41H44.414l1.293-1.293-1.414-1.414-3,3a1,1,0,0,0,0,1.414l3,3,1.414-1.414L44.414,43H54Z"></path><path d="M56,29V19a1,1,0,0,0-1-1H37a1,1,0,0,0-1,1v5h2V20H54v8H39v2H55A1,1,0,0,0,56,29Z"></path><rect x="45" y="23" width="2" height="2"></rect><rect x="49" y="23" width="2" height="2"></rect><rect x="41" y="23" width="2" height="2"></rect></g></svg>