<svg xmlns="http://www.w3.org/2000/svg" viewBox="0 0 64 64" x="0px" y="0px"><g><path d="M28,20a6,6,0,1,0-6-6A6.006,6.006,0,0,0,28,20Zm0-10a4,4,0,1,1-4,4A4,4,0,0,1,28,10Z"></path><path d="M62,39a3.009,3.009,0,0,0-3-3H54V3a1,1,0,0,0-1-1H3A1,1,0,0,0,2,3V49a1,1,0,0,0,1,1H28.18A3,3,0,0,0,28,51v2a2.974,2.974,0,0,0,.78,2A2.974,2.974,0,0,0,28,57v2a3.009,3.009,0,0,0,3,3H43a2.974,2.974,0,0,0,2-.78A2.974,2.974,0,0,0,47,62H59a3.009,3.009,0,0,0,3-3V57a2.974,2.974,0,0,0-.78-2A2.974,2.974,0,0,0,62,53V51a2.974,2.974,0,0,0-.78-2A2.974,2.974,0,0,0,62,47V45a2.974,2.974,0,0,0-.78-2A2.974,2.974,0,0,0,62,41ZM52,4V8.91A5.992,5.992,0,0,1,47.09,4ZM4,4H8.91A5.992,5.992,0,0,1,4,8.91Zm0,6.93A8,8,0,0,0,10.93,4H45.07A8,8,0,0,0,52,10.93v6.14A8,8,0,0,0,45.07,24H10.93A8,8,0,0,0,4,17.07ZM47.09,24A5.992,5.992,0,0,1,52,19.09V24ZM52,26v4H36V26ZM4,19.09A5.992,5.992,0,0,1,8.91,24H4ZM20,48H4V44H20Zm0-6H4V38H20Zm0-6H4V32H20Zm0-6H4V26H20Zm8,15v2a3,3,0,0,0,.18,1H22V26H34V42H31A3.009,3.009,0,0,0,28,45ZM44,59a1,1,0,0,1-1,1H31a1,1,0,0,1-1-1V57a1,1,0,0,1,1-1h1v2h2V56h2v2h2V56h2v2h2V56h1a1,1,0,0,1,1,1Zm0-6a1,1,0,0,1-1,1H31a1,1,0,0,1-1-1V51a1,1,0,0,1,1-1h1v2h2V50h2v2h2V50h2v2h2V50h1a1,1,0,0,1,1,1Zm0-6a1,1,0,0,1-1,1H31a1,1,0,0,1-1-1V45a1,1,0,0,1,1-1h1v2h2V44h2v2h2V44h2v2h2V44h1a1,1,0,0,1,1,1Zm.18-5H36V38h8.18A3,3,0,0,0,44,39v2A3,3,0,0,0,44.18,42ZM36,36V32H52v4ZM60,59a1,1,0,0,1-1,1H47a1,1,0,0,1-1-1V57a1,1,0,0,1,1-1h1v2h2V56h2v2h2V56h2v2h2V56h1a1,1,0,0,1,1,1Zm0-6a1,1,0,0,1-1,1H47a1,1,0,0,1-1-1V51a1,1,0,0,1,1-1h1v2h2V50h2v2h2V50h2v2h2V50h1a1,1,0,0,1,1,1Zm0-6a1,1,0,0,1-1,1H47a1,1,0,0,1-1-1V45a1,1,0,0,1,1-1h1v2h2V44h2v2h2V44h2v2h2V44h1a1,1,0,0,1,1,1Zm0-6a1,1,0,0,1-1,1H47a1,1,0,0,1-1-1V39a1,1,0,0,1,1-1h1v2h2V38h2v2h2V38h2v2h2V38h1a1,1,0,0,1,1,1Z"></path></g></svg>