<svg xmlns="http://www.w3.org/2000/svg" viewBox="0 0 64 64" x="0px" y="0px"><g data-name="Smart Refrigerator-Internet of Things-App-Smartphone-Refrigerator"><path d="M53,26H40V5a3.009,3.009,0,0,0-3-3H9A3.009,3.009,0,0,0,6,5V55a3.009,3.009,0,0,0,3,3v3a1,1,0,0,0,1,1h4a1,1,0,0,0,.97-.76L15.78,58H30.22l.81,3.24A1,1,0,0,0,32,62h4a.977.977,0,0,0,.85-.51A4.863,4.863,0,0,0,39,62H53a5,5,0,0,0,5-5V31A5,5,0,0,0,53,26ZM8,5A1,1,0,0,1,9,4H37a1,1,0,0,1,1,1V22H8Zm5.22,55H11V58h2.72ZM35,60H32.78l-.5-2H34.1a4.992,4.992,0,0,0,.9,1.97ZM34,31V56H9a1,1,0,0,1-1-1V24H38v2.1A5.017,5.017,0,0,0,34,31ZM56,57a3.009,3.009,0,0,1-3,3H39a3.009,3.009,0,0,1-3-3V54H56Zm0-5H36V34H56Zm0-20H36V31a3.009,3.009,0,0,1,3-3H53a3.009,3.009,0,0,1,3,3Z"></path><rect x="45" y="56" width="2" height="2"></rect><path d="M15,18H31a1,1,0,0,0,1-1V9a1,1,0,0,0-1-1H15a1,1,0,0,0-1,1v8A1,1,0,0,0,15,18Zm1-8H30v6H16Z"></path><rect x="18" y="12" width="2" height="2"></rect><rect x="22" y="12" width="2" height="2"></rect><rect x="26" y="12" width="2" height="2"></rect><path d="M42.465,43.465l1.414,1.414a3.072,3.072,0,0,1,4.242,0l1.414-1.414a5,5,0,0,0-7.07,0Z"></path><path d="M39.636,40.636,41.05,42.05a7.009,7.009,0,0,1,9.9,0l1.414-1.414A9.012,9.012,0,0,0,39.636,40.636Z"></path><path d="M44.586,46.586,46,48l1.414-1.414A2,2,0,0,0,44.586,46.586Z"></path><path d="M13,44a3,3,0,0,0,3-3V35a3,3,0,0,0-6,0v6A3,3,0,0,0,13,44Zm-1-9a1,1,0,0,1,2,0v6a1,1,0,0,1-2,0Z"></path></g></svg>