<svg xmlns="http://www.w3.org/2000/svg" viewBox="0 0 64 64" x="0px" y="0px"><g><polygon points="27 22 28 22 37 22 37 18 27 18 27 22"></polygon><path d="M40,47a5.783,5.783,0,0,1,1,.09V32H35V49.725A5.994,5.994,0,0,1,36.4,48.2a6.06,6.06,0,0,1,.6-.384V35h2V47.084A6.025,6.025,0,0,1,40,47Z"></path><path d="M23,57.444V60h2V54A3.987,3.987,0,0,1,23,57.444Z"></path><rect x="37" y="24" width="2" height="6"></rect><path d="M55,51a1,1,0,0,1-1-1,4,4,0,0,0-8,0,1,1,0,0,1-1,1,2,2,0,0,0,0,4H55a2,2,0,0,0,0-4Z"></path><path d="M33,52.544V32a2,2,0,0,1,2-2V24H29v6a2,2,0,0,1,2,2V56a3.946,3.946,0,0,1,1.343-2.984A3.9,3.9,0,0,1,33,52.544Z"></path><path d="M41,53a3.983,3.983,0,0,1,1.5-3.1,3.974,3.974,0,0,0-1.7-.817A3.737,3.737,0,0,0,40,49a3.931,3.931,0,0,0-2.4.8A4.033,4.033,0,0,0,36,53a1,1,0,0,1-1,1,2.01,2.01,0,0,0-2,2,2,2,0,0,0,2,2H45a1.993,1.993,0,0,0,1.722-1H45A4,4,0,0,1,41,53Z"></path><path d="M33,60v-.556A3.987,3.987,0,0,1,31,56v4Z"></path><polygon points="31.304 10.001 29 10 29 16 33.556 16 31.304 10.001"></polygon><path d="M17,45.092a5.99,5.99,0,0,1,4,2.635V32.387l-4,1.332Z"></path><path d="M12,51a1,1,0,0,1-1,1,2,2,0,0,0,0,4H21a2,2,0,0,0,0-4,1,1,0,0,1-1-1,4,4,0,0,0-8,0Z"></path><path d="M19,30.945l2.686-.894A.99.99,0,0,1,22,30h1V24.387l-4,1.332Z"></path><path d="M29,60V32H23V50.549A4,4,0,0,1,25,54V35h2V60Z"></path><rect x="17" y="58" width="4" height="2"></rect><rect x="25" y="24" width="2" height="6"></rect><path d="M21,22.944l2.686-.893A.99.99,0,0,1,24,22h1V18.386l-4,1.332Z"></path><path d="M24.181,16.551l1.5-.5A.988.988,0,0,1,26,16h1V10.618l-.234.117Z"></path><rect x="29" y="3" width="2" height="5"></rect></g></svg>