<svg xmlns="http://www.w3.org/2000/svg" viewBox="0 0 64 64" x="0px" y="0px"><g><path d="M31,23v1a3,3,0,0,0,0,6h2a1,1,0,0,1,0,2H31a1,1,0,0,1-1-1H28a3,3,0,0,0,3,3v1h2V34a3,3,0,0,0,0-6H31a1,1,0,0,1,0-2h2a1,1,0,0,1,1,1h2a3,3,0,0,0-3-3V23Z"></path><path d="M22,29A10,10,0,1,0,32,19,10.011,10.011,0,0,0,22,29Zm18,0a8,8,0,1,1-8-8A8.009,8.009,0,0,1,40,29Z"></path><path d="M55.4,12.083l-23-10a1.006,1.006,0,0,0-.8,0l-23,10A1,1,0,0,0,8,13V27.87a30.9,30.9,0,0,0,11.257,23.9l12.106,10a1,1,0,0,0,1.274,0l12.106-10A30.9,30.9,0,0,0,56,27.87V13A1,1,0,0,0,55.4,12.083ZM54,27.87A28.909,28.909,0,0,1,43.47,50.228L32,59.7,20.53,50.228A28.909,28.909,0,0,1,10,27.87V13.656L32,4.09l22,9.566Z"></path><path d="M31.6,8.625l-17,7.392a1,1,0,0,0-.6.917V27.87a24.922,24.922,0,0,0,9.078,19.274l8.285,6.844a1,1,0,0,0,1.274,0l8.285-6.843A24.926,24.926,0,0,0,50,27.87V16.934a1,1,0,0,0-.6-.917l-17-7.392A1.006,1.006,0,0,0,31.6,8.625ZM48,17.59V27.87A22.931,22.931,0,0,1,39.648,45.6L32,51.92,24.352,45.6A22.926,22.926,0,0,1,16,27.87V17.59l16-6.957Z"></path></g></svg>