<svg xmlns="http://www.w3.org/2000/svg" viewBox="0 0 64 64" x="0px" y="0px"><rect x="24" y="22" width="5" height="4"></rect><path d="M32,27a1.03,1.03,0,0,1,.45.11l.55.27V22H31v5.38l.55-.27A1.03,1.03,0,0,1,32,27Z"></path><path d="M34,54H30a1,1,0,0,0,0,2h4a1,1,0,0,0,0-2Z"></path><rect x="35" y="22" width="5" height="4"></rect><path d="M40,28H35v1a1,1,0,0,1-.47.85A1.014,1.014,0,0,1,34,30a1.03,1.03,0,0,1-.45-.11L32,29.12l-1.55.77A1,1,0,0,1,29,29V28H24V38H40Z"></path><path d="M49,4H15a5,5,0,0,0-5,5V34h8v2H10V55a5,5,0,0,0,5,5H49a5,5,0,0,0,5-5V9A5,5,0,0,0,49,4ZM29,6h6V8H29ZM25,6h2V8H25ZM18,32H12V30h6Zm0-4H14V26h4ZM34,58H30a3,3,0,0,1,0-6h4a3,3,0,0,1,0,6Zm8-19a1,1,0,0,1-1,1H23a1,1,0,0,1-1-1V21a1,1,0,0,1,1-1H41a1,1,0,0,1,1,1Z"></path><rect x="6" y="34" width="2" height="2"></rect></svg>