<svg xmlns="http://www.w3.org/2000/svg" viewBox="0 0 64 64" x="0px" y="0px"><g><rect x="10" y="47" width="2" height="2"></rect><rect x="14" y="47" width="10" height="2"></rect><path d="M47,34a8,8,0,1,0,8,8A8.009,8.009,0,0,0,47,34Zm-1,7h2a3,3,0,0,1,0,6v1H46V47a3,3,0,0,1-3-3h2a1,1,0,0,0,1,1h2a1,1,0,0,0,0-2H46a3,3,0,0,1,0-6V36h2v1a3,3,0,0,1,3,3H49a1,1,0,0,0-1-1H46a1,1,0,0,0,0,2Z"></path><path d="M5,41H32.051A14.941,14.941,0,0,1,52,27.875V14.589L31.029,24.655a6.966,6.966,0,0,1-6.058,0L4,14.589V40A1,1,0,0,0,5,41ZM6,30H8v2H6Zm0,4H8v2a1,1,0,0,0,1,1h2v2H9a3,3,0,0,1-3-3Z"></path><path d="M4,12.371,25.836,22.853a4.985,4.985,0,0,0,4.328,0L52,12.371V10a1,1,0,0,0-1-1H5a1,1,0,0,0-1,1Z"></path><path d="M47,29A13,13,0,1,0,60,42,13.015,13.015,0,0,0,47,29Zm0,23A10,10,0,1,1,57,42,10.011,10.011,0,0,1,47,52Z"></path></g></svg>