<svg xmlns="http://www.w3.org/2000/svg" viewBox="0 0 64 64" x="0px" y="0px"><g data-name="Black Board"><rect x="12" y="31" width="1" height="6"></rect><path d="M10,38V30a1,1,0,0,1,1-1h3a1,1,0,0,1,1,1v8a1,1,0,0,1-1,1H56V4H8V39h3A1,1,0,0,1,10,38ZM21,11H49v2H21Zm-6,0h4v2H15Zm0,8H49v2H15Zm0,8H49v2H15Z"></path><rect x="4" y="41" width="56" height="2"></rect><polygon points="51.664 60 47.252 45 45.336 45 49.748 60 14.252 60 18.664 45 16.748 45 12.336 60 2 60 2 62 62 62 62 60 51.664 60"></polygon></g></svg>