<svg xmlns="http://www.w3.org/2000/svg" viewBox="0 0 64 64" x="0px" y="0px"><g><path d="M47,30H45V28a2.006,2.006,0,0,0-2-2H35a2.006,2.006,0,0,0-2,2v2H31V28a2.006,2.006,0,0,0-2-2H21a2.006,2.006,0,0,0-2,2v2H17a3.009,3.009,0,0,0-3,3V55a3.009,3.009,0,0,0,3,3h1v3a1,1,0,0,0,1,1h4a.977.977,0,0,0,.89-.55L25.62,58H38.38l1.73,3.45A.988.988,0,0,0,41,62h4a1,1,0,0,0,1-1V58h1a3.009,3.009,0,0,0,3-3V33A3.009,3.009,0,0,0,47,30ZM35,28h8v2H35ZM21,28h8v2H21Zm1.38,32H20V58h3.38ZM44,60H41.62l-1-2H44Zm4-5a1,1,0,0,1-1,1H17a1,1,0,0,1-1-1V40H48Zm0-17H16V33a1,1,0,0,1,1-1H47a1,1,0,0,1,1,1Z"></path><rect x="22" y="34" width="2" height="2"></rect><rect x="26" y="34" width="2" height="2"></rect><rect x="36" y="34" width="2" height="2"></rect><rect x="40" y="34" width="2" height="2"></rect><path d="M43,42H21a3,3,0,0,0-3,3v6a3,3,0,0,0,3,3H43a3,3,0,0,0,3-3V45A3,3,0,0,0,43,42Zm1,9a1,1,0,0,1-1,1H21a1,1,0,0,1-1-1V45a1,1,0,0,1,1-1H43a1,1,0,0,1,1,1Z"></path><rect x="30" y="46" width="4" height="2"></rect><path d="M48,14H46.38L38,6.55V3a1,1,0,0,0-1-1H27a1,1,0,0,0-1,1V6.55L17.62,14H16a1,1,0,0,0-1,1v4a1,1,0,0,0,1,1H48a1,1,0,0,0,1-1V15A1,1,0,0,0,48,14ZM28,4h8V6H28Zm-.62,4h9.24l6.75,6H20.63ZM47,18H17V16H47Z"></path><rect x="22" y="22" width="2" height="2"></rect><rect x="26" y="22" width="2" height="2"></rect><rect x="36" y="22" width="2" height="2"></rect><rect x="40" y="22" width="2" height="2"></rect></g></svg>