<svg xmlns="http://www.w3.org/2000/svg" viewBox="0 0 64 64" x="0px" y="0px"><g><path d="M48.3,41.683l-1.941-.509c-.046-.06-.093-.118-.143-.174a2.954,2.954,0,0,0,0-4A2.936,2.936,0,0,0,47,35a2.985,2.985,0,0,0-.519-1.684,5.123,5.123,0,0,0,1.061-.784A5.01,5.01,0,0,0,49,29a3.96,3.96,0,0,0-.965-2.575A3.951,3.951,0,0,0,49,20.382V19a17,17,0,0,0-34,0v1.382A3.98,3.98,0,0,0,18,27h.332A14.029,14.029,0,0,0,25,36.106v3.123l-9.3,2.454A12.991,12.991,0,0,0,6,54.25V61a1,1,0,0,0,1,1H57a1,1,0,0,0,1-1V54.25A12.991,12.991,0,0,0,48.3,41.683ZM43,53.588c-1.417-1.481-3-3.537-3-4.588a3,3,0,0,1,6,0C46,50.049,44.417,52.105,43,53.588ZM42,44a1,1,0,0,1,0-2h2a1,1,0,0,1,0,2Zm-3-5V36.106c.062-.036.122-.075.183-.111A3,3,0,0,0,39.78,37,2.981,2.981,0,0,0,39,39c0,.081.018.157.024.236L39,39.229Zm6,0a1,1,0,0,1-1,1H42a.985.985,0,0,1-.335-.068l-.062-.016A1,1,0,0,1,42,38h2A1,1,0,0,1,45,39Zm0-4a.978.978,0,0,1-.306.713A.965.965,0,0,1,44,36H42a1,1,0,0,1-1-1,.89.89,0,0,1,.091-.375q.319-.273.623-.565A1,1,0,0,1,42,34h2A1,1,0,0,1,45,35Zm1.128-3.882A3.018,3.018,0,0,1,44,32h-.527a13.918,13.918,0,0,0,2.166-4.886A2,2,0,0,1,47,29,3.01,3.01,0,0,1,46.128,31.118ZM48,23a2,2,0,0,1-2,2V21A2,2,0,0,1,48,23ZM32,4A15.017,15.017,0,0,1,47,19v.142A3.939,3.939,0,0,0,46,19V17a1,1,0,0,0-1-1c-4.18,0-6.021-6.213-6.039-6.276a1,1,0,0,0-1.668-.431A23.2,23.2,0,0,1,19.14,16.01a.984.984,0,0,0-.8.236A1,1,0,0,0,18,17v2a3.939,3.939,0,0,0-1,.142V19A15.017,15.017,0,0,1,32,4ZM18,25a2,2,0,0,1,0-4v4Zm2-1V18.087a24.993,24.993,0,0,0,17.584-6.32c.879,2.063,2.874,5.584,6.416,6.154V24a12,12,0,0,1-24,0Zm6.255,16.967A1,1,0,0,0,27,40V37.061a13.782,13.782,0,0,0,10,0V40a1,1,0,0,0,.745.967l1.716.452a2.974,2.974,0,0,0,.421,3.7c-.116.094-.238.182-.346.286A17.779,17.779,0,0,1,32,47c-5.028,0-9.5-1.878-11.233-4.586ZM8,54.25a10.99,10.99,0,0,1,8.2-10.633l2.555-.674C20.662,46.549,25.923,49,32,49a20.71,20.71,0,0,0,6.09-.888A5,5,0,0,0,38,49c0,2.512,3.592,6.043,4.312,6.726a1,1,0,0,0,1.376,0c.238-.226.791-.766,1.422-1.473a1,1,0,0,0,.391.423A5,5,0,0,1,48,59a4.827,4.827,0,0,1-.114,1H16.114A4.827,4.827,0,0,1,16,59a5,5,0,0,1,2.5-4.323,1,1,0,0,0,.5-.867V51H17v2.261A7.009,7.009,0,0,0,14,59a6.931,6.931,0,0,0,.086,1H8ZM56,60H49.914A6.931,6.931,0,0,0,50,59a7.009,7.009,0,0,0-3-5.739V51.77A5.672,5.672,0,0,0,48,49a4.971,4.971,0,0,0-1.882-3.877A2.99,2.99,0,0,0,46.96,43.4l.837.219A10.989,10.989,0,0,1,56,54.25Z"></path><path d="M32,27a3,3,0,0,0,3-3V20H33v4a1,1,0,0,1-2,0V20H29v4A3,3,0,0,0,32,27Z"></path><path d="M37.29,20.71a1.014,1.014,0,0,0,1.42,0,1.169,1.169,0,0,0,.21-.33.942.942,0,0,0,0-.76,1.032,1.032,0,0,0-.21-.33,1.155,1.155,0,0,0-.33-.21,1,1,0,0,0-1.09.21,1.155,1.155,0,0,0-.21.33.943.943,0,0,0,0,.76A1.169,1.169,0,0,0,37.29,20.71Z"></path><path d="M26.71,20.71a1.169,1.169,0,0,0,.21-.33.942.942,0,0,0,0-.76,1.032,1.032,0,0,0-.21-.33,1.155,1.155,0,0,0-.33-.21.916.916,0,0,0-.76,0,1.155,1.155,0,0,0-.33.21,1.032,1.032,0,0,0-.21.33.943.943,0,0,0,0,.76,1.169,1.169,0,0,0,.21.33,1.155,1.155,0,0,0,.33.21.943.943,0,0,0,.76,0A1.155,1.155,0,0,0,26.71,20.71Z"></path><path d="M37.953,29.655l-1.511-1.31A5.992,5.992,0,0,1,32,30a5.992,5.992,0,0,1-4.442-1.655l-1.511,1.31A7.9,7.9,0,0,0,32,32,7.9,7.9,0,0,0,37.953,29.655Z"></path></g></svg>