<svg xmlns="http://www.w3.org/2000/svg" viewBox="0 0 64 64" x="0px" y="0px"><path d="M60,60V32H36.439L36,35.073v3.879L37.913,60H42V53a1,1,0,0,1,1-1H55a1,1,0,0,1,1,1v7ZM50,36a1,1,0,0,1,1-1h4a1,1,0,0,1,1,1v4a1,1,0,0,1-1,1H51a1,1,0,0,1-1-1ZM48,48a1,1,0,0,1-1,1H43a1,1,0,0,1-1-1V44a1,1,0,0,1,1-1h4a1,1,0,0,1,1,1Zm0-8a1,1,0,0,1-1,1H43a1,1,0,0,1-1-1V36a1,1,0,0,1,1-1h4a1,1,0,0,1,1,1Zm7,9H51a1,1,0,0,1-1-1V44a1,1,0,0,1,1-1h4a1,1,0,0,1,1,1v4A1,1,0,0,1,55,49Z"></path><polygon points="20.78 32 5.22 32 6.819 40 19.181 40 20.78 32"></polygon><rect x="44" y="54" width="10" height="6"></rect><rect x="52" y="45" width="2" height="2"></rect><rect x="52" y="37" width="2" height="2"></rect><rect x="44" y="37" width="2" height="2"></rect><rect x="44" y="45" width="2" height="2"></rect><rect x="7" y="42" width="12" height="2"></rect><polygon points="19.117 46 6.883 46 5.133 60 20.867 60 19.117 46"></polygon><rect x="17" y="18" width="20" height="2"></rect><path d="M23,26a1,1,0,0,1,1,1v4a1,1,0,0,1-1,1h-.18l-.4,2H34.133l1.714-12H18.153l.574,4Z"></path><rect x="4" y="28" width="18" height="2"></rect><polygon points="21.62 38 34 38 34 36 22.02 36 21.62 38"></polygon><polygon points="35.905 60 34.087 40 21.22 40 21 41.099 21 44.938 22.883 60 35.905 60"></polygon><path d="M4.2,23h2c0-.409.134-.569.521-.973a3.117,3.117,0,0,0,0-4.716c-.388-.405-.522-.565-.522-.976s.134-.571.522-.975A3.149,3.149,0,0,0,7.8,13h-2c0,.411-.134.571-.522.976a3.121,3.121,0,0,0,0,4.719c.388.4.522.565.522.975s-.134.569-.521.973A3.139,3.139,0,0,0,4.2,23Z"></path><path d="M9.2,23h2c0-.409.134-.569.521-.973a3.117,3.117,0,0,0,0-4.716c-.388-.405-.522-.565-.522-.976s.134-.571.522-.975A3.149,3.149,0,0,0,12.8,13h-2c0,.411-.134.571-.522.976a3.121,3.121,0,0,0,0,4.719c.388.4.522.565.522.975s-.134.569-.521.973A3.139,3.139,0,0,0,9.2,23Z"></path><path d="M19.2,12h2c0-.409.134-.569.521-.973a3.117,3.117,0,0,0,0-4.716c-.388-.405-.522-.565-.522-.976s.134-.571.522-.975A3.149,3.149,0,0,0,22.8,2h-2c0,.411-.134.571-.522.976a3.121,3.121,0,0,0,0,4.719c.388.4.522.565.522.975s-.134.569-.521.973A3.139,3.139,0,0,0,19.2,12Z"></path><path d="M25.2,12h2c0-.409.134-.569.521-.973a3.117,3.117,0,0,0,0-4.716c-.388-.405-.522-.565-.522-.976s.134-.571.522-.975A3.149,3.149,0,0,0,28.8,2h-2c0,.411-.134.571-.522.976a3.121,3.121,0,0,0,0,4.719c.388.4.522.565.522.975s-.134.569-.521.973A3.139,3.139,0,0,0,25.2,12Z"></path><path d="M31.2,12h2c0-.409.134-.569.521-.973a3.117,3.117,0,0,0,0-4.716c-.388-.405-.522-.565-.522-.976s.134-.571.522-.975A3.149,3.149,0,0,0,34.8,2h-2c0,.411-.134.571-.522.976a3.121,3.121,0,0,0,0,4.719c.388.4.522.565.522.975s-.134.569-.521.973A3.139,3.139,0,0,0,31.2,12Z"></path></svg>