<svg xmlns="http://www.w3.org/2000/svg" viewBox="0 0 64 64" x="0px" y="0px"><g data-name="Shopping"><path d="M15,25a3,3,0,0,0,3-3V21H12v1A3,3,0,0,0,15,25Z"></path><rect x="14" y="36" width="10" height="16"></rect><polygon points="9.618 5 4.618 15 57.382 15 52.382 5 9.618 5"></polygon><path d="M10,22V21H4v1a3,3,0,0,0,6,0Z"></path><rect x="4" y="17" width="54" height="2"></rect><path d="M31,25a3,3,0,0,0,3-3V21H28v1A3,3,0,0,0,31,25Z"></path><path d="M47,25a3,3,0,0,0,3-3V21H44v1A3,3,0,0,0,47,25Z"></path><path d="M39,25a3,3,0,0,0,3-3V21H36v1A3,3,0,0,0,39,25Z"></path><path d="M23,25a3,3,0,0,0,3-3V21H20v1A3,3,0,0,0,23,25Z"></path><path d="M51,24.97a4.956,4.956,0,0,1-8,0,4.956,4.956,0,0,1-8,0,4.956,4.956,0,0,1-8,0,4.956,4.956,0,0,1-8,0,4.956,4.956,0,0,1-8,0A4.977,4.977,0,0,1,8,26.9V52h4V35a1,1,0,0,1,1-1H25a1,1,0,0,1,1,1V52h2V44a3.009,3.009,0,0,1,3-3H54V26.9A4.977,4.977,0,0,1,51,24.97ZM50,39H48V36H32v3H30V35a1,1,0,0,1,1-1H49a1,1,0,0,1,1,1Z"></path><path d="M59,43H31a1,1,0,0,0-1,1V58a1,1,0,0,0,1,1H59a1,1,0,0,0,1-1V44A1,1,0,0,0,59,43ZM38,52H36V50h2Zm7,4a5,5,0,1,1,5-5A5,5,0,0,1,45,56Zm9-4H52V50h2Z"></path><circle cx="45" cy="51" r="3"></circle><path d="M55,25a3,3,0,0,0,3-3V21H52v1A3,3,0,0,0,55,25Z"></path></g></svg>