<svg xmlns="http://www.w3.org/2000/svg" viewBox="0 0 64 64" x="0px" y="0px"><g data-name="Hacker"><path d="M39.1,14.939A9.936,9.936,0,0,0,32.028,12h-.014a10.017,10.017,0,0,0-9.8,8h19.6A9.926,9.926,0,0,0,39.1,14.939Z"></path><path d="M31,47.58,26.485,45H6.827A4.269,4.269,0,0,0,6,46.062V48H31Z"></path><circle cx="37" cy="23" r="1"></circle><circle cx="27" cy="23" r="1"></circle><polygon points="31 50 5.999 50 6 54 14 54 14 51 16 51 16 54 31 54 31 50"></polygon><rect x="6" y="56" width="8" height="4"></rect><path d="M42.014,22.014V22h-2.2A2.966,2.966,0,0,1,40,23a3,3,0,0,1-3,3h5.008Z"></path><polygon points="58 50 33 50 33 54 48 54 48 51 50 51 50 54 58 54 58 50"></polygon><rect x="16" y="56" width="15" height="4"></rect><rect x="50" y="56" width="8" height="4"></rect><polygon points="38 42.42 38 40 26 40 26 42.42 32 45.848 38 42.42"></polygon><path d="M30.358,4.076c-9.156.815-16.339,8.87-16.353,18.339L14,25.974A17.866,17.866,0,0,0,18.619,38l2.818,0A16.045,16.045,0,0,1,16,25.967l.006-4A16.016,16.016,0,0,1,33.881,6.1,16.2,16.2,0,0,1,48,22.418l-.006,3.594a16.041,16.041,0,0,1-5.438,11.983l2.825,0a17.863,17.863,0,0,0,4.613-11.965l.006-4A18.047,18.047,0,0,0,44.151,8.73,17.856,17.856,0,0,0,30.358,4.076Z"></path><path d="M46,39.989,40,40v3H54.417C52.05,41.464,48.88,39.989,46,39.989Z"></path><path d="M58,46.1a4.85,4.85,0,0,0-1-1.137V45H37.515L33,47.58V48H58Z"></path><rect x="33" y="56" width="15" height="4"></rect><path d="M22.009,25.986V26H27a3,3,0,0,1-3-3,2.966,2.966,0,0,1,.184-1h-2.17Z"></path><path d="M31.994,36h.015a10.008,10.008,0,0,0,9.8-8H33.73a1,1,0,0,1-.864-.5,1.029,1.029,0,0,0-1.732,0,1,1,0,0,1-.864.5H22.21A10.017,10.017,0,0,0,31.994,36Z"></path><path d="M29.843,25.929c.055-.058.115-.106.174-.159a2.92,2.92,0,0,1,.383-.293,2.337,2.337,0,0,1,.216-.126,2.808,2.808,0,0,1,.453-.188c.071-.023.139-.051.212-.069a2.8,2.8,0,0,1,1.438,0c.073.018.141.046.212.069a2.808,2.808,0,0,1,.453.188,2.337,2.337,0,0,1,.216.126,2.92,2.92,0,0,1,.383.293c.059.053.119.1.174.159.025.026.054.045.078.071H37a3,3,0,0,1-3-3,2.966,2.966,0,0,1,.184-1H29.816A2.966,2.966,0,0,1,30,23a3,3,0,0,1-3,3h2.765C29.789,25.974,29.818,25.955,29.843,25.929Z"></path><path d="M45.994,26.009,46,22.415A14.2,14.2,0,0,0,33.653,8.084a13.876,13.876,0,0,0-10.946,3.449,14.018,14.018,0,0,0-4.7,10.437l-.006,4a14.04,14.04,0,0,0,6.784,12.009l7,.01A12.007,12.007,0,0,1,20.009,25.983l0-4A12,12,0,0,1,32.013,10h.018A12,12,0,0,1,44.014,22.017l-.006,4A11.985,11.985,0,0,1,32.223,37.99l6.953.01A14.045,14.045,0,0,0,45.994,26.009Z"></path><path d="M9.229,43H24V39.991L18,40A15.782,15.782,0,0,0,9.229,43Z"></path></g></svg>