<svg xmlns="http://www.w3.org/2000/svg" viewBox="0 0 64 64" x="0px" y="0px"><g><polygon points="26.414 6 22.414 10 49.586 10 45.586 6 26.414 6"></polygon><path d="M21,15a3,3,0,0,0,6,0h2a3,3,0,0,0,6,0h2a3,3,0,0,0,6,0h2a3,3,0,0,0,6,0V12H21Z"></path><path d="M48,38a1,1,0,0,0,1-1V19.9a4.962,4.962,0,0,1-5-1.93,4.954,4.954,0,0,1-8,0,4.954,4.954,0,0,1-8,0,4.962,4.962,0,0,1-5,1.93V34h2.159l.656-3.713a2.981,2.981,0,0,1,1.243-1.947,2.951,2.951,0,0,1,2.234-.484A2.99,2.99,0,0,1,31.77,30.8a3.047,3.047,0,0,1-.043.511L31.251,34H33a2.981,2.981,0,0,1,2,.78V25a1,1,0,0,1,1-1H46a1,1,0,0,1,1,1V38Z"></path><rect x="58" y="35" width="2" height="12"></rect><rect x="37" y="26" width="8" height="12"></rect><path d="M60,27a3,3,0,0,0-3-3H51V37a3,3,0,0,1-3,3H32.926l-.719,9.3A5,5,0,0,1,27.216,54H14.784a5,5,0,0,1-4.992-4.723L9.074,40H9a3,3,0,0,1-3-3,3.015,3.015,0,0,1,3-3h1.749l-.474-2.676a3.109,3.109,0,0,1-.045-.524,2.991,2.991,0,0,1,2.488-2.945,2.93,2.93,0,0,1,2.224.485,2.981,2.981,0,0,1,1.243,1.948L16.841,34H21V24H7a3,3,0,0,0-3,3V55a3,3,0,0,0,3,3H57a3,3,0,0,0,3-3V49H58a2,2,0,0,1-2-2V35a2,2,0,0,1,2-2h2ZM51,54H39V52H51Zm0-4H39V48H51Zm0-4H39V44H51Z"></path><polygon points="17.548 38 24.452 38 24.805 36 17.195 36 17.548 38"></polygon><path d="M15.518,38l-1.3-7.367a1,1,0,0,0-.414-.651.965.965,0,0,0-.729-.159,1,1,0,0,0-.842.977,1.1,1.1,0,0,0,.017.189L13.488,38Z"></path><path d="M9,36a.957.957,0,0,0-.694.288A.974.974,0,0,0,8,37a1,1,0,0,0,1,1h2.457L11.1,36Z"></path><path d="M29.77,30.8a.994.994,0,0,0-.832-.975.977.977,0,0,0-.739.157,1,1,0,0,0-.414.65L26.482,38h2.03l1.243-7.024A1.032,1.032,0,0,0,29.77,30.8Z"></path><path d="M33,38a.957.957,0,0,0,.694-.288A.974.974,0,0,0,34,37a1,1,0,0,0-1-1H30.9l-.355,2H33Z"></path><path d="M14.784,52H27.216a3,3,0,0,0,2.995-2.834L30.92,40H11.08l.707,9.145A3.007,3.007,0,0,0,14.784,52ZM25,42h2v8H25Zm-5,0h2v8H20Zm-5,0h2v8H15Z"></path></g></svg>