<svg xmlns="http://www.w3.org/2000/svg" viewBox="0 0 64 64" x="0px" y="0px"><g><path d="M54,8h-.1A4.779,4.779,0,0,0,54,7a5,5,0,0,0-9.59-1.97A2.728,2.728,0,0,0,44,5a3.009,3.009,0,0,0-3,3H40a4,4,0,0,0,0,8H54a4,4,0,0,0,0-8Zm0,6H40a2,2,0,0,1,0-4h2.28a.976.976,0,0,0,.86-.5.993.993,0,0,0,0-1,.991.991,0,0,1,1.39-1.34,1,1,0,0,0,1.52-.67A3,3,0,0,1,52,7a2.936,2.936,0,0,1-.42,1.5.993.993,0,0,0,0,1,1,1,0,0,0,.87.5H54a2,2,0,0,1,0,4Z"></path><path d="M20,54h-.1a4.779,4.779,0,0,0,.1-1,5,5,0,0,0-9.59-1.97A2.728,2.728,0,0,0,10,51a3.009,3.009,0,0,0-3,3H6a4,4,0,0,0,0,8H20a4,4,0,0,0,0-8Zm0,6H6a2,2,0,0,1,0-4H8.28a.976.976,0,0,0,.86-.5.993.993,0,0,0,0-1,.991.991,0,0,1,1.39-1.34,1,1,0,0,0,1.52-.67A3,3,0,0,1,18,53a2.936,2.936,0,0,1-.42,1.5.993.993,0,0,0,0,1,1,1,0,0,0,.87.5H20a2,2,0,0,1,0,4Z"></path><path d="M61.51,29.14l-5-3A1,1,0,0,0,56,26H44.27L30.5,18.13A1.094,1.094,0,0,0,30,18H22a1,1,0,0,0-.94.67.983.983,0,0,0,.32,1.11L29.15,26H16.78l-1.81-7.24A1,1,0,0,0,14,18H8a1,1,0,0,0-1,1V33a5,5,0,0,0,5,5H27.07l-5.92,9.47A1.008,1.008,0,0,0,22,49h8a.981.981,0,0,0,.75-.34L40.08,38H57a5,5,0,0,0,5-5V30A.99.99,0,0,0,61.51,29.14ZM24.85,20h4.88l10.5,6H32.35Zm4.7,27H23.8l8.75-14H41.8ZM60,31H55v2h5a3.009,3.009,0,0,1-3,3H41.83l2.92-3.34A1,1,0,0,0,44,31H32a1.012,1.012,0,0,0-.85.47L28.32,36H12a3.009,3.009,0,0,1-3-3V20h4.22l1.81,7.24A1,1,0,0,0,16,28H55.72L60,30.57Z"></path><rect x="51" y="31" width="2" height="2"></rect><rect x="47" y="31" width="2" height="2"></rect><rect x="27" y="31" width="2" height="2"></rect><rect x="23" y="31" width="2" height="2"></rect><rect x="19" y="31" width="2" height="2"></rect><rect x="19" y="12" width="8" height="2"></rect><rect x="15" y="12" width="2" height="2"></rect><rect x="15" y="8" width="8" height="2"></rect><rect x="11" y="8" width="2" height="2"></rect><rect x="10" y="44" width="8" height="2"></rect><rect x="6" y="44" width="2" height="2"></rect><rect x="6" y="40" width="8" height="2"></rect><rect x="2" y="40" width="2" height="2"></rect></g></svg>