<svg xmlns="http://www.w3.org/2000/svg" viewBox="0 0 64 64" x="0px" y="0px"><g data-name="Blogger-Content-Copywriter-Influencer-Trending Topic"><rect x="42" y="44" width="4" height="8"></rect><path d="M28,49c0-1.22-.59-2-1-2V45a2.615,2.615,0,0,1,2,1.02V41.29a4.656,4.656,0,0,0-.61-.26l-2.78-1.01A8.3,8.3,0,0,1,20,42a8.3,8.3,0,0,1-5.61-1.98l-2.78,1.01A6.988,6.988,0,0,0,7,47.6V48h3.1c.33-1.74,1.48-3,2.9-3v2c-.41,0-1,.78-1,2s.59,2,1,2h3a4.994,4.994,0,0,1,4,2.03A4.994,4.994,0,0,1,24,51h3C27.41,51,28,50.22,28,49Z"></path><path d="M27,53v3h1a5,5,0,0,0,5-5V50H29.9C29.57,51.74,28.42,53,27,53Z"></path><path d="M49,55a1,1,0,0,0-1-1H40a1,1,0,0,0-1,1v1H49Z"></path><path d="M11.47,38.95,16,37.3V34.92a7.74,7.74,0,0,1-1.66-1.26A7.949,7.949,0,0,1,12,28V26.18a1,1,0,0,1-.68.95A1.966,1.966,0,0,0,10,29a2.13,2.13,0,0,0,.34,1.13.958.958,0,0,1,.13.77.988.988,0,0,1-.47.64,3.987,3.987,0,0,0,1.47,7.41Z"></path><path d="M56,32H32a1,1,0,0,0-1,1V47a1,1,0,0,0,1,1h8V43a1,1,0,0,1,1-1h6a1,1,0,0,1,1,1v5h8a1,1,0,0,0,1-1V33A1,1,0,0,0,56,32Z"></path><path d="M28,26.18V28a8.005,8.005,0,0,1-4,6.92V37.3l4.53,1.65a3.545,3.545,0,0,0,.47-.08V33a2.964,2.964,0,0,1,.65-1.84.823.823,0,0,1-.12-.25.974.974,0,0,1,.13-.78A2.13,2.13,0,0,0,30,29a1.966,1.966,0,0,0-1.32-1.87A1,1,0,0,1,28,26.18Z"></path><path d="M12,23.63a.985.985,0,0,1,.46-.84,1.023,1.023,0,0,1,.96-.07A3.589,3.589,0,0,0,15,23a8.622,8.622,0,0,0,3.61-.92A10.362,10.362,0,0,1,23,21a5.178,5.178,0,0,1,3.6,1.2,4.513,4.513,0,0,0,.82.52,1,1,0,0,1,.58.91V23a8.011,8.011,0,0,0-8-8,8.006,8.006,0,0,0-8,8Z"></path><path d="M13,56V53c-1.42,0-2.57-1.26-2.9-3H7v1a5,5,0,0,0,5,5Z"></path><path d="M26,28V24.22c-.22-.14-.42-.29-.6-.42A3.237,3.237,0,0,0,23,23a8.622,8.622,0,0,0-3.61.92A10.362,10.362,0,0,1,15,25a7.792,7.792,0,0,1-1-.06V28a6.009,6.009,0,0,0,6,6A6,6,0,0,0,26,28Zm-4-2h2v2H22Zm-4,2H16V26h2Z"></path><rect x="4" y="58" width="56" height="2"></rect><path d="M23.35,39.19l-.69-.25A.992.992,0,0,1,22,38V35.74A8.242,8.242,0,0,1,20,36a7.9,7.9,0,0,1-2-.26V38a.992.992,0,0,1-.66.94l-.69.25a7.332,7.332,0,0,0,6.7,0Z"></path><path d="M15,53v3h4a3.009,3.009,0,0,0-3-3Z"></path><path d="M21,56h4V53H24A3.009,3.009,0,0,0,21,56Z"></path></g></svg>