<svg xmlns="http://www.w3.org/2000/svg" viewBox="0 0 64 64" x="0px" y="0px"><g><path d="M34,34a3,3,0,1,0-3-3A3,3,0,0,0,34,34Zm0-4a1,1,0,1,1-1,1A1,1,0,0,1,34,30Z"></path><rect x="53" y="30" width="2" height="2"></rect><rect x="49" y="30" width="2" height="2"></rect><rect x="45" y="30" width="2" height="2"></rect><path d="M34,40a3,3,0,1,0,3,3A3,3,0,0,0,34,40Zm0,4a1,1,0,1,1,1-1A1,1,0,0,1,34,44Z"></path><rect x="53" y="42" width="2" height="2"></rect><rect x="49" y="42" width="2" height="2"></rect><rect x="45" y="42" width="2" height="2"></rect><rect x="41" y="42" width="2" height="2"></rect><rect x="41" y="30" width="2" height="2"></rect><path d="M59,15a3,3,0,0,0-3-3H43V7a5.006,5.006,0,0,0-5-5H10A5.006,5.006,0,0,0,5,7V57a5.006,5.006,0,0,0,5,5H38a5.006,5.006,0,0,0,5-5V50H56a3,3,0,0,0,3-3V39a2.981,2.981,0,0,0-.78-2A2.981,2.981,0,0,0,59,35V27a2.981,2.981,0,0,0-.78-2A2.981,2.981,0,0,0,59,23Zm-2,0v8a1,1,0,0,1-1,1H30a1,1,0,0,1-1-1V15a1,1,0,0,1,1-1H56A1,1,0,0,1,57,15Zm0,12v8a1,1,0,0,1-1,1H30a1,1,0,0,1-1-1V27a1,1,0,0,1,1-1H56A1,1,0,0,1,57,27ZM17,4H31V5a1,1,0,0,1-1,1H18a1,1,0,0,1-1-1ZM41,57a3,3,0,0,1-3,3H10a3,3,0,0,1-3-3V7a3,3,0,0,1,3-3h5V5a3,3,0,0,0,3,3H30a3,3,0,0,0,3-3V4h5a3,3,0,0,1,3,3v5H30a3,3,0,0,0-3,3v8a2.981,2.981,0,0,0,.78,2A2.981,2.981,0,0,0,27,27v8a2.981,2.981,0,0,0,.78,2A2.981,2.981,0,0,0,27,39v8a3,3,0,0,0,3,3H41ZM57,47a1,1,0,0,1-1,1H30a1,1,0,0,1-1-1V39a1,1,0,0,1,1-1H56a1,1,0,0,1,1,1Z"></path><path d="M34,22a3,3,0,1,0-3-3A3,3,0,0,0,34,22Zm0-4a1,1,0,1,1-1,1A1,1,0,0,1,34,18Z"></path><rect x="53" y="18" width="2" height="2"></rect><rect x="49" y="18" width="2" height="2"></rect><rect x="45" y="18" width="2" height="2"></rect><rect x="41" y="18" width="2" height="2"></rect><rect x="19" y="16" width="4" height="2"></rect><rect x="15" y="16" width="2" height="2"></rect><rect x="11" y="16" width="2" height="2"></rect><rect x="21" y="20" width="4" height="2"></rect><rect x="17" y="20" width="2" height="2"></rect><rect x="13" y="20" width="2" height="2"></rect><rect x="19" y="28" width="4" height="2"></rect><rect x="15" y="28" width="2" height="2"></rect><rect x="11" y="28" width="2" height="2"></rect><rect x="21" y="32" width="4" height="2"></rect><rect x="17" y="32" width="2" height="2"></rect><rect x="13" y="32" width="2" height="2"></rect><rect x="19" y="40" width="4" height="2"></rect><rect x="15" y="40" width="2" height="2"></rect><rect x="11" y="40" width="2" height="2"></rect><rect x="21" y="44" width="4" height="2"></rect><rect x="17" y="44" width="2" height="2"></rect><rect x="13" y="44" width="2" height="2"></rect></g></svg>