<svg xmlns="http://www.w3.org/2000/svg" viewBox="0 0 64 64" x="0px" y="0px"><g><rect x="27" y="50" width="2" height="2"></rect><rect x="13" y="50" width="2" height="2"></rect><path d="M20,48h2a1,1,0,0,1,1,1h2a3,3,0,0,0-3-3V45H20v1a3,3,0,0,0,0,6h2a1,1,0,0,1,0,2H20a1,1,0,0,1-1-1H17a3,3,0,0,0,3,3v1h2V56a3,3,0,0,0,0-6H20a1,1,0,0,1,0-2Z"></path><path d="M49,19h2a1,1,0,0,1,1,1h2a3,3,0,0,0-3-3V16H49v1a3,3,0,0,0,0,6h2a1,1,0,0,1,0,2H49a1,1,0,0,1-1-1H46a3,3,0,0,0,3,3v1h2V27a3,3,0,0,0,0-6H49a1,1,0,0,1,0-2Z"></path><path d="M62,22a12.008,12.008,0,0,0-7-10.895V7a5.006,5.006,0,0,0-5-5H24a5.006,5.006,0,0,0-5,5V30.25A2.145,2.145,0,0,0,18,30a3.786,3.786,0,0,0-2,.632A1.924,1.924,0,0,1,15,31a1,1,0,0,0-.937,1.351L16.181,38H15v1.624A12,12,0,0,0,9,50v5a7.008,7.008,0,0,0,7,7H50a5.006,5.006,0,0,0,5-5V32.9A12.008,12.008,0,0,0,62,22ZM31,4H43V5a1,1,0,0,1-1,1H32a1,1,0,0,1-1-1ZM16.335,32.713A6.715,6.715,0,0,0,17,32.368,1.924,1.924,0,0,1,18,32c.171,0,.5.38.747.659A3.058,3.058,0,0,0,21,34a3.058,3.058,0,0,0,2.253-1.341C23.5,32.38,23.829,32,24,32a1.924,1.924,0,0,1,1,.368,6.715,6.715,0,0,0,.661.345L23.683,38H18.317ZM16,60a5.006,5.006,0,0,1-5-5V50a10.011,10.011,0,0,1,6.21-9.249A4.008,4.008,0,0,0,17,42v1h2V42a2,2,0,0,1,4,0v1h2V42a4.008,4.008,0,0,0-.21-1.249A10.011,10.011,0,0,1,31,50v5a5.006,5.006,0,0,1-5,5Zm37-3a3,3,0,0,1-3,3H30.889A6.973,6.973,0,0,0,33,55V50a12,12,0,0,0-6-10.376V38H25.819l2.118-5.649A1,1,0,0,0,27,31a1.924,1.924,0,0,1-1-.368A3.786,3.786,0,0,0,24,30a3.058,3.058,0,0,0-2.253,1.341C21.5,31.62,21.171,32,21,32V7a3,3,0,0,1,3-3h5V5a3,3,0,0,0,3,3H42a3,3,0,0,0,3-3V4h5a3,3,0,0,1,3,3V10.4A12,12,0,1,0,53,33.6ZM50,32A10,10,0,1,1,60,22,10.011,10.011,0,0,1,50,32Z"></path><path d="M45.219,36.375l-4,5A1,1,0,0,0,42,43h1v7h2V42a1,1,0,0,0-.922-1L46,38.6,47.922,41A1,1,0,0,0,47,42V52h2V43h1a1,1,0,0,0,.781-1.625l-4-5A1.036,1.036,0,0,0,45.219,36.375Z"></path><path d="M36.781,28.375a1.036,1.036,0,0,0-1.562,0l-4,5A1,1,0,0,0,32,35h1v7h2V34a1,1,0,0,0-.922-1L36,30.6,37.922,33A1,1,0,0,0,37,34V44h2V35h1a1,1,0,0,0,.781-1.625Z"></path><path d="M32.9,19.433a1,1,0,0,0-.12-1.058l-4-5a1.036,1.036,0,0,0-1.562,0l-4,5A1,1,0,0,0,24,20h1v7h2V19a1,1,0,0,0-.922-1L28,15.6,29.922,18A1,1,0,0,0,29,19V29h2V20h1A1,1,0,0,0,32.9,19.433Z"></path><rect x="37" y="46" width="2" height="2"></rect><rect x="37" y="50" width="2" height="2"></rect><rect x="47" y="54" width="2" height="2"></rect><rect x="43" y="52" width="2" height="2"></rect></g></svg>