<svg xmlns="http://www.w3.org/2000/svg" viewBox="0 0 64 64" x="0px" y="0px"><g data-name="Sharpener-School Material-Material-Education-Pencil"><path d="M37,35a3,3,0,1,0-3-3A3,3,0,0,0,37,35Zm0-4a1,1,0,1,1-1,1A1,1,0,0,1,37,31Z"></path><path d="M53.22,13.19l.49-.48A1.033,1.033,0,0,0,54,12V5a3.009,3.009,0,0,0-3-3H13a3.009,3.009,0,0,0-3,3v7a1.033,1.033,0,0,0,.29.71l.49.48A10.922,10.922,0,0,1,14,20.97V43.03a10.922,10.922,0,0,1-3.22,7.78l-.49.48A1.033,1.033,0,0,0,10,52v7a3.009,3.009,0,0,0,3,3H51a3.009,3.009,0,0,0,3-3V52a1.033,1.033,0,0,0-.29-.71l-.49-.48A10.922,10.922,0,0,1,50,43.03V20.97A10.922,10.922,0,0,1,53.22,13.19ZM51.81,52.22l.19.19V59a1,1,0,0,1-1,1H13a1,1,0,0,1-1-1V52.41l.19-.19A12.888,12.888,0,0,0,16,43.03V20.97a12.888,12.888,0,0,0-3.81-9.19L12,11.59V5a1,1,0,0,1,1-1H51a1,1,0,0,1,1,1v6.59l-.19.19A12.888,12.888,0,0,0,48,20.97V43.03A12.888,12.888,0,0,0,51.81,52.22Z"></path><path d="M43,8H21a1,1,0,0,0-1,1V55a1,1,0,0,0,1,1H43a1,1,0,0,0,1-1V9A1,1,0,0,0,43,8ZM26,54H22V10h4Zm4,0H28V10h2Zm12,0H32V10H42Z"></path></g></svg>