<svg xmlns="http://www.w3.org/2000/svg" viewBox="0 0 64 64" x="0px" y="0px"><g><rect x="38" y="52" width="10" height="2"></rect><rect x="38" y="48" width="10" height="2"></rect><path d="M55,48a3,3,0,1,0,3,3A3,3,0,0,0,55,48Zm0,4a1,1,0,1,1,1-1A1,1,0,0,1,55,52Z"></path><path d="M31,48a3,3,0,1,0,3,3A3,3,0,0,0,31,48Zm0,4a1,1,0,1,1,1-1A1,1,0,0,1,31,52Z"></path><path d="M63,43a3.009,3.009,0,0,0-3-3,2.942,2.942,0,0,0-1.62.49L56.96,36.7l-.8-3.19A1.992,1.992,0,0,0,54.22,32H49V29a1,1,0,0,0-1-1H38a1,1,0,0,0-1,1v3H31.78a1.992,1.992,0,0,0-1.94,1.51l-.8,3.19-1.42,3.79A2.942,2.942,0,0,0,26,40a3,3,0,0,0-1.6,5.53A2.942,2.942,0,0,0,24,47V60a2.006,2.006,0,0,0,2,2h4a2.006,2.006,0,0,0,2-2V58H54v2a2.006,2.006,0,0,0,2,2h4a2.006,2.006,0,0,0,2-2V47a2.942,2.942,0,0,0-.4-1.47A2.983,2.983,0,0,0,63,43ZM39,30h8v2H39Zm-7.22,4H54.22l.5,2H31.28Zm-1.09,4H55.31l2.25,6H39.86a3.983,3.983,0,0,0-7.72,0h-3.7Zm7.03,6H34.28a1.979,1.979,0,0,1,3.44,0ZM25,43a1,1,0,0,1,1-1,.993.993,0,0,1,.86.51l-.53,1.43A.96.96,0,0,1,26,44,1,1,0,0,1,25,43Zm5,17H26V57.82A3,3,0,0,0,27,58h3Zm30,0H56V58h3a3,3,0,0,0,1-.18Zm0-5a1,1,0,0,1-1,1H27a1,1,0,0,1-1-1V47a1,1,0,0,1,1-1H59a1,1,0,0,1,1,1Zm0-11a.96.96,0,0,1-.33-.06l-.53-1.43A.973.973,0,0,1,60,42a1,1,0,0,1,0,2Z"></path><path d="M4,56V8A4,4,0,0,1,8,4H36a4,4,0,0,1,4,4V26h2V8a6.006,6.006,0,0,0-6-6H8A6.006,6.006,0,0,0,2,8V56a6.006,6.006,0,0,0,6,6H22V60H8A4,4,0,0,1,4,56Z"></path><path d="M36,60H34v2h2a5.954,5.954,0,0,0,3.6-1.2l-1.2-1.6A3.963,3.963,0,0,1,36,60Z"></path><path d="M17,55a3,3,0,0,0,3,3h2V56H20a1,1,0,0,1,0-2h2V52H20A3,3,0,0,0,17,55Z"></path><rect x="15" y="6" width="2" height="2"></rect><rect x="19" y="6" width="6" height="2"></rect><path d="M8,24c0,5.319,7.916,14.285,8.252,14.665a1,1,0,0,0,1.5,0C18.084,38.285,26,29.319,26,24A9,9,0,0,0,8,24Zm9-7a7.008,7.008,0,0,1,7,7c0,3.4-4.521,9.507-7,12.467C14.521,33.507,10,27.4,10,24A7.008,7.008,0,0,1,17,17Z"></path><path d="M17,26a3,3,0,1,0-3-3A3,3,0,0,0,17,26Zm0-4a1,1,0,1,1-1,1A1,1,0,0,1,17,22Z"></path></g></svg>