<svg xmlns="http://www.w3.org/2000/svg" viewBox="0 0 64 64" x="0px" y="0px"><g data-name="Capsule Hostel"><path d="M62,32A30,30,0,1,0,32,62c.36,0,.686-.007,1-.018V62h2V60H45v2h2V57.968A30,30,0,0,0,62,32ZM45,50H35V48H45Zm0-4H35V44H45Zm0-4H35V40H45ZM35,52H45v2H35ZM45,38H35V36H45ZM4.079,34C4.032,33.339,4,32.673,4,32H60c0,.671-.027,1.337-.074,2ZM8,29a1,1,0,0,1,1-1h6a1,1,0,0,1,0,2H9A1,1,0,0,1,8,29Zm14,0a1,1,0,0,1,1-1H55a1,1,0,0,1,0,2H23A1,1,0,0,1,22,29ZM32,4A28.031,28.031,0,0,1,59.921,30h-2.1A2.966,2.966,0,0,0,58,29a3,3,0,0,0-3-3H23a3,3,0,0,0-3,3,2.966,2.966,0,0,0,.184,1H17.816A2.966,2.966,0,0,0,18,29a3,3,0,0,0-3-3H9a3,3,0,0,0-3,3,2.966,2.966,0,0,0,.184,1H4.079A28.031,28.031,0,0,1,32,4Zm0,56A28.039,28.039,0,0,1,4.29,36H33V59.982C32.691,59.994,32.362,60,32,60Zm3-2V56H45v2Zm12-2.36V36H59.707A28.009,28.009,0,0,1,47,55.64Z"></path></g></svg>