<svg xmlns="http://www.w3.org/2000/svg" viewBox="0 0 64 64" x="0px" y="0px"><g data-name="Smartphone-Graphic-Design-App-Mobile Phone"><path d="M46,2H18a6,6,0,0,0-6,6V56a6,6,0,0,0,6,6H46a6,6,0,0,0,6-6V8A6,6,0,0,0,46,2Zm4,54a4,4,0,0,1-4,4H18a4,4,0,0,1-4-4V8a4,4,0,0,1,4-4H46a4,4,0,0,1,4,4Z"></path><path d="M34,52H30a3,3,0,0,0,0,6h4a3,3,0,0,0,0-6Zm0,4H30a1,1,0,0,1,0-2h4a1,1,0,0,1,0,2Z"></path><rect x="25" y="6" width="2" height="2"></rect><rect x="29" y="6" width="6" height="2"></rect><path d="M34.95,22.68l-1-3A1.014,1.014,0,0,0,33,19V17H31v2a1.014,1.014,0,0,0-.95.68l-1,3A1.185,1.185,0,0,0,29,23V47a1,1,0,0,0,1,1h4a1,1,0,0,0,1-1V23A1.185,1.185,0,0,0,34.95,22.68ZM33,46H31V42h2Zm0-6H31V23.16L31.72,21h.56L33,23.16Z"></path><path d="M45,11a3,3,0,0,0-2.816,2H21.816a3,3,0,1,0,0,2H25.1a12.986,12.986,0,0,0-6.062,10.171,3,3,0,1,0,2,.026,10.987,10.987,0,0,1,21.918,0,3,3,0,1,0,2-.026A12.986,12.986,0,0,0,38.9,15h3.288A2.995,2.995,0,1,0,45,11ZM19,15a1,1,0,1,1,1-1A1,1,0,0,1,19,15Zm1,14a1,1,0,1,1,1-1A1,1,0,0,1,20,29Zm24,0a1,1,0,1,1,1-1A1,1,0,0,1,44,29Zm1-14a1,1,0,1,1,1-1A1,1,0,0,1,45,15Z"></path></g></svg>