<svg xmlns="http://www.w3.org/2000/svg" viewBox="0 0 64 64" x="0px" y="0px"><defs><style>.cls-1{fill:#231f20;}</style></defs><title>Medal_5</title><g data-name="Medal"><path class="cls-1" d="M34.146,21,32,14.411,29.854,21H22.917l5.617,4.072-2.147,6.593L32,27.6l5.613,4.07-2.147-6.593L41.083,21Zm-.339,5.435L32,25.125l-1.807,1.31.693-2.127L29.083,23h2.223L32,20.869,32.694,23h2.223l-1.8,1.308Z"></path><path class="cls-1" d="M52.406,27.424A5.845,5.845,0,0,0,54,24a5.842,5.842,0,0,0-1.594-3.423,5.959,5.959,0,0,1-1.083-1.755,6.163,6.163,0,0,1,.053-2.153A5.764,5.764,0,0,0,51.055,13,5.8,5.8,0,0,0,48,10.865a6.038,6.038,0,0,1-1.859-1.007A6.017,6.017,0,0,1,45.136,8,5.805,5.805,0,0,0,43,4.945a5.749,5.749,0,0,0-3.674-.32,6.129,6.129,0,0,1-2.152.052A5.913,5.913,0,0,1,35.425,3.6,5.846,5.846,0,0,0,32,2a5.846,5.846,0,0,0-3.425,1.6,5.913,5.913,0,0,1-1.753,1.082,6.178,6.178,0,0,1-2.152-.052A5.768,5.768,0,0,0,21,4.945,5.8,5.8,0,0,0,18.865,8a6.017,6.017,0,0,1-1.007,1.859A6.045,6.045,0,0,1,16,10.865,5.791,5.791,0,0,0,12.946,13a5.759,5.759,0,0,0-.322,3.673,6.157,6.157,0,0,1,.053,2.152,5.956,5.956,0,0,1-1.083,1.754A5.845,5.845,0,0,0,10,24a5.842,5.842,0,0,0,1.594,3.423,5.959,5.959,0,0,1,1.083,1.755,6.163,6.163,0,0,1-.053,2.153A5.764,5.764,0,0,0,12.945,35,5.8,5.8,0,0,0,16,37.135a6.038,6.038,0,0,1,1.859,1.007A6.017,6.017,0,0,1,18.864,40l.136.325V62.387l13-4.333,13,4.333V40.324c.045-.108.091-.216.135-.322a6.017,6.017,0,0,1,1.007-1.859A6.045,6.045,0,0,1,48,37.135,5.791,5.791,0,0,0,51.054,35a5.759,5.759,0,0,0,.322-3.673,6.157,6.157,0,0,1-.053-2.152A5.956,5.956,0,0,1,52.406,27.424ZM33,56.279V49H31v7.279L21,59.613V50h7V48H21V43.057a5.769,5.769,0,0,0,3.67.318,6.2,6.2,0,0,1,2.152-.052,5.913,5.913,0,0,1,1.753,1.082A5.846,5.846,0,0,0,32,46a5.846,5.846,0,0,0,3.425-1.595,5.913,5.913,0,0,1,1.753-1.082,6.13,6.13,0,0,1,2.152.052A5.751,5.751,0,0,0,43,43.056V52H36v2h7v5.613ZM50.819,26.206a7.325,7.325,0,0,0-1.427,2.456,7.571,7.571,0,0,0,0,2.924A4.356,4.356,0,0,1,49.323,34a4.377,4.377,0,0,1-2.087,1.287,7.458,7.458,0,0,0-2.508,1.441,7.463,7.463,0,0,0-1.441,2.507A4.363,4.363,0,0,1,42,41.323a4.357,4.357,0,0,1-2.415.069,7.591,7.591,0,0,0-2.924,0,7.328,7.328,0,0,0-2.456,1.428A4.39,4.39,0,0,1,32,44a4.39,4.39,0,0,1-2.206-1.181,7.328,7.328,0,0,0-2.456-1.428,4.687,4.687,0,0,0-1.219-.146,13.388,13.388,0,0,0-1.706.147A4.359,4.359,0,0,1,22,41.324a4.377,4.377,0,0,1-1.286-2.088,7.458,7.458,0,0,0-1.441-2.508,7.444,7.444,0,0,0-2.507-1.44A4.383,4.383,0,0,1,14.676,34a4.354,4.354,0,0,1-.069-2.414,7.576,7.576,0,0,0,0-2.925,7.3,7.3,0,0,0-1.428-2.456A4.4,4.4,0,0,1,12,24a4.39,4.39,0,0,1,1.181-2.206,7.325,7.325,0,0,0,1.427-2.456,7.571,7.571,0,0,0,0-2.924A4.356,4.356,0,0,1,14.677,14a4.377,4.377,0,0,1,2.087-1.287,7.458,7.458,0,0,0,2.508-1.441,7.463,7.463,0,0,0,1.441-2.507A4.363,4.363,0,0,1,22,6.677a4.328,4.328,0,0,1,2.415-.069,7.571,7.571,0,0,0,2.924,0,7.328,7.328,0,0,0,2.456-1.428A4.39,4.39,0,0,1,32,4a4.39,4.39,0,0,1,2.206,1.181,7.328,7.328,0,0,0,2.456,1.428,7.576,7.576,0,0,0,2.925,0A4.359,4.359,0,0,1,42,6.676a4.377,4.377,0,0,1,1.286,2.088,7.458,7.458,0,0,0,1.441,2.508,7.444,7.444,0,0,0,2.507,1.44A4.383,4.383,0,0,1,49.324,14a4.354,4.354,0,0,1,.069,2.414,7.576,7.576,0,0,0,0,2.925,7.3,7.3,0,0,0,1.428,2.456A4.4,4.4,0,0,1,52,24,4.39,4.39,0,0,1,50.819,26.206Z"></path><path class="cls-1" d="M32,8a16,16,0,0,0-5.932,30.858A16,16,0,0,0,48,24,16.019,16.019,0,0,0,32,8Zm5.188,29A14,14,0,1,1,46,24,14.042,14.042,0,0,1,37.188,37Z"></path></g></svg>