<svg xmlns="http://www.w3.org/2000/svg" viewBox="0 0 64 64" x="0px" y="0px"><g><path d="M60,7V9a1,1,0,0,1-1,1H57a3,3,0,0,0-3,3v2h2V13a1,1,0,0,1,1-1h2a3,3,0,0,0,3-3V7Z"></path><path d="M48,15a1,1,0,0,1,1-1,3,3,0,0,0,3-3V9H50v2a1,1,0,0,1-1,1,3,3,0,0,0-3,3v2h2Z"></path><rect x="36" y="24" width="2" height="2"></rect><rect x="28" y="24" width="2" height="2"></rect><path d="M28,32H38V28H36v1a1,1,0,0,1-1,1H31a1,1,0,0,1-1-1V28H28Z"></path><rect x="32" y="24" width="2" height="4"></rect><rect x="14" y="34" width="2" height="2"></rect><path d="M14,41.132l10,1.035V38H22v1a1,1,0,0,1-1,1H17a1,1,0,0,1-1-1V38H14Z"></path><rect x="22" y="34" width="2" height="2"></rect><path d="M60,51V47.9L4.389,42.149,9.744,60H60V53H11V51ZM37,47h2v2H37Zm-4,0h2v2H33Zm-4,0h2v2H29Zm-4,0h2v2H25Zm-4,0h2v2H21Zm-4,0h2v2H17Zm-4,0h2v2H13ZM9,49V47h2v2Z"></path><rect x="18" y="34" width="2" height="4"></rect><path d="M26,42.374l12,1.241V38H35v1a1,1,0,0,1-1,1H30a1,1,0,0,1-1-1V38H26Z"></path><rect x="46" y="21" width="2" height="8"></rect><rect x="35" y="34" width="3" height="2"></rect><rect x="54" y="19" width="2" height="10"></rect><path d="M44,39v5.236l14,1.448V31H44v6H56v2Zm4-4H46V33h2Zm4,0H50V33h2Zm2,0V33h2v2Z"></path><polygon points="26 34 26 36 29 36 29 34 27 34 26 34"></polygon><rect x="31" y="34" width="2" height="4"></rect></g></svg>