<svg xmlns="http://www.w3.org/2000/svg" viewBox="0 0 64 64" x="0px" y="0px"><g data-name="Business Report"><path d="M12,60H52a1,1,0,0,0,1-1V12.846a.992.992,0,0,0-.292-.706L46,5.417V11a1,1,0,0,0,1,1h4v2H47a3,3,0,0,1-3-3V4H12a1,1,0,0,0-1,1V59A1,1,0,0,0,12,60ZM31,39H19V37H31Zm0-19H19V18H31Zm9-3h2v3.069A8.008,8.008,0,0,1,49,28H47a6,6,0,1,0-6,6,8,8,0,0,1,1,15.931V53H40V49.931A8.008,8.008,0,0,1,33,42h2a6,6,0,1,0,6-6,8,8,0,0,1-1-15.931ZM19,8H39v2H19ZM15,8h2v2H15Zm0,4H39v2H15Zm0,6h2v2H15Zm0,4H31v2H15Zm0,4H31v2H15Zm0,4H31v2H15Zm0,7h2v2H15Zm0,4H31v2H15Zm0,4H31v2H15Zm0,4H31v2H15Z"></path></g></svg>