<svg xmlns="http://www.w3.org/2000/svg" viewBox="0 0 64 64" x="0px" y="0px"><g data-name="Business-Woman-Avatar-Long-Hair"><path d="M44.008,30.781a6.894,6.894,0,0,0,.58-3.235l-.94-14.469a11.837,11.837,0,0,0-23.594-.383L18.645,27.327a6.988,6.988,0,0,0,.782,3.926A12.961,12.961,0,0,0,15,41V61a1,1,0,0,0,1,1H48a1,1,0,0,0,1-1V41A12.972,12.972,0,0,0,44.008,30.781ZM20.636,27.516l1.409-14.629a9.836,9.836,0,0,1,19.607.317l.94,14.47a4.909,4.909,0,0,1-.285,1.968A12.741,12.741,0,0,0,41,29V26H39v2.363a12.92,12.92,0,0,0-2-.312V25.188A6,6,0,0,0,40,20V12a1,1,0,0,0-1-1V10H37v1H36V9H34v2H31V8H29v3H28V10H26v1H25a1,1,0,0,0-1,1v8a6,6,0,0,0,3,5.188v2.863a12.92,12.92,0,0,0-2,.312V25H23v4a12.969,12.969,0,0,0-1.948,1.029A4.933,4.933,0,0,1,20.636,27.516ZM38,13v7a4,4,0,0,1-4,4H30a4,4,0,0,1-4-4V13ZM30,26h4a6,6,0,0,0,1-.09v2.739L32,32.4l-3-3.75V25.91A6,6,0,0,0,30,26Zm-1.927,4.692,2.5,3.127-2.131,1.6-1.32-3.3ZM32,35.25l2.763,2.072L32,43.538l-2.763-6.216Zm3.556.167-2.131-1.6,2.5-3.127.949,1.425ZM47,60H43V50.447a8.417,8.417,0,0,0,0-10.894V38H41v2a1,1,0,0,0,.4.8c.9.679,1.6,2.815,1.6,4.2s-.7,3.522-1.6,4.2a1,1,0,0,0-.4.8V60H23V50a1,1,0,0,0-.4-.8c-.9-.679-1.6-2.815-1.6-4.2s.7-3.522,1.6-4.2A1,1,0,0,0,23,40V38H21v1.553a8.417,8.417,0,0,0,0,10.894V60H17V41a11.013,11.013,0,0,1,9-10.81l-.837,1.255a1,1,0,0,0-.1.926l6.015,14.035a1,1,0,0,0,1.828,0l6.015-14.035a1,1,0,0,0-.1-.926l-.837-1.255A11.013,11.013,0,0,1,47,41Z"></path><path d="M34.29,15.71a1.155,1.155,0,0,0,.33.21.942.942,0,0,0,.76,0,1.155,1.155,0,0,0,.33-.21,1.169,1.169,0,0,0,.21-.33A.838.838,0,0,0,36,15a1,1,0,0,0-.08-.38,1.032,1.032,0,0,0-.21-.33,1,1,0,0,0-1.09-.21,1.155,1.155,0,0,0-.33.21,1.032,1.032,0,0,0-.21.33.942.942,0,0,0,0,.76A1.169,1.169,0,0,0,34.29,15.71Z"></path><path d="M28.29,15.71a1.155,1.155,0,0,0,.33.21.942.942,0,0,0,.76,0,1.155,1.155,0,0,0,.33-.21,1.169,1.169,0,0,0,.21-.33A.838.838,0,0,0,30,15a1,1,0,0,0-.08-.38,1.032,1.032,0,0,0-.21-.33,1,1,0,0,0-1.09-.21,1.155,1.155,0,0,0-.33.21,1.032,1.032,0,0,0-.21.33.942.942,0,0,0,0,.76A1.169,1.169,0,0,0,28.29,15.71Z"></path></g></svg>