<svg xmlns="http://www.w3.org/2000/svg" viewBox="0 0 64 64" x="0px" y="0px"><g data-name="Wall Clock"><rect x="31" y="3" width="2" height="6"></rect><rect x="24.271" y="3.886" width="2" height="6" transform="translate(-0.921 6.774) rotate(-14.997)"></rect><rect x="18" y="6.484" width="2" height="5.999" transform="translate(-2.196 10.772) rotate(-30.004)"></rect><rect x="12.615" y="10.616" width="2" height="5.999" transform="translate(-5.64 13.615) rotate(-45)"></rect><rect x="8.483" y="16" width="2" height="5.999" transform="translate(-11.713 17.711) rotate(-59.996)"></rect><rect x="5.886" y="22.27" width="2" height="6" transform="translate(-19.305 25.383) rotate(-75.003)"></rect><rect x="3" y="31" width="6" height="2"></rect><rect x="3.886" y="37.73" width="6" height="2" transform="translate(-9.788 3.101) rotate(-14.997)"></rect><rect x="6.484" y="44" width="5.999" height="2" transform="translate(-21.232 10.773) rotate(-30.004)"></rect><rect x="10.616" y="49.385" width="5.999" height="2" transform="translate(-31.64 24.385) rotate(-45)"></rect><rect x="16" y="53.516" width="5.999" height="2" transform="translate(-37.714 43.718) rotate(-60.005)"></rect><rect x="22.27" y="56.114" width="6" height="2" transform="translate(-36.438 66.741) rotate(-75)"></rect><rect x="31" y="55" width="2" height="6"></rect><rect x="37.73" y="54.114" width="2" height="6" transform="translate(-13.46 11.968) rotate(-14.997)"></rect><rect x="44" y="51.517" width="2" height="5.999" transform="translate(-21.231 29.808) rotate(-30.004)"></rect><rect x="49.385" y="47.385" width="2" height="5.999" transform="translate(-20.87 50.385) rotate(-45)"></rect><rect x="53.516" y="42" width="2" height="5.999" transform="translate(-11.715 69.708) rotate(-59.996)"></rect><rect x="56.114" y="35.729" width="2" height="6" transform="translate(4.924 83.876) rotate(-75.003)"></rect><rect x="55" y="31" width="6" height="2"></rect><rect x="54.114" y="24.271" width="6" height="2" transform="translate(-4.594 15.641) rotate(-14.997)"></rect><rect x="51.517" y="18" width="5.999" height="2" transform="translate(-2.195 29.808) rotate(-30.004)"></rect><rect x="47.385" y="12.615" width="5.999" height="2" transform="translate(5.13 39.615) rotate(-45)"></rect><rect x="42" y="8.483" width="5.999" height="2" transform="translate(14.29 43.716) rotate(-60.005)"></rect><rect x="35.729" y="5.886" width="6" height="2" transform="translate(22.054 42.514) rotate(-75)"></rect><path d="M35.858,33H38V31H35.858A3.991,3.991,0,0,0,33,28.142V16H31V28.142A3.991,3.991,0,0,0,28.142,31H18v2H28.142A3.991,3.991,0,0,0,31,35.858V38h2V35.858A3.991,3.991,0,0,0,35.858,33ZM32,34a2,2,0,1,1,2-2A2,2,0,0,1,32,34Z"></path></g></svg>