<svg xmlns="http://www.w3.org/2000/svg" viewBox="0 0 64 64" x="0px" y="0px"><g><path d="M19.877,44H59a1,1,0,0,0,1-1V12H14V27.189l4.434-7.679a4,4,0,0,1,6.933,4l-6.645,11.5.507,1.512A14.931,14.931,0,0,1,20,41.27v.85A14.913,14.913,0,0,1,19.877,44ZM56,40H44V38H56ZM28,17a1,1,0,0,1,1-1H55a1,1,0,0,1,1,1V35a1,1,0,0,1-1,1H29a1,1,0,0,1-1-1Zm0,21H42v2H28Z"></path><path d="M36.707,24.293,40,27.586l6.293-6.293a1,1,0,0,1,1.414,0L54,27.586V18H30V29.586l5.293-5.293A1,1,0,0,1,36.707,24.293Z"></path><polygon points="36 26.414 30 32.414 30 34 43.586 34 36 26.414"></polygon><polygon points="41.414 29 46.414 34 54 34 54 30.414 47 23.414 41.414 29"></polygon><path d="M16.63,34.9V34.9c0-.015,0-.03,0-.045a1.043,1.043,0,0,1,.132-.454l6.87-11.89a2.008,2.008,0,0,0,.266-1,2,2,0,0,0-3.734-1L12.666,33.5l-1.732-1L12,30.653V15.263a.984.984,0,0,0-.211.247L6.206,25.18A9.006,9.006,0,0,0,5,29.68V52H15V51a1,1,0,0,1,.142-.514l1-1.67A13.013,13.013,0,0,0,18,42.12v-.85a12.91,12.91,0,0,0-.668-4.112L16.71,35.3a.986.986,0,0,1-.08-.393V34.9Z"></path><path d="M14,10H60V5a1,1,0,0,0-1-1H15a1,1,0,0,0-1,1ZM24,6h2V8H24ZM20,6h2V8H20ZM16,6h2V8H16Z"></path><rect x="4" y="54" width="12" height="6"></rect></g></svg>