<svg xmlns="http://www.w3.org/2000/svg" viewBox="0 0 64 64" x="0px" y="0px"><g data-name="Growth"><path d="M7,19H9V30h2V18a1,1,0,0,0-1-1H9.414L13,13.414,16.586,17H16a1,1,0,0,0-1,1V30h2V19h2a1,1,0,0,0,.707-1.707l-6-6a1,1,0,0,0-1.414,0l-6,6A1,1,0,0,0,7,19Z"></path><path d="M26,10h2V21h2V9a1,1,0,0,0-1-1h-.586L32,4.414,35.586,8H35a1,1,0,0,0-1,1V21h2V10h2a1,1,0,0,0,.707-1.707l-6-6a1,1,0,0,0-1.414,0l-6,6A1,1,0,0,0,26,10Z"></path><path d="M45,16h2V27h2V15a1,1,0,0,0-1-1h-.586L51,10.414,54.586,14H54a1,1,0,0,0-1,1V27h2V16h2a1,1,0,0,0,.707-1.707l-6-6a1,1,0,0,0-1.414,0l-6,6A1,1,0,0,0,45,16Z"></path><rect x="28" y="23" width="2" height="4"></rect><rect x="28" y="29" width="2" height="2"></rect><rect x="34" y="25" width="2" height="4"></rect><rect x="47" y="29" width="2" height="4"></rect><rect x="47" y="35" width="2" height="2"></rect><rect x="53" y="31" width="2" height="2"></rect><rect x="53" y="37" width="2" height="2"></rect><rect x="9" y="32" width="2" height="2"></rect><rect x="9" y="36" width="2" height="2"></rect><path d="M51,50a1,1,0,0,1,1,1h2a3,3,0,0,0-2-2.816V47H50v1.184A2.993,2.993,0,0,0,51,54a1,1,0,1,1-1,1H48a3,3,0,0,0,2,2.816V59h2V57.816A2.993,2.993,0,0,0,51,52a1,1,0,0,1,0-2Z"></path><path d="M51,44a9,9,0,1,0,9,9A9.01,9.01,0,0,0,51,44Zm0,16a7,7,0,1,1,7-7A7.008,7.008,0,0,1,51,60Z"></path><rect x="55" y="52" width="2" height="2"></rect><rect x="45" y="52" width="2" height="2"></rect><path d="M13,47a1,1,0,0,1,1,1h2a3,3,0,0,0-2-2.816V44H12v1.184A2.993,2.993,0,0,0,13,51a1,1,0,1,1-1,1H10a3,3,0,0,0,2,2.816V56h2V54.816A2.993,2.993,0,0,0,13,49a1,1,0,0,1,0-2Z"></path><path d="M13,41a9,9,0,1,0,9,9A9.01,9.01,0,0,0,13,41Zm0,16a7,7,0,1,1,7-7A7.008,7.008,0,0,1,13,57Z"></path><rect x="17" y="49" width="2" height="2"></rect><rect x="7" y="49" width="2" height="2"></rect><path d="M32,40a1,1,0,0,1,1,1h2a3,3,0,0,0-2-2.816V37H31v1.184A2.993,2.993,0,0,0,32,44a1,1,0,1,1-1,1H29a3,3,0,0,0,2,2.816V49h2V47.816A2.993,2.993,0,0,0,32,42a1,1,0,0,1,0-2Z"></path><path d="M32,34a9,9,0,1,0,9,9A9.01,9.01,0,0,0,32,34Zm0,16a7,7,0,1,1,7-7A7.008,7.008,0,0,1,32,50Z"></path><rect x="36" y="42" width="2" height="2"></rect><rect x="26" y="42" width="2" height="2"></rect><rect x="34" y="31" width="2" height="2"></rect><rect x="15" y="34" width="2" height="4"></rect></g></svg>