<svg xmlns="http://www.w3.org/2000/svg" viewBox="0 0 64 64" x="0px" y="0px"><g data-name="Online Book"><path d="M12,32H29v1a3,3,0,0,0,6,0V32H52a1,1,0,0,0,1-1V3a1,1,0,0,0-1-1H34a1,1,0,0,0-1,1V4H31V3a1,1,0,0,0-1-1H12a1,1,0,0,0-1,1V31A1,1,0,0,0,12,32ZM35,4H51V30H35ZM33,6V33a1,1,0,0,1-2,0V6ZM13,4H29V30H13Z"></path><path d="M9,35H28V33H10V5.029H8V34A1,1,0,0,0,9,35Z"></path><rect x="15" y="8" width="2" height="2"></rect><rect x="19" y="8" width="8" height="2"></rect><rect x="15" y="12" width="12" height="2"></rect><rect x="15" y="16" width="12" height="2"></rect><rect x="15" y="20" width="12" height="2"></rect><path d="M36,35H55a1,1,0,0,0,1-1V5.029H54V33H36Z"></path><rect x="45" y="8" width="4" height="2"></rect><rect x="37" y="8" width="6" height="2"></rect><rect x="37" y="12" width="12" height="2"></rect><rect x="37" y="16" width="12" height="2"></rect><rect x="37" y="20" width="12" height="2"></rect><rect x="15" y="24" width="12" height="2"></rect><rect x="37" y="24" width="12" height="2"></rect><path d="M57,8v2a3,3,0,0,1,3,3V40H4V13a3,3,0,0,1,3-3V8a5.006,5.006,0,0,0-5,5V45a5.006,5.006,0,0,0,5,5H23.867l-.75,6H22a1,1,0,0,0-1,1v3H17v2H47V60H43V57a1,1,0,0,0-1-1H40.883l-.75-6H57a5.006,5.006,0,0,0,5-5V13A5.006,5.006,0,0,0,57,8ZM41,60H23V58H41Zm-2.133-4H25.133l.75-6H38.117ZM57,48H7a3,3,0,0,1-3-3V42H60v3A3,3,0,0,1,57,48Z"></path><rect x="56" y="44" width="2" height="2"></rect></g></svg>