<svg xmlns="http://www.w3.org/2000/svg" viewBox="0 0 64 64" x="0px" y="0px"><g data-name="Cactus"><path d="M22.412,16.7c.058-.055.121-.1.18-.156.151-.138.308-.267.463-.4.27-.231.544-.456.824-.669.17-.129.342-.254.516-.377q.425-.3.863-.569c.174-.108.346-.217.523-.318.325-.186.656-.355.989-.518.15-.073.3-.153.447-.222.488-.221.983-.421,1.487-.594.051-.017.1-.028.156-.046q.683-.225,1.382-.391c.169-.041.342-.069.513-.1.354-.072.709-.136,1.068-.185.2-.026.4-.045.594-.065.176-.017.35-.046.526-.058A9.451,9.451,0,0,0,33,11c0-3.859-2.691-7-6-7s-6,3.141-6,7A14.1,14.1,0,0,0,22.412,16.7ZM28,7h2V9H28Zm-4,3h2v2H24Z"></path><path d="M7.445,23.236c.18-.071.357-.145.546-.207.031-.009.063-.018.094-.025a6.706,6.706,0,0,1,.844-.233q.033-.008.066-.012a13.345,13.345,0,0,1,2.119-.3A6.787,6.787,0,0,0,12,19c0-2.468-1.149-4-3-4s-3,1.532-3,4A6.207,6.207,0,0,0,7.445,23.236Z"></path><path d="M55,48H13v8H55Zm-4,7H49V53h2Zm3,0H52V53h2Zm0-3H52V50h2Z"></path><rect x="18" y="58" width="32" height="2"></rect><path d="M14.405,36.786a21.825,21.825,0,0,0,2.228.5c-.008-.03-.012-.061-.02-.092-.023-.1-.04-.2-.063-.3q-.138-.614-.242-1.235c-.028-.168-.052-.336-.076-.5q-.078-.552-.129-1.109c-.014-.16-.032-.319-.043-.48C16.024,33.047,16,32.525,16,32c0-.653.033-1.3.088-1.938.018-.207.05-.41.073-.615.049-.432.1-.862.179-1.287.041-.237.093-.471.143-.706.081-.389.171-.775.274-1.158q.1-.358.207-.712c.051-.166.089-.335.144-.5a16.457,16.457,0,0,0-7.724-.362c-.038.008-.077.015-.116.02a5.23,5.23,0,0,0-.618.182,1.3,1.3,0,0,1-.126.034A4.438,4.438,0,0,0,5.435,27.8C4.614,30.776,7.746,34.947,14.405,36.786ZM13,27h2v2H13ZM9,30h2v2H9Z"></path><path d="M23.959,46H44.041A18.756,18.756,0,0,0,50,32a19.507,19.507,0,0,0-1.531-7.669,17.269,17.269,0,0,0-6.361-7.847A14.675,14.675,0,0,0,34,14h-.178a14.866,14.866,0,0,0-9.769,3.914q-.594.534-1.148,1.134a17.635,17.635,0,0,0-3.551,5.721A19.5,19.5,0,0,0,18,32a20.136,20.136,0,0,0,.962,6.175A18.084,18.084,0,0,0,23.959,46ZM39,21h2v2H39Zm0,6h2v2H39Zm0,6h2v2H39Zm0,6h2v2H39ZM33,18h2v2H33Zm0,6h2v2H33Zm0,6h2v2H33Zm0,6h2v2H33Zm0,6h2v2H33ZM27,21h2v2H27Zm0,6h2v2H27Zm0,6h2v2H27Zm0,6h2v2H27Z"></path><path d="M58.484,7.518a3.144,3.144,0,0,0-2.321-.87h0c-2.468,0-5.744,1.862-8.991,5.109A29.839,29.839,0,0,0,44.048,15.4c.036.027.067.06.1.087a18.33,18.33,0,0,1,1.507,1.278c.1.093.194.189.29.285A18.754,18.754,0,0,1,47.286,18.5c.019.023.04.044.059.068a19.388,19.388,0,0,1,1.2,1.661c.081.124.162.247.241.374a20.2,20.2,0,0,1,.988,1.774c.017.035.039.065.056.1a29.217,29.217,0,0,0,4.413-3.647c3.249-3.249,5.111-6.527,5.109-9A3.143,3.143,0,0,0,58.484,7.518ZM53,17H51V15h2Zm3-5H54V10h2Z"></path></g></svg>