<svg xmlns="http://www.w3.org/2000/svg" viewBox="0 0 64 64" x="0px" y="0px"><g><path d="M31.21,31.97a10.138,10.138,0,0,1-2.21-.4v6.19l3,6,3-6V31.57a10.841,10.841,0,0,1-3.01.43Q31.6,32,31.21,31.97Z"></path><path d="M45,18a2.006,2.006,0,0,0-2-2v4a2.015,2.015,0,0,0,2-2Z"></path><path d="M27,39.17v-4A3.014,3.014,0,0,0,25,38v1.17a3.026,3.026,0,0,1,2,0Z"></path><path d="M51,60V45.88a6.943,6.943,0,0,0-4.91-6.67L40.96,37.6c.01.13.04.26.04.4v4a1,1,0,0,1-2,0,1,1,0,0,0-2,0,.992.992,0,0,1-1.97.17l-2.14,4.28a1,1,0,0,1-1.78,0l-2.14-4.28A.992.992,0,0,1,27,42a1,1,0,0,0-2,0,1,1,0,0,1-2,0V38c0-.14.03-.27.04-.4l-5.13,1.6A6.964,6.964,0,0,0,13,45.88V60h6V47h2V60H43V47h2V60Z"></path><path d="M33.89,26.99l.22-1.98,5.6.62a8.791,8.791,0,0,0,.86-1.9l-6.81-1.36a9.065,9.065,0,0,0-3.52,0L23.5,23.72a9.094,9.094,0,0,0,.87,1.9l5.52-.61.22,1.98-4.27.48a8.741,8.741,0,0,0,5.51,2.51,9.056,9.056,0,0,0,6.89-2.5Z"></path><path d="M23,11.41a8.123,8.123,0,0,0,4.56-4.8.992.992,0,0,1,.94-.67,1,1,0,0,1,.95.67A8,8,0,0,0,37,12a7.947,7.947,0,0,0,4.44-1.35A7.977,7.977,0,0,0,45,4H28a5,5,0,0,0-5,5Z"></path><path d="M23,20.69a9.789,9.789,0,0,0,.07,1.08l6.77-1.36a11.214,11.214,0,0,1,4.32,0l6.8,1.36c.02-.25.04-.51.04-.77V13.17A10.088,10.088,0,0,1,37,14a9.986,9.986,0,0,1-8.5-4.75A10.107,10.107,0,0,1,23,13.53ZM36,16a2,2,0,1,1-2,2A2,2,0,0,1,36,16Zm-8,0a2,2,0,1,1-2,2A2,2,0,0,1,28,16Z"></path><path d="M39,39.17V38a3.014,3.014,0,0,0-2-2.83v4a3.026,3.026,0,0,1,2,0Z"></path><path d="M19,18a2.015,2.015,0,0,0,2,2V16A2.006,2.006,0,0,0,19,18Z"></path></g></svg>