<svg xmlns="http://www.w3.org/2000/svg" viewBox="0 0 64 64" x="0px" y="0px"><g data-name="Car Wash-Care Care"><polygon points="34 38 47.277 38 42.706 30 34 30 34 38"></polygon><path d="M55.92,54H59a1,1,0,0,0,1-1V52H57V50h3V48H56a2,2,0,0,1-2-2V44a2,2,0,0,1,2-2h3.707a.989.989,0,0,0-.542-.292L48.918,40H34a2,2,0,0,1-2-2V30a2,2,0,0,1,2-2h7.248a7.015,7.015,0,0,0-4.891-2H30V54H42.08a6.991,6.991,0,0,1,13.84,0ZM40,44H36V42h4Z"></path><rect x="56" y="44" width="4" height="2"></rect><path d="M49,50a5,5,0,1,0,5,5A5.006,5.006,0,0,0,49,50Zm1,6H48V54h2Z"></path><path d="M21.92,54H28V26H21A17.019,17.019,0,0,0,4,43v7H7v2H4v1a1,1,0,0,0,1,1H8.08a6.991,6.991,0,0,1,13.84,0ZM10.842,40a3,3,0,0,1-2.458-4.72L9.6,33.545A13.013,13.013,0,0,1,20.248,28H24a2,2,0,0,1,2,2v8a2,2,0,0,1-2,2Z"></path><path d="M24,30H20.248a11.01,11.01,0,0,0-9.012,4.692l-1.214,1.734A1,1,0,0,0,10.842,38H24Z"></path><path d="M15,50a5,5,0,1,0,5,5A5.006,5.006,0,0,0,15,50Zm1,6H14V54h2Z"></path><rect x="18" y="14" width="2" height="2"></rect><rect x="18" y="18" width="2" height="2"></rect><rect x="24" y="14" width="2" height="2"></rect><rect x="24" y="18" width="2" height="2"></rect><rect x="30" y="14" width="2" height="2"></rect><rect x="30" y="18" width="2" height="2"></rect><rect x="36" y="14" width="2" height="2"></rect><rect x="36" y="18" width="2" height="2"></rect><rect x="42" y="14" width="2" height="4"></rect><rect x="42" y="20" width="2" height="2"></rect><rect x="47" y="22" width="2" height="2"></rect><rect x="53" y="26" width="2" height="2"></rect><rect x="53" y="30" width="2" height="2"></rect><rect x="47" y="26" width="2" height="2"></rect><rect x="8" y="15" width="2" height="2"></rect><rect x="13" y="4" width="2" height="2"></rect><rect x="49" y="4" width="2" height="2"></rect><path d="M62,17V15H60.91a5.992,5.992,0,0,0-.292-1.088l.944-.546-1-1.732-.941.543a6.139,6.139,0,0,0-.8-.8l.543-.941L58.607,10H60V9a1,1,0,0,0-1-1H5A1,1,0,0,0,4,9v1H5.393l-.759.438.543.941a6.139,6.139,0,0,0-.8.8l-.942-.543-1,1.732.945.546A5.992,5.992,0,0,0,3.09,15H2v2H3.09a5.992,5.992,0,0,0,.292,1.088l-.945.546,1,1.732.942-.543a6.139,6.139,0,0,0,.8.8l-.543.941,1.732,1,.546-.944A5.992,5.992,0,0,0,8,21.91V23h2V21.91a5.992,5.992,0,0,0,1.088-.292l.546.944,1.732-1-.543-.941a6.139,6.139,0,0,0,.8-.8l.941.543,1-1.732-.944-.546A5.992,5.992,0,0,0,14.91,17H16V15H14.91a5.992,5.992,0,0,0-.292-1.088l.944-.546-1-1.732-.941.543a6.139,6.139,0,0,0-.8-.8l.543-.941L12.607,10H51.393l-.759.438.543.941a6.139,6.139,0,0,0-.8.8l-.942-.543-1,1.732.945.546A5.992,5.992,0,0,0,49.09,15H48v2h1.09a5.992,5.992,0,0,0,.292,1.088l-.945.546,1,1.732.942-.543a6.139,6.139,0,0,0,.8.8l-.543.941,1.732,1,.546-.944A5.992,5.992,0,0,0,54,21.91V23h2V21.91a5.992,5.992,0,0,0,1.088-.292l.546.944,1.732-1-.543-.941a6.139,6.139,0,0,0,.8-.8l.941.543,1-1.732-.944-.546A5.992,5.992,0,0,0,60.91,17Zm-6-7h1.309l-.221.382A5.992,5.992,0,0,0,56,10.09ZM8,10v.09a5.992,5.992,0,0,0-1.088.292L6.691,10Zm5,6a4,4,0,1,1-4-4A4,4,0,0,1,13,16Zm-1.912-5.618A5.992,5.992,0,0,0,10,10.09V10h1.309ZM54,10v.09a5.992,5.992,0,0,0-1.088.292L52.691,10Zm1,10a4,4,0,1,1,4-4A4,4,0,0,1,55,20Z"></path><rect x="54" y="15" width="2" height="2"></rect></g></svg>