<svg xmlns="http://www.w3.org/2000/svg" viewBox="0 0 64 64" x="0px" y="0px"><g data-name="Online Calendar"><rect x="23" y="18" width="2" height="2"></rect><path d="M18,33H46a1,1,0,0,0,1-1V13H17V32A1,1,0,0,0,18,33ZM37,18a2,2,0,0,1,2-2h2a2,2,0,0,1,2,2v2a2,2,0,0,1-2,2H39a2,2,0,0,1-2-2Zm0,8a2,2,0,0,1,2-2h2a2,2,0,0,1,2,2v2a2,2,0,0,1-2,2H39a2,2,0,0,1-2-2Zm-8-8a2,2,0,0,1,2-2h2a2,2,0,0,1,2,2v2a2,2,0,0,1-2,2H31a2,2,0,0,1-2-2Zm0,8a2,2,0,0,1,2-2h2a2,2,0,0,1,2,2v2a2,2,0,0,1-2,2H31a2,2,0,0,1-2-2Zm-8-8a2,2,0,0,1,2-2h2a2,2,0,0,1,2,2v2a2,2,0,0,1-2,2H23a2,2,0,0,1-2-2Zm0,8a2,2,0,0,1,2-2h2a2,2,0,0,1,2,2v2a2,2,0,0,1-2,2H23a2,2,0,0,1-2-2Z"></path><rect x="23" y="26" width="2" height="2"></rect><path d="M47,8a1,1,0,0,0-1-1H42a3,3,0,0,1-6,0H28a3,3,0,0,1-6,0H18a1,1,0,0,0-1,1v3H47Z"></path><rect x="39" y="18" width="2" height="2"></rect><rect x="31" y="26" width="2" height="2"></rect><rect x="39" y="26" width="2" height="2"></rect><rect x="31" y="18" width="2" height="2"></rect><path d="M58,42H6v3a3,3,0,0,0,3,3H55a3,3,0,0,0,3-3Zm-2,4H54V44h2Z"></path><path d="M58,13V40H6V13a3.009,3.009,0,0,1,3-3h6V32a3.009,3.009,0,0,0,3,3H46a3.009,3.009,0,0,0,3-3V10h6A3.009,3.009,0,0,1,58,13Z"></path><path d="M24,7a1,1,0,0,0,2,0V5a1,1,0,0,0-2,0Z"></path><path d="M38,7a1,1,0,0,0,2,0V5a1,1,0,0,0-2,0Z"></path><polygon points="38.117 50 25.883 50 25.133 56 38.867 56 38.117 50"></polygon><polygon points="41 60 41 58 23 58 23 60 19 60 19 62 45 62 45 60 41 60"></polygon></g></svg>