<svg xmlns="http://www.w3.org/2000/svg" viewBox="0 0 64 64" x="0px" y="0px"><g><path d="M32,11A16,16,0,1,0,48,27,16.019,16.019,0,0,0,32,11Zm0,30A14,14,0,1,1,46,27,14.015,14.015,0,0,1,32,41Z"></path><path d="M32,2A25.028,25.028,0,0,0,7,27c0,8.036,4.248,16.62,12.285,24.825A73.55,73.55,0,0,0,31.47,61.848a1,1,0,0,0,1.06,0A73.55,73.55,0,0,0,44.715,51.825C52.752,43.62,57,35.036,57,27A25.028,25.028,0,0,0,32,2Zm0,57.805C28.507,57.472,9,43.687,9,27a23,23,0,0,1,46,0C55,43.672,35.492,57.47,32,59.805Z"></path><path d="M38.962,18.721,21.284,26.5a1,1,0,0,0,.238,1.9L29.3,29.7l1.3,7.78a1,1,0,0,0,.862.828,1.031,1.031,0,0,0,.124.007,1,1,0,0,0,.915-.6l7.778-17.677a1,1,0,0,0-1.317-1.318Zm-13.8,8.258L34.889,22.7l-5.06,5.06Zm6.863,6.863-.778-4.67L36.3,24.113Z"></path></g></svg>