<svg xmlns="http://www.w3.org/2000/svg" viewBox="0 0 64 64" x="0px" y="0px"><title>Hard disk</title><g data-name="Hard disk"><path d="M53,2H11A3,3,0,0,0,8,5V59a3,3,0,0,0,3,3H53a3,3,0,0,0,3-3V5A3,3,0,0,0,53,2Zm1,57a1,1,0,0,1-1,1H11a1,1,0,0,1-1-1V5a1,1,0,0,1,1-1H53a1,1,0,0,1,1,1Z"></path><path d="M32,22a17.837,17.837,0,0,0-5.444.856L25.977,20H26a2,2,0,0,0,2-2V8a2,2,0,0,0-2-2H16a2,2,0,0,0-2,2V18a2,2,0,0,0,2,2h2.707L21.6,25.321A17.987,17.987,0,1,0,32,22ZM18.254,14.071a1,1,0,0,0-.651.825l-.256,2.222a.992.992,0,0,0,.115.592l.158.29H16V8H26V18h-.429l-.613-3.019a1.006,1.006,0,0,0-.292-.527l-1.624-1.537a1,1,0,0,0-1.029-.214Zm1.116,2.962.149-1.294,2.6-.946.946.9,2.632,12.977ZM32,56a16,16,0,0,1-9.44-28.913l4.562,8.391A1,1,0,0,0,28.98,34.8L26.957,24.83A15.831,15.831,0,0,1,32,24a16,16,0,0,1,0,32Z"></path><path d="M32,52v2A14.015,14.015,0,0,0,46,40H44A12.013,12.013,0,0,1,32,52Z"></path><path d="M36,40a4,4,0,1,0-4,4A4,4,0,0,0,36,40Zm-6,0a2,2,0,1,1,2,2A2,2,0,0,1,30,40Z"></path></g></svg>