<svg xmlns="http://www.w3.org/2000/svg" viewBox="0 0 64 64" x="0px" y="0px"><g data-name="Globe Grid"><path d="M36.051,47h4.973a24.979,24.979,0,0,1,1-6.35,14.05,14.05,0,0,1-2.262-1.35A11.96,11.96,0,0,0,36.051,47Z"></path><path d="M52.117,41.365a13.664,13.664,0,0,1-8.234,0A23.241,23.241,0,0,0,43.023,47h9.954A23.241,23.241,0,0,0,52.117,41.365Z"></path><path d="M51.442,39.482C50.481,37.288,49.206,36,48,36s-2.481,1.288-3.442,3.482a11.695,11.695,0,0,0,6.884,0Z"></path><circle cx="32" cy="24" r="10"></circle><path d="M43.776,36.782A11.977,11.977,0,0,0,41.385,38a11.926,11.926,0,0,0,1.325.759A12.612,12.612,0,0,1,43.776,36.782Z"></path><path d="M52.224,36.782a12.612,12.612,0,0,1,1.066,1.975A11.926,11.926,0,0,0,54.615,38,11.977,11.977,0,0,0,52.224,36.782Z"></path><path d="M32,59.806c.834-.556,2.587-1.768,4.754-3.5A13.984,13.984,0,0,1,53.514,35.135,24.216,24.216,0,0,0,55,27,23,23,0,0,0,9,27C9,43.688,28.51,57.474,32,59.806ZM32,12A12,12,0,1,1,20,24,12.013,12.013,0,0,1,32,12Z"></path><path d="M48,60c1.361,0,2.809-1.639,3.8-4.373a11.8,11.8,0,0,0-7.59,0C45.191,58.361,46.639,60,48,60Z"></path><path d="M54.976,49a25.793,25.793,0,0,1-.747,5.464A13.945,13.945,0,0,1,56.8,56.13,11.942,11.942,0,0,0,59.949,49Z"></path><path d="M52.363,53.709A24.1,24.1,0,0,0,52.977,49H43.023a24.1,24.1,0,0,0,.614,4.709,13.779,13.779,0,0,1,8.726,0Z"></path><path d="M56.241,39.3a14.05,14.05,0,0,1-2.262,1.35,24.979,24.979,0,0,1,1,6.35h4.973A11.96,11.96,0,0,0,56.241,39.3Z"></path><path d="M41.771,54.464A25.793,25.793,0,0,1,41.024,49H36.051A11.942,11.942,0,0,0,39.2,56.13,13.945,13.945,0,0,1,41.771,54.464Z"></path><path d="M55.316,57.49a12.012,12.012,0,0,0-1.692-1.083,13.548,13.548,0,0,1-1.4,2.811A11.981,11.981,0,0,0,55.316,57.49Z"></path><path d="M42.376,56.407a11.955,11.955,0,0,0-1.692,1.083,11.981,11.981,0,0,0,3.092,1.728A13.548,13.548,0,0,1,42.376,56.407Z"></path></g></svg>