<svg xmlns="http://www.w3.org/2000/svg" viewBox="0 0 64 64" x="0px" y="0px"><g data-name="Credit Card-Bill"><rect x="33" y="42" width="4" height="2"></rect><circle cx="49" cy="51" r="1"></circle><path d="M52,52a1,1,0,0,0,0-2,.928.928,0,0,0-.172.038,2.776,2.776,0,0,1,0,1.924A.928.928,0,0,0,52,52Z"></path><path d="M56,38H30a1,1,0,0,0-1,1V55a1,1,0,0,0,1,1H56a1,1,0,0,0,1-1V39A1,1,0,0,0,56,38Zm-7,3h2v4H49ZM31,41a1,1,0,0,1,1-1h6a1,1,0,0,1,1,1v4a1,1,0,0,1-1,1H32a1,1,0,0,1-1-1Zm2,13H31V52h2Zm4,0H35V52h2Zm4,0H39V52h2Zm0-4H31V48H41Zm4-9h2v4H45Zm7,13a2.988,2.988,0,0,1-1.49-.42,3,3,0,1,1,0-5.16A2.991,2.991,0,1,1,52,54Zm3-9H53V41h2Z"></path><path d="M30,36H44V4.33a4.548,4.548,0,0,0-.65.62,4.023,4.023,0,0,1-3.1,1.57,3.911,3.911,0,0,1-3.17-1.9c-.58-.75-.92-1.14-1.59-1.14s-1.01.39-1.59,1.14a3.908,3.908,0,0,1-3.16,1.9,3.9,3.9,0,0,1-3.17-1.91c-.58-.74-.91-1.13-1.58-1.13s-1,.39-1.58,1.13a3.9,3.9,0,0,1-3.17,1.91,3.892,3.892,0,0,1-3.16-1.91c-.58-.74-.91-1.13-1.58-1.13s-1.01.39-1.59,1.14a3.908,3.908,0,0,1-3.16,1.9A4.021,4.021,0,0,1,8.64,4.94,5.786,5.786,0,0,0,8,4.33V53H9v2H8v5H44V58H30a3.009,3.009,0,0,1-3-3V39A3.009,3.009,0,0,1,30,36Zm10-3H34V31h6Zm0-4H34V27h6Zm0-4H34V23h6Zm0-4H34V19h6ZM30,9H40v2H30Zm0,4H40v2H30ZM12,19H32v2H12Zm0,4H32v2H12Zm0,4H32v2H12ZM10,45H24v2H10Zm3,10H11V53h2Zm0-6h2v2H13Zm10,6H15V53h8Zm2-4H17V49h8ZM12,33V31H32v2Z"></path></g></svg>