<svg xmlns="http://www.w3.org/2000/svg" viewBox="0 0 64 64" x="0px" y="0px"><title>Graduate-Idea</title><g><path d="M48,60H16V36a1,1,0,0,0-1-1H6.271L13.787,4H48V8h2V3a1,1,0,0,0-1-1H13a1,1,0,0,0-.972.764l-8,33A1,1,0,0,0,5,37h9V61a1,1,0,0,0,1,1H49a1,1,0,0,0,1-1V25.106H48Z"></path><path d="M20,15a2,2,0,0,1-4,0,1,1,0,0,0-2,0,4,4,0,0,0,8,0,1,1,0,0,0-2,0Z"></path><path d="M60.342,14.06l-11-4a1,1,0,0,0-.684,0l-11,4a1,1,0,0,0,0,1.879L42,17.52V22a1,1,0,0,0,1.165.986L49,22.014l5.835.972A.919.919,0,0,0,55,23a1,1,0,0,0,1-1V17.52l3-1.092V19h2V15A1,1,0,0,0,60.342,14.06ZM54,20.819l-4.835-.8a.979.979,0,0,0-.33,0l-4.835.8V16.847l5-.833,5,.833Zm1.823-5.363a.985.985,0,0,0-.658-.442l-6-1a.962.962,0,0,0-.33,0l-6,1a.985.985,0,0,0-.658.442L40.925,15,49,12.064,57.075,15Z"></path></g></svg>