<svg xmlns="http://www.w3.org/2000/svg" viewBox="0 0 64 64" x="0px" y="0px"><g><rect x="20" y="15" width="7" height="4"></rect><path d="M58,40H6v3a3.009,3.009,0,0,0,3,3H55a3.009,3.009,0,0,0,3-3Zm-4,4H52V42h2Z"></path><path d="M39,10V9H36a3.009,3.009,0,0,0-3,3v1h3A3.009,3.009,0,0,0,39,10Z"></path><polygon points="26.91 48 26.11 56 37.89 56 37.09 48 26.91 48"></polygon><path d="M31,12a3.009,3.009,0,0,0-3-3H25v1a3.009,3.009,0,0,0,3,3h3Z"></path><path d="M21,59a1,1,0,0,0,1,1H42a1,1,0,0,0,0-2H22A1,1,0,0,0,21,59Z"></path><rect x="22" y="21" width="6" height="12"></rect><path d="M58,7a3.009,3.009,0,0,0-3-3H9A3.009,3.009,0,0,0,6,7V38H58ZM46,20a1,1,0,0,1-1,1H44V34a1,1,0,0,1-1,1H21a1,1,0,0,1-1-1V21H19a1,1,0,0,1-1-1V14a1,1,0,0,1,1-1h5.03A4.924,4.924,0,0,1,23,10V8a1,1,0,0,1,1-1h4a4.994,4.994,0,0,1,4,2.03A4.994,4.994,0,0,1,36,7h4a1,1,0,0,1,1,1v2a4.924,4.924,0,0,1-1.03,3H45a1,1,0,0,1,1,1Z"></path><rect x="37" y="15" width="7" height="4"></rect><rect x="30" y="21" width="4" height="12"></rect><rect x="29" y="15" width="6" height="4"></rect><rect x="36" y="21" width="6" height="12"></rect></g></svg>