<svg xmlns="http://www.w3.org/2000/svg" viewBox="0 0 64 64" x="0px" y="0px"><g data-name="Military Helmet"><path d="M59.974,32.176a26.776,26.776,0,0,0-.2-2.705,34.282,34.282,0,0,0-5.8-15.14h0A30.983,30.983,0,0,0,47.805,7.7,25.13,25.13,0,0,0,32,2a24.589,24.589,0,0,0-3.579.26A25.356,25.356,0,0,0,16.4,7.53q-.988.777-1.933,1.659v0a32.39,32.39,0,0,0-5.315,6.47q-.4.642-.772,1.3a34.521,34.521,0,0,0-3.717,9.85,30.464,30.464,0,0,0-.64,5.364A3,3,0,0,0,2,35v1a3,3,0,0,0,3,3H6.047C6.523,48.536,13.727,56.929,24,59.866V61a1,1,0,0,0,1,1H39a1,1,0,0,0,1-1V59.866C50.273,56.929,57.477,48.536,57.953,39H59a3,3,0,0,0,3-3V35A2.994,2.994,0,0,0,59.974,32.176ZM50.943,21.03A4.738,4.738,0,0,1,50,19.01c.034-.29.793-1.293,2.86-2.718.1.153.2.3.3.459.129.207.256.414.381.624.193.328.379.661.561,1,.109.2.22.4.325.6.2.385.387.776.571,1.169.074.157.154.313.225.472.251.558.488,1.122.706,1.692.023.058.041.117.063.175q.29.766.54,1.543c.056.177.1.355.159.532.121.4.238.806.343,1.21.054.209.1.419.152.628q.135.564.247,1.13c.044.221.086.443.124.665.027.156.047.311.072.467a11.179,11.179,0,0,1-4.179-.55c-2.087-1.043-2.076-1.611-1.552-2.658C52.72,23.8,51.735,22.263,50.943,21.03ZM33.873,4.082c.206.017.411.051.616.074.413.046.825.093,1.234.162.244.042.485.1.727.148.367.075.734.149,1.1.243.255.065.506.143.758.217.347.1.693.206,1.035.325.256.089.508.187.761.285.334.129.666.263.995.408.251.111.5.229.749.349q.486.236.965.494.366.2.728.409c.316.185.628.381.939.583.234.151.468.3.7.465.1.07.2.148.3.22C44.175,9.4,43,10.438,43,12c0,1.395-1.467,4-5,4-1.817,0-3.158-.982-4.579-2.021C32.093,13.006,30.719,12,29,12a5.951,5.951,0,0,0-3.242,1.176c-1.423.885-2.547,1.584-5.244-.033a18.027,18.027,0,0,1-3.954-3.117c.187-.163.374-.327.564-.484.269-.222.538-.444.812-.653.329-.25.664-.485,1-.717.276-.19.552-.383.833-.561.347-.219.7-.42,1.055-.62.282-.159.562-.323.847-.469.367-.188.74-.354,1.112-.521.285-.128.567-.263.855-.378.387-.155.781-.285,1.173-.418.284-.1.564-.2.85-.286.415-.122.836-.216,1.257-.314.272-.063.541-.14.816-.193.468-.091.944-.149,1.419-.21.232-.029.462-.075.7-.1C30.56,4.037,31.277,4,32,4,32.627,4,33.252,4.029,33.873,4.082ZM15.105,11.375a19.834,19.834,0,0,0,4.38,3.482c3.744,2.247,5.732,1.01,7.329.016A4.213,4.213,0,0,1,29,14c1.065,0,2.073.737,3.24,1.592C33.782,16.721,35.529,18,38,18c4.567,0,7-3.484,7-6,0-.741.972-1.446,2.121-2.254a28.912,28.912,0,0,1,4.6,4.907C49.256,16.343,48,17.805,48,19a5.955,5.955,0,0,0,1.261,3.112c.722,1.124,1.14,1.85.844,2.441-1.647,3.295,1.223,4.729,2.451,5.343a12.1,12.1,0,0,0,4.715.76c.2,0,.4-.007.6-.013.042.451.1.9.114,1.357H6.02a28.491,28.491,0,0,1,.512-4.261c1.808-.7,3.341-.753,3.573-.292C11.382,30,14.858,30,16,30c1.331,0,2.989-2.191,3.254-3.827a2.664,2.664,0,0,0-1.938-3.121c-1.463-.489-1.571-1.1-1.785-2.317a7.58,7.58,0,0,0-.636-2.182c-.452-.9-1.582-1.811-3.424-2.758A30.356,30.356,0,0,1,15.105,11.375ZM7.118,25.207q.22-.792.483-1.577c.037-.109.07-.22.108-.329.206-.594.432-1.182.673-1.766.058-.139.119-.277.178-.416q.327-.762.692-1.508c.048-.1.092-.2.141-.293.282-.562.583-1.113.9-1.656.034-.058.07-.116.1-.175,2.132,1.072,2.612,1.759,2.712,1.96a5.774,5.774,0,0,1,.456,1.635,4.173,4.173,0,0,0,3.123,3.866c.6.2.608.48.614.647A3.633,3.633,0,0,1,15.894,28c-.928,0-3.3-.057-4-1.449a2.817,2.817,0,0,0-2.744-1.409,8.165,8.165,0,0,0-2.1.314C7.07,25.373,7.094,25.29,7.118,25.207ZM8.027,39h1C9.483,46.981,15.355,53.962,24,56.749V57.8C14.874,54.975,8.5,47.477,8.027,39Zm31.9,15.652A.994.994,0,0,0,39,54H25a.994.994,0,0,0-.93.652C16.564,52.024,11.5,45.935,11.046,39H52.954C52.505,45.935,47.436,52.024,39.93,54.652ZM38,60H26V56H38v4Zm2-2.2v-1.05C48.645,53.962,54.517,46.981,54.972,39h1C55.5,47.477,49.126,54.975,40,57.8ZM60,36a1,1,0,0,1-1,1H5a1,1,0,0,1-1-1V35a1,1,0,0,1,1-1H59a1,1,0,0,1,1,1Z"></path><path d="M25.447,25.9c.524-.261.9.045,2.136,1.725a17.751,17.751,0,0,0,1.71,2.087c1.038,1.038,3.115,1.44,5.232,1.44,2.656,0,5.375-.633,6.182-1.44.2-.2.488-.442.814-.72C42.989,27.74,45,26.032,45,24a4.8,4.8,0,0,0-6.447-3.895c-.913.458-3.443.642-10.31-1.075a.394.394,0,0,0-.047-.01c-.547-.111-5.4-1.038-7.643.085a1.969,1.969,0,0,0-1.1,1.727,3.714,3.714,0,0,0,.454,1.8C20.918,24.643,23.508,26.862,25.447,25.9Zm-4-5c1.225-.614,4.524-.278,6.334.082,6.23,1.555,9.826,1.837,11.666.918A2.868,2.868,0,0,1,43,24c0,1.106-1.736,2.582-2.773,3.463-.375.319-.7.6-.923.819-.862.707-7.06,1.549-8.6.011A16.015,16.015,0,0,1,29.2,26.436c-.886-1.206-1.944-2.645-3.418-2.645a2.734,2.734,0,0,0-1.224.314c-.2.1-.81-.069-1.57-.739A4.046,4.046,0,0,1,21.447,20.9Z"></path></g></svg>