<svg xmlns="http://www.w3.org/2000/svg" viewBox="0 0 64 64" x="0px" y="0px"><g data-name="French-French Press-Coffee Pot-Coffee-Drink"><path d="M33.22,8l.72-2.88a2.24,2.24,0,0,0-3.88,0L30.78,8Z"></path><rect x="31" y="14" width="2" height="2"></rect><path d="M20,22H44V21a3.009,3.009,0,0,0-3-3H23a3.009,3.009,0,0,0-3,3Z"></path><rect x="27" y="10" width="10" height="2"></rect><path d="M54,31a5,5,0,0,0-5-5H46v2h3a3.009,3.009,0,0,1,3,3V41a3.009,3.009,0,0,1-3,3H46v2h3a5,5,0,0,0,5-5Z"></path><polygon points="15 24 18 28 18 24 15 24"></polygon><rect x="18" y="58" width="28" height="2"></rect><rect x="31" y="24" width="2" height="7"></rect><rect x="20" y="24" width="9" height="7"></rect><path d="M20,56H44V33H35v9h6a1,1,0,0,1,1,1v4a1,1,0,0,1-1,1H23a1,1,0,0,1-1-1V43a1,1,0,0,1,1-1h6V33H20Z"></path><rect x="35" y="24" width="9" height="7"></rect><rect x="31" y="33" width="2" height="9"></rect><rect x="24" y="44" width="16" height="2"></rect></g></svg>