<svg xmlns="http://www.w3.org/2000/svg" viewBox="0 0 64 64" x="0px" y="0px"><g data-name="Graphic Tablet-Drawing Tablet-Device-Digital-Computer"><path d="M58,40H6V17a3,3,0,0,1,3-3h2V12H9a5.006,5.006,0,0,0-5,5V45a5.006,5.006,0,0,0,5,5H23.867l-.75,6H22a3,3,0,0,0,0,6H42a3,3,0,0,0,0-6H40.883l-.75-6H55a5.006,5.006,0,0,0,5-5V17H58ZM43,59a1,1,0,0,1-1,1H22a1,1,0,0,1,0-2H42A1,1,0,0,1,43,59Zm-4.133-3H25.133l.75-6H38.117ZM55,48H9a3,3,0,0,1-3-3V42H58v3A3,3,0,0,1,55,48Z"></path><rect x="52" y="44" width="2" height="2"></rect><path d="M16,34H48a3,3,0,0,0,3-3V23H49v5H15V12H48V10H15V5a1,1,0,0,1,1-1H48a1,1,0,0,1,1,1V9h2V5a3,3,0,0,0-3-3H16a3,3,0,0,0-3,3V31A3,3,0,0,0,16,34Zm33-4v1a1,1,0,0,1-1,1H16a1,1,0,0,1-1-1V30Z"></path><rect x="17" y="6" width="4" height="2"></rect><rect x="23" y="6" width="4" height="2"></rect><rect x="43" y="6" width="4" height="2"></rect><rect x="37" y="6" width="4" height="2"></rect><path d="M61.868,6.839,59.04,4.01a1,1,0,0,0-1.414,0L44.191,17.445a1.013,1.013,0,0,0-.242.391l-.707,2.122a1,1,0,0,0,.241,1.023h0L42.069,22.4l1.414,1.414L44.9,22.4h0a1,1,0,0,0,.707.293,1.014,1.014,0,0,0,.316-.051l2.121-.707a1.013,1.013,0,0,0,.391-.242L61.868,8.253A1,1,0,0,0,61.868,6.839ZM47.186,20.107l-1.311.437L45.334,20l.438-1.312L55.5,8.96l1.415,1.414ZM58.333,8.96,56.918,7.546l1.415-1.415,1.414,1.415Z"></path></g></svg>