<svg xmlns="http://www.w3.org/2000/svg" viewBox="0 0 64 64" x="0px" y="0px"><g data-name="Home Office-Work From Home-Studio-Online-Woman"><path d="M61,52H59.82A3,3,0,0,0,60,51V37a3.009,3.009,0,0,0-3-3H39a3.009,3.009,0,0,0-3,3V48H34V43.6a8.989,8.989,0,0,0-3.99-7.44,5.956,5.956,0,0,0,.75-9.82A4.068,4.068,0,0,0,31,25a4,4,0,0,0-3-3.87V18a9,9,0,0,0-18,0v3.13A4,4,0,0,0,7,25a4.068,4.068,0,0,0,.24,1.34,5.956,5.956,0,0,0,.75,9.82A8.989,8.989,0,0,0,4,43.6V49a4.924,4.924,0,0,0,1.03,3H3a1,1,0,0,0-1,1v4a1,1,0,0,0,1,1H5v3a1,1,0,0,0,1,1H58a1,1,0,0,0,1-1V58h2a1,1,0,0,0,1-1V53A1,1,0,0,0,61,52ZM38,37a1,1,0,0,1,1-1H57a1,1,0,0,1,1,1V51a1,1,0,0,1-1,1H38ZM36,50v2H27a1,1,0,0,1-1-1V50ZM27,23a2.006,2.006,0,0,1,2,2,1.857,1.857,0,0,1-.05.34,6.45,6.45,0,0,0-.75-.22l-.4,1.96a3.991,3.991,0,0,1-.28,7.87L23,33.3V30.92A8.005,8.005,0,0,0,27,24ZM19,36a6.973,6.973,0,0,1-3.35-.81l.69-.25A.992.992,0,0,0,17,34V31.74a7.822,7.822,0,0,0,4,0V34a.992.992,0,0,0,.66.94l.69.25A6.973,6.973,0,0,1,19,36Zm2.81,1.58L19,41.33l-2.81-3.75a9.61,9.61,0,0,0,5.62,0ZM19,30a6,6,0,0,1-6-6V21h2.86a4.987,4.987,0,0,0,4.16-2.23l.14-.2.96.97A4.994,4.994,0,0,0,24.66,21H25v3A6,6,0,0,1,19,30ZM12,18a7,7,0,0,1,14,0v1H24.66a2.956,2.956,0,0,1-2.12-.88l-1.83-1.83a.991.991,0,0,0-1.54.16l-.81,1.21A3.006,3.006,0,0,1,15.86,19H12ZM7,31a4.013,4.013,0,0,1,3.19-3.92l-.4-1.96a5.772,5.772,0,0,0-.74.22A1.857,1.857,0,0,1,9,25a2.006,2.006,0,0,1,2-2v1a8.005,8.005,0,0,0,4,6.92V33.3l-4.52,1.65A4.008,4.008,0,0,1,7,31ZM6,43.6a6.988,6.988,0,0,1,4.61-6.57l.23-.09a.188.188,0,0,0,.08-.02l1.79-.65L18.2,43.6a1,1,0,0,0,1.6,0l5.49-7.33,1.79.65a.145.145,0,0,0,.07.02l.24.09A6.988,6.988,0,0,1,32,43.6V48H28V43H26v5H25a1,1,0,0,0-1,1v2a3,3,0,0,0,.18,1H19.9A5.017,5.017,0,0,0,15,48H12V43H10v6a1,1,0,0,0,1,1h2v2H9a3.009,3.009,0,0,1-3-3ZM17.83,52H15V50A3.014,3.014,0,0,1,17.83,52ZM57,60H7V58H57Zm3-4H4V54H60Z"></path><rect x="15" y="22" width="2" height="2"></rect><rect x="21" y="22" width="2" height="2"></rect><path d="M48,47a3,3,0,1,0-3-3A3,3,0,0,0,48,47Zm0-4a1,1,0,1,1-1,1A1,1,0,0,1,48,43Z"></path><rect x="47" y="30" width="2" height="2"></rect><path d="M51.535,27.464a5,5,0,0,0-7.07,0l1.414,1.414a3.074,3.074,0,0,1,4.242,0Z"></path><path d="M54.364,24.636a9.01,9.01,0,0,0-12.728,0L43.05,26.05a7.011,7.011,0,0,1,9.9,0Z"></path><path d="M48,20a9,9,0,1,0-9-9A9.01,9.01,0,0,0,48,20Zm-5.736-5h2.122a12.538,12.538,0,0,0,.71,2.361A7.033,7.033,0,0,1,42.264,15ZM41,11a6.956,6.956,0,0,1,.3-2h2.8c-.061.658-.1,1.329-.1,2s.035,1.342.1,2H41.3A6.956,6.956,0,0,1,41,11Zm7-7c.376,0,1.1,1.037,1.569,3H46.431C46.9,5.037,47.624,4,48,4Zm1.9,5a19.659,19.659,0,0,1,0,4H46.1a19.659,19.659,0,0,1,0-4ZM55,11a6.956,6.956,0,0,1-.3,2H51.9c.061-.658.1-1.329.1-2s-.035-1.342-.1-2h2.8A6.956,6.956,0,0,1,55,11Zm-7,7c-.376,0-1.1-1.037-1.569-3h3.138C49.1,16.963,48.376,18,48,18Zm2.9-.639A12.612,12.612,0,0,0,51.614,15h2.122A7.033,7.033,0,0,1,50.9,17.361ZM53.736,7H51.614a12.612,12.612,0,0,0-.71-2.361A7.033,7.033,0,0,1,53.736,7ZM45.1,4.639A12.538,12.538,0,0,0,44.386,7H42.264A7.033,7.033,0,0,1,45.1,4.639Z"></path></g></svg>