<svg xmlns="http://www.w3.org/2000/svg" viewBox="0 0 64 64" x="0px" y="0px"><title>Goal-Target-Target</title><g><path d="M58.086,12.314a1,1,0,0,0-.657-.719L55,10.786V7a5.006,5.006,0,0,0-5-5H14A5.006,5.006,0,0,0,9,7V57a5.006,5.006,0,0,0,5,5H50a5.006,5.006,0,0,0,5-5V16.071l2.819-2.82A1,1,0,0,0,58.086,12.314Zm-11.143.5,1.247-1.247.708,2.121L47.65,14.935ZM50.312,15.1l2.121.707-1.247,1.247-2.122-.707Zm-.541-5.117,1.248-1.248.707,2.122-1.248,1.248ZM53,57a3,3,0,0,1-3,3H14a3,3,0,0,1-3-3V7a3,3,0,0,1,3-3H50a3,3,0,0,1,3,3V8.357l-.6-1.786a1,1,0,0,0-1.655-.391l-5.657,5.657a1,1,0,0,0-.241,1.023l1.218,3.657-2.088,2.088A17.9,17.9,0,0,0,33,14.051V12H31v2.051A17.994,17.994,0,0,0,14.051,31H12v2h2.051A17.994,17.994,0,0,0,31,49.949V52h2V49.949A17.994,17.994,0,0,0,49.949,33H52V31H49.949A17.9,17.9,0,0,0,45.4,20.019l2.088-2.088L51.14,19.15a.986.986,0,0,0,.316.051,1,1,0,0,0,.707-.293L53,18.071ZM47.949,33A16,16,0,0,1,33,47.949V46H31v1.949A16,16,0,0,1,16.051,33H18V31H16.051A16,16,0,0,1,31,16.051V18h2V16.051a15.915,15.915,0,0,1,9.568,3.967l-2.827,2.827a12.027,12.027,0,1,0,1.414,1.414l2.827-2.827A15.915,15.915,0,0,1,47.949,31H46v2ZM35,32a3,3,0,1,1-3-3,2.951,2.951,0,0,1,1.285.3l-1.992,1.992,1.414,1.414L34.7,30.715A2.951,2.951,0,0,1,35,32Zm-.247-4.167a5.015,5.015,0,1,0,1.414,1.414l3.571-3.571a10.016,10.016,0,1,1-1.414-1.414Zm19.261-13.6-2.121-.707,1.247-1.247,2.121.707Z"></path></g></svg>