<svg xmlns="http://www.w3.org/2000/svg" viewBox="0 0 64 64" x="0px" y="0px"><title>Cactus_27</title><g data-name="Cactus"><path d="M53,19H51.414l1.121-1.121-1.414-1.414L49.5,18.086A17.686,17.686,0,0,0,34.264,5.15l1.271-1.271L34.121,2.465,33,3.586V2H31V3.586L29.879,2.465,28.465,3.879,29.736,5.15A17.686,17.686,0,0,0,14.5,18.086l-1.622-1.621-1.414,1.414L12.586,19H11v2h1.586l-1.121,1.121,1.414,1.414,1.141-1.141A16.252,16.252,0,0,0,17.465,32H14a1,1,0,0,0-1,1v4a1,1,0,0,0,1,1h2V61a1,1,0,0,0,1,1H47a1,1,0,0,0,1-1V38h2a1,1,0,0,0,1-1V33a1,1,0,0,0-1-1H46.535a16.252,16.252,0,0,0,3.445-9.606l1.141,1.141,1.414-1.414L51.414,21H53ZM46,60H18V38H46Zm3-24H15V34H49Zm-5.079-4H20.079A14.38,14.38,0,0,1,16,22c0-8.271,7.178-15,16-15s16,6.729,16,15A14.38,14.38,0,0,1,43.921,32Z"></path><rect x="25" y="14" width="2" height="2"></rect><rect x="27" y="16" width="2" height="2"></rect><rect x="23" y="16" width="2" height="2"></rect><rect x="25" y="18" width="2" height="2"></rect><rect x="36" y="14" width="2" height="2"></rect><rect x="38" y="16" width="2" height="2"></rect><rect x="34" y="16" width="2" height="2"></rect><rect x="36" y="18" width="2" height="2"></rect><rect x="31" y="23" width="2" height="2"></rect><rect x="33" y="25" width="2" height="2"></rect><rect x="29" y="25" width="2" height="2"></rect><rect x="31" y="27" width="2" height="2"></rect><rect x="42" y="56" width="2" height="2"></rect><rect x="42" y="53" width="2" height="2"></rect><rect x="39" y="56" width="2" height="2"></rect></g></svg>