<svg xmlns="http://www.w3.org/2000/svg" viewBox="0 0 64 64" x="0px" y="0px"><g><path d="M49,12H41V9a1,1,0,0,0-1-1H38V3a1,1,0,0,0-1-1H27a1,1,0,0,0-1,1V8H24a1,1,0,0,0-1,1v3H15a3,3,0,0,0-3,3V59a3,3,0,0,0,3,3H49a3,3,0,0,0,3-3V15A3,3,0,0,0,49,12ZM28,4h8V8H28Zm-3,6H39v2H25ZM50,59a1,1,0,0,1-1,1H15a1,1,0,0,1-1-1V15a1,1,0,0,1,1-1H49a1,1,0,0,1,1,1Z"></path><path d="M32,17a9,9,0,1,0,9,9A9.01,9.01,0,0,0,32,17Zm0,16a7,7,0,1,1,7-7A7.008,7.008,0,0,1,32,33Z"></path><path d="M32,39a9,9,0,1,0,9,9A9.01,9.01,0,0,0,32,39Zm0,16a7,7,0,1,1,7-7A7.008,7.008,0,0,1,32,55Z"></path><path d="M32,42a6,6,0,1,0,6,6A6.006,6.006,0,0,0,32,42Zm0,10a4,4,0,1,1,4-4A4,4,0,0,1,32,52Z"></path><path d="M32,20a3,3,0,0,0-3,3v6a3,3,0,0,0,6,0V23A3,3,0,0,0,32,20Zm1,9a1,1,0,0,1-2,0V23a1,1,0,0,1,2,0Z"></path></g></svg>