<svg xmlns="http://www.w3.org/2000/svg" viewBox="0 0 64 64" x="0px" y="0px"><g data-name="Share Files"><path d="M10,54H38V48H29V46h9V40H10Zm15-8h2v2H25Z"></path><path d="M46,54h8V40H46v2H44V30h2v4h8V20H46v4H44V5a1,1,0,0,0-1-1H42v9a1,1,0,0,1-.684.949A1.019,1.019,0,0,1,41,14a1,1,0,0,1-.8-.4L38,10.667,35.8,13.6A1,1,0,0,1,34,13V4H5A1,1,0,0,0,4,5V59a1,1,0,0,0,1,1H43a1,1,0,0,0,1-1V52h2Zm4-28h2v2H50ZM14,8H26v2H14ZM8,8h4v2H8Zm0,4H28v2H8Zm0,7a1,1,0,0,1,1-1H39a1,1,0,0,1,1,1v7h8v2H40v7a1,1,0,0,1-1,1H9a1,1,0,0,1-1-1ZM40,48v7a1,1,0,0,1-1,1H9a1,1,0,0,1-1-1V39a1,1,0,0,1,1-1H39a1,1,0,0,1,1,1v7h8.586l-2.293-2.293,1.414-1.414,4,4a1,1,0,0,1,0,1.414l-4,4-1.414-1.414L48.586,48Z"></path><path d="M38,28H28.414l2.293,2.293-1.414,1.414-4-4a1,1,0,0,1,0-1.414l4-4,1.414,1.414L28.414,26H38V20H10V34H38Z"></path><path d="M51.2,8.4a1.036,1.036,0,0,1,1.6,0L54,10V4H50v6Z"></path><path d="M37.2,8.4a1.036,1.036,0,0,1,1.6,0L40,10V4H36v6Z"></path><path d="M60,59V5a1,1,0,0,0-1-1H56v9a1,1,0,0,1-.684.949A1.019,1.019,0,0,1,55,14a1,1,0,0,1-.8-.4L52,10.667,49.8,13.6A1,1,0,0,1,48,13V4H45.816A2.966,2.966,0,0,1,46,5V18h9a1,1,0,0,1,1,1V35a1,1,0,0,1-1,1H46v2h9a1,1,0,0,1,1,1V55a1,1,0,0,1-1,1H46v3a2.966,2.966,0,0,1-.184,1H59A1,1,0,0,0,60,59Z"></path></g></svg>