<svg xmlns="http://www.w3.org/2000/svg" viewBox="0 0 64 64" x="0px" y="0px"><g data-name="Analysis-Report-Marketing-Money Tree-Coins"><path d="M53,26a8,8,0,1,0-8-8A8.009,8.009,0,0,0,53,26Zm1-7H52a3,3,0,0,1,0-6V12h2v1a3,3,0,0,1,3,3H55a1,1,0,0,0-1-1H52a1,1,0,0,0,0,2h2a3,3,0,0,1,0,6v1H52V23a3,3,0,0,1-3-3h2a1,1,0,0,0,1,1h2a1,1,0,0,0,0-2Z"></path><path d="M5,60H39a1,1,0,0,0,1-1V58H30a2,2,0,0,1-2-2V52a1.978,1.978,0,0,1,.278-1A1.978,1.978,0,0,1,28,50V46a2,2,0,0,1,2-2H40V5a1,1,0,0,0-1-1H38v7a1,1,0,0,1-1.832.555L35,9.8l-1.168,1.752A1,1,0,0,1,32,11V4H5A1,1,0,0,0,4,5V59A1,1,0,0,0,5,60ZM33,25V38h2v2H9V38h2V33a1,1,0,0,1,1-1h4a1,1,0,0,1,1,1v5h2V29a1,1,0,0,1,1-1h4a1,1,0,0,1,1,1v9h2V25a1,1,0,0,1,1-1h4A1,1,0,0,1,33,25Zm-7-7V16h4a1,1,0,0,1,1,1v4H29V19.414l-6.293,6.293A1,1,0,0,1,22,26H18.414l-4.207,4.207-1.414-1.414,4.5-4.5A1,1,0,0,1,18,24h3.586l6-6ZM12,8h6v2H12ZM8,8h2v2H8Zm0,4H18v2H8ZM8,44H24v2H8Zm0,4H24v2H8Zm0,4H24v2H8Z"></path><rect x="29" y="26" width="2" height="12"></rect><rect x="13" y="34" width="2" height="4"></rect><path d="M34.168,7.445a1.039,1.039,0,0,1,1.664,0L36,7.7V4H34V7.7Z"></path><rect x="21" y="30" width="2" height="8"></rect><polygon points="42 48 40 48 40 46 38 46 38 48 36 48 36 46 34 46 34 48 32 48 32 46 30 46 29.999 46 30 50 44 50 44 46 42 46 42 48"></polygon><polygon points="58 42 56 42 56 40 54 40 54 42 52 42 52 40 50 40 50 42 48 42 48 40 46 40 45.998 40 46 44 60 44 60 40 58 40 58 42"></polygon><polygon points="60 46 58 46 58 48 56 48 56 46 54 46 54 48 52 48 52 46 50 46 50 48 48 48 48 46 46 46 46 50 60 50 60 46"></polygon><polygon points="44 52 42 52 42 54 40 54 40 52 38 52 38 54 36 54 36 52 34 52 34 54 32 54 32 52 30 52 29.999 52 30 56 44 56 44 52"></polygon><polygon points="60 52 58 52 58 54 56 54 56 52 54 52 54 54 52 54 52 52 50 52 50 54 48 54 48 52 46 52 46 56 60 56 60 52"></polygon><path d="M58.81,29.73A3.988,3.988,0,0,0,54,31.458V28H52v3.458a3.988,3.988,0,0,0-4.81-1.728l-1.88.68.68,1.88a4,4,0,0,0,5.13,2.39l.88-.318V38h2V34.362l.88.318a4,4,0,0,0,5.13-2.39l.68-1.88Z"></path></g></svg>