<svg xmlns="http://www.w3.org/2000/svg" viewBox="0 0 64 64" x="0px" y="0px"><g data-name="Business-Woman-Avatar-Long-Hair"><path d="M40,8.881V20a6,6,0,0,1-3,5.188v2.857c.063,0,.127,0,.19.008a13.048,13.048,0,0,1,7.278,3.087A3.995,3.995,0,0,0,42,24a1,1,0,0,1-1-1V13A8.946,8.946,0,0,0,40,8.881Z"></path><path d="M33,9a5.941,5.941,0,0,0,5-2.693A8.971,8.971,0,0,0,23.95,9Z"></path><path d="M26,11v9a4,4,0,0,0,4,4h4a4,4,0,0,0,4-4V9.249A7.961,7.961,0,0,1,33,11Zm3.92,3.38a1.155,1.155,0,0,1-.21.33A1.052,1.052,0,0,1,29,15a1,1,0,0,1-.38-.08,1.032,1.032,0,0,1-.33-.21,1.155,1.155,0,0,1-.21-.33A.838.838,0,0,1,28,14a1.355,1.355,0,0,1,.02-.2.636.636,0,0,1,.06-.18.757.757,0,0,1,.09-.18,1.576,1.576,0,0,1,.12-.15,1.032,1.032,0,0,1,.33-.21,1.021,1.021,0,0,1,1.09.21l.12.15a.8.8,0,0,1,.09.18.6.6,0,0,1,.059.18A1.234,1.234,0,0,1,30,14,1,1,0,0,1,29.92,14.38Zm4.37-1.09a1.047,1.047,0,0,1,1.42,0l.12.15a.8.8,0,0,1,.09.18.6.6,0,0,1,.059.18A1.234,1.234,0,0,1,36,14a1,1,0,0,1-.08.38,1.155,1.155,0,0,1-.21.33A1.052,1.052,0,0,1,35,15a1.213,1.213,0,0,1-.19-.02.6.6,0,0,1-.19-.06.782.782,0,0,1-.181-.09l-.149-.12a1.032,1.032,0,0,1-.21-.33A1,1,0,0,1,34,14,1.028,1.028,0,0,1,34.29,13.29Z"></path><path d="M43,60h4V41a10.972,10.972,0,0,0-9.011-10.819l.843,1.264a1,1,0,0,1,.1.927L32.914,46.406a1,1,0,0,1-1.828,0L25.071,32.372a1,1,0,0,1,.1-.927l.84-1.26A10.966,10.966,0,0,0,17,41V60h4V50.447a8.417,8.417,0,0,1,0-10.894V38h2v2a1,1,0,0,1-.4.8c-.9.679-1.6,2.815-1.6,4.2s.7,3.522,1.6,4.2a1,1,0,0,1,.4.8V60H41V50a1,1,0,0,1,.4-.8c.9-.679,1.6-2.815,1.6-4.2s-.7-3.522-1.6-4.2A1,1,0,0,1,41,40V38h2v1.553a8.417,8.417,0,0,1,0,10.894Z"></path><path d="M23,13V23a1,1,0,0,1-1,1,3.995,3.995,0,0,0-2.464,7.143A12.914,12.914,0,0,1,27,28.048v-2.86A6,6,0,0,1,24,20V11h-.768A8.971,8.971,0,0,0,23,13Z"></path><path d="M35,28.649V25.91A6,6,0,0,1,34,26H30a6,6,0,0,1-1-.09v2.739l3,3.75Z"></path><polygon points="36.876 32.117 35.927 30.693 33.426 33.819 35.556 35.417 36.876 32.117"></polygon><polygon points="34.763 37.321 32 35.25 29.237 37.321 32 43.538 34.763 37.321"></polygon><polygon points="27.124 32.117 28.444 35.417 30.574 33.819 28.073 30.693 27.124 32.117"></polygon></g></svg>