<svg xmlns="http://www.w3.org/2000/svg" viewBox="0 0 64 64" x="0px" y="0px"><g><path d="M46,55a5.006,5.006,0,0,1-5,5H9a5.006,5.006,0,0,1-5-5V9A5.006,5.006,0,0,1,9,4H41a5.006,5.006,0,0,1,5,5v2h2V9a7.008,7.008,0,0,0-7-7H9A7.008,7.008,0,0,0,2,9V55a7.008,7.008,0,0,0,7,7H41a7.008,7.008,0,0,0,7-7V51H46Z"></path><rect x="16" y="6" width="2" height="2"></rect><rect x="20" y="6" width="10" height="2"></rect><path d="M23,52a3,3,0,0,0,0,6h4a3,3,0,0,0,0-6Zm5,3a1,1,0,0,1-1,1H23a1,1,0,0,1,0-2h4A1,1,0,0,1,28,55Z"></path><path d="M61.707,21.293l-8-8A1,1,0,0,0,53,13H37a3,3,0,0,0-3,3v9h2V16a1,1,0,0,1,1-1H52v5a3,3,0,0,0,3,3h5V46a1,1,0,0,1-1,1H37a1,1,0,0,1-1-1V37H34v9a3,3,0,0,0,3,3H59a3,3,0,0,0,3-3V22A1,1,0,0,0,61.707,21.293ZM54,20V16.414L58.586,21H55A1,1,0,0,1,54,20Z"></path><rect x="38" y="17" width="6" height="2"></rect><rect x="38" y="21" width="6" height="2"></rect><path d="M49,38H47a1,1,0,0,1-1-1H44a3,3,0,0,0,3,3v1h2V40a3,3,0,0,0,0-6H47a1,1,0,0,1,0-2h2a1,1,0,0,1,1,1h2a3,3,0,0,0-3-3V29H47v1a3,3,0,0,0,0,6h2a1,1,0,0,1,0,2Z"></path><path d="M48,45A10,10,0,1,0,38,35,10.011,10.011,0,0,0,48,45Zm0-18a8,8,0,1,1-8,8A8.009,8.009,0,0,1,48,27Z"></path><path d="M31,44V35h2a1,1,0,0,0,1-1V28a1,1,0,0,0-1-1H27a1,1,0,0,0-1,1v2H24.333L21,27.5V21h2a1,1,0,0,0,1-1V14a1,1,0,0,0-1-1H17a1,1,0,0,0-1,1v6a1,1,0,0,0,1,1h2v6.5L15.667,30H14V28a1,1,0,0,0-1-1H7a1,1,0,0,0-1,1v6a1,1,0,0,0,1,1h6a1,1,0,0,0,1-1V32h1.667L19,34.5V40H17a1,1,0,0,0-1,1v6a1,1,0,0,0,1,1h6a1,1,0,0,0,1-1V45h6A1,1,0,0,0,31,44ZM18,15h4v4H18ZM12,33H8V29h4Zm16-4h4v4H28Zm-8,.25L22.333,31,20,32.75,17.667,31ZM22,46H18V42h4Zm2-3V41a1,1,0,0,0-1-1H21V34.5L24.333,32H26v2a1,1,0,0,0,1,1h2v8Z"></path></g></svg>