<svg xmlns="http://www.w3.org/2000/svg" viewBox="0 0 64 64" x="0px" y="0px"><g data-name="Metal Detector"><rect x="3" y="43" width="6" height="2"></rect><rect x="5" y="31.146" width="2" height="6.708" transform="translate(-27.541 24.438) rotate(-63.435)"></rect><rect x="2.646" y="52.5" width="6.708" height="2" transform="translate(-23.292 8.331) rotate(-26.565)"></rect><rect x="55" y="43" width="6" height="2"></rect><rect x="54.646" y="33.5" width="6.708" height="2" transform="translate(-9.306 29.581) rotate(-26.565)"></rect><rect x="57" y="50.146" width="2" height="6.708" transform="translate(-15.79 81.451) rotate(-63.435)"></rect><path d="M52,18H12v8H52ZM28,23H24V21h4Zm6,0H30V21h4Zm6,0H36V21h4Z"></path><rect x="50" y="28" width="2" height="32"></rect><path d="M31,12h2V11a1,1,0,0,0-2,0Z"></path><rect x="12" y="28" width="2" height="32"></rect><rect x="27" y="14" width="10" height="2"></rect><rect x="31" y="3" width="2" height="4"></rect><rect x="26.05" y="5.05" width="2" height="4" transform="translate(2.94 21.197) rotate(-45.01)"></rect><rect x="34.95" y="6.05" width="4" height="2" transform="translate(5.837 28.192) rotate(-45)"></rect></g></svg>