<svg xmlns="http://www.w3.org/2000/svg" viewBox="0 0 64 64" x="0px" y="0px"><g data-name="Data-Management"><path d="M48,58v2H46a1.033,1.033,0,0,1-.71-.29l-5.14-5.14a20.714,20.714,0,0,0,2.01-.83L46.41,58Z"></path><path d="M16.83,13.41a18.9,18.9,0,0,0-1.5,1.34L11.59,11H10V9h2a1.033,1.033,0,0,1,.71.29Z"></path><path d="M52,8v2H50.41l-3.33,3.34a19.651,19.651,0,0,0-1.63-1.21l3.84-3.84A1.033,1.033,0,0,1,50,8Z"></path><circle cx="32" cy="32" r="3"></circle><path d="M42.153,53.739A24.033,24.033,0,0,0,55.975,33H51.949A20.007,20.007,0,0,1,32,52a19.8,19.8,0,0,1-13.4-5.19l-2.852,2.852a24,24,0,0,0,24.4,4.909l-.864-.864,1.414-1.414Z"></path><path d="M15.337,14.751a23.969,23.969,0,0,0-1,33.5L17.19,45.4A19.8,19.8,0,0,1,12,32,20.007,20.007,0,0,1,31,12.051V8.025a23.882,23.882,0,0,0-14.168,5.392l.875.876-1.414,1.414Z"></path><path d="M25.79,34.572a1.984,1.984,0,0,1-.221,1.929l-.749,1.048,1.631,1.631,1.049-.749a2,2,0,0,1,3.135,1.3L30.847,41h2.306l.212-1.271a2,2,0,0,1,3.136-1.3l1.048.749,1.631-1.631L38.431,36.5a2,2,0,0,1,1.3-3.135L41,33.153V30.847l-1.271-.212a2,2,0,0,1-1.3-3.136l.749-1.048L37.549,24.82l-1.049.749a2,2,0,0,1-3.135-1.3L33.153,23H30.847l-.212,1.271a2,2,0,0,1-3.136,1.3l-1.048-.749L24.82,26.451l.749,1.049a2,2,0,0,1-1.3,3.135L23,30.847v2.306l1.271.212A1.99,1.99,0,0,1,25.79,34.572ZM32,27a5,5,0,1,1-5,5A5.006,5.006,0,0,1,32,27Z"></path><path d="M14,32A18,18,0,1,0,32,14,17.843,17.843,0,0,0,14,32Zm7-2a1,1,0,0,1,.835-.986l2.106-.352L22.7,26.924a1,1,0,0,1,.107-1.288l2.828-2.828a1,1,0,0,1,1.288-.107l1.738,1.241.352-2.107A1,1,0,0,1,30,21h4a1,1,0,0,1,.986.835l.352,2.106,1.738-1.24a1,1,0,0,1,1.288.107l2.828,2.828a1,1,0,0,1,.107,1.288l-1.241,1.738,2.107.352A1,1,0,0,1,43,30v4a1,1,0,0,1-.835.986l-2.106.352,1.24,1.738a1,1,0,0,1-.107,1.288l-2.828,2.828a1,1,0,0,1-1.288.107l-1.738-1.241-.352,2.107A1,1,0,0,1,34,43H30a1,1,0,0,1-.986-.835l-.352-2.106L26.924,41.3a1,1,0,0,1-1.288-.107l-2.828-2.828a1,1,0,0,1-.107-1.288l1.241-1.738-2.107-.352A1,1,0,0,1,21,34Z"></path><path d="M47.072,13.342l-1.365,1.365-1.414-1.414,1.158-1.158A23.851,23.851,0,0,0,33,8.025v4.026A19.991,19.991,0,0,1,51.949,31h4.026A23.964,23.964,0,0,0,47.072,13.342Z"></path><rect x="58" y="6" width="4" height="2"></rect><rect x="54" y="6" width="2" height="2"></rect><rect x="54" y="10" width="8" height="2"></rect><rect x="31" y="2" width="2" height="2"></rect><rect x="27" y="2" width="2" height="2"></rect><rect x="23" y="2" width="2" height="2"></rect><rect x="19" y="2" width="2" height="2"></rect><rect x="15" y="2" width="2" height="2"></rect><rect x="35" y="2" width="2" height="2"></rect><rect x="39" y="2" width="2" height="2"></rect><rect x="43" y="2" width="2" height="2"></rect><rect x="47" y="2" width="2" height="2"></rect><rect x="50" y="60" width="8" height="2"></rect><rect x="50" y="56" width="2" height="2"></rect><rect x="54" y="56" width="4" height="2"></rect><rect x="2" y="7" width="6" height="2"></rect><rect x="2" y="11" width="6" height="2"></rect><rect x="2" y="56" width="10" height="2"></rect><rect x="2" y="60" width="10" height="2"></rect></g></svg>