<svg xmlns="http://www.w3.org/2000/svg" viewBox="0 0 64 64" x="0px" y="0px"><g data-name="Cloud-Download-Computer-Cloud Computing-Arrow"><path d="M20,52a1,1,0,0,0,1,1h9v3h4V53h9a1,1,0,0,0,1-1V50H20Z"></path><path d="M37,58H27a1,1,0,0,0-1,1v1H38V59A1,1,0,0,0,37,58Z"></path><path d="M43,36H36v2h1a1,1,0,0,1,.77,1.64l-5,6a1,1,0,0,1-1.54,0l-5-6A1,1,0,0,1,27,38h1V36H21a1,1,0,0,0-1,1V48H44V37A1,1,0,0,0,43,36Z"></path><path d="M45.79,15.04a1,1,0,0,1-.69-.39.966.966,0,0,1-.18-.77A5.858,5.858,0,0,0,45,13a5,5,0,0,0-5-5,4.879,4.879,0,0,0-2.15.5,1,1,0,0,1-1.28-.36A9,9,0,0,0,20,13a9.082,9.082,0,0,0,.05.91,1.01,1.01,0,0,1-1,1.09A7,7,0,1,0,19,29h9V19h2V39a1,1,0,0,1-.87.99L32,43.44l2.87-3.45A1,1,0,0,1,34,39V19h2V29h9a7,7,0,0,0,.79-13.96ZM29,8a5.006,5.006,0,0,0-5,5H22a7.009,7.009,0,0,1,7-7ZM43,27H41V25h2Zm2,0V25a3,3,0,0,0,3-3h2A5.006,5.006,0,0,1,45,27Z"></path></g></svg>