<svg xmlns="http://www.w3.org/2000/svg" viewBox="0 0 64 64" x="0px" y="0px"><g><rect x="40" y="52" width="4" height="4"></rect><path d="M36,23V59a1,1,0,0,0,1,1H59a1,1,0,0,0,1-1V23a1,1,0,0,0-1-1H37A1,1,0,0,0,36,23Zm2,2a1,1,0,0,1,1-1H57a1,1,0,0,1,1,1V35a1,1,0,0,1-1,1H39a1,1,0,0,1-1-1Zm0,14a1,1,0,0,1,1-1H57a1,1,0,0,1,1,1V57a1,1,0,0,1-1,1H39a1,1,0,0,1-1-1Z"></path><path d="M34,36H14.91A6.008,6.008,0,0,1,10,40.91v4.18A6.008,6.008,0,0,1,14.91,50H34ZM24,48a5,5,0,1,1,5-5A5.006,5.006,0,0,1,24,48Z"></path><rect x="28" y="55" width="6" height="1"></rect><path d="M56.839,5.809a1,1,0,0,1-1.176,0L53.5,4.237,51.345,5.808a1,1,0,0,1-1.177,0l-2.16-1.572L45.847,5.809a1,1,0,0,1-1.177,0L42.508,4.236,40.342,5.809a1,1,0,0,1-1.175,0L38,4.962V20H58V4.964ZM51,18H41V16H51Zm0-4H41V12H51Zm0-4H41V8H51Zm4,8H53V16h2Zm0-4H53V12h2Zm0-4H53V8h2Z"></path><circle cx="24" cy="43" r="3"></circle><rect x="40" y="40" width="4" height="4"></rect><rect x="40" y="46" width="4" height="4"></rect><rect x="52" y="40" width="4" height="4"></rect><path d="M56,26H40v8H56ZM45,31H43V29h2Zm4,0H47V29h2Zm4,0H51V29h2Z"></path><rect x="52" y="46" width="4" height="4"></rect><rect x="52" y="52" width="4" height="4"></rect><rect x="46" y="46" width="4" height="4"></rect><rect x="46" y="52" width="4" height="4"></rect><rect x="46" y="40" width="4" height="4"></rect><rect x="28" y="52" width="6" height="1"></rect><rect x="22" y="52" width="4" height="4"></rect><path d="M10,47.126V50h2.859A4.007,4.007,0,0,0,10,47.126Z"></path><path d="M28.586,10,24,5.414V9a1,1,0,0,0,1,1Z"></path><rect x="10" y="52" width="10" height="1"></rect><path d="M10,38.858A4,4,0,0,0,12.858,36H10Z"></path><path d="M5,40H8V36a2,2,0,0,1,2-2H30V12H25a3,3,0,0,1-3-3V4H5A1,1,0,0,0,4,5V39A1,1,0,0,0,5,40ZM26,30H22V28h4Zm0-14v2H16V16ZM12,6h6V8H12ZM8,6h2V8H8Zm0,4H18v2H8Zm6,6v2H12V16ZM8,16h2v2H8Zm0,4H26v2H8Zm0,4H26v2H8Zm0,4H20v2H8Z"></path><rect x="10" y="55" width="10" height="1"></rect></g></svg>