<svg xmlns="http://www.w3.org/2000/svg" viewBox="0 0 64 64" x="0px" y="0px"><g><polygon points="26.11 48 34.19 48 30.15 43.96 26.11 48"></polygon><rect x="41" y="38" width="4" height="2" transform="translate(-14.983 41.828) rotate(-45)"></rect><path d="M50,12.79,28.03,34.77a1.014,1.014,0,0,1-1.42,0L14,22.15v2.84L25.2,36.18a1.014,1.014,0,0,1,0,1.42L14.79,48h8.5l6.15-6.16a1.014,1.014,0,0,1,1.42,0L37.01,48h2.83l-7.58-7.57a1.014,1.014,0,0,1,0-1.42L50,21.29Z"></path><rect x="14.876" y="35.876" width="2.249" height="2.249" transform="translate(-21.477 22.151) rotate(-45)"></rect><path d="M14,45.97l9.08-9.08L14,27.81v6.78l1.29-1.3a1.008,1.008,0,0,1,1.42,0l3,3a1.008,1.008,0,0,1,0,1.42l-3,3a1.014,1.014,0,0,1-1.42,0L14,39.41Z"></path><path d="M34,54H30a1,1,0,0,0,0,2h4a1,1,0,0,0,0-2Z"></path><path d="M50,50H14v6a4,4,0,0,0,4,4H46a4,4,0,0,0,4-4ZM34,58H30a3,3,0,0,1,0-6h4a3,3,0,0,1,0,6Z"></path><path d="M50,24.11,34.38,39.72,42.67,48H50ZM47.242,39,43,43.242a1,1,0,0,1-1.414,0l-2.828-2.828a1,1,0,0,1,0-1.414L43,34.758a1,1,0,0,1,1.414,0l2.828,2.828A1,1,0,0,1,47.242,39Z"></path><path d="M50,8a4,4,0,0,0-4-4H18a4,4,0,0,0-4,4v2H50ZM27,8H25V6h2Zm8,0H29V6h6Z"></path><path d="M33,17a5,5,0,0,0-10,0c0,2.57,3.15,6.53,5,8.55C29.85,23.53,33,19.57,33,17Zm-8,0a3,3,0,1,1,3,3A3,3,0,0,1,25,17Z"></path><circle cx="28" cy="17" r="1"></circle><path d="M14,19.33,27.32,32.65,47.97,12H32.89A6.97,6.97,0,0,1,35,17c0,4.29-5.65,10.06-6.29,10.71a1.014,1.014,0,0,1-1.42,0C26.65,27.06,21,21.29,21,17a6.97,6.97,0,0,1,2.11-5H14Z"></path></g></svg>