<svg xmlns="http://www.w3.org/2000/svg" viewBox="0 0 64 64" x="0px" y="0px"><g data-name="Concept Website"><path d="M4,53V12H54v7h2V5a3,3,0,0,0-3-3H5A3,3,0,0,0,2,5V53a3,3,0,0,0,3,3H30V54H5A1,1,0,0,1,4,53ZM5,4H53a1,1,0,0,1,1,1v5H4V5A1,1,0,0,1,5,4Z"></path><rect x="8" y="6" width="2" height="2"></rect><rect x="12" y="6" width="2" height="2"></rect><rect x="16" y="6" width="2" height="2"></rect><rect x="8" y="16" width="2" height="2"></rect><rect x="12" y="16" width="2" height="2"></rect><rect x="16" y="16" width="2" height="2"></rect><rect x="20" y="16" width="2" height="2"></rect><rect x="24" y="6" width="22" height="2"></rect><rect x="40" y="16" width="2" height="4"></rect><rect x="52.435" y="22.565" width="4" height="2" transform="translate(-0.719 45.393) rotate(-45)"></rect><rect x="58" y="36" width="4" height="2"></rect><rect x="53.435" y="48.435" width="2" height="4" transform="translate(-19.719 53.263) rotate(-45)"></rect><rect x="25.565" y="49.435" width="4" height="2" transform="translate(-27.589 34.263) rotate(-45)"></rect><rect x="20" y="36" width="4" height="2"></rect><rect x="26.565" y="21.565" width="2" height="4" transform="translate(-8.589 26.393) rotate(-45)"></rect><path d="M56,37A15,15,0,1,0,31.867,48.9a2.986,2.986,0,0,0,.534,4.634,2.958,2.958,0,0,0,1.684,4.313A5,5,0,0,0,39,62h4a5,5,0,0,0,4.915-4.158A2.958,2.958,0,0,0,49.6,53.529a2.986,2.986,0,0,0,.534-4.634A14.875,14.875,0,0,0,56,37ZM48,50a1,1,0,0,1,0,2H34a1,1,0,0,1,0-2ZM43,60H39a3,3,0,0,1-2.816-2h9.632A3,3,0,0,1,43,60Zm4-4H35a1,1,0,0,1,0-2H47a1,1,0,0,1,0,2Zm.905-8H42V39h3a3,3,0,1,0-3-3h2a1,1,0,1,1,1,1H37a1,1,0,1,1,1-1h2a3,3,0,1,0-3,3h3v9H34.1a13,13,0,1,1,13.81,0Z"></path><rect x="8" y="20" width="14" height="2"></rect><rect x="8" y="24" width="14" height="2"></rect><rect x="8" y="28" width="14" height="2"></rect></g></svg>