<svg xmlns="http://www.w3.org/2000/svg" viewBox="0 0 64 64" x="0px" y="0px"><g><rect x="30" y="4" width="4" height="2"></rect><rect x="4" y="8" width="56" height="2"></rect><path d="M23.291,30.228a8.892,8.892,0,0,0,.975,2.356,1,1,0,0,1-.06,1.111l-1.492,1.99,1.6,1.6,1.99-1.492a1,1,0,0,1,1.111-.06,8.892,8.892,0,0,0,2.356.975,1,1,0,0,1,.743.828L30.867,40h2.266l.351-2.463a1,1,0,0,1,.744-.828,8.859,8.859,0,0,0,2.356-.975,1,1,0,0,1,1.11.06l1.991,1.492,1.6-1.6L39.794,33.7a1,1,0,0,1-.061-1.111,8.923,8.923,0,0,0,.977-2.357,1,1,0,0,1,.827-.742L44,29.133V26.867l-2.463-.352a1,1,0,0,1-.827-.742,8.923,8.923,0,0,0-.977-2.357,1,1,0,0,1,.061-1.111l1.492-1.99-1.6-1.6-1.991,1.492a1,1,0,0,1-1.11.06,8.859,8.859,0,0,0-2.356-.975,1,1,0,0,1-.744-.828L33.133,16H30.867l-.352,2.463a1,1,0,0,1-.743.828,8.892,8.892,0,0,0-2.356.975,1,1,0,0,1-1.111-.06l-1.99-1.492-1.6,1.6,1.492,1.99a1,1,0,0,1,.06,1.111,8.892,8.892,0,0,0-.975,2.356,1,1,0,0,1-.828.743L20,26.867v2.266l2.463.352A1,1,0,0,1,23.291,30.228ZM32,22a6,6,0,1,1-6,6A6.006,6.006,0,0,1,32,22Z"></path><circle cx="32" cy="28" r="4"></circle><rect x="4" y="46" width="56" height="2"></rect><rect x="23" y="58" width="18" height="2"></rect><rect x="30" y="50" width="4" height="6"></rect><path d="M58,44V12H6V44ZM16.707,41.707A1,1,0,0,1,16,42H14V40h1.586l2.707-2.707,1.414,1.414ZM49,38H45V36h4Zm3-22h4v2H52Zm0,4h4v2H52ZM51,36h5v2H51Zm0,4h5v2H51ZM47.293,16.293A1,1,0,0,1,48,16h2v2H48.414l-1.707,1.707-1.414-1.414ZM18,26a1,1,0,0,1,.858-.99l2.682-.383a10.96,10.96,0,0,1,.678-1.639l-1.624-2.166a1,1,0,0,1,.093-1.307l2.828-2.828a1,1,0,0,1,1.307-.093l2.166,1.624a10.96,10.96,0,0,1,1.639-.678l.383-2.682A1,1,0,0,1,30,14h4a1,1,0,0,1,.99.858l.383,2.682a10.855,10.855,0,0,1,1.639.678l2.167-1.624a1,1,0,0,1,1.306.093l2.828,2.828a1,1,0,0,1,.093,1.307l-1.625,2.166a10.86,10.86,0,0,1,.679,1.639l2.682.383A1,1,0,0,1,46,26v4a1,1,0,0,1-.858.99l-2.682.383a10.86,10.86,0,0,1-.679,1.639l1.625,2.166a1,1,0,0,1-.093,1.307l-2.828,2.828a1,1,0,0,1-1.306.093l-2.167-1.624a10.855,10.855,0,0,1-1.639.678l-.383,2.682A1,1,0,0,1,34,42H30a1,1,0,0,1-.99-.858l-.383-2.682a10.96,10.96,0,0,1-1.639-.678l-2.166,1.624a1,1,0,0,1-1.307-.093l-2.828-2.828a1,1,0,0,1-.093-1.307l1.624-2.166a10.96,10.96,0,0,1-.678-1.639l-2.682-.383A1,1,0,0,1,18,30ZM12,14h4v2H12ZM8,14h2v2H8Zm0,4h8v2H8ZM8,36h4v2H8Zm0,4h4v2H8Z"></path></g></svg>