<svg xmlns="http://www.w3.org/2000/svg" viewBox="0 0 64 64" x="0px" y="0px"><g><path d="M19,11H5a1,1,0,0,0,0,2H19a1,1,0,0,0,0-2Z"></path><path d="M45,13H59a1,1,0,0,0,0-2H45a1,1,0,0,0,0,2Z"></path><path d="M24,25a1,1,0,0,0-1,1v5h5.026a4.9,4.9,0,0,1,0-6Z"></path><path d="M41,31V26a1,1,0,0,0-1-1H35.974a4.9,4.9,0,0,1,0,6Z"></path><rect x="19" y="33" width="2" height="2"></rect><rect x="43" y="33" width="2" height="2"></rect><path d="M23.816,43H18.184a2.982,2.982,0,0,0,5.632,0Z"></path><rect x="12" y="37" width="40" height="4"></rect><path d="M45.816,43H40.184a2.982,2.982,0,0,0,5.632,0Z"></path><path d="M35,28a3,3,0,1,0-3,3A3,3,0,0,0,35,28Zm-4-1h2v2H31Z"></path><polygon points="25.781 15 25.281 17 38.719 17 38.219 15 25.781 15"></polygon><path d="M13,16a1,1,0,0,0-2,0v1h2Z"></path><path d="M59,25V19H5v6H16a1,1,0,0,1,.986.835L17.847,31H21V26a3,3,0,0,1,3-3H40a3,3,0,0,1,3,3v5h3.153l.861-5.165A1,1,0,0,1,48,25Zm-6-4h4v2H53Zm-4,0h2v2H49ZM11,23H7V21h4Zm4,0H13V21h2Zm4,0H17V21h2Zm28,0H45V21h2Z"></path><path d="M51,16v1h2V16a1,1,0,0,0-2,0Z"></path><rect x="20" y="49" width="2" height="2"></rect><rect x="20" y="53" width="2" height="2"></rect><rect x="16" y="47.928" width="2" height="2" transform="translate(-33.874 39.191) rotate(-60.005)"></rect><rect x="14" y="51.392" width="2" height="2" transform="translate(-37.874 39.191) rotate(-60.005)"></rect><rect x="24" y="47.928" width="2" height="2" transform="translate(-21.112 19.051) rotate(-29.995)"></rect><rect x="26" y="51.392" width="2" height="2" transform="translate(-22.58 20.521) rotate(-30.002)"></rect><rect x="42" y="49" width="2" height="2"></rect><rect x="42" y="53" width="2" height="2"></rect><rect x="38" y="47.928" width="2" height="2" transform="translate(-22.872 58.245) rotate(-60.005)"></rect><rect x="36" y="51.392" width="2" height="2" transform="translate(-26.873 58.245) rotate(-60.005)"></rect><rect x="46" y="47.928" width="2" height="2" transform="translate(-18.166 30.049) rotate(-29.995)"></rect><rect x="48" y="51.392" width="2" height="2" transform="translate(-19.632 31.521) rotate(-30.002)"></rect></g></svg>