<svg xmlns="http://www.w3.org/2000/svg" viewBox="0 0 64 64" x="0px" y="0px"><g><rect x="26" y="4" width="12" height="2"></rect><path d="M49.484,53.537a1,1,0,0,1,.744-.828,8.859,8.859,0,0,0,2.356-.975,1,1,0,0,1,1.11.06l1.991,1.492,1.6-1.6L55.794,49.7a1,1,0,0,1-.061-1.111,8.923,8.923,0,0,0,.977-2.357,1,1,0,0,1,.827-.742L60,45.133V42.867l-2.463-.352a1,1,0,0,1-.827-.742,8.923,8.923,0,0,0-.977-2.357,1,1,0,0,1,.061-1.111l1.492-1.99-1.6-1.6-1.991,1.492a1,1,0,0,1-1.11.06,8.859,8.859,0,0,0-2.356-.975,1,1,0,0,1-.744-.828L49.133,32H46.867l-.351,2.463a1,1,0,0,1-.744.828,8.859,8.859,0,0,0-2.356.975,1,1,0,0,1-1.11-.06l-1.991-1.492-1.6,1.6,1.492,1.99a1,1,0,0,1,.061,1.111,8.923,8.923,0,0,0-.977,2.357,1,1,0,0,1-.827.742L36,42.867v2.266l2.463.352a1,1,0,0,1,.827.742,8.923,8.923,0,0,0,.977,2.357,1,1,0,0,1-.061,1.111l-1.492,1.99,1.6,1.6,1.991-1.492a1,1,0,0,1,1.11-.06,8.859,8.859,0,0,0,2.356.975,1,1,0,0,1,.744.828L46.867,56h2.266ZM56,43h2v2H56ZM40,45H38V43h2Zm15.778,5.364-1.414,1.414L52.95,50.364l1.414-1.414ZM54.364,36.222l1.414,1.414L54.364,39.05,52.95,37.636ZM47,34h2v2H47Zm-6.778,3.636,1.414-1.414,1.414,1.414L41.636,39.05Zm1.414,14.142-1.414-1.414,1.414-1.414,1.414,1.414ZM42,44a6,6,0,1,1,6,6A6.006,6.006,0,0,1,42,44Zm7,10H47V52h2Z"></path><circle cx="46" cy="18" r="2"></circle><circle cx="32" cy="55" r="1"></circle><path d="M45.01,57.142l-.383-2.682a10.855,10.855,0,0,1-1.639-.678l-2.167,1.624a1,1,0,0,1-1.306-.093l-2.828-2.828a1,1,0,0,1-.093-1.307l1.625-2.166a10.86,10.86,0,0,1-.679-1.639l-2.682-.383A1,1,0,0,1,34,46V42a1,1,0,0,1,.858-.99l2.682-.383a10.86,10.86,0,0,1,.679-1.639l-1.625-2.166a1,1,0,0,1,.093-1.307l2.828-2.828a1,1,0,0,1,1.306-.093l2.167,1.624a10.855,10.855,0,0,1,1.639-.678l.383-2.682A1,1,0,0,1,46,30h2V27.121l-.03.121A1,1,0,0,1,47,28H45a1,1,0,0,1-.97-.758l-.4-1.606a7.951,7.951,0,0,1-1.351-.56l-1.421.853a1,1,0,0,1-1.221-.151l-1.414-1.414a1,1,0,0,1-.151-1.222l.853-1.421a7.884,7.884,0,0,1-.56-1.349l-1.606-.4A1,1,0,0,1,36,19V17a1,1,0,0,1,.758-.97l1.606-.4a7.884,7.884,0,0,1,.56-1.349l-.853-1.421a1,1,0,0,1,.151-1.222l1.414-1.414a1,1,0,0,1,1.221-.151l1.422.853a7.908,7.908,0,0,1,1.35-.56l.4-1.606A1,1,0,0,1,45,8h2a1,1,0,0,1,.97.758l.03.121V7a3,3,0,0,0-3-3H40V6a2,2,0,0,1-2,2H26a2,2,0,0,1-2-2V4H19a3,3,0,0,0-3,3V8h2a1,1,0,0,1,.99.858l.383,2.682c.336.108.667.232.989.372l-.795,1.836a8.767,8.767,0,0,0-1.339-.457,1,1,0,0,1-.744-.828L17.133,10H14.867l-.351,2.463a1,1,0,0,1-.744.828,8.859,8.859,0,0,0-2.356.975,1,1,0,0,1-1.11-.06L8.315,12.714l-1.6,1.6,1.492,1.99a1,1,0,0,1,.061,1.111,8.923,8.923,0,0,0-.977,2.357,1,1,0,0,1-.827.742L4,20.867v2.266l2.463.352a1,1,0,0,1,.827.742,8.923,8.923,0,0,0,.977,2.357A1,1,0,0,1,8.206,27.7l-1.492,1.99,1.6,1.6,1.991-1.492a1,1,0,0,1,1.11-.06,8.859,8.859,0,0,0,2.356.975,1,1,0,0,1,.744.828L14.867,34h2.266l.351-2.463a1,1,0,0,1,.744-.828,8.859,8.859,0,0,0,2.356-.975l1.021,1.72a10.924,10.924,0,0,1-2.232,1.006l-.383,2.682A1,1,0,0,1,18,36H16V57a3,3,0,0,0,3,3H45a3,3,0,0,0,2.816-2H46A1,1,0,0,1,45.01,57.142ZM8,23H6V21H8Zm7-11h2v2H15ZM8.222,15.636l1.414-1.414,1.414,1.414L9.636,17.05ZM9.636,29.778,8.222,28.364,9.636,26.95l1.414,1.414ZM17,32H15V30h2Zm-1-4a6,6,0,1,1,3.6-10.8l-1.2,1.6A3.959,3.959,0,0,0,16,18a4,4,0,1,0,3.687,5.557l1.841.779A5.992,5.992,0,0,1,16,28ZM28,52.59a1,1,0,0,1-1-1V48.618l-1-.5-1,.5V51.59A1,1,0,0,1,23.6,52.5,6.03,6.03,0,0,1,20,47a5.932,5.932,0,0,1,2-4.448v-21.1A5.927,5.927,0,0,1,20,17,6.03,6.03,0,0,1,23.6,11.5,1,1,0,0,1,25,12.41v2.972l1,.5,1-.5V12.41a1,1,0,0,1,1.405-.914A6.03,6.03,0,0,1,32,17a5.927,5.927,0,0,1-2,4.451v21.1A5.932,5.932,0,0,1,32,47a6.03,6.03,0,0,1-3.595,5.5A.989.989,0,0,1,28,52.59ZM32,58a3,3,0,1,1,3-3A3,3,0,0,1,32,58Z"></path><path d="M46.574,11.419,46.219,10h-.438l-.355,1.419a1,1,0,0,1-.75.733,5.918,5.918,0,0,0-1.871.778,1,1,0,0,1-1.05.012L40.5,12.188l-.31.31.753,1.256A1,1,0,0,1,40.93,14.8a5.967,5.967,0,0,0-.778,1.873,1,1,0,0,1-.733.75L38,17.781v.438l1.419.355a1,1,0,0,1,.733.75A5.967,5.967,0,0,0,40.93,21.2a1,1,0,0,1,.011,1.049L40.188,23.5l.31.31,1.256-.754a1,1,0,0,1,1.049.012,5.948,5.948,0,0,0,1.873.778,1,1,0,0,1,.75.733L45.781,26h.438l.355-1.419a1,1,0,0,1,.75-.733A5.948,5.948,0,0,0,49.2,23.07a1,1,0,0,1,1.049-.012l1.256.754.31-.31-.753-1.256A1,1,0,0,1,51.07,21.2a5.967,5.967,0,0,0,.778-1.873,1,1,0,0,1,.733-.75L54,18.219v-.438l-1.419-.355a1,1,0,0,1-.733-.75A5.967,5.967,0,0,0,51.07,14.8a1,1,0,0,1-.011-1.049l.753-1.256-.31-.31-1.257.754a1,1,0,0,1-1.05-.012,5.918,5.918,0,0,0-1.871-.778A1,1,0,0,1,46.574,11.419ZM50,18a4,4,0,1,1-4-4A4,4,0,0,1,50,18Z"></path><circle cx="48" cy="44" r="4"></circle><path d="M28.4,43.821a1,1,0,0,1-.4-.8V21.171a.984.984,0,0,1,.375-.973A3.964,3.964,0,0,0,30,17a4.008,4.008,0,0,0-1-2.644V16a1,1,0,0,1-.553.895l-2,1a1,1,0,0,1-.894,0l-2-1A1,1,0,0,1,23,16V14.356A4.008,4.008,0,0,0,22,17a3.964,3.964,0,0,0,1.625,3.2A1,1,0,0,1,24,21.236V43.023a1,1,0,0,1-.4.8A3.963,3.963,0,0,0,22,47a4.008,4.008,0,0,0,1,2.644V48a1,1,0,0,1,.553-.9l2-1a1,1,0,0,1,.894,0l2,1A1,1,0,0,1,29,48v1.644A4.008,4.008,0,0,0,30,47,3.963,3.963,0,0,0,28.4,43.821Z"></path></g></svg>