<svg xmlns="http://www.w3.org/2000/svg" viewBox="0 0 64 64" x="0px" y="0px"><g data-name="Shopping bag"><path d="M51.014,20.986A3,3,0,0,0,48.79,20H48V7a5.006,5.006,0,0,0-5-5H21a5.006,5.006,0,0,0-5,5V20h-.79a3,3,0,0,0-2.985,3.3l3.42,34.2A4.985,4.985,0,0,0,20.62,62H43.38a4.985,4.985,0,0,0,4.975-4.5l3.42-34.2A3.005,3.005,0,0,0,51.014,20.986ZM46,7V20H44V4.171A3.006,3.006,0,0,1,46,7ZM42,6H22V4H42Zm0,2V20H22V8ZM18,7a3.006,3.006,0,0,1,2-2.829V20H18ZM46.365,57.3A2.991,2.991,0,0,1,43.38,60H20.62a2.991,2.991,0,0,1-2.985-2.7l-3.42-34.2a1,1,0,0,1,1-1.1H48.79a1,1,0,0,1,.995,1.1Z"></path><polygon points="21 28 37 28 37 30 39 30 39 28 41 28 41 26 21 26 21 28"></polygon></g></svg>