<svg xmlns="http://www.w3.org/2000/svg" viewBox="0 0 64 64" x="0px" y="0px"><path d="M58,2H12A7.009,7.009,0,0,0,5,9V55a7.009,7.009,0,0,0,7,7H58a1,1,0,0,0,1-1V3A1,1,0,0,0,58,2ZM57,48H17V4H57ZM13,4h2V48H13ZM7,9a5.009,5.009,0,0,1,4-4.9V17.08a6.978,6.978,0,0,0-4,2.031ZM7,24a5.009,5.009,0,0,1,4-4.9V34.08a6.978,6.978,0,0,0-4,2.031Zm4,12.1V48.08a6.988,6.988,0,0,0-4,2.025V41A5.009,5.009,0,0,1,11,36.1ZM12,60a5,5,0,0,1,0-10H57v2H13a3,3,0,0,0,0,6H57v2Zm45-6v2H13a1,1,0,0,1,0-2Z"></path><path d="M27.5,41.579h0a2.975,2.975,0,0,0,1.493.4,3.006,3.006,0,0,0,2.605-1.5l4-6.927a1,1,0,0,0-.367-1.366l-.866-.5,2.033-3.52a8.917,8.917,0,0,0,3.586.765,9.037,9.037,0,0,0,2.344-.311,9.007,9.007,0,1,0-7.666-1.45l-2.029,3.516-.866-.5a1,1,0,0,0-1.367.366l-4,6.928A3,3,0,0,0,27.5,41.579ZM33.238,21.74A7,7,0,1,1,36.5,25.99,6.959,6.959,0,0,1,33.238,21.74Zm-5.1,16.74,3.5-6.061,1.732,1-3.5,6.061a1,1,0,1,1-1.732-1Z"></path><path d="M40.011,25.927a6,6,0,1,0-5.207-3A5.96,5.96,0,0,0,40.011,25.927Zm-3.875-7.034a4,4,0,1,1,.4,3.035A3.971,3.971,0,0,1,36.136,18.893Z"></path></svg>