<svg xmlns="http://www.w3.org/2000/svg" viewBox="0 0 64 64" x="0px" y="0px"><g><path d="M54,30H42V13a1,1,0,0,0-1-1H35a1,1,0,0,0-1,1V30H30.42l.4-2H31a1,1,0,0,0,1-1V23a1,1,0,0,0-1-1H9a1,1,0,0,0-1,1v4a1,1,0,0,0,1,1h.18L11,37.1v3.85L9.005,60.9A1,1,0,0,0,10,62H54a1,1,0,0,0,1-1V31A1,1,0,0,0,54,30ZM40,14v1H36V14Zm-4,3h4V30H36ZM13,38H27v2H13ZM10,24H30v2H10Zm18.78,4-1.6,8H12.82l-1.6-8ZM11.105,60l1.8-18H27.1l1.8,18ZM37,60V54H47v6Zm16,0H49V53a1,1,0,0,0-1-1H36a1,1,0,0,0-1,1v7H30.905L29,40.949V37.1L30.02,32H53Z"></path><path d="M44,41h4a1,1,0,0,0,1-1V36a1,1,0,0,0-1-1H44a1,1,0,0,0-1,1v4A1,1,0,0,0,44,41Zm1-4h2v2H45Z"></path><path d="M40,35H36a1,1,0,0,0-1,1v4a1,1,0,0,0,1,1h4a1,1,0,0,0,1-1V36A1,1,0,0,0,40,35Zm-1,4H37V37h2Z"></path><path d="M44,49h4a1,1,0,0,0,1-1V44a1,1,0,0,0-1-1H44a1,1,0,0,0-1,1v4A1,1,0,0,0,44,49Zm1-4h2v2H45Z"></path><path d="M40,43H36a1,1,0,0,0-1,1v4a1,1,0,0,0,1,1h4a1,1,0,0,0,1-1V44A1,1,0,0,0,40,43Zm-1,4H37V45h2Z"></path><path d="M13.2,19h2c0-.409.134-.569.521-.973a3.117,3.117,0,0,0,0-4.716c-.388-.4-.522-.565-.522-.976s.134-.571.522-.975A3.149,3.149,0,0,0,16.8,9h-2c0,.411-.134.571-.522.976a3.121,3.121,0,0,0,0,4.719c.388.4.522.565.522.975s-.134.569-.521.973A3.142,3.142,0,0,0,13.2,19Z"></path><path d="M18.2,19h2c0-.409.134-.569.521-.973a3.117,3.117,0,0,0,0-4.716c-.388-.4-.522-.565-.522-.976s.134-.571.522-.975A3.149,3.149,0,0,0,21.8,9h-2c0,.411-.134.571-.522.976a3.121,3.121,0,0,0,0,4.719c.388.4.522.565.522.975s-.134.569-.521.973A3.142,3.142,0,0,0,18.2,19Z"></path><path d="M23.2,19h2c0-.409.134-.569.521-.973a3.117,3.117,0,0,0,0-4.716c-.388-.4-.522-.565-.522-.976s.134-.571.522-.975A3.149,3.149,0,0,0,26.8,9h-2c0,.411-.134.571-.522.976a3.121,3.121,0,0,0,0,4.719c.388.4.522.565.522.975s-.134.569-.521.973A3.142,3.142,0,0,0,23.2,19Z"></path><path d="M37,7a1,1,0,0,1,1-1,3,3,0,0,0,3-3V2H39V3a1,1,0,0,1-1,1,3,3,0,0,0-3,3V9h2Z"></path><path d="M39,8v2h2V8a1,1,0,0,1,1-1,3,3,0,0,0,3-3V3H43V4a1,1,0,0,1-1,1A3,3,0,0,0,39,8Z"></path></g></svg>