<svg xmlns="http://www.w3.org/2000/svg" viewBox="0 0 64 64" x="0px" y="0px"><g data-name="Music Player-Podcast-Headphone-Home-Office"><circle cx="32" cy="47" r="3"></circle><path d="M18,39v6a1,1,0,0,0,1,1h3V38H19A1,1,0,0,0,18,39Z"></path><path d="M15,42a1,1,0,0,0,1,1V41A1,1,0,0,0,15,42Z"></path><path d="M59.7,26.43,32.64,3.84A1,1,0,0,0,32,3.61a1.025,1.025,0,0,0-.64.23L4.38,26.48a1.083,1.083,0,0,0-.31,1.33,1,1,0,0,0,.7.49.986.986,0,0,0,.81-.22L31.35,6.24a.987.987,0,0,1,1.29,0L58.42,27.96a1,1,0,0,0,1.28-1.53Z"></path><path d="M39,30H25a1,1,0,0,0-1,1V53a1,1,0,0,0,1,1H39a1,1,0,0,0,1-1V31A1,1,0,0,0,39,30ZM32,52a5,5,0,1,1,5-5A5.006,5.006,0,0,1,32,52Zm6-13a1,1,0,0,1-1,1H27a1,1,0,0,1-1-1V33a1,1,0,0,1,1-1H37a1,1,0,0,1,1,1Z"></path><rect x="28" y="34" width="8" height="4"></rect><path d="M48,41v2a1,1,0,0,0,0-2Z"></path><path d="M45,38H42v8h3a1,1,0,0,0,1-1V39A1,1,0,0,0,45,38Z"></path><path d="M54,59V26.85L32,8.31,10,26.96V59a1,1,0,0,0,1,1H53A1,1,0,0,0,54,59ZM48,45a3.009,3.009,0,0,1-3,3H42v5a3.009,3.009,0,0,1-3,3H25a3.009,3.009,0,0,1-3-3V48H19a3.009,3.009,0,0,1-3-3,3,3,0,0,1,0-6,3.01,3.01,0,0,1,2-2.82V34a14,14,0,0,1,28,0v2.18A3.01,3.01,0,0,1,48,39a3,3,0,0,1,0,6Z"></path><path d="M42,36h2V34a12,12,0,0,0-24,0v2h2V31a3.009,3.009,0,0,1,3-3H39a3.009,3.009,0,0,1,3,3Z"></path></g></svg>