<svg xmlns="http://www.w3.org/2000/svg" viewBox="0 0 64 64" x="0px" y="0px"><title>Book-Notebook-Agenda-Address Book</title><g><rect x="23" y="32" width="14" height="2"></rect><rect x="23" y="36" width="14" height="2"></rect><rect x="20" y="45" width="8" height="2"></rect><rect x="30" y="45" width="4" height="2"></rect><path d="M30.2,27.6a1,1,0,0,0,1.6,0l9-12a1,1,0,0,0,.1-1.047l-3-6A1,1,0,0,0,37,8H25a1,1,0,0,0-.895.553l-3,6A1,1,0,0,0,21.2,15.6ZM34.78,16H38l-4.83,6.439ZM31,22.879,29.28,16h3.44ZM29.618,14,31,11.236,32.382,14Zm3-4h2.764L34,12.764ZM28,12.764,26.618,10h2.764ZM26.382,14H23.618L25,11.236Zm.838,2,1.61,6.439L24,16Zm11.162-2H35.618L37,11.236Z"></path><path d="M59.7,19.688c-.315-.182-.623-.336-.927-.476A12.886,12.886,0,0,0,50,18.354V3a1,1,0,0,0-1-1H9A5.006,5.006,0,0,0,4,7V57a5.006,5.006,0,0,0,5,5H49a1,1,0,0,0,1-1V37.957a.991.991,0,0,0,.562-.447l9.5-16.455A1,1,0,0,0,59.7,19.688ZM47.817,21.362l1.508,2.289c-.459.754-.916,1.556-1.387,2.387L45.8,22.8A10.835,10.835,0,0,1,47.817,21.362Zm-3.4,2.972,2.409,3.649-1.382,2.393-2.464-3.732.691-1.2A10.9,10.9,0,0,1,44.416,24.334Zm-2.555,4.247,2.464,3.732-1.382,2.394-2.464-3.732Zm6.7.4,4.464.269-1.382,2.394-4.464-.269Zm1.108-1.936c.477-.841.937-1.647,1.392-2.394l4.464.268-1.382,2.395Zm2.693-4.319a5.464,5.464,0,0,1,2.675-2.13,4.134,4.134,0,0,1,2.767.375l-1.162,2.012Zm-.178-2.733a11.434,11.434,0,0,0-1.651,1.85l-.859-1.3c.225-.076.448-.156.68-.218A11.159,11.159,0,0,1,52.18,19.994ZM48,19.045a12.9,12.9,0,0,0-6.063,5.4l-3.5,6.063a1,1,0,0,0,.032,1.051l3.356,5.082L36.134,46.5l1.732,1,5.691-9.857L48,37.909V52H16V4H48ZM12,52V4h2V52ZM9,4h1V52H9a4.948,4.948,0,0,0-3,1.026V7A3,3,0,0,1,9,4ZM9,60a3,3,0,0,1,0-6H48v2H11v2H48v2ZM49.14,35.975l-4.465-.268,1.382-2.4,4.465.269Z"></path></g></svg>