<svg xmlns="http://www.w3.org/2000/svg" viewBox="0 0 64 64" x="0px" y="0px"><g><path d="M32,36a3,3,0,0,0,3-3V29H33v4a1,1,0,0,1-2,0V29H29v4A3,3,0,0,0,32,36Z"></path><path d="M37.62,29.92a.942.942,0,0,0,.76,0,1.155,1.155,0,0,0,.33-.21A.99.99,0,0,0,39,29a1.05,1.05,0,0,0-.29-.71,1,1,0,0,0-1.09-.21.933.933,0,0,0-.33.21A1.05,1.05,0,0,0,37,29a.99.99,0,0,0,.29.71A1.155,1.155,0,0,0,37.62,29.92Z"></path><path d="M26.71,29.71A.99.99,0,0,0,27,29a1,1,0,1,0-2,0,.99.99,0,0,0,.29.71,1.155,1.155,0,0,0,.33.21.943.943,0,0,0,.76,0A1.155,1.155,0,0,0,26.71,29.71Z"></path><path d="M52.163,52.407a12.9,12.9,0,0,0-3.858-1.723L39,48.229V45.106A14.029,14.029,0,0,0,45.668,36H46v3.278a2,2,0,1,0,2,0V35.444A3.987,3.987,0,0,0,46,28V25a13.984,13.984,0,0,0-5.951-11.436,7.292,7.292,0,0,0,.7-1.7A7.028,7.028,0,0,0,41,10c0-4.411-4.038-8-9-8s-9,3.589-9,8a7.032,7.032,0,0,0,.244,1.858,7.331,7.331,0,0,0,.707,1.706A13.983,13.983,0,0,0,18,25v3a3.987,3.987,0,0,0-2,7.444v3.834a2,2,0,1,0,2,0V36h.332A14.029,14.029,0,0,0,25,45.106v3.123l-9.3,2.455A13,13,0,0,0,6.229,60.813,1,1,0,0,0,7.211,62H56.789a1,1,0,0,0,.982-1.187A13.026,13.026,0,0,0,52.163,52.407ZM48,32a2,2,0,0,1-2,2V30A2,2,0,0,1,48,32ZM32,4c3.815,0,6.922,2.631,6.993,5.886a13.907,13.907,0,0,0-13.986,0C25.078,6.631,28.185,4,32,4Zm-6.582,7.98a11.93,11.93,0,0,1,13.164,0,5.232,5.232,0,0,1-.256.547,13.867,13.867,0,0,0-12.652,0A5.138,5.138,0,0,1,25.418,11.98ZM32,13A12.01,12.01,0,0,1,43.993,24.86c-3.466-.883-5.015-6.078-5.032-6.136a1,1,0,0,0-1.668-.431A23.336,23.336,0,0,1,20,25.076V25A12.013,12.013,0,0,1,32,13ZM18,34a2,2,0,0,1,0-4v4Zm2-1V27.087a25,25,0,0,0,17.584-6.32c.879,2.063,2.874,5.584,6.416,6.154V33a12,12,0,0,1-24,0ZM32,47a13.894,13.894,0,0,0,5-.939V49c0,.537-.863,1.235-2.339,1.644a2.976,2.976,0,0,0-5.322,0C27.863,50.235,27,49.537,27,49V46.061A13.894,13.894,0,0,0,32,47Zm1,5a4.309,4.309,0,0,1-1,1.554A4.3,4.3,0,0,1,31,52a1,1,0,0,1,2,0ZM20.2,60a6.758,6.758,0,0,1,9.6,0Zm14,0a6.758,6.758,0,0,1,9.6,0Zm12.005,0A8.16,8.16,0,0,0,39,56a8.267,8.267,0,0,0-7,3.61A8.267,8.267,0,0,0,25,56a8.16,8.16,0,0,0-7.206,4H8.49A11,11,0,0,1,16.2,52.617l9.109-2.4a5.628,5.628,0,0,0,3.8,2.429,8.7,8.7,0,0,0,2.2,3.082,1,1,0,0,0,1.376,0,8.7,8.7,0,0,0,2.2-3.082,5.628,5.628,0,0,0,3.8-2.429l9.109,2.4A11.006,11.006,0,0,1,55.51,60Z"></path><path d="M37.953,38.655l-1.511-1.31A5.992,5.992,0,0,1,32,39a5.992,5.992,0,0,1-4.442-1.655l-1.511,1.31A7.9,7.9,0,0,0,32,41,7.9,7.9,0,0,0,37.953,38.655Z"></path></g></svg>