<svg xmlns="http://www.w3.org/2000/svg" viewBox="0 0 64 64" x="0px" y="0px"><g><rect x="3" y="23" width="4" height="4" rx="1"></rect><rect x="3" y="13" width="4" height="4" rx="1"></rect><rect x="3" y="3" width="4" height="4" rx="1"></rect><rect x="57" y="23" width="4" height="4" rx="1"></rect><rect x="57" y="13" width="4" height="4" rx="1"></rect><rect x="57" y="3" width="4" height="4" rx="1"></rect><path d="M52.168,34.445A5.744,5.744,0,0,0,51,38h2a3.78,3.78,0,0,1,.832-2.445A5.744,5.744,0,0,0,55,32H53A3.78,3.78,0,0,1,52.168,34.445Z"></path><path d="M57.832,35.555A5.744,5.744,0,0,0,59,32H57a3.78,3.78,0,0,1-.832,2.445A5.744,5.744,0,0,0,55,38h2A3.78,3.78,0,0,1,57.832,35.555Z"></path><polygon points="32 8.04 24.8 10 32 11.96 39.2 10 32 8.04"></polygon><path d="M31.74,13.96,26,12.4V16H38V12.4l-5.74,1.56a.865.865,0,0,1-.52,0Z"></path><path d="M50.414,6H54V4H50a1,1,0,0,0-.707.293l-4,4,1.414,1.414Z"></path><path d="M50.293,14.293l-4,4,1.414,1.414L51.414,16H54V14H51A1,1,0,0,0,50.293,14.293Z"></path><path d="M17.293,9.707l1.414-1.414-4-4A1,1,0,0,0,14,4H10V6h3.586Z"></path><path d="M16.293,19.707l1.414-1.414-4-4A1,1,0,0,0,13,14H10v2h2.586Z"></path><rect x="8" y="52" width="4" height="8"></rect><rect x="4" y="48" width="56" height="4"></rect><rect x="52" y="52" width="4" height="8"></rect><path d="M45,37V36H19v1a1,1,0,0,0,1,1H44A1,1,0,0,0,45,37Z"></path><polygon points="31 30.138 34.197 28 31 25.868 31 30.138"></polygon><path d="M39,45a1,1,0,0,0-1-1H26a1,1,0,0,0-1,1v1H39Z"></path><rect x="29" y="40" width="6" height="2"></rect><path d="M57,40v4a2.006,2.006,0,0,1-2,2H53a2.006,2.006,0,0,1-2-2V40Z"></path><rect x="5" y="42" width="4" height="4"></rect><rect x="11" y="42" width="4" height="4"></rect><rect x="5" y="32" width="4" height="8"></rect><polygon points="15 30 15 40 11 40 11 32 11 30 15 30"></polygon><rect x="47" y="24" width="7" height="2"></rect><rect x="10" y="24" width="7" height="2"></rect><path d="M44,22H20a1,1,0,0,0-1,1V34H45V23A1,1,0,0,0,44,22Zm-8.69,7.66-3.2,2.14a2.028,2.028,0,0,1-1.11.33,2.013,2.013,0,0,1-2-2V25.87a1.968,1.968,0,0,1,1.06-1.76,1.988,1.988,0,0,1,2.05.09l3.2,2.14a1.993,1.993,0,0,1,0,3.32Z"></path><rect x="40" y="10" width="2" height="4"></rect></g></svg>