<svg xmlns="http://www.w3.org/2000/svg" viewBox="0 0 64 64" x="0px" y="0px"><g><path d="M60.67,39.523A2,2,0,0,0,58.011,37.3l-9.949,3.62a4.014,4.014,0,0,1-4.544,2.791L32.7,41.8l.348-1.97,10.818,1.908A2,2,0,0,0,46.15,40.33a1.831,1.831,0,0,0,.044-.864,1.91,1.91,0,0,0-.33-.84,1.987,1.987,0,0,0-1.289-.824L34.526,36.03a19.115,19.115,0,0,0-8.846.539l-.149.046a18.983,18.983,0,0,0-5.353,2.609L3.936,50.6l6.31,9.01,12.989-9.1a10.939,10.939,0,0,1,8.22-1.822L33.242,49a11,11,0,0,0,5.672-.5l20.47-7.45A1.985,1.985,0,0,0,60.67,39.523Z"></path><path d="M46,4A14,14,0,1,0,60,18,14.015,14.015,0,0,0,46,4Zm0,26A12,12,0,1,1,58,18,12.013,12.013,0,0,1,46,30Z"></path><path d="M46,8A10,10,0,1,0,56,18,10.011,10.011,0,0,0,46,8Zm2,3h2v2H48Zm-8,2h2v2H40Zm1,6h2v2H41Zm4,7H43V24h2Zm2-9H45V15h2Zm3,7H48V22h2Zm2-5H50V17h2Z"></path><path d="M28,15v6h2.292a15.557,15.557,0,0,1,0-6Z"></path><path d="M4.882,20.128A3.01,3.01,0,0,0,7,21H22V15H7a3,3,0,0,0-2.118,5.128Z"></path><rect x="24" y="13" width="2" height="10"></rect></g></svg>