<svg xmlns="http://www.w3.org/2000/svg" viewBox="0 0 64 64" x="0px" y="0px"><g data-name="Travel"><circle cx="42" cy="59" r="1"></circle><circle cx="22" cy="59" r="1"></circle><path d="M37.03,44.757A1,1,0,0,1,38,44V42H20V56H44V42H40v2a1,1,0,0,1,.97.757l1,4A1,1,0,0,1,41,50H37a1,1,0,0,1-.97-1.243Z"></path><polygon points="38.781 46 38.281 48 39.719 48 39.219 46 38.781 46"></polygon><path d="M44,29a1,1,0,0,0-1-1H21a1,1,0,0,0-1,1V40H44Z"></path><path d="M47,56a1,1,0,0,0,1-1V25a9.01,9.01,0,0,0-9-9H33v2a1,1,0,0,1,.97.757l1,4A1,1,0,0,1,34,24H30a1,1,0,0,1-.97-1.243l1-4A1,1,0,0,1,31,18V16H25a9.011,9.011,0,0,0-9,9V55a1,1,0,0,0,1,1h1V29a3,3,0,0,1,3-3H43a3,3,0,0,1,3,3V56Z"></path><rect x="26" y="8" width="2" height="6"></rect><polygon points="32.219 20 31.781 20 31.281 22 32.719 22 32.219 20"></polygon><rect x="36" y="8" width="2" height="6"></rect><rect x="24" y="4" width="16" height="2"></rect></g></svg>