<svg xmlns="http://www.w3.org/2000/svg" viewBox="0 0 64 64" x="0px" y="0px"><g><path d="M11,50.105c.009-.009.02-.017.029-.027.078-.079.163-.151.244-.226s.167-.158.255-.231.179-.138.27-.206.177-.138.27-.2.2-.123.3-.184.185-.118.282-.171.214-.106.322-.158.193-.1.293-.141.231-.087.347-.129c.1-.037.2-.078.3-.11.128-.04.26-.069.39-.1.1-.024.187-.053.284-.073.153-.032.31-.051.467-.073.078-.01.153-.027.231-.035A7.141,7.141,0,0,1,16,48h1V4H16a5.006,5.006,0,0,0-5,5Z"></path><path d="M51,54V50H16a5.006,5.006,0,0,0-5,5,5.009,5.009,0,0,0,5,5H51V56H16V54Z"></path><path d="M41,18a4.992,4.992,0,0,0-4.167,2.239,1.038,1.038,0,0,1-1.666,0A5,5,0,0,0,26,23c0,4.209,6.814,9.016,10,10.853C39.185,32.013,46,27.2,46,23A5.006,5.006,0,0,0,41,18Z"></path><path d="M53,4H19V48H53ZM36.479,35.878a1,1,0,0,1-.958,0C35.051,35.621,24,29.519,24,23a7,7,0,0,1,12-4.9A7,7,0,0,1,48,23C48,29.519,36.949,35.621,36.479,35.878Z"></path></g></svg>