<svg xmlns="http://www.w3.org/2000/svg" viewBox="0 0 64 64" x="0px" y="0px"><g data-name="Banking-Bank-Finance-Business-Money Bag"><path d="M26,14a4,4,0,1,0-4-4A4,4,0,0,0,26,14Zm0-6a2,2,0,1,1-2,2A2,2,0,0,1,26,8Z"></path><path d="M60.34,54.75A2.96,2.96,0,0,1,59,52.38V45a11.013,11.013,0,0,0-8.33-10.66,2.954,2.954,0,0,0-1.04-3.85L54.8,23.6A1,1,0,0,0,54,22a2.058,2.058,0,0,1-1.44-.33A3.932,3.932,0,0,0,50,21a4.531,4.531,0,0,0-3.12,1.22,2.591,2.591,0,0,1-1.87.78H45V18h4a1,1,0,0,0,1-1V11a.992.992,0,0,0-.67-.94l-23-8a.938.938,0,0,0-.66,0l-23,8A.992.992,0,0,0,2,11v6a1,1,0,0,0,1,1H7V42H5a1,1,0,0,0-1,1v3H3a1,1,0,0,0-1,1v6a1,1,0,0,0,1,1H30.41a3.333,3.333,0,0,1-.75.75,3.971,3.971,0,0,0-1.65,3.46A4.078,4.078,0,0,0,32.17,62H57.83A4.094,4.094,0,0,0,62,58.21,4,4,0,0,0,60.34,54.75ZM45.01,25a4.531,4.531,0,0,0,3.12-1.22A2.591,2.591,0,0,1,50,23a2.092,2.092,0,0,1,1.45.33,3.767,3.767,0,0,0,.75.41L47.5,30h-5l-4.7-6.26a4.172,4.172,0,0,0,.76-.41A2.039,2.039,0,0,1,40,23a2.6,2.6,0,0,1,1.88.78A4.538,4.538,0,0,0,45.01,25ZM49,33a1,1,0,0,1-1,1H42a1,1,0,0,1,0-2h6A1,1,0,0,1,49,33Zm-9.67,1.34-.33.09V28.67l1.37,1.82a2.954,2.954,0,0,0-1.04,3.85ZM39,20V18h4v2Zm4,2v.12L42.85,22ZM4,16V11.71L26,4.06l22,7.65V16Zm31.2,7.6L37,26v9.21A11.026,11.026,0,0,0,31.43,42H30V18h7v3.9a3.651,3.651,0,0,1-1,.1,1,1,0,0,0-.8,1.6ZM24,38V22h4V38Zm4,2v2H24V40ZM24,20V18h4v2Zm-2-2V42H15V18ZM9,38V22h4V38Zm4,2v2H9V40ZM9,20V18h4v2ZM6,44H31.05c-.03.33-.05.66-.05,1v1H6ZM4,52V48H31v4Zm53.83,8H32.17A2.127,2.127,0,0,1,30,58.11a2.014,2.014,0,0,1,.83-1.73,4.952,4.952,0,0,0,2.17-4V45a9.009,9.009,0,0,1,7.4-8.85A6,6,0,0,0,39,40v1h2V40a4,4,0,0,1,8,0v1h2V40a6,6,0,0,0-1.4-3.85A9.009,9.009,0,0,1,57,45v7.38a4.952,4.952,0,0,0,2.17,4A2.014,2.014,0,0,1,60,58.11,2.127,2.127,0,0,1,57.83,60Z"></path><path d="M44,47h2a1,1,0,0,1,1,1h2a3,3,0,0,0-3-3V44H44v1a3,3,0,0,0,0,6h2a1,1,0,0,1,0,2H44a1,1,0,0,1-1-1H41a3,3,0,0,0,3,3v1h2V55a3,3,0,0,0,0-6H44a1,1,0,0,1,0-2Z"></path><rect x="51" y="49" width="2" height="2"></rect><rect x="37" y="49" width="2" height="2"></rect></g></svg>