<svg xmlns="http://www.w3.org/2000/svg" viewBox="0 0 64 64" x="0px" y="0px"><path d="M40,60V58a2,2,0,0,0-2-2H33V27.858A3.971,3.971,0,0,0,34.618,27H44V25H35.858a3.592,3.592,0,0,0,0-2H47v.791L42.535,34a5,5,0,0,0,4.581,7h7.768a5,5,0,0,0,4.581-7L55,23.791V23h2V21H55V18.816A2.993,2.993,0,0,0,54,13H48a2.993,2.993,0,0,0-1,5.816V21H34.618A3.971,3.971,0,0,0,33,20.142V2H31V20.142A3.971,3.971,0,0,0,29.382,21H17V18.816A2.993,2.993,0,0,0,16,13H10a2.993,2.993,0,0,0-1,5.816V21H7v2H9v.791L4.535,34a5,5,0,0,0,4.581,7h7.768a5,5,0,0,0,4.581-7L17,23.791V23H28.142a3.592,3.592,0,0,0,0,2H20v2h9.382A3.971,3.971,0,0,0,31,27.858V56H26a2,2,0,0,0-2,2v2H2v2H62V60ZM57.4,37.642A2.954,2.954,0,0,1,54.884,39H47.116a3,3,0,0,1-2.749-4.2l2.059-4.7a6.8,6.8,0,0,0,2.234.328,6.911,6.911,0,0,0,2.679-.48,5.678,5.678,0,0,1,3.974,0c.073.027.153.049.226.074L57.633,34.8A2.955,2.955,0,0,1,57.4,37.642ZM53.084,24.4l1.427,3.261a8.074,8.074,0,0,0-1.181-.081,6.874,6.874,0,0,0-2.668.479,5.02,5.02,0,0,1-2,.361,4.942,4.942,0,0,1-1.425-.177L48.916,24.4A.983.983,0,0,0,49,24V23h4v1A.983.983,0,0,0,53.084,24.4ZM48,15h6a1,1,0,0,1,0,2H48a1,1,0,0,1,0-2Zm1,4h4v2H49ZM10,15h6a1,1,0,0,1,0,2H10a1,1,0,0,1,0-2Zm1,4h4v2H11Zm8.4,18.642A2.954,2.954,0,0,1,16.884,39H9.116a3,3,0,0,1-2.749-4.2l2.059-4.7a6.8,6.8,0,0,0,2.234.328,6.911,6.911,0,0,0,2.679-.48,4.987,4.987,0,0,1,1.991-.36,5.008,5.008,0,0,1,1.983.358c.073.027.153.049.226.074L19.633,34.8A2.955,2.955,0,0,1,19.4,37.642ZM15.084,24.4l1.427,3.261a8.074,8.074,0,0,0-1.181-.081,6.874,6.874,0,0,0-2.668.479,5.02,5.02,0,0,1-2,.361,4.942,4.942,0,0,1-1.425-.177L10.916,24.4A.983.983,0,0,0,11,24V23h4v1A.983.983,0,0,0,15.084,24.4ZM30,24a2,2,0,1,1,2,2A2,2,0,0,1,30,24ZM26,60V58H38v2Z"></path><rect x="10" y="35" width="2" height="2"></rect><rect x="14" y="33" width="2" height="2"></rect><rect x="48" y="35" width="2" height="2"></rect><rect x="52" y="33" width="2" height="2"></rect></svg>