<svg xmlns="http://www.w3.org/2000/svg" viewBox="0 0 64 64" x="0px" y="0px"><g data-name="Online Shopping"><path d="M20,42h4V18.444a3.875,3.875,0,0,1-4,0Z"></path><path d="M54,18H46V43a1,1,0,0,1-1,1H19a1,1,0,0,1-1-1V18H10a3.009,3.009,0,0,0-3,3V54H57V21A3.009,3.009,0,0,0,54,18ZM50,28h2v2H50Zm0,4h2v2H50Zm0,4h2v2H50Zm0,4h2v2H50ZM12,28h2v2H12Zm0,4h2v2H12Zm0,4h2v2H12Zm0,4h2v2H12ZM55,50H9V48H55Z"></path><polygon points="35.613 56 28.387 56 28.721 57 35.279 57 35.613 56"></polygon><path d="M27.052,58.316,26.28,56H4v3a1,1,0,0,0,1,1H59a1,1,0,0,0,1-1V56H37.72l-.772,2.316A1,1,0,0,1,36,59H28A1,1,0,0,1,27.052,58.316Z"></path><path d="M42,18v2H40V18H30v2H28V18H26V42H44V18ZM35,29a3,3,0,0,1,1,5.82V36H34V34.82A3.01,3.01,0,0,1,32,32h2a1,1,0,1,0,1-1,3,3,0,0,1-1-5.82V24h2v1.18A3.01,3.01,0,0,1,38,28H36a1,1,0,1,0-1,1Z"></path><path d="M35,2a6.955,6.955,0,0,0-3,.685A6.984,6.984,0,0,0,22,9v7h2V9a5,5,0,0,1,6.008-4.9A6.975,6.975,0,0,0,28,9v7h2V9a4.977,4.977,0,0,1,2-3.974A4.977,4.977,0,0,1,34,9v7h2V9a6.975,6.975,0,0,0-2.008-4.9A5,5,0,0,1,40,9v7h2V9A7.008,7.008,0,0,0,35,2Z"></path></g></svg>