<svg xmlns="http://www.w3.org/2000/svg" viewBox="0 0 64 64" x="0px" y="0px"><g><path d="M12.376,36.175A3.014,3.014,0,0,0,9.491,34H5.309L3.978,27.79l-1.956.42L4.853,41.419A2.01,2.01,0,0,0,6.809,43H10v6H7a1,1,0,0,0-1,1v.278A2.005,2.005,0,1,0,8.722,51h4.556A1.978,1.978,0,0,0,13,52a2,2,0,1,0,3-1.722V50a1,1,0,0,0-1-1H12V43h5V41H13.754ZM5.737,36H9.491a1,1,0,0,1,.962.725L11.674,41H6.809Z"></path><path d="M57.191,43a2.01,2.01,0,0,0,1.956-1.58l2.831-13.21-1.956-.42L58.691,34H54.509a3.014,3.014,0,0,0-2.885,2.176L50.246,41H47v2h5v6H49a1,1,0,0,0-1,1v.278A2.005,2.005,0,1,0,50.722,51h4.556A1.978,1.978,0,0,0,55,52a2,2,0,1,0,3-1.722V50a1,1,0,0,0-1-1H54V43Zm-3.644-6.274A1,1,0,0,1,54.509,36h3.754l-1.072,5H52.326Z"></path><path d="M49,37V35H15v2h6V54h2V51H41v3h2V37ZM41,49H23V37H41Z"></path><path d="M24.868,32.5l4-7L27.132,24.5,23.42,31H16v2h8A1,1,0,0,0,24.868,32.5Z"></path></g></svg>