<svg xmlns="http://www.w3.org/2000/svg" viewBox="0 0 64 64" x="0px" y="0px"><g><path d="M40,5a1,1,0,0,0-1-1H11a1,1,0,0,0-1,1v5H40ZM14,8H12V6h2Zm6,0H16V6h4Z"></path><path d="M40,24.679V12H10V42H38.56A6.9,6.9,0,0,1,40,35.446V32.594l-1.425-2.571A3.977,3.977,0,0,1,40,24.679ZM37,32a2,2,0,0,1-2,2H15a2,2,0,0,1-2-2V18a2,2,0,0,1,2-2H35a2,2,0,0,1,2,2Z"></path><polygon points="34.137 18 15.863 18 25 23.814 34.137 18"></polygon><path d="M25.537,25.844a1,1,0,0,1-1.074,0L15,19.822V32H35V19.822Z"></path><path d="M33.984,57.116a1,1,0,0,1,.391.389L35.83,60.13,51.57,51.4l-1.454-2.615a1,1,0,0,1-.126-.487L50,38.258,43.826,27.115a2.016,2.016,0,0,0-1.769-1.035h-.038a1.994,1.994,0,0,0-.92.258,1.972,1.972,0,0,0-.946,1.193,2,2,0,0,0,.173,1.526L43.233,34.3a1,1,0,0,1-.39,1.359,5.006,5.006,0,0,0-1.949,6.8l1.945,3L42,46v3a3,3,0,0,1-3,3H25.607l.379.685Z"></path><path d="M11,50H39a1,1,0,0,0,1-1V44.752L39.513,44H10v5A1,1,0,0,0,11,50Zm11-4h6v2H22Z"></path></g></svg>