<svg xmlns="http://www.w3.org/2000/svg" viewBox="0 0 64 64" x="0px" y="0px"><g><rect x="49" y="51" width="4" height="1"></rect><polygon points="52 45 50 45 50 47 48 47 48 45 46.618 45 46.118 46 47.618 49 54.382 49 55.882 46 55.382 45 54 45 54 47 52 47 52 45"></polygon><polygon points="16.382 49 17.882 46 17.382 45 16 45 16 47 14 47 14 45 12 45 12 47 10 47 10 45 8.618 45 8.118 46 9.618 49 16.382 49"></polygon><rect x="11" y="51" width="4" height="1"></rect><path d="M37,13a5,5,0,0,1,10,0v1h4V13a9,9,0,0,0-18,0V54h4Z"></path><path d="M17,13a5,5,0,0,1,10,0V54h4V13a9,9,0,0,0-18,0v1h4Z"></path><path d="M45,17a1,1,0,0,0,1,1h6a1,1,0,0,0,0-2H46A1,1,0,0,0,45,17Z"></path><path d="M12,18h6a1,1,0,0,0,0-2H12a1,1,0,0,0,0,2Z"></path><polygon points="55 60 55 54 47 54 47 60 39 60 39 56 25 56 25 60 17 60 17 54 9 54 9 60 2 60 2 62 62 62 62 60 55 60"></polygon><path d="M47,32a2,2,0,0,0,4,0,19.043,19.043,0,0,0-2-4.888A19.081,19.081,0,0,0,47,32Z"></path><path d="M13,32a2,2,0,0,0,4,0,19.043,19.043,0,0,0-2-4.888A19.081,19.081,0,0,0,13,32Z"></path></g></svg>