<svg xmlns="http://www.w3.org/2000/svg" viewBox="0 0 64 64" x="0px" y="0px"><g data-name="Coffee Beans-Hand-Coffee-Seeds-Beans"><path d="M57.15,45.9a4.025,4.025,0,0,0-2.31-1.82A4.338,4.338,0,0,0,55,43v-.39a3.988,3.988,0,0,0-1.77-3.32l-.34-.23A2.011,2.011,0,0,1,52,37.39V24a11.009,11.009,0,0,0-9.23-10.84,2.986,2.986,0,0,0-1.4-3.81l2.55-5.96A1,1,0,0,0,43,2H29a1,1,0,0,0-.92,1.39l2.55,5.96a2.986,2.986,0,0,0-1.4,3.81A11.009,11.009,0,0,0,20,24V37.39a2.012,2.012,0,0,1-.91,1.68l-.3.21A3.988,3.988,0,0,0,17,42.61V43a3.863,3.863,0,0,0,.52,1.92L15.72,46H2v2H16a1,1,0,0,0,.51-.14l2.63-1.58A9,9,0,0,1,23.77,45h1.3a9.149,9.149,0,0,1,3.35.64l3.21,1.29A.937.937,0,0,0,32,47h7a2,2,0,0,1,0,4H29v2H39.51a4.982,4.982,0,0,0,2.5-.67l10.67-6.16a2,2,0,1,1,2,3.46L41.05,57.51a14.956,14.956,0,0,1-9.16,1.92L19.11,58.01a.884.884,0,0,0-.23,0l-17,2,.24,1.98L19,60.01l12.67,1.4a16.959,16.959,0,0,0,10.38-2.17l13.63-7.87A4.018,4.018,0,0,0,57.15,45.9ZM30.52,4H41.48L39.34,9H32.66ZM41,12a1,1,0,0,1-1,1H32a1,1,0,0,1,0-2h8A1,1,0,0,1,41,12Zm1.95,37.48A3.441,3.441,0,0,0,42.44,47h4.8ZM53,43a1.885,1.885,0,0,1-.3,1.04,3.865,3.865,0,0,0-1.02.4L50.7,45H32.19l-3.03-1.21A10.825,10.825,0,0,0,25.07,43h-1.3a10.88,10.88,0,0,0-4.5.98A1.977,1.977,0,0,1,19,43v-.39a2.012,2.012,0,0,1,.91-1.68l.3-.21A3.988,3.988,0,0,0,22,37.39V24a9.014,9.014,0,0,1,9-9H41a9.014,9.014,0,0,1,9,9V37.39a3.988,3.988,0,0,0,1.77,3.32l.34.23A2.011,2.011,0,0,1,53,42.61Z"></path><path d="M40.536,28.535a6.662,6.662,0,0,0,1.958-3.925,4.461,4.461,0,0,0-5.1-5.1,6.918,6.918,0,0,0-5.884,5.884,4.6,4.6,0,0,0,1.251,3.852,4.487,4.487,0,0,0,3.236,1.286,5.627,5.627,0,0,0,.617-.034A6.663,6.663,0,0,0,40.536,28.535ZM33.494,25.61a4.923,4.923,0,0,1,4.116-4.116l.068,0a5.734,5.734,0,0,0-1.659,3.316,3.771,3.771,0,0,1-1.136,2.317,3.48,3.48,0,0,1-.79.6A2.667,2.667,0,0,1,33.494,25.61Zm2.83,2.9a5.732,5.732,0,0,0,1.657-3.313,3.771,3.771,0,0,1,1.136-2.317,3.51,3.51,0,0,1,.789-.606,2.67,2.67,0,0,1,.6,2.119,4.923,4.923,0,0,1-4.116,4.116C36.367,28.508,36.347,28.505,36.324,28.507Z"></path><path d="M30.39,29.506a6.918,6.918,0,0,0-5.884,5.884,4.6,4.6,0,0,0,1.251,3.852,4.487,4.487,0,0,0,3.236,1.286,5.627,5.627,0,0,0,.617-.034,6.918,6.918,0,0,0,5.884-5.884,4.461,4.461,0,0,0-5.1-5.1Zm-3.9,6.1a4.923,4.923,0,0,1,4.116-4.116l.068,0a5.734,5.734,0,0,0-1.659,3.316,3.771,3.771,0,0,1-1.136,2.317,3.48,3.48,0,0,1-.79.6A2.667,2.667,0,0,1,26.494,35.61Zm7.012-1.22a4.923,4.923,0,0,1-4.116,4.116c-.023,0-.043,0-.066,0a5.732,5.732,0,0,0,1.657-3.313,3.771,3.771,0,0,1,1.136-2.317,3.51,3.51,0,0,1,.789-.606A2.67,2.67,0,0,1,33.506,34.39Z"></path><path d="M42.39,29.506a6.918,6.918,0,0,0-5.884,5.884,4.6,4.6,0,0,0,1.251,3.852,4.487,4.487,0,0,0,3.236,1.286,5.627,5.627,0,0,0,.617-.034,6.918,6.918,0,0,0,5.884-5.884,4.461,4.461,0,0,0-5.1-5.1Zm-3.9,6.1a4.923,4.923,0,0,1,4.116-4.116l.068,0a5.734,5.734,0,0,0-1.659,3.316,3.771,3.771,0,0,1-1.136,2.317,3.48,3.48,0,0,1-.79.6A2.667,2.667,0,0,1,38.494,35.61Zm7.012-1.22a4.923,4.923,0,0,1-4.116,4.116c-.023,0-.043,0-.066,0a5.732,5.732,0,0,0,1.657-3.313,3.771,3.771,0,0,1,1.136-2.317,3.51,3.51,0,0,1,.789-.606A2.67,2.67,0,0,1,45.506,34.39Z"></path></g></svg>