<svg xmlns="http://www.w3.org/2000/svg" viewBox="0 0 64 64" x="0px" y="0px"><g><rect x="17" y="12" width="14" height="2"></rect><path d="M29,44a3,3,0,0,0,6,0c0-1.093-1.561-3.943-3-6.192C30.561,40.057,29,42.908,29,44Z"></path><path d="M31,5a1,1,0,0,0-1-1H18a1,1,0,0,0-1,1v5h2V8h2v2h2V8h2v2h2V8h2v2h2Z"></path><path d="M18,60H46a1,1,0,0,0,1-1V34.521a3,3,0,0,0-.758-1.993L31.551,16H17V59A1,1,0,0,0,18,60Zm3-38a2,2,0,0,1,2-2h5.856a2.006,2.006,0,0,1,1.495.67L42.494,34.333A1.994,1.994,0,0,1,43,35.662V54a2,2,0,0,1-2,2H23a2,2,0,0,1-2-2Z"></path><path d="M41,35.662,28.856,22H23V54H41ZM32,49a5.006,5.006,0,0,1-5-5c0-2.4,3.479-7.559,4.177-8.568a1.038,1.038,0,0,1,1.646,0C33.521,36.441,37,41.6,37,44A5.006,5.006,0,0,1,32,49Z"></path></g></svg>