<svg xmlns="http://www.w3.org/2000/svg" viewBox="0 0 64 64" x="0px" y="0px"><g data-name="Smart Home-Smartphone-Application-Hand-Technology"><rect x="22" y="6" width="6" height="2"></rect><rect x="24" y="48" width="2" height="2"></rect><path d="M52,48a3.94,3.94,0,0,0-2.57.94A4.012,4.012,0,0,0,46,47a3.94,3.94,0,0,0-2.57.94A4,4,0,0,0,42,46.54V9a7.008,7.008,0,0,0-7-7H15A7.008,7.008,0,0,0,8,9V47a7.008,7.008,0,0,0,7,7h7.54a4.033,4.033,0,0,0,.4,3.04l3.15,5.46,1.74-1-3.16-5.46a2.018,2.018,0,0,1,.73-2.74,2.06,2.06,0,0,1,1.52-.2,1.942,1.942,0,0,1,1.21.94l2,3.46A1,1,0,0,0,32,57V38a2,2,0,0,1,4,0V54a1,1,0,0,0,2,0V50a2,2,0,0,1,4,0v4a1,1,0,0,0,2,0V51a2,2,0,0,1,4,0v3a1,1,0,0,0,2,0V52a2,2,0,0,1,4,0V62h2V52A4,4,0,0,0,52,48ZM40,46a3.989,3.989,0,0,0-2,.54V38a4,4,0,0,0-8,0V52H28.99a4.084,4.084,0,0,0-1.55-.83,4.038,4.038,0,0,0-3.04.4,4.247,4.247,0,0,0-.59.43H15a5,5,0,0,1-5-5V9a5,5,0,0,1,5-5H35a5,5,0,0,1,5,5Z"></path><path d="M27.121,12.707a3,3,0,0,0-4.242,0l-9.314,9.314a3,3,0,0,0,4.243,4.243L18,26.071V33a2,2,0,0,0,2,2H30a2,2,0,0,0,2-2V26.072l.192.193a3,3,0,0,0,4.243-4.244ZM24,33V29h2v4Zm6,0H28V28a1,1,0,0,0-1-1H23a1,1,0,0,0-1,1v5H20V24.071l5-5,5,5Zm5.021-8.15a1.006,1.006,0,0,1-1.415,0l-7.9-7.9a1,1,0,0,0-1.414,0l-7.9,7.9a1,1,0,1,1-1.415-1.414l9.314-9.314a1,1,0,0,1,1.414,0l9.314,9.314A1,1,0,0,1,35.021,24.85Z"></path><rect x="24" y="23" width="2" height="2"></rect></g></svg>