<svg xmlns="http://www.w3.org/2000/svg" viewBox="0 0 64 64" x="0px" y="0px"><path d="M4,43V12H50V28h2V5a3,3,0,0,0-3-3H5A3,3,0,0,0,2,5V43a3,3,0,0,0,3,3H6V44H5A1,1,0,0,1,4,43ZM5,4H49a1,1,0,0,1,1,1v5H4V5A1,1,0,0,1,5,4Z"></path><rect x="6" y="6" width="2" height="2"></rect><rect x="10" y="6" width="2" height="2"></rect><rect x="14" y="6" width="2" height="2"></rect><path d="M43,41h2a1,1,0,0,1,1,1h2a3,3,0,0,0-3-3V38H43v1a3,3,0,0,0,0,6h2a1,1,0,0,1,0,2H43a1,1,0,0,1-1-1H40a3,3,0,0,0,3,3v1h2V49a3,3,0,0,0,0-6H43a1,1,0,0,1,0-2Z"></path><path d="M44,34A10,10,0,1,0,54,44,10.011,10.011,0,0,0,44,34Zm0,18a8,8,0,1,1,8-8A8.009,8.009,0,0,1,44,52Z"></path><path d="M61.142,40.01l-3.907-.558a14,14,0,0,0-.657-1.6L58.942,34.7a1,1,0,0,0-.092-1.307l-4.244-4.243a1,1,0,0,0-1.306-.093l-3.154,2.364a13.905,13.905,0,0,0-1.6-.657l-.558-3.906A1,1,0,0,0,47,26H41a1,1,0,0,0-.99.859l-.558,3.906a13.905,13.905,0,0,0-1.6.657L34.7,29.058a1,1,0,0,0-1.306.093L29.15,33.394a1,1,0,0,0-.092,1.307l2.364,3.152a14,14,0,0,0-.657,1.6l-3.907.558A1,1,0,0,0,26,41v6a1,1,0,0,0,.858.99l3.907.558a14,14,0,0,0,.657,1.6L29.058,53.3a1,1,0,0,0,.092,1.307l4.244,4.243a1,1,0,0,0,1.306.093l3.153-2.364a13.921,13.921,0,0,0,1.6.657l.558,3.906A1,1,0,0,0,41,62h6a1,1,0,0,0,.99-.859l.558-3.906a13.905,13.905,0,0,0,1.6-.657L53.3,58.942a1,1,0,0,0,1.306-.093l4.244-4.243a1,1,0,0,0,.092-1.307l-2.364-3.152a14,14,0,0,0,.657-1.6l3.907-.558A1,1,0,0,0,62,47V41A1,1,0,0,0,61.142,40.01ZM60,46.133l-3.67.524a1,1,0,0,0-.818.71,11.939,11.939,0,0,1-.987,2.4,1,1,0,0,0,.077,1.081l2.22,2.961-3.016,3.016L50.845,54.6a1,1,0,0,0-1.081-.077,12,12,0,0,1-2.4.987,1,1,0,0,0-.71.819L46.133,60H41.867l-.523-3.669a1,1,0,0,0-.71-.819,11.9,11.9,0,0,1-2.4-.987,1,1,0,0,0-1.081.077l-2.961,2.22-3.016-3.016,2.22-2.961a1,1,0,0,0,.077-1.081,11.939,11.939,0,0,1-.987-2.4,1,1,0,0,0-.818-.71L28,46.133V41.867l3.67-.524a1,1,0,0,0,.818-.71,11.939,11.939,0,0,1,.987-2.4,1,1,0,0,0-.077-1.081l-2.22-2.961,3.016-3.016,2.961,2.22a1,1,0,0,0,1.081.077,12,12,0,0,1,2.4-.987,1,1,0,0,0,.71-.819L41.867,28h4.266l.523,3.669a1,1,0,0,0,.71.819,12,12,0,0,1,2.4.987,1,1,0,0,0,1.081-.077l2.961-2.22,3.016,3.016L54.6,37.155a1,1,0,0,0-.077,1.081,11.939,11.939,0,0,1,.987,2.4,1,1,0,0,0,.818.71l3.67.524Z"></path><rect x="43" y="30" width="2" height="2"></rect><rect x="33.808" y="33.808" width="2" height="2" transform="translate(-14.418 34.808) rotate(-45)"></rect><rect x="30" y="43" width="2" height="2"></rect><rect x="33.808" y="52.192" width="2" height="2" transform="translate(-27.418 40.192) rotate(-45)"></rect><rect x="43" y="56" width="2" height="2"></rect><rect x="52.192" y="52.192" width="2" height="2" transform="translate(-22.033 53.192) rotate(-45)"></rect><rect x="56" y="43" width="2" height="2"></rect><rect x="52.192" y="33.808" width="2" height="2" transform="translate(-9.033 47.808) rotate(-45)"></rect><path d="M17.707,34.293l-1.414,1.414,3,3A1,1,0,0,0,20,39h4V37H20.414Z"></path><path d="M19.293,49.293l-3,3,1.414,1.414L20.414,51H24V49H20A1,1,0,0,0,19.293,49.293Z"></path><rect x="16" y="43" width="8" height="2"></rect><path d="M14,35a3,3,0,1,0-3-3A3,3,0,0,0,14,35Zm0-4a1,1,0,1,1-1,1A1,1,0,0,1,14,31Z"></path><path d="M14,44a3,3,0,1,0-3,3A3,3,0,0,0,14,44Zm-4,0a1,1,0,1,1,1,1A1,1,0,0,1,10,44Z"></path><path d="M14,53a3,3,0,1,0,3,3A3,3,0,0,0,14,53Zm0,4a1,1,0,1,1,1-1A1,1,0,0,1,14,57Z"></path><path d="M26.962,28.337l1.474.884a1,1,0,0,0,1.221-.15l1.414-1.414a1,1,0,0,0,.151-1.222l-.884-1.473c.087-.188.166-.379.237-.575l1.667-.417A1,1,0,0,0,33,23V21a1,1,0,0,0-.758-.97l-1.667-.417c-.071-.2-.15-.387-.237-.575l.884-1.473a1,1,0,0,0-.151-1.222l-1.414-1.414a1,1,0,0,0-1.221-.15l-1.474.884q-.282-.132-.574-.238l-.418-1.668A1,1,0,0,0,25,13H23a1,1,0,0,0-.97.757l-.418,1.668q-.292.107-.574.238l-1.474-.884a1,1,0,0,0-1.221.15l-1.414,1.414a1,1,0,0,0-.151,1.222l.884,1.473c-.087.188-.166.379-.237.575l-1.667.417A1,1,0,0,0,15,21v2a1,1,0,0,0,.758.97l1.667.417c.071.2.15.387.237.575l-.884,1.473a1,1,0,0,0,.151,1.222l1.414,1.414a1,1,0,0,0,1.221.15l1.474-.884q.282.132.574.238l.418,1.668A1,1,0,0,0,23,31h2a1,1,0,0,0,.97-.757l.418-1.668Q26.68,28.469,26.962,28.337Zm-1.668-1.513a1,1,0,0,0-.711.723L24.22,29h-.44l-.363-1.453a1,1,0,0,0-.711-.723,5,5,0,0,1-1.2-.5,1,1,0,0,0-1.016.008L19.2,27.1,18.9,26.8l.77-1.283a1,1,0,0,0,.008-1.016,4.983,4.983,0,0,1-.5-1.2,1,1,0,0,0-.724-.71L17,22.219v-.438l1.452-.364a1,1,0,0,0,.724-.71,4.983,4.983,0,0,1,.5-1.2,1,1,0,0,0-.008-1.016L18.9,17.2l.31-.309,1.283.769a1,1,0,0,0,1.016.008,5,5,0,0,1,1.2-.5,1,1,0,0,0,.711-.723L23.78,15h.44l.363,1.453a1,1,0,0,0,.711.723,5,5,0,0,1,1.2.5,1,1,0,0,0,1.016-.008L28.8,16.9l.31.309-.77,1.283a1,1,0,0,0-.008,1.016,4.983,4.983,0,0,1,.5,1.2,1,1,0,0,0,.724.71L31,21.781v.438l-1.452.364a1,1,0,0,0-.724.71,4.983,4.983,0,0,1-.5,1.2,1,1,0,0,0,.008,1.016l.77,1.283-.31.309-1.283-.769a1,1,0,0,0-1.016-.008A5,5,0,0,1,25.294,26.824Z"></path><path d="M24,19a3,3,0,1,0,3,3A3,3,0,0,0,24,19Zm0,4a1,1,0,1,1,1-1A1,1,0,0,1,24,23Z"></path></svg>