<svg xmlns="http://www.w3.org/2000/svg" viewBox="0 0 64 64" x="0px" y="0px"><g data-name="Smart House-Internet of Things-Smart Home-Control-Internet-Smartphone"><path d="M60.98,24.89,33.92,2.3a2.979,2.979,0,0,0-3.84.01L3.1,24.95a3.109,3.109,0,0,0-.75,3.9,2.95,2.95,0,0,0,.83.89A4.794,4.794,0,0,0,3,31V57a5,5,0,0,0,5,5H52a1,1,0,0,0,1-1V26.01l4.13,3.48a3,3,0,0,0,4.92-2.56A2.982,2.982,0,0,0,60.98,24.89ZM25,57a3.009,3.009,0,0,1-3,3H8a3.009,3.009,0,0,1-3-3V54H25Zm0-5H5V34H25Zm0-20H5V31a3.009,3.009,0,0,1,3-3H22a3.009,3.009,0,0,1,3,3ZM51,60H25.97A4.924,4.924,0,0,0,27,57V31a5,5,0,0,0-5-5H13V24.42L32,8.31,51,24.32Zm8.83-32.17a1.012,1.012,0,0,1-1.42.13L32.64,6.24a.987.987,0,0,0-1.29,0L8.04,26H8a4.977,4.977,0,0,0-3.88,1.88c-.01-.02-.03-.03-.05-.05a1.119,1.119,0,0,1,.31-1.35L31.37,3.84a.983.983,0,0,1,1.27,0L59.7,26.43A1,1,0,0,1,59.83,27.83Z"></path><path d="M26,23a6,6,0,1,0,6-6A6.006,6.006,0,0,0,26,23Zm5-3.858V22H28.142A3.991,3.991,0,0,1,31,19.142ZM28.142,24H31v2.858A3.991,3.991,0,0,1,28.142,24ZM33,26.858V24h2.858A3.991,3.991,0,0,1,33,26.858ZM35.858,22H33V19.142A3.991,3.991,0,0,1,35.858,22Z"></path><path d="M11.465,43.465l1.414,1.414a3.072,3.072,0,0,1,4.242,0l1.414-1.414a5,5,0,0,0-7.07,0Z"></path><path d="M10.05,42.05a7.009,7.009,0,0,1,9.9,0l1.414-1.414a9.012,9.012,0,0,0-12.728,0Z"></path><path d="M13.586,46.586,15,48l1.414-1.414A2,2,0,0,0,13.586,46.586Z"></path><rect x="14" y="56" width="2" height="2"></rect><path d="M41.121,42.879l1.414-1.414a5,5,0,0,0-7.07,0l1.414,1.414A3.072,3.072,0,0,1,41.121,42.879Z"></path><path d="M37.586,44.586,39,46l1.414-1.414A2,2,0,0,0,37.586,44.586Z"></path><path d="M31,43a8,8,0,1,0,8-8A8.009,8.009,0,0,0,31,43Zm8-6a6,6,0,1,1-6,6A6.006,6.006,0,0,1,39,37Z"></path></g></svg>