<svg xmlns="http://www.w3.org/2000/svg" viewBox="0 0 64 64" x="0px" y="0px"><g data-name="Smart Home"><path d="M50,2H14A5.006,5.006,0,0,0,9,7V57a5.006,5.006,0,0,0,5,5H50a5.006,5.006,0,0,0,5-5V7A5.006,5.006,0,0,0,50,2Zm3,55a3,3,0,0,1-3,3H14a3,3,0,0,1-3-3V7a3,3,0,0,1,3-3H50a3,3,0,0,1,3,3Z"></path><rect x="31" y="6" width="2" height="2"></rect><path d="M32,53a3,3,0,1,0,3,3A3,3,0,0,0,32,53Zm0,4a1,1,0,1,1,1-1A1,1,0,0,1,32,57Z"></path><rect x="15" y="50" width="34" height="2"></rect><path d="M18.1,26.7l1.9-1.4V39a2,2,0,0,0,2,2H34v5a1,1,0,0,0,1,1H47a1,1,0,0,0,1-1V38a1,1,0,0,0-1-1H46V34a5.009,5.009,0,0,0-4-4.9V25.307l1.9,1.4a2.768,2.768,0,0,0,1.64.54,2.85,2.85,0,0,0,.493-.044,2.785,2.785,0,0,0,1.122-5.018L42,18.54V13a1,1,0,0,0-1-1H37a1,1,0,0,0-1,1v1.3l-4.423-3.122a1,1,0,0,0-1.154,0l-15.58,11A2.786,2.786,0,1,0,18.1,26.7ZM26,39V33h4v6Zm20,6H36V39H46ZM44,34v3H38V34a3,3,0,0,1,6,0Zm-4-4.9A5.009,5.009,0,0,0,36,34v3H35a1,1,0,0,0-1,1v1H32V32a1,1,0,0,0-1-1H25a1,1,0,0,0-1,1v7H22V23.841l9-6.6,9,6.6ZM38,14h2v3.129l-2-1.412ZM16,23.814l15-10.59,15,10.59a.785.785,0,0,1-.316,1.415.773.773,0,0,1-.6-.139l-13.494-9.9a1,1,0,0,0-1.184,0l-13.494,9.9a.767.767,0,0,1-.6.14A.785.785,0,0,1,16,23.814Z"></path><path d="M27,25a4,4,0,1,0,4-4A4,4,0,0,0,27,25Zm6,0a2,2,0,1,1-2-2A2,2,0,0,1,33,25Z"></path><polygon points="40 44 42 44 42 42 43 42 43 40 39 40 39 42 40 42 40 44"></polygon></g></svg>