<svg xmlns="http://www.w3.org/2000/svg" viewBox="0 0 64 64" x="0px" y="0px"><g data-name="Smartphone"><path d="M41,57a3,3,0,0,1-3,3H10a3,3,0,0,1-3-3V7a3,3,0,0,1,3-3h4V5a3,3,0,0,0,3,3H31a3,3,0,0,0,3-3V4h4a3,3,0,0,1,3,3v3h2V7a5.006,5.006,0,0,0-5-5H10A5.006,5.006,0,0,0,5,7V57a5.006,5.006,0,0,0,5,5H38a5.006,5.006,0,0,0,5-5V54H41ZM32,5a1,1,0,0,1-1,1H17a1,1,0,0,1-1-1V4H32Z"></path><path d="M50,41V39.414l2.707-2.707A1,1,0,0,0,53,36V31a1.006,1.006,0,0,0-.168-.555L51,27.7V24a1,1,0,0,0-.293-.707l-2-2A1,1,0,0,0,48,21H45.721l-.773-2.316A1,1,0,0,0,44,18H41a1,1,0,0,0-.707.293L39,19.586l-1.293-1.293A1,1,0,0,0,37,18H34a1,1,0,0,0-.948.684L32.279,21H30a1,1,0,0,0-.707.293l-2,2A1,1,0,0,0,27,24v3.7l-1.832,2.748A1.006,1.006,0,0,0,25,31v5a1,1,0,0,0,.293.707L28,39.414V41a1,1,0,0,0,.758.97l3.467.867.827,2.479A1,1,0,0,0,34,46h3a1,1,0,0,0,.707-.293L39,44.414l1.293,1.293A1,1,0,0,0,41,46h3a1,1,0,0,0,.948-.684l.827-2.479,3.467-.867A1,1,0,0,0,50,41ZM36.586,44H34.721l-.577-1.73,1.563-1.563A1,1,0,0,0,36,40V39H34v.586l-1.307,1.307L30,40.219V35H28v1.586l-1-1V31.3l1.155-1.733.845.844V31h2V30a1,1,0,0,0-.293-.707L29,27.586V24.414L30.414,23h2.172L34,24.414V25h2V24a1,1,0,0,0-.293-.707L34.144,21.73,34.721,20h1.865L38,21.414V42.586ZM48,40.219l-2.693.674L44,39.586V39H42v1a1,1,0,0,0,.293.707l1.563,1.563L43.279,44H41.414L40,42.586V21.414L41.414,20h1.865l.577,1.73-1.563,1.563A1,1,0,0,0,42,24v1h2v-.586L45.414,23h2.172L49,24.414v3.172l-1.707,1.707A1,1,0,0,0,47,30v1h2v-.586l.845-.844L51,31.3v4.283l-1,1V35H48v5.219Z"></path><path d="M45.707,31.293,44,29.586V27H42v3a1,1,0,0,0,.293.707l2,2Z"></path><path d="M44.707,34.293l-1.414,1.414.707.707V38h2V36a1,1,0,0,0-.293-.707Z"></path><path d="M34,29.586l-1.707,1.707,1.414,1.414,2-2A1,1,0,0,0,36,30V27H34Z"></path><path d="M32.293,35.293A1,1,0,0,0,32,36v2h2V36.414l.707-.707-1.414-1.414Z"></path><path d="M59,32A20.023,20.023,0,0,0,39,12a19.774,19.774,0,0,0-11.062,3.365,3.981,3.981,0,0,0-5.573,5.573A19.774,19.774,0,0,0,19,32,20.023,20.023,0,0,0,39,52a19.774,19.774,0,0,0,11.062-3.365,3.981,3.981,0,0,0,5.573-5.573A19.774,19.774,0,0,0,59,32ZM24.15,17.151a2,2,0,1,1,0,2.828A2,2,0,0,1,24.15,17.151ZM21,32a17.79,17.79,0,0,1,2.925-9.8A3.981,3.981,0,0,0,29.2,16.925,17.788,17.788,0,0,1,39,14,18.021,18.021,0,0,1,57,32a17.788,17.788,0,0,1-2.925,9.8A3.981,3.981,0,0,0,48.8,47.075,17.788,17.788,0,0,1,39,50,18.021,18.021,0,0,1,21,32ZM53.85,46.849a2,2,0,1,1,0-2.828A2,2,0,0,1,53.85,46.849Z"></path><rect x="13" y="12" width="2" height="2"></rect><rect x="10.172" y="13.172" width="2" height="2" transform="translate(-6.749 12.05) rotate(-45)"></rect><rect x="9" y="16" width="2" height="2"></rect><rect x="10.172" y="18.828" width="2" height="2" transform="translate(-10.75 13.711) rotate(-45.01)"></rect><rect x="13" y="20" width="2" height="2"></rect><rect x="15.828" y="18.828" width="2" height="2" transform="translate(-9.092 17.707) rotate(-45)"></rect><rect x="17" y="16" width="2" height="2"></rect><rect x="15.828" y="13.172" width="2" height="2" transform="translate(-5.092 16.05) rotate(-45)"></rect><rect x="13" y="50" width="2" height="2"></rect><rect x="10.172" y="48.828" width="2" height="2" transform="translate(-31.962 22.494) rotate(-45)"></rect><rect x="9" y="46" width="2" height="2"></rect><rect x="10.172" y="43.172" width="2" height="2" transform="translate(-27.962 20.837) rotate(-45)"></rect><rect x="13" y="42" width="2" height="2"></rect><rect x="15.828" y="43.172" width="2" height="2" transform="translate(-26.309 24.844) rotate(-45.01)"></rect><rect x="17" y="46" width="2" height="2"></rect><rect x="15.828" y="48.828" width="2" height="2" transform="translate(-30.305 26.494) rotate(-45)"></rect><rect x="13" y="24" width="2" height="16"></rect></g></svg>