<svg xmlns="http://www.w3.org/2000/svg" viewBox="0 0 64 64" x="0px" y="0px"><g data-name="Team Work"><path d="M42,26V23a7.008,7.008,0,0,0-7-7H29a7.008,7.008,0,0,0-7,7v3a2,2,0,0,0,2,2H40A2,2,0,0,0,42,26Zm-2-3v3H33v-1.8l2.632-6.141A4.991,4.991,0,0,1,40,23Zm-6.516-5L32,21.461,30.516,18ZM24,23a4.991,4.991,0,0,1,4.368-4.936L31,24.205V26H24Z"></path><rect x="36" y="22" width="2" height="2"></rect><path d="M37,11V9a1,1,0,0,0,1-1V7a5.006,5.006,0,0,0-5-5H31a5.006,5.006,0,0,0-5,5V8a1,1,0,0,0,1,1v2a5,5,0,0,0,10,0ZM31,4h2a3,3,0,0,1,3,3H32.236l-1.789-.895a1,1,0,0,0-1.154.188L28.586,7H28A3,3,0,0,1,31,4Zm1,10a3,3,0,0,1-3-3V9a1,1,0,0,0,.707-.293l.49-.49,1.356.678A1,1,0,0,0,32,9h3v2A3,3,0,0,1,32,14Z"></path><path d="M17,50H11a7.008,7.008,0,0,0-7,7v3a2,2,0,0,0,2,2H22a2,2,0,0,0,2-2V57A7.008,7.008,0,0,0,17,50Zm-1.516,2L14,55.461,12.516,52ZM6,57a4.991,4.991,0,0,1,4.368-4.936L13,58.205V60H6Zm16,3H15v-1.8l2.632-6.141A4.991,4.991,0,0,1,22,57Z"></path><rect x="18" y="56" width="2" height="2"></rect><path d="M19,45V43a1,1,0,0,0,1-1V41a5.006,5.006,0,0,0-5-5H13a5.006,5.006,0,0,0-5,5v1a1,1,0,0,0,1,1v2a5,5,0,0,0,10,0Zm-6-7h2a3,3,0,0,1,3,3H14.236l-1.789-.9a1,1,0,0,0-1.154.188L10.586,41H10A3,3,0,0,1,13,38Zm1,10a3,3,0,0,1-3-3V43a1,1,0,0,0,.707-.293l.49-.49,1.356.678A1,1,0,0,0,14,43h3v2A3,3,0,0,1,14,48Z"></path><path d="M53,50H47a7.008,7.008,0,0,0-7,7v3a2,2,0,0,0,2,2H58a2,2,0,0,0,2-2V57A7.008,7.008,0,0,0,53,50Zm-1.516,2L50,55.461,48.516,52ZM42,57a4.991,4.991,0,0,1,4.368-4.936L49,58.205V60H42Zm9,3v-1.8l2.632-6.141A4.991,4.991,0,0,1,58,57v3Z"></path><rect x="54" y="56" width="2" height="2"></rect><path d="M55,45V43a1,1,0,0,0,1-1V41a5.006,5.006,0,0,0-5-5H49a5.006,5.006,0,0,0-5,5v1a1,1,0,0,0,1,1v2a5,5,0,0,0,10,0Zm-6-7h2a3,3,0,0,1,3,3H50.236l-1.789-.9a1,1,0,0,0-1.154.188L46.586,41H46A3,3,0,0,1,49,38Zm1,10a3,3,0,0,1-3-3V43a1,1,0,0,0,.707-.293l.49-.49,1.356.678A1,1,0,0,0,50,43h3v2A3,3,0,0,1,50,48Z"></path><polygon points="33 32 31 32 31 39.586 25.293 45.293 26.707 46.707 32 41.414 37.293 46.707 38.707 45.293 33 39.586 33 32"></polygon></g></svg>