<svg xmlns="http://www.w3.org/2000/svg" viewBox="0 0 64 64" x="0px" y="0px"><g><path d="M42.22,14.71,38,12.41V10a1,1,0,0,0,1-1V5a3.009,3.009,0,0,0-3-3H28a3.009,3.009,0,0,0-3,3V9a1,1,0,0,0,1,1v2.41l-4.23,2.3A13,13,0,0,0,15,26.12V55a7.008,7.008,0,0,0,7,7h3.6a4.988,4.988,0,0,0,3.12-1.1l2.66-2.12a.992.992,0,0,1,1.24,0l2.66,2.12A4.988,4.988,0,0,0,38.4,62H42a7.008,7.008,0,0,0,7-7V26.12A12.993,12.993,0,0,0,42.22,14.71ZM27,5a1,1,0,0,1,1-1h8a1,1,0,0,1,1,1V8H27ZM47,55a5,5,0,0,1-5,5H38.4a2.964,2.964,0,0,1-1.87-.66l-2.66-2.12a2.966,2.966,0,0,0-3.74,0l-2.66,2.12A2.984,2.984,0,0,1,25.6,60H22a5,5,0,0,1-5-5V26.12a11,11,0,0,1,5.73-9.65l4.75-2.59A1.006,1.006,0,0,0,28,13V10h8v3a1.006,1.006,0,0,0,.52.88l4.75,2.59A11,11,0,0,1,47,26.12Z"></path><rect x="43" y="28" width="2" height="2"></rect><path d="M38.81,30.3l-.83,3.91A1,1,0,0,1,37,35a1.492,1.492,0,0,1-.21-.02l-3.91-.83.42-1.96,1.6.34L32,27.89l-2.28,3.64-1.69-1.06,3.12-5a1.048,1.048,0,0,1,1.7,0l3.69,5.9.31-1.49Z"></path><path d="M42.88,42.48A1.018,1.018,0,0,1,42,43H34.41l1.3,1.29-1.42,1.42-3-3a1.008,1.008,0,0,1,0-1.42l3-3,1.42,1.42L34.41,41H40.2l-2.17-3.47,1.69-1.06,3.13,5A1.013,1.013,0,0,1,42.88,42.48Z"></path><path d="M29,41v2H22a1.008,1.008,0,0,1-.85-1.53l3.75-6-1.6.34-.42-1.96,3.91-.83a1.036,1.036,0,0,1,.75.14,1.011,1.011,0,0,1,.44.63l.83,3.91-1.96.42-.31-1.49L23.8,41Z"></path><path d="M45,26H43a5.919,5.919,0,0,0-2.97-5.12l.99-1.73A7.886,7.886,0,0,1,45,26Z"></path></g></svg>