<svg xmlns="http://www.w3.org/2000/svg" viewBox="0 0 64 64" x="0px" y="0px"><g data-name="avatar-man-young-account-profile"><path d="M29,19h2a3,3,0,0,0-6,0h2a1,1,0,0,1,2,0Z"></path><path d="M36,18a1,1,0,0,1,1,1h2a3,3,0,0,0-6,0h2A1,1,0,0,1,36,18Z"></path><path d="M36.33,24.5l-1.73-1a3,3,0,0,1-5.2,0l-1.73,1a5,5,0,0,0,8.66,0Z"></path><path d="M46.92,35.31l-8.05-1.07a1,1,0,0,1-.87-.99V30.21A11.029,11.029,0,0,0,42.95,22H43a4,4,0,0,0,0-8V12.79a5.291,5.291,0,0,0,2.38-1.4A5.4,5.4,0,0,0,47,7.5,5.51,5.51,0,0,0,41.5,2H28a7.008,7.008,0,0,0-7,7v5a4,4,0,1,0,0,8h.05a10.919,10.919,0,0,0,3.17,6.78A12.194,12.194,0,0,0,26,30.22v3.03a1,1,0,0,1-.87.99l-8.05,1.07A7.031,7.031,0,0,0,11,42.25V61a1,1,0,0,0,1,1H52a1,1,0,0,0,1-1V42.25A7.031,7.031,0,0,0,46.92,35.31ZM21,20a2.015,2.015,0,0,1-2-2,2.006,2.006,0,0,1,2-2Zm20-4.18A3.01,3.01,0,0,1,39,13h2ZM45,18a2.015,2.015,0,0,1-2,2V16A2.006,2.006,0,0,1,45,18ZM23,9a5,5,0,0,1,5-5H41.5A3.5,3.5,0,0,1,45,7.5a3.5,3.5,0,0,1-3.12,3.48c-.12.01-.25.02-.38.02H26a1,1,0,0,0-1,1,3.01,3.01,0,0,1-2,2.82Zm2.64,18.36A8.942,8.942,0,0,1,23,21V16.89A5.011,5.011,0,0,0,26.9,13H37a5.017,5.017,0,0,0,4,4.9V21a8.994,8.994,0,0,1-15.36,6.36ZM36,31.24V35a4,4,0,0,1-8,0V31.24a10.906,10.906,0,0,0,8,0ZM19,60H13V55h6Zm32,0H45V55h6Zm0-7H45V48H43V60H21V48H19v5H13V42.25a5.018,5.018,0,0,1,4.34-4.95l8.06-1.08a2.715,2.715,0,0,0,.69-.19A6.017,6.017,0,0,0,31,40.91V50h2V40.91a6.017,6.017,0,0,0,4.91-4.88,2.715,2.715,0,0,0,.69.19l8.06,1.08A5.018,5.018,0,0,1,51,42.25Z"></path><rect x="35" y="42" width="2" height="2"></rect><rect x="35" y="46" width="2" height="2"></rect></g></svg>