<svg xmlns="http://www.w3.org/2000/svg" viewBox="0 0 64 64" x="0px" y="0px"><g><rect x="31" y="2" width="2" height="4"></rect><rect x="25.823" y="4.681" width="2" height="2" transform="matrix(0.966, -0.259, 0.259, 0.966, -0.557, 7.134)"></rect><rect x="16.858" y="9.858" width="2" height="2" transform="translate(-2.446 15.815) rotate(-45.02)"></rect><rect x="11.682" y="18.824" width="2" height="2" transform="translate(-9.749 26.943) rotate(-75)"></rect><rect x="11.682" y="29.176" width="2" height="2" transform="translate(-7.378 4.31) rotate(-15)"></rect><rect x="16.858" y="38.142" width="2" height="2" transform="translate(-22.442 24.078) rotate(-44.98)"></rect><rect x="45.142" y="38.142" width="2" height="2" transform="translate(-14.161 44.113) rotate(-45.02)"></rect><rect x="50.318" y="29.176" width="2" height="2" transform="translate(8.888 71.936) rotate(-75)"></rect><rect x="50.318" y="18.824" width="2" height="2" transform="translate(-3.382 13.958) rotate(-15)"></rect><rect x="45.142" y="9.858" width="2" height="2" transform="translate(5.828 35.794) rotate(-44.98)"></rect><rect x="36.177" y="4.682" width="2" height="2" transform="translate(22.067 40.121) rotate(-75)"></rect><rect x="20.5" y="4.814" width="2" height="4" transform="translate(-0.526 11.663) rotate(-30.002)"></rect><rect x="12.813" y="12.5" width="2" height="4.001" transform="translate(-5.65 19.215) rotate(-60.005)"></rect><rect x="9" y="24" width="4" height="2"></rect><rect x="11.813" y="34.5" width="4.001" height="2" transform="translate(-15.897 11.66) rotate(-29.995)"></rect><rect x="49.186" y="33.5" width="2" height="4.001" transform="translate(-5.648 61.218) rotate(-60.005)"></rect><rect x="51" y="24" width="4" height="2"></rect><rect x="48.186" y="13.5" width="4.001" height="2" transform="translate(-0.527 27.031) rotate(-29.995)"></rect><rect x="40.5" y="5.813" width="4" height="2" transform="translate(15.352 40.215) rotate(-60.005)"></rect><path d="M49,28a3,3,0,0,0-2-2.816V22a1,1,0,0,0-.664-.942l-14-5a1.006,1.006,0,0,0-.672,0l-14,5a1,1,0,0,0,0,1.884L23,24.848V33a1,1,0,0,0,1,1h7v8H23a2,2,0,0,0-2,2v4a2,2,0,0,0,2,2h2v7a5.006,5.006,0,0,0,5,5h4a5.006,5.006,0,0,0,5-5V50h2a2,2,0,0,0,2-2V44a2,2,0,0,0-2-2H33V34h7a1,1,0,0,0,1-1V24.848l4-1.429v1.765A2.995,2.995,0,1,0,49,28ZM37,57a3,3,0,0,1-3,3H30a3,3,0,0,1-3-3V50H37Zm4-9H23V44H41ZM39,32H25V25.562l6.664,2.38a1,1,0,0,0,.672,0L39,25.562Zm-7-6.062L20.974,22,32,18.062,43.026,22ZM45,28a1,1,0,1,1,1,1A1,1,0,0,1,45,28Z"></path></g></svg>