<svg xmlns="http://www.w3.org/2000/svg" viewBox="0 0 64 64" x="0px" y="0px"><g><path d="M7,36V46H47V36Zm6,8a3,3,0,1,1,3-3A3,3,0,0,1,13,44Zm21,0H20V42H34Zm0-4H20V38H34Zm7,4a3,3,0,1,1,3-3A3,3,0,0,1,41,44Z"></path><circle cx="41" cy="41" r="1"></circle><polygon points="26 18 12.847 18 12.513 20 26 20 26 18"></polygon><rect x="40" y="54" width="6" height="4"></rect><path d="M28,8.184A2.966,2.966,0,0,1,29,8H59a2.966,2.966,0,0,1,1,.184V7a1,1,0,0,0-1-1H29a1,1,0,0,0-1,1Z"></path><rect x="4" y="48" width="46" height="4"></rect><rect x="8" y="54" width="6" height="4"></rect><circle cx="13" cy="41" r="1"></circle><path d="M29,28a3,3,0,0,1-3-3V22H12.18l-2,12H43.82l-1-6Z"></path><circle cx="44" cy="18" r="3"></circle><path d="M60,25V11a1,1,0,0,0-1-1H29a1,1,0,0,0-1,1V25a1,1,0,0,0,1,1H59A1,1,0,0,0,60,25ZM34,24H31a1,1,0,0,1-1-1V20h2v2h2Zm0-10H32v2H30V13a1,1,0,0,1,1-1h3Zm3,5H35V17h2Zm7,4a5,5,0,1,1,5-5A5.006,5.006,0,0,1,44,23Zm9-4H51V17h2Zm5,4a1,1,0,0,1-1,1H54V22h2V20h2Zm0-7H56V14H54V12h3a1,1,0,0,1,1,1Z"></path></g></svg>