<svg xmlns="http://www.w3.org/2000/svg" viewBox="0 0 64 64" x="0px" y="0px"><g><path d="M27.24,9.59a4.362,4.362,0,0,0,1.42-4.25,4.362,4.362,0,0,0-4.25,1.42A4.323,4.323,0,0,0,23,11,4.323,4.323,0,0,0,27.24,9.59Z"></path><polygon points="21.41 48 22.59 48 22 47.41 21.41 48"></polygon><path d="M55.03,34H11a3,3,0,1,0,0,6h7V38H11V36H54.1A4.84,4.84,0,0,1,55.03,34Z"></path><rect x="14" y="46" width="4" height="2"></rect><rect x="14" y="42" width="4" height="2"></rect><path d="M7.47,56.54A5,5,0,0,1,11,48h1V46H11a7,7,0,0,0,0,14h1V58H11A5.005,5.005,0,0,1,7.47,56.54Z"></path><path d="M24,46.59V38H20v8.59l1.29-1.3a1.014,1.014,0,0,1,1.42,0Z"></path><rect x="14" y="30" width="46" height="2"></rect><path d="M54.1,54H11V52H54.1a4.84,4.84,0,0,1,.93-2H11a3,3,0,1,0,0,6H55.03A4.84,4.84,0,0,1,54.1,54Z"></path><path d="M11,44h1V42H11a5,5,0,0,1,0-10h1V30H11a7,7,0,0,0,0,14Z"></path><rect x="14" y="58" width="46" height="2"></rect><rect x="26" y="46" width="34" height="2"></rect><rect x="26" y="42" width="34" height="2"></rect><path d="M26,38v2H55.03a4.84,4.84,0,0,1-.93-2Z"></path><path d="M23.99,15.142l-1.98-.282c.034-.248.8-6.078-3.206-6.88L19.2,6.02C23.885,6.957,24.382,12.4,23.99,15.142Z"></path><path d="M51,6a9,9,0,1,0,9,9A9.011,9.011,0,0,0,51,6Zm.707,14.364a1,1,0,0,0-1.414,0L48.879,18.95a3,3,0,0,1,4.242,0Zm2.829-2.828a5.006,5.006,0,0,0-7.072,0L46.05,16.122a7.007,7.007,0,0,1,9.9,0Zm-9.9-2.829-1.414-1.414a11.012,11.012,0,0,1,15.556,0l-1.414,1.414A9.01,9.01,0,0,0,44.636,14.707Z"></path><path d="M26.924,28.083a4.278,4.278,0,0,1-.75-.068,4.524,4.524,0,0,1-1.082-.336,5.026,5.026,0,0,0-4.188,0,4.543,4.543,0,0,1-1.075.334,4.337,4.337,0,0,1-.753.068,4.205,4.205,0,0,1-.739-.067c-2.793-.43-5.173-3.242-5.813-6.841-.763-4.344,1.264-8.346,4.52-8.92a4.4,4.4,0,0,1,.769-.067,4.938,4.938,0,0,1,2.1.488,7.294,7.294,0,0,0,3.066.684,7.576,7.576,0,0,0,3.094-.681,4.959,4.959,0,0,1,2.111-.491,4.4,4.4,0,0,1,.769.067c3.256.574,5.283,4.576,4.519,8.922-.639,3.6-3.019,6.409-5.787,6.835A4.328,4.328,0,0,1,26.924,28.083Z"></path></g></svg>