<svg xmlns="http://www.w3.org/2000/svg" viewBox="0 0 64 64" x="0px" y="0px"><g data-name="Online Shopping-Smart Phone"><path d="M57,37a2.967,2.967,0,0,0-1.471.4,2.955,2.955,0,0,0-4-1A2.94,2.94,0,0,0,48,35.184V28a3,3,0,0,0-6,0v9.184A2.966,2.966,0,0,0,41,37a3,3,0,0,0-3,3V51a1,1,0,0,0,.219.625L42,56.351V61a1,1,0,0,0,1,1H57a1,1,0,0,0,1-1V56.192l1.929-4.82A1.012,1.012,0,0,0,60,51V40A3,3,0,0,0,57,37Zm1,13.808-1.929,4.82A1.012,1.012,0,0,0,56,56v4H44V56a1,1,0,0,0-.219-.625L40,50.649V40a1,1,0,0,1,2,0v6h2V28a1,1,0,0,1,2,0V42h2V38a1,1,0,0,1,2,0v4h2V39a1,1,0,0,1,2,0v3h2V40a1,1,0,0,1,2,0Z"></path><path d="M57,2H7A5.006,5.006,0,0,0,2,7V36a5.006,5.006,0,0,0,5,5H36V39H7a3,3,0,0,1-3-3V30H6a2,2,0,0,0,2-2V14a2,2,0,0,0-2-2H4V7A3,3,0,0,1,7,4H57a3,3,0,0,1,3,3V36h2V7A5.006,5.006,0,0,0,57,2ZM6,14V28H4V14Z"></path><path d="M22.237,15.354a1,1,0,0,0-.223.811l1.721,10.328A2.991,2.991,0,0,0,26.694,29H37.306a2.991,2.991,0,0,0,2.959-2.507l1.721-10.328A1,1,0,0,0,41,15H38.18l.806-4.835-1.972-.33L36.153,15H27.847l-.861-5.165-1.972.33L25.82,15H23A1,1,0,0,0,22.237,15.354ZM39.819,17l-1.527,9.165a1,1,0,0,1-.986.835H26.694a1,1,0,0,1-.986-.836L24.181,17Z"></path><rect x="31" y="19" width="2" height="6"></rect><rect x="35" y="19" width="2" height="6"></rect><rect x="27" y="19" width="2" height="6"></rect><rect x="46" y="11" width="2" height="2"></rect><rect x="50" y="11" width="6" height="2"></rect><rect x="46" y="15" width="10" height="2"></rect><rect x="46" y="19" width="10" height="2"></rect><rect x="10" y="25" width="2" height="2"></rect><rect x="14" y="25" width="6" height="2"></rect><rect x="10" y="29" width="10" height="2"></rect><rect x="10" y="33" width="10" height="2"></rect><rect x="10" y="8" width="2" height="2"></rect><rect x="14" y="8" width="2" height="2"></rect><rect x="18" y="8" width="2" height="2"></rect></g></svg>