<svg xmlns="http://www.w3.org/2000/svg" viewBox="0 0 64 64" x="0px" y="0px"><g><path d="M28,52H24a3,3,0,0,0,0,6h4a3,3,0,0,0,0-6Zm0,4H24a1,1,0,0,1,0-2h4a1,1,0,0,1,0,2Z"></path><rect x="19" y="6" width="2" height="2"></rect><rect x="23" y="6" width="6" height="2"></rect><path d="M58.16,16.84a5,5,0,0,0-7.07,0L46,21.93V8a6,6,0,0,0-6-6H12A6,6,0,0,0,6,8V56a6,6,0,0,0,6,6H40a6,6,0,0,0,6-6V36.07L58.16,23.91A5,5,0,0,0,58.16,16.84Zm-7.78,3.53,1.42,1.42L38.36,35.22l-1.41-1.41ZM35.13,37.65l.79-2.05,3.48,3.48-2.05.79Zm.18,3-1.57.61.61-1.57ZM8,8a4,4,0,0,1,4-4H40a4,4,0,0,1,4,4v2H8ZM44,56a4,4,0,0,1-4,4H12a4,4,0,0,1-4-4V50H44Zm0-8H8V12H44V23.93L34.83,33.1a1.014,1.014,0,0,0-.23.35l-3.53,9.19a.988.988,0,0,0,.22,1.07A1.007,1.007,0,0,0,32,44a.922.922,0,0,0,.36-.07l9.19-3.53a1.014,1.014,0,0,0,.35-.23l2.1-2.1Zm-2.81-9.95-1.41-1.41L53.21,23.2l1.42,1.42ZM56.75,22.49l-.71.71L51.8,18.96l.71-.71a3,3,0,0,1,4.24,4.24Z"></path><rect x="10" y="34" width="18" height="2"></rect><rect x="10" y="38" width="12" height="2"></rect><rect x="24" y="38" width="4" height="2"></rect><rect x="10" y="42" width="18" height="2"></rect><path d="M16,32H34a1,1,0,0,0,1-1V15a1,1,0,0,0-1-1H16a1,1,0,0,0-1,1V31A1,1,0,0,0,16,32Zm1-2V21h5v2a1,1,0,0,0,1.707.707L25,22.414l1.293,1.293A1,1,0,0,0,28,23V21h5v9ZM33,19H28V16h5Zm-7-3v4.586l-.293-.293a1,1,0,0,0-1.414,0L24,20.586V16Zm-4,0v3H17V16Z"></path></g></svg>