<svg xmlns="http://www.w3.org/2000/svg" viewBox="0 0 64 64" x="0px" y="0px"><g data-name="Radio Antena-Smartphone-Wifi Signal-Internet of Things-Technology"><path d="M61,26H55.77L52.23,12.73a3,3,0,1,0-2.46,0L46.23,26H36a1,1,0,0,0-1,1v4a1,1,0,0,0,1,1h1V47a1,1,0,0,0,1,1H59a1,1,0,0,0,1-1V32h1a1,1,0,0,0,1-1V27A1,1,0,0,0,61,26ZM51,9a1,1,0,1,1-1,1A1,1,0,0,1,51,9Zm.56,9H50.44L51,15.88ZM49.9,20h2.2l.53,2H49.37Zm-1.06,4h4.32l.54,2H48.3ZM46,46H43V38h3Zm12,0H48V37a1,1,0,0,0-1-1H42a1,1,0,0,0-1,1v9H39V32H58Zm2-16H37V28H60Z"></path><path d="M51,44h4a1,1,0,0,0,1-1V37a1,1,0,0,0-1-1H51a1,1,0,0,0-1,1v6A1,1,0,0,0,51,44Zm1-6h2v4H52Z"></path><path d="M46.05,14.949l1.414-1.414a5,5,0,0,1,0-7.07L46.05,5.051a7,7,0,0,0,0,9.9Z"></path><path d="M55.95,14.949a7,7,0,0,0,0-9.9L54.536,6.465a5,5,0,0,1,0,7.07Z"></path><path d="M44.636,16.364a9.01,9.01,0,0,1,0-12.728L43.222,2.222a11.012,11.012,0,0,0,0,15.556Z"></path><path d="M57.364,16.364l1.414,1.414a11.012,11.012,0,0,0,0-15.556L57.364,3.636A9.01,9.01,0,0,1,57.364,16.364Z"></path><path d="M28,22H14a5,5,0,0,0-5,5V41.75L5.02,46.22a11.1,11.1,0,0,0-2.76,8l.49,7.84,2-.12L4.26,54.1a9.055,9.055,0,0,1,2.26-6.55L9,44.76v8.17l-.33.57,1.73,1,3-5.2a1.01,1.01,0,0,1,1.37-.36,1,1,0,0,1,.36,1.36l-3,5.2a.994.994,0,0,0,.04,1.05l.89,1.34A5.627,5.627,0,0,1,14,61a6.073,6.073,0,0,1-.06.85l1.97.3A7.426,7.426,0,0,0,16,61a7.68,7.68,0,0,0-.63-3H28a5,5,0,0,0,5-5V27A5,5,0,0,0,28,22Zm3,31a3.009,3.009,0,0,1-3,3H14.2l-.02-.04,2.69-4.66a3.007,3.007,0,0,0,.38-1.3H31Zm0-5H16.66a2.931,2.931,0,0,0-.89-.79,2.975,2.975,0,0,0-2.28-.3A2.933,2.933,0,0,0,11.89,48H11V30H31Zm0-20H11V27a3.009,3.009,0,0,1,3-3H28a3.009,3.009,0,0,1,3,3Z"></path><rect x="20" y="52" width="2" height="2"></rect><path d="M17.464,39.465l1.414,1.414a3,3,0,0,1,4.244,0l1.414-1.414A5.008,5.008,0,0,0,17.464,39.465Z"></path><path d="M25.95,38.05l1.414-1.414a9.009,9.009,0,0,0-12.728,0L16.05,38.05A7.009,7.009,0,0,1,25.95,38.05Z"></path><path d="M19.586,42.586,21,44l1.414-1.414A2,2,0,0,0,19.586,42.586Z"></path><path d="M24.536,15.465a5.008,5.008,0,0,0-7.072,0l1.414,1.414a3,3,0,0,1,4.244,0Z"></path><path d="M25.95,14.05l1.414-1.414a9.009,9.009,0,0,0-12.728,0L16.05,14.05A7.009,7.009,0,0,1,25.95,14.05Z"></path><path d="M19.586,18.586,21,20l1.414-1.414A2,2,0,0,0,19.586,18.586Z"></path></g></svg>