<svg xmlns="http://www.w3.org/2000/svg" viewBox="0 0 64 64" x="0px" y="0px"><rect x="58" y="13" width="2" height="38"></rect><path d="M31,50a5,5,0,0,0-.1-1H12V47H29.974A4.977,4.977,0,0,0,26,45H8v6H31Z"></path><polygon points="31 53 7 53 4 53 4 55 31 55 31 53"></polygon><rect x="4" y="13" width="2" height="38"></rect><path d="M33,44v1.111A6.973,6.973,0,0,1,38,43H56V9H38a5.006,5.006,0,0,0-5,5Zm19-7H50V35h2Zm0-12H48V23h4ZM42,15H52v2H42Zm-4,0h2v2H38Zm0,4H52v2H38Zm0,4h8v2H38Zm0,4H52v2H38Zm0,4H52v2H38Zm0,4H48v2H38Z"></path><path d="M33,51H56V45H38a4.977,4.977,0,0,0-3.974,2H52v2H33.1a5,5,0,0,0-.1,1Z"></path><polygon points="33 55 60 55 60 53 57 53 33 53 33 55"></polygon><path d="M31,44V14a5.006,5.006,0,0,0-5-5H8V43H26a6.973,6.973,0,0,1,5,2.111Zm-5-7H12V35H26ZM12,33V31h4v2Zm14,0H18V31h8Zm1-8a2,2,0,0,1-2,2H13a2,2,0,0,1-2-2V17a2,2,0,0,1,2-2H25a2,2,0,0,1,2,2Z"></path><polygon points="23.985 17 14.015 17 19 19.849 23.985 17"></polygon><path d="M19.992,21.585a2,2,0,0,1-1.984,0L13,18.723V25H25l0-6.277Z"></path></svg>