<svg xmlns="http://www.w3.org/2000/svg" viewBox="0 0 64 64" x="0px" y="0px"><g><path d="M57.665,56.252l-9-8A1.006,1.006,0,0,0,48,48H16a1.006,1.006,0,0,0-.665.252l-9,8A1,1,0,0,0,6,57v4a1,1,0,0,0,1,1H57a1,1,0,0,0,1-1V57A1,1,0,0,0,57.665,56.252ZM54.37,56H15.414l6-6H47.62ZM16.38,50h2.206l-6,6H9.63ZM8,60V58H56v2Z"></path><rect x="15" y="6" width="2" height="2"></rect><rect x="19" y="6" width="2" height="2"></rect><rect x="23" y="6" width="2" height="2"></rect><path d="M14,40H27.465l3.7,5.555a1,1,0,0,0,1.664,0L36.535,40H50a3,3,0,0,0,3-3V5a3,3,0,0,0-3-3H14a3,3,0,0,0-3,3V37A3,3,0,0,0,14,40Zm36-2H36a1,1,0,0,0-.832.445L32,43.2l-3.168-4.752A1,1,0,0,0,28,38H14a1,1,0,0,1-1-1V12H51V37A1,1,0,0,1,50,38ZM14,4H50a1,1,0,0,1,1,1v5H13V5A1,1,0,0,1,14,4Z"></path><path d="M45,17H39v2h3.586l-7,7H25a1,1,0,0,0-.707.293l-6,6,1.414,1.414L25.414,28H36a1,1,0,0,0,.707-.293L44,20.414V24h2V18A1,1,0,0,0,45,17Z"></path><rect x="40" y="32" width="6" height="2"></rect><rect x="40" y="28" width="6" height="2"></rect><rect x="18" y="21" width="6" height="2"></rect><rect x="18" y="17" width="6" height="2"></rect></g></svg>