<svg xmlns="http://www.w3.org/2000/svg" viewBox="0 0 64 64" x="0px" y="0px"><g data-name="Shopping"><polygon points="10.865 20 5.135 20 8 23.438 10.865 20"></polygon><rect x="48" y="40" width="10" height="20"></rect><polygon points="5.135 60 10.865 60 8 56.563 5.135 60"></polygon><rect x="49" y="32" width="11" height="6"></rect><path d="M8,26a1,1,0,0,1-.768-.359L4,21.762V58.238l3.232-3.879a1.035,1.035,0,0,1,1.536,0L12,58.238V21.762L8.768,25.641A1,1,0,0,1,8,26Z"></path><rect x="26" y="32" width="11" height="6"></rect><path d="M39,20v2a5,5,0,0,0-5,5,4.924,4.924,0,0,0,1.03,3H25a1,1,0,0,0-1,1v8a1,1,0,0,0,1,1h1V60H14V20Z"></path><path d="M36,27a3,3,0,0,0,3,3V24A3,3,0,0,0,36,27Z"></path><rect x="28" y="40" width="10" height="20"></rect><rect x="39" y="32" width="8" height="6"></rect><rect x="40" y="40" width="6" height="20"></rect><path d="M34,18h2V11a9.01,9.01,0,0,0-9-9H25a8.949,8.949,0,0,0-3.5.708A8.949,8.949,0,0,0,18,2H16a9.01,9.01,0,0,0-9,9v7H9V11a7.008,7.008,0,0,1,7-7h2a6.973,6.973,0,0,1,1.217.113A8.982,8.982,0,0,0,16,11v7h2V11a7,7,0,0,1,3.5-6.053A7,7,0,0,1,25,11v7h2V11a8.982,8.982,0,0,0-3.217-6.887A6.973,6.973,0,0,1,25,4h2a7.008,7.008,0,0,1,7,7Z"></path><path d="M52,27a4.941,4.941,0,0,1-1,3H47a3,3,0,1,0-3-3v3H42V27a3.009,3.009,0,0,0-3-3V22a4.994,4.994,0,0,1,4,2.03A4.985,4.985,0,0,1,52,27Z"></path></g></svg>