<svg xmlns="http://www.w3.org/2000/svg" viewBox="0 0 64 64" x="0px" y="0px"><title>Banana</title><g><path d="M32,54a1,1,0,0,0,0,2,5.006,5.006,0,0,0,5-5,1,1,0,0,0-2,0A3,3,0,0,1,32,54Z"></path><path d="M54.36,38.681a19.175,19.175,0,0,0-7.1-7.109A19.533,19.533,0,0,0,41,29.294V11a9,9,0,0,0-18,0V29.294a19.509,19.509,0,0,0-6.258,2.278,19.175,19.175,0,0,0-7.1,7.109C8.114,41.417,7.731,43.966,8.617,45.5a1,1,0,0,0,1.366.366L23,38.351V51a8.988,8.988,0,0,0,6.051,8.5,2.989,2.989,0,0,0,5.9-.022,9.109,9.109,0,0,0,3.419-2.116A8.982,8.982,0,0,0,41,51V38.351l13.017,7.515a1,1,0,0,0,1.366-.366C56.269,43.966,55.886,41.417,54.36,38.681ZM25,11a7,7,0,0,1,14,0V29.05c-2.962-.209-5.554.344-7,1.487-1.447-1.142-4.039-1.7-7-1.487ZM11.386,39.656a17.387,17.387,0,0,1,14.842-8.681,8.84,8.84,0,0,1,4.121.824l-20.2,11.662A8.6,8.6,0,0,1,11.386,39.656ZM39,51a6.987,6.987,0,0,1-2.043,4.949,7.091,7.091,0,0,1-3.223,1.832h0A7,7,0,0,1,25,51V37.2l7-4.041L39,37.2ZM33.651,31.8c2.125-1.195,7.58-1.4,12.607,1.506a17.1,17.1,0,0,1,6.356,6.352,8.6,8.6,0,0,1,1.237,3.805Z"></path><path d="M35.29,48.71A1.052,1.052,0,0,0,36,49a.838.838,0,0,0,.38-.08.9.9,0,0,0,.54-.54A.838.838,0,0,0,37,48a1.052,1.052,0,0,0-.29-.71,1.155,1.155,0,0,0-.33-.21,1.021,1.021,0,0,0-1.09.21A1.052,1.052,0,0,0,35,48a1,1,0,0,0,.08.38A1.155,1.155,0,0,0,35.29,48.71Z"></path></g></svg>