<svg xmlns="http://www.w3.org/2000/svg" viewBox="0 0 32 32" x="0px" y="0px"><title>File Plus_13</title><g data-name="File Plus"><path d="M27.99,7.945a.95.95,0,0,0-.04-.223.83.83,0,0,0-.027-.094.994.994,0,0,0-.164-.278l-6-7a.981.981,0,0,0-.306-.232c-.03-.015-.059-.026-.091-.039a1,1,0,0,0-.311-.068C21.033.01,21.018,0,21,0H5A1,1,0,0,0,4,1V31a1,1,0,0,0,1,1H19V30H6V2H8V8a1,1,0,0,0,1.707.707L11,7.414l1.293,1.293A1,1,0,0,0,13,9a.987.987,0,0,0,.383-.076A1,1,0,0,0,14,8V2h6V8a1,1,0,0,0,1,1h5v8h2V8C28,7.981,27.991,7.964,27.99,7.945ZM12,5.586l-.293-.293a1,1,0,0,0-1.414,0L10,5.586V2h2ZM22,3.7,24.826,7H22Z"></path><polygon points="26.566 21.747 24.727 23.586 22.889 21.747 21.475 23.161 23.313 25 21.475 26.839 22.889 28.253 24.727 26.414 26.566 28.253 27.98 26.839 26.141 25 27.98 23.161 26.566 21.747"></polygon></g></svg>