<svg xmlns="http://www.w3.org/2000/svg" viewBox="0 0 64 64" x="0px" y="0px"><g><path d="M31,48.026V16a3,3,0,0,0-3-3H8V47H28A4.948,4.948,0,0,1,31,48.026ZM24,40H12V38H24Zm0-6H12V32H24Zm0-6H12V26H24Zm0-6H12V20H24Z"></path><path d="M36,49a3.006,3.006,0,0,0-2.829,2H56V49Z"></path><path d="M47.343,32.649a8.151,8.151,0,0,1-.957.222c-.125.021-.251.037-.378.053-.256.031-.514.051-.772.058-.079,0-.156.018-.236.018s-.156-.016-.236-.018c-.258-.007-.516-.027-.772-.058-.127-.016-.252-.032-.377-.053a7.853,7.853,0,0,1-.962-.224c-.067-.02-.132-.046-.2-.069-.152-.05-.306-.1-.454-.158v4.962L44.553,36.1a1,1,0,0,1,.894,0L48,37.382V32.42c-.146.059-.3.106-.446.156C47.483,32.6,47.414,32.627,47.343,32.649Z"></path><rect x="58" y="17" width="2" height="34"></rect><path d="M8,51H30.829A3.006,3.006,0,0,0,28,49H8Z"></path><rect x="4" y="17" width="2" height="34"></rect><circle cx="45" cy="25" r="2"></circle><path d="M33,16V48.026A4.948,4.948,0,0,1,36,47H56V13H36A3,3,0,0,0,33,16Zm12,1a7.985,7.985,0,0,1,5,14.223V39a1,1,0,0,1-1.447.9L45,38.118,41.447,39.9A1,1,0,0,1,40,39V31.224A7.986,7.986,0,0,1,45,17Z"></path><path d="M41.569,29.918a5.71,5.71,0,0,0,1.638.8,6.086,6.086,0,0,0,5.215-.792,6,6,0,1,0-6.853-.006ZM45,21a4,4,0,1,1-4,4A4,4,0,0,1,45,21Z"></path></g></svg>