<svg xmlns="http://www.w3.org/2000/svg" viewBox="0 0 64 64" x="0px" y="0px"><g><path d="M57,11a.952.952,0,0,0-.288-.693A.975.975,0,0,0,56,10a1,1,0,0,0-1,1V48h2Z"></path><rect x="55" y="50" width="2" height="2"></rect><rect x="55" y="54" width="2" height="2"></rect><rect x="55" y="58" width="2" height="2"></rect><rect x="59" y="16" width="1" height="2"></rect><path d="M9,11a.952.952,0,0,0-.288-.693A.975.975,0,0,0,8,10a1,1,0,0,0-1,1V48H9Z"></path><rect x="4" y="16" width="1" height="2"></rect><rect x="7" y="50" width="2" height="2"></rect><rect x="11" y="16" width="42" height="2"></rect><rect x="7" y="54" width="2" height="2"></rect><rect x="7" y="58" width="2" height="2"></rect><polygon points="41.44 44 38.76 44 32 36.5 25.24 44 22.56 44 31 34.62 31 20 33 20 33 34.62 41.44 44"></polygon><path d="M43,54a1,1,0,0,0,1-1H43a1,1,0,0,1,0-2h1V49H43a1,1,0,0,1,0-2h1a1,1,0,0,0-1-1H41v1a1,1,0,0,1-2,0V46H37v1a1,1,0,0,1-2,0V46H33v1a1,1,0,0,1-2,0V46H29v1a1,1,0,0,1-2,0V46H25v1a1,1,0,0,1-2,0V46H21a1,1,0,0,0-1,1h1a1,1,0,0,1,0,2H20v2h1a1,1,0,0,1,0,2H20a1,1,0,0,0,1,1h2V53a1,1,0,0,1,2,0v1h2V53a1,1,0,0,1,2,0v1h2V53a1,1,0,0,1,2,0v1h2V53a1,1,0,0,1,2,0v1h2V53a1,1,0,0,1,2,0v1Z"></path></g></svg>