<svg xmlns="http://www.w3.org/2000/svg" viewBox="0 0 64 64" x="0px" y="0px"><g><path d="M61.74,12.33l-9-10A1,1,0,0,0,52,2H27a5,5,0,0,0-5,5V22H5a3.009,3.009,0,0,0-3,3V59a3.009,3.009,0,0,0,3,3H27a3.009,3.009,0,0,0,3-3V54H57a5,5,0,0,0,5-5V13A.971.971,0,0,0,61.74,12.33ZM53,5.61,58.75,12H54a1,1,0,0,1-1-1ZM28,59a1,1,0,0,1-1,1H5a1,1,0,0,1-1-1V25a1,1,0,0,1,1-1H27a1,1,0,0,1,1,1ZM60,49a3.009,3.009,0,0,1-3,3H30V25a3.009,3.009,0,0,0-3-3H24V7a3.009,3.009,0,0,1,3-3H51v7a3.009,3.009,0,0,0,3,3h6Z"></path><path d="M36.553,27.105l.894,1.79,14.012-7.006-.719,2.682,1.932.518,1.294-4.83a1,1,0,0,0-.707-1.225l-4.83-1.294-.518,1.932,2.285.612Z"></path><path d="M56,38v2H33a1,1,0,0,1-1-1V17h2V38h2V33h2v5h2V31h2v7h2V33h2v5h2V29h2v9h2V27h2V38Z"></path><rect x="34" y="42" width="16" height="2"></rect><rect x="34" y="46" width="16" height="2"></rect><rect x="28" y="12" width="16" height="2"></rect><rect x="28" y="8" width="2" height="2"></rect><rect x="32" y="8" width="12" height="2"></rect><path d="M24,38H8a2,2,0,0,0-2,2V56a2,2,0,0,0,2,2H24a2,2,0,0,0,2-2V40A2,2,0,0,0,24,38Zm0,6H20V40h4ZM14,50V46h4v4Zm4,2v4H14V52Zm-6-2H8V46h4Zm2-6V40h4v4Zm6,2h4v4H20Zm-8-6v4H8V40ZM8,52h4v4H8Zm12,4V52h4v4Z"></path><path d="M24,26H8a2,2,0,0,0-2,2v6a2,2,0,0,0,2,2H24a2,2,0,0,0,2-2V28A2,2,0,0,0,24,26Zm0,8H8V28H24Z"></path><rect x="19" y="30" width="2" height="2"></rect><rect x="15" y="30" width="2" height="2"></rect><rect x="11" y="30" width="2" height="2"></rect></g></svg>