<svg xmlns="http://www.w3.org/2000/svg" viewBox="0 0 64 64" x="0px" y="0px"><g><path d="M57,2H7A5,5,0,0,0,2,7V57a5,5,0,0,0,5,5H57a5,5,0,0,0,5-5V7A5,5,0,0,0,57,2ZM49,60H24.74l-5.07-8.95a2,2,0,1,1,3.46-2.01l2,3.46a1.022,1.022,0,0,0,1.13.47A1,1,0,0,0,27,52V33a2.006,2.006,0,0,1,2-2,2.015,2.015,0,0,1,2,2V49a1,1,0,0,0,2,0V45a2.006,2.006,0,0,1,2-2,2.015,2.015,0,0,1,2,2v4a1,1,0,0,0,2,0V46a2.006,2.006,0,0,1,2-2,2.015,2.015,0,0,1,2,2v3a1,1,0,0,0,2,0V47a2.006,2.006,0,0,1,2-2,2.015,2.015,0,0,1,2,2ZM25,35.59l-2,2-9.19-9.2a5,5,0,1,1,7.07-7.06l1.41,1.41a1.008,1.008,0,0,0,1.42,0l1.41-1.41a5,5,0,1,1,7.07,7.06l-1.17,1.18A3.97,3.97,0,0,0,25,33ZM60,57a3.009,3.009,0,0,1-3,3H51V47a3.995,3.995,0,0,0-4-4,3.957,3.957,0,0,0-2.57.96,4.118,4.118,0,0,0-.6-.79A4,4,0,0,0,41,42a3.957,3.957,0,0,0-2.57.96,4.118,4.118,0,0,0-.6-.79A4,4,0,0,0,35,41a3.906,3.906,0,0,0-2,.56V33a3.972,3.972,0,0,0-.57-2.02l1.18-1.17a7,7,0,0,0-4.94-11.95h-.01a7,7,0,0,0-4.96,2.05l-.7.71-.7-.71a7,7,0,0,0-4.96-2.05h-.01a7,7,0,0,0-4.94,11.95l9.9,9.9a1.014,1.014,0,0,0,1.42,0L25,38.41v9.86l-.13-.23a3.977,3.977,0,0,0-3.47-2,3.925,3.925,0,0,0-2,.54,4.009,4.009,0,0,0-1.47,5.45L22.44,60H7a3.009,3.009,0,0,1-3-3V12H60Zm0-47H4V7A3.009,3.009,0,0,1,7,4H57a3.009,3.009,0,0,1,3,3Z"></path><rect x="8" y="6" width="2" height="2"></rect><rect x="12" y="6" width="2" height="2"></rect><rect x="16" y="6" width="2" height="2"></rect><rect x="44" y="19" width="10" height="2"></rect><rect x="40" y="19" width="2" height="2"></rect><rect x="40" y="23" width="14" height="2"></rect><rect x="40" y="27" width="14" height="2"></rect><rect x="40" y="31" width="14" height="2"></rect></g></svg>