<svg xmlns="http://www.w3.org/2000/svg" viewBox="0 0 64 64" x="0px" y="0px"><g data-name="Working Time"><circle cx="32" cy="32" r="1"></circle><path d="M44,31h1.949A14,14,0,0,0,33,18.051V20H31V18.051A14,14,0,0,0,18.051,31H20v2H18.051A14,14,0,0,0,31,45.949V44h2v1.949A14,14,0,0,0,45.949,33H44ZM32,35a2.965,2.965,0,0,1-1.285-.3l-4.008,4.008-1.414-1.414L29.3,33.285A2.951,2.951,0,0,1,29,32a3,3,0,0,1,2-2.816V22h2v7.184A2.993,2.993,0,0,1,32,35Z"></path><path d="M32,15A17,17,0,1,0,49,32,17.019,17.019,0,0,0,32,15Zm0,33A16,16,0,1,1,48,32,16.019,16.019,0,0,1,32,48Z"></path><path d="M61.535,27.051,58.9,29.689A27.193,27.193,0,0,0,36.151,5.317l-.3,1.977A25.174,25.174,0,0,1,56.855,29.441l-2.39-2.39-1.414,1.414,4.242,4.242a1,1,0,0,0,1.414,0l4.242-4.242Z"></path><path d="M7.145,34.559l2.39,2.39,1.414-1.414L6.707,31.293a1,1,0,0,0-1.414,0L1.051,35.535l1.414,1.414L5.1,34.311A27.2,27.2,0,0,0,27.847,58.683l.3-1.977A25.174,25.174,0,0,1,7.145,34.559Z"></path><path d="M34.231,56.9l2.391-2.851-1.531-1.285-3.857,4.6a1,1,0,0,0,.123,1.409l4.6,3.856,1.285-1.531L34.593,58.87a27.2,27.2,0,0,0,24.09-22.718l-1.977-.3A25.178,25.178,0,0,1,34.231,56.9Z"></path><path d="M29.769,7.1,27.378,9.954l1.531,1.285,3.857-4.6a1,1,0,0,0-.123-1.409l-4.6-3.856L26.761,2.909,29.407,5.13A27.2,27.2,0,0,0,5.317,27.848l1.977.3A25.178,25.178,0,0,1,29.769,7.1Z"></path></g></svg>