<svg xmlns="http://www.w3.org/2000/svg" viewBox="0 0 64 64" x="0px" y="0px"><g><path d="M46,26a2.006,2.006,0,0,0,2,2h4a2,2,0,0,0,0-4H48A2.006,2.006,0,0,0,46,26Z"></path><path d="M34,48H30a1,1,0,0,0,0,2h4a1,1,0,0,0,0-2Z"></path><path d="M48,40h4a2,2,0,0,0,0-4H48a2,2,0,0,0,0,4Z"></path><path d="M48,34h4a2,2,0,0,0,0-4H48a2,2,0,0,0,0,4Z"></path><path d="M48,46h4a2,2,0,0,0,0-4H48a2,2,0,0,0,0,4Z"></path><path d="M48,22V9a5,5,0,0,0-5-5H21a5,5,0,0,0-5,5V25.72l.86,1.44A14.993,14.993,0,0,1,19,34.88v1.45a12.047,12.047,0,0,1-1.71,6.19l-1.72-1.04A9.92,9.92,0,0,0,17,36.33V34.88a13.013,13.013,0,0,0-1.85-6.69l-1.01-1.68A1,1,0,0,1,14,26V18a2.006,2.006,0,0,0-2-2H10V47a1.033,1.033,0,0,1-.29.71L3,54.42V61H28.58l5.01-5H21a7.008,7.008,0,0,1-7-7V44h2v5a5,5,0,0,0,5,5H43a5,5,0,0,0,5-5V48a3.985,3.985,0,0,1-2.62-7,3.951,3.951,0,0,1,0-6,3.951,3.951,0,0,1,0-6A3.985,3.985,0,0,1,48,22ZM34,52H30a3,3,0,0,1,0-6h4a3,3,0,0,1,0,6ZM32,38A11,11,0,1,1,43,27,11.007,11.007,0,0,1,32,38Z"></path><path d="M32,18a9,9,0,1,0,9,9A9.014,9.014,0,0,0,32,18Zm6,12H35v3a1,1,0,0,1-1,1H30a1,1,0,0,1-1-1V30H26a1,1,0,0,1-1-1V25a1,1,0,0,1,1-1h3V21a1,1,0,0,1,1-1h4a1,1,0,0,1,1,1v3h3a1,1,0,0,1,1,1v4A1,1,0,0,1,38,30Z"></path><path d="M31,29v3h2V29a1,1,0,0,1,1-1h3V26H34a1,1,0,0,1-1-1V22H31v3a1,1,0,0,1-1,1H27v2h3A1,1,0,0,1,31,29Z"></path></g></svg>