<svg xmlns="http://www.w3.org/2000/svg" viewBox="0 0 64 64" x="0px" y="0px"><g><path d="M61.8,41.4l-12-16a1.041,1.041,0,0,0-1.6,0l-6.57,8.77L32.8,22.4a1.041,1.041,0,0,0-1.6,0L20.82,36.24l-7.01-9.82a.991.991,0,0,0-1.62,0l-10,14A1,1,0,0,0,3,42H16.5l-3.3,4.4A1,1,0,0,0,14,48H50a1,1,0,0,0,.8-1.6L48.25,43H61a1,1,0,0,0,.8-1.6ZM4.94,40l1.43-2H10V36H7.8l4.7-6.57L13.26,33H11v2h2.69l1.07,5Zm10.05-8.49,4.57,6.41L18,40H16.81ZM16,46l4.5-6H26V38H22l1.5-2H28V34H25l1.5-2H31V30H28l3.6-4.8L34.17,34H30v2h4.75l2.92,10Zm23.75,0L34.5,28,48,46Zm7-5-1.5-2H47V37H43.75l-.87-1.17L45,33h3V31H46.5l2.04-2.72L49.97,34H48v2h2.47l1.25,5Zm7.03,0L51.17,30.56,59,41Z"></path><rect x="28" y="38" width="4" height="2"></rect><rect x="26" y="42" width="8" height="2"></rect><rect x="22" y="42" width="2" height="2"></rect><rect x="2" y="50" width="21" height="2"></rect><rect x="27" y="50" width="9" height="2"></rect><rect x="42" y="50" width="16" height="2"></rect><rect x="32" y="54" width="14" height="2"></rect><rect x="12" y="54" width="16" height="2"></rect><rect x="23" y="58" width="16" height="2"></rect><path d="M39,20a6,6,0,1,0-6-6A6.006,6.006,0,0,0,39,20Zm0-10a4,4,0,1,1-4,4A4,4,0,0,1,39,10Z"></path></g></svg>