<svg xmlns="http://www.w3.org/2000/svg" viewBox="0 0 64 64" x="0px" y="0px"><g><path d="M32,8a5,5,0,1,0,5,5A5.006,5.006,0,0,0,32,8Zm0,8a3,3,0,1,1,3-3A3,3,0,0,1,32,16Z"></path><path d="M51.905,36.576A1,1,0,0,0,51,36H49V25H47V37a1,1,0,0,0,1,1h.865L46,41.438,43.135,38H44a1,1,0,0,0,1-1V25H43V36H41a1,1,0,0,0-.769,1.641l5,6a1,1,0,0,0,1.538,0l5-6A1,1,0,0,0,51.905,36.576Z"></path><path d="M23,36H21V25H19V37a1,1,0,0,0,1,1h.865L18,41.438,15.135,38H16a1,1,0,0,0,1-1V25H15V36H13a1,1,0,0,0-.769,1.641l5,6a1,1,0,0,0,1.538,0l5-6A1,1,0,0,0,23,36Z"></path><path d="M37,40H35V29H33V41a1,1,0,0,0,1,1h.865L32,45.438,29.135,42H30a1,1,0,0,0,1-1V29H29V40H27a1,1,0,0,0-.769,1.641l5,6a1,1,0,0,0,1.538,0l5-6A1,1,0,0,0,37,40Z"></path><path d="M60,51V20a5,5,0,0,0-5-5H51V4a1,1,0,0,0-1-1H14a1,1,0,0,0-1,1V15H9a5,5,0,0,0-5,5V51a2.006,2.006,0,0,0-2,2v3a5,5,0,0,0,5,5H57a5,5,0,0,0,5-5V53A2.006,2.006,0,0,0,60,51ZM51,17h4a3.009,3.009,0,0,1,3,3V51H56V21a2.006,2.006,0,0,0-2-2H51ZM49,5V9.91A5.992,5.992,0,0,1,44.09,5ZM15,5h4.91A5.992,5.992,0,0,1,15,9.91Zm0,6.93A8,8,0,0,0,21.93,5H42.07A8,8,0,0,0,49,11.93v2.14A8,8,0,0,0,42.07,21H21.93A8,8,0,0,0,15,14.07Zm34,4.16V21H44.09A5.992,5.992,0,0,1,49,16.09Zm-34,0A5.992,5.992,0,0,1,19.91,21H15ZM14,23H50a1,1,0,0,0,1-1V21h3V51H10V21h3v1A1,1,0,0,0,14,23ZM36,53v2H28V53ZM6,20a3.009,3.009,0,0,1,3-3h4v2H10a2.006,2.006,0,0,0-2,2V51H6ZM60,56a3.009,3.009,0,0,1-3,3H7a3.009,3.009,0,0,1-3-3V53H26v2a2.006,2.006,0,0,0,2,2h8a2.006,2.006,0,0,0,2-2V53H60Z"></path></g></svg>