<svg xmlns="http://www.w3.org/2000/svg" viewBox="0 0 64 64" x="0px" y="0px"><title>Financial Plan</title><g data-name="Financial Plan"><path d="M62,8V2H2V8H4V44H2v6H26v6H22v6H42V56H38V50H62V44H60V8ZM4,4H60V6H4ZM40,58v2H24V58Zm-4-2H28V50h8Zm24-8H4V46H60Zm-2-4H6V8H58Z"></path><path d="M44,30A10,10,0,1,0,34,20,10.011,10.011,0,0,0,44,30Zm7.931-11H45V12.069A8.008,8.008,0,0,1,51.931,19ZM43,12.069V21h8.931A8,8,0,1,1,43,12.069Z"></path><path d="M35,42H54V32H35Zm2-8H52v6H37Z"></path><rect x="8" y="12" width="2" height="2"></rect><rect x="12" y="12" width="18" height="2"></rect><rect x="8" y="16" width="22" height="2"></rect><rect x="8" y="20" width="22" height="2"></rect><rect x="8" y="24" width="16" height="2"></rect><rect x="8" y="28" width="22" height="2"></rect><rect x="8" y="32" width="22" height="2"></rect><rect x="8" y="36" width="22" height="2"></rect><rect x="8" y="40" width="20" height="2"></rect><rect x="26" y="24" width="4" height="2"></rect></g></svg>