<svg xmlns="http://www.w3.org/2000/svg" viewBox="0 0 64 64" x="0px" y="0px"><g data-name="avatar-man-young-account-profile"><path d="M46.92,37.32l-5.58-.75A4.974,4.974,0,0,0,38,34.1V32.21A11.029,11.029,0,0,0,42.95,24H43a3.985,3.985,0,0,0,2-7.44V9a5,5,0,0,0-5-5H38.31A10.954,10.954,0,0,0,25.69,4H24a5,5,0,0,0-5,5v7.56A3.986,3.986,0,0,0,21,24h.05A11.029,11.029,0,0,0,26,32.21V34.1a4.974,4.974,0,0,0-3.34,2.47l-5.58.75A7,7,0,0,0,11,44.25V61a1,1,0,0,0,1,1H52a1,1,0,0,0,1-1V44.25A7,7,0,0,0,46.92,37.32ZM19,60H13V55h6Zm7,0H21V48H19v5H13V44.25a5,5,0,0,1,4.34-4.95l4.69-.63c0,.11-.03.22-.03.33v5a1,1,0,0,0,2,0,1,1,0,0,1,2,0Zm0-18.83a3.026,3.026,0,0,0-2,0V39a3.014,3.014,0,0,1,2-2.83ZM40,39v2.17a3.026,3.026,0,0,0-2,0v-5A3.014,3.014,0,0,1,40,39Zm5-19a2.015,2.015,0,0,1-2,2V18A2.006,2.006,0,0,1,45,20ZM39,6h1a3.009,3.009,0,0,1,3,3v6a1,1,0,0,0-1-1,2.988,2.988,0,0,1-3-3ZM21,22a2.015,2.015,0,0,1-2-2,2.006,2.006,0,0,1,2-2Zm0-7V9a3.009,3.009,0,0,1,3-3h1v5a3.009,3.009,0,0,1-3,3A1,1,0,0,0,21,15Zm2,8V15.9A5.009,5.009,0,0,0,27,11V5.52a8.984,8.984,0,0,1,10,0V11a5.005,5.005,0,0,0,4,4.9V23a9,9,0,0,1-18,0ZM36,60H28V40.73a10.775,10.775,0,0,0,8,0Zm0-21.47a8.938,8.938,0,0,1-8,0V33.24a10.906,10.906,0,0,0,8,0ZM51,60H45V55h6Zm0-7H45V48H43V60H38V44a1,1,0,0,1,2,0,1,1,0,0,0,2,0V39c0-.11-.03-.22-.03-.33l4.69.63A5,5,0,0,1,51,44.25Z"></path><path d="M29,21h2a3,3,0,0,0-6,0h2a1,1,0,0,1,2,0Z"></path><path d="M33,21h2a1,1,0,0,1,2,0h2a3,3,0,0,0-6,0Z"></path><path d="M36.331,26.5l-1.732-1a3,3,0,0,1-5.2,0l-1.732,1a5,5,0,0,0,8.662,0Z"></path><rect x="28" y="10" width="8" height="2"></rect><rect x="29" y="6" width="6" height="2"></rect></g></svg>