<svg xmlns="http://www.w3.org/2000/svg" viewBox="0 0 64 64" x="0px" y="0px"><g><path d="M24.508,39.906l4.96,3.858-4.4-10.393a1,1,0,0,1,.1-.926l.837-1.255c-.324.06-.641.136-.954.223l-1.8,4.216,2.308,1.539a1,1,0,0,1,.152,1.539Z"></path><path d="M40.753,35.629l-1.8-4.216c-.313-.087-.63-.163-.954-.223l.837,1.255a1,1,0,0,1,.1.926l-4.4,10.393,4.96-3.858-1.2-1.2a1,1,0,0,1,.152-1.539Z"></path><polygon points="28.073 31.692 27.124 33.117 28.444 36.417 30.575 34.819 28.073 31.692"></polygon><path d="M32.5,9.045,40,9.8V5.8C38.27,5.291,33.6,4,32,4s-6.27,1.291-7.934,1.788l-.052,4L31.5,9.045A5.012,5.012,0,0,1,32.5,9.045Z"></path><path d="M41,16v2a1,1,0,0,0,0-2Z"></path><path d="M23.734,13.812C24.292,13.644,29.854,12,32,12s7.708,1.644,8.335,1.831l.414-1.951L32.3,11.035a3.134,3.134,0,0,0-.6,0l-8.45.845Z"></path><polygon points="35 29.649 35 27 29 27 29 29.649 32 33.399 35 29.649"></polygon><polygon points="36.876 33.117 35.927 31.692 33.425 34.819 35.556 36.417 36.876 33.117"></polygon><polygon points="34.763 38.322 32 36.25 29.237 38.322 32 44.538 34.763 38.322"></polygon><path d="M31,60V47.489l-8.614-6.7a1,1,0,0,1-.093-1.5l1.137-1.138-1.985-1.323a1,1,0,0,1-.364-1.226l1.3-3.048A10.994,10.994,0,0,0,17,42V60h4V42h2V60Z"></path><path d="M22,17a1,1,0,0,0,1,1V16A1,1,0,0,0,22,17Z"></path><path d="M47,60V42a10.994,10.994,0,0,0-5.385-9.442l1.3,3.048a1,1,0,0,1-.364,1.226L40.57,38.155l1.137,1.138a1,1,0,0,1-.093,1.5L33,47.489V60h8V42h2V60Z"></path><path d="M25,15.525V22a3,3,0,0,0,3,3h8a3,3,0,0,0,3-3V15.524A40.381,40.381,0,0,0,32,14,40.35,40.35,0,0,0,25,15.525Zm4.71,1.185a1.155,1.155,0,0,1-.33.21.99.99,0,0,1-1.3-1.3,1.155,1.155,0,0,1,.21-.33,1.047,1.047,0,0,1,1.42,0,1.155,1.155,0,0,1,.21.33A.838.838,0,0,1,30,16,.99.99,0,0,1,29.71,16.71Zm4.37-1.09a1.032,1.032,0,0,1,.21-.33,1.047,1.047,0,0,1,1.42,0,1.155,1.155,0,0,1,.21.33.99.99,0,0,1-.21,1.09,1.155,1.155,0,0,1-.33.21.99.99,0,0,1-1.3-1.3Z"></path></g></svg>