<svg xmlns="http://www.w3.org/2000/svg" viewBox="0 0 64 64" x="0px" y="0px"><g data-name="Magnifying Glass-Money"><path d="M28,28V26H5a1,1,0,0,1-1-1V13a1,1,0,0,1,1-1H31a1,1,0,0,1,1,1h2a3,3,0,0,0-3-3H5a3,3,0,0,0-3,3V25a3,3,0,0,0,3,3Z"></path><rect x="13.757" y="18" width="8.485" height="2" transform="translate(-8.163 18.293) rotate(-45)"></rect><rect x="20" y="20" width="2" height="2"></rect><rect x="14" y="16" width="2" height="2"></rect><path d="M59,15H33a3,3,0,0,0-3,3V30a3,3,0,0,0,3,3H59a3,3,0,0,0,3-3V18A3,3,0,0,0,59,15Zm1,15a1,1,0,0,1-1,1H33a1,1,0,0,1-1-1V18a1,1,0,0,1,1-1H59a1,1,0,0,1,1,1Z"></path><rect x="41.757" y="23" width="8.485" height="2" transform="translate(-3.497 39.556) rotate(-45)"></rect><rect x="48" y="25" width="2" height="2"></rect><rect x="42" y="21" width="2" height="2"></rect><rect x="43.757" y="45" width="8.485" height="2" transform="translate(-18.468 47.414) rotate(-45)"></rect><rect x="50" y="47" width="2" height="2"></rect><rect x="44" y="43" width="2" height="2"></rect><rect x="51.757" y="57" width="8.485" height="2" transform="translate(-24.61 56.586) rotate(-45)"></rect><rect x="58" y="59" width="2" height="2"></rect><rect x="52" y="55" width="2" height="2"></rect><rect x="3.757" y="41" width="8.485" height="2" transform="translate(-27.355 17.958) rotate(-45)"></rect><rect x="10" y="43" width="2" height="2"></rect><rect x="4" y="39" width="2" height="2"></rect><rect x="11.757" y="55" width="8.485" height="2" transform="translate(-34.912 27.716) rotate(-45)"></rect><rect x="18" y="57" width="2" height="2"></rect><rect x="12" y="53" width="2" height="2"></rect><path d="M32,4a19.077,19.077,0,0,1,16.459,9.5l1.73-1a21,21,0,0,0-32.08-5.25l1.325,1.5A18.971,18.971,0,0,1,32,4Z"></path><path d="M18.508,29.562l-1.8.876A17.005,17.005,0,0,0,43.245,35.75l-1.324-1.5a15,15,0,0,1-23.413-4.688Z"></path><path d="M24.562,7.709l.876,1.8A15.014,15.014,0,0,1,43.71,13.625l1.561-1.25A17.014,17.014,0,0,0,24.562,7.709Z"></path><path d="M36,48V43.617A20.819,20.819,0,0,0,48.8,35.6l-1.6-1.2A18.857,18.857,0,0,1,32,42,19.091,19.091,0,0,1,14.2,29.65l-1.873.7A21.1,21.1,0,0,0,28,43.6V48a3,3,0,0,0-3,3V61a1,1,0,0,0,1,1H38a1,1,0,0,0,1-1V51A3,3,0,0,0,36,48Zm-6-4.108c.661.064,1.327.108,2,.108s1.339-.039,2-.1V48H30ZM37,60H27V51a1,1,0,0,1,1-1h8a1,1,0,0,1,1,1Z"></path></g></svg>