<svg xmlns="http://www.w3.org/2000/svg" viewBox="0 0 64 64" x="0px" y="0px"><title>Download-Book</title><g><path d="M60,55H33V54a3,3,0,0,1,3-3H57a1,1,0,0,0,1-1V30H56V49H36a4.961,4.961,0,0,0-3,1.013V18a3,3,0,0,1,3-3h2V13H36a5,5,0,0,0-4,2,5,5,0,0,0-4-2H7a1,1,0,0,0-1,1v5H3a1,1,0,0,0-1,1V56a1,1,0,0,0,1,1H61a1,1,0,0,0,1-1V28H60ZM8,15H28a3,3,0,0,1,3,3V50.013A4.961,4.961,0,0,0,28,49H8ZM4,21H6V50a1,1,0,0,0,1,1H28a3,3,0,0,1,3,3v1H4Z"></path><rect x="12" y="23" width="14" height="2"></rect><rect x="12" y="31" width="14" height="2"></rect><rect x="12" y="39" width="14" height="2"></rect><rect x="38" y="39" width="14" height="2"></rect><path d="M51,29A11,11,0,1,0,40,18,11.013,11.013,0,0,0,51,29ZM51,9a9,9,0,1,1-9,9A9.01,9.01,0,0,1,51,9Z"></path><path d="M51,21a1,1,0,0,0,.707-.293l4.242-4.242-1.414-1.414L52,17.586V11H50v6.586l-2.535-2.535-1.414,1.414,4.242,4.242A1,1,0,0,0,51,21Z"></path><rect x="47" y="23" width="8" height="2"></rect></g></svg>