<svg xmlns="http://www.w3.org/2000/svg" viewBox="0 0 64 64" x="0px" y="0px"><g data-name="Warning Sign"><path d="M63.317,52.249,51.249,5.829l-.093-1.085A2.988,2.988,0,0,0,48.16,2H15.84a2.988,2.988,0,0,0-3,2.744l-4.65,54A3,3,0,0,0,11.18,62H52.82a3,3,0,0,0,2.986-3.255L55.569,56H60.41a3,3,0,0,0,2.907-3.751Zm-9.762,7.429A.985.985,0,0,1,52.82,60H11.18a.995.995,0,0,1-.993-1.084l4.649-54a1,1,0,0,1,1-.916H48.16a1,1,0,0,1,1,.915l4.649,54A.988.988,0,0,1,53.555,59.678Zm7.651-6.07a1,1,0,0,1-.8.392H55.4L52.272,17.716l9.11,35.037A.982.982,0,0,1,61.206,53.608Z"></path><path d="M22,13H42a3,3,0,0,0,0-6H22a3,3,0,0,0,0,6Zm0-4H42a1,1,0,0,1,0,2H22a1,1,0,0,1,0-2Z"></path><path d="M34.684,24.13a3,3,0,0,0-5.368,0L17.553,47.658A3,3,0,0,0,20.236,52H43.764a3,3,0,0,0,2.683-4.342Zm9.93,25.4a.984.984,0,0,1-.85.474H20.236a1,1,0,0,1-.894-1.447L31.105,25.025a1.031,1.031,0,0,1,1.79,0L44.658,48.553A.981.981,0,0,1,44.614,49.526Z"></path><path d="M29.9,39.233A2.02,2.02,0,0,0,31.9,41H32.1a2.02,2.02,0,0,0,2-1.767l.64-5.125a2.761,2.761,0,0,0-.671-2.172,2.854,2.854,0,0,0-4.146,0,2.761,2.761,0,0,0-.671,2.172Zm1.53-5.974a.766.766,0,0,1,1.334.6l-.641,5.125A.016.016,0,0,1,32.1,39l-.222-.015L31.24,33.86A.759.759,0,0,1,31.426,33.259Z"></path><path d="M32,42a3,3,0,1,0,3,3A3,3,0,0,0,32,42Zm0,4a1,1,0,1,1,1-1A1,1,0,0,1,32,46Z"></path></g></svg>