<svg xmlns="http://www.w3.org/2000/svg" viewBox="0 0 64 64" x="0px" y="0px"><g><path d="M53,8H49V7a1,1,0,0,0-1-1H38.816A2.966,2.966,0,0,0,39,5a3,3,0,0,0-6,0,2.966,2.966,0,0,0,.184,1H24a1,1,0,0,0-1,1V8H19a5.006,5.006,0,0,0-5,5V57a5.006,5.006,0,0,0,5,5H53a5.006,5.006,0,0,0,5-5V13A5.006,5.006,0,0,0,53,8ZM35,5a1,1,0,1,1,1,1A1,1,0,0,1,35,5ZM25,8H47v5a1,1,0,0,1-1,1H26a1,1,0,0,1-1-1Zm1,8H46a3,3,0,0,0,2.816-2H51a1,1,0,0,1,1,1V55a1,1,0,0,1-1,1H21a1,1,0,0,1-1-1V15a1,1,0,0,1,1-1h2.184A3,3,0,0,0,26,16ZM56,57a3,3,0,0,1-3,3H19a3,3,0,0,1-3-3V13a3,3,0,0,1,3-3h4v2H21a3,3,0,0,0-3,3V55a3,3,0,0,0,3,3H51a3,3,0,0,0,3-3V15a3,3,0,0,0-3-3H49V10h4a3,3,0,0,1,3,3Z"></path><rect x="35" y="19" width="2" height="2"></rect><rect x="39" y="19" width="2" height="2"></rect><rect x="31" y="19" width="2" height="2"></rect><path d="M9,17a3,3,0,0,0-3,3V52a1.012,1.012,0,0,0,.071.372l2,5a1,1,0,0,0,1.858,0l2-5A1.012,1.012,0,0,0,12,52V20A3,3,0,0,0,9,17Zm0,2a1,1,0,0,1,1,1v1H8V20A1,1,0,0,1,9,19ZM8,50V23h2V50Zm1,4.308L8.077,52H9.923Z"></path><path d="M41.293,38.707l1.414-1.414L41,35.586V33H39v3a1,1,0,0,0,.293.707Z"></path><path d="M41.707,40.293l-1.414,1.414.707.707V44h2V42a1,1,0,0,0-.293-.707Z"></path><path d="M22,37v5a1,1,0,0,0,.293.707L25,45.414V47a1,1,0,0,0,.758.97l3.467.867.827,2.479A1,1,0,0,0,31,52h3a1,1,0,0,0,.707-.293L36,50.414l1.293,1.293A1,1,0,0,0,38,52h3a1,1,0,0,0,.948-.684l.827-2.479,3.467-.867A1,1,0,0,0,47,47V45.414l2.707-2.707A1,1,0,0,0,50,42V37a1.006,1.006,0,0,0-.168-.555L48,33.7V30a1,1,0,0,0-.293-.707l-2-2A1,1,0,0,0,45,27H42.721l-.773-2.316A1,1,0,0,0,41,24H38a1,1,0,0,0-.707.293L36,25.586l-1.293-1.293A1,1,0,0,0,34,24H31a1,1,0,0,0-.948.684L29.279,27H27a1,1,0,0,0-.707.293l-2,2A1,1,0,0,0,24,30v3.7l-1.832,2.748A1.006,1.006,0,0,0,22,37ZM38.414,26h1.865l.577,1.73-1.563,1.563A1,1,0,0,0,39,30v1h2v-.586L42.414,29h2.172L46,30.414v3.172l-1.707,1.707A1,1,0,0,0,44,36v1h2v-.586l.845-.844L48,37.3v4.283l-1,1V41H45v5.219l-2.693.674L41,45.586V45H39v1a1,1,0,0,0,.293.707l1.563,1.563L40.279,50H38.414L37,48.586V27.414ZM24,37.3l1.155-1.733.845.844V37h2V36a1,1,0,0,0-.293-.707L26,33.586V30.414L27.414,29h2.172L31,30.414V31h2V30a1,1,0,0,0-.293-.707L31.144,27.73,31.721,26h1.865L35,27.414V48.586L33.586,50H31.721l-.577-1.73,1.563-1.563A1,1,0,0,0,33,46V45H31v.586l-1.307,1.307L27,46.219V41H25v1.586l-1-1Z"></path><path d="M32.707,36.707A1,1,0,0,0,33,36V33H31v2.586l-1.707,1.707,1.414,1.414Z"></path><path d="M31,42.414l.707-.707-1.414-1.414-1,1A1,1,0,0,0,29,42v2h2Z"></path></g></svg>