<svg xmlns="http://www.w3.org/2000/svg" viewBox="0 0 64 64" x="0px" y="0px"><g><path d="M46,5H38A13.015,13.015,0,0,0,25,18v2a1,1,0,0,0,1,1h1v2H22a2,2,0,0,0-2,2V60a2,2,0,0,0,2,2H42a2,2,0,0,0,2-2V25a2,2,0,0,0-2-2H37V21h1a1,1,0,0,0,1-1V18.274A7.976,7.976,0,0,0,45,21a1,1,0,0,0,0-2,6.006,6.006,0,0,1-5.91-5H46a1,1,0,0,0,1-1V6A1,1,0,0,0,46,5ZM42,60H22V25H42ZM35,23H29V21h6Zm2-4H27V18A11.013,11.013,0,0,1,38,7h3v5H38a1,1,0,0,0-1,1Zm8-7H43V7h2Z"></path><path d="M35,38a1,1,0,0,0-1-1H30a1,1,0,0,0-1,1v2H27a1,1,0,0,0-1,1v4a1,1,0,0,0,1,1h2v2a1,1,0,0,0,1,1h4a1,1,0,0,0,1-1V46h2a1,1,0,0,0,1-1V41a1,1,0,0,0-1-1H35Zm1,4v2H34a1,1,0,0,0-1,1v2H31V45a1,1,0,0,0-1-1H28V42h2a1,1,0,0,0,1-1V39h2v2a1,1,0,0,0,1,1Z"></path><rect x="52" y="9" width="4" height="2"></rect><rect x="49.95" y="4.05" width="4" height="2" transform="translate(11.645 38.213) rotate(-45)"></rect><rect x="50.95" y="12.95" width="2" height="4" transform="translate(4.649 41.121) rotate(-45.01)"></rect></g></svg>