<svg xmlns="http://www.w3.org/2000/svg" viewBox="0 0 64 64" x="0px" y="0px"><g><path d="M54,28.744V10a3,3,0,0,0-3-3H5a3,3,0,0,0-3,3V40a3,3,0,0,0,3,3H32.051A14.991,14.991,0,1,0,54,28.744ZM5,9H51a1,1,0,0,1,1,1v2.371L30.164,22.853a4.985,4.985,0,0,1-4.328,0L4,12.371V10A1,1,0,0,1,5,9ZM4,40V14.589L24.971,24.655a6.966,6.966,0,0,0,6.058,0L52,14.589V27.875A14.941,14.941,0,0,0,32.051,41H5A1,1,0,0,1,4,40ZM47,55A13,13,0,1,1,60,42,13.015,13.015,0,0,1,47,55Z"></path><rect x="10" y="47" width="2" height="2"></rect><rect x="14" y="47" width="10" height="2"></rect><path d="M8,36V34H6v2a3,3,0,0,0,3,3h2V37H9A1,1,0,0,1,8,36Z"></path><rect x="6" y="30" width="2" height="2"></rect><path d="M54.364,38.464a1,1,0,0,0-.293-.707l-2.829-2.828a1,1,0,0,0-1.414,0L47,37.757l-2.828-2.828a1,1,0,0,0-1.414,0l-2.829,2.828a1,1,0,0,0,0,1.414L42.758,42l-2.829,2.829a1,1,0,0,0,0,1.414l2.829,2.828a1,1,0,0,0,1.414,0L47,46.243l2.828,2.828a1,1,0,0,0,1.414,0l2.829-2.828a1,1,0,0,0,0-1.414L51.242,42l2.829-2.829A1,1,0,0,0,54.364,38.464Zm-5.243,2.829a1,1,0,0,0,0,1.414l2.829,2.829L50.535,46.95l-2.828-2.828a1,1,0,0,0-1.414,0L43.465,46.95,42.05,45.536l2.829-2.829a1,1,0,0,0,0-1.414L42.05,38.464l1.415-1.414,2.828,2.828a1,1,0,0,0,1.414,0l2.828-2.828,1.415,1.414Z"></path></g></svg>