<svg xmlns="http://www.w3.org/2000/svg" viewBox="0 0 64 64" x="0px" y="0px"><g><path d="M36.5,36.4l-1.833-.8A4,4,0,1,1,28.6,30.8l-1.2-1.6a6,6,0,1,0,9.1,7.2Z"></path><path d="M30,26.722V33a1,1,0,0,0,1,1h4.586l2.707,2.707,1.414-1.414-3-3A1,1,0,0,0,36,32H32V29.956h3v-2H32V26.722a2,2,0,1,0-2,0Z"></path><path d="M44,2H20a7.008,7.008,0,0,0-7,7V31.152l-6.238,10.8A16.893,16.893,0,0,0,4.586,52.332L5.673,62.11l1.987-.22L6.574,52.111a14.9,14.9,0,0,1,1.92-9.16L13,35.15V48.123l-.562.975,1.732,1,5-8.66a2,2,0,1,1,3.465,2l-3.5,6.062a1,1,0,0,0-.063.871l1.285,3.212A8.967,8.967,0,0,1,21,56.926v1.3a8.968,8.968,0,0,1-.664,3.393l1.852.754c.051-.124.087-.252.133-.377H44a7.008,7.008,0,0,0,7-7V9A7.008,7.008,0,0,0,44,2ZM20,4H44a5.006,5.006,0,0,1,5,5v1H15V9A5.006,5.006,0,0,1,20,4Zm1,27A11,11,0,1,1,32,42,11.013,11.013,0,0,1,21,31Zm3.366,13.438a3.951,3.951,0,0,0,.472-2.6,13.065,13.065,0,1,0-3.461-3.37,4,4,0,0,0-3.939,1.969L15,44.659V12H49V52H21.877l-.768-1.921ZM44,60H22.846A10.985,10.985,0,0,0,23,58.23v-1.3A10.954,10.954,0,0,0,22.6,54H49v1A5.006,5.006,0,0,1,44,60Z"></path><rect x="25" y="6" width="2" height="2"></rect><rect x="29" y="6" width="6" height="2"></rect><rect x="30" y="56" width="4" height="2"></rect><path d="M17,15v4h2V16h3V14H18A1,1,0,0,0,17,15Z"></path><rect x="17" y="21" width="2" height="2"></rect></g></svg>