<svg xmlns="http://www.w3.org/2000/svg" viewBox="0 0 64 64" x="0px" y="0px"><g><path d="M49,12H15V44.66l2.438-4.222a4,4,0,1,1,6.928,4L21.109,50.08,21.877,52H49ZM19,23H17V21h2Zm3-7H19v3H17V15a1,1,0,0,1,1-1h4ZM40,31.357a9.019,9.019,0,0,1-4.535,7.814l-2.969,1.7a1,1,0,0,1-.992,0l-2.969-1.7A9.019,9.019,0,0,1,24,31.357V24a1,1,0,0,1,1-1H39a1,1,0,0,1,1,1Z"></path><path d="M26,31.357a7.016,7.016,0,0,0,3.527,6.078L32,38.848l2.473-1.413A7.016,7.016,0,0,0,38,31.357V25H26Zm3.707-1.064L31,31.586l3.293-3.293,1.414,1.414-4,4a1,1,0,0,1-1.414,0l-2-2Z"></path><path d="M49,54H22.6a10.954,10.954,0,0,1,.4,2.926v1.3A11,11,0,0,1,22.846,60H44a5.006,5.006,0,0,0,5-5ZM34,58H30V56h4Z"></path><path d="M21,58.23v-1.3a8.963,8.963,0,0,0-.644-3.343l-1.285-3.211a1,1,0,0,1,.063-.872l3.5-6.062a2,2,0,1,0-3.464-2l-5,8.66-1.732-1L13,48.124V35.15l-4.506,7.8a14.9,14.9,0,0,0-1.92,9.16L7.561,61H20.555A8.962,8.962,0,0,0,21,58.23Z"></path><path d="M49,9a5.006,5.006,0,0,0-5-5H20a5.006,5.006,0,0,0-5,5v1H49ZM27,8H25V6h2Zm8,0H29V6h6Z"></path></g></svg>