<svg xmlns="http://www.w3.org/2000/svg" viewBox="0 0 64 64" x="0px" y="0px"><g data-name="Handbag"><path d="M17.37,27H18V23H15.2a5.032,5.032,0,0,0-4.7,3.3L4.244,43.5l.912.456L12.982,29.6A5,5,0,0,1,17.37,27Z"></path><polygon points="60 49.764 60 45.618 54 48.618 54 53 58.382 53 60 49.764"></polygon><path d="M52,53V48a1,1,0,0,1,.553-.9l4.5-2.25-7.792-14.3A3,3,0,0,0,46.63,29H17.37a3,3,0,0,0-2.633,1.56L6.946,44.855l4.5,2.25A1,1,0,0,1,12,48v5ZM23,42a1,1,0,0,1,1-1H40a1,1,0,0,1,1,1v6a1,1,0,0,1-1,1H24a1,1,0,0,1-1-1Z"></path><rect x="25" y="43" width="14" height="4"></rect><rect x="24" y="11" width="16" height="2"></rect><polygon points="4 49.764 5.618 53 10 53 10 48.618 4 45.618 4 49.764"></polygon><rect x="24" y="23" width="16" height="4"></rect><path d="M42,11.171V27h2V14A3.006,3.006,0,0,0,42,11.171Z"></path><path d="M20,27h2V11.171A3.006,3.006,0,0,0,20,14Z"></path><path d="M51.018,29.6,58.844,43.96l.912-.456L53.5,26.292A5.031,5.031,0,0,0,48.8,23H46v4h.63A5,5,0,0,1,51.018,29.6Z"></path></g></svg>