<svg xmlns="http://www.w3.org/2000/svg" viewBox="0 0 64 64" x="0px" y="0px"><g data-name="coffee cup-coffee mug-espresso-drink-coffee"><path d="M20,16h2a2.258,2.258,0,0,1,.759-1.681,4.208,4.208,0,0,0,0-5.968,2.245,2.245,0,0,1,0-3.366A4.168,4.168,0,0,0,24,2H22a2.261,2.261,0,0,1-.759,1.683,4.209,4.209,0,0,0,0,5.969,2.244,2.244,0,0,1,0,3.365A4.164,4.164,0,0,0,20,16Z"></path><path d="M28,16h2a2.258,2.258,0,0,1,.759-1.681,4.208,4.208,0,0,0,0-5.968,2.245,2.245,0,0,1,0-3.366A4.168,4.168,0,0,0,32,2H30a2.261,2.261,0,0,1-.759,1.683,4.209,4.209,0,0,0,0,5.969,2.244,2.244,0,0,1,0,3.365A4.164,4.164,0,0,0,28,16Z"></path><path d="M55.97,26.6A6.942,6.942,0,0,0,50.53,24H45V19a1,1,0,0,0-1-1H8a1,1,0,0,0-1,1V47a14.847,14.847,0,0,0,4.7,10.9A4.269,4.269,0,0,1,13,61a1,1,0,0,0,1,1H38a1,1,0,0,0,1-1,4.269,4.269,0,0,1,1.3-3.1A14.824,14.824,0,0,0,44.95,48h1.82a9.054,9.054,0,0,0,8.8-7.111l1.8-8.42A6.943,6.943,0,0,0,55.97,26.6ZM45,30h5.526a1,1,0,0,1,.977,1.209l-1.8,8.419A3.017,3.017,0,0,1,46.766,42H45ZM43,47a12.865,12.865,0,0,1-4.076,9.442A6.2,6.2,0,0,0,37.078,60H14.922a6.2,6.2,0,0,0-1.846-3.558A12.865,12.865,0,0,1,9,47V20H43ZM55.412,32.051l-1.8,8.418A7.042,7.042,0,0,1,46.77,46H45V44h1.766a5.027,5.027,0,0,0,4.89-3.953l1.8-8.418A3,3,0,0,0,50.526,28H45V26h5.53a5,5,0,0,1,4.882,6.051Z"></path></g></svg>