<svg xmlns="http://www.w3.org/2000/svg" viewBox="0 0 64 64" x="0px" y="0px"><g data-name="Time Management"><path d="M61.124,26.008l-6.09-.761a23.825,23.825,0,0,0-1.974-4.755l3.771-4.849a1,1,0,0,0-.082-1.321L49.678,7.251a1,1,0,0,0-1.322-.082L43.507,10.94a23.885,23.885,0,0,0-4.754-1.974l-.761-6.09A1,1,0,0,0,37,2H27a1,1,0,0,0-.992.876l-.761,6.09a23.894,23.894,0,0,0-4.755,1.974L15.643,7.169a1,1,0,0,0-1.321.082L7.251,14.322a1,1,0,0,0-.082,1.321l3.771,4.849a23.894,23.894,0,0,0-1.974,4.755l-6.09.761A1,1,0,0,0,2,27V37a1,1,0,0,0,.876.992l6.09.761a23.894,23.894,0,0,0,1.974,4.755L7.169,48.357a1,1,0,0,0,.082,1.321l7.071,7.071a1,1,0,0,0,1.321.082l4.849-3.771a23.894,23.894,0,0,0,4.755,1.974l.761,6.09A1,1,0,0,0,27,62H37V60H27.883l-.735-5.875a1,1,0,0,0-.738-.844A21.9,21.9,0,0,1,20.91,51a1,1,0,0,0-1.119.073L15.112,54.71,9.29,48.888l3.639-4.679A1,1,0,0,0,13,43.09a21.882,21.882,0,0,1-2.283-5.5,1,1,0,0,0-.844-.738L4,36.117V27.883l5.875-.735a1,1,0,0,0,.844-.738A21.9,21.9,0,0,1,13,20.91a1,1,0,0,0-.073-1.119L9.29,15.112,15.112,9.29l4.679,3.639A1,1,0,0,0,20.91,13a21.9,21.9,0,0,1,5.5-2.283,1,1,0,0,0,.738-.844L27.883,4h8.234l.735,5.875a1,1,0,0,0,.739.844A21.891,21.891,0,0,1,43.09,13a1,1,0,0,0,1.119-.073L48.888,9.29l5.823,5.822-3.64,4.679A1,1,0,0,0,51,20.91a21.857,21.857,0,0,1,2.284,5.5,1,1,0,0,0,.844.738L60,27.883V37h2V27A1,1,0,0,0,61.124,26.008Z"></path><rect x="31" y="8" width="2" height="2"></rect><rect x="14.737" y="14.736" width="2" height="2" transform="translate(-6.518 15.737) rotate(-45)"></rect><rect x="8" y="31" width="2" height="2"></rect><rect x="14.736" y="47.264" width="2" height="2" transform="translate(-29.518 25.263) rotate(-45)"></rect><rect x="54" y="31" width="2" height="2"></rect><rect x="47.264" y="14.737" width="2" height="2" transform="translate(3.013 38.745) rotate(-45.01)"></rect><path d="M29.884,49.877l.232-1.986A16,16,0,1,1,47.891,30.116l1.986-.232A18,18,0,1,0,29.884,49.877Z"></path><path d="M35,32a3,3,0,0,0-2-2.816V22H31v7.184A3,3,0,0,0,29.184,31H24v2h5.184A2.993,2.993,0,0,0,35,32Zm-4,0a1,1,0,1,1,1,1A1,1,0,0,1,31,32Z"></path><rect x="18" y="31" width="2" height="2"></rect><rect x="31" y="18" width="2" height="2"></rect><path d="M47,32A15,15,0,1,0,62,47,15.017,15.017,0,0,0,47,32ZM43,59.364V56H41v2.521a13.029,13.029,0,0,1-2-1.3V56.02a3.015,3.015,0,0,1,2.176-2.889l2.174-.62L46.4,54.8a1,1,0,0,0,1.2,0l3.049-2.289,2.175.621A3.013,3.013,0,0,1,55,56.02v1.206a13.029,13.029,0,0,1-2,1.3V56H51v3.364a12.9,12.9,0,0,1-8,0Zm7.34-17.918-.445-.892a1,1,0,0,0-.638-.52,1.01,1.01,0,0,0-.812.134l-1.488.992a4.987,4.987,0,0,1-2.773.84H43a4,4,0,0,1,8-.028A1,1,0,0,1,50.34,41.446ZM44.184,44a6.976,6.976,0,0,0,3.882-1.176l.548-.365A2.956,2.956,0,0,0,50,43.709V45a3,3,0,0,1-6,0V44ZM47,50a5,5,0,0,0,1-.1V51a.991.991,0,0,0,.345.74L47,52.75l-1.345-1.01A.991.991,0,0,0,46,51V49.9A5,5,0,0,0,47,50Zm9.945,5.356a5.016,5.016,0,0,0-3.57-4.148L50,50.244v-1.27A4.977,4.977,0,0,0,52,45V44a1,1,0,0,0,1-1V42a6,6,0,0,0-12,0v1a1,1,0,0,0,1,1v1a4.977,4.977,0,0,0,2,3.974v1.27l-3.374.964a5.016,5.016,0,0,0-3.571,4.148,13,13,0,1,1,19.89,0Z"></path><rect x="35" y="46" width="2" height="2"></rect><rect x="57" y="46" width="2" height="2"></rect></g></svg>