<svg xmlns="http://www.w3.org/2000/svg" viewBox="0 0 64 64" x="0px" y="0px"><g><circle cx="15" cy="28" r="1"></circle><path d="M57,18V28H55V14H36a3.009,3.009,0,0,0-3,3V49.03a4.538,4.538,0,0,1,.5-.36l1,1.73A3.008,3.008,0,0,0,33.18,52h1.67L38,44.79V39.82A3,3,0,0,1,39,34h6a3,3,0,0,1,1,5.82V40h5.53l2.52-9.39a1.026,1.026,0,0,1,.47-.61,1.055,1.055,0,0,1,.76-.1l2.9.78a1.017,1.017,0,0,1,.71,1.23L56.71,40H57a2.006,2.006,0,0,1,2,2v2a2.006,2.006,0,0,1-2,2v6h3V18ZM42,27H36V25h6Zm0-4H36V21h6Zm0-4H36V17h6Zm10,8H44V25h8Zm0-4H44V21h8Zm0-4H44V17h8Z"></path><path d="M28,14H9V48H28a4.971,4.971,0,0,1,3,1.01V17A3.009,3.009,0,0,0,28,14ZM12,34h4v2H12ZM28,44H12V42H28Zm0-4H12V38H28Zm0-4H18V34H28Zm-3-6a2.99,2.99,0,0,1-2.7-1.72l-4.4.43A2.994,2.994,0,1,1,15,25a3.5,3.5,0,0,1,.65.07l2.01-3.21A3,3,0,1,1,23,20a2.938,2.938,0,0,1-.55,1.72l1.73,2.41A2.76,2.76,0,0,1,25,24a3,3,0,0,1,0,6Z"></path><circle cx="20" cy="20" r="1"></circle><circle cx="25" cy="27" r="1"></circle><path d="M20,23a2.953,2.953,0,0,1-.648-.075l-2.014,3.218a2.963,2.963,0,0,1,.366.581l4.391-.438a2.994,2.994,0,0,1,.452-1l-1.727-2.41A2.965,2.965,0,0,1,20,23Z"></path><path d="M30.82,52H4V18H7V49a1,1,0,0,0,1,1H28A3.01,3.01,0,0,1,30.82,52Z"></path><path d="M40,40v5a.983.983,0,0,1-.084.4l-1.681,3.843a4.942,4.942,0,0,0,1.425.177,5.02,5.02,0,0,0,2-.361,6.878,6.878,0,0,1,2.668-.479,8.074,8.074,0,0,1,1.181.081L44.084,45.4A.983.983,0,0,1,44,45V40Z"></path><path d="M35.368,55.8A3,3,0,0,0,38.116,60h7.768a3,3,0,0,0,2.748-4.2l-2.093-4.785c-.073-.025-.152-.048-.225-.074a5.681,5.681,0,0,0-3.975,0,6.911,6.911,0,0,1-2.679.48,6.8,6.8,0,0,1-2.234-.328Z"></path><rect x="46" y="42" width="11" height="2"></rect><path d="M45,36H39a1,1,0,0,0,0,2h6a1,1,0,0,0,0-2Z"></path><polygon points="55.727 32.096 53.604 40 54.643 40 56.695 32.356 55.727 32.096"></polygon><path d="M54,58a1,1,0,0,0,1-1V54H53V52h2V50H53V48h2V46H46.529l3.935,9a4.984,4.984,0,0,1,.319,3Z"></path></g></svg>