<svg xmlns="http://www.w3.org/2000/svg" viewBox="0 0 64 64" x="0px" y="0px"><g data-name="Upload-Cloud"><path d="M60,32A12.01,12.01,0,0,1,48,44H33V35.41l2.54,2.54,1.41-1.41-4.24-4.25a1.008,1.008,0,0,0-1.42,0l-4.24,4.25,1.41,1.41L31,35.41V44H13a9,9,0,0,1-2.6-17.62.987.987,0,0,0,.71-.82A11.007,11.007,0,0,1,22,16c.16,0,.31.01.46.02l.2.01a.99.99,0,0,0,.95-.53,13.985,13.985,0,0,1,26.15,3.98.994.994,0,0,0,.77.79A12.053,12.053,0,0,1,60,32Z"></path><rect x="31" y="44" width="2" height="10"></rect></g></svg>