<svg xmlns="http://www.w3.org/2000/svg" viewBox="0 0 48 48" x="0px" y="0px"><title>Line-Gift Box</title><g data-name="Line-Gift Box"><path d="M17,34h2a1,1,0,0,0,0-2H17a1,1,0,0,0,0,2Z"></path><path d="M13,32H11a1,1,0,0,0,0,2h2a1,1,0,0,0,0-2Z"></path><path d="M5,34H7a1,1,0,0,0,0-2H5a1,1,0,0,0,0,2Z"></path><path d="M23,34h2a1,1,0,0,0,0-2H23a1,1,0,0,0,0,2Z"></path><path d="M29,34h2a1,1,0,0,0,0-2H29a1,1,0,0,0,0,2Z"></path><path d="M35,34h2a1,1,0,0,0,0-2H35a1,1,0,0,0,0,2Z"></path><path d="M43,32H41a1,1,0,0,0,0,2h2a1,1,0,0,0,0-2Z"></path><path d="M45,8H40V3.361A3,3,0,0,0,36.507.4L26.836,2.014a.941.941,0,0,0-.242.086A1.983,1.983,0,0,0,26,2H22a1.971,1.971,0,0,0-.593.1.969.969,0,0,0-.242-.086L11.493.4A3,3,0,0,0,8,3.361V8H3a3,3,0,0,0-3,3v6a3,3,0,0,0,2,2.816V43a5.006,5.006,0,0,0,5,5H41a5.006,5.006,0,0,0,5-5V19.816A3,3,0,0,0,48,17V11A3,3,0,0,0,45,8ZM28,3.847l8.835-1.472A1,1,0,0,1,38,3.361V8H28V3.847ZM26,4V8H22V4ZM10,3.361a.982.982,0,0,1,.354-.763.992.992,0,0,1,.81-.223L20,3.847V8H10ZM44,40H4V38H44Zm-3,6H7a3,3,0,0,1-3-3V42H44v1A3,3,0,0,1,41,46Zm5-29a1,1,0,0,1-1,1H15a1,1,0,0,0,0,2H44V36H4V20H5a1,1,0,0,0,0-2H3a1,1,0,0,1-1-1V11a1,1,0,0,1,1-1H45a1,1,0,0,1,1,1Z"></path><path d="M12,19a1,1,0,0,0-1-1H9a1,1,0,0,0,0,2h2A1,1,0,0,0,12,19Z"></path></g></svg>