<svg xmlns="http://www.w3.org/2000/svg" viewBox="0 0 64 64" x="0px" y="0px"><g data-name="Medical Assistance-Computer-Advise-Online-Hospital"><path d="M61,49H57.13a2.121,2.121,0,0,0,.13-.51l2.34-14A3,3,0,0,0,56.64,31H40.54a3.986,3.986,0,0,0-3.94,3.34L34.82,45H34V40.6a8.989,8.989,0,0,0-3.99-7.44,5.956,5.956,0,0,0,.75-9.82A4.068,4.068,0,0,0,31,22a4,4,0,0,0-3-3.87V15a9,9,0,0,0-18,0v3.13A4,4,0,0,0,7,22a4.174,4.174,0,0,0,.24,1.35,5.947,5.947,0,0,0,.75,9.81A8.989,8.989,0,0,0,4,40.6V46a4.924,4.924,0,0,0,1.03,3H3a1,1,0,0,0-1,1v4a1,1,0,0,0,1,1H5v6a1,1,0,0,0,1,1H58a1,1,0,0,0,1-1V55h2a1,1,0,0,0,1-1V50A1,1,0,0,0,61,49ZM56.64,33a1,1,0,0,1,.99,1.16l-2.34,14a.989.989,0,0,1-.98.84H40.18l2.67-16ZM38.57,34.67A1.989,1.989,0,0,1,40.54,33h.28L38.15,49H36.18ZM34.49,47l-.34,2H27a1,1,0,0,1-1-1V47ZM27,20a2.006,2.006,0,0,1,2,2,1.857,1.857,0,0,1-.05.34,6.45,6.45,0,0,0-.75-.22l-.4,1.96a3.991,3.991,0,0,1-.28,7.87L23,30.3V27.92A8.005,8.005,0,0,0,27,21ZM19,33a6.973,6.973,0,0,1-3.35-.81l.69-.25A.992.992,0,0,0,17,31V28.74a7.822,7.822,0,0,0,4,0V31a.992.992,0,0,0,.66.94l.69.25A6.973,6.973,0,0,1,19,33Zm2.81,1.58L19,38.33l-2.81-3.75a9.61,9.61,0,0,0,5.62,0ZM19,27a6,6,0,0,1-5.65-4h11.3A6,6,0,0,1,19,27Zm-6-6V16a10.362,10.362,0,0,0,4.39-1.08A8.622,8.622,0,0,1,21,14a3.279,3.279,0,0,1,2.4.8,5.392,5.392,0,0,0,1.6.9V21ZM19,8a7,7,0,0,1,6.9,5.89,3.448,3.448,0,0,1-1.3-.69A5.227,5.227,0,0,0,21,12a10.362,10.362,0,0,0-4.39,1.08A8.622,8.622,0,0,1,13,14a4.969,4.969,0,0,1-.91-.08A7,7,0,0,1,19,8ZM7,28a4.013,4.013,0,0,1,3.19-3.92l-.4-1.96a5.772,5.772,0,0,0-.74.22A1.857,1.857,0,0,1,9,22a2.006,2.006,0,0,1,2-2v1a8.005,8.005,0,0,0,4,6.92V30.3l-4.52,1.65A4.007,4.007,0,0,1,7,28ZM6,40.6a6.988,6.988,0,0,1,4.61-6.57l2.1-.76L18.2,40.6a1,1,0,0,0,1.6,0l5.49-7.33,2.1.76A6.988,6.988,0,0,1,32,40.6V45H28V40H26v5H25a1,1,0,0,0-1,1v2a3,3,0,0,0,.18,1H19.9A5.017,5.017,0,0,0,15,45H12V40H10v6a1,1,0,0,0,1,1h2v2H9a3.009,3.009,0,0,1-3-3ZM17.83,49H15V47A3.014,3.014,0,0,1,17.83,49ZM57,60H7V55H57Zm3-7H4V51H60Z"></path><path d="M49,44a3,3,0,1,0-3-3A3,3,0,0,0,49,44Zm0-4a1,1,0,1,1-1,1A1,1,0,0,1,49,40Z"></path><path d="M38.051,21.684A1,1,0,0,0,39,23a1.014,1.014,0,0,0,.316-.051L44.3,21.287A9.91,9.91,0,0,0,48,22a10.011,10.011,0,1,0-8.483-4.713ZM48,4a8,8,0,1,1-3.25,15.306.987.987,0,0,0-.723-.036l-3.446,1.149.987-2.961a1,1,0,0,0-.129-.888A7.994,7.994,0,0,1,48,4Z"></path><polygon points="47 15 49 15 49 13 51 13 51 11 49 11 49 9 47 9 47 11 45 11 45 13 47 13 47 15"></polygon><rect x="15" y="17" width="2" height="2"></rect><rect x="21" y="17" width="2" height="2"></rect></g></svg>