<svg xmlns="http://www.w3.org/2000/svg" viewBox="0 0 64 64" x="0px" y="0px"><title>Love</title><g><path d="M17.5,24A2.5,2.5,0,0,1,15,21.5H13a4.5,4.5,0,0,0,9,0H20A2.5,2.5,0,0,1,17.5,24Z"></path><path d="M43,2H29.391a19.913,19.913,0,0,0-18.34,12.555l-7,21.131A1,1,0,0,0,5,37h5v7a7.008,7.008,0,0,0,7,7h7V61a1,1,0,0,0,1,1H49a1,1,0,0,0,1-1V50.955A11.015,11.015,0,0,0,60,40V19A17.019,17.019,0,0,0,43,2ZM58,40a9.01,9.01,0,0,1-9,9,1,1,0,0,0-1,1V60H26V51h5V49H17a5.006,5.006,0,0,1-5-5V36a1,1,0,0,0-1-1H6.385l6.539-19.748A17.9,17.9,0,0,1,29.391,4H43A15.017,15.017,0,0,1,58,19Z"></path><path d="M47.3,7h0a7.109,7.109,0,0,0-5.087,2.129l-.747.756-.748-.756a7.209,7.209,0,0,0-10.164-.01,7.553,7.553,0,0,0-2.492,6.573c.959,7.312,12.422,13.9,12.91,14.177a1,1,0,0,0,.978.006c.489-.271,11.977-6.71,12.977-14.031a7.678,7.678,0,0,0-2.545-6.72A7.1,7.1,0,0,0,47.3,7Zm5.645,8.571c-.758,5.557-9.317,10.983-11.474,12.269-2.151-1.311-10.7-6.846-11.426-12.407a5.579,5.579,0,0,1,1.91-4.888A5.267,5.267,0,0,1,35.658,9a5.1,5.1,0,0,1,3.64,1.534l1.459,1.475a1.027,1.027,0,0,0,1.422,0l1.458-1.475A5.127,5.127,0,0,1,47.3,9h0a5.123,5.123,0,0,1,3.664,1.535l.01.01A5.714,5.714,0,0,1,52.948,15.571Z"></path></g></svg>