<svg xmlns="http://www.w3.org/2000/svg" viewBox="0 0 64 64" x="0px" y="0px"><g><path d="M40,45h1.949a9.945,9.945,0,0,0-2.211-5.324L38.364,41.05,36.95,39.636l1.374-1.374A9.942,9.942,0,0,0,33,36.051V38H31V36.051a9.942,9.942,0,0,0-5.324,2.211l1.374,1.374L25.636,41.05l-1.374-1.374A9.945,9.945,0,0,0,22.051,45H24v2H22.051a9.945,9.945,0,0,0,2.211,5.324l1.374-1.374,1.414,1.414-1.374,1.374A9.942,9.942,0,0,0,31,55.949V54h2v1.949a9.942,9.942,0,0,0,5.324-2.211L36.95,52.364l1.414-1.414,1.374,1.374A9.945,9.945,0,0,0,41.949,47H40Zm-7,1a1,1,0,0,1-.293.707l-3,3-1.414-1.414L31,45.586V40h2Z"></path><path d="M32,32A14,14,0,1,0,46,46,14.015,14.015,0,0,0,32,32Zm0,26A12,12,0,1,1,44,46,12.013,12.013,0,0,1,32,58Z"></path><path d="M57,15H50.414l2.293-2.293-1.414-1.414-4,4a1,1,0,0,0,0,1.414l4,4,1.414-1.414L50.414,17H57a3,3,0,0,1,3,3V42a3,3,0,0,1-3,3H50v2h7a5.006,5.006,0,0,0,5-5V20A5.006,5.006,0,0,0,57,15Z"></path><path d="M9.707,43.293,8.293,44.707,10.586,47H7a3,3,0,0,1-3-3V20a3,3,0,0,1,3-3H17V15H7a5.006,5.006,0,0,0-5,5V44a5.006,5.006,0,0,0,5,5h3.586L8.293,51.293l1.414,1.414,4-4a1,1,0,0,0,0-1.414Z"></path><rect x="6" y="31" width="2" height="2"></rect><rect x="6" y="27" width="2" height="2"></rect><rect x="6" y="23" width="2" height="2"></rect><rect x="6" y="35" width="2" height="2"></rect><rect x="56" y="31" width="2" height="2"></rect><rect x="56" y="27" width="2" height="2"></rect><rect x="56" y="23" width="2" height="2"></rect><rect x="56" y="35" width="2" height="2"></rect><rect x="56" y="39" width="2" height="2"></rect><rect x="6" y="39" width="2" height="2"></rect><path d="M30,3H28L26,6H24L23,7v3l-3,1v8l3,1v3l1,1h2l2,3h2l1-1V4ZM25,18a1.033,1.033,0,0,1-.29.71l-1,1-1.42-1.42.71-.7V16h2Zm0-4H23V12.41l-.71-.7,1.42-1.42,1,1A1.033,1.033,0,0,1,25,12Zm3.29,8.71-1-1A1.033,1.033,0,0,1,27,21V18h2v2.59l.71.7ZM29,9.41V12H27V9a1.033,1.033,0,0,1,.29-.71l1-1,1.42,1.42ZM41,10V7L40,6H38L36,3H34L33,4V26l1,1h2l2-3h2l1-1V20l3-1V11ZM37,21a1.033,1.033,0,0,1-.29.71l-1,1-1.42-1.42.71-.7V18h2Zm0-9H35V9.41l-.71-.7,1.42-1.42,1,1A1.033,1.033,0,0,1,37,9Zm3.29,7.71-1-1A1.033,1.033,0,0,1,39,18V16h2v1.59l.71.7Zm.71-7.3V14H39V12a1.033,1.033,0,0,1,.29-.71l1-1,1.42,1.42Z"></path></g></svg>