<svg xmlns="http://www.w3.org/2000/svg" viewBox="0 0 64 64" x="0px" y="0px"><title>Cocktail_12</title><g data-name="Cocktail"><path d="M55.546,14.92h0C55.057,8.9,54.332,4.649,54.094,3.253c-.03-.172-.05-.288-.058-.346a1,1,0,0,0-1-.907H10.96a1,1,0,0,0-1,.907c-.008.058-.028.174-.058.346C9.668,4.649,8.943,8.9,8.454,14.92,8.152,18.666,8,22.394,8,26c0,10,2.837,29.143,3.7,33.577A2.994,2.994,0,0,0,14.64,62H49.36A2.992,2.992,0,0,0,52.3,59.58C53.163,55.143,56,36,56,26,56,22.394,55.848,18.666,55.546,14.92ZM53.458,14H29a8.333,8.333,0,0,0-4.8-7.528c.211-.923.415-1.782.583-2.472H52.192C52.457,5.572,53.024,9.138,53.458,14ZM21.27,10.753a.982.982,0,0,0-.083.5c-.079.5-.139.949-.167,1.31l-1.727,1.727a.969.969,0,0,0-.242.446A5.656,5.656,0,0,1,19,14a6.152,6.152,0,0,1,2.621-5.088C21.489,9.554,21.369,10.178,21.27,10.753Zm-1.977,4.954a1,1,0,0,0,1.414,0l.579-.578a12.572,12.572,0,0,0,.819,2.318,1,1,0,0,0,1.79-.893,9.955,9.955,0,0,1-.869-3.114l1.267,1.267a1,1,0,0,0,1.414-1.414L23.28,10.866c.13-.721.294-1.535.473-2.374A6.238,6.238,0,0,1,27,14a5.977,5.977,0,0,1-.063.885A7.869,7.869,0,0,1,23,20.9a7.781,7.781,0,0,1-3.819-5.364A.963.963,0,0,0,19.293,15.707ZM11.808,4H22.726c-.15.622-.338,1.415-.535,2.283A8.389,8.389,0,0,0,17,14H10.542C10.976,9.138,11.543,5.573,11.808,4ZM49.36,60H14.64a.979.979,0,0,1-.978-.8c-.128-.656-.318-1.769-.545-3.2H50.883c-.227,1.431-.418,2.545-.546,3.2A.978.978,0,0,1,49.36,60Zm1.832-6H12.808C11.671,46.469,10,33.495,10,26c0-3.257.142-6.62.391-10h6.847a9.542,9.542,0,0,0,5.387,6.927,1,1,0,0,0,.75,0A9.535,9.535,0,0,0,28.763,16H53.609c.249,3.381.391,6.744.391,10C54,33.494,52.329,46.467,51.192,54Z"></path><path d="M35.329,42.307,27.6,40.236a1,1,0,0,0-1.225.707l-2.07,7.728a1,1,0,0,0,.707,1.225l7.727,2.07A1.013,1.013,0,0,0,33,52a1,1,0,0,0,.966-.741l2.07-7.728A1,1,0,0,0,35.329,42.307Zm-3.036,7.468-5.8-1.552,1.553-5.8,5.8,1.552Z"></path><path d="M28,38a1,1,0,0,0,.966-.741l2.07-7.728a1,1,0,0,0-.707-1.224L22.6,26.236a1,1,0,0,0-1.225.707l-2.07,7.728a1,1,0,0,0,.707,1.225l7.727,2.07A1.013,1.013,0,0,0,28,38Zm-6.5-3.777,1.553-5.8,5.8,1.552-1.553,5.8Z"></path><path d="M47,42H39a1,1,0,0,0-1,1v8a1,1,0,0,0,1,1h8a1,1,0,0,0,1-1V43A1,1,0,0,0,47,42Zm-1,8H40V44h6Z"></path><path d="M34.034,32.813a1,1,0,0,0,.1.759l4,6.928a1,1,0,0,0,1.366.366l6.928-4a1,1,0,0,0,.366-1.366l-4-6.928a1,1,0,0,0-1.366-.366l-6.928,4A1.008,1.008,0,0,0,34.034,32.813Zm7.528-2.375,3,5.2-5.2,3-3-5.2Z"></path><path d="M15.71,33.29a1.047,1.047,0,0,0-1.42,0,1.032,1.032,0,0,0-.21.33,1,1,0,1,0,1.84,0A1.032,1.032,0,0,0,15.71,33.29Z"></path><path d="M18.62,24.92a.943.943,0,0,0,.76,0,1.155,1.155,0,0,0,.33-.21,1.169,1.169,0,0,0,.21-.33A1,1,0,0,0,20,24a1.05,1.05,0,0,0-.29-.71,1.576,1.576,0,0,0-.15-.12.757.757,0,0,0-.18-.09.636.636,0,0,0-.18-.06.949.949,0,0,0-.58.06,1.155,1.155,0,0,0-.33.21A1.05,1.05,0,0,0,18,24a.99.99,0,0,0,.29.71A1.155,1.155,0,0,0,18.62,24.92Z"></path><path d="M34.62,26.92a.942.942,0,0,0,.76,0,1.155,1.155,0,0,0,.33-.21.99.99,0,0,0,.21-1.09,1.032,1.032,0,0,0-.21-.33,1,1,0,0,0-1.09-.21.9.9,0,0,0-.54.54.99.99,0,0,0,.21,1.09A1.155,1.155,0,0,0,34.62,26.92Z"></path><path d="M18.29,43.29A1.05,1.05,0,0,0,18,44a1,1,0,1,0,2,0,1,1,0,0,0-1.71-.71Z"></path><path d="M50.71,30.29a1.034,1.034,0,0,0-1.42,0A1.05,1.05,0,0,0,49,31a.99.99,0,0,0,.29.71,1.461,1.461,0,0,0,.33.22A1,1,0,0,0,50,32a.99.99,0,0,0,1-1A1.05,1.05,0,0,0,50.71,30.29Z"></path><path d="M44.29,21.71A.994.994,0,0,0,45,22a1,1,0,0,0,.38-.07,1.461,1.461,0,0,0,.33-.22,1.169,1.169,0,0,0,.21-.33.942.942,0,0,0,0-.76,1.032,1.032,0,0,0-.21-.33,1.155,1.155,0,0,0-.33-.21,1,1,0,0,0-1.09.21,1.032,1.032,0,0,0-.21.33.943.943,0,0,0,0,.76A1.169,1.169,0,0,0,44.29,21.71Z"></path></g></svg>