<svg xmlns="http://www.w3.org/2000/svg" viewBox="0 0 64 64" x="0px" y="0px"><title>Review-Rating-Monitor-Computer-Browser</title><g><path d="M21,59a1,1,0,0,0,1,1H42a1,1,0,0,0,0-2H22A1,1,0,0,0,21,59Z"></path><path d="M30.6,23.073l-.5,1.545,1.314-.955a1,1,0,0,1,1.176,0l1.314.955-.5-1.545a1,1,0,0,1,.363-1.118L35.078,21H33.453a1,1,0,0,1-.951-.691L32,18.764l-.5,1.545a1,1,0,0,1-.951.691H28.922l1.315.955A1,1,0,0,1,30.6,23.073Z"></path><path d="M58,40H6v3a3,3,0,0,0,3,3H55a3,3,0,0,0,3-3Zm-4,4H52V42h2Z"></path><polygon points="25.905 48 25.105 56 38.895 56 38.095 48 25.905 48"></polygon><path d="M13,33a1,1,0,0,0,1,1H50a1,1,0,0,0,1-1V12H13Zm36-8H45V23h4ZM41,15h8v2H41Zm0,4h8v2H41Zm0,4h2v2H41Zm0,4h8v2H41ZM24.894,19.691A1,1,0,0,1,25.845,19H29.82l1.229-3.781a1,1,0,0,1,1.9,0L34.18,19h3.975a1,1,0,0,1,.588,1.809l-3.216,2.337,1.228,3.781a1,1,0,0,1-1.539,1.118L32,25.708l-3.216,2.337a1,1,0,0,1-1.539-1.118l1.228-3.781-3.216-2.337A1,1,0,0,1,24.894,19.691ZM19,15h4v2H19Zm-4,0h2v2H15Zm0,4h8v2H15Zm0,4h8v2H15Zm0,4h8v2H15Z"></path><path d="M58,11a3,3,0,0,0-3-3H53V33a3,3,0,0,1-3,3H14a3,3,0,0,1-3-3V8H9a3,3,0,0,0-3,3V38H58Z"></path><path d="M51,5a1,1,0,0,0-1-1H14a1,1,0,0,0-1,1v5H51ZM17,8H15V6h2Zm4,0H19V6h2Zm4,0H23V6h2Z"></path></g></svg>