<svg xmlns="http://www.w3.org/2000/svg" viewBox="0 0 64 64" x="0px" y="0px"><g><path d="M21.369,45.382a2.115,2.115,0,0,0,1.437,2.209l20.206,7.354,5.733-1.936a1,1,0,0,1,.662.008l.941.341,3.42-9.4-6.28-2.286L34.163,44.025a2.014,2.014,0,0,0-1.533,1.288,1.293,1.293,0,0,0-.069.252,2.107,2.107,0,0,0-.021.79,2,2,0,0,0,2.317,1.614l11.257-1.985.348,1.969L35.2,49.938a4.013,4.013,0,0,1-4.635-3.245,4.337,4.337,0,0,1-.042-.549l-6.491-2.363a2.009,2.009,0,0,0-2.667,1.6Z"></path><rect x="48.816" y="48.028" width="14" height="4" transform="translate(-10.285 85.366) rotate(-69.999)"></rect><path d="M25,17h7a2,2,0,0,0,0-4H21V11H32a3.987,3.987,0,0,1,3.444,2h4.142L34.053,7.467A4.979,4.979,0,0,0,30.51,6H20.2L13.394,8.919A.985.985,0,0,1,13,9H12v8h1a1,1,0,0,1,1,1c0,1.514,2.477,3,5,3s5-1.486,5-3A1,1,0,0,1,25,17Z"></path><path d="M27,33H57a1,1,0,0,0,1-1V16a1,1,0,0,0-1-1H36a3.992,3.992,0,0,1-2.42,3.67l7.978,3.985a.987.987,0,0,0,.883,0l13.112-6.55.894,1.79-8.094,4.044,8.354,8.354-1.414,1.414-8.826-8.826-3.13,1.563a3,3,0,0,1-2.675,0l-3.129-1.563-8.826,8.826-1.414-1.414,8.354-8.354L29.764,19H26V32A1,1,0,0,0,27,33Z"></path><rect x="4" y="6" width="6" height="14"></rect></g></svg>