<svg xmlns="http://www.w3.org/2000/svg" viewBox="0 0 64 64" x="0px" y="0px"><title>Income</title><g><path d="M32,32a1,1,0,0,1,1,1h2a3,3,0,0,0-2-2.816V29H31v1.184A2.993,2.993,0,0,0,32,36a1,1,0,1,1-1,1H29a3,3,0,0,0,2,2.816V41h2V39.816A2.993,2.993,0,0,0,32,34a1,1,0,0,1,0-2Z"></path><path d="M61,10H55a1,1,0,0,0-1,1v.5l-.257-.17A2.013,2.013,0,0,0,52.65,11H32.83a2.987,2.987,0,0,0-2.127.883L19.983,22.6a3,3,0,0,0-.012,4.231l1.422,1.433a2.988,2.988,0,0,0,2.548.837A9.948,9.948,0,0,0,26.025,43H15a1,1,0,0,0-.707.293l-2.934,2.934L9.867,43.642A1,1,0,0,0,8.5,43.274l-5.2,3a1,1,0,0,0-.366,1.366l8,13.86a1,1,0,0,0,1.365.366l5.2-3a1,1,0,0,0,.367-1.365l-.29-.5H40.171a2.978,2.978,0,0,0,2.122-.879L53.012,45.4a3.015,3.015,0,0,0,.008-4.247l-1.411-1.42a2.971,2.971,0,0,0-2.119-.882h-.005a2.974,2.974,0,0,0-2.117.875L38.1,49H38V45a1.987,1.987,0,0,0-.72-1.524A9.922,9.922,0,0,0,41.146,31H49.31a3.031,3.031,0,0,0,1.844-.631L54,28.155V29a1,1,0,0,0,1,1h6a1,1,0,0,0,1-1V11A1,1,0,0,0,61,10ZM34,25v.21a9.872,9.872,0,0,0-5.881.574L34.9,19H47a1,1,0,0,1,1,1v2a1,1,0,0,1-1,1H36A2,2,0,0,0,34,25ZM12.166,59.634l-7-12.128,3.466-2,7,12.126ZM36,45v4H27v2H38.51a1,1,0,0,0,.707-.293l9.566-9.565a.985.985,0,0,1,.7-.289h0a.983.983,0,0,1,.7.292l1.41,1.419a1.01,1.01,0,0,1,0,1.424L40.879,54.707a1,1,0,0,1-.708.293H16.427l-4.033-6.98L15.414,45Zm4-10a8,8,0,1,1-8-8,7.845,7.845,0,0,1,2,.255V29a2,2,0,0,0,2,2h2.926A7.943,7.943,0,0,1,40,35Zm9.929-6.212A1,1,0,0,1,49.31,29H36V25H47a3,3,0,0,0,3-3V20a3,3,0,0,0-3-3H34.9a2,2,0,0,0-1.407.583l-9.27,9.27a1,1,0,0,1-1.413,0l-1.423-1.432a1,1,0,0,1,.01-1.406L32.117,13.3a1,1,0,0,1,.713-.3l19.819,0L54,13.9V25.621ZM60,28H56V12h4Z"></path></g></svg>