<svg xmlns="http://www.w3.org/2000/svg" viewBox="0 0 64 64" x="0px" y="0px"><g><path d="M59,16H5a3,3,0,0,0-3,3v4a2.994,2.994,0,0,0,2.087,2.843L7.907,60.22A2,2,0,0,0,9.9,62H54.1a2,2,0,0,0,1.989-1.779l3.82-34.378A2.994,2.994,0,0,0,62,23V19A3,3,0,0,0,59,16ZM56.732,36.357c-1.4.907-2.274,2.564-3.115,4.178C52.391,42.891,51.535,44.32,50,44.32s-2.4-1.43-3.624-3.786c-1.186-2.275-2.53-4.854-5.386-4.854s-4.2,2.581-5.386,4.858c-1.226,2.354-2.082,3.782-3.614,3.782s-2.387-1.428-3.613-3.782c-1.186-2.277-2.53-4.858-5.387-4.858s-4.2,2.583-5.387,4.862C16.38,42.893,15.526,44.32,14,44.32s-2.391-1.429-3.617-3.785c-.841-1.614-1.712-3.271-3.115-4.177L6.117,26H57.883ZM54.105,60H9.9L7.64,39.705c.338.547.656,1.153.968,1.754C9.8,43.737,11.141,46.32,14,46.32s4.192-2.579,5.377-4.855c1.225-2.356,2.08-3.785,3.613-3.785s2.388,1.428,3.614,3.782c1.185,2.277,2.53,4.858,5.386,4.858s4.2-2.581,5.387-4.858c1.226-2.354,2.081-3.782,3.613-3.782s2.387,1.427,3.613,3.779c1.188,2.278,2.535,4.861,5.4,4.861s4.2-2.583,5.392-4.861c.312-.6.63-1.207.968-1.755ZM60,23a1,1,0,0,1-1,1H5a1,1,0,0,1-1-1V19a1,1,0,0,1,1-1H59a1,1,0,0,1,1,1Z"></path></g></svg>