<svg xmlns="http://www.w3.org/2000/svg" viewBox="0 0 64 64" x="0px" y="0px"><title>Online-payment</title><g><rect x="27" y="56" width="2" height="2"></rect><rect x="16" y="6" width="2" height="2"></rect><rect x="20" y="6" width="6" height="2"></rect><path d="M41,29a1,1,0,0,1,1,1h2a3,3,0,0,0-2-2.816V26H40v1.184A2.993,2.993,0,0,0,41,33a1,1,0,1,1-1,1H38a3,3,0,0,0,2,2.816V38h2V36.816A2.993,2.993,0,0,0,41,31a1,1,0,0,1,0-2Z"></path><rect x="45" y="31" width="2" height="2"></rect><rect x="35" y="31" width="2" height="2"></rect><path d="M55.707,45.293,51.464,41.05,50.05,42.464,52.586,45H46V39.453a8.943,8.943,0,0,0,0-14.906V19h9V17H46V7a5.006,5.006,0,0,0-5-5H15a5.006,5.006,0,0,0-5,5V57a5.006,5.006,0,0,0,5,5H41a5.006,5.006,0,0,0,5-5V47h6.586L50.05,49.536l1.414,1.414,4.243-4.243A1,1,0,0,0,55.707,45.293ZM48,32a6.993,6.993,0,0,1-3.508,6.059A6.882,6.882,0,0,1,41,39a7,7,0,0,1,0-14,6.882,6.882,0,0,1,3.5.948A6.985,6.985,0,0,1,48,32ZM15,4H41a3,3,0,0,1,3,3v3H12V7A3,3,0,0,1,15,4ZM41,60H15a3,3,0,0,1-3-3V54H44v3A3,3,0,0,1,41,60Zm3-8H12V12H44v5H37.414l2.536-2.536L38.536,13.05l-4.243,4.243a1,1,0,0,0,0,1.414l4.243,4.243,1.414-1.414L37.414,19H44v4.515c-.186-.067-.377-.121-.568-.175-.039-.011-.076-.025-.114-.035a8.955,8.955,0,0,0-1.016-.2c-.082-.012-.163-.022-.245-.031A8.85,8.85,0,0,0,41,23a9,9,0,1,0,1.056,17.931c.083-.01.165-.02.247-.032a9.023,9.023,0,0,0,1.01-.2c.044-.012.087-.028.131-.041.187-.052.374-.106.556-.171V45H35v2h9Z"></path></g></svg>