<svg xmlns="http://www.w3.org/2000/svg" viewBox="0 0 64 64" x="0px" y="0px"><g><path d="M32.719,48.008c-.876-2.744-3.814-13.719,2.464-20.734a18.142,18.142,0,0,0,8.434,2.418,10.67,10.67,0,0,0,5.409-1.4c7.238-4.179,9.384-14.656,9.472-15.1a1,1,0,0,0-.659-1.14c-.428-.148-10.575-3.527-17.813.652-5.81,3.355-6.067,11.005-6.038,12.914a17.15,17.15,0,0,0-4.35,8.729c-.2-.242-.409-.481-.627-.711.032-1.874-.206-9.565-6.037-12.932-7.238-4.177-17.384-.8-17.813-.652a1,1,0,0,0-.659,1.14c.088.444,2.234,10.921,9.472,15.1a10.67,10.67,0,0,0,5.409,1.4,18.135,18.135,0,0,0,8.421-2.41,14.061,14.061,0,0,1,1.475,1.95,32.045,32.045,0,0,0,1.342,10.783C14.464,48.317,2,53.911,2,61a1,1,0,0,0,1,1H61a1,1,0,0,0,1-1C62,53.815,49.2,48.168,32.719,48.008Zm8.307-33.57c5.309-3.066,12.774-1.436,15.3-.749-.663,2.528-2.978,9.8-8.3,12.873-3.929,2.267-8.64.56-10.989-.584l7.123-4.112-1-1.732-7.123,4.112C36.22,21.64,37.1,16.707,41.026,14.438ZM14.974,34.562C9.665,31.5,7.342,24.217,6.677,21.688c2.519-.691,9.976-2.321,15.3.75,3.93,2.27,4.806,7.2,4.989,9.808L19.84,28.134l-1,1.732,7.126,4.114C23.622,35.127,18.918,36.84,14.974,34.562ZM4.121,60C5.455,54.485,17.68,50,32,50s26.545,4.485,27.879,10Z"></path></g></svg>