<svg xmlns="http://www.w3.org/2000/svg" viewBox="0 0 64 64" x="0px" y="0px"><g data-name="Park"><path d="M12,22a4,4,0,1,0-4-4A4,4,0,0,0,12,22Zm0-6a2,2,0,1,1-2,2A2,2,0,0,1,12,16Z"></path><path d="M12,12a1,1,0,0,0,1-1V9a1,1,0,0,0-2,0v2A1,1,0,0,0,12,12Z"></path><path d="M6.343,13.757a1,1,0,1,0,1.414-1.414L6.343,10.929a1,1,0,1,0-1.414,1.414Z"></path><path d="M3,19H5a1,1,0,0,0,0-2H3a1,1,0,0,0,0,2Z"></path><path d="M6.343,22.243,4.929,23.657a1,1,0,1,0,1.414,1.414l1.414-1.414a1,1,0,0,0-1.414-1.414Z"></path><path d="M11,25v2a1,1,0,0,0,2,0V25a1,1,0,0,0-2,0Z"></path><path d="M16.243,22.243a1,1,0,0,0,0,1.414l1.414,1.414a1,1,0,0,0,1.414-1.414l-1.414-1.414A1,1,0,0,0,16.243,22.243Z"></path><path d="M18,18a1,1,0,0,0,1,1h2a1,1,0,0,0,0-2H19A1,1,0,0,0,18,18Z"></path><path d="M16.95,14.05a1,1,0,0,0,.707-.293l1.414-1.414a1,1,0,1,0-1.414-1.414l-1.414,1.414a1,1,0,0,0,.707,1.707Z"></path><path d="M32.762,12H45.238a1,1,0,0,0,.746-.333A4,4,0,0,0,42.874,5a4,4,0,0,0-7.748,0,4,4,0,0,0-3.11,6.665A1,1,0,0,0,32.762,12Zm2.906-4.874A1,1,0,0,0,37.02,6.19.722.722,0,0,0,37,6a2,2,0,0,1,4-.057c-.007.05-.021.2-.021.247a1,1,0,0,0,1.352.936A1.987,1.987,0,0,1,45,9a2.008,2.008,0,0,1-.266,1H33.266A2.008,2.008,0,0,1,33,9,1.987,1.987,0,0,1,35.668,7.126Z"></path><path d="M47.016,21.667a1,1,0,0,0,.746.333H60.238a1,1,0,0,0,.746-.333A4,4,0,0,0,57.874,15a4,4,0,0,0-7.748,0,4,4,0,0,0-3.11,6.665Zm3.652-4.541a1,1,0,0,0,1.352-.936A.722.722,0,0,0,52,16a2,2,0,0,1,4-.057c-.007.05-.021.2-.021.247a1,1,0,0,0,1.352.936A1.988,1.988,0,0,1,60,19a2.008,2.008,0,0,1-.266,1H48.266A2.008,2.008,0,0,1,48,19,1.987,1.987,0,0,1,50.668,17.126Z"></path><path d="M60,60H45V57.333l2.571-3.427.843-.169a4,4,0,1,0-.391-1.961L46.8,52.02a1,1,0,0,0-.6.38L45,54V50.505c3.671-1.275,6-4.916,6-9.505,0-5.8-3.616-12-9-12s-9,6.2-9,12c0,4.589,2.329,8.23,6,9.505V60H30V58h1a1,1,0,0,0,1-1V53a1,1,0,0,0-1-1H9a1,1,0,0,0-1,1v4a1,1,0,0,0,1,1h1v2H3a1,1,0,0,0,0,2H60a1,1,0,0,0,0-2ZM52,50a2,2,0,1,1-1.492,3.318L52.2,52.98a1,1,0,0,0-.392-1.96l-1.689.337A2,2,0,0,1,52,50ZM35,41c0-4.73,2.875-10,7-10s7,5.27,7,10c0,3.407-1.533,6.152-4,7.343V43a1,1,0,0,0-1-1H40a1,1,0,0,0-1,1v5.343C36.533,47.152,35,44.407,35,41ZM10,54H30v2H10Zm14,4v2H16V58ZM12,60V58h2v2Zm14,0V58h2v2Zm15,0V44h2V60Z"></path></g></svg>