<svg xmlns="http://www.w3.org/2000/svg" viewBox="0 0 64 64" x="0px" y="0px"><g data-name="Pay Per Click"><path d="M43,42a4,4,0,0,0-4-4H11a2,2,0,0,1,0-4H29a4,4,0,0,0,4-4V26h1a1,1,0,0,0,.948-.684l.637-1.91.52,1.041A1,1,0,0,0,37,25h3.557a2,2,0,0,0,1.873-2.7l-2.007-5.35A3.011,3.011,0,0,0,38,15.03V9.185a4.937,4.937,0,0,0-.861-2.806C34.143,2,32.53,2,32,2s-2.143,0-5.138,4.378A4.935,4.935,0,0,0,26,9.185V15.03a3.012,3.012,0,0,0-2.423,1.917L21.57,22.3A2,2,0,0,0,23.443,25H27a1,1,0,0,0,.895-.553l.52-1.041.637,1.91A1,1,0,0,0,30,26h1v4a2,2,0,0,1-2,2H11a4,4,0,0,0,0,8H39a2,2,0,0,1,2,2,7.008,7.008,0,0,0-7,7v6a7.008,7.008,0,0,0,7,7h2a7.008,7.008,0,0,0,7-7V49A7.008,7.008,0,0,0,43,42ZM38.55,17.649,40.557,23H37.618l-.087-.174A.982.982,0,0,0,38,22V17.089A.993.993,0,0,1,38.55,17.649ZM28,9.185a2.95,2.95,0,0,1,.512-1.677C30.41,4.733,31.624,4,32,4s1.59.733,3.489,3.509A2.951,2.951,0,0,1,36,9.185V21H33V15H31v6H28ZM23.443,23l2.007-5.352a.994.994,0,0,1,.55-.559V22a.982.982,0,0,0,.469.826L26.382,23Zm6.944,0h3.226l-.334,1H30.721ZM43,60H41a5.006,5.006,0,0,1-5-5V52H48v3A5.006,5.006,0,0,1,43,60Zm5-10H36V49a5.006,5.006,0,0,1,5-5h2a5.006,5.006,0,0,1,5,5Z"></path><rect x="41" y="46" width="2" height="2"></rect><rect x="52" y="51" width="4" height="2"></rect><rect x="51.379" y="45.5" width="4.243" height="2" transform="translate(-17.211 51.45) rotate(-45)"></rect><rect x="52.5" y="55.379" width="2" height="4.243" transform="translate(-24.989 54.672) rotate(-45)"></rect><rect x="28" y="51" width="4" height="2"></rect><rect x="29.5" y="44.379" width="2" height="4.243" transform="translate(-23.947 35.186) rotate(-45)"></rect><rect x="28.379" y="56.5" width="4.243" height="2" transform="translate(-31.725 38.408) rotate(-45)"></rect><rect x="15" y="12" width="4" height="2"></rect><rect x="16.5" y="5.379" width="2" height="4.243" transform="translate(-0.178 14.571) rotate(-45)"></rect><rect x="15.379" y="17.5" width="4.243" height="2" transform="translate(-7.956 17.793) rotate(-45)"></rect><rect x="45" y="12" width="4" height="2"></rect><rect x="44.379" y="6.5" width="4.243" height="2" transform="translate(8.316 35.077) rotate(-45)"></rect><rect x="45.5" y="16.379" width="2" height="4.243" transform="translate(0.538 38.299) rotate(-45)"></rect><path d="M32,12a3,3,0,1,0-3-3A3,3,0,0,0,32,12Zm0-4a1,1,0,1,1-1,1A1,1,0,0,1,32,8Z"></path></g></svg>