<svg xmlns="http://www.w3.org/2000/svg" viewBox="0 0 64 64" x="0px" y="0px"><g><path d="M26,52v8H48V51a1,1,0,0,1,1-1,9.01,9.01,0,0,0,9-9V23H10.721L6.388,36H11a1,1,0,0,1,1,1v8a5.006,5.006,0,0,0,5,5H30v2ZM16.5,30A4.505,4.505,0,0,1,12,25.5h2a2.5,2.5,0,0,0,5,0h2A4.505,4.505,0,0,1,16.5,30Z"></path><path d="M51,6a5.94,5.94,0,0,0-3.273.972A6.937,6.937,0,0,1,49,11c0,.023-.006.046-.006.069a7.972,7.972,0,0,1,4.929,2.561l-1.486,1.339a5.971,5.971,0,0,0-3.766-1.929c-.031.1-.045.2-.081.3a6.931,6.931,0,0,1-2.764,3.516l-1.092-1.676a4.934,4.934,0,0,0,1.971-2.508A4.872,4.872,0,0,0,47,11a4.939,4.939,0,0,0-1.414-3.48l0,0h0a5.131,5.131,0,0,0-5.3-1.217A7.507,7.507,0,0,1,41,9.5c0,.19-.011.381-.021.561l-2-.122C38.991,9.8,39,9.649,39,9.5a5.5,5.5,0,0,0-9.46-3.824,6.9,6.9,0,0,1,2.176,3.37,6.927,6.927,0,0,1,5.27,3.337l-1.713,1.034A4.952,4.952,0,0,0,31,11H30a4.951,4.951,0,0,0-2.417-4.273l-.01-.01,0,0A4.857,4.857,0,0,0,25,6a5,5,0,0,0-4.006,2.016h0l0,0a4.926,4.926,0,0,0-.619,1.128,6.924,6.924,0,0,1,4.615,3.235l-1.713,1.034a4.947,4.947,0,0,0-3.263-2.306,4.826,4.826,0,0,0,.279,1.547l-1.879.684A6.815,6.815,0,0,1,18,11a6.938,6.938,0,0,1,.654-2.957A5.094,5.094,0,0,0,18,8a5.006,5.006,0,0,0-5,5,4.908,4.908,0,0,0,.829,2.751A4.985,4.985,0,0,0,18,18H51A6,6,0,0,0,51,6Z"></path></g></svg>