<svg xmlns="http://www.w3.org/2000/svg" viewBox="0 0 64 64" x="0px" y="0px"><title>Notepad</title><g data-name="Notepad"><path d="M61,2H9A1,1,0,0,0,8,3V44H3a1,1,0,0,0-1,1v4a7.006,7.006,0,0,0,6,6.92V61a1,1,0,0,0,1,1H61a1,1,0,0,0,1-1V3A1,1,0,0,0,61,2ZM10,4H54v8H10Zm0,10H54V54H51a5.006,5.006,0,0,1-5-5V45a1,1,0,0,0-1-1H10ZM4,49V46H44v3a6.98,6.98,0,0,0,2.1,5H9A5.006,5.006,0,0,1,4,49Zm6,7H54v4H10Zm50,4H56V4h4Z"></path><path d="M32,5a3,3,0,1,0,3,3A3,3,0,0,0,32,5Zm0,4a1,1,0,1,1,1-1A1,1,0,0,1,32,9Z"></path><path d="M44,5a3,3,0,1,0,3,3A3,3,0,0,0,44,5Zm0,4a1,1,0,1,1,1-1A1,1,0,0,1,44,9Z"></path><path d="M20,5a3,3,0,1,0,3,3A3,3,0,0,0,20,5Zm0,4a1,1,0,1,1,1-1A1,1,0,0,1,20,9Z"></path></g></svg>