<svg xmlns="http://www.w3.org/2000/svg" viewBox="0 0 64 64" x="0px" y="0px"><g data-name="Optimize Speed"><circle cx="13" cy="55" r="1"></circle><polygon points="30.219 6 30.719 4 17.281 4 17.781 6 30.219 6"></polygon><circle cx="38" cy="36" r="1"></circle><path d="M35,56a1,1,0,0,1-.986-.836L33.37,51.3a15.854,15.854,0,0,1-2.915-1.206L27.268,52.37a1,1,0,0,1-1.289-.107l-4.242-4.242a1,1,0,0,1-.107-1.289l2.276-3.187A15.924,15.924,0,0,1,22.7,40.63l-3.865-.644A1,1,0,0,1,18,39V33a1,1,0,0,1,.835-.986L22.7,31.37a15.924,15.924,0,0,1,1.206-2.915L21.63,25.268a1,1,0,0,1,.107-1.289l4.242-4.242a1,1,0,0,1,1.289-.107l3.187,2.276A15.854,15.854,0,0,1,33.37,20.7l.644-3.864A1,1,0,0,1,35,16h5V5a1,1,0,0,0-1-1H32.781L32.16,6.485A2,2,0,0,1,30.219,8H17.781A2,2,0,0,1,15.84,6.485L15.219,4H9A1,1,0,0,0,8,5V59a1,1,0,0,0,1,1H39a1,1,0,0,0,1-1V56ZM29,11h2v2H29ZM13,58a3,3,0,1,1,3-3A3,3,0,0,1,13,58Zm3-36H10V20h6Zm0-4H10V16h6Zm9-7h2v2H25Zm-4,0h2v2H21Zm.707,5.293,2,2-1.414,1.414L20.586,18H18V16h3A1,1,0,0,1,21.707,16.293ZM17,11h2v2H17Zm5.707,44.707A1,1,0,0,1,22,56H18V54h3.586l1.707-1.707,1.414,1.414Z"></path><path d="M47,37V35h.949a9.894,9.894,0,0,0-.84-3.1l-.815.47-1-1.732.811-.468A10.07,10.07,0,0,0,43.834,27.9l-.468.811-1.732-1,.47-.815a9.875,9.875,0,0,0-3.1-.84V27H37v-.949a9.875,9.875,0,0,0-3.1.84l.47.815-1.732,1-.468-.811A10.07,10.07,0,0,0,29.9,30.166l.811.468-1,1.732-.815-.47a9.875,9.875,0,0,0-.84,3.1H29v2h-.949a10,10,0,0,0,19.9,0Zm-9-8v2a5.006,5.006,0,0,0-5,5H31A7.008,7.008,0,0,1,38,29Zm5,14H33V41H43Zm-2.3-8.285A2.951,2.951,0,0,1,41,36a3,3,0,1,1-3-3,2.951,2.951,0,0,1,1.285.3l2.958-2.958,1.414,1.414Z"></path><path d="M46.19,48.1l3.015,2.153,3.045-3.044L50.1,44.191a1,1,0,0,1-.048-1.09,13.876,13.876,0,0,0,1.491-3.6,1,1,0,0,1,.8-.737L56,38.153V33.847l-3.655-.609a1,1,0,0,1-.8-.737,13.876,13.876,0,0,0-1.491-3.6,1,1,0,0,1,.048-1.09l2.153-3.015L49.205,21.75,46.19,23.9a1,1,0,0,1-1.089.048,13.94,13.94,0,0,0-3.6-1.492,1,1,0,0,1-.736-.8L40.152,18h-4.3l-.61,3.655a1,1,0,0,1-.736.8,13.94,13.94,0,0,0-3.6,1.492A1,1,0,0,1,29.81,23.9L26.794,21.75,23.75,24.794,25.9,27.81a1,1,0,0,1,.048,1.089,13.948,13.948,0,0,0-1.492,3.6,1,1,0,0,1-.8.737L20,33.847v4.306l3.656.609a1,1,0,0,1,.8.737,13.948,13.948,0,0,0,1.492,3.6A1,1,0,0,1,25.9,44.19L23.75,47.206l3.044,3.044L29.81,48.1a1,1,0,0,1,1.089-.048,13.94,13.94,0,0,0,3.6,1.492,1,1,0,0,1,.736.8L35.848,54h4.3l.61-3.655a1,1,0,0,1,.736-.8,13.94,13.94,0,0,0,3.6-1.492A1,1,0,0,1,46.19,48.1ZM38,48A12,12,0,1,1,50,36,12.013,12.013,0,0,1,38,48Z"></path></g></svg>