<svg xmlns="http://www.w3.org/2000/svg" viewBox="0 0 64 64" x="0px" y="0px"><g><path d="M10,46a4,4,0,1,0,4,4A4,4,0,0,0,10,46Zm0,6a2,2,0,1,1,2-2A2,2,0,0,1,10,52Z"></path><path d="M32,46H18a2,2,0,0,0-2,2v4a2,2,0,0,0,2,2H32a2,2,0,0,0,2-2V48A2,2,0,0,0,32,46ZM18,52V48H32v4Z"></path><path d="M41,46H37a1,1,0,0,0-1,1v6a1,1,0,0,0,1,1h4a1,1,0,0,0,1-1V47A1,1,0,0,0,41,46Zm-1,6H38V48h2Z"></path><path d="M49,46H45a1,1,0,0,0-1,1v6a1,1,0,0,0,1,1h4a1,1,0,0,0,1-1V47A1,1,0,0,0,49,46Zm-1,6H46V48h2Z"></path><path d="M53,46a1,1,0,0,0-1,1v6a1,1,0,0,0,1,1h4a1,1,0,0,0,1-1V47a1,1,0,0,0-1-1Zm3,6H54V48h2Z"></path><path d="M10,28a4,4,0,1,0,4,4A4,4,0,0,0,10,28Zm0,6a2,2,0,1,1,2-2A2,2,0,0,1,10,34Z"></path><path d="M32,28H18a2,2,0,0,0-2,2v4a2,2,0,0,0,2,2H32a2,2,0,0,0,2-2V30A2,2,0,0,0,32,28ZM18,34V30H32v4Z"></path><path d="M41,28H37a1,1,0,0,0-1,1v6a1,1,0,0,0,1,1h4a1,1,0,0,0,1-1V29A1,1,0,0,0,41,28Zm-1,6H38V30h2Z"></path><path d="M49,28H45a1,1,0,0,0-1,1v6a1,1,0,0,0,1,1h4a1,1,0,0,0,1-1V29A1,1,0,0,0,49,28Zm-1,6H46V30h2Z"></path><path d="M53,28a1,1,0,0,0-1,1v6a1,1,0,0,0,1,1h4a1,1,0,0,0,1-1V29a1,1,0,0,0-1-1Zm3,6H54V30h2Z"></path><path d="M59,22a3,3,0,0,0,3-3V9a3,3,0,0,0-3-3H5A3,3,0,0,0,2,9V19a3,3,0,0,0,3,3H6v2H5a3,3,0,0,0-3,3V37a3,3,0,0,0,3,3H6v2H5a3,3,0,0,0-3,3V55a3,3,0,0,0,3,3H6v3a1,1,0,0,0,1,1h6a1,1,0,0,0,1-1V58H50v3a1,1,0,0,0,1,1h6a1,1,0,0,0,1-1V58h1a3,3,0,0,0,3-3V45a3,3,0,0,0-3-3H58V40h1a3,3,0,0,0,3-3V27a3,3,0,0,0-3-3H58V22ZM4,19V9A1,1,0,0,1,5,8H59a1,1,0,0,1,1,1V19a1,1,0,0,1-1,1H5A1,1,0,0,1,4,19Zm10,5V22H50v2ZM8,22h4v2H8ZM8,40h4v2H8Zm42,0v2H14V40ZM12,60H8V58h4Zm44,0H52V58h4Zm4-15V55a1,1,0,0,1-1,1H5a1,1,0,0,1-1-1V45a1,1,0,0,1,1-1H59A1,1,0,0,1,60,45Zm-4-3H52V40h4Zm4-15V37a1,1,0,0,1-1,1H5a1,1,0,0,1-1-1V27a1,1,0,0,1,1-1H59A1,1,0,0,1,60,27Zm-4-3H52V22h4Z"></path><path d="M10,18a4,4,0,1,0-4-4A4,4,0,0,0,10,18Zm0-6a2,2,0,1,1-2,2A2,2,0,0,1,10,12Z"></path><path d="M18,18H32a2,2,0,0,0,2-2V12a2,2,0,0,0-2-2H18a2,2,0,0,0-2,2v4A2,2,0,0,0,18,18Zm0-6H32v4H18Z"></path><path d="M37,18h4a1,1,0,0,0,1-1V11a1,1,0,0,0-1-1H37a1,1,0,0,0-1,1v6A1,1,0,0,0,37,18Zm1-6h2v4H38Z"></path><path d="M45,18h4a1,1,0,0,0,1-1V11a1,1,0,0,0-1-1H45a1,1,0,0,0-1,1v6A1,1,0,0,0,45,18Zm1-6h2v4H46Z"></path><path d="M53,18h4a1,1,0,0,0,1-1V11a1,1,0,0,0-1-1H53a1,1,0,0,0-1,1v6A1,1,0,0,0,53,18Zm1-6h2v4H54Z"></path></g></svg>