<svg xmlns="http://www.w3.org/2000/svg" viewBox="0 0 64 64" x="0px" y="0px"><g data-name="Money"><path d="M49.349,47.139c4.6-3.663,7.14-8.49,7.155-13.588.024-7.783-5.981-14.875-15.066-17.949,0,.017-.007.033-.009.051a10.79,10.79,0,0,1-2.3,5.255l-.012.016c-.178.219-.367.43-.561.634-.038.04-.074.08-.112.119-.174.177-.354.347-.54.512-.068.06-.135.12-.2.179-.169.143-.342.28-.521.413-.094.071-.19.141-.287.209-.165.115-.332.225-.5.331-.121.075-.243.146-.367.216-.159.09-.32.179-.485.261-.144.073-.292.139-.44.206s-.308.138-.467.2-.338.123-.509.181c-.149.05-.3.1-.448.146-.191.055-.386.1-.582.145-.14.032-.277.069-.418.1-.225.043-.455.072-.685.1-.118.015-.234.037-.354.049-.352.033-.709.052-1.07.052H30.53a10.93,10.93,0,0,1-10.894-12.2c.014-.122.035-.242.052-.364.024-.162.039-.326.07-.488A8.805,8.805,0,0,0,14,9.434V19.44a1,1,0,0,1-.419.814,16.632,16.632,0,0,0-6.007,7.561A.989.989,0,0,1,7,28.366V38.458A.985.985,0,0,1,7.541,39,19.579,19.579,0,0,0,14.63,47.83a1,1,0,0,1,.412.694L16.312,59H20V52.366a1,1,0,0,1,1.244-.97l.337.085c1.558.393,2.789.7,4.046.934a31.1,31.1,0,0,0,5.82.562,31.644,31.644,0,0,0,6.787-.707,12.665,12.665,0,0,0,3.278-1.054A1,1,0,0,1,43,52.089V58h4.556l1.426-10.218A1,1,0,0,1,49.349,47.139ZM16.509,27.471a1.5,1.5,0,0,0-3,0h-2a3.5,3.5,0,0,1,7,0ZM47,24V22a6.006,6.006,0,0,1,6,6H51A4,4,0,0,0,47,24Z"></path><path d="M30.536,22.974h.027a8.942,8.942,0,0,0,8.989-8.73c.011-.137.01-.191.01-.245a9.009,9.009,0,0,0-8.973-9.025h-.027a8.962,8.962,0,0,0-8.741,6.865v0a9,9,0,0,0,8.715,11.133ZM26.226,16l2,0v.68a1.313,1.313,0,0,0,1.3,1.313L31.574,18h0a1.31,1.31,0,0,0,1.308-1.3v-.381a1.313,1.313,0,0,0-1.3-1.31L30,15v0l-.46,0a3.312,3.312,0,0,1-3.3-3.317V11.3A3.312,3.312,0,0,1,29.549,8H30l0-1L32,7l0,1.041a3.285,3.285,0,0,1,2.9,3.278V12l-2,0v-.68a1.313,1.313,0,0,0-1.3-1.313L29.551,10h0a1.31,1.31,0,0,0-1.308,1.3v.38a1.313,1.313,0,0,0,1.3,1.311L31,13v0l.585,0a3.314,3.314,0,0,1,3.3,3.317V16.7A3.3,3.3,0,0,1,32,19.958l0,1.046-2-.008,0-1-.475,0a3.312,3.312,0,0,1-3.3-3.317Z"></path><polygon points="5 37.862 5 28.937 3 29.481 3 37.3 5 37.862"></polygon><path d="M58.5,34.471v-2a1.5,1.5,0,0,0,1.5-1.5V28h2v2.971A3.5,3.5,0,0,1,58.5,34.471Z"></path></g></svg>