<svg xmlns="http://www.w3.org/2000/svg" viewBox="0 0 64 64" x="0px" y="0px"><g><path d="M52,40.723V37a1,1,0,0,0-1-1H40V31a1,1,0,0,0-1-1H36V27a6.984,6.984,0,0,0-10-6.315A6.984,6.984,0,0,0,16,27v3H13a1,1,0,0,0-1,1V59a1,1,0,0,0,1,1H54a1,1,0,0,0,1-1V46a1,1,0,0,0-.151-.528ZM47.434,45H35.767l1.8-3H49.234ZM51,42.944,52.233,45H49.767ZM50,40H38V38H50ZM34,27v3H30V27a6.975,6.975,0,0,0-2.008-4.9A5,5,0,0,1,34,27Zm-8-3.974A4.977,4.977,0,0,1,28,27v3H24V27A4.977,4.977,0,0,1,26,23.026ZM18,27a5,5,0,0,1,6.008-4.9A6.975,6.975,0,0,0,22,27v3H18ZM16.857,53.485a1.039,1.039,0,0,0-1.714,0L14,55.39V34.61l1.143,1.905a1,1,0,0,0,1.714,0L18,34.61V55.39ZM17.234,58H14.766L16,55.944ZM14.766,32h2.468L16,34.056ZM20,32h2v3h2V32H34v3h2V32h2v4H37a1,1,0,0,0-1,1v3.723l-2.857,4.762A1,1,0,0,0,33,46V58H20ZM47,58H35V47H47Zm6,0H49V47h4Z"></path><path d="M52.935,14.043A7.011,7.011,0,0,0,46,8a6.928,6.928,0,0,0-4.051,1.292,11.994,11.994,0,0,0-21.533,3.6A6.984,6.984,0,0,0,10.083,18,8,8,0,1,0,10,34V32a6,6,0,0,1,0-12,5.9,5.9,0,0,1,.861.07,1.019,1.019,0,0,0,.8-.274A1.083,1.083,0,0,0,12,19a4.993,4.993,0,0,1,8.412-3.646,1,1,0,0,0,1.676-.606A9.993,9.993,0,0,1,40.82,11.29a1,1,0,0,0,1.6.226A5,5,0,0,1,51,15a1,1,0,0,0,1,1,8,8,0,0,1,0,16H42v2H52a10,10,0,0,0,.935-19.957Z"></path><rect x="47" y="14" width="2" height="2"></rect><rect x="43" y="14" width="2" height="2"></rect><path d="M56,24a4,4,0,0,1-4,4v2a6.006,6.006,0,0,0,6-6Z"></path><rect x="48" y="28" width="2" height="2"></rect></g></svg>