<svg xmlns="http://www.w3.org/2000/svg" viewBox="0 0 64 64" x="0px" y="0px"><g data-name="Online Shop"><rect x="24" y="40" width="16" height="2"></rect><rect x="26" y="36" width="12" height="2"></rect><path d="M51,15.235l-1.6-3.213-34.824.02L13,15.234V18a3,3,0,0,0,6,0h2a3,3,0,0,0,6,0h2a3,3,0,0,0,6,0h2a3,3,0,0,0,6,0h2a3,3,0,0,0,6,0Z"></path><path d="M49,54H15v3a3,3,0,0,0,3,3H46a3,3,0,0,0,3-3ZM33,58H31V56h2Z"></path><path d="M37,30v2H35V30H33v2H31V30H29v2H27V30a3,3,0,0,0-3,3v1H40V33A3,3,0,0,0,37,30Z"></path><path d="M15,10.042l34-.02V7a3,3,0,0,0-3-3H18a3,3,0,0,0-3,3ZM28,6h8V8H28Z"></path><path d="M49,22.9a4.962,4.962,0,0,1-5-1.93,4.954,4.954,0,0,1-8,0,4.954,4.954,0,0,1-8,0,4.954,4.954,0,0,1-8,0,4.962,4.962,0,0,1-5,1.93V52H49ZM42,35a1,1,0,0,1-1,1H40v2h1a1,1,0,0,1,1,1v3a2,2,0,0,1-2,2H24a2,2,0,0,1-2-2V39a1,1,0,0,1,1-1h1V36H23a1,1,0,0,1-1-1V33a5.006,5.006,0,0,1,5-5H37a5.006,5.006,0,0,1,5,5Z"></path></g></svg>