<svg xmlns="http://www.w3.org/2000/svg" viewBox="0 0 64 64" x="0px" y="0px"><g data-name="Radiation"><circle cx="32" cy="32" r="3"></circle><path d="M43.354,14.328l-5.513,9.559A10.029,10.029,0,0,1,41.95,31H52.976A21.094,21.094,0,0,0,43.354,14.328Z"></path><path d="M26.159,23.887l-5.513-9.559A21.094,21.094,0,0,0,11.024,31H22.05A10.029,10.029,0,0,1,26.159,23.887Z"></path><path d="M27.89,41.115l-5.513,9.559a21.391,21.391,0,0,0,19.246,0L36.11,41.115A10.127,10.127,0,0,1,27.89,41.115Z"></path><path d="M32,4A28,28,0,1,0,60,32,28.032,28.032,0,0,0,32,4Zm0,55A27,27,0,1,1,59,32,27.03,27.03,0,0,1,32,59Z"></path><path d="M32,7A25,25,0,1,0,57,32,25.028,25.028,0,0,0,32,7Zm5,25a5,5,0,1,1-5-5A5.006,5.006,0,0,1,37,32ZM10,33a1,1,0,0,1-1-1A23.088,23.088,0,0,1,20.5,12.074a.986.986,0,0,1,.759-.1,1,1,0,0,1,.607.466l6.5,11.27A1,1,0,0,1,28,25.077,8.009,8.009,0,0,0,24,32a1,1,0,0,1-1,1ZM43.5,51.925a23.045,23.045,0,0,1-23,0,1,1,0,0,1-.365-1.364l6.5-11.27A1,1,0,0,1,28,38.926a8.1,8.1,0,0,0,7.992,0,1,1,0,0,1,1.37.365l6.5,11.27A1,1,0,0,1,43.5,51.925ZM54,33H41a1,1,0,0,1-1-1,8.009,8.009,0,0,0-4-6.923,1,1,0,0,1-.367-1.367l6.5-11.27a1,1,0,0,1,.607-.466.987.987,0,0,1,.759.1A23.088,23.088,0,0,1,55,32,1,1,0,0,1,54,33Z"></path></g></svg>