<svg xmlns="http://www.w3.org/2000/svg" viewBox="0 0 64 64" x="0px" y="0px"><g data-name="Plane"><path d="M61.948,25.66l-1-2.978A1,1,0,0,0,60,22H58a1,1,0,0,0-.954.7l-.674,2.144L50,22.238v-2.18a.99.99,0,0,0-.1-.437l-1-2.058A1,1,0,0,0,48,17H46a1,1,0,0,0-.9.553l-1,2a1.011,1.011,0,0,0-.083.239L38,17.328V17a1.006,1.006,0,0,0-.058-.336l-5-14a1,1,0,0,0-1.884,0l-5,14A1.006,1.006,0,0,0,26,17v.328l-6.022,2.464a1.011,1.011,0,0,0-.083-.239l-1-2A1,1,0,0,0,18,17H16a1,1,0,0,0-.9.563l-1,2.058a.99.99,0,0,0-.1.437v2.18L7.628,24.844,6.954,22.7A1,1,0,0,0,6,22H4a1,1,0,0,0-.948.682l-1,2.978A1.015,1.015,0,0,0,2,25.979V35a1,1,0,0,0,.293.707l1,1A1,1,0,0,0,4,37H6a1,1,0,0,0,.707-.293l1-1A1,1,0,0,0,8,35H26v7.382L10.553,50.105A1,1,0,0,0,10,51v6a1,1,0,0,0,1,1H22v1a1,1,0,0,0,.105.447l1,2A1,1,0,0,0,24,62h4a1,1,0,0,0,.895-.553l1-2A1,1,0,0,0,30,59V58h4v1a1,1,0,0,0,.1.447l1,2A1,1,0,0,0,36,62h4a1,1,0,0,0,.9-.553l1-2A1,1,0,0,0,42,59V58H53a1,1,0,0,0,1-1V51a1,1,0,0,0-.553-.9L38,42.382V35H56a1,1,0,0,0,.293.707l1,1A1,1,0,0,0,58,37h2a1,1,0,0,0,.707-.293l1-1A1,1,0,0,0,62,35V25.979A1.015,1.015,0,0,0,61.948,25.66ZM28,17.173l4-11.2,4,11.2V56H28V17.173ZM7,33a1,1,0,0,0-1,1v.586L5.586,35H4.414L4,34.586V26.142L4.719,24h.547l.78,2.481a1,1,0,0,0,1.332.626l8-3.272A1,1,0,0,0,16,22.909V20.288L16.626,19h.756L18,20.236v1.036a1,1,0,0,0,1.378.926L26,19.489V33Zm5,18.618,14-7V56H12Zm16,7.146L27.382,60H24.618L24,58.764V58h4Zm12,0L39.382,60H36.618L36,58.764V58h4Zm12-7.146V56H38V44.618Zm8-17.032L59.586,35H58.414L58,34.586V34a1,1,0,0,0-1-1H38V19.489L44.622,22.2A1,1,0,0,0,46,21.272V20.236L46.618,19h.756L48,20.288v2.621a1,1,0,0,0,.622.926l8,3.272a1,1,0,0,0,1.332-.626L58.734,24h.547L60,26.142Z"></path><path d="M30,54h4a1,1,0,0,0,1-1V41a1,1,0,0,0-1-1H30a1,1,0,0,0-1,1V53A1,1,0,0,0,30,54Zm1-12h2V52H31Z"></path><path d="M31,23h2a2,2,0,0,0,2-2V17a2,2,0,0,0-2-2H31a2,2,0,0,0-2,2v4A2,2,0,0,0,31,23Zm0-6h2v4H31Z"></path></g></svg>