<svg xmlns="http://www.w3.org/2000/svg" viewBox="0 0 64 64" x="0px" y="0px"><title>Mobile Shopping</title><g data-name="Mobile Shopping"><path d="M44,2H20a5.006,5.006,0,0,0-5,5V57a5.006,5.006,0,0,0,5,5H44a5.006,5.006,0,0,0,5-5V7A5.006,5.006,0,0,0,44,2Zm0,58H20a3,3,0,0,1-3-3V12H43V10H17V7a3,3,0,0,1,3-3H44a3,3,0,0,1,3,3V50H21v2H47v5A3,3,0,0,1,44,60Z"></path><rect x="31" y="55" width="2" height="2"></rect><rect x="24" y="6" width="2" height="2"></rect><rect x="28" y="6" width="2" height="2"></rect><path d="M21,16h3V14H20a1,1,0,0,0-1,1v4h2Z"></path><path d="M24.012,41.152A1,1,0,0,0,25,42H39a1,1,0,0,0,.988-.848L41.858,29H44V27H38.781L36.97,19.757l-1.94.486L36.719,27H27.281l1.689-6.757-1.94-.486L25.219,27H20v2h2.142ZM39.834,29,38.142,40H25.858L24.166,29Z"></path><rect x="27" y="31" width="2" height="7"></rect><rect x="31" y="31" width="2" height="7"></rect><rect x="35" y="31" width="2" height="7"></rect></g></svg>