<svg xmlns="http://www.w3.org/2000/svg" viewBox="0 0 64 64" x="0px" y="0px"><g><path d="M59,11H17a3,3,0,0,0-3,3v3H11a3,3,0,0,0-3,3v3H5a3,3,0,0,0-3,3V52a3,3,0,0,0,3,3H47a3,3,0,0,0,3-3V49h3a3,3,0,0,0,3-3V43h3a3,3,0,0,0,3-3V14A3,3,0,0,0,59,11ZM17,13H59a.983.983,0,0,1,.833.481l-6.764,3.526c-.023,0-.045-.007-.069-.007H22.915l-6.748-3.519A.983.983,0,0,1,17,13Zm-1,2.649L18.59,17H16ZM11,19H53a1,1,0,0,1,1,1v.394l-5.645,2.945A2.953,2.953,0,0,0,47,23H15L10,20.394V20A1,1,0,0,1,11,19Zm-1,3.65.671.35H10ZM5,25H47a1,1,0,0,1,1,1v.394L26,37.872,4,26.394V26A1,1,0,0,1,5,25Zm43,3.65v20.3L32.438,36.769ZM19.562,36.769,4,48.948V28.65ZM47,53H5a1,1,0,0,1-1-1v-.513l17.508-13.7,4.03,2.1a1,1,0,0,0,.924,0l4.03-2.1L48,51.487V52A1,1,0,0,1,47,53Zm6-6H50V26a2.987,2.987,0,0,0-.229-1.144L54,22.65V46A1,1,0,0,1,53,47Zm6-6H56V20a2.969,2.969,0,0,0-.7-1.9l4.7-2.45V40A1,1,0,0,1,59,41Z"></path></g></svg>