<svg xmlns="http://www.w3.org/2000/svg" viewBox="0 0 64 64" x="0px" y="0px"><g><path d="M9,20h4V5a2.966,2.966,0,0,1,.184-1H10A1,1,0,0,0,9,5Z"></path><path d="M19.184,4H16a1,1,0,0,0-1,1V20h4V5A2.966,2.966,0,0,1,19.184,4Z"></path><path d="M5,60H59a1,1,0,0,0,1-1V31a1,1,0,0,0-1-1H27.781a2,2,0,0,1-1.94-1.515L24.219,22H5a1,1,0,0,0-1,1V59A1,1,0,0,0,5,60Z"></path><path d="M22,4a1,1,0,0,0-1,1V20h3.219a2,2,0,0,1,1.94,1.515L27.78,28H55V5a1,1,0,0,0-1-1H52v7a1,1,0,0,1-1.707.707L49,10.414l-1.293,1.293A1,1,0,0,1,46,11V4Zm4,4h8v2H26Zm0,6V12H42v2ZM50,24H30V22H50Zm0-6v2H30V18Z"></path><path d="M49.707,8.293,50,8.586V4H48V8.586l.293-.293a1,1,0,0,1,1.414,0Z"></path></g></svg>