<svg xmlns="http://www.w3.org/2000/svg" viewBox="0 0 64 64" x="0px" y="0px"><g><circle cx="29" cy="52" r="1"></circle><path d="M29,47a5,5,0,1,0,5,5A5,5,0,0,0,29,47Zm0,8a3,3,0,1,1,3-3A3,3,0,0,1,29,55Z"></path><path d="M44,40H58V30H54v1a.987.987,0,0,1-.62.92A.838.838,0,0,1,53,32a1.007,1.007,0,0,1-.71-.29L51,30.41l-1.29,1.3a1,1,0,0,1-1.09.21A.987.987,0,0,1,48,31V30H44Z"></path><rect x="36" y="43" width="2" height="6"></rect><rect x="40" y="7" width="2" height="44"></rect><rect x="44" y="42" width="16" height="2"></rect><rect x="44" y="10" width="4" height="2"></rect><rect x="54" y="10" width="4" height="2"></rect><path d="M44,24H58V14H54v1a.987.987,0,0,1-.62.92A.838.838,0,0,1,53,16a1.007,1.007,0,0,1-.71-.29L51,14.41l-1.29,1.3a1,1,0,0,1-1.09.21A.987.987,0,0,1,48,15V14H44Z"></path><path d="M50.29,12.29a1.014,1.014,0,0,1,1.42,0l.29.3V10H50v2.59Z"></path><path d="M50.29,28.29a1.014,1.014,0,0,1,1.42,0l.29.3V26H50v2.59Z"></path><rect x="54" y="26" width="4" height="2"></rect><rect x="44" y="26" width="4" height="2"></rect><path d="M33.57,41,27.75,25H12V37h2V28a1,1,0,0,1,1-1h2a3.009,3.009,0,0,1,3,3v3h1a3.009,3.009,0,0,1,3,3v2a1,1,0,0,1-1,1H22v2h4V32.41l-1.71-1.7,1.42-1.42,2,2A1.033,1.033,0,0,1,28,32v9Z"></path><path d="M22,36a1,1,0,0,0-1-1H19a1,1,0,0,1-1-1V30a1,1,0,0,0-1-1H16v8h6Z"></path><path d="M12,22v1H27.03l-.49-1.34A.992.992,0,0,0,25.6,21H13A1,1,0,0,0,12,22Z"></path><rect x="16" y="17" width="4" height="2"></rect><rect x="12" y="39" width="8" height="2"></rect><rect x="36" y="16" width="2" height="14"></rect><path d="M10,37H5a1,1,0,0,0-1,1v3h6Z"></path><path d="M34,43H12v4.35A6.016,6.016,0,0,1,14.46,49h8.22A6.987,6.987,0,0,1,34,47.11Z"></path><path d="M10,49a4,4,0,1,0,4,4A4,4,0,0,0,10,49Zm0,5a1,1,0,1,1,1-1A1,1,0,0,1,10,54Z"></path><path d="M17,15h2V14a1,1,0,0,0-2,0Z"></path><path d="M4,49H5.54A6,6,0,0,1,10,47V43H4Z"></path><rect x="17" y="5" width="2" height="4"></rect><rect x="12.05" y="7.051" width="2" height="4" transform="translate(-2.577 11.879) rotate(-45)"></rect><rect x="20.95" y="8.05" width="4" height="2" transform="translate(0.322 18.879) rotate(-45)"></rect></g></svg>