<svg xmlns="http://www.w3.org/2000/svg" viewBox="0 0 64 64" x="0px" y="0px"><g data-name="Human Mind-Vision-Conversation-Communication-Idea"><path d="M47.738,28.833l-1.972.334c.082.486.143.982.181,1.475a16.91,16.91,0,0,1-5.613,14.023A1,1,0,0,0,40,45.41V60H20V53a1,1,0,0,0-1-1H13a3,3,0,0,1-3-3V42a1,1,0,0,0-1-1H5.081l6.7-8.375A1,1,0,0,0,12,32a16.912,16.912,0,0,1,2.833-9.4l-1.666-1.108A18.907,18.907,0,0,0,10,31.646l-6.484,8.1A2,2,0,0,0,5.081,43H8v6a5.006,5.006,0,0,0,5,5h5v7a1,1,0,0,0,1,1H41a1,1,0,0,0,1-1V45.851a18.887,18.887,0,0,0,5.941-15.364C47.9,29.935,47.83,29.379,47.738,28.833Z"></path><path d="M58,6H38a3,3,0,0,0-3,3V21a3,3,0,0,0,3,3h3v5a1,1,0,0,0,.617.924A.987.987,0,0,0,42,30a1,1,0,0,0,.707-.293L48.414,24H58a3,3,0,0,0,3-3V9A3,3,0,0,0,58,6Zm1,15a1,1,0,0,1-1,1H48a1,1,0,0,0-.707.293L43,26.586V23a1,1,0,0,0-1-1H38a1,1,0,0,1-1-1V9a1,1,0,0,1,1-1H58a1,1,0,0,1,1,1Z"></path><rect x="41" y="10" width="2" height="2"></rect><rect x="45" y="10" width="10" height="2"></rect><rect x="41" y="14" width="14" height="2"></rect><rect x="41" y="18" width="14" height="2"></rect><path d="M10,20h9.586l5.707,5.707A1,1,0,0,0,26,26a.987.987,0,0,0,.383-.076A1,1,0,0,0,27,25V20h3a3,3,0,0,0,3-3V5a3,3,0,0,0-3-3H10A3,3,0,0,0,7,5V17A3,3,0,0,0,10,20ZM9,5a1,1,0,0,1,1-1H30a1,1,0,0,1,1,1V17a1,1,0,0,1-1,1H26a1,1,0,0,0-1,1v3.586l-4.293-4.293A1,1,0,0,0,20,18H10a1,1,0,0,1-1-1Z"></path><rect x="13" y="6" width="2" height="2"></rect><rect x="17" y="6" width="10" height="2"></rect><rect x="13" y="10" width="14" height="2"></rect><rect x="13" y="14" width="14" height="2"></rect></g></svg>