<svg xmlns="http://www.w3.org/2000/svg" viewBox="0 0 64 64" x="0px" y="0px"><g data-name="Coffee Machine-Internet of Things-App-Smartphone-Application"><path d="M59,56V21.82A3.01,3.01,0,0,0,61,19V5a3.009,3.009,0,0,0-3-3H16a3.009,3.009,0,0,0-3,3V19a3.01,3.01,0,0,0,2,2.82V26H7a5,5,0,0,0-5,5V57a5,5,0,0,0,5,5H61a1,1,0,0,0,1-1V59A3.009,3.009,0,0,0,59,56ZM15,5a1,1,0,0,1,1-1H58a1,1,0,0,1,1,1V19a1,1,0,0,1-1,1H16a1,1,0,0,1-1-1ZM34,34a1,1,0,0,1-1-1V30h8v3a1,1,0,0,1-1,1Zm4,2v2H36V36Zm-4-8V26h6v2Zm-2.22-4-.5-2H42.72l-.5,2ZM42,26h1a1,1,0,0,0,.97-.76L44.78,22H53v6H42Zm1,4H55v2H43Zm12,4a2.006,2.006,0,0,0,2-2V56H55Zm0-6V22h2v8A2.006,2.006,0,0,0,55,28ZM19,22v4H17V22Zm5,35a3.009,3.009,0,0,1-3,3H7a3.009,3.009,0,0,1-3-3V54H24Zm0-5H4V34H24Zm0-20H4V31a3.009,3.009,0,0,1,3-3H21a3.009,3.009,0,0,1,3,3Zm-3-6V22h8.22l.81,3.24A1,1,0,0,0,31,26h1v2a1,1,0,0,0-1,1v4a3.009,3.009,0,0,0,3,3v2a2.006,2.006,0,0,0,2,2h2a2.006,2.006,0,0,0,2-2V36a3.01,3.01,0,0,0,2.82-2H53V56H42.97A4.924,4.924,0,0,0,44,53V52a4,4,0,0,0,0-8H31a1,1,0,0,0-1,1v8a4.924,4.924,0,0,0,1.03,3H26V31A5,5,0,0,0,21,26ZM44,50V46a2,2,0,0,1,0,4Zm-2-4v7a3.009,3.009,0,0,1-3,3H35a3.009,3.009,0,0,1-3-3V46ZM60,60H24.97a4.84,4.84,0,0,0,.93-2H59a1,1,0,0,1,1,1Z"></path><path d="M37,18a6,6,0,1,0-6-6A6.006,6.006,0,0,0,37,18ZM36,8.142V12h2V8.142a4,4,0,1,1-2,0Z"></path><path d="M50,15a3,3,0,1,0-3-3A3,3,0,0,0,50,15Zm0-4a1,1,0,1,1-1,1A1,1,0,0,1,50,11Z"></path><path d="M24,15a3,3,0,1,0-3-3A3,3,0,0,0,24,15Zm0-4a1,1,0,1,1-1,1A1,1,0,0,1,24,11Z"></path><path d="M10.465,43.464l1.414,1.414a3.074,3.074,0,0,1,4.242,0l1.414-1.414a5,5,0,0,0-7.07,0Z"></path><path d="M9.05,42.05a7.011,7.011,0,0,1,9.9,0l1.414-1.414a9.01,9.01,0,0,0-12.728,0Z"></path><path d="M12.586,46.586,14,48l1.414-1.414A2,2,0,0,0,12.586,46.586Z"></path><rect x="13" y="56" width="2" height="2"></rect></g></svg>