<svg xmlns="http://www.w3.org/2000/svg" viewBox="0 0 64 64" x="0px" y="0px"><g data-name="Smartphone-Transfer-Data Transfer-Server-Database"><path d="M41,22V20H36V14a7.008,7.008,0,0,0-7-7H9a7.008,7.008,0,0,0-7,7V50a7.008,7.008,0,0,0,7,7H29a7.008,7.008,0,0,0,7-7V42h5V40H36V32h5V30H36V22ZM9,9H29a5.017,5.017,0,0,1,4.9,4H4.1A5.017,5.017,0,0,1,9,9ZM34,50a5,5,0,0,1-5,5H9a5,5,0,0,1-5-5V49H34Zm0-30H25.41l1.3-1.29-1.42-1.42-3,3a1.008,1.008,0,0,0,0,1.42l3,3,1.42-1.42L25.41,22H34v8H19.41l1.3-1.29-1.42-1.42-3,3a1.008,1.008,0,0,0,0,1.42l3,3,1.42-1.42L19.41,32H34v8H25.41l1.3-1.29-1.42-1.42-3,3a1.008,1.008,0,0,0,0,1.42l3,3,1.42-1.42L25.41,42H34v5H4V15H34Z"></path><rect x="16" y="51" width="6" height="2"></rect><path d="M53,16c-4.47,0-9,1.37-9,4V41c0,2.63,4.53,4,9,4s9-1.37,9-4V20C62,17.37,57.47,16,53,16Zm7,25c0,.58-2.45,2-7,2s-7-1.42-7-2V36.6A15.9,15.9,0,0,0,53,38a15.9,15.9,0,0,0,7-1.4Zm0-7c0,.58-2.45,2-7,2s-7-1.42-7-2V29.6A15.9,15.9,0,0,0,53,31a15.9,15.9,0,0,0,7-1.4Zm0-7c0,.58-2.45,2-7,2s-7-1.42-7-2V22.6A15.9,15.9,0,0,0,53,24a15.9,15.9,0,0,0,7-1.4Zm-7-5c-4.55,0-7-1.42-7-2s2.45-2,7-2,7,1.42,7,2S57.55,22,53,22Z"></path><rect x="48" y="25" width="2" height="2"></rect><rect x="52" y="26" width="2" height="2"></rect><rect x="48" y="32" width="2" height="2"></rect><rect x="52" y="33" width="2" height="2"></rect><rect x="48" y="39" width="2" height="2"></rect><rect x="52" y="40" width="2" height="2"></rect></g></svg>