<svg xmlns="http://www.w3.org/2000/svg" viewBox="0 0 64 64" x="0px" y="0px"><g><path d="M47.06,21.84a12.664,12.664,0,0,0-7.86,3.18c-.44-.5-.89-.99-1.34-1.46l4.25-4.26L40.7,17.89l-4.26,4.25c-.7-.67-1.4-1.3-2.11-1.9a14.975,14.975,0,0,0,1.71-6.6h-2a12.63,12.63,0,0,1-1.31,5.3c-2.48-1.89-6.01-4.04-7.59-2.47a1.065,1.065,0,0,0-.19.28L11.84,44.16a2.945,2.945,0,0,0,0,2.59L6.48,52.1a5.523,5.523,0,0,0,0,7.8,5.461,5.461,0,0,0,3.89,1.61,5.523,5.523,0,0,0,2.5-.61L34.33,49.97a2.276,2.276,0,0,1,2.64,3.64L34.29,56.3a3.023,3.023,0,1,0,1.41,1.41l2.69-2.68a4.276,4.276,0,0,0-4.96-6.84L11.97,59.12a3.544,3.544,0,0,1-4.07-.64,3.507,3.507,0,0,1,0-4.96l5.35-5.36a3.039,3.039,0,0,0,1.28.3,2.947,2.947,0,0,0,1.31-.3L43.25,35.05a1.065,1.065,0,0,0,.28-.19c1.7-1.7-.91-5.66-3.03-8.31a10.723,10.723,0,0,1,6.56-2.71ZM33,60a1,1,0,1,1,1-1A1,1,0,0,1,33,60ZM14.97,46.36a.994.994,0,0,1-1.33-1.33l2.72-5.7,2.92,4.97Zm6.12-2.93L17.4,37.16l.98-2.04,4.4,7.51Zm3.5-1.67-5.17-8.82,1.99-4.15,6.63,11.32Zm5.26-2.52-7.4-12.63.97-2.03,8.12,13.86Zm3.5-1.67L24.46,22.41l.89-1.87A34.823,34.823,0,0,0,31.5,28.5a34.544,34.544,0,0,0,7.96,6.15Zm8.77-4.19-.06.02c-1.11.1-4.8-1.99-9.14-6.32s-6.41-8.03-6.32-9.15l.01-.02c.56-.05,2.33.63,5.15,2.81a16.728,16.728,0,0,1-1.02,1.48l1.53,1.28a14.385,14.385,0,0,0,1.05-1.47c.57.49,1.14,1.01,1.71,1.55l-1.4,1.4,1.41,1.41,1.4-1.4c.44.45.86.92,1.28,1.39a18.728,18.728,0,0,0-1.36,1.53l1.6,1.2a14.339,14.339,0,0,1,1.05-1.18C41.45,30.98,42.15,32.89,42.12,33.38Z"></path><path d="M57.724,20.771l-.635-.635.408-.8a2,2,0,0,0-2.69-2.69l-.8.408-.634-.636a2,2,0,0,0-3.39,1.728l.141.886-.8.407a2,2,0,0,0,.594,3.758l.887.141.141.887a1.97,1.97,0,0,0,1.663,1.663,2.152,2.152,0,0,0,.328.026A1.964,1.964,0,0,0,54.7,24.82l.408-.8.887.14a2,2,0,0,0,1.727-3.389Zm-3.018,1.16a1,1,0,0,0-1.048.533l-.738,1.448-.254-1.6a1,1,0,0,0-.832-.831l-1.6-.255,1.448-.738a1,1,0,0,0,.533-1.046l-.254-1.606,1.148,1.149a1,1,0,0,0,1.162.184l1.453-.749-.006.012-.737,1.447a1,1,0,0,0,.184,1.161l1.149,1.15Z"></path><path d="M32.947,9.055l.887.14.14.887a1.972,1.972,0,0,0,1.663,1.663,2.032,2.032,0,0,0,.328.026,1.967,1.967,0,0,0,1.767-1.093l.407-.8.887.14a2,2,0,0,0,1.727-3.389l-.635-.636.408-.8A2,2,0,0,0,37.836,2.5l-.8.407L36.4,2.276A2,2,0,0,0,33.011,4l.141.887-.8.408a2,2,0,0,0,.6,3.757Zm1.76-2.713A1,1,0,0,0,35.241,5.3l-.254-1.6,1.149,1.149a.993.993,0,0,0,1.161.183l1.452-.749-.005.012-.738,1.447a1,1,0,0,0,.184,1.162l1.149,1.149-1.6-.254a1,1,0,0,0-1.047.533L35.95,9.77,35.7,8.165a1,1,0,0,0-.832-.831l-1.6-.255Z"></path><rect x="44.355" y="15.473" width="4.001" height="2" transform="translate(1.929 37.603) rotate(-45)"></rect><rect x="44.648" y="27.494" width="2" height="2" transform="translate(-6.778 40.624) rotate(-45)"></rect><rect x="29.092" y="11.938" width="2" height="2" transform="translate(-0.335 25.067) rotate(-45)"></rect><rect x="40.405" y="11.938" width="2" height="2" transform="translate(2.976 33.061) rotate(-44.99)"></rect><rect x="45" y="9" width="2" height="2"></rect><rect x="52" y="10" width="4" height="2"></rect><path d="M50,8a3,3,0,1,0-3-3A3,3,0,0,0,50,8Zm0-4a1,1,0,1,1-1,1A1,1,0,0,1,50,4Z"></path></g></svg>