<svg xmlns="http://www.w3.org/2000/svg" viewBox="0 0 64 64" x="0px" y="0px"><g data-name="Stream Iron"><path d="M47,43V40H23v3a1,1,0,0,0,1,1H46A1,1,0,0,0,47,43Z"></path><polygon points="59.615 19.521 53 7.026 53 22.461 59.615 19.521"></polygon><rect x="34" y="50" width="2" height="10"></rect><rect x="32" y="46" width="6" height="2"></rect><polygon points="11 7.026 4.385 19.521 11 22.461 11 7.026"></polygon><path d="M32,12a9.012,9.012,0,0,0,8.944-8H23.056A9.012,9.012,0,0,0,32,12Z"></path><path d="M51,4H42.949a10.994,10.994,0,0,1-21.9,0H13V60H32V50H31a1,1,0,0,1-1-1V46H24a3,3,0,0,1-3-3V39a1,1,0,0,1,1-1H48a1,1,0,0,1,1,1v4a3,3,0,0,1-3,3H40v3a1,1,0,0,1-1,1H38V60H51ZM33,36a1,1,0,0,1-2,0V32a1,1,0,0,1,2,0Zm3,0a1,1,0,0,1-2,0V32a1,1,0,0,1,2,0Zm3,0a1,1,0,0,1-2,0V32a1,1,0,0,1,2,0Zm2-1a1,1,0,0,1,0-2,3,3,0,0,0,0-6,2.941,2.941,0,0,0-1.542.442,1,1,0,0,1-1.506-1A2.928,2.928,0,0,0,38,26a3,3,0,0,0-6,0,2.742,2.742,0,0,0,.045.417,1.011,1.011,0,0,1-.432.991.994.994,0,0,1-1.071.034A2.941,2.941,0,0,0,29,27a3,3,0,0,0,0,6,1,1,0,0,1,0,2,5,5,0,0,1,0-10,4.827,4.827,0,0,1,1.077.122,5,5,0,0,1,9.846,0A4.827,4.827,0,0,1,41,25a5,5,0,0,1,0,10Z"></path></g></svg>