<svg xmlns="http://www.w3.org/2000/svg" viewBox="0 0 64 64" x="0px" y="0px"><g data-name="Saint Paul Cathedral-Landmark-London-England-Monument"><rect x="26" y="36" width="2" height="2"></rect><rect x="18" y="28" width="2" height="6"></rect><rect x="22" y="28" width="2" height="10"></rect><rect x="30" y="28" width="4" height="10"></rect><path d="M58,12H52V22h6Zm-2,4H54V14h2Z"></path><rect x="36" y="36" width="2" height="2"></rect><rect x="18" y="36" width="2" height="2"></rect><rect x="48" y="24" width="12" height="2"></rect><path d="M56,8.179V6H54V8.179A3.036,3.036,0,0,0,52.18,10h5.64A3.036,3.036,0,0,0,56,8.179Z"></path><rect x="4" y="40" width="56" height="2"></rect><rect x="27" y="12" width="10" height="2"></rect><path d="M33,6.11V4H31V6.11A5.021,5.021,0,0,0,27.1,10h9.8A5.021,5.021,0,0,0,33,6.11Z"></path><rect x="4" y="24" width="12" height="2"></rect><path d="M52,28V38h6V28Zm4,8H54V30h2Z"></path><path d="M10,8.179V6H8V8.179A3.036,3.036,0,0,0,6.18,10h5.64A3.036,3.036,0,0,0,10,8.179Z"></path><rect x="36" y="28" width="2" height="6"></rect><path d="M12,12H6V22h6Zm-2,4H8V14h2Z"></path><rect x="40" y="28" width="2" height="10"></rect><path d="M32.26,18.03,42,20.63V16H22v4.63l9.74-2.6A1.142,1.142,0,0,1,32.26,18.03Z"></path><rect x="44" y="36" width="2" height="2"></rect><path d="M46,23.77,32,20.04,18,23.77V26H46ZM33,24H31V22h2Z"></path><rect x="44" y="28" width="2" height="6"></rect><rect x="26" y="28" width="2" height="6"></rect><rect x="18" y="44" width="2" height="8"></rect><rect x="26" y="54" width="2" height="2"></rect><rect x="22" y="44" width="2" height="12"></rect><rect x="30" y="44" width="4" height="12"></rect><path d="M12,38V28H6V38ZM8,30h2v6H8Z"></path><rect x="36" y="54" width="2" height="2"></rect><rect x="18" y="54" width="2" height="2"></rect><path d="M6,44V56h6V44Zm4,10H8V47h2Z"></path><rect x="14" y="28" width="2" height="10"></rect><rect x="14" y="44" width="2" height="12"></rect><rect x="26" y="44" width="2" height="8"></rect><rect x="4" y="58" width="56" height="2"></rect><path d="M52,44V56h6V44Zm4,10H54V47h2Z"></path><rect x="48" y="28" width="2" height="10"></rect><rect x="48" y="44" width="2" height="12"></rect><rect x="36" y="44" width="2" height="8"></rect><rect x="40" y="44" width="2" height="12"></rect><rect x="44" y="54" width="2" height="2"></rect><rect x="44" y="44" width="2" height="8"></rect></g></svg>