<svg xmlns="http://www.w3.org/2000/svg" viewBox="0 0 64 64" x="0px" y="0px"><g><path d="M47,47V43.677l4.372-1.748A1,1,0,0,0,52,41V33a1,1,0,0,0-.445-.832L49,30.465V20a1,1,0,0,0-.553-.895L45,17.382V15a1,1,0,0,0-.4-.8l-4-3A1,1,0,0,0,40,11H36a1,1,0,0,0-.6.2L32,13.75,28.6,11.2A1,1,0,0,0,28,11H24a1,1,0,0,0-.6.2l-4,3a1,1,0,0,0-.4.8v2.382l-3.447,1.723A1,1,0,0,0,15,20v9.279l-2.316.772A1,1,0,0,0,12,31V41a1,1,0,0,0,.628.929L17,43.677V47a1,1,0,0,0,.219.625l4,5A1,1,0,0,0,22,53h6a1,1,0,0,0,.6-.2L32,50.25l3.4,2.55a1,1,0,0,0,.6.2h6a1,1,0,0,0,.781-.375l4-5A1,1,0,0,0,47,47ZM27.667,51H25V48a1,1,0,0,0-.293-.707l-1-1-1.414,1.414.707.707V51h-.52L19,46.649V43.3L20.535,41h.649a3,3,0,1,0,0-2H20a1,1,0,0,0-.832.445l-1.55,2.325L14,40.323v-8.6l1.73-.577,1.563,1.563A1,1,0,0,0,18,33h2a1,1,0,0,0,.895-.553l.742-1.484A2.9,2.9,0,0,0,22,31a3.015,3.015,0,1,0-2.156-.923L19.382,31h-.968L17,29.586V20.618l2.8-1.4,2.49,2.49A1,1,0,0,0,23,22h1.184a3,3,0,1,0,0-2h-.77L21,17.586V15.5L24.333,13h3.334L31,15.5V27H28.972a1,1,0,0,0-.707.293l-1.972,1.972a1,1,0,0,0-.293.707v3.557l-.721.721,1.414,1.415,1.014-1.015A1,1,0,0,0,28,33.943V30.386L29.386,29H31V47l-2-1.5V44H27v2a1,1,0,0,0,.4.8L30.333,49ZM23,40a1,1,0,1,1,1,1A1,1,0,0,1,23,40ZM21,28a1,1,0,1,1,1,1A1,1,0,0,1,21,28Zm5-7a1,1,0,1,1,1,1A1,1,0,0,1,26,21ZM41.52,51H40V48.414l.707-.707-1.414-1.414-1,1A1,1,0,0,0,38,48v3H36.333L33,48.5v-2l3.6-2.7A1,1,0,0,0,37,43V41H35v1.5L33,44V31h1.614L36,32.386v3.557a1,1,0,0,0,.293.707l.766.766A3.036,3.036,0,0,0,37,38a3,3,0,1,0,3-3,2.967,2.967,0,0,0-1.862.667L38,35.529V31.972a1,1,0,0,0-.293-.707l-1.972-1.972A1,1,0,0,0,35.028,29H33V15.5L36.333,13h3.334L43,15.5v2.086L40.586,20h-.77a3,3,0,1,0,0,2H41a1,1,0,0,0,.707-.293l2.49-2.49,2.8,1.4v9.968L45.586,32h-.968l-.462-.923A2.994,2.994,0,1,0,42,32a2.9,2.9,0,0,0,.363-.037l.742,1.484A1,1,0,0,0,44,34h2a1,1,0,0,0,.707-.293l1.42-1.42L50,33.535v6.788l-3.517,1.406L45.9,40.553A1,1,0,0,0,45,40H43v2h1.382L45,43.236v3.413ZM39,38a1,1,0,1,1,1,1A1,1,0,0,1,39,38ZM38,21a1,1,0,1,1-1-1A1,1,0,0,1,38,21Zm4,9a1,1,0,1,1,1-1A1,1,0,0,1,42,30Z"></path><path d="M49.293,4.293l-6,6,1.414,1.414L50.414,6H54V4H50A1,1,0,0,0,49.293,4.293Z"></path><path d="M61,23H57a1,1,0,0,0-1,1v4a1,1,0,0,0,1,1h4a1,1,0,0,0,1-1V24A1,1,0,0,0,61,23Zm-1,4H58V25h2Z"></path><path d="M61,56H57a1,1,0,0,0-1,1v4a1,1,0,0,0,1,1h4a1,1,0,0,0,1-1V57A1,1,0,0,0,61,56Zm-1,4H58V58h2Z"></path><path d="M61,2H57a1,1,0,0,0-1,1V7a1,1,0,0,0,1,1h4a1,1,0,0,0,1-1V3A1,1,0,0,0,61,2ZM60,6H58V4h2Z"></path><rect x="51" y="25" width="3" height="2"></rect><path d="M45.707,53.293l-1.414,1.414,5,5A1,1,0,0,0,50,60h4V58H50.414Z"></path><path d="M19.293,11.707l1.414-1.414-6-6A1,1,0,0,0,14,4H10V6h3.586Z"></path><path d="M7,23H3a1,1,0,0,0-1,1v4a1,1,0,0,0,1,1H7a1,1,0,0,0,1-1V24A1,1,0,0,0,7,23ZM6,27H4V25H6Z"></path><path d="M7,56H3a1,1,0,0,0-1,1v4a1,1,0,0,0,1,1H7a1,1,0,0,0,1-1V57A1,1,0,0,0,7,56ZM6,60H4V58H6Z"></path><path d="M7,2H3A1,1,0,0,0,2,3V7A1,1,0,0,0,3,8H7A1,1,0,0,0,8,7V3A1,1,0,0,0,7,2ZM6,6H4V4H6Z"></path><rect x="10" y="25" width="3" height="2"></rect><path d="M13.586,58H10v2h4a1,1,0,0,0,.707-.293l5-5-1.414-1.414Z"></path></g></svg>