<svg xmlns="http://www.w3.org/2000/svg" viewBox="0 0 64 64" x="0px" y="0px"><g><rect x="42" y="12" width="2" height="1"></rect><path d="M42.293,24.707a1,1,0,0,0,1.414,0,12.03,12.03,0,0,0,1.2-2.617,11.967,11.967,0,0,0-2.617,1.2A1,1,0,0,0,42.293,24.707Z"></path><rect x="40" y="9" width="6" height="1"></rect><path d="M43,4H29.392A17.9,17.9,0,0,0,12.934,15.229L6.385,35H12v9a5.006,5.006,0,0,0,5,5H31v2H26v9H48V49h1a9.011,9.011,0,0,0,9-9V19A15.017,15.017,0,0,0,43,4ZM17.5,26A4.505,4.505,0,0,1,13,21.5h2a2.5,2.5,0,0,0,5,0h2A4.505,4.505,0,0,1,17.5,26ZM54,24a11,11,0,1,1-19.111-7.4l-.874-.874-.707.707-1.414-1.414,2.828-2.828L36.136,13.6l-.707.707.938.938A10.956,10.956,0,0,1,40,13.426V12H39a1,1,0,0,1-1-1V8a1,1,0,0,1,1-1h8a1,1,0,0,1,1,1v3a1,1,0,0,1-1,1H46v1.426a10.972,10.972,0,0,1,3.87,2l.408-.408-.707-.707,1.414-1.414,2.828,2.828L52.4,17.136l-.707-.707-.384.384A10.941,10.941,0,0,1,54,24Z"></path><path d="M49.364,19.05,47.95,17.636l.661-.661A8.956,8.956,0,0,0,44,15.059V16H42v-.941a8.956,8.956,0,0,0-4.611,1.916l.661.661L36.636,19.05l-.661-.661A8.956,8.956,0,0,0,34.059,23H35v2h-.941a8.956,8.956,0,0,0,1.916,4.611l.661-.661,1.414,1.414-.661.661A8.956,8.956,0,0,0,42,32.941V32h2v.941a8.956,8.956,0,0,0,4.611-1.916l-.661-.661,1.414-1.414.661.661A8.956,8.956,0,0,0,51.941,25H51V23h.941a8.956,8.956,0,0,0-1.916-4.611Zm-1.877,1.721c-.332,1.032-1.482,4.466-2.366,5.35a3,3,0,0,1-4.242-4.242c.884-.884,4.318-2.034,5.35-2.366a1,1,0,0,1,1.258,1.258Z"></path></g></svg>