<svg xmlns="http://www.w3.org/2000/svg" viewBox="0 0 64 64" x="0px" y="0px"><g data-name="Robot-Computer-Artificial Intelligence-Ai-Controller"><path d="M11.414,56H52.586l-4-4H15.414ZM46,53h2v2H46Zm-4,0h2v2H42ZM24,53H40v2H24Zm-4,0h2v2H20Zm-4,0h2v2H16Z"></path><rect x="10" y="58" width="44" height="2"></rect><path d="M19,50H17V48a1,1,0,0,0-1-1H10a3,3,0,0,1,0-6h6a1,1,0,0,0,1-1V38h2v2a3,3,0,0,1-3,3H10a1,1,0,0,0,0,2h6a3,3,0,0,1,3,3Z"></path><path d="M40,15.54,37.7,14H26.3L24,15.54V22h2.09a5.993,5.993,0,0,1,11.82,0H40Z"></path><polygon points="25.62 26 38.38 26 39.38 24 24.62 24 25.62 26"></polygon><path d="M32,19a4,4,0,0,0-3.86,3h7.72A4,4,0,0,0,32,19Z"></path><rect x="30" y="11" width="4" height="1"></rect><path d="M37,12a1,1,0,0,0,1-1V5a1,1,0,0,0-1-1H27a1,1,0,0,0-1,1v6a1,1,0,0,0,1,1h1V10a1,1,0,0,1,1-1h6a1,1,0,0,1,1,1v2ZM30,8H28V6h2Zm4,0V6h2V8Z"></path><rect x="28" y="38" width="8" height="4"></rect><path d="M11,35a1,1,0,0,0,1,1H52a1,1,0,0,0,1-1V32H11Zm36-2h2v2H47Z"></path><path d="M53,9V30H11V9a1,1,0,0,1,1-1H24v3a3.024,3.024,0,0,0,.57,1.75L22.7,14H22a5,5,0,0,0-5,5v.18A3.01,3.01,0,0,0,15,22h2a1,1,0,0,1,2,0h2a3.01,3.01,0,0,0-2-2.82V19a3.009,3.009,0,0,1,3-3v7a1,1,0,0,0,.11.45l2,4A.988.988,0,0,0,25,28H39a.988.988,0,0,0,.89-.55l2-4A1,1,0,0,0,42,23V16a3.009,3.009,0,0,1,3,3v.18A3.01,3.01,0,0,0,43,22h2a1,1,0,0,1,2,0h2a3.01,3.01,0,0,0-2-2.82V19a5,5,0,0,0-5-5h-.7l-1.87-1.25A3.024,3.024,0,0,0,40,11V8H52A1,1,0,0,1,53,9Z"></path><rect x="23" y="44" width="18" height="2"></rect></g></svg>