<svg xmlns="http://www.w3.org/2000/svg" viewBox="0 0 48 48" x="0px" y="0px"><title>Microphone</title><g><path d="M24,0A24,24,0,1,0,48,24,24.028,24.028,0,0,0,24,0Zm0,46A22,22,0,1,1,46,24,22.025,22.025,0,0,1,24,46Z"></path><path d="M24,29a7.008,7.008,0,0,1-7-7H15a9.01,9.01,0,0,0,8,8.941V39H18v2H30V39H25V30.941A9.01,9.01,0,0,0,33,22H31A7.008,7.008,0,0,1,24,29Z"></path><path d="M24,27a5.006,5.006,0,0,0,5-5V14a5,5,0,0,0-10,0v8A5.006,5.006,0,0,0,24,27ZM21,14a3,3,0,0,1,6,0v8a3,3,0,0,1-6,0Z"></path></g></svg>