<svg xmlns="http://www.w3.org/2000/svg" viewBox="0 0 64 64" x="0px" y="0px"><g><path d="M60,32A12.01,12.01,0,0,1,48,44H45V33a1,1,0,0,0-1-1H34a2.974,2.974,0,0,0-2,.78A2.974,2.974,0,0,0,30,32H20a1,1,0,0,0-1,1V44H13a9,9,0,0,1-2.6-17.62.987.987,0,0,0,.71-.82A11.007,11.007,0,0,1,22,16c.16,0,.31.01.46.02l.2.01a1.009,1.009,0,0,0,.95-.53,13.985,13.985,0,0,1,26.15,3.98.994.994,0,0,0,.77.79A12.053,12.053,0,0,1,60,32Z"></path><path d="M30,34H21V52H31V35A1,1,0,0,0,30,34ZM29,50H23V48h6Zm0-4H23V44h6Zm0-4H23V40h6Zm0-4H23V36h6Z"></path><path d="M34,34a1,1,0,0,0-1,1V52H43V34Zm7,16H35V48h6Zm0-4H35V44h6Zm0-4H35V40h6Zm0-4H35V36h6Z"></path></g></svg>