<svg xmlns="http://www.w3.org/2000/svg" viewBox="0 0 64 64" x="0px" y="0px"><g data-name="Stopwatch-Timer-Time Management-Clock-Hand"><path d="M39,45A15,15,0,1,0,24,30,15.018,15.018,0,0,0,39,45Zm0-28A13,13,0,1,1,26,30,13.015,13.015,0,0,1,39,17Z"></path><path d="M39,41A11,11,0,1,0,28,30,11.013,11.013,0,0,0,39,41ZM38,27.184V23h2v4.184a3,3,0,1,1-2,0Z"></path><circle cx="39" cy="30" r="1"></circle><path d="M27.73,17.31l-1.46-1.46-1.42,1.42,1.46,1.46A15.858,15.858,0,0,1,27.73,17.31Z"></path><path d="M50.27,17.31a17.3,17.3,0,0,1,1.42,1.42l1.46-1.46-1.42-1.42Z"></path><path d="M57.68,49.63,44.05,57.51a14.956,14.956,0,0,1-9.16,1.92L22.11,58.01A1.477,1.477,0,0,0,21.9,58L3,59.89V48H19a1,1,0,0,0,.51-.14l2.63-1.58A9,9,0,0,1,26.77,45h1.3a9.149,9.149,0,0,1,3.35.64l3.21,1.29A.937.937,0,0,0,35,47h7a2,2,0,0,1,0,4H32v2H42.51a5.009,5.009,0,0,0,2.5-.67l10.67-6.16a2,2,0,0,1,2,3.46Z"></path><path d="M44,7a5,5,0,1,0-6,4.9V13.05c.33-.02.66-.05,1-.05s.67.03,1,.05V11.9A5.009,5.009,0,0,0,44,7ZM40,9.816V8H38V9.816a3,3,0,1,1,2,0Z"></path></g></svg>