<svg xmlns="http://www.w3.org/2000/svg" viewBox="0 0 64 64" x="0px" y="0px"><g data-name="Payment Method-Online Payment-Smartphone-Mobile Phone-Money"><path d="M40,11H24a3.009,3.009,0,0,0-3,3V40a3.009,3.009,0,0,0,3,3H40a3.009,3.009,0,0,0,3-3V14A3.009,3.009,0,0,0,40,11ZM23,14a1,1,0,0,1,1-1h3.91A5.992,5.992,0,0,1,23,17.91Zm1,27a1,1,0,0,1-1-1V36.09A5.992,5.992,0,0,1,27.91,41Zm17-1a1,1,0,0,1-1,1H36.09A5.992,5.992,0,0,1,41,36.09Zm0-5.93A8,8,0,0,0,34.07,41H29.93A8,8,0,0,0,23,34.07V19.93A8,8,0,0,0,29.93,13h4.14A8,8,0,0,0,41,19.93Zm0-16.16A5.992,5.992,0,0,1,36.09,13H40a1,1,0,0,1,1,1Z"></path><path d="M32,32a5,5,0,1,0-5-5A5.006,5.006,0,0,0,32,32Zm0-8a3,3,0,1,1-3,3A3,3,0,0,1,32,24Z"></path><path d="M56,32a3.974,3.974,0,0,0-1.382-3A3.983,3.983,0,0,0,52,22H50V9a7.009,7.009,0,0,0-7-7H21a7.009,7.009,0,0,0-7,7v5.556A3.959,3.959,0,0,0,12,14H9a1,1,0,0,0-1,1V46.586L1.293,53.293l1.414,1.414,7-7A1,1,0,0,0,10,47V16h2a2,2,0,0,1,2,2v8a1,1,0,0,0,.143.515l1,1.674A13,13,0,0,1,17,34.878v1.455a9.985,9.985,0,0,1-1.43,5.151l1.715,1.032A12,12,0,0,0,19,36.333V34.878a15,15,0,0,0-2.138-7.718L16,25.723V9a5.006,5.006,0,0,1,5-5H43a5.006,5.006,0,0,1,5,5V22a3.983,3.983,0,0,0-2.618,7,3.947,3.947,0,0,0,0,6,3.947,3.947,0,0,0,0,6A3.983,3.983,0,0,0,48,48v1a5.006,5.006,0,0,1-5,5H21a5.006,5.006,0,0,1-5-5V44H14v5a7.009,7.009,0,0,0,7,7H33.586l-5.293,5.293,1.414,1.414L36.414,56H43a7.009,7.009,0,0,0,7-7V48h2a3.983,3.983,0,0,0,2.618-7,3.947,3.947,0,0,0,0-6A3.974,3.974,0,0,0,56,32ZM46,26a2,2,0,0,1,2-2h4a2,2,0,0,1,0,4H48A2,2,0,0,1,46,26Zm8,18a2,2,0,0,1-2,2H48a2,2,0,0,1,0-4h4A2,2,0,0,1,54,44Zm0-6a2,2,0,0,1-2,2H48a2,2,0,0,1,0-4h4A2,2,0,0,1,54,38Zm-6-4a2,2,0,0,1,0-4h4a2,2,0,0,1,0,4Z"></path><rect x="25" y="6" width="2" height="2"></rect><rect x="29" y="6" width="6" height="2"></rect><path d="M30,46a3,3,0,0,0,0,6h4a3,3,0,0,0,0-6Zm5,3a1,1,0,0,1-1,1H30a1,1,0,0,1,0-2h4A1,1,0,0,1,35,49Z"></path></g></svg>