<svg xmlns="http://www.w3.org/2000/svg" viewBox="0 0 64 64" x="0px" y="0px"><g><path d="M26,51v9H48V50a1,1,0,0,1,1-1,9.01,9.01,0,0,0,9-9V19A15.017,15.017,0,0,0,43,4H29.392A17.9,17.9,0,0,0,12.924,15.252L6.385,35H11a1,1,0,0,1,1,1v8a5.006,5.006,0,0,0,5,5H31v2ZM48.1,30.806l-1.186-1.612a30.333,30.333,0,0,0,5.2-4.776l1.527,1.292A32.384,32.384,0,0,1,48.1,30.806ZM17.5,26A4.505,4.505,0,0,1,13,21.5h2a2.5,2.5,0,0,0,5,0h2A4.505,4.505,0,0,1,17.5,26Zm8.562-9.352a7.421,7.421,0,0,1,2.6-6.543,7.56,7.56,0,0,1,10.486.01l.821.8.819-.8a7.584,7.584,0,0,1,10.491-.005A7.548,7.548,0,0,1,53.934,16.8c-.993,7.349-12.987,13.814-13.5,14.086a1,1,0,0,1-.95-.006C38.979,30.6,27.013,23.986,26.062,16.648Z"></path><path d="M51.952,16.528A5.591,5.591,0,0,0,49.9,11.559l-.009-.01a5.569,5.569,0,0,0-7.708,0l-1.517,1.474a1,1,0,0,1-1.394,0l-1.518-1.475a5.471,5.471,0,0,0-3.828-1.525,5.652,5.652,0,0,0-3.889,1.535,5.455,5.455,0,0,0-1.99,4.832c.726,5.6,9.742,11.183,11.928,12.461C42.164,27.6,51.2,22.12,51.952,16.528ZM34,14a2,2,0,0,0-2,2H30a4,4,0,0,1,4-4Z"></path></g></svg>