<svg xmlns="http://www.w3.org/2000/svg" viewBox="0 0 64 64" x="0px" y="0px"><polygon points="27 4 27 8 37 8 37 4 35 4 35 6 33 6 33 4 31 4 31 6 29 6 29 4 27 4"></polygon><rect x="20" y="44" width="24" height="6" rx="1"></rect><path d="M36.816,60H43a1,1,0,0,0,1-1V53.414L42.586,52H21.414L20,53.414V59a1,1,0,0,0,1,1h6.184A2.966,2.966,0,0,1,27,59V57h2v2a1,1,0,0,0,1,1h4a1,1,0,0,0,1-1V57h2v2A2.966,2.966,0,0,1,36.816,60Z"></path><rect x="20" y="28" width="24" height="6" rx="1"></rect><path d="M29,10v4a1,1,0,0,1-.445.832l-8.11,5.406A1,1,0,0,0,20,21.07v3.516L21.414,26H42.586L44,24.586V21.07a1,1,0,0,0-.445-.832l-8.11-5.406A1,1,0,0,1,35,14V10Z"></path><rect x="20" y="36" width="24" height="6" rx="1"></rect></svg>