<svg xmlns="http://www.w3.org/2000/svg" viewBox="0 0 64 64" x="0px" y="0px"><g data-name="Shopping-Ecommerce-World Wide Shopping-Buy-World"><path d="M27,9.41v3.18l-3.71,3.7A1.033,1.033,0,0,0,23,17v3.59L19.59,24H17a1,1,0,0,0-1,1v1.77A3.008,3.008,0,0,0,15,29v1.17A3.014,3.014,0,0,0,13,33v3.76A3.021,3.021,0,0,0,11,36h-.01a5.018,5.018,0,0,0-1.34-1.22A25.668,25.668,0,0,1,9,29,25.935,25.935,0,0,1,21.16,7h3.43Z"></path><path d="M40,39.41v3.18l-1.71,1.7A1.033,1.033,0,0,0,38,45v3.59l-2.71,2.7A1.033,1.033,0,0,0,35,52v3c-.67,0-1.34-.03-2-.08V49a1.033,1.033,0,0,0-.29-.71l-.28-.28L33,41.22a3.066,3.066,0,0,0-.81-2.28,3,3,0,0,0-1.4-.83A3.172,3.172,0,0,0,31,37V35h4.59Z"></path><path d="M36,20h4v4.59L38.59,26H38V23a1.033,1.033,0,0,0-.29-.71L36,20.59Z"></path><path d="M61,29A26,26,0,0,0,35,3V8.59L38.41,12H43a1.033,1.033,0,0,1,.71.29l5,5A1.033,1.033,0,0,1,49,18v6a1.033,1.033,0,0,1-.29.71L47,26.41v3.18l3.71,3.7A1.033,1.033,0,0,1,51,34v4.59l4.71,4.7A1.033,1.033,0,0,1,56,44v.31A25.785,25.785,0,0,0,61,29ZM49.29,39.71A1.033,1.033,0,0,1,49,39V34.41l-3.71-3.7A1.033,1.033,0,0,1,45,30V26a1.033,1.033,0,0,1,.29-.71L47,23.59V18.41L42.59,14H38a1.033,1.033,0,0,1-.71-.29l-4-4A1.033,1.033,0,0,1,33,9V3.08A25.407,25.407,0,0,0,25,5a1.033,1.033,0,0,1,.71.29l3,3A1.033,1.033,0,0,1,29,9v4a1.033,1.033,0,0,1-.29.71L25,17.41V21a1.033,1.033,0,0,1-.29.71l-4,4A1.033,1.033,0,0,1,20,26a5.085,5.085,0,0,1,2,.42A5.085,5.085,0,0,1,24,26h2a3.009,3.009,0,0,1,3,3v1.17A3.014,3.014,0,0,1,31,33h5a1.033,1.033,0,0,1,.71.29l5,5A1.033,1.033,0,0,1,42,39v4a1.033,1.033,0,0,1-.29.71L40,45.41V49a1.033,1.033,0,0,1-.29.71L37,52.41v2.51a25.833,25.833,0,0,0,17-8.19V44.41ZM42,25a1.033,1.033,0,0,1-.29.71l-2,2A1.033,1.033,0,0,1,39,28H37a1,1,0,0,1-1-1V23.41l-1.71-1.7A1.033,1.033,0,0,1,34,21V19a1,1,0,0,1,1-1h6a1,1,0,0,1,1,1Z"></path><path d="M29,56H14V54H29a1.01,1.01,0,0,0,1-.92l1-12a1.013,1.013,0,0,0-.26-.76A1.029,1.029,0,0,0,30,40H28V38a1,1,0,0,0,1-1V33a1,1,0,0,0-1-1H26.82A3,3,0,0,0,27,31V29a1,1,0,0,0-1-1H24a2.974,2.974,0,0,0-2,.78A2.974,2.974,0,0,0,20,28H18a1,1,0,0,0-1,1v2a3,3,0,0,0,.18,1H16a1,1,0,0,0-1,1v4a1,1,0,0,0,1,1v2H13.41l-1.7-1.71A1.033,1.033,0,0,0,11,38H9.82A3.01,3.01,0,0,0,7,36H5a3,3,0,0,0,0,6H7a3.01,3.01,0,0,0,2.82-2h.77L12,41.41V57a1,1,0,0,0,1,1h1.18a3,3,0,1,0,5.64,0h2.36a3,3,0,1,0,5.64,0H29a1,1,0,0,1,1,1h2A3.009,3.009,0,0,0,29,56Zm-9-4H18V50h2Zm0-4H18V46h2Zm0-4H18V42h2Zm-2-4V38h8v2Zm6,12H22V50h2Zm0-4H22V46h2Zm0-4H22V42h2Zm4.08,8H26V50h2.25Zm.33-4H26V46h2.58Zm.5-6-.16,2H26V42ZM23,31a1,1,0,0,1,1-1h1v1a1,1,0,0,1-1,1H23Zm-4-1h1a1,1,0,0,1,1,1v1H20a1,1,0,0,1-1-1Zm-2,4H27v2H17Zm-3,8h2v2H14Zm0,4h2v2H14Zm0,4h2v2H14ZM7,40H5a1,1,0,0,1,0-2H7a1,1,0,0,1,0,2ZM17,60a1,1,0,1,1,1-1A1,1,0,0,1,17,60Zm8,0a1,1,0,1,1,1-1A1,1,0,0,1,25,60Z"></path></g></svg>