<svg xmlns="http://www.w3.org/2000/svg" viewBox="0 0 64 64" x="0px" y="0px"><g data-name="Idea get Money"><polygon points="4 52 4 55 14 55 14 52 13 52 13 53 11 53 11 52 10 52 10 53 8 53 8 52 7 52 7 53 5 53 5 52 4 52"></polygon><polygon points="4 60 14 60 14 57 13 57 13 58 11 58 11 57 10 57 10 58 8 58 8 57 7 57 7 58 5 58 5 57 4 57 4 60"></polygon><polygon points="19 42 19 45 29 45 29 42 28 42 28 43 26 43 26 42 25 42 25 43 23 43 23 42 22 42 22 43 20 43 20 42 19 42"></polygon><polygon points="19 50 29 50 29 47 28 47 28 48 26 48 26 47 25 47 25 48 23 48 23 47 22 47 22 48 20 48 20 47 19 47 19 50"></polygon><polygon points="19 60 29 60 29 57 28 57 28 58 26 58 26 57 25 57 25 58 23 58 23 57 22 57 22 58 20 58 20 57 19 57 19 60"></polygon><polygon points="19 55 29 55 29 52 28 52 28 53 26 53 26 52 25 52 25 53 23 53 23 52 22 52 22 53 20 53 20 52 19 52 19 55"></polygon><polygon points="34 45 44 45 44 42 43 42 43 43 41 43 41 42 40 42 40 43 38 43 38 42 37 42 37 43 35 43 35 42 34 42 34 45"></polygon><polygon points="34 37 34 40 44 40 44 37 43 37 43 38 41 38 41 37 40 37 40 38 38 38 38 37 37 37 37 38 35 38 35 37 34 37"></polygon><polygon points="34 50 44 50 44 47 43 47 43 48 41 48 41 47 40 47 40 48 38 48 38 47 37 47 37 48 35 48 35 47 34 47 34 50"></polygon><polygon points="34 60 44 60 44 57 43 57 43 58 41 58 41 57 40 57 40 58 38 58 38 57 37 57 37 58 35 58 35 57 34 57 34 60"></polygon><polygon points="34 55 44 55 44 52 43 52 43 53 41 53 41 52 40 52 40 53 38 53 38 52 37 52 37 53 35 53 35 52 34 52 34 55"></polygon><polygon points="49 40 59 40 59 37 58 37 58 38 56 38 56 37 55 37 55 38 53 38 53 37 52 37 52 38 50 38 50 37 49 37 49 40"></polygon><polygon points="49 45 59 45 59 42 58 42 58 43 56 43 56 42 55 42 55 43 53 43 53 42 52 42 52 43 50 43 50 42 49 42 49 45"></polygon><polygon points="49 32 49 35 59 35 59 32 58 32 58 33 56 33 56 32 55 32 55 33 53 33 53 32 52 32 52 33 50 33 50 32 49 32"></polygon><polygon points="49 50 59 50 59 47 58 47 58 48 56 48 56 47 55 47 55 48 53 48 53 47 52 47 52 48 50 48 50 47 49 47 49 50"></polygon><polygon points="49 60 59 60 59 57 58 57 58 58 56 58 56 57 55 57 55 58 53 58 53 57 52 57 52 58 50 58 50 57 49 57 49 60"></polygon><polygon points="49 55 59 55 59 52 58 52 58 53 56 53 56 52 55 52 55 53 53 53 53 52 52 52 52 53 50 53 50 52 49 52 49 55"></polygon><path d="M14,32.71a1,1,0,0,1,.715-.958,6,6,0,1,0-3.43,0A1,1,0,0,1,12,32.71V34H8v2h4v1h2V36h4V34H14ZM10,26H8a5.006,5.006,0,0,1,5-5v2A3,3,0,0,0,10,26Z"></path><rect x="12" y="15" width="2" height="2"></rect><rect x="19.071" y="17.929" width="2" height="2" transform="translate(-7.506 19.736) rotate(-45)"></rect><rect x="22" y="25" width="2" height="2"></rect><rect x="4.929" y="17.929" width="2" height="2" transform="translate(-11.65 9.74) rotate(-45.01)"></rect><rect x="2" y="25" width="2" height="2"></rect><path d="M46.978,4l-.006-2a13.1,13.1,0,0,0-2.137.181l.333,1.972A11.212,11.212,0,0,1,46.978,4Z"></path><path d="M51.191,2.693a12.983,12.983,0,0,0-2.081-.521l-.324,1.973a11.147,11.147,0,0,1,1.761.441Z"></path><path d="M43.41,4.6l-.655-1.891a13.038,13.038,0,0,0-1.961.868l.957,1.756A10.993,10.993,0,0,1,43.41,4.6Z"></path><path d="M55.116,22.418l1.475,1.35a13.125,13.125,0,0,0,1.314-1.7l-1.677-1.09A11.181,11.181,0,0,1,55.116,22.418Z"></path><path d="M57.657,12.269l1.937-.5a12.943,12.943,0,0,0-.7-2.028l-1.828.811A11,11,0,0,1,57.657,12.269Z"></path><path d="M59.614,18.148l-1.94-.484a11.018,11.018,0,0,1-.585,1.719l1.833.8A12.964,12.964,0,0,0,59.614,18.148Z"></path><path d="M54.957,4.726a13.015,13.015,0,0,0-1.8-1.172l-.95,1.759a11.093,11.093,0,0,1,1.521.993Z"></path><path d="M57.86,7.861a13.349,13.349,0,0,0-1.322-1.686L55.07,7.533a11.364,11.364,0,0,1,1.121,1.43Z"></path><path d="M58,15q0,.441-.035.873l1.994.158C59.986,15.69,60,15.347,60,15c0-.374-.017-.745-.047-1.111l-1.994.17C57.986,14.369,58,14.684,58,15Z"></path><path d="M40.235,6.331,39,4.757a13.288,13.288,0,0,0-1.573,1.455L38.9,7.565A11.385,11.385,0,0,1,40.235,6.331Z"></path><path d="M42.781,27.3l.651-1.891a10.917,10.917,0,0,1-1.662-.731l-.954,1.758A13.107,13.107,0,0,0,42.781,27.3Z"></path><path d="M34.045,16.086A13.117,13.117,0,0,0,34.4,18.2l1.939-.492a10.918,10.918,0,0,1-.3-1.789Z"></path><path d="M40.25,23.681a11.087,11.087,0,0,1-1.336-1.23l-1.47,1.356a13.113,13.113,0,0,0,1.577,1.452Z"></path><path d="M37.785,9,36.11,7.906a13.126,13.126,0,0,0-1.021,1.887l1.831.805A11.157,11.157,0,0,1,37.785,9Z"></path><path d="M36.332,12.314l-1.939-.49a12.917,12.917,0,0,0-.35,2.117l1.993.163A10.961,10.961,0,0,1,36.332,12.314Z"></path><path d="M37.8,21.018a11.075,11.075,0,0,1-.867-1.6l-1.83.808a13.01,13.01,0,0,0,1.026,1.884Z"></path><path d="M53.23,26.408a13.189,13.189,0,0,0,1.79-1.182l-1.236-1.573a11.15,11.15,0,0,1-1.515,1Z"></path><path d="M49.192,27.815a12.84,12.84,0,0,0,2.079-.535l-.66-1.888a10.948,10.948,0,0,1-1.755.453Z"></path><path d="M45.191,25.851l-.33,1.972A13.053,13.053,0,0,0,47,28h.051L47,26A11.021,11.021,0,0,1,45.191,25.851Z"></path><path d="M47,8a7,7,0,1,0,7,7A7.008,7.008,0,0,0,47,8Zm-4,8H41V14h2Zm4-2a2.937,2.937,0,0,1,2.862,3A2.993,2.993,0,0,1,48,19.8V21H46V19.8A2.993,2.993,0,0,1,44.138,17h2A.872.872,0,1,0,47,16a2.937,2.937,0,0,1-2.862-3A2.993,2.993,0,0,1,46,10.2V9h2v1.2A2.993,2.993,0,0,1,49.862,13h-2A.872.872,0,1,0,47,14Zm4,2V14h2v2Z"></path></g></svg>