<svg xmlns="http://www.w3.org/2000/svg" viewBox="0 0 64 64" x="0px" y="0px"><g><path d="M51.147,60l3.68-23H9.173l3.68,23ZM47,52h2v2H47Zm0,4h2v2H47Zm-4,0h2v2H43Z"></path><path d="M6.425,12.839c.213,5.174,1.132,13.86,3.9,16.623A12.644,12.644,0,0,0,12.219,31H23.852c-.011-.015-.021-.032-.032-.047-.158-.216-.308-.445-.459-.673-.076-.116-.157-.225-.232-.344q-.335-.53-.646-1.095A19.211,19.211,0,0,1,20,20a6.581,6.581,0,0,1,.04-.69c.008-.077.023-.158.034-.236.022-.163.047-.328.081-.5.019-.095.044-.194.066-.292.038-.159.077-.32.124-.484.03-.107.064-.216.1-.324.052-.164.107-.329.168-.5.04-.113.083-.227.128-.342.067-.172.139-.348.215-.524.05-.117.1-.234.154-.352.085-.187.178-.378.272-.57.057-.114.11-.226.17-.342.111-.216.233-.437.356-.658.054-.1.1-.194.161-.294l.024-.044c-4.056-1.759-10.674-2.27-14.245-2.42L19.707,23.293l-1.414,1.414Z"></path><rect x="4" y="33" width="56" height="2"></rect><path d="M24.359,13.958h0a23.876,23.876,0,0,0-1.339,2.434,11.985,11.985,0,0,0-.867,2.387A5.52,5.52,0,0,0,22,20a17.406,17.406,0,0,0,2.237,7.879c.172.314.351.616.535.911.061.1.125.19.188.285.125.192.251.383.381.566.078.11.159.214.239.32.12.16.24.318.364.47.088.109.179.214.269.318.074.086.149.168.224.251H37.563c.075-.083.15-.165.224-.251.09-.1.181-.209.269-.318.124-.152.244-.31.364-.47.08-.106.161-.21.239-.32.13-.183.256-.374.382-.567.062-.1.126-.187.187-.284.184-.295.363-.6.535-.911A17.406,17.406,0,0,0,42,20c0-1.479-.815-3.568-2.358-6.041A61.092,61.092,0,0,0,33,5.5V29H31V5.5A61.017,61.017,0,0,0,24.359,13.958Z"></path><path d="M41.909,13.852l.025.046c.056.1.105.193.159.29.124.222.246.444.357.66.06.117.114.23.171.345.094.19.186.38.271.566.054.12.1.237.154.354.076.176.148.351.215.522.045.116.088.23.129.344.06.168.115.332.166.5.035.109.069.218.1.325.046.164.085.324.122.482.023.1.048.2.068.3.033.17.058.334.08.5.011.078.026.159.034.236A6.581,6.581,0,0,1,44,20a19.2,19.2,0,0,1-2.483,8.84q-.31.567-.646,1.1c-.075.119-.156.229-.233.345-.151.227-.3.456-.458.672-.011.015-.021.032-.032.047H51.781a12.641,12.641,0,0,0,1.892-1.537c2.77-2.764,3.689-11.45,3.9-16.624L45.707,24.707l-1.414-1.414,11.86-11.86C52.581,11.582,45.963,12.094,41.909,13.852Z"></path></g></svg>