<svg xmlns="http://www.w3.org/2000/svg" viewBox="0 0 64 64" x="0px" y="0px"><path d="M35,31.648V28.91A6,6,0,0,1,34,29H30a6,6,0,0,1-1-.09v2.738l3,3.75Z"></path><polygon points="34.763 40.321 32 38.25 29.237 40.321 32 46.538 34.763 40.321"></polygon><path d="M23,16.184A2.966,2.966,0,0,1,24,16a1,1,0,0,1,.875-.992c.076-.01,7.618-1,10.325-4.608a1,1,0,0,1,1.748.283c.245.726,1.172,2.759,2.5,3.422A1,1,0,0,1,40,15v1a2.966,2.966,0,0,1,1,.184V13a9,9,0,0,0-18,0Z"></path><polygon points="27.124 35.117 28.444 38.417 30.574 36.819 28.073 33.693 27.124 35.117"></polygon><path d="M40,23a6,6,0,0,1-3,5.188v2.863a12.887,12.887,0,0,1,5.865,1.93,7.964,7.964,0,0,0,.126-13.9A3,3,0,0,1,40,22Z"></path><polygon points="36.876 35.117 35.927 33.693 33.426 36.819 35.556 38.417 36.876 35.117"></polygon><path d="M43,60h4V44a11.013,11.013,0,0,0-9.005-10.81l.837,1.255a1,1,0,0,1,.1.926L32.914,49.406a1,1,0,0,1-1.828,0L25.071,35.371a1,1,0,0,1,.1-.926l.837-1.255A11.013,11.013,0,0,0,17,44V60h4V53.447a8.417,8.417,0,0,1,0-10.894V41h2v2a1,1,0,0,1-.4.8c-.9.679-1.6,2.815-1.6,4.2s.7,3.522,1.6,4.2a1,1,0,0,1,.4.8v7H41V53a1,1,0,0,1,.4-.8c.9-.679,1.6-2.815,1.6-4.2s-.7-3.522-1.6-4.2A1,1,0,0,1,41,43V41h2v1.553a8.417,8.417,0,0,1,0,10.894Z"></path><path d="M24,20V18a1,1,0,0,0,0,2Z"></path><path d="M40,18v2a1,1,0,0,0,0-2Z"></path><path d="M21.009,19.085a7.964,7.964,0,0,0,.126,13.9A12.887,12.887,0,0,1,27,31.051V28.188A6,6,0,0,1,24,23V22A3,3,0,0,1,21.009,19.085Z"></path><path d="M38,15.566a7.866,7.866,0,0,1-2.3-2.775c-2.926,2.637-7.729,3.717-9.7,4.064V23a4,4,0,0,0,4,4h4a4,4,0,0,0,4-4ZM29.92,18.38a.9.9,0,0,1-.54.54.99.99,0,0,1-1.09-.21,1.169,1.169,0,0,1-.21-.33A.838.838,0,0,1,28,18a1,1,0,1,1,2,0A1,1,0,0,1,29.92,18.38Zm6,0a1.169,1.169,0,0,1-.21.33,1.014,1.014,0,0,1-1.42,0,1.523,1.523,0,0,1-.221-.33A1,1,0,0,1,34,18a1.045,1.045,0,0,1,.29-.71,1.009,1.009,0,0,1,.91-.27.646.646,0,0,1,.18.06.776.776,0,0,1,.18.09,1.712,1.712,0,0,1,.15.12A1.05,1.05,0,0,1,36,18,1,1,0,0,1,35.92,18.38Z"></path></svg>