<svg xmlns="http://www.w3.org/2000/svg" viewBox="0 0 64 64" x="0px" y="0px"><g data-name="Files-Book"><path d="M53,2H9A1,1,0,0,0,8,3V61a1,1,0,0,0,1,1H53a3,3,0,0,0,3-3V5A3,3,0,0,0,53,2ZM10,4h6V60H10ZM44,4h4v6L46.8,8.4a1.036,1.036,0,0,0-1.6,0L44,10ZM54,59a1,1,0,0,1-1,1H18V4H42v9a1,1,0,0,0,1.8.6L46,10.667,48.2,13.6a1,1,0,0,0,.8.4,1.019,1.019,0,0,0,.316-.051A1,1,0,0,0,50,13V4h3a1,1,0,0,1,1,1Z"></path><rect x="22" y="12" width="16" height="2"></rect><rect x="22" y="8" width="4" height="2"></rect><rect x="28" y="8" width="10" height="2"></rect><rect x="22" y="18" width="10" height="2"></rect><rect x="34" y="18" width="16" height="2"></rect><rect x="22" y="22" width="16" height="2"></rect><rect x="40" y="22" width="10" height="2"></rect><rect x="22" y="26" width="28" height="2"></rect><rect x="22" y="30" width="10" height="2"></rect><rect x="34" y="30" width="6" height="2"></rect><rect x="42" y="30" width="8" height="2"></rect><rect x="22" y="34" width="8" height="2"></rect><rect x="32" y="34" width="18" height="2"></rect><rect x="22" y="38" width="28" height="2"></rect><rect x="22" y="42" width="10" height="2"></rect><rect x="34" y="42" width="4" height="2"></rect><rect x="40" y="42" width="10" height="2"></rect><rect x="22" y="46" width="28" height="2"></rect><rect x="22" y="50" width="24" height="2"></rect><rect x="48" y="50" width="2" height="2"></rect><rect x="22" y="54" width="28" height="2"></rect></g></svg>