<svg xmlns="http://www.w3.org/2000/svg" viewBox="0 0 32 32" x="0px" y="0px"><title>File Text_19</title><g data-name="File Text"><path d="M28,1a1,1,0,0,0-1-1H5A1,1,0,0,0,4,1V31a1,1,0,0,0,1,1H21a1.008,1.008,0,0,0,.416-.091,1,1,0,0,0,.343-.259l6-7a.994.994,0,0,0,.164-.278.83.83,0,0,0,.027-.094.95.95,0,0,0,.04-.223c0-.019.01-.036.01-.055ZM6,2H26V23H21a1,1,0,0,0-1,1v6H6ZM22,25h2.826L22,28.3Z"></path><path d="M23,19a1,1,0,0,0,1-1V6a1,1,0,0,0-1-1H9A1,1,0,0,0,8,6V18a1,1,0,0,0,1,1ZM10,17V15H22v2Zm0-4V11H22v2ZM22,7V9H10V7Z"></path></g></svg>