<svg xmlns="http://www.w3.org/2000/svg" viewBox="0 0 64 64" x="0px" y="0px"><g data-name="Truck"><rect x="42" y="34" width="4" height="2"></rect><rect x="11" y="46" width="2" height="2"></rect><rect x="25" y="46" width="2" height="2"></rect><rect x="48" y="46" width="2" height="2"></rect><path d="M61.287,29.535,56.44,21.456A3.019,3.019,0,0,0,53.867,20H39a1,1,0,0,0-1,1V40H36V36a1,1,0,0,0-1-1H30a1,1,0,0,0-.707.293L27.586,37H3a1,1,0,0,0-1,1v8a2,2,0,0,0,2,2H6.09a5.993,5.993,0,0,0,11.82,0h2.18a5.993,5.993,0,0,0,11.82,0H43.09a5.993,5.993,0,0,0,11.82,0H59a3,3,0,0,0,3-3V32.108A5,5,0,0,0,61.287,29.535Zm-6.561-7.049L59.234,30H44V22h9.867A1.009,1.009,0,0,1,54.726,22.486ZM38,42v4H36V42ZM12,51a4,4,0,1,1,4-4A4,4,0,0,1,12,51Zm14,0a4,4,0,1,1,4-4A4,4,0,0,1,26,51Zm0-10a6.006,6.006,0,0,0-5.91,5H17.91A5.993,5.993,0,0,0,6.09,46H4V39H28a1,1,0,0,0,.707-.293L30.414,37H34v9H31.91A6.006,6.006,0,0,0,26,41ZM49,51a4,4,0,1,1,4-4A4,4,0,0,1,49,51Zm10-5H54.91a5.993,5.993,0,0,0-11.82,0H40V22h2v9a1,1,0,0,0,1,1H59.985c0,.036.015.071.015.108V34H56a2,2,0,0,0-2,2v2a2,2,0,0,0,2,2h4v2H57v2h3v1A1,1,0,0,1,59,46Zm1-10v2H56V36Z"></path><path d="M2.594,30.914C2.969,31.081,11.87,35,19,35s16.03-3.919,16.406-4.086A1,1,0,0,0,36,30V14a1,1,0,0,0-.594-.914C35.03,12.919,26.13,9,19,9S2.969,12.919,2.594,13.086A1,1,0,0,0,2,14V30A1,1,0,0,0,2.594,30.914ZM10,31.448v-18.9c1.263-.371,2.622-.718,4-.992V32.44C12.622,32.166,11.263,31.819,10,31.448ZM34,14.662V29.338C31.906,30.2,24.694,33,19,33a22.445,22.445,0,0,1-3-.224V11.224A22.445,22.445,0,0,1,19,11C24.694,11,31.906,13.8,34,14.662Zm-30,0c.761-.314,2.2-.885,4-1.483V30.821c-1.8-.6-3.239-1.169-4-1.483Z"></path></g></svg>