<svg xmlns="http://www.w3.org/2000/svg" viewBox="0 0 64 64" x="0px" y="0px"><title>Case Fan</title><g data-name="Case Fan"><path d="M59,2H5A3,3,0,0,0,2,5V59a3,3,0,0,0,3,3H59a3,3,0,0,0,3-3V5A3,3,0,0,0,59,2Zm1,57a1,1,0,0,1-1,1H5a1,1,0,0,1-1-1V5A1,1,0,0,1,5,4H59a1,1,0,0,1,1,1Z"></path><path d="M58,48V16a1,1,0,0,0-.293-.707l-9-9A1,1,0,0,0,48,6H16a1,1,0,0,0-.707.293l-9,9A1,1,0,0,0,6,16V48a1,1,0,0,0,.293.707l9,9A1,1,0,0,0,16,58H48a1,1,0,0,0,.707-.293l9-9A1,1,0,0,0,58,48Zm-2-.414L47.586,56H16.414L8,47.586V16.414L16.414,8H47.586L56,16.414Z"></path><path d="M32.441,25a12.92,12.92,0,0,0-2.564-3.609,2.155,2.155,0,0,0-.181-.17c-5.264-5.106-11.444-3.758-13.963-1.24a1,1,0,0,0,0,1.415l9.39,9.38a6.666,6.666,0,0,0-.092.767,12.915,12.915,0,0,0-3.638,2.578,2.155,2.155,0,0,0-.17.181c-5.108,5.265-3.759,11.444-1.24,13.963a1,1,0,0,0,.707.293h0a1,1,0,0,0,.707-.293l9.38-9.39a6.666,6.666,0,0,0,.767.092,12.915,12.915,0,0,0,2.578,3.638,2.155,2.155,0,0,0,.181.17,11.367,11.367,0,0,0,7.958,3.48,8.633,8.633,0,0,0,6.005-2.24,1,1,0,0,0,0-1.415l-9.39-9.38a6.666,6.666,0,0,0,.092-.767,12.915,12.915,0,0,0,3.638-2.578c.073-.071.133-.135.193-.2,5.08-5.261,3.732-11.425,1.217-13.94a1,1,0,0,0-.707-.293h0a1,1,0,0,0-.707.293l-9.363,9.373A5.256,5.256,0,0,0,32.441,25ZM37,32a4.7,4.7,0,0,1-.179,1.3,4.983,4.983,0,0,1-4.66,3.69c-.044,0-.118,0-.161.01a4.7,4.7,0,0,1-1.3-.179,4.983,4.983,0,0,1-3.69-4.66c0-.044,0-.118-.01-.161a4.7,4.7,0,0,1,.179-1.3,4.983,4.983,0,0,1,4.66-3.69c.044,0,.118,0,.161-.01a4.7,4.7,0,0,1,1.3.179,4.983,4.983,0,0,1,3.69,4.66C36.992,31.883,36.993,31.957,37,32Zm-8.642-9.292a1.2,1.2,0,0,1,.105.1,11.358,11.358,0,0,1,1.85,2.4c-.04.01-.077.028-.118.038-.2.053-.392.119-.584.189-.1.035-.193.063-.287.1a7,7,0,0,0-2.416,1.674,6.829,6.829,0,0,0-.57.681c-.047.064-.084.134-.128.2-.124.181-.245.363-.35.554l-.016.026-7.908-7.9C20.29,19.266,24.656,19.12,28.358,22.708ZM20.771,46.064c-1.5-2.355-1.651-6.72,1.937-10.422a1.2,1.2,0,0,1,.1-.105,11.358,11.358,0,0,1,2.4-1.85c.01.04.028.077.038.118.053.2.119.392.189.584.035.1.063.193.1.287a7,7,0,0,0,1.674,2.416,6.829,6.829,0,0,0,.681.57c.064.047.134.084.2.128.181.124.363.245.554.35l.026.016Zm14.871-4.772a1.2,1.2,0,0,1-.105-.1,11.358,11.358,0,0,1-1.85-2.4c.04-.01.077-.028.118-.038.2-.053.392-.119.584-.189.1-.035.193-.063.287-.1a7.164,7.164,0,0,0,2.986-2.356c.046-.062.083-.131.126-.2.125-.182.246-.365.352-.557l.016-.026,7.908,7.9C43.711,44.735,39.345,44.881,35.642,41.292Zm7.587-23.356c1.505,2.354,1.657,6.714-1.887,10.368-.018.017-.033.036-.05.054a1.2,1.2,0,0,1-.1.105,11.358,11.358,0,0,1-2.4,1.85c-.01-.04-.028-.077-.038-.118-.053-.2-.119-.392-.189-.584-.035-.1-.063-.193-.1-.287a7.164,7.164,0,0,0-2.356-2.986c-.062-.046-.131-.083-.2-.126-.182-.125-.365-.246-.557-.352l-.026-.016Z"></path><path d="M9,32A23,23,0,1,0,32,9,23.025,23.025,0,0,0,9,32Zm44,0A21,21,0,1,1,32,11,21.024,21.024,0,0,1,53,32Z"></path><path d="M8,11A3,3,0,1,0,5,8,3,3,0,0,0,8,11ZM8,7A1,1,0,1,1,7,8,1,1,0,0,1,8,7Z"></path><path d="M56,5a3,3,0,1,0,3,3A3,3,0,0,0,56,5Zm0,4a1,1,0,1,1,1-1A1,1,0,0,1,56,9Z"></path><path d="M56,53a3,3,0,1,0,3,3A3,3,0,0,0,56,53Zm0,4a1,1,0,1,1,1-1A1,1,0,0,1,56,57Z"></path><path d="M8,53a3,3,0,1,0,3,3A3,3,0,0,0,8,53Zm0,4a1,1,0,1,1,1-1A1,1,0,0,1,8,57Z"></path></g></svg>