<svg xmlns="http://www.w3.org/2000/svg" viewBox="0 0 64 64" x="0px" y="0px"><g data-name="Mobile Phone"><path d="M45,62H19a5.006,5.006,0,0,1-5-5V7a5.006,5.006,0,0,1,5-5H45a5.006,5.006,0,0,1,5,5V57A5.006,5.006,0,0,1,45,62ZM19,4a3,3,0,0,0-3,3V57a3,3,0,0,0,3,3H45a3,3,0,0,0,3-3V7a3,3,0,0,0-3-3Z"></path><path d="M28,36H24a3,3,0,0,1,0-6h4a3,3,0,0,1,0,6Zm-4-4a1,1,0,0,0,0,2h4a1,1,0,0,0,0-2Z"></path><path d="M40,36H36a3,3,0,0,1,0-6h4a3,3,0,0,1,0,6Zm-4-4a1,1,0,0,0,0,2h4a1,1,0,0,0,0-2Z"></path><path d="M33,44H31a3,3,0,0,1,0-6h2a3,3,0,0,1,0,6Zm-2-4a1,1,0,0,0,0,2h2a1,1,0,0,0,0-2Z"></path><path d="M23,44H21a3,3,0,0,1,0-6h2a3,3,0,0,1,0,6Zm-2-4a1,1,0,0,0,0,2h2a1,1,0,0,0,0-2Z"></path><path d="M43,44H41a3,3,0,0,1,0-6h2a3,3,0,0,1,0,6Zm-2-4a1,1,0,0,0,0,2h2a1,1,0,0,0,0-2Z"></path><path d="M33,51H31a3,3,0,0,1,0-6h2a3,3,0,0,1,0,6Zm-2-4a1,1,0,0,0,0,2h2a1,1,0,0,0,0-2Z"></path><path d="M23,51H21a3,3,0,0,1,0-6h2a3,3,0,0,1,0,6Zm-2-4a1,1,0,0,0,0,2h2a1,1,0,0,0,0-2Z"></path><path d="M43,51H41a3,3,0,0,1,0-6h2a3,3,0,0,1,0,6Zm-2-4a1,1,0,0,0,0,2h2a1,1,0,0,0,0-2Z"></path><path d="M33,58H31a3,3,0,0,1,0-6h2a3,3,0,0,1,0,6Zm-2-4a1,1,0,0,0,0,2h2a1,1,0,0,0,0-2Z"></path><path d="M23,58H21a3,3,0,0,1,0-6h2a3,3,0,0,1,0,6Zm-2-4a1,1,0,0,0,0,2h2a1,1,0,0,0,0-2Z"></path><path d="M43,58H41a3,3,0,0,1,0-6h2a3,3,0,0,1,0,6Zm-2-4a1,1,0,0,0,0,2h2a1,1,0,0,0,0-2Z"></path><path d="M42,28H22a3,3,0,0,1-3-3V13a3,3,0,0,1,3-3H42a3,3,0,0,1,3,3V25A3,3,0,0,1,42,28ZM22,12a1,1,0,0,0-1,1V25a1,1,0,0,0,1,1H42a1,1,0,0,0,1-1V13a1,1,0,0,0-1-1Z"></path><rect x="28" y="6" width="8" height="2"></rect><path d="M41,18H39V16H36V14h4a1,1,0,0,1,1,1Z"></path><rect x="39" y="20" width="2" height="2"></rect></g></svg>