<svg xmlns="http://www.w3.org/2000/svg" viewBox="0 0 64 64" x="0px" y="0px"><g data-name="Online Shopping-List-Mobile-Payment-Money"><path d="M52.14,30H55V27.14A4.017,4.017,0,0,0,52.14,30Z"></path><path d="M55,16.86V14H52.14A4.017,4.017,0,0,0,55,16.86Z"></path><path d="M29,12H45V9a5,5,0,0,0-5-5H18a5,5,0,0,0-5,5V44.66l3.44-5.95a4,4,0,1,1,6.93,4l-4.21,7.28L20.37,52h7.17a3.952,3.952,0,0,1,1.26-2H27a3,3,0,0,1,0-6h4a3.009,3.009,0,0,1,3,3,2.968,2.968,0,0,1-1.14,2.33,3.955,3.955,0,0,1,2.01,1.71l.13.23V38a4,4,0,0,1,8,0v6.54A3.989,3.989,0,0,1,45,44V32H29a2.006,2.006,0,0,1-2-2V14A2.006,2.006,0,0,1,29,12ZM17,29H15V27h2Zm0-4H15V23h2Zm0-4H15V19h2Zm0-4H15V15h2ZM21,6h2V8H21Zm4,23H19V27h6Zm0-4H19V23h6Zm0-4H19V19h6Zm0-4H19V15h6Zm0-9V6h8V8Z"></path><path d="M29,16.86A4.017,4.017,0,0,0,31.86,14H29Z"></path><path d="M27,46a1,1,0,0,0,0,2h4a1,1,0,0,0,0-2Z"></path><path d="M50.09,14H33.91A5.992,5.992,0,0,1,29,18.91v6.18A5.992,5.992,0,0,1,33.91,30H50.09A5.992,5.992,0,0,1,55,25.09V18.91A5.992,5.992,0,0,1,50.09,14ZM41,21h2a3,3,0,0,1,0,6v1H41V27a3.009,3.009,0,0,1-3-3h2a1,1,0,0,0,1,1h2a1,1,0,0,0,0-2H41a3,3,0,0,1,0-6V16h2v1a3.009,3.009,0,0,1,3,3H44a1,1,0,0,0-1-1H41a1,1,0,0,0,0,2Z"></path><path d="M29,27.14V30h2.86A4.017,4.017,0,0,0,29,27.14Z"></path><path d="M59,50V61H33.69l-4.02-6.96a1.98,1.98,0,0,1-.2-1.52,2.008,2.008,0,0,1,.93-1.22,2.066,2.066,0,0,1,1.52-.2,1.942,1.942,0,0,1,1.21.94l2,3.46a1.022,1.022,0,0,0,1.13.47A1,1,0,0,0,37,55V38a2,2,0,0,1,4,0V52a1,1,0,0,0,2,0V48a2,2,0,0,1,4,0v4a1,1,0,0,0,2,0V49a2,2,0,0,1,4,0v3a1,1,0,0,0,2,0V50a2,2,0,0,1,4,0Z"></path><path d="M17.13,49.5a1.031,1.031,0,0,0,.01,1.02l2.14,3.56A4.987,4.987,0,0,1,20,56.65V61H5V43.2a8.863,8.863,0,0,1,.83-3.77l4.01-8.69A2.853,2.853,0,0,1,11,29.47V47a6.5,6.5,0,0,0,.08.99l-.64,1.11,1.73,1,6-10.39a2,2,0,1,1,3.46,2Z"></path></g></svg>