<svg xmlns="http://www.w3.org/2000/svg" viewBox="0 0 64 64" x="0px" y="0px"><g><path d="M49.97,52.757,50.781,56h8.742l-3.2-8H33.677l-3.2,8h8.742l.811-3.243A1,1,0,0,1,41,52h8A1,1,0,0,1,49.97,52.757Z"></path><polygon points="41.281 56 48.719 56 48.219 54 41.781 54 41.281 56"></polygon><path d="M23,32v2h9V33a3,3,0,0,1,3-3H53V28H11v1h9A3,3,0,0,1,23,32Z"></path><path d="M11,26H53V7a3,3,0,0,0-3-3H14a3,3,0,0,0-3,3Zm38-4H35V20H49ZM31,9a1,1,0,0,1,1-1H48a1,1,0,0,1,1,1v8a1,1,0,0,1-1,1H32a1,1,0,0,1-1-1Zm0,11h2v2H31ZM19,8h8v2H19ZM15,8h2v2H15Zm0,4H27v2H15Zm0,4H27v2H15Zm0,4H27v2H15Z"></path><path d="M47,10H33v6H47ZM37,14H35V12h2Zm8,0H39V12h6Z"></path><rect x="10" y="31" width="6" height="1"></rect><polygon points="32 42 32 36 26.883 36 26.133 42 32 42"></polygon><rect x="23" y="44" width="9" height="2"></rect><rect x="30" y="58" width="30" height="2"></rect><path d="M6,57H20a1,1,0,0,0,1-1V32a1,1,0,0,0-1-1H18v1a2,2,0,0,1-2,2H10a2,2,0,0,1-2-2V31H6a1,1,0,0,0-1,1V56A1,1,0,0,0,6,57ZM16,43h2v2H16Zm-4,0h2v2H12ZM8,43h2v2H8Z"></path><path d="M34,33V46H56V33a1,1,0,0,0-1-1H35A1,1,0,0,0,34,33Zm14,5h2v2H48Zm-4,0h2v2H44Zm-4,0h2v2H40Z"></path></g></svg>