<svg xmlns="http://www.w3.org/2000/svg" viewBox="0 0 64 64" x="0px" y="0px"><g data-name="Heart Rate-Smartphone-Romantic-Healthcare-Love"><path d="M46,2H18a6.006,6.006,0,0,0-6,6V56a6.006,6.006,0,0,0,6,6H46a6.006,6.006,0,0,0,6-6V8A6.006,6.006,0,0,0,46,2Zm4,54a4,4,0,0,1-4,4H18a4,4,0,0,1-4-4V8a4,4,0,0,1,4-4H46a4,4,0,0,1,4,4Z"></path><path d="M34,52H30a3,3,0,0,0,0,6h4a3,3,0,0,0,0-6Zm0,4H30a1,1,0,0,1,0-2h4a1,1,0,0,1,0,2Z"></path><rect x="25" y="6" width="2" height="2"></rect><rect x="29" y="6" width="6" height="2"></rect><path d="M31.293,27.707a1,1,0,0,0,1.414,0l7.071-7.071a5,5,0,0,0-7.071-7.071L32,14.272l-.707-.707a5,5,0,0,0-7.071,7.071ZM25.636,14.979a3,3,0,0,1,4.243,0l1.414,1.415a1.029,1.029,0,0,0,1.414,0l1.414-1.415a3,3,0,0,1,4.243,4.243L32,25.586l-6.364-6.364A3.005,3.005,0,0,1,25.636,14.979Z"></path><path d="M38.9,36.553A.985.985,0,0,0,37.914,36a1,1,0,0,0-.872.709l-1.881,6.268-2.183-10.19A1,1,0,0,0,32.027,32a.99.99,0,0,0-.992.737l-2.057,7.545-1.016-3.557A1,1,0,0,0,27.093,36a.989.989,0,0,0-.988.549L24.382,40H18v2h7a1,1,0,0,0,.895-.553l.85-1.7,1.293,4.528A1,1,0,0,0,29,45h.006a1,1,0,0,0,.959-.737l1.919-7.035,2.138,9.981a1,1,0,0,0,.938.79H35a1,1,0,0,0,.958-.713L38.233,39.7l.872,1.744A1,1,0,0,0,40,42h6V40H40.618Z"></path></g></svg>