<svg xmlns="http://www.w3.org/2000/svg" viewBox="0 0 64 64" x="0px" y="0px"><g><rect x="21" y="6" width="2" height="2"></rect><rect x="25" y="6" width="8" height="2"></rect><path d="M56,46a3.94,3.94,0,0,0-2.57.94A4.012,4.012,0,0,0,50,45a3.94,3.94,0,0,0-2.57.94A4,4,0,0,0,46,44.54V9a7.008,7.008,0,0,0-7-7H19a7.008,7.008,0,0,0-7,7V28.3a3.026,3.026,0,0,0-1.45,1.44L6.01,39.59A11.085,11.085,0,0,0,5,44.19V62H7V44.19a9.038,9.038,0,0,1,.83-3.76L12,31.38V45a6.994,6.994,0,0,0,.89,3.41.992.992,0,0,0,1.79.05l4.49-7.75a2.033,2.033,0,0,1,2.73-.73,1.986,1.986,0,0,1,.73,2.73l-4.5,7.79a1.031,1.031,0,0,0,.01,1.02l2.14,3.55A5.049,5.049,0,0,1,21,57.65v4.34h2V57.65a7.143,7.143,0,0,0-1-3.61L20.77,52h5.77a4.209,4.209,0,0,0-.14,1.05,3.943,3.943,0,0,0,.54,1.99l4.31,7.46,1.73-1-4.31-7.46a1.98,1.98,0,0,1-.2-1.52,2.008,2.008,0,0,1,.93-1.22,2.06,2.06,0,0,1,1.52-.2,1.942,1.942,0,0,1,1.21.94l2,3.46a1.022,1.022,0,0,0,1.13.47A1,1,0,0,0,36,55V38a2,2,0,0,1,4,0V52a1,1,0,0,0,2,0V48a2,2,0,0,1,4,0v4a1,1,0,0,0,2,0V49a2,2,0,0,1,4,0v3a1,1,0,0,0,2,0V50a2,2,0,0,1,4,0V62h2V50A4,4,0,0,0,56,46ZM44,44a3.989,3.989,0,0,0-2,.54V38a4,4,0,0,0-8,0V50H32.99a4.084,4.084,0,0,0-1.55-.83,4.038,4.038,0,0,0-3.04.4,5.047,5.047,0,0,0-.6.43H20.73l3.44-5.95A2.961,2.961,0,0,0,27,48h4a3,3,0,0,0,0-6H27a3.015,3.015,0,0,0-2.43,1.25,3.974,3.974,0,0,0-3.67-5.54,4.044,4.044,0,0,0-3.47,2l-3.4,5.88A5.828,5.828,0,0,1,14,45V9a5,5,0,0,1,5-5H39a5,5,0,0,1,5,5ZM26,45a1,1,0,0,1,1-1h4a1,1,0,0,1,0,2H27A1,1,0,0,1,26,45Z"></path><path d="M36,20V17a7,7,0,0,0-14,0v3a2.006,2.006,0,0,0-2,2V32a2.006,2.006,0,0,0,2,2H36a2.006,2.006,0,0,0,2-2V22A2.006,2.006,0,0,0,36,20ZM24,17a5,5,0,0,1,10,0v3H32V17a3,3,0,0,0-6,0v3H24Zm6,0v3H28V17a1,1,0,0,1,2,0Zm6,15H22V22H36Z"></path><path d="M29,24a1.994,1.994,0,0,0-1,3.722V30h2V27.722A1.994,1.994,0,0,0,29,24Z"></path></g></svg>