<svg xmlns="http://www.w3.org/2000/svg" viewBox="0 0 64 64" x="0px" y="0px"><g data-name="Washing Machine"><circle cx="42" cy="14" r="1"></circle><path d="M54,10H10v8H54ZM22,17a3,3,0,1,1,3-3A3,3,0,0,1,22,17Zm10,0a3,3,0,1,1,3-3A3,3,0,0,1,32,17Zm10,0a3,3,0,1,1,3-3A3,3,0,0,1,42,17Z"></path><rect x="7" y="4" width="50" height="4"></rect><rect x="45" y="33" width="2" height="8"></rect><circle cx="32" cy="14" r="1"></circle><circle cx="22" cy="14" r="1"></circle><path d="M32,50a13.073,13.073,0,0,0,11.57-7.106A.993.993,0,0,1,43,42V39A9.629,9.629,0,0,1,39.238,37.9a7.69,7.69,0,0,0-3.908-.942,7.653,7.653,0,0,0-3.9.941A9.692,9.692,0,0,1,26.66,39.04,9.641,9.641,0,0,1,21.9,37.9a7.7,7.7,0,0,0-2.9-.891A13.015,13.015,0,0,0,32,50Z"></path><path d="M26.66,37.04a7.687,7.687,0,0,0,3.908-.942A9.656,9.656,0,0,1,35.33,34.96,9.692,9.692,0,0,1,40.1,36.1a7.7,7.7,0,0,0,2.9.891V32a.993.993,0,0,1,.57-.894,12.978,12.978,0,0,0-24.4,3.913,9.667,9.667,0,0,1,3.6,1.079A7.637,7.637,0,0,0,26.66,37.04Z"></path><path d="M10,54H54V20H10Zm7.04-18.042a.781.781,0,0,1,.017-.084A14.979,14.979,0,0,1,45.729,31H48a1,1,0,0,1,1,1V42a1,1,0,0,1-1,1H45.729A14.989,14.989,0,0,1,17,37c0-.335.029-.662.05-.992C17.049,35.991,17.04,35.976,17.04,35.958Z"></path><rect x="7" y="56" width="50" height="4"></rect></g></svg>