<svg xmlns="http://www.w3.org/2000/svg" viewBox="0 0 64 64" x="0px" y="0px"><g><path d="M42.27,45H53.743a6.952,6.952,0,0,0-3.117-2.482A1,1,0,0,1,50,41.59V36H46v5.59a1,1,0,0,1-.626.928A6.968,6.968,0,0,0,42.27,45Z"></path><path d="M54.71,47H41.97l3.49,8a4.313,4.313,0,0,1,.22.6A7,7,0,0,0,54.71,47ZM48,51H46V49h2Zm4,2H50V51h2Z"></path><path d="M44,33a1,1,0,0,0,1,1h6a1,1,0,0,0,0-2H45A1,1,0,0,0,44,33Z"></path><polygon points="31 23.382 34 24.882 37 23.382 37 19.618 34 18.118 31 19.618 31 23.382"></polygon><polygon points="33 16.382 33 12.618 30 11.118 27 12.618 27 16.382 30 17.882 33 16.382"></polygon><path d="M41,37a1,1,0,0,0-1-1H34a1,1,0,0,0,0,2h6A1,1,0,0,0,41,37Z"></path><path d="M35,40v5a.983.983,0,0,1-.084.4l-1.681,3.843a4.942,4.942,0,0,0,1.425.177,5.02,5.02,0,0,0,2-.361,6.878,6.878,0,0,1,2.668-.479,8.074,8.074,0,0,1,1.181.081L39.084,45.4A.983.983,0,0,1,39,45V40Z"></path><path d="M43.63,55.8l-2.09-4.79c-.07-.02-.15-.05-.23-.07a5.653,5.653,0,0,0-3.97,0,7.712,7.712,0,0,1-4.91.15L30.37,55.8a2.912,2.912,0,0,0,.24,2.84A2.943,2.943,0,0,0,33.12,60h7.76a2.943,2.943,0,0,0,2.51-1.36A2.912,2.912,0,0,0,43.63,55.8ZM35,58H33V56h2Zm4-2H37V54h2Z"></path><path d="M49,4H47a1,1,0,0,0-1,1V18h4.184A2.966,2.966,0,0,1,50,17V5A1,1,0,0,0,49,4Z"></path><path d="M54,18h1a1,1,0,0,0,1-1V12H52v5a1,1,0,0,0,1,1Z"></path><polygon points="25 16.382 25 12.618 22 11.118 19 12.618 19 16.382 22 17.882 25 16.382"></polygon><polygon points="23 23.382 26 24.882 29 23.382 29 19.618 26 18.118 23 19.618 23 23.382"></polygon><path d="M9,4A1,1,0,0,0,8,5V53H29.41L33,44.79V39.82A3,3,0,0,1,34,34h6a3,3,0,0,1,1,5.82v3.54a9.06,9.06,0,0,1,3-2.42V35.82a2.988,2.988,0,0,1,0-5.64V5a3,3,0,0,1,.18-1ZM19,45H13V43h6Zm0-4H13V39h6Zm0-4H13V35h6Zm0-4H13V31h6ZM29,45H21V43h8Zm0-4H21V39h8Zm0-4H21V35h8Zm0-4H21V31h8Zm10-9a.988.988,0,0,1-.55.89l-4,2a.975.975,0,0,1-.9,0L30,25.12l-3.55,1.77a.975.975,0,0,1-.9,0L22,25.12l-3.55,1.77a.975.975,0,0,1-.9,0l-4-2A.988.988,0,0,1,13,24V19a.988.988,0,0,1,.55-.89L17,16.38V12a.988.988,0,0,1,.55-.89l4-2a.956.956,0,0,1,.9,0L26,10.88l3.55-1.77a.956.956,0,0,1,.9,0l4,2A.988.988,0,0,1,35,12v4.38l3.45,1.73A.988.988,0,0,1,39,19Z"></path><polygon points="21 23.382 21 19.618 18 18.118 15 19.618 15 23.382 18 24.882 21 23.382"></polygon></g></svg>