<svg xmlns="http://www.w3.org/2000/svg" viewBox="0 0 64 64" x="0px" y="0px"><g><path d="M46,19V8a6,6,0,0,0-6-6H12A6,6,0,0,0,6,8V56a6,6,0,0,0,6,6H40a6,6,0,0,0,6-6V39H44v9H8V14h4v7a.987.987,0,0,0,.62.92,1,1,0,0,0,1.09-.21L16,19.41l2.29,2.3A1.007,1.007,0,0,0,19,22a.838.838,0,0,0,.38-.08A.987.987,0,0,0,20,21V14H44v5ZM44,50v6a4,4,0,0,1-4,4H12a4,4,0,0,1-4-4V50ZM18,18.59l-1.29-1.3a1.014,1.014,0,0,0-1.42,0L14,18.59V14h4ZM8,12V8a4,4,0,0,1,4-4H40a4,4,0,0,1,4,4v4Z"></path><path d="M28,52H24a3,3,0,0,0,0,6h4a3,3,0,0,0,0-6Zm0,4H24a1,1,0,0,1,0-2h4a1,1,0,0,1,0,2Z"></path><rect x="19" y="6" width="2" height="2"></rect><rect x="23" y="6" width="6" height="2"></rect><path d="M57.163,16.837a5.006,5.006,0,0,0-7.071,0L33.828,33.1a.988.988,0,0,0-.226.347l-3.536,9.193a1,1,0,0,0,1.293,1.293L40.552,40.4a.988.988,0,0,0,.347-.226L57.163,23.908A5.008,5.008,0,0,0,57.163,16.837ZM38.4,39.084l-2.042.785-2.224-2.224.785-2.042Zm.381-2.448L52.213,23.2l1.415,1.414L40.192,38.051Zm-1.414-1.414-1.415-1.414L49.385,20.372,50.8,21.787Zm-4.019,4.466.967.967-1.571.6Zm22.4-17.194-.707.707L50.8,18.958l.707-.707a3,3,0,0,1,4.243,4.243Z"></path><rect x="12" y="26" width="23" height="2"></rect><rect x="24" y="20" width="11" height="2"></rect><rect x="24" y="16" width="2" height="2"></rect><rect x="28" y="16" width="7" height="2"></rect><rect x="12" y="30" width="18" height="2"></rect><rect x="12" y="34" width="18" height="2"></rect><rect x="12" y="38" width="8" height="2"></rect><rect x="22" y="38" width="6" height="2"></rect><rect x="12" y="42" width="14" height="2"></rect></g></svg>