<svg xmlns="http://www.w3.org/2000/svg" viewBox="0 0 64 64" x="0px" y="0px"><g data-name="Solar Panel"><polygon points="35.153 18 35.867 23 41.674 23 40.246 18 35.153 18"></polygon><polygon points="27 32 27 37 35.847 37 35.133 32 27 32"></polygon><polygon points="25 39 15.867 39 15.153 44 25 44 25 39"></polygon><polygon points="27 18 27 23 33.847 23 33.133 18 27 18"></polygon><polygon points="27 25 27 30 34.847 30 34.133 25 27 25"></polygon><rect x="31" y="50" width="1" height="2"></rect><polygon points="36.153 25 36.867 30 43.674 30 42.246 25 36.153 25"></polygon><polygon points="36.133 39 27 39 27 44 36.847 44 36.133 39"></polygon><rect x="23" y="46" width="6" height="10"></rect><polygon points="45.674 37 44.246 32 37.153 32 37.867 37 45.674 37"></polygon><polygon points="6.326 37 14.133 37 14.847 32 7.754 32 6.326 37"></polygon><rect x="20" y="50" width="1" height="2"></rect><polygon points="13.847 39 5.754 39 4.326 44 13.133 44 13.847 39"></polygon><rect x="20" y="58" width="12" height="2"></rect><polygon points="46.246 39 38.153 39 38.867 44 47.674 44 46.246 39"></polygon><polygon points="25 18 18.867 18 18.153 23 25 23 25 18"></polygon><polygon points="16.153 37 25 37 25 32 16.867 32 16.153 37"></polygon><polygon points="8.326 30 15.133 30 15.847 25 9.754 25 8.326 30"></polygon><polygon points="17.153 30 25 30 25 25 17.867 25 17.153 30"></polygon><polygon points="10.326 23 16.133 23 16.847 18 11.754 18 10.326 23"></polygon><circle cx="52" cy="12" r="4"></circle><rect x="51" y="2" width="2" height="2"></rect><rect x="44.636" y="4.636" width="2" height="2" transform="translate(9.381 33.92) rotate(-45)"></rect><rect x="42" y="11" width="2" height="2"></rect><rect x="44.636" y="17.364" width="2" height="2" transform="translate(0.381 37.648) rotate(-45)"></rect><rect x="51" y="20" width="2" height="2"></rect><rect x="57.364" y="17.364" width="2" height="2" transform="translate(4.109 46.648) rotate(-45)"></rect><rect x="60" y="11" width="2" height="2"></rect><rect x="57.364" y="4.636" width="2" height="2" transform="translate(13.109 42.92) rotate(-45)"></rect></g></svg>