<svg xmlns="http://www.w3.org/2000/svg" viewBox="0 0 48 48" x="0px" y="0px"><title>Delivery Man</title><g data-name="Delivery Man"><rect x="18" y="33" width="12" height="2"></rect><path d="M43.339,36.5l-1.58-10.539A7.046,7.046,0,0,0,34.83,20H28V18a.969.969,0,0,0-.046-.229A7,7,0,0,0,31,12V10h3V8h-3.3A7,7,0,0,0,17,10v2a7,7,0,0,0,3.046,5.771A.98.98,0,0,0,20,18v2H13.17a7.046,7.046,0,0,0-6.929,5.961L4.661,36.5a4.7,4.7,0,0,0,1.1,3.759A5.064,5.064,0,0,0,9.61,42H16a2,2,0,0,0,2-2V39H30v1a2,2,0,0,0,2,2h6.39a5.063,5.063,0,0,0,3.846-1.738A4.7,4.7,0,0,0,43.339,36.5ZM24,5a5,5,0,0,1,4.576,3H19.424A5,5,0,0,1,24,5Zm-5,7V10H29v2a5,5,0,0,1-10,0Zm3,7h4v1H22ZM8.219,26.258A5.033,5.033,0,0,1,13.17,22H34.83a5.032,5.032,0,0,1,4.95,4.258L40.041,28H36V24a1,1,0,0,0-1-1H13a1,1,0,0,0-1,1v4H7.958ZM14,37V29h7v1a1,1,0,0,0,1,1h4a1,1,0,0,0,1-1V29h7v8ZM34,25v2H27V25Zm-9,3v1H23V25h2Zm-4-1H14V25h7ZM6.639,36.8,7.658,30H12v6H11a2,2,0,0,0-2,2v1.936a3.02,3.02,0,0,1-1.721-.98A2.668,2.668,0,0,1,6.639,36.8ZM16,40H11V38h1a1,1,0,0,0,1,1h3Zm16,0V39h3a1,1,0,0,0,1-1h1v2Zm8.722-1.044a3.025,3.025,0,0,1-1.722.98V38a2,2,0,0,0-2-2H36V30h4.341l1.019,6.8A2.665,2.665,0,0,1,40.722,38.956Z"></path></g></svg>