<svg xmlns="http://www.w3.org/2000/svg" viewBox="0 0 64 64" x="0px" y="0px"><title>Truck-Delivery-Cargo-Transportation</title><g><rect x="42" y="37" width="4" height="2"></rect><rect x="13" y="49" width="2" height="2"></rect><rect x="48" y="49" width="2" height="2"></rect><path d="M61.31,32.574l-4.864-9a2.99,2.99,0,0,0-2.5-1.553A13.008,13.008,0,0,0,41,10H40V9a1,1,0,0,0-1-1H3A1,1,0,0,0,2,9V49a2,2,0,0,0,2,2H8.09a5.993,5.993,0,0,0,11.82,0H43.09a5.993,5.993,0,0,0,11.82,0H59a3,3,0,0,0,3-3V35.108A4.959,4.959,0,0,0,61.31,32.574Zm-6.623-8.05L59.267,33H44V24h9.808A1,1,0,0,1,54.687,24.524ZM41,12A11.01,11.01,0,0,1,51.949,22H40V12ZM4,10H38V40H4ZM14,54a4,4,0,1,1,4-4A4,4,0,0,1,14,54Zm0-10a6.006,6.006,0,0,0-5.91,5H4V42H38v7H19.91A6.006,6.006,0,0,0,14,44ZM49,54a4,4,0,1,1,4-4A4,4,0,0,1,49,54Zm10-5H54.91a5.993,5.993,0,0,0-11.82,0H40V24h2V34a1,1,0,0,0,1,1H59.985c0,.037.015.072.015.108V37H56a2,2,0,0,0-2,2v2a2,2,0,0,0,2,2h4v2H57v2h3v1A1,1,0,0,1,59,49Zm1-10v2H56V39Z"></path><path d="M30.406,17.086l-9-4a1,1,0,0,0-.812,0l-9,4A1,1,0,0,0,11,18v5.939A13.006,13.006,0,0,0,17.687,35.3l2.828,1.571a1,1,0,0,0,.97,0L24.313,35.3A13.008,13.008,0,0,0,31,23.939V18A1,1,0,0,0,30.406,17.086ZM29,23.939a11.007,11.007,0,0,1-5.657,9.616L21,34.856l-2.343-1.3A11.007,11.007,0,0,1,13,23.939v-5.29L21,15.1l8,3.554Z"></path><path d="M17.707,23.293l-1.414,1.414,3,3a1,1,0,0,0,1.414,0l5-5-1.414-1.414L20,25.586Z"></path></g></svg>