<svg xmlns="http://www.w3.org/2000/svg" viewBox="0 0 64 64" x="0px" y="0px"><g><path d="M17.5,39.35A3.009,3.009,0,0,1,20,38H15A3.009,3.009,0,0,1,17.5,39.35Z"></path><path d="M12.5,39.35A3.009,3.009,0,0,1,15,38H10A3.009,3.009,0,0,1,12.5,39.35Z"></path><path d="M45.82,40H48V38H43A3.01,3.01,0,0,1,45.82,40Z"></path><path d="M34,40h1.18A3.01,3.01,0,0,1,38,38H34Z"></path><path d="M6,40H7.18A3.01,3.01,0,0,1,10,38H6Z"></path><rect x="55" y="28" width="2" height="4"></rect><path d="M57.82,40H60V35.56L57.49,34H54a1,1,0,0,1-1-1V28H50V40h2.18a2.988,2.988,0,0,1,5.64,0Z"></path><path d="M40.5,39.35A3.009,3.009,0,0,1,43,38H38A3.009,3.009,0,0,1,40.5,39.35Z"></path><path d="M44,22H4V36H44ZM9,34H7V24H9Zm4,0H11V24h2Zm4,0H15V24h2Zm4,0H19V24h2Zm4,0H23V24h2Zm4,0H27V24h2Zm4,0H31V24h2Zm4,0H35V24h2Zm4,0H39V24h2Z"></path><path d="M22.82,40H24V38H20A3.01,3.01,0,0,1,22.82,40Z"></path><polygon points="38 44 20 44 15 44 10 44 2 44 2 46 62 46 62 44 55 44 43 44 38 44"></polygon><rect x="20" y="16" width="12" height="2"></rect><rect x="16" y="12" width="12" height="2"></rect><rect x="12" y="12" width="2" height="2"></rect><circle cx="10" cy="42" r="2"></circle><circle cx="15" cy="42" r="2"></circle><circle cx="20" cy="42" r="2"></circle><circle cx="38" cy="42" r="2"></circle><circle cx="43" cy="42" r="2"></circle><circle cx="55" cy="42" r="2"></circle></g></svg>