<svg xmlns="http://www.w3.org/2000/svg" viewBox="0 0 64 64" x="0px" y="0px"><title>Payment-Credit card-Book</title><g data-name="Payment-Credit card-Book"><path d="M15,12H53V42h2V3a1,1,0,0,0-1-1H14A5.006,5.006,0,0,0,9,7V57a5.006,5.006,0,0,0,5,5H36V60H15ZM14,4H53V6H15V8H53v2H14a3,3,0,0,1,0-6ZM11,57V10.974a4.954,4.954,0,0,0,2,.925V59.816A3,3,0,0,1,11,57Z"></path><path d="M20,16a1,1,0,0,0-1,1V27a1,1,0,0,0,1,1H48a1,1,0,0,0,1-1V17a1,1,0,0,0-1-1ZM47,26H21V18H47Z"></path><path d="M59,46H39a1,1,0,0,0-1,1V61a1,1,0,0,0,1,1H59a1,1,0,0,0,1-1V47A1,1,0,0,0,59,46ZM58,60H40V48H58Z"></path><path d="M51,55a2.965,2.965,0,0,0,1.507-.421A2.959,2.959,0,0,0,54,55a3,3,0,0,0,0-6,2.959,2.959,0,0,0-1.493.421A2.965,2.965,0,0,0,51,49a3,3,0,0,0,0,6Zm4-3a1,1,0,0,1-1,1,.928.928,0,0,1-.172-.038,2.776,2.776,0,0,0,0-1.924A.928.928,0,0,1,54,51,1,1,0,0,1,55,52Zm-4-1a1,1,0,1,1-1,1A1,1,0,0,1,51,51Z"></path><rect x="42" y="50" width="4" height="2"></rect><rect x="42" y="56" width="14" height="2"></rect></g></svg>