<svg xmlns="http://www.w3.org/2000/svg" viewBox="0 0 64 64" x="0px" y="0px"><title>Charge Battery</title><g data-name="Charge Battery"><path d="M44,2H20a5.006,5.006,0,0,0-5,5V57a5.006,5.006,0,0,0,5,5H44a5.006,5.006,0,0,0,5-5V7A5.006,5.006,0,0,0,44,2Zm0,58H20a3,3,0,0,1-3-3V12H43V10H17V7a3,3,0,0,1,3-3H44a3,3,0,0,1,3,3V50H21v2H47v5A3,3,0,0,1,44,60Z"></path><rect x="31" y="55" width="2" height="2"></rect><rect x="24" y="6" width="2" height="2"></rect><rect x="28" y="6" width="2" height="2"></rect><path d="M21,16h3V14H20a1,1,0,0,0-1,1v4h2Z"></path><path d="M26,44H38a1,1,0,0,0,1-1V23a1,1,0,0,0-1-1H35V20a1,1,0,0,0-1-1H30a1,1,0,0,0-1,1v2H26a1,1,0,0,0-1,1V43A1,1,0,0,0,26,44Zm5-23h2v1H31Zm-4,3H37V42H27Z"></path><polygon points="34.868 26.496 33.132 25.504 28.277 34 32.277 34 29.132 39.504 30.868 40.496 35.723 32 31.723 32 34.868 26.496"></polygon></g></svg>