<svg xmlns="http://www.w3.org/2000/svg" viewBox="0 0 64 64" x="0px" y="0px"><g><path d="M34,54H30a1,1,0,0,0,0,2h4a1,1,0,0,0,0-2Z"></path><path d="M14,48H50V8H14ZM46,32H44V30h2Zm0-4H24V26H46Zm0-10H44V16h2Zm-8-6h8v2H38Zm-4,0h2v2H34Zm0,4h8v2H34Zm0,4H46v2H34ZM18,13a1,1,0,0,1,1-1H31a1,1,0,0,1,1,1v8a1,1,0,0,1-1,1H19a1,1,0,0,1-1-1Zm0,17H42v2H18Zm0,4H46v2H18Zm0,4H46v2H18Zm0,4H42v2H18Z"></path><rect x="20" y="14" width="10" height="6"></rect><path d="M54,7a3,3,0,0,0-3-3H13a3,3,0,0,0-3,3V57a3,3,0,0,0,3,3H51a3,3,0,0,0,3-3ZM34,58H30a3,3,0,0,1,0-6h4a3,3,0,0,1,0,6ZM52,48a2,2,0,0,1-2,2H14a2,2,0,0,1-2-2V8a2,2,0,0,1,2-2H50a2,2,0,0,1,2,2Z"></path></g></svg>