<svg xmlns="http://www.w3.org/2000/svg" data-name="Feedback-Rating-Heart-Social Media-Smartphone" viewBox="0 0 64 64" x="0px" y="0px"><path d="M14.2,56.4,17,52.67V50.79a6.922,6.922,0,0,1,.24-1.81l1.86-6.97a.974.974,0,0,0-.1-.76,1,1,0,0,0-1.36-.36,1,1,0,0,0-.47.61l-1.15,4.3a2.974,2.974,0,0,1-2.88,2.21H13.1a2.956,2.956,0,0,1-2.53-1.45L8.14,42.51A1,1,0,0,1,8,42V34.1A5.009,5.009,0,0,0,4,39V50.88l.97,3.88A.986.986,0,0,1,5,55v6h9V57A.984.984,0,0,1,14.2,56.4Z"></path><path d="M20.37,45l-.53,2H25a3.009,3.009,0,0,0,3-3V20a3.009,3.009,0,0,0-3-3H13a3.009,3.009,0,0,0-3,3V41.72l2.29,3.81a.953.953,0,0,0,.83.48,1.029,1.029,0,0,0,.97-.73l1.15-4.3a3.007,3.007,0,0,1,5.5-.73,3.032,3.032,0,0,1,.3,2.28l-.13.47H22v2ZM25,31H13V29H25Zm0-4H13V25H25Zm-9-8h6v2H16Zm-4,2V19h2v2Zm1,14V33H25v2Z"></path><path d="M53.414,24.343l-.707.707a1,1,0,0,1-1.414,0l-.707-.706a1,1,0,1,0-1.414,1.414L52,28.586l2.828-2.828a1,1,0,1,0-1.414-1.415Z"></path><path d="M42.414,33.343l-.707.707a1,1,0,0,1-1.414,0l-.707-.706a1,1,0,1,0-1.414,1.414L41,37.586l2.828-2.828a1,1,0,1,0-1.414-1.415Z"></path><path d="M52,19a7.008,7.008,0,0,0-7,7,6.607,6.607,0,0,0,.08.99,9.009,9.009,0,0,1,4.58,5.6A6.9,6.9,0,0,0,52,33a7,7,0,0,0,0-14Zm4.242,8.172-3.535,3.535a1,1,0,0,1-1.414,0l-3.535-3.535A3,3,0,0,1,52,22.928h0a3,3,0,0,1,4.242,4.243Z"></path><path d="M41,28a7,7,0,1,0,7,7A7.008,7.008,0,0,0,41,28Zm4.242,8.172-3.535,3.535a1,1,0,0,1-1.414,0l-3.535-3.535A3,3,0,0,1,41,31.928h0a3,3,0,0,1,4.242,4.243Z"></path><path d="M38,13a5,5,0,1,0,5,5A5,5,0,0,0,38,13Zm2.12,4.88-.71.71L38,20l-1.41-1.41-.71-.71a1.008,1.008,0,0,1,0-1.42,1,1,0,0,1,1.41,0l.71.71.71-.71a1,1,0,0,1,1.41,0A1.008,1.008,0,0,1,40.12,17.88Z"></path><path d="M48.707,11.464,48,12.172l-.707-.708a1,1,0,0,0-1.414,1.415l.707.707L48,15l1.414-1.414.707-.707a1,1,0,1,0-1.414-1.415Z"></path></svg>