<svg xmlns="http://www.w3.org/2000/svg" viewBox="0 0 64 64" x="0px" y="0px"><g><circle cx="54" cy="59" r="2"></circle><circle cx="46" cy="59" r="2"></circle><polygon points="54 37 56 37 56 35 58 35 58 33 56 33 56 31 54 31 54 33 52 33 52 35 54 35 54 37"></polygon><polygon points="42 31 42 33 44 33 44 35 46 35 46 33 48 33 48 31 46 31 46 29 44 29 44 31 42 31"></polygon><path d="M22,52H20a5,5,0,0,1-5-5V41.3l-2,.62V54h9Z"></path><path d="M26,5.23v4.8A5.013,5.013,0,0,1,27.9,13h5.05a8.94,8.94,0,0,0-2.59-5.36c-.11-.12-.24-.21-.36-.32V11H28V5.95A9.024,9.024,0,0,0,26,5.23Z"></path><path d="M57.83,44c-.76-2.25-4.04-4-7.83-4s-7.07,1.75-7.83,4Z"></path><rect x="13" y="56" width="9" height="4"></rect><path d="M11,42.55l-2.09.65A6.964,6.964,0,0,0,4,49.88V60H7V53a.988.988,0,0,1,.55-.89L11,50.38Z"></path><polygon points="11 60 11 52.62 9 53.62 9 60 11 60"></polygon><polygon points="37 53.62 35 52.62 35 60 37 60 37 53.62"></polygon><path d="M42,57.55V60H39V53A4.972,4.972,0,0,0,42,57.55Z"></path><path d="M38,48V46a1.981,1.981,0,0,1,1.1-1.77,6.834,6.834,0,0,0-2.01-1.03L35,42.55v7.83l3.45,1.73A.988.988,0,0,1,39,53V49.72A2,2,0,0,1,38,48Z"></path><path d="M13.06,13H18.1A5.013,5.013,0,0,1,20,10.03V5.23a9.209,9.209,0,0,0-2,.72V11H16V7.31A9,9,0,0,0,13.06,13Z"></path><path d="M22,9.1a5.05,5.05,0,0,1,2,0V4a1,1,0,0,0-2,0Z"></path><circle cx="23" cy="14" r="3"></circle><path d="M9,17H19.03a4.84,4.84,0,0,1-.93-2H9Z"></path><path d="M29,47V40.67l-2.3-.72A.987.987,0,0,1,26,39V35.57a10.68,10.68,0,0,1-6,0V39a.987.987,0,0,1-.7.95l-2.3.72V47a3.009,3.009,0,0,0,3,3h6A3.009,3.009,0,0,0,29,47Z"></path><path d="M59,53V50H41v3a3.009,3.009,0,0,0,3,3H56A3.009,3.009,0,0,0,59,53Z"></path><path d="M14,25a9,9,0,0,0,18,0V19H14Zm13-5a2,2,0,1,1-2,2A2,2,0,0,1,27,20Zm-1.872,7.118,1.4,1.424a5.007,5.007,0,0,1-7.064,0l1.4-1.424A3.082,3.082,0,0,0,25.128,27.118ZM19,20a2,2,0,1,1-2,2A2,2,0,0,1,19,20Z"></path><rect x="40" y="46" width="20" height="2"></rect><rect x="24" y="56" width="9" height="4"></rect><path d="M33,41.92l-2-.62V47a5,5,0,0,1-5,5H24v2h9Z"></path><path d="M7.02,27.81a1.035,1.035,0,0,1,.62.64.99.99,0,0,1-.13.88A2.964,2.964,0,0,0,7,31a3.009,3.009,0,0,0,3,3,2.911,2.911,0,0,0,1.67-.51.993.993,0,0,1,.87-.12,1.035,1.035,0,0,1,.64.62A2.963,2.963,0,0,0,18,35.21v-.42A11.014,11.014,0,0,1,12,25V19H10v2.15a1.014,1.014,0,0,1-.4.8.97.97,0,0,1-.87.16A2.876,2.876,0,0,0,8,22a3.009,3.009,0,0,0-3,3A2.968,2.968,0,0,0,7.02,27.81Z"></path><path d="M38,22a2.876,2.876,0,0,0-.73.11.97.97,0,0,1-.87-.16,1.014,1.014,0,0,1-.4-.8V19H34v6a11.014,11.014,0,0,1-6,9.79v.42a2.963,2.963,0,0,0,4.82-1.22,1.035,1.035,0,0,1,.64-.62,1,1,0,0,1,.87.12A2.911,2.911,0,0,0,36,34a3.009,3.009,0,0,0,3-3,2.964,2.964,0,0,0-.51-1.67.99.99,0,0,1-.13-.88,1.035,1.035,0,0,1,.62-.64A2.968,2.968,0,0,0,41,25,3.009,3.009,0,0,0,38,22Z"></path><path d="M26.97,17H37V15H27.9A4.84,4.84,0,0,1,26.97,17Z"></path></g></svg>