<svg xmlns="http://www.w3.org/2000/svg" viewBox="0 0 64 64" x="0px" y="0px"><g data-name="Playground"><rect x="21" y="44" width="2" height="13"></rect><rect x="5" y="44" width="2" height="13"></rect><rect x="47" y="44" width="2" height="13"></rect><rect x="35" y="44" width="2" height="13"></rect><path d="M17,46H11V44H9V57h2V56h6v1h2V44H17Zm0,2v2H11V48Zm-6,6V52h6v2Z"></path><path d="M58.64,55,52.908,42.581A1,1,0,0,0,52,42H49v2h2.36l5.732,12.419A1,1,0,0,0,58,57h3V55Z"></path><circle cx="42" cy="36" r="2"></circle><polygon points="42 21.505 36.227 28 47.773 28 42 21.505"></polygon><path d="M47,42V30H37V42ZM42,32a4,4,0,1,1-4,4A4,4,0,0,1,42,32Z"></path><path d="M10,38v4h8V38a4,4,0,0,0-8,0Z"></path><rect x="23" y="34" width="12" height="8"></rect><path d="M21,42V28H7V42H8V38a6,6,0,0,1,12,0v4Z"></path><polygon points="14 16.479 5.273 26 22.727 26 14 16.479"></polygon></g></svg>