<svg xmlns="http://www.w3.org/2000/svg" viewBox="0 0 64 64" x="0px" y="0px"><g><path d="M33,46H11.721L8.387,56H20.219l.811-3.243A1,1,0,0,1,22,52H32a1,1,0,0,1,.97.757L33.781,56H45.613L42.279,46ZM18,50H16V48h2Zm16,0H20V48H34Zm4,0H36V48h2Z"></path><path d="M8,4V26h2V25a3,3,0,0,1,3-3H24V10H21a2,2,0,0,1-2-2V4ZM21,18H11V16H21Zm0-6v2H11V12Z"></path><polygon points="22.781 54 22.281 56 31.719 56 31.219 54 22.781 54"></polygon><rect x="36" y="24" width="4" height="4"></rect><rect x="36" y="30" width="4" height="4"></rect><rect x="36" y="36" width="4" height="4"></rect><polygon points="21 8 23.586 8 21 5.414 21 8"></polygon><rect x="8" y="58" width="38" height="2"></rect><path d="M23,28.171V30h1.829A3.018,3.018,0,0,0,23,28.171Z"></path><path d="M13,24a1,1,0,0,0-1,1V44H30.184A2.966,2.966,0,0,1,30,43V24Zm8,3a1,1,0,0,1,1-1,5.006,5.006,0,0,1,5,5,1,1,0,0,1-1,1H22a1,1,0,0,1-1-1ZM19,39a5,5,0,0,1,0-10,1,1,0,0,1,1,1v3h3a1,1,0,0,1,1,1A5.006,5.006,0,0,1,19,39Zm9,3H24V40h4Zm0-3H26V37h2Z"></path><rect x="42" y="36" width="4" height="4"></rect><path d="M18,34V31.171A3,3,0,1,0,21.829,35H19A1,1,0,0,1,18,34Z"></path><rect x="48" y="24" width="4" height="4"></rect><path d="M56,43V7a1,1,0,0,0-1-1H33a1,1,0,0,0-1,1V43a1,1,0,0,0,1,1H55A1,1,0,0,0,56,43Zm-2-2a1,1,0,0,1-1,1H35a1,1,0,0,1-1-1V23a1,1,0,0,1,1-1H53a1,1,0,0,1,1,1Zm0-22a1,1,0,0,1-1,1H35a1,1,0,0,1-1-1V9a1,1,0,0,1,1-1H53a1,1,0,0,1,1,1Z"></path><path d="M36,18H52V10H36Zm11-5h2v2H47Zm-4,0h2v2H43Zm-4,0h2v2H39Z"></path><rect x="42" y="24" width="4" height="4"></rect><rect x="42" y="30" width="4" height="4"></rect><rect x="48" y="30" width="4" height="4"></rect><rect x="48" y="36" width="4" height="4"></rect></g></svg>