<svg xmlns="http://www.w3.org/2000/svg" viewBox="0 0 64 64" x="0px" y="0px"><g><path d="M55,2H9A7.008,7.008,0,0,0,2,9V43a7.008,7.008,0,0,0,7,7H22.87l-.75,6H19a3,3,0,0,0,0,6H45a3,3,0,0,0,0-6H41.88l-.75-6H55a7.008,7.008,0,0,0,7-7V9A7.008,7.008,0,0,0,55,2ZM45,58a1,1,0,0,1,0,2H19a1,1,0,0,1,0-2ZM24.13,56l.75-6H39.12l.75,6ZM60,43a5,5,0,0,1-5,5H9a5,5,0,0,1-5-5V42H60ZM12,28H8.2l5.55-6.34A1,1,0,0,0,14,21a13,13,0,1,1,21.36,9.95.992.992,0,0,0-.36.77V32H23a2,2,0,0,1,0-4h3a3.009,3.009,0,0,0,3-3V23h1a3.009,3.009,0,0,0,3-3V16a1,1,0,0,0-1-1H31V13H29v2H27V13H25v2H24a1,1,0,0,0-1,1v4a3.009,3.009,0,0,0,3,3h1v2a1,1,0,0,1-1,1H23a4,4,0,0,0,0,8H35v6H20V37a1,1,0,0,0-1-1H16a3.009,3.009,0,0,1-3-3V29A1,1,0,0,0,12,28Zm14-7a1,1,0,0,1-1-1V17h6v3a1,1,0,0,1-1,1ZM60,40H37V34H48a3.009,3.009,0,0,0,3-3V29h1a2.006,2.006,0,0,0,2-2V25h2V23H54.04a5,5,0,0,1,1.49-3.23A7.983,7.983,0,0,0,55.61,8.3,7.874,7.874,0,0,0,49.86,6a8.09,8.09,0,0,0-7.85,7.71,7.973,7.973,0,0,0,2.38,5.99A5.155,5.155,0,0,1,45.96,23H44v2h2v2a2.006,2.006,0,0,0,2,2h1v2a1,1,0,0,1-1,1H37.17A14.99,14.99,0,1,0,12,20.62L6.69,26.69A2,2,0,0,0,8.2,30H11v3a5,5,0,0,0,5,5h2v2H4V9A5,5,0,0,1,9,4H55a5,5,0,0,1,5,5ZM48,25h4v2H48Zm-.01-2a7.147,7.147,0,0,0-2.2-4.73A5.947,5.947,0,0,1,44,13.78,6.073,6.073,0,0,1,49.9,8a5.842,5.842,0,0,1,4.31,1.72A5.991,5.991,0,0,1,56,14a5.929,5.929,0,0,1-1.85,4.32A7,7,0,0,0,52.01,23Z"></path><rect x="54" y="44" width="2" height="2"></rect><path d="M50,15a1,1,0,0,1-1-1H47a3,3,0,0,0,2,2.816V21h2V16.816A3,3,0,0,0,53,14H51A1,1,0,0,1,50,15Z"></path></g></svg>