<svg xmlns="http://www.w3.org/2000/svg" viewBox="0 0 64 64" x="0px" y="0px"><g data-name="Programming Analytic"><path d="M20,35a5.961,5.961,0,0,0,3.471-1.115L19.586,30h-5.5A6.006,6.006,0,0,0,20,35Z"></path><path d="M26,29a6.006,6.006,0,0,0-5-5.91v5.5l3.885,3.885A5.961,5.961,0,0,0,26,29Z"></path><path d="M7,46H57V15a3,3,0,0,0-3-3H10a3,3,0,0,0-3,3Zm10-3H13V41h4Zm0-3H13V38h4Zm19,3H34V41h2Zm6,0H38V41h4Zm0-3H34V38h8ZM33,19h2V34h2V29h2v5h2V26h2v8h2V23h2V34h2V21h2V34h2v2H34a1,1,0,0,1-1-1Zm-7-3h4v2H26Zm0,3h4v2H26Zm2,10a8,8,0,1,1-8-8A8.009,8.009,0,0,1,28,29ZM11,16h4v2H11Zm0,3h4v2H11Z"></path><path d="M4,51a1,1,0,0,0,1,1H59a1,1,0,0,0,1-1V48H4Zm24-2h8v2H28Z"></path><path d="M19,28V23.09A6.008,6.008,0,0,0,14.09,28Z"></path></g></svg>