<svg xmlns="http://www.w3.org/2000/svg" viewBox="0 0 64 64" x="0px" y="0px"><g><path d="M46,2H18a6.006,6.006,0,0,0-6,6V56a6.006,6.006,0,0,0,6,6H46a6.006,6.006,0,0,0,6-6V8A6.006,6.006,0,0,0,46,2Zm4,54a4,4,0,0,1-4,4H18a4,4,0,0,1-4-4V8a4,4,0,0,1,4-4H46a4,4,0,0,1,4,4Z"></path><path d="M34,52H30a3,3,0,0,0,0,6h4a3,3,0,0,0,0-6Zm0,4H30a1,1,0,0,1,0-2h4a1,1,0,0,1,0,2Z"></path><rect x="25" y="6" width="2" height="2"></rect><rect x="29" y="6" width="6" height="2"></rect><path d="M45.142,33.01l-2.682-.383a10.86,10.86,0,0,0-.679-1.639l1.625-2.166a1,1,0,0,0-.093-1.307l-2.828-2.828a1,1,0,0,0-1.306-.093l-2.684,2.012,1.2,1.6,1.991-1.492,1.6,1.6-1.492,1.99a1,1,0,0,0-.061,1.111,8.923,8.923,0,0,1,.977,2.357,1,1,0,0,0,.827.742L44,34.867v2.266l-2.463.352a1,1,0,0,0-.827.742,8.923,8.923,0,0,1-.977,2.357,1,1,0,0,0,.061,1.111l1.492,1.99-1.6,1.6-1.991-1.492a1,1,0,0,0-1.11-.06,8.859,8.859,0,0,1-2.356.975,1,1,0,0,0-.744.828L33.133,48H30.867l-.351-2.463a1,1,0,0,0-.744-.828,8.859,8.859,0,0,1-2.356-.975,1,1,0,0,0-1.11.06l-1.991,1.492-1.6-1.6,1.492-1.99a1,1,0,0,0,.061-1.111,8.923,8.923,0,0,1-.977-2.357,1,1,0,0,0-.827-.742L20,37.133V34.867l2.463-.352a1,1,0,0,0,.827-.742,8.923,8.923,0,0,1,.977-2.357,1,1,0,0,0-.061-1.111l-1.492-1.99,1.6-1.6,1.991,1.492,1.2-1.6-2.684-2.012a1,1,0,0,0-1.306.093l-2.828,2.828a1,1,0,0,0-.093,1.307l1.625,2.166a10.86,10.86,0,0,0-.679,1.639l-2.682.383A1,1,0,0,0,18,34v4a1,1,0,0,0,.858.99l2.682.383a10.86,10.86,0,0,0,.679,1.639l-1.625,2.166a1,1,0,0,0,.093,1.307l2.828,2.828a1,1,0,0,0,1.306.093l2.167-1.624a10.855,10.855,0,0,0,1.639.678l.383,2.682A1,1,0,0,0,30,50h4a1,1,0,0,0,.99-.858l.383-2.682a10.9,10.9,0,0,0,1.639-.678l2.167,1.624a1,1,0,0,0,1.306-.093l2.828-2.828a1,1,0,0,0,.093-1.307l-1.625-2.166a10.86,10.86,0,0,0,.679-1.639l2.682-.383A1,1,0,0,0,46,38V34A1,1,0,0,0,45.142,33.01Z"></path><path d="M26.5,33.6a6,6,0,1,0,11,0l-1.832.8a4,4,0,1,1-7.336,0Z"></path><rect x="40" y="14" width="6" height="2"></rect><rect x="40" y="18" width="6" height="2"></rect><rect x="18" y="14" width="6" height="2"></rect><rect x="18" y="18" width="6" height="2"></rect><path d="M28.571,20.379A2.978,2.978,0,0,0,29,25.816V36a1,1,0,0,0,1,1h4a1,1,0,0,0,1-1V25.816a2.978,2.978,0,0,0,.429-5.437L36.9,17.447a1,1,0,0,0-.063-1l-4-6a1.039,1.039,0,0,0-1.664,0l-4,6a1,1,0,0,0-.063,1ZM31,35V26h2v9Zm3-11H30a1,1,0,0,1,0-2h4a1,1,0,0,1,0,2Zm-3-9.7V18h2V14.3l1.846,2.769L33.382,20H30.618l-1.464-2.928Z"></path></g></svg>