<svg xmlns="http://www.w3.org/2000/svg" viewBox="0 0 64 64" x="0px" y="0px"><g><path d="M60,42H4v3a3,3,0,0,0,3,3H57a3,3,0,0,0,3-3Zm-4,4H54V44h2Z"></path><path d="M20,59a1,1,0,0,0,1,1H43a1,1,0,0,0,0-2H21A1,1,0,0,0,20,59Z"></path><path d="M34,17H22V29h4V22a1,1,0,0,1,1-1h7Z"></path><polygon points="25.883 50 25.133 56 38.867 56 38.117 50 25.883 50"></polygon><rect x="28" y="23" width="12" height="12"></rect><path d="M60,12H4V40H60ZM42,36a1,1,0,0,1-1,1H27a1,1,0,0,1-1-1V31H21a1,1,0,0,1-1-1V16a1,1,0,0,1,1-1H35a1,1,0,0,1,1,1v5h5a1,1,0,0,1,1,1Z"></path><path d="M60,7a3,3,0,0,0-3-3H7A3,3,0,0,0,4,7v3H60ZM10,8H8V6h2Zm4,0H12V6h2Zm4,0H16V6h2Z"></path></g></svg>