<svg xmlns="http://www.w3.org/2000/svg" viewBox="0 0 64 64" x="0px" y="0px"><g data-name="Electric Car"><path d="M55,16H51.515L43.01,4.094A5.009,5.009,0,0,0,38.941,2H13.924A7,7,0,0,0,7.511,6.194L3.425,15.533A16.891,16.891,0,0,0,2,22.347V31a3,3,0,0,0,3,3H8.08a6.991,6.991,0,0,0,13.84,0H26V46A10.011,10.011,0,0,0,36,56h6.1A5.009,5.009,0,0,0,47,60h3.184A2.993,2.993,0,0,0,56,59V58h4V56H56V54h4V52H56V51a2.993,2.993,0,0,0-5.816-1H47a5.009,5.009,0,0,0-4.9,4H36a8.009,8.009,0,0,1-8-8V34H42.08a6.991,6.991,0,0,0,13.84,0H59a3,3,0,0,0,3-3V23A7.008,7.008,0,0,0,55,16ZM53,50a1,1,0,0,1,1,1v8a1,1,0,0,1-2,0V51A1,1,0,0,1,53,50Zm-6,2h3v6H47a3,3,0,0,1,0-6ZM60,23v1H56V22h3.9A5,5,0,0,1,60,23ZM36,8h7.342l5.715,8H36Zm-2,8H11.22l1.6-8H34ZM4,31V30H7V28H4V22.347a14.924,14.924,0,0,1,1.257-6.013L9.343,7a5,5,0,0,1,4.581-3H38.941a3.005,3.005,0,0,1,2.441,1.256L41.914,6H12.82a2,2,0,0,0-1.961,1.607l-1.6,8A2,2,0,0,0,11.22,18H34V32H21.92A6.991,6.991,0,0,0,8.08,32H5A1,1,0,0,1,4,31Zm11,7a5,5,0,1,1,5-5A5.006,5.006,0,0,1,15,38Zm34,0a5,5,0,1,1,5-5A5.006,5.006,0,0,1,49,38Zm10-6H55.92a6.991,6.991,0,0,0-13.84,0H36V18H55a4.977,4.977,0,0,1,3.974,2H56a2,2,0,0,0-2,2v2a2,2,0,0,0,2,2h4v2H57v2h3v1A1,1,0,0,1,59,32Z"></path><rect x="38" y="20" width="4" height="2"></rect><rect x="12" y="20" width="4" height="2"></rect><rect x="14" y="32" width="2" height="2"></rect><rect x="48" y="32" width="2" height="2"></rect></g></svg>