<svg xmlns="http://www.w3.org/2000/svg" viewBox="0 0 64 64" x="0px" y="0px"><g data-name="Development Investment"><rect x="31" y="18" width="2" height="2"></rect><path d="M45,4H38a5.009,5.009,0,0,0-4.9,4H40v2H33v2h7a5.006,5.006,0,0,0,5-5Z"></path><path d="M30.9,12A5.009,5.009,0,0,0,26,8H19v3a5.006,5.006,0,0,0,5,5h7V14H24V12Z"></path><path d="M32,22a7,7,0,1,0,7,7A7.009,7.009,0,0,0,32,22Zm0,6a2.993,2.993,0,0,1,1,5.816V35H31V33.816A3,3,0,0,1,29,31h2a1,1,0,1,0,1-1,2.993,2.993,0,0,1-1-5.816V23h2v1.184A3,3,0,0,1,35,27H33a1,1,0,1,0-1,1Z"></path><path d="M12,44H31v4h2V44H52v4h2V44a2,2,0,0,0-2-2H33V40H31v2H12a2,2,0,0,0-2,2v4h2Z"></path><rect x="7" y="52" width="8" height="8"></rect><rect x="28" y="52" width="8" height="8"></rect><rect x="49" y="52" width="8" height="8"></rect></g></svg>