<svg xmlns="http://www.w3.org/2000/svg" viewBox="0 0 64 64" x="0px" y="0px"><g><path d="M40.7,28.139a11.626,11.626,0,0,0-16.009,0,1,1,0,0,1-1.388,0,11.622,11.622,0,0,0-16.009,0,10.582,10.582,0,0,0,0,15.35L24,59.61,40.7,43.489a10.582,10.582,0,0,0,0-15.35Z"></path><path d="M47,32H60V18H47a1,1,0,0,1-1-1V4H32V17a1,1,0,0,1-1,1H18v5.229a13.374,13.374,0,0,1,6,2.846,13.654,13.654,0,0,1,18.091.624A12.582,12.582,0,0,1,46,35.814V33A1,1,0,0,1,47,32Z"></path><path d="M46,35.814a12.582,12.582,0,0,1-3.909,9.115L40.981,46H46Z"></path></g></svg>