<svg xmlns="http://www.w3.org/2000/svg" viewBox="0 0 64 64" x="0px" y="0px"><g><polygon points="11 40 53 40 48.5 34 15.5 34 11 40"></polygon><circle cx="32" cy="19" r="6"></circle><path d="M32,10a9,9,0,1,0,9,9A9.01,9.01,0,0,0,32,10Zm0,17a8,8,0,1,1,8-8A8.009,8.009,0,0,1,32,27Z"></path><path d="M54,50V42H10v8h8V47a1,1,0,0,1,1-1H45a1,1,0,0,1,1,1v3Z"></path><rect x="20" y="48" width="24" height="12"></rect><path d="M16,4V32H48V4ZM32,30A11,11,0,1,1,43,19,11.013,11.013,0,0,1,32,30ZM47,10a1,1,0,0,1-1,1H42a1,1,0,0,1-1-1V6a1,1,0,0,1,1-1h4a1,1,0,0,1,1,1Z"></path><rect x="43" y="7" width="2" height="2"></rect></g></svg>