<svg xmlns="http://www.w3.org/2000/svg" viewBox="0 0 64 64" x="0px" y="0px"><g data-name="Artificial Intellegent"><path d="M25.293,26.707l1.414-1.414L25,23.586V18H23v6a1,1,0,0,0,.293.707Z"></path><path d="M27,15h2V9a1,1,0,0,0-.293-.707l-2-2L25.293,7.707,27,9.414Z"></path><path d="M14.293,36.293A1,1,0,0,0,14,37v4h2V37.414l1.707-1.707-1.414-1.414Z"></path><rect x="8" y="34" width="2" height="4"></rect><rect x="27" y="17" width="2" height="2"></rect><rect x="22" y="31" width="2" height="2"></rect><rect x="20" y="37" width="2" height="2"></rect><rect x="26" y="42" width="2" height="2"></rect><path d="M54.138,32.986a4,4,0,1,0,.008-2H33V23H44a1,1,0,0,0,.707-.293L48.414,19h2.728a4,4,0,1,0,0-2H48a1,1,0,0,0-.707.293L43.586,21H33V14h9a1,1,0,0,0,.707-.293l4.274-4.274A3.947,3.947,0,0,0,49,10a4,4,0,1,0-4-4,3.947,3.947,0,0,0,.567,2.019L41.586,12H33V8a1,1,0,0,0-.219-.625l-4-5A1,1,0,0,0,28,2H21a.993.993,0,0,0-.5.132l-7,4A1,1,0,0,0,13,7v3.54l-6.651,5.7A1,1,0,0,0,6,17v9.5L2.4,29.2A1,1,0,0,0,2,30V40a1,1,0,0,0,.341.752L10,47.454V54a1,1,0,0,0,.186.581l5,7A1,1,0,0,0,16,62H26a1,1,0,0,0,.64-.232l6-5A1,1,0,0,0,33,56V52h8.586l3.981,3.981A3.947,3.947,0,0,0,45,58a4,4,0,1,0,4-4,3.947,3.947,0,0,0-2.019.567l-4.274-4.274A1,1,0,0,0,42,50H33V43H43.586l3.707,3.707A1,1,0,0,0,48,47h3.142a4,4,0,1,0,0-2H48.414l-3.707-3.707A1,1,0,0,0,44,41H33V32.986ZM58,30a2,2,0,1,1-2,2A2,2,0,0,1,58,30ZM55,16a2,2,0,1,1-2,2A2,2,0,0,1,55,16ZM49,4a2,2,0,1,1-2,2A2,2,0,0,1,49,4Zm2,54a2,2,0,1,1-2-2A2,2,0,0,1,51,58Zm4-14a2,2,0,1,1-2,2A2,2,0,0,1,55,44ZM25.638,60H23V55a1,1,0,0,0-.293-.707l-2-2-1.414,1.414L21,55.414V60H16.515L12,53.68V47.414L13.414,46h3.77a3,3,0,1,0,0-2H13a1,1,0,0,0-.707.293l-1.338,1.338L4,39.546V30.5l2.98-2.235,4.395,3.516A1,1,0,0,0,12,32h3a1,1,0,0,0,.707-.293L17.715,29.7A2.951,2.951,0,0,0,19,30a3,3,0,1,0-3-3,2.951,2.951,0,0,0,.3,1.285L14.586,30H12.351L8,26.52V17.46l1.1-.944,1.9,1.9V22h2V18a1,1,0,0,0-.293-.707L10.625,15.21l3.323-2.848,2.345,2.345A1,1,0,0,0,17,15h1.184a3,3,0,1,0,0-2h-.77L15,10.586V7.58L21.266,4H27.52L31,8.351V27H28.972a1,1,0,0,0-.707.293l-1.972,1.972a1,1,0,0,0-.293.707v3.557l-1.735,1.736,1.414,1.414,2.028-2.029A1,1,0,0,0,28,33.943V30.386L29.386,29H31V54l-2-1.5V47H27v6a1,1,0,0,0,.4.8l2.989,2.241ZM19,45a1,1,0,1,1,1,1A1,1,0,0,1,19,45ZM18,27a1,1,0,1,1,1,1A1,1,0,0,1,18,27Zm2-13a1,1,0,1,1,1,1A1,1,0,0,1,20,14Z"></path></g></svg>