<svg xmlns="http://www.w3.org/2000/svg" viewBox="0 0 48 48" x="0px" y="0px"><title>Gift Box_3</title><g data-name="Gift Box"><path d="M48,24C48,13.523,37.233,5,24,5S0,13.523,0,24c0,7.937,6.181,14.749,14.931,17.587-.214.235-.414.482-.638.706a1,1,0,1,0,1.414,1.414c.483-.483.935-.993,1.373-1.516a30,30,0,0,0,13.84,0c.438.523.89,1.033,1.373,1.516a1,1,0,0,0,1.414-1.414c-.224-.224-.424-.471-.638-.706C41.819,38.749,48,31.937,48,24Zm-2.041-1H39V21.55A5,5,0,0,0,32.423,16.8L26.761,18.7A5.83,5.83,0,0,0,25,18.113V7.02C36.238,7.41,45.306,14.345,45.959,23ZM26.133,27.386a4.078,4.078,0,0,1-4.266,0,4.012,4.012,0,0,1-.7-6.219,3.42,3.42,0,0,1,.656-.513c.018-.012.033-.024.052-.035A3.886,3.886,0,0,1,24,20a3.932,3.932,0,0,1,2.16.64,3.41,3.41,0,0,1,.669.523,4.022,4.022,0,0,1,0,5.67A3.9,3.9,0,0,1,26.133,27.386Zm-6.757.44L14.945,29.3A3,3,0,0,1,11,26.45v-4.9a3.008,3.008,0,0,1,2.991-3.007,3.021,3.021,0,0,1,.952.155l4.426,1.48-.007.01a5.992,5.992,0,0,0-.53.771c-.025.041-.051.081-.074.123a6.076,6.076,0,0,0-.373.812c-.019.051-.037.1-.055.154a5.992,5.992,0,0,0-.229.868L18.086,23H16a1,1,0,0,0,0,2h2.087c.011.068.031.133.045.2a5.86,5.86,0,0,0,.185.694c.024.073.045.148.072.22a5.876,5.876,0,0,0,.384.829c.028.05.062.1.091.145a5.955,5.955,0,0,0,.434.625C19.327,27.75,19.347,27.791,19.376,27.826Zm9.259-.01a6.094,6.094,0,0,0,.529-.768c.026-.043.052-.085.077-.128a5.924,5.924,0,0,0,.372-.81c.02-.052.038-.1.056-.156a6,6,0,0,0,.23-.868L29.914,25H32a1,1,0,0,0,0-2H29.914l-.015-.083a5.992,5.992,0,0,0-.229-.868c-.018-.052-.036-.1-.055-.154a6.147,6.147,0,0,0-.373-.813c-.023-.04-.049-.08-.073-.12a6.052,6.052,0,0,0-.534-.777l0-.006,4.424-1.48A3,3,0,0,1,37,21.55v4.9A3,3,0,0,1,33.056,29.3l-4.429-1.474ZM23,7.02V18.109a5.754,5.754,0,0,0-1.764.585L15.575,16.8A5,5,0,0,0,9,21.55V23H2.041C2.694,14.345,11.762,7.41,23,7.02ZM2.041,25H9v1.45a5.011,5.011,0,0,0,4.984,5.009,5.054,5.054,0,0,0,1.592-.26l5.663-1.885c.1.052.2.114.3.16A36.582,36.582,0,0,1,16.31,39.926C8.346,37.622,2.558,31.85,2.041,25ZM23,31.367V40.98a27.9,27.9,0,0,1-4.579-.535A38.277,38.277,0,0,0,23,31.367Zm2,9.613V31.367a38.277,38.277,0,0,0,4.579,9.078A27.9,27.9,0,0,1,25,40.98Zm6.69-1.054a36.577,36.577,0,0,1-5.226-10.451c.1-.047.2-.109.3-.161L32.425,31.2a5.048,5.048,0,0,0,1.591.26A5.011,5.011,0,0,0,39,26.45V25h6.959C45.442,31.85,39.654,37.622,31.69,39.926Z"></path></g></svg>