<svg xmlns="http://www.w3.org/2000/svg" data-name="file cabinet" viewBox="0 0 64 64" x="0px" y="0px"><path d="M53,2H11a1,1,0,0,0-1,1V57a1,1,0,0,0,1,1h2v3a1,1,0,0,0,1,1H50a1,1,0,0,0,1-1V58h2a1,1,0,0,0,1-1V3A1,1,0,0,0,53,2ZM12,22H52V38H12ZM12,4H52V20H12ZM49,60H15V58H49Zm3-4H12V40H52Z"></path><path d="M36,10V7a1,1,0,0,0-1-1H29a1,1,0,0,0-1,1v3a1,1,0,0,0,1,1h6A1,1,0,0,0,36,10ZM34,9H30V8h4Z"></path><path d="M36,28V25a1,1,0,0,0-1-1H29a1,1,0,0,0-1,1v3a1,1,0,0,0,1,1h6A1,1,0,0,0,36,28Zm-2-1H30V26h4Z"></path><path d="M29,47h6a1,1,0,0,0,1-1V43a1,1,0,0,0-1-1H29a1,1,0,0,0-1,1v3A1,1,0,0,0,29,47Zm1-3h4v1H30Z"></path><rect x="26" y="16" width="2" height="2"></rect><rect x="30" y="16" width="8" height="2"></rect><rect x="26" y="34" width="2" height="2"></rect><rect x="30" y="34" width="8" height="2"></rect><rect x="26" y="52" width="2" height="2"></rect><rect x="30" y="52" width="8" height="2"></rect></svg>