<svg xmlns="http://www.w3.org/2000/svg" viewBox="0 0 64 64" x="0px" y="0px"><g><rect x="9" y="8" width="10" height="2"></rect><rect x="9" y="12" width="10" height="2"></rect><rect x="9" y="16" width="10" height="2"></rect><rect x="9" y="20" width="10" height="2"></rect><path d="M46,31V9h4a1,1,0,0,1,1,1V22h2V10a3,3,0,0,0-3-3H46a1,1,0,0,0-1-1H43V3a1,1,0,0,0-1-1H28a3,3,0,0,0-3,3H23a3,3,0,0,0-3-3H6A1,1,0,0,0,5,3V6H3A1,1,0,0,0,2,7V31a1,1,0,0,0,1,1H45A1,1,0,0,0,46,31ZM7,4H20a1,1,0,0,1,1,1V26.184A2.966,2.966,0,0,0,20,26H7ZM4,30V8H5V27a1,1,0,0,0,1,1H20a1,1,0,0,1,1,1,2.966,2.966,0,0,0,.184,1Zm21-1a1,1,0,0,1-2,0V7h2ZM27,6V5a1,1,0,0,1,1-1H41V7H35a2,2,0,0,0-2,2v1h2V9h6V26H28a2.966,2.966,0,0,0-1,.184ZM44,30H26.816A2.966,2.966,0,0,0,27,29a1,1,0,0,1,1-1H42a1,1,0,0,0,1-1V9h1Z"></path><path d="M61.69,57.8,56,44.791V41.816A2.993,2.993,0,0,0,55,36H49a2.993,2.993,0,0,0-1,5.816v2.975l-1.138,2.6A10,10,0,0,0,42,42.841V39.816A2.993,2.993,0,0,0,41,34H35a2.993,2.993,0,0,0-1,5.816v3.025a10.063,10.063,0,0,0-5.4,5.774A9.75,9.75,0,0,0,28,52a9.984,9.984,0,0,0,14.7,8.818A2.979,2.979,0,0,0,45.058,62H58.942a3,3,0,0,0,2.748-4.2ZM49,38h6a1,1,0,0,1,0,2H49a1,1,0,0,1,0-2Zm.916,7.4A.991.991,0,0,0,50,45V42h4v3a.991.991,0,0,0,.084.4l2.45,5.6H47.466ZM35,36h6a1,1,0,0,1,0,2H35a1,1,0,0,1,0-2Zm.334,8.462A1,1,0,0,0,36,43.52V40h4v3.52a1,1,0,0,0,.664.942,7.987,7.987,0,0,1,4.347,3.718l-.343-.121a10.36,10.36,0,0,0-4.008-.719,10.309,10.309,0,0,0-4,.719,8.33,8.33,0,0,1-3.332.6,8.374,8.374,0,0,1-2.435-.3A8.066,8.066,0,0,1,35.334,44.462ZM42.31,57.8a2.974,2.974,0,0,0-.227,1.052A7.922,7.922,0,0,1,38,60a8.009,8.009,0,0,1-8-8,7.763,7.763,0,0,1,.208-1.76,10.333,10.333,0,0,0,3.122.42,10.341,10.341,0,0,0,4.01-.72,8.281,8.281,0,0,1,3.32-.6,8.3,8.3,0,0,1,3.33.6,12.488,12.488,0,0,0,1.552.469Zm17.469,1.75a.983.983,0,0,1-.837.453H45.058a1,1,0,0,1-.916-1.4L46.591,53H57.409l2.449,5.6A.983.983,0,0,1,59.779,59.547Z"></path><rect x="51" y="56" width="2" height="2"></rect><rect x="47" y="54" width="2" height="2"></rect><rect x="55" y="55" width="2" height="2"></rect><rect x="52" y="47" width="2" height="2"></rect><path d="M31,21a3,3,0,0,0,6,0V14h1V12H30v2h1Zm2-7h2v2H33Zm0,4h2v3a1,1,0,0,1-2,0Z"></path><rect x="51" y="24" width="2" height="2"></rect><rect x="51" y="28" width="2" height="2"></rect><rect x="51" y="32" width="2" height="2"></rect><rect x="33" y="53" width="2" height="2"></rect><rect x="38" y="56" width="2" height="2"></rect><rect x="39" y="51" width="2" height="2"></rect><rect x="36" y="45" width="2" height="2"></rect></g></svg>