<svg xmlns="http://www.w3.org/2000/svg" viewBox="0 0 64 64" x="0px" y="0px"><g data-name="Stationery-Paper-Pencil-Ruler-Office Material"><rect x="37" y="20" width="14" height="10"></rect><rect x="7" y="40" width="22" height="2"></rect><polygon points="10 38 16 38 16 36 13 36 13 34 16 34 16 32 14 32 14 30 16 30 16 28 13 28 13 26 16 26 16 24 14 24 14 22 16 22 16 20 10 20 10 38"></polygon><path d="M10,60H26a1,1,0,0,0,1-1V44H9V59A1,1,0,0,0,10,60Z"></path><path d="M52,10h3.586L51,5.414V9A1,1,0,0,0,52,10Z"></path><polygon points="22.166 30 25.834 30 24 26.944 22.166 30"></polygon><rect x="22" y="32" width="4" height="6"></rect><path d="M52,12a3.009,3.009,0,0,1-3-3V4H18a3.009,3.009,0,0,0-3,3V18h2a1,1,0,0,1,1,1V38h2V30a1,1,0,0,1,.14-.51l3-5a1.037,1.037,0,0,1,1.72,0l3,5A1,1,0,0,1,28,30v8h2a1,1,0,0,1,1,1v4a1,1,0,0,1-1,1H29V59a2.772,2.772,0,0,1-.18,1H54a3.009,3.009,0,0,0,3-3V12ZM19,8h2v2H19Zm10,6H19V12H29Zm0-4H23V8h6Zm6,26h2v2H35ZM53,54H35V52H53Zm0-4H35V48H53Zm0-4H35V44H53Zm0-4H35V40H53Zm0-4H39V36H53Zm0-7a1,1,0,0,1-1,1H36a1,1,0,0,1-1-1V19a1,1,0,0,1,1-1H52a1,1,0,0,1,1,1Z"></path></g></svg>