<svg xmlns="http://www.w3.org/2000/svg" viewBox="0 0 64 64" x="0px" y="0px"><g><path d="M55.707,56.293l-6-6A1,1,0,0,0,49,50H19V48a3,3,0,0,0-3-3H10a1,1,0,0,1,0-2h6a3,3,0,0,0,3-3V38h7v4H22a1,1,0,0,0-1,1v4a1,1,0,0,0,1,1H42a1,1,0,0,0,1-1V43a1,1,0,0,0-1-1H38V38H52a3,3,0,0,0,3-3V9a3,3,0,0,0-3-3H46V8h6a1,1,0,0,1,1,1V30H11V9a1,1,0,0,1,1-1h6V6H12A3,3,0,0,0,9,9V35a3,3,0,0,0,3,3h5v2a1,1,0,0,1-1,1H10a3,3,0,0,0,0,6h6a1,1,0,0,1,1,1v2H15a1,1,0,0,0-.707.293l-6,6A1,1,0,0,0,8,57v3a2,2,0,0,0,2,2H54a2,2,0,0,0,2-2V57A1,1,0,0,0,55.707,56.293ZM41,46H23V44H41Zm-5-4H28V38h8ZM11,35V32H53v3a1,1,0,0,1-1,1H12A1,1,0,0,1,11,35Zm4.414,17H48.586l4,4H11.414ZM10,60V58H54v2Z"></path><rect x="16" y="53" width="2" height="2"></rect><rect x="20" y="53" width="2" height="2"></rect><rect x="42" y="53" width="2" height="2"></rect><rect x="24" y="53" width="16" height="2"></rect><rect x="46" y="53" width="2" height="2"></rect><rect x="47" y="33" width="2" height="2"></rect><path d="M23,28H41a3,3,0,0,0,3-3V8a1,1,0,0,0-.293-.707l-5-5A1,1,0,0,0,38,2H23a3,3,0,0,0-3,3V25A3,3,0,0,0,23,28ZM39,5.414,41.586,8H39ZM22,5a1,1,0,0,1,1-1H37V8a2,2,0,0,0,2,2h3V25a1,1,0,0,1-1,1H23a1,1,0,0,1-1-1Z"></path><rect x="25" y="12" width="14" height="2"></rect><rect x="25" y="16" width="14" height="2"></rect><rect x="25" y="20" width="14" height="2"></rect><rect x="25" y="8" width="8" height="2"></rect></g></svg>