<svg xmlns="http://www.w3.org/2000/svg" viewBox="0 0 64 64" x="0px" y="0px"><g data-name="Computer-File-Office Supplies-Plan-Stationery"><polygon points="25.88 50 25.13 56 38.87 56 38.12 50 25.88 50"></polygon><path d="M57,30H56v6h1a3,3,0,0,0,0-6Z"></path><path d="M21,59a1,1,0,0,0,1,1H42a1,1,0,0,0,0-2H22A1,1,0,0,0,21,59Z"></path><path d="M55,42H9v3a3.009,3.009,0,0,0,3,3H52a3.009,3.009,0,0,0,3-3Zm-4,4H49V44h2Z"></path><path d="M18.586,8,16,5.414V7a1,1,0,0,0,1,1Z"></path><path d="M20,23V10H17a3,3,0,0,1-3-3V4H5A1,1,0,0,0,4,5V23a1,1,0,0,0,1,1H19A1,1,0,0,0,20,23ZM6,8h6v2H6ZM18,22H6V20H18Zm0-4H6V16H18Zm0-4H6V12H18Z"></path><rect x="34" y="30" width="17" height="2"></rect><rect x="53" y="30" width="1" height="6"></rect><rect x="34" y="34" width="17" height="2"></rect><polygon points="30 34.465 32 35.798 32 30.202 30 31.535 30 34.465"></polygon><polygon points="54 24 54 20 56 20 56 24 60 24 60 18 26 18 26 24 30 24 30 20 32 20 32 24 34 24 34 22 36 22 36 24 38 24 38 22 40 22 40 24 42 24 42 20 44 20 44 24 46 24 46 22 48 22 48 24 50 24 50 22 52 22 52 24 54 24"></polygon><path d="M26,33a1,1,0,0,0,1,1h1V32H27A1,1,0,0,0,26,33Z"></path><path d="M22,14v9a3.009,3.009,0,0,1-3,3H9V40H55V38H32.012a1.014,1.014,0,0,1-.562-.17L28.7,36H27.131a3.092,3.092,0,0,1-3.071-2.4A3.008,3.008,0,0,1,27,30h1.7l2.76-1.837A.979.979,0,0,1,32,28H55V26H25a1,1,0,0,1-1-1V17a1,1,0,0,1,1-1H55a2,2,0,0,0-2-2ZM21,38H13V36h8Zm0-4H13V32h8Zm0-4H13V28h8Z"></path></g></svg>