<svg xmlns="http://www.w3.org/2000/svg" viewBox="0 0 64 64" x="0px" y="0px"><g data-name="Accountant"><polygon points="26.306 39.892 28.131 39.435 28.319 38.46 27.087 38.075 25.355 38.941 26.306 39.892"></polygon><polygon points="27.715 41.601 26.512 41.902 25.054 43.36 25.981 50.608 27.715 41.601"></polygon><polygon points="34 40.235 33.331 40.026 34 41.534 34 40.235"></polygon><polygon points="28.367 48.781 26.86 56.599 30.7 51.114 28.367 48.781"></polygon><path d="M34,59V45.281l-3.5,2.8,2.21,2.21a1,1,0,0,1,.112,1.28L26.921,60h7.263A2.966,2.966,0,0,1,34,59Z"></path><path d="M28,22a2,2,0,1,0-2-2A2,2,0,0,0,28,22Zm-1-3h2v2H27Z"></path><path d="M21.2,17.619a2.941,2.941,0,0,1,3.61,0A3.987,3.987,0,0,1,32,20V16H30a1,1,0,0,1-.707-.293L26.906,13.32,23.6,15.8a1,1,0,0,1-.6.2H18A3.982,3.982,0,0,1,21.2,17.619Z"></path><path d="M34,18v2a1,1,0,0,0,0-2Z"></path><path d="M28,24a4,4,0,0,1-4-4,1,1,0,0,0-2,0,4,4,0,0,1-8,0v3a9,9,0,0,0,18,0V20A4,4,0,0,1,28,24Zm-5,5a4,4,0,0,1-4-4h2a2,2,0,0,0,4,0h2A4,4,0,0,1,23,29Z"></path><polygon points="19.14 56.599 17.633 48.781 15.3 51.114 19.14 56.599"></polygon><path d="M26,33.574a10.776,10.776,0,0,1-6,0v2.808l3,1.5,3-1.5Z"></path><path d="M24.586,41l-1.117-1.117-.022.012a1,1,0,0,1-.894,0l-.022-.012L21.414,41l1,1h1.172Z"></path><polygon points="17.681 38.46 17.869 39.435 19.694 39.892 20.645 38.941 18.913 38.075 17.681 38.46"></polygon><polygon points="21.826 60 24.174 60 24.771 56.9 23.12 44 22.88 44 21.229 56.9 21.826 60"></polygon><path d="M18,22a2,2,0,1,0-2-2A2,2,0,0,0,18,22Zm-1-3h2v2H17Z"></path><polygon points="20.946 43.36 19.488 41.902 18.285 41.601 20.019 50.608 20.946 43.36"></polygon><polygon points="15.76 39.061 15.208 39.234 13.227 43.701 17.279 46.942 15.76 39.061"></polygon><polygon points="32.773 43.701 30.791 39.232 30.24 39.06 28.721 46.942 32.773 43.701"></polygon><rect x="46" y="43" width="4" height="3"></rect><rect x="46" y="48" width="4" height="3"></rect><rect x="40" y="43" width="4" height="3"></rect><rect x="46" y="53" width="4" height="3"></rect><rect x="52" y="48" width="4" height="3"></rect><path d="M14,14h8.667L26.4,11.2a1,1,0,0,1,1.307.093L30.414,14H32V13a9,9,0,0,0-18,0Z"></path><path d="M60,59V28a1,1,0,0,0-1-1H37a1,1,0,0,0-1,1V59a1,1,0,0,0,1,1H59A1,1,0,0,0,60,59Zm-2-2a1,1,0,0,1-1,1H39a1,1,0,0,1-1-1V42a1,1,0,0,1,1-1H57a1,1,0,0,1,1,1Zm0-19a1,1,0,0,1-1,1H39a1,1,0,0,1-1-1V30a1,1,0,0,1,1-1H57a1,1,0,0,1,1,1Z"></path><path d="M40,37H56V31H40Zm11-4h2v2H51Zm-4,0h2v2H47Zm-4,0h2v2H43Z"></path><rect x="52" y="43" width="4" height="3"></rect><rect x="52" y="53" width="4" height="3"></rect><path d="M14,20a4,4,0,0,1,4-4H14Z"></path><path d="M4,60H9V48h2V60h8.079l-5.9-8.427a1,1,0,0,1,.112-1.28l2.21-2.21-4.128-3.3a1,1,0,0,1-.289-1.186l1.582-3.566-2.349.735A8.951,8.951,0,0,0,4,49.35Z"></path><rect x="40" y="48" width="4" height="3"></rect><path d="M11,19a1,1,0,0,0,1,1V18A1,1,0,0,0,11,19Z"></path><rect x="40" y="53" width="4" height="3"></rect></g></svg>