<svg xmlns="http://www.w3.org/2000/svg" viewBox="0 0 32 32" x="0px" y="0px"><title>File Text_11</title><g data-name="File Text"><path d="M27.99,7.945a.941.941,0,0,0-.04-.223.775.775,0,0,0-.027-.094,1,1,0,0,0-.164-.279l-6-7a.978.978,0,0,0-.306-.231c-.03-.015-.059-.026-.09-.039A.99.99,0,0,0,21.046.01C21.03.009,21.016,0,21,0H5A1,1,0,0,0,4,1V31a1,1,0,0,0,1,1H27a1,1,0,0,0,1-1V8C28,7.981,27.991,7.964,27.99,7.945ZM22,3.7,24.826,7H22ZM6,30V2H20V8a1,1,0,0,0,1,1h5V30Z"></path><path d="M9.8,11.586l-.707-.707L7.679,12.293l1.414,1.414a1,1,0,0,0,1.414,0l4-4L13.093,8.293Z"></path><path d="M9.8,17.586l-.707-.707L7.679,18.293l1.414,1.414a1,1,0,0,0,1.414,0l4-4-1.414-1.414Z"></path><rect x="16" y="11" width="8" height="2"></rect><rect x="16" y="17" width="8" height="2"></rect><path d="M9.8,23.586l-.707-.707L7.679,24.293l1.414,1.414a1,1,0,0,0,1.414,0l4-4-1.414-1.414Z"></path><rect x="16" y="23" width="8" height="2"></rect></g></svg>