<svg xmlns="http://www.w3.org/2000/svg" viewBox="0 0 64 64" x="0px" y="0px"><g data-name="Data Security-Shield-Cloud-Network-Protection"><rect x="47" y="12" width="2" height="2"></rect><rect x="43" y="12" width="2" height="2"></rect><path d="M58,22H56a4,4,0,0,1-4,4v2A6.006,6.006,0,0,0,58,22Z"></path><path d="M41.406,29.086l-9-4a1,1,0,0,0-.812,0l-9,4A1,1,0,0,0,22,30v5.939A13.006,13.006,0,0,0,28.687,47.3l2.828,1.571a1,1,0,0,0,.97,0L35.313,47.3A13.008,13.008,0,0,0,42,35.939V30A1,1,0,0,0,41.406,29.086ZM40,35.939a11.007,11.007,0,0,1-5.657,9.616L32,46.856l-2.343-1.3A11.007,11.007,0,0,1,24,35.939v-5.29L32,27.1l8,3.554Z"></path><path d="M46,32h6a10,10,0,0,0,.93-19.96A6.992,6.992,0,0,0,46,6a6.923,6.923,0,0,0-4.05,1.29,11.993,11.993,0,0,0-21.53,3.6A7,7,0,0,0,10.08,16H10a8,8,0,0,0,0,16h8v3.44c0,.19.01.37.02.56H10v2h8.2a16.985,16.985,0,0,0,2.11,6H14a1.033,1.033,0,0,0-.71.29l-3,3,1.42,1.42L14.41,46h7.26a16.988,16.988,0,0,0,5.27,4.41l.06.03v2.15l-2.71,2.7,1.42,1.42,3-3A1.033,1.033,0,0,0,29,53V51.52l2.53,1.36a.98.98,0,0,0,.94,0L35,51.52V53a1.033,1.033,0,0,0,.29.71l3,3,1.42-1.42L37,52.59V50.44l.06-.03A16.988,16.988,0,0,0,42.33,46h7.26l2.7,2.71,1.42-1.42-3-3A1.033,1.033,0,0,0,50,44H43.69a16.985,16.985,0,0,0,2.11-6H54V36H45.98c.01-.19.02-.37.02-.56Zm-2,3.44a14.975,14.975,0,0,1-7.89,13.21L32,50.86l-4.11-2.21A14.975,14.975,0,0,1,20,35.44v-6.8L32,23.1l12,5.54Zm1.42-8.35-13-6a1.025,1.025,0,0,0-.84,0l-13,6A1.016,1.016,0,0,0,18,28v2H10a6,6,0,0,1,0-12,5.038,5.038,0,0,1,.85.07,1.034,1.034,0,0,0,.8-.27A1.1,1.1,0,0,0,12,17a5,5,0,0,1,8.42-3.65,1,1,0,0,0,1.67-.61A9.992,9.992,0,0,1,40.82,9.29a.982.982,0,0,0,.74.52,1,1,0,0,0,.86-.29A4.946,4.946,0,0,1,46,8a5,5,0,0,1,5,5,1,1,0,0,0,1,1,8,8,0,0,1,0,16H46V28A1.016,1.016,0,0,0,45.42,27.09Z"></path><path d="M59,34a3,3,0,1,0,3,3A3,3,0,0,0,59,34Zm0,4a1,1,0,1,1,1-1A1,1,0,0,1,59,38Z"></path><path d="M56,48a3,3,0,1,0,3,3A3,3,0,0,0,56,48Zm0,4a1,1,0,1,1,1-1A1,1,0,0,1,56,52Z"></path><path d="M8,37a3,3,0,1,0-3,3A3,3,0,0,0,8,37ZM4,37a1,1,0,1,1,1,1A1,1,0,0,1,4,37Z"></path><path d="M8,48a3,3,0,1,0,3,3A3,3,0,0,0,8,48Zm0,4a1,1,0,1,1,1-1A1,1,0,0,1,8,52Z"></path><path d="M42,56a3,3,0,1,0,3,3A3,3,0,0,0,42,56Zm0,4a1,1,0,1,1,1-1A1,1,0,0,1,42,60Z"></path><path d="M22,56a3,3,0,1,0,3,3A3,3,0,0,0,22,56Zm0,4a1,1,0,1,1,1-1A1,1,0,0,1,22,60Z"></path><path d="M29,35a3,3,0,0,0,2,2.816V42h2V37.816A2.995,2.995,0,1,0,29,35Zm4,0a1,1,0,1,1-1-1A1,1,0,0,1,33,35Z"></path></g></svg>