<svg xmlns="http://www.w3.org/2000/svg" viewBox="0 0 64 64" x="0px" y="0px"><g data-name="X Ray-Virus-Lung-Coronavirus-Covid 19"><path d="M59,2H5A3.009,3.009,0,0,0,2,5V59a3.009,3.009,0,0,0,3,3H59a3.009,3.009,0,0,0,3-3V5A3.009,3.009,0,0,0,59,2Zm1,57a1,1,0,0,1-1,1H5a1,1,0,0,1-1-1V5A1,1,0,0,1,5,4H59a1,1,0,0,1,1,1Z"></path><path d="M43,26H41a5,5,0,0,0-5,5v.33l-.6-.46a1.014,1.014,0,0,1-.4-.8V14a3,3,0,0,0-6,0V30.07a1.014,1.014,0,0,1-.4.8l-.6.46V31a5,5,0,0,0-5-5H21A11.007,11.007,0,0,0,10,37V53.23a5,5,0,0,0,5,4.99,5.046,5.046,0,0,0,1.75-.31l2.81-1.05A13.075,13.075,0,0,0,28,44.68V38.87l3.4-2.56a1.021,1.021,0,0,1,1.2,0L36,38.87v5.81a13.075,13.075,0,0,0,8.44,12.18l2.81,1.05a5.046,5.046,0,0,0,1.75.31,5,5,0,0,0,5-4.99V37A11.007,11.007,0,0,0,43,26ZM31,14a1,1,0,0,1,2,0v2H31Zm0,4h2v2H31Zm0,4h2v2H31ZM26,44.68a11.051,11.051,0,0,1-7.14,10.3l-2.81,1.05A2.994,2.994,0,0,1,12,53.23V37a9.014,9.014,0,0,1,9-9h2a3.009,3.009,0,0,1,3,3v1.84l-3.84,2.9L21,34.59V31H19v1.59l-1.29-1.3-1.42,1.42L17.59,34H16v2h3.59l.96.96-1.15.87a3,3,0,0,0-1.17,2.05V40H15v2h3.81c.04.05.07.1.11.15a.6.6,0,0,0,.08.08v3.36l-2.71,2.7,1.42,1.42L19,48.41V51h2V48.39l1.3,1.31,1.42-1.42L21,45.57V43.2a2.992,2.992,0,0,0,2.02-.58L26,40.37Zm7.8-9.97a3.03,3.03,0,0,0-1.8-.59,2.974,2.974,0,0,0-1.8.6l-8.39,6.3a1,1,0,0,1-1.2-1.6l9.2-6.96A2.984,2.984,0,0,0,31,30.07V26h2v4.07a3.017,3.017,0,0,0,1.19,2.4l9.2,6.95a1,1,0,0,1,.39.69,1,1,0,0,1-1.59.91ZM52,53.23a2.994,2.994,0,0,1-4.05,2.8l-2.81-1.05A11.051,11.051,0,0,1,38,44.68v-4.3l2.98,2.24a3.039,3.039,0,0,0,1.8.6c.08,0,.15-.02.22-.02v2.37l-2.72,2.71L41.7,49.7,43,48.39V51h2V48.41l1.29,1.3,1.42-1.42L45,45.59V42.23a.6.6,0,0,0,.08-.08c.04-.05.07-.1.11-.15H49V40H45.77v-.12a3,3,0,0,0-1.17-2.05l-1.15-.87.96-.96H48V34H46.41l1.3-1.29-1.42-1.42L45,32.59V31H43v3.59l-1.16,1.15L38,32.84V31a3.009,3.009,0,0,1,3-3h2a9.014,9.014,0,0,1,9,9Z"></path><path d="M22,19V7a1,1,0,0,0-1-1H7A1,1,0,0,0,6,7V19a1,1,0,0,0,1,1H21A1,1,0,0,0,22,19Zm-2-1H8V8H20Z"></path><rect x="10" y="10" width="8" height="2"></rect><rect x="10" y="14" width="8" height="2"></rect><path d="M55.433,11.981l1.517-1.516L55.536,9.051l-1.517,1.516A3.915,3.915,0,0,0,53,10.142V8H51v2.142a3.915,3.915,0,0,0-1.019.425L48.464,9.051,47.05,10.465l1.517,1.516A3.915,3.915,0,0,0,48.142,13H46v2h2.142a3.915,3.915,0,0,0,.425,1.019L47.05,17.535l1.414,1.414,1.517-1.516A3.915,3.915,0,0,0,51,17.858V20h2V17.858a3.915,3.915,0,0,0,1.019-.425l1.517,1.516,1.414-1.414-1.517-1.516A3.915,3.915,0,0,0,55.858,15H58V13H55.858A3.915,3.915,0,0,0,55.433,11.981ZM52,16a2,2,0,1,1,2-2A2,2,0,0,1,52,16Z"></path><path d="M53,24V22H51v1.586l-1.707,1.707,1.414,1.414,2-2A1,1,0,0,0,53,24Z"></path></g></svg>