<svg xmlns="http://www.w3.org/2000/svg" viewBox="0 0 64 64" x="0px" y="0px"><g><path d="M49,8H45V7a1,1,0,0,0-1-1H34.816A2.966,2.966,0,0,0,35,5a3,3,0,0,0-6,0,2.966,2.966,0,0,0,.184,1H20a1,1,0,0,0-1,1V8H15a5.006,5.006,0,0,0-5,5V57a5.006,5.006,0,0,0,5,5H49a5.006,5.006,0,0,0,5-5V13A5.006,5.006,0,0,0,49,8ZM31,5a1,1,0,1,1,1,1A1,1,0,0,1,31,5ZM21,8H43v5a1,1,0,0,1-1,1H22a1,1,0,0,1-1-1Zm1,8H42a3,3,0,0,0,2.816-2H47a1,1,0,0,1,1,1V55a1,1,0,0,1-1,1H17a1,1,0,0,1-1-1V15a1,1,0,0,1,1-1h2.184A3,3,0,0,0,22,16ZM52,57a3,3,0,0,1-3,3H15a3,3,0,0,1-3-3V13a3,3,0,0,1,3-3h4v2H17a3,3,0,0,0-3,3V55a3,3,0,0,0,3,3H47a3,3,0,0,0,3-3V15a3,3,0,0,0-3-3H45V10h4a3,3,0,0,1,3,3Z"></path><rect x="31" y="18" width="2" height="2"></rect><rect x="35" y="18" width="2" height="2"></rect><rect x="27" y="18" width="2" height="2"></rect><rect x="23.515" y="35" width="16.971" height="2" transform="translate(-16.083 33.172) rotate(-45)"></rect><path d="M36,37a3,3,0,1,0,3,3A3,3,0,0,0,36,37Zm0,4a1,1,0,1,1,1-1A1,1,0,0,1,36,41Z"></path><path d="M28,35a3,3,0,1,0-3-3A3,3,0,0,0,28,35Zm0-4a1,1,0,1,1-1,1A1,1,0,0,1,28,31Z"></path></g></svg>