<svg xmlns="http://www.w3.org/2000/svg" data-name="Camping Tent-Travel-Tent-Camping-Nature" viewBox="0 0 64 64" x="0px" y="0px"><path d="M59,42a2.98,2.98,0,0,0-2.35,1.16L50.06,38.6l-.57-6.23,1.76,1.22a3,3,0,1,0,3.44-4.92L33.72,13.98a3.009,3.009,0,0,0-3.44,0L9.31,28.67a3,3,0,0,0,3.44,4.92l1.76-1.22-.57,6.23L7.35,43.16A2.987,2.987,0,0,0,2,45v4a1,1,0,0,0,1,1H61a1,1,0,0,0,1-1V45A3.009,3.009,0,0,0,59,42ZM6,48H4V45a1,1,0,0,1,2,0Zm7.09,0H8V45.14l5.71-3.95ZM11.61,31.95a1.006,1.006,0,0,1-1.15-1.65L31.43,15.62a.993.993,0,0,1,1.14,0L53.54,30.3a1.019,1.019,0,0,1,.25,1.4,1.008,1.008,0,0,1-1.4.25L32.57,18.18a.992.992,0,0,0-1.14,0ZM15.09,48l1.56-17.12L31,20.91V31.59L20.29,42.29a1,1,0,0,0-.12,1.26L23.13,48Zm7.2-4.87,6.88-6.89L24.79,46.88ZM26.49,48,32,34.63,37.51,48Zm8.34-11.76,6.88,6.89-2.5,3.75ZM40.87,48l2.96-4.45a1,1,0,0,0-.12-1.26L33,31.59V20.91l14.35,9.97L48.91,48ZM56,48H50.91l-.62-6.81L56,45.14Zm4,0H58V45a1,1,0,0,1,2,0Z"></path></svg>