<svg xmlns="http://www.w3.org/2000/svg" viewBox="0 0 512 512" x="0px" y="0px"><g data-name="Smartphone"><path d="M472,152H456V136a16,16,0,0,0-32,0v48h48a16,16,0,0,0,0-32Z"></path><path d="M72,120a16,16,0,0,0-16,16v16H40a16,16,0,1,0,0,32H88V136A16,16,0,0,0,72,120Z"></path><path d="M284.284,188.52l-22.627,22.627a8,8,0,0,1-11.314,0L227.716,188.52a24,24,0,0,0-33.942,33.941L256,284.686l62.226-62.225a24,24,0,1,0-33.942-33.941Z"></path><path d="M384,400H128v56a24.028,24.028,0,0,0,24,24H360a24.028,24.028,0,0,0,24-24ZM256,464a24,24,0,1,1,24-24A24.027,24.027,0,0,1,256,464Z"></path><circle cx="256" cy="440" r="8"></circle><path d="M224,48h64a8.009,8.009,0,0,0,8-8V32H216v8A8.009,8.009,0,0,0,224,48Z"></path><path d="M384,56a24.028,24.028,0,0,0-24-24H312v8a24.027,24.027,0,0,1-24,24H224a24.027,24.027,0,0,1-24-24V32H152a24.028,24.028,0,0,0-24,24V384H384ZM329.539,233.774l-67.882,67.883a8,8,0,0,1-11.314,0l-67.882-67.883a40,40,0,0,1,56.568-56.568L256,194.177l16.971-16.971a40,40,0,0,1,56.568,56.568Z"></path></g></svg>