<svg xmlns="http://www.w3.org/2000/svg" viewBox="0 0 64 64" x="0px" y="0px"><g><path d="M27,28h2v4.586L27.285,34.3A2.951,2.951,0,0,0,26,34a3,3,0,1,0,3,3,2.951,2.951,0,0,0-.3-1.285l2.008-2.008A1,1,0,0,0,31,33V28h5v8.184a3,3,0,1,0,2,0V28h5v5a1,1,0,0,0,.293.707L45.3,35.715A2.951,2.951,0,0,0,45,37a3,3,0,1,0,3-3,2.951,2.951,0,0,0-1.285.3L45,32.586V28h2a6,6,0,0,0,1.735-11.735A5.99,5.99,0,0,0,43,12a5.8,5.8,0,0,0-2.244.452A7.942,7.942,0,0,0,35,10a8.038,8.038,0,0,0-7.738,6H27a6,6,0,0,0,0,12ZM26,38a1,1,0,1,1,1-1A1,1,0,0,1,26,38Zm11,2a1,1,0,1,1,1-1A1,1,0,0,1,37,40Zm12-3a1,1,0,1,1-1-1A1,1,0,0,1,49,37ZM27,18h1.08a1,1,0,0,0,.989-.858,5.989,5.989,0,0,1,10.652-2.836,1,1,0,0,0,1.288.249A3.936,3.936,0,0,1,43,14a3.993,3.993,0,0,1,3.925,3.273,1,1,0,0,0,.8.8A4,4,0,0,1,47,26H27a4,4,0,0,1,0-8Z"></path><path d="M50,22H48a1,1,0,0,1-1,1H45v2h2A3,3,0,0,0,50,22Z"></path><rect x="41" y="23" width="2" height="2"></rect><path d="M58,2H12A7.008,7.008,0,0,0,5,9V55a7.008,7.008,0,0,0,7,7H58a1,1,0,0,0,1-1V3A1,1,0,0,0,58,2ZM57,48H17V4H57ZM13,4h2V48H13ZM7,9a5.009,5.009,0,0,1,4-4.9V17.08a6.98,6.98,0,0,0-4,2.03ZM7,24a5.009,5.009,0,0,1,4-4.9V34.08a6.98,6.98,0,0,0-4,2.03Zm4,12.1V48.08a6.988,6.988,0,0,0-4,2.025V41A5.009,5.009,0,0,1,11,36.1ZM12,60a5,5,0,0,1,0-10H57v2H13a3,3,0,0,0,0,6H57v2Zm45-6v2H13a1,1,0,0,1,0-2Z"></path></g></svg>