<svg xmlns="http://www.w3.org/2000/svg" viewBox="0 0 64 64" x="0px" y="0px"><g><path d="M47,42H45a7.009,7.009,0,0,0-7,7v6a7.009,7.009,0,0,0,7,7h2a7.009,7.009,0,0,0,7-7V49A7.009,7.009,0,0,0,47,42Zm-2,2h2a5.006,5.006,0,0,1,5,5v1H40V49A5.006,5.006,0,0,1,45,44Zm2,16H45a5.006,5.006,0,0,1-5-5V52H52v3A5.006,5.006,0,0,1,47,60Z"></path><rect x="45" y="46" width="2" height="2"></rect><path d="M12,51V5a1,1,0,0,1,1-1H40v7a1,1,0,0,0,1.832.555L43,9.8l1.168,1.752A1,1,0,0,0,46,11V4h1a1,1,0,0,1,1,1V40h2V5a3,3,0,0,0-3-3H13a3,3,0,0,0-3,3V51a3,3,0,0,0,3,3h3V52H13A1,1,0,0,1,12,51ZM44,7.7l-.168-.252a1.039,1.039,0,0,0-1.664,0L42,7.7V4h2Z"></path><rect x="28" y="52" width="8" height="2"></rect><rect x="16" y="8" width="8" height="2"></rect><rect x="16" y="12" width="12" height="2"></rect><rect x="16" y="18" width="28" height="2"></rect><rect x="16" y="22" width="28" height="2"></rect><rect x="16" y="26" width="28" height="2"></rect><path d="M22.9,32.553a1.042,1.042,0,0,0-1.79,0l-3,6A1,1,0,0,0,18,39V58a4,4,0,0,0,8,0V39a1,1,0,0,0-.105-.447ZM22,35.236,23.382,38H20.618ZM21,40V53h2V40h1V55H20V40Zm1,20a2,2,0,0,1-2-2V57h4v1A2,2,0,0,1,22,60Z"></path><rect x="30" y="38" width="14" height="2"></rect><rect x="30" y="34" width="14" height="2"></rect></g></svg>