<svg xmlns="http://www.w3.org/2000/svg" viewBox="0 0 64 64" x="0px" y="0px"><title>Shop</title><g><path d="M61,56H55V34.886A4.874,4.874,0,0,0,56,35a5.006,5.006,0,0,0,5-5,.988.988,0,0,0-.024-.217l-2-9A1,1,0,0,0,58,20H55V17a1,1,0,0,0-1-1H46V14h2a1,1,0,0,0,1-1V3a1,1,0,0,0-1-1H16a1,1,0,0,0-1,1V13a1,1,0,0,0,1,1h2v2H10a1,1,0,0,0-1,1v3H6a1,1,0,0,0-.976.783l-2,9A.988.988,0,0,0,3,30a5.006,5.006,0,0,0,5,5,4.874,4.874,0,0,0,1-.114V56H3a1,1,0,0,0-1,1v4a1,1,0,0,0,1,1H61a1,1,0,0,0,1-1V57A1,1,0,0,0,61,56ZM35,30a2.7,2.7,0,0,1-.1.753,3,3,0,0,1-5.808-.024A2.634,2.634,0,0,1,29,30V22h6Zm-8,0a2.7,2.7,0,0,1-.1.753,3,3,0,0,1-5.808-.024A2.6,2.6,0,0,1,21,30.052L21.9,22H27Zm-8,0a2.7,2.7,0,0,1-.1.753,3,3,0,0,1-5.808-.024A2.6,2.6,0,0,1,13,30.052L13.9,22h5.988l-.877,7.89A1,1,0,0,0,19,30Zm18-8h5.1l.9,8.052a2.709,2.709,0,0,1-.1.7,3,3,0,0,1-5.808-.024A2.634,2.634,0,0,1,37,30Zm7.994,7.89L44.117,22h5.988l.9,8.052a2.709,2.709,0,0,1-.1.7,3,3,0,0,1-5.808-.024A2.634,2.634,0,0,1,45,30,1,1,0,0,0,44.994,29.89ZM59,30.1A3,3,0,0,1,56,33a2.97,2.97,0,0,1-1.5-.407,3.014,3.014,0,0,1-1.406-1.864A2.634,2.634,0,0,1,53,30a1,1,0,0,0-.006-.11L52.117,22H57.2ZM17,4H47v8H17Zm3,10H44v2H20Zm-9,4H53v2H11ZM5,30.1,6.8,22h5.081l-.877,7.89A1,1,0,0,0,11,30a2.713,2.713,0,0,1-.1.751,3,3,0,0,1-1.4,1.842A2.97,2.97,0,0,1,8,33,3,3,0,0,1,5,30.1Zm6,3.864a4.977,4.977,0,0,0,1-.984,4.972,4.972,0,0,0,8,0,4.972,4.972,0,0,0,8,0,4.972,4.972,0,0,0,8,0,4.972,4.972,0,0,0,8,0,4.973,4.973,0,0,0,8,0,4.947,4.947,0,0,0,1,.981V56H49V41a1,1,0,0,0-1-1H38a1,1,0,0,0-1,1V56H11ZM47,56H39V42h8Zm13,4H4V58H60Z"></path><path d="M32,40H16a1,1,0,0,0-1,1V51a1,1,0,0,0,1,1H32a1,1,0,0,0,1-1V41A1,1,0,0,0,32,40ZM31,50H17V42H31Z"></path></g></svg>