<svg xmlns="http://www.w3.org/2000/svg" viewBox="0 0 64 64" x="0px" y="0px"><g data-name="Avatar-Man-Men-Profile-Bow Tie"><path d="M24.24,40.41,29,39.22V36.78l-4.76-1.19a.986.986,0,0,0-.24-.03.99.99,0,0,0-1,1v2.88a1,1,0,0,0,.38.79A1.022,1.022,0,0,0,24.24,40.41Z"></path><path d="M38.24,27.48l-4.35-.49.22-1.98,5.6.62a8.791,8.791,0,0,0,.86-1.9l-6.81-1.36a9.065,9.065,0,0,0-3.52,0l-6.81,1.36a9.3,9.3,0,0,0,.86,1.9l5.6-.62.22,1.98-4.34.49a8.973,8.973,0,0,0,12.47,0Z"></path><path d="M43,16v4a2.015,2.015,0,0,0,2-2A2.006,2.006,0,0,0,43,16Z"></path><path d="M40.62,40.23a1,1,0,0,0,.38-.79V36.56a1,1,0,0,0-.38-.79.989.989,0,0,0-.86-.18L35,36.78v2.44l4.76,1.19A1.022,1.022,0,0,0,40.62,40.23Z"></path><path d="M51,60V45.88a6.964,6.964,0,0,0-4.91-6.68L43,38.24v1.2a3,3,0,0,1-2.99,3,3.121,3.121,0,0,1-.74-.09L33.88,41H33V60H43V45h2V60Z"></path><path d="M35,34.72V31.58A11.09,11.09,0,0,1,32,32a10.665,10.665,0,0,1-3-.43v3.15l1.12.28h3.76Z"></path><path d="M41,12.23V11a4.335,4.335,0,0,0-.11-.89,5.175,5.175,0,0,1-.92.89Z"></path><rect x="31" y="37" width="2" height="2"></rect><path d="M23,21c0,.26.02.52.04.77l6.8-1.36a11.214,11.214,0,0,1,4.32,0l6.8,1.36c.02-.25.04-.51.04-.77V15.36l-2.9-3.49A5.015,5.015,0,0,1,37,12H26c-.06,0-.12-.02-.19-.02L23,15.36Zm13-6a2,2,0,1,1-2,2A2,2,0,0,1,36,15Zm-8,0a2,2,0,1,1-2,2A2,2,0,0,1,28,15Z"></path><path d="M39,4H23V7a3.009,3.009,0,0,0,3,3H37a3.009,3.009,0,0,0,3-3V5A1,1,0,0,0,39,4Z"></path><path d="M13,60h6V45h2V60H31V41h-.88l-5.39,1.35a3.121,3.121,0,0,1-.74.09,3,3,0,0,1-2.99-3v-1.2l-3.09.96A6.964,6.964,0,0,0,13,45.88Z"></path><path d="M23,12.24l.69-.83a3.869,3.869,0,0,1-.59-.36A5.021,5.021,0,0,0,23,12Z"></path><path d="M19,18a2.015,2.015,0,0,0,2,2V16A2.006,2.006,0,0,0,19,18Z"></path></g></svg>