<svg xmlns="http://www.w3.org/2000/svg" viewBox="0 0 64 64" x="0px" y="0px"><g data-name="Computer Storage"><path d="M59.56,18.454a10,10,0,0,0-6.625-3.41A7.012,7.012,0,0,0,46,9a6.928,6.928,0,0,0-4.051,1.292,11.994,11.994,0,0,0-21.533,3.6A6.984,6.984,0,0,0,10.083,19a8,8,0,0,0-8.022,9,8.143,8.143,0,0,0,8.205,7H14V33H10.266a6.141,6.141,0,0,1-6.219-5.244,5.956,5.956,0,0,1,6.814-6.686,1.015,1.015,0,0,0,.8-.274A1.083,1.083,0,0,0,12,20a4.993,4.993,0,0,1,8.412-3.646,1,1,0,0,0,1.676-.606A9.993,9.993,0,0,1,40.82,12.29a1,1,0,0,0,1.6.226A5,5,0,0,1,51,16a1,1,0,0,0,1,1,8,8,0,0,1,7.914,9.192A8.18,8.18,0,0,1,51.72,33H50v2h1.72A10.191,10.191,0,0,0,61.9,26.477,10.056,10.056,0,0,0,59.56,18.454Z"></path><rect x="47" y="15" width="2" height="2"></rect><rect x="43" y="15" width="2" height="2"></rect><path d="M56,25a4,4,0,0,1-4,4v2a6.006,6.006,0,0,0,6-6Z"></path><path d="M45,21H19a3,3,0,0,0-3,3V50a3,3,0,0,0,3,3H45a3,3,0,0,0,3-3V24A3,3,0,0,0,45,21ZM19,23H45a1,1,0,0,1,1,1v5H18V24A1,1,0,0,1,19,23ZM45,51H19a1,1,0,0,1-1-1V31H46V50A1,1,0,0,1,45,51Z"></path><rect x="20" y="25" width="2" height="2"></rect><rect x="24" y="25" width="2" height="2"></rect><rect x="28" y="25" width="2" height="2"></rect><rect x="27" y="37" width="2" height="2"></rect><rect x="31" y="37" width="6" height="2"></rect><rect x="27" y="43" width="2" height="2"></rect><rect x="31" y="43" width="6" height="2"></rect><path d="M43,37H41V36a2,2,0,0,0-2-2H25a2,2,0,0,0-2,2v1H21a1,1,0,0,0-1,1v6a1,1,0,0,0,1,1h2v1a2,2,0,0,0,2,2H39a2,2,0,0,0,2-2V45h2a1,1,0,0,0,1-1V38A1,1,0,0,0,43,37ZM25,36H39v4H25Zm-3,7V39h1v1a1.978,1.978,0,0,0,.278,1A1.978,1.978,0,0,0,23,42v1Zm3,3V42H39v4Zm17-3H41V42a1.978,1.978,0,0,0-.278-1A1.978,1.978,0,0,0,41,40V39h1Z"></path><path d="M11,37a2.993,2.993,0,0,0-1,5.816V46h2V42.816A2.993,2.993,0,0,0,11,37Zm0,4a1,1,0,1,1,1-1A1,1,0,0,1,11,41Z"></path><rect x="10" y="48" width="2" height="2"></rect><rect x="10" y="52" width="2" height="2"></rect><rect x="52" y="37" width="2" height="2"></rect><rect x="52" y="41" width="2" height="2"></rect><rect x="52" y="45" width="2" height="2"></rect><path d="M53,49a3,3,0,1,0,3,3A3,3,0,0,0,53,49Zm0,4a1,1,0,1,1,1-1A1,1,0,0,1,53,53Z"></path></g></svg>