<svg xmlns="http://www.w3.org/2000/svg" viewBox="0 0 64 64" x="0px" y="0px"><g data-name="Cloud-Cloud Computing-Setting-Preferences-Gear"><path d="M32,36a8,8,0,1,0,8,8A8.009,8.009,0,0,0,32,36Zm0,14a6,6,0,1,1,6-6A6.006,6.006,0,0,1,32,50Z"></path><rect x="31" y="31" width="2" height="2"></rect><rect x="22.515" y="34.515" width="2" height="2" transform="translate(-18.225 27.029) rotate(-45)"></rect><rect x="19" y="43" width="2" height="2"></rect><rect x="22.515" y="51.485" width="2" height="2" transform="translate(-30.225 32) rotate(-45)"></rect><rect x="31" y="55" width="2" height="2"></rect><rect x="39.485" y="51.485" width="2" height="2" transform="translate(-25.255 44) rotate(-45)"></rect><rect x="43" y="43" width="2" height="2"></rect><rect x="39.485" y="34.515" width="2" height="2" transform="translate(-13.255 39.029) rotate(-45)"></rect><path d="M51.98,18.36A10.01,10.01,0,0,0,42,9a9.729,9.729,0,0,0-2.16.24A15,15,0,0,0,12,17a12.283,12.283,0,0,0,.07,1.34A12.99,12.99,0,0,0,14,43.95V47a1,1,0,0,0,.86.99l3.9.56a14.937,14.937,0,0,0,.66,1.6L17.06,53.3a1,1,0,0,0,.09,1.31l4.24,4.24a1,1,0,0,0,1.31.09l3.15-2.36a14.937,14.937,0,0,0,1.6.66l.56,3.9A1,1,0,0,0,29,62h6a1,1,0,0,0,.99-.86l.56-3.9a14.937,14.937,0,0,0,1.6-.66l3.15,2.36a1,1,0,0,0,1.31-.09l4.24-4.24a1,1,0,0,0,.09-1.31l-2.36-3.15a14.937,14.937,0,0,0,.66-1.6l3.9-.56A1,1,0,0,0,50,47V43.95a12.985,12.985,0,0,0,1.98-25.59ZM48,46.13l-3.67.53a.987.987,0,0,0-.82.71,11.78,11.78,0,0,1-.99,2.39,1.046,1.046,0,0,0,.08,1.09l2.22,2.96-3.01,3.01L38.85,54.6a1.046,1.046,0,0,0-1.09-.08,11.78,11.78,0,0,1-2.39.99.987.987,0,0,0-.71.82L34.13,60H29.87l-.53-3.67a.987.987,0,0,0-.71-.82,11.78,11.78,0,0,1-2.39-.99,1.046,1.046,0,0,0-1.09.08l-2.96,2.22-3.01-3.01,2.22-2.96a1.046,1.046,0,0,0,.08-1.09,11.78,11.78,0,0,1-.99-2.39.987.987,0,0,0-.82-.71L16,46.13V41.87l3.67-.53a.987.987,0,0,0,.82-.71,11.78,11.78,0,0,1,.99-2.39,1.046,1.046,0,0,0-.08-1.09l-2.22-2.96,3.01-3.01,2.96,2.22a1.046,1.046,0,0,0,1.09.08,11.78,11.78,0,0,1,2.39-.99.987.987,0,0,0,.71-.82L29.87,28h4.26l.53,3.67a.987.987,0,0,0,.71.82,11.78,11.78,0,0,1,2.39.99,1.046,1.046,0,0,0,1.09-.08l2.96-2.22,3.01,3.01L42.6,37.15a1.046,1.046,0,0,0-.08,1.09,11.78,11.78,0,0,1,.99,2.39.987.987,0,0,0,.82.71l3.67.53Zm2-4.18V41a1,1,0,0,0-.86-.99l-3.9-.56a14.937,14.937,0,0,0-.66-1.6l2.36-3.15a1,1,0,0,0-.09-1.31l-4.24-4.24a1,1,0,0,0-1.31-.09l-3.15,2.36a14.937,14.937,0,0,0-1.6-.66l-.56-3.9A1,1,0,0,0,35,26H29a1,1,0,0,0-.99.86l-.56,3.9a14.937,14.937,0,0,0-1.6.66L22.7,29.06a1,1,0,0,0-1.31.09l-4.24,4.24a1,1,0,0,0-.09,1.31l2.36,3.15a14.937,14.937,0,0,0-.66,1.6l-3.9.56A1,1,0,0,0,14,41v.95a10.99,10.99,0,0,1-.67-21.81,1,1,0,0,0,.66-.4,1.035,1.035,0,0,0,.18-.75,12.994,12.994,0,0,1,24.3-8.12.984.984,0,0,0,1.18.48A8.008,8.008,0,0,1,50,19.01c0,.03-.01.14-.01.17a1,1,0,0,0,.84.99A10.988,10.988,0,0,1,50,41.95Z"></path><path d="M17,17h2a8.009,8.009,0,0,1,8-8V7A10.011,10.011,0,0,0,17,17Z"></path><path d="M55,31a6.006,6.006,0,0,1-6,6v2a8.009,8.009,0,0,0,8-8Z"></path></g></svg>