<svg xmlns="http://www.w3.org/2000/svg" viewBox="0 0 64 64" x="0px" y="0px"><g data-name="Search-Magnifying Glass-Time-Jobs-Hiring"><path d="M46,52H26v2H47a1,1,0,0,0,1-1V48H46Z"></path><rect x="26" y="56" width="2" height="2"></rect><rect x="30" y="56" width="2" height="2"></rect><rect x="34" y="56" width="2" height="2"></rect><rect x="38" y="56" width="2" height="2"></rect><rect x="42" y="56" width="2" height="2"></rect><rect x="46" y="56" width="2" height="2"></rect><path d="M57.86,31.06l-3.08-1.23a15,15,0,1,0-15.56,0l-3.08,1.23A5,5,0,0,0,33,35.71V45a1,1,0,0,0,1,1H60a1,1,0,0,0,1-1V35.71A5,5,0,0,0,57.86,31.06ZM34,17A13,13,0,1,1,52.33,28.85l-.11-.04L51,27.59v-.85A7.01,7.01,0,0,0,54,21a3,3,0,0,0,0-6,2.974,2.974,0,0,0-.78-2A2.974,2.974,0,0,0,54,11V8a1,1,0,0,0-1-1H43a3.009,3.009,0,0,0-3,3v5a3,3,0,0,0,0,6,7.01,7.01,0,0,0,3,5.74v.85l-1.22,1.22-.11.04A12.953,12.953,0,0,1,34,17ZM45,27.72v-.01a7.042,7.042,0,0,0,4,0v.01l-2,3.34Zm.68,5.02-1.96,1.47-.65-3.87.73-.73Zm4.52-3.13.73.73L50.32,34H50l-1.68-1.26ZM47,26a5,5,0,0,1-5-5V15a1,1,0,0,1,1-1h8a1,1,0,0,1,1,1v6A5,5,0,0,1,47,26ZM42,12.18V10a1,1,0,0,1,1-1h9v2a1,1,0,0,1-1,1H43A3,3,0,0,0,42,12.18ZM54,19V17a1,1,0,0,1,0,2ZM40,17v2a1,1,0,0,1,0-2ZM59,44H56V37H54v7H40V37H38v7H35V35.71a3,3,0,0,1,1.88-2.79l4.31-1.72.82,4.96a1,1,0,0,0,.62.77A.937.937,0,0,0,43,37a1.029,1.029,0,0,0,.6-.2L47,34.25l3.4,2.55a1.029,1.029,0,0,0,.6.2.937.937,0,0,0,.37-.07,1,1,0,0,0,.62-.77l.82-4.96,4.31,1.72A3,3,0,0,1,59,35.71Z"></path><path d="M18,4H37V2H17a1,1,0,0,0-1,1v8h2Z"></path><rect x="20" y="6" width="2" height="2"></rect><rect x="24" y="6" width="2" height="2"></rect><rect x="28" y="6" width="2" height="2"></rect><path d="M28,28A11,11,0,1,0,17,39,11.013,11.013,0,0,0,28,28ZM11.343,32.243,9.975,33.611A8.956,8.956,0,0,1,8.059,29H10V27H8.059a8.956,8.956,0,0,1,1.916-4.611l1.368,1.368,1.414-1.414-1.368-1.368A8.956,8.956,0,0,1,16,19.059V21h2V19.059a8.956,8.956,0,0,1,4.611,1.916l-1.368,1.368,1.414,1.414,1.368-1.368A8.956,8.956,0,0,1,25.941,27H24v2h1.941a8.956,8.956,0,0,1-1.916,4.611l-1.368-1.368-1.414,1.414,1.368,1.368A8.956,8.956,0,0,1,18,36.941V35H16v1.941a8.956,8.956,0,0,1-4.611-1.916l1.368-1.368Z"></path><path d="M17.707,28.707A1,1,0,0,0,18,28V23H16v4.586l-1.707,1.707,1.414,1.414Z"></path><path d="M17,13a14.987,14.987,0,0,0-5,29.12V57a5,5,0,0,0,10,0V42.12A14.987,14.987,0,0,0,17,13Zm3,44a3,3,0,0,1-6,0V53h6Zm0-6H14V49h6Zm0-4H14V42.7a15.15,15.15,0,0,0,6,0Zm-3-6A13,13,0,1,1,30,28,13.012,13.012,0,0,1,17,41Z"></path><path d="M49.5,22.33l-1-1.73a3.057,3.057,0,0,1-3,0l-1,1.73a5.007,5.007,0,0,0,5,0Z"></path></g></svg>