<svg xmlns="http://www.w3.org/2000/svg" viewBox="0 0 48 48" x="0px" y="0px"><title>Gift Box_2</title><g data-name="Gift Box"><path d="M47.121,13.18,34.819.879A2.978,2.978,0,0,0,32.7,0H15.3a2.978,2.978,0,0,0-2.121.879L.879,13.18A2.98,2.98,0,0,0,0,15.3V32.7A2.98,2.98,0,0,0,.879,34.82l12.3,12.3A2.978,2.978,0,0,0,15.3,48H32.7a2.978,2.978,0,0,0,2.121-.879l12.3-12.3A2.984,2.984,0,0,0,48,32.7V15.3A2.984,2.984,0,0,0,47.121,13.18ZM33.405,2.293l12.3,12.3A1,1,0,0,1,46,15.3V18H39V16.55A5,5,0,0,0,32.423,11.8L26.76,13.7A5.851,5.851,0,0,0,25,13.113V2h7.7A1.008,1.008,0,0,1,33.405,2.293ZM26.133,22.386a4.08,4.08,0,0,1-4.267,0,4.012,4.012,0,0,1-.7-6.219,3.442,3.442,0,0,1,.654-.512c.019-.012.034-.025.054-.037A3.888,3.888,0,0,1,24,15a3.927,3.927,0,0,1,2.16.64,3.44,3.44,0,0,1,.669.523,4.022,4.022,0,0,1,0,5.67A3.9,3.9,0,0,1,26.133,22.386Zm-6.757.441L14.944,24.3A3,3,0,0,1,11,21.45v-4.9a3.008,3.008,0,0,1,2.991-3.007,3.011,3.011,0,0,1,.951.155l4.426,1.48-.008.012a6.029,6.029,0,0,0-.527.767c-.025.042-.052.083-.076.126a6.04,6.04,0,0,0-.371.81c-.02.051-.038.1-.056.155a5.992,5.992,0,0,0-.229.868L18.086,18H16a1,1,0,0,0,0,2h2.087c.011.068.031.134.045.2a5.86,5.86,0,0,0,.185.694c.024.074.044.148.071.22a5.954,5.954,0,0,0,.385.83c.027.049.061.094.09.142a5.853,5.853,0,0,0,.437.63C19.327,22.752,19.347,22.792,19.376,22.827Zm9.259-.011a6.091,6.091,0,0,0,.531-.77c.024-.042.05-.082.074-.125a6.082,6.082,0,0,0,.374-.812q.028-.077.054-.153a5.91,5.91,0,0,0,.231-.871L29.914,20H32a1,1,0,0,0,0-2H29.914l-.015-.083a5.992,5.992,0,0,0-.229-.868c-.018-.052-.036-.1-.055-.155a6.064,6.064,0,0,0-.373-.811c-.023-.042-.049-.082-.073-.123a6.084,6.084,0,0,0-.533-.774l0-.008L33.056,13.7A3,3,0,0,1,37,16.55v4.9A3,3,0,0,1,33.056,24.3l-4.429-1.474ZM2.293,14.594l12.3-12.3A1.008,1.008,0,0,1,15.3,2H23V13.11a5.719,5.719,0,0,0-1.763.584L15.575,11.8A5,5,0,0,0,9,16.55V18H2V15.3A1,1,0,0,1,2.293,14.594ZM14.6,45.707l-12.3-12.3A1,1,0,0,1,2,32.7V20H9v1.45a5.011,5.011,0,0,0,4.984,5.009,5.044,5.044,0,0,0,1.591-.26l5.663-1.885c.1.052.2.114.3.161-1.3,3.977-3.551,9.125-7.243,12.818a1,1,0,1,0,1.414,1.414A33.616,33.616,0,0,0,23,26.367V46H15.3A1.008,1.008,0,0,1,14.6,45.707Zm31.112-12.3-12.3,12.3A1.008,1.008,0,0,1,32.7,46H25V26.367a33.616,33.616,0,0,0,7.293,12.34,1,1,0,0,0,1.414-1.414c-3.692-3.693-5.941-8.84-7.243-12.818.1-.046.2-.108.3-.161L32.425,26.2a5.044,5.044,0,0,0,1.591.26A5.011,5.011,0,0,0,39,21.45V20h7V32.7A1,1,0,0,1,45.707,33.406Z"></path></g></svg>