<svg xmlns="http://www.w3.org/2000/svg" viewBox="0 0 48 48" x="0px" y="0px"><title>Credit-Card</title><g><path d="M24,0A24,24,0,1,0,48,24,24.028,24.028,0,0,0,24,0Zm0,46A22,22,0,1,1,46,24,22.025,22.025,0,0,1,24,46Z"></path><path d="M37,13H11a2,2,0,0,0-2,2V33a2,2,0,0,0,2,2H37a2,2,0,0,0,2-2V15A2,2,0,0,0,37,13ZM11,33V15H37V33Z"></path><path d="M31,16a3.967,3.967,0,0,0-2.009.551A3.957,3.957,0,0,0,27,16a4,4,0,0,0,0,8,3.957,3.957,0,0,0,1.991-.551A4,4,0,1,0,31,16Zm-6,4a2,2,0,1,1,2,2A2,2,0,0,1,25,20Zm6,2a1.98,1.98,0,0,1-.515-.076,3.851,3.851,0,0,0,0-3.848A1.98,1.98,0,0,1,31,18a2,2,0,0,1,0,4Z"></path><rect x="14" y="29" width="21" height="2"></rect><rect x="14" y="17" width="6" height="2"></rect><rect x="14" y="21" width="6" height="2"></rect></g></svg>