<svg xmlns="http://www.w3.org/2000/svg" viewBox="0 0 64 64" x="0px" y="0px"><g><path d="M5,38h8V36H5a.957.957,0,0,0-.694.288A.978.978,0,0,0,4,37,1,1,0,0,0,5,38Z"></path><path d="M22,56H20v3a1,1,0,0,0,2,0Z"></path><path d="M15,41H27V34a1,1,0,0,0-1-1H16a1,1,0,0,0-1,1Z"></path><path d="M55.3,45.668,56.719,40H29v1.278A1.993,1.993,0,0,1,30,43v2a1.993,1.993,0,0,1-1,1.722V48a3,3,0,0,1-3,3H16a3,3,0,0,1-3-3V46.722A1.993,1.993,0,0,1,12,45V43a1.993,1.993,0,0,1,1-1.722V40H7.281L8.7,45.667A10.975,10.975,0,0,0,19.37,54H44.63A10.974,10.974,0,0,0,55.3,45.668Z"></path><path d="M44,56H42v3a1,1,0,0,0,2,0Z"></path><path d="M39.069,12A8,8,0,0,1,55,13V34h1V13a9,9,0,0,0-17.941-1Z"></path><path d="M33,15v1H43V15a1,1,0,0,0-1-1H34A1,1,0,0,0,33,15Z"></path><path d="M59.694,37.712A.978.978,0,0,0,60,37a1,1,0,0,0-1-1H29v2H59A.957.957,0,0,0,59.694,37.712Z"></path><path d="M16,49H26a1,1,0,0,0,1-1V47H15v1A1,1,0,0,0,16,49Z"></path><rect x="14" y="43" width="14" height="2"></rect><rect x="37" y="20" width="2" height="2"></rect><rect x="37" y="24" width="2" height="2"></rect><rect x="41" y="20" width="2" height="2"></rect><rect x="41" y="24" width="2" height="2"></rect><rect x="33" y="20" width="2" height="2"></rect><rect x="33" y="24" width="2" height="2"></rect></g></svg>