<svg xmlns="http://www.w3.org/2000/svg" viewBox="0 0 64 64" x="0px" y="0px"><g data-name="Coffee Shop"><path d="M47,47H36a1,1,0,0,0-1,1v6a3,3,0,0,0,3,3h4a3,3,0,0,0,3-3V53h2a2,2,0,0,0,2-2V49A2,2,0,0,0,47,47Zm-4,7a1,1,0,0,1-1,1H38a1,1,0,0,1-1-1V49h6v5Zm2-3V49h2l0,2Z"></path><path d="M47,42H43a2,2,0,0,0-2,2v1h2V44h4a2,2,0,0,0,2-2V40H47Z"></path><path d="M39,42a1,1,0,0,1,1-1h3a2,2,0,0,0,2-2V37H43v2H40a3,3,0,0,0-3,3v2h2Z"></path><rect x="31" y="9" width="2" height="2"></rect><rect x="35" y="9" width="2" height="2"></rect><rect x="27" y="9" width="2" height="2"></rect><path d="M57,60V35.9A5.009,5.009,0,0,0,61,31V25a1,1,0,0,0-.1-.447l-6-12A1,1,0,0,0,54,12H50V3a1,1,0,0,0-1-1H15a1,1,0,0,0-1,1v9H10a1,1,0,0,0-.895.553l-6,12A1,1,0,0,0,3,25v6a5.009,5.009,0,0,0,4,4.9V60H2v2H62V60Zm2-29a3,3,0,0,1-6,0V30h6Zm-8,0a3,3,0,0,1-6,0V30h6Zm-8,0a3,3,0,0,1-6,0V30h6Zm-8,0a3,3,0,0,1-6,0V30h6Zm-8,0a3,3,0,0,1-6,0V30h6Zm-8,0a3,3,0,0,1-6,0V30h6ZM5,26H59v2H5ZM16,4H48V16H16ZM10.618,14H14v3a1,1,0,0,0,1,1H49a1,1,0,0,0,1-1V14h3.382l5,10H5.618ZM5,31V30h6v1a3,3,0,0,1-6,0ZM15,60V42H27V60Zm14,0V41a1,1,0,0,0-1-1H14a1,1,0,0,0-1,1V60H9V35.9a4.994,4.994,0,0,0,3-1.93,4.954,4.954,0,0,0,8,0,4.954,4.954,0,0,0,8,0,4.954,4.954,0,0,0,8,0,4.954,4.954,0,0,0,8,0,4.954,4.954,0,0,0,8,0,4.994,4.994,0,0,0,3,1.93V60Z"></path></g></svg>