<svg xmlns="http://www.w3.org/2000/svg" viewBox="0 0 64 64" x="0px" y="0px"><g data-name="Tablet-Elearning-Audio Book-Hand-Lesson"><path d="M56,46V8a4,4,0,0,0-4-4H12A4,4,0,0,0,8,8V56a4,4,0,0,0,4,4H29.75l-1.14-2H12a2.006,2.006,0,0,1-2-2V8a2.006,2.006,0,0,1,2-2H52a2.006,2.006,0,0,1,2,2V46.54A3.989,3.989,0,0,1,56,46Z"></path><path d="M12,8V56H27.48l-.55-.97a4.007,4.007,0,0,1,1.47-5.45,3.925,3.925,0,0,1,2-.54,3.977,3.977,0,0,1,3.47,2l.13.23V37.79A10.2,10.2,0,0,1,32,38,10,10,0,1,1,42,28a9.873,9.873,0,0,1-1.36,5.02c.06.05.13.1.19.15A4,4,0,0,1,42,36v8.54a3.994,3.994,0,0,1,4.83.63,4.118,4.118,0,0,1,.6.79A3.916,3.916,0,0,1,52,45.55V8Zm4,32h2v2H16ZM26,50H16V48H26Zm4-4H16V44H30Zm0-6v2H20V40ZM48,14H25.82a2.988,2.988,0,0,1-5.64,0H16V12h4.18a2.988,2.988,0,0,1,5.64,0H48Z"></path><circle cx="23" cy="13" r="1"></circle><polygon points="30 31.201 35.113 28 30 24.804 30 31.201"></polygon><path d="M32,20a8,8,0,0,0,0,16,8.129,8.129,0,0,0,2.03-.26A3.985,3.985,0,0,1,38,32a4.6,4.6,0,0,1,.84.09A7.828,7.828,0,0,0,40,28,8.011,8.011,0,0,0,32,20Zm4.17,9.7-5.11,3.19A2.012,2.012,0,0,1,30,33.2a2.09,2.09,0,0,1-.97-.25A2.03,2.03,0,0,1,28,31.2V24.8a2.03,2.03,0,0,1,1.03-1.75,2,2,0,0,1,2.03.06l5.11,3.19a2.007,2.007,0,0,1,0,3.4Z"></path><path d="M58,50V61H32.61l-3.94-6.96a2.006,2.006,0,0,1,.73-2.73,2.033,2.033,0,0,1,2.73.73l2,3.46a1.022,1.022,0,0,0,1.13.47A1,1,0,0,0,36,55V36a2.006,2.006,0,0,1,2-2,2.015,2.015,0,0,1,2,2V52a1,1,0,0,0,2,0V48a2.006,2.006,0,0,1,2-2,2.015,2.015,0,0,1,2,2v4a1,1,0,0,0,2,0V49a2.006,2.006,0,0,1,2-2,2.015,2.015,0,0,1,2,2v3.03a1,1,0,0,0,2,0V50a2,2,0,0,1,4,0Z"></path></g></svg>