<svg xmlns="http://www.w3.org/2000/svg" viewBox="0 0 64 64" x="0px" y="0px"><title>Smartphone</title><g data-name="Smartphone Bluetooth"><path d="M44,2H20a5.006,5.006,0,0,0-5,5V57a5.006,5.006,0,0,0,5,5H44a5.006,5.006,0,0,0,5-5V7A5.006,5.006,0,0,0,44,2Zm0,58H20a3,3,0,0,1-3-3V12H43V10H17V7a3,3,0,0,1,3-3H44a3,3,0,0,1,3,3V50H21v2H47v5A3,3,0,0,1,44,60Z"></path><rect x="31" y="55" width="2" height="2"></rect><rect x="24" y="6" width="2" height="2"></rect><rect x="28" y="6" width="2" height="2"></rect><path d="M21,16h3V14H20a1,1,0,0,0-1,1v4h2Z"></path><path d="M23.293,25.707,29.586,32l-6.293,6.293,1.414,1.414L30,34.414V44a1,1,0,0,0,1.707.707l6-6a1,1,0,0,0,0-1.414L32.414,32l5.293-5.293a1,1,0,0,0,0-1.414l-6-6A1,1,0,0,0,30,20v9.586l-5.293-5.293ZM32,41.586V34.414L35.586,38Zm0-19.172L35.586,26,32,29.586Z"></path></g></svg>