<svg xmlns="http://www.w3.org/2000/svg" viewBox="0 0 64 64" x="0px" y="0px"><g data-name="Law"><circle cx="32" cy="26" r="1"></circle><polygon points="24 28.236 21.618 33 26.382 33 24 28.236"></polygon><polygon points="42.382 33 40 28.236 37.618 33 42.382 33"></polygon><path d="M24,37a3,3,0,0,0,2.815-2h-5.63A3,3,0,0,0,24,37Z"></path><path d="M43.2,8.4a1.036,1.036,0,0,1,1.6,0L46,10V4H42v6Z"></path><path d="M40,37a3,3,0,0,0,2.815-2h-5.63A3,3,0,0,0,40,37Z"></path><path d="M13,60H51a1,1,0,0,0,1-1V5a1,1,0,0,0-1-1H48v9a1,1,0,0,1-.684.949A1.019,1.019,0,0,1,47,14a1,1,0,0,1-.8-.4L44,10.667,41.8,13.6A1,1,0,0,1,40,13V4H13a1,1,0,0,0-1,1V59A1,1,0,0,0,13,60Zm35-7H38V51H48ZM24,47H38v2H24Zm-2-4V41h2v2Zm20,4v2H40V47Zm-2-4V41h2v2Zm8,4v2H44V47ZM26,12H38v2H26Zm0,4H38v2H26ZM19.105,33.553,22.382,27H21V25h8.184A3,3,0,0,1,31,23.184V22h2v1.184A3,3,0,0,1,34.816,25H43v2H41.618L44.9,33.553A1,1,0,0,1,45,34a5,5,0,0,1-10,0,1,1,0,0,1,.1-.447L38.382,27H34.816A3,3,0,0,1,33,28.816V41h5v2H26V41h5V28.816A3,3,0,0,1,29.184,27H25.618L28.9,33.553A1,1,0,0,1,29,34a5,5,0,0,1-10,0A1,1,0,0,1,19.105,33.553ZM16,47h6v2H16Zm0,4H36v2H16Z"></path></g></svg>