<svg xmlns="http://www.w3.org/2000/svg" viewBox="0 0 64 64" x="0px" y="0px"><title>Crown-King-Love</title><g><path d="M58,10a3.991,3.991,0,0,0-2.755,6.887L42.289,24.652,33.63,11.645a4,4,0,1,0-3.26,0L21.714,24.652,8.755,16.887A3.99,3.99,0,1,0,6,18c.065,0,.126-.016.191-.019L12.758,48H12a3,3,0,0,0-3,3v6a3,3,0,0,0,3,3H52a3,3,0,0,0,3-3V51a3,3,0,0,0-3-3h-.758l6.567-30.019c.065,0,.126.019.191.019a4,4,0,0,0,0-8ZM4,14a2,2,0,1,1,2,2A2,2,0,0,1,4,14ZM32,6a2,2,0,1,1-2,2A2,2,0,0,1,32,6ZM53,51v6a1,1,0,0,1-1,1H12a1,1,0,0,1-1-1V51a1,1,0,0,1,1-1H52A1,1,0,0,1,53,51Zm-3.8-3H14.805L8.472,19.048,21.5,26.857a1,1,0,0,0,1.346-.3L32,12.805l9.153,13.749a1,1,0,0,0,1.346.3l13.029-7.809ZM58,16a2,2,0,1,1,2-2A2,2,0,0,1,58,16Z"></path><path d="M32,51a3,3,0,1,0,3,3A3,3,0,0,0,32,51Zm0,4a1,1,0,1,1,1-1A1,1,0,0,1,32,55Z"></path><path d="M44,51a3,3,0,1,0,3,3A3,3,0,0,0,44,51Zm0,4a1,1,0,1,1,1-1A1,1,0,0,1,44,55Z"></path><path d="M20,51a3,3,0,1,0,3,3A3,3,0,0,0,20,51Zm0,4a1,1,0,1,1,1-1A1,1,0,0,1,20,55Z"></path><path d="M36.005,28h-.014A5.884,5.884,0,0,0,32,29.545,5.9,5.9,0,0,0,28.018,28H28a5.976,5.976,0,0,0-6,5.993c0,2.376,1.2,4.83,3.566,7.3a28.488,28.488,0,0,0,5.947,4.586A1.007,1.007,0,0,0,32,46a.994.994,0,0,0,.485-.126C32.874,45.658,42,40.516,42,34A6,6,0,0,0,36.005,28ZM32,43.838a26.755,26.755,0,0,1-4.99-3.937C25.012,37.824,24,35.837,24,34a3.976,3.976,0,0,1,4-4h.012A3.97,3.97,0,0,1,31.2,31.628a1,1,0,0,0,.8.4h0a1,1,0,0,0,.8-.4A3.935,3.935,0,0,1,35.993,30H36A4,4,0,0,1,40,34C40,38.587,33.8,42.73,32,43.838Z"></path></g></svg>