<svg xmlns="http://www.w3.org/2000/svg" viewBox="0 0 64 64" x="0px" y="0px"><g data-name="Computer-Check List"><rect x="23" y="58" width="18" height="2"></rect><polygon points="27.883 50 27.133 56 36.867 56 36.117 50 27.883 50"></polygon><path d="M15,22h6V19.414l-1.293,1.293a1,1,0,0,1-1.414,0l-2-2,1.414-1.414L19,18.586l2-2V16H15Z"></path><path d="M60,13a3,3,0,0,0-3-3H7a3,3,0,0,0-3,3V40H60ZM30,16H42v2H30Zm0,12h4v2H30Zm-7,1.414V35a1,1,0,0,1-1,1H14a1,1,0,0,1-1-1V27a1,1,0,0,1,1-1h8a.993.993,0,0,1,.93.656l1.363-1.363,1.414,1.414Zm0-12V23a1,1,0,0,1-1,1H14a1,1,0,0,1-1-1V15a1,1,0,0,1,1-1h8a.993.993,0,0,1,.93.656l1.363-1.363,1.414,1.414ZM48,36H30V34H48Zm0-6H36V28H48Zm0-6H30V22H48Z"></path><path d="M15,34h6V31.414l-1.293,1.293a1,1,0,0,1-1.414,0l-2-2,1.414-1.414L19,30.586l2-2V28H15Z"></path><path d="M60,42H4v3a3,3,0,0,0,3,3H57a3,3,0,0,0,3-3Zm-4.29,3.71A1.052,1.052,0,0,1,55,46a1.355,1.355,0,0,1-.2-.02.636.636,0,0,1-.18-.06.757.757,0,0,1-.18-.09,1.576,1.576,0,0,1-.15-.12,1.014,1.014,0,0,1,0-1.42,1.017,1.017,0,0,1,1.09-.21,1.155,1.155,0,0,1,.33.21,1.014,1.014,0,0,1,0,1.42Z"></path></g></svg>