<svg xmlns="http://www.w3.org/2000/svg" viewBox="0 0 64 64" x="0px" y="0px"><title>recommended</title><g><path d="M61.776,42.872c-.029-.071-.068-.136-.1-.2a3.156,3.156,0,0,0-.158-.292c-.043-.066-.094-.126-.142-.189s-.088-.129-.14-.187c.052-.058.093-.125.14-.187s.1-.123.142-.19a3.016,3.016,0,0,0,.158-.291c.034-.068.073-.133.1-.2a3.078,3.078,0,0,0,.111-.357c.017-.063.041-.123.054-.188A3.025,3.025,0,0,0,62,40V36a2.954,2.954,0,0,0-.057-.56c-.011-.059-.029-.115-.044-.173a3.246,3.246,0,0,0-.11-.355c-.025-.063-.053-.123-.082-.184a3.037,3.037,0,0,0-.165-.3c-.035-.058-.07-.114-.11-.168a2.892,2.892,0,0,0-.228-.277c-.04-.044-.076-.089-.119-.131a3.184,3.184,0,0,0-.38-.314.392.392,0,0,1-.032-.025,3.074,3.074,0,0,0-.469-.255c-.053-.023-.11-.039-.165-.06-.083-.031-.164-.067-.25-.091a2.8,2.8,0,0,0,.1-.334c.016-.062.041-.12.054-.183A3,3,0,0,0,60,32V28a3,3,0,0,0-3-3H32V11a5.006,5.006,0,0,0-5-5H23a3,3,0,0,0-3,3V25H3a1,1,0,0,0-1,1V56a1,1,0,0,0,1,1H16.95A9,9,0,0,0,25,62H55a3,3,0,0,0,3-3V52a2.986,2.986,0,0,0-.057-.563c-.011-.06-.031-.117-.046-.175-.022-.088-.039-.178-.068-.262H59a3,3,0,0,0,3-3V44a3.025,3.025,0,0,0-.059-.583c-.013-.065-.037-.125-.054-.188A2.9,2.9,0,0,0,61.776,42.872ZM39,41a3,3,0,1,1,0-6H59a1,1,0,0,1,1,1v4a1,1,0,0,1-1,1ZM57,27a1,1,0,0,1,1,1v4a1,1,0,0,1-1,1H43a3,3,0,1,1,0-6ZM16,55H4V27H16Zm39,5H25a7.008,7.008,0,0,1-7-7V27h3a1,1,0,0,0,1-1V9a1,1,0,0,1,1-1h4a3,3,0,0,1,3,3V26a9.011,9.011,0,0,1-9,9v2A11.01,11.01,0,0,0,31.949,27h7.076a4.9,4.9,0,0,0,0,6H39a5,5,0,0,0,0,10h.025a4.95,4.95,0,0,0,2.262,7.678A4.981,4.981,0,0,0,45,59H55a2.966,2.966,0,0,0,1-.184V59A1,1,0,0,1,55,60Zm0-9a1,1,0,0,1,1,1v4a1,1,0,0,1-1,1H45a3,3,0,1,1,0-6Zm5-3a1,1,0,0,1-1,1H43a3,3,0,1,1,0-6H59a1,1,0,0,1,1,1Z"></path><rect x="6" y="51" width="2" height="2"></rect><rect x="6" y="47" width="2" height="2"></rect><path d="M40,13h2a4,4,0,0,1,4-4V7a4,4,0,0,1-4-4H40a4,4,0,0,1-4,4V9A4,4,0,0,1,40,13Zm-.687-5A6.049,6.049,0,0,0,41,6.313,6.049,6.049,0,0,0,42.687,8,6.049,6.049,0,0,0,41,9.687l-.009-.012a6.06,6.06,0,0,0-1.666-1.666Z"></path><path d="M54,22h2a4,4,0,0,1,4-4V16a4,4,0,0,1-4-4H54a4,4,0,0,1-4,4v2A4,4,0,0,1,54,22Zm-.687-5A6.049,6.049,0,0,0,55,15.313,6.049,6.049,0,0,0,56.687,17,6.049,6.049,0,0,0,55,18.687l-.009-.012a6.06,6.06,0,0,0-1.666-1.666Z"></path><path d="M8,21h2a4,4,0,0,1,4-4V15a4,4,0,0,1-4-4H8a4,4,0,0,1-4,4v2A4,4,0,0,1,8,21Zm-.687-5A6.049,6.049,0,0,0,9,14.313,6.049,6.049,0,0,0,10.687,16,6.049,6.049,0,0,0,9,17.687l-.009-.012a6.06,6.06,0,0,0-1.666-1.666Z"></path></g></svg>