<svg xmlns="http://www.w3.org/2000/svg" viewBox="0 0 64 64" x="0px" y="0px"><title>Drone-Delivery-Remote Control-Transportation-Fly</title><g><path d="M62,5a3,3,0,0,0-3-3H45a3,3,0,0,0,0,6h4.184A2.966,2.966,0,0,0,49,9v1H40.78l-.81-3.243A1,1,0,0,0,39,6H25a1,1,0,0,0-.97.757L23.219,10H15V9a2.966,2.966,0,0,0-.184-1H19a3,3,0,0,0,0-6H5A3,3,0,0,0,5,8H9.184A2.966,2.966,0,0,0,9,9v1H5a2,2,0,0,0-2,2v6a2,2,0,0,0,2,2h7.611a2.991,2.991,0,0,1,2.96,2.507l.443,2.658A1,1,0,0,0,17,26v4H13a1,1,0,0,0-1,1V61a1,1,0,0,0,1,1H51a1,1,0,0,0,1-1V31a1,1,0,0,0-1-1H47V26a1,1,0,0,0,.986-.835l.444-2.658A2.99,2.99,0,0,1,51.389,20H59a2,2,0,0,0,2-2V12a2,2,0,0,0-2-2H55V9a2.966,2.966,0,0,0-.184-1H59A3,3,0,0,0,62,5ZM44,5a1,1,0,0,1,1-1H59a1,1,0,0,1,0,2H45A1,1,0,0,1,44,5ZM25.781,8H38.219l.5,2H25.281ZM4,5A1,1,0,0,1,5,4H19a1,1,0,0,1,0,2H5A1,1,0,0,1,4,5Zm7,4a1,1,0,0,1,2,0v1H11Zm8,17h2v4H19Zm4,4V26H41v4Zm5,2h8V42H28Zm13-8H35.974a4.9,4.9,0,0,0,0-6H40a1,1,0,0,1,1,1Zm-6-3a3,3,0,1,1-3-3A3,3,0,0,1,35,21Zm-6.974,3H23V19a1,1,0,0,1,1-1h4.026a4.9,4.9,0,0,0,0,6ZM26,32v6H14V32ZM14,60V40H26v3a1,1,0,0,0,1,1H37a1,1,0,0,0,1-1V40H50V60ZM50,38H38V32H50Zm-5-8H43V26h2ZM59,18H51.389a4.984,4.984,0,0,0-4.932,4.178L46.153,24H43V19a3,3,0,0,0-3-3H24a3,3,0,0,0-3,3v5H17.847l-.3-1.822A4.983,4.983,0,0,0,12.611,18H5V12H59ZM53,9v1H51V9a1,1,0,0,1,2,0Z"></path><rect x="31" y="20" width="2" height="2"></rect><rect x="7" y="14" width="4" height="2"></rect><rect x="13" y="14" width="2" height="2"></rect><rect x="53" y="14" width="4" height="2"></rect><rect x="49" y="14" width="2" height="2"></rect><rect x="45" y="14" width="2" height="2"></rect><rect x="17" y="14" width="2" height="2"></rect></g></svg>