<svg xmlns="http://www.w3.org/2000/svg" viewBox="0 0 64 64" x="0px" y="0px"><g><path d="M53.316,2.051A1,1,0,0,0,52.2,2.4L50,5.333,47.8,2.4a1.036,1.036,0,0,0-1.6,0L44,5.333,41.8,2.4a1.036,1.036,0,0,0-1.6,0L38,5.333,35.8,2.4a1.036,1.036,0,0,0-1.6,0L32,5.333,29.8,2.4a1.036,1.036,0,0,0-1.6,0L26,5.333,23.8,2.4a1.036,1.036,0,0,0-1.6,0L20,5.333,17.8,2.4a1.036,1.036,0,0,0-1.6,0L14,5.333,11.8,2.4A1,1,0,0,0,10,3V61a1,1,0,0,0,1.8.6L14,58.667,16.2,61.6a1.036,1.036,0,0,0,1.6,0L20,58.667,22.2,61.6a1.036,1.036,0,0,0,1.6,0L26,58.667,28.2,61.6a1.036,1.036,0,0,0,1.6,0L32,58.667,34.2,61.6a1.036,1.036,0,0,0,1.6,0L38,58.667,40.2,61.6a1.036,1.036,0,0,0,1.6,0L44,58.667,46.2,61.6a1.036,1.036,0,0,0,1.6,0L50,58.667,52.2,61.6a1,1,0,0,0,.8.4,1.019,1.019,0,0,0,.316-.051A1,1,0,0,0,54,61V3A1,1,0,0,0,53.316,2.051ZM52,58l-1.2-1.6a1.036,1.036,0,0,0-1.6,0L47,59.333,44.8,56.4a1,1,0,0,0-1.6,0L41,59.333,38.8,56.4a1.036,1.036,0,0,0-1.6,0L35,59.333,32.8,56.4a1.036,1.036,0,0,0-1.6,0L29,59.333,26.8,56.4a1.036,1.036,0,0,0-1.6,0L23,59.333,20.8,56.4a1.036,1.036,0,0,0-1.6,0L17,59.333,14.8,56.4a1.036,1.036,0,0,0-1.6,0L12,58V6l1.2,1.6a1.036,1.036,0,0,0,1.6,0L17,4.667,19.2,7.6a1.036,1.036,0,0,0,1.6,0L23,4.667,25.2,7.6a1.036,1.036,0,0,0,1.6,0L29,4.667,31.2,7.6a1.036,1.036,0,0,0,1.6,0L35,4.667,37.2,7.6a1.036,1.036,0,0,0,1.6,0L41,4.667,43.2,7.6a1.036,1.036,0,0,0,1.6,0L47,4.667,49.2,7.6a1.036,1.036,0,0,0,1.6,0L52,6Z"></path><path d="M24,20a2,2,0,0,0-2-2H18V16h4v1h2V16a2,2,0,0,0-2-2H21V12H19v2H18a2,2,0,0,0-2,2v2a2,2,0,0,0,2,2h4v2H18V21H16v1a2,2,0,0,0,2,2h1v2h2V24h1a2,2,0,0,0,2-2Z"></path><rect x="28" y="18" width="4" height="2"></rect><rect x="34" y="18" width="6" height="2"></rect><rect x="28" y="22" width="16" height="2"></rect><rect x="16" y="30" width="6" height="2"></rect><rect x="24" y="30" width="24" height="2"></rect><rect x="16" y="34" width="6" height="2"></rect><rect x="24" y="34" width="24" height="2"></rect><rect x="16" y="38" width="6" height="2"></rect><rect x="24" y="38" width="24" height="2"></rect><rect x="16" y="42" width="6" height="2"></rect><rect x="24" y="42" width="24" height="2"></rect><rect x="16" y="46" width="6" height="2"></rect><rect x="24" y="46" width="24" height="2"></rect><rect x="16" y="50" width="6" height="2"></rect><rect x="24" y="50" width="24" height="2"></rect></g></svg>