<svg xmlns="http://www.w3.org/2000/svg" viewBox="0 0 64 64" x="0px" y="0px"><g><circle cx="40" cy="27" r="2"></circle><path d="M31,45H18.751A36.5,36.5,0,0,0,20.3,49.4,30.051,30.051,0,0,1,31,47.043Z"></path><rect x="21" y="25" width="3" height="1"></rect><path d="M19.341,52.051a27.7,27.7,0,0,0-3.977,2.455,27.9,27.9,0,0,0,9.215,4.488A22.4,22.4,0,0,1,19.341,52.051Z"></path><rect x="21" y="28" width="3" height="1"></rect><rect x="18" y="25" width="1" height="4"></rect><path d="M12,31V22a3,3,0,0,1,3-3h1.679a38.26,38.26,0,0,1,1.81-5.243,29.748,29.748,0,0,1-4.734-2.97A27.944,27.944,0,0,0,4.025,31Z"></path><path d="M31,16.957A30.051,30.051,0,0,1,20.3,14.6,36.5,36.5,0,0,0,18.751,19H31Z"></path><path d="M18.489,50.243A38.26,38.26,0,0,1,16.679,45H15a3,3,0,0,1-3-3V33H4.025a27.944,27.944,0,0,0,9.73,20.213A29.748,29.748,0,0,1,18.489,50.243Z"></path><path d="M24.579,5.006a27.9,27.9,0,0,0-9.215,4.488,27.7,27.7,0,0,0,3.977,2.455A22.4,22.4,0,0,1,24.579,5.006Z"></path><path d="M31,4.069c-3.775.48-7.286,3.667-9.856,8.718A28.084,28.084,0,0,0,31,14.957Z"></path><path d="M31,59.931V49.043a28.084,28.084,0,0,0-9.856,2.17C23.714,56.264,27.225,59.451,31,59.931Z"></path><path d="M48.636,9.494a27.9,27.9,0,0,0-9.215-4.488,22.414,22.414,0,0,1,5.238,6.943A27.753,27.753,0,0,0,48.636,9.494Z"></path><path d="M33,19H45.249A36.438,36.438,0,0,0,43.7,14.6,30.056,30.056,0,0,1,33,16.957Z"></path><path d="M33,4.069V14.957a28.053,28.053,0,0,0,9.855-2.171C40.286,7.736,36.775,4.549,33,4.069Z"></path><path d="M33,47.043A30.056,30.056,0,0,1,43.7,49.4,36.438,36.438,0,0,0,45.249,45H33Z"></path><path d="M44,25a1.98,1.98,0,0,0-.515.076,3.851,3.851,0,0,1,0,3.848A1.98,1.98,0,0,0,44,29a2,2,0,0,0,0-4Z"></path><path d="M39.421,58.994a27.9,27.9,0,0,0,9.215-4.488,27.753,27.753,0,0,0-3.977-2.455A22.414,22.414,0,0,1,39.421,58.994Z"></path><path d="M50,42V22a1,1,0,0,0-1-1H15a1,1,0,0,0-1,1V42a1,1,0,0,0,1,1H49A1,1,0,0,0,50,42ZM16,30V24a1,1,0,0,1,1-1h8a1,1,0,0,1,1,1v6a1,1,0,0,1-1,1H17A1,1,0,0,1,16,30Zm12,5v2H26V35Zm-4,0v2H22V35Zm6,6H22V39h8Zm2-4H30V35h2Zm2-2h2v2H34Zm10,6H36V39h8Zm-6-4V35h2v2Zm6,0H42V35h2Zm0-6a3.967,3.967,0,0,1-2.009-.551A3.957,3.957,0,0,1,40,31a4,4,0,0,1,0-8,3.957,3.957,0,0,1,1.991.551A4,4,0,1,1,44,31Z"></path><path d="M52,33v9a3,3,0,0,1-3,3H47.32a38.26,38.26,0,0,1-1.81,5.243,29.641,29.641,0,0,1,4.735,2.97A27.944,27.944,0,0,0,59.975,33Z"></path><path d="M42.855,51.214A28.053,28.053,0,0,0,33,49.043V59.931C36.775,59.451,40.286,56.264,42.855,51.214Z"></path><path d="M50.245,10.787a29.641,29.641,0,0,1-4.735,2.97A38.26,38.26,0,0,1,47.32,19H49a3,3,0,0,1,3,3v9h7.975A27.944,27.944,0,0,0,50.245,10.787Z"></path></g></svg>