<svg xmlns="http://www.w3.org/2000/svg" viewBox="0 0 64 64" x="0px" y="0px"><g data-name="Dental Report-Online"><path d="M46,2H18a5.006,5.006,0,0,0-5,5V57a5.006,5.006,0,0,0,5,5H46a5.006,5.006,0,0,0,5-5V7A5.006,5.006,0,0,0,46,2ZM25,4H39V6a1,1,0,0,1-1,1H26a1,1,0,0,1-1-1ZM49,57a3,3,0,0,1-3,3H18a3,3,0,0,1-3-3V7a3,3,0,0,1,3-3h5V6a3,3,0,0,0,3,3H38a3,3,0,0,0,3-3V4h5a3,3,0,0,1,3,3Z"></path><rect x="25" y="11" width="2" height="2"></rect><rect x="29" y="11" width="2" height="2"></rect><rect x="33" y="11" width="2" height="2"></rect><rect x="37" y="11" width="2" height="2"></rect><path d="M37.041,25.089a5.966,5.966,0,0,0-4.5,1.025.932.932,0,0,1-1.074,0,5.953,5.953,0,0,0-4.5-1.025,6,6,0,0,0-4.268,8.7,16.1,16.1,0,0,1,1.893,5.961l.237,2.449A3.1,3.1,0,0,0,31,41.9V39a1,1,0,0,1,2,0v2.9a3.1,3.1,0,0,0,6.179.3l.237-2.449a16.111,16.111,0,0,1,1.893-5.962,5.995,5.995,0,0,0-4.268-8.7Zm2.5,7.766a18.094,18.094,0,0,0-2.115,6.705l-.238,2.449A1.1,1.1,0,0,1,35,41.9V39a3,3,0,0,0-6,0v2.9a1.1,1.1,0,0,1-2.188.106l-.238-2.449a18.094,18.094,0,0,0-2.115-6.705A3.995,3.995,0,0,1,27.3,27.061a3.956,3.956,0,0,1,3,.679,2.922,2.922,0,0,0,3.4,0,3.954,3.954,0,0,1,3-.679,3.995,3.995,0,0,1,2.837,5.794Z"></path><path d="M29.412,28.489l-.821,1.823a8.795,8.795,0,0,0,6.82,0l-.822-1.823A6.981,6.981,0,0,1,29.412,28.489Z"></path></g></svg>