<svg xmlns="http://www.w3.org/2000/svg" viewBox="0 0 64 64" x="0px" y="0px"><g><path d="M32,44a7,7,0,1,0,7,7A7.008,7.008,0,0,0,32,44Zm0,12a5,5,0,1,1,5-5A5.006,5.006,0,0,1,32,56Z"></path><path d="M52,36H33V34h4a5.006,5.006,0,0,0,5-5V28a1,1,0,0,0-1-1H36a4.948,4.948,0,0,0-3,1.026V25.949a12,12,0,1,0-2,0v2.077A4.948,4.948,0,0,0,28,27H23a1,1,0,0,0-1,1v1a5.006,5.006,0,0,0,5,5h4v2H12a3,3,0,0,0-3,3V59a3,3,0,0,0,3,3H52a3,3,0,0,0,3-3V39A3,3,0,0,0,52,36ZM36,29h4a3,3,0,0,1-3,3H33A3,3,0,0,1,36,29ZM22,14A10,10,0,1,1,32,24,10.011,10.011,0,0,1,22,14Zm2,15h4a3,3,0,0,1,3,3H27A3,3,0,0,1,24,29ZM12,38H52a1,1,0,0,1,1,1v1.184A2.966,2.966,0,0,0,52,40H12a2.966,2.966,0,0,0-1,.184V39A1,1,0,0,1,12,38ZM53,59a1,1,0,0,1-1,1H12a1,1,0,0,1-1-1V43a1,1,0,0,1,1-1H52a1,1,0,0,1,1,1Z"></path><path d="M14,45v4h2V46h3V44H15A1,1,0,0,0,14,45Z"></path><path d="M49,44H45v2h3v3h2V45A1,1,0,0,0,49,44Z"></path><path d="M16,53H14v4a1,1,0,0,0,1,1h4V56H16Z"></path><path d="M48,56H45v2h4a1,1,0,0,0,1-1V53H48Z"></path><rect x="41" y="50" width="2" height="2"></rect><rect x="21" y="50" width="2" height="2"></rect><path d="M59,13H51v2h7V50h2V14A1,1,0,0,0,59,13Z"></path><rect x="47" y="13" width="2" height="2"></rect><rect x="54" y="28" width="2" height="2"></rect><rect x="54" y="24" width="2" height="2"></rect><rect x="54" y="20" width="2" height="2"></rect><rect x="58" y="52" width="2" height="2"></rect><rect x="58" y="56" width="2" height="2"></rect><path d="M13,13H5a1,1,0,0,0-1,1V50H6V15h7Z"></path><rect x="15" y="13" width="2" height="2"></rect><rect x="8" y="28" width="2" height="2"></rect><rect x="8" y="24" width="2" height="2"></rect><rect x="8" y="20" width="2" height="2"></rect><rect x="4" y="52" width="2" height="2"></rect><rect x="4" y="56" width="2" height="2"></rect><rect x="23.515" y="13" width="16.971" height="2" transform="translate(-0.527 26.728) rotate(-45)"></rect><path d="M36,15a3,3,0,1,0,3,3A3,3,0,0,0,36,15Zm0,4a1,1,0,1,1,1-1A1,1,0,0,1,36,19Z"></path><path d="M28,13a3,3,0,1,0-3-3A3,3,0,0,0,28,13Zm0-4a1,1,0,1,1-1,1A1,1,0,0,1,28,9Z"></path></g></svg>