<svg xmlns="http://www.w3.org/2000/svg" viewBox="0 0 64 64" x="0px" y="0px"><g><rect x="35" y="23" width="21" height="18"></rect><path d="M59,43a1,1,0,0,0,1-1V22a1,1,0,0,0-2,0V42A1,1,0,0,0,59,43Z"></path><polygon points="47.819 53 46.153 43 45.847 43 44.181 53 47.819 53"></polygon><path d="M32,43a1,1,0,0,0,1-1V22a1,1,0,0,0-2,0V42A1,1,0,0,0,32,43Z"></path><path d="M5,43a1,1,0,0,0,1-1V22a1,1,0,0,0-2,0V42A1,1,0,0,0,5,43Z"></path><polygon points="20.819 53 19.153 43 18.847 43 17.181 53 20.819 53"></polygon><rect x="8" y="23" width="21" height="18"></rect></g></svg>