<svg xmlns="http://www.w3.org/2000/svg" viewBox="0 0 64 64" x="0px" y="0px"><g><path d="M61.9,54.553,56,42.764V11a3,3,0,0,0-3-3H48V5a3,3,0,0,0-3-3H19a3,3,0,0,0-3,3V8H11a3,3,0,0,0-3,3V42.764L2.105,54.553A1,1,0,0,0,2,55v5a2,2,0,0,0,2,2H60a2,2,0,0,0,2-2V55A1,1,0,0,0,61.9,54.553ZM29,56h6v1H29ZM4.618,54l5-10H54.382l5,10ZM18,20H46V33a1,1,0,0,1-1,1H19a1,1,0,0,1-1-1Zm-2-1V33a3,3,0,0,0,3,3H45a3,3,0,0,0,3-3V14h2V38H14V14h2ZM18,5a1,1,0,0,1,1-1H45a1,1,0,0,1,1,1V18H18Zm-8,6a1,1,0,0,1,1-1h5v2H13a1,1,0,0,0-1,1V39a1,1,0,0,0,1,1H51a1,1,0,0,0,1-1V13a1,1,0,0,0-1-1H48V10h5a1,1,0,0,1,1,1V42H10ZM4,60V56H27v1a2,2,0,0,0,2,2h6a2,2,0,0,0,2-2V56H60v4Z"></path><rect x="10" y="50" width="2" height="2"></rect><rect x="14" y="50" width="2" height="2"></rect><rect x="18" y="50" width="28" height="2"></rect><rect x="48" y="50" width="2" height="2"></rect><rect x="52" y="50" width="2" height="2"></rect><rect x="15" y="46" width="2" height="2"></rect><rect x="11" y="46" width="2" height="2"></rect><rect x="19" y="46" width="2" height="2"></rect><rect x="23" y="46" width="2" height="2"></rect><rect x="27" y="46" width="2" height="2"></rect><rect x="31" y="46" width="2" height="2"></rect><rect x="35" y="46" width="2" height="2"></rect><rect x="39" y="46" width="2" height="2"></rect><rect x="43" y="46" width="2" height="2"></rect><rect x="47" y="46" width="2" height="2"></rect><rect x="51" y="46" width="2" height="2"></rect><path d="M39,6H25a1,1,0,0,0-1,1v8a1,1,0,0,0,1,1H39a1,1,0,0,0,1-1V7A1,1,0,0,0,39,6Zm-1,8H26V8H38Z"></path><path d="M29,31h6a1,1,0,0,0,1-1V24a1,1,0,0,0-1-1H29a1,1,0,0,0-1,1v6A1,1,0,0,0,29,31Zm1-6h4v4H30Z"></path><rect x="42" y="6" width="2" height="2"></rect><rect x="42" y="14" width="2" height="2"></rect><rect x="20" y="6" width="2" height="2"></rect><rect x="20" y="14" width="2" height="2"></rect><polygon points="22 30 24 30 24 28 26 28 26 26 24 26 24 24 22 24 22 26 20 26 20 28 22 28 22 30"></polygon><rect x="38" y="26" width="2" height="2"></rect><rect x="42" y="26" width="2" height="2"></rect><rect x="40" y="24" width="2" height="2"></rect><rect x="40" y="28" width="2" height="2"></rect><rect x="58" y="30" width="2" height="2"></rect><rect x="4" y="30" width="2" height="2"></rect><rect x="4" y="24" width="2" height="2"></rect><rect x="4" y="18" width="2" height="2"></rect><rect x="58" y="24" width="2" height="2"></rect><rect x="58" y="18" width="2" height="2"></rect><rect x="57" y="5" width="2" height="2"></rect><rect x="5" y="5" width="2" height="2"></rect></g></svg>