<svg xmlns="http://www.w3.org/2000/svg" viewBox="0 0 64 64" x="0px" y="0px"><g><path d="M26,34.57a10.68,10.68,0,0,1-6,0V40a3,3,0,0,0,6,0Z"></path><path d="M20,43.97V60h6V43.97a4.884,4.884,0,0,1-6,0Z"></path><path d="M32,24V16.96a9.468,9.468,0,0,1-6.69-3.3A19.236,19.236,0,0,1,14,17.98V24a9,9,0,0,0,18,0ZM17,21a2,2,0,1,1,2,2A2,2,0,0,1,17,21Zm6,8a5.006,5.006,0,0,1-3.532-1.458l1.4-1.424a3.082,3.082,0,0,0,4.256,0l1.4,1.424A5.006,5.006,0,0,1,23,29Zm4-6a2,2,0,1,1,2-2A2,2,0,0,1,27,23Z"></path><path d="M26.78,12.28A7.726,7.726,0,0,0,33,15a1,1,0,0,1,1,1v8a11.014,11.014,0,0,1-6,9.79v.42A2.963,2.963,0,0,0,30,35a3.007,3.007,0,0,0,2.83-2.01,1,1,0,0,1,1.5-.5A2.889,2.889,0,0,0,36,33a3.009,3.009,0,0,0,3-3,2.964,2.964,0,0,0-.51-1.67.99.99,0,0,1-.13-.88,1.035,1.035,0,0,1,.62-.64A2.968,2.968,0,0,0,41,24a3.009,3.009,0,0,0-3-3,2.942,2.942,0,0,0-.73.11.97.97,0,0,1-.87-.16,1.014,1.014,0,0,1-.4-.8V17A12.975,12.975,0,0,0,30.33,6.28a15.167,15.167,0,0,1-3.13,5.54A6.016,6.016,0,0,1,26.78,12.28Z"></path><path d="M7.02,26.81a1.035,1.035,0,0,1,.62.64.99.99,0,0,1-.13.88A2.964,2.964,0,0,0,7,30a3.009,3.009,0,0,0,3,3,2.889,2.889,0,0,0,1.67-.51,1,1,0,0,1,1.5.5A3.007,3.007,0,0,0,16,35a2.963,2.963,0,0,0,2-.79v-.42A11.014,11.014,0,0,1,12,24V17a1,1,0,0,1,1-1,17.117,17.117,0,0,0,11.83-4.59,10.137,10.137,0,0,0,.86-.9,13.216,13.216,0,0,0,2.86-5.25A12.991,12.991,0,0,0,10,17v3.15a1.014,1.014,0,0,1-.4.8.97.97,0,0,1-.87.16A2.942,2.942,0,0,0,8,21a3.009,3.009,0,0,0-3,3A2.968,2.968,0,0,0,7.02,26.81Z"></path><path d="M36.03,60h4.15A3,3,0,0,1,40,59V44a7.079,7.079,0,0,0-2.91-1.8l-7.06-2.21,3.73,4.36a1,1,0,0,1-.05,1.36l-2.14,2.13,1.98,1.33a.989.989,0,0,1,.33,1.31L28.68,60h5.35a4.846,4.846,0,0,1,.79-2.36A6.723,6.723,0,0,0,36,54a6.609,6.609,0,0,0-1.71-4.29l1.42-1.42A8.723,8.723,0,0,1,38,54a8.855,8.855,0,0,1-1.52,4.77A2.615,2.615,0,0,0,36.03,60Z"></path><path d="M11.18,57.64A4.846,4.846,0,0,1,11.97,60h5.35l-5.2-9.52a.989.989,0,0,1,.33-1.31l1.98-1.33-2.14-2.13a1,1,0,0,1-.05-1.36l3.73-4.36L8.91,42.2A6.964,6.964,0,0,0,4,48.88V60H9.97a2.655,2.655,0,0,0-.45-1.23A8.855,8.855,0,0,1,8,54a8.723,8.723,0,0,1,2.29-5.71l1.42,1.42A6.609,6.609,0,0,0,10,54,6.723,6.723,0,0,0,11.18,57.64Z"></path><path d="M18,40.7l-3.64,4.25,2.35,2.34a1.046,1.046,0,0,1,.29.81.989.989,0,0,1-.45.73l-2.23,1.49L18,57.08Z"></path><path d="M59,60a1,1,0,0,0,1-1V40a1,1,0,0,0-1-1H57v2a1,1,0,0,1-1,1H46a1,1,0,0,1-1-1V39H43a1,1,0,0,0-1,1V59a1,1,0,0,0,1,1ZM45.059,48.312a3.989,3.989,0,0,1,5.587-2.951.863.863,0,0,0,.709,0,3.989,3.989,0,0,1,4.875,5.984,1.1,1.1,0,0,0-.23.633v1.787a2.236,2.236,0,0,1-4.236,1L51,53.236l-.764,1.528a2.236,2.236,0,0,1-4.236-1V51.977a1.1,1.1,0,0,0-.23-.633A3.954,3.954,0,0,1,45.059,48.312Z"></path><path d="M47,40h8V37a1,1,0,0,0-1-1H48a1,1,0,0,0-1,1Z"></path><path d="M29.45,48.83A.989.989,0,0,1,29,48.1a1.046,1.046,0,0,1,.29-.81l2.35-2.34L28,40.7V57.08l3.68-6.76Z"></path><path d="M48,51.977v1.787a.245.245,0,0,0,.448.1l.763-1.527a2,2,0,0,1,3.578,0l.764,1.528A.245.245,0,0,0,54,53.764V51.977a3.062,3.062,0,0,1,.617-1.815,1.95,1.95,0,0,0,.353-1.514h0a2.016,2.016,0,0,0-1.539-1.6,1.947,1.947,0,0,0-1.24.131,2.847,2.847,0,0,1-2.38,0,1.947,1.947,0,0,0-1.242-.132,2.016,2.016,0,0,0-1.539,1.6,1.955,1.955,0,0,0,.352,1.514A3.057,3.057,0,0,1,48,51.977Z"></path></g></svg>