<svg xmlns="http://www.w3.org/2000/svg" viewBox="0 0 64 64" x="0px" y="0px"><g><path d="M24,36v4h4V36a1,1,0,0,1,1-1h4V31H29a1,1,0,0,1-1-1V26H24v4a1,1,0,0,1-1,1H19v4h4A1,1,0,0,1,24,36Z"></path><circle cx="26" cy="8" r="1"></circle><path d="M21.1,8H16v7H36V8H30.9a1,1,0,0,1-.981-.8,4,4,0,0,0-7.838,0A1,1,0,0,1,21.1,8ZM26,5a3,3,0,1,1-3,3A3,3,0,0,1,26,5Z"></path><path d="M6,59H46V10H38v2h5a1,1,0,0,1,1,1V56a1,1,0,0,1-1,1H9a1,1,0,0,1-1-1V13a1,1,0,0,1,1-1h5V10H6Z"></path><path d="M14,16V14H10V55H42V14H38v2a1,1,0,0,1-1,1H15A1,1,0,0,1,14,16Zm3,14a1,1,0,0,1,1-1h4V25a1,1,0,0,1,1-1h6a1,1,0,0,1,1,1v4h4a1,1,0,0,1,1,1v6a1,1,0,0,1-1,1H30v4a1,1,0,0,1-1,1H23a1,1,0,0,1-1-1V37H18a1,1,0,0,1-1-1Z"></path><polygon points="52 26 52 51.72 54 51.22 54 26 52 26"></polygon><polygon points="57.246 53.592 55 53.031 52.754 53.592 55 56.399 57.246 53.592"></polygon><polygon points="58 26 56 26 56 51.22 58 51.72 58 26"></polygon><path d="M58,23a3,3,0,0,0-6,0v1h6Z"></path></g></svg>