<svg xmlns="http://www.w3.org/2000/svg" viewBox="0 0 64 64" x="0px" y="0px"><title>Presentaion report_2</title><g data-name="Presentaion report"><path d="M14,35H8v8h6Zm-2,6H10V37h2Z"></path><path d="M15,43h6V31H15Zm2-10h2v8H17Z"></path><path d="M22,43h6V27H22Zm2-14h2V41H24Z"></path><path d="M35,31H29V43h6ZM33,41H31V33h2Z"></path><path d="M42,29H36V43h6ZM40,41H38V31h2Z"></path><path d="M49,25H43V43h6ZM47,41H45V27h2Z"></path><path d="M56,19H50V43h6ZM54,41H52V21h2Z"></path><rect x="10" y="16" width="4" height="2"></rect><rect x="16" y="16" width="8" height="2"></rect><rect x="10" y="20" width="14" height="2"></rect><path d="M62,12V6H36V2H28V6H2v6H4V44H2v6H28v6H21v6H43V56H36V50H62V44H60V12ZM30,4h4V6H30ZM4,8H60v2H4ZM41,58v2H23V58Zm-7-2H30V50h4Zm26-8H4V46H60Zm-2-4H6V12H58Z"></path></g></svg>