<svg xmlns="http://www.w3.org/2000/svg" viewBox="0 0 64 64" x="0px" y="0px"><g><path d="M24,36H40V20H24Zm2-13a1,1,0,0,1,1-1H37a1,1,0,0,1,1,1v7a1,1,0,0,1-.293.707l-3,3A1,1,0,0,1,34,34H27a1,1,0,0,1-1-1Z"></path><polygon points="36 29.586 36 24 28 24 28 32 33.589 32 36 29.586"></polygon><path d="M35,47.184A2.966,2.966,0,0,1,36,47H56V11H36a1,1,0,0,0-1,1v4H33V14H31v2H29V12a1,1,0,0,0-1-1H16v5a1,1,0,0,1-1.707.707L13,15.414l-1.293,1.293A1,1,0,0,1,10,16V11H8V47H28a2.966,2.966,0,0,1,1,.184V44h2v8a1,1,0,0,0,2,0V44h2ZM37,42H35V40h2Zm4,0H39V40h2Zm3-19h5.586l2.707-2.707,1.414,1.414-3,3A1,1,0,0,1,50,25H44Zm0,4H54v2H44Zm0,4h6a1,1,0,0,1,.707.293l3,3-1.414,1.414L49.586,33H44ZM20,33H14.414l-2.707,2.707-1.414-1.414,3-3A1,1,0,0,1,14,31h6Zm0-4H10V27H20Zm0-4H14a1,1,0,0,1-.707-.293l-3-3,1.414-1.414L14.414,23H20Zm5,17H23V40h2Zm4,0H27V40h2Zm4,0H31V40h2ZM23,38a1,1,0,0,1-1-1V19a1,1,0,0,1,1-1H41a1,1,0,0,1,1,1V37a1,1,0,0,1-1,1Z"></path><path d="M60,15H58V48a1,1,0,0,1-1,1H36a1,1,0,0,0-1,1v1H60Z"></path><path d="M4,15V51H29V50a1,1,0,0,0-1-1H7a1,1,0,0,1-1-1V15Z"></path><path d="M12.293,13.293a1,1,0,0,1,1.414,0l.293.293V11H12v2.586Z"></path></g></svg>