<svg xmlns="http://www.w3.org/2000/svg" viewBox="0 0 64 64" x="0px" y="0px"><title>Camera-Photo-Book</title><g><path d="M51,12a6,6,0,1,0,6,6A6.006,6.006,0,0,0,51,12Zm0,10a4,4,0,1,1,4-4A4,4,0,0,1,51,22Z"></path><path d="M60,11H57.618L55.9,7.553A1,1,0,0,0,55,7H47a1,1,0,0,0-.9.553L44.382,11H42a2,2,0,0,0-2,2V25a2,2,0,0,0,2,2H60a2,2,0,0,0,2-2V13A2,2,0,0,0,60,11Zm0,14H42V13h3a1,1,0,0,0,.9-.553L47.618,9h6.764l1.723,3.447A1,1,0,0,0,57,13h3Z"></path><path d="M60,55H33V54a3,3,0,0,1,3-3H57a1,1,0,0,0,1-1V31H56V49H36a4.967,4.967,0,0,0-3,1.012V18a3,3,0,0,1,3-3h2V13H36a5,5,0,0,0-4,2,5,5,0,0,0-4-2H7a1,1,0,0,0-1,1v5H3a1,1,0,0,0-1,1V56a1,1,0,0,0,1,1H61a1,1,0,0,0,1-1V29H60ZM8,15H28a3,3,0,0,1,3,3V50.012A4.967,4.967,0,0,0,28,49H8ZM4,21H6V50a1,1,0,0,0,1,1H28a3,3,0,0,1,3,3v1H4Z"></path><rect x="12" y="23" width="14" height="2"></rect><rect x="12" y="31" width="14" height="2"></rect><rect x="12" y="39" width="14" height="2"></rect><rect x="38" y="39" width="14" height="2"></rect></g></svg>