<svg xmlns="http://www.w3.org/2000/svg" viewBox="0 0 64 64" x="0px" y="0px"><g><path d="M56.09,6.14A4.96,4.96,0,0,0,48.03,6H29.9a5,5,0,0,0-9.8,0H9a5,5,0,0,0-5,5V43a5,5,0,0,0,5,5H22.89l-.8,8H20a3,3,0,0,0,0,6H44a3,3,0,0,0,0-6H41.91l-.8-8H55a5,5,0,0,0,5-5V11A5,5,0,0,0,56.09,6.14ZM52,6a3.009,3.009,0,0,1,3,3c0,1.74-1.76,4.6-3,6.33C50.76,13.6,49,10.75,49,9A3.009,3.009,0,0,1,52,6ZM25,4a3.009,3.009,0,0,1,3,3c0,1.74-1.76,4.6-3,6.33C23.76,11.6,22,8.75,22,7A3.009,3.009,0,0,1,25,4ZM18,8h2.11c.61,3.16,3.72,7.14,4.11,7.62a.991.991,0,0,0,1.56,0c.39-.48,3.5-4.46,4.11-7.62H37V20H18ZM6,11A3.009,3.009,0,0,1,9,8h1V20H6ZM6,32h4v6H6ZM44,58a1,1,0,0,1,0,2H20a1,1,0,0,1,0-2ZM24.11,56l.8-8H39.09l.8,8ZM58,43a3.009,3.009,0,0,1-3,3H9a3.009,3.009,0,0,1-3-3V40H58ZM30.22,35.62a.991.991,0,0,0,1.56,0A30.181,30.181,0,0,0,34.24,32H37v6H18V32h9.76A30.181,30.181,0,0,0,30.22,35.62ZM28,27a3,3,0,0,1,6,0c0,1.74-1.76,4.6-3,6.33C29.76,31.6,28,28.75,28,27ZM58,38H45V32H58Zm0-8H44a1,1,0,0,0-1,1v7H39V31a1,1,0,0,0-1-1H35.25A8.065,8.065,0,0,0,36,27a5,5,0,0,0-10,0,8.065,8.065,0,0,0,.75,3H17a1,1,0,0,0-1,1v7H12V31a1,1,0,0,0-1-1H6V22h5a1,1,0,0,0,1-1V8h4V21a1,1,0,0,0,1,1H38a1,1,0,0,0,1-1V8h4V21a1,1,0,0,0,1,1H58Zm0-10H45V8h2.1A5.468,5.468,0,0,0,47,9c0,3.26,3.79,8.08,4.22,8.62a.991.991,0,0,0,1.56,0C53.21,17.08,57,12.26,57,9c0-.08-.02-.16-.02-.24A3,3,0,0,1,58,11Z"></path><rect x="52" y="42" width="2" height="2"></rect><rect x="24" y="6" width="2" height="2"></rect><rect x="30" y="26" width="2" height="2"></rect><rect x="51" y="8" width="2" height="2"></rect></g></svg>