<svg xmlns="http://www.w3.org/2000/svg" viewBox="0 0 64 64" x="0px" y="0px"><g data-name="Video Player-Smartphone-Streaming-Technology-Entertainment"><path d="M46,2H18a6.006,6.006,0,0,0-6,6V56a6.006,6.006,0,0,0,6,6H46a6.006,6.006,0,0,0,6-6V8A6.006,6.006,0,0,0,46,2Zm4,54a4,4,0,0,1-4,4H18a4,4,0,0,1-4-4V8a4,4,0,0,1,4-4H46a4,4,0,0,1,4,4Z"></path><path d="M34,52H30a3,3,0,0,0,0,6h4a3,3,0,0,0,0-6Zm0,4H30a1,1,0,0,1,0-2h4a1,1,0,0,1,0,2Z"></path><rect x="25" y="6" width="2" height="2"></rect><rect x="29" y="6" width="6" height="2"></rect><path d="M45,13H19a3,3,0,0,0-3,3V46a3,3,0,0,0,3,3H45a3,3,0,0,0,3-3V16A3,3,0,0,0,45,13Zm1,3v3H42V15h3A1,1,0,0,1,46,16ZM28,43v4H24V43Zm2,0h4v4H30Zm6,0h4v4H36ZM18,41V21H46V41ZM36,19V15h4v4Zm-2,0H30V15h4Zm-6,0H24V15h4Zm-9-4h3v4H18V16A1,1,0,0,1,19,15ZM18,46V43h4v4H19A1,1,0,0,1,18,46Zm27,1H42V43h4v3A1,1,0,0,1,45,47Z"></path><path d="M35.307,29.336l-3.2-2.132A2,2,0,0,0,29,28.868v4.264A2,2,0,0,0,32.109,34.8l3.2-2.132a2,2,0,0,0,0-3.328ZM31,33.138v-4.27L34.2,31Z"></path><path d="M32,23a8,8,0,1,0,8,8A8.009,8.009,0,0,0,32,23Zm0,14a6,6,0,1,1,6-6A6.006,6.006,0,0,1,32,37Z"></path></g></svg>