<svg xmlns="http://www.w3.org/2000/svg" viewBox="0 0 64 64" x="0px" y="0px"><g data-name="Smartphone-Money-Payment Method-Financial-Online Banking"><path d="M50,8a4,4,0,0,0-4-4H18a4,4,0,0,0-4,4v2H50ZM27,8H25V6h2Zm8,0H29V6h6Z"></path><path d="M24,36a8,8,0,1,0,8-8A8.011,8.011,0,0,0,24,36Zm12-2H34a1,1,0,0,0-1-1H31a1,1,0,0,0,0,2h2a3,3,0,0,1,0,6v1H31V41a3,3,0,0,1-3-3h2a1,1,0,0,0,1,1h2a1,1,0,0,0,0-2H31a3,3,0,0,1,0-6V30h2v1A3,3,0,0,1,36,34Z"></path><path d="M33.61,20.6l-.23.61.64.1a5.033,5.033,0,0,0,5.45-3.15l.23-.61-.64-.1A5.039,5.039,0,0,0,33.61,20.6Z"></path><path d="M24.94,17.45l-.64.1.23.61a5.033,5.033,0,0,0,5.45,3.15l.64-.1-.23-.61A5.033,5.033,0,0,0,24.94,17.45Z"></path><path d="M50,50H14v6a4,4,0,0,0,4,4H46a4,4,0,0,0,4-4ZM34,58H30a3,3,0,0,1,0-6h4a3,3,0,0,1,0,6Z"></path><path d="M34,54H30a1,1,0,0,0,0,2h4a1,1,0,0,0,0-2Z"></path><path d="M50,12H14V48H50Zm-7.99,5.12-.67,1.76a7.057,7.057,0,0,1-6.55,4.49,6.559,6.559,0,0,1-1.08-.09L33,23.17v2.88a10,10,0,1,1-2,0V23.17l-.71.11a6.559,6.559,0,0,1-1.08.09,7.057,7.057,0,0,1-6.55-4.49l-.67-1.76a1,1,0,0,1,.06-.86,1.03,1.03,0,0,1,.71-.49l1.87-.29A7.012,7.012,0,0,1,32,19.35a7.005,7.005,0,0,1,7.37-3.87l1.87.29a1.03,1.03,0,0,1,.71.49A1,1,0,0,1,42.01,17.12Z"></path></g></svg>