<svg xmlns="http://www.w3.org/2000/svg" viewBox="0 0 64 64" x="0px" y="0px"><g><path d="M47,34H5a1,1,0,0,0-1,1v1.184A2.966,2.966,0,0,1,5,36H47a2.966,2.966,0,0,1,1,.184V35A1,1,0,0,0,47,34Z"></path><circle cx="26" cy="49" r="5"></circle><path d="M59.35,4.95a4.023,4.023,0,0,1-3.1,1.57,3.911,3.911,0,0,1-3.17-1.9c-.58-.75-.92-1.14-1.59-1.14s-1.01.39-1.59,1.14a3.582,3.582,0,0,1-6.33-.01c-.58-.74-.91-1.13-1.58-1.13s-1,.39-1.58,1.13a3.9,3.9,0,0,1-3.17,1.91,3.908,3.908,0,0,1-3.16-1.9c-.58-.75-.91-1.14-1.58-1.14s-1.01.39-1.59,1.14a3.908,3.908,0,0,1-3.16,1.9,4.021,4.021,0,0,1-3.11-1.58A5.786,5.786,0,0,0,24,4.33V32H47a3.009,3.009,0,0,1,3,3V56H60V4.33A4.548,4.548,0,0,0,59.35,4.95ZM48,29H28V27H48Zm0-4H28V23H48Zm0-4H28V19H48Zm8,8H50V27h6Zm0-4H50V23h6Zm0-4H50V19h6Zm0-6H46V13H56Zm0-4H46V9H56Z"></path><path d="M47,38H5a1,1,0,0,0-1,1V59a1,1,0,0,0,1,1H47a1,1,0,0,0,1-1V39A1,1,0,0,0,47,38ZM12,57H8a1,1,0,0,1-1-1V52H9v3h3Zm0-14H9v3H7V42a1,1,0,0,1,1-1h4Zm4,7H14V48h2Zm10,6a7,7,0,1,1,7-7A7.008,7.008,0,0,1,26,56Zm12-6H36V48h2Zm7,6a1,1,0,0,1-1,1H40V55h3V52h2Zm0-10H43V43H40V41h4a1,1,0,0,1,1,1Z"></path></g></svg>