<svg xmlns="http://www.w3.org/2000/svg" viewBox="0 0 64 64" x="0px" y="0px"><g><path d="M44,37a5,5,0,1,0,5,5A5,5,0,0,0,44,37Zm0,8a3,3,0,1,1,3-3A3,3,0,0,1,44,45Z"></path><path d="M26.92,43H37.08A6.634,6.634,0,0,1,37,42H27A6.634,6.634,0,0,1,26.92,43Z"></path><circle cx="20" cy="42" r="1"></circle><path d="M52,39a3.009,3.009,0,0,1,3-3h1V35a2.034,2.034,0,0,1-1.41-.58,1.576,1.576,0,0,1-.31-.42H51V32h3V29H53a3.009,3.009,0,0,1-3-3V22a3.009,3.009,0,0,1,3-3h1V18a1,1,0,0,0-1-1H31.83a1.052,1.052,0,0,0-.71.29l-8.83,8.83a2.956,2.956,0,0,1-2.12.88H11a1,1,0,0,0-1,1h2a2.006,2.006,0,0,1,2,2v2a2.006,2.006,0,0,1-2,2H9.72a1.752,1.752,0,0,1-.31.42A2.016,2.016,0,0,1,8,35H7.99v1H9a3,3,0,0,1,0,6H8.77A2.972,2.972,0,0,0,11,43h2.08A6.634,6.634,0,0,1,13,42a7,7,0,0,1,13.71-2H37.29A7,7,0,0,1,51,42a6.634,6.634,0,0,1-.08,1H53a2.972,2.972,0,0,0,2.23-1H55A3.009,3.009,0,0,1,52,39ZM37,33H33V31h4Zm0-6a2,2,0,0,1-2,2H27.414A2,2,0,0,1,26,25.586l6-6A2.011,2.011,0,0,1,33.414,19H35a2,2,0,0,1,2,2Zm6,6H39V31h4Zm5-6a2,2,0,0,1-2,2H41a2,2,0,0,1-2-2V21a2,2,0,0,1,2-2h5a2,2,0,0,1,2,2Z"></path><polygon points="33.414 21 27.414 27 35.001 27 35 21 33.414 21"></polygon><rect x="41" y="21" width="5" height="6"></rect><circle cx="44" cy="42" r="1"></circle><rect x="10" y="30" width="2" height="2"></rect><path d="M58,31a2.006,2.006,0,0,0,2-2V23a2,2,0,0,0-4,0v6A2.006,2.006,0,0,0,58,31Z"></path><path d="M60,39a1,1,0,0,0-1-1H55a1,1,0,0,0,0,2h4A1,1,0,0,0,60,39Z"></path><path d="M52,22v4a1,1,0,0,0,1,1h1V21H53A1,1,0,0,0,52,22Z"></path><path d="M20,37a5,5,0,1,0,5,5A5,5,0,0,0,20,37Zm0,8a3,3,0,1,1,3-3A3,3,0,0,1,20,45Z"></path><path d="M5,40H9a1,1,0,0,0,0-2H5a1,1,0,0,0,0,2Z"></path></g></svg>