<svg xmlns="http://www.w3.org/2000/svg" viewBox="0 0 64 64" x="0px" y="0px"><g data-name="Thumb Up"><path d="M45,48a3,3,0,0,0,0,6H55a1,1,0,0,0,1-1V49a1,1,0,0,0-1-1Z"></path><path d="M59,32H39a3,3,0,0,0,0,6H59a1,1,0,0,0,1-1V33A1,1,0,0,0,59,32Z"></path><path d="M57,24H43a3,3,0,0,0,0,6H57a1,1,0,0,0,1-1V25A1,1,0,0,0,57,24Z"></path><path d="M60,45V41a1,1,0,0,0-1-1H43a3,3,0,0,0,0,6H59A1,1,0,0,0,60,45Z"></path><path d="M16,52V24H4V52ZM6,44H8v2H6Zm0,4H8v2H6Z"></path><path d="M18,24V50a7.008,7.008,0,0,0,7,7H55a1,1,0,0,0,1-1v-.184A2.966,2.966,0,0,1,55,56H45a4.981,4.981,0,0,1-3.713-8.322A4.95,4.95,0,0,1,39.025,40H39a5,5,0,1,1,0-10h.026a4.9,4.9,0,0,1,0-6H31.949A11.01,11.01,0,0,1,21,34V32a9.01,9.01,0,0,0,9-9V8a3,3,0,0,0-3-3H23a1,1,0,0,0-1,1V23a1,1,0,0,1-1,1Z"></path></g></svg>