<svg xmlns="http://www.w3.org/2000/svg" data-name="Layer 38" viewBox="0 0 64 64" x="0px" y="0px"><rect x="42" y="30" width="2" height="12"></rect><polygon points="56 46.5 56 25.5 46 29.667 46 42.333 56 46.5"></polygon><rect x="58" y="25" width="2" height="22"></rect><circle cx="17" cy="36" r="9"></circle><path d="M40,23H4V49H40ZM17,47A11,11,0,1,1,28,36,11.013,11.013,0,0,1,17,47Zm18,0a3,3,0,1,1,3-3A3,3,0,0,1,35,47Z"></path><circle cx="35" cy="44" r="1"></circle><path d="M37,21H35V18a1,1,0,0,0-1-1H26V15h8a3,3,0,0,1,3,3Z"></path><path d="M12,18H22a2,2,0,0,0,0-4H12a2,2,0,0,0,0,4Z"></path></svg>