<svg xmlns="http://www.w3.org/2000/svg" viewBox="0 0 64 64" x="0px" y="0px"><g><circle cx="22" cy="47" r="1"></circle><path d="M58.11,16.94a.989.989,0,0,0-.99-.94H54v3a3,3,0,0,1-6,0V16H40v3a3,3,0,0,1-6,0V16H30.88a.989.989,0,0,0-.99.94L28.88,33.68c.47.25.94.52,1.38.81l1.76-1.76a1.008,1.008,0,0,1,1.42,0l1.68,1.69A9.489,9.489,0,0,1,35,33a9.025,9.025,0,1,1,1.05,4.2l-1.54,1.54A14.913,14.913,0,0,1,37,47H56.75a2.994,2.994,0,0,0,2.99-3.18Z"></path><path d="M17.9,55A8.993,8.993,0,1,0,13,47a8.759,8.759,0,0,0,.23,2H16v2H13.95a8.827,8.827,0,0,0,1.36,2H18v2ZM22,44a2.965,2.965,0,0,1,1.285.3l3.008-3.008,1.414,1.414L24.7,45.715A2.951,2.951,0,0,1,25,47a3,3,0,1,1-3-3Z"></path><path d="M13.71,57h3.73a10.923,10.923,0,0,1-2.97-2h-2.7A13.109,13.109,0,0,0,13.71,57Z"></path><path d="M12.79,53a11.455,11.455,0,0,1-1.03-2H9.64a13.009,13.009,0,0,0,.84,2Z"></path><path d="M22,34A13.012,13.012,0,0,0,9,47a13.161,13.161,0,0,0,.17,2h2.02A11.04,11.04,0,1,1,20,57.81V59H17.01A13,13,0,1,0,22,34Z"></path><rect x="19" y="26" width="6" height="2"></rect><path d="M12.14,35.72l-.87-.87L9.85,36.27l.87.87A15.858,15.858,0,0,1,12.14,35.72Z"></path><path d="M22,32c.34,0,.67.03,1,.05V30H21v2.05C21.33,32.03,21.66,32,22,32Z"></path><path d="M36,19a1,1,0,0,0,2,0V12a6,6,0,0,1,12,0v7a1,1,0,0,0,2,0V12a8,8,0,0,0-16,0Z"></path><path d="M34.15,36.27l-1.42-1.42-.87.87a15.858,15.858,0,0,1,1.42,1.42Z"></path><path d="M44,40a7,7,0,1,0-7-7A7.008,7.008,0,0,0,44,40Zm2.829-2.758-1.415-1.414,1.414-1.414,1.415,1.414Zm-.707-7.777,1.414,1.414-5.658,5.656-1.414-1.414Zm-4.951-.707,1.415,1.414-1.414,1.414-1.415-1.414Z"></path><path d="M9.63,51H4V49H9.15A13.251,13.251,0,0,0,9.63,51Z"></path><path d="M11.76,55H6V53h4.47A12.646,12.646,0,0,0,11.76,55Z"></path><path d="M16.99,59H8V57h5.7A12.989,12.989,0,0,0,16.99,59Z"></path></g></svg>