<svg xmlns="http://www.w3.org/2000/svg" viewBox="0 0 64 64" x="0px" y="0px"><g data-name="Curriculum"><path d="M49,14H42V11a1,1,0,0,0-1-1H35.38l-.241-1.326.81-.269A3,3,0,0,0,38,5.559V5.4a3.019,3.019,0,0,0-2.217-2.9,14.45,14.45,0,0,0-7.566,0A3.019,3.019,0,0,0,26,5.4v.156A3,3,0,0,0,28.052,8.4l.809.269L28.62,10H23a1,1,0,0,0-1,1v3H15a3,3,0,0,0-3,3V59a3,3,0,0,0,3,3H49a3,3,0,0,0,3-3V17A3,3,0,0,0,49,14Zm-9-2v6H36.835l-1.091-6Zm-5.2,6H29.2l1.091-6h3.422ZM30.316,7.051l-1.632-.544A1,1,0,0,1,28,5.559V5.4a1,1,0,0,1,.749-.969,12.393,12.393,0,0,1,6.5,0A1,1,0,0,1,36,5.4v.156a1,1,0,0,1-.684.948l-1.632.544a1,1,0,0,0-.668,1.128L33.347,10H30.653l.331-1.821A1,1,0,0,0,30.316,7.051ZM24,12h4.256l-1.091,6H24ZM50,59a1,1,0,0,1-1,1H15a1,1,0,0,1-1-1V17a1,1,0,0,1,1-1h7v3a1,1,0,0,0,1,1H41a1,1,0,0,0,1-1V16h7a1,1,0,0,1,1,1Z"></path><rect x="18" y="35" width="8" height="2"></rect><rect x="28" y="35" width="4" height="2"></rect><rect x="34" y="35" width="12" height="2"></rect><rect x="18" y="39" width="6" height="2"></rect><rect x="26" y="39" width="2" height="2"></rect><rect x="30" y="39" width="16" height="2"></rect><rect x="18" y="43" width="8" height="2"></rect><rect x="28" y="43" width="12" height="2"></rect><rect x="42" y="43" width="4" height="2"></rect><rect x="18" y="47" width="28" height="2"></rect><rect x="18" y="51" width="6" height="2"></rect><rect x="26" y="51" width="16" height="2"></rect><rect x="44" y="51" width="2" height="2"></rect><rect x="18" y="55" width="2" height="2"></rect><rect x="22" y="55" width="6" height="2"></rect><rect x="30" y="55" width="16" height="2"></rect><rect x="18" y="27" width="2" height="2"></rect><rect x="22" y="27" width="24" height="2"></rect><rect x="18" y="31" width="28" height="2"></rect><rect x="18" y="23" width="10" height="2"></rect><rect x="30" y="23" width="10" height="2"></rect><rect x="42" y="23" width="4" height="2"></rect></g></svg>