<svg xmlns="http://www.w3.org/2000/svg" viewBox="0 0 64 64" x="0px" y="0px"><g data-name="Algorithm-Smartphone-Programming-Programming Language"><path d="M46,2H18a6.006,6.006,0,0,0-6,6V56a6.006,6.006,0,0,0,6,6H46a6.006,6.006,0,0,0,6-6V8A6.006,6.006,0,0,0,46,2Zm4,54a4,4,0,0,1-4,4H18a4,4,0,0,1-4-4V8a4,4,0,0,1,4-4H46a4,4,0,0,1,4,4Z"></path><path d="M34,52H30a3,3,0,0,0,0,6h4a3,3,0,0,0,0-6Zm0,4H30a1,1,0,0,1,0-2h4a1,1,0,0,1,0,2Z"></path><rect x="25" y="6" width="2" height="2"></rect><rect x="29" y="6" width="6" height="2"></rect><path d="M45,30H43V28a1,1,0,0,0-1-1H35.414L33,24.586V22h3a1,1,0,0,0,1-1V17a1,1,0,0,0-1-1H28a1,1,0,0,0-1,1v4a1,1,0,0,0,1,1h3v2.586L28.586,27H22a1,1,0,0,0-1,1v2H19a1,1,0,0,0-1,1v4a1,1,0,0,0,1,1h2v5a1,1,0,0,0,1,1h6v1a1,1,0,0,0,1,1h6a1,1,0,0,0,1-1V42h6a1,1,0,0,0,1-1V36h2a1,1,0,0,0,1-1V31A1,1,0,0,0,45,30ZM29,18h6v2H29Zm3,8.414L33.586,28,32,29.586,30.414,28ZM20,32h4v2H20Zm8,7v1H23V36h2a1,1,0,0,0,1-1V31a1,1,0,0,0-1-1H23V29h5.586L31,31.414V38H29A1,1,0,0,0,28,39Zm6,3H30V40h4Zm7-2H36V39a1,1,0,0,0-1-1H33V31.414L35.414,29H41v1H39a1,1,0,0,0-1,1v4a1,1,0,0,0,1,1h2Zm3-6H40V32h4Z"></path></g></svg>