<svg xmlns="http://www.w3.org/2000/svg" viewBox="0 0 64 64" x="0px" y="0px"><g data-name="Cactus"><path d="M15,31.95A61.963,61.963,0,0,0,18.152,50H31V8.336c-.135-.037-.279-.091-.409-.12A10.5,10.5,0,0,0,28,7.89C18.4,7.89,15,20.851,15,31.95Z"></path><path d="M7.643,50h8.4A63.72,63.72,0,0,1,13,31.95C13,15.875,18.748,5.89,28,5.89a12.342,12.342,0,0,1,2,.161A13.98,13.98,0,0,0,22.5,3.89C11.78,3.89,4,15.69,4,31.95A43.374,43.374,0,0,0,7.643,50Z"></path><path d="M4,55a5.006,5.006,0,0,0,5,5H55a5.006,5.006,0,0,0,5-5Z"></path><rect x="4" y="52" width="56" height="1"></rect><path d="M33,8.338V50H45.848q.15-.461.293-.925c.109-.353.22-.7.323-1.06.127-.437.244-.877.363-1.316.094-.352.192-.7.281-1.056.113-.449.215-.9.319-1.348.081-.348.165-.7.239-1.043.1-.456.184-.91.272-1.364.065-.339.136-.679.2-1.016.083-.464.151-.922.222-1.381.05-.322.106-.647.15-.965.066-.475.116-.939.169-1.406.033-.293.074-.591.1-.88.05-.508.081-1,.115-1.494.015-.234.04-.476.052-.707.037-.716.057-1.414.057-2.089,0-11.1-3.4-24.06-13-24.06a10.392,10.392,0,0,0-2.563.32C33.29,8.243,33.145,8.3,33,8.338Z"></path><path d="M50.889,34.83c-.033.494-.066.987-.114,1.5-.03.3-.07.618-.1.928-.052.464-.1.926-.167,1.4-.046.336-.1.677-.153,1.018-.07.455-.139.908-.219,1.368-.062.355-.131.71-.2,1.066-.086.452-.173.9-.269,1.357-.077.363-.159.724-.242,1.087-.1.451-.207.9-.319,1.349-.09.364-.184.726-.281,1.089-.118.446-.24.889-.366,1.332-.1.361-.209.718-.318,1.076-.061.2-.116.407-.179.607h8.4A43.374,43.374,0,0,0,60,31.95C60,15.69,52.22,3.89,41.5,3.89a13.985,13.985,0,0,0-7.494,2.16c.1-.017.206-.023.308-.037s.212-.027.32-.039A12.428,12.428,0,0,1,36,5.89c9.252,0,15,9.985,15,26.06,0,.689-.021,1.4-.058,2.133C50.93,34.327,50.905,34.582,50.889,34.83Z"></path></g></svg>