<svg xmlns="http://www.w3.org/2000/svg" viewBox="0 0 64 64" x="0px" y="0px"><g data-name="Dual Sim"><path d="M61.768,27.36l-5-6A1,1,0,0,0,56,21H51.8l-3.034-3.64A1,1,0,0,0,48,17H40V7a5.006,5.006,0,0,0-5-5H7A5.006,5.006,0,0,0,2,7V57a5.006,5.006,0,0,0,5,5H35a5.006,5.006,0,0,0,5-5V49H61a1,1,0,0,0,1-1V28A1,1,0,0,0,61.768,27.36ZM54,33h1V43H54Zm-2-8.638V43H32V19H47.532ZM14,4H28V5a1,1,0,0,1-1,1H15a1,1,0,0,1-1-1ZM38,57a3,3,0,0,1-3,3H7a3,3,0,0,1-3-3V7A3,3,0,0,1,7,4h5V5a3,3,0,0,0,3,3H27a3,3,0,0,0,3-3V4h5a3,3,0,0,1,3,3V17H31a1,1,0,0,0-1,1V44a1,1,0,0,0,1,1h7V57ZM60,47H40V45H56a1,1,0,0,0,1-1V32a1,1,0,0,0-1-1H54V24a1,1,0,0,0-.232-.64l-.3-.36h2.064L60,28.362Z"></path><path d="M36,41H48a1,1,0,0,0,1-1V28a1,1,0,0,0-1-1H36a1,1,0,0,0-1,1V40A1,1,0,0,0,36,41Zm1-4h1.981v2H37Zm4-5V29h2v6H37V33h3A1,1,0,0,0,41,32Zm0,5h2v2H40.981V37Zm4,2V37h2v2Zm2-4H45V29h2Zm-8-6v2H37V29Z"></path><path d="M16,26a1,1,0,0,0-1-1H7a1,1,0,0,0-1,1v2a1,1,0,0,0,.445.832l3,2A1.006,1.006,0,0,0,10,31v5h2V31a1.006,1.006,0,0,0,.555-.168l3-2A1,1,0,0,0,16,28Zm-2,1.465L11.7,29H10.3L8,27.465V27h6Z"></path><rect x="16" y="32" width="2" height="4"></rect><rect x="20" y="30" width="2" height="6"></rect><rect x="24" y="28" width="2" height="8"></rect></g></svg>