<svg xmlns="http://www.w3.org/2000/svg" viewBox="0 0 64 64" x="0px" y="0px"><g><path d="M39,10H15a1,1,0,0,0-1,1v6a1,1,0,0,0,1,1H39a1,1,0,0,0,1-1V11A1,1,0,0,0,39,10ZM29,15H27V13h2Zm4,0H31V13h2Zm4,0H35V13h2Z"></path><path d="M39,24H31a1,1,0,0,0-1,1v6a1,1,0,0,0,1,1h8a1,1,0,0,0,1-1V25A1,1,0,0,0,39,24Zm-2,5H33V27h4Z"></path><path d="M23,38H15a1,1,0,0,0-1,1v6a1,1,0,0,0,1,1h8a1,1,0,0,0,1-1V39A1,1,0,0,0,23,38Zm-1.29,5.29-1.42,1.42L19,43.41l-1.29,1.3-1.42-1.42L17.59,42l-1.3-1.29,1.42-1.42L19,40.59l1.29-1.3,1.42,1.42L20.41,42Z"></path><path d="M23,24H15a1,1,0,0,0-1,1v6a1,1,0,0,0,1,1h8a1,1,0,0,0,1-1V25A1,1,0,0,0,23,24Zm-2,5H20v1H18V29H17V27h1V26h2v1h1Z"></path><path d="M55,52v9H28.53l-2.86-4.96a2.018,2.018,0,0,1,.73-2.74,2.06,2.06,0,0,1,1.52-.2,1.942,1.942,0,0,1,1.21.94l2,3.46a1.022,1.022,0,0,0,1.13.47A1,1,0,0,0,33,57V43a2,2,0,0,1,4,0V54a1,1,0,0,0,2,0V50a2,2,0,0,1,4,0v4a1,1,0,0,0,2,0V51a2,2,0,0,1,4,0v3a1,1,0,0,0,2,0V52a2,2,0,0,1,4,0Z"></path><path d="M40,45V39a1,1,0,0,0-1-1H31a1,1,0,0,0-1,1v6a1,1,0,0,0,1,1V43a4,4,0,0,1,8,0v3A1,1,0,0,0,40,45Z"></path><path d="M42,4H12A4,4,0,0,0,8,8V48a4,4,0,0,0,4,4H24.81a4.247,4.247,0,0,1,.59-.43,3.991,3.991,0,0,1,4.58.43H31V48a3.009,3.009,0,0,1-3-3V39a3.009,3.009,0,0,1,3-3h8a3.009,3.009,0,0,1,3,3v6a3.063,3.063,0,0,1-.21,1.09,3.986,3.986,0,0,1,2.64,1.85,3.97,3.97,0,0,1,1.57-.8V8A4,4,0,0,0,42,4ZM26,45a3.009,3.009,0,0,1-3,3H15a3.009,3.009,0,0,1-3-3V39a3.009,3.009,0,0,1,3-3h8a3.009,3.009,0,0,1,3,3Zm0-14a3.009,3.009,0,0,1-3,3H15a3.009,3.009,0,0,1-3-3V25a3.009,3.009,0,0,1,3-3h8a3.009,3.009,0,0,1,3,3Zm16,0a3.009,3.009,0,0,1-3,3H31a3.009,3.009,0,0,1-3-3V25a3.009,3.009,0,0,1,3-3h8a3.009,3.009,0,0,1,3,3Zm0-14a3.009,3.009,0,0,1-3,3H15a3.009,3.009,0,0,1-3-3V11a3.009,3.009,0,0,1,3-3H39a3.009,3.009,0,0,1,3,3Z"></path></g></svg>