<svg xmlns="http://www.w3.org/2000/svg" viewBox="0 0 64 64" x="0px" y="0px"><g data-name="Medical Result-Health-Document-Virus-Medical"><rect x="45" y="28" width="2" height="2"></rect><path d="M56,27a1.993,1.993,0,0,0-1.722,1H51.91a5.964,5.964,0,0,0-1.025-2.471l1.676-1.676a2.016,2.016,0,0,0,.51.075,2.005,2.005,0,1,0-1.924-1.489l-1.676,1.676A5.964,5.964,0,0,0,47,23.09V20.722a2,2,0,1,0-2,0V23.09a5.964,5.964,0,0,0-2.471,1.025l-1.676-1.676a1.992,1.992,0,1,0-1.924,1.489,2.016,2.016,0,0,0,.51-.075l1.676,1.676A5.964,5.964,0,0,0,40.09,28H37.722a2,2,0,1,0,0,2H40.09a5.964,5.964,0,0,0,1.025,2.471l-1.676,1.676a2,2,0,1,0,1.414,1.414l1.676-1.676A5.964,5.964,0,0,0,45,34.91v2.368a2,2,0,1,0,2,0V34.91a5.964,5.964,0,0,0,2.471-1.025l1.676,1.676a2,2,0,1,0,1.414-1.414l-1.676-1.676A5.964,5.964,0,0,0,51.91,30h2.368A2,2,0,1,0,56,27Zm-7.293,3.293-1.414,1.414.726.726a3.878,3.878,0,0,1-4.038,0l.726-.726-1.414-1.414-.726.726a3.878,3.878,0,0,1,0-4.038l.726.726,1.414-1.414-.726-.726a3.878,3.878,0,0,1,4.038,0l-.726.726,1.414,1.414.726-.726a3.878,3.878,0,0,1,0,4.038Z"></path><path d="M46,13A16,16,0,1,0,62,29,16.019,16.019,0,0,0,46,13Zm0,30A14,14,0,1,1,60,29,14.015,14.015,0,0,1,46,43Z"></path><path d="M46,47V59a1,1,0,0,1-1,1H5a1,1,0,0,1-1-1V23a1,1,0,0,1,1-1H20.59l6.7,6.71,1.42-1.42-7-7A1.033,1.033,0,0,0,21,20H9V5a1,1,0,0,1,1-1H31v7a1.014,1.014,0,0,0,.68.95.992.992,0,0,0,1.12-.35L35,8.67l2.2,2.93a.985.985,0,0,0,.8.4,1.185,1.185,0,0,0,.32-.05A1.014,1.014,0,0,0,39,11V4h1a1,1,0,0,1,1,1v6h2V5a3.009,3.009,0,0,0-3-3H10A3.009,3.009,0,0,0,7,5V20H5a3.009,3.009,0,0,0-3,3V59a3.009,3.009,0,0,0,3,3H45a3.009,3.009,0,0,0,3-3V47ZM33,4h4V8L35.8,6.4a1,1,0,0,0-1.6,0L33,8Z"></path><rect x="13" y="8" width="14" height="2"></rect><rect x="13" y="12" width="14" height="2"></rect><rect x="13" y="16" width="14" height="2"></rect><path d="M21,48h4a1,1,0,0,0,1-1V45h2a1,1,0,0,0,1-1V40a1,1,0,0,0-1-1H26V37a1,1,0,0,0-1-1H21a1,1,0,0,0-1,1v2H18a1,1,0,0,0-1,1v4a1,1,0,0,0,1,1h2v2A1,1,0,0,0,21,48Zm-2-5V41h2a1,1,0,0,0,1-1V38h2v2a1,1,0,0,0,1,1h2v2H25a1,1,0,0,0-1,1v2H22V44a1,1,0,0,0-1-1Z"></path></g></svg>