<svg xmlns="http://www.w3.org/2000/svg" viewBox="0 0 64 64" x="0px" y="0px"><g data-name="Code Lesson"><path d="M58,33a3,3,0,0,1-3,3H27a3,3,0,0,1-3-3V13.406a23.26,23.26,0,0,0-2.839,2.033L21.1,15.5c-.331.281-.651.573-.965.871-.106.1-.21.2-.314.306-.214.211-.421.428-.626.646-.163.175-.324.349-.481.528-.124.142-.243.286-.364.43-.209.251-.416.5-.614.761-.035.046-.069.094-.1.141a23.147,23.147,0,0,0-3.608,7.066l-.011.036c-.119.389-.226.784-.325,1.18-.021.084-.041.169-.061.254q-.123.519-.223,1.045c-.029.155-.054.311-.079.467-.05.3-.1.593-.136.892-.031.247-.053.5-.075.744-.022.224-.047.447-.061.672-.031.486-.05.974-.05,1.466v.387l-.259.285h0L4.261,43H11v8a5.006,5.006,0,0,0,5,5h8a2,2,0,0,1,2,2v2H52V52.194a25.134,25.134,0,0,1-3.369,2.385l-1.012-1.725a23.1,23.1,0,0,0,4.643-3.591l.029-.029A23.043,23.043,0,0,0,58.923,31.11,22.462,22.462,0,0,0,58,26.369Z"></path><path d="M56,5a1,1,0,0,0-1-1H27a1,1,0,0,0-1,1V8H56ZM30,7H28V5h2Zm4,0H32V5h2Zm4,0H36V5h2Z"></path><path d="M27,34H55a1,1,0,0,0,1-1V10H26V33A1,1,0,0,0,27,34ZM45.293,18.707l1.414-1.414,3,3a1,1,0,0,1,0,1.414l-3,3-1.414-1.414L47.586,21Zm-3.2-3.121,1.82.828-5,11-1.82-.828Zm-9.8,4.707,3-3,1.414,1.414L34.414,21l2.293,2.293-1.414,1.414-3-3A1,1,0,0,1,32.293,20.293Z"></path><path d="M13.293,8.293l1.414,1.414,3-3a1,1,0,0,0,0-1.414l-3-3L13.293,3.707,14.586,5H5V7h9.586Z"></path><path d="M6.293,16.293l1.414,1.414,3-3a1,1,0,0,0,0-1.414l-3-3L6.293,11.707,7.586,13H2v2H7.586Z"></path></g></svg>