<svg xmlns="http://www.w3.org/2000/svg" viewBox="0 0 64 64" x="0px" y="0px"><g><path d="M29.18,10a2.868,2.868,0,0,0,0,2H24V10Z"></path><path d="M32,14a2.772,2.772,0,0,0,1-.18V17H31V13.82A2.772,2.772,0,0,0,32,14Z"></path><path d="M40,10v2H34.82a2.868,2.868,0,0,0,0-2Z"></path><path d="M11,24h2v5.18a2.868,2.868,0,0,0-2,0Z"></path><path d="M12,35a2.772,2.772,0,0,0,1-.18V40H11V34.82A2.772,2.772,0,0,0,12,35Z"></path><path d="M18,31v2H14.82a2.868,2.868,0,0,0,0-2Z"></path><path d="M49.18,31a2.868,2.868,0,0,0,0,2H46V31Z"></path><path d="M53,24v5.18a2.868,2.868,0,0,0-2,0V24Z"></path><path d="M52,35a2.772,2.772,0,0,0,1-.18V40H51V34.82A2.772,2.772,0,0,0,52,35Z"></path><path d="M29.18,52a2.868,2.868,0,0,0,0,2H24V52Z"></path><path d="M31,47h2v3.18a2.868,2.868,0,0,0-2,0Z"></path><path d="M40,52v2H34.82a2.868,2.868,0,0,0,0-2Z"></path><path d="M32,36c5.724,0,10-2.112,10-4V28.406C39.886,29.994,36.271,31,32,31s-7.886-1.006-10-2.594V32C22,33.888,26.276,36,32,36Zm-5-4h2v2H27Zm-4-1h2v2H23Z"></path><path d="M32,43c5.724,0,10-2.112,10-4V35.406C39.886,36.994,36.271,38,32,38s-7.886-1.006-10-2.594V39C22,40.888,26.276,43,32,43Zm-5-4h2v2H27Zm-4-1h2v2H23Z"></path><path d="M32,21c-5.724,0-10,2.112-10,4s4.276,4,10,4,10-2.112,10-4S37.724,21,32,21Zm6,5H26V24H38Z"></path><path d="M59,44H45a1,1,0,0,0-1,1v7H60V45A1,1,0,0,0,59,44Z"></path><path d="M44,55a1,1,0,0,0,1,1H59a1,1,0,0,0,1-1V54H44Z"></path><polygon points="54.22 58 49.78 58 49.28 60 45 60 45 62 59 62 59 60 54.72 60 54.22 58"></polygon><path d="M59,4H45a1,1,0,0,0-1,1v7H60V5A1,1,0,0,0,59,4Z"></path><path d="M44,15a1,1,0,0,0,1,1H59a1,1,0,0,0,1-1V14H44Z"></path><polygon points="54.22 18 49.78 18 49.28 20 45 20 45 22 59 22 59 20 54.72 20 54.22 18"></polygon><polygon points="14.219 58 9.781 58 9.281 60 5 60 5 62 19 62 19 60 14.719 60 14.219 58"></polygon><path d="M19,44H5a1,1,0,0,0-1,1v7H20V45A1,1,0,0,0,19,44Z"></path><path d="M4,55a1,1,0,0,0,1,1H19a1,1,0,0,0,1-1V54H4Z"></path><path d="M19,4H5A1,1,0,0,0,4,5v7H20V5A1,1,0,0,0,19,4Z"></path><path d="M4,15a1,1,0,0,0,1,1H19a1,1,0,0,0,1-1V14H4Z"></path><polygon points="14.219 18 9.781 18 9.281 20 5 20 5 22 19 22 19 20 14.719 20 14.219 18"></polygon><circle cx="32" cy="11" r="1"></circle><circle cx="12" cy="32" r="1"></circle><circle cx="52" cy="32" r="1"></circle><circle cx="32" cy="53" r="1"></circle></g></svg>