<svg xmlns="http://www.w3.org/2000/svg" viewBox="0 0 64 64" x="0px" y="0px"><g data-name="Study Tip"><path d="M12,31.028H10V54a1,1,0,0,0,1,1H32V53H12Z"></path><rect x="23" y="26" width="8" height="2"></rect><rect x="17" y="30" width="14" height="2"></rect><rect x="17" y="34" width="14" height="2"></rect><rect x="17" y="38" width="14" height="2"></rect><rect x="17" y="42" width="14" height="2"></rect><path d="M58,52a1,1,0,0,0,1-1V19a1,1,0,0,0-1-1H38a1,1,0,0,0-1,1v1H35V19a1,1,0,0,0-1-1H25v2h8V50H15V32H13V51a1,1,0,0,0,1,1H33v1a3,3,0,0,0,6,0V52ZM39,20H57V50H39ZM37,53a1,1,0,0,1-2,0V22h2Z"></path><path d="M60,21.028V53H40v2H61a1,1,0,0,0,1-1V21.028Z"></path><rect x="49" y="26" width="6" height="2"></rect><rect x="41" y="26" width="6" height="2"></rect><rect x="41" y="30" width="14" height="2"></rect><rect x="41" y="34" width="14" height="2"></rect><rect x="41" y="38" width="14" height="2"></rect><rect x="41" y="42" width="14" height="2"></rect><path d="M9.621,22.194a2.966,2.966,0,0,0,1.473,4.651,4,4,0,0,0,7.812,0,2.966,2.966,0,0,0,1.473-4.651,9,9,0,1,0-10.758,0ZM15,28a1.993,1.993,0,0,1-1.722-1h3.444A1.993,1.993,0,0,1,15,28Zm3-3H12a1,1,0,0,1,0-2h6a1,1,0,0,1,0,2ZM15,8a6.983,6.983,0,0,1,3.479,13.048A3.025,3.025,0,0,0,18,21H12a3.025,3.025,0,0,0-.479.048A6.983,6.983,0,0,1,15,8Z"></path><path d="M13.832,17.555,15,15.8l1.168,1.752a1,1,0,0,0,1.664,0l2-3-1.664-1.11L17,15.2l-1.168-1.752a1.039,1.039,0,0,0-1.664,0L13,15.2l-1.168-1.752-1.664,1.11,2,3A1.039,1.039,0,0,0,13.832,17.555Z"></path><rect x="14" y="2" width="2" height="2"></rect><rect x="5.515" y="5.515" width="2" height="2" transform="translate(-2.698 6.515) rotate(-45)"></rect><rect x="2" y="14" width="2" height="2"></rect><rect x="26" y="14" width="2" height="2"></rect><rect x="22.485" y="5.515" width="2" height="2" transform="translate(2.272 18.515) rotate(-45)"></rect><rect x="31" y="9" width="2" height="2"></rect><rect x="35" y="9" width="2" height="2"></rect><rect x="39" y="9" width="2" height="2"></rect><path d="M50,16h2V10a1,1,0,0,0-1-1H43v2h7Z"></path><path d="M22,60H6V35H4V61a1,1,0,0,0,1,1H23a1,1,0,0,0,1-1V57H22Z"></path><rect x="4" y="31" width="2" height="2"></rect><rect x="4" y="27" width="2" height="2"></rect><rect x="4" y="23" width="2" height="2"></rect></g></svg>