<svg xmlns="http://www.w3.org/2000/svg" viewBox="0 0 64 64" x="0px" y="0px"><g data-name="Swing"><path d="M13,12V39.01A9.9,9.9,0,0,0,11,45V12Z"></path><path d="M31,12V45a9.9,9.9,0,0,0-2-5.99V12Z"></path><path d="M35,12V39.01A9.9,9.9,0,0,0,33,45V12Z"></path><path d="M53,12V45a9.9,9.9,0,0,0-2-5.99V12Z"></path><rect x="31" y="10" width="2" height="2"></rect><rect x="35" y="10" width="16" height="2"></rect><rect x="53" y="10" width="3" height="2"></rect><path d="M60,5a1,1,0,0,0-2,0V8h2Z"></path><rect x="58" y="54" width="2" height="2"></rect><rect x="58" y="58" width="2" height="2"></rect><rect x="58" y="14" width="2" height="34"></rect><rect x="58" y="50" width="2" height="2"></rect><rect x="58" y="10" width="2" height="2"></rect><rect x="4" y="50" width="2" height="2"></rect><rect x="4" y="14" width="2" height="34"></rect><rect x="13" y="10" width="16" height="2"></rect><path d="M6,5A1,1,0,0,0,4,5V8H6Z"></path><rect x="4" y="10" width="2" height="2"></rect><rect x="4" y="54" width="2" height="2"></rect><rect x="8" y="10" width="3" height="2"></rect><rect x="4" y="58" width="2" height="2"></rect><circle cx="21" cy="45" r="3"></circle><path d="M28.931,44a7.985,7.985,0,0,0-.557-2.1l-.812.468-1-1.732.8-.463a8.075,8.075,0,0,0-1.534-1.534l-.463.8-1.732-1,.468-.812a7.985,7.985,0,0,0-2.1-.557V38H20v-.931a7.985,7.985,0,0,0-2.1.557l.468.812-1.732,1-.463-.8a8.075,8.075,0,0,0-1.534,1.534l.8.463-1,1.732-.812-.468a7.985,7.985,0,0,0-.557,2.1H14v2h-.931a7.985,7.985,0,0,0,.557,2.1l.812-.468,1,1.732-.8.463a8.075,8.075,0,0,0,1.534,1.534l.463-.8,1.732,1-.468.812a7.985,7.985,0,0,0,2.1.557V52h2v.931a7.985,7.985,0,0,0,2.1-.557l-.468-.812,1.732-1,.463.8a8.075,8.075,0,0,0,1.534-1.534l-.8-.463,1-1.732.812.468a7.985,7.985,0,0,0,.557-2.1H28V44ZM21,50a5,5,0,1,1,5-5A5.006,5.006,0,0,1,21,50Z"></path><circle cx="43" cy="45" r="3"></circle><path d="M50.931,44a7.985,7.985,0,0,0-.557-2.1l-.812.468-1-1.732.8-.463a8.075,8.075,0,0,0-1.534-1.534l-.463.8-1.732-1,.468-.812a7.985,7.985,0,0,0-2.1-.557V38H42v-.931a7.985,7.985,0,0,0-2.1.557l.468.812-1.732,1-.463-.8a8.075,8.075,0,0,0-1.534,1.534l.8.463-1,1.732-.812-.468a7.985,7.985,0,0,0-.557,2.1H36v2h-.931a7.985,7.985,0,0,0,.557,2.1l.812-.468,1,1.732-.8.463a8.075,8.075,0,0,0,1.534,1.534l.463-.8,1.732,1-.468.812a7.985,7.985,0,0,0,2.1.557V52h2v.931a7.985,7.985,0,0,0,2.1-.557l-.468-.812,1.732-1,.463.8a8.075,8.075,0,0,0,1.534-1.534l-.8-.463,1-1.732.812.468a7.985,7.985,0,0,0,.557-2.1H50V44ZM43,50a5,5,0,1,1,5-5A5.006,5.006,0,0,1,43,50Z"></path></g></svg>