<svg xmlns="http://www.w3.org/2000/svg" viewBox="0 0 64 64" x="0px" y="0px"><g><path d="M59,32H55a3.009,3.009,0,0,0-3,3v1H45.21L26.27,17.06a2.994,2.994,0,0,0,0-4.24L23.44,9.99a3,3,0,0,0-4.24,0L7.89,21.3a3,3,0,0,0,0,4.24l2.83,2.83a2.994,2.994,0,0,0,4.24,0L22.59,36H12a3.009,3.009,0,0,0-3-3H5a3.009,3.009,0,0,0-3,3V52a3.009,3.009,0,0,0,3,3H9a3.009,3.009,0,0,0,3-3H52v1a3.009,3.009,0,0,0,3,3h4a3.009,3.009,0,0,0,3-3V35A3.009,3.009,0,0,0,59,32ZM10,52a1,1,0,0,1-1,1H5a1,1,0,0,1-1-1V36a1,1,0,0,1,1-1H9a1,1,0,0,1,1,1Zm3.54-25.04a1,1,0,0,1-1.41,0L9.3,24.13a1,1,0,0,1,0-1.41L20.62,11.4a1,1,0,0,1,.7-.29,1.024,1.024,0,0,1,.71.29l2.83,2.83a1,1,0,0,1,0,1.41ZM52,50H12V38H25a.987.987,0,0,0,.92-.62,1,1,0,0,0-.21-1.09l-9.34-9.33,8.49-8.49L44.09,37.71a1.033,1.033,0,0,0,.71.29H52Zm8,3a1,1,0,0,1-1,1H55a1,1,0,0,1-1-1V35a1,1,0,0,1,1-1h4a1,1,0,0,1,1,1Z"></path><path d="M30,29V27H26a1,1,0,0,0-1,1v4h2V30.414l4.293,4.293,1.414-1.414L28.414,29Z"></path><path d="M20.707,41.707l-1.414-1.414-3,3a1,1,0,0,0,0,1.414l3,3,1.414-1.414L19.414,45H25V43H19.414Z"></path><path d="M40.707,41.707l-1.414-1.414-3,3a1,1,0,0,0,0,1.414l3,3,1.414-1.414L39.414,45H45V43H39.414Z"></path></g></svg>