<svg xmlns="http://www.w3.org/2000/svg" viewBox="0 0 64 64" x="0px" y="0px"><g data-name="Online Payment"><path d="M59,13a2.966,2.966,0,0,1,1,.184V12a1,1,0,0,0-1-1H23a1,1,0,0,0-1,1v1.184A2.966,2.966,0,0,1,23,13Z"></path><path d="M22,9.184A2.966,2.966,0,0,1,23,9H59a2.966,2.966,0,0,1,1,.184V8a1,1,0,0,0-1-1H23a1,1,0,0,0-1,1Z"></path><polygon points="35.613 53 28.387 53 28.721 54 35.279 54 35.613 53"></polygon><path d="M59,15H23a1,1,0,0,0-1,1v8H20V15H10a3.009,3.009,0,0,0-3,3V51H57V37H35V35H59a1,1,0,0,0,1-1V16A1,1,0,0,0,59,15ZM30,24h2v2H30Zm-6-6a1,1,0,0,1,1-1h4v2H26v3H24ZM23,46A10,10,0,1,1,33,36,10.016,10.016,0,0,1,23,46ZM41,32a7,7,0,1,1,7-7A7.008,7.008,0,0,1,41,32Zm11-6H50V24h2Zm6,6a1,1,0,0,1-1,1H53V31h3V28h2Zm0-10H56V19H53V17h4a1,1,0,0,1,1,1Z"></path><circle cx="41" cy="25" r="5"></circle><path d="M27.052,55.316,26.28,53H4v3a1,1,0,0,0,1,1H59a1,1,0,0,0,1-1V53H37.72l-.772,2.316A1,1,0,0,1,36,56H28A1,1,0,0,1,27.052,55.316Z"></path><path d="M23,28a8,8,0,1,0,8,8A8.011,8.011,0,0,0,23,28Zm0,7a3,3,0,0,1,1,5.82V42H22V40.82A3.01,3.01,0,0,1,20,38h2a1,1,0,1,0,1-1,3,3,0,0,1-1-5.82V30h2v1.18A3.01,3.01,0,0,1,26,34H24a1,1,0,1,0-1,1Z"></path></g></svg>