<svg xmlns="http://www.w3.org/2000/svg" viewBox="0 0 64 64" x="0px" y="0px"><g><rect x="58" y="16" width="2" height="44"></rect><path d="M10,8v6H52V8H42V9a1,1,0,0,0,1,1v2a3.009,3.009,0,0,1-3-3V8H30V9a1,1,0,0,0,1,1v2a3.009,3.009,0,0,1-3-3V8H18V9a1,1,0,0,0,1,1v2a3.009,3.009,0,0,1-3-3V8Z"></path><path d="M34.051,33.566A1,1,0,0,1,34.875,32H36.1l-3.048-4.434A1,1,0,0,1,33.875,26h.951L31,21.536,27.174,26h.951a1,1,0,0,1,.824,1.566L25.9,32h1.224a1,1,0,0,1,.824,1.566L24.9,38H37.1ZM30,24h2v2H30Zm1,12H29V34h2Zm2-4H31V30h2Z"></path><rect x="54" y="8" width="6" height="6"></rect><path d="M4,53a3.009,3.009,0,0,0,3,3H45a4.985,4.985,0,0,1-1-3V52H4Z"></path><rect x="54" y="16" width="2" height="44"></rect><path d="M52,56.97A4.924,4.924,0,0,1,49,58H10v2H52Z"></path><path d="M10,50H45a1,1,0,0,1,1,1v2a3,3,0,0,0,6,0V16H10ZM43,27h2V25h2v2h2v2H47v2H45V29H43Zm-1,8h2v2H42ZM38,21h2v2H38ZM22.176,38.434,25.224,34H24a1,1,0,0,1-.824-1.566L26.224,28H25a1,1,0,0,1-.759-1.65l6-7a1.031,1.031,0,0,1,1.518,0l6,7A1,1,0,0,1,37,28H35.776l3.048,4.434A1,1,0,0,1,38,34H36.776l3.048,4.434A1,1,0,0,1,39,40H32v5h3v2H27V45h3V40H23a1,1,0,0,1-.824-1.566ZM19,25h2v2H19Zm-5-4h2v2H14ZM13,33h2V31h2v2h2v2H17v2H15V35H13Z"></path><path d="M19,2a3,3,0,0,0-3,3V8h2V5a1,1,0,0,1,2,0V6h2V5A3,3,0,0,0,19,2Z"></path><path d="M31,2a3,3,0,0,0-3,3V8h2V5a1,1,0,0,1,2,0V6h2V5A3,3,0,0,0,31,2Z"></path><path d="M43,2a3,3,0,0,0-3,3V8h2V5a1,1,0,0,1,2,0V6h2V5A3,3,0,0,0,43,2Z"></path></g></svg>