<svg xmlns="http://www.w3.org/2000/svg" viewBox="0 0 64 64" x="0px" y="0px"><g><path d="M42.85,9.4a1.023,1.023,0,0,1-1.09.07,12.353,12.353,0,0,0-2.39-.98.987.987,0,0,1-.71-.82L38.13,4H33.87l-.53,3.67a.987.987,0,0,1-.71.82,12.353,12.353,0,0,0-2.39.98,1.023,1.023,0,0,1-1.09-.07L26.19,7.18l-3.01,3.01,2.22,2.97a1.026,1.026,0,0,1,.08,1.08,12.021,12.021,0,0,0-.99,2.39.987.987,0,0,1-.82.71L20,17.87v4.26l3.67.53a.987.987,0,0,1,.82.71,11.78,11.78,0,0,0,.99,2.39,1.026,1.026,0,0,1-.08,1.08l-2.22,2.97,3.01,3.01,2.96-2.22a1.023,1.023,0,0,1,1.09-.07,12.353,12.353,0,0,0,2.39.98.987.987,0,0,1,.71.82L33.87,36h4.26l.53-3.67a.987.987,0,0,1,.71-.82,12.353,12.353,0,0,0,2.39-.98,1.023,1.023,0,0,1,1.09.07l2.96,2.22,3.01-3.01L46.6,26.84a1.026,1.026,0,0,1-.08-1.08,11.78,11.78,0,0,0,.99-2.39.987.987,0,0,1,.82-.71L52,22.13V17.87l-3.67-.53a.987.987,0,0,1-.82-.71,12.021,12.021,0,0,0-.99-2.39,1.026,1.026,0,0,1,.08-1.08l2.22-2.97L45.81,7.18ZM25,21H23V19h2Zm2.515,8.9L26.1,28.485l1.414-1.414,1.414,1.414Zm0-16.97L26.1,11.515,27.515,10.1l1.414,1.414ZM35,7h2V9H35Zm2,26H35V31h2Zm3-11a3,3,0,0,1-3,3v2H35V25a3,3,0,0,1-3-3h2a1,1,0,0,0,1,1V21a3,3,0,0,1,0-6V13h2v2a3,3,0,0,1,3,3H38a1,1,0,0,0-1-1v2A3,3,0,0,1,40,22Zm7-3h2v2H47ZM44.485,29.9l-1.414-1.414,1.414-1.414L45.9,28.485Zm0-16.97-1.414-1.414L44.485,10.1,45.9,11.515Z"></path><path d="M37,23a1,1,0,0,0,0-2Z"></path><path d="M34,18a1,1,0,0,0,1,1V17A1,1,0,0,0,34,18Z"></path><path d="M43,60V43.94a.251.251,0,0,1-.07-.04L40.1,41.07a1.013,1.013,0,0,1-.12-1.27l1-1.49a7.729,7.729,0,0,1-.4-.98l-.61-.12A1,1,0,0,1,39,38H33a1,1,0,0,1-.992-.86l-.56-3.9a14.937,14.937,0,0,1-1.6-.66L26.7,34.94a1,1,0,0,1-1.31-.09l-4.24-4.24a1,1,0,0,1-.09-1.31l2.36-3.15a14.937,14.937,0,0,1-.66-1.6l-3.9-.56A1,1,0,0,1,18,23V17a1,1,0,0,1,.858-.99l3.9-.56a14.937,14.937,0,0,1,.66-1.6L21.06,10.7a1,1,0,0,1,.09-1.31l1.58-1.58A20,20,0,0,0,11,26a.977.977,0,0,1-.22.62l-5.4,6.756A1,1,0,0,0,6.16,35H8a1,1,0,0,1,1,1V47a3.009,3.009,0,0,0,3,3h6a1,1,0,0,1,1,1v9Z"></path><path d="M28.24,6.21l1.61,1.21a14.937,14.937,0,0,1,1.6-.66l.11-.75C31.38,6.01,31.2,6,31,6A20.968,20.968,0,0,0,28.24,6.21Z"></path><path d="M45.07,41.03a1.012,1.012,0,0,1,1.06-.04,7.614,7.614,0,0,0,1.67.7,1,1,0,0,1,.71.76L48.82,44h2.36l.31-1.55a1,1,0,0,1,.71-.76,7.614,7.614,0,0,0,1.67-.7,1.012,1.012,0,0,1,1.06.04l1.3.87,1.67-1.67-.87-1.3a1.012,1.012,0,0,1-.04-1.06,7.614,7.614,0,0,0,.7-1.67,1,1,0,0,1,.76-.71L60,35.18V32.82l-1.55-.31a1,1,0,0,1-.76-.71,7.614,7.614,0,0,0-.7-1.67,1.012,1.012,0,0,1,.04-1.06l.87-1.3L56.23,26.1l-1.3.87a1.012,1.012,0,0,1-1.06.04,7.614,7.614,0,0,0-1.67-.7,1,1,0,0,1-.71-.77l-.26-1.28-1.99.29a14.937,14.937,0,0,1-.66,1.6L49.97,28H50a6,6,0,1,1-6,6v-.03l-1.85-1.39a14.937,14.937,0,0,1-1.6.66l-.29,1.99,1.28.26a1,1,0,0,1,.77.71,7.614,7.614,0,0,0,.7,1.67,1.012,1.012,0,0,1-.04,1.06l-.87,1.3,1.67,1.67Z"></path><path d="M50,38a3.989,3.989,0,0,0,1.09-7.83,1.118,1.118,0,0,1-.24.44l-4.24,4.24a1.118,1.118,0,0,1-.44.24A4,4,0,0,0,50,38Z"></path></g></svg>