<svg xmlns="http://www.w3.org/2000/svg" viewBox="0 0 64 64" x="0px" y="0px"><g data-name="Fish-Fish Bone-Bottle-Pollution-Environment"><path d="M27.891,29.775C26.875,30.6,25.983,31.44,25.408,32c1.54,1.507,4.367,3.987,6.487,4.761A7.551,7.551,0,0,0,34,32a7.555,7.555,0,0,0-2.1-4.763A14.933,14.933,0,0,0,27.891,29.775ZM31,32H29V30h2Z"></path><path d="M60,36.14a2.993,2.993,0,0,0-1.34-2.5,1.968,1.968,0,0,1,0-3.28A2.993,2.993,0,0,0,60,27.86V26a5,5,0,0,0-5-5H26a9.014,9.014,0,0,0-9,9v4a9.014,9.014,0,0,0,9,9H55a5,5,0,0,0,5-5ZM53,31a1,1,0,0,1-.553.895L52.236,32l.211.1A1,1,0,0,1,53,33v4a1,1,0,0,1-1.555.832l-6-4A1,1,0,0,1,45,33H43.969c-.35,4.807-3.514,5.9-3.657,5.95l-.624-1.9c.075-.028,1.972-.77,2.268-4.05H39.969c-.35,4.807-3.514,5.9-3.657,5.95l-.624-1.9c.075-.028,1.972-.77,2.268-4.05H35.928a10.538,10.538,0,0,1-3,5.592,1,1,0,0,1-.946.283c-3.6-.829-8.5-5.969-8.712-6.187a1,1,0,0,1,0-1.376,39.276,39.276,0,0,1,3.354-3.087,14.315,14.315,0,0,1,5.36-3.1,1.006,1.006,0,0,1,.944.283,10.538,10.538,0,0,1,3,5.592h2.009c-.359-3.3-2.237-4.046-2.258-4.053l.642-1.894c.139.047,3.21,1.145,3.631,5.947h1.985c-.359-3.3-2.237-4.046-2.258-4.053l.642-1.894c.139.047,3.21,1.145,3.631,5.947H45a1,1,0,0,1,.445-.832l6-4A1,1,0,0,1,53,27Z"></path><path d="M47,32.465l4,2.666V33.618L49.553,32.9a1,1,0,0,1,0-1.79L51,30.382V28.869l-4,2.666Z"></path><path d="M14,37a1,1,0,0,0,1-1V28a1,1,0,0,0-2,0v8A1,1,0,0,0,14,37Z"></path><rect x="10" y="29" width="1" height="6"></rect><polygon points="8 27 4 27 4 29 6 29 6 31 4 31 4 33 6 33 6 35 4 35 4 37 8 37 8 27"></polygon></g></svg>