<svg xmlns="http://www.w3.org/2000/svg" viewBox="0 0 64 64" x="0px" y="0px"><title>Cactus_26</title><g data-name="Cactus"><path d="M46,46H41V39h3V37H41V31h3V29H41V27a8.955,8.955,0,0,0-2.442-6.144l1.927-1.927-1.414-1.414-2.032,2.032a8.974,8.974,0,0,0-2.286-1.113A7.014,7.014,0,0,0,38.92,13H42V11H38.92A6.956,6.956,0,0,0,37.6,7.816l2.179-2.18L38.364,4.222,36.185,6.4A6.955,6.955,0,0,0,33,5.08V2H31V5.08A6.955,6.955,0,0,0,27.815,6.4l-2.179-2.18L24.222,5.636,26.4,7.816A6.956,6.956,0,0,0,25.08,11H22v2h3.08a7.014,7.014,0,0,0,4.167,5.434,8.974,8.974,0,0,0-2.286,1.113l-2.032-2.032-1.414,1.414,1.927,1.927A8.955,8.955,0,0,0,23,27v2H20v2h3v6H20v2h3v7H18a1,1,0,0,0-1,1V61a1,1,0,0,0,1,1H46a1,1,0,0,0,1-1V47A1,1,0,0,0,46,46ZM27,12a5,5,0,1,1,5,5A5.006,5.006,0,0,1,27,12ZM25,27a7,7,0,0,1,14,0V46H37V32H35V46H33V25H31V46H29V37H27v9H25ZM45,60H19V48H45Z"></path><rect x="41" y="56" width="2" height="2"></rect><rect x="41" y="53" width="2" height="2"></rect><rect x="38" y="56" width="2" height="2"></rect></g></svg>