<svg xmlns="http://www.w3.org/2000/svg" viewBox="0 0 64 64" x="0px" y="0px"><title>Profile</title><g><path d="M58,40a9.01,9.01,0,0,1-9,9,1,1,0,0,0-1,1V60H26V51h5V49H17a5.006,5.006,0,0,1-5-5V36a1,1,0,0,0-1-1H6.385l6.539-19.748A17.9,17.9,0,0,1,29.391,4H31V2H29.391a19.913,19.913,0,0,0-18.34,12.555l-7,21.131A1,1,0,0,0,5,37h5v7a7.008,7.008,0,0,0,7,7h7V61a1,1,0,0,0,1,1H49a1,1,0,0,0,1-1V50.955A11.015,11.015,0,0,0,60,40V34H58Z"></path><path d="M17.5,24A2.5,2.5,0,0,1,15,21.5H13a4.5,4.5,0,0,0,9,0H20A2.5,2.5,0,0,1,17.5,24Z"></path><path d="M60,4H34a1,1,0,0,0-1,1V31a1,1,0,0,0,1,1H60a1,1,0,0,0,1-1V5A1,1,0,0,0,60,4ZM59,6v4H35V6ZM35,12h2V30H35Zm4,18V12H59V30Z"></path><rect x="36" y="7" width="2" height="2"></rect><rect x="39" y="7" width="2" height="2"></rect><rect x="42" y="7" width="2" height="2"></rect><path d="M52,17a3,3,0,1,0-3,3A3,3,0,0,0,52,17Zm-3,1a1,1,0,1,1,1-1A1,1,0,0,1,49,18Z"></path><path d="M50,20H48a5.006,5.006,0,0,0-5,5v2a1,1,0,0,0,1,1H54a1,1,0,0,0,1-1V25A5.006,5.006,0,0,0,50,20Zm3,6H45V25a3,3,0,0,1,3-3h2a3,3,0,0,1,3,3Z"></path></g></svg>