<svg xmlns="http://www.w3.org/2000/svg" viewBox="0 0 64 64" x="0px" y="0px"><g><path d="M61,10H58V7a1,1,0,0,0-1-1H36a4.982,4.982,0,0,0-4,2.031A4.982,4.982,0,0,0,28,6H7A1,1,0,0,0,6,7v3H3a1,1,0,0,0-1,1V51a1,1,0,0,0,1,1H42v5a1,1,0,0,0,1.707.707L46,55.414l2.293,2.293A1,1,0,0,0,49,58a.987.987,0,0,0,.383-.076A1,1,0,0,0,50,57V52H61a1,1,0,0,0,1-1V11A1,1,0,0,0,61,10ZM36,8H56V42H36a4.948,4.948,0,0,0-3,1.026V11A3,3,0,0,1,36,8ZM8,8H28a3,3,0,0,1,3,3V43.026A4.948,4.948,0,0,0,28,42H8ZM4,12H6V50H4ZM8,44H28a3,3,0,0,1,2.816,2H12v2H31v2H8Zm25,6V48h9v2Zm15,4.586-1.293-1.293a1,1,0,0,0-1.414,0L44,54.586V48h4ZM50,48h2V46H33.184A3,3,0,0,1,36,44H56v6H50Zm10,2H58V12h2Z"></path><rect x="12" y="15" width="14" height="2"></rect><rect x="12" y="21" width="14" height="2"></rect><rect x="12" y="27" width="14" height="2"></rect><rect x="12" y="33" width="14" height="2"></rect><rect x="38" y="15" width="14" height="2"></rect><rect x="38" y="21" width="14" height="2"></rect><rect x="38" y="27" width="14" height="2"></rect><rect x="38" y="33" width="14" height="2"></rect></g></svg>