<svg xmlns="http://www.w3.org/2000/svg" viewBox="0 0 64 64" x="0px" y="0px"><g data-name="Briefcase"><path d="M60,27V9a5.006,5.006,0,0,0-5-5H40a2,2,0,0,0-2-2H26a2,2,0,0,0-2,2H9A5.006,5.006,0,0,0,4,9V27a2,2,0,0,0-2,2v4a2,2,0,0,0,2,2H6V59a3,3,0,0,0,3,3H55a3,3,0,0,0,3-3V35h2a2,2,0,0,0,2-2V29A2,2,0,0,0,60,27ZM26,4H38l0,2H26ZM6,9A3,3,0,0,1,9,6H24a2,2,0,0,0,2,2H38a2,2,0,0,0,2-2H55a3,3,0,0,1,3,3V27a3,3,0,0,0-3-3H46V21a5.006,5.006,0,0,0-5-5H23a5.006,5.006,0,0,0-5,5v3H9a3,3,0,0,0-3,3ZM26,30H52v5a3,3,0,0,1-3,3H29a3,3,0,0,1-3-3ZM8,28V27a1,1,0,0,1,1-1H55a1,1,0,0,1,1,1v1ZM24,18H40v2H24Zm20,6H42V18.171A3.006,3.006,0,0,1,44,21ZM24,22H40v2H24Zm-2,2H20V21a3.006,3.006,0,0,1,2-2.829ZM4,33V29H6v4ZM8,59V30H24V57a4.948,4.948,0,0,0,1.026,3H22V43a3,3,0,0,0-3-3H13a3,3,0,0,0-3,3V60H9A1,1,0,0,1,8,59Zm12,1H12V43a1,1,0,0,1,1-1h6a1,1,0,0,1,1,1Zm9,0a3,3,0,0,1-3-3V38.974A4.948,4.948,0,0,0,29,40H49a4.948,4.948,0,0,0,3-1.026V57a3,3,0,0,1-3,3Zm26,0H52.974A4.948,4.948,0,0,0,54,57V30h2V59A1,1,0,0,1,55,60Zm5-27H58V29h2Z"></path><polygon points="18 38 20 38 20 36 22 36 22 34 10 34 10 36 18 36 18 38"></polygon></g></svg>