<svg xmlns="http://www.w3.org/2000/svg" viewBox="0 0 64 64" x="0px" y="0px"><g data-name="Clock"><path d="M17,5a1,1,0,0,0,1,1H46a1,1,0,0,0,1-1V4H17Z"></path><circle cx="32" cy="45" r="1"></circle><path d="M24,52H40V34H33v8.184a3,3,0,1,1-2,0V34H24Z"></path><path d="M47,59a1,1,0,0,0-1-1H18a1,1,0,0,0-1,1v1H47Z"></path><path d="M32,12a8,8,0,1,0,8,8A8.009,8.009,0,0,0,32,12Zm2,8a2,2,0,1,1-3-1.722V15h2v2.586l2.293-2.293,1.414,1.414-2.782,2.782A1.96,1.96,0,0,1,34,20Z"></path><path d="M44,8H20V32H44ZM32,30A10,10,0,1,1,42,20,10.011,10.011,0,0,1,32,30Z"></path><path d="M20,34V56H44V34H42V53a1,1,0,0,1-1,1H23a1,1,0,0,1-1-1V34Z"></path></g></svg>