<svg xmlns="http://www.w3.org/2000/svg" viewBox="0 0 32 32" x="0px" y="0px"><title>Browser_33</title><g data-name="Browser"><path d="M31,0H1A1,1,0,0,0,0,1V31a1,1,0,0,0,1,1H31a1,1,0,0,0,1-1V1A1,1,0,0,0,31,0ZM30,6H14V2H30ZM12,2V6H2V2ZM2,8H4V30H2ZM6,30V8H30V30Z"></path><rect x="3" y="3" width="2" height="2"></rect><rect x="6" y="3" width="2" height="2"></rect><rect x="9" y="3" width="2" height="2"></rect><path d="M19,19.585V15H17v4.585l-1.121-1.121-1.414,1.414,2.828,2.829a1,1,0,0,0,1.414,0l2.828-2.829-1.414-1.414Z"></path></g></svg>