<svg xmlns="http://www.w3.org/2000/svg" viewBox="0 0 48 48" x="0px" y="0px"><title>Onlie Order</title><g data-name="Onlie Order"><path d="M44.1,1H37V3h7.1a.9.9,0,0,1,.9.9V32.1a.9.9,0,0,1-.9.9H3.9a.9.9,0,0,1-.9-.9V3.9A.9.9,0,0,1,3.9,3H9V1H3.9A2.9,2.9,0,0,0,1,3.9V32.1A2.9,2.9,0,0,0,3.9,35H17v6H16a1,1,0,0,0-1,1v3H12v2H36V45H33V42a1,1,0,0,0-1-1H31V35H44.1A2.9,2.9,0,0,0,47,32.1V3.9A2.9,2.9,0,0,0,44.1,1ZM17,45V43H31v2Zm12-4H19V35H29Z"></path><rect x="4" y="26" width="40" height="2"></rect><path d="M43,24V6a1,1,0,0,0-1-1H38V7h3V24Z"></path><path d="M9,7V5H6A1,1,0,0,0,5,6V24H7V7Z"></path><path d="M13,3H29V7a2,2,0,0,0,2,2h4V24h2V8h-.009a.991.991,0,0,0-.284-.707l-6-6A.991.991,0,0,0,30,1.009V1H13a2,2,0,0,0-2,2V24h2ZM31,4.414,33.586,7H31Z"></path><rect x="17" y="11" width="2" height="2"></rect><rect x="21" y="11" width="10" height="2"></rect><rect x="17" y="15" width="8" height="2"></rect><rect x="27" y="15" width="2" height="2"></rect><rect x="17" y="19" width="14" height="2"></rect></g></svg>