<svg xmlns="http://www.w3.org/2000/svg" viewBox="0 0 64 64" x="0px" y="0px"><g data-name="Turntable-Music Player-Vinyl-Music-Multimedia"><path d="M58,2H6A1,1,0,0,0,5,3V59a3.009,3.009,0,0,0,3,3H56a3.009,3.009,0,0,0,3-3V3A1,1,0,0,0,58,2ZM57,59a1,1,0,0,1-1,1H8a1,1,0,0,1-1-1V46H23v7a1,1,0,0,0,1,1H40a1,1,0,0,0,1-1V46H57ZM50,40H49V32a1,1,0,0,0-1-1H26a1,1,0,0,0-1-1H17a1,1,0,0,0-1,1v4a1,1,0,0,0,1,1v2h2V36h6a1,1,0,0,0,1-1V33H47v7H46a1,1,0,0,0-1,1v3H11V8H53V44H51V41A1,1,0,0,0,50,40Zm-1,2v2H47V42ZM24,32v2H18V32ZM39,46v6H25V46Zm18-2H55V7a1,1,0,0,0-1-1H10A1,1,0,0,0,9,7V44H7V4H57Z"></path><rect x="43" y="48" width="10" height="2"></rect><rect x="43" y="52" width="10" height="2"></rect><rect x="43" y="56" width="10" height="2"></rect><rect x="11" y="48" width="10" height="2"></rect><rect x="11" y="52" width="10" height="2"></rect><rect x="11" y="56" width="10" height="2"></rect><rect x="13" y="40" width="30" height="2"></rect><rect x="27" y="48" width="2" height="2"></rect><rect x="31" y="48" width="2" height="2"></rect><rect x="35" y="48" width="2" height="2"></rect><rect x="29" y="56" width="2" height="2"></rect><rect x="25" y="56" width="2" height="2"></rect><rect x="33" y="56" width="2" height="2"></rect><rect x="37" y="56" width="2" height="2"></rect><path d="M38,11H30a1,1,0,0,0-1,1v8.184A2.966,2.966,0,0,0,28,20a3,3,0,1,0,3,3V17h6v2.184A2.966,2.966,0,0,0,36,19a3,3,0,1,0,3,3V12A1,1,0,0,0,38,11ZM28,24a1,1,0,1,1,1-1A1,1,0,0,1,28,24Zm3-9V13h6v2Zm5,8a1,1,0,1,1,1-1A1,1,0,0,1,36,23Z"></path></g></svg>