<svg xmlns="http://www.w3.org/2000/svg" viewBox="0 0 64 64" x="0px" y="0px"><g><path d="M59,6H58V5a3,3,0,0,0-3-3H5A3,3,0,0,0,2,5V55a3,3,0,0,0,3,3H6v1a3,3,0,0,0,3,3H59a3,3,0,0,0,3-3V9A3,3,0,0,0,59,6ZM5,4H55a1,1,0,0,1,1,1v5H4V5A1,1,0,0,1,5,4ZM4,55V12H56V55a1,1,0,0,1-1,1H5A1,1,0,0,1,4,55Zm56,4a1,1,0,0,1-1,1H9a1,1,0,0,1-1-1V58H55a3,3,0,0,0,3-3V8h1a1,1,0,0,1,1,1Z"></path><rect x="8" y="6" width="2" height="2"></rect><rect x="12" y="6" width="2" height="2"></rect><rect x="16" y="6" width="2" height="2"></rect><path d="M36,40H34V23a1,1,0,0,0-1-1H29a1,1,0,0,0-1,1V40H26V29a1,1,0,0,0-1-1H21a1,1,0,0,0-1,1V40H18V33a1,1,0,0,0-1-1H13a1,1,0,0,0-1,1v7H10V18H8V41a1,1,0,0,0,1,1H36ZM32,24v7H30V24Zm-2,9h2v7H30Zm-6-3v4H22V30Zm-2,6h2v4H22Zm-6-2v2H14V34Zm-2,4h2v2H14Z"></path><path d="M19,22.414l2.293,2.293a1,1,0,0,0,1.414,0L30,17.414V19h2V15a1,1,0,0,0-1-1H27v2h1.586L22,22.586l-2.293-2.293a1,1,0,0,0-1.414,0l-4,4,1.414,1.414Z"></path><rect x="38" y="18" width="4" height="2"></rect><rect x="44" y="18" width="8" height="2"></rect><rect x="38" y="22" width="14" height="2"></rect><rect x="38" y="26" width="14" height="2"></rect><rect x="12" y="44" width="4" height="2"></rect><rect x="18" y="44" width="12" height="2"></rect><rect x="12" y="48" width="18" height="2"></rect><rect x="12" y="52" width="18" height="2"></rect><rect x="34" y="44" width="4" height="2"></rect><rect x="40" y="44" width="12" height="2"></rect><rect x="34" y="48" width="18" height="2"></rect><rect x="34" y="52" width="18" height="2"></rect></g></svg>