<svg xmlns="http://www.w3.org/2000/svg" viewBox="0 0 64 64" x="0px" y="0px"><g data-name="Flask"><circle cx="12" cy="43" r="2"></circle><circle cx="13" cy="8" r="2"></circle><circle cx="28" cy="45" r="1"></circle><path d="M53.01,18.489,56.594,5.131,52.73,4.1l-2.287,8.524a6.934,6.934,0,0,1,1.465,5.493A5.25,5.25,0,0,1,53.01,18.489Z"></path><path d="M14.556,31.348A3.258,3.258,0,0,1,16.005,31a3.005,3.005,0,0,1,3,3v8.021a.931.931,0,0,0,.444.839,1.075,1.075,0,0,0,1.081-.009A1,1,0,0,0,21,42V30.979a2.92,2.92,0,0,1,1.556-2.631,3.058,3.058,0,0,1,3.024.1A2.986,2.986,0,0,1,27,31v7.021a.931.931,0,0,0,.444.839,1.077,1.077,0,0,0,1.081-.009A1,1,0,0,0,29,38V29a3,3,0,0,1,3-3H51a3,3,0,0,0,2.986-3.3A3.118,3.118,0,0,0,50.828,20h-.177a1,1,0,0,1-.942-1.334,4.915,4.915,0,0,0,.078-3.1,5.047,5.047,0,0,0-3.963-3.5,4.979,4.979,0,0,0-5.21,2.534,1,1,0,0,1-1.84-.212,5.995,5.995,0,0,0-11.333-.64,1,1,0,0,1-1.765.169,1.991,1.991,0,0,0-3.617.631,1,1,0,0,1-1.559.586,5.923,5.923,0,0,0-3.921-1.12,6.18,6.18,0,0,0-5.568,6.02A1,1,0,0,1,9.972,21,4,4,0,0,0,10,29a1,1,0,0,1,1,1v5.013c0,1.08.149,1.7.444,1.847a1.075,1.075,0,0,0,1.081-.009A1,1,0,0,0,13,36V33.979A2.92,2.92,0,0,1,14.556,31.348Z"></path><path d="M20,60H52a1,1,0,0,0,1-1V56H50V54h3V51H50V49h3V46H50V44h3V41H50V39h3V34H31v4a2.986,2.986,0,0,1-1.42,2.551,3.055,3.055,0,0,1-3.024.1A2.92,2.92,0,0,1,25,38.021V31a1,1,0,0,0-.475-.851,1.07,1.07,0,0,0-1.081-.009.931.931,0,0,0-.444.839V42a3.005,3.005,0,0,1-3,3,3.187,3.187,0,0,1-1-.189V59A1,1,0,0,0,20,60Zm8-18a3,3,0,1,1-3,3A3,3,0,0,1,28,42Z"></path><path d="M55,28H32a1,1,0,0,0-1,1v3H55Z"></path></g></svg>