<svg xmlns="http://www.w3.org/2000/svg" viewBox="0 0 64 64" x="0px" y="0px"><g><rect x="56" y="50" width="4" height="2"></rect><rect x="56" y="12" width="4" height="2"></rect><rect x="57" y="16" width="2" height="32"></rect><rect x="4" y="50" width="4" height="2"></rect><rect x="5" y="16" width="2" height="32"></rect><rect x="4" y="12" width="4" height="2"></rect><path d="M55,20H49.278A1.993,1.993,0,0,1,51,19a1,1,0,0,0,1-1V12H50v5.126A4.007,4.007,0,0,0,47.141,20H40.278A1.993,1.993,0,0,1,42,19a1,1,0,0,0,1-1V12H41v5.126A4.007,4.007,0,0,0,38.141,20H31.278A1.993,1.993,0,0,1,33,19a1,1,0,0,0,1-1V12H32v5.126A4.007,4.007,0,0,0,29.141,20H23.278A1.993,1.993,0,0,1,25,19a1,1,0,0,0,1-1V12H24v5.126A4.007,4.007,0,0,0,21.141,20H14.278A1.993,1.993,0,0,1,16,19a1,1,0,0,0,1-1V12H15v5.126A4.007,4.007,0,0,0,12.141,20H9v2h3.141A4.007,4.007,0,0,0,15,24.874v3.252A4.007,4.007,0,0,0,12.141,31H9v2h3.141A4.007,4.007,0,0,0,15,35.874v3.252A4.007,4.007,0,0,0,12.141,42H9v2h3.141A4.007,4.007,0,0,0,15,46.874V52h2V46a1,1,0,0,0-1-1,1.993,1.993,0,0,1-1.722-1h6.863A4.007,4.007,0,0,0,24,46.874V52h2V46a1,1,0,0,0-1-1,1.993,1.993,0,0,1-1.722-1h5.863A4.007,4.007,0,0,0,32,46.874V52h2V46a1,1,0,0,0-1-1,1.993,1.993,0,0,1-1.722-1h6.863A4.007,4.007,0,0,0,41,46.874V52h2V46a1,1,0,0,0-1-1,1.993,1.993,0,0,1-1.722-1h6.863A4.007,4.007,0,0,0,50,46.874V52h2V46a1,1,0,0,0-1-1,1.993,1.993,0,0,1-1.722-1H55V42H49.278A1.993,1.993,0,0,1,51,41a1,1,0,0,0,1-1V35a1,1,0,0,0-1-1,1.993,1.993,0,0,1-1.722-1H55V31H49.278A1.993,1.993,0,0,1,51,30a1,1,0,0,0,1-1V24a1,1,0,0,0-1-1,1.993,1.993,0,0,1-1.722-1H55ZM41,24.874v3.252A4.007,4.007,0,0,0,38.141,31H31.278A1.993,1.993,0,0,1,33,30a1,1,0,0,0,1-1V24a1,1,0,0,0-1-1,1.993,1.993,0,0,1-1.722-1h6.863A4.007,4.007,0,0,0,41,24.874Zm0,11v3.252A4.007,4.007,0,0,0,38.141,42H31.278A1.993,1.993,0,0,1,33,41a1,1,0,0,0,1-1V35a1,1,0,0,0-1-1,1.993,1.993,0,0,1-1.722-1h6.863A4.007,4.007,0,0,0,41,35.874ZM25,34a1.993,1.993,0,0,1-1.722-1h5.863A4.007,4.007,0,0,0,32,35.874v3.252A4.007,4.007,0,0,0,29.141,42H23.278A1.993,1.993,0,0,1,25,41a1,1,0,0,0,1-1V35A1,1,0,0,0,25,34Zm0-11a1.993,1.993,0,0,1-1.722-1h5.863A4.007,4.007,0,0,0,32,24.874v3.252A4.007,4.007,0,0,0,29.141,31H23.278A1.993,1.993,0,0,1,25,30a1,1,0,0,0,1-1V24A1,1,0,0,0,25,23Zm-9,7a1,1,0,0,0,1-1V24a1,1,0,0,0-1-1,1.993,1.993,0,0,1-1.722-1h6.863A4.007,4.007,0,0,0,24,24.874v3.252A4.007,4.007,0,0,0,21.141,31H14.278A1.993,1.993,0,0,1,16,30Zm0,11a1,1,0,0,0,1-1V35a1,1,0,0,0-1-1,1.993,1.993,0,0,1-1.722-1h6.863A4.007,4.007,0,0,0,24,35.874v3.252A4.007,4.007,0,0,0,21.141,42H14.278A1.993,1.993,0,0,1,16,41Zm34-5.126v3.252A4.007,4.007,0,0,0,47.141,42H40.278A1.993,1.993,0,0,1,42,41a1,1,0,0,0,1-1V35a1,1,0,0,0-1-1,1.993,1.993,0,0,1-1.722-1h6.863A4.007,4.007,0,0,0,50,35.874Zm0-11v3.252A4.007,4.007,0,0,0,47.141,31H40.278A1.993,1.993,0,0,1,42,30a1,1,0,0,0,1-1V24a1,1,0,0,0-1-1,1.993,1.993,0,0,1-1.722-1h6.863A4.007,4.007,0,0,0,50,24.874Z"></path></g></svg>