<svg xmlns="http://www.w3.org/2000/svg" viewBox="0 0 64 64" x="0px" y="0px"><g><path d="M60,54H40v6H60ZM44,59H42V57h2Z"></path><path d="M57,52l.019-26.855L40.407,8.532l-.712.707a3.013,3.013,0,0,0,0,4.246l11,10.8a1,1,0,0,1,.291.714H51V41H49V26a3,3,0,0,0-3,3v7.35a1,1,0,0,1-.672.944A4.979,4.979,0,0,0,42,42v5a5.006,5.006,0,0,0,5,5Z"></path><path d="M31.973,37.852C34.164,36.6,43.2,31.12,43.952,25.527A5.591,5.591,0,0,0,41.9,20.559l-.009-.01a5.57,5.57,0,0,0-7.708,0l-1.517,1.474a1,1,0,0,1-1.394,0l-1.518-1.474a5.471,5.471,0,0,0-3.828-1.525,5.652,5.652,0,0,0-3.889,1.535,5.455,5.455,0,0,0-1.99,4.832C20.771,30.986,29.787,36.574,31.973,37.852ZM26,21v2a2,2,0,0,0-2,2H22A4,4,0,0,1,26,21Z"></path><path d="M23.592,8.532,6.98,25.144,7,52H17a5.006,5.006,0,0,0,5-5V42a4.979,4.979,0,0,0-3.328-4.706A1,1,0,0,1,18,36.35V29a3,3,0,0,0-3-3V41H13V25h.009a1,1,0,0,1,.291-.714L24.31,13.477a3.012,3.012,0,0,0,0-4.238Z"></path><path d="M4,60H24V54H4Zm16-3h2v2H20Z"></path></g></svg>