<svg xmlns="http://www.w3.org/2000/svg" viewBox="0 0 64 64" x="0px" y="0px"><g data-name="Check Up-Report-Online"><path d="M60,45H59V16a5.006,5.006,0,0,0-5-5H10a5.006,5.006,0,0,0-5,5V45H4a2,2,0,0,0-2,2v3a3,3,0,0,0,3,3H59a3,3,0,0,0,3-3V47A2,2,0,0,0,60,45ZM7,16a3,3,0,0,1,3-3H54a3,3,0,0,1,3,3V45H7ZM36,48H28V47h8Zm24,2a1,1,0,0,1-1,1H5a1,1,0,0,1-1-1V47H26v1a2,2,0,0,0,2,2h8a2,2,0,0,0,2-2V47H60Z"></path><path d="M31.974,39H32a1,1,0,0,0,.949-.684L37,26.162l2.051,6.154a1,1,0,0,0,.878.682,1.019,1.019,0,0,0,.966-.551L42.618,29H52a1,1,0,0,0,0-2H42a1,1,0,0,0-.9.553l-.92,1.841-2.236-6.71a1,1,0,0,0-1.9,0L32.089,34.572l-4.125-14.9a1,1,0,0,0-.95-.733H27a1,1,0,0,0-.956.707L22.959,29.716l-2.01-6.032a1,1,0,0,0-1.878-.056L17.323,28H12a1,1,0,0,0,0,2h6a1,1,0,0,0,.929-.628l.986-2.466,2.136,6.41a.988.988,0,0,0,.961.684,1,1,0,0,0,.944-.707l3-9.783,4.084,14.757A1,1,0,0,0,31.974,39Z"></path></g></svg>