<svg xmlns="http://www.w3.org/2000/svg" viewBox="0 0 48 48" x="0px" y="0px"><title>Circle-Gift Box</title><g data-name="Circle-Gift Box"><path d="M24,0A24,24,0,1,0,48,24,24.028,24.028,0,0,0,24,0ZM44.852,17H39V15.55A5,5,0,0,0,32.423,10.8L26.76,12.7A5.824,5.824,0,0,0,25,12.113V2.025A22.039,22.039,0,0,1,44.852,17ZM26.133,21.386a4.081,4.081,0,0,1-4.266,0,4.012,4.012,0,0,1-.7-6.219,3.42,3.42,0,0,1,.656-.513c.018-.012.033-.024.052-.035A3.886,3.886,0,0,1,24,14a3.927,3.927,0,0,1,2.16.64,3.44,3.44,0,0,1,.669.523,4.022,4.022,0,0,1,0,5.67A3.9,3.9,0,0,1,26.133,21.386Zm-6.757.44L14.945,23.3A3,3,0,0,1,11,20.45v-4.9a3.008,3.008,0,0,1,2.991-3.007,3.021,3.021,0,0,1,.952.155l4.426,1.48-.007.01a5.992,5.992,0,0,0-.53.771c-.025.041-.051.081-.074.123a6.076,6.076,0,0,0-.373.812c-.019.051-.037.1-.055.154a5.992,5.992,0,0,0-.229.868L18.086,17H16a1,1,0,0,0,0,2h2.087c.011.068.031.133.045.2a5.86,5.86,0,0,0,.185.694c.024.073.045.148.072.22a5.876,5.876,0,0,0,.384.829c.028.05.062.1.091.145a5.955,5.955,0,0,0,.434.625C19.327,21.75,19.347,21.791,19.376,21.826Zm9.259-.01a6.091,6.091,0,0,0,.531-.77c.024-.042.05-.082.074-.125a6.082,6.082,0,0,0,.374-.812q.028-.077.054-.153a5.91,5.91,0,0,0,.231-.871L29.914,19H32a1,1,0,0,0,0-2H29.914l-.015-.083a5.992,5.992,0,0,0-.229-.868c-.018-.052-.036-.1-.055-.155a6.064,6.064,0,0,0-.373-.811c-.023-.042-.049-.082-.073-.123a6.084,6.084,0,0,0-.533-.774l0-.008L33.056,12.7A3,3,0,0,1,37,15.55v4.9A3,3,0,0,1,33.056,23.3l-4.429-1.474ZM23,2.025V12.109a5.763,5.763,0,0,0-1.764.585L15.575,10.8A5,5,0,0,0,9,15.55V17H3.148A22.039,22.039,0,0,1,23,2.025ZM2,24a21.983,21.983,0,0,1,.58-5H9v1.45a5.011,5.011,0,0,0,4.984,5.009,5.054,5.054,0,0,0,1.592-.26l5.663-1.885c.1.052.2.114.3.16-1.3,3.979-3.552,9.128-7.243,12.819a1,1,0,1,0,1.414,1.414A33.613,33.613,0,0,0,23,25.367V45.975A22.026,22.026,0,0,1,2,24ZM25,45.975V25.367a33.616,33.616,0,0,0,7.293,12.34,1,1,0,0,0,1.414-1.414c-3.692-3.693-5.941-8.84-7.243-12.818.1-.046.2-.108.3-.161L32.425,25.2a5.044,5.044,0,0,0,1.591.26A5.011,5.011,0,0,0,39,20.45V19h6.42A21.981,21.981,0,0,1,25,45.975Z"></path></g></svg>