<svg xmlns="http://www.w3.org/2000/svg" viewBox="0 0 64 64" x="0px" y="0px"><g data-name="Contact-Contact List-Smartphone-Mobile-App"><path d="M36.554,36.238l-3.567-2.376a3.6,3.6,0,0,1-1.974,0l-3.567,2.376A1,1,0,0,0,27,37H37A1,1,0,0,0,36.554,36.238Z"></path><path d="M33.737,26.028A1.993,1.993,0,0,0,30,27a8.559,8.559,0,0,0,3.607-.919Z"></path><path d="M32,32a2,2,0,0,0,2-2V28.083A9.785,9.785,0,0,1,30,29v1A2,2,0,0,0,32,32Z"></path><path d="M49,54H22.6a11.075,11.075,0,0,1,.4,2.93v1.3A11.529,11.529,0,0,1,22.85,60H44a5,5,0,0,0,5-5ZM34,58H30V56h4Z"></path><path d="M49,12H15V44.66l2.44-4.22A3.976,3.976,0,0,1,21,38.46V22a3.009,3.009,0,0,1,3-3H40a3.009,3.009,0,0,1,3,3V40a3.009,3.009,0,0,1-3,3H24.86a3.972,3.972,0,0,1-.49,1.44l-3.26,5.64L21.88,52H49ZM19,23H17V21h2Zm3-7H19v3H17V15a1,1,0,0,1,1-1h4Z"></path><path d="M21,58.23v-1.3a9.149,9.149,0,0,0-.64-3.35l-1.29-3.21a1.023,1.023,0,0,1,.06-.87l3.5-6.06a1.974,1.974,0,0,0,.2-1.52,1.927,1.927,0,0,0-.93-1.21,1.988,1.988,0,0,0-2.73.73l-5,8.66-1.73-1,.56-.98V35.15l-4.51,7.8a14.956,14.956,0,0,0-1.92,9.16L7.561,61h13A8.945,8.945,0,0,0,21,58.23Z"></path><path d="M49,9a5,5,0,0,0-5-5H20a5,5,0,0,0-5,5v1H49ZM27,8H25V6h2Zm8,0H29V6h6Z"></path><path d="M40,41a1,1,0,0,0,1-1V22a1,1,0,0,0-1-1H24a1,1,0,0,0-1,1V39.04A3.963,3.963,0,0,1,24.61,41ZM25,37.071a3,3,0,0,1,1.337-2.5l2.76-1.838A3.981,3.981,0,0,1,28,30V27a4,4,0,0,1,8,0v3a3.981,3.981,0,0,1-1.1,2.736l2.76,1.838A3,3,0,0,1,39,37.071V38a1,1,0,0,1-1,1H26a1,1,0,0,1-1-1Z"></path></g></svg>