<svg xmlns="http://www.w3.org/2000/svg" viewBox="0 0 64 64" x="0px" y="0px"><g data-name="Speech Bubble"><path d="M61.665,10.253a.99.99,0,0,0-.779-.247L56,10.568V7a1,1,0,0,0-.923-1l-52-4a.973.973,0,0,0-.757.263A1,1,0,0,0,2,3V41a1,1,0,0,0,1,1H8v7a1,1,0,0,0,1,1h9.2l3.033,3.64A1,1,0,0,0,22,54a1.013,1.013,0,0,0,.341-.06A1,1,0,0,0,23,53V50H41V61a1,1,0,0,0,.659.94A1.013,1.013,0,0,0,42,62a1,1,0,0,0,.769-.36L52.469,50H61a1,1,0,0,0,1-1V11A1,1,0,0,0,61.665,10.253ZM10,48V42h1.531l5,6Zm11-7v9.238L12.769,40.36A1,1,0,0,0,12,40H4V4.08L54,7.926V40H22A1,1,0,0,0,21,41Zm39,7H52a1,1,0,0,0-.769.36L43,58.238V49a1,1,0,0,0-1-1H23V42H55a1,1,0,0,0,1-1V12.582l4-.46Z"></path><rect x="11" y="13" width="2" height="2"></rect><rect x="15" y="13" width="2" height="2"></rect><rect x="19" y="13" width="28" height="2"></rect><rect x="11" y="19" width="28" height="2"></rect><rect x="41" y="19" width="2" height="2"></rect><rect x="45" y="19" width="2" height="2"></rect><rect x="11" y="25" width="36" height="2"></rect><rect x="11" y="31" width="18" height="2"></rect><rect x="31" y="31" width="2" height="2"></rect><rect x="35" y="31" width="2" height="2"></rect><rect x="39" y="31" width="8" height="2"></rect></g></svg>