<svg xmlns="http://www.w3.org/2000/svg" viewBox="0 0 64 64" x="0px" y="0px"><title>Data-Disk-Book</title><g><path d="M60,55H33V54a3,3,0,0,1,3-3H57a1,1,0,0,0,1-1V34H56V49H36a4.967,4.967,0,0,0-3,1.012V18a3,3,0,0,1,3-3h2V13H36a5,5,0,0,0-4,2,5,5,0,0,0-4-2H7a1,1,0,0,0-1,1v5H3a1,1,0,0,0-1,1V56a1,1,0,0,0,1,1H61a1,1,0,0,0,1-1V32H60ZM8,15H28a3,3,0,0,1,3,3V50.012A4.967,4.967,0,0,0,28,49H8ZM4,21H6V50a1,1,0,0,0,1,1H28a3,3,0,0,1,3,3v1H4Z"></path><rect x="12" y="23" width="14" height="2"></rect><rect x="12" y="31" width="14" height="2"></rect><rect x="12" y="39" width="14" height="2"></rect><rect x="38" y="39" width="14" height="2"></rect><path d="M61.707,12.293l-5-5A1,1,0,0,0,56,7H43a1,1,0,0,0-1,1V27a1,1,0,0,0,1,1H61a1,1,0,0,0,1-1V13A1,1,0,0,0,61.707,12.293ZM53,9v4H48V9ZM48,26V20h8v6Zm12,0H58V19a1,1,0,0,0-1-1H47a1,1,0,0,0-1,1v7H44V9h2v5a1,1,0,0,0,1,1h7a1,1,0,0,0,1-1V9h.586L60,13.414Z"></path></g></svg>