<svg xmlns="http://www.w3.org/2000/svg" viewBox="0 0 64 64" x="0px" y="0px"><title>Disk-Data</title><g><path d="M22,34H42a1,1,0,0,0,1-1V16.042a1,1,0,0,0-.293-.707l-3.042-3.042A1,1,0,0,0,38.958,12H22a1,1,0,0,0-1,1V33A1,1,0,0,0,22,34Zm4-2V25H38v7Zm8-18v2H32V14Zm-4,0v3a1,1,0,0,0,1,1h4a1,1,0,0,0,1-1V14h1v5H27V14Zm-7,0h2v6a1,1,0,0,0,1,1H38a1,1,0,0,0,1-1V14.456l2,2V32H40V24a1,1,0,0,0-1-1H25a1,1,0,0,0-1,1v8H23Z"></path><rect x="28" y="26" width="8" height="2"></rect><rect x="28" y="29" width="8" height="2"></rect><path d="M59,2H5A3,3,0,0,0,2,5V45a3,3,0,0,0,3,3H22.9l-.8,8H19a1,1,0,0,0-1,1v3H16v2H48V60H46V57a1,1,0,0,0-1-1H41.905l-.8-8H59a3,3,0,0,0,3-3V5A3,3,0,0,0,59,2ZM44,58v2H20V58ZM24.105,56l.8-8H39.1l.8,8ZM60,45a1,1,0,0,1-1,1H5a1,1,0,0,1-1-1V5A1,1,0,0,1,5,4H59a1,1,0,0,1,1,1Z"></path><path d="M56,6H8A2,2,0,0,0,6,8V39a1,1,0,0,0,1,1H57a1,1,0,0,0,1-1V8A2,2,0,0,0,56,6Zm0,32H8V8H56Z"></path><rect x="31" y="42" width="2" height="2"></rect></g></svg>