<svg xmlns="http://www.w3.org/2000/svg" viewBox="0 0 64 64" x="0px" y="0px"><g><rect x="40" y="16" width="2" height="2"></rect><rect x="36" y="16" width="2" height="2"></rect><rect x="44" y="16" width="2" height="2"></rect><rect x="48" y="16" width="2" height="2"></rect><rect x="48" y="20" width="2" height="2"></rect><rect x="48" y="24" width="2" height="2"></rect><rect x="48" y="28" width="2" height="2"></rect><rect x="48" y="32" width="2" height="2"></rect><rect x="48" y="36" width="2" height="2"></rect><rect x="24" y="48" width="2" height="2"></rect><rect x="28" y="48" width="2" height="2"></rect><rect x="20" y="48" width="2" height="2"></rect><rect x="16" y="48" width="2" height="2"></rect><rect x="16" y="44" width="2" height="2"></rect><rect x="16" y="40" width="2" height="2"></rect><rect x="16" y="36" width="2" height="2"></rect><path d="M44,49V45a1,1,0,0,0-1-1H37a1,1,0,0,0-1,1v4a1,1,0,0,0,1,1h6A1,1,0,0,0,44,49Zm-2-1H38V46h4Z"></path><rect x="38" y="52" width="2" height="2"></rect><rect x="42" y="52" width="2" height="2"></rect><rect x="46" y="52" width="2" height="2"></rect><rect x="50" y="52" width="2" height="2"></rect><rect x="54" y="52" width="2" height="2"></rect><rect x="38" y="56" width="8" height="2"></rect><rect x="48" y="56" width="8" height="2"></rect><path d="M59,40H35a3,3,0,0,0-3,3V59a3,3,0,0,0,3,3H59a3,3,0,0,0,3-3V43A3,3,0,0,0,59,40Zm1,19a1,1,0,0,1-1,1H35a1,1,0,0,1-1-1V43a1,1,0,0,1,1-1H59a1,1,0,0,1,1,1Z"></path><path d="M34,18a16.03,16.03,0,1,0-5.143,11.736A15.974,15.974,0,0,0,34,18ZM4.052,17A13.959,13.959,0,0,1,7.883,8.364,15.874,15.874,0,0,0,10.2,9.947,25.953,25.953,0,0,0,9.028,17Zm27.9,2a13.959,13.959,0,0,1-3.831,8.636,15.874,15.874,0,0,0-2.312-1.583A25.953,25.953,0,0,0,26.972,19Zm-7.976,6.159A15.919,15.919,0,0,0,19,24.047V19h5.974A24.316,24.316,0,0,1,23.972,25.159ZM19,26.047a13.9,13.9,0,0,1,4.289,1c-1.085,2.52-2.6,4.281-4.289,4.79ZM19,17V11.953a15.919,15.919,0,0,0,4.972-1.112,24.316,24.316,0,0,1,1,6.159ZM17,9.953a13.9,13.9,0,0,1-4.289-1C13.8,6.437,15.31,4.676,17,4.167Zm2,0V4.167c1.69.509,3.2,2.27,4.289,4.79A13.9,13.9,0,0,1,19,9.953ZM23.348,5.07A13.861,13.861,0,0,1,26.636,7,13.838,13.838,0,0,1,25.09,8.056,14.37,14.37,0,0,0,23.348,5.07ZM10.91,8.056A13.838,13.838,0,0,1,9.364,7a13.865,13.865,0,0,1,3.288-1.931A14.423,14.423,0,0,0,10.91,8.056Zm1.118,2.785A15.919,15.919,0,0,0,17,11.953V17H11.026A24.316,24.316,0,0,1,12.028,10.841ZM17,19v5.047a15.919,15.919,0,0,0-4.972,1.112,24.316,24.316,0,0,1-1-6.159Zm0,7.047v5.786c-1.69-.509-3.2-2.27-4.289-4.79A13.9,13.9,0,0,1,17,26.047ZM12.652,30.93A13.861,13.861,0,0,1,9.364,29a13.838,13.838,0,0,1,1.546-1.056A14.37,14.37,0,0,0,12.652,30.93ZM25.09,27.944A13.838,13.838,0,0,1,26.636,29a13.865,13.865,0,0,1-3.288,1.931A14.379,14.379,0,0,0,25.09,27.944ZM31.948,17H26.972a25.953,25.953,0,0,0-1.167-7.053,15.8,15.8,0,0,0,2.312-1.584A13.957,13.957,0,0,1,31.948,17Zm-27.9,2H9.028A25.953,25.953,0,0,0,10.2,26.053a15.8,15.8,0,0,0-2.312,1.584A13.957,13.957,0,0,1,4.052,19Z"></path><path d="M55,44a2.955,2.955,0,0,0-1.5.425A2.955,2.955,0,0,0,52,44a3,3,0,0,0,0,6,2.955,2.955,0,0,0,1.5-.425A2.955,2.955,0,0,0,55,50a3,3,0,0,0,0-6Zm-4,3a1,1,0,0,1,1-1,.975.975,0,0,1,.741.341l0,0a.246.246,0,0,0,.017.027.969.969,0,0,1,0,1.272.246.246,0,0,0-.017.027l0,0A.975.975,0,0,1,52,48,1,1,0,0,1,51,47Zm3.834.986a3.011,3.011,0,0,0,0-1.972,1,1,0,1,1,0,1.972Z"></path></g></svg>