<svg xmlns="http://www.w3.org/2000/svg" viewBox="0 0 64 64" x="0px" y="0px"><g data-name="Briefcase"><path d="M26,7H38a1,1,0,0,0,1-1V4a1,1,0,0,0-1-1H26a1,1,0,0,0-1,1V6A1,1,0,0,0,26,7Z"></path><rect x="53" y="29" width="2" height="4"></rect><rect x="27" y="38" width="10" height="2"></rect><path d="M50,60a1,1,0,0,0,1-1V27a1,1,0,0,0-1-1H49V41a5.006,5.006,0,0,1-5,5H20a5.006,5.006,0,0,1-5-5V26H14a1,1,0,0,0-1,1V59a1,1,0,0,0,1,1h1V51a3,3,0,0,1,3-3H46a3,3,0,0,1,3,3v9Z"></path><path d="M46,50H18a1,1,0,0,0-1,1v9H47V51A1,1,0,0,0,46,50Z"></path><path d="M20,44H44a3,3,0,0,0,3-3V26H17V41A3,3,0,0,0,20,44Zm5-7a1,1,0,0,1,1-1H38a1,1,0,0,1,1,1v4a1,1,0,0,1-1,1H26a1,1,0,0,1-1-1Z"></path><rect x="9" y="29" width="2" height="4"></rect><path d="M55,27H53V9a3,3,0,0,0-3-3H41V4h9a5.006,5.006,0,0,1,5,5Z"></path><path d="M11,27H9V9a5.006,5.006,0,0,1,5-5h9V6H14a3,3,0,0,0-3,3Z"></path></g></svg>