<svg xmlns="http://www.w3.org/2000/svg" viewBox="0 0 64 64" x="0px" y="0px"><g><path d="M57,54H54v6h3a3,3,0,0,0,0-6Z"></path><path d="M18,22H54V16H18Zm22-4h4v2H40Zm-6,0h4v2H34Zm-6,0h4v2H28Z"></path><path d="M60,13a3,3,0,0,0-3-3H12V45a1,1,0,0,1-1,1H7a3,3,0,0,0,0,6H57a4.948,4.948,0,0,1,3,1.026ZM16,26H42v2H16Zm0,4H48v2H16Zm0,8H42v2H16Zm0,4H36v2H16Zm16,6H16V46H32Zm6,0H34V46h4Zm18,0H40V46H56Zm0-4H38V42H56ZM44,40V38h6v2Zm12,0H52V38h4Zm0-4H16V34H56Zm0-4H50V30h6Zm0-4H44V26H56Zm0-5a1,1,0,0,1-1,1H17a1,1,0,0,1-1-1V15a1,1,0,0,1,1-1H55a1,1,0,0,1,1,1Z"></path><path d="M4,45a4.98,4.98,0,0,1,3-1h3V4H7A3,3,0,0,0,4,7Z"></path></g></svg>