<svg xmlns="http://www.w3.org/2000/svg" viewBox="0 0 64 64" x="0px" y="0px"><g data-name="Order"><path d="M34.808,39.394a3,3,0,0,0-4.243,0l-2.828,2.828a1,1,0,0,1-1.415,0L19.251,35.15a1,1,0,0,1,0-1.414l2.829-2.828a3,3,0,0,0,0-4.242L13.6,18.181a3.073,3.073,0,0,0-4.243,0L4.4,23.13a9.009,9.009,0,0,0,0,12.727L25.615,57.071a9.01,9.01,0,0,0,12.728,0l4.95-4.95a3,3,0,0,0,0-4.242ZM10.767,19.6a1,1,0,0,1,1.413,0l8.486,8.486a1,1,0,0,1,0,1.413l-2.122,2.121-9.9-9.9ZM36.929,55.657a7.009,7.009,0,0,1-9.9,0L5.816,34.443a7.008,7.008,0,0,1,0-9.9L7.23,23.13,17.258,33.158a2.964,2.964,0,0,0,.579,3.406l7.071,7.072a3,3,0,0,0,3.4.576L38.344,54.243Zm4.95-4.95-2.121,2.121-9.9-9.9,2.121-2.121a1.027,1.027,0,0,1,1.415,0l8.484,8.485A1,1,0,0,1,41.879,50.707Z"></path><path d="M50,10H38a2,2,0,0,0-2,2V22a2,2,0,0,0,2,2H50a2,2,0,0,0,2-2V12A2,2,0,0,0,50,10Zm0,4H47V12h3Zm-5-2v4H43V12Zm-4,0v2H38V12ZM38,22V16h3v1a1,1,0,0,0,1,1h4a1,1,0,0,0,1-1V16h3v6Z"></path><path d="M57,4H31a5.006,5.006,0,0,0-5,5V25a5.006,5.006,0,0,0,5,5h9v6.149a1.976,1.976,0,0,0,1.338,1.887,2.038,2.038,0,0,0,.674.116,1.975,1.975,0,0,0,1.55-.754L49.48,30H57a5.006,5.006,0,0,0,5-5V9A5.006,5.006,0,0,0,57,4Zm3,21a3,3,0,0,1-3,3H49a1,1,0,0,0-.781.375L42,36.149V29a1,1,0,0,0-1-1H31a3,3,0,0,1-3-3V9a3,3,0,0,1,3-3H57a3,3,0,0,1,3,3Z"></path></g></svg>