<svg xmlns="http://www.w3.org/2000/svg" viewBox="0 0 64 64" x="0px" y="0px"><g data-name="Delivery Truck"><path d="M41.383,23.256A3.01,3.01,0,0,0,38.941,22H36V34H49.057Z"></path><path d="M56,42h4V41a5,5,0,0,0-.1-1H56Z"></path><path d="M55.92,50H59a1,1,0,0,0,1-1V48H57V46h3V44H56a2,2,0,0,1-2-2V40a2,2,0,0,1,2-2h2.974A4.977,4.977,0,0,0,55,36H36V50h6.08a6.991,6.991,0,0,1,13.84,0ZM42,40H38V38h4Z"></path><path d="M49,46a5,5,0,1,0,5,5A5.006,5.006,0,0,0,49,46Zm1,6H48V50h2Z"></path><path d="M15,46a5,5,0,1,0,5,5A5.006,5.006,0,0,0,15,46Zm1,6H14V50h2Z"></path><rect x="4" y="40" width="1" height="2"></rect><path d="M17,21a4,4,0,0,0-3.858,3h7.716A4,4,0,0,0,17,21Z"></path><path d="M4,14V34H30V14ZM25,26H23.6l-1.7,3.442A1,1,0,0,1,21,30H13a1,1,0,0,1-.895-.553L10.382,26H9V24h2.09A6.008,6.008,0,0,1,16,19.09V18h2v1.09A6.008,6.008,0,0,1,22.91,24H25Z"></path><polygon points="13.618 28 20.378 28 21.365 26 12.618 26 13.618 28"></polygon><path d="M21.92,50H34V22H32V35a1,1,0,0,1-1,1H4v2H5a2,2,0,0,1,2,2v2a2,2,0,0,1-2,2H4v2H7v2H4v1a1,1,0,0,0,1,1H8.08a6.991,6.991,0,0,1,13.84,0Z"></path></g></svg>