<svg xmlns="http://www.w3.org/2000/svg" viewBox="0 0 64 64" x="0px" y="0px"><g><path d="M25,31a6,6,0,1,0-6-6A6.006,6.006,0,0,0,25,31Zm0-10a4,4,0,1,1-4,4A4,4,0,0,1,25,21Z"></path><path d="M17,25a7.939,7.939,0,0,1,1.2-4.193A25.394,25.394,0,0,0,12.4,25,25.554,25.554,0,0,0,18.2,29.186,7.941,7.941,0,0,1,17,25Z"></path><circle cx="25" cy="25" r="2"></circle><path d="M37.6,25a25.554,25.554,0,0,0-5.793-4.187,7.927,7.927,0,0,1,0,8.379A25.394,25.394,0,0,0,37.6,25Z"></path><path d="M41.947,40.531q-.677.738-1.416,1.416L44.38,45.8,45.8,44.38Z"></path><path d="M59.234,59.234a3.005,3.005,0,0,0,0-4.243L48.627,44.385l-4.242,4.242L54.991,59.234A3,3,0,0,0,59.234,59.234Z"></path><path d="M25,46A21,21,0,1,0,4,25,21.024,21.024,0,0,0,25,46ZM25,6A19,19,0,1,1,6,25,19.021,19.021,0,0,1,25,6Z"></path><path d="M25,42A17,17,0,1,0,8,25,17.019,17.019,0,0,0,25,42Zm-.835-24.956a7.945,7.945,0,0,1,1.67,0c7.684.458,13.651,7,13.91,7.289a1,1,0,0,1,0,1.334c-.259.289-6.226,6.831-13.91,7.289a7.945,7.945,0,0,1-1.67,0c-7.684-.458-13.651-7-13.91-7.289a1,1,0,0,1,0-1.334C10.514,24.044,16.481,17.5,24.165,17.044Z"></path></g></svg>