<svg xmlns="http://www.w3.org/2000/svg" viewBox="0 0 64 64" x="0px" y="0px"><g><path d="M37,8H11V42H37ZM15,11h4v2H15Zm0,8H27v2H15Zm0,8h8v2H15Zm0,4H27v2H15Zm10-2V27h4v2Zm8,8H15V35H33Zm0-4H29V31h4Zm0-4H31V27h2Zm0-4H15V23H33Zm0-4H29V19h4Zm0-4H15V15H33Zm0-4H21V11H33Z"></path><path d="M34.984,57.115a1.007,1.007,0,0,1,.391.391l1.455,2.625L52.57,51.4l-1.454-2.616a1,1,0,0,1-.126-.486L51,38.258,44.826,27.114a1.988,1.988,0,0,0-2.726-.776,1.972,1.972,0,0,0-.947,1.193,2,2,0,0,0,.173,1.526L44.233,34.3a1,1,0,0,1-.39,1.359,5.007,5.007,0,0,0-1.949,6.8l1.945,3L43,46v3a3,3,0,0,1-3,3H26.607l.379.685Z"></path><path d="M8,50H40a1,1,0,0,0,1-1V44.753l-.82-1.266A7.044,7.044,0,0,1,41,35.432V32.594l-1.425-2.571A3.977,3.977,0,0,1,41,24.678V5a1,1,0,0,0-1-1H8A1,1,0,0,0,7,5V49A1,1,0,0,0,8,50Zm19-2H21V46h6ZM9,7a1,1,0,0,1,1-1H38a1,1,0,0,1,1,1V43a1,1,0,0,1-1,1H10a1,1,0,0,1-1-1Z"></path></g></svg>