<svg xmlns="http://www.w3.org/2000/svg" viewBox="0 0 64 64" x="0px" y="0px"><g><circle cx="38" cy="45" r="6"></circle><path d="M60,55V35a1,1,0,0,0-1-1H17a1,1,0,0,0-1,1V55a1,1,0,0,0,1,1H59A1,1,0,0,0,60,55ZM27,54H22.9a1,1,0,0,1-.98-.8,4,4,0,0,0-3.12-3.12,1,1,0,0,1-.8-.98V40.9a1,1,0,0,1,.8-.98,4,4,0,0,0,3.12-3.12,1,1,0,0,1,.98-.8H27v2H23.658A5.987,5.987,0,0,1,20,41.658v6.684A5.987,5.987,0,0,1,23.658,52H27Zm1-8H26V44h2Zm10,7a8,8,0,1,1,8-8A8.009,8.009,0,0,1,38,53Zm10-9h2v2H48Zm10,5.1a1,1,0,0,1-.8.98,4,4,0,0,0-3.12,3.12,1,1,0,0,1-.98.8H49V52h3.342A5.987,5.987,0,0,1,56,48.342V41.658A5.987,5.987,0,0,1,52.342,38H49V36h4.1a1,1,0,0,1,.98.8,4,4,0,0,0,3.12,3.12,1,1,0,0,1,.8.98Z"></path><path d="M14,55V35a3,3,0,0,1,3-3H50V7a3,3,0,0,0-3-3H11A3,3,0,0,0,8,7V57a3,3,0,0,0,3,3H47a3,3,0,0,0,2.816-2H17A3,3,0,0,1,14,55ZM45,28H23V26H45Zm0-10H35V16H45ZM31,12H45v2H31Zm-6,0h4v2H25Zm0,4h8v2H25Zm-7-3H16a3,3,0,0,1,0-6V6h2V7a3,3,0,0,1,3,3H19a1,1,0,0,0-1-1H16a1,1,0,0,0,0,2h2a3,3,0,0,1,0,6v1H16V17a3,3,0,0,1-3-3h2a1,1,0,0,0,1,1h2a1,1,0,0,0,0-2Zm-5,9H45v2H13Zm0,4h8v2H13Z"></path></g></svg>