<svg xmlns="http://www.w3.org/2000/svg" viewBox="0 0 64 64" x="0px" y="0px"><g><path d="M33,4.05V2H31V4.05A21.014,21.014,0,0,0,11,25a1,1,0,0,0,1,1H31v3.59L15.74,44.85a1,1,0,0,0-.3.71.976.976,0,0,0,.3.7l2.83,2.83a1,1,0,0,0,1.41,0L21,48.07V60a2.006,2.006,0,0,0,2,2H41a2.006,2.006,0,0,0,2-2V48.07l1.02,1.02a.982.982,0,0,0,.71.29.96.96,0,0,0,.7-.29l2.83-2.83a.976.976,0,0,0,.3-.7,1,1,0,0,0-.3-.71L43,39.59V32a1,1,0,0,0-1-1H38a1,1,0,0,0-1,1v1.59l-4-4V26H52a1,1,0,0,0,1-1A21.014,21.014,0,0,0,33,4.05ZM13.03,24A19.022,19.022,0,0,1,25.65,7.11c-3.26,3.51-5.44,9.66-5.62,16.89Zm9,0C22.3,14.78,26.2,7.05,31,6.1V24ZM34,60H30V54h4Zm7,0H36V53a1,1,0,0,0-1-1H29a1,1,0,0,0-1,1v7H23V46.07l9-9,9,9ZM39,33h2v4.59l-2-2Zm7.14,12.56-1.41,1.41L32.71,34.95a1.014,1.014,0,0,0-1.42,0L19.27,46.97l-1.41-1.41L32,31.41ZM33,24V6.1c4.8.95,8.7,8.68,8.97,17.9Zm10.97,0c-.18-7.23-2.36-13.38-5.62-16.89A19.022,19.022,0,0,1,50.97,24Z"></path><path d="M28,46a4,4,0,1,0,4-4A4,4,0,0,0,28,46Zm6,0a2,2,0,1,1-2-2A2,2,0,0,1,34,46Z"></path></g></svg>