<svg xmlns="http://www.w3.org/2000/svg" viewBox="0 0 64 64" x="0px" y="0px"><g><path d="M33,45.184V48H31V45.184a3,3,0,1,0,2,0Z"></path><rect x="31" y="4" width="2" height="2"></rect><path d="M22,9v1H42V9a1,1,0,0,0-1-1H23A1,1,0,0,0,22,9Z"></path><path d="M50,15a3.009,3.009,0,0,0-3-3H44v2h3a1,1,0,0,1,1,1v8a1,1,0,0,1-1,1H44v2h3a3.009,3.009,0,0,0,3-3Z"></path><polygon points="17 12 20 16 20 12 17 12"></polygon><path d="M43,47.36a9.036,9.036,0,0,0-.95-4.02L40.38,40H23.62l-1.67,3.34A9.036,9.036,0,0,0,21,47.36V56H43ZM24.929,42.343l1.414-1.414,1.414,1.414-1.414,1.414ZM32,53a5,5,0,1,1,5-5A5.006,5.006,0,0,1,32,53Zm5.657-9.243-1.414-1.414,1.414-1.414,1.414,1.414Z"></path><path d="M42,12H22V26.88L23.78,34H40.22L42,26.88ZM35,30H29V28h6Zm0-4H29V24h6Zm0-4H29V20h6Zm0-4H29V16h6Z"></path><rect x="19" y="58" width="26" height="2"></rect><rect x="25" y="36" width="14" height="2"></rect></g></svg>