<svg xmlns="http://www.w3.org/2000/svg" viewBox="0 0 64 64" x="0px" y="0px"><g><polygon points="24.877 54 39.123 54 38.323 52 25.677 52 24.877 54"></polygon><path d="M30,24v3a1,1,0,0,1-1,1V50h6V28a1,1,0,0,1-1-1V24Z"></path><rect x="37" y="28" width="4" height="22"></rect><rect x="36" y="24" width="6" height="2"></rect><path d="M16,24v3a1,1,0,0,1-1,1V46a1,1,0,0,1,1,1v3h5V28a1,1,0,0,1-1-1V24Z"></path><polygon points="23.523 52 6 52 6 54 22.723 54 23.523 52"></polygon><rect x="9" y="28" width="4" height="18"></rect><rect x="8" y="24" width="6" height="2"></rect><polygon points="4 60 20.323 60 21.923 56 4 56 4 60"></polygon><rect x="23" y="28" width="4" height="22"></rect><rect x="8" y="48" width="6" height="2"></rect><rect x="50" y="24" width="6" height="2"></rect><path d="M4,17.814V22H60V17.814L32,12.021ZM36,17a4,4,0,1,1-4-4A4,4,0,0,1,36,17Z"></path><rect x="22" y="24" width="6" height="2"></rect><rect x="50" y="48" width="6" height="2"></rect><polygon points="60 60 60 56 42.077 56 43.677 60 60 60"></polygon><circle cx="32" cy="17" r="2"></circle><polygon points="39.923 56 24.077 56 22.477 60 41.523 60 39.923 56"></polygon><polygon points="58 52 42 52 40.477 52 41.277 54 58 54 58 52"></polygon><path d="M44,24v3a1,1,0,0,1-1,1V50h5V47a1,1,0,0,1,1-1V28a1,1,0,0,1-1-1V24Z"></path><rect x="51" y="28" width="4" height="18"></rect><polygon points="13 6 12 6 11 6 11 14.14 13 14.14 13 10 18 10 16 8.14 18 6 13 6"></polygon><polygon points="50 8.14 52 6 47 6 46 6 45 6 45 12.9 47 12.9 47 10 52 10 50 8.14"></polygon><polygon points="33 3 32 3 31 3 31 10 33 10 33 7 38 7 36 5.14 38 3 33 3"></polygon></g></svg>