<svg xmlns="http://www.w3.org/2000/svg" viewBox="0 0 64 64" x="0px" y="0px"><g data-name="Search"><circle cx="29" cy="31" r="7"></circle><path d="M29,20a11,11,0,0,0,0,22,10.886,10.886,0,0,0,6.369-2.034,10.508,10.508,0,0,0,2.592-2.59A10.9,10.9,0,0,0,40,31,11.013,11.013,0,0,0,29,20Zm0,20a9,9,0,1,1,9-9A9.01,9.01,0,0,1,29,40Z"></path><path d="M46,7V37h7a4.973,4.973,0,0,1-1-3V7a3,3,0,0,0-6,0Z"></path><path d="M60,5a1,1,0,0,0-1-1H52.974A4.975,4.975,0,0,1,54,7V34a3,3,0,0,0,6,0Z"></path><path d="M38.2,40.2l-.007.007q-.351.349-.728.671L50.217,53.623a.993.993,0,0,0,1.4,0l.009-.008a.973.973,0,0,0,0-1.4L38.876,39.46Q38.551,39.843,38.2,40.2Z"></path><path d="M4,7V59a1,1,0,0,0,1,1H43a1,1,0,0,0,1-1V50.238l-8.181-8.176A12.874,12.874,0,0,1,29,44,13,13,0,1,1,42,31a12.87,12.87,0,0,1-1.938,6.818L44,41.759V7a4.948,4.948,0,0,1,1.026-3H7A3,3,0,0,0,4,7ZM40,48v2H14V48ZM14,8H40v2H14ZM8,8h4v2H8Zm0,6H40v2H8ZM8,48h4v2H8Zm0,6H40v2H8Z"></path></g></svg>