<svg xmlns="http://www.w3.org/2000/svg" viewBox="0 0 64 64" x="0px" y="0px"><title>Support-Headphone-Package-Call Center-Chat</title><g><path d="M31.293,48.293a1,1,0,0,1,1.414,0l.293.293V44H31v4.586Z"></path><rect x="35" y="44" width="5" height="2"></rect><polygon points="26.5 40 25 42 39 42 37.5 40 26.5 40"></polygon><rect x="24" y="44" width="5" height="2"></rect><path d="M24,58H40V48H35v3a1,1,0,0,1-1.707.707L32,50.414l-1.293,1.293A1,1,0,0,1,29,51V48H24Z"></path><path d="M60,46a3,3,0,0,0-3-3H56V55h1a3,3,0,0,0,3-3Z"></path><path d="M55.91,41H56V30a16.634,16.634,0,0,0-.137-2H53.852A15.2,15.2,0,0,1,54,30v7.54A6,6,0,0,1,55.91,41Z"></path><path d="M4,46v6a3,3,0,0,0,3,3H8V43H7A3,3,0,0,0,4,46Z"></path><path d="M54,42a4,4,0,0,0-8,0V56a4,4,0,0,0,8,0Z"></path><path d="M18,42a4,4,0,0,0-8,0V56a4,4,0,0,0,8,0Z"></path><path d="M28,15V13H25A17.019,17.019,0,0,0,8,30V41h.09A6,6,0,0,1,10,37.54V30A15.017,15.017,0,0,1,25,15Z"></path><path d="M44.2,26.4A1,1,0,0,1,45,26H57a3,3,0,0,0,3-3V7a3,3,0,0,0-3-3H33a3,3,0,0,0-3,3V23a3,3,0,0,0,3,3h6a1,1,0,0,1,1,1v5ZM46,22H44V20h2Zm4,0H48V20h2Zm6,0H52V20h4Zm0-8H54V12h2ZM42,8H56v2H42Zm10,4v2H50V12ZM38,8h2v2H38ZM34,8h2v2H34Zm0,4H48v2H34Zm0,4H56v2H34Zm0,6V20h8v2Z"></path></g></svg>