<svg xmlns="http://www.w3.org/2000/svg" viewBox="0 0 64 64" x="0px" y="0px"><g data-name="skyscraper-building-tower-city-real estate"><rect x="19" y="24" width="2" height="2"></rect><rect x="23" y="24" width="2" height="2"></rect><rect x="19" y="28" width="2" height="2"></rect><rect x="23" y="28" width="2" height="2"></rect><rect x="27" y="24" width="2" height="2"></rect><rect x="19" y="20" width="2" height="2"></rect><rect x="23" y="20" width="2" height="2"></rect><rect x="27" y="20" width="2" height="2"></rect><rect x="19" y="16" width="2" height="2"></rect><rect x="23" y="16" width="2" height="2"></rect><rect x="27" y="16" width="2" height="2"></rect><rect x="19" y="12" width="2" height="2"></rect><rect x="23" y="12" width="2" height="2"></rect><rect x="27" y="12" width="2" height="2"></rect><rect x="19" y="8" width="2" height="2"></rect><rect x="23" y="8" width="2" height="2"></rect><rect x="27" y="28" width="2" height="2"></rect><rect x="19" y="32" width="2" height="2"></rect><rect x="23" y="32" width="2" height="2"></rect><rect x="19" y="36" width="2" height="2"></rect><rect x="23" y="36" width="2" height="2"></rect><rect x="27" y="32" width="2" height="2"></rect><rect x="27" y="36" width="2" height="2"></rect><rect x="19" y="40" width="2" height="2"></rect><rect x="23" y="40" width="2" height="2"></rect><rect x="19" y="44" width="2" height="2"></rect><rect x="23" y="44" width="2" height="2"></rect><rect x="27" y="40" width="2" height="2"></rect><rect x="27" y="44" width="2" height="2"></rect><rect x="19" y="48" width="2" height="2"></rect><rect x="23" y="48" width="2" height="2"></rect><rect x="19" y="52" width="2" height="2"></rect><rect x="23" y="52" width="2" height="2"></rect><rect x="27" y="48" width="2" height="2"></rect><rect x="27" y="52" width="2" height="2"></rect><rect x="43" y="24" width="2" height="2"></rect><rect x="39" y="24" width="2" height="2"></rect><rect x="43" y="28" width="2" height="2"></rect><rect x="39" y="28" width="2" height="2"></rect><rect x="35" y="24" width="2" height="2"></rect><rect x="43" y="20" width="2" height="2"></rect><rect x="39" y="20" width="2" height="2"></rect><rect x="35" y="20" width="2" height="2"></rect><rect x="43" y="16" width="2" height="2"></rect><rect x="39" y="16" width="2" height="2"></rect><rect x="35" y="16" width="2" height="2"></rect><rect x="43" y="12" width="2" height="2"></rect><rect x="39" y="12" width="2" height="2"></rect><rect x="35" y="12" width="2" height="2"></rect><rect x="43" y="8" width="2" height="2"></rect><rect x="39" y="8" width="2" height="2"></rect><rect x="35" y="28" width="2" height="2"></rect><rect x="43" y="32" width="2" height="2"></rect><rect x="39" y="32" width="2" height="2"></rect><rect x="43" y="36" width="2" height="2"></rect><rect x="39" y="36" width="2" height="2"></rect><rect x="35" y="32" width="2" height="2"></rect><rect x="35" y="36" width="2" height="2"></rect><rect x="43" y="40" width="2" height="2"></rect><rect x="39" y="40" width="2" height="2"></rect><rect x="43" y="44" width="2" height="2"></rect><rect x="39" y="44" width="2" height="2"></rect><rect x="35" y="40" width="2" height="2"></rect><rect x="35" y="44" width="2" height="2"></rect><rect x="43" y="48" width="2" height="2"></rect><rect x="39" y="48" width="2" height="2"></rect><rect x="43" y="52" width="2" height="2"></rect><rect x="39" y="52" width="2" height="2"></rect><rect x="35" y="48" width="2" height="2"></rect><rect x="35" y="52" width="2" height="2"></rect><path d="M49,60V3a1,1,0,0,0-1-1H42a1,1,0,0,0-.51.14L32,7.83,22.51,2.14A1,1,0,0,0,22,2H16a1,1,0,0,0-1,1V60H11v2H53V60ZM27,60H21V58h6Zm4,0H29V57a1,1,0,0,0-1-1H20a1,1,0,0,0-1,1v3H17V4h4.72l6.67,4H27v2h2V8.37l2,1.2Zm12,0H37V58h6Zm4,0H45V57a1,1,0,0,0-1-1H36a1,1,0,0,0-1,1v3H33V9.57l2-1.2V10h2V8H35.61l6.67-4H47Z"></path></g></svg>