<svg xmlns="http://www.w3.org/2000/svg" viewBox="0 0 64 64" x="0px" y="0px"><g><path d="M11.414,56H52.586l-4-4H15.414ZM46,53h2v2H46Zm-4,0h2v2H42ZM24,53H40v2H24Zm-4,0h2v2H20Zm-4,0h2v2H16Z"></path><rect x="10" y="58" width="44" height="2"></rect><path d="M19,50H17V48a1,1,0,0,0-1-1H10a3,3,0,0,1,0-6h6a1,1,0,0,0,1-1V38h2v2a3,3,0,0,1-3,3H10a1,1,0,0,0,0,2h6a3,3,0,0,1,3,3Z"></path><path d="M38,30V20H26V30ZM28,22h8v2H28Zm0,4h8v2H28Z"></path><path d="M40,20v2h4V12H20V22h4V20H22V18H42v2Zm-4-4H34V14h2Zm4,0H38V14h2Z"></path><rect x="26" y="4" width="12" height="6"></rect><rect x="28" y="38" width="8" height="4"></rect><rect x="23" y="44" width="18" height="2"></rect><path d="M11,32v3a1,1,0,0,0,1,1H52a1,1,0,0,0,1-1V32Zm36,1h2v2H47ZM52,8H40v2h5a1,1,0,0,1,1,1V23a1,1,0,0,1-1,1H40v6H53V9A1,1,0,0,0,52,8ZM24,30V24H19a1,1,0,0,1-1-1V11a1,1,0,0,1,1-1h5V8H12a1,1,0,0,0-1,1V30Z"></path></g></svg>