<svg xmlns="http://www.w3.org/2000/svg" viewBox="0 0 64 64" x="0px" y="0px"><g data-name="Bell Boy-Avatar-Occupation-Man-Hotel"><circle cx="19" cy="19" r="2"></circle><circle cx="27" cy="19" r="2"></circle><path d="M26.307,25.75l-1.323-1.5a3.076,3.076,0,0,1-3.968,0l-1.323,1.5a5,5,0,0,0,6.614,0Z"></path><rect x="26" y="40" width="2" height="2"></rect><rect x="26" y="44" width="2" height="2"></rect><rect x="26" y="48" width="2" height="2"></rect><rect x="26" y="52" width="2" height="2"></rect><rect x="26" y="56" width="2" height="2"></rect><rect x="14" y="44" width="6" height="2"></rect><path d="M57,36V29a1,1,0,0,0-1-1H48a1,1,0,0,0-1,1v7a4.991,4.991,0,0,0-4.93,4.31,8.959,8.959,0,0,0-4.39-3.02L28,34.26V31.79A11.028,11.028,0,0,0,33.95,23H34a4,4,0,0,0,0-8V5a3.009,3.009,0,0,0-3-3H15a3.009,3.009,0,0,0-3,3V15a4,4,0,1,0,0,8h.05A11.028,11.028,0,0,0,18,31.79v2.47L8.32,37.29A8.959,8.959,0,0,0,2,45.88V61a1,1,0,0,0,1,1H43a1,1,0,0,0,1-1V56.97a4.972,4.972,0,0,0,1.32.72A2.913,2.913,0,0,0,45,59a3,3,0,1,0,5.82-1h2.36A3,3,0,1,0,59,59a2.913,2.913,0,0,0-.32-1.31A5,5,0,0,0,62,53V41A5,5,0,0,0,57,36ZM34,17a2.006,2.006,0,0,1,2,2,2.015,2.015,0,0,1-2,2ZM12,21a2.015,2.015,0,0,1-2-2,2.006,2.006,0,0,1,2-2ZM14,5a1,1,0,0,1,1-1H31a1,1,0,0,1,1,1v5H14Zm17.83,7A3.014,3.014,0,0,1,29,14H17a3.014,3.014,0,0,1-2.83-2ZM22,60H12V46H10V60H4V45.88A6.964,6.964,0,0,1,8.91,39.2l9.9-3.09L22,38.5Zm0-24-2-1.5V32.57a10.244,10.244,0,0,0,2,.38ZM14,22V14.97A4.924,4.924,0,0,0,17,16H29a4.924,4.924,0,0,0,3-1.03V22a9,9,0,0,1-18,0ZM26,32.57V34.5L24,36V32.95A10.244,10.244,0,0,0,26,32.57ZM42,60H36V46H34V60H24V38.5l3.19-2.39,9.9,3.09A6.964,6.964,0,0,1,42,45.88Zm7-30h6v2H49Zm0,4h6v2H49ZM48,60a1,1,0,1,1,1-1A1,1,0,0,1,48,60Zm8,0a1,1,0,1,1,1-1A1,1,0,0,1,56,60Zm4-7a3.009,3.009,0,0,1-3,3H47a3.009,3.009,0,0,1-3-3V41a3.009,3.009,0,0,1,3-3H57a3.009,3.009,0,0,1,3,3Z"></path><rect x="47" y="41" width="2" height="12"></rect><rect x="51" y="41" width="2" height="12"></rect><rect x="55" y="41" width="2" height="12"></rect></g></svg>