<svg xmlns="http://www.w3.org/2000/svg" viewBox="0 0 64 64" x="0px" y="0px"><g data-name="Meditation-Smartphone-Application-Mobile Phone-Technoligy"><path d="M24.9,42H27V40H25a1,1,0,0,1-.79-.38,1.022,1.022,0,0,1-.18-.86l1-4,1.94.48L26.28,38H28a4.994,4.994,0,0,1,4,2.03A4.994,4.994,0,0,1,36,38h1.72l-.69-2.76,1.94-.48,1,4a1.022,1.022,0,0,1-.18.86A1,1,0,0,1,39,40H37v2h2.1a2.527,2.527,0,0,0,2.12-1.13,3.014,3.014,0,0,0,.43-2.32l-1.11-5.01a2.991,2.991,0,0,0-2.1-2.23l-.2-.06A7.615,7.615,0,0,1,32,34a7.587,7.587,0,0,1-6.24-2.75l-.2.06a2.991,2.991,0,0,0-2.1,2.23l-1.12,5a3.018,3.018,0,0,0,.44,2.32A2.512,2.512,0,0,0,24.9,42Z"></path><path d="M35,42V40.18A3.035,3.035,0,0,0,33.18,42Z"></path><path d="M34.99,18.89A3,3,0,0,0,29,19v2.1a10.724,10.724,0,0,0,2.55-.99A11.622,11.622,0,0,1,34.99,18.89Z"></path><path d="M29.01,23.11A3,3,0,0,0,35,23V20.9a10.037,10.037,0,0,0-2.55,1A11.916,11.916,0,0,1,29.01,23.11Z"></path><path d="M50,54H14v2a4,4,0,0,0,4,4H46a4,4,0,0,0,4-4ZM33,58H31V56h2Z"></path><path d="M29,42h1.82A3.035,3.035,0,0,0,29,40.18Z"></path><path d="M36.12,30.65l-2.39-.69A1,1,0,0,1,33,29V27.9a5.05,5.05,0,0,1-2,0V29a1,1,0,0,1-.73.96l-2.39.69A6.416,6.416,0,0,0,32,32,6.416,6.416,0,0,0,36.12,30.65Z"></path><path d="M41,44H21a2,2,0,0,0-.08,4L41,44.17Z"></path><path d="M50,12H14V52H50ZM43,50H21a4,4,0,0,1,0-8h.13a.022.022,0,0,0-.02-.02,5.092,5.092,0,0,1-.72-3.87l1.12-5a5,5,0,0,1,3.5-3.73L29,28.25V26.97a4.962,4.962,0,0,1-1.9-2.98c-.03,0-.07.01-.1.01a2,2,0,0,1,0-4V19a5,5,0,0,1,10,0v1a2,2,0,0,1,0,4c-.03,0-.07-.01-.1-.01A4.962,4.962,0,0,1,35,26.97v1.28l3.99,1.13a5.02,5.02,0,0,1,3.5,3.73l1.12,5.01a5.021,5.021,0,0,1-.73,3.86.035.035,0,0,0-.01.02H43a4,4,0,0,1,0,8Z"></path><path d="M50,8a4,4,0,0,0-4-4H18a4,4,0,0,0-4,4v2H50ZM27,8H25V6h2Zm8,0H29V6h6Z"></path><path d="M43,44v1a1,1,0,0,1-.81.98L31.59,48H43a2,2,0,0,0,0-4Z"></path></g></svg>