<svg xmlns="http://www.w3.org/2000/svg" viewBox="0 0 64 64" x="0px" y="0px"><title>Dressing Table</title><g data-name="Dressing Table"><path d="M22,33H42V5H22ZM24,7H40V31H24Z"></path><path d="M51,34H45V5a3,3,0,0,0-3-3H22a3,3,0,0,0-3,3V34H13V56h2v6h6V56H43v6h6V56h2ZM21,5a1,1,0,0,1,1-1H42a1,1,0,0,1,1,1V34H21ZM49,36v6H15V36ZM19,60H17V56h2Zm28,0H45V56h2ZM15,54V44H49V54Z"></path><rect x="29" y="38" width="6" height="2"></rect><rect x="36" y="9" width="2" height="2"></rect><rect x="33" y="9" width="2" height="2"></rect><rect x="36" y="12" width="2" height="2"></rect></g></svg>