<svg xmlns="http://www.w3.org/2000/svg" viewBox="0 0 64 64" x="0px" y="0px"><title>Check List</title><g data-name="Check List"><path d="M32,52H9a5.006,5.006,0,0,1-5-5V4H40V33a1,1,0,0,0,2,0V10h3V31a1,1,0,0,0,2,0V10h3V31a1,1,0,0,0,2,0V9a1,1,0,0,0-1-1H42V3a1,1,0,0,0-1-1H3A1,1,0,0,0,2,3V47a7.008,7.008,0,0,0,7,7H32a1,1,0,0,0,0-2Z"></path><path d="M61,44H59.307a11.881,11.881,0,0,0-.482-1.168l1.2-1.2a1,1,0,0,0,0-1.414l-4.243-4.243a1,1,0,0,0-1.414,0l-1.2,1.2A11.881,11.881,0,0,0,52,36.693V35a1,1,0,0,0-1-1H45a1,1,0,0,0-1,1v1.693a11.881,11.881,0,0,0-1.168.482l-1.2-1.2a1,1,0,0,0-1.414,0l-4.243,4.243a1,1,0,0,0,0,1.414l1.2,1.2A11.881,11.881,0,0,0,36.693,44H35a1,1,0,0,0-1,1v6a1,1,0,0,0,1,1h1.693a11.881,11.881,0,0,0,.482,1.168l-1.2,1.2a1,1,0,0,0,0,1.414l4.243,4.243a1,1,0,0,0,1.414,0l1.2-1.2A11.881,11.881,0,0,0,44,59.307V61a1,1,0,0,0,1,1h6a1,1,0,0,0,1-1V59.307a11.881,11.881,0,0,0,1.168-.482l1.2,1.2a1,1,0,0,0,1.414,0l4.243-4.243a1,1,0,0,0,0-1.414l-1.2-1.2A11.881,11.881,0,0,0,59.307,52H61a1,1,0,0,0,1-1V45A1,1,0,0,0,61,44Zm-1,6H58.575a1,1,0,0,0-.962.727,9.968,9.968,0,0,1-.884,2.145,1,1,0,0,0,.166,1.194l1,1L55.071,57.9l-1-1a1,1,0,0,0-1.194-.166,9.968,9.968,0,0,1-2.145.884,1,1,0,0,0-.727.962V60H46V58.575a1,1,0,0,0-.727-.962,9.968,9.968,0,0,1-2.145-.884,1,1,0,0,0-1.194.166l-1,1L38.1,55.071l1-1a1,1,0,0,0,.166-1.194,9.968,9.968,0,0,1-.884-2.145A1,1,0,0,0,37.425,50H36V46h1.425a1,1,0,0,0,.962-.727,9.968,9.968,0,0,1,.884-2.145,1,1,0,0,0-.166-1.194l-1-1L40.929,38.1l1,1a1,1,0,0,0,1.194.166,9.968,9.968,0,0,1,2.145-.884A1,1,0,0,0,46,37.425V36h4v1.425a1,1,0,0,0,.727.962,9.968,9.968,0,0,1,2.145.884,1,1,0,0,0,1.194-.166l1-1L57.9,40.929l-1,1a1,1,0,0,0-.166,1.194,9.968,9.968,0,0,1,.884,2.145,1,1,0,0,0,.962.727H60Z"></path><path d="M48,41a7,7,0,1,0,7,7A7.008,7.008,0,0,0,48,41Zm0,12a5,5,0,1,1,5-5A5.006,5.006,0,0,1,48,53Z"></path><path d="M35,8H23a1,1,0,0,0,0,2H35a1,1,0,0,0,0-2Z"></path><path d="M35,14H23a1,1,0,0,0,0,2H35a1,1,0,0,0,0-2Z"></path><path d="M35,22H23a1,1,0,0,0,0,2H35a1,1,0,0,0,0-2Z"></path><path d="M35,28H23a1,1,0,0,0,0,2H35a1,1,0,0,0,0-2Z"></path><path d="M33,36H23a1,1,0,0,0,0,2H33a1,1,0,0,0,0-2Z"></path><path d="M31,44a1,1,0,0,0,0-2H23a1,1,0,0,0,0,2Z"></path><path d="M19.707,8.293a1,1,0,0,0-1.414,0l-.363.363A.993.993,0,0,0,17,8H9A1,1,0,0,0,8,9v8a1,1,0,0,0,1,1h8a1,1,0,0,0,1-1V11.414l1.707-1.707A1,1,0,0,0,19.707,8.293ZM16,16H10V10h6v.586l-2,2-1.293-1.293a1,1,0,0,0-1.414,1.414l2,2a1,1,0,0,0,1.414,0L16,13.414Z"></path><path d="M19.707,22.293a1,1,0,0,0-1.414,0l-.363.363A.993.993,0,0,0,17,22H9a1,1,0,0,0-1,1v8a1,1,0,0,0,1,1h8a1,1,0,0,0,1-1V25.414l1.707-1.707A1,1,0,0,0,19.707,22.293ZM16,30H10V24h6v.586l-2,2-1.293-1.293a1,1,0,0,0-1.414,1.414l2,2a1,1,0,0,0,1.414,0L16,27.414Z"></path><path d="M18.293,36.293l-.363.363A.993.993,0,0,0,17,36H9a1,1,0,0,0-1,1v8a1,1,0,0,0,1,1h8a1,1,0,0,0,1-1V39.414l1.707-1.707a1,1,0,0,0-1.414-1.414ZM16,44H10V38h6v.586l-2,2-1.293-1.293a1,1,0,0,0-1.414,1.414l2,2a1,1,0,0,0,1.414,0L16,41.414Z"></path></g></svg>