<svg xmlns="http://www.w3.org/2000/svg" viewBox="0 0 64 64" x="0px" y="0px"><g><path d="M61,46H59V13a5.006,5.006,0,0,0-5-5H10a5.006,5.006,0,0,0-5,5V46H3a1,1,0,0,0-1,1v4a3,3,0,0,0,3,3H59a3,3,0,0,0,3-3V47A1,1,0,0,0,61,46ZM10,10H54a3,3,0,0,1,3,3v3H7V13A3,3,0,0,1,10,10ZM7,18H57V46H48.23c.056-.181.116-.361.166-.543l3.728-.465A1,1,0,0,0,53,44V38a1,1,0,0,0-.876-.992L48.4,36.543a16.571,16.571,0,0,0-1.655-3.981l2.308-2.968a1,1,0,0,0-.082-1.321l-4.24-4.24a1,1,0,0,0-1.321-.082l-2.968,2.308A16.571,16.571,0,0,0,36.457,24.6l-.465-3.728A1,1,0,0,0,35,20H29a1,1,0,0,0-.992.876L27.543,24.6a16.571,16.571,0,0,0-3.981,1.655l-2.968-2.308a1,1,0,0,0-1.321.082l-4.24,4.24a1,1,0,0,0-.082,1.321l2.308,2.968A16.571,16.571,0,0,0,15.6,36.543l-3.728.465A1,1,0,0,0,11,38v6a1,1,0,0,0,.876.992l3.728.465c.05.182.11.362.166.543H7ZM28,48h8v1H28Zm-5.781-2a10.933,10.933,0,0,1-1.154-4H22V40h-.949a10.9,10.9,0,0,1,.973-3.6l.816.471,1-1.732-.816-.471a11.1,11.1,0,0,1,2.639-2.639l.471.816,1.732-1-.471-.816A10.9,10.9,0,0,1,31,30.051V31h2v-.949a10.9,10.9,0,0,1,3.6.973l-.471.816,1.732,1,.471-.816a11.1,11.1,0,0,1,2.639,2.639l-.816.471,1,1.732.816-.471a10.9,10.9,0,0,1,.973,3.6H42v2h.935a10.933,10.933,0,0,1-1.154,4ZM32,28A13.012,13.012,0,0,0,19.994,46H17.882a14.285,14.285,0,0,1-.5-1.668,1,1,0,0,0-.852-.774L13,43.117V38.883l3.534-.441a1,1,0,0,0,.852-.774,14.615,14.615,0,0,1,1.929-4.643,1,1,0,0,0-.055-1.149l-2.188-2.813,2.991-2.991,2.813,2.188a1,1,0,0,0,1.149.055,14.615,14.615,0,0,1,4.643-1.929,1,1,0,0,0,.774-.852L29.883,22h4.234l.441,3.534a1,1,0,0,0,.774.852,14.615,14.615,0,0,1,4.643,1.929,1,1,0,0,0,1.149-.055l2.813-2.188,2.991,2.991L44.74,31.876a1,1,0,0,0-.055,1.149,14.615,14.615,0,0,1,1.929,4.643,1,1,0,0,0,.852.774L51,38.883v4.234l-3.534.441a1,1,0,0,0-.852.774,14.285,14.285,0,0,1-.5,1.668H44.006A13.012,13.012,0,0,0,32,28ZM60,51a1,1,0,0,1-1,1H5a1,1,0,0,1-1-1V48H26v1a2,2,0,0,0,2,2h8a2,2,0,0,0,2-2V48H60Z"></path><rect x="11" y="12" width="2" height="2"></rect><rect x="15" y="12" width="2" height="2"></rect><rect x="19" y="12" width="2" height="2"></rect><path d="M36.293,35.293,33.285,38.3A2.951,2.951,0,0,0,32,38a3,3,0,1,0,3,3,2.951,2.951,0,0,0-.3-1.285l3.008-3.008ZM32,42a1,1,0,1,1,1-1A1,1,0,0,1,32,42Z"></path><path d="M32,33a8.009,8.009,0,0,0-8,8h2a6.006,6.006,0,0,1,6-6Z"></path></g></svg>