<svg xmlns="http://www.w3.org/2000/svg" viewBox="0 0 64 64" x="0px" y="0px"><g data-name="Business-Woman-Avatar-Long-Hair"><path d="M43,30.063V13A10.993,10.993,0,0,0,21.764,9H20v2h1.191A10.989,10.989,0,0,0,21,13V30.063A12.992,12.992,0,0,0,15,41V61a1,1,0,0,0,1,1H48a1,1,0,0,0,1-1V41A12.992,12.992,0,0,0,43,30.063ZM41,29a12.9,12.9,0,0,0-4-.952V25.188A6,6,0,0,0,40,20V8.9A8.93,8.93,0,0,1,41,13ZM26,11h7a7.961,7.961,0,0,0,5-1.751V20a4,4,0,0,1-4,4H30a4,4,0,0,1-4-4Zm4,15h4a6,6,0,0,0,1-.09v2.74L32,32.4,29,28.65V25.91A6,6,0,0,0,30,26Zm-1.927,4.692,2.5,3.127-2.131,1.6-1.32-3.3ZM32,35.25l2.763,2.072L32,43.538l-2.763-6.216Zm3.556.167-2.131-1.6,2.5-3.127.949,1.425ZM32,4a8.956,8.956,0,0,1,6,2.31A5.943,5.943,0,0,1,33,9H23.95A9,9,0,0,1,32,4Zm-9,9a8.971,8.971,0,0,1,.232-2H24v9a6,6,0,0,0,3,5.188v2.863A12.9,12.9,0,0,0,23,29ZM47,60H43V50.447a8.417,8.417,0,0,0,0-10.894V38H41v2a1,1,0,0,0,.4.8c.9.679,1.6,2.815,1.6,4.2s-.7,3.522-1.6,4.2a1,1,0,0,0-.4.8V60H23V50a1,1,0,0,0-.4-.8c-.9-.679-1.6-2.815-1.6-4.2s.7-3.522,1.6-4.2A1,1,0,0,0,23,40V38H21v1.553a8.417,8.417,0,0,0,0,10.894V60H17V41a10.986,10.986,0,0,1,4-8.479V34h2V31.214a10.89,10.89,0,0,1,3-1.024l-.837,1.255a1,1,0,0,0-.1.927l6.015,14.034a1,1,0,0,0,1.828,0l6.015-14.034a1,1,0,0,0-.1-.927l-.837-1.255A10.89,10.89,0,0,1,41,31.214V34h2V32.521A10.986,10.986,0,0,1,47,41Z"></path><path d="M34.62,14.92A1,1,0,0,0,35,15a.99.99,0,0,0,1-1,1,1,0,0,0-.08-.38,1.032,1.032,0,0,0-.21-.33,1.047,1.047,0,0,0-1.42,0,1.032,1.032,0,0,0-.21.33A1,1,0,0,0,34,14a1.052,1.052,0,0,0,.29.71A1.032,1.032,0,0,0,34.62,14.92Z"></path><path d="M29,15a.99.99,0,0,0,1-1,1,1,0,0,0-.08-.38,1.032,1.032,0,0,0-.21-.33,1.047,1.047,0,0,0-1.42,0,1.032,1.032,0,0,0-.21.33A1,1,0,0,0,28,14a.99.99,0,0,0,1,1Z"></path></g></svg>