<svg xmlns="http://www.w3.org/2000/svg" viewBox="0 0 64 64" x="0px" y="0px"><title>Glove-Construction</title><g><path d="M53.16,26.379,51.284,25.7A4.988,4.988,0,0,0,44.9,28.615L43,32.79V13a5,5,0,0,0-8-4V7A5,5,0,0,0,25,7v5a5,5,0,0,0-8,4v8a5,5,0,0,0-8,4V49a1,1,0,0,0,.105.447L12,55.236V61a1,1,0,0,0,1,1H47a1,1,0,0,0,1-1V55.176l8.149-22.384v0A5.027,5.027,0,0,0,53.16,26.379ZM46,60H14V56H46Zm8.27-27.891L46.3,54H13.618L11,48.764V28a3,3,0,1,1,6,0v8a1,1,0,0,0,2,0V16a3,3,0,1,1,6,0V32a1,1,0,0,0,2,0V7a3,3,0,1,1,6,0V29a1,1,0,0,0,2,0V13a3,3,0,1,1,6,0V37.49a1,1,0,0,0,1.938.344l3.811-8.46A3.007,3.007,0,0,1,50.6,27.581l1.875.677A3.023,3.023,0,0,1,54.27,32.109Z"></path></g></svg>