<svg xmlns="http://www.w3.org/2000/svg" viewBox="0 0 64 64" x="0px" y="0px"><g><path d="M44.021,48.263l4.243-4.242a1,1,0,0,0,.092-1.308l-2.61-3.48a.982.982,0,0,1-.108-1q.219-.488.409-.994a.988.988,0,0,1,.786-.633l4.309-.615A1,1,0,0,0,52,35V29a1,1,0,0,0-.858-.99L46.833,27.4a.987.987,0,0,1-.786-.634q-.189-.506-.41-1a.982.982,0,0,1,.109-1l2.61-3.48a1,1,0,0,0-.092-1.308l-4.243-4.242a1,1,0,0,0-1.307-.093l-3.48,2.609a.99.99,0,0,1-1,.11c-.325-.148-.658-.284-.995-.409a.987.987,0,0,1-.633-.787l-.615-4.309A1,1,0,0,0,35,12H29a1,1,0,0,0-.99.858L27.4,17.167a.989.989,0,0,1-.633.787q-.507.188-1,.409a.986.986,0,0,1-1-.109l-3.48-2.61a1,1,0,0,0-1.308.093l-4.242,4.242a1,1,0,0,0-.093,1.308l2.609,3.48a.981.981,0,0,1,.11,1q-.222.489-.409,1a.989.989,0,0,1-.787.633l-4.309.615A1,1,0,0,0,12,29v6a1,1,0,0,0,.858.99l4.309.615a.989.989,0,0,1,.787.633q.188.507.409.995a.983.983,0,0,1-.109,1l-2.61,3.48a1,1,0,0,0,.093,1.308l4.242,4.242a1,1,0,0,0,1.308.093l3.48-2.609a.981.981,0,0,1,1-.11q.489.222,1,.409a.989.989,0,0,1,.633.787l.615,4.309A1,1,0,0,0,29,52h6a1,1,0,0,0,.99-.858l.615-4.309a.987.987,0,0,1,.633-.787c.337-.125.67-.261,1-.409a.987.987,0,0,1,1,.109l3.48,2.61A1,1,0,0,0,44.021,48.263Zm-6.616-4.447q-.423.194-.862.355a2.987,2.987,0,0,0-1.918,2.379L34.133,50H29.867l-.493-3.45a2.985,2.985,0,0,0-1.917-2.379c-.292-.108-.58-.226-.861-.355a2.99,2.99,0,0,0-3.03.33l-2.786,2.09L17.764,43.22l2.09-2.786a2.986,2.986,0,0,0,.33-3.029q-.194-.423-.355-.862a2.985,2.985,0,0,0-2.379-1.917L14,34.133V29.867l3.45-.493a2.985,2.985,0,0,0,2.379-1.917c.108-.292.226-.58.355-.861a2.988,2.988,0,0,0-.33-3.03l-2.09-2.786,3.016-3.016,2.786,2.09a2.988,2.988,0,0,0,3.029.33q.423-.194.862-.355a2.985,2.985,0,0,0,1.917-2.379L29.867,14h4.266l.492,3.451a2.987,2.987,0,0,0,1.918,2.378c.292.108.58.226.861.355a2.991,2.991,0,0,0,3.03-.33l2.786-2.09,3.016,3.016-2.09,2.786a2.985,2.985,0,0,0-.331,3.028q.194.424.357.863a2.981,2.981,0,0,0,2.378,1.917l3.45.493v4.266l-3.45.493a2.981,2.981,0,0,0-2.378,1.916q-.163.439-.356.862a2.985,2.985,0,0,0,.33,3.03l2.09,2.786L43.22,46.236l-2.786-2.09A2.992,2.992,0,0,0,37.405,43.816Z"></path><path d="M54,10a3,3,0,1,0-3-3A3,3,0,0,0,54,10Zm0-4a1,1,0,1,1-1,1A1,1,0,0,1,54,6Z"></path><path d="M56,23a3,3,0,1,0,3-3A3,3,0,0,0,56,23Zm3-1a1,1,0,1,1-1,1A1,1,0,0,1,59,22Z"></path><path d="M45.414,8H49V6H45a1,1,0,0,0-.707.293l-4,4,1.414,1.414Z"></path><rect x="50" y="22" width="4" height="2"></rect><path d="M10,10A3,3,0,1,0,7,7,3,3,0,0,0,10,10Zm0-4A1,1,0,1,1,9,7,1,1,0,0,1,10,6Z"></path><path d="M5,26a3,3,0,1,0-3-3A3,3,0,0,0,5,26Zm0-4a1,1,0,1,1-1,1A1,1,0,0,1,5,22Z"></path><path d="M22.293,11.707l1.414-1.414-4-4A1,1,0,0,0,19,6H15V8h3.586Z"></path><rect x="10" y="22" width="4" height="2"></rect><path d="M54,54a3,3,0,1,0,3,3A3,3,0,0,0,54,54Zm0,4a1,1,0,1,1,1-1A1,1,0,0,1,54,58Z"></path><path d="M59,38a3,3,0,1,0,3,3A3,3,0,0,0,59,38Zm0,4a1,1,0,1,1,1-1A1,1,0,0,1,59,42Z"></path><path d="M41.707,52.293l-1.414,1.414,4,4A1,1,0,0,0,45,58h4V56H45.414Z"></path><rect x="50" y="40" width="4" height="2"></rect><path d="M10,54a3,3,0,1,0,3,3A3,3,0,0,0,10,54Zm0,4a1,1,0,1,1,1-1A1,1,0,0,1,10,58Z"></path><path d="M8,41a3,3,0,1,0-3,3A3,3,0,0,0,8,41ZM5,42a1,1,0,1,1,1-1A1,1,0,0,1,5,42Z"></path><path d="M18.586,56H15v2h4a1,1,0,0,0,.707-.293l4-4-1.414-1.414Z"></path><rect x="10" y="40" width="4" height="2"></rect><rect x="31" y="16" width="2" height="4"></rect><rect x="21.101" y="20.101" width="2" height="4" transform="translate(-9.154 22.101) rotate(-45)"></rect><rect x="16" y="31" width="4" height="2"></rect><rect x="20.101" y="40.9" width="4" height="2" transform="translate(-23.154 27.9) rotate(-45)"></rect><rect x="31" y="44" width="2" height="4"></rect><rect x="40.9" y="39.9" width="2" height="4" transform="translate(-17.355 41.899) rotate(-45)"></rect><rect x="44" y="31" width="4" height="2"></rect><rect x="39.9" y="21.101" width="4" height="2" transform="translate(-3.355 36.1) rotate(-45)"></rect><path d="M40,30a3,3,0,0,0-3-3H36V24H34v3H30V24H28v3H27a3,3,0,0,0-3,3v6a3,3,0,0,0,3,3H37a3,3,0,0,0,3-3Zm-6,7H30V36h4Zm4-1a1,1,0,0,1-1,1H36V35a1,1,0,0,0-1-1H29a1,1,0,0,0-1,1v2H27a1,1,0,0,1-1-1V30a1,1,0,0,1,1-1H37a1,1,0,0,1,1,1Z"></path><rect x="28" y="31" width="2" height="2"></rect><rect x="34" y="31" width="2" height="2"></rect></g></svg>