<svg xmlns="http://www.w3.org/2000/svg" viewBox="0 0 64 64" x="0px" y="0px"><g><path d="M16.9,17H53v2H48v2h5a3,3,0,0,0,0-6H15.97A4.84,4.84,0,0,1,16.9,17Z"></path><path d="M24,39h1.941a8.956,8.956,0,0,0-1.916-4.611l-1.368,1.368-1.414-1.414,1.368-1.368A8.956,8.956,0,0,0,18,31.059V33H16V31.059a8.956,8.956,0,0,0-4.611,1.916l1.368,1.368-1.414,1.414L9.975,34.389A8.956,8.956,0,0,0,8.059,39H10v2H8.059a8.956,8.956,0,0,0,1.916,4.611l1.368-1.368,1.414,1.414-1.368,1.368A8.956,8.956,0,0,0,16,48.941V47h2v1.941a8.956,8.956,0,0,0,4.611-1.916l-1.368-1.368,1.414-1.414,1.368,1.368A8.956,8.956,0,0,0,25.941,41H24Zm-6,1a1,1,0,0,1-.293.707l-2,2-1.414-1.414L16,39.586V35h2Z"></path><path d="M58,18a5,5,0,0,1-5,5H52v2h1a7,7,0,1,0,0-14H52v2h1A5,5,0,0,1,58,18Z"></path><path d="M17,27A13,13,0,1,0,30,40,13.012,13.012,0,0,0,17,27Zm0,24A11,11,0,1,1,28,40,11.013,11.013,0,0,1,17,51Z"></path><path d="M55.13,36.12A3.005,3.005,0,0,0,53,31H28.97a15.5,15.5,0,0,1,1.29,2H53v2H31.12a13.506,13.506,0,0,1,.58,2H53A3.013,3.013,0,0,0,55.13,36.12Z"></path><path d="M57.95,29.04A7.026,7.026,0,0,0,53,27H52v2h1a5,5,0,0,1,0,10H52v2h1a7.007,7.007,0,0,0,4.95-11.96Z"></path><path d="M50,41V39H31.95c.02.33.05.66.05,1s-.03.67-.05,1Z"></path><polygon points="43.41 29 44.59 29 44 28.41 43.41 29"></polygon><path d="M40,29V27H24.45a14.823,14.823,0,0,1,2.71,2Z"></path><rect x="48" y="23" width="2" height="2"></rect><rect x="12" y="11" width="38" height="2"></rect><path d="M40,19H16.9a4.84,4.84,0,0,1-.93,2H40Z"></path><rect x="12" y="23" width="28" height="2"></rect><rect x="48" y="27" width="2" height="2"></rect><path d="M46,27.59V19H42v8.59l1.29-1.3a1.014,1.014,0,0,1,1.42,0Z"></path></g></svg>