<svg xmlns="http://www.w3.org/2000/svg" viewBox="0 0 64 64" x="0px" y="0px"><g><path d="M50,60c5.72,0,10-2.11,10-4V52.41C57.89,53.99,54.27,55,50,55s-7.89-1.01-10-2.59V56C40,57.89,44.28,60,50,60Zm-5-4h2v2H45Zm-4-1h2v2H41Z"></path><path d="M50,53c5.72,0,10-2.11,10-4V45.41C57.89,46.99,54.27,48,50,48s-7.89-1.01-10-2.59V49C40,50.89,44.28,53,50,53Zm-5-4h2v2H45Zm-4-1h2v2H41Z"></path><path d="M50,38c-5.72,0-10,2.11-10,4s4.28,4,10,4,10-2.11,10-4S55.72,38,50,38Zm6,5H44V41H56Z"></path><path d="M50,19c5.72,0,10-2.11,10-4V11.41C57.89,12.99,54.27,14,50,14s-7.89-1.01-10-2.59V15C40,16.89,44.28,19,50,19Zm-5-4h2v2H45Zm-4-1h2v2H41Z"></path><path d="M50,26c5.72,0,10-2.11,10-4V18.41C57.89,19.99,54.27,21,50,21s-7.89-1.01-10-2.59V22C40,23.89,44.28,26,50,26Zm-5-4h2v2H45Zm-4-1h2v2H41Z"></path><path d="M50,4C44.28,4,40,6.11,40,8s4.28,4,10,4S60,9.89,60,8,55.72,4,50,4Zm6,5H44V7H56Z"></path><path d="M6,26H8V21a5,5,0,0,1,10,0v5h2V21A7,7,0,0,0,6,21Z"></path><path d="M4,29V41a1,1,0,0,0,1,1H21a1,1,0,0,0,1-1V29a1,1,0,0,0-1-1H5A1,1,0,0,0,4,29Zm9,3a1.994,1.994,0,0,1,1,3.722V38H12V35.722A1.994,1.994,0,0,1,13,32Z"></path><path d="M36,17V15H31a1,1,0,0,0-1,1V29.184A3,3,0,0,0,28.184,31H26v2h2.184A3,3,0,0,0,30,34.816V48a1,1,0,0,0,1,1h5V47H32V34.816a2.982,2.982,0,0,0,0-5.632V17Z"></path></g></svg>