<svg xmlns="http://www.w3.org/2000/svg" viewBox="0 0 64 64" x="0px" y="0px"><g data-name="Ghost"><path d="M36.017,27.366,35.9,29.743,37.2,28.42A8.335,8.335,0,0,0,36.017,27.366Z"></path><path d="M27.983,27.366A8.335,8.335,0,0,0,26.8,28.42L28.1,29.743Z"></path><path d="M40.865,21.57a4.008,4.008,0,0,0,2.965-3.9l-7.483,2A4.008,4.008,0,0,0,40.865,21.57Z"></path><path d="M24,36c0,5.514,3.589,10,8,10s8-4.486,8-10a11.65,11.65,0,0,0-1.589-5.956l-2.93,2.969a1,1,0,0,1-.711.3,1.015,1.015,0,0,1-.4-.084,1,1,0,0,1-.6-.966l.294-5.91a6.267,6.267,0,0,0-4.13,0l.294,5.91a1,1,0,0,1-.6.966,1.015,1.015,0,0,1-.4.084,1,1,0,0,1-.711-.3l-2.93-2.969A11.65,11.65,0,0,0,24,36Z"></path><path d="M47.473,60a1,1,0,0,0,.974-1.222C47.558,54.921,46.057,48,46,45.019c-.066-3.5.807-8.809,1.65-13.939.615-3.733,1.2-7.259,1.352-9.737.543-8.576-6.534-16.488-15.454-17.275Q32.786,4,32.023,4A17.938,17.938,0,0,0,19.441,9.169,14.625,14.625,0,0,0,15,20.912c.2,2.267.711,5.425,1.253,8.768.875,5.4,1.867,11.521,1.751,15.351-.091,2.974-1.578,9.891-2.457,13.75A1,1,0,0,0,16.52,60ZM34.134,18.5a1,1,0,0,1,.607-.466L44.4,15.446a1,1,0,0,1,1.225.707,6,6,0,1,1-11.591,3.106A1,1,0,0,1,34.134,18.5ZM42,36c0,6.617-4.486,12-10,12S22,42.617,22,36s4.486-12,10-12S42,29.383,42,36ZM18.375,16.153a1,1,0,0,1,1.225-.707l9.659,2.588a1,1,0,0,1,.707,1.225,6,6,0,0,1-11.591-3.106Z"></path><path d="M23.135,21.57a4.008,4.008,0,0,0,4.518-1.9l-7.483-2A4.008,4.008,0,0,0,23.135,21.57Z"></path></g></svg>