<svg xmlns="http://www.w3.org/2000/svg" viewBox="0 0 64 64" x="0px" y="0px"><g><rect x="10" y="47" width="2" height="2"></rect><rect x="14" y="47" width="10" height="2"></rect><path d="M47,29A13,13,0,1,0,60,42,13.015,13.015,0,0,0,47,29Zm7.778,9.464-9.9,9.9a.985.985,0,0,1-.391.241L40.245,50.02a.986.986,0,0,1-.316.051,1,1,0,0,1-.949-1.316L40.4,44.512a.966.966,0,0,1,.241-.39l9.9-9.9a3,3,0,1,1,4.243,4.242Z"></path><polygon points="42.217 45.369 41.51 47.49 43.632 46.783 51.243 39.172 49.828 37.757 42.217 45.369"></polygon><path d="M4,12.371,25.836,22.853a4.985,4.985,0,0,0,4.328,0L52,12.371V10a1,1,0,0,0-1-1H5a1,1,0,0,0-1,1Z"></path><path d="M51.949,35.636l-.707.707,1.415,1.414.707-.707a1,1,0,0,0-1.415-1.414Z"></path><path d="M5,41H32.051A14.941,14.941,0,0,1,52,27.875V14.589L31.029,24.655a6.966,6.966,0,0,1-6.058,0L4,14.589V40A1,1,0,0,0,5,41ZM6,30H8v2H6Zm0,4H8v2a1,1,0,0,0,1,1h2v2H9a3,3,0,0,1-3-3Z"></path></g></svg>