<svg xmlns="http://www.w3.org/2000/svg" viewBox="0 0 64 64" x="0px" y="0px"><title>Bus-Transportation-Bus-Delivery-Public Transport</title><g><rect x="48" y="34" width="4" height="2"></rect><rect x="14" y="46" width="2" height="2"></rect><rect x="48" y="46" width="2" height="2"></rect><path d="M61.9,30.553,56,18.764A4.974,4.974,0,0,0,51.528,16H5a3,3,0,0,0-3,3V45a3,3,0,0,0,3,3H8.08a6.991,6.991,0,0,0,13.84,0H42.08a6.991,6.991,0,0,0,13.84,0H59a3,3,0,0,0,3-3V31A1,1,0,0,0,61.9,30.553ZM54.211,19.658,59.382,30H46V18h5.528A2.986,2.986,0,0,1,54.211,19.658ZM44,42.111A6.977,6.977,0,0,0,42.08,46H36V22h8Zm-24,0V32H34V46H21.92A6.974,6.974,0,0,0,20,42.111ZM4,30V22h6v8Zm8-8h6v8H12Zm8,0h6v8H20Zm14,8H28V22h6ZM5,18H44v2H4V19A1,1,0,0,1,5,18ZM4,36H5v2H4Zm0,9V44H7V42H4V40H5a2,2,0,0,0,2-2V36a2,2,0,0,0-2-2H4V32H18v8.685A6.974,6.974,0,0,0,8.08,46H5A1,1,0,0,1,4,45Zm11,7a5,5,0,1,1,5-5A5.006,5.006,0,0,1,15,52Zm34,0a5,5,0,1,1,5-5A5.006,5.006,0,0,1,49,52Zm10-6H55.92A6.974,6.974,0,0,0,46,40.685V32H60v2H57a3,3,0,0,0,0,6h3v2H57v2h3v1A1,1,0,0,1,59,46Zm1-10v2H57a1,1,0,0,1,0-2Z"></path></g></svg>