<svg xmlns="http://www.w3.org/2000/svg" viewBox="0 0 64 64" x="0px" y="0px"><g data-name="Racing-Car-Vehicle-Race car-Automobile"><rect x="40" y="30" width="4" height="2" transform="translate(-2.536 3.768) rotate(-4.987)"></rect><path d="M60,30l-1.7.01.99-1.71a2.006,2.006,0,0,0-1.9-2.98l-2.39.2V23a2.006,2.006,0,0,0-2-2h-.51a3.009,3.009,0,0,0-2.88,2.14l-.86,2.9L46,26.27V23a2.006,2.006,0,0,0-2-2h-.51a3.009,3.009,0,0,0-2.88,2.14l-1.1,3.67-10.37.87,8.1-4.16a2.009,2.009,0,0,0,.5-3.2l-.52-.52a2.01,2.01,0,0,0-2.31-.38L19.77,26.97,5.05,32.27a4.994,4.994,0,0,0-2.7,7.09l2.2,4.06A2.973,2.973,0,0,0,7.19,45h8.22a6.957,6.957,0,0,0,7.44-.16l20.92-1.2A6.98,6.98,0,0,0,55.5,41.57L62,37.56V32A2.006,2.006,0,0,0,60,30Zm-8.47-6.28a1,1,0,0,1,.96-.72H53v2.69l-2.11.18Zm-9,0a1,1,0,0,1,.96-.72H44v3.44l-2.35.2ZM4.43,39l-.32-.6A2.88,2.88,0,0,1,3.76,37H6.38l-1,2Zm10.4,2.75A5.038,5.038,0,0,1,14.1,40h2.08c.04.1.08.19.12.29Zm1.47-4.04c-.04.1-.08.19-.12.29H14.1a5.038,5.038,0,0,1,.73-1.75Zm-.05-2.88A5.038,5.038,0,0,1,18,34.1v2.08c-.1.04-.19.08-.29.12ZM18,43.9a5.038,5.038,0,0,1-1.75-.73l1.46-1.47c.1.04.19.08.29.12ZM19,40a1,1,0,1,1,1-1A1,1,0,0,1,19,40Zm1,3.9V41.82c.1-.04.19-.08.29-.12l1.46,1.47A5.038,5.038,0,0,1,20,43.9Zm0-7.72V34.1a5.038,5.038,0,0,1,1.75.73L20.29,36.3C20.19,36.26,20.1,36.22,20,36.18Zm3.17,5.57L21.7,40.29c.04-.1.08-.19.12-.29H23.9A5.038,5.038,0,0,1,23.17,41.75ZM21.82,38c-.04-.1-.08-.19-.12-.29l1.47-1.46A5.038,5.038,0,0,1,23.9,38ZM44.1,40h2.08c.04.1.08.19.12.29l-1.47,1.46A5.038,5.038,0,0,1,44.1,40Zm2.2-2.29c-.04.1-.08.19-.12.29H44.1a5.038,5.038,0,0,1,.73-1.75Zm-.05-2.88A5.038,5.038,0,0,1,48,34.1v2.08c-.1.04-.19.08-.29.12ZM48,43.9a5.038,5.038,0,0,1-1.75-.73l1.46-1.47c.1.04.19.08.29.12ZM49,40a1,1,0,1,1,1-1A1,1,0,0,1,49,40Zm1,3.9V41.82c.1-.04.19-.08.29-.12l1.46,1.47A5.038,5.038,0,0,1,50,43.9Zm0-7.72V34.1a5.038,5.038,0,0,1,1.75.73L50.29,36.3C50.19,36.26,50.1,36.22,50,36.18Zm3.17,5.57L51.7,40.29c.04-.1.08-.19.12-.29H53.9A5.038,5.038,0,0,1,53.17,41.75ZM51.82,38c-.04-.1-.08-.19-.12-.29l1.47-1.46A5.038,5.038,0,0,1,53.9,38ZM60,36.44l-4,2.48A7,7,0,0,0,42,39a6.922,6.922,0,0,0,.54,2.7L24.92,42.72A7,7,0,1,0,13.26,43H7.19a.984.984,0,0,1-.88-.53L5.51,41H6a.977.977,0,0,0,.89-.55l2-4A1,1,0,0,0,8,35H4.5a2.936,2.936,0,0,1,1.23-.85L20.5,28.83l15.3-7.61.52.52-8.16,4.19a2.009,2.009,0,0,0,1.19,3.72l28.2-2.33-.79,1.42a1.941,1.941,0,0,0-.29,2.04A2.007,2.007,0,0,0,58.31,32H60Z"></path></g></svg>