<svg xmlns="http://www.w3.org/2000/svg" viewBox="0 0 64 64" x="0px" y="0px"><g data-name="Chemex-Coffee Maker-Coffee-Hot Drink-Food"><path d="M22.24,25l-1.16-3.01c-.02,0-.05.01-.08.01s-.06-.01-.08-.01L19.76,25Z"></path><path d="M23.82,18h4.57c.02-.05.02-.11.04-.16L29.95,13H12.05l1.52,4.84c.02.05.02.11.04.16h4.57a2.988,2.988,0,0,1,5.64,0Z"></path><path d="M8.39,54.23A6.982,6.982,0,0,0,13.04,56H28.96a6.938,6.938,0,0,0,4.64-1.77l1.17-1.03A9.063,9.063,0,0,0,37.44,44H4.56a9.063,9.063,0,0,0,2.67,9.2Z"></path><path d="M47.72,56h2.56a3.008,3.008,0,0,0,2.989-2.786l2.421-.606A4.369,4.369,0,0,0,54.631,44H44.07l.66,9.21A3.009,3.009,0,0,0,47.72,56Zm6.911-10a2.369,2.369,0,0,1,.574,4.668l-1.785.446L53.787,46Z"></path><circle cx="21" cy="19" r="1"></circle><path d="M30.9,25l-2.33-4.99V20H23.82a2.951,2.951,0,0,1-.87,1.26L24.38,25Z"></path><path d="M29.63,27H25.15l.77,2.01c.02,0,.05-.01.08-.01a3,3,0,1,1-3,3,2.964,2.964,0,0,1,1.05-2.26L23,27H19l-1.05,2.74A2.964,2.964,0,0,1,19,32a3,3,0,1,1-3-3c.03,0,.06.01.08.01L16.85,27H12.37l-7,15H36.63Z"></path><polygon points="28.45 11 30.64 4 11.36 4 13.55 11 28.45 11"></polygon><path d="M4,58v1a1,1,0,0,0,1,1H59a1,1,0,0,0,1-1V58Z"></path><path d="M19.05,21.26A2.951,2.951,0,0,1,18.18,20H13.43v.01L11.1,25h6.52Z"></path><circle cx="26" cy="32" r="1"></circle><circle cx="16" cy="32" r="1"></circle></g></svg>