<svg xmlns="http://www.w3.org/2000/svg" viewBox="0 0 64 64" x="0px" y="0px"><g data-name="Energy Saving Light"><path d="M40.478,51H23.523A8.977,8.977,0,0,0,29.3,56.586h0a8.8,8.8,0,0,0,1.333.31A8.988,8.988,0,0,0,40.478,51Z"></path><path d="M33.133,58.935c-.085.009-.169.022-.255.029-.291.023-.584.036-.878.036s-.587-.013-.878-.036c-.085-.007-.169-.02-.254-.029-.208-.021-.416-.044-.622-.078-.018,0-.037,0-.056-.006a2,2,0,0,0,3.62,0l-.057.007C33.548,58.891,33.341,58.914,33.133,58.935Z"></path><path d="M40.946,48.953A8.5,8.5,0,0,0,41,48V46H23v2a8.523,8.523,0,0,0,.054.954c0,.016.006.031.007.046H40.938C40.94,48.984,40.944,48.969,40.946,48.953Z"></path><path d="M45.969,19H18.031a47.79,47.79,0,0,0,4.858,20H41.111A47.79,47.79,0,0,0,45.969,19Z"></path><path d="M45.949,17a13.984,13.984,0,0,0-27.9,0Z"></path><rect x="23" y="41" width="18" height="3"></rect></g></svg>