<svg xmlns="http://www.w3.org/2000/svg" viewBox="0 0 64 64" x="0px" y="0px"><g><path d="M59.949,56.684,58,50.837V41a3,3,0,0,0-3-3H49V36a3,3,0,0,0-3-3H34.816A3,3,0,0,0,33,31.184V28.967c3.623-.21,7-1.562,7-3.967V23h3a6,6,0,0,0,0-12H40.938A8.006,8.006,0,0,0,33,2a7.98,7.98,0,0,0-7.422,5.043A3.994,3.994,0,0,0,21,11a6,6,0,0,0,0,12h3v2c0,2.405,3.377,3.757,7,3.967v2.217A3,3,0,0,0,29.184,33H18a3,3,0,0,0-3,3v2H9a3,3,0,0,0-3,3v9.837L4.051,56.684A1,1,0,0,0,4,57v3a2,2,0,0,0,2,2H26a2,2,0,0,0,2-2V57a1,1,0,0,0-.051-.316L26,50.837V41a3,3,0,0,0-3-3H17V36a1,1,0,0,1,1-1H29.184a2.982,2.982,0,0,0,5.632,0H46a1,1,0,0,1,1,1v2H41a3,3,0,0,0-3,3v9.837l-1.949,5.847A1,1,0,0,0,36,57v3a2,2,0,0,0,2,2H58a2,2,0,0,0,2-2V57A1,1,0,0,0,59.949,56.684ZM25.613,56H20.721l-.772-2.316A1,1,0,0,0,19,53H13a1,1,0,0,0-.949.684L11.279,56H6.387l1.334-4H24.279Zm-7,0H13.387l.334-1h4.558ZM6,60V58H26v2ZM24,41v9H8V41a1,1,0,0,1,1-1H23A1,1,0,0,1,24,41Zm2-21.268A13.183,13.183,0,0,0,32,21a13.183,13.183,0,0,0,6-1.268V21c0,.7-2.278,2-6,2s-6-1.3-6-2ZM26,17c0-.7,2.278-2,6-2s6,1.3,6,2-2.278,2-6,2S26,17.7,26,17Zm-5,4a4,4,0,0,1,0-8h1.18a1,1,0,0,0,.942-1.335,1.983,1.983,0,0,1,2.7-2.482A1,1,0,0,0,27.2,8.516,5.993,5.993,0,0,1,39,10a5.891,5.891,0,0,1-.248,1.711A1,1,0,0,0,39.71,13H43a4,4,0,0,1,0,8H40V17c0-2.626-4.024-4-8-4s-8,1.374-8,4v4Zm5,4V23.732A13.183,13.183,0,0,0,32,25a13.183,13.183,0,0,0,6-1.268V25c0,.7-2.278,2-6,2S26,25.705,26,25Zm6,10a1,1,0,1,1,1-1A1,1,0,0,1,32,35ZM52.721,56l-.772-2.316A1,1,0,0,0,51,53H45a1,1,0,0,0-.949.684L43.279,56H38.387l1.334-4H56.279l1.334,4Zm-2.108,0H45.387l.334-1h4.558ZM40,41a1,1,0,0,1,1-1H55a1,1,0,0,1,1,1v9H40ZM38,60V58H58v2Z"></path><rect x="47" y="44" width="2" height="2"></rect><rect x="51" y="44" width="2" height="2"></rect><rect x="43" y="44" width="2" height="2"></rect><rect x="15" y="44" width="2" height="2"></rect><rect x="19" y="44" width="2" height="2"></rect><rect x="11" y="44" width="2" height="2"></rect></g></svg>