<svg xmlns="http://www.w3.org/2000/svg" viewBox="0 0 64 64" x="0px" y="0px"><g><path d="M49,57V31.414L43.586,26H29a4.983,4.983,0,0,1-4.413-2.7l-3.773,5.282A1,1,0,0,1,20,29H13a.994.994,0,0,1-.583-.188L10,27.079V57h4V43a1,1,0,0,1,1-1h4a1,1,0,0,1,1,1V57h4V43a1,1,0,0,1,1-1H39.026A4.948,4.948,0,0,1,38,39V33h2v6a3,3,0,0,0,3,3h1a1,1,0,0,1,1,1V57ZM16.293,40.707l-1-1A1,1,0,0,1,15,39V37h2v1.586l.707.707ZM20,35H17a1,1,0,0,1-.707-.293L16,34.414l-.293.293A1,1,0,0,1,15,35H12V33h2.586L15,32.586V31h2v1.586l.414.414H20Zm7,2a1,1,0,0,1-.105.447l-1,2-1.79-.894L25,36.764V33.236l-.895-1.789,1.79-.894,1,2A1,1,0,0,1,27,33Z"></path><path d="M59,32a1,1,0,0,0,1-1V20.171A3.006,3.006,0,0,0,58,23v6a1,1,0,0,1-1,1H53a1,1,0,0,1-.707-.293L50.586,28H48.414l2.293,2.293A1,1,0,0,1,51,31v1Z"></path><rect x="35" y="44" width="4" height="10"></rect><path d="M4,18.764,4.618,20h.764L6,18.764V12a1,1,0,0,1,.051-.316L6.946,9H6.3L4,10.535Z"></path><path d="M13.322,27h6.163L24,20.679V11.1L23.18,7H9.721L8,12.162v6.646l1.929,4.82A1.012,1.012,0,0,1,10,24v.617ZM19,13h2v2H19Zm-8,0h2v2H11ZM9.293,20.707A1,1,0,0,1,9,20V18h2v1.586l1.707,1.707a1.028,1.028,0,0,1,.188.26L13.618,23h.968L15,22.586V21a1,1,0,0,1-.707-.293l-1-1A1,1,0,0,1,13,19V17h2v1.586l.414.414h1.172L17,18.586V17h2v2a1,1,0,0,1-.293.707l-1,1A1,1,0,0,1,17,21v1.586l.414.414h.968l.723-1.447a1.028,1.028,0,0,1,.188-.26L21,19.586V18h2v2a1,1,0,0,1-.293.707l-1.885,1.885L19.9,24.447A1,1,0,0,1,19,25H17a1,1,0,0,1-.707-.293L16,24.414l-.293.293A1,1,0,0,1,15,25H13a1,1,0,0,1-.895-.553l-.927-1.855Z"></path><path d="M25.62,9l.36,1.8A.925.925,0,0,1,26,11v6.73L28.4,20h.984L30,18.764v-6.35L26.586,9Z"></path></g></svg>