<svg xmlns="http://www.w3.org/2000/svg" viewBox="0 0 64 64" x="0px" y="0px"><g><path d="M30,31.57a10.68,10.68,0,0,1-6,0v2.24l3,1.12,3-1.12Z"></path><polygon points="34 34.44 28 36.69 28 37.31 34 39.56 34 34.44"></polygon><path d="M34,43.85l-6.22,7.77a.991.991,0,0,1-1.56,0L20,43.85V60H34Z"></path><polygon points="20 39.56 26 37.31 26 36.69 20 34.44 20 39.56"></polygon><path d="M27,49.4l6.36-7.95L27,39.07l-6.36,2.38ZM26,41h2v2H26Zm2,4v2H26V45Z"></path><path d="M18,10.18A3,3,0,0,1,19,10h8a5,5,0,0,0,5-5V4H23a5,5,0,0,0-5,5Z"></path><path d="M38,20a2.015,2.015,0,0,0,2-2,2.006,2.006,0,0,0-2-2Z"></path><path d="M43.23,40.31a7.033,7.033,0,0,0-2.14-1.11L40,38.86V60h3.88L42.01,43.11a.922.922,0,0,1,.1-.56Z"></path><polygon points="18 60 18 37.61 16 38.24 16 60 18 60"></polygon><polygon points="38 60 38 38.24 36 37.61 36 60 38 60"></polygon><path d="M18,21a9,9,0,0,0,18,0V13a1,1,0,0,0-1-1H19a1,1,0,0,0-1,1Zm13-5a2,2,0,1,1-2,2A2,2,0,0,1,31,16Zm-2.017,7.25,1.325,1.5a5,5,0,0,1-6.616,0l1.325-1.5A3.074,3.074,0,0,0,28.983,23.25ZM23,16a2,2,0,1,1-2,2A2,2,0,0,1,23,16Z"></path><path d="M8,60h6V38.86l-1.09.34A6.964,6.964,0,0,0,8,45.88Z"></path><polygon points="55.88 44 44.12 44 45.9 60 54.1 60 55.88 44"></polygon><polygon points="44.62 42 55.38 42 53.38 38 46.62 38 44.62 42"></polygon><path d="M31.89,10H35a3,3,0,0,1,1,.18V7H33.71A7.065,7.065,0,0,1,31.89,10Z"></path><rect x="47" y="34" width="6" height="2"></rect><path d="M14,18a2.015,2.015,0,0,0,2,2V16A2.006,2.006,0,0,0,14,18Z"></path></g></svg>