<svg xmlns="http://www.w3.org/2000/svg" viewBox="0 0 64 64" x="0px" y="0px"><g><path d="M16,14H14V38H50V14H48a6.006,6.006,0,0,1-6,6H40v4.586L41.715,26.3A2.951,2.951,0,0,1,43,26a3,3,0,1,1-3,3,2.951,2.951,0,0,1,.3-1.285l-2.008-2.008A1,1,0,0,1,38,25V20H33v8.184a3,3,0,1,1-2,0V20H26v5a1,1,0,0,1-.293.707L23.7,27.715A2.951,2.951,0,0,1,24,29a3,3,0,1,1-3-3,2.951,2.951,0,0,1,1.285.3L24,24.586V20H22A6.006,6.006,0,0,1,16,14Z"></path><circle cx="43" cy="29" r="1"></circle><circle cx="21" cy="29" r="1"></circle><path d="M10,11V42H54V11a1,1,0,0,0-1-1H46.443a5.982,5.982,0,0,1,1.207,2H51a1,1,0,0,1,1,1V39a1,1,0,0,1-1,1H13a1,1,0,0,1-1-1V13a1,1,0,0,1,1-1h3.35a6.009,6.009,0,0,1,1.19-2H11A1,1,0,0,0,10,11Z"></path><path d="M23.08,10H22a4,4,0,0,0,0,8H42a4,4,0,0,0,.727-7.925,1,1,0,0,1-.8-.8A3.993,3.993,0,0,0,38,6a3.936,3.936,0,0,0-1.991.555,1,1,0,0,1-1.288-.249A5.989,5.989,0,0,0,24.069,9.142,1,1,0,0,1,23.08,10ZM42,15a1,1,0,0,0,1-1h2a3,3,0,0,1-3,3Zm-4,0h2v2H38Z"></path><circle cx="32" cy="31" r="1"></circle><path d="M59.382,54l-5-10H9.618l-5,10ZM54,52H52V50h2Zm-3-6h2v2H51Zm-1,6H48V50h2Zm-3-6h2v2H47Zm-4,0h2v2H43Zm-4,0h2v2H39Zm-4,0h2v2H35Zm-4,0h2v2H31Zm-4,0h2v2H27Zm-4,0h2v2H23Zm-4,0h2v2H19Zm-1,4H46v2H18Zm-3-4h2v2H15Zm-1,4h2v2H14Zm-3-4h2v2H11Zm-1,4h2v2H10Z"></path><path d="M4,60H60V56H37v1a2,2,0,0,1-2,2H29a2,2,0,0,1-2-2V56H4Z"></path><rect x="29" y="56" width="6" height="1"></rect><rect x="58" y="30" width="2" height="2"></rect><rect x="4" y="30" width="2" height="2"></rect><rect x="4" y="24" width="2" height="2"></rect><rect x="4" y="18" width="2" height="2"></rect><rect x="58" y="24" width="2" height="2"></rect><rect x="58" y="18" width="2" height="2"></rect><rect x="57" y="5" width="2" height="2"></rect><rect x="5" y="5" width="2" height="2"></rect></g></svg>