<svg xmlns="http://www.w3.org/2000/svg" viewBox="0 0 64 64" x="0px" y="0px"><g data-name="Online Support-Ecommerce-Merchant-Chat-Operator"><path d="M5.8,20.6A3.959,3.959,0,0,0,5,23a3.979,3.979,0,0,0,6.65,2.97l-3.2-2.14,1.1-1.66,3.21,2.14A3.849,3.849,0,0,0,13,23a4.024,4.024,0,0,0-2.41-3.68A3.988,3.988,0,0,0,5.8,20.6Z"></path><path d="M4,44H8V41a2.006,2.006,0,0,0-2-2V37.2l-.66.44A2.993,2.993,0,0,0,4,40.14Z"></path><path d="M21,50V43.64a7,7,0,0,0-3.53-6.07l-2.81-1.61-5.43-.91L6.26,37.03A3.985,3.985,0,0,1,10,41v9Z"></path><path d="M49.68,39.98a1,1,0,0,0-1.17.81L45.62,57.17a1,1,0,0,1-.98.83H23v2H46.32a1.008,1.008,0,0,0,.99-.83l3.35-19.02Z"></path><path d="M15,28a.967.967,0,0,1-.55-.17l-1.09-.72a6.086,6.086,0,0,1-2.21,1.49A6,6,0,0,0,21,24V20a2.006,2.006,0,0,0-2-2H12.3A6,6,0,0,1,15,23a5.922,5.922,0,0,1-.53,2.45l.83.55H18v2Z"></path><path d="M10,33.15l4,.67V31.93a7.9,7.9,0,0,1-4-1.69Z"></path><path d="M4,56.97V60H21V58H7A4.924,4.924,0,0,1,4,56.97Z"></path><path d="M23,52H9a1,1,0,0,1-1-1V46H4v7a3.009,3.009,0,0,0,3,3H27A4,4,0,0,0,23,52Z"></path><path d="M45,16a3.009,3.009,0,0,0,3-3V12H43a1,1,0,0,0-1,1A3.009,3.009,0,0,0,45,16Z"></path><path d="M48,10V8H43a1,1,0,0,0-1,1v1.18A3,3,0,0,1,43,10Z"></path><path d="M46.39,17.78a4.5,4.5,0,0,1-2.78,0,.906.906,0,0,1-.16.11l-1.07.54a2.971,2.971,0,0,0,5.24,0l-1.07-.54A.906.906,0,0,1,46.39,17.78Z"></path><path d="M31,31h5.01a1.008,1.008,0,0,1,.83.45L39.88,36l2.23-4.45A.988.988,0,0,1,43,31H59a1,1,0,0,0,1-1V5a1,1,0,0,0-1-1H31a1,1,0,0,0-1,1V30A1,1,0,0,0,31,31Zm5-8.53A5.038,5.038,0,0,1,38.76,18l2.79-1.4A4.967,4.967,0,0,1,40,13V9a3.009,3.009,0,0,1,3-3h6a1,1,0,0,1,1,1v6a4.967,4.967,0,0,1-1.55,3.6l2.79,1.39A5.064,5.064,0,0,1,54,22.47V28a1,1,0,0,1-1,1H37a1,1,0,0,1-1-1Z"></path><path d="M40,23h2v4h6V23h2v4h2V22.47a3.044,3.044,0,0,0-1.66-2.69l-.93-.46a4.968,4.968,0,0,1-8.82,0l-.93.47A3.017,3.017,0,0,0,38,22.47V27h2Z"></path><path d="M10,12V11a1,1,0,0,0-2,0v1a3,3,0,0,0-3,3v3.54a3.092,3.092,0,0,1,.39-.33,3.713,3.713,0,0,1,.41-.28A2.263,2.263,0,0,1,6,17.8,5.949,5.949,0,0,1,9,17a5.47,5.47,0,0,1,1,.09V16h8a3.009,3.009,0,0,0,3-3V12Z"></path></g></svg>