<svg xmlns="http://www.w3.org/2000/svg" viewBox="0 0 64 64" x="0px" y="0px"><g><path d="M39,4H38v7a.965.965,0,0,0,.287.694A.978.978,0,0,0,39,12a1,1,0,0,0,1-1V5A1,1,0,0,0,39,4Z"></path><path d="M32,11V4H30v7a.965.965,0,0,0,.287.694A.978.978,0,0,0,31,12,1,1,0,0,0,32,11Z"></path><path d="M36,11V4H34v7a.965.965,0,0,0,.287.694A.978.978,0,0,0,35,12,1,1,0,0,0,36,11Z"></path><path d="M42,7v4a3,3,0,0,1-3,3,2.936,2.936,0,0,1-2-.783A2.977,2.977,0,0,1,35,14a2.936,2.936,0,0,1-2-.783A2.977,2.977,0,0,1,31,14a3.071,3.071,0,0,1-.5-.049c.124.072.251.139.37.22a6.515,6.515,0,0,1,1,.829H48.143a3.771,3.771,0,0,1,.413-3H44V10h4.556A3.959,3.959,0,0,1,48,8a3.992,3.992,0,0,1,.143-1Z"></path><path d="M20,15h2V10a3,3,0,0,1,2-2.816V7H20Z"></path><path d="M26,36H40V28H26Zm2-6h2v2H28Z"></path><path d="M29.162,13.351c-.054-.044-.107-.087-.159-.134-.023.021-.048.039-.072.06C29.009,13.3,29.085,13.326,29.162,13.351Z"></path><circle cx="47" cy="37" r="1"></circle><path d="M50,14a1.979,1.979,0,0,0,.274,1h.406L53,13.343V8.657L50.68,7h-.406A1.979,1.979,0,0,0,50,8a2,2,0,0,0,2,2v2A2,2,0,0,0,50,14Z"></path><rect x="16" y="7" width="2" height="8"></rect><path d="M11,15h3V7H11a4,4,0,0,0,0,8Z"></path><path d="M12,42H52V17a.982.982,0,0,0-.1-.415l-.32.229A1,1,0,0,1,51,17H42V37a1,1,0,0,1-1,1H25a1,1,0,0,1-1-1V23.236l-1.895-3.789A1,1,0,0,1,22,19V17H12ZM46,22h2v2H46Zm0,4h2v6H46Zm1,8a3,3,0,1,1-3,3A3,3,0,0,1,47,34ZM18,40H16V38h2Zm0-4H16V30h2ZM17,22a3,3,0,1,1-3,3A3,3,0,0,1,17,22Z"></path><circle cx="17" cy="25" r="1"></circle><path d="M26,7.182A2.994,2.994,0,0,1,28,10V4H27a1,1,0,0,0-1,1Z"></path><path d="M24,10v8.764L25.9,22.553A1,1,0,0,1,26,23v3H40V17H33.319A6.958,6.958,0,0,1,34,20H32a4.95,4.95,0,0,0-1.281-3.329,4.8,4.8,0,0,0-.954-.833A4.919,4.919,0,0,0,27,15a1,1,0,0,1-1-1V10a.965.965,0,0,0-.287-.694A.978.978,0,0,0,25,9,1,1,0,0,0,24,10Z"></path><path d="M52.382,44H11.618l-5,10H57.382ZM45,46h2v2H45Zm-6,0h2v2H39Zm-4,0h2v2H35Zm-4,0h2v2H31Zm-4,0h2v2H27Zm-4,0h2v2H23Zm-6,0h4v2H17Zm-3,6H12V50h2Zm1-4H13V46h2Zm33,4H16V50H48Zm1-6h2v2H49Zm3,6H50V50h2Z"></path><rect x="29" y="56" width="6" height="1"></rect><polygon points="55 10.086 55 11.914 56.28 11 55 10.086"></polygon><path d="M7,60H57a1,1,0,0,0,1-1V56H37v1a2,2,0,0,1-2,2H29a2,2,0,0,1-2-2V56H6v3A1,1,0,0,0,7,60Z"></path></g></svg>