<svg xmlns="http://www.w3.org/2000/svg" viewBox="0 0 64 64" x="0px" y="0px"><g><path d="M40.82,18.57a28.011,28.011,0,0,0,3.07-1.22C41.53,9.83,37.45,4.75,33,4.08v15.9a28.085,28.085,0,0,0,4.11-.45A2.983,2.983,0,0,1,40.82,18.57Z"></path><path d="M38.04,23.87a3.013,3.013,0,0,1-1.47-2.22,30.164,30.164,0,0,1-3.57.33V24h5.27Z"></path><path d="M44.45,19.3c-.44.2-.89.39-1.34.57l1.72.99C44.71,20.33,44.58,19.81,44.45,19.3Z"></path><path d="M51.56,12.01A28.2,28.2,0,0,0,38.85,4.87c2.83,2.49,5.22,6.47,6.85,11.54A28.176,28.176,0,0,0,51.56,12.01Z"></path><path d="M31,4.08c-4.51.67-8.56,5.8-10.9,13.28A27.891,27.891,0,0,0,31,19.98Z"></path><path d="M25.13,4.86a28.071,28.071,0,0,0-12.69,7.15,27.615,27.615,0,0,0,5.85,4.42C19.91,11.39,22.29,7.37,25.13,4.86Z"></path><path d="M30,24h1V21.98a29.826,29.826,0,0,1-11.45-2.67,48.2,48.2,0,0,0-1.14,5.99l4.55-2.63a3,3,0,0,1,4.1,1.1,2.913,2.913,0,0,1,.39,1.66A3.009,3.009,0,0,1,30,24Z"></path><path d="M25.96,27.87l-.23.13h1.44A3,3,0,0,1,27,27a1.366,1.366,0,0,1,.02-.19A2.989,2.989,0,0,1,25.96,27.87Z"></path><path d="M16.27,26.54a50.439,50.439,0,0,1,1.44-8.14,30.521,30.521,0,0,1-6.66-4.94A27.805,27.805,0,0,0,4.18,29H12Z"></path><path d="M52,25h7.09a27.654,27.654,0,0,0-6.15-11.55,30.02,30.02,0,0,1-6.66,4.93c.33,1.22.61,2.49.84,3.8Z"></path><path d="M12.45,42.11,16.24,44H30a1,1,0,0,0,0-2H25a1,1,0,0,1,0-2h9a1,1,0,0,0,0-2H25a1,1,0,0,1,0-2H38a1,1,0,0,0,0-2H25a1,1,0,0,1,0-2h9a1,1,0,0,0,0-2H22a1,1,0,0,1-.97-.74,1.022,1.022,0,0,1,.47-1.13l3.46-2a.988.988,0,0,0,.37-1.36,1.01,1.01,0,0,0-1.37-.37L12.77,30.87a1.094,1.094,0,0,1-.5.13H2V42H12A1,1,0,0,1,12.45,42.11Z"></path><path d="M32.83,42.02a29.761,29.761,0,0,1,11.62,2.67c.22-.87.42-1.77.6-2.69H32.83Z"></path><path d="M38.82,59.16a27.983,27.983,0,0,0,12.77-7.15,27.607,27.607,0,0,0-5.89-4.44C44.07,52.67,41.66,56.67,38.82,59.16Z"></path><path d="M51.23,26.87,40.04,20.4a1.008,1.008,0,0,0-1.37.37.988.988,0,0,0,.37,1.36l3.46,2A1,1,0,0,1,43,25a3.009,3.009,0,0,0,3,3h1v2H46a5,5,0,0,1-4.88-4H30a1,1,0,0,0,0,2h9a1,1,0,0,1,0,2H36.82a2.945,2.945,0,0,1,.01,2H38a3,3,0,0,1,0,6H36.83a2.945,2.945,0,0,1-.01,2H47.76l3.79-1.89A1,1,0,0,1,52,38H62V27H51.73A1.094,1.094,0,0,1,51.23,26.87Z"></path><path d="M48.45,41.89A1,1,0,0,1,48,42h-.92c-.23,1.24-.49,2.45-.8,3.6a29.966,29.966,0,0,1,6.69,4.97A28,28,0,0,0,58.82,40H52.24Z"></path><path d="M33,44.02v15.9c4.45-.67,8.54-5.75,10.89-13.28A27.8,27.8,0,0,0,33,44.02Z"></path><path d="M31,59.92V45.82A3,3,0,0,1,30,46H21.6c-.5.2-1,.42-1.5.65C22.47,54.25,26.58,59.26,31,59.92Z"></path><path d="M12.41,52.01a27.9,27.9,0,0,0,12.71,7.13c-2.8-2.47-5.18-6.44-6.81-11.55A28.338,28.338,0,0,0,12.41,52.01Z"></path><path d="M15.55,45.89,11.76,44H6.72a27.618,27.618,0,0,0,4.32,6.56A30.326,30.326,0,0,1,17.05,46H16A1,1,0,0,1,15.55,45.89Z"></path></g></svg>