<svg xmlns="http://www.w3.org/2000/svg" viewBox="0 0 64 64" x="0px" y="0px"><g data-name="Video Game-Joystick-Hands-Gaming-Control"><rect x="9" y="50" width="12" height="4"></rect><rect x="10" y="56" width="10" height="4"></rect><rect x="43" y="21" width="2" height="2"></rect><path d="M24,31.25a1,1,0,0,0-1.36-.36,1,1,0,0,0-.47.61l-1.15,4.3a2.974,2.974,0,0,1-2.88,2.21H18.1a2.956,2.956,0,0,1-2.53-1.45l-2.43-4.05A1,1,0,0,1,13,32V24.1A5.009,5.009,0,0,0,9,29V40.53a.956.956,0,0,0,.11.44l1.78,3.58A1,1,0,0,1,11,45v3h8V47a.984.984,0,0,1,.2-.6L22,42.67V40.79a6.922,6.922,0,0,1,.24-1.81l1.86-6.97A.974.974,0,0,0,24,31.25Z"></path><rect x="43" y="50" width="12" height="4"></rect><path d="M40.08,28.86a3.006,3.006,0,0,1,3.68,2.12l1.15,4.3a1,1,0,0,0,.96.73h.01a.953.953,0,0,0,.83-.48L49,31.72V26.89A6.97,6.97,0,0,1,44,29H43a.967.967,0,0,1-.55-.17L39.8,27.07A2.992,2.992,0,0,1,34.18,27H29.82a2.992,2.992,0,0,1-5.62.07l-2.65,1.76A.967.967,0,0,1,21,29H20a6.97,6.97,0,0,1-5-2.11v4.83l2.29,3.81a.953.953,0,0,0,.83.48h.01a1,1,0,0,0,.96-.73l1.15-4.3a3.007,3.007,0,0,1,5.5-.73A2.926,2.926,0,0,1,26.12,32H37.88a2.926,2.926,0,0,1,.38-1.75A2.962,2.962,0,0,1,40.08,28.86Z"></path><rect x="44" y="56" width="10" height="4"></rect><circle cx="27" cy="26" r="1"></circle><path d="M20,27h.7l2.75-1.83A.967.967,0,0,1,24,25h.18a2.988,2.988,0,0,1,5.64,0h4.36a2.988,2.988,0,0,1,5.64,0H40a.967.967,0,0,1,.55.17L43.3,27H44a5,5,0,0,0,0-10H20a5,5,0,0,0,0,10Zm21-6h2V19h2v2h2v2H45v2H43V23H41Zm-8-2h2v2H33Zm-4,0h2v2H29ZM17,21h2V19h2v2h2v2H21v2H19V23H17Z"></path><circle cx="37" cy="26" r="1"></circle><path d="M41.76,38.98A6.922,6.922,0,0,1,42,40.79v1.88l2.8,3.73a.984.984,0,0,1,.2.6v1h8V45a1,1,0,0,1,.11-.45l1.78-3.58a.956.956,0,0,0,.11-.44V29a5.009,5.009,0,0,0-4-4.9V32a1,1,0,0,1-.14.51l-2.43,4.05a2.956,2.956,0,0,1-2.53,1.45,3.019,3.019,0,0,1-2.92-2.21l-1.15-4.3a1.006,1.006,0,0,0-1.23-.71.963.963,0,0,0-.6.46.974.974,0,0,0-.1.76Z"></path><rect x="31" y="10" width="2" height="2"></rect><path d="M35.535,7.465a5,5,0,0,0-7.07,0l1.414,1.414a3.072,3.072,0,0,1,4.242,0Z"></path><path d="M36.95,6.05l1.414-1.414a9.012,9.012,0,0,0-12.728,0L27.05,6.05A7.009,7.009,0,0,1,36.95,6.05Z"></path></g></svg>