<svg xmlns="http://www.w3.org/2000/svg" viewBox="0 0 64 64" x="0px" y="0px"><g data-name="File Transfer-Smartphone-Files-Transfer-Technology"><path d="M27,33V19a1,1,0,0,0-.293-.707l-6-6A1,1,0,0,0,20,12H10a3,3,0,0,0-3,3V33a3,3,0,0,0,3,3H24A3,3,0,0,0,27,33ZM21,15.414,23.586,18H22a1,1,0,0,1-1-1ZM9,33V15a1,1,0,0,1,1-1h9v3a3,3,0,0,0,3,3h3V33a1,1,0,0,1-1,1H10A1,1,0,0,1,9,33Z"></path><rect x="11" y="22" width="12" height="2"></rect><rect x="11" y="26" width="12" height="2"></rect><rect x="11" y="30" width="12" height="2"></rect><rect x="11" y="18" width="6" height="2"></rect><path d="M56.707,32.293l-6-6A1,1,0,0,0,50,26H40a3,3,0,0,0-3,3V47a3,3,0,0,0,3,3H54a3,3,0,0,0,3-3V33A1,1,0,0,0,56.707,32.293ZM51,29.414,53.586,32H52a1,1,0,0,1-1-1ZM54,48H40a1,1,0,0,1-1-1V29a1,1,0,0,1,1-1h9v3a3,3,0,0,0,3,3h3V47A1,1,0,0,1,54,48Z"></path><rect x="41" y="36" width="12" height="2"></rect><rect x="41" y="40" width="12" height="2"></rect><rect x="41" y="44" width="12" height="2"></rect><rect x="41" y="32" width="6" height="2"></rect><path d="M50,56a4,4,0,0,1-4,4H18a4,4,0,0,1-4-4V38H12V56a6.006,6.006,0,0,0,6,6H46a6.006,6.006,0,0,0,6-6V52H50Z"></path><path d="M14,8a4,4,0,0,1,4-4H46a4,4,0,0,1,4,4V24h2V8a6.006,6.006,0,0,0-6-6H18a6.006,6.006,0,0,0-6,6v2h2Z"></path><path d="M30,58h4a3,3,0,0,0,0-6H30a3,3,0,0,0,0,6Zm0-4h4a1,1,0,0,1,0,2H30a1,1,0,0,1,0-2Z"></path><rect x="25" y="6" width="2" height="2"></rect><rect x="29" y="6" width="6" height="2"></rect><path d="M16,38v6a1,1,0,0,0,1,1H29.586l-2.293,2.293,1.414,1.414,4-4a1,1,0,0,0,0-1.414l-4-4-1.414,1.414L29.586,43H18V38Z"></path><path d="M48,24V18a1,1,0,0,0-1-1H34.414l2.293-2.293-1.414-1.414-4,4a1,1,0,0,0,0,1.414l4,4,1.414-1.414L34.414,19H46v5Z"></path></g></svg>