<svg xmlns="http://www.w3.org/2000/svg" viewBox="0 0 64 64" x="0px" y="0px"><g data-name="Hands Washing-Hand Soap-Hands-Washing-Soap"><path d="M47.89,43.45A1,1,0,0,0,48,43V22.5A3.5,3.5,0,0,0,44.5,19a3.438,3.438,0,0,0-1.5.34V17.5A3.5,3.5,0,0,0,39.5,14a3.438,3.438,0,0,0-1.5.34V13.5a3.5,3.5,0,0,0-7,0v.84A3.406,3.406,0,0,0,29.5,14,3.5,3.5,0,0,0,26,17.5V30.27l-.88-1.53a3.492,3.492,0,0,0-2.13-1.63,3.413,3.413,0,0,0-2.65.35,3.5,3.5,0,0,0-1.64,2.12,3.532,3.532,0,0,0,.35,2.66L28,47.73V50H27a1,1,0,0,0-1,1V62h2V52H46V62h2V51a1,1,0,0,0-1-1H46V47.24Zm-3.78,3.1A1,1,0,0,0,44,47v3H30V47.46a1.128,1.128,0,0,0-.13-.5L20.79,31.24a1.508,1.508,0,0,1,.54-2.05,1.519,1.519,0,0,1,1.14-.15,1.458,1.458,0,0,1,.91.7l2.75,4.76a1.022,1.022,0,0,0,1.13.47A1,1,0,0,0,28,34V17.5a1.5,1.5,0,0,1,3,0V30a1,1,0,0,0,2,0V13.5a1.5,1.5,0,0,1,3,0V30a1,1,0,0,0,2,0V17.5a1.5,1.5,0,0,1,3,0V30a1,1,0,0,0,2,0V22.5a1.5,1.5,0,0,1,3,0V42.76Z"></path><path d="M50,2H18a7.008,7.008,0,0,0-7,7V23a6.966,6.966,0,0,0,5.83,6.9l.34-1.97A4.977,4.977,0,0,1,13,23v-.03A4.924,4.924,0,0,0,16,24a5,5,0,0,0,0-10,4.924,4.924,0,0,0-3,1.03V9a5,5,0,0,1,5-5h6A5,5,0,0,0,34,4H50a5,5,0,0,1,5,5V23a5,5,0,0,1-5,5v2a7.008,7.008,0,0,0,7-7V9A7.008,7.008,0,0,0,50,2ZM16,16a3,3,0,1,1-3,3A3.009,3.009,0,0,1,16,16ZM29,7a3.009,3.009,0,0,1-3-3h6A3.009,3.009,0,0,1,29,7Z"></path><path d="M19,6a3,3,0,1,0,3,3A3,3,0,0,0,19,6Zm0,4a1,1,0,1,1,1-1A1,1,0,0,1,19,10Z"></path><path d="M42,12a3,3,0,1,0-3-3A3,3,0,0,0,42,12Zm0-4a1,1,0,1,1-1,1A1,1,0,0,1,42,8Z"></path><path d="M53,15a4,4,0,1,0-4,4A4,4,0,0,0,53,15Zm-4,2a2,2,0,1,1,2-2A2,2,0,0,1,49,17Z"></path><path d="M9,30a3,3,0,1,0,3,3A3,3,0,0,0,9,30Zm0,4a1,1,0,1,1,1-1A1,1,0,0,1,9,34Z"></path><path d="M57,31a5,5,0,1,0,5,5A5.006,5.006,0,0,0,57,31Zm0,8a3,3,0,1,1,3-3A3,3,0,0,1,57,39Z"></path><path d="M8,15a3,3,0,1,0-3,3A3,3,0,0,0,8,15ZM5,16a1,1,0,1,1,1-1A1,1,0,0,1,5,16Z"></path></g></svg>