<svg xmlns="http://www.w3.org/2000/svg" data-name="Graphic Design-Blueprint-Sketch-Flow Chart-Tools" viewBox="0 0 64 64" x="0px" y="0px"><path d="M49,29V11a1.033,1.033,0,0,0-.29-.71l-8-8A1.033,1.033,0,0,0,40,2H8A5,5,0,0,0,3,7V57a5,5,0,0,0,5,5H44a5,5,0,0,0,5-5V49H47v8a3.009,3.009,0,0,1-3,3H8a3.009,3.009,0,0,1-3-3V7A3.009,3.009,0,0,1,8,4H39V9a3.009,3.009,0,0,0,3,3h5V29ZM42,10a1,1,0,0,1-1-1V5.41L45.59,10Z"></path><path d="M60.99,31.67l-5.66-5.66a1,1,0,0,0-1.41,0L34.83,45.1a1.014,1.014,0,0,0-.23.35l-3.53,9.19a.988.988,0,0,0,.22,1.07A1.007,1.007,0,0,0,32,56a.922.922,0,0,0,.36-.07l9.19-3.53a1.014,1.014,0,0,0,.35-.23L60.99,33.08A1,1,0,0,0,60.99,31.67Zm-10.61.7,1.42,1.42L38.36,47.22l-1.41-1.41ZM33.74,53.26l.61-1.57.96.96Zm3.61-1.39-2.22-2.22.79-2.05,3.48,3.48Zm3.84-1.82-1.41-1.41L53.21,35.2l1.42,1.42ZM56.04,35.2,51.8,30.96l2.83-2.83,4.24,4.24Z"></path><path d="M40,26H38V22a1,1,0,0,0-1-1H30.33L27,18.5V16h2a1,1,0,0,0,1-1V11a1,1,0,0,0-1-1H23a1,1,0,0,0-1,1v4a1,1,0,0,0,1,1h2v2.5L21.67,21H15a1,1,0,0,0-1,1v4H12a1,1,0,0,0-1,1v4a1,1,0,0,0,1,1h2v5a1,1,0,0,0,1,1h7v1a1,1,0,0,0,1,1h6a1,1,0,0,0,1-1V38h7a1,1,0,0,0,1-1V32h2a1,1,0,0,0,1-1V27A1,1,0,0,0,40,26ZM24,14V12h4v2Zm2,6.25L28.33,22,26,23.75,23.67,22ZM13,30V28h4v2Zm9,5v1H16V32h2a1,1,0,0,0,1-1V27a1,1,0,0,0-1-1H16V23h5.67L25,25.5V34H23A1,1,0,0,0,22,35Zm6,3H24V36h4Zm8-2H30V35a1,1,0,0,0-1-1H27V25.5L30.33,23H36v3H34a1,1,0,0,0-1,1v4a1,1,0,0,0,1,1h2Zm3-6H35V28h4Z"></path><rect x="17" y="46" width="10" height="2"></rect><rect x="13" y="50" width="14" height="2"></rect><rect x="13" y="54" width="14" height="2"></rect><rect x="13" y="46" width="2" height="2"></rect></svg>