<svg xmlns="http://www.w3.org/2000/svg" viewBox="0 0 64 64" x="0px" y="0px"><g data-name="Online Payment-Online Shopping-Smartphone-Shopping Cart-Money"><rect x="22" y="21" width="2" height="2"></rect><rect x="22" y="29" width="2" height="2"></rect><polygon points="28.91 21 26 21 26 23 28.75 23 28.91 21"></polygon><polygon points="26 27 28.41 27 28.58 25 26 25 26 27"></polygon><polygon points="26 31 28.08 31 28.25 29 26 29 26 31"></polygon><rect x="18" y="21" width="2" height="2"></rect><rect x="14" y="25" width="2" height="2"></rect><rect x="22" y="25" width="2" height="2"></rect><rect x="14" y="29" width="2" height="2"></rect><rect x="18" y="29" width="2" height="2"></rect><rect x="18" y="25" width="2" height="2"></rect><path d="M46,12v8H39a5,5,0,0,0-5,5V46H7a3.009,3.009,0,0,1-3-3V20.82A2.772,2.772,0,0,0,5,21H7a3.01,3.01,0,0,0,2.82-2h.77L12,20.41V36a1,1,0,0,0,1,1h1.18a3,3,0,1,0,5.64,0h2.36a3,3,0,1,0,5.64,0H29a1,1,0,0,1,1,1h2a3.009,3.009,0,0,0-3-3H14V33H29a1.01,1.01,0,0,0,1-.92l1-12a1.055,1.055,0,0,0-.26-.76A1.029,1.029,0,0,0,30,19H13.41l-1.7-1.71A1.033,1.033,0,0,0,11,17H9.82A3.01,3.01,0,0,0,7,15H5a2.772,2.772,0,0,0-1,.18V12Z"></path><path d="M60,25a3.009,3.009,0,0,0-3-3H39a3.009,3.009,0,0,0-3,3V57a3.009,3.009,0,0,0,3,3H57a3.009,3.009,0,0,0,3-3ZM47,24h6v2H47Zm-4,0h2v2H43Zm8,34H45V56h6Zm-3-7A10,10,0,1,1,58,41,10.011,10.011,0,0,1,48,51Z"></path><rect x="14" y="21" width="2" height="2"></rect><path d="M4,10H46V7a3.009,3.009,0,0,0-3-3H7A3.009,3.009,0,0,0,4,7ZM14,6h2V8H14ZM10,6h2V8H10ZM6,6H8V8H6Z"></path><circle cx="25" cy="38" r="1"></circle><circle cx="17" cy="38" r="1"></circle><path d="M48,33a8,8,0,1,0,8,8A8.009,8.009,0,0,0,48,33Zm-1,7h2a3,3,0,0,1,0,6v1H47V46a3,3,0,0,1-3-3h2a1,1,0,0,0,1,1h2a1,1,0,0,0,0-2H47a3,3,0,0,1,0-6V35h2v1a3,3,0,0,1,3,3H50a1,1,0,0,0-1-1H47a1,1,0,0,0,0,2Z"></path><path d="M7,19a1,1,0,0,0,0-2H5a1,1,0,0,0,0,2Z"></path></g></svg>