<svg xmlns="http://www.w3.org/2000/svg" viewBox="0 0 64 64" x="0px" y="0px"><g><path d="M14,13a1,1,0,0,1,1-1H51a1,1,0,0,1,1,1V31a1,1,0,0,1-1,1H47v2h4a3,3,0,0,0,3-3V5a3,3,0,0,0-3-3H15a3,3,0,0,0-3,3V21h2Zm37-3H15a2.966,2.966,0,0,0-1,.184V9a1,1,0,0,1,1-1H51a1,1,0,0,1,1,1v1.184A2.966,2.966,0,0,0,51,10ZM15,4H51a1,1,0,0,1,1,1V6.184A2.966,2.966,0,0,0,51,6H15a2.966,2.966,0,0,0-1,.184V5A1,1,0,0,1,15,4Z"></path><rect x="27" y="32" width="8" height="2"></rect><path d="M16,15v4h2V16h3V14H17A1,1,0,0,0,16,15Z"></path><path d="M50,15a1,1,0,0,0-1-1H45v2h3v3h2Z"></path><path d="M48,28H47v2h2a1,1,0,0,0,1-1V25H48Z"></path><rect x="42" y="21" width="2" height="2"></rect><rect x="22" y="21" width="2" height="2"></rect><path d="M15,23A10,10,0,1,0,25,33,10.011,10.011,0,0,0,15,23Zm0,18a8,8,0,1,1,8-8A8.009,8.009,0,0,1,15,41Z"></path><path d="M15,30a1,1,0,0,1,1,1h2a3,3,0,0,0-2-2.816V27H14v1.184A2.993,2.993,0,0,0,15,34a1,1,0,1,1-1,1H12a3,3,0,0,0,2,2.816V39h2V37.816A2.993,2.993,0,0,0,15,32a1,1,0,0,1,0-2Z"></path><path d="M52,36H45V28a4,4,0,0,0-4-4,3.946,3.946,0,0,0-1.382.261,7.016,7.016,0,1,0-2.589,3.454c-.007.1-.029.187-.029.285V39.724l-1.161-1.382a4,4,0,1,0-6.125,5.131l7.52,8.969,0,0A5,5,0,0,0,40,55.576V61a1,1,0,0,0,1,1H55a1,1,0,0,0,1-1V55.576A5,5,0,0,0,59,51V43A7.008,7.008,0,0,0,52,36ZM33,27a5,5,0,1,1,5-5A5.006,5.006,0,0,1,33,27ZM30.784,40.729a1.977,1.977,0,0,1,.71-1.353,2.045,2.045,0,0,1,2.81.248l2.7,3.21V49.05l-5.755-6.864A1.977,1.977,0,0,1,30.784,40.729ZM54,60H42V56H54Zm3-9a3,3,0,0,1-3,3H42a3,3,0,0,1-3-3V28a2,2,0,0,1,4,0V41h2V38h3v3h2V38h2a5,5,0,0,1,1,.1V42h2V39.026A4.977,4.977,0,0,1,57,43Z"></path></g></svg>