<svg xmlns="http://www.w3.org/2000/svg" viewBox="0 0 64 64" x="0px" y="0px"><g data-name="Time Management-Manager-Clock-Time-Efficiency"><path d="M28,32A11,11,0,1,0,17,43,11.013,11.013,0,0,0,28,32ZM11.343,36.243,9.975,37.611A8.956,8.956,0,0,1,8.059,33H10V31H8.059a8.956,8.956,0,0,1,1.916-4.611l1.368,1.368,1.414-1.414-1.368-1.368A8.956,8.956,0,0,1,16,23.059V25h2V23.059a8.956,8.956,0,0,1,4.611,1.916l-1.368,1.368,1.414,1.414,1.368-1.368A8.956,8.956,0,0,1,25.941,31H24v2h1.941a8.956,8.956,0,0,1-1.916,4.611l-1.368-1.368-1.414,1.414,1.368,1.368A8.956,8.956,0,0,1,18,40.941V39H16v1.941a8.956,8.956,0,0,1-4.611-1.916l1.368-1.368Z"></path><path d="M17.707,32.707A1,1,0,0,0,18,32V27H16v4.586l-1.707,1.707,1.414,1.414Z"></path><path d="M32,32A15,15,0,1,0,17,47,15.017,15.017,0,0,0,32,32ZM4,32A13,13,0,1,1,17,45,13.015,13.015,0,0,1,4,32Z"></path><path d="M58.86,36.06l-5.64-2.25L52,32.59v-.85A7.073,7.073,0,0,0,54.71,28H55a3,3,0,0,0,0-6,2.974,2.974,0,0,0-.78-2A2.974,2.974,0,0,0,55,18V15a1,1,0,0,0-1-1H45a4,4,0,0,0-4,4v4a3,3,0,0,0,0,6h.29A7.073,7.073,0,0,0,44,31.74v.85l-1.22,1.22-5.64,2.25A5,5,0,0,0,34,40.71V49a1,1,0,0,0,1,1H61a1,1,0,0,0,1-1V40.71A5,5,0,0,0,58.86,36.06ZM55,24a1,1,0,0,1,0,2ZM41,26a1,1,0,0,1,0-2Zm2-8a2.006,2.006,0,0,1,2-2h8v2a1,1,0,0,1-1,1H44a3,3,0,0,0-1,.18Zm0,8V22a1,1,0,0,1,1-1h8a1,1,0,0,1,1,1v4a5,5,0,0,1-10,0Zm3,6.72v-.01a7.042,7.042,0,0,0,4,0v.01l-2,3.34Zm.68,5.02-1.96,1.47-.65-3.87.73-.73Zm4.52-3.13.73.73-.65,3.87-1.96-1.47ZM60,48H57V43H55v5H41V43H39v5H36V40.71a3,3,0,0,1,1.88-2.79l4.31-1.72.82,4.96a1,1,0,0,0,.62.77A.937.937,0,0,0,44,42a1.029,1.029,0,0,0,.6-.2L48,39.25l3.4,2.55a1.029,1.029,0,0,0,.6.2.937.937,0,0,0,.37-.07,1,1,0,0,0,.62-.77l.82-4.96,4.31,1.72A3,3,0,0,1,60,40.71Z"></path><path d="M50.5,28.33l-1-1.73a3.057,3.057,0,0,1-3,0l-1,1.73a5.007,5.007,0,0,0,5,0Z"></path><path d="M17,14a1,1,0,0,0,.707-.293l4-4L20.293,8.293,18,10.586V5a1,1,0,0,1,1-1H46a1,1,0,0,1,1,1v7h2V5a3,3,0,0,0-3-3H19a3,3,0,0,0-3,3v5.586L13.707,8.293,12.293,9.707l4,4A1,1,0,0,0,17,14Z"></path><rect x="31" y="6" width="2" height="2"></rect><rect x="35" y="6" width="2" height="2"></rect><rect x="39" y="6" width="2" height="2"></rect><rect x="27" y="6" width="2" height="2"></rect><rect x="23" y="6" width="2" height="2"></rect><path d="M47.293,52.293l-4,4,1.414,1.414L47,55.414V59a1,1,0,0,1-1,1H19a1,1,0,0,1-1-1V54H16v5a3,3,0,0,0,3,3H46a3,3,0,0,0,3-3V55.414l2.293,2.293,1.414-1.414-4-4A1,1,0,0,0,47.293,52.293Z"></path><rect x="32" y="56" width="2" height="2"></rect><rect x="28" y="56" width="2" height="2"></rect><rect x="24" y="56" width="2" height="2"></rect><rect x="36" y="56" width="2" height="2"></rect><rect x="40" y="56" width="2" height="2"></rect></g></svg>