<svg xmlns="http://www.w3.org/2000/svg" viewBox="0 0 64 64" x="0px" y="0px"><g><rect x="29" y="10" width="2" height="2"></rect><rect x="15.565" y="15.565" width="2" height="2" transform="translate(-6.861 16.565) rotate(-45)"></rect><rect x="10" y="29" width="2" height="2"></rect><rect x="15.565" y="42.435" width="2" height="2" transform="translate(-25.861 24.435) rotate(-45)"></rect><rect x="48" y="29" width="2" height="2"></rect><rect x="42.435" y="15.565" width="2" height="2" transform="translate(1.009 35.565) rotate(-45)"></rect><path d="M44.657,33.343A8,8,0,1,0,47,39,7.948,7.948,0,0,0,44.657,33.343Zm-1.414,9.9A6,6,0,1,1,45,39,5.963,5.963,0,0,1,43.243,43.243Z"></path><path d="M61.627,55.971l-9.192-9.193c-.012-.012-.029-.016-.042-.028a28.089,28.089,0,1,0-5.643,5.643c.012.013.016.03.028.042l9.193,9.192a2,2,0,0,0,2.828,0L61.627,58.8A2,2,0,0,0,61.627,55.971ZM48.192,49.607l-1.45-1.45c.254-.215.505-.433.743-.672s.457-.489.672-.743l1.45,1.45Zm2.634-12.545a11.963,11.963,0,0,0-17.91-8.39L31,26.756V15H29V26.756L26.756,29H17v2h9.756l1.916,1.916a11.963,11.963,0,0,0,8.39,17.91A22.034,22.034,0,1,1,50.826,37.062ZM30.515,30.515c-.239.239-.458.49-.672.744L28.584,30,30,28.584l1.259,1.259C31.005,30.057,30.754,30.276,30.515,30.515Zm1.414,15.556a10,10,0,1,1,14.142,0A10.011,10.011,0,0,1,31.929,46.071ZM4,30A26,26,0,1,1,50.352,46.11l-1.025-1.025a11.912,11.912,0,0,0,1.137-2.563,24.018,24.018,0,1,0-7.942,7.943,11.965,11.965,0,0,0,2.563-1.138l1.025,1.025A25.948,25.948,0,0,1,4,30ZM51.728,48.9l1.414,1.414-2.829,2.829L48.9,51.728Zm5.657,11.314-5.657-5.657,2.828-2.829,5.658,5.657Z"></path></g></svg>