<svg xmlns="http://www.w3.org/2000/svg" viewBox="0 0 64 64" x="0px" y="0px"><g data-name="File Chart Startup"><rect x="48" y="40" width="6" height="2"></rect><rect x="37" y="48" width="6" height="2"></rect><rect x="37" y="44" width="6" height="2"></rect><path d="M20,46V45a3,3,0,0,0-3-3H10v1a3,3,0,0,0,3,3Z"></path><path d="M47,52a1,1,0,0,1-1-1V39a1,1,0,0,1,1-1h6V12.846a1.172,1.172,0,0,0-.292-.7L48.877,8.3,46,5.418V11a1,1,0,0,0,1,1h4v2H47a3,3,0,0,1-3-3V4H12a1,1,0,0,0-1,1V40h6a4.948,4.948,0,0,1,3,1.026V39.941a9,9,0,1,1,2,0v3.085A4.948,4.948,0,0,1,25,42h8a1,1,0,0,1,1,1v2a5.006,5.006,0,0,1-5,5H22v2H20V48H13a4.95,4.95,0,0,1-2-.424V59a1,1,0,0,0,1,1H52a1,1,0,0,0,1-1V52Zm1-22H38V28H48Zm-6-6h6v2H42Zm-2,2H38V24h2ZM19,8H39v2H19ZM15,8h2v2H15Zm0,6V12H39v2ZM45,51a1,1,0,0,1-1,1H36a1,1,0,0,1-1-1V43a1,1,0,0,1,1-1h8a1,1,0,0,1,1,1Z"></path><path d="M32,45V44H25a3,3,0,0,0-3,3v1h7A3,3,0,0,0,32,45Z"></path><rect x="48" y="44" width="6" height="2"></rect><path d="M28,31a7,7,0,1,0-7,7A7.008,7.008,0,0,0,28,31ZM17,32H15V30h2Zm4-2a2.993,2.993,0,0,1,1,5.816V37H20V35.816A3,3,0,0,1,18,33h2a1,1,0,1,0,1-1,2.993,2.993,0,0,1-1-5.816V25h2v1.184A3,3,0,0,1,24,29H22a1,1,0,1,0-1,1Zm4,0h2v2H25Z"></path><rect x="48" y="48" width="6" height="2"></rect></g></svg>