<svg xmlns="http://www.w3.org/2000/svg" viewBox="0 0 64 64" x="0px" y="0px"><g data-name="Strategy-Plan-Management-Business Plan-Tactics"><path d="M4,57V7A3,3,0,0,1,7,4H38V9a3,3,0,0,0,3,3h5V32h2V11a1,1,0,0,0-.293-.707l-8-8A1,1,0,0,0,39,2H7A5.006,5.006,0,0,0,2,7V57a5.006,5.006,0,0,0,5,5H38V60H7A3,3,0,0,1,4,57ZM40,9V5.414L44.586,10H41A1,1,0,0,1,40,9Z"></path><path d="M13,15H11a1,1,0,0,1-1-1H8a3,3,0,0,0,3,3v1h2V17a3,3,0,0,0,0-6H11a1,1,0,0,1,0-2h2a1,1,0,0,1,1,1h2a3,3,0,0,0-3-3V6H11V7a3,3,0,0,0,0,6h2a1,1,0,0,1,0,2Z"></path><path d="M17,48a1,1,0,0,0-1,1v6a1,1,0,0,0,1,1h6a1,1,0,0,0,1-1V53h6a1,1,0,0,0,1-1V43h2a1,1,0,0,0,1-1V36a1,1,0,0,0-1-1H27a1,1,0,0,0-1,1v2H24.333L21,35.5V29h2a1,1,0,0,0,1-1V22a1,1,0,0,0-1-1H17a1,1,0,0,0-1,1v6a1,1,0,0,0,1,1h2v6.5L15.667,38H14V36a1,1,0,0,0-1-1H7a1,1,0,0,0-1,1v6a1,1,0,0,0,1,1h6a1,1,0,0,0,1-1V40h1.667L19,42.5V48Zm1-25h4v4H18ZM12,41H8V37h4ZM22,54H18V50h4Zm6-17h4v4H28Zm-8,.25L22.333,39,20,40.75,17.667,39Zm1,5.25L24.333,40H26v2a1,1,0,0,0,1,1h2v8H24V49a1,1,0,0,0-1-1H21Z"></path><rect x="18" y="15" width="12" height="2"></rect><rect x="22" y="11" width="8" height="2"></rect><rect x="18" y="11" width="2" height="2"></rect><path d="M61.142,45.01l-2.682-.383a10.86,10.86,0,0,0-.679-1.639l1.625-2.167a1,1,0,0,0-.093-1.306l-2.828-2.828a1,1,0,0,0-1.306-.093l-2.167,1.625a10.9,10.9,0,0,0-1.639-.679l-.383-2.682A1,1,0,0,0,50,34H46a1,1,0,0,0-.99.858l-.383,2.682a10.86,10.86,0,0,0-1.639.679l-2.167-1.625a1,1,0,0,0-1.306.093l-2.828,2.828a1,1,0,0,0-.093,1.306l1.625,2.167a10.86,10.86,0,0,0-.679,1.639l-2.682.383A1,1,0,0,0,34,46v4a1,1,0,0,0,.858.99l2.682.383a10.86,10.86,0,0,0,.679,1.639l-1.625,2.167a1,1,0,0,0,.093,1.306l2.828,2.828a1,1,0,0,0,1.306.093l2.167-1.625a10.86,10.86,0,0,0,1.639.679l.383,2.682A1,1,0,0,0,46,62h4a1,1,0,0,0,.99-.858l.383-2.682a10.9,10.9,0,0,0,1.639-.679l2.167,1.625a1,1,0,0,0,1.306-.093l2.828-2.828a1,1,0,0,0,.093-1.306l-1.625-2.167a10.86,10.86,0,0,0,.679-1.639l2.682-.383A1,1,0,0,0,62,50V46A1,1,0,0,0,61.142,45.01ZM60,49.133l-2.463.351a1,1,0,0,0-.827.744,8.9,8.9,0,0,1-.977,2.356,1,1,0,0,0,.061,1.11l1.492,1.991-1.6,1.6-1.991-1.492a1,1,0,0,0-1.11-.061,8.9,8.9,0,0,1-2.356.977,1,1,0,0,0-.744.827L49.133,60H46.867l-.351-2.463a1,1,0,0,0-.744-.827,8.9,8.9,0,0,1-2.356-.977,1,1,0,0,0-1.11.061l-1.991,1.492-1.6-1.6,1.492-1.991a1,1,0,0,0,.061-1.11,8.9,8.9,0,0,1-.977-2.356,1,1,0,0,0-.827-.744L36,49.133V46.867l2.463-.351a1,1,0,0,0,.827-.744,8.9,8.9,0,0,1,.977-2.356,1,1,0,0,0-.061-1.11l-1.492-1.991,1.6-1.6,1.991,1.492a1,1,0,0,0,1.11.061,8.9,8.9,0,0,1,2.356-.977,1,1,0,0,0,.744-.827L46.867,36h2.266l.351,2.463a1,1,0,0,0,.744.827,8.9,8.9,0,0,1,2.356.977,1,1,0,0,0,1.11-.061l1.991-1.492,1.6,1.6-1.492,1.991a1,1,0,0,0-.061,1.11,8.9,8.9,0,0,1,.977,2.356,1,1,0,0,0,.827.744L60,46.867Z"></path><rect x="47" y="38" width="2" height="2"></rect><rect x="40.636" y="40.636" width="2" height="2" transform="translate(-17.246 41.636) rotate(-45)"></rect><rect x="38" y="47" width="2" height="2"></rect><rect x="40.636" y="53.364" width="2" height="2" transform="translate(-26.247 45.364) rotate(-45)"></rect><rect x="47" y="56" width="2" height="2"></rect><rect x="53.364" y="53.364" width="2" height="2" transform="translate(-22.518 54.364) rotate(-45)"></rect><rect x="56" y="47" width="2" height="2"></rect><rect x="53.364" y="40.636" width="2" height="2" transform="translate(-13.518 50.636) rotate(-45)"></rect><path d="M48,42a6,6,0,1,0,6,6A6.006,6.006,0,0,0,48,42Zm0,10a4,4,0,1,1,4-4A4,4,0,0,1,48,52Z"></path><rect x="32" y="21" width="10" height="2"></rect><rect x="32" y="25" width="10" height="2"></rect><rect x="32" y="29" width="10" height="2"></rect></g></svg>