<svg xmlns="http://www.w3.org/2000/svg" viewBox="0 0 64 64" x="0px" y="0px"><g><path d="M47,48.9l-4.45,2.93A1,1,0,0,1,41,50.94l.4-6.7a1.032,1.032,0,0,1,.14-.44L47,34.34V9a5.017,5.017,0,0,0-4-4.9V11a.987.987,0,0,1-.62.92A.838.838,0,0,1,42,12a1.007,1.007,0,0,1-.71-.29L39,9.41l-2.29,2.3a1,1,0,0,1-1.09.21A.987.987,0,0,1,35,11V4H12A5,5,0,0,0,7,9V55a5,5,0,0,0,5,5H42a5,5,0,0,0,5-5ZM11,40h2v2H11Zm0,4H33v2H11ZM39,54H29V52H39Zm0-4H11V48H39Zm0-4H35V44h4Zm0-4H15V40H39Zm1.43-14.57-2.82,2.83a.99.99,0,0,1-1.42,0L35,29.07V37a1,1,0,0,1-1,1H20a1,1,0,0,1-1-1V29.07l-1.19,1.19a.99.99,0,0,1-1.42,0l-2.82-2.83a.978.978,0,0,1,0-1.41L26.29,13.29a1.008,1.008,0,0,1,1.42,0l1.36,1.37A.983.983,0,0,1,30,14h4a1,1,0,0,1,1,1v5.59l5.43,5.43A.978.978,0,0,1,40.43,27.43Z"></path><path d="M21,27.07V36h3V31a1,1,0,0,1,1-1h4a1,1,0,0,1,1,1v5h3V27.07l-6-6ZM29,26a2,2,0,1,1-2-2A2,2,0,0,1,29,26Z"></path><path d="M15.69,26.73l1.41,1.41,9.19-9.19a1.014,1.014,0,0,1,1.42,0l9.19,9.19,1.41-1.41L27,15.41Z"></path><rect x="26" y="32" width="2" height="4"></rect><polygon points="33 16 31 16 31 16.59 33 18.59 33 16"></polygon><polygon points="43.3 45.98 43.12 49.06 45.7 47.36 43.3 45.98"></polygon><path d="M56.23,30.35a2,2,0,0,0-.73-2.73,1.969,1.969,0,0,0-1.52-.2,2.016,2.016,0,0,0-1.21.93l-1,1.73,3.46,2Z"></path><rect x="41.998" y="36.877" width="14.005" height="3.996" transform="translate(-9.179 61.843) rotate(-59.97)"></rect><path d="M38.29,7.29a1.008,1.008,0,0,1,1.42,0L41,8.59V4H37V8.59Z"></path></g></svg>