<svg xmlns="http://www.w3.org/2000/svg" viewBox="0 0 64 64" x="0px" y="0px"><g data-name="Graphic Designer-Avatar-Occupation-Man-Designer"><path d="M14,21a9,9,0,0,0,18,0V13a1,1,0,0,0-1-1H15a1,1,0,0,0-1,1Zm13-5a2,2,0,1,1-2,2A2,2,0,0,1,27,16Zm-2.016,7.25,1.323,1.5a5,5,0,0,1-6.614,0l1.323-1.5A3.076,3.076,0,0,0,24.984,23.25ZM19,16a2,2,0,1,1-2,2A2,2,0,0,1,19,16Z"></path><rect x="4" y="52" width="6" height="2"></rect><path d="M27.89,10H31a3,3,0,0,1,1,.18V7H29.71A7.065,7.065,0,0,1,27.89,10Z"></path><path d="M4,50h6V46h2V60H32.18A3,3,0,0,1,32,59V43a3.009,3.009,0,0,1,3-3h3.77a6.8,6.8,0,0,0-1.68-.79L31.64,37.5a8.992,8.992,0,0,1-17.28,0L8.91,39.2A6.964,6.964,0,0,0,4,45.88Z"></path><path d="M26,35V31.57a10.68,10.68,0,0,1-6,0V35a3,3,0,0,0,6,0Z"></path><path d="M34,20a2.015,2.015,0,0,0,2-2,2.006,2.006,0,0,0-2-2Z"></path><path d="M14,10.18A3,3,0,0,1,15,10h8a5,5,0,0,0,5-5V4H19a5,5,0,0,0-5,5Z"></path><path d="M23,42a6.964,6.964,0,0,0,6.74-5.1l-1.93-.6a4.976,4.976,0,0,1-9.62,0l-1.93.6A6.964,6.964,0,0,0,23,42Z"></path><path d="M10,18a2.015,2.015,0,0,0,2,2V16A2.006,2.006,0,0,0,10,18Z"></path><rect x="54" y="39" width="2" height="2"></rect><path d="M60,59V43a1,1,0,0,0-1-1H58V53a1,1,0,0,1-.11.45l-1,2A.988.988,0,0,1,56,56v2H54V56a.988.988,0,0,1-.89-.55l-1-2A1,1,0,0,1,52,53V42H35a1,1,0,0,0-1,1V59a1,1,0,0,0,1,1H59A1,1,0,0,0,60,59ZM37,44h4v2H37Zm4,14H37V56h4Zm-2-4a3,3,0,1,1,3-3A3,3,0,0,1,39,54Z"></path><polygon points="54 52.76 54.62 54 55.38 54 56 52.76 56 43 54 43 54 52.76"></polygon><rect x="4" y="56" width="6" height="4"></rect><circle cx="39" cy="51" r="1"></circle></g></svg>