<svg xmlns="http://www.w3.org/2000/svg" viewBox="0 0 64 64" x="0px" y="0px"><g data-name="Profit-Money-Hand-Coin-money Tree"><path d="M44,29V28a3,3,0,0,0,0-6H42a1,1,0,0,1,0-2h2a1,1,0,0,1,1,1h2a3,3,0,0,0-3-3V17H42v1a3,3,0,0,0,0,6h2a1,1,0,0,1,0,2H42a1,1,0,0,1-1-1H39a3,3,0,0,0,3,3v1Z"></path><path d="M61.15,44.9a3.968,3.968,0,0,0-1.22-1.29A3.082,3.082,0,0,0,60,43V41a3.009,3.009,0,0,0-3-3H51.82A3,3,0,0,0,52,37V35a3.009,3.009,0,0,0-3-3H47.33A9.991,9.991,0,0,0,44,13.05V10.17l.71.11a6.559,6.559,0,0,0,1.08.09,7.057,7.057,0,0,0,6.55-4.49l.67-1.76a1,1,0,0,0-.06-.86,1.03,1.03,0,0,0-.71-.49l-1.87-.29A7,7,0,0,0,43,6.35a7,7,0,0,0-7.37-3.87l-1.87.29a1.03,1.03,0,0,0-.71.49,1,1,0,0,0-.06.86l.67,1.76a7.057,7.057,0,0,0,6.55,4.49,6.559,6.559,0,0,0,1.08-.09l.71-.11v2.88A9.991,9.991,0,0,0,38.67,32H37a3.009,3.009,0,0,0-3,3v2a3,3,0,0,0,.18,1H29a3.009,3.009,0,0,0-3,3v1.16a10.907,10.907,0,0,0-3.89,1.41L19.72,45H2v2H20a1,1,0,0,0,.51-.14l2.63-1.58A9,9,0,0,1,27.77,44h1.3a9.149,9.149,0,0,1,3.35.64l3.21,1.29A.937.937,0,0,0,36,46h7a2,2,0,0,1,0,4H33v2H43.51a4.982,4.982,0,0,0,2.5-.67l10.67-6.16a2,2,0,0,1,2,3.46L45.05,56.51a14.956,14.956,0,0,1-9.16,1.92L23.11,57.01a1.408,1.408,0,0,0-.2-.01l-21,2,.18,2,20.9-2,12.68,1.41a16.959,16.959,0,0,0,10.38-2.17l13.63-7.87A4.018,4.018,0,0,0,61.15,44.9ZM44.61,7.6a5.039,5.039,0,0,1,5.45-3.15l.64.1-.23.61a5.033,5.033,0,0,1-5.45,3.15l-.64-.1Zm-3.63.71a5.033,5.033,0,0,1-5.45-3.15l-.23-.61.64-.1A5.033,5.033,0,0,1,41.39,7.6l.23.61ZM35,23a8,8,0,1,1,8,8A8.011,8.011,0,0,1,35,23Zm7,20a1,1,0,0,1-1,1H36.19l-3.03-1.21A10.825,10.825,0,0,0,29.07,42H28V41a1,1,0,0,1,1-1h1v2h2V40h2v2h2V40h2v2h2V40h1a1,1,0,0,1,1,1Zm-5-5a1,1,0,0,1-1-1V35a1,1,0,0,1,1-1h1v2h2V34h2v2h2V34h2v2h2V34h1a1,1,0,0,1,1,1v2a1,1,0,0,1-1,1Zm9.95,10.48A3.441,3.441,0,0,0,46.44,46h4.8ZM58,42.92a3.878,3.878,0,0,0-2.32.52L54.7,44H45a1,1,0,0,1-1-1V41a1,1,0,0,1,1-1h1v2h2V40h2v2h2V40h2v2h2V40h1a1,1,0,0,1,1,1Z"></path></g></svg>