<svg xmlns="http://www.w3.org/2000/svg" viewBox="0 0 64 64" x="0px" y="0px"><g data-name="Shopping Bag"><path d="M29,18H27V10a6,6,0,0,0-12,0v8H13V10a8,8,0,0,1,16,0Z"></path><path d="M51,36H49V30a3,3,0,0,0-3-3H44a3,3,0,0,0-3,3v6H39V30a5.006,5.006,0,0,1,5-5h2a5.006,5.006,0,0,1,5,5Z"></path><circle cx="14" cy="26" r="1"></circle><path d="M6.868,18.927,6.8,20H13V18H7.87A1,1,0,0,0,6.868,18.927Z"></path><rect x="15" y="18" width="12" height="2"></rect><circle cx="28" cy="26" r="1"></circle><path d="M59.5,59.665a.988.988,0,0,0,.248-.779L57.57,40H51v1.184a3,3,0,1,1-2,0V40H41v1.184a3,3,0,1,1-2,0V40H32.43L30.25,58.885A1,1,0,0,0,31.244,60H58.756A.986.986,0,0,0,59.5,59.665Z"></path><path d="M33.783,34H36.16l-.818-12H29v1.184a3,3,0,1,1-2,0V22H15v1.184a3,3,0,1,1-2,0V22H6.659L4.147,58.928a1,1,0,0,0,.267.758A.981.981,0,0,0,5.14,60H28.426a2.987,2.987,0,0,1-.162-1.345l2.538-22A3,3,0,0,1,33.783,34Z"></path><rect x="41" y="36" width="8" height="2"></rect><circle cx="50" cy="44" r="1"></circle><path d="M29,18v2h6.2l-.073-1.071a1,1,0,0,0-1-.929Z"></path><path d="M51,36v2h6.339l-.129-1.115A1,1,0,0,0,56.217,36Z"></path><circle cx="40" cy="44" r="1"></circle><path d="M32.79,36.885,32.661,38H39V36H33.783A1,1,0,0,0,32.79,36.885Z"></path></g></svg>