<svg xmlns="http://www.w3.org/2000/svg" viewBox="0 0 64 64" x="0px" y="0px"><g><rect x="35" y="19" width="18" height="2" transform="translate(-1.255 36.971) rotate(-45)"></rect><rect x="43" y="11" width="2" height="18" transform="translate(-1.254 36.972) rotate(-45.002)"></rect><path d="M40,62H18a1,1,0,0,1-1-1V52H12a5.006,5.006,0,0,1-5-5V41H4.081a2,2,0,0,1-1.562-3.25L9,29.645A18.966,18.966,0,0,1,25.89,11.116l.22,1.988A16.969,16.969,0,0,0,11,30a1,1,0,0,1-.219.625L4.081,39H8a1,1,0,0,1,1,1v7a3,3,0,0,0,3,3h6a1,1,0,0,1,1,1v9H39V43.41a1,1,0,0,1,.334-.745,17.068,17.068,0,0,0,2.833-3.27L43.833,40.5A19.1,19.1,0,0,1,41,43.851V61A1,1,0,0,1,40,62Z"></path><rect x="43" y="2" width="2" height="2"></rect><rect x="38.6" y="2.579" width="2" height="2.001" transform="translate(0.426 10.387) rotate(-15.023)"></rect><rect x="34.5" y="4.278" width="2" height="2" transform="translate(2.118 18.458) rotate(-30.002)"></rect><rect x="30.979" y="6.979" width="2" height="2" transform="translate(3.724 24.95) rotate(-45)"></rect><rect x="28.277" y="10.5" width="2" height="2" transform="translate(4.679 31.104) rotate(-59.998)"></rect><rect x="26.579" y="14.6" width="2" height="2" transform="matrix(0.259, -0.966, 0.966, 0.259, 5.374, 38.204)"></rect><rect x="26" y="19" width="2" height="2"></rect><rect x="26.579" y="23.4" width="2" height="2" transform="translate(-5.375 7.969) rotate(-15)"></rect><rect x="28.278" y="27.5" width="2" height="2" transform="translate(-10.327 18.453) rotate(-29.995)"></rect><rect x="30.979" y="31.021" width="2" height="2" transform="translate(-13.276 31.991) rotate(-45)"></rect><rect x="34.5" y="33.722" width="2" height="2" transform="translate(-12.319 48.11) rotate(-60.005)"></rect><rect x="38.6" y="35.421" width="2.001" height="2" transform="translate(-5.842 65.224) rotate(-74.973)"></rect><rect x="43" y="36" width="2" height="2"></rect><rect x="47.4" y="35.42" width="2" height="2.001" transform="translate(-7.786 13.791) rotate(-15.023)"></rect><rect x="51.5" y="33.722" width="2" height="2" transform="translate(-10.328 30.904) rotate(-30.002)"></rect><rect x="55.021" y="31.021" width="2" height="2" transform="translate(-6.237 48.98) rotate(-44.99)"></rect><rect x="57.722" y="27.5" width="2" height="2" transform="translate(4.683 65.11) rotate(-60.005)"></rect><rect x="59.421" y="23.4" width="2" height="2" transform="translate(21.214 76.447) rotate(-75)"></rect><rect x="60" y="19" width="2" height="2"></rect><rect x="59.421" y="14.6" width="2" height="2" transform="translate(-1.979 16.17) rotate(-15)"></rect><rect x="57.722" y="10.5" width="2" height="2" transform="translate(2.116 30.897) rotate(-29.995)"></rect><rect x="55.02" y="6.979" width="2" height="2" transform="translate(10.766 41.95) rotate(-45)"></rect><rect x="51.5" y="4.277" width="2" height="2" transform="translate(21.683 48.108) rotate(-60.005)"></rect><rect x="47.4" y="2.579" width="2.001" height="2" transform="translate(32.394 49.396) rotate(-74.973)"></rect></g></svg>