<svg xmlns="http://www.w3.org/2000/svg" viewBox="0 0 64 64" x="0px" y="0px"><g><path d="M11.414,56H52.586l-4-4H15.414ZM46,53h2v2H46Zm-4,0h2v2H42ZM24,53H40v2H24Zm-4,0h2v2H20Zm-4,0h2v2H16Z"></path><rect x="10" y="58" width="44" height="2"></rect><path d="M19,50H17V48a1,1,0,0,0-1-1H10a3,3,0,0,1,0-6h6a1,1,0,0,0,1-1V38h2v2a3,3,0,0,1-3,3H10a1,1,0,0,0,0,2h6a3,3,0,0,1,3,3Z"></path><circle cx="40" cy="4" r="2"></circle><circle cx="32" cy="4" r="2"></circle><rect x="24" y="14" width="16" height="2"></rect><path d="M31,8v4H27V11a1.033,1.033,0,0,0-.29-.71L25,8.59V8Z"></path><path d="M33,26V23a1,1,0,0,1,.35-.759L38.3,18H25.7l4.947,4.241A1,1,0,0,1,31,23v3Z"></path><path d="M39,8v.59l-1.71,1.7A1.033,1.033,0,0,0,37,11v1H33V8Z"></path><path d="M53,9V30H11V9a1,1,0,0,1,1-1H23V9a1.033,1.033,0,0,0,.29.71L25,11.41V12H23a1,1,0,0,0-1,1v4a1.011,1.011,0,0,0,.35.76L29,23.46V27a1,1,0,0,0,1,1h4a1,1,0,0,0,1-1V23.46l6.65-5.7A1.011,1.011,0,0,0,42,17V13a1,1,0,0,0-1-1H39v-.59l1.71-1.7A1.033,1.033,0,0,0,41,9V8H52A1,1,0,0,1,53,9Z"></path><path d="M11,32v3a1,1,0,0,0,1,1H52a1,1,0,0,0,1-1V32Zm38,3H47V33h2Z"></path><rect x="23" y="44" width="18" height="2"></rect><rect x="28" y="38" width="8" height="4"></rect><circle cx="24" cy="4" r="2"></circle></g></svg>