<svg xmlns="http://www.w3.org/2000/svg" viewBox="0 0 64 64" x="0px" y="0px"><g data-name="Report"><circle cx="23" cy="26" r="6"></circle><rect x="35" y="40" width="12" height="10"></rect><path d="M12,60H52a1,1,0,0,0,1-1V12.846a1,1,0,0,0-.292-.707L46,5.418V11a1,1,0,0,0,1,1h4v2H47a3,3,0,0,1-3-3V4H12a1,1,0,0,0-1,1V59A1,1,0,0,0,12,60ZM31,40H19V38H31ZM49,51a1,1,0,0,1-1,1H34a1,1,0,0,1-1-1V39a1,1,0,0,1,1-1H48a1,1,0,0,1,1,1Zm0-18H33V31H49Zm0-4H33V27H49Zm0-4H33V23H49ZM33,21V19h2v2Zm16-2v2H37V19ZM19,8H39v2H19ZM15,8h2v2H15Zm0,4H39v2H15Zm8,6a8,8,0,1,1-8,8A8.009,8.009,0,0,1,23,18ZM15,38h2v2H15Zm0,4H31v2H15Zm0,4H31v2H15Zm0,4H31v2H15Z"></path></g></svg>