<svg xmlns="http://www.w3.org/2000/svg" viewBox="0 0 64 64" x="0px" y="0px"><g data-name="Time Recorder"><path d="M59,11H5a3,3,0,0,0-3,3V50a3,3,0,0,0,3,3H59a3,3,0,0,0,3-3V14A3,3,0,0,0,59,11Zm1,39a1,1,0,0,1-1,1H5a1,1,0,0,1-1-1V14a1,1,0,0,1,1-1H59a1,1,0,0,1,1,1Z"></path><path d="M38,15H8a2,2,0,0,0-2,2V47a2,2,0,0,0,2,2H38a2,2,0,0,0,2-2V17A2,2,0,0,0,38,15ZM8,47V17H38V47Z"></path><path d="M34,19H12a2,2,0,0,0-2,2v8a2,2,0,0,0,2,2H34a2,2,0,0,0,2-2V21A2,2,0,0,0,34,19ZM12,29V21H34v8Z"></path><rect x="12" y="34" width="4" height="2"></rect><rect x="18" y="34" width="4" height="2"></rect><rect x="24" y="34" width="4" height="2"></rect><rect x="30" y="34" width="4" height="2"></rect><rect x="12" y="38" width="4" height="2"></rect><rect x="18" y="38" width="4" height="2"></rect><rect x="24" y="38" width="4" height="2"></rect><rect x="30" y="38" width="4" height="2"></rect><rect x="12" y="42" width="4" height="2"></rect><rect x="18" y="42" width="4" height="2"></rect><rect x="24" y="42" width="4" height="2"></rect><rect x="30" y="42" width="4" height="2"></rect><path d="M50,25a3,3,0,0,0-3,3h2a1,1,0,0,1,2,0v4h2V28A3,3,0,0,0,50,25Z"></path><path d="M50,35a1,1,0,0,1-1-1V30H47v4a3,3,0,0,0,6,0H51A1,1,0,0,1,50,35Z"></path><rect x="55" y="30" width="2" height="12"></rect><path d="M50,21a7.008,7.008,0,0,0-7,7v4h2V28a5,5,0,0,1,10,0h2A7.008,7.008,0,0,0,50,21Z"></path><rect x="43" y="34" width="2" height="8"></rect><rect x="22" y="24" width="2" height="2"></rect><rect x="26" y="24" width="2" height="2"></rect><rect x="18" y="24" width="2" height="2"></rect></g></svg>