<svg xmlns="http://www.w3.org/2000/svg" viewBox="0 0 64 64" x="0px" y="0px"><g data-name="Valve-Pipes-Industry-Water-Gas Pipe"><path d="M62,39H52.86a3.983,3.983,0,0,0-7.72,0H41V35.86A3.993,3.993,0,0,0,40,28H38V23a1,1,0,0,0-1-1H36V18h1a1,1,0,0,0,1-1V14h8a4,4,0,1,0-3.44-6H35.44a3.958,3.958,0,0,0-6.88,0H21.44A3.991,3.991,0,1,0,18,14h8v3a1,1,0,0,0,1,1h1v4H27a1,1,0,0,0-1,1v5H24a3.993,3.993,0,0,0-1,7.86V39H18.86a3.983,3.983,0,0,0-7.72,0H2a1,1,0,0,0-1,1V54a1,1,0,0,0,1,1h9.14a3.983,3.983,0,0,0,7.72,0h4.95c.93.36,5.32,2,8.19,2s7.26-1.64,8.19-2h4.95a3.983,3.983,0,0,0,7.72,0H62a1,1,0,0,0,1-1V40A1,1,0,0,0,62,39ZM46,8a2,2,0,1,1-2,2A2.006,2.006,0,0,1,46,8ZM18,12a2,2,0,1,1,2-2A2.006,2.006,0,0,1,18,12ZM11,53H3V41h8Zm6,1a2,2,0,0,1-4,0V40a2,2,0,0,1,4,0Zm6-1H19V41h4ZM36,10h6a3.906,3.906,0,0,0,.56,2H35.44A3.906,3.906,0,0,0,36,10ZM32,8a2,2,0,1,1-2,2A2.006,2.006,0,0,1,32,8Zm4,6v2H28V14Zm-2,4v4H30V18ZM21.44,12A3.906,3.906,0,0,0,22,10h6a3.906,3.906,0,0,0,.56,2ZM28,24h8v4H28ZM39,53.31A25.125,25.125,0,0,1,32,55a25.213,25.213,0,0,1-7-1.69V36H39ZM40,34H24a2,2,0,0,1,0-4H40a2,2,0,0,1,0,4Zm5,19H41V41h4Zm6,1a2,2,0,0,1-4,0V40a2,2,0,0,1,4,0Zm10-1H53V41h8Z"></path><rect x="5" y="43" width="2" height="2"></rect><rect x="55" y="43" width="4" height="2"></rect><path d="M32,51a11.325,11.325,0,0,1-4.556-.9L26.553,51.9A13.128,13.128,0,0,0,32,53a13.128,13.128,0,0,0,5.447-1.1l-.894-1.79A11.113,11.113,0,0,1,32,51Z"></path></g></svg>