<svg xmlns="http://www.w3.org/2000/svg" viewBox="0 0 64 64" x="0px" y="0px"><title>Goal-Net</title><g><path d="M61,8H3A1,1,0,0,0,2,9V55a1,1,0,0,0,1.707.707L11.414,48H52.586l7.707,7.707A1,1,0,0,0,62,55V9A1,1,0,0,0,61,8ZM52,34H48V30h4ZM12,24h4v4H12Zm28,4H36V24h4Zm2-4h4v4H42Zm-8,4H30V24h4Zm0,2v4H30V30Zm-6-2H24V24h4Zm-6,0H18V24h4ZM12,30h4v4H12Zm6,0h4v4H18Zm6,0h4v4H24Zm4,6v4H24V36Zm2,0h4v4H30Zm6,0h4v4H36Zm0-2V30h4v4Zm6-4h4v4H42Zm10-2H48V24h4Zm0-6H48V18h4Zm-6,0H42V18h4Zm-6,0H36V18h4Zm-6,0H30V18h4Zm-6,0H24V18h4Zm-6,0H18V18h4Zm-6,0H12V18h4ZM12,36h4v4H12Zm6,0h4v4H18Zm4,6v4H18V42Zm2,0h4v4H24Zm6,0h4v4H30Zm6,0h4v4H36Zm6,0h4v4H42Zm0-2V36h4v4Zm6-4h4v4H48Zm4.586-20H11.414l-6-6H58.586ZM4,11.414l6,6V46.586l-6,6ZM12,42h4v4H12Zm36,4V42h4v4Zm6,.586V17.414l6-6V52.586Z"></path><rect x="7" y="54" width="2" height="2"></rect><rect x="11" y="54" width="2" height="2"></rect><rect x="15" y="54" width="2" height="2"></rect><rect x="19" y="54" width="2" height="2"></rect><rect x="23" y="54" width="2" height="2"></rect><rect x="27" y="54" width="2" height="2"></rect><rect x="31" y="54" width="2" height="2"></rect><rect x="35" y="54" width="2" height="2"></rect><rect x="39" y="54" width="2" height="2"></rect><rect x="43" y="54" width="2" height="2"></rect><rect x="47" y="54" width="2" height="2"></rect><rect x="51" y="54" width="2" height="2"></rect><rect x="55" y="54" width="2" height="2"></rect></g></svg>