<svg xmlns="http://www.w3.org/2000/svg" viewBox="0 0 64 64" x="0px" y="0px"><g><polygon points="34 48 34 41.24 32 40.61 32 48 34 48"></polygon><path d="M11.3,26.87a1,1,0,0,1,.33,1.68A1.965,1.965,0,0,0,11,30a2.006,2.006,0,0,0,2,2,1.835,1.835,0,0,0,.73-.15,1.087,1.087,0,0,1,.83.03,1.071,1.071,0,0,1,.52.64A1.99,1.99,0,0,0,17,34a2.019,2.019,0,0,0,.94-.24A11.042,11.042,0,0,1,12.05,25H12a3.961,3.961,0,0,1-1.92-.51A1.7,1.7,0,0,0,10,25,1.991,1.991,0,0,0,11.3,26.87Z"></path><polygon points="14 48 14 40.61 12 41.24 12 48 14 48"></polygon><path d="M4,58v2H9.97a2.673,2.673,0,0,0-.44-1.23A7.373,7.373,0,0,1,9.08,58Z"></path><path d="M4,18c0,1.51,1.53,3.03,4.23,4.29A3.96,3.96,0,0,1,12,17c0-2.75,5.7-4,11-4s11,1.25,11,4a3.96,3.96,0,0,1,3.77,5.29C40.47,21.03,42,19.51,42,18c0-3.31-7.8-7-19-7S4,14.69,4,18Z"></path><path d="M10,41.86l-1.09.34A6.964,6.964,0,0,0,4,48.88V56H8.29A8.261,8.261,0,0,1,8,54a8.824,8.824,0,0,1,2-5.39Z"></path><rect x="42" y="48" width="18" height="4"></rect><polygon points="56.22 60 57.72 54 44.28 54 45.78 60 56.22 60"></polygon><path d="M42,54H41a1,1,0,0,1-1-1V47a1,1,0,0,1,1-1h.37a7.024,7.024,0,0,0-4.28-3.79L36,41.86v6.75A8.824,8.824,0,0,1,38,54a8.261,8.261,0,0,1-.29,2H42Z"></path><path d="M23,9a45.827,45.827,0,0,1,9.69.99C31.59,6.57,27.63,4,23,4c-4.6,0-8.55,2.54-9.68,5.99A45.8,45.8,0,0,1,23,9Z"></path><path d="M36.48,58.76A2.652,2.652,0,0,0,36.03,60H42V58H36.92C36.78,58.26,36.64,58.52,36.48,58.76Z"></path><path d="M34.55,50H11.45A6.72,6.72,0,0,0,10,54a6.794,6.794,0,0,0,1.17,3.64,4.6,4.6,0,0,1,.8,2.36H15V54a1,1,0,0,1,1-1H30a1,1,0,0,1,1,1v6h3.03a4.759,4.759,0,0,1,.8-2.37A6.23,6.23,0,0,0,34.55,50Z"></path><path d="M43.79,34.46l-1.87.3.68,1.76a5.983,5.983,0,0,0,6.53,3.77l.87-.135v4.568L47.77,46h6.46L52,44.723V40.155l.87.135a5.983,5.983,0,0,0,6.53-3.77l.68-1.76-1.87-.3A5.978,5.978,0,0,0,52,37.58V32.818a3.056,3.056,0,0,0,1.65-1.428,2.975,2.975,0,0,0,3.74-3.74,2.986,2.986,0,0,0,0-5.3,2.975,2.975,0,0,0-3.74-3.74,2.986,2.986,0,0,0-5.3,0,2.975,2.975,0,0,0-3.74,3.74,2.986,2.986,0,0,0,0,5.3,2.975,2.975,0,0,0,3.74,3.74A3.056,3.056,0,0,0,50,32.818V37.58A5.978,5.978,0,0,0,43.79,34.46ZM49,25a2,2,0,1,1,2,2A2.006,2.006,0,0,1,49,25Z"></path><path d="M12,23V19a2.006,2.006,0,0,0-2,2,2.015,2.015,0,0,0,2,2Z"></path><path d="M30,41.4A8.16,8.16,0,0,1,23,45a8.16,8.16,0,0,1-7-3.6V48H30Z"></path><rect x="17" y="55" width="12" height="5"></rect><path d="M23,15c-5.85,0-8.85,1.46-9,2.01V24a9,9,0,0,0,18,0V17.01C31.83,16.45,28.83,15,23,15Zm-6,6a2,2,0,1,1,2,2A2,2,0,0,1,17,21Zm6,8a5.01,5.01,0,0,1-3.532-1.458l1.4-1.424a3.082,3.082,0,0,0,4.256,0l1.4,1.424A5.01,5.01,0,0,1,23,29Zm4-6a2,2,0,1,1,2-2A2,2,0,0,1,27,23Z"></path><path d="M33.95,25a11.042,11.042,0,0,1-5.89,8.76A2.019,2.019,0,0,0,29,34a1.99,1.99,0,0,0,1.92-1.48,1.071,1.071,0,0,1,.52-.64,1.085,1.085,0,0,1,.83-.03A1.835,1.835,0,0,0,33,32a2.006,2.006,0,0,0,2-2,1.965,1.965,0,0,0-.63-1.45,1,1,0,0,1,.33-1.68A1.991,1.991,0,0,0,36,25a1.7,1.7,0,0,0-.08-.51A3.961,3.961,0,0,1,34,25Z"></path><path d="M23,43a6,6,0,0,0,5.68-3.43l-1.98-.62A.987.987,0,0,1,26,38V34.63a.218.218,0,0,1-.04-.05,10.64,10.64,0,0,1-5.92,0,.218.218,0,0,1-.04.05V38a.987.987,0,0,1-.7.95l-1.98.62A6,6,0,0,0,23,43Z"></path><path d="M34,19v4a2.015,2.015,0,0,0,2-2A2.006,2.006,0,0,0,34,19Z"></path></g></svg>