<svg xmlns="http://www.w3.org/2000/svg" viewBox="0 0 64 64" x="0px" y="0px"><g><path d="M61.5,41.13,57,38.56V31a3.009,3.009,0,0,0-3-3H44V19a1,1,0,0,0-1-1H36.24l1.03-1.02a1.008,1.008,0,0,0,0-1.42l-2.83-2.83a1.008,1.008,0,0,0-1.42,0l-1.76,1.76A14.944,14.944,0,0,0,26,12.3V10h1a1,1,0,0,0,1-1V5a1,1,0,0,0-1-1H19a1,1,0,0,0-1,1V9a1,1,0,0,0,1,1h1v2.3a14.944,14.944,0,0,0-5.26,2.19l-1.76-1.76a1.008,1.008,0,0,0-1.42,0L8.73,15.56a1.033,1.033,0,0,0-.29.71,1.052,1.052,0,0,0,.29.71L9.76,18H3a1,1,0,0,0-1,1V53a1,1,0,0,0,1,1H6.1a4.988,4.988,0,0,0,9.4,1.14A4.988,4.988,0,0,0,24.9,54H48.1a5,5,0,0,0,9.8,0H61a1,1,0,0,0,1-1V42A1,1,0,0,0,61.5,41.13ZM33.73,14.85l1.42,1.42-.87.87a15.858,15.858,0,0,0-1.42-1.42ZM20,6h6V8H20Zm4,4v2.05c-.33-.02-.66-.05-1-.05s-.67.03-1,.05V10ZM12.27,14.85l.87.87a15.858,15.858,0,0,0-1.42,1.42l-.87-.87ZM23,14a13,13,0,1,1-4.99,25H21V37.81A11.04,11.04,0,1,0,12.19,29H10.17A13.161,13.161,0,0,1,10,27,13.012,13.012,0,0,1,23,14ZM15.47,35a10.923,10.923,0,0,0,2.97,2H14.71a13.109,13.109,0,0,1-1.94-2Zm-3.99-2a13.009,13.009,0,0,1-.84-2h2.12a11.455,11.455,0,0,0,1.03,2Zm4.83,0a8.827,8.827,0,0,1-1.36-2H17V29H14.23A8.759,8.759,0,0,1,14,27a9.031,9.031,0,1,1,4.9,8H19V33ZM4,20H9.74A14.873,14.873,0,0,0,8,27a14.712,14.712,0,0,0,.15,2H4Zm7,36a3,3,0,1,1,3-3A3.009,3.009,0,0,1,11,56Zm9,0a3,3,0,1,1,3-3A3.009,3.009,0,0,1,20,56Zm22-4H24.9a4.988,4.988,0,0,0-9.4-1.14A4.988,4.988,0,0,0,6.1,52H4V46H42Zm0-8H4V31H8.56a14.769,14.769,0,0,0,.7,2H6v2h4.33a14.836,14.836,0,0,0,1.52,2H8v2h6.04A14.858,14.858,0,0,0,23,42,14.99,14.99,0,0,0,36.26,20H42Zm9-14h3a1,1,0,0,1,1,1v7H51Zm2,26a3,3,0,1,1,3-3A3.009,3.009,0,0,1,53,56Zm7-9H58V45h2Zm0-4H57a1,1,0,0,0-1,1v4a1,1,0,0,0,1,1h3v3H57.9a5,5,0,0,0-9.8,0H44V30h5v9a1,1,0,0,0,1,1h5.49a.01.01,0,0,1,.01.01L60,42.58Z"></path><rect x="50" y="42" width="4" height="2"></rect><polygon points="11 58 2 58 2 60 62 60 62 58 53 58 20 58 11 58"></polygon><path d="M23,30a3,3,0,0,0,3-3,2.951,2.951,0,0,0-.3-1.285l3.008-3.008-1.414-1.414L24.285,24.3A2.965,2.965,0,0,0,23,24a3,3,0,0,0,0,6Zm0-4a1,1,0,1,1-1,1A1,1,0,0,1,23,26Z"></path><rect x="10" y="52" width="2" height="2"></rect><rect x="19" y="52" width="2" height="2"></rect><rect x="52" y="52" width="2" height="2"></rect></g></svg>