<svg xmlns="http://www.w3.org/2000/svg" viewBox="0 0 64 64" x="0px" y="0px"><g><path d="M47,43.816A3,3,0,0,0,49,41V37a3,3,0,0,0-2.042-2.829,14.98,14.98,0,0,0-29.916,0A3,3,0,0,0,15,37v4a3,3,0,0,0,3,3h1.184A2.993,2.993,0,0,0,25,43V35a2.993,2.993,0,0,0-5.816-1h-.133a12.987,12.987,0,0,1,25.9,0h-.133A2.993,2.993,0,0,0,39,35v8a2.993,2.993,0,0,0,5.816,1H45v1a3,3,0,0,1-3,3H39.816a3,3,0,1,0,0,2H42a5.006,5.006,0,0,0,5-5ZM17,41V37a1,1,0,0,1,1-1h1v6H18A1,1,0,0,1,17,41Zm4-6a1,1,0,0,1,2,0v8a1,1,0,0,1-2,0ZM37,50a1,1,0,1,1,1-1A1,1,0,0,1,37,50Zm10-9a1,1,0,0,1-1,1H45V36h1a1,1,0,0,1,1,1Zm-4,2a1,1,0,0,1-2,0V35a1,1,0,0,1,2,0Z"></path><path d="M55,2H9A7.008,7.008,0,0,0,2,9V55a7.008,7.008,0,0,0,7,7H55a7.008,7.008,0,0,0,7-7V9A7.008,7.008,0,0,0,55,2ZM9,4H55a5.006,5.006,0,0,1,5,5v3H4V9A5.006,5.006,0,0,1,9,4ZM55,60H9a5.006,5.006,0,0,1-5-5V14H60V55A5.006,5.006,0,0,1,55,60Z"></path><rect x="8" y="7" width="2" height="2"></rect><rect x="12" y="7" width="2" height="2"></rect><rect x="16" y="7" width="2" height="2"></rect><path d="M49.414,20H52V18H49a1,1,0,0,0-.707.293l-3,3,1.414,1.414Z"></path><rect x="54" y="18" width="4" height="2"></rect><rect x="54" y="22" width="4" height="2"></rect><path d="M47.707,51.293l-1.414,1.414,1,1A1,1,0,0,0,48,54h2V52H48.414Z"></path><path d="M55,50a3,3,0,1,0,3,3A3,3,0,0,0,55,50Zm0,4a1,1,0,1,1,1-1A1,1,0,0,1,55,54Z"></path><path d="M17.293,22.707l1.414-1.414-3-3A1,1,0,0,0,15,18H12v2h2.586Z"></path><rect x="6" y="18" width="4" height="2"></rect><rect x="6" y="22" width="4" height="2"></rect><path d="M15.586,52H14v2h2a1,1,0,0,0,.707-.293l4-4-1.414-1.414Z"></path><path d="M9,50a3,3,0,1,0,3,3A3,3,0,0,0,9,50Zm0,4a1,1,0,1,1,1-1A1,1,0,0,1,9,54Z"></path></g></svg>