<svg xmlns="http://www.w3.org/2000/svg" viewBox="0 0 64 64" x="0px" y="0px"><g><path d="M15,60H49a1,1,0,0,0,1-1V17a1,1,0,0,0-1-1H48V57a1,1,0,0,1-1,1H17a1,1,0,0,1-1-1V16H15a1,1,0,0,0-1,1V59A1,1,0,0,0,15,60Z"></path><path d="M18,16V56H46V16H42v3a1,1,0,0,1-1,1H23a1,1,0,0,1-1-1V16Zm4,12h6v2H22Zm0,4H34v2H22Zm0,8h6v2H22Zm14,4v2H26V44ZM22,44h2v2H22ZM42,54H22V52H42Zm0-4H22V48H42Zm0-4H38V44h4Zm0-4H30V40H42Zm0-4H22V36H42Zm0-4H36V32h6Zm0-4H38V28h4Zm-6-6h6v2H36Zm0,6H30V28h6Zm-2-6v2H22V24Z"></path><polygon points="24 12 24 18 27.165 18 28.256 12 24 12"></polygon><polygon points="34.802 18 33.711 12 30.289 12 29.198 18 34.802 18"></polygon><polygon points="40 18 40 12 35.744 12 36.835 18 40 18"></polygon><path d="M38,5.4v.16A2.978,2.978,0,0,1,35.95,8.4l-.81.27L35.38,10H33.35l-.33-1.82a1,1,0,0,1,.66-1.13l1.64-.54A1,1,0,0,0,36,5.56V5.4a1.012,1.012,0,0,0-.75-.97,12.5,12.5,0,0,0-6.5,0A1.012,1.012,0,0,0,28,5.4v.16a1,1,0,0,0,.68.95l1.64.54a1,1,0,0,1,.66,1.13L30.65,10H28.62l.24-1.33-.81-.27A2.978,2.978,0,0,1,26,5.56V5.4a3.013,3.013,0,0,1,2.22-2.89,14.263,14.263,0,0,1,7.56,0A3.013,3.013,0,0,1,38,5.4Z"></path></g></svg>