<svg xmlns="http://www.w3.org/2000/svg" viewBox="0 0 64 64" x="0px" y="0px"><g data-name="Coffee Shop-Food-Restaurant-Coffee-Building"><path d="M61,53H53V26.9A5.017,5.017,0,0,0,57,22a.986.986,0,0,0-.03-.24l-1.98-7.94-1-7.94A1,1,0,0,0,53,5H11a1,1,0,0,0-.99.88l-1,7.94L7.03,21.76A.986.986,0,0,0,7,22a5.017,5.017,0,0,0,4,4.9V53H3a1,1,0,0,0-1,1v4a1,1,0,0,0,1,1H61a1,1,0,0,0,1-1V54A1,1,0,0,0,61,53ZM53.22,15,55,22.11A3,3,0,0,1,49,22V15ZM30,35H18a1,1,0,0,0-1,1V53H13V26.9a4.977,4.977,0,0,0,3-1.93,4.956,4.956,0,0,0,8,0,4.956,4.956,0,0,0,8,0,4.956,4.956,0,0,0,8,0,4.956,4.956,0,0,0,8,0,4.977,4.977,0,0,0,3,1.93V53H31V36A1,1,0,0,0,30,35Zm-1,2V53H19V37ZM17,22V15h6v7a3,3,0,0,1-6,0Zm8,0V15h6v7a3,3,0,0,1-6,0Zm8,0V15h6v7a3,3,0,0,1-6,0Zm8,0V15h6v7a3,3,0,0,1-6,0ZM11.88,7H52.12l.75,6H11.13ZM9,22.11,10.78,15H15v7a3,3,0,0,1-6,.11ZM60,57H4V55H60Z"></path><path d="M45.61,39H35.11a2.007,2.007,0,0,0-1.49.66,1.979,1.979,0,0,0-.5,1.54l.61,6.2A3.994,3.994,0,0,0,37.71,51h2.58a3.994,3.994,0,0,0,3.98-3.6l.08-.87,2.52-1A3.356,3.356,0,0,0,49,42.39,3.393,3.393,0,0,0,45.61,39Zm-3.33,8.2A2,2,0,0,1,40.29,49H37.71a2,2,0,0,1-1.99-1.8L35.11,41H42.9Zm3.85-3.53-1.55.62L44.91,41h.7A1.387,1.387,0,0,1,47,42.39,1.366,1.366,0,0,1,46.13,43.67Z"></path><path d="M38.832,34.555A5.744,5.744,0,0,0,40,31H38a3.78,3.78,0,0,1-.832,2.445A5.744,5.744,0,0,0,36,37h2A3.78,3.78,0,0,1,38.832,34.555Z"></path><path d="M42,37a3.78,3.78,0,0,1,.832-2.445A5.744,5.744,0,0,0,44,31H42a3.78,3.78,0,0,1-.832,2.445A5.744,5.744,0,0,0,40,37Z"></path><rect x="21" y="44" width="2" height="2"></rect></g></svg>