<svg xmlns="http://www.w3.org/2000/svg" viewBox="0 0 64 64" x="0px" y="0px"><g><polygon points="6 44 8 44 8 46 10 46 10 44 12 44 12 42 6 42 6 44"></polygon><path d="M61.74,12.33l-9-10A1,1,0,0,0,52,2H23a5,5,0,0,0-5,5V24H15a5,5,0,0,0-5,5v3H5a3.009,3.009,0,0,0-3,3V55a3.009,3.009,0,0,0,3,3H18.1A5.017,5.017,0,0,0,23,62H57a5,5,0,0,0,5-5V13A.971.971,0,0,0,61.74,12.33ZM53,5.61,58.75,12H54a1,1,0,0,1-1-1ZM16,26h6v2H16Zm6,4v2H20V30Zm-6,0h2v2H16Zm-4-1a3.014,3.014,0,0,1,2-2.83V32H12ZM4,35a1,1,0,0,1,1-1H33a1,1,0,0,1,1,1v1H4Zm20-3V26.17A3.014,3.014,0,0,1,26,29v3Zm10,6V55a1,1,0,0,1-1,1H30.97A4.924,4.924,0,0,0,32,53V38Zm-4,0v1a3.009,3.009,0,0,1-3,3H19a3.009,3.009,0,0,1-3-3V38ZM5,56a1,1,0,0,1-1-1V38H14V53a4.924,4.924,0,0,0,1.03,3Zm14,0a3.009,3.009,0,0,1-3-3V42.97A4.924,4.924,0,0,0,19,44h8a4.924,4.924,0,0,0,3-1.03V53a3.009,3.009,0,0,1-3,3Zm41,1a3.009,3.009,0,0,1-3,3H23a3.01,3.01,0,0,1-2.82-2H33a3.009,3.009,0,0,0,3-3V35a3.009,3.009,0,0,0-3-3H28V29a5,5,0,0,0-5-5H20V7a3.009,3.009,0,0,1,3-3H51v7a3.009,3.009,0,0,0,3,3h6Z"></path><rect x="24" y="8" width="12" height="2"></rect><rect x="38" y="8" width="4" height="2"></rect><rect x="24" y="12" width="18" height="2"></rect><path d="M55,18H39a1,1,0,0,0-1,1v8a1,1,0,0,0,1,1H55a1,1,0,0,0,1-1V19A1,1,0,0,0,55,18Zm-1,8H40V20H54Z"></path><rect x="28" y="18" width="8" height="2"></rect><rect x="24" y="18" width="2" height="2"></rect><rect x="28" y="22" width="8" height="2"></rect><rect x="42" y="32" width="14" height="2"></rect><rect x="38" y="32" width="2" height="2"></rect><rect x="38" y="36" width="18" height="2"></rect><rect x="38" y="40" width="18" height="2"></rect><rect x="38" y="44" width="18" height="2"></rect><rect x="38" y="48" width="18" height="2"></rect><rect x="38" y="52" width="18" height="2"></rect></g></svg>