<svg xmlns="http://www.w3.org/2000/svg" viewBox="0 0 64 64" x="0px" y="0px"><g data-name="Barista-Waiter-Man-Coffee Shop-Coffee"><path d="M35.308,22.75l-1.325-1.5a3.074,3.074,0,0,1-3.966,0l-1.325,1.5a5,5,0,0,0,6.616,0Z"></path><circle cx="28" cy="17" r="2"></circle><circle cx="36" cy="17" r="2"></circle><path d="M61,30H54a3.009,3.009,0,0,0-3,3v1.85l-1.81,5.89a8.991,8.991,0,0,0-5.87-6.36l-3.78-1.25L37,30.59V28.65A10.023,10.023,0,0,0,42,20h.5a3.5,3.5,0,0,0,0-7H42V6a1,1,0,0,0-1-1H38V3a1,1,0,0,0-1-1H27a5,5,0,0,0-5,5v6h-.5a3.5,3.5,0,0,0,0,7H22a10.023,10.023,0,0,0,5,8.65v1.94l-2.54,2.54-3.78,1.25a8.991,8.991,0,0,0-5.87,6.36L13,34.85V33a2.959,2.959,0,0,0-.92-2.15,3.989,3.989,0,0,0,1.19-2.45l.08-.86,2.52-1.01A3.356,3.356,0,0,0,18,23.39,3.393,3.393,0,0,0,14.61,20H4.1a2,2,0,0,0-1.48.66,2.025,2.025,0,0,0-.51,1.54l.62,6.2A4.146,4.146,0,0,0,3.26,30H3a1,1,0,0,0-1,1v2a3,3,0,0,0,2.2,2.88L7.47,47.85a8.987,8.987,0,0,0,8.68,6.63A9.092,9.092,0,0,0,20,53.61V61a1,1,0,0,0,1,1H43a1,1,0,0,0,1-1V53.61a8.988,8.988,0,0,0,7.52.09,8.985,8.985,0,0,0,5.01-5.85L59.8,35.88A3,3,0,0,0,62,33V31A1,1,0,0,0,61,30ZM42,15h.5a1.5,1.5,0,0,1,0,3H42ZM22,18h-.5a1.5,1.5,0,0,1,0-3H22Zm-8.09,4h.7A1.387,1.387,0,0,1,16,23.39a1.366,1.366,0,0,1-.87,1.28l-1.55.62ZM11.9,22l-.63,6.2A1.98,1.98,0,0,1,9.29,30H6.71a1.98,1.98,0,0,1-1.98-1.8L4.1,22ZM4,33V32h6a1,1,0,0,1,1,1v1H5A1,1,0,0,1,4,33ZM20,51.38l-.72.36A6.992,6.992,0,0,1,9.4,47.32L6.31,36h4.95l3.78,12.29,1.92-.58-.67-2.16.27-3.21A6.956,6.956,0,0,1,20,36.9ZM37.78,34.2l-2.14,4.28-2.28-1.71,2.8-4.2ZM32,35.2l-3-4.5V29.54a10.013,10.013,0,0,0,6,0V30.7ZM38,8V7h2v3.18A3,3,0,0,0,39,10H37.47A3.918,3.918,0,0,0,38,8ZM24,7a3.009,3.009,0,0,1,3-3h9V8c0,.49,0,2-3,2H25a3,3,0,0,0-1,.18Zm0,13V13a1,1,0,0,1,1-1H39a1,1,0,0,1,1,1v7a8,8,0,0,1-16,0Zm3.84,12.57,2.8,4.2-2.28,1.71L26.22,34.2ZM26,38.24l1.11,2.21a.967.967,0,0,0,.66.52A.908.908,0,0,0,28,41a1.006,1.006,0,0,0,.6-.2L32,38.25l3.4,2.55a1.029,1.029,0,0,0,.6.2.908.908,0,0,0,.23-.03.967.967,0,0,0,.66-.52L38,38.24V41H26Zm-4-2.19,2-.66V41H22ZM42,60H22V43H42Zm0-19H40V35.39l2,.66Zm12.6,6.32a6.992,6.992,0,0,1-9.88,4.42L44,51.38V36.9a6.956,6.956,0,0,1,3.44,5.44l.27,3.21-.67,2.16,1.92.58L52.74,36h4.95ZM60,33a1,1,0,0,1-1,1H53V33a1,1,0,0,1,1-1h6Z"></path><path d="M25,46a1,1,0,0,0-1,1V57a1,1,0,0,0,1,1H39a1,1,0,0,0,1-1V47a1,1,0,0,0-1-1ZM38,56H26V48H38Z"></path><path d="M62,24c0-3.309-2.243-6-5-6s-5,2.691-5,6,2.243,6,5,6S62,27.309,62,24Zm-8,0a4.634,4.634,0,0,1,1-2.961,5.747,5.747,0,0,0,1.166,3.516A3.78,3.78,0,0,1,57,27a3.438,3.438,0,0,1-.139.981C55.272,27.882,54,26.142,54,24Zm5,2.961a5.747,5.747,0,0,0-1.166-3.516A3.78,3.78,0,0,1,57,21a3.438,3.438,0,0,1,.139-.981C58.728,20.118,60,21.858,60,24A4.634,4.634,0,0,1,59,26.961Z"></path></g></svg>