<svg xmlns="http://www.w3.org/2000/svg" viewBox="0 0 64 64" x="0px" y="0px"><title>Online Shopping</title><g data-name="Online Shopping"><path d="M61.127,8.873A3,3,0,0,0,59.02,8H4.98A2.984,2.984,0,0,0,2,10.98V47.02A2.984,2.984,0,0,0,4.98,50H24v6H23a1,1,0,0,0-1,1v3H18v2H46V60H42V57a1,1,0,0,0-1-1H40V50H59.02A2.984,2.984,0,0,0,62,47.02V10.98A3,3,0,0,0,61.127,8.873ZM24,60V58H40v2Zm14-4H26V50H38Zm22-8.98a.98.98,0,0,1-.98.98H4.98A.98.98,0,0,1,4,47.02V10.98A.98.98,0,0,1,4.98,10H59.02a.982.982,0,0,1,.98.98Z"></path><rect x="8" y="40" width="48" height="2"></rect><rect x="30" y="44" width="4" height="2"></rect><rect x="31" y="26" width="2" height="6"></rect><rect x="37" y="26" width="2" height="6"></rect><rect x="25" y="26" width="2" height="6"></rect><path d="M19,24h.08L20,35.083A1,1,0,0,0,21,36H43a1,1,0,0,0,1-.917L44.92,24H45a1,1,0,0,0,1-1V19a1,1,0,0,0-1-1H38.72l-1.772-5.316-1.9.632L36.613,18H27.387l1.561-4.684-1.9-.632L25.28,18H19a1,1,0,0,0-1,1v4A1,1,0,0,0,19,24ZM42.08,34H21.92l-.833-10H42.913ZM20,20H44v2H20Z"></path></g></svg>