<svg xmlns="http://www.w3.org/2000/svg" viewBox="0 0 64 64" x="0px" y="0px"><title>Team work</title><g data-name="Team work"><path d="M44,24a9.01,9.01,0,0,0-9-9H29a9.01,9.01,0,0,0-9,9V35H44Zm-2,9H40V26H38v7H26V26H24v7H22V24a7.008,7.008,0,0,1,7-7h6a7.008,7.008,0,0,1,7,7Z"></path><path d="M32,14a5.006,5.006,0,0,0,5-5V7c0-.063-.009-.12-.011-.181A3,3,0,0,0,39,4V2H30a3,3,0,0,0-3,3V9A5.006,5.006,0,0,0,32,14ZM30,4h7a1,1,0,0,1-1,1H29A1,1,0,0,1,30,4Zm5,3V9a3,3,0,0,1-6,0V7Z"></path><path d="M53,46a4,4,0,0,0,4-4c0-.061-.013-.119-.016-.179A3,3,0,0,0,59,39V37H52a3,3,0,0,0-3,3v2A4,4,0,0,0,53,46Zm-1-7h5a1,1,0,0,1-1,1H51A1,1,0,0,1,52,39Zm3,3a2,2,0,0,1-4,0Z"></path><path d="M56.724,47H49.276A5.282,5.282,0,0,0,44,52.276V59h3v3H59V59h3V52.276A5.282,5.282,0,0,0,56.724,47ZM60,57H59V53H57v7H49V53H47v4H46V52.276A3.28,3.28,0,0,1,49.276,49h7.448A3.28,3.28,0,0,1,60,52.276Z"></path><path d="M35.724,47H28.276A5.282,5.282,0,0,0,23,52.276V59h3v3H38V59h3V52.276A5.282,5.282,0,0,0,35.724,47ZM39,57H38V53H36v7H28V53H26v4H25V52.276A3.28,3.28,0,0,1,28.276,49h7.448A3.28,3.28,0,0,1,39,52.276Z"></path><path d="M38,39V37H31a3,3,0,0,0-3,3v2a4,4,0,0,0,8,0c0-.061-.013-.119-.016-.179A3,3,0,0,0,38,39Zm-6,5a2,2,0,0,1-2-2h4A2,2,0,0,1,32,44Zm3-4H30a1,1,0,0,1,1-1h5A1,1,0,0,1,35,40Z"></path><path d="M11,46a4,4,0,0,0,4-4c0-.061-.013-.119-.016-.179A3,3,0,0,0,17,39V37H10a3,3,0,0,0-3,3v2A4,4,0,0,0,11,46Zm-1-7h5a1,1,0,0,1-1,1H9A1,1,0,0,1,10,39Zm3,3a2,2,0,0,1-4,0Z"></path><path d="M14.724,47H7.276A5.282,5.282,0,0,0,2,52.276V59H5v3H17V59h3V52.276A5.282,5.282,0,0,0,14.724,47ZM18,57H17V53H15v7H7V53H5v4H4V52.276A3.28,3.28,0,0,1,7.276,49h7.448A3.28,3.28,0,0,1,18,52.276Z"></path></g></svg>