<svg xmlns="http://www.w3.org/2000/svg" viewBox="0 0 64 64" x="0px" y="0px"><g><rect x="35" y="12" width="6" height="4"></rect><rect x="37" y="18" width="2" height="17"></rect><path d="M50,37H41V57a1,1,0,0,1-1,1H36a1,1,0,0,1-1-1V37H26V57a3.009,3.009,0,0,0,3,3H47a3.009,3.009,0,0,0,3-3Z"></path><rect x="23" y="4" width="2" height="2"></rect><rect x="37" y="37" width="2" height="19"></rect><path d="M35,35V18h-.43L27.85,29.19A13.029,13.029,0,0,0,26.03,35Z"></path><path d="M29,13V12H27v3.83A3.014,3.014,0,0,0,29,13Z"></path><path d="M40,4H27v6H45V9A5,5,0,0,0,40,4Z"></path><path d="M48.15,29.19,41.43,18H41V35h8.97A13.029,13.029,0,0,0,48.15,29.19Z"></path><rect x="17" y="4" width="2" height="2"></rect><rect x="13" y="4" width="2" height="2"></rect><rect x="9" y="4" width="2" height="2"></rect><rect x="17" y="8" width="2" height="2"></rect><rect x="13" y="9" width="2" height="2"></rect><rect x="9" y="10" width="2" height="2"></rect><rect x="17" y="12" width="2" height="2"></rect><rect x="13" y="14" width="2" height="2"></rect><rect x="9" y="16" width="2" height="2"></rect></g></svg>