<svg xmlns="http://www.w3.org/2000/svg" viewBox="0 0 64 64" x="0px" y="0px"><g><rect x="22" y="26" width="4" height="3"></rect><path d="M12,24H36V10H12Zm1-12a1,1,0,0,1,1-1h4v2H15v3H13Z"></path><rect x="46" y="9" width="8" height="6"></rect><rect x="46" y="17" width="8" height="2"></rect><path d="M46,29h8V21H46Zm3-3h2v2H49Z"></path><rect x="5" y="31" width="54" height="2"></rect><path d="M41,35v7H55V35Zm9,3H46V36h4Z"></path><path d="M41,60H55V53H41Zm5-6h4v2H46Z"></path><path d="M41,51H55V44H41Zm5-6h4v2H46Z"></path><path d="M9,35V60h2V40H39V35H9Zm13,1h4v2H22Z"></path></g></svg>