<svg xmlns="http://www.w3.org/2000/svg" viewBox="0 0 64 64" x="0px" y="0px"><title>Online Store</title><g data-name="Online Store"><path d="M61,49H60V16a3,3,0,0,0-3-3H50v2h7a1,1,0,0,1,1,1V49H6V16a1,1,0,0,1,1-1H24V13H7a3,3,0,0,0-3,3V49H3a1,1,0,0,0-1,1v4a3,3,0,0,0,3,3H59a3,3,0,0,0,3-3V50A1,1,0,0,0,61,49Zm-1,5a1,1,0,0,1-1,1H5a1,1,0,0,1-1-1V51H27v1a1,1,0,0,0,1,1h8a1,1,0,0,0,1-1V51H60Z"></path><path d="M56,46V42H54v3H51v2h4A1,1,0,0,0,56,46Z"></path><path d="M43.184,27H32.816a3,3,0,1,0,0,2H43.184a3,3,0,1,0,0-2ZM30,29a1,1,0,1,1,1-1A1,1,0,0,1,30,29Zm17-1a1,1,0,1,1-1-1A1,1,0,0,1,47,28Z"></path><path d="M28.022,23.21A1,1,0,0,0,29,24H46a1,1,0,0,0,.994-.89l1-9A1,1,0,0,0,47,13H27.88l-.9-4.21A1,1,0,0,0,26,8H22v2h3.191ZM29.809,22l-.215-1H45.216l-.111,1Zm-.643-3-.215-1h16.6l-.111,1Zm16.717-4-.111,1H28.523l-.214-1Z"></path><rect x="21" y="18" width="4" height="2"></rect><rect x="17" y="18" width="2" height="2"></rect><rect x="17" y="22" width="8" height="2"></rect><rect x="13" y="22" width="2" height="2"></rect><rect x="31" y="35" width="2" height="2"></rect><rect x="37" y="35" width="2" height="2"></rect><rect x="25" y="35" width="2" height="2"></rect><rect x="47" y="45" width="2" height="2"></rect></g></svg>