<svg xmlns="http://www.w3.org/2000/svg" viewBox="0 0 64 64" x="0px" y="0px"><g data-name="Bull Terrier-Dog"><path d="M44,48a1,1,0,0,1,.992.876L45.883,56H47V44H42v2A2,2,0,0,0,44,48Z"></path><path d="M52,49a1,1,0,0,1,.995.9l.91,9.1H55V32H32a1,1,0,0,1-.625-.219l-3.386-2.709a.988.988,0,0,1-.157.483l-6.143,9.214L23.6,40.2a1,1,0,0,1,.4.8V58h2.074L27,45.923A1,1,0,0,1,28,45h4a1,1,0,0,1,1,.929L33.931,59H36V46a1,1,0,0,1,.4-.8l4-3A1,1,0,0,1,41,42h6V40h2v6A3,3,0,0,0,52,49Z"></path><path d="M60,27.333,57.2,23.6A1,1,0,0,1,57,23V20.269A2,2,0,0,0,56,22v2.586l1.707,1.707A1,1,0,0,1,58,27v3a1.993,1.993,0,0,1-1,1.722V34a3,3,0,0,0,3-3Z"></path><path d="M22,20.414,20.586,19H18.414L16,21.414V24.7L17.535,27H19.7L22,25.465ZM20,25H18V23h2Z"></path><path d="M14.455,42.89,14.24,43h2.225L26,28.7V18.58L19.734,15h-7.32L4,23.414V36.68L8.515,43H9.849l3.441-1.76,2.853-4.755,1.714,1.03-3,5A1,1,0,0,1,14.455,42.89ZM6,23H8v2H6Zm7,15a1,1,0,0,1-.293.707l-1,1A1,1,0,0,1,11,40H9a1,1,0,0,1-.707-.293l-1-1A1,1,0,0,1,7,38V36H9v1.586L9.414,38h1.172L11,37.586V36h2Zm4-9a1,1,0,0,1-.832-.445l-2-3A1.006,1.006,0,0,1,14,25V21a1,1,0,0,1,.293-.707l3-3A1,1,0,0,1,18,17h3a1,1,0,0,1,.707.293l2,2A1,1,0,0,1,24,20v6a1,1,0,0,1-.445.832l-3,2A1.006,1.006,0,0,1,20,29Z"></path><polygon points="22 11.205 22 13.991 27.265 17 28 17 28 13.259 24.116 6.268 22 11.205"></polygon><path d="M13,13V11.236L10.941,7.119,8,12.266v4.32l3.293-3.293A1,1,0,0,1,12,13Z"></path></g></svg>