<svg xmlns="http://www.w3.org/2000/svg" viewBox="0 0 32 32" x="0px" y="0px"><g><rect x="9" y="3" width="2" height="3"></rect><rect x="21" y="3" width="2" height="3"></rect><rect x="15" y="16" width="2" height="2"></rect><rect x="23" y="24" width="2" height="2"></rect><path d="M3,6A1,1,0,0,0,2,7v3H30V7a1,1,0,0,0-1-1H23V8H21V6H11V8H9V6Z"></path><rect x="23" y="16" width="2" height="2"></rect><rect x="15" y="24" width="2" height="2"></rect><path d="M3,30H29a1,1,0,0,0,1-1V12H2V29A1,1,0,0,0,3,30ZM21,15a1,1,0,0,1,1-1h4a1,1,0,0,1,1,1v4a1,1,0,0,1-1,1H22a1,1,0,0,1-1-1Zm0,8a1,1,0,0,1,1-1h4a1,1,0,0,1,1,1v4a1,1,0,0,1-1,1H22a1,1,0,0,1-1-1Zm-8-8a1,1,0,0,1,1-1h4a1,1,0,0,1,1,1v4a1,1,0,0,1-1,1H14a1,1,0,0,1-1-1Zm0,8a1,1,0,0,1,1-1h4a1,1,0,0,1,1,1v4a1,1,0,0,1-1,1H14a1,1,0,0,1-1-1ZM5,15a1,1,0,0,1,1-1h4a1,1,0,0,1,1,1v4a1,1,0,0,1-1,1H6a1,1,0,0,1-1-1Zm0,8a1,1,0,0,1,1-1h4a1,1,0,0,1,1,1v4a1,1,0,0,1-1,1H6a1,1,0,0,1-1-1Z"></path><rect x="7" y="24" width="2" height="2"></rect><rect x="7" y="16" width="2" height="2"></rect></g></svg>