<svg xmlns="http://www.w3.org/2000/svg" viewBox="0 0 64 64" x="0px" y="0px"><g data-name="Planing-Worker-Hand-Thumb up-Document"><path d="M61.74,12.33l-9-10A1,1,0,0,0,52,2H17a5,5,0,0,0-5,5V42a1,1,0,0,0-1-1H3a1,1,0,0,0-1,1V56a1,1,0,0,0,1,1h8a1,1,0,0,0,1-1v1a5,5,0,0,0,5,5H57a5,5,0,0,0,5-5V13A.971.971,0,0,0,61.74,12.33ZM10,55H4V43h6ZM53,5.61,58.75,12H54a1,1,0,0,1-1-1ZM12,54V44h2a1.014,1.014,0,0,0,.8-.4l3-4A.984.984,0,0,0,18,39V36a1,1,0,0,1,2,0v5a1,1,0,0,0,1,1h8a1,1,0,0,1,0,2H26a1,1,0,0,0,0,2h3a1,1,0,0,1,0,2H26a1,1,0,0,0,0,2h2a1,1,0,0,1,0,2H26a1,1,0,0,0,0,2h1a1,1,0,0,1,0,2H18.24l-3.79-1.89A1,1,0,0,0,14,54Zm48,3a3.009,3.009,0,0,1-3,3H17a3.009,3.009,0,0,1-3-3v-.88l3.55,1.77A1,1,0,0,0,18,58h9a3.009,3.009,0,0,0,3-3,2.934,2.934,0,0,0-.39-1.47A3,3,0,0,0,31,51a2.934,2.934,0,0,0-.39-1.47A3,3,0,0,0,32,47a2.965,2.965,0,0,0-.77-2A2.965,2.965,0,0,0,32,43a3.009,3.009,0,0,0-3-3H22V36a3,3,0,0,0-6,0v2.67l-2,2.66V7a3.009,3.009,0,0,1,3-3H51v7a3.009,3.009,0,0,0,3,3h6Z"></path><path d="M45,20H37a1,1,0,0,0-1,1V53a1,1,0,0,0,1,1h8a1,1,0,0,0,1-1V21A1,1,0,0,0,45,20Zm-1,4H40v2h4v2H42v2h2v2H42v2h2v2H40v2h4v2H42v2h2v2H42v2h2v2H40v2h4v2H38V22h6Z"></path><path d="M57,20H49a1,1,0,0,0-1,1V44a1,1,0,0,0,.086.406l4,9a1,1,0,0,0,1.828,0l4-9A1,1,0,0,0,58,44V21A1,1,0,0,0,57,20Zm-1,2v4H50V22ZM50.539,45h4.922l-.889,2H51.428ZM50,43V28h2V43Zm4,0V28h2V43Zm-1.683,6h1.366L53,50.538Z"></path><path d="M45,8H19a1,1,0,0,0-1,1v6a1,1,0,0,0,1,1H45a1,1,0,0,0,1-1V9A1,1,0,0,0,45,8Zm-1,6H20V10H44Z"></path><rect x="18" y="20" width="14" height="2"></rect><rect x="18" y="24" width="14" height="2"></rect><rect x="18" y="28" width="14" height="2"></rect></g></svg>