<svg xmlns="http://www.w3.org/2000/svg" viewBox="0 0 64 64" x="0px" y="0px"><g><path d="M53,22H9a1,1,0,0,0-1,1V47a6.973,6.973,0,0,0,2.111,5H3a1,1,0,0,0-1,1v4a1,1,0,0,0,1,1H5.5l2.7,3.6A1,1,0,0,0,9,62H47a1,1,0,0,0,.8-.4L50.5,58H53a1,1,0,0,0,1-1V53a1,1,0,0,0-1-1H45.889A6.973,6.973,0,0,0,48,47V36h5a5.006,5.006,0,0,0,5-5V27A5.006,5.006,0,0,0,53,22ZM46.5,60H9.5L8,58H48ZM52,54v2H4V54Zm-6-7a5.006,5.006,0,0,1-5,5H15a5.006,5.006,0,0,1-5-5V24H46ZM56,31a3,3,0,0,1-3,3H48V24h5a3,3,0,0,1,3,3Z"></path><path d="M23,14a3,3,0,0,1,3-3h3a5.006,5.006,0,0,0,5-5V2H32V6a3,3,0,0,1-3,3H26a5.006,5.006,0,0,0-5,5v4h2Z"></path><path d="M33,18h2V16a3,3,0,0,1,3-3h3a5.006,5.006,0,0,0,5-5V4H44V8a3,3,0,0,1-3,3H38a5.006,5.006,0,0,0-5,5Z"></path></g></svg>