<svg xmlns="http://www.w3.org/2000/svg" viewBox="0 0 64 64" x="0px" y="0px"><g data-name="Avatar-Man-Men-Profile-Short Hair"><path d="M40.6,37.49l-3.49-1.1A2.982,2.982,0,0,1,35,33.53V31.57a10.68,10.68,0,0,1-6,0v1.96a2.982,2.982,0,0,1-2.11,2.86l-3.49,1.1C25.2,39.01,28.48,40,32,40S38.8,39.01,40.6,37.49Z"></path><path d="M39,8.42V11a3.01,3.01,0,0,0,2,2.82V13a8.967,8.967,0,0,0-1.45-4.88C39.38,8.23,39.19,8.32,39,8.42Z"></path><path d="M43,16v4a2.015,2.015,0,0,0,2-2A2.006,2.006,0,0,0,43,16Z"></path><path d="M45,60h6V45.88a6.964,6.964,0,0,0-4.91-6.68l-3.34-1.04C40.77,40.51,36.67,42,32,42s-8.77-1.49-10.75-3.84L17.91,39.2A6.964,6.964,0,0,0,13,45.88V60h6V48.41l-1.71-1.7,1.42-1.42,2,2A1.033,1.033,0,0,1,21,48V60H43V48a1.033,1.033,0,0,1,.29-.71l2-2,1.42,1.42L45,48.41Z"></path><path d="M37,11V9.24A16.468,16.468,0,0,1,32,10a16.468,16.468,0,0,1-5-.76V11a5.017,5.017,0,0,1-4,4.9V21a9,9,0,0,0,18,0V15.9A5.017,5.017,0,0,1,37,11ZM26,17a2,2,0,1,1,2,2A2,2,0,0,1,26,17Zm6,10a5.006,5.006,0,0,1-5-5h2a3,3,0,0,0,6,0h2A5.006,5.006,0,0,1,32,27Zm4-8a2,2,0,1,1,2-2A2,2,0,0,1,36,19Z"></path><path d="M23,13v.82A3.01,3.01,0,0,0,25,11V8.42c-.19-.1-.38-.19-.55-.3A8.967,8.967,0,0,0,23,13Z"></path><path d="M19,18a2.015,2.015,0,0,0,2,2V16A2.006,2.006,0,0,0,19,18Z"></path><path d="M25.74,6.55A13.243,13.243,0,0,0,32,8a13.243,13.243,0,0,0,6.26-1.45,8.959,8.959,0,0,0-12.52,0Z"></path></g></svg>