<svg xmlns="http://www.w3.org/2000/svg" viewBox="0 0 64 64" x="0px" y="0px"><g><circle cx="32" cy="42" r="1"></circle><path d="M47,50V7a3,3,0,0,0-3-3H20a3,3,0,0,0-3,3v3H43v2H17V57a3,3,0,0,0,3,3H44a3,3,0,0,0,3-3V52H21V50ZM26,8H24V6h2Zm4,0H28V6h2Zm1,47h2v2H31Zm1-10a3,3,0,1,1,3-3A3,3,0,0,1,32,45Zm4.251-8.837a1,1,0,0,1-1.414.008,4.12,4.12,0,0,0-5.674,0,1,1,0,0,1-1.406-1.422,6.021,6.021,0,0,1,8.486,0A1,1,0,0,1,36.251,36.163Zm4.238-4.237a1,1,0,0,1-1.414,0,10.009,10.009,0,0,0-14.15,0,1,1,0,1,1-1.41-1.418,12.008,12.008,0,0,1,16.97,0A1,1,0,0,1,40.489,31.926ZM19,15a1,1,0,0,1,1-1h4v2H21v3H19Zm1.7,12.7a1,1,0,1,1-1.416-1.412,17.947,17.947,0,0,1,25.436,0A1,1,0,1,1,43.3,27.7a15.948,15.948,0,0,0-22.6,0Z"></path></g></svg>