<svg xmlns="http://www.w3.org/2000/svg" viewBox="0 0 64 64" x="0px" y="0px"><g data-name="Double Bed"><path d="M9.949,36.684A1,1,0,0,0,9,36H5a1,1,0,0,0-.949.684l-2,6A1,1,0,0,0,3,44H6V60H4v2h6V60H8V44h3a1,1,0,0,0,.949-1.316ZM4.387,42l1.334-4H8.279l1.334,4Z"></path><path d="M61.949,42.684l-2-6A1,1,0,0,0,59,36H55a1,1,0,0,0-.949.684l-2,6A1,1,0,0,0,53,44h3V60H54v2h6V60H58V44h3a1,1,0,0,0,.949-1.316ZM54.387,42l1.334-4h2.558l1.334,4Z"></path><path d="M48,46.1V37a7.008,7.008,0,0,0-7-7H23a7.008,7.008,0,0,0-7,7v9.1A5.009,5.009,0,0,0,12,51V61a1,1,0,0,0,1,1H51a1,1,0,0,0,1-1V51A5.009,5.009,0,0,0,48,46.1ZM23,32H41a5.006,5.006,0,0,1,5,5v9H42V42a2,2,0,0,0-2-2H36a2,2,0,0,0-2,2v4H30V42a2,2,0,0,0-2-2H24a2,2,0,0,0-2,2v4H18V37A5.006,5.006,0,0,1,23,32ZM40,46H36V42h4ZM28,46H24V42h4ZM17,48H47a3,3,0,0,1,3,3v3H14V51A3,3,0,0,1,17,48ZM50,60H14V56H50Z"></path><path d="M21,19H43a3,3,0,0,0,3-3V10a3,3,0,0,0-3-3H21a3,3,0,0,0-3,3v6A3,3,0,0,0,21,19Zm19-2H24V15H40ZM20,10a1,1,0,0,1,1-1H43a1,1,0,0,1,1,1v6a1,1,0,0,1-1,1H42V14a1,1,0,0,0-1-1H23a1,1,0,0,0-1,1v3H21a1,1,0,0,1-1-1Z"></path><path d="M35,21a5.006,5.006,0,0,0,5,5V24a3,3,0,0,1-3-3Z"></path><path d="M24,24v2a5.006,5.006,0,0,0,5-5H27A3,3,0,0,1,24,24Z"></path><rect x="31" y="21" width="2" height="4"></rect></g></svg>