<svg xmlns="http://www.w3.org/2000/svg" viewBox="0 0 64 64" x="0px" y="0px"><g data-name="Smart Watch-Internet of Things-Wristwatch-Sync-Health"><path d="M28,14H14a5,5,0,0,0-5,5V33.75L5.02,38.23a11.059,11.059,0,0,0-2.76,7.99l.73,11.69-.96,3.85,1.94.48,1-4a1.021,1.021,0,0,0,.03-.3L4.26,46.1a9.055,9.055,0,0,1,2.26-6.55L9,36.76v8.17l-.33.57,1.73,1,3-5.2a1.01,1.01,0,0,1,1.37-.36,1,1,0,0,1,.36,1.36l-3,5.2a.994.994,0,0,0,.04,1.05l.89,1.34a5.615,5.615,0,0,1,0,6.22l-.89,1.34A.967.967,0,0,0,12,58v4h2V58.3l.72-1.08A7.54,7.54,0,0,0,15.37,50H28a5,5,0,0,0,5-5V19A5,5,0,0,0,28,14Zm3,31a3.009,3.009,0,0,1-3,3H14.2l-.02-.04,2.69-4.66a3.007,3.007,0,0,0,.38-1.3H31Zm0-5H16.66a2.931,2.931,0,0,0-.89-.79,2.981,2.981,0,0,0-2.28-.3A2.933,2.933,0,0,0,11.89,40H11V22H31Zm0-20H11V19a3.009,3.009,0,0,1,3-3H28a3.009,3.009,0,0,1,3,3Z"></path><rect x="20" y="44" width="2" height="2"></rect><path d="M17.465,31.465l1.414,1.414a3.072,3.072,0,0,1,4.242,0l1.414-1.414a5,5,0,0,0-7.07,0Z"></path><path d="M25.95,30.05l1.414-1.414a9.012,9.012,0,0,0-12.728,0L16.05,30.05A7.009,7.009,0,0,1,25.95,30.05Z"></path><path d="M19.586,34.586,21,36l1.414-1.414A2,2,0,0,0,19.586,34.586Z"></path><path d="M49.9,26.34a3.971,3.971,0,0,0-2.827,1.173L47,27.586l-.073-.073A3.971,3.971,0,0,0,44.1,26.34a4.026,4.026,0,0,0-2.827,1.173,4,4,0,0,0,0,5.654l5.02,5.021a1,1,0,0,0,1.414,0l5.02-5.021a4,4,0,0,0,0-5.653A4.027,4.027,0,0,0,49.9,26.34Zm1.412,5.413L47,36.066l-4.313-4.313a2,2,0,0,1,0-2.827A2.012,2.012,0,0,1,44.1,28.34a1.986,1.986,0,0,1,1.413.587l.78.78a1,1,0,0,0,1.414,0l.78-.78a2.051,2.051,0,0,1,2.825,0,2,2,0,0,1,0,2.826Z"></path><path d="M55.76,21.11l-.3-.89A9.129,9.129,0,0,1,55,17.38V5a3.009,3.009,0,0,0-3-3H42a3.009,3.009,0,0,0-3,3V17.38a9.129,9.129,0,0,1-.46,2.84l-.3.89A3,3,0,0,0,36,24V40a3,3,0,0,0,2.24,2.89l.3.89A9.129,9.129,0,0,1,39,46.62V59a3.009,3.009,0,0,0,3,3H52a3.009,3.009,0,0,0,3-3V46.62a9.129,9.129,0,0,1,.46-2.84l.3-.89A3,3,0,0,0,58,40V24A3,3,0,0,0,55.76,21.11Zm-15.32-.25A11.165,11.165,0,0,0,41,17.38V5a1,1,0,0,1,1-1H52a1,1,0,0,1,1,1V17.38a11.165,11.165,0,0,0,.56,3.48l.05.14H40.39ZM53.56,43.14A11.165,11.165,0,0,0,53,46.62V59a1,1,0,0,1-1,1H42a1,1,0,0,1-1-1V46.62a11.165,11.165,0,0,0-.56-3.48L40.39,43H53.61ZM56,40a1,1,0,0,1-1,1H39a1,1,0,0,1-1-1V24a1,1,0,0,1,1-1H55a1,1,0,0,1,1,1Z"></path><rect x="46" y="46" width="2" height="2"></rect><rect x="46" y="50" width="2" height="2"></rect><rect x="46" y="54" width="2" height="2"></rect></g></svg>