<svg xmlns="http://www.w3.org/2000/svg" viewBox="0 0 64 64" x="0px" y="0px"><g><path d="M26,48H18V46h3a7.008,7.008,0,0,0,7-7,1,1,0,0,0-1-1H23a6.9,6.9,0,0,0-2.61.51,6.995,6.995,0,0,0-.92-9.8,1,1,0,0,0-.73-.23,1.019,1.019,0,0,0-.68.36l-2.57,3.07a7.023,7.023,0,0,0-1.62,4.71A7.072,7.072,0,0,0,11,36H7a1,1,0,0,0-1,1,7.008,7.008,0,0,0,7,7h3v4H8a1,1,0,0,0-1,1v4a1,1,0,0,0,1,1H9.12l.89,7.12A1,1,0,0,0,11,62H23a1,1,0,0,0,.99-.88L24.88,54H26a1,1,0,0,0,1-1V49A1,1,0,0,0,26,48Zm-3-8h2.9A5.009,5.009,0,0,1,21,44H18.1A5.009,5.009,0,0,1,23,40ZM13,42a5.009,5.009,0,0,1-4.9-4H11a5.009,5.009,0,0,1,4.9,4Zm4.03-8.81,1.86-2.22a4.96,4.96,0,0,1,1.07,2.67A5.016,5.016,0,0,1,18.8,37.3l-1.79,2.13a6.944,6.944,0,0,0-.7-.98A4.972,4.972,0,0,1,17.03,33.19ZM22.12,60H11.88l-.75-6H22.87ZM25,52H9V50H25Z"></path><path d="M56,48H48V46h3a7.008,7.008,0,0,0,7-7,1,1,0,0,0-1-1H53a6.9,6.9,0,0,0-2.61.51,7.009,7.009,0,0,0-.92-9.8.995.995,0,0,0-1.41.13l-2.57,3.07a7.023,7.023,0,0,0-1.62,4.71A7.072,7.072,0,0,0,41,36H37a1,1,0,0,0-1,1,7.008,7.008,0,0,0,7,7h3v4H38a1,1,0,0,0-1,1v4a1,1,0,0,0,1,1h1.12l.89,7.12A1,1,0,0,0,41,62H53a1,1,0,0,0,.99-.88L54.88,54H56a1,1,0,0,0,1-1V49A1,1,0,0,0,56,48Zm-3-8h2.9A5.009,5.009,0,0,1,51,44H48.1A5.009,5.009,0,0,1,53,40ZM43,42a5.009,5.009,0,0,1-4.9-4H41a5.009,5.009,0,0,1,4.9,4Zm4.03-8.81,1.86-2.22a4.96,4.96,0,0,1,1.07,2.67A5.016,5.016,0,0,1,48.8,37.3l-1.79,2.13a6.944,6.944,0,0,0-.7-.98A4.975,4.975,0,0,1,47.03,33.19ZM52.12,60H41.88l-.75-6H52.87ZM55,52H39V50H55Z"></path><path d="M39.179,27.406a1,1,0,0,0,1.306-.093l2.828-2.828a1,1,0,0,0,.093-1.307l-1.625-2.166a10.86,10.86,0,0,0,.679-1.639l2.682-.383A1,1,0,0,0,46,18V14a1,1,0,0,0-.858-.99l-2.682-.383a10.86,10.86,0,0,0-.679-1.639l1.625-2.166a1,1,0,0,0-.093-1.307L40.485,4.687a1,1,0,0,0-1.306-.093L37.012,6.218a10.855,10.855,0,0,0-1.639-.678L34.99,2.858A1,1,0,0,0,34,2H30a1,1,0,0,0-.99.858L28.627,5.54a10.96,10.96,0,0,0-1.639.678L24.822,4.594a1,1,0,0,0-1.307.093L20.687,7.515a1,1,0,0,0-.093,1.307l1.624,2.166a10.96,10.96,0,0,0-.678,1.639l-2.682.383A1,1,0,0,0,18,14v4a1,1,0,0,0,.858.99l2.682.383a10.96,10.96,0,0,0,.678,1.639l-1.624,2.166a1,1,0,0,0,.093,1.307l2.828,2.828a1,1,0,0,0,1.307.093l2.166-1.624a10.96,10.96,0,0,0,1.639.678l.383,2.682A1,1,0,0,0,30,30h4a1,1,0,0,0,.99-.858l.383-2.682a10.855,10.855,0,0,0,1.639-.678Zm-4.951-2.7a1,1,0,0,0-.744.828L33.133,28H30.867l-.352-2.463a1,1,0,0,0-.743-.828,8.892,8.892,0,0,1-2.356-.975,1,1,0,0,0-1.111.06l-1.99,1.492-1.6-1.6,1.492-1.99a1,1,0,0,0,.06-1.111,8.892,8.892,0,0,1-.975-2.356,1,1,0,0,0-.828-.743L20,17.133V14.867l2.463-.352a1,1,0,0,0,.828-.743,8.892,8.892,0,0,1,.975-2.356,1,1,0,0,0-.06-1.111l-1.492-1.99,1.6-1.6,1.99,1.492a1,1,0,0,0,1.111.06,8.892,8.892,0,0,1,2.356-.975,1,1,0,0,0,.743-.828L30.867,4h2.266l.351,2.463a1,1,0,0,0,.744.828,8.859,8.859,0,0,1,2.356.975,1,1,0,0,0,1.11-.06l1.991-1.492,1.6,1.6-1.492,1.99a1,1,0,0,0-.061,1.111,8.923,8.923,0,0,1,.977,2.357,1,1,0,0,0,.827.742L44,14.867v2.266l-2.463.352a1,1,0,0,0-.827.742,8.923,8.923,0,0,1-.977,2.357,1,1,0,0,0,.061,1.111l1.492,1.99-1.6,1.6-1.991-1.492a1,1,0,0,0-1.11-.06A8.859,8.859,0,0,1,34.228,24.709Z"></path><path d="M32,10a6,6,0,1,0,6,6A6.006,6.006,0,0,0,32,10Zm0,10a4,4,0,1,1,4-4A4,4,0,0,1,32,20Z"></path><rect x="31" y="6" width="2" height="2"></rect><rect x="24.636" y="8.636" width="2" height="2" transform="translate(0.695 20.95) rotate(-45)"></rect><rect x="22" y="15" width="2" height="2"></rect><rect x="24.636" y="21.364" width="2" height="2" transform="translate(-8.305 24.678) rotate(-45)"></rect><rect x="31" y="24" width="2" height="2"></rect><rect x="37.364" y="21.364" width="2" height="2" transform="translate(-4.579 33.67) rotate(-44.99)"></rect><rect x="40" y="15" width="2" height="2"></rect><rect x="37.364" y="8.636" width="2" height="2" transform="translate(4.423 29.95) rotate(-45)"></rect></g></svg>