<svg xmlns="http://www.w3.org/2000/svg" viewBox="0 0 64 64" x="0px" y="0px"><g data-name="Resume"><path d="M59,14H52V11a1,1,0,0,0-1-1H45.38l-.241-1.326.81-.269A3,3,0,0,0,48,5.559V5.4a3.019,3.019,0,0,0-2.217-2.9,14.45,14.45,0,0,0-7.566,0A3.019,3.019,0,0,0,36,5.4v.156A3,3,0,0,0,38.052,8.4l.809.269L38.62,10H33a1,1,0,0,0-1,1v3H25a3,3,0,0,0-3,3V29H11a1,1,0,0,0-.6.2L6.667,32H3a1,1,0,0,0-1,1V54a1,1,0,0,0,1,1H6.667L10.4,57.8a1,1,0,0,0,.6.2H22v1a3,3,0,0,0,3,3H59a3,3,0,0,0,3-3V17A3,3,0,0,0,59,14Zm-9-2v6H46.835l-1.091-6Zm-5.2,6H39.2l1.091-6h3.422ZM40.316,7.051l-1.632-.544A1,1,0,0,1,38,5.559V5.4a1,1,0,0,1,.749-.969,12.393,12.393,0,0,1,6.5,0A1,1,0,0,1,46,5.4v.156a1,1,0,0,1-.684.948l-1.632.544a1,1,0,0,0-.668,1.128L43.347,10H40.653l.331-1.821A1,1,0,0,0,40.316,7.051ZM34,12h4.256l-1.091,6H34ZM11.333,56,7.6,53.2A1,1,0,0,0,7,53H4V34H7a1,1,0,0,0,.6-.2L11.333,31H28a2,2,0,0,1,0,4H20a1,1,0,0,0-.447.1L15.764,37H13v2h3a1,1,0,0,0,.447-.1L20.236,37H22v4H18v2h4v3H18v2h4v3H18v2h4v3ZM60,59a1,1,0,0,1-1,1H25a1,1,0,0,1-1-1V37h4a4,4,0,0,0,0-8H24V17a1,1,0,0,1,1-1h7v3a1,1,0,0,0,1,1H51a1,1,0,0,0,1-1V16h7a1,1,0,0,1,1,1Z"></path><path d="M45,38.071v-1.1A4.977,4.977,0,0,0,47,33V32a1,1,0,0,0,1-1V29a6,6,0,0,0-12,0v2a1,1,0,0,0,1,1v1a4.977,4.977,0,0,0,2,3.974v1.1A7.011,7.011,0,0,0,33,45v3a1,1,0,0,0,1,1H50a1,1,0,0,0,1-1V45A7.011,7.011,0,0,0,45,38.071ZM38,29a4,4,0,0,1,8,0v1h-.171a1,1,0,0,1-.708-.293l-1.414-1.414a1,1,0,0,0-1.414,0l-.829.829A3.02,3.02,0,0,1,39.343,30H38Zm1.343,3a4.966,4.966,0,0,0,3.535-1.464L43,30.414l.707.707A2.96,2.96,0,0,0,45,31.87V33a3,3,0,0,1-6,0V32ZM42,38a5,5,0,0,0,1-.1v.687l-1,1-1-1V37.9A5,5,0,0,0,42,38Zm7,9H35V45a4.991,4.991,0,0,1,4.624-4.962l1.669,1.669a1,1,0,0,0,1.414,0l1.669-1.669A4.991,4.991,0,0,1,49,45Z"></path><rect x="39" y="51" width="12" height="2"></rect><rect x="33" y="55" width="18" height="2"></rect><rect x="33" y="51" width="4" height="2"></rect></g></svg>