<svg xmlns="http://www.w3.org/2000/svg" viewBox="0 0 64 64" x="0px" y="0px"><g data-name="Audio Book-Voice Recorder"><path d="M21,26.184V5a1,1,0,0,0-1-1H7V26H20A2.966,2.966,0,0,1,21,26.184ZM19,22H9V20H19Zm0-4H9V16H19Zm0-4H9V12H19Zm0-4H9V8H19Z"></path><path d="M4,8V30H21.184A2.966,2.966,0,0,1,21,29a1,1,0,0,0-1-1H6a1,1,0,0,1-1-1V8Z"></path><path d="M60,19a3,3,0,0,0-3-3H54v2a2,2,0,0,1-2,2H42a2,2,0,0,1-2-2V16H37a3,3,0,0,0-3,3V57a3,3,0,0,0,3,3H57a3,3,0,0,0,3-3ZM57,40H52.721l-.772,2.316a.988.988,0,0,1-.964.684,1,1,0,0,1-.943-.713l-2-6.654-2.081,7.63A1,1,0,0,1,45,44h-.011a1,1,0,0,1-.959-.757L43,39.123l-.03.12A1,1,0,0,1,42,40H37V38h4.219l.811-3.243a1,1,0,0,1,1.94,0l1.072,4.288,1.993-7.308A1,1,0,0,1,47.987,31H48a1,1,0,0,1,.958.713l2.092,6.974v0A1,1,0,0,1,52,38h5Z"></path><path d="M32,28H28a1,1,0,0,0-1,1,2.966,2.966,0,0,1-.184,1H32Z"></path><path d="M25,29V7H23V29a1,1,0,0,0,2,0Z"></path><rect x="42" y="16" width="10" height="2"></rect><rect x="43" y="8" width="1" height="6"></rect><path d="M37,14h4V4H28a1,1,0,0,0-1,1V26.184A2.966,2.966,0,0,1,28,26h4V19A5.006,5.006,0,0,1,37,14Zm-8-4V8H39v2Z"></path></g></svg>