<svg xmlns="http://www.w3.org/2000/svg" viewBox="0 0 64 64" x="0px" y="0px"><g><path d="M52,40.069V18a9,9,0,0,0-18,0V50a9,9,0,0,1-18,0V41h9a1,1,0,0,0,1-1V32a1,1,0,0,0-1-1V28.236L26.9,24.447A1,1,0,0,0,27,24V15A2.986,2.986,0,0,0,22.53,12.4a2.782,2.782,0,0,0-.4-.5,2.946,2.946,0,0,0-3.595-.493,2.741,2.741,0,0,0-.405-.507A2.928,2.928,0,0,0,15,10.184V5a2.8,2.8,0,0,0-.254-1.2,2.8,2.8,0,0,0-.619-.908A2.937,2.937,0,0,0,12,2,3,3,0,0,0,9,5v7.192A2.971,2.971,0,0,0,8,12a3.047,3.047,0,0,0-2.594,1.494A2.994,2.994,0,0,0,5,15v9a1,1,0,0,0,.105.447L7,28.236V31a1,1,0,0,0-1,1v8a1,1,0,0,0,1,1h7v9a11,11,0,0,0,22,0V18a7,7,0,0,1,14,0V40.069A8.008,8.008,0,0,0,43,48v6a8,8,0,0,0,16,0V48A8.008,8.008,0,0,0,52,40.069ZM7,15a.97.97,0,0,1,.307-.713,1.02,1.02,0,0,1,1.56.219A.983.983,0,0,1,9,15v6h2V5a1,1,0,0,1,1-1,1.023,1.023,0,0,1,.919.612A.906.906,0,0,1,13,5V19h2V13a1,1,0,0,1,1-1,.977.977,0,0,1,.713.307A.959.959,0,0,1,17,13v7h2V14a1,1,0,0,1,1-1,.977.977,0,0,1,.713.307A.959.959,0,0,1,21,14v7h2V15a.97.97,0,0,1,.307-.713,1.02,1.02,0,0,1,1.56.219A.983.983,0,0,1,25,15v8.764l-1.895,3.789A1,1,0,0,0,23,28v3H9V28a1,1,0,0,0-.105-.447L7,23.764ZM8,39V33H24v6ZM57,54a6,6,0,0,1-12,0V48a6,6,0,0,1,12,0Z"></path><rect x="50" y="44" width="2" height="4"></rect></g></svg>