<svg xmlns="http://www.w3.org/2000/svg" viewBox="0 0 64 64" x="0px" y="0px"><g data-name="Money Tree"><path d="M23,43a1,1,0,0,1,1,1h2a3,3,0,0,0-2-2.816V40H22v1.184A2.993,2.993,0,0,0,23,47a1,1,0,1,1-1,1H20a3,3,0,0,0,2,2.816V52h2V50.816A2.993,2.993,0,0,0,23,45a1,1,0,0,1,0-2Z"></path><rect x="8.213" y="41.569" width="2" height="4" transform="translate(-35.294 45.079) rotate(-80.004)"></rect><rect x="12.101" y="34.101" width="2" height="4" transform="translate(-21.69 19.837) rotate(-45)"></rect><path d="M33,17V15.816A2.993,2.993,0,0,0,32,10a1,1,0,1,1,1-1h2a3,3,0,0,0-2-2.816V5H31V6.184A2.993,2.993,0,0,0,32,12a1,1,0,1,1-1,1H29a3,3,0,0,0,2,2.816V17Z"></path><path d="M59,22H41a1,1,0,0,0-1,1v4H38a1,1,0,0,0-.707.293L33,31.586V19.941a9,9,0,1,0-2,0v5.645l-3.293-3.293A1,1,0,0,0,27,22H24V18a1,1,0,0,0-1-1H5a1,1,0,0,0-1,1V28a1,1,0,0,0,1,1H23a1,1,0,0,0,1-1V24h2.586L31,28.414V40.026A9.987,9.987,0,1,0,17.026,54H15a2,2,0,0,0-2,2v4a2,2,0,0,0,2,2H31a1.978,1.978,0,0,0,1-.278A1.978,1.978,0,0,0,33,62H49a2,2,0,0,0,2-2V56a1.978,1.978,0,0,0-.278-1A1.978,1.978,0,0,0,51,54V50a1.978,1.978,0,0,0-.278-1A1.978,1.978,0,0,0,51,48V44a2,2,0,0,0-2-2H33V34.414L38.414,29H40v4a1,1,0,0,0,1,1H59a1,1,0,0,0,1-1V23A1,1,0,0,0,59,22ZM22,27H6V19H22Zm3-16a7,7,0,1,1,7,7A7.008,7.008,0,0,1,25,11ZM36,52V50h2v2h2V50h2v2h2V50h2v2h2V50h1v4H33V50h1v2Zm-7.026,2A10.077,10.077,0,0,0,31,51.974V54ZM15,46a8,8,0,1,1,8,8A8.009,8.009,0,0,1,15,46Zm0,14V56h1v2h2V56h2v2h2V56h2v2h2V56h2v2h2V56h1v4Zm34,0H33V56h1v2h2V56h2v2h2V56h2v2h2V56h2v2h2V56h1ZM34,44v2h2V44h2v2h2V44h2v2h2V44h2v2h2V44h1v4H33V44ZM58,32H42V24H58Z"></path><path d="M50,31a3,3,0,1,0-3-3A3,3,0,0,0,50,31Zm0-4a1,1,0,1,1-1,1A1,1,0,0,1,50,27Z"></path><rect x="55" y="27" width="2" height="2"></rect><rect x="43" y="27" width="2" height="2"></rect><path d="M14,26a3,3,0,1,0-3-3A3,3,0,0,0,14,26Zm0-4a1,1,0,1,1-1,1A1,1,0,0,1,14,22Z"></path><rect x="19" y="22" width="2" height="2"></rect><rect x="7" y="22" width="2" height="2"></rect></g></svg>