<svg xmlns="http://www.w3.org/2000/svg" viewBox="0 0 64 64" x="0px" y="0px"><g data-name="Mobile Payment"><path d="M53,11a7,7,0,1,0,7,7A7.008,7.008,0,0,0,53,11Zm-1,6h2a3,3,0,0,1,0,6v1H52V23a3,3,0,0,1-3-3h2a1,1,0,0,0,1,1h2a1,1,0,0,0,0-2H52a3,3,0,0,1,0-6V12h2v1a3,3,0,0,1,3,3H55a1,1,0,0,0-1-1H52a1,1,0,0,0,0,2Z"></path><path d="M29,32.922,31.4,31,29,29.078A1,1,0,0,1,28,30H24v2h4A1,1,0,0,1,29,32.922Z"></path><path d="M16.63,34.9h0V34.9l0-.05a1.022,1.022,0,0,1,.147-.472l4.87-7.891a2,2,0,0,0-3.483-1.975l-5.513,9.013-1.706-1.044L14,27.487V15.01h-.19a3.008,3.008,0,0,0-2.6,1.5l-5,8.67A9.006,9.006,0,0,0,5,29.68V52H15V51a1,1,0,0,1,.142-.514l1-1.67A13,13,0,0,0,18,42.12v-.85a12.91,12.91,0,0,0-.668-4.112L16.71,35.3a1.007,1.007,0,0,1-.08-.393V34.9Z"></path><path d="M18.8,48H41a1,1,0,0,0,1-1V43.941a9,9,0,0,1,0-17.882V5a1,1,0,0,0-1-1H35.78l-.621,2.485A2,2,0,0,1,33.219,8H24.781A2,2,0,0,1,22.84,6.485L22.219,4H17a1,1,0,0,0-1,1V24.218l.447-.73A4,4,0,0,1,21.9,22.045c.034.02.064.045.1.066V14h2V28h3V27a1,1,0,0,1,1.625-.781l5,4a1,1,0,0,1,0,1.562l-5,4A1,1,0,0,1,27,35V34H24v4H22V29.723l-3.273,5.3.5,1.5A14.9,14.9,0,0,1,20,41.27v.85A15,15,0,0,1,18.8,48ZM26,18V16h2v2Zm7.566,5.9A1,1,0,0,1,33,23V22H28V20h6a1,1,0,0,1,1,.922L37.4,19,35,17.078A1,1,0,0,1,34,18H30V16h3V15a1,1,0,0,1,1.625-.781l5,4a1,1,0,0,1,0,1.562l-5,4a1,1,0,0,1-1.059.12Z"></path><rect x="4" y="54" width="12" height="6"></rect><polygon points="33.219 6 33.719 4 24.281 4 24.781 6 33.219 6"></polygon><path d="M50,35a7,7,0,1,0-7,7A7.008,7.008,0,0,0,50,35ZM39,37h2a1,1,0,0,0,1,1h2a1,1,0,0,0,0-2H42a3,3,0,0,1,0-6V29h2v1a3,3,0,0,1,3,3H45a1,1,0,0,0-1-1H42a1,1,0,0,0,0,2h2a3,3,0,0,1,0,6v1H42V40A3,3,0,0,1,39,37Z"></path></g></svg>