<svg xmlns="http://www.w3.org/2000/svg" viewBox="0 0 64 64" x="0px" y="0px"><g data-name="Sign Contact"><polygon points="46.586 12 40 5.414 40 12 46.586 12"></polygon><path d="M48,14H38V4H6V60H48V42.97L45.15,49.3l-5.83,3.22-1.46-6.51L48,23.49ZM14,8H34v2H14ZM10,8h2v2H10Zm0,4H34v2H10Zm0,32H36v2H10Zm28,7.48v2a2.7,2.7,0,0,1-1.83-.7c-.25-.2-.32-.26-.57-.26s-.33.06-.58.26a2.729,2.729,0,0,1-3.65,0c-.25-.2-.33-.26-.57-.26s-.33.06-.58.26a2.671,2.671,0,0,1-1.82.7,2.7,2.7,0,0,1-1.83-.7c-.25-.2-.32-.26-.57-.26v-2a2.649,2.649,0,0,1,1.82.7c.25.2.33.26.58.26s.32-.06.57-.26a2.729,2.729,0,0,1,3.65,0c.25.2.33.26.57.26s.33-.06.58-.26a2.7,2.7,0,0,1,1.83-.7,2.649,2.649,0,0,1,1.82.7C37.67,51.42,37.75,51.48,38,51.48ZM38,42H10V40H38Zm2-4H10V36H40Zm0-4H10V32H40Zm4-4H10V28H44Zm0-4H10V24H44Zm0-4H10V20H44Zm0-4H10V16H44Z"></path><path d="M55.373,21.731,56.6,19a1,1,0,0,0-.5-1.324l-1.824-.82a1,1,0,0,0-1.322.5l-1.232,2.734Z"></path><rect x="34.391" y="32.587" width="25.999" height="4" transform="translate(-3.603 63.601) rotate(-65.762)"></rect><polygon points="42.143 48.675 40.32 47.854 40.684 49.48 42.143 48.675"></polygon></g></svg>