<svg xmlns="http://www.w3.org/2000/svg" viewBox="0 0 64 64" x="0px" y="0px"><g data-name="Team"><path d="M62.181,39.1a4.007,4.007,0,0,0-5.122-2.39l-9.266,3.371a3.746,3.746,0,0,0-.564-1.3,4.006,4.006,0,0,0-2.585-1.652L34.6,35.355a21.068,21.068,0,0,0-9.743.589l-.186.051a20.964,20.964,0,0,0-5.909,2.886l-3.138,2.2-1.147-1.639a1,1,0,0,0-1.393-.246l-9.83,6.883A1,1,0,0,0,3,47.467L13.328,62.212a1,1,0,0,0,1.393.246l9.83-6.883a1,1,0,0,0,.245-1.393l-.568-.812a8.924,8.924,0,0,1,6.6-1.414l1.785.308a12.986,12.986,0,0,0,6.707-.584L59.79,44.23a4,4,0,0,0,2.391-5.13ZM14.393,60.246,5.215,47.139,13.407,41.4,22.584,54.51Zm46-19.428a1.97,1.97,0,0,1-1.287,1.532L38.639,49.8a10.986,10.986,0,0,1-5.679.494l-1.786-.309a10.907,10.907,0,0,0-8.093,1.747l-6.314-9.018,3.138-2.2a18.922,18.922,0,0,1,5.313-2.6l.183-.05a19.055,19.055,0,0,1,8.845-.542L44.29,39.094a2.017,2.017,0,0,1,1.3.826,1.889,1.889,0,0,1,.327.857,1.719,1.719,0,0,1-.042.844,2,2,0,0,1-2.29,1.414l-10.81-1.91-.348,1.97L43.235,45a4.011,4.011,0,0,0,4.542-2.788l9.961-3.625a2.005,2.005,0,0,1,2.565,1.2A1.964,1.964,0,0,1,60.4,40.818Z"></path><path d="M17.186,25.118A6.946,6.946,0,0,0,16,29v3a1,1,0,0,0,1,1H33a1,1,0,0,0,1-1V29a6.943,6.943,0,0,0-1.186-3.882A4.985,4.985,0,0,0,32,16.42V14a7.008,7.008,0,0,0-7-7,7.008,7.008,0,0,0-7,7v2.422a4.984,4.984,0,0,0-.814,8.7ZM32,31H18V29a4.991,4.991,0,0,1,4.624-4.962l1.669,1.669a1,1,0,0,0,1.414,0l1.669-1.669A4.991,4.991,0,0,1,32,29ZM25,20a3,3,0,0,1-3-3V16h.343a4.966,4.966,0,0,0,3.535-1.464L26,14.414l.707.707A2.981,2.981,0,0,0,28,15.885V17A3,3,0,0,1,25,20Zm0,2a5,5,0,0,0,1-.1v.687l-1,1-1-1V21.9A5,5,0,0,0,25,22Zm8-1a2.987,2.987,0,0,1-1.54,2.613A6.977,6.977,0,0,0,28,22.071v-1.1a4.992,4.992,0,0,0,1.9-2.959,2.759,2.759,0,0,1,.857.084A2.987,2.987,0,0,1,33,21ZM20,14a5.009,5.009,0,0,1,5-5,5.006,5.006,0,0,1,5,5v1a1,1,0,0,0-1-1h-.171a1,1,0,0,1-.708-.293l-1.414-1.414a1,1,0,0,0-1.414,0l-.829.829A3.02,3.02,0,0,1,22.343,14H21a1,1,0,0,0-1,1Zm-.729,4.093a2.653,2.653,0,0,1,.831-.085A4.992,4.992,0,0,0,22,20.974v1.1a6.977,6.977,0,0,0-3.46,1.542,2.992,2.992,0,0,1,.731-5.52Z"></path><path d="M37,33H53a1,1,0,0,0,1-1V29a7.011,7.011,0,0,0-6-6.929v-1.1A4.977,4.977,0,0,0,50,17V16a1,1,0,0,0,1-1V13a6,6,0,0,0-12,0v2a1,1,0,0,0,1,1v1a4.977,4.977,0,0,0,2,3.974v1.1A7.011,7.011,0,0,0,36,29v3A1,1,0,0,0,37,33Zm4-20a4,4,0,0,1,8,0v1h-.172a1.009,1.009,0,0,1-.707-.293l-1.414-1.414a1,1,0,0,0-1.414,0l-.828.829A2.983,2.983,0,0,1,42.343,14H41Zm1.343,3a4.968,4.968,0,0,0,3.536-1.464L46,14.415l.707.706A2.96,2.96,0,0,0,48,15.87V17a3,3,0,0,1-6,0V16ZM45,22a5,5,0,0,0,1-.1v.687l-1,1-1-1V21.9A5,5,0,0,0,45,22Zm-7,7a4.991,4.991,0,0,1,4.624-4.962l1.669,1.669a1,1,0,0,0,1.414,0l1.669-1.669A4.991,4.991,0,0,1,52,29v2H38Z"></path></g></svg>