<svg xmlns="http://www.w3.org/2000/svg" viewBox="0 0 64 64" x="0px" y="0px"><title>Shopping Bag_1</title><g data-name="Shopping Bag"><path d="M61.736,58.656l-2.538-22A3,3,0,0,0,56.217,34H51V30a5.006,5.006,0,0,0-5-5H44a5.006,5.006,0,0,0-5,5v4h-.836L37.127,18.794a3.006,3.006,0,0,0-3-2.794H29V10a8,8,0,0,0-16,0v6H7.87a3.006,3.006,0,0,0-3,2.793l-2.721,40A3,3,0,0,0,5.14,62H58.756a3,3,0,0,0,2.98-3.344ZM56.217,36a1,1,0,0,1,.993.885L57.339,38H51V36ZM49,38H41V36h8Zm-8-8a3,3,0,0,1,3-3h2a3,3,0,0,1,3,3v4H41Zm-2,8H32.661l.129-1.115A1,1,0,0,1,33.783,36H39ZM34.13,18a1,1,0,0,1,1,.929L35.205,20H29V18ZM27,20H15V18H27ZM15,10a6,6,0,0,1,12,0v6H15ZM7.87,18H13v2H6.8l.073-1.073A1,1,0,0,1,7.87,18ZM4.414,59.686a1,1,0,0,1-.267-.758L6.659,22H13v1.184a3,3,0,1,0,2,0V22H27v1.184a3,3,0,1,0,2,0V22h6.342l.818,12H33.783A3,3,0,0,0,30.8,36.656l-2.538,22A2.987,2.987,0,0,0,28.426,60H5.14A.981.981,0,0,1,4.414,59.686ZM15,26a1,1,0,1,1-1-1A1,1,0,0,1,15,26Zm14,0a1,1,0,1,1-1-1A1,1,0,0,1,29,26ZM59.5,59.665a.986.986,0,0,1-.746.335H31.244a1,1,0,0,1-.994-1.115L32.43,40H39v1.184a3,3,0,1,0,2,0V40h8v1.184a3,3,0,1,0,2,0V40h6.57l2.18,18.886A.988.988,0,0,1,59.5,59.665ZM41,44a1,1,0,1,1-1-1A1,1,0,0,1,41,44Zm10,0a1,1,0,1,1-1-1A1,1,0,0,1,51,44Z"></path></g></svg>