<svg xmlns="http://www.w3.org/2000/svg" viewBox="0 0 64 64" x="0px" y="0px"><g data-name="Shopping Bag-Hands-Bag-Purchase-Buy"><path d="M43,12H39V9A7,7,0,0,0,25,9v3H21a1,1,0,0,0-1,1V35a3.009,3.009,0,0,0,3,3H36V36H23a1,1,0,0,1-1-1V34H36V32H22V14h3v3h2V14H37v3h2V14h3v3h2V13A1,1,0,0,0,43,12Zm-6,0H27V9A5,5,0,0,1,37,9Z"></path><path d="M57,19H39a1,1,0,0,0-1,1V35a3.009,3.009,0,0,0,3,3H55a3.009,3.009,0,0,0,3-3V20A1,1,0,0,0,57,19ZM56,35a1,1,0,0,1-1,1H41a1,1,0,0,1-1-1V34H56Zm0-3H40V21H56Z"></path><path d="M48,30a5.006,5.006,0,0,0,5-5V23H51v2a3,3,0,0,1-6,0V23H43v2A5.006,5.006,0,0,0,48,30Z"></path><path d="M62.332,44.55a4.109,4.109,0,0,0-5.176-2.062l-8.93,3.25a4,4,0,0,0-3.174-2.959L32.989,40.652a15.018,15.018,0,0,0-7.735.677L23.7,41.9a16.917,16.917,0,0,0-4.1,2.179l-.221-.607a1,1,0,0,0-1.281-.6l-11.277,4.1a1,1,0,0,0-.6,1.281h0l-4.7,1.71.684,1.879,4.7-1.71,4.079,11.208,1.879-.684L8.447,48.51l9.4-3.42,5.131,14.1-2.4.875.684,1.878L24.6,60.723a1,1,0,0,0,.6-1.282l-.342-.94,2.3-.838a10.943,10.943,0,0,1,4.523-.638l4.744.329a12.842,12.842,0,0,0,5.345-.753l18.28-6.653a4,4,0,0,0,2.281-5.4Zm-1.838,2.483a1.984,1.984,0,0,1-1.127,1.035l-18.28,6.654a10.893,10.893,0,0,1-4.523.637L31.82,55.03a12.959,12.959,0,0,0-5.344.753l-2.306.839L20.315,46.03a14.922,14.922,0,0,1,4.07-2.256l1.552-.565a13.015,13.015,0,0,1,6.705-.587L44.7,44.749a2,2,0,1,1-.694,3.939l-10.833-1.91-.348,1.97,10.833,1.91a3.982,3.982,0,0,0,4.506-2.77l9.672-3.521a2.13,2.13,0,0,1,2.667,1A2.01,2.01,0,0,1,60.494,47.033Z"></path></g></svg>