<svg xmlns="http://www.w3.org/2000/svg" viewBox="0 0 64 64" x="0px" y="0px"><g><path d="M43,15H41V13a1,1,0,0,0-1-1H39V10a2,2,0,0,0-2-2V4a2,2,0,0,0-2-2H29a2,2,0,0,0-2,2V8a2,2,0,0,0-2,2v2H24a1,1,0,0,0-1,1v6a1,1,0,0,0,1,1h1V50a.97.97,0,0,0,.183.544l-.015.011L29,56.3V59a3,3,0,0,0,6,0V56.3l3.832-5.748-.015-.011A.97.97,0,0,0,39,50V20h1a1,1,0,0,0,1-1V17h1V27.586l-1.707,1.707,1.414,1.414,2-2A1,1,0,0,0,44,28V16A1,1,0,0,0,43,15ZM29,4h6V8H29Zm-2,6H37v2H27Zm9.132,41-2.667,4h-2.93l-2.667-4ZM33,59a1,1,0,0,1-2,0V57h2Zm4-10H33V24H31V49H27V20H37Zm2-31H25V14H39Z"></path></g></svg>