<svg xmlns="http://www.w3.org/2000/svg" viewBox="0 0 64 64" x="0px" y="0px"><g data-name="Four Wheel Drive Car"><rect x="38" y="29" width="4" height="2"></rect><path d="M20.618,43.912l.944-.546-1-1.732-.941.543a6.139,6.139,0,0,0-.8-.8l.543-.941-1.732-1-.546.944A5.992,5.992,0,0,0,16,40.09V39H14v1.09a5.992,5.992,0,0,0-1.088.292l-.546-.944-1.732,1,.543.941a6.139,6.139,0,0,0-.8.8l-.942-.543-1,1.732.945.546A5.992,5.992,0,0,0,9.09,45H8v2H9.09a5.992,5.992,0,0,0,.292,1.088l-.945.546,1,1.732.942-.543a6.139,6.139,0,0,0,.8.8l-.543.941,1.732,1,.546-.944A5.992,5.992,0,0,0,14,51.91V53h2V51.91a5.992,5.992,0,0,0,1.088-.292l.546.944,1.732-1-.543-.941a6.139,6.139,0,0,0,.8-.8l.941.543,1-1.732-.944-.546A5.992,5.992,0,0,0,20.91,47H22V45H20.91A5.992,5.992,0,0,0,20.618,43.912ZM19,46a4,4,0,1,1-4-4A4,4,0,0,1,19,46Z"></path><rect x="14" y="45" width="2" height="2"></rect><path d="M54.618,43.912l.944-.546-1-1.732-.941.543a6.139,6.139,0,0,0-.8-.8l.543-.941-1.732-1-.546.944A5.992,5.992,0,0,0,50,40.09V39H48v1.09a5.992,5.992,0,0,0-1.088.292l-.546-.944-1.732,1,.543.941a6.139,6.139,0,0,0-.8.8l-.942-.543-1,1.732.945.546A5.992,5.992,0,0,0,43.09,45H42v2h1.09a5.992,5.992,0,0,0,.292,1.088l-.945.546,1,1.732.942-.543a6.139,6.139,0,0,0,.8.8l-.543.941,1.732,1,.546-.944A5.992,5.992,0,0,0,48,51.91V53h2V51.91a5.992,5.992,0,0,0,1.088-.292l.546.944,1.732-1-.543-.941a6.139,6.139,0,0,0,.8-.8l.941.543,1-1.732-.944-.546A5.992,5.992,0,0,0,54.91,47H56V45H54.91A5.992,5.992,0,0,0,54.618,43.912ZM53,46a4,4,0,1,1-4-4A4,4,0,0,1,53,46Z"></path><rect x="48" y="45" width="2" height="2"></rect><path d="M55,25H51.515l-8.5-11.9A5,5,0,0,0,38.94,11H4a2,2,0,0,0-2,2V40a3,3,0,0,0,3,3h.84a1,1,0,0,0,.917-.6,8.991,8.991,0,0,1,16.486,0,1,1,0,0,0,.917.6H39.84a1,1,0,0,0,.917-.6,8.991,8.991,0,0,1,16.486,0,1,1,0,0,0,.917.6H59a3,3,0,0,0,3-3V32A7.008,7.008,0,0,0,55,25Zm5,7v1H56V31h3.9A5,5,0,0,1,60,32ZM41.387,14.261,49.057,25H36V13h2.94A3,3,0,0,1,41.387,14.261ZM4,31H5v2H4ZM5.207,41H5a1,1,0,0,1-1-1V39H6.551A10.967,10.967,0,0,0,5.207,41ZM15,35a10.985,10.985,0,0,0-8,3.462V37H4V35H5a2,2,0,0,0,2-2V31a2,2,0,0,0-2-2H4V13H34V41H24.793A10.994,10.994,0,0,0,15,35Zm34,0a10.994,10.994,0,0,0-9.793,6H36V27H55a4.977,4.977,0,0,1,3.974,2H56a2,2,0,0,0-2,2v2a2,2,0,0,0,2,2h4v2H57v1.462A10.985,10.985,0,0,0,49,35Zm10,6h-.207a10.967,10.967,0,0,0-1.344-2H60v1A1,1,0,0,1,59,41Z"></path><path d="M30,15H8a2,2,0,0,0-2,2v8a2,2,0,0,0,2,2H30a2,2,0,0,0,2-2V17A2,2,0,0,0,30,15ZM8,17H20v8H8Zm22,8H22V17h8Z"></path></g></svg>