<svg xmlns="http://www.w3.org/2000/svg" viewBox="0 0 64 64" x="0px" y="0px"><g data-name="Mobile Programming"><rect x="15" y="43" width="6" height="2"></rect><rect x="10" y="5" width="2" height="2"></rect><rect x="14" y="5" width="4" height="2"></rect><path d="M53,40.08V17a7,7,0,0,0-14,0V53a7.009,7.009,0,0,1-7,7H26a7.009,7.009,0,0,1-7-7V48h8a5.006,5.006,0,0,0,5-5V7a5.006,5.006,0,0,0-5-5H9A5.006,5.006,0,0,0,4,7V43a5.006,5.006,0,0,0,5,5h8v5a9.01,9.01,0,0,0,9,9h6a9.01,9.01,0,0,0,9-9V17a5,5,0,0,1,10,0V40.08A7.006,7.006,0,0,0,45,47v8a7,7,0,0,0,14,0V47A7.006,7.006,0,0,0,53,40.08ZM30,40H6V10H30ZM9,4H27a3,3,0,0,1,3,3V8H6V7A3,3,0,0,1,9,4ZM6,43V42H30v1a3,3,0,0,1-3,3H9A3,3,0,0,1,6,43Zm46-1a5.006,5.006,0,0,1,5,5v1H47V47A5.006,5.006,0,0,1,52,42Zm0,18a5.006,5.006,0,0,1-5-5V50H57v5A5.006,5.006,0,0,1,52,60Z"></path><rect x="51" y="44" width="2" height="2"></rect><rect x="11" y="23" width="2" height="2"></rect><rect x="15" y="23" width="6" height="2"></rect><rect x="13" y="27" width="4" height="2"></rect><rect x="19" y="27" width="4" height="2"></rect><rect x="15" y="31" width="12" height="2"></rect><path d="M8.293,17.707l2,2,1.414-1.414L10.414,17l1.293-1.293-1.414-1.414-2,2A1,1,0,0,0,8.293,17.707Z"></path><path d="M16.707,19.707l2-2a1,1,0,0,0,0-1.414l-2-2-1.414,1.414L16.586,17l-1.293,1.293Z"></path></g></svg>