<svg xmlns="http://www.w3.org/2000/svg" viewBox="0 0 64 64" x="0px" y="0px"><g><path d="M11.414,56H52.586l-4-4H15.414ZM46,53h2v2H46Zm-4,0h2v2H42ZM24,53H40v2H24Zm-4,0h2v2H20Zm-4,0h2v2H16Z"></path><rect x="10" y="58" width="44" height="2"></rect><path d="M19,50H17V48a1,1,0,0,0-1-1H10a3,3,0,0,1,0-6h6a1,1,0,0,0,1-1V38h2v2a3,3,0,0,1-3,3H10a1,1,0,0,0,0,2h6a3,3,0,0,1,3,3Z"></path><path d="M32,9a1.993,1.993,0,0,0-1.722,1h3.444A1.993,1.993,0,0,0,32,9Z"></path><rect x="24" y="12" width="16" height="2"></rect><path d="M26.926,27H37.074l.846-11H26.08ZM34,18h2v7H34Zm-3,0h2v7H31Zm-3,0h2v7H28Z"></path><path d="M32,32A14,14,0,1,0,18,18,14.015,14.015,0,0,0,32,32ZM24,10h4.142a3.981,3.981,0,0,1,7.716,0H40a2,2,0,0,1,2,2v2a2,2,0,0,1-2,2h-.074L39,28.077A1,1,0,0,1,38,29H26a1,1,0,0,1-1-.923L24.074,16H24a2,2,0,0,1-2-2V12A2,2,0,0,1,24,10Z"></path><rect x="28" y="38" width="8" height="4"></rect><path d="M16,18A15.885,15.885,0,0,1,19.54,8H12a1,1,0,0,0-1,1V30H21.44A15.932,15.932,0,0,1,16,18ZM39.73,32a15.938,15.938,0,0,1-15.46,0H11v3a1,1,0,0,0,1,1H52a1,1,0,0,0,1-1V32ZM47,33h2v2H47ZM52,8H44.46a15.929,15.929,0,0,1-1.9,22H53V9A1,1,0,0,0,52,8Z"></path><rect x="23" y="44" width="18" height="2"></rect></g></svg>