<svg xmlns="http://www.w3.org/2000/svg" viewBox="0 0 48 48" x="0px" y="0px"><title>Money-Exchange</title><g data-name="Money-Exchange"><path d="M13,24A11,11,0,1,0,24,13,11.013,11.013,0,0,0,13,24Zm20,0a9,9,0,1,1-9-9A9.01,9.01,0,0,1,33,24Z"></path><path d="M23,17v2H22a2,2,0,0,0-2,2v2a2,2,0,0,0,2,2h4v2H22V26H20v1a2,2,0,0,0,2,2h1v2h2V29h1a2,2,0,0,0,2-2V25a2,2,0,0,0-2-2H22V21h4v1h2V21a2,2,0,0,0-2-2H25V17Z"></path><rect x="29" y="23" width="2" height="2"></rect><rect x="17" y="23" width="2" height="2"></rect><path d="M8,14a5.006,5.006,0,0,1,5-5H35a5.006,5.006,0,0,1,5,5v.586L37.465,12.05l-1.414,1.414,4.242,4.243a1,1,0,0,0,1.414,0l4.242-4.243L44.535,12.05,42,14.586V14a7.008,7.008,0,0,0-7-7H13a7.008,7.008,0,0,0-7,7v2H8Z"></path><path d="M40,34a5.006,5.006,0,0,1-5,5H13a5.006,5.006,0,0,1-5-5v-.586l2.535,2.536,1.414-1.414L7.707,30.293a1.029,1.029,0,0,0-1.414,0L2.051,34.536,3.465,35.95,6,33.414V34a7.008,7.008,0,0,0,7,7H35a7.008,7.008,0,0,0,7-7V32H40Z"></path></g></svg>