<svg xmlns="http://www.w3.org/2000/svg" viewBox="0 0 64 64" x="0px" y="0px"><g data-name="Payment-Online Payment-Smartphone-Communication"><rect x="24" y="46" width="6" height="2"></rect><path d="M28,30H26a1,1,0,0,1-1-1H23a3,3,0,0,0,3,3v1h2V32a3,3,0,0,0,0-6H26a1,1,0,0,1,0-2h2a1,1,0,0,1,1,1h2a3,3,0,0,0-3-3V21H26v1a3,3,0,0,0,0,6h2a1,1,0,0,1,0,2Z"></path><path d="M59,2H39a3,3,0,0,0-2.82,2.02A1.1,1.1,0,0,0,36,4H18a7.008,7.008,0,0,0-7,7V23.15L4.76,33.95A16.835,16.835,0,0,0,2.59,44.33l1.4,12.63L3.02,61.8l1.96.4,1-5a1.075,1.075,0,0,0,.01-.31L4.57,44.11A14.908,14.908,0,0,1,6.5,34.95l4.5-7.8V40.12l-.56.98,1.73,1,5-8.66a1.988,1.988,0,0,1,2.73-.73,1.894,1.894,0,0,1,.93,1.21,1.974,1.974,0,0,1-.2,1.52l-3.5,6.06a1.023,1.023,0,0,0-.06.87l1.29,3.21A9.149,9.149,0,0,1,19,48.93v1.3a9,9,0,0,1-1.28,4.63l-1.58,2.63A1,1,0,0,0,16,58v4h2V58.28l1.43-2.39A10.907,10.907,0,0,0,20.84,52H36a7.008,7.008,0,0,0,7-7V22h2v3.05a1.016,1.016,0,0,0,.62.93,1.013,1.013,0,0,0,1.09-.23L50.42,22H59a3.009,3.009,0,0,0,3-3V5A3.009,3.009,0,0,0,59,2ZM18,6H36v4H13.1A5.017,5.017,0,0,1,18,6Zm1.87,24.58a8.061,8.061,0,1,1,2.96,3.22c-.02-.13-.03-.27-.06-.4a4,4,0,0,0-1.87-2.43A3.7,3.7,0,0,0,19.87,30.58ZM41,45a5,5,0,0,1-5,5H21V48.93a10.825,10.825,0,0,0-.79-4.09L19.88,44H41Zm0-3H19.15l3.22-5.56c.08-.15.14-.32.21-.47a10.083,10.083,0,1,0-4.88-5.33,3.966,3.966,0,0,0-2.26,1.8L13,36.66V12H36v7a3.009,3.009,0,0,0,3,3h2ZM60,19a1,1,0,0,1-1,1H50a1,1,0,0,0-.71.3L47,22.62V21a1,1,0,0,0-1-1H39a1,1,0,0,1-1-1V5a1,1,0,0,1,1-1H59a1,1,0,0,1,1,1Z"></path><rect x="41" y="11" width="16" height="2"></rect><rect x="45" y="7" width="12" height="2"></rect><rect x="41" y="15" width="16" height="2"></rect><rect x="41" y="7" width="2" height="2"></rect></g></svg>