<svg xmlns="http://www.w3.org/2000/svg" viewBox="0 0 64 64" x="0px" y="0px"><g><path d="M17,30A13,13,0,1,0,4,17,13.012,13.012,0,0,0,17,30ZM17,6A11,11,0,1,1,6,17,11.013,11.013,0,0,1,17,6Z"></path><path d="M10,18H8.059a8.956,8.956,0,0,0,1.916,4.611l1.368-1.368,1.414,1.414-1.368,1.368A8.956,8.956,0,0,0,16,25.941V24h2v1.941a8.956,8.956,0,0,0,4.611-1.916l-1.368-1.368,1.414-1.414,1.368,1.368A8.956,8.956,0,0,0,25.941,18H24V16h1.941a8.956,8.956,0,0,0-1.916-4.611l-1.368,1.368-1.414-1.414,1.368-1.368A8.956,8.956,0,0,0,18,8.059V10H16V8.059a8.956,8.956,0,0,0-4.611,1.916l1.368,1.368-1.414,1.414L9.975,11.389A8.956,8.956,0,0,0,8.059,16H10Zm6-1.414V12h2v5a1,1,0,0,1-.293.707l-2,2-1.414-1.414Z"></path><path d="M43,21h-.28a12.735,12.735,0,0,0-3.5,2.54c-1.95,1.94-3.21,4.27-3.2,5.92v.11l5.03-5.03a2.963,2.963,0,0,1,2.17-2.42A3.02,3.02,0,0,1,43,21Z"></path><path d="M44.79,13.77a12.84,12.84,0,0,0-1.33-1.55c-1.94-1.95-4.26-3.2-5.91-3.2h-.12l6.49,6.48A11.209,11.209,0,0,1,44.79,13.77Z"></path><path d="M16.21,38.17a1.322,1.322,0,0,0-1.03-.14,1.343,1.343,0,0,0-.69.76,5.348,5.348,0,0,0-.39,1.76l3.54-1.29A5.017,5.017,0,0,0,16.21,38.17Z"></path><path d="M26.88,38c-.58-1.28-1.29-2-1.88-2-.63,0-1.33.73-1.89,2Z"></path><circle cx="44" cy="25" r="1"></circle><circle cx="48" cy="25" r="1"></circle><path d="M55.98,29.57v-.11c.01-1.65-1.25-3.98-3.2-5.92A12.735,12.735,0,0,0,49.28,21H49a3.02,3.02,0,0,1-.22,1.12,2.963,2.963,0,0,1,2.17,2.42Z"></path><path d="M48.54,12.22a14.086,14.086,0,0,0-1.71,2.05,9.981,9.981,0,0,0-1.19,2.31c.12.08.26.15.38.23a8.024,8.024,0,0,1,1.6-.84l6.95-6.95h-.12C52.8,9.02,50.48,10.27,48.54,12.22Z"></path><path d="M47.34,18.33a3.066,3.066,0,0,1,.88.67H59.53c-.99-1.07-3.46-2-6.53-2A11.282,11.282,0,0,0,47.34,18.33Z"></path><circle cx="46" cy="21" r="1"></circle><path d="M32.47,19H43.78a3.007,3.007,0,0,1,.64-.54c.04-.07.08-.13.12-.2A11.489,11.489,0,0,0,39,17C35.93,17,33.46,17.93,32.47,19Z"></path><path d="M47.94,51,46.47,27.57a2.734,2.734,0,0,1-.47-.35,2.734,2.734,0,0,1-.47.35L44.06,51H26.32C27.35,49.55,28,46.88,28,44a16.83,16.83,0,0,0-.45-4H22.44a17.016,17.016,0,0,0-.37,2.46c.19.45.38.9.55,1.37A16.717,16.717,0,0,1,23.71,51H21.7a14.515,14.515,0,0,0-.96-6.49,17,17,0,0,0-1.79-3.6l-4.8,1.75a17.647,17.647,0,0,0,.95,3.91A16.478,16.478,0,0,0,17.5,51H2v2H62V51Zm-29.1,0L16.3,44l1.88-.68L20.97,51ZM24,51V42h2v9Z"></path><rect x="7" y="55" width="2" height="2"></rect><rect x="11" y="55" width="6" height="2"></rect><rect x="28" y="55" width="4" height="2"></rect><rect x="38" y="55" width="2" height="2"></rect><rect x="47" y="55" width="6" height="2"></rect><rect x="53" y="59" width="6" height="2"></rect><rect x="49" y="59" width="2" height="2"></rect><rect x="39" y="59" width="4" height="2"></rect><rect x="18" y="59" width="6" height="2"></rect><rect x="14" y="59" width="2" height="2"></rect></g></svg>