<svg xmlns="http://www.w3.org/2000/svg" viewBox="0 0 64 64" x="0px" y="0px"><g><path d="M18,38H46V36H43V19a1,1,0,0,0-1-1H38a1,1,0,0,0-1,1V36H35V25a1,1,0,0,0-1-1H30a1,1,0,0,0-1,1V36H27V29a1,1,0,0,0-1-1H22a1,1,0,0,0-1,1v7H19V14H17V37A1,1,0,0,0,18,38ZM41,20v7H39V20Zm-2,9h2v7H39Zm-6-3v4H31V26Zm-2,6h2v4H31Zm-6-2v2H23V30Zm-2,4h2v2H23Z"></path><path d="M25.707,25.707,33,18.414V20h2V16a1,1,0,0,0-1-1H30v2h1.586l-7.293,7.293Z"></path><rect x="48" y="18" width="8" height="2"></rect><rect x="48" y="22" width="2" height="2"></rect><rect x="52" y="22" width="4" height="2"></rect><rect x="48" y="26" width="4" height="2"></rect><rect x="54" y="26" width="2" height="2"></rect><rect x="48" y="30" width="8" height="2"></rect><rect x="8" y="16" width="6" height="2"></rect><rect x="8" y="22" width="6" height="2"></rect><rect x="8" y="28" width="6" height="2"></rect><rect x="8" y="34" width="6" height="2"></rect><path d="M57,2H7A5.006,5.006,0,0,0,2,7V45a5.006,5.006,0,0,0,5,5H23.867l-.75,6H21a3,3,0,0,0,0,6H43a3,3,0,0,0,0-6H40.883l-.75-6H57a5.006,5.006,0,0,0,5-5V7A5.006,5.006,0,0,0,57,2ZM7,4H57a3,3,0,0,1,3,3v3H4V7A3,3,0,0,1,7,4Zm53,8V40H4V12ZM44,59a1,1,0,0,1-1,1H21a1,1,0,0,1,0-2H43A1,1,0,0,1,44,59Zm-5.133-3H25.133l.75-6H38.117ZM57,48H7a3,3,0,0,1-3-3V42H60v3A3,3,0,0,1,57,48Z"></path><rect x="54" y="44" width="2" height="2"></rect><rect x="8" y="6" width="2" height="2"></rect><rect x="12" y="6" width="2" height="2"></rect><rect x="16" y="6" width="2" height="2"></rect></g></svg>