<svg xmlns="http://www.w3.org/2000/svg" viewBox="0 0 64 64" x="0px" y="0px"><g><circle cx="32" cy="21" r="4"></circle><path d="M18.159,49.215,22.58,30.67l-.082-.118-6.8,2.269L5,53.327Z"></path><path d="M31,39.49a46.455,46.455,0,0,1-6.859-6.745L20.176,49.381,31,53.544Z"></path><path d="M39.859,32.745A46.455,46.455,0,0,1,33,39.49V53.544l10.824-4.163Z"></path><path d="M59.107,53.361l-9.818-20.53L41.536,30.5l-.116.168,4.421,18.545Z"></path><path d="M43,21a11,11,0,0,0-22,0c0,7.281,8.621,14.792,11,16.725C34.377,35.791,43,28.271,43,21ZM26,21a6,6,0,1,1,6,6A6.006,6.006,0,0,1,26,21Z"></path></g></svg>