<svg xmlns="http://www.w3.org/2000/svg" viewBox="0 0 64 64" x="0px" y="0px"><g><rect x="19" y="52" width="26.001" height="2"></rect><path d="M46,50V42H18v8H46ZM30,47a2,2,0,0,1-2,2H22a2,2,0,0,1-2-2V45a2,2,0,0,1,2-2h6a2,2,0,0,1,2,2Zm3,1a1,1,0,0,1-2,0V44a1,1,0,0,1,2,0Zm3,0a1,1,0,0,1-2,0V44a1,1,0,0,1,2,0Zm5,1a3,3,0,1,1,3-3A3,3,0,0,1,41,49Z"></path><circle cx="41" cy="46" r="1"></circle><path d="M50.534,21.273a1,1,0,0,1-.774-.8A13.989,13.989,0,0,0,23.606,16.5a.985.985,0,0,1-.944.533l-.2-.013C22.311,17.011,22.157,17,22,17a11.016,11.016,0,0,0-10.894,9.557,1,1,0,0,1-.7.827A9,9,0,0,0,13,45h3V42a1.993,1.993,0,0,1,1-1.722V37.722A1.993,1.993,0,0,1,16,36V28a2,2,0,0,1,2-2H46a2,2,0,0,1,2,2v8a1.993,1.993,0,0,1-1,1.722v2.556A1.993,1.993,0,0,1,48,42v3a12,12,0,0,0,2.534-23.727Z"></path><rect x="22" y="45" width="6" height="2"></rect><circle cx="23" cy="32" r="1"></circle><rect x="19" y="38" width="26" height="2"></rect><rect x="36" y="31" width="6" height="2"></rect><path d="M46,28H18v8H46ZM23,35a3,3,0,1,1,3-3A3,3,0,0,1,23,35Zm6-1a1,1,0,0,1-2,0V30a1,1,0,0,1,2,0Zm3,0a1,1,0,0,1-2,0V30a1,1,0,0,1,2,0Zm12-1a2,2,0,0,1-2,2H36a2,2,0,0,1-2-2V31a2,2,0,0,1,2-2h6a2,2,0,0,1,2,2Z"></path></g></svg>