<svg xmlns="http://www.w3.org/2000/svg" viewBox="0 0 64 64" x="0px" y="0px"><g data-name="Hand Cleaning-Spray-Alcohol-Clean-Hand"><rect x="13" y="52" width="22" height="9"></rect><path d="M35,15V40.81l-1.93,4.82A.937.937,0,0,0,33,46v4H15V46.46a1.128,1.128,0,0,0-.13-.5L3.67,26.57a1.969,1.969,0,0,1-.2-1.52,2.016,2.016,0,0,1,.93-1.21,2,2,0,0,1,2.73.73l4,6.93A1,1,0,0,0,12,32h3a7.008,7.008,0,0,1,7,7v2h2V39a9.014,9.014,0,0,0-9-9H13V11a2,2,0,0,1,4,0V25a1,1,0,0,0,2,0V6a2,2,0,0,1,4,0V25a1,1,0,0,0,2,0V11a2,2,0,0,1,4,0V25a1,1,0,0,0,2,0V15a2,2,0,0,1,4,0Z"></path><rect x="45" y="30" width="2" height="2"></rect><rect x="37" y="30" width="2" height="2"></rect><rect x="41" y="30" width="2" height="2"></rect><rect x="45.034" y="25.741" width="2" height="2" transform="translate(8.29 64.286) rotate(-75)"></rect><rect x="41.171" y="24.706" width="2" height="2.001" transform="matrix(0.259, -0.966, 0.966, 0.259, 6.43, 59.791)"></rect><rect x="37.307" y="23.671" width="2" height="2" transform="translate(4.562 55.287) rotate(-75)"></rect><rect x="45.034" y="34.259" width="2" height="2" transform="translate(-7.557 13.116) rotate(-15)"></rect><rect x="41.17" y="35.294" width="2.001" height="2" transform="translate(-7.957 12.151) rotate(-15)"></rect><rect x="37.307" y="36.329" width="2" height="2" transform="translate(-8.356 11.186) rotate(-15)"></rect><path d="M49,60H61V40H49Zm3-11h2V47h2v2h2v2H56v2H54V51H52Z"></path><rect x="52" y="36" width="6" height="2"></rect><rect x="54" y="30" width="2" height="4"></rect></g></svg>