<svg xmlns="http://www.w3.org/2000/svg" viewBox="0 0 64 64" x="0px" y="0px"><g><path d="M39,32h5.586l-4.845-4.846c-.238.2-.488.39-.741.573Z"></path><path d="M39,23h1.647a9.915,9.915,0,0,0,0-10H39Z"></path><path d="M39,25.129q.066-.063.129-.129H39Z"></path><path d="M10,11V42H54V11a1,1,0,0,0-1-1H48v2h3a1,1,0,0,1,1,1V39a1,1,0,0,1-1,1H13a1,1,0,0,1-1-1V13a1,1,0,0,1,1-1h3V10H11A1,1,0,0,0,10,11Z"></path><path d="M37,7.105V4H27V7.105a11.865,11.865,0,0,1,10,0Z"></path><path d="M27,11H37V9.353a9.915,9.915,0,0,0-10,0Z"></path><path d="M46,13H42.9a11.865,11.865,0,0,1,0,10H46Z"></path><path d="M27,32H37V28.9a11.865,11.865,0,0,1-10,0Z"></path><path d="M16,31V14H14V38H50V14H48V31a3,3,0,0,1-3,3H19A3,3,0,0,1,16,31Z"></path><path d="M27,26.647a9.915,9.915,0,0,0,10,0V25H27Z"></path><path d="M46,5.414,41.155,10.26c.2.238.389.487.572.74H46Z"></path><path d="M41.155,25.74,46,30.586V25H41.727C41.544,25.253,41.356,25.5,41.155,25.74Z"></path><path d="M39,8.273c.253.183.5.371.741.573L44.586,4H39Z"></path><path d="M39,11h.129q-.063-.066-.129-.129Z"></path><path d="M59.382,54l-5-10H9.618l-5,10ZM54,52H52V50h2Zm-3-6h2v2H51Zm-1,6H48V50h2Zm-3-6h2v2H47Zm-4,0h2v2H43Zm-4,0h2v2H39Zm-4,0h2v2H35Zm-4,0h2v2H31Zm-4,0h2v2H27Zm-4,0h2v2H23Zm-4,0h2v2H19Zm-1,4H46v2H18Zm-3-4h2v2H15Zm-1,4h2v2H14Zm-3-4h2v2H11Zm-1,4h2v2H10Z"></path><path d="M18,13V23h3.105a11.865,11.865,0,0,1,0-10Z"></path><path d="M18,30.586l4.845-4.846c-.2-.238-.389-.487-.572-.74H18Z"></path><rect x="27" y="13" width="10" height="10"></rect><path d="M25,27.727c-.253-.183-.5-.371-.741-.573L19.414,32H25Z"></path><rect x="29" y="56" width="6" height="1"></rect><path d="M18,11h4.273c.183-.253.371-.5.572-.74L18,5.414Z"></path><path d="M25,4H19.414l4.845,4.846c.238-.2.488-.39.741-.573Z"></path><path d="M4,60H60V56H37v1a2,2,0,0,1-2,2H29a2,2,0,0,1-2-2V56H4Z"></path><path d="M25,10.871q-.066.063-.129.129H25Z"></path><path d="M25,13H23.353a9.915,9.915,0,0,0,0,10H25Z"></path><path d="M25,25h-.129q.063.066.129.129Z"></path><rect x="58" y="30" width="2" height="2"></rect><rect x="4" y="30" width="2" height="2"></rect><rect x="4" y="24" width="2" height="2"></rect><rect x="4" y="18" width="2" height="2"></rect><rect x="58" y="24" width="2" height="2"></rect><rect x="58" y="18" width="2" height="2"></rect><rect x="57" y="5" width="2" height="2"></rect><rect x="5" y="5" width="2" height="2"></rect></g></svg>