<svg xmlns="http://www.w3.org/2000/svg" viewBox="0 0 64 64" x="0px" y="0px"><g><path d="M57.1,24.72a10.987,10.987,0,0,0-14.34-13.994A11,11,0,0,0,21,13c0,.432.03.881.076,1.338a10.912,10.912,0,0,0-6.6.283A11.027,11.027,0,0,0,7.9,28.724c1.793,4.9,7.571,10.666,12.972,10.734l.665,3.293a1,1,0,0,0,.98.8.987.987,0,0,0,.342-.061l.951-.346,7.253,19.207L32,62l.942.336,8.265-23.183.934.34a.978.978,0,0,0,.341.061,1,1,0,0,0,.981-.8l.664-3.293C49.527,35.388,55.306,29.624,57.1,24.72ZM49.838,12.5a9.024,9.024,0,0,1,5.383,11.536C53.252,29.417,46.787,34.8,42.31,33.169c-2.785-1.007-4.22-4.542-4.672-7.686A18.765,18.765,0,0,0,43,13c0-.065-.009-.129-.01-.194A8.966,8.966,0,0,1,49.838,12.5ZM32,4a9.01,9.01,0,0,1,9,9c0,5.73-4.237,13-9,13s-9-7.27-9-13A9.011,9.011,0,0,1,32,4Zm.837,26H31.163l.308-2.046c.177.014.35.046.529.046s.352-.032.529-.046ZM9.78,28.04A9.025,9.025,0,0,1,15.162,16.5a8.914,8.914,0,0,1,6.293.062c.9,3.763,3.085,7.749,6.053,9.879.151,4.477-1.415,9.486-4.821,10.729C18.225,38.8,11.749,33.418,9.78,28.04ZM22.863,39.209c.171-.048.341-.1.51-.16s.323-.141.484-.214l.985,1.809-1.573.572Zm4.292,1.5-1.608-2.949a11.892,11.892,0,0,0,3.5-6.467.984.984,0,0,0,.2.361A1,1,0,0,0,30,32h1V56.521L25.691,42.463l.928-.338a1,1,0,0,0,.536-1.418ZM33,56.217V32h1a1,1,0,0,0,.989-1.149l-.5-3.327a8.39,8.39,0,0,0,1.357-.672,12.1,12.1,0,0,0,3.607,6.908l-1.605,2.947a1,1,0,0,0,.536,1.418l.945.344Zm7.158-19.573.98-1.8c.161.074.323.145.49.2s.338.113.509.16l-.405,2.007Z"></path><path d="M57.005,41A2.853,2.853,0,0,1,54,38v-.013h0a1,1,0,0,0-2,.01A2.853,2.853,0,0,1,49,41h-.015A1,1,0,0,0,49,43,2.853,2.853,0,0,1,52,46v.013h0a1,1,0,0,0,2-.01A2.853,2.853,0,0,1,57,43h.015a1,1,0,0,0-.01-2Zm-3.988,1.852a4.363,4.363,0,0,0-.87-.835,4.39,4.39,0,0,0,.836-.869,4.363,4.363,0,0,0,.87.835A4.39,4.39,0,0,0,53.017,42.852Z"></path><path d="M19.005,53a2.853,2.853,0,0,1-3-3v-.013h0A1,1,0,0,0,14,50,2.853,2.853,0,0,1,11,53h-.015A1,1,0,0,0,11,55,2.853,2.853,0,0,1,14,58v.013h0a1,1,0,0,0,2-.01A2.853,2.853,0,0,1,19,55h.015a1,1,0,0,0-.01-2Zm-3.988,1.852a4.413,4.413,0,0,0-.869-.835,4.413,4.413,0,0,0,.835-.869,4.413,4.413,0,0,0,.869.835A4.413,4.413,0,0,0,15.017,54.852Z"></path><path d="M8,11v.01H8a1,1,0,0,0,2-.01A2.853,2.853,0,0,1,13,8h.015a1,1,0,0,0-.01-2A2.853,2.853,0,0,1,10,3V2.987h0A1,1,0,0,0,8,3,2.853,2.853,0,0,1,5,6H5a.033.033,0,0,0-.01,0h0A1,1,0,0,0,5,8,2.853,2.853,0,0,1,8,11Zm.983-4.855a4.413,4.413,0,0,0,.869.835,4.413,4.413,0,0,0-.835.869,4.413,4.413,0,0,0-.869-.835A4.413,4.413,0,0,0,8.983,6.148Z"></path></g></svg>