<svg xmlns="http://www.w3.org/2000/svg" data-name="Online Banking-Payment-Money-Smartphone-App" viewBox="0 0 64 64" x="0px" y="0px"><path d="M32,35a4,4,0,1,0-4-4A4,4,0,0,0,32,35Zm0-6a2,2,0,1,1-2,2A2,2,0,0,1,32,29Z"></path><path d="M44,2H20a7.008,7.008,0,0,0-7,7V31.15L6.76,41.95A16.875,16.875,0,0,0,4.59,52.33l1.08,9.78,1.99-.22L6.57,52.11a14.956,14.956,0,0,1,1.92-9.16L13,35.15V48.12l-.56.98,1.73,1,5-8.66a1.988,1.988,0,0,1,2.73-.73,1.894,1.894,0,0,1,.93,1.21,1.974,1.974,0,0,1-.2,1.52l-3.5,6.06a1.023,1.023,0,0,0-.06.87l1.29,3.21A9.149,9.149,0,0,1,21,56.93v1.3a8.937,8.937,0,0,1-.66,3.39l1.85.76c.05-.13.08-.25.13-.38H44a7.008,7.008,0,0,0,7-7V9A7.008,7.008,0,0,0,44,2ZM21,38a1,1,0,0,1-1-1V35.14A4.017,4.017,0,0,1,22.86,38Zm-1-4.91V28.91A5.992,5.992,0,0,0,24.91,24H39.09A5.992,5.992,0,0,0,44,28.91v4.18A5.992,5.992,0,0,0,39.09,38H24.91A5.992,5.992,0,0,0,20,33.09Zm0-6.23V25a1,1,0,0,1,1-1h1.86A4.017,4.017,0,0,1,20,26.86ZM41.14,24H43a1,1,0,0,1,1,1v1.86A4.017,4.017,0,0,1,41.14,24ZM44,35.14V37a1,1,0,0,1-1,1H41.14A4.017,4.017,0,0,1,44,35.14ZM49,55a5,5,0,0,1-5,5H22.85A11.529,11.529,0,0,0,23,58.23v-1.3A11.075,11.075,0,0,0,22.6,54H49Zm0-3H21.88l-.77-1.92,3.26-5.64a4.005,4.005,0,0,0-.3-4.44H43a3.009,3.009,0,0,0,3-3V25a3.009,3.009,0,0,0-3-3H21a3.009,3.009,0,0,0-3,3V37a2.975,2.975,0,0,0,.82,2.05,3.832,3.832,0,0,0-1.38,1.39L15,44.66V12H49Zm0-42H15V9a5,5,0,0,1,5-5H44a5,5,0,0,1,5,5Z"></path><rect x="25" y="6" width="2" height="2"></rect><rect x="29" y="6" width="6" height="2"></rect><rect x="30" y="56" width="4" height="2"></rect><path d="M17,15v4h2V16h3V14H18A1,1,0,0,0,17,15Z"></path></svg>