<svg xmlns="http://www.w3.org/2000/svg" viewBox="0 0 64 64" x="0px" y="0px"><g data-name="File Creative Idea"><path d="M29,33a1,1,0,0,0,0,2h2V34H30A1,1,0,0,0,29,33Z"></path><rect x="31" y="46" width="2" height="1"></rect><path d="M35,33a1,1,0,0,0-1,1H33v1h2a1,1,0,0,0,0-2Z"></path><path d="M39,35a7,7,0,1,0-9.625,6.486,1,1,0,0,1,.625.927V44h4V42.413a1,1,0,0,1,.625-.927A6.972,6.972,0,0,0,39,35Zm-4,2H33v5H31V37H29a3,3,0,1,1,2.816-4h.368A2.995,2.995,0,1,1,35,37Z"></path><path d="M12,60H52a1,1,0,0,0,1-1V12.846a.992.992,0,0,0-.292-.706L46,5.418V11a1,1,0,0,0,1,1h4v2H47a3,3,0,0,1-3-3V4H12a1,1,0,0,0-1,1V59A1,1,0,0,0,12,60Zm9-26v2H17V34Zm-.313-8.9L22.1,23.687l2.828,2.828-1.414,1.414ZM22.1,46.313,20.687,44.9l2.828-2.828,1.414,1.414ZM37,44v2H35v2a1,1,0,0,1-1,1H33v1H31V49H30a1,1,0,0,1-1-1V46H27V44h1v-.94a9,9,0,1,1,8,0V44ZM31,24V20h2v4ZM41.9,46.313l-2.828-2.828,1.414-1.414L43.313,44.9ZM47,34v2H43V34ZM41.9,23.687,43.313,25.1l-2.828,2.828-1.414-1.414ZM19,8H39v2H19ZM15,8h2v2H15Zm0,4H39v2H15Z"></path></g></svg>