<svg xmlns="http://www.w3.org/2000/svg" viewBox="0 0 64 64" x="0px" y="0px"><g data-name="Scale-Weight-Weight Scale-Body Scale-Tool"><circle cx="54" cy="10" r="2"></circle><circle cx="10" cy="10" r="2"></circle><path d="M60,9a5.006,5.006,0,0,0-5-5H9A5.006,5.006,0,0,0,4,9V55a5.006,5.006,0,0,0,5,5H55a5.006,5.006,0,0,0,5-5ZM19,11a3,3,0,0,1,3-3H42a3,3,0,0,1,3,3v4a3,3,0,0,1-3,3H22a3,3,0,0,1-3-3ZM52,32v2H40V32ZM24,32v2H12V32ZM6,10a4,4,0,1,1,4,4A4,4,0,0,1,6,10ZM24,46H12V44H24Zm3-6H9V38H27Zm6,16H31V22h2ZM52,46H40V44H52Zm3-6H37V38H55ZM54,14a4,4,0,1,1,4-4A4,4,0,0,1,54,14Z"></path><rect x="21" y="10" width="22" height="6" rx="1"></rect></g></svg>