<svg xmlns="http://www.w3.org/2000/svg" viewBox="0 0 64 64" x="0px" y="0px"><title>Saving Money</title><g data-name="Saving Money"><path d="M17,28a2,2,0,0,1-2-2H13a4,4,0,0,0,8,0H19A2,2,0,0,1,17,28Z"></path><path d="M61,42V39a3,3,0,0,0-3-3c0-6.9-4.673-13.324-12.24-16.959a8.995,8.995,0,1,0-17.722-2.8c-.736.088-1.474.192-2.21.328A9.024,9.024,0,0,0,18,12a1,1,0,0,0-1,1v6.656A21.978,21.978,0,0,0,8.165,28H4a2,2,0,0,0-2,2V42a2,2,0,0,0,2,2H8.165A21.751,21.751,0,0,0,16,51.752V59a2,2,0,0,0,2,2h6a2,2,0,0,0,2-2V55.452a33.045,33.045,0,0,0,18-1.7V59a2,2,0,0,0,2,2h6a2,2,0,0,0,2-2V46.663A17.071,17.071,0,0,0,57.855,38H58a1,1,0,0,1,1,1v3a2,2,0,0,0,2,2h1V42ZM30,17a7,7,0,0,1,14,0,6.9,6.9,0,0,1-.377,2.259A6.99,6.99,0,0,1,37,24a6.789,6.789,0,0,1-.7-.036A7.044,7.044,0,0,1,30,17.121ZM52.239,45.651A1,1,0,0,0,52,46.3V59H46V52.23a1,1,0,0,0-1-1,1.015,1.015,0,0,0-.421.093,30.887,30.887,0,0,1-19.364,1.931A1,1,0,0,0,24,54.23V59H18V51.18a1,1,0,0,0-.5-.868,19.717,19.717,0,0,1-7.851-7.774A1,1,0,0,0,8.76,42H4V30H8.76a1,1,0,0,0,.886-.538,19.978,19.978,0,0,1,8.811-8.313A1,1,0,0,0,19,20.26V14.072a7.034,7.034,0,0,1,5.37,4.042,1,1,0,0,0,1.112.566c.865-.179,1.738-.325,2.605-.434.019.137.051.27.076.405.022.115.04.232.066.345.042.182.1.36.148.538.028.092.049.186.079.276.088.264.188.524.3.777.025.056.056.109.082.165.091.2.185.392.29.581.051.091.109.177.163.267.089.147.177.3.274.438.065.095.136.185.2.277.1.13.191.26.294.384.075.092.156.179.235.268.105.117.21.233.32.345.085.086.174.168.262.251.114.106.228.209.346.309.05.042.1.087.148.128H28v2H46V24H42.651c.048-.039.1-.074.145-.114l.013-.011a9.039,9.039,0,0,0,.832-.806c.024-.027.049-.051.073-.078a8.742,8.742,0,0,0,.69-.885c.032-.046.065-.091.1-.138a8.993,8.993,0,0,0,.551-.961c.014-.027.032-.051.046-.078C51.849,24.241,56,29.942,56,36A14.831,14.831,0,0,1,52.239,45.651Z"></path><path d="M37,20a1,1,0,0,1-1-1H34a3,3,0,0,0,2,2.816V23h2V21.816A2.993,2.993,0,0,0,37,16a1,1,0,1,1,1-1h2a3,3,0,0,0-2-2.816V11H36v1.184A2.993,2.993,0,0,0,37,18a1,1,0,0,1,0,2Z"></path><rect x="48" y="5" width="2" height="2"></rect><rect x="50" y="7" width="2" height="2"></rect><rect x="46" y="7" width="2" height="2"></rect><rect x="48" y="9" width="2" height="2"></rect><rect x="57" y="13" width="2" height="2"></rect><rect x="59" y="15" width="2" height="2"></rect><rect x="55" y="15" width="2" height="2"></rect><rect x="57" y="17" width="2" height="2"></rect><rect x="25" y="2" width="2" height="2"></rect><rect x="27" y="4" width="2" height="2"></rect><rect x="23" y="4" width="2" height="2"></rect><rect x="25" y="6" width="2" height="2"></rect></g></svg>