<svg xmlns="http://www.w3.org/2000/svg" viewBox="0 0 64 64" x="0px" y="0px"><g><path d="M61.15,39.9a3.987,3.987,0,0,0-2.43-1.86,3.907,3.907,0,0,0-1.44-.11A3,3,0,0,0,58,36V34a2.974,2.974,0,0,0-.78-2A2.974,2.974,0,0,0,58,30V28a2.974,2.974,0,0,0-.78-2A2.974,2.974,0,0,0,58,24V22a3.009,3.009,0,0,0-3-3H50V16.17l.71.11a6.559,6.559,0,0,0,1.08.09,7.057,7.057,0,0,0,6.55-4.49l.67-1.76a1,1,0,0,0-.06-.86,1.03,1.03,0,0,0-.71-.49l-1.87-.3A7.033,7.033,0,0,0,49,12.35a7.019,7.019,0,0,0-7.37-3.88l-1.87.3a1.03,1.03,0,0,0-.71.49,1,1,0,0,0-.06.86l.67,1.76a7.057,7.057,0,0,0,6.55,4.49,6.559,6.559,0,0,0,1.08-.09l.71-.11V19H43a3.009,3.009,0,0,0-3,3v2a2.923,2.923,0,0,0,.32,1.32A2.923,2.923,0,0,0,39,25H27a3.009,3.009,0,0,0-3,3v2a2.974,2.974,0,0,0,.78,2A2.974,2.974,0,0,0,24,34v2a3,3,0,0,0,.44,1.54,11.019,11.019,0,0,0-2.33,1.03L19.72,40H2v2H20a1,1,0,0,0,.51-.14l2.63-1.58A9,9,0,0,1,27.77,39h1.3a9.149,9.149,0,0,1,3.35.64l3.21,1.29A.937.937,0,0,0,36,41h7a2,2,0,0,1,0,4H33v2H43.51a5.009,5.009,0,0,0,2.5-.67l10.67-6.16a2,2,0,1,1,2,3.46L45.05,51.51a14.956,14.956,0,0,1-9.16,1.92L23.11,52.01a1.408,1.408,0,0,0-.2-.01l-21,2,.18,2,20.9-1.99,12.68,1.4a16.821,16.821,0,0,0,10.38-2.17l13.63-7.87A4.018,4.018,0,0,0,61.15,39.9ZM50.61,13.6a5.021,5.021,0,0,1,5.45-3.15l.64.1-.23.61a5.021,5.021,0,0,1-5.45,3.15l-.64-.1Zm-3.63.71a5.021,5.021,0,0,1-5.45-3.15l-.23-.61.64-.1a5.021,5.021,0,0,1,5.45,3.15l.23.61ZM26,28a1,1,0,0,1,1-1h1v2h2V27h2v2h2V27h2v2h2V27h1a1,1,0,0,1,1,1v2a1,1,0,0,1-1,1H27a1,1,0,0,1-1-1Zm1,9a1,1,0,0,1-1-1V34a1,1,0,0,1,1-1h1v2h2V33h2v2h2V33h2v2h2V33h1a1,1,0,0,1,1,1v2a1,1,0,0,1-1,1Zm19.95,6.48A3.906,3.906,0,0,0,47,43a4,4,0,0,0-4-4H39a2.974,2.974,0,0,0,2-.78A2.974,2.974,0,0,0,43,39H54.7ZM56,36a1,1,0,0,1-1,1H43a1,1,0,0,1-1-1V34a1,1,0,0,1,1-1h1v2h2V33h2v2h2V33h2v2h2V33h1a1,1,0,0,1,1,1Zm0-6a1,1,0,0,1-1,1H43a1,1,0,0,1-1-1V28a1,1,0,0,1,1-1h1v2h2V27h2v2h2V27h2v2h2V27h1a1,1,0,0,1,1,1Zm0-6a1,1,0,0,1-1,1H43a1,1,0,0,1-1-1V22a1,1,0,0,1,1-1h1v2h2V21h2v2h2V21h2v2h2V21h1a1,1,0,0,1,1,1Z"></path></g></svg>