<svg xmlns="http://www.w3.org/2000/svg" viewBox="0 0 64 64" x="0px" y="0px"><g><path d="M46.69,43.3l-6.54-2.05c3.33-.54,6.37-1.27,8.37-1.8a3,3,0,0,0,2.21-3.35L48.11,18.66A1.99,1.99,0,0,0,49,17V15a2.006,2.006,0,0,0-2-2H41.19a11.053,11.053,0,0,0-4.64-3.99A4.8,4.8,0,0,0,37,7,5,5,0,0,0,27,7a4.8,4.8,0,0,0,.45,2.01A11.053,11.053,0,0,0,22.81,13H17a2.006,2.006,0,0,0-2,2v2a1.99,1.99,0,0,0,.89,1.66L13.27,36.1a3,3,0,0,0,2.21,3.35c2,.53,5.04,1.26,8.37,1.8l-6.54,2.04A8.963,8.963,0,0,0,11,51.88V61a1,1,0,0,0,1,1H52a1,1,0,0,0,1-1V51.88A8.941,8.941,0,0,0,46.69,43.3Zm2.06-6.9a1,1,0,0,1-.74,1.11,83.292,83.292,0,0,1-10.95,2.15L37,39.6V36.79a11.064,11.064,0,0,0,2.78-2.01A10.919,10.919,0,0,0,42.95,28H43a3.963,3.963,0,0,0,3.96-3.55ZM32,40c-.97,0-1.98-.05-3-.13v-2.3a10.8,10.8,0,0,0,6,.01v2.29C33.98,39.95,32.97,40,32,40Zm2.62,1.9-.14.75a2.962,2.962,0,0,1-4.95.03l-.15-.78c.89.06,1.76.1,2.62.1S33.73,41.96,34.62,41.9ZM32,36a8.956,8.956,0,0,1-7.05-3.43l5.16-.58-.22-1.98-6.09.68a8.89,8.89,0,0,1-.62-1.91l7.06-1.41a9.065,9.065,0,0,1,3.52,0l7.06,1.41a8.531,8.531,0,0,1-.62,1.91l-6.09-.68-.22,1.98,5.17.58a8.777,8.777,0,0,1-.7.79A8.942,8.942,0,0,1,32,36ZM26.58,19H37.42A5.006,5.006,0,0,0,41,21.89v4.89l-6.84-1.37a11.214,11.214,0,0,0-4.32,0L23,26.78V21.89A5.006,5.006,0,0,0,26.58,19ZM23,19.83V19h1.23A2.986,2.986,0,0,1,23,19.83ZM39.77,19H41v.83A2.986,2.986,0,0,1,39.77,19ZM45,24a2.015,2.015,0,0,1-2,2V22A2.006,2.006,0,0,1,45,24Zm-2-4V19h3.14l.5,3.37A4,4,0,0,0,43,20ZM32,4a3.009,3.009,0,0,1,3,3,2.95,2.95,0,0,1-.33,1.34,10.654,10.654,0,0,0-5.34,0A2.95,2.95,0,0,1,29,7,3.009,3.009,0,0,1,32,4Zm0,6a9,9,0,0,1,6.68,3H25.32A9,9,0,0,1,32,10ZM17,15H47v2H17Zm.36,7.37.5-3.37H21v1A4,4,0,0,0,17.36,22.37ZM21,22v4a2.015,2.015,0,0,1-2-2A2.006,2.006,0,0,1,21,22ZM15.99,37.51a1,1,0,0,1-.74-1.11l1.79-11.95A3.963,3.963,0,0,0,21,28h.05A11.028,11.028,0,0,0,27,36.79V39.6l-.06.06A83.292,83.292,0,0,1,15.99,37.51ZM20.39,60a3.6,3.6,0,0,0-.22-.37A6.735,6.735,0,0,1,19,56a6.609,6.609,0,0,1,1.71-4.29l-1.42-1.42A8.137,8.137,0,0,0,18.08,60H13V51.88a6.964,6.964,0,0,1,4.91-6.68l5.38-1.68L21.89,45a1.006,1.006,0,0,0-.27.83,1.028,1.028,0,0,0,.49.72l2.62,1.51-1.57,1.79a.984.984,0,0,0-.04,1.27L29.97,60Zm4.81-9.45,1.84-2.08a1,1,0,0,0,.23-.83.97.97,0,0,0-.48-.7l-2.58-1.49,3.17-3.35,2.85,14.98Zm4.89-4.94a4.872,4.872,0,0,0,3.82,0L32,55.65Zm6.53-3.51,3.17,3.35-2.58,1.49a.97.97,0,0,0-.48.7,1,1,0,0,0,.23.83l1.84,2.08-5.03,6.53ZM51,60H45.92a8.137,8.137,0,0,0-1.21-9.71l-1.42,1.42A6.609,6.609,0,0,1,45,56a6.723,6.723,0,0,1-1.18,3.64c-.08.12-.14.24-.21.36H34.03l6.85-8.88a.984.984,0,0,0-.04-1.27l-1.57-1.79,2.62-1.51a1.028,1.028,0,0,0,.49-.72,1.006,1.006,0,0,0-.27-.83l-1.4-1.48,5.38,1.69A6.943,6.943,0,0,1,51,51.88Z"></path><circle cx="28" cy="23" r="2"></circle><circle cx="36" cy="23" r="2"></circle></g></svg>