<svg xmlns="http://www.w3.org/2000/svg" viewBox="0 0 64 64" x="0px" y="0px"><g><path d="M62.3,22.69,41.09,1.48a1,1,0,0,0-1.41,0L4.32,36.84a7.007,7.007,0,0,0,0,9.9L17.05,59.46a7,7,0,0,0,9.9,0l7.07-7.07L62.3,24.11A.99.99,0,0,0,62.3,22.69Zm-6.36-3.53L29.07,46.03l-5.66-5.66-5.65-5.65L44.63,7.85ZM40.38,3.6l2.83,2.83L16.34,33.3l-2.83-2.83ZM25.54,58.05a5.022,5.022,0,0,1-7.08,0L5.74,45.32a5,5,0,0,1,0-7.07l6.36-6.36,19.8,19.8Zm7.77-7.78-2.82-2.83L57.36,20.57l2.82,2.83Z"></path><rect x="25.95" y="34.837" width="2" height="4.001" transform="translate(-18.155 29.85) rotate(-45.005)"></rect><rect x="28.778" y="32.009" width="2" height="4" transform="translate(-15.326 31.013) rotate(-44.995)"></rect><rect x="31.607" y="29.18" width="2" height="4" transform="translate(-12.498 32.189) rotate(-45)"></rect><rect x="34.435" y="26.352" width="2" height="4.001" transform="translate(-9.669 33.364) rotate(-45.005)"></rect><rect x="37.264" y="23.523" width="2" height="4" transform="translate(-6.841 34.528) rotate(-44.995)"></rect><rect x="40.092" y="20.695" width="2" height="4" transform="translate(-4.012 35.703) rotate(-45)"></rect><rect x="42.921" y="17.866" width="2" height="4.001" transform="translate(-1.182 36.879) rotate(-45.005)"></rect><rect x="45.749" y="15.038" width="2" height="4" transform="translate(1.645 38.047) rotate(-45)"></rect></g></svg>