<svg xmlns="http://www.w3.org/2000/svg" viewBox="0 0 64 64" x="0px" y="0px"><g data-name="Nuclear Tank"><circle cx="32" cy="34" r="1"></circle><path d="M28.309,27.048l-1.3-4.858a12.022,12.022,0,0,0-7.749,13.422l4.858-1.3a7,7,0,0,1,4.193-7.262Z"></path><rect x="44" y="4" width="4" height="2"></rect><rect x="8" y="8" width="48" height="1"></rect><path d="M32,42a6.944,6.944,0,0,1-4.192-1.393l-3.557,3.556a12.02,12.02,0,0,0,15.5,0l-3.557-3.556A6.944,6.944,0,0,1,32,42Z"></path><path d="M36.993,22.19l-1.3,4.858a7,7,0,0,1,4.193,7.262l4.858,1.3A12.022,12.022,0,0,0,36.993,22.19Z"></path><path d="M56,34V33H50V31h2V11H12V31h2v2H8v1h6v2H12V57H52V36H50V34ZM18.511,37.847a1,1,0,0,1-.966-.741,14.018,14.018,0,0,1,9.9-17.147,1,1,0,0,1,1.225.708l1.812,6.761a1,1,0,0,1-.707,1.225,5,5,0,0,0-3.536,6.123A1,1,0,0,1,25.531,36L18.77,37.813A.99.99,0,0,1,18.511,37.847ZM32,31a3,3,0,1,1-3,3A3,3,0,0,1,32,31Zm9.9,13.9a14.015,14.015,0,0,1-19.8,0,1,1,0,0,1,0-1.414l4.95-4.949a1,1,0,0,1,1.414,0,5,5,0,0,0,7.07,0,1.029,1.029,0,0,1,1.414,0l4.95,4.949a1,1,0,0,1,0,1.414Zm4.556-7.793a1,1,0,0,1-1.225.707L38.469,36a1,1,0,0,1-.707-1.225,5,5,0,0,0-3.536-6.123,1,1,0,0,1-.707-1.225l1.812-6.761a1,1,0,0,1,1.225-.708A14.018,14.018,0,0,1,46.455,37.106Z"></path><rect x="8" y="59" width="48" height="1"></rect></g></svg>