<svg xmlns="http://www.w3.org/2000/svg" viewBox="0 0 64 64" x="0px" y="0px"><title>Break</title><g><path d="M51.286,16.128l1.873-1.873a3.008,3.008,0,0,0-.144-4.388,32.081,32.081,0,0,0-42.03,0,3.008,3.008,0,0,0-.144,4.388l1.874,1.874a26.981,26.981,0,0,0,17.6,45.82c.571.034,1.138.051,1.7.051A27,27,0,0,0,59,35,27.06,27.06,0,0,0,51.286,16.128ZM12.255,12.841a1,1,0,0,1-.294-.749.987.987,0,0,1,.339-.718,30.073,30.073,0,0,1,39.4,0,.987.987,0,0,1,.339.718,1,1,0,0,1-.294.749l-2.582,2.582-3.091,3.091a1,1,0,0,1-1.349.048A20.077,20.077,0,0,0,37,14.648V14a5.008,5.008,0,0,0-1.636-3.7A4.892,4.892,0,0,0,34.3,9.582c-.078-.043-.162-.072-.243-.11a5.023,5.023,0,0,0-.574-.237,4.826,4.826,0,0,0-.673-.149c-.093-.015-.182-.044-.275-.054-.016,0-.031-.008-.047-.009-.161-.015-.32,0-.48,0s-.327-.02-.492,0c-.017,0-.032.008-.048.009-.094.011-.184.04-.277.055a4.644,4.644,0,0,0-.67.148,4.918,4.918,0,0,0-.578.239c-.079.037-.162.066-.239.108a4.916,4.916,0,0,0-1.066.719A5.008,5.008,0,0,0,27,14v.648a20.088,20.088,0,0,0-7.724,3.914,1,1,0,0,1-1.348-.048l-3.091-3.091ZM49.131,53.209A25,25,0,0,1,14.123,17.537l2.391,2.391a3,3,0,0,0,.454.371c.053.036.11.059.165.091a2.932,2.932,0,0,0,.337.178c.069.029.142.046.214.07a2.8,2.8,0,0,0,.32.1c.079.016.159.022.239.032a2.735,2.735,0,0,0,.314.03c.022,0,.043.007.065.007.079,0,.158-.014.237-.02s.144-.008.216-.019a2.728,2.728,0,0,0,.319-.074c.066-.017.132-.029.2-.051a3.163,3.163,0,0,0,.339-.148c.052-.025.105-.043.156-.071a3.07,3.07,0,0,0,.461-.313,18.05,18.05,0,0,1,7.662-3.689A1,1,0,0,0,29,15.44V14.17a3.173,3.173,0,0,1,2.132-3.037c.079-.024.161-.036.242-.053a2.786,2.786,0,0,1,.315-.063,2.881,2.881,0,0,1,.294,0,3.026,3.026,0,0,1,.33,0,2.837,2.837,0,0,1,.3.061c.084.018.169.03.251.055A3.174,3.174,0,0,1,35,14.17v1.27a1,1,0,0,0,.791.978,18.041,18.041,0,0,1,7.661,3.689,3,3,0,0,0,4.034-.179l2.391-2.391a24.986,24.986,0,0,1-.746,35.672Z"></path><path d="M44,15a3,3,0,1,0-3-3A3,3,0,0,0,44,15Zm0-4a1,1,0,1,1-1,1A1,1,0,0,1,44,11Z"></path><path d="M20,15a3,3,0,1,0-3-3A3,3,0,0,0,20,15Zm0-4a1,1,0,1,1-1,1A1,1,0,0,1,20,11Z"></path><path d="M31.7,30.009a5,5,0,0,0,.3,9.991c.1,0,.206,0,.31-.009a5,5,0,0,0-.606-9.982Zm3.3,4.81a3,3,0,1,1-3.176-2.814C31.881,32,31.942,32,32,32a3,3,0,0,1,2.99,2.818Z"></path><path d="M32,23A12,12,0,1,0,44,35,12.013,12.013,0,0,0,32,23Zm0,22A10,10,0,1,1,42,35,10.011,10.011,0,0,1,32,45Z"></path><path d="M15.712,25.163a1,1,0,0,0-1.355.409,20.166,20.166,0,0,0-1,2.178,1,1,0,1,0,1.864.727,17.856,17.856,0,0,1,.9-1.961A1,1,0,0,0,15.712,25.163Z"></path><path d="M13.611,30.1a1,1,0,0,0-1.184.773,19.682,19.682,0,0,0-.324,2.093A1,1,0,0,0,13,34.061c.034,0,.067,0,.1,0a1,1,0,0,0,.994-.9,17.565,17.565,0,0,1,.291-1.881A1,1,0,0,0,13.611,30.1Z"></path><path d="M22.492,50.288a18.411,18.411,0,0,1-1.868-1.338A1,1,0,0,0,19.358,50.5a20.3,20.3,0,0,0,2.076,1.485.99.99,0,0,0,.528.152,1,1,0,0,0,.53-1.848Z"></path><path d="M27.3,52.381a18,18,0,0,1-1.948-.647,1,1,0,0,0-.738,1.859,20.094,20.094,0,0,0,2.164.719.989.989,0,0,0,.262.035,1,1,0,0,0,.26-1.966Z"></path><path d="M45.29,47.14a18.177,18.177,0,0,1-1.914,1.81A1,1,0,1,0,44.642,50.5a20.265,20.265,0,0,0,2.125-2.01A1,1,0,0,0,45.29,47.14Z"></path><path d="M49.644,42.131a1,1,0,0,0-1.33.484,17.7,17.7,0,0,1-1.031,1.9,1,1,0,0,0,1.7,1.059,19.7,19.7,0,0,0,1.148-2.114A1,1,0,0,0,49.644,42.131Z"></path><path d="M51.314,29.789a1,1,0,1,0-1.931.52,18.018,18.018,0,0,1,.4,1.915,1,1,0,0,0,1.977-.3A20.043,20.043,0,0,0,51.314,29.789Z"></path><path d="M48.357,27.477a1,1,0,0,0,1.817-.837,20.227,20.227,0,0,0-1.194-2.213,1,1,0,0,0-1.7,1.059A17.906,17.906,0,0,1,48.357,27.477Z"></path></g></svg>