<svg xmlns="http://www.w3.org/2000/svg" viewBox="0 0 64 64" x="0px" y="0px"><g data-name="Wallet-Credit Card-Payment-Budget-Payment Method"><path d="M4,36H18a1.03,1.03,0,0,1,.67.25L23.98,41H31V33H4Z"></path><path d="M4,55H31V50H23.6a1.03,1.03,0,0,1-.67-.25L17.62,45H4Z"></path><path d="M18.67,43.25,23.98,48H31V43H23.6a1.03,1.03,0,0,1-.67-.25L17.62,38H4v5H18A1.03,1.03,0,0,1,18.67,43.25Z"></path><rect x="19" y="17" width="4" height="4"></rect><rect x="4" y="27" width="5" height="4"></rect><rect x="15" y="13" width="2" height="8"></rect><rect x="19" y="13" width="4" height="2"></rect><path d="M60,33H33V55H60ZM57,49a3,3,0,0,1-3,3H39a3,3,0,0,1-3-3V39a3,3,0,0,1,3-3H54a3,3,0,0,1,3,3Z"></path><path d="M39,29a4,4,0,0,1,4-4h4a4,4,0,0,1,4,4,3.906,3.906,0,0,1-.56,2H53V10a1,1,0,0,0-1-1H12a1,1,0,0,0-1,1V31H39.56A3.906,3.906,0,0,1,39,29Zm8-16h4v2H47Zm-6,0h4v2H41Zm-6,0h4v2H35Zm-6,0h4v2H29ZM15,29H13V25h2Zm4,0H17V25h2Zm4,0H21V25h2Zm0-6H15a2,2,0,0,1-2-2V13a2,2,0,0,1,2-2h8a2,2,0,0,1,2,2v8A2,2,0,0,1,23,23Zm4,6H25V25h2Zm2-11H51v2H29Zm4,11H31V25h2Zm4,0H35V25h2Z"></path><rect x="55" y="27" width="5" height="4"></rect><path d="M43,27a2,2,0,0,0,0,4h4a2,2,0,0,0,0-4Z"></path><rect x="38" y="38" width="17" height="12" rx="1"></rect></g></svg>