<svg xmlns="http://www.w3.org/2000/svg" viewBox="0 0 64 64" x="0px" y="0px"><g><rect x="5" y="31" width="2" height="2"></rect><rect x="9" y="32" width="2" height="2"></rect><rect x="5" y="38" width="2" height="2"></rect><rect x="9" y="39" width="2" height="2"></rect><rect x="8" y="24" width="12" height="2"></rect><path d="M37,30H59a3.009,3.009,0,0,0,3-3V5a3.009,3.009,0,0,0-3-3H37a3.009,3.009,0,0,0-3,3V15H31a1,1,0,0,0-1,1V29.18A3.035,3.035,0,0,0,28.18,31H26V25c0-3.42-5.16-6-12-6S2,21.58,2,25V39c0,3.42,5.16,6,12,6s12-2.58,12-6V33h2.18A3.035,3.035,0,0,0,30,34.82V48a1,1,0,0,0,1,1h3V59a3.009,3.009,0,0,0,3,3H59a3.009,3.009,0,0,0,3-3V37a3.009,3.009,0,0,0-3-3H37a3.009,3.009,0,0,0-3,3V47H32V34.82a2.988,2.988,0,0,0,0-5.64V17h2V27A3.009,3.009,0,0,0,37,30ZM36,5a1,1,0,0,1,1-1H59a1,1,0,0,1,1,1v5H36Zm0,7H60V27a1,1,0,0,1-1,1H37a1,1,0,0,1-1-1ZM24,39c0,1.89-4.28,4-10,4S4,40.89,4,39V35.41C6.11,36.99,9.73,38,14,38s7.89-1.01,10-2.59Zm0-7c0,1.89-4.28,4-10,4S4,33.89,4,32V28.41C6.11,29.99,9.73,31,14,31s7.89-1.01,10-2.59ZM14,29C8.28,29,4,26.89,4,25s4.28-4,10-4,10,2.11,10,4S19.72,29,14,29Zm22,8a1,1,0,0,1,1-1H59a1,1,0,0,1,1,1v5H36Zm0,7H60V59a1,1,0,0,1-1,1H37a1,1,0,0,1-1-1ZM31,33a1,1,0,1,1,1-1A1,1,0,0,1,31,33Z"></path><rect x="38" y="6" width="2" height="2"></rect><rect x="42" y="6" width="2" height="2"></rect><rect x="46" y="6" width="2" height="2"></rect><rect x="44.838" y="19" width="6.325" height="1.999" transform="translate(13.835 59.202) rotate(-71.547)"></rect><path d="M52.707,16.293l-1.414,1.414L53.586,20l-2.293,2.293,1.414,1.414,3-3a1,1,0,0,0,0-1.414Z"></path><path d="M43.293,16.293l-3,3a1,1,0,0,0,0,1.414l3,3,1.414-1.414L42.414,20l2.293-2.293Z"></path><rect x="38" y="38" width="2" height="2"></rect><rect x="42" y="38" width="2" height="2"></rect><rect x="46" y="38" width="2" height="2"></rect><rect x="44.838" y="51" width="6.325" height="1.999" transform="translate(-16.519 81.073) rotate(-71.547)"></rect><path d="M52.707,48.293l-1.414,1.414L53.586,52l-2.293,2.293,1.414,1.414,3-3a1,1,0,0,0,0-1.414Z"></path><path d="M43.293,48.293l-3,3a1,1,0,0,0,0,1.414l3,3,1.414-1.414L42.414,52l2.293-2.293Z"></path><rect x="26" y="15" width="2" height="2"></rect><rect x="26" y="19" width="2" height="2"></rect><rect x="26" y="47" width="2" height="2"></rect><rect x="26" y="43" width="2" height="2"></rect></g></svg>