<svg xmlns="http://www.w3.org/2000/svg" viewBox="0 0 64 64" x="0px" y="0px"><g><path d="M49,41.9V25.618a3.927,3.927,0,0,0,0-5.236V19a17,17,0,0,0-34,0v1.382a3.927,3.927,0,0,0,0,5.236V41.9A12.983,12.983,0,0,0,6,54.25V61a1,1,0,0,0,1,1H57a1,1,0,0,0,1-1V54.25A12.987,12.987,0,0,0,49,41.9ZM17,26.858A3.939,3.939,0,0,0,18,27h.332A14.029,14.029,0,0,0,25,36.106V39.23l-8,2.114ZM17.051,18H18v1a3.939,3.939,0,0,0-1,.142V19C17,18.662,17.029,18.332,17.051,18ZM48,23a2,2,0,0,1-2,2V21A2,2,0,0,1,48,23Zm-4-3v4a12,12,0,0,1-24,0V18H37a9,9,0,0,0,6.64-2.929A12.024,12.024,0,0,1,44,18ZM18,21v4a2,2,0,0,1,0-4Zm8.766,20.939,3.34,2.785-3.9,1.67ZM27,39.531v-2.47a13.782,13.782,0,0,0,10,0v2.47L32,43.7Zm10.234,2.408.557,4.455-3.9-1.67ZM39,36.106A14.029,14.029,0,0,0,45.668,27H46a3.939,3.939,0,0,0,1-.142V41.342L39,39.23ZM32,4A15.017,15.017,0,0,1,47,19v.142A3.939,3.939,0,0,0,46,19V18a13.965,13.965,0,0,0-1.109-5.47,1,1,0,0,0-.866-.609,1.015,1.015,0,0,0-.927.509A7,7,0,0,1,37,16H17.3A15.026,15.026,0,0,1,32,4ZM56,60H49.914A6.931,6.931,0,0,0,50,59a7.008,7.008,0,0,0-3-5.739V51H45v2.81a1,1,0,0,0,.5.867A5,5,0,0,1,48,59a4.827,4.827,0,0,1-.114,1H16.114A4.827,4.827,0,0,1,16,59a5,5,0,0,1,2.5-4.323,1,1,0,0,0,.5-.867V51H17v2.261A7.008,7.008,0,0,0,14,59a6.931,6.931,0,0,0,.086,1H8V54.25a10.976,10.976,0,0,1,8.143-10.619l.112-.024,8.569-2.263-.816,6.532a1,1,0,0,0,1.386,1.043L32,46.088l6.606,2.831A.982.982,0,0,0,39,49a1,1,0,0,0,.992-1.124l-.816-6.532L47.8,43.617A10.99,10.99,0,0,1,56,54.25Z"></path><path d="M32,27a3,3,0,0,0,3-3V20H33v4a1,1,0,0,1-2,0V20H29v4A3,3,0,0,0,32,27Z"></path><path d="M38.55,19.17a.568.568,0,0,0-.17-.09.609.609,0,0,0-.191-.06.93.93,0,0,0-.569.06,1.032,1.032,0,0,0-.33.21.955.955,0,0,0-.12.16.556.556,0,0,0-.09.17.636.636,0,0,0-.06.18A.68.68,0,0,0,37,20a1.007,1.007,0,0,0,.29.71,1.032,1.032,0,0,0,.33.21A.838.838,0,0,0,38,21a1.2,1.2,0,0,0,.189-.02.609.609,0,0,0,.191-.06.568.568,0,0,0,.17-.09,1,1,0,0,0,.16-.12,1.014,1.014,0,0,0,0-1.42C38.66,19.25,38.609,19.21,38.55,19.17Z"></path><path d="M27,20a.99.99,0,1,0-.29.71A1.052,1.052,0,0,0,27,20Z"></path><path d="M32,30a5.982,5.982,0,0,1-4.441-1.655l-1.512,1.31A7.89,7.89,0,0,0,32,32a7.89,7.89,0,0,0,5.953-2.345l-1.512-1.31A5.982,5.982,0,0,1,32,30Z"></path></g></svg>