<svg xmlns="http://www.w3.org/2000/svg" viewBox="0 0 64 64" x="0px" y="0px"><g data-name="Heart Rate-Smartphone-Romantic-Healthcare-Love"><path d="M32,25.586l6.364-6.364a3,3,0,0,0-4.243-4.243l-1.414,1.415a1.029,1.029,0,0,1-1.414,0l-1.414-1.415a3,3,0,0,0-4.243,4.243Z"></path><path d="M50,8a4,4,0,0,0-4-4H18a4,4,0,0,0-4,4V56a4,4,0,0,0,4,4H46a4,4,0,0,0,4-4ZM29,6h6V8H29ZM25,6h2V8H25Zm-.778,7.565a5.006,5.006,0,0,1,7.071,0l.707.707.707-.707a5,5,0,0,1,7.071,7.071l-7.071,7.071a1,1,0,0,1-1.414,0l-7.071-7.071A5,5,0,0,1,24.222,13.565ZM34,58H30a3,3,0,0,1,0-6h4a3,3,0,0,1,0,6ZM46,42H40a1,1,0,0,1-.9-.553L38.233,39.7l-2.275,7.584A1,1,0,0,1,35,48h-.04a1,1,0,0,1-.938-.79l-2.138-9.981-1.919,7.035a1,1,0,0,1-.959.737H29a1,1,0,0,1-.962-.725l-1.293-4.528-.85,1.7A1,1,0,0,1,25,42H18V40h6.382l1.723-3.447A.989.989,0,0,1,27.093,36a1,1,0,0,1,.869.721l1.016,3.557,2.057-7.545A.99.99,0,0,1,32.027,32a1,1,0,0,1,.951.791l2.183,10.19,1.881-6.268A1,1,0,0,1,37.914,36a.985.985,0,0,1,.981.549L40.618,40H46Z"></path><path d="M34,54H30a1,1,0,0,0,0,2h4a1,1,0,0,0,0-2Z"></path></g></svg>