<svg xmlns="http://www.w3.org/2000/svg" viewBox="0 0 64 64" x="0px" y="0px"><path d="M62,56H35.082l2.842-36H39a1,1,0,0,0,1-1V11a1,1,0,0,0-1-1H37.693L34.937,2.649A1,1,0,0,0,34,2H8a1,1,0,0,0-.937.649L4.307,10H3a1,1,0,0,0-1,1v8a1,1,0,0,0,1,1H4.076L6.918,56H3a1,1,0,0,0-1,1v2a3,3,0,0,0,3,3H60a3,3,0,0,0,3-3V57A1,1,0,0,0,62,56ZM6.714,28H35.286L34.181,42H7.819ZM8.693,4H33.307l2.25,6H6.443ZM4,12H38v6H4Zm31.918,8-.474,6H6.556l-.474-6ZM7.977,44H34.023l-.947,12H8.924ZM61,59a1,1,0,0,1-1,1H5a1,1,0,0,1-1-1V58H61Z"></path><path d="M46,54H56a5.006,5.006,0,0,0,5-5,2.981,2.981,0,0,0-.78-2A2.981,2.981,0,0,0,61,45a4.982,4.982,0,0,0-2.031-4A4.982,4.982,0,0,0,61,37a2.981,2.981,0,0,0-.78-2A2.981,2.981,0,0,0,61,33a5.006,5.006,0,0,0-5-5H46a5.006,5.006,0,0,0-5,5,2.981,2.981,0,0,0,.78,2A2.981,2.981,0,0,0,41,37a4.982,4.982,0,0,0,2.031,4A4.982,4.982,0,0,0,41,45a2.981,2.981,0,0,0,.78,2A2.981,2.981,0,0,0,41,49,5.006,5.006,0,0,0,46,54Zm10-2H46a3,3,0,0,1-3-3,1,1,0,0,1,1-1H58a1,1,0,0,1,1,1A3,3,0,0,1,56,52ZM46,30H56a3,3,0,0,1,3,3,1,1,0,0,1-1,1H44a1,1,0,0,1-1-1A3,3,0,0,1,46,30Zm-3,7a1,1,0,0,1,1-1H58a1,1,0,0,1,1,1,3,3,0,0,1-3,3H46A3,3,0,0,1,43,37Zm3,5H56a3,3,0,0,1,3,3,1,1,0,0,1-1,1H44a1,1,0,0,1-1-1A3,3,0,0,1,46,42Z"></path></svg>