<svg xmlns="http://www.w3.org/2000/svg" viewBox="0 0 64 64" x="0px" y="0px"><g><path d="M9,16h4V5a2.966,2.966,0,0,1,.184-1H10A1,1,0,0,0,9,5Z"></path><path d="M5,60H59a1,1,0,0,0,1-1V27a1,1,0,0,0-1-1H27.781a2,2,0,0,1-1.941-1.516L24.219,18H5a1,1,0,0,0-1,1V59A1,1,0,0,0,5,60Zm47-9h4v2H52Zm-4,0h2v2H48Zm0,4h8v2H48ZM18,41a1,1,0,0,1,.858-.99l2.682-.383a10.855,10.855,0,0,1,.678-1.639l-1.624-2.167a1,1,0,0,1,.093-1.306l2.828-2.828a1,1,0,0,1,1.307-.093l2.166,1.625a10.86,10.86,0,0,1,1.639-.679l.383-2.682A1,1,0,0,1,30,29h4a1,1,0,0,1,.99.858l.383,2.682a10.9,10.9,0,0,1,1.639.679l2.166-1.625a1,1,0,0,1,1.307.093l2.828,2.828a1,1,0,0,1,.093,1.306l-1.624,2.167a10.855,10.855,0,0,1,.678,1.639l2.682.383A1,1,0,0,1,46,41v4a1,1,0,0,1-.858.99l-2.682.383a10.855,10.855,0,0,1-.678,1.639l1.624,2.167a1,1,0,0,1-.093,1.306l-2.828,2.828a1,1,0,0,1-1.307.093l-2.166-1.625a10.9,10.9,0,0,1-1.639.679l-.383,2.682A1,1,0,0,1,34,57H30a1,1,0,0,1-.99-.858l-.383-2.682a10.86,10.86,0,0,1-1.639-.679l-2.166,1.625a1,1,0,0,1-1.307-.093l-2.828-2.828a1,1,0,0,1-.093-1.306l1.624-2.167a10.855,10.855,0,0,1-.678-1.639l-2.682-.383A1,1,0,0,1,18,45Z"></path><path d="M23.291,45.228a8.859,8.859,0,0,0,.975,2.356,1,1,0,0,1-.06,1.11l-1.492,1.991,1.6,1.6,1.99-1.492a1,1,0,0,1,1.111-.061,8.923,8.923,0,0,0,2.357.977,1,1,0,0,1,.742.827L30.867,55h2.266l.352-2.463a1,1,0,0,1,.742-.827,8.923,8.923,0,0,0,2.357-.977,1,1,0,0,1,1.111.061l1.99,1.492,1.6-1.6-1.492-1.991a1,1,0,0,1-.06-1.11,8.859,8.859,0,0,0,.975-2.356,1,1,0,0,1,.828-.744L44,44.133V41.867l-2.463-.351a1,1,0,0,1-.828-.744,8.859,8.859,0,0,0-.975-2.356,1,1,0,0,1,.06-1.11l1.492-1.991-1.6-1.6L37.7,35.206a1,1,0,0,1-1.111.061,8.923,8.923,0,0,0-2.357-.977,1,1,0,0,1-.742-.827L33.133,31H30.867l-.352,2.463a1,1,0,0,1-.742.827,8.923,8.923,0,0,0-2.357.977,1,1,0,0,1-1.111-.061l-1.99-1.492-1.6,1.6,1.492,1.991a1,1,0,0,1,.06,1.11,8.859,8.859,0,0,0-.975,2.356,1,1,0,0,1-.828.744L20,41.867v2.266l2.463.351A1,1,0,0,1,23.291,45.228ZM40,42h2v2H40ZM33,53H31V51h2Zm6.778-3.636-1.414,1.414L36.95,49.364l1.414-1.414ZM38.364,35.222l1.414,1.414L38.364,38.05,36.95,36.636ZM31,33h2v2H31Zm1,4a6,6,0,1,1-6,6A6.006,6.006,0,0,1,32,37Zm-7.778-.364,1.414-1.414,1.414,1.414L25.636,38.05ZM25.636,47.95l1.414,1.414-1.414,1.414-1.414-1.414ZM22,42h2v2H22Z"></path><circle cx="32" cy="43" r="4"></circle><path d="M19.184,4H16a1,1,0,0,0-1,1V16h4V5A2.966,2.966,0,0,1,19.184,4Z"></path><path d="M49.555,8.168,51,9.132V4H47V9.132l1.445-.964a1,1,0,0,1,1.11,0Z"></path><path d="M22,4a1,1,0,0,0-1,1V16h3.219a2,2,0,0,1,1.941,1.516L27.781,24H55V5a1,1,0,0,0-1-1H53v7a1,1,0,0,1-1.555.832L49,10.2l-2.445,1.63A1,1,0,0,1,45,11V4Zm4,4h8v2H26Zm0,6V12H42v2Zm24,4v2H30V18Z"></path></g></svg>