<svg xmlns="http://www.w3.org/2000/svg" viewBox="0 0 64 64" x="0px" y="0px"><g><path d="M44.172,32.457q-.163-.438-.357-.863a2.985,2.985,0,0,1,.331-3.028l2.09-2.786L43.22,22.764l-2.786,2.09a2.991,2.991,0,0,1-3.03.33c-.281-.129-.569-.247-.861-.355a2.987,2.987,0,0,1-1.918-2.378L34.133,19H29.867l-.492,3.45a2.987,2.987,0,0,1-1.918,2.379q-.438.162-.862.355a2.985,2.985,0,0,1-3.029-.33l-2.786-2.09L17.764,25.78l2.09,2.786a2.985,2.985,0,0,1,.33,3.03q-.192.421-.356.862a2.981,2.981,0,0,1-2.378,1.916L14,34.867v4.266l3.45.493a2.981,2.981,0,0,1,2.378,1.917q.164.438.357.863a2.985,2.985,0,0,1-.331,3.028l-2.09,2.786,3.016,3.016,2.786-2.09a2.988,2.988,0,0,1,3.03-.33c.281.129.569.247.861.355a2.987,2.987,0,0,1,1.918,2.378L29.867,55h4.266l.492-3.45a2.987,2.987,0,0,1,1.918-2.379q.438-.162.862-.355a2.992,2.992,0,0,1,3.029.33l2.786,2.09,3.016-3.016-2.09-2.786a2.985,2.985,0,0,1-.33-3.03q.192-.422.356-.862a2.981,2.981,0,0,1,2.378-1.916L50,39.133V34.867l-3.45-.493A2.981,2.981,0,0,1,44.172,32.457ZM32,47A10,10,0,1,1,42,37,10.011,10.011,0,0,1,32,47Z"></path><path d="M60,12H4V57a3,3,0,0,0,3,3H57a3,3,0,0,0,3-3ZM52,40a1,1,0,0,1-.858.99l-4.309.615a.988.988,0,0,0-.786.633q-.189.507-.409.994a.982.982,0,0,0,.108,1l2.61,3.48a1,1,0,0,1-.092,1.308l-4.243,4.242a1,1,0,0,1-1.307.093l-3.48-2.61a.985.985,0,0,0-1-.109c-.326.148-.659.284-1,.409a.987.987,0,0,0-.633.787l-.615,4.309A1,1,0,0,1,35,57H29a1,1,0,0,1-.99-.858L27.4,51.833a.987.987,0,0,0-.633-.787c-.337-.125-.67-.261-1-.409a.983.983,0,0,0-1,.11l-3.48,2.609a1,1,0,0,1-1.307-.093l-4.243-4.242a1,1,0,0,1-.092-1.308l2.61-3.48a.982.982,0,0,0,.109-1q-.22-.491-.41-1a.987.987,0,0,0-.786-.634l-4.309-.615A1,1,0,0,1,12,40V34a1,1,0,0,1,.858-.99l4.309-.615a.988.988,0,0,0,.786-.633q.189-.507.409-.994a.982.982,0,0,0-.108-1l-2.61-3.48a1,1,0,0,1,.092-1.308l4.243-4.242a1,1,0,0,1,1.307-.093l3.48,2.61a.981.981,0,0,0,1,.109c.326-.148.659-.284,1-.409a.987.987,0,0,0,.633-.787l.615-4.309A1,1,0,0,1,29,17h6a1,1,0,0,1,.99.858l.615,4.309a.987.987,0,0,0,.633.787c.337.125.67.261.995.409a.991.991,0,0,0,1-.11l3.48-2.609a1,1,0,0,1,1.307.093l4.243,4.242a1,1,0,0,1,.092,1.308l-2.61,3.48a.982.982,0,0,0-.109,1q.221.491.41,1a.987.987,0,0,0,.786.634l4.309.615A1,1,0,0,1,52,34Z"></path><path d="M32,29a8,8,0,1,0,8,8A8.009,8.009,0,0,0,32,29Zm-1,7h2a3,3,0,0,1,0,6v1H31V42a3,3,0,0,1-3-3h2a1,1,0,0,0,1,1h2a1,1,0,0,0,0-2H31a3,3,0,0,1,0-6V31h2v1a3,3,0,0,1,3,3H34a1,1,0,0,0-1-1H31a1,1,0,0,0,0,2Z"></path><path d="M60,7a3,3,0,0,0-3-3H7A3,3,0,0,0,4,7v3H60ZM9.979,7.2a.6.6,0,0,1-.059.18.578.578,0,0,1-.09.17c-.04.06-.08.11-.12.16A1.052,1.052,0,0,1,9,8a1,1,0,0,1-.38-.08,1.032,1.032,0,0,1-.33-.21.955.955,0,0,1-.12-.16.556.556,0,0,1-.09-.17.636.636,0,0,1-.06-.18A1.5,1.5,0,0,1,8,7a1.355,1.355,0,0,1,.02-.2.636.636,0,0,1,.06-.18.757.757,0,0,1,.09-.18,1.576,1.576,0,0,1,.12-.15,1.032,1.032,0,0,1,.33-.21,1,1,0,0,1,1.09.21l.12.15a.8.8,0,0,1,.09.18.6.6,0,0,1,.059.18A1.234,1.234,0,0,1,10,7,1.362,1.362,0,0,1,9.979,7.2Zm3.731.51-.15.12a.776.776,0,0,1-.18.09.609.609,0,0,1-.191.06A1.2,1.2,0,0,1,13,8a1.355,1.355,0,0,1-.2-.02.636.636,0,0,1-.18-.06.782.782,0,0,1-.181-.09l-.149-.12a1.014,1.014,0,0,1,0-1.42l.149-.12a.782.782,0,0,1,.181-.09.636.636,0,0,1,.18-.06.852.852,0,0,1,.389,0,.609.609,0,0,1,.191.06.776.776,0,0,1,.18.09l.15.12a1.014,1.014,0,0,1,0,1.42Zm4,0c-.05.04-.1.08-.16.12a.568.568,0,0,1-.17.09.609.609,0,0,1-.191.06A1.2,1.2,0,0,1,17,8a1,1,0,0,1-.38-.08,1.032,1.032,0,0,1-.33-.21,1.014,1.014,0,0,1,0-1.42,1.032,1.032,0,0,1,.33-.21.93.93,0,0,1,.569-.06.609.609,0,0,1,.191.06.568.568,0,0,1,.17.09c.059.04.11.08.16.12a1.014,1.014,0,0,1,0,1.42Z"></path></g></svg>