<svg xmlns="http://www.w3.org/2000/svg" viewBox="0 0 64 64" x="0px" y="0px"><g data-name="Big Data-Storage-Server-Network-Database"><rect x="23" y="14" width="2" height="2"></rect><rect x="27" y="15" width="2" height="2"></rect><rect x="23" y="21" width="2" height="2"></rect><rect x="27" y="22" width="2" height="2"></rect><rect x="26" y="7" width="12" height="2"></rect><rect x="6" y="48" width="2" height="2"></rect><rect x="10" y="49" width="2" height="2"></rect><rect x="6" y="55" width="2" height="2"></rect><rect x="10" y="56" width="2" height="2"></rect><rect x="9" y="41" width="12" height="2"></rect><rect x="40" y="48" width="2" height="2"></rect><rect x="44" y="49" width="2" height="2"></rect><rect x="40" y="55" width="2" height="2"></rect><rect x="44" y="56" width="2" height="2"></rect><rect x="43" y="41" width="12" height="2"></rect><path d="M50,36.02V33a1,1,0,0,0-1-1H34.82A3.035,3.035,0,0,0,33,30.18v-2.2c6.34-.24,11-2.73,11-5.98V8c0-3.42-5.16-6-12-6S20,4.58,20,8V22c0,3.25,4.66,5.74,11,5.98v2.2A3.035,3.035,0,0,0,29.18,32H15a1,1,0,0,0-1,1v3.02C7.66,36.26,3,38.75,3,42V56c0,3.42,5.16,6,12,6s12-2.58,12-6V42c0-3.25-4.66-5.74-11-5.98V34H29.18a2.988,2.988,0,0,0,5.64,0H48v2.02c-6.34.24-11,2.73-11,5.98V56c0,3.42,5.16,6,12,6s12-2.58,12-6V42C61,38.75,56.34,36.26,50,36.02ZM25,56c0,1.89-4.28,4-10,4S5,57.89,5,56V52.41C7.11,53.99,10.73,55,15,55s7.89-1.01,10-2.59Zm0-7c0,1.89-4.28,4-10,4S5,50.89,5,49V45.41C7.11,46.99,10.73,48,15,48s7.89-1.01,10-2.59Zm0-7c0,1.89-4.28,4-10,4S5,43.89,5,42s4.28-4,10-4S25,40.11,25,42ZM32,4c5.72,0,10,2.11,10,4s-4.28,4-10,4S22,9.89,22,8,26.28,4,32,4ZM22,11.41C24.11,12.99,27.73,14,32,14s7.89-1.01,10-2.59V15c0,1.89-4.28,4-10,4s-10-2.11-10-4ZM22,22V18.41C24.11,19.99,27.73,21,32,21s7.89-1.01,10-2.59V22c0,1.89-4.28,4-10,4S22,23.89,22,22ZM32,34a1,1,0,1,1,1-1A1,1,0,0,1,32,34ZM59,56c0,1.89-4.28,4-10,4s-10-2.11-10-4V52.41C41.11,53.99,44.73,55,49,55s7.89-1.01,10-2.59Zm0-7c0,1.89-4.28,4-10,4s-10-2.11-10-4V45.41C41.11,46.99,44.73,48,49,48s7.89-1.01,10-2.59ZM49,46c-5.72,0-10-2.11-10-4s4.28-4,10-4,10,2.11,10,4S54.72,46,49,46Z"></path></g></svg>