<svg xmlns="http://www.w3.org/2000/svg" viewBox="0 0 64 64" x="0px" y="0px"><g data-name="Human Mind-Computer-Business-Thinking-Financial"><path d="M55.707,56.293l-6-6A1,1,0,0,0,49,50H19V48a3,3,0,0,0-3-3H10a1,1,0,0,1,0-2h6a3,3,0,0,0,3-3V38h7v4H22a1,1,0,0,0-1,1v4a1,1,0,0,0,1,1H42a1,1,0,0,0,1-1V43a1,1,0,0,0-1-1H38V38H52a3,3,0,0,0,3-3V9a3,3,0,0,0-3-3H45V8h7a1,1,0,0,1,1,1V30H11V9a1,1,0,0,1,1-1H23V6H12A3,3,0,0,0,9,9V35a3,3,0,0,0,3,3h5v2a1,1,0,0,1-1,1H10a3,3,0,0,0,0,6h6a1,1,0,0,1,1,1v2H15a1,1,0,0,0-.707.293l-6,6A1,1,0,0,0,8,57v3a2,2,0,0,0,2,2H54a2,2,0,0,0,2-2V57A1,1,0,0,0,55.707,56.293ZM41,46H23V44H41Zm-5-4H28V38h8ZM11,35V32H53v3a1,1,0,0,1-1,1H12A1,1,0,0,1,11,35Zm4.414,17H48.586l4,4H11.414ZM10,60V58H54v2Z"></path><rect x="16" y="53" width="2" height="2"></rect><rect x="20" y="53" width="2" height="2"></rect><rect x="42" y="53" width="2" height="2"></rect><rect x="24" y="53" width="16" height="2"></rect><rect x="46" y="53" width="2" height="2"></rect><rect x="47" y="33" width="2" height="2"></rect><path d="M20.076,16.383A1,1,0,0,0,21,17h2v3a3,3,0,0,0,3,3h1v4a1,1,0,0,0,1,1H40a1,1,0,0,0,1-1V19.134a10,10,0,1,0-16.991-7.557l-3.716,3.716A1,1,0,0,0,20.076,16.383Zm5.631-3.676A1,1,0,0,0,26,12a8,8,0,0,1,8.181-8A8.132,8.132,0,0,1,42,12.055a7.986,7.986,0,0,1-2.665,5.9A1,1,0,0,0,39,18.7V26H29V22a1,1,0,0,0-1-1H26a1,1,0,0,1-1-1V16a1,1,0,0,0-1-1h-.586Z"></path><path d="M34,16H32a1,1,0,0,1-1-1H29a3,3,0,0,0,3,3v1h2V18a3,3,0,0,0,0-6H32a1,1,0,0,1,0-2h2a1,1,0,0,1,1,1h2a3,3,0,0,0-3-3V7H32V8a3,3,0,0,0,0,6h2a1,1,0,0,1,0,2Z"></path></g></svg>