<svg xmlns="http://www.w3.org/2000/svg" viewBox="0 0 64 64" x="0px" y="0px"><g data-name="Game-Smartphone-Gamepad-Video Game-Cellphone"><rect x="38" y="34" width="2" height="2"></rect><path d="M37,22a4.949,4.949,0,0,0,3.322-1.265l-3.029-3.028a1,1,0,0,1,0-1.414l3.029-3.028A4.949,4.949,0,0,0,37,12a5,5,0,0,0,0,10Zm-1-9h2v2H36Z"></path><path d="M34,54H30a1,1,0,0,0,0,2h4a1,1,0,0,0,0-2Z"></path><path d="M38,30H26a6.006,6.006,0,0,0-6,6V47a1,1,0,0,0,1,1h2.249a1,1,0,0,0,.991-.867l.72-5.4A2.005,2.005,0,0,1,26.942,40H37.058a2.005,2.005,0,0,1,1.982,1.736l.72,5.4a1,1,0,0,0,.991.867H43a1,1,0,0,0,1-1V36A6.006,6.006,0,0,0,38,30ZM28,36H26v2H24V36H22V34h2V32h2v2h2Zm3-2H29V32h2Zm4,0H33V32h2Zm7,2H40v2H38V36H36V34h2V32h2v2h2Z"></path><path d="M50,8a4,4,0,0,0-4-4H18a4,4,0,0,0-4,4V56a4,4,0,0,0,4,4H46a4,4,0,0,0,4-4ZM29,6h6V8H29ZM25,6h2V8H25Zm9,52H30a3,3,0,0,1,0-6h4a3,3,0,0,1,0,6ZM46,47a3,3,0,0,1-3,3H40.751a3.009,3.009,0,0,1-2.974-2.6L37.058,42H26.942l-.719,5.4A3.009,3.009,0,0,1,23.249,50H21a3,3,0,0,1-3-3V36a8.009,8.009,0,0,1,8-8h5V27a1,1,0,0,0-1-1H24a5,5,0,0,1,0-10h6.08A6.99,6.99,0,0,1,42.5,12.673,1,1,0,0,1,42.417,14l-3,3,3,3a1,1,0,0,1,.08,1.324A6.99,6.99,0,0,1,30.08,18H24a3,3,0,0,0,0,6h6a3,3,0,0,1,3,3v1h5a8.009,8.009,0,0,1,8,8ZM44,16v2H42V16Zm4,2H46V16h2Z"></path></g></svg>