<svg xmlns="http://www.w3.org/2000/svg" viewBox="0 0 32 32" x="0px" y="0px"><g><circle cx="16" cy="16" r="5"></circle><path d="M30,18V14H26.575a1,1,0,0,1-.962-.728,9.952,9.952,0,0,0-.884-2.143,1,1,0,0,1,.166-1.2l2.418-2.419L24.485,4.687,22.066,7.105a1,1,0,0,1-1.2.166,9.952,9.952,0,0,0-2.143-.884A1,1,0,0,1,18,5.425V2H14V5.425a1,1,0,0,1-.728.962,9.952,9.952,0,0,0-2.143.884,1,1,0,0,1-1.2-.166L7.515,4.687,4.687,7.515,7.105,9.934a1,1,0,0,1,.166,1.2,9.952,9.952,0,0,0-.884,2.143A1,1,0,0,1,5.425,14H2v4H5.425a1,1,0,0,1,.962.728,9.952,9.952,0,0,0,.884,2.143,1,1,0,0,1-.166,1.2L4.687,24.485l2.828,2.828L9.934,24.9a1,1,0,0,1,1.2-.166,9.952,9.952,0,0,0,2.143.884,1,1,0,0,1,.728.962V30h4V26.575a1,1,0,0,1,.728-.962,9.952,9.952,0,0,0,2.143-.884,1,1,0,0,1,1.2.166l2.419,2.418,2.828-2.828L24.9,22.066a1,1,0,0,1-.166-1.2,9.952,9.952,0,0,0,.884-2.143A1,1,0,0,1,26.575,18ZM16,23a7,7,0,1,1,7-7A7.009,7.009,0,0,1,16,23Z"></path></g></svg>