<svg xmlns="http://www.w3.org/2000/svg" viewBox="0 0 64 64" x="0px" y="0px"><g data-name="Book Bank-Money-Report-Cash-Business"><rect x="39" y="15" width="14" height="2"></rect><rect x="39" y="19" width="14" height="2"></rect><rect x="39" y="23" width="14" height="2"></rect><path d="M61,8H58V6a1,1,0,0,0-1-1H35a1,1,0,0,0-1,1V8H30V6a1,1,0,0,0-1-1H7A1,1,0,0,0,6,6V8H3A1,1,0,0,0,2,9V46a1,1,0,0,0,1,1H14V57a2.006,2.006,0,0,0,2,2H48a2.006,2.006,0,0,0,2-2V47H61a1,1,0,0,0,1-1V9A1,1,0,0,0,61,8ZM51,7h2V9.59l-.29-.3a1.014,1.014,0,0,0-1.42,0l-.29.3ZM30,10h4V35H30ZM14,45H4V10H6V42a1,1,0,0,0,1,1h7Zm0-8v4H8V7H28V35H16A2.006,2.006,0,0,0,14,37Zm4.86,0A4.017,4.017,0,0,1,16,39.86V37ZM16,48.13A4,4,0,0,1,18.86,51H16ZM28,57H16V56H28Zm0-3H16V53H28Zm6,3H30V53h4Zm14,0H36V56H48Zm0-3H36V53H48Zm0-3H45.14A4.017,4.017,0,0,1,48,48.14Zm0-4.91A5.992,5.992,0,0,0,43.09,51H20.91A5.992,5.992,0,0,0,16,46.09V41.91A5.992,5.992,0,0,0,20.91,37H43.09A5.992,5.992,0,0,0,48,41.91Zm0-6.23A4.017,4.017,0,0,1,45.14,37H48ZM48,35H36V7H49v5a.987.987,0,0,0,.62.92,1,1,0,0,0,1.09-.21L52,11.41l1.29,1.3A1.007,1.007,0,0,0,54,13a.838.838,0,0,0,.38-.08A.987.987,0,0,0,55,12V7h1V41H50V37A2.006,2.006,0,0,0,48,35ZM60,45H50V43h7a1,1,0,0,0,1-1V10h2Z"></path><rect x="39" y="27" width="14" height="2"></rect><rect x="39" y="31" width="14" height="2"></rect><rect x="39" y="11" width="6" height="2"></rect><path d="M32,39a5,5,0,1,0,5,5A5.006,5.006,0,0,0,32,39Zm0,8a3,3,0,1,1,3-3A3,3,0,0,1,32,47Z"></path><path d="M19,24H17a1,1,0,0,1-1-1H14a3,3,0,0,0,3,3v1h2V26a3,3,0,0,0,0-6H17a1,1,0,0,1,0-2h2a1,1,0,0,1,1,1h2a3,3,0,0,0-3-3V15H17v1a3,3,0,0,0,0,6h2a1,1,0,0,1,0,2Z"></path><rect x="24" y="20" width="2" height="2"></rect><rect x="10" y="20" width="2" height="2"></rect></g></svg>