<svg xmlns="http://www.w3.org/2000/svg" viewBox="0 0 64 64" x="0px" y="0px"><g data-name="Brain"><path d="M61.919,24.955a25.068,25.068,0,0,0-23.29-22.9A24.8,24.8,0,0,0,19.9,8.768,25.1,25.1,0,0,0,12,26.61L3.78,35.655A2,2,0,0,0,5.261,39H10v6a7.008,7.008,0,0,0,7,7h8v9a1,1,0,0,0,1,1H54a1,1,0,0,0,1-1V44.348A25.041,25.041,0,0,0,61.919,24.955ZM53.292,43.233l0,.006a23.127,23.127,0,0,1-4.67,3.615l1.012,1.725A25.134,25.134,0,0,0,53,46.194V60H27V52a2,2,0,0,0-2-2H17a5.006,5.006,0,0,1-5-5V38a1,1,0,0,0-1-1H5.26l8.48-9.327A1,1,0,0,0,14,27,23,23,0,0,1,38.5,4.048a23,23,0,0,1,14.79,39.185Z"></path><path d="M50.316,17.051l-2.479-.826-.867-3.468A1,1,0,0,0,46,12H44.414L41.707,9.293A1,1,0,0,0,41,9H36a1.006,1.006,0,0,0-.555.168L32.7,11H29a1,1,0,0,0-.707.293l-2,2A1,1,0,0,0,26,14v2.279l-2.316.772A1,1,0,0,0,23,18v3a1,1,0,0,0,.293.707L24.586,23l-1.293,1.293A1,1,0,0,0,23,25v3a1,1,0,0,0,.684.949L26,29.721V32a1,1,0,0,0,.293.707l2,2A1,1,0,0,0,29,35h3.7l2.748,1.832A1.006,1.006,0,0,0,36,37h5a1,1,0,0,0,.707-.293L44.414,34H46a1,1,0,0,0,.97-.757l.867-3.468,2.479-.826A1,1,0,0,0,51,28V25a1,1,0,0,0-.293-.707L49.414,23l1.293-1.293A1,1,0,0,0,51,21V18A1,1,0,0,0,50.316,17.051ZM25,18.721l1.73-.577,1.563,1.563A1,1,0,0,0,29,20h1V18h-.586L28,16.586V14.414L29.414,13h3.172l1.707,1.707A1,1,0,0,0,35,15h1V13h-.586l-.844-.845L36.3,11h4.283l1,1H40v2h5.219l.674,2.693L44.586,18H44v2h1a1,1,0,0,0,.707-.293l1.563-1.563,1.73.577v1.865L47.586,22H26.414L25,20.586Zm24,8.558-1.73.577-1.563-1.563A1,1,0,0,0,45,26H44v2h.586l1.307,1.307L45.219,32H40v2h1.586l-1,1H36.3L34.57,33.845,35.414,33H36V31H35a1,1,0,0,0-.707.293L32.586,33H29.414L28,31.586V29.414L29.414,28H30V26H29a1,1,0,0,0-.707.293L26.73,27.856,25,27.279V25.414L26.414,24H47.586L49,25.414Z"></path><path d="M35.707,19.707l2-2-1.414-1.414L34.586,18H32v2h3A1,1,0,0,0,35.707,19.707Z"></path><path d="M41.414,18H43V16H41a1,1,0,0,0-.707.293l-1,1,1.414,1.414Z"></path><path d="M35,26H32v2h2.586l1.707,1.707,1.414-1.414-2-2A1,1,0,0,0,35,26Z"></path><path d="M40.707,27.293l-1.414,1.414,1,1A1,1,0,0,0,41,30h2V28H41.414Z"></path></g></svg>