<svg xmlns="http://www.w3.org/2000/svg" viewBox="0 0 64 64" x="0px" y="0px"><g><path d="M57,22H51V18.974A4.977,4.977,0,0,0,53,15V11a1,1,0,0,0-.293-.707l-6-6A1,1,0,0,0,46,4H26a1,1,0,0,0-.707.293l-6,6A1,1,0,0,0,19,11v4a4.977,4.977,0,0,0,2,3.974V22H7a5.006,5.006,0,0,0-5,5V55a5.006,5.006,0,0,0,5,5H57a5.006,5.006,0,0,0,5-5V27A5.006,5.006,0,0,0,57,22Zm-9-4a3,3,0,0,1-3-3H43a3,3,0,0,1-6,0H35a3,3,0,0,1-6,0H27a3,3,0,0,1-6,0V12H51v3A3,3,0,0,1,48,18ZM26.414,6H45.586l4,4H22.414ZM24,20a4.982,4.982,0,0,0,4-2.031,4.954,4.954,0,0,0,8,0,4.954,4.954,0,0,0,8,0,4.962,4.962,0,0,0,5,1.93V37a1,1,0,0,1-1,1H47V25a1,1,0,0,0-1-1H36a1,1,0,0,0-1,1v9.78A2.981,2.981,0,0,0,33,34H31.251l.476-2.689a3.047,3.047,0,0,0,.043-.511,2.99,2.99,0,0,0-2.478-2.944,2.951,2.951,0,0,0-2.234.484,2.981,2.981,0,0,0-1.243,1.947L25.159,34H23V19.9A5,5,0,0,0,24,20ZM12.247,30.989a1.1,1.1,0,0,1-.017-.189,1,1,0,0,1,.842-.977.965.965,0,0,1,.729.159,1,1,0,0,1,.414.651L15.518,38h-2.03ZM17.2,36h7.61l-.353,2h-6.9Zm12.56-5.024L28.512,38h-2.03l1.3-7.368a1,1,0,0,1,.414-.65.977.977,0,0,1,.739-.157.994.994,0,0,1,.832.975A1.032,1.032,0,0,1,29.755,30.976ZM11.457,38H9a1,1,0,0,1-1-1,.974.974,0,0,1,.306-.712A.957.957,0,0,1,9,36h2.1ZM30.92,40l-.709,9.166A3,3,0,0,1,27.216,52H14.784a3.007,3.007,0,0,1-3-2.855L11.08,40ZM32,38H30.542l.355-2H33a1,1,0,0,1,1,1,.974.974,0,0,1-.306.712A.957.957,0,0,1,33,38Zm13,0H37V26h8ZM57,58H7a3,3,0,0,1-3-3V27a3,3,0,0,1,3-3H21V34H16.841l-.656-3.712a2.981,2.981,0,0,0-1.243-1.948,2.93,2.93,0,0,0-2.224-.485A2.991,2.991,0,0,0,10.23,30.8a3.109,3.109,0,0,0,.045.524L10.749,34H9a3.015,3.015,0,0,0-3,3,3,3,0,0,0,3,3h.074l.718,9.277A5,5,0,0,0,14.784,54H27.216a5,5,0,0,0,4.991-4.7l.719-9.3H48a3,3,0,0,0,3-3V24h6a3,3,0,0,1,3,3v6H58a2,2,0,0,0-2,2V47a2,2,0,0,0,2,2h2v6A3,3,0,0,1,57,58Zm3-23V47H58V35Z"></path><rect x="20" y="42" width="2" height="8"></rect><rect x="25" y="42" width="2" height="8"></rect><rect x="15" y="42" width="2" height="8"></rect><rect x="39" y="44" width="12" height="2"></rect><rect x="39" y="48" width="12" height="2"></rect><rect x="39" y="52" width="12" height="2"></rect></g></svg>