<svg xmlns="http://www.w3.org/2000/svg" viewBox="0 0 64 64" x="0px" y="0px"><g><path d="M53,2H51a5.006,5.006,0,0,0-5,5V49a1,1,0,0,0,.1.447L49,55.236V59a3,3,0,0,0,6,0V55.236l2.9-5.789A1,1,0,0,0,58,49V7A5.006,5.006,0,0,0,53,2Zm.382,52H50.618l-2.237-4.475L52,48.077l3.619,1.448ZM56,14H48V12h8Zm-8,2h3V46.323l-3,1.2Zm5,30.323V16h3V47.523ZM48,7a3,3,0,0,1,3-3h2a3,3,0,0,1,3,3v3H48Zm5,52a1,1,0,0,1-2,0V56h2Z"></path><path d="M39,8V4a2,2,0,0,0-2-2H33a2,2,0,0,0-2,2V8a2,2,0,0,0-2,2V49a1,1,0,0,0,.105.447L32,55.236V59a3,3,0,0,0,6,0V55.236l2.9-5.789A1,1,0,0,0,41,49V10A2,2,0,0,0,39,8ZM36.382,54H33.618l-2-4h6.764ZM31,48V18h1v8a2,2,0,0,0,2,2h2a2,2,0,0,0,2-2V18h1V48Zm5-22H34V18h2Zm3-10H31V14h8ZM33,4h4V8H33Zm-2,6h8v2H31Zm5,49a1,1,0,0,1-2,0V56h2Z"></path><path d="M22,2H8A2,2,0,0,0,6,4V60a2,2,0,0,0,2,2H22a2,2,0,0,0,2-2V4A2,2,0,0,0,22,2ZM8,60V4H22V7H18V9h4v6H18v2h4v6H18v2h4v6H16v2h6v6H18v2h4v6H18v2h4v6H18v2h4v3Z"></path></g></svg>