<svg xmlns="http://www.w3.org/2000/svg" viewBox="0 0 64 64" x="0px" y="0px"><g><path d="M59,28a1,1,0,0,0,1-1V24h1a1,1,0,0,0,1-1V17a1,1,0,0,0-1-1H54.427A26.833,26.833,0,0,0,33,4.031V2H31V4.031A26.833,26.833,0,0,0,9.573,16H3a1,1,0,0,0-1,1v6a1,1,0,0,0,1,1H4v3a1,1,0,0,0,1,1V54H3a1,1,0,0,0-1,1v6a1,1,0,0,0,1,1H61a1,1,0,0,0,1-1V55a1,1,0,0,0-1-1H59V28ZM57,50H53V28h4ZM44,50V28a1,1,0,0,0,1-1V24h5v3a1,1,0,0,0,1,1V50ZM28,50V28a1,1,0,0,0,1-1V24h6v3a1,1,0,0,0,1,1V50ZM14,27V24h5v3a1,1,0,0,0,1,1V50H13V28A1,1,0,0,0,14,27Zm13-1H21V24h6Zm-5,2h4V50H22Zm21-2H37V24h6Zm-5,2h4V50H38Zm20-2H52V24h6ZM32,6A24.857,24.857,0,0,1,51.985,16H12.015A24.857,24.857,0,0,1,32,6ZM4,18H60v4H4Zm8,6v2H6V24Zm-1,4V50H7V28ZM4,56H18V54H7V52H19.78l-1.6,8H4Zm16.22,4,1.6-8H42.18l1.6,8ZM46,54v2H60v4H45.82l-1.6-8H57v2Z"></path><rect x="24" y="53" width="16" height="2"></rect><rect x="23" y="57" width="18" height="2"></rect></g></svg>