<svg xmlns="http://www.w3.org/2000/svg" viewBox="0 0 64 64" x="0px" y="0px"><g data-name="App-Internet of Things-Application-Internet-Smartphone"><rect x="37" y="25" width="2" height="2"></rect><rect x="29" y="17" width="2" height="2"></rect><rect x="37" y="17" width="2" height="2"></rect><rect x="29" y="33" width="2" height="2"></rect><rect x="21" y="17" width="2" height="2"></rect><rect x="29" y="25" width="2" height="2"></rect><path d="M15,10V34.93l1.44-2.49a4,4,0,0,1,5.46-1.47.138.138,0,0,1,.04.03H24a1,1,0,0,1,1,1v4a1,1,0,0,1-1,1h-.96l-2.89,5H35V40a3.967,3.967,0,0,1,1.38-3H36a1,1,0,0,1-1-1V32a1,1,0,0,1,1-1h4a1,1,0,0,1,1,1v4a.963.963,0,0,1-.14.48A3.979,3.979,0,0,1,43,40v2h2V10ZM25,28a1,1,0,0,1-1,1H20a1,1,0,0,1-1-1V24a1,1,0,0,1,1-1h4a1,1,0,0,1,1,1Zm0-8a1,1,0,0,1-1,1H20a1,1,0,0,1-1-1V16a1,1,0,0,1,1-1h4a1,1,0,0,1,1,1Zm8,16a1,1,0,0,1-1,1H28a1,1,0,0,1-1-1V32a1,1,0,0,1,1-1h4a1,1,0,0,1,1,1Zm0-8a1,1,0,0,1-1,1H28a1,1,0,0,1-1-1V24a1,1,0,0,1,1-1h4a1,1,0,0,1,1,1Zm0-8a1,1,0,0,1-1,1H28a1,1,0,0,1-1-1V16a1,1,0,0,1,1-1h4a1,1,0,0,1,1,1Zm8,8a1,1,0,0,1-1,1H36a1,1,0,0,1-1-1V24a1,1,0,0,1,1-1h4a1,1,0,0,1,1,1Zm0-8a1,1,0,0,1-1,1H36a1,1,0,0,1-1-1V16a1,1,0,0,1,1-1h4a1,1,0,0,1,1,1Z"></path><rect x="21" y="25" width="2" height="2"></rect><path d="M18.13,41.5a1.023,1.023,0,0,0-.06.87l1.29,3.21A9.149,9.149,0,0,1,20,48.93v1.3a9,9,0,0,1-1.28,4.63l-1.58,2.63A1,1,0,0,0,17,58v2H6.42l.56-2.8a1.075,1.075,0,0,0,.01-.31L5.57,44.11A14.908,14.908,0,0,1,7.5,34.95L13,25.42V38.39L11.44,41.1l1.73,1,5-8.66a1.988,1.988,0,0,1,2.73-.73,1.894,1.894,0,0,1,.93,1.21,1.974,1.974,0,0,1-.2,1.52Z"></path><path d="M44.9,8A5.017,5.017,0,0,0,40,4H20a5.017,5.017,0,0,0-4.9,4Z"></path><rect x="37" y="33" width="2" height="2"></rect><path d="M20.88,44l.33.84A10.825,10.825,0,0,1,22,48.93V50h6.81a4.247,4.247,0,0,1,.59-.43,4.038,4.038,0,0,1,3.04-.4,4.084,4.084,0,0,1,1.55.83H35V44ZM33,48H27V46h6Z"></path><path d="M59,50V60H33.11l-3.44-5.96a2,2,0,0,1,2.25-2.94,1.942,1.942,0,0,1,1.21.94l2,3.46a1.022,1.022,0,0,0,1.13.47A1,1,0,0,0,37,55V40a2,2,0,0,1,4,0V52a1,1,0,0,0,2,0V48a2,2,0,0,1,4,0v4a1,1,0,0,0,2,0V49a2,2,0,0,1,4,0v3a1,1,0,0,0,2,0V50a2,2,0,0,1,4,0Z"></path></g></svg>