<svg xmlns="http://www.w3.org/2000/svg" viewBox="0 0 64 64" x="0px" y="0px"><g><rect x="31" y="41" width="2" height="2"></rect><path d="M61,27H52V4a1,1,0,0,0-1-1H13a1,1,0,0,0-1,1V27H3a1,1,0,0,0-1,1V58a3.009,3.009,0,0,0,3,3H59a3.009,3.009,0,0,0,3-3V28A1,1,0,0,0,61,27Zm-9,2h6.59l-2.3,2.29a1.008,1.008,0,0,0,0,1.42L58.59,35H52ZM50,5V9.91A5.992,5.992,0,0,1,45.09,5ZM14,5h4.91A5.992,5.992,0,0,1,14,9.91Zm0,6.93A8,8,0,0,0,20.93,5H43.07A8,8,0,0,0,50,11.93v4.14A8,8,0,0,0,43.07,23H20.93A8,8,0,0,0,14,16.07ZM38,31V29H50v2Zm12,2v2H38V33ZM38,27V25H50v2Zm7.09-4A5.992,5.992,0,0,1,50,18.09V23ZM28,35V25h8V35Zm7,2v8H29V37ZM14,18.09A5.992,5.992,0,0,1,18.91,23H14ZM14,25H26v2H14Zm0,4H26v2H14Zm0,4H26v2H14Zm-2-4v6H5.41l2.3-2.29a1.008,1.008,0,0,0,0-1.42L5.41,29ZM4,30.41,5.59,32,4,33.59ZM60,58a1,1,0,0,1-1,1H5a1,1,0,0,1-1-1V37H27v8a2.006,2.006,0,0,0,2,2h6a2.006,2.006,0,0,0,2-2V37H60Zm0-24.41L58.41,32,60,30.41Z"></path><path d="M32,9a5,5,0,1,0,5,5A5.006,5.006,0,0,0,32,9Zm0,8a3,3,0,1,1,3-3A3,3,0,0,1,32,17Z"></path></g></svg>