<svg xmlns="http://www.w3.org/2000/svg" viewBox="0 0 48 48" x="0px" y="0px"><g data-name="Onlie Order"><rect x="19" y="35" width="10" height="6"></rect><path d="M44.1,3H32.41l4.3,4.29a1,1,0,0,1,.28.71H37V24H35V9H31a2.006,2.006,0,0,1-2-2V3H13V24H11V3H3.9a.9.9,0,0,0-.9.9V32.1a.9.9,0,0,0,.9.9H44.1a.9.9,0,0,0,.9-.9V3.9A.9.9,0,0,0,44.1,3ZM38,5h4a1,1,0,0,1,1,1V24H41V7H38ZM21,11H31v2H21Zm8,4v2H27V15ZM17,11h2v2H17Zm0,4h8v2H17Zm0,4H31v2H17ZM5,6A1,1,0,0,1,6,5H9V7H7V24H5ZM44,28H4V26H44Z"></path><polygon points="31 4.414 31 7 33.586 7 31 4.414"></polygon><rect x="17" y="43" width="14" height="2"></rect></g></svg>