<svg xmlns="http://www.w3.org/2000/svg" viewBox="0 0 64 64" x="0px" y="0px"><g><path d="M54.38,52H43.62l-2.55,5.11A1.992,1.992,0,0,0,42.85,60h12.3a1.992,1.992,0,0,0,1.78-2.89ZM46,56H44V54h2Zm4,2H48V56h2Zm4-2H52V54h2Z"></path><path d="M16.29,45.34l4.8,9.61-2.7-18.23-2.1,3.15,2.42,2.42a1.046,1.046,0,0,1,.29.81.989.989,0,0,1-.45.73Z"></path><path d="M20,31.57v2.02l3,3,3-3V31.57a10.68,10.68,0,0,1-6,0Z"></path><path d="M25.57,36.85l-1.86,1.86a1.014,1.014,0,0,1-1.42,0l-1.86-1.86L23,54.18Z"></path><path d="M29.71,45.34l-2.26-1.51A.989.989,0,0,1,27,43.1a1.046,1.046,0,0,1,.29-.81l2.42-2.42-2.1-3.15-2.7,18.23Z"></path><path d="M27.89,10H31a3,3,0,0,1,1,.18V7H29.71A7.065,7.065,0,0,1,27.89,10Z"></path><path d="M14,10.18A3,3,0,0,1,15,10h8a5,5,0,0,0,5-5V4H19a5,5,0,0,0-5,5Z"></path><path d="M34,20a2.015,2.015,0,0,0,2-2,2.006,2.006,0,0,0-2-2Z"></path><path d="M42,50.76V44.88a6.964,6.964,0,0,0-4.91-6.68L29.4,35.8l2.43,3.65a1,1,0,0,1-.12,1.26l-2.14,2.13,1.98,1.33a1,1,0,0,1,.34,1.28L24.62,60H34V46h2V60h3.4a3.956,3.956,0,0,1-.12-3.79Z"></path><path d="M10,18a2.015,2.015,0,0,0,2,2V16A2.006,2.006,0,0,0,10,18Z"></path><path d="M4,60h6V46h2V60h9.38L14.11,45.45a1,1,0,0,1,.34-1.28l1.98-1.33-2.14-2.13a1,1,0,0,1-.12-1.26L16.6,35.8,8.91,38.2A6.964,6.964,0,0,0,4,44.88Z"></path><path d="M14,21a9,9,0,0,0,18,0V13a1,1,0,0,0-1-1H15a1,1,0,0,0-1,1Zm13-5a2,2,0,1,1-2,2A2,2,0,0,1,27,16Zm-2.017,7.25,1.325,1.5a5,5,0,0,1-6.616,0l1.325-1.5A3.074,3.074,0,0,0,24.983,23.25ZM19,16a2,2,0,1,1-2,2A2,2,0,0,1,19,16Z"></path><path d="M47,40v5a1,1,0,0,1-.11.45L44.62,50h8.76l-2.27-4.55A1,1,0,0,1,51,45V40Zm3,8H48V46h2Z"></path><path d="M53,37a1,1,0,0,0-1-1H46a1,1,0,0,0,0,2h6A1,1,0,0,0,53,37Z"></path><rect x="50" y="30" width="2" height="2"></rect><rect x="46" y="29" width="2" height="2"></rect></g></svg>