<svg xmlns="http://www.w3.org/2000/svg" viewBox="0 0 32 32" x="0px" y="0px"><title>File Up Arrow_10</title><g data-name="File Up Arrow"><path d="M27.99,7.945a.95.95,0,0,0-.04-.223.83.83,0,0,0-.027-.094.994.994,0,0,0-.164-.278l-6-7a.974.974,0,0,0-.3-.231c-.031-.016-.06-.027-.092-.04a.992.992,0,0,0-.313-.068C21.032.01,21.017,0,21,0H5A1,1,0,0,0,4,1V31a1,1,0,0,0,1,1H19V30H6V2H8V8a1,1,0,0,0,1.707.707L11,7.414l1.293,1.293A1,1,0,0,0,13,9a.987.987,0,0,0,.383-.076A1,1,0,0,0,14,8V2h6V8a1,1,0,0,0,1,1h5v8h2V8C28,7.981,27.991,7.964,27.99,7.945ZM12,5.586l-.293-.293a1,1,0,0,0-1.414,0L10,5.586V2h2ZM22,3.7,24.826,7H22Z"></path><path d="M23.293,20.293l-2.829,2.828,1.414,1.414L23,23.414V28h2V23.414l1.122,1.121,1.414-1.414-2.829-2.828A1,1,0,0,0,23.293,20.293Z"></path></g></svg>