<svg xmlns="http://www.w3.org/2000/svg" viewBox="0 0 64 64" x="0px" y="0px"><g><path d="M12,40V50a1,1,0,0,0,2,0V40a1,1,0,0,0-2,0Z"></path><path d="M26,38V35.57a10.68,10.68,0,0,1-6,0V38a3,3,0,0,0,6,0Z"></path><path d="M30,40v-.02l-2.19-.68a4.976,4.976,0,0,1-9.62,0L16,39.98V47H30Z"></path><path d="M6,15a1,1,0,0,0,1,1H39a1,1,0,0,0,0-2H7A1,1,0,0,0,6,15Z"></path><path d="M14,12H32V7a3.009,3.009,0,0,0-3-3H17a3.009,3.009,0,0,0-3,3Z"></path><path d="M36,22a2.006,2.006,0,0,0-2-2v4a2.015,2.015,0,0,0,2-2Z"></path><path d="M10,41.86l-1.09.34A6.964,6.964,0,0,0,4,48.88V55h6Z"></path><rect x="4" y="57" width="6" height="3"></rect><path d="M10,22a2.015,2.015,0,0,0,2,2V20A2.006,2.006,0,0,0,10,22Z"></path><path d="M34,52.82A2.98,2.98,0,0,1,30,50V49H16v1a2.98,2.98,0,0,1-4,2.82V60H34Z"></path><path d="M14,25a9,9,0,0,0,18,0V18H14Zm13-5a2,2,0,1,1-2,2A2,2,0,0,1,27,20Zm-2.016,7.25,1.323,1.5a5,5,0,0,1-6.614,0l1.323-1.5A3.076,3.076,0,0,0,24.984,27.25ZM19,20a2,2,0,1,1-2,2A2,2,0,0,1,19,20Z"></path><path d="M34,40a1,1,0,0,0-2,0V50a1,1,0,0,0,2,0Z"></path><rect x="36" y="57" width="6" height="3"></rect><path d="M42,48.88a6.943,6.943,0,0,0-4.91-6.67L36,41.86V55h6Z"></path><path d="M52,59a1,1,0,0,0,2,0V49H52Z"></path><path d="M60,42V35.71a4.968,4.968,0,0,0-2.76-4.47L53,29.12l-4.24,2.12A4.968,4.968,0,0,0,46,35.71V42a1,1,0,0,0,1,1h5V34h2v9h5A1,1,0,0,0,60,42Z"></path><rect x="52" y="45" width="2" height="2"></rect></g></svg>