<svg xmlns="http://www.w3.org/2000/svg" viewBox="0 0 64 64" x="0px" y="0px"><g data-name="Big Data-Folder-Computer-Server-Files"><rect x="22" y="20" width="8" height="2"></rect><rect x="26" y="24" width="4" height="2"></rect><rect x="41" y="14" width="2" height="2"></rect><rect x="45" y="15" width="2" height="2"></rect><rect x="41" y="21" width="2" height="2"></rect><rect x="45" y="22" width="2" height="2"></rect><rect x="44" y="7" width="12" height="2"></rect><path d="M50,2C43.16,2,38,4.58,38,8v4H7a5,5,0,0,0-5,5V45a5,5,0,0,0,5,5H19.87l-.75,6H18a3,3,0,0,0,0,6H34a3,3,0,0,0,0-6H32.88l-.75-6H45a5,5,0,0,0,5-5V28c6.84,0,12-2.58,12-6V8C62,4.58,56.84,2,50,2ZM34,58a1,1,0,0,1,0,2H18a1,1,0,0,1,0-2ZM21.13,56l.75-6h8.24l.75,6ZM48,45a3.009,3.009,0,0,1-3,3H7a3.009,3.009,0,0,1-3-3V44H48Zm0-3H4V17a3.009,3.009,0,0,1,3-3H38v8c0,3.08,4.18,5.47,10,5.92ZM60,22c0,1.89-4.28,4-10,4s-10-2.11-10-4V18.41C42.11,19.99,45.73,21,50,21s7.89-1.01,10-2.59Zm0-7c0,1.89-4.28,4-10,4s-10-2.11-10-4V11.41C42.11,12.99,45.73,14,50,14s7.89-1.01,10-2.59ZM50,12c-5.72,0-10-2.11-10-4s4.28-4,10-4S60,6.11,60,8,55.72,12,50,12Z"></path><path d="M36,23H34V18a2.006,2.006,0,0,0-2-2H20a2.006,2.006,0,0,0-2,2H17a3.009,3.009,0,0,0-3,3V37a3.009,3.009,0,0,0,3,3H35a3.009,3.009,0,0,0,3-3V25A2.006,2.006,0,0,0,36,23ZM20,18H32V28H26.41l-4.7-4.71A1.033,1.033,0,0,0,21,23H20Zm-4,3a1,1,0,0,1,1-1h1v3H16ZM36,37a1,1,0,0,1-1,1H17a1,1,0,0,1-1-1V25h4.59l4.7,4.71A1.033,1.033,0,0,0,26,30H36Zm0-9H34V25h2Z"></path></g></svg>