<svg xmlns="http://www.w3.org/2000/svg" viewBox="0 0 64 64" x="0px" y="0px"><g><path d="M31,54H27a1,1,0,0,0,0,2h4a1,1,0,0,0,0-2Z"></path><path d="M14,35.03V23a3.009,3.009,0,0,0-3-3H4V34h7A4.924,4.924,0,0,1,14,35.03ZM6,22h6v2H6Zm0,4h6v2H6Zm0,4h6v2H6Z"></path><path d="M59.75,18.25a3,3,0,0,0-4.24,0l-.71.71,4.24,4.24.71-.71A3,3,0,0,0,59.75,18.25Z"></path><path d="M47,38.07l-2.1,2.1a1.014,1.014,0,0,1-.35.23l-9.19,3.53A.922.922,0,0,1,35,44a1.007,1.007,0,0,1-.71-.29.988.988,0,0,1-.22-1.07l3.53-9.19a1.014,1.014,0,0,1,.23-.35L47,23.93V12H11v6a4.994,4.994,0,0,1,4,2.03A4.994,4.994,0,0,1,19,18h8a1,1,0,0,1,1,1V39a1,1,0,0,1-1,1H11v8H47ZM36,18h6v2H36Zm-4,0h2v2H32Zm0,4H42v2H32Zm0,4h8v2H32Zm0,4h4v2H32Z"></path><path d="M11,36H4v2h9.83A3.014,3.014,0,0,0,11,36Z"></path><path d="M47,50H11v6a4,4,0,0,0,4,4H43a4,4,0,0,0,4-4ZM31,58H27a3,3,0,0,1,0-6h4a3,3,0,0,1,0,6Z"></path><path d="M26,20H19a3.009,3.009,0,0,0-3,3V35.03A4.924,4.924,0,0,1,19,34h7ZM24,32H18V30h6Zm0-4H18V26h6Zm0-4H18V22h6Z"></path><path d="M11,10H47V8a4,4,0,0,0-4-4H15a4,4,0,0,0-4,4ZM26,6h6V8H26ZM22,6h2V8H22Z"></path><path d="M16.17,38H26V36H19A3.014,3.014,0,0,0,16.17,38Z"></path><polygon points="42.4 39.08 38.92 35.6 38.13 37.65 40.35 39.87 42.4 39.08"></polygon><polygon points="41.36 35.22 54.8 21.79 53.38 20.37 39.95 33.81 41.36 35.22"></polygon><polygon points="36.74 41.26 38.31 40.65 37.35 39.69 36.74 41.26"></polygon><polygon points="56.21 23.2 42.78 36.64 44.19 38.05 57.63 24.62 56.21 23.2"></polygon></g></svg>