<svg xmlns="http://www.w3.org/2000/svg" viewBox="0 0 64 64" x="0px" y="0px"><g><path d="M46,6V4H11a3,3,0,0,0,0,6H46V8H12V6Z"></path><rect x="18" y="20" width="22" height="8"></rect><path d="M46,60V12H12V60ZM16,19a1,1,0,0,1,1-1H41a1,1,0,0,1,1,1V29a1,1,0,0,1-1,1H17a1,1,0,0,1-1-1Z"></path><path d="M8.9,11.522a4.947,4.947,0,0,1-.522-.283c-.087-.054-.174-.105-.257-.164C8.083,11.047,8.038,11.026,8,11V57a3,3,0,0,0,2,2.816V11.9c-.072-.015-.137-.046-.208-.063a5.008,5.008,0,0,1-.6-.186C9.1,11.611,9,11.568,8.9,11.522Z"></path><rect x="52" y="14" width="4" height="40"></rect><polygon points="55.382 56 52.618 56 54 58.764 55.382 56"></polygon><rect x="52" y="11" width="4" height="1"></rect><path d="M56,5a1,1,0,0,0-1-1H53a1,1,0,0,0-1,1V9h4Z"></path></g></svg>