<svg xmlns="http://www.w3.org/2000/svg" viewBox="0 0 64 64" x="0px" y="0px"><g data-name="Playground"><rect x="26" y="14" width="2" height="16"></rect><rect x="26" y="14" width="2" height="16"></rect><rect x="32" y="14" width="2" height="16"></rect><rect x="32" y="14" width="2" height="16"></rect><rect x="38" y="14" width="2" height="16"></rect><path d="M28.12,58h-2a8.315,8.315,0,0,1,.979-4.1,7.084,7.084,0,0,0,0-6.469,9.075,9.075,0,0,1,0-8.2A6.356,6.356,0,0,0,27.88,36h2a8.3,8.3,0,0,1-.979,4.1,7.082,7.082,0,0,0,0,6.466,9.081,9.081,0,0,1,0,8.2A6.355,6.355,0,0,0,28.12,58Z"></path><path d="M36.12,58h-2a8.315,8.315,0,0,1,.979-4.1,7.084,7.084,0,0,0,0-6.469,9.075,9.075,0,0,1,0-8.2A6.356,6.356,0,0,0,35.88,36h2a8.3,8.3,0,0,1-.979,4.1,7.082,7.082,0,0,0,0,6.466,9.081,9.081,0,0,1,0,8.2A6.355,6.355,0,0,0,36.12,58Z"></path><path d="M4,60H20V36H4ZM15,44h2a1,1,0,0,1,0,2H15a1,1,0,0,1,0-2Zm0,8h2a1,1,0,0,1,0,2H15a1,1,0,0,1,0-2ZM7,40H9a1,1,0,0,1,0,2H7a1,1,0,0,1,0-2Zm0,8H9a1,1,0,0,1,0,2H7a1,1,0,0,1,0-2Zm0,8H9a1,1,0,0,1,0,2H7a1,1,0,0,1,0-2Z"></path><path d="M60,60V36H44V60ZM55,40h2a1,1,0,0,1,0,2H55a1,1,0,0,1,0-2Zm0,8h2a1,1,0,0,1,0,2H55a1,1,0,0,1,0-2Zm0,8h2a1,1,0,0,1,0,2H55a1,1,0,0,1,0-2ZM47,44h2a1,1,0,0,1,0,2H47a1,1,0,0,1,0-2Zm0,8h2a1,1,0,0,1,0,2H47a1,1,0,0,1,0-2Z"></path><rect x="4" y="32" width="56" height="2"></rect><rect x="46" y="14" width="14" height="16"></rect><rect x="4" y="14" width="16" height="16"></rect><rect x="4" y="10" width="56" height="2"></rect></g></svg>