<svg xmlns="http://www.w3.org/2000/svg" viewBox="0 0 64 64" x="0px" y="0px"><g><path d="M51,16V14.885a2.981,2.981,0,0,1-1.293-.764L49,13.415l-.121.121A4.968,4.968,0,0,1,45.343,15H45v1a2.822,2.822,0,0,0,.154.93,3,3,0,0,0,.732,1.2,2.57,2.57,0,0,0,.551.421.982.982,0,0,1,.114.076A3,3,0,0,0,51,16Z"></path><path d="M46.9,20.866a3.934,3.934,0,0,1-.7,1.5,2.907,2.907,0,0,0,3.612,0,3.926,3.926,0,0,1-.7-1.5,4.649,4.649,0,0,1-2.208,0Z"></path><path d="M43,18a2,2,0,0,0-2,2,1.967,1.967,0,0,0,1.526,1.933,6.687,6.687,0,0,1,2.112-.794A1.96,1.96,0,0,0,45,20v-.01a4.774,4.774,0,0,1-.535-.452,5,5,0,0,1-1.07-1.62A1,1,0,0,1,43,18Z"></path><path d="M41,36.5a.5.5,0,0,0,1,0V35H41Z"></path><path d="M52.613,17.922A5.011,5.011,0,0,1,51,19.972c0,.009,0,.019,0,.028a1.96,1.96,0,0,0,.362,1.139,6.675,6.675,0,0,1,2.111.794A1.966,1.966,0,0,0,55,20a2,2,0,0,0-2-2A1,1,0,0,1,52.613,17.922Z"></path><path d="M44,13h1.343a2.983,2.983,0,0,0,2.122-.878l.828-.829a1.028,1.028,0,0,1,1.414,0l1.414,1.414a1.009,1.009,0,0,0,.707.293H52V12a4,4,0,0,0-8,0Z"></path><path d="M47,59.382V58H42a1,1,0,0,0-1,1v1h4.764Z"></path><path d="M55,60V59a1,1,0,0,0-1-1H49v1.382L50.236,60Z"></path><path d="M55,36.5V35H54v1.5a.5.5,0,0,0,1,0Z"></path><rect x="49" y="46" width="2" height="10"></rect><rect x="45" y="46" width="2" height="10"></rect><path d="M51.017,34.179A.978.978,0,0,1,51,34V31a1,1,0,0,1,.03-.243l1-4,1.94.486L53,31.123V33h2V28a4.98,4.98,0,0,0-2.267-4.183,4.774,4.774,0,0,0-1.112-.528,4.687,4.687,0,0,1-7.242,0,4.757,4.757,0,0,0-1.108.525A4.984,4.984,0,0,0,41,28v5h2V31.123l-.97-3.88,1.94-.486,1,4A1,1,0,0,1,45,31v3a.978.978,0,0,1-.017.179L43.2,44h9.6Z"></path><path d="M19,15V13.87a2.96,2.96,0,0,1-1.293-.749L17,12.415l-.121.121A4.968,4.968,0,0,1,13.343,14H13v1a3,3,0,0,0,6,0Z"></path><path d="M23,60V59a1,1,0,0,0-1-1H17v1.382L18.236,60Z"></path><path d="M12,12h1.343a2.983,2.983,0,0,0,2.122-.878l.828-.829a1,1,0,0,1,1.414,0l1.414,1.414a1.009,1.009,0,0,0,.707.293H20V11a4,4,0,0,0-8,0Z"></path><path d="M9,34h1V26h2V38h8V26h2v8h1V27a4.991,4.991,0,0,0-4.624-4.962L17,23.414V35H15V23.414l-1.376-1.376A4.991,4.991,0,0,0,9,27Z"></path><path d="M15,19.9v.687l1,1,1-1V19.9a5,5,0,0,1-2,0Z"></path><path d="M15,59.382V58H10a1,1,0,0,0-1,1v1h4.764Z"></path><polygon points="15 42 17 42 17 56 20 56 20 40 12 40 12 56 15 56 15 42"></polygon><path d="M9,37.5a.5.5,0,0,0,1,0V36H9Z"></path><path d="M23,37.5V36H22v1.5a.5.5,0,0,0,1,0Z"></path><path d="M32,37a2,2,0,0,0,2-2H33a1,1,0,0,1-.707-.293L32,34.414l-.293.293A1,1,0,0,1,31,35H30A2,2,0,0,0,32,37Z"></path><path d="M30.586,33l.707-.707a1,1,0,0,1,1.414,0l.707.707H34a2,2,0,0,0-4,0Z"></path><path d="M33.51,39.3a3.938,3.938,0,0,0-3.02,0,1.98,1.98,0,0,0,3.02,0Z"></path><path d="M28,43v1h1V43h2v4h2V43h2v1h1V43a3.961,3.961,0,0,0-.89-2.484,4,4,0,0,1-6.22,0A3.961,3.961,0,0,0,28,43Z"></path><path d="M36,46.5V46H35v.5a.5.5,0,0,0,1,0Z"></path><path d="M31,59H30a2,2,0,0,0-1.731,1H31Z"></path><path d="M34,59H33v1h2.731A2,2,0,0,0,34,59Z"></path><polygon points="31 51 33 51 33 57 34 57 34 49 30 49 30 57 31 57 31 51"></polygon><path d="M28,46.5a.5.5,0,0,0,1,0V46H28Z"></path><path d="M28.336,13.355,32,15.8l3.664-2.443A2.991,2.991,0,0,0,37,10.859V4H27v6.859A2.991,2.991,0,0,0,28.336,13.355Zm1.371-5.062L31,9.586l3.293-3.293,1.414,1.414-4,4a1,1,0,0,1-1.414,0l-2-2Z"></path></g></svg>