<svg xmlns="http://www.w3.org/2000/svg" viewBox="0 0 64 64" x="0px" y="0px"><g data-name="Table"><path d="M59,20a3,3,0,0,0-3,3V40H41a3,3,0,0,0,0,6h1V59a3,3,0,0,0,6,0V57h6v2a3,3,0,0,0,6,0V45.816A3,3,0,0,0,62,43V23A3,3,0,0,0,59,20ZM45,60a1,1,0,0,1-1-1V46h2V59A1,1,0,0,1,45,60Zm3-5V46h6v9Zm9,5a1,1,0,0,1-1-1V46h2V59A1,1,0,0,1,57,60Zm3-17a1,1,0,0,1-1,1H41a1,1,0,0,1,0-2H57a1,1,0,0,0,1-1V23a1,1,0,0,1,2,0Z"></path><path d="M26,43a3,3,0,0,0-3-3H8V23a3,3,0,0,0-6,0V43a3,3,0,0,0,2,2.816V59a3,3,0,0,0,6,0V57h6v2a3,3,0,0,0,6,0V46h1A3,3,0,0,0,26,43ZM4,23a1,1,0,0,1,2,0V41a1,1,0,0,0,1,1H23a1,1,0,0,1,0,2H5a1,1,0,0,1-1-1ZM7,60a1,1,0,0,1-1-1V46H8V59A1,1,0,0,1,7,60Zm3-5V46h6v9Zm10,4a1,1,0,0,1-2,0V46h2Z"></path><path d="M37,56H35V36H47a3,3,0,0,0,0-6H45.46a6.009,6.009,0,0,0,1.2-2.024A3,3,0,1,0,47,22H36a1,1,0,0,0-1,1v3a5.969,5.969,0,0,0,1.54,4H27.46A5.969,5.969,0,0,0,29,26V23a1,1,0,0,0-1-1H17a3,3,0,1,0,.341,5.976A6.009,6.009,0,0,0,18.54,30H17a3,3,0,0,0,0,6H29V56H27a3,3,0,0,0,0,6H37a3,3,0,0,0,0-6ZM48,25a1,1,0,0,1-1,1V24A1,1,0,0,1,48,25ZM37,26V24h8v2a4,4,0,0,1-8,0ZM16,25a1,1,0,0,1,1-1v2A1,1,0,0,1,16,25Zm3,1V24h8v2a4,4,0,0,1-8,0Zm-3,7a1,1,0,0,1,1-1H47a1,1,0,0,1,0,2H17A1,1,0,0,1,16,33Zm15,3h2V56H31Zm6,24H27a1,1,0,0,1,0-2H37a1,1,0,0,1,0,2Z"></path><path d="M35.5,18h3a.5.5,0,0,1,.5.5V20h2V18.5A2.5,2.5,0,0,0,38.5,16h-3a.5.5,0,0,1,0-1h1A2.5,2.5,0,0,0,39,12.5V11H37v1.5a.5.5,0,0,1-.5.5h-1a2.5,2.5,0,0,0,0,5Z"></path><path d="M43.5,17a.5.5,0,0,1,.5.5V20h2V17.5A2.5,2.5,0,0,0,43.5,15a.5.5,0,0,1,0-1h1A2.5,2.5,0,0,0,47,11.5V10H45v1.5a.5.5,0,0,1-.5.5h-1a2.5,2.5,0,0,0,0,5Z"></path><path d="M16.5,18h3a.5.5,0,0,1,.5.5V20h2V18.5A2.5,2.5,0,0,0,19.5,16h-3a.5.5,0,0,1,0-1h1A2.5,2.5,0,0,0,20,12.5V11H18v1.5a.5.5,0,0,1-.5.5h-1a2.5,2.5,0,0,0,0,5Z"></path><path d="M24.5,17a.5.5,0,0,1,.5.5V20h2V17.5A2.5,2.5,0,0,0,24.5,15a.5.5,0,0,1,0-1h1A2.5,2.5,0,0,0,28,11.5V10H26v1.5a.5.5,0,0,1-.5.5h-1a2.5,2.5,0,0,0,0,5Z"></path></g></svg>