<svg xmlns="http://www.w3.org/2000/svg" viewBox="0 0 64 64" x="0px" y="0px"><g data-name="Cargo Car"><path d="M15,45a5,5,0,1,0,5,5A5.006,5.006,0,0,0,15,45Zm1,6H14V49h2Z"></path><path d="M21.92,49H34V21H30V34a1,1,0,0,1-1,1H4v2H5a2,2,0,0,1,2,2v2a2,2,0,0,1-2,2H4v2H7v2H4v1a1,1,0,0,0,1,1H8.08a6.991,6.991,0,0,1,13.84,0Z"></path><rect x="4" y="39" width="1" height="2"></rect><path d="M55.92,49H59a1,1,0,0,0,1-1V47H57V45h3V43H56a2,2,0,0,1-2-2V39a2,2,0,0,1,2-2h2.974A4.977,4.977,0,0,0,55,35H36V49h6.08a6.991,6.991,0,0,1,13.84,0ZM42,39H38V37h4Z"></path><path d="M49,45a5,5,0,1,0,5,5A5.006,5.006,0,0,0,49,45Zm1,6H48V49h2Z"></path><path d="M36,21V33H49.057L41.382,22.256A3.005,3.005,0,0,0,38.941,21Z"></path><path d="M56,41h4V40a5,5,0,0,0-.1-1H56Z"></path><path d="M38,18a9.013,9.013,0,0,0-8-8.945V19h8Z"></path><rect x="4" y="9" width="24" height="24"></rect></g></svg>