<svg xmlns="http://www.w3.org/2000/svg" viewBox="0 0 64 64" x="0px" y="0px"><g><polygon points="43.219 50 53.129 50 51.911 46 42.002 46 43.219 50"></polygon><polygon points="41.393 44 51.303 44 50.085 40 40.176 40 41.393 44"></polygon><path d="M24.748,28.715A1,1,0,0,1,25.706,28H28V26H25.706a1,1,0,0,1-.958-.715,5.987,5.987,0,0,0-.469-1.139,1,1,0,0,1,.172-1.183l1.62-1.62-1.414-1.414-1.62,1.62a1,1,0,0,1-1.183.172,5.987,5.987,0,0,0-1.139-.469A1,1,0,0,1,20,20.294V18H18v2.294a1,1,0,0,1-.715.958,5.987,5.987,0,0,0-1.139.469,1,1,0,0,1-1.183-.172l-1.62-1.62-1.414,1.414,1.62,1.62a1,1,0,0,1,.172,1.183,5.987,5.987,0,0,0-.469,1.139,1,1,0,0,1-.958.715H10v2h2.294a1,1,0,0,1,.958.715,5.987,5.987,0,0,0,.469,1.139,1,1,0,0,1-.172,1.183l-1.62,1.62,1.414,1.414,1.62-1.62a1,1,0,0,1,1.183-.172,5.987,5.987,0,0,0,1.139.469,1,1,0,0,1,.715.958V36h2V33.706a1,1,0,0,1,.715-.958,5.987,5.987,0,0,0,1.139-.469,1,1,0,0,1,1.183.172l1.62,1.62,1.414-1.414-1.62-1.62a1,1,0,0,1-.172-1.183A5.987,5.987,0,0,0,24.748,28.715ZM19,31a4,4,0,1,1,4-4A4,4,0,0,1,19,31Z"></path><circle cx="19" cy="27" r="2"></circle><polygon points="48.259 34 38.349 34 39.567 38 49.477 38 48.259 34"></polygon><path d="M60,12H4V57a3,3,0,0,0,3,3H57a3,3,0,0,0,3-3ZM38,16H52v2H38Zm6,6V20h8v2Zm8,2v2H46V24ZM32,16h4v2H32Zm0,4H42v2H32Zm12,4v2H40V24ZM32,24h6v2H32ZM8,40h2v2H8Zm0,4h8v2H8Zm4-2V40h2v2Zm8,8H8V48H20Zm0-4H18V44h2Zm-4-4V40h2v2Zm8,8H22V48h2Zm-4-8V40h2v2Zm8.192-10.05a1,1,0,0,1,0,1.414l-2.828,2.828a1,1,0,0,1-1.414,0l-1.827-1.827L22,34.416V37a1,1,0,0,1-1,1H17a1,1,0,0,1-1-1V34.416l-.123-.051L14.05,36.192a1.029,1.029,0,0,1-1.414,0L9.808,33.364a1,1,0,0,1,0-1.414l1.827-1.827L11.584,30H9a1,1,0,0,1-1-1V25a1,1,0,0,1,1-1h2.584l.051-.123L9.808,22.05a1,1,0,0,1,0-1.414l2.828-2.828a1,1,0,0,1,1.414,0l1.827,1.827L16,19.584V17a1,1,0,0,1,1-1h4a1,1,0,0,1,1,1v2.584l.123.051,1.827-1.827a1.029,1.029,0,0,1,1.414,0l2.828,2.828a1,1,0,0,1,0,1.414l-1.827,1.827.051.123H29a1,1,0,0,1,1,1v4a1,1,0,0,1-1,1H26.416l-.051.123ZM55.043,56.291,53.737,52H43.828l1.129,3.709-1.914.582L37,36.434,30.957,56.291l-1.914-.582,7-23A1,1,0,0,1,37,32H49a1,1,0,0,1,.957.709l7,23Z"></path><path d="M60,7a3,3,0,0,0-3-3H7A3,3,0,0,0,4,7v3H60ZM10,8H8V6h2Zm4,0H12V6h2Zm4,0H16V6h2Z"></path></g></svg>