<svg xmlns="http://www.w3.org/2000/svg" viewBox="0 0 64 64" x="0px" y="0px"><g><rect x="13" y="4" width="2" height="44"></rect><path d="M7,36.111a6.975,6.975,0,0,1,4-2.031V19.1A5.009,5.009,0,0,0,7,24Z"></path><path d="M7,50.105a6.988,6.988,0,0,1,4-2.025V36.1A5.009,5.009,0,0,0,7,41Z"></path><path d="M57,50H12a5,5,0,0,0,0,10H57V58H13a3,3,0,0,1,0-6H57Z"></path><path d="M7,19.111a6.975,6.975,0,0,1,4-2.031V4.1A5.009,5.009,0,0,0,7,9Z"></path><path d="M12,55a1,1,0,0,0,1,1H57V54H13A1,1,0,0,0,12,55Z"></path><path d="M37,13A13,13,0,1,0,50,26,13.015,13.015,0,0,0,37,13Zm9.309,12.791a16.122,16.122,0,0,0-1.893,5.962L44.179,34.2A3.1,3.1,0,0,1,38,33.9V31a1,1,0,0,0-2,0v2.9a3.1,3.1,0,0,1-6.179.3l-.237-2.449a16.111,16.111,0,0,0-1.893-5.962,5.99,5.99,0,0,1,8.772-7.677.937.937,0,0,0,1.075,0,5.954,5.954,0,0,1,4.5-1.023,5.994,5.994,0,0,1,4.268,8.7Z"></path><path d="M57,4H17V48H57ZM37,41A15,15,0,1,1,52,26,15.017,15.017,0,0,1,37,41Z"></path><path d="M41.7,19.061a3.983,3.983,0,0,0-3,.678,2.921,2.921,0,0,1-3.405,0,3.961,3.961,0,0,0-3-.679,3.995,3.995,0,0,0-2.837,5.794,18.094,18.094,0,0,1,2.115,6.7l.238,2.449A1.1,1.1,0,0,0,34,33.9V31a3,3,0,0,1,6,0v2.9a1.1,1.1,0,0,0,2.188.106l.238-2.449a18.111,18.111,0,0,1,2.115-6.7A3.995,3.995,0,0,0,41.7,19.061ZM37,23a8.347,8.347,0,0,1-3.408-.687l.82-1.824a6.979,6.979,0,0,0,5.178,0l.82,1.824A8.358,8.358,0,0,1,37,23Z"></path></g></svg>