<svg xmlns="http://www.w3.org/2000/svg" viewBox="0 0 64 64" x="0px" y="0px"><g data-name="Creative Process"><path d="M38,48V45.26a1,1,0,0,1,.533-.884,14,14,0,1,0-13.066,0A1,1,0,0,1,26,45.26V48ZM22.335,31.747l1.33-1.494L27.5,33.662l3.835-3.409a1,1,0,0,1,1.328,0l3.839,3.41,3.838-3.41,1.328,1.5-4.5,4a1,1,0,0,1-1.329,0L32,32.338,28.16,35.747a1,1,0,0,1-1.329,0Z"></path><path d="M48.9,54.7,54.694,48.9,50.32,43.556a1,1,0,0,1-.094-1.13,20.86,20.86,0,0,0,2.037-4.91,1,1,0,0,1,.865-.734L60,36.1v-8.19l-6.872-.687a1,1,0,0,1-.865-.734,20.887,20.887,0,0,0-2.037-4.91,1,1,0,0,1,.094-1.13L54.694,15.1,48.9,9.305l-5.347,4.376a1,1,0,0,1-1.13.092,21.012,21.012,0,0,0-4.911-2.037,1,1,0,0,1-.733-.865L36.1,4h-8.19l-.687,6.871a1,1,0,0,1-.733.865,21.012,21.012,0,0,0-4.911,2.037,1,1,0,0,1-1.13-.092L15.1,9.305,9.306,15.1l4.374,5.347a1,1,0,0,1,.094,1.13,20.887,20.887,0,0,0-2.037,4.91,1,1,0,0,1-.865.734L4,27.905V36.1l6.872.687a1,1,0,0,1,.865.734,20.86,20.86,0,0,0,2.037,4.91,1,1,0,0,1-.094,1.13L9.306,48.9,15.1,54.7l4.274-3.5.633.775h2.162A2.942,2.942,0,0,1,22,51a3,3,0,0,1,2-2.816V45.849a15.992,15.992,0,0,1,7.244-29.828A15.994,15.994,0,0,1,40,45.85v2.334A3,3,0,0,1,42,51a2.954,2.954,0,0,1-.165.968h2.156l.633-.774ZM50,31h2v2H50ZM14,33H12V31h2Zm4.564,11.021,1.415,1.414L18.565,46.85,17.15,45.436Zm0-24.042L17.15,18.564l1.415-1.414,1.414,1.415ZM33,14H31V12h2Zm12.436,5.979-1.415-1.414,1.414-1.415,1.415,1.414Zm0,24.042,1.414,1.415L45.435,46.85l-1.414-1.415Z"></path><path d="M38,54H26v1a5.006,5.006,0,0,0,5,5h2a5.006,5.006,0,0,0,5-5Z"></path><path d="M25,52H39a1,1,0,0,0,0-2H25a1,1,0,0,0,0,2Z"></path></g></svg>