<svg xmlns="http://www.w3.org/2000/svg" viewBox="0 0 64 64" x="0px" y="0px"><title>Rum-Cocktail</title><g><path d="M45.729,13.315A1,1,0,0,0,45,13H41.444a3.946,3.946,0,0,0-2.272-5.8,8.029,8.029,0,0,1,1.535-3.489,1,1,0,1,0-1.414-1.414,10.222,10.222,0,0,0-2.147,4.8A4,4,0,0,0,34,11a3.959,3.959,0,0,0,.556,2H23.732l4.634-8.026A1,1,0,0,0,28,3.607,12,12,0,1,0,16,24.393a1.014,1.014,0,0,0,.5.133,1,1,0,0,0,.866-.5l1.145-1.983,2.431,38.071a2,2,0,0,0,2,1.886H41.06a2,2,0,0,0,2-1.877L46,14.063A1,1,0,0,0,45.729,13.315ZM36,11a2,2,0,1,1,2,2A2,2,0,0,1,36,11Zm7.935,4-.32,5H20.385l-.069-1.082L22.578,15Zm-23.87,0h.2l-.182.316Zm-3.906,7.117a10,10,0,0,1,9.95-17.234L21.423,13H19a1,1,0,0,0-1,1.063l.279,4.378ZM41.06,60,22.938,60,20.512,22H43.487Z"></path><path d="M34.56,37.17a.776.776,0,0,0-.18-.09.646.646,0,0,0-.18-.06.949.949,0,0,0-.58.06.9.9,0,0,0-.54.54,1,1,0,0,0,1.63,1.09,1.169,1.169,0,0,0,.21-.33A1,1,0,0,0,35,38a1.05,1.05,0,0,0-.29-.71A1.712,1.712,0,0,0,34.56,37.17Z"></path><path d="M26.92,32.62a1.032,1.032,0,0,0-.21-.33,1.047,1.047,0,0,0-1.42,0,1.035,1.035,0,0,0-.221,1.09,1.231,1.231,0,0,0,.221.33,1,1,0,0,0,1.63-1.09Z"></path><path d="M32.71,26.29A1,1,0,0,0,31,27a.838.838,0,0,0,.08.38,1.169,1.169,0,0,0,.21.33,1.155,1.155,0,0,0,.33.21.943.943,0,0,0,.76,0,.9.9,0,0,0,.54-.54A1,1,0,0,0,33,27,1.05,1.05,0,0,0,32.71,26.29Z"></path><path d="M31.71,51.29a1,1,0,0,0-.16-.12.568.568,0,0,0-.17-.09.609.609,0,0,0-.191-.06.922.922,0,0,0-.569.06.9.9,0,0,0-.54.54,1,1,0,0,0,1.63,1.09,1.169,1.169,0,0,0,.21-.33.942.942,0,0,0,0-.76A1.032,1.032,0,0,0,31.71,51.29Z"></path><path d="M28.71,44.29a1,1,0,0,0-.16-.12.568.568,0,0,0-.17-.09.609.609,0,0,0-.191-.06.852.852,0,0,0-.389,0,.636.636,0,0,0-.18.06.782.782,0,0,0-.181.09,1.7,1.7,0,0,0-.149.12,1.155,1.155,0,0,0-.21.33A.838.838,0,0,0,27,45a1,1,0,1,0,1.92-.38A1.155,1.155,0,0,0,28.71,44.29Z"></path><path d="M36.8,46.02a.636.636,0,0,0-.18.06.782.782,0,0,0-.181.09,1.7,1.7,0,0,0-.149.12,1.032,1.032,0,0,0-.21.33A.838.838,0,0,0,36,47a1,1,0,1,0,2,0,1.05,1.05,0,0,0-.29-.71A1.018,1.018,0,0,0,36.8,46.02Z"></path><path d="M40,28H39V27a1,1,0,0,0-2,0v1H36a1,1,0,0,0,0,2h1v1a1,1,0,0,0,2,0V30h1a1,1,0,0,0,0-2Z"></path></g></svg>