<svg xmlns="http://www.w3.org/2000/svg" viewBox="0 0 64 64" x="0px" y="0px"><g data-name="Cloud-Cloud Computing-Sent-Transfer-Share"><path d="M50,22H48a3,3,0,0,1-3,3v2A5.006,5.006,0,0,0,50,22Z"></path><rect x="41" y="25" width="2" height="2"></rect><path d="M29,6a7.008,7.008,0,0,0-7,7h2a5.006,5.006,0,0,1,5-5Z"></path><path d="M56.99,48.3c.007-.1.01-.2.01-.3a5.006,5.006,0,0,0-5-5,4.876,4.876,0,0,0-1.166.141A6.966,6.966,0,0,0,49,41.255V37a1,1,0,0,0-1-1H34.816A3,3,0,0,0,33,34.184V31H45a9,9,0,0,0,2-17.774c0-.076,0-.151,0-.226a7.008,7.008,0,0,0-7-7,6.9,6.9,0,0,0-2.232.369A10.994,10.994,0,0,0,18,13v.055A9,9,0,0,0,19,31H31v3.184A3,3,0,0,0,29.184,36H16a1,1,0,0,0-1,1v3.3A6.976,6.976,0,0,0,6,47a6.9,6.9,0,0,0,.186,1.6A7,7,0,0,0,9,62H23a7,7,0,0,0,1.99-13.7c.007-.1.01-.2.01-.3a5.006,5.006,0,0,0-5-5,4.876,4.876,0,0,0-1.166.141A6.966,6.966,0,0,0,17,41.255V38H29.184a2.982,2.982,0,0,0,5.632,0H47v2.3A6.976,6.976,0,0,0,38,47a6.9,6.9,0,0,0,.186,1.6A7,7,0,0,0,41,62H55a7,7,0,0,0,1.99-13.7ZM19,29a7,7,0,1,1,.05-14,1,1,0,0,0,1-1.1c-.029-.3-.045-.6-.045-.9A8.994,8.994,0,0,1,36.565,8.138a1,1,0,0,0,1.274.359A4.948,4.948,0,0,1,40,8a5.006,5.006,0,0,1,5,5,4.938,4.938,0,0,1-.083.878,1,1,0,0,0,.873,1.17A7,7,0,0,1,45,29H33V26.816a3,3,0,1,0-2,0V29Zm12-5a1,1,0,1,1,1,1A1,1,0,0,1,31,24ZM17,53a1,1,0,1,1-1-1A1,1,0,0,1,17,53Zm.48-8.208a1,1,0,0,0,1.3.472A2.962,2.962,0,0,1,22.875,48.8a1,1,0,0,0,.824,1.257A5,5,0,0,1,23,60H9a5,5,0,0,1-1.31-9.82,1,1,0,0,0,.666-1.335A5,5,0,0,1,15,42.417v7.767a3,3,0,1,0,2,0V44.022A5.077,5.077,0,0,1,17.48,44.792ZM32,38a1,1,0,1,1,1-1A1,1,0,0,1,32,38ZM49,53a1,1,0,1,1-1-1A1,1,0,0,1,49,53Zm6,7H41a5,5,0,0,1-1.31-9.82,1,1,0,0,0,.666-1.335A5,5,0,0,1,47,42.417v7.767a3,3,0,1,0,2,0V44.022a5.077,5.077,0,0,1,.48.77,1,1,0,0,0,1.3.472A2.962,2.962,0,0,1,54.875,48.8a1,1,0,0,0,.824,1.257A5,5,0,0,1,55,60Z"></path></g></svg>