<svg xmlns="http://www.w3.org/2000/svg" viewBox="0 0 64 64" x="0px" y="0px"><g><rect x="17" y="28" width="2" height="2"></rect><path d="M61.61,34.21l-5.83-4.53-.63-2.66A12.947,12.947,0,0,0,42.5,17H41.49a13.029,13.029,0,0,0-12.26,8.67L27,31.99V27a2.734,2.734,0,0,0-.05-.5l2.92-5.05a1.01,1.01,0,0,0-.37-1.37l-3.46-2a1,1,0,0,0-1.37.37l-.56.96L10.07,13.49a1.014,1.014,0,0,0-1.26.42l-7,12.13a.987.987,0,0,0,.27,1.29l12.15,9.2-.56.97a1,1,0,0,0,.37,1.37l3.46,2A1.094,1.094,0,0,0,18,41a1.153,1.153,0,0,0,.26-.03,1.056,1.056,0,0,0,.61-.47l.88-1.53A3.009,3.009,0,0,0,22,40h3v5a5,5,0,0,0,5,5h6a3.009,3.009,0,0,0,3-3V43a1,1,0,0,0-1-1H33V40H51a5,5,0,0,0,5,5h2a3.009,3.009,0,0,0,3-3V40a1,1,0,0,0-1-1H57V36h4a1,1,0,0,0,.61-1.79ZM19,36.27l-1.37,2.36-1.73-1,1.23-2.13-1.73-1-.16.29L14.2,34H19ZM20,32H15V29a3.009,3.009,0,0,1,3-3h6a.983.983,0,0,1,.73.33l-3.76,6.52A.981.981,0,0,0,20,32Zm5,6H22a1,1,0,0,1-1-1v-.2l4-6.92Zm.75-13.43A3,3,0,0,0,24,24H18a5,5,0,0,0-5,5v4c0,.04.02.07.02.11L3.99,26.27,10.1,15.68l13,5.48-.84,1.46,1.73,1,1.91-3.31,1.73,1ZM47,19.95a10.984,10.984,0,0,1,6.2,7.53l.02.05-3.08,1.32L47,26.5ZM49,30.5V34H43V30.5l3-2.25ZM31.12,26.34A11,11,0,0,1,37,19.97V26.5l-3.15,2.36-3.17-1.27ZM37,44v3a1,1,0,0,1-1,1H30a3.009,3.009,0,0,1-3-3V36h4v7a1,1,0,0,0,1,1ZM28.41,34l1.6-4.52L33,30.68V34ZM33,38V36h2.22l.5,2Zm8,0H37.78l-.5-2H41Zm0-4H35V30.5l3-2.25,3,2.25Zm-2-7.5V19.29A10.87,10.87,0,0,1,41.49,19H42.5a11.474,11.474,0,0,1,2.5.29V26.5l-3,2.25ZM46.22,38H43V36h3.72ZM51,38H48.28l.5-2H51Zm0-4V30.66l2.68-1.15L54.74,34Zm8,7v1a1,1,0,0,1-1,1H56a3.009,3.009,0,0,1-3-3V36h2v4a1,1,0,0,0,1,1Zm-2.21-7-.29-1.22L58.08,34Z"></path><rect x="9.942" y="20.724" width="2" height="5" transform="translate(-14.641 21.091) rotate(-60.005)"></rect><rect x="14.357" y="15.552" width="2" height="10.05" transform="translate(-9.715 26.111) rotate(-65.711)"></rect><rect x="7.86" y="24.37" width="2" height="5.13" transform="translate(-18.182 18.407) rotate(-54.289)"></rect></g></svg>