<svg xmlns="http://www.w3.org/2000/svg" viewBox="0 0 64 64" x="0px" y="0px"><g data-name="Washing Hands-Hygiene-Hand Sanitizer-Soap-Bubble"><circle cx="44" cy="14" r="3"></circle><circle cx="54" cy="23" r="2"></circle><circle cx="23" cy="22" r="2"></circle><path d="M38.04,46.93a4.887,4.887,0,0,0,2.02-.46l18.79-8.76a2.006,2.006,0,0,0,1.03-1.13,1.982,1.982,0,0,0-.07-1.53,1.947,1.947,0,0,0-1.13-1.03,1.983,1.983,0,0,0-1.53.06l-9.48,4.43a3.941,3.941,0,0,1-3.89,3.16c-.12,0-.24,0-.35-.01L32.47,40.7l.17-1.99,10.96.95a1.949,1.949,0,0,0,1.46-.46,1.982,1.982,0,0,0,.71-1.35,2.012,2.012,0,0,0-1.82-2.17L32.42,34.67a15,15,0,0,0-7.86,1.45l-7.05,3.43,6.87,9.82,2.76-1.29a11.022,11.022,0,0,1,4.45-1.03Z"></path><path d="M32.98,31a1.983,1.983,0,0,0-1.94,1.62c.52,0,1.03.01,1.55.06l11.53,1.01a3.956,3.956,0,0,1,2.72,1.41,3.826,3.826,0,0,1,.7,1.26l5.44-2.54a1.979,1.979,0,0,0-3.43-1.18,1.018,1.018,0,0,1-.93.31.969.969,0,0,1-.74-.63,2.058,2.058,0,0,0-1.04-1.13,1,1,0,0,1-.54-.65,1.02,1.02,0,0,1,.15-.83A2.906,2.906,0,0,0,47,28a3,3,0,0,0-5.82-1,.975.975,0,0,1-.8.66,1,1,0,0,1-.95-.41A3,3,0,0,0,34,29a2.739,2.739,0,0,0,.09.66,1.025,1.025,0,0,1,.02.67A.987.987,0,0,1,32.98,31Z"></path><polygon points="15.03 56.94 10.66 60 4.98 60 3 57.17 3 48.27 7 45.47 15.03 56.94"></polygon><rect x="11.936" y="39.758" width="7.998" height="16.004" transform="translate(-24.513 17.778) rotate(-35.001)"></rect></g></svg>