<svg xmlns="http://www.w3.org/2000/svg" viewBox="0 0 64 64" x="0px" y="0px"><g><path d="M61,14H15.92A7,7,0,0,0,2,15V45a7.008,7.008,0,0,0,7,7H34v7a3.009,3.009,0,0,0,3,3H59a3.009,3.009,0,0,0,3-3V15A1,1,0,0,0,61,14ZM4,15a5,5,0,0,1,10,0V40.11a6.979,6.979,0,0,0-10,0ZM34,50H9a5,5,0,1,1,5-5,1,1,0,0,0,1,1H34Zm26,9a1,1,0,0,1-1,1H37a1,1,0,0,1-1-1V25a1,1,0,0,1,1-1H59a1,1,0,0,1,1,1Zm0-36.82A3,3,0,0,0,59,22H37a3.009,3.009,0,0,0-3,3V44H16V16H60Z"></path><path d="M25,29H23a1,1,0,0,1-1-1H20a3,3,0,0,0,3,3v1h2V31a3,3,0,0,0,0-6H23a1,1,0,0,1,0-2h2a1,1,0,0,1,1,1h2a3,3,0,0,0-3-3V20H23v1a3,3,0,0,0,0,6h2a1,1,0,0,1,0,2Z"></path><path d="M56,38H40a2,2,0,0,0-2,2V56a2,2,0,0,0,2,2H56a2,2,0,0,0,2-2V40A2,2,0,0,0,56,38Zm0,6H52V40h4ZM46,50V46h4v4Zm4,2v4H46V52Zm-6-2H40V46h4Zm2-6V40h4v4Zm6,2h4v4H52Zm-8-6v4H40V40ZM40,52h4v4H40Zm12,4V52h4v4Z"></path><path d="M56,26H40a2,2,0,0,0-2,2v6a2,2,0,0,0,2,2H56a2,2,0,0,0,2-2V28A2,2,0,0,0,56,26Zm0,8H40V28H56Z"></path><rect x="51" y="30" width="2" height="2"></rect><rect x="47" y="30" width="2" height="2"></rect><rect x="43" y="30" width="2" height="2"></rect><path d="M59,2H30a.978.978,0,0,0-.41.09l-9,4a1,1,0,0,0,0,1.82l9,4A.978.978,0,0,0,30,12H59a3.009,3.009,0,0,0,3-3V5A3.009,3.009,0,0,0,59,2ZM25,7.68,23.46,7,25,6.32Zm4,1.78-2-.89V5.43l2-.89ZM50,10H31V8H50Zm0-4H31V4H50Zm4,4H52V4h2Zm6-1a1,1,0,0,1-1,1H56V4h3a1,1,0,0,1,1,1Z"></path><rect x="20" y="34" width="10" height="2"></rect><rect x="20" y="38" width="10" height="2"></rect></g></svg>