<svg xmlns="http://www.w3.org/2000/svg" viewBox="0 0 64 64" x="0px" y="0px"><g data-name="Presentaion business report"><path d="M51,24a1,1,0,0,0,1-1,.965.965,0,0,0-.287-.694A.976.976,0,0,0,51,22a1,1,0,0,0-1,1,.965.965,0,0,0,.287.694A.978.978,0,0,0,51,24Z"></path><rect x="23" y="58" width="18" height="2"></rect><rect x="4" y="46" width="56" height="2"></rect><rect x="30" y="50" width="4" height="6"></rect><rect x="4" y="8" width="56" height="2"></rect><rect x="30" y="4" width="4" height="2"></rect><path d="M19.877,32.485A.953.953,0,0,0,20,32a1,1,0,0,0-2,0,.986.986,0,0,0,.1.42A1.042,1.042,0,0,0,19.877,32.485Z"></path><path d="M43,32a1,1,0,0,0,1-1,.965.965,0,0,0-.287-.694A.976.976,0,0,0,43,30a.952.952,0,0,0-.693.288A.975.975,0,0,0,42,31,1,1,0,0,0,43,32Z"></path><path d="M26,37a1,1,0,0,0,1-1,.944.944,0,0,0-.229-.63A1,1,0,0,0,26,35a1.026,1.026,0,0,0-.877.515A.953.953,0,0,0,25,36,1,1,0,0,0,26,37Z"></path><path d="M6,44H58V12H6ZM32,14h6v2H32Zm-6,0h4v2H26ZM10,14h2V34.129l4.03-1.856c-.008-.091-.03-.181-.03-.273a3,3,0,1,1,5.933.521l2.127,1.221A3,3,0,0,1,26,33a2.97,2.97,0,0,1,1.516.431l7.671-6.384A3,3,0,1,1,41,26a2.963,2.963,0,0,1-.3,1.286l1.025,1.025a3.161,3.161,0,0,1,2.548,0L48.3,24.287A2.985,2.985,0,0,1,51,20a3.013,3.013,0,0,1,3,3,3,3,0,0,1-3,3,2.963,2.963,0,0,1-1.286-.3L45.7,29.713a3,3,0,1,1-5.4,0L39.287,28.7a2.9,2.9,0,0,1-2.8-.132l-7.671,6.384a3.026,3.026,0,1,1-5.746.526L20.94,34.258a2.941,2.941,0,0,1-4.078-.166L12,36.33V40H54v2H10Z"></path><path d="M38.694,26.712A.978.978,0,0,0,39,26a1,1,0,0,0-2,0,.939.939,0,0,0,.229.629A1.008,1.008,0,0,0,38.694,26.712Z"></path></g></svg>