<svg xmlns="http://www.w3.org/2000/svg" viewBox="0 0 64 64" x="0px" y="0px"><g><path d="M39,44H35a1,1,0,0,0-1,1v4a1,1,0,0,0,1,1h4a1,1,0,0,0,1-1V45A1,1,0,0,0,39,44Zm-1,4H36V46h2Z"></path><path d="M36,38a4,4,0,1,0-4,4A4,4,0,0,0,36,38Zm-4,2a2,2,0,1,1,2-2A2,2,0,0,1,32,40Z"></path><path d="M61.157,27.183l-15.58-11a1,1,0,0,0-1.154,0l-11.59,8.18-.256-.18a1,1,0,0,0-1.154,0l-.256.18-11.59-8.18a1,1,0,0,0-1.154,0l-15.581,11a2.793,2.793,0,0,0-.706,3.833,2.81,2.81,0,0,0,3.966.69L8,30.314V44a2,2,0,0,0,2,2H21v6a2,2,0,0,0,2,2H41a2,2,0,0,0,2-2V46H54a2,2,0,0,0,2-2V30.314l1.9,1.394a2.759,2.759,0,0,0,1.635.536,2.82,2.82,0,0,0,2.345-1.252,2.782,2.782,0,0,0-.723-3.809ZM47,36.813a.785.785,0,0,1-.314,1.416.8.8,0,0,1-.6-.14l-13.494-9.9a1,1,0,0,0-1.182,0l-13.494,9.9a.8.8,0,0,1-.6.14A.785.785,0,0,1,17,36.814l15-10.59ZM43,30a2,2,0,1,1,2,2A2,2,0,0,1,43,30Zm8,8v2H49V38.753A2.763,2.763,0,0,0,49.285,38ZM19,32a2,2,0,1,1,2-2A2,2,0,0,1,19,32ZM4.927,30.088a.8.8,0,0,1-.467.152A.812.812,0,0,1,3.8,29.9.793.793,0,0,1,4,28.817L19,18.224l10.433,7.364-1.273.9-8.568-6.293a1,1,0,0,0-1.184,0ZM10,28.846l9-6.606L26.437,27.7l-3.451,2.437c0-.047.014-.092.014-.139a4,4,0,1,0-5.2,3.8l-1.961,1.384a2.806,2.806,0,0,0-.769.819H13a1,1,0,0,0-1,1v7H10ZM14,44V38h.715a2.806,2.806,0,0,0,.417,1A2.762,2.762,0,0,0,18,40.18V44Zm6,0V39.04l1-.733V44Zm7,8V46h4v6Zm14,0H33V45a1,1,0,0,0-1-1H26a1,1,0,0,0-1,1v7H23V36.84l9-6.6,9,6.6V52Zm2-8V38.307l1,.733V44Zm11,0H46V40.182a2.523,2.523,0,0,0,1,.019V41a1,1,0,0,0,1,1h4a1,1,0,0,0,1-1V37a1,1,0,0,0-1-1H48.926a2.8,2.8,0,0,0-.77-.82L46.2,33.8A3.992,3.992,0,1,0,41,30c0,.047.012.091.014.138L37.563,27.7,45,22.24l9,6.606Zm6.212-14.111a.805.805,0,0,1-.532.342.783.783,0,0,1-.6-.137l-13.49-9.9a1,1,0,0,0-1.184,0l-8.567,6.292-1.273-.9L45,18.224,60,28.813a.784.784,0,0,1,.213,1.076Z"></path></g></svg>