<svg xmlns="http://www.w3.org/2000/svg" viewBox="0 0 64 64" x="0px" y="0px"><g><circle cx="23" cy="9" r="1"></circle><rect x="31" y="28" width="2" height="2"></rect><path d="M46,25V17a1,1,0,0,0-1-1H19a1,1,0,0,0-1,1v8a1,1,0,0,0,1,1H45A1,1,0,0,0,46,25ZM23,24a3,3,0,1,1,3-3A3,3,0,0,1,23,24Zm9-2H30V20h2Zm4,0H34V20h2Zm4,0H38V20h2Zm4,0H42V20h2Z"></path><circle cx="23" cy="21" r="1"></circle><path d="M45,4H19a1,1,0,0,0-1,1v8a1,1,0,0,0,1,1H45a1,1,0,0,0,1-1V5A1,1,0,0,0,45,4ZM23,12a3,3,0,1,1,3-3A3,3,0,0,1,23,12Zm9-2H30V8h2Zm4,0H34V8h2Zm4,0H38V8h2Zm4,0H42V8h2Z"></path><rect x="29" y="32" width="6" height="2"></rect><path d="M49,40H47V35a1,1,0,0,0-1-1H37V32h9a3,3,0,0,1,3,3Z"></path><path d="M17,40H15V35a3,3,0,0,1,3-3h9v2H18a1,1,0,0,0-1,1Z"></path><path d="M24,48H21a2,2,0,0,1-2-2V42H8V60H24Zm-3,8H11V54H21Zm0-4H11V50H21Z"></path><polygon points="21 46 23.586 46 21 43.414 21 46"></polygon><path d="M56,48H53a2,2,0,0,1-2-2V42H40V60H56Zm-3,8H43V54H53Zm0-4H43V50H53Z"></path><polygon points="53 46 55.586 46 53 43.414 53 46"></polygon></g></svg>