<svg xmlns="http://www.w3.org/2000/svg" viewBox="0 0 64 64" x="0px" y="0px"><g><polygon points="37.279 24 37.613 23 34.387 23 34.721 24 37.279 24"></polygon><path d="M36,32c.748,0,2-2.5,2-4a2,2,0,0,0-4,0C34,29.5,35.252,32,36,32Z"></path><circle cx="36" cy="9" r="1"></circle><path d="M41.618,23h2.939L42.55,17.649a.993.993,0,0,0-.55-.56V22a.982.982,0,0,1-.469.826Z"></path><path d="M40,9.185a2.951,2.951,0,0,0-.511-1.676C37.59,4.733,36.376,4,36,4s-1.59.733-3.488,3.508A2.95,2.95,0,0,0,32,9.185V21h3V15h2v6h3ZM36,12a3,3,0,1,1,3-3A3,3,0,0,1,36,12Z"></path><path d="M29.45,17.648,27.443,23h2.939l.087-.174A.982.982,0,0,1,30,22V17.089A.994.994,0,0,0,29.45,17.648Z"></path><path d="M58.92,25.11c-.02-.36-.06-.73-.11-1.11H46.28a.638.638,0,0,1-.08.14,1.993,1.993,0,0,1-1.64.86H41a.988.988,0,0,1-.89-.55L39.88,24h-.49l-.44,1.32A3.989,3.989,0,0,1,40,28c0,2.06-1.56,6-4,6s-4-3.94-4-6a3.989,3.989,0,0,1,1.05-2.68L32.61,24h-.49l-.23.45A.988.988,0,0,1,31,25H27.44a1.993,1.993,0,0,1-1.64-.86.638.638,0,0,1-.08-.14H13.2a22.673,22.673,0,0,0-.2,3,.971.971,0,0,1-.26.67L4.26,37H10a1,1,0,0,1,1,1v7a5,5,0,0,0,5,5h8a2.006,2.006,0,0,1,2,2v8H52V46.19a24.761,24.761,0,0,1-3.37,2.39l-1.01-1.73a22.963,22.963,0,0,0,4.67-3.61v-.01A23.043,23.043,0,0,0,58.92,25.11ZM30,35a1,1,0,0,0-2,0c0,.06.01.12.01.17a1,1,0,0,1-1.5.97A1,1,0,1,0,26,38v2a3,3,0,1,1,.17-6A3,3,0,0,1,32,35Zm16,5V38a1,1,0,1,0-.51-1.86,1,1,0,0,1-1.5-.97c0-.05.01-.11.01-.17a1,1,0,0,0-2,0H40a3,3,0,0,1,5.83-1A3,3,0,1,1,46,40Z"></path><path d="M48,7.414V13h2V7.414l1.293,1.293,1.414-1.414-3-3a1,1,0,0,0-1.414,0l-3,3,1.414,1.414Z"></path><rect x="48" y="15" width="2" height="2"></rect><path d="M53.707,14.707,55,13.414V19h2V13.414l1.293,1.293,1.414-1.414-3-3a1,1,0,0,0-1.414,0l-3,3Z"></path><path d="M22,7.414V13h2V7.414l1.293,1.293,1.414-1.414-3-3a1,1,0,0,0-1.414,0l-3,3,1.414,1.414Z"></path><rect x="22" y="15" width="2" height="2"></rect><path d="M15,13.414V19h2V13.414l1.293,1.293,1.414-1.414-3-3a1,1,0,0,0-1.414,0l-3,3,1.414,1.414Z"></path></g></svg>