<svg xmlns="http://www.w3.org/2000/svg" viewBox="0 0 64 64" x="0px" y="0px"><g data-name="Join Business"><path d="M47.617,48.2l-1.058-1.058.708-.707c0-.006.006-.013.011-.018l2.107-2.107.707.708a1,1,0,0,0,1.414,0l5.657-5.657a1,1,0,0,0,0-1.414L44.435,25.222a1.029,1.029,0,0,0-1.414,0l-5.657,5.657a1,1,0,0,0,0,1.414l.707.707-1.91,1.91-1.532.305-2.922-2.922A1,1,0,0,0,31,32H27.172l-1.829-1.828a1,1,0,0,0,0-1.414L19.687,23.1a1,1,0,0,0-1.415,0L6.958,34.414a1,1,0,0,0,0,1.414l5.657,5.657a1,1,0,0,0,1.414,0l2.121,2.121,4.372,4.372a2.977,2.977,0,0,0,2.546,4.271A2.952,2.952,0,0,0,25.9,55.076,2.953,2.953,0,0,0,28.724,57.9a2.994,2.994,0,0,0,5.1,1.964l1.063,1.063A2.989,2.989,0,0,0,40,58.964a2.95,2.95,0,0,0,2.826-2.827,2.957,2.957,0,0,0,2.83-2.829,2.987,2.987,0,0,0,1.965-5.1Zm-3.889-20.86L55.042,38.657,50.8,42.9,39.485,31.586ZM47.971,42.9l-1.414,1.414-8.485-8.485,1.413-1.414Zm-9.546-1.06a1,1,0,0,1,0,1.414,1.021,1.021,0,0,1-1.414,0l-4.243-4.242a1,1,0,0,0-1.414,0,3,3,0,0,1-4.244,0L25.7,40.425a5,5,0,0,0,1.232.886l-3,3v0l-2.122,2.122L18.272,42.9l8.9-8.9h3.414Zm-25.1-2.475L9.079,35.121l9.9-9.9,4.243,4.243Zm10.607-7.778L25.344,33l-8.487,8.485-1.414-1.414ZM31.7,58.74a.984.984,0,0,1-.7-.287,1,1,0,0,1-.011-1.4L31,57.042l2.055-2.055.771-.769v0l0,0L32.414,52.8l-.773.773-2.063,2.055-.009.011a1,1,0,0,1-1.4-1.425L31,51.385l-1.414-1.414L26.758,52.8a1,1,0,0,1-1.415-1.414l2.829-2.828-1.414-1.414-2.83,2.828a1.022,1.022,0,0,1-1.413,0,1,1,0,0,1,0-1.414l2.121-2.122,0,0L29.2,41.87a4.974,4.974,0,0,0,2.794-.809L35.6,44.667a3.073,3.073,0,0,0,4.243,0,3,3,0,0,0,0-4.242l-3.51-3.51h0l8.816,8.815-.3.3a2.966,2.966,0,0,0-3.755,2.73,2.955,2.955,0,0,0-2.829,2.855,2.9,2.9,0,0,0-2.826,2.8,2.965,2.965,0,0,0-2.733,3.746l-.3.3A.989.989,0,0,1,31.7,58.74Zm6.018.777a1.023,1.023,0,0,1-1.414,0L34.889,58.1A1,1,0,0,1,36.3,56.688L37.718,58.1a.987.987,0,0,1,.293.706A1,1,0,0,1,37.718,59.517Zm2.828-2.829a1,1,0,0,1-1.414,0l-1.414-1.414a1,1,0,0,1,0-1.415.987.987,0,0,1,.706-.293,1,1,0,0,1,.707.293l1.414,1.414A1,1,0,0,1,40.546,56.688Zm2.827-2.829a1.022,1.022,0,0,1-1.413,0l-1.414-1.414a1,1,0,0,1,1.414-1.414l1.414,1.414a1,1,0,0,1,.293.707A.988.988,0,0,1,43.373,53.859Zm2.83-2.828a1,1,0,0,1-1.415,0l-1.414-1.414A1,1,0,0,1,44.789,48.2L46.2,49.617A1,1,0,0,1,46.2,51.031Z"></path><path d="M61,8H42V3a1,1,0,0,0-1-1H23a1,1,0,0,0-1,1V8H3A1,1,0,0,0,2,9V19a1,1,0,0,0,.5.868l1.5.855V48a3,3,0,0,0,3,3H18V49H7a1,1,0,0,1-1-1V21.866l3.5,2A1,1,0,0,0,10,24h6V22H10.266L4,18.42V10H60v8.42L53.734,22H22v2H54a1,1,0,0,0,.5-.132l3.5-2V48a1,1,0,0,1-1,1H50v2h7a3,3,0,0,0,3-3V20.723l1.5-.855A1,1,0,0,0,62,19V9A1,1,0,0,0,61,8ZM24,4H40V8H24Z"></path><path d="M8,53H6v6a1,1,0,0,0,1,1H17V58H8Z"></path><rect x="19" y="58" width="2" height="2"></rect><rect x="23" y="58" width="2" height="2"></rect><path d="M57,58H48v2H58a1,1,0,0,0,1-1V53H57Z"></path><rect x="44" y="58" width="2" height="2"></rect></g></svg>