<svg xmlns="http://www.w3.org/2000/svg" viewBox="0 0 64 64" x="0px" y="0px"><g data-name="Work Document"><path d="M34.492,39.376a1.986,1.986,0,0,0-.247,2.81L40,49.05V42.834l-2.695-3.211A2.051,2.051,0,0,0,34.492,39.376Z"></path><path d="M44,14a3.009,3.009,0,0,1-3-3V4H13a1,1,0,0,0-1,1V18H37a.937.937,0,0,1,.37.07l5,2a1,1,0,0,1,0,1.86l-5,2A.937.937,0,0,1,37,24H12V55a1,1,0,0,0,1,1H43v-.42a5.01,5.01,0,0,1-2.76-3.14h-.01l-7.52-8.97a4,4,0,0,1,6.13-5.13L40,39.72V28a4,4,0,0,1,8,0v8h2V14ZM16,8h2v2H16Zm12,6H16V12H28Zm0-4H20V8h8ZM24,47H16V45h8Zm6-6H16V39H30Zm6-6H16V33H36Zm0-6H16V27H36Z"></path><path d="M5,22H6V20H5a1,1,0,0,0,0,2Z"></path><polygon points="37 20.077 37 21.923 39.308 21 37 20.077"></polygon><path d="M44,12h4.731L43,5.615V11A1,1,0,0,0,44,12Z"></path><path d="M60,51V43a4.977,4.977,0,0,0-2-3.974V42H56V38.1a5,5,0,0,0-1-.1H53v3H51V38H48v3H46V28a2,2,0,0,0-4,0V51a3,3,0,0,0,3,3H57A3,3,0,0,0,60,51Z"></path><rect x="8" y="20" width="27" height="2"></rect><rect x="45" y="56" width="12" height="4"></rect></g></svg>