<svg xmlns="http://www.w3.org/2000/svg" viewBox="0 0 64 64" x="0px" y="0px"><title>Promotion</title><g><path d="M62,24a7.9,7.9,0,0,0-4-6.9V2H52V3.457l-20,13V17H30V12H8v5H2V29H8v5h3.163l5,28H25V44h4V34h1V31h2v.566l20,12V46h6V30.9A7.9,7.9,0,0,0,62,24ZM4,27V19H8v8ZM23,60H17.837l-.357-2H20V56H17.123l-.714-4H19V50H16.052l-.715-4H18V44H14.98L13.194,34H23Zm4-18H25V34h2Zm1-10H10V14H28Zm2-3V19h2V29Zm4,1.434V17.542l18-11.7V41.234ZM56,44H54V4h2Zm2-15.522V19.522a6.013,6.013,0,0,1,0,8.956Z"></path><rect x="12" y="15" width="2" height="2"></rect><rect x="16" y="15" width="9" height="2"></rect></g></svg>