<svg xmlns="http://www.w3.org/2000/svg" viewBox="0 0 64 64" x="0px" y="0px"><title>Wheel</title><g><path d="M32,11A21,21,0,1,0,53,32,21.024,21.024,0,0,0,32,11Zm0,40A19,19,0,1,1,51,32,19.021,19.021,0,0,1,32,51Z"></path><path d="M42.2,17.179A17.648,17.648,0,0,0,35.268,14.3a18.23,18.23,0,0,0-6.538,0,17.63,17.63,0,0,0-6.922,2.876A17.444,17.444,0,0,0,17.179,21.8,17.648,17.648,0,0,0,14.3,28.732a18.169,18.169,0,0,0,0,6.538,17.63,17.63,0,0,0,2.876,6.922A17.444,17.444,0,0,0,21.8,46.821,17.648,17.648,0,0,0,28.732,49.7a18.169,18.169,0,0,0,6.538,0,17.63,17.63,0,0,0,6.922-2.876A17.444,17.444,0,0,0,46.821,42.2,17.648,17.648,0,0,0,49.7,35.268a18.169,18.169,0,0,0,0-6.538,17.63,17.63,0,0,0-2.876-6.922A17.444,17.444,0,0,0,42.2,17.179Zm5.232,10.636-4.547-.329,2.981-3.436A15.612,15.612,0,0,1,47.432,27.815ZM45.865,39.949l-2.98-3.435,4.548-.329A15.588,15.588,0,0,1,45.865,39.949ZM39.949,18.135l-3.435,2.98-.329-4.548A15.588,15.588,0,0,1,39.949,18.135ZM27.815,16.568l-.329,4.547L24.05,18.134A15.612,15.612,0,0,1,27.815,16.568ZM18.134,39.95a15.612,15.612,0,0,1-1.566-3.765l4.547.329Zm0-15.9,2.98,3.435-4.548.329A15.6,15.6,0,0,1,18.135,24.051Zm5.916,21.814,3.435-2.98.329,4.548A15.6,15.6,0,0,1,24.051,45.865Zm12.134,1.567.329-4.547,3.436,2.981A15.612,15.612,0,0,1,36.185,47.432Zm5.491-2.716-5.361-4.651a1,1,0,0,0-1.652.683l-.512,7.091a16.221,16.221,0,0,1-4.3,0l-.512-7.091a1,1,0,0,0-1.652-.683l-5.361,4.651a15.442,15.442,0,0,1-3.04-3.04l4.651-5.361a1,1,0,0,0-.683-1.652l-7.091-.512a14.449,14.449,0,0,1,0-4.3l7.091-.512a1,1,0,0,0,.683-1.652l-4.651-5.361a15.442,15.442,0,0,1,3.04-3.04l5.361,4.651a1,1,0,0,0,1.652-.683l.512-7.091a14.449,14.449,0,0,1,4.3,0l.512,7.091a1,1,0,0,0,1.652.683l5.361-4.651a15.442,15.442,0,0,1,3.04,3.04l-4.651,5.361a1,1,0,0,0,.683,1.652l7.091.512a14.449,14.449,0,0,1,0,4.3l-7.091.512a1,1,0,0,0-.683,1.652l4.651,5.361A15.442,15.442,0,0,1,41.676,44.716Z"></path><path d="M32,27a5,5,0,1,0,5,5A5.006,5.006,0,0,0,32,27Zm0,8a3,3,0,1,1,3-3A3,3,0,0,1,32,35Z"></path><path d="M60.978,39.765v-.01a29.934,29.934,0,0,0,0-15.51v-.01l-.006-.01A29.812,29.812,0,0,0,58,17.069c-.011-.022-.011-.047-.024-.069s-.033-.033-.047-.054a30.19,30.19,0,0,0-4.677-6.094c-.017-.02-.024-.046-.043-.065s-.045-.026-.065-.043a30.162,30.162,0,0,0-6.094-4.677c-.02-.014-.032-.035-.054-.047s-.047-.013-.069-.024a29.812,29.812,0,0,0-7.156-2.968l-.01-.006h-.01a29.934,29.934,0,0,0-15.51,0h-.01l-.01.006A29.812,29.812,0,0,0,17.069,6c-.022.011-.047.011-.069.024s-.034.033-.054.047a30.162,30.162,0,0,0-6.094,4.677c-.02.017-.046.024-.065.043s-.026.045-.043.065a30.162,30.162,0,0,0-4.677,6.094c-.014.02-.035.032-.047.054s-.013.047-.024.069a29.812,29.812,0,0,0-2.968,7.156l-.006.01v.01a29.934,29.934,0,0,0,0,15.51v.01l.006.013A29.831,29.831,0,0,0,6,46.931c.011.022.011.047.024.069a1.034,1.034,0,0,0,.064.084,30.188,30.188,0,0,0,4.66,6.064c.017.02.024.046.043.065s.045.026.065.043a30.162,30.162,0,0,0,6.094,4.677c.02.014.032.035.054.047a.979.979,0,0,0,.1.042,29.787,29.787,0,0,0,7.124,2.95l.01.006h.015a29.924,29.924,0,0,0,15.5,0h.015l.01-.006a29.787,29.787,0,0,0,7.124-2.95.979.979,0,0,0,.1-.042c.022-.012.034-.033.054-.047a30.162,30.162,0,0,0,6.094-4.677c.02-.017.046-.024.065-.043s.026-.045.043-.065a30.188,30.188,0,0,0,4.66-6.064A1.034,1.034,0,0,0,57.98,47c.013-.022.013-.047.024-.069a29.831,29.831,0,0,0,2.968-7.153Zm-3.157.189.949.254a27.819,27.819,0,0,1-2.044,4.913l-.843-.487a1,1,0,1,0-1,1.732l.838.484a28.157,28.157,0,0,1-3.241,4.216l-.681-.681A1,1,0,0,0,50.385,51.8l.681.681a28.157,28.157,0,0,1-4.216,3.241l-.484-.838a1,1,0,1,0-1.732,1l.487.843a27.819,27.819,0,0,1-4.913,2.044l-.254-.949a1,1,0,0,0-1.932.518l.253.943A27.936,27.936,0,0,1,33,59.975V59a1,1,0,0,0-2,0v.975a27.936,27.936,0,0,1-5.275-.693l.253-.943a1,1,0,1,0-1.932-.518l-.254.949a27.819,27.819,0,0,1-4.913-2.044l.487-.843a1,1,0,0,0-1.732-1l-.484.838a28.157,28.157,0,0,1-4.216-3.241l.681-.681A1,1,0,1,0,12.2,50.385l-.681.681A28.157,28.157,0,0,1,8.279,46.85l.838-.484a1,1,0,1,0-1-1.732l-.843.487A27.819,27.819,0,0,1,5.23,40.208l.949-.254a1,1,0,1,0-.518-1.932l-.943.253A27.936,27.936,0,0,1,4.025,33H5a1,1,0,0,0,0-2H4.025a27.936,27.936,0,0,1,.693-5.275l.943.253a1.015,1.015,0,0,0,.26.034,1,1,0,0,0,.258-1.966l-.949-.254a27.819,27.819,0,0,1,2.044-4.913l.843.487a1,1,0,1,0,1-1.732l-.838-.484a28.157,28.157,0,0,1,3.241-4.216l.681.681A1,1,0,1,0,13.615,12.2l-.681-.681A28.157,28.157,0,0,1,17.15,8.279l.484.838a1,1,0,1,0,1.732-1l-.487-.843A27.819,27.819,0,0,1,23.792,5.23l.254.949a1,1,0,0,0,.965.741,1.015,1.015,0,0,0,.26-.034,1,1,0,0,0,.707-1.225l-.253-.943A27.936,27.936,0,0,1,31,4.025V5a1,1,0,0,0,2,0V4.025a27.936,27.936,0,0,1,5.275.693l-.253.943a1,1,0,0,0,.707,1.225,1.015,1.015,0,0,0,.26.034,1,1,0,0,0,.965-.741l.254-.949a27.819,27.819,0,0,1,4.913,2.044l-.487.843a1,1,0,1,0,1.732,1l.484-.838a28.157,28.157,0,0,1,4.216,3.241l-.681.681A1,1,0,1,0,51.8,13.615l.681-.681a28.157,28.157,0,0,1,3.241,4.216l-.838.484a1,1,0,1,0,1,1.732l.843-.487a27.819,27.819,0,0,1,2.044,4.913l-.949.254a1,1,0,0,0,.258,1.966,1.015,1.015,0,0,0,.26-.034l.943-.253A27.936,27.936,0,0,1,59.975,31H59a1,1,0,0,0,0,2h.975a27.936,27.936,0,0,1-.693,5.275l-.943-.253a1,1,0,1,0-.518,1.932Z"></path></g></svg>