<svg xmlns="http://www.w3.org/2000/svg" viewBox="0 0 64 64" x="0px" y="0px"><g><path d="M46.68,37.29,37,34.26V30.79A11.043,11.043,0,0,0,42.81,23H43a4,4,0,0,0,0-8V9a7.008,7.008,0,0,0-7-7H28a7.008,7.008,0,0,0-7,7v6a4,4,0,1,0,0,8h.19A11.043,11.043,0,0,0,27,30.79v3.47l-9.68,3.03A8.959,8.959,0,0,0,11,45.88V61a1,1,0,0,0,1,1H52a1,1,0,0,0,1-1V45.88A8.959,8.959,0,0,0,46.68,37.29ZM43,17a2.006,2.006,0,0,1,2,2,2.015,2.015,0,0,1-2,2ZM21,21a2.015,2.015,0,0,1-2-2,2.006,2.006,0,0,1,2-2Zm20-2a1,1,0,0,1-1,1H34a1,1,0,0,1-1-1V17a1,1,0,0,1,1-1h7ZM23,9a5,5,0,0,1,5-5h8a5,5,0,0,1,5,5v.03A4.924,4.924,0,0,0,38,8H26a4.924,4.924,0,0,0-3,1.03Zm0,4a3.009,3.009,0,0,1,3-3H38a3.009,3.009,0,0,1,3,3v1H34a2.974,2.974,0,0,0-2,.78A2.974,2.974,0,0,0,30,14H23Zm0,3h7a1,1,0,0,1,1,1v2a1,1,0,0,1-1,1H24a1,1,0,0,1-1-1Zm.04,5.83A3.024,3.024,0,0,0,24,22h6a2.974,2.974,0,0,0,2-.78A2.974,2.974,0,0,0,34,22h6a3.024,3.024,0,0,0,.96-.17,9,9,0,0,1-17.92,0ZM32,35.88l-3-1.5V31.57a10.68,10.68,0,0,0,6,0v2.81Zm1.67,3.55L32.38,42h-.76l-1.29-2.57L32,38.23ZM28.1,60H21V45H19V60H13V45.88a6.964,6.964,0,0,1,4.91-6.68L24,37.3V42a1.008,1.008,0,0,0,.54.89A1.072,1.072,0,0,0,25,43a.959.959,0,0,0,.58-.19l3.1-2.21,1.29,2.58ZM26,40.06V36.67l1.91-.6,2.16,1.08ZM30.12,60,31.9,44h.2l1.78,16Zm5.97-23.93,1.91.6v3.39l-4.07-2.91ZM51,60H45V45H43V60H35.9L34.03,43.18l1.29-2.58,3.1,2.21A.959.959,0,0,0,39,43a1.072,1.072,0,0,0,.46-.11A1.008,1.008,0,0,0,40,42V37.3l6.09,1.9A6.964,6.964,0,0,1,51,45.88Z"></path><path d="M36.33,24.5l-1.73-1a3,3,0,0,1-5.2,0l-1.73,1a5,5,0,0,0,8.66,0Z"></path><rect x="36" y="17" width="2" height="2" rx="1"></rect><rect x="26" y="17" width="2" height="2" rx="1"></rect></g></svg>