<svg xmlns="http://www.w3.org/2000/svg" viewBox="0 0 64 64" x="0px" y="0px"><g data-name="Time Management-Keep-Robotic Arm-Industrial-Clock"><circle cx="32" cy="18" r="2"></circle><path d="M49.12,50h2.09l4.73-19.87L46.4,12H42V24.55l8.66,7.7a.98.98,0,0,1,.33.86Z"></path><path d="M24,26H40V10H24Zm8-12a4,4,0,1,1-4,4A4,4,0,0,1,32,14Z"></path><path d="M22,24.55V12H17.6L8.06,30.13,12.79,50h2.09L13.01,33.11a.98.98,0,0,1,.33-.86Z"></path><rect x="29" y="4" width="6" height="4"></rect><path d="M39,46h1.941a8.956,8.956,0,0,0-1.916-4.611l-1.368,1.368-1.414-1.414,1.368-1.368A8.956,8.956,0,0,0,33,38.059V40H31V38.059a8.956,8.956,0,0,0-4.611,1.916l1.368,1.368-1.414,1.414-1.368-1.368A8.956,8.956,0,0,0,23.059,46H25v2H23.059a8.956,8.956,0,0,0,1.916,4.611l1.368-1.368,1.414,1.414-1.368,1.368A8.956,8.956,0,0,0,31,55.941V54h2v1.941a8.956,8.956,0,0,0,4.611-1.916l-1.368-1.368,1.414-1.414,1.368,1.368A8.956,8.956,0,0,0,40.941,48H39Zm-6,1a1,1,0,0,1-.293.707l-2,2-1.414-1.414L31,46.586V42h2Z"></path><path d="M32,34A13,13,0,1,0,45,47,13.012,13.012,0,0,0,32,34Zm0,24A11,11,0,1,1,43,47,11.013,11.013,0,0,1,32,58Z"></path></g></svg>