<svg xmlns="http://www.w3.org/2000/svg" viewBox="0 0 64 64" x="0px" y="0px"><g><path d="M56,38H40a2,2,0,0,0-2,2V56a2,2,0,0,0,2,2H56a2,2,0,0,0,2-2V40A2,2,0,0,0,56,38Zm0,6H52V40h4ZM46,50V46h4v4Zm4,2v4H46V52Zm-6-2H40V46h4Zm2-6V40h4v4Zm6,2h4v4H52Zm-8-6v4H40V40ZM40,52h4v4H40Zm12,4V52h4v4Z"></path><path d="M59,22H51.05l-5.91-.59a18.535,18.535,0,0,0-1.36-3.29l3.79-4.63a1,1,0,0,0-.06-1.34L41.85,6.49a1,1,0,0,0-1.34-.06l-4.63,3.79a18.535,18.535,0,0,0-3.29-1.36L32,2.9A1.015,1.015,0,0,0,31,2H23a1.015,1.015,0,0,0-1,.9l-.59,5.96a18.535,18.535,0,0,0-3.29,1.36L13.49,6.43a1,1,0,0,0-1.34.06L6.49,12.15a1,1,0,0,0-.06,1.34l3.79,4.63a18.535,18.535,0,0,0-1.36,3.29L2.9,22A1.015,1.015,0,0,0,2,23v8a1.015,1.015,0,0,0,.9,1l5.96.59a18.535,18.535,0,0,0,1.36,3.29L6.43,40.51a1,1,0,0,0,.06,1.34l5.66,5.66a1,1,0,0,0,1.34.06l4.63-3.79a18.535,18.535,0,0,0,3.29,1.36L22,51.1a1.015,1.015,0,0,0,1,.9h8a1.015,1.015,0,0,0,1-.9l.59-5.96c.48-.14.95-.31,1.41-.49V59a3.009,3.009,0,0,0,3,3H59a3.009,3.009,0,0,0,3-3V25A3.009,3.009,0,0,0,59,22ZM34,25v7.63A8.993,8.993,0,1,1,27,18a8.933,8.933,0,0,1,7.94,4.83A2.988,2.988,0,0,0,34,25Zm-7-9a11,11,0,1,0,7,19.47v6.99a17.075,17.075,0,0,1-2.6.94,1,1,0,0,0-.73.87L30.09,50H23.91l-.58-5.73a1,1,0,0,0-.73-.87,16.492,16.492,0,0,1-4.09-1.69,1,1,0,0,0-1.13.1l-4.45,3.64L8.55,41.07l3.64-4.45a1,1,0,0,0,.1-1.13A16.492,16.492,0,0,1,10.6,31.4a1,1,0,0,0-.87-.73L4,30.09V23.91l5.73-.58a1,1,0,0,0,.87-.73,16.492,16.492,0,0,1,1.69-4.09,1,1,0,0,0-.1-1.13L8.55,12.93l4.38-4.38,4.45,3.64a.981.981,0,0,0,1.13.1A16.492,16.492,0,0,1,22.6,10.6a1,1,0,0,0,.73-.87L23.91,4h6.18l.58,5.73a1,1,0,0,0,.73.87,16.492,16.492,0,0,1,4.09,1.69,1,1,0,0,0,1.13-.1l4.45-3.64,4.38,4.38-3.64,4.45a1,1,0,0,0-.1,1.13A16.37,16.37,0,0,1,43.22,22H37c-.07,0-.13.02-.19.02A10.967,10.967,0,0,0,27,16ZM60,59a1,1,0,0,1-1,1H37a1,1,0,0,1-1-1V25a1,1,0,0,1,1-1H59a1,1,0,0,1,1,1Z"></path><path d="M56,26H40a2,2,0,0,0-2,2v6a2,2,0,0,0,2,2H56a2,2,0,0,0,2-2V28A2,2,0,0,0,56,26Zm0,8H40V28H56Z"></path><rect x="51" y="30" width="2" height="2"></rect><rect x="47" y="30" width="2" height="2"></rect><rect x="43" y="30" width="2" height="2"></rect><rect x="26" y="8" width="2" height="4"></rect><rect x="13.979" y="12.98" width="2" height="4" transform="translate(-6.205 14.981) rotate(-45.005)"></rect><rect x="8" y="26" width="4" height="2"></rect><rect x="12.979" y="38.021" width="4" height="2" transform="translate(-23.204 22.021) rotate(-45)"></rect><rect x="26" y="42" width="2" height="4"></rect><rect x="37.021" y="13.98" width="4" height="2" transform="translate(0.837 31.979) rotate(-45)"></rect></g></svg>