<svg xmlns="http://www.w3.org/2000/svg" viewBox="0 0 64 64" x="0px" y="0px"><g data-name="Working Desk-Working-Book-Study-Computer"><path d="M10,18v4a2.006,2.006,0,0,1-2,2H6a2.006,2.006,0,0,1-2-2V18Z"></path><rect x="52" y="14" width="2" height="10"></rect><rect x="4" y="26" width="56" height="2"></rect><rect x="56" y="14" width="2" height="10"></rect><rect x="48" y="14" width="2" height="10"></rect><path d="M37,4H17a1,1,0,0,0-1,1v9H38V5A1,1,0,0,0,37,4Z"></path><path d="M57,38H45v6H57Zm-4,4H49V40h4Z"></path><rect x="25" y="20" width="4" height="4"></rect><path d="M38,17V16H16v1a1,1,0,0,0,1,1H37A1,1,0,0,0,38,17Z"></path><rect x="7" y="30" width="2" height="26"></rect><path d="M57,30H45v6H57Zm-4,4H49V32h4Z"></path><path d="M45,56H57V46H45Zm4-8h4v2H49Z"></path><path d="M43,36V30H11v6ZM24,32h6v2H24Z"></path><rect x="2" y="56" width="60" height="2"></rect><path d="M6.832,13.555A5.744,5.744,0,0,0,8,10H6a3.78,3.78,0,0,1-.832,2.445A5.744,5.744,0,0,0,4,16H6A3.78,3.78,0,0,1,6.832,13.555Z"></path><path d="M10,16a3.78,3.78,0,0,1,.832-2.445A5.744,5.744,0,0,0,12,10H10a3.78,3.78,0,0,1-.832,2.445A5.744,5.744,0,0,0,8,16Z"></path></g></svg>