<svg xmlns="http://www.w3.org/2000/svg" viewBox="0 0 64 64" x="0px" y="0px"><g><path d="M62.13,48.97,49.73,24.81l1.65-1.43a30.939,30.939,0,0,0,6.99-8.73l.58-1.07A5.976,5.976,0,0,0,57.9,6.49l-.39-.39a6.052,6.052,0,0,0-7.09-1.05l-1.07.58a30.939,30.939,0,0,0-8.73,6.99l-1.43,1.65L15.03,1.87a1.017,1.017,0,0,0-1.17.18L8.91,7a1.03,1.03,0,0,0-.29.78,1,1,0,0,0,.4.73l3.49,2.61-1.59,2.4a1,1,0,0,0,.12,1.26l2.82,2.83a1.007,1.007,0,0,0,.71.29.991.991,0,0,0,.55-.17l3.28-2.18,2.28,1.7L19.4,19.17a1.013,1.013,0,0,0,.12,1.27l2.83,2.83a1.024,1.024,0,0,0,.71.29,1.048,1.048,0,0,0,.56-.17l2.77-1.85,3.95,2.95L16.32,40.66,5.63,37.85a1,1,0,0,0-.96.26L1.84,40.94a1.015,1.015,0,0,0-.29.79,1,1,0,0,0,.42.73l7.9,5.64-.59.68a4.022,4.022,0,0,0,.2,5.45l.29.29a4.015,4.015,0,0,0,5.45.2l.68-.59,5.64,7.9a1,1,0,0,0,.73.42h.08a1.007,1.007,0,0,0,.71-.29l2.83-2.83a1,1,0,0,0,.26-.96L23.34,47.68,39.51,33.66l2.95,3.95-1.85,2.77a1.013,1.013,0,0,0,.12,1.27l2.83,2.83a1.024,1.024,0,0,0,.71.29,1.048,1.048,0,0,0,.56-.17l1.92-1.28,1.7,2.28-2.18,3.28a1,1,0,0,0,.12,1.26l2.83,2.82a1.024,1.024,0,0,0,.71.29.939.939,0,0,0,.55-.17l2.4-1.59,2.61,3.49a1,1,0,0,0,.73.4h.07a1.007,1.007,0,0,0,.71-.29l4.95-4.95A1.017,1.017,0,0,0,62.13,48.97ZM14.7,15.61l-1.67-1.67,1.08-1.61,2.6,1.94Zm8.49,5.66L21.52,19.6l.76-1.14,2.42,1.8ZM11.14,7.6l3.62-3.62L37.85,15.83l-6.2,7.15ZM4.09,41.52l1.59-1.59,9.18,2.42-3.67,4.24Zm19.98,16.8-1.59,1.59-5.07-7.1,4.24-3.67ZM13.91,53.21a2.017,2.017,0,0,1-2.73-.1l-.29-.29a2.017,2.017,0,0,1-.1-2.73L42.13,13.93A29.1,29.1,0,0,1,50.3,7.39l1.07-.57a3.962,3.962,0,0,1,1.89-.48A4.012,4.012,0,0,1,56.1,7.51l.39.39a3.971,3.971,0,0,1,.69,4.73l-.57,1.07a29.1,29.1,0,0,1-6.54,8.17ZM44.4,42.48l-1.67-1.67,1.01-1.51,1.81,2.42Zm5.66,8.49L48.39,49.3l1.34-2.01,1.95,2.6Zm6.34,1.89L41.02,32.35l7.15-6.2L60.02,49.24Z"></path><rect x="7.624" y="18.021" width="4" height="2" transform="translate(-10.631 12.376) rotate(-45)"></rect><rect x="5.088" y="21.557" width="2" height="2" transform="translate(-14.167 10.912) rotate(-45)"></rect><rect x="16.109" y="23.678" width="4" height="2" transform="translate(-12.145 20.03) rotate(-44.995)"></rect><rect x="13.574" y="27.213" width="2" height="2" transform="translate(-15.683 18.574) rotate(-45.01)"></rect><rect x="42.98" y="53.376" width="4" height="2" transform="translate(-25.276 47.732) rotate(-45)"></rect><rect x="40.443" y="56.912" width="2" height="2" transform="translate(-28.811 46.267) rotate(-45)"></rect><rect x="37.322" y="44.891" width="4" height="2" transform="translate(-20.933 41.251) rotate(-45.005)"></rect><rect x="34.787" y="48.426" width="2" height="2" transform="translate(-24.468 39.782) rotate(-45)"></rect><path d="M52.05,17.192a1,1,0,0,0,.707-.292l1.415-1.414a1,1,0,0,0,.273-.9l-.707-3.536a1,1,0,0,0-.784-.784l-3.536-.707a1,1,0,0,0-.9.274L47.1,11.243a1,1,0,0,0,0,1.414L51.343,16.9A.993.993,0,0,0,52.05,17.192Zm-2.5-5.571,2.357.472.471,2.356-.329.329L49.222,11.95Z"></path><rect x="11.55" y="46.5" width="9.899" height="2" transform="translate(-28.755 25.58) rotate(-45)"></rect></g></svg>