<svg xmlns="http://www.w3.org/2000/svg" viewBox="0 0 64 64" x="0px" y="0px"><g><path d="M60,35V34a2.006,2.006,0,0,0-2-2H48a2.006,2.006,0,0,0-2,2v1h3v2H46v2h3v2H46v2h3v2H46v2h3v2H46v2h3v2H46v2h3v2H46v1a2.006,2.006,0,0,0,2,2H58a2.006,2.006,0,0,0,2-2V57H57V55h3V53H57V51h3V49H57V47h3V45H57V43h3V41H57V39h3V37H57V35ZM55,57H51V55h4Zm0-4H51V51h4Zm0-4H51V47h4Zm0-4H51V43h4Zm0-4H51V39h4Zm0-4H51V35h4Z"></path><path d="M26,37V34.57a10.8,10.8,0,0,1-6,.01V37a3,3,0,0,0,6,0Z"></path><path d="M21.03,17.37,14,18.65V24a9,9,0,0,0,18,0V18.65l-7.03-1.27A11.1,11.1,0,0,0,21.03,17.37ZM17,21a2,2,0,1,1,2,2A2,2,0,0,1,17,21Zm10-2a2,2,0,1,1-2,2A2,2,0,0,1,27,19Zm-.693,8.75a5,5,0,0,1-6.614,0l1.323-1.5a3.076,3.076,0,0,0,3.968,0Z"></path><path d="M10,21a2.015,2.015,0,0,0,2,2V19A2.006,2.006,0,0,0,10,21Z"></path><path d="M34,19v4a2.015,2.015,0,0,0,2-2A2.006,2.006,0,0,0,34,19Z"></path><path d="M12.13,15.1a1.006,1.006,0,0,0-.01.91l.1.2a1.013,1.013,0,0,0,1.08.54l7.37-1.34a13.031,13.031,0,0,1,4.66,0l7.37,1.34a1.02,1.02,0,0,0,1.08-.54l.1-.2a1.006,1.006,0,0,0-.01-.91.978.978,0,0,0-.73-.53l-7.86-1.21a15.374,15.374,0,0,0-4.56,0l-7.86,1.21A.978.978,0,0,0,12.13,15.1Z"></path><path d="M32,48V40a2.206,2.206,0,0,1,.04-.37L27.81,38.3a4.976,4.976,0,0,1-9.62,0l-4.23,1.33A2.206,2.206,0,0,1,14,40v8Z"></path><path d="M14,8.28v4.09l6.41-.98a16.6,16.6,0,0,1,5.17,0l6.42.98V8.28a3,3,0,0,0-2.41-2.94l-6-1.2a2.931,2.931,0,0,0-1.18,0l-6,1.2A3,3,0,0,0,14,8.28Z"></path><path d="M4,54h6V52.82A3.01,3.01,0,0,1,8,50V41.57a6.947,6.947,0,0,0-4,6.31Z"></path><path d="M36,50V40a1,1,0,0,0-2,0V50a1,1,0,0,0,2,0Z"></path><path d="M34,52.82A3.01,3.01,0,0,1,32,50H14a3.01,3.01,0,0,1-2,2.82V60H34Z"></path><rect x="4" y="56" width="6" height="4"></rect><path d="M11,51a1,1,0,0,0,1-1V40a1,1,0,0,0-2,0V50A1,1,0,0,0,11,51Z"></path><rect x="36" y="56" width="6" height="4"></rect><path d="M42,47.88a6.947,6.947,0,0,0-4-6.31V50a3.01,3.01,0,0,1-2,2.82V54h6Z"></path></g></svg>