<svg xmlns="http://www.w3.org/2000/svg" viewBox="0 0 64 64" x="0px" y="0px"><title>Maintainance</title><g><path d="M31,11a9.986,9.986,0,0,0-4.444-8.313A1,1,0,0,0,25,3.518v6.663l-4,.8-4-.8V3.518a1,1,0,0,0-1.556-.831A10,10,0,0,0,15,19V45a10,10,0,0,0,.444,16.312A1,1,0,0,0,17,60.482V53.819l4-.8,4,.8v6.663a1,1,0,0,0,1.556.831A10,10,0,0,0,27,45V19A9.988,9.988,0,0,0,31,11ZM25.444,46.349A8,8,0,0,1,27,58.291V53a1,1,0,0,0-.8-.98l-5-1a.97.97,0,0,0-.392,0l-5,1A1,1,0,0,0,15,53v5.291a8,8,0,0,1,1.556-11.942A1,1,0,0,0,17,45.518V18.482a1,1,0,0,0-.444-.831A8,8,0,0,1,15,5.709V11a1,1,0,0,0,.8.98l5,1a1,1,0,0,0,.392,0l5-1A1,1,0,0,0,27,11V5.709a8,8,0,0,1-1.556,11.942,1,1,0,0,0-.444.831V45.518A1,1,0,0,0,25.444,46.349Z"></path><path d="M46,31V29a2,2,0,0,0-2-2V10.414l1.707-1.707a1,1,0,0,0,.242-1.023l-2-6A1,1,0,0,0,43,1H39a1,1,0,0,0-.949.684l-2,6a1,1,0,0,0,.242,1.023L38,10.414V27a2,2,0,0,0-2,2v2a3,3,0,0,0-3,3V57a5.006,5.006,0,0,0,5,5h6a5.006,5.006,0,0,0,5-5V34A3,3,0,0,0,46,31ZM39.707,9.293,38.144,7.729,39.721,3h2.558l1.577,4.729L42.293,9.293A1,1,0,0,0,42,10V27H40V10A1,1,0,0,0,39.707,9.293ZM38,29h6v2H38Zm9,28a3,3,0,0,1-3,3H38a3,3,0,0,1-3-3V34a1,1,0,0,1,1-1H46a1,1,0,0,1,1,1Z"></path><path d="M39,35a1,1,0,0,0-1,1V57a1,1,0,0,0,2,0V36A1,1,0,0,0,39,35Z"></path><path d="M43,35a1,1,0,0,0-1,1V57a1,1,0,0,0,2,0V36A1,1,0,0,0,43,35Z"></path></g></svg>