<svg xmlns="http://www.w3.org/2000/svg" viewBox="0 0 64 64" x="0px" y="0px"><g><path d="M53.787,43.238l-5.8-1.553A13.02,13.02,0,0,0,33,48.422v-8.5a8.885,8.885,0,0,0,7.056-4.968c.2.013.393.045.588.045a9.07,9.07,0,0,0,7.812-4.5,8.917,8.917,0,0,0-.338-9.5,8.919,8.919,0,0,0,.338-9.5,9.043,9.043,0,0,0-8.4-4.456,8.954,8.954,0,0,0-16.11,0,9.046,9.046,0,0,0-8.4,4.456,8.916,8.916,0,0,0,.338,9.5,8.917,8.917,0,0,0-.338,9.5A9.07,9.07,0,0,0,23.356,35c.2,0,.393-.032.589-.045A8.888,8.888,0,0,0,31,39.925v5.5a13.022,13.022,0,0,0-14.991-6.739l-5.8,1.553a1,1,0,0,0-.707,1.225l1.036,3.864a12.995,12.995,0,0,0,15.921,9.192L31,53.3V62h2V56.3l4.537,1.216a12.995,12.995,0,0,0,15.921-9.192l1.036-3.864A1,1,0,0,0,53.787,43.238ZM29.2,51.716l-3.25.871a11.015,11.015,0,0,1-13.473-7.778l-.776-2.9,4.829-1.294A11.014,11.014,0,0,1,30,48.4l.46,1.716L20.447,45.105l-.894,1.79ZM46.724,29.5A7.057,7.057,0,0,1,40.778,33c.01-.045.014-.093.023-.14.044-.206.077-.415.106-.626.013-.1.031-.2.041-.293A9.181,9.181,0,0,0,41,31a8.9,8.9,0,0,0-.072-1.074c-.013-.1-.03-.2-.046-.306-.041-.267-.095-.53-.16-.791-.024-.093-.044-.187-.07-.279a9.016,9.016,0,0,0-.342-.993c-.019-.045-.042-.088-.062-.133a8.851,8.851,0,0,0-.406-.816c-.051-.091-.1-.179-.158-.269-.142-.234-.295-.46-.457-.68-.051-.068-.1-.138-.149-.2a8.86,8.86,0,0,0-.636-.735,8.951,8.951,0,0,0,.969.187c.087.012.174.018.261.028q.41.045.821.054c.059,0,.117.011.175.011.043,0,.087-.008.13-.008a9.2,9.2,0,0,0,.952-.062c.031,0,.062,0,.094-.008a9.062,9.062,0,0,0,1.028-.2c.094-.024.187-.053.28-.08.256-.074.508-.159.758-.255.1-.037.191-.073.285-.113a9.127,9.127,0,0,0,.963-.473,8.964,8.964,0,0,0,.792-.516c.078-.056.151-.118.228-.177.172-.133.34-.27.5-.414.034-.031.073-.057.107-.089A6.947,6.947,0,0,1,46.724,29.5Zm-7.8-20.281.037-.011c.21-.053.424-.1.64-.13a7.035,7.035,0,0,1,7.12,3.422,6.955,6.955,0,0,1-.595,7.875l0,0a6.762,6.762,0,0,1-1.965,1.684,6.954,6.954,0,0,1-.8.393c-.083.034-.168.059-.252.09-.192.072-.385.141-.581.2-.1.029-.207.048-.31.072-.18.041-.361.079-.544.105-.112.017-.225.027-.338.038-.176.017-.352.029-.528.032-.117,0-.233,0-.35,0-.174,0-.347-.018-.521-.036-.116-.012-.232-.025-.347-.043-.175-.028-.348-.065-.521-.106-.111-.026-.222-.049-.331-.081-.181-.052-.359-.117-.536-.185-.1-.036-.2-.067-.29-.108-.025-.011-.048-.026-.073-.037.012-.05.016-.1.026-.151s.023-.13.035-.195a5.883,5.883,0,0,0-.346-3.328,6,6,0,0,0-.8-1.379,6.111,6.111,0,0,0-.575-.635l-.122-.119a6.23,6.23,0,0,0-.651-.525l-.071-.045a5.879,5.879,0,0,0-.757-.435h0a5.578,5.578,0,0,0-.835-.317l-.028-.011c0-.025,0-.05,0-.074.013-.108.036-.213.054-.319.03-.183.062-.365.106-.544.029-.115.065-.226.1-.339.05-.166.1-.331.166-.492.043-.113.092-.224.141-.334.07-.155.144-.308.224-.458.058-.106.117-.212.18-.315.089-.147.184-.289.284-.428.069-.1.137-.195.211-.288.11-.139.229-.271.349-.4.077-.083.151-.169.232-.248.139-.137.289-.264.44-.39.075-.062.144-.128.221-.187a6.861,6.861,0,0,1,.737-.494q.285-.164.581-.3t.6-.244C38.534,9.328,38.73,9.27,38.927,9.219ZM36,21a3.9,3.9,0,0,1-.832,2.438h0a3.994,3.994,0,0,1-2.695,1.529,2.55,2.55,0,0,1-1.007-.01,4.294,4.294,0,0,1-2.093-.944,4,4,0,0,1,2.154-6.982A2.553,2.553,0,0,1,32,17c.054,0,.112,0,.169,0,.08.006.159.01.236.022.043,0,.082.007.129.016a3.944,3.944,0,0,1,2.634,1.52A3.891,3.891,0,0,1,36,21ZM32,4a6.946,6.946,0,0,1,6.006,3.4c-.047.015-.091.036-.138.051-.2.066-.4.141-.594.221-.094.038-.189.072-.281.113a9.265,9.265,0,0,0-.833.419,8.86,8.86,0,0,0-.9.6c-.082.062-.161.127-.241.192-.212.17-.415.35-.609.538-.068.065-.138.129-.2.2a9.4,9.4,0,0,0-.689.793c-.033.043-.06.089-.092.132q-.267.361-.5.748c-.054.091-.1.182-.156.275-.132.24-.252.487-.361.738-.034.076-.071.15-.1.227A8.892,8.892,0,0,0,32,13.55a9.142,9.142,0,0,0-.314-.906c-.032-.077-.069-.151-.1-.228q-.163-.377-.361-.736c-.051-.093-.1-.186-.157-.278q-.228-.382-.493-.742c-.033-.045-.061-.093-.095-.137a9.063,9.063,0,0,0-.688-.791c-.067-.069-.138-.133-.207-.2q-.291-.28-.606-.536c-.081-.065-.161-.13-.244-.193a9.031,9.031,0,0,0-.9-.6A9.152,9.152,0,0,0,27,7.783c-.089-.039-.181-.072-.271-.109-.2-.081-.4-.157-.6-.223-.046-.015-.09-.036-.136-.051A6.946,6.946,0,0,1,32,4ZM17.276,12.5A7.055,7.055,0,0,1,23.35,9a6.83,6.83,0,0,1,1.045.08,7.1,7.1,0,0,1,2.445.858,6.784,6.784,0,0,1,.738.495c.076.058.145.124.219.185.152.126.3.254.443.392.081.079.155.165.231.248.121.131.24.263.35.4.074.094.143.191.212.288.1.14.2.282.284.428.062.1.122.209.179.316.081.15.155.3.225.458.049.11.1.221.141.333.063.162.116.327.166.493.035.113.071.224.1.339.044.179.076.361.106.544.018.106.041.211.054.319,0,.024,0,.049,0,.074-.024.007-.045.019-.069.026a5.9,5.9,0,0,0-.757.288c-.04.018-.078.04-.117.059A5.889,5.889,0,0,0,28.7,16c-.037.025-.076.047-.113.073a5.992,5.992,0,0,0-.637.514c-.044.04-.085.081-.127.122a6.08,6.08,0,0,0-.574.634A5.877,5.877,0,0,0,26.1,22.047c.011.064.02.128.033.192s.015.1.027.152c-.025.011-.049.026-.075.037-.092.04-.188.07-.281.106-.18.068-.36.134-.544.187-.109.031-.219.055-.329.081-.172.04-.345.078-.52.105-.117.018-.236.031-.354.044-.169.018-.339.03-.509.035-.122,0-.243,0-.365,0-.169,0-.338-.015-.506-.031-.121-.011-.242-.022-.362-.04-.171-.025-.341-.061-.511-.1-.114-.026-.229-.048-.342-.079-.184-.051-.364-.116-.544-.182-.095-.036-.192-.064-.286-.1a6.987,6.987,0,0,1-.8-.392,6.761,6.761,0,0,1-1.966-1.687A6.955,6.955,0,0,1,17.276,12.5Zm7.5,13.159c-.162.22-.315.446-.457.68-.054.09-.107.178-.158.269a8.851,8.851,0,0,0-.406.816c-.02.045-.043.088-.062.133a9.016,9.016,0,0,0-.342.993c-.026.092-.046.186-.07.279-.065.261-.119.524-.16.791-.016.1-.033.2-.046.306A8.9,8.9,0,0,0,23,31a9.181,9.181,0,0,0,.052.942c.01.1.027.193.04.29.029.212.063.424.107.632.01.045.013.092.023.137a7.057,7.057,0,0,1-5.946-3.5,6.947,6.947,0,0,1-.063-6.9c.034.032.073.058.108.089.16.144.326.279.5.411.078.06.152.123.232.181a8.506,8.506,0,0,0,1.753.987c.094.04.19.076.285.113.251.1.5.182.761.256.093.026.184.056.277.079a8.767,8.767,0,0,0,1.033.2c.026,0,.052,0,.077.007a9.028,9.028,0,0,0,.972.063c.042,0,.083.008.125.008s.111-.01.167-.011c.28,0,.559-.024.837-.055.083-.009.166-.015.249-.027a9,9,0,0,0,.972-.187,8.86,8.86,0,0,0-.636.735C24.87,25.521,24.824,25.591,24.773,25.659ZM32,38a6.951,6.951,0,0,1-6.521-4.461A6.8,6.8,0,0,1,25,31a7.006,7.006,0,0,1,.059-.884c.013-.1.036-.191.052-.287.033-.193.068-.385.117-.573.028-.111.066-.219.1-.328.052-.168.107-.336.172-.5.044-.111.095-.22.145-.33.071-.154.145-.307.227-.456.059-.107.121-.212.185-.315.089-.144.184-.285.283-.422.071-.1.142-.2.218-.29.109-.135.226-.265.345-.392.08-.085.157-.172.241-.253.135-.13.279-.251.424-.371.081-.066.158-.137.243-.2.02-.016.044-.028.065-.044.018.018.04.031.058.048a6.11,6.11,0,0,0,.636.519c.033.023.067.043.1.065a5.828,5.828,0,0,0,.647.377c.041.021.081.044.123.064a5.913,5.913,0,0,0,.745.289c.055.017.11.031.165.047a5.743,5.743,0,0,0,.8.169A4.5,4.5,0,0,0,32,27a4.191,4.191,0,0,0,.786-.058,5.905,5.905,0,0,0,.83-.173c.057-.016.113-.03.169-.048a5.893,5.893,0,0,0,.76-.29c.044-.021.085-.045.129-.066a5.878,5.878,0,0,0,.647-.375c.036-.023.072-.044.107-.068a6.022,6.022,0,0,0,.635-.517c.02-.018.042-.031.061-.05.021.016.045.028.065.044.085.063.162.134.243.2.145.12.289.241.424.371.084.081.161.168.241.253.119.127.236.257.345.392.076.094.147.192.218.29.1.137.194.278.283.422.064.1.126.208.185.315.082.149.156.3.227.456.05.11.1.219.145.33.065.164.12.332.172.5.034.109.072.217.1.328.049.188.084.38.117.573.016.1.039.19.052.287A7.006,7.006,0,0,1,39,31c0,.239-.014.474-.037.707a6.744,6.744,0,0,1-.444,1.84A6.951,6.951,0,0,1,32,38Zm19.527,9.809a11.016,11.016,0,0,1-13.473,7.778l-3.25-.871L44.447,49.9l-.894-1.79L33.541,53.111,34,51.4a11.012,11.012,0,0,1,13.473-7.778L52.3,44.911Z"></path></g></svg>