<svg xmlns="http://www.w3.org/2000/svg" viewBox="0 0 64 64" x="0px" y="0px"><title>Mobile-Bank-Car</title><g><path d="M61,31H57.809L54.978,17.79A1,1,0,0,0,54,17H46V10a1,1,0,0,0-1-1H13a1,1,0,0,0-1,1V48a1,1,0,0,0,1,1h4.114A4.874,4.874,0,0,0,17,50a5,5,0,0,0,10,0,4.874,4.874,0,0,0-.114-1H48.114A4.874,4.874,0,0,0,48,50a5,5,0,0,0,10,0,4.874,4.874,0,0,0-.114-1H61a1,1,0,0,0,1-1V32A1,1,0,0,0,61,31ZM53.191,19l2.831,13.21A1,1,0,0,0,57,33h3v4H46V19ZM14,37V35H44v2Zm0-26H44V33H14Zm8,42a3,3,0,1,1,2.593-4.5l0,0A2.994,2.994,0,0,1,22,53Zm31,0a3,3,0,1,1,2.593-4.5l0,0A2.994,2.994,0,0,1,53,53Zm7-6H57l-.017-.02c-.048-.063-.1-.12-.152-.18-.082-.1-.165-.2-.254-.288-.062-.064-.128-.122-.193-.181-.087-.08-.174-.159-.265-.232-.071-.057-.144-.109-.218-.161-.094-.067-.189-.132-.287-.192-.078-.047-.155-.092-.235-.135-.1-.056-.207-.107-.313-.155-.081-.037-.161-.073-.243-.105-.114-.045-.229-.083-.346-.119-.08-.025-.158-.051-.239-.072-.132-.034-.266-.058-.4-.081-.069-.012-.136-.028-.206-.037a4.686,4.686,0,0,0-1.252,0c-.07.009-.137.025-.207.037-.135.023-.269.047-.4.081-.081.021-.159.047-.239.072-.117.036-.233.074-.346.119-.082.032-.162.068-.242.1-.107.049-.212.1-.315.156-.079.043-.156.087-.233.134-.1.061-.2.126-.289.194-.073.052-.145.1-.215.159-.094.075-.183.155-.272.237-.062.058-.126.113-.186.174-.095.1-.183.2-.271.309-.044.053-.092.1-.134.158L49,47H26l-.017-.02c-.048-.063-.1-.12-.152-.18-.082-.1-.165-.2-.254-.288-.062-.064-.128-.122-.193-.181-.087-.08-.174-.159-.265-.232-.071-.057-.144-.109-.218-.161-.094-.067-.189-.132-.287-.192-.078-.047-.155-.092-.235-.135-.1-.056-.207-.107-.313-.155-.081-.037-.161-.073-.243-.105-.114-.045-.229-.083-.346-.119-.08-.025-.158-.051-.239-.072-.132-.034-.266-.058-.4-.081-.069-.012-.136-.028-.206-.037a4.686,4.686,0,0,0-1.252,0c-.07.009-.137.025-.207.037-.135.023-.269.047-.4.081-.081.021-.159.047-.239.072-.117.036-.233.074-.346.119-.082.032-.162.068-.242.1-.107.049-.212.1-.315.156-.079.043-.156.087-.233.134-.1.061-.195.126-.289.194-.073.052-.145.1-.215.159-.094.075-.183.155-.272.237-.062.058-.126.113-.186.174-.095.1-.183.2-.271.309-.044.053-.092.1-.134.158L18,47H14V39H60Z"></path><path d="M48,35h6a1,1,0,0,0,1-1V32a1,1,0,0,0-.02-.2l-2-10A1,1,0,0,0,52,21H48a1,1,0,0,0-1,1V34A1,1,0,0,0,48,35Zm1-12h2.181L53,32.1V33H49Z"></path><path d="M29,19a1,1,0,0,1,1,1h2a3,3,0,0,0-2-2.816V16H28v1.184A2.993,2.993,0,0,0,29,23a1,1,0,1,1-1,1H26a3,3,0,0,0,2,2.816V28h2V26.816A2.993,2.993,0,0,0,29,21a1,1,0,0,1,0-2Z"></path><path d="M29,13a9,9,0,1,0,9,9A9.01,9.01,0,0,0,29,13Zm0,16a7,7,0,1,1,7-7A7.009,7.009,0,0,1,29,29Z"></path><rect x="33" y="21" width="2" height="2"></rect><rect x="23" y="21" width="2" height="2"></rect><rect x="6" y="47" width="4" height="2"></rect><rect x="2" y="47" width="2" height="2"></rect><rect x="8" y="43" width="2" height="2"></rect><rect x="2" y="43" width="4" height="2"></rect><rect x="4" y="39" width="4" height="2"></rect><rect x="21" y="49" width="2" height="2"></rect><rect x="52" y="49" width="2" height="2"></rect></g></svg>