<svg xmlns="http://www.w3.org/2000/svg" viewBox="0 0 64 64" x="0px" y="0px"><g data-name="Smartphone-Money-Payment-Pay-Online Payment"><rect x="21" y="38" width="11" height="2"></rect><rect x="21" y="34" width="11" height="2"></rect><path d="M25.91,16H21v4.91A5.992,5.992,0,0,0,25.91,16Z"></path><rect x="21" y="42" width="11" height="2"></rect><path d="M21,27.09V32h4.91A5.992,5.992,0,0,0,21,27.09Z"></path><path d="M45,50H9v6a4,4,0,0,0,4,4H41a4,4,0,0,0,4-4ZM29,58H25a3,3,0,0,1,0-6h4a3,3,0,0,1,0,6Z"></path><path d="M29,54H25a1,1,0,0,0,0,2h4a1,1,0,0,0,0-2Z"></path><path d="M45,46H20a1,1,0,0,1-1-1V15a1,1,0,0,1,1-1H45V12H9V48H45Z"></path><path d="M9,10H45V8a4,4,0,0,0-4-4H13A4,4,0,0,0,9,8ZM24,6h6V8H24ZM20,6h2V8H20Z"></path><rect x="44" y="38" width="11" height="2"></rect><path d="M55,22.93A8,8,0,0,1,48.07,16H27.93A8,8,0,0,1,21,22.93v2.14A8,8,0,0,1,27.93,32H48.07A8,8,0,0,1,55,25.07ZM38,29a5,5,0,1,1,5-5A5.006,5.006,0,0,1,38,29Z"></path><path d="M55,16H50.09A5.992,5.992,0,0,0,55,20.91Z"></path><circle cx="38" cy="24" r="3"></circle><path d="M55,27.09A5.992,5.992,0,0,0,50.09,32H55Z"></path><rect x="44" y="42" width="11" height="2"></rect><rect x="44" y="34" width="11" height="2"></rect><rect x="34" y="34" width="8" height="10"></rect></g></svg>