<svg xmlns="http://www.w3.org/2000/svg" viewBox="0 0 64 64" x="0px" y="0px"><g><path d="M42,30.414V31H40V30a1,1,0,0,1,.293-.707L42,27.586V24.414L40.586,23H38.414L37,24.414V25H35V24a1,1,0,0,1,.293-.707l1.563-1.563L36.279,20H34.414L33,21.414V42.586L34.414,44h1.865l.577-1.73-1.563-1.563A1,1,0,0,1,35,40V39h2v.586l1.307,1.307L41,40.219V35h2v1.586l1-1V31.3L42.845,29.57ZM35,30V27h2v2.586l1.707,1.707-1.414,1.414-2-2A1,1,0,0,1,35,30Zm4,8H37V36.414l-.707-.707,1.414-1.414,1,1A1,1,0,0,1,39,36Z"></path><path d="M55,40a1,1,0,0,1,1-1h3.92l-6.7-8.376A1,1,0,0,1,53,30a16.943,16.943,0,0,0-2.042-8.055,10.016,10.016,0,0,1-8.708-7.753A17.134,17.134,0,0,0,34.08,13.1a15.3,15.3,0,0,0-1.854.331,1.044,1.044,0,0,1-.452,0,15.231,15.231,0,0,0-1.847-.33,17.15,17.15,0,0,0-8.177,1.087,10.016,10.016,0,0,1-8.708,7.753A16.943,16.943,0,0,0,11,30a1,1,0,0,1-.219.624L4.081,39,8,39a1,1,0,0,1,1,1v9a3,3,0,0,0,3,3h6a1,1,0,0,1,1,1v7H45V53a1,1,0,0,1,1-1h6a3,3,0,0,0,3-3Zm-9-4a1,1,0,0,1-.293.707L43,39.414V41a1,1,0,0,1-.757.97l-3.468.867-.826,2.479A1,1,0,0,1,37,46H34a1,1,0,0,1-.707-.293L32,44.414l-1.293,1.293A1,1,0,0,1,30,46H27a1,1,0,0,1-.949-.684l-.826-2.479-3.468-.867A1,1,0,0,1,21,41V39.414l-2.707-2.707A1,1,0,0,1,18,36V31a1.006,1.006,0,0,1,.168-.555L20,27.7V24a1,1,0,0,1,.293-.707l2-2A1,1,0,0,1,23,21h2.279l.772-2.316A1,1,0,0,1,27,18h3a1,1,0,0,1,.707.293L32,19.586l1.293-1.293A1,1,0,0,1,34,18h3a1,1,0,0,1,.949.684L38.721,21H41a1,1,0,0,1,.707.293l2,2A1,1,0,0,1,44,24v3.7l1.832,2.748A1.006,1.006,0,0,1,46,31Z"></path><path d="M52,20a8,8,0,1,0-8-8A8.009,8.009,0,0,0,52,20Zm1-7H51a3,3,0,0,1,0-6V6h2V7a3,3,0,0,1,3,3H54a1,1,0,0,0-1-1H51a1,1,0,0,0,0,2h2a3,3,0,0,1,0,6v1H51V17a3,3,0,0,1-3-3h2a1,1,0,0,0,1,1h2a1,1,0,0,0,0-2Z"></path><path d="M27.721,20l-.577,1.73,1.563,1.563A1,1,0,0,1,29,24v1H27v-.586L25.586,23H23.414L22,24.414v3.172l1.707,1.707A1,1,0,0,1,24,30v1H22v-.586l-.845-.844L20,31.3v4.283l1,1V35h2v5.219l2.693.674L27,39.586V39h2v1a1,1,0,0,1-.293.707L27.144,42.27,27.721,44h1.865L31,42.586V21.414L29.586,20ZM27,36.414V38H25V36a1,1,0,0,1,.293-.707l1-1,1.414,1.414ZM29,30a1,1,0,0,1-.293.707l-2,2-1.414-1.414L27,29.586V27h2Z"></path><path d="M12,20a8,8,0,1,0-8-8A8.009,8.009,0,0,0,12,20Zm1-7H11a3,3,0,0,1,0-6V6h2V7a3,3,0,0,1,3,3H14a1,1,0,0,0-1-1H11a1,1,0,0,0,0,2h2a3,3,0,0,1,0,6v1H11V17a3,3,0,0,1-3-3h2a1,1,0,0,0,1,1h2a1,1,0,0,0,0-2Z"></path><rect x="31" y="7" width="2" height="2"></rect><rect x="35" y="7" width="2" height="2"></rect><rect x="39" y="7" width="2" height="2"></rect><rect x="27" y="7" width="2" height="2"></rect><rect x="23" y="7" width="2" height="2"></rect></g></svg>