<svg xmlns="http://www.w3.org/2000/svg" viewBox="0 0 64 64" x="0px" y="0px"><g data-name="Music Player"><path d="M58,11a3,3,0,0,0-3-3H54v6h1a1,1,0,0,1,1,1v3h2Z"></path><rect x="56" y="20" width="2" height="2"></rect><path d="M46,30h2V27a1,1,0,0,1,1-1h1V20H49a3,3,0,0,0-3,3Z"></path><rect x="46" y="32" width="2" height="2"></rect><circle cx="23" cy="39" r="3"></circle><path d="M33,38h3a1,1,0,0,0,1-1V31a1,1,0,0,0-1-1H33Z"></path><path d="M17,6H29a1,1,0,0,0,1-1V4H16V5A1,1,0,0,0,17,6Z"></path><path d="M13,23a3,3,0,0,1,3-3H30a3,3,0,0,1,3,3v5h2V26a12,12,0,0,0-24,0v2h2Z"></path><rect x="19" y="26" width="8" height="4"></rect><path d="M9,31v6a1,1,0,0,0,1,1h3V30H10A1,1,0,0,0,9,31Z"></path><path d="M7,35V33a1,1,0,0,0,0,2Z"></path><path d="M6,57a3,3,0,0,0,3,3h3.026A4.948,4.948,0,0,1,11,57a5.006,5.006,0,0,1,5-5h3a3,3,0,0,0,3-3V48H16a3,3,0,0,1-3-3V40H10a3,3,0,0,1-3-3,2.966,2.966,0,0,1-1-.184Z"></path><path d="M39,33v2a1,1,0,0,0,0-2Z"></path><path d="M16,46H30a1,1,0,0,0,1-1V23a1,1,0,0,0-1-1H16a1,1,0,0,0-1,1V45A1,1,0,0,0,16,46Zm7-2a5,5,0,1,1,5-5A5.006,5.006,0,0,1,23,44ZM17,25a1,1,0,0,1,1-1H28a1,1,0,0,1,1,1v6a1,1,0,0,1-1,1H18a1,1,0,0,1-1-1Z"></path><path d="M16,54a3,3,0,0,0,0,6H37a3,3,0,0,0,3-3V36.816A2.966,2.966,0,0,1,39,37a3,3,0,0,1-3,3H33v5a3,3,0,0,1-3,3H24v1a5.006,5.006,0,0,1-5,5Z"></path><path d="M6,31.184A2.966,2.966,0,0,1,7,31a3,3,0,0,1,2-2.816V26a14,14,0,0,1,28,0v2.184A3,3,0,0,1,39,31a2.966,2.966,0,0,1,1,.184V7a3,3,0,0,0-3-3H32V5a3,3,0,0,1-3,3H17a3,3,0,0,1-3-3V4H9A3,3,0,0,0,6,7Z"></path><path d="M56,24V43a3,3,0,0,1-3,3H51a3,3,0,0,1-3-3V36H46v7a5.006,5.006,0,0,0,5,5v9a3,3,0,0,1-3,3H42v2h6a5.006,5.006,0,0,0,5-5V48a5.006,5.006,0,0,0,5-5V24Z"></path></g></svg>