<svg xmlns="http://www.w3.org/2000/svg" viewBox="0 0 64 64" x="0px" y="0px"><g data-name="Credit Card-Wallet"><path d="M20,34A10,10,0,1,0,30,44,10.011,10.011,0,0,0,20,34Zm0,18a8,8,0,1,1,8-8A8.009,8.009,0,0,1,20,52Z"></path><path d="M20,41a1,1,0,0,1,1,1h2a3,3,0,0,0-2-2.816V38H19v1.184A2.993,2.993,0,0,0,20,45a1,1,0,1,1-1,1H17a3,3,0,0,0,2,2.816V50h2V48.816A2.993,2.993,0,0,0,20,43a1,1,0,0,1,0-2Z"></path><path d="M57,4H25a5.006,5.006,0,0,0-5,5V26h2V9a3,3,0,0,1,3-3H57a3,3,0,0,1,3,3V29a3,3,0,0,1-3,3H40v2h4V55a3,3,0,0,1-2,2.816V37H40V57.816A3,3,0,0,1,38,55V33a5.006,5.006,0,0,0-5-5H7a5.006,5.006,0,0,0-5,5V55a5.006,5.006,0,0,0,5,5H41a5.006,5.006,0,0,0,5-5V34H57a5.006,5.006,0,0,0,5-5V9A5.006,5.006,0,0,0,57,4ZM7,58a3,3,0,0,1-3-3V33a3,3,0,0,1,3-3H33a3,3,0,0,1,3,3V55a4.973,4.973,0,0,0,1,3Z"></path><path d="M34,10H28a2,2,0,0,0-2,2v4a2,2,0,0,0,2,2h6a2,2,0,0,0,2-2V12A2,2,0,0,0,34,10Zm-6,6V12h6l0,4Z"></path><path d="M43,24a4,4,0,0,0,4,4,3.964,3.964,0,0,0,2.49-.894,4,4,0,1,0,0-6.212A3.964,3.964,0,0,0,47,20,4,4,0,0,0,43,24Zm11,0a2,2,0,0,1-2,2,1.968,1.968,0,0,1-1.3-.486,3.946,3.946,0,0,0,0-3.028A1.968,1.968,0,0,1,52,22,2,2,0,0,1,54,24Zm-7-2a2,2,0,1,1-2,2A2,2,0,0,1,47,22Z"></path><rect x="54" y="11" width="2" height="4"></rect><rect x="50" y="11" width="2" height="4"></rect><rect x="46" y="11" width="2" height="4"></rect><rect x="42" y="11" width="2" height="4"></rect><rect x="26" y="22" width="2" height="2"></rect><rect x="30" y="22" width="2" height="2"></rect><polygon points="34 22 34 24 36 24 38 24 38 22 36 22 34 22"></polygon><rect x="12" y="10" width="6" height="2"></rect><rect x="6" y="14" width="8" height="2"></rect><rect x="2" y="14" width="2" height="2"></rect><rect x="12" y="18" width="4" height="2"></rect><rect x="8" y="18" width="2" height="2"></rect><rect x="10" y="22" width="4" height="2"></rect><rect x="6" y="22" width="2" height="2"></rect><rect x="2" y="22" width="2" height="2"></rect></g></svg>