<svg xmlns="http://www.w3.org/2000/svg" viewBox="0 0 64 64" x="0px" y="0px"><g><path d="M32,32A14,14,0,1,0,18,18,14.015,14.015,0,0,0,32,32ZM29,12c2.983,0,6.59,3.2,8.079,4.656l4.3-3.437A1,1,0,0,1,43,14v8a1,1,0,0,1-1.625.781l-4.3-3.437C35.59,20.8,31.983,24,29,24c-3.642,0-8.22-4.772-8.729-5.316a1,1,0,0,1,0-1.368C20.78,16.772,25.358,12,29,12Z"></path><path d="M47.87,19.939A15.8,15.8,0,0,1,47,23.529,14.943,14.943,0,0,1,49,31v4a3,3,0,0,0,3,3,2.634,2.634,0,0,0,.729-.093A2.994,2.994,0,0,0,55,35a1,1,0,0,1,1-1h.972a16.937,16.937,0,0,0-9.1-14.061Z"></path><rect x="34" y="46" width="12" height="6"></rect><path d="M29,22c2.014,0,5-2.469,6.592-4-1.344-1.294-3.683-3.251-5.592-3.829v3.442a3.012,3.012,0,0,1-1.95,2.81l-1.721.644A5.731,5.731,0,0,0,29,22Z"></path><polygon points="41 16.081 38.601 18 41 19.919 41 16.081"></polygon><path d="M51,60a1,1,0,0,0,1-1V40a4.982,4.982,0,0,1-4-2.031,4.954,4.954,0,0,1-8,0,4.954,4.954,0,0,1-8,0,4.954,4.954,0,0,1-8,0,4.954,4.954,0,0,1-8,0A4.982,4.982,0,0,1,12,40V59a1,1,0,0,0,1,1h3V47a3,3,0,0,1,3-3h6a3,3,0,0,1,3,3V60ZM32,46a2,2,0,0,1,2-2H46a2,2,0,0,1,2,2v6a2,2,0,0,1-2,2H34a2,2,0,0,1-2-2Z"></path><path d="M27.35,18.549a1,1,0,0,0,.65-.936V14.171c-1.909.578-4.248,2.535-5.592,3.829.519.5,1.187,1.1,1.921,1.679ZM25,16h2v2H25Z"></path><path d="M17,35a3,3,0,0,0,6,0V31.218a16.092,16.092,0,0,1-4.93-5.375A12.962,12.962,0,0,0,17,31Z"></path><path d="M39,35V32.365a15.852,15.852,0,0,1-6,1.584V35a3,3,0,0,0,6,0Z"></path><path d="M7.029,34H8a1,1,0,0,1,1,1,2.987,2.987,0,0,0,2.246,2.9A2.713,2.713,0,0,0,12,38a3,3,0,0,0,3-3V31a14.943,14.943,0,0,1,2-7.471,15.851,15.851,0,0,1-.876-3.595A16.941,16.941,0,0,0,7.029,34Z"></path><path d="M41,31.218V35a3,3,0,0,0,6,0V31a12.962,12.962,0,0,0-1.07-5.157A16.092,16.092,0,0,1,41,31.218Z"></path><path d="M31,35V33.949a15.852,15.852,0,0,1-6-1.584V35a3,3,0,0,0,6,0Z"></path><path d="M19,46a1,1,0,0,0-1,1V60h8V47a1,1,0,0,0-1-1Zm6,9H23V51h2Z"></path></g></svg>