<svg xmlns="http://www.w3.org/2000/svg" viewBox="0 0 64 64" x="0px" y="0px"><g><path d="M45,9.03a3,3,0,0,0-1.381-2.521l-2.81,6.739c1.461.309,2.9.639,4.191.954Z"></path><path d="M46,24v4a2,2,0,0,0,0-4Z"></path><path d="M56,60V57.25a10.99,10.99,0,0,0-8.2-10.633l-6.039-1.592-9,10.621a1,1,0,0,1-1.526,0L22.242,45.025,16.2,46.617A10.99,10.99,0,0,0,8,57.25V60h9V53h2v7H45V53h2v7Z"></path><path d="M19,8.96V14.2c1.065-.259,2.224-.53,3.416-.79l-2.269-6.8A3,3,0,0,0,19,8.96Z"></path><path d="M18.114,17.141a1.98,1.98,0,0,0-.146,1.6l.3.9a.986.986,0,0,0,.525.589,1.011,1.011,0,0,0,.8.021c.684-.273,1.514-.649,2.429-1.062C25.167,17.769,29.081,16,32,16s6.833,1.769,9.977,3.191c.915.413,1.745.789,2.43,1.062a1.009,1.009,0,0,0,.8-.021.986.986,0,0,0,.525-.589l.3-.9a2,2,0,0,0-1.424-2.576C41.3,15.356,35.254,14,32,14s-9.3,1.356-12.608,2.165A1.977,1.977,0,0,0,18.114,17.141Z"></path><path d="M32,12a40.154,40.154,0,0,1,6.81.846l2.915-6.992A47.834,47.834,0,0,0,32,4,44.124,44.124,0,0,0,22,5.843L24.388,13A43.591,43.591,0,0,1,32,12Z"></path><path d="M39.615,44.46l-1.264-.333-5.592,6.524a1,1,0,0,1-1.518,0l-5.592-6.524-1.264.333L32,53.453Z"></path><path d="M41.153,21.013C38.341,19.742,34.488,18,32,18s-6.341,1.742-9.153,3.013c-.946.428-1.8.816-2.513,1.1a2.958,2.958,0,0,1-.334.095V27a12,12,0,0,0,24,0V22.208a3.029,3.029,0,0,1-.334-.1C42.958,21.829,42.1,21.441,41.153,21.013ZM29,23h2v4a1,1,0,0,0,2,0V23h2v4a3,3,0,0,1-6,0Zm-3.71.71A1.052,1.052,0,0,1,25,23a1,1,0,0,1,.08-.38,1.155,1.155,0,0,1,.21-.33,1.047,1.047,0,0,1,1.42,0,1.155,1.155,0,0,1,.21.33A.838.838,0,0,1,27,23a1,1,0,0,1-1.71.71ZM32,35a7.892,7.892,0,0,1-5.953-2.345l1.511-1.31A5.988,5.988,0,0,0,32,33a5.988,5.988,0,0,0,4.442-1.655l1.511,1.31A7.892,7.892,0,0,1,32,35Zm6.92-11.62a1.155,1.155,0,0,1-.21.33A1.052,1.052,0,0,1,38,24a.838.838,0,0,1-.38-.08.9.9,0,0,1-.54-.54A1,1,0,0,1,37,23a1.052,1.052,0,0,1,.29-.71,1.032,1.032,0,0,1,.33-.21.916.916,0,0,1,.76,0,1.032,1.032,0,0,1,.33.21A1.052,1.052,0,0,1,39,23,1,1,0,0,1,38.92,23.38Z"></path><path d="M18,28V24a2,2,0,0,0,0,4Z"></path><path d="M27,40.07v2.56l5,5.833,5-5.833V40.071a13.913,13.913,0,0,1-10,0Z"></path></g></svg>