<svg xmlns="http://www.w3.org/2000/svg" viewBox="0 0 64 64" x="0px" y="0px"><g data-name="skyscraper-building-tower-city-real estate"><path d="M61,60V27a1,1,0,0,0-1-1H53V23a1,1,0,0,0-1-1H41V15a1,1,0,0,0-1-1H38V11a1,1,0,0,0-1-1H36V7a1,1,0,0,0-1-1H33V2H31V6H29a1,1,0,0,0-1,1v3H27a1,1,0,0,0-1,1v3H24a1,1,0,0,0-1,1v7H12a1,1,0,0,0-1,1v3H4a1,1,0,0,0-1,1V60H2v2H62V60ZM11,60H5V28h6Zm12,0H13V24H23ZM30,8h4v2H30Zm-2,4h8v2H28Zm6,48H30V56h4Zm5,0H36V55a1,1,0,0,0-1-1H29a1,1,0,0,0-1,1v5H25V16H39Zm12,0H41V24H51Zm8,0H53V28h6Z"></path><rect x="31" y="18" width="2" height="2"></rect><rect x="35" y="18" width="2" height="2"></rect><rect x="31" y="22" width="2" height="2"></rect><rect x="35" y="22" width="2" height="2"></rect><rect x="31" y="26" width="2" height="2"></rect><rect x="35" y="26" width="2" height="2"></rect><rect x="31" y="30" width="2" height="2"></rect><rect x="35" y="30" width="2" height="2"></rect><rect x="31" y="34" width="2" height="2"></rect><rect x="35" y="34" width="2" height="2"></rect><rect x="31" y="38" width="2" height="2"></rect><rect x="35" y="38" width="2" height="2"></rect><rect x="27" y="18" width="2" height="2"></rect><rect x="27" y="22" width="2" height="2"></rect><rect x="27" y="26" width="2" height="2"></rect><rect x="27" y="30" width="2" height="2"></rect><rect x="27" y="34" width="2" height="2"></rect><rect x="27" y="38" width="2" height="2"></rect><rect x="31" y="42" width="2" height="2"></rect><rect x="35" y="42" width="2" height="2"></rect><rect x="27" y="42" width="2" height="2"></rect><rect x="31" y="46" width="2" height="2"></rect><rect x="35" y="46" width="2" height="2"></rect><rect x="27" y="46" width="2" height="2"></rect><rect x="31" y="50" width="2" height="2"></rect><rect x="35" y="50" width="2" height="2"></rect><rect x="27" y="50" width="2" height="2"></rect><rect x="43" y="26" width="2" height="2"></rect><rect x="47" y="26" width="2" height="2"></rect><rect x="43" y="30" width="2" height="2"></rect><rect x="47" y="30" width="2" height="2"></rect><rect x="43" y="34" width="2" height="2"></rect><rect x="47" y="34" width="2" height="2"></rect><rect x="43" y="38" width="2" height="2"></rect><rect x="47" y="38" width="2" height="2"></rect><rect x="43" y="42" width="2" height="2"></rect><rect x="47" y="42" width="2" height="2"></rect><rect x="43" y="46" width="2" height="2"></rect><rect x="47" y="46" width="2" height="2"></rect><rect x="43" y="50" width="2" height="2"></rect><rect x="47" y="50" width="2" height="2"></rect><rect x="43" y="54" width="2" height="2"></rect><rect x="47" y="54" width="2" height="2"></rect><rect x="55" y="30" width="2" height="2"></rect><rect x="55" y="34" width="2" height="2"></rect><rect x="55" y="38" width="2" height="2"></rect><rect x="55" y="42" width="2" height="2"></rect><rect x="55" y="46" width="2" height="2"></rect><rect x="55" y="50" width="2" height="2"></rect><rect x="55" y="54" width="2" height="2"></rect><rect x="19" y="26" width="2" height="2"></rect><rect x="15" y="26" width="2" height="2"></rect><rect x="19" y="30" width="2" height="2"></rect><rect x="15" y="30" width="2" height="2"></rect><rect x="19" y="34" width="2" height="2"></rect><rect x="15" y="34" width="2" height="2"></rect><rect x="19" y="38" width="2" height="2"></rect><rect x="15" y="38" width="2" height="2"></rect><rect x="19" y="42" width="2" height="2"></rect><rect x="15" y="42" width="2" height="2"></rect><rect x="19" y="46" width="2" height="2"></rect><rect x="15" y="46" width="2" height="2"></rect><rect x="19" y="50" width="2" height="2"></rect><rect x="15" y="50" width="2" height="2"></rect><rect x="19" y="54" width="2" height="2"></rect><rect x="15" y="54" width="2" height="2"></rect><rect x="7" y="30" width="2" height="2"></rect><rect x="7" y="34" width="2" height="2"></rect><rect x="7" y="38" width="2" height="2"></rect><rect x="7" y="42" width="2" height="2"></rect><rect x="7" y="46" width="2" height="2"></rect><rect x="7" y="50" width="2" height="2"></rect><rect x="7" y="54" width="2" height="2"></rect></g></svg>