<svg xmlns="http://www.w3.org/2000/svg" viewBox="0 0 64 64" x="0px" y="0px"><g><path d="M51,2H13A5.006,5.006,0,0,0,8,7V57a5.006,5.006,0,0,0,5,5H51a5.006,5.006,0,0,0,5-5V7A5.006,5.006,0,0,0,51,2ZM28,4h8V5a1,1,0,0,1-1,1H29a1,1,0,0,1-1-1ZM54,57a3,3,0,0,1-3,3H13a3,3,0,0,1-3-3V7a3,3,0,0,1,3-3H26V5a3,3,0,0,0,3,3h6a3,3,0,0,0,3-3V4H51a3,3,0,0,1,3,3Z"></path><path d="M40,29a8,8,0,0,0-8.136-8,8.09,8.09,0,0,0-7.858,7.7,8.008,8.008,0,0,0,2.386,5.99A5.17,5.17,0,0,1,27.961,38H26v2h2v2a2,2,0,0,0,2,2h4a2,2,0,0,0,2-2V40h2V38H36.037a4.974,4.974,0,0,1,1.5-3.23A7.922,7.922,0,0,0,40,29ZM30,42V40h4v2Zm4.01-4H29.99a7.158,7.158,0,0,0-2.2-4.73A5.929,5.929,0,0,1,26,28.778,6.067,6.067,0,0,1,31.9,23,5.993,5.993,0,0,1,36.15,33.324,7,7,0,0,0,34.01,38Z"></path><path d="M32,30a1,1,0,0,1-1-1H29a3,3,0,0,0,2,2.816V36h2V31.816A3,3,0,0,0,35,29H33A1,1,0,0,1,32,30Z"></path><rect x="31" y="17" width="2" height="2"></rect><rect x="25.5" y="18.473" width="2" height="2" transform="translate(-6.186 15.856) rotate(-29.995)"></rect><rect x="21.473" y="22.5" width="2" height="2" transform="translate(-9.114 31.216) rotate(-60.005)"></rect><rect x="20" y="28" width="2" height="2"></rect><rect x="21.473" y="33.5" width="2" height="2" transform="translate(-14.237 15.856) rotate(-29.995)"></rect><rect x="40.526" y="33.5" width="2" height="2" transform="translate(-9.113 53.218) rotate(-60.005)"></rect><rect x="42" y="28" width="2" height="2"></rect><rect x="40.526" y="22.5" width="2" height="2" transform="translate(-6.187 23.907) rotate(-29.995)"></rect><rect x="36.5" y="18.473" width="2" height="2" transform="translate(1.887 42.216) rotate(-60.005)"></rect><path d="M32,52a3,3,0,1,0,3,3A3,3,0,0,0,32,52Zm0,4a1,1,0,1,1,1-1A1,1,0,0,1,32,56Z"></path></g></svg>