<svg xmlns="http://www.w3.org/2000/svg" viewBox="0 0 64 64" x="0px" y="0px"><g data-name="Business-Man-Avatar"><path d="M37,28.051V25.9A5.009,5.009,0,0,0,41,21V19a3,3,0,0,0,.019-6l1.722-8.609A2,2,0,0,0,40.78,2H23.22a2,2,0,0,0-1.961,2.393L22.981,13A3,3,0,0,0,23,19v2a5.009,5.009,0,0,0,4,4.9v2.152A13.008,13.008,0,0,0,15,41V61a1,1,0,0,0,1,1H48a1,1,0,0,0,1-1V41A13.008,13.008,0,0,0,37,28.051Zm3.753,6.578-2.308,1.539a1,1,0,0,0-.152,1.539l1.2,1.2-4.959,3.857,4.4-10.391a1,1,0,0,0-.1-.927l-.837-1.255c.324.06.641.136.954.223Zm-15.2,1.539-2.308-1.539,1.8-4.216c.313-.087.63-.163.954-.223l-.837,1.255a1,1,0,0,0-.1.927l4.4,10.391-4.959-3.857,1.2-1.2a1,1,0,0,0-.152-1.539ZM35,26v2.65L32,32.4,29,28.65V26Zm-6.927,4.692,2.5,3.127-2.131,1.6-1.32-3.3ZM32,35.25l2.763,2.072L32,43.538l-2.763-6.216Zm3.556.167-2.131-1.6,2.5-3.127.949,1.425ZM42,16a1,1,0,0,1-1,1V15A1,1,0,0,1,42,16ZM40.78,4l-1.227,6.138-.846-.845A1,1,0,0,0,38,9H26a1,1,0,0,0-.707.293l-.846.845L23.22,4ZM22,16a1,1,0,0,1,1-1v2A1,1,0,0,1,22,16Zm3,5V12.414L26.414,11H37.586L39,12.414V21a3,3,0,0,1-3,3H28A3,3,0,0,1,25,21ZM17,41a10.994,10.994,0,0,1,5.385-9.442l-1.3,3.048a1,1,0,0,0,.364,1.226l1.985,1.323-1.137,1.138a1,1,0,0,0,.093,1.5L31,46.489V60H23V41H21V60H17ZM47,60H43V41H41V60H33V46.489l8.614-6.7a1,1,0,0,0,.093-1.5L40.57,37.155l1.985-1.323a1,1,0,0,0,.364-1.226l-1.3-3.048A10.994,10.994,0,0,1,47,41Z"></path><path d="M34.62,14.92A1,1,0,0,0,35,15a1,1,0,0,0,.71-1.71,1.021,1.021,0,0,0-1.09-.21.933.933,0,0,0-.33.21,1.014,1.014,0,0,0,0,1.42A.933.933,0,0,0,34.62,14.92Z"></path><path d="M29,15a1.052,1.052,0,0,0,.71-.29A1.033,1.033,0,0,0,30,14a1,1,0,0,0-.08-.38.933.933,0,0,0-.21-.33,1.047,1.047,0,0,0-1.42,0,.933.933,0,0,0-.21.33A1,1,0,0,0,28,14a1.033,1.033,0,0,0,.29.71A1.052,1.052,0,0,0,29,15Z"></path></g></svg>