<svg xmlns="http://www.w3.org/2000/svg" viewBox="0 0 64 64" x="0px" y="0px"><g data-name="Touch Screen"><path d="M54,2H10A5.006,5.006,0,0,0,5,7V31a5.006,5.006,0,0,0,5,5H27v8a1,1,0,0,0,.219.625L31,49.351V51a1,1,0,0,0-1,1v6a1,1,0,0,0,1,1v2a1,1,0,0,0,1,1H46a1,1,0,0,0,1-1V59a1,1,0,0,0,1-1V52a1,1,0,0,0-1-1V49.192l1.929-4.82A1.012,1.012,0,0,0,49,44V36h5a5.006,5.006,0,0,0,5-5V7A5.006,5.006,0,0,0,54,2ZM7,14H9V24H7ZM46,53v4H32V53Zm-1,7H33V59H45Zm2-16.192-1.929,4.82A1.012,1.012,0,0,0,45,49v2H33V49a1,1,0,0,0-.219-.625L29,43.649V35a1,1,0,0,1,2,0v6h2V23a1,1,0,0,1,2,0V37h2V33a1,1,0,0,1,2,0v4h2V34a1,1,0,0,1,2,0v3h2V35a1,1,0,0,1,2,0ZM36.864,22.155A2.992,2.992,0,0,0,31,23v.563A4.956,4.956,0,0,1,28,19a5,5,0,1,1,8.864,3.155ZM57,31a3,3,0,0,1-3,3H48.816a2.959,2.959,0,0,0-4.287-1.6,2.955,2.955,0,0,0-4-1A2.94,2.94,0,0,0,37,30.184V24.722a6.989,6.989,0,1,0-6,.977v6.485A2.947,2.947,0,0,0,27.184,34H10a3,3,0,0,1-3-3V26H9a2,2,0,0,0,2-2V14a2,2,0,0,0-2-2H7V7a3,3,0,0,1,3-3H54a3,3,0,0,1,3,3Z"></path><path d="M27,10V8H23a1,1,0,0,0-1,1v4h2V11.414l1.929,1.929,1.414-1.414L25.414,10Z"></path><path d="M43,8H39v2h1.586l-1.929,1.929,1.414,1.414L42,11.414V13h2V9A1,1,0,0,0,43,8Z"></path><path d="M24,26.586V25H22v4a1,1,0,0,0,1,1h4V28H25.414l1.929-1.929-1.414-1.414Z"></path><path d="M42,26.586l-1.929-1.929-1.414,1.414L40.586,28H39v2h4a1,1,0,0,0,1-1V25H42Z"></path></g></svg>