<svg xmlns="http://www.w3.org/2000/svg" viewBox="0 0 64 64" x="0px" y="0px"><g><path d="M50,13a1,1,0,0,0-1-1H46v9a1,1,0,0,1-.684.949A1.019,1.019,0,0,1,45,22a1,1,0,0,1-.8-.4L42,18.667,39.8,21.6A1,1,0,0,1,38,21V12H15a1,1,0,0,0-1,1V52H43a1,1,0,0,1,1,1v4a3,3,0,0,0,6,0ZM24,16h8v2H24Zm-6,0h4v2H18Zm0,4H34v2H18Zm0,8H28v2H18Zm0,4H34v2H18Zm0,8H28v2H18Zm28,6H18V44H46ZM30,42V40h6v2Zm16,0H38V40h8Zm0-4H18V36H46Zm0-4H36V32H46Zm0-4H30V28H46Z"></path><path d="M58,5a1,1,0,0,0-1-1H23a1,1,0,0,0-1,1v5H49a3,3,0,0,1,3,3V52h3a3,3,0,0,0,3-3Z"></path><path d="M42.8,16.4,44,18V12H40v6l1.2-1.6A1.036,1.036,0,0,1,42.8,16.4Z"></path><path d="M8,57a3,3,0,0,0,3,3H43a4.98,4.98,0,0,1-1-3V54H8Z"></path></g></svg>