<svg xmlns="http://www.w3.org/2000/svg" viewBox="0 0 64 64" x="0px" y="0px"><g data-name="Four Wheel Drive Car"><path d="M23.658,40H34V12H30V25a1,1,0,0,1-1,1H4v2H7v2H4v9a1,1,0,0,0,1,1H6.342a10,10,0,0,1,17.316,0Z"></path><path d="M57.658,40H59a1,1,0,0,0,1-1V38H57V36h3V34H56a2,2,0,0,1-2-2V30a2,2,0,0,1,2-2h2.974A4.977,4.977,0,0,0,55,26H36V40h4.342a10,10,0,0,1,17.316,0ZM42,30H38V28h4Z"></path><path d="M56,32h4V31a5,5,0,0,0-.1-1H56Z"></path><path d="M41.387,13.261A3,3,0,0,0,38.94,12H36V24H49.057Z"></path><path d="M22,47V45H20.91a5.641,5.641,0,0,0-.29-1.09l.94-.54-1-1.74-.94.55a6.047,6.047,0,0,0-.8-.8l.55-.94-1.74-1-.54.94A5.641,5.641,0,0,0,16,40.09V39H14v1.09a5.641,5.641,0,0,0-1.09.29l-.54-.94-1.74,1,.55.94a6.047,6.047,0,0,0-.8.8l-.94-.55-1,1.74.94.54A5.641,5.641,0,0,0,9.09,45H8v2H9.09a5.641,5.641,0,0,0,.29,1.09l-.94.54,1,1.74.94-.55a6.047,6.047,0,0,0,.8.8l-.55.94,1.74,1,.54-.94a5.641,5.641,0,0,0,1.09.29V53h2V51.91a5.641,5.641,0,0,0,1.09-.29l.54.94,1.74-1-.55-.94a6.047,6.047,0,0,0,.8-.8l.94.55,1-1.74-.94-.54A5.641,5.641,0,0,0,20.91,47Zm-7,3a4,4,0,1,1,4-4A4,4,0,0,1,15,50Zm0-6a2,2,0,1,0,2,2A2.006,2.006,0,0,0,15,44Zm1,3H14V45h2Z"></path><path d="M56,47V45H54.91a5.641,5.641,0,0,0-.29-1.09l.94-.54-1-1.74-.94.55a6.047,6.047,0,0,0-.8-.8l.55-.94-1.74-1-.54.94A5.641,5.641,0,0,0,50,40.09V39H48v1.09a5.641,5.641,0,0,0-1.09.29l-.54-.94-1.74,1,.55.94a6.047,6.047,0,0,0-.8.8l-.94-.55-1,1.74.94.54A5.641,5.641,0,0,0,43.09,45H42v2h1.09a5.641,5.641,0,0,0,.29,1.09l-.94.54,1,1.74.94-.55a6.047,6.047,0,0,0,.8.8l-.55.94,1.74,1,.54-.94a5.641,5.641,0,0,0,1.09.29V53h2V51.91a5.641,5.641,0,0,0,1.09-.29l.54.94,1.74-1-.55-.94a6.047,6.047,0,0,0,.8-.8l.94.55,1-1.74-.94-.54A5.641,5.641,0,0,0,54.91,47Zm-7,3a4,4,0,1,1,4-4A4,4,0,0,1,49,50Zm0-6a2,2,0,1,0,2,2A2.006,2.006,0,0,0,49,44Zm1,3H48V45h2Z"></path></g></svg>