<svg xmlns="http://www.w3.org/2000/svg" viewBox="0 0 64 64" x="0px" y="0px"><g><circle cx="19" cy="34" r="1"></circle><path d="M52,58H50a3.006,3.006,0,0,0-2.829,2h7.658A3.006,3.006,0,0,0,52,58Z"></path><polygon points="14.535 44 49.465 44 52.132 40 11.868 40 14.535 44"></polygon><path d="M33,56a5,5,0,0,1,1,.1V46H30V56.1a5,5,0,0,1,1-.1Z"></path><circle cx="45" cy="34" r="1"></circle><path d="M33,58H31a3.006,3.006,0,0,0-2.829,2h7.658A3.006,3.006,0,0,0,33,58Z"></path><path d="M14,58H12a3.006,3.006,0,0,0-2.829,2h7.658A3.006,3.006,0,0,0,14,58Z"></path><path d="M11.6,56.041c.135-.011.264-.041.4-.041h2a4.954,4.954,0,0,1,1.442.237L18.64,46H14.735Z"></path><circle cx="32" cy="34" r="1"></circle><polygon points="28.618 24 27 27.236 27 28 37 28 37 27.236 35.382 24 28.618 24"></polygon><path d="M39,21V19a1,1,0,0,0-1-1H26a1,1,0,0,0-1,1v2a1,1,0,0,0,1,1H38A1,1,0,0,0,39,21ZM29,21H27V19h2Zm8,0H35V19h2Z"></path><path d="M27.5,12a.5.5,0,0,0-.5.5V16h1V12.5A.5.5,0,0,0,27.5,12Z"></path><path d="M50,56h2c.138,0,.268.03.4.041L49.265,46H45.359l3.2,10.237A4.961,4.961,0,0,1,50,56Z"></path><path d="M36.5,12a.5.5,0,0,0-.5.5V16h1V12.5A.5.5,0,0,0,36.5,12Z"></path><path d="M11,28H25V27a1,1,0,0,1,.105-.447L26.382,24H26a3,3,0,0,1-3-3V19a3,3,0,0,1,2-2.816V12.5a2.5,2.5,0,0,1,5,0V16h4V12.5a2.5,2.5,0,0,1,5,0v3.684A3,3,0,0,1,41,19v2a3,3,0,0,1-3,3h-.382L38.9,26.553A1,1,0,0,1,39,27v1H53V25a21,21,0,0,0-42,0Z"></path><path d="M60,35a5.006,5.006,0,0,0-5-5H9a5.006,5.006,0,0,0-5,5v3H60ZM19,37a3,3,0,1,1,3-3A3,3,0,0,1,19,37Zm13,0a3,3,0,1,1,3-3A3,3,0,0,1,32,37Zm13,0a3,3,0,1,1,3-3A3,3,0,0,1,45,37Z"></path></g></svg>