<svg xmlns="http://www.w3.org/2000/svg" viewBox="0 0 64 64" x="0px" y="0px"><g><path d="M29,34.57a10.68,10.68,0,0,1-6,0V40a3,3,0,0,0,6,0Z"></path><path d="M23,43.97V60h6V43.97a4.884,4.884,0,0,1-6,0Z"></path><path d="M29.78,12.29A7.75,7.75,0,0,0,36,15a1,1,0,0,1,1,1v8a11.014,11.014,0,0,1-6,9.79v.42a2.963,2.963,0,0,0,4.82-1.22,1.035,1.035,0,0,1,.64-.62,1,1,0,0,1,.87.12A2.911,2.911,0,0,0,39,33a3.009,3.009,0,0,0,3-3,2.964,2.964,0,0,0-.51-1.67.99.99,0,0,1-.13-.88,1.035,1.035,0,0,1,.62-.64A2.968,2.968,0,0,0,44,24a3.009,3.009,0,0,0-3-3,2.876,2.876,0,0,0-.73.11.97.97,0,0,1-.87-.16,1.014,1.014,0,0,1-.4-.8V17A12.975,12.975,0,0,0,33.33,6.28a15.167,15.167,0,0,1-3.13,5.54C30.07,11.98,29.93,12.13,29.78,12.29Z"></path><path d="M34.64,44.95,31,40.7V57.08l3.68-6.76-2.23-1.49A.989.989,0,0,1,32,48.1a1.046,1.046,0,0,1,.29-.81Z"></path><path d="M10.02,26.81a1.035,1.035,0,0,1,.62.64.99.99,0,0,1-.13.88A2.964,2.964,0,0,0,10,30a3.009,3.009,0,0,0,3,3,2.911,2.911,0,0,0,1.67-.51.993.993,0,0,1,.87-.12,1.035,1.035,0,0,1,.64.62A2.963,2.963,0,0,0,21,34.21v-.42A11.014,11.014,0,0,1,15,24V17a1,1,0,0,1,1-1,17.117,17.117,0,0,0,11.83-4.59,11.815,11.815,0,0,0,.86-.9,13.332,13.332,0,0,0,2.84-5.26A12.991,12.991,0,0,0,13,17v3.15a1.014,1.014,0,0,1-.4.8.97.97,0,0,1-.87.16A2.876,2.876,0,0,0,11,21a3.009,3.009,0,0,0-3,3A2.968,2.968,0,0,0,10.02,26.81Z"></path><path d="M21,40.7l-3.64,4.25,2.35,2.34a1.046,1.046,0,0,1,.29.81.989.989,0,0,1-.45.73l-2.23,1.49L21,57.08Z"></path><path d="M35,24V16.96a9.468,9.468,0,0,1-6.69-3.3A19.161,19.161,0,0,1,17,17.97V24a9,9,0,0,0,18,0ZM20,21a2,2,0,1,1,2,2A2,2,0,0,1,20,21Zm6,8a5.01,5.01,0,0,1-3.532-1.458l1.4-1.424a3.082,3.082,0,0,0,4.256,0l1.4,1.424A5.01,5.01,0,0,1,26,29Zm4-6a2,2,0,1,1,2-2A2,2,0,0,1,30,23Z"></path><path d="M39.03,60H45V48.88a6.964,6.964,0,0,0-4.91-6.68l-7.07-2.21,3.74,4.36a1,1,0,0,1-.05,1.36l-2.14,2.13,1.98,1.33a.989.989,0,0,1,.33,1.31L31.68,60h5.35a4.846,4.846,0,0,1,.79-2.36A6.723,6.723,0,0,0,39,54a6.609,6.609,0,0,0-1.71-4.29l1.42-1.42A8.723,8.723,0,0,1,41,54a8.855,8.855,0,0,1-1.52,4.77A2.655,2.655,0,0,0,39.03,60Z"></path><path d="M14.17,57.64a4.756,4.756,0,0,1,.8,2.36h5.35l-5.2-9.52a.989.989,0,0,1,.33-1.31l1.98-1.33-2.14-2.13a1,1,0,0,1-.05-1.36l3.74-4.36L11.91,42.2A6.964,6.964,0,0,0,7,48.88V60h5.97a2.655,2.655,0,0,0-.45-1.23A8.855,8.855,0,0,1,11,54a8.723,8.723,0,0,1,2.29-5.71l1.42,1.42A6.609,6.609,0,0,0,13,54,6.794,6.794,0,0,0,14.17,57.64Z"></path><circle cx="53" cy="41" r="3"></circle><path d="M53,44H49v4h2V59a1,1,0,0,0,1,1h2a1,1,0,0,0,1-1V48h2V44Z"></path></g></svg>