<svg xmlns="http://www.w3.org/2000/svg" viewBox="0 0 64 64" x="0px" y="0px"><g><path d="M61.9,54.553,56,42.764V11a3,3,0,0,0-3-3H42.376A11.972,11.972,0,0,0,21.624,8H11a3,3,0,0,0-3,3V42.764L2.105,54.553A1,1,0,0,0,2,55v5a2,2,0,0,0,2,2H60a2,2,0,0,0,2-2V55A1,1,0,0,0,61.9,54.553ZM29,56h6v1H29ZM4.618,54l5-10H54.382l5,10ZM25,23.727v4.859L23.586,30h-1.77a3,3,0,1,0,0,2H24a1,1,0,0,0,.707-.293l2-2A1,1,0,0,0,27,29V24.9a11.91,11.91,0,0,0,4,1.054v4.235a3,3,0,1,0,2,0V25.949A11.91,11.91,0,0,0,37,24.9V29a1,1,0,0,0,.293.707l2,2A1,1,0,0,0,40,32h2.184a3,3,0,1,0,0-2h-1.77L39,28.586V23.727A11.982,11.982,0,0,0,44,14h6V38H14V14h6A11.982,11.982,0,0,0,25,23.727ZM20,31a1,1,0,1,1-1-1A1,1,0,0,1,20,31Zm13-7.051a9.944,9.944,0,0,1-3-.151V23h2.586l.414.414ZM33,33a1,1,0,1,1-1-1A1,1,0,0,1,33,33Zm11-2a1,1,0,1,1,1,1A1,1,0,0,1,44,31ZM42,14a9.951,9.951,0,0,1-2.262,6.324l-2.031-2.031A1,1,0,0,0,37,18H36v-.586l1.707-1.707A1,1,0,0,0,38,15V11a1,1,0,0,0-1-1H35.414L34,8.586V7.414L35.414,6h2.56A9.98,9.98,0,0,1,42,14ZM34.312,4.281c-.006,0-.014.007-.019.012l-2,2A1,1,0,0,0,32,7V9a1,1,0,0,0,.293.707l2,2A1,1,0,0,0,35,12h1v2.586l-1.707,1.707A1,1,0,0,0,34,17v2a1,1,0,0,0,1,1h1.586l1.738,1.738A9.985,9.985,0,0,1,35,23.539V23a1,1,0,0,0-.293-.707l-1-1A1,1,0,0,0,33,21H29a1,1,0,0,0-1,1v1.159a9.955,9.955,0,0,1-2.324-1.421l.031-.031A1,1,0,0,0,26,21V19h2a1.006,1.006,0,0,0,.555-.168l3-2A1,1,0,0,0,32,16V12a1,1,0,0,0-.293-.707l-1-1A1,1,0,0,0,30,10H29V8a1,1,0,0,0-.293-.707L26.855,5.441a9.829,9.829,0,0,1,7.457-1.16ZM25.239,6.653,27,8.414V11a1,1,0,0,0,1,1h1.586l.414.414v3.051L27.7,17H25a1,1,0,0,0-1,1v1.975A9.94,9.94,0,0,1,25.239,6.653ZM10,11a1,1,0,0,1,1-1h9.7a11.815,11.815,0,0,0-.519,2H13a1,1,0,0,0-1,1V39a1,1,0,0,0,1,1H51a1,1,0,0,0,1-1V13a1,1,0,0,0-1-1H43.819a11.815,11.815,0,0,0-.519-2H53a1,1,0,0,1,1,1V42H10ZM4,60V56H27v1a2,2,0,0,0,2,2h6a2,2,0,0,0,2-2V56H60v4Z"></path><rect x="10" y="50" width="2" height="2"></rect><rect x="14" y="50" width="2" height="2"></rect><rect x="18" y="50" width="28" height="2"></rect><rect x="48" y="50" width="2" height="2"></rect><rect x="52" y="50" width="2" height="2"></rect><rect x="15" y="46" width="2" height="2"></rect><rect x="11" y="46" width="2" height="2"></rect><rect x="19" y="46" width="2" height="2"></rect><rect x="23" y="46" width="2" height="2"></rect><rect x="27" y="46" width="2" height="2"></rect><rect x="31" y="46" width="2" height="2"></rect><rect x="35" y="46" width="2" height="2"></rect><rect x="39" y="46" width="2" height="2"></rect><rect x="43" y="46" width="2" height="2"></rect><rect x="47" y="46" width="2" height="2"></rect><rect x="51" y="46" width="2" height="2"></rect><rect x="58" y="30" width="2" height="2"></rect><rect x="4" y="30" width="2" height="2"></rect><rect x="4" y="24" width="2" height="2"></rect><rect x="4" y="18" width="2" height="2"></rect><rect x="58" y="24" width="2" height="2"></rect><rect x="58" y="18" width="2" height="2"></rect><rect x="57" y="5" width="2" height="2"></rect><rect x="5" y="5" width="2" height="2"></rect></g></svg>