<svg xmlns="http://www.w3.org/2000/svg" viewBox="0 0 64 64" x="0px" y="0px"><g data-name="World wide"><path d="M60,53.723l-5.008,2.861a2,2,0,0,1-1.984,0L48,53.723V60H60Z"></path><polygon points="58.985 52 49.015 52 54 54.848 58.985 52"></polygon><path d="M60,5.723,54.992,8.584a2,2,0,0,1-1.984,0L48,5.723V12H60Z"></path><polygon points="58.985 4 49.015 4 54 6.848 58.985 4"></polygon><path d="M16,5.723,10.992,8.584a2,2,0,0,1-1.984,0L4,5.723V12H16Z"></path><polygon points="14.985 4 5.015 4 10 6.848 14.985 4"></polygon><path d="M16,53.723l-5.008,2.861a2,2,0,0,1-1.984,0L4,53.723V60H16Z"></path><polygon points="14.985 52 5.015 52 10 54.848 14.985 52"></polygon><path d="M50.828,41.242,54,44.414V48h2V44a1,1,0,0,0-.293-.707l-4.029-4.029a20.618,20.618,0,0,0,0-14.528l4.029-4.029A1,1,0,0,0,56,20V16H54v3.586l-3.172,3.172a20.954,20.954,0,0,0-37.656,0L10,19.586V16H8v4a1,1,0,0,0,.293.707l4.029,4.029a20.618,20.618,0,0,0,0,14.528L8.293,43.293A1,1,0,0,0,8,44v4h2V44.414l3.172-3.172a20.954,20.954,0,0,0,37.656,0ZM32,51A19.015,19.015,0,0,1,14.668,39.746l2.039-2.039-1.414-1.414-1.414,1.414a18.966,18.966,0,0,1,0-11.414l1.414,1.414,1.414-1.414-2.039-2.039a18.973,18.973,0,0,1,34.664,0l-2.039,2.039,1.414,1.414,1.414-1.414a18.966,18.966,0,0,1,0,11.414l-1.414-1.414-1.414,1.414,2.039,2.039A19.015,19.015,0,0,1,32,51Z"></path><path d="M40,34a1,1,0,0,0-1,1,1.013,1.013,0,0,0,.15.507A1,1,0,0,1,38.28,37H37a1,1,0,0,0,0,2h3.479a10.953,10.953,0,0,0,2.33-5Z"></path><path d="M40,28h2.236a10.976,10.976,0,0,0-1.028-2H40a.952.952,0,0,0-.693.288A.975.975,0,0,0,39,27,1,1,0,0,0,40,28Z"></path><path d="M42.809,30H40a3,3,0,0,1-3-3,2.935,2.935,0,0,1,.893-2.126,2.88,2.88,0,0,1,1.68-.832A10.923,10.923,0,0,0,27.444,22H32a3,3,0,0,1,3,3,3.017,3.017,0,0,1-3,3H27a1,1,0,0,0-1,1,.965.965,0,0,0,.287.694A.978.978,0,0,0,27,30h3a3,3,0,0,1,3,3,3.017,3.017,0,0,1-3,3H27a1,1,0,0,0-1,1,.965.965,0,0,0,.287.694A.978.978,0,0,0,27,38a3,3,0,0,1,2.471,4.7A10.855,10.855,0,0,0,38.305,41H37a3,3,0,0,1,0-6,3,3,0,0,1,3-3h3A10.989,10.989,0,0,0,42.809,30Z"></path><path d="M27.692,41.714A.98.98,0,0,0,28,41a.965.965,0,0,0-.287-.694A.978.978,0,0,0,27,40a3.015,3.015,0,0,1-3-3,3,3,0,0,1,3-3h3a.957.957,0,0,0,.694-.288A.978.978,0,0,0,31,33a1,1,0,0,0-1-1H27a3.015,3.015,0,0,1-3-3,3,3,0,0,1,3-3h5a.957.957,0,0,0,.694-.288A.978.978,0,0,0,33,25a1,1,0,0,0-1-1H24.474a10.965,10.965,0,0,0,2.839,17.937A.919.919,0,0,0,27.692,41.714Z"></path></g></svg>