<svg xmlns="http://www.w3.org/2000/svg" viewBox="0 0 64 64" x="0px" y="0px"><g data-name="Bank"><path d="M46,52V28H45a1,1,0,0,1-1-1V24H20v3a1,1,0,0,1-1,1H18V52h3V39a11,11,0,0,1,22,0V52Z"></path><path d="M23,52h8V30.059A9.011,9.011,0,0,0,23,39Z"></path><path d="M33,30.059V52h8V39A9.011,9.011,0,0,0,33,30.059Z"></path><rect x="6" y="20" width="52" height="2"></rect><rect x="46" y="24" width="10" height="2"></rect><rect x="48" y="28" width="6" height="24"></rect><circle cx="32" cy="11" r="3"></circle><rect x="4" y="58" width="56" height="2"></rect><path d="M4,11.762V18H60V11.762L32,4.037ZM37,11a5,5,0,1,1-5-5A5.006,5.006,0,0,1,37,11Z"></path><rect x="8" y="24" width="10" height="2"></rect><rect x="10" y="28" width="6" height="24"></rect><rect x="7" y="54" width="50" height="2"></rect></g></svg>