<svg xmlns="http://www.w3.org/2000/svg" viewBox="0 0 64 64" x="0px" y="0px"><g data-name="Tamping-Coffee Maker-Hot Drink-Coffee-Coffee Shop"><path d="M61,15H24a1,1,0,0,0-1,1v1H21V16a1,1,0,0,0,1-1V11a1,1,0,0,0-1-1H3a1,1,0,0,0-1,1v4a1,1,0,0,0,1,1v7a5.017,5.017,0,0,0,4,4.9V31a1,1,0,0,0,1,1H9v.46A9.95,9.95,0,0,0,2,42a1,1,0,0,0,1,1H7a1,1,0,0,0,1-1,4,4,0,0,1,8,0,1,1,0,0,0,1,1h4a1,1,0,0,0,1-1,9.95,9.95,0,0,0-7-9.54V32h1a1,1,0,0,0,1-1V27.9A5.017,5.017,0,0,0,21,23h2v1a1,1,0,0,0,1,1H61a1,1,0,0,0,1-1V16A1,1,0,0,0,61,15ZM19.94,41H17.92A6,6,0,0,0,6.08,41H4.06a7.944,7.944,0,0,1,6.16-6.79,1,1,0,0,0,.78-.98V32h2v1.23a1,1,0,0,0,.78.98A7.944,7.944,0,0,1,19.94,41ZM15,30H9V28h6Zm4-7a3.009,3.009,0,0,1-3,3H8a3.009,3.009,0,0,1-3-3V16H19Zm1-9H4V12H20Zm3,7H21V19h2Zm37,2H25V17H60Z"></path><path d="M18.177,46.432C17.522,47.38,16,49.722,16,51a3,3,0,0,0,6,0c0-1.278-1.522-3.62-2.177-4.568A1.038,1.038,0,0,0,18.177,46.432ZM19,52a1,1,0,0,1-1-1,7.457,7.457,0,0,1,1-2.147A7.462,7.462,0,0,1,20,51,1,1,0,0,1,19,52Z"></path><path d="M4.177,46.432C3.522,47.38,2,49.722,2,51a3,3,0,0,0,6,0c0-1.278-1.522-3.62-2.177-4.568A1.038,1.038,0,0,0,4.177,46.432ZM5,52a1,1,0,0,1-1-1,7.457,7.457,0,0,1,1-2.147A7.462,7.462,0,0,1,6,51,1,1,0,0,1,5,52Z"></path></g></svg>