<svg xmlns="http://www.w3.org/2000/svg" viewBox="0 0 64 64" x="0px" y="0px"><g data-name="Online Shopping"><rect x="10" y="52" width="2" height="2"></rect><rect x="14" y="52" width="2" height="2"></rect><rect x="48" y="52" width="2" height="2"></rect><rect x="52" y="52" width="2" height="2"></rect><rect x="15" y="48" width="2" height="2"></rect><rect x="11" y="48" width="2" height="2"></rect><rect x="19" y="48" width="2" height="2"></rect><rect x="23" y="48" width="2" height="2"></rect><rect x="27" y="48" width="2" height="2"></rect><rect x="31" y="48" width="2" height="2"></rect><rect x="35" y="48" width="2" height="2"></rect><rect x="39" y="48" width="2" height="2"></rect><rect x="43" y="48" width="2" height="2"></rect><rect x="47" y="48" width="2" height="2"></rect><rect x="51" y="48" width="2" height="2"></rect><path d="M61.923,56.615,57,44.8V17a3,3,0,0,0-3-3H49v2h5a1,1,0,0,1,1,1V44H9V17a1,1,0,0,1,1-1V14a3,3,0,0,0-3,3V44.8L2.077,56.615A1,1,0,0,0,2,57v3a2,2,0,0,0,2,2H60a2,2,0,0,0,2-2V57A1,1,0,0,0,61.923,56.615ZM55.333,46,59.5,56H40.618L38.9,52.553A1,1,0,0,0,38,52H26a1,1,0,0,0-.895.553L23.382,56H4.5L8.667,46ZM38.382,56H25.618l1-2H37.382ZM4,60V58H60v2Z"></path><rect x="18" y="52" width="4" height="2"></rect><rect x="42" y="52" width="4" height="2"></rect><path d="M14,40H32a2.954,2.954,0,0,0,.985-.189A2.974,2.974,0,0,0,34,40H50a3,3,0,0,0,3-3V19a1,1,0,0,0-1-1H47V14a5,5,0,0,0-10,0v4H35V13a1,1,0,0,0-1-1H30V9A7,7,0,0,0,16,9v3H12a1,1,0,0,0-1,1V37A3,3,0,0,0,14,40Zm-1-3V36H31v1a2.966,2.966,0,0,0,.184,1H14A1,1,0,0,1,13,37Zm37,1H34a1,1,0,0,1-1-1V36H51v1A1,1,0,0,1,50,38ZM39,14a3,3,0,0,1,6,0v4H39Zm0,10V20h6v4h2V20h4V34H33V20h4v4ZM18,9A5,5,0,0,1,28,9v3H18Zm-2,5v5h2V14H28v5h2V14h3v4H32a1,1,0,0,0-1,1V34H13V14Z"></path></g></svg>