<svg xmlns="http://www.w3.org/2000/svg" viewBox="0 0 64 64" x="0px" y="0px"><g><path d="M43.751,33.453A5,5,0,0,0,34,35a4.85,4.85,0,0,0,.1,1H28V29.894a4.923,4.923,0,0,0,2.671-.187,4.992,4.992,0,0,0,2.16-7.921A4.992,4.992,0,0,0,28,20.106V15a1,1,0,0,0-1-1H9a3,3,0,0,0-3,3V55a3,3,0,0,0,3,3H49a3,3,0,0,0,3-3V37a1,1,0,0,0-1-1H43.9A4.884,4.884,0,0,0,43.751,33.453ZM8,17a1,1,0,0,1,1-1H26v5.55a1,1,0,0,0,1.5.867,2.992,2.992,0,1,1,2.5,5.4,2.92,2.92,0,0,1-2.5-.238,1,1,0,0,0-1.5.866V36H21.9a4.987,4.987,0,0,0-1.782-4.913,5.031,5.031,0,0,0-4.285-.953,4.977,4.977,0,0,0-3.621,3.419A5.088,5.088,0,0,0,12.1,36H8ZM26.5,49.594a1,1,0,0,0-.5.866V56H9a1,1,0,0,1-1-1V38h5.54a1,1,0,0,0,.866-1.5,3.008,3.008,0,0,1-.276-2.391,2.949,2.949,0,0,1,2.146-2.026A3.006,3.006,0,0,1,20,35a2.97,2.97,0,0,1-.407,1.5A1,1,0,0,0,20.46,38H26v5.54a1,1,0,0,0,1.5.867,3.035,3.035,0,0,1,3.849.725,3,3,0,0,1,.569,2.592,2.949,2.949,0,0,1-2.026,2.146,3.007,3.007,0,0,1-2.391-.276A1,1,0,0,0,26.5,49.594ZM50,38V55a1,1,0,0,1-1,1H28V51.9a5.075,5.075,0,0,0,2.447-.105,4.977,4.977,0,0,0,3.419-3.621A5,5,0,0,0,28,42.1V38h7.555a1,1,0,0,0,.864-1.5A2.946,2.946,0,0,1,36,35a3,3,0,0,1,5.848-.932,2.884,2.884,0,0,1-.267,2.429,1,1,0,0,0,.864,1.5Z"></path><path d="M59,2H39a1,1,0,0,0-1,1V9.54a1,1,0,0,0,1.5.866,3.007,3.007,0,0,1,2.391-.276,2.949,2.949,0,0,1,2.026,2.146,3,3,0,0,1-.569,2.592,3.035,3.035,0,0,1-3.849.725,1,1,0,0,0-1.5.867V25a1,1,0,0,0,1,1h8.54a1,1,0,0,0,.866-1.5,3.008,3.008,0,0,1-.276-2.391,2.949,2.949,0,0,1,2.146-2.026A3.006,3.006,0,0,1,54,23a2.97,2.97,0,0,1-.407,1.5A1,1,0,0,0,54.46,26H61a1,1,0,0,0,1-1V5A3,3,0,0,0,59,2Zm1,22H55.9a4.987,4.987,0,0,0-1.782-4.913,5,5,0,0,0-7.906,2.466A5.088,5.088,0,0,0,46.1,24H40V17.9a5,5,0,0,0,2.447-9.688A5.075,5.075,0,0,0,40,8.1V4H59a1,1,0,0,1,1,1Z"></path><path d="M54,59a1,1,0,0,1-1,1H5a1,1,0,0,1-1-1V13a1,1,0,0,1,1-1H36V10H5a3,3,0,0,0-3,3V59a3,3,0,0,0,3,3H53a3,3,0,0,0,3-3V28H54Z"></path></g></svg>