<svg xmlns="http://www.w3.org/2000/svg" viewBox="0 0 64 64" x="0px" y="0px"><g data-name="No plastic Bag-Pollution-Ban-Plastic-Bag"><path d="M32,26A13,13,0,1,0,45,39,13.015,13.015,0,0,0,32,26Zm6.063,22.172A10.993,10.993,0,0,1,22.828,32.937a1,1,0,0,1,1.539-.154l13.85,13.85a1,1,0,0,1-.154,1.539Zm3.109-3.109a1,1,0,0,1-.733.442c-.033,0-.066,0-.1,0a1,1,0,0,1-.707-.293l-13.85-13.85a1,1,0,0,1,.154-1.539A10.993,10.993,0,0,1,41.172,45.063Z"></path><path d="M32,30a8.935,8.935,0,0,0-3.877.879l12,12A9,9,0,0,0,32,30Z"></path><path d="M23,39a9,9,0,0,0,12.877,8.121l-12-12A8.935,8.935,0,0,0,23,39Z"></path><rect x="45" y="4" width="6" height="3"></rect><path d="M51,9H45v6a3,3,0,0,1-3,3H23c-1.592,0-4-1.2-4-3V9H13V57a3,3,0,0,0,3,3H48a3,3,0,0,0,3-3ZM32,54A15,15,0,1,1,47,39,15.017,15.017,0,0,1,32,54Z"></path><rect x="13" y="4" width="6" height="3"></rect></g></svg>