<svg xmlns="http://www.w3.org/2000/svg" viewBox="0 0 64 64" x="0px" y="0px"><title>Entertain-Music-Idea</title><g><path d="M48,60H16V36a1,1,0,0,0-1-1H6.271L13.786,4H48V8h2V3a1,1,0,0,0-1-1H13a1,1,0,0,0-.972.764l-8,33A1,1,0,0,0,5,37h9V61a1,1,0,0,0,1,1H49a1,1,0,0,0,1-1V34H48Z"></path><path d="M20,15a2,2,0,0,1-4,0,1,1,0,0,0-2,0,4,4,0,0,0,8,0,1,1,0,0,0-2,0Z"></path><path d="M49,10A11,11,0,1,0,60,21,11.013,11.013,0,0,0,49,10Zm0,20a9,9,0,1,1,9-9A9.01,9.01,0,0,1,49,30Z"></path><path d="M54.469,20.117l-8-4.243A1,1,0,0,0,45,16.757v8.486a1,1,0,0,0,1.469.883l8-4.243a1,1,0,0,0,0-1.766ZM47,23.581V18.419L51.865,21Z"></path></g></svg>