<svg xmlns="http://www.w3.org/2000/svg" viewBox="0 0 64 64" x="0px" y="0px"><g><rect x="36" y="20" width="4" height="2"></rect><rect x="25" y="4" width="8" height="2"></rect><rect x="4" y="54" width="12" height="6"></rect><path d="M19.485,46H41a1,1,0,0,0,1-1V36H32a2,2,0,0,1-2-2V16a2,2,0,0,1,2-2H42V5a1,1,0,0,0-1-1H35V6a2,2,0,0,1-2,2H25a2,2,0,0,1-2-2V4H17a1,1,0,0,0-1,1V23.725l2.434-4.215a4,4,0,0,1,6.933,4l-6.646,11.5.507,1.512A14.9,14.9,0,0,1,20,41.27v.85A14.977,14.977,0,0,1,19.485,46Z"></path><path d="M16.63,34.9v-.051a1.058,1.058,0,0,1,.133-.454l6.87-11.89a2,2,0,1,0-3.468-2L12.666,33.5l-1.732-1L14,27.189V15.01h-.19a2.99,2.99,0,0,0-2.592,1.5L6.206,25.181A8.986,8.986,0,0,0,5,29.68V52H15V51a1,1,0,0,1,.142-.514l1-1.67A13,13,0,0,0,18,42.12v-.85a12.91,12.91,0,0,0-.668-4.112L16.71,35.3a1.007,1.007,0,0,1-.08-.393V34.9Z"></path><circle cx="55" cy="21" r="1"></circle><rect x="32" y="32" width="28" height="2"></rect><path d="M60,16H32V26H60ZM42,23a1,1,0,0,1-1,1H35a1,1,0,0,1-1-1V19a1,1,0,0,1,1-1h6a1,1,0,0,1,1,1Zm13,1a2.981,2.981,0,0,1-2-.78,3,3,0,1,1,0-4.44A3,3,0,1,1,55,24Z"></path><rect x="32" y="28" width="28" height="2"></rect><circle cx="51" cy="21" r="1"></circle></g></svg>