<svg xmlns="http://www.w3.org/2000/svg" data-name="Network-Server-Storage-Communication-File Sharing" viewBox="0 0 64 64" x="0px" y="0px"><path d="M59,49H51a2.006,2.006,0,0,0-2,2v8a2.006,2.006,0,0,0,2,2h8a2.006,2.006,0,0,0,2-2V51A2.006,2.006,0,0,0,59,49Z"></path><path d="M59,26H51a2.006,2.006,0,0,0-2,2v8a2.006,2.006,0,0,0,2,2h8a2.006,2.006,0,0,0,2-2V28A2.006,2.006,0,0,0,59,26Z"></path><path d="M59,3H51a2.006,2.006,0,0,0-2,2v8a2.006,2.006,0,0,0,2,2h8a2.006,2.006,0,0,0,2-2V5A2.006,2.006,0,0,0,59,3Z"></path><path d="M4,35c0,1.89,4.28,4,10,4s10-2.11,10-4V31.41C21.89,32.99,18.27,34,14,34S6.11,32.99,4,31.41Zm5,0h2v2H9ZM5,34H7v2H5Z"></path><path d="M4,28c0,1.89,4.28,4,10,4s10-2.11,10-4V24.41C21.89,25.99,18.27,27,14,27S6.11,25.99,4,24.41Zm5,0h2v2H9ZM5,27H7v2H5Z"></path><path d="M4,42c0,1.89,4.28,4,10,4s10-2.11,10-4V38.41C21.89,39.99,18.27,41,14,41S6.11,39.99,4,38.41Zm5,0h2v2H9ZM5,41H7v2H5Z"></path><path d="M24,21c0-1.89-4.28-4-10-4S4,19.11,4,21s4.28,4,10,4S24,22.89,24,21ZM8,20H20v2H8Z"></path><path d="M15,15H13V9a1,1,0,0,1,1-1H49v2H15Z"></path><path d="M47,56H14a1,1,0,0,1-1-1V48h2v6H47Z"></path><rect x="54" y="17" width="2" height="7"></rect><rect x="54" y="40" width="2" height="7"></rect><rect x="31" y="4" width="2" height="2"></rect><rect x="35" y="4" width="2" height="2"></rect><rect x="39" y="4" width="2" height="2"></rect><rect x="27" y="4" width="2" height="2"></rect><rect x="23" y="4" width="2" height="2"></rect><rect x="31" y="58" width="2" height="2"></rect><rect x="35" y="58" width="2" height="2"></rect><rect x="39" y="58" width="2" height="2"></rect><rect x="27" y="58" width="2" height="2"></rect><rect x="23" y="58" width="2" height="2"></rect></svg>