<svg xmlns="http://www.w3.org/2000/svg" viewBox="0 0 64 64" x="0px" y="0px"><title>Player Chang</title><g data-name="Player Chang"><path d="M28,18V12a1,1,0,0,0-1-1H3a1,1,0,0,0-1,1v6a1,1,0,0,0,1,1H5V34a1,1,0,0,0,1,1H24a1,1,0,0,0,1-1V19h2A1,1,0,0,0,28,18ZM17.816,13a2.982,2.982,0,0,1-5.632,0ZM26,17H24a1,1,0,0,0-1,1V33H7V18a1,1,0,0,0-1-1H4V13h6.1a5,5,0,0,0,9.8,0H26Z"></path><rect x="17" y="18" width="4" height="2"></rect><path d="M24,37H6a1,1,0,0,0-1,1V52a1,1,0,0,0,1,1H24a1,1,0,0,0,1-1V38A1,1,0,0,0,24,37ZM23,51H16V45H14v6H7V39H23Z"></path><path d="M61,11H37a1,1,0,0,0-1,1v6a1,1,0,0,0,1,1h2V34a1,1,0,0,0,1,1H58a1,1,0,0,0,1-1V19h2a1,1,0,0,0,1-1V12A1,1,0,0,0,61,11Zm-9.184,2a2.982,2.982,0,0,1-5.632,0ZM60,17H58a1,1,0,0,0-1,1V33H41V18a1,1,0,0,0-1-1H38V13h6.1a5,5,0,0,0,9.8,0H60Z"></path><rect x="51" y="18" width="4" height="2"></rect><path d="M58,37H40a1,1,0,0,0-1,1V52a1,1,0,0,0,1,1H58a1,1,0,0,0,1-1V38A1,1,0,0,0,58,37ZM57,51H50V45H48v6H41V39H57Z"></path><path d="M31.219,32.625A1,1,0,0,0,32,33a1.027,1.027,0,0,0,.331-.056A1,1,0,0,0,33,32V31h3a1,1,0,0,0,1-1V24a1,1,0,0,0-1-1H33V22a1,1,0,0,0-1.781-.625l-4,5a1,1,0,0,0,0,1.25ZM32,23.6V25h3v4H32v1.4L29.28,27Z"></path><path d="M32.781,35.375A1,1,0,0,0,31,36v1H28a1,1,0,0,0-1,1v6a1,1,0,0,0,1,1h3v1a1,1,0,0,0,.669.944A1.027,1.027,0,0,0,32,47a1,1,0,0,0,.781-.375l4-5a1,1,0,0,0,0-1.25ZM32,44.4V43H29V39h3V37.6L34.72,41Z"></path></g></svg>