<svg xmlns="http://www.w3.org/2000/svg" viewBox="0 0 64 64" x="0px" y="0px"><g><path d="M20.17,59.63a3.6,3.6,0,0,1,.22.37h9.58l-6.85-8.88a.984.984,0,0,1,.04-1.27l1.57-1.79-2.62-1.51a1.028,1.028,0,0,1-.49-.72,1.006,1.006,0,0,1,.27-.83l1.4-1.48L17.91,45.2A6.964,6.964,0,0,0,13,51.88V60h5.08a8.137,8.137,0,0,1,1.21-9.71l1.42,1.42A6.609,6.609,0,0,0,19,56,6.735,6.735,0,0,0,20.17,59.63Z"></path><path d="M21,19H17.86l-.5,3.37A4,4,0,0,1,21,20Z"></path><path d="M19.59,25.41A1.983,1.983,0,0,0,21,26V22a2.006,2.006,0,0,0-2,2A1.983,1.983,0,0,0,19.59,25.41Z"></path><path d="M15.25,36.4a1,1,0,0,0,.74,1.11,83.292,83.292,0,0,0,10.95,2.15L27,39.6V36.79A11.028,11.028,0,0,1,21.05,28H21a3.963,3.963,0,0,1-3.96-3.55Z"></path><path d="M23,26.78l6.84-1.37a11.214,11.214,0,0,1,4.32,0L41,26.78V21.89A5.006,5.006,0,0,1,37.42,19H26.58A5.006,5.006,0,0,1,23,21.89ZM36,21a2,2,0,1,1-2,2A2,2,0,0,1,36,21Zm-8,0a2,2,0,1,1-2,2A2,2,0,0,1,28,21Z"></path><path d="M51,60V51.88a6.943,6.943,0,0,0-4.91-6.67l-5.38-1.69L42.11,45a1.006,1.006,0,0,1,.27.83,1.028,1.028,0,0,1-.49.72l-2.62,1.51,1.57,1.79a.984.984,0,0,1,.04,1.27L34.03,60h9.58c.07-.12.13-.24.21-.36A6.723,6.723,0,0,0,45,56a6.609,6.609,0,0,0-1.71-4.29l1.42-1.42A8.137,8.137,0,0,1,45.92,60Z"></path><path d="M32,10a9,9,0,0,0-6.68,3H38.68A9,9,0,0,0,32,10Z"></path><path d="M37.21,46.94l2.58-1.49L36.62,42.1,33.77,57.08l5.03-6.53-1.84-2.08a1,1,0,0,1-.23-.83A.97.97,0,0,1,37.21,46.94Z"></path><path d="M29.33,8.34a10.654,10.654,0,0,1,5.34,0A2.95,2.95,0,0,0,35,7a3,3,0,0,0-6,0A2.95,2.95,0,0,0,29.33,8.34Z"></path><rect x="17" y="15" width="30" height="2"></rect><path d="M39.06,32.57l-5.17-.58.22-1.98,6.09.68a8.531,8.531,0,0,0,.62-1.91l-7.06-1.41a9.065,9.065,0,0,0-3.52,0l-7.06,1.41a8.89,8.89,0,0,0,.62,1.91l6.09-.68.22,1.98-5.16.58a8.97,8.97,0,0,0,13.41.79A8.777,8.777,0,0,0,39.06,32.57Z"></path><path d="M29.38,41.9l.15.78a2.962,2.962,0,0,0,4.95-.03l.14-.75c-.89.06-1.76.1-2.62.1S30.27,41.96,29.38,41.9Z"></path><path d="M35,37.58a10.8,10.8,0,0,1-6-.01v2.3c1.02.08,2.03.13,3,.13s1.98-.05,3-.13Z"></path><path d="M41,19.83V19H39.77A2.986,2.986,0,0,0,41,19.83Z"></path><path d="M27.38,42.1l-3.17,3.35,2.58,1.49a.97.97,0,0,1,.48.7,1,1,0,0,1-.23.83L25.2,50.55l5.03,6.53Z"></path><path d="M33.91,45.61a4.872,4.872,0,0,1-3.82,0L32,55.65Z"></path><path d="M46.64,22.37,46.14,19H43v1A4,4,0,0,1,46.64,22.37Z"></path><path d="M43,26a2.015,2.015,0,0,0,2-2,2.006,2.006,0,0,0-2-2Z"></path><path d="M42.95,28a10.919,10.919,0,0,1-3.17,6.78A11.064,11.064,0,0,1,37,36.79V39.6l.06.06a83.292,83.292,0,0,0,10.95-2.15,1,1,0,0,0,.74-1.11L46.96,24.45A3.963,3.963,0,0,1,43,28Z"></path><path d="M23,19.83A2.986,2.986,0,0,0,24.23,19H23Z"></path></g></svg>