<svg xmlns="http://www.w3.org/2000/svg" viewBox="0 0 64 64" x="0px" y="0px"><g><path d="M11,48H37a1,1,0,0,0,1-1V3a1,1,0,0,0-1-1H11a1,1,0,0,0-1,1V47A1,1,0,0,0,11,48Zm1-38h8v3a1,1,0,0,0,1.555.832L24,12.2l2.445,1.63A1,1,0,0,0,28,13V10h8V24H12ZM22,4h4v7.131l-1.445-.963a1,1,0,0,0-1.11,0L22,11.131ZM36,30H28V26h8ZM22,26h4v7.131l-1.445-.963a1,1,0,0,0-1.11,0L22,33.131Zm-2,0v4H12V26ZM12,46V32h8v3a1,1,0,0,0,1.555.832L24,34.2l2.445,1.63A1,1,0,0,0,28,35V32h8V46ZM36,8H28V4h8ZM20,4V8H12V4Z"></path><path d="M55,2H49a3,3,0,0,0-2.816,2H44a1,1,0,0,0-.9.553l-1,2A1,1,0,0,0,42,7V50H9a2.993,2.993,0,0,0-.421,5.958A3.961,3.961,0,0,0,8,58a4,4,0,0,0,8,0,3.959,3.959,0,0,0-.556-2H34.556A3.959,3.959,0,0,0,34,58a4,4,0,0,0,8,0,3.961,3.961,0,0,0-.579-2.042A3,3,0,0,0,44,53V7.236L44.618,6h1.566A3,3,0,0,0,49,8h6a3,3,0,0,0,0-6ZM14,58a2,2,0,1,1-2-2A2,2,0,0,1,14,58Zm24,2a2,2,0,1,1,2-2A2,2,0,0,1,38,60Zm4-7a1,1,0,0,1-1,1H9a1,1,0,0,1,0-2H42ZM55,6H49a1,1,0,0,1,0-2h6a1,1,0,0,1,0,2Z"></path></g></svg>