<svg xmlns="http://www.w3.org/2000/svg" viewBox="0 0 64 64" x="0px" y="0px"><g><path d="M15,24H29a1,1,0,0,0,1-1V10H27a3,3,0,0,1-3-3V4H15a1,1,0,0,0-1,1V23A1,1,0,0,0,15,24ZM16,8h6v2H16Zm0,4H28v2H16Zm0,4H28v2H16Zm0,4H28v2H16Z"></path><path d="M28.586,8,26,5.414V7a1,1,0,0,0,1,1Z"></path><path d="M35,60H49a1,1,0,0,0,1-1V46H47a3,3,0,0,1-3-3V40H35a1,1,0,0,0-1,1V59A1,1,0,0,0,35,60Zm1-16h6v2H36Zm0,4H48v2H36Zm0,4H48v2H36Zm0,4H48v2H36Z"></path><path d="M48.586,44,46,41.414V43a1,1,0,0,0,1,1Z"></path><rect x="35" y="14" width="6" height="2"></rect><rect x="23" y="50" width="6" height="2"></rect><rect x="56" y="40" width="2" height="2"></rect><rect x="56" y="36" width="2" height="2"></rect><rect x="56" y="44" width="2" height="2"></rect><path d="M8,16h2V14H7a1,1,0,0,0-1,1v3H8Z"></path><rect x="6" y="20" width="2" height="2"></rect><rect x="6" y="24" width="2" height="2"></rect><rect x="6" y="28" width="2" height="2"></rect><path d="M56,50H54v2h3a1,1,0,0,0,1-1V48H56Z"></path><polygon points="59.234 24 57.434 21 48.566 21 46.766 24 59.234 24"></polygon><polygon points="49.22 19 56.78 19 56.18 16 49.82 16 49.22 19"></polygon><path d="M47,14H59a1,1,0,0,0,0-2H47a1,1,0,0,0,0,2Z"></path><path d="M57.948,6.316A1,1,0,0,1,57,7H55a1,1,0,0,1-.948-.684L53.279,4h-.558l-.773,2.316A1,1,0,0,1,51,7H49a1,1,0,0,1-.948-.684L47.279,4H46V6.764L47.618,10H58.382L60,6.764V4H58.721Z"></path><rect x="46" y="26" width="14" height="2"></rect><path d="M5,46H17a1,1,0,0,0,0-2H5a1,1,0,0,0,0,2Z"></path><polygon points="7.22 51 14.78 51 14.18 48 7.82 48 7.22 51"></polygon><rect x="4" y="58" width="14" height="2"></rect><path d="M15.948,38.316A1,1,0,0,1,15,39H13a1,1,0,0,1-.948-.684L11.279,36h-.558l-.773,2.316A1,1,0,0,1,9,39H7a1,1,0,0,1-.948-.684L5.279,36H4v2.764L5.618,42H16.382L18,38.764V36H16.721Z"></path><polygon points="17.234 56 15.434 53 6.566 53 4.766 56 17.234 56"></polygon></g></svg>