<svg xmlns="http://www.w3.org/2000/svg" viewBox="0 0 32 32" x="0px" y="0px"><g data-name="Smartphone-Charge Battery"><polygon points="20 24.586 24.293 20.293 25.707 21.707 24.414 23 26 23 26 20 20 20 20 24.586"></polygon><polygon points="20 30 26 30 26 24.414 21.707 28.707 20.293 27.293 22.586 25 20 25 20 30"></polygon><rect x="22" y="18" width="2" height="1"></rect><path d="M21,3a1,1,0,0,0-1-1H8A1,1,0,0,0,7,3V4H21Z"></path><path d="M7,26v3a1,1,0,0,0,1,1H18V26Zm8,3H13V27h2ZM7,6V24H18V19a1,1,0,0,1,1-1h1V17a1,1,0,0,1,1-1V6Zm4,10H9V14h2Zm4,0H13V14h2Zm4,0H17V14h2Z"></path></g></svg>