<svg xmlns="http://www.w3.org/2000/svg" viewBox="0 0 64 64" x="0px" y="0px"><g><path d="M39.13,49.86a1,1,0,1,0-1.41,1.41l1.41,1.42a1.008,1.008,0,0,0,1.42,0,1.014,1.014,0,0,0,0-1.42Z"></path><path d="M41.96,47.03a1.024,1.024,0,0,0-.71-.29,1.007,1.007,0,0,0-1,1,.96.96,0,0,0,.3.7l1.41,1.42a1.014,1.014,0,0,0,1.41,0,1,1,0,0,0,0-1.41Z"></path><path d="M44.79,44.2a1.024,1.024,0,0,0-.71-.29,1.042,1.042,0,0,0-.71.29,1.008,1.008,0,0,0,0,1.42l1.42,1.41a1,1,0,1,0,1.41-1.41Z"></path><path d="M25.7,36.42l1.41-1.41a3.075,3.075,0,0,0,4.24,0,1.037,1.037,0,0,1,1.42,0l4.24,4.24a1.014,1.014,0,0,0,1.41,0,.978.978,0,0,0,0-1.41L30.59,30H27.17l-8.9,8.9,3.54,3.54,5.12-5.13A5.076,5.076,0,0,1,25.7,36.42Z"></path><polygon points="23.93 27.59 15.44 36.07 16.86 37.49 25.34 29 23.93 27.59"></polygon><polygon points="38.07 31.83 46.56 40.31 47.97 38.9 39.49 30.41 38.07 31.83"></polygon><path d="M36.3,52.69a1,1,0,1,0-1.41,1.41l1.41,1.42a1.027,1.027,0,0,0,1.42,0,1.008,1.008,0,0,0,0-1.42Z"></path><path d="M36.3,48.45a2.988,2.988,0,0,1,1.97-.84,2.961,2.961,0,0,1,2.83-2.86,2.906,2.906,0,0,1,.86-1.96,3.007,3.007,0,0,1,2.89-.77l.3-.29L39.9,36.49a3,3,0,0,1-.06,4.18,3.075,3.075,0,0,1-4.24,0l-3.61-3.61a4.949,4.949,0,0,1-2.76.83c-.02,0-.03-.01-.05-.01l-6.67,6.68a1,1,0,0,0,0,1.41,1.027,1.027,0,0,0,1.42,0l2.83-2.83,1.41,1.42-2.83,2.82a1,1,0,1,0,1.42,1.42l2.83-2.83L31,47.38l-2.83,2.83a1.014,1.014,0,0,0,0,1.42,1.032,1.032,0,0,0,1.4.01c0-.01,0-.01.01-.01l2.83-2.83,1.42,1.41v.01L31,53.04a.01.01,0,0,1-.01.01.993.993,0,0,0,.01,1.4.951.951,0,0,0,.7.29.972.972,0,0,0,.71-.29l.3-.29a3.008,3.008,0,0,1,.76-2.89,3.046,3.046,0,0,1,1.97-.86A3,3,0,0,1,36.3,48.45Z"></path><path d="M60,7a3.009,3.009,0,0,0-3-3H7A3.009,3.009,0,0,0,4,7v3.03H60ZM10,8H8V6h2Zm4,0H12V6h2Zm4,0H16V6h2Z"></path><path d="M60,12.03H4V57a3.009,3.009,0,0,0,3,3H57a3.009,3.009,0,0,0,3-3ZM40.707,17.707l-5,5-1.414-1.414,5-5ZM35,16a5.048,5.048,0,0,1,1.249.157l-.5,1.938a3,3,0,1,0,2.154,3.655l1.938.5A5,5,0,1,1,35,16ZM22,20h2v2H22ZM10,22H8V20h2Zm2,1h2a1,1,0,0,0,1,1h2a1,1,0,0,0,0-2H15a3,3,0,0,1,0-6V15h2v1a3,3,0,0,1,3,3H18a1,1,0,0,0-1-1H15a1,1,0,0,0,0,2h2a3,3,0,0,1,0,6v1H15V26A3,3,0,0,1,12,23ZM50.09,39.61l-2.81,2.81c-.01.01-.01.01-.01.02l-.71.7,1.06,1.06a2.988,2.988,0,0,1-1.97,5.11,2.963,2.963,0,0,1-2.83,2.83,2.944,2.944,0,0,1-2.83,2.82,2.91,2.91,0,0,1-.86,1.97,2.994,2.994,0,0,1-4.24,0l-1.06-1.06a2.988,2.988,0,0,1-5.11-1.96,2.983,2.983,0,0,1-2.83-2.83,2.964,2.964,0,0,1-1.96-.87,2.906,2.906,0,0,1-.86-1.96,2.973,2.973,0,0,1-2.55-4.27l-7.2-7.2a1.008,1.008,0,0,1,0-1.42l9.9-9.9a1.008,1.008,0,0,1,1.42,0L27.17,28H31a1.033,1.033,0,0,1,.71.29l2.92,2.92,1.53-.3,2.62-2.62a1.034,1.034,0,0,1,1.41,0l9.9,9.9A1.008,1.008,0,0,1,50.09,39.61ZM56,24H44V22H56Zm0-4H44V18H56Z"></path></g></svg>