<svg xmlns="http://www.w3.org/2000/svg" viewBox="0 0 64 64" x="0px" y="0px"><g><polygon points="53 44 55 44 55 50 59 50 59 44 61 44 57 39 53 44"></polygon><polygon points="40 38 42 38 42 44 46 44 46 38 48 38 44 33 40 38"></polygon><circle cx="19" cy="21" r="2"></circle><circle cx="9" cy="25" r="2"></circle><rect x="7" y="40" width="2" height="12"></rect><rect x="5" y="54" width="28" height="2"></rect><path d="M5,35.768V38H33V35.768L19,32.035ZM20,36H18V34h2Z"></path><rect x="11" y="40" width="2" height="12"></rect><rect x="29" y="40" width="2" height="12"></rect><rect x="4" y="58" width="30" height="2"></rect><rect x="15" y="40" width="8" height="12"></rect><rect x="25" y="40" width="2" height="12"></rect><path d="M36,11c0-.043.008-.124.008-.124L36.867,4h-5.19L30,8.192V11a3,3,0,0,0,6,0Z"></path><rect x="46" y="20" width="8" height="4"></rect><path d="M58,28V15.9A5,5,0,0,1,53,14a5,5,0,0,1-8,0,5,5,0,0,1-8,0,5,5,0,0,1-5,1.9V28h2V19a1,1,0,0,1,1-1h6a1,1,0,0,1,1,1v9ZM44,19a1,1,0,0,1,1-1H55a1,1,0,0,1,1,1v6a1,1,0,0,1-1,1H45a1,1,0,0,1-1-1Z"></path><rect x="36" y="20" width="4" height="8"></rect><path d="M60,11V8.192L58.323,4h-5.19l.859,6.876S54,10.957,54,11a3,3,0,0,0,6,0Z"></path><path d="M46,11a3,3,0,0,0,6,.034L51.117,4H46Z"></path><path d="M41,14a3,3,0,0,0,3-3V4H38.883L38,11.034A3,3,0,0,0,41,14Z"></path><rect x="45" y="48" width="2" height="2"></rect><rect x="45" y="52" width="2" height="2"></rect><rect x="41" y="46" width="2" height="2"></rect><rect x="58" y="54" width="2" height="2"></rect><rect x="58" y="58" width="2" height="2"></rect><rect x="54" y="52" width="2" height="2"></rect><rect x="8" y="16" width="2" height="4"></rect><rect x="8" y="12" width="2" height="2"></rect><rect x="8" y="8" width="2" height="2"></rect><rect x="18" y="14" width="2" height="2"></rect><rect x="18" y="10" width="2" height="2"></rect><rect x="18" y="6" width="2" height="2"></rect></g></svg>