<svg xmlns="http://www.w3.org/2000/svg" viewBox="0 0 64 64" x="0px" y="0px"><g data-name="avatar-man-young-account-profile"><path d="M46.93,35.31l-8.06-1.07a1,1,0,0,1-.87-.99V30.22a12.194,12.194,0,0,0,1.78-1.44A10.919,10.919,0,0,0,42.95,22H43a4,4,0,0,0,0-8V12.9A7.884,7.884,0,0,0,47,6V3a1,1,0,0,0-1-1H25.99a7.015,7.015,0,0,0-6.92,8.06l.65,4.17A3.989,3.989,0,0,0,21,22h.05A11.029,11.029,0,0,0,26,30.21v3.04a1,1,0,0,1-.87.99l-8.06,1.07A7.031,7.031,0,0,0,11,42.25V61a1,1,0,0,0,1,1H52a1,1,0,0,0,1-1V42.25A7.031,7.031,0,0,0,46.93,35.31ZM45,18a2.015,2.015,0,0,1-2,2V16A2.006,2.006,0,0,1,45,18ZM21,20a2.015,2.015,0,0,1-2-2,2.006,2.006,0,0,1,2-2Zm.43-7.8-.38-2.44A5.011,5.011,0,0,1,25.99,4H45V6a5.938,5.938,0,0,1-3.43,5.42h-.01A5.889,5.889,0,0,1,39,12a8.847,8.847,0,0,1-5.64-1.78,6.146,6.146,0,0,1-1.48-1.67.984.984,0,0,0-1.12-.52,1,1,0,0,0-.77.97v2.89a4.451,4.451,0,0,1-3.02-3.13A1,1,0,0,0,25,9a2.988,2.988,0,0,1-3,3A.938.938,0,0,0,21.43,12.2ZM23,21V13.9a4.964,4.964,0,0,0,2.54-1.37,4.711,4.711,0,0,0,.69-.87A5.854,5.854,0,0,0,30.99,14a1.033,1.033,0,0,0,.71-.29c.22-.23.28-.29.29-2.03l.13.1A10.93,10.93,0,0,0,39,14a7.831,7.831,0,0,0,2-.25V21a9,9,0,0,1-18,0ZM37.65,35.92A8.2,8.2,0,0,1,32.01,38H32a8.211,8.211,0,0,1-5.65-2.08A3.014,3.014,0,0,0,28,33.25V31.24a10.906,10.906,0,0,0,8,0v2.01A3.014,3.014,0,0,0,37.65,35.92ZM51,60H45V48H43V60H21V48H19V60H13V42.25a5.018,5.018,0,0,1,4.34-4.95l6.8-.91a8.552,8.552,0,0,0,4.35,3.05,10.557,10.557,0,0,0-2.64,2.23,12.158,12.158,0,0,0-2.56,6.46,1,1,0,0,0,.35.83,1.032,1.032,0,0,0,.65.23,1.953,1.953,0,0,0,.23-.02,12.232,12.232,0,0,0,5.92-3.65A10.412,10.412,0,0,0,32,42.96a10.412,10.412,0,0,0,1.56,2.56,12.232,12.232,0,0,0,5.92,3.65,1.953,1.953,0,0,0,.23.02,1.032,1.032,0,0,0,.65-.23,1,1,0,0,0,.35-.83,12.158,12.158,0,0,0-2.56-6.46,10.557,10.557,0,0,0-2.64-2.23,8.552,8.552,0,0,0,4.35-3.05l6.8.91A5.018,5.018,0,0,1,51,42.25ZM30.73,40.52a9.455,9.455,0,0,1-1.82,3.72,9.336,9.336,0,0,1-3.35,2.43,8.564,8.564,0,0,1,5.17-6.15Zm2.55,0a9.558,9.558,0,0,1,3.34,2.43,9.362,9.362,0,0,1,1.82,3.73,8.562,8.562,0,0,1-5.16-6.16Z"></path><path d="M29,19h2a3,3,0,0,0-6,0h2a1,1,0,0,1,2,0Z"></path><path d="M36,18a1,1,0,0,1,1,1h2a3,3,0,0,0-6,0h2A1,1,0,0,1,36,18Z"></path><path d="M36.331,24.5l-1.732-1a3,3,0,0,1-5.2,0l-1.732,1a5,5,0,0,0,8.662,0Z"></path></g></svg>