<svg xmlns="http://www.w3.org/2000/svg" viewBox="0 0 32 32" x="0px" y="0px"><g><path d="M29.061,11a14.048,14.048,0,0,0-4.554-6.093L18.414,11Z"></path><circle cx="16" cy="16" r="3"></circle><path d="M12.026,19a4.941,4.941,0,0,1-.979-2.539L3.778,9.192A13.863,13.863,0,0,0,2.332,19Z"></path><path d="M2.939,21a14.048,14.048,0,0,0,4.554,6.093L13.586,21Z"></path><path d="M11,13.586V2.939A14.048,14.048,0,0,0,4.907,7.493Z"></path><path d="M21,18.414V29.061a14.048,14.048,0,0,0,6.093-4.554Z"></path><path d="M30,16a14,14,0,0,0-.332-3H19.974a4.941,4.941,0,0,1,.979,2.539l7.269,7.269A13.9,13.9,0,0,0,30,16Z"></path><path d="M19,29.668V19.974a4.941,4.941,0,0,1-2.539.979L9.192,28.222A13.863,13.863,0,0,0,19,29.668Z"></path><path d="M13,2.332v9.694a4.941,4.941,0,0,1,2.539-.979l7.269-7.269A13.863,13.863,0,0,0,13,2.332Z"></path></g></svg>