<svg xmlns="http://www.w3.org/2000/svg" viewBox="0 0 64 64" x="0px" y="0px"><g><path d="M38,60V51.07l-6-6-6,6V60h3V55a1,1,0,0,1,1-1h4a1,1,0,0,1,1,1v5Zm-6-8a2,2,0,1,1,2-2A2,2,0,0,1,32,52Z"></path><path d="M43.31,50.73,32,39.41,20.69,50.73l1.41,1.41,9.19-9.19a1.014,1.014,0,0,1,1.42,0l9.19,9.19Z"></path><rect x="31" y="56" width="2" height="4"></rect><path d="M27.31,31.73,16,20.41,4.69,31.73,6.1,33.14l9.19-9.19a1.014,1.014,0,0,1,1.42,0l9.19,9.19Z"></path><path d="M22,41V32.07l-6-6-6,6V41h3V36a1,1,0,0,1,1-1h4a1,1,0,0,1,1,1v5Zm-6-8a2,2,0,1,1,2-2A2,2,0,0,1,16,33Z"></path><rect x="15" y="37" width="2" height="4"></rect><path d="M54,41V32.07l-6-6-6,6V41h3V36a1,1,0,0,1,1-1h4a1,1,0,0,1,1,1v5Zm-6-8a2,2,0,1,1,2-2A2,2,0,0,1,48,33Z"></path><rect x="47" y="37" width="2" height="4"></rect><path d="M59.31,31.73,48,20.41,36.69,31.73l1.41,1.41,9.19-9.19a1.014,1.014,0,0,1,1.42,0l9.19,9.19Z"></path><path d="M24,7.649v5.29a11.006,11.006,0,0,0,5.658,9.616L32,23.856l2.342-1.3A11.006,11.006,0,0,0,40,12.939V7.649L32,4.1Zm12.707,4.058-5,5a1,1,0,0,1-1.414,0l-3-3,1.414-1.414L31,14.586l4.293-4.293Z"></path></g></svg>