<svg xmlns="http://www.w3.org/2000/svg" viewBox="0 0 64 64" x="0px" y="0px"><title>Smartphone-Artificial Intelligence-Robot-Mobile-Technology</title><g data-name="Smartphone-Artificial Intelligence"><circle cx="59" cy="31" r="2"></circle><circle cx="57" cy="17" r="2"></circle><circle cx="57" cy="45" r="2"></circle><circle cx="7" cy="17" r="2"></circle><circle cx="7" cy="45" r="2"></circle><circle cx="5" cy="31" r="2"></circle><path d="M7,20a3,3,0,1,0-3-3A3,3,0,0,0,7,20Zm0-4a1,1,0,1,1-1,1A1,1,0,0,1,7,16Z"></path><path d="M8,31a3,3,0,1,0-3,3A3,3,0,0,0,8,31ZM4,31a1,1,0,1,1,1,1A1,1,0,0,1,4,31Z"></path><path d="M7,42a3,3,0,1,0,3,3A3,3,0,0,0,7,42Zm0,4a1,1,0,1,1,1-1A1,1,0,0,1,7,46Z"></path><path d="M57,20a3,3,0,1,0-3-3A3,3,0,0,0,57,20Zm0-4a1,1,0,1,1-1,1A1,1,0,0,1,57,16Z"></path><path d="M59,28a3,3,0,1,0,3,3A3,3,0,0,0,59,28Zm0,4a1,1,0,1,1,1-1A1,1,0,0,1,59,32Z"></path><path d="M57,42a3,3,0,1,0,3,3A3,3,0,0,0,57,42Zm0,4a1,1,0,1,1,1-1A1,1,0,0,1,57,46Z"></path><path d="M23,38h4V35a1,1,0,0,1,1-1h8a1,1,0,0,1,1,1v3h4V32H23Z"></path><rect x="29" y="28" width="6" height="2"></rect><rect x="29" y="36" width="6" height="4"></rect><rect x="22" y="19" width="2" height="4"></rect><rect x="30" y="24" width="4" height="2"></rect><path d="M37,41a1,1,0,0,1-1,1H28a1,1,0,0,1-1-1V40H23v.838L24.721,46H39.279L41,40.838V40H37Z"></path><rect x="40" y="19" width="2" height="4"></rect><path d="M37,16H27a1,1,0,0,0-1,1v8a1,1,0,0,0,1,1h1V24a2,2,0,0,1,2-2h4a2,2,0,0,1,2,2v2h1a1,1,0,0,0,1-1V17A1,1,0,0,0,37,16Zm-7,4H28V18h2Zm6,0H34V18h2Z"></path><rect x="25" y="4" width="14" height="2"></rect><path d="M49,22V7a3,3,0,0,0-3-3H41V6a2,2,0,0,1-2,2H25a2,2,0,0,1-2-2V4H18a3,3,0,0,0-3,3V22h3v2H15v6h3v2H15v6h3v2H15V57a3,3,0,0,0,3,3H46a3,3,0,0,0,3-3V40H46V38h3V32H46V30h3V24H46V22ZM23,54H21V52h2Zm4,0H25V52h2Zm4,0H29V52h2Zm4,0H33V52h2Zm4,0H37V52h2Zm4,0H41V52h2Zm1-30a1,1,0,0,1-1,1H40a3,3,0,0,1-3,3v2h5a1,1,0,0,1,1,1V41a1,1,0,0,1-.052.316l-2,6A1,1,0,0,1,40,48H24a1,1,0,0,1-.948-.684l-2-6A1,1,0,0,1,21,41V31a1,1,0,0,1,1-1h5V28a3,3,0,0,1-3-3H21a1,1,0,0,1-1-1V18a1,1,0,0,1,1-1V12h2v5h1a3,3,0,0,1,3-3H37a3,3,0,0,1,3,3h1V12h2v5a1,1,0,0,1,1,1Z"></path><path d="M15,24H13a1,1,0,0,1-.707-.293l-3-3,1.414-1.414L13.414,22H15Z"></path><path d="M10.707,42.707,9.293,41.293l3-3A1,1,0,0,1,13,38h2v2H13.414Z"></path><rect x="10" y="30" width="5" height="2"></rect><path d="M51,24H49V22h1.586l2.707-2.707,1.414,1.414-3,3A1,1,0,0,1,51,24Z"></path><path d="M53.293,42.707,50.586,40H49V38h2a1,1,0,0,1,.707.293l3,3Z"></path><rect x="49" y="30" width="5" height="2"></rect></g></svg>