<svg xmlns="http://www.w3.org/2000/svg" viewBox="0 0 64 64" x="0px" y="0px"><g data-name="Smart Tv-Internet of Things-App-Internet-Smartphone"><path d="M24,34H4V52H24ZM14,48l-1.414-1.414a2,2,0,0,1,2.828,0Zm2.121-3.122a3.074,3.074,0,0,0-4.242,0l-1.414-1.414a5,5,0,0,1,7.07,0ZM18.95,42.05a7.011,7.011,0,0,0-9.9,0L7.636,40.636a9.01,9.01,0,0,1,12.728,0Z"></path><path d="M24,54H4v3a3.009,3.009,0,0,0,3,3H21a3.009,3.009,0,0,0,3-3Zm-9,4H13V56h2Z"></path><path d="M24,31a3.009,3.009,0,0,0-3-3H7a3.009,3.009,0,0,0-3,3v1H24Z"></path><path d="M60,7a3.009,3.009,0,0,0-3-3H13a3.009,3.009,0,0,0-3,3V26h2V7a1,1,0,0,1,1-1H57a1,1,0,0,1,1,1V39a1,1,0,0,1-1,1H26v2H57a3.009,3.009,0,0,0,3-3Z"></path><path d="M48.69,53.71A.949.949,0,0,0,49,53a1,1,0,0,0-1-1H26v2H48A.928.928,0,0,0,48.69,53.71Z"></path><path d="M26,31v7H56V8H14V26h7A5,5,0,0,1,26,31Zm9.707-2.707a1,1,0,0,0-1.414,0l-1.414-1.414a3,3,0,0,1,4.242,0Zm2.828-2.829a5,5,0,0,0-7.07,0L30.051,24.05a7,7,0,0,1,9.9,0Zm4.243-4.242-1.414,1.414a9.01,9.01,0,0,0-12.728,0l-1.414-1.414A11.012,11.012,0,0,1,42.778,21.222Z"></path><rect x="33" y="44" width="4" height="6"></rect></g></svg>