<svg xmlns="http://www.w3.org/2000/svg" viewBox="0 0 64 64" x="0px" y="0px"><g data-name="Factory"><path d="M45,6h4a1,1,0,0,1,1,1V9h2V7a3,3,0,0,0-3-3H45a1,1,0,0,1-1-1V2H42V3A3,3,0,0,0,45,6Z"></path><path d="M39,10h4a1,1,0,0,1,1,1v2h2V11a3,3,0,0,0-3-3H39a1,1,0,0,1-1-1V5H36V7A3,3,0,0,0,39,10Z"></path><path d="M21,17h4a1,1,0,0,1,1,1v2h2V18a3,3,0,0,0-3-3H21a1,1,0,0,1-1-1V12H18v2A3,3,0,0,0,21,17Z"></path><path d="M5,21H9a1,1,0,0,1,1,1v2h2V22a3,3,0,0,0-3-3H5a1,1,0,0,1-1-1V16H2v2A3,3,0,0,0,5,21Z"></path><rect x="50" y="11" width="2" height="2"></rect><path d="M4,60H6V57a5,5,0,0,1,10,0v3h2V38H4ZM6,43a1,1,0,0,1,1-1h8a1,1,0,0,1,1,1v4a1,1,0,0,1-1,1H7a1,1,0,0,1-1-1Z"></path><path d="M8,57v3h6V57a3,3,0,0,0-6,0Z"></path><rect x="8" y="44" width="6" height="2"></rect><rect x="51" y="40" width="4" height="2"></rect><rect x="41" y="40" width="4" height="2"></rect><path d="M60,60V31H36V60h3V51a1,1,0,0,1,1-1H56a1,1,0,0,1,1,1v9ZM47,43a1,1,0,0,1-1,1H40a1,1,0,0,1-1-1V39a1,1,0,0,1,1-1h6a1,1,0,0,1,1,1Zm9,1H50a1,1,0,0,1-1-1V39a1,1,0,0,1,1-1h6a1,1,0,0,1,1,1v4A1,1,0,0,1,56,44Z"></path><rect x="24" y="42" width="6" height="2"></rect><rect x="9" y="28" width="4" height="8"></rect><path d="M24,55v5h6V55a3,3,0,0,0-6,0Z"></path><rect x="42" y="27" width="12" height="2"></rect><rect x="44" y="17" width="8" height="8"></rect><rect x="41" y="52" width="14" height="8"></rect><rect x="25" y="24" width="4" height="8"></rect><path d="M20,60h2V55a5,5,0,0,1,10,0v5h2V34H20Zm2-19a1,1,0,0,1,1-1h8a1,1,0,0,1,1,1v4a1,1,0,0,1-1,1H23a1,1,0,0,1-1-1Z"></path></g></svg>