<svg xmlns="http://www.w3.org/2000/svg" viewBox="0 0 64 64" x="0px" y="0px"><g><polygon points="17.414 43 30.586 43 24 36.414 17.414 43"></polygon><circle cx="31" cy="26" r="1"></circle><polygon points="29.414 39 33.414 43 48 43 48 42.414 37 31.414 29.414 39"></polygon><path d="M60,20a3,3,0,0,0-3-3H54V47h3a3,3,0,0,0,3-3ZM58,31H56V25h2Zm0-8H56V21h2Z"></path><path d="M4,44a3,3,0,0,0,3,3h3V17H7a3,3,0,0,0-3,3ZM6,30H8v4H6Z"></path><path d="M52,47V17H12V47ZM14,20a1,1,0,0,1,1-1H49a1,1,0,0,1,1,1V44a1,1,0,0,1-1,1H15a1,1,0,0,1-.349-.07.927.927,0,0,1-.1-.046,1.207,1.207,0,0,1-.285-.209.994.994,0,0,1-.179-.266c0-.008-.011-.015-.014-.023l0,0a1,1,0,0,1-.069-.347c0-.013-.007-.023-.007-.036Z"></path><path d="M24.707,34.293,28,37.586l8.293-8.293a1,1,0,0,1,1.414,0L48,39.586V21H16V41.586l7.293-7.293A1,1,0,0,1,24.707,34.293ZM31,23a3,3,0,1,1-3,3A3,3,0,0,1,31,23Z"></path></g></svg>