<svg xmlns="http://www.w3.org/2000/svg" viewBox="0 0 64 64" x="0px" y="0px"><g><path d="M61,46H60V15a5.006,5.006,0,0,0-5-5H9a5.006,5.006,0,0,0-5,5V46H3a1,1,0,0,0-1,1v4a3,3,0,0,0,3,3H59a3,3,0,0,0,3-3V47A1,1,0,0,0,61,46ZM6,15a3,3,0,0,1,3-3H55a3,3,0,0,1,3,3V46H53.236l-8.729-8.737a14.984,14.984,0,0,0-24.34-17.448l-.415-.473A1,1,0,0,0,19,19H16v2h2.546l.465.531A14.92,14.92,0,0,0,23.038,41H19v2h5a1,1,0,0,0,.707-.293l.4-.4a14.918,14.918,0,0,0,15.157-.8L44.76,46H6ZM26.689,37.9,24.782,39.8a12.949,12.949,0,0,1-4.368-16.669l2.526,2.886A8.965,8.965,0,0,0,26.689,37.9ZM25.406,25.8A7,7,0,0,1,30,23.071v6.515l-4.6,4.6a6.928,6.928,0,0,1-1-6.5l.849.97,1.5-1.316Zm4.887,8.49-2.11,2.11a6.983,6.983,0,0,1-1.367-.8l4.6-4.6h6.515A7.011,7.011,0,0,1,31,37c-.188,0-.373-.014-.558-.028l1.265-1.265Zm-1.575,4.4A8.967,8.967,0,0,0,40,30a1,1,0,0,0-1-1H32V22a1,1,0,0,0-1-1,8.982,8.982,0,0,0-6.935,3.271l-2.554-2.919A13,13,0,1,1,26.6,40.812ZM37,49H27V48H37ZM5,52a1,1,0,0,1-1-1V48H25v1a2,2,0,0,0,2,2H37a2,2,0,0,0,2-2V48h7.762l4,4Zm48.619-1.373a1,1,0,0,1-1.4,0L41.86,40.276a15.24,15.24,0,0,0,1.415-1.415L53.627,49.222a.971.971,0,0,1,.3.7A.982.982,0,0,1,53.619,50.627ZM60,51a1,1,0,0,1-1,1H55.068a2.937,2.937,0,0,0,.133-4H60Z"></path><path d="M43,27a9.01,9.01,0,0,0-9-9,1,1,0,0,0-1,1v8a1,1,0,0,0,1,1h8A1,1,0,0,0,43,27Zm-8-1V20.071A7.016,7.016,0,0,1,40.929,26Z"></path><rect x="46" y="16" width="4" height="2"></rect><rect x="46" y="19" width="4" height="2"></rect><rect x="10" y="17" width="4" height="2"></rect><rect x="10" y="20" width="4" height="2"></rect><rect x="11" y="39" width="4" height="2"></rect><rect x="11" y="42" width="4" height="2"></rect></g></svg>