<svg xmlns="http://www.w3.org/2000/svg" viewBox="0 0 64 64" x="0px" y="0px"><title>Speech Bubble_10</title><g data-name="Speech Bubble"><path d="M32,2A30,30,0,1,0,62,32,30.034,30.034,0,0,0,32,2Zm0,58A28,28,0,1,1,60,32,28.032,28.032,0,0,1,32,60Z"></path><path d="M47,20H23a7.006,7.006,0,0,0-6.931,6.069A7.006,7.006,0,0,0,10,33v2a7.008,7.008,0,0,0,7,7h4v5a1,1,0,0,0,1.707.707L28.414,42H41a7.006,7.006,0,0,0,6.931-6.069A7.006,7.006,0,0,0,54,29V27A7.008,7.008,0,0,0,47,20ZM46,35a5.006,5.006,0,0,1-5,5H28a1,1,0,0,0-.707.293L23,44.586V41a1,1,0,0,0-1-1H17a5.006,5.006,0,0,1-5-5V33a5.006,5.006,0,0,1,5-5H41a5.006,5.006,0,0,1,5,5Zm6-6a5.009,5.009,0,0,1-4,4.9V33a7.008,7.008,0,0,0-7-7H18.1A5.009,5.009,0,0,1,23,22H47a5.006,5.006,0,0,1,5,5Z"></path><path d="M30,33H28a1,1,0,0,0,0,2h2a1,1,0,0,0,0-2Z"></path><path d="M36,33H34a1,1,0,0,0,0,2h2a1,1,0,0,0,0-2Z"></path><path d="M24,33H22a1,1,0,0,0,0,2h2a1,1,0,0,0,0-2Z"></path></g></svg>