<svg xmlns="http://www.w3.org/2000/svg" viewBox="0 0 64 64" x="0px" y="0px"><g><path d="M36,31h2a1,1,0,0,0,0-2H36a1,1,0,0,0,0,2Z"></path><path d="M58,38h2a2,2,0,0,0,2-2V34a2,2,0,0,0-2-2H49a1,1,0,0,0-1,1v6a2.966,2.966,0,0,0,.184,1H31.816A2.966,2.966,0,0,0,32,39a3,3,0,0,0-3-3h-.22l-.5-2H39a5.006,5.006,0,0,0,5-5V9a5.006,5.006,0,0,0-5-5H7A5.006,5.006,0,0,0,2,9V29a5.006,5.006,0,0,0,5,5H17.72l-.5,2H17a3,3,0,0,0-3,3,2.966,2.966,0,0,0,.184,1H3a1,1,0,0,0-1,1v4a1,1,0,0,0,1,1H5V61a1,1,0,0,0,1,1h4a1,1,0,0,0,1-1V56H53v5a1,1,0,0,0,1,1h4a1,1,0,0,0,1-1V46h2a1,1,0,0,0,1-1V41a1,1,0,0,0-1-1H57.816A2.966,2.966,0,0,0,58,39Zm2-2H58V34h2ZM7,6H39a3,3,0,0,1,3,3V26H4V9A3,3,0,0,1,7,6ZM4,29V28H42v1a3,3,0,0,1-3,3H7A3,3,0,0,1,4,29Zm15.781,5h6.438l.5,2H19.281ZM16,39a1,1,0,0,1,1-1H29a1,1,0,0,1,0,2H17A1,1,0,0,1,16,39ZM9,60H7V46H9Zm2-6V46H53v8Zm46,6H55V46h2Zm3-16H4V42H60Zm-9-4a1,1,0,0,1-1-1V34h6v5a1,1,0,0,1-1,1Z"></path><path d="M54,29v1h2V29h1a2,2,0,0,0,2-2V25H57v2H56A2,2,0,0,0,54,29Z"></path><path d="M52,27h1a2,2,0,0,0,2-2V23H53v2H52a2,2,0,0,0-2,2v1h2Z"></path><path d="M35,50H29V49H27v2a1,1,0,0,0,1,1h8a1,1,0,0,0,1-1V49H35Z"></path></g></svg>