<svg xmlns="http://www.w3.org/2000/svg" viewBox="0 0 64 64" x="0px" y="0px"><g><path d="M38,52H26v3a5.006,5.006,0,0,0,5,5h2a5.006,5.006,0,0,0,5-5Z"></path><path d="M38,49a5.006,5.006,0,0,0-5-5H31a5.006,5.006,0,0,0-5,5v1H38Zm-5-1H31V46h2Z"></path><path d="M47,36H17V34H15v3a1,1,0,0,0,1,1H31v2h2V38H48a1,1,0,0,0,1-1V34H47Z"></path><rect x="47" y="30" width="2" height="2"></rect><rect x="15" y="30" width="2" height="2"></rect><rect x="11" y="32" width="2" height="6"></rect><rect x="11" y="28" width="2" height="2"></rect><rect x="51" y="32" width="2" height="6"></rect><rect x="51" y="28" width="2" height="2"></rect><rect x="42" y="51" width="4" height="2"></rect><rect x="41.379" y="45.5" width="4.243" height="2" transform="translate(-20.14 44.379) rotate(-45)"></rect><rect x="42.5" y="55.379" width="2" height="4.243" transform="translate(-27.918 47.601) rotate(-45)"></rect><rect x="18" y="51" width="4" height="2"></rect><rect x="19.5" y="44.379" width="2" height="4.243" transform="translate(-26.876 28.115) rotate(-45)"></rect><rect x="18.379" y="56.5" width="4.243" height="2" transform="translate(-34.654 31.337) rotate(-45)"></rect><circle cx="12" cy="10" r="1"></circle><path d="M16,24A10,10,0,1,0,6,14,10.011,10.011,0,0,0,16,24Zm4-3a3,3,0,1,1,3-3A3,3,0,0,1,20,21ZM21.293,7.293l1.414,1.414-12,12L9.293,19.293ZM12,7a3,3,0,1,1-3,3A3,3,0,0,1,12,7Z"></path><circle cx="20" cy="18" r="1"></circle><circle cx="44" cy="10" r="1"></circle><circle cx="52" cy="18" r="1"></circle><path d="M48,24A10,10,0,1,0,38,14,10.011,10.011,0,0,0,48,24Zm4-3a3,3,0,1,1,3-3A3,3,0,0,1,52,21ZM53.293,7.293l1.414,1.414-12,12-1.414-1.414ZM44,7a3,3,0,1,1-3,3A3,3,0,0,1,44,7Z"></path><rect x="15" y="26" width="2" height="2"></rect><rect x="47" y="26" width="2" height="2"></rect></g></svg>