<svg xmlns="http://www.w3.org/2000/svg" viewBox="0 0 64 64" x="0px" y="0px"><g><path d="M46,2H18a6,6,0,0,0-6,6V56a6,6,0,0,0,6,6H46a6,6,0,0,0,6-6V8A6,6,0,0,0,46,2Zm4,54a4,4,0,0,1-4,4H18a4,4,0,0,1-4-4V50H50Zm0-8H14V12H50Zm0-38H14V8a4,4,0,0,1,4-4H46a4,4,0,0,1,4,4Z"></path><path d="M34,52H30a3,3,0,0,0,0,6h4a3,3,0,0,0,0-6Zm0,4H30a1,1,0,0,1,0-2h4a1,1,0,0,1,0,2Z"></path><rect x="25" y="6" width="2" height="2"></rect><rect x="29" y="6" width="6" height="2"></rect><path d="M31,27h2a1,1,0,0,1,1,1h2a3,3,0,0,0-3-3V24H31v1a3,3,0,0,0,0,6h2a1,1,0,0,1,0,2H31a1,1,0,0,1-1-1H28a3,3,0,0,0,3,3v1h2V35a3,3,0,0,0,0-6H31a1,1,0,0,1,0-2Z"></path><path d="M32,20A10,10,0,1,0,42,30,10.011,10.011,0,0,0,32,20Zm0,18a8,8,0,1,1,8-8A8.009,8.009,0,0,1,32,38Z"></path><path d="M32,46a15.831,15.831,0,0,0,11-4.411V43h2V39a1,1,0,0,0-1-1H40v2h1.775A13.856,13.856,0,0,1,32,44,14.015,14.015,0,0,1,18,30H16A16.019,16.019,0,0,0,32,46Z"></path><path d="M20,22h4V20H22.225A13.856,13.856,0,0,1,32,16,14.015,14.015,0,0,1,46,30h2A16.019,16.019,0,0,0,32,14a15.835,15.835,0,0,0-11,4.41V17H19v4A1,1,0,0,0,20,22Z"></path><rect x="46" y="32" width="2" height="2"></rect><rect x="16" y="26" width="2" height="2"></rect></g></svg>