<svg xmlns="http://www.w3.org/2000/svg" viewBox="0 0 64 64" x="0px" y="0px"><g><polygon points="43.58 10 44.79 8 19.21 8 20.42 10 43.58 10"></polygon><rect x="21" y="32" width="22" height="2"></rect><polygon points="17.99 6 46.01 6 47.22 4 16.78 4 17.99 6"></polygon><polygon points="53.22 4 49.56 4 33.78 30 37.44 30 53.22 4"></polygon><path d="M6.55,4A1,1,0,0,0,5.7,5.52L20.56,30h3.66L8.44,4Z"></path><path d="M58.32,4.51A1,1,0,0,0,57.45,4H55.56L39.78,30h3.66L58.3,5.52A1.009,1.009,0,0,0,58.32,4.51Z"></path><polygon points="30.22 30 14.44 4 10.78 4 26.56 30 30.22 30"></polygon><path d="M24.26,54.32A9.949,9.949,0,0,1,22.05,49h-2a11.9,11.9,0,0,0,2.8,6.74Z"></path><path d="M22.05,47a9.949,9.949,0,0,1,2.21-5.32l-1.41-1.42A11.9,11.9,0,0,0,20.05,47Z"></path><path d="M31,57.95a9.949,9.949,0,0,1-5.32-2.21l-1.42,1.41A11.9,11.9,0,0,0,31,59.95Z"></path><path d="M38.32,40.26l1.42-1.41A11.9,11.9,0,0,0,33,36.05v2A9.949,9.949,0,0,1,38.32,40.26Z"></path><path d="M31,38.05v-2a11.9,11.9,0,0,0-6.74,2.8l1.42,1.41A9.949,9.949,0,0,1,31,38.05Z"></path><path d="M32.588,49.663l1.314.955-.5-1.546a1,1,0,0,1,.363-1.117L35.078,47H33.453a1,1,0,0,1-.951-.691L32,44.764l0-.012-.5,1.557a1,1,0,0,1-.951.691H28.922l1.315.955a1,1,0,0,1,.363,1.117l-.5,1.545,1.314-.954a1,1,0,0,1,1.176,0Z"></path><path d="M33,59.95a11.9,11.9,0,0,0,6.74-2.8l-1.42-1.41A9.949,9.949,0,0,1,33,57.95Z"></path><path d="M41.15,40.26l-1.41,1.42A9.949,9.949,0,0,1,41.95,47h2A11.9,11.9,0,0,0,41.15,40.26Z"></path><path d="M41.95,49a9.949,9.949,0,0,1-2.21,5.32l1.41,1.42A11.9,11.9,0,0,0,43.95,49Z"></path><path d="M40,48a8,8,0,1,0-8,8A8.011,8.011,0,0,0,40,48ZM28.922,52.236A1.969,1.969,0,0,1,28.2,50l.277-.854-.726-.529A2,2,0,0,1,28.922,45h.9l.278-.854a2,2,0,0,1,3.8,0L34.18,45h.9a2,2,0,0,1,1.175,3.617l-.726.529L35.8,50a1.969,1.969,0,0,1-.726,2.236,1.969,1.969,0,0,1-2.351,0L32,51.708l-.727.527A1.97,1.97,0,0,1,28.922,52.236Z"></path></g></svg>