<svg xmlns="http://www.w3.org/2000/svg" viewBox="0 0 64 64" x="0px" y="0px"><g data-name="Folder-Smartphone-File And Folder-Gallery-Technology"><path d="M46,2H18a6,6,0,0,0-6,6V56a6,6,0,0,0,6,6H46a6,6,0,0,0,6-6V8A6,6,0,0,0,46,2Zm4,54a4,4,0,0,1-4,4H18a4,4,0,0,1-4-4V8a4,4,0,0,1,4-4H46a4,4,0,0,1,4,4Z"></path><path d="M34,52H30a3,3,0,0,0,0,6h4a3,3,0,0,0,0-6Zm0,4H30a1,1,0,0,1,0-2h4a1,1,0,0,1,0,2Z"></path><rect x="25" y="6" width="2" height="2"></rect><rect x="29" y="6" width="6" height="2"></rect><path d="M45,25H42V21a1.033,1.033,0,0,0-.29-.71l-6-6A1.033,1.033,0,0,0,35,14H25a3.009,3.009,0,0,0-3,3v3H19a3.009,3.009,0,0,0-3,3V43a3.009,3.009,0,0,0,3,3H45a3.009,3.009,0,0,0,3-3V28A3.009,3.009,0,0,0,45,25Zm-9-7.59L38.59,20H37a1,1,0,0,1-1-1ZM24,17a1,1,0,0,1,1-1h9v3a3.009,3.009,0,0,0,3,3h3v8H32.32l-6.74-4.81A1,1,0,0,0,25,25H24Zm-6,6a1,1,0,0,1,1-1h3v3H18ZM46,43a1,1,0,0,1-1,1H19a1,1,0,0,1-1-1V27h6.68l6.74,4.81A1,1,0,0,0,32,32H46Zm0-13H42V27h3a1,1,0,0,1,1,1Z"></path><rect x="29" y="24" width="9" height="2"></rect><rect x="26" y="20" width="6" height="2"></rect></g></svg>