<svg xmlns="http://www.w3.org/2000/svg" viewBox="0 0 64 64" x="0px" y="0px"><g data-name="Video Call-Webcam-Chat-Computer-Video"><path d="M56,18V40H42V39a5,5,0,0,0-5-5V30.48a9,9,0,1,0-10,0V34a5,5,0,0,0-5,5v1H8V18H6V45a5,5,0,0,0,5,5H23.87l-.75,6H22a3,3,0,0,0,0,6H42a3,3,0,0,0,0-6H40.88l-.75-6H53a5,5,0,0,0,5-5V18ZM26.04,26.65A6.906,6.906,0,0,1,25,23a7,7,0,0,1,14,0,6.906,6.906,0,0,1-1.04,3.65A4.727,4.727,0,0,0,38,26a6,6,0,0,0-12,0A4.727,4.727,0,0,0,26.04,26.65ZM32,30a4,4,0,1,1,4-4A4,4,0,0,1,32,30Zm3,1.47V34H29V31.47a9,9,0,0,0,2.39.5,6.217,6.217,0,0,0,1.22,0A9,9,0,0,0,35,31.47ZM24,39a3.009,3.009,0,0,1,3-3H37a3.009,3.009,0,0,1,3,3v1H24ZM42,58a1,1,0,0,1,0,2H22a1,1,0,0,1,0-2ZM25.13,56l.75-6H38.12l.75,6ZM56,45a3.009,3.009,0,0,1-3,3H11a3.009,3.009,0,0,1-3-3V42H56Z"></path><rect x="24" y="10" width="16" height="2"></rect><rect x="50" y="44" width="2" height="2"></rect><path d="M59,2H45a3,3,0,0,0-3,3v8a3,3,0,0,0,3,3h3v3a1,1,0,0,0,1.707.707L53.414,16H59a3,3,0,0,0,3-3V5A3,3,0,0,0,59,2Zm1,11a1,1,0,0,1-1,1H53a1,1,0,0,0-.707.293L50,16.586V15a1,1,0,0,0-1-1H45a1,1,0,0,1-1-1V5a1,1,0,0,1,1-1H59a1,1,0,0,1,1,1Z"></path><rect x="47" y="6" width="10" height="2"></rect><rect x="47" y="10" width="10" height="2"></rect><path d="M14.293,19.707A1,1,0,0,0,16,19V16h3a3,3,0,0,0,3-3V5a3,3,0,0,0-3-3H5A3,3,0,0,0,2,5v8a3,3,0,0,0,3,3h5.586ZM4,13V5A1,1,0,0,1,5,4H19a1,1,0,0,1,1,1v8a1,1,0,0,1-1,1H15a1,1,0,0,0-1,1v1.586l-2.293-2.293A1,1,0,0,0,11,14H5A1,1,0,0,1,4,13Z"></path><rect x="7" y="6" width="10" height="2"></rect><rect x="7" y="10" width="10" height="2"></rect><circle cx="32" cy="26" r="2"></circle></g></svg>