<svg xmlns="http://www.w3.org/2000/svg" viewBox="0 0 64 64" x="0px" y="0px"><g data-name="Editing Code"><path d="M47.849,39.193h0l-2.543-2.543A13.916,13.916,0,0,0,46.406,34H50a1,1,0,0,0,1-1V27a1,1,0,0,0-1-1H46.406a13.916,13.916,0,0,0-1.1-2.649l2.543-2.543a1,1,0,0,0,0-1.414l-4.244-4.243a1,1,0,0,0-1.414,0l-2.543,2.543A13.866,13.866,0,0,0,37,16.594V13a1,1,0,0,0-1-1H30a1,1,0,0,0-1,1v3.594a13.866,13.866,0,0,0-2.649,1.1l-2.543-2.543a1,1,0,0,0-1.414,0L18.15,19.394a1,1,0,0,0,0,1.414l2.543,2.543A13.916,13.916,0,0,0,19.594,26H16a1,1,0,0,0-1,1v6a1,1,0,0,0,1,1h3.594a13.916,13.916,0,0,0,1.1,2.649L18.15,39.192a1,1,0,0,0,0,1.414l4.244,4.243a1,1,0,0,0,1.414,0l2.543-2.543A13.866,13.866,0,0,0,29,43.406V47a1,1,0,0,0,1,1h6a1,1,0,0,0,1-1V43.406a13.866,13.866,0,0,0,2.649-1.1l9.615,9.614a4,4,0,1,0,5.656-5.656ZM35.77,41.665a1,1,0,0,0-.77.973V46H31V42.638a1,1,0,0,0-.77-.973,11.9,11.9,0,0,1-3.518-1.46,1,1,0,0,0-1.233.144L23.1,42.728,20.271,39.9l2.379-2.378a1,1,0,0,0,.144-1.233,11.965,11.965,0,0,1-1.46-3.518,1,1,0,0,0-.973-.77H17V28h3.361a1,1,0,0,0,.973-.77,11.965,11.965,0,0,1,1.46-3.518,1,1,0,0,0-.144-1.233L20.271,20.1l2.83-2.829,2.378,2.379a1,1,0,0,0,1.233.144,11.9,11.9,0,0,1,3.518-1.46,1,1,0,0,0,.77-.973V14h4v3.362a1,1,0,0,0,.77.973,11.9,11.9,0,0,1,3.518,1.46,1,1,0,0,0,1.233-.144L42.9,17.272l2.83,2.829L43.35,22.479a1,1,0,0,0-.144,1.233,11.965,11.965,0,0,1,1.46,3.518,1,1,0,0,0,.973.77H49v4H45.639a1,1,0,0,0-.973.77,11.914,11.914,0,0,1-.853,2.387l-3.092-3.092A7.988,7.988,0,0,0,31.6,22.128a1,1,0,0,0-.533,1.692l2.953,2.952-.841,3.4-3.4.841-2.953-2.953a1,1,0,0,0-1.691.533,7.989,7.989,0,0,0,9.936,9.127l3.092,3.091A11.819,11.819,0,0,1,35.77,41.665Zm17.736,8.841a2.049,2.049,0,0,1-2.828,0l-7.072-7.071-3.085-3.086-4.468-4.468a1,1,0,0,0-1.042-.235A5.984,5.984,0,0,1,27.124,31.2l1.634,1.633a1,1,0,0,0,.947.264l4.535-1.121a1,1,0,0,0,.731-.731L36.092,26.7a1,1,0,0,0-.264-.947L34.2,24.124a5.984,5.984,0,0,1,4.451,7.887,1,1,0,0,0,.235,1.042L53.506,47.678a2,2,0,0,1,0,2.828Z"></path><rect x="12" y="5" width="2" height="2"></rect><rect x="16" y="5" width="2" height="2"></rect><rect x="20" y="5" width="2" height="2"></rect><path d="M59,2H11A3,3,0,0,0,8,5V8H5a3,3,0,0,0-3,3V59a3,3,0,0,0,3,3H53a3,3,0,0,0,3-3V56h3a3,3,0,0,0,3-3V5A3,3,0,0,0,59,2ZM11,4H59a1,1,0,0,1,1,1V8H10V5A1,1,0,0,1,11,4ZM5,10H8v4.006c-1.944,0-3.188,0-4,.014V11A1,1,0,0,1,5,10ZM54,59a1,1,0,0,1-1,1H5a1,1,0,0,1-1-1V16l4,0V53a3,3,0,0,0,3,3H54Zm5-5H11a1,1,0,0,1-1-1V10H60V53A1,1,0,0,1,59,54Z"></path><rect x="32" y="16" width="2" height="2"></rect><rect x="22.808" y="19.808" width="2" height="2" transform="translate(-7.74 22.929) rotate(-45)"></rect><rect x="19" y="29" width="2" height="2"></rect><rect x="22.808" y="38.192" width="2" height="2" transform="translate(-20.74 28.314) rotate(-45)"></rect><rect x="32" y="42" width="2" height="2"></rect><rect x="50.192" y="47.192" width="2" height="2" transform="translate(-19.083 50.314) rotate(-45)"></rect><rect x="45" y="29" width="2" height="2"></rect><rect x="41.192" y="19.808" width="2" height="2" transform="translate(-2.355 35.929) rotate(-45)"></rect></g></svg>