<svg xmlns="http://www.w3.org/2000/svg" viewBox="0 0 64 64" x="0px" y="0px"><g><path d="M53.446,44.37A9.988,9.988,0,0,0,49,26.05v-.432a3.927,3.927,0,0,0,0-5.236V19a17,17,0,0,0-34,0v1.382a3.927,3.927,0,0,0,0,5.236v.432a9.988,9.988,0,0,0-4.446,18.32A12.94,12.94,0,0,0,6,54.25V61a1,1,0,0,0,1,1H57a1,1,0,0,0,1-1V54.25A12.941,12.941,0,0,0,53.446,44.37ZM56,36a7.984,7.984,0,0,1-4.355,7.093,12.971,12.971,0,0,0-3.34-1.41l-7.43-1.959A2.848,2.848,0,0,0,39,39.015V36.106A14.029,14.029,0,0,0,45.668,27H46a3.939,3.939,0,0,0,1-.142V27a1,1,0,0,0,1,1A8.009,8.009,0,0,1,56,36ZM34.5,42.33a2.978,2.978,0,0,0-1.057,1.056,2.89,2.89,0,0,0-2.886,0,2.89,2.89,0,0,0-2.5-1.443A2.858,2.858,0,0,0,27,39.717V37.061a13.782,13.782,0,0,0,10,0v2.656a2.858,2.858,0,0,0-1.057,2.226A2.955,2.955,0,0,0,34.5,42.33ZM33,46a1,1,0,1,1-1-1A1,1,0,0,1,33,46ZM20,20V18.087a25,25,0,0,0,17.584-6.32c.879,2.063,2.874,5.584,6.416,6.154V24a12,12,0,0,1-24,0Zm28,3a2,2,0,0,1-2,2V21A2,2,0,0,1,48,23ZM25.07,41a1,1,0,1,1-.5.134A.988.988,0,0,1,25.07,41Zm2.064,3.428a1,1,0,1,1,.366,1.366A1,1,0,0,1,27.134,44.428Zm8.366-.366a1,1,0,1,1-.366,1.366A1,1,0,0,1,35.5,44.062Zm2.928-1.2A1,1,0,0,1,38.93,41a.988.988,0,0,1,.5.134,1,1,0,1,1-1,1.732ZM32,4A15.017,15.017,0,0,1,47,19v.142A3.939,3.939,0,0,0,46,19V17a1,1,0,0,0-1-1c-4.18,0-6.021-6.213-6.039-6.276a1,1,0,0,0-1.668-.431A23.213,23.213,0,0,1,19.14,16.01,1,1,0,0,0,18,17v2a3.939,3.939,0,0,0-1,.142V19A15.017,15.017,0,0,1,32,4ZM16,23a2,2,0,0,1,2-2v4A2,2,0,0,1,16,23ZM8,36a8.009,8.009,0,0,1,8-8,1,1,0,0,0,1-1v-.142A3.939,3.939,0,0,0,18,27h.332A14.029,14.029,0,0,0,25,36.106v2.909a2.848,2.848,0,0,0-1.875.709L15.7,41.683a12.962,12.962,0,0,0-3.34,1.41A7.984,7.984,0,0,1,8,36ZM56,60H49.914A6.931,6.931,0,0,0,50,59a7.008,7.008,0,0,0-3-5.739V51H45v2.81a1,1,0,0,0,.5.867A5,5,0,0,1,48,59a4.819,4.819,0,0,1-.114,1H16.114A4.819,4.819,0,0,1,16,59a5,5,0,0,1,2.5-4.323,1,1,0,0,0,.5-.867V51H17v2.261A7.008,7.008,0,0,0,14,59a6.931,6.931,0,0,0,.086,1H8V54.25a11,11,0,0,1,8.2-10.633l5.882-1.551a2.957,2.957,0,0,0,.387,1.434,2.993,2.993,0,0,0,2.538,1.491A2.984,2.984,0,0,0,28,47.928a3.027,3.027,0,0,0,1.45-.376,2.978,2.978,0,0,0,5.11,0,3.027,3.027,0,0,0,1.45.376,2.984,2.984,0,0,0,2.983-2.937A2.993,2.993,0,0,0,41.526,43.5a2.957,2.957,0,0,0,.387-1.434L47.8,43.617A11,11,0,0,1,56,54.25Z"></path><path d="M32,27a3,3,0,0,0,3-3V20H33v4a1,1,0,0,1-2,0V20H29v4A3,3,0,0,0,32,27Z"></path><path d="M37.29,20.71A1.052,1.052,0,0,0,38,21a1,1,0,0,0,.38-.08.9.9,0,0,0,.54-.54A1,1,0,0,0,39,20a1.052,1.052,0,0,0-.29-.71,1.155,1.155,0,0,0-.33-.21,1.017,1.017,0,0,0-1.09.21A1.052,1.052,0,0,0,37,20a1,1,0,0,0,.08.38A1.155,1.155,0,0,0,37.29,20.71Z"></path><path d="M25.29,20.71A1.052,1.052,0,0,0,26,21a1.033,1.033,0,0,0,.71-.29,1.155,1.155,0,0,0,.21-.33A1,1,0,0,0,27,20a1,1,0,1,0-2,0,1,1,0,0,0,.08.38A1.155,1.155,0,0,0,25.29,20.71Z"></path><path d="M32,32a7.892,7.892,0,0,0,5.953-2.345l-1.511-1.31A5.988,5.988,0,0,1,32,30a5.988,5.988,0,0,1-4.442-1.655l-1.511,1.31A7.892,7.892,0,0,0,32,32Z"></path></g></svg>