<svg xmlns="http://www.w3.org/2000/svg" data-name="Rack-Hanger-T Shirt-Clothes-Fashion" viewBox="0 0 64 64" x="0px" y="0px"><path d="M59,49V18a5.006,5.006,0,0,0-5-5H47a3,3,0,0,0-6,0H35a3,3,0,0,0-6,0H23a3,3,0,0,0-6,0H10a5.006,5.006,0,0,0-5,5V49H3v4H9V49H7V18a3,3,0,0,1,3-3h7.792a2.959,2.959,0,0,0,.789.644A.914.914,0,0,1,19,16.46v1.927l-.87.293a1.985,1.985,0,0,0,3.74,0L21,18.387V16.46A3.058,3.058,0,0,0,20.629,15h9.163a2.959,2.959,0,0,0,.789.644A.914.914,0,0,1,31,16.46v1.923l-.86.287a1.86,1.86,0,0,0,.52.81,1.985,1.985,0,0,0,3.21-.8L33,18.387V16.46A3.058,3.058,0,0,0,32.629,15h9.163a2.959,2.959,0,0,0,.789.644A.914.914,0,0,1,43,16.46v1.923l-.86.287a1.86,1.86,0,0,0,.52.81,1.985,1.985,0,0,0,3.21-.8L45,18.387V16.46A3.058,3.058,0,0,0,44.629,15H54a3,3,0,0,1,3,3V49H55v4h6V49ZM19,13a1,1,0,0,1,2,0Zm12,0a1,1,0,0,1,2,0Zm12,0a1,1,0,0,1,2,0Z"></path><path d="M29,20l-5.16-.87a4,4,0,0,1-7.68,0L11,20v3h2a1,1,0,0,1,1,1V35H26V24a1,1,0,0,1,1-1h2Z"></path><path d="M41,20l-5.16-.87A4.011,4.011,0,0,1,32,22a4.231,4.231,0,0,1-1-.14V24a1,1,0,0,1-1,1H28V35H38V24a1,1,0,0,1,1-1h2Z"></path><path d="M44,22a4.231,4.231,0,0,1-1-.14V24a1,1,0,0,1-1,1H40V35H50V24a1,1,0,0,1,1-1h2V20l-5.16-.87A4.011,4.011,0,0,1,44,22Z"></path><rect x="2" y="52" width="60" height="2"></rect></svg>