<svg xmlns="http://www.w3.org/2000/svg" viewBox="0 0 64 64" x="0px" y="0px"><g><path d="M40.612,18.945a2.03,2.03,0,0,0,1.8-.531A1.986,1.986,0,0,0,43,17a2.061,2.061,0,0,0-.041-.4Z"></path><rect x="30.152" y="5.226" width="4" height="5" transform="translate(3.957 25.003) rotate(-45.01)"></rect><polygon points="37.047 9.196 33.622 12.62 35.851 20.878 45.305 11.424 37.047 9.196"></polygon><rect x="28" y="55" width="2" height="1"></rect><path d="M7,30a2.956,2.956,0,0,0,1.637,2.665,2.991,2.991,0,0,0,.53.188,2.968,2.968,0,0,0,3.564-4.074,2.725,2.725,0,0,0-.271-.487,2.934,2.934,0,0,0-2.213-1.275A.891.891,0,0,1,10.13,27l-.05,0A3.024,3.024,0,0,0,7,30Z"></path><path d="M11.575,34.735A4.958,4.958,0,0,1,10,35c-.066,0-.131-.009-.2-.012-.028,0-.055.006-.082,0l7,21.008h4.72L11.679,34.709C11.645,34.721,11.609,34.723,11.575,34.735Z"></path><path d="M12.23,25.523c.022.011.041.028.063.04a4.941,4.941,0,0,1,.751.474c.032.025.062.052.094.078a4.961,4.961,0,0,1,.658.639c.006.006.013.011.018.017L29.676,10.91,28.26,9.494Z"></path><path d="M35,59a1,1,0,0,0-1-1H12a1,1,0,0,0-1,1v1H35Z"></path><rect x="48.5" y="21.964" width="2" height="7.071" transform="translate(-3.533 42.471) rotate(-45)"></rect><rect x="48" y="15" width="8" height="2"></rect><rect x="39" y="24" width="2" height="8"></rect></g></svg>