<svg xmlns="http://www.w3.org/2000/svg" viewBox="0 0 64 64" x="0px" y="0px"><g><path d="M59,17H58V16H56a2,2,0,0,0,0,4h2V19h1a1,1,0,0,1,1,1v6a3,3,0,0,1-3,3H52V7a1,1,0,0,1,1-1h2V7h2a2,2,0,0,0,0-4H55V4H53a3,3,0,0,0-3,3V56a3,3,0,0,1-6,0V36a5.006,5.006,0,0,0-5-5H38v2h1a3,3,0,0,1,3,3V56a5,5,0,0,0,10,0V31h5a5.006,5.006,0,0,0,5-5V20A3,3,0,0,0,59,17Z"></path><path d="M38,52H8v5a3,3,0,0,0,3,3H35a3,3,0,0,0,3-3ZM24,57H22V55h2Z"></path><path d="M16,24a1,1,0,0,0-1,1V39a1,1,0,0,0,1,1H30a1,1,0,0,0,1-1V25a1,1,0,0,0-1-1Zm10.515,8.857-5,3A1,1,0,0,1,20,35V29a1,1,0,0,1,1.515-.857l5,3a1,1,0,0,1,0,1.714Z"></path><polygon points="22 33.233 24.057 32 22 30.767 22 33.233"></polygon><path d="M38,31V12H8V50H38V33H33v6a3,3,0,0,1-3,3H16a3,3,0,0,1-3-3V25a3,3,0,0,1,3-3H30a3,3,0,0,1,3,3v6Z"></path><path d="M38,7a3,3,0,0,0-3-3H11A3,3,0,0,0,8,7v3H38ZM17,8H15V6h2Zm4,0H19V6h2Z"></path></g></svg>