<svg xmlns="http://www.w3.org/2000/svg" viewBox="0 0 64 64" x="0px" y="0px"><title>Quality-Control</title><g><path d="M54.987,14.937a.945.945,0,0,0-.051-.257c-.011-.032-.019-.063-.033-.094a1,1,0,0,0-.2-.293l-12-12a.97.97,0,0,0-.294-.2c-.03-.014-.06-.022-.091-.033a.975.975,0,0,0-.262-.052C42.039,2.011,42.021,2,42,2H14A5.006,5.006,0,0,0,9,7V57a5.006,5.006,0,0,0,5,5H50a5.006,5.006,0,0,0,5-5V15C55,14.978,54.989,14.959,54.987,14.937ZM51.586,14H44a1,1,0,0,1-1-1V5.414ZM50,60H14a3,3,0,0,1-3-3V7a3,3,0,0,1,3-3H41v9a3,3,0,0,0,3,3h9V57A3,3,0,0,1,50,60Z"></path><path d="M28,16.586V16a2,2,0,0,0-2-2H18a2,2,0,0,0-2,2v8a2,2,0,0,0,2,2h8a2,2,0,0,0,2-2V19.414l2.707-2.707-1.414-1.414ZM26,24H18V16h8v2.585l-2,2-2.293-2.293-1.414,1.414,3,3a1,1,0,0,0,1.414,0L26,21.413Z"></path><path d="M28,30.586V30a2,2,0,0,0-2-2H18a2,2,0,0,0-2,2v8a2,2,0,0,0,2,2h8a2,2,0,0,0,2-2V33.414l2.707-2.707-1.414-1.414ZM26,38H18V30h8v2.585l-2,2-2.293-2.293-1.414,1.414,3,3a1,1,0,0,0,1.414,0L26,35.413Z"></path><path d="M29.293,43.293,28,44.586V44a2,2,0,0,0-2-2H18a2,2,0,0,0-2,2v8a2,2,0,0,0,2,2h8a2,2,0,0,0,2-2V47.414l2.707-2.707ZM26,52H18V44h8v2.585l-2,2-2.293-2.293-1.414,1.414,3,3a1,1,0,0,0,1.414,0L26,49.413Z"></path><rect x="36" y="24" width="10" height="2"></rect><rect x="36" y="18" width="10" height="2"></rect><rect x="36" y="38" width="10" height="2"></rect><rect x="36" y="32" width="10" height="2"></rect><rect x="36" y="52" width="10" height="2"></rect><rect x="36" y="46" width="10" height="2"></rect></g></svg>