<svg xmlns="http://www.w3.org/2000/svg" viewBox="0 0 64 64" x="0px" y="0px"><title>Location-Map-Search</title><g><path d="M54,45.019a.982.982,0,0,1-.981.981H4.981A.982.982,0,0,1,4,45.019V10.981A.982.982,0,0,1,4.981,10H53.019V8H4.981A2.985,2.985,0,0,0,2,10.981V45.019A2.985,2.985,0,0,0,4.981,48H21v6H20a1,1,0,0,0-1,1v3H15v2H43V58H39V55a1,1,0,0,0-1-1H37V48H53.019A2.985,2.985,0,0,0,56,45.019V33H54ZM21,58V56H37v2Zm14-4H23V48H35Z"></path><rect x="8" y="38" width="42" height="2"></rect><path d="M8,14V34h2V15H22V13H9A1,1,0,0,0,8,14Z"></path><path d="M31,15H29v3H16v2H30a1,1,0,0,0,1-1Z"></path><path d="M31,35V23a1,1,0,0,0-1-1H16v2H29V35Z"></path><path d="M33,15v4a1,1,0,0,0,1,1h6a1,1,0,0,0,1-1V15H39v3H35V15Z"></path><path d="M33,35h2V24h4V35h2V23a1,1,0,0,0-1-1H34a1,1,0,0,0-1,1Z"></path><path d="M46,24V22H44a1,1,0,0,0-1,1V35h2V24Z"></path><path d="M48,18c0,3.523,5.545,11.653,6.177,12.568a1,1,0,0,0,1.646,0C56.455,29.653,62,21.523,62,18a7,7,0,0,0-14,0Zm7-5a5.006,5.006,0,0,1,5,5c0,1.934-2.8,6.843-5,10.207C52.8,24.844,50,19.935,50,18A5.006,5.006,0,0,1,55,13Z"></path><path d="M55,21a3,3,0,1,0-3-3A3,3,0,0,0,55,21Zm0-4a1,1,0,1,1-1,1A1,1,0,0,1,55,17Z"></path></g></svg>