<svg xmlns="http://www.w3.org/2000/svg" viewBox="0 0 64 64" x="0px" y="0px"><g><path d="M57.02,21.48a1,1,0,0,1-.87,1.69l-1.6-.25-.74,1.45a1,1,0,0,1-1.88-.3l-.25-1.61-1.61-.25a1,1,0,0,1-.29-1.88l1.44-.74-.25-1.6a1,1,0,0,1,1.69-.86l1.15,1.14,1.45-.73a1,1,0,0,1,1.35,1.34l-.74,1.45Z"></path><circle cx="50" cy="5" r="2"></circle><path d="M40.05,7.34a1,1,0,0,1-.87,1.69l-1.6-.25-.74,1.44a1,1,0,0,1-1.88-.29l-.25-1.61L33.1,8.07a1,1,0,0,1-.29-1.88l1.44-.74L34,3.85a1,1,0,0,1,1.69-.87l1.15,1.15,1.45-.74a1.007,1.007,0,0,1,1.35,1.35L38.9,6.19Z"></path><rect x="44.355" y="15.473" width="4.001" height="2" transform="translate(1.929 37.603) rotate(-45)"></rect><rect x="44.648" y="27.494" width="2" height="2" transform="translate(-6.778 40.624) rotate(-45)"></rect><rect x="29.092" y="11.938" width="2" height="2" transform="translate(-0.335 25.067) rotate(-45)"></rect><rect x="40.405" y="11.938" width="2" height="2" transform="translate(2.976 33.061) rotate(-44.99)"></rect><rect x="45" y="9" width="2" height="2"></rect><rect x="52" y="10" width="4" height="2"></rect><polygon points="28.04 40.11 21.41 28.79 19.42 32.94 24.59 41.76 28.04 40.11"></polygon><polygon points="31.54 38.44 23.42 24.58 22.45 26.61 29.85 39.24 31.54 38.44"></polygon><path d="M39.46,34.65A34.544,34.544,0,0,1,31.5,28.5a34.823,34.823,0,0,1-6.15-7.96l-.89,1.87,8.89,15.16Z"></path><polygon points="22.78 42.63 18.38 35.12 17.4 37.16 21.09 43.43 22.78 42.63"></polygon><path d="M47.06,23.84v-2c-4.17,0-7.56,2.73-9.34,4.52-.42-.47-.84-.94-1.28-1.39l5.67-5.67L40.7,17.89l-5.67,5.67c-.57-.54-1.14-1.06-1.71-1.55a16.175,16.175,0,0,0,2.72-8.37h-2a14.113,14.113,0,0,1-2.28,7.08c-2.82-2.18-4.59-2.86-5.15-2.81l-.01.02c-.09,1.12,1.99,4.81,6.32,9.15s8.03,6.42,9.14,6.32l.06-.02c.03-.49-.67-2.4-3.11-5.47C40.52,26.36,43.52,23.84,47.06,23.84Z"></path><path d="M33.425,48.189,11.963,59.124a3.506,3.506,0,0,1-4.07-5.6l7.238-7.238L19.28,44.3l-2.92-4.97-2.643,5.539L6.479,52.107a5.5,5.5,0,0,0,6.392,8.8L34.333,49.972a2.276,2.276,0,0,1,2.643,3.637L35.285,55.3A2.95,2.95,0,0,0,34,55a3,3,0,1,0,3,3,2.945,2.945,0,0,0-.3-1.286l1.691-1.691a4.276,4.276,0,0,0-4.965-6.834Z"></path></g></svg>