<svg xmlns="http://www.w3.org/2000/svg" viewBox="0 0 64 64" x="0px" y="0px"><g><rect x="10" y="52" width="2" height="2"></rect><rect x="14" y="52" width="2" height="2"></rect><rect x="18" y="52" width="28" height="2"></rect><rect x="48" y="52" width="2" height="2"></rect><rect x="52" y="52" width="2" height="2"></rect><rect x="15" y="48" width="2" height="2"></rect><rect x="19" y="48" width="2" height="2"></rect><rect x="23" y="48" width="2" height="2"></rect><rect x="27" y="48" width="2" height="2"></rect><rect x="31" y="48" width="2" height="2"></rect><rect x="35" y="48" width="2" height="2"></rect><rect x="39" y="48" width="2" height="2"></rect><rect x="43" y="48" width="2" height="2"></rect><rect x="47" y="48" width="2" height="2"></rect><path d="M47,6H17a2,2,0,0,0-2,2V32a2,2,0,0,0,2,2H47a2,2,0,0,0,2-2V8A2,2,0,0,0,47,6ZM17,32V8H47V32Z"></path><path d="M19,11v4h2V12h3V10H20A1,1,0,0,0,19,11Z"></path><rect x="19" y="17" width="2" height="2"></rect><rect x="43" y="36" width="4" height="2"></rect><rect x="37" y="36" width="4" height="2"></rect><rect x="31" y="36" width="4" height="2"></rect><rect x="25" y="36" width="4" height="2"></rect><path d="M60,53V41a1,1,0,0,0-1-1H52.82A3,3,0,0,0,53,39V5a3.009,3.009,0,0,0-3-3H14a3.009,3.009,0,0,0-3,3V39a3,3,0,0,0,.18,1H5a1,1,0,0,0-1,1V53a1,1,0,0,0,1,1h.59L4.14,56.5A.966.966,0,0,0,4,57v3a2.006,2.006,0,0,0,2,2H58a2.006,2.006,0,0,0,2-2V57a.966.966,0,0,0-.14-.5L58.41,54H59A1,1,0,0,0,60,53ZM13,5a1,1,0,0,1,1-1H50a1,1,0,0,1,1,1V39a1,1,0,0,1-1,1H14a1,1,0,0,1-1-1ZM6,50H7.93L6.76,52H6Zm6.57-4H51.43l5.83,10H6.74ZM58,60H6V58H58Zm0-8h-.76l-1.17-2H58Zm0-8H55v2h3v2H55v.16L52.86,44.5A.987.987,0,0,0,52,44H12a.987.987,0,0,0-.86.5L9,48.16V48H6V46H9V44H6V42H58Z"></path></g></svg>