<svg xmlns="http://www.w3.org/2000/svg" viewBox="0 0 64 64" x="0px" y="0px"><title>Connection</title><g><path d="M35,44.3V42.979A5,5,0,0,0,37,39V37a5,5,0,0,0-10,0v2a5,5,0,0,0,2,3.979V44.3A6.972,6.972,0,0,0,24,51V61a1,1,0,0,0,1,1H39a1,1,0,0,0,1-1V51A6.972,6.972,0,0,0,35,44.3ZM29,37a3,3,0,0,1,6,0v2a2.968,2.968,0,0,1-1.5,2.581,1,1,0,0,0-.5.864V44H31V42.445a1,1,0,0,0-.5-.864A2.968,2.968,0,0,1,29,39Zm3.523,9L32,47.308,31.477,46ZM38,60H37V52a1,1,0,0,0-2,0v8H29V52a1,1,0,0,0-2,0v8H26V51a4.969,4.969,0,0,1,3.43-4.732l1.641,4.1a1,1,0,0,0,1.858,0l1.641-4.1A4.969,4.969,0,0,1,38,51Z"></path><path d="M16,28a1,1,0,0,0,1-1V21a6.99,6.99,0,0,0-2.682-5.49l.009-.011A5.022,5.022,0,0,0,15,13V11A5,5,0,0,0,5,11v2a5.028,5.028,0,0,0,.68,2.51A6.986,6.986,0,0,0,3,21v6a1,1,0,0,0,1,1ZM10,18c.009,0,.018,0,.027,0a4.968,4.968,0,0,0,.82-.068L10,19.2l-.847-1.269a4.968,4.968,0,0,0,.82.068C9.982,18,9.991,18,10,18Zm5,8H11V21.3l2.547-3.816A5,5,0,0,1,15,21ZM7,11a3,3,0,1,1,6,0v2a2.963,2.963,0,0,1-.4,1.49,3.615,3.615,0,0,1-.426.572,3.084,3.084,0,0,1-3.346.681,2.885,2.885,0,0,1-1-.675,3.549,3.549,0,0,1-.425-.567A2.97,2.97,0,0,1,7,13ZM5,21a4.993,4.993,0,0,1,1.452-3.514L9,21.3V26H5Z"></path><path d="M58.318,15.51l.009-.011A5.022,5.022,0,0,0,59,13V11a5,5,0,1,0-10,0v2a5.028,5.028,0,0,0,.68,2.51A6.986,6.986,0,0,0,47,21v6a1,1,0,0,0,1,1H60a1,1,0,0,0,1-1V21A6.988,6.988,0,0,0,58.318,15.51Zm-3.471,2.419L54,19.2l-.847-1.27a4.968,4.968,0,0,0,.82.068c.009,0,.018,0,.027,0s.018,0,.027,0A4.968,4.968,0,0,0,54.847,17.929ZM51,11a3,3,0,0,1,6,0v2a2.963,2.963,0,0,1-.4,1.49,3.615,3.615,0,0,1-.426.572,3.084,3.084,0,0,1-3.346.681,2.885,2.885,0,0,1-1-.675,3.549,3.549,0,0,1-.425-.567A2.97,2.97,0,0,1,51,13ZM49,21a4.992,4.992,0,0,1,1.453-3.514L53,21.3V26H49Zm10,5H55V21.3l2.546-3.816A4.992,4.992,0,0,1,59,21Z"></path><path d="M21.428,52.432A22.94,22.94,0,0,1,9,32a1,1,0,0,0-2,0A24.935,24.935,0,0,0,20.507,54.207a1,1,0,1,0,.921-1.775Z"></path><path d="M56,31a1,1,0,0,0-1,1A22.941,22.941,0,0,1,42.572,52.432a1,1,0,0,0,.921,1.776A24.937,24.937,0,0,0,57,32,1,1,0,0,0,56,31Z"></path><path d="M17.291,14.035a.992.992,0,0,0,.612-.211A23.008,23.008,0,0,1,46,13.746a1,1,0,1,0,1.218-1.586,25.006,25.006,0,0,0-30.536.085,1,1,0,0,0,.614,1.79Z"></path></g></svg>