<svg xmlns="http://www.w3.org/2000/svg" viewBox="0 0 64 64" x="0px" y="0px"><g data-name="Cloud Computing-Smartphone-Cloud-Dowload-Database"><path d="M35,35a2.006,2.006,0,0,1-2-2V31H26V45H38V35Zm-7-2h2v2H28Zm8,10H28V41h8Zm0-4H28V37h8Z"></path><polygon points="36.59 33 35 33 35 31.41 36.59 33"></polygon><path d="M34,54H30a1,1,0,0,0,0,2h4a1,1,0,0,0,0-2Z"></path><path d="M42,25H40.71a1.018,1.018,0,0,1-.81-.4,1.04,1.04,0,0,1-.15-.89A5.85,5.85,0,0,0,40,22a6,6,0,0,0-11.81-1.49.987.987,0,0,1-1.37.67A1.992,1.992,0,0,0,24,23a1.89,1.89,0,0,0,.13.67A1,1,0,0,1,23.18,25H22a4,4,0,0,0,0,8h2V31a2.006,2.006,0,0,1,2-2h9a1.033,1.033,0,0,1,.71.29L39.42,33H42a4,4,0,0,0,0-8Zm-8,0H32V23h2Zm4,0H36V23h2ZM46,4H18a4,4,0,0,0-4,4V56a4,4,0,0,0,4,4H46a4,4,0,0,0,4-4V8A4,4,0,0,0,46,4ZM29,6h6V8H29ZM25,6h2V8H25Zm9,52H30a3,3,0,0,1,0-6h4a3,3,0,0,1,0,6Zm8-23H40V45a2.006,2.006,0,0,1-2,2H26a2.006,2.006,0,0,1-2-2V35H22a6,6,0,0,1,0-12,4,4,0,0,1,4-4,3.642,3.642,0,0,1,.57.04A8,8,0,0,1,42,22a8.386,8.386,0,0,1-.06,1H42a6,6,0,0,1,0,12Zm0-10H40.71a1.018,1.018,0,0,1-.81-.4,1.04,1.04,0,0,1-.15-.89A5.85,5.85,0,0,0,40,22a6,6,0,0,0-11.81-1.49.987.987,0,0,1-1.37.67A1.992,1.992,0,0,0,24,23a1.89,1.89,0,0,0,.13.67A1,1,0,0,1,23.18,25H22a4,4,0,0,0,0,8h2V31a2.006,2.006,0,0,1,2-2h9a1.033,1.033,0,0,1,.71.29L39.42,33H42a4,4,0,0,0,0-8Zm-8,0H32V23h2Zm4,0H36V23h2Zm4,0H40.71a1.018,1.018,0,0,1-.81-.4,1.04,1.04,0,0,1-.15-.89A5.85,5.85,0,0,0,40,22a6,6,0,0,0-11.81-1.49.987.987,0,0,1-1.37.67A1.992,1.992,0,0,0,24,23a1.89,1.89,0,0,0,.13.67A1,1,0,0,1,23.18,25H22a4,4,0,0,0,0,8h2V31a2.006,2.006,0,0,1,2-2h9a1.033,1.033,0,0,1,.71.29L39.42,33H42a4,4,0,0,0,0-8Zm-8,0H32V23h2Zm4,0H36V23h2Z"></path></g></svg>