<svg xmlns="http://www.w3.org/2000/svg" viewBox="0 0 64 64" x="0px" y="0px"><g><path d="M60,60V53a1,1,0,0,0-1-1H5a1,1,0,0,0-1,1v7H7V58H9v2h4V58h2v2h4V58h2v2h4V58h2v2h4V56h2v4h4V58h2v2h4V58h2v2h4V58h2v2h4V58h2v2Z"></path><rect x="12" y="9" width="22" height="6"></rect><path d="M8,44V42H40V40H7a3,3,0,0,0,0,6H40V44Z"></path><path d="M4,39a4.985,4.985,0,0,1,3-1H40V4H7A3.009,3.009,0,0,0,4,7ZM33,29H13V27H33ZM15,25V23H31v2ZM10,8a1,1,0,0,1,1-1H35a1,1,0,0,1,1,1v8a1,1,0,0,1-1,1H11a1,1,0,0,1-1-1Z"></path><path d="M51,40l1,1.333V45a1,1,0,0,0,2,0V41.333L55,40Z"></path><polygon points="54 19 52 19 52 12 50 12 50 38 56 38 56 12 54 12 54 19"></polygon><rect x="50" y="8" width="6" height="2"></rect><rect x="52" y="4" width="2" height="2"></rect></g></svg>