<svg xmlns="http://www.w3.org/2000/svg" viewBox="0 0 64 64" x="0px" y="0px"><g><path d="M42,50H37c-.03,0-.05-.01-.07-.01a9.141,9.141,0,0,1,.86,2.27A3.052,3.052,0,0,1,39,52h3Z"></path><path d="M38,59a1,1,0,0,0,1,1h1V58H39A1,1,0,0,0,38,59Z"></path><path d="M36,48.62V41.86L31.96,40.6c.01.13.04.26.04.4v4a1,1,0,0,1-2,0,1,1,0,0,0-2,0,1,1,0,0,1-2,0V43.3l-2.17,3.25a.99.99,0,0,1-1.66,0L20,43.3V45a1,1,0,0,1-2,0,1,1,0,0,0-2,0,1,1,0,0,1-2,0V41c0-.14.03-.27.04-.4L8.91,42.2A6.964,6.964,0,0,0,4,48.88V60H9.97a2.655,2.655,0,0,0-.45-1.23A8.855,8.855,0,0,1,8,54a8.723,8.723,0,0,1,2.29-5.71l1.42,1.42A6.609,6.609,0,0,0,10,54a6.794,6.794,0,0,0,1.17,3.64,4.756,4.756,0,0,1,.8,2.36H34.03a4.846,4.846,0,0,1,.79-2.36A6.723,6.723,0,0,0,36,54a6.609,6.609,0,0,0-1.71-4.29l1.42-1.42C35.8,48.39,35.9,48.51,36,48.62ZM24,55H22V53h2Zm0-4H22V49h2Z"></path><path d="M7.02,26.81a1.035,1.035,0,0,1,.62.64.99.99,0,0,1-.13.88A2.964,2.964,0,0,0,7,30a3.009,3.009,0,0,0,3,3,2.911,2.911,0,0,0,1.67-.51.993.993,0,0,1,.87-.12,1.035,1.035,0,0,1,.64.62A2.963,2.963,0,0,0,18,34.21v-.42A11.014,11.014,0,0,1,12,24V17a1,1,0,0,1,1-1,17.117,17.117,0,0,0,11.83-4.59,11.815,11.815,0,0,0,.86-.9,13.332,13.332,0,0,0,2.84-5.26A12.991,12.991,0,0,0,10,17v3.15a1.014,1.014,0,0,1-.4.8.97.97,0,0,1-.87.16A2.876,2.876,0,0,0,8,21a3.009,3.009,0,0,0-3,3A2.968,2.968,0,0,0,7.02,26.81Z"></path><path d="M30,42.17V41a3.014,3.014,0,0,0-2-2.83v4a3.026,3.026,0,0,1,2,0Z"></path><path d="M26.78,12.29A7.75,7.75,0,0,0,33,15a1,1,0,0,1,1,1v8a11.014,11.014,0,0,1-6,9.79v.42a2.963,2.963,0,0,0,4.82-1.22,1.035,1.035,0,0,1,.64-.62,1,1,0,0,1,.87.12,3.136,3.136,0,0,0,1.67.5V29a1,1,0,0,1,1-1h1.36a.937.937,0,0,1,0-.55,1.011,1.011,0,0,1,.62-.64A2.968,2.968,0,0,0,41,24a3.009,3.009,0,0,0-3-3,2.876,2.876,0,0,0-.73.11.97.97,0,0,1-.87-.16,1.014,1.014,0,0,1-.4-.8V17A12.975,12.975,0,0,0,30.33,6.28a15.167,15.167,0,0,1-3.13,5.54C27.07,11.98,26.93,12.13,26.78,12.29Z"></path><path d="M40,54H39a1,1,0,0,0,0,2h1Z"></path><path d="M50,45.03A4.924,4.924,0,0,1,53,44h7V30H53a3.009,3.009,0,0,0-3,3ZM52,32h6v2H52Zm0,4h6v2H52Zm0,4h6v2H52Z"></path><path d="M50.17,48H60V46H53A3.014,3.014,0,0,0,50.17,48Z"></path><path d="M20,34.57V39.7l3,4.5,3-4.5V34.57a10.68,10.68,0,0,1-6,0Z"></path><rect x="42" y="58" width="18" height="2"></rect><rect x="42" y="54" width="18" height="2"></rect><path d="M45,30H38V44h7a4.924,4.924,0,0,1,3,1.03V33A3.009,3.009,0,0,0,45,30Zm1,12H40V40h6Zm0-4H40V36h6Zm0-4H40V32h6Z"></path><path d="M45,46H38v2h9.83A3.014,3.014,0,0,0,45,46Z"></path><path d="M18,42.17v-4A3.014,3.014,0,0,0,16,41v1.17a3.026,3.026,0,0,1,2,0Z"></path><path d="M32,24V16.96a9.468,9.468,0,0,1-6.69-3.3A19.161,19.161,0,0,1,14,17.97V24a9,9,0,0,0,18,0ZM17,21a2,2,0,1,1,2,2A2,2,0,0,1,17,21Zm6,8a5.01,5.01,0,0,1-3.532-1.458l1.4-1.424a3.082,3.082,0,0,0,4.256,0l1.4,1.424A5.01,5.01,0,0,1,23,29Zm4-6a2,2,0,1,1,2-2A2,2,0,0,1,27,23Z"></path></g></svg>