<svg xmlns="http://www.w3.org/2000/svg" viewBox="0 0 64 64" x="0px" y="0px"><g><path d="M43,20H40V3a1,1,0,0,0-1-1H25a1,1,0,0,0-1,1V20H21A15.018,15.018,0,0,0,6,35V61a1,1,0,0,0,1,1H57a1,1,0,0,0,1-1V35A15.018,15.018,0,0,0,43,20ZM56,60H8V35A13.012,13.012,0,0,1,21,22h4a1,1,0,0,0,1-1V4H38V21a1,1,0,0,0,1,1h4A13.012,13.012,0,0,1,56,35Z"></path><path d="M43,24H41a5,5,0,0,0-5,5v.33l-.6-.46a1.014,1.014,0,0,1-.4-.8V12a3,3,0,0,0-6,0V28.07a1.014,1.014,0,0,1-.4.8l-.6.46V29a5,5,0,0,0-5-5H21A11.007,11.007,0,0,0,10,35V51.23a5,5,0,0,0,2.15,4.11,4.985,4.985,0,0,0,4.6.57l2.81-1.05A13.075,13.075,0,0,0,28,42.68V36.87l3.4-2.56a1.021,1.021,0,0,1,1.2,0L36,36.87v5.81a13.075,13.075,0,0,0,8.44,12.18l2.81,1.05a4.824,4.824,0,0,0,1.75.31,4.975,4.975,0,0,0,5-4.99V35A11.007,11.007,0,0,0,43,24ZM31,12a1,1,0,0,1,2,0v2H31Zm0,4h2v2H31Zm0,4h2v2H31ZM26,42.68a11.051,11.051,0,0,1-7.14,10.3l-2.81,1.05A2.994,2.994,0,0,1,12,51.23V35a9.014,9.014,0,0,1,9-9h2a3.009,3.009,0,0,1,3,3v1.84l-3.84,2.9L21,32.59V29H19v1.59l-1.29-1.3-1.42,1.42L17.59,32H16v2h3.59l.96.96-1.15.87a3,3,0,0,0-1.17,2.05V38H15v2h3.81c.04.05.07.1.11.15a.6.6,0,0,0,.08.08v3.36l-2.71,2.7,1.42,1.42L19,46.41V49h2V46.39l1.3,1.31,1.42-1.42L21,43.57V41.2c.07,0,.14.02.22.02a3.039,3.039,0,0,0,1.8-.6L26,38.38Zm7.8-9.96a3,3,0,0,0-3.6,0l-8.39,6.3a1,1,0,0,1-1.2-1.6l9.2-6.96A2.984,2.984,0,0,0,31,28.07V24h2v4.07a2.984,2.984,0,0,0,1.19,2.39l9.2,6.96a1,1,0,0,1,.39.69,1,1,0,0,1-1.59.91ZM52,51.23a2.994,2.994,0,0,1-4.05,2.8l-2.81-1.05A11.051,11.051,0,0,1,38,42.68v-4.3l2.98,2.24A2.992,2.992,0,0,0,43,41.2v2.37l-2.72,2.71L41.7,47.7,43,46.39V49h2V46.41l1.29,1.3,1.42-1.42L45,43.59V40.23a.6.6,0,0,0,.08-.08c.04-.05.07-.1.11-.15H49V38H45.77v-.12a3,3,0,0,0-1.17-2.05l-1.15-.87.96-.96H48V32H46.41l1.3-1.29-1.42-1.42L45,30.59V29H43v3.59l-1.16,1.15L38,30.84V29a3.009,3.009,0,0,1,3-3h2a9.014,9.014,0,0,1,9,9Z"></path><path d="M5.05,16.536,6.464,17.95l1.517-1.517A3.915,3.915,0,0,0,9,16.858V19h2V16.858a3.915,3.915,0,0,0,1.019-.425l1.517,1.517,1.414-1.414-1.517-1.517A3.915,3.915,0,0,0,13.858,14H16V12H13.858a3.915,3.915,0,0,0-.425-1.019L14.95,9.464,13.536,8.05,12.019,9.567A3.915,3.915,0,0,0,11,9.142V7H9V9.142a3.915,3.915,0,0,0-1.019.425L6.464,8.05,5.05,9.464l1.517,1.517A3.915,3.915,0,0,0,6.142,12H4v2H6.142a3.915,3.915,0,0,0,.425,1.019ZM10,11a2,2,0,1,1-2,2A2,2,0,0,1,10,11Z"></path><path d="M60,14V12H57.858a3.915,3.915,0,0,0-.425-1.019L58.95,9.464,57.536,8.05,56.019,9.567A3.915,3.915,0,0,0,55,9.142V7H53V9.142a3.915,3.915,0,0,0-1.019.425L50.464,8.05,49.05,9.464l1.517,1.517A3.915,3.915,0,0,0,50.142,12H48v2h2.142a3.915,3.915,0,0,0,.425,1.019L49.05,16.536l1.414,1.414,1.517-1.517A3.915,3.915,0,0,0,53,16.858V19h2V16.858a3.915,3.915,0,0,0,1.019-.425l1.517,1.517,1.414-1.414-1.517-1.517A3.915,3.915,0,0,0,57.858,14Zm-6,1a2,2,0,1,1,2-2A2,2,0,0,1,54,15Z"></path><path d="M35.433,49.981l1.517-1.517L35.536,47.05l-1.517,1.517A3.915,3.915,0,0,0,33,48.142V46H31v2.142a3.915,3.915,0,0,0-1.019.425L28.464,47.05,27.05,48.464l1.517,1.517A3.915,3.915,0,0,0,28.142,51H26v2h2.142a3.915,3.915,0,0,0,.425,1.019L27.05,55.536l1.414,1.414,1.517-1.517A3.915,3.915,0,0,0,31,55.858V58h2V55.858a3.915,3.915,0,0,0,1.019-.425l1.517,1.517,1.414-1.414-1.517-1.517A3.915,3.915,0,0,0,35.858,53H38V51H35.858A3.915,3.915,0,0,0,35.433,49.981ZM32,54a2,2,0,1,1,2-2A2,2,0,0,1,32,54Z"></path></g></svg>