<svg xmlns="http://www.w3.org/2000/svg" viewBox="0 0 64 64" x="0px" y="0px"><g data-name="Handbag"><path d="M47,18.552V17a15,15,0,0,0-30,0v1.552A15.1,15.1,0,0,0,6,33V57a5.006,5.006,0,0,0,5,5H53a5.006,5.006,0,0,0,5-5V33A15.1,15.1,0,0,0,47,18.552ZM8,33c0-.171.016-.338.022-.508C13.639,35.959,22.422,38,32,38s18.361-2.041,23.978-5.508c.006.17.022.337.022.508v1.752C49.978,38.137,41.49,40,32,40S14.022,38.137,8,34.752Zm9.847-7h4.306l.709,4.254L20,30.969l-2.862-.715ZM41,18H23V17a9,9,0,0,1,18,0Zm.847,8h4.306l.709,4.254L44,30.969l-2.862-.715ZM32,4A13.015,13.015,0,0,1,45,17v7H43V17a11,11,0,0,0-22,0v7H19V17A13.015,13.015,0,0,1,32,4ZM17,20.631V24a1,1,0,0,0-.986.835l-1,6a1,1,0,0,0,.744,1.135l4,1a.991.991,0,0,0,.484,0l4-1a1,1,0,0,0,.744-1.135l-1-6A1,1,0,0,0,23,24V20H41v4a1,1,0,0,0-.986.835l-1,6a1,1,0,0,0,.744,1.135l4,1a.991.991,0,0,0,.484,0l4-1a1,1,0,0,0,.744-1.135l-1-6A1,1,0,0,0,47,24V20.631a13.115,13.115,0,0,1,8.7,9.658C50.528,33.82,41.546,36,32,36S13.472,33.82,8.3,30.289A13.115,13.115,0,0,1,17,20.631ZM53,60H11a3,3,0,0,1-3-3V37.026C14.237,40.24,22.672,42,32,42s17.763-1.76,24-4.974V57A3,3,0,0,1,53,60Z"></path><polygon points="31 32 33 32 33 27.781 36.242 26.97 35.758 25.03 32 25.969 28.242 25.03 27.758 26.97 31 27.781 31 32"></polygon></g></svg>