<svg xmlns="http://www.w3.org/2000/svg" viewBox="0 0 64 64" x="0px" y="0px"><g><path d="M20,16a1,1,0,0,0,1,1h2.522a9.4,9.4,0,0,0,.362.874L22.1,19.657a1,1,0,0,0,0,1.414L24.929,23.9a1,1,0,0,0,1.414,0l1.783-1.783a8.983,8.983,0,0,0,.874.362V25a1,1,0,0,0,1,1h4a1,1,0,0,0,1-1V22.478a8.763,8.763,0,0,0,.873-.362L37.657,23.9a1,1,0,0,0,1.414,0L41.9,21.071a1,1,0,0,0,0-1.414l-1.784-1.783A9.247,9.247,0,0,0,40.478,17H43a1,1,0,0,0,1-1V12a1,1,0,0,0-1-1H40.478a9.12,9.12,0,0,0-.363-.873L41.9,8.343a1,1,0,0,0,0-1.414L39.071,4.1a1,1,0,0,0-1.414,0L35.874,5.884A9.285,9.285,0,0,0,35,5.522V3a1,1,0,0,0-1-1H30a1,1,0,0,0-1,1V5.523a9.124,9.124,0,0,0-.874.361L26.343,4.1a1,1,0,0,0-1.414,0L22.1,6.929a1,1,0,0,0,0,1.414l1.783,1.784a9.266,9.266,0,0,0-.362.873H21a1,1,0,0,0-1,1Zm2-3h2.262a1,1,0,0,0,.968-.75,7,7,0,0,1,.745-1.8,1,1,0,0,0-.154-1.216l-1.6-1.6,1.414-1.414,1.6,1.6a1,1,0,0,0,1.216.154,7,7,0,0,1,1.8-.745A1,1,0,0,0,31,6.262V4h2V6.262a1,1,0,0,0,.75.968,6.982,6.982,0,0,1,1.8.745,1,1,0,0,0,1.216-.154l1.6-1.6,1.414,1.414-1.6,1.6a1,1,0,0,0-.155,1.216,7,7,0,0,1,.747,1.8,1,1,0,0,0,.967.75H42v2H39.738a1,1,0,0,0-.967.75,7.01,7.01,0,0,1-.747,1.8,1,1,0,0,0,.155,1.216l1.6,1.6-1.414,1.414-1.6-1.6a1,1,0,0,0-1.216-.154,6.963,6.963,0,0,1-1.8.745,1,1,0,0,0-.751.968V24H31V21.738a1,1,0,0,0-.75-.968,6.955,6.955,0,0,1-1.8-.745,1,1,0,0,0-1.216.154l-1.6,1.6-1.414-1.414,1.6-1.6a1,1,0,0,0,.154-1.216,6.976,6.976,0,0,1-.745-1.8,1,1,0,0,0-.968-.75H22Z"></path><path d="M32,19a5,5,0,1,0-5-5A5.006,5.006,0,0,0,32,19Zm0-8a3,3,0,1,1-3,3A3,3,0,0,1,32,11Z"></path><path d="M55.707,56.293l-6-6A1,1,0,0,0,49,50H19V48a3,3,0,0,0-3-3H10a1,1,0,0,1,0-2h6a3,3,0,0,0,3-3V38h7v4H22a1,1,0,0,0-1,1v4a1,1,0,0,0,1,1H42a1,1,0,0,0,1-1V43a1,1,0,0,0-1-1H38V38H52a3,3,0,0,0,3-3V9a3,3,0,0,0-3-3H44V8h8a1,1,0,0,1,1,1V30H11V9a1,1,0,0,1,1-1h8V6H12A3,3,0,0,0,9,9V35a3,3,0,0,0,3,3h5v2a1,1,0,0,1-1,1H10a3,3,0,0,0,0,6h6a1,1,0,0,1,1,1v2H15a1,1,0,0,0-.707.293l-6,6A1,1,0,0,0,8,57v3a2,2,0,0,0,2,2H54a2,2,0,0,0,2-2V57A1,1,0,0,0,55.707,56.293ZM41,46H23V44H41Zm-5-4H28V38h8ZM11,35V32H53v3a1,1,0,0,1-1,1H12A1,1,0,0,1,11,35Zm4.414,17H48.586l4,4H11.414ZM10,60V58H54v2Z"></path><rect x="16" y="53" width="2" height="2"></rect><rect x="20" y="53" width="2" height="2"></rect><rect x="42" y="53" width="2" height="2"></rect><rect x="24" y="53" width="16" height="2"></rect><rect x="46" y="53" width="2" height="2"></rect><rect x="47" y="33" width="2" height="2"></rect></g></svg>