<svg xmlns="http://www.w3.org/2000/svg" viewBox="0 0 64 64" x="0px" y="0px"><g data-name="Stationery"><rect x="26" y="25" width="20" height="8"></rect><path d="M13,50.105l.031-.028c.073-.074.153-.143.23-.214s.175-.166.268-.244.164-.124.246-.187c.1-.074.194-.151.295-.221.085-.057.175-.108.262-.162.106-.065.209-.133.318-.193.091-.05.188-.092.282-.138.11-.054.218-.112.332-.16s.207-.077.311-.116.22-.087.334-.122.237-.063.355-.093.211-.06.319-.082c.14-.029.284-.046.427-.067.091-.013.179-.032.271-.041A7.106,7.106,0,0,1,18,48h1V17H18a5.006,5.006,0,0,0-5,5Z"></path><path d="M51,54V50H18a5.006,5.006,0,0,0-5,5,5.009,5.009,0,0,0,5,5H51V56H18V54Z"></path><path d="M51,17H21V48H51ZM48,34a1,1,0,0,1-1,1H25a1,1,0,0,1-1-1V24a1,1,0,0,1,1-1H47a1,1,0,0,1,1,1Z"></path><polygon points="47 7 47 4 37 4 37 15 47 15 47 13 43 13 43 11 47 11 47 9 45 9 45 7 47 7"></polygon><rect x="23" y="9" width="3" height="6"></rect><rect x="28" y="9" width="3" height="6"></rect><polygon points="24.414 7 29.586 7 27 4.414 24.414 7"></polygon></g></svg>