<svg xmlns="http://www.w3.org/2000/svg" viewBox="0 0 64 64" x="0px" y="0px"><g data-name="Smartphone-Schedule-Clock-Calendar-Time Management"><rect x="49" y="45" width="4" height="3"></rect><rect x="43" y="40" width="4" height="3"></rect><rect x="49" y="40" width="4" height="3"></rect><path d="M59,31a1,1,0,0,0-1-1H55v1H53V30H51v1H49V30H47v1H45V30H43v1H41V30H38a1,1,0,0,0-1,1v2H59Z"></path><rect x="49" y="35" width="4" height="3"></rect><path d="M49,28V9a5,5,0,0,0-5-5H20a5,5,0,0,0-5,5v3a13,13,0,0,1,0,26V55a5,5,0,0,0,5,5H44a5,5,0,0,0,5-5V50H38a3.009,3.009,0,0,1-3-3V31a3.009,3.009,0,0,1,3-3h3V27h2v1h2V27h2v1ZM21,8H19V6h2Zm4,0H23V6h2Zm2,0V6H37V8ZM19,40H29v2H19Zm0,4H29v2H19Zm0,6V48H29v2Zm18,5a3.009,3.009,0,0,1-3,3H30a3,3,0,0,1,0-6h4A3.009,3.009,0,0,1,37,55Zm8-31H31V22H45Zm0-4H31V18H45Zm0-4H31V14H45Z"></path><path d="M16,14.051V16H14V14.051a10.946,10.946,0,0,0-6.034,2.5l1.377,1.377L7.929,19.343,6.552,17.966A10.946,10.946,0,0,0,4.051,24H6v2H4.051a10.946,10.946,0,0,0,2.5,6.034l1.377-1.377,1.414,1.414L7.966,33.448A10.946,10.946,0,0,0,14,35.949V34h2v1.949a10.946,10.946,0,0,0,6.034-2.5l-1.377-1.377,1.414-1.414,1.377,1.377A10.946,10.946,0,0,0,25.949,26H24V24h1.949a10.946,10.946,0,0,0-2.5-6.034l-1.377,1.377-1.414-1.414,1.377-1.377A10.946,10.946,0,0,0,16,14.051ZM21,24v2H17.816A2.993,2.993,0,1,1,14,22.184V18h2v4.184A3,3,0,0,1,17.816,24Z"></path><path d="M34,54H30a1,1,0,0,0,0,2h4a1,1,0,0,0,0-2Z"></path><circle cx="15" cy="25" r="1"></circle><rect x="43" y="45" width="4" height="3"></rect><rect x="55" y="35" width="4" height="3"></rect><path d="M59,47V45H55v3h3A1,1,0,0,0,59,47Z"></path><rect x="55" y="40" width="4" height="3"></rect><rect x="37" y="35" width="4" height="3"></rect><rect x="37" y="40" width="4" height="3"></rect><rect x="43" y="35" width="4" height="3"></rect><path d="M37,47a1,1,0,0,0,1,1h3V45H37Z"></path><rect x="49" y="27" width="2" height="1"></rect><rect x="53" y="27" width="2" height="1"></rect></g></svg>