<svg xmlns="http://www.w3.org/2000/svg" viewBox="0 0 64 64" x="0px" y="0px"><g data-name="Presentaion up"><rect x="30" y="50" width="4" height="6"></rect><rect x="30" y="4" width="4" height="2"></rect><rect x="4" y="8" width="56" height="2"></rect><rect x="4" y="46" width="56" height="2"></rect><rect x="23" y="58" width="18" height="2"></rect><path d="M6,44H58V12H6Zm20-2H18V40h8Zm10,0H28V40h8Zm10,0H38V40h8ZM14,14h2V34.586L21.586,29h10l11-11H39V16h7v7H44V19.414L32.414,31h-10l-5,5H49v2H14ZM8,15h4v2H8Zm0,4h4v2H8Z"></path></g></svg>