<svg xmlns="http://www.w3.org/2000/svg" viewBox="0 0 64 64" x="0px" y="0px"><g><path d="M59,23H53V21h1a3.009,3.009,0,0,0,3-3V16.32a3.023,3.023,0,0,0-1.82-2.76l-5.22-2.24a3.029,3.029,0,0,0-1.74-.19L33.9,13.82a2.982,2.982,0,0,0-2.24,1.83l-.49,1.23a.527.527,0,0,1-.03.12H13V16a1,1,0,0,0-1-1H6a1,1,0,0,0-1,1v4a1,1,0,0,0,1,1h6a1,1,0,0,0,1-1V19H31.13a2.706,2.706,0,0,0,.34.68A2.964,2.964,0,0,0,33.95,21H35v2H31.19a1.914,1.914,0,0,0-.74.14L20.81,27H16.25a1.929,1.929,0,0,0-.94.24L3.34,33.68a2,2,0,0,0-.87,2.57l3.35,7.57A2,2,0,0,0,7.65,45h.43a7.108,7.108,0,0,0,.42,1.6l-.93.53,1,1.74.94-.54a7.072,7.072,0,0,0,1.16,1.16l-.54.94,1.74,1,.53-.93a7.108,7.108,0,0,0,1.6.42V52h2V50.92a7.108,7.108,0,0,0,1.6-.42l.53.93,1.74-1-.54-.94a7.072,7.072,0,0,0,1.16-1.16l.94.54,1-1.74-.93-.53a7.108,7.108,0,0,0,.42-1.6h6.16a7.108,7.108,0,0,0,.42,1.6l-.93.53,1,1.74.94-.54a7.072,7.072,0,0,0,1.16,1.16l-.54.94,1.74,1,.53-.93a7.108,7.108,0,0,0,1.6.42V52h2V50.92a7.108,7.108,0,0,0,1.6-.42l.53.93,1.74-1-.54-.94a7.072,7.072,0,0,0,1.16-1.16l.94.54,1-1.74-.93-.53a7.108,7.108,0,0,0,.42-1.6h2.16a7.108,7.108,0,0,0,.42,1.6l-.93.53,1,1.74.94-.54a7.072,7.072,0,0,0,1.16,1.16l-.54.94,1.74,1,.53-.93a7.108,7.108,0,0,0,1.6.42V52h2V50.92a7.108,7.108,0,0,0,1.6-.42l.53.93,1.74-1-.54-.94a7.072,7.072,0,0,0,1.16-1.16l.94.54,1-1.74-.93-.53a7.108,7.108,0,0,0,.42-1.6H59a3.009,3.009,0,0,0,3-3V26A3.009,3.009,0,0,0,59,23ZM11,19H7V17h4Zm22.95,0a.989.989,0,0,1-.92-1.37l.49-1.23a.973.973,0,0,1,.74-.62l14.32-2.69a1.086,1.086,0,0,1,.59.07l5.22,2.24a1,1,0,0,1,.61.92V18a1,1,0,0,1-1,1H49V18a2.006,2.006,0,0,0-2-2H41a2.006,2.006,0,0,0-2,2v1ZM47,22a2,2,0,0,0,1.72-1H51v2H37V21h2.28A2,2,0,0,0,41,22Zm-6-2V18h6v2ZM15,49a5,5,0,1,1,5-5A5,5,0,0,1,15,49Zm20,0a5,5,0,1,1,5-5A5,5,0,0,1,35,49Zm16,0a5,5,0,1,1,5-5A5,5,0,0,1,51,49Zm9-7a1,1,0,0,1-1,1H57.92a7.108,7.108,0,0,0-.42-1.6l.93-.53-1-1.74-.94.54a7.072,7.072,0,0,0-1.16-1.16l.54-.94-1.74-1-.53.93a7.108,7.108,0,0,0-1.6-.42V36H50v1.08a7.108,7.108,0,0,0-1.6.42l-.53-.93-1.74,1,.54.94a7.072,7.072,0,0,0-1.16,1.16l-.94-.54-1,1.74.93.53a7.108,7.108,0,0,0-.42,1.6H41.92a7.108,7.108,0,0,0-.42-1.6l.93-.53-1-1.74-.94.54a7.072,7.072,0,0,0-1.16-1.16l.54-.94-1.74-1-.53.93a7.108,7.108,0,0,0-1.6-.42V36H34v1.08a7.108,7.108,0,0,0-1.6.42l-.53-.93-1.74,1,.54.94a7.072,7.072,0,0,0-1.16,1.16l-.94-.54-1,1.74.93.53a7.108,7.108,0,0,0-.42,1.6H21.92a7.108,7.108,0,0,0-.42-1.6l.93-.53-1-1.74-.94.54a7.072,7.072,0,0,0-1.16-1.16l.54-.94-1.74-1-.53.93a7.108,7.108,0,0,0-1.6-.42V36H14v1.08a7.108,7.108,0,0,0-1.6.42l-.53-.93-1.74,1,.54.94a7.072,7.072,0,0,0-1.16,1.16l-.94-.54-1,1.74.93.53A7.25,7.25,0,0,0,8.08,43H7.64L4.29,35.44,16.25,29h4.56a1.914,1.914,0,0,0,.74-.14L31.19,25H59a1,1,0,0,1,1,1Z"></path><path d="M52,27H50a2,2,0,0,0-2,2v2a2,2,0,0,0,2,2h2a2,2,0,0,0,2-2V29A2,2,0,0,0,52,27Zm0,4H50V29h2Z"></path><path d="M44,27H42a2,2,0,0,0-2,2v2a2,2,0,0,0,2,2h2a2,2,0,0,0,2-2V29A2,2,0,0,0,44,27Zm0,4H42V29h2Z"></path><path d="M36,27H34a2,2,0,0,0-2,2v2a2,2,0,0,0,2,2h2a2,2,0,0,0,2-2V29A2,2,0,0,0,36,27Zm0,4H34V29h2Z"></path><path d="M15,48a4,4,0,1,0-4-4A4,4,0,0,0,15,48Zm0-6a2,2,0,1,1-2,2A2,2,0,0,1,15,42Z"></path><path d="M35,48a4,4,0,1,0-4-4A4,4,0,0,0,35,48Zm0-6a2,2,0,1,1-2,2A2,2,0,0,1,35,42Z"></path><path d="M51,48a4,4,0,1,0-4-4A4,4,0,0,0,51,48Zm0-6a2,2,0,1,1-2,2A2,2,0,0,1,51,42Z"></path></g></svg>