<svg xmlns="http://www.w3.org/2000/svg" viewBox="0 0 64 64" x="0px" y="0px"><g data-name="Information Label"><path d="M48,37v1.37L53.662,32,48,25.63V27a1,1,0,0,1-1,1H35v8H47A1,1,0,0,1,48,37Z"></path><path d="M18,40a8,8,0,1,0-8-8A8.009,8.009,0,0,0,18,40Zm-.71-14.71A1,1,0,0,1,19,26a.99.99,0,0,1-1.38.92,1.155,1.155,0,0,1-.33-.21A.99.99,0,0,1,17,26,1.045,1.045,0,0,1,17.29,25.29ZM15,36h2V30H15V28h3a1,1,0,0,1,1,1v7h2v2H15Z"></path><path d="M5,46H59a1,1,0,0,0,1-1V19a1,1,0,0,0-1-1H5a1,1,0,0,0-1,1V45A1,1,0,0,0,5,46ZM33,27a1,1,0,0,1,1-1H46V23a1,1,0,0,1,1.747-.664l8,9a1,1,0,0,1,0,1.328l-8,9A1,1,0,0,1,46,41V38H34a1,1,0,0,1-1-1ZM18,22A10,10,0,1,1,8,32,10.011,10.011,0,0,1,18,22Z"></path></g></svg>