<svg xmlns="http://www.w3.org/2000/svg" viewBox="0 0 64 64" x="0px" y="0px"><title>Vision</title><g><path d="M41.064,30H46V22H41V16h4V8H36V2H28V8H19v8h4v6H18v8h4.936L21.061,60H8v2H56V60H42.939Zm-1.01,15.889-16-1.777.372-5.947,15.248,1.694Zm.126,2.026.366,5.856-16.933-2.54.32-5.121ZM30,4h4V8H30ZM21,14V10H43v4Zm4,2H39v6H35V18H29v4H25Zm8,6H31V20h2ZM20,28V24H44v4Zm19.061,2,.489,7.833-15-1.666L24.939,30Zm-16,30,.423-6.766,17.187,2.578L40.936,60Z"></path><rect x="45.678" y="12.5" width="16.643" height="2" transform="translate(1.271 31.331) rotate(-32.72)"></rect><rect x="53" y="16.178" width="2" height="16.643" transform="translate(4.19 56.675) rotate(-57.265)"></rect><rect x="9" y="5.178" width="2" height="16.643" transform="translate(-6.763 14.612) rotate(-57.265)"></rect><rect x="1.678" y="23.5" width="16.643" height="2" transform="translate(-11.66 9.299) rotate(-32.735)"></rect></g></svg>