<svg xmlns="http://www.w3.org/2000/svg" viewBox="0 0 64 64" x="0px" y="0px"><title>Key-Lock-Love</title><g><path d="M35.989,36A5.883,5.883,0,0,0,32,37.545,5.893,5.893,0,0,0,28.021,36H28a5.976,5.976,0,0,0-6,5.993c0,2.376,1.2,4.83,3.567,7.3a28.48,28.48,0,0,0,5.946,4.586,1,1,0,0,0,.97,0C32.874,53.658,42,48.515,42,42h0a5.96,5.96,0,0,0-1.754-4.241A5.855,5.855,0,0,0,35.989,36ZM40,42c0,4.585-6.2,8.729-8,9.836a26.649,26.649,0,0,1-4.99-3.935C25.011,45.824,24,43.837,24,42a3.974,3.974,0,0,1,4-4h.015a3.972,3.972,0,0,1,3.186,1.626,1,1,0,0,0,.8.4h0a1,1,0,0,0,.8-.4A3.936,3.936,0,0,1,35.992,38H36A3.993,3.993,0,0,1,40,42Z"></path><path d="M49,24H48V9a7.008,7.008,0,0,0-7-7H23a7.008,7.008,0,0,0-7,7V24H15a3,3,0,0,0-3,3V57a5.006,5.006,0,0,0,5,5H47a5.006,5.006,0,0,0,5-5V27A3,3,0,0,0,49,24ZM18,9a5.006,5.006,0,0,1,5-5H41a5.006,5.006,0,0,1,5,5V24H44V9a3,3,0,0,0-3-3H23a3,3,0,0,0-3,3V24H18ZM42,24H22V9a1,1,0,0,1,1-1H41a1,1,0,0,1,1,1Zm8,33a3,3,0,0,1-3,3H17a3,3,0,0,1-3-3V27a1,1,0,0,1,1-1H49a1,1,0,0,1,1,1Z"></path></g></svg>