<svg xmlns="http://www.w3.org/2000/svg" viewBox="0 0 64 64" x="0px" y="0px"><g><rect x="46" y="33" width="2" height="2"></rect><rect x="50" y="33" width="2" height="2"></rect><rect x="54" y="33" width="2" height="2"></rect><path d="M60,7V9a1,1,0,0,1-1,1H57a3,3,0,0,0-3,3v2h2V13a1,1,0,0,1,1-1h2a3,3,0,0,0,3-3V7Z"></path><path d="M48,15a1,1,0,0,1,1-1,3,3,0,0,0,3-3V9H50v2a1,1,0,0,1-1,1,3,3,0,0,0-3,3v2h2Z"></path><rect x="9" y="47" width="2" height="2"></rect><rect x="13" y="47" width="2" height="2"></rect><rect x="17" y="47" width="2" height="2"></rect><rect x="21" y="47" width="2" height="2"></rect><rect x="25" y="47" width="2" height="2"></rect><rect x="29" y="47" width="2" height="2"></rect><rect x="33" y="47" width="2" height="2"></rect><rect x="37" y="47" width="2" height="2"></rect><path d="M61.1,46.005,60,45.891V30a1,1,0,0,0-1-1H58V18a1,1,0,0,0-1-1H53a1,1,0,0,0-1,1V29H50V20a1,1,0,0,0-1-1H45a1,1,0,0,0-1,1v9H43a1,1,0,0,0-1,1V44.029l-9.842-1.018c.008-.01.019-.018.027-.028,2.356-2.8,2.74-10.808,2.8-13.307,0,.11.013.206.013.324h2a8.27,8.27,0,0,0-.646-3.5,5.975,5.975,0,0,0,1.879-1.45A6.278,6.278,0,0,1,39,28c0,2.415-2.536,4.152-2.559,4.167l1.108,1.666C37.69,33.739,41,31.5,41,28a8.646,8.646,0,0,0-2.293-5.707A1,1,0,0,0,37,23c0,.8-1.035,1.471-1.779,1.826-.172-.185-.344-.363-.514-.533C34.249,23.834,34,22.085,34,21a1,1,0,0,0-1.707-.706c-.2.2-.488.442-.814.72C30.011,22.26,28,23.968,28,26a5.932,5.932,0,0,0,.972,2.991c-.5.109-1,.221-1.5.336a68.627,68.627,0,0,0-6.731-8.994,1.032,1.032,0,0,0-1.49,0A68.675,68.675,0,0,0,12.54,29.3a47.092,47.092,0,0,1-7.055-3.175A1,1,0,0,0,4,27.087c.034.39.77,8.567,2.455,13.266L3.1,40.005a1,1,0,0,0-1.061,1.282l5.546,18.5a4.954,4.954,0,0,1-1.512-1.343A5.118,5.118,0,0,0,2,56.2v2c1.154,0,1.7.563,2.569,1.557A5.118,5.118,0,0,0,8.645,62a3.269,3.269,0,0,0,.345-.012,5.286,5.286,0,0,0,3.743-2.223c.881-1,1.436-1.565,2.6-1.565,1.228,0,1.8.62,2.6,1.479A5.2,5.2,0,0,0,21.99,61.8a5.2,5.2,0,0,0,4.063-2.118c.8-.86,1.372-1.482,2.607-1.482s1.8.62,2.6,1.479a4.954,4.954,0,0,0,8.128,0c.794-.859,1.368-1.479,2.6-1.479s1.81.622,2.607,1.482a4.964,4.964,0,0,0,8.136,0c.8-.859,1.374-1.48,2.607-1.48s1.8.621,2.6,1.48a5.849,5.849,0,0,0,2.811,1.966A1,1,0,0,0,62,60.68V47A1,1,0,0,0,61.1,46.005ZM54,19h2V29H54Zm-8,2h2v8H46ZM44,39H56V37H44V31H58V45.684L44,44.236ZM30,26c0-.913,1.18-2.075,2.175-2.949a5.078,5.078,0,0,0,1.118,2.656,4.578,4.578,0,0,1,1.6,2.854.985.985,0,0,0-.248-.326,1,1,0,0,0-.824-.219c-.021,0-1.185.218-2.741.533A4.787,4.787,0,0,1,30,26ZM6.19,28.757a42.812,42.812,0,0,0,5.35,2.319A11.251,11.251,0,0,0,10,36h2c0-.81.326-2.34,1.878-5.034A62.017,62.017,0,0,1,20,22.527a66.9,66.9,0,0,1,5.446,7.315c-2.712.772-4.564,1.73-5.511,2.854l1.53,1.288c.788-.937,2.833-1.839,5.761-2.542,2.009-.488,4.354-.96,5.744-1.229-.129,3.367-.688,9.549-2.314,11.482a5.957,5.957,0,0,1-1.162,1.04l-5.68-.587A3.94,3.94,0,0,0,24,41c0-1.945-2.712-5.063-3.256-5.668a1.033,1.033,0,0,0-1.488,0C18.712,35.937,16,39.055,16,41c0,.114.013.228.023.342l-7.317-.757C7.36,37.643,6.539,31.757,6.19,28.757Zm11.9,12.8A1.954,1.954,0,0,1,18,41c0-.639.939-2.127,2-3.452,1.062,1.332,2,2.831,2,3.452a1.918,1.918,0,0,1-.242.935ZM59.4,58.321a4.965,4.965,0,0,0-8.139,0c-.8.859-1.373,1.48-2.607,1.48s-1.8-.62-2.6-1.478a4.963,4.963,0,0,0-8.138,0c-.794.859-1.368,1.479-2.6,1.479s-1.8-.62-2.6-1.479a4.963,4.963,0,0,0-8.139,0c-.794.857-1.368,1.477-2.6,1.477s-1.8-.62-2.6-1.479A5.2,5.2,0,0,0,15.33,56.2a5.176,5.176,0,0,0-4.1,2.242,4.862,4.862,0,0,1-1.555,1.35L4.389,42.149,60,47.9V51H11v2H60v5.946C59.8,58.755,59.6,58.543,59.4,58.321Z"></path><path d="M29.3,18h2a1.36,1.36,0,0,1,.465-1.021,3.322,3.322,0,0,0,0-4.62,1.358,1.358,0,0,1,0-2.048A3.29,3.29,0,0,0,32.7,8h-2a1.362,1.362,0,0,1-.466,1.024,3.326,3.326,0,0,0,0,4.622,1.356,1.356,0,0,1,0,2.045A3.28,3.28,0,0,0,29.3,18Z"></path><path d="M35.3,16h2a1.36,1.36,0,0,1,.465-1.021,3.322,3.322,0,0,0,0-4.62,1.358,1.358,0,0,1,0-2.048A3.29,3.29,0,0,0,38.7,6h-2a1.362,1.362,0,0,1-.466,1.024,3.326,3.326,0,0,0,0,4.622,1.356,1.356,0,0,1,0,2.045A3.28,3.28,0,0,0,35.3,16Z"></path><path d="M6.3,14h2a1.36,1.36,0,0,1,.465-1.021,3.322,3.322,0,0,0,0-4.62,1.358,1.358,0,0,1,0-2.048A3.29,3.29,0,0,0,9.7,4h-2a1.362,1.362,0,0,1-.466,1.024,3.326,3.326,0,0,0,0,4.622,1.356,1.356,0,0,1,0,2.045A3.28,3.28,0,0,0,6.3,14Z"></path><path d="M12.3,12h2a1.36,1.36,0,0,1,.465-1.021,3.322,3.322,0,0,0,0-4.62,1.358,1.358,0,0,1,0-2.048A3.29,3.29,0,0,0,15.7,2h-2a1.362,1.362,0,0,1-.466,1.024,3.326,3.326,0,0,0,0,4.622,1.356,1.356,0,0,1,0,2.045A3.28,3.28,0,0,0,12.3,12Z"></path><path d="M29.98,34.8l-1.96.392c.008.041.768,4.154-1.336,4.855l.632,1.9C31.11,40.684,30.028,35.043,29.98,34.8Z"></path><rect x="11" y="23" width="2" height="2"></rect><rect x="7" y="19" width="2" height="2"></rect><rect x="26" y="19" width="2" height="2"></rect></g></svg>