<svg xmlns="http://www.w3.org/2000/svg" viewBox="0 0 64 64" x="0px" y="0px"><g data-name="Global Law"><path d="M37,14a1,1,0,0,1,.707.293l5,5A1,1,0,0,1,43,20v6a1,1,0,0,1-.293.707L41,28.414V28.5a16.824,16.824,0,0,1,16.839,5.4A26.949,26.949,0,0,0,31,4c-.69,0-1.353.033-2,.081v6.505L32.414,14Z"></path><circle cx="45" cy="38" r="1"></circle><path d="M53,49a3,3,0,0,0,2.815-2h-5.63A3,3,0,0,0,53,49Z"></path><polygon points="34.618 45 39.382 45 37 40.236 34.618 45"></polygon><path d="M37,49a3,3,0,0,0,2.815-2h-5.63A3,3,0,0,0,37,49Z"></path><path d="M45,30A15,15,0,1,0,60,45,15.017,15.017,0,0,0,45,30ZM37,55H35V53h2Zm18,0H53V53h2Zm-2-4a5.006,5.006,0,0,1-5-5,1,1,0,0,1,.1-.447L51.382,39H47.816A3,3,0,0,1,46,40.816V53h5v2H39V53h5V40.816A3,3,0,0,1,42.184,39H38.618L41.9,45.553A1,1,0,0,1,42,46a5,5,0,0,1-10,0,1,1,0,0,1,.1-.447L35.382,39H34V37h8.184A3,3,0,0,1,44,35.184V34h2v1.184A3,3,0,0,1,47.816,37H56v2H54.618L57.9,45.553A1,1,0,0,1,58,46,5.006,5.006,0,0,1,53,51Z"></path><polygon points="53 40.236 50.618 45 55.382 45 53 40.236"></polygon><path d="M34,25v3h.586L36,26.586V22H32v.586l1.707,1.707A1,1,0,0,1,34,25Z"></path><path d="M27,57.7V51.414l-1.707-1.707A1,1,0,0,1,25,49V46H22a1,1,0,0,1-.707-.293l-2-2A1,1,0,0,1,19,43V40a1,1,0,0,1,.293-.707l4-4A1,1,0,0,1,24,35h7.283A17.048,17.048,0,0,1,39,29.114V28a1,1,0,0,1,.293-.707L41,25.586V20.414L36.586,16H32a1,1,0,0,1-.707-.293l-4-4A1,1,0,0,1,27,11V4.308A26.941,26.941,0,0,0,18.645,7H19a1,1,0,0,1,.707.293l3,3A1,1,0,0,1,23,11v4a1,1,0,0,1-.293.707L19,19.414V23a1,1,0,0,1-.293.707l-4,4A1,1,0,0,1,14,28H12v1.586l4.707,4.707A1,1,0,0,1,17,35v3a1,1,0,0,1-.293.707L14,41.414V44a1,1,0,0,1-.293.707l-3.5,3.5A27.128,27.128,0,0,0,27,57.7ZM30,21a1,1,0,0,1,1-1h6a1,1,0,0,1,1,1v6a1,1,0,0,1-.293.707l-2,2A1,1,0,0,1,35,30H33a1,1,0,0,1-1-1V25.414l-1.707-1.707A1,1,0,0,1,30,23Z"></path><path d="M31.939,57.972c.652-.018,1.3-.068,1.949-.135A16.939,16.939,0,0,1,30.008,37H24.414L21,40.414v2.172L22.414,44H26a1,1,0,0,1,1,1v3.586l1.707,1.707A1,1,0,0,1,29,51v6.913A21.444,21.444,0,0,0,31.939,57.972Z"></path><path d="M11,26h2.586L17,22.586V19a1,1,0,0,1,.293-.707L21,14.586V11.414L18.586,9H15.369a26.934,26.934,0,0,0-6.38,37.6L12,43.586V41a1,1,0,0,1,.293-.707L15,37.586V35.414l-4.707-4.707A1,1,0,0,1,10,30V27A1,1,0,0,1,11,26Z"></path></g></svg>