<svg xmlns="http://www.w3.org/2000/svg" viewBox="0 0 64 64" x="0px" y="0px"><title>Report_2</title><g data-name="Report"><path d="M57,54V23a1,1,0,0,0-1-1H46a1,1,0,0,0-1,1V54H41V37a1,1,0,0,0-1-1H30a1,1,0,0,0-1,1V54H25V45a1,1,0,0,0-1-1H14a1,1,0,0,0-1,1v9H10V5H8v9H5v2H8v6H5v2H8v6H5v2H8v6H5v2H8v6H5v2H8v7a1,1,0,0,0,1,1H59V54ZM47,24h8V54H47ZM15,54V46h8v8Zm16,0V38h8V54Z"></path><path d="M14.414,40H21a1,1,0,0,0,.707-.293L31.414,30H36a1,1,0,0,0,.707-.293L50,16.414V20h2V14a1,1,0,0,0-1-1H45v2h3.586l-13,13H31a1,1,0,0,0-.707.293L20.586,38H14a1,1,0,0,0-.707.293l-3,3,1.414,1.414Z"></path><rect x="4" y="58" width="6" height="2"></rect><rect x="16" y="58" width="6" height="2"></rect><rect x="32" y="58" width="6" height="2"></rect><rect x="49" y="58" width="6" height="2"></rect></g></svg>