<svg xmlns="http://www.w3.org/2000/svg" viewBox="0 0 64 64" x="0px" y="0px"><g><path d="M34,28a3,3,0,0,0-3,3V45a3,3,0,0,0,6,0V31A3,3,0,0,0,34,28Zm2,7H35v2h1v2H35v2h1v2H35v1H33V43H32V41h1V39H32V37h1V35H32V33h1V32h2v1h1Z"></path><path d="M50.8,23.472a1,1,0,0,1,.262-.949L57.586,16H28V14H47.475C44.176,7.275,39.757,4,34,4c-9.055,0-19.834,9.052-20,52H54C53.947,42.707,52.871,31.768,50.8,23.472ZM39,45a5,5,0,0,1-10,0V31a5,5,0,0,1,10,0Z"></path><rect x="17" y="58" width="34" height="2"></rect><path d="M13.31,18h3.412c.237-.687.48-1.357.734-2H11.9a.969.969,0,0,0-.938.655c-2.316,6.962-3.841,15.8-4.534,26.291l0,.054a1,1,0,0,0,1.992.053,108.538,108.538,0,0,1,3.932-24.345A1,1,0,0,1,13.31,18Z"></path></g></svg>