<svg xmlns="http://www.w3.org/2000/svg" viewBox="0 0 64 64" x="0px" y="0px"><g><path d="M33.589,21.307l-1.178-1.616a8.086,8.086,0,0,1-8.822,0l-1.178,1.616A9.524,9.524,0,0,0,28,23,9.524,9.524,0,0,0,33.589,21.307Z"></path><path d="M61,41H50.96a5,5,0,0,1-3.846-1.8l-.546-.667A6.989,6.989,0,0,0,41.18,36h-.193a20.637,20.637,0,0,1,2.052-3.747,10.8,10.8,0,0,0,1.875-4.921A12.995,12.995,0,1,0,36,15c0,.068.009.134.01.2-.313-.058-.627-.115-.953-.146a10.874,10.874,0,0,0-5.669.969,3.235,3.235,0,0,1-2.774,0,10.9,10.9,0,0,0-5.667-.97,10.984,10.984,0,0,0-7.99,17.2A20.574,20.574,0,0,1,15.013,36H14.82a6.994,6.994,0,0,0-5.394,2.537l-.534.653A5,5,0,0,1,5.04,41H3a1,1,0,0,0-1,1V58a1,1,0,0,0,1,1H61a1,1,0,0,0,1-1V42A1,1,0,0,0,61,41ZM49,4A11,11,0,1,1,38,15,11.013,11.013,0,0,1,49,4ZM13.072,24.834a9,9,0,0,1,12.7-7,5.265,5.265,0,0,0,4.464,0,8.89,8.89,0,0,1,4.632-.791,8.221,8.221,0,0,1,1.351.253,13.022,13.022,0,0,0,6.745,9.2,8.825,8.825,0,0,1-1.565,4.61,22.517,22.517,0,0,0-2.8,5.566,23.659,23.659,0,0,0-.9,3.5l-1.388,7.994A1,1,0,0,1,35.32,49H33.76a1.006,1.006,0,0,1-1-.868l-1.1-8.522A3.006,3.006,0,0,0,28.69,37H27.31a3.008,3.008,0,0,0-2.972,2.612l-1.1,8.517a1.008,1.008,0,0,1-1,.871H20.68a1,1,0,0,1-.985-.821l-1.389-8a23.629,23.629,0,0,0-.9-3.5A22.489,22.489,0,0,0,14.6,31.107,9,9,0,0,1,13.072,24.834ZM60,57H4V43H5.04a7,7,0,0,0,5.4-2.537l.534-.653A5,5,0,0,1,14.82,38h.895a21.5,21.5,0,0,1,.62,2.521l1.391,8.005A3,3,0,0,0,20.68,51h1.56a3.017,3.017,0,0,0,2.983-2.612l1.1-8.518A1,1,0,0,1,27.31,39h1.38a1,1,0,0,1,.988.868l1.1,8.523A3.015,3.015,0,0,0,33.76,51h1.56a3,3,0,0,0,2.955-2.479l1.39-8A21.528,21.528,0,0,1,40.285,38h.9a4.993,4.993,0,0,1,3.845,1.8l.546.667A7,7,0,0,0,50.96,43H60Z"></path><path d="M48.293,20.707a1,1,0,0,0,1.414,0l4.95-4.95A4,4,0,0,0,49,10.1a4,4,0,0,0-5.657,5.656Zm-3.536-9.192a2,2,0,0,1,2.829,0l.707.707a1,1,0,0,0,1.414,0l.707-.707a2,2,0,1,1,2.829,2.828L49,18.586l-4.243-4.243A2,2,0,0,1,44.757,11.515Z"></path></g></svg>