<svg xmlns="http://www.w3.org/2000/svg" viewBox="0 0 64 64" x="0px" y="0px"><g data-name="Book-Address book-Notebook-Agenda-Bookmark"><path d="M33,15v4h2v2H33v4h2v2H33v4h2v2H33v4h2v2H33v4h2v2H33v4H54V15H52v5a.987.987,0,0,1-.62.92A.838.838,0,0,1,51,21a1.007,1.007,0,0,1-.71-.29L49,19.41l-1.29,1.3a1,1,0,0,1-1.09.21A.987.987,0,0,1,46,20V15Zm5,12h8v2H38Zm0,8H48v2H38ZM52,45H38V43H52Zm0-4H38V39H52Zm0-4H50V35h2Zm0-4H38V31H52Zm0-4H48V27h4Zm0-6v2H38V23Z"></path><path d="M60,12a3.009,3.009,0,0,0-3-3H33v4H55a1,1,0,0,1,1,1V50a1,1,0,0,1-1,1H33v4H57a3.009,3.009,0,0,0,3-3Z"></path><path d="M49.71,17.29l.29.3V15H48v2.59l.29-.3a1.014,1.014,0,0,1,1.42,0Z"></path><path d="M31,19V15H10V49H31V45H29V43h2V39H29V37h2V33H29V31h2V27H29V25h2V21H29V19ZM12,19h2v2H12Zm0,8h8v2H12Zm0,8H22v2H12ZM26,45H12V43H26Zm0-4H12V39H26Zm0-4H24V35h2Zm0-4H12V31H26Zm0-4H22V27h4Zm0-4H12V23H26Zm0-4H16V19H26Z"></path><path d="M4,12V52a3.009,3.009,0,0,0,3,3H31V51H9a1,1,0,0,1-1-1V14a1,1,0,0,1,1-1H31V9H7A3.009,3.009,0,0,0,4,12Z"></path></g></svg>