<svg xmlns="http://www.w3.org/2000/svg" viewBox="0 0 64 64" x="0px" y="0px"><g><path d="M54,44v2H52V44H50v2H48V44H47a1,1,0,0,0-1,1v2a1,1,0,0,0,1,1H59a1,1,0,0,0,1-1V45a1,1,0,0,0-1-1H58v2H56V44Z"></path><path d="M59,50H58v2H56V50H54v2H52V50H50v2H48V50H47a1,1,0,0,0-1,1v2a1,1,0,0,0,1,1H59a1,1,0,0,0,1-1V51A1,1,0,0,0,59,50Z"></path><path d="M43,54a1,1,0,0,0,1-1V51a1,1,0,0,0-1-1H42v2H40V50H38v2H36V50H34v2H32V50H31a1,1,0,0,0-1,1v2a1,1,0,0,0,1,1Z"></path><path d="M47,42h1V30.97A4.924,4.924,0,0,1,45,32H42.97A9.989,9.989,0,0,1,47,40a9.614,9.614,0,0,1-.21,2.02C46.86,42.02,46.93,42,47,42Z"></path><path d="M36,4.17V12h2V7A3.014,3.014,0,0,0,36,4.17Z"></path><path d="M43,56H42v2H40V56H38v2H36V56H34v2H32V56H31a1,1,0,0,0-1,1v2a1,1,0,0,0,1,1H43a1,1,0,0,0,1-1V57A1,1,0,0,0,43,56Z"></path><rect x="22" y="4" width="12" height="2"></rect><path d="M4,15v5H52V15a1,1,0,0,0-1-1H5A1,1,0,0,0,4,15Z"></path><path d="M18,12h2V4.17A3.014,3.014,0,0,0,18,7Z"></path><path d="M48,22H22v5a3.009,3.009,0,0,0,3,3H45a3.009,3.009,0,0,0,3-3Z"></path><path d="M5,52H6V35a3.009,3.009,0,0,1,3-3h6a3.009,3.009,0,0,1,3,3V52h3.03A4.924,4.924,0,0,1,20,49V22H4V51A1,1,0,0,0,5,52ZM6,26H18v2H16v2H14V28H6Z"></path><path d="M9,34a1,1,0,0,0-1,1V52h8V35a1,1,0,0,0-1-1Z"></path><path d="M47,60H59a1,1,0,0,0,1-1V57a1,1,0,0,0-1-1H58v2H56V56H54v2H52V56H50v2H48V56H47a1,1,0,0,0-1,1v2A1,1,0,0,0,47,60Z"></path><path d="M28,52V51a3.009,3.009,0,0,1,3-3h.03a9.955,9.955,0,0,1,0-16H25a4.924,4.924,0,0,1-3-1.03V49a3.009,3.009,0,0,0,3,3Z"></path><path d="M37,48a8,8,0,1,0-8-8A8.011,8.011,0,0,0,37,48Zm1-7H36a3,3,0,0,1,0-6V34h2v1a3,3,0,0,1,3,3H39a1,1,0,0,0-1-1H36a1,1,0,0,0,0,2h2a3,3,0,0,1,0,6v1H36V45a3,3,0,0,1-3-3h2a1,1,0,0,0,1,1h2a1,1,0,0,0,0-2Z"></path><path d="M43,48a2.923,2.923,0,0,1,1.32.32,3.045,3.045,0,0,1-.31-1.2,8.793,8.793,0,0,1-1.04.88Z"></path><rect x="50" y="22" width="2" height="20"></rect></g></svg>