<svg xmlns="http://www.w3.org/2000/svg" viewBox="0 0 64 64" x="0px" y="0px"><g><path d="M41,15a1,1,0,0,0-2,0v1h2Z"></path><polygon points="49 33 51 33 51 44 53.001 44 53 30 47 30 47 44 49 44 49 33"></polygon><polygon points="40 42.308 40.923 40 39.077 40 40 42.308"></polygon><polygon points="51 17.123 50.219 14 49.781 14 49 17.123 49 18 51 18 51 17.123"></polygon><path d="M4,52a1,1,0,0,0,1,1H59a1,1,0,0,0,1-1V49H38v1a2,2,0,0,1-2,2H28a2,2,0,0,1-2-2V49H4Z"></path><rect x="28" y="49" width="8" height="1"></rect><path d="M7,19V47H57V19H55V17h2V14a3,3,0,0,0-3-3H10a3,3,0,0,0-3,3v3H35v2Zm12,4h2v2H19Zm0,4h2v2H19Zm0,4h2v2H19Zm0,4h2v2H19Zm6,7a1,1,0,0,1-1,1H10a1,1,0,0,1-1-1V28a1,1,0,0,1,1-1h7v2H11V41H23V39h2Zm0-5H23V35h2Zm0-12H23V23h2Zm4,12H27V35h2Zm0-12H27V23h2Zm4,12H31V35h2Zm0-4H31V31h2Zm0-4H31V27h2Zm0-4H31V23h2ZM13,15H11V13h2Zm4,0H15V13h2Zm4,0H19V13h2ZM45,30a2,2,0,0,1,2-2h2V20H48a1,1,0,0,1-1-1V17a1,1,0,0,1,.03-.243l1-4A1,1,0,0,1,49,12h2a1,1,0,0,1,.97.757l1,4A1,1,0,0,1,53,17v2a1,1,0,0,1-1,1H51v8h2a2,2,0,0,1,2,2V44a2,2,0,0,1-2,2H47a2,2,0,0,1-2-2ZM37,15a3,3,0,0,1,6,0V40a1.012,1.012,0,0,1-.071.372l-2,5a1,1,0,0,1-1.858,0l-2-5A1.012,1.012,0,0,1,37,40Z"></path><rect x="39" y="18" width="2" height="20"></rect></g></svg>