<svg xmlns="http://www.w3.org/2000/svg" viewBox="0 0 48 48" x="0px" y="0px"><title>Zig Zag-Gift Box_2</title><g data-name="Zig Zag-Gift Box"><path d="M45,15H40V10.361A3,3,0,0,0,36.507,7.4L26.836,9.014a.962.962,0,0,0-.243.086A1.971,1.971,0,0,0,26,9H22a1.971,1.971,0,0,0-.593.1.962.962,0,0,0-.243-.086L11.493,7.4A3,3,0,0,0,8,10.361V15H3a3,3,0,0,0-3,3v6a3,3,0,0,0,2,2.816V36a5.006,5.006,0,0,0,5,5H41a5.006,5.006,0,0,0,5-5V26.816A3,3,0,0,0,48,24V18A3,3,0,0,0,45,15ZM28,10.847l8.835-1.473a.971.971,0,0,1,.811.224.985.985,0,0,1,.354.763V15H28V10.847ZM26,11v4H22V11Zm-16-.639a.985.985,0,0,1,.354-.763.974.974,0,0,1,.811-.224L20,10.847V15H10ZM41,39H7a3,3,0,0,1-2.95-2.5L9.066,31.48l5.227,5.227a1,1,0,0,0,1.414,0L21,31.414l5.293,5.293a1,1,0,0,0,1.414,0L33,31.414l5.293,5.293a1,1,0,0,0,1.414,0L44,32.414V36A3,3,0,0,1,41,39Zm5-15a1,1,0,0,1-1,1H15a1,1,0,0,0,0,2H44v2.586l-5,5-5.293-5.293a1,1,0,0,0-1.414,0L27,34.586l-5.293-5.293a1,1,0,0,0-1.414,0L15,34.586,9.773,29.359a1,1,0,0,0-1.414,0L4,33.719V27H5a1,1,0,0,0,0-2H3a1,1,0,0,1-1-1V18a1,1,0,0,1,1-1H45a1,1,0,0,1,1,1Z"></path><path d="M11,25H9a1,1,0,0,0,0,2h2a1,1,0,0,0,0-2Z"></path><path d="M10,35H8a1,1,0,0,0,0,2h2a1,1,0,0,0,0-2Z"></path><path d="M13,30a1,1,0,0,0,1,1h2a1,1,0,0,0,0-2H14A1,1,0,0,0,13,30Z"></path><path d="M22,35H20a1,1,0,0,0,0,2h2a1,1,0,0,0,0-2Z"></path><path d="M26,31h2a1,1,0,0,0,0-2H26a1,1,0,0,0,0,2Z"></path><path d="M34,35H32a1,1,0,0,0,0,2h2a1,1,0,0,0,0-2Z"></path><path d="M38,31h2a1,1,0,0,0,0-2H38a1,1,0,0,0,0,2Z"></path></g></svg>