<svg xmlns="http://www.w3.org/2000/svg" viewBox="0 0 64 64" x="0px" y="0px"><title>Server-Data</title><path d="M19,34H45a1,1,0,0,0,1-1V13a1,1,0,0,0-1-1H19a1,1,0,0,0-1,1V33A1,1,0,0,0,19,34Zm25-2H20V24H44ZM20,14H44v8H20Z"></path><path d="M25,15a3,3,0,1,0,3,3A3,3,0,0,0,25,15Zm0,4a1,1,0,1,1,1-1A1,1,0,0,1,25,19Z"></path><path d="M25,31a3,3,0,1,0-3-3A3,3,0,0,0,25,31Zm0-4a1,1,0,1,1-1,1A1,1,0,0,1,25,27Z"></path><rect x="30" y="17" width="2" height="2"></rect><rect x="34" y="17" width="8" height="2"></rect><rect x="30" y="27" width="2" height="2"></rect><rect x="34" y="27" width="8" height="2"></rect><path d="M59,2H5A3,3,0,0,0,2,5V45a3,3,0,0,0,3,3H22.9l-.8,8H19a1,1,0,0,0-1,1v3H16v2H48V60H46V57a1,1,0,0,0-1-1H41.905l-.8-8H59a3,3,0,0,0,3-3V5A3,3,0,0,0,59,2ZM44,58v2H20V58ZM24.105,56l.8-8H39.1l.8,8ZM60,45a1,1,0,0,1-1,1H5a1,1,0,0,1-1-1V5A1,1,0,0,1,5,4H59a1,1,0,0,1,1,1Z"></path><path d="M56,6H8A2,2,0,0,0,6,8V39a1,1,0,0,0,1,1H57a1,1,0,0,0,1-1V8A2,2,0,0,0,56,6Zm0,32H8V8H56Z"></path><rect x="31" y="42" width="2" height="2"></rect></svg>