<svg xmlns="http://www.w3.org/2000/svg" viewBox="0 0 64 64" x="0px" y="0px"><g><path d="M29.211,32.628A3,3,0,0,0,26.234,30H25V27a3,3,0,0,0-3-3H18a3,3,0,0,0-3,3v3H13.766a3,3,0,0,0-2.977,2.628l-1.5,12A3,3,0,0,0,12.266,48H27.734a3,3,0,0,0,2.977-3.372ZM17,27a1,1,0,0,1,1-1h4a1,1,0,0,1,1,1v3H17ZM28.484,45.662a.987.987,0,0,1-.75.338H12.266a1,1,0,0,1-.993-1.124l1.5-12A1,1,0,0,1,13.766,32H15v3h2V32h6v3h2V32h1.234a1,1,0,0,1,.993.876l1.5,12A.986.986,0,0,1,28.484,45.662Z"></path><path d="M58,35H56.251l.477-2.689a3.155,3.155,0,0,0,.042-.511,2.99,2.99,0,0,0-2.478-2.944,2.943,2.943,0,0,0-2.234.484,2.985,2.985,0,0,0-1.243,1.947L50.159,35H41.842l-.656-3.712A2.986,2.986,0,0,0,40,29.389V25.981a10,10,0,1,0,0-15.962V7a5.006,5.006,0,0,0-5-5H9A5.006,5.006,0,0,0,4,7V57a5.006,5.006,0,0,0,5,5H35a5.006,5.006,0,0,0,5-5V55H52.22a5,5,0,0,0,4.987-4.7l.719-9.3H58a3.017,3.017,0,0,0,3-3A3,3,0,0,0,58,35Zm-5.215-3.368a1,1,0,0,1,.414-.65.97.97,0,0,1,.738-.157.994.994,0,0,1,.833.975,1.152,1.152,0,0,1-.014.176L53.511,39H51.482ZM49.805,37l-.353,2h-6.9L42.2,37Zm-9.287,2H38.489l-1.242-7.011a1.1,1.1,0,0,1-.017-.189,1,1,0,0,1,.841-.977.973.973,0,0,1,.73.159,1,1,0,0,1,.415.651ZM34,39a1,1,0,0,1-1-1,.978.978,0,0,1,.306-.712A.957.957,0,0,1,34,37h2.1l.354,2ZM46,10a8,8,0,1,1-8,8A8.009,8.009,0,0,1,46,10ZM35,60H9a3,3,0,0,1-3-3V7A3,3,0,0,1,9,4H35a3,3,0,0,1,3,3v5.026a9.922,9.922,0,0,0,0,11.948v4.857a2.7,2.7,0,0,0-.283.024A2.991,2.991,0,0,0,35.23,31.8a3.109,3.109,0,0,0,.045.524L35.749,35H34a3.015,3.015,0,0,0-3,3,3,3,0,0,0,3,3h.074l.718,9.279A5.007,5.007,0,0,0,38,54.672V57A3,3,0,0,1,35,60Zm20.212-9.836A3,3,0,0,1,52.22,53H39.78a3.062,3.062,0,0,1-.59-.062,3,3,0,0,1-2.4-2.8L36.08,41H55.92Zm3.482-11.452A.957.957,0,0,1,58,39H55.542l.355-2H58a1,1,0,0,1,1,1A.978.978,0,0,1,58.694,38.712Z"></path><rect x="45" y="43" width="2" height="8"></rect><rect x="50" y="43" width="2" height="8"></rect><rect x="40" y="43" width="2" height="8"></rect><path d="M47,21H45a1,1,0,0,1-1-1H42a3,3,0,0,0,3,3v1h2V23a3,3,0,0,0,0-6H45a1,1,0,0,1,0-2h2a1,1,0,0,1,1,1h2a3,3,0,0,0-3-3V12H45v1a3,3,0,0,0,0,6h2a1,1,0,0,1,0,2Z"></path><rect x="16" y="12" width="16" height="2"></rect><rect x="12" y="16" width="20" height="2"></rect><rect x="12" y="20" width="20" height="2"></rect><rect x="12" y="12" width="2" height="2"></rect><rect x="13" y="6" width="2" height="2"></rect><rect x="9" y="6" width="2" height="2"></rect><rect x="17" y="6" width="10" height="2"></rect><path d="M24,52H20a3,3,0,0,0,0,6h4a3,3,0,0,0,0-6Zm0,4H20a1,1,0,0,1,0-2h4a1,1,0,0,1,0,2Z"></path></g></svg>