<svg xmlns="http://www.w3.org/2000/svg" viewBox="0 0 64 64" x="0px" y="0px"><g><rect x="51" y="31" width="1" height="4"></rect><rect x="51" y="52" width="1" height="2"></rect><path d="M54,4a3,3,0,0,0-3,3V20h6V7A3,3,0,0,0,54,4Z"></path><path d="M16,4a1,1,0,0,0-1,1V44H49V7a4.924,4.924,0,0,1,1.03-3Zm7,4h8v2H23ZM19,8h2v2H19Zm0,4H31v2H19Zm0,8h4v2H19ZM45,40H19V38H45Zm0-6H19V32H45Zm0-6H19V26H45Zm0-6H25V20H45Z"></path><path d="M7,46V60H49V46Zm34,2h2v2H41Zm-4,0h2v2H37Zm0,4h2v2H37Zm-4-4h2v2H33Zm0,4h2v2H33Zm-4-4h2v2H29Zm0,4h2v2H29Zm-4-4h2v2H25Zm0,4h2v2H25Zm-4-4h2v2H21Zm0,4h2v2H21Zm-4-4h2v2H17Zm0,4h2v2H17Zm-4-4h2v2H13Zm0,4h2v2H13Zm-2,6H9V56h2Zm0-4H9V52h2Zm0-4H9V48h2Zm30,8H13V56H41Zm0-6h2v2H41Zm6,6H43V56h4Zm0-4H45V52h2Zm0-4H45V48h2Z"></path><path d="M57,54H54V52h3a3,3,0,0,0,3-3V37a3,3,0,0,0-3-3H54V32h3a5.006,5.006,0,0,1,5,5V49A5.006,5.006,0,0,1,57,54Z"></path></g></svg>