<svg xmlns="http://www.w3.org/2000/svg" viewBox="0 0 64 64" x="0px" y="0px"><circle cx="27" cy="7" r="2"></circle><path d="M21,38H15a2,2,0,0,0-2,2v6a2,2,0,0,0,2,2h6a2,2,0,0,0,2-2V40A2,2,0,0,0,21,38Zm-6,8V40h6l0,6Z"></path><rect x="25" y="30" width="8" height="2"></rect><rect x="25" y="26" width="4" height="2"></rect><rect x="25" y="44" width="4" height="2"></rect><rect x="25" y="40" width="4" height="2"></rect><rect x="31" y="26" width="6" height="2"></rect><path d="M45,41a1,1,0,0,1,1,1h2a3,3,0,0,0-2-2.816V38H44v1.184A2.993,2.993,0,0,0,45,45a1,1,0,1,1-1,1H42a3,3,0,0,0,2,2.816V50h2V48.816A2.993,2.993,0,0,0,45,43a1,1,0,0,1,0-2Z"></path><path d="M45,34A10,10,0,1,0,55,44,10.011,10.011,0,0,0,45,34Zm0,18a8,8,0,1,1,8-8A8.009,8.009,0,0,1,45,52Z"></path><path d="M59,44A14.02,14.02,0,0,0,49,30.59V17a5.006,5.006,0,0,0-5-5H38.9A5.009,5.009,0,0,0,34,8H32V5a3,3,0,0,0-3-3H25a3,3,0,0,0-3,3V8H20a5.009,5.009,0,0,0-4.9,4H10a5.006,5.006,0,0,0-5,5V57a5.006,5.006,0,0,0,5,5H44a4.989,4.989,0,0,0,4.957-4.579A14.017,14.017,0,0,0,59,44ZM17,13a3,3,0,0,1,3-3h3a1,1,0,0,0,1-1V5a1,1,0,0,1,1-1h4a1,1,0,0,1,1,1V9a1,1,0,0,0,1,1h3a3,3,0,0,1,3,3v3H17ZM44,60H10a3,3,0,0,1-3-3V17a3,3,0,0,1,3-3h5v3a1,1,0,0,0,1,1H38a1,1,0,0,0,1-1V14h5a3,3,0,0,1,3,3V30.16A13.992,13.992,0,1,0,45,58a14.071,14.071,0,0,0,1.859-.138A3,3,0,0,1,44,60Zm1-4A12,12,0,1,1,57,44,12.013,12.013,0,0,1,45,56Z"></path><rect x="50" y="43" width="2" height="2"></rect><rect x="38" y="43" width="2" height="2"></rect><path d="M23.293,23.293,22.187,24.4A1.985,1.985,0,0,0,21,24H15a2,2,0,0,0-2,2v6a2,2,0,0,0,2,2h6a2,2,0,0,0,2-2V26.414l1.707-1.707ZM21,32H15V26h5.586L18,28.586l-1.293-1.293-1.414,1.414,2,2a1,1,0,0,0,1.414,0L21,28.413Z"></path></svg>