<svg xmlns="http://www.w3.org/2000/svg" viewBox="0 0 64 64" x="0px" y="0px"><g data-name="Buy-Ecommerce-Online Shopping-Purchase-Online"><path d="M25.74,35.97A3.971,3.971,0,0,1,23.38,35H16.62a3.971,3.971,0,0,1-2.36.97l-3.47,3.48.95,6.69a1,1,0,0,0,.99.86H27.27a1,1,0,0,0,.99-.87l.95-6.68ZM15.01,45.12l-1-8,1.98-.24,1,8ZM21,45H19V37h2Zm3.99.12-1.98-.24,1-8,1.98.24Z"></path><circle cx="14" cy="32" r="2"></circle><path d="M10.14,31H8v2h.76l1.27-1.26A3.57,3.57,0,0,1,10.14,31Z"></path><path d="M6.22,39.79a1,1,0,0,0,1.41-.01l4.35-4.35a3.969,3.969,0,0,1-1.41-1.41L6.22,38.37A.99.99,0,0,0,6.22,39.79Z"></path><path d="M40,16a5,5,0,1,0,5,5A5,5,0,0,0,40,16Zm3,6H41v2H39V22H37V20h2V18h2v2h2Z"></path><path d="M4,12V38.45a3.059,3.059,0,0,1,.8-1.5l2.22-2.22A1.99,1.99,0,0,1,6,33V31a2.006,2.006,0,0,1,2-2h3.38a3.932,3.932,0,0,1,5.24,0h6.76a3.932,3.932,0,0,1,5.24,0H32a2.006,2.006,0,0,1,2,2v2a2.018,2.018,0,0,1-1.02,1.74l2.22,2.21a3.059,3.059,0,0,1,.8,1.5V38a4,4,0,0,1,8,0v6.54a3.993,3.993,0,0,1,5.43,1.4A3.94,3.94,0,0,1,52,45a3.989,3.989,0,0,1,2,.54V12ZM24.71,22.71l-4,4a1.014,1.014,0,0,1-1.42,0l-4-4a1,1,0,0,1-.21-1.09A.987.987,0,0,1,16,21h1V14h2v8a1.011,1.011,0,0,1-.65.94L20,24.59l1.65-1.65A1.011,1.011,0,0,1,21,22V14h2v7h1a.987.987,0,0,1,.92.62A1,1,0,0,1,24.71,22.71ZM40,28a7,7,0,1,1,7-7A7.008,7.008,0,0,1,40,28Z"></path><path d="M22.14,33a3.641,3.641,0,0,1,0-2H17.86a3.641,3.641,0,0,1,0,2Z"></path><path d="M35.87,51.04l.13.23V39.7a3.029,3.029,0,0,1-.8,1.49,3.006,3.006,0,0,1-4.22.03l-.74,5.2A3,3,0,0,1,27.27,49H12.73a3,3,0,0,1-2.97-2.57l-.74-5.21A2.985,2.985,0,0,1,4,39.69V51a3.009,3.009,0,0,0,3,3H28.54a3.989,3.989,0,0,1,7.33-2.96Z"></path><path d="M51,4H7A3.009,3.009,0,0,0,4,7v3H54V7A3.009,3.009,0,0,0,51,4ZM10,8H8V6h2Zm4,0H12V6h2Zm4,0H16V6h2Z"></path><path d="M60,50V61H34.69l-4.02-6.96a2,2,0,1,1,3.46-2l2,3.46A1,1,0,0,0,38,55V38a2,2,0,0,1,4,0V52a1,1,0,0,0,2,0V48a2,2,0,0,1,4,0v4a1,1,0,0,0,2,0V49a2,2,0,0,1,4,0v3a1,1,0,0,0,2,0V50a2,2,0,0,1,4,0Z"></path><circle cx="26" cy="32" r="2"></circle><path d="M32,33V31H29.86a3.673,3.673,0,0,1,.11.74L31.24,33Z"></path><path d="M28.02,35.43l4.35,4.35a1.008,1.008,0,0,0,1.42,0,.987.987,0,0,0-.01-1.41l-4.35-4.35A3.969,3.969,0,0,1,28.02,35.43Z"></path></g></svg>