<svg xmlns="http://www.w3.org/2000/svg" viewBox="0 0 64 64" x="0px" y="0px"><g data-name="Mobile Banking"><path d="M32,40a8,8,0,1,0-8-8A8.009,8.009,0,0,0,32,40Zm4-9h2v2H36Zm-4,2a2.937,2.937,0,0,1-2.862-3A2.993,2.993,0,0,1,31,27.2V26h2v1.2A2.993,2.993,0,0,1,34.862,30h-2A.872.872,0,1,0,32,31a2.937,2.937,0,0,1,2.862,3A2.993,2.993,0,0,1,33,36.8V38H31V36.8A2.993,2.993,0,0,1,29.138,34h2A.872.872,0,1,0,32,33Zm-4-2v2H26V31Z"></path><path d="M47,52V7a3,3,0,0,0-3-3H20a3,3,0,0,0-3,3v3H43v2H17V57a3,3,0,0,0,3,3H44a3,3,0,0,0,3-3V54H21V52ZM23,8H21V6h2Zm6,0H25V6h4Zm1,48h4v2H30ZM43,45h2v5H40V48h3ZM32,22A10,10,0,1,1,22,32,10.011,10.011,0,0,1,32,22ZM19,19V14h5v2H21v3Z"></path></g></svg>