<svg xmlns="http://www.w3.org/2000/svg" viewBox="0 0 64 64" x="0px" y="0px"><g><rect x="17" y="6" width="4" height="2"></rect><rect x="27" y="6" width="4" height="2"></rect><rect x="13" y="22" width="2" height="2"></rect><path d="M37,31a9,9,0,1,0,9,9A9.01,9.01,0,0,0,37,31Zm0,16a7,7,0,1,1,7-7A7.009,7.009,0,0,1,37,47Z"></path><path d="M54.142,36.01l-3.907-.558a13.905,13.905,0,0,0-.657-1.6L51.942,30.7a1,1,0,0,0-.092-1.306L47.606,25.15a1,1,0,0,0-1.306-.092l-3.154,2.364a13.905,13.905,0,0,0-1.6-.657l-.558-3.907A1,1,0,0,0,40,22H39V13a1,1,0,0,0-1-1H35V3a1,1,0,0,0-1-1H14a1,1,0,0,0-1,1v9H10a1,1,0,0,0-1,1V57a5.006,5.006,0,0,0,5,5H34a5.009,5.009,0,0,0,4.9-4H40a1,1,0,0,0,.99-.858l.558-3.907a13.921,13.921,0,0,0,1.6-.657L46.3,54.942a1,1,0,0,0,1.306-.092l4.244-4.244a1,1,0,0,0,.092-1.306l-2.364-3.153a13.921,13.921,0,0,0,.657-1.6l3.907-.558A1,1,0,0,0,55,43V37A1,1,0,0,0,54.142,36.01ZM33,12H25V4h8ZM15,4h8v8H15ZM37,14v4H11V14ZM34,60H14a3,3,0,0,1-3-3V20H37v2H34a1,1,0,0,0-.99.858l-.557,3.907a13.936,13.936,0,0,0-1.6.657L27.7,25.058a1,1,0,0,0-1.307.092l-4.243,4.244a1,1,0,0,0-.093,1.306l2.364,3.154a13.905,13.905,0,0,0-.657,1.6l-3.906.558A1,1,0,0,0,19,37v6a1,1,0,0,0,.859.99l3.906.558a13.921,13.921,0,0,0,.657,1.6L22.058,49.3a1,1,0,0,0,.093,1.306l4.243,4.244a1,1,0,0,0,1.307.092l3.152-2.364a13.936,13.936,0,0,0,1.6.657l.557,3.907A1,1,0,0,0,34,58h2.816A3,3,0,0,1,34,60ZM53,42.133l-3.67.523a1,1,0,0,0-.818.71,11.9,11.9,0,0,1-.987,2.4,1,1,0,0,0,.077,1.081l2.22,2.961-3.016,3.016L43.845,50.6a1,1,0,0,0-1.081-.077,11.9,11.9,0,0,1-2.4.987,1,1,0,0,0-.71.818L39.133,56H34.867l-.523-3.67a1,1,0,0,0-.71-.818,11.948,11.948,0,0,1-2.4-.987,1,1,0,0,0-1.081.077l-2.961,2.22-3.016-3.016,2.22-2.961a1,1,0,0,0,.077-1.081,11.9,11.9,0,0,1-.987-2.4,1,1,0,0,0-.819-.71L21,42.133V37.867l3.669-.523a1,1,0,0,0,.819-.71,12,12,0,0,1,.987-2.4,1,1,0,0,0-.077-1.081l-2.22-2.961,3.016-3.016,2.961,2.22a1,1,0,0,0,1.081.077,11.948,11.948,0,0,1,2.4-.987,1,1,0,0,0,.71-.818L34.867,24h4.266l.523,3.67a1,1,0,0,0,.71.818,11.825,11.825,0,0,1,2.4.988,1,1,0,0,0,1.081-.078l2.961-2.22,3.016,3.016L47.6,33.155a1,1,0,0,0-.078,1.081,11.825,11.825,0,0,1,.988,2.4,1,1,0,0,0,.818.71l3.67.523Z"></path><rect x="36" y="26" width="2" height="2"></rect><rect x="26.808" y="29.808" width="2" height="2" transform="translate(-13.64 28.686) rotate(-45)"></rect><rect x="23" y="39" width="2" height="2"></rect><rect x="26.808" y="48.192" width="2" height="2" transform="translate(-26.64 34.071) rotate(-45)"></rect><rect x="36" y="52" width="2" height="2"></rect><rect x="45.192" y="48.192" width="2" height="2" transform="translate(-21.255 47.071) rotate(-45)"></rect><rect x="49" y="39" width="2" height="2"></rect><rect x="45.192" y="29.808" width="2" height="2" transform="translate(-8.255 41.686) rotate(-45)"></rect></g></svg>