<svg xmlns="http://www.w3.org/2000/svg" viewBox="0 0 64 64" x="0px" y="0px"><g data-name="Business Idea"><path d="M42,44V42.4a10.932,10.932,0,0,1,3.256-7.8A18.822,18.822,0,0,0,51,21,19,19,0,1,0,18.859,34.7,10.645,10.645,0,0,1,22,42.4V44a3.99,3.99,0,0,0-1.313,7.761A4,4,0,0,0,24,58h1.1A5.009,5.009,0,0,0,30,62h4a5.009,5.009,0,0,0,4.9-4H40a4,4,0,0,0,3.313-6.239A3.99,3.99,0,0,0,42,44ZM20.242,33.258a16.954,16.954,0,0,1-5.188-13.619,17.162,17.162,0,0,1,15-15.531,16.989,16.989,0,0,1,13.8,29.05A12.947,12.947,0,0,0,40,42.4V44H24V42.4A12.654,12.654,0,0,0,20.242,33.258ZM34,60H30a3,3,0,0,1-2.816-2h9.632A3,3,0,0,1,34,60Zm6-4H24a2,2,0,0,1,0-4H40a2,2,0,0,1,0,4Zm2-6H22a2,2,0,0,1,0-4H42a2,2,0,0,1,0,4Z"></path><path d="M27,31a4,4,0,0,0,4-4V14a3.994,3.994,0,0,0-7.889-.892,3.84,3.84,0,0,0-3.058,4.418,3.98,3.98,0,0,0,1.06,7.367,3.967,3.967,0,0,0,1.935,2.585A3.992,3.992,0,0,0,27,31Zm-4.973-9.671a3.958,3.958,0,0,0-.834,1.5,1.988,1.988,0,0,1-.375-3.429A3.98,3.98,0,0,0,24,21V19a2,2,0,1,1,2-2h2a3.991,3.991,0,0,0-2.825-3.8A2,2,0,0,1,29,14V27a2,2,0,1,1-3.414-1.414l-1.414-1.414a3.972,3.972,0,0,0-.737,1.05,1.958,1.958,0,0,1,.077-2.551Z"></path><path d="M37,31a3.992,3.992,0,0,0,3.952-3.522,3.967,3.967,0,0,0,1.935-2.585,3.98,3.98,0,0,0,1.06-7.367,3.84,3.84,0,0,0-3.058-4.418A3.994,3.994,0,0,0,33,14V27A4,4,0,0,0,37,31ZM35,14a2,2,0,0,1,3.825-.8A3.991,3.991,0,0,0,36,17h2a2,2,0,1,1,2,2v2a3.98,3.98,0,0,0,3.182-1.6,1.988,1.988,0,0,1-.375,3.429,3.958,3.958,0,0,0-.834-1.5l-1.485,1.342a1.958,1.958,0,0,1,.077,2.551,3.972,3.972,0,0,0-.737-1.05l-1.414,1.414A2,2,0,1,1,35,27Z"></path><rect x="31" y="33" width="2" height="2"></rect><rect x="35" y="33" width="2" height="2"></rect><rect x="27" y="33" width="2" height="2"></rect><path d="M54.293,11.707a1,1,0,0,0,1.414,0l3.535-3.535A3,3,0,1,0,55,3.928h0a3,3,0,0,0-4.242,4.243ZM52.172,5.343a1,1,0,0,1,1.414,0l.707.707a1,1,0,0,0,1.414,0l.707-.706a1,1,0,1,1,1.414,1.414L55,9.586,52.172,6.758A1,1,0,0,1,52.172,5.343Z"></path><path d="M11.243,7.929A3.005,3.005,0,0,0,7,7.928H7a3,3,0,1,0-4.242,4.243l3.535,3.535a1,1,0,0,0,1.414,0l3.535-3.535A3,3,0,0,0,11.243,7.929ZM9.828,10.758,7,13.586,4.172,10.758A1,1,0,0,1,5.586,9.343l.707.707a1,1,0,0,0,1.414,0l.707-.706a1,1,0,1,1,1.414,1.414Z"></path><path d="M52,37.928h0a3,3,0,0,0-4.242,4.243l3.535,3.535a1,1,0,0,0,1.414,0l3.535-3.535A3,3,0,1,0,52,37.928Zm2.828,2.83L52,43.586l-2.828-2.828a1,1,0,0,1,1.414-1.415l.707.707a1,1,0,0,0,1.414,0l.707-.706a1,1,0,1,1,1.414,1.414Z"></path><rect x="8" y="20" width="2" height="4"></rect><rect x="8" y="26" width="2" height="2"></rect><rect x="4" y="23" width="2" height="6"></rect><rect x="4" y="31" width="2" height="2"></rect><rect x="12" y="32" width="2" height="6"></rect><rect x="12" y="40" width="2" height="2"></rect><rect x="53" y="50" width="2" height="6"></rect><rect x="53" y="58" width="2" height="2"></rect><rect x="49" y="48" width="2" height="4"></rect><rect x="49" y="54" width="2" height="2"></rect><rect x="54" y="16" width="2" height="4"></rect><rect x="54" y="22" width="2" height="2"></rect><rect x="58" y="19" width="2" height="6"></rect><rect x="58" y="27" width="2" height="2"></rect></g></svg>