<svg xmlns="http://www.w3.org/2000/svg" viewBox="0 0 64 64" x="0px" y="0px"><g><path d="M51,60V13a2.006,2.006,0,0,0-2-2H45V6a2.006,2.006,0,0,0-2-2H37.64A8.952,8.952,0,0,0,26.36,4H21a2.006,2.006,0,0,0-2,2v5H15a2.006,2.006,0,0,0-2,2V60H9v2H55V60ZM43,6v5H41a8.94,8.94,0,0,0-1.52-5ZM21,6h3.52A8.94,8.94,0,0,0,23,11H21Zm-6,7h8.23a9.167,9.167,0,0,0,.72,2H15ZM25,60H15V53H25Zm0-9H15V49H25Zm0-4H15V45H25Zm0-4H15V41H25Zm0-4H15V37H25Zm0-4H15V33H25Zm0-4H15V29H25Zm0-4H15V25H25Zm0-4H15V21H25Zm0-4H15V17H25ZM32,4a7,7,0,1,1-7,7A7.008,7.008,0,0,1,32,4Zm1,15.94V45H31V19.94a8.363,8.363,0,0,0,2,0ZM33,60H31V55h2Zm4,0H35V55a2.006,2.006,0,0,0-2-2H31a2.006,2.006,0,0,0-2,2v5H27V51H37Zm0-11H27V18.48a9.09,9.09,0,0,0,2,.99V45a2.006,2.006,0,0,0,2,2h2a2.006,2.006,0,0,0,2-2V19.47a9.09,9.09,0,0,0,2-.99ZM49,60H39V53H49Zm0-9H39V49H49Zm0-4H39V45H49Zm0-4H39V41H49Zm0-4H39V37H49Zm0-4H39V33H49Zm0-4H39V29H49Zm0-4H39V25H49Zm0-4H39V21H49Zm0-4H39V17H49Zm0-4H40.05a9.167,9.167,0,0,0,.72-2H49Z"></path><path d="M33,14H31a1,1,0,0,1-1-1H28a3,3,0,0,0,3,3v1h2V16a3,3,0,0,0,0-6H31a1,1,0,0,1,0-2h2a1,1,0,0,1,1,1h2a3,3,0,0,0-3-3V5H31V6a3,3,0,0,0,0,6h2a1,1,0,0,1,0,2Z"></path></g></svg>