<svg xmlns="http://www.w3.org/2000/svg" viewBox="0 0 64 64" x="0px" y="0px"><g><circle cx="59" cy="25" r="2"></circle><circle cx="59" cy="37" r="2"></circle><circle cx="32" cy="13" r="2"></circle><circle cx="5" cy="25" r="2"></circle><circle cx="5" cy="37" r="2"></circle><polygon points="30.847 24 29.18 34 34.82 34 33.153 24 30.847 24"></polygon><rect x="27" y="36" width="10" height="2"></rect><path d="M44,30v2h6v4H44v2h6v6H14V38h6V36H14V32h6V30H14V21a1,1,0,0,1,1-1h3.74a15.192,15.192,0,0,0,2.65,3.61l1.42-1.42A12.165,12.165,0,0,1,21.05,20h2.47a8.5,8.5,0,0,0,.7.78L25,20h6v2H30a1,1,0,0,0-.99.84L27.15,34H26a1,1,0,0,0-1,1v4a1,1,0,0,0,1,1H38a1,1,0,0,0,1-1V35a1,1,0,0,0-1-1H36.85L34.99,22.84A1,1,0,0,0,34,22H33V20h6l.78.78a8.5,8.5,0,0,0,.7-.78h2.47a12.165,12.165,0,0,1-1.76,2.19l1.42,1.42A15.192,15.192,0,0,0,45.26,20H49a1,1,0,0,1,1,1v9Z"></path><polygon points="26.618 54 25.618 56 38.382 56 37.382 54 26.618 54"></polygon><path d="M10,59a1,1,0,0,0,1,1H53a1,1,0,0,0,1-1V58H10Z"></path><path d="M50.28,46H13.72L10.39,56H23.38l1.73-3.45A.988.988,0,0,1,26,52H38a.988.988,0,0,1,.89.55L40.62,56H53.61ZM19,48h2v2H19Zm-3,6H14V52h2Zm1-4H15V48h2Zm5,4H18V52h4Zm3-4H23V48h2Zm4,0H27V48h2Zm4,0H31V48h2Zm4,0H35V48h2Zm6-2h2v2H43Zm-2,2H39V48h2Zm5,4H42V52h4Zm1-6h2v2H47Zm3,6H48V52h2Z"></path><rect x="31" y="17" width="2" height="3"></rect><path d="M27.051,17.949a7,7,0,0,1,0-9.9l1.414,1.414a5,5,0,0,0,0,7.07Z"></path><path d="M36.949,17.949l-1.414-1.414a5,5,0,0,0,0-7.07l1.414-1.414a7,7,0,0,1,0,9.9Z"></path><path d="M25,20l.64-.64a9,9,0,0,1,0-12.72L24.22,5.22A11.012,11.012,0,0,0,23.51,20Z"></path><path d="M39,20l-.64-.64a9,9,0,0,0,0-12.72l1.42-1.42A11.012,11.012,0,0,1,40.49,20Z"></path><path d="M19,13a12.82,12.82,0,0,0,2.05,7H18.73A15.02,15.02,0,0,1,21.39,2.39l1.42,1.42A12.888,12.888,0,0,0,19,13Z"></path><path d="M47,13a14.9,14.9,0,0,1-1.73,7H42.95A12.983,12.983,0,0,0,41.19,3.81l1.42-1.42A14.925,14.925,0,0,1,47,13Z"></path><path d="M53,32H50V30h2.586l2.707-2.707,1.414,1.414-3,3A1,1,0,0,1,53,32Z"></path><rect x="50" y="36" width="4" height="2"></rect><path d="M14,32H11a1,1,0,0,1-.707-.293l-3-3,1.414-1.414L11.414,30H14Z"></path><rect x="10" y="36" width="4" height="2"></rect></g></svg>