<svg xmlns="http://www.w3.org/2000/svg" viewBox="0 0 64 64" x="0px" y="0px"><g data-name="Christmas Tree-Xmas-Christmas-Tree-Decoration"><path d="M49.7,47.31,45.39,41h.29a3.008,3.008,0,0,0,2.28-4.95l-4.31-5.07a2.991,2.991,0,0,0,1.86-5.05l-4.79-5.05a3,3,0,0,0,1.2-5.08l-5.16-4.77,2.05-1.37A2,2,0,0,0,37.7,6H34.92L33.91,2.77a2,2,0,0,0-3.82,0L29.08,6H26.3a2,2,0,0,0-1.11,3.66l2.05,1.37L22.08,15.8a3,3,0,0,0,1.2,5.08l-4.8,5.05a2.979,2.979,0,0,0-.58,3.26,2.936,2.936,0,0,0,2.45,1.79l-4.31,5.07A3.008,3.008,0,0,0,18.32,41h.29L14.3,47.31A3.007,3.007,0,0,0,16.78,52H27.89L27,60.9a1.036,1.036,0,0,0,.26.77A1,1,0,0,0,28,62h8a1,1,0,0,0,.74-.33A1.036,1.036,0,0,0,37,60.9L36.11,52H47.22a3.007,3.007,0,0,0,2.48-4.69ZM26.3,8h2.78a1.986,1.986,0,0,0,1.91-1.41L32,3.36l1.01,3.23A2,2,0,0,0,34.92,8H37.7L35.14,9.71a1.985,1.985,0,0,0-.73,2.45l1.03,2.4-2.16-1.8a2.019,2.019,0,0,0-2.56,0l-2.16,1.8,1.03-2.4a2,2,0,0,0-.73-2.45Zm2.8,52,.8-8h4.19l.8,8Zm19-10.53a.982.982,0,0,1-.88.53H16.78a.982.982,0,0,1-.88-.53,1,1,0,0,1,.06-1.04l5.37-7.87a.98.98,0,0,0,.05-1.03A1,1,0,0,0,20.5,39H18.32a.967.967,0,0,1-.9-.58,1,1,0,0,1,.14-1.07l5.7-6.7A1,1,0,0,0,22.5,29H20.66a1,1,0,0,1-.72-1.69l6.29-6.62A1,1,0,0,0,25.5,19H24.12a1,1,0,0,1-.68-1.74l3.13-2.89a1.995,1.995,0,0,0,3.27,1.73L32,14.3l2.16,1.8a2,2,0,0,0,3.27-1.73l3.13,2.89A1,1,0,0,1,39.88,19H38.5a1,1,0,0,0-.92.61.986.986,0,0,0,.2,1.08l6.28,6.62A1,1,0,0,1,43.34,29H41.5a1,1,0,0,0-.76,1.65l5.7,6.7a1,1,0,0,1,.14,1.07.967.967,0,0,1-.9.58H43.5a1,1,0,0,0-.88.53.98.98,0,0,0,.05,1.03l5.37,7.87A1,1,0,0,1,48.1,49.47Z"></path><path d="M29,26.184V24H27v2.184a3,3,0,1,0,2,0ZM28,30a1,1,0,1,1,1-1A1,1,0,0,1,28,30Z"></path><path d="M37,24.184V22H35v2.184a3,3,0,1,0,2,0ZM36,28a1,1,0,1,1,1-1A1,1,0,0,1,36,28Z"></path><path d="M28,37.184V35H26v2.184a3,3,0,1,0,2,0ZM27,41a1,1,0,1,1,1-1A1,1,0,0,1,27,41Z"></path><path d="M37,40.184V38H35v2.184a3,3,0,1,0,2,0ZM36,44a1,1,0,1,1,1-1A1,1,0,0,1,36,44Z"></path><rect x="29" y="18" width="2" height="2"></rect><rect x="33" y="19" width="2" height="2"></rect><rect x="31" y="32" width="2" height="2"></rect><rect x="37" y="34" width="2" height="2"></rect><rect x="21" y="46" width="2" height="2"></rect><rect x="28" y="44" width="2" height="2"></rect><rect x="40" y="45" width="2" height="2"></rect></g></svg>