<svg xmlns="http://www.w3.org/2000/svg" viewBox="0 0 64 64" x="0px" y="0px"><g><path d="M57,60V31.9A5.009,5.009,0,0,0,61,27V21a1,1,0,0,0-.1-.447l-6-12A1,1,0,0,0,54,8H10a1,1,0,0,0-.895.553l-6,12A1,1,0,0,0,3,21v6a5.009,5.009,0,0,0,4,4.9V60H2v2H62V60ZM20,46V40h5v1a1,1,0,0,0,1,1h4a1,1,0,0,0,1-1V40h5v6ZM36,36v2H31V36Zm-9,0h2v4H27Zm-2,2H20V36h5Zm13,2H48v6H38Zm10-2H38V36a2,2,0,0,0-2-2H20a2,2,0,0,0-2,2V46H9V31.9a4.994,4.994,0,0,0,3-1.93,4.954,4.954,0,0,0,8,0,4.954,4.954,0,0,0,8,0,4.954,4.954,0,0,0,8,0,4.954,4.954,0,0,0,8,0,4.954,4.954,0,0,0,8,0,4.994,4.994,0,0,0,3,1.93V46H50V40A2,2,0,0,0,48,38ZM5,22H59v2H5Zm46,5a3,3,0,0,1-6,0V26h6Zm-8,0a3,3,0,0,1-6,0V26h6Zm-8,0a3,3,0,0,1-6,0V26h6Zm-8,0a3,3,0,0,1-6,0V26h6ZM13,26h6v1a3,3,0,0,1-6,0Zm46,1a3,3,0,0,1-6,0V26h6ZM10.618,10H53.382l5,10H5.618ZM5,27V26h6v1a3,3,0,0,1-6,0ZM25,52v1H23V52Zm-6,0h2v2H19Zm-2,1H15V52h2Zm-2,7V55h2a1,1,0,0,0,1,1h4a1,1,0,0,0,1-1h2v5Zm26-8v1H39V52Zm-6,0h2v2H35Zm-2,1H31V52h2Zm-2,7V55h2a1,1,0,0,0,1,1h4a1,1,0,0,0,1-1h2v5Zm12,0V56h6v4Zm8,0V56a2,2,0,0,0-2-2H43V52a2,2,0,0,0-2-2H31a2,2,0,0,0-2,2v8H27V52a2,2,0,0,0-2-2H15a2,2,0,0,0-2,2v8H9V48H55V60Z"></path></g></svg>