<svg xmlns="http://www.w3.org/2000/svg" viewBox="0 0 64 64" x="0px" y="0px"><g><path d="M20.964,42.614A4.6,4.6,0,0,0,21,42V38.965A3,3,0,0,1,18.6,36.949l-.105-.316-.757.567a9.054,9.054,0,0,1-5.4,1.8H9v3a4.588,4.588,0,0,0,.031.579,5.992,5.992,0,0,0,1.726,3.664,5.865,5.865,0,0,0,1.665,1.171,6,6,0,0,0,8.542-4.8ZM13,42H11V40h2Zm4-2h2v2H17Z"></path><path d="M7,40a1,1,0,0,0,0,2Z"></path><polygon points="12.29 53.183 12.658 52.447 11.975 52.106 10.474 52.774 10.708 53.71 12.29 53.183"></polygon><path d="M17,49.738a7.765,7.765,0,0,1-4,0v.644L14.236,51h1.528L17,50.382Z"></path><polygon points="15.783 53.803 15.382 53 14.618 53 14.217 53.803 15 54.586 15.783 53.803"></polygon><path d="M16.663,60,15.7,56.715a.99.99,0,0,1-1.39,0L13.337,60Z"></path><path d="M20,30H5.618L6.9,32.553a1,1,0,0,1,0,.894L6.217,34.8l2.2,2.2h3.919a7.051,7.051,0,0,0,4.2-1.4L18.4,34.2A1,1,0,0,1,19,34a.98.98,0,0,1,.3.046,1,1,0,0,1,.651.638l.544,1.632a1,1,0,0,0,.948.684h.145L23,35.586V33A3,3,0,0,0,20,30Z"></path><path d="M4,60h7.252l1.425-4.839-2.361.787A.983.983,0,0,1,10,56a1,1,0,0,1-.97-.758L8.619,53.6l-1.653.735A5,5,0,0,0,4,58.9Z"></path><path d="M23,40v2a1,1,0,0,0,0-2Z"></path><polygon points="19.292 53.71 19.526 52.774 18.025 52.106 17.342 52.447 17.71 53.183 19.292 53.71"></polygon><path d="M26,60V58.9a5,5,0,0,0-2.966-4.566L21.381,53.6l-.411,1.643A1,1,0,0,1,20,56a.983.983,0,0,1-.316-.052l-2.361-.787L18.748,60Z"></path><path d="M48,29a6.312,6.312,0,0,0,4.173-1.384l-1.586-.7A1,1,0,0,1,50,26V24.737a7.736,7.736,0,0,1-4,0V26a1,1,0,0,1-.6.917s-.485.221-.523.237l-1.047.465A6.321,6.321,0,0,0,48,29Z"></path><path d="M56,17a8,8,0,0,1-4,6.918v1.436l4.846,2.152c.173.074.338.159.5.245A3.986,3.986,0,0,0,58,20.535a1,1,0,0,1-.338-1.408A2.077,2.077,0,0,0,58,18a2,2,0,0,0-2-2Z"></path><path d="M38.684,27.757a5.349,5.349,0,0,1,.482-.256l4.782-2.123a.539.539,0,0,1,.052-.03v-1.43A8,8,0,0,1,40,17V16a2,2,0,0,0-2,2,2.077,2.077,0,0,0,.34,1.127A1,1,0,0,1,38,20.535a3.984,3.984,0,0,0,.682,7.222Z"></path><path d="M41,12h3.859a2.991,2.991,0,0,0,2.5-1.336l.813-1.219a1,1,0,0,1,1.539-.152l1.829,1.828A3.017,3.017,0,0,0,53.657,12H55V11a7,7,0,0,0-14,0Z"></path><path d="M54,17V14h-.343a4.968,4.968,0,0,1-3.535-1.465l-.966-.966-.136.2A4.987,4.987,0,0,1,44.859,14H42v3a6,6,0,0,0,12,0Zm-4-2h2v2H50Zm-4,2H44V15h2Z"></path><path d="M59,33.9a5,5,0,0,0-2.311-4.219,5.529,5.529,0,0,0-.643-.342l-1.955-.869A7.8,7.8,0,0,1,48,31a7.8,7.8,0,0,1-6.09-2.529l-1.944.863a5.7,5.7,0,0,0-.683.364A4.989,4.989,0,0,0,37,33.9V34H59Z"></path><circle cx="39" cy="51" r="1"></circle><circle cx="47" cy="51" r="1"></circle><path d="M35,60H59a1,1,0,0,0,1-1V43a1,1,0,0,0-1-1H35a1,1,0,0,0-1,1v5a1,1,0,0,1-.553.9l-2.759,1.379,3.019,3.019A1,1,0,0,1,34,54v5A1,1,0,0,0,35,60ZM55,48a3,3,0,1,1-3,3A3,3,0,0,1,55,48Zm-8,0a3,3,0,1,1-3,3A3,3,0,0,1,47,48Zm-8,0a3,3,0,1,1-3,3A3,3,0,0,1,39,48Z"></path><circle cx="55" cy="51" r="1"></circle><circle cx="25" cy="13" r="1"></circle><circle cx="9" cy="13" r="1"></circle><path d="M30.293,10.707A1,1,0,0,1,30,10V5a1,1,0,0,0-1-1H5A1,1,0,0,0,4,5V21a1,1,0,0,0,1,1H29a1,1,0,0,0,1-1V16a1,1,0,0,1,.553-.895l2.759-1.379ZM9,16a3,3,0,1,1,3-3A3,3,0,0,1,9,16Zm8,0a3,3,0,1,1,3-3A3,3,0,0,1,17,16Zm8,0a3,3,0,1,1,3-3A3,3,0,0,1,25,16Z"></path><circle cx="17" cy="13" r="1"></circle></g></svg>