<svg xmlns="http://www.w3.org/2000/svg" viewBox="0 0 64 64" x="0px" y="0px"><g data-name="Server Analytic"><path d="M44.73,22H7a1,1,0,0,0-1,1V37a1,1,0,0,0,1,1H26v2H7a1,1,0,0,0-1,1V55a1,1,0,0,0,1,1H41V53.41a14.961,14.961,0,0,1-2.65-1.1l-1.84,1.83a1,1,0,0,1-1.41,0L30.86,49.9a1,1,0,0,1-.3-.71.976.976,0,0,1,.3-.7l1.83-1.84A14.961,14.961,0,0,1,31.59,44H29a1,1,0,0,1-1-1V37a1,1,0,0,1,1-1h2.59a14.961,14.961,0,0,1,1.1-2.65l-1.83-1.84a1,1,0,0,1,0-1.41l4.24-4.24a1.014,1.014,0,0,1,1.41,0l1.84,1.83A14.961,14.961,0,0,1,41,26.59V24a1,1,0,0,1,1-1h3A1.967,1.967,0,0,0,44.73,22ZM15,35a5,5,0,1,1,5-5A5,5,0,0,1,15,35Zm9-7H22V26h2ZM15,53a5,5,0,1,1,5-5A5,5,0,0,1,15,53Zm9-7H22V44h2Zm4,0H26V44h2Zm0-18H26V26h2Zm4,0H30V26h2Z"></path><circle cx="15" cy="48" r="3"></circle><rect x="10" y="58" width="31" height="2"></rect><circle cx="15" cy="12" r="3"></circle><circle cx="45" cy="40" r="6"></circle><path d="M57.64,38a.987.987,0,0,1-.97-.77,12.2,12.2,0,0,0-1.46-3.52.985.985,0,0,1,.14-1.23l1.67-1.67-2.83-2.83-1.67,1.67a.985.985,0,0,1-1.23.14,12.2,12.2,0,0,0-3.52-1.46.987.987,0,0,1-.77-.97V25H43v2.36a.987.987,0,0,1-.77.97,12.2,12.2,0,0,0-3.52,1.46.985.985,0,0,1-1.23-.14l-1.67-1.67-2.83,2.83,1.67,1.67a.985.985,0,0,1,.14,1.23,12.2,12.2,0,0,0-1.46,3.52.987.987,0,0,1-.97.77H30v4h2.36a.987.987,0,0,1,.97.77,12.2,12.2,0,0,0,1.46,3.52.985.985,0,0,1-.14,1.23l-1.67,1.67,2.83,2.83,1.67-1.67a.985.985,0,0,1,1.23-.14,12.2,12.2,0,0,0,3.52,1.46.987.987,0,0,1,.77.97V55h4V52.64a.987.987,0,0,1,.77-.97,12.2,12.2,0,0,0,3.52-1.46.985.985,0,0,1,1.23.14l1.67,1.67,2.83-2.83-1.67-1.67a.985.985,0,0,1-.14-1.23,12.2,12.2,0,0,0,1.46-3.52.987.987,0,0,1,.97-.77H60V38ZM45,48a8,8,0,1,1,8-8A8.011,8.011,0,0,1,45,48Z"></path><circle cx="15" cy="30" r="3"></circle><path d="M43,4H7A1,1,0,0,0,6,5V19a1,1,0,0,0,1,1H43a1,1,0,0,0,1-1V5A1,1,0,0,0,43,4ZM15,17a5,5,0,1,1,5-5A5,5,0,0,1,15,17Zm9-7H22V8h2Zm4,0H26V8h2Zm4,0H30V8h2Zm4,0H34V8h2Zm4,0H38V8h2Z"></path></g></svg>