<svg xmlns="http://www.w3.org/2000/svg" viewBox="0 0 64 64" x="0px" y="0px"><g><path d="M58.7,3.1A8.974,8.974,0,0,0,54.549,2,6.291,6.291,0,0,0,50.8,3.15,4.361,4.361,0,0,1,48.1,4a4.356,4.356,0,0,1-2.7-.85,6.686,6.686,0,0,0-7.5,0A4.348,4.348,0,0,1,35.211,4a4.351,4.351,0,0,1-2.694-.85,6.686,6.686,0,0,0-7.5,0A4.353,4.353,0,0,1,22.325,4a4.353,4.353,0,0,1-2.694-.85A6.28,6.28,0,0,0,15.882,2a6.279,6.279,0,0,0-3.748,1.15A4.354,4.354,0,0,1,9.439,4a6.983,6.983,0,0,1-3.291-.9A8.956,8.956,0,0,0,2,2V4a6.984,6.984,0,0,1,3.292.9A8.948,8.948,0,0,0,9.439,6a6.28,6.28,0,0,0,3.749-1.15A4.353,4.353,0,0,1,15.882,4a4.349,4.349,0,0,1,2.694.85A6.28,6.28,0,0,0,22.325,6a6.277,6.277,0,0,0,3.748-1.15,4.7,4.7,0,0,1,5.389,0A6.283,6.283,0,0,0,35.211,6a6.279,6.279,0,0,0,3.748-1.15,4.7,4.7,0,0,1,5.389,0A6.285,6.285,0,0,0,48.1,6a6.3,6.3,0,0,0,3.753-1.15,4.358,4.358,0,0,1,2.7-.85,7,7,0,0,1,3.3.9A8.974,8.974,0,0,0,62,6V4A7,7,0,0,1,58.7,3.1Z"></path><path d="M7,8a3,3,0,1,0,3,3A3,3,0,0,0,7,8Zm0,4a1,1,0,1,1,1-1A1,1,0,0,1,7,12Z"></path><rect x="18" y="10" width="6" height="2"></rect><rect x="26" y="10" width="2" height="2"></rect><rect x="9" y="21" width="2" height="2"></rect><rect x="12" y="18" width="2" height="2"></rect><rect x="8" y="16" width="2" height="2"></rect><rect x="28" y="14" width="2" height="2"></rect><path d="M40.7,49.33A1,1,0,0,0,40.381,49l-1.669-1.1L37.33,45.5a1,1,0,0,0-1.366-.366l-3.464,2a1,1,0,0,0-.366,1.366l1.382,2.394.12,2a.989.989,0,0,0,.132.44l4.5,7.8a1,1,0,0,0,1.366.366l5.2-3a1,1,0,0,0,.366-1.366Zm-1.2,9.928-3.882-6.723-.12-2a1,1,0,0,0-.132-.44l-1-1.732,1.732-1,1,1.732a1.009,1.009,0,0,0,.315.335l1.669,1.1,3.882,6.723Z"></path><path d="M59.665,10.946a1,1,0,0,0-.564-.517L55.342,9.061a1,1,0,0,0-1.281.6l-.947,2.6L51.663,13.63a1,1,0,0,0-.252.385l-3.078,8.457a1,1,0,0,0,.6,1.281l5.637,2.052a.987.987,0,0,0,.342.061,1,1,0,0,0,.94-.658l3.078-8.458a.993.993,0,0,0,.053-.456l-.228-1.987.945-2.6A1,1,0,0,0,59.665,10.946Zm-2.7,5.343-2.656,7.295-3.758-1.368,2.656-7.3,1.451-1.375a1,1,0,0,0,.252-.384l.685-1.879,1.879.684-.684,1.879a1,1,0,0,0-.054.456Z"></path><path d="M11,51a3,3,0,1,0,3,3A3,3,0,0,0,11,51Zm0,4a1,1,0,1,1,1-1A1,1,0,0,1,11,55Z"></path><rect x="20" y="56" width="6" height="2"></rect><rect x="28" y="56" width="2" height="2"></rect><rect x="20" y="51" width="2" height="2"></rect><rect x="21" y="19" width="4" height="2"></rect><rect x="27" y="19" width="2" height="2"></rect><rect x="24" y="45" width="2" height="2"></rect><rect x="50" y="56" width="6" height="2"></rect><rect x="58" y="56" width="2" height="2"></rect><path d="M39.342,10.061,35.583,8.692a1,1,0,0,0-1.336.836l-.429,4.1a1,1,0,0,0,.653,1.044l1.88.684a1.013,1.013,0,0,0,.341.06,1,1,0,0,0,.829-.44l2.308-3.417a1,1,0,0,0-.487-1.5ZM36.3,13.21l-.412-.15.214-2.05,1.351.491Z"></path><path d="M35.866,19.5l-1.732,1,1.5,2.6,2,3.464A1,1,0,0,0,39,26.928l3.464-2a1,1,0,0,0,.366-1.366l-2-3.464-1.5-2.6-1.732,1,1,1.732-1.732,1ZM39.6,21.964l1,1.732-1.732,1-1-1.732Z"></path><path d="M61.13,34.32l-1.45-3.31a1,1,0,0,0-1.2-.55l-6.11,1.82-5.48-2.03a1,1,0,0,0-1.17.38l-1.04,1.54L35.9,33.48l-4.77-.84L32,27.71a.931.931,0,0,0-.17-.74,1,1,0,0,0-.64-.42L20.36,24.64a3.961,3.961,0,0,0-2.99.67.218.218,0,0,0-.05.04,2.969,2.969,0,0,0-1.08-.42,3.018,3.018,0,0,0-3.48,2.44v.03l-.34,1.94-.98-.18.17-.98a1,1,0,0,0-.32-.92L9.08,25.31a3.915,3.915,0,0,0-6.47,3.23,3.878,3.878,0,0,0,1.33,2.68l.38.33L2.78,33.17a1,1,0,0,0-.1,1.26l.57.82-.97,5.5a3.014,3.014,0,0,0,2.44,3.48l3.94.69a3.052,3.052,0,0,0,.52.05,3,3,0,0,0,2.95-2.48l.57-3.19c.09.01.18.04.27.05l13.64,1.63,18.72,3.3,2.6.46,4,4.54a.977.977,0,0,0,.75.34,1.042,1.042,0,0,0,.58-.18l2.31-1.62a.99.99,0,0,0,.42-.68,1.025,1.025,0,0,0-.21-.77l-6.66-8.28a1.011,1.011,0,0,0-1.36-.19l-1.93,1.35L41.3,38.02l4.51-.79,5.99.05h.01a1.21,1.21,0,0,0,.19-.01l8.4-1.57a.989.989,0,0,0,.7-.51A1.02,1.02,0,0,0,61.13,34.32ZM9.54,28.38,9.29,29.8l-.35,1.97-1.69-.3-.64-.57,2.45-2.94ZM6.63,33.39l-.24,1.36-.86.26-.74-1.05,1.03-1.08.32.28A1.01,1.01,0,0,0,6.63,33.39ZM5.07,27.01a1.885,1.885,0,0,1,1.31-.65,1.91,1.91,0,0,1,1.16.3L5.12,29.57a1.89,1.89,0,0,1-.05-2.56Zm5.09,15.13A.988.988,0,0,1,9,42.95l-3.93-.69a1.012,1.012,0,0,1-.82-1.16l.7-3.95a.985.985,0,0,0,.17.02.9.9,0,0,0,.28-.04l2.15-.63a.98.98,0,0,0,.7-.79l.35-1.97h.01a4.951,4.951,0,0,0,2.19,4.8Zm1.04-5.91A2.953,2.953,0,0,1,10.63,35a3.149,3.149,0,0,0,.75.25Zm.53-2.95a1.014,1.014,0,0,1-.83-.99.97.97,0,0,1,.01-.17l.08-.41.1-.58.98.18Zm35.2,7.64,1.21-.85,5.41,6.72-.71.5-3.63-4.14a1.051,1.051,0,0,0-.58-.32l-1.97-.35ZM17.69,28.24a2.016,2.016,0,0,1,1.97-1.66,2.159,2.159,0,0,1,.35.03l9.85,1.74-.7,3.94-.99-.17-8.9-1.58A2,2,0,0,1,17.69,28.24Zm-2.95-.52v-.01a.988.988,0,0,1,1.16-.8c.05,0,.08.03.12.04a4.3,4.3,0,0,0-.3.94,4.047,4.047,0,0,0-.04.98c-.04,0-.09.01-.14.01a1,1,0,0,1-.8-1.15Zm-.7,3.93,3.82.68,6.71,2.99-.19,1.07-6.62-2.04c-.04-.01-.08-.02-.13-.03l-3.93-.7Zm11.93,7.24L13.21,37.37c-.06-.01-.11-.03-.17-.04l.31-1.74,3.88.69,7.64,2.35a.266.266,0,0,0,.12.03l.99.18Zm.35-2.02.18-.99,1.97.35a.9.9,0,0,0,.46-.03l.59-.17-.12.65-2.25.33Zm18.56,4.2-.19,1.07L27.95,39.18l.02-.13,6.2.21h.03a1.1,1.1,0,0,0,.18-.02l2.28-.4ZM34.13,37.25l-2.78-.09.42-2.38,3.94.7a1.143,1.143,0,0,0,.32,0l8.39-1.25.18,1.18Zm17.59-1.97-5.13-.05-.28-1.89.63-.94,5.05,1.87a1.041,1.041,0,0,0,.63.02l5.58-1.66.59,1.34Z"></path></g></svg>