<svg xmlns="http://www.w3.org/2000/svg" viewBox="0 0 64 64" x="0px" y="0px"><g><path d="M57,16H38.92A6.947,6.947,0,0,0,37.6,12.816L42.715,7.7A2.951,2.951,0,0,0,44,8a3,3,0,1,0-3-3,2.951,2.951,0,0,0,.3,1.285L36.184,11.4a6.944,6.944,0,0,0-8.368,0L22.7,6.285A2.951,2.951,0,0,0,23,5a3,3,0,1,0-3,3,2.951,2.951,0,0,0,1.285-.3L26.4,12.816A6.947,6.947,0,0,0,25.08,16H7a5.006,5.006,0,0,0-5,5V53a5.006,5.006,0,0,0,5,5H8v2a2,2,0,0,0,2,2h4a2,2,0,0,0,2-2V58H48v2a2,2,0,0,0,2,2h4a2,2,0,0,0,2-2V58h1a5.006,5.006,0,0,0,5-5V21A5.006,5.006,0,0,0,57,16ZM44,4a1,1,0,1,1-1,1A1,1,0,0,1,44,4ZM19,5a1,1,0,1,1,1,1A1,1,0,0,1,19,5Zm13,7a5.009,5.009,0,0,1,4.9,4H27.1A5.009,5.009,0,0,1,32,12ZM14,60H10V58h4Zm40,0H50V58h4Zm6-7a3,3,0,0,1-3,3H7a3,3,0,0,1-3-3V21a3,3,0,0,1,3-3H57a3,3,0,0,1,3,3Z"></path><path d="M45,20H9a3,3,0,0,0-3,3V51a3,3,0,0,0,3,3H45a3,3,0,0,0,3-3V23A3,3,0,0,0,45,20Zm1,31a1,1,0,0,1-1,1H9a1,1,0,0,1-1-1V23a1,1,0,0,1,1-1H45a1,1,0,0,1,1,1Z"></path><path d="M54,24a4,4,0,1,0,4,4A4,4,0,0,0,54,24Zm0,6a2,2,0,1,1,2-2A2,2,0,0,1,54,30Z"></path><path d="M54,34a4,4,0,1,0,4,4A4,4,0,0,0,54,34Zm0,6a2,2,0,1,1,2-2A2,2,0,0,1,54,40Z"></path><rect x="51" y="46" width="6" height="2"></rect><rect x="51" y="50" width="6" height="2"></rect><path d="M32.862,35.792l.6-.6a5.926,5.926,0,0,0,4.554-1.724,6.047,6.047,0,0,0,1.357-6.435,1,1,0,0,0-1.641-.349l-2.1,2.1L34.57,28.43l-.355-1.061,2.1-2.1a1,1,0,0,0-.349-1.641,6.052,6.052,0,0,0-6.435,1.357,5.91,5.91,0,0,0-1.724,4.554L24.38,32.966l-4.037-4.037.707-.707a1,1,0,0,0,0-1.414l-1.414-1.414a.975.975,0,0,0-.193-.151l-3.535-2.121a1,1,0,0,0-1.221.15l-1.415,1.415a1,1,0,0,0-.15,1.221l2.121,3.535a.975.975,0,0,0,.151.193l1.414,1.414a1,1,0,0,0,1.414,0l.707-.707,4.037,4.037L18.541,38.8a5.986,5.986,0,0,0-4.558,1.729,6.047,6.047,0,0,0-1.357,6.435,1,1,0,0,0,1.641.349l2.1-2.1,1.061.355.355,1.061-2.1,2.1a1,1,0,0,0,.349,1.641,6.053,6.053,0,0,0,6.435-1.357A5.918,5.918,0,0,0,24.2,44.459l1.6-1.6,7.279,7.28a2,2,0,0,0,2.828,0L40.142,45.9a2,2,0,0,0,0-2.828ZM17.515,28.929l-.62-.62-1.657-2.76.311-.311,2.76,1.657.62.62Zm12.042,1.688a1,1,0,0,0,.283-.846A3.947,3.947,0,0,1,30.947,26.4a4.017,4.017,0,0,1,2.575-1.164l-1.159,1.16a1,1,0,0,0-.241,1.024l.71,2.12a1,1,0,0,0,.631.631l2.12.71a1,1,0,0,0,1.024-.241l1.16-1.159A4.017,4.017,0,0,1,36.6,32.053a3.943,3.943,0,0,1-3.374,1.107,1.006,1.006,0,0,0-.846.283l-.935.935-1.206-1.206a2,2,0,0,0-2.828,0L26,34.586l-.206-.206ZM22.631,43.2a1,1,0,0,0-.47,1,3.965,3.965,0,0,1-1.108,3.41,4.017,4.017,0,0,1-2.575,1.164l1.159-1.16a1,1,0,0,0,.241-1.024l-.71-2.12a1,1,0,0,0-.631-.631l-2.12-.71a1,1,0,0,0-1.024.241l-1.16,1.159A4.017,4.017,0,0,1,15.4,41.947a3.974,3.974,0,0,1,3.41-1.108,1,1,0,0,0,.952-.423l4.621-4.622.206.206-1.414,1.414a2,2,0,0,0,0,2.828l1.206,1.206Zm14.682,2.7-8.485-8.485-1.414,1.414L35.9,47.313l-1.414,1.415-9.9-9.9,4.242-4.242,9.9,9.9Z"></path></g></svg>