<svg xmlns="http://www.w3.org/2000/svg" viewBox="0 0 64 64" x="0px" y="0px"><g data-name="Game-Smartphone-Gamepad-Video Game-Game Controller"><path d="M14,8a4,4,0,0,1,4-4H46a4,4,0,0,1,4,4v7h2V8a6.006,6.006,0,0,0-6-6H18a6.006,6.006,0,0,0-6,6v7h2Z"></path><path d="M50,56a4,4,0,0,1-4,4H18a4,4,0,0,1-4-4V45H12V56a6.006,6.006,0,0,0,6,6H46a6.006,6.006,0,0,0,6-6V45H50Z"></path><path d="M34,58a3,3,0,0,0,0-6H30a3,3,0,0,0,0,6Zm-5-3a1,1,0,0,1,1-1h4a1,1,0,0,1,0,2H30A1,1,0,0,1,29,55Z"></path><rect x="25" y="6" width="2" height="2"></rect><rect x="29" y="6" width="6" height="2"></rect><path d="M50,17H14a5.006,5.006,0,0,0-5,5V38a5.006,5.006,0,0,0,5,5H50a5.006,5.006,0,0,0,5-5V22A5.006,5.006,0,0,0,50,17Zm-9,2V41H23V19ZM11,38V22a3,3,0,0,1,3-3h7V41H14A3,3,0,0,1,11,38Zm42,0a3,3,0,0,1-3,3H43V19h7a3,3,0,0,1,3,3Z"></path><polygon points="17 31 17 29 15 29 15 31 13 31 13 33 15 33 15 35 17 35 17 33 19 33 19 31 17 31"></polygon><rect x="13" y="37" width="6" height="2"></rect><rect x="47" y="29" width="2" height="2"></rect><rect x="49" y="31" width="2" height="2"></rect><rect x="45" y="31" width="2" height="2"></rect><rect x="47" y="33" width="2" height="2"></rect><rect x="45" y="37" width="6" height="2"></rect><path d="M33,37a6.945,6.945,0,0,0,5.5-2.673A1,1,0,0,0,38.417,33l-3-3,3-3a1,1,0,0,0,.08-1.324A7,7,0,1,0,33,37Zm0-12a4.949,4.949,0,0,1,3.322,1.265l-3.029,3.028a1,1,0,0,0,0,1.414l3.029,3.028A4.949,4.949,0,0,1,33,35a5,5,0,0,1,0-10Z"></path><rect x="32" y="26" width="2" height="2"></rect></g></svg>