<svg xmlns="http://www.w3.org/2000/svg" viewBox="0 0 64 64" x="0px" y="0px"><g data-name="Business-Man-Avatar-Hat"><path d="M37,29.051V26.9A5.009,5.009,0,0,0,41,22V20a3,3,0,0,0,0-6V5a1,1,0,0,0-.629-.929C40.16,3.987,35.156,2,32,2s-8.16,1.987-8.371,2.071A1,1,0,0,0,23,5v9a3,3,0,0,0,0,6v2a5.009,5.009,0,0,0,4,4.9v2.152A13.009,13.009,0,0,0,15,42V61a1,1,0,0,0,1,1H48a1,1,0,0,0,1-1V42A13.009,13.009,0,0,0,37,29.051Zm3.754,6.578-2.309,1.539a1,1,0,0,0-.152,1.539l1.2,1.2-4.959,3.857,4.4-10.392a1,1,0,0,0-.1-.926l-.837-1.255c.324.06.641.136.954.223Zm-15.2,1.539-2.309-1.539,1.8-4.216c.313-.087.63-.163.954-.223l-.837,1.255a1,1,0,0,0-.1.926l4.4,10.392-4.959-3.857,1.2-1.2a1,1,0,0,0-.152-1.539ZM35,27v2.648L32,33.4l-3-3.75V27Zm-6.927,4.693,2.5,3.126-2.13,1.6-1.32-3.3ZM32,36.25l2.763,2.071L32,44.538l-2.763-6.217Zm3.556.167-2.13-1.6,2.5-3.126.949,1.424ZM25,12H39v1a1,1,0,0,1-1,1H26a1,1,0,0,1-1-1Zm17,5a1,1,0,0,1-1,1V16A1,1,0,0,1,42,17ZM25,5.689A25.338,25.338,0,0,1,32,4a25.337,25.337,0,0,1,7,1.69V10H25ZM22,17a1,1,0,0,1,1-1v2A1,1,0,0,1,22,17Zm3,5V15.816A2.966,2.966,0,0,0,26,16H38a2.966,2.966,0,0,0,1-.184V22a3,3,0,0,1-3,3H28A3,3,0,0,1,25,22ZM17,42a11,11,0,0,1,5.386-9.443l-1.3,3.049a1,1,0,0,0,.364,1.226l1.986,1.323-1.138,1.138a1,1,0,0,0,.093,1.5L31,47.489V60H23V42H21V60H17ZM47,60H43V42H41V60H33V47.489l8.614-6.7a1,1,0,0,0,.093-1.5l-1.138-1.138,1.986-1.323a1,1,0,0,0,.364-1.226l-1.3-3.049A11,11,0,0,1,47,42Z"></path><path d="M35,18a.994.994,0,0,0,.71-.29,1.169,1.169,0,0,0,.21-.33A1,1,0,0,0,36,17a1,1,0,1,0-2,0,.99.99,0,0,0,1,1Z"></path><path d="M28.29,17.71a.99.99,0,0,0,1.09.21.9.9,0,0,0,.54-.54A1,1,0,0,0,30,17a1,1,0,1,0-2,0,.838.838,0,0,0,.08.38A1.169,1.169,0,0,0,28.29,17.71Z"></path></g></svg>