<svg xmlns="http://www.w3.org/2000/svg" viewBox="0 0 64 64" x="0px" y="0px"><g><path d="M57,6H35.9A5.009,5.009,0,0,0,31,2H7A5.006,5.006,0,0,0,2,7V53a5.006,5.006,0,0,0,5,5H28.1A5.009,5.009,0,0,0,33,62H57a5.006,5.006,0,0,0,5-5V11A5.006,5.006,0,0,0,57,6ZM39,8H51v2H39ZM13,4H25V6H13ZM4,53V7A3,3,0,0,1,7,4h4V6a2,2,0,0,0,2,2H25a2,2,0,0,0,2-2V4h4a3,3,0,0,1,2.816,2H33a5.006,5.006,0,0,0-5,5v4.485a16.914,16.914,0,0,0-2.5.828l.511-1.484-1.891-.651-1.3,3.781a1,1,0,0,0,.621,1.271l3.781,1.3.65-1.891-1.513-.521A14.912,14.912,0,0,1,28,17.553V26.67a10,10,0,1,0,0,8.66V46.469a14.994,14.994,0,0,1-6.9-4.154L19.651,43.69A16.96,16.96,0,0,0,28,48.525V56H7A3,3,0,0,1,4,53ZM27,31a8,8,0,1,1-8-8A8.009,8.009,0,0,1,27,31ZM60,57a3,3,0,0,1-3,3H33a3,3,0,0,1-3-3V48.892a16.8,16.8,0,0,0,1.957.125,17.008,17.008,0,0,0,4.011-.5L35.233,49.9,37,50.836l1.878-3.531a1,1,0,0,0-.413-1.353l-3.532-1.878-.94,1.766,1.441.766A14.928,14.928,0,0,1,30,46.881V17.146a14.99,14.99,0,0,1,14.376,6.377l1.65-1.129A16.988,16.988,0,0,0,30,15.135V11a3,3,0,0,1,3-3h4v2a2,2,0,0,0,2,2H51a2,2,0,0,0,2-2V8h4a3,3,0,0,1,3,3Z"></path><path d="M44,32h2a1,1,0,0,1,1,1h2a3,3,0,0,0-3-3V28H44v2a3,3,0,0,0,0,6h2a1,1,0,0,1,0,2H44a1,1,0,0,1-1-1H41a3,3,0,0,0,3,3v2h2V40a3,3,0,0,0,0-6H44a1,1,0,0,1,0-2Z"></path><path d="M45,25A10,10,0,1,0,55,35,10.011,10.011,0,0,0,45,25Zm0,18a8,8,0,1,1,8-8A8.009,8.009,0,0,1,45,43Z"></path><path d="M18,28h2a1,1,0,0,1,1,1h2a3,3,0,0,0-3-3V24H18v2a3,3,0,0,0,0,6h2a1,1,0,0,1,0,2H18a1,1,0,0,1-1-1H15a3,3,0,0,0,3,3v2h2V36a3,3,0,0,0,0-6H18a1,1,0,0,1,0-2Z"></path></g></svg>