<svg xmlns="http://www.w3.org/2000/svg" viewBox="0 0 64 64" x="0px" y="0px"><title>Coffee Wtih Foam</title><g data-name="Coffee Wtih Foam"><path d="M55,19H49.816A2.966,2.966,0,0,0,50,18,11,11,0,0,0,39,7H25c-1.979,0-4.438-3.344-5.143-4.515a.986.986,0,0,0-.966-.478,1,1,0,0,0-.839.677C17.445,4.5,13.236,6.319,10.8,7.02,3.527,8.475,2,12.706,2,16a4.977,4.977,0,0,0,1.026,3H3a1,1,0,0,0-1,1V36c0,7.755,6.334,26,15,26H35c7.685,0,13.532-14.343,14.758-23H55a7.009,7.009,0,0,0,7-7V26A7.009,7.009,0,0,0,55,19Zm-5,6h5a1,1,0,0,1,1,1v6a1,1,0,0,1-1,1H50ZM4.882,18.128A3.018,3.018,0,0,1,4,16c0-3.7,2.421-6.064,7.274-7.038.647-.186,5.543-1.647,7.755-4.132C20.242,6.47,22.516,9,25,9H39a9,9,0,0,1,9,9,1,1,0,0,1-1,1H7A3.01,3.01,0,0,1,4.882,18.128ZM35,60H17c-2.966,0-6.245-3.292-9-9.032C5.646,46.053,4,39.9,4,36V21H48V36c0,3.9-1.646,10.053-4,14.968C41.245,56.708,37.966,60,35,60ZM60,32a5.006,5.006,0,0,1-5,5H50V35h5a3,3,0,0,0,3-3V26a3,3,0,0,0-3-3H50V21h5a5.006,5.006,0,0,1,5,5Z"></path></g></svg>