<svg xmlns="http://www.w3.org/2000/svg" viewBox="0 0 64 64" x="0px" y="0px"><g><rect x="17" y="58" width="22" height="2"></rect><path d="M4,42v3a3.009,3.009,0,0,0,3,3H49a3.009,3.009,0,0,0,3-3V42Zm44,4H46V44h2Z"></path><path d="M49.29,27.71A1.033,1.033,0,0,1,49,27V19.24L47.38,16H40.62L39,19.24V27a1.033,1.033,0,0,1-.29.71l-.71.7v1.18l.41.41H49.59l.41-.41V28.41ZM45,28H43V26h2Zm-1-4a3,3,0,1,1,3-3A3.009,3.009,0,0,1,44,24Z"></path><path d="M41,39a1,1,0,0,0,1,1h4a1,1,0,0,0,1-1H45V37h2V35H45V33h2V32H41v1h2v2H41v2h2v2Z"></path><path d="M38.38,16l-1.27,2.55A1,1,0,0,0,37,19H33V16a2.968,2.968,0,0,0-.62-1.8A4.022,4.022,0,0,0,33.87,12H35v1a3.009,3.009,0,0,0,3,3Z"></path><path d="M52,25v3a1.033,1.033,0,0,0-.29-.71l-.71-.7V25Z"></path><path d="M51.71,30.71A1.033,1.033,0,0,0,52,30V40H48.82A3,3,0,0,0,49,39V32h1a1.033,1.033,0,0,0,.71-.29Z"></path><polygon points="21.883 50 21.133 56 34.867 56 34.117 50 21.883 50"></polygon><path d="M52,15.22V19H51a1,1,0,0,0-.11-.45L49.62,16H50A2.927,2.927,0,0,0,52,15.22Z"></path><path d="M37,23V21H32.816a2.809,2.809,0,0,1,0,2Z"></path><circle cx="44" cy="21" r="1"></circle><circle cx="58" cy="22" r="1"></circle><path d="M55,22a3,3,0,0,0,.18,1H51V21h4.18A3,3,0,0,0,55,22Z"></path><path d="M50,10H38a1,1,0,0,0-1,1v2a1,1,0,0,0,1,1H50a1,1,0,0,0,1-1V11A1,1,0,0,0,50,10Zm-9,3H39V11h2Zm8,0H47V11h2Z"></path><path d="M40,4.5a.5.5,0,0,0-1,0V8h1Z"></path><path d="M49,4.5a.5.5,0,0,0-1,0V8h1Z"></path><path d="M57,19.184a2.809,2.809,0,0,1,2,0V16a1,1,0,0,0-2,0Z"></path><path d="M39,39V32H38a1.033,1.033,0,0,1-.71-.29l-1-1A1.033,1.033,0,0,1,36,30V28a1.033,1.033,0,0,1,.29-.71l.71-.7V25H30a3.009,3.009,0,0,1-3-3V16a2.968,2.968,0,0,1,.62-1.8A4.022,4.022,0,0,1,26.13,12H7a3.009,3.009,0,0,0-3,3V40H39.18A3,3,0,0,1,39,39ZM20.29,15.71l1.42-1.42,3,3a1.008,1.008,0,0,1,0,1.42l-3,3-1.42-1.42L22.59,18Zm-3.23-2.06,1.88.7-3,8-1.88-.7ZM8.29,17.29l3-3,1.42,1.42L10.41,18l2.3,2.29-1.42,1.42-3-3A1.008,1.008,0,0,1,8.29,17.29ZM8,26h4v2H8Zm6,10H10V34h4Zm0-4H10V30h4Zm0-6H24v2H14ZM26,36H16V34H26Zm0-4H16V30H26Zm4,4H28V34h2Zm0-4H28V30h2Z"></path><circle cx="30" cy="22" r="1"></circle><path d="M31.73,12a2,2,0,0,1-3.46,0Z"></path><path d="M31,16a1,1,0,0,0-2,0v3.184a2.809,2.809,0,0,1,2,0Z"></path><path d="M58,15a4,4,0,0,1-4-4h2a2,2,0,0,0,4,0h2A4,4,0,0,1,58,15Z"></path><path d="M28,11a2,2,0,0,0,.27,1H26.13A3.657,3.657,0,0,1,26,11Z"></path><path d="M34,11a3.657,3.657,0,0,1-.13,1H31.73A2,2,0,0,0,32,11Z"></path><path d="M31.73,12a2,2,0,0,1-3.46,0Z"></path></g></svg>