<svg xmlns="http://www.w3.org/2000/svg" viewBox="0 0 64 64" x="0px" y="0px"><g data-name="Browser"><path d="M53,12H52v2h1a3,3,0,0,1,3,3V40H8V17a3,3,0,0,1,3-3h1V12H11a5.006,5.006,0,0,0-5,5V45a5.006,5.006,0,0,0,5,5H23.867l-.75,6H21a2,2,0,0,0-2,2v2a2,2,0,0,0,2,2H43a2,2,0,0,0,2-2V58a2,2,0,0,0-2-2H40.883l-.75-6H53a5.006,5.006,0,0,0,5-5V17A5.006,5.006,0,0,0,53,12ZM43,60H21V58H43Zm-4.133-4H25.133l.75-6H38.117ZM53,48H11a3,3,0,0,1-3-3V42H56v3A3,3,0,0,1,53,48Z"></path><rect x="50" y="44" width="2" height="2"></rect><path d="M16,32h2v2a2,2,0,0,0,2,2H44a2,2,0,0,0,2-2V28h2a2,2,0,0,0,2-2V4a2,2,0,0,0-2-2H24a2,2,0,0,0-2,2V6H16a2,2,0,0,0-2,2V30A2,2,0,0,0,16,32ZM44,12v4H20V12ZM20,34V18H44V34ZM24,4H48V26H46V12a2,2,0,0,0-2-2H42V8a2,2,0,0,0-2-2H24ZM16,8H40v2H20a2,2,0,0,0-2,2V30H16Z"></path><rect x="22" y="13" width="2" height="2"></rect><rect x="26" y="13" width="2" height="2"></rect><rect x="30" y="13" width="2" height="2"></rect><rect x="29" y="24" width="2" height="2"></rect><rect x="33" y="24" width="2" height="2"></rect><rect x="37" y="24" width="2" height="2"></rect><rect x="25" y="24" width="2" height="2"></rect></g></svg>