<svg xmlns="http://www.w3.org/2000/svg" viewBox="0 0 64 64" x="0px" y="0px"><g data-name="Present-Open Box-Discount-Percentage-Gift"><rect x="31" y="2" width="2" height="8"></rect><rect x="40.5" y="8.01" width="8" height="2" transform="translate(14.45 43.046) rotate(-60.005)"></rect><rect x="47" y="1.947" width="2" height="2" transform="translate(21.451 43.045) rotate(-60.005)"></rect><rect x="45.99" y="13.5" width="8" height="2" transform="translate(-0.553 26.938) rotate(-30)"></rect><rect x="55.053" y="10" width="2" height="2" transform="translate(2.008 29.495) rotate(-29.995)"></rect><rect x="48" y="21" width="8" height="2"></rect><rect x="58" y="21" width="2" height="2"></rect><rect x="18.5" y="5.01" width="2" height="8" transform="translate(-1.893 10.955) rotate(-29.995)"></rect><rect x="15" y="1.947" width="2" height="2" transform="translate(0.669 8.393) rotate(-29.995)"></rect><rect x="13.009" y="10.5" width="2" height="8" transform="translate(-5.553 19.383) rotate(-60)"></rect><rect x="6.947" y="10" width="2" height="2" transform="translate(-5.553 12.382) rotate(-59.998)"></rect><rect x="48.99" y="25.5" width="2" height="8" transform="translate(-0.552 58.043) rotate(-60)"></rect><rect x="55.052" y="32" width="2" height="2" transform="translate(-0.554 65.041) rotate(-59.998)"></rect><rect x="10.01" y="28.5" width="8" height="2" transform="translate(-12.871 10.955) rotate(-29.995)"></rect><rect x="6.948" y="32" width="2" height="2" transform="translate(-15.433 8.393) rotate(-29.995)"></rect><rect x="8" y="21" width="8" height="2"></rect><rect x="4" y="21" width="2" height="2"></rect><path d="M48.77,34.36A.992.992,0,0,0,48,34H43V22a1,1,0,0,0,1-1V17a1,1,0,0,0-1-1H36.82A3,3,0,0,0,37,15V13a1,1,0,0,0-1-1H34a2.974,2.974,0,0,0-2,.78A2.974,2.974,0,0,0,30,12H28a1,1,0,0,0-1,1v2a3,3,0,0,0,.18,1H21a1,1,0,0,0-1,1v4a1,1,0,0,0,1,1V34H16a.992.992,0,0,0-.77.36l-5,6,1.54,1.28L15,37.76V61a1,1,0,0,0,1,1H48a1,1,0,0,0,1-1V37.76l3.23,3.88,1.54-1.28ZM42,18v2H35V18Zm-1,4V34H35V22Zm-8-7a1,1,0,0,1,1-1h1v1a1,1,0,0,1-1,1H33Zm0,3v2H31V18Zm0,4V34H31V22Zm-4-8h1a1,1,0,0,1,1,1v1H30a1,1,0,0,1-1-1Zm-7,4h7v2H22Zm7,4V34H23V22ZM46.13,36l-2.67,4H20.54l-2.67-4ZM47,60H17V38.3l2.17,3.25A1,1,0,0,0,20,42H44a1,1,0,0,0,.83-.45L47,38.3Z"></path><rect x="28" y="50" width="8" height="2" transform="translate(-26.689 37.56) rotate(-44.995)"></rect><rect x="28.172" y="47.172" width="2" height="2" transform="translate(-25.521 34.746) rotate(-45.01)"></rect><rect x="33.828" y="52.828" width="2" height="2" transform="translate(-27.864 40.404) rotate(-45.01)"></rect><path d="M41,51a9,9,0,1,0-9,9A9.01,9.01,0,0,0,41,51Zm-9,7a7,7,0,1,1,7-7A7.008,7.008,0,0,1,32,58Z"></path></g></svg>