<svg xmlns="http://www.w3.org/2000/svg" viewBox="0 0 64 64" x="0px" y="0px"><g data-name="Planning-Plan-Project-Time Management-Clock"><path d="M56,4a6.007,6.007,0,0,0-5.91,5H13.91A6,6,0,0,0,2,10V43a6.514,6.514,0,0,0,.21,1.57A14.986,14.986,0,1,0,31.85,49H56a6,6,0,0,0,6-6V10A6,6,0,0,0,56,4ZM4,10a4,4,0,0,1,8,0V32.88a14.942,14.942,0,0,0-6.72,4.78A5.7,5.7,0,0,0,4,38.54ZM17,60A13,13,0,1,1,30,47,13.012,13.012,0,0,1,17,60ZM30,39.55V38h4v4H31.12A13.947,13.947,0,0,0,30,39.55ZM56,47H32a14.819,14.819,0,0,0-.3-3H35a1,1,0,0,0,1-1V41h3v2a1,1,0,0,0,1,1h6a1,1,0,0,0,1-1V37a1,1,0,0,0-1-1H40a1,1,0,0,0-1,1v2H36V37a1,1,0,0,0-1-1H33V33h2a1,1,0,0,0,1-1V30h3v2a1,1,0,0,0,1,1h6a1,1,0,0,0,1-1V26a1,1,0,0,0-1-1H44V22h2a1,1,0,0,0,1-1V15a1,1,0,0,0-1-1H40a1,1,0,0,0-1,1v2H36V15a1,1,0,0,0-1-1H29a1,1,0,0,0-1,1v2H25V15a1,1,0,0,0-1-1H18a1,1,0,0,0-1,1v6a1,1,0,0,0,1,1h6a1,1,0,0,0,1-1V19h3v2a1,1,0,0,0,1,1h6a1,1,0,0,0,1-1V19h3v2a1,1,0,0,0,1,1h2v3H40a1,1,0,0,0-1,1v2H36V26a1,1,0,0,0-1-1H29a1,1,0,0,0-1,1v6a1,1,0,0,0,1,1h2v3H29a.983.983,0,0,0-.97.87A14.967,14.967,0,0,0,14,32.3V11H50V43a1,1,0,0,0,2,0,4,4,0,1,1,4,4ZM41,42V38h4v4ZM30,31V27h4v4Zm11,0V27h4v4Zm0-11V16h4v4Zm-7-4v4H30V16ZM23,16v4H19V16ZM60,38.54a5.979,5.979,0,0,0-8-.01V10a4,4,0,0,1,8,0Z"></path><path d="M17,36A11,11,0,1,0,28,47,11.013,11.013,0,0,0,17,36Zm8.941,12a8.956,8.956,0,0,1-1.916,4.611l-1.368-1.368-1.414,1.414,1.368,1.368A8.956,8.956,0,0,1,18,55.941V54H16v1.941a8.956,8.956,0,0,1-4.611-1.916l1.368-1.368-1.414-1.414L9.975,52.611A8.956,8.956,0,0,1,8.059,48H10V46H8.059a8.956,8.956,0,0,1,1.916-4.611l1.368,1.368,1.414-1.414-1.368-1.368A8.956,8.956,0,0,1,16,38.059V40h2V38.059a8.956,8.956,0,0,1,4.611,1.916l-1.368,1.368,1.414,1.414,1.368-1.368A8.956,8.956,0,0,1,25.941,46H24v2Z"></path><path d="M16,46.586l-1.707,1.707,1.414,1.414,2-2A1,1,0,0,0,18,47V42H16Z"></path></g></svg>