<svg xmlns="http://www.w3.org/2000/svg" viewBox="0 0 64 64" x="0px" y="0px"><g><path d="M30,36.444V56h3V54h2v2h2V54h2v2h2V54h2v2h2V54h2v2h2V54h2v2h3V16H52v3a1,1,0,0,1-1,1H33a1,1,0,0,1-1-1V16H30V29.556a3.965,3.965,0,0,1,0,6.888ZM44,50H38V48h6Zm6,0H46V48h4Zm0-6H46V42h4Zm0-4H46V38h4Zm0-4H46V34h4Zm0-4H46V30h4ZM40,24H50v2H40Zm-6,6H44v2H34Zm0,4H44v2H34Zm0,4H44v2H34Zm0,4H44v2H34Z"></path><path d="M24,29h4V16H25a1,1,0,0,0-1,1Z"></path><polygon points="34 12 34 18 37.165 18 38.256 12 34 12"></polygon><path d="M15.764,37l3.789-1.9A1,1,0,0,1,20,35h8a2,2,0,0,0,0-4H11.333L7.6,33.8A1,1,0,0,1,7,34H4V53H7a1,1,0,0,1,.6.2L11.333,56H22V53H18V51h4V48H18V46h4V43H18V41h4V37H20.236l-3.789,1.9A1,1,0,0,1,16,39H13V37Z"></path><polygon points="50 18 50 12 45.744 12 46.835 18 50 18"></polygon><path d="M25,60H59a1,1,0,0,0,1-1V17a1,1,0,0,0-1-1H56V56a2,2,0,0,1-2,2H30a2,2,0,0,1-2-2V37H24V59A1,1,0,0,0,25,60Z"></path><polygon points="44.802 18 43.711 12 40.289 12 39.198 18 44.802 18"></polygon><path d="M48,5.4v.16A2.978,2.978,0,0,1,45.95,8.4l-.81.27L45.38,10H43.35l-.33-1.82a1,1,0,0,1,.66-1.13l1.64-.54A1,1,0,0,0,46,5.56V5.4a1.012,1.012,0,0,0-.75-.97,12.5,12.5,0,0,0-6.5,0A1.012,1.012,0,0,0,38,5.4v.16a1,1,0,0,0,.68.95l1.64.54a1,1,0,0,1,.66,1.13L40.65,10H38.62l.24-1.33-.81-.27A2.978,2.978,0,0,1,36,5.56V5.4a3.013,3.013,0,0,1,2.22-2.89,14.263,14.263,0,0,1,7.56,0A3.013,3.013,0,0,1,48,5.4Z"></path></g></svg>