<svg xmlns="http://www.w3.org/2000/svg" viewBox="0 0 64 64" x="0px" y="0px"><title>Money-Report-Financial</title><g><path d="M32.586,40H23a1,1,0,0,0-.707.293L17,45.586V22H15V48a1,1,0,0,0,1,1H49V47H18.414l5-5H33a1,1,0,0,0,.707-.293L45,30.414V34h2V28a1,1,0,0,0-1-1H40v2h3.586Z"></path><path d="M28,32a1,1,0,0,1-1-1H25a3,3,0,0,0,2,2.816V35h2V33.816A2.993,2.993,0,0,0,28,28a1,1,0,1,1,1-1h2a3,3,0,0,0-2-2.816V23H27v1.184A2.993,2.993,0,0,0,28,30a1,1,0,0,1,0,2Z"></path><path d="M19,29a9,9,0,1,0,9-9A9.01,9.01,0,0,0,19,29Zm9-7a7,7,0,1,1-7,7A7.008,7.008,0,0,1,28,22Z"></path><path d="M55,2H9A2,2,0,0,0,7,4V60a2,2,0,0,0,2,2H55a2,2,0,0,0,2-2V4A2,2,0,0,0,55,2ZM40,4V6H24V4ZM23,12H41a1,1,0,0,0,1-1V8h9V56H13V8h9v3A1,1,0,0,0,23,12Zm17-2H24V8H40ZM9,60V4H22V6H12a1,1,0,0,0-1,1V57a1,1,0,0,0,1,1H52a1,1,0,0,0,1-1V7a1,1,0,0,0-1-1H42V4H55V60Z"></path></g></svg>