<svg xmlns="http://www.w3.org/2000/svg" viewBox="0 0 64 64" x="0px" y="0px"><g><path d="M11.414,56H52.586l-4-4H15.414ZM46,53h2v2H46Zm-4,0h2v2H42ZM24,53H40v2H24Zm-4,0h2v2H20Zm-4,0h2v2H16Z"></path><rect x="10" y="58" width="44" height="2"></rect><path d="M19,50H17V48a1,1,0,0,0-1-1H10a3,3,0,0,1,0-6h6a1,1,0,0,0,1-1V38h2v2a3,3,0,0,1-3,3H10a1,1,0,0,0,0,2h6a3,3,0,0,1,3,3Z"></path><path d="M37.293,11.293a1,1,0,0,1,1.414,0L46,18.587V4H18V19.586l5.293-5.293a1,1,0,0,1,1.414,0L29.5,19.086ZM34,10h2v2H34Zm-8,2H20V10h6Zm1-3a3,3,0,1,1,3,3A3,3,0,0,1,27,9Z"></path><circle cx="30" cy="9" r="1"></circle><path d="M27.331,21.255,26.6,21.8a1,1,0,0,1-1.306-.095L24,20.414l-1.293,1.293A1,1,0,0,1,21.4,21.8l-1.6-1.193-1.8,1.8V24h6.586Z"></path><path d="M34.914,16.5,36,17.586l1.293-1.293a1,1,0,0,1,1.414,0L40,17.586,41.086,16.5,38,13.414Z"></path><path d="M23.293,18.293a1,1,0,0,1,1.414,0L26.1,19.681l.671-.5L24,16.414,21.234,19.18l.671.5Z"></path><path d="M11,35a1,1,0,0,0,1,1H52a1,1,0,0,0,1-1V32H11Zm36-2h2v2H47Z"></path><path d="M46,21.416l-3.5-3.5-1.793,1.793a1,1,0,0,1-1.414,0L38,18.414l-1.293,1.293a1,1,0,0,1-1.414,0L33.5,17.914,27.414,24H46Z"></path><rect x="28" y="38" width="8" height="4"></rect><rect x="23" y="44" width="18" height="2"></rect><path d="M53,9V30H11V9a1,1,0,0,1,1-1h4V24a2.006,2.006,0,0,0,2,2H46a2.006,2.006,0,0,0,2-2V8h4A1,1,0,0,1,53,9Z"></path></g></svg>