<svg xmlns="http://www.w3.org/2000/svg" viewBox="0 0 64 64" x="0px" y="0px"><g><polygon points="23 45 23 60 26 60 27 45 37 45 38 60 41 60 41 45 41 41 23 41 23 45"></polygon><rect x="7" y="18" width="2" height="10"></rect><rect x="11" y="18" width="2" height="10"></rect><path d="M51,27a1,1,0,0,0,1,1h6a1,1,0,0,0,1-1V24H51Z"></path><polygon points="4 30 4 34 6 34 6 60 8.04 60 8.96 34 56.04 34 56.96 60 59 60 59 34 60 34 60 30 4 30"></polygon><path d="M45,19V18H19v1a1,1,0,0,0,1,1H44A1,1,0,0,0,45,19Z"></path><path d="M37,27a1,1,0,0,0-1-1H28a1,1,0,0,0-1,1v1H37Z"></path><rect x="30" y="22" width="4" height="2"></rect><path d="M44,4H20a1,1,0,0,0-1,1V16H45V5A1,1,0,0,0,44,4ZM29,11H27V9h2Zm4,0H31V9h2Zm4,0H35V9h2Z"></path><path d="M57.7,19.71A2.98,2.98,0,0,1,58,21a2.772,2.772,0,0,1-.18,1H52.18A2.772,2.772,0,0,1,52,21a2.98,2.98,0,0,1,.3-1.29l-1.25-1.25,1.41-1.41,1.25,1.25c.1-.04.19-.08.29-.12V16h2v2.18c.1.04.19.08.29.12l1.25-1.25,1.41,1.41Z"></path></g></svg>