<svg xmlns="http://www.w3.org/2000/svg" viewBox="0 0 64 64" x="0px" y="0px"><g><rect x="27" y="12" width="10" height="2"></rect><path d="M60,60V5a1,1,0,0,0-1-1H32a1,1,0,0,0-1,1v5h2V7a1,1,0,0,1,1-1H57a1,1,0,0,1,1,1V60Z"></path><rect x="16" y="16" width="32" height="4"></rect><rect x="16" y="24" width="2" height="14"></rect><rect x="16" y="40" width="2" height="2"></rect><rect x="22" y="36" width="2" height="2"></rect><rect x="22" y="42" width="2" height="2"></rect><rect x="22" y="24" width="2" height="10"></rect><rect x="40" y="36" width="2" height="2"></rect><rect x="40" y="24" width="2" height="10"></rect><rect x="34" y="34" width="2" height="2"></rect><rect x="34" y="38" width="2" height="2"></rect><rect x="34" y="42" width="2" height="2"></rect><rect x="34" y="24" width="2" height="8"></rect><rect x="28" y="24" width="2" height="4"></rect><rect x="28" y="30" width="2" height="12"></rect><rect x="28" y="44" width="2" height="2"></rect><rect x="46" y="24" width="2" height="5"></rect><rect x="46" y="31" width="2" height="2"></rect><rect x="46" y="35" width="2" height="2"></rect></g></svg>