<svg xmlns="http://www.w3.org/2000/svg" viewBox="0 0 64 64" x="0px" y="0px"><g><path d="M11.191,55H17V53h2v2H45V53h2v2h5.809a10.949,10.949,0,0,0-1.6-4H12.792A10.949,10.949,0,0,0,11.191,55Z"></path><circle cx="28" cy="29" r="1"></circle><path d="M22,46a10.948,10.948,0,0,0-7.526,3H26.8a5.679,5.679,0,0,1-1.692-3Z"></path><path d="M60,60V11H4V60H9V57A13.015,13.015,0,0,1,22,44H42A13.015,13.015,0,0,1,55,57v3ZM41,38H39v3a1,1,0,0,1-1,1H26a1,1,0,0,1-1-1V38H23a3,3,0,0,1-3-3.005L20,28a12,12,0,1,1,24,0l0,7A3.006,3.006,0,0,1,41,38Z"></path><path d="M38.9,46A5.679,5.679,0,0,1,37.2,49H49.526A10.948,10.948,0,0,0,42,46Z"></path><circle cx="36" cy="29" r="1"></circle><path d="M42,28a9.728,9.728,0,0,0-1.261-4.919A10.023,10.023,0,0,0,22,28l0,7a1,1,0,0,0,1,1h3a1,1,0,0,1,1,1v3h2V36h2v4h2V36h2v4h2V37a1,1,0,0,1,1-1h3a1,1,0,0,0,1-1l0-7ZM28,32a3,3,0,1,1,3-3A3,3,0,0,1,28,32Zm8,0a3,3,0,1,1,3-3A3,3,0,0,1,36,32Z"></path><path d="M36.842,46H27.158A4.939,4.939,0,0,0,32,49,4.939,4.939,0,0,0,36.842,46Z"></path><rect x="19" y="57" width="26" height="3"></rect><path d="M60,4H4V9H60ZM8,8H6V6H8Zm4,0H10V6h2Zm4,0H14V6h2Z"></path><rect x="47" y="57" width="6" height="3"></rect><rect x="11" y="57" width="6" height="3"></rect></g></svg>