<svg xmlns="http://www.w3.org/2000/svg" viewBox="0 0 64 64" x="0px" y="0px"><g><rect x="11.427" y="53.45" width="14" height="6" transform="translate(-9.519 4.056) rotate(-9.997)"></rect><path d="M4.163,24.019a1.986,1.986,0,0,0-.33,1.5l3.76,21.32,4.544,4a1.007,1.007,0,0,1,.324.577l.174.985,9.848-1.736-1.161-6.581-8.7-10.365a1.984,1.984,0,0,0-1.882-.684,1.317,1.317,0,0,0-.248.064c-.032.014-.065.027-.1.038a1.865,1.865,0,0,0-.6.342,2.007,2.007,0,0,0-.238,2.813l7.348,8.756-1.532,1.285L8.024,37.569a4.012,4.012,0,0,1,.493-5.635,4.4,4.4,0,0,1,.453-.327l-1.2-6.787a2,2,0,0,0-3.609-.8Z"></path><path d="M59.837,24.019a2,2,0,0,0-3.609.8l-1.2,6.787a4.158,4.158,0,0,1,.441.319,4.015,4.015,0,0,1,.5,5.644l-7.349,8.757L47.1,45.041l7.348-8.757a2.008,2.008,0,0,0-.249-2.821,1.841,1.841,0,0,0-.59-.333c-.034-.011-.067-.024-.1-.038a1.294,1.294,0,0,0-.25-.064,1.984,1.984,0,0,0-1.88.684l-8.7,10.365-1.161,6.581,9.848,1.736.174-.985a1.007,1.007,0,0,1,.324-.577l4.544-4,3.76-21.32A1.986,1.986,0,0,0,59.837,24.019Z"></path><rect x="42.573" y="49.45" width="6" height="14" transform="translate(-17.932 91.53) rotate(-80.002)"></rect><path d="M28.707,29.707,27.144,31.27,27.721,33h1.865L31,31.586V10.414L29.586,9H27.721l-.577,1.73,1.563,1.563A1,1,0,0,1,29,13v1H27v-.586L25.586,12H23.414L22,13.414v3.172l1.707,1.707A1,1,0,0,1,24,19v1H22v-.586l-.845-.844L20,20.3v4.283l1,1V24h2v5.219l2.693.674L27,28.586V28h2v1A1,1,0,0,1,28.707,29.707ZM27,25.414V27H25V25a1,1,0,0,1,.293-.707l1-1,1.414,1.414Zm1.707-5.707-2,2-1.414-1.414L27,18.586V16h2v3A1,1,0,0,1,28.707,19.707Z"></path><path d="M44,24.586V20.3L42.845,18.57,42,19.414V20H40V19a1,1,0,0,1,.293-.707L42,16.586V13.414L40.586,12H38.414L37,13.414V14H35V13a1,1,0,0,1,.293-.707l1.563-1.563L36.279,9H34.414L33,10.414V31.586L34.414,33h1.865l.577-1.73-1.563-1.563A1,1,0,0,1,35,29V28h2v.586l1.307,1.307L41,29.219V24h2v1.586ZM35,19V16h2v2.586l1.707,1.707-1.414,1.414-2-2A1,1,0,0,1,35,19Zm4,8H37V25.414l-.707-.707,1.414-1.414,1,1A1,1,0,0,1,39,25Z"></path><rect x="31" y="2" width="2" height="2"></rect><rect x="26.341" y="2.613" width="2" height="2" transform="translate(-0.004 7.2) rotate(-15)"></rect><rect x="22" y="4.411" width="2" height="2" transform="translate(0.376 12.226) rotate(-30.002)"></rect><rect x="18.272" y="7.272" width="2" height="2" transform="translate(-0.205 16.05) rotate(-45)"></rect><rect x="15.411" y="11" width="2" height="2" transform="translate(-2.187 20.212) rotate(-59.998)"></rect><rect x="13.613" y="15.341" width="2" height="2" transform="translate(-4.953 26.227) rotate(-75)"></rect><rect x="13" y="20" width="2" height="2"></rect><rect x="13.613" y="24.659" width="2" height="2" transform="translate(-6.143 4.656) rotate(-15)"></rect><rect x="15.411" y="29" width="2" height="2" transform="translate(-12.8 12.222) rotate(-29.995)"></rect><rect x="18.272" y="32.728" width="2" height="2" transform="translate(-18.205 23.506) rotate(-45)"></rect><rect x="22" y="35.588" width="2" height="2" transform="translate(-20.187 38.217) rotate(-60.005)"></rect><rect x="26.341" y="37.387" width="2" height="2" transform="translate(-16.814 54.861) rotate(-75)"></rect><rect x="31" y="38" width="2" height="2"></rect><rect x="35.659" y="37.387" width="2" height="2" transform="translate(-8.686 10.796) rotate(-15)"></rect><rect x="40" y="35.589" width="2" height="2" transform="translate(-12.802 25.404) rotate(-30.002)"></rect><rect x="43.728" y="32.728" width="2" height="2" transform="translate(-10.749 41.506) rotate(-45)"></rect><rect x="46.588" y="29" width="2" height="2" transform="translate(-2.187 56.211) rotate(-59.998)"></rect><rect x="48.387" y="24.659" width="2" height="2" transform="translate(11.82 66.722) rotate(-75)"></rect><rect x="49" y="20" width="2" height="2"></rect><rect x="48.387" y="15.341" width="2" height="2" transform="translate(-2.547 13.339) rotate(-15)"></rect><rect x="46.589" y="11" width="2" height="2" transform="translate(0.374 25.398) rotate(-29.995)"></rect><rect x="43.728" y="7.272" width="2" height="2" transform="translate(7.251 34.05) rotate(-45)"></rect><rect x="40" y="4.411" width="2" height="2" transform="translate(15.817 38.215) rotate(-60.005)"></rect><rect x="35.659" y="2.613" width="2" height="2" transform="translate(23.681 38.088) rotate(-75)"></rect></g></svg>