<svg xmlns="http://www.w3.org/2000/svg" viewBox="0 0 64 64" x="0px" y="0px"><g data-name="Filter-Coffee-Hot Drink-Coffee Shop-Food"><path d="M3.723,18.308l5.326,5.327a43.045,43.045,0,0,1,42.294-2.049l1.163-1.163,1.414,1.414-.736.736q.9.508,1.767,1.062l5.326-5.327q-.727-.695-1.483-1.345l-.631.631L56.749,16.18l.494-.494A41.066,41.066,0,0,0,3.723,18.308Zm51.611,2.115L53.92,19.008l1.415-1.414,1.414,1.415Z"></path><path d="M32,58.586,60.275,30.31q-.726-.693-1.482-1.346l-.63.63L56.749,28.18l.494-.493A41.008,41.008,0,0,0,3.725,30.31L29.172,55.758l.707-.708,1.414,1.414-.707.708ZM55.335,29.594l1.414,1.415-1.415,1.414L53.92,31.008Zm-2.829,2.829,1.414,1.414-1.414,1.414-1.414-1.414Zm-2.828,2.828,1.414,1.415L49.678,38.08l-1.414-1.414ZM46.85,38.08l1.414,1.414L46.85,40.908l-1.414-1.414Zm-2.829,2.828,1.414,1.414-1.414,1.414-1.415-1.414Zm-2.829,2.829,1.414,1.414-1.414,1.414-1.414-1.414Zm-2.828,2.828,1.414,1.414-1.414,1.415L36.95,47.979Zm-2.829,2.829,1.414,1.414-1.414,1.414-1.414-1.414Zm-2.828,2.828,1.414,1.414L32.707,55.05l-1.414-1.414Z"></path></g></svg>