<svg xmlns="http://www.w3.org/2000/svg" viewBox="0 0 64 64" x="0px" y="0px"><g data-name="Wash Basin"><rect x="47" y="19" width="2" height="2"></rect><rect x="42.757" y="17.243" width="2.001" height="2" transform="translate(-0.083 36.284) rotate(-45)"></rect><rect x="51.243" y="17.242" width="2" height="2.001" transform="translate(2.402 42.284) rotate(-45)"></rect><rect x="15" y="19" width="2" height="2"></rect><rect x="19.243" y="17.242" width="2" height="2.001" transform="translate(-6.971 19.657) rotate(-45)"></rect><rect x="10.757" y="17.243" width="2.001" height="2" transform="translate(-9.456 13.657) rotate(-45)"></rect><path d="M15,15h2V13H27V11H16a1,1,0,0,0-1,1Z"></path><path d="M39,39H25V53a7,7,0,0,0,14,0Z"></path><path d="M60,25H4v5a7.009,7.009,0,0,0,7,7H53a7.009,7.009,0,0,0,7-7Zm-5,4H53V27h2Zm3,3H56V30h2Zm0-3H56V27h2Z"></path><path d="M47,15h2V12a1,1,0,0,0-1-1H37v2H47Z"></path><polygon points="29 15 29 23 35 23 35 15 35 11 29 11 29 15"></polygon><path d="M31,9h2V6a1,1,0,0,0-2,0Z"></path></g></svg>