<svg xmlns="http://www.w3.org/2000/svg" viewBox="0 0 64 64" x="0px" y="0px"><g><circle cx="32" cy="26" r="1"></circle><circle cx="17" cy="22.249" r="1" transform="translate(-5.179 5.158) rotate(-15)"></circle><circle cx="47" cy="22.249" r="1" transform="translate(13.345 61.889) rotate(-75)"></circle><path d="M45.218,15.205c-.341.218-.692.43-1.054.63L43.5,16.2c-.527.279-1.082.537-1.652.784-.055.024-.1.053-.16.077l2.08,3.59a.973.973,0,0,0,.6.464,1,1,0,0,0,.762-.1l1.742-1a1,1,0,0,0,.361-1.365l-2-3.453Z"></path><path d="M12.066,4a19.268,19.268,0,0,0,6.955,8.943,19.4,19.4,0,0,0,2.422,1.489c.425.221.869.434,1.314.637s.893.38,1.353.552a22.073,22.073,0,0,0,5.01,1.2c.459.061.934.107,1.417.137a23.024,23.024,0,0,0,4.332-.135,22.175,22.175,0,0,0,5.02-1.2h0a23.117,23.117,0,0,0,2.663-1.187l.647-.354a16.487,16.487,0,0,0,1.768-1.128A19.369,19.369,0,0,0,51.92,4.048Z"></path><path d="M17.131,20.015l1.737,1a1,1,0,0,0,.765.1.967.967,0,0,0,.6-.46l2.083-3.593c-.127-.054-.254-.11-.382-.166-.485-.223-.96-.45-1.414-.687-.557-.291-1.084-.6-1.591-.922-.051-.032-.11-.06-.16-.093l-2,3.459A1,1,0,0,0,17.131,20.015Z"></path><path d="M30.178,18.939c-.058,0-.12,0-.178-.007V23a1,1,0,0,0,1,1h2a1,1,0,0,0,1-1V18.932c-.056,0-.117,0-.174.006-.595.044-1.2.072-1.826.072S30.773,18.982,30.178,18.939Z"></path><path d="M38.055,60l.3-5.326A10.912,10.912,0,0,1,30.411,47H25.225l.721,13Z"></path><path d="M25.059,44l.056,1h4.93Q30,44.505,30,44Z"></path><path d="M38.941,44H32a8.716,8.716,0,0,0,.064,1h6.821Z"></path><path d="M38.775,47H32.529a9.091,9.091,0,0,0,5.934,5.634Z"></path><path d="M32,33.854A7.457,7.457,0,0,0,31,36a1,1,0,0,0,2,0A7.462,7.462,0,0,0,32,33.854Z"></path></g></svg>