<svg xmlns="http://www.w3.org/2000/svg" viewBox="0 0 64 64" x="0px" y="0px"><g><path d="M57,2H7A5.006,5.006,0,0,0,2,7V57a5.006,5.006,0,0,0,5,5H57a5.006,5.006,0,0,0,5-5V7A5.006,5.006,0,0,0,57,2Zm3,55a3,3,0,0,1-3,3H7a3,3,0,0,1-3-3V7A3,3,0,0,1,7,4H57a3,3,0,0,1,3,3Z"></path><path d="M44,28.051V21a7.008,7.008,0,0,0-7-7H34a7.008,7.008,0,0,0-7,7V39a5,5,0,0,1-10,0V22h3a2,2,0,0,0,2-2V13a1,1,0,0,0-1-1H20V9a1,1,0,0,0-1-1H13a1,1,0,0,0-1,1v3H11a1,1,0,0,0-1,1v7a2,2,0,0,0,2,2h3V39a7,7,0,0,0,14,0V21a5.006,5.006,0,0,1,5-5h3a5.006,5.006,0,0,1,5,5v7.051A11.01,11.01,0,0,0,32,39v6a11,11,0,0,0,22,0V39A11.01,11.01,0,0,0,44,28.051ZM14,10h4v2H14Zm-2,4h8v6H12ZM51.941,38H44V30.059A9.013,9.013,0,0,1,51.941,38ZM42,30.059V38H34.059A9.013,9.013,0,0,1,42,30.059ZM43,54a9.011,9.011,0,0,1-9-9V40H52v5A9.011,9.011,0,0,1,43,54Z"></path></g></svg>