<svg xmlns="http://www.w3.org/2000/svg" viewBox="0 0 64 64" x="0px" y="0px"><g data-name="Money Dialog"><path d="M39,43a7,7,0,1,0,7,7A7.008,7.008,0,0,0,39,43Zm0,12a5,5,0,1,1,5-5A5.006,5.006,0,0,1,39,55Z"></path><path d="M59,30H19a3,3,0,0,0-3,3V59a3,3,0,0,0,3,3H59a3,3,0,0,0,3-3V33A3,3,0,0,0,59,30ZM19,32H59a1,1,0,0,1,1,1v1.184A2.966,2.966,0,0,0,59,34H19a2.966,2.966,0,0,0-1,.184V33A1,1,0,0,1,19,32ZM60,59a1,1,0,0,1-1,1H19a1,1,0,0,1-1-1V41a1,1,0,0,1,1-1H59a1,1,0,0,1,1,1Zm0-20.816A2.966,2.966,0,0,0,59,38H19a2.966,2.966,0,0,0-1,.184V37a1,1,0,0,1,1-1H59a1,1,0,0,1,1,1Z"></path><path d="M21,44v4h2V45h3V43H22A1,1,0,0,0,21,44Z"></path><path d="M56,43H52v2h3v3h2V44A1,1,0,0,0,56,43Z"></path><path d="M23,52H21v4a1,1,0,0,0,1,1h4V55H23Z"></path><path d="M55,55H52v2h4a1,1,0,0,0,1-1V52H55Z"></path><rect x="48" y="49" width="2" height="2"></rect><rect x="28" y="49" width="2" height="2"></rect><path d="M4,52V5A1,1,0,0,1,5,4H31v7a1,1,0,0,0,1.707.707L34,10.414l1.293,1.293A1,1,0,0,0,37,11V4h2a1,1,0,0,1,1,1V28h2V5a3,3,0,0,0-3-3H5A3,3,0,0,0,2,5V52a3,3,0,0,0,3,3h9V53H5A1,1,0,0,1,4,52ZM35,8.586l-.293-.293a1,1,0,0,0-1.414,0L33,8.586V4h2Z"></path><rect x="8" y="8" width="4" height="2"></rect><rect x="14" y="8" width="8" height="2"></rect><rect x="8" y="12" width="14" height="2"></rect><rect x="8" y="18" width="22" height="2"></rect><rect x="32" y="18" width="4" height="2"></rect><rect x="8" y="22" width="28" height="2"></rect><rect x="8" y="26" width="10" height="2"></rect></g></svg>