<svg xmlns="http://www.w3.org/2000/svg" viewBox="0 0 64 64" x="0px" y="0px"><title>Brainstrom-Idea</title><g><path d="M50,60H18V36a1,1,0,0,0-1-1H8.271L15.786,4H50V8h2V3a1,1,0,0,0-1-1H15a1,1,0,0,0-.972.765l-8,33A1,1,0,0,0,7,37h9V61a1,1,0,0,0,1,1H51a1,1,0,0,0,1-1V31H50Z"></path><path d="M22,15a2,2,0,0,1-4,0,1,1,0,0,0-2,0,4,4,0,0,0,8,0,1,1,0,0,0-2,0Z"></path><path d="M57.905,16.576A1,1,0,0,0,57,16H53.077l1.852-4.629A1,1,0,0,0,54,10H47a1,1,0,0,0-.995.9l-1,10A1,1,0,0,0,46,22h2.279l-2.227,6.684a1,1,0,0,0,1.717.957l10-12A1,1,0,0,0,57.905,16.576Zm-8.28,7.712.99-2.972A1,1,0,0,0,49.667,20H47.105l.8-8h4.617l-1.851,4.629A1,1,0,0,0,51.6,18h3.265Z"></path></g></svg>