<svg xmlns="http://www.w3.org/2000/svg" viewBox="0 0 512 512" x="0px" y="0px"><g data-name="Love Bird"><path d="M416,120l32.78-8.78a11.315,11.315,0,0,0-5.85-21.86L432,92.29l-2.93-10.93a11.311,11.311,0,1,0-21.85,5.86Z"></path><path d="M233.37,129.37,256,152l22.63-22.63,11.31-11.31a16,16,0,0,0-22.63-22.63L256,106.75,244.69,95.43a16,16,0,0,0-22.63,22.63Z"></path><path d="M63.22,111.22,96,120l8.78-32.78a11.311,11.311,0,1,0-21.85-5.86L80,92.29,69.07,89.36a11.315,11.315,0,0,0-5.85,21.86Z"></path><path d="M144,264h64V216a32,32,0,0,0-64,0Zm32-56h16v16H176Z"></path><path d="M96,304a32.057,32.057,0,0,0,30.987-24H65.013A32.057,32.057,0,0,0,96,304Z"></path><path d="M96,320a47.762,47.762,0,0,1-15.922-2.726A71.958,71.958,0,0,0,207.559,280H143.321A48.069,48.069,0,0,1,96,320Z"></path><path d="M304,264h64V216a32,32,0,0,0-64,0Zm16-56h16v16H320Z"></path><path d="M416,304a32.057,32.057,0,0,0,30.987-24H385.013A32.057,32.057,0,0,0,416,304Z"></path><path d="M304.441,280a71.958,71.958,0,0,0,127.481,37.274A47.969,47.969,0,0,1,368.679,280Z"></path><polygon points="344 349.29 328 349.29 328 376 320 376 320 392 352 392 352 376 344 376 344 349.29"></polygon><polygon points="384 376 384 360 368 360 368 376 360 376 360 392 392 392 392 376 384 376"></polygon><polygon points="184 349.29 168 349.29 168 376 160 376 160 392 192 392 192 376 184 376 184 349.29"></polygon><polygon points="144 360 128 360 128 376 120 376 120 392 152 392 152 376 144 376 144 360"></polygon><path d="M40,424H472a8,8,0,0,0,0-16H40a8,8,0,0,0,0,16Z"></path><polygon points="224 232 232 232 224 224 224 232"></polygon><polygon points="280 232 288 232 288 224 280 232"></polygon></g></svg>