<svg xmlns="http://www.w3.org/2000/svg" viewBox="0 0 64 64" x="0px" y="0px"><g><path d="M17,60H14a3,3,0,0,1-3-3V55a1,1,0,0,0-1-1H8a3,3,0,0,1-3-3V45H7v6a1,1,0,0,0,1,1h2a3,3,0,0,1,3,3v2a1,1,0,0,0,1,1h3Z"></path><rect x="3" y="33" width="2" height="2"></rect><rect x="7" y="33" width="2" height="2"></rect><path d="M3,41a2,2,0,0,0,2,2H7a2,2,0,0,0,2-2V37H3Z"></path><path d="M32,19c2.092,0,4.473-1.887,5.492-4H34V13h4a5,5,0,0,0-.1-1H35V10h1.974A4.983,4.983,0,0,0,28,13C28,15.909,29.4,19,32,19Z"></path><path d="M22.367,32.841a4.965,4.965,0,0,0,3.736-.829A9.179,9.179,0,0,0,27.31,31H25V29h3.777a5.1,5.1,0,0,0,.376-1H26V26h3.086a3.052,3.052,0,0,0-.363-.706c-1.576-2.251-6.107-3.05-8.356-1.473a5,5,0,0,0,2,9.02Z"></path><circle cx="32" cy="23" r="2"></circle><path d="M32,42A19,19,0,1,0,13,23,19.021,19.021,0,0,0,32,42ZM19.22,22.182c2.379-1.664,6.173-1.522,8.871-.018A3.986,3.986,0,0,1,29.2,20.148C27.111,18.743,26,15.812,26,13a7,7,0,0,1,14,0c0,2.906-2.3,5.937-5.083,7.282a4,4,0,0,1,.717,1.068c2.035-1.488,5.171-1.53,7.815-.568a7,7,0,0,1-4.788,13.156c-2.727-.993-4.786-4.181-5.1-7.254a3.885,3.885,0,0,1-2.29.242,6.115,6.115,0,0,1-.507,2.545,10.2,10.2,0,0,1-3.511,4.18,7,7,0,1,1-8.03-11.469Z"></path><path d="M39.345,32.059A4.993,4.993,0,0,0,45.3,30H44V28h2.006a4.92,4.92,0,0,0,.026-1H43V25h2.44a4.949,4.949,0,0,0-2.675-2.339,8.869,8.869,0,0,0-2.982-.543c-1.819,0-3.448.665-4.025,2.25C34.819,26.95,36.763,31.119,39.345,32.059Z"></path><path d="M45,60V58a5.006,5.006,0,0,0-5-5H24a5.006,5.006,0,0,0-5,5v2h4V59a3,3,0,0,1,3-3H38a3,3,0,0,1,3,3v1Z"></path><rect x="33" y="58" width="2" height="2"></rect><rect x="28.987" y="58" width="2.013" height="2"></rect><path d="M38,58H37v2h2V59A1,1,0,0,0,38,58Z"></path><path d="M36,45.011v-1.4a20.553,20.553,0,0,1-8,0V51h8V49.972H35v-2h1v-.961H33v-2Z"></path><path d="M26,58a1,1,0,0,0-1,1v1h1.987V58Z"></path></g></svg>