<svg xmlns="http://www.w3.org/2000/svg" viewBox="0 0 64 64" x="0px" y="0px"><g data-name="Growth-Tree"><path d="M47.022,41.636l-2.9-.777A5,5,0,0,0,38,44.4l-.776,2.9,2.9.776a5.008,5.008,0,0,0,6.124-3.535Z"></path><path d="M19.875,40.859l-2.9.777.776,2.9a5.009,5.009,0,0,0,6.124,3.535l2.9-.776L26,44.4A5.01,5.01,0,0,0,19.875,40.859Z"></path><rect x="7" y="34" width="2" height="2"></rect><rect x="10" y="37" width="2" height="2"></rect><rect x="4" y="37" width="2" height="2"></rect><rect x="7" y="40" width="2" height="2"></rect><path d="M55,16.414V32h2V16.414l2.293,2.293,1.414-1.414-4-4a1,1,0,0,0-1.414,0l-4,4,1.414,1.414Z"></path><path d="M7,16.414V32H9V16.414l2.293,2.293,1.414-1.414-4-4a1,1,0,0,0-1.414,0l-4,4,1.414,1.414Z"></path><path d="M37,16a4.977,4.977,0,0,1-2,3.974v1.1a6.964,6.964,0,0,1,3.46,1.542,2.992,2.992,0,0,0-.707-5.514A1,1,0,0,1,37,16.13Z"></path><path d="M28,13h1.343a3.017,3.017,0,0,0,2.121-.879l.829-.828a1,1,0,0,1,1.414,0l1.414,1.414a1,1,0,0,0,.707.293H36a1,1,0,0,1,1,1V13a5.006,5.006,0,0,0-5-5,5.009,5.009,0,0,0-5,5v1A1,1,0,0,1,28,13Z"></path><path d="M31,20.9v.687l1,1,1-1V20.9a5,5,0,0,1-2,0Z"></path><path d="M34.376,23.038l-1.669,1.669a1,1,0,0,1-1.414,0l-1.669-1.669A4.991,4.991,0,0,0,25,28v2H39V28A4.991,4.991,0,0,0,34.376,23.038Z"></path><path d="M35,16V14.885a2.981,2.981,0,0,1-1.293-.764L33,13.414l-.122.121A4.968,4.968,0,0,1,29.343,15H29v1a3,3,0,0,0,6,0Z"></path><path d="M25.54,22.613A6.964,6.964,0,0,1,29,21.071v-1.1A4.977,4.977,0,0,1,27,16v.13a1,1,0,0,1-.753.969,2.992,2.992,0,0,0-.707,5.514Z"></path><path d="M32,36A16,16,0,1,0,16,20,16.019,16.019,0,0,0,32,36ZM25,15.418V13a7.009,7.009,0,0,1,7-7,7.009,7.009,0,0,1,7,7v2.418a4.987,4.987,0,0,1,.814,8.7A6.943,6.943,0,0,1,41,28v3a1,1,0,0,1-1,1H24a1,1,0,0,1-1-1V28a6.943,6.943,0,0,1,1.186-3.882,4.987,4.987,0,0,1,.814-8.7Z"></path><rect x="30" y="46" width="4" height="8"></rect><path d="M40,56H24a5.009,5.009,0,0,0-4.9,4H44.9A5.009,5.009,0,0,0,40,56Z"></path><path d="M32,38c-.338,0-.667-.032-1-.051V40h2V37.949C32.667,37.968,32.338,38,32,38Z"></path><rect x="30" y="42" width="4" height="2"></rect><rect x="55" y="34" width="2" height="2"></rect><rect x="58" y="37" width="2" height="2"></rect><rect x="52" y="37" width="2" height="2"></rect><rect x="55" y="40" width="2" height="2"></rect></g></svg>