<svg xmlns="http://www.w3.org/2000/svg" viewBox="0 0 64 64" x="0px" y="0px"><g data-name="Ai-Artificial Intelligence-Computer-Brain-Technology"><path d="M11.414,56H52.586l-4-4H15.414ZM46,53h2v2H46Zm-4,0h2v2H42ZM24,53H40v2H24Zm-4,0h2v2H20Zm-4,0h2v2H16Z"></path><rect x="10" y="58" width="44" height="2"></rect><path d="M19,50H17V48a1,1,0,0,0-1-1H10a3,3,0,0,1,0-6h6a1,1,0,0,0,1-1V38h2v2a3,3,0,0,1-3,3H10a1,1,0,0,0,0,2h6a3,3,0,0,1,3,3Z"></path><path d="M25.707,16.707,24,18.414v2.172l.414.414H26a1,1,0,0,1,.832.445L28.535,24h1.051L31,22.586V6.3L29.465,4H28.414L27,5.414V6.586l1.707,1.707A1,1,0,0,1,29,9v3H27V9.414L25.693,8.107,23,8.781V11h1v2H22.236L21,13.618v2.661l1.73.577L24,15.586V15h2v1A1,1,0,0,1,25.707,16.707ZM27,16h2v2.586l.707.707-1.414,1.414-1-1A1,1,0,0,1,27,19Z"></path><path d="M53,9V30H11V9a1,1,0,0,1,1-1h9v3.38l-1.45.73A.977.977,0,0,0,19,13v4a1.014,1.014,0,0,0,.68.95l2.32.77V21a1.033,1.033,0,0,0,.29.71l1,1A1.033,1.033,0,0,0,24,23h1.46l1.71,2.55A1,1,0,0,0,28,26h2a1.033,1.033,0,0,0,.71-.29L32,24.41l1.29,1.3A1.033,1.033,0,0,0,34,26h2a1,1,0,0,0,.83-.45L38.54,23H40a1.033,1.033,0,0,0,.71-.29l1-1A1.033,1.033,0,0,0,42,21V18.72l2.32-.77A1.014,1.014,0,0,0,45,17V13a.977.977,0,0,0-.55-.89L43,11.38V8h9A1,1,0,0,1,53,9Z"></path><path d="M41.27,16.856,43,16.279V13.618L41.764,13H40V11h1V8.781l-2.693-.674L37,9.414V12H35V9a1,1,0,0,1,.293-.707L37,6.586V5.414L35.586,4H34.535L33,6.3V22.586L34.414,24h1.051l1.7-2.555A1,1,0,0,1,38,21h1.586L40,20.586V18.414l-1.707-1.707A1,1,0,0,1,38,16V15h2v.586ZM37,19a1,1,0,0,1-.293.707l-1,1-1.414-1.414L35,18.586V16h2Z"></path><path d="M11,35a1,1,0,0,0,1,1H52a1,1,0,0,0,1-1V32H11Zm36-2h2v2H47Z"></path><rect x="28" y="38" width="8" height="4"></rect><rect x="23" y="44" width="18" height="2"></rect></g></svg>