<svg xmlns="http://www.w3.org/2000/svg" viewBox="0 0 64 64" x="0px" y="0px"><g><polygon points="19.38 61 20.38 59 17 59 17 61 19.38 61"></polygon><polygon points="47 61 47 59 43.62 59 44.62 61 47 61"></polygon><path d="M51,56V31H13V56a1,1,0,0,0,1,1H50A1,1,0,0,0,51,56Zm-2-4a3,3,0,0,1-3,3H18a3,3,0,0,1-3-3V36a3,3,0,0,1,3-3H46a3,3,0,0,1,3,3Z"></path><path d="M46,35H18a1,1,0,0,0-1,1V52a1,1,0,0,0,1,1H46a1,1,0,0,0,1-1V36A1,1,0,0,0,46,35ZM36,39H28V37h8Z"></path><rect x="17" y="19" width="10" height="2"></rect><path d="M13,24v5H51V24a1,1,0,0,0-1-1H14A1,1,0,0,0,13,24Zm32,1h2v2H45Zm-4,0h2v2H41Zm-4,0h2v2H37ZM25,25h2v2H25Zm-4,0h2v2H21Zm-4,0h2v2H17Z"></path><rect x="37" y="19" width="10" height="2"></rect><path d="M21.832,6.555A5.744,5.744,0,0,0,23,3H21a3.78,3.78,0,0,1-.832,2.445A5.744,5.744,0,0,0,19,9h2A3.78,3.78,0,0,1,21.832,6.555Z"></path><path d="M25,9a3.78,3.78,0,0,1,.832-2.445A5.744,5.744,0,0,0,27,3H25a3.78,3.78,0,0,1-.832,2.445A5.744,5.744,0,0,0,23,9Z"></path><path d="M41.832,6.555A5.744,5.744,0,0,0,43,3H41a3.78,3.78,0,0,1-.832,2.445A5.744,5.744,0,0,0,39,9h2A3.78,3.78,0,0,1,41.832,6.555Z"></path><path d="M45,9a3.78,3.78,0,0,1,.832-2.445A5.744,5.744,0,0,0,47,3H45a3.78,3.78,0,0,1-.832,2.445A5.744,5.744,0,0,0,43,9Z"></path><path d="M47,12V11H37v1H35v2h2v1a2.006,2.006,0,0,0,2,2h6a2.006,2.006,0,0,0,2-2V14h2V12Z"></path><path d="M27,12V11H17v1H15v2h2v1a2.006,2.006,0,0,0,2,2h6a2.006,2.006,0,0,0,2-2V14h2V12Z"></path></g></svg>