<svg xmlns="http://www.w3.org/2000/svg" viewBox="0 0 64 64" x="0px" y="0px"><g data-name="Online Payment-Browser"><path d="M51,52a.928.928,0,0,0-.172.038,2.776,2.776,0,0,1,0,1.924A.928.928,0,0,0,51,54a1,1,0,0,0,0-2Z"></path><path d="M59,54a1,1,0,0,0,1-1V37a1,1,0,0,0-1-1H33a1,1,0,0,0-1,1v1H55a3,3,0,0,1,3,3V54Z"></path><rect x="32" y="44" width="4" height="2"></rect><path d="M45,6H5A1,1,0,0,0,4,7v5H46V7A1,1,0,0,0,45,6ZM8,10H6V8H8Zm4,0H10V8h2Zm4,0H14V8h2Z"></path><path d="M55,40H29a1,1,0,0,0-1,1V57a1,1,0,0,0,1,1H55a1,1,0,0,0,1-1V41A1,1,0,0,0,55,40Zm-7,3h2v4H48ZM30,43a1,1,0,0,1,1-1h6a1,1,0,0,1,1,1v4a1,1,0,0,1-1,1H31a1,1,0,0,1-1-1Zm2,13H30V54h2Zm4,0H34V54h2Zm4,0H38V54h2Zm0-4H30V50H40Zm4-9h2v4H44Zm7,13a2.988,2.988,0,0,1-1.49-.42,3,3,0,1,1,0-5.16A2.991,2.991,0,1,1,51,56Zm3-9H52V43h2Z"></path><circle cx="48" cy="53" r="1"></circle><rect x="21" y="20" width="3" height="2"></rect><path d="M18.707,22.293l.293.293V20H17v2.586l.293-.293A1,1,0,0,1,18.707,22.293Z"></path><path d="M21,25a1,1,0,0,1-1.707.707L18,24.414l-1.293,1.293A1,1,0,0,1,15,25V24H12v6H24V24H21Z"></path><path d="M4,14V47a1,1,0,0,0,1,1H26V41a3.009,3.009,0,0,1,3-3h1V37a3.009,3.009,0,0,1,3-3H46V14ZM26,31a1,1,0,0,1-1,1H11a1,1,0,0,1-1-1V19a1,1,0,0,1,1-1H25a1,1,0,0,1,1,1Zm4-13h2v2H30ZM42,32H30V30H42Zm0-4H30V26H42Zm0-4H30V22H42Zm0-4H34V18h8Z"></path><rect x="12" y="20" width="3" height="2"></rect></g></svg>