<svg xmlns="http://www.w3.org/2000/svg" viewBox="0 0 64 64" x="0px" y="0px"><g data-name="Washing Machine-Wash-Laundry-Household-Machine"><path d="M55,2H9A3.009,3.009,0,0,0,6,5V59a3.009,3.009,0,0,0,3,3H55a3.009,3.009,0,0,0,3-3V5A3.009,3.009,0,0,0,55,2Zm1,57a1,1,0,0,1-1,1H9a1,1,0,0,1-1-1V56H56Zm0-5H8V18H56Zm0-38H8V5A1,1,0,0,1,9,4H55a1,1,0,0,1,1,1Z"></path><path d="M32,14a4,4,0,1,0-4-4A4,4,0,0,0,32,14ZM31,8.278V10h2V8.278a2,2,0,1,1-2,0Z"></path><path d="M41,14H53a1,1,0,0,0,1-1V7a1,1,0,0,0-1-1H41a1,1,0,0,0-1,1v6A1,1,0,0,0,41,14Zm1-6H52v4H42Z"></path><path d="M32,20A16,16,0,1,0,48,36,16.021,16.021,0,0,0,32,20Zm0,30A14,14,0,1,1,46,36,14.015,14.015,0,0,1,32,50Z"></path><path d="M32,24A12,12,0,1,0,44,36,12.01,12.01,0,0,0,32,24Zm0,22a10,10,0,1,1,9.54-13H41a3,3,0,0,0-3,3,3.009,3.009,0,0,0,3,3h.54A10.023,10.023,0,0,1,32,46Zm9-9a1,1,0,0,1-1-1,.949.949,0,0,1,.31-.71A.928.928,0,0,1,41,35h.95c.03.33.05.66.05,1s-.02.67-.05,1Z"></path><rect x="10" y="9" width="2" height="2"></rect><rect x="14" y="9" width="2" height="2"></rect><rect x="18" y="9" width="2" height="2"></rect><rect x="22" y="9" width="2" height="2"></rect></g></svg>