<svg xmlns="http://www.w3.org/2000/svg" viewBox="0 0 64 64" x="0px" y="0px"><g data-name="Slide"><path d="M26,15a1,1,0,0,0-1-1H15a1,1,0,0,0-1,1v5H26Z"></path><rect x="4" y="42" width="8" height="2"></rect><rect x="14" y="22" width="12" height="2"></rect><path d="M60,52V50H54.3a3,3,0,0,1-2.472-1.3L33.772,22.433A1,1,0,0,0,32.948,22H28v2h2.7a3,3,0,0,1,2.472,1.3L51.228,51.567a1,1,0,0,0,.824.433Z"></path><rect x="14" y="26" width="12" height="26"></rect><rect x="4" y="38" width="8" height="2"></rect><rect x="4" y="50" width="8" height="2"></rect><rect x="4" y="34" width="8" height="2"></rect><rect x="4" y="46" width="8" height="2"></rect><rect x="4" y="30" width="8" height="2"></rect><rect x="4" y="26" width="8" height="2"></rect></g></svg>