<svg xmlns="http://www.w3.org/2000/svg" viewBox="0 0 64 64" x="0px" y="0px"><g><polygon points="25.883 50 25.133 56 38.867 56 38.117 50 25.883 50"></polygon><path d="M15,20a5.006,5.006,0,0,0-5,5c0,2.566,3.147,6.532,5,8.551,1.853-2.019,5-5.985,5-8.551A5.006,5.006,0,0,0,15,20Zm0,8a3,3,0,1,1,3-3A3,3,0,0,1,15,28Z"></path><path d="M60,42H4v3a3,3,0,0,0,3,3H57a3,3,0,0,0,3-3Zm-4,4H54V44h2Z"></path><path d="M51,16a3,3,0,0,0-3,3c0,1.708,1.819,3.67,3,4.708,1.181-1.038,3-3,3-4.708A3,3,0,0,0,51,16Zm1,4H50V18h2Z"></path><path d="M20,59a1,1,0,0,0,1,1H43a1,1,0,0,0,0-2H21A1,1,0,0,0,20,59Z"></path><circle cx="15" cy="25" r="1"></circle><path d="M60,7a3,3,0,0,0-3-3H7A3,3,0,0,0,4,7v3H60ZM10,8H8V6h2Zm4,0H12V6h2Zm4,0H16V6h2Z"></path><path d="M60,12H4V40H60ZM15,36a1,1,0,0,1-.707-.293C13.649,35.063,8,29.291,8,25a7,7,0,0,1,14,0c0,4.291-5.649,10.063-6.293,10.707A1,1,0,0,1,15,36Zm37,2H19V36H52a2,2,0,0,0,0-4H30a4,4,0,0,1,0-8H45v2H30a2,2,0,0,0,0,4H52a4,4,0,0,1,0,8Zm-.4-12.2a1,1,0,0,1-1.2,0c-.451-.338-4.4-3.4-4.4-6.8a5,5,0,0,1,10,0C56,22.4,52.051,25.462,51.6,25.8Z"></path></g></svg>