<svg xmlns="http://www.w3.org/2000/svg" viewBox="0 0 64 64" x="0px" y="0px"><g><rect x="28" y="48" width="14" height="2"></rect><rect x="44" y="48" width="2" height="2"></rect><rect x="32" y="4" width="14" height="2"></rect><rect x="28" y="4" width="2" height="2"></rect><path d="M60,13a3,3,0,0,0-3-3H20V31.406a2.985,2.985,0,0,1,1.036,3.126L20,38.4V44H57a3,3,0,0,0,3-3ZM22,14h4v2H22Zm0,4h4v2H22Zm2,24H22V40h2Zm6,0H26V40h4ZM54,29a1,1,0,0,1-.858.99l-2.682.383a10.86,10.86,0,0,1-.679,1.639l1.625,2.166a1,1,0,0,1-.093,1.307l-2.828,2.828a1,1,0,0,1-1.306.093l-2.167-1.624a10.855,10.855,0,0,1-1.639.678l-.383,2.682A1,1,0,0,1,42,41H38a1,1,0,0,1-.99-.858l-.383-2.682a10.855,10.855,0,0,1-1.639-.678l-2.166,1.624a1,1,0,0,1-1.307-.093l-2.828-2.828a1,1,0,0,1-.093-1.307l1.624-2.166a10.96,10.96,0,0,1-.678-1.639l-2.682-.383A1,1,0,0,1,26,29V25a1,1,0,0,1,.858-.99l2.682-.383a10.96,10.96,0,0,1,.678-1.639l-1.624-2.166a1,1,0,0,1,.093-1.307l2.828-2.828a1,1,0,0,1,1.307-.093l2.166,1.624a10.855,10.855,0,0,1,1.639-.678l.383-2.682A1,1,0,0,1,38,13h4a1,1,0,0,1,.99.858l.383,2.682a10.855,10.855,0,0,1,1.639.678l2.167-1.624a1,1,0,0,1,1.306.093l2.828,2.828a1,1,0,0,1,.093,1.307l-1.625,2.166a10.86,10.86,0,0,1,.679,1.639l2.682.383A1,1,0,0,1,54,25Zm4-9H54V18h4Zm0-4H54V14h4Z"></path><path d="M48.71,24.773a8.923,8.923,0,0,0-.977-2.357,1,1,0,0,1,.061-1.111l1.492-1.99-1.6-1.6-1.991,1.492a1,1,0,0,1-1.11.06,8.859,8.859,0,0,0-2.356-.975,1,1,0,0,1-.744-.828L41.133,15H38.867l-.351,2.463a1,1,0,0,1-.744.828,8.859,8.859,0,0,0-2.356.975,1,1,0,0,1-1.11-.06l-1.991-1.492-1.6,1.6,1.492,1.99a1,1,0,0,1,.06,1.111,8.892,8.892,0,0,0-.975,2.356,1,1,0,0,1-.828.743L28,25.867v2.266l2.463.352a1,1,0,0,1,.828.743,8.892,8.892,0,0,0,.975,2.356,1,1,0,0,1-.06,1.111l-1.492,1.99,1.6,1.6,1.991-1.492a1,1,0,0,1,1.11-.06,8.859,8.859,0,0,0,2.356.975,1,1,0,0,1,.744.828L38.867,39h2.266l.351-2.463a1,1,0,0,1,.744-.828,8.859,8.859,0,0,0,2.356-.975,1,1,0,0,1,1.11.06l1.991,1.492,1.6-1.6L47.794,32.7a1,1,0,0,1-.061-1.111,8.923,8.923,0,0,0,.977-2.357,1,1,0,0,1,.827-.742L52,28.133V25.867l-2.463-.352A1,1,0,0,1,48.71,24.773ZM40,33a6,6,0,1,1,6-6A6.006,6.006,0,0,1,40,33Z"></path><path d="M14,58V52.889a9.05,9.05,0,0,1,.95-4.025l1.522-3.044A5.036,5.036,0,0,0,17,43.583V42.79a6.978,6.978,0,0,1,.239-1.812L19.1,34.014a1,1,0,1,0-1.931-.518L16.02,37.8A3.025,3.025,0,0,1,13.1,40.014a2.969,2.969,0,0,1-2.525-1.451L8.143,34.515A1,1,0,0,1,8,34V26.1A5.008,5.008,0,0,0,4,31V42.528a1.027,1.027,0,0,0,.105.448L5.684,46.13A3.022,3.022,0,0,1,6,47.472V58Z"></path><circle cx="40" cy="27" r="4"></circle><path d="M10,25v8.723l2.287,3.811a.98.98,0,0,0,.835.48.963.963,0,0,0,.966-.732l1.153-4.3A2.959,2.959,0,0,1,18,30.771V10H13a3,3,0,0,0-3,3Zm4-1a3,3,0,1,1-3,3A3,3,0,0,1,14,24Z"></path><circle cx="14" cy="27" r="1"></circle></g></svg>