<svg xmlns="http://www.w3.org/2000/svg" viewBox="0 0 64 64" x="0px" y="0px"><title>School</title><g data-name="School"><path d="M61,18H46V14h2a1,1,0,0,0,.53-1.848l-16-10a1,1,0,0,0-1.06,0l-16,10A1,1,0,0,0,16,14h2v4H3a1,1,0,0,0-1,1V61a1,1,0,0,0,1,1H61a1,1,0,0,0,1-1V19A1,1,0,0,0,61,18ZM60,30H46V20H60ZM32,4.179,44.513,12H19.487ZM44,14v4H20V14ZM4,20H18V30H4ZM4,32H18V60H4ZM20,20H44V60H39V51a7,7,0,0,0-14,0v9H20Zm7,40V51a5,5,0,0,1,10,0v9Zm19,0V32H60V60Z"></path><path d="M32,34a6,6,0,1,0-6-6A6.006,6.006,0,0,0,32,34Zm0-10a4,4,0,1,1-4,4A4,4,0,0,1,32,24Z"></path><path d="M32,29h3V27H33V25H31v3A1,1,0,0,0,32,29Z"></path><rect x="6" y="34" width="2" height="2"></rect><rect x="10" y="34" width="2" height="2"></rect><rect x="14" y="34" width="2" height="2"></rect><rect x="6" y="38" width="2" height="2"></rect><rect x="10" y="38" width="2" height="2"></rect><rect x="14" y="38" width="2" height="2"></rect><rect x="6" y="42" width="2" height="2"></rect><rect x="10" y="42" width="2" height="2"></rect><rect x="14" y="42" width="2" height="2"></rect><rect x="6" y="46" width="2" height="2"></rect><rect x="10" y="46" width="2" height="2"></rect><rect x="14" y="46" width="2" height="2"></rect><rect x="6" y="50" width="2" height="2"></rect><rect x="10" y="50" width="2" height="2"></rect><rect x="14" y="50" width="2" height="2"></rect><rect x="48" y="34" width="2" height="2"></rect><rect x="52" y="34" width="2" height="2"></rect><rect x="56" y="34" width="2" height="2"></rect><rect x="48" y="38" width="2" height="2"></rect><rect x="52" y="38" width="2" height="2"></rect><rect x="56" y="38" width="2" height="2"></rect><rect x="48" y="42" width="2" height="2"></rect><rect x="52" y="42" width="2" height="2"></rect><rect x="56" y="42" width="2" height="2"></rect><rect x="48" y="46" width="2" height="2"></rect><rect x="52" y="46" width="2" height="2"></rect><rect x="56" y="46" width="2" height="2"></rect><rect x="48" y="50" width="2" height="2"></rect><rect x="52" y="50" width="2" height="2"></rect><rect x="56" y="50" width="2" height="2"></rect><rect x="6" y="22" width="10" height="2"></rect><rect x="6" y="26" width="10" height="2"></rect><rect x="48" y="22" width="10" height="2"></rect><rect x="48" y="26" width="10" height="2"></rect><rect x="22" y="36" width="20" height="2"></rect><rect x="22" y="40" width="20" height="2"></rect></g></svg>