<svg xmlns="http://www.w3.org/2000/svg" viewBox="0 0 64 64" x="0px" y="0px"><title>CD-Player</title><g><path d="M21,34A11,11,0,1,0,10,23,11.013,11.013,0,0,0,21,34Zm0-20a9,9,0,1,1-9,9A9.011,9.011,0,0,1,21,14Z"></path><path d="M40,23a3,3,0,0,0,2.816-2H54V19H42.816a2.982,2.982,0,0,0-5.632,0H34v2h3.184A3,3,0,0,0,40,23Zm0-4a1,1,0,1,1-1,1A1,1,0,0,1,40,19Z"></path><path d="M49,29a3,3,0,0,0,2.816-2H54V25H51.816a2.982,2.982,0,0,0-5.632,0H34v2H46.184A3,3,0,0,0,49,29Zm0-4a1,1,0,1,1-1,1A1,1,0,0,1,49,25Z"></path><path d="M18,23a3,3,0,1,0,3-3A3,3,0,0,0,18,23Zm4,0a1,1,0,1,1-1-1A1,1,0,0,1,22,23Z"></path><path d="M21,17V15a8.009,8.009,0,0,0-8,8h2A6.006,6.006,0,0,1,21,17Z"></path><path d="M59,2H5A3,3,0,0,0,2,5V45a3,3,0,0,0,3,3H22.9l-.8,8H19a1,1,0,0,0-1,1v3H16v2H48V60H46V57a1,1,0,0,0-1-1H41.905l-.8-8H59a3,3,0,0,0,3-3V5A3,3,0,0,0,59,2ZM44,58v2H20V58ZM24.105,56l.8-8H39.1l.8,8ZM60,45a1,1,0,0,1-1,1H5a1,1,0,0,1-1-1V5A1,1,0,0,1,5,4H59a1,1,0,0,1,1,1Z"></path><path d="M56,6H8A2,2,0,0,0,6,8V39a1,1,0,0,0,1,1H57a1,1,0,0,0,1-1V8A2,2,0,0,0,56,6Zm0,32H8V8H56Z"></path><rect x="31" y="42" width="2" height="2"></rect></g></svg>