<svg xmlns="http://www.w3.org/2000/svg" viewBox="0 0 64 64" x="0px" y="0px"><g><path d="M11,34.816V38h2V34.816a3,3,0,1,0-2,0ZM12,31a1,1,0,1,1-1,1A1,1,0,0,1,12,31Z"></path><path d="M33,29.184V26H31v3.184a3,3,0,1,0,2,0ZM32,33a1,1,0,1,1,1-1A1,1,0,0,1,32,33Z"></path><path d="M51,34.816V38h2V34.816a3,3,0,1,0-2,0ZM52,31a1,1,0,1,1-1,1A1,1,0,0,1,52,31Z"></path><rect x="41" y="31" width="2" height="2"></rect><rect x="45" y="31" width="2" height="2"></rect><rect x="37" y="31" width="2" height="2"></rect><rect x="25" y="31" width="2" height="2"></rect><rect x="21" y="31" width="2" height="2"></rect><rect x="17" y="31" width="2" height="2"></rect><path d="M36,2H28a3,3,0,0,0-3,3V21a3,3,0,0,0,3,3h8a3,3,0,0,0,3-3V5A3,3,0,0,0,36,2ZM28,4h8a1,1,0,0,1,1,1V18H27V5A1,1,0,0,1,28,4Zm8,18H28a1,1,0,0,1-1-1V20H37v1A1,1,0,0,1,36,22Z"></path><rect x="30" y="5" width="4" height="2"></rect><path d="M16,40H8a3,3,0,0,0-3,3V59a3,3,0,0,0,3,3h8a3,3,0,0,0,3-3V43A3,3,0,0,0,16,40ZM8,42h8a1,1,0,0,1,1,1V56H7V43A1,1,0,0,1,8,42Zm8,18H8a1,1,0,0,1-1-1V58H17v1A1,1,0,0,1,16,60Z"></path><rect x="10" y="43" width="4" height="2"></rect><path d="M56,40H48a3,3,0,0,0-3,3V59a3,3,0,0,0,3,3h8a3,3,0,0,0,3-3V43A3,3,0,0,0,56,40Zm-8,2h8a1,1,0,0,1,1,1V56H47V43A1,1,0,0,1,48,42Zm8,18H48a1,1,0,0,1-1-1V58H57v1A1,1,0,0,1,56,60Z"></path><rect x="50" y="43" width="4" height="2"></rect></g></svg>