<svg xmlns="http://www.w3.org/2000/svg" viewBox="0 0 64 64" x="0px" y="0px"><g data-name="Time Management-Productivity-Timetable- Time-Hand"><path d="M58.68,48.37,45.05,56.24a16.875,16.875,0,0,1-10.38,2.17l-12.68-1.4L2.1,59l-.2-2,20-2a1.477,1.477,0,0,1,.21.01l12.78,1.42a14.956,14.956,0,0,0,9.16-1.92l13.63-7.88a1.986,1.986,0,0,0,.73-2.73,2,2,0,0,0-2.73-.73L45.01,49.33a5.009,5.009,0,0,1-2.5.67H32V48H42a2,2,0,0,0,0-4H35a.937.937,0,0,1-.37-.07l-3.21-1.29A9.149,9.149,0,0,0,28.07,42h-1.3a9,9,0,0,0-4.63,1.28l-2.63,1.58A1,1,0,0,1,19,45H2V43H18.72l2.39-1.43A10.974,10.974,0,0,1,26.77,40h1.3a10.825,10.825,0,0,1,4.09.79L35.19,42H42a4,4,0,0,1,4,4,3.906,3.906,0,0,1-.05.48l8.73-5.04a3.943,3.943,0,0,1,3.04-.4,4,4,0,0,1,.96,7.33Z"></path><path d="M40,39A17,17,0,1,0,23,22,17.019,17.019,0,0,0,40,39ZM40,7A15,15,0,1,1,25,22,15.017,15.017,0,0,1,40,7Z"></path><path d="M40,35A13,13,0,1,0,27,22,13.015,13.015,0,0,0,40,35ZM33.663,13.024l.971,1.682,1.732-1L35.4,12.024a10.9,10.9,0,0,1,3.6-.973V13h2V11.051a10.9,10.9,0,0,1,3.6.973l-.971,1.682,1.732,1,.971-1.682a11.1,11.1,0,0,1,2.639,2.639l-1.682.971,1,1.732,1.682-.971A10.9,10.9,0,0,1,50.949,21H49v2h1.949a10.9,10.9,0,0,1-.973,3.605l-1.682-.971-1,1.732,1.682.971a11.1,11.1,0,0,1-2.639,2.639l-.971-1.682-1.732,1,.971,1.682a10.9,10.9,0,0,1-3.6.973V31H39v1.949a10.9,10.9,0,0,1-3.6-.973l.971-1.682-1.732-1-.971,1.682a11.1,11.1,0,0,1-2.639-2.639l1.682-.971-1-1.732-1.682.971A10.9,10.9,0,0,1,29.051,23H31V21H29.051a10.9,10.9,0,0,1,.973-3.605l1.682.971,1-1.732-1.682-.971A11.1,11.1,0,0,1,33.663,13.024Z"></path><path d="M38.715,24.7A2.951,2.951,0,0,0,40,25a2.993,2.993,0,0,0,1-5.816V15H39v4.184A3,3,0,0,0,37,22a2.951,2.951,0,0,0,.3,1.285l-2.008,2.008,1.414,1.414ZM40,21a1,1,0,1,1-1,1A1,1,0,0,1,40,21Z"></path></g></svg>