<svg xmlns="http://www.w3.org/2000/svg" viewBox="0 0 64 64" x="0px" y="0px"><g data-name="Money bag-Time is money-Money-Coins-Clock"><path d="M47,36A11,11,0,1,0,58,47,11.013,11.013,0,0,0,47,36Zm8.941,12a8.956,8.956,0,0,1-1.916,4.611l-1.368-1.368-1.414,1.414,1.368,1.368A8.956,8.956,0,0,1,48,55.941V54H46v1.941a8.956,8.956,0,0,1-4.611-1.916l1.368-1.368-1.414-1.414-1.368,1.368A8.956,8.956,0,0,1,38.059,48H40V46H38.059a8.956,8.956,0,0,1,1.916-4.611l1.368,1.368,1.414-1.414-1.368-1.368A8.956,8.956,0,0,1,46,38.059V40h2V38.059a8.956,8.956,0,0,1,4.611,1.916l-1.368,1.368,1.414,1.414,1.368-1.368A8.956,8.956,0,0,1,55.941,46H54v2Z"></path><path d="M46,46.586l-1.707,1.707,1.414,1.414,2-2A1,1,0,0,0,48,47V42H46Z"></path><path d="M47,32h-.05A14.991,14.991,0,0,0,32.8,18.04,2.96,2.96,0,0,0,33,17a3,3,0,0,0-1.49-2.58l5.35-8.91A1,1,0,0,0,36,4a2.557,2.557,0,0,1-1.87-.78,4.612,4.612,0,0,0-6.25,0,2.644,2.644,0,0,1-3.75,0,4.612,4.612,0,0,0-6.25,0A2.6,2.6,0,0,1,16,4a1,1,0,0,0-.86,1.51l5.35,8.91A3,3,0,0,0,19,17a2.96,2.96,0,0,0,.2,1.04A15.006,15.006,0,0,0,5,33V46.38a3.021,3.021,0,0,1-1.33,2.38A3.978,3.978,0,0,0,2,52.22,4.1,4.1,0,0,0,6.17,56H35.03A14.99,14.99,0,1,0,47,32ZM17.6,5.73a5.568,5.568,0,0,0,1.53-.95A2.557,2.557,0,0,1,21,4a2.6,2.6,0,0,1,1.88.78,4.612,4.612,0,0,0,6.25,0,2.644,2.644,0,0,1,3.75,0,5.132,5.132,0,0,0,1.52.94L29.43,14H22.57ZM31,17a1,1,0,0,1-1,1H22a1,1,0,0,1,0-2h8A1,1,0,0,1,31,17ZM25,53a1,1,0,0,1-1,1H12a1,1,0,0,1-1-1V51a1,1,0,0,1,1-1h1v2h2V50h2v2h2V50h2v2h2V50h1a1,1,0,0,1,1,1Zm0-6a1,1,0,0,1-1,1H12a1,1,0,0,1-1-1V45a1,1,0,0,1,1-1h1v2h2V44h2v2h2V44h2v2h2V44h1a1,1,0,0,1,1,1Zm0-6a1,1,0,0,1-1,1H12a1,1,0,0,1-1-1V39a1,1,0,0,1,1-1h1v2h2V38h2v2h2V38h2v2h2V38h1a1,1,0,0,1,1,1Zm0-6a1,1,0,0,1-1,1H12a1,1,0,0,1-1-1V33a1,1,0,0,1,1-1h1v2h2V32h2v2h2V32h2v2h2V32h1a1,1,0,0,1,1,1Zm-1-5H12a3.009,3.009,0,0,0-3,3v2a2.974,2.974,0,0,0,.78,2A2.974,2.974,0,0,0,9,39v2a2.974,2.974,0,0,0,.78,2A2.974,2.974,0,0,0,9,45v2a2.974,2.974,0,0,0,.78,2A2.974,2.974,0,0,0,9,51v2a3,3,0,0,0,.18,1H6.17A2.127,2.127,0,0,1,4,52.11a2,2,0,0,1,.84-1.73,5,5,0,0,0,2.16-4V33A13.012,13.012,0,0,1,20,20h1.54A5.979,5.979,0,0,0,20,24v1h2V24a4,4,0,0,1,8,0v1h2V24a5.979,5.979,0,0,0-1.54-4H32A13.018,13.018,0,0,1,44.96,32.16,14.822,14.822,0,0,0,36.84,36H28a2.923,2.923,0,0,0-1.32.32A2.923,2.923,0,0,0,27,35V33A3.009,3.009,0,0,0,24,30Zm11.03,8c-.01.01-.02.03-.03.04V38ZM31,46V44h1.3a14.819,14.819,0,0,0-.3,3c0,.34.03.67.05,1H28a1,1,0,0,1-1-1V45a1,1,0,0,1,1-1h1v2Zm-3,8a1,1,0,0,1-1-1V51a1,1,0,0,1,1-1h1v2h2V50h1.3a15.147,15.147,0,0,0,1.44,4Zm4.88-12H28a1,1,0,0,1-1-1V39a1,1,0,0,1,1-1h1v2h2V38h2v2h.74A14.175,14.175,0,0,0,32.88,42ZM47,60A13,13,0,1,1,60,47,13.012,13.012,0,0,1,47,60Z"></path></g></svg>