<svg xmlns="http://www.w3.org/2000/svg" viewBox="0 0 64 64" x="0px" y="0px"><g data-name="Portable SSD"><path d="M25.457,17.44l6,3.6A3,3,0,0,0,36,18.468V9a3,3,0,0,0-3-3H27a3,3,0,0,0-3,3v5.868A3.013,3.013,0,0,0,25.457,17.44ZM26,9a1,1,0,0,1,1-1h6a1,1,0,0,1,1,1v9.468a1,1,0,0,1-1.514.857l-6-3.6h0A1,1,0,0,1,26,14.868Z"></path><path d="M52,40H50a3,3,0,0,1-3-3V29a3,3,0,0,0,3-3V18a1,1,0,0,0-1-1V12a1,1,0,0,0-1-1H44a1,1,0,0,0-1,1v5a1,1,0,0,0-1,1v8a3,3,0,0,0,3,3v8a5.006,5.006,0,0,0,5,5h2a3,3,0,0,1,3,3V55a5.006,5.006,0,0,1-5,5H30a1,1,0,0,1-1-1V58a2,2,0,0,0,2-2V54h4a5.006,5.006,0,0,0,5-5V7a5.006,5.006,0,0,0-5-5H13A5.006,5.006,0,0,0,8,7V49a5.006,5.006,0,0,0,5,5H25v2a2,2,0,0,0,2,2v1a3,3,0,0,0,3,3H50a7.008,7.008,0,0,0,7-7V45A5.006,5.006,0,0,0,52,40ZM45,13h2v4H45ZM44,26V19h4v7a1,1,0,0,1-1,1H45A1,1,0,0,1,44,26ZM13,4H35a3,3,0,0,1,3,3V25H10V7A3,3,0,0,1,13,4ZM10,49V27H38V49a3,3,0,0,1-3,3H13A3,3,0,0,1,10,49Zm19,5v2H27V54Z"></path></g></svg>