<svg xmlns="http://www.w3.org/2000/svg" viewBox="0 0 64 64" x="0px" y="0px"><g><path d="M54,28.744V10a3,3,0,0,0-3-3H5a3,3,0,0,0-3,3V40a3,3,0,0,0,3,3H32.051A14.991,14.991,0,1,0,54,28.744ZM5,9H51a1,1,0,0,1,1,1v2.371L30.164,22.853a4.985,4.985,0,0,1-4.328,0L4,12.371V10A1,1,0,0,1,5,9ZM4,40V14.589L24.971,24.655a6.966,6.966,0,0,0,6.058,0L52,14.589V27.875A14.941,14.941,0,0,0,32.051,41H5A1,1,0,0,1,4,40ZM47,55A13,13,0,1,1,60,42,13.015,13.015,0,0,1,47,55Z"></path><rect x="10" y="47" width="2" height="2"></rect><rect x="14" y="47" width="10" height="2"></rect><path d="M8,36V34H6v2a3,3,0,0,0,3,3h2V37H9A1,1,0,0,1,8,36Z"></path><rect x="6" y="30" width="2" height="2"></rect><path d="M56.92,38.009a6.033,6.033,0,0,0-4.88-4.92,5.95,5.95,0,0,0-4.5,1.025.937.937,0,0,1-1.075,0,5.954,5.954,0,0,0-4.5-1.025,6,6,0,0,0-4.269,8.7,16.112,16.112,0,0,1,1.893,5.961l.237,2.449A3.1,3.1,0,0,0,46,49.9V47a1,1,0,0,1,2,0v2.9a3.1,3.1,0,0,0,6.179.3l.237-2.45a16.123,16.123,0,0,1,1.893-5.961A5.982,5.982,0,0,0,56.92,38.009Zm-2.379,2.846a18.111,18.111,0,0,0-2.115,6.705l-.238,2.449A1.1,1.1,0,0,1,50,49.9V47a3,3,0,0,0-6,0v2.9a1.1,1.1,0,0,1-2.188.106l-.238-2.449a18.111,18.111,0,0,0-2.115-6.705A3.989,3.989,0,0,1,45.3,35.74a2.924,2.924,0,0,0,3.405,0,3.945,3.945,0,0,1,3-.679,3.995,3.995,0,0,1,2.837,5.794Z"></path><path d="M44.413,36.489l-.822,1.823a8.792,8.792,0,0,0,6.819,0l-.82-1.823A6.933,6.933,0,0,1,44.413,36.489Z"></path></g></svg>