<svg xmlns="http://www.w3.org/2000/svg" viewBox="0 0 64 64" x="0px" y="0px"><g data-name="Service Tool"><path d="M29,9a2,2,0,0,0-2-2H9A2,2,0,0,0,7,9V19a2,2,0,0,0,2,2H27a2,2,0,0,0,2-2ZM9,19V9H27l0,10Z"></path><path d="M25.778,28.808a2,2,0,0,0-2.828,0L21.863,29.9A8.96,8.96,0,0,0,9.9,41.863L8.808,42.95a2,2,0,0,0,0,2.828l1.414,1.414a2,2,0,0,0,2.828,0l1.087-1.087A8.96,8.96,0,0,0,26.105,34.137l1.087-1.087a2,2,0,0,0,0-2.828ZM11,38a6.956,6.956,0,0,1,9.337-6.58L11.42,40.337A6.983,6.983,0,0,1,11,38Zm.637,7.779-1.415-1.415L24.364,30.222l1.414,1.414ZM25,38a6.956,6.956,0,0,1-9.337,6.58l8.917-8.917A6.983,6.983,0,0,1,25,38Z"></path><rect x="10" y="24" width="4" height="2"></rect><rect x="16" y="24" width="4" height="2"></rect><rect x="22" y="24" width="4" height="2"></rect><path d="M60,12H59V5a1,1,0,0,0-.293-.707l-2-2a1,1,0,0,0-1.414,0l-2,2A1,1,0,0,0,53,5v7H52a2,2,0,0,0-2,2v2a2,2,0,0,0,2,2V33a3,3,0,0,0,3,3V55a1,1,0,0,1-1,1H43V36a3,3,0,0,0,3-3V18a2,2,0,0,0,2-2V14a2,2,0,0,0-2-2H45V5a1,1,0,0,0-.293-.707l-2-2a1,1,0,0,0-1.414,0l-2,2A1,1,0,0,0,39,5v7H38a2,2,0,0,0-2,2v2a2,2,0,0,0,2,2V33a3,3,0,0,0,3,3V56H28a1,1,0,0,1-1-1V54h2a5.006,5.006,0,0,0,5-5V7a5.006,5.006,0,0,0-5-5H7A5.006,5.006,0,0,0,2,7V49a5.006,5.006,0,0,0,5,5h4v5a3,3,0,0,0,3,3H40a3,3,0,0,0,3-3V58H54a3,3,0,0,0,3-3V36a3,3,0,0,0,3-3V18a2,2,0,0,0,2-2V14A2,2,0,0,0,60,12ZM41,5.414l1-1,1,1V12H41ZM38,14h8l0,2H38Zm2,19V18h4V33a1,1,0,0,1-1,1H41A1,1,0,0,1,40,33ZM4,49V7A3,3,0,0,1,7,4H29a3,3,0,0,1,3,3V49a3,3,0,0,1-3,3H7A3,3,0,0,1,4,49ZM41,59a1,1,0,0,1-1,1H14a1,1,0,0,1-1-1V54H25v1a3,3,0,0,0,3,3H41ZM55,5.414l1-1,1,1V12H55ZM58,33a1,1,0,0,1-1,1H55a1,1,0,0,1-1-1V18h4ZM52,16V14h8l0,2Z"></path><rect x="17" y="13" width="2" height="2"></rect><rect x="21" y="13" width="2" height="2"></rect><rect x="13" y="13" width="2" height="2"></rect></g></svg>