<svg xmlns="http://www.w3.org/2000/svg" viewBox="0 0 64 64" x="0px" y="0px"><g data-name="Freppe-Coffee-Glass-Cold-Coffee Shop"><path d="M32.61,41.494a4.923,4.923,0,0,0-4.116,4.116,2.667,2.667,0,0,0,.6,2.116,3.48,3.48,0,0,0,.79-.6,3.771,3.771,0,0,0,1.136-2.317,5.734,5.734,0,0,1,1.659-3.316Z"></path><path d="M34.117,42.877a3.771,3.771,0,0,0-1.136,2.317,5.732,5.732,0,0,1-1.657,3.313c.023,0,.043,0,.066,0a4.923,4.923,0,0,0,4.116-4.116,2.67,2.67,0,0,0-.6-2.119A3.51,3.51,0,0,0,34.117,42.877Z"></path><path d="M43.4,55H20.6l.27,4.07a1.011,1.011,0,0,0,1,.93H42.13a1.011,1.011,0,0,0,1-.93Z"></path><path d="M19.4,37l1.07,16H43.53L44.6,37Zm18.094,7.61a6.918,6.918,0,0,1-5.884,5.884,5.627,5.627,0,0,1-.617.034,4.487,4.487,0,0,1-3.236-1.286,4.6,4.6,0,0,1-1.251-3.852,6.918,6.918,0,0,1,5.884-5.884,4.461,4.461,0,0,1,5.1,5.1Z"></path><path d="M44.95,24a12.988,12.988,0,0,0-25.9,0Z"></path><path d="M36.93,10.85,39.44,6.5a1,1,0,0,1,.87-.5H47V4H39.16a1,1,0,0,0-.87.5l-3.34,5.79A14.5,14.5,0,0,1,36.93,10.85Z"></path><rect x="17" y="26" width="30" height="4" rx="1"></rect><polygon points="44.93 32 19.07 32 19.27 35 44.73 35 44.93 32"></polygon></g></svg>