<svg xmlns="http://www.w3.org/2000/svg" viewBox="0 0 64 64" x="0px" y="0px"><title>Radio</title><g><path d="M62,27H61V11H33.962L7.252,4.032l-.5,1.936L26.038,11H3V27H2v8H6V60H58V35h4ZM59,13V27H58V22H56V18H54V16.228L41.628,13Zm-5,7v2H52V20ZM5,13H33.705L52,17.772V18H50v4H6v5H5ZM4,33V29H6v4ZM56,58H8V24H56Zm4-25H58V29h2Z"></path><path d="M14,34a4,4,0,1,0-4-4A4,4,0,0,0,14,34Zm0-6a2,2,0,1,1-2,2A2,2,0,0,1,14,28Z"></path><path d="M20,34H54V26H20Zm2-6h2v1h2V28h2v1h2V28h2v1h2V28h2v1h2V28h2v1h2V28h2v1h2V28h2v1h2V28h2v4H22Z"></path><path d="M10,56H54V36H10Zm2-18H52V54H12Z"></path><rect x="15" y="41" width="2" height="2"></rect><rect x="19" y="41" width="2" height="2"></rect><rect x="23" y="41" width="2" height="2"></rect><rect x="27" y="41" width="2" height="2"></rect><rect x="31" y="41" width="2" height="2"></rect><rect x="35" y="41" width="2" height="2"></rect><rect x="39" y="41" width="2" height="2"></rect><rect x="43" y="41" width="2" height="2"></rect><rect x="47" y="41" width="2" height="2"></rect><rect x="15" y="45" width="2" height="2"></rect><rect x="19" y="45" width="2" height="2"></rect><rect x="23" y="45" width="2" height="2"></rect><rect x="27" y="45" width="2" height="2"></rect><rect x="31" y="45" width="2" height="2"></rect><rect x="35" y="45" width="2" height="2"></rect><rect x="39" y="45" width="2" height="2"></rect><rect x="43" y="45" width="2" height="2"></rect><rect x="47" y="45" width="2" height="2"></rect><rect x="15" y="49" width="2" height="2"></rect><rect x="19" y="49" width="2" height="2"></rect><rect x="23" y="49" width="2" height="2"></rect><rect x="27" y="49" width="2" height="2"></rect><rect x="31" y="49" width="2" height="2"></rect><rect x="35" y="49" width="2" height="2"></rect><rect x="39" y="49" width="2" height="2"></rect><rect x="43" y="49" width="2" height="2"></rect><rect x="47" y="49" width="2" height="2"></rect></g></svg>