<svg xmlns="http://www.w3.org/2000/svg" viewBox="0 0 64 64" x="0px" y="0px"><title>House</title><g data-name="House"><path d="M61.719,32.305,56,26.389V9a1,1,0,0,0-1-1H47a1,1,0,0,0-1,1v7.044L32.719,2.305a1.03,1.03,0,0,0-1.438,0l-29,30A1,1,0,0,0,3,34H8V61a1,1,0,0,0,1,1H55a1,1,0,0,0,1-1V34h5a1,1,0,0,0,.719-1.7ZM48,10h6V24.32l-6-6.207ZM23,60V50H41V60ZM54,38H49v2h5v4H49v2h5v4H49v2h5v4H49v2h5v2H43V49a1,1,0,0,0-1-1H22a1,1,0,0,0-1,1V60H10V58h5V56H10V52h5V50H10V46h5V44H10V40h5V38H10V34H54ZM11.244,32,32,10.209,52.756,32Zm44.275,0L32.724,8.07a1.031,1.031,0,0,0-1.448,0L8.481,32H5.357L32,4.439,58.643,32Z"></path><path d="M22,46H42a1,1,0,0,0,1-1c0-4.962-4.935-9-11-9s-11,4.038-11,9A1,1,0,0,0,22,46Zm18.908-2H33V38.048C37.069,38.4,40.33,40.866,40.908,44ZM31,38.048V44H23.092C23.67,40.866,26.931,38.4,31,38.048Z"></path><path d="M26,23a6,6,0,1,0,6-6A6.006,6.006,0,0,0,26,23Zm5-3.858V22H28.142A4,4,0,0,1,31,19.142ZM28.142,24H31v2.858A4,4,0,0,1,28.142,24ZM33,26.858V24h2.858A4,4,0,0,1,33,26.858ZM35.858,22H33V19.142A4,4,0,0,1,35.858,22Z"></path></g></svg>