<svg xmlns="http://www.w3.org/2000/svg" viewBox="0 0 64 64" x="0px" y="0px"><g><path d="M59.284,4.716a8,8,0,0,0-11.313,0L23.691,29a19.039,19.039,0,0,0-4.834,8.215l-.265.93a17.044,17.044,0,0,1-4.325,7.351L2.716,57.042a3,3,0,0,0,4.242,4.242L18.51,49.733a17.041,17.041,0,0,1,7.35-4.325l.93-.266a19.046,19.046,0,0,0,8.215-4.833l24.279-24.28A8.009,8.009,0,0,0,59.284,4.716ZM5.544,59.87A1,1,0,0,1,4.13,58.456l2.121-2.122,1.415,1.414ZM33.591,38.9a17.052,17.052,0,0,1-7.351,4.324l-.929.266A19.048,19.048,0,0,0,17.1,48.319L9.08,56.334,7.665,54.92l8.016-8.015a19.064,19.064,0,0,0,4.835-8.216l.265-.93a17.035,17.035,0,0,1,4.324-7.35L45.142,10.372l8.486,8.486ZM57.87,14.615l-2.828,2.829L46.556,8.958,49.385,6.13a6,6,0,0,1,8.485,8.485Z"></path><path d="M47.971,16.029a3,3,0,1,0,0,4.243A3.005,3.005,0,0,0,47.971,16.029Zm-1.414,2.829a1,1,0,1,1,0-1.415A1,1,0,0,1,46.557,18.858Z"></path><path d="M40.9,20.272a1,1,0,0,0-1.414,0L26.758,33a1,1,0,0,0,0,1.414l2.828,2.829a1,1,0,0,0,1.414,0L43.728,24.515a1,1,0,0,0,0-1.414ZM30.293,35.122l-1.414-1.415L40.192,22.393l1.414,1.415Z"></path></g></svg>