<svg xmlns="http://www.w3.org/2000/svg" viewBox="0 0 64 64" x="0px" y="0px"><g><path d="M56.53,12.152l-16-10A1,1,0,0,0,40,2H24a1,1,0,0,0-.53.152l-16,10A1,1,0,0,0,7,13V33.23A22.951,22.951,0,0,0,17.245,52.362l14.2,9.47a1,1,0,0,0,1.11,0l14.2-9.47A22.951,22.951,0,0,0,57,33.23V13A1,1,0,0,0,56.53,12.152ZM55,33.23A20.955,20.955,0,0,1,45.646,50.7L32,59.8,18.354,50.7A20.955,20.955,0,0,1,9,33.23V13.554L24.287,4H39.713L55,13.554Z"></path><path d="M38.853,6H25.147a1,1,0,0,0-.53.152L11.47,14.369a1,1,0,0,0-.47.848V33.23a18.958,18.958,0,0,0,8.464,15.8l11.981,7.99a1,1,0,0,0,1.11,0l11.981-7.99A18.958,18.958,0,0,0,53,33.23V15.217a1,1,0,0,0-.47-.848L39.382,6.152A1,1,0,0,0,38.853,6ZM51,33.23a16.963,16.963,0,0,1-7.573,14.14L32,54.99,20.574,47.37A16.966,16.966,0,0,1,13,33.23V15.771L25.434,8H38.566L51,15.771Z"></path><path d="M35.93,21H27.236a2.983,2.983,0,0,0-2.683,1.658L22.382,27H20a2,2,0,0,0-2,2v5a1,1,0,0,0,1,1h2.184a2.982,2.982,0,0,0,5.632,0H37.184a2.982,2.982,0,0,0,5.632,0H45a1,1,0,0,0,1-1V30a1,1,0,0,0-.291-.706l-1.991-2A1,1,0,0,0,43.009,27H41.535l-3.109-4.664A3,3,0,0,0,35.93,21Zm.832,2.445L39.132,27H33V23h2.93A1,1,0,0,1,36.762,23.445Zm-10.42.108A.994.994,0,0,1,27.236,23H31v4H24.618ZM20,29H31v4H26.816a2.982,2.982,0,0,0-5.632,0H20Zm4,6a1,1,0,1,1,1-1A1,1,0,0,1,24,35Zm16,0a1,1,0,1,1,1-1A1,1,0,0,1,40,35Zm2.594-6L44,30.413V33H42.816a2.982,2.982,0,0,0-5.632,0H33V29Z"></path><rect x="31" y="15" width="2" height="2"></rect><rect x="24.5" y="16.742" width="2" height="2" transform="translate(-5.454 15.124) rotate(-29.995)"></rect><rect x="19.742" y="21.5" width="2" height="2" transform="translate(-9.114 29.216) rotate(-60.005)"></rect><rect x="24.5" y="39.258" width="2" height="2" transform="translate(-22.115 42.217) rotate(-60.005)"></rect><rect x="31" y="41" width="2" height="2"></rect><rect x="37.5" y="39.258" width="2" height="2" transform="translate(-14.97 24.639) rotate(-29.995)"></rect><rect x="42.258" y="21.5" width="2" height="2" transform="translate(-5.455 24.639) rotate(-29.995)"></rect><rect x="37.5" y="16.742" width="2" height="2" transform="translate(3.888 42.216) rotate(-60.005)"></rect></g></svg>