<svg xmlns="http://www.w3.org/2000/svg" viewBox="0 0 64 64" x="0px" y="0px"><g><path d="M28,22a4,4,0,1,0,4,4A4,4,0,0,0,28,22Zm0,6a2,2,0,1,1,2-2A2,2,0,0,1,28,28Z"></path><rect x="38" y="35" width="2" height="2"></rect><rect x="34" y="35" width="2" height="2"></rect><rect x="12" y="31" width="2" height="2"></rect><rect x="16" y="31" width="2" height="2"></rect><path d="M59,2H43a3,3,0,0,0-3,3v6H36.392a7.971,7.971,0,0,0-14.811.044A3.9,3.9,0,0,0,21,11H10a3,3,0,0,0-3,3V39.8L2.077,51.615A1,1,0,0,0,2,52v4a3,3,0,0,0,3,3H55a3,3,0,0,0,3-3V52a1,1,0,0,0-.077-.385L53,39.8V34h6a3,3,0,0,0,3-3V5A3,3,0,0,0,59,2ZM48,4h6V6H48ZM40,15.09A6.056,6.056,0,0,0,39,15H36.938a7.5,7.5,0,0,0-.01-2H40ZM21.822,13.183a1,1,0,0,0,1.384-.7c.013-.056.033-.112.063-.2a5.992,5.992,0,0,1,11.483,3.426A1,1,0,0,0,35.71,17H39a4.015,4.015,0,0,1,1,.14v7.72A4.015,4.015,0,0,1,39,25H37a1,1,0,0,0-.757-.97l-1.668-.417c-.071-.2-.15-.387-.238-.575l.884-1.473a1,1,0,0,0-.15-1.222l-1.414-1.414a1,1,0,0,0-1.222-.15l-1.473.884c-.188-.088-.379-.167-.575-.238l-.417-1.668A1,1,0,0,0,29,17H27a1,1,0,0,0-.97.757l-.417,1.668c-.2.071-.387.15-.575.238l-1.473-.884a1,1,0,0,0-1.222.15l-1.414,1.414a1,1,0,0,0-.15,1.222l.884,1.473c-.088.188-.167.379-.238.575l-1.668.417A1,1,0,0,0,19,25H17a4,4,0,0,1,0-8h1.18a1,1,0,0,0,.942-1.335,1.983,1.983,0,0,1,2.7-2.482ZM32.335,29.512l.769,1.282-.31.31-1.282-.769a1,1,0,0,0-1.015-.008,5.02,5.02,0,0,1-1.2.5,1,1,0,0,0-.711.723L28.219,33h-.438l-.364-1.453a1,1,0,0,0-.711-.723,5.02,5.02,0,0,1-1.2-.5,1,1,0,0,0-1.015.008l-1.282.769-.31-.31.769-1.282a1,1,0,0,0,.008-1.015,5.02,5.02,0,0,1-.5-1.2,1,1,0,0,0-.723-.711L21,26.219v-.438l1.453-.364a1,1,0,0,0,.723-.711,5.02,5.02,0,0,1,.5-1.2,1,1,0,0,0-.008-1.015L22.9,21.206l.31-.31,1.282.769a1,1,0,0,0,1.015.008,5.02,5.02,0,0,1,1.2-.5,1,1,0,0,0,.711-.723L27.781,19h.438l.364,1.453a1,1,0,0,0,.711.723,5.02,5.02,0,0,1,1.2.5,1,1,0,0,0,1.015-.008l1.282-.769.31.31-.769,1.282a1,1,0,0,0-.008,1.015,5.02,5.02,0,0,1,.5,1.2,1,1,0,0,0,.723.711L35,25.781v.438l-1.453.364a1,1,0,0,0-.723.711,5.02,5.02,0,0,1-.5,1.2A1,1,0,0,0,32.335,29.512ZM55.5,51H38.781l-.811-3.243A1,1,0,0,0,37,47H23a1,1,0,0,0-.97.757L21.219,51H4.5L8.667,41H51.333ZM36.719,51H23.281l.5-2H36.219ZM55,57H5a1,1,0,0,1-1-1V53H56v3A1,1,0,0,1,55,57ZM51,39H9V14a1,1,0,0,1,1-1h7.556A3.959,3.959,0,0,0,17,15a6,6,0,0,0,0,12h2a1,1,0,0,0,.757.97l1.668.417c.071.2.15.387.238.575l-.884,1.473a1,1,0,0,0,.15,1.222l1.414,1.414a1,1,0,0,0,1.222.15l1.473-.884c.188.088.379.167.575.238l.417,1.668A1,1,0,0,0,27,35h2a1,1,0,0,0,.97-.757l.417-1.668c.2-.071.387-.15.575-.238l1.473.884a1,1,0,0,0,1.222-.15l1.414-1.414a1,1,0,0,0,.15-1.222l-.884-1.473c.088-.188.167-.379.238-.575l1.668-.417A1,1,0,0,0,37,27h2a6.056,6.056,0,0,0,1-.09V31a3,3,0,0,0,3,3h8Zm9-8a1,1,0,0,1-1,1H43a1,1,0,0,1-1-1V5a1,1,0,0,1,1-1h3V6a2,2,0,0,0,2,2h6a2,2,0,0,0,2-2V4h3a1,1,0,0,1,1,1Z"></path><path d="M47.707,13.707l-1.414-1.414-3,3a1,1,0,0,0,0,1.414l3,3,1.414-1.414L46.414,17H50V15H46.414Z"></path><rect x="52" y="15" width="2" height="2"></rect><rect x="56" y="15" width="2" height="2"></rect><path d="M55.707,19.293l-1.414,1.414L55.586,22H52v2h3.586l-1.293,1.293,1.414,1.414,3-3a1,1,0,0,0,0-1.414Z"></path><rect x="48" y="22" width="2" height="2"></rect><rect x="44" y="22" width="2" height="2"></rect></g></svg>