<svg xmlns="http://www.w3.org/2000/svg" viewBox="0 0 64 64" x="0px" y="0px"><g><path d="M49.86,28.16,43,16.72V12h3a1,1,0,0,0,1-1V9a7.008,7.008,0,0,0-7-7H22a1,1,0,0,0-1,1V7a1,1,0,0,0,1,1h3v9a1,1,0,0,0,1,1,5,5,0,0,0,5-5V12h2v4.72L26.14,28.16A14.993,14.993,0,0,0,24,35.88V57a5,5,0,0,0,5,5H47a5,5,0,0,0,5-5V35.88A14.993,14.993,0,0,0,49.86,28.16ZM25,6H23V4h2ZM48.15,29.19A13.029,13.029,0,0,1,49.97,35H41V18h.43ZM37,35V18h2V35Zm2,2V56H37V37ZM35,16V12h6v4Zm-6-3a3.014,3.014,0,0,1-2,2.83V12h2Zm-2-3V4H40a5,5,0,0,1,5,5v1Zm.85,19.19L34.57,18H35V35H26.03A13.029,13.029,0,0,1,27.85,29.19ZM50,57a3.009,3.009,0,0,1-3,3H29a3.009,3.009,0,0,1-3-3V37h9V57a1,1,0,0,0,1,1h4a1,1,0,0,0,1-1V37h9Z"></path><rect x="15" y="2" width="2" height="2"></rect><rect x="11" y="2" width="2" height="2"></rect><rect x="7" y="2" width="2" height="2"></rect><rect x="15" y="6" width="2" height="2"></rect><rect x="11" y="7" width="2" height="2"></rect><rect x="7" y="8" width="2" height="2"></rect><rect x="15" y="10" width="2" height="2"></rect><rect x="11" y="12" width="2" height="2"></rect><rect x="7" y="14" width="2" height="2"></rect></g></svg>