<svg xmlns="http://www.w3.org/2000/svg" viewBox="0 0 48 48" x="0px" y="0px"><g><path d="M29.42,9a4.956,4.956,0,0,0-2.24.53L25,10.62V36.38l1.29-.64A7.031,7.031,0,0,1,29.42,35H40V9ZM38,33H28V31H38Zm0-4H28V27H38Zm0-4H28V23H38Zm0-4H28V19H38Zm0-4H28V15H38Zm0-4H28V11H38Z"></path><path d="M44,11V38H28.24a2.992,2.992,0,0,0-2.69,1.66l-.17.34H22.62l-.17-.34A2.992,2.992,0,0,0,19.76,38H4V11H6V35.92A1.076,1.076,0,0,0,7.08,37h11.5a4.956,4.956,0,0,1,2.24.53l2.73,1.36c.02.01.03.01.05.02a.934.934,0,0,0,.8,0c.02-.01.03-.01.05-.02l2.73-1.36A4.956,4.956,0,0,1,29.42,37h11.5A1.076,1.076,0,0,0,42,35.92V11Z"></path><path d="M20.82,9.53A4.956,4.956,0,0,0,18.58,9H8V35H18.58a7.031,7.031,0,0,1,3.13.74l1.29.64V10.62ZM20,33H10V31H20Zm0-4H10V27H20Zm0-4H10V23H20Zm0-4H10V19H20Zm0-4H10V15H20Zm0-4H10V11H20Z"></path></g></svg>