<svg xmlns="http://www.w3.org/2000/svg" viewBox="0 0 64 64" x="0px" y="0px"><g data-name="Toilet"><path d="M16,31h1V26A15.017,15.017,0,0,1,32,11H16Z"></path><path d="M48,31V11H32A15.017,15.017,0,0,1,47,26v5Z"></path><path d="M45,31V26a13,13,0,0,0-26,0v5h1V26a12,12,0,0,1,24,0v5Z"></path><rect x="31" y="4" width="2" height="1"></rect><path d="M32,16A10.011,10.011,0,0,0,22,26v5H42V26A10.011,10.011,0,0,0,32,16Z"></path><rect x="14" y="7" width="36" height="2"></rect><path d="M39.214,53.145a14.955,14.955,0,0,1-14.428,0L24.2,59H19v2H45V59H39.8Z"></path><rect x="14" y="33" width="36" height="2"></rect><path d="M19,40a13,13,0,0,0,26,0V37H19Zm22-1h2v2H41Zm0,3h2v2H41Zm-3-3h2v2H38Z"></path></g></svg>