<svg xmlns="http://www.w3.org/2000/svg" viewBox="0 0 512 512" x="0px" y="0px"><g data-name="Ring"><path d="M471.43,90.14a16,16,0,0,0-21.86-5.85l-13.86,8-8-13.86a16,16,0,1,0-27.71,16l8,13.86L424,136l27.71-16,13.86-8a16.012,16.012,0,0,0,5.86-21.86Z"></path><path d="M233.37,65.37,256,88l22.63-22.63,11.31-11.31a16,16,0,0,0-22.63-22.63L256,42.75,244.69,31.43a16,16,0,0,0-22.63,22.63Z"></path><path d="M88,120l16-27.71,8-13.86a16,16,0,1,0-27.71-16l-8,13.86-13.86-8A16,16,0,1,0,46.43,96l13.86,8Z"></path><path d="M284.1,287.231a95.437,95.437,0,0,1,16.849-8.627L291.046,265.4a112.1,112.1,0,0,0-63.26,131.536A80.716,80.716,0,0,0,241.1,382.454,96.73,96.73,0,0,1,240,368a95.44,95.44,0,0,1,15.805-52.759A96.738,96.738,0,0,1,284.1,287.231Z"></path><polygon points="232 192 206.246 192 193.369 243.508 232 192"></polygon><polygon points="366.246 224 353.369 275.508 392 224 366.246 224"></polygon><polygon points="280 208 296 208 288 197.333 280 208"></polygon><polygon points="200 170.666 208 160 192 160 200 170.666"></polygon><polygon points="318.631 275.508 305.754 224 280 224 318.631 275.508"></polygon><polygon points="158.631 243.508 145.754 192 120 192 158.631 243.508"></polygon><path d="M427.623,303.572a111.789,111.789,0,0,0-46.677-38.166l-9.9,13.2A96.006,96.006,0,1,1,262.779,430.064a128.171,128.171,0,0,1-12.4,10.1A111.982,111.982,0,0,0,448,368,111.26,111.26,0,0,0,427.623,303.572Z"></path><polygon points="120 176 136 176 128 165.333 120 176"></polygon><path d="M249.216,273.93a127.829,127.829,0,0,1,12.417-10.113,111.618,111.618,0,0,0-40.687-30.411l-9.911,13.214A96,96,0,0,1,249.216,273.93Z"></path><polygon points="368 192 352 192 360 202.666 368 192"></polygon><polygon points="168 176 184 176 176 165.333 168 176"></polygon><path d="M64,336a112,112,0,1,0,220.215-28.929A80.736,80.736,0,0,0,270.9,321.555,96.793,96.793,0,0,1,272,336,95.456,95.456,0,0,1,256.2,388.769a96.743,96.743,0,0,1-28.3,28,96.011,96.011,0,1,1-86.944-170.164l-9.9-13.2A111.984,111.984,0,0,0,64,336Z"></path><polygon points="216 176 232 176 224 165.333 216 176"></polygon><polygon points="160 160 144 160 152 170.666 160 160"></polygon><polygon points="176 247.015 189.754 192 162.246 192 176 247.015"></polygon><polygon points="376 208 392 208 384 197.333 376 208"></polygon><polygon points="336 279.015 349.754 224 322.246 224 336 279.015"></polygon><polygon points="328 208 344 208 336 197.333 328 208"></polygon><polygon points="320 192 304 192 312 202.666 320 192"></polygon></g></svg>