<svg xmlns="http://www.w3.org/2000/svg" viewBox="0 0 64 64" x="0px" y="0px"><g data-name="Bottle"><path d="M44,16.278V14a1,1,0,0,0,1-1A11.013,11.013,0,0,0,34,2H30A11.013,11.013,0,0,0,19,13a1,1,0,0,0,1,1v2.278A1.993,1.993,0,0,0,19,18V33.776a11.19,11.19,0,0,0,1.643,5.739A8.94,8.94,0,0,1,22,44a8.345,8.345,0,0,1-.993,3.408A19.108,19.108,0,0,0,19,55.819V57a5.006,5.006,0,0,0,5,5H40a5.006,5.006,0,0,0,5-5V55.819a19.108,19.108,0,0,0-2.007-8.411A8.345,8.345,0,0,1,42,44a8.94,8.94,0,0,1,1.357-4.485A11.19,11.19,0,0,0,45,33.776V18A1.993,1.993,0,0,0,44,16.278Zm-23,17.5V18H43V33.776c0,.074-.014.149-.016.224H21.016C21.014,33.925,21,33.85,21,33.776ZM30,4h4a9.013,9.013,0,0,1,8.945,8H21.055A9.013,9.013,0,0,1,30,4ZM42,14v2H22V14Zm-.8,34.284A17.122,17.122,0,0,1,43,55.819V57a3,3,0,0,1-3,3H24a3,3,0,0,1-3-3V55.819a17.117,17.117,0,0,1,1.806-7.536A10.136,10.136,0,0,0,24,44a10.818,10.818,0,0,0-1.643-5.515A9.657,9.657,0,0,1,21.308,36H42.692a9.657,9.657,0,0,1-1.049,2.485A10.818,10.818,0,0,0,40,44,10.132,10.132,0,0,0,41.2,48.284Z"></path></g></svg>