<svg xmlns="http://www.w3.org/2000/svg" viewBox="0 0 64 64" x="0px" y="0px"><g><path d="M52.935,16.043A7.011,7.011,0,0,0,46,10a6.937,6.937,0,0,0-4.053,1.293,11.991,11.991,0,0,0-21.53,3.6A6.986,6.986,0,0,0,10.08,20H10a8,8,0,0,0,0,16h2V34H10a6,6,0,0,1,0-12,5.485,5.485,0,0,1,.845.068,1.027,1.027,0,0,0,.8-.268A1.086,1.086,0,0,0,12,21a5,5,0,0,1,8.42-3.646,1,1,0,0,0,1.672-.611,9.988,9.988,0,0,1,18.726-3.451,1,1,0,0,0,1.6.226A5,5,0,0,1,51,17a1,1,0,0,0,1,1,8,8,0,0,1,0,16v2a10,10,0,0,0,.935-19.957Z"></path><path d="M53,50H50V27a3,3,0,0,0-3-3H17a3,3,0,0,0-3,3V50H11a1,1,0,0,0-1,1v4a3,3,0,0,0,3,3H51a3,3,0,0,0,3-3V51A1,1,0,0,0,53,50ZM16,27a1,1,0,0,1,1-1H47a1,1,0,0,1,1,1V50H16ZM29,52h6v1H29Zm23,3a1,1,0,0,1-1,1H13a1,1,0,0,1-1-1V52H27v1a2,2,0,0,0,2,2h6a2,2,0,0,0,2-2V52H52Z"></path><path d="M32,28A10,10,0,1,0,42,38,10.011,10.011,0,0,0,32,28Zm0,18a8,8,0,1,1,8-8A8.009,8.009,0,0,1,32,46Z"></path><rect x="47" y="16" width="2" height="2"></rect><rect x="43" y="16" width="2" height="2"></rect><path d="M32,12V10a7.008,7.008,0,0,0-7,7h2A5.006,5.006,0,0,1,32,12Z"></path><path d="M35.1,33.634a1,1,0,0,0-1.2.155,35.372,35.372,0,0,0-3.127,3.345,2,2,0,1,0,3.464,2h0a35.407,35.407,0,0,0,1.333-4.381A1,1,0,0,0,35.1,33.634Z"></path></g></svg>