<svg xmlns="http://www.w3.org/2000/svg" viewBox="0 0 64 64" x="0px" y="0px"><g data-name="Elearning-Book-Lesson-Audio Book-Online"><path d="M40,7V31.03A4.924,4.924,0,0,1,43,30H56V4H43A3.009,3.009,0,0,0,40,7ZM54,26H42V24H54Zm0-4H42V20H54Zm0-4H42V16H54Zm0-4H42V12H54Zm0-4H42V8H54Z"></path><polygon points="18 45.869 18 50.138 21.197 48 18 45.869"></polygon><path d="M5,60H33a1,1,0,0,0,1-1V36H4V59A1,1,0,0,0,5,60ZM19,39a9,9,0,1,1-9,9A9.01,9.01,0,0,1,19,39Z"></path><path d="M19,55a7,7,0,1,0-7-7A7.008,7.008,0,0,0,19,55Zm-3-9.131a2,2,0,0,1,3.11-1.664l3.2,2.131a2,2,0,0,1,0,3.328l-3.2,2.131A2,2,0,0,1,16,50.131Z"></path><rect x="58" y="8" width="2" height="26"></rect><path d="M56,32H43a3.014,3.014,0,0,0-2.83,2H56Z"></path><rect x="26" y="8" width="8" height="4"></rect><path d="M33,30H5a1,1,0,0,0-1,1v3H34V31A1,1,0,0,0,33,30ZM8,33H6V31H8Zm4,0H10V31h2Zm4,0H14V31h2Z"></path><path d="M35,4H22V26H20V8H18V28H33a3.009,3.009,0,0,1,3,3v3h2V7A3.009,3.009,0,0,0,35,4Zm1,22H24V24H36Zm0-4H24V20H36Zm0-4H24V16H36Zm0-5a1,1,0,0,1-1,1H25a1,1,0,0,1-1-1V7a1,1,0,0,1,1-1H35a1,1,0,0,1,1,1Z"></path><path d="M54,49H38v2H55a1,1,0,0,0,1-1V38H54Z"></path><rect x="58" y="38" width="2" height="2"></rect><rect x="58" y="42" width="2" height="2"></rect><rect x="58" y="46" width="2" height="2"></rect><rect x="38" y="53" width="2" height="2"></rect><rect x="42" y="53" width="2" height="2"></rect><rect x="46" y="53" width="2" height="2"></rect><rect x="50" y="53" width="2" height="2"></rect><rect x="54" y="53" width="2" height="2"></rect><rect x="4" y="8" width="2" height="2"></rect><rect x="4" y="12" width="2" height="2"></rect><rect x="4" y="16" width="2" height="2"></rect><rect x="4" y="20" width="2" height="2"></rect><rect x="4" y="24" width="2" height="2"></rect><path d="M10,10h4V8H9A1,1,0,0,0,8,9V26h2Z"></path><rect x="12" y="4" width="2" height="2"></rect><rect x="8" y="4" width="2" height="2"></rect></g></svg>