<svg xmlns="http://www.w3.org/2000/svg" viewBox="0 0 64 64" x="0px" y="0px"><g><path d="M52,44H35V41a1,1,0,0,0-1-1H33V38H51a1,1,0,0,0,1-1V5a3,3,0,0,0-3-3H15a3,3,0,0,0-3,3V37a1,1,0,0,0,1,1H31v2H30a1,1,0,0,0-1,1v3H12a1,1,0,0,0-1,1V61a1,1,0,0,0,1,1H52a1,1,0,0,0,1-1V45A1,1,0,0,0,52,44ZM14,5a1,1,0,0,1,1-1H49a1,1,0,0,1,1,1V36H14ZM31,42h2v2H31ZM51,60H13V46H51Z"></path><rect x="15" y="48" width="2" height="2"></rect><rect x="19" y="48" width="2" height="2"></rect><rect x="23" y="48" width="2" height="2"></rect><rect x="27" y="48" width="2" height="2"></rect><rect x="31" y="48" width="2" height="2"></rect><rect x="35" y="48" width="2" height="2"></rect><rect x="47" y="48" width="2" height="2"></rect><rect x="43" y="48" width="2" height="2"></rect><rect x="39" y="48" width="2" height="2"></rect><rect x="15" y="52" width="2" height="2"></rect><rect x="19" y="52" width="2" height="2"></rect><rect x="23" y="52" width="2" height="2"></rect><rect x="27" y="52" width="2" height="2"></rect><rect x="31" y="52" width="2" height="2"></rect><rect x="35" y="52" width="2" height="2"></rect><rect x="47" y="52" width="2" height="2"></rect><rect x="43" y="52" width="2" height="2"></rect><rect x="39" y="52" width="2" height="2"></rect><rect x="21" y="56" width="22" height="2"></rect><rect x="45" y="56" width="4" height="2"></rect><rect x="15" y="56" width="4" height="2"></rect><rect x="18" y="10" width="12" height="2"></rect><rect x="18" y="6" width="4" height="2"></rect><rect x="24" y="6" width="6" height="2"></rect><path d="M41.618,18H43V16H34.816A3,3,0,0,0,33,14.184V13H31v1.184A3,3,0,0,0,29.184,16H21v2h1.382l-3.277,6.553A1,1,0,0,0,19,25a5,5,0,0,0,10,0,1,1,0,0,0-.105-.447L25.618,18h3.566A3,3,0,0,0,31,19.816V32H26v2H38V32H33V19.816A3,3,0,0,0,34.816,18h3.566L35.1,24.553A1,1,0,0,0,35,25a5,5,0,0,0,10,0,1,1,0,0,0-.1-.447ZM24,19.236,26.382,24H21.618ZM24,28a3,3,0,0,1-2.815-2h5.63A3,3,0,0,1,24,28Zm8-10a1,1,0,1,1,1-1A1,1,0,0,1,32,18Zm8,1.236L42.382,24H37.618ZM40,28a3,3,0,0,1-2.815-2h5.63A3,3,0,0,1,40,28Z"></path><rect x="22" y="32" width="2" height="2"></rect><rect x="40" y="32" width="2" height="2"></rect><path d="M42,6a4,4,0,1,0,4,4A4,4,0,0,0,42,6Zm0,6a2,2,0,1,1,2-2A2,2,0,0,1,42,12Z"></path></g></svg>