<svg xmlns="http://www.w3.org/2000/svg" viewBox="0 0 64 64" x="0px" y="0px"><g data-name="Gun"><rect x="9" y="12" width="4" height="1"></rect><path d="M40.858,29H34.247L35.8,36H44V29H42.91A6.006,6.006,0,0,1,37,34V32A4,4,0,0,0,40.858,29Z"></path><path d="M46,49v2H60V38.3l-3.832-5.748a1,1,0,0,1,.125-1.262L60,27.586V23H10V21H44.523l-1.452-3.628,1.858-.744L46.677,21h1.846l-1.452-3.628,1.858-.744L50.677,21h1.846l-1.452-3.628,1.858-.744L54.677,21h4.7l-3-6H8v6.7L11.535,27H45a1,1,0,0,1,1,1V38h7v2H46v1h7v2H46v1h7v2H46v1h7v2ZM10,18H38v2H10Z"></path><rect x="52" y="12" width="2" height="1"></rect><rect x="4" y="17" width="2" height="2"></rect></g></svg>