<svg xmlns="http://www.w3.org/2000/svg" viewBox="0 0 64 64" x="0px" y="0px"><g><path d="M34,19v4a2.015,2.015,0,0,0,2-2A2.006,2.006,0,0,0,34,19Z"></path><rect x="24" y="52" width="10" height="8"></rect><path d="M14,17.82V24a9,9,0,0,0,18,0V17.82A33.022,33.022,0,0,1,23,19,33.022,33.022,0,0,1,14,17.82ZM17,21a2,2,0,1,1,2,2A2,2,0,0,1,17,21Zm10-2a2,2,0,1,1-2,2A2,2,0,0,1,27,19Zm-.693,8.75a5,5,0,0,1-6.614,0l1.323-1.5a3.076,3.076,0,0,0,3.968,0Z"></path><path d="M14,8.28v2.71c.16.55,3.16,2.01,9,2.01s8.84-1.46,9-2.01V8.28a3,3,0,0,0-2.41-2.94l-6-1.2a2.931,2.931,0,0,0-1.18,0l-6,1.2A3,3,0,0,0,14,8.28Z"></path><path d="M29,43V37.67l-1.19-.37a4.976,4.976,0,0,1-9.62,0L17,37.67V43a3.009,3.009,0,0,0,3,3h6A3.009,3.009,0,0,0,29,43Z"></path><path d="M10.43,14.17C13.23,15.91,17.96,17,23,17s9.77-1.09,12.57-2.83l-2.24-1.68C31.69,14.2,27.22,15,23,15s-8.69-.8-10.33-2.51Z"></path><path d="M20,34.58V36a3,3,0,0,0,6,0V34.57a10.8,10.8,0,0,1-6,.01Z"></path><rect x="12" y="52" width="10" height="8"></rect><path d="M22,48H20a5,5,0,0,1-5-5V38.3l-3,.94V50H22Z"></path><path d="M4,60h6V39.86l-1.09.34A6.964,6.964,0,0,0,4,46.88Z"></path><path d="M31,43a5,5,0,0,1-5,5H24v2H34V39.24l-3-.94Z"></path><path d="M42,46.88a6.943,6.943,0,0,0-4.91-6.67L36,39.86V60h6Z"></path><path d="M10,21a2.015,2.015,0,0,0,2,2V19A2.006,2.006,0,0,0,10,21Z"></path><path d="M61.83,32.45,58,26.7V21.82a2.988,2.988,0,0,0,0-5.64V14a5,5,0,0,0-10,0V40h2V14a3,3,0,1,1,6,0v2.18a2.988,2.988,0,0,0,0,5.64V26.7l-3.83,5.75a.963.963,0,0,0,0,1.1l3.65,5.48-2.68,4.46A1,1,0,0,0,54,45h6a1,1,0,0,0,.86-1.51l-2.68-4.46,3.65-5.48A.963.963,0,0,0,61.83,32.45ZM57,18a1,1,0,1,1-1,1A1,1,0,0,1,57,18Zm1.23,25H55.77L57,40.94ZM57,37.2,54.2,33,57,28.8,59.8,33Z"></path><rect x="47" y="46" width="4" height="14"></rect><rect x="47" y="42" width="4" height="2"></rect></g></svg>