<svg xmlns="http://www.w3.org/2000/svg" viewBox="0 0 64 64" x="0px" y="0px"><title>Like-Thumb up</title><g data-name="Like-Thumb up"><path d="M62,36a4.982,4.982,0,0,0-2.031-4A4.985,4.985,0,0,0,57,23H44V11a6,6,0,0,0-12,0V22.812a1,1,0,0,1-.521.878l-9.511,5.188A1,1,0,0,1,21.49,29H18a2,2,0,0,0-2-2H4a2,2,0,0,0-2,2V55a2,2,0,0,0,2,2H16a2,2,0,0,0,2-2h3.676a.99.99,0,0,1,.315.051l5.077,1.693A5,5,0,0,0,28.649,57H55a4.985,4.985,0,0,0,3.4-8.642,4.952,4.952,0,0,0,1-8A4.983,4.983,0,0,0,62,36ZM57,25a3,3,0,0,1,0,6H49a3,3,0,0,1,0-6ZM16,55H4V29H16Zm11.7-.154-5.077-1.692A3,3,0,0,0,21.676,53H18V31h3.49a3.008,3.008,0,0,0,1.436-.366l9.511-5.188A3,3,0,0,0,34,22.812V11a4,4,0,0,1,8,0V24A12.013,12.013,0,0,1,30,36a1,1,0,0,0,0,2A14.007,14.007,0,0,0,43.949,25h1.077a4.932,4.932,0,0,0,1,7,4.952,4.952,0,0,0-.433,7.642,4.952,4.952,0,0,0-1,8A4.934,4.934,0,0,0,43.026,55H28.649A3,3,0,0,1,27.7,54.846ZM55,55H47a3,3,0,0,1,0-6h8a3,3,0,0,1,0,6Zm1-8H48a3,3,0,0,1,0-6h8a3,3,0,0,1,0,6Zm1-8H49a3,3,0,0,1,0-6h8a3,3,0,0,1,0,6Z"></path><path d="M12.92,51.62a.8.8,0,0,0-.09-.18l-.12-.15-.15-.12a.776.776,0,0,0-.18-.09.609.609,0,0,0-.191-.06,1,1,0,0,0-.9.27,1.576,1.576,0,0,0-.12.15.757.757,0,0,0-.09.18.636.636,0,0,0-.06.18A1.355,1.355,0,0,0,11,52a.838.838,0,0,0,.08.38,1.032,1.032,0,0,0,.21.33,1.014,1.014,0,0,0,1.42,0,1.155,1.155,0,0,0,.21-.33A1,1,0,0,0,13,52a1.234,1.234,0,0,0-.021-.2A.6.6,0,0,0,12.92,51.62Z"></path></g></svg>