<svg xmlns="http://www.w3.org/2000/svg" viewBox="0 0 64 64" x="0px" y="0px"><g data-name="Mobile Shopping-Basket-Mobile Payment-Payment-Smartphone"><path d="M48,22V9a5,5,0,0,0-5-5H21a5,5,0,0,0-5,5V25.72l.86,1.44A14.993,14.993,0,0,1,19,34.88v1.45a12.047,12.047,0,0,1-1.71,6.19l-1.72-1.04A9.92,9.92,0,0,0,17,36.33V34.88a13.013,13.013,0,0,0-1.85-6.69l-1.01-1.68A1,1,0,0,1,14,26V18a2.006,2.006,0,0,0-2-2H10V47a1.033,1.033,0,0,1-.29.71L3,54.42V61H28.58l5.01-5H21a7.008,7.008,0,0,1-7-7V44h2v5a5,5,0,0,0,5,5H43a5,5,0,0,0,5-5V48a3.985,3.985,0,0,1-2.62-7,3.951,3.951,0,0,1,0-6,3.951,3.951,0,0,1,0-6A3.985,3.985,0,0,1,48,22ZM29,6h6V8H29ZM25,6h2V8H25Zm9,46H30a3,3,0,0,1,0-6h4a3,3,0,0,1,0,6ZM44.11,24.13A2.954,2.954,0,0,1,42,25h-.09l-.7,7.32A4.994,4.994,0,0,1,36.22,37H27.78a5,5,0,0,1-4.99-4.72L22.09,25H22a3.009,3.009,0,0,1-3-3,3,3,0,0,1,3-3h1.57l-.3-1.68a3.115,3.115,0,0,1-.04-.52,3,3,0,0,1,5.96-.51L29.66,19h4.68l.48-2.71a2.945,2.945,0,0,1,1.24-1.95,2.907,2.907,0,0,1,2.23-.48,2.992,2.992,0,0,1,2.48,2.94,2.922,2.922,0,0,1-.04.51L40.43,19H42a3.009,3.009,0,0,1,3,3A2.971,2.971,0,0,1,44.11,24.13Z"></path><path d="M46,26a2.006,2.006,0,0,0,2,2h4a2,2,0,0,0,0-4H48A2.006,2.006,0,0,0,46,26Z"></path><path d="M42.693,22.713A.977.977,0,0,0,43,22a1,1,0,0,0-1-1H40.076l-.354,2H42A.959.959,0,0,0,42.693,22.713Z"></path><path d="M38.755,16.978a1.066,1.066,0,0,0,.015-.178.994.994,0,0,0-.833-.975.968.968,0,0,0-.738.157,1,1,0,0,0-.414.65L35.662,23h2.03Z"></path><path d="M48,40h4a2,2,0,0,0,0-4H48a2,2,0,0,0,0,4Z"></path><path d="M48,46h4a2,2,0,0,0,0-4H48a2,2,0,0,0,0,4Z"></path><path d="M34,48H30a1,1,0,0,0,0,2h4a1,1,0,0,0,0-2Z"></path><path d="M26.309,23h2.029l-1.122-6.365a1,1,0,0,0-.415-.653.962.962,0,0,0-.729-.159,1,1,0,0,0-.842.977,1.109,1.109,0,0,0,.017.19Z"></path><path d="M24.1,25l.69,7.13A3.008,3.008,0,0,0,27.78,35h8.44a3,3,0,0,0,2.99-2.83L39.9,25ZM30,33H28V27h2Zm6,0H34V27h2Z"></path><polygon points="33.63 23 33.983 21 30.016 21 30.369 23 33.63 23"></polygon><path d="M22,23h2.278l-.353-2H22a.965.965,0,0,0-.694.287A.978.978,0,0,0,21,22,1,1,0,0,0,22,23Z"></path><path d="M48,34h4a2,2,0,0,0,0-4H48a2,2,0,0,0,0,4Z"></path></g></svg>