<svg xmlns="http://www.w3.org/2000/svg" viewBox="0 0 64 64" x="0px" y="0px"><g><path d="M27.263,6.861a6.982,6.982,0,0,1,.694-.565c.015-.011.028-.025.043-.035V4.269A2.007,2.007,0,0,0,27.212,6.9C27.228,6.888,27.247,6.876,27.263,6.861Z"></path><path d="M36,4.269V6.261c.011.007.02.017.031.025a6.962,6.962,0,0,1,.7.57c.019.017.04.03.058.047A2.007,2.007,0,0,0,36,4.269Z"></path><path d="M34.5,7.678A4.848,4.848,0,0,0,32,7a4.886,4.886,0,0,0-3.1,1.108c-.1.078-.2.154-.29.24a5.1,5.1,0,0,0-.45.489A4.953,4.953,0,0,0,27,12a5,5,0,0,0,10,0,4.911,4.911,0,0,0-1.006-2.995A4.961,4.961,0,0,0,34.5,7.678Z"></path><path d="M32,19c-9.179,0-18.21-3.715-20.465-7.989l-7.254,8.06c1.653,2.314,7.088,9.971,8.411,12.459a19.227,19.227,0,0,1,2.451,8.432C17.054,38.717,20.2,37,23,37c4.883,0,7.751,11.062,9.109,18.338C33.755,48.074,37.072,37,42,37c2.641,0,5.209,1.508,6.865,2.737a19.417,19.417,0,0,1,2.443-8.207c1.323-2.488,6.758-10.145,8.411-12.459l-7.254-8.06C50.21,15.285,41.179,19,32,19Z"></path></g></svg>