<svg xmlns="http://www.w3.org/2000/svg" viewBox="0 0 64 64" x="0px" y="0px"><g data-name="Remote Control"><path d="M59.249,38.851l-9.685-.808L42.426,27.336A3,3,0,0,0,39.93,26H23.149a3.009,3.009,0,0,0-2.591,1.488l-6.185,10.6-3.866.644A2.991,2.991,0,0,0,8,41.694V53a3,3,0,0,0,3,3h3.08a6.991,6.991,0,0,0,13.84,0H42.08a6.991,6.991,0,0,0,13.84,0H59a3,3,0,0,0,3-3V41.84A3.016,3.016,0,0,0,59.249,38.851ZM36,32h7.132l4,6H36Zm-2,6H21.618l3-6H34ZM10,53V52h3V50H10V41.694a1,1,0,0,1,.836-.986l4.329-.722a1,1,0,0,0,.7-.482L22.285,28.5a1,1,0,0,1,.864-.5H39.93a1,1,0,0,1,.832.445L41.8,30H24a1,1,0,0,0-.895.553l-4,8A1,1,0,0,0,20,40H34V54H27.92a6.991,6.991,0,0,0-13.84,0H11A1,1,0,0,1,10,53Zm11,7a5,5,0,1,1,5-5A5.006,5.006,0,0,1,21,60Zm28,0a5,5,0,1,1,5-5A5.006,5.006,0,0,1,49,60Zm10-6H55.92a6.991,6.991,0,0,0-13.84,0H36V40H48.958l10.125.844a1.006,1.006,0,0,1,.917,1V42H56a2,2,0,0,0-2,2v2a2,2,0,0,0,2,2h4v2H57v2h3v1A1,1,0,0,1,59,54Zm1-10v2H56V44Z"></path><rect x="38" y="42" width="4" height="2"></rect><rect x="22" y="42" width="4" height="2"></rect><rect x="20" y="54" width="2" height="2"></rect><rect x="48" y="54" width="2" height="2"></rect><rect x="51.172" y="27" width="5.657" height="2" transform="translate(-3.983 46.385) rotate(-45)"></rect><rect x="54" y="32" width="4" height="2"></rect><rect x="48" y="24" width="2" height="4"></rect><path d="M28,13V7a5.006,5.006,0,0,0-5-5H4A2,2,0,0,0,2,4V16a2,2,0,0,0,2,2H23A5.006,5.006,0,0,0,28,13Zm-5,3H22V11h4v2A3,3,0,0,1,23,16Zm3-9V9H22V4h1A3,3,0,0,1,26,7ZM4,4H20V16H4Z"></path><path d="M16,6H8A2,2,0,0,0,6,8v4a2,2,0,0,0,2,2h8a2,2,0,0,0,2-2V8A2,2,0,0,0,16,6ZM8,12V8h8v4Z"></path><path d="M34.121,12.122a3,3,0,0,0,0-4.244L32.707,9.293a1,1,0,0,1,0,1.414Z"></path><path d="M36.95,14.95a7.009,7.009,0,0,0,0-9.9L35.536,6.464a5.008,5.008,0,0,1,0,7.072Z"></path><path d="M38.364,16.364l1.414,1.414a11.012,11.012,0,0,0,0-15.556L38.364,3.636A9.01,9.01,0,0,1,38.364,16.364Z"></path></g></svg>