<svg xmlns="http://www.w3.org/2000/svg" viewBox="0 0 64 64" x="0px" y="0px"><g data-name="coffee cup-coffee mug-espresso-drink-coffee"><path d="M42,54a1.014,1.014,0,0,0,.95-.68c1.07-3.24,1.98-6.25,2.71-9.22A11,11,0,1,0,50,23a10.6,10.6,0,0,0-2.58.32c-.1-1.43-.24-2.9-.43-4.44A1,1,0,0,0,46,18H10a1,1,0,0,0-.99.88c-1.68,13.66.12,22.64,4.04,34.44A1.014,1.014,0,0,0,14,54h1v2H3a1,1,0,0,0-1,1,5,5,0,0,0,5,5H49a5,5,0,0,0,5-5,1,1,0,0,0-1-1H41V54Zm5.6-24.38a5.005,5.005,0,1,1-.7,8.28A61.34,61.34,0,0,0,47.6,29.62ZM46.53,40.08A7,7,0,1,0,50,27a6.944,6.944,0,0,0-2.4.44c-.01-.69-.03-1.39-.06-2.09A8.811,8.811,0,0,1,50,25a9,9,0,0,1,0,18,8.909,8.909,0,0,1-3.88-.9C46.27,41.43,46.41,40.75,46.53,40.08ZM51.83,58A3.014,3.014,0,0,1,49,60H7a3.014,3.014,0,0,1-2.83-2ZM17,56V54H39v2Zm-2.28-4c-3.66-11.17-5.26-19.4-3.83-32H45.11c1.43,12.6-.17,20.83-3.83,32Z"></path><path d="M22,16h2a2.258,2.258,0,0,1,.759-1.681,4.208,4.208,0,0,0,0-5.968,2.244,2.244,0,0,1,0-3.366A4.171,4.171,0,0,0,26,2H24a2.259,2.259,0,0,1-.76,1.683,4.212,4.212,0,0,0,0,5.969,2.243,2.243,0,0,1,0,3.365A4.164,4.164,0,0,0,22,16Z"></path><path d="M30,16h2a2.258,2.258,0,0,1,.759-1.681,4.208,4.208,0,0,0,0-5.968,2.244,2.244,0,0,1,0-3.366A4.171,4.171,0,0,0,34,2H32a2.259,2.259,0,0,1-.76,1.683,4.212,4.212,0,0,0,0,5.969,2.243,2.243,0,0,1,0,3.365A4.164,4.164,0,0,0,30,16Z"></path></g></svg>