<svg xmlns="http://www.w3.org/2000/svg" viewBox="0 0 64 64" x="0px" y="0px"><g><path d="M28.1,60l1.87-16.82L28.68,40.6l-3.1,2.21A.959.959,0,0,1,25,43a1.072,1.072,0,0,1-.46-.11A1.008,1.008,0,0,1,24,42V37.3l-6.09,1.9A6.964,6.964,0,0,0,13,45.88V60h6V45h2V60Z"></path><path d="M35,31.58A11.09,11.09,0,0,1,32,32a10.665,10.665,0,0,1-3-.43v1.3c1.02.08,2.03.13,3,.13s1.98-.05,3-.13Z"></path><path d="M15.25,29.4a1,1,0,0,0,.74,1.11A83.941,83.941,0,0,0,27,32.67V30.79A11.028,11.028,0,0,1,21.05,22H21a3.995,3.995,0,0,1-4-4c0-.13.01-.26.02-.39Z"></path><path d="M21,12H17.86l-.78,5.19A4.01,4.01,0,0,1,21,14Z"></path><path d="M43,20a2.015,2.015,0,0,0,2-2,2.006,2.006,0,0,0-2-2Z"></path><path d="M19.59,19.41A1.983,1.983,0,0,0,21,20V16a2.006,2.006,0,0,0-2,2A1.983,1.983,0,0,0,19.59,19.41Z"></path><rect x="17" y="8" width="30" height="2"></rect><path d="M36,4H28a5.01,5.01,0,0,0-4,2H40A5.01,5.01,0,0,0,36,4Z"></path><polygon points="33.88 60 32.1 44 31.9 44 30.12 60 33.88 60"></polygon><polygon points="30.33 39.43 31.62 42 32.38 42 33.67 39.43 32 38.23 30.33 39.43"></polygon><path d="M32,35c-.61,0-1.24-.02-1.87-.05l1.87.93,1.87-.93C33.24,34.98,32.61,35,32,35Z"></path><path d="M51,60V45.88a6.964,6.964,0,0,0-4.91-6.68L40,37.3V42a1.008,1.008,0,0,1-.54.89A1.072,1.072,0,0,1,39,43a.959.959,0,0,1-.58-.19l-3.1-2.21-1.29,2.58L35.9,60H43V45h2V60Z"></path><path d="M23,18a1,1,0,0,0,1,1h6a1,1,0,0,0,1-1V16a1,1,0,0,0-1-1H24a1,1,0,0,0-1,1Zm4-2a1,1,0,1,1-1,1A1,1,0,0,1,27,16Z"></path><path d="M23,21a9.007,9.007,0,0,0,.17,1.74l6.67-1.33a11.214,11.214,0,0,1,4.32,0l6.67,1.33A9.165,9.165,0,0,0,41,21v-.18A3,3,0,0,1,40,21H34a2.974,2.974,0,0,1-2-.78A2.974,2.974,0,0,1,30,21H24a3,3,0,0,1-1-.18Z"></path><path d="M23.2,12a2.829,2.829,0,0,0-.2,1v.18A3,3,0,0,1,24,13h6a2.974,2.974,0,0,1,2,.78A2.974,2.974,0,0,1,34,13h6a3,3,0,0,1,1,.18V13a2.829,2.829,0,0,0-.2-1Z"></path><polygon points="27.91 36.07 26 36.67 26 40.06 30.07 37.15 27.91 36.07"></polygon><polygon points="38 36.67 36.09 36.07 33.93 37.15 38 40.06 38 36.67"></polygon><path d="M40,15H34a1,1,0,0,0-1,1v2a1,1,0,0,0,1,1h6a1,1,0,0,0,1-1V16A1,1,0,0,0,40,15Zm-3,3a1,1,0,1,1,1-1A1,1,0,0,1,37,18Z"></path><path d="M32,30a8.925,8.925,0,0,0,5.17-1.64l-3.28-.37.22-1.98,4.96.55a9.254,9.254,0,0,0,1.15-1.9l-6.46-1.29a9.065,9.065,0,0,0-3.52,0l-6.45,1.29a9.122,9.122,0,0,0,1.14,1.9l4.96-.55.22,1.98-3.28.37A8.98,8.98,0,0,0,32,30Z"></path><path d="M46.92,17.19,46.14,12H43v2A4.01,4.01,0,0,1,46.92,17.19Z"></path><path d="M42.95,22a10.919,10.919,0,0,1-3.17,6.78A11.064,11.064,0,0,1,37,30.79v1.88a83.941,83.941,0,0,0,11.01-2.16,1,1,0,0,0,.74-1.11L46.98,17.61c.01.13.02.26.02.39a3.995,3.995,0,0,1-4,4Z"></path></g></svg>