<svg xmlns="http://www.w3.org/2000/svg" viewBox="0 0 64 64" x="0px" y="0px"><g><rect x="35" y="22" width="2" height="2"></rect><path d="M52,32a2,2,0,0,0,2-2V23a7.019,7.019,0,0,0-7-7H43a6.965,6.965,0,0,0-4.482,1.645A7.1,7.1,0,0,0,34,16H30a7.1,7.1,0,0,0-4.518,1.645A6.969,6.969,0,0,0,21,16H17a7.02,7.02,0,0,0-7,7v7a2,2,0,0,0,2,2ZM25,30V23a4.962,4.962,0,0,1,3.456-4.744L31,24.2V30Zm8,0V24.2l2.544-5.948A4.963,4.963,0,0,1,39,23v7Zm6.841-10.862a4.927,4.927,0,0,1,1.615-.882L44,24.2V30H41V23A6.987,6.987,0,0,0,39.841,19.138ZM52,23v7H46V24.2l2.544-5.948A4.963,4.963,0,0,1,52,23Zm-5.521-5L45,21.457,43.521,18Zm-13,0L32,21.457,30.521,18Zm-13,0L19,21.457,17.521,18ZM12,23a4.962,4.962,0,0,1,3.456-4.744L18,24.2V30H12Zm8,7V24.2l2.544-5.948a4.927,4.927,0,0,1,1.615.882A6.987,6.987,0,0,0,23,23v7Z"></path><path d="M37,11V9a1,1,0,0,0,1-1V7a5.006,5.006,0,0,0-5-5H31a5.006,5.006,0,0,0-5,5V8a1,1,0,0,0,1,1v2a5,5,0,0,0,10,0ZM31,4h2a3,3,0,0,1,3,3H32.236l-1.789-.895a1,1,0,0,0-1.154.188L28.586,7H28A3,3,0,0,1,31,4Zm1,10a3,3,0,0,1-3-3V9a1,1,0,0,0,.707-.293l.49-.49,1.356.678A1,1,0,0,0,32,9h3v2A3,3,0,0,1,32,14Z"></path><path d="M50,11V9a1,1,0,0,0,1-1V7a5.006,5.006,0,0,0-5-5H44a5.006,5.006,0,0,0-5,5V8a1,1,0,0,0,1,1v2a5,5,0,0,0,10,0ZM44,4h2a3,3,0,0,1,3,3H45.236l-1.789-.895a1,1,0,0,0-1.154.188L41.586,7H41A3,3,0,0,1,44,4Zm1,10a3,3,0,0,1-3-3V9a1,1,0,0,0,.707-.293l.49-.49,1.356.678A1,1,0,0,0,45,9h3v2A3,3,0,0,1,45,14Z"></path><path d="M24,11V9a1,1,0,0,0,1-1V7a5.006,5.006,0,0,0-5-5H18a5.006,5.006,0,0,0-5,5V8a1,1,0,0,0,1,1v2a5,5,0,0,0,10,0ZM18,4h2a3,3,0,0,1,3,3H19.236l-1.789-.895a1,1,0,0,0-1.154.188L15.586,7H15A3,3,0,0,1,18,4Zm1,10a3,3,0,0,1-3-3V9a1,1,0,0,0,.707-.293l.49-.49,1.356.678A1,1,0,0,0,19,9h3v2A3,3,0,0,1,19,14Z"></path><path d="M40,44H32V38a4,4,0,0,0-8,0v6.465L21.7,46H14a1,1,0,0,0-1,1V61a1,1,0,0,0,1,1H40a3,3,0,0,0,2.234-5,2.994,2.994,0,0,0,0-4,2.994,2.994,0,0,0,0-4A3,3,0,0,0,40,44ZM15,48h6V60H15Zm25,2a1,1,0,0,1,0,2,1,1,0,0,0,0,2,1,1,0,0,1,0,2,1,1,0,0,0,0,2,1,1,0,0,1,0,2H23V47.535l2.555-1.7A1,1,0,0,0,26,45V38a2,2,0,0,1,4,0v7a1,1,0,0,0,1,1h9a1,1,0,0,1,0,2,1,1,0,0,0,0,2Z"></path><rect x="15" y="36" width="2" height="2"></rect><rect x="13" y="38" width="2" height="2"></rect><rect x="15" y="40" width="2" height="2"></rect><rect x="17" y="38" width="2" height="2"></rect><rect x="6" y="45" width="2" height="2"></rect><rect x="4" y="47" width="2" height="2"></rect><rect x="6" y="49" width="2" height="2"></rect><rect x="8" y="47" width="2" height="2"></rect><rect x="45" y="36" width="2" height="2"></rect><rect x="43" y="38" width="2" height="2"></rect><rect x="45" y="40" width="2" height="2"></rect><rect x="47" y="38" width="2" height="2"></rect><rect x="53" y="45" width="2" height="2"></rect><rect x="51" y="47" width="2" height="2"></rect><rect x="53" y="49" width="2" height="2"></rect><rect x="55" y="47" width="2" height="2"></rect></g></svg>