<svg xmlns="http://www.w3.org/2000/svg" viewBox="0 0 64 64" x="0px" y="0px"><g data-name="Illustration-Design-Layer-Graphic Editor-Computer"><path d="M8,15V40h2V12.18A3.01,3.01,0,0,0,8,15Z"></path><path d="M52,5a1,1,0,0,0-1-1H13a1,1,0,0,0-1,1V8H52ZM16,7H14V5h2Zm4,0H18V5h2Zm4,0H22V5h2Z"></path><polygon points="25.88 50 25.13 56 38.87 56 38.12 50 25.88 50"></polygon><path d="M56,42H8v3a3.009,3.009,0,0,0,3,3H53a3.009,3.009,0,0,0,3-3Zm-4,4H50V44h2Z"></path><polygon points="43.838 19 35 16.054 26.162 19 35 21.946 43.838 19"></polygon><rect x="21" y="58" width="22" height="2"></rect><path d="M56,15a3.01,3.01,0,0,0-2-2.82V40h2Z"></path><rect x="12" y="10" width="4" height="30"></rect><path d="M52,40V10H18V40ZM30,36H28V34h2Zm4,0H32V34h2Zm4,0H36V34h2Zm4,0H40V34h2ZM22.684,23.948a1,1,0,0,1,0-1.9L25.839,21l-3.155-1.052a1,1,0,0,1,0-1.9l12-4a.991.991,0,0,1,.632,0l12,4a1,1,0,0,1,0,1.9L44.161,21l3.155,1.052a1,1,0,0,1,0,1.9L44.161,25l3.155,1.052a1,1,0,0,1,0,1.9l-12,4a.986.986,0,0,1-.632,0l-12-4a1,1,0,0,1,0-1.9L25.839,25Z"></path><path d="M43.838,23,41,22.054l-5.684,1.894a.986.986,0,0,1-.632,0L29,22.054,26.162,23,35,25.946Z"></path><path d="M43.838,27,41,26.054l-5.684,1.894a.986.986,0,0,1-.632,0L29,26.054,26.162,27,35,29.946Z"></path></g></svg>