<svg xmlns="http://www.w3.org/2000/svg" viewBox="0 0 64 64" x="0px" y="0px"><g><path d="M59.9,54.553,54,42.764V17a3,3,0,0,0-3-3H42v-.184A2.993,2.993,0,0,0,41,8H35a2.993,2.993,0,0,0-1,5.816V14H29v-.184A2.993,2.993,0,0,0,28,8H22a2.993,2.993,0,0,0-1,5.816V14H13a3,3,0,0,0-3,3V42.764L4.105,54.553A1,1,0,0,0,4,55v4a3,3,0,0,0,3,3H57a3,3,0,0,0,3-3V55A1,1,0,0,0,59.9,54.553ZM29,56h6v1H29ZM6.618,54l5-10H52.382l5,10ZM27.553,33.658a2.968,2.968,0,0,0-.228,1.989A7.882,7.882,0,0,1,25,36a8.009,8.009,0,0,1-8-8,7.75,7.75,0,0,1,.208-1.76,10.333,10.333,0,0,0,3.122.42,10.327,10.327,0,0,0,4.009-.72,8.294,8.294,0,0,1,3.321-.6A8.3,8.3,0,0,1,31,25.945c.112.041.234.081.35.121ZM23,19.52V14h4v5.52a1,1,0,0,0,.666.942,8.012,8.012,0,0,1,4.356,3.722c-.114-.04-.228-.078-.343-.12a10.345,10.345,0,0,0-4.019-.724,10.313,10.313,0,0,0-4,.719,8.326,8.326,0,0,1-3.332.6,8.369,8.369,0,0,1-2.435-.3,8.063,8.063,0,0,1,4.439-3.9A1,1,0,0,0,23,19.52Zm6.342,15.033L32.118,29H43.882l2.776,5.553A1,1,0,0,1,45.764,36H30.236a1,1,0,0,1-.894-1.447ZM33.118,27,35.9,21.447A1,1,0,0,0,36,21V14h4v7a1,1,0,0,0,.1.447L42.882,27ZM35,10h6a1,1,0,0,1,0,2H35a1,1,0,0,1,0-2Zm-1,6v4.764l-.779,1.558A10.029,10.029,0,0,0,29,18.841V16ZM22,10h6a1,1,0,0,1,0,2H22a1,1,0,0,1,0-2ZM12,17a1,1,0,0,1,1-1h8v2.841a10.057,10.057,0,0,0-5.4,5.773A9.771,9.771,0,0,0,15,28,10.011,10.011,0,0,0,25,38a9.81,9.81,0,0,0,3.437-.626,2.965,2.965,0,0,0,1.8.626H45.764a3,3,0,0,0,2.683-4.342L42,20.764V16h9a1,1,0,0,1,1,1V42H12ZM57,60H7a1,1,0,0,1-1-1V56H27v1a2,2,0,0,0,2,2h6a2,2,0,0,0,2-2V56H58v3A1,1,0,0,1,57,60Z"></path><rect x="12" y="50" width="2" height="2"></rect><rect x="16" y="50" width="32" height="2"></rect><rect x="50" y="50" width="2" height="2"></rect><rect x="13" y="46" width="2" height="2"></rect><rect x="17" y="46" width="4" height="2"></rect><rect x="23" y="46" width="2" height="2"></rect><rect x="27" y="46" width="2" height="2"></rect><rect x="31" y="46" width="2" height="2"></rect><rect x="35" y="46" width="2" height="2"></rect><rect x="39" y="46" width="2" height="2"></rect><rect x="45" y="46" width="2" height="2"></rect><rect x="49" y="46" width="2" height="2"></rect><rect x="20" y="29" width="2" height="2"></rect><rect x="25" y="32" width="2" height="2"></rect><rect x="26" y="27" width="2" height="2"></rect><rect x="36" y="32" width="2" height="2"></rect><rect x="40" y="31" width="2" height="2"></rect><rect x="38" y="23" width="2" height="2"></rect><rect x="23" y="21" width="2" height="2"></rect><path d="M39,5h4a2,2,0,0,0,2-2V2H43V3H39a2,2,0,0,0-2,2V6h2Z"></path><rect x="26" y="4" width="2" height="2"></rect><rect x="22" y="3" width="2" height="2"></rect></g></svg>