<svg xmlns="http://www.w3.org/2000/svg" viewBox="0 0 32 32" x="0px" y="0px"><title>File Up Arrow_12</title><g data-name="File Up Arrow"><path d="M28,1a1,1,0,0,0-1-1H5A1,1,0,0,0,4,1V31a1,1,0,0,0,1,1H21a1.008,1.008,0,0,0,.416-.091,1,1,0,0,0,.343-.259l6-7a.994.994,0,0,0,.164-.278.83.83,0,0,0,.027-.094.95.95,0,0,0,.04-.223c0-.019.01-.036.01-.055ZM6,2H26V23H21a1,1,0,0,0-1,1v6H6ZM22,25h2.826L22,28.3Z"></path><path d="M18.122,16.535l1.414-1.414-2.829-2.828a1,1,0,0,0-1.414,0l-2.829,2.828,1.414,1.414L15,15.414V21h2V15.414Z"></path><path d="M12,10h8v8H18v2h3a1,1,0,0,0,1-1V9a1,1,0,0,0-1-1H11a1,1,0,0,0-1,1V19a1,1,0,0,0,1,1h3V18H12Z"></path></g></svg>