<svg xmlns="http://www.w3.org/2000/svg" viewBox="0 0 64 64" x="0px" y="0px"><g data-name="Ecology"><path d="M37,62H27a7.008,7.008,0,0,1-7-7V47h2v8a5.006,5.006,0,0,0,5,5H37a5.006,5.006,0,0,0,5-5V7a5.006,5.006,0,0,1,5-5h3a5.006,5.006,0,0,1,5,5V32H53V7a3,3,0,0,0-3-3H47a3,3,0,0,0-3,3V55A7.008,7.008,0,0,1,37,62Z"></path><path d="M21,12.341l6.394,2.74A1,1,0,0,1,28,16v2.5l3.6,2.7a1,1,0,0,1,.4.8v4a1,1,0,0,1-.2.6l-2.48,3.306,3.388,3.388a16.972,16.972,0,0,0-8.177-28.92L21,9.32Z"></path><path d="M18,36.3l-1.832-2.748A1.006,1.006,0,0,1,16,33V30a1,1,0,0,1,.293-.707l2-2A1,1,0,0,1,19,27h4a1,1,0,0,1,.707.293l2,2A1,1,0,0,1,26,30v3a1,1,0,0,1-.553.9l-2,1A1,1,0,0,1,23,35v2.872a16.9,16.9,0,0,0,8.174-3.284l-3.881-3.881A1,1,0,0,1,27.2,29.4L30,25.667V22.5l-3.6-2.7A1,1,0,0,1,26,19V16.659l-6.394-2.74A1,1,0,0,1,19,13V9a1,1,0,0,1,.186-.581l3.107-4.353C21.865,4.033,21.437,4,21,4a16.877,16.877,0,0,0-8.515,2.309l1.139.91a1,1,0,0,1,.271.334l2,4A1,1,0,0,1,16,12v3.586l2.707,2.707A1,1,0,0,1,19,19v4a1,1,0,0,1-.485.857l-4.683,2.81L13,29.162V33a1,1,0,0,1-.293.707L11.4,35.016a16.917,16.917,0,0,0,6.6,2.7Z"></path><path d="M11,29a1,1,0,0,1,.051-.316l1-3a1,1,0,0,1,.434-.541L17,22.434v-3.02l-2.707-2.707A1,1,0,0,1,14,16V12.236L12.2,8.644,10.742,7.476A16.932,16.932,0,0,0,9.815,33.77L11,32.586Z"></path><path d="M21,38V34a1,1,0,0,1,1-1h.764L24,32.382V30.414L22.586,29H19.414L18,30.414V32.7l1.832,2.748A1.006,1.006,0,0,1,20,36v1.949C20.333,37.969,20.662,38,21,38Z"></path><path d="M26,39.31a18.461,18.461,0,0,1-10,0V42H26Z"></path><rect x="18" y="44" width="6" height="1"></rect><path d="M58,47H57v3.5a.5.5,0,0,0,1,0Z"></path><rect x="48" y="44" width="12.001" height="1"></rect><path d="M59,37a3,3,0,0,0-3-3H52a3,3,0,0,0-3,3v5H59Z"></path><path d="M51,47H50v3.5a.5.5,0,0,0,1,0Z"></path></g></svg>