<svg xmlns="http://www.w3.org/2000/svg" viewBox="0 0 64 64" x="0px" y="0px"><g><path d="M41.49,15.14a1,1,0,0,1,1.02,0L46,17.23V4H38V17.23Z"></path><rect x="48" y="4" width="12" height="8"></rect><path d="M60,40V14H48v5a.992.992,0,0,1-.51.87A.947.947,0,0,1,47,20a1,1,0,0,1-.51-.14L42,17.17l-4.49,2.69A1,1,0,0,1,36,19V14H24v5h5a5,5,0,0,1,5,5V40Zm-4-8h2v6H56Zm-4,0h2v6H52Zm-4,0h2v6H48Zm-4,0h2v2H44Zm0,4h2v2H44Z"></path><path d="M24,35a3,3,0,0,0-6,0c0,1.746,1.762,4.6,3,6.334C22.238,39.6,24,36.743,24,35Zm-4-1h2v2H20Z"></path><rect x="24" y="4" width="12" height="8"></rect><path d="M10,25H32V24a3.009,3.009,0,0,0-3-3H13a3.009,3.009,0,0,0-3,3Z"></path><path d="M12.33,54.91A2.517,2.517,0,0,0,13,55H29a3.009,3.009,0,0,0,3-3V49H15.25a3.047,3.047,0,0,1-.38,1.3l-2.62,4.54ZM20,51h2v2H20Z"></path><path d="M11.83,57.24l-1.54-1.53a1.014,1.014,0,0,1-.16-1.21l3-5.2a.987.987,0,0,0-.36-1.36,1.007,1.007,0,0,0-1.37.36l-3,5.2-1.73-1L8,50.2V42L5.8,44.93A9.077,9.077,0,0,0,4,50.33V62h9V60.07A4,4,0,0,0,11.83,57.24Z"></path><path d="M13.77,46.21a2.831,2.831,0,0,1,.89.79H32V27H10V46.84a2.921,2.921,0,0,1,1.49-.93A2.981,2.981,0,0,1,13.77,46.21ZM21,30a5.006,5.006,0,0,1,5,5c0,3.257-3.787,8.085-4.219,8.625a1,1,0,0,1-1.562,0C19.787,43.085,16,38.257,16,35A5.006,5.006,0,0,1,21,30Z"></path></g></svg>