<svg xmlns="http://www.w3.org/2000/svg" viewBox="0 0 64 64" x="0px" y="0px"><g data-name="Idea Bag"><path d="M39.435,18.739a2.985,2.985,0,0,0,.385-.752,2.883,2.883,0,0,1,1.15.458,4.4,4.4,0,0,0,2.35.751,4.46,4.46,0,0,0,.791-.072,4.2,4.2,0,0,0,2.721-1.712,2.289,2.289,0,0,1,3.33-.587,4.187,4.187,0,0,0,3.143.678l-.348-1.969a2.3,2.3,0,0,1-1.794-.441A4.258,4.258,0,0,0,45.3,16.127a2.289,2.289,0,0,1-1.536,1.028,2.016,2.016,0,0,1-.854-.019,4.037,4.037,0,0,0,1.578-.851,4.2,4.2,0,0,0,1.5-2.845,2.285,2.285,0,0,1,.816-1.658,2.247,2.247,0,0,1,1.731-.515c.03,0,.059,0,.085,0a4.17,4.17,0,0,0,3.019-.985L50.354,8.752a2.246,2.246,0,0,1-1.731.516h-.085A4.252,4.252,0,0,0,44.019,13.1a2.292,2.292,0,0,1-.816,1.658,2.23,2.23,0,0,1-1.712.515h-.06a4.687,4.687,0,0,0-1.839.25,3,3,0,0,0-1.163-1.138L42.9,5.447A1,1,0,0,0,42,4a2.583,2.583,0,0,1-1.872-.78,4.611,4.611,0,0,0-6.248,0,2.642,2.642,0,0,1-3.751,0,4.618,4.618,0,0,0-6.252,0A2.588,2.588,0,0,1,22,4a1,1,0,0,0-.895,1.447l4.466,8.932a2.967,2.967,0,0,0-1.006,4.36A21.018,21.018,0,0,0,9,39V57a5.006,5.006,0,0,0,5,5H50a5.006,5.006,0,0,0,5-5V39A21.018,21.018,0,0,0,39.435,18.739ZM23.5,5.763a5.318,5.318,0,0,0,1.626-.982,2.646,2.646,0,0,1,3.754,0,4.615,4.615,0,0,0,6.25,0,2.64,2.64,0,0,1,3.748,0,5.312,5.312,0,0,0,1.623.982L36.382,14H27.618ZM38,17a1,1,0,0,1-1,1H27a1,1,0,0,1,0-2H37A1,1,0,0,1,38,17ZM53,57a3,3,0,0,1-3,3H14a3,3,0,0,1-3-3V39A19.021,19.021,0,0,1,30,20h4A19.021,19.021,0,0,1,53,39Z"></path><path d="M41,41a9,9,0,1,0-14.379,7.194,2.966,2.966,0,0,0,1.473,4.651,4,4,0,0,0,7.812,0,2.967,2.967,0,0,0,1.474-4.651A8.939,8.939,0,0,0,41,41ZM32,54a1.993,1.993,0,0,1-1.722-1h3.444A1.993,1.993,0,0,1,32,54Zm3-3H29a1,1,0,0,1,0-2h6a1,1,0,0,1,0,2Zm.48-3.951A2.925,2.925,0,0,0,35,47H29a3.025,3.025,0,0,0-.479.048,7,7,0,1,1,6.959,0Z"></path><path d="M34,41.2l-1.168-1.752a1.039,1.039,0,0,0-1.664,0L30,41.2l-1.168-1.752-1.664,1.11,2,3a1.039,1.039,0,0,0,1.664,0L32,41.8l1.168,1.752a1,1,0,0,0,1.664,0l2-3-1.664-1.11Z"></path><rect x="31" y="26" width="2" height="4"></rect><rect x="21.808" y="29.808" width="2" height="4" transform="translate(-15.811 25.444) rotate(-45)"></rect><rect x="17" y="40" width="4" height="2"></rect><rect x="20.808" y="49.192" width="4" height="2" transform="translate(-28.811 30.828) rotate(-45)"></rect><rect x="40.192" y="48.193" width="2" height="4" transform="translate(-23.426 43.828) rotate(-45)"></rect><rect x="43" y="40" width="4" height="2"></rect><rect x="39.193" y="30.808" width="4" height="2" transform="translate(-10.426 38.444) rotate(-45)"></rect></g></svg>