<svg xmlns="http://www.w3.org/2000/svg" data-name="Amplifier-Electronic-Tube-Music Box-Audio" viewBox="0 0 64 64" x="0px" y="0px"><circle cx="54" cy="55" r="2"></circle><circle cx="10" cy="55" r="2"></circle><circle cx="32" cy="44" r="3"></circle><path d="M14,45a3,3,0,0,0-2.816,2h5.632A3,3,0,0,0,14,45Z"></path><path d="M14,43a4.982,4.982,0,0,1,4,2.031V41H10v4.031A4.982,4.982,0,0,1,14,43Z"></path><path d="M50,45a3,3,0,0,0-2.816,2h5.632A3,3,0,0,0,50,45Z"></path><rect x="49" y="33" width="8" height="2"></rect><path d="M7,28.59l.71.7A1.033,1.033,0,0,1,8,30v1h6V30a1.033,1.033,0,0,1,.29-.71l.71-.7V13a4,4,0,0,0-8,0Z"></path><path d="M50,43a4.982,4.982,0,0,1,4,2.031V41H46v4.031A4.982,4.982,0,0,1,50,43Z"></path><path d="M35,28.59l.71.7A1.033,1.033,0,0,1,36,30v1h4V30a1.033,1.033,0,0,1,.29-.71l.71-.7V20a3,3,0,0,0-6,0Z"></path><rect x="7" y="33" width="8" height="2"></rect><rect x="35" y="33" width="6" height="2"></rect><path d="M49,28.59l.71.7A1.033,1.033,0,0,1,50,30v1h6V30a1.033,1.033,0,0,1,.29-.71l.71-.7V13a4,4,0,0,0-8,0Z"></path><path d="M4,51H60V37H4ZM44,40a1,1,0,0,1,1-1H55a1,1,0,0,1,1,1v8a1,1,0,0,1-1,1H45a1,1,0,0,1-1-1ZM32,39a5,5,0,1,1-5,5A5.006,5.006,0,0,1,32,39ZM8,40a1,1,0,0,1,1-1H19a1,1,0,0,1,1,1v8a1,1,0,0,1-1,1H9a1,1,0,0,1-1-1Z"></path><rect x="23" y="33" width="6" height="2"></rect><path d="M23,28.59l.71.7A1.033,1.033,0,0,1,24,30v1h4V30a1.033,1.033,0,0,1,.29-.71l.71-.7V20a3,3,0,0,0-6,0Z"></path></svg>