<svg xmlns="http://www.w3.org/2000/svg" viewBox="0 0 64 64" x="0px" y="0px"><title>Speech Bubble_7</title><g data-name="Speech Bubble"><path d="M32,2A30,30,0,1,0,62,32,30.034,30.034,0,0,0,32,2Zm0,58A28,28,0,1,1,60,32,28.032,28.032,0,0,1,32,60Z"></path><path d="M47.731,38.317C51.682,36.057,54,32.648,54,29c0-6.617-7.626-12-17-12a23.2,23.2,0,0,0-7.087,1.081C29.284,18.031,28.648,18,28,18c-9.374,0-17,5.383-17,12,0,3.646,2.318,7.055,6.268,9.317l-4.975,4.976a1,1,0,0,0,.965,1.673L28.132,42a22.942,22.942,0,0,0,6.9-1.087c.6.05,1.212.083,1.834.087l14.874,3.966a1,1,0,0,0,.965-1.673ZM28,40a.978.978,0,0,0-.258.034l-11.4,3.04,3.306-3.3a1,1,0,0,0-.28-1.611C15.38,36.27,13,33.221,13,30c0-5.514,6.729-10,15-10s15,4.486,15,10S36.271,40,28,40Zm10.566-.618C42.479,37.182,45,33.8,45,30c0-4.843-4.093-9.015-9.959-10.909C35.686,19.035,36.338,19,37,19c8.271,0,15,4.486,15,10,0,3.223-2.38,6.272-6.367,8.156a1,1,0,0,0-.28,1.611l3.307,3.307Z"></path><path d="M35,27a3,3,0,1,0,3,3A3,3,0,0,0,35,27Zm0,4a1,1,0,1,1,1-1A1,1,0,0,1,35,31Z"></path><path d="M28,27a3,3,0,1,0,3,3A3,3,0,0,0,28,27Zm0,4a1,1,0,1,1,1-1A1,1,0,0,1,28,31Z"></path><path d="M21,27a3,3,0,1,0,3,3A3,3,0,0,0,21,27Zm0,4a1,1,0,1,1,1-1A1,1,0,0,1,21,31Z"></path></g></svg>