<svg xmlns="http://www.w3.org/2000/svg" viewBox="0 0 64 64" x="0px" y="0px"><g><path d="M59,28H50V3a1,1,0,0,0-1.949-.314L45.172,5.453l-3.14-3.015a1,1,0,0,0-1.385,0L37.51,5.453,34.371,2.438a1,1,0,0,0-1.385,0L29.845,5.454,26.7,2.438a1,1,0,0,0-1.385,0l-3.14,3.015-3.14-3.015a1,1,0,0,0-1.385,0l-3.14,3.016L11.372,2.438a1,1,0,0,0-1.384,0l-3.134,3L3.707,2.293A1,1,0,0,0,2,3V59a3,3,0,0,0,3,3H53a3,3,0,0,0,3-3V44h5a1,1,0,0,0,1-1V31A3,3,0,0,0,59,28ZM4,59V5.414L6.133,7.547a1,1,0,0,0,1.4.015l3.148-3.016,3.142,3.016a1,1,0,0,0,1.385,0l3.141-3.015,3.139,3.015a1,1,0,0,0,1.385,0l3.141-3.016,3.14,3.016a1,1,0,0,0,1.385,0l3.142-3.015,3.138,3.015a1,1,0,0,0,1.385,0L41.34,4.547l3.139,3.015a1,1,0,0,0,1.386,0L48,5.509V59a2.966,2.966,0,0,0,.184,1H5A1,1,0,0,1,4,59Zm50,0a1,1,0,0,1-1,1H51a1,1,0,0,1-1-1V30h4.184A2.966,2.966,0,0,0,54,31Zm6-17H56V31a1,1,0,0,1,1-1h2a1,1,0,0,1,1,1Z"></path><rect x="14" y="25" width="30" height="2"></rect><rect x="8" y="31" width="30" height="2"></rect><rect x="8" y="37" width="36" height="2"></rect><rect x="8" y="25" width="4" height="2"></rect><rect x="8" y="12" width="6" height="2"></rect><rect x="16" y="12" width="10" height="2"></rect><rect x="8" y="17" width="22" height="2"></rect><rect x="40" y="31" width="4" height="2"></rect><path d="M21,43H9a1,1,0,0,0-1,1v8a1,1,0,0,0,1,1H21a1,1,0,0,0,1-1V44A1,1,0,0,0,21,43Zm-1,8H10V45H20Z"></path><rect x="26" y="43" width="18" height="2"></rect><rect x="26" y="47" width="18" height="2"></rect><rect x="26" y="51" width="18" height="2"></rect></g></svg>