<svg xmlns="http://www.w3.org/2000/svg" viewBox="0 0 48 48" x="0px" y="0px"><title>Online Order</title><g data-name="Online Order"><path d="M44.1,1H3.9A2.9,2.9,0,0,0,1,3.9V32.1A2.9,2.9,0,0,0,3.9,35H17v6H16a1,1,0,0,0-1,1v3H12v2H36V45H33V42a1,1,0,0,0-1-1H31V35H44.1A2.9,2.9,0,0,0,47,32.1V3.9A2.9,2.9,0,0,0,44.1,1ZM17,45V43H31v2Zm12-4H19V35H29Zm16-8.9a.9.9,0,0,1-.9.9H3.9a.9.9,0,0,1-.9-.9V3.9A.9.9,0,0,1,3.9,3H44.1a.9.9,0,0,1,.9.9Z"></path><rect x="4" y="26" width="40" height="2"></rect><path d="M7,6H41V24h2V5a1,1,0,0,0-1-1H6A1,1,0,0,0,5,5V24H7Z"></path><path d="M27,19V11a1,1,0,0,0-1-1H16a1,1,0,0,0-1,1v3H12a1,1,0,0,0-1,1v4a1,1,0,0,0,1,1h1.092a1.483,1.483,0,0,0-.092.5,1.5,1.5,0,0,0,3,0,1.483,1.483,0,0,0-.092-.5h6.184a1.483,1.483,0,0,0-.092.5,1.5,1.5,0,0,0,3,0,1.483,1.483,0,0,0-.092-.5H26A1,1,0,0,0,27,19ZM13,16h2v2H13Zm2,4.5a.5.5,0,1,1-.5-.5A.5.5,0,0,1,15,20.5Zm9,0a.5.5,0,1,1-.5-.5A.5.5,0,0,1,24,20.5ZM25,18H17V12h8Z"></path><rect x="29" y="18" width="4" height="2"></rect><rect x="35" y="18" width="2" height="2"></rect><rect x="29" y="14" width="6" height="2"></rect></g></svg>