<svg xmlns="http://www.w3.org/2000/svg" viewBox="0 0 64 64" x="0px" y="0px"><g data-name="Finger Scan"><circle cx="35" cy="18" r="1"></circle><circle cx="15" cy="18" r="1"></circle><path d="M4,60H60V9a5.006,5.006,0,0,0-5-5H9A5.006,5.006,0,0,0,4,9Zm26.9-4.055A10.956,10.956,0,0,1,21,45V39a10.907,10.907,0,0,1,2.2-6.6l1.6,1.2A8.922,8.922,0,0,0,23,39v6a8.963,8.963,0,0,0,8.1,8.955ZM25,45V41h2v4a5,5,0,0,0,9.716,1.667l1.886.666A7,7,0,0,1,25,45Zm7-11a5.006,5.006,0,0,0-5,5H25a7,7,0,0,1,14,0v6H37V39A5.006,5.006,0,0,0,32,34Zm0,4a1,1,0,0,0-1,1v4H29V39a3,3,0,0,1,6,0v6a3,3,0,0,1-6,0h2a1,1,0,0,0,2,0V39A1,1,0,0,0,32,38Zm11,7a10.956,10.956,0,0,1-9.9,10.945l-.2-1.99A8.963,8.963,0,0,0,41,45V41h2ZM35,15a3,3,0,1,1-3,3A3,3,0,0,1,35,15Zm8,24H41a9.01,9.01,0,0,0-9-9,8.917,8.917,0,0,0-5.4,1.8l-1.2-1.6A11,11,0,0,1,43,39ZM15,11h8a7,7,0,0,1,0,14H15a7,7,0,0,1,0-14Z"></path><circle cx="23" cy="18" r="1"></circle><path d="M15,23h8a5,5,0,0,0,0-10H15a5,5,0,0,0,0,10Zm8-8a3,3,0,1,1-3,3A3,3,0,0,1,23,15Zm-8,0a3,3,0,1,1-3,3A3,3,0,0,1,15,15Z"></path></g></svg>