<svg xmlns="http://www.w3.org/2000/svg" viewBox="0 0 64 64" x="0px" y="0px"><g data-name="Working At Home-Document-Files-Folder-Home"><path d="M61.71,36.29l-4-4A1.033,1.033,0,0,0,57,32H48a2.006,2.006,0,0,0-2,2V48a2.006,2.006,0,0,0,2,2H60a2.006,2.006,0,0,0,2-2V37A1.033,1.033,0,0,0,61.71,36.29ZM57,34.41,58.59,36H57ZM60,48H48V34h7v2a2.006,2.006,0,0,0,2,2h3Z"></path><rect x="50" y="40" width="8" height="2"></rect><rect x="50" y="44" width="8" height="2"></rect><rect x="50" y="36" width="2" height="2"></rect><path d="M17.71,36.29l-4-4A1.033,1.033,0,0,0,13,32H4a2.006,2.006,0,0,0-2,2V48a2.006,2.006,0,0,0,2,2H16a2.006,2.006,0,0,0,2-2V37A1.033,1.033,0,0,0,17.71,36.29ZM13,34.41,14.59,36H13ZM16,48H4V34h7v2a2.006,2.006,0,0,0,2,2h3Z"></path><rect x="6" y="40" width="8" height="2"></rect><rect x="6" y="44" width="8" height="2"></rect><rect x="6" y="36" width="2" height="2"></rect><path d="M42,41H40V36a2.006,2.006,0,0,0-2-2H26a2.006,2.006,0,0,0-2,2H23a3.009,3.009,0,0,0-3,3V55a3.009,3.009,0,0,0,3,3H41a3.009,3.009,0,0,0,3-3V43A2.006,2.006,0,0,0,42,41ZM26,36H38V46H32.41l-4.7-4.71A1.033,1.033,0,0,0,27,41H26Zm-4,3a1,1,0,0,1,1-1h1v3H22ZM42,55a1,1,0,0,1-1,1H23a1,1,0,0,1-1-1V43h4.59l4.7,4.71A1.033,1.033,0,0,0,32,48H42Zm0-9H40V43h2Z"></path><rect x="28" y="38" width="8" height="2"></rect><rect x="32" y="42" width="4" height="2"></rect><path d="M60.99,24.89h-.01L33.93,2.3a3.005,3.005,0,0,0-3.85.01L3.1,24.95a3.071,3.071,0,0,0-.74,3.89,2.976,2.976,0,0,0,2.08,1.43,2.921,2.921,0,0,0,.5.05,2.986,2.986,0,0,0,1.93-.71L8,28.66V30h2V26.96L32,8.31,54,26.85V30h2V28.54l1.13.95a3,3,0,0,0,3.86-4.6Zm-1.17,2.94a.988.988,0,0,1-1.4.13L32.64,6.24a.987.987,0,0,0-1.29,0L5.58,28.08a.977.977,0,0,1-.81.22,1.02,1.02,0,0,1-.7-.48,1.094,1.094,0,0,1,.31-1.34L31.36,3.84A1.047,1.047,0,0,1,32,3.61a1,1,0,0,1,.64.23L59.7,26.43a.948.948,0,0,1,.35.68A.913.913,0,0,1,59.82,27.83Z"></path><path d="M56,52v7a3.009,3.009,0,0,1-3,3H11a3.009,3.009,0,0,1-3-3V52h2v7a1,1,0,0,0,1,1H53a1,1,0,0,0,1-1V52Z"></path></g></svg>