<svg xmlns="http://www.w3.org/2000/svg" viewBox="0 0 64 64" x="0px" y="0px"><g data-name="Telephone"><path d="M5,47a1,1,0,0,1,0-2,3,3,0,0,0,0-6,1,1,0,0,1,0-2,3,3,0,0,0,0-6,1,1,0,0,1,0-2,3,3,0,0,0,0-6,1,1,0,0,1,0-2h7V19H5a3,3,0,0,0,0,6,1,1,0,0,1,0,2,3,3,0,0,0,0,6,1,1,0,0,1,0,2,3,3,0,0,0,0,6,1,1,0,0,1,0,2,3,3,0,0,0,0,6h9V47Z"></path><path d="M60,22V16a9.01,9.01,0,0,0-9-9H23a9.01,9.01,0,0,0-9,9v6h7V17a3,3,0,0,1,3-3H50a3,3,0,0,1,3,3v5ZM27,10H21V8h6Zm4,0H29V8h2Z"></path><rect x="32" y="20" width="10" height="2"></rect><circle cx="30" cy="41" r="1"></circle><circle cx="35" cy="47" r="1"></circle><circle cx="42" cy="44" r="1"></circle><circle cx="33" cy="34" r="1"></circle><path d="M58,33a9.01,9.01,0,0,0-9-9H25a9.01,9.01,0,0,0-9,9V57H58ZM22,55H18V53h4Zm4,0H24V53h2Zm11-2A13,13,0,1,1,50,40,13.015,13.015,0,0,1,37,53Z"></path><path d="M37,29A11,11,0,1,0,48,40,11.013,11.013,0,0,0,37,29Zm-4,2a3,3,0,1,1-3,3A3,3,0,0,1,33,31ZM27,41a3,3,0,1,1,3,3A3,3,0,0,1,27,41Zm8,9a3,3,0,1,1,3-3A3,3,0,0,1,35,50Zm7-3a3,3,0,1,1,3-3A3,3,0,0,1,42,47Zm4-10a3,3,0,1,1-3-3A3,3,0,0,1,46,37Z"></path><circle cx="43" cy="37" r="1"></circle></g></svg>