<svg xmlns="http://www.w3.org/2000/svg" viewBox="0 0 64 64" x="0px" y="0px"><g><path d="M49,2H15a5.006,5.006,0,0,0-5,5V57a5.006,5.006,0,0,0,5,5H49a5.006,5.006,0,0,0,5-5V7A5.006,5.006,0,0,0,49,2Zm3,55a3,3,0,0,1-3,3H15a3,3,0,0,1-3-3V7a3,3,0,0,1,3-3H49a3,3,0,0,1,3,3Z"></path><path d="M23,26a6,6,0,1,0,6,6A6.006,6.006,0,0,0,23,26Zm0,10a4,4,0,1,1,4-4A4,4,0,0,1,23,36Z"></path><path d="M41,26a6,6,0,1,0,6,6A6.006,6.006,0,0,0,41,26Zm0,10a4,4,0,1,1,4-4A4,4,0,0,1,41,36Z"></path><path d="M23,42a6,6,0,1,0,6,6A6.006,6.006,0,0,0,23,42Zm0,10a4,4,0,1,1,4-4A4,4,0,0,1,23,52Z"></path><path d="M41,42a6,6,0,1,0,6,6A6.006,6.006,0,0,0,41,42Zm0,10a4,4,0,1,1,4-4A4,4,0,0,1,41,52Z"></path><path d="M23,10a6,6,0,1,0,6,6A6.006,6.006,0,0,0,23,10Zm0,10a4,4,0,1,1,4-4A4,4,0,0,1,23,20Z"></path><path d="M41,10a6,6,0,1,0,6,6A6.006,6.006,0,0,0,41,10Zm0,10a4,4,0,1,1,4-4A4,4,0,0,1,41,20Z"></path></g></svg>