<svg xmlns="http://www.w3.org/2000/svg" viewBox="0 0 64 64" x="0px" y="0px"><title>Coffee  Portafilter</title><g data-name="Coffee  Portafilter"><path d="M32,4A10,10,0,1,0,42,14,10.011,10.011,0,0,0,32,4Zm0,18a8,8,0,1,1,8-8A8.009,8.009,0,0,1,32,22Z"></path><rect x="31" y="13" width="2" height="2"></rect><rect x="31" y="9" width="2" height="2"></rect><rect x="31" y="17" width="2" height="2"></rect><rect x="35" y="13" width="2" height="2"></rect><rect x="27" y="13" width="2" height="2"></rect><rect x="27" y="9" width="2" height="2"></rect><rect x="35" y="9" width="2" height="2"></rect><rect x="27" y="17" width="2" height="2"></rect><rect x="35" y="17" width="2" height="2"></rect><path d="M45,8H43.521A12.981,12.981,0,0,0,20.479,8H19a3,3,0,0,0-3,3v6a3,3,0,0,0,3,3h1.479A13.071,13.071,0,0,0,26,25.521V28a3,3,0,0,0,2,2.816V58.55A3.453,3.453,0,0,0,31.45,62h1.1A3.453,3.453,0,0,0,36,58.55V30.816A3,3,0,0,0,38,28V25.521A13.071,13.071,0,0,0,43.521,20H45a3,3,0,0,0,3-3V11A3,3,0,0,0,45,8ZM19,18a1,1,0,0,1-1-1V11a1,1,0,0,1,1-1h.636a12.9,12.9,0,0,0,0,8ZM34,58.55A1.451,1.451,0,0,1,32.55,60h-1.1A1.451,1.451,0,0,1,30,58.55V31h4ZM36,28a1,1,0,0,1-1,1H29a1,1,0,0,1-1-1V26.364a12.9,12.9,0,0,0,8,0Zm-4-3A11,11,0,1,1,43,14,11.013,11.013,0,0,1,32,25Zm14-8a1,1,0,0,1-1,1h-.636a12.9,12.9,0,0,0,0-8H45a1,1,0,0,1,1,1Z"></path></g></svg>