<svg xmlns="http://www.w3.org/2000/svg" viewBox="0 0 64 64" x="0px" y="0px"><g data-name="Footprint"><path d="M11.08,34.788,27.2,33.377l-.057-2-4.16.364-.173-1.992,4.276-.374-.114-4.006-8.5.743L18.3,24.118l8.612-.753L26.8,19.359l-2.869.251-.174-1.992,2.986-.261-.11-3.863c0-.048-.01-.1-.012-.142l-10.186.891-.174-1.992,10.08-.882A9.955,9.955,0,0,0,24.43,7.52l-3.541.31-.174-1.992,1.773-.155a9.963,9.963,0,0,0-5.845-1.906A10.086,10.086,0,0,0,14.532,4l-.9.194A8.925,8.925,0,0,0,8.935,6.869l5.8-.508.174,1.992-7.454.652a8.9,8.9,0,0,0-.937,4.1l3.759-.329.174,1.992-3.688.323.863,3.94,10.147-.888.174,1.992L8.06,21l.863,3.941,3.4-.3.174,1.992-3.141.275.863,3.94,6.612-.578L17,32.262l-6.354.556Zm9.733-4.867.174,1.992L19,32.087,18.821,30.1Zm.948-12.129.174,1.993-1.994.174-.173-1.992ZM18.722,6.012,18.9,8,16.9,8.179l-.174-1.992Zm-6.277,8.58L12.271,12.6l1.993-.175.173,1.992Zm2.042,11.867-.174-1.992,1.993-.175.173,1.993Z"></path><path d="M20.913,54a8.011,8.011,0,0,0,7.273-8.667l-.175-1.993L12.072,44.739l.174,1.992A8,8,0,0,0,20.913,54Zm5.28-8.493.174,1.992-3.985.349-.174-1.992ZM14.412,48.549l-.174-1.992,3.986-.349L18.4,48.2Zm4.16,1.644,3.985-.348.173,1.992-3.984.349Z"></path><rect x="11.779" y="40.053" width="16" height="2" transform="translate(-3.506 1.882) rotate(-5.005)"></rect><path d="M56.189,24.925l.562-3.823c.007-.047.007-.095.013-.142l-10.187-.891.174-1.992,10.081.881a9.947,9.947,0,0,0-1.21-4.121l-3.541-.31.174-1.992,1.766.155a9.92,9.92,0,0,0-7.535-3.036l-.922.034a8.932,8.932,0,0,0-5.088,1.817l5.8.507L46.1,14l-7.454-.651a8.9,8.9,0,0,0-1.634,3.872l3.758.329L40.6,19.546l-3.689-.323.166,4.03,10.147.888-.174,1.992-9.89-.865.165,4.03,3.4.3-.174,1.992-3.142-.275.166,4.031,6.612.578-.174,1.992-6.356-.556.083,2.015,16.116,1.41.292-1.982-4.159-.364.174-1.992,4.276.374.584-3.964-8.5-.744.174-1.992,8.613.754.583-3.965-2.869-.251.174-1.992ZM48.271,12.187l1.992.174-.174,1.992L48.1,14.179ZM44.585,19.9l-1.992-.175.174-1.992,1.992.174Zm-.05,12.041-1.992-.174.174-1.992,1.992.174Zm3.636,4.334L48,38.262l-1.992-.175.174-1.992Zm2.864-9.788-1.992-.174.174-1.993,1.992.175Z"></path><path d="M52.928,50.739,36.989,49.344l-.175,1.993a8,8,0,1,0,15.94,1.395ZM38.633,53.5l.174-1.992,3.985.349-.174,1.992Zm7.621,4.683-3.984-.349.173-1.992,3.985.348Zm4.334-3.637L46.6,54.2l.173-1.993,3.986.349Z"></path><rect x="44.22" y="39.053" width="2" height="16" transform="translate(-5.595 88.001) rotate(-85)"></rect><rect x="33" y="6" width="2" height="2"></rect><rect x="39" y="2" width="2" height="2"></rect><rect x="58" y="8" width="2" height="2"></rect><rect x="58" y="43" width="2" height="2"></rect><rect x="58" y="47" width="2" height="2"></rect><rect x="4" y="33" width="2" height="2"></rect><rect x="4" y="37" width="2" height="2"></rect><rect x="26" y="58" width="2" height="2"></rect><rect x="30" y="58" width="2" height="2"></rect></g></svg>