<svg xmlns="http://www.w3.org/2000/svg" viewBox="0 0 64 64" x="0px" y="0px"><g><path d="M56.376,2.31a1.029,1.029,0,0,0-1.414,0L23.142,34.13l-1.414-1.414a1,1,0,0,0-1.414,0l-4.243,4.242a1,1,0,0,0,0,1.415l1.414,1.414L2.636,54.636a1,1,0,0,0,0,1.414l5.657,5.657a1,1,0,0,0,1.414,0L24.556,46.858l1.415,1.414a1,1,0,0,0,1.414,0l4.242-4.243a1,1,0,0,0,0-1.414L30.213,41.2l1.414-1.414,7.779,7.778a1,1,0,0,0,1.414,0L56.376,32.008a21,21,0,0,0,0-29.7Zm-6.4,7.813a10.994,10.994,0,0,1-.673,14.815L34.456,39.787l-7.071-7.071ZM10.414,49.686l1.414-1.414,4.243,4.243-1.414,1.414Zm2.829,5.657-1.414,1.414L7.586,52.515,9,51.1Zm0-8.485,1.414-1.415L18.9,49.687,17.485,51.1ZM9,59.586,4.757,55.343l1.415-1.414,4.243,4.242ZM20.313,48.272l-4.242-4.243L18.9,41.2l4.243,4.243Zm6.365-2.121-8.486-8.485,2.829-2.829,8.485,8.485ZM28.8,39.787l-4.243-4.243,1.415-1.414,4.242,4.243Zm26.163-9.193L40.113,45.444,35.87,41.2,50.719,26.352a12.979,12.979,0,0,0,.673-17.643L55.651,4.45a19,19,0,0,1-.689,26.144Z"></path></g></svg>