<svg xmlns="http://www.w3.org/2000/svg" viewBox="0 0 32 32" x="0px" y="0px"><title>File Text_30</title><g data-name="File Text"><path d="M27.99,7.945a.95.95,0,0,0-.04-.223.83.83,0,0,0-.027-.094.994.994,0,0,0-.164-.278l-6-7a.981.981,0,0,0-.306-.232c-.03-.015-.059-.026-.091-.039a1,1,0,0,0-.311-.068C21.033.01,21.018,0,21,0H5A1,1,0,0,0,4,1V31a1,1,0,0,0,1,1H27a1,1,0,0,0,1-1V8C28,7.981,27.991,7.964,27.99,7.945ZM22,3.7,24.826,7H22ZM12,2V5.586l-.293-.293a1,1,0,0,0-1.414,0L10,5.586V2ZM6,30V2H8V8a1,1,0,0,0,1.707.707L11,7.414l1.293,1.293A1,1,0,0,0,13,9a.987.987,0,0,0,.383-.076A1,1,0,0,0,14,8V2h6V8a1,1,0,0,0,1,1h5V30Z"></path><rect x="12" y="13" width="8" height="2"></rect><rect x="9" y="17" width="14" height="2"></rect><rect x="9" y="21" width="14" height="2"></rect><rect x="9" y="25" width="14" height="2"></rect></g></svg>