<svg xmlns="http://www.w3.org/2000/svg" viewBox="0 0 64 64" x="0px" y="0px"><title>Cocktail_1</title><g data-name="Cocktail"><path d="M56.924,8.617A1,1,0,0,0,56,8H47.407l4.3-4.3A1,1,0,1,0,50.289,2.29L44.579,8H44.31a5.978,5.978,0,0,0-6.62,0H8a1,1,0,0,0-.707,1.707L31,33.414V60H20a1,1,0,0,0,0,2H44a1,1,0,0,0,0-2H33V33.414L56.707,9.707A1,1,0,0,0,56.924,8.617ZM32,31.586l-4.045-4.045,1.064-1.064A5.99,5.99,0,0,0,38.188,19h6.4ZM19.414,19h8.4a5.96,5.96,0,0,0-.055,5.91l-1.216,1.217Zm16.2,0a3.987,3.987,0,1,1-5.858,5.327l0,0h0A3.945,3.945,0,0,1,30.382,19ZM43.4,16.2A4,4,0,0,1,37,13a3.975,3.975,0,0,1,1.382-3h5.236A3.975,3.975,0,0,1,45,13,4.033,4.033,0,0,1,43.4,16.2ZM35.812,10A5.958,5.958,0,0,0,35,13a6.031,6.031,0,0,0,1.542,4H36.31a5.978,5.978,0,0,0-6.62,0H17.414l-7-7Zm10.774,7H45.458A6.033,6.033,0,0,0,47,13a5.958,5.958,0,0,0-.812-3h7.4Z"></path><path d="M38.29,11.29A1.047,1.047,0,0,0,38,12a1.355,1.355,0,0,0,.02.2.636.636,0,0,0,.06.18.757.757,0,0,0,.09.18,1.576,1.576,0,0,0,.12.15,1.014,1.014,0,0,0,1.42,0l.12-.15a.8.8,0,0,0,.09-.18.6.6,0,0,0,.059-.18A1.234,1.234,0,0,0,40,12a1,1,0,0,0-1.71-.71Z"></path><path d="M30,21a1,1,0,1,0,2,0,1,1,0,0,0-.08-.38,1.155,1.155,0,0,0-.21-.33,1.047,1.047,0,0,0-1.42,0,1.155,1.155,0,0,0-.21.33A1,1,0,0,0,30,21Z"></path></g></svg>