<svg xmlns="http://www.w3.org/2000/svg" viewBox="0 0 64 64" x="0px" y="0px"><g><circle cx="19" cy="18" r="2"></circle><circle cx="27" cy="18" r="2"></circle><path d="M26.308,24.75l-1.325-1.5a3.074,3.074,0,0,1-3.966,0l-1.325,1.5a5,5,0,0,0,6.616,0Z"></path><path d="M58.72,56.21,53,44.76V39.82A3,3,0,0,0,52,34H46a3,3,0,0,0-1,5.82v4.94l-1,2V44.88a8.941,8.941,0,0,0-6.31-8.58L28,33.27V30.79A11.028,11.028,0,0,0,33.95,22H34a4,4,0,0,0,0-8V6a1,1,0,0,0-1-1H30V3a1,1,0,0,0-1-1H19a7.008,7.008,0,0,0-7,7v5a4,4,0,1,0,0,8h.05A11.028,11.028,0,0,0,18,30.79v2.48L8.31,36.3A8.941,8.941,0,0,0,2,44.88V61a1,1,0,0,0,1,1H55.15a4,4,0,0,0,3.57-5.79ZM34,16a2.006,2.006,0,0,1,2,2,2.015,2.015,0,0,1-2,2ZM12,20a2.015,2.015,0,0,1-2-2,2.006,2.006,0,0,1,2-2ZM46,36h6a1,1,0,0,1,0,2H46a1,1,0,0,1,0-2Zm.89,9.45A1,1,0,0,0,47,45V40h4v5a1,1,0,0,0,.11.45L53.38,50H44.62ZM27.45,43.83l2.26,1.51-4.8,9.61,2.7-18.23,2.1,3.15-2.42,2.42a1.046,1.046,0,0,0-.29.81A.989.989,0,0,0,27.45,43.83ZM26,33.59l-3,3-3-3V31.57a10.68,10.68,0,0,0,6,0ZM29.71,7H32v3.18A3,3,0,0,0,31,10H27.89A7.065,7.065,0,0,0,29.71,7ZM14,9a5,5,0,0,1,5-5h9V5a5,5,0,0,1-5,5H15a3,3,0,0,0-1,.18Zm0,12V13a1,1,0,0,1,1-1H31a1,1,0,0,1,1,1v8a9,9,0,0,1-18,0Zm4.39,15.72,2.7,18.23-4.8-9.61,2.26-1.51A.989.989,0,0,0,19,43.1a1.046,1.046,0,0,0-.29-.81l-2.42-2.42ZM12,60V46H10V60H4V44.88A6.964,6.964,0,0,1,8.91,38.2l7.69-2.4-2.43,3.65a1,1,0,0,0,.12,1.26l2.14,2.13-1.98,1.33a1,1,0,0,0-.34,1.28L21.38,60Zm8.43-23.15,1.86,1.86a1.014,1.014,0,0,0,1.42,0l1.86-1.86L23,54.18ZM36,60V46H34V60H24.62l7.27-14.55a1,1,0,0,0-.34-1.28l-1.98-1.33,2.14-2.13a1,1,0,0,0,.12-1.26L29.4,35.8l7.69,2.4A6.964,6.964,0,0,1,42,44.88v5.88l-2.72,5.45A3.956,3.956,0,0,0,39.4,60Zm20.85-.95a1.987,1.987,0,0,1-1.7.95H42.85a1.992,1.992,0,0,1-1.78-2.89L43.62,52H54.38l2.55,5.11A1.974,1.974,0,0,1,56.85,59.05Z"></path><rect x="48" y="56" width="2" height="2"></rect><rect x="44" y="54" width="2" height="2"></rect><rect x="52" y="54" width="2" height="2"></rect><rect x="48" y="46" width="2" height="2"></rect><rect x="50" y="30" width="2" height="2"></rect><rect x="46" y="29" width="2" height="2"></rect></g></svg>