<svg xmlns="http://www.w3.org/2000/svg" viewBox="0 0 64 64" x="0px" y="0px"><g><path d="M61.9,51.553,56,39.764V8a3,3,0,0,0-3-3H11A3,3,0,0,0,8,8V39.764L2.105,51.553A1,1,0,0,0,2,52v5a2,2,0,0,0,2,2H60a2,2,0,0,0,2-2V52A1,1,0,0,0,61.9,51.553ZM29,53h6v1H29ZM4.618,51l5-10H54.382l5,10ZM10,8a1,1,0,0,1,1-1H53a1,1,0,0,1,1,1V39H10ZM4,57V53H27v1a2,2,0,0,0,2,2h6a2,2,0,0,0,2-2V53H60v4Z"></path><rect x="10" y="47" width="2" height="2"></rect><rect x="14" y="47" width="2" height="2"></rect><rect x="18" y="47" width="28" height="2"></rect><rect x="48" y="47" width="2" height="2"></rect><rect x="52" y="47" width="2" height="2"></rect><rect x="15" y="43" width="2" height="2"></rect><rect x="11" y="43" width="2" height="2"></rect><rect x="19" y="43" width="2" height="2"></rect><rect x="23" y="43" width="2" height="2"></rect><rect x="27" y="43" width="2" height="2"></rect><rect x="31" y="43" width="2" height="2"></rect><rect x="35" y="43" width="2" height="2"></rect><rect x="39" y="43" width="2" height="2"></rect><rect x="43" y="43" width="2" height="2"></rect><rect x="47" y="43" width="2" height="2"></rect><rect x="51" y="43" width="2" height="2"></rect><path d="M25,26.071v-1.1A4.977,4.977,0,0,0,27,21V20a1,1,0,0,0,1-1V17a6,6,0,0,0-12,0v2a1,1,0,0,0,1,1v1a4.977,4.977,0,0,0,2,3.974v1.1A7.011,7.011,0,0,0,13,33v1a1,1,0,0,0,1,1H30a1,1,0,0,0,1-1V33A7.011,7.011,0,0,0,25,26.071ZM18,17a4,4,0,0,1,8,0v1h-.171a1,1,0,0,1-.708-.293l-1.414-1.414a1,1,0,0,0-1.414,0l-.829.829A3.02,3.02,0,0,1,19.343,18H18Zm1.343,3a4.966,4.966,0,0,0,3.535-1.464L23,18.414l.707.707A2.96,2.96,0,0,0,25,19.87V21a3,3,0,0,1-6,0V20ZM22,26a5,5,0,0,0,1-.1v.687l-1,1-1-1V25.9A5,5,0,0,0,22,26Zm-7,7a4.991,4.991,0,0,1,4.624-4.962l1.669,1.669a1,1,0,0,0,1.414,0l1.669-1.669A4.991,4.991,0,0,1,29,33Z"></path><path d="M52,25a4.985,4.985,0,0,0-3-4.58V18a7.008,7.008,0,0,0-7-7,7.008,7.008,0,0,0-7,7v2.422a4.984,4.984,0,0,0-.814,8.7A6.946,6.946,0,0,0,33,33v1a1,1,0,0,0,1,1H50a1,1,0,0,0,1-1V33a6.946,6.946,0,0,0-1.186-3.882A4.978,4.978,0,0,0,52,25ZM37,18a5.009,5.009,0,0,1,5-5,5.006,5.006,0,0,1,5,5v1a1,1,0,0,0-1-1h-.172a1.009,1.009,0,0,1-.707-.293l-1.414-1.414a1.029,1.029,0,0,0-1.414,0l-.828.829A2.983,2.983,0,0,1,39.343,18H38a1,1,0,0,0-1,1Zm6,8.586-1,1-1-1V25.9a5,5,0,0,0,2,0ZM42,24a3,3,0,0,1-3-3V20h.343a4.968,4.968,0,0,0,3.536-1.464L43,18.415l.707.706A2.981,2.981,0,0,0,45,19.885V21A3,3,0,0,1,42,24Zm-5.729-1.907a2.682,2.682,0,0,1,.831-.086A4.991,4.991,0,0,0,39,24.974v1.1a6.977,6.977,0,0,0-3.46,1.542,2.992,2.992,0,0,1,.731-5.52ZM35,33a4.991,4.991,0,0,1,4.624-4.962l1.669,1.669a1,1,0,0,0,1.414,0l1.669-1.669A4.991,4.991,0,0,1,49,33Zm13.46-5.387A6.977,6.977,0,0,0,45,26.071v-1.1a4.992,4.992,0,0,0,1.9-2.96,2.745,2.745,0,0,1,.858.085,2.992,2.992,0,0,1,.706,5.514Z"></path></g></svg>