<svg xmlns="http://www.w3.org/2000/svg" viewBox="0 0 64 64" x="0px" y="0px"><title>Rarrier-Construction</title><g><path d="M60,22a2,2,0,0,0,2-2V8a2,2,0,0,0-2-2H56V4a2,2,0,0,0-2-2H52a2,2,0,0,0-2,2V6H14V4a2,2,0,0,0-2-2H10A2,2,0,0,0,8,4V6H4A2,2,0,0,0,2,8V20a2,2,0,0,0,2,2H8v4H4a2,2,0,0,0-2,2V40a2,2,0,0,0,2,2H8V56H6a2,2,0,0,0-2,2v2a2,2,0,0,0,2,2H16a2,2,0,0,0,2-2V58a2,2,0,0,0-2-2H14V42H50V56H48a2,2,0,0,0-2,2v2a2,2,0,0,0,2,2H58a2,2,0,0,0,2-2V58a2,2,0,0,0-2-2H56V42h4a2,2,0,0,0,2-2V28a2,2,0,0,0-2-2H56V22Zm0-2H50.943L59.515,8H60ZM32.943,40l8.572-12h7.542L40.485,40Zm-19,0,8.572-12h8.542L22.485,40ZM50,26H14V22H50ZM31.057,8,22.485,20H13.943L22.515,8Zm18,0L40.485,20H32.943L41.515,8Zm2.458,0h5.542L48.485,20H42.943ZM30.485,20H24.943L33.515,8h5.542ZM52,4l2,0V6H52ZM10,4l2,0V6H10Zm2.057,4L4,19.279V8Zm2.458,0h5.542L11.485,20H5.943ZM10,22h2v4H10Zm2.057,6L4,39.279V28Zm2.458,0h5.542L11.485,40H5.943ZM16,60H6V58H16Zm-4-4H10V42h2ZM24.943,40l8.572-12h5.542L30.485,40Zm18,0,8.572-12h5.542L48.485,40ZM58,60H48V58H58Zm-4-4H52V42h2Zm6-16H50.943l8.572-12H60ZM54,26H52V22h2Z"></path></g></svg>