<svg xmlns="http://www.w3.org/2000/svg" viewBox="0 0 48 48" x="0px" y="0px"><title>Gift Box_1</title><g data-name="Gift Box"><path d="M43,14H5a5.006,5.006,0,0,0-5,5V35a5.006,5.006,0,0,0,5,5H17.636a24.233,24.233,0,0,1-3.343,4.293,1,1,0,1,0,1.414,1.414A27.182,27.182,0,0,0,19.975,40h8.05a27.182,27.182,0,0,0,4.268,5.707,1,1,0,0,0,1.414-1.414A24.233,24.233,0,0,1,30.364,40H43a5.006,5.006,0,0,0,5-5V19A5.006,5.006,0,0,0,43,14Zm3,5v6H39V23.55A5,5,0,0,0,32.423,18.8L26.76,20.7A5.851,5.851,0,0,0,25,20.113V16H43A3,3,0,0,1,46,19ZM26.133,29.386a4.08,4.08,0,0,1-4.267,0,4.012,4.012,0,0,1-.7-6.219,3.442,3.442,0,0,1,.654-.512c.019-.012.034-.025.054-.037A3.888,3.888,0,0,1,24,22a3.927,3.927,0,0,1,2.16.64,3.44,3.44,0,0,1,.669.523,4.022,4.022,0,0,1,0,5.67A3.9,3.9,0,0,1,26.133,29.386Zm-6.757.441L14.944,31.3A3,3,0,0,1,11,28.45v-4.9a3.008,3.008,0,0,1,2.991-3.007,3.011,3.011,0,0,1,.951.155l4.426,1.48-.008.012a6.029,6.029,0,0,0-.527.767c-.025.042-.052.083-.076.126a6.04,6.04,0,0,0-.371.81c-.02.051-.038.1-.056.155a5.992,5.992,0,0,0-.229.868L18.086,25H16a1,1,0,0,0,0,2h2.087c.011.068.031.134.045.2a5.86,5.86,0,0,0,.185.694c.024.074.044.148.071.22a5.954,5.954,0,0,0,.385.83c.027.049.061.094.09.142a5.853,5.853,0,0,0,.437.63C19.327,29.752,19.347,29.792,19.376,29.827Zm9.259-.011a6.091,6.091,0,0,0,.531-.77c.024-.042.05-.082.074-.125a6.082,6.082,0,0,0,.374-.812q.028-.077.054-.153a5.91,5.91,0,0,0,.231-.871L29.914,27H32a1,1,0,0,0,0-2H29.914l-.015-.083a5.992,5.992,0,0,0-.229-.868c-.018-.052-.036-.1-.055-.155a6.064,6.064,0,0,0-.373-.811c-.023-.042-.049-.082-.073-.123a6.084,6.084,0,0,0-.533-.774l0-.008L33.056,20.7A3,3,0,0,1,37,23.55v4.9A3,3,0,0,1,33.056,31.3l-4.429-1.474ZM5,16H23v4.11a5.719,5.719,0,0,0-1.763.584L15.575,18.8A5,5,0,0,0,9,23.55V25H2V19A3,3,0,0,1,5,16ZM5,38a3,3,0,0,1-3-3V27H9v1.45a5.011,5.011,0,0,0,4.984,5.009,5.044,5.044,0,0,0,1.591-.26l5.663-1.885c.1.052.2.114.3.161A41.927,41.927,0,0,1,18.793,38Zm18-4.633V38H21.042A43.649,43.649,0,0,0,23,33.367ZM25,38V33.367A43.649,43.649,0,0,0,26.958,38Zm18,0H29.207a41.886,41.886,0,0,1-2.743-6.525c.1-.046.2-.108.3-.161L32.425,33.2a5.044,5.044,0,0,0,1.591.26A5.011,5.011,0,0,0,39,28.45V27h7v8A3,3,0,0,1,43,38Z"></path></g></svg>