<svg xmlns="http://www.w3.org/2000/svg" viewBox="0 0 64 64" x="0px" y="0px"><g><path d="M33,59.974V33H59.974a28.193,28.193,0,0,1-.58,4.823l1.957.414A30.028,30.028,0,0,0,32,2a30,30,0,1,0,6.2,59.357L37.79,59.4A28.069,28.069,0,0,1,33,59.974ZM20.987,49.256A27.959,27.959,0,0,1,31,47.023v12.9C26.942,59.344,23.359,55.3,20.987,49.256ZM31,45.023a29.975,29.975,0,0,0-10.693,2.35A49.18,49.18,0,0,1,18.013,33H31ZM33,4.079c4.058.577,7.641,4.623,10.013,10.665A27.959,27.959,0,0,1,33,16.977Zm-2,0v12.9a27.959,27.959,0,0,1-10.013-2.233C23.359,8.7,26.942,4.656,31,4.079Zm0,14.9V31H18.013a49.18,49.18,0,0,1,2.294-14.373A29.975,29.975,0,0,0,31,18.977Zm2,0a29.975,29.975,0,0,0,10.693-2.35A49.18,49.18,0,0,1,45.987,31H33ZM59.975,31H47.987a50.754,50.754,0,0,0-2.459-15.221,29.985,29.985,0,0,0,5.9-3.918A27.914,27.914,0,0,1,59.975,31ZM49.927,10.512a27.953,27.953,0,0,1-5.09,3.371,23.581,23.581,0,0,0-5.892-9.01A27.929,27.929,0,0,1,49.927,10.512ZM19.163,13.883a27.953,27.953,0,0,1-5.09-3.371A27.929,27.929,0,0,1,25.055,4.873,23.581,23.581,0,0,0,19.163,13.883Zm-6.586-2.022a29.985,29.985,0,0,0,5.9,3.918A50.754,50.754,0,0,0,16.013,31H4.025A27.914,27.914,0,0,1,12.577,11.861ZM4.025,33H16.013a50.754,50.754,0,0,0,2.459,15.221,29.985,29.985,0,0,0-5.9,3.918A27.914,27.914,0,0,1,4.025,33ZM14.073,53.488a27.953,27.953,0,0,1,5.09-3.371,23.581,23.581,0,0,0,5.892,9.01A27.929,27.929,0,0,1,14.073,53.488Z"></path><path d="M48,34A14,14,0,1,0,62,48,14.015,14.015,0,0,0,48,34Zm0,26A12,12,0,1,1,60,48,12.013,12.013,0,0,1,48,60Z"></path><path d="M55,45H51V41a1,1,0,0,0-1-1H46a1,1,0,0,0-1,1v4H41a1,1,0,0,0-1,1v4a1,1,0,0,0,1,1h4v4a1,1,0,0,0,1,1h4a1,1,0,0,0,1-1V51h4a1,1,0,0,0,1-1V46A1,1,0,0,0,55,45Zm-1,4H50a1,1,0,0,0-1,1v4H47V50a1,1,0,0,0-1-1H42V47h4a1,1,0,0,0,1-1V42h2v4a1,1,0,0,0,1,1h4Z"></path></g></svg>