<svg xmlns="http://www.w3.org/2000/svg" viewBox="0 0 64 64" x="0px" y="0px"><g data-name="Desk Lamp-Lamp-Illumination-Light-Tools"><path d="M31.64,10.36a11.428,11.428,0,0,1,1.82,2.43l3.83-3.84a2.994,2.994,0,0,0,0-4.24,3.012,3.012,0,0,0-4.25,0L29.21,8.54A11.428,11.428,0,0,1,31.64,10.36Z"></path><path d="M54,59a1,1,0,0,0-1-1H27a1,1,0,0,0-1,1v1H54Z"></path><path d="M16.92,21.1a2.97,2.97,0,0,0-.3,1.28,3.011,3.011,0,0,0,.87,2.13,3.094,3.094,0,0,0,3.4.56Z"></path><path d="M51,55a3.009,3.009,0,0,0-3-3H32a3.009,3.009,0,0,0-3,3v1H51Z"></path><path d="M28.81,28.75a1.008,1.008,0,0,0,0-1.42L14.67,13.19a1.042,1.042,0,0,0-.71-.29,1.024,1.024,0,0,0-.71.29,1.008,1.008,0,0,0,0,1.42L27.39,28.75A1.008,1.008,0,0,0,28.81,28.75Z"></path><rect x="33" y="48" width="2" height="2"></rect><path d="M46,26a5.468,5.468,0,0,1-1-.1V50h2V25.9A5.468,5.468,0,0,1,46,26Z"></path><path d="M42.35,17.6a5.134,5.134,0,0,1,1.66-1.18l-5.68-5.68-1.42,1.42Z"></path><path d="M17.49,11.78l-.7.71L29.51,25.21l.71-.7A9,9,0,0,0,17.49,11.78Z"></path><circle cx="46" cy="21" r="3"></circle><rect x="9" y="21" width="4" height="2"></rect><rect x="11.665" y="27.376" width="4" height="2" transform="translate(-16.062 17.974) rotate(-45)"></rect><rect x="19" y="29" width="2" height="4"></rect></g></svg>