<svg xmlns="http://www.w3.org/2000/svg" viewBox="0 0 64 64" x="0px" y="0px"><g data-name="Laptop"><circle cx="44" cy="58" r="2"></circle><circle cx="20" cy="58" r="2"></circle><path d="M33,58.586V46H31V58.586l-2.293-2.293-1.414,1.414,4,4a1,1,0,0,0,1.414,0l4-4-1.414-1.414Z"></path><rect x="43" y="46" width="2" height="8"></rect><path d="M60.707,57.293l-4-4-1.414,1.414L57.586,57H48v2h9.586l-2.293,2.293,1.414,1.414,4-4A1,1,0,0,0,60.707,57.293Z"></path><rect x="19" y="46" width="2" height="8"></rect><path d="M8.707,54.707,7.293,53.293l-4,4a1,1,0,0,0,0,1.414l4,4,1.414-1.414L6.414,59H16V57H6.414Z"></path><path d="M38.92,16H36.971a15.027,15.027,0,0,1-.513,3.192,8.678,8.678,0,0,1,.746.473A6.964,6.964,0,0,0,38.92,16Z"></path><path d="M34.592,11.611a8.83,8.83,0,0,1-5.184,0A13.4,13.4,0,0,0,29.037,14h5.926A13.4,13.4,0,0,0,34.592,11.611Z"></path><path d="M33.9,9.735C33.346,8.648,32.656,8,32,8s-1.346.648-1.9,1.735a6.944,6.944,0,0,0,3.8,0Z"></path><path d="M32,18a8.971,8.971,0,0,1,2.592.389A13.4,13.4,0,0,0,34.963,16H29.037a13.4,13.4,0,0,0,.371,2.389A8.971,8.971,0,0,1,32,18Z"></path><path d="M27.542,19.192A15.027,15.027,0,0,1,27.029,16H25.08A6.964,6.964,0,0,0,26.8,19.665,8.678,8.678,0,0,1,27.542,19.192Z"></path><path d="M14,26H50V5a1,1,0,0,0-1-1H15a1,1,0,0,0-1,1ZM32,6a9,9,0,1,1-9,9A9.011,9.011,0,0,1,32,6Z"></path><path d="M27.542,10.808a8.678,8.678,0,0,1-.746-.473A6.964,6.964,0,0,0,25.08,14h1.949A15.027,15.027,0,0,1,27.542,10.808Z"></path><path d="M55.382,38l-5-10H13.618l-5,10ZM50,36H48V34h2Zm-3-6h2v2H47Zm-4,0h2v2H43Zm-4,0h2v2H39Zm-4,0h2v2H35Zm-4,0h2v2H31Zm-4,0h2v2H27Zm-4,0h2v2H23Zm-4,0h2v2H19Zm-1,4H46v2H18Zm-3-4h2v2H15Zm-1,4h2v2H14Z"></path><rect x="29" y="40" width="6" height="1"></rect><path d="M30.1,20.265C30.654,21.352,31.344,22,32,22s1.346-.648,1.9-1.735a6.944,6.944,0,0,0-3.8,0Z"></path><path d="M56,43V40H37v1a2,2,0,0,1-2,2H29a2,2,0,0,1-2-2V40H8v3a1,1,0,0,0,1,1H55A1,1,0,0,0,56,43Z"></path><path d="M38.92,14A6.964,6.964,0,0,0,37.2,10.335a8.678,8.678,0,0,1-.746.473A15.027,15.027,0,0,1,36.971,14Z"></path></g></svg>