<svg xmlns="http://www.w3.org/2000/svg" viewBox="0 0 64 64" x="0px" y="0px"><title>UPS</title><g><path d="M46,2H18a5.006,5.006,0,0,0-5,5V56a2,2,0,0,0,2,2h2v3a1,1,0,0,0,1,1h6a1,1,0,0,0,1-1V58H39v3a1,1,0,0,0,1,1h6a1,1,0,0,0,1-1V58h2a2,2,0,0,0,2-2V7A5.006,5.006,0,0,0,46,2ZM41,4l0,22H23V4ZM23,60H19V58h4Zm18-4H23V41a3,3,0,0,1,3-3H38a3,3,0,0,1,3,3Zm4,4H41V58h4Zm-2-4V41a5.006,5.006,0,0,0-5-5H26a5.006,5.006,0,0,0-5,5V56H15V7a3,3,0,0,1,3-3h3V26a2,2,0,0,0,2,2H41a2,2,0,0,0,2-2V4h3a3,3,0,0,1,3,3l0,49Z"></path><path d="M32,24a7,7,0,1,0-7-7A7.009,7.009,0,0,0,32,24Zm0-12a5,5,0,1,1-5,5A5.006,5.006,0,0,1,32,12Z"></path><path d="M34.4,41.5l-.8,1.832a4,4,0,1,1-3.2,0L29.6,41.5a6,6,0,1,0,4.8,0Z"></path><rect x="31" y="41" width="2" height="6"></rect></g></svg>