<svg xmlns="http://www.w3.org/2000/svg" viewBox="0 0 64 64" x="0px" y="0px"><g><circle cx="32" cy="42" r="5"></circle><path d="M52,46.071A7.015,7.015,0,0,0,46.071,52H52Z"></path><rect x="12" y="54" width="40" height="2"></rect><rect x="12" y="58" width="40" height="2"></rect><path d="M12,46.071V52h5.929A7.015,7.015,0,0,0,12,46.071Z"></path><path d="M52,32H46.071A7.015,7.015,0,0,0,52,37.929Z"></path><path d="M12,32v5.929A7.015,7.015,0,0,0,17.929,32Z"></path><path d="M52,39.941A9.011,9.011,0,0,1,44.059,32H19.941A9.011,9.011,0,0,1,12,39.941v4.118A9.011,9.011,0,0,1,19.941,52H44.059A9.011,9.011,0,0,1,52,44.059ZM32,49a7,7,0,1,1,7-7A7.009,7.009,0,0,1,32,49Z"></path><path d="M17,4.414l6.364,6.364,1.414-1.414L17.707,2.293a1,1,0,0,0-1.414,0L9.222,9.364l1.414,1.414Z"></path><path d="M46,6.414l6.364,6.364,1.414-1.414L46.707,4.293a1,1,0,0,0-1.414,0l-7.071,7.071,1.414,1.414Z"></path><path d="M32,14.414l4.95,4.95,1.414-1.414-5.657-5.657a1,1,0,0,0-1.414,0L25.636,17.95l1.414,1.414Z"></path><rect x="12" y="11" width="2" height="6"></rect><rect x="12" y="19" width="2" height="2"></rect><rect x="16" y="17" width="2" height="4"></rect><rect x="16" y="9" width="2" height="6"></rect><rect x="16" y="23" width="2" height="2"></rect><rect x="20" y="12" width="2" height="6"></rect><rect x="20" y="22" width="2" height="2"></rect><rect x="29" y="19" width="2" height="4"></rect><rect x="29" y="25" width="2" height="2"></rect><rect x="33" y="20" width="2" height="4"></rect><rect x="33" y="26" width="2" height="2"></rect><rect x="43" y="12" width="2" height="8"></rect><rect x="43" y="22" width="2" height="2"></rect><rect x="47" y="13" width="2" height="6"></rect><rect x="47" y="21" width="2" height="2"></rect><rect x="47" y="25" width="2" height="2"></rect></g></svg>