<svg xmlns="http://www.w3.org/2000/svg" viewBox="0 0 48 48" x="0px" y="0px"><defs><style>.cls-1{fill:#231f20;}</style></defs><title>Lecture</title><path class="cls-1" d="M30.889,1H4.028A2.031,2.031,0,0,0,2,3.028V44.972A2.031,2.031,0,0,0,4.028,47H30.889A5.116,5.116,0,0,0,36,41.889V6.111A5.116,5.116,0,0,0,30.889,1ZM10,3V7.586l-.293-.293a1,1,0,0,0-1.414,0L8,7.586V3ZM4,44.972,4.028,3H6v7a1,1,0,0,0,1.707.707L9,9.414l1.293,1.293A1,1,0,0,0,12,10V3H28V45Zm30-3.083A3.115,3.115,0,0,1,30.889,45H30V3h.889A3.115,3.115,0,0,1,34,6.111Z"></path><path class="cls-1" d="M23,15H8a1,1,0,0,0-1,1v8a1,1,0,0,0,1,1H23a1,1,0,0,0,1-1V16A1,1,0,0,0,23,15Zm-1,8H9V17H22Z"></path><rect class="cls-1" x="7" y="29" width="2" height="2"></rect><rect class="cls-1" x="11" y="29" width="13" height="2"></rect><rect class="cls-1" x="7" y="33" width="2" height="2"></rect><rect class="cls-1" x="11" y="33" width="2" height="2"></rect><rect class="cls-1" x="15" y="33" width="9" height="2"></rect><rect class="cls-1" x="7" y="37" width="17" height="2"></rect><path class="cls-1" d="M43,2H41a2,2,0,0,0-2,2V41a1,1,0,0,0,.1.447l2,4a1,1,0,0,0,1.79,0l2-4A1,1,0,0,0,45,41V4A2,2,0,0,0,43,2Zm0,2V8H41V4Zm-.618,38h-.764L41,40.764V10h2V40.764Z"></path></svg>