<svg xmlns="http://www.w3.org/2000/svg" viewBox="0 0 64 64" x="0px" y="0px"><g><rect x="22" y="20" width="2" height="2"></rect><rect x="40" y="20" width="2" height="2"></rect><rect x="36" y="20" width="2" height="2"></rect><rect x="32" y="20" width="2" height="2"></rect><rect x="22" y="31" width="2" height="2"></rect><rect x="40" y="31" width="2" height="2"></rect><rect x="36" y="31" width="2" height="2"></rect><rect x="32" y="31" width="2" height="2"></rect><rect x="22" y="42" width="2" height="2"></rect><rect x="40" y="42" width="2" height="2"></rect><rect x="36" y="42" width="2" height="2"></rect><rect x="32" y="42" width="2" height="2"></rect><path d="M51,21H48V18a2,2,0,0,0-2-2H18a2,2,0,0,0-2,2v3H13a1,1,0,0,0-1,1v8a1,1,0,0,0,1,1h3v2H13a1,1,0,0,0-1,1v8a1,1,0,0,0,1,1h3v3a2,2,0,0,0,2,2H46a2,2,0,0,0,2-2V43h3a1,1,0,0,0,1-1V34a1,1,0,0,0-1-1H48V31h3a1,1,0,0,0,1-1V22A1,1,0,0,0,51,21ZM18,18H46v6H18Zm0,28V40H46v6ZM50,35v6H48V40a2,2,0,0,0-2-2H18a2,2,0,0,0-2,2v1H14V35h2a2,2,0,0,0,2,2H46a2,2,0,0,0,2-2ZM18,35V29H46v6Zm32-6H48a2,2,0,0,0-2-2H18a2,2,0,0,0-2,2H14V23h2v1a2,2,0,0,0,2,2H46a2,2,0,0,0,2-2V23h2Z"></path><path d="M59.841,29.135A28.111,28.111,0,0,0,34.865,4.159a2.98,2.98,0,0,0-5.73,0A28.111,28.111,0,0,0,4.159,29.135a2.98,2.98,0,0,0,0,5.73A28.111,28.111,0,0,0,29.135,59.841a2.98,2.98,0,0,0,5.73,0A28.111,28.111,0,0,0,59.841,34.865a2.98,2.98,0,0,0,0-5.73ZM32,4a1,1,0,1,1-1,1A1,1,0,0,1,32,4ZM5,31a1,1,0,1,1-1,1A1,1,0,0,1,5,31ZM32,60a1,1,0,1,1,1-1A1,1,0,0,1,32,60Zm2.758-2.177a3,3,0,0,0-5.516,0A26.073,26.073,0,0,1,6.177,34.758a3,3,0,0,0,0-5.517A26.073,26.073,0,0,1,29.242,6.177a3,3,0,0,0,5.516,0A26.073,26.073,0,0,1,57.823,29.242a3,3,0,0,0,0,5.516A26.073,26.073,0,0,1,34.758,57.823ZM59,33a1,1,0,1,1,1-1A1,1,0,0,1,59,33Z"></path><rect x="15.5" y="4.153" width="2" height="2" transform="translate(-0.366 8.941) rotate(-30.002)"></rect><rect x="9.08" y="9.08" width="2" height="2" transform="translate(-4.175 10.08) rotate(-45)"></rect><rect x="4.153" y="15.5" width="2" height="2" transform="translate(-11.713 12.714) rotate(-60.005)"></rect><rect x="4.153" y="46.5" width="2" height="2" transform="translate(-23.056 8.938) rotate(-29.995)"></rect><rect x="9.08" y="52.921" width="2" height="2" transform="translate(-35.175 22.921) rotate(-45)"></rect><rect x="15.5" y="57.847" width="2" height="2" transform="translate(-42.714 43.718) rotate(-60.005)"></rect><rect x="46.5" y="57.847" width="2" height="2" transform="translate(-23.06 31.636) rotate(-30.002)"></rect><rect x="52.92" y="52.921" width="2" height="2" transform="translate(-22.335 53.92) rotate(-45)"></rect><rect x="57.847" y="46.5" width="2" height="2" transform="translate(-11.71 74.719) rotate(-60.005)"></rect><rect x="57.847" y="15.5" width="2" height="2" transform="translate(-0.367 31.628) rotate(-29.995)"></rect><rect x="52.92" y="9.08" width="2" height="2" transform="translate(8.665 41.079) rotate(-45)"></rect><rect x="46.5" y="4.153" width="2" height="2" transform="translate(19.291 43.715) rotate(-60.005)"></rect></g></svg>