<svg xmlns="http://www.w3.org/2000/svg" viewBox="0 0 64 64" x="0px" y="0px"><path d="M31,45h2a1,1,0,0,1,1,1h2a3,3,0,0,0-3-3V42H31v1a3,3,0,0,0,0,6h2a1,1,0,0,1,0,2H31a1,1,0,0,1-1-1H28a3,3,0,0,0,3,3v1h2V53a3,3,0,0,0,0-6H31a1,1,0,0,1,0-2Z"></path><path d="M60,35H4a2.006,2.006,0,0,0-2,2V59a2.006,2.006,0,0,0,2,2H60a2.006,2.006,0,0,0,2-2V37A2.006,2.006,0,0,0,60,35ZM22,55H10v2H22v2H4V53H22Zm0-4H4V49H16V47H4V45H22Zm0-12H10v2H22v2H4V37H22ZM40,59H24V37H40Zm20,0H42V57H54V55H42V53H60Zm0-12H48v2H60v2H42V45H60Zm0-4H42V41H54V39H42V37H60Z"></path><rect x="6" y="39" width="2" height="2"></rect><rect x="6" y="55" width="2" height="2"></rect><rect x="18" y="47" width="2" height="2"></rect><rect x="56" y="39" width="2" height="2"></rect><rect x="56" y="55" width="2" height="2"></rect><rect x="44" y="47" width="2" height="2"></rect><path d="M60,3H4A2.006,2.006,0,0,0,2,5V31a2.006,2.006,0,0,0,2,2H60a2.006,2.006,0,0,0,2-2V5A2.006,2.006,0,0,0,60,3ZM4,5h7.94A9.013,9.013,0,0,1,4,12.94ZM4,31V23.06A9.013,9.013,0,0,1,11.94,31Zm56,0H52.06A9.013,9.013,0,0,1,60,23.06Zm0-9.95A11.013,11.013,0,0,0,50.05,31H13.95A11.013,11.013,0,0,0,4,21.05v-6.1A11.013,11.013,0,0,0,13.95,5h36.1A11.013,11.013,0,0,0,60,14.95Zm0-8.11A9.013,9.013,0,0,1,52.06,5H60Z"></path><path d="M32,8A10,10,0,1,0,42,18,10.011,10.011,0,0,0,32,8Zm0,18a8,8,0,1,1,8-8A8.009,8.009,0,0,1,32,26Z"></path><path d="M31,15h2a1,1,0,0,1,1,1h2a3,3,0,0,0-3-3V12H31v1a3,3,0,0,0,0,6h2a1,1,0,0,1,0,2H31a1,1,0,0,1-1-1H28a3,3,0,0,0,3,3v1h2V23a3,3,0,0,0,0-6H31a1,1,0,0,1,0-2Z"></path></svg>