<svg xmlns="http://www.w3.org/2000/svg" viewBox="0 0 64 64" x="0px" y="0px"><g><path d="M11,23h2a1,1,0,0,1,1,1h2a3,3,0,0,0-3-3V20H11v1a3,3,0,0,0,0,6h2a1,1,0,0,1,0,2H11a1,1,0,0,1-1-1H8a3,3,0,0,0,3,3v1h2V31a3,3,0,0,0,0-6H11a1,1,0,0,1,0-2Z"></path><rect x="14" y="8" width="2" height="2"></rect><rect x="18" y="8" width="6" height="2"></rect><rect x="14" y="12" width="10" height="2"></rect><rect x="24" y="18" width="10" height="2"></rect><rect x="24" y="22" width="8" height="2"></rect><rect x="24" y="26" width="8" height="2"></rect><rect x="24" y="30" width="8" height="2"></rect><rect x="24" y="34" width="10" height="2"></rect><path d="M48,16A10,10,0,1,0,58,26,10.011,10.011,0,0,0,48,16Zm0,18a8,8,0,1,1,8-8A8.009,8.009,0,0,1,48,34Z"></path><path d="M62,26A14.015,14.015,0,0,0,48,12V5a3,3,0,0,0-3-3H11A3,3,0,0,0,8,5V16.841A9.978,9.978,0,0,0,6.026,34H4a2,2,0,0,0-2,2v4a1.978,1.978,0,0,0,.278,1A1.978,1.978,0,0,0,2,42v4a1.978,1.978,0,0,0,.278,1A1.978,1.978,0,0,0,2,48v4a2,2,0,0,0,2,2H8v1a3,3,0,0,0,3,3H43.1A5,5,0,0,0,53,57V39.061A14.011,14.011,0,0,0,62,26ZM40,4h2V7.7l-.168-.252a1.039,1.039,0,0,0-1.664,0L40,7.7ZM4,26a8,8,0,1,1,8,8A8.009,8.009,0,0,1,4,26ZM4,36H6v2H8V36h2v2h2V36h2v2h2V36h2v4H4V36Zm20,8V42h2v2h2V42h2v2h2V42h2v4H20V42h2v2ZM4,46V42H6v2H8V42h2v2h2V42h2v2h2V42h2v4Zm16,2h2v2h2V48h2v2h2V48h2v2h2V48h2v4H20ZM4,48H6v2H8V48h2v2h2V48h2v2h2V48h2v4H4Zm6,7V54h8a1.978,1.978,0,0,0,1-.278A1.978,1.978,0,0,0,20,54H34a2,2,0,0,0,2-2V48a1.978,1.978,0,0,0-.278-1A1.978,1.978,0,0,0,36,46V42a2,2,0,0,0-2-2H20V36a2,2,0,0,0-2-2h-.026A9.992,9.992,0,0,0,10,16.2V5a1,1,0,0,1,1-1H38v7a1,1,0,0,0,1.832.555L41,9.8l1.168,1.752A1,1,0,0,0,44,11V4h1a1,1,0,0,1,1,1v7.16a13.979,13.979,0,0,0-3,26.9V56H11A1,1,0,0,1,10,55ZM45,44h6v2H45Zm3,16a3,3,0,0,1-3-3V48h6v9A3,3,0,0,1,48,60Zm3-18H45V39.668a13.72,13.72,0,0,0,6,0Zm-3-4A12,12,0,1,1,60,26,12.013,12.013,0,0,1,48,38Z"></path><rect x="47" y="56" width="2" height="2"></rect></g></svg>