<svg xmlns="http://www.w3.org/2000/svg" viewBox="0 0 64 64" x="0px" y="0px"><g><path d="M38.019,15.4l1.7-1.7A3,3,0,1,0,38.3,12.284l-1.7,1.7-9.9-9.9a1,1,0,0,0-1.413,0,15.989,15.989,0,0,0,0,22.625c.1.095.192.179.288.271L20.18,54H15a1,1,0,0,0-1,1v6a1,1,0,0,0,1,1H45a1,1,0,0,0,1-1V55a1,1,0,0,0-1-1H38V31.319a15.878,15.878,0,0,0,9.917-4.612,1,1,0,0,0,0-1.414Zm2.274-5.1a1,1,0,1,1,0,1.414A1,1,0,0,1,40.293,10.293ZM44,60H16V56H44ZM22.22,54l5.109-25.566c.326.233.661.452,1,.659.037.022.075.041.112.063q.515.306,1.05.572c.122.06.246.115.37.173.28.13.563.254.85.368.139.055.279.109.419.16.294.107.591.2.891.292.126.038.251.079.378.114.425.115.853.217,1.287.3l.057.008c.414.075.832.13,1.252.172.144.014.288.021.433.031.19.014.379.035.57.042V54ZM36.973,29.39a13.883,13.883,0,0,1-9.646-3.514c-.212-.185-.417-.38-.62-.583a13.992,13.992,0,0,1-.683-19.064L45.771,25.976A13.881,13.881,0,0,1,36.973,29.39Z"></path><rect x="43.799" y="5.201" width="4" height="2" transform="translate(9.029 34.201) rotate(-45)"></rect><rect x="40" y="2" width="2" height="4"></rect><rect x="46" y="10" width="4" height="2"></rect></g></svg>