<svg xmlns="http://www.w3.org/2000/svg" viewBox="0 0 64 64" x="0px" y="0px"><g data-name="Customer Service-Telephone-Help-Call Center-Basket"><path d="M29.509,48.905a6.98,6.98,0,0,1-8.016,1.352,17.1,17.1,0,0,1-7.749-7.75A6.98,6.98,0,0,1,15.1,34.491L16.586,33,6.91,23.323A24.977,24.977,0,0,0,40.676,57.091L31,47.414Z"></path><path d="M45.154,54.075a.961.961,0,0,0,.34-.7,1.028,1.028,0,0,0-.3-.763l-8.99-8.99a1.021,1.021,0,0,0-1.414,0L32.414,46l10.04,10.04A24.617,24.617,0,0,0,45.154,54.075Z"></path><path d="M7.96,21.546,18,31.586l2.379-2.379a1,1,0,0,0,0-1.414L11.389,18.8a1.02,1.02,0,0,0-.721-.3h-.041a.966.966,0,0,0-.7.339A24.766,24.766,0,0,0,7.96,21.546Z"></path><path d="M34.92,16H33a.928.928,0,0,0-.69.29A.949.949,0,0,0,32,17a1,1,0,0,0,1,1h2.28Z"></path><polygon points="44.63 18 44.98 16 41.02 16 41.37 18 44.63 18"></polygon><path d="M37.31,18h2.03l-1.12-6.37a1.05,1.05,0,0,0-.42-.65,1.005,1.005,0,0,0-1.57.82,1.225,1.225,0,0,0,.02.19Z"></path><path d="M53,16H51.08l-.36,2H53a.928.928,0,0,0,.69-.29A.949.949,0,0,0,54,17,1,1,0,0,0,53,16Z"></path><path d="M49.76,11.98c0-.06.01-.11.01-.18a.987.987,0,0,0-.83-.97.961.961,0,0,0-.74.15,1.05,1.05,0,0,0-.42.65L46.66,18h2.03Z"></path><path d="M43,4A15.991,15.991,0,0,0,30.7,30.22a.991.991,0,0,1,.16.99l-1.15,3.08L33,33.06a.91.91,0,0,1,.35-.07.965.965,0,0,1,.57.18A16,16,0,1,0,43,4ZM53,20h-.09l-.7,7.32A4.994,4.994,0,0,1,47.22,32H38.78a5,5,0,0,1-4.99-4.72L33.09,20H33a3.009,3.009,0,0,1-3-3,3,3,0,0,1,3-3h1.57l-.3-1.68a3.115,3.115,0,0,1-.04-.52,3.01,3.01,0,0,1,2.49-2.95,2.94,2.94,0,0,1,2.22.49,3,3,0,0,1,1.25,1.95L40.66,14h4.68l.48-2.71a2.945,2.945,0,0,1,1.24-1.95,2.907,2.907,0,0,1,2.23-.48,2.992,2.992,0,0,1,2.48,2.94,2.922,2.922,0,0,1-.04.51L51.43,14H53a3.009,3.009,0,0,1,3,3,3,3,0,0,1-3,3Z"></path><path d="M35.79,27.13A3.008,3.008,0,0,0,38.78,30h8.44a3,3,0,0,0,2.99-2.83L50.9,20H35.1ZM45,22h2v6H45Zm-6,0h2v6H39Z"></path></g></svg>