<svg xmlns="http://www.w3.org/2000/svg" viewBox="0 0 64 64" x="0px" y="0px"><g data-name="Online Support-Ecommerce-Merchant-Chat-Operator"><path d="M52.64,38.75a1.051,1.051,0,0,0-.65-.41l-1.97-.33a2.994,2.994,0,0,0-3.47,2.43L43.8,56H29a6,6,0,0,0-6-6V43.64a9.027,9.027,0,0,0-4.53-7.81L16,34.42V31.93A8,8,0,0,0,23,24V20a4.007,4.007,0,0,0-1.71-3.27A4.949,4.949,0,0,0,23,13V11a1,1,0,0,0-1-1H11.82A3,3,0,0,0,6,11v1.12A6.978,6.978,0,0,0,4,17v2.71a5.971,5.971,0,0,0,4,9.2v4.55L4.23,35.98A4.974,4.974,0,0,0,2,40.14V61a1,1,0,0,0,1,1H46.32a3,3,0,0,0,2.96-2.48L52.8,39.5A1,1,0,0,0,52.64,38.75ZM21,24a6,6,0,0,1-9.85,4.6,6.086,6.086,0,0,0,2.21-1.49l1.09.72A.967.967,0,0,0,15,28h3V26H15.3l-.83-.55A5.922,5.922,0,0,0,15,23a6,6,0,0,0-2.7-5H19a2.006,2.006,0,0,1,2,2Zm-7,7.93v1.89l-4-.67V30.24A7.9,7.9,0,0,0,14,31.93ZM12,12h9v1a3.009,3.009,0,0,1-3,3H12ZM8,11a1,1,0,0,1,2,0v6.09a6.1,6.1,0,0,0-2,0ZM5,23a3.959,3.959,0,0,1,.8-2.4,4.032,4.032,0,0,1,4.79-1.28A4.024,4.024,0,0,1,13,23a3.849,3.849,0,0,1-.24,1.31L9.55,22.17l-1.1,1.66,3.2,2.14A3.979,3.979,0,0,1,5,23ZM9.23,35.05l5.43.91,2.81,1.61A7,7,0,0,1,21,43.64V50H10V41a3.985,3.985,0,0,0-3.74-3.97ZM4,40.14a2.993,2.993,0,0,1,1.34-2.5L6,37.2V39a2.006,2.006,0,0,1,2,2v3H4ZM21,60H4V56.97A4.924,4.924,0,0,0,7,58H21ZM7,56a3.009,3.009,0,0,1-3-3V46H8v5a1,1,0,0,0,1,1H23a4,4,0,0,1,4,4Zm40.31,3.17a1.008,1.008,0,0,1-.99.83H23V58H44.64a1,1,0,0,0,.98-.83l2.89-16.38a1,1,0,0,1,1.17-.81l.98.17Z"></path><path d="M59,2H31a3.009,3.009,0,0,0-3,3V30a3.009,3.009,0,0,0,3,3h4.47l3.7,5.55a.986.986,0,0,0,.83.44h.06a.984.984,0,0,0,.83-.55L43.62,33H59a3.009,3.009,0,0,0,3-3V5A3.009,3.009,0,0,0,59,2Zm1,28a1,1,0,0,1-1,1H43a.988.988,0,0,0-.89.55L39.88,36l-3.04-4.55a1.008,1.008,0,0,0-.83-.45H31a1,1,0,0,1-1-1V5a1,1,0,0,1,1-1H59a1,1,0,0,1,1,1Z"></path><path d="M51.24,17.99,48.45,16.6A4.967,4.967,0,0,0,50,13V7a1,1,0,0,0-1-1H43a3.009,3.009,0,0,0-3,3v4a4.967,4.967,0,0,0,1.55,3.6L38.76,18A5.038,5.038,0,0,0,36,22.47V28a1,1,0,0,0,1,1H53a1,1,0,0,0,1-1V22.47A5.064,5.064,0,0,0,51.24,17.99ZM42,9a1,1,0,0,1,1-1h5v2H43a3,3,0,0,0-1,.18Zm1,3h5v1a3,3,0,0,1-6,0A1,1,0,0,1,43,12Zm4.62,6.43a2.971,2.971,0,0,1-5.24,0l1.07-.54a.906.906,0,0,0,.16-.11,4.5,4.5,0,0,0,2.78,0,.906.906,0,0,0,.16.11ZM52,27H50V23H48v4H42V23H40v4H38V22.47a3.017,3.017,0,0,1,1.66-2.68l.93-.47a4.968,4.968,0,0,0,8.82,0l.93.46A3.044,3.044,0,0,1,52,22.47Z"></path></g></svg>