<svg xmlns="http://www.w3.org/2000/svg" viewBox="0 0 64 64" x="0px" y="0px"><g><path d="M60,32A12.01,12.01,0,0,1,48,44H45.96c.03-.33.04-.66.04-1a14.925,14.925,0,0,0-4.39-10.61l-1.42,1.42A12.888,12.888,0,0,1,44,43c0,.34-.02.67-.05,1H18.05c-.03-.33-.05-.66-.05-1A13.006,13.006,0,0,1,28.87,30.19l-2.25,3.03,1.6,1.19L31.8,29.6a1,1,0,0,0-.2-1.4l-4.82-3.58-1.19,1.6,2.73,2.03A15.011,15.011,0,0,0,16,43c0,.34.01.67.04,1H13a9,9,0,0,1-2.6-17.62.987.987,0,0,0,.71-.82A11.007,11.007,0,0,1,22,16c.15,0,.3.01.45.02l.21.01a1.035,1.035,0,0,0,.95-.53,13.985,13.985,0,0,1,26.15,3.98.994.994,0,0,0,.77.79A12.053,12.053,0,0,1,60,32Z"></path><path d="M45.96,44a14.993,14.993,0,0,1-29.92,0h2.01a12.993,12.993,0,0,0,25.91,0Z"></path></g></svg>