<svg xmlns="http://www.w3.org/2000/svg" viewBox="0 0 64 64" x="0px" y="0px"><g data-name="Zip"><path d="M28.281,38h7.441l-1.5-6H29.781ZM30,34h4v2H30Z"></path><path d="M13,60H51a1,1,0,0,0,1-1V5a1,1,0,0,0-1-1H48v9a1,1,0,0,1-.684.949A1.019,1.019,0,0,1,47,14a1,1,0,0,1-.8-.4L44,10.667,41.8,13.6A1,1,0,0,1,40,13V4H33V6h3V8H33v2h3v2H33v2h3v2H33v2h3v2H33v2h3v2H33v2h3v2H33v2h1.219a2,2,0,0,1,1.941,1.515l1.5,6A2,2,0,0,1,35.719,40H28.281a2,2,0,0,1-1.941-2.485l1.5-6A2,2,0,0,1,29.781,30H31V28H28V26h3V24H28V22h3V20H28V18h3V16H28V14h3V12H28V10h3V8H28V6h3V4H13a1,1,0,0,0-1,1V59A1,1,0,0,0,13,60Z"></path><path d="M43.2,8.4a1.036,1.036,0,0,1,1.6,0L46,10V4H42v6Z"></path></g></svg>