<svg xmlns="http://www.w3.org/2000/svg" viewBox="0 0 64 64" x="0px" y="0px"><g><path d="M21,43.97V60h6V43.97a4.884,4.884,0,0,1-6,0Z"></path><path d="M27,34.57a10.68,10.68,0,0,1-6,0V40a3,3,0,0,0,6,0Z"></path><path d="M33,24V16.96a9.468,9.468,0,0,1-6.69-3.3A19.161,19.161,0,0,1,15,17.97V24a9,9,0,0,0,18,0ZM18,21a2,2,0,1,1,2,2A2,2,0,0,1,18,21Zm6,8a5.01,5.01,0,0,1-3.532-1.458l1.4-1.424a3.082,3.082,0,0,0,4.256,0l1.4,1.424A5.01,5.01,0,0,1,24,29Zm4-6a2,2,0,1,1,2-2A2,2,0,0,1,28,23Z"></path><path d="M12.17,57.64a4.756,4.756,0,0,1,.8,2.36h5.35l-5.2-9.52a.989.989,0,0,1,.33-1.31l1.98-1.33-2.14-2.13a1,1,0,0,1-.05-1.36l3.73-4.36L9.91,42.2A6.964,6.964,0,0,0,5,48.88V60h5.97a2.655,2.655,0,0,0-.45-1.23A8.855,8.855,0,0,1,9,54a8.723,8.723,0,0,1,2.29-5.71l1.42,1.42A6.609,6.609,0,0,0,11,54,6.794,6.794,0,0,0,12.17,57.64Z"></path><path d="M31.33,6.28a15.167,15.167,0,0,1-3.13,5.54c-.13.16-.27.31-.42.47A7.75,7.75,0,0,0,34,15a1,1,0,0,1,1,1v8a11.014,11.014,0,0,1-6,9.79v.42a2.963,2.963,0,0,0,4.82-1.22,1.035,1.035,0,0,1,.64-.62,1,1,0,0,1,.87.12,2.893,2.893,0,0,0,1.46.49A2.983,2.983,0,0,1,39,32h.21a2.954,2.954,0,0,0,.28-3.67.99.99,0,0,1-.13-.88,1.035,1.035,0,0,1,.62-.64A2.968,2.968,0,0,0,42,24a3.009,3.009,0,0,0-3-3,2.876,2.876,0,0,0-.73.11.97.97,0,0,1-.87-.16,1.014,1.014,0,0,1-.4-.8V17A12.992,12.992,0,0,0,31.33,6.28Z"></path><path d="M19,40.7l-3.64,4.25,2.35,2.34a1.046,1.046,0,0,1,.29.81.989.989,0,0,1-.45.73l-2.23,1.49L19,57.08Z"></path><path d="M36,59V41.55L31.03,40l3.73,4.35a1,1,0,0,1-.05,1.36l-2.14,2.13,1.98,1.33a.989.989,0,0,1,.33,1.31L29.68,60h6.5A3,3,0,0,1,36,59Z"></path><path d="M8.02,26.81a1.035,1.035,0,0,1,.62.64.99.99,0,0,1-.13.88A2.964,2.964,0,0,0,8,30a3.009,3.009,0,0,0,3,3,2.911,2.911,0,0,0,1.67-.51.993.993,0,0,1,.87-.12,1.035,1.035,0,0,1,.64.62A2.963,2.963,0,0,0,19,34.21v-.42A11.014,11.014,0,0,1,13,24V17a1,1,0,0,1,1-1,17.117,17.117,0,0,0,11.83-4.59,11.815,11.815,0,0,0,.86-.9,13.147,13.147,0,0,0,2.83-5.25A12.978,12.978,0,0,0,11,17v3.15a1.014,1.014,0,0,1-.4.8.97.97,0,0,1-.87.16A2.876,2.876,0,0,0,9,21a3.009,3.009,0,0,0-3,3A2.968,2.968,0,0,0,8.02,26.81Z"></path><path d="M32.64,44.95,29,40.7V57.08l3.68-6.76-2.23-1.49A.989.989,0,0,1,30,48.1a1.046,1.046,0,0,1,.29-.81Z"></path><polygon points="56.63 41.78 50.25 52.83 50.12 55.06 51.98 53.83 58.37 42.78 56.63 41.78"></polygon><path d="M56,59V50.88l-2.4,4.16a1.009,1.009,0,0,1-.32.33l-3.73,2.46A1,1,0,0,1,48,56.94l.27-4.46a.942.942,0,0,1,.13-.44L56,38.87V35a1,1,0,0,0-1-1H39a1,1,0,0,0-1,1V59a1,1,0,0,0,1,1H55A1,1,0,0,0,56,59ZM44,36H54v2H44Zm-4,0h2v2H40Zm0,4H54v2H40Zm0,4H50v2H40Zm0,4h8v2H40Zm6,10H40V56h6Zm0-4H40V52h6Z"></path><path d="M59.87,40.18a1,1,0,1,0-1.74-1l-.5.87,1.74,1Z"></path></g></svg>