<svg xmlns="http://www.w3.org/2000/svg" viewBox="0 0 64 64" x="0px" y="0px"><g data-name="Presentaion person profile"><polygon points="50 20 50 18 24 18 24 20 45 20 50 20"></polygon><rect x="24" y="34" width="14" height="2"></rect><rect x="24" y="22" width="19" height="2"></rect><polygon points="24 38 24 40 48 40 48 38 40 38 24 38"></polygon><rect x="23" y="58" width="18" height="2"></rect><rect x="30" y="4" width="4" height="2"></rect><rect x="4" y="8" width="56" height="2"></rect><rect x="30" y="50" width="4" height="6"></rect><rect x="4" y="46" width="56" height="2"></rect><circle cx="14" cy="32" r="1"></circle><path d="M15,37H13a1,1,0,0,0-1,1v3h4V38A1,1,0,0,0,15,37Z"></path><path d="M15,21H13a1,1,0,0,0-1,1v3h4V22A1,1,0,0,0,15,21Z"></path><path d="M6,44H58V12H6ZM22,16H52v6H45v4H22Zm0,16H40v4H50v6H22ZM10,22a3,3,0,0,1,3-3h1a3,3,0,1,1,3-3,3,3,0,0,1-3,3h1a3,3,0,0,1,3,3v5H10Zm0,16a3,3,0,0,1,3-3h1a3,3,0,1,1,3-3,3,3,0,0,1-3,3h1a3,3,0,0,1,3,3v5H10Z"></path><circle cx="14" cy="16" r="1"></circle></g></svg>