<svg xmlns="http://www.w3.org/2000/svg" viewBox="0 0 64 64" x="0px" y="0px"><title>Safe</title><g><path d="M26.87,32.553,31.553,34.9a1,1,0,0,0,.894,0l4.683-2.342A6.963,6.963,0,0,0,41,26.292V15a1,1,0,0,0-.649-.937l-8-3a1.009,1.009,0,0,0-.7,0l-8,3A1,1,0,0,0,23,15V26.292A6.963,6.963,0,0,0,26.87,32.553ZM25,15.693l7-2.625,7,2.625v10.6a4.972,4.972,0,0,1-2.764,4.472L32,32.882l-4.236-2.118A4.972,4.972,0,0,1,25,26.292Z"></path><path d="M30,27a1,1,0,0,0,.707-.293l7.071-7.071-1.414-1.414L30,24.586l-2.122-2.122-1.414,1.414,2.829,2.829A1,1,0,0,0,30,27Z"></path><path d="M59,2H5A3,3,0,0,0,2,5V45a3,3,0,0,0,3,3H22.9l-.8,8H19a1,1,0,0,0-1,1v3H16v2H48V60H46V57a1,1,0,0,0-1-1H41.905l-.8-8H59a3,3,0,0,0,3-3V5A3,3,0,0,0,59,2ZM44,58v2H20V58ZM24.105,56l.8-8H39.1l.8,8ZM60,45a1,1,0,0,1-1,1H5a1,1,0,0,1-1-1V5A1,1,0,0,1,5,4H59a1,1,0,0,1,1,1Z"></path><path d="M56,6H8A2,2,0,0,0,6,8V39a1,1,0,0,0,1,1H57a1,1,0,0,0,1-1V8A2,2,0,0,0,56,6Zm0,32H8V8H56Z"></path><rect x="31" y="42" width="2" height="2"></rect></g></svg>