<svg xmlns="http://www.w3.org/2000/svg" viewBox="0 0 64 64" x="0px" y="0px"><g><path d="M55.707,56.293l-6-6A1,1,0,0,0,49,50H19V48a3,3,0,0,0-3-3H10a1,1,0,0,1,0-2h6a3,3,0,0,0,3-3V38h7v4H22a1,1,0,0,0-1,1v4a1,1,0,0,0,1,1H42a1,1,0,0,0,1-1V43a1,1,0,0,0-1-1H38V38H52a3,3,0,0,0,3-3V9a3,3,0,0,0-3-3H46V8h6a1,1,0,0,1,1,1V30H43v2H53v3a1,1,0,0,1-1,1H12a1,1,0,0,1-1-1V32H21V30H11V9a1,1,0,0,1,1-1h6V6H12A3,3,0,0,0,9,9V35a3,3,0,0,0,3,3h5v2a1,1,0,0,1-1,1H10a3,3,0,0,0,0,6h6a1,1,0,0,1,1,1v2H15a1,1,0,0,0-.707.293l-6,6A1,1,0,0,0,8,57v3a2,2,0,0,0,2,2H54a2,2,0,0,0,2-2V57A1,1,0,0,0,55.707,56.293ZM41,46H23V44H41Zm-5-4H28V38h8ZM15.414,52H48.586l4,4H11.414ZM10,60V58H54v2Z"></path><rect x="16" y="53" width="2" height="2"></rect><rect x="20" y="53" width="2" height="2"></rect><rect x="42" y="53" width="2" height="2"></rect><rect x="24" y="53" width="16" height="2"></rect><rect x="46" y="53" width="2" height="2"></rect><rect x="47" y="33" width="2" height="2"></rect><path d="M32,34A16,16,0,1,0,16,18,16.019,16.019,0,0,0,32,34ZM32,4A14,14,0,1,1,18,18,14.015,14.015,0,0,1,32,4Z"></path><path d="M24,16h.074L25,28.077A1,1,0,0,0,26,29H38a1,1,0,0,0,1-.923L39.926,16H40a2,2,0,0,0,2-2V12a2,2,0,0,0-2-2H35.858a3.981,3.981,0,0,0-7.716,0H24a2,2,0,0,0-2,2v2A2,2,0,0,0,24,16ZM37.074,27H26.926L26.08,16H37.92ZM32,9a1.993,1.993,0,0,1,1.722,1H30.278A1.993,1.993,0,0,1,32,9Zm-8,3H40v2H24Z"></path><rect x="31" y="18" width="2" height="7"></rect><rect x="34" y="18" width="2" height="7"></rect><rect x="28" y="18" width="2" height="7"></rect></g></svg>