<svg xmlns="http://www.w3.org/2000/svg" viewBox="0 0 64 64" x="0px" y="0px"><g data-name="Power Off-Shutdown-Smartphone-Mobile-App"><path d="M49,12H15V44.659l2.437-4.221A4,4,0,0,1,21.99,38.6a12.1,12.1,0,1,1,2.8,2.97,3.961,3.961,0,0,1-.428,2.865l-3.257,5.641L21.877,52H49ZM19,23H17V21h2Zm3-7H19v3H17V15a1,1,0,0,1,1-1h4Z"></path><path d="M49,54H22.6a10.954,10.954,0,0,1,.4,2.926v1.3A10.985,10.985,0,0,1,22.846,60H44a5.006,5.006,0,0,0,5-5ZM34,58H30V56h4Z"></path><path d="M32,42A10,10,0,1,0,22,32,10.011,10.011,0,0,0,32,42ZM31,25a1,1,0,0,1,2,0v6a1,1,0,0,1-2,0Zm-2.6,2.2a1,1,0,1,1,1.2,1.6,4,4,0,1,0,4.8,0,1,1,0,0,1,1.2-1.6,6,6,0,1,1-7.2,0Z"></path><path d="M49,9a5.006,5.006,0,0,0-5-5H20a5.006,5.006,0,0,0-5,5v1H49ZM27,8H25V6h2Zm8,0H29V6h6Z"></path><path d="M21,58.23v-1.3a8.967,8.967,0,0,0-.644-3.343l-1.285-3.212a1,1,0,0,1,.063-.871l3.5-6.062a2,2,0,0,0-3.465-2l-5,8.66-1.733-1L13,48.123V35.15l-4.506,7.8a14.9,14.9,0,0,0-1.92,9.16L7.561,61H20.555A8.923,8.923,0,0,0,21,58.23Z"></path></g></svg>