<svg xmlns="http://www.w3.org/2000/svg" viewBox="0 0 64 64" x="0px" y="0px"><g><circle cx="21" cy="29" r="1"></circle><path d="M56,4a4,4,0,0,0-4,4v4h8V8A4,4,0,0,0,56,4Z"></path><circle cx="35" cy="20" r="1"></circle><path d="M50,8a5.969,5.969,0,0,1,1.54-4H18a4,4,0,0,0-4,4V50H41a1,1,0,0,1,1,1v5a4,4,0,0,0,8,0ZM35,17a3,3,0,1,1-3,3A3,3,0,0,1,35,17ZM18,18a3.562,3.562,0,0,1,2.706,1.293c.489.49.729.707,1.29.707s.8-.217,1.294-.707a3.482,3.482,0,0,1,5.416,0c.491.49.732.707,1.294.707v2a3.565,3.565,0,0,1-2.708-1.293C26.8,20.217,26.561,20,26,20s-.8.217-1.294.707a3.479,3.479,0,0,1-5.413,0C18.8,20.217,18.561,20,18,20Zm3,8a3,3,0,1,1-3,3A3,3,0,0,1,21,26Zm9,14a3.565,3.565,0,0,1-2.708-1.293C26.8,38.217,26.561,38,26,38s-.8.217-1.294.707a3.479,3.479,0,0,1-5.413,0C18.8,38.217,18.561,38,18,38V36a3.562,3.562,0,0,1,2.706,1.293c.489.49.729.707,1.29.707s.8-.217,1.294-.707a3.482,3.482,0,0,1,5.416,0c.491.49.732.707,1.294.707Zm7-1H36v1H34V39H33V37h1V36h2v1h1Zm9,0H40V37h6Zm0-8a6.6,6.6,0,0,1-3.849-1.143,5.067,5.067,0,0,0-5.639,0,7.047,7.047,0,0,1-7.695,0A4.65,4.65,0,0,0,26,29V27a6.594,6.594,0,0,1,3.847,1.143,5.062,5.062,0,0,0,5.636,0,7.052,7.052,0,0,1,7.7,0A4.663,4.663,0,0,0,46,29Zm0-10H40V19h6Z"></path><path d="M4,52v4a4,4,0,0,0,4,4H41.54A5.969,5.969,0,0,1,40,56V52Z"></path></g></svg>