<svg xmlns="http://www.w3.org/2000/svg" viewBox="0 0 64 64" x="0px" y="0px"><title>Value</title><g><path d="M61.917,17.378a.958.958,0,0,0,.045-.127.971.971,0,0,0,.023-.131,1,1,0,0,0,.009-.134.923.923,0,0,0-.012-.129.815.815,0,0,0-.029-.137,1.066,1.066,0,0,0-.044-.119c-.011-.024-.015-.051-.028-.075s-.028-.036-.04-.055-.016-.036-.028-.052l-10-14A1,1,0,0,0,51,2H13a1,1,0,0,0-.813.419l-10,14c-.012.016-.017.035-.028.052s-.029.034-.04.055-.017.051-.028.075a1.066,1.066,0,0,0-.044.119.815.815,0,0,0-.029.137.923.923,0,0,0-.012.129,1,1,0,0,0,.009.134.971.971,0,0,0,.023.131.958.958,0,0,0,.045.127.836.836,0,0,0,.027.08c.009.016.023.029.032.045s.013.032.023.047L31.154,61.534l0,0,.009.014a1,1,0,0,0,.193.212c.021.017.043.03.065.046a1.018,1.018,0,0,0,.2.109.794.794,0,0,0,.081.031.891.891,0,0,0,.6,0,.794.794,0,0,0,.081-.031.99.99,0,0,0,.2-.109c.022-.016.044-.029.065-.046a.977.977,0,0,0,.193-.212l.009-.014,0,0L61.835,17.55c.01-.015.014-.032.023-.047s.023-.029.032-.045A.836.836,0,0,0,61.917,17.378ZM23.253,18H40.747L32,56.488Zm.69-2L32,4.721,40.057,16Zm10-12H49.057L41.5,14.58ZM22.5,14.58,14.943,4H30.057ZM42.943,16,51,4.721,59.057,16ZM13,4.721,21.057,16H4.943ZM21.2,18l8.6,37.85L4.856,18ZM34.2,55.85,42.8,18H59.144Z"></path></g></svg>