<svg xmlns="http://www.w3.org/2000/svg" viewBox="0 0 64 64" x="0px" y="0px"><g><polygon points="36 22.586 36 17 28 17 28 25 33.589 25 36 22.586"></polygon><polygon points="25.82 48 24.22 56 39.78 56 38.18 48 25.82 48"></polygon><path d="M60,40H4v3a3,3,0,0,0,3,3H57a3,3,0,0,0,3-3Zm-4,4H54V42h2Z"></path><path d="M21,60H43a1,1,0,0,0,0-2H21a1,1,0,0,0,0,2Z"></path><path d="M60,7a3,3,0,0,0-3-3H7A3,3,0,0,0,4,7V38H60ZM51,22H42v3h5a1,1,0,0,1,.707.293l3,3-1.414,1.414L46.586,27H42v3a1,1,0,0,1-1,1H38v4H36V31H33v4H31V31H28v4H26V31H23a1,1,0,0,1-1-1V27H17.414l-2.707,2.707-1.414-1.414,3-3A1,1,0,0,1,17,25h5V22H13V20h9V17H17a1,1,0,0,1-.707-.293l-3-3,1.414-1.414L17.414,15H22V12a1,1,0,0,1,1-1h3V7h2v4h3V7h2v4h3V7h2v4h3a1,1,0,0,1,1,1v3h4.586l2.707-2.707,1.414,1.414-3,3A1,1,0,0,1,47,17H42v3h9Z"></path><path d="M24,29H40V13H24Zm2-13a1,1,0,0,1,1-1H37a1,1,0,0,1,1,1v7a1,1,0,0,1-.293.707l-3,3A1,1,0,0,1,34,27H27a1,1,0,0,1-1-1Z"></path></g></svg>