<svg xmlns="http://www.w3.org/2000/svg" viewBox="0 0 64 64" x="0px" y="0px"><title>Chart-Report_4</title><g data-name="Chart-Report"><path d="M31,29.9V34.08A7,7,0,0,0,25.08,40H22.858a4,4,0,1,0,0,2H25.08a6.991,6.991,0,0,0,13.84,0h2.222a4,4,0,1,0,0-2H38.92A7,7,0,0,0,33,34.08V29.9a5,5,0,1,0-2,0ZM19,43a2,2,0,1,1,2-2A2,2,0,0,1,19,43Zm26-4a2,2,0,1,1-2,2A2,2,0,0,1,45,39ZM32,46a5,5,0,0,1-1-9.9V41a1,1,0,0,0,1,1h4.9A5.009,5.009,0,0,1,32,46Zm4.9-6H33V36.1A5.016,5.016,0,0,1,36.9,40ZM32,22a3,3,0,1,1-3,3A3,3,0,0,1,32,22Z"></path><rect x="15" y="22" width="2" height="2"></rect><rect x="19" y="22" width="6" height="2"></rect><rect x="15" y="26" width="10" height="2"></rect><rect x="41" y="22" width="8" height="2"></rect><rect x="41" y="26" width="8" height="2"></rect><path d="M55,2H9A2,2,0,0,0,7,4V60a2,2,0,0,0,2,2H55a2,2,0,0,0,2-2V4A2,2,0,0,0,55,2ZM40,4V6H24V4ZM23,12H41a1,1,0,0,0,1-1V8h9V56H13V8h9v3A1,1,0,0,0,23,12Zm17-2H24V8H40ZM9,60V4H22V6H12a1,1,0,0,0-1,1V57a1,1,0,0,0,1,1H52a1,1,0,0,0,1-1V7a1,1,0,0,0-1-1H42V4H55V60Z"></path></g></svg>