<svg xmlns="http://www.w3.org/2000/svg" viewBox="0 0 64 64" x="0px" y="0px"><g data-name="Smart House-Internet of Things-Smart Home-Smartphone-Control-Internet"><path d="M60.98,24.89,33.92,2.3a2.979,2.979,0,0,0-3.84.01L3.1,24.94a3.125,3.125,0,0,0-.75,3.91,2.95,2.95,0,0,0,.83.89A4.794,4.794,0,0,0,3,31V57a5,5,0,0,0,5,5H52a1,1,0,0,0,1-1V26.01l4.13,3.48a3,3,0,1,0,3.85-4.6ZM25,57a3.009,3.009,0,0,1-3,3H8a3.009,3.009,0,0,1-3-3V54H25Zm0-5H5V34H25Zm0-20H5V31a3.009,3.009,0,0,1,3-3H22a3.009,3.009,0,0,1,3,3ZM51,60H25.97A4.924,4.924,0,0,0,27,57V31a5,5,0,0,0-5-5H13V24.42L32,8.31,51,24.32Zm8.83-32.17a1.022,1.022,0,0,1-1.42.13L32.64,6.24a.987.987,0,0,0-1.29,0L8.04,26H8a4.977,4.977,0,0,0-3.88,1.88c-.01-.02-.03-.03-.05-.05a1.119,1.119,0,0,1,.31-1.35L31.37,3.84a.983.983,0,0,1,1.27,0L59.7,26.43A1,1,0,0,1,59.83,27.83Z"></path><path d="M26,23a6,6,0,1,0,6-6A6.006,6.006,0,0,0,26,23Zm5-3.858V22H28.142A4,4,0,0,1,31,19.142ZM28.142,24H31v2.858A4,4,0,0,1,28.142,24ZM33,26.858V24h2.858A4,4,0,0,1,33,26.858ZM35.858,22H33V19.142A4,4,0,0,1,35.858,22Z"></path><rect x="14" y="56" width="2" height="2"></rect><path d="M10,44a5,5,0,1,0,6-4.9V38H14v1.1A5.009,5.009,0,0,0,10,44Zm4-2.816V44h2V41.184a3,3,0,1,1-2,0Z"></path><path d="M44,41V38a5,5,0,0,0-10,0v3a2.006,2.006,0,0,0-2,2v8a2.006,2.006,0,0,0,2,2H44a2.006,2.006,0,0,0,2-2V43A2.006,2.006,0,0,0,44,41Zm-8-3a3,3,0,0,1,6,0v3H36Zm8,13H34V43H44Z"></path><polygon points="37 47 38 47 38 49 40 49 40 47 41 47 41 45 37 45 37 47"></polygon></g></svg>