<svg xmlns="http://www.w3.org/2000/svg" viewBox="0 0 64 64" x="0px" y="0px"><g data-name="Shopping-Computer-Ecommerce-Online Shopping-Basket"><path d="M55.707,56.293l-6-6A1,1,0,0,0,49,50H19V48a3,3,0,0,0-3-3H10a1,1,0,0,1,0-2h6a3,3,0,0,0,3-3V38h7v4H22a1,1,0,0,0-1,1v4a1,1,0,0,0,1,1H42a1,1,0,0,0,1-1V43a1,1,0,0,0-1-1H38V38H52a3,3,0,0,0,3-3V9a3,3,0,0,0-3-3H47V8h5a1,1,0,0,1,1,1V30H11V9a1,1,0,0,1,1-1h5V6H12A3,3,0,0,0,9,9V35a3,3,0,0,0,3,3h5v2a1,1,0,0,1-1,1H10a3,3,0,0,0,0,6h6a1,1,0,0,1,1,1v2H15a1,1,0,0,0-.707.293l-6,6A1,1,0,0,0,8,57v3a2,2,0,0,0,2,2H54a2,2,0,0,0,2-2V57A1,1,0,0,0,55.707,56.293ZM41,46H23V44H41Zm-5-4H28V38h8ZM11,35V32H53v3a1,1,0,0,1-1,1H12A1,1,0,0,1,11,35Zm4.414,17H48.586l4,4H11.414ZM10,60V58H54v2Z"></path><rect x="16" y="53" width="2" height="2"></rect><rect x="20" y="53" width="2" height="2"></rect><rect x="42" y="53" width="2" height="2"></rect><rect x="24" y="53" width="16" height="2"></rect><rect x="46" y="53" width="2" height="2"></rect><rect x="47" y="33" width="2" height="2"></rect><path d="M20,14h.074l.718,9.277A5,5,0,0,0,25.784,28H38.216a5,5,0,0,0,4.991-4.7l.719-9.3H44a3.015,3.015,0,0,0,3-3,3,3,0,0,0-3-3H42.251l.477-2.689A3.145,3.145,0,0,0,42.77,4.8a3,3,0,0,0-5.955-.514L36.159,8H27.842l-.656-3.712A3,3,0,0,0,21.23,4.8a3.1,3.1,0,0,0,.045.524L21.749,8H20a3.015,3.015,0,0,0-3,3A3,3,0,0,0,20,14Zm21.212,9.166a3,3,0,0,1-3,2.834H25.784a3.007,3.007,0,0,1-3-2.855L22.08,14H41.92ZM44,10a1,1,0,0,1,1,1,.977.977,0,0,1-.307.713A.959.959,0,0,1,44,12H41.542l.355-2ZM38.785,4.632a1,1,0,0,1,.414-.65.964.964,0,0,1,.738-.157.994.994,0,0,1,.833.975,1.166,1.166,0,0,1-.014.177L39.511,12H37.482ZM35.805,10l-.353,2h-6.9L28.2,10ZM24.072,3.823a.972.972,0,0,1,.729.159,1,1,0,0,1,.415.652L26.518,12H24.489L23.247,4.99a1.109,1.109,0,0,1-.017-.19A1,1,0,0,1,24.072,3.823Zm-4.765,6.464A.959.959,0,0,1,20,10h2.1l.354,2H20a1,1,0,0,1-1-1A.977.977,0,0,1,19.307,10.287Z"></path><rect x="31" y="16" width="2" height="8"></rect><rect x="36" y="16" width="2" height="8"></rect><rect x="26" y="16" width="2" height="8"></rect></g></svg>