<svg xmlns="http://www.w3.org/2000/svg" viewBox="0 0 64 64" x="0px" y="0px"><g><path d="M10,51V7a3,3,0,0,1,3-3H38v7a5.006,5.006,0,0,0,5,5h7v7h2V15a1,1,0,0,0-.293-.707l-12-12A1,1,0,0,0,39,2H13A5.006,5.006,0,0,0,8,7V51a5.006,5.006,0,0,0,5,5H32V54H13A3,3,0,0,1,10,51ZM40,11V5.414L48.586,14H43A3,3,0,0,1,40,11Z"></path><rect x="14" y="8" width="2" height="2"></rect><rect x="18" y="8" width="6" height="2"></rect><rect x="14" y="12" width="10" height="2"></rect><rect x="14" y="20" width="4" height="2"></rect><rect x="20" y="20" width="8" height="2"></rect><rect x="30" y="20" width="16" height="2"></rect><rect x="14" y="26" width="24" height="2"></rect><rect x="14" y="32" width="8" height="2"></rect><rect x="24" y="32" width="6" height="2"></rect><rect x="32" y="32" width="4" height="2"></rect><rect x="14" y="38" width="23" height="2"></rect><rect x="14" y="44" width="6" height="2"></rect><rect x="22" y="44" width="10" height="2"></rect><path d="M54,35V34a1,1,0,0,0,1-1,8,8,0,0,0-16,0,1,1,0,0,0,1,1v1a7,7,0,0,0,14,0Zm-7-8a6.01,6.01,0,0,1,5.917,5h-5.5l-2.707-2.707a1,1,0,0,0-1.655.391L42.279,32h-1.2A6.01,6.01,0,0,1,47,27Zm0,13a5.006,5.006,0,0,1-5-5V34h1a1,1,0,0,0,.948-.684l.49-1.464,1.855,1.855A1,1,0,0,0,47,34h5v1A5.006,5.006,0,0,1,47,40Z"></path><path d="M49,42H45A11.013,11.013,0,0,0,34,53v8a1,1,0,0,0,1,1H59a1,1,0,0,0,1-1V53A11.013,11.013,0,0,0,49,42Zm0,2a8.878,8.878,0,0,1,1.076.071L47,48.3l-3.076-4.229A8.878,8.878,0,0,1,45,44ZM36,53a9.007,9.007,0,0,1,5.828-8.412L46,50.325V60H40V51H38v9H36Zm22,7H56V51H54v9H48V50.325l4.172-5.737A9.007,9.007,0,0,1,58,53Z"></path><rect x="51" y="48" width="2" height="2"></rect></g></svg>