<svg xmlns="http://www.w3.org/2000/svg" viewBox="0 0 32 32" x="0px" y="0px"><g data-name="Smartphone-Download"><path d="M24,18v5.586l-1.122-1.122-1.414,1.414,2.829,2.829a1,1,0,0,0,1.414,0l2.829-2.829-1.414-1.414L26,23.586V18Z"></path><path d="M30,19H27v2h2v8H21V21h2V19H20a1,1,0,0,0-1,1V30a1,1,0,0,0,1,1H30a1,1,0,0,0,1-1V20A1,1,0,0,0,30,19Z"></path><path d="M22,2H10A1,1,0,0,0,9,3V4H23V3A1,1,0,0,0,22,2Z"></path><path d="M9,24h8V20a3.009,3.009,0,0,1,3-3h3V6H9ZM19,14h2v2H19Zm-4,0h2v2H15Zm-4,0h2v2H11Z"></path><path d="M9,29a1,1,0,0,0,1,1h7V26H9Z"></path></g></svg>