<svg xmlns="http://www.w3.org/2000/svg" data-name="file cabinet" viewBox="0 0 64 64" x="0px" y="0px"><path d="M52,22H12V38H52ZM28,36H26V34h2Zm0-8V25a1,1,0,0,1,1-1h6a1,1,0,0,1,1,1v3a1,1,0,0,1-1,1H29A1,1,0,0,1,28,28Zm10,8H30V34h8Z"></path><rect x="30" y="26" width="4" height="1"></rect><path d="M52,40H12V56H52ZM28,54H26V52h2Zm0-8V43a1,1,0,0,1,1-1h6a1,1,0,0,1,1,1v3a1,1,0,0,1-1,1H29A1,1,0,0,1,28,46Zm10,8H30V52h8Z"></path><rect x="15" y="58" width="34" height="2"></rect><rect x="30" y="44" width="4" height="1"></rect><rect x="30" y="8" width="4" height="1"></rect><path d="M52,4H12V20H52ZM28,18H26V16h2Zm0-8V7a1,1,0,0,1,1-1h6a1,1,0,0,1,1,1v3a1,1,0,0,1-1,1H29A1,1,0,0,1,28,10Zm10,8H30V16h8Z"></path></svg>