<svg xmlns="http://www.w3.org/2000/svg" viewBox="0 0 64 64" x="0px" y="0px"><g data-name="Racing-Car-Race car-Vehicle-Automobile"><path d="M49.7,42.29l1.47,1.46A5.038,5.038,0,0,0,51.9,42H49.82C49.78,42.1,49.74,42.19,49.7,42.29Z"></path><path d="M49.7,39.71c.04.1.08.19.12.29H51.9a5.038,5.038,0,0,0-.73-1.75Z"></path><polygon points="26.7 26 35 26 35 22 31.37 22 26.7 26"></polygon><path d="M43.87,26l-3.34-4H37v4h6.87Z"></path><path d="M49.75,36.83A5.038,5.038,0,0,0,48,36.1v2.08c.1.04.19.08.29.12Z"></path><path d="M42.1,40h2.08c.04-.1.08-.19.12-.29l-1.47-1.46A5.038,5.038,0,0,0,42.1,40Z"></path><path d="M44.25,45.17A5.038,5.038,0,0,0,46,45.9V43.82c-.1-.04-.19-.08-.29-.12Z"></path><path d="M44.18,42H42.1a5.038,5.038,0,0,0,.73,1.75l1.47-1.46C44.26,42.19,44.22,42.1,44.18,42Z"></path><path d="M48,43.82V45.9a5.038,5.038,0,0,0,1.75-.73L48.29,43.7C48.19,43.74,48.1,43.78,48,43.82Z"></path><path d="M46,38.18V36.1a5.038,5.038,0,0,0-1.75.73l1.46,1.47C45.81,38.26,45.9,38.22,46,38.18Z"></path><circle cx="47" cy="41" r="1"></circle><path d="M19.75,36.83A5.038,5.038,0,0,0,18,36.1v2.08c.1.04.19.08.29.12Z"></path><path d="M19.7,39.71c.04.1.08.19.12.29H21.9a5.038,5.038,0,0,0-.73-1.75Z"></path><polygon points="7 34 4 34 4 35.28 7 34.28 7 34"></polygon><path d="M19.7,42.29l1.47,1.46A5.038,5.038,0,0,0,21.9,42H19.82C19.78,42.1,19.74,42.19,19.7,42.29Z"></path><path d="M18,43.82V45.9a5.038,5.038,0,0,0,1.75-.73L18.29,43.7C18.19,43.74,18.1,43.78,18,43.82Z"></path><path d="M55.99,26.18,57.56,22H56.4l-4.19,4H55A2.946,2.946,0,0,1,55.99,26.18Z"></path><polygon points="56 33 56 32 53.87 32 54.54 33 56 33"></polygon><path d="M14.18,42H12.1a5.038,5.038,0,0,0,.73,1.75l1.47-1.46C14.26,42.19,14.22,42.1,14.18,42Z"></path><path d="M14.25,45.17A5.038,5.038,0,0,0,16,45.9V43.82c-.1-.04-.19-.08-.29-.12Z"></path><path d="M12.1,40h2.08c.04-.1.08-.19.12-.29l-1.47-1.46A5.038,5.038,0,0,0,12.1,40Z"></path><path d="M16,38.18V36.1a5.038,5.038,0,0,0-1.75.73l1.46,1.47C15.81,38.26,15.9,38.22,16,38.18Z"></path><circle cx="17" cy="41" r="1"></circle><path d="M59.7,38.85,58,38v-.17a1.017,1.017,0,0,0-.3-.71l-.82-.83A3.01,3.01,0,0,1,56.13,35H54a1,1,0,0,1-.83-.45l-2-3a.963.963,0,0,1-.05-1.02A.984.984,0,0,1,52,30h4V29a1,1,0,0,0-1-1H52.09a3,3,0,0,1-2.33-1.11l-6.94-8.52a.971.971,0,0,0-.77-.37H30.73a1,1,0,0,0-.64.23L18.64,27.77a.947.947,0,0,1-.44.21L6.41,30.34A3.008,3.008,0,0,0,4.3,32H8a1,1,0,0,1,1,1v2a1.014,1.014,0,0,1-.68.95l-4.3,1.44a7.063,7.063,0,0,0,.72,2.85l.38.76H5l-.28.43L3,44h7.68a6.779,6.779,0,0,1-.6-2h0A6.634,6.634,0,0,1,10,41a7,7,0,0,1,14,0,6.634,6.634,0,0,1-.08,1h0a6.779,6.779,0,0,1-.6,2H40.68a6.779,6.779,0,0,1-.6-2h0A6.634,6.634,0,0,1,40,41a6.993,6.993,0,0,1,13.776-1.711,6.2,6.2,0,0,1,.128.623c.019.117.035.234.048.352A6.873,6.873,0,0,1,54,41a6.356,6.356,0,0,1-.13,1.32l5.66-1.61A1,1,0,0,0,59.7,38.85ZM31,32V30h4v2Zm-4.3-4a2,2,0,0,1-1.3-3.52l4.67-4a1.988,1.988,0,0,1,1.3-.48h9.16a1.985,1.985,0,0,1,1.54.72l3.33,4A2,2,0,0,1,43.86,28ZM46,32H42V30h4Z"></path></g></svg>