<svg xmlns="http://www.w3.org/2000/svg" viewBox="0 0 64 64" x="0px" y="0px"><g data-name="Waiting Room-Sofa"><rect x="53" y="8" width="6" height="20"></rect><rect x="52" y="58" width="8" height="2"></rect><path d="M37,20V8H13V20Zm-1.293-6.293-5,5-1.414-1.414,5-5Zm-5.414-2.414,1.414,1.414-5,5-1.414-1.414Z"></path><rect x="55" y="30" width="2" height="26"></rect><path d="M35,44H15a3,3,0,0,0-3,3v3H38V47A3,3,0,0,0,35,44Z"></path><path d="M43,37a3,3,0,0,0-3,3V54h3a1,1,0,0,0,1-1V42.816A2.993,2.993,0,0,0,43,37Z"></path><path d="M41,35.424V34a5.006,5.006,0,0,0-5-5H14a5.006,5.006,0,0,0-5,5v1.42A4.986,4.986,0,0,1,12,40v3.026A4.948,4.948,0,0,1,15,42H35a4.948,4.948,0,0,1,3,1.026V40A5,5,0,0,1,41,35.424ZM22,37H20v2H18V37H16V35h2V33h2v2h2Zm12,0H32v2H30V37H28V35h2V33h2v2h2Z"></path><rect x="12" y="52" width="26" height="2"></rect><rect x="9" y="56" width="2" height="4"></rect><rect x="39" y="56" width="2" height="4"></rect><path d="M10,40a2.987,2.987,0,0,0-2.247-2.9,2.694,2.694,0,0,0-.728-.1H7a2.962,2.962,0,0,0-2.844,1.994,3.009,3.009,0,0,0,1.34,3.6,3.111,3.111,0,0,0,.5.21V53a1,1,0,0,0,1,1h3Z"></path></g></svg>