<svg xmlns="http://www.w3.org/2000/svg" viewBox="0 0 64 64" x="0px" y="0px"><g data-name="Envelope"><circle cx="32" cy="9" r="1"></circle><path d="M28.29,45.5,32,47.821,35.71,45.5A6.958,6.958,0,0,0,39,39.566V33.008L37.992,33a8.9,8.9,0,0,1-4.342-1.128A6.809,6.809,0,0,1,32,30.506a6.882,6.882,0,0,1-1.663,1.373A8.88,8.88,0,0,1,26,33l-1,.008v6.558A6.96,6.96,0,0,0,28.29,45.5Zm.417-8.209L31,39.586l5.293-5.293,1.414,1.414-6,6a1,1,0,0,1-1.414,0l-3-3Z"></path><circle cx="32" cy="21" r="1"></circle><path d="M12,60H52a1,1,0,0,0,1-1V56H11v3A1,1,0,0,0,12,60Z"></path><path d="M53,5a1,1,0,0,0-1-1H12a1,1,0,0,0-1,1v.741l3.731,6.716A3,3,0,0,0,17.354,14H31V11.816a3,3,0,1,1,2,0V14H46.646a3,3,0,0,0,2.623-1.543L53,5.741Z"></path><path d="M12.983,13.428,11,9.859V54H53V9.859l-1.983,3.569A5,5,0,0,1,46.646,16H33v2.184a3,3,0,1,1-2,0V16H17.354A5,5,0,0,1,12.983,13.428ZM23,32.016a1,1,0,0,1,.992-1l2-.016a6.9,6.9,0,0,0,3.378-.872,7.666,7.666,0,0,0,1.774-1.668l.1-.116a1.031,1.031,0,0,1,1.508,0l.1.116a7.74,7.74,0,0,0,1.761,1.662A6.927,6.927,0,0,0,38,31l2.008.016a1,1,0,0,1,.992,1v7.55A8.951,8.951,0,0,1,36.771,47.2l-4.241,2.65a1,1,0,0,1-1.06,0L27.23,47.2A8.949,8.949,0,0,1,23,39.566Z"></path></g></svg>