<svg xmlns="http://www.w3.org/2000/svg" viewBox="0 0 64 64" x="0px" y="0px"><g><path d="M54.672,41a12.2,12.2,0,0,0-1.381-2H46.374a16.623,16.623,0,0,1,.808,2Z"></path><path d="M17.627,39H10.709a12.218,12.218,0,0,0-1.381,2h7.5A15.993,15.993,0,0,1,17.627,39Z"></path><path d="M8.322,43.519c-.027.1-.051.207-.074.311a10.217,10.217,0,0,0-.179,1.054c0,.039-.012.077-.016.116h7.979c0-.012,0-.024,0-.036.032-.487.094-.971.172-1.452.018-.116.039-.232.061-.348.01-.054.018-.109.029-.164H8.484C8.429,43.173,8.366,43.344,8.322,43.519Z"></path><path d="M43.744,35a19.119,19.119,0,0,1,1.495,2h5.967a17.016,17.016,0,0,0-3.2-2Z"></path><path d="M6.042,45c0-.022,0-.043.007-.065.007-.074.019-.147.027-.22q.042-.393.109-.782c.019-.11.041-.219.063-.328q.072-.351.165-.7c.027-.1.052-.2.081-.3.1-.324.2-.646.323-.964A13.792,13.792,0,0,1,9.5,37.331a18.062,18.062,0,0,1,5.83-4.237A22.856,22.856,0,0,1,25,31h.178a23.572,23.572,0,0,1,7.133,1.149c.433.143.856.3,1.27.464.132.053.258.113.389.168.275.116.551.232.817.359.158.074.308.156.462.233.23.117.461.232.684.355.161.089.315.185.471.278.206.121.412.242.611.37.156.1.306.206.458.311.188.129.377.257.558.392.149.111.292.226.436.34.172.137.344.273.509.415.14.12.275.243.41.367.158.144.313.289.463.437.13.128.255.259.379.39.143.152.284.3.42.46.118.135.232.272.344.41.129.159.255.32.376.483.106.141.208.283.308.427.115.167.225.335.332.506.092.146.183.293.269.442.1.174.2.35.287.527.079.151.157.3.229.453.086.182.164.367.241.551.064.153.129.306.187.46.071.191.132.384.194.578.049.153.1.306.143.461.056.2.1.405.145.609.033.151.071.3.1.453.039.216.065.435.093.653.018.144.042.286.055.43,0,.023.007.046.008.069h2c0-.03-.007-.059-.01-.089-.029-.374-.077-.747-.138-1.119q-.026-.159-.054-.318c-.076-.4-.162-.807-.273-1.2a14.66,14.66,0,0,0-1.638-3.745,17.422,17.422,0,0,0-3.124-3.787,20.507,20.507,0,0,0-2.448-1.9,21.382,21.382,0,0,0-3.583-1.91A22.608,22.608,0,0,0,31.739,29.9,25.584,25.584,0,0,0,25,29C13.835,29,4.678,36.09,4.036,45Z"></path><path d="M20.051,44.925c.007-.087.021-.172.031-.259.029-.257.064-.512.109-.766.02-.115.044-.23.068-.345q.072-.342.162-.681c.03-.113.06-.225.093-.337.075-.252.16-.5.252-.749.028-.076.051-.153.081-.228q.186-.479.413-.944c.037-.077.08-.152.119-.229.12-.234.244-.466.378-.7.061-.1.125-.2.188-.307q.191-.306.4-.6c.069-.1.137-.2.209-.3.16-.219.329-.434.5-.646.055-.067.107-.136.163-.2q.351-.413.736-.807c.058-.059.12-.115.179-.173q.306-.3.631-.6c.094-.083.19-.165.286-.247q.3-.252.607-.494c.1-.079.2-.158.306-.235.234-.174.475-.342.72-.507.08-.053.156-.109.237-.161q.494-.321,1.016-.616c.07-.04.143-.075.213-.114.215-.118.429-.236.651-.347-.05-.009-.1-.021-.147-.029-.278-.047-.561-.079-.843-.116s-.538-.074-.81-.1-.566-.036-.85-.051c-.226-.012-.451-.026-.678-.031-.236.162-.467.33-.7.5-.124.092-.253.18-.374.275-.389.3-.767.621-1.127.949a17.347,17.347,0,0,0-3.119,3.78,14.247,14.247,0,0,0-1.63,3.743c-.114.4-.2.8-.28,1.208-.02.105-.038.211-.056.316-.062.374-.111.749-.141,1.126,0,.03-.007.059-.01.088h2C20.044,44.975,20.048,44.95,20.051,44.925Z"></path><path d="M57.506,42.606c.03.1.054.2.081.3q.093.348.165.7c.022.109.044.218.063.328.045.258.081.518.109.778.008.075.02.149.027.224,0,.021.006.043.007.064h2.005a13.926,13.926,0,0,0-.476-2.731,14.258,14.258,0,0,0-1.629-3.745,17.239,17.239,0,0,0-3.133-3.787A23.466,23.466,0,0,0,39,29a25.882,25.882,0,0,0-3.24.2c.576.25,1.142.524,1.694.817l.033.016c.562.3,1.111.622,1.641.964.2,0,.388.013.583.019s.417.008.625.02.425.033.637.05.415.03.62.052.428.057.642.086.4.05.6.082c.219.036.435.081.652.123.191.037.383.068.571.109.223.049.442.108.662.162.179.045.361.085.538.134.236.065.468.141.7.213.157.049.317.093.472.145.264.089.522.188.781.287.119.045.242.085.36.133q.563.225,1.106.48a18.092,18.092,0,0,1,5.829,4.238,13.806,13.806,0,0,1,2.679,4.31C57.307,41.961,57.411,42.282,57.506,42.606Z"></path><path d="M55.752,43.832c-.023-.105-.047-.209-.074-.313-.044-.175-.107-.346-.162-.519h-7.81c.012.058.02.117.031.176.021.114.041.229.059.344.076.481.137.964.169,1.449l0,.031h7.979c0-.039-.012-.077-.017-.116A9.914,9.914,0,0,0,55.752,43.832Z"></path><path d="M41.817,44.1c-.016-.086-.041-.171-.06-.256-.048-.216-.1-.431-.158-.643-.033-.115-.074-.227-.111-.341-.059-.18-.118-.361-.186-.539-.048-.122-.1-.242-.154-.363-.071-.166-.143-.331-.223-.495-.06-.123-.126-.244-.191-.366-.083-.157-.168-.312-.26-.466-.073-.122-.149-.243-.227-.363q-.144-.224-.3-.443-.126-.178-.26-.353-.164-.215-.338-.425c-.094-.113-.189-.226-.288-.337-.123-.139-.251-.274-.381-.409-.1-.107-.205-.214-.313-.319-.137-.134-.281-.264-.426-.394-.11-.1-.218-.2-.331-.3-.158-.133-.323-.262-.488-.39-.111-.086-.218-.175-.332-.259-.193-.142-.4-.278-.6-.414-.095-.063-.186-.13-.283-.192q-.453-.291-.934-.559c-.068-.037-.139-.071-.208-.107-.258-.139-.518-.276-.788-.4-.123-.059-.251-.112-.377-.169-.222-.1-.444-.2-.673-.292-.143-.058-.291-.111-.437-.166q-.244-.093-.495-.18-.251.087-.5.18c-.146.055-.294.108-.437.166-.229.092-.451.192-.673.292-.126.057-.254.11-.377.169-.27.128-.53.265-.788.4-.069.036-.14.07-.208.107q-.481.269-.935.559c-.095.061-.185.127-.278.19-.2.136-.407.273-.6.416-.114.084-.221.173-.332.259-.165.128-.33.257-.488.39-.113.1-.221.2-.331.3-.145.13-.289.26-.426.394-.108.105-.21.212-.313.319-.13.135-.258.27-.381.409-.1.111-.194.224-.288.337q-.174.21-.338.425-.133.174-.26.353-.154.219-.3.443c-.078.12-.154.241-.227.363-.092.154-.177.309-.26.466-.065.121-.131.243-.191.366-.08.164-.152.33-.224.5-.051.12-.105.239-.152.361-.069.178-.128.359-.187.541-.037.113-.078.225-.111.339-.062.214-.111.431-.159.648-.018.083-.043.166-.059.25q-.085.446-.131.9h19.9C41.918,44.7,41.874,44.4,41.817,44.1Z"></path><path d="M19.727,35.649c.172-.22.347-.436.529-.649H15.994a17.03,17.03,0,0,0-3.2,2h5.967Q19.213,36.307,19.727,35.649Z"></path></g></svg>