<svg xmlns="http://www.w3.org/2000/svg" viewBox="0 0 64 64" x="0px" y="0px"><g><path d="M61.89,42.55,59,36.76V33a1,1,0,0,0-1-1H50a1,1,0,0,0-1,1v3.76l-2.89,5.79a.922.922,0,0,0-.1.56l2,18A.989.989,0,0,0,49,62H59a.989.989,0,0,0,.99-.89l2-18A.922.922,0,0,0,61.89,42.55ZM51,34h6v2H51Zm-.38,4h6.76l2,4H48.62ZM58.1,60H49.9L48.12,44H59.88Z"></path><path d="M37.69,41.3,32,39.51V37a1.046,1.046,0,0,0-.08-.39,4.975,4.975,0,0,0,2.3-1.93A5.058,5.058,0,0,0,36,35a5,5,0,0,0,5-5,4.9,4.9,0,0,0-.33-1.79A4.989,4.989,0,0,0,38,19V17A15,15,0,1,0,8,17v2a4.989,4.989,0,0,0-2.67,9.21A4.9,4.9,0,0,0,5,30a5,5,0,0,0,5,5,5.058,5.058,0,0,0,1.78-.32,4.975,4.975,0,0,0,2.3,1.93A1.046,1.046,0,0,0,14,37v2.52L8.31,41.3A8.941,8.941,0,0,0,2,49.88V61a1,1,0,0,0,1,1H43a1,1,0,0,0,1-1V49.88A8.941,8.941,0,0,0,37.69,41.3ZM10,60H4V49.88A6.964,6.964,0,0,1,8.91,43.2L10,42.86Zm4,0H12V42.24l2-.63Zm-.83-27.01a1,1,0,0,0-1.5-.5A2.889,2.889,0,0,1,10,33a3.009,3.009,0,0,1-3-3,2.964,2.964,0,0,1,.51-1.67.99.99,0,0,0,.13-.88,1.035,1.035,0,0,0-.62-.64A2.968,2.968,0,0,1,5,24a3.009,3.009,0,0,1,3-3,2.942,2.942,0,0,1,.73.11.97.97,0,0,0,.87-.16,1.014,1.014,0,0,0,.4-.8V17A12.973,12.973,0,0,1,28.55,5.26a13.216,13.216,0,0,1-2.86,5.25,10.137,10.137,0,0,1-.86.9A17.117,17.117,0,0,1,13,16a1,1,0,0,0-1,1v7a11.014,11.014,0,0,0,6,9.79v.42A2.963,2.963,0,0,1,16,35,3.007,3.007,0,0,1,13.17,32.99ZM23,33a9.014,9.014,0,0,1-9-9V17.98a19.236,19.236,0,0,0,11.31-4.32A9.468,9.468,0,0,0,32,16.96V24A9.014,9.014,0,0,1,23,33Zm5,3.58a5.156,5.156,0,0,0,.66.23l-.66.25Zm-6,4.11v.62l-6,2.25V38.44Zm-4.66-3.88a5.156,5.156,0,0,0,.66-.23v.48ZM23,43.07l6.36,2.38L23,53.4l-6.36-7.95Zm-3-5.26V34.57a10.68,10.68,0,0,0,6,0v3.24l-3,1.12ZM30,60H16V47.85l6.22,7.77a.991.991,0,0,0,1.56,0L30,47.85Zm0-16.44-6-2.25v-.62l6-2.25Zm-2-9.35v-.42A11.014,11.014,0,0,0,34,24V16a1,1,0,0,0-1-1,7.726,7.726,0,0,1-6.22-2.72,6.016,6.016,0,0,0,.42-.46,15.167,15.167,0,0,0,3.13-5.54A12.975,12.975,0,0,1,36,17v3.15a1.014,1.014,0,0,0,.4.8.97.97,0,0,0,.87.16A2.942,2.942,0,0,1,38,21a3.009,3.009,0,0,1,3,3,2.968,2.968,0,0,1-2.02,2.81,1.035,1.035,0,0,0-.62.64.99.99,0,0,0,.13.88A2.964,2.964,0,0,1,39,30a3.009,3.009,0,0,1-3,3,2.889,2.889,0,0,1-1.67-.51,1,1,0,0,0-1.5.5A3.007,3.007,0,0,1,30,35,2.963,2.963,0,0,1,28,34.21ZM34,60H32V41.61l2,.63Zm8,0H36V42.86l1.09.34A6.964,6.964,0,0,1,42,49.88Z"></path><rect x="22" y="45" width="2" height="2"></rect><rect x="22" y="49" width="2" height="2"></rect><circle cx="19" cy="21" r="2"></circle><circle cx="27" cy="21" r="2"></circle><path d="M20.872,26.118l-1.4,1.424a5.007,5.007,0,0,0,7.064,0l-1.4-1.424A3.082,3.082,0,0,1,20.872,26.118Z"></path></g></svg>