<svg xmlns="http://www.w3.org/2000/svg" viewBox="0 0 64 64" x="0px" y="0px"><g><path d="M44,2H20a5.006,5.006,0,0,0-5,5V57a5.006,5.006,0,0,0,5,5H44a5.006,5.006,0,0,0,5-5V7A5.006,5.006,0,0,0,44,2ZM20,4H44a3,3,0,0,1,3,3v3H17V7A3,3,0,0,1,20,4Zm27,8V52H17V12ZM44,60H20a3,3,0,0,1-3-3V54H47v3A3,3,0,0,1,44,60Z"></path><rect x="30" y="56" width="4" height="2"></rect><rect x="21" y="6" width="2" height="2"></rect><rect x="25" y="6" width="6" height="2"></rect><path d="M22.184,39H19v2h3.184A3,3,0,0,0,24,42.816V50h2V42.816A3,3,0,0,0,27.816,41h8.368A3,3,0,0,0,38,42.816V50h2V42.816A3,3,0,0,0,41.816,41H45V39H41.816A3,3,0,0,0,40,37.184V26.816A3,3,0,0,0,41.816,25H45V23H41.816A3,3,0,0,0,40,21.184V14H38v7.184A3,3,0,0,0,36.184,23H27.816A3,3,0,0,0,26,21.184V14H24v7.184A3,3,0,0,0,22.184,23H19v2h3.184A3,3,0,0,0,24,26.816V37.184A3,3,0,0,0,22.184,39ZM25,41a1,1,0,1,1,1-1A1,1,0,0,1,25,41Zm2.816-16h8.368A3,3,0,0,0,38,26.816V37.184A3,3,0,0,0,36.184,39H27.816A3,3,0,0,0,26,37.184V26.816A3,3,0,0,0,27.816,25ZM39,41a1,1,0,1,1,1-1A1,1,0,0,1,39,41Zm0-18a1,1,0,1,1-1,1A1,1,0,0,1,39,23ZM25,23a1,1,0,1,1-1,1A1,1,0,0,1,25,23Z"></path></g></svg>