<svg xmlns="http://www.w3.org/2000/svg" viewBox="0 0 64 64" x="0px" y="0px"><g><circle cx="43" cy="52" r="4"></circle><rect x="4" y="34" width="56" height="4"></rect><path d="M50,56a4,4,0,1,0-2.073-7.415,5.971,5.971,0,0,1,0,6.83A3.988,3.988,0,0,0,50,56Z"></path><rect x="4" y="28" width="56" height="4"></rect><path d="M4,60H60V40H4ZM43,46a5.957,5.957,0,0,1,3.5,1.14,6,6,0,1,1,0,9.72A6,6,0,1,1,43,46ZM12,56H30v2H12ZM6,56h4v2H6Z"></path><circle cx="22" cy="15" r="1"></circle><path d="M51,20V15a1,1,0,0,0-1-1H27.65a1,1,0,0,1-.944-.672A5,5,0,1,0,22,20a4.842,4.842,0,0,0,1.657-.289,4.968,4.968,0,0,0,3.049-3.039A1,1,0,0,1,27.65,16H40a1,1,0,0,1,1,1v3h2V17a1,1,0,0,1,1-1h4a1,1,0,0,1,1,1v3ZM22,18a3,3,0,1,1,3-3A3,3,0,0,1,22,18Z"></path></g></svg>