<svg xmlns="http://www.w3.org/2000/svg" viewBox="0 0 64 64" x="0px" y="0px"><g><rect x="27" y="56" width="2" height="4"></rect><polygon points="6.39 60 8.28 60 9.61 56 7.72 56 6.39 60"></polygon><path d="M47.19,37H40.81a5.631,5.631,0,0,0-.72,2h7.82A5.631,5.631,0,0,0,47.19,37Z"></path><polygon points="54.39 56 55.72 60 57.61 60 56.28 56 54.39 56"></polygon><rect x="4" y="52" width="56" height="2"></rect><path d="M37.97,20C37.66,11.09,33.32,4,28,4s-9.66,7.09-9.97,16Z"></path><path d="M41.62,44h4.76a5.161,5.161,0,0,0,1.53-3H40.09A5.161,5.161,0,0,0,41.62,44Z"></path><path d="M57,46H22.46a1,1,0,0,1-.86-.5L13.92,32.19a2.13,2.13,0,0,0-2.73-.93,2.013,2.013,0,0,0-1.01,1.22,1.937,1.937,0,0,0,.19,1.56l2.4,4.15L6.41,50H8.67l5.267-9.779L19.58,50H60V49A3.009,3.009,0,0,0,57,46Z"></path><path d="M21.96,4.61C12.62,6.49,5.62,12.61,5.04,20H16.03C16.25,13.44,18.57,7.75,21.96,4.61Z"></path><path d="M39.97,20H50.96c-.58-7.39-7.58-13.51-16.92-15.39C37.43,7.75,39.75,13.44,39.97,20Z"></path><rect x="27" y="22" width="2" height="22"></rect><path d="M48,30a.987.987,0,0,0-.92.62L45.25,35h2.17l1.25-3H51V30Z"></path></g></svg>