<svg xmlns="http://www.w3.org/2000/svg" viewBox="0 0 64 64" x="0px" y="0px"><g><rect x="48" y="14" width="4" height="38"></rect><rect x="49" y="54" width="2" height="2"></rect><rect x="49" y="5" width="2" height="4"></rect><rect x="48" y="11" width="4" height="1"></rect><polygon points="57 22 55 22 55 16 54 16 54 14 57 14 57 22"></polygon><rect x="49" y="58" width="2" height="2"></rect><path d="M15,43a7,7,0,1,0-7-7A7.008,7.008,0,0,0,15,43Zm4-8h2v2H19Zm-4,2a2.937,2.937,0,0,1-2.86-3A3,3,0,0,1,14,31.2V30h2v1.2A3,3,0,0,1,17.86,34h-2A.87.87,0,1,0,15,35a2.937,2.937,0,0,1,2.86,3A3,3,0,0,1,16,40.8V42H14V40.8A3,3,0,0,1,12.14,38h2A.87.87,0,1,0,15,37ZM9,35h2v2H9Z"></path><path d="M4,50H44V46.36a3.048,3.048,0,0,1-1.72-.5,1.012,1.012,0,0,0-.68-.22,1.039,1.039,0,0,0-.69.22,3.191,3.191,0,0,1-3.43,0,1.176,1.176,0,0,0-1.37,0,3.01,3.01,0,0,1-1.71.5,3.048,3.048,0,0,1-1.72-.5,1.012,1.012,0,0,0-.68-.22v-2a2.983,2.983,0,0,1,1.71.5,1.056,1.056,0,0,0,.69.22,1.012,1.012,0,0,0,.68-.22,3.048,3.048,0,0,1,1.72-.5,3.01,3.01,0,0,1,1.71.5,1.176,1.176,0,0,0,1.37,0,3.048,3.048,0,0,1,1.72-.5,2.983,2.983,0,0,1,1.71.5,1.056,1.056,0,0,0,.69.22V39H26V37H44V34H26V32H44V30H30V28H44V24H4ZM26,28h2v2H26ZM15,27a9,9,0,1,1-9,9A9.014,9.014,0,0,1,15,27Z"></path><polygon points="59 23 57 23 56 23 56 28 58 28 58 30 56 30 56 32 58 32 58 34 56 34 56 37 58 37 58 39 56 39 56 50 60 50 60 25 60 24 60 23 59 23"></polygon></g></svg>