<svg xmlns="http://www.w3.org/2000/svg" viewBox="0 0 64 64" x="0px" y="0px"><g><circle cx="21" cy="58" r="2"></circle><circle cx="43" cy="58" r="2"></circle><path d="M27,38a3,3,0,0,0-3,3v7H40V41a3,3,0,0,0-3-3Z"></path><circle cx="10" cy="33" r="2"></circle><path d="M45,48V35.362L40.532,30H23.468L19,35.362V48h3V41a5.006,5.006,0,0,1,5-5H37a5.006,5.006,0,0,1,5,5v7Z"></path><path d="M9,36.858V47a1,1,0,0,0,2,0V36.858a3.592,3.592,0,0,1-2,0Z"></path><path d="M53,36.858V47a1,1,0,0,0,2,0V36.858a3.592,3.592,0,0,1-2,0Z"></path><circle cx="37" cy="21" r="1"></circle><circle cx="54" cy="33" r="2"></circle><path d="M44.8,32l1.666,2h3.674a3.592,3.592,0,0,1,0-2Z"></path><path d="M22,17V27a1,1,0,0,0,1,1h4V27a3,3,0,0,1,3-3h4a3,3,0,0,1,3,3v1h4a1,1,0,0,0,1-1V17a1,1,0,0,0-1-1H23A1,1,0,0,0,22,17Zm15,1a3,3,0,1,1-3,3A3,3,0,0,1,37,18ZM27,18a3,3,0,1,1-3,3A3,3,0,0,1,27,18Z"></path><polygon points="20.881 7 32 9.965 43.119 7 32 4.035 20.881 7"></polygon><path d="M30,26a1,1,0,0,0-1,1v1h6V27a1,1,0,0,0-1-1Z"></path><path d="M17.532,34,19.2,32h-5.34a3.592,3.592,0,0,1,0,2Z"></path><path d="M32.258,11.966a1,1,0,0,1-.516,0L24,9.9V14H40V9.9Z"></path><circle cx="27" cy="21" r="1"></circle><polygon points="42.382 54 44.382 50 19.618 50 21.618 54 42.382 54"></polygon><path d="M58,52H56a2,2,0,0,0-4,0H50a4,4,0,0,1,8,0Z"></path><path d="M14,52H12a2,2,0,0,0-4,0H6a4,4,0,0,1,8,0Z"></path><path d="M48,11.279V7H46v4.279a2,2,0,1,0,2,0Z"></path></g></svg>