<svg xmlns="http://www.w3.org/2000/svg" viewBox="0 0 64 64" x="0px" y="0px"><g data-name="Time Management-Smartphone-Hand-Timetable-Clock"><circle cx="45" cy="19" r="1"></circle><path d="M54,18h1.949a10.9,10.9,0,0,0-.973-3.605l-1.682.971-1-1.732,1.682-.971a11.1,11.1,0,0,0-2.639-2.639l-.971,1.682-1.732-1,.971-1.682A10.9,10.9,0,0,0,46,8.051V10H44V8.051a10.9,10.9,0,0,0-3.6.973l.971,1.682-1.732,1-.971-1.682a11.1,11.1,0,0,0-2.639,2.639l1.682.971-1,1.732L35.024,14.4A10.9,10.9,0,0,0,34.051,18H36v2H34.051a10.9,10.9,0,0,0,.973,3.605l1.682-.971,1,1.732-1.682.971a11.1,11.1,0,0,0,2.639,2.639l.971-1.682,1.732,1L40.4,28.976a10.9,10.9,0,0,0,3.6.973V28h2v1.949a10.9,10.9,0,0,0,3.6-.973l-.971-1.682,1.732-1,.971,1.682a11.1,11.1,0,0,0,2.639-2.639l-1.682-.971,1-1.732,1.682.971A10.9,10.9,0,0,0,55.949,20H54Zm-9,4a2.951,2.951,0,0,1-1.285-.3l-2.008,2.008-1.414-1.414L42.3,20.285A2.951,2.951,0,0,1,42,19a3,3,0,0,1,2-2.816V12h2v4.184A2.993,2.993,0,0,1,45,22Z"></path><path d="M45,4A15,15,0,1,0,60,19,15.018,15.018,0,0,0,45,4Zm0,28A13,13,0,1,1,58,19,13.015,13.015,0,0,1,45,32Z"></path><path d="M28,20a3.009,3.009,0,0,0-3-3H13a3.009,3.009,0,0,0-3,3V41.72l2.29,3.81a.953.953,0,0,0,.83.48.982.982,0,0,0,.97-.73l1.15-4.3a3.007,3.007,0,0,1,5.5-.73,3.032,3.032,0,0,1,.3,2.28l-.13.47H22v2H20.37l-.53,2H25a3.009,3.009,0,0,0,3-3ZM16,19h6v2H16Zm-4,2V19h2v2ZM25,35H13V33H25Zm0-4H13V29H25Zm0-4H13V25H25Z"></path><path d="M19,41.25a.963.963,0,0,0-.6-.46,1.006,1.006,0,0,0-1.23.71l-1.15,4.3a2.987,2.987,0,0,1-2.92,2.21,2.956,2.956,0,0,1-2.53-1.45L8.14,42.51A1,1,0,0,1,8,42V34.1A5.009,5.009,0,0,0,4,39V50.88l.97,3.88A.986.986,0,0,1,5,55v5h9V57a.984.984,0,0,1,.2-.6L17,52.67V50.79a6.922,6.922,0,0,1,.24-1.81l1.86-6.97A.974.974,0,0,0,19,41.25Z"></path></g></svg>