<svg xmlns="http://www.w3.org/2000/svg" viewBox="0 0 64 64" x="0px" y="0px"><g data-name="Liquid Ban"><path d="M32,52A10,10,0,1,0,22,42,10.011,10.011,0,0,0,32,52ZM24.929,37.758l2.828-2.829a1.029,1.029,0,0,1,1.414,0L32,37.758l2.829-2.829a1,1,0,0,1,1.414,0l2.828,2.829a1,1,0,0,1,0,1.414L36.243,42l2.828,2.828a1,1,0,0,1,0,1.414l-2.828,2.829a1,1,0,0,1-1.414,0L32,46.242l-2.829,2.829a1,1,0,0,1-1.414,0l-2.828-2.829a1,1,0,0,1,0-1.414L27.757,42l-2.828-2.828A1,1,0,0,1,24.929,37.758Z"></path><path d="M23.446,25.235A9.046,9.046,0,0,0,19,33V59a1,1,0,0,0,1,1H44a1,1,0,0,0,1-1V33a9.046,9.046,0,0,0-4.446-7.765A11.165,11.165,0,0,1,35,15.686V10H29v5.686A11.165,11.165,0,0,1,23.446,25.235ZM32,30A12,12,0,1,1,20,42,12.013,12.013,0,0,1,32,30Z"></path><rect x="29" y="4" width="6" height="4"></rect><path d="M29.878,42.707,27.05,45.535l1.414,1.415,2.829-2.829a1,1,0,0,1,1.414,0l2.829,2.829,1.414-1.415-2.828-2.828a1,1,0,0,1,0-1.414l2.828-2.828L35.536,37.05l-2.829,2.829a1.029,1.029,0,0,1-1.414,0L28.464,37.05,27.05,38.465l2.828,2.828A1,1,0,0,1,29.878,42.707Z"></path></g></svg>