<svg xmlns="http://www.w3.org/2000/svg" viewBox="0 0 64 64" x="0px" y="0px"><g><rect x="36" y="30" width="4" height="4"></rect><rect x="24" y="30" width="4" height="4"></rect><rect x="30" y="30" width="4" height="4"></rect><polygon points="30 40.42 30 45.58 34.865 43 30 40.42"></polygon><path d="M18,36V50H46V36Zm19.47,7.88-8,4.25a1.116,1.116,0,0,1-.47.11,1.067,1.067,0,0,1-.52-.14,1,1,0,0,1-.48-.86V38.76a1,1,0,0,1,.48-.86,1.025,1.025,0,0,1,.99-.03l8,4.25a1,1,0,0,1,0,1.76Z"></path><rect x="18" y="30" width="4" height="4"></rect><rect x="30" y="52" width="4" height="4"></rect><rect x="18" y="52" width="4" height="4"></rect><rect x="42" y="30" width="4" height="4"></rect><path d="M49.82,43.86,48,44V29a1,1,0,0,0-1-1H17a1,1,0,0,0-1,1V44H13a9,9,0,0,1-2.6-17.62,1,1,0,0,0,.71-.82A11.007,11.007,0,0,1,22,16c.15,0,.3.01.45.02l.21.01a1.035,1.035,0,0,0,.95-.53,13.985,13.985,0,0,1,26.15,3.98.994.994,0,0,0,.77.79,12,12,0,0,1-.71,23.59Z"></path><rect x="36" y="52" width="4" height="4"></rect><rect x="42" y="52" width="4" height="4"></rect><rect x="24" y="52" width="4" height="4"></rect></g></svg>