<svg xmlns="http://www.w3.org/2000/svg" viewBox="0 0 64 64" x="0px" y="0px"><title>Mobile App-Shipping-TrackingPackage-Chat</title><g data-name="Mobile App-Shipping-Tracking"><path d="M28.8,20.4A1,1,0,0,0,28,20H14a1,1,0,0,0-.8.4l-3,4a1,1,0,0,0-.2.6V42a2,2,0,0,0,2,2H30a2,2,0,0,0,2-2V25a1,1,0,0,0-.2-.6ZM14.5,22h13L29,24H13ZM17,28H12V26h5Zm2-2h4v5.131l-1.445-.963a1,1,0,0,0-1.11,0L19,31.131Zm6,0h5v2H25ZM12,42V30h5v3a1,1,0,0,0,1.555.832L21,32.2l2.445,1.63A1,1,0,0,0,25,33V30h5V42Z"></path><path d="M59,10H40V7a5.006,5.006,0,0,0-5-5H7A5.006,5.006,0,0,0,2,7V57a5.006,5.006,0,0,0,5,5H35a5.006,5.006,0,0,0,5-5V28h2v5a1,1,0,0,0,1.707.707L49.414,28H59a3,3,0,0,0,3-3V13A3,3,0,0,0,59,10ZM14,4H28V6H14ZM38,57a3,3,0,0,1-3,3H7a3,3,0,0,1-3-3V7A3,3,0,0,1,7,4h5V6a2,2,0,0,0,2,2H28a2,2,0,0,0,2-2V4h5a3,3,0,0,1,3,3v3H37a3,3,0,0,0-3,3V25a3,3,0,0,0,3,3h1ZM60,25a1,1,0,0,1-1,1H49a1,1,0,0,0-.707.293L44,30.586V27a1,1,0,0,0-1-1H37a1,1,0,0,1-1-1V13a1,1,0,0,1,1-1H59a1,1,0,0,1,1,1Z"></path><rect x="40" y="16" width="16" height="2"></rect><rect x="40" y="20" width="16" height="2"></rect><rect x="44" y="46" width="8" height="2"></rect><rect x="43.86" y="39" width="7.28" height="2" transform="translate(-9.166 14.6) rotate(-15.957)"></rect><rect x="46.5" y="50.36" width="2" height="7.28" transform="translate(-17.472 84.837) rotate(-74.055)"></rect><rect x="16" y="49" width="2" height="2"></rect><rect x="20" y="49" width="2" height="2"></rect><rect x="24" y="49" width="2" height="2"></rect></g></svg>