<svg xmlns="http://www.w3.org/2000/svg" viewBox="0 0 64 64" x="0px" y="0px"><title>Bank-Office</title><g><path d="M61,24a1,1,0,0,0,1-1V17a1,1,0,0,0-1-1H59V9a1,1,0,0,0-.775-.975l-26-6a1.035,1.035,0,0,0-.45,0l-26,6A1,1,0,0,0,5,9v7H3a1,1,0,0,0-1,1v6a1,1,0,0,0,1,1H7V50H6a1,1,0,0,0-1,1v5H3a1,1,0,0,0-1,1v4a1,1,0,0,0,1,1H61a1,1,0,0,0,1-1V57a1,1,0,0,0-1-1H59V51a1,1,0,0,0-1-1H57V24ZM7,9.8l25-5.77L57,9.8V16H7ZM4,18H60v4H4ZM17,50V24H47V50ZM9,24h6V50H9ZM60,60H4V58H60ZM7,56V52H57v4Zm48-6H49V24h6Z"></path><path d="M32,6a4,4,0,1,0,4,4A4,4,0,0,0,32,6Zm0,6a2,2,0,1,1,2-2A2,2,0,0,1,32,12Z"></path><path d="M32,34a1,1,0,0,1,1,1h2a3,3,0,0,0-2-2.816V31H31v1.184A2.993,2.993,0,0,0,32,38a1,1,0,1,1-1,1H29a3,3,0,0,0,2,2.816V43h2V41.816A2.993,2.993,0,0,0,32,36a1,1,0,0,1,0-2Z"></path><path d="M32,28a9,9,0,1,0,9,9A9.01,9.01,0,0,0,32,28Zm0,16a7,7,0,1,1,7-7A7.009,7.009,0,0,1,32,44Z"></path><rect x="36" y="36" width="2" height="2"></rect><rect x="26" y="36" width="2" height="2"></rect></g></svg>