<svg xmlns="http://www.w3.org/2000/svg" viewBox="0 0 64 64" x="0px" y="0px"><g data-name="Smart Home-Cloud-Smartphone-Technology-Communication"><path d="M35.16,43.18,30,39.54V34a1,1,0,0,0-1-1H25a1,1,0,0,0-1,1v1.31l-4.42-3.13a1.024,1.024,0,0,0-1.16,0l-15.58,11A2.787,2.787,0,1,0,6.1,47.7L8,46.31V60a2.006,2.006,0,0,0,2,2H28a2.006,2.006,0,0,0,2-2V46.31l1.9,1.39a2.754,2.754,0,0,0,1.64.54A2.75,2.75,0,0,0,35.87,47,2.776,2.776,0,0,0,35.16,43.18ZM26,35h2v3.13l-2-1.41ZM18,60H14V54h4Zm10,0H20V53a1,1,0,0,0-1-1H13a1,1,0,0,0-1,1v7H10V44.84l9-6.6,9,6.6Zm6.2-14.11a.784.784,0,0,1-.51.34.748.748,0,0,1-.6-.14l-13.5-9.9a1.011,1.011,0,0,0-1.18,0l-13.5,9.9a.748.748,0,0,1-.6.14A.791.791,0,0,1,4,44.81L19,34.22,34,44.81A.784.784,0,0,1,34.2,45.89Z"></path><path d="M21,53v4a1,1,0,0,0,1,1h4a1,1,0,0,0,1-1V53a1,1,0,0,0-1-1H22A1,1,0,0,0,21,53Zm2,1h2v2H23Z"></path><path d="M15,46a4,4,0,1,0,4-4A4,4,0,0,0,15,46Zm6,0a2,2,0,1,1-2-2A2,2,0,0,1,21,46Z"></path><path d="M14,23H34a6,6,0,0,0,0-12h-.063A8,8,0,0,0,18.573,7.042,3.915,3.915,0,0,0,18,7a4,4,0,0,0-4,4,6,6,0,0,0,0,12Zm0-10h1.184a1,1,0,0,0,.942-1.333A1.973,1.973,0,0,1,18,9a2,2,0,0,1,.815.179,1,1,0,0,0,1.379-.665,6,6,0,1,1,11.554,3.2A1,1,0,0,0,32.706,13H34a4,4,0,0,1,0,8H14a4,4,0,0,1,0-8Z"></path><rect x="23" y="17" width="2" height="2"></rect><path d="M20.464,14.464l1.414,1.414a3.006,3.006,0,0,1,4.244,0l1.414-1.414A5.008,5.008,0,0,0,20.464,14.464Z"></path><path d="M24,11a6.956,6.956,0,0,1,4.95,2.05l1.414-1.414a9,9,0,0,0-12.728,0L19.05,13.05A6.956,6.956,0,0,1,24,11Z"></path><path d="M57,25H47a5.006,5.006,0,0,0-5,5V50a5.006,5.006,0,0,0,5,5H57a5.006,5.006,0,0,0,5-5V30A5.006,5.006,0,0,0,57,25Zm3,25a3,3,0,0,1-3,3H47a3,3,0,0,1-3-3V30a3,3,0,0,1,3-3H57a3,3,0,0,1,3,3Z"></path><rect x="50" y="29" width="4" height="2"></rect><rect x="46" y="29" width="2" height="2"></rect><rect x="50" y="49" width="4" height="2"></rect><rect x="51" y="43" width="2" height="2"></rect><path d="M48.464,40.464l1.414,1.414a3.006,3.006,0,0,1,4.244,0l1.414-1.414A5.008,5.008,0,0,0,48.464,40.464Z"></path><path d="M45.636,37.636,47.05,39.05a7,7,0,0,1,9.9,0l1.414-1.414a9,9,0,0,0-12.728,0Z"></path><path d="M31,25a3,3,0,0,0,0,6,2.951,2.951,0,0,0,1.285-.3l2.008,2.008A1,1,0,0,0,35,33h5V31H35.414L33.7,29.285A2.951,2.951,0,0,0,34,28,3,3,0,0,0,31,25Zm-1,3a1,1,0,1,1,1,1A1,1,0,0,1,30,28Z"></path><path d="M42,11a2.951,2.951,0,0,0,1.285-.3L51,18.414V23h2V18a1,1,0,0,0-.293-.707L44.7,9.285A2.951,2.951,0,0,0,45,8a3,3,0,1,0-3,3Zm0-4a1,1,0,1,1-1,1A1,1,0,0,1,42,7Z"></path><path d="M51,58H32v2H52a1,1,0,0,0,1-1V57H51Z"></path><rect x="32" y="54" width="2" height="2"></rect><rect x="36" y="54" width="2" height="2"></rect><rect x="40" y="54" width="2" height="2"></rect><rect x="11" y="25" width="2" height="2"></rect><rect x="11" y="29" width="2" height="2"></rect><rect x="15" y="25" width="2" height="6"></rect></g></svg>