<svg xmlns="http://www.w3.org/2000/svg" viewBox="0 0 64 64" x="0px" y="0px"><title>Empty</title><g><path d="M17.5,24A2.5,2.5,0,0,1,15,21.5H13a4.5,4.5,0,0,0,9,0H20A2.5,2.5,0,0,1,17.5,24Z"></path><path d="M58,40a9.011,9.011,0,0,1-9,9,1,1,0,0,0-1,1V60H26V51h5V49H17a5.006,5.006,0,0,1-5-5V36a1,1,0,0,0-1-1H6.385l6.539-19.748A17.9,17.9,0,0,1,29.391,4H46V2H29.391a19.913,19.913,0,0,0-18.34,12.555l-7,21.131A1,1,0,0,0,5,37h5v7a7.008,7.008,0,0,0,7,7h7V61a1,1,0,0,0,1,1H49a1,1,0,0,0,1-1V50.955A11.015,11.015,0,0,0,60,40V33H58Z"></path><path d="M60,5H58V3a1,1,0,0,0-1-1H53a1,1,0,0,0-1,1V5H50a2,2,0,0,0-2,2V29a2,2,0,0,0,2,2H60a2,2,0,0,0,2-2V7A2,2,0,0,0,60,5ZM54,4h2V5H54ZM50,29V7H60V29Z"></path></g></svg>