<svg xmlns="http://www.w3.org/2000/svg" viewBox="0 0 64 64" x="0px" y="0px"><g><path d="M35.078,45h-.9l-.278-.854a2,2,0,0,0-3.8,0L29.82,45h-.9a2,2,0,0,0-1.175,3.617l.726.529L28.2,50a2,2,0,0,0,3.077,2.235L32,51.708l.727.527a1.969,1.969,0,0,0,2.351,0A1.969,1.969,0,0,0,35.8,50l-.277-.854.726-.529A2,2,0,0,0,35.078,45Zm-1.315,2.955a1,1,0,0,0-.363,1.117l.5,1.546-1.314-.955a1,1,0,0,0-1.176,0l-1.314.954.5-1.545a1,1,0,0,0-.363-1.117L28.922,47h1.625a1,1,0,0,0,.951-.691l.5-1.557,0,.012.5,1.545a1,1,0,0,0,.951.691h1.625Z"></path><path d="M45,35V31.28L60.01,6.56A3,3,0,0,0,57.45,2H6.55A3,3,0,0,0,3.99,6.56L19,31.28V35a1,1,0,0,0,1,1h4.83a14,14,0,1,0,14.34,0H44A1,1,0,0,0,45,35ZM49.56,4h3.66L37.44,30H33.78Zm-7.19,8L32,29.07,21.63,12ZM20.42,10,19.21,8H44.79l-1.21,2Zm26.8-6L46.01,6H17.99L16.78,4ZM14.44,4,30.22,30H26.56L10.78,4ZM5.7,5.52A1,1,0,0,1,6.55,4H8.44L24.22,30H20.56ZM31,36.05v2a9.949,9.949,0,0,0-5.32,2.21l-1.42-1.41A11.9,11.9,0,0,1,31,36.05Zm-8.15,4.21,1.41,1.42A9.949,9.949,0,0,0,22.05,47h-2A11.9,11.9,0,0,1,22.85,40.26ZM20.05,49h2a9.949,9.949,0,0,0,2.21,5.32l-1.41,1.42A11.9,11.9,0,0,1,20.05,49ZM31,59.95a11.9,11.9,0,0,1-6.74-2.8l1.42-1.41A9.949,9.949,0,0,0,31,57.95ZM24,48a8,8,0,1,1,8,8A8.011,8.011,0,0,1,24,48Zm9,11.95v-2a9.949,9.949,0,0,0,5.32-2.21l1.42,1.41A11.9,11.9,0,0,1,33,59.95Zm8.15-4.21-1.41-1.42A9.949,9.949,0,0,0,41.95,49h2A11.9,11.9,0,0,1,41.15,55.74ZM43.95,47h-2a9.949,9.949,0,0,0-2.21-5.32l1.41-1.42A11.9,11.9,0,0,1,43.95,47Zm-4.21-8.15-1.42,1.41A9.949,9.949,0,0,0,33,38.05v-2A11.9,11.9,0,0,1,39.74,38.85ZM43,34H21V32H43Zm-3.22-4L55.56,4h1.89a1,1,0,0,1,.85,1.52L43.44,30Z"></path></g></svg>