<svg xmlns="http://www.w3.org/2000/svg" viewBox="0 0 64 64" x="0px" y="0px"><title>Make money-Business</title><g data-name="Make money-Business"><path d="M36,37a10.993,10.993,0,0,0,5-20.786V12H39v3.426a10.776,10.776,0,0,0-6,0V12H31v4.214A10.993,10.993,0,0,0,36,37Zm0-20a9,9,0,1,1-9,9A9.011,9.011,0,0,1,36,17Z"></path><path d="M34,31h1v2h2V31h1a2,2,0,0,0,2-2V27a2,2,0,0,0-2-2H34V23h4v1h2V23a2,2,0,0,0-2-2H37V19H35v2H34a2,2,0,0,0-2,2v2a2,2,0,0,0,2,2h4v2H34V28H32v1A2,2,0,0,0,34,31Z"></path><rect x="41" y="25" width="2" height="2"></rect><rect x="29" y="25" width="2" height="2"></rect><path d="M59.589,37.706l-1.41-1.42,0,0a5.017,5.017,0,0,0-7.08.007l-9.263,9.433A5.009,5.009,0,0,0,37,42H30.321A6.986,6.986,0,0,0,24,38H19a6.977,6.977,0,0,0-5,2.11V37a1,1,0,0,0-1-1H5a1,1,0,0,0-1,1V59a1,1,0,0,0,1,1h8a1,1,0,0,0,1-1V57l27.27.019h0a1,1,0,0,0,.707-.293l17.61-17.61A1,1,0,0,0,59.589,37.706ZM12,58H6V38h6Zm28.856-2.98L14,55V45a5.006,5.006,0,0,1,5-5h5a4.978,4.978,0,0,1,4.706,3.329A1,1,0,0,0,29.65,44H37a3,3,0,0,1,3,3H25v2H41v-.009a.994.994,0,0,0,.713-.29l10.8-11a3.013,3.013,0,0,1,4.246-.005l.707.713Z"></path><rect x="7" y="40" width="2" height="2"></rect><rect x="51" y="12" width="2" height="2"></rect><rect x="53" y="14" width="2" height="2"></rect><rect x="51" y="16" width="2" height="2"></rect><rect x="49" y="14" width="2" height="2"></rect><rect x="13" y="23" width="2" height="2"></rect><rect x="15" y="25" width="2" height="2"></rect><rect x="13" y="27" width="2" height="2"></rect><rect x="11" y="25" width="2" height="2"></rect><rect x="19" y="7" width="2" height="2"></rect><rect x="21" y="9" width="2" height="2"></rect><rect x="19" y="11" width="2" height="2"></rect><rect x="17" y="9" width="2" height="2"></rect><rect x="31" y="8" width="2" height="2"></rect><rect x="35" y="8" width="2" height="5"></rect><rect x="35" y="4" width="2" height="2"></rect><rect x="39" y="8" width="2" height="2"></rect></g></svg>