<svg xmlns="http://www.w3.org/2000/svg" viewBox="0 0 64 64" x="0px" y="0px"><title>Employee Card-card-worker-idendification-business
</title><g data-name="Employee Card"><path d="M36,35H28a3,3,0,0,0-3,3v2H39V38A3,3,0,0,0,36,35Z"></path><circle cx="32" cy="28" r="3"></circle><path d="M43,21H21V44H43ZM41,41a1,1,0,0,1-1,1H24a1,1,0,0,1-1-1V38a5.006,5.006,0,0,1,5-5h4a5,5,0,1,1,5-5,5.006,5.006,0,0,1-5,5h4a5.006,5.006,0,0,1,5,5Z"></path><circle cx="32" cy="8" r="1"></circle><path d="M27.41,7H22.19A1.192,1.192,0,0,0,21,8.19V13H43V8.19A1.192,1.192,0,0,0,41.81,7H36.59a1,1,0,0,1-.914-.595,4.012,4.012,0,0,0-7.352,0A1,1,0,0,1,27.41,7ZM32,5a3,3,0,1,1-3,3A3,3,0,0,1,32,5Z"></path><path d="M13,10V60H51V10H45v4a1,1,0,0,1-1,1H20a1,1,0,0,1-1-1V10ZM42,56H22V54H42ZM27,52V50H37v2ZM20,19H44a1,1,0,0,1,1,1V45a1,1,0,0,1-1,1H20a1,1,0,0,1-1-1V20A1,1,0,0,1,20,19Z"></path></g></svg>