<svg xmlns="http://www.w3.org/2000/svg" viewBox="0 0 32 32" x="0px" y="0px"><title>File Love</title><g data-name="File Love"><path d="M26,9v8h2V8c0-.019-.009-.037-.01-.056a1.494,1.494,0,0,0-.067-.316.985.985,0,0,0-.164-.279l-6-7a1.009,1.009,0,0,0-.306-.231c-.03-.015-.059-.026-.091-.039A1,1,0,0,0,21.047.01C21.031.01,21.016,0,21,0H5A1,1,0,0,0,4,1V31a1,1,0,0,0,1,1H19V30H6V2H20V8a1,1,0,0,0,1,1ZM22,3.7,24.826,7H22Z"></path><path d="M28.95,23.005l0-.01-.006-.031A2.5,2.5,0,0,0,25,21.5a2.5,2.5,0,0,0-3.942,1.463l-.006.03,0,.012A2.464,2.464,0,0,0,21,23.5a2.888,2.888,0,0,0,.049.541c.387,1.99,2.979,4.424,3.274,4.7a1,1,0,0,0,1.354,0c.3-.271,2.887-2.705,3.276-4.7A2.912,2.912,0,0,0,29,23.5,2.481,2.481,0,0,0,28.95,23.005Zm-1.962.655A8.053,8.053,0,0,1,25,26.591a8.161,8.161,0,0,1-1.988-2.924.992.992,0,0,1,0-.265l0-.021v0A.5.5,0,0,1,24,23.5a1,1,0,0,0,2,0,.5.5,0,0,1,.985-.121h0l0,.022a.453.453,0,0,1,.01.1A.941.941,0,0,1,26.988,23.66Z"></path></g></svg>