<svg xmlns="http://www.w3.org/2000/svg" viewBox="0 0 64 64" x="0px" y="0px"><g data-name="Leaning Tower Of Pisa-Pisa-Landmark-Italy-Monuments"><rect x="23.909" y="45.962" width="2" height="2" transform="translate(-23.675 68.536) rotate(-86.001)"></rect><rect x="24.328" y="39.977" width="2" height="2" transform="translate(-17.316 63.384) rotate(-86)"></rect><rect x="24.746" y="33.991" width="2" height="2" transform="translate(-10.956 58.234) rotate(-86)"></rect><rect x="25.165" y="28.006" width="2" height="2" transform="translate(-4.595 53.084) rotate(-86.001)"></rect><rect x="25.583" y="22.02" width="2" height="2" transform="translate(1.765 47.933) rotate(-86)"></rect><rect x="26.002" y="16.035" width="2" height="2" transform="translate(8.125 42.783) rotate(-86)"></rect><rect x="39.87" y="47.078" width="2" height="2" transform="translate(-9.942 85.495) rotate(-86)"></rect><rect x="40.289" y="41.093" width="2" height="2" transform="translate(-3.582 80.344) rotate(-86)"></rect><rect x="40.707" y="35.107" width="2" height="2" transform="translate(2.778 75.194) rotate(-86)"></rect><rect x="41.126" y="29.122" width="2" height="2" transform="translate(9.139 70.044) rotate(-86)"></rect><rect x="41.544" y="23.136" width="2" height="2" transform="translate(15.499 64.893) rotate(-86)"></rect><rect x="41.963" y="17.151" width="2" height="2" transform="translate(21.859 59.743) rotate(-86)"></rect><polygon points="30.204 14.252 32.199 14.391 32.06 16.386 34.055 16.526 34.194 14.531 36.189 14.67 36.05 16.665 38.045 16.805 38.184 14.81 40.18 14.949 40.04 16.944 42.035 17.084 42.314 13.094 44.309 13.233 44.449 11.238 40.459 10.959 40.319 12.954 30.343 12.256 30.483 10.261 26.493 9.982 26.353 11.977 28.348 12.117 28.069 16.107 30.064 16.247 30.204 14.252"></polygon><polygon points="29.785 20.237 31.781 20.376 31.641 22.372 33.636 22.511 33.776 20.516 35.771 20.655 35.631 22.651 37.626 22.79 37.766 20.795 39.761 20.935 39.622 22.93 41.617 23.069 41.896 19.079 27.93 18.102 27.651 22.093 29.646 22.232 29.785 20.237"></polygon><polygon points="28.111 44.178 30.106 44.318 29.967 46.313 31.962 46.453 32.102 44.458 34.097 44.597 33.957 46.592 35.952 46.732 36.092 44.737 38.087 44.876 37.947 46.871 39.943 47.011 40.221 43.02 26.256 42.044 25.977 46.034 27.972 46.174 28.111 44.178"></polygon><polygon points="29.367 26.222 31.362 26.362 31.222 28.357 33.218 28.496 33.357 26.501 35.352 26.641 35.213 28.636 37.208 28.776 37.347 26.78 39.342 26.92 39.203 28.915 41.198 29.055 41.477 25.064 27.511 24.088 27.232 28.078 29.227 28.217 29.367 26.222"></polygon><polygon points="28.53 38.193 30.525 38.333 30.385 40.328 32.38 40.467 32.52 38.472 34.515 38.612 34.376 40.607 36.371 40.746 36.51 38.751 38.505 38.891 38.366 40.886 40.361 41.025 40.64 37.035 26.674 36.058 26.395 40.049 28.39 40.188 28.53 38.193"></polygon><polygon points="28.948 32.208 30.943 32.347 30.804 34.342 32.799 34.482 32.939 32.487 34.934 32.626 34.794 34.621 36.789 34.761 36.929 32.766 38.924 32.905 38.784 34.9 40.78 35.04 41.059 31.05 27.093 30.073 26.814 34.063 28.809 34.203 28.948 32.208"></polygon><polygon points="32.618 8.406 34.613 8.545 34.473 10.54 36.468 10.68 36.608 8.685 38.603 8.824 38.463 10.819 40.459 10.959 40.738 6.969 42.733 7.108 42.872 5.113 40.877 4.973 30.901 4.276 28.906 4.136 28.767 6.132 30.762 6.271 30.483 10.261 32.478 10.401 32.618 8.406"></polygon><path d="M39.1,59l.42-6a1,1,0,0,0-1.067.928L38.1,59h-2l.364-5.216A3,3,0,0,1,39.663,51l.14-1.995-13.966-.977L25.7,50.024a3,3,0,0,1,2.783,3.2L28.077,59H26.072l.414-5.913a1,1,0,0,0-.928-1.068L25.07,59H3v2H61V59Zm-9.625-5.7a3,3,0,0,1,5.985.419L35.094,59H33.089l.38-5.425a1,1,0,0,0-2-.139L31.085,59H29.08Z"></path></g></svg>