<svg xmlns="http://www.w3.org/2000/svg" viewBox="0 0 64 64" x="0px" y="0px"><g><path d="M16,25H3a1,1,0,0,1-1-1V2H4V23H16Z"></path><rect x="7" y="15" width="4" height="8"></rect><path d="M34.069,41a8,8,0,0,0,3.725,5.792l1.5-1.5,1.414,1.414-.964.964A7.935,7.935,0,0,0,46.9,46.312L41.586,41Z"></path><path d="M41,32.069A8.008,8.008,0,0,0,34.069,39H41Z"></path><path d="M47.2,33.928l-1.427,1.713-1.536-1.282,1.28-1.536A7.933,7.933,0,0,0,43,32.069v7.517L48.311,44.9A7.963,7.963,0,0,0,47.2,33.928Z"></path><rect x="16" y="11" width="4" height="12"></rect><path d="M60,16H53a5.006,5.006,0,0,1-5-5V4H21a3,3,0,0,0-3,3V9h3a1,1,0,0,1,1,1V23h1V6a1,1,0,0,1,1-1h6a1,1,0,0,1,1,1V23h2v2H18V51a3,3,0,0,0,3,3H57a3,3,0,0,0,3-3ZM39,16h8v2H39Zm-4,0h2v2H35Zm0,4H47v2H35ZM31,52H27V50h4Zm0-3H27V47h4Zm0-12H27V35h4Zm0-3H27V32h4Zm21-4H50.468l-1.994,2.393a9.991,9.991,0,0,1-10.3,16.844l-2.47,2.47A1,1,0,0,1,35,52H33V50h1.586l1.76-1.76a9.994,9.994,0,0,1,10.48-16.993l2.406-2.888A1,1,0,0,1,50,28h2Zm6,2H54V30h4Zm0-3H54V27h4Z"></path><rect x="25" y="7" width="4" height="16"></rect><path d="M58.586,14,50,5.414V11a3,3,0,0,0,3,3Z"></path><polygon points="10 44 8 44 8 37 6 37 6 53 12 53 12 37 10 37 10 44"></polygon><path d="M7,55l1,1.333V59a1,1,0,0,0,2,0V56.333L11,55Z"></path><rect x="6" y="33" width="6" height="2"></rect><rect x="8" y="29" width="2" height="2"></rect></g></svg>