<svg xmlns="http://www.w3.org/2000/svg" viewBox="0 0 64 64" x="0px" y="0px"><g data-name="Calendar-Passive-Date and Time-Schedule-Money"><path d="M15,22a2,2,0,0,0-2-2H8a2,2,0,0,0-2,2v5a2,2,0,0,0,2,2h5a2,2,0,0,0,2-2ZM8,27V22h5v5Z"></path><path d="M26,22a2,2,0,0,0-2-2H19a2,2,0,0,0-2,2v5a2,2,0,0,0,2,2h5a2,2,0,0,0,2-2Zm-7,5V22h5v5Z"></path><path d="M37,22a2,2,0,0,0-2-2H30a2,2,0,0,0-2,2v5a2,2,0,0,0,2,2h5a2,2,0,0,0,2-2Zm-7,5V22h5v5Z"></path><path d="M48,27V22a2,2,0,0,0-2-2H41a2,2,0,0,0-2,2v5a2,2,0,0,0,2,2h5A2,2,0,0,0,48,27Zm-7-5h5v5H41Z"></path><path d="M15,33a2,2,0,0,0-2-2H8a2,2,0,0,0-2,2v5a2,2,0,0,0,2,2h5a2,2,0,0,0,2-2ZM8,38V33h5v5Z"></path><path d="M26,33a2,2,0,0,0-2-2H19a2,2,0,0,0-2,2v5a2,2,0,0,0,2,2h5a2,2,0,0,0,2-2Zm-7,5V33h5v5Z"></path><path d="M37,33a2,2,0,0,0-2-2H30a2,2,0,0,0-2,2v5a2,2,0,0,0,2,2h5a2,2,0,0,0,2-2Zm-7,5V33h5v5Z"></path><path d="M43,38H41V31a2,2,0,0,0-2,2v5a2,2,0,0,0,2,2h2Z"></path><path d="M13,42H8a2,2,0,0,0-2,2v5a2,2,0,0,0,2,2h5a2,2,0,0,0,2-2V44A2,2,0,0,0,13,42ZM8,49V44h5v5Z"></path><path d="M24,42H19a2,2,0,0,0-2,2v5a2,2,0,0,0,2,2h5a2,2,0,0,0,2-2V44A2,2,0,0,0,24,42Zm-5,7V44h5v5Z"></path><path d="M37,47V44a2,2,0,0,0-2-2H30a2,2,0,0,0-2,2v3h2V44h5v3Z"></path><path d="M39,44v3h2V44h1V42H41A2,2,0,0,0,39,44Z"></path><path d="M61.95,32.26a1.03,1.03,0,0,0-.71-.49l-1.87-.29A7.012,7.012,0,0,0,52,35.35a7.012,7.012,0,0,0-7.37-3.87l-1.87.29a1.03,1.03,0,0,0-.71.49,1,1,0,0,0-.06.86l.67,1.76a7.057,7.057,0,0,0,6.55,4.49,6.559,6.559,0,0,0,1.08-.09l.71-.11V42H46a3.009,3.009,0,0,0-3,3v2a2.923,2.923,0,0,0,.32,1.32A2.923,2.923,0,0,0,42,48H30a3.009,3.009,0,0,0-3,3v2H5a1,1,0,0,1-1-1V18H50V31.83h2V10a3.009,3.009,0,0,0-3-3H41V5a3,3,0,0,0-6,0V7H19V5a3,3,0,0,0-6,0V7H5a3.009,3.009,0,0,0-3,3V52a3.009,3.009,0,0,0,3,3H27.78A2.974,2.974,0,0,0,27,57v2a3.009,3.009,0,0,0,3,3H42a2.974,2.974,0,0,0,2-.78A2.974,2.974,0,0,0,46,62H58a3.009,3.009,0,0,0,3-3V57a2.974,2.974,0,0,0-.78-2A2.974,2.974,0,0,0,61,53V51a2.974,2.974,0,0,0-.78-2A2.974,2.974,0,0,0,61,47V45a3.009,3.009,0,0,0-3-3H53V39.17l.71.11a6.559,6.559,0,0,0,1.08.09,7.057,7.057,0,0,0,6.55-4.49l.67-1.76A1,1,0,0,0,61.95,32.26ZM49.98,37.31a5.044,5.044,0,0,1-5.45-3.15l-.23-.61.64-.1a5.033,5.033,0,0,1,5.45,3.15l.23.61ZM37,5a1,1,0,0,1,2,0v6a1,1,0,0,1-2,0ZM15,5a1,1,0,0,1,2,0v6a1,1,0,0,1-2,0ZM4,10A1,1,0,0,1,5,9h8v2a3,3,0,0,0,6,0V9H35v2a3,3,0,0,0,6,0V9h8a1,1,0,0,1,1,1v6H4ZM43,59a1,1,0,0,1-1,1H30a1,1,0,0,1-1-1V57a1,1,0,0,1,1-1h1v2h2V56h2v2h2V56h2v2h2V56h1a1,1,0,0,1,1,1Zm0-6a1,1,0,0,1-1,1H30a1,1,0,0,1-1-1V51a1,1,0,0,1,1-1h1v2h2V50h2v2h2V50h2v2h2V50h1a1,1,0,0,1,1,1Zm16,6a1,1,0,0,1-1,1H46a1,1,0,0,1-1-1V57a1,1,0,0,1,1-1h1v2h2V56h2v2h2V56h2v2h2V56h1a1,1,0,0,1,1,1Zm0-6a1,1,0,0,1-1,1H46a1,1,0,0,1-1-1V51a1,1,0,0,1,1-1h1v2h2V50h2v2h2V50h2v2h2V50h1a1,1,0,0,1,1,1Zm-4-9v2h2V44h1a1,1,0,0,1,1,1v2a1,1,0,0,1-1,1H46a1,1,0,0,1-1-1V45a1,1,0,0,1,1-1h1v2h2V44h2v2h2V44Zm4.47-9.84a5.033,5.033,0,0,1-5.45,3.15l-.64-.1.23-.61a5.039,5.039,0,0,1,5.45-3.15l.64.1Z"></path></g></svg>