<svg xmlns="http://www.w3.org/2000/svg" viewBox="0 0 64 64" x="0px" y="0px"><g><path d="M12,60H52a1,1,0,0,0,1-1V12.846a.99.99,0,0,0-.292-.7L46,5.418V11a1,1,0,0,0,1,1h4v2H47a3,3,0,0,1-3-3V4H12a1,1,0,0,0-1,1V59A1,1,0,0,0,12,60ZM49,46H19V44H49ZM19,8H39v2H19ZM15,8h2v2H15Zm0,4H39v2H15Zm0,7a1,1,0,0,1,1-1H48a1,1,0,0,1,1,1V39a1,1,0,0,1-1,1H16a1,1,0,0,1-1-1Zm0,25h2v2H15Zm0,4H49v2H15Zm0,4H49v2H15Z"></path><path d="M47,20H23V38H47ZM25,22h2v2H25ZM45,36H25V34H45Zm0-4H25V30H45Zm0-4H25V26H45Zm0-4H29V22H45Z"></path><rect x="17" y="20" width="4" height="18"></rect></g></svg>