<svg xmlns="http://www.w3.org/2000/svg" viewBox="0 0 64 64" x="0px" y="0px"><title>Cocktail_2</title><g data-name="Cocktail"><path d="M34.329,39.307,26.6,37.236a1,1,0,0,0-1.225.707l-2.07,7.728a1,1,0,0,0,.707,1.225l7.727,2.07A1.015,1.015,0,0,0,32,49a1,1,0,0,0,.965-.741l2.07-7.728A1,1,0,0,0,34.329,39.307Zm-3.036,7.468-5.8-1.552,1.553-5.8,5.8,1.552Z"></path><path d="M46,41H38a1,1,0,0,0-1,1v8a1,1,0,0,0,1,1h8a1,1,0,0,0,1-1V42A1,1,0,0,0,46,41Zm-1,8H39V43h6Z"></path><path d="M43.794,32.5l-4-6.928a1,1,0,0,0-1.366-.366l-6.928,4a1,1,0,0,0-.366,1.366l4,6.928a1,1,0,0,0,.607.466,1,1,0,0,0,.759-.1l6.928-4A1,1,0,0,0,43.794,32.5Zm-7.428,3.134-3-5.2,5.2-3,3,5.2Z"></path><path d="M60,9H46.92A6.991,6.991,0,0,0,33.08,9H8a1,1,0,0,0,0,2H33.08a6.915,6.915,0,0,0,.215,1H13a2,2,0,0,0-2,2V59a3,3,0,0,0,3,3H50a3,3,0,0,0,3-3V14a2,2,0,0,0-2-2h-4.3a6.915,6.915,0,0,0,.215-1H60a1,1,0,0,0,0-2ZM13,22H51V52H13ZM51,59a1,1,0,0,1-1,1H14a1,1,0,0,1-1-1V54H51Zm0-45v6H13V14H34.264a6.984,6.984,0,0,0,11.472,0ZM37.031,14h5.938a4.907,4.907,0,0,1-5.938,0Zm-1.607-2A4.95,4.95,0,0,1,35,10a5,5,0,0,1,10,0,4.95,4.95,0,0,1-.424,2Z"></path><path d="M21,37H20V36a1,1,0,0,0-2,0v1H17a1,1,0,0,0,0,2h1v1a1,1,0,0,0,2,0V39h1a1,1,0,0,0,0-2Z"></path><path d="M25,36a1.2,1.2,0,0,0,.189-.02.609.609,0,0,0,.191-.06.776.776,0,0,0,.18-.09,1.712,1.712,0,0,0,.15-.12l.12-.15a.8.8,0,0,0,.09-.18.6.6,0,0,0,.059-.18A1.234,1.234,0,0,0,26,35a1.052,1.052,0,0,0-.29-.71l-.15-.12a.776.776,0,0,0-.18-.09.609.609,0,0,0-.191-.06,1,1,0,0,0-.9.27A1.047,1.047,0,0,0,24,35a1.028,1.028,0,0,0,.29.71A1.05,1.05,0,0,0,25,36Z"></path><path d="M19.08,30.38a.757.757,0,0,0,.09.18,1.576,1.576,0,0,0,.12.15A1.05,1.05,0,0,0,20,31a1.2,1.2,0,0,0,.189-.02.609.609,0,0,0,.191-.06.776.776,0,0,0,.18-.09,1.712,1.712,0,0,0,.15-.12l.12-.15a.8.8,0,0,0,.09-.18.6.6,0,0,0,.059-.18A1.234,1.234,0,0,0,21,30a1.052,1.052,0,0,0-.29-.71l-.15-.12a.776.776,0,0,0-.18-.09.609.609,0,0,0-.191-.06.852.852,0,0,0-.389,0,.636.636,0,0,0-.18.06.782.782,0,0,0-.181.09l-.149.12A1.047,1.047,0,0,0,19,30a1.355,1.355,0,0,0,.02.2A.636.636,0,0,0,19.08,30.38Z"></path><path d="M26.29,27.71A1.05,1.05,0,0,0,27,28a1.2,1.2,0,0,0,.189-.02.609.609,0,0,0,.191-.06.776.776,0,0,0,.18-.09l.15-.12a1.032,1.032,0,0,0,.21-.33.943.943,0,0,0,0-.76,1.032,1.032,0,0,0-.21-.33l-.15-.12a.776.776,0,0,0-.18-.09.609.609,0,0,0-.191-.06.965.965,0,0,0-1.109.6.942.942,0,0,0,0,.76A1.032,1.032,0,0,0,26.29,27.71Z"></path><path d="M46.439,25.83a.782.782,0,0,0,.181.09.636.636,0,0,0,.18.06A1.355,1.355,0,0,0,47,26a1.2,1.2,0,0,0,.189-.02.609.609,0,0,0,.191-.06.568.568,0,0,0,.17-.09,1,1,0,0,0,.16-.12A1.052,1.052,0,0,0,48,25a1,1,0,0,0-.08-.38,1.032,1.032,0,0,0-.21-.33,1,1,0,0,0-.16-.12.568.568,0,0,0-.17-.09.609.609,0,0,0-.191-.06.852.852,0,0,0-.389,0,.636.636,0,0,0-.18.06.782.782,0,0,0-.181.09,1.7,1.7,0,0,0-.149.12,1.032,1.032,0,0,0-.21.33A.838.838,0,0,0,46,25a1.047,1.047,0,0,0,.29.71A1.7,1.7,0,0,0,46.439,25.83Z"></path><path d="M48.979,34.8a.6.6,0,0,0-.059-.18.8.8,0,0,0-.09-.18l-.12-.15-.15-.12a.776.776,0,0,0-.18-.09.609.609,0,0,0-.191-.06.852.852,0,0,0-.389,0,.636.636,0,0,0-.18.06.782.782,0,0,0-.181.09l-.149.12a1.576,1.576,0,0,0-.12.15.757.757,0,0,0-.09.18.636.636,0,0,0-.06.18A1.5,1.5,0,0,0,47,35a1.047,1.047,0,0,0,.29.71l.149.12a.782.782,0,0,0,.181.09.636.636,0,0,0,.18.06A1.355,1.355,0,0,0,48,36a1.2,1.2,0,0,0,.189-.02.609.609,0,0,0,.191-.06.776.776,0,0,0,.18-.09l.15-.12A1.052,1.052,0,0,0,49,35,1.362,1.362,0,0,0,48.979,34.8Z"></path></g></svg>