<svg xmlns="http://www.w3.org/2000/svg" viewBox="0 0 64 64" x="0px" y="0px"><g data-name="Player Chang"><path d="M23,33V18a1,1,0,0,1,1-1h2V13H19.9a5,5,0,0,1-9.8,0H4v4H6a1,1,0,0,1,1,1V33ZM17,18h4v2H17Z"></path><path d="M15,15a3,3,0,0,0,2.816-2H12.184A3,3,0,0,0,15,15Z"></path><polygon points="23 51 23 39 7 39 7 51 14 51 14 45 16 45 16 51 23 51"></polygon><path d="M57,33V18a1,1,0,0,1,1-1h2V13H53.9a5,5,0,0,1-9.8,0H38v4h2a1,1,0,0,1,1,1V33ZM51,18h4v2H51Z"></path><path d="M49,15a3,3,0,0,0,2.816-2H46.184A3,3,0,0,0,49,15Z"></path><polygon points="57 51 57 39 41 39 41 51 48 51 48 45 50 45 50 51 57 51"></polygon><polygon points="35 29 35 25 32 25 32 24 32 23.601 29.28 27 32 30.399 32 30 32 29 35 29"></polygon><polygon points="32 44.399 34.72 41 32 37.601 32 38 32 39 29 39 29 43 32 43 32 44 32 44.399"></polygon></g></svg>