<svg xmlns="http://www.w3.org/2000/svg" viewBox="0 0 64 64" x="0px" y="0px"><g data-name="skyscraper-building-tower-city-real estate"><path d="M26,19V34h6V12H30V7H28v5H26V9H24v3H22v6h3A1,1,0,0,1,26,19Zm2-5h2v2H28Zm0,4h2v2H28Zm0,4h2v2H28Zm0,4h2v2H28Zm0,4h2v2H28ZM24,14h2v2H24Z"></path><path d="M54,60V4H44V60H42V24H34V34h3a1,1,0,0,1,1,1V60H36V36H18V60H16V35a1,1,0,0,1,1-1h7V20H14V12H12v8H10V60H4v2H60V60ZM50,6h2V8H50Zm0,4h2v2H50Zm0,4h2v2H50Zm0,4h2v2H50Zm0,4h2v2H50Zm0,4h2v2H50Zm0,4h2v2H50Zm0,4h2v2H50Zm0,4h2v2H50Zm0,4h2v2H50Zm0,4h2v2H50Zm0,4h2v2H50Zm0,4h2v2H50ZM46,6h2V8H46Zm0,4h2v2H46Zm0,4h2v2H46Zm0,4h2v2H46Zm0,4h2v2H46Zm0,4h2v2H46Zm0,4h2v2H46Zm0,4h2v2H46Zm0,4h2v2H46Zm0,4h2v2H46Zm0,4h2v2H46Zm0,4h2v2H46Zm0,4h2v2H46ZM36,26h4v2H36Zm0,6V30h4v2Zm-6,6h4v2H30Zm0,4h4v2H30Zm0,4h4v2H30Zm0,4h4v2H30Zm0,4h4v2H30ZM26,38h2v2H26Zm0,4h2v2H26Zm0,4h2v2H26Zm0,4h2v2H26Zm0,4h2v2H26ZM20,38h4v2H20Zm0,4h4v2H20Zm0,4h4v2H20Zm0,4h4v2H20Zm0,4h4v2H20Zm0-32h2v2H20Zm0,4h2v2H20Zm0,4h2v2H20Zm-4-8h2v2H16Zm0,4h2v2H16Zm0,4h2v2H16Zm-4-8h2v2H12Zm0,4h2v2H12Zm0,4h2v2H12Zm0,4h2v2H12Zm0,4h2v2H12Zm0,4h2v2H12Zm0,4h2v2H12Zm0,4h2v2H12Zm0,4h2v2H12Z"></path></g></svg>