<svg xmlns="http://www.w3.org/2000/svg" viewBox="0 0 64 64" x="0px" y="0px"><g data-name="Pay Per Click"><path d="M55,46H53V43a3,3,0,0,0-3-3H36a5.006,5.006,0,0,1-5-5V32h2v3a3,3,0,0,0,3,3H50a5.006,5.006,0,0,1,5,5Z"></path><path d="M5,30h5.931A8.008,8.008,0,0,0,4,23.069V29A1,1,0,0,0,5,30Z"></path><path d="M32,25a8,8,0,1,0-8-8A8.009,8.009,0,0,0,32,25Zm4-9h2v2H36Zm-4,2a2.993,2.993,0,0,1-1-5.816V11h2v1.184A3,3,0,0,1,35,15H33a1,1,0,1,0-1,1,2.993,2.993,0,0,1,1,5.816V23H31V21.816A3,3,0,0,1,29,19h2a1,1,0,1,0,1-1Zm-6-2h2v2H26Z"></path><path d="M4,10.931A8.008,8.008,0,0,0,10.931,4H5A1,1,0,0,0,4,5Z"></path><path d="M60,10.931V5a1,1,0,0,0-1-1H53.069A8.008,8.008,0,0,0,60,10.931Z"></path><path d="M60,29V23.069A8.008,8.008,0,0,0,53.069,30H59A1,1,0,0,0,60,29Z"></path><path d="M51.051,30A10.015,10.015,0,0,1,60,21.051v-8.1A10.015,10.015,0,0,1,51.051,4h-38.1A10.015,10.015,0,0,1,4,12.949v8.1A10.015,10.015,0,0,1,12.949,30ZM32,7A10,10,0,1,1,22,17,10.011,10.011,0,0,1,32,7Z"></path><path d="M58,51H50v6a3,3,0,0,0,3,3h2a3,3,0,0,0,3-3Z"></path><path d="M53,49V46a3,3,0,0,0-3,3Z"></path><path d="M55,46v3h3A3,3,0,0,0,55,46Z"></path></g></svg>