<svg xmlns="http://www.w3.org/2000/svg" viewBox="0 0 64 64" x="0px" y="0px"><title>Out-Book</title><g><path d="M15,12H53V38h2V3a1,1,0,0,0-1-1H14A5.006,5.006,0,0,0,9,7V57a5.006,5.006,0,0,0,5,5H40V60H15ZM14,4H53V6H15V8H53v2H14a3,3,0,0,1,0-6ZM11,57V10.974a4.954,4.954,0,0,0,2,.925V59.816A3,3,0,0,1,11,57Z"></path><path d="M20,16a1,1,0,0,0-1,1V27a1,1,0,0,0,1,1H48a1,1,0,0,0,1-1V17a1,1,0,0,0-1-1ZM47,26H21V18H47Z"></path><path d="M49,40A11,11,0,1,0,60,51,11.013,11.013,0,0,0,49,40Zm0,20a9,9,0,1,1,9-9A9.01,9.01,0,0,1,49,60Z"></path><path d="M55.707,50.293,51.465,46.05l-1.414,1.414L52.586,50H42v2H52.586l-2.535,2.536,1.414,1.414,4.242-4.243A1,1,0,0,0,55.707,50.293Z"></path></g></svg>