<svg xmlns="http://www.w3.org/2000/svg" viewBox="0 0 64 64" x="0px" y="0px"><g><path d="M40,62H10a3,3,0,0,1-3-3V53a3,3,0,0,1,3-3H23V44h2v7a1,1,0,0,1-1,1H10a1,1,0,0,0-1,1v6a1,1,0,0,0,1,1H40a1,1,0,0,0,1-1V41a3,3,0,0,1,3-3h8a3,3,0,0,1,3,3v3H53V41a1,1,0,0,0-1-1H44a1,1,0,0,0-1,1V59A3,3,0,0,1,40,62Z"></path><path d="M28,35.41a13.854,13.854,0,0,1-8,0V38h8Z"></path><path d="M23,33.949V25H22a3,3,0,0,1,0-6v2a1,1,0,0,0,0,2h4a1,1,0,0,0,0-2V19a3,3,0,0,1,0,6H25v8.949a12,12,0,1,0-2,0Z"></path><rect x="21" y="40" width="6" height="2"></rect><path d="M58,49a3,3,0,0,0-3-3H53a3,3,0,0,0-3,3v8a3,3,0,0,0,3,3h2a3,3,0,0,0,3-3Zm-3,1H53V48h2Z"></path><rect x="23" y="2" width="2" height="4"></rect><rect x="34.728" y="8.272" width="4.001" height="2" transform="translate(4.201 28.686) rotate(-45)"></rect><rect x="40" y="21" width="4" height="2"></rect><rect x="35.728" y="32.728" width="2" height="4.001" transform="translate(-13.799 36.142) rotate(-45)"></rect><rect x="9.271" y="33.728" width="4.001" height="2" transform="translate(-21.255 18.142) rotate(-45)"></rect><rect x="4" y="21" width="4" height="2"></rect><rect x="10.272" y="7.271" width="2" height="4.001" transform="translate(-3.255 10.686) rotate(-45)"></rect></g></svg>