<svg xmlns="http://www.w3.org/2000/svg" viewBox="0 0 64 64" x="0px" y="0px"><title>Graduate</title><g><path d="M17.5,24A2.5,2.5,0,0,1,15,21.5H13a4.5,4.5,0,0,0,9,0H20A2.5,2.5,0,0,1,17.5,24Z"></path><path d="M43,2H29.392A19.914,19.914,0,0,0,11.051,14.555l-7,21.131A1,1,0,0,0,5,37h5v7a7.009,7.009,0,0,0,7,7h7V61a1,1,0,0,0,1,1H49a1,1,0,0,0,1-1V50.955A11.015,11.015,0,0,0,60,40V19A17.019,17.019,0,0,0,43,2ZM58,40a9.01,9.01,0,0,1-9,9,1,1,0,0,0-1,1V60H26V51h5V49H17a5.006,5.006,0,0,1-5-5V36a1,1,0,0,0-1-1H6.385l6.539-19.748A17.9,17.9,0,0,1,29.392,4H43A15.017,15.017,0,0,1,58,19Z"></path><path d="M52.385,12.077l-12-5a1,1,0,0,0-.77,0l-12,5a1,1,0,0,0-.614.889c0,.012,0,.022,0,.034h0v3.586l-2.707,2.707,1.414,1.414L27,19.414V21h2V19.414l1.293,1.293,1.414-1.414L29,16.586V14.618l3.685,1.843-.677,5.415A1,1,0,0,0,33,23H47a1,1,0,0,0,.992-1.124l-.677-5.415L52.447,13.9a1,1,0,0,0-.062-1.818ZM34.133,21l.75-6H45.117l.75,6Zm12.919-6.644-.06-.48A1,1,0,0,0,46,13H34a1,1,0,0,0-.992.876l-.06.48L30.4,13.083l9.6-4,9.6,4Z"></path></g></svg>