<svg xmlns="http://www.w3.org/2000/svg" viewBox="0 0 64 64" x="0px" y="0px"><g data-name="Credit Card"><rect x="14" y="32" width="4.001" height="2"></rect><rect x="14" y="28" width="4" height="2"></rect><rect x="10" y="28" width="2" height="6"></rect><path d="M43.118,29.974a5.093,5.093,0,0,1,.166-.595c.022-.065.041-.13.066-.193a4.951,4.951,0,0,1,.319-.675,3,3,0,1,0,0,4.978,5.066,5.066,0,0,1-.319-.675c-.025-.063-.043-.127-.065-.191a4.991,4.991,0,0,1-.167-.6c-.016-.075-.032-.149-.045-.225a4.431,4.431,0,0,1,0-1.6C43.086,30.123,43.1,30.049,43.118,29.974Z"></path><path d="M56.617,21.548l-1.037-5.87L37.622,18.843,31.057,20H53a5.036,5.036,0,0,1,.92.094c.05.01.1.017.151.028a4.971,4.971,0,0,1,.83.262c.053.021.1.045.156.069a4.981,4.981,0,0,1,.773.428c.024.017.046.037.07.054a4.955,4.955,0,0,1,.658.563C56.576,21.516,56.6,21.529,56.617,21.548Z"></path><path d="M48,28a3,3,0,0,0-2.57,1.461,3.035,3.035,0,0,0-.381,1A3,3,0,1,0,48,28Z"></path><path d="M56,43.86V25a3,3,0,0,0-3-3H7a3,3,0,0,0-2.857,2.087A3.1,3.1,0,0,0,4,25V53a3,3,0,0,0,3,3H53a3,3,0,0,0,3-3ZM25,41h2v2H25ZM8,41h2v2H8Zm8,8H8V47h8Zm-4-6V41h2v2Zm6,0H16V41h2Zm2-9a2,2,0,0,1-2,2H10a2,2,0,0,1-2-2V28a2,2,0,0,1,2-2h8a2,2,0,0,1,2,2Zm1,7h2v2H21Zm10,8H23V47h8Zm0-6H29V41h2Zm8,2H37V41h2Zm4,0H41V41h2Zm4,0H45V41h2Zm4,0H49V41h2Zm-3-9a4.991,4.991,0,0,1-3-1.007,5,5,0,1,1,0-7.986A5,5,0,1,1,48,36Z"></path><path d="M4.583,20.632a4.816,4.816,0,0,1,.447-.213c.1-.044.2-.091.3-.128a4.886,4.886,0,0,1,.54-.148c.091-.021.178-.05.271-.066A5.023,5.023,0,0,1,7,20H19.532l35.7-6.292-.347-1.975A2.985,2.985,0,0,0,51.416,9.3L6.114,17.3a2.994,2.994,0,0,0-2.438,3.473l.075.429c.047-.041.1-.07.151-.108.122-.1.248-.185.377-.269C4.379,20.755,4.478,20.69,4.583,20.632Z"></path><path d="M58,42.582a3.006,3.006,0,0,0,1.755-3.27L58,29.386Z"></path></g></svg>