<svg xmlns="http://www.w3.org/2000/svg" viewBox="0 0 64 64" x="0px" y="0px"><g><path d="M30,31V29a7,7,0,0,0-14,0v2a7,7,0,0,0,14,0Zm-7-7a5.009,5.009,0,0,1,4.9,4H23.618L22.9,26.553a1,1,0,0,0-.735-.54.978.978,0,0,0-.867.28L19.586,28H18.1A5.009,5.009,0,0,1,23,24Zm0,12a5.006,5.006,0,0,1-5-5V30h2a1,1,0,0,0,.707-.293l1.019-1.019.379.759A1,1,0,0,0,23,30h5v1A5.006,5.006,0,0,1,23,36Z"></path><rect x="27" y="47" width="4" height="2"></rect><path d="M51.831,38H13a7.009,7.009,0,0,0-7,7V61a1,1,0,0,0,1,1H34a2,2,0,0,0,2-2V46H52a4,4,0,0,0,3.989-4.292A4.106,4.106,0,0,0,51.831,38ZM27.586,40,23,44.586,18.414,40ZM8,45a5.006,5.006,0,0,1,5-5h2.586L22,46.414V60H14V47H12V60H8Zm45.413-1.587A1.986,1.986,0,0,1,52,44H35a1,1,0,0,0-1,1V60H24V46.414L30.414,40H51.831A2.13,2.13,0,0,1,54,41.852,2.006,2.006,0,0,1,53.413,43.413Z"></path><path d="M41,24.453V28a5,5,0,0,0,10,0V24.452a9,9,0,1,0-10,0ZM43.694,25.7a9.138,9.138,0,0,0,.948.19c.127.019.255.034.383.048.238.025.476.04.715.047.087,0,.173.017.26.017s.173-.015.26-.017c.239-.007.477-.022.714-.047.129-.014.257-.029.386-.049A8.867,8.867,0,0,0,48.3,25.7c.057-.015.113-.036.17-.052.177-.051.355-.1.528-.162V27H43V25.485c.176.063.357.114.537.165C43.59,25.665,43.641,25.684,43.694,25.7ZM46,31a3,3,0,0,1-2.816-2h5.632A3,3,0,0,1,46,31Zm0-21a7,7,0,1,1-1.814,13.752,6.637,6.637,0,0,1-1.689-.7A7,7,0,0,1,46,10Z"></path><rect x="45" y="2" width="2" height="4"></rect><rect x="35.808" y="5.808" width="2" height="4" transform="translate(5.26 28.314) rotate(-45)"></rect><rect x="31" y="16" width="4" height="2"></rect><rect x="57" y="16" width="4" height="2"></rect><rect x="53.193" y="6.808" width="4" height="2" transform="translate(10.645 41.314) rotate(-45)"></rect><path d="M44.832,19.555,46,17.8l1.168,1.752a1,1,0,0,0,1.664,0l2-3-1.664-1.11L48,17.2l-1.168-1.752a1.039,1.039,0,0,0-1.664,0L44,17.2l-1.168-1.752-1.664,1.11,2,3A1.039,1.039,0,0,0,44.832,19.555Z"></path></g></svg>