<svg xmlns="http://www.w3.org/2000/svg" viewBox="0 0 64 64" x="0px" y="0px"><g><path d="M50,2H14A5.006,5.006,0,0,0,9,7V57a5.006,5.006,0,0,0,5,5H50a5.006,5.006,0,0,0,5-5V7A5.006,5.006,0,0,0,50,2ZM14,4H50a3,3,0,0,1,3,3V20H11V7A3,3,0,0,1,14,4ZM50,60H14a3,3,0,0,1-3-3V22H53V57A3,3,0,0,1,50,60Z"></path><path d="M15,18H49a2,2,0,0,0,2-2V8a2,2,0,0,0-2-2H15a2,2,0,0,0-2,2v8A2,2,0,0,0,15,18ZM15,8H49v8H15Z"></path><rect x="31" y="11" width="2" height="2"></rect><rect x="35" y="11" width="2" height="2"></rect><rect x="27" y="11" width="2" height="2"></rect><path d="M49,26H15a2,2,0,0,0-2,2V54a2,2,0,0,0,2,2H49a2,2,0,0,0,2-2V28A2,2,0,0,0,49,26ZM37,54H27V42H37Zm0-14H27V28H37ZM25,28V40H15V28ZM15,42H25V54H15ZM39,54V28H49V54Z"></path><polygon points="19 37 21 37 21 35 23 35 23 33 21 33 21 31 19 31 19 33 17 33 17 35 19 35 19 37"></polygon><polygon points="29.172 35.414 30.586 36.828 32 35.414 33.414 36.828 34.828 35.414 33.414 34 34.828 32.586 33.414 31.172 32 32.586 30.586 31.172 29.172 32.586 30.586 34 29.172 35.414"></polygon><rect x="17" y="47" width="6" height="2"></rect><rect x="41" y="42" width="6" height="2"></rect><rect x="41" y="38" width="6" height="2"></rect><rect x="29" y="47" width="6" height="2"></rect><rect x="31" y="44" width="2" height="2"></rect><rect x="31" y="50" width="2" height="2"></rect></g></svg>