<svg xmlns="http://www.w3.org/2000/svg" viewBox="0 0 64 64" x="0px" y="0px"><g data-name="Web Page-Delete"><polygon points="25.883 50 25.133 56 38.867 56 38.117 50 25.883 50"></polygon><path d="M60,42H4v3a3,3,0,0,0,3,3H57a3,3,0,0,0,3-3Zm-4,4H54V44h2Z"></path><path d="M20,59a1,1,0,0,0,1,1H43a1,1,0,0,0,0-2H21A1,1,0,0,0,20,59Z"></path><path d="M32,18a8,8,0,1,0,8,8A8.009,8.009,0,0,0,32,18Zm3.707,10.293-1.414,1.414L32,27.414l-2.293,2.293-1.414-1.414L30.586,26l-2.293-2.293,1.414-1.414L32,24.586l2.293-2.293,1.414,1.414L33.414,26Z"></path><path d="M60,7a3,3,0,0,0-3-3H7A3,3,0,0,0,4,7v3H60ZM10,8H8V6h2Zm4,0H12V6h2Zm4,0H16V6h2Z"></path><path d="M60,12H4V40H60ZM32,36A10,10,0,1,1,42,26,10.011,10.011,0,0,1,32,36Z"></path></g></svg>