<svg xmlns="http://www.w3.org/2000/svg" viewBox="0 0 64 64" x="0px" y="0px"><g data-name="Power Bank"><path d="M10,44a3,3,0,1,0,3,3A3,3,0,0,0,10,44Zm0,4a1,1,0,1,1,1-1A1,1,0,0,1,10,48Z"></path><path d="M24,44H16a1,1,0,0,0-1,1v4a1,1,0,0,0,1,1h8a1,1,0,0,0,1-1V45A1,1,0,0,0,24,44Zm-1,4H17V46h6Z"></path><path d="M55,40H53a3,3,0,0,1-3-3V29a3,3,0,0,0,3-3V18a1,1,0,0,0-1-1V12a1,1,0,0,0-1-1H47a1,1,0,0,0-1,1v5a1,1,0,0,0-1,1v8a3,3,0,0,0,3,3v8a5.006,5.006,0,0,0,5,5h2a3,3,0,0,1,3,3V55a5.006,5.006,0,0,1-5,5H33a1,1,0,0,1-1-1V58a3,3,0,0,0,3-3V53.7a6.8,6.8,0,0,0,2.944-1.744A6.919,6.919,0,0,0,40,47V9a7.008,7.008,0,0,0-7-7H9A7.008,7.008,0,0,0,2,9V47a7.008,7.008,0,0,0,7,7H27v1a3,3,0,0,0,3,3v1a3,3,0,0,0,3,3H53a7.008,7.008,0,0,0,7-7V45A5.006,5.006,0,0,0,55,40ZM48,13h2v4H48ZM47,26V19h4v7a1,1,0,0,1-1,1H48A1,1,0,0,1,47,26ZM4,9A5.006,5.006,0,0,1,9,4H33a5.006,5.006,0,0,1,5,5V42.111A6.973,6.973,0,0,0,33,40H9a6.911,6.911,0,0,0-4.944,2.049c-.02.02-.037.042-.056.061ZM27,45v7H9a5.006,5.006,0,0,1-5-5,5.009,5.009,0,0,1,5-5H33a5.006,5.006,0,0,1,5,5,4.936,4.936,0,0,1-1.471,3.537A4.858,4.858,0,0,1,35,51.571V45a1,1,0,0,0-1-1H28A1,1,0,0,0,27,45Zm2,10V46h4v9a1,1,0,0,1-1,1H30A1,1,0,0,1,29,55Z"></path><path d="M15,24H17.9l-.89,8.9a1,1,0,0,0,1.814.673l7-10A1,1,0,0,0,25,22H23.105L24,13.1a1,1,0,0,0-1.776-.725l-8,10A1,1,0,0,0,15,24Zm6.669-7.735L21.005,22.9A1,1,0,0,0,22,24h1.079l-3.7,5.291L20,23.1A1,1,0,0,0,19,22H17.081Z"></path></g></svg>