<svg xmlns="http://www.w3.org/2000/svg" viewBox="0 0 64 64" x="0px" y="0px"><g data-name="Army Dog Tag"><path d="M10,32v4a1,1,0,0,0,1,1H33a1,1,0,0,0,1-1V32a1,1,0,0,0-1-1H11A1,1,0,0,0,10,32Zm2,1H32v2H12Z"></path><path d="M33,39H11a1,1,0,0,0-1,1v4a1,1,0,0,0,1,1H33a1,1,0,0,0,1-1V40A1,1,0,0,0,33,39Zm-1,4H12V41H32Z"></path><path d="M33,47H11a1,1,0,0,0-1,1v4a1,1,0,0,0,1,1H33a1,1,0,0,0,1-1V48A1,1,0,0,0,33,47Zm-1,4H12V49H32Z"></path><path d="M59.948,34.316A1,1,0,0,0,60,34V29a2,2,0,0,0-2-2H52a2,2,0,0,0-2,2v5a1,1,0,0,0,.052.316L51,37.162v5.676l-.948,2.846A1,1,0,0,0,50,46v5a2,2,0,0,0,2,2h2v3a3,3,0,0,1-3,3H49a3,3,0,0,1-3-3V48.816A2.972,2.972,0,0,0,47.22,44a2.954,2.954,0,0,0,0-4A2.972,2.972,0,0,0,46,35.184V22a5.006,5.006,0,0,0-5-5H39.007a5.01,5.01,0,0,0-5,4.983L34,23H29V20a1,1,0,0,0-1-1H24a1,1,0,0,0-1,1v3H21V20a1,1,0,0,0-1-1H16a1,1,0,0,0-1,1v3H13V20a1,1,0,0,0-1-1H11V8h1a1,1,0,0,0,1-1V3a1,1,0,0,0-1-1H8A1,1,0,0,0,7,3V7A1,1,0,0,0,8,8H9V19H8a1,1,0,0,0-1,1v3H5a1,1,0,0,0-1,1v6a1.006,1.006,0,0,0,.168.555L6,33.3V51.7L4.168,54.445A1.006,1.006,0,0,0,4,55v6a1,1,0,0,0,1,1H39a1,1,0,0,0,1-1V55a1.006,1.006,0,0,0-.168-.555L38,51.7V33.3l1.832-2.748A1.006,1.006,0,0,0,40,30V24a1,1,0,0,0-1-1H36l0-1.01a3.005,3.005,0,0,1,3-2.99H41a3,3,0,0,1,3,3V35.184A2.972,2.972,0,0,0,42.78,40a2.954,2.954,0,0,0,0,4A2.972,2.972,0,0,0,44,48.816V56a5.006,5.006,0,0,0,5,5h2a5.006,5.006,0,0,0,5-5V53h2a2,2,0,0,0,2-2V46a1,1,0,0,0-.052-.316L59,42.838V37.162ZM9,4h2V6H9ZM25,21h2v2H25Zm-8,0h2v2H17ZM9,21h2v2H9Zm29,8.7-1.832,2.748A1.006,1.006,0,0,0,36,33V52a1.006,1.006,0,0,0,.168.555L38,55.3V60H6V55.3l1.832-2.748A1.006,1.006,0,0,0,8,52V33a1.006,1.006,0,0,0-.168-.555L6,29.7V25H38ZM45,47a1,1,0,1,1,1-1A1,1,0,0,1,45,47Zm-1-5a1,1,0,1,1,1,1A1,1,0,0,1,44,42Zm1-5a1,1,0,1,1-1,1A1,1,0,0,1,45,37Zm13-3.162-.948,2.846A1,1,0,0,0,57,37v6a1,1,0,0,0,.052.316L58,46.162V51H52V46.162l.948-2.846A1,1,0,0,0,53,43V37a1,1,0,0,0-.052-.316L52,33.838V29h6Z"></path><rect x="54" y="30" width="2" height="2"></rect><rect x="54" y="48" width="2" height="2"></rect></g></svg>