<svg xmlns="http://www.w3.org/2000/svg" viewBox="0 0 64 64" x="0px" y="0px"><g data-name="Smartphone-Light Control-Remote-Connection-Electronics"><rect x="12" y="25" width="4" height="2"></rect><path d="M8,13.778a5.927,5.927,0,0,0,1.789,4.491A7.162,7.162,0,0,1,11.99,23h4.02a7.011,7.011,0,0,1,2.14-4.676A6,6,0,0,0,13.9,8,6.069,6.069,0,0,0,8,13.778ZM13,14a1,1,0,0,0,2,0h2a3,3,0,0,1-2,2.816V21H13V16.816A3,3,0,0,1,11,14Z"></path><rect x="13" y="2" width="2" height="2"></rect><rect x="7.5" y="3.474" width="2" height="2" transform="translate(-1.098 4.85) rotate(-30.002)"></rect><rect x="3.474" y="7.5" width="2" height="2" transform="translate(-5.124 8.124) rotate(-59.998)"></rect><rect x="2" y="13" width="2" height="2"></rect><rect x="3.474" y="18.5" width="2" height="2" transform="translate(-9.149 4.848) rotate(-29.995)"></rect><rect x="22.526" y="18.5" width="2" height="2" transform="translate(-5.125 30.123) rotate(-59.998)"></rect><rect x="24" y="13" width="2" height="2"></rect><rect x="22.526" y="7.5" width="2" height="2" transform="translate(-1.099 12.9) rotate(-29.995)"></rect><rect x="18.5" y="3.474" width="2" height="2" transform="translate(5.877 19.126) rotate(-60.005)"></rect><path d="M56,14a6,6,0,0,0-6.1-6A6.067,6.067,0,0,0,44,13.778a5.923,5.923,0,0,0,1.789,4.491A7.166,7.166,0,0,1,47.99,23h4.02a7.009,7.009,0,0,1,2.14-4.676A5.933,5.933,0,0,0,56,14Zm-5,2.816V21H49V16.816A3,3,0,0,1,47,14h2a1,1,0,0,0,2,0h2A3,3,0,0,1,51,16.816Z"></path><rect x="48" y="25" width="4" height="2"></rect><rect x="49" y="2" width="2" height="2"></rect><rect x="43.5" y="3.474" width="2" height="2" transform="translate(3.725 22.851) rotate(-30.002)"></rect><rect x="39.473" y="7.5" width="2" height="2" transform="translate(12.878 39.304) rotate(-60.005)"></rect><rect x="38" y="13" width="2" height="2"></rect><rect x="39.473" y="18.5" width="2" height="2" transform="translate(-4.328 22.845) rotate(-29.995)"></rect><rect x="58.526" y="18.5" width="2" height="2" transform="translate(12.88 61.306) rotate(-60.005)"></rect><rect x="60" y="13" width="2" height="2"></rect><rect x="58.526" y="7.5" width="2" height="2" transform="translate(3.723 30.897) rotate(-29.995)"></rect><rect x="54.5" y="3.474" width="2" height="2" transform="translate(23.88 50.304) rotate(-60.005)"></rect><path d="M40,37a3,3,0,0,0-3-3H27a3,3,0,0,0-3,3V57a3,3,0,0,0,3,3H37a3,3,0,0,0,3-3ZM30,36h4v2H30Zm-4,0h2v2H26Zm8,22H30V56h4Zm-3-6V50h2v2Zm3.121-3.122a3.075,3.075,0,0,0-4.243,0l-1.414-1.414a5,5,0,0,1,7.071,0ZM36.95,46.05a7,7,0,0,0-9.9,0l-1.414-1.414a9,9,0,0,1,12.728,0Z"></path><path d="M15,29H13V46a1,1,0,0,0,1,1h6V45H15Z"></path><path d="M49,29V45H44v2h6a1,1,0,0,0,1-1V29Z"></path><rect x="9" y="33" width="2" height="2"></rect><rect x="9" y="37" width="2" height="2"></rect><rect x="9" y="41" width="2" height="2"></rect><rect x="9" y="45" width="2" height="2"></rect><rect x="18" y="49" width="2" height="2"></rect><rect x="14" y="49" width="2" height="2"></rect><rect x="9" y="49" width="2" height="2"></rect><rect x="53" y="33" width="2" height="2"></rect><rect x="53" y="37" width="2" height="2"></rect><rect x="53" y="41" width="2" height="2"></rect><rect x="53" y="45" width="2" height="2"></rect><rect x="48" y="49" width="2" height="2"></rect><rect x="44" y="49" width="2" height="2"></rect><rect x="53" y="49" width="2" height="2"></rect><rect x="52" y="23" width="3" height="2"></rect><rect x="45" y="23" width="3" height="2"></rect><rect x="16" y="23" width="3" height="2"></rect><rect x="9" y="23" width="3" height="2"></rect></g></svg>