<svg xmlns="http://www.w3.org/2000/svg" viewBox="0 0 64 64" x="0px" y="0px"><g data-name="Loading Idea"><path d="M9,32A22.984,22.984,0,0,1,26.249,9.725l-.5-1.938A25.007,25.007,0,0,0,19.5,53.654l1-1.73A23.089,23.089,0,0,1,9,32Z"></path><path d="M34.779,7.158l4.212-3.174-1.2-1.6L31.4,7.2a1,1,0,0,0-.2,1.4l4.815,6.388,1.6-1.2L34.08,9.1A23,23,0,0,1,43.5,51.924l1,1.73a25,25,0,0,0-9.721-46.5Z"></path><path d="M48,32A16,16,0,1,0,24,45.852v2.332a2.983,2.983,0,0,0-.6,5.345,2.958,2.958,0,0,0,1.684,4.313A5,5,0,0,0,30,62h4a5,5,0,0,0,4.915-4.158A2.958,2.958,0,0,0,40.6,53.529a2.983,2.983,0,0,0-.6-5.345V45.852A15.971,15.971,0,0,0,48,32ZM18,32A14,14,0,1,1,38.532,44.378a1,1,0,0,0-.532.884V48H26V45.262a1,1,0,0,0-.532-.884A13.977,13.977,0,0,1,18,32Zm7,18H39a1,1,0,0,1,0,2H25a1,1,0,0,1,0-2Zm9,10H30a3,3,0,0,1-2.816-2h9.632A3,3,0,0,1,34,60Zm4-4H26a1,1,0,0,1,0-2H38a1,1,0,0,1,0,2Z"></path><path d="M33,35H31a1,1,0,0,1-1-1H28a3,3,0,0,0,3,3v1h2V37a3,3,0,0,0,0-6H31a1,1,0,0,1,0-2h2a1,1,0,0,1,1,1h2a3,3,0,0,0-3-3V26H31v1a3,3,0,0,0,0,6h2a1,1,0,0,1,0,2Z"></path><rect x="38" y="31" width="2" height="2"></rect><rect x="24" y="31" width="2" height="2"></rect></g></svg>