<svg xmlns="http://www.w3.org/2000/svg" viewBox="0 0 64 64" x="0px" y="0px"><g data-name="Shoulder bag"><path d="M54,34.962A1,1,0,0,0,53,34V7a5.006,5.006,0,0,0-5-5H16a5.006,5.006,0,0,0-5,5V34a1,1,0,0,0-1,.962l-.96,24.962A2.014,2.014,0,0,0,9.6,61.388a1.984,1.984,0,0,0,1.44.612H52.961a1.984,1.984,0,0,0,1.44-.612,2.014,2.014,0,0,0,.558-1.464ZM51,7V34H49V4.171A3.006,3.006,0,0,1,51,7ZM48.8,56H15.2l.255-6.721A4.94,4.94,0,0,0,18,50H46a4.94,4.94,0,0,0,2.546-.721ZM17,8H47V34H17ZM49,45a3,3,0,0,1-3,3H18a3,3,0,0,1-3-3V36H49ZM47,6H17V4H47ZM13,7a3.006,3.006,0,0,1,2-2.829V34H13ZM11.039,60l.923-24H13v9a4.934,4.934,0,0,0,.532,2.2l-.371,9.763a1,1,0,0,0,1,1.038H49.84a1,1,0,0,0,1-1.038L50.468,47.2A4.934,4.934,0,0,0,51,45V36h1.038l.923,24Z"></path><path d="M19,47a3,3,0,1,0-3-3A3,3,0,0,0,19,47Zm0-4a1,1,0,1,1-1,1A1,1,0,0,1,19,43Z"></path><path d="M44,47a3,3,0,1,0-3-3A3,3,0,0,0,44,47Zm0-4a1,1,0,1,1-1,1A1,1,0,0,1,44,43Z"></path></g></svg>