<svg xmlns="http://www.w3.org/2000/svg" viewBox="0 0 64 64" x="0px" y="0px"><g><polygon points="54.434 36 28.766 36 33.566 44 59.233 44 54.434 36"></polygon><rect x="44" y="53" width="6" height="3"></rect><path d="M54,46H33a1,1,0,0,1-.857-.485L28,38.61V60H54ZM52,57a1,1,0,0,1-1,1H43a1,1,0,0,1-1-1V52a1,1,0,0,1,1-1h8a1,1,0,0,1,1,1Z"></path><polygon points="8 38.61 4.766 44 8 44 8 38.61"></polygon><rect x="10" y="36" width="16" height="24"></rect><path d="M58,22V20a6.006,6.006,0,0,0-6,6h2A4,4,0,0,1,58,22Z"></path><path d="M56,30h2a4,4,0,0,1,4-4V24A6.006,6.006,0,0,0,56,30Z"></path><path d="M10,26h2a6.006,6.006,0,0,0-6-6v2A4,4,0,0,1,10,26Z"></path><path d="M6,30H8a6.006,6.006,0,0,0-6-6v2A4,4,0,0,1,6,30Z"></path><rect x="10" y="28" width="2" height="2"></rect><rect x="52" y="28" width="2" height="2"></rect><path d="M47,12H17V26H47ZM23,24H20a1,1,0,0,1-1-1V20h2v2h2Zm0-8H21v2H19V15a1,1,0,0,1,1-1h3Zm9,8a5,5,0,1,1,5-5A5.006,5.006,0,0,1,32,24Zm14-1a1,1,0,0,1-1,1H42V22h2V20h2Zm0-5H44V16H42V14h3a1,1,0,0,1,1,1Z"></path><circle cx="32" cy="19" r="3"></circle><rect x="17" y="4" width="30" height="2"></rect><rect x="17" y="8" width="30" height="2"></rect></g></svg>