<svg xmlns="http://www.w3.org/2000/svg" viewBox="0 0 64 64" x="0px" y="0px"><g><path d="M39,9a1,1,0,0,0,2,0V5a1,1,0,0,0-2,0Z"></path><rect x="30" y="40" width="30" height="1"></rect><rect x="10" y="30" width="2" height="2"></rect><rect x="10" y="22" width="2" height="2"></rect><rect x="30" y="43" width="30" height="1"></rect><rect x="10" y="38" width="2" height="2"></rect><path d="M26,36a8,8,0,1,0-8-8A8.009,8.009,0,0,0,26,36Zm1-7H25a3,3,0,0,1,0-6V22h2v1a3,3,0,0,1,3,3H28a1,1,0,0,0-1-1H25a1,1,0,0,0,0,2h2a3,3,0,0,1,0,6v1H25V33a3,3,0,0,1-3-3h2a1,1,0,0,0,1,1h2a1,1,0,0,0,0-2Z"></path><rect x="40" y="22" width="2" height="2"></rect><path d="M5,48H28V40a2,2,0,0,1,2-2H48V16H4V47A1,1,0,0,0,5,48ZM38,21a1,1,0,0,1,1-1h4a1,1,0,0,1,1,1v4a1,1,0,0,1-1,1H39a1,1,0,0,1-1-1Zm0,8a1,1,0,0,1,1-1h4a1,1,0,0,1,1,1v4a1,1,0,0,1-1,1H39a1,1,0,0,1-1-1ZM26,18A10,10,0,1,1,16,28,10.011,10.011,0,0,1,26,18ZM16,37a1,1,0,0,1,1-1h2v2H18v2h2V39h2v2a1,1,0,0,1-1,1H17a1,1,0,0,1-1-1ZM8,21a1,1,0,0,1,1-1h4a1,1,0,0,1,1,1v4a1,1,0,0,1-1,1H9a1,1,0,0,1-1-1Zm0,8a1,1,0,0,1,1-1h4a1,1,0,0,1,1,1v4a1,1,0,0,1-1,1H9a1,1,0,0,1-1-1Zm0,8a1,1,0,0,1,1-1h4a1,1,0,0,1,1,1v4a1,1,0,0,1-1,1H9a1,1,0,0,1-1-1Z"></path><path d="M5,8A1,1,0,0,0,4,9v5H48V9a1,1,0,0,0-1-1H43V9a3,3,0,0,1-6,0V8H29V9a3,3,0,0,1-6,0V8H15V9A3,3,0,0,1,9,9V8Z"></path><path d="M60,55V46H30V60H60ZM36,58H33a1,1,0,0,1-1-1V54h2v2h2Zm0-8H34v2H32V49a1,1,0,0,1,1-1h3Zm9,8a5,5,0,1,1,5-5A5.006,5.006,0,0,1,45,58Zm13-1a1,1,0,0,1-1,1H54V56h2V54h2Zm0-5H56V50H54V48h3a1,1,0,0,1,1,1Z"></path><circle cx="45" cy="53" r="3"></circle><path d="M25,9a1,1,0,0,0,2,0V5a1,1,0,0,0-2,0Z"></path><path d="M11,9a1,1,0,0,0,2,0V5a1,1,0,0,0-2,0Z"></path><rect x="40" y="30" width="2" height="2"></rect></g></svg>