<svg xmlns="http://www.w3.org/2000/svg" viewBox="0 0 64 64" x="0px" y="0px"><g data-name="Solar Energy"><circle cx="16" cy="12" r="4"></circle><rect x="15" y="2" width="2" height="2"></rect><rect x="8.636" y="4.636" width="2" height="2" transform="translate(-1.163 8.464) rotate(-45)"></rect><rect x="6" y="11" width="2" height="2"></rect><rect x="8.636" y="17.364" width="2" height="2" transform="translate(-10.163 12.192) rotate(-45)"></rect><rect x="15" y="20" width="2" height="2"></rect><rect x="21.364" y="17.364" width="2" height="2" transform="translate(-6.435 21.192) rotate(-45)"></rect><rect x="24" y="11" width="2" height="2"></rect><rect x="21.364" y="4.636" width="2" height="2" transform="translate(2.565 17.464) rotate(-45)"></rect><rect x="43" y="29.999" width="6" height="1.001"></rect><rect x="45" y="33" width="2" height="1"></rect><path d="M54,18a8,8,0,0,0-8-8c-.083,0-.167,0-.25,0A8.05,8.05,0,0,0,38,18.029a7.961,7.961,0,0,0,4.445,7.129,1,1,0,0,1,.555.895V28h2V21H44a3,3,0,0,1,0-6v2a1,1,0,0,0,0,2h4a1,1,0,0,0,0-2V15a3,3,0,0,1,0,6H47v7h2V26.053a1,1,0,0,1,.555-.895A7.957,7.957,0,0,0,54,18Z"></path><rect x="58" y="17" width="4" height="2"></rect><rect x="56.125" y="10" width="4" height="2" transform="translate(2.285 30.531) rotate(-29.995)"></rect><rect x="51" y="4.876" width="4" height="2" transform="translate(21.415 48.84) rotate(-60.005)"></rect><rect x="45" y="2" width="2" height="4"></rect><rect x="38" y="3.876" width="2" height="4" transform="translate(2.287 20.286) rotate(-29.998)"></rect><rect x="32.875" y="9" width="2" height="4" transform="translate(7.411 34.836) rotate(-59.998)"></rect><rect x="30" y="17" width="4" height="2"></rect><rect x="31.876" y="24" width="4" height="2" transform="translate(-7.962 20.288) rotate(-30.002)"></rect><rect x="57.124" y="23" width="2" height="4" transform="translate(7.411 62.836) rotate(-59.998)"></rect><polygon points="26.057 42 22.809 42 23.209 45 26.702 45 26.057 42"></polygon><polygon points="27.131 47 23.476 47 23.876 50 27.776 50 27.131 47"></polygon><polygon points="17 47 17 50 21.858 50 21.458 47 17 47"></polygon><rect x="19" y="55" width="1" height="2"></rect><polygon points="24.983 37 22.142 37 22.542 40 25.628 40 24.983 37"></polygon><polygon points="20.791 42 17 42 17 45 21.191 45 20.791 42"></polygon><polygon points="20.124 37 17 37 17 40 20.524 40 20.124 37"></polygon><polygon points="15 37 11.876 37 11.476 40 15 40 15 37"></polygon><polygon points="4.224 50 8.124 50 8.524 47 4.869 47 4.224 50"></polygon><polygon points="5.298 45 8.791 45 9.191 42 5.943 42 5.298 45"></polygon><rect x="12" y="55" width="1" height="2"></rect><polygon points="15 47 10.542 47 10.142 50 15 50 15 47"></polygon><polygon points="15 42 11.209 42 10.809 45 15 45 15 42"></polygon><polygon points="6.372 40 9.458 40 9.858 37 7.017 37 6.372 40"></polygon><polygon points="17 52 15 52 15 60 12 60 12 61 20 61 20 60 17 60 17 52"></polygon><path d="M42,57H22V55H42a3,3,0,0,0,3-3V36h2V52A5.006,5.006,0,0,1,42,57Z"></path></g></svg>