<svg xmlns="http://www.w3.org/2000/svg" viewBox="0 0 64 64" x="0px" y="0px"><title>Personal-Contact</title><g><path d="M21,37H43a1,1,0,0,0,1-1,11.952,11.952,0,0,0-6.69-10.768,12.105,12.105,0,0,0-10.624,0A11.951,11.951,0,0,0,20,36,1,1,0,0,0,21,37Zm20.951-2H33V31.414l4.036-4.036A9.934,9.934,0,0,1,41.951,35Zm-6.865-8.5L32,29.586,28.914,26.5A10.115,10.115,0,0,1,35.086,26.5Zm-8.122.879L31,31.414V35H22.049A9.93,9.93,0,0,1,26.964,27.378Z"></path><path d="M32,23a7,7,0,1,0-7-7A7.008,7.008,0,0,0,32,23Zm0-12a5,5,0,1,1-5,5A5.006,5.006,0,0,1,32,11Z"></path><path d="M59,2H5A3,3,0,0,0,2,5V45a3,3,0,0,0,3,3H22.9l-.8,8H19a1,1,0,0,0-1,1v3H16v2H48V60H46V57a1,1,0,0,0-1-1H41.905l-.8-8H59a3,3,0,0,0,3-3V5A3,3,0,0,0,59,2ZM44,58v2H20V58ZM24.105,56l.8-8H39.1l.8,8ZM60,45a1,1,0,0,1-1,1H5a1,1,0,0,1-1-1V5A1,1,0,0,1,5,4H59a1,1,0,0,1,1,1Z"></path><path d="M56,6H8A2,2,0,0,0,6,8V39a1,1,0,0,0,1,1H57a1,1,0,0,0,1-1V8A2,2,0,0,0,56,6Zm0,32H8V8H56Z"></path><rect x="31" y="42" width="2" height="2"></rect></g></svg>