<svg xmlns="http://www.w3.org/2000/svg" viewBox="0 0 64 64" x="0px" y="0px"><g><rect x="47" y="44" width="12" height="16"></rect><rect x="46" y="36" width="14" height="6"></rect><path d="M48,33v1H58V27.317L51.234,15.6a2.006,2.006,0,0,0-1.734-1,1.275,1.275,0,0,0-.257.02c-.034.008-.067.015-.1.02a1.856,1.856,0,0,0-.651.231,2.007,2.007,0,0,0-.725,2.73l5.716,9.9-1.732,1-5.716-9.9A4.013,4.013,0,0,1,47.5,13.135a4.317,4.317,0,0,1,.5-.23V6a2,2,0,0,0-4,0V27.649l3.781,4.726A1,1,0,0,1,48,33Z"></path><rect x="24" y="14" width="2" height="2"></rect><rect x="28" y="14" width="2" height="2"></rect><rect x="32" y="14" width="2" height="2"></rect><rect x="26" y="10" width="2" height="2"></rect><rect x="30" y="10" width="2" height="2"></rect><rect x="34" y="10" width="2" height="2"></rect><rect x="26" y="18" width="2" height="2"></rect><rect x="30" y="18" width="2" height="2"></rect><rect x="34" y="18" width="2" height="2"></rect><path d="M28,33H4V53H28ZM24,45a1,1,0,0,1-1,1H19v4a1,1,0,0,1-1,1H14a1,1,0,0,1-1-1V46H9a1,1,0,0,1-1-1V41a1,1,0,0,1,1-1h4V36a1,1,0,0,1,1-1h4a1,1,0,0,1,1,1v4h4a1,1,0,0,1,1,1Z"></path><path d="M17,41V37H15v4a1,1,0,0,1-1,1H10v2h4a1,1,0,0,1,1,1v4h2V45a1,1,0,0,1,1-1h4V42H18A1,1,0,0,1,17,41Z"></path><path d="M28,55H4v2a3,3,0,0,0,3,3H25a3,3,0,0,0,3-3Z"></path><rect x="12" y="20" width="8" height="4"></rect><polygon points="18 14 18 12 14 12 14 18 18 18 18 16 16 16 16 14 18 14"></polygon><path d="M23,26H9a5.006,5.006,0,0,0-5,5H28A5.006,5.006,0,0,0,23,26Z"></path></g></svg>