<svg xmlns="http://www.w3.org/2000/svg" viewBox="0 0 64 64" x="0px" y="0px"><g><path d="M41,6A14,14,0,1,0,55,20,14.015,14.015,0,0,0,41,6Zm0,26A12,12,0,1,1,53,20,12.013,12.013,0,0,1,41,32Z"></path><rect x="40" y="9" width="2" height="2"></rect><rect x="32.929" y="11.929" width="2" height="2" transform="translate(0.796 27.778) rotate(-45)"></rect><rect x="30" y="19" width="2" height="2"></rect><rect x="32.929" y="26.071" width="2" height="2" transform="translate(-9.205 31.92) rotate(-45)"></rect><rect x="40" y="29" width="2" height="2"></rect><rect x="47.071" y="26.071" width="2" height="2" transform="translate(-5.063 41.921) rotate(-45)"></rect><rect x="50" y="19" width="2" height="2"></rect><rect x="47.071" y="11.929" width="2" height="2" transform="translate(4.938 37.778) rotate(-45)"></rect><path d="M47,21V19H43.816A3,3,0,0,0,42,17.184V13H40v4.184A2.993,2.993,0,1,0,43.816,21Zm-6,0a1,1,0,1,1,1-1A1,1,0,0,1,41,21Z"></path><path d="M41,2A18,18,0,1,0,59,20,18.021,18.021,0,0,0,41,2Zm0,34A16,16,0,1,1,57,20,16.019,16.019,0,0,1,41,36Z"></path><rect x="20" y="52" width="10" height="2"></rect><rect x="20" y="48" width="10" height="2"></rect><path d="M37,48a3,3,0,1,0,3,3A3,3,0,0,0,37,48Zm0,4a1,1,0,1,1,1-1A1,1,0,0,1,37,52Z"></path><path d="M13,48a3,3,0,1,0,3,3A3,3,0,0,0,13,48Zm0,4a1,1,0,1,1,1-1A1,1,0,0,1,13,52Z"></path><path d="M45,43a3.009,3.009,0,0,0-3-3,2.942,2.942,0,0,0-1.62.49l-.32-.84-1.87.7L39.56,44H21.86a3.983,3.983,0,0,0-7.72,0h-3.7l2.25-6H30V36H13.28l.5-2H25V32H21V30h2V28H20a1,1,0,0,0-1,1v3H13.78a1.99,1.99,0,0,0-1.94,1.52l-.8,3.18L9.62,40.49A2.918,2.918,0,0,0,8,40a3,3,0,0,0-1.6,5.53A2.942,2.942,0,0,0,6,47V60a2.006,2.006,0,0,0,2,2h4a2.006,2.006,0,0,0,2-2V58H36v2a2.006,2.006,0,0,0,2,2h4a2.006,2.006,0,0,0,2-2V47a2.942,2.942,0,0,0-.4-1.47A2.983,2.983,0,0,0,45,43ZM18,43a2,2,0,0,1,1.72,1H16.28A2,2,0,0,1,18,43ZM7,43a1,1,0,0,1,1-1,.973.973,0,0,1,.86.51l-.53,1.43A.96.96,0,0,1,8,44,1,1,0,0,1,7,43Zm5,17H8V57.82A3,3,0,0,0,9,58h3Zm30,0H38V58h3a3,3,0,0,0,1-.18Zm0-5a1,1,0,0,1-1,1H9a1,1,0,0,1-1-1V47a1,1,0,0,1,1-1H41a1,1,0,0,1,1,1Zm0-11a.96.96,0,0,1-.33-.06l-.53-1.42A.982.982,0,0,1,42,42a1,1,0,0,1,0,2Z"></path></g></svg>