<svg xmlns="http://www.w3.org/2000/svg" viewBox="0 0 64 64" x="0px" y="0px"><g><rect x="26" y="26" width="13" height="2"></rect><rect x="41" y="26" width="2" height="2"></rect><rect x="22" y="26" width="2" height="2"></rect><path d="M62,22a10.015,10.015,0,0,0-9.065-9.957A7.01,7.01,0,0,0,46,6a6.928,6.928,0,0,0-4.051,1.292,11.994,11.994,0,0,0-21.533,3.6A6.984,6.984,0,0,0,10.083,16H10a8,8,0,0,0,0,16H20V48a1,1,0,0,1-1,1H15.858a4,4,0,1,0,0,2H19a3,3,0,0,0,3-3V32h9V52h2V32h9V48a3,3,0,0,0,3,3h3.142a4,4,0,1,0,0-2H45a1,1,0,0,1-1-1V32h8A10.011,10.011,0,0,0,62,22ZM12,52a2,2,0,1,1,2-2A2,2,0,0,1,12,52Zm40-4a2,2,0,1,1-2,2A2,2,0,0,1,52,48ZM4,24a6.006,6.006,0,0,1,6-6,5.914,5.914,0,0,1,.861.07,1.026,1.026,0,0,0,.8-.274A1.086,1.086,0,0,0,12,17a4.993,4.993,0,0,1,8.412-3.646,1,1,0,0,0,1.675-.606A9.993,9.993,0,0,1,40.82,9.29a1,1,0,0,0,1.6.226A5,5,0,0,1,51,13a1,1,0,0,0,1,1,8,8,0,0,1,0,16H10A6.006,6.006,0,0,1,4,24Z"></path><rect x="47" y="12" width="2" height="2"></rect><rect x="43" y="12" width="2" height="2"></rect><path d="M58,22H56a4,4,0,0,1-4,4v2A6.006,6.006,0,0,0,58,22Z"></path><rect x="48" y="26" width="2" height="2"></rect><path d="M32,54a4,4,0,1,0,4,4A4,4,0,0,0,32,54Zm0,6a2,2,0,1,1,2-2A2,2,0,0,1,32,60Z"></path><rect x="16" y="34" width="2" height="2"></rect><rect x="16" y="38" width="2" height="2"></rect><rect x="16" y="42" width="2" height="2"></rect><rect x="46" y="34" width="2" height="2"></rect><rect x="46" y="38" width="2" height="2"></rect><rect x="46" y="42" width="2" height="2"></rect></g></svg>