<svg xmlns="http://www.w3.org/2000/svg" viewBox="0 0 64 64" x="0px" y="0px"><g><path d="M52.765,42.141a3.969,3.969,0,0,0-3.058-.135l-6.235,2.269A4,4,0,0,0,40.61,42.16l-13.59-2.4a.967.967,0,0,0-.514.045l-6.531,2.376-.342-.939a1,1,0,0,0-.517-.564.989.989,0,0,0-.764-.034l-7.518,2.737a1,1,0,0,0-.6,1.281h0l-6.578,2.4a1,1,0,0,0-.6,1.281L7.849,61.5a1,1,0,0,0,.939.658A.983.983,0,0,0,9.13,62.1L15.708,59.7h0a1,1,0,0,0,1.281.6l7.518-2.737a1,1,0,0,0,.6-1.281l-.342-.94.611-.222,5.734,1.937a1.01,1.01,0,0,0,.663-.008l20.672-7.525a4,4,0,0,0,.323-7.382ZM9.386,59.874,5.281,48.6l5.639-2.053,4.1,11.277Zm7.859-1.8L12.457,44.922,18.1,42.87l.341.939h0l4.447,12.216ZM51.759,47.644,31.415,55.049l-5.734-1.937a.989.989,0,0,0-.662.008l-.94.342-3.42-9.4,6.279-2.285,13.325,2.35A2.007,2.007,0,0,1,41.8,45.42a1.115,1.115,0,0,1,.067.243c0,.035.01.071.017.106a1.827,1.827,0,0,1,.008.677,2.018,2.018,0,0,1-2.319,1.627L28.312,46.087l-.347,1.97,11.259,1.985a4.007,4.007,0,0,0,4.635-3.258,3.949,3.949,0,0,0,.043-.537l6.49-2.362a2,2,0,0,1,1.367,3.759Z"></path><path d="M59.034,15.842A14.063,14.063,0,0,0,55,14.12V11a7.008,7.008,0,0,0-7-7H46a7.008,7.008,0,0,0-7,7V31a5.006,5.006,0,0,1-5,5H26a5.009,5.009,0,0,1-4.9-4H29a2,2,0,0,0,2-2V16.307l1.9,1.4a2.768,2.768,0,0,0,1.64.54,2.85,2.85,0,0,0,.493-.044,2.785,2.785,0,0,0,1.122-5.018l-15.58-11a1,1,0,0,0-1.154,0l-15.58,11A2.786,2.786,0,1,0,7.1,17.7l1.9-1.4V30a2,2,0,0,0,2,2h8.08A7,7,0,0,0,26,38h8a7.008,7.008,0,0,0,7-7V11a5.006,5.006,0,0,1,5-5h2a5.006,5.006,0,0,1,5,5v3.12a14.072,14.072,0,0,0-4.033,1.721A1.98,1.98,0,0,0,48,17.554V23a3,3,0,0,0,3,3V38a1,1,0,0,0,.553.9l2,1a1,1,0,0,0,.894,0l2-1A1,1,0,0,0,57,38V26a3,3,0,0,0,3-3V17.554A1.979,1.979,0,0,0,59.034,15.842Zm-53.12.247a.786.786,0,0,1-1.118-.2A.782.782,0,0,1,5,14.814L20,4.224l15,10.59a.786.786,0,1,1-.917,1.276l-13.494-9.9a1,1,0,0,0-1.184,0ZM11,14.841l9-6.6,9,6.6V30H21V23a1,1,0,0,0-1-1H14a1,1,0,0,0-1,1v7H11ZM15,24h4v6H15ZM55,37.382l-1,.5-1-.5V26h2ZM58,23a1,1,0,0,1-1,1H51a1,1,0,0,1-1-1V17.554l0,0A9.383,9.383,0,0,1,54,16a9.378,9.378,0,0,1,4,1.554Z"></path><path d="M22,23v4a1,1,0,0,0,1,1h4a1,1,0,0,0,1-1V23a1,1,0,0,0-1-1H23A1,1,0,0,0,22,23Zm2,1h2v2H24Z"></path><path d="M20,20a4,4,0,1,0-4-4A4,4,0,0,0,20,20Zm0-6a2,2,0,1,1-2,2A2,2,0,0,1,20,14Z"></path><circle cx="54" cy="19" r="1"></circle></g></svg>