<svg xmlns="http://www.w3.org/2000/svg" viewBox="0 0 64 64" x="0px" y="0px"><g data-name="Graphic Design-Idea-Edit Tools-Graphic Tools-Head"><path d="M60.92,24.96c-.03-.37-.07-.73-.11-1.08a1,1,0,0,0-.99-.88H55V12a.978.978,0,0,0-.09-.41l-4-9a1,1,0,0,0-1.82,0l-4,9A.978.978,0,0,0,45,12V23H43V13a1,1,0,0,0-1-1H39.97A4.924,4.924,0,0,0,41,9a5.017,5.017,0,0,0-4-4.9V2H35V4.1A5.017,5.017,0,0,0,31,9a4.924,4.924,0,0,0,1.03,3H30a1,1,0,0,0-1,1V23H27V3a1,1,0,0,0-1-1H18a1,1,0,0,0-1,1V23H12.19a1.013,1.013,0,0,0-1,.88c-.11.9-.17,1.81-.19,2.73L2.78,35.65A2,2,0,0,0,4.26,39H9v6a7.008,7.008,0,0,0,7,7h8v9a1,1,0,0,0,1,1H53a1,1,0,0,0,1-1V44.35A25.053,25.053,0,0,0,60.92,24.96ZM50,5.46,50.68,7H49.32ZM48.43,9h3.14l.89,2H47.54ZM53,13V23H51V13Zm-6,0h2V23H47ZM36,6a3,3,0,1,1-3,3A3.009,3.009,0,0,1,36,6Zm-5,8H41v2H31Zm10,4v5H39V18Zm-4,0v5H35V18Zm-6,0h2v5H31ZM19,4h6V6H21V8h4v2H23v2h2v2H23v2h2v2H21v2h4v2H23v1H19ZM52.29,43.23a.99.99,0,0,0-.29.71V60H26V52a2.006,2.006,0,0,0-2-2H16a5,5,0,0,1-5-5V38a1,1,0,0,0-1-1H4.26l8.48-9.33A.971.971,0,0,0,13,27c0-.67.03-1.34.09-2H58.92v.11A23.03,23.03,0,0,1,52.29,43.23Z"></path><rect x="35" y="8" width="2" height="2"></rect></g></svg>