<svg xmlns="http://www.w3.org/2000/svg" viewBox="0 0 64 64" x="0px" y="0px"><g><path d="M61,8H56V6a4,4,0,0,0-4-4H23a5.006,5.006,0,0,0-5,5V18H16a3,3,0,0,0-3,3v3.2a4,4,0,0,0-2.575,1.95l-6.3,11.37A1.008,1.008,0,0,0,4,38l.01,10.041L2.687,50.43a2,2,0,0,0,.779,2.724L19.2,61.872a1.987,1.987,0,0,0,1.532.178,1.946,1.946,0,0,0,1.182-.945l1.377-2.48,4.372-3.877a.99.99,0,0,0,.185-.218L32.554,47H54a3,3,0,0,0,3-3V21a3,3,0,0,0-3-3H50V16h8a4,4,0,0,0,4-4V9A1,1,0,0,0,61,8ZM23,4H48.556A3.959,3.959,0,0,0,48,6V24.42L35,31.848,20,23.277V7A3,3,0,0,1,23,4ZM16,20h2v2.134l-2.85-1.629A.988.988,0,0,1,16,20ZM26.229,53.348l-4.392,3.894a.994.994,0,0,0-.211.263l-1.451,2.62L4.435,51.4l1.45-2.62A1,1,0,0,0,6.01,48.3L6,38.258l6.174-11.143a2.033,2.033,0,0,1,1.8-1.035,2.017,2.017,0,0,1,1.951,2.01,2.044,2.044,0,0,1-.255.965l-2.91,5.25a1,1,0,0,0,.391,1.361A4.984,4.984,0,0,1,15.135,42.4l-2.941,4.007,1.612,1.184.728-.992A2.973,2.973,0,0,0,16,47H30.2ZM54,45H16a.991.991,0,0,1-.251-.056l1.037-1.412a.8.8,0,0,0,.068-.107A6.98,6.98,0,0,0,15,34.491V34.4l2.429-4.381a4.057,4.057,0,0,0,.5-1.928,4.012,4.012,0,0,0-2.072-3.508,4.2,4.2,0,0,0-.858-.35V22.723L34.5,33.868a1,1,0,0,0,.992,0L55,22.723V44A1,1,0,0,1,54,45Zm0-25a.988.988,0,0,1,.85.5L50,23.277V20ZM50,6a2,2,0,0,1,4,0v6a3.959,3.959,0,0,0,.556,2H50Zm10,6a2,2,0,0,1-4,0V10h4Z"></path><rect x="24" y="7" width="4" height="2"></rect><rect x="30" y="7" width="14" height="2"></rect><rect x="24" y="12" width="20" height="2"></rect><rect x="24" y="17" width="20" height="2"></rect><rect x="24" y="22" width="6" height="2"></rect><rect x="32" y="22" width="12" height="2"></rect></g></svg>