<svg xmlns="http://www.w3.org/2000/svg" viewBox="0 0 64 64" x="0px" y="0px"><g data-name="Report"><path d="M54.707,13.293l-12-12A1,1,0,0,0,42,1H10A1,1,0,0,0,9,2V60a1,1,0,0,0,1,1H54a1,1,0,0,0,1-1V14A1,1,0,0,0,54.707,13.293ZM43,4.414,51.586,13H43ZM11,59V3H41V14a1,1,0,0,0,1,1H53V59Z"></path><path d="M32,22.48a11.249,11.249,0,0,0-14.778.615,10.377,10.377,0,0,0,0,15.032L31.306,51.72a1,1,0,0,0,1.388,0L46.778,38.127a10.377,10.377,0,0,0,0-15.032A11.25,11.25,0,0,0,32,22.48ZM45.389,36.688,32,49.61,18.611,36.688a8.376,8.376,0,0,1,0-12.153,9.217,9.217,0,0,1,12.7,0,1,1,0,0,0,1.388,0,9.218,9.218,0,0,1,12.7,0,8.376,8.376,0,0,1,0,12.153Z"></path><path d="M33.1,32.553,32,34.764,28.9,28.553a1.042,1.042,0,0,0-1.79,0L25.382,32H19v2h7a1,1,0,0,0,.895-.553L28,31.236l3.105,6.211a1,1,0,0,0,1.79,0L34.618,34H45V32H34A1,1,0,0,0,33.1,32.553Z"></path><rect x="14" y="7" width="2" height="2"></rect><rect x="18" y="7" width="20" height="2"></rect><rect x="14" y="13" width="24" height="2"></rect></g></svg>