<svg xmlns="http://www.w3.org/2000/svg" viewBox="0 0 64 64" x="0px" y="0px"><g><path d="M59,14H50V5a3,3,0,0,0-3-3H13a3,3,0,0,0-3,3V24H5a3,3,0,0,0-3,3V57a5.006,5.006,0,0,0,5,5H57a5,5,0,0,0,5-5V17A3,3,0,0,0,59,14ZM42,4V9.132l-1.445-.964a1,1,0,0,0-1.11,0L38,9.132V4ZM12,5a1,1,0,0,1,1-1H36v7a1,1,0,0,0,1.555.832L40,10.2l2.445,1.63A1,1,0,0,0,44,11V4h3a1,1,0,0,1,1,1V30H34.441a1,1,0,0,1-.948-.684l-1.088-3.265A3,3,0,0,0,29.559,24H12ZM4,57V27a1,1,0,0,1,1-1H29.559a1,1,0,0,1,.948.684L31.6,29.949A3,3,0,0,0,34.441,32H51a1,1,0,0,1,1,1V56.828A5.254,5.254,0,0,0,53.085,60H7A3,3,0,0,1,4,57Zm56,0a3,3,0,0,1-3.3,2.986A3.118,3.118,0,0,1,54,56.828V33a3,3,0,0,0-3-3H50V16h9a1,1,0,0,1,1,1Z"></path><rect x="16" y="7" width="4" height="2"></rect><rect x="22" y="7" width="8" height="2"></rect><rect x="16" y="11" width="16" height="2"></rect><rect x="16" y="15" width="6" height="2"></rect><rect x="24" y="15" width="20" height="2"></rect><rect x="16" y="19" width="16" height="2"></rect><rect x="34" y="19" width="10" height="2"></rect><path d="M23,46H9a1,1,0,0,0-1,1v8a1,1,0,0,0,1,1H23a1,1,0,0,0,1-1V47A1,1,0,0,0,23,46Zm-1,8H10V48H22Z"></path></g></svg>