<svg xmlns="http://www.w3.org/2000/svg" viewBox="0 0 64 64" x="0px" y="0px"><g data-name="Faucet-Water-Plumber-Water Faucet-Bathroom"><path d="M60,49.18V48A15.018,15.018,0,0,0,45,33H38V31a1,1,0,0,0,1-1V24a1,1,0,0,0-1-1H33V21h1a1,1,0,0,0,1-1V17h4a4,4,0,1,0-3.44-6H32.44a3.958,3.958,0,0,0-6.88,0H22.44A3.991,3.991,0,1,0,19,17h4v3a1,1,0,0,0,1,1h1v2H20a1,1,0,0,0-1,1v6a1,1,0,0,0,1,1v2H18a1,1,0,0,0-1-1H12V31a1,1,0,0,0-1-1H3a1,1,0,0,0-1,1V47a1,1,0,0,0,1,1h8a1,1,0,0,0,1-1V46h5a1,1,0,0,0,1-1H45a3.009,3.009,0,0,1,3,3v1.18A3,3,0,0,0,49,55H59a3,3,0,0,0,1-5.82ZM39,11a2,2,0,1,1-2,2A2.006,2.006,0,0,1,39,11ZM19,15a2,2,0,1,1,2-2A2.006,2.006,0,0,1,19,15ZM10,46H4V32h6Zm6-2H12V34h4Zm4-1H18V35h2ZM33,13h2a3.906,3.906,0,0,0,.56,2H32.44A3.906,3.906,0,0,0,33,13Zm-4-2a2,2,0,1,1-2,2A2.006,2.006,0,0,1,29,11Zm4,6v2H25V17Zm-2,4v2H27V21Zm-8.56-6A3.906,3.906,0,0,0,23,13h2a3.906,3.906,0,0,0,.56,2ZM36,43H22V31H36Zm1-14H21V25H37Zm8,14H38V35h7A13.012,13.012,0,0,1,58,48v1H50V48A5,5,0,0,0,45,43ZM59,53H49a1,1,0,0,1,0-2H59a1,1,0,0,1,0,2Z"></path><rect x="6" y="34" width="2" height="2"></rect><rect x="24" y="39" width="2" height="2"></rect><rect x="28" y="39" width="4" height="2"></rect></g></svg>