<svg xmlns="http://www.w3.org/2000/svg" viewBox="0 0 64 64" x="0px" y="0px"><g data-name="Portfolio-Pen-Bag-Digital Tablet-Art And Design"><rect x="9" y="46" width="4" height="2"></rect><polygon points="21.28 28 22.72 28 22.22 26 21.78 26 21.28 28"></polygon><path d="M7,47.83V35H5V45A3.014,3.014,0,0,0,7,47.83Z"></path><path d="M5,21H7V14H6a1,1,0,0,0-1,1Z"></path><path d="M45,15V13a1,1,0,0,0-1-1H16a1,1,0,0,0-1,1v2a5,5,0,0,0,5,5H40A5,5,0,0,0,45,15Z"></path><rect x="4" y="23" width="4" height="10"></rect><polygon points="50.41 14 47 17.41 47 20.59 51 16.59 51 14 50.41 14"></polygon><polygon points="45.772 52.692 45.334 54.004 45.875 54.544 47.186 54.106 56.919 44.374 55.505 42.96 45.772 52.692"></polygon><rect x="57.333" y="40.546" width="2" height="2" transform="translate(-12.293 53.413) rotate(-44.998)"></rect><path d="M55,15a1,1,0,0,0-1-1H53v7h2Z"></path><rect x="52" y="23" width="4" height="10"></rect><path d="M35,4.17V10h2V7A3.014,3.014,0,0,0,35,4.17Z"></path><path d="M53,35v3h2V35ZM48.43,55.69a.983.983,0,0,1-.39.24l-2.12.71a1.127,1.127,0,0,1-.32.05.984.984,0,0,1-.7-.29l-1.42,1.41L42.07,56.4l1.41-1.42a1.007,1.007,0,0,1-.29-.71,1.115,1.115,0,0,1,.05-.31l.71-2.12a.918.918,0,0,1,.24-.39L53.64,42H33a1,1,0,0,0-1,1V59a1,1,0,0,0,1,1H59a1,1,0,0,0,1-1V44.12ZM35,44h4v2H35Zm4,14H35V56h4Zm-2-4a3,3,0,1,1,3-3A3.009,3.009,0,0,1,37,54Z"></path><circle cx="37" cy="51" r="1"></circle><polygon points="13 17.41 9.59 14 9 14 9 16.59 13 20.59 13 17.41"></polygon><polygon points="21.78 48 21.28 50 22.72 50 22.22 48 21.78 48"></polygon><rect x="27" y="4" width="6" height="2"></rect><path d="M30,44V54H16a1,1,0,0,1-1-1V44h6v2a1,1,0,0,0-.97.76l-1,4a1.022,1.022,0,0,0,.18.86A1,1,0,0,0,20,52h4a1,1,0,0,0,.79-.38,1.022,1.022,0,0,0,.18-.86l-1-4A1,1,0,0,0,23,46V44Z"></path><path d="M33,40a3,3,0,0,0-2.82,2H15V40Z"></path><path d="M45,19.89V38H15V19.89A6.97,6.97,0,0,0,20,22h1v2a1,1,0,0,0-.97.76l-1,4a1.022,1.022,0,0,0,.18.86A1,1,0,0,0,20,30h4a1,1,0,0,0,.79-.38,1.022,1.022,0,0,0,.18-.86l-1-4A1,1,0,0,0,23,24V22H40A6.97,6.97,0,0,0,45,19.89Z"></path><path d="M23,10h2V4.17A3.014,3.014,0,0,0,23,7Z"></path></g></svg>