<svg xmlns="http://www.w3.org/2000/svg" viewBox="0 0 64 64" x="0px" y="0px"><g><path d="M61.9,54.553,56,42.764V11a3,3,0,0,0-3-3H44.627L41.9,5.272a1,1,0,0,0-1.414,0L38.093,7.665A11.834,11.834,0,0,0,35,6.387V3a1,1,0,0,0-1-1H30a1,1,0,0,0-1,1V6.387a11.834,11.834,0,0,0-3.093,1.278L23.515,5.272a1,1,0,0,0-1.414,0L19.373,8H11a3,3,0,0,0-3,3V42.764L2.105,54.553A1,1,0,0,0,2,55v5a2,2,0,0,0,2,2H60a2,2,0,0,0,2-2V55A1,1,0,0,0,61.9,54.553ZM29,56h6v1H29ZM4.618,54l5-10H54.382l5,10ZM22.808,7.393l2.253,2.253a1,1,0,0,0,1.274.117,9.892,9.892,0,0,1,3.846-1.589A1,1,0,0,0,31,7.19V4h2V7.19a1,1,0,0,0,.819.984,9.892,9.892,0,0,1,3.846,1.589,1,1,0,0,0,1.274-.117l2.253-2.253,1.415,1.415-2.253,2.253a1,1,0,0,0-.117,1.274,9.892,9.892,0,0,1,1.589,3.846A1,1,0,0,0,42.81,17H46v2H42.81a1,1,0,0,0-.984.819,9.892,9.892,0,0,1-1.589,3.846,1,1,0,0,0,.117,1.274l2.253,2.253-1.415,1.415-2.253-2.253a1,1,0,0,0-1.274-.117,9.892,9.892,0,0,1-3.846,1.589A1,1,0,0,0,33,28.81V32H31V28.81a1,1,0,0,0-.819-.984,9.892,9.892,0,0,1-3.846-1.589,1,1,0,0,0-1.274.117l-2.253,2.253-1.415-1.415,2.253-2.253a1,1,0,0,0,.117-1.274,9.892,9.892,0,0,1-1.589-3.846A1,1,0,0,0,21.19,19H18V17h3.19a1,1,0,0,0,.984-.819,9.892,9.892,0,0,1,1.589-3.846,1,1,0,0,0-.117-1.274L21.393,8.808ZM17,21h3.387a11.834,11.834,0,0,0,1.278,3.093l-2.393,2.392a1,1,0,0,0,0,1.414L22.1,30.728a1,1,0,0,0,1.414,0l2.392-2.393A11.834,11.834,0,0,0,29,29.613V33a1,1,0,0,0,1,1h4a1,1,0,0,0,1-1V29.613a11.834,11.834,0,0,0,3.093-1.278l2.392,2.393a1,1,0,0,0,1.414,0L44.728,27.9a1,1,0,0,0,0-1.414l-2.393-2.392A11.834,11.834,0,0,0,43.613,21H47a1,1,0,0,0,1-1V16a1,1,0,0,0-1-1H43.613c-.087-.343-.216-.669-.332-1H50V38H14V14h6.719c-.116.331-.245.657-.332,1H17a1,1,0,0,0-1,1v4A1,1,0,0,0,17,21ZM10,11a1,1,0,0,1,1-1h8.757l1.908,1.907c-.018.03-.029.063-.047.093H13a1,1,0,0,0-1,1V39a1,1,0,0,0,1,1H51a1,1,0,0,0,1-1V13a1,1,0,0,0-1-1H42.382c-.018-.03-.029-.063-.047-.093L44.243,10H53a1,1,0,0,1,1,1V42H10ZM4,60V56H27v1a2,2,0,0,0,2,2h6a2,2,0,0,0,2-2V56H60v4Z"></path><rect x="10" y="50" width="2" height="2"></rect><rect x="14" y="50" width="2" height="2"></rect><rect x="18" y="50" width="28" height="2"></rect><rect x="48" y="50" width="2" height="2"></rect><rect x="52" y="50" width="2" height="2"></rect><rect x="15" y="46" width="2" height="2"></rect><rect x="11" y="46" width="2" height="2"></rect><rect x="19" y="46" width="2" height="2"></rect><rect x="23" y="46" width="2" height="2"></rect><rect x="27" y="46" width="2" height="2"></rect><rect x="31" y="46" width="2" height="2"></rect><rect x="35" y="46" width="2" height="2"></rect><rect x="39" y="46" width="2" height="2"></rect><rect x="43" y="46" width="2" height="2"></rect><rect x="47" y="46" width="2" height="2"></rect><rect x="51" y="46" width="2" height="2"></rect><path d="M27,25H37a1,1,0,0,0,1-1V18a1,1,0,0,0-1-1H30V14a1,1,0,0,1,1-1h2a1,1,0,0,1,1,1v1h2V14a3,3,0,0,0-3-3H31a3,3,0,0,0-3,3v3H27a1,1,0,0,0-1,1v6A1,1,0,0,0,27,25Zm1-6h8v4H33V22h1V20H30v2h1v1H28Z"></path><rect x="58" y="30" width="2" height="2"></rect><rect x="4" y="30" width="2" height="2"></rect><rect x="4" y="24" width="2" height="2"></rect><rect x="4" y="18" width="2" height="2"></rect><rect x="58" y="24" width="2" height="2"></rect><rect x="58" y="18" width="2" height="2"></rect><rect x="57" y="5" width="2" height="2"></rect><rect x="5" y="5" width="2" height="2"></rect></g></svg>