<svg xmlns="http://www.w3.org/2000/svg" viewBox="0 0 48 48" x="0px" y="0px"><title>Ice Coffee_2</title><g data-name="Ice Coffee"><path d="M38,8H25.18l.667-4H29V2H25a1,1,0,0,0-.986.835L23.153,8H10A1,1,0,0,0,9,9v6a1,1,0,0,0,1,1h1.065l.348,5.216a1.027,1.027,0,0,0-.142.1,1,1,0,0,0-.269.747l1,16a1,1,0,0,0,.59.844l.348,5.226a2,2,0,0,0,2,1.868H33.064a2,2,0,0,0,2-1.867l.348-5.227a1,1,0,0,0,.59-.844l1-16a1,1,0,0,0-.269-.747,1.027,1.027,0,0,0-.142-.1L36.935,16H38a1,1,0,0,0,1-1V9A1,1,0,0,0,38,8ZM34.936,23l-.875,14H31.55a1,1,0,0,0-.687.273,10,10,0,0,1-13.726,0A1,1,0,0,0,16.45,37H13.939l-.875-14H16.45a1,1,0,0,0,.687-.273,10,10,0,0,1,13.726,0A1,1,0,0,0,31.55,23Zm-20,21L14.6,39h1.46a12,12,0,0,0,15.876,0H33.4l-.334,5ZM34.6,21h-2.66a12,12,0,0,0-15.876,0H13.4l-.333-5H34.931ZM37,14H11V10H37Z"></path></g></svg>