<svg xmlns="http://www.w3.org/2000/svg" viewBox="0 0 64 64" x="0px" y="0px"><g data-name="Investment"><path d="M32,24A19.021,19.021,0,0,0,13,43a1,1,0,0,0,2,0,2,2,0,0,1,4,0,1,1,0,0,0,2,0,2,2,0,0,1,4,0,1,1,0,0,0,2,0,2,2,0,0,1,4,0V58a4,4,0,0,0,8,0V57H37v1a2,2,0,0,1-4,0V43a2,2,0,0,1,4,0,1,1,0,0,0,2,0,2,2,0,0,1,4,0,1,1,0,0,0,2,0,2,2,0,0,1,4,0,1,1,0,0,0,2,0A19.021,19.021,0,0,0,32,24ZM23,39a3.99,3.99,0,0,0-3,1.357,4,4,0,0,0-4.6-1.022A17.036,17.036,0,0,1,29.642,26.179c-1.636,2.236-3.912,6.53-4.491,13.473A3.955,3.955,0,0,0,23,39Zm12,0a3.99,3.99,0,0,0-3,1.357,3.951,3.951,0,0,0-4.823-.9C27.891,31.978,30.715,27.92,32,26.439c1.285,1.481,4.109,5.539,4.823,13.017A3.963,3.963,0,0,0,35,39Zm12,0a3.99,3.99,0,0,0-3,1.357,3.946,3.946,0,0,0-5.151-.7c-.579-6.943-2.855-11.237-4.491-13.473A17.036,17.036,0,0,1,48.6,39.335,3.977,3.977,0,0,0,47,39Z"></path><path d="M12,24h2V23a2,2,0,0,0,2-2V20a2,2,0,0,0-2-2H12V17h4V15H14V14H12v1a2,2,0,0,0-2,2v1a2,2,0,0,0,2,2h2v1H10v2h2Z"></path><path d="M50,24h2V23a2,2,0,0,0,2-2V20a2,2,0,0,0-2-2H50V17h4V15H52V14H50v1a2,2,0,0,0-2,2v1a2,2,0,0,0,2,2h2v1H48v2h2Z"></path><path d="M35,14V12H33V11H31v1a2,2,0,0,0-2,2v1a2,2,0,0,0,2,2h2v1H29v2h2v1h2V20a2,2,0,0,0,2-2V17a2,2,0,0,0-2-2H31V14Z"></path><path d="M32,9a1,1,0,0,0,.707-.293l3-3L34.293,4.293,33,5.586V2H31V5.586L29.707,4.293,28.293,5.707l3,3A1,1,0,0,0,32,9Z"></path><path d="M13.707,32.707l3-3-1.414-1.414L14,29.586V26H12v3.586l-1.293-1.293L9.293,29.707l3,3a1,1,0,0,0,1.414,0Z"></path><path d="M53.293,28.293,52,29.586V26H50v3.586l-1.293-1.293-1.414,1.414,3,3a1,1,0,0,0,1.414,0l3-3Z"></path><rect x="50" y="10" width="2" height="2"></rect><rect x="50" y="6" width="2" height="2"></rect><rect x="39" y="12" width="2" height="2"></rect><rect x="39" y="8" width="2" height="2"></rect><rect x="23" y="18" width="2" height="2"></rect><rect x="23" y="14" width="2" height="2"></rect><rect x="12" y="10" width="2" height="2"></rect><rect x="12" y="6" width="2" height="2"></rect></g></svg>