<svg xmlns="http://www.w3.org/2000/svg" viewBox="0 0 64 64" x="0px" y="0px"><g><path d="M47,13.226c0-.076,0-.151,0-.226a7.008,7.008,0,0,0-7-7,6.9,6.9,0,0,0-2.232.369A10.994,10.994,0,0,0,18,13v.055A9,9,0,0,0,19,31H45a9,9,0,0,0,2-17.774ZM45,29H19a7,7,0,1,1,.05-14,1,1,0,0,0,1-1.1c-.029-.3-.045-.6-.045-.9A8.994,8.994,0,0,1,36.565,8.138a1,1,0,0,0,1.274.359A4.948,4.948,0,0,1,40,8a5.006,5.006,0,0,1,5,5,4.949,4.949,0,0,1-.083.879,1,1,0,0,0,.873,1.169A7,7,0,0,1,45,29Z"></path><path d="M24,45H22v1a2,2,0,0,0-2,2v1a2,2,0,0,0,2,2h2v1H20v2h2v1h2V54a2,2,0,0,0,2-2V51a2,2,0,0,0-2-2H22V48h4V46H24Z"></path><path d="M36,41H34v1a2,2,0,0,0-2,2v1a2,2,0,0,0,2,2h2v1H32v2h2v1h2V50a2,2,0,0,0,2-2V47a2,2,0,0,0-2-2H34V44h4V42H36Z"></path><path d="M46,52H44v1a2,2,0,0,0-2,2v1a2,2,0,0,0,2,2h2v1H42v2h2v1h2V61a2,2,0,0,0,2-2V58a2,2,0,0,0-2-2H44V55h4V53H46Z"></path><rect x="19" y="33" width="2" height="2"></rect><rect x="19" y="37" width="2" height="2"></rect><rect x="19" y="41" width="2" height="2"></rect><rect x="26" y="35" width="2" height="2"></rect><rect x="34" y="33" width="2" height="2"></rect><rect x="26" y="39" width="2" height="2"></rect><rect x="34" y="37" width="2" height="2"></rect><rect x="44" y="36" width="2" height="2"></rect><rect x="44" y="40" width="2" height="2"></rect><rect x="44" y="44" width="2" height="2"></rect><rect x="44" y="48" width="2" height="2"></rect></g></svg>