<svg xmlns="http://www.w3.org/2000/svg" viewBox="0 0 64 64" x="0px" y="0px"><g data-name="Robot Vacuum Cleaner-Internet of Things-Vacuum-Smartphone-Control"><path d="M10.465,43.465l1.414,1.414a3.072,3.072,0,0,1,4.242,0l1.414-1.414a5,5,0,0,0-7.07,0Z"></path><path d="M9.05,42.05a7.009,7.009,0,0,1,9.9,0l1.414-1.414a9.012,9.012,0,0,0-12.728,0Z"></path><path d="M12.586,46.586,14,48l1.414-1.414A2,2,0,0,0,12.586,46.586Z"></path><rect x="13" y="56" width="2" height="2"></rect><path d="M38,5A22.014,22.014,0,0,0,16.03,26H7a5,5,0,0,0-5,5V57a5,5,0,0,0,5,5H21a5,5,0,0,0,5-5V45.44A21.727,21.727,0,0,0,38,49,22,22,0,0,0,38,5ZM24,57a3.009,3.009,0,0,1-3,3H7a3.009,3.009,0,0,1-3-3V54H24Zm0-5H4V34H24Zm0-20H4V31a3.009,3.009,0,0,1,3-3H21a3.009,3.009,0,0,1,3,3Zm0-4.97V27a14,14,0,0,1,1.46-6.19A12.08,12.08,0,0,1,27,27a13.227,13.227,0,0,1-1,5.19V31A4.952,4.952,0,0,0,24,27.03ZM47,27a13.109,13.109,0,0,0,2.42,8.07,13.971,13.971,0,0,1-22.85,0A13.07,13.07,0,0,0,29,27a13.109,13.109,0,0,0-2.42-8.07,13.961,13.961,0,0,1,22.84,0A13.109,13.109,0,0,0,47,27Zm3.54-6.19a13.852,13.852,0,0,1,0,12.38A12.08,12.08,0,0,1,49,27,12.08,12.08,0,0,1,50.54,20.81ZM38,47a19.727,19.727,0,0,1-12-4.02v-5.4a16.01,16.01,0,1,0-3.96-11.47A5.022,5.022,0,0,0,21,26H18.05A19.988,19.988,0,1,1,38,47Z"></path><path d="M34,29a3,3,0,1,0,3,3A3,3,0,0,0,34,29Zm0,4a1,1,0,1,1,1-1A1,1,0,0,1,34,33Z"></path><path d="M42,29a3,3,0,1,0,3,3A3,3,0,0,0,42,29Zm0,4a1,1,0,1,1,1-1A1,1,0,0,1,42,33Z"></path><path d="M44,19H32a1,1,0,0,0-1,1v6a1,1,0,0,0,1,1H44a1,1,0,0,0,1-1V20A1,1,0,0,0,44,19Zm-1,6H33V21H43Z"></path><rect x="24" y="2.483" width="2" height="4.001" transform="translate(1.107 13.098) rotate(-29.995)"></rect><rect x="18.615" y="6.615" width="2" height="4" transform="translate(-0.347 16.393) rotate(-45)"></rect><rect x="14.483" y="12" width="2" height="4.001" transform="translate(-4.382 20.411) rotate(-60.005)"></rect><rect x="49" y="3.483" width="4.001" height="2" transform="translate(21.621 46.412) rotate(-60.005)"></rect><rect x="54.385" y="7.615" width="4" height="2" transform="translate(10.423 42.393) rotate(-45)"></rect><rect x="58.516" y="13" width="4.001" height="2" transform="translate(1.106 32.128) rotate(-29.995)"></rect></g></svg>