<svg xmlns="http://www.w3.org/2000/svg" viewBox="0 0 64 64" x="0px" y="0px"><g><path d="M55,20A11,11,0,1,0,44,31,11.013,11.013,0,0,0,55,20Zm-9,8.768V27.414l.707-.707A1,1,0,0,0,47,26V25h.649l2.239,1.791A8.965,8.965,0,0,1,46,28.768ZM53,20H50.162L48,19.279V17.618l1.447-.723A1,1,0,0,0,50,16V14.236l.318-.636A8.97,8.97,0,0,1,53,20Zm-4.291-7.655-.6,1.208A1,1,0,0,0,48,14v1.382l-1.447.723A1,1,0,0,0,46,17v3a1,1,0,0,0,.684.949l3,1A1,1,0,0,0,50,22h2.768a8.948,8.948,0,0,1-1.523,3.316l-2.62-2.1A1,1,0,0,0,48,23H46a1,1,0,0,0-1,1v1.586l-.707.707A1,1,0,0,0,44,27v2a8.957,8.957,0,0,1-6.061-2.366l.667.285A.993.993,0,0,0,39,27h3a1,1,0,0,0,1-1V24a1,1,0,0,0-.553-.895L41,22.382v-.847l2.555-1.7A1,1,0,0,0,44,19V17a1,1,0,0,0-.293-.707L43,15.586V13a1,1,0,0,0-.2-.6l-.864-1.152a8.856,8.856,0,0,1,6.773,1.1Zm-8.737-.382L41,13.333V16a1,1,0,0,0,.293.707l.707.707v1.051l-2.555,1.7A1,1,0,0,0,39,21v2a1,1,0,0,0,.553.895L41,24.618V25h-1.8L35.71,23.5a8.985,8.985,0,0,1,4.262-11.54Z"></path><path d="M39.333,42.665A1,1,0,0,0,39,43.41V60H19V51a1,1,0,0,0-1-1H12a3,3,0,0,1-3-3V40a1,1,0,0,0-1-1H4.081l6.7-8.375A1,1,0,0,0,11,30,16.969,16.969,0,0,1,26.11,13.1l-.22-1.988A18.966,18.966,0,0,0,9,29.645L2.519,37.75A2,2,0,0,0,4.081,41H7v6a5.006,5.006,0,0,0,5,5h5v9a1,1,0,0,0,1,1H40a1,1,0,0,0,1-1V43.85A19.075,19.075,0,0,0,43.833,40.5L42.167,39.4A17.019,17.019,0,0,1,39.333,42.665Z"></path><rect x="43" y="2" width="2" height="2"></rect><rect x="38.6" y="2.579" width="2" height="2" transform="matrix(0.966, -0.259, 0.259, 0.966, 0.422, 10.369)"></rect><rect x="34.5" y="4.278" width="2" height="2" transform="translate(2.118 18.458) rotate(-30.002)"></rect><rect x="30.979" y="6.979" width="2" height="2" transform="translate(3.724 24.95) rotate(-45)"></rect><rect x="28.277" y="10.5" width="2" height="2" transform="translate(4.679 31.104) rotate(-59.998)"></rect><rect x="26.579" y="14.6" width="2" height="2" transform="matrix(0.259, -0.966, 0.966, 0.259, 5.374, 38.204)"></rect><rect x="26" y="19" width="2" height="2"></rect><rect x="26.579" y="23.4" width="2" height="2" transform="translate(-5.375 7.969) rotate(-15)"></rect><rect x="28.278" y="27.5" width="2" height="2" transform="translate(-10.327 18.453) rotate(-29.995)"></rect><rect x="30.979" y="31.021" width="2" height="2" transform="translate(-13.276 31.991) rotate(-45)"></rect><rect x="34.5" y="33.722" width="2" height="2" transform="translate(-12.319 48.11) rotate(-60.005)"></rect><rect x="38.6" y="35.421" width="2" height="2" transform="matrix(0.259, -0.966, 0.966, 0.259, -5.827, 65.248)"></rect><rect x="43" y="36" width="2" height="2"></rect><rect x="47.4" y="35.421" width="2" height="2" transform="matrix(0.966, -0.259, 0.259, 0.966, -7.776, 13.764)"></rect><rect x="51.5" y="33.722" width="2" height="2" transform="translate(-10.328 30.904) rotate(-30.002)"></rect><rect x="55.021" y="31.021" width="2" height="2" transform="translate(-6.234 48.991) rotate(-45)"></rect><rect x="57.722" y="27.5" width="2" height="2" transform="translate(4.678 65.104) rotate(-59.998)"></rect><rect x="59.421" y="23.4" width="2" height="2" transform="translate(21.218 76.449) rotate(-75.004)"></rect><rect x="60" y="19" width="2" height="2"></rect><rect x="59.421" y="14.6" width="2" height="2" transform="matrix(0.966, -0.259, 0.259, 0.966, -1.979, 16.166)"></rect><rect x="57.722" y="10.5" width="2" height="2" transform="translate(2.118 30.904) rotate(-30.002)"></rect><rect x="55.021" y="6.979" width="2" height="2" transform="translate(10.766 41.95) rotate(-45)"></rect><rect x="51.5" y="4.277" width="2" height="2" transform="translate(21.683 48.108) rotate(-60.005)"></rect><rect x="47.4" y="2.579" width="2" height="2" transform="translate(32.416 49.404) rotate(-75)"></rect></g></svg>