<svg xmlns="http://www.w3.org/2000/svg" viewBox="0 0 64 64" x="0px" y="0px"><g data-name="Sound-Cloud"><path d="M50.53,20.27a.994.994,0,0,1-.77-.79A13.985,13.985,0,0,0,23.61,15.5a1.007,1.007,0,0,1-.95.53l-.21-.01c-.15-.01-.3-.02-.45-.02a11.007,11.007,0,0,0-10.89,9.56.987.987,0,0,1-.71.82A9,9,0,0,0,13,44H26.35A9,9,0,0,1,23,37h2a7,7,0,0,0,14,0h2a9,9,0,0,1-3.35,7H48a12,12,0,0,0,2.53-23.73ZM37,37a5,5,0,0,1-10,0V29a5,5,0,0,1,10,0Z"></path><path d="M32,26a3,3,0,0,0-3,3v8a3,3,0,0,0,6,0V29A3,3,0,0,0,32,26Z"></path><path d="M38,54v2H26V54h5V45.94A8.9,8.9,0,0,1,26.37,44H37.63A8.9,8.9,0,0,1,33,45.94V54Z"></path></g></svg>