<svg xmlns="http://www.w3.org/2000/svg" viewBox="0 0 64 64" x="0px" y="0px"><g><path d="M45,20H44V3a1,1,0,0,0-1.588-.809L40.251,3.764l-2.16-1.573a1,1,0,0,0-1.177,0L34.756,3.763,32.6,2.191a1,1,0,0,0-1.177,0L29.258,3.764,27.1,2.191a1,1,0,0,0-1.176,0L23.754,3.765,21.587,2.19A1,1,0,0,0,20,3V20H19a3,3,0,0,0-3,3V59a3,3,0,0,0,3,3H45a3,3,0,0,0,3-3V23A3,3,0,0,0,45,20ZM22,4.962l1.167.848a1,1,0,0,0,1.175,0l2.166-1.574L28.67,5.809a1,1,0,0,0,1.177,0l2.161-1.573,2.16,1.573a1,1,0,0,0,1.177,0L37.5,4.237l2.16,1.572a1,1,0,0,0,1.176,0L42,4.964V20H22ZM46,59a1,1,0,0,1-1,1H19a1,1,0,0,1-1-1V23a1,1,0,0,1,1-1H45a1,1,0,0,1,1,1Z"></path><path d="M32,30a1,1,0,0,1,1,1h2a3,3,0,0,0-2-2.816V27H31v1.184A2.993,2.993,0,0,0,32,34a1,1,0,1,1-1,1H29a3,3,0,0,0,2,2.816V39h2V37.816A2.993,2.993,0,0,0,32,32a1,1,0,0,1,0-2Z"></path><path d="M42,24H22a2,2,0,0,0-2,2V40a2,2,0,0,0,2,2H42a2,2,0,0,0,2-2V26A2,2,0,0,0,42,24ZM22,40V26H42V40Z"></path><path d="M43,44H21a1,1,0,0,0-1,1V57a1,1,0,0,0,1,1H43a1,1,0,0,0,1-1V45A1,1,0,0,0,43,44ZM34,56H29V52h5Zm0-6H29V46h5Zm-7-4v4H22V46Zm-5,6h5v4H22Zm20,4H36V46h6Z"></path><rect x="26" y="8" width="4" height="2"></rect><rect x="32" y="8" width="6" height="2"></rect><rect x="26" y="12" width="4" height="2"></rect><rect x="32" y="12" width="6" height="2"></rect><rect x="26" y="16" width="4" height="2"></rect><rect x="32" y="16" width="6" height="2"></rect></g></svg>