<svg xmlns="http://www.w3.org/2000/svg" viewBox="0 0 64 64" x="0px" y="0px"><g data-name="Online Shopping-Online Store-Shopping Bag-Ecommerce-Computer"><path d="M33,33a1,1,0,0,0,1,1h8a1,1,0,0,0,1-1V25H33Zm2-6h2v2a1,1,0,0,0,2,0V27h2v2a3,3,0,0,1-6,0Z"></path><path d="M31,22H25v2H23V22H21V33a1,1,0,0,0,1,1h9.18A3,3,0,0,1,31,33Z"></path><path d="M31,19a3,3,0,0,0-6,0v1h6Z"></path><path d="M59,7.11,58.22,4H53V7a3,3,0,0,0,6,.11Z"></path><rect x="33" y="22" width="2" height="1"></rect><path d="M21,59a1,1,0,0,0,1,1H42a1,1,0,0,0,0-2H22A1,1,0,0,0,21,59Z"></path><polygon points="26.91 48 26.11 56 37.89 56 37.09 48 26.91 48"></polygon><path d="M11,7V4H5.78L5,7.11A3,3,0,0,0,11,7Z"></path><path d="M48,10a3.009,3.009,0,0,0,3-3V4H45V7A3.009,3.009,0,0,0,48,10Z"></path><path d="M32,10a3.009,3.009,0,0,0,3-3V4H29V7A3.009,3.009,0,0,0,32,10Z"></path><path d="M16,10a3.009,3.009,0,0,0,3-3V4H13V7A3.009,3.009,0,0,0,16,10Z"></path><path d="M40,10a3.009,3.009,0,0,0,3-3V4H37V7A3.009,3.009,0,0,0,40,10Z"></path><path d="M24,10a3.009,3.009,0,0,0,3-3V4H21V7A3.009,3.009,0,0,0,24,10Z"></path><path d="M58,40H6v3a3.009,3.009,0,0,0,3,3H55a3.009,3.009,0,0,0,3-3Zm-4,4H52V42h2Z"></path><path d="M58,11.58A4.941,4.941,0,0,1,56,12a4.994,4.994,0,0,1-4-2.03,4.956,4.956,0,0,1-8,0,4.956,4.956,0,0,1-8,0,4.956,4.956,0,0,1-8,0,4.956,4.956,0,0,1-8,0,4.956,4.956,0,0,1-8,0A4.994,4.994,0,0,1,8,12a4.941,4.941,0,0,1-2-.42V38H58ZM45,33a3.009,3.009,0,0,1-3,3H22a3.009,3.009,0,0,1-3-3V21a1,1,0,0,1,1-1h3V19a5,5,0,0,1,10,0v1h3a1,1,0,0,1,1,1v2h7a1,1,0,0,1,1,1Z"></path></g></svg>