<svg xmlns="http://www.w3.org/2000/svg" viewBox="0 0 64 64" x="0px" y="0px"><g data-name="Smarthome-Router-Internet of Things-Wifi-Technology"><path d="M25,41a1,1,0,0,0-2,0v5h2Z"></path><path d="M20,54H44V48H20Zm18-4h2v2H38Zm-4,0h2v2H34Zm-6,0h2v2H28Zm-4,0h2v2H24Z"></path><path d="M60.05,27.11a.948.948,0,0,0-.35-.68L32.64,3.84A1,1,0,0,0,32,3.61a1.047,1.047,0,0,0-.64.23L4.38,26.48a1.094,1.094,0,0,0-.31,1.34,1.02,1.02,0,0,0,.7.48.977.977,0,0,0,.81-.22L31.35,6.24a.987.987,0,0,1,1.29,0L58.42,27.96a.988.988,0,0,0,1.4-.13A.913.913,0,0,0,60.05,27.11Z"></path><path d="M31,26.858V24H28.142A4,4,0,0,0,31,26.858Z"></path><path d="M41,41a1,1,0,0,0-2,0v5h2Z"></path><path d="M13,24.42V60H51V24.32L32,8.31Zm14.536,7.045-1.414,1.414a3,3,0,0,0-4.244,0l-1.414-1.414A5.008,5.008,0,0,1,27.536,31.465Zm-2.122,3.121L24,36l-1.414-1.414A2,2,0,0,1,25.414,34.586ZM46,48v6a2.006,2.006,0,0,1-2,2H20a2.006,2.006,0,0,1-2-2V48a2.006,2.006,0,0,1,2-2h1V41a3,3,0,0,1,6,0v5H37V41a3,3,0,0,1,6,0v5h1A2.006,2.006,0,0,1,46,48ZM38.586,34.586a2,2,0,0,1,2.828,0L40,36Zm4.949-3.121-1.414,1.414a3.072,3.072,0,0,0-4.242,0l-1.414-1.414a5,5,0,0,1,7.07,0ZM38,23a6,6,0,1,1-6-6A6.006,6.006,0,0,1,38,23Z"></path><path d="M35.858,24H33v2.858A3.991,3.991,0,0,0,35.858,24Z"></path><path d="M33,19.142V22h2.858A3.991,3.991,0,0,0,33,19.142Z"></path><path d="M28.142,22H31V19.142A4,4,0,0,0,28.142,22Z"></path></g></svg>