<svg xmlns="http://www.w3.org/2000/svg" viewBox="0 0 32 32" x="0px" y="0px"><g data-name="Browser"><path d="M12,2H2V6H12ZM5,5H3V3H5ZM8,5H6V3H8Zm3,0H9V3h2Z"></path><path d="M18,14a5,5,0,1,0,5,5A5.006,5.006,0,0,0,18,14Zm3.707,5.707-2.829,2.829-1.414-1.414L18.586,20H14V18h4.586l-1.122-1.122,1.414-1.414,2.829,2.829A1,1,0,0,1,21.707,19.707Z"></path><rect x="2" y="8" width="2" height="22"></rect><rect x="14" y="2" width="16" height="4"></rect><path d="M30,8H6V30H30ZM18,26a7,7,0,1,1,7-7A7.008,7.008,0,0,1,18,26Z"></path></g></svg>