<svg xmlns="http://www.w3.org/2000/svg" viewBox="0 0 64 64" x="0px" y="0px"><g data-name="Robot-Computer-Artificial Intelligence-Ai-Controller"><path d="M55.707,56.293l-6-6A1,1,0,0,0,49,50H19V48a3,3,0,0,0-3-3H10a1,1,0,0,1,0-2h6a3,3,0,0,0,3-3V38h7v4H22a1,1,0,0,0-1,1v4a1,1,0,0,0,1,1H42a1,1,0,0,0,1-1V43a1,1,0,0,0-1-1H38V38H52a3,3,0,0,0,3-3V9a3,3,0,0,0-3-3H42V8H52a1,1,0,0,1,1,1V30H11V9a1,1,0,0,1,1-1H22V6H12A3,3,0,0,0,9,9V35a3,3,0,0,0,3,3h5v2a1,1,0,0,1-1,1H10a3,3,0,0,0,0,6h6a1,1,0,0,1,1,1v2H15a1,1,0,0,0-.707.293l-6,6A1,1,0,0,0,8,57v3a2,2,0,0,0,2,2H54a2,2,0,0,0,2-2V57A1,1,0,0,0,55.707,56.293ZM41,46H23V44H41Zm-5-4H28V38h8ZM11,35V32H53v3a1,1,0,0,1-1,1H12A1,1,0,0,1,11,35Zm4.414,17H48.586l4,4H11.414ZM10,60V58H54v2Z"></path><rect x="16" y="53" width="2" height="2"></rect><rect x="20" y="53" width="2" height="2"></rect><rect x="42" y="53" width="2" height="2"></rect><rect x="24" y="53" width="16" height="2"></rect><rect x="46" y="53" width="2" height="2"></rect><rect x="47" y="33" width="2" height="2"></rect><rect x="28" y="6" width="2" height="2"></rect><rect x="34" y="6" width="2" height="2"></rect><path d="M47,19.18V19a5,5,0,0,0-5-5h-.7l-1.87-1.25A3.024,3.024,0,0,0,40,11V5a3.009,3.009,0,0,0-3-3H27a3.009,3.009,0,0,0-3,3v6a3.024,3.024,0,0,0,.57,1.75L22.7,14H22a5,5,0,0,0-5,5v.18A3.01,3.01,0,0,0,15,22h2a1,1,0,0,1,2,0h2a3.01,3.01,0,0,0-2-2.82V19a3.009,3.009,0,0,1,3-3v7a1,1,0,0,0,.11.45l2,4A.988.988,0,0,0,25,28H39a.988.988,0,0,0,.89-.55l2-4A1,1,0,0,0,42,23V16a3.009,3.009,0,0,1,3,3v.18A3.01,3.01,0,0,0,43,22h2a1,1,0,0,1,2,0h2A3.01,3.01,0,0,0,47,19.18ZM26,5a1,1,0,0,1,1-1H37a1,1,0,0,1,1,1v6a1,1,0,0,1-1,1H36V10a1,1,0,0,0-1-1H29a1,1,0,0,0-1,1v2H27a1,1,0,0,1-1-1Zm8,6v1H30V11Zm4.38,15H25.62l-1-2H39.38ZM28.14,22a3.983,3.983,0,0,1,7.72,0ZM40,22H37.91a5.993,5.993,0,0,0-11.82,0H24V15.54L26.3,14H37.7L40,15.54Z"></path></g></svg>