<svg xmlns="http://www.w3.org/2000/svg" viewBox="0 0 64 64" x="0px" y="0px"><g><path d="M50.53,20.27a.994.994,0,0,1-.77-.79A13.985,13.985,0,0,0,23.61,15.5a.983.983,0,0,1-.95.53l-.2-.01c-.15-.01-.3-.02-.46-.02a11.007,11.007,0,0,0-10.89,9.56.987.987,0,0,1-.71.82A9,9,0,0,0,13,44h9.25a11.991,11.991,0,0,1,4.44-3.77,12.143,12.143,0,0,1,10.62,0A11.991,11.991,0,0,1,41.75,44H48a12,12,0,0,0,2.53-23.73ZM32,38a7,7,0,1,1,7-7A7.008,7.008,0,0,1,32,38Z"></path><path d="M37.036,42.378,33,46.414V50h8.951A9.934,9.934,0,0,0,37.036,42.378Z"></path><circle cx="32" cy="31" r="5"></circle><path d="M22.049,50H31V46.414l-4.036-4.036A9.93,9.93,0,0,0,22.049,50Z"></path><path d="M28.914,41.5,32,44.586,35.086,41.5A10.115,10.115,0,0,0,28.914,41.5Z"></path></g></svg>