<svg xmlns="http://www.w3.org/2000/svg" viewBox="0 0 64 64" x="0px" y="0px"><g><path d="M61,6H3A1,1,0,0,0,2,7V43a1,1,0,0,0,1,1H30v1a1,1,0,0,0,.105.447L32,49.236V52a1,1,0,0,0-1,1v8a1,1,0,0,0,1,1H50a1,1,0,0,0,1-1V53a1,1,0,0,0-1-1V49.236l1.9-3.789A1,1,0,0,0,52,45V44h9a1,1,0,0,0,1-1V7A1,1,0,0,0,61,6ZM47.529,33.4a2.774,2.774,0,0,0-.4-.5A2.935,2.935,0,0,0,45,32a2.965,2.965,0,0,0-1.468.4,2.789,2.789,0,0,0-.406-.507A2.935,2.935,0,0,0,41,31a2.966,2.966,0,0,0-1,.184V26a3.007,3.007,0,0,0-.1-.736,9.032,9.032,0,1,0-5.9,4.5v3.426A2.971,2.971,0,0,0,33,33a2.906,2.906,0,0,0-2.089.855,1.956,1.956,0,0,0-.143.145H14.949A12.006,12.006,0,0,0,4,23.051v-4.1A12.006,12.006,0,0,0,14.949,8h34.1A12.006,12.006,0,0,0,60,18.949v4.1a12.028,12.028,0,0,0-10.837,9.972c-.056,0-.107-.021-.163-.021A2.976,2.976,0,0,0,47.529,33.4ZM34,26v1.709a7.083,7.083,0,1,1,4.544-4.269A2.947,2.947,0,0,0,37,23,3,3,0,0,0,34,26ZM4,25.05A10.018,10.018,0,0,1,12.95,34H4ZM4,36H30v2H4Zm56-2H51.212c-.049-.053-.09-.113-.142-.162A10.025,10.025,0,0,1,60,25.05Zm-8,2h8v2H52ZM60,8v8.95A10.018,10.018,0,0,1,51.05,8ZM4,8h8.95A10.018,10.018,0,0,1,4,16.95ZM4,42V40H30v2ZM49,60H33V54H49Zm1-15.236-1.9,3.789A1,1,0,0,0,48,49v3H34V49a1,1,0,0,0-.1-.447L32,44.764V36a.985.985,0,0,1,.128-.487.959.959,0,0,1,.178-.226,1.016,1.016,0,0,1,1.24-.11.946.946,0,0,1,.321.329A.983.983,0,0,1,34,36v6h2V26a1,1,0,0,1,1-1,.969.969,0,0,1,.7.3.908.908,0,0,1,.215.315A.9.9,0,0,1,38,26V40h2V34a1,1,0,0,1,1-1,.978.978,0,0,1,.712.306A.957.957,0,0,1,42,34v7h2V35a1,1,0,0,1,1-1,.978.978,0,0,1,.712.306A.957.957,0,0,1,46,35v7h2V36a.985.985,0,0,1,.128-.487.959.959,0,0,1,.178-.226,1.021,1.021,0,0,1,1.561.219A.983.983,0,0,1,50,36ZM60,42H52V40h8Z"></path></g></svg>