<svg xmlns="http://www.w3.org/2000/svg" viewBox="0 0 64 64" x="0px" y="0px"><g><rect x="31" y="32" width="2" height="2"></rect><rect x="35" y="25" width="7" height="2"></rect><rect x="25" y="41" width="14" height="1"></rect><path d="M32,24a4.919,4.919,0,0,1-.889-.091c-.036-.007-.074,0-.111-.012v4.867L31.618,30h.764L33,28.764V23.9c-.036.008-.074.005-.111.012A4.919,4.919,0,0,1,32,24Z"></path><rect x="18" y="45" width="2" height="11"></rect><rect x="15" y="39" width="8" height="4"></rect><path d="M16,18H27.1v0c0-.018.012-.034.016-.052a4.972,4.972,0,0,1,.259-.833c.039-.095.091-.182.136-.274a5,5,0,0,1,.29-.534c.064-.1.136-.189.207-.283a4.87,4.87,0,0,1,.354-.43c.084-.089.171-.172.261-.255a4.873,4.873,0,0,1,.422-.348c.1-.073.2-.143.3-.209a5,5,0,0,1,.494-.268c.106-.052.21-.106.32-.15a5.134,5.134,0,0,1,.595-.185c.1-.026.194-.06.3-.08a4.749,4.749,0,0,1,1.9,0c.1.02.2.054.295.08a5.134,5.134,0,0,1,.6.185c.11.044.214.1.32.15a5,5,0,0,1,.494.268c.1.066.2.136.3.209a4.873,4.873,0,0,1,.422.348c.09.083.177.166.261.255a4.87,4.87,0,0,1,.354.43c.071.094.143.184.207.283a5,5,0,0,1,.29.534c.045.092.1.179.136.274a4.972,4.972,0,0,1,.259.833c0,.018.012.034.016.052v0H38V12H16Z"></path><rect x="14" y="4" width="28" height="6"></rect><rect x="18" y="20" width="2" height="17"></rect><rect x="14" y="58" width="32" height="2"></rect><path d="M32,16a3,3,0,0,0-1.5,5.593,3.047,3.047,0,0,0,.733.3A3,3,0,1,0,32,16Zm.71,3.71A.994.994,0,0,1,32,20a1,1,0,0,1-.38-.07,1.461,1.461,0,0,1-.33-.22A.99.99,0,0,1,31,19a1,1,0,0,1,1.71-.71,1.032,1.032,0,0,1,.21.33.99.99,0,0,1-.21,1.09Z"></path></g></svg>