<svg xmlns="http://www.w3.org/2000/svg" viewBox="0 0 64 64" x="0px" y="0px"><g data-name="avatar-man-young-account-profile"><path d="M29,21h2a3,3,0,0,0-6,0h2a1,1,0,0,1,2,0Z"></path><path d="M36,20a1,1,0,0,1,1,1h2a3,3,0,0,0-6,0h2A1,1,0,0,1,36,20Z"></path><path d="M36.331,26.5l-1.732-1a3,3,0,0,1-5.2,0l-1.732,1a5,5,0,0,0,8.662,0Z"></path><path d="M46.92,37.32l-6.07-.82a.856.856,0,0,0-.3-.33L38,34.46V32.22a12.194,12.194,0,0,0,1.78-1.44A10.919,10.919,0,0,0,42.95,24H43a3.994,3.994,0,0,0,.97-7.87A.5.5,0,0,0,44,16V11a4.962,4.962,0,0,0-1.04-3.06A6.951,6.951,0,0,0,45,3a1,1,0,0,0-1-1H28a9.014,9.014,0,0,0-9,9v5a.963.963,0,0,0,.14.48A3.988,3.988,0,0,0,21,24h.05A11.029,11.029,0,0,0,26,32.21v2.25l-2.55,1.71a.856.856,0,0,0-.3.33l-6.07.82A7,7,0,0,0,11,44.25V61a1,1,0,0,0,1,1H52a1,1,0,0,0,1-1V44.25A7,7,0,0,0,46.92,37.32ZM43,18a2.006,2.006,0,0,1,2,2,2.015,2.015,0,0,1-2,2ZM38.79,37.39l-2.24,5.97-3.13-2.5,3.77-4.53ZM32,39.44l-4-4.8v-1.4a10.906,10.906,0,0,0,8,0v1.4ZM21,22a2.015,2.015,0,0,1-2-2,2.006,2.006,0,0,1,2-2Zm0-7.1V11a7.008,7.008,0,0,1,7-7H42.9a4.857,4.857,0,0,1-1.37,2.53,3.6,3.6,0,0,1-.59.51.989.989,0,0,0-.07,1.61A2.981,2.981,0,0,1,42,11v4H41a10.725,10.725,0,0,1-9.14-4.51A1.015,1.015,0,0,0,31,10a.842.842,0,0,0-.27.04A1,1,0,0,0,30,11v3.85c-2.31-.73-2.98-3.89-3.01-4.04a.965.965,0,0,0-.99-.76,1.044,1.044,0,0,0-.99.85A5.123,5.123,0,0,1,21,14.9ZM23,23V16.31a7.078,7.078,0,0,0,2.97-2.59A5.751,5.751,0,0,0,31,17a1.033,1.033,0,0,0,.71-.29c.24-.25.29-.29.29-3.04A13.153,13.153,0,0,0,41,17v6a9,9,0,0,1-18,0Zm3.81,13.33,3.77,4.53-3.13,2.5-2.24-5.97ZM22,38.68l1.49-.2,2.57,6.87a1.017,1.017,0,0,0,.67.61A.842.842,0,0,0,27,46a1,1,0,0,0,.62-.22L31,43.08V47h2V43.08l3.38,2.7A1,1,0,0,0,37,46a.842.842,0,0,0,.27-.04,1.017,1.017,0,0,0,.67-.61l2.57-6.87,1.49.2V39A10.016,10.016,0,0,1,32,49,10,10,0,0,1,22,39ZM51,60H45V49H43V60H21V49H19V60H13V44.25a5,5,0,0,1,4.34-4.95L20,38.94V39a12,12,0,0,0,24,0v-.06l2.66.36A5,5,0,0,1,51,44.25Z"></path></g></svg>