<svg xmlns="http://www.w3.org/2000/svg" viewBox="0 0 64 64" x="0px" y="0px"><title>Writing-Pencil-Pen-Hand</title><g><path d="M61,32H51a1,1,0,0,0-1-1H42a1,1,0,0,0-1,1v1H39.66a3.02,3.02,0,0,1-2.123-.877l-2.32-2.32a13.091,13.091,0,0,0-5.844-3.358L38.967,9.828A3.991,3.991,0,0,0,39.5,7.84a4,4,0,0,0-7.466-2.01L20.389,26l-5.065-.009h-.041a8.948,8.948,0,0,0-6.341,2.634L3.3,34.28A3.825,3.825,0,0,0,6,40.82a3.8,3.8,0,0,0,2.707-1.113l4.83-4.83A3.02,3.02,0,0,1,15.66,34h.109L9.534,44.8a.993.993,0,0,0-.132.44L9,51.94a1,1,0,0,0,1.549.894l5.6-3.7a1,1,0,0,0,.315-.333L18.087,46H41a1,1,0,0,0,1,1h8a1,1,0,0,0,1-1H61a1,1,0,0,0,1-1V33A1,1,0,0,0,61,32ZM24,36a1.993,1.993,0,0,1-1.2,1.829l1.178-2.039A2.1,2.1,0,0,1,24,36Zm-3.607,2H16c-.084,0-.162.02-.245.025L30.264,12.9l3.468,2Zm-7.22,6.827a3.957,3.957,0,0,0,2.615,1.152l-.553.956-3.469-2,.668-1.158A3.984,3.984,0,0,0,13.173,44.827ZM31.264,11.163l.5-.868,3.467,2-.5.867ZM36.5,6.1a2.027,2.027,0,0,1,1,1.745,1.968,1.968,0,0,1-.266.99l-1,1.735-3.467-2,1-1.731A2.012,2.012,0,0,1,36.5,6.1ZM15.66,32a5.035,5.035,0,0,0-3.537,1.463l-4.83,4.83a1.894,1.894,0,0,1-2.586,0,1.838,1.838,0,0,1-.54-1.307,1.812,1.812,0,0,1,.541-1.29l5.646-5.656a7.041,7.041,0,0,1,4.964-2.05L19.235,28l-2.311,4ZM11.3,46.974l2.4,1.384-2.582,1.705ZM16,44a2,2,0,0,1,0-4h6a4,4,0,0,0,3.224-6.368l3.109-5.385a11.078,11.078,0,0,1,5.47,2.97l2.32,2.32A5.035,5.035,0,0,0,39.66,35H41v9Zm33,1H43V33h6Zm11-1H51V34h9Z"></path><rect x="2" y="55" width="60" height="2"></rect><rect x="2" y="59" width="60" height="2"></rect></g></svg>