<svg xmlns="http://www.w3.org/2000/svg" viewBox="0 0 64 64" x="0px" y="0px"><g><path d="M42,39H39V36a1,1,0,0,0-1-1H34a1,1,0,0,0-1,1v3H30a1,1,0,0,0-1,1v4a1,1,0,0,0,1,1h3v3a1,1,0,0,0,1,1h4a1,1,0,0,0,1-1V45h3a1,1,0,0,0,1-1V40A1,1,0,0,0,42,39Zm-1,4H38a1,1,0,0,0-1,1v3H35V44a1,1,0,0,0-1-1H31V41h3a1,1,0,0,0,1-1V37h2v3a1,1,0,0,0,1,1h3Z"></path><path d="M44,22V17a1,1,0,0,0-1-1H41V7a1,1,0,0,0-1-1V3a1,1,0,0,0-1-1H33a1,1,0,0,0-1,1V6a1,1,0,0,0-1,1V8H20a1.033,1.033,0,0,0-.71.29l-4,4a1.008,1.008,0,0,0,0,1.42l3,3a1.014,1.014,0,0,0,1.42,0L22.41,14H31v2H29a1,1,0,0,0-1,1v5a7.008,7.008,0,0,0-7,7V59a3.009,3.009,0,0,0,3,3H48a3.009,3.009,0,0,0,3-3V29A7.008,7.008,0,0,0,44,22ZM34,4h4V6H34ZM33,8h6v8H33ZM22,12a1.033,1.033,0,0,0-.71.29L19,14.59,17.41,13l3-3H31v2Zm8,6H42v4H30ZM49,59a1,1,0,0,1-1,1H24a1,1,0,0,1-1-1V55H49Zm0-6H23V31H49ZM23,29a5,5,0,0,1,5-5H44a5,5,0,0,1,5,5Z"></path><path d="M15.177,18.432C14.646,19.2,12,23.126,12,25a4,4,0,0,0,8,0c0-1.874-2.646-5.8-3.177-6.568A1.038,1.038,0,0,0,15.177,18.432ZM16,27a2,2,0,0,1-2-2c0-.662.933-2.475,2-4.179,1.067,1.7,2,3.516,2,4.179A2,2,0,0,1,16,27Z"></path></g></svg>