<svg xmlns="http://www.w3.org/2000/svg" viewBox="0 0 64 64" x="0px" y="0px"><g><path d="M21.2,6.05A7,7,0,0,0,15,13V23H13V13a9.008,9.008,0,0,1,8.16-8.96A3.068,3.068,0,0,0,21,5,2.842,2.842,0,0,0,21.2,6.05Z"></path><path d="M51,13V23H49V13a7,7,0,0,0-6.2-6.95A2.842,2.842,0,0,0,43,5a3.068,3.068,0,0,0-.16-.96A9.008,9.008,0,0,1,51,13Z"></path><path d="M46.062,60l1.872-29H42V41.02a2.915,2.915,0,0,1-1.5,2.6,3.4,3.4,0,0,1-.758.282c-.091.022-.181.02-.272.034A3.172,3.172,0,0,1,39,44c-.01,0-.02,0-.03,0a3,3,0,0,1-.541-.074c-.082-.015-.166-.014-.247-.037a2.947,2.947,0,0,1-.737-.32A3.021,3.021,0,0,1,36,41V33a.965.965,0,0,0-.287-.694,1.028,1.028,0,0,0-1.165-.216.963.963,0,0,0-.548.9v2.04a3.879,3.879,0,0,1-2.223,3.583,4.089,4.089,0,0,1-3.959-.256A3.991,3.991,0,0,1,26,35V31H16.066l1.872,29Z"></path><rect x="42" y="24.999" width="9" height="4.001"></rect><polygon points="26 29 26 25 13 25 12.999 25 13 29 26 29"></polygon><path d="M38.484,41.854a1.065,1.065,0,0,0,1.087,0A.948.948,0,0,0,40,41.02V25H28V35a2,2,0,0,0,.909,1.681,2.087,2.087,0,0,0,2.056.105A1.908,1.908,0,0,0,32,35.03V32.99a2.964,2.964,0,0,1,1.811-2.759,3.24,3.24,0,0,1,.539-.158c.056-.012.111-.02.168-.029a3.166,3.166,0,0,1,.387-.037c.035,0,.071-.01.106-.01s.042,0,.064.006a2.973,2.973,0,0,1,.5.049l.033,0a2.892,2.892,0,0,1,.49.151c.049.019.1.042.144.064a3,3,0,0,1,.342.187c.044.028.089.055.132.086A3.026,3.026,0,0,1,38,33v8A1,1,0,0,0,38.484,41.854Z"></path><path d="M40,4H24a1,1,0,0,0,0,2H40a1,1,0,0,0,0-2Z"></path></g></svg>