<svg xmlns="http://www.w3.org/2000/svg" viewBox="0 0 64 64" x="0px" y="0px"><g><rect x="17.606" y="41.736" width="4" height="6" transform="translate(-25.891 26.967) rotate(-45)"></rect><rect x="9.414" y="50.929" width="2" height="6" transform="translate(-35.083 23.159) rotate(-45)"></rect><rect x="15.071" y="45.272" width="2" height="6" transform="translate(-29.426 25.503) rotate(-45)"></rect><rect x="12.242" y="48.1" width="2" height="6" transform="translate(-32.255 24.331) rotate(-45)"></rect><rect x="6.586" y="53.757" width="2" height="6" transform="translate(-37.913 21.99) rotate(-45.003)"></rect><path d="M52.527,17.159a10.915,10.915,0,0,0-2.549-7.036L27.385,32.716l7.071,7.071L49.305,24.938A10.928,10.928,0,0,0,52.527,17.159Z"></path><rect x="21.849" y="34.494" width="4" height="12" transform="translate(-21.648 28.724) rotate(-45)"></rect><path d="M54.962,30.594A19,19,0,0,0,55.651,4.45L51.392,8.709a12.979,12.979,0,0,1-.673,17.643L35.87,41.2l4.243,4.243Z"></path><rect x="26.385" y="33.958" width="2" height="6" transform="translate(-18.112 30.185) rotate(-44.995)"></rect></g></svg>