<svg xmlns="http://www.w3.org/2000/svg" viewBox="0 0 64 64" x="0px" y="0px"><title>Mobile Service</title><g data-name="Mobile Service"><path d="M61.9,37.553l-9-18A1,1,0,0,0,52,19H41V11a1,1,0,0,0-1-1H3a1,1,0,0,0-1,1V52a1,1,0,0,0,1,1H8.09a5.993,5.993,0,0,0,11.82,0H44.09a5.993,5.993,0,0,0,11.82,0H61a1,1,0,0,0,1-1V38A1,1,0,0,0,61.9,37.553ZM51.382,21,60,38.236V41H57a1,1,0,0,0,0,2h3v4H53.31a5.978,5.978,0,0,0-6.62,0H17.31a5.978,5.978,0,0,0-6.62,0H4V42H40a1,1,0,0,0,1-1V21ZM44.09,51H19.91a5.966,5.966,0,0,0-.722-2H44.812A5.966,5.966,0,0,0,44.09,51ZM4,12H39V40H4ZM4,49H8.812a5.966,5.966,0,0,0-.722,2H4Zm10,7a4,4,0,1,1,4-4A4,4,0,0,1,14,56Zm36,0a4,4,0,1,1,4-4A4,4,0,0,1,50,56Zm10-5H55.91a5.966,5.966,0,0,0-.722-2H60Z"></path><path d="M43,36H55.26a1,1,0,0,0,.905-1.427l-5.667-12a1,1,0,0,0-.9-.573H43a1,1,0,0,0-1,1V35A1,1,0,0,0,43,36Zm1-12h4.959l4.723,10H44Z"></path><path d="M43,41h2a1,1,0,0,0,0-2H43a1,1,0,0,0,0,2Z"></path><path d="M51,51H49a1,1,0,0,0,0,2h2a1,1,0,0,0,0-2Z"></path><path d="M15,51H13a1,1,0,0,0,0,2h2a1,1,0,0,0,0-2Z"></path><path d="M10.211,34.837a1.011,1.011,0,0,0,.968-.259l1.292-1.291,1.061.354.353,1.059-1.292,1.292a1,1,0,0,0,.451,1.674,5.06,5.06,0,0,0,1.288.167,4.952,4.952,0,0,0,4.925-5.677l8.515-8.513a4.965,4.965,0,0,0,5.51-6.213,1,1,0,0,0-1.674-.451L30.316,18.27l-1.061-.354L28.9,16.855l1.292-1.292a1,1,0,0,0-.451-1.673,4.964,4.964,0,0,0-6.213,5.51l-8.514,8.514a4.963,4.963,0,0,0-5.51,6.213A1,1,0,0,0,10.211,34.837Zm1.99-4.109a2.963,2.963,0,0,1,2.888-.762,1,1,0,0,0,.962-.26l9.27-9.269a1,1,0,0,0,.26-.963,2.965,2.965,0,0,1,.763-2.888,2.924,2.924,0,0,1,.5-.4,1,1,0,0,0-.033.718l.707,2.121a.994.994,0,0,0,.632.632l2.122.707a.988.988,0,0,0,.718-.032,2.977,2.977,0,0,1-3.29,1.261,1,1,0,0,0-.963.26L17.466,31.12a1,1,0,0,0-.26.962,2.969,2.969,0,0,1-.762,2.889,3.021,3.021,0,0,1-.5.4,1,1,0,0,0,.033-.719l-.707-2.121a1,1,0,0,0-.632-.632l-2.121-.707a1,1,0,0,0-.719.034A2.938,2.938,0,0,1,12.2,30.728Z"></path></g></svg>