<svg xmlns="http://www.w3.org/2000/svg" viewBox="0 0 64 64" x="0px" y="0px"><g data-name="Startup"><path d="M22,48H42a3,3,0,0,0,3-3V33H44a4.964,4.964,0,0,1-3.358-1.321A2,2,0,0,1,39.56,32H36a1,1,0,0,1-.9-.553l-.52-1.041L34.1,31.862A2.991,2.991,0,0,1,35,34c0,1.165-.936,5-3,5s-3-3.835-3-5a2.991,2.991,0,0,1,.9-2.138l-.485-1.456-.52,1.041A1,1,0,0,1,28,32H24.443a2,2,0,0,1-1.873-2.7l2.007-5.351A3.012,3.012,0,0,1,27,22.03V19.379a10.723,10.723,0,0,1,1.873-6.141q3.126-4.518,6.254,0A10.729,10.729,0,0,1,37,19.379v2.65a3,3,0,0,1,2.424,1.912l.46,1.231A4.992,4.992,0,0,1,44,23h1V7a3,3,0,0,0-3-3H40V5a3,3,0,0,1-3,3H27a3,3,0,0,1-3-3V4H22a3,3,0,0,0-3,3V23.142A3.968,3.968,0,0,1,20.618,30a3.947,3.947,0,0,1,0,6A3.968,3.968,0,0,1,19,42.858V45A3,3,0,0,0,22,48Zm13-6h2v2H35Zm-4,0h2v2H31Zm-4,0h2v2H27Z"></path><path d="M41,28a3,3,0,0,0,3,3h2a1,1,0,0,1,1,1V45a5.006,5.006,0,0,1-5,5H25.388l1.333,4H50.153L51,48.917V28a3,3,0,0,0-3-3H44A3,3,0,0,0,41,28Z"></path><path d="M18,25H13a1,1,0,0,0-1,1v2a1,1,0,0,0,1,1h5a2,2,0,0,0,0-4Z"></path><path d="M37.554,24.65A1,1,0,0,0,37,24.088V29a.982.982,0,0,1-.469.826l.087.174,2.809.006a4.941,4.941,0,0,1-.355-1.3Z"></path><path d="M20,39a2,2,0,0,0-2-2H13a1,1,0,0,0-1,1v2a1,1,0,0,0,1,1h5A2,2,0,0,0,20,39Z"></path><path d="M18,35a2,2,0,0,0,0-4H13a1,1,0,0,0-1,1v2a1,1,0,0,0,1,1Z"></path><path d="M27,6H37a1,1,0,0,0,1-1V4H26V5A1,1,0,0,0,27,6Z"></path><polygon points="32.613 30 31.387 30 31.721 31 32.279 31 32.613 30"></polygon><rect x="23" y="56" width="30" height="4"></rect><path d="M35,28V19.379a8.734,8.734,0,0,0-1.518-5C32.73,13.29,32.2,13,32,13s-.73.29-1.482,1.376a8.729,8.729,0,0,0-1.518,5V28h2V22h2v6Zm-3-9.882-1.553.777-.894-1.79,2-1a1,1,0,0,1,.894,0l2,1-.894,1.79Z"></path><path d="M26.45,24.648,24.443,30h2.939l.087-.174A.982.982,0,0,1,27,29V24.089A.994.994,0,0,0,26.45,24.648Z"></path><path d="M31,34a6.2,6.2,0,0,0,1,2.916A6.2,6.2,0,0,0,33,34a1,1,0,0,0-2,0Z"></path><circle cx="15" cy="21" r="2"></circle></g></svg>