<svg xmlns="http://www.w3.org/2000/svg" viewBox="0 0 64 64" x="0px" y="0px"><g><path d="M60,35H58V12a5.006,5.006,0,0,0-5-5H50V6a3,3,0,0,0-6,0V7H40V6a3,3,0,0,0-6,0V7H30V6a3,3,0,0,0-6,0V7H20V6a3,3,0,0,0-6,0V7H11a5.006,5.006,0,0,0-5,5V42a5.006,5.006,0,0,0,5,5H30v8a2,2,0,0,0,2,2H60a2,2,0,0,0,2-2V37A2,2,0,0,0,60,35ZM46,6a1,1,0,0,1,2,0v4a1,1,0,0,1-2,0ZM36,6a1,1,0,0,1,2,0v4a1,1,0,0,1-2,0ZM26,6a1,1,0,0,1,2,0v4a1,1,0,0,1-2,0ZM16,6a1,1,0,0,1,2,0v4a1,1,0,0,1-2,0ZM11,9h3v1a3,3,0,0,0,6,0V9h4v1a3,3,0,0,0,6,0V9h4v1a3,3,0,0,0,6,0V9h4v1a3,3,0,0,0,6,0V9h3a3,3,0,0,1,3,3v3H8V12A3,3,0,0,1,11,9Zm0,36a3,3,0,0,1-3-3V17H56V35H32a2,2,0,0,0-2,2v8ZM60,55H32V37l28,0Z"></path><path d="M33.678,53.735l9.057-8.357,2.791,1.5a1,1,0,0,0,.948,0l2.791-1.5,9.057,8.357,1.356-1.47-8.551-7.89,8.347-4.494-.948-1.762L46,44.864,33.474,38.119l-.948,1.762,8.347,4.494-8.551,7.89Z"></path><path d="M35,29h4a2,2,0,0,0,2-2V23a2,2,0,0,0-2-2H35a2,2,0,0,0-2,2v4A2,2,0,0,0,35,29Zm0-6h4l0,4H35Z"></path><path d="M45,29h4a2,2,0,0,0,2-2V23a2,2,0,0,0-2-2H45a2,2,0,0,0-2,2v4A2,2,0,0,0,45,29Zm0-6h4l0,4H45Z"></path><path d="M25,29h4a2,2,0,0,0,2-2V23a2,2,0,0,0-2-2H25a2,2,0,0,0-2,2v4A2,2,0,0,0,25,29Zm0-6h4l0,4H25Z"></path><path d="M19,21H15a2,2,0,0,0-2,2v4a2,2,0,0,0,2,2h4a2,2,0,0,0,2-2V23A2,2,0,0,0,19,21Zm-4,6V23h4l0,4Z"></path><path d="M19,31H15a2,2,0,0,0-2,2v4a2,2,0,0,0,2,2h4a2,2,0,0,0,2-2V33A2,2,0,0,0,19,31Zm-4,6V33h4l0,4Z"></path><path d="M31,33a2,2,0,0,0-2-2H25a2,2,0,0,0-2,2v4a2,2,0,0,0,2,2h3V37H25V33h4v1h2Z"></path><path d="M35,33h4v1h2V33a2,2,0,0,0-2-2H35a2,2,0,0,0-2,2v1h2Z"></path><path d="M45,33h4v1h2V33a2,2,0,0,0-2-2H45a2,2,0,0,0-2,2v1h2Z"></path></g></svg>