<svg xmlns="http://www.w3.org/2000/svg" viewBox="0 0 64 64" x="0px" y="0px"><g><path d="M46.3,60a5,5,0,0,0,4.97-5.547L46.651,12.464a1,1,0,0,1,.287-.816L54.586,4H19.872L12.931,54.317A5,5,0,0,0,17.884,60ZM22,11H44v2H22ZM36,24v2H33v2h3v2H33v2h3v2H33v2h3v2H33v2h3v2H33v2h3v2H33v2H31V46H28V44h3V42H28V40h3V38H28V36h3V34H28V32h3V30H28V28h3V26H28V24h3V22H28V20h3V18h2v2h3v2H33v2ZM17,54H47v2H17Z"></path><path d="M10.245,30.153,13.44,7V7a.992.992,0,0,1,.99-1h3.147l.275-2H12.743a1,1,0,0,0-.991.863L8.3,29.885A.981.981,0,0,0,9.273,31,.984.984,0,0,0,10.245,30.153Z"></path></g></svg>