<svg xmlns="http://www.w3.org/2000/svg" viewBox="0 0 64 64" x="0px" y="0px"><g><path d="M61.9,51.553,56,39.764V35a2,2,0,0,0,2-2V29a2,2,0,0,0,2-2V23a2,2,0,0,0-2-2V17a2,2,0,0,0-2-2V8a3,3,0,0,0-3-3H11A3,3,0,0,0,8,8v2H5a3,3,0,0,0-3,3V31a3,3,0,0,0,3,3H8v5.764L2.105,51.553A1,1,0,0,0,2,52v5a2,2,0,0,0,2,2H60a2,2,0,0,0,2-2V52A1,1,0,0,0,61.9,51.553ZM29,53h6v1H29ZM4.618,51l5-10H54.382l5,10ZM56,33H42V29h2v2h2V29h2v2h2V29h2v2h2V29h2Zm2-6H44V23h2v2h2V23h2v2h2V23h2v2h2V23h2ZM42,21V17h2v2h2V17h2v2h2V17h2v2h2V17h2v4ZM5,12H35a1,1,0,0,1,1,1v1.184A2.966,2.966,0,0,0,35,14H5a2.966,2.966,0,0,0-1,.184V13A1,1,0,0,1,5,12ZM4,31V17a1,1,0,0,1,1-1H35a1,1,0,0,1,1,1V31a1,1,0,0,1-1,1H5A1,1,0,0,1,4,31Zm31,3a3,3,0,0,0,3-3V13a3,3,0,0,0-3-3H10V8a1,1,0,0,1,1-1H53a1,1,0,0,1,1,1v7H42a2,2,0,0,0-2,2v4a2,2,0,0,0,2,2v4a2,2,0,0,0-2,2v4a2,2,0,0,0,2,2H54v4H10V34ZM4,57V53H27v1a2,2,0,0,0,2,2h6a2,2,0,0,0,2-2V53H60v4Z"></path><rect x="10" y="47" width="2" height="2"></rect><rect x="14" y="47" width="2" height="2"></rect><rect x="18" y="47" width="28" height="2"></rect><rect x="48" y="47" width="2" height="2"></rect><rect x="52" y="47" width="2" height="2"></rect><rect x="15" y="43" width="2" height="2"></rect><rect x="11" y="43" width="2" height="2"></rect><rect x="19" y="43" width="2" height="2"></rect><rect x="23" y="43" width="2" height="2"></rect><rect x="27" y="43" width="2" height="2"></rect><rect x="31" y="43" width="2" height="2"></rect><rect x="35" y="43" width="2" height="2"></rect><rect x="39" y="43" width="2" height="2"></rect><rect x="43" y="43" width="2" height="2"></rect><rect x="47" y="43" width="2" height="2"></rect><rect x="51" y="43" width="2" height="2"></rect><path d="M20,19a5,5,0,1,0,5,5A5.006,5.006,0,0,0,20,19Zm0,8a3,3,0,1,1,3-3A3,3,0,0,1,20,27Z"></path><path d="M6,19v3H8V20h2V18H7A1,1,0,0,0,6,19Z"></path><path d="M33,18H30v2h2v2h2V19A1,1,0,0,0,33,18Z"></path><path d="M8,26H6v3a1,1,0,0,0,1,1h3V28H8Z"></path><path d="M32,28H30v2h3a1,1,0,0,0,1-1V26H32Z"></path><rect x="27" y="23" width="2" height="2"></rect><rect x="11" y="23" width="2" height="2"></rect></g></svg>