<svg xmlns="http://www.w3.org/2000/svg" viewBox="0 0 64 64" x="0px" y="0px"><g><path d="M29,44.97V60h6V44.97a4.884,4.884,0,0,1-6,0Z"></path><path d="M35,37.57a10.68,10.68,0,0,1-6,0v1.3c1.02.08,2.03.13,3,.13s1.98-.05,3-.13Z"></path><path d="M37.77,33.9a6.315,6.315,0,0,0,.59-.54,9.251,9.251,0,0,0,1.34-1.72l-5.81-.65.22-1.98,6.46.71a8.875,8.875,0,0,0,.39-1.91l-7.2-1.44a9.065,9.065,0,0,0-3.52,0l-7.2,1.44a8.875,8.875,0,0,0,.39,1.91l6.46-.71.22,1.98-5.8.65a9.133,9.133,0,0,0,1.91,2.25,8.626,8.626,0,0,0,2.18,1.35,8.95,8.95,0,0,0,7.19.01A8.848,8.848,0,0,0,37.77,33.9Z"></path><path d="M35,40.88c-1.01.07-2.02.12-3,.12s-1.99-.05-3-.12V41a3,3,0,0,0,6,0Z"></path><path d="M27,42.41,23.41,46l2.3,2.29a1.046,1.046,0,0,1,.29.81.989.989,0,0,1-.45.73l-2.2,1.47L27,57.39Z"></path><path d="M19.46,11.61a1.018,1.018,0,0,0-.45-.1.981.981,0,0,0-.86.49h5.4a10.925,10.925,0,0,1,16.9,0h5.4a1,1,0,0,0-1.31-.39,1,1,0,0,1-1.19-1.56.991.991,0,0,0-1.4-1.4,1,1,0,0,1-1.56-1.19A1,1,0,0,0,40,6.15a.982.982,0,0,0-1.33.32,1,1,0,0,1-1.82-.76.989.989,0,0,0-1.91-.51,1,1,0,0,1-1.08.68.994.994,0,0,1-.87-.93.991.991,0,0,0-1.98,0,1,1,0,0,1-1.95.25,1.013,1.013,0,0,0-1.2-.66,1,1,0,0,0-.71,1.17,1,1,0,0,1-.59,1.13,1.019,1.019,0,0,1-1.23-.37.984.984,0,0,0-1.32-.33,1.008,1.008,0,0,0-.4,1.32,1,1,0,0,1-1.56,1.19.991.991,0,0,0-1.4,1.4,1,1,0,0,1-1.19,1.56Z"></path><rect x="17" y="14" width="30" height="2"></rect><path d="M51,60V51.88a6.943,6.943,0,0,0-4.91-6.67l-5.05-1.58,1.67,1.66a1.008,1.008,0,0,1,0,1.42l-2.14,2.13,1.98,1.33a.993.993,0,0,1,.31,1.34L37.77,60h5.84c.07-.12.13-.24.21-.36A6.723,6.723,0,0,0,45,56a6.609,6.609,0,0,0-1.71-4.29l1.42-1.42A8.137,8.137,0,0,1,45.92,60Z"></path><path d="M34.16,24.41,41,25.78V19a8.386,8.386,0,0,0-.06-1H23.06A8.262,8.262,0,0,0,23,19v6.78l6.84-1.37A10.834,10.834,0,0,1,34.16,24.41ZM36,19a2,2,0,1,1-2,2A2,2,0,0,1,36,19Zm-8,4a2,2,0,1,1,2-2A2,2,0,0,1,28,23Z"></path><path d="M26.35,12h11.3a8.981,8.981,0,0,0-11.3,0Z"></path><path d="M40.59,46,37,42.41V57.39l3.65-6.09-2.2-1.47A.989.989,0,0,1,38,49.1a1.046,1.046,0,0,1,.29-.81Z"></path><path d="M20.17,59.63a3.6,3.6,0,0,1,.22.37h5.84l-5.09-8.49a.993.993,0,0,1,.31-1.34l1.98-1.33-2.14-2.13a1.008,1.008,0,0,1,0-1.42l1.67-1.66L17.91,45.2A6.964,6.964,0,0,0,13,51.88V60h5.08a8.137,8.137,0,0,1,1.21-9.71l1.42,1.42A6.609,6.609,0,0,0,19,56,6.735,6.735,0,0,0,20.17,59.63Z"></path><path d="M19.59,25.41A1.983,1.983,0,0,0,21,26V22a2.006,2.006,0,0,0-2,2A1.983,1.983,0,0,0,19.59,25.41Z"></path><path d="M21,19c0-.33.02-.67.05-1H17.86l-.47,3.14a.922.922,0,0,1,.41.48A3.986,3.986,0,0,1,21,20Z"></path><path d="M20.68,31.31a.986.986,0,0,0,1.27.1c-.04-.08-.08-.15-.12-.24A10.755,10.755,0,0,1,21.05,28H21a3.99,3.99,0,0,1-2.76-1.11.967.967,0,0,0-.1,1.1,1.017,1.017,0,0,0,1.32.4,1,1,0,0,1,1.19,1.56A.991.991,0,0,0,20.68,31.31Z"></path><path d="M16.41,29c-.06-.11-.1-.23-.15-.34L15.25,35.4a1,1,0,0,0,.74,1.11A83.941,83.941,0,0,0,27,38.67V36.76a10.021,10.021,0,0,1-1.53-.95,3.029,3.029,0,0,1-.98.18,3.012,3.012,0,0,1-2.92-2.39,3,3,0,0,1-3.17-3.17A3.01,3.01,0,0,1,16.41,29Z"></path><path d="M46.2,21.62a.922.922,0,0,1,.41-.48L46.14,18H42.95c.03.33.05.67.05,1v1A3.986,3.986,0,0,1,46.2,21.62Z"></path><path d="M44.72,32.73a2.914,2.914,0,0,1-2.29.87,2.939,2.939,0,0,1-3.9,2.21,9.556,9.556,0,0,1-1.53.95v1.91a83.941,83.941,0,0,0,11.01-2.16,1,1,0,0,0,.74-1.11l-1.01-6.74a2.717,2.717,0,0,1-.16.35,2.977,2.977,0,0,1-1.98,1.42A2.944,2.944,0,0,1,44.72,32.73Z"></path><path d="M43,26a2.015,2.015,0,0,0,2-2,2.006,2.006,0,0,0-2-2Z"></path><path d="M42.16,31.19c-.03.07-.07.15-.1.22a.97.97,0,0,0,1.25-.09,1,1,0,0,0,.04-1.37,1,1,0,0,1,1.19-1.56A1,1,0,0,0,45.85,28a.963.963,0,0,0-.09-1.11A3.99,3.99,0,0,1,43,28h-.05A10.666,10.666,0,0,1,42.16,31.19Z"></path></g></svg>