<svg xmlns="http://www.w3.org/2000/svg" viewBox="0 0 64 64" x="0px" y="0px"><g data-name="Spaceship"><rect x="27" y="26" width="2" height="2"></rect><rect x="35" y="26" width="2" height="2"></rect><path d="M55,41V32A23,23,0,0,0,9,32v9a7.008,7.008,0,0,0-7,7v4a1,1,0,0,0,1,1H9.465l3.7,5.555A1,1,0,0,0,14,59H50a1,1,0,0,0,.832-.445L54.535,53H61a1,1,0,0,0,1-1V48A7.008,7.008,0,0,0,55,41ZM32,11A21.024,21.024,0,0,1,53,32v3H39V34a1,1,0,0,0-.1-.447L37.618,31H38a3,3,0,0,0,3-3V26a3,3,0,0,0-2-2.816V19.5a2.5,2.5,0,0,0-5,0V23H30V19.5a2.5,2.5,0,0,0-5,0v3.684A3,3,0,0,0,23,26v2a3,3,0,0,0,3,3h.382l-1.277,2.553A1,1,0,0,0,25,34v1H11V32A21.024,21.024,0,0,1,32,11ZM28,23H27V19.5a.5.5,0,0,1,1,0Zm-2,2H38a1,1,0,0,1,1,1v2a1,1,0,0,1-1,1H26a1,1,0,0,1-1-1V26A1,1,0,0,1,26,25Zm11-2H36V19.5a.5.5,0,0,1,1,0Zm-8.382,8h6.764L37,34.236V35H27v-.764ZM11,37H53v4H11ZM49.465,57H14.535l-2.667-4H52.132ZM60,51H4V48a5.006,5.006,0,0,1,5-5H55a5.006,5.006,0,0,1,5,5Z"></path><path d="M32,44a3,3,0,1,0,3,3A3,3,0,0,0,32,44Zm0,4a1,1,0,1,1,1-1A1,1,0,0,1,32,48Z"></path><path d="M45,44a3,3,0,1,0,3,3A3,3,0,0,0,45,44Zm0,4a1,1,0,1,1,1-1A1,1,0,0,1,45,48Z"></path><path d="M19,44a3,3,0,1,0,3,3A3,3,0,0,0,19,44Zm0,4a1,1,0,1,1,1-1A1,1,0,0,1,19,48Z"></path><polygon points="57 11 59 11 59 9 61 9 61 7 59 7 59 5 57 5 57 7 55 7 55 9 57 9 57 11"></polygon><polygon points="4 19 6 19 6 17 8 17 8 15 6 15 6 13 4 13 4 15 2 15 2 17 4 17 4 19"></polygon><rect x="13" y="2" width="2" height="2"></rect><rect x="40" y="4" width="2" height="2"></rect><rect x="17" y="8" width="2" height="2"></rect><rect x="57" y="13" width="2" height="2"></rect><rect x="57" y="17" width="2" height="2"></rect><rect x="57" y="21" width="2" height="2"></rect><rect x="4" y="21" width="2" height="2"></rect><rect x="4" y="25" width="2" height="2"></rect><rect x="27" y="4" width="2" height="2"></rect><rect x="4" y="29" width="2" height="2"></rect></g></svg>