<svg xmlns="http://www.w3.org/2000/svg" viewBox="0 0 64 64" x="0px" y="0px"><g data-name="Shopping bag"><path d="M50,26H47V17a15,15,0,0,0-30,0v9H14a3,3,0,0,0-3,3V43A19.021,19.021,0,0,0,30,62h4A19.021,19.021,0,0,0,53,43V29A3,3,0,0,0,50,26ZM19,17a13,13,0,0,1,26,0v9H43V17a11,11,0,0,0-22,0v9H19Zm22,9H23V17a9,9,0,0,1,18,0ZM51,43A17.019,17.019,0,0,1,34,60H30A17.019,17.019,0,0,1,13,43V29a1,1,0,0,1,1-1H50a1,1,0,0,1,1,1Z"></path><path d="M17,30H16a1,1,0,0,0-1,1v1h2Z"></path><rect x="35" y="30" width="2" height="2"></rect><rect x="43" y="30" width="2" height="2"></rect><rect x="31" y="30" width="2" height="2"></rect><rect x="39" y="30" width="2" height="2"></rect><rect x="27" y="30" width="2" height="2"></rect><rect x="23" y="30" width="2" height="2"></rect><rect x="19" y="30" width="2" height="2"></rect><path d="M48,30H47v2h2V31A1,1,0,0,0,48,30Z"></path><path d="M17.3,45.783l-1.954.427a14.87,14.87,0,0,0,.607,2.053l1.872-.7A12.836,12.836,0,0,1,17.3,45.783Z"></path><path d="M17,43v-.977H15V43q0,.552.039,1.093l1.995-.145Q17,43.479,17,43Z"></path><rect x="15" y="38.025" width="2" height="1.999"></rect><path d="M18.6,49.242l-1.752.964A15.1,15.1,0,0,0,18.008,52l1.6-1.2A13.115,13.115,0,0,1,18.6,49.242Z"></path><rect x="15" y="34.027" width="2" height="1.999"></rect><path d="M46.184,47.537l1.874.7a15.045,15.045,0,0,0,.6-2.055l-1.954-.424A13.188,13.188,0,0,1,46.184,47.537Z"></path><path d="M47,43c0,.31-.011.618-.032.922l1.995.14c.024-.351.037-.7.037-1.062V42H47Z"></path><path d="M41.792,53.4l1.2,1.6a15.365,15.365,0,0,0,1.613-1.4l-1.414-1.414A13.31,13.31,0,0,1,41.792,53.4Z"></path><path d="M44.408,50.78l1.6,1.2a15.122,15.122,0,0,0,1.159-1.8l-1.755-.96A13.16,13.16,0,0,1,44.408,50.78Z"></path><rect x="47" y="33.999" width="2" height="1.999"></rect><rect x="47" y="37.997" width="2" height="1.999"></rect><path d="M38.552,55.178l.7,1.873a14.958,14.958,0,0,0,1.944-.893l-.963-1.753A13.026,13.026,0,0,1,38.552,55.178Z"></path><path d="M22.826,56.171a15,15,0,0,0,1.947.89l.7-1.874a12.906,12.906,0,0,1-1.687-.771Z"></path><path d="M26.829,57.663a15.055,15.055,0,0,0,2.119.3l.138-1.995a13.124,13.124,0,0,1-1.834-.26Z"></path><rect x="31.015" y="56" width="1.999" height="2"></rect><path d="M19.41,53.615a15.2,15.2,0,0,0,1.617,1.4l1.2-1.6a13.465,13.465,0,0,1-1.4-1.215Z"></path><path d="M34.94,55.967l.142,2a15,15,0,0,0,2.119-.305L36.774,55.7A13.026,13.026,0,0,1,34.94,55.967Z"></path></g></svg>