<svg xmlns="http://www.w3.org/2000/svg" viewBox="0 0 64 64" x="0px" y="0px"><g><path d="M59,32H58V23a1,1,0,0,0-1-1H52V4a2,2,0,0,0-2-2H14a2,2,0,0,0-2,2V22H7a1,1,0,0,0-1,1v9H5a3,3,0,0,0-3,3V59a3,3,0,0,0,3,3H59a3,3,0,0,0,3-3V35A3,3,0,0,0,59,32Zm-3-8v8H52V24ZM50,4V32H14V4ZM8,24h4v8H8ZM60,59a1,1,0,0,1-1,1H5a1,1,0,0,1-1-1V35a1,1,0,0,1,1-1H59a1,1,0,0,1,1,1Z"></path><path d="M55,36H51a1,1,0,0,0-1,1v4a1,1,0,0,0,1,1h4a1,1,0,0,0,1-1V37A1,1,0,0,0,55,36Zm-1,4H52V38h2Z"></path><path d="M43,42h4a1,1,0,0,0,1-1V37a1,1,0,0,0-1-1H43a1,1,0,0,0-1,1v4A1,1,0,0,0,43,42Zm1-4h2v2H44Z"></path><path d="M35,42h4a1,1,0,0,0,1-1V37a1,1,0,0,0-1-1H35a1,1,0,0,0-1,1v4A1,1,0,0,0,35,42Zm1-4h2v2H36Z"></path><path d="M52,48H12a2,2,0,0,0-2,2v4a2,2,0,0,0,2,2H52a2,2,0,0,0,2-2V50A2,2,0,0,0,52,48Zm0,6H12V50H52Z"></path><path d="M14,39a3,3,0,1,0-3,3A3,3,0,0,0,14,39Zm-4,0a1,1,0,1,1,1,1A1,1,0,0,1,10,39Z"></path><path d="M19,42a3,3,0,1,0-3-3A3,3,0,0,0,19,42Zm0-4a1,1,0,1,1-1,1A1,1,0,0,1,19,38Z"></path><rect x="18" y="8" width="6" height="2"></rect><rect x="26" y="8" width="14" height="2"></rect><rect x="42" y="8" width="4" height="2"></rect><rect x="18" y="24" width="6" height="2"></rect><rect x="26" y="24" width="14" height="2"></rect><rect x="42" y="24" width="4" height="2"></rect><rect x="18" y="28" width="8" height="2"></rect><rect x="28" y="28" width="10" height="2"></rect><rect x="40" y="28" width="6" height="2"></rect><rect x="18" y="12" width="2" height="2"></rect><rect x="22" y="12" width="10" height="2"></rect><rect x="34" y="12" width="12" height="2"></rect><rect x="18" y="16" width="22" height="2"></rect><rect x="42" y="16" width="4" height="2"></rect><rect x="18" y="20" width="28" height="2"></rect></g></svg>