<svg xmlns="http://www.w3.org/2000/svg" viewBox="0 0 64 64" x="0px" y="0px"><g><path d="M32,10H20V23H32ZM30,21a1,1,0,0,1-1,1H23a1,1,0,0,1-1-1V19a3,3,0,0,1,1.969-2.806,3,3,0,1,1,4.062,0A3,3,0,0,1,30,19Z"></path><path d="M27,18H25a1,1,0,0,0-1,1v1h4V19A1,1,0,0,0,27,18Z"></path><circle cx="26" cy="14" r="1"></circle><path d="M12,8H5A1,1,0,0,0,4,9V40h8Z"></path><path d="M4,47a1,1,0,0,0,1,1H59a1,1,0,0,0,1-1V42H4Zm48-3h4v2H52Z"></path><path d="M50,12.85a1.044,1.044,0,0,0-.3-.722L43,5.416V11a1,1,0,0,0,1,1h4v2H44a3,3,0,0,1-3-3V4H15a1,1,0,0,0-1,1V40H50ZM36,16h2v2H36ZM18,9a1,1,0,0,1,1-1H33a1,1,0,0,1,1,1V24a1,1,0,0,1-1,1H19a1,1,0,0,1-1-1ZM46,35H18V33H46Zm0-4H18V29H46Zm0-9H36V20H46Zm0-4H40V16h6Z"></path><polygon points="42 58 22 58 22 60 16 60 16 62 48 62 48 60 42 60 42 58"></polygon><polygon points="24.883 50 24.133 56 39.867 56 39.117 50 24.883 50"></polygon><path d="M48.407,8l2.72,2.724A3.024,3.024,0,0,1,52,12.85V40h8V9a1,1,0,0,0-1-1Z"></path></g></svg>