<svg xmlns="http://www.w3.org/2000/svg" viewBox="0 0 64 64" x="0px" y="0px"><title>Toilet vacuum</title><g data-name="Toilet vacuum"><path d="M47,56.78V55A13.014,13.014,0,0,0,37,42.363V39a1,1,0,0,0-1-1H35V3a1,1,0,0,0-1-1H30a1,1,0,0,0-1,1V38H28a1,1,0,0,0-1,1v3.363A13.014,13.014,0,0,0,17,55v1.78A2.989,2.989,0,0,0,19,62H45a2.989,2.989,0,0,0,2-5.22ZM31,4h2V38H31ZM29,42V40h6v2ZM19,55A11.013,11.013,0,0,1,30,44h4A11.013,11.013,0,0,1,45,55v1H19Zm26,5H19a1,1,0,0,1,0-2H45a1,1,0,0,1,0,2Z"></path></g></svg>