<svg xmlns="http://www.w3.org/2000/svg" viewBox="0 0 64 64" x="0px" y="0px"><g data-name="Time"><path d="M32,14A20,20,0,1,0,52,34,20.023,20.023,0,0,0,32,14Zm0,38A18,18,0,1,1,50,34,18.021,18.021,0,0,1,32,52Z"></path><path d="M33,31.184V22H31v9.184A3,3,0,0,0,29.184,33H22v2h7.184A2.993,2.993,0,1,0,33,31.184ZM32,35a1,1,0,1,1,1-1A1,1,0,0,1,32,35Z"></path><rect x="16" y="33" width="2" height="2"></rect><rect x="31" y="48" width="2" height="2"></rect><rect x="46" y="33" width="2" height="2"></rect><rect x="31" y="18" width="2" height="2"></rect><path d="M58,34A26,26,0,1,1,29.77,8.1l-2.393,2.852,1.532,1.285,3.857-4.6a1,1,0,0,0-.123-1.409l-4.6-3.857L26.761,3.909,29.4,6.125A28,28,0,1,0,60,34Z"></path><path d="M57.449,28.654l1.958-.409c-.141-.674-.309-1.35-.5-2.012l-1.922.553C57.162,27.4,57.318,28.029,57.449,28.654Z"></path><path d="M56.384,24.958l1.876-.695c-.239-.644-.5-1.288-.792-1.915l-1.818.833C55.916,23.763,56.164,24.36,56.384,24.958Z"></path><path d="M54.785,21.463l1.751-.966c-.333-.6-.692-1.2-1.067-1.776l-1.675,1.092C54.142,20.347,54.476,20.9,54.785,21.463Z"></path><path d="M57.956,32.469l2-.118c-.041-.689-.107-1.383-.2-2.062l-1.983.263C57.856,31.183,57.917,31.828,57.956,32.469Z"></path><path d="M52.683,18.242l1.59-1.214c-.418-.547-.861-1.085-1.317-1.6l-1.5,1.327C51.884,17.234,52.3,17.734,52.683,18.242Z"></path><path d="M44.817,9.1c-.61-.315-1.242-.612-1.878-.883l-.783,1.841c.591.251,1.177.527,1.744.819Z"></path><path d="M41,7.479c-.651-.222-1.32-.421-1.989-.594l-.5,1.936c.62.16,1.241.346,1.845.551Z"></path><path d="M51.524,13.93c-.494-.481-1.012-.948-1.539-1.39L48.7,14.072c.49.411.971.845,1.429,1.291Z"></path><path d="M36.987,6.442c-.675-.122-1.366-.22-2.053-.292l-.207,1.99c.638.066,1.279.157,1.9.27Z"></path><path d="M48.349,11.267c-.56-.4-1.141-.789-1.726-1.148l-1.046,1.7c.544.334,1.083.693,1.6,1.068Z"></path></g></svg>