<svg xmlns="http://www.w3.org/2000/svg" viewBox="0 0 64 64" x="0px" y="0px"><g data-name="House Key-Security-Protection-Door-Digital"><path d="M58,24H44a2,2,0,0,0,0,4H58a2,2,0,0,0,0-4Z"></path><path d="M47,48a1,1,0,0,0,1-1V34H44a8,8,0,0,1,0-16h4V5a1,1,0,0,0-1-1H21a1,1,0,0,0-1,1V16h7a7.008,7.008,0,0,1,7,7V48Zm-3-6a2,2,0,1,1-2,2A2,2,0,0,1,44,42ZM44,6a2,2,0,1,1-2,2A2,2,0,0,1,44,6ZM24,10a2,2,0,1,1,2-2A2,2,0,0,1,24,10Z"></path><path d="M21,54H17a1,1,0,0,0,0,2h4a1,1,0,0,0,0-2Z"></path><path d="M32,23a5,5,0,0,0-5-5H11a5,5,0,0,0-5,5V55a5,5,0,0,0,5,5H27a5,5,0,0,0,5-5ZM15,20h8v2H15Zm6.828,20.414-1.414,1.414L19,40.414l-1.414,1.414-1.414-1.414L17.586,39l-1.414-1.414,1.414-1.414L19,37.586l1.414-1.414,1.414,1.414L20.414,39ZM11,20h2v2H11Zm1,20.414-1.414,1.414L9.172,40.414,10.586,39,9.172,37.586l1.414-1.414L12,37.586l1.414-1.414,1.414,1.414L13.414,39l1.414,1.414-1.414,1.414ZM21,58H17a3,3,0,0,1,0-6h4a3,3,0,0,1,0,6Zm7.828-17.586-1.414,1.414L26,40.414l-1.414,1.414-1.414-1.414L24.586,39l-1.414-1.414,1.414-1.414L26,37.586l1.414-1.414,1.414,1.414L27.414,39Z"></path><path d="M44,22h4V20H44a6,6,0,0,0-6,6,6.009,6.009,0,0,0,6,6h4V30H44a4,4,0,0,1,0-8Z"></path></g></svg>