<svg xmlns="http://www.w3.org/2000/svg" viewBox="0 0 64 64" x="0px" y="0px"><g data-name="Cloud-Add-Cloud Computing-Data-Storage"><path d="M33,44V40H31v4a1,1,0,0,1-1,1H26v2h4a1,1,0,0,1,1,1v4h2V48a1,1,0,0,1,1-1h4V45H34A1,1,0,0,1,33,44Z"></path><path d="M50.825,20.166a1,1,0,0,1-.835-.986c0-.028.006-.144.008-.171A8.008,8.008,0,0,0,42,11a7.838,7.838,0,0,0-2.351.354,1,1,0,0,1-1.18-.481A13,13,0,0,0,14,17a12.851,12.851,0,0,0,.168,2,1,1,0,0,1-.837,1.143A10.994,10.994,0,0,0,15,42h1.527a15.976,15.976,0,0,1,30.946,0H49a10.993,10.993,0,0,0,1.825-21.834ZM27,9a8.009,8.009,0,0,0-8,8H17A10.011,10.011,0,0,1,27,7ZM49,39V37a6.006,6.006,0,0,0,6-6h2A8.009,8.009,0,0,1,49,39Z"></path><path d="M32,32A14,14,0,1,0,46,46,14.015,14.015,0,0,0,32,32Zm8,16a1,1,0,0,1-1,1H35v4a1,1,0,0,1-1,1H30a1,1,0,0,1-1-1V49H25a1,1,0,0,1-1-1V44a1,1,0,0,1,1-1h4V39a1,1,0,0,1,1-1h4a1,1,0,0,1,1,1v4h4a1,1,0,0,1,1,1Z"></path></g></svg>