<svg xmlns="http://www.w3.org/2000/svg" viewBox="0 0 64 64" x="0px" y="0px"><g><rect x="29" y="16" width="6" height="2"></rect><path d="M15,30a4,4,0,1,0,4,4A4,4,0,0,0,15,30Zm0,6a2,2,0,1,1,2-2A2,2,0,0,1,15,36Z"></path><path d="M49,38a4,4,0,1,0-4-4A4,4,0,0,0,49,38Zm0-6a2,2,0,1,1-2,2A2,2,0,0,1,49,32Z"></path><path d="M60,39h-.184A2.966,2.966,0,0,0,60,38V28.354A2.982,2.982,0,0,0,58.858,26h.362a1.991,1.991,0,0,0,1.94-1.517l.5-2A2,2,0,0,0,59.72,20H51.5L47,14a5.025,5.025,0,0,0-4-2H21a5.025,5.025,0,0,0-4,2l-4.5,6H4.28a2,2,0,0,0-1.94,2.483l.5,2A1.993,1.993,0,0,0,4.78,26h.362A2.982,2.982,0,0,0,4,28.354V38a2.966,2.966,0,0,0,.184,1H4a2,2,0,0,0-2,2v4a2,2,0,0,0,2,2H5v3a3,3,0,0,0,3,3h6a3,3,0,0,0,3-3V47H47v3a3,3,0,0,0,3,3h6a3,3,0,0,0,3-3V47h1a2,2,0,0,0,2-2V41A2,2,0,0,0,60,39Zm-.279-17-.5,2H54.511c-.015-.017-.034-.03-.048-.049L53,22ZM18.6,15.2A3.017,3.017,0,0,1,21,14H43a3.017,3.017,0,0,1,2.4,1.2L52,24H26.9a5,5,0,0,0-9.8,0H12ZM24.816,24H19.184a2.982,2.982,0,0,1,5.632,0ZM4.779,24l-.5-2H11L9.538,23.95c-.014.019-.034.032-.049.05ZM6,38V37H9V35H6V33H9V31H6V28.354a1,1,0,0,1,.628-.928l3.223-1.289c.086-.034.158-.095.241-.137H53.908c.083.042.155.1.241.137l3.222,1.288a1,1,0,0,1,.629.929V31H55v2h3v2H55v2h3v1a1,1,0,0,1-1,1H43V33a3,3,0,0,0-3-3H24a3,3,0,0,0-3,3v6H7A1,1,0,0,1,6,38Zm17-3H41v1H23Zm0-2a1,1,0,0,1,1-1H40a1,1,0,0,1,1,1Zm0,5H41v1H23ZM15,50a1,1,0,0,1-1,1H8a1,1,0,0,1-1-1V47h8Zm42,0a1,1,0,0,1-1,1H50a1,1,0,0,1-1-1V47h8ZM4,45V41H60v4Z"></path></g></svg>