<svg xmlns="http://www.w3.org/2000/svg" viewBox="0 0 64 64" x="0px" y="0px"><g><path d="M19,39.519l4.17,3.336,4-1.6,1.292-4.522a14.007,14.007,0,0,0-6.6-4.178L19,35.414Z"></path><path d="M16.5,32.084l1.5,1.5,1.5-1.5a13.471,13.471,0,0,0-3,0Z"></path><polygon points="14.169 44.346 15.721 49 20.279 49 21.831 44.346 18 41.28 14.169 44.346"></polygon><path d="M8.221,56a14.032,14.032,0,0,0,2.323,1.828L10.18,56Z"></path><path d="M4.608,41.927l2.156-.615-.728-2.545A13.894,13.894,0,0,0,4.608,41.927Z"></path><path d="M12.2,44.757l-4.252-1.7L4.138,44.142A13.67,13.67,0,0,0,6.527,54h3.992c1.838-2.3,2.819-3.521,3.37-4.172Z"></path><path d="M32,46a14.043,14.043,0,0,0-.138-1.858l-3.808-1.086-4.252,1.7-1.7,5.087c.562.659,1.548,1.883,3.373,4.156h3.994A13.911,13.911,0,0,0,32,46Z"></path><path d="M29.236,41.312l2.156.615a13.894,13.894,0,0,0-1.428-3.16Z"></path><path d="M12.83,42.855,17,39.519v-4.1l-2.86-2.86a14.007,14.007,0,0,0-6.6,4.178l1.292,4.522Z"></path><path d="M26,57.473A14.039,14.039,0,0,0,27.779,56H26Z"></path><path d="M18,60a13.893,13.893,0,0,0,6-1.37V55.351c-1.233-1.534-2.862-3.558-3.5-4.351H15.49c-.637.788-2.2,2.743-3.418,4.262l.743,3.731A13.911,13.911,0,0,0,18,60Z"></path><path d="M47,31.763c1.177-.532,2.335-1.973,3.243-4.091A13.944,13.944,0,0,0,47,27.044Z"></path><path d="M53.976,19A28.564,28.564,0,0,1,52.8,26.519,15.858,15.858,0,0,1,55.564,28.2,13.946,13.946,0,0,0,59.949,19Z"></path><path d="M47,25.044a15.974,15.974,0,0,1,3.925.748A26.444,26.444,0,0,0,51.976,19H47Z"></path><path d="M50.556,4.776a14.09,14.09,0,0,1,1.557,2.809A13.768,13.768,0,0,0,53.969,6.5,13.974,13.974,0,0,0,50.556,4.776Z"></path><path d="M47,17h4.976a26.444,26.444,0,0,0-1.051-6.792A15.974,15.974,0,0,1,47,10.956Z"></path><path d="M53.969,29.5a13.768,13.768,0,0,0-1.856-1.081,14.09,14.09,0,0,1-1.557,2.809A13.974,13.974,0,0,0,53.969,29.5Z"></path><path d="M55.564,7.8A15.858,15.858,0,0,1,52.8,9.481,28.564,28.564,0,0,1,53.976,17h5.973A13.946,13.946,0,0,0,55.564,7.8Z"></path><path d="M47,4.237V8.956a13.944,13.944,0,0,0,3.243-.628C49.335,6.21,48.177,4.769,47,4.237Z"></path><path d="M36.436,28.2A15.858,15.858,0,0,1,39.2,26.519,28.564,28.564,0,0,1,38.024,19H32.051A13.946,13.946,0,0,0,36.436,28.2Z"></path><path d="M45,10.956a15.974,15.974,0,0,1-3.925-.748A26.444,26.444,0,0,0,40.024,17H45Z"></path><path d="M39.887,28.415A13.768,13.768,0,0,0,38.031,29.5a13.974,13.974,0,0,0,3.413,1.728A14.09,14.09,0,0,1,39.887,28.415Z"></path><path d="M45,19H40.024a26.444,26.444,0,0,0,1.051,6.792A15.974,15.974,0,0,1,45,25.044Z"></path><path d="M45,4.237c-1.177.532-2.335,1.973-3.243,4.091A13.944,13.944,0,0,0,45,8.956Z"></path><path d="M45,31.763V27.044a13.944,13.944,0,0,0-3.243.628C42.665,29.79,43.823,31.231,45,31.763Z"></path><path d="M41.444,4.776A13.974,13.974,0,0,0,38.031,6.5a13.768,13.768,0,0,0,1.856,1.081A14.09,14.09,0,0,1,41.444,4.776Z"></path><path d="M32.051,17h5.973A28.564,28.564,0,0,1,39.2,9.481,15.858,15.858,0,0,1,36.436,7.8,13.946,13.946,0,0,0,32.051,17Z"></path><path d="M53.609,35.079l-3.681,1.564.781,1.841,1.448-.614A21.028,21.028,0,0,1,33.863,52.919l.176,1.992A23.031,23.031,0,0,0,54.02,38.6l.623,1.467,1.841-.781-1.563-3.682A1,1,0,0,0,53.609,35.079Z"></path><path d="M10,30a1,1,0,0,0,.517-.145l3.421-2.071L12.9,26.073l-1.24.751a21.133,21.133,0,0,1,18.43-15.738l-.18-1.992A23.152,23.152,0,0,0,9.673,26.529l-.889-1.468L7.073,26.1l2.072,3.422A1,1,0,0,0,10,30Z"></path></g></svg>