<svg xmlns="http://www.w3.org/2000/svg" viewBox="0 0 64 64" x="0px" y="0px"><g data-name="Scale"><rect x="24" y="50" width="36" height="2"></rect><rect x="29" y="25" width="8" height="2"></rect><rect x="47" y="25" width="8" height="2"></rect><rect x="29" y="29" width="8" height="2"></rect><rect x="47" y="29" width="8" height="2"></rect><rect x="39" y="25" width="6" height="10"></rect><path d="M37,35V33H29V48H55V33H47v2a2,2,0,0,1-2,2H39A2,2,0,0,1,37,35Zm12,9h4v2H49Zm-4,0h2v2H45Z"></path><rect x="30" y="54" width="24" height="2"></rect><rect x="4" y="58" width="56" height="2"></rect><path d="M23,4H5A1,1,0,0,0,4,5V21a1,1,0,0,0,1,1H23a1,1,0,0,0,1-1V5A1,1,0,0,0,23,4ZM14,18a1.994,1.994,0,0,1-1-3.722V10h2v4.278A1.994,1.994,0,0,1,14,18Zm7-4A7,7,0,0,0,7,14H5a9,9,0,0,1,18,0Z"></path><rect x="13" y="24" width="2" height="32"></rect></g></svg>