<svg xmlns="http://www.w3.org/2000/svg" viewBox="0 0 64 64" x="0px" y="0px"><g data-name="Information Ecology-Ecology-Smartphone-Application-Plant"><path d="M46,2H18a6,6,0,0,0-6,6V56a6,6,0,0,0,6,6H46a6,6,0,0,0,6-6V8A6,6,0,0,0,46,2Zm4,54a4,4,0,0,1-4,4H18a4,4,0,0,1-4-4V54H50Zm0-4H33V48.3l2.6.7a7.151,7.151,0,0,0,1.81.24,7.029,7.029,0,0,0,6.77-5.19l1.03-3.86a1,1,0,0,0-.7-1.23l-3.87-1.03A7,7,0,0,0,33,40.83V36.35a9.252,9.252,0,0,0,1.96.23,6.164,6.164,0,0,0,3.41-.95c2.93-1.9,3.01-5.9,3.02-6.06a1,1,0,0,0-.61-.93c-.15-.07-3.83-1.62-6.76.28a5.355,5.355,0,0,0-1.02.85v-2.2c1.21-.76,4-2.92,4-6.57,0-4.57-4.37-6.8-4.55-6.89a.956.956,0,0,0-.9,0C31.37,14.2,27,16.43,27,21c0,3.65,2.79,5.81,4,6.57v2.2a5.355,5.355,0,0,0-1.02-.85c-2.93-1.9-6.61-.35-6.76-.28a1,1,0,0,0-.61.93c.01.16.09,4.16,3.02,6.06a6.164,6.164,0,0,0,3.41.95A9.252,9.252,0,0,0,31,36.35v4.48a7,7,0,0,0-7.64-2.9l-3.87,1.03a1,1,0,0,0-.7,1.23l1.03,3.86a7.02,7.02,0,0,0,6.77,5.19A7.151,7.151,0,0,0,28.4,49l2.6-.7V52H14V12H50ZM32,25.84c-.93-.62-3-2.26-3-4.84s2.07-4.23,3-4.84c.93.62,3,2.26,3,4.84S32.93,25.23,32,25.84Zm1.22,20.45L34,43.4a5,5,0,0,1,6.12-3.54l2.9.78-.77,2.89a5.012,5.012,0,0,1-6.13,3.54Zm-.15-11.98A5.384,5.384,0,0,1,35.1,30.6a5.353,5.353,0,0,1,4.21-.35,5.326,5.326,0,0,1-2.03,3.7A5.357,5.357,0,0,1,33.07,34.31Zm-2.14-.01a5.307,5.307,0,0,1-4.21-.35,5.324,5.324,0,0,1-2.04-3.7,5.375,5.375,0,0,1,4.22.35A5.345,5.345,0,0,1,30.93,34.3Zm-.15,11.99-2.9.78a5.017,5.017,0,0,1-6.13-3.54l-.77-2.89,2.9-.78A5,5,0,0,1,30,43.4ZM50,10H14V8a4,4,0,0,1,4-4H46a4,4,0,0,1,4,4Z"></path><rect x="25" y="6" width="2" height="2"></rect><rect x="29" y="6" width="6" height="2"></rect><rect x="31" y="56" width="2" height="2"></rect></g></svg>