<svg xmlns="http://www.w3.org/2000/svg" viewBox="0 0 64 64" x="0px" y="0px"><g data-name="Speech Bubble"><path d="M61.929,54.628,57.348,43.177A20.97,20.97,0,0,0,39,12c-.546,0-1.084.035-1.618.077a20.967,20.967,0,0,0-30.731,27.1L2.071,50.628A1,1,0,0,0,3,52a.989.989,0,0,0,.433-.1l10.521-5.049A20.9,20.9,0,0,0,25,50c.536,0,1.062-.041,1.589-.081A20.744,20.744,0,0,0,39,54a20.984,20.984,0,0,0,11.049-3.148L60.567,55.9A.989.989,0,0,0,61,56a1,1,0,0,0,.929-1.372ZM14.573,44.874a1,1,0,0,0-.983-.066L4.882,48.987l3.806-9.514a1,1,0,0,0-.066-.878,18.974,18.974,0,1,1,5.951,6.279Zm35.84,3.935a1,1,0,0,0-.98.065A19,19,0,0,1,39,52a18.769,18.769,0,0,1-9.425-2.517A20.969,20.969,0,0,0,39.708,14.036,18.951,18.951,0,0,1,55.377,42.6a1,1,0,0,0-.065.877l3.806,9.515Z"></path><rect x="13" y="37" width="2" height="2"></rect><rect x="17" y="37" width="2" height="2"></rect><rect x="21" y="37" width="14" height="2"></rect><rect x="13" y="31" width="14" height="2"></rect><rect x="29" y="31" width="2" height="2"></rect><rect x="33" y="31" width="2" height="2"></rect><rect x="13" y="25" width="22" height="2"></rect><rect x="13" y="19" width="8" height="2"></rect><rect x="23" y="19" width="2" height="2"></rect><rect x="27" y="19" width="2" height="2"></rect><rect x="31" y="19" width="4" height="2"></rect><path d="M48.6,20.2l-1.2,1.6A13.9,13.9,0,0,1,53,33h2A15.88,15.88,0,0,0,48.6,20.2Z"></path></g></svg>