<svg xmlns="http://www.w3.org/2000/svg" viewBox="0 0 64 64" x="0px" y="0px"><g data-name="Santa Claus-Present-Xmas-Christmas-Decorations"><path d="M35.7,29.73a10.959,10.959,0,0,0-2.18-2.13,14.589,14.589,0,0,1-4.2,2.35,1.049,1.049,0,0,1-.64,0,14.586,14.586,0,0,1-4.22-2.36c-3.08,2.27-5.19,6.68-5.43,11.46-.02.32-.03.64-.03.95H33.42l.07-3.17a3.125,3.125,0,0,1-1.04-.46,2.995,2.995,0,0,1,1.2-5.41l1.25-.23a1.841,1.841,0,0,1,.24-.46A1.92,1.92,0,0,1,35.7,29.73ZM30,38H28V36h2Zm0-4H28V32h2Z"></path><path d="M32.13,9l-.96-1.45,1.66-1.1,1.33,1.98,1.13-1.14a1.105,1.105,0,0,1,.34-.22L38.2,6.05A3.061,3.061,0,0,1,38,5H29.47a3.044,3.044,0,0,0-2.69,1.66L25.62,9Z"></path><path d="M23.08,26.14a5.516,5.516,0,0,1-.89-1.84,17.12,17.12,0,0,0-5.7,7.7h2.18A15.1,15.1,0,0,1,23.08,26.14Z"></path><rect x="28" y="42" width="2" height="2"></rect><path d="M33.99,32.93a1,1,0,0,0-.81,1.15.986.986,0,0,0,.41.65,1.052,1.052,0,0,0,.75.17l.99-.18-.35-1.97Z"></path><path d="M15.34,39.64a1.135,1.135,0,0,0,.83.36H17c0-.35.01-.71.03-1.06.02-.32.04-.63.07-.94H15.09c-.02.26-.04.52-.05.8A1.107,1.107,0,0,0,15.34,39.64Z"></path><path d="M40,24a9.943,9.943,0,0,0-1.34.09,18.752,18.752,0,0,1,3.86,5.3,3,3,0,0,1,1.03,5.91l-2.24.4a2.049,2.049,0,0,1-.62.86,18.793,18.793,0,0,1,.28,2.39c.02.34.03.7.03,1.05a10.7,10.7,0,0,1-.58,3.31,14.277,14.277,0,0,1-1.18,2.65A10.993,10.993,0,1,0,40,24Z"></path><path d="M20,44h6V42H19.28c.06.23.13.46.2.69A12.306,12.306,0,0,0,20,44Z"></path><path d="M17.92,34H14a1,1,0,0,0,0,2h3.41A16.735,16.735,0,0,1,17.92,34Z"></path><path d="M30.17,60h5.66a3,3,0,0,0-5.66,0Z"></path><path d="M22.49,47.54A4.962,4.962,0,0,1,24,51.17V56.1a5.468,5.468,0,0,1,1-.1,4.924,4.924,0,0,1,3,1.03V48h2v9.03A4.924,4.924,0,0,1,33,56a5.468,5.468,0,0,1,1,.1V51.17a4.962,4.962,0,0,1,1.51-3.63A9.928,9.928,0,0,0,36.82,46H21.18A9.928,9.928,0,0,0,22.49,47.54Z"></path><path d="M43.2,33.33a.951.951,0,0,0,.65-.41,1.041,1.041,0,0,0,.17-.75,1.012,1.012,0,0,0-1.16-.81l-1.97.35.22,1.28.12.69Z"></path><path d="M38.52,42.69c.07-.23.14-.46.2-.69H32v2h6A12.306,12.306,0,0,0,38.52,42.69Z"></path><path d="M25,58a3.014,3.014,0,0,0-2.83,2h5.66A3.014,3.014,0,0,0,25,58Z"></path><circle cx="41" cy="5" r="1"></circle><path d="M23,12a1,1,0,0,0,1,1H34a1,1,0,0,0,0-2H24A1,1,0,0,0,23,12Z"></path><path d="M38.97,39.06c-.03-.65-.11-1.28-.2-1.9l-.54.1.75,1.91A.41.41,0,0,1,38.97,39.06Z"></path><polygon points="38.74 31.07 36.77 31.42 37.45 35.26 37.49 35.36 39.44 35.01 38.74 31.07"></polygon><polygon points="35.85 36.66 35.5 36.72 35.43 39.78 36.96 39.51 35.85 36.66"></polygon><path d="M24,20v3c0,2.74,3.87,4.48,5.01,4.93C30.66,27.3,34,25.5,34,23V20a1,1,0,0,0-1-1H25A1,1,0,0,0,24,20Zm4,2a1,1,0,0,0,2,0h2a3,3,0,0,1-6,0Z"></path><path d="M38.4,29.1a2.025,2.025,0,0,1,1.49.33,1.862,1.862,0,0,1,.38.36l.2-.04a16.135,16.135,0,0,0-4.66-5.44,5.765,5.765,0,0,1-.89,1.83,13.555,13.555,0,0,1,2.85,3.07Z"></path><rect x="25" y="15" width="8" height="2"></rect></g></svg>