<svg xmlns="http://www.w3.org/2000/svg" viewBox="0 0 64 64" x="0px" y="0px"><title>Product-Package-Delivery-Shipping-Order</title><g><path d="M61.857,25.485l-6-10A1,1,0,0,0,55,15H9a1,1,0,0,0-.857.485l-6,10A1,1,0,0,0,3,27H8V50a1,1,0,0,0,1,1H55a1,1,0,0,0,1-1V27h5a1,1,0,0,0,.857-1.515ZM17,17h4v7.132l-1.445-.964a1,1,0,0,0-1.11,0L17,24.132ZM4.766,25,8,19.611V25ZM10,49V17h5v9a1,1,0,0,0,1.555.832L19,25.2l2.445,1.63A1,1,0,0,0,23,26V17h5V49Zm44,0H30V19.611l4.143,6.9A1,1,0,0,0,35,27H54ZM35.566,25l-4.8-8H54.434l4.8,8Z"></path><rect x="48" y="45" width="4" height="2"></rect><rect x="44" y="45" width="2" height="2"></rect><path d="M34,32v8a1,1,0,0,0,1,1H49a1,1,0,0,0,1-1V32a1,1,0,0,0-1-1H35A1,1,0,0,0,34,32Zm2,1H48v6H36Z"></path><rect x="38" y="35" width="2" height="2"></rect><rect x="42" y="35" width="4" height="2"></rect></g></svg>