<svg xmlns="http://www.w3.org/2000/svg" viewBox="0 0 64 64" x="0px" y="0px"><title>Dinner-Dish</title><g><path d="M32,12A20,20,0,1,0,52,32,20.023,20.023,0,0,0,32,12Zm0,38A18,18,0,1,1,50,32,18.021,18.021,0,0,1,32,50Z"></path><path d="M32,17A15,15,0,1,0,47,32,15.017,15.017,0,0,0,32,17Zm0,28A13,13,0,1,1,45,32,13.015,13.015,0,0,1,32,45Z"></path><path d="M57,9H56a5.006,5.006,0,0,0-5,5v4a5,5,0,0,0,3,4.576V52a2,2,0,0,0,2,2h1a2,2,0,0,0,2-2V22.576A5,5,0,0,0,62,18V14A5.006,5.006,0,0,0,57,9Zm0,43H56V23h1Zm3-34a3,3,0,0,1-3,3H56a3,3,0,0,1-3-3V14a3,3,0,0,1,3-3h1a3,3,0,0,1,3,3Z"></path><path d="M13,18V11a1,1,0,0,0-1-1H3a1,1,0,0,0-1,1v7a5,5,0,0,0,3,4.576V52a2,2,0,0,0,2,2H8a2,2,0,0,0,2-2V22.576A5,5,0,0,0,13,18ZM8,52H7V23H8Zm3-34a3,3,0,0,1-3,3H7a3,3,0,0,1-3-3V12H5v5H7V12H8v5h2V12h1Z"></path></g></svg>