<svg xmlns="http://www.w3.org/2000/svg" viewBox="0 0 64 64" x="0px" y="0px"><g data-name="Online Library"><path d="M20,40V34H19a3,3,0,0,0,0,6Z"></path><path d="M23,42v2H54v2H23v2H56.72a6.61,6.61,0,0,1,0-6Z"></path><path d="M54,34H25v2H56v2H25v2H58.72a6.61,6.61,0,0,1,0-6Z"></path><path d="M17,50a4.989,4.989,0,0,1-1.71-9.679A4.91,4.91,0,0,1,15.026,34H12a1,1,0,0,1-.458-1.889A3.4,3.4,0,0,0,13,29a3.392,3.392,0,0,0-1.46-3.112,1.012,1.012,0,0,1-.5-1.129A1,1,0,0,1,12,24H44V7a1,1,0,0,0-1-1H5A1,1,0,0,0,4,7V54H44V50ZM27,15h2v2H27Zm-4,0h2v2H23Zm-4,0h2v2H19Z"></path><path d="M43,60a1,1,0,0,0,1-1V56H4v3a1,1,0,0,0,1,1ZM23,57h2v2H23Z"></path><path d="M48,30H17V28H48V26H14.28a6.61,6.61,0,0,1,0,6H48Z"></path><rect x="22" y="34" width="1" height="6"></rect><rect x="50" y="26" width="1" height="6"></rect><rect x="20" y="42" width="1" height="6"></rect><path d="M54,26H53v6h1a3,3,0,0,0,0-6Z"></path><path d="M14,45a3,3,0,0,0,3,3h1V42H17A3,3,0,0,0,14,45Z"></path></g></svg>