<svg xmlns="http://www.w3.org/2000/svg" viewBox="0 0 64 64" x="0px" y="0px"><g data-name="Smart Tv-Internet of Things-App-Internet-Smartphone"><path d="M57,2H13A5,5,0,0,0,8,7V26H7a5,5,0,0,0-5,5V57a5,5,0,0,0,5,5H21a5,5,0,0,0,5-5V56H48a3,3,0,0,0,3-3,3.009,3.009,0,0,0-3-3H39V44H57a5,5,0,0,0,5-5V7A5,5,0,0,0,57,2ZM24,57a3.009,3.009,0,0,1-3,3H7a3.009,3.009,0,0,1-3-3V54H24Zm0-5H4V34H24Zm0-20H4V31a3.009,3.009,0,0,1,3-3H21a3.009,3.009,0,0,1,3,3Zm-3-6H14V8H56V38H26V31A5,5,0,0,0,21,26Zm5,18h5v6H26Zm22,8a1,1,0,0,1,1,1,.949.949,0,0,1-.31.71A.928.928,0,0,1,48,54H26V52ZM33,50V44h4v6ZM60,39a3.009,3.009,0,0,1-3,3H26V40H57a1,1,0,0,0,1-1V7a1,1,0,0,0-1-1H13a1,1,0,0,0-1,1V26H10V7a3.009,3.009,0,0,1,3-3H57a3.009,3.009,0,0,1,3,3Z"></path><path d="M32.879,26.879l1.414,1.414a1,1,0,0,1,1.414,0l1.414-1.414A3,3,0,0,0,32.879,26.879Z"></path><path d="M30.051,24.05l1.414,1.414a5,5,0,0,1,7.07,0l1.414-1.414a7,7,0,0,0-9.9,0Z"></path><path d="M41.364,22.636l1.414-1.414a11.012,11.012,0,0,0-15.556,0l1.414,1.414A9.01,9.01,0,0,1,41.364,22.636Z"></path><path d="M10.465,43.464l1.414,1.414a3.074,3.074,0,0,1,4.242,0l1.414-1.414a5,5,0,0,0-7.07,0Z"></path><path d="M9.05,42.05a7.011,7.011,0,0,1,9.9,0l1.414-1.414a9.01,9.01,0,0,0-12.728,0Z"></path><path d="M12.586,46.586,14,48l1.414-1.414A2,2,0,0,0,12.586,46.586Z"></path><rect x="13" y="56" width="2" height="2"></rect></g></svg>