<svg xmlns="http://www.w3.org/2000/svg" viewBox="0 0 64 64" x="0px" y="0px"><g data-name="skyscraper-building-tower-city-real estate"><path d="M55,60V22H41V60H39V14H25V60H23V4H9V60H3v2H61V60ZM43,24H53v2H43Zm0,4H53v2H43Zm0,4H53v2H43Zm0,4H53v2H43Zm0,4H53v2H43Zm0,4H53v2H43Zm0,4H53v2H43Zm0,4H53v2H43Zm0,4H53v2H43ZM27,16H37v2H27Zm0,4H37v2H27Zm0,4H37v2H27Zm0,4H37v2H27Zm0,4H37v2H27Zm0,4H37v2H27Zm0,4H37v2H27Zm0,4H37v2H27Zm0,4H37v2H27Zm0,4H37v2H27Zm0,4H37v2H27ZM11,8H21v2H11Zm0,4H21v2H11Zm0,4H21v2H11Zm0,4H21v2H11Zm0,4H21v2H11Zm0,4H21v2H11Zm0,4H21v2H11Zm0,4H21v2H11Zm0,4H21v2H11Zm0,4H21v2H11Zm0,4H21v2H11Zm8,12V54H13v6H11V53a1,1,0,0,1,1-1h8a1,1,0,0,1,1,1v7Z"></path></g></svg>