<svg xmlns="http://www.w3.org/2000/svg" viewBox="0 0 64 64" x="0px" y="0px"><g data-name="Config-Cloud"><path d="M42,51a1.994,1.994,0,0,0-1-1.723V44H39v5.277a1.984,1.984,0,0,0,0,3.446V57h2V52.723A1.994,1.994,0,0,0,42,51Z"></path><path d="M25,49.277V44H23v5.277a1.984,1.984,0,0,0,0,3.446V57h2V52.723a1.984,1.984,0,0,0,0-3.446Z"></path><path d="M32,43a1.994,1.994,0,0,0-1,3.722V57h2V46.722A1.994,1.994,0,0,0,32,43Z"></path><path d="M60,32A12.01,12.01,0,0,1,48,44H41V36H39v8H35.87A3.976,3.976,0,0,0,33,41.13V36H31v5.13A3.976,3.976,0,0,0,28.13,44H25V36H23v8H13a9,9,0,0,1-2.6-17.62.987.987,0,0,0,.71-.82A11.007,11.007,0,0,1,22,16c.16,0,.31.01.46.02l.2.01a1.009,1.009,0,0,0,.95-.53,13.985,13.985,0,0,1,26.15,3.98.994.994,0,0,0,.77.79A12.053,12.053,0,0,1,60,32Z"></path></g></svg>