<svg xmlns="http://www.w3.org/2000/svg" viewBox="0 0 64 64" x="0px" y="0px"><g data-name="Human Resource-Leader"><path d="M18,17V14a5.006,5.006,0,0,0-5-5H11a5.006,5.006,0,0,0-5,5v3a6,6,0,0,0,12,0Zm-7-6h2a3,3,0,0,1,3,3H14.236A2.6,2.6,0,0,1,11.9,12.553a1.042,1.042,0,0,0-1.79,0l-.447.894A.993.993,0,0,1,8.764,14H8A3,3,0,0,1,11,11Zm1,10a4,4,0,0,1-4-4V16h.764a2.978,2.978,0,0,0,2.385-1.179A4.594,4.594,0,0,0,14.236,16H16v1A4,4,0,0,1,12,21Z"></path><rect x="16" y="30" width="2" height="2"></rect><path d="M58,17V14a5.006,5.006,0,0,0-5-5H51a5.006,5.006,0,0,0-5,5v3a6,6,0,0,0,12,0Zm-7-6h2a3,3,0,0,1,3,3H54.236A2.6,2.6,0,0,1,51.9,12.553a1.042,1.042,0,0,0-1.79,0l-.447.894a.993.993,0,0,1-.894.553H48A3,3,0,0,1,51,11Zm1,10a4,4,0,0,1-4-4V16h.764a2.978,2.978,0,0,0,2.385-1.179A4.594,4.594,0,0,0,54.236,16H56v1A4,4,0,0,1,52,21Z"></path><path d="M55,23H49a7.009,7.009,0,0,0-7,7v6.477A11.054,11.054,0,0,0,34,33H30a11.054,11.054,0,0,0-8,3.477V30a7.009,7.009,0,0,0-7-7H9a7.009,7.009,0,0,0-7,7V43a2,2,0,0,0,2,2H19V55a2,2,0,0,0,2,2H43a2,2,0,0,0,2-2V45H60a2,2,0,0,0,2-2V30A7.009,7.009,0,0,0,55,23Zm-1.517,2L52,28.461,50.517,25ZM44,30a4.99,4.99,0,0,1,4.368-4.936L51,31.2V43H44.954c0-.048-.014-.095-.019-.143-.011-.1-.028-.2-.041-.3-.037-.277-.084-.551-.141-.824-.024-.112-.047-.223-.074-.334-.077-.312-.165-.619-.268-.922-.017-.05-.029-.1-.047-.15-.108-.3-.229-.606-.364-.9ZM34,35a8.873,8.873,0,0,1,2.275.311L32,39.586l-4.275-4.275A8.873,8.873,0,0,1,30,35ZM20,30v9.425c-.135.293-.256.594-.364.9-.017.046-.029.094-.044.141q-.156.459-.271.931c-.027.11-.05.22-.073.331q-.087.411-.142.828c-.014.1-.03.2-.041.3-.005.048-.015.1-.019.144H13V31.2l2.632-6.14A4.99,4.99,0,0,1,20,30Zm-6.517-5L12,28.461,10.517,25ZM4,30a4.99,4.99,0,0,1,4.368-4.936L11,31.2V43H4ZM21,44a9.045,9.045,0,0,1,.076-1.133,8.812,8.812,0,0,1,.823-2.78,9.032,9.032,0,0,1,3.813-3.961L31,41.414V55H21ZM43,55H33V41.414l5.288-5.288A9.039,9.039,0,0,1,42.1,40.089,8.855,8.855,0,0,1,43,44ZM60,43H53V31.2l2.632-6.14A4.99,4.99,0,0,1,60,30Z"></path><rect x="56" y="30" width="2" height="2"></rect><path d="M39,26V24a7,7,0,0,0-14,0v2a7,7,0,0,0,14,0Zm-7-7a5.009,5.009,0,0,1,4.9,4H32.618L31.9,21.553a1,1,0,0,0-.735-.54.982.982,0,0,0-.867.28L28.586,23H27.1A5.009,5.009,0,0,1,32,19Zm0,12a5.006,5.006,0,0,1-5-5V25h2a1,1,0,0,0,.707-.293l1.019-1.019.379.759A1,1,0,0,0,32,25h5v1A5.006,5.006,0,0,1,32,31Z"></path><rect x="36" y="42" width="4" height="2"></rect></g></svg>