<svg xmlns="http://www.w3.org/2000/svg" viewBox="0 0 64 64" x="0px" y="0px"><g><path d="M24,20H40a5.006,5.006,0,0,0,5-5V11a5.006,5.006,0,0,0-5-5H24a5.006,5.006,0,0,0-5,5v4A5.006,5.006,0,0,0,24,20Zm-3-9a3,3,0,0,1,3-3H40a3,3,0,0,1,3,3v4a3,3,0,0,1-3,3H24a3,3,0,0,1-3-3Z"></path><path d="M23,30a4,4,0,1,0-4-4A4,4,0,0,0,23,30Zm0-6a2,2,0,1,1-2,2A2,2,0,0,1,23,24Z"></path><path d="M32,22a4,4,0,1,0,4,4A4,4,0,0,0,32,22Zm0,6a2,2,0,1,1,2-2A2,2,0,0,1,32,28Z"></path><path d="M23,40a4,4,0,1,0-4-4A4,4,0,0,0,23,40Zm0-6a2,2,0,1,1-2,2A2,2,0,0,1,23,34Z"></path><path d="M32,32a4,4,0,1,0,4,4A4,4,0,0,0,32,32Zm0,6a2,2,0,1,1,2-2A2,2,0,0,1,32,38Z"></path><path d="M41,22a4,4,0,0,0-4,4V36a4,4,0,0,0,8,0V26A4,4,0,0,0,41,22Zm2,14a2,2,0,0,1-4,0V26a2,2,0,0,1,4,0Z"></path><path d="M60,54H59V25a5.006,5.006,0,0,0-5-5H49V7a5.006,5.006,0,0,0-5-5H20a5.006,5.006,0,0,0-5,5V20H10a5.006,5.006,0,0,0-5,5V54H4a2,2,0,0,0-2,2v3a3,3,0,0,0,3,3H59a3,3,0,0,0,3-3V56A2,2,0,0,0,60,54ZM17,7a3,3,0,0,1,3-3H44a3,3,0,0,1,3,3V39a3,3,0,0,1-3,3H20a3,3,0,0,1-3-3ZM7,25a3,3,0,0,1,3-3h5V39a5.006,5.006,0,0,0,5,5H44a5.006,5.006,0,0,0,5-5V22h5a3,3,0,0,1,3,3V54H7ZM36,57H28V56h8Zm24,2a1,1,0,0,1-1,1H5a1,1,0,0,1-1-1V56H26v1a2,2,0,0,0,2,2h8a2,2,0,0,0,2-2V56H60Z"></path></g></svg>