<svg xmlns="http://www.w3.org/2000/svg" viewBox="0 0 64 64" x="0px" y="0px"><g data-name="Dripper-Coffee Filter-Coffee-Filter-Hot Drink"><path d="M47,45H7a3.014,3.014,0,0,0-2.83,2H49.83A3.014,3.014,0,0,0,47,45Z"></path><rect x="22" y="49" width="10" height="2"></rect><path d="M57.95,27.46a8.8,8.8,0,0,0-6.34-14.44L50.12,16h1.07a5.812,5.812,0,0,1,1.04,11.53l-8.66,1.58-1.68,3.35,10.87-1.98A8.83,8.83,0,0,0,57.95,27.46Z"></path><polygon points="19.62 43 34.38 43 49.38 13 4.62 13 19.62 43"></polygon></g></svg>