<svg xmlns="http://www.w3.org/2000/svg" viewBox="0 0 64 64" x="0px" y="0px"><g data-name="Credit card-Data-Cloud"><rect x="21" y="39" width="22" height="1"></rect><path d="M60,32A12.01,12.01,0,0,1,48,44H45V35a1,1,0,0,0-1-1H20a1,1,0,0,0-1,1v9H13a9,9,0,0,1-2.6-17.62.987.987,0,0,0,.71-.82A11.007,11.007,0,0,1,22,16c.16,0,.31.01.46.02l.2.01a.974.974,0,0,0,.95-.53,13.985,13.985,0,0,1,26.15,3.98.994.994,0,0,0,.77.79A12.053,12.053,0,0,1,60,32Z"></path><circle cx="39" cy="47" r="1"></circle><rect x="21" y="36" width="22" height="1"></rect><circle cx="35" cy="47" r="1"></circle><path d="M21,52H43V42H21Zm14-8a2.981,2.981,0,0,1,2,.78,3,3,0,1,1,0,4.44A3,3,0,1,1,35,44ZM23,48h6v2H23Z"></path></g></svg>