<svg xmlns="http://www.w3.org/2000/svg" viewBox="0 0 64 64" x="0px" y="0px"><g data-name="Data Center-Server-Cloud-Network-Technology"><rect x="23" y="34" width="2" height="2"></rect><rect x="27" y="35" width="2" height="2"></rect><rect x="23" y="41" width="2" height="2"></rect><rect x="27" y="42" width="2" height="2"></rect><rect x="26" y="27" width="12" height="2"></rect><rect x="47" y="12" width="2" height="2"></rect><rect x="43" y="12" width="2" height="2"></rect><path d="M58,22H56a4,4,0,0,1-4,4v2A6.006,6.006,0,0,0,58,22Z"></path><path d="M8,37a3,3,0,1,0-3,3A3,3,0,0,0,8,37ZM4,37a1,1,0,1,1,1,1A1,1,0,0,1,4,37Z"></path><path d="M8,46a3,3,0,1,0,3,3A3,3,0,0,0,8,46Zm0,4a1,1,0,1,1,1-1A1,1,0,0,1,8,50Z"></path><path d="M52,32a10,10,0,0,0,.93-19.96A6.992,6.992,0,0,0,46,6a6.923,6.923,0,0,0-4.05,1.29,11.993,11.993,0,0,0-21.53,3.6A7,7,0,0,0,10.08,16H10a8,8,0,0,0,0,16H20v4H10v2H20v4H14a1.033,1.033,0,0,0-.71.29l-3,3,1.42,1.42L14.41,44h6.24A8.381,8.381,0,0,0,25,46.93v2.66l-2.71,2.7,1.42,1.42,3-3A1.033,1.033,0,0,0,27,50V47.49a24.31,24.31,0,0,0,4,.49V54h2V47.98a24.31,24.31,0,0,0,4-.49V50a1.033,1.033,0,0,0,.29.71l3,3,1.42-1.42L39,49.59V46.93A8.381,8.381,0,0,0,43.35,44h6.24l2.7,2.71,1.42-1.42-3-3A1.033,1.033,0,0,0,50,42H44V38H54V36H44V32ZM42,42c0,1.89-4.28,4-10,4s-10-2.11-10-4V38.41C24.11,39.99,27.73,41,32,41s7.89-1.01,10-2.59Zm0-7c0,1.89-4.28,4-10,4s-10-2.11-10-4V31.41C24.11,32.99,27.73,34,32,34s7.89-1.01,10-2.59ZM32,32c-5.72,0-10-2.11-10-4s4.28-4,10-4,10,2.11,10,4S37.72,32,32,32Zm0-10c-6.84,0-12,2.58-12,6v2H10a6,6,0,0,1,0-12,4.842,4.842,0,0,1,.84.07,1.056,1.056,0,0,0,.81-.27A1.1,1.1,0,0,0,12,17a5,5,0,0,1,8.42-3.65,1,1,0,0,0,1.67-.61A9.992,9.992,0,0,1,40.82,9.29a.982.982,0,0,0,.74.52,1.028,1.028,0,0,0,.86-.29A4.946,4.946,0,0,1,46,8a5,5,0,0,1,5,5,1,1,0,0,0,1,1,8,8,0,0,1,0,16H44V28C44,24.58,38.84,22,32,22Z"></path><path d="M59,34a3,3,0,1,0,3,3A3,3,0,0,0,59,34Zm0,4a1,1,0,1,1,1-1A1,1,0,0,1,59,38Z"></path><path d="M56,46a3,3,0,1,0,3,3A3,3,0,0,0,56,46Zm0,4a1,1,0,1,1,1-1A1,1,0,0,1,56,50Z"></path><path d="M44,53a3,3,0,1,0,3,3A3,3,0,0,0,44,53Zm0,4a1,1,0,1,1,1-1A1,1,0,0,1,44,57Z"></path><path d="M32,56a3,3,0,1,0,3,3A3,3,0,0,0,32,56Zm0,4a1,1,0,1,1,1-1A1,1,0,0,1,32,60Z"></path><path d="M20,53a3,3,0,1,0,3,3A3,3,0,0,0,20,53Zm0,4a1,1,0,1,1,1-1A1,1,0,0,1,20,57Z"></path></g></svg>