<svg xmlns="http://www.w3.org/2000/svg" viewBox="0 0 64 64" x="0px" y="0px"><g data-name="Online Order-Tablet"><path d="M57,8H13a5.006,5.006,0,0,0-5,5V28.08A7,7,0,0,0,2,35V61a1,1,0,0,0,1,1H15a1,1,0,0,0,1-1V56.889a7.031,7.031,0,0,1,.739-3.131l1.522-3.044A7.028,7.028,0,0,0,19,47.583V46.79a4.988,4.988,0,0,1,.07-.79H38.184A2.966,2.966,0,0,0,38,47v9a1,1,0,0,0,.143.515l3,5A1,1,0,0,0,42,62H57a1,1,0,0,0,.929-.628l2-5A1.012,1.012,0,0,0,60,56V47a2.981,2.981,0,0,0-.52-1.685A4.983,4.983,0,0,0,62,41V13A5.006,5.006,0,0,0,57,8ZM10,13a3,3,0,0,1,3-3H50V42.184a2.809,2.809,0,0,0-2,0V37a3,3,0,0,0-6,0v7H19.571l1.465-5.468a3,3,0,1,0-5.8-1.553l-1.153,4.3a1,1,0,0,1-.966.732.98.98,0,0,1-.835-.48L10,37.723V13Zm7,33.79v.793a5.036,5.036,0,0,1-.528,2.237L14.95,52.864A9.05,9.05,0,0,0,14,56.889V60H4V35a5.008,5.008,0,0,1,4-4.9V38a1,1,0,0,0,.143.515l2.429,4.048A2.969,2.969,0,0,0,13.1,44.014,3.011,3.011,0,0,0,16.02,41.8l1.153-4.3a1,1,0,1,1,1.931.518l-1.865,6.964A6.978,6.978,0,0,0,17,46.79ZM58,47v8.808L56.323,60H42.566L40,55.723V47a1,1,0,0,1,2,0v6h2V37a1,1,0,0,1,2,0V49h2V45a1,1,0,0,1,2,0v4h2V46a1,1,0,0,1,2,0v3h2V47a1,1,0,0,1,2,0Zm2-6a3,3,0,0,1-3,3H55.22A2.919,2.919,0,0,0,52,43.184V10h5a3,3,0,0,1,3,3Z"></path><path d="M56,24a3,3,0,1,0,3,3A3,3,0,0,0,56,24Zm0,4a1,1,0,1,1,1-1A1,1,0,0,1,56,28Z"></path><path d="M19,31h.219l.621,2.485A2,2,0,0,0,21.781,35H38.219a2,2,0,0,0,1.94-1.515L40.78,31H41a3,3,0,0,0,0-6H39.788a10.988,10.988,0,0,0-7.116-5.664A2.964,2.964,0,0,0,33,18a3,3,0,0,0-6,0,2.964,2.964,0,0,0,.328,1.336A10.988,10.988,0,0,0,20.212,25H19a3,3,0,0,0,0,6Zm19.219,2H21.781l-.5-2H38.719ZM29,18a1,1,0,1,1,1,1A1,1,0,0,1,29,18Zm1,3a8.981,8.981,0,0,1,7.46,4H22.54A8.98,8.98,0,0,1,30,21ZM19,27H41a1,1,0,0,1,0,2H19a1,1,0,0,1,0-2Z"></path></g></svg>