<svg xmlns="http://www.w3.org/2000/svg" viewBox="0 0 64 64" x="0px" y="0px"><g data-name="Financial-Credit Card-Payment"><path d="M52,47.816A2.966,2.966,0,0,1,51,48H21a3,3,0,0,1-3-3V27a3,3,0,0,1,3-3h4.168L52,17.311V7a4.971,4.971,0,0,1,1.025-3H13a3,3,0,0,0-3,3V52H45a1,1,0,0,1,1,1v4a3,3,0,0,0,6,0ZM30,12h6v2H30Zm-6,0h4v2H24Zm0,4H36v2H24ZM16,40H12V38h4Zm0-4H12V34h4Zm0-4H12V30h4Zm0-4H12V26h4ZM14,16h2a1,1,0,0,0,1,1h2a1,1,0,0,0,0-2H17a3,3,0,0,1,0-6V8h2V9a3,3,0,0,1,3,3H20a1,1,0,0,0-1-1H17a1,1,0,0,0,0,2h2a3,3,0,0,1,0,6v1H17V19A3,3,0,0,1,14,16Z"></path><circle cx="43" cy="31" r="1"></circle><rect x="24" y="30" width="4" height="2"></rect><circle cx="47" cy="31" r="1"></circle><path d="M4,54v3a3,3,0,0,0,3,3H45a4.987,4.987,0,0,1-1-3V54Z"></path><path d="M54,29.18l3.359-.839-.968-3.878-3,.748A2.974,2.974,0,0,1,54,27Z"></path><path d="M55.18,19.612a1.014,1.014,0,0,0-.458-.619.972.972,0,0,0-.747-.113L33.435,24H49.987l5.919-1.478Z"></path><path d="M57,4a2.994,2.994,0,0,0-3,3v3h6V7A3,3,0,0,0,57,4Z"></path><path d="M59.538,37.064l-1.694-6.782L54,31.241V39.49l4.808-1.2A1.007,1.007,0,0,0,59.538,37.064Z"></path><path d="M52,40.77V27a1,1,0,0,0-1-1H21a1,1,0,0,0-1,1V45a1,1,0,0,0,1,1H51a1,1,0,0,0,1-1ZM38,38h2v2H38ZM22,29a1,1,0,0,1,1-1h6a1,1,0,0,1,1,1v4a1,1,0,0,1-1,1H23a1,1,0,0,1-1-1Zm6,9v2H26V38Zm-6,0h2v2H22Zm8,6H22V42h8Zm0-6h2v2H30Zm6,6H32V42h4Zm0-4H34V38h2Zm8,4H38V42h6Zm0-4H42V38h2Zm3-6a2.981,2.981,0,0,1-2-.78,3,3,0,1,1,0-4.44A3,3,0,1,1,47,34Z"></path></g></svg>