<svg xmlns="http://www.w3.org/2000/svg" viewBox="0 0 64 64" x="0px" y="0px"><g><rect x="21" y="40" width="8" height="2"></rect><rect x="21" y="44" width="8" height="2"></rect><rect x="21" y="48" width="8" height="2"></rect><rect x="21" y="52" width="8" height="2"></rect><rect x="35" y="40" width="8" height="2"></rect><rect x="35" y="44" width="8" height="2"></rect><rect x="35" y="48" width="8" height="2"></rect><rect x="35" y="52" width="8" height="2"></rect><path d="M50,22H48a3,3,0,0,1-3,3v2A5.006,5.006,0,0,0,50,22Z"></path><rect x="41" y="25" width="2" height="2"></rect><path d="M29,8V6a7.008,7.008,0,0,0-7,7h2A5.006,5.006,0,0,1,29,8Z"></path><polygon points="57 52 55 52 55 54 53 54 53 56 55 56 55 58 57 58 57 56 59 56 59 54 57 54 57 52"></polygon><polygon points="53 8 55 8 55 6 57 6 57 4 55 4 55 2 53 2 53 4 51 4 51 6 53 6 53 8"></polygon><polygon points="11 8 11 6 13 6 13 4 11 4 11 2 9 2 9 4 7 4 7 6 9 6 9 8 11 8"></polygon><rect x="55" y="46" width="2" height="4"></rect><rect x="55" y="42" width="2" height="2"></rect><rect x="55" y="38" width="2" height="2"></rect><rect x="58" y="19" width="2" height="4"></rect><rect x="58" y="15" width="2" height="2"></rect><rect x="58" y="11" width="2" height="2"></rect><rect x="3.999" y="18.995" width="2" height="4"></rect><rect x="4" y="14.995" width="2" height="2"></rect><rect x="4.001" y="10.995" width="2" height="2"></rect><polygon points="7 52 5 52 5 54 3 54 3 56 5 56 5 58 7 58 7 56 9 56 9 54 7 54 7 52"></polygon><rect x="5" y="46" width="2" height="4"></rect><rect x="5" y="42" width="2" height="2"></rect><rect x="5" y="38" width="2" height="2"></rect><path d="M44,35a2.006,2.006,0,0,0,2-2V30.94a8.995,8.995,0,0,0,1-17.71V13a7.008,7.008,0,0,0-7-7,6.775,6.775,0,0,0-2.23.37A11,11,0,0,0,18,13v.06a9,9,0,0,0,0,17.88V33a2.006,2.006,0,0,0,2,2h1v1H18a1,1,0,0,0-1,1v3H14a1,1,0,0,0-1,1V61a1,1,0,0,0,1,1H50a1,1,0,0,0,1-1V41a1,1,0,0,0-1-1H47V37a1,1,0,0,0-1-1H43V35ZM17,60H15V42h2ZM47,42h2V60H47ZM19,29a7,7,0,1,1,.05-14,1,1,0,0,0,.74-.33,1.036,1.036,0,0,0,.26-.77c-.03-.3-.05-.6-.05-.9A8.99,8.99,0,0,1,36.56,8.14a1.011,1.011,0,0,0,1.28.36A4.984,4.984,0,0,1,45,13a5.532,5.532,0,0,1-.08.88,1.006,1.006,0,0,0,.18.77,1.029,1.029,0,0,0,.69.4A7,7,0,0,1,45,29Zm1,4V31h7v5H23V35a2.006,2.006,0,0,0-2-2ZM19,60V58h9a3.014,3.014,0,0,1,2.83,2Zm12-2.97A4.924,4.924,0,0,0,28,56H19V38h9a3.009,3.009,0,0,1,3,3Zm1-19a4.977,4.977,0,0,0-3-1.93V31h6v5.1A4.977,4.977,0,0,0,32,38.03ZM45,60H33.17A3.014,3.014,0,0,1,36,58h9Zm0-22V56H36a4.924,4.924,0,0,0-3,1.03V41a3.009,3.009,0,0,1,3-3Zm-4-3v1H37V31h7v2H43A2.006,2.006,0,0,0,41,35Z"></path></g></svg>