<svg xmlns="http://www.w3.org/2000/svg" viewBox="0 0 64 64" x="0px" y="0px"><g data-name="Parking Sign"><path d="M42,2H22a3,3,0,0,0-3,3V25a3,3,0,0,0,3,3h7V42.184A3,3,0,0,0,27,45V60H21v2H43V60H37V45a3,3,0,0,0-2-2.816V28h7a3,3,0,0,0,3-3V5A3,3,0,0,0,42,2ZM30,44h4a1,1,0,0,1,1,1V56H29V45A1,1,0,0,1,30,44ZM29,60V58h6v2Zm4-18H31V28h2ZM43,25a1,1,0,0,1-1,1H22a1,1,0,0,1-1-1V5a1,1,0,0,1,1-1H42a1,1,0,0,1,1,1Z"></path><path d="M33,6H27a1,1,0,0,0-1,1V24h2V16h5A5,5,0,0,0,33,6Zm0,8H28V8h5a3,3,0,0,1,0,6Z"></path></g></svg>