<svg xmlns="http://www.w3.org/2000/svg" viewBox="0 0 64 64" x="0px" y="0px"><g><path d="M17.71,12H13v4.71A6.96,6.96,0,0,0,17.71,12Z"></path><path d="M20.44,32.44a3.47,3.47,0,0,1,.31-.44H13v2h6.54Z"></path><polygon points="18.38 36 13 36 13 38 17.23 38 18.38 36"></polygon><path d="M13,25.29V30h4.71A6.96,6.96,0,0,0,13,25.29Z"></path><path d="M52,10a1,1,0,0,1,1,1v4h2V8H9v7h2V11a1,1,0,0,1,1-1Z"></path><path d="M56,17H53v2h5V4H6V19h5V17H8a1,1,0,0,1-1-1V7A1,1,0,0,1,8,6H56a1,1,0,0,1,1,1v9A1,1,0,0,1,56,17Z"></path><path d="M51,16.71V12H46.29A6.96,6.96,0,0,0,51,16.71Z"></path><path d="M27.86,34H51V32H27.07A3.971,3.971,0,0,1,27.86,34Z"></path><path d="M51,36H27.56a3.434,3.434,0,0,1-.19.44L26.46,38H51Z"></path><path d="M21.14,57.49l1.58-2.63A9,9,0,0,0,24,50.23v-1.3a9.149,9.149,0,0,0-.64-3.35l-1.29-3.21a1.023,1.023,0,0,1,.06-.87l3.5-6.06a2,2,0,1,0-3.46-2l-5,8.66-1.73-1,.63-1.1H12a1,1,0,0,1-1-1V35.89a14.938,14.938,0,0,0-1.43,8.22l1.42,12.78a1.075,1.075,0,0,1-.01.31L10.02,62H21V58A1,1,0,0,1,21.14,57.49Z"></path><circle cx="32" cy="21" r="5"></circle><path d="M51,23.23V18.77A8.968,8.968,0,0,1,44.22,12H19.78A8.968,8.968,0,0,1,13,18.77v4.46A8.968,8.968,0,0,1,19.78,30H44.22A8.968,8.968,0,0,1,51,23.23ZM32,28a7,7,0,1,1,7-7A7.008,7.008,0,0,1,32,28Z"></path><path d="M51,25.29A6.96,6.96,0,0,0,46.29,30H51Z"></path></g></svg>