<svg xmlns="http://www.w3.org/2000/svg" viewBox="0 0 64 64" x="0px" y="0px"><g data-name="Manufacturing-Communicate-App-Internet of Things-Smartphone"><path d="M22,48a5,5,0,1,0,5,5A5.006,5.006,0,0,0,22,48Zm0,8a3,3,0,1,1,3-3A3,3,0,0,1,22,56Z"></path><path d="M13.75,45.732l-1.5-1.322A12.974,12.974,0,0,0,9,53h2A10.983,10.983,0,0,1,13.75,45.732Z"></path><path d="M9.181,55.166a12.983,12.983,0,0,0,.562,2.168l1.885-.668a10.964,10.964,0,0,1-.476-1.832Z"></path><rect x="21" y="52" width="2" height="2"></rect><rect x="33" y="52" width="2" height="2"></rect><path d="M34,40a3,3,0,1,0-3-3A3,3,0,0,0,34,40Zm0-4a1,1,0,1,1-1,1A1,1,0,0,1,34,36Z"></path><path d="M50,12a3,3,0,1,0-3-3A3,3,0,0,0,50,12Zm0-4a1,1,0,1,1-1,1A1,1,0,0,1,50,8Z"></path><path d="M10,12A3,3,0,1,0,7,9,3,3,0,0,0,10,12Zm0-4A1,1,0,1,1,9,9,1,1,0,0,1,10,8Z"></path><path d="M46.465,43.465l1.414,1.414a3.072,3.072,0,0,1,4.242,0l1.414-1.414a5,5,0,0,0-7.07,0Z"></path><path d="M43.636,40.636,45.05,42.05a7.009,7.009,0,0,1,9.9,0l1.414-1.414A9.012,9.012,0,0,0,43.636,40.636Z"></path><path d="M48.586,46.586,50,48l1.414-1.414A2,2,0,0,0,48.586,46.586Z"></path><path d="M57,26H46.12l5.96-10.32A7,7,0,1,0,45.11,4H14.89A6.992,6.992,0,1,0,5.34,14.21,4.95,4.95,0,0,0,5,16v2a1,1,0,0,0-1,1v3H3a1,1,0,0,0-1,1v6a1,1,0,0,0,1,1H4v4a1.033,1.033,0,0,0,.29.71l3,3,1.42-1.42L6,33.59V30h8v3.59l-2.71,2.7,1.42,1.42,3-3A1.033,1.033,0,0,0,16,34V30h1a1,1,0,0,0,1-1V23a1,1,0,0,0-1-1H16V19a1,1,0,0,0-1-1V16a4.95,4.95,0,0,0-.34-1.79c.08-.07.16-.14.23-.21H41.52l-9.4,16.26A6.99,6.99,0,0,0,29,41.89V44H22a9,9,0,1,0,0,18H57a5,5,0,0,0,5-5V31A5,5,0,0,0,57,26ZM50,4a5,5,0,1,1-5,5A5,5,0,0,1,50,4ZM16,24v4H4V24Zm-2-4v2H6V20ZM7,18V16a2.745,2.745,0,0,1,.09-.64,6.936,6.936,0,0,0,5.82,0A2.745,2.745,0,0,1,13,16v2Zm3-4a5,5,0,1,1,5-5A5,5,0,0,1,10,14Zm6.31-2a6.867,6.867,0,0,0,0-6H43.69A6.884,6.884,0,0,0,43,9a6.963,6.963,0,0,0,.28,1.95L42.67,12ZM34,32a4.959,4.959,0,0,1,4,2.02v5.96A5,5,0,1,1,34,32Zm3,11.31V44H31v-.69a6.867,6.867,0,0,0,6,0ZM22,60a7,7,0,0,1,0-14H38v4.03a5,5,0,1,0,0,5.94V57a4.924,4.924,0,0,0,1.03,3Zm15-7a3,3,0,1,1-3-3A3.009,3.009,0,0,1,37,53Zm1-22v.26a7.11,7.11,0,0,0-3.44-1.23L44.34,13.1a6.985,6.985,0,0,0,5.26,2.88L43.81,26H43A5,5,0,0,0,38,31ZM60,57a3.009,3.009,0,0,1-3,3H43a3.009,3.009,0,0,1-3-3V54H60Zm0-5H40V34H60Zm0-20H40V31a3.009,3.009,0,0,1,3-3H57a3.009,3.009,0,0,1,3,3Z"></path><rect x="49" y="56" width="2" height="2"></rect></g></svg>