<svg xmlns="http://www.w3.org/2000/svg" viewBox="0 0 64 64" x="0px" y="0px"><g data-name="Pipe-Four Way-Water-Gas-Oil"><path d="M61,24H54a3.009,3.009,0,0,0-3-3H47a3.009,3.009,0,0,0-3,3H40V20a3.009,3.009,0,0,0,3-3V13a3.009,3.009,0,0,0-3-3V3a1,1,0,0,0-1-1H25a1,1,0,0,0-1,1v7a3.009,3.009,0,0,0-3,3v4a3.009,3.009,0,0,0,3,3v4H20a3.009,3.009,0,0,0-3-3H13a3.009,3.009,0,0,0-3,3H3a1,1,0,0,0-1,1V39a1,1,0,0,0,1,1h7a3.009,3.009,0,0,0,3,3h4a3.009,3.009,0,0,0,3-3h4v4a3.009,3.009,0,0,0-3,3v4a3.009,3.009,0,0,0,3,3v7a1,1,0,0,0,1,1H39a1,1,0,0,0,1-1V54a3.009,3.009,0,0,0,3-3V47a3.009,3.009,0,0,0-3-3V40h4a3.009,3.009,0,0,0,3,3h4a3.009,3.009,0,0,0,3-3h7a1,1,0,0,0,1-1V25A1,1,0,0,0,61,24ZM10,38H4V26h6Zm8,2a1,1,0,0,1-1,1H13a1,1,0,0,1-1-1V24a1,1,0,0,1,1-1h4a1,1,0,0,1,1,1ZM26,4H38v6H26ZM23,17V13a1,1,0,0,1,1-1H40a1,1,0,0,1,1,1v4a1,1,0,0,1-1,1H24A1,1,0,0,1,23,17ZM38,60H26V54H38Zm3-13v4a1,1,0,0,1-1,1H24a1,1,0,0,1-1-1V47a1,1,0,0,1,1-1H40A1,1,0,0,1,41,47Zm3-9H39a1,1,0,0,0-1,1v5H26V39a1,1,0,0,0-1-1H20V26h5a1,1,0,0,0,1-1V20H38v5a1,1,0,0,0,1,1h5Zm8,2a1,1,0,0,1-1,1H47a1,1,0,0,1-1-1V24a1,1,0,0,1,1-1h4a1,1,0,0,1,1,1Zm8-2H54V26h6Z"></path></g></svg>