<svg xmlns="http://www.w3.org/2000/svg" viewBox="0 0 64 64" x="0px" y="0px"><g data-name="Solar Energy"><path d="M48,23a7,7,0,1,0-7-7A7.008,7.008,0,0,0,48,23Zm0-12a5,5,0,1,1-5,5A5.006,5.006,0,0,1,48,11Z"></path><path d="M19,58h6a1,1,0,0,0,1-1V53a1,1,0,0,0-1-1H19a1,1,0,0,0-1,1v4A1,1,0,0,0,19,58Zm1-4h4v2H20Z"></path><path d="M9,16h9a4,4,0,1,0-1.091-7.85A4,4,0,0,0,9.126,8,4,4,0,1,0,9,16Zm0-6a1.977,1.977,0,0,1,.678.129,1,1,0,0,0,1.339-1C11.016,9.1,11,9.025,11,9a2,2,0,1,1,3.889.615,1,1,0,0,0,1.672,1A1.979,1.979,0,0,1,18,10a2,2,0,0,1,0,4H9a2,2,0,0,1,0-4Z"></path><path d="M55,42H52a1,1,0,0,1-1-1V39a3,3,0,0,0-3-3H45V26.494l2.167,3.26a1,1,0,0,0,1.666,0l3-4.508,5.308,1.068a1,1,0,0,0,1.177-1.177l-1.068-5.308,4.508-3a1,1,0,0,0,0-1.666l-4.508-3,1.068-5.307a1,1,0,0,0-1.177-1.178L51.829,6.754l-3-4.508a1.038,1.038,0,0,0-1.666,0l-3,4.508L38.863,5.686a1,1,0,0,0-1.177,1.177l1.068,5.308-4.508,3a1,1,0,0,0,0,1.666l4.508,3L38.719,20H14a1,1,0,0,0-1,1V34H7a1,1,0,0,0-.929.628l-4,10A1,1,0,0,0,3,46H4V61a1,1,0,0,0,1,1H29a1,1,0,0,0,1-1V46h1a1,1,0,0,0,.929-1.372L30.877,42H44a1,1,0,0,0,1-1V38h3a1,1,0,0,1,1,1v2a3,3,0,0,0,3,3h3a5,5,0,0,1,0,10H42a3,3,0,0,0-3-3H35a1,1,0,0,0-1,1H32v2h2v2H32v2h2a1,1,0,0,0,1,1h4a3,3,0,0,0,3-3H55a7,7,0,0,0,0-14ZM15,35h6v5H15Zm13-8H23V22h5Zm2-5h5v5H30Zm-2,7v4H23V29Zm-7,4H15V29h6Zm2,2h5v5H23Zm7,0h5v5H30Zm0-2V29h5v4Zm7-4h6v4H37Zm-.394-13,3.815-2.535a1,1,0,0,0,.427-1.03l-.905-4.492,4.492.9a1,1,0,0,0,1.03-.427L48,4.606,50.535,8.42a1,1,0,0,0,1.03.427l4.492-.9-.905,4.492a1,1,0,0,0,.427,1.03L59.394,16l-3.815,2.535a1,1,0,0,0-.427,1.03l.905,4.492-4.492-.9a1,1,0,0,0-1.03.427L48,27.394,45.465,23.58a1,1,0,0,0-1.03-.427l-4.492.9.905-4.492a1,1,0,0,0-.427-1.03Zm1.353,10.041a1,1,0,0,0,.9.273L43,25.482V27H37V22h1.317l-.631,3.136A1,1,0,0,0,37.959,26.041ZM21,22v5H15V22ZM14,60H10V54h4Zm14,0H16V53a1,1,0,0,0-1-1H9a1,1,0,0,0-1,1v7H6V46H28Zm1.523-16H4.477l3.2-8H13v5a1,1,0,0,0,1,1H28.723ZM37,40V35h6v5Zm3,16a1,1,0,0,1-1,1H36V53h3a1,1,0,0,1,1,1Z"></path></g></svg>