<svg xmlns="http://www.w3.org/2000/svg" viewBox="0 0 64 64" x="0px" y="0px"><g data-name="Money Exchange"><path d="M19,32A13,13,0,1,0,32,19,13.015,13.015,0,0,0,19,32ZM32,21A11,11,0,1,1,21,32,11.013,11.013,0,0,1,32,21Z"></path><path d="M32,37a2,2,0,0,1-2-2H28a4,4,0,0,0,3,3.858V41h2V38.858A3.992,3.992,0,0,0,32,31a2,2,0,1,1,2-2h2a4,4,0,0,0-3-3.858V23H31v2.142A3.992,3.992,0,0,0,32,33a2,2,0,0,1,0,4Z"></path><path d="M28.6,48.2A1,1,0,0,0,27,49v1.336a19.006,19.006,0,0,1-3.009-35.568,1,1,0,0,0,.411-1.462l-3.36-5.04a1,1,0,0,0-1.286-.336A26.9,26.9,0,0,0,5,32,27.178,27.178,0,0,0,27,58.534V61a1,1,0,0,0,1.6.8l8-6a1,1,0,0,0,0-1.6ZM29,59V57.69a1,1,0,0,0-.848-.988A25.152,25.152,0,0,1,7,32,24.9,24.9,0,0,1,19.88,10.128l2.229,3.345A21,21,0,0,0,27.8,52.58a1.016,1.016,0,0,0,.832-.206A1,1,0,0,0,29,51.6V51l5.333,4Z"></path><path d="M37,5.466V3a1,1,0,0,0-1.6-.8l-8,6a1,1,0,0,0,0,1.6l8,6A1,1,0,0,0,37,15V13.664a19,19,0,0,1,2.6,35.749,1,1,0,0,0-.442,1.458l3.28,5.1a1,1,0,0,0,.842.459,1.01,1.01,0,0,0,.433-.1A27,27,0,0,0,37,5.466Zm6.635,48.667L41.459,50.75A21,21,0,0,0,36.2,11.42a1,1,0,0,0-1.2.98V13L29.667,9,35,5V6.31a1,1,0,0,0,.848.988A25.152,25.152,0,0,1,57,32,24.806,24.806,0,0,1,43.635,54.133Z"></path></g></svg>