<svg xmlns="http://www.w3.org/2000/svg" viewBox="0 0 64 64" x="0px" y="0px"><g data-name="Scale-Weight-Smartphone-Internet of Things-Sync"><circle cx="54" cy="10" r="2"></circle><path d="M60,9a5,5,0,0,0-5-5H19a5,5,0,0,0-5,5V26H29v2H24.97A4.924,4.924,0,0,1,26,31v1h6v2H26v4h3v2H26V50H55a5,5,0,0,0,5-5ZM20,14a4,4,0,1,1,4-4A4,4,0,0,1,20,14Zm10,4a3,3,0,0,1-3-3V11a3,3,0,0,1,3-3H44a3,3,0,0,1,3,3v4a3,3,0,0,1-3,3Zm23,8v2H45V26ZM38,46H36V22h2Zm15-6H45V38h8Zm3-6H42V32H56ZM54,14a4,4,0,1,1,4-4A4,4,0,0,1,54,14Z"></path><circle cx="20" cy="10" r="2"></circle><rect x="29" y="10" width="16" height="6" rx="1"></rect><path d="M24,54H4v3a3.009,3.009,0,0,0,3,3H21a3.009,3.009,0,0,0,3-3Zm-9,4H13V56h2Z"></path><path d="M24,34H4V52H24ZM14,48l-1.414-1.414a2,2,0,0,1,2.828,0Zm2.122-3.122a3.006,3.006,0,0,0-4.244,0l-1.414-1.414a5.008,5.008,0,0,1,7.072,0ZM18.95,42.05a7,7,0,0,0-9.9,0L7.636,40.636a9,9,0,0,1,12.728,0Z"></path><path d="M24,31a3.009,3.009,0,0,0-3-3H7a3.009,3.009,0,0,0-3,3v1H24Z"></path></g></svg>