<svg xmlns="http://www.w3.org/2000/svg" viewBox="0 0 64 64" x="0px" y="0px"><g data-name="Files"><path d="M35.2,8.4a1.036,1.036,0,0,1,1.6,0L38,10V4H34v6Z"></path><path d="M50,15V5a1,1,0,0,0-1-1H45.816A2.966,2.966,0,0,1,46,5V15Z"></path><path d="M53,23H52v1h4V5a1,1,0,0,0-1-1H51.816A2.966,2.966,0,0,1,52,5V15h1a1,1,0,0,1,1,1v6A1,1,0,0,1,53,23Z"></path><path d="M5,60H43a1,1,0,0,0,1-1V5a1,1,0,0,0-1-1H40v9a1,1,0,0,1-.684.949A1.019,1.019,0,0,1,39,14a1,1,0,0,1-.8-.4L36,10.667,33.8,13.6A1,1,0,0,1,32,13V4H5A1,1,0,0,0,4,5V59A1,1,0,0,0,5,60ZM40,48H32V46h8Zm0-10H30V36H40ZM24,34V32h6v2Zm16,0H32V32h8Zm0-8H30V24H40Zm0-6v2H24V20ZM14,10H26v2H14ZM8,10h4v2H8Zm0,4H28v2H8Zm0,6H22v2H8Zm0,4H28v2H8Zm0,4H40v2H8Zm0,4H22v2H8Zm0,4H28v2H8Zm0,4H40v2H8Z"></path><rect x="52" y="26" width="8" height="4"></rect><path d="M46,59a2.966,2.966,0,0,1-.184,1H49a1,1,0,0,0,1-1V23H46Z"></path><rect x="46" y="17" width="6" height="4"></rect><path d="M56,59V32H52V59a2.966,2.966,0,0,1-.184,1H55A1,1,0,0,0,56,59Z"></path></g></svg>