<svg xmlns="http://www.w3.org/2000/svg" viewBox="0 0 64 64" x="0px" y="0px"><g><path d="M53.812,37.583,41.337,21.642A11.05,11.05,0,0,1,39,14.863V11.9A5,5,0,0,0,38,2H26a5,5,0,0,0-1,9.9v2.964a11.05,11.05,0,0,1-2.337,6.779L10.187,37.583A15.064,15.064,0,0,0,7,46.827V49A13.015,13.015,0,0,0,20,62H44A13.015,13.015,0,0,0,57,49V46.827A15.058,15.058,0,0,0,53.812,37.583ZM23,7a3,3,0,0,1,3-3H38a3,3,0,0,1,0,6H26A3,3,0,0,1,23,7Zm1.237,15.875A13.056,13.056,0,0,0,27,14.863V12H37v2.863a13.056,13.056,0,0,0,2.763,8.012l7.168,9.159a8.68,8.68,0,0,0-5.152,2.174,6.77,6.77,0,0,1-9.179,0,8.738,8.738,0,0,0-11.61,0A6.6,6.6,0,0,1,16.4,36a6.464,6.464,0,0,1-2.17-.338ZM55,49A11.013,11.013,0,0,1,44,60H20A11.013,11.013,0,0,1,9,49V46.827a13.053,13.053,0,0,1,2.762-8.012l1.191-1.522A8.14,8.14,0,0,0,16.4,38a8.539,8.539,0,0,0,5.809-2.207,6.763,6.763,0,0,1,9.171,0,8.747,8.747,0,0,0,11.618,0A6.619,6.619,0,0,1,47.6,34a7.545,7.545,0,0,1,.915.057l3.723,4.758A13.053,13.053,0,0,1,55,46.827Z"></path><rect x="18" y="52" width="2" height="2"></rect><rect x="26" y="47" width="2" height="2"></rect><rect x="37" y="50" width="2" height="2"></rect><rect x="45" y="55" width="2" height="2"></rect><rect x="42" y="43" width="2" height="2"></rect><rect x="20" y="40" width="2" height="2"></rect><rect x="33" y="40" width="2" height="2"></rect><rect x="30" y="54" width="2" height="2"></rect><rect x="34" y="26" width="2" height="2"></rect><rect x="29" y="23" width="2" height="2"></rect><rect x="25" y="28" width="2" height="2"></rect></g></svg>