<svg xmlns="http://www.w3.org/2000/svg" viewBox="0 0 64 64" x="0px" y="0px"><g><polygon points="56.912 51 53.088 51 55 55.461 56.912 51"></polygon><rect x="53" y="20" width="4" height="29"></rect><rect x="53" y="17" width="4" height="1"></rect><rect x="53" y="11" width="4" height="4"></rect><polygon points="45 6 39 6 39 8 37 8 37 6 33 6 33 8 31 8 31 6 27 6 27 8 25 8 25 6 21 6 21 8 19 8 19 6 15 6 15 8 13 8 13 6 7 6 7 12 45 12 45 6"></polygon><path d="M7,60H45V14H7Zm4-42H41v2H11Zm0,6H41v2H11Zm0,6H41v2H11Zm0,6H41v2H11Zm0,6H41v2H11Zm0,6H41v2H11Zm0,6H41v2H11Z"></path><rect x="25" y="2" width="2" height="2"></rect><rect x="31" y="2" width="2" height="2"></rect><rect x="37" y="2" width="2" height="2"></rect><rect x="19" y="2" width="2" height="2"></rect><rect x="13" y="2" width="2" height="2"></rect></g></svg>