<svg xmlns="http://www.w3.org/2000/svg" viewBox="0 0 64 64" x="0px" y="0px"><title>Bow Ribbon</title><g data-name="Bow Ribbon"><path d="M60,11H47a10.929,10.929,0,0,0-7.777,3.223c-.15.15-.284.3-.421.458a9.972,9.972,0,0,0-13.6,0c-.137-.153-.27-.307-.42-.457A10.929,10.929,0,0,0,17,11H4a2,2,0,0,0-2,2V31a2,2,0,0,0,2,2H17c.344,0,.685-.03,1.025-.062L10.2,46.757a1,1,0,0,0,.811,1.491l8.43.5L24.1,55.8a1,1,0,0,0,.834.449h.034a1,1,0,0,0,.836-.507L31.94,44.9,38.2,55.75a1,1,0,0,0,.836.5h.03A1,1,0,0,0,39.9,55.8l4.655-7.052,8.43-.5a1,1,0,0,0,.807-1.5l-7.98-13.82A11.366,11.366,0,0,0,47,33H60a2,2,0,0,0,2-2V13A2,2,0,0,0,60,11ZM32,14a8.007,8.007,0,0,1,8,8,7.839,7.839,0,0,1-.614,3.053,5.887,5.887,0,0,1-.412.855,7.727,7.727,0,0,1-.866,1.254l0,0a7.995,7.995,0,0,1-12.217-.006A8.081,8.081,0,0,1,24,22a8.006,8.006,0,0,1,8-8ZM4,31V13H17a8.941,8.941,0,0,1,6.362,2.637q.271.271.506.549A9.952,9.952,0,0,0,22.054,21H11a1,1,0,0,0,0,2H22.053a9.487,9.487,0,0,0,.589,2.5,9.634,9.634,0,0,0,1.212,2.3A8.99,8.99,0,0,1,17,31ZM24.865,53.335l-4.031-6.106a1,1,0,0,0-.775-.447l-7.329-.435,7.919-13.984A11,11,0,0,0,25.2,29.315a9.741,9.741,0,0,0,1.613,1.229A9.961,9.961,0,0,0,32,32c.333,0,.663-.022.991-.054.1-.01.194-.024.291-.037.238-.031.475-.069.709-.117.1-.02.2-.039.294-.062.278-.065.552-.141.823-.23.039-.013.079-.022.118-.035.308-.106.61-.228.906-.363.079-.036.155-.076.233-.114.221-.107.437-.222.65-.346.085-.049.169-.1.253-.151q.342-.213.668-.454c.047-.035.1-.067.145-.1.018-.014.037-.026.055-.039L31.06,42.387a.154.154,0,0,1-.008.019Zm19.076-6.553a1,1,0,0,0-.775.447l-4.039,6.12L33.084,42.878l6.987-12.342a11.107,11.107,0,0,0,3.062,1.748l8.121,14.064ZM60,31H47a9,9,0,0,1-2.85-.457,9.094,9.094,0,0,1-3.612-2.289c-.136-.14-.271-.292-.4-.452a8.984,8.984,0,0,0,.581-.909,7.644,7.644,0,0,0,.528-1.1A9.725,9.725,0,0,0,41.95,23H53a1,1,0,0,0,0-2H41.946a9.945,9.945,0,0,0-1.814-4.814q.234-.277.505-.549A8.945,8.945,0,0,1,47,13H60Z"></path></g></svg>