<svg xmlns="http://www.w3.org/2000/svg" viewBox="0 0 64 64" x="0px" y="0px"><g data-name="Market Trends-Trend-Analysis-Market-Graph"><polygon points="57 59 57 28 49 28 49 59 43 59 43 46 35 46 35 59 29 59 29 40 21 40 21 59 15 59 15 48 7 48 7 59 2 59 2 61 62 61 62 59 57 59"></polygon><path d="M37,15a1,1,0,0,1-1,1H25a1,1,0,0,0,0,2h9a1,1,0,0,1,0,2H25a1,1,0,0,0,0,2h5a1,1,0,0,1,0,2H16.24l-3.79-1.89A1,1,0,0,0,12,22H3V11h9.27a1.094,1.094,0,0,0,.5-.13L23.96,4.4a1.01,1.01,0,0,1,1.37.37.988.988,0,0,1-.37,1.36l-3.46,2A1,1,0,0,0,21,9a3.009,3.009,0,0,1-3,3H17v2h1a5,5,0,0,0,4.88-4H34a1,1,0,0,1,0,2H25a1,1,0,0,0,0,2H36A1,1,0,0,1,37,15Z"></path><path d="M53,7a7.986,7.986,0,0,0-5.2,14.062l-8.234,14a2.92,2.92,0,0,0-2.768.909L27.98,32.19c0-.064.02-.125.02-.19a3,3,0,0,0-6,0,2.828,2.828,0,0,0,.071.522l-9.117,5.21A2.994,2.994,0,1,0,14,40a2.828,2.828,0,0,0-.071-.522l9.117-5.21A2.976,2.976,0,0,0,27.2,34.03l8.821,3.78c0,.064-.02.125-.02.19a3,3,0,0,0,6,0,2.958,2.958,0,0,0-.713-1.915l8.189-13.922A7.993,7.993,0,1,0,53,7Zm-1,7h2a3,3,0,0,1,0,6v1H52V20a3.009,3.009,0,0,1-3-3h2a1,1,0,0,0,1,1h2a1,1,0,0,0,0-2H52a3,3,0,0,1,0-6V9h2v1a3.009,3.009,0,0,1,3,3H55a1,1,0,0,0-1-1H52a1,1,0,0,0,0,2Z"></path></g></svg>