<svg xmlns="http://www.w3.org/2000/svg" viewBox="0 0 64 64" x="0px" y="0px"><g data-name="Space Robot"><path d="M61.632,60.226C55.6,55.3,45.894,51.911,36.073,51.16A2.988,2.988,0,0,0,37,49V42h3a1,1,0,0,0,.949-.684l2-6A1,1,0,0,0,43,35V32h4.382A3.98,3.98,0,0,0,53,26.382V17a2.972,2.972,0,0,0-.619-1.8A3.984,3.984,0,0,0,54,12H52a2,2,0,0,1-4,0H46a3.984,3.984,0,0,0,1.619,3.2A2.972,2.972,0,0,0,47,17v9H43V25a1,1,0,0,0-1-1H37V22a3,3,0,0,0,3-3h3a1,1,0,0,0,1-1V12a1,1,0,0,0-1-1H40a3,3,0,0,0-2-2.816V4.5a2.5,2.5,0,0,0-5,0V8H31V4.5a2.5,2.5,0,0,0-5,0V8.184A3,3,0,0,0,24,11H21a1,1,0,0,0-1,1v6a1,1,0,0,0,1,1h3a3,3,0,0,0,3,3v2H22a1,1,0,0,0-1,1v1H17V17a2.972,2.972,0,0,0-.619-1.8A3.984,3.984,0,0,0,18,12H16a2,2,0,0,1-4,0H10a3.984,3.984,0,0,0,1.619,3.2A2.972,2.972,0,0,0,11,17v9.382A3.98,3.98,0,0,0,16.618,32H21v3a1,1,0,0,0,.051.316l2,6A1,1,0,0,0,24,42h3v7a2.988,2.988,0,0,0,.927,2.16C18.106,51.911,8.4,55.3,2.368,60.226A1,1,0,0,0,3,62H61a1,1,0,0,0,.632-1.774ZM50,31a2,2,0,1,1,2-2A2,2,0,0,1,50,31Zm1-14v8.142a3.592,3.592,0,0,0-2,0V17a1,1,0,0,1,2,0ZM46.142,28a3.592,3.592,0,0,0,0,2H43V28ZM34,20H30V18h4Zm8-7v4H40V13ZM35,4.5a.5.5,0,0,1,1,0V8H35ZM28.5,4a.5.5,0,0,1,.5.5V8H28V4.5A.5.5,0,0,1,28.5,4ZM22,17V13h2v4Zm4,2V11a1,1,0,0,1,1-1H37a1,1,0,0,1,1,1v8a1,1,0,0,1-1,1H36V18a2,2,0,0,0-2-2H30a2,2,0,0,0-2,2v2H27A1,1,0,0,1,26,19Zm3,3h6v2H29Zm12,4v6H37V29a1,1,0,0,0-1-1H28a1,1,0,0,0-1,1v3H23V26Zm-6,4v4H29V30ZM15,17v8.142a3.592,3.592,0,0,0-2,0V17a1,1,0,0,1,2,0ZM14,31a2,2,0,1,1,2-2A2,2,0,0,1,14,31Zm3.858-1a3.592,3.592,0,0,0,0-2H21v2ZM23,34.838V34h4v1a1,1,0,0,0,1,1h8a1,1,0,0,0,1-1V34h4v.838L39.279,40H24.721ZM35,42v1H33v2h2v2H33v2h2a1,1,0,0,1-1,1H30a1,1,0,0,1-1-1h2V47H29V45h2V43H29V42ZM19,60a1,1,0,0,1,2,0Zm14,0H23a3,3,0,0,0-6,0H6.08c6.655-4.308,16.456-7,25.92-7s19.265,2.692,25.92,7Z"></path><rect x="28" y="12" width="2" height="2"></rect><rect x="34" y="12" width="2" height="2"></rect><path d="M36,57a3,3,0,1,0-3,3A3,3,0,0,0,36,57Zm-3,1a1,1,0,1,1,1-1A1,1,0,0,1,33,58Z"></path><path d="M44,58a1,1,0,0,1,1,1h2a3,3,0,0,0-6,0h2A1,1,0,0,1,44,58Z"></path><polygon points="53 42 53 44 55 44 55 46 57 46 57 44 59 44 59 42 57 42 57 40 55 40 55 42 53 42"></polygon><polygon points="4 8 6 8 6 6 8 6 8 4 6 4 6 2 4 2 4 4 2 4 2 6 4 6 4 8"></polygon><rect x="10" y="4" width="2" height="2"></rect><rect x="14" y="4" width="2" height="2"></rect><rect x="18" y="4" width="2" height="2"></rect><rect x="55" y="48" width="2" height="2"></rect><rect x="55" y="52" width="2" height="2"></rect><rect x="59" y="6" width="2" height="2"></rect><rect x="59" y="10" width="2" height="2"></rect><rect x="59" y="14" width="2" height="2"></rect><rect x="6" y="35" width="2" height="2"></rect><rect x="10" y="35" width="2" height="2"></rect><rect x="14" y="35" width="2" height="2"></rect><path d="M4,47a3,3,0,1,0,3-3A3,3,0,0,0,4,47Zm4,0a1,1,0,1,1-1-1A1,1,0,0,1,8,47Z"></path></g></svg>