<svg xmlns="http://www.w3.org/2000/svg" viewBox="0 0 64 64" x="0px" y="0px"><g><path d="M46.69,39.3l-6.52-2.04A5.02,5.02,0,0,0,37,35.1V32.73a10.411,10.411,0,0,0,5.3-7.46L42.85,22H43a4,4,0,0,0,0-8V13a11.064,11.064,0,0,0-3.48-8.03,10.948,10.948,0,0,0-8.25-2.95A11.21,11.21,0,0,0,21,13.34v.68a4.073,4.073,0,0,0-3.99,3.68A4,4,0,0,0,21,22h.15l.55,3.27A10.411,10.411,0,0,0,27,32.73V35.1a5.02,5.02,0,0,0-3.17,2.16L17.31,39.3A8.941,8.941,0,0,0,11,47.88V61a1,1,0,0,0,1,1H52a1,1,0,0,0,1-1V47.88A8.941,8.941,0,0,0,46.69,39.3ZM43,16a2.006,2.006,0,0,1,2,2,2.015,2.015,0,0,1-2,2ZM21,20a1.983,1.983,0,0,1-1.41-.59,1.941,1.941,0,0,1-.58-1.56A2.077,2.077,0,0,1,21,16.02ZM39,40v1.17a3.026,3.026,0,0,0-2,0v-4A3.014,3.014,0,0,1,39,40ZM31.4,4.02A8.994,8.994,0,0,1,40.94,12H39V8a1,1,0,0,0-1-1H26a1,1,0,0,0-1,1v4H23.1A9.141,9.141,0,0,1,31.4,4.02ZM23.12,21.65A9.232,9.232,0,0,1,23,20.17V14h3a1,1,0,0,0,1-1V9H37v4a1,1,0,0,0,1,1h3v6.17a9.232,9.232,0,0,1-.12,1.48l-.02.11-6.7-1.35a11.214,11.214,0,0,0-4.32,0l-6.7,1.35Zm2.82,7.8a8.531,8.531,0,0,1-1.35-1.85l5.52-.61-.22-1.98-6.06.67a6.084,6.084,0,0,1-.16-.74l-.2-1.21,6.77-1.36a9.065,9.065,0,0,1,3.52,0l6.77,1.36-.2,1.21a6.084,6.084,0,0,1-.16.74l-6.06-.67-.22,1.98,5.52.61a8.531,8.531,0,0,1-1.35,1.85l-3.95-.44-.22,1.98,1.74.2a8.539,8.539,0,0,1-7.26,0l1.74-.2-.22-1.98ZM32,40a3.009,3.009,0,0,1-3-3V33.56a10.447,10.447,0,0,0,6,0V37A3.009,3.009,0,0,1,32,40Zm2.13,1.51L32,45.76l-2.13-4.25a4.874,4.874,0,0,0,4.26,0ZM25,40a3.014,3.014,0,0,1,2-2.83v4a3.026,3.026,0,0,0-2,0ZM19,60H13V52.13l6,.75Zm32,0H45V52.88l6-.75Zm0-9.88-6,.75V47H43V60H21V47H19v3.87l-6-.75V47.88a6.964,6.964,0,0,1,4.91-6.68l5.13-1.6c-.01.13-.04.26-.04.4v4a1,1,0,0,0,2,0,1,1,0,0,1,2,0,.992.992,0,0,0,1.97.17l2.14,4.28a1,1,0,0,0,1.78,0l2.14-4.28A.992.992,0,0,0,37,44a1,1,0,0,1,2,0,1,1,0,0,0,2,0V40c0-.14-.03-.27-.04-.4l5.13,1.6A6.964,6.964,0,0,1,51,47.88Z"></path><circle cx="28" cy="17" r="2"></circle><circle cx="36" cy="17" r="2"></circle><rect x="31" y="51" width="2" height="2"></rect><rect x="31" y="55" width="2" height="2"></rect></g></svg>