<svg xmlns="http://www.w3.org/2000/svg" viewBox="0 0 64 64" x="0px" y="0px"><g data-name="Car Sensor"><path d="M51.707,34.293a1,1,0,0,1,0,1.414l1.414,1.415a3,3,0,0,0,0-4.244Z"></path><path d="M55.95,30.05l-1.414,1.414a5.008,5.008,0,0,1,0,7.072L55.95,39.95A7.009,7.009,0,0,0,55.95,30.05Z"></path><path d="M58.778,27.222l-1.414,1.414a9.01,9.01,0,0,1,0,12.728l1.414,1.414A11.012,11.012,0,0,0,58.778,27.222Z"></path><path d="M46,27H37.48l-7.1-8.875A2.988,2.988,0,0,0,28.039,17h-13a3.005,3.005,0,0,0-2.459,1.279L6.479,27H4a2,2,0,0,0-2,2V41a2,2,0,0,0,2,2H7.09a5.993,5.993,0,0,0,11.82,0H31.09a5.993,5.993,0,0,0,11.82,0H46a2,2,0,0,0,2-2V29A2,2,0,0,0,46,27ZM26,23h5.72l3.2,4H26Zm-2,4H13.869l2.666-4H24ZM13,46a4,4,0,1,1,4-4A4,4,0,0,1,13,46Zm0-10a6.006,6.006,0,0,0-5.91,5H4V29H6.479a2,2,0,0,0,1.639-.853l6.1-8.72a1,1,0,0,1,.82-.427h13a1,1,0,0,1,.781.375L30.12,21H16a1,1,0,0,0-.832.445l-4,6A1,1,0,0,0,12,29H24V41H18.91A6.006,6.006,0,0,0,13,36ZM37,46a4,4,0,1,1,4-4A4,4,0,0,1,37,46Zm5.91-5a5.993,5.993,0,0,0-11.82,0H26V29H46v2H43a1,1,0,0,0-1,1v4a1,1,0,0,0,1,1h3v4ZM46,33v2H44V33Z"></path><rect x="28" y="31" width="4" height="2"></rect><rect x="12" y="31" width="4" height="2"></rect><rect x="12" y="41" width="2" height="2"></rect><rect x="36" y="41" width="2" height="2"></rect></g></svg>