<svg xmlns="http://www.w3.org/2000/svg" viewBox="0 0 64 64" x="0px" y="0px"><g data-name="Mobile Phone-Conversation-Communications-Vintage-Telephone"><rect x="18" y="30" width="2" height="2"></rect><path d="M13,24H25a1,1,0,0,0,1-1V13a1,1,0,0,0-1-1H13a1,1,0,0,0-1,1V23A1,1,0,0,0,13,24Zm1-9a1,1,0,0,1,1-1h4v2H16v3H14Z"></path><polygon points="54.15 60 54.82 56 9.18 56 9.85 60 54.15 60"></polygon><rect x="38" y="30" width="16" height="6"></rect><path d="M60,53V27a1,1,0,0,0-1-1H32V47a3.009,3.009,0,0,1-3,3H9a3.009,3.009,0,0,1-3-3V26H5a1,1,0,0,0-1,1V53a1,1,0,0,0,1,1H59A1,1,0,0,0,60,53ZM42,50H38V48h4Zm0-4H38V44h4Zm0-4H38V40h4Zm6,8H44V48h4Zm0-4H44V44h4Zm0-4H44V40h4Zm6,8H50V48h4Zm0-4H50V44h4Zm0-4H50V40h4Zm2-5a1,1,0,0,1-1,1H37a1,1,0,0,1-1-1V29a1,1,0,0,1,1-1H55a1,1,0,0,1,1,1Z"></path><path d="M8,47a1,1,0,0,0,1,1H29a1,1,0,0,0,1-1V5a1,1,0,0,0-1-1H9A1,1,0,0,0,8,5Zm7-1H11V44h4Zm0-4H11V40h4Zm0-4H11V36h4Zm6,8H17V44h4Zm0-4H17V40h4Zm0-4H17V36h4Zm1-5a1,1,0,0,1-1,1H17a1,1,0,0,1-1-1V29a1,1,0,0,1,1-1h4a1,1,0,0,1,1,1Zm5,13H23V44h4Zm0-4H23V40h4Zm0-4H23V36h4Zm1-4H24V32h4Zm0-4H24V28h4ZM16,6h6V8H16Zm-6,7a3,3,0,0,1,3-3H25a3,3,0,0,1,3,3V23a3,3,0,0,1-3,3H13a3,3,0,0,1-3-3Zm0,15h4v2H10Zm0,4h4v2H10Z"></path></g></svg>