<svg xmlns="http://www.w3.org/2000/svg" viewBox="0 0 64 64" x="0px" y="0px"><g><rect x="23" y="14" width="2" height="2"></rect><rect x="27" y="15" width="2" height="2"></rect><rect x="23" y="21" width="2" height="2"></rect><rect x="27" y="22" width="2" height="2"></rect><rect x="26" y="7" width="12" height="2"></rect><path d="M11,46v2a3.959,3.959,0,0,0,.6,2.074A5.969,5.969,0,0,0,9,55v2a1,1,0,0,0,1,1H20a1,1,0,0,0,1-1V55a5.969,5.969,0,0,0-2.6-4.926A3.959,3.959,0,0,0,19,48V46a4,4,0,0,0-8,0Zm8,10H11V55a3.988,3.988,0,0,1,2.088-3.509,3.846,3.846,0,0,0,3.824,0A3.988,3.988,0,0,1,19,55ZM17,46v2a2,2,0,0,1-4,0V46a2,2,0,0,1,4,0Z"></path><path d="M52.4,50.074A3.959,3.959,0,0,0,53,48V46a4,4,0,0,0-8,0v2a3.959,3.959,0,0,0,.6,2.074A5.965,5.965,0,0,0,43,55v2a1,1,0,0,0,1,1H54a1,1,0,0,0,1-1V55A5.965,5.965,0,0,0,52.4,50.074ZM47,46a2,2,0,0,1,4,0v2a2,2,0,0,1-4,0Zm6,10H45V55a3.985,3.985,0,0,1,2.088-3.508,3.852,3.852,0,0,0,3.824,0A3.985,3.985,0,0,1,53,55Z"></path><path d="M50,38.05V33a1,1,0,0,0-1-1H34.82A3.035,3.035,0,0,0,33,30.18v-2.2c6.34-.24,11-2.73,11-5.98V8c0-3.42-5.16-6-12-6S20,4.58,20,8V22c0,3.25,4.66,5.74,11,5.98v2.2A3.035,3.035,0,0,0,29.18,32H15a1,1,0,0,0-1,1v5.05a12,12,0,1,0,2,0V34H29.18a2.988,2.988,0,0,0,5.64,0H48v4.05a12,12,0,1,0,2,0ZM25,50A10,10,0,1,1,15,40,10.016,10.016,0,0,1,25,50ZM32,4c5.72,0,10,2.11,10,4s-4.28,4-10,4S22,9.89,22,8,26.28,4,32,4ZM22,11.41C24.11,12.99,27.73,14,32,14s7.89-1.01,10-2.59V15c0,1.89-4.28,4-10,4s-10-2.11-10-4ZM22,22V18.41C24.11,19.99,27.73,21,32,21s7.89-1.01,10-2.59V22c0,1.89-4.28,4-10,4S22,23.89,22,22ZM32,34a1,1,0,1,1,1-1A1,1,0,0,1,32,34ZM49,60A10,10,0,1,1,59,50,10.016,10.016,0,0,1,49,60Z"></path></g></svg>