<svg xmlns="http://www.w3.org/2000/svg" viewBox="0 0 64 64" x="0px" y="0px"><g><path d="M59,36H36V33H49a1,1,0,0,0,1-1V27.98c6.34-.24,11-2.73,11-5.98V8c0-3.42-5.16-6-12-6S37,4.58,37,8V22c0,3.25,4.66,5.74,11,5.98V31H35a1,1,0,0,0-1,1v4H30V32a1,1,0,0,0-1-1H16V27.98c6.34-.24,11-2.73,11-5.98V8c0-3.42-5.16-6-12-6S3,4.58,3,8V22c0,3.25,4.66,5.74,11,5.98V32a1,1,0,0,0,1,1H28v3H5a3.009,3.009,0,0,0-3,3V57a3.009,3.009,0,0,0,3,3H7v2H9V51a1,1,0,0,1,2,0v3a1,1,0,0,0,2,0V50a1,1,0,0,1,2,0v4a1,1,0,0,0,2,0V49a1,1,0,0,1,2,0v5a1,1,0,0,0,2,0V49a1,1,0,0,1,2,0v8a1,1,0,0,0,.74.97,1.022,1.022,0,0,0,1.13-.47l2-3.46a.99.99,0,0,1,1.36-.37,1.01,1.01,0,0,1,.37,1.37L24.87,61.5l1.73,1L28.04,60h7.92l1.44,2.5,1.73-1L35.4,55.04a1.01,1.01,0,0,1,.37-1.37.99.99,0,0,1,1.36.37l2,3.46a1.022,1.022,0,0,0,1.13.47A1,1,0,0,0,41,57V49a1,1,0,0,1,2,0v5a1,1,0,0,0,2,0V49a1,1,0,0,1,2,0v5a1,1,0,0,0,2,0V50a1,1,0,0,1,2,0v4a1,1,0,0,0,2,0V51a1,1,0,0,1,2,0V62h2V60h2a3.009,3.009,0,0,0,3-3V39A3.009,3.009,0,0,0,59,36ZM49,4c5.72,0,10,2.11,10,4s-4.28,4-10,4S39,9.89,39,8,43.28,4,49,4ZM39,11.41C41.11,12.99,44.73,14,49,14s7.89-1.01,10-2.59V15c0,1.89-4.28,4-10,4s-10-2.11-10-4ZM39,22V18.41C41.11,19.99,44.73,21,49,21s7.89-1.01,10-2.59V22c0,1.89-4.28,4-10,4S39,23.89,39,22ZM15,4c5.72,0,10,2.11,10,4s-4.28,4-10,4S5,9.89,5,8,9.28,4,15,4ZM5,11.41C7.11,12.99,10.73,14,15,14s7.89-1.01,10-2.59V15c0,1.89-4.28,4-10,4S5,16.89,5,15ZM5,22V18.41C7.11,19.99,10.73,21,15,21s7.89-1.01,10-2.59V22c0,1.89-4.28,4-10,4S5,23.89,5,22ZM60,57a1,1,0,0,1-1,1H57V51a3.009,3.009,0,0,0-3-3,2.934,2.934,0,0,0-1.47.39A3,3,0,0,0,50,47a2.934,2.934,0,0,0-1.47.39A3,3,0,0,0,46,46a2.965,2.965,0,0,0-2,.77A2.965,2.965,0,0,0,42,46a3.009,3.009,0,0,0-3,3v4.27l-.13-.23a3,3,0,1,0-5.2,3L34.8,58H29.2l1.13-1.96a3,3,0,0,0-5.2-3l-.13.23V49a3.009,3.009,0,0,0-3-3,2.965,2.965,0,0,0-2,.77A2.965,2.965,0,0,0,18,46a3,3,0,0,0-2.53,1.39A2.934,2.934,0,0,0,14,47a3,3,0,0,0-2.53,1.39A2.934,2.934,0,0,0,10,48a3.009,3.009,0,0,0-3,3v7H5a1,1,0,0,1-1-1V39a1,1,0,0,1,1-1H59a1,1,0,0,1,1,1Z"></path><rect x="9" y="40" width="2" height="2"></rect><rect x="13" y="40" width="2" height="2"></rect><rect x="17" y="40" width="2" height="2"></rect><rect x="21" y="40" width="2" height="2"></rect><rect x="25" y="40" width="2" height="2"></rect><rect x="29" y="40" width="2" height="2"></rect><rect x="33" y="40" width="2" height="2"></rect><rect x="37" y="40" width="2" height="2"></rect><rect x="49" y="44" width="2" height="2"></rect><rect x="37" y="44" width="2" height="2"></rect><rect x="25" y="44" width="2" height="2"></rect><rect x="13" y="44" width="2" height="2"></rect><rect x="41" y="40" width="2" height="2"></rect><rect x="45" y="40" width="2" height="2"></rect><rect x="49" y="40" width="2" height="2"></rect><rect x="53" y="40" width="2" height="2"></rect><rect x="9" y="44" width="2" height="2"></rect><rect x="29" y="44" width="2" height="2"></rect><rect x="33" y="44" width="2" height="2"></rect><rect x="29" y="48" width="2" height="2"></rect><rect x="33" y="48" width="2" height="2"></rect><rect x="53" y="44" width="2" height="2"></rect><rect x="6" y="14" width="2" height="2"></rect><rect x="10" y="15" width="2" height="2"></rect><rect x="6" y="21" width="2" height="2"></rect><rect x="10" y="22" width="2" height="2"></rect><rect x="9" y="7" width="12" height="2"></rect><rect x="40" y="14" width="2" height="2"></rect><rect x="44" y="15" width="2" height="2"></rect><rect x="40" y="21" width="2" height="2"></rect><rect x="44" y="22" width="2" height="2"></rect><rect x="43" y="7" width="12" height="2"></rect></g></svg>