<svg xmlns="http://www.w3.org/2000/svg" viewBox="0 0 64 64" x="0px" y="0px"><g><path d="M7,22a7.008,7.008,0,0,0,7,7h7V27a3,3,0,0,1,3-3H46.708a7,7,0,0,0-5.92-8.957,1,1,0,0,1-.873-1.167A4.961,4.961,0,0,0,35,8a4.879,4.879,0,0,0-2.152.5,1,1,0,0,1-1.279-.358A9,9,0,0,0,15,13c0,.309.019.61.046.91a1,1,0,0,1-1,1.09A7.019,7.019,0,0,0,7,22Zm14-9h2v2H21Zm-4,0h2v2H17ZM16,25h2v2H16Zm-2,0v2a5.006,5.006,0,0,1-5-5h2A3,3,0,0,0,14,25Z"></path><path d="M43.97,52.757,44.781,56H56.523l-3.2-8H22.677l-3.2,8H31.219l.811-3.243A1,1,0,0,1,33,52H43A1,1,0,0,1,43.97,52.757Z"></path><path d="M23,27V46H53V27a1,1,0,0,0-1-1H24A1,1,0,0,0,23,27Zm18.293,5.707,1.414-1.414,4,4a1,1,0,0,1,0,1.414l-4,4-1.414-1.414L44.586,36Zm-3.263-.95,1.94.486-2,8-1.94-.486Zm-8.737,3.536,4-4,1.414,1.414L31.414,36l3.293,3.293-1.414,1.414-4-4A1,1,0,0,1,29.293,35.293Z"></path><polygon points="33.281 56 42.719 56 42.219 54 33.781 54 33.281 56"></polygon><rect x="19" y="58" width="38" height="2"></rect></g></svg>