<svg xmlns="http://www.w3.org/2000/svg" viewBox="0 0 64 64" x="0px" y="0px"><g><path d="M37,29.08v6.506l4.6,4.6A6.978,6.978,0,0,0,37,29.08Z"></path><path d="M53,26H46a3,3,0,0,1-3-3V16H37v2a1,1,0,0,1-1,1H19V57a3,3,0,0,0,3,3H50a3,3,0,0,0,3-3ZM25,48H21V46h4Zm0-3H21V43h4Zm0-15H21V28h4Zm0-3H21V25h4Zm7.245,17.169-2.538,2.538A1,1,0,0,1,29,47H27V45h1.586l1.9-1.9a8.962,8.962,0,0,1-1.278-12.987L27.52,28H27V26h1a1,1,0,0,1,.781.375l1.9,2.379a9,9,0,1,1,1.561,15.415ZM40,48v2H38V48Zm8,6H38V52H48Zm0-4H42V48h6Zm3-15H47V33h4Zm0-3H47V30h4Z"></path><path d="M29.08,37a6.994,6.994,0,0,0,2.834,4.672l1.379-1.379,1.414,1.414-.926.926a6.927,6.927,0,0,0,6.4-1.035l-4.6-4.6Z"></path><path d="M35,29.08a6.941,6.941,0,0,0-3.068,1.235l.849,1.06-1.562,1.25-.735-.919A6.95,6.95,0,0,0,29.08,35H35Z"></path><path d="M8,49a5.006,5.006,0,0,0,5,5h4V19H14a1,1,0,0,1-1-1V16c0-4.242,3.793-4.885,6-4.982V10H13a5.006,5.006,0,0,0-5,5Z"></path><path d="M51.586,24,45,17.414V23a1,1,0,0,0,1,1Z"></path><path d="M35,16c0-1.8-.85-3-5-3a1,1,0,0,1-1-1V7a3,3,0,0,0-3-3H24a3,3,0,0,0-3,3v5a1,1,0,0,1-1,1c-4.15,0-5,1.2-5,3v1H35ZM25,11a3,3,0,1,1,3-3A3,3,0,0,1,25,11Z"></path><circle cx="25" cy="8" r="1"></circle><path d="M36.644,14H41.9A5.009,5.009,0,0,0,37,10H31v1.018C32.8,11.1,35.651,11.54,36.644,14Z"></path></g></svg>