<svg xmlns="http://www.w3.org/2000/svg" viewBox="0 0 64 64" x="0px" y="0px"><g data-name="Online Lesson-Lesson-Smartphone-Books-Learning"><path d="M11,20H4v2h9.83A3.014,3.014,0,0,0,11,20Z"></path><path d="M26,4H19a3.009,3.009,0,0,0-3,3V19.03A4.924,4.924,0,0,1,19,18h7ZM24,16H18V14h6Zm0-4H18V10h6Zm0-4H18V6h6Z"></path><path d="M16.17,22H26V20H19A3.014,3.014,0,0,0,16.17,22Z"></path><path d="M11,4H4V18h7a4.924,4.924,0,0,1,3,1.03V7A3.009,3.009,0,0,0,11,4Zm1,12H6V14h6Zm0-4H6V10h6Zm0-4H6V6h6Z"></path><path d="M45,20H38v2h9.83A3.014,3.014,0,0,0,45,20Z"></path><path d="M50.17,22H60V20H53A3.014,3.014,0,0,0,50.17,22Z"></path><path d="M45,4H38V18h7a4.924,4.924,0,0,1,3,1.03V7A3.009,3.009,0,0,0,45,4Zm1,12H40V14h6Zm0-4H40V10h6Zm0-4H40V6h6Z"></path><path d="M60,4H53a3.009,3.009,0,0,0-3,3V19.03A4.924,4.924,0,0,1,53,18h7ZM58,16H52V14h6Zm0-4H52V10h6Zm0-4H52V6h6Z"></path><path d="M40,37a3,3,0,0,0-3-3H27a3,3,0,0,0-3,3V57a3,3,0,0,0,3,3H37a3,3,0,0,0,3-3ZM26,38V36h2v2Zm3,10H27V46h2Zm5,10H30V56h4ZM31,48V46h2v2Zm3-10H30V36h4Zm3,10H35V46h2Z"></path><path d="M48,39.586l-3.707,3.707,1.414,1.414,4-4A1,1,0,0,0,50,40V26H48Z"></path><path d="M16,26H14V40a1,1,0,0,0,.293.707l4,4,1.414-1.414L16,39.586Z"></path><rect x="52" y="38" width="2" height="2"></rect><rect x="52" y="34" width="2" height="2"></rect><rect x="52" y="30" width="2" height="2"></rect><rect x="10" y="38" width="2" height="2"></rect><rect x="10" y="34" width="2" height="2"></rect><rect x="10" y="30" width="2" height="2"></rect></g></svg>