<svg xmlns="http://www.w3.org/2000/svg" viewBox="0 0 64 64" x="0px" y="0px"><g><rect x="40" y="52" width="4" height="4"></rect><polygon points="31 12.32 29.46 13 31 13.68 31 12.32"></polygon><rect x="40" y="46" width="4" height="4"></rect><polygon points="35 15.46 35 10.54 33 11.43 33 14.57 35 15.46"></polygon><rect x="40" y="40" width="4" height="4"></rect><rect x="37" y="10" width="13" height="2"></rect><rect x="37" y="14" width="13" height="2"></rect><rect x="46" y="52" width="4" height="4"></rect><path d="M4,57a3.009,3.009,0,0,0,3,3H34.18A3,3,0,0,1,34,59V25a3.009,3.009,0,0,1,3-3H48V18H36a.978.978,0,0,1-.41-.09l-9-4a1,1,0,0,1,0-1.82l9-4A.978.978,0,0,1,36,8H48V7a3.009,3.009,0,0,0-3-3H7A3.009,3.009,0,0,0,4,7ZM8,19h2a1,1,0,0,1,.832.445l.821,1.232,2.389-7.964A1,1,0,0,1,15,12h9v2H15.744l-2.786,9.287a1,1,0,0,1-.811.7A1.028,1.028,0,0,1,12,24a1,1,0,0,1-.832-.445L9.465,21H8Zm15.535,3.121-1.414,1.414L20,21.414l-2.121,2.121-1.414-1.414L18.586,20l-2.121-2.121,1.414-1.414L20,18.586l2.121-2.121,1.414,1.414L21.414,20ZM8,28H30v2H8Zm0,4H30v2H8Zm0,4H30v2H8Zm0,4H30v2H8Zm0,4H30v2H8Zm0,4H30v2H8Z"></path><path d="M59,10H56v6h3a1,1,0,0,0,1-1V11A1,1,0,0,0,59,10Z"></path><rect x="52" y="10" width="2" height="6"></rect><rect x="46" y="40" width="4" height="4"></rect><rect x="46" y="46" width="4" height="4"></rect><rect x="52" y="40" width="4" height="4"></rect><path d="M40,34H56V28H40Zm11-4h2v2H51Zm-4,0h2v2H47Zm-4,0h2v2H43Z"></path><rect x="52" y="46" width="4" height="4"></rect><path d="M60,59V25a1,1,0,0,0-1-1H37a1,1,0,0,0-1,1V59a1,1,0,0,0,1,1H59A1,1,0,0,0,60,59Zm-2-3a2.006,2.006,0,0,1-2,2H40a2.006,2.006,0,0,1-2-2V40a2.006,2.006,0,0,1,2-2H56a2.006,2.006,0,0,1,2,2Zm0-22a2,2,0,0,1-2,2H40a2,2,0,0,1-2-2V28a2,2,0,0,1,2-2H56a2,2,0,0,1,2,2Z"></path><rect x="52" y="52" width="4" height="4"></rect></g></svg>