<svg xmlns="http://www.w3.org/2000/svg" viewBox="0 0 64 64" x="0px" y="0px"><g><path d="M24,25H40a2,2,0,0,0,2-2V15a2,2,0,0,0-2-2H36.781l-.621-2.485A2,2,0,0,0,34.219,9H29.781a2,2,0,0,0-1.941,1.515L27.219,13H24a2,2,0,0,0-2,2v8A2,2,0,0,0,24,25Zm0-10h3.219a2,2,0,0,0,1.941-1.515L29.781,11h4.438l.621,2.485A2,2,0,0,0,36.781,15H40v8H24Z"></path><path d="M32,14a4,4,0,1,0,4,4A4,4,0,0,0,32,14Zm0,6a2,2,0,1,1,2-2A2,2,0,0,1,32,20Z"></path><path d="M46,44H34a2,2,0,0,0-2,2v6a2,2,0,0,0,2,2H46a2,2,0,0,0,2-2V46A2,2,0,0,0,46,44ZM34,52V46H46v6Z"></path><path d="M53.816,60A2.966,2.966,0,0,0,54,59V39.577A4.981,4.981,0,0,0,56.9,36H58a1,1,0,0,0,1-1A18.895,18.895,0,0,0,47.989,17.781a15.99,15.99,0,0,0-31.977-.009A18.937,18.937,0,0,0,5,35a1,1,0,0,0,1,1H7.1A4.977,4.977,0,0,0,10,39.581V59a2.966,2.966,0,0,0,.184,1H4v2H60V60Zm3.155-26H56a1,1,0,0,0-1,1,2.994,2.994,0,0,1-2.271,2.907A2.634,2.634,0,0,1,52,38a3,3,0,0,1-3-3V31A14.939,14.939,0,0,0,47,23.53a15.8,15.8,0,0,0,.875-3.591A16.934,16.934,0,0,1,56.971,34ZM23,31.218V35a3,3,0,0,1-6,0V31a12.953,12.953,0,0,1,1.07-5.156A16.1,16.1,0,0,0,23,31.218Zm2,1.147a15.852,15.852,0,0,0,6,1.584V35a3,3,0,0,1-6,0Zm8,1.584a15.852,15.852,0,0,0,6-1.584V35a3,3,0,0,1-6,0Zm8-2.731a16.1,16.1,0,0,0,4.93-5.374A12.953,12.953,0,0,1,47,31v4a3,3,0,0,1-6,0ZM32,4A14,14,0,1,1,18,18,14.015,14.015,0,0,1,32,4ZM9,35a1,1,0,0,0-1-1H7.029a16.941,16.941,0,0,1,9.1-14.066,15.847,15.847,0,0,0,.876,3.6A14.939,14.939,0,0,0,15,31v4a3,3,0,0,1-3,3,2.7,2.7,0,0,1-.753-.1A2.987,2.987,0,0,1,9,35ZM26,60H18V47a1,1,0,0,1,1-1h6a1,1,0,0,1,1,1Zm2,0V47a3,3,0,0,0-3-3H19a3,3,0,0,0-3,3V60H13a1,1,0,0,1-1-1V40a4.982,4.982,0,0,0,4-2.031,4.954,4.954,0,0,0,8,0,4.954,4.954,0,0,0,8,0,4.954,4.954,0,0,0,8,0,4.954,4.954,0,0,0,8,0A4.982,4.982,0,0,0,52,40V59a1,1,0,0,1-1,1Z"></path><rect x="23" y="51" width="2" height="4"></rect></g></svg>