<svg xmlns="http://www.w3.org/2000/svg" viewBox="0 0 64 64" x="0px" y="0px"><g><path d="M50,54H14v3a3,3,0,0,0,3,3H47a3,3,0,0,0,3-3ZM36,58H28V56h8Z"></path><path d="M32,18A14,14,0,1,0,46,32,14.015,14.015,0,0,0,32,18Zm6,11H36V28a1,1,0,0,0-1-1H29a1,1,0,0,0-1,1v2a1,1,0,0,0,1,1h6a3,3,0,0,1,3,3v2a3,3,0,0,1-3,3H33v2H31V39H29a3,3,0,0,1-3-3V35h2v1a1,1,0,0,0,1,1h6a1,1,0,0,0,1-1V34a1,1,0,0,0-1-1H29a3,3,0,0,1-3-3V28a3,3,0,0,1,3-3h2V23h2v2h2a3,3,0,0,1,3,3Z"></path><path d="M50,12H14V52H50ZM32,48A16,16,0,1,1,48,32,16.019,16.019,0,0,1,32,48Z"></path><path d="M50,7a3,3,0,0,0-3-3H17a3,3,0,0,0-3,3v3H50ZM26,8H22V6h4ZM36,8H28V6h8Z"></path></g></svg>