<svg xmlns="http://www.w3.org/2000/svg" viewBox="0 0 64 64" x="0px" y="0px"><g data-name="Cloud-Cloud Computing-Media-Multimedia-Music"><circle cx="32" cy="53" r="3"></circle><rect x="28" y="40" width="8" height="4"></rect><path d="M50.83,20.17a1.007,1.007,0,0,1-.84-.99c0-.03.01-.14.01-.17a8.008,8.008,0,0,0-10.35-7.66.984.984,0,0,1-1.18-.48A13,13,0,0,0,14,17a12.177,12.177,0,0,0,.17,2,1.021,1.021,0,0,1-.18.74,1,1,0,0,1-.66.4A10.993,10.993,0,0,0,15,42h3V40a14,14,0,0,1,28,0v2h3a10.991,10.991,0,0,0,1.83-21.83ZM27,9a8.009,8.009,0,0,0-8,8H17A10.011,10.011,0,0,1,27,7ZM49,39V37a6.006,6.006,0,0,0,6-6h2A8.009,8.009,0,0,1,49,39Z"></path><path d="M42,44v8h3a1,1,0,0,0,1-1V45a1,1,0,0,0-1-1Z"></path><path d="M19,52h3V44H19a1,1,0,0,0-1,1v6A1,1,0,0,0,19,52Z"></path><path d="M42,37v5h2V40a12,12,0,0,0-24,0v2h2V37a3.009,3.009,0,0,1,3-3H39A3.009,3.009,0,0,1,42,37Z"></path><path d="M40,37a1,1,0,0,0-1-1H25a1,1,0,0,0-1,1V59a1,1,0,0,0,1,1H39a1,1,0,0,0,1-1ZM32,58a5,5,0,1,1,5-5A5.006,5.006,0,0,1,32,58Zm6-13a1,1,0,0,1-1,1H27a1,1,0,0,1-1-1V39a1,1,0,0,1,1-1H37a1,1,0,0,1,1,1Z"></path></g></svg>