<svg xmlns="http://www.w3.org/2000/svg" viewBox="0 0 64 64" x="0px" y="0px"><g><path d="M49,56H45v4h1a3,3,0,0,0,3-3Z"></path><path d="M21,57a3,3,0,0,0,3,3H43V26H21Zm6-27H41v2H27Zm-4,0h2v2H23Zm0,6H41v2H23Zm0,6H41v2H23Zm0,6H41v2H23Zm0,6H41v2H23Z"></path><path d="M59.94,29.17A12.272,12.272,0,0,1,47.64,40H45V25a1,1,0,0,0-1-1H20a1,1,0,0,0-1,1V40H13.3a9.226,9.226,0,0,1-9.26-8.14,9.057,9.057,0,0,1,6.36-9.48.987.987,0,0,0,.71-.82A11.007,11.007,0,0,1,22,12c.16,0,.31.01.46.02l.2.01a.99.99,0,0,0,.95-.53,13.985,13.985,0,0,1,26.15,3.98.994.994,0,0,0,.77.79A12.015,12.015,0,0,1,59.94,29.17Z"></path></g></svg>