<svg xmlns="http://www.w3.org/2000/svg" viewBox="0 0 32 32" x="0px" y="0px"><g data-name="Tablet-Download"><path d="M22.414,14l1.121-1.121-1.414-1.414-2.828,2.828a1,1,0,0,0,0,1.414l2.828,2.828,1.414-1.414L22.414,16H31V14Z"></path><path d="M26,3a1,1,0,0,0-1-1H7A1,1,0,0,0,6,3V4H26Z"></path><path d="M17.96,12.8l3.45-3.46a1.008,1.008,0,0,1,1.42,0L25.48,12H26V6H6V24H26V18h-.52l-2.65,2.66a1.008,1.008,0,0,1-1.42,0l-3.53-3.54a3.008,3.008,0,0,1-.83-2.69A3.2,3.2,0,0,1,17.96,12.8ZM12,16H10V14h2Z"></path><path d="M6,26v3a1,1,0,0,0,1,1H25a1,1,0,0,0,1-1V26Zm11,3H15V27h2Z"></path></g></svg>