<svg xmlns="http://www.w3.org/2000/svg" viewBox="0 0 64 64" x="0px" y="0px"><g data-name="Time Management"><rect x="12" y="32" width="26" height="2"></rect><rect x="12" y="36" width="6" height="2"></rect><rect x="20" y="36" width="14" height="2"></rect><rect x="36" y="36" width="12" height="2"></rect><rect x="12" y="40" width="2" height="2"></rect><rect x="16" y="40" width="10" height="2"></rect><rect x="28" y="40" width="20" height="2"></rect><rect x="12" y="44" width="22" height="2"></rect><rect x="36" y="44" width="12" height="2"></rect><rect x="12" y="48" width="36" height="2"></rect><path d="M13,30H29a1,1,0,0,0,1-1V28a7.011,7.011,0,0,0-6-6.929v-1.1A4.977,4.977,0,0,0,26,16V15a1,1,0,0,0,1-1V12a6,6,0,0,0-12,0v2a1,1,0,0,0,1,1v1a4.977,4.977,0,0,0,2,3.974v1.1A7.011,7.011,0,0,0,12,28v1A1,1,0,0,0,13,30Zm4-18a4,4,0,0,1,8,0v1h-.171a1,1,0,0,1-.708-.293l-1.414-1.414a1,1,0,0,0-1.414,0l-.829.829A3.02,3.02,0,0,1,18.343,13H17Zm1.343,3a4.966,4.966,0,0,0,3.535-1.464L22,13.414l.707.707A2.96,2.96,0,0,0,24,14.87V16a3,3,0,0,1-6,0V15ZM21,21a5,5,0,0,0,1-.1v.687l-1,1-1-1V20.9A5,5,0,0,0,21,21Zm-2.376,2.038,1.669,1.669a1,1,0,0,0,1.414,0l1.669-1.669A4.991,4.991,0,0,1,28,28H14A4.991,4.991,0,0,1,18.624,23.038Z"></path><path d="M62,21A13.014,13.014,0,0,0,52,8.363V5a3,3,0,0,0-3-3H11A3,3,0,0,0,8,5V52H3a1,1,0,0,0-1,1v4a5.006,5.006,0,0,0,5,5H47a5.006,5.006,0,0,0,5-5V33.637A13.014,13.014,0,0,0,62,21Zm-5.929,5.657-1.414,1.414,1.377,1.377A10.946,10.946,0,0,1,50,31.949V30H48v1.949a10.946,10.946,0,0,1-6.034-2.5l1.377-1.377-1.414-1.414-1.377,1.377A10.946,10.946,0,0,1,38.051,22H40V20H38.051a10.946,10.946,0,0,1,2.5-6.034l1.377,1.377,1.414-1.414-1.377-1.377A10.946,10.946,0,0,1,48,10.051V12h2V10.051a10.946,10.946,0,0,1,6.034,2.5l-1.377,1.377,1.414,1.414,1.377-1.377A10.946,10.946,0,0,1,59.949,20H58v2h1.949a10.946,10.946,0,0,1-2.5,6.034ZM7,60a3,3,0,0,1-3-3V54H42v3a4.987,4.987,0,0,0,1,3Zm43-3a3,3,0,1,1-6,0V53a1,1,0,0,0-1-1H10V5a1,1,0,0,1,1-1H49a1,1,0,0,1,1,1V8.051C49.669,8.025,49.338,8,49,8a13,13,0,0,0,0,26c.338,0,.669-.025,1-.051Z"></path><path d="M50,18.184V14H48v4.184A2.993,2.993,0,1,0,51.816,22H55V20H51.816A3,3,0,0,0,50,18.184ZM49,22a1,1,0,1,1,1-1A1,1,0,0,1,49,22Z"></path></g></svg>