<svg xmlns="http://www.w3.org/2000/svg" viewBox="0 0 64 64" x="0px" y="0px"><g><path d="M5,31V12h6V9H5V7h6V4H3V62H5V45.7a1,1,0,0,1,.8-.979A13.985,13.985,0,0,0,16.721,33.8,1,1,0,0,1,17.7,33H62V31Zm10.589,3.248a12.973,12.973,0,0,1-9.341,9.341A1.046,1.046,0,0,1,6,43.62a1,1,0,0,1-1-1V34a1,1,0,0,1,1-1h8.62a1,1,0,0,1,.969,1.248Z"></path><path d="M7,41.251A10.973,10.973,0,0,0,13.251,35H7Z"></path><rect x="13" y="9" width="6" height="3"></rect><rect x="13" y="4" width="6" height="3"></rect><path d="M27,16.465V14.09a6,6,0,0,0-4.088,2.745l2.017,1.011Z"></path><polygon points="26.141 19.441 26.781 22 29.219 22 29.859 19.441 28 18.202 26.141 19.441"></polygon><path d="M22,20a5.971,5.971,0,0,0,1.562,4.024l1.331-1.331-.751-3.005-1.993-1A5.975,5.975,0,0,0,22,20Z"></path><path d="M33.851,18.688l-1.993,1-.749,3,1.346,1.319a5.938,5.938,0,0,0,1.4-5.317Z"></path><path d="M30.88,25.261,29.592,24H26.414L25.14,25.274a5.989,5.989,0,0,0,5.74-.013Z"></path><path d="M33.088,16.835A6,6,0,0,0,29,14.09v2.375l2.071,1.381Z"></path></g></svg>