<svg xmlns="http://www.w3.org/2000/svg" viewBox="0 0 64 64" x="0px" y="0px"><g><path d="M52.82,22.76A5.051,5.051,0,0,1,52.4,21a5.4,5.4,0,0,1,.44-1.82,2.629,2.629,0,0,0,.29-1.15c-.08-.24-.56-.55-.94-.79A6.088,6.088,0,0,1,51,16.31a2.253,2.253,0,0,1-.21-.24,5.253,5.253,0,0,1-.69-1.7,2.626,2.626,0,0,0-.46-1.13,2.561,2.561,0,0,0-1.21-.09,5.071,5.071,0,0,1-1.84-.14,5.016,5.016,0,0,1-1.52-.95c-.38-.31-.81-.66-1.07-.66s-.69.35-1.07.66a5.016,5.016,0,0,1-1.52.95,5.071,5.071,0,0,1-1.84.14,2.561,2.561,0,0,0-1.21.09,2.626,2.626,0,0,0-.46,1.13,5.253,5.253,0,0,1-.69,1.7,5.138,5.138,0,0,1-1.4,1.17c-.38.24-.86.55-.94.79a2.629,2.629,0,0,0,.29,1.15A5.4,5.4,0,0,1,35.6,21a5.4,5.4,0,0,1-.44,1.82,2.629,2.629,0,0,0-.29,1.15c.08.24.56.55.94.79a5.138,5.138,0,0,1,1.4,1.17,5.253,5.253,0,0,1,.69,1.7,2.626,2.626,0,0,0,.46,1.13,2.7,2.7,0,0,0,1.21.09c.21-.01.43-.02.65-.02a3.754,3.754,0,0,1,1.19.16,5.016,5.016,0,0,1,1.52.95c.38.31.81.66,1.07.66s.69-.35,1.07-.66a5.016,5.016,0,0,1,1.52-.95,5.071,5.071,0,0,1,1.84-.14,2.561,2.561,0,0,0,1.21-.09,2.626,2.626,0,0,0,.46-1.13,5.253,5.253,0,0,1,.69-1.7,5.138,5.138,0,0,1,1.4-1.17c.38-.24.86-.55.94-.79a2.629,2.629,0,0,0-.29-1.15C52.83,22.8,52.83,22.78,52.82,22.76ZM44,28a7,7,0,1,1,7-7A7.008,7.008,0,0,1,44,28Z"></path><circle cx="44" cy="21" r="5"></circle><rect x="30" y="37" width="4" height="18"></rect><rect x="22" y="57" width="20" height="3"></rect><path d="M48.334,30.85a3.755,3.755,0,0,0-1.12.042,3.553,3.553,0,0,0-.877.6A3.8,3.8,0,0,1,44,32.6a3.79,3.79,0,0,1-2.336-1.108A6.189,6.189,0,0,0,41,31V41.919l3.375-2.7a1,1,0,0,1,1.25,0L49,41.919V35H45V33h5V30.746A5.473,5.473,0,0,1,48.334,30.85Z"></path><path d="M10,12H9v4a4,4,0,0,0,1,2.644Z"></path><path d="M6,9v7a7.008,7.008,0,0,0,7,7V9Zm6,11.58a.99.99,0,0,1-1,1,1.1,1.1,0,0,1-.4-.08A6.008,6.008,0,0,1,7,16V11a1,1,0,0,1,1-1h3a1,1,0,0,1,1,1Z"></path><path d="M51,9v2.77a3.946,3.946,0,0,1,1.03,2.08,3.621,3.621,0,0,0,.38,1.04,3.668,3.668,0,0,0,.86.67,3.74,3.74,0,0,1,1.76,1.85,3.652,3.652,0,0,1-.32,2.49A3.788,3.788,0,0,0,54.4,21a2.95,2.95,0,0,0,.26.96,6.5,6.5,0,0,0,1.8-1.59,6.733,6.733,0,0,0,1.06-1.82,3.816,3.816,0,0,0,.13-.36,1.829,1.829,0,0,0,.08-.25,2.615,2.615,0,0,0,.09-.38,1.108,1.108,0,0,0,.05-.25,5.583,5.583,0,0,0,.09-.59A5.792,5.792,0,0,0,58,16V9Zm6,7H55V12H54v1H52V11a1,1,0,0,1,1-1h3a1,1,0,0,1,1,1ZM15,24A11.007,11.007,0,0,0,26,35H39V30.87a2.954,2.954,0,0,1-1.82-.49,3.7,3.7,0,0,1-1.21-2.23,3.621,3.621,0,0,0-.38-1.04,3.668,3.668,0,0,0-.86-.67,3.74,3.74,0,0,1-1.76-1.85,3.652,3.652,0,0,1,.32-2.49A3.788,3.788,0,0,0,33.6,21a3.788,3.788,0,0,0-.31-1.1,3.652,3.652,0,0,1-.32-2.49,3.74,3.74,0,0,1,1.76-1.85,3.668,3.668,0,0,0,.86-.67,3.739,3.739,0,0,0,.38-1.04,3.7,3.7,0,0,1,1.21-2.23,3.7,3.7,0,0,1,2.49-.47,3.94,3.94,0,0,0,1.12-.04,3.591,3.591,0,0,0,.87-.6A3.774,3.774,0,0,1,44,9.4a3.774,3.774,0,0,1,2.34,1.11,3.591,3.591,0,0,0,.87.6,3.94,3.94,0,0,0,1.12.04c.22-.01.44-.02.67-.02V9H15Z"></path></g></svg>