<svg xmlns="http://www.w3.org/2000/svg" viewBox="0 0 64 64" x="0px" y="0px"><g><path d="M48,38H46V36h1V21a1,1,0,0,1,1-1h3v2H49V37A1,1,0,0,1,48,38Z"></path><path d="M18,38H16a1,1,0,0,1-1-1V22H13V20h3a1,1,0,0,1,1,1V36h1Z"></path><path d="M42,56a1.987,1.987,0,0,0-1.438.615l-6.4-1.586A1.017,1.017,0,0,0,33.92,55H33V40H31V55H29.87a.976.976,0,0,0-.246.031L23.429,56.6a2,2,0,1,0,.487,1.939L30,57h3.8l6.291,1.559A2,2,0,1,0,42,56Z"></path><path d="M44,35a1,1,0,0,0-1-1H21a1,1,0,0,0-1,1v3H44Z"></path><path d="M42.133,32,45.884,5.743A61.291,61.291,0,0,0,32,4,70.205,70.205,0,0,0,18.12,5.766L21.867,32Z"></path></g></svg>