<svg xmlns="http://www.w3.org/2000/svg" viewBox="0 0 64 64" x="0px" y="0px"><g><polygon points="34 42 22.88 42 22.13 48 34 48 34 42"></polygon><rect x="52" y="40" width="4" height="4"></rect><path d="M34,34H4v3a3.009,3.009,0,0,0,3,3H34Z"></path><path d="M56,28H40v6H56ZM45,32H43V30h2Zm4,0H47V30h2Zm4,0H51V30h2Z"></path><path d="M19,52H34V50H19a1,1,0,0,0-1,1,.928.928,0,0,0,.29.69A.949.949,0,0,0,19,52Z"></path><circle cx="18" cy="18" r="4"></circle><path d="M34,25a3.009,3.009,0,0,1,3-3H54V7a3.009,3.009,0,0,0-3-3H7A3.009,3.009,0,0,0,4,7V32H34ZM45,14H43a3,3,0,0,1,0-6V7h2V8a3,3,0,0,1,3,3H46a1,1,0,0,0-1-1H43a1,1,0,0,0,0,2h2a3,3,0,0,1,0,6v1H43V18a3,3,0,0,1-3-3h2a1,1,0,0,0,1,1h2a1,1,0,0,0,0-2ZM18,28A10,10,0,1,1,28,18,10.011,10.011,0,0,1,18,28Zm14,2H28V28h4Zm0-4H28V24h4Zm0-14H28V10h4Zm0-4H28V6h4Z"></path><path d="M18,24a5.961,5.961,0,0,1-3.471-1.115L13.1,24.312A7.981,7.981,0,0,0,25.931,19H23.91A6.006,6.006,0,0,1,18,24Z"></path><path d="M12,18a6.006,6.006,0,0,1,5-5.91V10.069A7.98,7.98,0,0,0,11.688,22.9l1.427-1.426A5.961,5.961,0,0,1,12,18Z"></path><path d="M23.91,17h2.021A8.008,8.008,0,0,0,19,10.069V12.09A6.008,6.008,0,0,1,23.91,17Z"></path><rect x="40" y="40" width="4" height="4"></rect><rect x="52" y="46" width="4" height="4"></rect><rect x="40" y="52" width="4" height="4"></rect><rect x="46" y="52" width="4" height="4"></rect><path d="M37,60H59a1,1,0,0,0,1-1V25a1,1,0,0,0-1-1H37a1,1,0,0,0-1,1V59A1,1,0,0,0,37,60Zm1-32a2,2,0,0,1,2-2H56a2,2,0,0,1,2,2v6a2,2,0,0,1-2,2H40a2,2,0,0,1-2-2Zm0,12a2,2,0,0,1,2-2H56a2,2,0,0,1,2,2V56a2,2,0,0,1-2,2H40a2,2,0,0,1-2-2Z"></path><rect x="40" y="46" width="4" height="4"></rect><rect x="46" y="40" width="4" height="4"></rect><rect x="46" y="46" width="4" height="4"></rect><rect x="52" y="52" width="4.001" height="4"></rect></g></svg>