<svg xmlns="http://www.w3.org/2000/svg" viewBox="0 0 64 64" x="0px" y="0px"><g data-name="Tempered Glass-Smartphone"><path d="M58,30.414,32.468,55.946A3.008,3.008,0,0,0,33,56H55a3,3,0,0,0,3-3ZM44,54a3,3,0,1,1,3-3A3,3,0,0,1,44,54Z"></path><circle cx="20" cy="55" r="1"></circle><circle cx="44" cy="51" r="1"></circle><path d="M28,53V8H27v2a2,2,0,0,1-2,2H15a2,2,0,0,1-2-2V8H9a3,3,0,0,0-3,3V57a3,3,0,0,0,3,3H31a3,3,0,0,0,2.816-2H33A5.006,5.006,0,0,1,28,53Zm-8,5a3,3,0,1,1,3-3A3,3,0,0,1,20,58Z"></path><rect x="39" y="4" width="10" height="2"></rect><rect x="15" y="8" width="10" height="2"></rect><polygon points="58 12.414 30 40.414 30 43.586 58 15.586 58 12.414"></polygon><path d="M58,18.414l-28,28V53a2.972,2.972,0,0,0,.692,1.894L58,27.586Z"></path><path d="M58,7a3,3,0,0,0-3-3H51V6a2,2,0,0,1-2,2H39a2,2,0,0,1-2-2V4H33a3,3,0,0,0-3,3V37.586l28-28Z"></path></g></svg>