<svg xmlns="http://www.w3.org/2000/svg" viewBox="0 0 64 64" x="0px" y="0px"><g data-name="Energy Saving Light"><path d="M40,40H39V5a3,3,0,0,0-6,0V40H31V5a3,3,0,0,0-6,0V40H24a1,1,0,0,0-1,1v4a1,1,0,0,0,.105.447L25,49.236V55a7,7,0,0,0,14,0V49.236l1.9-3.789A1,1,0,0,0,41,45V41A1,1,0,0,0,40,40ZM35,5a1,1,0,0,1,2,0V40H35ZM27,5a1,1,0,0,1,2,0V40H27Zm0,47H37v2H27Zm5,8a5.009,5.009,0,0,1-4.9-4h9.8A5.009,5.009,0,0,1,32,60Zm7-15.236-1.9,3.789A1,1,0,0,0,37,49v1H27V49a1,1,0,0,0-.105-.447L25,44.764V42H39Z"></path></g></svg>