<svg xmlns="http://www.w3.org/2000/svg" viewBox="0 0 64 64" x="0px" y="0px"><g><path d="M49,8H44.444A3.987,3.987,0,0,0,41,6H37V5a3,3,0,0,0-3-3H30a3,3,0,0,0-3,3V6H23a3.987,3.987,0,0,0-3.444,2H15a5.006,5.006,0,0,0-5,5V57a5.006,5.006,0,0,0,5,5H49a5.006,5.006,0,0,0,5-5V13A5.006,5.006,0,0,0,49,8ZM20,16H44a1,1,0,0,0,1-1V14h3V56H16V14h3v1A1,1,0,0,0,20,16Zm1-6a2,2,0,0,1,2-2h5a1,1,0,0,0,1-1V5a1,1,0,0,1,1-1h4a1,1,0,0,1,1,1V7a1,1,0,0,0,1,1h5a2,2,0,0,1,2,2v4H21ZM52,57a3,3,0,0,1-3,3H15a3,3,0,0,1-3-3V13a3,3,0,0,1,3-3h4v2H15a1,1,0,0,0-1,1V57a1,1,0,0,0,1,1H49a1,1,0,0,0,1-1V13a1,1,0,0,0-1-1H45V10h4a3,3,0,0,1,3,3Z"></path><path d="M33,39H31a1,1,0,0,1-1-1H28a3,3,0,0,0,3,3v2h2V41a3,3,0,0,0,0-6H31a1,1,0,0,1,0-2h2a1,1,0,0,1,1,1h2a3,3,0,0,0-3-3V29H31v2a3,3,0,0,0,0,6h2a1,1,0,0,1,0,2Z"></path><rect x="31" y="6" width="2" height="2"></rect><path d="M18,37h2.051A12.006,12.006,0,0,0,31,47.949V50h2V47.949A12.006,12.006,0,0,0,43.949,37H46V35H43.949A12.006,12.006,0,0,0,33,24.051V22H31v2.051A12.006,12.006,0,0,0,20.051,35H18ZM31,26.051V27h2v-.949A10.015,10.015,0,0,1,41.949,35H40v2h1.949A10.015,10.015,0,0,1,33,45.949V45H31v.949A10.015,10.015,0,0,1,22.051,37H24V35H22.051A10.015,10.015,0,0,1,31,26.051Z"></path></g></svg>