<svg xmlns="http://www.w3.org/2000/svg" viewBox="0 0 64 64" x="0px" y="0px"><g><path d="M10.758,55,8.979,53.222h0l-.715.709a2.973,2.973,0,0,1-2.114.875c-.091,0-.179-.018-.268-.026A2.971,2.971,0,0,0,7,55Z"></path><path d="M7.564,51.807,4.736,48.978l-.709.709c-.01.011-.017.025-.027.037v1.343c.01.011.017.025.027.036l1.418,1.408a1.013,1.013,0,0,0,1.408,0Z"></path><path d="M14.636,41.908,11.229,38.5,5.335,46.75l1.523,1.522,1.414-1.414,1.415,1.414L8.272,49.686,9.8,51.208l8.249-5.892ZM11.1,46.858,9.687,45.444,11.1,44.029l1.414,1.414Z"></path><path d="M13.222,34.044A1.5,1.5,0,0,0,12.161,36.6l7.778,7.778a1.5,1.5,0,0,0,2.122-2.121l-7.779-7.779A1.489,1.489,0,0,0,13.222,34.044Z"></path><path d="M10,28H22V16H10Zm3-7.382A2,2,0,0,1,15.9,18.829l2.763,1.382a2,2,0,0,1,0,3.578L15.9,25.171a1.988,1.988,0,0,1-1.947-.088,1.986,1.986,0,0,1-.948-1.7Z"></path><path d="M20.293,36.251a2.036,2.036,0,0,0-1.914-.5l2.426,2.426a2.036,2.036,0,0,0,.074-.512A1.987,1.987,0,0,0,20.293,36.251Z"></path><path d="M11.228,52.642l7.651,7.651a1.023,1.023,0,0,0,1.414,0,1,1,0,0,0,0-1.415l-7.415-7.414Z"></path><polygon points="15 20.618 15 23.387 17.764 22 15 20.618"></polygon><path d="M56,50.651c-.009-.009-.02-.014-.029-.024l-9.193-9.192a1,1,0,0,1,0-1.414l-1.693-1.694a12,12,0,1,1,4.242-4.242l1.694,1.693a1.029,1.029,0,0,1,1.414,0L56,39.344V12H4V45.179l5.968-8.355a3.5,3.5,0,0,1,.779-3.755,3.585,3.585,0,0,1,4.949,0l1.161,1.161a3.978,3.978,0,0,1,5.457,5.457l1.161,1.161a3.5,3.5,0,0,1,0,4.949h0a3.5,3.5,0,0,1-3.754.778l-5.193,3.71L19.243,55H53a3,3,0,0,0,3-3ZM24,28a2,2,0,0,1-2,2H10a2,2,0,0,1-2-2V16a2,2,0,0,1,2-2H22a2,2,0,0,1,2,2Zm2,17h2v2H26Zm12,6H26V49H38Zm0-4H30V45h8Z"></path><path d="M43.243,23.757a6,6,0,1,0,0,8.486A5.984,5.984,0,0,0,43.243,23.757Z"></path><path d="M49.607,37.192l-1.45-1.45c-.215.254-.433.505-.672.743s-.49.457-.743.672l1.45,1.45Z"></path><path d="M4,10H56V7a3,3,0,0,0-3-3H7A3,3,0,0,0,4,7ZM16,6h2V8H16ZM12,6h2V8H12ZM8,6h2V8H8Z"></path><path d="M46.071,20.929a10,10,0,1,0,0,14.142A9.965,9.965,0,0,0,46.071,20.929ZM44.657,33.657a8,8,0,1,1,0-11.314A7.976,7.976,0,0,1,44.657,33.657Z"></path><rect x="49.021" y="39.021" width="4" height="2" transform="translate(-13.355 47.806) rotate(-45.006)"></rect><polygon points="60.213 46.385 60.214 46.384 54.556 40.728 51.728 43.556 57.385 49.213 60.213 46.385"></polygon></g></svg>