<svg xmlns="http://www.w3.org/2000/svg" viewBox="0 0 64 64" x="0px" y="0px"><g><circle cx="32" cy="30" r="2"></circle><path d="M45.44,30.02,32.71,17.29a1.008,1.008,0,0,0-1.42,0L18.56,30.02a1,1,0,0,0,0,1.41l2.83,2.83a1.017,1.017,0,0,0,.71.3,1,1,0,0,0,.71-.3L24,33.07V41a1,1,0,0,0,1,1H39a1,1,0,0,0,1-1V33.07l1.19,1.19a1,1,0,0,0,.71.3,1.017,1.017,0,0,0,.71-.3l2.83-2.83A1,1,0,0,0,45.44,30.02ZM33,40H31V36h2Zm5,0H35V35a1,1,0,0,0-1-1H30a1,1,0,0,0-1,1v5H26V31.07l6-6,6,6Zm3.9-7.86-9.19-9.19a1.014,1.014,0,0,0-1.42,0L22.1,32.14l-1.41-1.41L32,19.41,43.31,30.73Z"></path><rect x="51" y="14" width="2" height="2"></rect><path d="M52,2a10,10,0,0,0-1,19.95v2.64l-3.71,3.7,1.42,1.42,4-4A1.033,1.033,0,0,0,53,25V21.95A10,10,0,0,0,52,2Zm0,18a8,8,0,1,1,8-8A8.011,8.011,0,0,1,52,20Z"></path><path d="M56,7H48a1,1,0,0,0-1,1v4a1,1,0,0,0,1,1v2a4,4,0,0,0,8,0V13a1,1,0,0,0,1-1V8A1,1,0,0,0,56,7Zm-2,8a2,2,0,0,1-4,0V13h4Zm1-4H49V9h6Z"></path><path d="M22,12a10,10,0,1,0-11,9.95V25a1.033,1.033,0,0,0,.29.71l4,4,1.42-1.42L13,24.59V21.95A10.006,10.006,0,0,0,22,12ZM12,20a8,8,0,1,1,8-8A8.011,8.011,0,0,1,12,20Z"></path><path d="M15,10V9A3,3,0,0,0,9,9v1a1,1,0,0,0-1,1v4a1,1,0,0,0,1,1h6a1,1,0,0,0,1-1V11A1,1,0,0,0,15,10ZM11,9a1,1,0,0,1,2,0v1H11Zm3,5H10V12h4Z"></path><path d="M13,42.051V39.414l3.707-3.707-1.414-1.414-4,4A1,1,0,0,0,11,39v3.051a10,10,0,1,0,2,0ZM12,60a8,8,0,1,1,8-8A8.009,8.009,0,0,1,12,60Z"></path><path d="M53,42.051V39a1,1,0,0,0-.293-.707l-4-4-1.414,1.414L51,39.414v2.637a10,10,0,1,0,2,0ZM52,60a8,8,0,1,1,8-8A8.009,8.009,0,0,1,52,60Z"></path><path d="M7,48v3H9V49h2V47H8A1,1,0,0,0,7,48Z"></path><path d="M16,47H13v2h2v2h2V48A1,1,0,0,0,16,47Z"></path><path d="M9,53H7v3a1,1,0,0,0,1,1h3V55H9Z"></path><path d="M15,55H13v2h3a1,1,0,0,0,1-1V53H15Z"></path><path d="M49.878,53.879l1.415,1.414a1.021,1.021,0,0,1,1.414,0l1.415-1.414A3.074,3.074,0,0,0,49.878,53.879Z"></path><path d="M47.05,51.051l1.414,1.414a5,5,0,0,1,7.072,0l1.414-1.414a7,7,0,0,0-9.9,0Z"></path></g></svg>