<svg xmlns="http://www.w3.org/2000/svg" viewBox="0 0 64 64" x="0px" y="0px"><g data-name="Mobile Phone-Retro-Telephone-Conversation-Tool"><path d="M43,8H29V3a1,1,0,0,0-1-1H24a1,1,0,0,0-1,1V8H21a1,1,0,0,0-1,1V61a1,1,0,0,0,1,1h2a1.017,1.017,0,0,0,.71-.3A5.836,5.836,0,0,1,27.83,60h8.34a5.787,5.787,0,0,1,4.12,1.71A1.052,1.052,0,0,0,41,62h2a1,1,0,0,0,1-1V9A1,1,0,0,0,43,8ZM25,4h2V8H25ZM42,60h-.6a7.8,7.8,0,0,0-5.23-2H27.83a7.813,7.813,0,0,0-5.23,2H22V41h2.22l.81,3.24A1,1,0,0,0,26,45H38a1,1,0,0,0,.97-.76L39.78,41H42ZM26.28,41H37.72l-.5,2H26.78ZM42,39H22V10H42Z"></path><path d="M39,12H25a1,1,0,0,0-1,1v6a1,1,0,0,0,1,1H39a1,1,0,0,0,1-1V13A1,1,0,0,0,39,12Zm-1,6H26V14H38Z"></path><rect x="30" y="22" width="4" height="2"></rect><rect x="24" y="23" width="4" height="2"></rect><rect x="36" y="23" width="4" height="2"></rect><rect x="30" y="27" width="4" height="2"></rect><rect x="24" y="27" width="4" height="2"></rect><rect x="36" y="27" width="4" height="2"></rect><rect x="30" y="31" width="4" height="2"></rect><rect x="24" y="31" width="4" height="2"></rect><rect x="36" y="31" width="4" height="2"></rect><rect x="30" y="35" width="4" height="2"></rect><rect x="24" y="35" width="4" height="2"></rect><rect x="36" y="35" width="4" height="2"></rect></g></svg>