<svg xmlns="http://www.w3.org/2000/svg" viewBox="0 0 64 64" x="0px" y="0px"><title>Artificial Intelligence-Chip-Processor</title><g data-name="Artificial Intelligence"><path d="M18,35h4a1,1,0,0,0,1-1V30a1,1,0,0,0-1-1H18a1,1,0,0,0-1,1v4A1,1,0,0,0,18,35Zm1-4h2v2H19Z"></path><path d="M27.988,29a1,1,0,0,0,.707-.293L30.4,27H32V25H29.988a1,1,0,0,0-.707.293L27.574,27H27V26a1,1,0,0,0-1-1H25v-.583l1.707-1.708A1,1,0,0,0,27,22V20H25v1.588L23.293,23.3A1,1,0,0,0,23,24v1H21V20H19v5H17v-.968a1,1,0,0,0-.293-.707L15,21.618V20H13v2.032a1,1,0,0,0,.293.707L15,24.446V25H14a1,1,0,0,0-1,1v1H11.63l-.723-1.447A1,1,0,0,0,10.012,25H8v2H9.394l.724,1.447a1,1,0,0,0,.894.553H13v2H8v2h5v2H11.012a1,1,0,0,0-.894.553L9.394,37H8v2h2.012a1,1,0,0,0,.895-.553L11.63,37H13v1a1,1,0,0,0,1,1h1v.554l-1.707,1.707a1,1,0,0,0-.293.707V44h2V42.382l1.707-1.707A1,1,0,0,0,17,39.968V39h2v5h2V39h2v1a1,1,0,0,0,.293.707L25,42.412V44h2V42a1,1,0,0,0-.293-.707L25,39.583V39h1a1,1,0,0,0,1-1V37h.574l1.707,1.707a1,1,0,0,0,.707.293H32V37H30.4L28.7,35.293A1,1,0,0,0,27.988,35H27V33h5V31H27V29ZM25,37H15V27H25Z"></path><path d="M54.138,32.986a4,4,0,1,0,.008-2h-16.2A17.909,17.909,0,0,0,36.583,25H44a1,1,0,0,0,.707-.293L48.414,21h2.728a4,4,0,1,0,0-2H48a1,1,0,0,0-.707.293L43.586,23H35.565a18.121,18.121,0,0,0-5.637-6H42a1,1,0,0,0,.707-.293l4.274-4.274A3.947,3.947,0,0,0,49,13a4,4,0,1,0-4-4,3.947,3.947,0,0,0,.567,2.019L41.586,15H25.863a18,18,0,1,0,0,34H41.586l3.981,3.981A3.947,3.947,0,0,0,45,55a4,4,0,1,0,4-4,3.947,3.947,0,0,0-2.019.567l-4.274-4.274A1,1,0,0,0,42,47H29.928a18.121,18.121,0,0,0,5.637-6h8.021l3.707,3.707A1,1,0,0,0,48,45h3.142a4,4,0,1,0,0-2H48.414l-3.707-3.707A1,1,0,0,0,44,39H36.583a17.889,17.889,0,0,0,1.367-6.014ZM58,30a2,2,0,1,1-2,2A2,2,0,0,1,58,30ZM55,18a2,2,0,1,1-2,2A2,2,0,0,1,55,18ZM49,7a2,2,0,1,1-2,2A2,2,0,0,1,49,7Zm2,48a2,2,0,1,1-2-2A2,2,0,0,1,51,55Zm4-13a2,2,0,1,1-2,2A2,2,0,0,1,55,42ZM20,48A16,16,0,1,1,36,32,16.019,16.019,0,0,1,20,48Z"></path><rect x="15" y="10" width="10" height="2"></rect><rect x="27" y="10" width="2" height="2"></rect><rect x="31" y="10" width="2" height="2"></rect><rect x="20" y="5" width="10" height="2"></rect><rect x="32" y="5" width="2" height="2"></rect><rect x="8" y="57" width="10" height="2"></rect><rect x="20" y="57" width="2" height="2"></rect><rect x="24" y="57" width="2" height="2"></rect><rect x="13" y="52" width="10" height="2"></rect><rect x="25" y="52" width="2" height="2"></rect></g></svg>