<svg xmlns="http://www.w3.org/2000/svg" viewBox="0 0 64 64" x="0px" y="0px"><g data-name="Exchange Money"><path d="M34.325,5.089l1.382-1.382L34.293,2.293l-3,3a1,1,0,0,0,0,1.414l3,3,1.414-1.414L34.52,7.106C48.783,8.248,60,18.974,60,32c0,12.446-10.4,23.1-24.19,24.77l.241,1.986C50.844,56.958,62,45.456,62,32,62,17.817,49.784,6.162,34.325,5.089Z"></path><path d="M14,37.1V41h3.9A5.013,5.013,0,0,0,14,37.1Z"></path><path d="M17.9,23H14v3.9A5.013,5.013,0,0,0,17.9,23Z"></path><path d="M50,26.9V23H46.1A5.012,5.012,0,0,0,50,26.9Z"></path><path d="M50,37.1A5.013,5.013,0,0,0,46.1,41H50Z"></path><path d="M50,35.08V28.92A7,7,0,0,1,44.08,23L19.92,23A7,7,0,0,1,14,28.92v6.16A7,7,0,0,1,19.92,41H44.08A7,7,0,0,1,50,35.08ZM32,31a2.993,2.993,0,0,1,1,5.816V39H31V36.816A3,3,0,0,1,29,34h2a1,1,0,1,0,1-1,2.993,2.993,0,0,1-1-5.816V25h2v2.184A3,3,0,0,1,35,30H33a1,1,0,1,0-1,1Z"></path><path d="M28.707,53.293l-1.414,1.414,2.187,2.187C15.217,55.752,4,45.026,4,32,4,19.61,14.346,8.968,28.066,7.245l-.249-1.984C13.1,7.108,2,18.6,2,32,2,46.183,14.216,57.838,29.675,58.911l-2.382,2.382,1.414,1.414,4-4a1,1,0,0,0,0-1.414Z"></path></g></svg>