<svg xmlns="http://www.w3.org/2000/svg" viewBox="0 0 64 64" x="0px" y="0px"><g data-name="Army Dog Tag"><polygon points="8 7 9 7 9 19 11 19 11 7 12 7 12 3 8 3 8 7"></polygon><path d="M54,53v3a3,3,0,0,1-3,3H49a3,3,0,0,1-3-3V48.816A2.972,2.972,0,0,0,47.22,44a2.954,2.954,0,0,0,0-4A2.972,2.972,0,0,0,46,35.184V22a5.006,5.006,0,0,0-5-5H39.007a5.009,5.009,0,0,0-5,4.979L34,22.993l2,.014.007-1.017a3.005,3.005,0,0,1,3-2.99H41a3,3,0,0,1,3,3V35.184A2.972,2.972,0,0,0,42.78,40a2.954,2.954,0,0,0,0,4A2.972,2.972,0,0,0,44,48.816V56a5.006,5.006,0,0,0,5,5h2a5.006,5.006,0,0,0,5-5V53Zm-9-6a1,1,0,1,1,1-1A1,1,0,0,1,45,47Zm-1-5a1,1,0,1,1,1,1A1,1,0,0,1,44,42Zm1-5a1,1,0,1,1-1,1A1,1,0,0,1,45,37Z"></path><rect x="12" y="41" width="20" height="2"></rect><rect x="25" y="21" width="2" height="2"></rect><rect x="12" y="49" width="20" height="2"></rect><rect x="12" y="33" width="20" height="2"></rect><rect x="17" y="21" width="2" height="2"></rect><rect x="9" y="21" width="2" height="2"></rect><path d="M38,55.3l-1.832-2.748A1.006,1.006,0,0,1,36,52V33a1.006,1.006,0,0,1,.168-.555L38,29.7V25H6v4.7l1.832,2.748A1.006,1.006,0,0,1,8,33V52a1.006,1.006,0,0,1-.168.555L6,55.3V60H38ZM34,52a1,1,0,0,1-1,1H11a1,1,0,0,1-1-1V48a1,1,0,0,1,1-1H33a1,1,0,0,1,1,1Zm0-8a1,1,0,0,1-1,1H11a1,1,0,0,1-1-1V40a1,1,0,0,1,1-1H33a1,1,0,0,1,1,1Zm0-8a1,1,0,0,1-1,1H11a1,1,0,0,1-1-1V32a1,1,0,0,1,1-1H33a1,1,0,0,1,1,1Z"></path><path d="M58,46.162l-.948-2.846A1,1,0,0,1,57,43V37a1,1,0,0,1,.052-.316L58,33.838V29H52v4.838l.948,2.846A1,1,0,0,1,53,37v6a1,1,0,0,1-.052.316L52,46.162V51h6ZM56,50H54V48h2Zm0-18H54V30h2Z"></path></g></svg>