<svg xmlns="http://www.w3.org/2000/svg" viewBox="0 0 64 64" x="0px" y="0px"><g><path d="M30.24,25.37l-7.06,1.41a9.047,9.047,0,0,0,.61,1.91l6.1-.68.22,1.98-5.16.58a8.97,8.97,0,0,0,13.41.79,10.264,10.264,0,0,0,.69-.79l-5.16-.58.22-1.98,6.1.68a9.047,9.047,0,0,0,.61-1.91l-7.06-1.41A9.065,9.065,0,0,0,30.24,25.37Z"></path><path d="M31,43.9A5.017,5.017,0,0,1,27,39v-.82A3.01,3.01,0,0,0,25,41v5.72l6-1.5Z"></path><path d="M51,60V49.88a6.943,6.943,0,0,0-4.91-6.67L41,41.61V48a.99.99,0,0,1-1,1,.986.986,0,0,1-.24-.03L32,47.03l-7.76,1.94a.989.989,0,0,1-.86-.18A1,1,0,0,1,23,48V41.61L17.91,43.2A6.964,6.964,0,0,0,13,49.88V60h6V51h2v9H43V51h2v9Z"></path><path d="M42,11a1,1,0,0,1,1,1v6a4.091,4.091,0,0,1,1,.14V16A12,12,0,0,0,38.47,5.91a14.849,14.849,0,0,1-1.73,3.96A13.015,13.015,0,0,0,42,11Z"></path><path d="M35,39V35.58a10.924,10.924,0,0,1-6,0V39a3,3,0,0,0,6,0Z"></path><path d="M20,18.14A4.091,4.091,0,0,1,21,18V15.86a.981.981,0,0,1,.34-.75,1.012,1.012,0,0,1,.8-.24A13,13,0,0,0,34.47,9.69h.01a12.712,12.712,0,0,0,2.16-4.75A11.763,11.763,0,0,0,32,4,12.018,12.018,0,0,0,20,16Z"></path><path d="M23,16.97v7.81l6.84-1.37a11.214,11.214,0,0,1,4.32,0L41,24.78V12.97a15.058,15.058,0,0,1-5.44-1.42A14.984,14.984,0,0,1,23,16.97ZM28,23a2,2,0,1,1,2-2A2,2,0,0,1,28,23Zm10-2a2,2,0,1,1-2-2A2,2,0,0,1,38,21Z"></path><path d="M19,22a2.015,2.015,0,0,0,2,2V20A2.006,2.006,0,0,0,19,22Z"></path><path d="M39,41a3.01,3.01,0,0,0-2-2.82V39a5.017,5.017,0,0,1-4,4.9v1.32l6,1.5Z"></path><path d="M43,20v4a2.015,2.015,0,0,0,2-2A2.006,2.006,0,0,0,43,20Z"></path></g></svg>