<svg xmlns="http://www.w3.org/2000/svg" viewBox="0 0 64 64" x="0px" y="0px"><g><path d="M55,46H9A7,7,0,0,0,9,60H55a7,7,0,0,0,0-14Zm0,12H9A5,5,0,0,1,9,48H55a5,5,0,0,1,0,10Z"></path><path d="M32,49a4,4,0,1,0,4,4A4,4,0,0,0,32,49Zm0,6a2,2,0,1,1,2-2A2,2,0,0,1,32,55Z"></path><path d="M22,49a4,4,0,1,0,4,4A4,4,0,0,0,22,49Zm0,6a2,2,0,1,1,2-2A2,2,0,0,1,22,55Z"></path><path d="M12,49a4,4,0,1,0,4,4A4,4,0,0,0,12,49Zm0,6a2,2,0,1,1,2-2A2,2,0,0,1,12,55Z"></path><path d="M42,49a4,4,0,1,0,4,4A4,4,0,0,0,42,49Zm0,6a2,2,0,1,1,2-2A2,2,0,0,1,42,55Z"></path><path d="M52,49a4,4,0,1,0,4,4A4,4,0,0,0,52,49Zm0,6a2,2,0,1,1,2-2A2,2,0,0,1,52,55Z"></path><path d="M10,45H30a1,1,0,0,0,1-1V26a1,1,0,0,0-1-1H10a1,1,0,0,0-1,1V44A1,1,0,0,0,10,45Zm1-2V41H29v2ZM22,27v4H18V27Zm-6,0v5a1,1,0,0,0,1,1h6a1,1,0,0,0,1-1V27h5V39H11V27Z"></path><path d="M34,45H54a1,1,0,0,0,1-1V26a1,1,0,0,0-1-1H34a1,1,0,0,0-1,1V44A1,1,0,0,0,34,45Zm1-2V41H53v2ZM46,27v4H42V27Zm-6,0v5a1,1,0,0,0,1,1h6a1,1,0,0,0,1-1V27h5V39H35V27Z"></path></g></svg>