<svg xmlns="http://www.w3.org/2000/svg" viewBox="0 0 64 64" x="0px" y="0px"><g><rect x="34" y="29" width="5" height="4"></rect><path d="M55.41,32.38,38.98,25.09a.934.934,0,0,0-.4-.09H20a1,1,0,0,0-1,1v7.12a2,2,0,0,1-1.75,1.98L3,36.88v3.13A9.989,9.989,0,0,1,18.95,47h16.1a10,10,0,0,1,5.6-8H38V37h3v1.84A9.881,9.881,0,0,1,45,38a9.994,9.994,0,0,1,7.14,3H56V33.3A1.023,1.023,0,0,0,55.41,32.38ZM30,39H27V37h3Zm0-5a1,1,0,0,1-1,1H22a1,1,0,0,1-1-1V28a1,1,0,0,1,1-1h7a1,1,0,0,1,1,1Zm11,0a1,1,0,0,1-1,1H33a1,1,0,0,1-1-1V28a1,1,0,0,1,1-1h7a1,1,0,0,1,1,1Z"></path><rect x="23" y="29" width="5" height="4"></rect><path d="M58,43v1.67a.333.333,0,0,1-.33.33H54.54a9.711,9.711,0,0,0-.88-2Z"></path><path d="M52.24,25.93l-4.56-2.07a2.3,2.3,0,0,0-3.18,1.49l8.75,3.89a2.3,2.3,0,0,0-1.01-3.31Z"></path><polygon points="17 33 7 33 7 34.37 17 33.12 17 33"></polygon><path d="M15.489,45.386l.934-.539-1-1.733-.943.544A7.073,7.073,0,0,0,13.3,42.487l.548-.949-1.733-1-.551.955A6.918,6.918,0,0,0,10,41.08V40H8v1.08a6.972,6.972,0,0,0-1.627.436l-.564-.978-1.733,1,.571.99A7.03,7.03,0,0,0,3.5,43.69l-1-.576-1,1.733,1,.576A6.925,6.925,0,0,0,2.08,47H1v2H2.08A6.925,6.925,0,0,0,2.5,50.577l-1,.576,1,1.733,1-.576a7.03,7.03,0,0,0,1.151,1.162l-.571.99,1.733,1,.564-.978A6.972,6.972,0,0,0,8,54.92V56h2V54.92a6.918,6.918,0,0,0,1.563-.413l.551.955,1.733-1-.548-.949a7.073,7.073,0,0,0,1.181-1.171l.943.544,1-1.733-.934-.539A6.971,6.971,0,0,0,15.92,49H17V47H15.92A6.971,6.971,0,0,0,15.489,45.386ZM14,48a5,5,0,1,1-5-5A5.006,5.006,0,0,1,14,48Z"></path><path d="M51.5,45.405l.933-.539-1-1.732-.936.54a7.067,7.067,0,0,0-1.166-1.166l.54-.936-1.732-1-.539.933A6.919,6.919,0,0,0,46,41.08V40H44v1.08a6.919,6.919,0,0,0-1.595.425l-.539-.933-1.732,1,.54.936a7.067,7.067,0,0,0-1.166,1.166l-.936-.54-1,1.732.933.539A6.919,6.919,0,0,0,38.08,47H37v2h1.08a6.919,6.919,0,0,0,.425,1.595l-.933.539,1,1.732.936-.54a7.067,7.067,0,0,0,1.166,1.166l-.54.936,1.732,1,.539-.933A6.919,6.919,0,0,0,44,54.92V56h2V54.92A6.919,6.919,0,0,0,47.6,54.5l.539.933,1.732-1-.54-.936a7.067,7.067,0,0,0,1.166-1.166l.936.54,1-1.732L51.5,50.6A6.919,6.919,0,0,0,51.92,49H53V47H51.92A6.919,6.919,0,0,0,51.5,45.405ZM50,48a5,5,0,1,1-5-5A5.006,5.006,0,0,1,50,48Z"></path><path d="M60,8V34a1,1,0,0,1-1,1H58v2h1a3,3,0,0,0,3-3V8Z"></path><path d="M9,45a3,3,0,1,0,3,3A3,3,0,0,0,9,45Zm0,4a1,1,0,1,1,1-1A1,1,0,0,1,9,49Z"></path><path d="M45,45a3,3,0,1,0,3,3A3,3,0,0,0,45,45Zm0,4a1,1,0,1,1,1-1A1,1,0,0,1,45,49Z"></path></g></svg>