<svg xmlns="http://www.w3.org/2000/svg" viewBox="0 0 64 64" x="0px" y="0px"><g data-name="Ebook-Learning-Open Book-Education-Keyboard"><rect x="13" y="17" width="16" height="2"></rect><rect x="13" y="21" width="16" height="2"></rect><rect x="35" y="9" width="16" height="2"></rect><rect x="35" y="13" width="16" height="2"></rect><rect x="45" y="17" width="6" height="2"></rect><rect x="13" y="25" width="16" height="2"></rect><path d="M14,15H28a1,1,0,0,0,1-1V8a1,1,0,0,0-1-1H14a1,1,0,0,0-1,1v6A1,1,0,0,0,14,15Zm1-6H27v4H15Z"></path><path d="M36,27h6a1,1,0,0,0,1-1V18a1,1,0,0,0-1-1H36a1,1,0,0,0-1,1v8A1,1,0,0,0,36,27Zm1-8h4v6H37Z"></path><rect x="45" y="21" width="6" height="2"></rect><rect x="45" y="25" width="6" height="2"></rect><rect x="13" y="29" width="4" height="2"></rect><rect x="19" y="29" width="10" height="2"></rect><rect x="35" y="29" width="16" height="2"></rect><path d="M59,34V7a1,1,0,0,0-1-1H55V3a1,1,0,0,0-1-1H36a4.994,4.994,0,0,0-4,2.03A4.994,4.994,0,0,0,28,2H10A1,1,0,0,0,9,3V6H6A1,1,0,0,0,5,7V34a3.009,3.009,0,0,0-3,3V55a3.009,3.009,0,0,0,3,3H9v3a1,1,0,0,0,1,1H30a1,1,0,0,0,1-1V58h2v3a1,1,0,0,0,1,1H54a1,1,0,0,0,1-1V58h4a3.009,3.009,0,0,0,3-3V37A3.009,3.009,0,0,0,59,34ZM55,8h2V34H55ZM33,7a3.009,3.009,0,0,1,3-3H53V34H33ZM11,4H28a3.009,3.009,0,0,1,3,3V34H11ZM7,8H9V34H7ZM29,60H11V51a1,1,0,0,1,2,0v3a1,1,0,0,0,2,0V47a1,1,0,0,1,2,0v7a1,1,0,0,0,2,0V46a1,1,0,0,1,2,0v8a1,1,0,0,0,2,0V47a1,1,0,0,1,2,0v9a1,1,0,0,0,2,0V52a1,1,0,0,1,2,0Zm24,0H35V52a1,1,0,0,1,2,0v4a1,1,0,0,0,2,0V47a1,1,0,0,1,2,0v7a1,1,0,0,0,2,0V46a1,1,0,0,1,2,0v8a1,1,0,0,0,2,0V47a1,1,0,0,1,2,0v7a1,1,0,0,0,2,0V51a1,1,0,0,1,2,0Zm7-5a1,1,0,0,1-1,1H55V51a3,3,0,0,0-4-2.83V47a3.009,3.009,0,0,0-3-3,2.934,2.934,0,0,0-1.47.39,3,3,0,0,0-5.06,0A2.934,2.934,0,0,0,40,44a3.009,3.009,0,0,0-3,3v2.17A3,3,0,0,0,33,52v4H31V52a3,3,0,0,0-4-2.83V47a3.009,3.009,0,0,0-3-3,2.934,2.934,0,0,0-1.47.39,3,3,0,0,0-5.06,0A2.934,2.934,0,0,0,16,44a3.009,3.009,0,0,0-3,3v1.17A3,3,0,0,0,9,51v5H5a1,1,0,0,1-1-1V37a1,1,0,0,1,1-1H59a1,1,0,0,1,1,1Z"></path><rect x="9" y="38" width="2" height="2"></rect><rect x="13" y="38" width="2" height="2"></rect><rect x="17" y="38" width="2" height="2"></rect><rect x="21" y="38" width="2" height="2"></rect><rect x="25" y="38" width="2" height="2"></rect><rect x="29" y="38" width="2" height="2"></rect><rect x="33" y="38" width="2" height="2"></rect><rect x="37" y="38" width="2" height="2"></rect><rect x="49" y="42" width="2" height="2"></rect><rect x="37" y="42" width="2" height="2"></rect><rect x="25" y="42" width="2" height="2"></rect><rect x="13" y="42" width="2" height="2"></rect><rect x="41" y="38" width="2" height="2"></rect><rect x="45" y="38" width="2" height="2"></rect><rect x="49" y="38" width="2" height="2"></rect><rect x="53" y="38" width="2" height="2"></rect><rect x="9" y="42" width="2" height="2"></rect><rect x="29" y="42" width="2" height="2"></rect><rect x="33" y="42" width="2" height="2"></rect><rect x="29" y="46" width="2" height="2"></rect><rect x="33" y="46" width="2" height="2"></rect><rect x="53" y="42" width="2" height="2"></rect></g></svg>