<svg xmlns="http://www.w3.org/2000/svg" viewBox="0 0 64 64" x="0px" y="0px"><g data-name="Back Photo Camera"><path d="M59,13H55V11a2,2,0,0,0-2-2H47a2,2,0,0,0-2,2v2H5a3,3,0,0,0-3,3V48a3,3,0,0,0,3,3H59a3,3,0,0,0,3-3V16A3,3,0,0,0,59,13ZM47,11h6v2H47ZM60,48a1,1,0,0,1-1,1H5a1,1,0,0,1-1-1V16a1,1,0,0,1,1-1H59a1,1,0,0,1,1,1Z"></path><path d="M50,33a6,6,0,1,0,6,6A6.006,6.006,0,0,0,50,33Zm0,10a4,4,0,1,1,4-4A4,4,0,0,1,50,43Z"></path><path d="M47,26a3,3,0,1,0,3-3A3,3,0,0,0,47,26Zm4,0a1,1,0,1,1-1-1A1,1,0,0,1,51,26Z"></path><rect x="46" y="17" width="8" height="2"></rect><path d="M41,17H7a1,1,0,0,0-1,1V46a1,1,0,0,0,1,1H41a1,1,0,0,0,1-1V18A1,1,0,0,0,41,17ZM40,45H8V19H40Z"></path><path d="M12,23h5V21H11a1,1,0,0,0-1,1v6h2Z"></path><path d="M11,43h6V41H12V36H10v6A1,1,0,0,0,11,43Z"></path><path d="M36,28h2V22a1,1,0,0,0-1-1H31v2h5Z"></path><path d="M38,42V36H36v5H31v2h6A1,1,0,0,0,38,42Z"></path></g></svg>