<svg xmlns="http://www.w3.org/2000/svg" viewBox="0 0 64 64" x="0px" y="0px"><g data-name="Manufacturing-Communicate-Internet of Things-App-Smartphone"><circle cx="55" cy="11" r="1"></circle><path d="M55,16a5,5,0,1,0-5-5A5,5,0,0,0,55,16Zm0-8a3,3,0,1,1-3,3A3,3,0,0,1,55,8Z"></path><circle cx="39" cy="39" r="1"></circle><path d="M26,12V10H23.94a8.363,8.363,0,0,1,0,2Z"></path><path d="M15,4H14V6h1a5,5,0,0,1,0,10H14v2h1A7,7,0,0,0,15,4Z"></path><path d="M49.34,15.1l-.24.4L39.56,32.03a7.019,7.019,0,0,1,5.2,3L54.6,17.98A6.985,6.985,0,0,1,49.34,15.1Z"></path><path d="M39,34a5,5,0,1,0,5,5A5,5,0,0,0,39,34Zm0,8a3,3,0,1,1,3-3A3,3,0,0,1,39,42Z"></path><path d="M24,34H4V52H24ZM14,48l-1.414-1.414a2,2,0,0,1,2.828,0Zm2.122-3.121a3,3,0,0,0-4.244,0l-1.414-1.414a5.008,5.008,0,0,1,7.072,0ZM18.95,42.05a7.009,7.009,0,0,0-9.9,0L7.636,40.636a9.009,9.009,0,0,1,12.728,0Z"></path><path d="M24,57V54H4v3a3.009,3.009,0,0,0,3,3H21A3.009,3.009,0,0,0,24,57Zm-9,1H13V56h2Z"></path><polygon points="50.38 46 27.62 46 26 49.24 26 54 54.38 54 50.38 46"></polygon><path d="M61,56H26v1a4.924,4.924,0,0,1-1.03,3H61Z"></path><path d="M24,31a3.009,3.009,0,0,0-3-3H7a3.009,3.009,0,0,0-3,3v1H24Z"></path><rect x="26" y="18" width="2" height="2"></rect><rect x="30" y="18" width="8" height="2"></rect><rect x="48" y="29.804" width="12" height="2" transform="translate(0.326 62.172) rotate(-60.005)"></rect><rect x="57.5" y="22.01" width="2" height="2" transform="translate(9.327 62.172) rotate(-60.005)"></rect><path d="M48,11a6.844,6.844,0,0,0,.68,3H28V8H48.68A6.844,6.844,0,0,0,48,11Z"></path></g></svg>