<svg xmlns="http://www.w3.org/2000/svg" viewBox="0 0 64 64" x="0px" y="0px"><g><path d="M46,58a1,1,0,0,0,1,1H59a1,1,0,0,0,1-1V53H56a1.033,1.033,0,0,1-.71-.29L51.59,49H46Z"></path><path d="M52.71,47.29,56.41,51H58V45H48v2h4A1.033,1.033,0,0,1,52.71,47.29Z"></path><path d="M52.71,27.29,56.41,31H58V25H48v2h4A1.033,1.033,0,0,1,52.71,27.29Z"></path><path d="M46,38a1,1,0,0,0,1,1H59a1,1,0,0,0,1-1V33H56a1.033,1.033,0,0,1-.71-.29L51.59,29H46Z"></path><path d="M52.71,6.29,56.41,10H58V4H48V6h4A1.033,1.033,0,0,1,52.71,6.29Z"></path><path d="M46,17a1,1,0,0,0,1,1H59a1,1,0,0,0,1-1V12H56a1.033,1.033,0,0,1-.71-.29L51.59,8H46Z"></path><path d="M35,13V31H32v2h3V54a1,1,0,0,0,1,1h6V53H37V33h5V31H37V14h5V12H36A1,1,0,0,0,35,13Z"></path><circle cx="15" cy="32" r="4"></circle><path d="M28,34V30l-3.32-.47a9.8,9.8,0,0,0-1.09-2.62l2.02-2.69-2.83-2.83-2.69,2.02a9.8,9.8,0,0,0-2.62-1.09L17,19H13l-.47,3.32a9.8,9.8,0,0,0-2.62,1.09L7.22,21.39,4.39,24.22l2.02,2.69a9.8,9.8,0,0,0-1.09,2.62L2,30v4l3.32.47a9.8,9.8,0,0,0,1.09,2.62L4.39,39.78l2.83,2.83,2.69-2.02a9.8,9.8,0,0,0,2.62,1.09L13,45h4l.47-3.32a9.8,9.8,0,0,0,2.62-1.09l2.69,2.02,2.83-2.83-2.02-2.69a9.8,9.8,0,0,0,1.09-2.62ZM15,38a6,6,0,1,1,6-6A6,6,0,0,1,15,38Z"></path></g></svg>