<svg xmlns="http://www.w3.org/2000/svg" viewBox="0 0 64 64" x="0px" y="0px"><g data-name="Coding-Smartphone-Software Developer-Programming-Code"><path d="M34,54H30a1,1,0,0,0,0,2h4a1,1,0,0,0,0-2Z"></path><path d="M50,8a4,4,0,0,0-4-4H18a4,4,0,0,0-4,4V56a4,4,0,0,0,4,4H46a4,4,0,0,0,4-4ZM29,6h6V8H29Zm4.948,12.316-2,6-1.9-.632,2-6ZM32,34H26V32h6Zm6,2v2H30V36ZM25,6h2V8H25Zm-.707,14.293,3-3,1.414,1.414L26.414,21l2.293,2.293-1.414,1.414-3-3A1,1,0,0,1,24.293,20.293ZM24,28h4v2H24Zm0,8h4v2H24Zm2,4h8v2H26Zm8,18H30a3,3,0,0,1,0-6h4a3,3,0,0,1,0,6Zm6-16H36V40h4Zm0-8H34V32h6Zm0-4H30V28H40Zm-.293-8.293-3,3-1.414-1.414L37.586,21l-2.293-2.293,1.414-1.414,3,3A1,1,0,0,1,39.707,21.707Z"></path></g></svg>