<svg xmlns="http://www.w3.org/2000/svg" viewBox="0 0 64 64" x="0px" y="0px"><g><path d="M37.436,35.535a1,1,0,0,0,1.33-.482L49.757,11.49a7.013,7.013,0,0,0-3.383-9.3.991.991,0,0,0-.765-.036,1,1,0,0,0-.565.518L33.586,27.228a6.147,6.147,0,0,0-3.172,0L18.956,2.667a1,1,0,0,0-.565-.518.991.991,0,0,0-.765.036,7.014,7.014,0,0,0-3.382,9.308l10.99,23.56a1,1,0,0,0,1.331.482h0a6,6,0,0,0,2.03,2.39L26.866,41.64a1,1,0,0,0-1.327.484l-6.762,14.5a3,3,0,0,0,1.451,3.986l1.812.846a2.98,2.98,0,0,0,1.267.283,3.018,3.018,0,0,0,1.027-.182,2.987,2.987,0,0,0,1.693-1.552L32,47.2l5.973,12.808a2.994,2.994,0,0,0,3.987,1.452l1.812-.846a3,3,0,0,0,1.451-3.986l-6.762-14.5a1,1,0,0,0-1.328-.483h0l-1.731-3.7A5.934,5.934,0,0,0,37.436,35.535ZM46.39,4.513a5.016,5.016,0,0,1,1.554,6.134L37.933,32.107a5.967,5.967,0,0,0-.162-.727c-.019-.066-.041-.131-.062-.2q-.09-.28-.205-.549c-.027-.061-.051-.123-.08-.184a6.018,6.018,0,0,0-.356-.656c-.022-.035-.048-.067-.071-.1a5.83,5.83,0,0,0-.376-.507c-.049-.06-.1-.118-.151-.176a5.926,5.926,0,0,0-.416-.423c-.042-.039-.081-.08-.124-.117a5.658,5.658,0,0,0-.526-.41ZM32,29a4.01,4.01,0,0,1,4,4,3.931,3.931,0,0,1-.111.92l0,.013a3.99,3.99,0,0,1-2.056,2.62,1.364,1.364,0,0,1-.144.072,3.889,3.889,0,0,1-.83.276l-.016,0a4.081,4.081,0,0,1-1.712,0l-.02-.005a3.439,3.439,0,0,1-.771-.272.671.671,0,0,0-.11-.046l-.117-.061a3.969,3.969,0,0,1-2-2.595,3.9,3.9,0,0,1-.07-1.5,4.006,4.006,0,0,1,1.768-2.771,3.907,3.907,0,0,1,.5-.276h0l0,0A4.007,4.007,0,0,1,32,29ZM28.679,42.485,29.79,40.1,30.9,42.471l-.4.86-1.535-.714ZM16.057,10.65A5.017,5.017,0,0,1,17.61,4.513L28.6,28.061a5.882,5.882,0,0,0-.528.412c-.038.033-.072.069-.109.1a5.8,5.8,0,0,0-.433.44c-.049.054-.1.109-.143.165A6.111,6.111,0,0,0,27,29.7c-.02.03-.043.059-.063.09a6.005,6.005,0,0,0-.359.66c-.028.059-.052.119-.077.179q-.117.271-.207.553c-.021.065-.043.129-.062.2a5.925,5.925,0,0,0-.162.727Zm8.157,48.511a1,1,0,0,1-1.328.484L21.073,58.8a1,1,0,0,1-.484-1.328l6.34-13.595,1.27.592,2.355,1.1Zm19.2-1.69a1,1,0,0,1-.484,1.328l-1.813.846a1,1,0,0,1-1.328-.485l-6.34-13.595,2.355-1.1,1.27-.592ZM34.759,42.747l-1.255.584-.6-1.282v0l-1.431-3.069c.034,0,.066,0,.1,0,.141.01.281.023.425.023s.286-.013.429-.024c.055,0,.112,0,.167-.009a6.082,6.082,0,0,0,.9-.166c.03-.008.062-.009.092-.017l1.731,3.7Z"></path><circle cx="32" cy="33" r="2"></circle></g></svg>