<svg xmlns="http://www.w3.org/2000/svg" viewBox="0 0 64 64" x="0px" y="0px"><title>Toilet Papers</title><g data-name="Toilet Papers"><path d="M57,12h4a1,1,0,0,0,1-1V3a1,1,0,0,0-1-1H57a1,1,0,0,0-1,1V6H15a12.994,12.994,0,0,0-3,25.638V58a1,1,0,0,0,1,1h1.34a1,1,0,0,0,.707-.293L17,56.754l1.953,1.953A1,1,0,0,0,19.66,59h.68a1,1,0,0,0,.707-.293L23,56.754l1.953,1.953A1,1,0,0,0,25.66,59h.68a1,1,0,0,0,.707-.293L29,56.754l1.953,1.953A1,1,0,0,0,31.66,59h.68a1,1,0,0,0,.707-.293L35,56.754l1.953,1.953A1,1,0,0,0,37.66,59H39a1,1,0,0,0,1-1V43h8c5.232,0,9.532-4.85,9.958-11H62V30H57.966C57.541,23.85,53.233,19,48,19H22a8.316,8.316,0,0,0-.976.059c-.107.013-.211.038-.317.055-.212.033-.425.066-.633.116-.123.029-.242.07-.364.105-.187.053-.374.105-.557.172-.126.045-.248.1-.371.151-.174.072-.347.143-.516.226-.123.06-.243.129-.364.2-.163.089-.326.179-.484.278-.118.074-.232.154-.347.233-.155.107-.309.215-.459.331-.11.086-.218.176-.325.267-.147.124-.291.251-.432.383-.1.1-.2.195-.3.3q-.208.211-.406.436c-.091.1-.182.209-.27.317-.131.16-.256.325-.38.494-.08.109-.159.218-.236.331-.123.18-.238.365-.352.553-.068.112-.136.222-.2.337-.113.2-.219.411-.322.621-.054.11-.11.218-.162.33-.1.229-.2.465-.291.7-.039.1-.082.2-.12.3-.1.267-.18.542-.26.819-.023.08-.051.157-.073.238-.092.341-.17.688-.237,1.04,0,.022-.01.042-.014.064-.069.377-.125.761-.164,1.151A11,11,0,0,1,15,8H56v3A1,1,0,0,0,57,12Zm1-8h2v6H58ZM42.478,41H40V38.192c.052.083.11.158.163.239.08.121.161.241.245.358.116.162.236.319.358.473.088.111.175.222.267.329.133.155.272.3.412.45.089.092.175.188.266.277.168.163.343.315.519.466.072.061.14.127.213.186C42.455,40.979,42.466,40.99,42.478,41ZM55.959,30H51.737C51.4,27.081,49.614,25,48,25c-1.794,0-3.8,2.566-3.8,6s2.006,6,3.8,6a2.064,2.064,0,0,0,.565-.088c.023-.007.046-.01.069-.018a2.766,2.766,0,0,0,.533-.241c.031-.018.061-.035.091-.054a3.706,3.706,0,0,0,.5-.38l.088-.082a4.771,4.771,0,0,0,.476-.518c.021-.026.039-.053.059-.079a5.973,5.973,0,0,0,.448-.674l0,0a7.1,7.1,0,0,0,.374-.784c.014-.034.029-.066.042-.1a7.539,7.539,0,0,0,.271-.842c.013-.051.027-.1.039-.152a8.26,8.26,0,0,0,.167-.911c0-.025.01-.048.013-.074H55.96c-.4,5.046-3.818,9-7.96,9-4.411,0-8-4.486-8-10s3.589-10,8-10C52.141,21,55.557,24.954,55.959,30Zm-6.446,2.911c-.051.162-.1.321-.165.465-.032.077-.068.145-.1.216-.055.114-.11.225-.168.325-.038.065-.077.125-.116.185-.058.088-.116.171-.174.246-.038.05-.076.1-.114.142-.059.068-.116.128-.172.182-.033.032-.067.067-.1.094a1.743,1.743,0,0,1-.163.123c-.023.014-.048.035-.068.046A.465.465,0,0,1,48,35a.472.472,0,0,1-.172-.065c-.021-.011-.046-.032-.069-.047a1.719,1.719,0,0,1-.163-.122c-.032-.027-.066-.062-.1-.095-.056-.054-.113-.113-.172-.181-.038-.044-.077-.092-.115-.142-.058-.075-.116-.158-.174-.246-.039-.06-.078-.12-.116-.185-.059-.1-.114-.212-.169-.325-.034-.072-.07-.139-.1-.216-.061-.144-.114-.3-.165-.465-.02-.063-.044-.119-.062-.185a6.03,6.03,0,0,1-.15-.726h3.45a6.03,6.03,0,0,1-.15.726C49.557,32.792,49.533,32.847,49.513,32.911ZM46.271,30c.293-2,1.411-2.979,1.726-3,.32.021,1.439,1,1.732,3Zm-3.793-9A12.765,12.765,0,0,0,38,31V56.926l-2.293-2.293a1,1,0,0,0-1.414,0L32,56.926l-2.293-2.293a1,1,0,0,0-1.414,0L26,56.926l-2.293-2.293a1,1,0,0,0-1.414,0L20,56.926l-2.293-2.293a1,1,0,0,0-1.414,0L14,56.926V30.844C14.072,25.416,17.661,21,22,21Z"></path></g></svg>