<svg xmlns="http://www.w3.org/2000/svg" viewBox="0 0 64 64" x="0px" y="0px"><g data-name="Castle"><path d="M21,18.586l2.706,2.706,0,0a1,1,0,0,1,.191.283.948.948,0,0,1,.033.094,1,1,0,0,1,.054.266c0,.021.012.039.012.06V35h5a1,1,0,0,1,1,1v4h4V36a1,1,0,0,1,1-1h8V16H21ZM39,18h2v2H39Zm0,4h2v2H39Zm0,4h2v2H39Zm0,4h2v2H39ZM35,18h2v2H35Zm0,4h2v2H35Zm0,4h2v2H35Zm0,4h2v2H35ZM31,18h2v2H31Zm0,4h2v2H31Zm0,4h2v2H31Zm0,4h2v2H31ZM27,18h2v2H27Zm0,4h2v2H27Zm0,4h2v2H27Zm0,4h2v2H27ZM23,18h2v2H23Z"></path><path d="M4,60H60V37H52v4a1,1,0,0,1-1,1H45a1,1,0,0,1-1-1V37H36v4a1,1,0,0,1-1,1H29a1,1,0,0,1-1-1V37H20v4a1,1,0,0,1-1,1H13a1,1,0,0,1-1-1V37H4Z"></path><polygon points="22.414 14 41.586 14 32 4.414 22.414 14"></polygon><polygon points="9.414 21 20.586 21 15 15.414 9.414 21"></polygon><path d="M8,35h5a1,1,0,0,1,1,1v4h4V36a1,1,0,0,1,1-1h3V23H8ZM18,25h2v2H18Zm0,4h2v2H18Zm-4-4h2v2H14Zm0,4h2v2H14Zm-4-4h2v2H10Zm0,4h2v2H10Z"></path><path d="M45,35a1,1,0,0,1,1,1v4h4V36a1,1,0,0,1,1-1h4V24H45Zm6-9h2v2H51Zm0,4h2v2H51Zm-4-4h2v2H47Zm0,4h2v2H47Z"></path><polygon points="46.414 22 53.586 22 50 18.414 46.414 22"></polygon><polygon points="23 7 16 4.375 16 4 14 4 14 14 16 14 16 9.625 23 7"></polygon><polygon points="58 10 51 7.375 51 7 49 7 49 17 51 17 51 12.625 58 10"></polygon></g></svg>