<svg xmlns="http://www.w3.org/2000/svg" viewBox="0 0 64 64" x="0px" y="0px"><g><path d="M54.254,13.033c-.075-.02-7.551-1.99-9.869-2.956-7.346-3.06-9.962-5.3-10.867-6.363a2.052,2.052,0,0,0-3.036,0c-.9,1.062-3.521,3.3-10.867,6.363-2.318.966-9.794,2.936-9.869,2.956A1,1,0,0,0,9,14V36.22a18.013,18.013,0,0,0,6.294,13.67L31.405,61.8a1,1,0,0,0,1.19,0l16.17-11.961A17.986,17.986,0,0,0,55,36.22V14A1,1,0,0,0,54.254,13.033ZM53,36.22a15.964,15.964,0,0,1-5.483,12.062L32,59.757,16.542,48.329A15.989,15.989,0,0,1,11,36.22V14.769c1.992-.535,7.367-2.005,9.385-2.846C27.728,8.863,30.757,6.476,32,5.011c1.248,1.465,4.277,3.852,11.62,6.912,2.018.841,7.393,2.311,9.385,2.846Z"></path><path d="M32.608,8.279a1,1,0,0,0-1.216,0A47.2,47.2,0,0,1,21.154,13.77c-1.238.515-3.8,1.32-7.422,2.326A1,1,0,0,0,13,17.06V36.22a14.006,14.006,0,0,0,4.735,10.5c.022.018.044.037.067.054l13.6,10.059a1,1,0,0,0,1.19,0l13.67-10.113A14.006,14.006,0,0,0,51,36.22V17.06a1,1,0,0,0-.732-.964c-3.616-1.006-6.183-1.81-7.422-2.326A47.2,47.2,0,0,1,32.608,8.279ZM49,36.22a11.975,11.975,0,0,1-3.992,8.942L32,54.781,19.027,45.188A12,12,0,0,1,15,36.22v-18.4c2.46-.693,5.417-1.575,6.923-2.2A51.944,51.944,0,0,0,32,10.317a51.914,51.914,0,0,0,10.077,5.3c1.507.628,4.464,1.51,6.923,2.2Z"></path><path d="M36,31H33V28a1,1,0,0,0-2,0v3H28a1,1,0,0,0,0,2h3v3a1,1,0,0,0,2,0V33h3a1,1,0,0,0,0-2Z"></path><path d="M32,21A11,11,0,1,0,43,32,11.013,11.013,0,0,0,32,21Zm0,20a9,9,0,1,1,9-9A9.01,9.01,0,0,1,32,41Z"></path></g></svg>