<svg xmlns="http://www.w3.org/2000/svg" viewBox="0 0 64 64" x="0px" y="0px"><g data-name="First Aid-Bag-Medical-EmergencyHealth"><path d="M45.818,29H18.182a2.986,2.986,0,0,0-2.923,2.325L10.257,53H53.743l-5-21.674A2.986,2.986,0,0,0,45.818,29ZM38,44a1,1,0,0,1-1,1H35v2a1,1,0,0,1-1,1H30a1,1,0,0,1-1-1V45H27a1,1,0,0,1-1-1V40a1,1,0,0,1,1-1h2V37a1,1,0,0,1,1-1h4a1,1,0,0,1,1,1v2h2a1,1,0,0,1,1,1Z"></path><rect x="24" y="11" width="16" height="2"></rect><path d="M18,27.015V21H13.8a3.017,3.017,0,0,0-2.821,1.975L4.78,40.022A13.2,13.2,0,0,0,4,44.47V53H8.2L13.31,30.875A4.969,4.969,0,0,1,18,27.015Z"></path><path d="M33,40V38H31v2a1,1,0,0,1-1,1H28v2h2a1,1,0,0,1,1,1v2h2V44a1,1,0,0,1,1-1h2V41H34A1,1,0,0,1,33,40Z"></path><rect x="24" y="21" width="16" height="6"></rect><path d="M42,11.171V27h2V14A3.006,3.006,0,0,0,42,11.171Z"></path><path d="M20,27h2V11.171A3.006,3.006,0,0,0,20,14Z"></path><path d="M60,53V44.47a13.2,13.2,0,0,0-.782-4.453l-6.2-17.045A3.016,3.016,0,0,0,50.2,21H46v6.015a4.969,4.969,0,0,1,4.69,3.861L55.8,53Z"></path></g></svg>