<svg xmlns="http://www.w3.org/2000/svg" viewBox="0 0 64 64" x="0px" y="0px"><g><path d="M51,2H13A5.006,5.006,0,0,0,8,7V57a5.006,5.006,0,0,0,5,5H51a5.006,5.006,0,0,0,5-5V7A5.006,5.006,0,0,0,51,2Zm3,55a3,3,0,0,1-3,3H13a3,3,0,0,1-3-3V7a3,3,0,0,1,3-3H51a3,3,0,0,1,3,3Z"></path><path d="M50,6H14a2,2,0,0,0-2,2V48a2,2,0,0,0,2,2H50a2,2,0,0,0,2-2V8A2,2,0,0,0,50,6Zm0,42H14V8H50Z"></path><path d="M34,52H30a3,3,0,0,0,0,6h4a3,3,0,0,0,0-6Zm0,4H30a1,1,0,0,1,0-2h4a1,1,0,0,1,0,2Z"></path><path d="M19,22H31a1,1,0,0,0,1-1V13a1,1,0,0,0-1-1H19a1,1,0,0,0-1,1v8A1,1,0,0,0,19,22Zm1-8H30v6H20Z"></path><rect x="34" y="20" width="12" height="2"></rect><rect x="34" y="16" width="8" height="2"></rect><rect x="44" y="16" width="2" height="2"></rect><rect x="34" y="12" width="2" height="2"></rect><rect x="38" y="12" width="8" height="2"></rect><rect x="24" y="26" width="22" height="2"></rect><rect x="18" y="30" width="24" height="2"></rect><rect x="44" y="30" width="2" height="2"></rect><rect x="18" y="34" width="28" height="2"></rect><rect x="18" y="38" width="28" height="2"></rect><rect x="18" y="42" width="24" height="2"></rect></g></svg>