<svg xmlns="http://www.w3.org/2000/svg" viewBox="0 0 64 64" x="0px" y="0px"><g data-name="Car Cleaning"><path d="M59,47H58V46A11.015,11.015,0,0,0,48,35.045V32a9.01,9.01,0,0,0-9-9H25a9.01,9.01,0,0,0-9,9v3.045A11.015,11.015,0,0,0,6,46v1H5a3.015,3.015,0,0,0-3,3,3,3,0,0,0,3,3h7.09a5.993,5.993,0,0,0,11.82,0H40.09a5.993,5.993,0,0,0,11.82,0H59a3,3,0,0,0,3-3,3.015,3.015,0,0,0-3-3ZM4,50a.977.977,0,0,1,.307-.713A.959.959,0,0,1,5,49H7a1,1,0,0,1,1,1,.977.977,0,0,1-.307.713A.959.959,0,0,1,7,51H5A1,1,0,0,1,4,50Zm14,6a4,4,0,1,1,4-4A4,4,0,0,1,18,56Zm28,0a4,4,0,1,1,4-4A4,4,0,0,1,46,56Zm5.917-5c0-.023-.013-.044-.018-.067a5.987,5.987,0,0,0-.232-.887c-.018-.052-.038-.1-.057-.156a6.058,6.058,0,0,0-.382-.825c-.022-.038-.046-.074-.068-.112a6.053,6.053,0,0,0-.539-.775l-.017-.019a5.976,5.976,0,0,0-.661-.67c-.027-.024-.051-.049-.078-.071a6.01,6.01,0,0,0-.743-.532c-.044-.027-.087-.054-.132-.08a5.933,5.933,0,0,0-.815-.392l-.149-.055a6.03,6.03,0,0,0-.9-.249c-.04-.008-.08-.012-.12-.019a5.617,5.617,0,0,0-2.014,0c-.04.007-.08.011-.12.019a6.03,6.03,0,0,0-.9.249l-.149.055a5.933,5.933,0,0,0-.815.392c-.045.026-.088.053-.132.08a6.01,6.01,0,0,0-.743.532c-.027.022-.051.047-.078.071a5.976,5.976,0,0,0-.661.67l-.017.019a5.965,5.965,0,0,0-.539.776c-.022.037-.046.073-.067.111a5.892,5.892,0,0,0-.383.825c-.019.052-.039.1-.057.156a5.987,5.987,0,0,0-.232.887c-.005.023-.014.044-.018.067H31V40a1,1,0,0,0-2,0V51H23.917c0-.023-.013-.044-.018-.067a5.987,5.987,0,0,0-.232-.887c-.018-.052-.038-.1-.057-.156a6.058,6.058,0,0,0-.382-.825c-.022-.038-.046-.074-.068-.112a6.053,6.053,0,0,0-.539-.775l-.017-.019a5.976,5.976,0,0,0-.661-.67c-.027-.024-.051-.049-.078-.071a6.01,6.01,0,0,0-.743-.532c-.044-.027-.087-.054-.132-.08a5.933,5.933,0,0,0-.815-.392l-.149-.055a6.03,6.03,0,0,0-.9-.249c-.04-.008-.08-.012-.12-.019a5.617,5.617,0,0,0-2.014,0c-.04.007-.08.011-.12.019a6.03,6.03,0,0,0-.9.249l-.149.055a5.933,5.933,0,0,0-.815.392c-.045.026-.088.053-.132.08a6.01,6.01,0,0,0-.743.532c-.027.022-.051.047-.078.071a5.976,5.976,0,0,0-.661.67l-.017.019a5.965,5.965,0,0,0-.539.776c-.022.037-.046.073-.067.111a5.892,5.892,0,0,0-.383.825c-.019.052-.039.1-.057.156a5.987,5.987,0,0,0-.232.887c-.005.023-.014.044-.018.067H9.83a2.661,2.661,0,0,0,.069-.266c.015-.059.035-.116.046-.177A3.014,3.014,0,0,0,10,50a2.941,2.941,0,0,0-.056-.551c-.01-.056-.026-.109-.04-.164a2.781,2.781,0,0,0-.112-.36c-.022-.057-.044-.113-.069-.168a3.065,3.065,0,0,0-.184-.338c-.026-.041-.048-.085-.076-.125a3.14,3.14,0,0,0-.333-.4c-.021-.021-.045-.037-.066-.058a3.017,3.017,0,0,0-.338-.279c-.046-.033-.094-.061-.142-.091a2.956,2.956,0,0,0-.328-.178c-.052-.024-.1-.048-.156-.07-.034-.013-.065-.032-.1-.044V46a9.01,9.01,0,0,1,9-9,1,1,0,0,0,1-1V32a7.009,7.009,0,0,1,7-7H39a7.009,7.009,0,0,1,7,7v4a1,1,0,0,0,1,1,9.01,9.01,0,0,1,9,9v1H55a3,3,0,0,0-3,3,3.1,3.1,0,0,0,.054.556c.012.062.032.121.047.181.022.088.038.178.068.263ZM59,51H55a.977.977,0,0,1-.713-.307A.959.959,0,0,1,54,50a1,1,0,0,1,1-1h4a.977.977,0,0,1,.713.307A.959.959,0,0,1,60,50,1,1,0,0,1,59,51Z"></path><circle cx="18" cy="52" r="2"></circle><circle cx="46" cy="52" r="2"></circle><path d="M38,27H26a6.006,6.006,0,0,0-6,6v3a1,1,0,0,0,1,1H43a1,1,0,0,0,1-1V33A6.006,6.006,0,0,0,38,27ZM22,33a4,4,0,0,1,4-4h3v6H22Zm20,2H31V29h7a4,4,0,0,1,4,4Z"></path><path d="M53,46a1,1,0,0,0,1-1V43a1,1,0,0,0-2,0v2A1,1,0,0,0,53,46Z"></path><path d="M40,13a3,3,0,1,0-3-3A3,3,0,0,0,40,13Zm0-4a1,1,0,1,1-1,1A1,1,0,0,1,40,9Z"></path><path d="M59,29a3,3,0,1,0-3-3A3,3,0,0,0,59,29Zm0-4a1,1,0,1,1-1,1A1,1,0,0,1,59,25Z"></path><path d="M27,14a1,1,0,0,0,1-1V12a1,1,0,0,0-2,0v1A1,1,0,0,0,27,14Z"></path><path d="M24,16h1a1,1,0,0,0,0-2H24a1,1,0,0,0,0,2Z"></path><path d="M27,16a1,1,0,0,0-1,1v1a1,1,0,0,0,2,0V17A1,1,0,0,0,27,16Z"></path><path d="M29,16h1a1,1,0,0,0,0-2H29a1,1,0,0,0,0,2Z"></path><path d="M50,18a1,1,0,0,0,1-1V16a1,1,0,0,0-2,0v1A1,1,0,0,0,50,18Z"></path><path d="M47,20h1a1,1,0,0,0,0-2H47a1,1,0,0,0,0,2Z"></path><path d="M50,20a1,1,0,0,0-1,1v1a1,1,0,0,0,2,0V21A1,1,0,0,0,50,20Z"></path><path d="M52,20h1a1,1,0,0,0,0-2H52a1,1,0,0,0,0,2Z"></path><path d="M9,19a1,1,0,0,0,1-1V17a1,1,0,0,0-2,0v1A1,1,0,0,0,9,19Z"></path><path d="M6.172,19.586a1,1,0,0,0,1.414-1.414l-.707-.707a1,1,0,0,0-1.414,1.414Z"></path><path d="M5,22H6a1,1,0,0,0,0-2H5a1,1,0,0,0,0,2Z"></path><path d="M6.172,22.414l-.707.707a1,1,0,1,0,1.414,1.414l.707-.707a1,1,0,0,0-1.414-1.414Z"></path><path d="M9,26a1,1,0,0,0,1-1V24a1,1,0,0,0-2,0v1A1,1,0,0,0,9,26Z"></path><path d="M11.121,24.535a1,1,0,0,0,1.414-1.414l-.707-.707a1,1,0,0,0-1.414,1.414Z"></path><path d="M11,21a1,1,0,0,0,1,1h1a1,1,0,0,0,0-2H12A1,1,0,0,0,11,21Z"></path><path d="M11.121,19.879a1,1,0,0,0,.707-.293l.707-.707a1,1,0,0,0-1.414-1.414l-.707.707a1,1,0,0,0,.707,1.707Z"></path></g></svg>