<svg xmlns="http://www.w3.org/2000/svg" viewBox="0 0 64 64" x="0px" y="0px"><g><path d="M61,47H59V14a5.006,5.006,0,0,0-5-5H10a5.006,5.006,0,0,0-5,5V47H3a1,1,0,0,0-1,1v4a3,3,0,0,0,3,3H59a3,3,0,0,0,3-3V48A1,1,0,0,0,61,47ZM7,14a3,3,0,0,1,3-3H54a3,3,0,0,1,3,3V47H7ZM36,49a1,1,0,0,1-1,1H29a1,1,0,0,1-1-1Zm24,3a1,1,0,0,1-1,1H5a1,1,0,0,1-1-1V49H26a3,3,0,0,0,3,3h6a3,3,0,0,0,3-3H60Z"></path><path d="M46,15H18a3,3,0,0,0-3,3V34a3,3,0,0,0,3,3h5v5a1,1,0,0,0,1.707.707L30.414,37H46a3,3,0,0,0,3-3V18A3,3,0,0,0,46,15Zm1,19a1,1,0,0,1-1,1H30a1,1,0,0,0-.707.293L25,39.586V36a1,1,0,0,0-1-1H18a1,1,0,0,1-1-1V18a1,1,0,0,1,1-1H46a1,1,0,0,1,1,1Z"></path><rect x="21" y="21" width="22" height="2"></rect><rect x="21" y="25" width="22" height="2"></rect><rect x="21" y="29" width="22" height="2"></rect></g></svg>