<svg xmlns="http://www.w3.org/2000/svg" viewBox="0 0 64 64" x="0px" y="0px"><g><path d="M20.958,50.971a1,1,0,0,0,0,1.414L22.372,53.8a1,1,0,0,0,1.415,0L35.582,42a.993.993,0,0,1,1.042-.235,6.03,6.03,0,0,0,6.255-1.405,5.942,5.942,0,0,0,1.752-4.581l-2.459,2.459a1,1,0,0,1-.9.274l-3.537-.707a1,1,0,0,1-.784-.785l-.707-3.535a1,1,0,0,1,.274-.9l2.459-2.459c-.122-.008-.245-.012-.366-.012a5.94,5.94,0,0,0-4.214,1.764,6.025,6.025,0,0,0-1.405,6.254,1,1,0,0,1-.235,1.042Z"></path><path d="M60,32A12.01,12.01,0,0,1,48,44H39.9a7.961,7.961,0,0,0,6.27-10.56.989.989,0,0,0-.72-.64.971.971,0,0,0-.93.27l-3.38,3.38-2.36-.47-.47-2.36,3.38-3.38a1,1,0,0,0-.37-1.65,7.935,7.935,0,0,0-8.34,1.87,8.042,8.042,0,0,0-2.07,7.73L25.1,44H13a9,9,0,0,1-2.6-17.62.987.987,0,0,0,.71-.82A11.007,11.007,0,0,1,22,16c.15,0,.3.01.45.02l.21.01a1.017,1.017,0,0,0,.95-.53,13.985,13.985,0,0,1,26.15,3.98.994.994,0,0,0,.77.79A12.053,12.053,0,0,1,60,32Z"></path></g></svg>