<svg xmlns="http://www.w3.org/2000/svg" viewBox="0 0 64 64" x="0px" y="0px"><g data-name="Browser"><rect x="10" y="18" width="26" height="18"></rect><rect x="10" y="42" width="10" height="12"></rect><rect x="42" y="42" width="12" height="12"></rect><rect x="26" y="42" width="10" height="12"></rect><path d="M4,60H60V12H4Zm34-4H24V40H38Zm6-40H56v2H44Zm-4,0h2v2H40Zm0,4H56v2H40Zm0,4H56v2H40Zm0,4H56v2H40Zm0,4H56v2H40Zm0,4H56v2H40Zm0,4H56V56H40ZM8,16H38V38H8ZM8,40H22V56H8Z"></path><path d="M60,4H4v6H60ZM8,8H6V6H8Zm4,0H10V6h2Zm4,0H14V6h2ZM58,8H56V6h2Z"></path></g></svg>