<svg xmlns="http://www.w3.org/2000/svg" viewBox="0 0 64 64" x="0px" y="0px"><g><path d="M60,40A21.027,21.027,0,0,0,40,19.023v23.39a.969.969,0,0,0,.472.845,16.927,16.927,0,0,1,8.287,11.878,1.014,1.014,0,0,0,.986.864H53a7.008,7.008,0,0,0,7-7Z"></path><path d="M23.528,43.258A.969.969,0,0,0,24,42.413V19.023A21.027,21.027,0,0,0,4,40v9a7.008,7.008,0,0,0,7,7h3.255a1.014,1.014,0,0,0,.986-.864A16.927,16.927,0,0,1,23.528,43.258Z"></path><polygon points="34 32 34 4 30 4 30 32 26 32 26 34 38 34 38 32 34 32"></polygon></g></svg>