<svg xmlns="http://www.w3.org/2000/svg" viewBox="0 0 64 64" x="0px" y="0px"><g><rect x="44" y="30" width="6" height="4"></rect><path d="M4,47a1,1,0,0,0,1,1H59a1,1,0,0,0,1-1V42H4Zm48-3h4v2H52Z"></path><polygon points="24.883 50 24.133 56 39.867 56 39.117 50 24.883 50"></polygon><rect x="27" y="14" width="10" height="6"></rect><polygon points="42 58 22 58 22 60 16 60 16 62 48 62 48 60 42 60 42 58"></polygon><rect x="14" y="30" width="6" height="4"></rect><rect x="29" y="30" width="6" height="4"></rect><path d="M5,8A1,1,0,0,0,4,9V40H60V9a1,1,0,0,0-1-1ZM52,35a1,1,0,0,1-1,1H43a1,1,0,0,1-1-1V29a1,1,0,0,1,1-1h3V26H33v2h3a1,1,0,0,1,1,1v6a1,1,0,0,1-1,1H28a1,1,0,0,1-1-1V29a1,1,0,0,1,1-1h3V26H18v2h3a1,1,0,0,1,1,1v6a1,1,0,0,1-1,1H13a1,1,0,0,1-1-1V29a1,1,0,0,1,1-1h3V25a1,1,0,0,1,1-1H31V22H26a1,1,0,0,1-1-1V13a1,1,0,0,1,1-1H38a1,1,0,0,1,1,1v8a1,1,0,0,1-1,1H33v2H47a1,1,0,0,1,1,1v3h3a1,1,0,0,1,1,1Z"></path></g></svg>