<svg xmlns="http://www.w3.org/2000/svg" viewBox="0 0 64 64" x="0px" y="0px"><g><path d="M46,2H18a6.006,6.006,0,0,0-6,6V56a6.006,6.006,0,0,0,6,6H46a6.006,6.006,0,0,0,6-6V8A6.006,6.006,0,0,0,46,2Zm4,54a4,4,0,0,1-4,4H18a4,4,0,0,1-4-4V8a4,4,0,0,1,4-4H46a4,4,0,0,1,4,4Z"></path><path d="M34,52H30a3,3,0,0,0,0,6h4a3,3,0,0,0,0-6Zm0,4H30a1,1,0,0,1,0-2h4a1,1,0,0,1,0,2Z"></path><rect x="25" y="6" width="2" height="2"></rect><rect x="29" y="6" width="6" height="2"></rect><path d="M44,30A12,12,0,1,0,32,42,12.013,12.013,0,0,0,44,30Zm-8.062-9.189a9.966,9.966,0,0,1,2.045,1.2,9.87,9.87,0,0,1-1.144.744A11.941,11.941,0,0,0,35.938,20.811Zm-.957,2.738a10.229,10.229,0,0,1-5.962,0C29.807,21.351,30.939,20,32,20S34.193,21.351,34.981,23.549Zm-7.82-.8a9.87,9.87,0,0,1-1.144-.744,9.966,9.966,0,0,1,2.045-1.2A11.941,11.941,0,0,0,27.161,22.751Zm1.315,2.727a12.156,12.156,0,0,0,7.048,0A20.557,20.557,0,0,1,35.977,29H28.023A20.557,20.557,0,0,1,28.476,25.478ZM35.977,31a20.582,20.582,0,0,1-.453,3.524,12.232,12.232,0,0,0-7.048,0A20.568,20.568,0,0,1,28.023,31Zm-7.915,8.189a9.966,9.966,0,0,1-2.045-1.2,9.87,9.87,0,0,1,1.144-.744A11.941,11.941,0,0,0,28.062,39.189Zm.957-2.738a10.229,10.229,0,0,1,5.962,0C34.193,38.649,33.061,40,32,40S29.807,38.649,29.019,36.451Zm7.82.8a9.87,9.87,0,0,1,1.144.744,9.966,9.966,0,0,1-2.045,1.2A11.941,11.941,0,0,0,36.839,37.249Zm.58-1.956A22.638,22.638,0,0,0,37.976,31h3.973a9.949,9.949,0,0,1-2.471,5.616A11.891,11.891,0,0,0,37.419,35.293ZM41.949,29H37.976a22.638,22.638,0,0,0-.557-4.293,11.87,11.87,0,0,0,2.059-1.323A9.949,9.949,0,0,1,41.949,29ZM24.522,23.384a11.891,11.891,0,0,0,2.059,1.323A22.638,22.638,0,0,0,26.024,29H22.051A9.949,9.949,0,0,1,24.522,23.384ZM22.051,31h3.973a22.638,22.638,0,0,0,.557,4.293,11.87,11.87,0,0,0-2.059,1.323A9.949,9.949,0,0,1,22.051,31Z"></path><rect x="31" y="14" width="2" height="2"></rect><rect x="23.5" y="16.01" width="2" height="2" transform="translate(-5.222 14.526) rotate(-29.995)"></rect><rect x="18.01" y="21.5" width="2" height="2" transform="translate(-9.98 27.716) rotate(-60.005)"></rect><rect x="16" y="29" width="2" height="2"></rect><rect x="18.01" y="36.5" width="2" height="2" transform="translate(-16.201 14.526) rotate(-29.995)"></rect><rect x="23.5" y="41.99" width="2" height="2" transform="translate(-24.981 42.717) rotate(-60.005)"></rect><rect x="31" y="44" width="2" height="2"></rect><rect x="38.5" y="41.99" width="2" height="2" transform="translate(-16.201 25.504) rotate(-29.995)"></rect><rect x="43.99" y="36.5" width="2" height="2" transform="translate(-9.979 57.718) rotate(-60.005)"></rect><rect x="46" y="29" width="2" height="2"></rect><rect x="43.99" y="21.5" width="2" height="2" transform="translate(-5.223 25.505) rotate(-29.995)"></rect><rect x="38.5" y="16.01" width="2" height="2" transform="translate(5.021 42.716) rotate(-60.005)"></rect></g></svg>