<svg xmlns="http://www.w3.org/2000/svg" viewBox="0 0 64 64" x="0px" y="0px"><g data-name="Big Ben-Landmark-England-Travel-London"><rect x="21" y="24" width="2" height="2"></rect><rect x="28" y="14" width="8" height="2"></rect><rect x="21" y="46" width="2" height="2"></rect><polygon points="24.14 22 39.87 22 36.53 18 27.47 18 24.14 22"></polygon><polygon points="41 60 41 50 23 50 23 60 25 60 25 52 27 52 27 60 29 60 29 52 31 52 31 60 33 60 33 52 35 52 35 60 37 60 37 52 39 52 39 60 41 60"></polygon><rect x="41" y="46" width="2" height="2"></rect><rect x="20" y="28" width="2" height="16"></rect><rect x="42" y="28" width="2" height="16"></rect><rect x="37" y="24" width="2" height="2"></rect><rect x="41" y="24" width="2" height="2"></rect><rect x="37" y="46" width="2" height="2"></rect><rect x="29" y="46" width="2" height="2"></rect><path d="M24,44H40V28H24Zm8-14a6,6,0,1,1-6,6A6.006,6.006,0,0,1,32,30Z"></path><rect x="33" y="46" width="2" height="2"></rect><rect x="33" y="24" width="2" height="2"></rect><rect x="25" y="24" width="2" height="2"></rect><rect x="29" y="24" width="2" height="2"></rect><path d="M32,40a4,4,0,1,0-4-4A4,4,0,0,0,32,40Zm-1-6h2v1.382l1.447.723-.894,1.79-2-1A1,1,0,0,1,31,36Z"></path><rect x="25" y="46" width="2" height="2"></rect><polygon points="35.2 12 33 8.487 33 3 31 3 31 8.487 28.8 12 35.2 12"></polygon><rect x="42" y="17" width="2" height="5"></rect><rect x="20" y="17" width="2" height="5"></rect></g></svg>