<svg xmlns="http://www.w3.org/2000/svg" viewBox="0 0 64 64" x="0px" y="0px"><g data-name="Valve-Pipe-Water-Water Drop-Plumbering"><path d="M36,53a2,2,0,0,0,4,0c0-1.1-2-4-2-4S36,51.9,36,53Z"></path><path d="M37,43c0-1.1-2-4-2-4s-2,2.9-2,4a2,2,0,0,0,4,0Z"></path><path d="M28,50a2,2,0,0,0,4,0c0-1.1-2-4-2-4S28,48.9,28,50Z"></path><rect x="43" y="24" width="2" height="12"></rect><path d="M41,34V26H23v8h8V33a1.033,1.033,0,0,1,.29-.71l4-4a1,1,0,0,1,1.09-.21A.987.987,0,0,1,37,29v5ZM27,32H25V30h2Z"></path><polygon points="33 33.41 33 34 35 34 35 31.41 33 33.41"></polygon><polygon points="20 9 20 11.31 27.18 14 36.82 14 44 11.31 44 9 41 9 41 11 39 11 39 9 37 9 37 11 35 11 35 9 33 9 33 11 31 11 31 9 29 9 29 11 27 11 27 9 25 9 25 11 23 11 23 9 20 9"></polygon><rect x="55" y="27" width="5" height="6"></rect><path d="M53,26a1,1,0,0,0-1-1H47V35h5a1,1,0,0,0,1-1Zm-2,3H49V27h2Z"></path><path d="M12,35h5V25H12a1,1,0,0,0-1,1v8A1,1,0,0,0,12,35Zm1-8h2v2H13Z"></path><rect x="4" y="27" width="5" height="6"></rect><rect x="19" y="24" width="2" height="12"></rect><path d="M36,16H28v4h2V19a1,1,0,0,1,1-1h5Z"></path><path d="M31,22H29v2h6V20H32v1A1,1,0,0,1,31,22Z"></path></g></svg>