<svg xmlns="http://www.w3.org/2000/svg" viewBox="0 0 64 64" x="0px" y="0px"><g data-name="Truck"><path d="M26,39a4,4,0,1,0,4,4A4,4,0,0,0,26,39Zm1,5H25V42h2Z"></path><rect x="36" y="38" width="2" height="4"></rect><path d="M12,39a4,4,0,1,0,4,4A4,4,0,0,0,12,39Zm1,5H11V42h2Z"></path><rect x="56" y="32" width="4" height="2"></rect><path d="M34,42V33H30.414l-1.707,1.707A1,1,0,0,1,28,35H4v7H6.09a5.993,5.993,0,0,1,11.82,0h2.18a5.993,5.993,0,0,1,11.82,0Z"></path><path d="M49,37a6.006,6.006,0,0,1,6,6V42h4a1,1,0,0,0,1-1V40H57V38h3V36H56a2,2,0,0,1-2-2V32a2,2,0,0,1,2-2h4V28.108c0-.037-.013-.072-.015-.108H43a1,1,0,0,1-1-1V17H40V42h3v1A6.006,6.006,0,0,1,49,37Zm-7-5V30h4v2Z"></path><path d="M54.687,17.524A1,1,0,0,0,53.808,17H44v9H59.267Z"></path><path d="M49,39a4,4,0,1,0,4,4A4,4,0,0,0,49,39Zm1,5H48V42h2Z"></path></g></svg>