<svg xmlns="http://www.w3.org/2000/svg" viewBox="0 0 64 64" x="0px" y="0px"><g data-name="Smart Home-Working At Home-Home Office-Laptop-Online"><path d="M27.03,46.76A1,1,0,0,1,28,46h8a1,1,0,0,1,.97.76L37.78,50h8.78l-2.25-6H19.69l-2.25,6h8.78Z"></path><path d="M44,27a1,1,0,0,0-1-1H21a1,1,0,0,0-1,1V42H44ZM33,39H31V37h2Zm1.122-3.122a3.006,3.006,0,0,0-4.244,0l-1.414-1.414a5.008,5.008,0,0,1,7.072,0ZM36.95,33.05a7,7,0,0,0-9.9,0l-1.414-1.414a9,9,0,0,1,12.728,0Z"></path><polygon points="28.28 50 35.72 50 35.22 48 28.78 48 28.28 50"></polygon><path d="M59.7,26.43,32.64,3.84A1,1,0,0,0,32,3.61a1.025,1.025,0,0,0-.64.23L4.38,26.48a1.083,1.083,0,0,0-.31,1.33,1,1,0,0,0,.7.49.986.986,0,0,0,.81-.22L31.35,6.24a.987.987,0,0,1,1.29,0L58.42,27.96a1,1,0,0,0,1.28-1.53Z"></path><path d="M17,53a1,1,0,0,0,1,1H46a1,1,0,0,0,1-1V52H17Z"></path><path d="M54,59V26.85L32,8.31,10,26.96V59a1,1,0,0,0,1,1H53A1,1,0,0,0,54,59Zm-5-6a3.009,3.009,0,0,1-3,3H18a3.009,3.009,0,0,1-3-3V51a1.03,1.03,0,0,1,.06-.35L18,42.82V27a3.009,3.009,0,0,1,3-3H43a3.009,3.009,0,0,1,3,3V42.82l2.94,7.83A1.03,1.03,0,0,1,49,51Z"></path></g></svg>