<svg xmlns="http://www.w3.org/2000/svg" viewBox="0 0 64 64" x="0px" y="0px"><g data-name="Quality Education"><path d="M51,45a5,5,0,1,0-5,5A5.006,5.006,0,0,0,51,45Zm-5,4a4,4,0,1,1,4-4A4,4,0,0,1,46,49Z"></path><path d="M44,51.705v3.426l1.445-.963a1,1,0,0,1,1.11,0L48,55.131V51.705a6.927,6.927,0,0,1-4,0Z"></path><path d="M59,13.03V47a1,1,0,0,1-1,1H55V46h2V12H35V46h2v2H35v1h5.27A6.9,6.9,0,0,1,39,45a7,7,0,0,1,14,0,6.9,6.9,0,0,1-1.27,4H60V13.03ZM45,16H55v2H45Zm-8,0h6v2H37Zm0,4H55v2H37Zm0,4H55v2H37Zm0,4H55v2H37Zm0,6V32H55v2Z"></path><path d="M29,46V12H7V46ZM25,16h2v2H25Zm-8,0h6v2H17Zm0,4H27v2H17Zm0,4H27v2H17Zm0,4H27v2H17Zm0,4H27v2H17Zm0,4H27v2H17Zm0,4H27v2H17ZM9,17a3,3,0,0,1,6,0V38a1.012,1.012,0,0,1-.071.372l-2,5a1,1,0,0,1-1.858,0l-2-5A1.012,1.012,0,0,1,9,38Z"></path><path d="M33,14H31V49a1,1,0,0,0,2,0Z"></path><path d="M13,17a1,1,0,0,0-2,0v1h2Z"></path><rect x="11" y="20" width="2" height="16"></rect><circle cx="46" cy="45" r="2"></circle><path d="M29,48v1H4V13.03H5V47a1,1,0,0,0,1,1Z"></path><polygon points="12 40.308 12.923 38 11.077 38 12 40.308"></polygon></g></svg>