<svg xmlns="http://www.w3.org/2000/svg" viewBox="0 0 64 64" x="0px" y="0px"><g><path d="M61.813,54.419l-10-14A1,1,0,0,0,51,40H50V38h7a1,1,0,0,0,1-1V33a1,1,0,0,0-1-1H47V9a2,2,0,0,0-2-2H19a2,2,0,0,0-2,2V32H7a1,1,0,0,0-1,1v4a1,1,0,0,0,1,1h7v2H13a1,1,0,0,0-.813.419l-10,14A.994.994,0,0,0,2,55v6a1,1,0,0,0,1,1H61a1,1,0,0,0,1-1V55A.994.994,0,0,0,61.813,54.419ZM37,13h8v2H37Zm8-2H37V9h8ZM35,9V19H29V9Zm-8,6H19V13h8Zm0-6v2H19V9Zm-8,8h8v2a2,2,0,0,0,2,2h6a2,2,0,0,0,2-2V17h8V32H19ZM8,34H56v2H8Zm8,4H48v2H16Zm-2.485,4h36.97l8.572,12H4.943ZM4,60V56H60v4Z"></path><path d="M18,52H46a1,1,0,0,0,1-1V45a1,1,0,0,0-1-1H18a1,1,0,0,0-1,1v6A1,1,0,0,0,18,52Zm1-6H45v4H19Z"></path><rect x="31" y="47" width="2" height="2"></rect><rect x="35" y="47" width="2" height="2"></rect><rect x="27" y="47" width="2" height="2"></rect><rect x="39" y="28" width="4" height="2"></rect><rect x="35" y="28" width="2" height="2"></rect><path d="M55,24a1,1,0,0,0,.707-.293l4.242-4.243L58.535,18.05,56,20.586V5H54V20.586L51.465,18.05l-1.414,1.414,4.242,4.243A1,1,0,0,0,55,24Z"></path><path d="M9,24a1,1,0,0,0,.707-.293l4.242-4.243L12.535,18.05,10,20.586V5H8V20.586L5.465,18.05,4.051,19.464l4.242,4.243A1,1,0,0,0,9,24Z"></path></g></svg>