<svg xmlns="http://www.w3.org/2000/svg" viewBox="0 0 64 64" x="0px" y="0px"><g><path d="M38,59a1,1,0,0,1-1,1H5a1,1,0,0,1-1-1V17a1,1,0,0,1,1-1H8v6a1,1,0,0,0,1.832.555L11,20.8l1.168,1.752A1,1,0,0,0,14,22V16H37a1,1,0,0,1,1,1v3h2V17a3,3,0,0,0-3-3H22V5a1,1,0,0,1,1-1h3v6a1,1,0,0,0,1.832.555L29,8.8l1.168,1.752A1,1,0,0,0,32,10V4H55a1,1,0,0,1,1,1V26h2V5a3,3,0,0,0-3-3H23a3,3,0,0,0-3,3v9H5a3,3,0,0,0-3,3V59a3,3,0,0,0,3,3H37a3,3,0,0,0,3-3V56H38ZM30,4V6.7l-.168-.252a1,1,0,0,0-1.664,0L28,6.7V4ZM12,16v2.7l-.168-.252a1,1,0,0,0-1.664,0L10,18.7V16Z"></path><rect x="8" y="26" width="6" height="2"></rect><rect x="16" y="26" width="8" height="2"></rect><rect x="8" y="30" width="20" height="2"></rect><path d="M61,28H52V23a1,1,0,0,0-1-1H41a1,1,0,0,0-1,1v5H31a1,1,0,0,0-1,1v6a1,1,0,0,0,.713.958l.287.086V51a3,3,0,0,0,3,3H58a3,3,0,0,0,3-3V36.044l.287-.086A1,1,0,0,0,62,35V29A1,1,0,0,0,61,28ZM42,24h8v4H42ZM32,30H60v4.256L50.854,37H41.146L32,34.256ZM59,51a1,1,0,0,1-1,1H34a1,1,0,0,1-1-1V36.644l7.713,2.314A1.027,1.027,0,0,0,41,39H51a1.027,1.027,0,0,0,.287-.042L59,36.644Z"></path><path d="M28,48a1,1,0,0,0,1-1V43a1,1,0,0,0-1-1H26.478a9.008,9.008,0,0,0-.362-.873l1.076-1.077a1,1,0,0,0,0-1.414l-2.828-2.828a1,1,0,0,0-1.414,0l-1.077,1.076A9.008,9.008,0,0,0,21,36.522V35a1,1,0,0,0-1-1H16a1,1,0,0,0-1,1v1.522a9.008,9.008,0,0,0-.873.362L13.05,35.808a1,1,0,0,0-1.414,0L8.808,38.636a1,1,0,0,0,0,1.414l1.076,1.077A9.008,9.008,0,0,0,9.522,42H8a1,1,0,0,0-1,1v4a1,1,0,0,0,1,1H9.522a9.008,9.008,0,0,0,.362.873L8.808,49.95a1,1,0,0,0,0,1.414l2.828,2.828a1,1,0,0,0,1.414,0l1.077-1.076a9.008,9.008,0,0,0,.873.362V55a1,1,0,0,0,1,1h4a1,1,0,0,0,1-1V53.478a9.008,9.008,0,0,0,.873-.362l1.077,1.076a1,1,0,0,0,1.414,0l2.828-2.828a1,1,0,0,0,0-1.414l-1.076-1.077A9.008,9.008,0,0,0,26.478,48Zm-2.262-2a1,1,0,0,0-.967.75,7,7,0,0,1-.747,1.8,1,1,0,0,0,.155,1.216l.892.892-1.414,1.414-.892-.892a1,1,0,0,0-1.216-.155,7,7,0,0,1-1.8.747,1,1,0,0,0-.75.967V54H17V52.738a1,1,0,0,0-.75-.967,7,7,0,0,1-1.8-.747,1,1,0,0,0-1.216.155l-.892.892-1.414-1.414.892-.892a1,1,0,0,0,.155-1.216,7,7,0,0,1-.747-1.8,1,1,0,0,0-.967-.75H9V44h1.262a1,1,0,0,0,.967-.75,7,7,0,0,1,.747-1.8,1,1,0,0,0-.155-1.216l-.892-.892,1.414-1.414.892.892a1,1,0,0,0,1.216.155,7,7,0,0,1,1.8-.747,1,1,0,0,0,.75-.967V36h2v1.262a1,1,0,0,0,.75.967,7,7,0,0,1,1.8.747,1,1,0,0,0,1.216-.155l.892-.892,1.414,1.414-.892.892a1,1,0,0,0-.155,1.216,7,7,0,0,1,.747,1.8,1,1,0,0,0,.967.75H27v2Z"></path><path d="M18,40a5,5,0,1,0,5,5A5.006,5.006,0,0,0,18,40Zm0,8a3,3,0,1,1,3-3A3,3,0,0,1,18,48Z"></path></g></svg>