<svg xmlns="http://www.w3.org/2000/svg" viewBox="0 0 64 64" x="0px" y="0px"><g data-name="Online Shopping-Payment"><path d="M38,57a3,3,0,0,1-3,3H7a3,3,0,0,1-3-3V7A3,3,0,0,1,7,4h5V6a2,2,0,0,0,2,2H28a2,2,0,0,0,2-2V4h5a3,3,0,0,1,3,3v7h2V7a5.006,5.006,0,0,0-5-5H7A5.006,5.006,0,0,0,2,7V57a5.006,5.006,0,0,0,5,5H35a5.006,5.006,0,0,0,5-5V50H38ZM28,6H14V4H28Z"></path><path d="M59,24H55.9l.829-4.689a3.155,3.155,0,0,0,.042-.511,2.99,2.99,0,0,0-2.478-2.944,2.951,2.951,0,0,0-2.234.484,2.99,2.99,0,0,0-1.244,1.947L49.807,24H40.193l-1.007-5.712a2.99,2.99,0,0,0-1.244-1.948,2.933,2.933,0,0,0-2.225-.485A2.991,2.991,0,0,0,33.23,18.8a3.089,3.089,0,0,0,.045.523L34.1,24H31a3.017,3.017,0,0,0-3,3,3,3,0,0,0,3,3h.054l.738,13.277A5,5,0,0,0,36.784,48H53.216a5,5,0,0,0,4.992-4.723L58.946,30H59a3.017,3.017,0,0,0,3-3A3,3,0,0,0,59,24Zm-6.215-5.368a1,1,0,0,1,.414-.65.98.98,0,0,1,.739-.157.994.994,0,0,1,.832.975,1.177,1.177,0,0,1-.014.177L53.161,28H51.132ZM49.454,26,49.1,28H40.9l-.352-2ZM36.071,17.823a.966.966,0,0,1,.73.159,1,1,0,0,1,.414.651L38.868,28H36.839l-1.592-9.011a1.1,1.1,0,0,1-.017-.189A1,1,0,0,1,36.071,17.823ZM30,27a.978.978,0,0,1,.306-.712A.957.957,0,0,1,31,26h3.455l.353,2H31A1,1,0,0,1,30,27ZM56.212,43.166a3,3,0,0,1-3,2.834H36.784a3,3,0,0,1-3-2.834L33.057,30H56.943Zm3.482-15.454A.957.957,0,0,1,59,28H55.192l.353-2H59a1,1,0,0,1,1,1A.978.978,0,0,1,59.694,27.712Z"></path><rect x="44" y="32" width="2" height="12"></rect><rect x="50" y="32" width="2" height="12"></rect><rect x="38" y="32" width="2" height="12"></rect><path d="M16,26H14a1,1,0,0,1-1-1H11a3,3,0,0,0,3,3v1h2V28a3,3,0,0,0,0-6H14a1,1,0,0,1,0-2h2a1,1,0,0,1,1,1h2a3,3,0,0,0-3-3V17H14v1a3,3,0,0,0,0,6h2a1,1,0,0,1,0,2Z"></path><path d="M15,32a9,9,0,1,0-9-9A9.01,9.01,0,0,0,15,32Zm0-16a7,7,0,1,1-7,7A7.008,7.008,0,0,1,15,16Z"></path><path d="M10,52H26a1,1,0,0,0,1-1V47a1,1,0,0,0-1-1H25V44a1,1,0,0,0,1-1V39a1,1,0,0,0-1-1H24V35a1,1,0,0,0-1-1H7a1,1,0,0,0-1,1v4a1,1,0,0,0,1,1H8v2a1,1,0,0,0-1,1v4a1,1,0,0,0,1,1H9v3A1,1,0,0,0,10,52Zm15-2H11V48H25Zm-2-4H9V44H23ZM8,36H22v2H8Zm2,4H24v2H10Z"></path></g></svg>