<svg xmlns="http://www.w3.org/2000/svg" viewBox="0 0 32 32" x="0px" y="0px"><title>Browser_31</title><g data-name="Browser"><path d="M31,0H1A1,1,0,0,0,0,1V31a1,1,0,0,0,1,1H31a1,1,0,0,0,1-1V1A1,1,0,0,0,31,0ZM30,6H14V2H30ZM12,2V6H2V2ZM2,8H4V30H2ZM6,30V8H30V30Z"></path><rect x="3" y="3" width="2" height="2"></rect><rect x="6" y="3" width="2" height="2"></rect><rect x="9" y="3" width="2" height="2"></rect><path d="M18.878,15.464l-1.414,1.414L18.586,18H14v2h4.586l-1.122,1.122,1.414,1.414,2.829-2.829a1,1,0,0,0,0-1.414Z"></path></g></svg>