<svg xmlns="http://www.w3.org/2000/svg" viewBox="0 0 64 64" x="0px" y="0px"><title>Exchange Data</title><g data-name="Exchange Data"><rect x="21" y="55" width="2" height="2"></rect><rect x="14" y="6" width="2" height="2"></rect><rect x="18" y="6" width="2" height="2"></rect><path d="M9,15v4h2V16h3V14H10A1,1,0,0,0,9,15Z"></path><path d="M55.93,23.12,55,11.917A1,1,0,0,0,54,11H48a1,1,0,0,0-1,.917l-.933,11.2A4,4,0,0,0,43,27v2H39V7a5.006,5.006,0,0,0-5-5H10A5.006,5.006,0,0,0,5,7V57a5.006,5.006,0,0,0,5,5H34a5.006,5.006,0,0,0,5-5V36h4v1a4,4,0,0,0,3.07,3.88L47,52.083A1,1,0,0,0,48,53h6a1,1,0,0,0,1-.917l.933-11.2A4,4,0,0,0,59,37V27A4,4,0,0,0,55.93,23.12ZM48.92,13h4.16l.833,10H48.087ZM37,50H11v2H37v5a3,3,0,0,1-3,3H10a3,3,0,0,1-3-3V12H33V10H7V7a3,3,0,0,1,3-3H34a3,3,0,0,1,3,3V29H33v2h4v3H31.415l1.121-1.121-1.414-1.414-2.829,2.828a1,1,0,0,0,0,1.414l2.829,2.828,1.414-1.414L31.415,36H37Zm2-16V31h4v3ZM53.08,51H48.92l-.833-10h5.826ZM57,37a2,2,0,0,1-2,2H47a2,2,0,0,1-2-2V36h2V34H45V31h3.585l-1.121,1.121,1.414,1.414,2.829-2.828a1,1,0,0,0,0-1.414l-2.829-2.828-1.414,1.414L48.585,29H45V27a2,2,0,0,1,2-2h8a2,2,0,0,1,2,2Z"></path><rect x="48" y="34" width="2" height="2"></rect><rect x="29" y="29" width="2" height="2"></rect></g></svg>