<svg xmlns="http://www.w3.org/2000/svg" viewBox="0 0 64 64" x="0px" y="0px"><title>Online Payment</title><g data-name="Online Payment"><rect x="24" y="55" width="2" height="2"></rect><rect x="17" y="6" width="2" height="2"></rect><rect x="21" y="6" width="2" height="2"></rect><path d="M17,14H13a1,1,0,0,0-1,1v4h2V16h3Z"></path><path d="M54,17H42V7a5.006,5.006,0,0,0-5-5H13A5.006,5.006,0,0,0,8,7V57a5.006,5.006,0,0,0,5,5H37a5.006,5.006,0,0,0,5-5V48h8a1,1,0,0,0,1-1V41h3a1,1,0,0,0,1-1V18A1,1,0,0,0,54,17ZM40,50H14v2H40v5a3,3,0,0,1-3,3H13a3,3,0,0,1-3-3V12H36V10H10V7a3,3,0,0,1,3-3H37a3,3,0,0,1,3,3V17H20a1,1,0,0,0-1,1v6H16a1,1,0,0,0-1,1V47a1,1,0,0,0,1,1H40Zm9-4H17V26H49Zm4-7H51V25a1,1,0,0,0-1-1H21V19H53Z"></path><path d="M39,34a3,3,0,0,0,2.5-1.348,3,3,0,1,0,0-3.3A3,3,0,1,0,39,34Zm5-4a1,1,0,1,1-1,1A1,1,0,0,1,44,30Zm-5,0a1,1,0,1,1-1,1A1,1,0,0,1,39,30Z"></path><rect x="19" y="28" width="4" height="2"></rect><rect x="25" y="28" width="8" height="2"></rect><rect x="19" y="32" width="14" height="2"></rect><path d="M20,44H46a1,1,0,0,0,1-1V39a1,1,0,0,0-1-1H20a1,1,0,0,0-1,1v4A1,1,0,0,0,20,44Zm1-4H45v2H21Z"></path></g></svg>