<svg xmlns="http://www.w3.org/2000/svg" viewBox="0 0 64 64" x="0px" y="0px"><g><path d="M55,39.141V33a9.01,9.01,0,0,0-9-9H45a9.01,9.01,0,0,0-9,9V49a9.036,9.036,0,0,1-9.049,9H26.7A8.71,8.71,0,0,1,18,49.3V26h3a9.01,9.01,0,0,0,9-9V7a1,1,0,0,0-1-1H26V5H22a1,1,0,0,0-1,1V8a1,1,0,0,0,1,1h4V8h2v9a7.008,7.008,0,0,1-7,7H15a7.008,7.008,0,0,1-7-7V8h2V9h4a1,1,0,0,0,1-1V6a1,1,0,0,0-1-1H10V6H7A1,1,0,0,0,6,7V17a9.01,9.01,0,0,0,9,9h1V49.3A10.712,10.712,0,0,0,26.7,60h.251A11.037,11.037,0,0,0,38,49V33a7.008,7.008,0,0,1,7-7h1a7.008,7.008,0,0,1,7,7v6.141a4,4,0,1,0,2,0Z"></path></g></svg>