<svg xmlns="http://www.w3.org/2000/svg" viewBox="0 0 64 64" x="0px" y="0px"><title>Download</title><g><path d="M55,2H9A2,2,0,0,0,7,4V60a2,2,0,0,0,2,2H55a2,2,0,0,0,2-2V4A2,2,0,0,0,55,2ZM40,4V6H24V4ZM23,12H41a1,1,0,0,0,1-1V8h9V56H13V8h9v3A1,1,0,0,0,23,12Zm17-2H24V8H40ZM9,60V4H22V6H12a1,1,0,0,0-1,1V57a1,1,0,0,0,1,1H52a1,1,0,0,0,1-1V7a1,1,0,0,0-1-1H42V4H55V60Z"></path><path d="M32,40a1,1,0,0,0,.707-.293l6-6-1.414-1.414L33,36.586V21H31V36.586l-4.293-4.293-1.414,1.414,6,6A1,1,0,0,0,32,40Z"></path><path d="M22,43a1,1,0,0,0,1,1H41a1,1,0,0,0,1-1V41H40v1H24V41H22Z"></path></g></svg>