<svg xmlns="http://www.w3.org/2000/svg" viewBox="0 0 64 64" x="0px" y="0px"><title>Handshake</title><g><path d="M61,19H54a1,1,0,0,0-1,1v2H48a1,1,0,0,0-1,1H17a1,1,0,0,0-1-1H11V20a1,1,0,0,0-1-1H3a1,1,0,0,0-1,1V40a1,1,0,0,0,1,1h7a1,1,0,0,0,1-1V38h5a1,1,0,0,0,1-1h4.956l7.267,7.267a2.991,2.991,0,0,0,4.234,0l.715-.71a1.99,1.99,0,0,0,1.418.586h0a1.992,1.992,0,0,0,1.418-.588l1.409-1.4.7.693a1.989,1.989,0,0,0,1.417.587h0a1.988,1.988,0,0,0,1.419-.588l1.409-1.4.7.693a1.991,1.991,0,0,0,1.417.587h0a1.986,1.986,0,0,0,1.417-.586l1.41-1.41.008-.009A2.012,2.012,0,0,0,48.4,38H53v2a1,1,0,0,0,1,1h7a1,1,0,0,0,1-1V20A1,1,0,0,0,61,19Zm-8,6V35H49V25ZM47,35H45.414l-7.707-7.707A1,1,0,0,0,37,27H33.66a1,1,0,0,0-.707.293l-2.91,2.9a.912.912,0,0,1-.7.28c-.019,0-.066-.019-.057,0l-.073-.008a.9.9,0,0,1-.579-.269.936.936,0,0,1-.281-.59.993.993,0,0,0-.017-.132.993.993,0,0,1,.3-.694L32.414,25H47ZM11,35V25h4V35ZM9,39H4V21H9Zm36.482,1.717-.7-.693a1.99,1.99,0,0,0-1.417-.586h0a2,2,0,0,0-1.42.587l-1.408,1.4-.7-.694a1.99,1.99,0,0,0-1.418-.586h0a1.992,1.992,0,0,0-1.418.588l-1.423,1.389a2.047,2.047,0,0,0-2.815.019l-.71.71a1.016,1.016,0,0,1-1.406,0l-7.56-7.56A1,1,0,0,0,22.37,35H17V25H29.586l-2.362,2.362a2.979,2.979,0,0,0-.884,2.118,1.714,1.714,0,0,0,.03.353,2.939,2.939,0,0,0,.853,1.774,2.908,2.908,0,0,0,1.746.84,1.077,1.077,0,0,0,.367.025,2.9,2.9,0,0,0,2.121-.865L34.074,29h2.511L46.892,39.323ZM60,39H55V21h5Z"></path><rect x="50" y="26" width="2" height="2"></rect><rect x="12" y="26" width="2" height="2"></rect><rect x="21.828" y="39.829" width="2" height="8" transform="translate(-24.305 28.977) rotate(-44.998)"></rect><rect x="20.414" y="41.657" width="2" height="10" transform="translate(-26.719 28.806) rotate(-44.998)"></rect><rect x="34" y="18" width="8" height="2"></rect><rect x="34" y="15" width="10" height="2"></rect><rect x="18" y="8" width="2" height="2"></rect><rect x="20" y="10" width="2" height="2"></rect><rect x="16" y="10" width="2" height="2"></rect><rect x="18" y="12" width="2" height="2"></rect><rect x="52" y="4" width="2" height="2"></rect><rect x="54" y="6" width="2" height="2"></rect><rect x="50" y="6" width="2" height="2"></rect><rect x="52" y="8" width="2" height="2"></rect><rect x="37" y="7" width="2" height="2"></rect><rect x="39" y="9" width="2" height="2"></rect><rect x="35" y="9" width="2" height="2"></rect><rect x="37" y="11" width="2" height="2"></rect><rect x="49" y="46" width="2" height="2"></rect><rect x="51" y="48" width="2" height="2"></rect><rect x="47" y="48" width="2" height="2"></rect><rect x="49" y="50" width="2" height="2"></rect><rect x="35" y="52" width="2" height="2"></rect><rect x="37" y="54" width="2" height="2"></rect><rect x="33" y="54" width="2" height="2"></rect><rect x="35" y="56" width="2" height="2"></rect><rect x="10" y="48" width="2" height="2"></rect><rect x="12" y="50" width="2" height="2"></rect><rect x="8" y="50" width="2" height="2"></rect><rect x="10" y="52" width="2" height="2"></rect></g></svg>