<svg xmlns="http://www.w3.org/2000/svg" viewBox="0 0 64 64" x="0px" y="0px"><g><path d="M55.707,56.293l-6-6A1,1,0,0,0,49,50H19V48a3,3,0,0,0-3-3H10a1,1,0,0,1,0-2h6a3,3,0,0,0,3-3V38h7v4H22a1,1,0,0,0-1,1v4a1,1,0,0,0,1,1H42a1,1,0,0,0,1-1V43a1,1,0,0,0-1-1H38V38H52a3,3,0,0,0,3-3V9a3,3,0,0,0-3-3H44V8h8a1,1,0,0,1,1,1V30H11V9a1,1,0,0,1,1-1h8V6H12A3,3,0,0,0,9,9V35a3,3,0,0,0,3,3h5v2a1,1,0,0,1-1,1H10a3,3,0,0,0,0,6h6a1,1,0,0,1,1,1v2H15a1,1,0,0,0-.707.293l-6,6A1,1,0,0,0,8,57v3a2,2,0,0,0,2,2H54a2,2,0,0,0,2-2V57A1,1,0,0,0,55.707,56.293ZM41,46H23V44H41Zm-5-4H28V38h8ZM11,35V32H53v3a1,1,0,0,1-1,1H12A1,1,0,0,1,11,35Zm4.414,17H48.586l4,4H11.414ZM10,60V58H54v2Z"></path><rect x="16" y="53" width="2" height="2"></rect><rect x="20" y="53" width="2" height="2"></rect><rect x="42" y="53" width="2" height="2"></rect><rect x="24" y="53" width="16" height="2"></rect><rect x="46" y="53" width="2" height="2"></rect><rect x="47" y="33" width="2" height="2"></rect><path d="M32,26A12,12,0,1,0,20,14,12.013,12.013,0,0,0,32,26ZM32,4A10,10,0,1,1,22,14,10.011,10.011,0,0,1,32,4Z"></path><path d="M30.586,16.586a2,2,0,1,0,2.828,0A2,2,0,0,0,30.586,16.586Z"></path><path d="M27.757,13.757l1.414,1.414a4.007,4.007,0,0,1,5.658,0l1.414-1.414A6.007,6.007,0,0,0,27.757,13.757Z"></path><path d="M26.343,12.343a8,8,0,0,1,11.314,0l1.414-1.414a10,10,0,0,0-14.142,0Z"></path></g></svg>