<svg xmlns="http://www.w3.org/2000/svg" viewBox="0 0 64 64" x="0px" y="0px"><g><path d="M31,36.02V35H29v1.18C29.65,36.1,30.31,36.05,31,36.02Z"></path><path d="M35,36.18V35H33v1.02C33.69,36.05,34.35,36.1,35,36.18Z"></path><path d="M32,53c5.72,0,10-2.11,10-4V45.41C39.89,46.99,36.27,48,32,48s-7.89-1.01-10-2.59V49C22,50.89,26.28,53,32,53Zm-5-4h2v2H27Zm-4-1h2v2H23Z"></path><polygon points="34 27.586 34 25 30 25 30 29 32.588 29 34 27.586"></polygon><path d="M26,33H38V21H26Zm2-9a1,1,0,0,1,1-1h6a1,1,0,0,1,1,1v4a1,1,0,0,1-.292.707l-2,2A1,1,0,0,1,33,31H29a1,1,0,0,1-1-1Z"></path><path d="M32,38c-5.72,0-10,2.11-10,4s4.28,4,10,4,10-2.11,10-4S37.72,38,32,38Zm6,5H26V41H38Z"></path><path d="M52,14a1,1,0,0,1-1-1,5,5,0,0,0-5-5,4.946,4.946,0,0,0-3.58,1.52,1.018,1.018,0,0,1-.86.29.982.982,0,0,1-.74-.52,9.992,9.992,0,0,0-18.73,3.45.975.975,0,0,1-.65.82.987.987,0,0,1-1.02-.21A5,5,0,0,0,12,17a1.1,1.1,0,0,1-.35.8,1.056,1.056,0,0,1-.81.27A4.842,4.842,0,0,0,10,18a6,6,0,0,0,0,12H24V28H20V26h4V24H22a1.033,1.033,0,0,1-.71-.29l-2-2,1.42-1.42L22.41,22H24V20a1,1,0,0,1,1-1h2V15h2v4h2V15h2v4h2V15h2v4h2a1,1,0,0,1,1,1v2h1.59l1.7-1.71,1.42,1.42-2,2A1.033,1.033,0,0,1,42,24H40v2h4v2H40v2H52a8,8,0,0,0,0-16Z"></path><path d="M32,60c5.72,0,10-2.11,10-4V52.41C39.89,53.99,36.27,55,32,55s-7.89-1.01-10-2.59V56C22,57.89,26.28,60,32,60Zm-5-4h2v2H27Zm-4-1h2v2H23Z"></path><polygon points="44.71 32.29 43.29 33.71 41.59 32 44.42 32 44.71 32.29"></polygon><polygon points="22.41 32 20.71 33.71 19.29 32.29 19.58 32 22.41 32"></polygon></g></svg>