<svg xmlns="http://www.w3.org/2000/svg" viewBox="0 0 64 64" x="0px" y="0px"><g data-name="Artificial Intelligence-Robotics"><path d="M32,46a3,3,0,0,0,3-3V37H33v6a1,1,0,0,1-2,0V37H29v6A3,3,0,0,0,32,46Z"></path><path d="M41,35a3,3,0,0,0-3,3h2a1,1,0,0,1,2,0h2A3,3,0,0,0,41,35Z"></path><path d="M23,35a3,3,0,0,0-3,3h2a1,1,0,0,1,2,0h2A3,3,0,0,0,23,35Z"></path><path d="M51,30.1V28c0-2.484-4.733-3.822-10-4.472V21h4V19H41V17h4V15H41V13h4V11H41V8a1,1,0,0,0-1-1H37V3H35V7H33V3H31V7H29V3H27V7H24a1,1,0,0,0-1,1v3H19v2h4v2H19v2h4v2H19v2h4v2.528c-5.267.65-10,1.988-10,4.472v2.1a4.995,4.995,0,0,0,.1,9.808A19,19,0,0,0,21,53.463V61a1,1,0,0,0,1,1H42a1,1,0,0,0,1-1V53.463a19,19,0,0,0,7.9-13.554A4.995,4.995,0,0,0,51,30.1ZM25,23V9H39V23Zm2,2.16V29h2V25.06q.969-.036,2-.048V29h2V25.011q1.03.014,2,.049V29h2V25.16c7.451.482,11.7,1.964,12,2.84-.357,1.057-6.449,3-17,3-10.595,0-16.692-1.96-17-2.979v-.007C15.256,27.14,19.509,25.645,27,25.16ZM11,35a3,3,0,0,1,2-2.816v5.632A3,3,0,0,1,11,35ZM41,60H23V54.727a18.954,18.954,0,0,0,18,0Zm-9-5A17.019,17.019,0,0,1,15,38V30.458C18.7,32.41,26.718,33,32,33s13.3-.59,17-2.542V38A17.019,17.019,0,0,1,32,55ZM51,37.816V32.184a2.982,2.982,0,0,1,0,5.632Z"></path><path d="M32,49c-2.71,0-5-1.374-5-3H25c0,2.8,3.075,5,7,5s7-2.2,7-5H37C37,47.626,34.71,49,32,49Z"></path><path d="M59,8a3,3,0,1,0-3-3A3,3,0,0,0,59,8Zm0-4a1,1,0,1,1-1,1A1,1,0,0,1,59,4Z"></path><path d="M59,13a3,3,0,1,0,3,3A3,3,0,0,0,59,13Zm0,4a1,1,0,1,1,1-1A1,1,0,0,1,59,17Z"></path><path d="M52.414,6H54V4H52a1,1,0,0,0-.707.293l-4,4,1.414,1.414Z"></path><rect x="48" y="15" width="6" height="2"></rect><path d="M5,2A3,3,0,1,0,8,5,3,3,0,0,0,5,2ZM5,6A1,1,0,1,1,6,5,1,1,0,0,1,5,6Z"></path><path d="M5,13a3,3,0,1,0,3,3A3,3,0,0,0,5,13Zm0,4a1,1,0,1,1,1-1A1,1,0,0,1,5,17Z"></path><path d="M15.293,9.707l1.414-1.414-4-4A1,1,0,0,0,12,4H10V6h1.586Z"></path><rect x="10" y="15" width="6" height="2"></rect><path d="M36,11H28a1,1,0,0,0-1,1v8a1,1,0,0,0,1,1h5a1,1,0,0,0,.707-.293l3-3A1,1,0,0,0,37,17V12A1,1,0,0,0,36,11Zm-1,5.586L32.589,19H29V13h6Z"></path></g></svg>