<svg xmlns="http://www.w3.org/2000/svg" viewBox="0 0 64 64" x="0px" y="0px"><g data-name="Amplifier-Speaker-Sound Box-Guitar Amplifier-Audio"><path d="M49,25H15V55H49ZM19,53H17V51h2Zm0-4H17V47h2Zm0-4H17V43h2Zm0-4H17V39h2Zm0-4H17V35h2Zm0-4H17V31h2Zm0-4H17V27h2Zm4,24H21V51h2Zm0-4H21V47h2Zm0-4H21V43h2Zm0-4H21V39h2Zm0-4H21V35h2Zm0-4H21V31h2Zm0-4H21V27h2Zm4,24H25V51h2Zm0-4H25V47h2Zm0-4H25V43h2Zm0-4H25V39h2Zm0-4H25V35h2Zm0-4H25V31h2Zm0-4H25V27h2Zm4,24H29V51h2Zm0-4H29V47h2Zm0-4H29V43h2Zm0-4H29V39h2Zm0-4H29V35h2Zm0-4H29V31h2Zm0-4H29V27h2Zm4,24H33V51h2Zm0-4H33V47h2Zm0-4H33V43h2Zm0-4H33V39h2Zm0-4H33V35h2Zm0-4H33V31h2Zm0-4H33V27h2Zm4,24H37V51h2Zm0-4H37V47h2Zm0-4H37V43h2Zm0-4H37V39h2Zm0-4H37V35h2Zm0-4H37V31h2Zm0-4H37V27h2Zm4,24H41V51h2Zm0-4H41V47h2Zm0-4H41V43h2Zm0-4H41V39h2Zm0-4H41V35h2Zm0-4H41V31h2Zm0-4H41V27h2Zm4,24H45V51h2Zm0-4H45V47h2Zm0-4H45V43h2Zm0-4H45V39h2Zm0-4H45V35h2Zm0-4H45V31h2Zm0-4H45V27h2Z"></path><circle cx="44" cy="14" r="1"></circle><circle cx="28" cy="14" r="1"></circle><circle cx="36" cy="14" r="1"></circle><path d="M49,9H15V19H49ZM19,15H17V13h2Zm4,0H21V13h2Zm5,2a3,3,0,1,1,3-3A3,3,0,0,1,28,17Zm8,0a3,3,0,1,1,3-3A3,3,0,0,1,36,17Zm8,0a3,3,0,1,1,3-3A3,3,0,0,1,44,17Z"></path><rect x="53" y="4" width="2" height="2"></rect><rect x="53" y="58" width="2" height="2"></rect><path d="M51,59V57a1,1,0,0,1,1-1h1V8H52a1,1,0,0,1-1-1V5H13V7a1,1,0,0,1-1,1H11V56h1a1,1,0,0,1,1,1v2ZM13,8a1,1,0,0,1,1-1H50a1,1,0,0,1,1,1V20a1,1,0,0,1-1,1H14a1,1,0,0,1-1-1Zm0,16a1,1,0,0,1,1-1H50a1,1,0,0,1,1,1V56a1,1,0,0,1-1,1H14a1,1,0,0,1-1-1Z"></path><rect x="9" y="58" width="2" height="2"></rect><rect x="9" y="4" width="2" height="2"></rect></g></svg>