<svg xmlns="http://www.w3.org/2000/svg" viewBox="0 0 64 64" x="0px" y="0px"><g><path d="M35.44,48h3.11a7.887,7.887,0,0,0,1.93-8.15,12.923,12.923,0,0,0-1.3-2.87,13.02,13.02,0,0,1-3.63,3.85l-1.11-1.66a11.231,11.231,0,0,0,1.81-1.6A25.027,25.027,0,0,0,34.24,35L32,32.51,29.76,35a25.027,25.027,0,0,0-2.01,2.57,11.231,11.231,0,0,0,1.81,1.6l-1.11,1.66a13.127,13.127,0,0,1-3.64-3.85c-1.36,2.21-3.29,6.81.63,11.02h3.12A3.906,3.906,0,0,1,28,46c0-1.94,2.71-5.06,3.26-5.67a1.027,1.027,0,0,1,1.48,0C33.29,40.94,36,44.06,36,46A3.906,3.906,0,0,1,35.44,48Z"></path><rect x="31" y="50" width="2" height="2"></rect><path d="M55,20V16H9v4h6v2H9v4h2v2H9v4h4v2H9v4h4v2H9v4h2v2H9v6h6V25a5,5,0,0,1,5-5H44a5,5,0,0,1,5,5V52h6V46H53V44h2V40H51V38h4V34H51V32h4V28H53V26h2V22H49V20Z"></path><path d="M47,52V25a3.009,3.009,0,0,0-3-3H20a3.009,3.009,0,0,0-3,3V52h2V49a1,1,0,0,1,1-1h2.87c-4.58-6.62,1.31-13.58,1.37-13.66a1.011,1.011,0,0,1,1.71.34,6.759,6.759,0,0,0,.54,1.19,25.426,25.426,0,0,1,1.79-2.21l2.98-3.32a1.027,1.027,0,0,1,1.48,0l2.98,3.32a25.426,25.426,0,0,1,1.79,2.21,6.759,6.759,0,0,0,.54-1.19,1.011,1.011,0,0,1,1.71-.34c.06.08,5.95,7.04,1.37,13.66H44a1,1,0,0,1,1,1v3ZM20.05,28.465,18.636,27.05l1.415-1.414,1.414,1.415Zm4.243,4.242-2.829-2.828,1.414-1.414,2.829,2.828Zm2.812-3.26-2-4,1.79-.894,2,4ZM33,28H31V24h2Zm3.9,1.447-1.79-.894,2-4,1.79.894Zm2.812,3.26-1.414-1.414,2.829-2.828,1.414,1.414Zm4.243-4.242-1.415-1.414,1.414-1.415,1.415,1.414Z"></path><path d="M34,46c0-.62-.94-2.12-2-3.45-1.06,1.32-2,2.81-2,3.45a2,2,0,0,0,4,0Z"></path><rect x="21" y="50" width="8" height="2"></rect><rect x="6" y="4" width="52" height="6"></rect><rect x="4" y="54" width="56" height="6"></rect><polygon points="56.38 12 7.62 12 8.62 14 55.38 14 56.38 12"></polygon><rect x="35" y="50" width="8" height="2"></rect></g></svg>