<svg xmlns="http://www.w3.org/2000/svg" viewBox="0 0 48 48" x="0px" y="0px"><g data-name="Research"><path d="M44.1,3H29.28A7.987,7.987,0,0,1,25,16.93v2.25A3.01,3.01,0,0,1,27,22v6a3,3,0,0,1-6,0V22a3.01,3.01,0,0,1,2-2.82V16.93A7.987,7.987,0,0,1,18.72,3H3.9a.9.9,0,0,0-.9.9V32.1a.9.9,0,0,0,.9.9H44.1a.9.9,0,0,0,.9-.9V3.9A.9.9,0,0,0,44.1,3ZM5,5A1,1,0,0,1,6,4h9V6H7V24H5ZM19,28H4V26H19ZM33,4h9a1,1,0,0,1,1,1V24H41V6H33ZM44,28H29V26H44Z"></path><rect x="19" y="35" width="10" height="6"></rect><polygon points="17 43 17 45 31 45 31 43 30 43 18 43 17 43"></polygon><path d="M24,3a6,6,0,1,0,6,6A6,6,0,0,0,24,3Zm0,4a2.006,2.006,0,0,0-2,2H20a4,4,0,0,1,4-4Z"></path><path d="M23,22v6a1,1,0,0,0,2,0V22a1,1,0,0,0-2,0Z"></path></g></svg>