<svg xmlns="http://www.w3.org/2000/svg" viewBox="0 0 64 64" x="0px" y="0px"><g data-name="Smartphone-Money Bag-App-Saving-Investment"><path d="M34,54H30a1,1,0,0,0,0,2h4a1,1,0,0,0,0-2Z"></path><path d="M30,22a1,1,0,0,0,0,2h4a1,1,0,0,0,0-2Z"></path><path d="M43.12,39.54A3.838,3.838,0,0,1,42,36.83V33a7.008,7.008,0,0,0-7-7H29a7.008,7.008,0,0,0-7,7v3.83a3.838,3.838,0,0,1-1.12,2.71l-1.34,1.34A1.783,1.783,0,0,0,19,42.17,1.831,1.831,0,0,0,20.83,44H43.17A1.831,1.831,0,0,0,45,42.17a1.783,1.783,0,0,0-.54-1.29ZM31,34h2a3,3,0,0,1,0,6v1H31V40a3,3,0,0,1-3-3h2a1,1,0,0,0,1,1h2a1,1,0,0,0,0-2H31a3,3,0,0,1,0-6V29h2v1a3,3,0,0,1,3,3H34a1,1,0,0,0-1-1H31a1,1,0,0,0,0,2Z"></path><path d="M50,50H14v6a4,4,0,0,0,4,4H46a4,4,0,0,0,4-4ZM34,58H30a3,3,0,0,1,0-6h4a3,3,0,0,1,0,6Z"></path><path d="M33.52,20l2.73-3.41a3.579,3.579,0,0,1-.46-.38c-.14-.14-.2-.21-.79-.21s-.65.07-.79.21A2.687,2.687,0,0,1,32,17a2.687,2.687,0,0,1-2.21-.79c-.14-.14-.2-.21-.79-.21s-.65.07-.79.21a3.579,3.579,0,0,1-.46.38L30.48,20Z"></path><path d="M50,12H14V48H50ZM43.17,46H20.83a3.833,3.833,0,0,1-2.71-6.54l1.34-1.34A1.783,1.783,0,0,0,20,36.83V33a9.01,9.01,0,0,1,7.24-8.82A3.108,3.108,0,0,1,27,23a3,3,0,0,1,1.33-2.49l-3.11-3.89a.981.981,0,0,1-.12-1.05A1,1,0,0,1,26,15c.59,0,.65-.07.79-.21A2.687,2.687,0,0,1,29,14a2.687,2.687,0,0,1,2.21.79c.14.14.2.21.79.21s.65-.07.79-.21A2.687,2.687,0,0,1,35,14a2.687,2.687,0,0,1,2.21.79c.14.14.2.21.79.21a1,1,0,0,1,.9.57.981.981,0,0,1-.12,1.05l-3.11,3.89A3,3,0,0,1,37,23a3.108,3.108,0,0,1-.24,1.18A9.01,9.01,0,0,1,44,33v3.83a1.783,1.783,0,0,0,.54,1.29l1.34,1.34A3.833,3.833,0,0,1,43.17,46Z"></path><path d="M50,8a4,4,0,0,0-4-4H18a4,4,0,0,0-4,4v2H50ZM27,8H25V6h2Zm8,0H29V6h6Z"></path></g></svg>