<svg xmlns="http://www.w3.org/2000/svg" viewBox="0 0 64 64" x="0px" y="0px"><g data-name="Backpack"><path d="M18,36a1,1,0,0,0-1,1V51a5.006,5.006,0,0,0,5,5H42a5.006,5.006,0,0,0,5-5V37a1,1,0,0,0-1-1Zm11,8V42h6v2Zm1-4V38h4v2Zm-2,0a1,1,0,0,0-1,1v3H24.236a.994.994,0,0,1-.894-.553L20.618,38H28Zm2,6h4v3a1,1,0,0,1-1,1H31a1,1,0,0,1-1-1Zm6-6V38h7.382l-2.724,5.447a.994.994,0,0,1-.894.553H37V41A1,1,0,0,0,36,40Zm6,14H22a3,3,0,0,1-3-3V39.236l2.553,5.106A2.983,2.983,0,0,0,24.236,46H28v3a3,3,0,0,0,3,3h2a3,3,0,0,0,3-3V46h3.764a2.983,2.983,0,0,0,2.683-1.658L45,39.236V51A3,3,0,0,1,42,54Z"></path><path d="M59,12H51a1,1,0,0,0-.707.293l-3.356,3.356-.988-2.965A1,1,0,0,0,45,12H41V7a5.006,5.006,0,0,0-5-5H28a5.006,5.006,0,0,0-5,5v5H19a1,1,0,0,0-.949.684l-.988,2.965-3.356-3.356A1,1,0,0,0,13,12H5a3,3,0,0,0-3,3V53a3,3,0,0,0,3,3h5v1a5.006,5.006,0,0,0,5,5H49a5.006,5.006,0,0,0,5-5V56h5a3,3,0,0,0,3-3V15A3,3,0,0,0,59,12Zm1,3V42.184A2.966,2.966,0,0,0,59,42H58V14h1A1,1,0,0,1,60,15Zm-8.586-1h3.172l-6.149,6.149-.793-2.379ZM34,22H30V20h4Zm1,2v2H29V24Zm-5,4h4v3a1,1,0,0,1-1,1H31a1,1,0,0,1-1-1Zm6-6V19a1,1,0,0,0-1-1H29a1,1,0,0,0-1,1v3a1,1,0,0,0-1,1v1H25.88a2.983,2.983,0,0,1-2.841-2.057L20.388,14H43.612L40.96,21.947A2.983,2.983,0,0,1,38.12,24H37V23A1,1,0,0,0,36,22ZM35,6H29V4h6Zm0,2v4H29V8Zm4-1v5H37V4.171A3.006,3.006,0,0,1,39,7ZM25,7a3.006,3.006,0,0,1,2-2.829V12H25ZM16.356,17.77l-.793,2.379L9.414,14h3.172ZM5,14H6V42H5a2.966,2.966,0,0,0-1,.184V15A1,1,0,0,1,5,14ZM5,44h5v2H4V45A1,1,0,0,1,5,44ZM5,54a1,1,0,0,1-1-1V48h6v6Zm5.051-17.316A1,1,0,0,0,10,37v5H8V15.414l6.856,6.856ZM52,57a3,3,0,0,1-3,3H15a3,3,0,0,1-3-3V37.162l7-21,2.14,6.412A4.98,4.98,0,0,0,25.88,26H27v1a1,1,0,0,0,1,1v3a3,3,0,0,0,3,3h2a3,3,0,0,0,3-3V28a1,1,0,0,0,1-1V26h1.12a4.979,4.979,0,0,0,4.739-3.424L45,16.161l7,21ZM49.144,22.27,56,15.414V42H54V37a1,1,0,0,0-.051-.316ZM59,54H54V48h6v5A1,1,0,0,1,59,54Zm1-8H54V44h5a1,1,0,0,1,1,1Z"></path></g></svg>