<svg xmlns="http://www.w3.org/2000/svg" viewBox="0 0 64 64" x="0px" y="0px"><g><path d="M40,28a1,1,0,0,0,1,1h2a1,1,0,0,0,1-1V23H40Z"></path><path d="M60,25V10.031a1.99,1.99,0,0,0-1.257-1.857L45.992,4.048A1,1,0,0,0,45.684,4H42.949a10.994,10.994,0,0,1-21.9,0H18.316a1,1,0,0,0-.308.048L5.194,8.2A1.975,1.975,0,0,0,4,10.031V25h8V19h2V60H50V19h2v6ZM46,28a3,3,0,0,1-3,3H41a3,3,0,0,1-3-3V22a1,1,0,0,1,1-1h6a1,1,0,0,1,1,1Z"></path><path d="M32,12a9.011,9.011,0,0,0,8.941-8H23.059A9.011,9.011,0,0,0,32,12Z"></path></g></svg>