<svg xmlns="http://www.w3.org/2000/svg" viewBox="0 0 64 64" x="0px" y="0px"><g><path d="M55,57V55H53v2a1,1,0,0,0,2,0Z"></path><path d="M56,49a1,1,0,0,0-1,1,1,1,0,0,1-2,0,1,1,0,0,0-1-1,.988.988,0,0,0-.966.832L52.618,53h2.764l1.584-3.168A.988.988,0,0,0,56,49Z"></path><path d="M57,19a3,3,0,0,0-6,0v1h6Z"></path><rect x="51" y="22" width="6" height="1"></rect><path d="M57,25H51V47.184a2.846,2.846,0,0,1,2,0V27h2V47.179a2.846,2.846,0,0,1,2,0Z"></path><path d="M15,17H37V16a3,3,0,0,0-3-3H31a1,1,0,0,1-1-1V7a3,3,0,0,0-3-3H25a3,3,0,0,0-3,3v5a1,1,0,0,1-1,1H18a3,3,0,0,0-3,3ZM26,6a3,3,0,1,1-3,3A3,3,0,0,1,26,6Z"></path><path d="M29,52a8,8,0,1,0-8-8A8.009,8.009,0,0,0,29,52Zm3-12a2,2,0,1,1-2,2A2,2,0,0,1,32,40Zm1.9,8.553-1.79.894A3.4,3.4,0,0,0,29,48a3.4,3.4,0,0,0-3.112,1.46l-1.783-.907A5.319,5.319,0,0,1,29,46,5.319,5.319,0,0,1,33.9,48.553ZM26,40a2,2,0,1,1-2,2A2,2,0,0,1,26,40Z"></path><rect x="15" y="19" width="22" height="1"></rect><path d="M13,21V18H11V48h5a3,3,0,0,1,3,3v5H41V18H39v3a1,1,0,0,1-1,1H14A1,1,0,0,1,13,21Zm20,7h4v2H33Zm-4,0h2v2H29ZM39,44A10,10,0,1,1,29,34,10.011,10.011,0,0,1,39,44ZM19,24h8v2H19Zm-4,0h2v2H15Zm0,4H27v2H15Zm0,4h4v2H15Z"></path><path d="M45,17a3,3,0,0,0-3-3H38.576A4.95,4.95,0,0,1,39,16h2a2,2,0,0,1,2,2V56a2,2,0,0,1-2,2H11a2,2,0,0,1-2-2V18a2,2,0,0,1,2-2h2a4.95,4.95,0,0,1,.424-2H10a3,3,0,0,0-3,3V57a3,3,0,0,0,3,3H42a3,3,0,0,0,3-3Z"></path><path d="M17,51a1,1,0,0,0-1-1H12.414L17,54.586Z"></path><polygon points="11 56 15.586 56 11 51.414 11 56"></polygon><circle cx="26" cy="9" r="1"></circle></g></svg>