<svg xmlns="http://www.w3.org/2000/svg" viewBox="0 0 64 64" x="0px" y="0px"><g data-name="Time Management-Smartphone-Time-Schedule-Clock"><rect x="18" y="6" width="2" height="2"></rect><rect x="22" y="6" width="6" height="2"></rect><rect x="11" y="26" width="16" height="2"></rect><rect x="23" y="20" width="7" height="2"></rect><rect x="23" y="16" width="2" height="2"></rect><rect x="27" y="16" width="5" height="2"></rect><rect x="11" y="30" width="16" height="2"></rect><rect x="11" y="34" width="16" height="2"></rect><rect x="11" y="38" width="8" height="2"></rect><rect x="21" y="38" width="6" height="2"></rect><rect x="11" y="42" width="18" height="2"></rect><rect x="11" y="46" width="18" height="2"></rect><path d="M44,21A11,11,0,1,0,55,32,11.013,11.013,0,0,0,44,21Zm8.941,12a8.956,8.956,0,0,1-1.916,4.611l-1.368-1.368-1.414,1.414,1.368,1.368A8.956,8.956,0,0,1,45,40.941V39H43v1.941a8.956,8.956,0,0,1-4.611-1.916l1.368-1.368-1.414-1.414-1.368,1.368A8.956,8.956,0,0,1,35.059,33H37V31H35.059a8.956,8.956,0,0,1,1.916-4.611l1.368,1.368,1.414-1.414-1.368-1.368A8.956,8.956,0,0,1,43,23.059V25h2V23.059a8.956,8.956,0,0,1,4.611,1.916l-1.368,1.368,1.414,1.414,1.368-1.368A8.956,8.956,0,0,1,52.941,31H51v2Z"></path><path d="M43,31.586l-1.707,1.707,1.414,1.414,2-2A1,1,0,0,0,45,32V27H43Z"></path><path d="M45,17.05V8a6,6,0,0,0-6-6H11A6,6,0,0,0,5,8V56a6,6,0,0,0,6,6H39a6,6,0,0,0,6-6V46.95a14.982,14.982,0,0,0,0-29.9ZM7,8a4,4,0,0,1,4-4H39a4,4,0,0,1,4,4v2H7Zm10,4v4.59l-1.29-1.3a1.014,1.014,0,0,0-1.42,0L13,16.59V12ZM43,56a4,4,0,0,1-4,4H11a4,4,0,0,1-4-4V54H43Zm0-4H7V12h4v7a.987.987,0,0,0,.62.92,1,1,0,0,0,1.09-.21L15,17.41l2.29,2.3A1.007,1.007,0,0,0,18,20a.838.838,0,0,0,.38-.08A.987.987,0,0,0,19,19V12H43v5.05a14.982,14.982,0,0,0,0,29.9Zm1-7A13,13,0,1,1,57,32,13.012,13.012,0,0,1,44,45Z"></path><rect x="23" y="56" width="4" height="2"></rect></g></svg>