<svg xmlns="http://www.w3.org/2000/svg" viewBox="0 0 64 64" x="0px" y="0px"><g><path d="M54,42.879V37h2v5.879c2.279-.558,4-2.981,4-5.879,0-3.309-2.243-6-5-6s-5,2.691-5,6C50,39.9,51.721,42.321,54,42.879Z"></path><path d="M27,11a3.009,3.009,0,0,1-3,3H18.44l1.43-2.5-1.74-1-2,3.5H13a3,3,0,0,1,0-6h3a1,1,0,0,0,1-1,3,3,0,0,1,6,0,1,1,0,0,0,1,1A3.009,3.009,0,0,1,27,11Z"></path><path d="M53,13a3.009,3.009,0,0,1-3,3H45.44l1.43-2.5-1.74-1-2,3.5H39a3,3,0,0,1,0-6h3a1,1,0,0,0,1-1,3,3,0,0,1,6,0,1,1,0,0,0,1,1A3.009,3.009,0,0,1,53,13Z"></path><path d="M8,24h2L8.2,26.4l1.6,1.2,3-4A1,1,0,0,0,12,22H10l1.8-2.4-1.6-1.2-3,4A1,1,0,0,0,8,24Z"></path><path d="M54.2,18.4l-3,4A1,1,0,0,0,52,24h2l-1.8,2.4,1.6,1.2,3-4A1,1,0,0,0,56,22H54l1.8-2.4Z"></path><rect x="31" y="24" width="4" height="8"></rect><path d="M14.7,28l8.889,16H46.3l-8.89-16H37v5a1,1,0,0,1-1,1H30a1,1,0,0,1-1-1V28Z"></path><rect x="27" y="52" width="12" height="4"></rect><polygon points="4.699 44 21.301 44 13 29.059 4.699 44"></polygon><path d="M19,60V46H7V60H9V51a1,1,0,0,1,1-1h6a1,1,0,0,1,1,1v9Z"></path><rect x="11" y="52" width="4" height="8"></rect><path d="M21,60H45V46H21Zm4-9a1,1,0,0,1,1-1H40a1,1,0,0,1,1,1v6a1,1,0,0,1-1,1H26a1,1,0,0,1-1-1Z"></path><polygon points="56 60 56 45 54 45 54 60 2 60 2 62 62 62 62 60 56 60"></polygon><path d="M21.83,18.55l-4,6-1.66-1.1L19.13,19H15a1,1,0,0,1-.87-.5,1.044,1.044,0,0,1,0-1l.86-1.5h2.3l-.57,1H21a.984.984,0,0,1,.88.53A.963.963,0,0,1,21.83,18.55Z"></path><path d="M48.83,20.55l-4,6-1.66-1.1L46.13,21H42a1,1,0,0,1-.87-.5,1.044,1.044,0,0,1,0-1l.86-1.5h2.3l-.57,1H48a.984.984,0,0,1,.88.53A.963.963,0,0,1,48.83,20.55Z"></path></g></svg>