<svg xmlns="http://www.w3.org/2000/svg" viewBox="0 0 64 64" x="0px" y="0px"><g><path d="M16,10a8.391,8.391,0,0,0-3.6.92,14.647,14.647,0,0,1-2.4.84V12a3,3,0,0,0,6,0Z"></path><path d="M7.03,14.25a2,2,0,0,0,.27,3.62c.02-.01.03-.02.05-.02L10,17.21V15.97a4.332,4.332,0,0,1-.53-.43A5.013,5.013,0,0,1,8,12V10.93a.866.866,0,0,1,.06-.32,4.611,4.611,0,0,1-.65.59A.968.968,0,0,0,7,12a.92.92,0,0,0,.27.67,1.059,1.059,0,0,1,.27.85A1.023,1.023,0,0,1,7.03,14.25Z"></path><rect x="4" y="27" width="2" height="2"></rect><path d="M4,32a1,1,0,0,0,1,1h6a.928.928,0,0,0,.69-.29A.949.949,0,0,0,12,32a1,1,0,0,0-1-1H4Z"></path><path d="M18,12a4.952,4.952,0,0,1-2,3.97v1.31l2.13.71a2,2,0,0,0,.84-3.74,1.023,1.023,0,0,1-.51-.73,1.059,1.059,0,0,1,.27-.85A.92.92,0,0,0,19,12a.967.967,0,0,0-.4-.79,3.96,3.96,0,0,1-.6-.55Z"></path><path d="M9,8v.26a3.364,3.364,0,0,1-.62,1.9.957.957,0,0,1,.49-.22,10.084,10.084,0,0,0,2.74-.86A10.362,10.362,0,0,1,16,8a6.2,6.2,0,0,1,.86.05.482.482,0,0,1,.12,0,4.4,4.4,0,0,0-1.32-2.94A3.894,3.894,0,0,0,12.86,4,3.981,3.981,0,0,0,9,8Z"></path><path d="M16,59a1.984,1.984,0,0,0-1.73,1h3.46A1.984,1.984,0,0,0,16,59Z"></path><path d="M10,57a3.906,3.906,0,0,1,2,.56V47.98c-.66-.02-1.34-.07-2-.12Z"></path><path d="M16,47.86c-.66.05-1.34.1-2,.12v9.58A3.906,3.906,0,0,1,16,57Z"></path><path d="M30.98,19.86a.8.8,0,0,0-.6-.12.851.851,0,0,0-.51.36L25.3,27.44a1,1,0,0,1-1.74-.08l-.65-1.29-1.33.99,1.43,2.15a1.763,1.763,0,0,0,2.96-.03l5.24-8.24A.788.788,0,0,0,30.98,19.86Z"></path><path d="M18,32V25a1.008,1.008,0,0,1,.71-.96.992.992,0,0,1,1.12.41l.64.95L22,24.25l-.78-1.58a5.03,5.03,0,0,0-2.9-2.51l-.19-.07A6.931,6.931,0,0,1,13,22a6.7,6.7,0,0,1-5.34-2.15A4.981,4.981,0,0,0,4,24.66V25H7a1,1,0,0,1,1,1v3h3a3.009,3.009,0,0,1,3,3,3,3,0,0,1-3,3H7.78L5.23,45.21A51.256,51.256,0,0,0,13,46a49.878,49.878,0,0,0,7.81-.8L18.02,32.21A1.492,1.492,0,0,1,18,32Z"></path><path d="M8.27,60h3.46a2,2,0,0,0-3.46,0Z"></path><path d="M13,17a5.558,5.558,0,0,1-1-.1V18a1,1,0,0,1-.77.97l-1.24.3A5.927,5.927,0,0,0,13,20a5.907,5.907,0,0,0,2.87-.66l-1.19-.39A1.014,1.014,0,0,1,14,18V16.9A5.468,5.468,0,0,1,13,17Z"></path><path d="M41.354,22H43V19.816A3,3,0,0,1,41,17h2a1,1,0,0,0,2,0h2a3,3,0,0,1-2,2.816V22h1.6a6.813,6.813,0,0,1,1.1-1.643A5,5,0,0,0,44.006,12a5.336,5.336,0,0,0-.615.036A4.994,4.994,0,0,0,40.25,20.3,6.943,6.943,0,0,1,41.354,22Z"></path><path d="M29,50H59a1,1,0,0,0,1-1V5a1,1,0,0,0-1-1H29a1,1,0,0,0-1,1V19.32l.17-.28a2.809,2.809,0,0,1,3.92-.85,2.813,2.813,0,0,1,.81,3.83L28,29.72V49A1,1,0,0,0,29,50Zm27-8H48V40h8Zm0-4H48V36h8ZM53,16h2v2H53ZM51.071,8.515l1.414,1.414-1.414,1.414L49.657,9.929ZM43,6h2V8H43Zm.158,4.05a7,7,0,0,1,6.02,11.655c-.081.089-.165.189-.248.3H50v2H48.035a3.41,3.41,0,0,0-.035.48v.57A2.953,2.953,0,0,1,45.05,28h-2.1A2.953,2.953,0,0,1,40,25.05v-.129A4.965,4.965,0,0,0,39.912,24H38V22h1.027c-.091-.125-.171-.258-.275-.375A6.993,6.993,0,0,1,43.158,10.05Zm.549,24.657-5,5a1,1,0,0,1-1.414,0l-2-2,1.414-1.414L38,37.586l4.293-4.293ZM36.929,8.515l1.414,1.414-1.414,1.414L35.515,9.929ZM33,18V16h2v2Zm5,14v2a4,4,0,1,0,4,4h2a6,6,0,1,1-6-6Z"></path><path d="M42,24.921v.129a.951.951,0,0,0,.95.95h2.1a.951.951,0,0,0,.95-.95v-.57c0-.161.034-.32.048-.48H41.932A7.056,7.056,0,0,1,42,24.921Z"></path></g></svg>