<svg xmlns="http://www.w3.org/2000/svg" viewBox="0 0 64 64" x="0px" y="0px"><g><circle cx="32" cy="50" r="2"></circle><path d="M45.44,50.02,32.71,37.29a1.008,1.008,0,0,0-1.42,0L18.56,50.02a1,1,0,0,0,0,1.41l2.83,2.83a1.017,1.017,0,0,0,.71.3,1,1,0,0,0,.71-.3L24,53.07V61a1,1,0,0,0,1,1H39a1,1,0,0,0,1-1V53.07l1.19,1.19a1,1,0,0,0,.71.3,1.017,1.017,0,0,0,.71-.3l2.83-2.83A1,1,0,0,0,45.44,50.02ZM33,60H31V56h2Zm5,0H35V55a1,1,0,0,0-1-1H30a1,1,0,0,0-1,1v5H26V51.07l6-6,6,6Zm3.9-7.86-9.19-9.19a1.014,1.014,0,0,0-1.42,0L22.1,52.14l-1.41-1.41L32,39.41,43.31,50.73Z"></path><path d="M29.44,31.02,16.71,18.29a1.008,1.008,0,0,0-1.42,0L2.56,31.02a1,1,0,0,0,0,1.41l2.83,2.83a1.017,1.017,0,0,0,.71.3,1,1,0,0,0,.71-.3L8,34.07V42a1,1,0,0,0,1,1H23a1,1,0,0,0,1-1V34.07l1.19,1.19a1,1,0,0,0,.71.3,1.017,1.017,0,0,0,.71-.3l2.83-2.83A1,1,0,0,0,29.44,31.02ZM17,41H15V37h2Zm5,0H19V36a1,1,0,0,0-1-1H14a1,1,0,0,0-1,1v5H10V32.07l6-6,6,6Zm3.9-7.86-9.19-9.19a1.014,1.014,0,0,0-1.42,0L6.1,33.14,4.69,31.73,16,20.41,27.31,31.73Z"></path><circle cx="16" cy="31" r="2"></circle><circle cx="48" cy="31" r="2"></circle><path d="M61.44,31.02,48.71,18.29a1.008,1.008,0,0,0-1.42,0L34.56,31.02a1,1,0,0,0,0,1.41l2.83,2.83a1.017,1.017,0,0,0,.71.3,1,1,0,0,0,.71-.3L40,34.07V42a1,1,0,0,0,1,1H55a1,1,0,0,0,1-1V34.07l1.19,1.19a1,1,0,0,0,.71.3,1.017,1.017,0,0,0,.71-.3l2.83-2.83A1,1,0,0,0,61.44,31.02ZM49,41H47V37h2Zm5,0H51V36a1,1,0,0,0-1-1H46a1,1,0,0,0-1,1v5H42V32.07l6-6,6,6Zm3.9-7.86-9.19-9.19a1.014,1.014,0,0,0-1.42,0L38.1,33.14l-1.41-1.41L48,20.41,59.31,31.73Z"></path><path d="M28.687,24.3l2.827,1.571a1,1,0,0,0,.972,0L35.313,24.3A13.006,13.006,0,0,0,42,12.939V7a1,1,0,0,0-.594-.914l-9-4a1,1,0,0,0-.812,0l-9,4A1,1,0,0,0,22,7v5.939A13.006,13.006,0,0,0,28.687,24.3ZM24,7.649,32,4.1l8,3.554v5.29a11.006,11.006,0,0,1-5.658,9.616L32,23.856l-2.342-1.3A11.006,11.006,0,0,1,24,12.939Z"></path><path d="M31,17a1,1,0,0,0,.707-.293l5-5-1.414-1.414L31,14.586l-2.293-2.293-1.414,1.414,3,3A1,1,0,0,0,31,17Z"></path></g></svg>