<svg xmlns="http://www.w3.org/2000/svg" viewBox="0 0 64 64" x="0px" y="0px"><g><path d="M36,12.08V18h5.92A7,7,0,0,0,36,12.08Z"></path><path d="M26.85,54.6l2.96,2.22,3.01-3.01L30.6,50.85a1.046,1.046,0,0,1-.08-1.09,11.78,11.78,0,0,0,.99-2.39.987.987,0,0,1,.82-.71L36,46.13V41.87l-3.67-.53a.987.987,0,0,1-.82-.71,11.78,11.78,0,0,0-.99-2.39,1.046,1.046,0,0,1,.08-1.09l2.22-2.96-3.01-3.01L26.85,33.4a1.046,1.046,0,0,1-1.09.08,11.78,11.78,0,0,0-2.39-.99.987.987,0,0,1-.71-.82L22.13,28H17.87l-.53,3.67a.987.987,0,0,1-.71.82,11.78,11.78,0,0,0-2.39.99,1.046,1.046,0,0,1-1.09-.08l-2.96-2.22L7.18,34.19,9.4,37.15a1.046,1.046,0,0,1,.08,1.09,11.78,11.78,0,0,0-.99,2.39.987.987,0,0,1-.82.71L4,41.87v4.26l3.67.53a.987.987,0,0,1,.82.71,11.78,11.78,0,0,0,.99,2.39,1.046,1.046,0,0,1-.08,1.09L7.18,53.81l3.01,3.01,2.96-2.22a1.046,1.046,0,0,1,1.09-.08,11.78,11.78,0,0,0,2.39.99.987.987,0,0,1,.71.82L17.87,60h4.26l.53-3.67a.987.987,0,0,1,.71-.82,11.78,11.78,0,0,0,2.39-.99A1.046,1.046,0,0,1,26.85,54.6ZM20,52a8,8,0,1,1,8-8A8.009,8.009,0,0,1,20,52Z"></path><path d="M10,28.87a.953.953,0,0,1,.7.19l3.15,2.36a14.937,14.937,0,0,1,1.6-.66L16,26.93V12H13a3.009,3.009,0,0,0-3,3Z"></path><path d="M30.61,58.85a1,1,0,0,1-1.31.09L28.04,58H25a.927.927,0,0,0-.59.23l-.2,1.36a.311.311,0,0,0,.07.09A.959.959,0,0,0,25,60H45a1,1,0,0,0,1-1,.928.928,0,0,0-.29-.69A.949.949,0,0,0,45,58H31.46Z"></path><circle cx="20" cy="44" r="6"></circle><path d="M60,42H38v5a1,1,0,0,1-.86.99l-.07.01H57a3.009,3.009,0,0,0,3-3Zm-4,4H54V44h2Z"></path><path d="M35,26a7,7,0,0,0,6.92-6H35.414l-4.6,4.6A6.953,6.953,0,0,0,35,26Z"></path><path d="M49,8h1.86L48,4.56V7A1,1,0,0,0,49,8Z"></path><path d="M32.64,50l-.06.15,2.36,3.15a1,1,0,0,1-.09,1.31L33.46,56h8.41l-.75-6Z"></path><path d="M18,26h5a1,1,0,0,1,.99.86l.56,3.9a14.937,14.937,0,0,1,1.6.66l3.15-2.36a1,1,0,0,1,1.31.09l4.24,4.24a1,1,0,0,1,.09,1.31l-2.36,3.15a14.937,14.937,0,0,1,.66,1.6l3.83.55H52V10H49a3.009,3.009,0,0,1-3-3V4H21a3.009,3.009,0,0,0-3,3Zm32,7H42V31h8Zm-8-4V27h2v2Zm4-16h4v2H46Zm0,4h4v2H46Zm0,10h4v2H46ZM35,10a9,9,0,1,1-9,9A9.01,9.01,0,0,1,35,10ZM20,12h4v2H20Zm0,4h4v2H20Z"></path><path d="M60,15a3.009,3.009,0,0,0-3-3H54V40h6Z"></path><path d="M34,18.586V12.08a6.978,6.978,0,0,0-4.6,11.1Z"></path></g></svg>