<svg xmlns="http://www.w3.org/2000/svg" viewBox="0 0 64 64" x="0px" y="0px"><g><path d="M52,58H44v2h8a1,1,0,0,0,0-2Z"></path><polygon points="13.236 60 42 60 42 58 13.236 58 11.236 59 13.236 60"></polygon><path d="M8,43v5a1,1,0,0,0,1,1H55a1,1,0,0,0,1-1V43H51v1H49V43H45v3H43V43H39v1H37V43H33v3H31V43H27v1H25V43H21v3H19V43H15v1H13V43Z"></path><path d="M57,30a3,3,0,0,0-3,3,1,1,0,0,1-2,0V7a4.874,4.874,0,0,1,.114-1H4V36H57a3,3,0,0,0,0-6ZM7,10h4v2H7Zm8,22a1,1,0,0,1-1,1H8a1,1,0,0,1-1-1V26a1,1,0,0,1,1-1h6a1,1,0,0,1,1,1Zm34,0H17V30H49ZM17,27V25H43v2Zm32,0H45V25h4Zm0-11H7V14H49Zm0-4H13V10H49Z"></path><rect x="9" y="27" width="4" height="4"></rect><path d="M60,7a3,3,0,0,0-5.593-1.5v0A2.974,2.974,0,0,0,54,7V29a4.945,4.945,0,0,1,6,.024Z"></path><polygon points="48 54 41 54 41 55 48 55 48 56 49 56 49 55 49 54 48 54"></polygon></g></svg>