<svg xmlns="http://www.w3.org/2000/svg" viewBox="0 0 64 64" x="0px" y="0px"><g><path d="M57,27a4.931,4.931,0,0,0-3.98,2h-4.3a16.95,16.95,0,0,0-2.78-6.7l3.05-3.04a4.957,4.957,0,0,0,4.23-1.4,5.006,5.006,0,0,0-7.08-7.08,4.966,4.966,0,0,0-1.4,4.23L41.7,18.06A16.95,16.95,0,0,0,35,15.28v-4.3A4.945,4.945,0,0,0,37,7,5,5,0,0,0,27,7a4.945,4.945,0,0,0,2,3.98v4.3a16.974,16.974,0,0,0-6.7,2.78l-3.04-3.05a5.027,5.027,0,0,0-1.4-4.22,5,5,0,1,0-7.07,7.07,5.027,5.027,0,0,0,4.22,1.4l3.05,3.04A16.974,16.974,0,0,0,15.28,29h-4.3A4.931,4.931,0,0,0,7,27,5,5,0,0,0,7,37a4.931,4.931,0,0,0,3.98-2h4.3a16.95,16.95,0,0,0,2.78,6.7l-3.05,3.04a4.957,4.957,0,0,0-4.23,1.4,5.006,5.006,0,0,0,7.08,7.08,4.966,4.966,0,0,0,1.4-4.23l3.04-3.05A16.95,16.95,0,0,0,29,48.72v4.3A4.945,4.945,0,0,0,27,57a5,5,0,0,0,10,0,4.945,4.945,0,0,0-2-3.98v-4.3a16.974,16.974,0,0,0,6.7-2.78l3.04,3.05a5.027,5.027,0,0,0,1.4,4.22,5,5,0,1,0,7.07-7.07,5.027,5.027,0,0,0-4.22-1.4L45.94,41.7A16.974,16.974,0,0,0,48.72,35h4.3A4.931,4.931,0,0,0,57,37a5,5,0,0,0,0-10ZM46.54,16.05a1.015,1.015,0,0,0,.26-.97,2.936,2.936,0,0,1,.76-2.88,3,3,0,0,1,4.24,4.24,2.947,2.947,0,0,1-2.89.76,1,1,0,0,0-.96.26L44.7,20.71a18.757,18.757,0,0,0-1.41-1.41ZM16.05,17.47a1,1,0,0,0-.71-.3.727.727,0,0,0-.25.04A2.993,2.993,0,0,1,12.2,12.2a3.075,3.075,0,0,1,4.24,0,2.987,2.987,0,0,1,.77,2.89.98.98,0,0,0,.26.96l6.75,6.76-1.41,1.41Zm10.51,4.97a11,11,0,0,1,15,15,.977.977,0,0,0-1.07.22l-2.83,2.83a.976.976,0,0,0-.3.7.946.946,0,0,0,.08.37,11,11,0,0,1-15-15,.946.946,0,0,0,.37.08.97.97,0,0,0,.7-.3l2.83-2.83a.976.976,0,0,0,.3-.7A.946.946,0,0,0,26.56,22.44Zm-9.1,25.51a1.015,1.015,0,0,0-.26.97,2.936,2.936,0,0,1-.76,2.88,3,3,0,0,1-4.24-4.24,2.947,2.947,0,0,1,2.89-.76,1,1,0,0,0,.96-.26l3.25-3.25a18.757,18.757,0,0,0,1.41,1.41Zm16.42-1.08a1,1,0,0,0-.88.99v5.69a1.012,1.012,0,0,0,.49.86,3,3,0,1,1-2.98,0,1.012,1.012,0,0,0,.49-.86V47.86a1,1,0,0,0-.88-.99A14.947,14.947,0,0,1,17.13,33.88a1,1,0,0,0-.99-.88H10.45a1.012,1.012,0,0,0-.86.49,3,3,0,1,1,0-2.98,1.012,1.012,0,0,0,.86.49h5.69a1,1,0,0,0,.99-.88,14.855,14.855,0,0,1,2.37-6.38l1.44,1.44A12.841,12.841,0,0,0,19,32,13.012,13.012,0,0,0,32,45a12.866,12.866,0,0,0,6.82-1.94l1.44,1.44A14.855,14.855,0,0,1,33.88,46.87Zm14.07-.34a.958.958,0,0,0,.96.26A2.993,2.993,0,0,1,51.8,51.8a3.075,3.075,0,0,1-4.24,0,2.987,2.987,0,0,1-.77-2.89.98.98,0,0,0-.26-.96l-6.75-6.76,1.41-1.41ZM57,35a2.982,2.982,0,0,1-2.59-1.51,1.012,1.012,0,0,0-.86-.49H47.86a1,1,0,0,0-.99.88,14.855,14.855,0,0,1-2.37,6.38l-1.44-1.44A12.841,12.841,0,0,0,45,32,13.012,13.012,0,0,0,32,19a12.866,12.866,0,0,0-6.82,1.94L23.74,19.5a14.855,14.855,0,0,1,6.38-2.37,1,1,0,0,0,.88-.99V10.45a1.012,1.012,0,0,0-.49-.86,3,3,0,1,1,2.98,0,1.012,1.012,0,0,0-.49.86v5.69a1,1,0,0,0,.88.99A14.947,14.947,0,0,1,46.87,30.12a1,1,0,0,0,.99.88h5.69a1.012,1.012,0,0,0,.86-.49A2.995,2.995,0,1,1,57,35Z"></path><path d="M28,31a3,3,0,1,0-3-3A3,3,0,0,0,28,31Zm0-4a1,1,0,1,1-1,1A1,1,0,0,1,28,27Z"></path><path d="M36,31a3,3,0,1,0-3-3A3,3,0,0,0,36,31Zm0-4a1,1,0,1,1-1,1A1,1,0,0,1,36,27Z"></path><path d="M28,39a3,3,0,1,0-3-3A3,3,0,0,0,28,39Zm0-4a1,1,0,1,1-1,1A1,1,0,0,1,28,35Z"></path><path d="M36,39a3,3,0,1,0-3-3A3,3,0,0,0,36,39Zm0-4a1,1,0,1,1-1,1A1,1,0,0,1,36,35Z"></path></g></svg>