<svg xmlns="http://www.w3.org/2000/svg" viewBox="0 0 64 64" x="0px" y="0px"><g><path d="M43,60H57a1,1,0,0,0,1-1V5a1,1,0,0,0-1-1H43a1,1,0,0,0-1,1V59A1,1,0,0,0,43,60Zm13-4H48V54h8ZM50,6a6,6,0,1,1-6,6A6.006,6.006,0,0,1,50,6ZM44,22a1,1,0,0,1,1-1H55a1,1,0,0,1,1,1V45a1,1,0,0,1-1,1H45a1,1,0,0,1-1-1Zm0,28H56v2H44Zm0,4h2v2H44Z"></path><rect x="46" y="23" width="8" height="21"></rect><path d="M39,4H25a1,1,0,0,0-1,1V59a1,1,0,0,0,1,1H39a1,1,0,0,0,1-1V5A1,1,0,0,0,39,4ZM26,50h8v2H26Zm12,6H26V54H38Zm0-4H36V50h2Zm0-7a1,1,0,0,1-1,1H27a1,1,0,0,1-1-1V23a1,1,0,0,1,1-1H37a1,1,0,0,1,1,1ZM32,18a6,6,0,1,1,6-6A6.006,6.006,0,0,1,32,18Z"></path><circle cx="32" cy="12" r="4"></circle><path d="M21,4H7A1,1,0,0,0,6,5V59a1,1,0,0,0,1,1H21a1,1,0,0,0,1-1V5A1,1,0,0,0,21,4ZM8,50h2v2H8Zm12,6H8V54H20Zm0-4H12V50h8Zm0-7a1,1,0,0,1-1,1H9a1,1,0,0,1-1-1V23a1,1,0,0,1,1-1H19a1,1,0,0,1,1,1ZM14,18a6,6,0,1,1,6-6A6.006,6.006,0,0,1,14,18Z"></path><rect x="28" y="24" width="8" height="20"></rect><circle cx="14" cy="12" r="4"></circle><circle cx="50" cy="12" r="4"></circle><rect x="10" y="24" width="8" height="20"></rect></g></svg>