<svg xmlns="http://www.w3.org/2000/svg" viewBox="0 0 64 64" x="0px" y="0px"><g><rect x="8" y="28" width="6" height="2"></rect><rect x="52" y="43" width="1" height="3"></rect><path d="M52,50h8V24H4V50h8V48H10a1,1,0,0,1-1-1V42a1,1,0,0,1,1-1H54a1,1,0,0,1,1,1v5a1,1,0,0,1-1,1H52ZM16,31a1,1,0,0,1-1,1H7a1,1,0,0,1-1-1V27a1,1,0,0,1,1-1h8a1,1,0,0,1,1,1Zm12,1H18V30H28Zm4,0H30V30h2Z"></path><path d="M50,60V43H14V60ZM24,46H46v2H24Zm-6,0h4v2H18Zm0,4H46v2H18Zm0,4H40v2H18Z"></path><rect x="10" y="16" width="2" height="6"></rect><rect x="52" y="16" width="2" height="6"></rect><rect x="11" y="43" width="1" height="3"></rect><polygon points="50 4 14 4 14 15 14 22 50 22 50 15 50 4"></polygon></g></svg>