<svg xmlns="http://www.w3.org/2000/svg" viewBox="0 0 64 64" x="0px" y="0px"><g><rect x="10" y="36" width="2" height="10"></rect><rect x="14" y="36" width="2" height="10"></rect><rect x="18" y="36" width="2" height="10"></rect><rect x="30" y="36" width="2" height="10"></rect><rect x="26" y="36" width="2" height="10"></rect><rect x="22" y="36" width="2" height="10"></rect><path d="M57,16a1,1,0,0,0,1-1V14h3a1,1,0,0,0,1-1V9a1,1,0,0,0-1-1H58V7a1,1,0,0,0-1-1H56V3a1,1,0,0,0-1-1H51a1,1,0,0,0-1,1V6H49a1,1,0,0,0-1,1V8H22V6H20V8H19a3,3,0,0,0,0,6h1v3.17A3.014,3.014,0,0,0,18,20a2.975,2.975,0,0,0,.9,2.14L4.71,31H3a1,1,0,0,0-1,1V50a1,1,0,0,0,1,1H7a1,1,0,0,0,1-1H34a1,1,0,0,0,1,1h4a1,1,0,0,0,1-1V32a1,1,0,0,0-1-1H37.29L23.1,22.14A2.975,2.975,0,0,0,24,20H22a1,1,0,1,1-1-1,1,1,0,0,0,1-1V14H48v1a1,1,0,0,0,1,1h1V55H47a1,1,0,0,0-1,1v4H2v2H62V60H60V56a1,1,0,0,0-1-1H56V16Zm1-6h2v2H58ZM6,49H4V33H6ZM36,33h2V49H36ZM34,48H8V34H34ZM21,23.18l13.2,8.25A.938.938,0,0,0,34,32H8a.938.938,0,0,0-.2-.57ZM20,12H19a1,1,0,0,1,0-2h1Zm3.38,0H22V10h2.38Zm5,0H25.62l1-2h2.76Zm5,0H30.62l1-2h2.76Zm5,0H35.62l1-2h2.76Zm5,0H40.62l1-2h2.76ZM48,12H45.62l1-2H48Zm4-8h2V6H52Zm6,53v3H48V57ZM54,19.62v2.76l-2,1V20.62Zm-2-1.24V16h2v1.38Zm2,6.24v2.76l-2,1V25.62Zm0,5v2.76l-2,1V30.62Zm0,5v2.76l-2,1V35.62Zm0,5v2.76l-2,1V40.62Zm0,5v2.76l-2,1V45.62Zm0,5V55H52V50.62ZM50,14V8h6v6Z"></path></g></svg>