<svg xmlns="http://www.w3.org/2000/svg" viewBox="0 0 64 64" x="0px" y="0px"><g data-name="Candle Light"><rect x="31" y="12" width="2" height="2"></rect><rect x="47" y="30" width="2" height="2"></rect><rect x="15" y="20" width="2" height="2"></rect><path d="M47,49a1,1,0,0,1-1,1H33V28H31V50H18a1,1,0,0,1-1-1V36H15V49a3,3,0,0,0,3,3H31v4h2V52H46a3,3,0,0,0,3-3V46H47Z"></path><path d="M14,16a2,2,0,0,0,4,0c0-.62-.938-2.119-2-3.451C14.939,13.875,14,15.363,14,16Z"></path><rect x="13" y="24" width="6" height="10"></rect><path d="M30,8a2,2,0,0,0,4,0c0-.62-.938-2.119-2-3.451C30.939,5.875,30,7.363,30,8Z"></path><rect x="29" y="16" width="6" height="10"></rect><path d="M50,26c0-.62-.938-2.119-2-3.451-1.061,1.326-2,2.814-2,3.451a2,2,0,0,0,4,0Z"></path><rect x="45" y="34" width="6" height="10"></rect><rect x="24" y="58" width="16" height="2"></rect></g></svg>