<svg xmlns="http://www.w3.org/2000/svg" viewBox="0 0 64 64" x="0px" y="0px"><title>Contact-Phone</title><g><path d="M55,2H9A2,2,0,0,0,7,4V60a2,2,0,0,0,2,2H55a2,2,0,0,0,2-2V4A2,2,0,0,0,55,2ZM40,4V6H24V4ZM23,12H41a1,1,0,0,0,1-1V8h9V56H13V8h9v3A1,1,0,0,0,23,12Zm17-2H24V8H40ZM9,60V4H22V6H12a1,1,0,0,0-1,1V57a1,1,0,0,0,1,1H52a1,1,0,0,0,1-1V7a1,1,0,0,0-1-1H42V4H55V60Z"></path><path d="M22.172,42.586l2.121,2.121a1,1,0,0,0,1.414,0l5.657-5.657a1,1,0,0,0,0-1.414l-1.415-1.414,4.243-4.243,1.414,1.415a1,1,0,0,0,1.415,0l5.657-5.658a1,1,0,0,0,0-1.414L40.557,24.2a5.007,5.007,0,0,0-7.072,0L22.172,35.515a5,5,0,0,0,0,7.071Zm1.414-5.657L34.9,25.615a3.006,3.006,0,0,1,4.244,0l1.414,1.414-4.244,4.243L34.9,29.858a1,1,0,0,0-1.414,0l-5.657,5.657a1,1,0,0,0,0,1.414l1.415,1.414L25,42.586l-1.414-1.414a3,3,0,0,1,0-4.243Z"></path></g></svg>