<svg xmlns="http://www.w3.org/2000/svg" viewBox="0 0 64 64" x="0px" y="0px"><g data-name="Bank Safe"><rect x="7" y="15" width="2" height="12"></rect><path d="M19,4.05,4,8.74V13H34V8.74ZM19,12a3,3,0,1,1,3-3A3.009,3.009,0,0,1,19,12Z"></path><circle cx="19" cy="9" r="1"></circle><circle cx="26" cy="44" r="4"></circle><path d="M31,15V26H17a3.009,3.009,0,0,0-3,3v6H4V33h8V31H6V29h6V27H11V15H27v9h2V15Z"></path><path d="M59,28H17a1,1,0,0,0-1,1V59a1,1,0,0,0,1,1H59a1,1,0,0,0,1-1V29A1,1,0,0,0,59,28ZM18,43h2.09a5.949,5.949,0,0,1,1.02-2.47l-1.47-1.48,1.41-1.41,1.48,1.47A5.949,5.949,0,0,1,25,38.09V36h2v2.09a5.949,5.949,0,0,1,2.47,1.02l1.48-1.47,1.41,1.41-1.47,1.48A5.949,5.949,0,0,1,31.91,43H34v2H31.91a5.949,5.949,0,0,1-1.02,2.47l1.47,1.48-1.41,1.41-1.48-1.47A5.949,5.949,0,0,1,27,49.91V52H25V49.91a5.949,5.949,0,0,1-2.47-1.02l-1.48,1.47-1.41-1.41,1.47-1.48A5.949,5.949,0,0,1,20.09,45H18ZM58,55a3.009,3.009,0,0,1-3,3H21a3.009,3.009,0,0,1-3-3V52h2v3a1,1,0,0,0,1,1H55a1,1,0,0,0,1-1V33a1,1,0,0,0-1-1H21a1,1,0,0,0-1,1v3H18V33a3.009,3.009,0,0,1,3-3H55a3.009,3.009,0,0,1,3,3ZM36,51V37a2.006,2.006,0,0,1,2-2H52a2.006,2.006,0,0,1,2,2V51a2.006,2.006,0,0,1-2,2H38A2.006,2.006,0,0,1,36,51Z"></path><path d="M38,37V51H52V37Zm4,12H40V47h2Zm0-4H40V43h2Zm0-4H40V39h2Zm4,8H44V47h2Zm0-4H44V43h2Zm0-4H44V39h2Zm4,8H48V47h2Zm0-4H48V43h2Zm0-4H48V39h2Z"></path></g></svg>