<svg xmlns="http://www.w3.org/2000/svg" viewBox="0 0 64 64" x="0px" y="0px"><g><rect x="9.593" y="38.923" width="2" height="4" transform="translate(-31.406 45.712) rotate(-81.994)"></rect><rect x="16.835" y="53.059" width="2" height="2" transform="translate(-38.18 64.197) rotate(-82)"></rect><path d="M62.087,29.481l-.174-1.992L41.852,29.245a3,3,0,0,0-2.7,2.493L38.242,37.2a2,2,0,0,0,1.986,2.22,1.74,1.74,0,0,0,.176-.008L57.12,37.947l1.221,13.947-6.056.53a6.991,6.991,0,0,0-13.79,1.206l-3.067.268a.982.982,0,0,1-.728-.231.994.994,0,0,1-.355-.678l-.087-1,2.988-.262-.175-1.992L34.083,50l-.09-1.028,3.522-2.116a1,1,0,0,0,.192-1.564L36.414,44l1.293-1.293a1,1,0,0,0-.26-1.6L34,39.383c.09-.353.178-.707.293-1.052L38.055,29.2a2.989,2.989,0,0,1,2.513-1.847l20.613-1.8a3.142,3.142,0,0,1,.679.018l.28-1.98a5.1,5.1,0,0,0-1.133-.03l-20.614,1.8a4.983,4.983,0,0,0-4.188,3.079l-3.781,9.2a16.9,16.9,0,0,0-.849,4.552,7.08,7.08,0,0,0-.816-1.405,6.957,6.957,0,0,0-4.616-2.719l-1.593-.224,5.323-3.548,1.42,1.42,1.414-1.414-2-2a1,1,0,0,0-1.262-.125l-7.18,4.786L15.647,26.282a4.994,4.994,0,0,0-3.553-2.316l-9.955-1.4-.278,1.981,9.954,1.4a2.994,2.994,0,0,1,2.133,1.389l.632,1.019L2.139,26.607l-.278,1.98,4.321.608-.835,5.941-3.208-.45-.278,1.98,3.208.451L3.12,50.981l-.981-.138-.278,1.98,8.981,1.262a7,7,0,0,0,7,6.974,7.012,7.012,0,0,0,6.711-5.047l3.049.428a3.019,3.019,0,0,0,.423.03,3,3,0,0,0,2.965-2.583l.88-6.267.486,5.543A3.006,3.006,0,0,0,35.338,55.9c.088,0,.176,0,.264-.011l3.068-.269a7.008,7.008,0,0,0,6.8,5.4q.306,0,.615-.027a6.986,6.986,0,0,0,6.372-6.58l9.628-.843-.174-1.992-1.58.138-1.22-13.947,2.974-.26-.174-1.992-2.974.268L58.415,29.8ZM30.12,45.687l-.14.99-3.96-.557.278-1.98,3.861.542A5.063,5.063,0,0,1,30.12,45.687ZM8.163,29.473l7.783,1.094v-.006l4.121,6.644-12.74-1.79ZM22.787,54.754a5,5,0,0,1-8.945,2.313,5,5,0,0,1,3.983-8.009,5.1,5.1,0,0,1,.706.049A5.007,5.007,0,0,1,22.787,54.754Zm5.09-.294-3.05-.429a6.993,6.993,0,0,0-11.2-5.563,6.934,6.934,0,0,0-2.5,3.637L5.1,51.259,7.049,37.4,21.9,39.483l3.961.557a4.726,4.726,0,0,1,3.659,2.533l-2.947-.414a2,2,0,0,0-2.259,1.7l-.278,1.98a2,2,0,0,0,1.7,2.26l3.961.556-.278,1.981-2.971-.417-.278,1.98,2.971.418-.14.99A1,1,0,0,1,27.877,54.46Zm7.435-12.186-1.019,1.019a1,1,0,0,0,0,1.414L35.388,45.8l-1.589.955-.209-2.388a15.16,15.16,0,0,1,.035-2.938ZM50.458,53.587a5,5,0,1,1-5.416-4.545c.148-.013.3-.02.444-.02a5,5,0,0,1,4.972,4.565Zm6.489-17.62L40.222,37.472l.905-5.4a1,1,0,0,1,.9-.831l14.4-1.26Z"></path><rect x="41.435" y="41.156" width="4" height="2" transform="translate(-3.509 3.946) rotate(-5)"></rect><rect x="44.477" y="53.023" width="2" height="2" transform="translate(-4.548 4.182) rotate(-5.015)"></rect><path d="M18.293,26.707l1.414-1.414L18.414,24H21a1,1,0,0,0,1-1V20.414l3.293,3.293a1,1,0,0,0,1.414,0L30,20.414V23a1,1,0,0,0,1,1h3.586l-2.293,2.293,1.414,1.414,4-4A1,1,0,0,0,37,22H32V18a1,1,0,0,0-1.707-.707L26,21.586l-4.293-4.293A1,1,0,0,0,20,18v4H16a1,1,0,0,0-.707,1.707Z"></path><path d="M24.3,16h2a1.36,1.36,0,0,1,.465-1.021,3.322,3.322,0,0,0,0-4.62,1.358,1.358,0,0,1,0-2.048A3.29,3.29,0,0,0,27.7,6h-2a1.362,1.362,0,0,1-.466,1.024,3.326,3.326,0,0,0,0,4.622,1.356,1.356,0,0,1,0,2.045A3.28,3.28,0,0,0,24.3,16Z"></path><path d="M30.3,14h2a1.36,1.36,0,0,1,.465-1.021,3.322,3.322,0,0,0,0-4.62,1.358,1.358,0,0,1,0-2.048A3.29,3.29,0,0,0,33.7,4h-2a1.362,1.362,0,0,1-.466,1.024,3.326,3.326,0,0,0,0,4.622,1.356,1.356,0,0,1,0,2.045A3.28,3.28,0,0,0,30.3,14Z"></path></g></svg>