<svg xmlns="http://www.w3.org/2000/svg" viewBox="0 0 64 64" x="0px" y="0px"><g data-name="Smart Home-Smartphone-Application-Hand-Technology"><path d="M25,19.07l-5,5V33h2V28a1,1,0,0,1,1-1h4a1,1,0,0,1,1,1v5h2V24.07ZM26,25H24V23h2Z"></path><rect x="24" y="29" width="2" height="4"></rect><path d="M25.707,14.121a1,1,0,0,0-1.414,0l-9.314,9.314a1,1,0,1,0,1.415,1.414l7.9-7.9a1,1,0,0,1,1.414,0l7.9,7.9a1,1,0,1,0,1.415-1.415Z"></path><path d="M54,52v9H27.54l-2.87-4.96a2.018,2.018,0,0,1,.73-2.74,2.06,2.06,0,0,1,1.52-.2,1.942,1.942,0,0,1,1.21.94l2,3.46A1,1,0,0,0,32,57V38a2,2,0,0,1,4,0V54a1,1,0,0,0,2,0V50a2,2,0,0,1,4,0v4a1,1,0,0,0,2,0V51a2,2,0,0,1,4,0v3a1,1,0,0,0,2,0V52a2,2,0,0,1,4,0Z"></path><path d="M35,4H15a5,5,0,0,0-5,5V47a5,5,0,0,0,5,5h8.81a4.247,4.247,0,0,1,.59-.43,4.038,4.038,0,0,1,3.04-.4,4.084,4.084,0,0,1,1.55.83H30V38a4,4,0,0,1,8,0v8.54A3.989,3.989,0,0,1,40,46V9A5,5,0,0,0,35,4ZM22,6h6V8H22Zm4,44H24V48h2ZM36.43,26.26a2.958,2.958,0,0,1-2.12.88,2.992,2.992,0,0,1-2.12-.88L32,26.07V33a2.006,2.006,0,0,1-2,2H20a2.006,2.006,0,0,1-2-2V26.07l-.19.19a3,3,0,0,1-4.24-4.24l9.31-9.31a3,3,0,0,1,4.24,0l9.31,9.31A3,3,0,0,1,36.43,26.26Z"></path></g></svg>