<svg xmlns="http://www.w3.org/2000/svg" viewBox="0 0 64 64" x="0px" y="0px"><g data-name="Fish-Fish Bone-Bottle-Pollution-Environment"><path d="M62,27.86V26a7.008,7.008,0,0,0-7-7H26a11.04,11.04,0,0,0-10.12,6.68A2.943,2.943,0,0,0,14,25a3.01,3.01,0,0,0-2.82,2H10a2.006,2.006,0,0,0-2-2H4a2.006,2.006,0,0,0-2,2V37a2.006,2.006,0,0,0,2,2H8a2.006,2.006,0,0,0,2-2h1.18A3.01,3.01,0,0,0,14,39a2.943,2.943,0,0,0,1.88-.68A11.04,11.04,0,0,0,26,45H55a7.008,7.008,0,0,0,7-7V36.14a4.853,4.853,0,0,0-2.23-4.12A4.974,4.974,0,0,0,62,27.86ZM8,37H4V35H6V33H4V31H6V29H4V27H8Zm3-2H10V29h1Zm4,1a1,1,0,0,1-2,0V28a1,1,0,0,1,2,0Zm45-8.14a2.993,2.993,0,0,1-1.34,2.5,1.968,1.968,0,0,0,0,3.28A2.993,2.993,0,0,1,60,36.14V38a5,5,0,0,1-5,5H26a9.014,9.014,0,0,1-9-9V30a9.014,9.014,0,0,1,9-9H55a5,5,0,0,1,5,5Z"></path><path d="M52.472,26.118a1,1,0,0,0-1.027.05l-6,4A1,1,0,0,0,45,31H43.952c-.421-4.8-3.492-5.9-3.631-5.947l-.642,1.894c.021.007,1.9.751,2.258,4.053H39.952c-.421-4.8-3.492-5.9-3.631-5.947l-.642,1.894c.021.007,1.9.751,2.258,4.053H35.928a10.538,10.538,0,0,0-3-5.592,1.006,1.006,0,0,0-.944-.283,14.315,14.315,0,0,0-5.36,3.1,39.276,39.276,0,0,0-3.354,3.087,1,1,0,0,0,0,1.376c.207.218,5.109,5.358,8.712,6.187a1,1,0,0,0,.946-.283,10.538,10.538,0,0,0,3-5.592h2.028c-.3,3.28-2.193,4.022-2.268,4.05l.624,1.9c.143-.047,3.307-1.143,3.657-5.95h1.987c-.3,3.28-2.193,4.022-2.268,4.05l.624,1.9c.143-.047,3.307-1.143,3.657-5.95H45a1,1,0,0,0,.445.832l6,4A1,1,0,0,0,53,37V33a1,1,0,0,0-.553-.9l-.211-.1.211-.105A1,1,0,0,0,53,31V27A1,1,0,0,0,52.472,26.118ZM31.9,36.763c-2.12-.774-4.947-3.254-6.487-4.761.575-.562,1.467-1.4,2.483-2.227A14.933,14.933,0,0,1,31.9,27.237,7.555,7.555,0,0,1,34,32,7.551,7.551,0,0,1,31.9,36.763ZM51,30.382l-1.447.723a1,1,0,0,0,0,1.79L51,33.618v1.513l-4-2.666v-.93l4-2.666Z"></path><rect x="29" y="30" width="2" height="2"></rect></g></svg>