<svg xmlns="http://www.w3.org/2000/svg" viewBox="0 0 64 64" x="0px" y="0px"><g data-name="Game-Smartphone-Gamepad-Video Game-Cellphone"><path d="M46,2H18a6.006,6.006,0,0,0-6,6V56a6.006,6.006,0,0,0,6,6H46a6.006,6.006,0,0,0,6-6V8A6.006,6.006,0,0,0,46,2Zm4,54a4,4,0,0,1-4,4H18a4,4,0,0,1-4-4V8a4,4,0,0,1,4-4H46a4,4,0,0,1,4,4Z"></path><path d="M34,52H30a3,3,0,0,0,0,6h4a3,3,0,0,0,0-6Zm0,4H30a1,1,0,0,1,0-2h4a1,1,0,0,1,0,2Z"></path><rect x="25" y="6" width="2" height="2"></rect><rect x="29" y="6" width="6" height="2"></rect><path d="M38,28H33V27a3,3,0,0,0-3-3H24a3,3,0,0,1,0-6h6.08A6.99,6.99,0,0,0,42.5,21.327,1,1,0,0,0,42.417,20l-3-3,3-3a1,1,0,0,0,.08-1.324A6.99,6.99,0,0,0,30.08,16H24a5,5,0,0,0,0,10h6a1,1,0,0,1,1,1v1H26a8.009,8.009,0,0,0-8,8V47a3,3,0,0,0,3,3h2.249a3.009,3.009,0,0,0,2.974-2.6l.719-5.4H37.058l.719,5.4A3.009,3.009,0,0,0,40.751,50H43a3,3,0,0,0,3-3V36A8.009,8.009,0,0,0,38,28ZM37,12a4.949,4.949,0,0,1,3.322,1.265l-3.029,3.028a1,1,0,0,0,0,1.414l3.029,3.028A4.949,4.949,0,0,1,37,22a5,5,0,0,1,0-10Zm7,35a1,1,0,0,1-1,1H40.751a1,1,0,0,1-.991-.867l-.72-5.4A2.005,2.005,0,0,0,37.058,40H26.942a2.005,2.005,0,0,0-1.982,1.736l-.72,5.4a1,1,0,0,1-.991.867H21a1,1,0,0,1-1-1V36a6.006,6.006,0,0,1,6-6H38a6.006,6.006,0,0,1,6,6Z"></path><polygon points="26 32 24 32 24 34 22 34 22 36 24 36 24 38 26 38 26 36 28 36 28 34 26 34 26 32"></polygon><rect x="38" y="32" width="2" height="2"></rect><rect x="40" y="34" width="2" height="2"></rect><rect x="38" y="36" width="2" height="2"></rect><rect x="36" y="34" width="2" height="2"></rect><rect x="29" y="32" width="2" height="2"></rect><rect x="33" y="32" width="2" height="2"></rect><rect x="36" y="13" width="2" height="2"></rect><rect x="42" y="16" width="2" height="2"></rect><rect x="46" y="16" width="2" height="2"></rect></g></svg>