<svg xmlns="http://www.w3.org/2000/svg" viewBox="0 0 64 64" x="0px" y="0px"><title>Package-Box-Product-Delivery-Hand</title><g><rect x="7.899" y="42.826" width="10.001" height="15.999" transform="translate(-26.802 16.571) rotate(-34.971)"></rect><path d="M59.4,40.82a1.9,1.9,0,0,0-.1-1.03,2,2,0,0,0-2.56-1.2l-9.96,3.63a4.017,4.017,0,0,1-3.84,2.85,3.419,3.419,0,0,1-.71-.07l-10.8-1.91.34-1.96,10.81,1.91a2.009,2.009,0,0,0,2.29-1.42,1.768,1.768,0,0,0,.05-.84,2.012,2.012,0,0,0-.33-.86,2.048,2.048,0,0,0-1.3-.83L33.25,37.32a19.244,19.244,0,0,0-8.85.55l-.18.05a18.6,18.6,0,0,0-5.31,2.6l-3.14,2.19,6.31,9.02a10.883,10.883,0,0,1,8.09-1.74l1.79.3a10.988,10.988,0,0,0,5.68-.49l20.47-7.45A2,2,0,0,0,59.4,40.82Z"></path><path d="M57,12V9a1,1,0,0,0-1-1H45v4Z"></path><path d="M39.29,14.29a1.008,1.008,0,0,1,1.42,0L43,16.59V8H37v8.59Z"></path><path d="M23,9v3H35V8H24A1,1,0,0,0,23,9Z"></path><path d="M35.62,19.92A.987.987,0,0,1,35,19V14H23V36.23c.22-.08.44-.17.67-.23l.18-.06a20.993,20.993,0,0,1,9.74-.58l10.05,1.77a3.873,3.873,0,0,1,1.85.87h7.03l3.54-1.29a3.847,3.847,0,0,1,.94-.2V14H45v5a.987.987,0,0,1-.62.92A.838.838,0,0,1,44,20a1.007,1.007,0,0,1-.71-.29L40,16.41l-3.29,3.3A1,1,0,0,1,35.62,19.92Z"></path></g></svg>