<svg xmlns="http://www.w3.org/2000/svg" viewBox="0 0 64 64" x="0px" y="0px"><g><path d="M57,10H54V9a1,1,0,0,0-.23-.64l-5-6A.992.992,0,0,0,48,2H21a5,5,0,0,0-5,5v3H13a5,5,0,0,0-5,5V30.54L5.15,33.39a1,1,0,0,0-.09,1.31l2.36,3.15a14.937,14.937,0,0,0-.66,1.6l-3.9.56A1,1,0,0,0,2,41v6a1,1,0,0,0,.86.99l3.9.56a14.937,14.937,0,0,0,.66,1.6L5.06,53.3a1,1,0,0,0,.09,1.31l4.24,4.24a1,1,0,0,0,1.31.09l3.15-2.36a14.937,14.937,0,0,0,1.6.66l.56,3.9A1,1,0,0,0,17,62h6a.952.952,0,0,0,.7-.31A2.9,2.9,0,0,0,25,62H45a3.009,3.009,0,0,0,3-3,3,3,0,0,0-3-3H43.88l-.75-6H57a5,5,0,0,0,5-5V15A5,5,0,0,0,57,10ZM48,4.56,50.86,8H49a1,1,0,0,1-1-1ZM18,7a3.009,3.009,0,0,1,3-3H46V7a3.009,3.009,0,0,0,3,3h3V40H37.07l-3.83-.55a14.937,14.937,0,0,0-.66-1.6l2.36-3.15a1,1,0,0,0-.09-1.31l-4.24-4.24a1,1,0,0,0-1.31-.09l-3.15,2.36a14.937,14.937,0,0,0-1.6-.66l-.56-3.9A1,1,0,0,0,23,26H18Zm-8,8a3.009,3.009,0,0,1,3-3h3V26.93l-.55,3.83a14.937,14.937,0,0,0-1.6.66L10.7,29.06a.953.953,0,0,0-.7-.19ZM23.37,55.51a.987.987,0,0,0-.71.82L22.13,60H17.87l-.53-3.67a.987.987,0,0,0-.71-.82,11.78,11.78,0,0,1-2.39-.99,1.046,1.046,0,0,0-1.09.08l-2.96,2.22L7.18,53.81,9.4,50.85a1.046,1.046,0,0,0,.08-1.09,11.78,11.78,0,0,1-.99-2.39.987.987,0,0,0-.82-.71L4,46.13V41.87l3.67-.53a.987.987,0,0,0,.82-.71,11.78,11.78,0,0,1,.99-2.39,1.046,1.046,0,0,0-.08-1.09L7.18,34.19l3.01-3.01,2.96,2.22a1.046,1.046,0,0,0,1.09.08,11.78,11.78,0,0,1,2.39-.99.987.987,0,0,0,.71-.82L17.87,28h4.26l.53,3.67a.987.987,0,0,0,.71.82,11.78,11.78,0,0,1,2.39.99,1.046,1.046,0,0,0,1.09-.08l2.96-2.22,3.01,3.01L30.6,37.15a1.046,1.046,0,0,0-.08,1.09,11.78,11.78,0,0,1,.99,2.39.987.987,0,0,0,.82.71l3.67.53v4.26l-3.67.53a.987.987,0,0,0-.82.71,11.78,11.78,0,0,1-.99,2.39,1.046,1.046,0,0,0,.08,1.09l2.22,2.96-3.01,3.01L26.85,54.6a1.046,1.046,0,0,0-1.09-.08A11.78,11.78,0,0,1,23.37,55.51ZM34.94,53.3l-2.36-3.15.06-.15h8.48l.75,6H33.46l1.39-1.39A1,1,0,0,0,34.94,53.3ZM45,58a.949.949,0,0,1,.71.31A.928.928,0,0,1,46,59a1,1,0,0,1-1,1H25a.959.959,0,0,1-.72-.32.311.311,0,0,1-.07-.09l.2-1.36A.927.927,0,0,1,25,58h3.04l1.26.94a1,1,0,0,0,1.31-.09l.85-.85ZM60,45a3.009,3.009,0,0,1-3,3H37.07l.07-.01A1,1,0,0,0,38,47V42H60Zm0-5H54V12h3a3.009,3.009,0,0,1,3,3Z"></path><rect x="54" y="44" width="2" height="2"></rect><path d="M35,28a9,9,0,1,0-9-9A9.01,9.01,0,0,0,35,28Zm0-2a6.953,6.953,0,0,1-4.184-1.4l4.6-4.6H41.92A7,7,0,0,1,35,26Zm6.92-8H36V12.08A7,7,0,0,1,41.92,18ZM34,12.08v6.506l-4.6,4.6A6.978,6.978,0,0,1,34,12.08Z"></path><rect x="46" y="13" width="4" height="2"></rect><rect x="46" y="17" width="4" height="2"></rect><rect x="20" y="12" width="4" height="2"></rect><rect x="20" y="16" width="4" height="2"></rect><rect x="42" y="27" width="2" height="2"></rect><rect x="46" y="27" width="4" height="2"></rect><rect x="42" y="31" width="8" height="2"></rect><path d="M28,44a8,8,0,1,0-8,8A8.009,8.009,0,0,0,28,44Zm-8,6a6,6,0,1,1,6-6A6.006,6.006,0,0,1,20,50Z"></path></g></svg>