<svg xmlns="http://www.w3.org/2000/svg" viewBox="0 0 64 64" x="0px" y="0px"><g><path d="M61.707,28.293,49.293,15.879A2.978,2.978,0,0,0,47.171,15H13a3,3,0,0,0-3,3V40a3,3,0,0,0,3,3h2.08a6.978,6.978,0,0,0,2.031,4H2v2H50a7.006,7.006,0,0,0,6.92-6H59a3,3,0,0,0,3-3V29A1,1,0,0,0,61.707,28.293ZM60,30H45V21h6.586L60,29.414ZM17,42a5,5,0,1,1,5,5A5.006,5.006,0,0,1,17,42Zm9.889,5a6.978,6.978,0,0,0,2.031-4H43.08a6.978,6.978,0,0,0,2.031,4ZM50,47a5,5,0,1,1,5-5A5.006,5.006,0,0,1,50,47Zm9-6H56.92a6.991,6.991,0,0,0-13.84,0H28.92a6.991,6.991,0,0,0-13.84,0H13a1,1,0,0,1-1-1V18a1,1,0,0,1,1-1H47.171a1,1,0,0,1,.708.293L49.586,19H45a2,2,0,0,0-2,2v9a2,2,0,0,0,2,2H60v8A1,1,0,0,1,59,41Z"></path><rect x="21" y="41" width="2" height="2"></rect><rect x="49" y="41" width="2" height="2"></rect><path d="M31.657,26,26,20.343A4,4,0,0,0,20.343,26l5,5H20v2H34V31H32.184A4.007,4.007,0,0,0,31.657,26Zm-1.414,4.243a2,2,0,0,1-2.829,0l-2.121-2.122,2.828-2.828,2.122,2.121A2,2,0,0,1,30.243,30.243Zm-8.486-8.486a2,2,0,0,1,2.829,0l2.121,2.122-2.828,2.828-2.122-2.121A2,2,0,0,1,21.757,21.757Z"></path><rect x="16" y="31" width="2" height="2"></rect><rect x="6" y="39" width="2" height="2"></rect><rect x="2" y="39" width="2" height="2"></rect><rect x="7" y="43" width="2" height="2"></rect><rect x="3" y="43" width="2" height="2"></rect></g></svg>