<svg xmlns="http://www.w3.org/2000/svg" viewBox="0 0 64 64" x="0px" y="0px"><title>Sun block</title><g data-name="Sun block"><path d="M37,2H9A1,1,0,0,0,8,3.069l4,58A1,1,0,0,0,13,62H33a1,1,0,0,0,1-.931l4-58A1,1,0,0,0,37,2ZM13.244,50H32.756l-.483,7H13.727Zm.69,10-.069-1h18.27l-.069,1Zm18.96-12H13.106L10.071,4H35.929Z"></path><path d="M23,27a6,6,0,1,0-6-6A6.006,6.006,0,0,0,23,27Zm0-10a4,4,0,1,1-4,4A4,4,0,0,1,23,17Z"></path><rect x="22" y="10" width="2" height="4"></rect><rect x="15.636" y="12.636" width="2" height="4" transform="translate(-5.477 16.048) rotate(-44.995)"></rect><rect x="12" y="20" width="4" height="2"></rect><rect x="14.636" y="26.364" width="4" height="2" transform="translate(-14.477 19.781) rotate(-45.005)"></rect><rect x="22" y="28" width="2" height="4"></rect><rect x="28.364" y="25.364" width="2" height="4" transform="translate(-10.749 28.775) rotate(-44.995)"></rect><rect x="30" y="20" width="4" height="2"></rect><rect x="27.364" y="13.636" width="4" height="2" transform="translate(-1.749 25.05) rotate(-45)"></rect><rect x="18" y="37" width="10" height="2"></rect><rect x="16" y="41" width="14" height="2"></rect><path d="M55.729,28.315A1,1,0,0,0,55,28H39a1,1,0,0,0-1,1.062l2,32A1,1,0,0,0,41,62H53a1,1,0,0,0,1-.938l2-32A1,1,0,0,0,55.729,28.315ZM41.939,60l-.187-3h10.5l-.187,3Zm10.434-5H41.627L40.064,30H53.936Z"></path><path d="M47,44a3,3,0,1,0-3-3A3,3,0,0,0,47,44Zm0-4a1,1,0,1,1-1,1A1,1,0,0,1,47,40Z"></path><rect x="46" y="35" width="2" height="2"></rect><rect x="42.465" y="36.464" width="2" height="2" transform="translate(-13.761 41.707) rotate(-45)"></rect><rect x="41" y="40" width="2" height="2"></rect><rect x="42.465" y="43.536" width="2" height="2" transform="translate(-18.761 43.778) rotate(-45)"></rect><rect x="46" y="45" width="2" height="2"></rect><rect x="49.535" y="43.536" width="2" height="2" transform="translate(-16.69 48.778) rotate(-45)"></rect><rect x="51" y="40" width="2" height="2"></rect><rect x="49.535" y="36.464" width="2" height="2" transform="translate(-11.69 46.707) rotate(-45)"></rect></g></svg>