<svg xmlns="http://www.w3.org/2000/svg" viewBox="0 0 64 64" x="0px" y="0px"><g><circle cx="20" cy="58" r="2"></circle><circle cx="10" cy="58" r="2"></circle><circle cx="38" cy="58" r="2"></circle><circle cx="15" cy="58" r="2"></circle><path d="M44,37H4V51H44ZM9,49H7V39H9Zm4,0H11V39h2Zm4,0H15V39h2Zm4,0H19V39h2Zm4,0H23V39h2Zm4,0H27V39h2Zm4,0H31V39h2Zm4,0H35V39h2Zm4,0H39V39h2Z"></path><path d="M48,55V53H34v2h1.78a2.964,2.964,0,0,1,4.44,0h.56a2.964,2.964,0,0,1,4.44,0Z"></path><path d="M60,55V50.56L57.49,49H54a1,1,0,0,1-1-1V43H50V55h2.78a2.964,2.964,0,0,1,4.44,0Z"></path><circle cx="55" cy="58" r="2"></circle><rect x="55" y="43" width="2" height="4"></rect><circle cx="43" cy="58" r="2"></circle><path d="M24,55V53H6v2H7.78a2.964,2.964,0,0,1,4.44,0h.56a2.964,2.964,0,0,1,4.44,0h.56a2.964,2.964,0,0,1,4.44,0Z"></path><path d="M11.29,32.71A1.033,1.033,0,0,1,11,32V29a1,1,0,0,1,1-1h2.59L18,24.59V21a1.033,1.033,0,0,1,.29-.71L22,16.59V13.41L19.59,11H16.38A26.976,26.976,0,0,0,5,33h6.58Z"></path><path d="M33,24.59l1.71,1.7A1.033,1.033,0,0,1,35,27v3h.59L37,28.59V24H33Z"></path><path d="M40.29,29.29,42,27.59V22.41L37.59,18H33a1.033,1.033,0,0,1-.71-.29l-4-4A1.033,1.033,0,0,1,28,13V6.3A26.731,26.731,0,0,0,19.65,9H20a1.033,1.033,0,0,1,.71.29l3,3A1.033,1.033,0,0,1,24,13v4a1.033,1.033,0,0,1-.29.71L20,21.41V25a1.033,1.033,0,0,1-.29.71l-4,4A1.033,1.033,0,0,1,15,30H13v1.59l.71.7L13,33H40V30A1.033,1.033,0,0,1,40.29,29.29ZM39,29a1.033,1.033,0,0,1-.29.71l-2,2A1.033,1.033,0,0,1,36,32H34a1,1,0,0,1-1-1V27.41l-1.71-1.7A1.033,1.033,0,0,1,31,25V23a1,1,0,0,1,1-1h6a1,1,0,0,1,1,1Z"></path><path d="M32,6c-.67,0-1.34.03-2,.08v6.51L33.41,16H38a1.033,1.033,0,0,1,.71.29l5,5A1.033,1.033,0,0,1,44,22v6a1.033,1.033,0,0,1-.29.71L42,30.41V33H59A27.028,27.028,0,0,0,32,6Z"></path></g></svg>