<svg xmlns="http://www.w3.org/2000/svg" viewBox="0 0 64 64" x="0px" y="0px"><g data-name="Danish Pointer"><rect x="49" y="8" width="2" height="2"></rect><rect x="43" y="8" width="2" height="2"></rect><path d="M61.6,7.2l-4-3A1,1,0,0,0,57,4H53.868L52.832,2.445A1,1,0,0,0,52,2H42a1,1,0,0,0-.832.445L40.132,4H37a1,1,0,0,0-.6.2l-4,3A1,1,0,0,0,32,8v3a1,1,0,0,0,.293.707L34,13.414v2.424l-.948,2.846A1,1,0,0,0,33,19v4a1,1,0,0,0,1,1h3a1,1,0,0,0,.832-.445l2-3A1.006,1.006,0,0,0,40,20V15.618l.8-.4.2.2v5.172l-.707.707A1,1,0,0,0,40,22v2a1,1,0,0,0,.293.707l.707.707V28a1,1,0,0,1-1,1H20a1,1,0,0,0-.781.375l-3.967,4.959L10.586,39H9.414L7.981,37.567A5.006,5.006,0,0,0,3,33a1,1,0,0,0-1,1v6a1,1,0,0,0,.293.707l4,4A1,1,0,0,0,7,45h5a1,1,0,0,0,.707-.293L15,42.414V61a1,1,0,0,0,1,1h4a1,1,0,0,0,1-1V47.874a4,4,0,0,0,2-1.248V61a1,1,0,0,0,1,1h4a1,1,0,0,0,1-1V47.829A3.006,3.006,0,0,0,31,45V43.766l3.485,2.091A1,1,0,0,0,35,46h3V61a1,1,0,0,0,1,1h4a1,1,0,0,0,1-1V46h2V61a1,1,0,0,0,1,1h4a1,1,0,0,0,1-1V26a1,1,0,0,0,.707-.293l1-1A1,1,0,0,0,54,24V22a1,1,0,0,0-.293-.707L53,20.586V15.414l.2-.2.8.4V20a1.006,1.006,0,0,0,.168.555l2,3A1,1,0,0,0,57,24h3a1,1,0,0,0,1-1V19a1,1,0,0,0-.052-.316L60,15.838V13.414l1.707-1.707A1,1,0,0,0,62,11V8A1,1,0,0,0,61.6,7.2ZM38.553,14.105A1,1,0,0,0,38,15v4.7L36.465,22H35V19.162l.948-2.846A1,1,0,0,0,36,16V13a1,1,0,0,0-.293-.707L34,10.586V8.5L37.333,6H39v7a1,1,0,0,0,.293.707l.019.019ZM26,34.414l.707-.707A1,1,0,0,0,27,33V31h8v6H28.3L26,35.465ZM11.586,43H7.414L4,39.586V35.171A3.006,3.006,0,0,1,6,38a1,1,0,0,0,.293.707l2,2A1,1,0,0,0,9,41h2a1,1,0,0,0,.707-.293L15,37.414v2.172ZM17,60V58h2v2Zm8,0V58h2v2Zm3-14a1,1,0,0,0-1,1v9H25V43h4v2A1,1,0,0,1,28,46ZM40,60V58h2v2Zm8,0V58h2v2Zm2-4H48V45a1,1,0,0,0-1-1H43a1,1,0,0,0-1,1V56H40V45a1,1,0,0,0-1-1H35.277l-4.762-2.857A1,1,0,0,0,30,41H24V38H22v6a2,2,0,0,1-2,2,1,1,0,0,0-1,1v9H17V35.351L20.48,31H25v1.586l-.707.707A1,1,0,0,0,24,34v2a1,1,0,0,0,.445.832l3,2A1.006,1.006,0,0,0,28,39h8a1,1,0,0,0,1-1V31h3a3,3,0,0,0,3-3V26h1a1,1,0,0,0,.707-.293L46.414,24h1.172l1.707,1.707A1,1,0,0,0,50,26Zm2-32.414L51.586,24H50.414l-1.707-1.707A1,1,0,0,0,48,22V19a1,1,0,0,0,.707-.293l1-1A1,1,0,0,0,50,17V15H48v1.586L47.586,17H46.414L46,16.586V15H44v2a1,1,0,0,0,.293.707l1,1A1,1,0,0,0,46,19v3a1,1,0,0,0-.707.293L43.586,24H42.414L42,23.586V22.414l.707-.707A1,1,0,0,0,43,21V15.333L45.8,11.6l-1.6-1.2-2.308,3.078L41,12.586V6.3L42.535,4h8.93L53,6.3v6.283l-.892.892L49.8,10.4l-1.6,1.2L51,15.333V21a1,1,0,0,0,.293.707l.707.707Zm8-13-1.707,1.707A1,1,0,0,0,58,13v3a1,1,0,0,0,.052.316L59,19.162V22H57.535L56,19.7V15a1,1,0,0,0-.553-.895l-.759-.379.019-.019A1,1,0,0,0,55,13V6h1.667L60,8.5Z"></path><rect x="44" y="31" width="2" height="2"></rect><rect x="46" y="28" width="2" height="2"></rect><rect x="46" y="35" width="2" height="2"></rect><rect x="41" y="36" width="2" height="2"></rect><rect x="38" y="33" width="2" height="2"></rect><rect x="42" y="40" width="2" height="2"></rect><rect x="46" y="39" width="2" height="2"></rect><rect x="19" y="40" width="2" height="2"></rect></g></svg>