<svg xmlns="http://www.w3.org/2000/svg" viewBox="0 0 64 64" x="0px" y="0px"><g><path d="M61.16,23.84a5,5,0,0,0-7.07,0L52,25.93V5a3.009,3.009,0,0,0-3-3H15a3.009,3.009,0,0,0-3,3V29.08a5.049,5.049,0,0,0-3.52,2.43L3.47,40.18A11.049,11.049,0,0,0,2,45.68V62H4V45.68a8.98,8.98,0,0,1,1.21-4.5l5-8.67A3.045,3.045,0,0,1,12,31.13V40.2L8.44,46.36l1.73,1,5.5-9.52,1.73,1a2,2,0,0,1,.73,2.73l-4,6.93a1.012,1.012,0,0,0,.01,1.01l1.01,1.68A13.013,13.013,0,0,1,17,57.88v1.45a9.922,9.922,0,0,1-.3,2.43l1.94.48A11.894,11.894,0,0,0,19,59.33V57.88A14.715,14.715,0,0,0,18.88,56H49a3.009,3.009,0,0,0,3-3V40.07l9.16-9.16A5,5,0,0,0,61.16,23.84Zm-7.78,3.53,1.42,1.42L41.36,42.22l-1.41-1.41ZM38.13,44.65l.79-2.05,3.48,3.48-2.05.79Zm.18,3-1.57.61.61-1.57ZM50,53a1,1,0,0,1-1,1H18.49a15.1,15.1,0,0,0-1.63-3.84l-.7-1.17,3.71-6.42A3.976,3.976,0,0,0,20.34,40H23V38H19.45a3.765,3.765,0,0,0-1.05-.89l-2.6-1.5a.993.993,0,0,0-1.36.36l-.44.76V5a1,1,0,0,1,1-1H49a1,1,0,0,1,1,1V27.93L37.83,40.1a1.014,1.014,0,0,0-.23.35l-3.53,9.19a.988.988,0,0,0,.22,1.07A1.007,1.007,0,0,0,35,51a.922.922,0,0,0,.36-.07l9.19-3.53a1.014,1.014,0,0,0,.35-.23l5.1-5.1Zm-5.81-7.95-1.41-1.41L56.21,30.2l1.42,1.42ZM59.75,29.49l-.71.71L54.8,25.96l.71-.71a3,3,0,0,1,4.24,4.24Z"></path><path d="M41,8H23a1,1,0,0,0-1,1V25a1,1,0,0,0,1,1H41a1,1,0,0,0,1-1V9A1,1,0,0,0,41,8ZM31,10h2v4.59l-.29-.3a1.014,1.014,0,0,0-1.42,0l-.29.3Zm-7,0h5v3H24ZM40,24H24V15h5v2a.987.987,0,0,0,.62.92,1,1,0,0,0,1.09-.21L32,16.41l1.29,1.3A1.007,1.007,0,0,0,34,18a.838.838,0,0,0,.38-.08A.987.987,0,0,0,35,17V15h5Zm0-11H35V10h5Z"></path><rect x="19" y="30" width="4" height="2"></rect><rect x="25" y="30" width="18" height="2"></rect><rect x="19" y="34" width="4" height="2"></rect><rect x="25" y="34" width="14" height="2"></rect><rect x="25" y="38" width="10" height="2"></rect><path d="M28,47a3.565,3.565,0,0,0-2.708,1.293c-.489.49-.73.707-1.292.707s-.8-.217-1.293-.707A3.566,3.566,0,0,0,20,47v2c.562,0,.8.217,1.293.707a3.481,3.481,0,0,0,5.415,0C27.2,49.217,27.438,49,28,49s.8.217,1.292.707A3.565,3.565,0,0,0,32,51V49c-.563,0-.8-.217-1.292-.707A3.565,3.565,0,0,0,28,47Z"></path></g></svg>