<svg xmlns="http://www.w3.org/2000/svg" viewBox="0 0 64 64" x="0px" y="0px"><g data-name="Eco Energy"><path d="M33,24.051v-3.8a21.954,21.954,0,0,1,2.782-4.144,4.956,4.956,0,0,0,6.582-.4c2.347-2.346,2.414-7.864,2.414-8.485a1,1,0,0,0-1-1c-.621,0-6.139.068-8.485,2.414a4.934,4.934,0,0,0-.833,5.925A24.76,24.76,0,0,0,32.6,17.006a20.175,20.175,0,0,0-2.732-3.841,7.006,7.006,0,0,0-1.158-8.357C25.673,1.774,17.6,1.687,16.687,1.687a1,1,0,0,0-1,1c0,.91.087,8.986,3.121,12.02a7,7,0,0,0,9.817.074A17.808,17.808,0,0,1,31,18.254v5.8a19,19,0,1,0,2,0ZM30.606,35.919,37,38.659V41a1,1,0,0,0,.4.8L41,44.5v3.167L38.2,51.4a1,1,0,0,0,.093,1.307l3.88,3.881A16.881,16.881,0,0,1,34,59.872V57a1,1,0,0,0,.447-.1l2-1A1,1,0,0,0,37,55V52a1,1,0,0,0-.293-.707l-2-2A1,1,0,0,0,34,49H30a1,1,0,0,0-.707.293l-2,2A1,1,0,0,0,27,52v3a1.006,1.006,0,0,0,.168.555L29,58.3v1.416a16.917,16.917,0,0,1-6.6-2.7l1.309-1.309A1,1,0,0,0,24,55V51.162l.832-2.495,4.683-2.81A1,1,0,0,0,30,45V41a1,1,0,0,0-.293-.707L27,37.586V34a1,1,0,0,0-.105-.447l-2-4a1,1,0,0,0-.271-.334l-1.139-.91A16.877,16.877,0,0,1,32,26c.437,0,.865.033,1.294.066l-3.108,4.353A1,1,0,0,0,30,31v4A1,1,0,0,0,30.606,35.919Zm6.1-25.869c1.221-1.221,4.189-1.666,6.032-1.789-.123,1.843-.568,4.811-1.789,6.032a3,3,0,0,1-3.819.345,20.454,20.454,0,0,1,3.385-2.781l-1.031-1.714a21.541,21.541,0,0,0-3.532,2.839,2.916,2.916,0,0,1,.754-2.932ZM20.222,13.293c-1.815-1.815-2.393-6.844-2.511-9.582,2.738.118,7.767.7,9.582,2.511a5.007,5.007,0,0,1,1.09,5.437,23.6,23.6,0,0,0-4.936-3.554L22.553,9.9a22.05,22.05,0,0,1,4.688,3.441,4.991,4.991,0,0,1-7.019-.043ZM15,43a16.963,16.963,0,0,1,6.742-13.524L23.2,30.644,25,34.236V38a1,1,0,0,0,.293.707L28,41.414v3.02l-4.515,2.709a1,1,0,0,0-.434.541l-1,3A1,1,0,0,0,22,51v3.586L20.815,55.77A16.95,16.95,0,0,1,15,43ZM31,59.949V58a1.006,1.006,0,0,0-.168-.555L29,54.7V52.414L30.414,51h3.172L35,52.414v1.968L33.764,55H33a1,1,0,0,0-1,1v4C31.662,60,31.333,59.969,31,59.949Zm12.708-4.655L40.32,51.906,42.8,48.6A1,1,0,0,0,43,48V44a1,1,0,0,0-.4-.8L39,40.5V38a1,1,0,0,0-.606-.919L32,34.341V31.32l3.53-4.946a16.972,16.972,0,0,1,8.178,28.92Z"></path></g></svg>