<svg xmlns="http://www.w3.org/2000/svg" viewBox="0 0 64 64" x="0px" y="0px"><title>Pencil</title><g data-name="Pencil"><path d="M58.154,5.846a7.006,7.006,0,0,0-9.9,0L5.122,48.979a1,1,0,0,0-.274.511L2.727,60.1a1,1,0,0,0,.98,1.2.932.932,0,0,0,.2-.02L14.51,59.152a1,1,0,0,0,.511-.274L58.154,15.745A7.006,7.006,0,0,0,58.154,5.846ZM7.243,49.687l.707-.708,7.071,7.071-.708.707Zm2.121-2.122L43.305,13.624l2.829,2.828L12.192,50.394Zm4.242,4.243L47.548,17.866,50.376,20.7,16.435,54.636Zm31.113-39.6.707-.707L52.5,18.574l-.707.707ZM6.443,51.715l5.842,5.842-7.3,1.461Zm50.3-37.384L53.912,17.16,46.84,10.088,49.669,7.26a5,5,0,0,1,7.071,7.071Z"></path></g></svg>