<svg xmlns="http://www.w3.org/2000/svg" viewBox="0 0 64 64" x="0px" y="0px"><g><path d="M51,2H13A5,5,0,0,0,8,7V57a5,5,0,0,0,5,5H51a5,5,0,0,0,5-5V7A5,5,0,0,0,51,2Zm3,55a3.009,3.009,0,0,1-3,3H13a3.009,3.009,0,0,1-3-3V7a3.009,3.009,0,0,1,3-3H51a3.009,3.009,0,0,1,3,3Z"></path><path d="M50,6H14a2.006,2.006,0,0,0-2,2V48a2.006,2.006,0,0,0,2,2H50a2.006,2.006,0,0,0,2-2V8A2.006,2.006,0,0,0,50,6Zm0,42H14V8H50Z"></path><path d="M34,52H30a3,3,0,0,0,0,6h4a3,3,0,0,0,0-6Zm0,4H30a1,1,0,0,1,0-2h4a1,1,0,0,1,0,2Z"></path><path d="M44,17H36a4.994,4.994,0,0,0-4,2.03A4.994,4.994,0,0,0,28,17H20a1,1,0,0,0-1,1V38a1,1,0,0,0,1,1H44a1,1,0,0,0,1-1V18A1,1,0,0,0,44,17ZM21,37V35h7a3.014,3.014,0,0,1,2.83,2Zm10-2.97A4.924,4.924,0,0,0,28,33H21V19h7a3.009,3.009,0,0,1,3,3ZM43,37H33.17A3.014,3.014,0,0,1,36,35h7Zm0-4H36a4.924,4.924,0,0,0-3,1.03V22a3.009,3.009,0,0,1,3-3h7Z"></path><rect x="23" y="21" width="6" height="2"></rect><rect x="23" y="25" width="6" height="2"></rect><rect x="23" y="29" width="6" height="2"></rect><rect x="35" y="21" width="6" height="2"></rect><rect x="35" y="25" width="6" height="2"></rect><rect x="35" y="29" width="6" height="2"></rect></g></svg>