<svg xmlns="http://www.w3.org/2000/svg" viewBox="0 0 64 64" x="0px" y="0px"><g><path d="M22,30a3,3,0,0,0,2,2.816v-4.4l-2-2Z"></path><path d="M26,22a1,1,0,0,0-2,0v1h2Z"></path><path d="M47,4.12l-9,4.5v5.59a11.067,11.067,0,0,0,5.34,9.43L47,25.83l3.66-2.19A11.067,11.067,0,0,0,56,14.21V8.62Zm7,10.09a9.018,9.018,0,0,1-4.37,7.71l-2.12,1.27a1,1,0,0,1-1.02,0l-2.12-1.27a8.981,8.981,0,0,1-3.2-3.28A9.074,9.074,0,0,1,40,14.21V10.47a.988.988,0,0,1,.55-.89l6-3a1.017,1.017,0,0,1,.9,0l6,3a.988.988,0,0,1,.55.89Z"></path><path d="M42,11.09v3.116a7.036,7.036,0,0,0,3.4,6h0l1.6.96,1.6-.96a7.035,7.035,0,0,0,3.4-6V11.09l-5-2.5Z"></path><path d="M51.69,25.35l-4.18,2.51a1,1,0,0,1-1.02,0l-4.18-2.51A13.051,13.051,0,0,1,36,14.21V10H11a1,1,0,0,0-1,1V42H54V23.55A12.342,12.342,0,0,1,51.69,25.35ZM34,22a3.009,3.009,0,0,1-3,3H30v2h4v2H30v1a5.468,5.468,0,0,1-.1,1H31a3.009,3.009,0,0,1,3,3v2H32V34a1,1,0,0,0-1-1H29v-.03a4.956,4.956,0,0,1-8,0V33H19a1,1,0,0,0-1,1v2H16V34a3.009,3.009,0,0,1,3-3h1.1a5.468,5.468,0,0,1-.1-1V29H16V27h4V25H19a3.009,3.009,0,0,1-3-3V20h2v2a1,1,0,0,0,1,1h3V22a3,3,0,0,1,1.85-2.77A2.02,2.02,0,0,0,22,18V16a3.967,3.967,0,0,1,3,1.38A3.967,3.967,0,0,1,28,16v2a2.02,2.02,0,0,0-1.85,1.23A3,3,0,0,1,28,22v1h3a1,1,0,0,0,1-1V20h2Zm4,8h4v2H38ZM50,40H38V38H50Zm0-4H38V34H50Zm0-4H44V30h6Z"></path><path d="M4,59a1,1,0,0,0,1,1H59a1,1,0,0,0,1-1V56H4Z"></path><polygon points="23.414 25 25 26.586 26.586 25 23.414 25"></polygon><path d="M26,32.816A3,3,0,0,0,28,30V26.414l-2,2Z"></path><polygon points="26.618 52 25.618 54 38.382 54 37.382 52 26.618 52"></polygon><path d="M54.38,44H9.62l-5,10H23.38l1.73-3.45A.977.977,0,0,1,26,50H38a.977.977,0,0,1,.89.55L40.62,54H59.38ZM19,46h2v2H19Zm-7,6H10V50h2Zm1-4H11V46h2Zm3,4H14V50h2Zm1-4H15V46h2Zm5,4H18V50h4Zm3-4H23V46h2Zm4,0H27V46h2Zm4,0H31V46h2Zm4,0H35V46h2Zm6-2h2v2H43Zm-2,2H39V46h2Zm5,4H42V50h4Zm1-6h2v2H47Zm3,6H48V50h2Zm1-6h2v2H51Zm3,6H52V50h2Z"></path></g></svg>