<svg xmlns="http://www.w3.org/2000/svg" viewBox="0 0 64 64" x="0px" y="0px"><g><rect x="6.766" y="44.331" width="6" height="12" transform="translate(-16.624 6.375) rotate(-19.999)"></rect><rect x="14.223" y="39.253" width="8" height="16" transform="translate(-15.062 9.082) rotate(-19.999)"></rect><path d="M37.732,51,59.15,38.634a1.983,1.983,0,0,0,1-1.734,2,2,0,0,0-3-1.731l-9.193,5.306A3.992,3.992,0,0,1,44,44H33V42H44a2,2,0,0,0,2-2,1.691,1.691,0,0,0-.116-.644,1.915,1.915,0,0,0-.471-.769A1.983,1.983,0,0,0,44,38H29.259l-6.668,3.71L25.972,51Z"></path><path d="M29.949,20a9.9,9.9,0,0,1-1.3,4H37V20H36v2H34V20H32v2H30V20Z"></path><path d="M20,27a8,8,0,1,0-8-8A8.009,8.009,0,0,0,20,27Zm0-7a2.993,2.993,0,0,1-1-5.816V13h2v1.184A3,3,0,0,1,23,17H21a1,1,0,1,0-1,1,2.993,2.993,0,0,1,1,5.816V25H19V23.816A3,3,0,0,1,17,21h2a1,1,0,1,0,1-1Z"></path><path d="M37,26H36v2H34V26H32v2H30V26H28v2H26V26.981a9.934,9.934,0,0,1-5,1.968V30H37Z"></path><polygon points="39 14 39 18 55 18 55 14 54 14 54 16 52 16 52 14 50 14 50 16 48 16 48 14 46 14 46 16 44 16 44 14 42 14 42 16 40 16 40 14 39 14"></polygon><polygon points="39 8 39 12 55 12 55 8 54 8 54 10 52 10 52 8 50 8 50 10 48 10 48 8 46 8 46 10 44 10 44 8 42 8 42 10 40 10 40 8 39 8"></polygon><polygon points="55 20 54 20 54 22 52 22 52 20 50 20 50 22 48 22 48 20 46 20 46 22 44 22 44 20 42 20 42 22 40 22 40 20 39 20 39 24 55 24 55 20"></polygon><polygon points="55 26 54 26 54 28 52 28 52 26 50 26 50 28 48 28 48 26 46 26 46 28 44 28 44 26 42 26 42 28 40 28 40 26 39 26 39 30 55 30 55 26"></polygon></g></svg>