<svg xmlns="http://www.w3.org/2000/svg" viewBox="0 0 64 64" x="0px" y="0px"><g><path d="M19.53,19.77A8,8,0,0,0,13.86,6a8.09,8.09,0,0,0-7.85,7.71A7.973,7.973,0,0,0,8.39,19.7,5.155,5.155,0,0,1,9.96,23H8v2h2v2a2.006,2.006,0,0,0,2,2h4a2.006,2.006,0,0,0,2-2V25h2V23H18.04A5,5,0,0,1,19.53,19.77ZM16,27H12V25h4Zm.01-4H11.99a7.147,7.147,0,0,0-2.2-4.73A5.947,5.947,0,0,1,8,13.78,6.073,6.073,0,0,1,13.9,8a5.991,5.991,0,0,1,4.25,10.32A7.021,7.021,0,0,0,16.01,23Z"></path><path d="M13,16.816V21h2V16.816A3,3,0,0,0,17,14H15a1,1,0,0,1-2,0H11A3,3,0,0,0,13,16.816Z"></path><rect x="13" y="2" width="2" height="2"></rect><rect x="7.5" y="3.474" width="2" height="2" transform="translate(-1.098 4.85) rotate(-30.002)"></rect><rect x="3.473" y="7.5" width="2" height="2" transform="translate(-5.124 8.125) rotate(-60.005)"></rect><rect x="2" y="13" width="2" height="2"></rect><rect x="3.473" y="18.5" width="2" height="2" transform="translate(-9.149 4.848) rotate(-29.995)"></rect><rect x="22.526" y="18.5" width="2" height="2" transform="translate(-5.123 30.127) rotate(-60.005)"></rect><rect x="24" y="13" width="2" height="2"></rect><rect x="22.526" y="7.5" width="2" height="2" transform="translate(-1.098 12.9) rotate(-29.995)"></rect><rect x="18.5" y="3.474" width="2" height="2" transform="translate(5.877 19.126) rotate(-60.005)"></rect><path d="M51.769,24.911l-1.891.577a1,1,0,0,0-.256,1.794l6.535,4.276a1,1,0,0,0,1.47-.45l3.027-7.2a1,1,0,0,0-1.215-1.344l-1.928.59A26.844,26.844,0,0,0,32.01,4.993H32v2h.01a24.863,24.863,0,0,1,23.9,17.7,1,1,0,0,0,1.249.663l.825-.252-1.734,4.125L52.5,26.777l.827-.253A1,1,0,0,0,54,25.275,22.873,22.873,0,0,0,32.008,8.994H32v2h.008A20.878,20.878,0,0,1,51.769,24.911Z"></path><path d="M12.231,39.089l1.891-.577a1,1,0,0,0,.256-1.794L7.843,32.442a1,1,0,0,0-1.47.45l-3.027,7.2a1,1,0,0,0,1.215,1.344l1.928-.59a26.844,26.844,0,0,0,25.5,18.162H32v-2h-.01a24.863,24.863,0,0,1-23.9-17.7,1,1,0,0,0-1.249-.663l-.825.252,1.734-4.125,3.744,2.45-.827.253a1,1,0,0,0-.664,1.249A22.873,22.873,0,0,0,31.992,55.006H32v-2h-.008A20.878,20.878,0,0,1,12.231,39.089Z"></path><path d="M48,33A15,15,0,1,0,63,48,15.017,15.017,0,0,0,48,33Zm0,28A13,13,0,1,1,61,48,13.015,13.015,0,0,1,48,61Z"></path><path d="M50,46h2a3,3,0,0,0-3-3V41H47v2a3,3,0,0,0,0,6v2a1,1,0,0,1-1-1H44a3,3,0,0,0,3,3v2h2V53a3,3,0,0,0,0-6V45A1,1,0,0,1,50,46Zm0,4a1,1,0,0,1-1,1V49A1,1,0,0,1,50,50Zm-3-3a1,1,0,0,1,0-2Z"></path><path d="M48,37A11,11,0,1,0,59,48,11.013,11.013,0,0,0,48,37Zm0,20a9,9,0,1,1,9-9A9.01,9.01,0,0,1,48,57Z"></path></g></svg>