<svg xmlns="http://www.w3.org/2000/svg" viewBox="0 0 64 64" x="0px" y="0px"><g data-name="Money Tree"><path d="M51,38a2,2,0,0,0-2-2H33V31h6a5.006,5.006,0,0,0,5-5V22a1,1,0,0,0-1-1H36a4.948,4.948,0,0,0-3,1.026V19.941a9,9,0,1,0-2,0v4.085A4.948,4.948,0,0,0,28,23H21a1,1,0,0,0-1,1v4a5.006,5.006,0,0,0,5,5h6v7.026A9.987,9.987,0,1,0,17.026,54H15a2,2,0,0,0-2,2v4a2,2,0,0,0,2,2H31a1.978,1.978,0,0,0,1-.278A1.978,1.978,0,0,0,33,62H49a2,2,0,0,0,2-2V56a1.978,1.978,0,0,0-.278-1A1.978,1.978,0,0,0,51,54V50a1.978,1.978,0,0,0-.278-1A1.978,1.978,0,0,0,51,48V44a1.978,1.978,0,0,0-.278-1A1.978,1.978,0,0,0,51,42ZM36,23h6v3a3,3,0,0,1-3,3H33V26A3,3,0,0,1,36,23ZM25,11a7,7,0,1,1,7,7A7.008,7.008,0,0,1,25,11Zm0,20a3,3,0,0,1-3-3V25h6a3,3,0,0,1,3,3v3Zm9,7v2h2V38h2v2h2V38h2v2h2V38h2v2h2V38h1v4H33V38ZM49,48H33V44h1v2h2V44h2v2h2V44h2v2h2V44h2v2h2V44h1Zm0,6H33V50h1v2h2V50h2v2h2V50h2v2h2V50h2v2h2V50h1ZM28.974,54A10.051,10.051,0,0,0,31,51.974V54ZM15,46a8,8,0,1,1,8,8A8.009,8.009,0,0,1,15,46Zm0,14V56h1v2h2V56h2v2h2V56h2v2h2V56h2v2h2V56h1v4Zm34,0H33V56h1v2h2V56h2v2h2V56h2v2h2V56h2v2h2V56h1Z"></path><path d="M23,43a1,1,0,0,1,1,1h2a3,3,0,0,0-2-2.816V40H22v1.184A2.993,2.993,0,0,0,23,47a1,1,0,1,1-1,1H20a3,3,0,0,0,2,2.816V52h2V50.816A2.993,2.993,0,0,0,23,45a1,1,0,0,1,0-2Z"></path><rect x="8.213" y="41.569" width="1.999" height="4" transform="translate(-35.294 45.078) rotate(-80.003)"></rect><rect x="12.101" y="34.101" width="2" height="4" transform="translate(-21.69 19.837) rotate(-45)"></rect><path d="M33,17V15.816A2.993,2.993,0,0,0,32,10a1,1,0,1,1,1-1h2a3,3,0,0,0-2-2.816V5H31V6.184A2.993,2.993,0,0,0,32,12a1,1,0,1,1-1,1H29a3,3,0,0,0,2,2.816V17Z"></path></g></svg>