<svg xmlns="http://www.w3.org/2000/svg" viewBox="0 0 64 64" x="0px" y="0px"><g><path d="M48.875,56l1.389-7.878a5.006,5.006,0,0,0-4.056-5.792l-.985-.174L42.1,59.883l.985.174A5,5,0,0,0,48.875,56Z"></path><path d="M53.864,49.055a.992.992,0,0,0-.645-.411l-.986-.174-1.388,7.879.984.173h0a1,1,0,0,0,1.158-.811L54.029,49.8A.991.991,0,0,0,53.864,49.055Z"></path><path d="M42.269,41.636a1.055,1.055,0,0,0-.176-.015,1,1,0,0,0-.983.826L38.332,58.2a1,1,0,0,0,.812,1.158l.984.174L43.254,41.81Z"></path><path d="M32,4A28.03,28.03,0,0,0,4.025,31h3.16a1.985,1.985,0,0,0,1.977-1.742,23,23,0,0,1,45.676,0A1.985,1.985,0,0,0,56.815,31h3.16A28.03,28.03,0,0,0,32,4Z"></path><path d="M59.96,33h-2a25.6,25.6,0,0,1-4.5,13.655l.109.019a2.969,2.969,0,0,1,1.669.922A27.63,27.63,0,0,0,59.96,33Z"></path><path d="M15.125,56a5,5,0,0,0,5.793,4.056l.984-.173L18.777,42.157l-.985.174a5.006,5.006,0,0,0-4.056,5.792Z"></path><path d="M4.04,33A27.63,27.63,0,0,0,8.765,47.6a2.968,2.968,0,0,1,1.67-.922l.108-.019A25.6,25.6,0,0,1,6.041,33Z"></path><path d="M25.668,58.2,22.89,42.447a1,1,0,0,0-.983-.826,1.055,1.055,0,0,0-.176.015l-.985.174,3.126,17.726.984-.174a1,1,0,0,0,.812-1.158Z"></path><path d="M12.171,56.522l.984-.173L11.767,48.47l-.985.174A1,1,0,0,0,9.971,49.8l1.041,5.909a1,1,0,0,0,1.158.811Z"></path></g></svg>