<svg xmlns="http://www.w3.org/2000/svg" viewBox="0 0 64 64" x="0px" y="0px"><g><path d="M23,26a1,1,0,0,0-1,1V59a1,1,0,0,0,1,1H41a1,1,0,0,0,1-1V27a1,1,0,0,0-1-1H38v1a3,3,0,0,1-3,3H29a3,3,0,0,1-3-3V26ZM35,42h2v2H35Zm-4,0h2v2H31Zm-4,0h2v2H27Z"></path><path d="M59,38a.993.993,0,0,0,.933-.669L43.214,19.808,40.606,21.8A1,1,0,0,1,40,22H24a1,1,0,0,1-.606-.2l-2.608-1.987L4.067,37.331A.993.993,0,0,0,5,38H20V27a3,3,0,0,1,3-3H41a3,3,0,0,1,3,3V38Z"></path><path d="M35,28a1,1,0,0,0,1-1V26H28v1a1,1,0,0,0,1,1Z"></path><polygon points="60 7.019 44.815 18.589 60 34.503 60 7.019"></polygon><path d="M59,4H5a1,1,0,0,0-.9.581L24.337,20H39.663L59.9,4.581A1,1,0,0,0,59,4Z"></path><polygon points="4 7.019 4 34.503 19.185 18.589 4 7.019"></polygon><rect x="46.427" y="49.385" width="2" height="2" transform="translate(-21.292 42.283) rotate(-40.008)"></rect><rect x="49.385" y="46.427" width="2" height="2" transform="translate(-18.334 55.529) rotate(-49.992)"></rect><rect x="51.785" y="43" width="2" height="2" transform="translate(-11.711 67.719) rotate(-60.005)"></rect><rect x="15.573" y="49.385" width="2" height="2" transform="translate(-32.674 30.685) rotate(-49.99)"></rect><rect x="12.615" y="46.427" width="2" height="2" transform="translate(-27.305 19.854) rotate(-40.01)"></rect><rect x="10.215" y="43" width="2" height="2" transform="translate(-20.494 11.5) rotate(-29.995)"></rect></g></svg>