<svg xmlns="http://www.w3.org/2000/svg" viewBox="0 0 64 64" x="0px" y="0px"><g><path d="M22.707,38.293,26,41.586V30H12v8H22A1,1,0,0,1,22.707,38.293ZM22,33h2v2H22Zm-6,2H14V33h2Zm4,0H18V33h2Z"></path><path d="M4,57a1,1,0,0,0,1,1H59a1,1,0,0,0,1-1H51V55h9V54H39v1a2,2,0,0,1-2,2H27a2,2,0,0,1-2-2V54H4v1h9v2Z"></path><path d="M6,52H58V21a3,3,0,0,0-3-3h-.049a11.014,11.014,0,0,1-10.529,9.992l-6.715,6.715A1,1,0,0,1,36,34V28H34A11.01,11.01,0,0,1,23.051,18H9a3,3,0,0,0-3,3ZM39,38H49v2H39Zm-6,0h4v2H33Zm0,4H49v2H33Zm0,4H49v2H33ZM10,29a1,1,0,0,1,1-1H27a1,1,0,0,1,1,1V44a1,1,0,0,1-1.707.707L21.586,40H11a1,1,0,0,1-1-1Z"></path><path d="M25,17a9.011,9.011,0,0,0,9,9h3a1,1,0,0,1,1,1v4.586l5.293-5.293A1,1,0,0,1,44,26a9.011,9.011,0,0,0,9-9V15a9.011,9.011,0,0,0-9-9H34a9.011,9.011,0,0,0-9,9Zm5-6H48v2H30Zm0,4H48v2H30Zm0,4H48v2H30Z"></path><rect x="27" y="54" width="10.001" height="1"></rect></g></svg>