<svg xmlns="http://www.w3.org/2000/svg" viewBox="0 0 64 64" x="0px" y="0px"><g><path d="M54,28.744V10a3,3,0,0,0-3-3H5a3,3,0,0,0-3,3V40a3,3,0,0,0,3,3H32.051A14.991,14.991,0,1,0,54,28.744ZM5,9H51a1,1,0,0,1,1,1v2.371L30.164,22.853a4.985,4.985,0,0,1-4.328,0L4,12.371V10A1,1,0,0,1,5,9ZM4,40V14.589L24.971,24.655a6.966,6.966,0,0,0,6.058,0L52,14.589V27.875A14.941,14.941,0,0,0,32.051,41H5A1,1,0,0,1,4,40ZM47,55A13,13,0,1,1,60,42,13.015,13.015,0,0,1,47,55Z"></path><rect x="10" y="47" width="2" height="2"></rect><rect x="14" y="47" width="10" height="2"></rect><path d="M8,36V34H6v2a3,3,0,0,0,3,3h2V37H9A1,1,0,0,1,8,36Z"></path><rect x="6" y="30" width="2" height="2"></rect><path d="M50.535,34.222l-9.9,9.9a.966.966,0,0,0-.241.39L38.98,48.755a1,1,0,0,0,.949,1.316.986.986,0,0,0,.316-.051l4.243-1.415a.985.985,0,0,0,.391-.241l9.9-9.9a3,3,0,1,0-4.243-4.242Zm-6.9,12.561-2.122.707.707-2.121,7.611-7.612,1.415,1.415Zm9.732-9.733-.707.707-1.415-1.414.707-.707a1,1,0,0,1,1.415,1.414Z"></path></g></svg>