<svg xmlns="http://www.w3.org/2000/svg" viewBox="0 0 64 64" x="0px" y="0px"><g><path d="M61.143,28.01l-4.316-.62a.971.971,0,0,1-.78-.631c-.126-.335-.262-.66-.406-.994a.972.972,0,0,1,.109-1l2.609-3.48a1,1,0,0,0-.092-1.307l-4.25-4.25a1,1,0,0,0-1.307-.092l-3.484,2.612a.981.981,0,0,1-1.009.1c-.316-.137-.641-.273-.983-.4a.97.97,0,0,1-.624-.784l-.62-4.31A1,1,0,0,0,45,12H40a7.009,7.009,0,0,0-7-7H4A2,2,0,0,0,2,7V57a2,2,0,0,0,2,2H33a7.009,7.009,0,0,0,7-7h5a1,1,0,0,0,.99-.857l.62-4.316a.971.971,0,0,1,.631-.78c.335-.126.66-.262.994-.406a.974.974,0,0,1,.995.109l3.48,2.609a1,1,0,0,0,1.307-.092l4.25-4.25a1,1,0,0,0,.092-1.307l-2.612-3.484a.981.981,0,0,1-.1-1.009c.137-.316.273-.641.4-.983a.97.97,0,0,1,.784-.624l4.31-.62A1,1,0,0,0,62,35V29A1,1,0,0,0,61.143,28.01ZM38,33H31V19h7Zm-7,2h7v9a5.006,5.006,0,0,1-5,5H31Zm9-8.654A5.89,5.89,0,0,1,42,26a6,6,0,0,1,0,12,5.89,5.89,0,0,1-2-.346ZM38,12v5H31V7h2A5.006,5.006,0,0,1,38,12ZM29,7V49H25V7ZM4,49V35H23V49ZM4,19H23V33H4ZM23,7V17H4V7ZM33,57H4V55H33V53H4V51H33a6.973,6.973,0,0,0,5-2.111V52A5.006,5.006,0,0,1,33,57ZM60,34.134l-3.446.5a2.961,2.961,0,0,0-2.38,1.908c-.114.306-.238.6-.354.867a2.966,2.966,0,0,0,.33,3.025l2.089,2.786-3.023,3.023-2.781-2.086a2.959,2.959,0,0,0-3.011-.341c-.286.124-.58.248-.879.36a2.963,2.963,0,0,0-1.915,2.376L44.134,50H40V39.738a8,8,0,1,0,0-15.476V14h4.134l.5,3.446a2.961,2.961,0,0,0,1.908,2.38c.306.114.6.238.867.354a2.97,2.97,0,0,0,3.025-.33l2.786-2.089,3.023,3.023-2.086,2.781a2.96,2.96,0,0,0-.341,3.011c.124.286.248.58.36.879a2.963,2.963,0,0,0,2.376,1.915l3.452.5Z"></path></g></svg>