<svg xmlns="http://www.w3.org/2000/svg" viewBox="0 0 64 64" x="0px" y="0px"><g data-name="Office Chair"><path d="M17,36a3,3,0,0,0-3,3v3a2,2,0,0,0,2,2H48a2,2,0,0,0,2-2V39a3,3,0,0,0-3-3Zm31,3,0,3H16V39a1,1,0,0,1,1-1H47A1,1,0,0,1,48,39Z"></path><path d="M56,26H52a3,3,0,0,0-3,3v2a1,1,0,0,0,1,1h2.858L51.124,45H12.876L11.142,32H14a1,1,0,0,0,1-1V29a3,3,0,0,0-3-3H8a3,3,0,0,0-3,3v2a1,1,0,0,0,1,1H9.125l1.884,14.132A1,1,0,0,0,12,47H31v5.323l-9.258,3.7a3.011,3.011,0,1,0,2.595,1.116L32,54.077l7.663,3.065A2.968,2.968,0,0,0,39,59a3,3,0,1,0,3.258-2.974L33,52.323V47H52a1,1,0,0,0,.991-.868L54.875,32H58a1,1,0,0,0,1-1V29A3,3,0,0,0,56,26ZM7,29a1,1,0,0,1,1-1h4a1,1,0,0,1,1,1v1H7ZM43,59a1,1,0,1,1-1-1A1,1,0,0,1,43,59ZM22,60a1,1,0,1,1,1-1A1,1,0,0,1,22,60ZM57,30H51V29a1,1,0,0,1,1-1h4a1,1,0,0,1,1,1Z"></path><rect x="38" y="15" width="2" height="2"></rect><rect x="24" y="15" width="2" height="2"></rect><path d="M19.2,35H44.8a3,3,0,0,0,2.986-3.289l-2.613-27A2.988,2.988,0,0,0,42.185,2H21.815A2.988,2.988,0,0,0,18.83,4.711l-2.613,27A3,3,0,0,0,19.2,35ZM43.18,4.9l2.613,27a1,1,0,0,1-1,1.1H33V4h9.185A1,1,0,0,1,43.18,4.9Zm-22.36,0a1,1,0,0,1,1-.9H31V33H19.2a1,1,0,0,1-1-1.1Z"></path></g></svg>