<svg xmlns="http://www.w3.org/2000/svg" viewBox="0 0 64 64" x="0px" y="0px"><g data-name="Shopping bag"><path d="M56.727,58.646l-4.524-38A3,3,0,0,0,49.224,18H47V17a15,15,0,0,0-30,0v1H14.776A3,3,0,0,0,11.8,20.646l-4.524,38A3,3,0,0,0,10.252,62h43.5a3,3,0,0,0,2.979-3.354ZM19,17a13,13,0,0,1,26,0v1H19ZM54.5,59.665a.986.986,0,0,1-.747.335h-43.5a1,1,0,0,1-.992-1.118l4.523-38A1,1,0,0,1,14.776,20H49.224a1,1,0,0,1,.993.882l4.523,38A.988.988,0,0,1,54.5,59.665Z"></path><path d="M32,6a11.033,11.033,0,0,0-10.778,8.8A1,1,0,0,0,22.2,16H41.8a1,1,0,0,0,.979-1.2A11.033,11.033,0,0,0,32,6Zm-8.486,8a9,9,0,0,1,16.972,0Z"></path><path d="M42,28a1,1,0,0,0-.97.757l-1,4A1,1,0,0,0,41,34h4a1,1,0,0,0,.97-1.243l-1-4A1,1,0,0,0,44,28V26h2V24H18v2H42Zm.281,4,.5-2h.438l.5,2Z"></path><path d="M47,53a2.623,2.623,0,0,1-1.878-.781,4.618,4.618,0,0,0-6.252,0,2.639,2.639,0,0,1-3.748,0,4.613,4.613,0,0,0-6.248,0,2.64,2.64,0,0,1-3.749,0,4.613,4.613,0,0,0-6.248,0,2.639,2.639,0,0,1-3.748,0A4.524,4.524,0,0,0,12,51v2a2.583,2.583,0,0,1,1.874.781,4.613,4.613,0,0,0,6.248,0,2.639,2.639,0,0,1,3.748,0,4.614,4.614,0,0,0,6.249,0,2.639,2.639,0,0,1,3.748,0,4.613,4.613,0,0,0,6.248,0A2.587,2.587,0,0,1,41.991,53a2.62,2.62,0,0,1,1.878.781,4.619,4.619,0,0,0,6.253,0A2.622,2.622,0,0,1,52,53V51a4.528,4.528,0,0,0-3.126,1.219A2.622,2.622,0,0,1,47,53Z"></path></g></svg>