<svg xmlns="http://www.w3.org/2000/svg" viewBox="0 0 64 64" x="0px" y="0px"><g data-name="Money Location"><path d="M50,57a1,1,0,0,1-1,1H5a1,1,0,0,1-1-1V37a1,1,0,0,1,1-1H42V34H5a2.966,2.966,0,0,0-1,.184V33a1,1,0,0,1,1-1H39V30H5a2.966,2.966,0,0,0-1,.184V29a1,1,0,0,1,1-1H37V26H5a3,3,0,0,0-3,3V57a3,3,0,0,0,3,3H49a3,3,0,0,0,3-3V41H50Z"></path><path d="M20,47a7,7,0,1,0,7-7A7.008,7.008,0,0,0,20,47Zm12,0a5,5,0,1,1-5-5A5.006,5.006,0,0,1,32,47Z"></path><path d="M12,39H8a1,1,0,0,0-1,1v4H9V41h3Z"></path><path d="M47,40a1,1,0,0,0-1-1H42v2h3v3h2Z"></path><path d="M7,50v4a1,1,0,0,0,1,1h4V53H9V50Z"></path><path d="M45,53H42v2h4a1,1,0,0,0,1-1V50H45Z"></path><rect x="37" y="46" width="2" height="2"></rect><rect x="15" y="46" width="2" height="2"></rect><path d="M49,40a1,1,0,0,0,.707-.293C50.209,39.205,62,27.3,62,17a13,13,0,0,0-26,0c0,10.3,11.791,22.205,12.293,22.707A1,1,0,0,0,49,40ZM49,6A11.013,11.013,0,0,1,60,17c0,8.09-8.467,17.82-11,20.55C46.466,34.822,38,25.1,38,17A11.013,11.013,0,0,1,49,6Z"></path><path d="M50,23V21.816A2.993,2.993,0,0,0,49,16a1,1,0,1,1,1-1h2a3,3,0,0,0-2-2.816V11H48v1.184A2.993,2.993,0,0,0,49,18a1,1,0,1,1-1,1H46a3,3,0,0,0,2,2.816V23Z"></path><path d="M58,17a9,9,0,1,0-9,9A9.01,9.01,0,0,0,58,17ZM42,17a7,7,0,1,1,7,7A7.008,7.008,0,0,1,42,17Z"></path><rect x="22" y="8" width="10" height="2"></rect><rect x="18" y="8" width="2" height="2"></rect><rect x="24" y="14" width="8" height="2"></rect><rect x="20" y="14" width="2" height="2"></rect><rect x="26" y="20" width="6" height="2"></rect><rect x="22" y="20" width="2" height="2"></rect></g></svg>