<svg xmlns="http://www.w3.org/2000/svg" viewBox="0 0 64 64" x="0px" y="0px"><g><polygon points="26.306 39.892 28.131 39.435 28.319 38.459 27.087 38.075 25.355 38.941 26.306 39.892"></polygon><path d="M51.705,37.061a3.974,3.974,0,0,0-3,.678,2.919,2.919,0,0,1-3.4,0,3.954,3.954,0,0,0-3-.679,3.995,3.995,0,0,0-2.837,5.794,18.094,18.094,0,0,1,2.115,6.705l.238,2.449A1.1,1.1,0,0,0,44,51.9V49a3,3,0,0,1,6,0v2.9a1.1,1.1,0,0,0,2.188.106l.238-2.449a18.094,18.094,0,0,1,2.115-6.705,3.995,3.995,0,0,0-2.836-5.794ZM47,41a8.355,8.355,0,0,1-3.409-.687l.821-1.824a6.979,6.979,0,0,0,5.178,0l.82,1.824A8.367,8.367,0,0,1,47,41Z"></path><path d="M30,20a2,2,0,1,0-2,2A2,2,0,0,0,30,20Zm-3-1h2v2H27Z"></path><path d="M23,32a9.01,9.01,0,0,0,8.768-7H14.232A9.01,9.01,0,0,0,23,32Z"></path><path d="M26,33.573a10.752,10.752,0,0,1-6,0v2.809l3,1.5,3-1.5Z"></path><path d="M23,19a1,1,0,0,0-1,1,3.975,3.975,0,0,1-1.382,3h4.764A3.975,3.975,0,0,1,24,20,1,1,0,0,0,23,19Z"></path><path d="M20,20a2,2,0,1,0-2,2A2,2,0,0,0,20,20Zm-3-1h2v2H17Z"></path><path d="M37,60h5V58.125a15,15,0,0,1-5-2.976Z"></path><path d="M14,14h6.333a7.051,7.051,0,0,0,4.2-1.4L26.4,11.2a1,1,0,0,1,1.307.093l1.243,1.242A4.946,4.946,0,0,0,32,13.953V13a9,9,0,0,0-18,0Z"></path><path d="M24.586,41l-1.117-1.116-.022.011a1,1,0,0,1-.894,0l-.022-.011L21.414,41l1,1h1.172Z"></path><path d="M47,31A13,13,0,1,0,60,44,13.015,13.015,0,0,0,47,31Zm7.416,18.753L54.179,52.2A3.1,3.1,0,0,1,48,51.9V49a1,1,0,0,0-2,0v2.9a3.1,3.1,0,0,1-6.179.3l-.237-2.449a16.111,16.111,0,0,0-1.893-5.962,5.99,5.99,0,0,1,8.772-7.677.934.934,0,0,0,1.075,0,5.936,5.936,0,0,1,4.5-1.023,5.994,5.994,0,0,1,4.268,8.7A16.111,16.111,0,0,0,54.416,49.753Z"></path><polygon points="21.826 60 24.174 60 24.771 56.9 23.12 44 22.88 44 21.229 56.9 21.826 60"></polygon><path d="M30.786,39.229l-.546-.17-1.519,7.883L32.015,44.3c0-.1-.015-.2-.015-.3a15.084,15.084,0,0,1,.117-1.789Z"></path><polygon points="15.76 39.061 15.208 39.234 13.227 43.701 17.279 46.942 15.76 39.061"></polygon><path d="M15.382,23A3.975,3.975,0,0,1,14,20v3Z"></path><path d="M14,20a4,4,0,0,1,4-4H14Z"></path><path d="M32,23V20a3.975,3.975,0,0,1-1.382,3Z"></path><path d="M21.2,17.619a2.941,2.941,0,0,1,3.61,0A3.987,3.987,0,0,1,32,20V15.976a6.943,6.943,0,0,1-4.465-2.027l-.629-.629-1.173.88a9.054,9.054,0,0,1-5.4,1.8H18A3.982,3.982,0,0,1,21.2,17.619Z"></path><path d="M11,19a1,1,0,0,0,1,1V18A1,1,0,0,0,11,19Z"></path><path d="M4,60H9V48h2V60h8.079l-5.9-8.427a1,1,0,0,1,.112-1.28l2.21-2.21-4.128-3.3a1,1,0,0,1-.289-1.186l1.582-3.566-2.349.735A8.951,8.951,0,0,0,4,49.35Z"></path><polygon points="19.14 56.599 17.633 48.781 15.3 51.114 19.14 56.599"></polygon><path d="M30.5,48.082l2.21,2.211a1,1,0,0,1,.112,1.28L26.921,60H35V52.962a14.9,14.9,0,0,1-2.747-6.286Z"></path><polygon points="20.946 43.36 19.488 41.902 18.285 41.601 20.019 50.608 20.946 43.36"></polygon><polygon points="17.681 38.46 17.869 39.435 19.694 39.892 20.645 38.941 18.913 38.075 17.681 38.46"></polygon><polygon points="28.367 48.781 26.86 56.599 30.7 51.114 28.367 48.781"></polygon><polygon points="27.715 41.601 26.512 41.902 25.054 43.36 25.981 50.608 27.715 41.601"></polygon><path d="M34,18v2a1,1,0,0,0,0-2Z"></path></g></svg>