<svg xmlns="http://www.w3.org/2000/svg" viewBox="0 0 64 64" x="0px" y="0px"><g data-name="Cactus"><path d="M44,29.586V23.093a6.461,6.461,0,0,0-2.554,1.071c-3.1,2.1-5.175,6.661-5.421,11.8C36.008,36.307,36,36.653,36,37c0,.426.014.85.039,1.271.008.14.025.278.036.418.022.279.043.558.076.833.02.164.047.325.071.488.035.247.069.5.113.738.031.171.069.338.1.507.047.23.095.46.15.686.043.171.091.339.137.507.06.217.12.434.187.646.053.168.111.333.169.5.071.206.144.41.222.61.063.162.131.322.2.48.083.2.168.388.258.576.073.155.149.306.226.456.051.1.1.191.156.286H44V40.414l-2.535-2.535,1.414-1.414L44,37.586V32.414l-2.535-2.535,1.414-1.414Z"></path><rect x="16" y="58" width="32" height="2"></rect><path d="M27.175,7.261C30.326,11.347,35,18.925,35,28c0,.875-.029,1.742-.08,2.6.008-.026.017-.052.025-.078.045-.149.094-.294.142-.44.06-.184.121-.366.186-.546.053-.145.108-.287.164-.43q.1-.263.209-.519c.059-.141.121-.279.184-.417.075-.166.152-.331.232-.493q.1-.2.2-.4c.083-.159.168-.314.255-.468.072-.128.146-.255.221-.38.09-.15.182-.3.276-.44.079-.122.158-.243.24-.361.1-.14.2-.276.3-.411.084-.113.169-.226.256-.336.1-.131.211-.257.319-.382.089-.105.178-.21.27-.31.111-.122.226-.237.341-.353.094-.095.187-.191.283-.281.12-.112.243-.217.366-.323.1-.083.192-.169.29-.248.023-.018.044-.038.067-.056C37.54,14.488,32.68,8.526,27.175,7.261Z"></path><path d="M57.944,48H6.056A9.012,9.012,0,0,0,15,56H49A9.012,9.012,0,0,0,57.944,48ZM52,50h2v2H52Zm-3,0h2v2H49Zm-1,2H46V50h2Z"></path><path d="M21.875,7.513c-.132.043-.264.088-.395.136s-.246.093-.368.143-.26.109-.389.168-.239.111-.358.17-.259.13-.387.2-.231.128-.345.194-.256.151-.382.231-.225.145-.336.22-.251.17-.375.26c-.109.079-.217.161-.325.243-.123.095-.246.19-.368.29-.105.086-.21.176-.314.266-.121.1-.241.209-.36.318-.1.095-.2.192-.306.29s-.233.226-.348.344c-.1.1-.2.207-.3.313-.113.122-.227.244-.338.37-.1.109-.19.221-.284.332-.111.131-.221.262-.329.4-.092.115-.182.233-.272.352-.107.139-.214.279-.318.423-.089.122-.176.247-.263.372-.1.147-.2.293-.3.444-.086.13-.169.263-.253.4-.1.153-.2.306-.29.464-.081.136-.161.275-.241.414-.092.161-.186.321-.276.486-.078.143-.153.289-.229.434-.088.167-.176.333-.261.5-.075.15-.147.3-.22.458-.082.171-.164.342-.243.516-.071.158-.139.319-.208.479-.077.177-.154.353-.227.533-.067.164-.131.331-.2.5-.071.182-.142.363-.21.548s-.123.345-.183.518-.131.37-.193.559-.113.358-.169.537-.12.379-.176.571-.1.374-.156.562-.107.381-.157.575-.093.384-.139.577-.1.391-.141.589-.083.4-.124.6-.083.393-.121.592-.074.422-.11.633c-.034.194-.07.386-.1.582-.035.222-.065.448-.1.672-.026.189-.055.375-.079.565-.029.233-.052.47-.077.705-.02.186-.043.37-.061.557-.022.24-.038.484-.057.727-.014.184-.031.367-.042.553-.017.271-.027.546-.039.82-.006.159-.017.317-.021.477Q9,32.34,9,33a38.939,38.939,0,0,0,2.156,13h7.538A39.152,39.152,0,0,1,15,29,34.773,34.773,0,0,1,22.552,7.32c-.1.025-.2.05-.3.079C22.126,7.434,22,7.473,21.875,7.513Z"></path><path d="M54,37c0-7.193-3.507-13.131-8-13.908v6.494l1.121-1.121,1.414,1.414L46,32.414v5.172l1.121-1.121,1.414,1.414L46,40.414V46h5.869A19.062,19.062,0,0,0,54,37Z"></path><path d="M35.508,45.1a19.971,19.971,0,0,1-.785-2.391c-.034-.128-.062-.259-.093-.388-.07-.288-.135-.578-.193-.872-.031-.154-.058-.31-.086-.465-.049-.279-.092-.56-.131-.843-.022-.159-.044-.318-.062-.478-.035-.3-.061-.6-.084-.908-.011-.14-.025-.278-.033-.419q-.033-.591-.037-1.188A34.121,34.121,0,0,1,30.786,46h5.107c-.087-.186-.164-.379-.245-.57C35.6,45.32,35.553,45.214,35.508,45.1Z"></path><path d="M20.94,46h7.569A35.625,35.625,0,0,0,33,28c0-9.2-5.187-16.834-8.078-20.373A32.484,32.484,0,0,0,17,29,36.562,36.562,0,0,0,20.94,46Z"></path><path d="M26,3.586V2H24V3.586L22.707,2.293,21.293,3.707l3,3L24.3,6.7a.985.985,0,0,0,1.408.006l3-3L27.293,2.293Z"></path><path d="M47.121,18.465,46,19.586V18H44v1.586l-1.121-1.121-1.414,1.414,2.828,2.828a1,1,0,0,0,1.414,0l2.828-2.828Z"></path></g></svg>