<svg xmlns="http://www.w3.org/2000/svg" viewBox="0 0 64 64" x="0px" y="0px"><title>Tree-Construction</title><g><path d="M51,29a34.447,34.447,0,0,0-5.434-18.046C41.8,5.18,36.986,2,32,2s-9.8,3.18-13.566,8.954A34.447,34.447,0,0,0,13,29,19.007,19.007,0,0,0,31,47.949V60H21a1,1,0,0,0,0,2H43a1,1,0,0,0,0-2H33V47.949A19.007,19.007,0,0,0,51,29ZM15,29C15,17.676,22.583,4,32,4S49,17.676,49,29A17.007,17.007,0,0,1,33,45.949V35.386l8.693-8.693a1,1,0,1,0-1.414-1.414L33,32.558V21.422l3.711-3.711A1,1,0,1,0,35.3,16.3l-2.3,2.3V16a1,1,0,0,0-2,0V26.556l-4.278-4.278a1,1,0,0,0-1.414,1.414L31,29.384V45.949A17.007,17.007,0,0,1,15,29Z"></path></g></svg>