<svg xmlns="http://www.w3.org/2000/svg" viewBox="0 0 64 64" x="0px" y="0px"><g><path d="M22,35V33.972a4,4,0,0,1-3.477-2.778,9.434,9.434,0,0,1-.894.824A8.991,8.991,0,0,1,12,34v1a5,5,0,0,0,10,0Z"></path><rect x="4" y="58" width="56" height="2"></rect><path d="M17,42a6.956,6.956,0,0,1-2-.3V43a.989.989,0,0,1-.349.743L17,45.7l2.349-1.956A.989.989,0,0,1,19,43v-1.3A6.956,6.956,0,0,1,17,42Z"></path><path d="M17,24H8v5a2.987,2.987,0,0,0,2.247,2.9A2.7,2.7,0,0,0,11,32h1a6.981,6.981,0,0,0,4.372-1.538A7.3,7.3,0,0,0,17.6,29.2l.6-.8A1,1,0,0,1,19,28a.967.967,0,0,1,.2.02,1,1,0,0,1,.771.739l.43,1.73A2.006,2.006,0,0,0,22.34,32H23V30A6.006,6.006,0,0,0,17,24Z"></path><path d="M4,56H7V51H9v5H25V51h2v5h3V50.58a5.026,5.026,0,0,0-3.686-4.826L21.6,44.471l-3.96,3.3a1,1,0,0,1-1.28,0l-3.96-3.3L7.683,45.755A5.024,5.024,0,0,0,4,50.58Z"></path><path d="M59,20a1,1,0,0,0,1-1V5a1,1,0,0,0-1-1H41a1,1,0,0,0-1,1V6H55a3,3,0,0,1,3,3V20Z"></path><path d="M36,9v1H56V9a1,1,0,0,0-1-1H37A1,1,0,0,0,36,9Z"></path><path d="M37,24H55a1,1,0,0,0,1-1V12H36V23A1,1,0,0,0,37,24Zm12-8h2v2H49Zm-4,0h2v2H45Zm-4,0h2v2H41Z"></path><rect x="8" y="6" width="4" height="2"></rect><rect x="14" y="6" width="12" height="2"></rect><rect x="9" y="14" width="4" height="2"></rect><rect x="15" y="14" width="12" height="2"></rect><rect x="10" y="10" width="4" height="2"></rect><rect x="16" y="10" width="12" height="2"></rect><polygon points="49 43 47 43 47 54 41 54 41 56 55 56 55 54 49 54 49 43"></polygon><path d="M59,34H37a1,1,0,0,0-1,1V48a1,1,0,0,0,1,1h8V42a1,1,0,0,1,1-1h4a1,1,0,0,1,1,1v7h8a1,1,0,0,0,1-1V35A1,1,0,0,0,59,34Z"></path></g></svg>