<svg xmlns="http://www.w3.org/2000/svg" viewBox="0 0 64 64" x="0px" y="0px"><g><path d="M46,2H18a6.006,6.006,0,0,0-6,6V56a6.006,6.006,0,0,0,6,6H46a6.006,6.006,0,0,0,6-6V8A6.006,6.006,0,0,0,46,2Zm4,54a4,4,0,0,1-4,4H18a4,4,0,0,1-4-4V8a4,4,0,0,1,4-4H46a4,4,0,0,1,4,4Z"></path><path d="M34,52H30a3,3,0,0,0,0,6h4a3,3,0,0,0,0-6Zm0,4H30a1,1,0,0,1,0-2h4a1,1,0,0,1,0,2Z"></path><rect x="25" y="6" width="2" height="2"></rect><rect x="29" y="6" width="6" height="2"></rect><path d="M32,39a7.008,7.008,0,0,1-7-7H23a9.01,9.01,0,0,0,8,8.941V44H27v2H37V44H33V40.941A9.01,9.01,0,0,0,41,32H39A7.008,7.008,0,0,1,32,39Z"></path><path d="M27,32a5,5,0,0,0,10,0V26a5,5,0,0,0-10,0Zm5-9a3,3,0,0,1,3,3H33v2h2v2H33v2h2a3,3,0,0,1-6,0h2V30H29V28h2V26H29A3,3,0,0,1,32,23Z"></path><rect x="31" y="15" width="2" height="4"></rect><rect x="36.379" y="18.5" width="4.243" height="2" transform="translate(-2.512 32.935) rotate(-45)"></rect><rect x="24.5" y="17.379" width="2" height="4.243" transform="translate(-6.32 23.743) rotate(-45)"></rect><rect x="39" y="24" width="4" height="2"></rect><rect x="21" y="24" width="4" height="2"></rect></g></svg>