<svg xmlns="http://www.w3.org/2000/svg" viewBox="0 0 64 64" x="0px" y="0px"><rect x="23" y="24" width="18" height="8"></rect><path d="M45,20H19V36.7l1.832,2.748A1.006,1.006,0,0,1,21,40V60H43V40a1.006,1.006,0,0,1,.168-.555L45,36.7ZM28,58H24V56h4Zm0-4H24V52h4Zm0-4H24V48h4Zm0-4H24V44h4Zm-3-7a3,3,0,1,1,3,3A3,3,0,0,1,25,39Zm9,19H30V56h4Zm0-4H30V52h4Zm0-4H30V48h4Zm0-4H30V44h4Zm-1-7a3,3,0,1,1,3,3A3,3,0,0,1,33,39Zm7,19H36V56h4Zm0-4H36V52h4Zm0-4H36V48h4Zm0-4H36V44h4Zm3-13a1,1,0,0,1-1,1H22a1,1,0,0,1-1-1V23a1,1,0,0,1,1-1H42a1,1,0,0,1,1,1Z"></path><circle cx="28" cy="39" r="1"></circle><circle cx="36" cy="39" r="1"></circle><rect x="39" y="16" width="2" height="2"></rect><rect x="21" y="4" width="2" height="2"></rect><rect x="21" y="8" width="2" height="10"></rect></svg>