<svg xmlns="http://www.w3.org/2000/svg" viewBox="0 0 64 64" x="0px" y="0px"><g><path d="M60,7a3,3,0,0,0-3-3H7A3,3,0,0,0,4,7V38H60ZM36,33H34V31h2Zm4,0H38V31h2Zm4,0H42V31h2Zm7-6H30.783l0,.008,1.631,2.171a1,1,0,0,1-.093,1.308l-2.83,2.83a1,1,0,0,1-1.308.093l-2.17-1.631a10.848,10.848,0,0,1-1.639.682l-.38,2.679A1,1,0,0,1,23,36H19a1,1,0,0,1-.99-.86l-.38-2.679a10.848,10.848,0,0,1-1.639-.682l-2.17,1.631a1,1,0,0,1-1.308-.093l-2.83-2.83a1,1,0,0,1-.093-1.308l1.631-2.17a10.848,10.848,0,0,1-.682-1.639L7.86,24.99A1,1,0,0,1,7,24V20a1,1,0,0,1,.86-.99l2.679-.38a10.848,10.848,0,0,1,.682-1.639L9.59,14.821a1,1,0,0,1,.093-1.308l2.83-2.83a1,1,0,0,1,1.308-.093l2.17,1.631a10.848,10.848,0,0,1,1.639-.682l.38-2.679A1,1,0,0,1,19,8h4a1,1,0,0,1,.99.86l.38,2.679a10.848,10.848,0,0,1,1.639.682l2.17-1.631a1,1,0,0,1,1.308.093l1.126,1.126A3.966,3.966,0,0,1,33,11a3.915,3.915,0,0,1,.573.042A8,8,0,0,1,48.937,15H51a6,6,0,0,1,0,12Z"></path><polygon points="25.905 48 25.105 56 38.895 56 38.095 48 25.905 48"></polygon><path d="M28.606,26.98A5.953,5.953,0,0,1,25.547,25.9a5.994,5.994,0,1,1-1.094-8.8A5.984,5.984,0,0,1,29,15a3.975,3.975,0,0,1,.352-1.624l-.665-.665-2,1.5a1,1,0,0,1-1.115.058,8.773,8.773,0,0,0-2.352-.979,1,1,0,0,1-.743-.829L22.132,10H19.868l-.348,2.46a1,1,0,0,1-.743.829,8.773,8.773,0,0,0-2.352.979,1,1,0,0,1-1.115-.058l-2-1.5-1.6,1.6,1.5,2a1,1,0,0,1,.058,1.115,8.773,8.773,0,0,0-.979,2.352,1,1,0,0,1-.829.743L9,20.868v2.264l2.46.348a1,1,0,0,1,.829.743,8.773,8.773,0,0,0,.979,2.352,1,1,0,0,1-.058,1.115l-1.5,2,1.6,1.6,2-1.5a1,1,0,0,1,1.115-.058,8.773,8.773,0,0,0,2.352.979,1,1,0,0,1,.743.829L19.868,34h2.264l.348-2.46a1,1,0,0,1,.743-.829,8.773,8.773,0,0,0,2.352-.979,1,1,0,0,1,1.115.058l2,1.5,1.6-1.6-1.5-2A.993.993,0,0,1,28.606,26.98ZM20,12h2v2H20ZM13,23H11V21h2Zm.222-7.364,1.414-1.414,1.414,1.414L14.636,17.05Zm1.414,14.142-1.414-1.414,1.414-1.414,1.414,1.414ZM22,32H20V30h2Zm5.364-2.222L25.95,28.364l1.414-1.414,1.414,1.414Z"></path><path d="M21,59a1,1,0,0,0,1,1H42a1,1,0,0,0,0-2H22A1,1,0,0,0,21,59Z"></path><path d="M21,18a4,4,0,1,0,3.128,6.488,5.943,5.943,0,0,1-.714-5.663A3.95,3.95,0,0,0,21,18Z"></path><path d="M51,17H47.706a1,1,0,0,1-.958-1.286,6,6,0,1,0-11.555-3.2,1,1,0,0,1-.535.654,1.006,1.006,0,0,1-.845.011A1.96,1.96,0,0,0,33,13a1.973,1.973,0,0,0-1.874,2.667A1,1,0,0,1,30.184,17H29a4,4,0,0,0,0,8H51a4,4,0,0,0,0-8ZM41,17H39V15h2Zm4,0H43V15h2Z"></path><path d="M60,40H4v3a3,3,0,0,0,3,3H57a3,3,0,0,0,3-3Zm-4,4H54V42h2Z"></path></g></svg>