<svg xmlns="http://www.w3.org/2000/svg" viewBox="0 0 64 64" x="0px" y="0px"><g data-name="Solar Energy"><path d="M52,17a5,5,0,1,0-5-5A5.006,5.006,0,0,0,52,17Zm0-8a3,3,0,1,1-3,3A3,3,0,0,1,52,9Z"></path><rect x="51" y="2" width="2" height="2"></rect><rect x="44.636" y="4.636" width="2" height="2" transform="translate(9.376 33.914) rotate(-44.99)"></rect><rect x="42" y="11" width="2" height="2"></rect><rect x="44.636" y="17.364" width="2" height="2" transform="translate(0.381 37.648) rotate(-45)"></rect><rect x="51" y="20" width="2" height="2"></rect><rect x="57.364" y="17.364" width="2" height="2" transform="translate(4.104 46.639) rotate(-44.99)"></rect><rect x="60" y="11" width="2" height="2"></rect><rect x="57.364" y="4.636" width="2" height="2" transform="translate(13.109 42.921) rotate(-45)"></rect><path d="M34.932,26.638A1,1,0,0,0,34,26H10a1,1,0,0,0-.932.638l-7,18A1,1,0,0,0,3,46H5V61a1,1,0,0,0,1,1H38a1,1,0,0,0,1-1V46h2a1,1,0,0,0,.932-1.362ZM19,60V52h6v8Zm18,0H27V51a1,1,0,0,0-1-1H18a1,1,0,0,0-1,1v9H7V46H37ZM4.462,44l6.222-16H33.316l6.222,16Z"></path><path d="M31.063,30H12.937a2,2,0,0,0-1.9,1.387l-2.577,8A2,2,0,0,0,10.359,42H33.641a2,2,0,0,0,1.9-2.613l-2.578-8A2,2,0,0,0,31.063,30Zm0,2,.967,3H28.82l-.6-3ZM21,37v3H16.219l.6-3Zm-3.78-2,.6-3H21v3ZM23,37h4.18l.6,3H23Zm0-2V32h3.18l.6,3Zm-7.22-3-.6,3H11.97l.967-3Zm-5.422,8v0l.967-3H14.78l-.6,3ZM29.82,40l-.6-3h3.454l.967,3Z"></path><path d="M30,56h4a1,1,0,0,0,1-1V51a1,1,0,0,0-1-1H30a1,1,0,0,0-1,1v4A1,1,0,0,0,30,56Zm1-4h2v2H31Z"></path><path d="M10,56h4a1,1,0,0,0,1-1V51a1,1,0,0,0-1-1H10a1,1,0,0,0-1,1v4A1,1,0,0,0,10,56Zm1-4h2v2H11Z"></path><path d="M12,19h9a4,4,0,1,0-1.091-7.85A4,4,0,0,0,12.126,11,4,4,0,1,0,12,19Zm0-6a1.977,1.977,0,0,1,.678.129,1,1,0,0,0,1.339-1c0-.025-.014-.1-.017-.128a2,2,0,1,1,3.889.615,1,1,0,0,0,1.672,1A1.979,1.979,0,0,1,21,13a2,2,0,0,1,0,4H12a2,2,0,0,1,0-4Z"></path><path d="M58.937,46.649A1,1,0,0,0,58,46H48a1,1,0,0,0-.937.649l-3,8A1,1,0,0,0,45,56h5v1H48v2h2v1H48v2H58V60H56V59h2V57H56V56h5a1,1,0,0,0,.937-1.351ZM58.057,50H56.383l-.25-2h1.174Zm-6.924,4,.25-2h3.234l.25,2Zm.5-4,.25-2h2.234l.25,2Zm-2.94-2h1.174l-.25,2H47.943Zm-1.5,4h2.174l-.25,2H46.443ZM54,60H52V56h2Zm2.883-6-.25-2h2.174l.75,2Z"></path></g></svg>