<svg xmlns="http://www.w3.org/2000/svg" viewBox="0 0 64 64" x="0px" y="0px"><title>Contact Book</title><g data-name="Contact Book"><path d="M11,2A5.006,5.006,0,0,0,6,7V57a5.006,5.006,0,0,0,5,5H58V2ZM48,4v6.586l-2-2-2,2V4ZM11,4h1V52H11a4.948,4.948,0,0,0-3,1.026V7A3,3,0,0,1,11,4ZM56,60H11a3,3,0,0,1,0-6H56ZM14,52V4H42V15.414l4-4,4,4V4h6V52Z"></path><rect x="10" y="56" width="44" height="2"></rect><path d="M35,32H33a7.008,7.008,0,0,0-7,7v5H42V39A7.008,7.008,0,0,0,35,32Zm5,10H28V39a5.006,5.006,0,0,1,5-5h2a5.006,5.006,0,0,1,5,5Z"></path><path d="M34,31a5,5,0,1,0-5-5A5.006,5.006,0,0,0,34,31Zm0-8a3,3,0,1,1-3,3A3,3,0,0,1,34,23Z"></path><path d="M22,47H46V18H22Zm2-27H44V45H24Z"></path></g></svg>