<svg xmlns="http://www.w3.org/2000/svg" viewBox="0 0 64 64" x="0px" y="0px"><g data-name="File Circle Chart"><path d="M30,34V24.051a9.99,9.99,0,0,0-5.226,17.761l1.519-1.519,1.414,1.414-1.21,1.21A9.979,9.979,0,0,0,40.949,35H31A1,1,0,0,1,30,34Z"></path><path d="M35.293,27.293l1.459-1.459A9.918,9.918,0,0,0,32,24.051V33h8.949a9.961,9.961,0,0,0-2.684-5.851l-1.558,1.558Z"></path><path d="M12,60H52a1,1,0,0,0,1-1V12.846a.992.992,0,0,0-.292-.706L46,5.418V11a1,1,0,0,0,1,1h4v2H47a3,3,0,0,1-3-3V4H12a1,1,0,0,0-1,1V59A1,1,0,0,0,12,60ZM47,22h4v2H47Zm0,4h4v2H47ZM46,42h5v2H46Zm0,4h5v2H46ZM40,23h5v2H40.414l-.736.736A11.981,11.981,0,0,1,25.023,44.391l-1.316,1.316A1,1,0,0,1,23,46H19V44h3.586l.763-.764a11.987,11.987,0,0,1,14.83-18.829l1.114-1.114A1,1,0,0,1,40,23ZM19,8H39v2H19ZM15,8h2v2H15Zm0,4H39v2H15ZM13,42h4v2H13Zm0,4h4v2H13Z"></path></g></svg>