<svg xmlns="http://www.w3.org/2000/svg" viewBox="0 0 64 64" x="0px" y="0px"><g><path d="M4,7V53.026A4.948,4.948,0,0,1,7,52H8V4H7A3,3,0,0,0,4,7Z"></path><path d="M4,57a3,3,0,0,0,3,3H46V54H7A3,3,0,0,0,4,57Z"></path><path d="M40,12V10H16V20H36V15a3,3,0,0,1,3-3Z"></path><path d="M10,4V52H46V30H43.41l-5.7,5.71A1.007,1.007,0,0,1,37,36a.838.838,0,0,1-.38-.08A.987.987,0,0,1,36,35V22H15a1,1,0,0,1-1-1V9a1,1,0,0,1,1-1H41a1,1,0,0,1,1,1v3h4V4Zm4,29H34v2H14ZM42,47H14V45H42Zm0-8v2H14V39ZM34,27v2H14V27Z"></path><path d="M43,28H59a1,1,0,0,0,1-1V15a1,1,0,0,0-1-1H39a1,1,0,0,0-1,1V32.586l4.293-4.293A1,1,0,0,1,43,28Zm1-12H58v2H44Zm-4,0h2v2H40Zm0,4H58v2H40Zm0,4H58v2H40Z"></path></g></svg>