<svg xmlns="http://www.w3.org/2000/svg" viewBox="0 0 64 64" x="0px" y="0px"><g data-name="Electric Energy"><path d="M35,8H11a3,3,0,0,0-3,3v6a3,3,0,0,0,3,3H35a3,3,0,0,0,3-3V11A3,3,0,0,0,35,8Zm1,9a1,1,0,0,1-1,1H11a1,1,0,0,1-1-1V11a1,1,0,0,1,1-1H35a1,1,0,0,1,1,1Z"></path><rect x="22" y="24" width="2" height="2"></rect><rect x="26" y="24" width="2" height="2"></rect><rect x="30" y="24" width="2" height="2"></rect><rect x="18" y="24" width="2" height="2"></rect><rect x="14" y="24" width="2" height="2"></rect><path d="M60,14V10.5a2.5,2.5,0,0,0-5,0V14H53V10.5a2.5,2.5,0,0,0-5,0V14a2,2,0,0,0-2,2v1a1.993,1.993,0,0,0,1,1.722V24a5.006,5.006,0,0,0,5,5h1V56a1,1,0,0,1-2,0V48a3,3,0,0,0-3-3H47V44a3,3,0,0,0-3-3H43V9a7.008,7.008,0,0,0-7-7H10A7.008,7.008,0,0,0,3,9V51a6.977,6.977,0,0,0,2.11,5H5a3,3,0,0,0,0,6H41a3,3,0,0,0,0-6h-.11A6.977,6.977,0,0,0,43,51h1a3,3,0,0,0,3-3V47h1a1,1,0,0,1,1,1v8a3,3,0,0,0,6,0V29h1a5.006,5.006,0,0,0,5-5V18.722A1.993,1.993,0,0,0,62,17V16A2,2,0,0,0,60,14ZM41,58a1,1,0,0,1,0,2H5a1,1,0,0,1,0-2Zm0-7a5.006,5.006,0,0,1-5,5H10a5.006,5.006,0,0,1-5-5V9a5.006,5.006,0,0,1,5-5H36a5.006,5.006,0,0,1,5,5Zm4-3a1,1,0,0,1-1,1H43V43h1a1,1,0,0,1,1,1ZM57,10.5a.5.5,0,0,1,1,0V14H57Zm-7,0a.5.5,0,0,1,1,0V14H50ZM48,16H60v1H48Zm8,11H52a3,3,0,0,1-3-3V19H59v5A3,3,0,0,1,56,27Z"></path><path d="M29.447,40.1l-5.156-2.578,2.628-6.133a1,1,0,0,0-1.584-1.142l-9,8a1,1,0,0,0,.218,1.643l5.3,2.65-1.83,8.238a1,1,0,0,0,1.757.842l8-10a1,1,0,0,0-.334-1.52Zm-6.536,6.906,1.065-4.794a1,1,0,0,0-.529-1.112l-4.678-2.339,4.547-4.042-1.235,2.882a1,1,0,0,0,.472,1.289l4.893,2.446Z"></path></g></svg>