<svg xmlns="http://www.w3.org/2000/svg" viewBox="0 0 64 64" x="0px" y="0px"><g><path d="M43,18c0,.6-.03,1.27-.09,2H43a2.015,2.015,0,0,0,2-2,2.006,2.006,0,0,0-2-2Z"></path><path d="M36,4H23V7H40.56A4.949,4.949,0,0,0,36,4Z"></path><path d="M42.6,22.83A10.673,10.673,0,0,1,37,30.75v2.78c0,.05.02.09.02.14a83.5,83.5,0,0,0,10.99-2.16,1,1,0,0,0,.74-1.11L46.96,18.45A3.963,3.963,0,0,1,43,22h-.29C42.67,22.27,42.64,22.54,42.6,22.83Z"></path><path d="M17.36,16.37A4,4,0,0,1,21,14V13H17.86Z"></path><path d="M19,18a2.015,2.015,0,0,0,2,2h.09c-.06-.73-.09-1.4-.09-2V16A2.006,2.006,0,0,0,19,18Z"></path><path d="M15.25,30.4a1,1,0,0,0,.74,1.11,83.5,83.5,0,0,0,10.99,2.16c0-.05.02-.09.02-.14V30.75a10.673,10.673,0,0,1-5.6-7.92c-.04-.29-.08-.56-.11-.83H21a3.963,3.963,0,0,1-3.96-3.55Z"></path><path d="M13,45.88V60h6V38.86l-1.09.34A6.964,6.964,0,0,0,13,45.88Z"></path><path d="M32,32a10.665,10.665,0,0,1-3-.43v1.96a1.953,1.953,0,0,1-.03.34C30,33.95,31.02,34,32,34s2-.05,3.03-.13a1.953,1.953,0,0,1-.03-.34V31.57A10.665,10.665,0,0,1,32,32Z"></path><path d="M46.64,16.37,46.14,13H43v1A4,4,0,0,1,46.64,16.37Z"></path><path d="M32,43a6.967,6.967,0,0,0,6.93-6.04l-1.83-.57a2.922,2.922,0,0,1-1.06-.6c-1.37.13-2.73.21-4.04.21s-2.67-.08-4.04-.21a2.884,2.884,0,0,1-1.07.6l-1.82.57A6.99,6.99,0,0,0,32,43Z"></path><path d="M32,45a8.963,8.963,0,0,1-8.85-7.44L21,38.24V60H43V38.23l-2.15-.67A8.94,8.94,0,0,1,32,45Z"></path><path d="M23,14.39c.23-.45.49-.92.76-1.39H23Z"></path><path d="M33.89,26.99l.22-1.98,5.46.6a8.364,8.364,0,0,0,.8-1.92l-6.61-1.32a9.065,9.065,0,0,0-3.52,0l-6.62,1.32a8.857,8.857,0,0,0,.81,1.92l5.46-.6.22,1.98-4.25.48a8.716,8.716,0,0,0,12.28,0Z"></path><path d="M51,45.88a6.964,6.964,0,0,0-4.91-6.68L45,38.86V60h6Z"></path><path d="M41,14.38V13h-.75Q40.655,13.705,41,14.38Z"></path><path d="M26.08,13a41.443,41.443,0,0,0-3.05,6.11c.04.78.12,1.66.24,2.61l6.57-1.31a11.214,11.214,0,0,1,4.32,0l6.57,1.31q.18-1.44.24-2.61A41.443,41.443,0,0,0,37.92,13ZM28,19a2,2,0,1,1,2-2A2,2,0,0,1,28,19Zm8,0a2,2,0,1,1,2-2A2,2,0,0,1,36,19Z"></path><rect x="17" y="9" width="30" height="2"></rect></g></svg>