<svg xmlns="http://www.w3.org/2000/svg" viewBox="0 0 64 64" x="0px" y="0px"><g data-name="Piggy Bank"><path d="M18,31a4,4,0,0,0-4,4h2a2,2,0,0,1,4,0h2A4,4,0,0,0,18,31Z"></path><path d="M61,42a1,1,0,0,1-1-1V39a3,3,0,0,0-3-3H55.693a14.454,14.454,0,0,0-1.623-4.272l.243-.243a1,1,0,0,0,.093-1.307l-1.624-2.166a10.96,10.96,0,0,0,.678-1.639l2.682-.383A1,1,0,0,0,57,25V21a1,1,0,0,0-.858-.99l-2.682-.383a10.96,10.96,0,0,0-.678-1.639l1.624-2.166a1,1,0,0,0-.093-1.307l-2.828-2.828a1,1,0,0,0-1.307-.093l-2.166,1.624a11,11,0,0,0-1.639-.678L45.99,9.858A1,1,0,0,0,45,9H41a1,1,0,0,0-.99.858l-.383,2.682a10.96,10.96,0,0,0-1.639.678l-2.166-1.624a1,1,0,0,0-1.307.093l-2.828,2.828a1,1,0,0,0-.093,1.307l1.624,2.166a10.96,10.96,0,0,0-.678,1.639l-2.682.383A1,1,0,0,0,29,21v3H26.475A9.008,9.008,0,0,0,18,18a1,1,0,0,0-1,1v5.187A10.949,10.949,0,0,0,8,35H4a2,2,0,0,0-2,2v8a2,2,0,0,0,2,2H8.752a10.989,10.989,0,0,0,5.62,5.978L16.02,61.2A1,1,0,0,0,17,62h8a1,1,0,0,0,1-1V54H40v7a1,1,0,0,0,1,1h8a1,1,0,0,0,.988-.848L51.8,49.412A15.038,15.038,0,0,0,55.968,38H57a1,1,0,0,1,1,1v2a3,3,0,0,0,3,3h1V42ZM31,21.867l2.463-.352a1,1,0,0,0,.828-.743,8.892,8.892,0,0,1,.975-2.356,1,1,0,0,0-.06-1.111l-1.492-1.99,1.6-1.6,1.99,1.492a1,1,0,0,0,1.111.06,8.892,8.892,0,0,1,2.356-.975,1,1,0,0,0,.743-.828L41.867,11h2.266l.352,2.463a1,1,0,0,0,.743.828,8.892,8.892,0,0,1,2.356.975,1,1,0,0,0,1.111-.06l1.99-1.492,1.6,1.6-1.492,1.99a1,1,0,0,0-.06,1.111,8.892,8.892,0,0,1,.975,2.356,1,1,0,0,0,.828.743L55,21.867v2.266l-2.463.352a1,1,0,0,0-.828.743,8.892,8.892,0,0,1-.975,2.356,1,1,0,0,0,.06,1.111l1.492,1.99-1.6,1.6L48.7,30.794a1,1,0,0,0-1.111-.06,8.892,8.892,0,0,1-2.356.975,1,1,0,0,0-.743.828L44.133,35H41.867l-.352-2.463a1,1,0,0,0-.743-.828,8.892,8.892,0,0,1-2.356-.975,1,1,0,0,0-1.111.06l-1.99,1.492-1.6-1.6,1.492-1.99a1,1,0,0,0,.06-1.111,8.892,8.892,0,0,1-.975-2.356,1,1,0,0,0-.828-.743L31,24.133ZM50.155,48.23a1,1,0,0,0-.283.558L48.143,60H42V53a1,1,0,0,0-1-1H25a1,1,0,0,0-1,1v7H17.819L16.23,52.073a1,1,0,0,0-.6-.729A9,9,0,0,1,10.414,45.7,1,1,0,0,0,9.46,45H4V37H9a1,1,0,0,0,1-1V35a8.956,8.956,0,0,1,7-8.77V29h2V20.071A7.011,7.011,0,0,1,25,27v2h2V27a8.935,8.935,0,0,0-.059-1H29.93l2.61.373a10.96,10.96,0,0,0,.678,1.639l-1.624,2.166a1,1,0,0,0,.093,1.307l2.828,2.828a1,1,0,0,0,1.307.093l2.166-1.624a10.96,10.96,0,0,0,1.639.678l.383,2.682A1,1,0,0,0,41,37h4a1,1,0,0,0,.99-.858l.383-2.682a11,11,0,0,0,1.639-.678l2.166,1.624a1,1,0,0,0,1.307-.093l1.1-1.1a12.487,12.487,0,0,1,1.386,4.9A13.035,13.035,0,0,1,50.155,48.23Z"></path><path d="M44,26H42a1,1,0,0,1-1-1H39a3,3,0,0,0,3,3v1h2V28a3,3,0,0,0,0-6H42a1,1,0,0,1,0-2h2a1,1,0,0,1,1,1h2a3,3,0,0,0-3-3V17H42v1a3,3,0,0,0,0,6h2a1,1,0,0,1,0,2Z"></path><rect x="49" y="22" width="2" height="2"></rect><rect x="35" y="22" width="2" height="2"></rect><path d="M57.841,17.017l1.855-.75a18.257,18.257,0,0,0-1.126-2.3l-1.73,1A16,16,0,0,1,57.841,17.017Z"></path><path d="M55.314,12.784l1.54-1.277A18.009,18.009,0,0,0,46.126,5.273l-.348,1.97A16,16,0,0,1,55.314,12.784Z"></path><path d="M7,16a3,3,0,1,0-3-3A3,3,0,0,0,7,16Zm0-4a1,1,0,1,1-1,1A1,1,0,0,1,7,12Z"></path><path d="M21,9a3,3,0,1,0-3-3A3,3,0,0,0,21,9Zm0-4a1,1,0,1,1-1,1A1,1,0,0,1,21,5Z"></path><rect x="12" y="12" width="8" height="2"></rect><rect x="22" y="12" width="2" height="2"></rect><rect x="26" y="12" width="2" height="2"></rect><rect x="26" y="5" width="2" height="2"></rect><rect x="30" y="5" width="2" height="2"></rect><rect x="34" y="5" width="2" height="2"></rect></g></svg>