<svg xmlns="http://www.w3.org/2000/svg" data-name="Files Sharing-Network-Technology-Document-Folder" viewBox="0 0 64 64" x="0px" y="0px"><rect x="25" y="6" width="2" height="2"></rect><rect x="29" y="6" width="10" height="2"></rect><rect x="29" y="10" width="10" height="2"></rect><rect x="10" y="42" width="8" height="2"></rect><rect x="14" y="46" width="4" height="2"></rect><path d="M60,45H58V40a2.006,2.006,0,0,0-2-2H51V35a1,1,0,0,0-1-1H34.82A3.035,3.035,0,0,0,33,32.18V30H44a3.009,3.009,0,0,0,3-3V14a3.009,3.009,0,0,0-3-3H43V4a2.006,2.006,0,0,0-2-2H23a2.006,2.006,0,0,0-2,2V6H20a3.009,3.009,0,0,0-3,3V27a3.009,3.009,0,0,0,3,3H31v2.18A3.035,3.035,0,0,0,29.18,34H14a1,1,0,0,0-1,1v3H8a2.006,2.006,0,0,0-2,2H5a3.009,3.009,0,0,0-3,3V59a3.009,3.009,0,0,0,3,3H23a3.009,3.009,0,0,0,3-3V47a2.006,2.006,0,0,0-2-2H22V40a2.006,2.006,0,0,0-2-2H15V36H29.18a2.988,2.988,0,0,0,5.64,0H49v2H44a2.006,2.006,0,0,0-2,2H41a3.009,3.009,0,0,0-3,3V59a3.009,3.009,0,0,0,3,3H59a3.009,3.009,0,0,0,3-3V47A2.006,2.006,0,0,0,60,45ZM4,43a1,1,0,0,1,1-1H6v3H4Zm18,4h2v3H22Zm2,5v7a1,1,0,0,1-1,1H5a1,1,0,0,1-1-1V47H8.59l4.7,4.71A1.033,1.033,0,0,0,14,52ZM20,40V50H14.41l-4.7-4.71A1.033,1.033,0,0,0,9,45H8V40ZM43,13h1a1,1,0,0,1,1,1v2H43ZM23,4H41V16H33.32l-6.74-4.81A1,1,0,0,0,26,11H23ZM19,9a1,1,0,0,1,1-1h1v3H19Zm1,19a1,1,0,0,1-1-1V13h6.68l6.74,4.81A1,1,0,0,0,33,18H45v9a1,1,0,0,1-1,1Zm12,8a1,1,0,1,1,1-1A1,1,0,0,1,32,36Zm12,4H56V50H50.41l-4.7-4.71A1.033,1.033,0,0,0,45,45H44Zm-4,3a1,1,0,0,1,1-1h1v3H40ZM60,59a1,1,0,0,1-1,1H41a1,1,0,0,1-1-1V47h4.59l4.7,4.71A1.033,1.033,0,0,0,50,52H60Zm0-9H58V47h2Z"></path><rect x="46" y="42" width="8" height="2"></rect><rect x="50" y="46" width="4" height="2"></rect></svg>