<svg xmlns="http://www.w3.org/2000/svg" viewBox="0 0 64 64" x="0px" y="0px"><g><path d="M40.04,20.4l11.19,6.47a1.094,1.094,0,0,0,.5.13H62V25h-.83a29.987,29.987,0,0,0-59,4H2v2H12.27a1.094,1.094,0,0,0,.5-.13L23.96,24.4a1.01,1.01,0,0,1,1.37.37.988.988,0,0,1-.37,1.36l-3.46,2a1.022,1.022,0,0,0-.47,1.13A1,1,0,0,0,22,30H34a1,1,0,0,1,0,2H25a1,1,0,0,0,0,2H38a1,1,0,0,1,0,2H25a1,1,0,0,0,0,2h9a1,1,0,0,1,0,2H25a1,1,0,0,0,0,2h5a1,1,0,0,1,0,2H16.24l-3.79-1.89A1,1,0,0,0,12,42H2v2H4.53A29.972,29.972,0,0,0,60.9,40H62V38H52a1,1,0,0,0-.45.11L47.76,40H36.82a2.945,2.945,0,0,0,.01-2H38a3,3,0,0,0,0-6H36.83a2.945,2.945,0,0,0-.01-2H39a1,1,0,0,0,0-2H30a1,1,0,0,1,0-2H41.12A5,5,0,0,0,46,30h1V28H46a3.009,3.009,0,0,1-3-3,1,1,0,0,0-.5-.87l-3.46-2a.988.988,0,0,1-.37-1.36A1.008,1.008,0,0,1,40.04,20.4ZM6.72,44h5.04l3.79,1.89A1,1,0,0,0,16,46h1.05a30.326,30.326,0,0,0-6.01,4.56A27.618,27.618,0,0,1,6.72,44Zm5.69,8.01a28.338,28.338,0,0,1,5.9-4.42c1.63,5.11,4.01,9.08,6.81,11.55A27.9,27.9,0,0,1,12.41,52.01ZM31,59.92c-4.42-.66-8.53-5.67-10.9-13.27.5-.23,1-.45,1.5-.65H30a3,3,0,0,0,1-.18Zm2,0V44.02a27.8,27.8,0,0,1,10.89,2.62C41.54,54.17,37.45,59.25,33,59.92ZM47.08,42H48a1,1,0,0,0,.45-.11L52.24,40h6.58a28,28,0,0,1-5.85,10.57,29.966,29.966,0,0,0-6.69-4.97C46.59,44.45,46.85,43.24,47.08,42Zm4.51,10.01a27.983,27.983,0,0,1-12.77,7.15c2.84-2.49,5.25-6.49,6.88-11.59A27.607,27.607,0,0,1,51.59,52.01ZM45.05,42c-.18.92-.38,1.82-.6,2.69a29.761,29.761,0,0,0-11.62-2.67V42ZM16.27,26.54,12,29H4.18a27.805,27.805,0,0,1,6.87-15.54,30.521,30.521,0,0,0,6.66,4.94A50.439,50.439,0,0,0,16.27,26.54ZM12.44,12.01A28.071,28.071,0,0,1,25.13,4.86c-2.84,2.51-5.22,6.53-6.84,11.57A27.615,27.615,0,0,1,12.44,12.01ZM25.73,28l.23-.13a2.989,2.989,0,0,0,1.06-1.06A1.366,1.366,0,0,0,27,27a3,3,0,0,0,.17,1ZM31,24H30a3.009,3.009,0,0,0-2.55,1.43,2.913,2.913,0,0,0-.39-1.66,3,3,0,0,0-4.1-1.1L18.41,25.3a48.2,48.2,0,0,1,1.14-5.99A29.826,29.826,0,0,0,31,21.98Zm0-4.02a27.891,27.891,0,0,1-10.9-2.62C22.44,9.88,26.49,4.75,31,4.08Zm12.11-.11c.45-.18.9-.37,1.34-.57.13.51.26,1.03.38,1.56Zm9.83-6.42A27.654,27.654,0,0,1,59.09,25H52l-4.88-2.82c-.23-1.31-.51-2.58-.84-3.8A30.02,30.02,0,0,0,52.94,13.45Zm-1.38-1.44a28.176,28.176,0,0,1-5.86,4.4c-1.63-5.07-4.02-9.05-6.85-11.54A28.2,28.2,0,0,1,51.56,12.01ZM33,24V21.98a30.164,30.164,0,0,0,3.57-.33,3.013,3.013,0,0,0,1.47,2.22l.23.13Zm4.11-4.47a28.085,28.085,0,0,1-4.11.45V4.08c4.45.67,8.53,5.75,10.89,13.27a28.011,28.011,0,0,1-3.07,1.22A2.983,2.983,0,0,0,37.11,19.53Z"></path></g></svg>