<svg xmlns="http://www.w3.org/2000/svg" viewBox="0 0 64 64" x="0px" y="0px"><title>Study Ebook</title><g data-name="Study Ebook"><path d="M44,2H20a5.006,5.006,0,0,0-5,5v5.938h2V12H43V10H17V7a3,3,0,0,1,3-3H44a3,3,0,0,1,3,3V50H21v2H47v5a3,3,0,0,1-3,3H20a3,3,0,0,1-3-3V50H15v7a5.006,5.006,0,0,0,5,5H44a5.006,5.006,0,0,0,5-5V7A5.006,5.006,0,0,0,44,2Z"></path><rect x="31" y="55" width="2" height="2"></rect><rect x="24" y="6" width="2" height="2"></rect><rect x="28" y="6" width="2" height="2"></rect><path d="M45,19V15a1,1,0,0,0-1-1H40v2h3v3Z"></path><path d="M35,47V16a1,1,0,0,0-1-1H11a4,4,0,0,0-4,4V44a4,4,0,0,0,4,4H34A1,1,0,0,0,35,47Zm-2-7H13V17H33ZM11,17V40a3.959,3.959,0,0,0-2,.556V19A2,2,0,0,1,11,17Zm0,29a2,2,0,0,1,0-4H33v1H11v2H33v1Z"></path><path d="M16,25H30a1,1,0,0,0,1-1V20a1,1,0,0,0-1-1H16a1,1,0,0,0-1,1v4A1,1,0,0,0,16,25Zm1-4H29v2H17Z"></path><rect x="15" y="28" width="16" height="2"></rect><rect x="15" y="32" width="16" height="2"></rect><rect x="15" y="36" width="16" height="2"></rect></g></svg>