<svg xmlns="http://www.w3.org/2000/svg" viewBox="0 0 64 64" x="0px" y="0px"><g data-name="Space Rocket"><path d="M5,45a3,3,0,1,0,3,3A3,3,0,0,0,5,45Zm0,4a1,1,0,1,1,1-1A1,1,0,0,1,5,49Z"></path><path d="M49,18a3,3,0,1,0-3-3A3,3,0,0,0,49,18Zm0-4a1,1,0,1,1-1,1A1,1,0,0,1,49,14Z"></path><polygon points="56 8 58 8 58 6 60 6 60 4 58 4 58 2 56 2 56 4 54 4 54 6 56 6 56 8"></polygon><polygon points="47 29 49 29 49 27 51 27 51 25 49 25 49 23 47 23 47 25 45 25 45 27 47 27 47 29"></polygon><polygon points="29 48 27 48 27 50 25 50 25 52 27 52 27 54 29 54 29 52 31 52 31 50 29 50 29 48"></polygon><rect x="15" y="4" width="2" height="2"></rect><rect x="2" y="9" width="2" height="2"></rect><rect x="25" y="60" width="2" height="2"></rect><rect x="18" y="42" width="2" height="2"></rect><rect x="11" y="57" width="2" height="2"></rect><path d="M60.293,54.636a4.1,4.1,0,0,0-5.657,0,4,4,0,0,0,0,5.657,8.213,8.213,0,0,0,5.045,2.145,2.77,2.77,0,0,0,2.026-.731C63.434,59.98,61.75,56.093,60.293,54.636Zm0,5.657c-.531.527-3.186-.357-4.243-1.414a2,2,0,1,1,2.829-2.829C59.936,57.108,60.822,59.764,60.293,60.293Z"></path><path d="M43.322,39.079a3,3,0,1,0,0,4.243,3,3,0,0,0,0-4.243Zm-1.414,2.829a1,1,0,1,1,0-1.414A1,1,0,0,1,41.908,41.908Z"></path><path d="M55.617,50.2l-.6-3.01,2.844-2.844a2,2,0,0,0-.586-3.235l-3.941-1.792a5.029,5.029,0,0,0-5.016.514l-2.741-2.741a4.949,4.949,0,0,0-2.593-1.376c-5.212-.976-6.355.163-6.73.538s-1.515,1.516-.538,6.73a4.949,4.949,0,0,0,1.376,2.593l2.741,2.741a5.031,5.031,0,0,0-.514,5.016l1.792,3.941a2,2,0,0,0,1.464,1.14,1.958,1.958,0,0,0,.357.032,2,2,0,0,0,1.414-.586l2.844-2.844,3.01.6a1.011,1.011,0,0,0,.2.019,1,1,0,0,0,.707-.293L55.343,51.1A1,1,0,0,0,55.617,50.2ZM52.5,41.137l3.941,1.792-2.515,2.515-4.165-4.165A3.014,3.014,0,0,1,52.5,41.137ZM37.679,42.613c-.619-3.3-.28-4.681-.013-4.947a2.942,2.942,0,0,1,1.764-.336,17.621,17.621,0,0,1,3.183.349,2.953,2.953,0,0,1,1.547.824l8.355,8.355-5.657,5.657L38.5,44.16A2.953,2.953,0,0,1,37.679,42.613Zm5.249,13.831L41.137,52.5a3.013,3.013,0,0,1,.141-2.74l4.166,4.166Zm7.137-2.893-1.179-.236,4.429-4.429.236,1.179Z"></path><path d="M36.7,19.089c7.466-9.669,5.7-13.466,3.69-15.476S34.581-.162,24.911,7.3A15.405,15.405,0,0,0,22,7,15.017,15.017,0,0,0,7,22a15.393,15.393,0,0,0,.3,2.911C-.163,34.58,1.6,38.377,3.613,40.387a5.556,5.556,0,0,0,4.134,1.754c2.444,0,6-1.312,11.347-5.443A15.443,15.443,0,0,0,22,37,15.017,15.017,0,0,0,37,22,15.405,15.405,0,0,0,36.7,19.089Zm-2.9-6.334a15.154,15.154,0,0,0-2.55-2.55c3.012-2.022,4.464-2.383,4.877-2.327C36.175,8.292,35.815,9.744,33.8,12.755Zm-4.822-1.721a13.066,13.066,0,0,1,3.6,3.445,89.494,89.494,0,0,1-8.451,9.644,89.494,89.494,0,0,1-9.644,8.451,13.057,13.057,0,0,1-3.447-3.6c-.206-.322-.4-.654-.572-.993A18,18,0,0,0,27.977,10.46C28.317,10.637,28.65,10.827,28.973,11.034Zm-6.443-2a13.592,13.592,0,0,1,2.409.3c.355.084.7.183,1.047.294,0,.125.014.246.014.373A16.019,16.019,0,0,1,10,26c-.127,0-.249-.011-.373-.014q-.165-.51-.292-1.036a13.625,13.625,0,0,1-.305-2.42A18,18,0,0,0,22.53,9.03ZM10.205,31.245a15.117,15.117,0,0,0,2.55,2.55c-3.012,2.023-4.464,2.388-4.877,2.327C7.825,35.708,8.185,34.256,10.205,31.245ZM20.465,9.1A16.015,16.015,0,0,1,9.1,20.465,13.013,13.013,0,0,1,20.465,9.1ZM5.027,38.973c-.815-.815-3.2-3.209,2.962-11.654A14.78,14.78,0,0,0,9.005,29.46c-3.913,5.594-3.354,7.306-2.562,8.1a1.947,1.947,0,0,0,1.474.574c1.249,0,3.362-.78,7.157-3.509a89.415,89.415,0,0,0,10.463-9.085,89.415,89.415,0,0,0,9.085-10.463c4.336-6.032,3.752-7.815,2.935-8.631-.79-.79-2.5-1.35-8.1,2.562a14.742,14.742,0,0,0-2.142-1.016c8.447-6.16,10.84-3.776,11.655-2.962.862.863,3.487,3.488-4.119,13.184a101.482,101.482,0,0,1-7.9,8.742,101.785,101.785,0,0,1-8.74,7.9C8.515,42.46,5.891,39.836,5.027,38.973ZM22,35c-.25,0-.5-.028-.757-.043,2.206-1.855,4.59-4.055,7.124-6.59s4.735-4.918,6.59-7.124c.015.252.043.507.043.757A13.015,13.015,0,0,1,22,35Z"></path></g></svg>