<svg xmlns="http://www.w3.org/2000/svg" viewBox="0 0 64 64" x="0px" y="0px"><g data-name="Online Payment-Online Shopping-Smartphone-Basket-Credit Card"><path d="M4,43V12H46V38h2V7a5.006,5.006,0,0,0-5-5H7A5.006,5.006,0,0,0,2,7V43a5.006,5.006,0,0,0,5,5H28V46H7A3,3,0,0,1,4,43ZM7,4H43a3,3,0,0,1,3,3v3H4V7A3,3,0,0,1,7,4Z"></path><rect x="6" y="6" width="2" height="2"></rect><rect x="10" y="6" width="2" height="2"></rect><rect x="14" y="6" width="2" height="2"></rect><path d="M33,20H31.25l.48-2.69a2.848,2.848,0,0,0,.04-.51,2.992,2.992,0,0,0-2.48-2.94,2.9,2.9,0,0,0-2.23.48,2.945,2.945,0,0,0-1.24,1.95L25.16,20H16.84l-.65-3.71a3,3,0,0,0-1.25-1.95,2.921,2.921,0,0,0-2.22-.49,3.01,3.01,0,0,0-2.49,2.95,2.292,2.292,0,0,0,.05.52L10.75,20H9a3,3,0,0,0-3,3,3.009,3.009,0,0,0,3,3h.07l.72,9.28A5,5,0,0,0,14.78,40H27.22a5,5,0,0,0,4.99-4.7l.72-9.3H33a3,3,0,0,0,3-3A3.009,3.009,0,0,0,33,20Zm-5.21-3.37a1,1,0,0,1,.41-.65,1.02,1.02,0,0,1,.74-.16,1,1,0,0,1,.83.98c0,.06-.01.12-.01.18L28.51,24H26.48ZM24.81,22l-.36,2h-6.9l-.35-2ZM13.07,15.82a1,1,0,0,1,.73.16,1.05,1.05,0,0,1,.42.65L15.52,24H13.49l-1.24-7.01a1.366,1.366,0,0,1-.02-.19A1,1,0,0,1,13.07,15.82ZM9,24a1,1,0,0,1-1-1,.949.949,0,0,1,.31-.71A.928.928,0,0,1,9,22h2.1l.36,2ZM30.21,35.17A2.994,2.994,0,0,1,27.22,38H14.78a3,3,0,0,1-2.99-2.86L11.08,26H30.92Zm3.48-11.46A.928.928,0,0,1,33,24H30.54l.36-2H33a1,1,0,0,1,1,1A.949.949,0,0,1,33.69,23.71Z"></path><rect x="20" y="28" width="2" height="8"></rect><rect x="25" y="28" width="2" height="8"></rect><rect x="15" y="28" width="2" height="8"></rect><path d="M59,40H33a3.009,3.009,0,0,0-3,3V59a3.009,3.009,0,0,0,3,3H59a3.009,3.009,0,0,0,3-3V43A3.009,3.009,0,0,0,59,40Zm1,19a1,1,0,0,1-1,1H33a1,1,0,0,1-1-1V43a1,1,0,0,1,1-1H59a1,1,0,0,1,1,1Z"></path><path d="M55,52H52a3,3,0,0,0,0,6h3a3,3,0,0,0,0-6Zm0,4H52a1,1,0,0,1,0-2h3a1,1,0,0,1,0,2Z"></path><path d="M43,44H35a1,1,0,0,0-1,1v6a1,1,0,0,0,1,1h8a1,1,0,0,0,1-1V45A1,1,0,0,0,43,44Zm-7,2h2v4H36Zm6,4H40V46h2Z"></path><rect x="56" y="44" width="2" height="2"></rect><rect x="52" y="44" width="2" height="2"></rect><rect x="48" y="44" width="2" height="2"></rect><rect x="34" y="54" width="2" height="2"></rect><rect x="38" y="54" width="2" height="2"></rect><rect x="42" y="54" width="2" height="2"></rect><rect x="48" y="48" width="10" height="2"></rect></g></svg>