<svg xmlns="http://www.w3.org/2000/svg" viewBox="0 0 64 64" x="0px" y="0px"><g data-name="VR Glasses"><path d="M51,27H13V37H24.527l1.724-3.447A1,1,0,0,1,27.146,33h9.708a1,1,0,0,1,.9.553L39.473,37H51Z"></path><rect x="27" y="8" width="10" height="4" rx="1"></rect><path d="M37,42a1,1,0,0,1-.9-.553L34.382,38H29.618L27.9,41.447A1,1,0,0,1,27,42H13.051a18.974,18.974,0,0,0,37.9,0ZM32,55a9.01,9.01,0,0,1-9-9h2a7,7,0,0,0,14,0h2A9.01,9.01,0,0,1,32,55Z"></path><path d="M54,37V27a3,3,0,0,0-3-3H13a3,3,0,0,0-3,3V37a3,3,0,0,0,3,3H26.382l1.723-3.447A1,1,0,0,1,29,36h6a1,1,0,0,1,.9.553L37.618,40H51A3,3,0,0,0,54,37ZM37.96,38.447,36.236,35H27.764L26.04,38.447a1,1,0,0,1-.894.553H13a2,2,0,0,1-2-2V27a2,2,0,0,1,2-2H51a2,2,0,0,1,2,2V37a2,2,0,0,1-2,2H38.854A1,1,0,0,1,37.96,38.447Z"></path><rect x="6" y="29" width="2" height="6"></rect><rect x="56" y="29" width="2" height="6"></rect><path d="M56,27A23.026,23.026,0,0,0,33,4H31A23.026,23.026,0,0,0,8,27a5.006,5.006,0,0,1,5-5H51A5.006,5.006,0,0,1,56,27ZM39,11a3,3,0,0,1-3,3H28a3,3,0,0,1-3-3V9a3,3,0,0,1,3-3h8a3,3,0,0,1,3,3Z"></path></g></svg>