<svg xmlns="http://www.w3.org/2000/svg" viewBox="0 0 64 64" x="0px" y="0px"><g><path d="M32,13V11a29.935,29.935,0,0,0-3.156.169l.212,1.989A27.809,27.809,0,0,1,32,13Z"></path><path d="M27.171,13.422l-.342-1.97C15.742,13.373,6.7,21.016,2.294,25.4l1.411,1.417C7.942,22.6,16.625,15.249,27.171,13.422Z"></path><path d="M32,24a8,8,0,1,0,8,8A8.009,8.009,0,0,0,32,24Zm-4,9H26V31h2Zm4-2a2.937,2.937,0,0,1,2.862,3A2.993,2.993,0,0,1,33,36.8V38H31V36.8A2.993,2.993,0,0,1,29.138,34h2A.872.872,0,1,0,32,33a2.937,2.937,0,0,1-2.862-3A2.993,2.993,0,0,1,31,27.2V26h2v1.2A2.993,2.993,0,0,1,34.862,30h-2A.872.872,0,1,0,32,31Zm6,2H36V31h2Z"></path><path d="M32,17C18.446,17,6.912,29.077,4.32,32,6.912,34.923,18.446,47,32,47S57.088,34.923,59.68,32C57.088,29.077,45.554,17,32,17ZM45.822,29.771l-1.975.315a11.753,11.753,0,0,0-.443-1.825l1.9-.625A13.7,13.7,0,0,1,45.822,29.771ZM44.456,25.61l-1.779.916a12.005,12.005,0,0,0-.989-1.6L43.3,23.745A14.07,14.07,0,0,1,44.456,25.61ZM42,32A10,10,0,1,1,32,22,10.011,10.011,0,0,1,42,32ZM40.2,20.659a13.993,13.993,0,0,1,1.671,1.422L40.46,23.5a12.11,12.11,0,0,0-1.434-1.22Zm-3.9-1.985a13.913,13.913,0,0,1,2.031.84L37.421,21.3a11.891,11.891,0,0,0-1.739-.718ZM32,18a14.156,14.156,0,0,1,2.16.166l-.307,1.977A12.056,12.056,0,0,0,32,20l-.026-2Zm-2.216.176L30.1,20.15a12.051,12.051,0,0,0-1.828.442l-.622-1.9A13.824,13.824,0,0,1,29.784,18.176Zm-4.161,1.362.913,1.779a12.1,12.1,0,0,0-1.6.988l-1.18-1.615A14.071,14.071,0,0,1,25.623,19.538ZM22.09,22.119l1.416,1.413a12.085,12.085,0,0,0-1.221,1.432l-1.618-1.176A14.075,14.075,0,0,1,22.09,22.119ZM19.52,25.66l1.781.909a11.916,11.916,0,0,0-.72,1.738l-1.9-.617A13.914,13.914,0,0,1,19.52,25.66ZM18,32a14.108,14.108,0,0,1,.169-2.174l1.976.31A12.084,12.084,0,0,0,20,32l-2,.013Zm.173,2.2,1.975-.312a11.972,11.972,0,0,0,.44,1.827l-1.9.621A13.9,13.9,0,0,1,18.173,34.2Zm1.358,4.164,1.781-.912a12,12,0,0,0,.986,1.6l-1.616,1.179A14.14,14.14,0,0,1,19.531,38.365Zm4.246,4.96A14.148,14.148,0,0,1,22.109,41.9l1.413-1.415a12.263,12.263,0,0,0,1.432,1.223Zm3.9,1.992a13.787,13.787,0,0,1-2.03-.843l.911-1.78a11.863,11.863,0,0,0,1.737.721ZM32,46a14.136,14.136,0,0,1-2.188-.171l.312-1.975A12.1,12.1,0,0,0,32,44l.052,2Zm2.244-.18-.32-1.974a11.933,11.933,0,0,0,1.827-.446l.626,1.9A13.914,13.914,0,0,1,34.244,45.82ZM38.4,44.448l-.917-1.777a11.948,11.948,0,0,0,1.6-.991l1.184,1.612A13.949,13.949,0,0,1,38.4,44.448Zm3.527-2.587-1.419-1.41a12.1,12.1,0,0,0,1.219-1.434l1.621,1.172A14.1,14.1,0,0,1,41.929,41.861Zm2.564-3.546L42.71,37.41a11.81,11.81,0,0,0,.716-1.74l1.905.613A13.987,13.987,0,0,1,44.493,38.315Zm1.343-4.169-1.977-.3A12.054,12.054,0,0,0,44,32l1.651-.033.349,0A14.226,14.226,0,0,1,45.836,34.146Z"></path></g></svg>