<svg xmlns="http://www.w3.org/2000/svg" viewBox="0 0 64 64" x="0px" y="0px"><g data-name="Long Sofa"><rect x="18" y="31" width="2" height="2"></rect><rect x="56" y="56" width="2" height="2"></rect><path d="M60,35a1,1,0,0,0-1-1H55a1,1,0,0,0-1,1V54h6Z"></path><rect x="44" y="31" width="2" height="2"></rect><path d="M52,35a3,3,0,0,1,3-3h2V23a1,1,0,0,0-1-1H8a1,1,0,0,0-1,1v9H9a3,3,0,0,1,3,3v8.026A4.948,4.948,0,0,1,15,42H49a4.948,4.948,0,0,1,3,1.026ZM22,33H20v2H18V33H16V31h2V29h2v2h2Zm26,0H46v2H44V33H42V31h2V29h2v2h2Z"></path><rect x="6" y="56" width="2" height="2"></rect><path d="M10,35a1,1,0,0,0-1-1H5a1,1,0,0,0-1,1V54h6Z"></path><path d="M15,44a3,3,0,0,0-3,3v7H52V47a3,3,0,0,0-3-3Z"></path></g></svg>