<svg xmlns="http://www.w3.org/2000/svg" viewBox="0 0 64 64" x="0px" y="0px"><g data-name="Smartphone"><path d="M57,10H44V8a2,2,0,0,0-2-2H37V4a2,2,0,0,0-2-2H29a2,2,0,0,0-2,2V6H22a2,2,0,0,0-2,2v2H7a5.006,5.006,0,0,0-5,5V39a5.006,5.006,0,0,0,5,5H20v2a2,2,0,0,0,2,2h2v3a1,1,0,0,0,1,1h2v9a1,1,0,0,0,1,1h8a1,1,0,0,0,1-1V52h2a1,1,0,0,0,1-1V48h2a2,2,0,0,0,2-2V44H57a5.006,5.006,0,0,0,5-5V15A5.006,5.006,0,0,0,57,10ZM29,4h6V6H29ZM22,8H42v4H22ZM4,39V15a3,3,0,0,1,3-3h3V42H7A3,3,0,0,1,4,39ZM35,60H29V52h6Zm3-10H26V48H38Zm4-4H22V42H42Zm1-6H21a1,1,0,0,0-1,1v1H12V12h8v1a1,1,0,0,0,1,1H43a1,1,0,0,0,1-1V12h8V42H44V41A1,1,0,0,0,43,40Zm17-1a3,3,0,0,1-3,3H54V12h3a3,3,0,0,1,3,3Z"></path><rect x="56" y="25" width="2" height="4"></rect><rect x="6" y="37" width="2" height="2"></rect><rect x="6" y="29" width="2" height="6"></rect><path d="M30,25a3,3,0,1,0-3-3A3,3,0,0,0,30,25Zm0-4a1,1,0,1,1-1,1A1,1,0,0,1,30,21Z"></path><path d="M49,37V16a1,1,0,0,0-1-1H16a1,1,0,0,0-1,1V37c0,.013.007.023.007.036a1,1,0,0,0,.069.347l0,0c0,.01.011.017.015.026a.879.879,0,0,0,.254.333,1.022,1.022,0,0,0,.209.141,1.033,1.033,0,0,0,.1.045A1,1,0,0,0,16,38H48A1,1,0,0,0,49,37ZM47,17V30.586l-8.293-8.293a1,1,0,0,0-1.414,0L28,31.586l-3.293-3.293a1,1,0,0,0-1.414,0L17,34.586V17ZM18.414,36,24,30.414,29.586,36ZM47,36H32.414l-3-3L38,24.414l9,9Z"></path></g></svg>