<svg xmlns="http://www.w3.org/2000/svg" viewBox="0 0 64 64" x="0px" y="0px"><g><path d="M45,27A17,17,0,1,0,62,44,17.019,17.019,0,0,0,45,27Zm0,32A15,15,0,1,1,60,44,15.017,15.017,0,0,1,45,59Z"></path><path d="M46,41.184V35H44v6.184A3,3,0,0,0,42.184,43H38v2h4.184A2.993,2.993,0,1,0,46,41.184ZM45,45a1,1,0,1,1,1-1A1,1,0,0,1,45,45Z"></path><rect x="32" y="43" width="2" height="2"></rect><rect x="44" y="55" width="2" height="2"></rect><rect x="56" y="43" width="2" height="2"></rect><rect x="44" y="31" width="2" height="2"></rect><path d="M4,46V17H50v9h2V12a5.006,5.006,0,0,0-5-5H40V6a3,3,0,0,0-6,0V7H20V6a3,3,0,0,0-6,0V7H7a5.006,5.006,0,0,0-5,5V46a5.006,5.006,0,0,0,5,5H27V49H7A3,3,0,0,1,4,46ZM36,6a1,1,0,0,1,2,0v4a1,1,0,0,1-2,0ZM16,6a1,1,0,0,1,2,0v4a1,1,0,0,1-2,0ZM7,9h7v1a3,3,0,0,0,6,0V9H34v1a3,3,0,0,0,6,0V9h7a3,3,0,0,1,3,3v3H4V12A3,3,0,0,1,7,9Z"></path><path d="M16,25a2,2,0,0,0-2-2H10a2,2,0,0,0-2,2v4a2,2,0,0,0,2,2h4a2,2,0,0,0,2-2Zm-6,4V25h4v4Z"></path><path d="M26,25a2,2,0,0,0-2-2H20a2,2,0,0,0-2,2v4a2,2,0,0,0,2,2h4a2,2,0,0,0,2-2Zm-6,4V25h4v4Z"></path><path d="M36,28V25a2,2,0,0,0-2-2H30a2,2,0,0,0-2,2v4a2,2,0,0,0,2,2h2V29H30V25h4v3Z"></path><path d="M14,35H10a2,2,0,0,0-2,2v4a2,2,0,0,0,2,2h4a2,2,0,0,0,2-2V37A2,2,0,0,0,14,35Zm-4,6V37h4v4Z"></path><path d="M24,35H20a2,2,0,0,0-2,2v4a2,2,0,0,0,2,2h4a2,2,0,0,0,2-2V37A2,2,0,0,0,24,35Zm-4,6V37h4v4Z"></path><path d="M46,26V25a2,2,0,0,0-2-2H40a2,2,0,0,0-2,2v1h2V25h4v1Z"></path></g></svg>