<svg xmlns="http://www.w3.org/2000/svg" viewBox="0 0 512 512" x="0px" y="0px"><g data-name="Smartphone"><path d="M360,16H152a40.045,40.045,0,0,0-40,40V456a40.045,40.045,0,0,0,40,40H360a40.045,40.045,0,0,0,40-40V56A40.045,40.045,0,0,0,360,16ZM216,32h80v8a8.009,8.009,0,0,1-8,8H224a8.009,8.009,0,0,1-8-8Zm-64,0h48v8a24.027,24.027,0,0,0,24,24h64a24.027,24.027,0,0,0,24-24V32h48a24.028,24.028,0,0,1,24,24V384H128V56A24.028,24.028,0,0,1,152,32ZM360,480H152a24.028,24.028,0,0,1-24-24V400H384v56A24.028,24.028,0,0,1,360,480Z"></path><path d="M256,416a24,24,0,1,0,24,24A24.027,24.027,0,0,0,256,416Zm0,32a8,8,0,1,1,8-8A8.009,8.009,0,0,1,256,448Z"></path><path d="M72,112a24.028,24.028,0,0,0-24,24v8H40a24,24,0,0,0,0,48H88a8,8,0,0,0,8-8V136A24.028,24.028,0,0,0,72,112Zm8,64H40a8,8,0,0,1,0-16H56a8,8,0,0,0,8-8V136a8,8,0,0,1,16,0Z"></path><path d="M472,144h-8v-8a24,24,0,0,0-48,0v48a8,8,0,0,0,8,8h48a24,24,0,0,0,0-48Zm0,32H432V136a8,8,0,0,1,16,0v16a8,8,0,0,0,8,8h16a8,8,0,0,1,0,16Z"></path><path d="M250.343,301.657a8,8,0,0,0,11.314,0l67.882-67.883a40,40,0,0,0-56.568-56.568L256,194.177l-16.971-16.971a40,40,0,0,0-56.568,56.568ZM193.774,188.52a24.026,24.026,0,0,1,33.942,0l22.627,22.627a8,8,0,0,0,11.314,0l22.627-22.627a24,24,0,1,1,33.942,33.941L256,284.686l-62.226-62.225A24.028,24.028,0,0,1,193.774,188.52Z"></path></g></svg>