<svg xmlns="http://www.w3.org/2000/svg" viewBox="0 0 64 64" x="0px" y="0px"><g><path d="M4,10H60V5a1,1,0,0,0-1-1H5A1,1,0,0,0,4,5ZM16,6h2V8H16ZM12,6h2V8H12ZM8,6h2V8H8Z"></path><path d="M27,35a2,2,0,0,0,1.414-3.414l1.414-1.414a3.972,3.972,0,0,1,.737,1.05,1.96,1.96,0,0,0-.076-2.551l1.482-1.342a3.941,3.941,0,0,1,.836,1.5,1.988,1.988,0,0,0,.375-3.429A3.981,3.981,0,0,1,30,27V25a2,2,0,1,0-2-2H26a3.991,3.991,0,0,1,2.825-3.8A2,2,0,0,0,25,20V33A2,2,0,0,0,27,35Z"></path><path d="M11.193,28.826a3.941,3.941,0,0,1,.836-1.5l1.482,1.342a1.96,1.96,0,0,0-.076,2.551,3.972,3.972,0,0,1,.737-1.05l1.414,1.414A2,2,0,1,0,19,33V20a2,2,0,0,0-3.825-.8A3.991,3.991,0,0,1,18,23H16a2,2,0,1,0-2,2v2a3.981,3.981,0,0,1-3.182-1.6,1.988,1.988,0,0,0,.375,3.429Z"></path><path d="M5,60H59a1,1,0,0,0,1-1V12H4V59A1,1,0,0,0,5,60ZM56,34H52V32h4ZM46,16H56v2H46Zm-6,0h4v2H40Zm0,4H56v2H40Zm0,4H56v2H40Zm0,4H56v2H40Zm0,4H50v2H40Zm0,4H56v2H40ZM23,20a3.994,3.994,0,0,1,7.889-.892,3.84,3.84,0,0,1,3.058,4.418,3.98,3.98,0,0,1-1.06,7.367,3.969,3.969,0,0,1-1.935,2.585A3.99,3.99,0,0,1,23,33ZM10.053,23.526a3.84,3.84,0,0,1,3.058-4.418A3.994,3.994,0,0,1,21,20V33a3.99,3.99,0,0,1-7.952.478,3.969,3.969,0,0,1-1.935-2.585,3.98,3.98,0,0,1-1.06-7.367ZM8,44a2,2,0,0,1,2-2H54a2,2,0,0,1,2,2V54a2,2,0,0,1-2,2H10a2,2,0,0,1-2-2Z"></path><path d="M54,44H10V54H54ZM26,50H22V48h4Zm8,0H30V48h4Zm8,0H38V48h4Z"></path></g></svg>