<svg xmlns="http://www.w3.org/2000/svg" viewBox="0 0 64 64" x="0px" y="0px"><g data-name="Lamp"><path d="M48.939,24.658l-8-22A1,1,0,0,0,40,2H24a1,1,0,0,0-.939.658l-8,22A1,1,0,0,0,16,26H29v2H24a1,1,0,0,0-1,1v4a1,1,0,0,0,1,1h1.634a13.555,13.555,0,0,0,0,22H21a1,1,0,0,0-1,1v4a1,1,0,0,0,1,1H43a1,1,0,0,0,1-1V57a1,1,0,0,0-1-1H38.366a13.555,13.555,0,0,0,0-22H40a1,1,0,0,0,1-1V29a1,1,0,0,0-1-1H35V26H48a1,1,0,0,0,.939-1.342ZM42,58v2H22V58Zm0-13c0,6.065-4.486,11-10,11S22,51.065,22,45s4.486-11,10-11S42,38.935,42,45ZM39,32H25V30H39Zm-6-4H31V26h2ZM17.428,24,24.7,4H39.3l7.272,20Z"></path></g></svg>