<svg xmlns="http://www.w3.org/2000/svg" viewBox="0 0 64 64" x="0px" y="0px"><title>Bills</title><g><path d="M60,56H57V5.414A2,2,0,0,0,53.586,4L50,7.586,45.414,3a2,2,0,0,0-2.828,0L38,7.586,33.414,3a2.047,2.047,0,0,0-2.828,0L26,7.586,21.414,3a2,2,0,0,0-2.828,0L14,7.586,10.414,4A2,2,0,0,0,7,5.414V56H4a2,2,0,0,0-2,2v2a2,2,0,0,0,2,2H60a2,2,0,0,0,2-2V58A2,2,0,0,0,60,56ZM4,58H7v2H4Zm5,2V5.414L12.586,9a2,2,0,0,0,2.828,0L20,4.414,24.586,9a2.047,2.047,0,0,0,2.828,0L32,4.414,36.586,9a2.047,2.047,0,0,0,2.828,0L44,4.414,48.586,9a2,2,0,0,0,2.828,0L55,5.405V60Zm51,0H57V58h3Z"></path><path d="M32,26a1,1,0,0,1-1-1,1,1,0,0,0-2,0,3,3,0,0,0,2,2.816V29a1,1,0,0,0,2,0V27.816A3,3,0,0,0,35,25c0-2-1.331-3-2.4-3.8C31.578,20.434,31,19.954,31,19a1.069,1.069,0,0,1,1-1,1,1,0,0,1,1,1,1,1,0,0,0,2,0,3,3,0,0,0-2-2.816V15a1,1,0,0,0-2,0v1.2A3.083,3.083,0,0,0,29,19c0,2,1.331,3,2.4,3.8,1.022.766,1.6,1.246,1.6,2.2A1,1,0,0,1,32,26Z"></path><path d="M46,34H18a1,1,0,0,0,0,2H46a1,1,0,0,0,0-2Z"></path><path d="M46,40H18a1,1,0,0,0,0,2H46a1,1,0,0,0,0-2Z"></path><path d="M46,46H18a1,1,0,0,0,0,2H46a1,1,0,0,0,0-2Z"></path></g></svg>