<svg xmlns="http://www.w3.org/2000/svg" viewBox="0 0 64 64" x="0px" y="0px"><g data-name="Love-Smartphone-Chat Bubble-Message-Heart"><path d="M33.487,23.927l-.78.78a1,1,0,0,1-1.414,0l-.78-.78A1.986,1.986,0,0,0,29.1,23.34a2.011,2.011,0,0,0-1.412.587,2,2,0,0,0,0,2.825L32,31.066l4.312-4.313h0a2,2,0,0,0,0-2.825A2.051,2.051,0,0,0,33.487,23.927Z"></path><path d="M32,16c-7.72,0-14,4.935-14,11,0,3.662,2.323,7.076,6.215,9.132a1,1,0,0,1,.5,1.127l-.984,3.931,3.881-3.338a.991.991,0,0,1,.854-.221,17.147,17.147,0,0,0,7.062,0,1,1,0,0,1,.677.1L40.2,39.89l-.891-2.543a1,1,0,0,1,.476-1.215C43.677,34.076,46,30.662,46,27,46,20.935,39.72,16,32,16Zm5.727,12.167-5.02,5.02a1,1,0,0,1-1.414,0l-5.02-5.02a4,4,0,0,1,0-5.654A4.026,4.026,0,0,1,29.1,21.34a3.976,3.976,0,0,1,2.827,1.172l.073.074.073-.073A3.972,3.972,0,0,1,34.9,21.34a4.026,4.026,0,0,1,2.827,1.173,4,4,0,0,1,0,5.654Z"></path><path d="M34,54H30a1,1,0,0,0,0,2h4a1,1,0,0,0,0-2Z"></path><path d="M50,8a4,4,0,0,0-4-4H18a4,4,0,0,0-4,4V56a4,4,0,0,0,4,4H46a4,4,0,0,0,4-4ZM29,6h6V8H29ZM25,6h2V8H25Zm9,52H30a3,3,0,0,1,0-6h4a3,3,0,0,1,0,6Zm7.474-20.523,1.469,4.192a1,1,0,0,1-1.419,1.21l-5.952-3.218a19.061,19.061,0,0,1-7.019.023l-5.9,5.074a1,1,0,0,1-1.622-1l1.562-6.241C18.449,35.071,16,31.189,16,27c0-7.168,7.178-13,16-13s16,5.832,16,13C48,31.167,45.576,35.03,41.474,37.477Z"></path></g></svg>