<svg xmlns="http://www.w3.org/2000/svg" viewBox="0 0 64 64" x="0px" y="0px"><g><path d="M62,46a9,9,0,0,0-18,0,8.909,8.909,0,0,0,3.62,7.19A2.976,2.976,0,0,0,49,57.82V58a4,4,0,0,0,8,0v-.18a2.976,2.976,0,0,0,1.38-4.63A8.909,8.909,0,0,0,62,46ZM53,60a2.006,2.006,0,0,1-2-2h4A2.006,2.006,0,0,1,53,60Zm3-4H50a1,1,0,0,1,0-2h6a1,1,0,0,1,0,2Zm.48-3.95A2.607,2.607,0,0,0,56,52H50a2.607,2.607,0,0,0-.48.05,7,7,0,1,1,6.96,0Z"></path><path d="M51.832,48.555,53,46.8l1.168,1.752a1,1,0,0,0,1.664,0l2-3-1.664-1.11L55,46.2l-1.168-1.752a1.039,1.039,0,0,0-1.664,0L51,46.2l-1.168-1.752-1.664,1.11,2,3A1.039,1.039,0,0,0,51.832,48.555Z"></path><path d="M37.68,41.29,28,38.26v-.68a4.991,4.991,0,0,0,6.22-1.9A5.058,5.058,0,0,0,36,36a5,5,0,0,0,5-5,4.9,4.9,0,0,0-.33-1.79A4.989,4.989,0,0,0,38,20V18.72A2,2,0,0,0,39,17V15a2.006,2.006,0,0,0-2-2H34.95a10.919,10.919,0,0,0-3.17-6.78A11.508,11.508,0,0,0,29.5,4.47a11.3,11.3,0,0,0-3.63-1.3,2.983,2.983,0,0,0-5.74,0,11.3,11.3,0,0,0-3.63,1.3A11.023,11.023,0,0,0,11.07,13H9a2.006,2.006,0,0,0-2,2v2a2,2,0,0,0,1,1.72V20a4.989,4.989,0,0,0-2.67,9.21A4.9,4.9,0,0,0,5,31a5,5,0,0,0,5,5,5.058,5.058,0,0,0,1.78-.32A4.991,4.991,0,0,0,18,37.58v.68L8.32,41.29A8.959,8.959,0,0,0,2,49.88V61a1,1,0,0,0,1,1H43a1,1,0,0,0,1-1V49.88A8.959,8.959,0,0,0,37.68,41.29ZM23,34a9.014,9.014,0,0,1-9-9V19H32v6A9.014,9.014,0,0,1,23,34Zm3,1.57V39a3,3,0,0,1-6,0V35.57a10.68,10.68,0,0,0,6,0ZM37.27,22.11A2.876,2.876,0,0,1,38,22a3.009,3.009,0,0,1,3,3,2.968,2.968,0,0,1-2.02,2.81,1.035,1.035,0,0,0-.62.64.99.99,0,0,0,.13.88A2.964,2.964,0,0,1,39,31a3.009,3.009,0,0,1-3,3,2.911,2.911,0,0,1-1.67-.51,1,1,0,0,0-1.5.5A3.007,3.007,0,0,1,30,36a2.963,2.963,0,0,1-2-.79v-.42A11.014,11.014,0,0,0,34,25V19h2v2.15a1.014,1.014,0,0,0,.4.8A.97.97,0,0,0,37.27,22.11ZM26,5.23a9.024,9.024,0,0,1,2,.72V11h2V7.32c.12.11.25.2.36.32A8.94,8.94,0,0,1,32.95,13H26ZM22,4a1,1,0,0,1,2,0v9H22ZM16,7.31V11h2V5.95a9.209,9.209,0,0,1,2-.72V13H13.06A9,9,0,0,1,16,7.31ZM9,15H37v2H9Zm7,21a3.007,3.007,0,0,1-2.83-2.01,1,1,0,0,0-1.5-.5A2.911,2.911,0,0,1,10,34a3.009,3.009,0,0,1-3-3,2.964,2.964,0,0,1,.51-1.67.99.99,0,0,0,.13-.88,1.035,1.035,0,0,0-.62-.64A2.968,2.968,0,0,1,5,25a3.009,3.009,0,0,1,3-3,2.876,2.876,0,0,1,.73.11.97.97,0,0,0,.87-.16,1.014,1.014,0,0,0,.4-.8V19h2v6a11.014,11.014,0,0,0,6,9.79v.42A2.963,2.963,0,0,1,16,36Zm1,4.67,1.19-.37a4.977,4.977,0,0,0,9.62,0l1.19.37V47a3.009,3.009,0,0,1-3,3H20a3.009,3.009,0,0,1-3-3ZM4,49.88A6.964,6.964,0,0,1,8.91,43.2L10,42.86v5.75A8.824,8.824,0,0,0,8,54a8.261,8.261,0,0,0,.29,2H4ZM4,60V58H9.08a7.373,7.373,0,0,0,.45.77A2.673,2.673,0,0,1,9.97,60Zm18,0H11.97a4.664,4.664,0,0,0-.8-2.37,6.678,6.678,0,0,1-.8-1.63H22Zm0-6H10a6.609,6.609,0,0,1,1.71-4.29A1.033,1.033,0,0,0,12,49V42.24l3-.94V47a5,5,0,0,0,5,5h2Zm12.83,3.63a4.664,4.664,0,0,0-.8,2.37H24V56H35.63A6.337,6.337,0,0,1,34.83,57.63ZM24,54V52h2a5,5,0,0,0,5-5V41.3l3,.93V49a1.033,1.033,0,0,0,.29.71A6.609,6.609,0,0,1,36,54Zm18,6H36.03a2.673,2.673,0,0,1,.44-1.23,7.373,7.373,0,0,0,.45-.77H42Zm0-4H37.71A8.261,8.261,0,0,0,38,54a8.824,8.824,0,0,0-2-5.39V42.86l1.09.34A6.964,6.964,0,0,1,42,49.88Z"></path><circle cx="19" cy="22" r="2"></circle><circle cx="27" cy="22" r="2"></circle><path d="M19.468,28.542a5.007,5.007,0,0,0,7.064,0l-1.4-1.424a3.082,3.082,0,0,1-4.256,0Z"></path></g></svg>