<svg xmlns="http://www.w3.org/2000/svg" viewBox="0 0 64 64" x="0px" y="0px"><g><path d="M17,42.08V48h5.92A7,7,0,0,0,17,42.08Z"></path><path d="M22.92,4H17V9.92A7,7,0,0,0,22.92,4Z"></path><path d="M57,42.08A7,7,0,0,0,51.08,48H57Z"></path><path d="M26.858,16H24v2.858A3.991,3.991,0,0,0,26.858,16Z"></path><path d="M24,27.142V30h2.858A3.991,3.991,0,0,0,24,27.142Z"></path><rect x="13" y="4" width="2" height="44"></rect><path d="M7,19.111a6.978,6.978,0,0,1,4-2.031V4.1A5.009,5.009,0,0,0,7,9Z"></path><rect x="24" y="35" width="9" height="1"></rect><path d="M57,50H12a5,5,0,0,0,0,10H57V58H13a3,3,0,0,1,0-6H57Z"></path><path d="M12,55a1,1,0,0,0,1,1H57V54H13A1,1,0,0,0,12,55Z"></path><path d="M7,36.111a6.978,6.978,0,0,1,4-2.031V19.1A5.009,5.009,0,0,0,7,24Z"></path><path d="M7,50.105a6.988,6.988,0,0,1,4-2.025V36.1A5.009,5.009,0,0,0,7,41Z"></path><circle cx="37" cy="23" r="3"></circle><path d="M50,18.858V16H47.142A3.991,3.991,0,0,0,50,18.858Z"></path><path d="M57,11.941A9.011,9.011,0,0,1,49.059,4H24.941A9.011,9.011,0,0,1,17,11.941V40.059A9.011,9.011,0,0,1,24.941,48H49.059A9.011,9.011,0,0,1,57,40.059ZM52,36a2,2,0,0,1-2,2H24a2,2,0,0,1-2-2V16a2,2,0,0,1,2-2H50a2,2,0,0,1,2,2Z"></path><path d="M45.09,16H28.91A6.008,6.008,0,0,1,24,20.91v4.18A6.008,6.008,0,0,1,28.91,30H45.09A6.008,6.008,0,0,1,50,25.09V20.91A6.008,6.008,0,0,1,45.09,16ZM37,28a5,5,0,1,1,5-5A5.006,5.006,0,0,1,37,28Z"></path><path d="M57,4H51.08A7,7,0,0,0,57,9.92Z"></path><rect x="41" y="35" width="9" height="1"></rect><rect x="41" y="32" width="9" height="1"></rect><rect x="35" y="32" width="4" height="4"></rect><path d="M47.141,30H50V27.127A4,4,0,0,0,47.141,30Z"></path><rect x="24" y="32" width="9" height="1"></rect></g></svg>