<svg xmlns="http://www.w3.org/2000/svg" viewBox="0 0 64 64" x="0px" y="0px"><g data-name="Drinking"><path d="M47,20H45.949A14.013,14.013,0,0,0,35,7.332V3a1,1,0,0,0-1-1H30a1,1,0,0,0-1,1V7.332A14.013,14.013,0,0,0,18.051,20H17a1,1,0,0,0-1,1v4a1,1,0,0,0,1,1h1.08L21,61.083A1,1,0,0,0,22,62H42a1,1,0,0,0,1-.917L45.92,26H47a1,1,0,0,0,1-1V21A1,1,0,0,0,47,20Zm-3.051,0H35V9.4A12.009,12.009,0,0,1,43.949,20ZM31,20V9.051c.331-.028.662-.051,1-.051s.669.023,1,.051V20ZM31,4h2V7.051C32.668,7.027,32.338,7,32,7s-.668.027-1,.051ZM29,9.4V20H20.051A12.009,12.009,0,0,1,29,9.4Zm2.768,23.632c-.255.061-.509.121-.768.179V26h2v6.75C32.566,32.838,32.162,32.933,31.768,33.027ZM29,33.534a23.057,23.057,0,0,1-2.34.106,18.6,18.6,0,0,1-5.1-.612c-.3-.071-.6-.141-.9-.209L20.086,26H29ZM41.08,60H22.92L20.829,34.911l.264.062a20.561,20.561,0,0,0,5.567.667,20.625,20.625,0,0,0,5.574-.668,18.611,18.611,0,0,1,5.1-.612,18.67,18.67,0,0,1,5.11.613c.235.057.471.113.712.167Zm2.24-26.875c-.138-.032-.277-.064-.413-.1a20.633,20.633,0,0,0-5.577-.668c-.912,0-1.666.039-2.33.1V26h8.914ZM46,24H18V22H46Z"></path><rect x="37" y="41" width="2" height="2"></rect><rect x="31" y="39" width="2" height="2"></rect><rect x="33" y="46" width="2" height="2"></rect><rect x="30" y="50" width="2" height="2"></rect><rect x="39" y="46" width="2" height="2"></rect><rect x="37" y="52" width="2" height="2"></rect><rect x="25" y="47" width="2" height="2"></rect><rect x="24" y="54" width="2" height="2"></rect><rect x="23" y="40" width="2" height="2"></rect></g></svg>