<svg xmlns="http://www.w3.org/2000/svg" viewBox="0 0 64 64" x="0px" y="0px"><g><path d="M45,30a3.009,3.009,0,0,0,3-3V22H22v5a3.009,3.009,0,0,0,3,3Z"></path><path d="M49,42H37V60H49Zm-7,8h2a3,3,0,0,1,0,6v1H42V56a3,3,0,0,1-3-3h2a1,1,0,0,0,1,1h2a1,1,0,0,0,0-2H42a3,3,0,0,1,0-6V45h2v1a3,3,0,0,1,3,3H45a1,1,0,0,0-1-1H42a1,1,0,0,0,0,2Z"></path><path d="M52,15a1,1,0,0,0-1-1H5a1,1,0,0,0-1,1v5H52Z"></path><path d="M48,30.97A4.924,4.924,0,0,1,45,32H25a4.924,4.924,0,0,1-3-1.03V49a3.01,3.01,0,0,0,2,2.82V42a2.006,2.006,0,0,1,2-2H48Z"></path><rect x="26" y="42" width="9" height="2"></rect><rect x="26" y="54" width="9" height="2"></rect><path d="M21.03,52A4.924,4.924,0,0,1,20,49V22H4V51a1,1,0,0,0,1,1H6V35a3.009,3.009,0,0,1,3-3h6a3.009,3.009,0,0,1,3,3V52ZM16,28v2H14V28H6V26H18v2Z"></path><rect x="26" y="58" width="9" height="2"></rect><rect x="26" y="50" width="9" height="2"></rect><rect x="26" y="46" width="9" height="2"></rect><path d="M9,34a1,1,0,0,0-1,1V52h8V35a1,1,0,0,0-1-1Z"></path><rect x="51" y="46" width="9" height="2"></rect><rect x="51" y="54" width="9" height="2"></rect><rect x="51" y="42" width="9" height="2"></rect><rect x="51" y="58" width="9" height="2"></rect><rect x="50" y="22" width="2" height="18"></rect><path d="M18,12h2V4.17A3.014,3.014,0,0,0,18,7Z"></path><rect x="22" y="4" width="12" height="2"></rect><rect x="51" y="50" width="9" height="2"></rect><path d="M36,4.17V12h2V7A3.014,3.014,0,0,0,36,4.17Z"></path></g></svg>