<svg xmlns="http://www.w3.org/2000/svg" viewBox="0 0 64 64" x="0px" y="0px"><g data-name="Bus Station"><path d="M15,32H49a1,1,0,0,0,1-1V16a2,2,0,0,0-2-2H16a2,2,0,0,0-2,2V31A1,1,0,0,0,15,32Zm5.142-2a3.981,3.981,0,0,1,7.716,0ZM16,16H48V30H29.91a5.993,5.993,0,0,0-11.82,0H16Z"></path><path d="M61,25H57a1,1,0,0,0-1,1v4H54V15a5.006,5.006,0,0,0-5-5H39V8a2,2,0,0,0-2-2H27a2,2,0,0,0-2,2v2H15a5.006,5.006,0,0,0-5,5V30H8V26a1,1,0,0,0-1-1H3a1,1,0,0,0-1,1v8a1,1,0,0,0,1,1H7a1,1,0,0,0,1-1V32h2V52a2,2,0,0,0,2,2h1v6a2,2,0,0,0,2,2h8a2,2,0,0,0,2-2V54H39v6a2,2,0,0,0,2,2h8a2,2,0,0,0,2-2V54h1a2,2,0,0,0,2-2V32h2v2a1,1,0,0,0,1,1h4a1,1,0,0,0,1-1V26A1,1,0,0,0,61,25ZM6,33H4V27H6ZM27,8H37v2H27ZM15,12H49a3,3,0,0,1,3,3V44H12V15A3,3,0,0,1,15,12ZM12,46H52v2H12ZM23,57c-.282,0-.6,0-1,0l.006,2,1,0v1H20V56H18v4H15v-.994h1v-2H15V54h8Zm26,0H48v2h1V60H46V56H44v4H41V59l1,0,.006-2c-.405,0-.721,0-1,0V54h8ZM12,52V50H52v2ZM60,33H58V27h2Z"></path><path d="M20,34a4,4,0,1,0,4,4A4,4,0,0,0,20,34Zm0,6a2,2,0,1,1,2-2A2,2,0,0,1,20,40Z"></path><path d="M44,34a4,4,0,1,0,4,4A4,4,0,0,0,44,34Zm0,6a2,2,0,1,1,2-2A2,2,0,0,1,44,40Z"></path><rect x="27" y="35" width="10" height="2"></rect><rect x="27" y="39" width="10" height="2"></rect></g></svg>