<svg xmlns="http://www.w3.org/2000/svg" viewBox="0 0 64 64" x="0px" y="0px"><g data-name="Food-Computer-Online Order-Restaurant-Order"><path d="M11.414,56H52.586l-4-4H15.414ZM46,53h2v2H46Zm-4,0h2v2H42ZM24,53H40v2H24Zm-4,0h2v2H20Zm-4,0h2v2H16Z"></path><rect x="10" y="58" width="44" height="2"></rect><path d="M19,50H17V48a1,1,0,0,0-1-1H10a3,3,0,0,1,0-6h6a1,1,0,0,0,1-1V38h2v2a3,3,0,0,1-3,3H10a1,1,0,0,0,0,2h6a3,3,0,0,1,3,3Z"></path><rect x="25" y="20" width="14" height="2"></rect><path d="M32,28A12,12,0,1,0,20,16,12.013,12.013,0,0,0,32,28ZM24,16a1,1,0,0,1-1-1V13a5.006,5.006,0,0,1,5-5h8a5.006,5.006,0,0,1,5,5v2a1,1,0,0,1-1,1H39v2h1a1,1,0,0,1,1,1v3a2,2,0,0,1-2,2H25a2,2,0,0,1-2-2V19a1,1,0,0,1,1-1h1V16Z"></path><path d="M39,13a3,3,0,0,0-2-2.816V12H35V10H33v2H31V10H29v2H27V10.184A3,3,0,0,0,25,13v1H39Z"></path><rect x="27" y="16" width="10" height="2"></rect><rect x="23" y="44" width="18" height="2"></rect><path d="M52,8H43.47A13.979,13.979,0,0,1,32,30H53V9A1,1,0,0,0,52,8Z"></path><path d="M18,16a13.884,13.884,0,0,1,2.53-8H12a1,1,0,0,0-1,1V30H32A14.015,14.015,0,0,1,18,16Z"></path><rect x="28" y="38" width="8" height="4"></rect><path d="M11,35a1,1,0,0,0,1,1H52a1,1,0,0,0,1-1V32H11Zm36-2h2v2H47Z"></path></g></svg>