<svg xmlns="http://www.w3.org/2000/svg" viewBox="0 0 64 64" x="0px" y="0px"><g><path d="M60,56H59v2H57V56H55v2H53V56H50.473a14.09,14.09,0,0,1-4.3,4H60Z"></path><path d="M8,8v8H42V8Zm14,5H20V11h2Zm4,0H24V11h2Zm4,0H28V11h2Z"></path><path d="M39,36A12,12,0,1,0,51,48,12.01,12.01,0,0,0,39,36ZM37,47h4a3.009,3.009,0,0,1,3,3v2a3.009,3.009,0,0,1-3,3H40v2H38V55H37a3.009,3.009,0,0,1-3-3h2a1,1,0,0,0,1,1h4a1,1,0,0,0,1-1V50a1,1,0,0,0-1-1H37a3.009,3.009,0,0,1-3-3V44a3.009,3.009,0,0,1,3-3h1V39h2v2h1a3.009,3.009,0,0,1,3,3H42a1,1,0,0,0-1-1H37a1,1,0,0,0-1,1v2A1,1,0,0,0,37,47Z"></path><path d="M43,4H7A3.009,3.009,0,0,0,4,7V20H46V7A3.009,3.009,0,0,0,43,4Zm1,12a2.006,2.006,0,0,1-2,2H8a2.006,2.006,0,0,1-2-2V8A2.006,2.006,0,0,1,8,6H42a2.006,2.006,0,0,1,2,2Z"></path><path d="M59,40H57V38H55v2H53V38H48.779a14.068,14.068,0,0,1,2.851,4H60V38H59Z"></path><path d="M52.41,44A13.917,13.917,0,0,1,53,48h7V44H59v2H57V44H55v2H53V44Z"></path><path d="M60,54V50H59v2H57V50H55v2H53V50h-.16a13.844,13.844,0,0,1-1.21,4Z"></path><path d="M8,42V54H18V42Zm8,7H10V47h6Z"></path><path d="M8,28V40H18V28Zm8,7H14v2H12V35H10V33h2V31h2v2h2Z"></path><path d="M4,22V57a3.009,3.009,0,0,0,3,3H31.83A13.979,13.979,0,0,1,46,35.9V22ZM27.83,35.41l-1.42,1.42L25,35.41l-1.41,1.42-1.42-1.42L23.59,34l-1.42-1.41,1.42-1.42L25,32.59l1.41-1.42,1.42,1.42L26.41,34ZM44,33H42V28H32v6H30V28H20V40h5v2H20V54h5v2H8a2.006,2.006,0,0,1-2-2V28a2.006,2.006,0,0,1,2-2H42a2.006,2.006,0,0,1,2,2Z"></path></g></svg>