<svg xmlns="http://www.w3.org/2000/svg" viewBox="0 0 64 64" x="0px" y="0px"><g><path d="M61.941,32.487h0A19.247,19.247,0,0,0,50,16.348V14a3,3,0,0,0-3-3H40V7a3,3,0,0,0-3-3H31V6h6a1,1,0,0,1,1,1v4H36v2h2v2.68a18.829,18.829,0,0,0-7.679,4.169A19.042,19.042,0,0,0,24,33.645l-6.484,8.106A2,2,0,0,0,19.081,45H22v6a5.006,5.006,0,0,0,5,5h5v5a1,1,0,0,0,1,1H55a1,1,0,0,0,1-1V47.851A18.887,18.887,0,0,0,61.941,32.487ZM40,13h7a1,1,0,0,1,1,1v1.68a18.179,18.179,0,0,0-2.862-.563A19.4,19.4,0,0,0,40,15.254ZM54.334,46.665A1,1,0,0,0,54,47.41V60H34V55a1,1,0,0,0-1-1H27a3,3,0,0,1-3-3V44a1,1,0,0,0-1-1H19.081l6.7-8.375A1,1,0,0,0,26,34,17.015,17.015,0,0,1,38,17.747V21h2V17.276a17.41,17.41,0,0,1,4.921-.171A16.237,16.237,0,0,1,48,17.757V25h2V18.536a17.2,17.2,0,0,1,9.947,14.1A16.911,16.911,0,0,1,54.334,46.665Z"></path><path d="M13,15H11a1,1,0,0,1-1-1H8a3,3,0,0,0,3,3v1h2V17a3,3,0,0,0,0-6H11a1,1,0,0,1,0-2h2a1,1,0,0,1,1,1h2a3,3,0,0,0-3-3V6H11V7a3,3,0,0,0,0,6h2a1,1,0,0,1,0,2Z"></path><path d="M12,22A10,10,0,1,0,2,12,10.011,10.011,0,0,0,12,22ZM12,4a8,8,0,1,1-8,8A8.009,8.009,0,0,1,12,4Z"></path><path d="M6,39a3,3,0,1,0,3,3A3,3,0,0,0,6,39Zm0,4a1,1,0,1,1,1-1A1,1,0,0,1,6,43Z"></path><rect x="5" y="31" width="2" height="6"></rect><path d="M18,34a3,3,0,1,0-3,3A3,3,0,0,0,18,34Zm-3,1a1,1,0,1,1,1-1A1,1,0,0,1,15,35Z"></path><rect x="14" y="27" width="2" height="2"></rect><rect x="14" y="23" width="2" height="2"></rect><rect x="5" y="27" width="2" height="2"></rect><rect x="5" y="23" width="2" height="2"></rect><path d="M26,8a3,3,0,1,0-3-3A3,3,0,0,0,26,8Zm0-4a1,1,0,1,1-1,1A1,1,0,0,1,26,4Z"></path><path d="M28,12a3,3,0,1,0,3-3A3,3,0,0,0,28,12Zm3-1a1,1,0,1,1-1,1A1,1,0,0,1,31,11Z"></path><rect x="38" y="23" width="2" height="2"></rect><rect x="38" y="27" width="2" height="2"></rect><rect x="48" y="27" width="2" height="2"></rect><rect x="48" y="31" width="2" height="2"></rect><path d="M34,30a4,4,0,0,0-4,4h2a2,2,0,0,1,4,0h2A4,4,0,0,0,34,30Z"></path></g></svg>