<svg xmlns="http://www.w3.org/2000/svg" viewBox="0 0 64 64" x="0px" y="0px"><g><path d="M52,44H12V39H10v8a5.006,5.006,0,0,0,5,5H25v4H24a1,1,0,0,0-1,1v3H19v2H45V60H41V57a1,1,0,0,0-1-1H39V52H49a5.006,5.006,0,0,0,5-5V39H52ZM25,60V58H39v2Zm12-4H27V52H37Zm12-6H15a3,3,0,0,1-3-3V46H52v1A3,3,0,0,1,49,50Z"></path><rect x="46" y="47" width="2" height="2"></rect><path d="M33,32V28h1a1,1,0,0,0,1-1V23a1,1,0,0,0-1-1H30a1,1,0,0,0-1,1v4a1,1,0,0,0,1,1h1v6h2Zm-2-8h2v2H31Z"></path><rect x="31" y="36" width="2" height="2"></rect><rect x="31" y="40" width="2" height="2"></rect><rect x="22" y="36" width="2" height="2"></rect><rect x="22" y="40" width="2" height="2"></rect><path d="M42,33a1,1,0,0,1,1-1h2a3,3,0,0,0,3-3V27.816a3,3,0,1,0-2,0V29a1,1,0,0,1-1,1H43a3,3,0,0,0-3,3v1h2Zm5-9a1,1,0,1,1-1,1A1,1,0,0,1,47,24Z"></path><path d="M24,33a3,3,0,0,0-3-3H19a1,1,0,0,1-1-1V27.816a3,3,0,1,0-2,0V29a3,3,0,0,0,3,3h2a1,1,0,0,1,1,1v1h2Zm-7-9a1,1,0,1,1-1,1A1,1,0,0,1,17,24Z"></path><rect x="40" y="36" width="2" height="2"></rect><rect x="40" y="40" width="2" height="2"></rect><path d="M61,33H57a1,1,0,0,0-1,1v1H49a1,1,0,0,0-1,1v6h2V37h6v1a1,1,0,0,0,1,1h4a1,1,0,0,0,1-1V34A1,1,0,0,0,61,33Zm-1,4H58V35h2Z"></path><path d="M14,42h2V36a1,1,0,0,0-1-1H8V34a1,1,0,0,0-1-1H3a1,1,0,0,0-1,1v4a1,1,0,0,0,1,1H7a1,1,0,0,0,1-1V37h6ZM6,37H4V35H6Z"></path><path d="M10,32v1h2V23a3,3,0,0,1,3-3H49a3,3,0,0,1,3,3V33h2V31.8a10,10,0,0,0-1.065-19.755A7.01,7.01,0,0,0,46,6a6.928,6.928,0,0,0-4.051,1.292,11.994,11.994,0,0,0-21.533,3.6A6.984,6.984,0,0,0,10.083,16H10a8,8,0,0,0,0,16Zm0-14a5.914,5.914,0,0,1,.861.07,1.033,1.033,0,0,0,.8-.274A1.086,1.086,0,0,0,12,17a4.993,4.993,0,0,1,8.412-3.646,1,1,0,0,0,1.675-.606A9.993,9.993,0,0,1,40.82,9.29a1,1,0,0,0,1.6.226A5,5,0,0,1,51,13a1,1,0,0,0,1,1,8,8,0,0,1,2,15.74V23a5.006,5.006,0,0,0-5-5H15a5.006,5.006,0,0,0-5,5v7a6,6,0,0,1,0-12Z"></path><rect x="47" y="12" width="2" height="2"></rect><rect x="43" y="12" width="2" height="2"></rect></g></svg>