<svg xmlns="http://www.w3.org/2000/svg" viewBox="0 0 64 64" x="0px" y="0px"><g><path d="M53,60H13a3,3,0,0,1-3-3V55H8v2a5.006,5.006,0,0,0,5,5H53a4.994,4.994,0,0,0,3.307-1.25l-1.323-1.5A3,3,0,0,1,53,60Z"></path><path d="M10,12H56v6h2V7a5.006,5.006,0,0,0-5-5H13A5.006,5.006,0,0,0,8,7V18h2Zm3-8H53a3,3,0,0,1,3,3v3H10V7A3,3,0,0,1,13,4Z"></path><rect x="14" y="6" width="2" height="2"></rect><rect x="18" y="6" width="2" height="2"></rect><rect x="22" y="6" width="2" height="2"></rect><path d="M22,51V46a1,1,0,0,0-.2-.6L19,41.667V37a2.989,2.989,0,0,0,1.429-5.621L21.9,28.447A1,1,0,0,0,22,28V24.816a3.007,3.007,0,1,0-2.957-.561l-1.922,1.5L15,24.217a3,3,0,1,0-3.99.015L8.974,25.75l-2-1.51A3,3,0,1,0,4,24.816V28a1,1,0,0,0,.105.447l1.466,2.932A2.989,2.989,0,0,0,7,37v4.667L4.2,45.4A1,1,0,0,0,4,46v5a2,2,0,0,0,2,2H20A2,2,0,0,0,22,51ZM21,21a1,1,0,1,1-1,1A1,1,0,0,1,21,21Zm-8,0a1,1,0,1,1-1,1A1,1,0,0,1,13,21ZM9.566,27.8l3.442-2.562,3.548,2.57a1,1,0,0,0,1.2-.021L20,26.045v1.719L18.382,31H7.618L6,27.764V26.01L8.366,27.8A1,1,0,0,0,9.566,27.8ZM5,21a1,1,0,1,1-1,1A1,1,0,0,1,5,21ZM6,34a1,1,0,0,1,1-1H19a1,1,0,0,1,0,2H7A1,1,0,0,1,6,34Zm2.8,8.6A1,1,0,0,0,9,42V37h8v5a1,1,0,0,0,.2.6L19,45H7ZM6,47H20v4H6Z"></path><path d="M61.707,26.293l-8-8A1,1,0,0,0,53,18H33a3,3,0,0,0-3,3V55a3,3,0,0,0,3,3H59a3,3,0,0,0,3-3V27A1,1,0,0,0,61.707,26.293ZM54,21.414,58.586,26H55a1,1,0,0,1-1-1ZM59,56H33a1,1,0,0,1-1-1V21a1,1,0,0,1,1-1H52v5a3,3,0,0,0,3,3h5V55A1,1,0,0,1,59,56Z"></path><polygon points="38.414 36.172 37 37.586 35.586 36.172 34.172 37.586 35.586 39 34.172 40.414 35.586 41.828 37 40.414 38.414 41.828 39.828 40.414 38.414 39 39.828 37.586 38.414 36.172"></polygon><polygon points="38.414 45.172 37 46.586 35.586 45.172 34.172 46.586 35.586 48 34.172 49.414 35.586 50.828 37 49.414 38.414 50.828 39.828 49.414 38.414 48 39.828 46.586 38.414 45.172"></polygon><path d="M55,36a3,3,0,1,0,3,3A3,3,0,0,0,55,36Zm0,4a1,1,0,1,1,1-1A1,1,0,0,1,55,40Z"></path><path d="M55,45a3,3,0,1,0,3,3A3,3,0,0,0,55,45Zm0,4a1,1,0,1,1,1-1A1,1,0,0,1,55,49Z"></path><path d="M46.707,35.293l-1.414,1.414L46.586,38H41v2h5.586l-1.293,1.293,1.414,1.414,3-3a1,1,0,0,0,0-1.414Z"></path><path d="M46.707,44.293l-1.414,1.414L46.586,47H41v2h5.586l-1.293,1.293,1.414,1.414,3-3a1,1,0,0,0,0-1.414Z"></path><path d="M39,31H37a1,1,0,0,1-1-1H34a3,3,0,0,0,3,3v1h2V33a3,3,0,0,0,0-6H37a1,1,0,0,1,0-2h2a1,1,0,0,1,1,1h2a3,3,0,0,0-3-3V22H37v1a3,3,0,0,0,0,6h2a1,1,0,0,1,0,2Z"></path><rect x="44" y="31" width="6" height="2"></rect><rect x="44" y="27" width="6" height="2"></rect></g></svg>