<svg xmlns="http://www.w3.org/2000/svg" viewBox="0 0 64 64" x="0px" y="0px"><g data-name="Presentaion report business"><path d="M32,39a10.929,10.929,0,0,0,6.479-2.13l-1.427-1.427A8.991,8.991,0,0,1,23.059,29H21.051A11.01,11.01,0,0,0,32,39Z"></path><rect x="4" y="46" width="56" height="2"></rect><path d="M38.569,34.132l1.414,1.414A10.954,10.954,0,0,0,42.949,29H40.941A8.961,8.961,0,0,1,38.569,34.132Z"></path><path d="M31,19.059V17.051A11.01,11.01,0,0,0,21.051,27h2.008A9.012,9.012,0,0,1,31,19.059Z"></path><path d="M40.941,27h2.008A11.01,11.01,0,0,0,33,17.051v2.008A9.012,9.012,0,0,1,40.941,27Z"></path><rect x="4" y="8" width="56" height="2"></rect><rect x="23" y="58" width="18" height="2"></rect><rect x="30" y="50" width="4" height="6"></rect><circle cx="32" cy="28" r="7"></circle><path d="M6,44H58V12H6Zm12-4H14V38h4ZM55,24H51V22h4Zm-8-6h8v2H47Zm0,4h2v2H47Zm0,4h8v2H47Zm0,4h8v2H47ZM32,15A13,13,0,1,1,19,28,13.015,13.015,0,0,1,32,15ZM8,14h8v6H8Zm8,8v2H12V22ZM8,22h2v2H8Zm0,8h8v2H8Zm0,4H18v2H8Zm0,4h4v2H8Z"></path><rect x="30" y="4" width="4" height="2"></rect><rect x="10" y="16" width="4" height="2"></rect></g></svg>