<svg xmlns="http://www.w3.org/2000/svg" viewBox="0 0 64 64" x="0px" y="0px"><title>Browser_19</title><g data-name="Browser"><path d="M2,2V62H62V2ZM60,4v6H4V4ZM4,60V12H60V60Z"></path><rect x="6" y="6" width="2" height="2"></rect><rect x="10" y="6" width="2" height="2"></rect><rect x="14" y="6" width="2" height="2"></rect><rect x="56" y="6" width="2" height="2"></rect><path d="M18,36A10,10,0,1,0,8,26,10.011,10.011,0,0,0,18,36Zm0-18a8,8,0,1,1-8,8A8.009,8.009,0,0,1,18,18Z"></path><path d="M34,56H56V38H34Zm2-16H54V54H36Z"></path><rect x="34" y="16" width="2" height="2"></rect><rect x="38" y="16" width="18" height="2"></rect><rect x="34" y="20" width="22" height="2"></rect><rect x="34" y="24" width="22" height="2"></rect><rect x="34" y="28" width="22" height="2"></rect><rect x="34" y="32" width="22" height="2"></rect><rect x="8" y="38" width="2" height="2"></rect><rect x="12" y="38" width="18" height="2"></rect><rect x="8" y="42" width="22" height="2"></rect><rect x="8" y="46" width="22" height="2"></rect><rect x="8" y="50" width="22" height="2"></rect><rect x="8" y="54" width="22" height="2"></rect></g></svg>