<svg xmlns="http://www.w3.org/2000/svg" viewBox="0 0 64 64" x="0px" y="0px"><g data-name="Mobile Synchronize"><path d="M50.53,16.27a.994.994,0,0,1-.77-.79A13.985,13.985,0,0,0,23.61,11.5a.99.99,0,0,1-.95.53l-.2-.01c-.15-.01-.3-.02-.46-.02a11.007,11.007,0,0,0-10.89,9.56.987.987,0,0,1-.71.82,9.057,9.057,0,0,0-6.36,9.48A9.226,9.226,0,0,0,13.3,40H19V29h2V58a1,1,0,0,0,1,1H42a1,1,0,0,0,1-1V53H25V51H43V29h2V40h2.64a12.272,12.272,0,0,0,12.3-10.83A12.015,12.015,0,0,0,50.53,16.27ZM31,55h2v2H31ZM29,42H27V40h2Zm0-5H27V26a1,1,0,0,1,1-1h.59L26,22.41,23.41,25H24a1,1,0,0,1,1,1V37H23V27H21a.987.987,0,0,1-.92-.62,1,1,0,0,1,.21-1.09l5-5a1.008,1.008,0,0,1,1.42,0l5,5a1,1,0,0,1,.21,1.09A.987.987,0,0,1,31,27H29Zm4,5H31V40h2Zm4,0H35V40h2Zm4.71-10.29-5,5a1.014,1.014,0,0,1-1.42,0l-5-5a1,1,0,0,1-.21-1.09A.987.987,0,0,1,31,30h2V20h2V31a1,1,0,0,1-1,1h-.59L36,34.59,38.59,32H38a1,1,0,0,1-1-1V20h2V30h2a.987.987,0,0,1,.92.62A1,1,0,0,1,41.71,31.71Z"></path></g></svg>