<svg xmlns="http://www.w3.org/2000/svg" viewBox="0 0 64 64" x="0px" y="0px"><g><path d="M50,43a7,7,0,1,0,7,7A7.008,7.008,0,0,0,50,43Zm0,6a2.993,2.993,0,0,1,1,5.816V56H49V54.816A3,3,0,0,1,47,52h2a1,1,0,1,0,1-1,2.993,2.993,0,0,1-1-5.816V44h2v1.184A3,3,0,0,1,53,48H51a1,1,0,1,0-1,1Z"></path><rect x="30" y="35" width="4" height="1"></rect><rect x="30" y="32" width="4" height="1"></rect><rect x="24" y="35" width="4" height="1"></rect><path d="M50,40A10,10,0,1,0,60,50,10.011,10.011,0,0,0,50,40Zm0,19a9,9,0,1,1,9-9A9.011,9.011,0,0,1,50,59Z"></path><rect x="15" y="44" width="4" height="4"></rect><rect x="24" y="32" width="4" height="1"></rect><path d="M46,38.7V28H12V49.543a4.014,4.014,0,0,1,1.461,1.475A6.007,6.007,0,0,1,18.911,56H22V41a1,1,0,0,1,1-1H35a1,1,0,0,1,1,1V56h3.624A11.957,11.957,0,0,1,46,38.7ZM21,49a1,1,0,0,1-1,1H14a1,1,0,0,1-1-1V43a1,1,0,0,1,1-1h6a1,1,0,0,1,1,1ZM36,36a2,2,0,0,1-2,2H24a2,2,0,0,1-2-2V32a2,2,0,0,1,2-2H34a2,2,0,0,1,2,2Z"></path><rect x="38" y="4" width="10.001" height="2"></rect><polygon points="46 18.586 46 8 40 8 40 12.586 46 18.586"></polygon><path d="M28.293,11.121,13.414,26H44.586L29.707,11.121A1,1,0,0,0,28.293,11.121Z"></path><path d="M13,53a.513.513,0,0,1-.138.017,1,1,0,0,1-.985-.67A1.992,1.992,0,0,0,8,53a1.972,1.972,0,0,0,.214.875,1,1,0,0,1-1.339,1.339A1.991,1.991,0,0,0,4.269,56h12.6A4.009,4.009,0,0,0,13,53Z"></path><path d="M34,56V42H24V56Zm-9-7h1V47H25V45h2a1,1,0,0,1,1,1v4a1,1,0,0,1-1,1H25Z"></path><path d="M5.207,29.793a1.123,1.123,0,0,0,1.586,0L26.879,9.707a3,3,0,0,1,4.242,0L51.207,29.793a1.121,1.121,0,0,0,1.586-1.586L29.707,5.121a1,1,0,0,0-1.414,0L5.207,28.207A1.123,1.123,0,0,0,5.207,29.793Z"></path></g></svg>