<svg xmlns="http://www.w3.org/2000/svg" data-name="Phone-customer service-money-call-phone call" viewBox="0 0 64 64" x="0px" y="0px"><path d="M45.155,54.075a.964.964,0,0,0,.339-.7,1.024,1.024,0,0,0-.3-.763l-8.99-8.99a1,1,0,0,0-1.414,0L32.414,46l10.04,10.04A24.786,24.786,0,0,0,45.155,54.075Z"></path><path d="M29.509,48.905a6.984,6.984,0,0,1-8.016,1.352,17.115,17.115,0,0,1-7.75-7.75A6.982,6.982,0,0,1,15.1,34.491L16.586,33,6.91,23.324A24.976,24.976,0,0,0,40.676,57.09L31,47.414Z"></path><path d="M7.96,21.546,18,31.586l2.379-2.379a1,1,0,0,0,0-1.414l-8.99-8.99a1.022,1.022,0,0,0-.721-.3h-.042a.964.964,0,0,0-.7.339A24.786,24.786,0,0,0,7.96,21.546Z"></path><path d="M59.788,20.431a14,14,0,1,0-24,7.121,1,1,0,0,1,.254.856l-.708,4.016,3.774-1.8a.994.994,0,0,1,.862,0,13.959,13.959,0,0,0,19.819-10.19ZM40,19H38V17h2Zm5-2h2a3,3,0,0,1,0,6v1H45V23a3,3,0,0,1-3-3h2a1,1,0,0,0,1,1h2a1,1,0,0,0,0-2H45a3,3,0,0,1,0-6V12h2v1a3,3,0,0,1,3,3H48a1,1,0,0,0-1-1H45a1,1,0,0,0,0,2Zm9,2H52V17h2Z"></path></svg>