<svg xmlns="http://www.w3.org/2000/svg" viewBox="0 0 64 64" x="0px" y="0px"><g><path d="M20,34.57V39h6V34.57a10.68,10.68,0,0,1-6,0Z"></path><path d="M12,19a2.006,2.006,0,0,0-2,2,2.015,2.015,0,0,0,2,2Z"></path><path d="M17,24h2a3.009,3.009,0,0,0,3-3V18H14v3A3.009,3.009,0,0,0,17,24Zm1-5a2,2,0,1,1-2,2A2,2,0,0,1,18,19Z"></path><polygon points="18 39 18 35 12.39 35 13.72 39 18 39"></polygon><path d="M14.2,12H31.8c-.02-.08-.05-.17-.07-.25L30.34,4.8a1,1,0,0,0-.98-.8H27.43a1.046,1.046,0,0,0-.39.08A10.948,10.948,0,0,1,23,5a10.948,10.948,0,0,1-4.04-.92A1.046,1.046,0,0,0,18.57,4H16.64a1,1,0,0,0-.98.8l-1.39,6.95C14.25,11.83,14.22,11.92,14.2,12Z"></path><path d="M31.94,25.03A5,5,0,0,1,29,26H27a4.994,4.994,0,0,1-4-2.03A4.994,4.994,0,0,1,19,26H17a5,5,0,0,1-2.94-.97,9,9,0,0,0,17.88,0ZM23,30a4.994,4.994,0,0,1-3.307-1.25l1.323-1.5a3.076,3.076,0,0,0,3.968,0l1.323,1.5A4.994,4.994,0,0,1,23,30Z"></path><path d="M11.63,14.14l-7.11.71A.576.576,0,0,0,4.57,16H41.43a.576.576,0,0,0,.05-1.15l-7.11-.71a2.622,2.622,0,0,1-.63-.14H12.26A2.622,2.622,0,0,1,11.63,14.14Z"></path><path d="M34,19v4a2.015,2.015,0,0,0,2-2A2.006,2.006,0,0,0,34,19Z"></path><path d="M12.21,40.61,7.24,42.48A5.023,5.023,0,0,0,4,47.16V60H29V41H13A1,1,0,0,1,12.21,40.61ZM25,43h2v2H25Zm0,4h2v2H25Zm0,4h2v2H25Zm0,4h2v2H25Z"></path><polygon points="33.61 35 28 35 28 39 32.28 39 33.61 35"></polygon><path d="M42,47.16a5.023,5.023,0,0,0-3.24-4.68l-4.97-1.87A1,1,0,0,1,33,41H31V60H42Z"></path><path d="M24,21a3.009,3.009,0,0,0,3,3h2a3.009,3.009,0,0,0,3-3V18H24Zm4-2a2,2,0,1,1-2,2A2,2,0,0,1,28,19Z"></path><circle cx="51" cy="34" r="5"></circle><path d="M53,49H49v9a2,2,0,0,0,4,0Z"></path><path d="M49,44.809V47h4V44.809a10.567,10.567,0,0,1-4,0Z"></path><path d="M60,34a9,9,0,1,0-9,9A9.01,9.01,0,0,0,60,34Zm-9,7a7,7,0,1,1,7-7A7.008,7.008,0,0,1,51,41Z"></path></g></svg>