<svg xmlns="http://www.w3.org/2000/svg" viewBox="0 0 64 64" x="0px" y="0px"><g><path d="M45,60H9a3,3,0,0,1-3-3V7A3,3,0,0,1,9,4H40V9a3,3,0,0,0,3,3h5v8h2V11a1,1,0,0,0-.293-.707l-8-8A1,1,0,0,0,41,2H9A5.006,5.006,0,0,0,4,7V57a5.006,5.006,0,0,0,5,5H45a4.994,4.994,0,0,0,3.307-1.25l-1.323-1.5A3,3,0,0,1,45,60ZM42,9V5.414L46.586,10H43A1,1,0,0,1,42,9Z"></path><path d="M57,46H55a.967.967,0,0,0-.17-.55l-1.33-2a2.97,2.97,0,0,1-.5-1.66v-2.8a7.178,7.178,0,0,1,1.46-4.27A8,8,0,1,0,40,30a7.884,7.884,0,0,0,1.65,4.86A6.784,6.784,0,0,1,43,38.98v2.81a2.97,2.97,0,0,1-.5,1.66l-1.33,2A.967.967,0,0,0,41,46H39a3.009,3.009,0,0,0-3,3v4a1,1,0,0,0,1,1h1v3a1,1,0,0,0,1,1H57a1,1,0,0,0,1-1V54h1a1,1,0,0,0,1-1V49A3.009,3.009,0,0,0,57,46ZM42,30a6,6,0,1,1,10.85,3.53A9.216,9.216,0,0,0,51,38.99v2.8a4.959,4.959,0,0,0,.84,2.77L52.8,46H43.2l.96-1.44A4.959,4.959,0,0,0,45,41.79V38.98a8.79,8.79,0,0,0-1.76-5.33A5.962,5.962,0,0,1,42,30ZM56,56H40V54H56Zm2-4H38V49a1,1,0,0,1,1-1H57a1,1,0,0,1,1,1Z"></path><path d="M20,56A10,10,0,1,0,10,46,10.011,10.011,0,0,0,20,56Zm0-18a8,8,0,1,1-8,8A8.009,8.009,0,0,1,20,38Z"></path><path d="M19,50a1,1,0,0,0,.707-.293l6-6-1.414-1.414L19,47.586l-2.293-2.293-1.414,1.414,3,3A1,1,0,0,0,19,50Z"></path><path d="M28,17H26a1,1,0,0,1-1-1H23a3,3,0,0,0,3,3v1h2V19a3,3,0,0,0,0-6H26a1,1,0,0,1,0-2h2a1,1,0,0,1,1,1h2a3,3,0,0,0-3-3V8H26V9a3,3,0,0,0,0,6h2a1,1,0,0,1,0,2Z"></path><rect x="33" y="13" width="2" height="2"></rect><rect x="19" y="13" width="2" height="2"></rect><rect x="10" y="22" width="4" height="2"></rect><rect x="16" y="22" width="24" height="2"></rect><rect x="10" y="26" width="28" height="2"></rect><rect x="10" y="30" width="28" height="2"></rect><rect x="10" y="34" width="4" height="2"></rect><rect x="26" y="34" width="12" height="2"></rect><rect x="31" y="38" width="8" height="2"></rect></g></svg>