<svg xmlns="http://www.w3.org/2000/svg" viewBox="0 0 64 64" x="0px" y="0px"><g><path d="M32,52a3,3,0,1,0,3,3A3,3,0,0,0,32,52Zm0,4a1,1,0,1,1,1-1A1,1,0,0,1,32,56Z"></path><path d="M61.142,41.01l-2.682-.383a10.86,10.86,0,0,0-.679-1.639l1.625-2.166a1,1,0,0,0-.093-1.307l-2.828-2.828a1,1,0,0,0-1.306-.093l-2.167,1.624a10.9,10.9,0,0,0-1.639-.678l-.383-2.682A1,1,0,0,0,50,30V25.243l1.143.686a1,1,0,0,0,1.221-.151l1.414-1.414a1,1,0,0,0,.151-1.222l-.853-1.421a7.884,7.884,0,0,0,.56-1.349l1.606-.4A1,1,0,0,0,56,19V17a1,1,0,0,0-.758-.97l-1.606-.4a7.884,7.884,0,0,0-.56-1.349l.853-1.421a1,1,0,0,0-.151-1.222l-1.414-1.414a1,1,0,0,0-1.221-.151L50,10.757V7a5.006,5.006,0,0,0-5-5H19a5.006,5.006,0,0,0-5,5V8a1,1,0,0,0-.99.858l-.383,2.682a10.855,10.855,0,0,0-1.639.678L8.821,10.594a1,1,0,0,0-1.306.093L4.687,13.515a1,1,0,0,0-.093,1.307l1.625,2.166a10.86,10.86,0,0,0-.679,1.639l-2.682.383A1,1,0,0,0,2,20v4a1,1,0,0,0,.858.99l2.682.383a10.86,10.86,0,0,0,.679,1.639L4.594,29.178a1,1,0,0,0,.093,1.307l2.828,2.828a1,1,0,0,0,1.306.093l2.167-1.624a10.855,10.855,0,0,0,1.639.678l.383,2.682A1,1,0,0,0,14,36V57a5.006,5.006,0,0,0,5,5H45a5.009,5.009,0,0,0,4.9-4H50a1,1,0,0,0,.99-.858l.383-2.682a10.9,10.9,0,0,0,1.639-.678l2.167,1.624a1,1,0,0,0,1.306-.093l2.828-2.828a1,1,0,0,0,.093-1.307l-1.625-2.166a10.86,10.86,0,0,0,.679-1.639l2.682-.383A1,1,0,0,0,62,46V42A1,1,0,0,0,61.142,41.01ZM51.5,12.188l.31.31-.753,1.256A1,1,0,0,0,51.07,14.8a5.967,5.967,0,0,1,.778,1.873,1,1,0,0,0,.733.75L54,17.781v.438l-1.419.355a1,1,0,0,0-.733.75A5.967,5.967,0,0,1,51.07,21.2a1,1,0,0,0-.011,1.049l.753,1.256-.31.31-1.256-.754a1,1,0,0,0-1.049.012,5.948,5.948,0,0,1-1.873.778,1,1,0,0,0-.75.733L46.219,26h-.438l-.355-1.419a1,1,0,0,0-.75-.733A5.948,5.948,0,0,1,42.8,23.07a1,1,0,0,0-1.049-.012l-1.256.754-.311-.31.754-1.256A1,1,0,0,0,40.93,21.2a5.967,5.967,0,0,1-.778-1.873,1,1,0,0,0-.733-.75L38,18.219v-.438l1.419-.355a1,1,0,0,0,.733-.75A5.967,5.967,0,0,1,40.93,14.8a1,1,0,0,0,.011-1.049L40.187,12.5l.311-.31,1.257.754a1,1,0,0,0,1.05-.012,5.918,5.918,0,0,1,1.871-.778,1,1,0,0,0,.75-.733L45.781,10h.438l.355,1.419a1,1,0,0,0,.75.733,5.918,5.918,0,0,1,1.871.778,1,1,0,0,0,1.05.012ZM26,4H38V6H26ZM45,60H19a3,3,0,0,1-3-3V36h2a1,1,0,0,0,.99-.858l.383-2.682a10.924,10.924,0,0,0,2.232-1.006l-1.021-1.72a8.859,8.859,0,0,1-2.356.975,1,1,0,0,0-.744.828L17.133,34H14.867l-.351-2.463a1,1,0,0,0-.744-.828,8.859,8.859,0,0,1-2.356-.975,1,1,0,0,0-1.11.06L8.315,31.286l-1.6-1.6L8.206,27.7a1,1,0,0,0,.061-1.111,8.923,8.923,0,0,1-.977-2.357,1,1,0,0,0-.827-.742L4,23.133V20.867l2.463-.352a1,1,0,0,0,.827-.742,8.923,8.923,0,0,1,.977-2.357,1,1,0,0,0-.061-1.111l-1.492-1.99,1.6-1.6,1.991,1.492a1,1,0,0,0,1.11.06,8.859,8.859,0,0,1,2.356-.975,1,1,0,0,0,.744-.828L14.867,10h2.266l.351,2.463a1,1,0,0,0,.744.828,8.767,8.767,0,0,1,1.339.457l.795-1.836c-.322-.14-.653-.264-.989-.372L18.99,8.858A1,1,0,0,0,18,8H16V7a3,3,0,0,1,3-3h5V6a2,2,0,0,0,2,2H38a2,2,0,0,0,2-2V4h5a3,3,0,0,1,3,3V8.879l-.03-.121A1,1,0,0,0,47,8H45a1,1,0,0,0-.97.758l-.4,1.606a7.908,7.908,0,0,0-1.35.56l-1.422-.853a1,1,0,0,0-1.221.151l-1.414,1.414a1,1,0,0,0-.151,1.222l.853,1.421a7.884,7.884,0,0,0-.56,1.349l-1.606.4A1,1,0,0,0,36,17v2a1,1,0,0,0,.758.97l1.606.4a7.884,7.884,0,0,0,.56,1.349l-.853,1.421a1,1,0,0,0,.151,1.222l1.414,1.414a1,1,0,0,0,1.221.151l1.421-.853a7.951,7.951,0,0,0,1.351.56l.4,1.606A1,1,0,0,0,45,28h2a1,1,0,0,0,.97-.758l.03-.121V30H46a1,1,0,0,0-.99.858l-.383,2.682a10.855,10.855,0,0,0-1.639.678l-2.167-1.624a1,1,0,0,0-1.306.093l-2.828,2.828a1,1,0,0,0-.093,1.307l1.625,2.166a10.86,10.86,0,0,0-.679,1.639l-2.682.383A1,1,0,0,0,34,42v4a1,1,0,0,0,.858.99l2.682.383a10.86,10.86,0,0,0,.679,1.639l-1.625,2.166a1,1,0,0,0,.093,1.307l2.828,2.828a1,1,0,0,0,1.306.093l2.167-1.624a10.855,10.855,0,0,0,1.639.678l.383,2.682A1,1,0,0,0,46,58h1.816A3,3,0,0,1,45,60ZM60,45.133l-2.463.352a1,1,0,0,0-.827.742,8.923,8.923,0,0,1-.977,2.357,1,1,0,0,0,.061,1.111l1.492,1.99-1.6,1.6-1.991-1.492a1,1,0,0,0-1.11-.06,8.859,8.859,0,0,1-2.356.975,1,1,0,0,0-.744.828L49.133,56H46.867l-.351-2.463a1,1,0,0,0-.744-.828,8.859,8.859,0,0,1-2.356-.975,1,1,0,0,0-1.11.06l-1.991,1.492-1.6-1.6,1.492-1.99a1,1,0,0,0,.061-1.111,8.923,8.923,0,0,1-.977-2.357,1,1,0,0,0-.827-.742L36,45.133V42.867l2.463-.352a1,1,0,0,0,.827-.742,8.923,8.923,0,0,1,.977-2.357,1,1,0,0,0-.061-1.111l-1.492-1.99,1.6-1.6,1.991,1.492a1,1,0,0,0,1.11.06,8.859,8.859,0,0,1,2.356-.975,1,1,0,0,0,.744-.828L46.867,32h2.266l.351,2.463a1,1,0,0,0,.744.828,8.859,8.859,0,0,1,2.356.975,1,1,0,0,0,1.11-.06l1.991-1.492,1.6,1.6-1.492,1.99a1,1,0,0,0-.061,1.111,8.923,8.923,0,0,1,.977,2.357,1,1,0,0,0,.827.742L60,42.867Z"></path><path d="M48,38a6,6,0,1,0,6,6A6.006,6.006,0,0,0,48,38Zm0,10a4,4,0,1,1,4-4A4,4,0,0,1,48,48Z"></path><rect x="47" y="34" width="2" height="2"></rect><rect x="40.636" y="36.636" width="2" height="2" transform="translate(-14.418 40.455) rotate(-44.99)"></rect><rect x="38" y="43" width="2" height="2"></rect><rect x="40.636" y="49.364" width="2" height="2" transform="translate(-23.418 44.192) rotate(-45)"></rect><rect x="47" y="52" width="2" height="2"></rect><rect x="53.364" y="49.364" width="2" height="2" transform="translate(-19.69 53.18) rotate(-44.99)"></rect><rect x="56" y="43" width="2" height="2"></rect><rect x="53.364" y="36.636" width="2" height="2" transform="translate(-10.688 49.476) rotate(-45.01)"></rect><path d="M16,26a4,4,0,0,1,0-8,3.959,3.959,0,0,1,2.4.8l1.2-1.6a6,6,0,1,0,1.932,7.14l-1.841-.779A4,4,0,0,1,16,26Z"></path><rect x="15" y="12" width="2" height="2"></rect><rect x="8.636" y="14.636" width="2" height="2" transform="translate(-8.233 11.39) rotate(-44.99)"></rect><rect x="6" y="21" width="2" height="2"></rect><rect x="8.636" y="27.364" width="2" height="2" transform="translate(-17.234 15.121) rotate(-45)"></rect><rect x="15" y="30" width="2" height="2"></rect><path d="M32,47a5.932,5.932,0,0,0-2-4.448v-21.1A5.927,5.927,0,0,0,32,17a6.03,6.03,0,0,0-3.595-5.5A1,1,0,0,0,27,12.41v2.972l-1,.5-1-.5V12.41A1,1,0,0,0,23.6,11.5,6.03,6.03,0,0,0,20,17a5.927,5.927,0,0,0,2,4.451v21.1A5.932,5.932,0,0,0,20,47,6.03,6.03,0,0,0,23.6,52.5,1,1,0,0,0,25,51.59V48.618l1-.5,1,.5V51.59a1,1,0,0,0,1.405.914A6.03,6.03,0,0,0,32,47Zm-3,2.644V48a1,1,0,0,0-.553-.9l-2-1a1,1,0,0,0-.894,0l-2,1A1,1,0,0,0,23,48v1.644A4.008,4.008,0,0,1,22,47a3.963,3.963,0,0,1,1.6-3.179,1,1,0,0,0,.4-.8V21.236a1,1,0,0,0-.375-1.038A3.964,3.964,0,0,1,22,17a4.008,4.008,0,0,1,1-2.644V16a1,1,0,0,0,.553.895l2,1a1,1,0,0,0,.894,0l2-1A1,1,0,0,0,29,16V14.356A4.008,4.008,0,0,1,30,17a3.964,3.964,0,0,1-1.625,3.2.984.984,0,0,0-.375.973V43.023a1,1,0,0,0,.4.8A3.963,3.963,0,0,1,30,47,4.008,4.008,0,0,1,29,49.644Z"></path><path d="M46,14a4,4,0,1,0,4,4A4,4,0,0,0,46,14Zm0,6a2,2,0,1,1,2-2A2,2,0,0,1,46,20Z"></path></g></svg>