<svg xmlns="http://www.w3.org/2000/svg" viewBox="0 0 64 64" x="0px" y="0px"><g data-name="Business Tool"><polygon points="38 52 40 52 40 41 42 41 42 52 44.002 52 44 38 38 38 38 52"></polygon><polygon points="42 25.123 41.219 22 40.781 22 40 25.123 40 26 42 26 42 25.123"></polygon><path d="M49,10H45v2h2a3,3,0,0,1,3,3V55a3,3,0,0,1-3,3H17a3,3,0,0,1-3-3V15a3,3,0,0,1,3-3h2V10H15a3,3,0,0,0-3,3V57a3,3,0,0,0,3,3H49a3,3,0,0,0,3-3V13A3,3,0,0,0,49,10Z"></path><path d="M22,14H42a1,1,0,0,0,1-1V8H21v5A1,1,0,0,0,22,14Z"></path><path d="M16,31.1v9.8a5,5,0,0,0,0-9.8Z"></path><path d="M16,15v6h1a1,1,0,0,1,.98.8l.548,2.737a12.063,12.063,0,0,1,2.079.861l2.324-1.548a1,1,0,0,1,1.261.125l2.829,2.829a1,1,0,0,1,.125,1.261L25.6,30.393a12.063,12.063,0,0,1,.861,2.079l2.737.548A1,1,0,0,1,30,34v4a1,1,0,0,1-.8.98l-2.737.548a12.063,12.063,0,0,1-.861,2.079l1.548,2.324a1,1,0,0,1-.125,1.261l-2.829,2.829a1,1,0,0,1-1.261.125L20.607,46.6a12.063,12.063,0,0,1-2.079.861L17.98,50.2A1,1,0,0,1,17,51H16v4a1,1,0,0,0,1,1H47a1,1,0,0,0,1-1V15a1,1,0,0,0-1-1H44.816A3,3,0,0,1,42,16H22a3,3,0,0,1-2.816-2H17A1,1,0,0,0,16,15ZM39,28a1,1,0,0,1-1-1V25a.984.984,0,0,1,.03-.242l1-4A1,1,0,0,1,40,20h2a1,1,0,0,1,.97.758l1,4A.984.984,0,0,1,44,25v2a1,1,0,0,1-1,1H42v8h2a2,2,0,0,1,2,2V52a2,2,0,0,1-2,2H38a2,2,0,0,1-2-2V38a2,2,0,0,1,2-2h2V28Zm-4-8h2v2H35Zm-4,0h2v2H31Zm-4,0h2v2H27Z"></path><path d="M16,49h.181l.506-2.536a1,1,0,0,1,.739-.775,9.884,9.884,0,0,0,2.711-1.122,1,1,0,0,1,1.069.026l2.151,1.433,1.669-1.669-1.433-2.151a1,1,0,0,1-.026-1.069,9.884,9.884,0,0,0,1.122-2.711,1,1,0,0,1,.775-.738L28,37.181V34.819l-2.536-.507a1,1,0,0,1-.775-.738,9.884,9.884,0,0,0-1.122-2.711,1,1,0,0,1,.026-1.069l1.433-2.151-1.669-1.669-2.151,1.433a1,1,0,0,1-1.069.026,9.884,9.884,0,0,0-2.711-1.122,1,1,0,0,1-.739-.775L16.181,23H16v6.08a6.991,6.991,0,0,1,0,13.84Z"></path><path d="M35,5a3,3,0,1,0-3,3A3,3,0,0,0,35,5ZM32,6a1,1,0,1,1,1-1A1,1,0,0,1,32,6Z"></path></g></svg>