<svg xmlns="http://www.w3.org/2000/svg" viewBox="0 0 64 64" x="0px" y="0px"><g><polygon points="22.975 14.052 16.48 16 22.975 17.948 28.494 16 22.975 14.052"></polygon><polygon points="34.161 18 31.5 17.061 28.839 18 34.161 18"></polygon><polygon points="34.161 14 28.839 14 31.5 14.939 34.161 14"></polygon><polygon points="16.186 14 9.814 14 13 14.956 16.186 14"></polygon><polygon points="4 17.656 9.52 16 4 14.344 4 17.656"></polygon><polygon points="15 18 16.186 18 13 17.044 9.814 18 15 18"></polygon><polygon points="44 15.414 44 18.586 51 25.586 51 22.414 44 15.414"></polygon><polygon points="58.303 25 60 26.132 60 23.868 58.303 25"></polygon><polygon points="57.697 23 55.303 23 56.5 23.798 57.697 23"></polygon><polygon points="40.173 18 42 18 42 14 40.173 14 34.506 16 40.173 18"></polygon><polygon points="57.697 27 56.5 26.202 55.303 27 57.697 27"></polygon><polygon points="53 26.132 54.697 25 53 23.868 53 26.132"></polygon><rect x="4" y="20" width="2" height="10"></rect><rect x="14" y="20" width="2" height="10"></rect><rect x="20" y="20" width="2" height="4"></rect><rect x="39" y="20" width="2" height="4"></rect><rect x="51" y="29" width="2" height="5"></rect><rect x="60" y="29" width="2" height="31"></rect><rect x="42" y="36" width="12" height="7"></rect><rect x="42" y="45" width="12" height="6"></rect><rect x="4" y="41" width="14" height="10"></rect><rect x="42" y="53" width="12" height="7"></rect><rect x="20" y="50" width="20" height="10"></rect><rect x="20" y="38" width="20" height="10"></rect><rect x="4" y="53" width="14" height="7"></rect><rect x="20" y="26" width="20" height="10"></rect><rect x="4" y="32" width="14" height="7"></rect></g></svg>