<svg xmlns="http://www.w3.org/2000/svg" viewBox="0 0 64 64" x="0px" y="0px"><g><rect x="29" y="26" width="6" height="6"></rect><path d="M49,8H15V20H49ZM35,18H33V16h2Zm4,0H37V16h2Zm4,0H41V16h2Zm4,0H45V16h2Z"></path><rect x="43" y="50" width="6" height="6"></rect><rect x="43" y="38" width="6" height="6"></rect><rect x="15" y="26" width="6" height="6"></rect><rect x="29" y="50" width="6" height="6"></rect><rect x="43" y="26" width="6" height="6"></rect><rect x="29" y="38" width="6" height="6"></rect><path d="M11,60H53a1,1,0,0,0,1-1V5a1,1,0,0,0-1-1H11a1,1,0,0,0-1,1V59A1,1,0,0,0,11,60Zm26-3a1,1,0,0,1-1,1H28a1,1,0,0,1-1-1V49a1,1,0,0,1,1-1h8a1,1,0,0,1,1,1Zm0-12a1,1,0,0,1-1,1H28a1,1,0,0,1-1-1V37a1,1,0,0,1,1-1h8a1,1,0,0,1,1,1Zm0-12a1,1,0,0,1-1,1H28a1,1,0,0,1-1-1V25a1,1,0,0,1,1-1h8a1,1,0,0,1,1,1ZM51,57a1,1,0,0,1-1,1H42a1,1,0,0,1-1-1V49a1,1,0,0,1,1-1h8a1,1,0,0,1,1,1Zm0-12a1,1,0,0,1-1,1H42a1,1,0,0,1-1-1V37a1,1,0,0,1,1-1h8a1,1,0,0,1,1,1Zm0-12a1,1,0,0,1-1,1H42a1,1,0,0,1-1-1V25a1,1,0,0,1,1-1h8a1,1,0,0,1,1,1ZM13,7a1,1,0,0,1,1-1H50a1,1,0,0,1,1,1V21a1,1,0,0,1-1,1H14a1,1,0,0,1-1-1Zm0,18a1,1,0,0,1,1-1h8a1,1,0,0,1,1,1v8a1,1,0,0,1-1,1H14a1,1,0,0,1-1-1Zm0,12a1,1,0,0,1,1-1h8a1,1,0,0,1,1,1v8a1,1,0,0,1-1,1H14a1,1,0,0,1-1-1Zm0,12a1,1,0,0,1,1-1h8a1,1,0,0,1,1,1v8a1,1,0,0,1-1,1H14a1,1,0,0,1-1-1Z"></path><rect x="15" y="50" width="6" height="6"></rect><rect x="15" y="38" width="6" height="6"></rect></g></svg>