<svg xmlns="http://www.w3.org/2000/svg" viewBox="0 0 64 64" x="0px" y="0px"><title>Bag-Business</title><g><path d="M55,2H9A2,2,0,0,0,7,4V60a2,2,0,0,0,2,2H55a2,2,0,0,0,2-2V4A2,2,0,0,0,55,2ZM24,4H40V6H24Zm0,4H40v2H24Zm-1,4H41a1,1,0,0,0,1-1V8h9V56H13V8h9v3A1,1,0,0,0,23,12ZM9,60V4H22V6H12a1,1,0,0,0-1,1V57a1,1,0,0,0,1,1H52a1,1,0,0,0,1-1V7a1,1,0,0,0-1-1H42V4H55l0,56Z"></path><path d="M19,27v8a1,1,0,0,0,1,1v9a1,1,0,0,0,1,1H43a1,1,0,0,0,1-1V36a1,1,0,0,0,1-1V27a1,1,0,0,0-1-1H37V23a1,1,0,0,0-1-1H28a1,1,0,0,0-1,1v3H20A1,1,0,0,0,19,27ZM29,44H22V36h6v1a1,1,0,0,0,1,1Zm4,0H31V38h2Zm1-9v1H30V34h4Zm-3-3V28h2v4ZM42,44H35V38a1,1,0,0,0,1-1V36h6Zm1-16v6H36V33a1,1,0,0,0-1-1V28ZM29,24h6v2H29Zm-8,4h8v4a1,1,0,0,0-1,1v1H21Z"></path></g></svg>