<svg xmlns="http://www.w3.org/2000/svg" viewBox="0 0 64 64" x="0px" y="0px"><g data-name="Smartphone-Application-Computer-Laptop-Wifi Sharing"><path d="M61,51H58V18a5,5,0,0,0-5-5H46V10a5,5,0,0,0-5-5H23a5,5,0,0,0-5,5v3H11a5,5,0,0,0-5,5V51H3a1,1,0,0,0-1,1v4a3.009,3.009,0,0,0,3,3H59a3.009,3.009,0,0,0,3-3V52A1,1,0,0,0,61,51ZM20,10a3.009,3.009,0,0,1,3-3H41a3.009,3.009,0,0,1,3,3v3H20Zm0,5H44V39H20Zm0,26H44v3a3.009,3.009,0,0,1-3,3H23a3.009,3.009,0,0,1-3-3ZM8,18a3.009,3.009,0,0,1,3-3h7V44a5,5,0,0,0,5,5H41a5,5,0,0,0,5-5V15h7a3.009,3.009,0,0,1,3,3V51H8ZM60,56a1,1,0,0,1-1,1H5a1,1,0,0,1-1-1V53H26a2.006,2.006,0,0,0,2,2h8a2.006,2.006,0,0,0,2-2H60Z"></path><rect x="29" y="9" width="6" height="2"></rect><rect x="31" y="43" width="2" height="2"></rect><path d="M28.465,27.464l1.414,1.414a3.074,3.074,0,0,1,4.242,0l1.414-1.414a5,5,0,0,0-7.07,0Z"></path><path d="M25.636,24.636,27.05,26.05a7.011,7.011,0,0,1,9.9,0l1.414-1.414A9.01,9.01,0,0,0,25.636,24.636Z"></path><rect x="31" y="30" width="2" height="2"></rect></g></svg>