<svg xmlns="http://www.w3.org/2000/svg" viewBox="0 0 64 64" x="0px" y="0px"><g><path d="M38.8,17.37a6.978,6.978,0,0,0-.8-1.957V11h3a1,1,0,0,0,1-1V3a1,1,0,0,0-1-1H23a1,1,0,0,0-1,1v7a1,1,0,0,0,1,1h3v4.413a6.978,6.978,0,0,0-.8,1.957A13.012,13.012,0,0,0,18,29v6a3.017,3.017,0,0,0,3,3,3,3,0,0,0,3-3V29a6.924,6.924,0,0,1,2.656-5.489,6.981,6.981,0,0,0,10.688,0A6.924,6.924,0,0,1,40,29v6a3.017,3.017,0,0,0,3,3,3,3,0,0,0,3-3V29A13.012,13.012,0,0,0,38.8,17.37ZM24,4H40V9H24Zm12,7v2.264a6.961,6.961,0,0,0-8,0V11ZM22,29v6a1,1,0,0,1-1,1,.978.978,0,0,1-.712-.306A.957.957,0,0,1,20,35V29a11.018,11.018,0,0,1,5.042-9.251,6.91,6.91,0,0,0,.556,2.07A9.03,9.03,0,0,0,22,29Zm10-5a5,5,0,1,1,5-5A5.006,5.006,0,0,1,32,24ZM44,35a1,1,0,0,1-1,1,.978.978,0,0,1-.712-.306A.957.957,0,0,1,42,35V29a9.03,9.03,0,0,0-3.6-7.181,6.91,6.91,0,0,0,.556-2.07A11.018,11.018,0,0,1,44,29Z"></path><path d="M32,16a3,3,0,1,0,3,3A3,3,0,0,0,32,16Zm0,4a1,1,0,1,1,1-1A1,1,0,0,1,32,20Z"></path><path d="M32,46a1,1,0,0,1,1,1h2a3,3,0,0,0-2-2.816V43H31v1.184A2.993,2.993,0,0,0,32,50a1,1,0,1,1-1,1H29a3,3,0,0,0,2,2.816V55h2V53.816A2.993,2.993,0,0,0,32,48a1,1,0,0,1,0-2Z"></path><path d="M32,39A10,10,0,1,0,42,49,10.011,10.011,0,0,0,32,39Zm0,18a8,8,0,1,1,8-8A8.009,8.009,0,0,1,32,57Z"></path><path d="M32,36A13,13,0,1,0,45,49,13.015,13.015,0,0,0,32,36Zm0,24A11,11,0,1,1,43,49,11.013,11.013,0,0,1,32,60Z"></path><rect x="37" y="48" width="2" height="2"></rect><rect x="25" y="48" width="2" height="2"></rect><rect x="53" y="45" width="2" height="2"></rect><rect x="55" y="47" width="2" height="2"></rect><rect x="51" y="47" width="2" height="2"></rect><rect x="53" y="49" width="2" height="2"></rect><rect x="9" y="35" width="2" height="2"></rect><rect x="11" y="37" width="2" height="2"></rect><rect x="7" y="37" width="2" height="2"></rect><rect x="9" y="39" width="2" height="2"></rect><rect x="13" y="55" width="2" height="2"></rect><rect x="15" y="57" width="2" height="2"></rect><rect x="11" y="57" width="2" height="2"></rect><rect x="13" y="59" width="2" height="2"></rect><rect x="56" y="25" width="2" height="2"></rect><rect x="58" y="27" width="2" height="2"></rect><rect x="54" y="27" width="2" height="2"></rect><rect x="56" y="29" width="2" height="2"></rect></g></svg>