<svg xmlns="http://www.w3.org/2000/svg" viewBox="0 0 64 64" x="0px" y="0px"><title>Date-Schedule-Date And Time-Calendar-Delivery</title><g><rect x="41" y="23" width="2" height="16"></rect><rect x="21" y="23" width="5" height="2"></rect><rect x="34" y="23" width="5" height="2"></rect><path d="M34,30a1,1,0,0,1-1.555.832L30,29.2l-2.445,1.63A1,1,0,0,1,26,30V27H21V39H39V27H34Z"></path><path d="M30.555,27.168,32,28.131V23H28v5.131l1.445-.963A1,1,0,0,1,30.555,27.168Z"></path><rect x="53" y="8" width="4" height="6"></rect><rect x="53" y="16" width="4" height="44"></rect><path d="M7,51a3,3,0,0,0,3,3H44a4.973,4.973,0,0,1-1-3V48H7Z"></path><path d="M42,9a1,1,0,0,0,1,1v2a3,3,0,0,1-3-3V8H31V9a1,1,0,0,0,1,1v2a3,3,0,0,1-3-3V8H20V9a1,1,0,0,0,1,1v2a3,3,0,0,1-3-3V8H13v6H51V8H42Z"></path><path d="M48,54a3,3,0,0,0,3-3V16H13V46H44a1,1,0,0,1,1,1v4A3,3,0,0,0,48,54ZM44,41H20a1,1,0,0,1-1-1V22a1,1,0,0,1,1-1H44a1,1,0,0,1,1,1V40A1,1,0,0,1,44,41Z"></path><path d="M51,54.974A4.948,4.948,0,0,1,48,56H13v4H51Z"></path><path d="M21,2a3.009,3.009,0,0,0-3,3V8h2V5a1,1,0,0,1,2,0V6h2V5A3.009,3.009,0,0,0,21,2Z"></path><path d="M32,2a3.009,3.009,0,0,0-3,3V8h2V5a1,1,0,0,1,2,0V6h2V5A3.009,3.009,0,0,0,32,2Z"></path><path d="M43,2a3.009,3.009,0,0,0-3,3V8h2V5a1,1,0,0,1,2,0V6h2V5A3.009,3.009,0,0,0,43,2Z"></path></g></svg>