<svg xmlns="http://www.w3.org/2000/svg" viewBox="0 0 64 64" x="0px" y="0px"><g data-name="Bubble Speech"><path d="M23,31h2v5a1,1,0,0,0,1.707.707L32.414,31H41a3,3,0,0,0,3-3V18a3,3,0,0,0-3-3H23a3,3,0,0,0-3,3V28A3,3,0,0,0,23,31ZM22,18a1,1,0,0,1,1-1H41a1,1,0,0,1,1,1V28a1,1,0,0,1-1,1H32a1,1,0,0,0-.707.293L27,33.586V30a1,1,0,0,0-1-1H23a1,1,0,0,1-1-1Z"></path><rect x="26" y="20" width="12" height="2"></rect><rect x="26" y="24" width="12" height="2"></rect><path d="M57,2H7A5.006,5.006,0,0,0,2,7V45a5.006,5.006,0,0,0,5,5H23.867l-.75,6H21a3,3,0,0,0,0,6H43a3,3,0,0,0,0-6H40.883l-.75-6H57a5.006,5.006,0,0,0,5-5V7A5.006,5.006,0,0,0,57,2ZM7,4H57a3,3,0,0,1,3,3v3H4V7A3,3,0,0,1,7,4Zm53,8V40H4V12ZM44,59a1,1,0,0,1-1,1H21a1,1,0,0,1,0-2H43A1,1,0,0,1,44,59Zm-5.133-3H25.133l.75-6H38.117ZM57,48H7a3,3,0,0,1-3-3V42H60v3A3,3,0,0,1,57,48Z"></path><rect x="54" y="44" width="2" height="2"></rect><rect x="8" y="6" width="2" height="2"></rect><rect x="12" y="6" width="2" height="2"></rect><rect x="16" y="6" width="2" height="2"></rect></g></svg>