<svg xmlns="http://www.w3.org/2000/svg" viewBox="0 0 64 64" x="0px" y="0px"><title>Key</title><g><path d="M38,31H37V27a1,1,0,0,0-.293-.707L35,24.586V23.414l1.707-1.707A1,1,0,0,0,37,21V17a1,1,0,0,0-.292-.707L35,14.583V12.414l1.707-1.707A1,1,0,0,0,37,10V6a1,1,0,0,0-.4-.8l-4-3a1,1,0,0,0-1.2,0l-4,3A1,1,0,0,0,27,6v4a1,1,0,0,0,.293.707L29,12.414v2.169l-1.708,1.71A1,1,0,0,0,27,17v4a1,1,0,0,0,.293.707L29,23.414v1.172l-1.707,1.707A1,1,0,0,0,27,27v4H26a5.006,5.006,0,0,0-5,5V53a5.006,5.006,0,0,0,5,5h2v1a3,3,0,0,0,3,3h2a3,3,0,0,0,3-3V58h2a5.006,5.006,0,0,0,5-5V36A5.006,5.006,0,0,0,38,31Zm-9-3.586,1.707-1.707A1,1,0,0,0,31,25V23a1,1,0,0,0-.293-.707L29,20.586V17.414l1.708-1.71A1,1,0,0,0,31,15V12a1,1,0,0,0-.293-.707L29,9.586V6.5l3-2.25L35,6.5V9.586l-1.707,1.707A1,1,0,0,0,33,12v3a1,1,0,0,0,.292.707L35,17.414v3.172l-1.707,1.707A1,1,0,0,0,33,23v2a1,1,0,0,0,.293.707L35,27.414V31H29ZM34,59a1,1,0,0,1-1,1H31a1,1,0,0,1-1-1V58h4Zm7-6a3,3,0,0,1-3,3H26a3,3,0,0,1-3-3V36a3,3,0,0,1,3-3H38a3,3,0,0,1,3,3Z"></path><path d="M25,43h5a1,1,0,0,0,1-1V36a1,1,0,0,0-1-1H25a1,1,0,0,0-1,1v6A1,1,0,0,0,25,43Zm1-6h3v4H26Z"></path><path d="M39,35H34a1,1,0,0,0-1,1v6a1,1,0,0,0,1,1h5a1,1,0,0,0,1-1V36A1,1,0,0,0,39,35Zm-1,6H35V37h3Z"></path><path d="M39,45H25a1,1,0,0,0,0,2H39a1,1,0,0,0,0-2Z"></path></g></svg>