<svg xmlns="http://www.w3.org/2000/svg" viewBox="0 0 64 64" x="0px" y="0px"><g><rect x="52" y="9" width="4" height="2"></rect><rect x="49.95" y="4.05" width="4" height="2" transform="translate(11.645 38.213) rotate(-45)"></rect><rect x="50.95" y="12.95" width="2" height="4" transform="translate(4.649 41.121) rotate(-45.01)"></rect><path d="M31,45v2h2V45a1,1,0,0,1,1-1h2V42H34a1,1,0,0,1-1-1V39H31v2a1,1,0,0,1-1,1H28v2h2A1,1,0,0,1,31,45Z"></path><rect x="43" y="7" width="2" height="5"></rect><rect x="29" y="21" width="6" height="2"></rect><path d="M22,60H42V25H22Zm4-19a1,1,0,0,1,1-1h2V38a1,1,0,0,1,1-1h4a1,1,0,0,1,1,1v2h2a1,1,0,0,1,1,1v4a1,1,0,0,1-1,1H35v2a1,1,0,0,1-1,1H30a1,1,0,0,1-1-1V46H27a1,1,0,0,1-1-1Z"></path><path d="M44,18a6.006,6.006,0,0,1-6-6h3V7H38A11.013,11.013,0,0,0,27,18v1H37V15.864A8,8,0,0,0,44,20a1,1,0,0,0,0-2Z"></path></g></svg>