<svg xmlns="http://www.w3.org/2000/svg" viewBox="0 0 64 64" x="0px" y="0px"><g><path d="M53.94,15.8a.99.99,0,0,1-1.2,0l-2.07-1.55L48.61,15.8a.99.99,0,0,1-1.2,0l-2.07-1.55L43.27,15.8a.99.99,0,0,1-1.2,0L41,15V28H55V15ZM49,25H43V23h6Zm0-4H43V19h6Zm4,4H51V23h2Zm0-4H51V19h2Z"></path><rect x="47" y="46" width="2" height="2"></rect><rect x="51" y="54" width="2" height="2"></rect><path d="M36.168,6.445a1,1,0,0,1,1.664,0L38,6.7V4H36V6.7Z"></path><path d="M38,30v8.88l.97,3.88A.986.986,0,0,1,39,43V60H57V43a.986.986,0,0,1,.03-.24L58,38.88V30ZM55,57a1,1,0,0,1-1,1H42a1,1,0,0,1-1-1V45a1,1,0,0,1,1-1H54a1,1,0,0,1,1,1Zm1-16a1,1,0,0,1-1,1H41a1,1,0,0,1-1-1V33a1,1,0,0,1,1-1H55a1,1,0,0,1,1,1Z"></path><rect x="51" y="50" width="2" height="2"></rect><rect x="47" y="50" width="2" height="2"></rect><rect x="51" y="46" width="2" height="2"></rect><rect x="43" y="54" width="2" height="2"></rect><path d="M42,34v6H54V34Zm5,4H45V36h2Zm4,0H49V36h2Z"></path><rect x="43" y="50" width="2" height="2"></rect><path d="M24,22.062V29h6.937A8.017,8.017,0,0,0,24,22.062Z"></path><rect x="43" y="46" width="2" height="2"></rect><path d="M43,4H40v6a1.008,1.008,0,0,1-.71.96A.967.967,0,0,1,39,11a.984.984,0,0,1-.83-.45L37,8.8l-1.17,1.75a.992.992,0,0,1-1.12.41A1.008,1.008,0,0,1,34,10V4H7A1,1,0,0,0,6,5V53a1,1,0,0,0,1,1H37V43.12l-.97-3.88A.986.986,0,0,1,36,39V30a2.006,2.006,0,0,1,2-2h1V13a.988.988,0,0,1,.55-.89.976.976,0,0,1,1.05.09l2.07,1.55,1.33-1V5A1,1,0,0,0,43,4ZM20,11h8v2H20Zm0,4h8v2H20Zm-5,0H13a3,3,0,0,1,0-6V8h2V9a3.009,3.009,0,0,1,3,3H16a1,1,0,0,0-1-1H13a1,1,0,0,0,0,2h2a3,3,0,0,1,0,6v1H13V19a3.009,3.009,0,0,1-3-3h2a1,1,0,0,0,1,1h2a1,1,0,0,0,0-2Zm5,28a10,10,0,0,1,0-20,1,1,0,0,1,1,1v8h8a1,1,0,0,1,1,1A10.016,10.016,0,0,1,20,43Zm12,5H28V46h4Zm0-4H28V42h4Zm0-13H23a1,1,0,0,1-1-1V21a1,1,0,0,1,1-1A10.016,10.016,0,0,1,33,30,1,1,0,0,1,32,31Z"></path><path d="M19,33V25.062A8,8,0,1,0,27.937,34H20A1,1,0,0,1,19,33Z"></path><rect x="47" y="54" width="2" height="2"></rect></g></svg>