<svg xmlns="http://www.w3.org/2000/svg" viewBox="0 0 64 64" x="0px" y="0px"><title>Conveyor-Machine-Manufacture-Industry</title><g><path d="M39,48a5,5,0,1,0,5,5A5.006,5.006,0,0,0,39,48Zm0,8a3,3,0,1,1,3-3A3,3,0,0,1,39,56Z"></path><path d="M51,48a5,5,0,1,0,5,5A5.006,5.006,0,0,0,51,48Zm0,8a3,3,0,1,1,3-3A3,3,0,0,1,51,56Z"></path><path d="M15,48a5,5,0,1,0,5,5A5.006,5.006,0,0,0,15,48Zm0,8a3,3,0,1,1,3-3A3,3,0,0,1,15,56Z"></path><path d="M6.75,45.732,5.25,44.41A12.974,12.974,0,0,0,2,53H4A10.983,10.983,0,0,1,6.75,45.732Z"></path><path d="M2.181,55.165a12.862,12.862,0,0,0,.562,2.17l1.885-.67a10.867,10.867,0,0,1-.475-1.83Z"></path><rect x="47" y="40" width="2" height="2"></rect><path d="M51,40v2a11.028,11.028,0,0,1,9.585,5.608l1.742-.984A13.034,13.034,0,0,0,51,40Z"></path><path d="M51,44H45V5a1,1,0,0,0-1-1H18a1,1,0,0,0-1,1V44H15a9,9,0,0,0,0,18H51a9,9,0,0,0,0-18ZM27,28H19V26h8ZM19,10h8v3a1,1,0,0,0,1.555.832L31,12.2l2.445,1.63A1,1,0,0,0,35,13V10h8V24H19ZM29,6h4v5.132l-1.445-.964a1,1,0,0,0-1.11,0L29,11.132Zm0,20h4v5.132l-1.445-.964a1,1,0,0,0-1.11,0L29,31.132Zm6,0h8v2H35ZM43,8H35V6h8ZM27,6V8H19V6ZM19,30h8v3a1,1,0,0,0,1.555.832L31,32.2l2.445,1.63A1,1,0,0,0,35,33V30h8V44H19ZM51,60H15a7,7,0,0,1,0-14H51a7,7,0,0,1,0,14Z"></path><rect x="14" y="52" width="2" height="2"></rect><path d="M27,48a5,5,0,1,0,5,5A5.006,5.006,0,0,0,27,48Zm0,8a3,3,0,1,1,3-3A3,3,0,0,1,27,56Z"></path><rect x="26" y="52" width="2" height="2"></rect><rect x="38" y="52" width="2" height="2"></rect><rect x="50" y="52" width="2" height="2"></rect></g></svg>