<svg xmlns="http://www.w3.org/2000/svg" viewBox="0 0 64 64" x="0px" y="0px"><g data-name="Target Audience"><rect x="31" y="4" width="2" height="4"></rect><rect x="31" y="56" width="2" height="4"></rect><rect x="56" y="31" width="4" height="2"></rect><rect x="4" y="31" width="4" height="2"></rect><path d="M32,14A18,18,0,1,0,50,32,18.021,18.021,0,0,0,32,14Zm8,31a1,1,0,0,1-1,1H25a1,1,0,0,1-1-1V35a7.032,7.032,0,0,1,5.031-6.712L29,27.009A5.022,5.022,0,0,1,27,23V21a5,5,0,0,1,5.487-4.977A5.133,5.133,0,0,1,37,21.172V23a4.941,4.941,0,0,1-2.021,4L35,28.3v.007A7,7,0,0,1,40,35Z"></path><path d="M34.406,30.208A1.986,1.986,0,0,1,33,28.3V27.009a2.013,2.013,0,0,1,.785-1.618A2.956,2.956,0,0,0,35,23V21.172a3.12,3.12,0,0,0-2.7-3.158,2.975,2.975,0,0,0-2.316.766A3.007,3.007,0,0,0,29,21v2a2.956,2.956,0,0,0,1.215,2.391A2.013,2.013,0,0,1,31,27.009V28.3a1.986,1.986,0,0,1-1.407,1.906A5.021,5.021,0,0,0,26,35v9H38V35A5.02,5.02,0,0,0,34.406,30.208Z"></path><path d="M55.975,31A24.027,24.027,0,0,0,33,8.025V10H31V8.025A24.027,24.027,0,0,0,8.025,31H10v2H8.025A24.027,24.027,0,0,0,31,55.975V54h2v1.975A24.027,24.027,0,0,0,55.975,33H54V31ZM32,52A20,20,0,1,1,52,32,20.023,20.023,0,0,1,32,52Z"></path></g></svg>