<svg xmlns="http://www.w3.org/2000/svg" viewBox="0 0 64 64" x="0px" y="0px"><g><path d="M46,32.116V22.4a1,1,0,0,0-.594-.913l-13-5.778a1,1,0,0,0-.812,0l-13,5.778A1,1,0,0,0,18,22.4v9.716a15.009,15.009,0,0,0,7.715,13.112l5.8,3.222a1,1,0,0,0,.972,0l5.8-3.222A15.009,15.009,0,0,0,46,32.116ZM32,46.432,26.687,43.48A13.007,13.007,0,0,1,20,32.116V23.05l12-5.333L44,23.05v9.066A13.007,13.007,0,0,1,37.313,43.48Z"></path><path d="M42,25a1,1,0,0,0-.594-.914l-9-4a1,1,0,0,0-.812,0l-9,4A1,1,0,0,0,22,25v5.939A13.006,13.006,0,0,0,28.687,42.3l2.827,1.571a1,1,0,0,0,.972,0L35.313,42.3A13.006,13.006,0,0,0,42,30.939Zm-2,5.939a11.007,11.007,0,0,1-5.658,9.616L32,41.856l-2.342-1.3A11.007,11.007,0,0,1,24,30.939V25.65l8-3.556,8,3.556Z"></path><path d="M50.707,28.707l3-3-1.414-1.414L49.586,27H48v2h2A1,1,0,0,0,50.707,28.707Z"></path><path d="M50.707,35.293A1,1,0,0,0,50,35H48v2h1.586l2.707,2.707,1.414-1.414Z"></path><rect x="48" y="31" width="6" height="2"></rect><path d="M11.707,24.293l-1.414,1.414,3,3A1,1,0,0,0,14,29h2V27H14.414Z"></path><path d="M13.293,35.293l-3,3,1.414,1.414L14.414,37H16V35H14A1,1,0,0,0,13.293,35.293Z"></path><rect x="10" y="31" width="6" height="2"></rect><path d="M56,25a3,3,0,1,0-3-3A3,3,0,0,0,56,25Zm0-4a1,1,0,1,1-1,1A1,1,0,0,1,56,21Z"></path><path d="M59,29a3,3,0,1,0,3,3A3,3,0,0,0,59,29Zm0,4a1,1,0,1,1,1-1A1,1,0,0,1,59,33Z"></path><path d="M56,39a3,3,0,1,0,3,3A3,3,0,0,0,56,39Zm0,4a1,1,0,1,1,1-1A1,1,0,0,1,56,43Z"></path><path d="M8,25a3,3,0,1,0-3-3A3,3,0,0,0,8,25Zm0-4a1,1,0,1,1-1,1A1,1,0,0,1,8,21Z"></path><path d="M8,32a3,3,0,1,0-3,3A3,3,0,0,0,8,32ZM4,32a1,1,0,1,1,1,1A1,1,0,0,1,4,32Z"></path><path d="M8,39a3,3,0,1,0,3,3A3,3,0,0,0,8,39Zm0,4a1,1,0,1,1,1-1A1,1,0,0,1,8,43Z"></path><path d="M31,25v1a3,3,0,0,0,0,6h2a1,1,0,0,1,0,2H31a1,1,0,0,1-1-1H28a3,3,0,0,0,3,3v1h2V36a3,3,0,0,0,0-6H31a1,1,0,0,1,0-2h2a1,1,0,0,1,1,1h2a3,3,0,0,0-3-3V25Z"></path><path d="M44,2a3,3,0,1,0,3,3A3,3,0,0,0,44,2Zm0,4a1,1,0,1,1,1-1A1,1,0,0,1,44,6Z"></path><path d="M32,9a3,3,0,1,0-3-3A3,3,0,0,0,32,9Zm0-4a1,1,0,1,1-1,1A1,1,0,0,1,32,5Z"></path><path d="M38.414,13H44a1,1,0,0,0,1-1V10H43v1H38a1,1,0,0,0-.707.293l-2,2,1.414,1.414Z"></path><path d="M20,8a3,3,0,1,0-3-3A3,3,0,0,0,20,8Zm0-4a1,1,0,1,1-1,1A1,1,0,0,1,20,4Z"></path><path d="M21,10H19v2a1,1,0,0,0,1,1h5.586l1.707,1.707,1.414-1.414-2-2A1,1,0,0,0,26,11H21Z"></path><rect x="31" y="11" width="2" height="2"></rect><path d="M44,56a3,3,0,1,0,3,3A3,3,0,0,0,44,56Zm0,4a1,1,0,1,1,1-1A1,1,0,0,1,44,60Z"></path><path d="M32,55a3,3,0,1,0,3,3A3,3,0,0,0,32,55Zm0,4a1,1,0,1,1,1-1A1,1,0,0,1,32,59Z"></path><path d="M43,54h2V52a1,1,0,0,0-1-1H38.414l-1.707-1.707-1.414,1.414,2,2A1,1,0,0,0,38,53h5Z"></path><path d="M20,56a3,3,0,1,0,3,3A3,3,0,0,0,20,56Zm0,4a1,1,0,1,1,1-1A1,1,0,0,1,20,60Z"></path><path d="M25.586,51H20a1,1,0,0,0-1,1v2h2V53h5a1,1,0,0,0,.707-.293l2-2-1.414-1.414Z"></path><rect x="31" y="51" width="2" height="2"></rect></g></svg>