<svg xmlns="http://www.w3.org/2000/svg" viewBox="0 0 64 64" x="0px" y="0px"><g><rect x="46.999" y="11" width="6.001" height="2"></rect><polygon points="23.414 41 27.414 45 40 45 40 38.414 33 31.414 23.414 41"></polygon><circle cx="50" cy="26" r="1"></circle><circle cx="50" cy="39" r="4"></circle><rect x="23" y="13" width="8" height="4"></rect><polygon points="9.414 45 24.586 45 17 37.414 9.414 45"></polygon><path d="M5,49H59a1,1,0,0,0,1-1V16a1,1,0,0,0-1-1H36a1,1,0,0,1-.949-.684L33.279,9H20.721l-1.772,5.316A1,1,0,0,1,18,15H5a1,1,0,0,0-1,1V48A1,1,0,0,0,5,49ZM46,17h8v2H46Zm7,9a3,3,0,1,1-3-3A3,3,0,0,1,53,26Zm-3,7a6,6,0,1,1-6,6A6.006,6.006,0,0,1,50,33ZM21,12a1,1,0,0,1,1-1H32a1,1,0,0,1,1,1v6a1,1,0,0,1-1,1H22a1,1,0,0,1-1-1ZM6,22a1,1,0,0,1,1-1H41a1,1,0,0,1,1,1V46a1,1,0,0,1-1,1H7a.975.975,0,0,1-.349-.071.825.825,0,0,1-.095-.045.948.948,0,0,1-.208-.14.842.842,0,0,1-.077-.069.994.994,0,0,1-.179-.266c0-.009-.011-.015-.014-.023l0,0a1.015,1.015,0,0,1-.069-.346C6.007,46.024,6,46.013,6,46Z"></path><circle cx="22" cy="28" r="1"></circle><path d="M17.707,35.293,22,39.586,32.293,29.293a1,1,0,0,1,1.414,0L40,35.586V23H8V43.586l8.293-8.293A1,1,0,0,1,17.707,35.293ZM22,25a3,3,0,1,1-3,3A3,3,0,0,1,22,25Z"></path></g></svg>