<svg xmlns="http://www.w3.org/2000/svg" viewBox="0 0 64 64" x="0px" y="0px"><g><path d="M50.99,19.274,45.576,18.5A3.015,3.015,0,0,1,43,15.531V14h4a2,2,0,0,0,2-2V4a2,2,0,0,0-2-2H17a2,2,0,0,0-2,2v8a2,2,0,0,0,2,2h4v1.531a3.015,3.015,0,0,1-2.576,2.97l-5.414.773A7.035,7.035,0,0,0,7,26.2V55a7.008,7.008,0,0,0,7,7H50a7.008,7.008,0,0,0,7-7V26.2A7.035,7.035,0,0,0,50.99,19.274ZM17,4h2V8h2V4h2V8h2V4h2V8h2V4h2V8h2V4h2V8h2V4h2V8h2V4h2V8h2V4h2v8H17ZM13.293,21.254l5.414-.774A5.024,5.024,0,0,0,23,15.531V14H41v1.531a5.024,5.024,0,0,0,4.293,4.949l5.414.774A5.025,5.025,0,0,1,55,26.2V28H9V26.2A5.025,5.025,0,0,1,13.293,21.254ZM55,30V52H9V30ZM50,60H14a5.006,5.006,0,0,1-5-5V54H55v1A5.006,5.006,0,0,1,50,60Z"></path><path d="M32,50a7.008,7.008,0,0,0,7-7c0-3.593-5.615-9.954-6.256-10.668a1.031,1.031,0,0,0-1.488,0C30.615,33.046,25,39.407,25,43A7.008,7.008,0,0,0,32,50Zm0-15.475c2.184,2.59,5,6.566,5,8.475a5,5,0,0,1-10,0C27,41.094,29.816,37.116,32,34.525Z"></path><path d="M36,43H34a2,2,0,0,1-2,2v2A4,4,0,0,0,36,43Z"></path></g></svg>