<svg xmlns="http://www.w3.org/2000/svg" viewBox="0 0 64 64" x="0px" y="0px"><g><path d="M32,35a3,3,0,1,0-3-3A3,3,0,0,0,32,35Zm0-4a1,1,0,1,1-1,1A1,1,0,0,1,32,31Z"></path><path d="M44,2H20a7.008,7.008,0,0,0-7,7V31.15L6.76,41.95A16.875,16.875,0,0,0,4.59,52.33l1.08,9.78,1.99-.22L6.57,52.11a14.956,14.956,0,0,1,1.92-9.16L13,35.15V48.12l-.56.98,1.73,1,5-8.66a2,2,0,1,1,3.46,2l-3.5,6.06a1.023,1.023,0,0,0-.06.87l1.29,3.21A9.149,9.149,0,0,1,21,56.93v1.3a8.937,8.937,0,0,1-.66,3.39l1.85.76c.05-.13.08-.25.13-.38H44a7.008,7.008,0,0,0,7-7V9A7.008,7.008,0,0,0,44,2Zm5,53a5,5,0,0,1-5,5H22.85A11.529,11.529,0,0,0,23,58.23v-1.3A11.075,11.075,0,0,0,22.6,54H49Zm0-3H21.88l-.77-1.92,3.26-5.64a4,4,0,0,0-4.5-5.87,3.948,3.948,0,0,0-2.43,1.87L15,44.66V12H49Zm0-42H15V9a5,5,0,0,1,5-5H44a5,5,0,0,1,5,5Z"></path><path d="M40.24,30.03l-1.66-.42-.24-.57.88-1.48a.986.986,0,0,0-.15-1.22l-1.41-1.41a.986.986,0,0,0-1.22-.15l-1.48.88c-.19-.08-.38-.16-.57-.23l-.42-1.67A1,1,0,0,0,33,23H31a1,1,0,0,0-.97.76l-.42,1.67c-.19.07-.38.15-.57.23l-1.48-.88a.986.986,0,0,0-1.22.15l-1.41,1.41a.986.986,0,0,0-.15,1.22l.88,1.48-.24.57-1.66.42A1,1,0,0,0,23,31v2a1,1,0,0,0,.76.97l1.66.42.24.57-.88,1.48a.986.986,0,0,0,.15,1.22l1.41,1.41a.986.986,0,0,0,1.22.15l1.48-.88c.19.08.38.16.57.23l.42,1.67A1,1,0,0,0,31,41h2a1,1,0,0,0,.97-.76l.42-1.67c.19-.07.38-.15.57-.23l1.48.88a.986.986,0,0,0,1.22-.15l1.41-1.41a.986.986,0,0,0,.15-1.22l-.88-1.48.24-.57,1.66-.42A1,1,0,0,0,41,33V31A1,1,0,0,0,40.24,30.03ZM39,32.22l-1.45.36a1.026,1.026,0,0,0-.73.71,5.118,5.118,0,0,1-.49,1.21.988.988,0,0,0,0,1.01l.78,1.28-.32.31-1.28-.77a1.012,1.012,0,0,0-1.01,0,5.118,5.118,0,0,1-1.21.49,1.026,1.026,0,0,0-.71.73L32.22,39h-.44l-.36-1.45a1.026,1.026,0,0,0-.71-.73,5.118,5.118,0,0,1-1.21-.49,1.012,1.012,0,0,0-1.01,0l-1.28.77-.32-.31.78-1.28a.988.988,0,0,0,0-1.01,5.118,5.118,0,0,1-.49-1.21,1.026,1.026,0,0,0-.73-.71L25,32.22v-.44l1.45-.36a1.026,1.026,0,0,0,.73-.71,5.118,5.118,0,0,1,.49-1.21.988.988,0,0,0,0-1.01l-.78-1.28.32-.31,1.28.77a1.012,1.012,0,0,0,1.01,0,5.118,5.118,0,0,1,1.21-.49,1.026,1.026,0,0,0,.71-.73L31.78,25h.44l.36,1.45a1.026,1.026,0,0,0,.71.73,5.118,5.118,0,0,1,1.21.49,1.012,1.012,0,0,0,1.01,0l1.28-.77.32.31-.78,1.28a.988.988,0,0,0,0,1.01,5.118,5.118,0,0,1,.49,1.21,1.026,1.026,0,0,0,.73.71l1.45.36Z"></path><rect x="25" y="6" width="2" height="2"></rect><rect x="29" y="6" width="6" height="2"></rect><rect x="30" y="56" width="4" height="2"></rect><path d="M17,15v4h2V16h3V14H18A1,1,0,0,0,17,15Z"></path><rect x="17" y="21" width="2" height="2"></rect></g></svg>