<svg xmlns="http://www.w3.org/2000/svg" viewBox="0 0 48 48" x="0px" y="0px"><title>Idea</title><g><path d="M24,0A24,24,0,1,0,48,24,24.028,24.028,0,0,0,24,0Zm0,46A22,22,0,1,1,46,24,22.025,22.025,0,0,1,24,46Z"></path><path d="M24,11a9.992,9.992,0,0,0-5,18.647V33H18v2h3v3a1,1,0,0,0,1,1h4a1,1,0,0,0,1-1V35h3V33H29V29.647A9.992,9.992,0,0,0,24,11Zm1,26H23V35h2Zm2-4H21V30.539a9.992,9.992,0,0,0,6,0Zm-3-4a8,8,0,1,1,8-8A8.009,8.009,0,0,1,24,29Z"></path><rect x="23" y="7" width="2" height="2"></rect><rect x="13.808" y="10.808" width="2" height="2" transform="translate(-4.012 13.929) rotate(-45)"></rect><rect x="10" y="20" width="2" height="2"></rect><rect x="36" y="20" width="2" height="2"></rect><rect x="32.192" y="10.808" width="2" height="2" transform="translate(1.373 26.929) rotate(-45)"></rect><path d="M26,21.2l-1.168-1.752a1.039,1.039,0,0,0-1.664,0L22,21.2l-1.168-1.752-1.664,1.11,2,3a1.039,1.039,0,0,0,1.664,0L24,21.8l1.168,1.752a1,1,0,0,0,1.664,0l2-3-1.664-1.11Z"></path></g></svg>