<svg xmlns="http://www.w3.org/2000/svg" viewBox="0 0 64 64" x="0px" y="0px"><g data-name="Megaphone-Marketing-Strategy-Report-Money Bag"><polygon points="10.34 31 13.66 36.75 22.19 35.52 15.67 24.23 10.34 31"></polygon><path d="M17.52,20.45a.947.947,0,0,0-.49.13,1,1,0,0,0-.37,1.37l8,13.85a1,1,0,1,0,1.73-1l-8-13.85A1,1,0,0,0,17.52,20.45Z"></path><path d="M10.17,40.71l3.5,6.06a1,1,0,0,0,1.37.36l1.73-1a.985.985,0,0,0,.36-1.36l-3.46-6-.2.03Z"></path><path d="M24.99,26.38a1,1,0,0,0-1.37-.37l1,1.73h.01A1,1,0,0,0,24.99,26.38Z"></path><rect x="36" y="18" width="10" height="4"></rect><path d="M38,45v8a1,1,0,0,1-1,1,1,1,0,0,0,0,2H59a1,1,0,0,0,0-2,1,1,0,0,1-1-1V45a7.008,7.008,0,0,0-7-7H45A7.008,7.008,0,0,0,38,45Zm11,3H47a3,3,0,0,1,0-6V41h2v1a3,3,0,0,1,3,3H50a1,1,0,0,0-1-1H47a1,1,0,0,0,0,2h2a3,3,0,0,1,0,6v1H47V52a3,3,0,0,1-3-3h2a1,1,0,0,0,1,1h2a1,1,0,0,0,0-2Z"></path><path d="M48,10h3.586L47,5.414V9A1,1,0,0,0,48,10Z"></path><polygon points="49.382 32 51.382 28 44.618 28 46.618 32 49.382 32"></polygon><rect x="8.406" y="32.378" width="1.998" height="5.995" transform="translate(-16.441 9.455) rotate(-30.029)"></rect><path d="M7.44,39.97l.86-.5-3-5.19-.86.5a1,1,0,0,0-.37,1.36l2,3.47A1,1,0,0,0,7.44,39.97Z"></path><path d="M44,35a1,1,0,0,0,1,1h6a1,1,0,0,0,0-2H45A1,1,0,0,0,44,35Z"></path><path d="M53,32.77V29.23l-1.41,2.83A3,3,0,0,1,53,32.77Z"></path><path d="M48,12a3.009,3.009,0,0,1-3-3V4H14a3.009,3.009,0,0,0-3,3V26.92l3.65-4.64a2.994,2.994,0,0,1,5.47-2.33l2.5,4.33a3,3,0,1,1,3,5.19l2.5,4.33a3.04,3.04,0,0,1,.4,1.5,2.992,2.992,0,0,1-5.15,2.08L15.8,38.47l3.07,5.3a3.016,3.016,0,0,1-1.1,4.1l-1.73,1a3.04,3.04,0,0,1-1.5.4,2.992,2.992,0,0,1-2.6-1.5L11,46.14V57a3.009,3.009,0,0,0,3,3H51a2,2,0,0,0,2-2H37.119a3.084,3.084,0,0,1-3.036-2.291A3.012,3.012,0,0,1,36,52.17V45a9.012,9.012,0,0,1,6.36-8.6,2.975,2.975,0,0,1,2.05-4.34l-2.3-4.61A1,1,0,0,1,43,26H53V12ZM19,8h6v2H19ZM15,8h2v2H15Zm0,6V12H25v2Zm11.55,7.67-1.93-.52,1.1-4.1,1.93.52Zm1.4,1.84,3.47-2,1,1.73-3.47,2ZM22,42h2v2H22ZM32,56H22V54H32Zm0-4H22V50H32Zm0-4H22V46H32Zm0-4H26V42h6Zm1.43-13.6-4.1-1.09.52-1.94,4.1,1.1ZM48,23a1,1,0,0,1-1,1H35a1,1,0,0,1-1-1V17a1,1,0,0,1,1-1H47a1,1,0,0,1,1,1Z"></path></g></svg>