<svg xmlns="http://www.w3.org/2000/svg" viewBox="0 0 64 64" x="0px" y="0px"><g><rect x="49" y="28" width="2" height="2"></rect><path d="M53.535,25.465a5,5,0,0,0-7.07,0l1.414,1.414a3.072,3.072,0,0,1,4.242,0Z"></path><path d="M54.95,24.05l1.414-1.414a9.012,9.012,0,0,0-12.728,0L45.05,24.05A7.009,7.009,0,0,1,54.95,24.05Z"></path><rect x="26" y="10" width="10" height="4"></rect><rect x="26" y="16" width="10" height="4"></rect><path d="M54,37a3,3,0,0,0-3-3H41a3,3,0,0,0-3,3V57a3,3,0,0,0,3,3H51a3,3,0,0,0,3-3ZM44,36h4v2H44Zm3,7v5H45V43Zm-7-5V36h2v2Zm8,20H44V56h4Zm-2-6a4,4,0,0,1-2.667-6.981l1.334,1.49a2,2,0,1,0,2.666,0l1.334-1.49A4,4,0,0,1,46,52Z"></path><rect x="14" y="10" width="10" height="4"></rect><path d="M11,56H36V54H10v1A1,1,0,0,0,11,56Z"></path><path d="M36,37a5.009,5.009,0,0,1,4-4.9V5a1,1,0,0,0-1-1H11a1,1,0,0,0-1,1V52H36ZM12,9a1,1,0,0,1,1-1H37a1,1,0,0,1,1,1V21a1,1,0,0,1-1,1H13a1,1,0,0,1-1-1Zm9,25H18v3a3,3,0,0,1-6,0V31a3,3,0,0,1,6,0v1h3Z"></path><path d="M15,30a1,1,0,0,0-1,1v6a1,1,0,0,0,2,0V34H15V32h1V31A1,1,0,0,0,15,30Z"></path><rect x="14" y="16" width="10" height="4"></rect></g></svg>