<svg xmlns="http://www.w3.org/2000/svg" viewBox="0 0 64 64" x="0px" y="0px"><g data-name="Digital Graphic-Graphic Tool-Editor-Browser-Digital"><path d="M60,12H4V57a3.009,3.009,0,0,0,3,3H28V40.82a2.98,2.98,0,0,1-.43-5.44l-1.46-2.93a.983.983,0,0,1,.08-1.03l5-7a1.024,1.024,0,0,1,1.62,0l5,7a.983.983,0,0,1,.08,1.03l-1.46,2.93A2.98,2.98,0,0,1,36,40.82V60H57a3.009,3.009,0,0,0,3-3ZM47,22a3,3,0,0,1-2.816-2H39.231a13.893,13.893,0,0,1,6.732,11.173,3,3,0,1,1-2,.023A12.086,12.086,0,0,0,34.686,20.31a2.979,2.979,0,0,1-5.372,0A12.086,12.086,0,0,0,20.037,31.2a3,3,0,1,1-2-.023A13.891,13.891,0,0,1,24.769,20H19.816a3,3,0,1,1,0-2h9.368a2.982,2.982,0,0,1,5.632,0h9.368A2.995,2.995,0,1,1,47,22Z"></path><circle cx="19" cy="34" r="1"></circle><circle cx="45" cy="34" r="1"></circle><circle cx="47" cy="19" r="1"></circle><circle cx="32" cy="19" r="1"></circle><rect x="30" y="41" width="4" height="19"></rect><circle cx="17" cy="19" r="1"></circle><path d="M60,7a3.009,3.009,0,0,0-3-3H7A3.009,3.009,0,0,0,4,7v3H60ZM10,8H8V6h2Zm4,0H12V6h2Zm4,0H16V6h2Z"></path><path d="M36,38a1,1,0,0,0-1-1H29a1,1,0,0,0,0,2h6A1,1,0,0,0,36,38Z"></path><polygon points="28.16 32.09 29.62 35 34.38 35 35.84 32.09 33 28.12 33 32 31 32 31 28.12 28.16 32.09"></polygon></g></svg>