<svg xmlns="http://www.w3.org/2000/svg" viewBox="0 0 64 64" x="0px" y="0px"><title>Document-Paper</title><g><path d="M59.965,32.843A4.982,4.982,0,0,0,56.088,31H56V15c0-.022-.011-.041-.013-.063a.945.945,0,0,0-.051-.257c-.011-.032-.019-.063-.033-.094a1,1,0,0,0-.2-.293l-12-12a.97.97,0,0,0-.294-.2c-.03-.014-.06-.022-.091-.033a.975.975,0,0,0-.262-.052C43.039,2.011,43.021,2,43,2H17a5.006,5.006,0,0,0-5,5v7H7a5.006,5.006,0,0,0-5,5V61h.02a.986.986,0,0,0,.226.657A1,1,0,0,0,3,62H55a1,1,0,0,0,.979-.8l5.005-24.19A4.979,4.979,0,0,0,59.965,32.843ZM52.586,14H45a1,1,0,0,1-1-1V5.414ZM14,7a3,3,0,0,1,3-3H42v9a3,3,0,0,0,3,3h9V31H14ZM7,16h5V31H10.486a5.021,5.021,0,0,0-4.953,4.317L4,46.43V19A3,3,0,0,1,7,16ZM59.025,36.608,54.186,60H4.147L7.514,35.59A3.013,3.013,0,0,1,10.486,33h45.6a3,3,0,0,1,2.937,3.608Z"></path><path d="M27,14a1,1,0,0,1,1,1h2a3,3,0,0,0-2-2.816V11H26v1.184A3,3,0,0,0,24,15c0,1.618,1.476,2.356,2.553,2.895C27.4,18.318,28,18.646,28,19a1,1,0,0,1-2,0H24a3,3,0,0,0,2,2.816V23h2V21.816A3,3,0,0,0,30,19c0-1.618-1.476-2.356-2.553-2.895C26.6,15.682,26,15.354,26,15A1,1,0,0,1,27,14Z"></path><path d="M27,8a9,9,0,1,0,9,9A9.011,9.011,0,0,0,27,8Zm0,16a7,7,0,1,1,7-7A7.008,7.008,0,0,1,27,24Z"></path><rect x="38" y="24" width="2" height="2"></rect><rect x="42" y="24" width="8" height="2"></rect><rect x="38" y="20" width="6" height="2"></rect><rect x="46" y="20" width="4" height="2"></rect></g></svg>