<svg xmlns="http://www.w3.org/2000/svg" viewBox="0 0 64 64" x="0px" y="0px"><g><circle cx="13" cy="14" r="3"></circle><rect x="31" y="17" width="2" height="24"></rect><path d="M27,24.165V41h2V21.807Q28.1,22.914,27,24.165Z"></path><path d="M35,21.807V41h2V24.165Q35.9,22.917,35,21.807Z"></path><path d="M23,28.377V41h2V26.339C24.369,27,23.707,27.681,23,28.377Z"></path><path d="M39,26.339V41h2V28.377C40.293,27.681,39.631,27,39,26.339Z"></path><rect x="4" y="43" width="56" height="2"></rect><path d="M11,38.246V41h2V36.83C12.348,37.3,11.686,37.776,11,38.246Z"></path><path d="M15,35.333V41h2V33.747Q16.031,34.539,15,35.333Z"></path><path d="M19,32.066V41h2V30.283C20.362,30.871,19.691,31.467,19,32.066Z"></path><path d="M43,30.283V41h2V32.066C44.309,31.467,43.638,30.871,43,30.283Z"></path><path d="M62,58.4v2a2.129,2.129,0,0,0-1.34.44,4.233,4.233,0,0,1-4.84,0c-.1-.06-.2-.13-.31-.19a1.889,1.889,0,0,0-1.02-.25,2.129,2.129,0,0,0-1.34.44,4.217,4.217,0,0,1-4.83,0,2.541,2.541,0,0,0-.63-.33,1.962,1.962,0,0,0-.71-.11,2.1,2.1,0,0,0-1.33.44,4.217,4.217,0,0,1-4.83,0,2.129,2.129,0,0,0-1.34-.44,2.1,2.1,0,0,0-1.33.44,4.217,4.217,0,0,1-4.83,0,2.129,2.129,0,0,0-1.34-.44,2.1,2.1,0,0,0-1.33.44,4.217,4.217,0,0,1-4.83,0,2.129,2.129,0,0,0-1.34-.44,2.1,2.1,0,0,0-1.33.44,4.217,4.217,0,0,1-4.83,0,2.1,2.1,0,0,0-1.33-.44,1.968,1.968,0,0,0-.67.1,2.4,2.4,0,0,0-.64.32,4,4,0,0,1-2.44.78,3.91,3.91,0,0,1-2.39-.75A2.092,2.092,0,0,0,9.5,60.4a1.925,1.925,0,0,0-1.01.24c-.12.07-.22.13-.33.2a3.974,3.974,0,0,1-2.41.76,4.009,4.009,0,0,1-2.42-.76A2.1,2.1,0,0,0,2,60.4v-2a3.974,3.974,0,0,1,2.41.76,2.129,2.129,0,0,0,1.34.44,2.1,2.1,0,0,0,1.33-.44c.14-.09.28-.18.43-.26A3.621,3.621,0,0,1,9,58.43V57h6v1.9a4.724,4.724,0,0,1,.71-.31,4.267,4.267,0,0,1,3.69.57,2.1,2.1,0,0,0,1.33.44,2.129,2.129,0,0,0,1.34-.44,4.217,4.217,0,0,1,4.83,0,2.1,2.1,0,0,0,1.33.44,2.129,2.129,0,0,0,1.34-.44,4.217,4.217,0,0,1,4.83,0,2.1,2.1,0,0,0,1.33.44,2.129,2.129,0,0,0,1.34-.44,4.217,4.217,0,0,1,4.83,0,2.1,2.1,0,0,0,1.33.44,2.129,2.129,0,0,0,1.34-.44,3.974,3.974,0,0,1,2.41-.76,3.9,3.9,0,0,1,1.37.22,3.54,3.54,0,0,1,.65.29V57h6v1.43a3.656,3.656,0,0,1,1.49.48c.14.08.27.16.41.25a2.26,2.26,0,0,0,2.68,0A4.009,4.009,0,0,1,62,58.4Z"></path><path d="M9,41V39.573c-.742.48-1.507.955-2.286,1.427Z"></path><path d="M51,36.83V41h2V38.246C52.314,37.776,51.652,37.3,51,36.83Z"></path><rect x="11" y="47" width="2" height="8"></rect><path d="M55,41h2.286c-.779-.472-1.544-.947-2.286-1.427Z"></path><path d="M47,33.747V41h2V35.333Q47.968,34.538,47,33.747Z"></path><rect x="51" y="47" width="2" height="8"></rect><path d="M43,13H59a1,1,0,0,0,1-1,2,2,0,0,0-2-2,1,1,0,0,1-1-1A5,5,0,0,0,47,9a1,1,0,0,1-1,1H44a2,2,0,0,0-2,2A1,1,0,0,0,43,13Z"></path><rect x="12" y="6" width="2" height="2"></rect><rect x="7.05" y="8.05" width="2" height="2" transform="translate(-4.041 8.339) rotate(-44.98)"></rect><rect x="5" y="13" width="2" height="2"></rect><rect x="7.05" y="17.949" width="2" height="2" transform="translate(-11.044 11.249) rotate(-45.02)"></rect><rect x="12" y="20" width="2" height="2"></rect><rect x="16.949" y="17.949" width="2" height="2" transform="translate(-8.142 18.234) rotate(-44.98)"></rect><rect x="19" y="13" width="2" height="2"></rect><rect x="16.949" y="8.05" width="2" height="2" transform="translate(-1.14 15.35) rotate(-45.02)"></rect></g></svg>