<svg xmlns="http://www.w3.org/2000/svg" viewBox="0 0 64 64" x="0px" y="0px"><title>Truck-Delivery-Cargo-Transportation</title><g><rect x="56" y="39" width="4" height="2"></rect><path d="M59.267,33l-4.58-8.476A1,1,0,0,0,53.808,24H44v9Z"></path><path d="M41,12H40V22H51.949A11.01,11.01,0,0,0,41,12Z"></path><path d="M49,46a4,4,0,1,0,4,4A4,4,0,0,0,49,46Zm1,5H48V49h2Z"></path><path d="M59,49a1,1,0,0,0,1-1V47H57V45h3V43H56a2,2,0,0,1-2-2V39a2,2,0,0,1,2-2h4V35.108c0-.036-.013-.071-.015-.108H43a1,1,0,0,1-1-1V24H40V49h3.09a5.993,5.993,0,0,1,11.82,0ZM46,39H42V37h4Z"></path><path d="M13,18.649v5.29a11.007,11.007,0,0,0,5.657,9.616L21,34.856l2.343-1.3A11.007,11.007,0,0,0,29,23.939v-5.29L21,15.1Zm12.707,4.058-5,5a1,1,0,0,1-1.414,0l-3-3,1.414-1.414L20,25.586l4.293-4.293Z"></path><path d="M38,49V42H4v7H8.09a5.993,5.993,0,0,1,11.82,0Z"></path><path d="M38,10H4V40H38ZM31,23.939A13.008,13.008,0,0,1,24.313,35.3l-2.828,1.571a1,1,0,0,1-.97,0L17.687,35.3A13.006,13.006,0,0,1,11,23.939V18a1,1,0,0,1,.594-.914l9-4a1,1,0,0,1,.812,0l9,4A1,1,0,0,1,31,18Z"></path><path d="M14,46a4,4,0,1,0,4,4A4,4,0,0,0,14,46Zm1,5H13V49h2Z"></path></g></svg>