<svg xmlns="http://www.w3.org/2000/svg" viewBox="0 0 64 64" x="0px" y="0px"><g data-name="Flask"><circle cx="40" cy="5" r="2"></circle><rect x="45" y="6" width="2" height="2"></rect><circle cx="29" cy="50" r="1"></circle><circle cx="21" cy="16" r="1"></circle><circle cx="15" cy="47" r="1"></circle><path d="M39.608,55.789,32.985,38.664a15.813,15.813,0,0,1-2.5-.724,12.2,12.2,0,0,0-4.827-.87,12.181,12.181,0,0,0-4.821.87,14.04,14.04,0,0,1-5.509.99,14.008,14.008,0,0,1-4.2-.552L4.41,55.746A3,3,0,0,0,7.137,60H36.863a3,3,0,0,0,2.745-4.211ZM15,50a3,3,0,1,1,3-3A3,3,0,0,1,15,50Zm5,6H18V54h2Zm6-16h2v2H26Zm3,13a3,3,0,1,1,3-3A3,3,0,0,1,29,53Z"></path><circle cx="40" cy="37" r="1"></circle><path d="M58.469,32H32.552l8.9,23.024a4.772,4.772,0,0,1,.291.925c.406.03.821.051,1.253.051A16.958,16.958,0,0,0,58.469,32ZM40,40a3,3,0,1,1,3-3A3,3,0,0,1,40,40Zm10,9a3,3,0,1,1,3-3A3,3,0,0,1,50,49Zm5-11H53V36h2Z"></path><circle cx="50" cy="46" r="1"></circle><path d="M17,8V23a1.009,1.009,0,0,1-.067.361L11.85,36.5a12.231,12.231,0,0,0,3.48.426,12.2,12.2,0,0,0,4.832-.871,14,14,0,0,1,5.5-.989,14.051,14.051,0,0,1,5.5.989c.31.112.619.219.937.32L27.067,23.361A1.009,1.009,0,0,1,27,23V8Zm4,22H19V28h2ZM18,16a3,3,0,1,1,3,3A3,3,0,0,1,18,16Zm7,10H23V24h2Z"></path><path d="M48.667,22.993A1,1,0,0,1,48,22.05V16H38v6.05a1,1,0,0,1-.667.943,17.036,17.036,0,0,0-6.61,4.275L31.779,30H57.4A16.989,16.989,0,0,0,48.667,22.993ZM42,21H40V19h2Zm4,5H44V24h2Z"></path><path d="M50,12H36a1,1,0,0,0,0,2H50a1,1,0,0,0,0-2Z"></path><path d="M30,4H14a1,1,0,0,0,0,2H30a1,1,0,0,0,0-2Z"></path></g></svg>