<svg xmlns="http://www.w3.org/2000/svg" viewBox="0 0 64 64" x="0px" y="0px"><title>Clock-Time-Love</title><g><path d="M57,2H7A5.006,5.006,0,0,0,2,7V57a5.006,5.006,0,0,0,5,5H57a5.006,5.006,0,0,0,5-5V7A5.006,5.006,0,0,0,57,2Zm3,55a3,3,0,0,1-3,3H7a3,3,0,0,1-3-3V7A3,3,0,0,1,7,4H57a3,3,0,0,1,3,3Z"></path><path d="M57,5H7A2,2,0,0,0,5,7V57a2,2,0,0,0,2,2H57a2,2,0,0,0,2-2V7A2,2,0,0,0,57,5Zm0,52H7V7H57Z"></path><path d="M31.515,41.875A1.007,1.007,0,0,0,32,42a.994.994,0,0,0,.485-.126C32.874,41.658,42,36.515,42,30h0a6,6,0,0,0-5.991-6h-.017a5.877,5.877,0,0,0-2.989.82V14a1,1,0,0,0-2,0V24.822A5.854,5.854,0,0,0,28.021,24H28a5.976,5.976,0,0,0-6,5.993c0,2.377,1.2,4.831,3.566,7.3A28.545,28.545,0,0,0,31.515,41.875ZM25.141,27.191A4.034,4.034,0,0,1,28.005,26h.014A3.935,3.935,0,0,1,31,27.411V32a1,1,0,0,0,2,0V27.416A3.914,3.914,0,0,1,35.992,26H36A4,4,0,0,1,40,30h0c0,4.585-6.195,8.729-8,9.836a26.653,26.653,0,0,1-4.99-3.936C25.012,33.825,24,31.838,24,30A4.011,4.011,0,0,1,25.141,27.191Z"></path><path d="M31.08,9.38a.757.757,0,0,0,.09.18,1.576,1.576,0,0,0,.12.15,1.014,1.014,0,0,0,1.42,0l.12-.15a.8.8,0,0,0,.09-.18.6.6,0,0,0,.059-.18A1.234,1.234,0,0,0,33,9a1,1,0,0,0-.08-.38,1.155,1.155,0,0,0-.21-.33,1.047,1.047,0,0,0-1.42,0,1.155,1.155,0,0,0-.21.33A.838.838,0,0,0,31,9a1.355,1.355,0,0,0,.02.2A.636.636,0,0,0,31.08,9.38Z"></path><path d="M19.79,12.79a1.029,1.029,0,0,0,.71.29,1.2,1.2,0,0,0,.189-.02A.609.609,0,0,0,20.88,13a.776.776,0,0,0,.18-.09,1.712,1.712,0,0,0,.15-.12,1.032,1.032,0,0,0,.21-.33,1,1,0,0,0-.21-1.08,1.9,1.9,0,0,0-.15-.13.776.776,0,0,0-.18-.09.609.609,0,0,0-.191-.06,1,1,0,0,0-.9.28.988.988,0,0,0-.21.32.942.942,0,0,0,0,.76A1.032,1.032,0,0,0,19.79,12.79Z"></path><path d="M12.08,21.5a1.369,1.369,0,0,0,.2-.02.646.646,0,0,0,.18-.06.757.757,0,0,0,.18-.09l.15-.12a1.014,1.014,0,0,0,0-1.42,1,1,0,0,0-1.09-.21,1.021,1.021,0,0,0-.33.21,1,1,0,0,0,.71,1.71Z"></path><path d="M9,33a1.2,1.2,0,0,0,.189-.02.609.609,0,0,0,.191-.06.568.568,0,0,0,.17-.09,1,1,0,0,0,.16-.12A1.033,1.033,0,0,0,10,32a1.052,1.052,0,0,0-.29-.71c-.05-.04-.1-.08-.16-.12a.568.568,0,0,0-.17-.09.609.609,0,0,0-.191-.06.965.965,0,0,0-1.109.6A1,1,0,0,0,8,32a1.028,1.028,0,0,0,.29.71A1.05,1.05,0,0,0,9,33Z"></path><path d="M11.37,44.21a1.05,1.05,0,0,0,.71.29,1.369,1.369,0,0,0,.2-.02.646.646,0,0,0,.18-.06.757.757,0,0,0,.18-.09,1.712,1.712,0,0,0,.15-.12,1.032,1.032,0,0,0,.21-.33.943.943,0,0,0,0-.76,1.032,1.032,0,0,0-.21-.33l-.15-.12a.757.757,0,0,0-.18-.09.646.646,0,0,0-.18-.06.993.993,0,0,0-1.2.98.977.977,0,0,0,.08.38A1.155,1.155,0,0,0,11.37,44.21Z"></path><path d="M19.79,52.63a1.029,1.029,0,0,0,.71.29,1.2,1.2,0,0,0,.189-.02.609.609,0,0,0,.191-.06.776.776,0,0,0,.18-.09l.15-.12a1.155,1.155,0,0,0,.21-.33,1,1,0,0,0,.08-.38,1.234,1.234,0,0,0-.021-.2.6.6,0,0,0-.059-.18.8.8,0,0,0-.09-.18l-.12-.15a1.712,1.712,0,0,0-.15-.12.776.776,0,0,0-.18-.09.609.609,0,0,0-.191-.06,1,1,0,0,0-.9.27,1.576,1.576,0,0,0-.12.15.757.757,0,0,0-.09.18.636.636,0,0,0-.06.18,1.355,1.355,0,0,0-.02.2.838.838,0,0,0,.08.38A1.155,1.155,0,0,0,19.79,52.63Z"></path><path d="M32.71,54.29a1.047,1.047,0,0,0-1.42,0,1.155,1.155,0,0,0-.21.33A.838.838,0,0,0,31,55a1,1,0,1,0,2,0,1,1,0,0,0-.08-.38A1.155,1.155,0,0,0,32.71,54.29Z"></path><path d="M42.79,52.63l.149.12a.782.782,0,0,0,.181.09.6.6,0,0,0,.19.06,1.213,1.213,0,0,0,.19.02,1.052,1.052,0,0,0,.71-.29,1.155,1.155,0,0,0,.21-.33.942.942,0,0,0,0-.76.933.933,0,0,0-.21-.33,1.047,1.047,0,0,0-1.42,0,.933.933,0,0,0-.21.33.943.943,0,0,0,0,.76A1.155,1.155,0,0,0,42.79,52.63Z"></path><path d="M50.99,43.88a1.618,1.618,0,0,0,.1.18.789.789,0,0,0,.12.15,1.05,1.05,0,0,0,.71.29,1.213,1.213,0,0,0,.189-.02.6.6,0,0,0,.191-.06.568.568,0,0,0,.17-.09.983.983,0,0,0,.15-.12,1.738,1.738,0,0,0,.13-.15,1.678,1.678,0,0,0,.09-.18.577.577,0,0,0,.059-.19,1.116,1.116,0,0,0,.021-.19,1.017,1.017,0,0,0-.3-.71.609.609,0,0,0-.15-.12.568.568,0,0,0-.17-.09.6.6,0,0,0-.191-.06,1.054,1.054,0,0,0-.9.27,1.052,1.052,0,0,0-.29.71,1.359,1.359,0,0,0,.019.19A1.144,1.144,0,0,0,50.99,43.88Z"></path><path d="M54.439,32.83a.782.782,0,0,0,.181.09.6.6,0,0,0,.19.06A1.213,1.213,0,0,0,55,33a1.2,1.2,0,0,0,.189-.02.609.609,0,0,0,.191-.06.568.568,0,0,0,.17-.09c.059-.04.11-.08.16-.12a1.014,1.014,0,0,0,0-1.42,1,1,0,0,0-.16-.12.568.568,0,0,0-.17-.09.609.609,0,0,0-.191-.06.809.809,0,0,0-.379,0,.6.6,0,0,0-.19.06.782.782,0,0,0-.181.09,1.7,1.7,0,0,0-.149.12,1.014,1.014,0,0,0,0,1.42Z"></path><path d="M51.21,21.21a.933.933,0,0,0,.33.21,1,1,0,0,0,.38.08,1.213,1.213,0,0,0,.189-.02.6.6,0,0,0,.191-.06.568.568,0,0,0,.17-.09.609.609,0,0,0,.15-.12.911.911,0,0,0,.22-.33.974.974,0,0,0-.22-1.09.983.983,0,0,0-.15-.12.568.568,0,0,0-.17-.09.6.6,0,0,0-.191-.06,1,1,0,0,0-.9.27,1.033,1.033,0,0,0-.29.71.967.967,0,0,0,.07.38A1.268,1.268,0,0,0,51.21,21.21Z"></path><path d="M42.79,12.79a1.014,1.014,0,0,0,1.42,0,.933.933,0,0,0,.21-.33,1,1,0,0,0,.08-.38,1,1,0,1,0-2,0,1,1,0,0,0,.08.38A.933.933,0,0,0,42.79,12.79Z"></path></g></svg>