<svg xmlns="http://www.w3.org/2000/svg" viewBox="0 0 64 64" x="0px" y="0px"><g data-name="Touch Screen"><rect x="32" y="53" width="14" height="4"></rect><rect x="33" y="59" width="12" height="1"></rect><path d="M57,7a3,3,0,0,0-3-3H10A3,3,0,0,0,7,7v5H9a2,2,0,0,1,2,2V24a2,2,0,0,1-2,2H7v5a3,3,0,0,0,3,3H27.184A2.947,2.947,0,0,1,31,32.184V25.7a7.016,7.016,0,1,1,6-.977v5.462A2.94,2.94,0,0,1,40.529,31.4a2.955,2.955,0,0,1,4,1A2.959,2.959,0,0,1,48.816,34H54a3,3,0,0,0,3-3ZM27.343,26.071,25.414,28H27v2H23a1,1,0,0,1-1-1V25h2v1.586l1.929-1.929ZM25.929,13.343,24,11.414V13H22V9a1,1,0,0,1,1-1h4v2H25.414l1.929,1.929ZM44,29a1,1,0,0,1-1,1H39V28h1.586l-1.929-1.929,1.414-1.414L42,26.586V25h2Zm0-16H42V11.414l-1.929,1.929-1.414-1.414L40.586,10H39V8h4a1,1,0,0,1,1,1Z"></path><path d="M47,35a1,1,0,0,0-2,0v2H43V34a1,1,0,0,0-2,0v3H39V33a1,1,0,0,0-2,0v4H35V23a1,1,0,0,0-2,0V41H31V35a1,1,0,0,0-2,0v8.649l3.781,4.726A1,1,0,0,1,33,49v2H45V49a1.012,1.012,0,0,1,.071-.372L47,43.808Z"></path><rect x="7" y="14" width="2" height="10"></rect><path d="M34,20a2.994,2.994,0,0,1,2.864,2.155A5,5,0,1,0,31,23.563V23A3,3,0,0,1,34,20Z"></path></g></svg>