<svg xmlns="http://www.w3.org/2000/svg" viewBox="0 0 64 64" x="0px" y="0px"><g><path d="M4,53a7.008,7.008,0,0,0,7,7H59a1,1,0,0,0,1-1V44H53a3,3,0,0,1-3-3V35a3,3,0,0,1,3-3h7V20H11a8.983,8.983,0,0,1-6.365-2.63A9.407,9.407,0,0,1,4,16.661ZM32,24A16,16,0,1,1,16,40,16.019,16.019,0,0,1,32,24Z"></path><path d="M32,54A14,14,0,1,0,18,40,14.015,14.015,0,0,0,32,54ZM25.636,32.293,32,38.657l6.364-6.364,1.414,1.414L33,40.485V41h5v2H33v2h5v2H33v3H31V47H26V45h5V43H26V41h5v-.515l-6.778-6.778Z"></path><path d="M60,8V5a1,1,0,0,0-1-1H11.308a7.186,7.186,0,0,0-7.29,6.5c-.016.217-.016.435-.011.651,0,.088.008.175.013.263.01.165.024.331.046.494.008.066.018.131.029.2.03.187.066.373.111.557l.033.133q.081.3.186.593l.033.093q.115.3.257.592c.013.027.025.054.039.081.1.189.2.372.312.552.02.031.037.064.056.094.111.172.232.336.357.5.027.035.051.073.079.107a7.108,7.108,0,0,0,.492.552A6.989,6.989,0,0,0,11,18H60V14H8V12H60V10H8V8Z"></path><path d="M52,35v6a1,1,0,0,0,1,1h7V34H53A1,1,0,0,0,52,35Zm4,1a2,2,0,1,1-2,2A2,2,0,0,1,56,36Z"></path></g></svg>