<svg xmlns="http://www.w3.org/2000/svg" viewBox="0 0 64 64" x="0px" y="0px"><g data-name="Monas Tower-Monas-Central Jakarta-Landmark-Indonesia"><path d="M34,6c0-1.1-2-4-2-4s-2,2.9-2,4a2,2,0,0,0,4,0Z"></path><polygon points="34.22 12 34.72 10 29.28 10 29.78 12 34.22 12"></polygon><polygon points="33.06 14 30.94 14 29.06 46 34.94 46 33.06 14"></polygon><polygon points="37.63 56 42.3 52 21.7 52 26.37 56 37.63 56"></polygon><rect x="19" y="48" width="26" height="2"></rect><polygon points="49 60 49 58 15 58 15 60 2 60 2 62 62 62 62 60 49 60"></polygon></g></svg>