<svg xmlns="http://www.w3.org/2000/svg" viewBox="0 0 64 64" x="0px" y="0px"><g data-name="Document"><rect x="17" y="34" width="30" height="18"></rect><rect x="17" y="20" width="30" height="6"></rect><path d="M12,60H52a1,1,0,0,0,1-1V12.846a.992.992,0,0,0-.292-.706L46,5.417V11a1,1,0,0,0,1,1h4v2H47a3,3,0,0,1-3-3V4H12a1,1,0,0,0-1,1V59A1,1,0,0,0,12,60ZM19,8H39v2H19ZM15,8h2v2H15Zm0,4H39v2H15Zm0,7a1,1,0,0,1,1-1H48a1,1,0,0,1,1,1v8a1,1,0,0,1-1,1H16a1,1,0,0,1-1-1Zm0,14a1,1,0,0,1,1-1H48a1,1,0,0,1,1,1V53a1,1,0,0,1-1,1H16a1,1,0,0,1-1-1Z"></path></g></svg>