<svg xmlns="http://www.w3.org/2000/svg" viewBox="0 0 64 64" x="0px" y="0px"><g data-name="Food Truck-Fast Food-Truck-Van-Vehicle"><polygon points="19.554 20 15.804 26 21.001 26 21 20 19.554 20"></polygon><path d="M53.74,42h5.17c.03,0,.06.01.09.01V39.24L58.38,38H56a2.006,2.006,0,0,1-2-2V34a2.006,2.006,0,0,1,2-2h2V24H56v5a2.006,2.006,0,0,1-2,2H28a2.006,2.006,0,0,1-2-2V22.2l-.81-.54A2,2,0,0,1,26.3,18H57.7c.04,0,.08.02.12.02A3,3,0,0,0,55,16H18.07a1.024,1.024,0,0,0-.83.44L10,27.3a2,2,0,0,1-.9.74l-2.22.88a.8.8,0,0,0-.16.08h.19a3.08,3.08,0,0,1,3.02,2.31,3.014,3.014,0,0,1-.82,2.81A2.922,2.922,0,0,1,7,35H5v.24l-1,2V43a3.009,3.009,0,0,0,3,3H9a7,7,0,0,1,14,0H41a7,7,0,0,1,12.74-4ZM23,32H19V30h4Zm0-6a2,2,0,0,1-2,2H15.8a2,2,0,0,1-1.7-3.06l3.75-6a1.99,1.99,0,0,1,1.7-.94H21a2,2,0,0,1,2,2ZM36,43H30V41h6Zm0-4H30V37h6Zm0-4H30V33h6Zm4,8H38V41h2Zm0-4H38V37h2Zm0-4H38V33h2Z"></path><circle cx="16" cy="46" r="1"></circle><circle cx="48" cy="46" r="1"></circle><path d="M48,41a5,5,0,1,0,5,5A5,5,0,0,0,48,41Zm0,8a3,3,0,1,1,3-3A3,3,0,0,1,48,49Z"></path><path d="M28.19,23.66,28,23.54V29H54V24H29.3A2.014,2.014,0,0,1,28.19,23.66Z"></path><polygon points="26.3 20 29.3 22 60.7 22 57.7 20 26.3 20"></polygon><path d="M59,46a.928.928,0,0,0,.69-.29,1,1,0,0,0,.28-.97A1.059,1.059,0,0,0,58.91,44h-4.2A7.268,7.268,0,0,1,55,46Z"></path><rect x="56" y="34" width="2" height="2"></rect><path d="M7,33a.928.928,0,0,0,.69-.29,1,1,0,0,0,.28-.97A1.059,1.059,0,0,0,6.91,31H5.09a3.366,3.366,0,0,0-.09.71V33Z"></path><path d="M16,41a5,5,0,1,0,5,5A5,5,0,0,0,16,41Zm0,8a3,3,0,1,1,3-3A3,3,0,0,1,16,49Z"></path></g></svg>