<svg xmlns="http://www.w3.org/2000/svg" viewBox="0 0 48 48" x="0px" y="0px"><g data-name="Online Order"><rect x="13" y="16" width="2" height="2"></rect><rect x="19" y="35" width="10" height="6"></rect><circle cx="14.5" cy="20.5" r="0.5"></circle><rect x="17" y="43" width="14" height="2"></rect><polygon points="17 15 17 18 25 18 25 12 17 12 17 15"></polygon><path d="M45,32.1V3.9a.9.9,0,0,0-.9-.9H3.9a.9.9,0,0,0-.9.9V32.1a.9.9,0,0,0,.9.9H44.1A.9.9,0,0,0,45,32.1ZM5,5A1,1,0,0,1,6,4H42a1,1,0,0,1,1,1V24H41V6H7V24H5ZM29,16V14h6v2Zm4,2v2H29V18Zm2,0h2v2H35ZM25,20.5a1.5,1.5,0,0,1-3,0,1.483,1.483,0,0,1,.092-.5H15.908a1.483,1.483,0,0,1,.092.5,1.5,1.5,0,0,1-3,0,1.483,1.483,0,0,1,.092-.5H12a1,1,0,0,1-1-1V15a1,1,0,0,1,1-1h3V11a1,1,0,0,1,1-1H26a1,1,0,0,1,1,1v8a1,1,0,0,1-1,1H24.908A1.483,1.483,0,0,1,25,20.5ZM44,28H4V26H44Z"></path><circle cx="23.5" cy="20.5" r="0.5"></circle></g></svg>