<svg xmlns="http://www.w3.org/2000/svg" viewBox="0 0 64 64" x="0px" y="0px"><g><path d="M37.97,28.757,37,24.878v-.157a58.975,58.975,0,0,0-2.608-17.35L32.956,2.706a1,1,0,0,0-1.912,0L29.608,7.371A58.975,58.975,0,0,0,27,24.721v.157l-.97,3.879c-.008.034,0,.068,0,.1A.951.951,0,0,0,26,29V53a1,1,0,0,0,1,1h1v2H27a1,1,0,0,0-1,1v4a1,1,0,0,0,1,1H37a1,1,0,0,0,1-1V57a1,1,0,0,0-1-1H36V54h1a1,1,0,0,0,1-1V29a.951.951,0,0,0-.028-.141C37.967,28.825,37.978,28.791,37.97,28.757ZM28.781,26h6.438l.5,2H28.281Zm2.74-18.042L32,6.4l.479,1.558A56.915,56.915,0,0,1,34.995,24h-5.99A56.915,56.915,0,0,1,31.521,7.958ZM36,60H28V58h8Zm-2-4H30V54h4Zm2-4H28V30h8Z"></path><path d="M51,54a1,1,0,0,0,1-1V29a.951.951,0,0,0-.028-.141c-.005-.034.006-.068,0-.1L51,24.878v-.157a58.975,58.975,0,0,0-2.608-17.35L46.956,2.706a1,1,0,0,0-1.912,0L43.608,7.371A58.975,58.975,0,0,0,41,24.721v.157l-.97,3.879c-.008.034,0,.068,0,.1A.951.951,0,0,0,40,29V53a1,1,0,0,0,1,1h1v2H41a1,1,0,0,0-1,1v4a1,1,0,0,0,1,1H51a1,1,0,0,0,1-1V57a1,1,0,0,0-1-1H50V54Zm-1-2H42V30h8ZM42.781,26h6.438l.5,2H42.281Zm2.74-18.042L46,6.4l.479,1.558A56.915,56.915,0,0,1,49,24h-5.99A56.915,56.915,0,0,1,45.521,7.958ZM50,60H42V58h8Zm-2-4H44V54h4Z"></path><path d="M23.97,28.757,23,24.878v-.157a58.975,58.975,0,0,0-2.608-17.35L18.956,2.706a1,1,0,0,0-1.912,0L15.608,7.371A58.975,58.975,0,0,0,13,24.721v.157l-.97,3.879c-.008.034,0,.068,0,.1A.951.951,0,0,0,12,29V53a1,1,0,0,0,1,1h1v2H13a1,1,0,0,0-1,1v4a1,1,0,0,0,1,1H23a1,1,0,0,0,1-1V57a1,1,0,0,0-1-1H22V54h1a1,1,0,0,0,1-1V29a.951.951,0,0,0-.028-.141C23.967,28.825,23.978,28.791,23.97,28.757ZM14.781,26h6.438l.5,2H14.281Zm2.74-18.042L18,6.4l.479,1.558A56.915,56.915,0,0,1,21,24h-5.99A56.915,56.915,0,0,1,17.521,7.958ZM22,60H14V58h8Zm-2-4H16V54h4Zm2-4H14V30h8Z"></path></g></svg>