<svg xmlns="http://www.w3.org/2000/svg" viewBox="0 0 64 64" x="0px" y="0px"><g><path d="M46.69,37.3l-6.52-2.04A5.02,5.02,0,0,0,37,33.1V30.79a11.134,11.134,0,0,0,2.78-2.01A10.919,10.919,0,0,0,42.95,22H43a4,4,0,0,0,0-8V12a10.007,10.007,0,0,0,4-8V3a1,1,0,0,0-1-1H28a7.008,7.008,0,0,0-7,7v5a4,4,0,1,0,0,8h.08A11.352,11.352,0,0,0,27,30.76V33.1a5.02,5.02,0,0,0-3.17,2.16l-6.52,2.03A8.963,8.963,0,0,0,11,45.88V61a1,1,0,0,0,1,1H52a1,1,0,0,0,1-1V45.88A8.941,8.941,0,0,0,46.69,37.3ZM21,20a2.015,2.015,0,0,1-2-2,2.006,2.006,0,0,1,2-2ZM39,38v1.17a3.026,3.026,0,0,0-2,0v-4A3.014,3.014,0,0,1,39,38Zm6-20a2.015,2.015,0,0,1-2,2V16A2.006,2.006,0,0,1,45,18ZM23,9a5,5,0,0,1,5-5H45a7.977,7.977,0,0,1-3.56,6.65A7.947,7.947,0,0,1,37,12a8,8,0,0,1-7.55-5.39,1,1,0,0,0-.95-.67.992.992,0,0,0-.94.67A8.123,8.123,0,0,1,23,11.41Zm0,11.69V13.53a10.107,10.107,0,0,0,5.5-4.28A9.986,9.986,0,0,0,37,14a10.088,10.088,0,0,0,4-.83V21c0,.26-.02.52-.04.77l-6.8-1.36a11.214,11.214,0,0,0-4.32,0l-6.77,1.36A9.789,9.789,0,0,1,23,20.69Zm2.84,6.78,4.27-.48-.22-1.98-5.52.61a9.094,9.094,0,0,1-.87-1.9l6.74-1.35a9.065,9.065,0,0,1,3.52,0l6.81,1.36a8.791,8.791,0,0,1-.86,1.9l-5.6-.62-.22,1.98,4.35.49a9.056,9.056,0,0,1-6.89,2.5A8.741,8.741,0,0,1,25.84,27.47ZM35,31.57v6.19l-3,6-3-6V31.57a10.138,10.138,0,0,0,2.21.4q.39.03.78.03A10.841,10.841,0,0,0,35,31.57ZM25,38a3.014,3.014,0,0,1,2-2.83v4a3.026,3.026,0,0,0-2,0ZM51,60H45V47H43V60H21V47H19V60H13V45.88a6.964,6.964,0,0,1,4.91-6.68l5.13-1.6c-.01.13-.04.26-.04.4v4a1,1,0,0,0,2,0,1,1,0,0,1,2,0,.992.992,0,0,0,1.97.17l2.14,4.28a1,1,0,0,0,1.78,0l2.14-4.28A.992.992,0,0,0,37,42a1,1,0,0,1,2,0,1,1,0,0,0,2,0V38c0-.14-.03-.27-.04-.4l5.13,1.61A6.943,6.943,0,0,1,51,45.88Z"></path><circle cx="28" cy="18" r="2"></circle><circle cx="36" cy="18" r="2"></circle></g></svg>