<svg xmlns="http://www.w3.org/2000/svg" viewBox="0 0 64 64" x="0px" y="0px"><g data-name="Smartphone-Cloud Computing"><circle cx="16" cy="40" r="2"></circle><rect x="47" y="37" width="2" height="2"></rect><rect x="47" y="41" width="2" height="2"></rect><circle cx="48" cy="26" r="1"></circle><path d="M58.05,19.76A8.021,8.021,0,0,0,52,17a1,1,0,0,1-1-1,5,5,0,0,0-5-5,4.946,4.946,0,0,0-3.58,1.52,1.039,1.039,0,0,1-.86.29,1.026,1.026,0,0,1-.74-.52,9.991,9.991,0,0,0-18.73,3.46,1,1,0,0,1-1.68.6A4.995,4.995,0,0,0,12,20a1.088,1.088,0,0,1-.34.8,1.034,1.034,0,0,1-.8.27A5.605,5.605,0,0,0,10,21a6.013,6.013,0,0,0-4.49,2.02,5.933,5.933,0,0,0-1.46,4.74A6.133,6.133,0,0,0,10.27,33H15V31h2v2h4V27a3.009,3.009,0,0,1,3-3H40a3.009,3.009,0,0,1,3,3v6h4V31h2v2h2.72a8.175,8.175,0,0,0,8.19-6.81A7.961,7.961,0,0,0,58.05,19.76ZM17,29H15V27h2Zm0-4H15V23h2ZM47,15h2v2H47Zm-4,0h2v2H43Zm5,14a3,3,0,1,1,3-3A3.009,3.009,0,0,1,48,29Zm4,2V29a4,4,0,0,0,4-4h2A6,6,0,0,1,52,31Z"></path><rect x="29" y="26" width="6" height="2"></rect><path d="M40,26H37v2a2.006,2.006,0,0,1-2,2H29a2.006,2.006,0,0,1-2-2V26H24a1,1,0,0,0-1,1V53a1,1,0,0,0,1,1H40a1,1,0,0,0,1-1V27A1,1,0,0,0,40,26ZM29,47H27V45h2Zm0-4H27V41h2Zm0-4H27V37h2Zm4,8H31V45h2Zm0-4H31V41h2Zm0-4H31V37h2Zm4,8H35V45h2Zm0-4H35V41h2Zm0-4H35V37h2Z"></path><rect x="47" y="33" width="2" height="2"></rect><rect x="15" y="33" width="2" height="2"></rect></g></svg>