<svg xmlns="http://www.w3.org/2000/svg" viewBox="0 0 64 64" x="0px" y="0px"><g data-name="Edit Code"><path d="M57,2H7A5.006,5.006,0,0,0,2,7V57a5.006,5.006,0,0,0,5,5H57a5.006,5.006,0,0,0,5-5V7A5.006,5.006,0,0,0,57,2ZM7,4H57a3,3,0,0,1,3,3v3H4V7A3,3,0,0,1,7,4ZM57,60H7a3,3,0,0,1-3-3V12H60V57A3,3,0,0,1,57,60Z"></path><rect x="8" y="6" width="2" height="2"></rect><rect x="12" y="6" width="2" height="2"></rect><rect x="16" y="6" width="2" height="2"></rect><rect x="23" y="6" width="30" height="2"></rect><path d="M51,18a5.006,5.006,0,0,0-5,5V49a1,1,0,0,0,.3.7l0,0,3,3A1,1,0,0,0,50,53v2a1,1,0,0,0,2,0V53a1,1,0,0,0,.707-.293l3-3,0,0A1,1,0,0,0,56,49V23A5.006,5.006,0,0,0,51,18ZM50,31V45.5L48,47V29h6V47l-2-1.5V31Zm4-4H48V26h6Zm-3-7a3,3,0,0,1,3,3v1H48V23A3,3,0,0,1,51,20Zm.586,31H50.414l-1.892-1.892L51,47.25l2.478,1.858Z"></path><path d="M43,33H39.406a13.916,13.916,0,0,0-1.1-2.649l2.543-2.543a1,1,0,0,0,0-1.414l-4.244-4.243a1,1,0,0,0-1.414,0l-2.543,2.543A13.866,13.866,0,0,0,30,23.594V20a1,1,0,0,0-1-1H23a1,1,0,0,0-1,1v3.594a13.866,13.866,0,0,0-2.649,1.1l-2.543-2.543a1,1,0,0,0-1.414,0L11.15,26.394a1,1,0,0,0,0,1.414l2.543,2.543A13.916,13.916,0,0,0,12.594,33H9a1,1,0,0,0-1,1v6a1,1,0,0,0,1,1h3.594a13.916,13.916,0,0,0,1.1,2.649L11.15,46.192a1,1,0,0,0,0,1.414l4.244,4.243a1,1,0,0,0,1.414,0l2.543-2.543A13.866,13.866,0,0,0,22,50.406V54a1,1,0,0,0,1,1h6a1,1,0,0,0,1-1V50.406a13.866,13.866,0,0,0,2.649-1.1l2.543,2.543a1,1,0,0,0,1.414,0l4.244-4.243a1,1,0,0,0,0-1.414l-2.543-2.543A13.916,13.916,0,0,0,39.406,41H43a1,1,0,0,0,1-1V34A1,1,0,0,0,43,33Zm-1,6H38.639a1,1,0,0,0-.973.77,11.965,11.965,0,0,1-1.46,3.518,1,1,0,0,0,.144,1.233L38.729,46.9,35.9,49.728l-2.378-2.379a1,1,0,0,0-1.233-.144,11.9,11.9,0,0,1-3.518,1.46,1,1,0,0,0-.77.973V53H24V49.638a1,1,0,0,0-.77-.973,11.9,11.9,0,0,1-3.518-1.46,1,1,0,0,0-1.233.144L16.1,49.728,13.271,46.9l2.379-2.378a1,1,0,0,0,.144-1.233,11.965,11.965,0,0,1-1.46-3.518,1,1,0,0,0-.973-.77H10V35h3.361a1,1,0,0,0,.973-.77,11.965,11.965,0,0,1,1.46-3.518,1,1,0,0,0-.144-1.233L13.271,27.1l2.83-2.829,2.378,2.379a1,1,0,0,0,1.233.144,11.9,11.9,0,0,1,3.518-1.46,1,1,0,0,0,.77-.973V21h4v3.362a1,1,0,0,0,.77.973,11.9,11.9,0,0,1,3.518,1.46,1,1,0,0,0,1.233-.144L35.9,24.272l2.83,2.829L36.35,29.479a1,1,0,0,0-.144,1.233,11.965,11.965,0,0,1,1.46,3.518,1,1,0,0,0,.973.77H42Z"></path><path d="M26,29a8,8,0,1,0,8,8A8.009,8.009,0,0,0,26,29Zm0,14a6,6,0,1,1,6-6A6.006,6.006,0,0,1,26,43Z"></path></g></svg>