<svg xmlns="http://www.w3.org/2000/svg" viewBox="0 0 64 64" x="0px" y="0px"><g><path d="M8,23H30a6,6,0,0,0,0-12H27.937A8,8,0,0,0,12.573,7.042,3.915,3.915,0,0,0,12,7a4,4,0,0,0-4,4A6,6,0,0,0,8,23ZM8,13H9.184a1,1,0,0,0,.942-1.333A1.973,1.973,0,0,1,12,9a1.96,1.96,0,0,1,.813.179,1.006,1.006,0,0,0,.845-.011,1,1,0,0,0,.535-.654,6,6,0,1,1,11.555,3.2A1,1,0,0,0,26.706,13H30a4,4,0,0,1,0,8H8a4,4,0,0,1,0-8Z"></path><path d="M8,35a3,3,0,1,0-3,3A3,3,0,0,0,8,35ZM4,35a1,1,0,1,1,1,1A1,1,0,0,1,4,35Z"></path><path d="M15,35V29H13v5H10v2h4A1,1,0,0,0,15,35Z"></path><path d="M30,42a3,3,0,1,0-3-3A3,3,0,0,0,30,42Zm0-4a1,1,0,1,1-1,1A1,1,0,0,1,30,38Z"></path><path d="M21,38H20V29H18V39a1,1,0,0,0,1,1h2Z"></path><rect x="13" y="25" width="2" height="2"></rect><rect x="18" y="25" width="2" height="2"></rect><rect x="23" y="38" width="2" height="2"></rect><rect x="22" y="11" width="2" height="2"></rect><rect x="18" y="11" width="2" height="2"></rect><path d="M36,33V29a1,1,0,0,0-1-1H31a1,1,0,0,0-1,1v4a1,1,0,0,0,1,1h4A1,1,0,0,0,36,33Zm-2-1H32V30h2Z"></path><path d="M26,32h2V30H26.414L25,28.586V25H23v4a1,1,0,0,0,.293.707l2,2A1,1,0,0,0,26,32Z"></path><path d="M57,44H56V13a3,3,0,0,0-3-3H45a3,3,0,0,0-3,3V52a1,1,0,0,1-1,1H21a1,1,0,0,1-1-1V50H18v2a3,3,0,0,0,3,3H41a3,3,0,0,0,3-3V13a1,1,0,0,1,1-1h8a1,1,0,0,1,1,1V44H53a5.006,5.006,0,0,0-5,5v8a5.006,5.006,0,0,0,5,5h4a5.006,5.006,0,0,0,5-5V49A5.006,5.006,0,0,0,57,44Zm-4,2h4a3,3,0,0,1,3,3v1H56V48H54v2H50V49A3,3,0,0,1,53,46Zm4,14H53a3,3,0,0,1-3-3V52H60v5A3,3,0,0,1,57,60Z"></path><rect x="18" y="46" width="2" height="2"></rect><rect x="18" y="42" width="2" height="2"></rect><polygon points="10 53 10 51 8 51 8 49 6 49 6 51 4 51 4 53 6 53 6 55 8 55 8 53 10 53"></polygon><rect x="6" y="45" width="2" height="2"></rect><rect x="6" y="41" width="2" height="2"></rect><polygon points="14 54 12 54 12 56 10 56 10 58 12 58 12 60 14 60 14 58 16 58 16 56 14 56 14 54"></polygon><rect x="12" y="50" width="2" height="2"></rect><rect x="12" y="46" width="2" height="2"></rect><rect x="48" y="6" width="2" height="2"></rect><rect x="52" y="6" width="2" height="2"></rect><rect x="44" y="6" width="2" height="2"></rect></g></svg>