<svg xmlns="http://www.w3.org/2000/svg" viewBox="0 0 32 32" x="0px" y="0px"><title>Money</title><g><path d="M29,2H25a2,2,0,0,0-2-2H21a2,2,0,0,0-2,2H13a2,2,0,0,0-2-2H9A2,2,0,0,0,7,2H3A3,3,0,0,0,0,5V29a3,3,0,0,0,3,3H18a1,1,0,0,0,0-2H3a1,1,0,0,1-1-1V10H30v8a1,1,0,0,0,2,0V5A3,3,0,0,0,29,2ZM2,8V5A1,1,0,0,1,3,4H7V5A1,1,0,0,0,9,5V2h2V5a1,1,0,0,0,2,0V4h6V5a1,1,0,0,0,2,0V2h2V5a1,1,0,0,0,2,0V4h4a1,1,0,0,1,1,1V8Z"></path><path d="M11,14a1,1,0,0,0-1-1H6a1,1,0,0,0-1,1v4a1,1,0,0,0,1,1h4a1,1,0,0,0,1-1ZM9,17H7V15H9Z"></path><path d="M18,13H14a1,1,0,0,0-1,1v4a1,1,0,0,0,1,1h4a1,1,0,0,0,1-1V14A1,1,0,0,0,18,13Zm-1,4H15V15h2Z"></path><path d="M23,15h2v1a1,1,0,0,0,2,0V14a1,1,0,0,0-1-1H22a1,1,0,0,0-1,1v3a1,1,0,0,0,2,0Z"></path><path d="M10,21H6a1,1,0,0,0-1,1v4a1,1,0,0,0,1,1h4a1,1,0,0,0,1-1V22A1,1,0,0,0,10,21ZM9,25H7V23H9Z"></path><path d="M17,23a1,1,0,0,0,0-2H14a1,1,0,0,0-1,1v4a1,1,0,0,0,1,1h2a1,1,0,0,0,0-2H15V23Z"></path><path d="M26,23a1,1,0,0,1,1,1h2a3,3,0,0,0-2-2.816V20H25v1.184A2.993,2.993,0,0,0,26,27a1,1,0,1,1-1,1H23a3,3,0,0,0,2,2.816V32h2V30.816A2.993,2.993,0,0,0,26,25a1,1,0,0,1,0-2Z"></path></g></svg>