<svg xmlns="http://www.w3.org/2000/svg" viewBox="0 0 64 64" x="0px" y="0px"><g data-name="Travel"><path d="M45.818,29H18.182a2.986,2.986,0,0,0-2.923,2.325L10.257,53H53.743l-5-21.675A2.984,2.984,0,0,0,45.818,29ZM41,48a1,1,0,0,1-1,1H24a1,1,0,0,1-1-1V42a1,1,0,0,1,1-1H40a1,1,0,0,1,1,1Z"></path><path d="M18,27.015V21H13.8a3.018,3.018,0,0,0-2.821,1.975L4.78,40.021A13.207,13.207,0,0,0,4,44.47V53H8.2L13.31,30.876A4.969,4.969,0,0,1,18,27.015Z"></path><rect x="25" y="43" width="14" height="4"></rect><rect x="24" y="11" width="16" height="2"></rect><rect x="24" y="21" width="16" height="6"></rect><path d="M20,27h2V11.171A3.006,3.006,0,0,0,20,14Z"></path><path d="M60,53V44.47a13.233,13.233,0,0,0-.781-4.454l-6.2-17.044A3.019,3.019,0,0,0,50.2,21H46v6.015a4.968,4.968,0,0,1,4.69,3.861L55.8,53Z"></path><path d="M42,11.171V27h2V14A3.006,3.006,0,0,0,42,11.171Z"></path></g></svg>