<svg xmlns="http://www.w3.org/2000/svg" viewBox="0 0 64 64" x="0px" y="0px"><g><path d="M50,53c5.72,0,10-2.11,10-4V45.41C57.89,46.99,54.27,48,50,48s-7.89-1.01-10-2.59V49C40,50.89,44.28,53,50,53Zm-5-4h2v2H45Zm-4-1h2v2H41Z"></path><path d="M50,60c5.72,0,10-2.11,10-4V52.41C57.89,53.99,54.27,55,50,55s-7.89-1.01-10-2.59V56C40,57.89,44.28,60,50,60Zm-5-4h2v2H45Zm-4-1h2v2H41Z"></path><path d="M50,38c-5.72,0-10,2.11-10,4s4.28,4,10,4,10-2.11,10-4S55.72,38,50,38Zm6,5H44V41H56Z"></path><path d="M14,53c5.72,0,10-2.11,10-4V45.41C21.89,46.99,18.27,48,14,48S6.11,46.99,4,45.41V49C4,50.89,8.28,53,14,53ZM9,49h2v2H9ZM5,48H7v2H5Z"></path><path d="M14,60c5.72,0,10-2.11,10-4V52.41C21.89,53.99,18.27,55,14,55S6.11,53.99,4,52.41V56C4,57.89,8.28,60,14,60ZM9,56h2v2H9ZM5,55H7v2H5Z"></path><path d="M14,38C8.28,38,4,40.11,4,42s4.28,4,10,4,10-2.11,10-4S19.72,38,14,38Zm6,5H8V41H20Z"></path><path d="M25.73,24.78a12.086,12.086,0,0,0-1.05.71,12.22,12.22,0,0,0,2.21,1.35A13.854,13.854,0,0,1,25.73,24.78Z"></path><circle cx="26" cy="20" r="1"></circle><path d="M31,12.82a2.991,2.991,0,0,1-1.91-2.14,12.989,12.989,0,0,1-2.25-.67A20.264,20.264,0,0,0,26.03,15H31Z"></path><path d="M31,4.19c-1.36.48-2.59,1.92-3.48,3.94a12.38,12.38,0,0,0,1.79.56A3.058,3.058,0,0,1,31,7.18Z"></path><path d="M31,17H26.02A3,3,0,0,1,29,20a2.908,2.908,0,0,1-.38,1.43A12.7,12.7,0,0,1,31,21.05Z"></path><path d="M31,27.81V23.05a11.713,11.713,0,0,0-3.48.82C28.43,25.92,29.67,27.33,31,27.81Z"></path><circle cx="32" cy="10" r="1"></circle><path d="M24.03,15A22.442,22.442,0,0,1,25,9.13a15.759,15.759,0,0,1-1.81-1.25A11.958,11.958,0,0,0,20.05,15Z"></path><path d="M23.2,24.13a12.9,12.9,0,0,1,1.81-1.24.235.235,0,0,1-.02-.08,2.972,2.972,0,0,1-.93-5.08c-.01-.24-.03-.48-.04-.73H20.05A11.938,11.938,0,0,0,23.2,24.13Z"></path><path d="M26.88,5.16a11.728,11.728,0,0,0-2.19,1.35c.33.25.68.49,1.04.71A13.944,13.944,0,0,1,26.88,5.16Z"></path><path d="M37.08,5.15a12.563,12.563,0,0,1,1.19,2.08,12.055,12.055,0,0,0,1.04-.72A11.766,11.766,0,0,0,37.08,5.15Z"></path><circle cx="39" cy="16" r="1"></circle><path d="M41.82,17a3.02,3.02,0,0,1-1.99,1.87,21.8,21.8,0,0,1-.84,4.02,12.9,12.9,0,0,1,1.81,1.24A11.938,11.938,0,0,0,43.95,17Z"></path><path d="M40.81,7.88A15.759,15.759,0,0,1,39,9.13a22.432,22.432,0,0,1,.83,4A3.02,3.02,0,0,1,41.82,15h2.13A11.958,11.958,0,0,0,40.81,7.88Z"></path><path d="M37.83,18.76A3.014,3.014,0,0,1,36.18,17H33v4.05a13.812,13.812,0,0,1,4.17.94A20.488,20.488,0,0,0,37.83,18.76Z"></path><path d="M33,15h3.18a3.014,3.014,0,0,1,1.65-1.76,20.488,20.488,0,0,0-.66-3.23,13.365,13.365,0,0,1-2.26.67A2.991,2.991,0,0,1,33,12.82Z"></path><path d="M36.47,8.14C35.56,6.11,34.34,4.67,33,4.19V7.18a3.058,3.058,0,0,1,1.69,1.51A12.216,12.216,0,0,0,36.47,8.14Z"></path><path d="M33,27.81c1.34-.48,2.56-1.92,3.47-3.95A12.028,12.028,0,0,0,33,23.05Z"></path><path d="M38.27,24.77a12.563,12.563,0,0,1-1.19,2.08,11.844,11.844,0,0,0,2.24-1.36A12.2,12.2,0,0,0,38.27,24.77Z"></path><rect x="54" y="19" width="2" height="2"></rect><rect x="54" y="23" width="2" height="2"></rect><path d="M52,30.586V18.816A2.993,2.993,0,1,0,48.184,15H46v2h2.184A3,3,0,0,0,50,18.816v11.77l-1.293-1.293-1.414,1.414,3,3a1,1,0,0,0,1.414,0l3-3-1.414-1.414Z"></path><path d="M13,13a2.993,2.993,0,0,0-1,5.816v11.77l-1.293-1.293L9.293,30.707l3,3a1,1,0,0,0,1.414,0l3-3-1.414-1.414L14,30.586V18.816A3,3,0,0,0,15.816,17H18V15H15.816A3,3,0,0,0,13,13Z"></path><rect x="54" y="19" width="2" height="2"></rect><rect x="54" y="23" width="2" height="2"></rect><rect x="8" y="19" width="2" height="2"></rect><rect x="8" y="23" width="2" height="2"></rect><rect x="8" y="19" width="2" height="2"></rect><rect x="8" y="23" width="2" height="2"></rect></g></svg>