<svg xmlns="http://www.w3.org/2000/svg" data-name="Layer 38" viewBox="0 0 64 64" x="0px" y="0px"><g data-name="Film-Movies"><rect x="23" y="45" width="8" height="10"></rect><polygon points="28 37.327 37.093 32 28 26.673 28 37.327"></polygon><path d="M48,21H16V43H48ZM39.577,32.863,27.506,39.934A1,1,0,0,1,26,39.071V24.929a1,1,0,0,1,1.506-.863l12.071,7.071a1,1,0,0,1,0,1.726Z"></path><rect x="33" y="45" width="8" height="10"></rect><rect x="4" y="9" width="7" height="10"></rect><rect x="50" y="21" width="10" height="22"></rect><rect x="53" y="45" width="7" height="10"></rect><rect x="4" y="21" width="10" height="22"></rect><rect x="43" y="9" width="8" height="10"></rect><rect x="43" y="45" width="8" height="10"></rect><rect x="4" y="45" width="7" height="10"></rect><rect x="13" y="9" width="8" height="10"></rect><rect x="53" y="9" width="7" height="10"></rect><rect x="33" y="9" width="8" height="10"></rect><rect x="23" y="9" width="8" height="10"></rect><rect x="13" y="45" width="8" height="10"></rect></g></svg>