<svg xmlns="http://www.w3.org/2000/svg" viewBox="0 0 64 64" x="0px" y="0px"><g data-name="Pipe-Tree Way-Water-Gas-Oil"><path d="M61,35H54a3.009,3.009,0,0,0-3-3H47a3.009,3.009,0,0,0-3,3H40V31a3.009,3.009,0,0,0,3-3V24a3.009,3.009,0,0,0-3-3V10a1,1,0,0,0-1-1H25a1,1,0,0,0-1,1V21a3.009,3.009,0,0,0-3,3v4a3.009,3.009,0,0,0,3,3v4H20a3.009,3.009,0,0,0-3-3H13a3.009,3.009,0,0,0-3,3H3a1,1,0,0,0-1,1V50a1,1,0,0,0,1,1h7a3.009,3.009,0,0,0,3,3h4a3.009,3.009,0,0,0,3-3H44a3.009,3.009,0,0,0,3,3h4a3.009,3.009,0,0,0,3-3h7a1,1,0,0,0,1-1V36A1,1,0,0,0,61,35ZM10,49H4V37h6Zm8,2a1,1,0,0,1-1,1H13a1,1,0,0,1-1-1V35a1,1,0,0,1,1-1h4a1,1,0,0,1,1,1Zm8-40H38V21H26ZM23,28V24a1,1,0,0,1,1-1H40a1,1,0,0,1,1,1v4a1,1,0,0,1-1,1H24A1,1,0,0,1,23,28ZM44,49H20V37h5a1,1,0,0,0,1-1V31H38v5a1,1,0,0,0,1,1h5Zm8,2a1,1,0,0,1-1,1H47a1,1,0,0,1-1-1V35a1,1,0,0,1,1-1h4a1,1,0,0,1,1,1Zm8-2H54V37h6Z"></path><rect x="6" y="39" width="2" height="2"></rect><rect x="24" y="45" width="2" height="2"></rect><rect x="28" y="45" width="4" height="2"></rect><rect x="56" y="39" width="2" height="2"></rect></g></svg>