<svg xmlns="http://www.w3.org/2000/svg" viewBox="0 0 64 64" x="0px" y="0px"><g data-name="Presentaion graph report"><rect x="23" y="58" width="18" height="2"></rect><rect x="4" y="8" width="56" height="2"></rect><rect x="30" y="4" width="4" height="2"></rect><rect x="4" y="46" width="56" height="2"></rect><path d="M23,18.051V27h8.949A10.015,10.015,0,0,0,23,18.051Z"></path><path d="M6,44H58V12H6Zm48-9H50V33h4Zm0-8H42V25H54ZM44,21H54v2H44Zm-6,0h4v2H38Zm0,4h2v2H38Zm0,4H54v2H38Zm0,4H48v2H38ZM22,16A12,12,0,1,1,10,28,12.013,12.013,0,0,1,22,16Z"></path><rect x="30" y="50" width="4" height="6"></rect><path d="M22,38a10.013,10.013,0,0,0,9.949-9H21V18.051A10,10,0,0,0,22,38Z"></path></g></svg>