<svg xmlns="http://www.w3.org/2000/svg" viewBox="0 0 64 64" x="0px" y="0px"><g><path d="M59.68,48.37,46.05,56.24a16.807,16.807,0,0,1-10.38,2.17l-12.68-1.4L2.09,59l-.18-2,21-2a1.408,1.408,0,0,1,.2.01l12.78,1.42a14.956,14.956,0,0,0,9.16-1.92l13.63-7.88a1.986,1.986,0,0,0,.73-2.73,2,2,0,0,0-2.73-.73L46.01,49.33a5.009,5.009,0,0,1-2.5.67H33V48H43a2,2,0,0,0,0-4H36a.937.937,0,0,1-.37-.07l-3.21-1.29A9.149,9.149,0,0,0,29.07,42h-1.3a9,9,0,0,0-4.63,1.28l-2.63,1.58A1,1,0,0,1,20,45H2V43H19.72l2.39-1.43A10.974,10.974,0,0,1,27.77,40h1.3a10.825,10.825,0,0,1,4.09.79L36.19,42H43a4,4,0,0,1,4,4,3.906,3.906,0,0,1-.05.48l8.73-5.04a3.943,3.943,0,0,1,3.04-.4,4,4,0,0,1,.96,7.33Z"></path><path d="M44,24v1a3,3,0,0,0,0,6h2a1,1,0,0,1,0,2H44a1,1,0,0,1-1-1H41a3,3,0,0,0,3,3v1h2V35a3,3,0,0,0,0-6H44a1,1,0,0,1,0-2h2a1,1,0,0,1,1,1h2a3,3,0,0,0-3-3V24Z"></path><path d="M35,30A10,10,0,1,0,45,20,10.011,10.011,0,0,0,35,30Zm18,0a8,8,0,1,1-8-8A8.009,8.009,0,0,1,53,30Z"></path><path d="M27,20a4,4,0,0,0,4-4H29a1.994,1.994,0,0,1-3.722,1H27V15H25V13h2V11H25.278A1.994,1.994,0,0,1,29,12h2a3.992,3.992,0,0,0-7.858-1H21v2h2v2H21v2h2.142A4,4,0,0,0,27,20Z"></path><path d="M27,24A10,10,0,1,0,17,14,10.011,10.011,0,0,0,27,24ZM27,6a8,8,0,1,1-8,8A8.009,8.009,0,0,1,27,6Z"></path><path d="M38.735,12l1.7-1.06-.9-1.445a12.969,12.969,0,0,1,9.172,9.72l1.953-.429a14.963,14.963,0,0,0-10.521-11.2l1.253-.783-1.059-1.7-3.392,2.12a1,1,0,0,0-.319,1.377Z"></path><path d="M31.623,38.841l3.429-2.06a1,1,0,0,0,.342-1.373l-2.06-3.429L31.62,33.01l.91,1.516a12.958,12.958,0,0,1-9.23-9.739l-1.954.427A14.952,14.952,0,0,0,31.81,36.4l-1.217.731Z"></path></g></svg>