<svg xmlns="http://www.w3.org/2000/svg" viewBox="0 0 64 64" x="0px" y="0px"><g><path d="M59.906,37.338a3.022,3.022,0,0,0,.874-2.118A2.977,2.977,0,0,0,59.9,33.1a3.015,3.015,0,0,0-4.244,0L53,35.756V26a3,3,0,0,0-4-2.829V21a3,3,0,0,0-6,0v3.171A3,3,0,0,0,39,27v.171A3,3,0,0,0,35,30V54.184A2.993,2.993,0,0,0,36,60H54a3,3,0,0,0,0-6H53V44.244ZM55,57a1,1,0,0,1-1,1H36a1,1,0,0,1,0-2H54A1,1,0,0,1,55,57ZM37,54V30a1,1,0,0,1,2,0v7a1,1,0,0,0,2,0V27a1,1,0,0,1,2,0v9a1,1,0,0,0,2,0V21a1,1,0,0,1,2,0V36a1,1,0,0,0,2,0V26a1,1,0,0,1,2,0V38.17a1,1,0,0,0,1.707.707l4.356-4.356a1,1,0,0,1,1.419,0,.985.985,0,0,1,.3.7,1.025,1.025,0,0,1-.3.713l-7.19,7.19A1,1,0,0,0,51,43.83V54Z"></path><path d="M28,56V32a3,3,0,0,0-4-2.829V29a3,3,0,0,0-4-2.829V23a3,3,0,0,0-6,0v2.171A3,3,0,0,0,10,28v9.756L7.343,35.1A3.015,3.015,0,0,0,3.1,35.1,2.976,2.976,0,0,0,2.22,37.22,3.033,3.033,0,0,0,3.1,39.347l6.9,6.9V56a3,3,0,0,0,0,6H28a3,3,0,0,0,0-6ZM11.707,45.123l-7.181-7.18a1.037,1.037,0,0,1-.306-.723.988.988,0,0,1,.3-.7,1,1,0,0,1,1.416,0l4.36,4.36A1,1,0,0,0,12,40.17V28a1,1,0,0,1,2,0V38a1,1,0,0,0,2,0V23a1,1,0,0,1,2,0V38a1,1,0,0,0,2,0V29a1,1,0,0,1,2,0V39a1,1,0,0,0,2,0V32a1,1,0,0,1,2,0V56H12V45.83A1,1,0,0,0,11.707,45.123ZM28,60H10a1,1,0,0,1,0-2H28a1,1,0,0,1,0,2Z"></path><path d="M39,19a4,4,0,0,0,4-4c0-1.941-2.712-5.062-3.256-5.668a1.031,1.031,0,0,0-1.488,0C37.712,9.938,35,13.059,35,15A4,4,0,0,0,39,19Zm0-7.451c1.062,1.332,2,2.831,2,3.451a2,2,0,0,1-4,0C37,14.363,37.939,12.875,39,11.549Z"></path><path d="M24,21a4,4,0,0,0,4-4c0-1.941-2.712-5.062-3.256-5.668a1.031,1.031,0,0,0-1.488,0C22.712,11.938,20,15.059,20,17A4,4,0,0,0,24,21Zm0-7.451c1.062,1.332,2,2.831,2,3.451a2,2,0,0,1-4,0C22,16.363,22.939,14.875,24,13.549Z"></path><path d="M35,7c0-1.278-1.522-3.621-2.177-4.568a1.038,1.038,0,0,0-1.646,0C30.522,3.379,29,5.722,29,7a3,3,0,0,0,6,0ZM32,8a1,1,0,0,1-1-1,7.457,7.457,0,0,1,1-2.147A7.462,7.462,0,0,1,33,7,1,1,0,0,1,32,8Z"></path></g></svg>