<svg xmlns="http://www.w3.org/2000/svg" viewBox="0 0 64 64" x="0px" y="0px"><g><path d="M61.4,8.26,55.74,2.6a3,3,0,0,0-4.24,0L9.07,45.03a.983.983,0,0,0-.24.39L4.66,57.92,1.29,61.29l1.42,1.42,3.36-3.37,12.51-4.17a.983.983,0,0,0,.39-.24L52.91,20.99l1.42,1.41L40.18,36.54a3.005,3.005,0,0,0,4.25,4.25L59.28,25.94a5.01,5.01,0,0,0,0-7.07l-2.13-2.13L61.4,12.5A3,3,0,0,0,61.4,8.26ZM7.12,56.88l3.1-9.29,6.19,6.19Zm11.14-4.07-7.07-7.07L37.36,19.57l7.07,7.07ZM45.84,25.23l-7.07-7.07,1.41-1.41,7.07,7.07Zm12.02-4.95a2.994,2.994,0,0,1,0,4.24L43.01,39.37a1,1,0,1,1-1.41-1.41L55.74,23.82a1.992,1.992,0,0,0,0-2.83l-1.41-1.42,1.41-1.41Zm2.12-9.19L48.67,22.4,41.6,15.33,52.91,4.02a1.008,1.008,0,0,1,1.42,0l5.65,5.65a.99.99,0,0,1,0,1.42Z"></path></g></svg>