<svg xmlns="http://www.w3.org/2000/svg" viewBox="0 0 32 32" x="0px" y="0px"><title>File Plus_7</title><g data-name="File Plus"><path d="M27.99,7.944a1.494,1.494,0,0,0-.067-.316.985.985,0,0,0-.164-.279l-6-7a.99.99,0,0,0-.306-.231C21.423.1,21.394.092,21.364.08a.982.982,0,0,0-.32-.07C21.029.009,21.015,0,21,0H5A1,1,0,0,0,4,1V31a1,1,0,0,0,1,1H27a1,1,0,0,0,1-1V8C28,7.981,27.991,7.963,27.99,7.944ZM22,3.7,24.826,7H22ZM6,30V2H20V8a1,1,0,0,0,1,1h5V30Z"></path><polygon points="17 12 15 12 15 15 12 15 12 17 15 17 15 20 17 20 17 17 20 17 20 15 17 15 17 12"></polygon></g></svg>