<svg xmlns="http://www.w3.org/2000/svg" viewBox="0 0 64 64" x="0px" y="0px"><g data-name="Cctv Camera-Security-Security Camera-Smartphone-Online"><path d="M29,14H9a5.006,5.006,0,0,0-5,5V57a5.006,5.006,0,0,0,5,5H29a5.006,5.006,0,0,0,5-5V19A5.006,5.006,0,0,0,29,14ZM9,16H29a3,3,0,0,1,3,3v3H6V19A3,3,0,0,1,9,16Zm23,8V52H6V24ZM29,60H9a3,3,0,0,1-3-3V54H32v3A3,3,0,0,1,29,60Z"></path><rect x="16" y="18" width="6" height="2"></rect><rect x="18" y="56" width="2" height="2"></rect><circle cx="48" cy="18" r="2"></circle><rect x="47" y="12" width="2" height="2"></rect><rect x="43.465" y="13.464" width="2" height="2" transform="translate(2.796 35.678) rotate(-45)"></rect><rect x="42" y="17" width="2" height="2"></rect><rect x="43.465" y="20.536" width="2" height="2" transform="translate(-2.205 37.749) rotate(-45)"></rect><rect x="47" y="22" width="2" height="2"></rect><rect x="50.535" y="20.536" width="2" height="2" transform="translate(-0.134 42.749) rotate(-45)"></rect><rect x="52" y="17" width="2" height="2"></rect><rect x="50.535" y="13.464" width="2" height="2" transform="translate(4.866 40.677) rotate(-45)"></rect><path d="M59,2H37a1,1,0,0,0-1,1V7a3,3,0,0,0,2,2.816V18a10,10,0,0,0,20,0V9.816A3,3,0,0,0,60,7V3A1,1,0,0,0,59,2ZM56,18a8,8,0,0,1-16,0V10H56ZM58,7a1,1,0,0,1-1,1H39a1,1,0,0,1-1-1V4H58Z"></path><path d="M15.465,38.464l1.414,1.414a3.074,3.074,0,0,1,4.242,0l1.414-1.414a5,5,0,0,0-7.07,0Z"></path><path d="M14.05,37.05a7.011,7.011,0,0,1,9.9,0l1.414-1.414a9.01,9.01,0,0,0-12.728,0Z"></path><path d="M17.586,41.586,19,43l1.414-1.414A2,2,0,0,0,17.586,41.586Z"></path></g></svg>