<svg xmlns="http://www.w3.org/2000/svg" viewBox="0 0 64 64" x="0px" y="0px"><g><path d="M32,18A19,19,0,1,0,51,37,19.021,19.021,0,0,0,32,18Zm14.223,9.634,1,1.732-1.733,1-1-1.732Zm-6.589-5.857,1.732,1-1,1.733-1.732-1ZM31,20h2v2H31Zm-6.634,1.777,1,1.733-1.732,1-1-1.733ZM15,36h2v2H15Zm2.777,10.366-1-1.732,1.733-1,1,1.732Zm.733-16-1.733-1,1-1.732,1.733,1Zm5.856,21.857-1.732-1,1-1.733,1.732,1ZM33,54H31V52h2Zm6.634-1.777-1-1.733,1.732-1,1,1.733Zm1.709-23.194L34.979,39.636a1,1,0,0,1-.343.343L24.029,46.343a1,1,0,0,1-1.372-1.372l6.364-10.607a1,1,0,0,1,.343-.343l10.607-6.364a1,1,0,0,1,1.372,1.372Zm4.88,17.337-1.733-1,1-1.732,1.733,1ZM47,38V36h2v2Z"></path><polygon points="26.431 42.569 32.509 38.923 30.077 36.491 26.431 42.569"></polygon><polygon points="33.923 37.509 37.569 31.431 31.491 35.077 33.923 37.509"></polygon><path d="M32,14A23,23,0,1,0,55,37,23.025,23.025,0,0,0,32,14Zm0,44A21,21,0,1,1,53,37,21.024,21.024,0,0,1,32,58Z"></path><path d="M32,2a6,6,0,1,0,6,6A6.006,6.006,0,0,0,32,2Zm1,9.858V9h1V7H30V9h1v2.858a4,4,0,1,1,2,0Z"></path></g></svg>