<svg xmlns="http://www.w3.org/2000/svg" viewBox="0 0 64 64" x="0px" y="0px"><g data-name="Smartphone-Internet Banking-Digital Banking-Money-Business"><path d="M56,41.08V29a5.006,5.006,0,0,0-5-5H39a5.006,5.006,0,0,0-5,5V53a5.006,5.006,0,0,0,5,5h5.7l.133.5A5.034,5.034,0,0,1,45,59.79V61a1,1,0,0,0,1,1H61a1,1,0,0,0,1-1V48A7.006,7.006,0,0,0,56,41.08ZM39,56a3,3,0,0,1-3-3V29a3,3,0,0,1,3-3H51a3,3,0,0,1,3,3V50.723l-2.287,3.811a.994.994,0,0,1-.835.48h-.013a.986.986,0,0,1-.953-.732l-1.153-4.3a3,3,0,1,0-5.8,1.552L44.161,56Zm21,4H47v-.21a6.985,6.985,0,0,0-.238-1.811L44.9,51.014a1,1,0,1,1,1.931-.518l1.153,4.3A3.05,3.05,0,0,0,50.9,57.014a2.972,2.972,0,0,0,2.525-1.451l2.429-4.048A1,1,0,0,0,56,51V43.1A5.008,5.008,0,0,1,60,48Z"></path><path d="M25,24H13a5.006,5.006,0,0,0-5,5V41.08A7.006,7.006,0,0,0,2,48V61a1,1,0,0,0,1,1H18a1,1,0,0,0,1-1V59.79a5.034,5.034,0,0,1,.17-1.294L19.3,58H25a5.006,5.006,0,0,0,5-5V29A5.006,5.006,0,0,0,25,24ZM17.238,57.979A6.985,6.985,0,0,0,17,59.79V60H4V48a5.008,5.008,0,0,1,4-4.9V51a1,1,0,0,0,.143.515l2.429,4.048A2.972,2.972,0,0,0,13.1,57.014h.039A2.986,2.986,0,0,0,16.02,54.8l1.153-4.3a1,1,0,1,1,1.931.518ZM28,53a3,3,0,0,1-3,3H19.839l1.2-4.469a3,3,0,1,0-5.8-1.552l-1.153,4.3a.986.986,0,0,1-.953.732h-.013a.994.994,0,0,1-.835-.48L10,50.723V29a3,3,0,0,1,3-3H25a3,3,0,0,1,3,3Z"></path><rect x="16" y="28" width="6" height="2"></rect><rect x="12" y="28" width="2" height="2"></rect><rect x="42" y="28" width="6" height="2"></rect><rect x="38" y="28" width="2" height="2"></rect><path d="M18,36h2a1,1,0,0,1,1,1h2a3,3,0,0,0-3-3V33H18v1a3,3,0,0,0,0,6h2a1,1,0,0,1,0,2H18a1,1,0,0,1-1-1H15a3,3,0,0,0,3,3v1h2V44a3,3,0,0,0,0-6H18a1,1,0,0,1,0-2Z"></path><path d="M44,45h2V44a3,3,0,0,0,0-6H44a1,1,0,0,1,0-2h2a1,1,0,0,1,1,1h2a3,3,0,0,0-3-3V33H44v1a3,3,0,0,0,0,6h2a1,1,0,0,1,0,2H44a1,1,0,0,1-1-1H41a3,3,0,0,0,3,3Z"></path><path d="M46,2H18a2.006,2.006,0,0,0-2,2V20a2.006,2.006,0,0,0,2,2H46a2.006,2.006,0,0,0,2-2V4A2.006,2.006,0,0,0,46,2ZM18,4h2.86A4.017,4.017,0,0,1,18,6.86Zm0,9.14A4.017,4.017,0,0,1,20.86,16H18ZM28,20H18V18H28Zm6,0H30V18h4Zm12,0H36V18H46Zm0-4H43.14A4.017,4.017,0,0,1,46,13.14Zm0-4.91A5.992,5.992,0,0,0,41.09,16H22.91A5.992,5.992,0,0,0,18,11.09V8.91A5.992,5.992,0,0,0,22.91,4H41.09A5.992,5.992,0,0,0,46,8.91Zm0-4.23A4.017,4.017,0,0,1,43.14,4H46Z"></path><path d="M32,6a4,4,0,1,0,4,4A4,4,0,0,0,32,6Zm0,6a2,2,0,1,1,2-2A2,2,0,0,1,32,12Z"></path><path d="M7,9.414V17H9V9.414l1.293,1.293,1.414-1.414-3-3a1,1,0,0,0-1.414,0l-3,3,1.414,1.414Z"></path><rect x="7" y="19" width="2" height="2"></rect><path d="M55,9.414V17h2V9.414l1.293,1.293,1.414-1.414-3-3a1,1,0,0,0-1.414,0l-3,3,1.414,1.414Z"></path><rect x="55" y="19" width="2" height="2"></rect></g></svg>