<svg xmlns="http://www.w3.org/2000/svg" viewBox="0 0 64 64" x="0px" y="0px"><g><path d="M61,50H60V19a5.006,5.006,0,0,0-5-5H9a5.006,5.006,0,0,0-5,5V50H3a1,1,0,0,0-1,1v4a3,3,0,0,0,3,3H59a3,3,0,0,0,3-3V51A1,1,0,0,0,61,50ZM6,19a3,3,0,0,1,3-3H55a3,3,0,0,1,3,3V50H6ZM27,52H37v1H27Zm33,3a1,1,0,0,1-1,1H5a1,1,0,0,1-1-1V52H25v1a2,2,0,0,0,2,2H37a2,2,0,0,0,2-2V52H60Z"></path><path d="M52,44V42H46.816A2.966,2.966,0,0,0,47,41V25a3,3,0,0,0-3-3H20a3,3,0,0,0-3,3V41a2.966,2.966,0,0,0,.184,1H12v2ZM20,24H44a1,1,0,0,1,1,1v.382L32.447,31.658a1,1,0,0,1-.894,0L19,25.382V25A1,1,0,0,1,20,24Zm0,18a1,1,0,0,1-1-1V27.618l11.658,5.829a3.016,3.016,0,0,0,2.684,0L45,27.618V41a1,1,0,0,1-1,1Z"></path></g></svg>