<svg xmlns="http://www.w3.org/2000/svg" viewBox="0 0 64 64" x="0px" y="0px"><title>Power Supply</title><g data-name="Power Supply"><path d="M57,7H7a5.006,5.006,0,0,0-5,5V52a5.006,5.006,0,0,0,5,5H57a5.006,5.006,0,0,0,5-5V12A5.006,5.006,0,0,0,57,7Zm3,45a3,3,0,0,1-3,3H7a3,3,0,0,1-3-3V12A3,3,0,0,1,7,9H57a3,3,0,0,1,3,3Z"></path><path d="M57,22H43a1,1,0,0,0-1,1v4a1,1,0,0,0,1,1H57a1,1,0,0,0,1-1V23A1,1,0,0,0,57,22ZM44,24h5v2H44Zm12,2H51V24h5Z"></path><path d="M24,17.051V15H22v2.051A15,15,0,0,0,8.051,31H6v2H8.051A15,15,0,0,0,22,46.949V49h2V46.949A15,15,0,0,0,37.949,33H40V31H37.949A15,15,0,0,0,24,17.051ZM35.949,31H30.931A8.008,8.008,0,0,0,24,24.069V19.051A13,13,0,0,1,35.949,31ZM22,31H17.09A6.008,6.008,0,0,1,22,26.09Zm0,2v4.91A6.008,6.008,0,0,1,17.09,33Zm2,0h4.91A6.008,6.008,0,0,1,24,37.91Zm0-2V26.09A6.008,6.008,0,0,1,28.91,31ZM22,19.051v5.018A8.008,8.008,0,0,0,15.069,31H10.051A13,13,0,0,1,22,19.051ZM10.051,33h5.018A8.008,8.008,0,0,0,22,39.931v5.018A13,13,0,0,1,10.051,33ZM24,44.949V39.931A8.008,8.008,0,0,0,30.931,33h5.018A13,13,0,0,1,24,44.949Z"></path><path d="M54.8,33.4A1,1,0,0,0,54,33H46a1,1,0,0,0-.8.4l-3,4a1,1,0,0,0-.2.6v7a2,2,0,0,0,2,2H56a2,2,0,0,0,2-2V38a1,1,0,0,0-.2-.6ZM56,45H44V38.333L46.5,35h7L56,38.333Z"></path><rect x="49" y="37" width="2" height="2"></rect><rect x="46" y="41" width="2" height="2"></rect><rect x="52" y="41" width="2" height="2"></rect></g></svg>