<svg xmlns="http://www.w3.org/2000/svg" viewBox="0 0 64 64" x="0px" y="0px"><g><path d="M60,32A12.01,12.01,0,0,1,48,44H45.96c.03-.33.04-.66.04-1a15,15,0,0,0-30,0c0,.34.01.67.04,1H13a9,9,0,0,1-2.6-17.62.987.987,0,0,0,.71-.82A11.007,11.007,0,0,1,22,16c.15,0,.3.01.45.02l.21.01a1.017,1.017,0,0,0,.95-.53,13.985,13.985,0,0,1,26.15,3.98.994.994,0,0,0,.77.79A12.053,12.053,0,0,1,60,32Z"></path><path d="M31,30A13,13,0,1,0,44,43,13.015,13.015,0,0,0,31,30Zm1,22c-3.5,0-5.751-2.747-6.607-6H23V44h2.047c-.028-.334-.047-.667-.047-1s.019-.666.047-1H23V40h2.393c.856-3.253,3.109-6,6.607-6a5.89,5.89,0,0,1,3.541,1.153l-1.18,1.616A3.924,3.924,0,0,0,32,36c-2.2,0-3.774,1.76-4.517,4H35v2H27.057a8.8,8.8,0,0,0,0,2H35v2H27.483c.743,2.24,2.317,4,4.517,4a3.936,3.936,0,0,0,2.394-.792l1.193,1.605A5.894,5.894,0,0,1,32,52Z"></path></g></svg>