<svg xmlns="http://www.w3.org/2000/svg" viewBox="0 0 64 64" x="0px" y="0px"><g data-name="Joystick"><path d="M55,32H44V30h7a3,3,0,0,0,3-3V5a3,3,0,0,0-3-3H13a3,3,0,0,0-3,3V27a3,3,0,0,0,3,3h7v2H9a5.006,5.006,0,0,0-5,5V57a5.006,5.006,0,0,0,5,5h5.88a5,5,0,0,0,4.85-3.788l1.241-4.97A1.034,1.034,0,0,0,21,53a1,1,0,0,1,1-1h1.556a3.965,3.965,0,0,0,6.888,0h3.112a3.965,3.965,0,0,0,6.888,0H42a1,1,0,0,1,1,1,1.034,1.034,0,0,0,.029.242l1.242,4.973A5,5,0,0,0,49.12,62H55a5.006,5.006,0,0,0,5-5V37A5.006,5.006,0,0,0,55,32ZM18,28V4H44V28ZM52,5V27a1,1,0,0,1-1,1H46V4h5A1,1,0,0,1,52,5ZM12,27V5a1,1,0,0,1,1-1h3V28H13A1,1,0,0,1,12,27Zm10,3H42v2H22Zm5,22a2,2,0,1,1,2-2A2,2,0,0,1,27,52Zm10,0a2,2,0,1,1,2-2A2,2,0,0,1,37,52Zm21,5a3,3,0,0,1-3,3H49.12a3,3,0,0,1-2.909-2.272L45,52.865A3,3,0,0,0,42,50H41a4,4,0,0,0-8,0H31a4,4,0,0,0-8,0H22a3,3,0,0,0-3,2.865l-1.213,4.86A3,3,0,0,1,14.88,60H9a3,3,0,0,1-3-3V37a3,3,0,0,1,3-3H55a3,3,0,0,1,3,3Z"></path><path d="M21,41H19V39a1,1,0,0,0-1-1H14a1,1,0,0,0-1,1v2H11a1,1,0,0,0-1,1v4a1,1,0,0,0,1,1h2v2a1,1,0,0,0,1,1h4a1,1,0,0,0,1-1V47h2a1,1,0,0,0,1-1V42A1,1,0,0,0,21,41Zm-1,4H18a1,1,0,0,0-1,1v2H15V46a1,1,0,0,0-1-1H12V43h2a1,1,0,0,0,1-1V40h2v2a1,1,0,0,0,1,1h2Z"></path><path d="M48,42a3,3,0,1,0-3-3A3,3,0,0,0,48,42Zm0-4a1,1,0,1,1-1,1A1,1,0,0,1,48,38Z"></path><path d="M46,44a3,3,0,1,0-3,3A3,3,0,0,0,46,44Zm-3,1a1,1,0,1,1,1-1A1,1,0,0,1,43,45Z"></path><path d="M48,46a3,3,0,1,0,3,3A3,3,0,0,0,48,46Zm0,4a1,1,0,1,1,1-1A1,1,0,0,1,48,50Z"></path><path d="M53,41a3,3,0,1,0,3,3A3,3,0,0,0,53,41Zm0,4a1,1,0,1,1,1-1A1,1,0,0,1,53,45Z"></path><rect x="27" y="38" width="2" height="2"></rect><rect x="31" y="38" width="2" height="2"></rect><rect x="35" y="38" width="2" height="2"></rect><rect x="48" y="13" width="2" height="6"></rect></g></svg>