<svg xmlns="http://www.w3.org/2000/svg" viewBox="0 0 64 64" x="0px" y="0px"><g><path d="M40,12V7a3,3,0,0,0-3-3H27a3,3,0,0,0-3,3v5h1V7a2,2,0,0,1,2-2H37a2,2,0,0,1,2,2v5Z"></path><rect x="27" y="7" width="10" height="5"></rect><path d="M60,15a1,1,0,0,0-1-1H56V26a5.006,5.006,0,0,1-5,5H47v4a1,1,0,0,1-1,1H42a1,1,0,0,1-1-1V31H23v4a1,1,0,0,1-1,1H18a1,1,0,0,1-1-1V31H13a5.006,5.006,0,0,1-5-5V14H5a1,1,0,0,0-1,1V55a5.006,5.006,0,0,0,5,5H55a5.006,5.006,0,0,0,5-5ZM8,31h2v2H8Zm0,4h2v2H8Zm0,4h2v2H8Zm0,4h2v2H8Zm0,4h2v2H8Zm0,4h2v2H8Zm3,7H10a2,2,0,0,1-2-2V55h2v1h1Zm4,0H13V56h2Zm4,0H17V56h2Zm4,0H21V56h2Zm4,0H25V56h2Zm4,0H29V56h2Zm4,0H33V56h2Zm4,0H37V56h2Zm4,0H41V56h2Zm4,0H45V56h2Zm4,0H49V56h2Zm5-2a2,2,0,0,1-2,2H53V56h1V55h2Zm0-3H54V51h2Zm0-4H54V47h2Zm0-4H54V43h2Zm0-4H54V39h2Zm0-4H54V35h2Zm0-4H54V31h2Z"></path><polygon points="43 34 45 34 45 30 45 28 43 28 43 30 43 34"></polygon><polygon points="19 34 21 34 21 30 21 28 19 28 19 30 19 34"></polygon><path d="M10,26a3,3,0,0,0,3,3h4V27a1,1,0,0,1,1-1h4a1,1,0,0,1,1,1v2H41V27a1,1,0,0,1,1-1h4a1,1,0,0,1,1,1v2h4a3,3,0,0,0,3-3V14H10Z"></path></g></svg>