<svg xmlns="http://www.w3.org/2000/svg" viewBox="0 0 64 64" x="0px" y="0px"><g><path d="M57.163,37.95,44.435,25.222a1.029,1.029,0,0,0-1.414,0l-5.657,5.657a1,1,0,0,0,0,1.414l.707.707-1.91,1.91-1.532.305-2.922-2.922A1,1,0,0,0,31,32H27.172l-1.829-1.828a1,1,0,0,0,0-1.414L19.687,23.1a1,1,0,0,0-1.415,0L6.958,34.414a1,1,0,0,0,0,1.414l5.657,5.657a1,1,0,0,0,1.414,0l2.121,2.121,4.372,4.372a2.977,2.977,0,0,0,2.546,4.271A2.952,2.952,0,0,0,25.9,55.076,2.953,2.953,0,0,0,28.724,57.9a2.994,2.994,0,0,0,5.1,1.964l1.063,1.063A2.989,2.989,0,0,0,40,58.964a2.95,2.95,0,0,0,2.826-2.827,2.957,2.957,0,0,0,2.83-2.829,2.987,2.987,0,0,0,1.965-5.1l-1.058-1.058,2.826-2.832.707.708a1,1,0,0,0,1.414,0l5.657-5.657a1,1,0,0,0,0-1.414ZM38.425,41.839a1,1,0,0,1,0,1.414,1.021,1.021,0,0,1-1.414,0l-4.243-4.242a1,1,0,0,0-1.414,0,3,3,0,0,1-4.244,0L25.7,40.425a5,5,0,0,0,1.232.886l-5.121,5.124L18.272,42.9l8.9-8.9h3.414Zm-25.1-2.475L9.079,35.121l9.9-9.9,4.243,4.243Zm10.607-7.778L25.344,33l-8.487,8.485-1.414-1.414ZM31.7,58.74a.984.984,0,0,1-.7-.287,1,1,0,0,1-.011-1.4L31,57.042l2.055-2.055.771-.769v0l0,0L32.414,52.8l-.773.773-2.063,2.055-.009.011a1,1,0,0,1-1.4-1.425L31,51.385l-1.414-1.414L26.758,52.8a1,1,0,0,1-1.415-1.414l2.829-2.828-1.414-1.414-2.83,2.828a1.022,1.022,0,0,1-1.413,0,1,1,0,0,1,0-1.414L29.2,41.87a4.974,4.974,0,0,0,2.794-.809L35.6,44.667a3.073,3.073,0,0,0,4.243,0,3,3,0,0,0,0-4.242l-3.51-3.51h0l8.816,8.815-.3.3a2.966,2.966,0,0,0-3.755,2.73,2.955,2.955,0,0,0-2.829,2.855,2.9,2.9,0,0,0-2.826,2.8,2.965,2.965,0,0,0-2.733,3.746l-.3.3A.989.989,0,0,1,31.7,58.74Zm6.018.777a1.022,1.022,0,0,1-1.414,0L34.889,58.1A1,1,0,0,1,36.3,56.688L37.718,58.1a.987.987,0,0,1,.293.706A1,1,0,0,1,37.718,59.517Zm2.828-2.829a1,1,0,0,1-1.414,0l-1.414-1.414a1,1,0,0,1,0-1.415.987.987,0,0,1,.706-.293,1,1,0,0,1,.707.293l1.414,1.414A1,1,0,0,1,40.546,56.688Zm2.827-2.829a1.022,1.022,0,0,1-1.413,0l-1.414-1.414a1,1,0,0,1,1.414-1.414l1.414,1.414a1,1,0,0,1,.293.707A.988.988,0,0,1,43.373,53.859Zm2.83-2.828a1,1,0,0,1-1.415,0l-1.414-1.414A1,1,0,0,1,44.789,48.2L46.2,49.617A1,1,0,0,1,46.2,51.031Zm.354-6.718-8.485-8.485,1.413-1.414L47.971,42.9ZM50.8,42.9,39.485,31.586l4.243-4.243L55.042,38.657Z"></path><path d="M13,59V43H11V59a3,3,0,0,0,3,3H27V60H14A1,1,0,0,1,13,59Z"></path><path d="M51,59a1,1,0,0,1-1,1H42v2h8a3,3,0,0,0,3-3V47H51Z"></path><path d="M13,5a1,1,0,0,1,1-1H42v7a3,3,0,0,0,3,3h6V30h2V13.03a1,1,0,0,0-.256-.668l-9-10.03A1,1,0,0,0,43,2H14a3,3,0,0,0-3,3V26h2Zm31,6V5.615L49.732,12H45A1,1,0,0,1,44,11Z"></path><rect x="17" y="8" width="2" height="2"></rect><rect x="21" y="8" width="8" height="2"></rect><rect x="17" y="12" width="12" height="2"></rect><rect x="17" y="18" width="4" height="2"></rect><rect x="23" y="18" width="24" height="2"></rect><rect x="25" y="24" width="15" height="2"></rect></g></svg>