<svg xmlns="http://www.w3.org/2000/svg" viewBox="0 0 64 64" x="0px" y="0px"><g data-name="Security Camera-CCTV-Computer-Camera-Security"><path d="M55.707,56.293l-6-6A1,1,0,0,0,49,50H19V48a3,3,0,0,0-3-3H10a1,1,0,0,1,0-2h6a3,3,0,0,0,3-3V38h7v4H22a1,1,0,0,0-1,1v4a1,1,0,0,0,1,1H42a1,1,0,0,0,1-1V43a1,1,0,0,0-1-1H38V38H52a3,3,0,0,0,3-3V9a3,3,0,0,0-3-3H43V8h9a1,1,0,0,1,1,1V30H11V9a1,1,0,0,1,1-1h9V6H12A3,3,0,0,0,9,9V35a3,3,0,0,0,3,3h5v2a1,1,0,0,1-1,1H10a3,3,0,0,0,0,6h6a1,1,0,0,1,1,1v2H15a1,1,0,0,0-.707.293l-6,6A1,1,0,0,0,8,57v3a2,2,0,0,0,2,2H54a2,2,0,0,0,2-2V57A1,1,0,0,0,55.707,56.293ZM41,46H23V44H41Zm-5-4H28V38h8ZM11,35V32H53v3a1,1,0,0,1-1,1H12A1,1,0,0,1,11,35Zm4.414,17H48.586l4,4H11.414ZM10,60V58H54v2Z"></path><rect x="16" y="53" width="2" height="2"></rect><rect x="20" y="53" width="2" height="2"></rect><rect x="42" y="53" width="2" height="2"></rect><rect x="24" y="53" width="16" height="2"></rect><rect x="46" y="53" width="2" height="2"></rect><rect x="47" y="33" width="2" height="2"></rect><path d="M24,28H40a2,2,0,0,0,2-2V23.975a5.027,5.027,0,0,0-1.96-3.97l-1.087-.833a10,10,0,1,0-13.906,0l-1.087.833A5.027,5.027,0,0,0,22,23.975V26A2,2,0,0,0,24,28Zm.069-15H25V11h-.931A8.008,8.008,0,0,1,31,4.069V5h2V4.069A8.008,8.008,0,0,1,39.931,11H39v2h.931a7.993,7.993,0,0,1-15.862,0ZM24,23.975a3.014,3.014,0,0,1,1.176-2.382l1.5-1.146a9.916,9.916,0,0,0,10.656,0l1.5,1.146A3.014,3.014,0,0,1,40,23.975V26H24Z"></path><path d="M32,18a6,6,0,1,0-6-6A6.006,6.006,0,0,0,32,18ZM32,8a4,4,0,1,1-4,4A4,4,0,0,1,32,8Z"></path><circle cx="32" cy="12" r="2"></circle></g></svg>