<svg xmlns="http://www.w3.org/2000/svg" viewBox="0 0 64 64" x="0px" y="0px"><g><rect x="44" y="23" width="6" height="11"></rect><rect x="43" y="19" width="8" height="2"></rect><path d="M39,60H55V42H39Zm2-12a2,2,0,0,1,2-2h8a2,2,0,0,1,2,2v6a2,2,0,0,1-2,2H43a2,2,0,0,1-2-2Z"></path><rect x="33" y="38" width="4" height="22"></rect><path d="M54.32,32H52v2a2.006,2.006,0,0,1-2,2H44a2.006,2.006,0,0,1-2-2V32H36v4h1a2.006,2.006,0,0,1,2,2v2H57.52Z"></path><rect x="43" y="52" width="3" height="2"></rect><rect x="48" y="48" width="3" height="2"></rect><rect x="48" y="52" width="3.002" height="2"></rect><rect x="43" y="48" width="3" height="2"></rect><rect x="15" y="28" width="6" height="3"></rect><path d="M10,19.1V36h1a2.006,2.006,0,0,1,2,2H31a2.006,2.006,0,0,1,2-2h1V19.1L22,7.1ZM31,23v8a2,2,0,0,1-2,2H15a2,2,0,0,1-2-2V23a2,2,0,0,1,2-2H29A2,2,0,0,1,31,23Z"></path><path d="M31,60V40H13V60h2V47a2.006,2.006,0,0,1,2-2H27a2.006,2.006,0,0,1,2,2V60Z"></path><rect x="23" y="23" width="6" height="3"></rect><rect x="23" y="47" width="4" height="13"></rect><rect x="23" y="28" width="6" height="3"></rect><rect x="7" y="38" width="4" height="22"></rect><rect x="17" y="47" width="4" height="13"></rect><rect x="15" y="23" width="6" height="3"></rect><path d="M37.606,19.707,22,4.1,6.394,19.707,4.979,18.293,20.586,2.687a2,2,0,0,1,2.828,0L39.021,18.293Z"></path><path d="M45.56,14h2a6.766,6.766,0,0,1,.392-2.445A8.745,8.745,0,0,0,48.44,8.5a8.745,8.745,0,0,0-.488-3.055A6.766,6.766,0,0,1,47.56,3h-2a8.745,8.745,0,0,0,.488,3.055A6.766,6.766,0,0,1,46.44,8.5a6.766,6.766,0,0,1-.392,2.445A8.745,8.745,0,0,0,45.56,14Z"></path><path d="M41.56,14h2a6.766,6.766,0,0,1,.392-2.445A8.745,8.745,0,0,0,44.44,8.5a8.745,8.745,0,0,0-.488-3.055A6.766,6.766,0,0,1,43.56,3h-2a8.745,8.745,0,0,0,.488,3.055A6.766,6.766,0,0,1,42.44,8.5a6.766,6.766,0,0,1-.392,2.445A8.745,8.745,0,0,0,41.56,14Z"></path><path d="M49.56,14h2a6.766,6.766,0,0,1,.392-2.445A8.745,8.745,0,0,0,52.44,8.5a8.745,8.745,0,0,0-.488-3.055A6.766,6.766,0,0,1,51.56,3h-2a8.745,8.745,0,0,0,.488,3.055A6.766,6.766,0,0,1,50.44,8.5a6.766,6.766,0,0,1-.392,2.445A8.745,8.745,0,0,0,49.56,14Z"></path></g></svg>