<svg xmlns="http://www.w3.org/2000/svg" viewBox="0 0 64 64" x="0px" y="0px"><g><path d="M15,11a1,1,0,0,1-1-1,3,3,0,0,0-6,0,.74.74,0,0,1,.02.19,1,1,0,0,1-1.353.936A1.986,1.986,0,0,0,4,13H17A2,2,0,0,0,15,11Z"></path><path d="M41.312,4.893a29.894,29.894,0,0,1,6.624,10.188A6,6,0,0,1,53,21a1,1,0,0,1-1,1H49.706A30.409,30.409,0,0,1,50,26,30.015,30.015,0,0,1,13.806,55.357,29,29,0,0,0,60,32,29.147,29.147,0,0,0,41.312,4.893Z"></path><path d="M50.873,20A4.005,4.005,0,0,0,47,17a3.953,3.953,0,0,0-2.444.859,1,1,0,0,1-1.608-.673,7,7,0,0,0-13.82-.5,1,1,0,0,1-1.413.715A3.965,3.965,0,0,0,22.127,20Z"></path><path d="M22,26a2.994,2.994,0,0,0-2.3,1.083A3,3,0,0,0,16,30h2a1,1,0,0,1,1.558-.83,1,1,0,0,0,1.5-.5A1,1,0,0,1,23,29h2A3,3,0,0,0,22,26Z"></path><path d="M32.873,44A4.005,4.005,0,0,0,29,41a3.953,3.953,0,0,0-2.444.859,1,1,0,0,1-1.608-.673,7,7,0,0,0-13.82-.5,1,1,0,0,1-1.413.715A3.965,3.965,0,0,0,4.127,44Z"></path></g></svg>