<svg xmlns="http://www.w3.org/2000/svg" viewBox="0 0 64 64" x="0px" y="0px"><g data-name="Money Income"><path d="M49,57a3,3,0,0,1-3,3H18a3,3,0,0,1-3-3V22H13V57a5.006,5.006,0,0,0,5,5H46a5.006,5.006,0,0,0,5-5V22H49Z"></path><path d="M15,7a3,3,0,0,1,3-3H46a3,3,0,0,1,3,3v9h2V7a5.006,5.006,0,0,0-5-5H18a5.006,5.006,0,0,0-5,5v9h2Z"></path><path d="M48,52V22H46V52H18V22H16V52a2,2,0,0,0,2,2H46A2,2,0,0,0,48,52Z"></path><path d="M48,16V7a2,2,0,0,0-2-2H40a1,1,0,0,0-.707.293L37.586,7H26.414L24.707,5.293A1,1,0,0,0,24,5H18a2,2,0,0,0-2,2v9h2V7h5.586l1.707,1.707A1,1,0,0,0,26,9H38a1,1,0,0,0,.707-.293L40.414,7H46v9Z"></path><rect x="29" y="56" width="6" height="2"></rect><path d="M32,26A10,10,0,1,0,42,36,10.011,10.011,0,0,0,32,26Zm0,18a8,8,0,1,1,8-8A8.009,8.009,0,0,1,32,44Z"></path><path d="M32,33a1,1,0,0,1,1,1h2a3,3,0,0,0-2-2.816V30H31v1.184A2.993,2.993,0,0,0,32,37a1,1,0,1,1-1,1H29a3,3,0,0,0,2,2.816V42h2V40.816A2.993,2.993,0,0,0,32,35a1,1,0,0,1,0-2Z"></path><path d="M58,16H54a1,1,0,0,0-1,1v1H39a1,1,0,0,0-1,1v3h2V20H53v1a1,1,0,0,0,1,1h4a1,1,0,0,0,1-1V17A1,1,0,0,0,58,16Zm-1,4H55V18h2Z"></path><path d="M33,17h1a1,1,0,0,0,1-1V12a1,1,0,0,0-1-1H30a1,1,0,0,0-1,1v4a1,1,0,0,0,1,1h1v3h2Zm-2-4h2v2H31Z"></path><path d="M24,20v2h2V19a1,1,0,0,0-1-1H11V17a1,1,0,0,0-1-1H6a1,1,0,0,0-1,1v4a1,1,0,0,0,1,1h4a1,1,0,0,0,1-1V20ZM9,20H7V18H9Z"></path><rect x="24" y="24" width="2" height="2"></rect><rect x="38" y="24" width="2" height="2"></rect><rect x="31" y="22" width="2" height="2"></rect><rect x="31" y="48" width="2" height="2"></rect><rect x="35" y="48" width="2" height="2"></rect><rect x="27" y="48" width="2" height="2"></rect></g></svg>