<svg xmlns="http://www.w3.org/2000/svg" viewBox="0 0 64 64" x="0px" y="0px"><g><path d="M52.935,12.043A7.011,7.011,0,0,0,46,6a6.928,6.928,0,0,0-4.051,1.292,11.994,11.994,0,0,0-21.533,3.6A6.984,6.984,0,0,0,10.083,16,8,8,0,1,0,10,32H27v2h2V32h6v2h2V32H52a10,10,0,0,0,.935-19.957ZM52,30H10a6,6,0,0,1,0-12,5.9,5.9,0,0,1,.861.07,1.022,1.022,0,0,0,.8-.274A1.083,1.083,0,0,0,12,17a4.993,4.993,0,0,1,8.412-3.646,1,1,0,0,0,1.676-.606A9.993,9.993,0,0,1,40.82,9.29a1,1,0,0,0,1.6.226A5,5,0,0,1,51,13a1,1,0,0,0,1,1,8,8,0,0,1,0,16Z"></path><rect x="47" y="12" width="2" height="2"></rect><rect x="43" y="12" width="2" height="2"></rect><path d="M56,22a4,4,0,0,1-4,4v2a6.006,6.006,0,0,0,6-6Z"></path><rect x="48" y="26" width="2" height="2"></rect><path d="M36.707,40.293A1,1,0,0,0,36,40H25a2,2,0,0,0-2,2V60a2,2,0,0,0,2,2H39a2,2,0,0,0,2-2V45a1,1,0,0,0-.293-.707ZM39,45.414V46H37a1,1,0,0,1-1-1V42.414ZM25,60V42h9v3a3,3,0,0,0,3,3h2V60Z"></path><rect x="27" y="50" width="10" height="2"></rect><rect x="27" y="55" width="10" height="2"></rect><rect x="27" y="46" width="4" height="2"></rect><polygon points="17 52 15 52 15 54 13 54 13 56 15 56 15 58 17 58 17 56 19 56 19 54 17 54 17 52"></polygon><rect x="15" y="48" width="2" height="2"></rect><rect x="15" y="44" width="2" height="2"></rect><polygon points="9 48 7 48 7 50 5 50 5 52 7 52 7 54 9 54 9 52 11 52 11 50 9 50 9 48"></polygon><rect x="7" y="44" width="2" height="2"></rect><rect x="7" y="40" width="2" height="2"></rect><rect x="7" y="36" width="2" height="2"></rect><polygon points="49 52 47 52 47 54 45 54 45 56 47 56 47 58 49 58 49 56 51 56 51 54 49 54 49 52"></polygon><rect x="47" y="48" width="2" height="2"></rect><rect x="47" y="44" width="2" height="2"></rect><polygon points="57 48 55 48 55 50 53 50 53 52 55 52 55 54 57 54 57 52 59 52 59 50 57 50 57 48"></polygon><rect x="55" y="44" width="2" height="2"></rect><rect x="55" y="40" width="2" height="2"></rect><rect x="55" y="36" width="2" height="2"></rect><rect x="27" y="36" width="2" height="2"></rect><rect x="35" y="36" width="2" height="2"></rect><rect x="43" y="34" width="2" height="2"></rect><rect x="43" y="38" width="2" height="2"></rect><rect x="43" y="42" width="2" height="2"></rect><rect x="19" y="34" width="2" height="2"></rect><rect x="19" y="38" width="2" height="2"></rect><rect x="19" y="42" width="2" height="2"></rect><rect x="25" y="26" width="14" height="2"></rect><rect x="41" y="26" width="2" height="2"></rect><rect x="21" y="26" width="2" height="2"></rect></g></svg>