<svg xmlns="http://www.w3.org/2000/svg" viewBox="0 0 64 64" x="0px" y="0px"><g data-name="Time Management-Work Time-Productivity-Gear-Cogwheel"><path d="M39,42a6,6,0,1,0,6,6A6.006,6.006,0,0,0,39,42Zm0,10a4,4,0,1,1,4-4A4,4,0,0,1,39,52Z"></path><path d="M19,32a7,7,0,1,0,7,7A7.008,7.008,0,0,0,19,32Zm0,12a5,5,0,1,1,5-5A5.006,5.006,0,0,1,19,44Z"></path><path d="M44,18.184V12H42v6.184A3,3,0,0,0,40,21a2.951,2.951,0,0,0,.3,1.285l-3.008,3.008,1.414,1.414L41.715,23.7A2.951,2.951,0,0,0,43,24a2.993,2.993,0,0,0,1-5.816ZM43,22a1,1,0,1,1,1-1A1,1,0,0,1,43,22Z"></path><path d="M62,21a19,19,0,1,0-36.8,6.6,12.219,12.219,0,0,0-2.6-1.08l-.61-3.68A1,1,0,0,0,21,22H17a1,1,0,0,0-.99.84l-.61,3.68a12.441,12.441,0,0,0-2.68,1.11L9.68,25.46a1,1,0,0,0-1.29.1L5.56,28.39a1,1,0,0,0-.1,1.29l2.17,3.04A12.441,12.441,0,0,0,6.52,35.4l-3.68.61A1,1,0,0,0,2,37v4a1,1,0,0,0,.84.99l3.68.61a12.441,12.441,0,0,0,1.11,2.68L5.46,48.32a1,1,0,0,0,.1,1.29l2.83,2.83a1,1,0,0,0,1.29.1l3.04-2.17a12.441,12.441,0,0,0,2.68,1.11l.61,3.68A1,1,0,0,0,17,56h4a1,1,0,0,0,.99-.84l.61-3.68a12.441,12.441,0,0,0,2.68-1.11l3.04,2.17a.949.949,0,0,0,.76.16c.04.1.09.21.14.31l-1.63,2.17a1,1,0,0,0,.09,1.31l2.83,2.83a1,1,0,0,0,1.31.09l2.17-1.63a10.69,10.69,0,0,0,1.64.68l.38,2.68A1,1,0,0,0,37,62h4a1,1,0,0,0,.99-.86l.38-2.68a10.69,10.69,0,0,0,1.64-.68l2.17,1.63a1,1,0,0,0,1.31-.09l2.83-2.83a1,1,0,0,0,.09-1.31l-1.63-2.17a10.69,10.69,0,0,0,.68-1.64l2.68-.38A1,1,0,0,0,53,50V46a1,1,0,0,0-.86-.99l-2.68-.38a10.69,10.69,0,0,0-.68-1.64l1.63-2.17a1,1,0,0,0-.09-1.31l-.72-.72A19.009,19.009,0,0,0,62,21ZM28.79,50.42l-2.88-2.05a1,1,0,0,0-1.11-.04,11.031,11.031,0,0,1-3.3,1.38,1,1,0,0,0-.77.81L20.15,54h-2.3l-.58-3.48a1,1,0,0,0-.77-.81,11.031,11.031,0,0,1-3.3-1.38,1,1,0,0,0-1.11.04L9.21,50.42,7.58,48.79l2.05-2.88a1,1,0,0,0,.04-1.11,11.031,11.031,0,0,1-1.38-3.3,1,1,0,0,0-.81-.77L4,40.15v-2.3l3.48-.58a1,1,0,0,0,.81-.77,11.031,11.031,0,0,1,1.38-3.3,1,1,0,0,0-.04-1.11L7.58,29.21l1.63-1.63,2.88,2.05a1,1,0,0,0,1.11.04,11.031,11.031,0,0,1,3.3-1.38,1,1,0,0,0,.77-.81L17.85,24h2.3l.58,3.48a1,1,0,0,0,.77.81,11.031,11.031,0,0,1,3.3,1.38,1,1,0,0,0,1.11-.04l.14-.09a18.846,18.846,0,0,0,2.16,3.36.943.943,0,0,0,.12.3,10.979,10.979,0,0,1,1.38,3.31,1.007,1.007,0,0,0,.81.76l3.48.58v2.3l-3.48.58a1,1,0,0,0-.81.77,11.031,11.031,0,0,1-1.38,3.3,1,1,0,0,0,.04,1.11l2.05,2.88ZM51,46.87v2.26l-2.46.35a1.008,1.008,0,0,0-.83.74,8.6,8.6,0,0,1-.98,2.36,1,1,0,0,0,.06,1.11l1.5,2-1.6,1.6-2-1.5a1.015,1.015,0,0,0-1.12-.06,8.409,8.409,0,0,1-2.35.98,1.008,1.008,0,0,0-.74.83L40.13,60H37.87l-.35-2.46a1.008,1.008,0,0,0-.74-.83,8.409,8.409,0,0,1-2.35-.98,1,1,0,0,0-1.12.06l-2,1.5-1.6-1.6,1.5-2a.979.979,0,0,0,.05-1.12,8.878,8.878,0,0,1-.58-1.2l1.76-1.76a1,1,0,0,0,.1-1.29l-2.17-3.04a12.441,12.441,0,0,0,1.11-2.68l3.68-.61A1,1,0,0,0,36,41V39.53a7.189,7.189,0,0,1,.78-.24,1.05,1.05,0,0,0,.39-.21A19.073,19.073,0,0,0,43,40h.08a4.674,4.674,0,0,1,.49.27,1.067,1.067,0,0,0,.52.14,1.029,1.029,0,0,0,.6-.2l.46-.34a18.717,18.717,0,0,0,2.28-.41l.86.85-1.5,2a1,1,0,0,0-.06,1.11,8.6,8.6,0,0,1,.98,2.36,1.008,1.008,0,0,0,.83.74ZM43,38A17,17,0,1,1,60,21,17.024,17.024,0,0,1,43,38Z"></path><path d="M43,6A15,15,0,1,0,58,21,15.018,15.018,0,0,0,43,6Zm9.86,23.45-1.37-1.38-1.42,1.42,1.38,1.37A12.956,12.956,0,0,1,44,33.95V32H42v1.95a12.956,12.956,0,0,1-7.45-3.09l1.38-1.37-1.42-1.42-1.37,1.38A12.956,12.956,0,0,1,30.05,22H32V20H30.05a12.956,12.956,0,0,1,3.09-7.45l1.37,1.38,1.42-1.42-1.38-1.37A12.956,12.956,0,0,1,42,8.05V10h2V8.05a12.956,12.956,0,0,1,7.45,3.09l-1.38,1.37,1.42,1.42,1.37-1.38A12.956,12.956,0,0,1,55.95,20H54v2h1.95A12.956,12.956,0,0,1,52.86,29.45Z"></path></g></svg>