<svg xmlns="http://www.w3.org/2000/svg" viewBox="0 0 64 64" x="0px" y="0px"><g><path d="M5.377,25.52c.058.037.122.063.182.1a2.939,2.939,0,0,0,.375.181c.022.008.044.013.066.02V20.172a3.057,3.057,0,0,0-1.128.71,3.008,3.008,0,0,0,.01,4.246A3.09,3.09,0,0,0,5.377,25.52Z"></path><path d="M60,48V40H46v8ZM48,43h2v2H48Z"></path><path d="M34,20a7.011,7.011,0,0,0-6.929,6H40.929A7.011,7.011,0,0,0,34,20Z"></path><path d="M60,28H7a4.994,4.994,0,0,1-.9-.088c-.094-.017-.184-.046-.277-.069a4.813,4.813,0,0,1-.589-.178c-.1-.038-.2-.082-.3-.127a5.022,5.022,0,0,1-.522-.278c-.091-.056-.182-.109-.27-.171C4.1,27.057,4.045,27.034,4,27V57a3,3,0,0,0,3,3H60V50H45a1,1,0,0,1-1-1V39a1,1,0,0,1,1-1H60Z"></path><path d="M60,14H8V26H25.059a9,9,0,0,1,17.882,0H60ZM17,18H12v5H10V17a1,1,0,0,1,1-1h6Zm41,5H56V18H51V16h6a1,1,0,0,1,1,1Z"></path><polygon points="18.787 12 59.012 12 57.484 4.306 18.787 12"></polygon></g></svg>