<svg xmlns="http://www.w3.org/2000/svg" viewBox="0 0 48 48" x="0px" y="0px"><g data-name="Delivery"><path d="M35,21V14H15V31H35V27H31V25h4V23H33V21ZM18,29H16V16h2Zm4,0H20V16h2Zm4,0H24V16h2Zm4,0H28V16h2Zm2-10V16h2v3Z"></path><rect x="35" y="21" width="7" height="2"></rect><rect x="35" y="25" width="4" height="2"></rect><rect x="40" y="25" width="2" height="2"></rect><rect x="38" y="29" width="2" height="2"></rect><rect x="41" y="29" width="2" height="2"></rect><path d="M37,35V33H4v2h.78a2.964,2.964,0,0,1,4.44,0H25.78a2.964,2.964,0,0,1,4.44,0h1.56a2.964,2.964,0,0,1,4.44,0Z"></path><polygon points="13 22 8.351 22 4 25.48 4 28 13 28 13 22"></polygon><rect x="4" y="30" width="9" height="1"></rect><circle cx="7" cy="37" r="2"></circle><circle cx="28" cy="37" r="2"></circle><circle cx="34" cy="37" r="2"></circle></g></svg>