<svg xmlns="http://www.w3.org/2000/svg" viewBox="0 0 48 48" x="0px" y="0px"><title>Game</title><g><path d="M24,0A24,24,0,1,0,48,24,24.028,24.028,0,0,0,24,0Zm0,46A22,22,0,1,1,46,24,22.025,22.025,0,0,1,24,46Z"></path><polygon points="14 23 12 23 12 25 10 25 10 27 12 27 12 29 14 29 14 27 16 27 16 25 14 25 14 23"></polygon><rect x="34" y="23" width="2" height="2"></rect><rect x="36" y="25" width="2" height="2"></rect><rect x="34" y="27" width="2" height="2"></rect><rect x="32" y="25" width="2" height="2"></rect><rect x="25" y="23" width="2" height="2"></rect><rect x="21" y="23" width="2" height="2"></rect><path d="M35,19H27V17H25V15h4a2,2,0,0,0,2-2V10H29v3H25a2,2,0,0,0-2,2v2H21v2H13a7,7,0,1,0,6.321,10h9.358A7,7,0,1,0,35,19Zm0,12a4.977,4.977,0,0,1-4.706-3.329A1,1,0,0,0,29.35,27H18.65a1,1,0,0,0-.944.671A5,5,0,1,1,13,21H35a5,5,0,0,1,0,10Z"></path></g></svg>