<svg xmlns="http://www.w3.org/2000/svg" viewBox="0 0 64 64" x="0px" y="0px"><title>Podium</title><g><path d="M32,10a4,4,0,1,0-4-4A4,4,0,0,0,32,10Zm0-6a2,2,0,1,1-2,2A2,2,0,0,1,32,4Z"></path><path d="M52,21a4,4,0,1,0-4-4A4,4,0,0,0,52,21Zm0-6a2,2,0,1,1-2,2A2,2,0,0,1,52,15Z"></path><path d="M12,21a4,4,0,1,0-4-4A4,4,0,0,0,12,21Zm0-6a2,2,0,1,1-2,2A2,2,0,0,1,12,15Z"></path><path d="M58,49V34h3V27.276A5.282,5.282,0,0,0,55.724,22H48.276A5.282,5.282,0,0,0,43,27.276V34h3V49H42V38H38V23h3V16.276A5.282,5.282,0,0,0,35.724,11H28.276A5.282,5.282,0,0,0,23,16.276V23h3V38H22V49H18V34h3V27.276A5.282,5.282,0,0,0,15.724,22H8.276A5.282,5.282,0,0,0,3,27.276V34H6V49H2V62H62V49ZM45,32V27.276A3.28,3.28,0,0,1,48.276,24h7.448A3.28,3.28,0,0,1,59,27.276V32H58V28H56V48H53V39H51v9H48V28H46v4ZM25,21V16.276A3.28,3.28,0,0,1,28.276,13h7.448A3.28,3.28,0,0,1,39,16.276V21H38V17H36V37H33V28H31v9H28V17H26v4ZM5,32V27.276A3.28,3.28,0,0,1,8.276,24h7.448A3.28,3.28,0,0,1,19,27.276V32H18V28H16V48H13V39H11v9H8V28H6v4ZM22,60H4V51H22Zm18,0H24V40H40V60Zm20,0H42V51H60Z"></path></g></svg>