<svg xmlns="http://www.w3.org/2000/svg" data-name="Layer 38" viewBox="0 0 64 64" x="0px" y="0px"><polygon points="42.471 13.388 38.86 10.215 33.454 11.664 37.066 14.837 42.471 13.388"></polygon><polygon points="34.744 15.459 31.132 12.286 25.727 13.734 29.338 16.907 34.744 15.459"></polygon><polygon points="13.243 17.079 10.272 17.875 13.883 21.048 19.289 19.6 15.678 16.427 13.243 17.079"></polygon><polygon points="27.017 17.529 23.405 14.356 18 15.805 21.611 18.978 27.017 17.529"></polygon><polygon points="11.562 21.671 7.951 18.497 2.672 19.912 3.707 23.775 11.562 21.671"></polygon><polygon points="48.909 7.522 52.52 10.696 57.799 9.281 56.764 5.417 48.909 7.522"></polygon><polygon points="41.182 9.593 44.793 12.766 50.199 11.318 46.587 8.145 41.182 9.593"></polygon><polygon points="44.131 26 38.535 26 35.869 30 41.465 30 44.131 26"></polygon><polygon points="52.131 26 46.535 26 43.869 30 49.465 30 52.131 26"></polygon><polygon points="36.131 26 30.535 26 27.869 30 33.465 30 36.131 26"></polygon><polygon points="20.131 26 14.535 26 11.869 30 17.465 30 20.131 26"></polygon><polygon points="28.131 26 22.535 26 19.869 30 25.465 30 28.131 26"></polygon><polygon points="4 30 9.465 30 12.132 26 4 26 4 30"></polygon><rect x="11" y="52" width="42" height="2"></rect><polygon points="60 26 54.535 26 51.868 30 60 30 60 26"></polygon><path d="M60,32H4V60H60ZM55,55a1,1,0,0,1-1,1H10a1,1,0,0,1-1-1V51a1,1,0,0,1,1-1H54a1,1,0,0,1,1,1Zm0-8a1,1,0,0,1-1,1H10a1,1,0,0,1-1-1V37a1,1,0,0,1,1-1H54a1,1,0,0,1,1,1Z"></path><rect x="11" y="38" width="42" height="8"></rect></svg>