<svg xmlns="http://www.w3.org/2000/svg" viewBox="0 0 64 64" x="0px" y="0px"><g><rect x="15" y="35" width="2" height="16"></rect><rect x="19" y="35" width="2" height="16"></rect><rect x="23" y="35" width="2" height="16"></rect><rect x="27" y="35" width="2" height="16"></rect><rect x="47" y="35" width="2" height="16"></rect><rect x="43" y="35" width="2" height="16"></rect><rect x="39" y="35" width="2" height="16"></rect><rect x="35" y="35" width="2" height="16"></rect><rect x="31" y="35" width="2" height="16"></rect><rect x="11" y="35" width="2" height="2"></rect><rect x="11" y="49" width="2" height="2"></rect><rect x="51" y="35" width="2" height="2"></rect><rect x="51" y="49" width="2" height="2"></rect><rect x="51" y="39" width="2" height="8"></rect><rect x="11" y="39" width="2" height="8"></rect><rect x="15" y="10" width="2" height="16"></rect><rect x="19" y="10" width="2" height="16"></rect><rect x="23" y="10" width="2" height="16"></rect><rect x="27" y="10" width="2" height="16"></rect><rect x="47" y="10" width="2" height="16"></rect><rect x="43" y="10" width="2" height="16"></rect><rect x="39" y="10" width="2" height="16"></rect><rect x="35" y="10" width="2" height="16"></rect><rect x="31" y="10" width="2" height="16"></rect><rect x="11" y="10" width="2" height="2"></rect><rect x="11" y="24" width="2" height="2"></rect><rect x="51" y="10" width="2" height="2"></rect><rect x="51" y="24" width="2" height="2"></rect><rect x="51" y="14" width="2" height="8"></rect><rect x="11" y="14" width="2" height="8"></rect><path d="M61,53V6a1,1,0,0,0-1-1H56a1,1,0,0,0-1,1H9A1,1,0,0,0,8,5H4A1,1,0,0,0,3,6V53a1,1,0,0,0-1,1v4a1,1,0,0,0,1,1H61a1,1,0,0,0,1-1V54A1,1,0,0,0,61,53ZM57,7h2V29H57Zm0,24h2V53H57ZM9,8H55V28H9ZM9,30H55v1H9Zm0,3H55V53H9ZM5,7H7V29H5ZM5,31H7V53H5ZM60,57H4V55H60Z"></path></g></svg>