<svg xmlns="http://www.w3.org/2000/svg" viewBox="0 0 64 64" x="0px" y="0px"><g data-name="Creative Education"><path d="M36,33a2,2,0,0,0-2,2c0,1.495,1.252,4,2,4s2-2.505,2-4A2,2,0,0,0,36,33Z"></path><circle cx="36" cy="13" r="1"></circle><path d="M40,13.185a2.951,2.951,0,0,0-.511-1.676C37.59,8.733,36.376,8,36,8s-1.59.733-3.489,3.508A2.959,2.959,0,0,0,32,13.185V25h8ZM36,16a3,3,0,1,1,3-3A3,3,0,0,1,36,16Z"></path><path d="M44.037,20.947A3.009,3.009,0,0,0,42,19.11V25h3.557Z"></path><polygon points="33.535 28 38.465 28 39.132 27 32.868 27 33.535 28"></polygon><path d="M30,19.11a3.011,3.011,0,0,0-2.037,1.837L26.443,25H30Z"></path><path d="M52.292,43.233A23,23,0,0,0,20.263,10.227,22.785,22.785,0,0,0,13,27a1,1,0,0,1-.26.673L4.26,37H10a1,1,0,0,1,1,1v7a5.006,5.006,0,0,0,5,5h8a2,2,0,0,1,2,2v8H52V46.2c-.1.083-.2.171-.3.252L50.447,44.9a23.518,23.518,0,0,0,1.842-1.658ZM47,32V28h2v4Zm2,2v2H47V34ZM24.57,24.3l1.52-4.053A5.029,5.029,0,0,1,30,17.061V13.185a4.949,4.949,0,0,1,.861-2.807C33.856,6,35.47,6,36,6s2.143,0,5.139,4.379A4.937,4.937,0,0,1,42,13.185v3.876a5.029,5.029,0,0,1,3.91,3.184L47.43,24.3A2,2,0,0,1,45.557,27H41.535l-1.7,2.555A1,1,0,0,1,39,30H33a1,1,0,0,1-.832-.445L30.465,27H26.443a2,2,0,0,1-1.873-2.7ZM40,35c0,2.06-1.558,6-4,6s-4-3.94-4-6a4,4,0,0,1,8,0ZM23,28h2v4H23Zm0,6h2v2H23Zm-2,4H19V36h2Zm0-4H19V30h2ZM50,48H22V46h3.184A2.966,2.966,0,0,1,25,45a3.016,3.016,0,0,1,3.169-2.995A3,3,0,0,1,34,43H32a1,1,0,0,0-2,0,1.253,1.253,0,0,0,.014.167,1,1,0,0,1-1.508.971A.974.974,0,0,0,28,44a1,1,0,0,0,0,2H44a1,1,0,0,0,0-2,.976.976,0,0,0-.506.138,1,1,0,0,1-1.508-.966A1.516,1.516,0,0,0,42,43a1,1,0,0,0-2,0H38a3,3,0,0,1,5.83-.995A3.013,3.013,0,0,1,47,45a2.966,2.966,0,0,1-.184,1H50Zm1-18h2v4H51Zm0,6h2v2H51Z"></path></g></svg>