<svg xmlns="http://www.w3.org/2000/svg" viewBox="0 0 64 64" x="0px" y="0px"><g><rect x="34" y="8" width="16" height="2"></rect><rect x="34" y="12" width="16" height="2"></rect><rect x="34" y="16" width="16" height="2"></rect><rect x="34" y="20" width="16" height="2"></rect><rect x="34" y="24" width="16" height="2"></rect><rect x="12" y="28" width="12" height="2"></rect><rect x="8" y="32" width="16" height="2"></rect><path d="M24.661,11c-.732-1.266-2.723-.812-4.157-.361-.553.174-1.158.407-1.782.665C18.383,8.646,17.637,6,16,6s-2.383,2.646-2.722,5.3c-.624-.258-1.229-.491-1.782-.665-1.434-.451-3.426-.9-4.157.361-.816,1.415,1.093,3.379,3.22,5-2.127,1.621-4.036,3.585-3.22,5a1.867,1.867,0,0,0,1.754.825,8.479,8.479,0,0,0,2.4-.464c.553-.174,1.158-.407,1.782-.665C13.617,23.354,14.363,26,16,26s2.383-2.646,2.722-5.3c.624.258,1.229.491,1.782.665a8.479,8.479,0,0,0,2.4.464A1.868,1.868,0,0,0,24.661,21c.816-1.415-1.093-3.379-3.22-5C23.568,14.379,25.477,12.415,24.661,11ZM16,17a1,1,0,1,1,1-1A1,1,0,0,1,16,17Zm0-8.616a14.912,14.912,0,0,1,.8,3.8c-.268.132-.532.257-.8.4-.272-.143-.536-.268-.8-.4A14.912,14.912,0,0,1,16,8.384ZM9.4,12.191a14.946,14.946,0,0,1,3.679,1.2c-.02.314-.035.615-.046.9q-.365.23-.758.49A14.917,14.917,0,0,1,9.4,12.191Zm0,7.618a14.917,14.917,0,0,1,2.875-2.587q.393.261.758.49c.011.286.026.587.046.9A14.946,14.946,0,0,1,9.4,19.809ZM16,23.616a14.9,14.9,0,0,1-.8-3.795c.268-.132.532-.257.8-.4.272.143.536.268.8.4A14.9,14.9,0,0,1,16,23.616Zm6.6-3.807a14.946,14.946,0,0,1-3.679-1.2c.02-.314.035-.615.046-.9q.365-.229.758-.49A14.917,14.917,0,0,1,22.6,19.809Zm-2.875-5.031q-.393-.261-.758-.49c-.011-.286-.026-.587-.046-.9a14.946,14.946,0,0,1,3.679-1.2A14.917,14.917,0,0,1,19.722,14.778Z"></path><rect x="8" y="28" width="2" height="2"></rect><path d="M61.45,57.66,55,44.76V37.82A3,3,0,0,0,54,32H48a3,3,0,0,0-1,5.82v6.94l-.78,1.56A10.026,10.026,0,0,0,42,42.84V37.82A3,3,0,0,0,41,32H35a3,3,0,0,0-1,5.82v.26a6.847,6.847,0,0,0-3.94,1.97l-.06.06V9a5,5,0,0,1,5-5H54V24h2V3a1,1,0,0,0-1-1H35a6.986,6.986,0,0,0-6,3.41A6.986,6.986,0,0,0,23,2H3A1,1,0,0,0,2,3V45a1,1,0,0,0,1,1H30.02A9.861,9.861,0,0,0,28,52,10.016,10.016,0,0,0,38,62a9.8,9.8,0,0,0,3.44-.63,2.959,2.959,0,0,0,1.8.63H58.76a3,3,0,0,0,2.69-4.34ZM4,44V40H23a5.009,5.009,0,0,1,4.9,4Zm24-3.89A6.97,6.97,0,0,0,23,38H4V4H23a5,5,0,0,1,5,5ZM48,34h6a1,1,0,0,1,0,2H48a1,1,0,0,1,0-2Zm.89,11.45A1,1,0,0,0,49,45V38h4v7a1,1,0,0,0,.11.45L55.88,51H46.12ZM35,34h6a1,1,0,0,1,0,2H35a1,1,0,0,1,0-2Zm.33,10.46a1,1,0,0,0,.67-.94V38h4v5.52a1,1,0,0,0,.67.94,8.015,8.015,0,0,1,4.35,3.72c-.11-.04-.23-.07-.34-.12a10.375,10.375,0,0,0-4.02-.72,10.3,10.3,0,0,0-4,.72,8.338,8.338,0,0,1-3.33.6,8.682,8.682,0,0,1-2.44-.3A8.085,8.085,0,0,1,33,45.77,8.227,8.227,0,0,1,35.33,44.46Zm-3.86-3A4.913,4.913,0,0,1,34,40.1v2.74A10.041,10.041,0,0,0,32.05,44H30.1A4.925,4.925,0,0,1,31.47,41.46Zm9.08,16.2a2.988,2.988,0,0,0-.22,1.99A7.922,7.922,0,0,1,38,60a8.011,8.011,0,0,1-8-8,7.915,7.915,0,0,1,.2-1.76,10.31,10.31,0,0,0,3.13.42,10.316,10.316,0,0,0,4.01-.72,8.32,8.32,0,0,1,3.32-.6,8.431,8.431,0,0,1,3.34.6,3.616,3.616,0,0,0,.35.13Zm19.06,1.87a.966.966,0,0,1-.85.47H43.24a.966.966,0,0,1-.85-.47,1.008,1.008,0,0,1-.05-.98L45.12,53H56.88l2.78,5.55A1.008,1.008,0,0,1,59.61,59.53Z"></path><rect x="33" y="53" width="2" height="2"></rect><rect x="38" y="56" width="2" height="2"></rect><rect x="39" y="51" width="2" height="2"></rect><rect x="49" y="56" width="2" height="2"></rect><rect x="53" y="55" width="2" height="2"></rect><rect x="51" y="47" width="2" height="2"></rect><rect x="36" y="45" width="2" height="2"></rect><path d="M52,29h4a2,2,0,0,0,2-2V26H56v1H52a2,2,0,0,0-2,2v1h2Z"></path><rect x="39" y="28" width="2" height="2"></rect><rect x="35" y="27" width="2" height="2"></rect></g></svg>