<svg xmlns="http://www.w3.org/2000/svg" viewBox="0 0 64 64" x="0px" y="0px"><g><path d="M42.93,37.35a.407.407,0,0,1,.11.06l11.19,6.46a1.063,1.063,0,0,0,.5.13H62V42H55l-7.09-4.09A16.731,16.731,0,0,0,49,32,17.024,17.024,0,0,0,32,15a17.225,17.225,0,0,0-3.32.33A2.985,2.985,0,0,0,26,11H18.73l.23-.13a3,3,0,0,0-3-5.2L5,12H2v2H5.27a1.094,1.094,0,0,0,.5-.13L16.96,7.4a1,1,0,0,1,1.37.37.988.988,0,0,1-.37,1.36l-3.46,2A1,1,0,0,0,14,12v1a4,4,0,0,1-4,4H9v2h1a6,6,0,0,0,6-6H26a1,1,0,0,1,1,1,.949.949,0,0,1-.31.71A.928.928,0,0,1,26,15H19a1,1,0,0,0,0,2h5.02a17,17,0,0,0-2.95,2H19a1,1,0,0,0,0,2h.06a17.033,17.033,0,0,0-3.31,6H9.24L5.45,25.11A1,1,0,0,0,5,25H2v2H4.76l3.79,1.89A1,1,0,0,0,9,29h6.28A17.432,17.432,0,0,0,15,32,17.008,17.008,0,0,0,30.14,48.88a3.078,3.078,0,0,0,.73,1.23,2.99,2.99,0,0,0,.52.42,2.983,2.983,0,0,0,.48,3.58,3.063,3.063,0,0,0,1.34.79A2.873,2.873,0,0,0,33,56a3,3,0,0,0,3,3H51a1,1,0,0,0,.45-.11L55.24,57H62V55H55a1,1,0,0,0-.45.11L50.76,57H36a.949.949,0,0,1-.71-.31A.928.928,0,0,1,35,56a1,1,0,0,1,1-1h6a1,1,0,0,0,0-2H34a.949.949,0,0,1-.71-.31A.928.928,0,0,1,33,52a1,1,0,0,1,1-1h8a1,1,0,0,0,0-2H33a.949.949,0,0,1-.71-.31A.928.928,0,0,1,32,48a1,1,0,0,1,1-1h9a1,1,0,0,0,0-2H34a.949.949,0,0,1-.71-.31A.928.928,0,0,1,33,44a1,1,0,0,1,1-1H45a1,1,0,0,0,.97-.74,1.022,1.022,0,0,0-.47-1.13l-3.44-1.98a1.311,1.311,0,0,1-.21-.16,1.007,1.007,0,0,1-.32-.73,1.087,1.087,0,0,1,.13-.49A1.045,1.045,0,0,1,42.93,37.35ZM30.24,46.88A14.992,14.992,0,1,1,47,32a14.755,14.755,0,0,1-.84,4.9L44.4,35.88a13,13,0,1,0-13.23,9.08,2.874,2.874,0,0,0,.21.51A3.1,3.1,0,0,0,30.24,46.88Zm9.69-10.11a3.025,3.025,0,0,0-.4,1.49,2.975,2.975,0,0,0,.35,1.38A11.532,11.532,0,0,1,38.3,41H34a2.986,2.986,0,0,0-2.8,1.96A10.995,10.995,0,1,1,43,32a10.894,10.894,0,0,1-.5,3.27A3.042,3.042,0,0,0,39.93,36.77Z"></path><path d="M30,29h4a1,1,0,0,1,1,1h2a3,3,0,0,0-3-3H33V25H31v2H30a3,3,0,0,0,0,6h4a1,1,0,0,1,0,2H30a1,1,0,0,1-1-1H27a3,3,0,0,0,3,3h1v2h2V37h1a3,3,0,0,0,0-6H30a1,1,0,0,1,0-2Z"></path><rect x="39" y="31" width="2" height="2"></rect><rect x="23" y="31" width="2" height="2"></rect><path d="M52,15a1,1,0,0,0,1.6.8l8-6a1,1,0,0,0,0-1.6l-8-6A1,1,0,0,0,52,3V5H37V7H53a1,1,0,0,0,1-1V5l5.333,4L54,13V12a1,1,0,0,0-1-1H37v2H52Z"></path><path d="M12,49a1,1,0,0,0-1.6-.8l-8,6a1,1,0,0,0,0,1.6l8,6a1,1,0,0,0,.6.2,1,1,0,0,0,1-1V59H28V57H11a1,1,0,0,0-1,1v1L4.667,55,10,51v1a1,1,0,0,0,1,1H28V51H12Z"></path></g></svg>