<svg xmlns="http://www.w3.org/2000/svg" viewBox="0 0 64 64" x="0px" y="0px"><g data-name="Light"><path d="M46,16.809V16a1,1,0,0,0,1-1V9a1,1,0,0,0-1-1H44V5a3,3,0,0,0-3-3H17a5.006,5.006,0,0,0-5,5V56H7a1,1,0,0,0-1,1v4a1,1,0,0,0,1,1H27a1,1,0,0,0,1-1V57a1,1,0,0,0-1-1H14V7a3,3,0,0,1,3-3H41a1,1,0,0,1,1,1V8H40a1,1,0,0,0-1,1v6a1,1,0,0,0,1,1v.809a6,6,0,1,0,6,0ZM26,60H8V58H26ZM41,10h4v4H41Zm2,16a4,4,0,0,1-1.6-7.662,1,1,0,0,0,.6-.916V16h2v1.422a1,1,0,0,0,.6.916A4,4,0,0,1,43,26Z"></path><rect x="42" y="30" width="2" height="4"></rect><rect x="49.071" y="27.071" width="2" height="4" transform="translate(-5.89 43.925) rotate(-45.005)"></rect><rect x="51" y="21" width="4" height="2"></rect><rect x="31" y="21" width="4" height="2"></rect><rect x="33.929" y="28.071" width="4" height="2" transform="translate(-10.033 33.92) rotate(-45)"></rect></g></svg>