<svg xmlns="http://www.w3.org/2000/svg" viewBox="0 0 64 64" x="0px" y="0px"><title>Abacus</title><g><path d="M52,2H12a1,1,0,0,0-1,1V61a1,1,0,0,0,1,1H52a1,1,0,0,0,1-1V3A1,1,0,0,0,52,2ZM51,4v9H34.858a3.981,3.981,0,0,0-7.716,0H24.858a3.981,3.981,0,0,0-7.716,0H13V4ZM45.858,49a3.981,3.981,0,0,0-7.716,0H13V39h4.142a3.981,3.981,0,0,0,7.716,0h2.284a3.981,3.981,0,0,0,7.716,0H51V49ZM44,50a2,2,0,1,1-2-2A2,2,0,0,1,44,50ZM19,38a2,2,0,1,1,2,2A2,2,0,0,1,19,38Zm10,0a2,2,0,1,1,2,2A2,2,0,0,1,29,38Zm5.858-1a3.981,3.981,0,0,0-7.716,0H24.858a3.981,3.981,0,0,0-7.716,0H13V27H34.142a3.981,3.981,0,0,0,7.716,0H51V37ZM36,26a2,2,0,1,1,2,2A2,2,0,0,1,36,26Zm5.858-1a3.981,3.981,0,0,0-7.716,0H13V15h4.142a3.981,3.981,0,0,0,7.716,0h2.284a3.981,3.981,0,0,0,7.716,0H51V25ZM19,14a2,2,0,1,1,2,2A2,2,0,0,1,19,14Zm10,0a2,2,0,1,1,2,2A2,2,0,0,1,29,14ZM13,60V51H38.142a3.981,3.981,0,0,0,7.716,0H51v9Z"></path></g></svg>