<svg xmlns="http://www.w3.org/2000/svg" viewBox="0 0 64 64" x="0px" y="0px"><g data-name="Tooth"><path d="M38.87,12.042a9,9,0,0,0-4.641.792,5.263,5.263,0,0,1-4.458,0A8.992,8.992,0,0,0,18.6,26.111,22.894,22.894,0,0,1,22.3,35.18L23.7,43.175a1,1,0,0,0,.985.825h1.561a1,1,0,0,0,.991-.872l1.1-8.514A3.008,3.008,0,0,1,31.313,32h1.374a3.008,3.008,0,0,1,2.975,2.614l1.1,8.515a1,1,0,0,0,.991.871h1.561a1,1,0,0,0,.985-.825L41.7,35.18A22.894,22.894,0,0,1,45.4,26.111,8.992,8.992,0,0,0,38.87,12.042ZM32,18a9.527,9.527,0,0,1-5.59-1.693l1.178-1.616a8.088,8.088,0,0,0,8.823,0l1.178,1.616A9.522,9.522,0,0,1,32,18Z"></path><path d="M9.04,38H4V52H60V38H54.96a6.994,6.994,0,0,1-5.389-2.53l-.545-.667A5,5,0,0,0,45.18,33h-.9a21.017,21.017,0,0,0-.61,2.523l-1.394,8A2.992,2.992,0,0,1,39.318,46H37.757a3.009,3.009,0,0,1-2.975-2.614l-1.1-8.515A1,1,0,0,0,32.687,34H31.313a1,1,0,0,0-.992.872l-1.1,8.514A3.009,3.009,0,0,1,26.243,46H24.682a2.992,2.992,0,0,1-2.955-2.481l-1.394-8A21.017,21.017,0,0,0,19.723,33h-.9a5,5,0,0,0-3.851,1.81l-.535.653A7,7,0,0,1,9.04,38Z"></path></g></svg>