<svg xmlns="http://www.w3.org/2000/svg" viewBox="0 0 64 64" x="0px" y="0px"><g data-name="Business-Woman-Avatar-Long-Hair"><path d="M35.56,15.17a.776.776,0,0,0-.18-.09.609.609,0,0,0-.191-.06,1.054,1.054,0,0,0-.9.27,1.014,1.014,0,0,0,0,1.42.933.933,0,0,0,.33.21A1,1,0,0,0,35,17a1.2,1.2,0,0,0,.189-.02.609.609,0,0,0,.191-.06.776.776,0,0,0,.18-.09l.15-.12a1.014,1.014,0,0,0,0-1.42Z"></path><path d="M28.29,15.29a1,1,0,1,0,1.42,0A1.047,1.047,0,0,0,28.29,15.29Z"></path><path d="M27.8,13.42a3.345,3.345,0,0,0,1.913-.563,1.549,1.549,0,0,1,1.768,0,3.541,3.541,0,0,0,3.83,0,1.557,1.557,0,0,1,1.776,0A3.353,3.353,0,0,0,39,13.42v-2a1.422,1.422,0,0,1-.888-.278,3.545,3.545,0,0,0-3.831,0,1.421,1.421,0,0,1-.887.278,1.4,1.4,0,0,1-.885-.277,3.533,3.533,0,0,0-3.827,0,1.551,1.551,0,0,1-1.769,0A3.339,3.339,0,0,0,25,10.58v2a1.4,1.4,0,0,1,.884.277A3.343,3.343,0,0,0,27.8,13.42Z"></path><path d="M50,26a9.01,9.01,0,0,0-7-8.779V13a11,11,0,0,0-22,0v4.221a9,9,0,0,0-3.381,15.986A12.921,12.921,0,0,0,15,41V61a1,1,0,0,0,1,1H48a1,1,0,0,0,1-1V41a12.921,12.921,0,0,0-2.619-7.793A9,9,0,0,0,50,26ZM16,26a7,7,0,0,1,6.123-6.948A1,1,0,0,0,23,18.06V13a9,9,0,0,1,18,0v5.06a1,1,0,0,0,.877.992A6.991,6.991,0,0,1,45.055,31.69,12.954,12.954,0,0,0,37,28.051V25.188A6,6,0,0,0,40,20V14H38v6a4,4,0,0,1-4,4H30a4,4,0,0,1-4-4V14H24v6a6,6,0,0,0,3,5.188v2.863a12.954,12.954,0,0,0-8.055,3.639A7,7,0,0,1,16,26Zm14,0h4a6,6,0,0,0,1-.09v2.739L32,32.4l-3-3.75V25.91A6,6,0,0,0,30,26Zm-1.927,4.693,2.5,3.126-2.13,1.6-1.32-3.3ZM32,35.25l2.763,2.071L32,43.538l-2.763-6.217Zm3.556.167-2.13-1.6,2.5-3.126.949,1.424ZM47,60H43V50.447a8.417,8.417,0,0,0,0-10.894V38H41v2a1,1,0,0,0,.4.8c.9.679,1.6,2.815,1.6,4.2s-.7,3.522-1.6,4.2a1,1,0,0,0-.4.8V60H23V50a1,1,0,0,0-.4-.8c-.9-.679-1.6-2.815-1.6-4.2s.7-3.522,1.6-4.2A1,1,0,0,0,23,40V38H21v1.553a8.417,8.417,0,0,0,0,10.894V60H17V41a11.013,11.013,0,0,1,9-10.81l-.837,1.255a1,1,0,0,0-.1.927l6.015,14.034a1,1,0,0,0,1.828,0l6.015-14.034a1,1,0,0,0-.1-.927l-.837-1.255A11.013,11.013,0,0,1,47,41Z"></path></g></svg>