<svg xmlns="http://www.w3.org/2000/svg" viewBox="0 0 64 64" x="0px" y="0px"><title>Printer</title><g><path d="M61,19H49V3a1,1,0,0,0-1-1H16a1,1,0,0,0-1,1V19H3a1,1,0,0,0-1,1V44a1,1,0,0,0,1,1H15V61a1,1,0,0,0,1,1H48a1,1,0,0,0,1-1V45H61a1,1,0,0,0,1-1V20A1,1,0,0,0,61,19ZM17,4H47V19H17ZM47,60H17V38H47ZM60,43H49V38h2V36H13v2h2v5H4V21H60Z"></path><path d="M11,23a3,3,0,1,0,3,3A3,3,0,0,0,11,23Zm0,4a1,1,0,1,1,1-1A1,1,0,0,1,11,27Z"></path><rect x="54" y="25" width="2" height="2"></rect><rect x="50" y="25" width="2" height="2"></rect><rect x="46" y="25" width="2" height="2"></rect><rect x="21" y="42" width="22" height="2"></rect><rect x="21" y="48" width="22" height="2"></rect><rect x="21" y="54" width="22" height="2"></rect></g></svg>