<svg xmlns="http://www.w3.org/2000/svg" viewBox="0 0 64 64" x="0px" y="0px"><g><rect x="31" y="32" width="2" height="22"></rect><rect x="41" y="32" width="2" height="22"></rect><rect x="21" y="32" width="2" height="22"></rect><rect x="12" y="20" width="40" height="4"></rect><path d="M47.054,60l1.889-34H15.057l1.889,34ZM39,31a1,1,0,0,1,1-1h4a1,1,0,0,1,1,1V55a1,1,0,0,1-1,1H40a1,1,0,0,1-1-1ZM29,31a1,1,0,0,1,1-1h4a1,1,0,0,1,1,1V55a1,1,0,0,1-1,1H30a1,1,0,0,1-1-1ZM19,31a1,1,0,0,1,1-1h4a1,1,0,0,1,1,1V55a1,1,0,0,1-1,1H20a1,1,0,0,1-1-1Z"></path><path d="M18.781,4l-3.5,14H48.719l-3.5-14H43v9a1,1,0,0,1-1,1H22a1,1,0,0,1-1-1V4Z"></path><rect x="23" y="4" width="18" height="8"></rect></g></svg>