<svg xmlns="http://www.w3.org/2000/svg" viewBox="0 0 64 64" x="0px" y="0px"><g><path d="M48.305,44.684l-8.413-2.219a21,21,0,1,0-15.784,0L15.7,44.683A12.991,12.991,0,0,0,6,57.25V61a1,1,0,0,0,1,1H57a1,1,0,0,0,1-1V57.25A12.989,12.989,0,0,0,48.305,44.684ZM32,47.586l-5-5V40.061a13.782,13.782,0,0,0,10,0v2.525ZM18,27v1a2,2,0,0,1,0-4Zm2-3.184A3,3,0,0,0,22,21V17a3,3,0,0,1,3-3H39a3,3,0,0,1,3,3v4a3,3,0,0,0,2,2.816V27a12,12,0,0,1-24,0ZM46,28V24a2,2,0,0,1,0,4ZM26.542,44.956l3.5,3.5-4.669,1.168Zm10.916,0,1.167,4.67-4.669-1.168ZM13,23A19,19,0,1,1,39,40.662V39.106A14.029,14.029,0,0,0,45.668,30H46a4,4,0,0,0,0-8H45a1,1,0,0,1-1-1V17a5.006,5.006,0,0,0-5-5H25a5.006,5.006,0,0,0-5,5v4a1,1,0,0,1-1,1H18a4,4,0,0,0,0,8h.332A14.029,14.029,0,0,0,25,39.106v1.556A18.892,18.892,0,0,1,13,23ZM8,57.25a10.99,10.99,0,0,1,8.2-10.633L24.62,44.4l-1.59,6.36a1,1,0,0,0,1.213,1.212L31,50.281V60H19V53H17v7H8ZM56,60H47V53H45v7H33V50.281l6.757,1.689a1,1,0,0,0,.95-.263,1,1,0,0,0,.263-.949L39.38,44.4l8.417,2.22A10.989,10.989,0,0,1,56,57.25Z"></path><path d="M32,30a3,3,0,0,0,3-3V23H33v4a1,1,0,0,1-2,0V23H29v4A3,3,0,0,0,32,30Z"></path><path d="M38,24a.99.99,0,0,0,.92-1.38,1.032,1.032,0,0,0-.21-.33,1.155,1.155,0,0,0-.33-.21.949.949,0,0,0-.58-.06.636.636,0,0,0-.18.06.757.757,0,0,0-.18.09,1.576,1.576,0,0,0-.15.12,1.155,1.155,0,0,0-.21.33A.99.99,0,0,0,38,24Z"></path><path d="M25.29,23.71a1.155,1.155,0,0,0,.33.21.943.943,0,0,0,.76,0,1.155,1.155,0,0,0,.33-.21.99.99,0,0,0,.21-1.09,1.032,1.032,0,0,0-.21-.33,1,1,0,0,0-1.09-.21,1.155,1.155,0,0,0-.33.21,1.032,1.032,0,0,0-.21.33.943.943,0,0,0,0,.76A1.169,1.169,0,0,0,25.29,23.71Z"></path><path d="M35.38,53.08a1,1,0,0,0-1.09.21A1.05,1.05,0,0,0,34,54a.99.99,0,0,0,.29.71,1.155,1.155,0,0,0,.33.21A.99.99,0,0,0,36,54a1.05,1.05,0,0,0-.29-.71A1.155,1.155,0,0,0,35.38,53.08Z"></path><path d="M34.62,57.08a1.155,1.155,0,0,0-.33.21A1.05,1.05,0,0,0,34,58a.838.838,0,0,0,.08.38,1.169,1.169,0,0,0,.21.33,1.155,1.155,0,0,0,.33.21.943.943,0,0,0,.76,0,1.155,1.155,0,0,0,.33-.21,1.169,1.169,0,0,0,.21-.33A1,1,0,0,0,36,58a1.05,1.05,0,0,0-.29-.71A1.037,1.037,0,0,0,34.62,57.08Z"></path><path d="M32,35a7.9,7.9,0,0,0,5.953-2.345l-1.511-1.31A5.992,5.992,0,0,1,32,33a5.992,5.992,0,0,1-4.442-1.655l-1.511,1.31A7.9,7.9,0,0,0,32,35Z"></path></g></svg>