<svg xmlns="http://www.w3.org/2000/svg" viewBox="0 0 64 64" x="0px" y="0px"><title>Calculator-Math-Book_1</title><g><path d="M60,33V55H33V54a3,3,0,0,1,3-3H57a1,1,0,0,0,1-1V35H56V49H36a4.961,4.961,0,0,0-3,1.013V18a3,3,0,0,1,3-3h2V13H36a5,5,0,0,0-4,2,5,5,0,0,0-4-2H7a1,1,0,0,0-1,1v5H3a1,1,0,0,0-1,1V56a1,1,0,0,0,1,1H61a1,1,0,0,0,1-1V33ZM8,15H28a3,3,0,0,1,3,3V50.013A4.961,4.961,0,0,0,28,49H8ZM4,21H6V50a1,1,0,0,0,1,1H28a3,3,0,0,1,3,3v1H4Z"></path><rect x="12" y="23" width="14" height="2"></rect><rect x="12" y="31" width="14" height="2"></rect><rect x="12" y="39" width="14" height="2"></rect><rect x="38" y="39" width="14" height="2"></rect><path d="M43,29H57a2,2,0,0,0,2-2V9a2,2,0,0,0-2-2H43a2,2,0,0,0-2,2V27A2,2,0,0,0,43,29ZM43,9H57V27H43L43,9Z"></path><path d="M45,17H55a1,1,0,0,0,1-1V12a1,1,0,0,0-1-1H45a1,1,0,0,0-1,1v4A1,1,0,0,0,45,17Zm1-4h8v2H46Z"></path><rect x="45" y="19" width="4" height="2"></rect><rect x="51" y="19" width="4" height="2"></rect><rect x="45" y="23" width="4" height="2"></rect><rect x="51" y="23" width="4" height="2"></rect></g></svg>