<svg xmlns="http://www.w3.org/2000/svg" viewBox="0 0 64 64" x="0px" y="0px"><g data-name="Hands Washing-Hand Soap-Hands-Washing-Healthcare"><path d="M60.83,35.17A4,4,0,0,0,58,34H55.9a5.953,5.953,0,0,0-2.69-4.05,5.985,5.985,0,0,0-9.76-6.84,5.878,5.878,0,0,0-1.04-.58,3.97,3.97,0,0,0-3.99-4.13,4.007,4.007,0,0,0-1.99.53l-5.05,2.92a3.9,3.9,0,0,0-.49-1.45,4.007,4.007,0,0,0-5.46-1.47L6.27,30H2v2H6.54a1.063,1.063,0,0,0,.5-.13l19.39-11.2a2.04,2.04,0,0,1,2.73.73,2.006,2.006,0,0,1-.73,2.73l-6.93,4a1.022,1.022,0,0,0-.47,1.13A1,1,0,0,0,22,30H42a2.039,2.039,0,0,1,1.82,1.17A2.036,2.036,0,0,1,44,32a2.006,2.006,0,0,1-2,2H28a1,1,0,0,0,0,2H47a1.992,1.992,0,0,1,1.51,3.3A1.938,1.938,0,0,1,47,40H28a1,1,0,0,0,0,2H42a2.015,2.015,0,0,1,2,2,2.006,2.006,0,0,1-2,2H28a1,1,0,0,0,0,2H38a2.015,2.015,0,0,1,2,2,2.006,2.006,0,0,1-2,2H12.19L7.37,50.07A.937.937,0,0,0,7,50H2v2H6.81l4.82,1.93A.937.937,0,0,0,12,54H49a4,4,0,0,0,4-4,3.953,3.953,0,0,0-.55-2H53a4,4,0,0,0,4-4,3.953,3.953,0,0,0-.55-2H58a4,4,0,0,0,2.83-6.83ZM34,28H25.73l3.7-2.13a3.963,3.963,0,0,0,1.38-1.38l6.62-3.82a2.04,2.04,0,0,1,2.73.73,1.968,1.968,0,0,1,.22.63c-.12-.01-.25-.03-.38-.03A6,6,0,0,0,34,28Zm13,6H45.44A3.906,3.906,0,0,0,46,32a4.008,4.008,0,0,0-1.17-2.83A4,4,0,0,0,42,28H36a4,4,0,0,1,4-4,3.952,3.952,0,0,1,2.91,1.27.993.993,0,0,0,1.6-.2,3.987,3.987,0,1,1,6.46,4.58.984.984,0,0,0-.23.91,1.008,1.008,0,0,0,.63.7,3.981,3.981,0,0,1-.48,7.63A4.422,4.422,0,0,0,51,38a3.995,3.995,0,0,0-4-4Zm2,18H41.44A3.906,3.906,0,0,0,42,50a3.953,3.953,0,0,0-.55-2H49a2.015,2.015,0,0,1,2,2A2.006,2.006,0,0,1,49,52Zm4-6H45.44A3.906,3.906,0,0,0,46,44a3.953,3.953,0,0,0-.55-2H53a2.015,2.015,0,0,1,2,2A2.006,2.006,0,0,1,53,46Zm5-6H53.31a6.008,6.008,0,0,0,2.6-4H58a2.015,2.015,0,0,1,2,2A2.006,2.006,0,0,1,58,40Z"></path><path d="M34,14a3,3,0,1,0-3-3A3,3,0,0,0,34,14Zm0-4a1,1,0,1,1-1,1A1,1,0,0,1,34,10Z"></path><path d="M48,8a3,3,0,1,0,3,3A3.009,3.009,0,0,0,48,8Zm0,4a1,1,0,1,1,1-1A1,1,0,0,1,48,12Z"></path><path d="M57,22a4,4,0,1,0-4-4A4,4,0,0,0,57,22Zm0-6a2,2,0,1,1-2,2A2,2,0,0,1,57,16Z"></path></g></svg>