<svg xmlns="http://www.w3.org/2000/svg" viewBox="0 0 64 64" x="0px" y="0px"><g><path d="M37,28.051V25.9A5.009,5.009,0,0,0,41,21V19a3,3,0,0,0,0-6V11a9,9,0,0,0-18,0v2a3,3,0,0,0,0,6v2a5.009,5.009,0,0,0,4,4.9v2.152A13.008,13.008,0,0,0,15,41V61a1,1,0,0,0,1,1H48a1,1,0,0,0,1-1V41A13.008,13.008,0,0,0,37,28.051Zm3.754,6.578-2.309,1.539a1,1,0,0,0-.152,1.539l1.2,1.2-4.958,3.857,4.4-10.391a1,1,0,0,0-.1-.927l-.837-1.255c.324.06.641.136.954.223Zm-15.2,1.539-2.309-1.539,1.8-4.216c.313-.087.63-.163.954-.223l-.837,1.255a1,1,0,0,0-.1.927l4.395,10.391-4.958-3.857,1.2-1.2a1,1,0,0,0-.152-1.539ZM35,26v2.649L32,32.4l-3-3.75V26Zm-6.927,4.693,2.5,3.126-2.13,1.6-1.32-3.3ZM32,35.25l2.763,2.071L32,43.538l-2.763-6.217Zm3.556.167-2.13-1.6,2.5-3.126.949,1.424ZM42,16a1,1,0,0,1-1,1V15A1,1,0,0,1,42,16ZM25,11a7,7,0,0,1,14,0v8H36.827a1.009,1.009,0,0,1-.707-.293l-.829-.829A2.984,2.984,0,0,0,33.17,17H30.831a2.981,2.981,0,0,0-2.121.878l-.829.829a1.009,1.009,0,0,1-.707.293H25Zm-3,5a1,1,0,0,1,1-1v2A1,1,0,0,1,22,16Zm3,5h2.174a2.981,2.981,0,0,0,2.121-.878l.829-.829A1.009,1.009,0,0,1,30.831,19H33.17a1,1,0,0,1,.708.293l.828.828A2.978,2.978,0,0,0,36.827,21H39a3,3,0,0,1-3,3H28A3,3,0,0,1,25,21ZM17,41a11,11,0,0,1,5.386-9.443l-1.3,3.049a1,1,0,0,0,.364,1.226l1.986,1.323-1.138,1.138a1,1,0,0,0,.093,1.5L31,46.49V60H23V41H21V60H17ZM47,60H43V41H41V60H33V46.49l8.614-6.7a1,1,0,0,0,.093-1.5l-1.138-1.138,1.986-1.323a1,1,0,0,0,.364-1.226l-1.3-3.049A11,11,0,0,1,47,41Z"></path><path d="M35.71,13.29a1.047,1.047,0,0,0-1.42,0,1.155,1.155,0,0,0-.21.33.942.942,0,0,0,0,.76,1.032,1.032,0,0,0,.21.33A1.05,1.05,0,0,0,35,15a1.369,1.369,0,0,0,.2-.02.646.646,0,0,0,.18-.06.776.776,0,0,0,.18-.09,1.712,1.712,0,0,0,.15-.12A1.052,1.052,0,0,0,36,14a1,1,0,0,0-.08-.38A1.155,1.155,0,0,0,35.71,13.29Z"></path><path d="M29,15a.99.99,0,1,0-.71-.29A1.052,1.052,0,0,0,29,15Z"></path><rect x="28" y="9" width="8" height="2"></rect><rect x="30" y="6" width="4" height="2"></rect></g></svg>