<svg xmlns="http://www.w3.org/2000/svg" viewBox="0 0 64 64" x="0px" y="0px"><g><path d="M12.315,23.458c-.013.03-.027.059-.039.089-.179.431-.333.875-.476,1.324-.024.078-.054.154-.078.233-.123.408-.222.825-.314,1.245-.026.119-.061.235-.084.355-.08.4-.134.817-.185,1.231-.016.135-.043.267-.057.4C11.029,28.885,11,29.439,11,30v.351L9.784,31.87,4.081,39H9v8a3,3,0,0,0,3,3h7V60H39V42.963l.333-.3c.342-.306.663-.626.975-.953.081-.086.161-.174.24-.261.272-.3.534-.6.782-.916l.085-.1A17.062,17.062,0,0,0,43,37.972V36h2v1.949a17.96,17.96,0,0,0,2.685-.331l-.51-1.905,1.932-.517.508,1.9a17.722,17.722,0,0,0,2.495-1.044l-.976-1.691,1.732-1,.979,1.7A17.949,17.949,0,0,0,55.981,33.4l-1.375-1.374,1.415-1.415L57.4,31.981a17.949,17.949,0,0,0,1.656-2.136l-1.7-.979,1-1.732,1.691.976a17.722,17.722,0,0,0,1.044-2.5l-1.9-.508.517-1.932,1.905.51A17.96,17.96,0,0,0,61.949,21H60V19h1.949a17.96,17.96,0,0,0-.331-2.685l-1.905.51L59.2,14.893l1.9-.508a17.722,17.722,0,0,0-1.044-2.495l-1.691.976-1-1.732,1.7-.979A17.949,17.949,0,0,0,57.4,8.019L56.021,9.394,54.606,7.979l1.375-1.374a17.949,17.949,0,0,0-2.136-1.656l-.979,1.7-1.732-1,.976-1.691a17.722,17.722,0,0,0-2.495-1.044l-.508,1.9-1.932-.517.51-1.9A17.96,17.96,0,0,0,45,2.051V4H43V2.038a17.944,17.944,0,0,0-2.683.352l.508,1.9L38.893,4.8l-.509-1.9a17.915,17.915,0,0,0-2.5,1.041l.98,1.7-1.732,1-.98-1.7a18.277,18.277,0,0,0-2.146,1.647l1.386,1.385L31.979,9.394,30.6,8.013a18.264,18.264,0,0,0-1.648,2.144l1.693.977-1,1.732-1.7-.983q-.285.56-.532,1.142A17.039,17.039,0,0,0,12.315,23.458ZM40.307,37.646l-1.932-.518.518-1.932,1.932.517ZM35.942,17.382A1.971,1.971,0,0,1,37.845,16h3.249l1-3.09a2,2,0,0,1,3.8,0l1,3.09h3.249a2,2,0,0,1,1.176,3.618L48.7,21.528l1,3.09a1.972,1.972,0,0,1-.727,2.236,1.972,1.972,0,0,1-2.352,0L44,24.944l-2.628,1.91a2,2,0,0,1-3.079-2.236l1-3.09-2.628-1.91A1.972,1.972,0,0,1,35.942,17.382Zm-.808,15.974,1.732,1-1,1.732-1.732-1Zm-8.78-9.663,1.933-.518.517,1.932-1.932.518Zm5.625,6.913,1.415,1.415-1.415,1.414-1.414-1.414Zm-1.335-1.74-1.732,1-1-1.732,1.732-1ZM26.872,14.375l1.932.518-.517,1.932-1.933-.518ZM26,19h2v2H26Z"></path><path d="M41.424,21.455,40.2,25.236,43.412,22.9a1,1,0,0,1,1.176,0L47.8,25.236l-1.228-3.781a1,1,0,0,1,.363-1.118L50.155,18H46.18a1,1,0,0,1-.951-.691L44,13.528,44,13.516l-1.224,3.793A1,1,0,0,1,41.82,18H37.845l3.216,2.337A1,1,0,0,1,41.424,21.455Z"></path></g></svg>