<svg xmlns="http://www.w3.org/2000/svg" viewBox="0 0 64 64" x="0px" y="0px"><g><path d="M4,39.54a5.979,5.979,0,0,1,8-.01V8A4,4,0,0,0,4,8Z"></path><path d="M56,28H40v6H56ZM45,32H43V30h2Zm4,0H47V30h2Zm4,0H51V30h2Z"></path><rect x="52" y="40" width="4" height="4"></rect><path d="M27,14.07v2.02A5.992,5.992,0,0,1,31.91,21h2.02A8,8,0,0,0,27,14.07Z"></path><path d="M33.93,23H31.91a5.989,5.989,0,0,1-9.38,3.89L21.1,28.31A7.924,7.924,0,0,0,26,30,8,8,0,0,0,33.93,23Z"></path><path d="M37,22H59a3,3,0,0,1,1,.18V9H14V44a1,1,0,0,1-2,0,4,4,0,1,0-4,4H34V27.97A9.977,9.977,0,1,1,36,22c0,.06-.01.12-.01.19A2.832,2.832,0,0,1,37,22ZM30,44H16V42H30ZM20,34H30v2H20Zm10,4v2H16V38ZM18,34v2H16V34Zm2-21H16V11h4Zm16-2H56v2H36Zm0,4H56v2H36Z"></path><rect x="52" y="46" width="4.001" height="4"></rect><circle cx="26" cy="22" r="4"></circle><path d="M18,22a7.924,7.924,0,0,0,1.69,4.9l1.42-1.43A5.989,5.989,0,0,1,25,16.09V14.07A8,8,0,0,0,18,22Z"></path><rect x="40" y="40" width="4" height="4"></rect><rect x="40" y="46" width="4" height="4"></rect><rect x="40" y="52" width="4" height="4"></rect><rect x="46" y="52" width="4" height="4"></rect><path d="M37,60H59a1,1,0,0,0,1-1V25a1,1,0,0,0-1-1H37a1,1,0,0,0-1,1V59A1,1,0,0,0,37,60Zm1-32a2,2,0,0,1,2-2H56a2,2,0,0,1,2,2v6a2,2,0,0,1-2,2H40a2,2,0,0,1-2-2Zm0,12a2,2,0,0,1,2-2H56a2,2,0,0,1,2,2V56a2,2,0,0,1-2,2H40a2,2,0,0,1-2-2Z"></path><rect x="52" y="52" width="4.001" height="4"></rect><rect x="46" y="46" width="4" height="4"></rect><rect x="46" y="40" width="4" height="4"></rect></g></svg>