<svg xmlns="http://www.w3.org/2000/svg" viewBox="0 0 64 64" x="0px" y="0px"><g><path d="M50.036,28.2a2.784,2.784,0,0,0,1.074-5.049L46,19.953V12a1,1,0,0,0-1-1H41a1,1,0,0,0-1,1v4.2l-5.939-3.716a2.009,2.009,0,0,0-2.122,0l-17.1,10.7A2.784,2.784,0,0,0,15.964,28.2a2.733,2.733,0,0,0,.5.044,2.666,2.666,0,0,0,1.58-.5L20,26.489V61a1,1,0,0,0,1,1H45a1,1,0,0,0,1-1V26.487L47.9,27.7A2.761,2.761,0,0,0,50.036,28.2ZM42,13h2v5.7l-2-1.251ZM16.915,26.089a.8.8,0,0,1-.6.14.786.786,0,0,1-.516-.337.775.775,0,0,1,.155-1.047L33,14.18,50,24.813a.785.785,0,0,1-.314,1.416.825.825,0,0,1-.656-.176l-15.494-9.9a1,1,0,0,0-1.076,0ZM26,60V52h4v8Zm18,0H32V51a1,1,0,0,0-1-1H25a1,1,0,0,0-1,1v9H22V42H44Zm0-20H22V25.212l11-7.025L44,25.21Z"></path><path d="M31,32H25a1,1,0,0,0-1,1v4a1,1,0,0,0,1,1h6a1,1,0,0,0,1-1V33A1,1,0,0,0,31,32Zm-1,4H26V34h4Z"></path><path d="M34,33v4a1,1,0,0,0,1,1h6a1,1,0,0,0,1-1V33a1,1,0,0,0-1-1H35A1,1,0,0,0,34,33Zm2,1h4v2H36Z"></path><path d="M29,26a4,4,0,1,0,4-4A4,4,0,0,0,29,26Zm6,0a2,2,0,1,1-2-2A2,2,0,0,1,35,26Z"></path><path d="M35,58h6a1,1,0,0,0,1-1V51a1,1,0,0,0-1-1H35a1,1,0,0,0-1,1v6A1,1,0,0,0,35,58Zm1-6h4v4H36Z"></path><path d="M60,55.022V55a4,4,0,0,0-4-4V48.9c3.387-.627,6-4.372,6-8.9,0-4.963-3.14-9-7-9s-7,4.037-7,9c0,4.525,2.613,8.27,6,8.9v2.645a4.008,4.008,0,0,0-1.893,2.538A5.008,5.008,0,0,0,48,59v2a1,1,0,0,0,1,1H61a1,1,0,0,0,1-1V59A4.988,4.988,0,0,0,60,55.022ZM50,40c0-3.859,2.243-7,5-7s5,3.141,5,7c0,3.38-1.721,6.208-4,6.859V43.414l2.707-2.707-1.414-1.414L56,40.586V37H54v4.635l-1.28-1.328-1.44,1.386L54,44.517v2.342C51.721,46.208,50,43.38,50,40ZM60,60H50V59a3,3,0,0,1,3-3,1,1,0,0,0,1-1,2,2,0,0,1,4,0,1.964,1.964,0,0,1-.038.351,1,1,0,0,0,.5,1.047A3,3,0,0,1,60,59Z"></path><path d="M15,48a3,3,0,0,0-3,3v1H11V51a3,3,0,0,0-6,0v1H3a1,1,0,0,0-1,1v3a1,1,0,0,0,1,1H5v4a1,1,0,0,0,1,1h4a1,1,0,0,0,1-1V57h1v4a1,1,0,0,0,1,1h4a1,1,0,0,0,1-1V51A3,3,0,0,0,15,48ZM4,55V54H5v1Zm5,5H7V51a1,1,0,0,1,2,0Zm2-5V54h1v1Zm5,5H14V51a1,1,0,0,1,2,0Z"></path></g></svg>