<svg xmlns="http://www.w3.org/2000/svg" viewBox="0 0 64 64" x="0px" y="0px"><g><path d="M57,2H23a3,3,0,0,0-3,3V8H7a3,3,0,0,0-3,3V59a3,3,0,0,0,3,3H41a3,3,0,0,0,3-3V56H57a3,3,0,0,0,3-3V5A3,3,0,0,0,57,2ZM50,4h2V6.764l-.1-.211a1.042,1.042,0,0,0-1.79,0l-.1.211ZM42,59a1,1,0,0,1-1,1H7a1,1,0,0,1-1-1V11a1,1,0,0,1,1-1H32v7a1,1,0,0,0,1.9.447L35,15.236l1.1,2.211A1,1,0,0,0,38,17V10h3a1,1,0,0,1,1,1v9a1,1,0,0,0-1,1v2.522a9.266,9.266,0,0,0-.873.362L38.343,22.1a1,1,0,0,0-1.414,0L34.1,24.929a1,1,0,0,0,0,1.414l1.784,1.784a9.12,9.12,0,0,0-.363.873H33a1,1,0,0,0-1,1v4a1,1,0,0,0,1,1h2.522a9.12,9.12,0,0,0,.363.873L34.1,37.657a1,1,0,0,0,0,1.414L36.929,41.9a1,1,0,0,0,1.414,0l1.783-1.783a9.285,9.285,0,0,0,.874.362V43a1,1,0,0,0,1,1ZM34,10h2v2.764l-.1-.211a1.042,1.042,0,0,0-1.79,0l-.1.211ZM45.75,25.23a7,7,0,0,1,1.8.745,1,1,0,0,0,1.216-.154l1.6-1.6,1.414,1.414-1.6,1.6a1,1,0,0,0-.155,1.216,7,7,0,0,1,.747,1.8,1,1,0,0,0,.967.75H54v2H51.738a1,1,0,0,0-.967.75,7,7,0,0,1-.747,1.8,1,1,0,0,0,.155,1.216l1.6,1.6-1.414,1.414-1.6-1.6a1,1,0,0,0-1.216-.154,6.982,6.982,0,0,1-1.8.745,1,1,0,0,0-.75.968V42H43V39.738a1,1,0,0,0-.75-.968,6.982,6.982,0,0,1-1.8-.745,1,1,0,0,0-1.216.154l-1.6,1.6-1.414-1.414,1.6-1.6a1,1,0,0,0,.155-1.216,7,7,0,0,1-.747-1.8,1,1,0,0,0-.967-.75H34V31h2.262a1,1,0,0,0,.967-.75,7,7,0,0,1,.747-1.8,1,1,0,0,0-.155-1.216l-1.6-1.6,1.414-1.414,1.6,1.6a1,1,0,0,0,1.216.154,7,7,0,0,1,1.8-.745,1,1,0,0,0,.75-.968V22h2v2.262A1,1,0,0,0,45.75,25.23ZM58,53a1,1,0,0,1-1,1H44V44h2a1,1,0,0,0,1-1V40.478a9.285,9.285,0,0,0,.874-.362L49.657,41.9a1.029,1.029,0,0,0,1.414,0L53.9,39.071a1,1,0,0,0,0-1.414l-1.784-1.784A9.12,9.12,0,0,0,52.478,35H55a1,1,0,0,0,1-1V30a1,1,0,0,0-1-1H52.478a9.12,9.12,0,0,0-.363-.873L53.9,26.343a1,1,0,0,0,0-1.414L51.071,22.1a1,1,0,0,0-1.414,0l-1.784,1.783A9.266,9.266,0,0,0,47,23.522V21a1,1,0,0,0-1-1H44V11a3,3,0,0,0-3-3H22V5a1,1,0,0,1,1-1H48v7a1,1,0,0,0,1.9.447L51,9.236l1.1,2.211A1,1,0,0,0,54,11V4h3a1,1,0,0,1,1,1Z"></path><rect x="10" y="24" width="8" height="2"></rect><rect x="20" y="24" width="4" height="2"></rect><rect x="26" y="24" width="6" height="2"></rect><rect x="10" y="28" width="6" height="2"></rect><rect x="18" y="28" width="2" height="2"></rect><rect x="22" y="28" width="8" height="2"></rect><rect x="10" y="32" width="8" height="2"></rect><rect x="20" y="32" width="6" height="2"></rect><rect x="28" y="32" width="2" height="2"></rect><rect x="10" y="36" width="22" height="2"></rect><rect x="10" y="40" width="6" height="2"></rect><rect x="18" y="40" width="10" height="2"></rect><rect x="30" y="40" width="2" height="2"></rect><rect x="10" y="44" width="2" height="2"></rect><rect x="14" y="44" width="6" height="2"></rect><rect x="22" y="44" width="10" height="2"></rect><rect x="10" y="14" width="2" height="2"></rect><rect x="14" y="14" width="9" height="2"></rect><rect x="10" y="18" width="13" height="2"></rect><path d="M39,32a5,5,0,1,0,5-5A5.006,5.006,0,0,0,39,32Zm8,0a3,3,0,1,1-3-3A3,3,0,0,1,47,32Z"></path></g></svg>