<svg xmlns="http://www.w3.org/2000/svg" viewBox="0 0 64 64" x="0px" y="0px"><g><path d="M60,43a2.006,2.006,0,0,0,2-2V30.13a3.009,3.009,0,0,0-1.46-2.57l-3.65-2.19-1.27-6.34A5,5,0,0,0,50.72,15H5a3.009,3.009,0,0,0-3,3V40a3.009,3.009,0,0,0,3,3h5a5.979,5.979,0,0,0,1.54,4H2v2H62V47H55.46A5.979,5.979,0,0,0,57,43Zm0-9H58V32h2ZM49,17h1.72a3.007,3.007,0,0,1,2.94,2.42L54.78,25H50a1,1,0,0,1-1-1ZM4,18a1,1,0,0,1,1-1H40V31H4ZM16,47a4,4,0,1,1,4-4A4,4,0,0,1,16,47Zm0-10a6,6,0,0,0-5.65,4H5a1,1,0,0,1-1-1V33H40v8H21.65A6,6,0,0,0,16,37Zm4.46,10A5.979,5.979,0,0,0,22,43H45a5.979,5.979,0,0,0,1.54,4ZM51,47a4,4,0,1,1,4-4A4,4,0,0,1,51,47Zm0-10a6,6,0,0,0-5.65,4H42V17h5v7a3.009,3.009,0,0,0,3,3h5.72l3.8,2.28a.964.964,0,0,1,.46.72H57a1,1,0,0,0-1,1v4a1,1,0,0,0,1,1h3v5H56.65A6,6,0,0,0,51,37Z"></path><rect x="48" y="29" width="4" height="2"></rect><path d="M35,19H9a2.006,2.006,0,0,0-2,2v6a2.006,2.006,0,0,0,2,2H35a2.006,2.006,0,0,0,2-2V21A2.006,2.006,0,0,0,35,19ZM14,27H9V21h5Zm7,0H16V21h5Zm7,0H23V21h5Zm7,0H30V21h5Z"></path><circle cx="16" cy="43" r="2"></circle><circle cx="51" cy="43" r="2"></circle></g></svg>