<svg xmlns="http://www.w3.org/2000/svg" viewBox="0 0 64 64" x="0px" y="0px"><g><path d="M19,14v7a.987.987,0,0,1-.62.92A.838.838,0,0,1,18,22a1.007,1.007,0,0,1-.71-.29L15,19.41l-2.29,2.3a1,1,0,0,1-1.09.21A.987.987,0,0,1,11,21V14H7V48H33V37a4,4,0,0,1,8,0v8.54A3.989,3.989,0,0,1,43,45V14Zm8,2h7v2H27Zm-4,0h2v2H23Zm0,4H34v2H23ZM11,38h8v2H11Zm18,6H11V42H29Zm0-4H21V38h8Zm2-4H11V34H31Zm4-4H11V30H35Zm4-4H11V26H39Z"></path><path d="M25.41,54H23a1,1,0,0,0,0,2h2.92A3.9,3.9,0,0,1,25.41,54ZM7,50v6a4,4,0,0,0,4,4H28.22l-1.15-2H23a3,3,0,0,1,0-6h2.96a4,4,0,0,1,6.91.04l.13.23V50Z"></path><path d="M39,4H11A4,4,0,0,0,7,8v4H43V8A4,4,0,0,0,39,4ZM20,8H18V6h2Zm8,0H22V6h6Z"></path><path d="M14.29,17.29a1.014,1.014,0,0,1,1.42,0L17,18.59V14H13v4.59Z"></path><path d="M57,51v9H30.54l-2.87-4.96a2.018,2.018,0,0,1,.73-2.74,2.06,2.06,0,0,1,1.52-.2,1.942,1.942,0,0,1,1.21.94l2,3.46A1,1,0,0,0,35,56V37a2,2,0,0,1,4,0V53a1,1,0,0,0,2,0V49a2,2,0,0,1,4,0v4a1,1,0,0,0,2,0V50a2,2,0,0,1,4,0v3a1,1,0,0,0,2,0V51a2,2,0,0,1,4,0Z"></path></g></svg>