<svg xmlns="http://www.w3.org/2000/svg" viewBox="0 0 64 64" x="0px" y="0px"><g><polygon points="41 54 41 56 51 56 51.001 56 51 54 41 54"></polygon><polygon points="41 46 41 48 51 48 51.001 48 51 46 41 46"></polygon><polygon points="41 50 41 52 51 52 51.001 52 51 50 41 50"></polygon><polygon points="51 60 51 58 41 58 40.999 58 41 60 51 60"></polygon><polygon points="41 38 41 40 51 40 51.001 40 51 38 41 38"></polygon><polygon points="41 42 41 44 51 44 51.001 44 51 42 41 42"></polygon><polygon points="27 50 27 52 37 52 37.001 52 37 50 27 50"></polygon><polygon points="27 54 27 56 37 56 37.001 56 37 54 27 54"></polygon><polygon points="27 46 27 48 37 48 37.001 48 37 46 27 46"></polygon><polygon points="37 60 37 58 27 58 26.999 58 27 60 37 60"></polygon><polygon points="13 50 13 52 23 52 23.001 52 23 50 13 50"></polygon><polygon points="13 54 13 56 23 56 23.001 56 23 54 13 54"></polygon><polygon points="23 60 23 58 13 58 12.999 58 13 60 23 60"></polygon><path d="M26.656,36.336a4.726,4.726,0,0,0,4.31.094,4.646,4.646,0,0,0-6.688-3.69A4.72,4.72,0,0,0,26.656,36.336Z"></path><path d="M34.778,29.387A4.671,4.671,0,0,0,33,32.444V33.3a4.642,4.642,0,0,0,6.031-4.626A4.728,4.728,0,0,0,34.778,29.387Z"></path><path d="M32,25a7,7,0,1,0-7-7A7.008,7.008,0,0,0,32,25Zm-4-5h2v1h4V19H30a2,2,0,0,1-2-2V15a2,2,0,0,1,2-2h1V12h2v1h1a2,2,0,0,1,2,2v1H34V15H30v2h4a2,2,0,0,1,2,2v2a2,2,0,0,1-2,2H33v1H31V23H30a2,2,0,0,1-2-2Z"></path><rect x="10" y="21" width="2" height="2"></rect><rect x="12" y="23" width="2" height="2"></rect><rect x="10" y="25" width="2" height="2"></rect><rect x="8" y="23" width="2" height="2"></rect><rect x="51" y="9" width="2" height="2"></rect><rect x="53" y="11" width="2" height="2"></rect><rect x="51" y="13" width="2" height="2"></rect><rect x="49" y="11" width="2" height="2"></rect><rect x="47" y="24" width="2" height="2"></rect><rect x="49" y="26" width="2" height="2"></rect><rect x="47" y="28" width="2" height="2"></rect><rect x="45" y="26" width="2" height="2"></rect><rect x="31" y="27" width="2" height="17"></rect></g></svg>