<svg xmlns="http://www.w3.org/2000/svg" viewBox="0 0 64 64" x="0px" y="0px"><g data-name="Shopping Bag"><path d="M22,46a1,1,0,0,0,1,1H41a1,1,0,0,0,1-1V43H22Z"></path><rect x="24" y="39" width="16" height="2"></rect><path d="M52,27.147,49.256,18H14.744L12,27.147V57a3,3,0,0,0,3,3H49a3,3,0,0,0,3-3ZM44,38a1,1,0,0,1-1,1H42v2h1a1,1,0,0,1,1,1v4a3,3,0,0,1-3,3H23a3,3,0,0,1-3-3V42a1,1,0,0,1,1-1h1V39H21a1,1,0,0,1-1-1V34a5.006,5.006,0,0,1,5-5H39a5.006,5.006,0,0,1,5,5Z"></path><path d="M39,31v2H37V31H33v2H31V31H27v2H25V31a3,3,0,0,0-3,3v3H42V34A3,3,0,0,0,39,31Z"></path><path d="M25,10H39a1,1,0,0,0,0-2H25a1,1,0,0,0,0,2Z"></path><path d="M18,16H46V5a1,1,0,0,0-1-1H19a1,1,0,0,0-1,1ZM25,6H39a3,3,0,0,1,0,6H25a3,3,0,0,1,0-6Z"></path></g></svg>