<svg xmlns="http://www.w3.org/2000/svg" viewBox="0 0 64 64" x="0px" y="0px"><g data-name="Christmas Card-Greetings-Xmas-Christmas-Card"><path d="M59,26H56V3a1,1,0,0,0-1-1H9A1,1,0,0,0,8,3V26H5a3.009,3.009,0,0,0-3,3V59a3.009,3.009,0,0,0,3,3H59a3.009,3.009,0,0,0,3-3V29A3.009,3.009,0,0,0,59,26ZM50.86,4a3.983,3.983,0,0,1-7.72,0ZM48,10a1,1,0,1,1-1-1A1,1,0,0,1,48,10ZM40.86,4a3.983,3.983,0,0,1-7.72,0Zm-10,0a3.983,3.983,0,0,1-7.72,0Zm-10,0a3.983,3.983,0,0,1-7.72,0ZM18,10a1,1,0,1,1-1-1A1,1,0,0,1,18,10ZM10,4h1.09a6.032,6.032,0,0,0,3.37,4.43A2.917,2.917,0,0,0,14,10a3,3,0,0,0,6,0,2.917,2.917,0,0,0-.46-1.57A6.09,6.09,0,0,0,22,6.31a5.992,5.992,0,0,0,10,0,5.992,5.992,0,0,0,10,0,6.09,6.09,0,0,0,2.46,2.12A2.917,2.917,0,0,0,44,10a3,3,0,0,0,6,0,2.917,2.917,0,0,0-.46-1.57A6.032,6.032,0,0,0,52.91,4H54V33.81L32,42.92,10,33.81ZM4,29a1,1,0,0,1,1-1H8v4.99L4,31.33ZM60,59a1,1,0,0,1-1,1H5a1,1,0,0,1-1-1V33.5L31.62,44.92a.943.943,0,0,0,.76,0L60,33.5Zm0-27.67-4,1.66V28h3a1,1,0,0,1,1,1Z"></path><path d="M8,53H6v4a1,1,0,0,0,1,1h4V56H8Z"></path><rect x="6" y="49" width="2" height="2"></rect><path d="M24,33h7v4H28v2h8V37H33V33h7a1,1,0,0,0,.824-1.566L37.776,27H39a1,1,0,0,0,.824-1.566L36.776,21H38a1,1,0,0,0,.759-1.651l-6-7a1.033,1.033,0,0,0-1.518,0l-6,7A1,1,0,0,0,26,21h1.224l-3.048,4.434A1,1,0,0,0,25,27h1.224l-3.048,4.434A1,1,0,0,0,24,33Zm4.949-6.434A1,1,0,0,0,28.125,25H26.9l3.048-4.434A1,1,0,0,0,29.125,19h-.951L32,14.537,35.826,19h-.951a1,1,0,0,0-.824,1.566L37.1,25H35.875a1,1,0,0,0-.824,1.566L38.1,31H25.9Z"></path><rect x="30" y="27" width="2" height="2"></rect><rect x="32" y="23" width="2" height="2"></rect><rect x="31" y="17" width="2" height="2"></rect><polygon points="46 21 48 21 48 19 50 19 50 17 48 17 48 15 46 15 46 17 44 17 44 19 46 19 46 21"></polygon><polygon points="16 28 18 28 18 26 20 26 20 24 18 24 18 22 16 22 16 24 14 24 14 26 16 26 16 28"></polygon><rect x="48" y="26" width="2" height="2"></rect><rect x="43" y="23" width="2" height="2"></rect><rect x="37" y="11" width="2" height="2"></rect><rect x="25" y="11" width="2" height="2"></rect><rect x="20" y="16" width="2" height="2"></rect><rect x="14" y="15" width="2" height="2"></rect></g></svg>