<svg xmlns="http://www.w3.org/2000/svg" viewBox="0 0 64 64" x="0px" y="0px"><g data-name="Smart Circuit Board-Internet of Things-App-Internet-Smartphone"><path d="M10,16H24a1,1,0,0,0,1-1V9a1,1,0,0,0-1-1H10A1,1,0,0,0,9,9v6A1,1,0,0,0,10,16Zm10-6a2,2,0,1,1-2,2A2,2,0,0,1,20,10Zm-6,0a2,2,0,1,1-2,2A2,2,0,0,1,14,10Z"></path><path d="M10,44H24a1,1,0,0,0,1-1V37a1,1,0,0,0-1-1H10a1,1,0,0,0-1,1v6A1,1,0,0,0,10,44Zm10-6a2,2,0,1,1-2,2A2,2,0,0,1,20,38Zm-6,0a2,2,0,1,1-2,2A2,2,0,0,1,14,38Z"></path><path d="M10,30H24a1,1,0,0,0,1-1V23a1,1,0,0,0-1-1H10a1,1,0,0,0-1,1v6A1,1,0,0,0,10,30Zm10-6a2,2,0,1,1-2,2A2,2,0,0,1,20,24Zm-6,0a2,2,0,1,1-2,2A2,2,0,0,1,14,24Z"></path><rect x="14" y="50" width="6" height="3"></rect><path d="M6,48H28a1,1,0,0,0,1-1V5a1,1,0,0,0-1-1H6A1,1,0,0,0,5,5V47A1,1,0,0,0,6,48ZM7,9a3,3,0,0,1,3-3H24a3,3,0,0,1,3,3v6a3,3,0,0,1-3,3H10a3,3,0,0,1-3-3ZM7,23a3,3,0,0,1,3-3H24a3,3,0,0,1,3,3v6a3,3,0,0,1-3,3H10a3,3,0,0,1-3-3ZM7,37a3,3,0,0,1,3-3H24a3,3,0,0,1,3,3v6a3,3,0,0,1-3,3H10a3,3,0,0,1-3-3Z"></path><path d="M60,54H40v3a3.009,3.009,0,0,0,3,3H57a3.009,3.009,0,0,0,3-3Zm-9,4H49V56h2Z"></path><path d="M60,34H40V52H60ZM50,48l-1.414-1.414a2,2,0,0,1,2.828,0Zm2.121-3.122a3.074,3.074,0,0,0-4.242,0l-1.414-1.414a5,5,0,0,1,7.07,0ZM54.95,42.05a7.011,7.011,0,0,0-9.9,0l-1.414-1.414a9.01,9.01,0,0,1,12.728,0Z"></path><path d="M60,31a3.009,3.009,0,0,0-3-3H43a3.009,3.009,0,0,0-3,3v1H60Z"></path><path d="M30,62H21a5.006,5.006,0,0,1-5-5V55h2v2a3,3,0,0,0,3,3h9a3,3,0,0,0,3-3V7a5.006,5.006,0,0,1,5-5h8a5.006,5.006,0,0,1,5,5V26H49V7a3,3,0,0,0-3-3H38a3,3,0,0,0-3,3V57A5.006,5.006,0,0,1,30,62Z"></path></g></svg>