<svg xmlns="http://www.w3.org/2000/svg" viewBox="0 0 64 64" x="0px" y="0px"><g><path d="M60,9a5.006,5.006,0,0,0-5-5H46.387L35.673,13.74A1,1,0,0,1,35,14H17.414L4,27.414V55a5.006,5.006,0,0,0,5,5H55a5.006,5.006,0,0,0,5-5ZM51.707,55.293l-1.414,1.414L44.586,51H21.414l-5.707,5.707-1.414-1.414L20,49.586V26.414l-5.707-5.707,1.414-1.414L21.414,25H44.586l5.707-5.707,1.414,1.414L46,26.414V49.586Z"></path><path d="M22,49H44V27H22ZM32.22,30.375a1.033,1.033,0,0,1,1.56,0c.534.666,5.22,6.6,5.22,9.625a6,6,0,0,1-12,0C27,36.975,31.686,31.041,32.22,30.375Z"></path><path d="M33,44a4,4,0,0,0,4-4c0-1.521-2.208-4.972-4-7.365-1.792,2.393-4,5.844-4,7.365A4,4,0,0,0,33,44Z"></path><path d="M22,12h2V8a2,2,0,0,1,2-2H41.213l2.2-2H25a3,3,0,0,0-3,3Z"></path><polygon points="26 12 34.613 12 39.013 8 26 8 26 12"></polygon><rect x="2.689" y="16.13" width="12.001" height="3.12" transform="translate(-9.963 11.325) rotate(-44.998)"></rect></g></svg>