<svg xmlns="http://www.w3.org/2000/svg" viewBox="0 0 64 64" x="0px" y="0px"><g><path d="M59,26H53V17a1,1,0,0,0-1-1H49V6a2,2,0,0,0-2-2H17a2,2,0,0,0-2,2V16H12a1,1,0,0,0-1,1v9H5a3,3,0,0,0-3,3V51a3,3,0,0,0,3,3H6v1a2,2,0,0,0,2,2h3a2,2,0,0,0,2-2V54H51v1a2,2,0,0,0,2,2h3a2,2,0,0,0,2-2V54h1a3,3,0,0,0,3-3V29A3,3,0,0,0,59,26Zm-8,0H47V18h4ZM17,6H47V16H46a1,1,0,0,0-1,1v9H19V17a1,1,0,0,0-1-1H17ZM13,18h4v8H13ZM11,55H8V54h3Zm45,0H53V54h3Zm4-4a1,1,0,0,1-1,1H5a1,1,0,0,1-1-1V29a1,1,0,0,1,1-1H59a1,1,0,0,1,1,1Z"></path><path d="M24,38H40a1,1,0,0,0,1-1V31a1,1,0,0,0-1-1H24a1,1,0,0,0-1,1v6A1,1,0,0,0,24,38Zm1-6H39v4H25Z"></path><rect x="43" y="31" width="2" height="2"></rect><rect x="47" y="31" width="2" height="2"></rect><rect x="51" y="31" width="2" height="2"></rect><rect x="55" y="31" width="2" height="2"></rect><rect x="31" y="33" width="2" height="2"></rect><rect x="35" y="33" width="2" height="2"></rect><rect x="27" y="33" width="2" height="2"></rect><path d="M49,42H15a2,2,0,0,0-2,2v4a2,2,0,0,0,2,2H49a2,2,0,0,0,2-2V44A2,2,0,0,0,49,42ZM15,48V44H49l0,4Z"></path><path d="M18,37a3,3,0,1,0-3-3A3,3,0,0,0,18,37Zm0-4a1,1,0,1,1-1,1A1,1,0,0,1,18,33Z"></path><path d="M10,31a3,3,0,1,0,3,3A3,3,0,0,0,10,31Zm0,4a1,1,0,1,1,1-1A1,1,0,0,1,10,35Z"></path></g></svg>