<svg xmlns="http://www.w3.org/2000/svg" viewBox="0 0 64 64" x="0px" y="0px"><g data-name="Calendar-Passive-Date and Time-Schedule-Money"><rect x="26" y="54" width="9" height="2"></rect><rect x="26" y="50" width="9" height="2"></rect><rect x="26" y="58" width="9" height="2"></rect><rect x="8" y="44" width="5.001" height="5"></rect><rect x="8" y="22" width="5.001" height="5"></rect><rect x="26" y="42" width="9" height="2"></rect><path d="M37,60H49V42H37Zm7-8H42a3,3,0,0,1,0-6V45h2v1a3,3,0,0,1,3,3H45a1,1,0,0,0-1-1H42a1,1,0,0,0,0,2h2a3,3,0,0,1,0,6v1H42V56a3,3,0,0,1-3-3h2a1,1,0,0,0,1,1h2a1,1,0,0,0,0-2Z"></path><rect x="26" y="46" width="9" height="2"></rect><rect x="51" y="50" width="9" height="2"></rect><rect x="51" y="46" width="9" height="2"></rect><rect x="51" y="54" width="9" height="2"></rect><rect x="51" y="42" width="9" height="2"></rect><rect x="51" y="58" width="9" height="2"></rect><rect x="8" y="33" width="5.001" height="5"></rect><path d="M4,18V52a1,1,0,0,0,1,1H24V51H19a2.006,2.006,0,0,1-2-2V44a2.006,2.006,0,0,1,2-2h5a2.006,2.006,0,0,1,2-2h4a2.006,2.006,0,0,1-2-2V33a2.006,2.006,0,0,1,2-2h5a2.006,2.006,0,0,1,2,2v5a2.006,2.006,0,0,1-2,2h6a2.006,2.006,0,0,1-2-2V33a2.006,2.006,0,0,1,2-2h5a2.006,2.006,0,0,1,2,2v5a2.006,2.006,0,0,1-2,2h4V18ZM15,49a2.006,2.006,0,0,1-2,2H8a2.006,2.006,0,0,1-2-2V44a2.006,2.006,0,0,1,2-2h5a2.006,2.006,0,0,1,2,2Zm0-11a2.006,2.006,0,0,1-2,2H8a2.006,2.006,0,0,1-2-2V33a2.006,2.006,0,0,1,2-2h5a2.006,2.006,0,0,1,2,2Zm0-11a2.006,2.006,0,0,1-2,2H8a2.006,2.006,0,0,1-2-2V22a2.006,2.006,0,0,1,2-2h5a2.006,2.006,0,0,1,2,2ZM26,38a2.006,2.006,0,0,1-2,2H19a2.006,2.006,0,0,1-2-2V33a2.006,2.006,0,0,1,2-2h5a2.006,2.006,0,0,1,2,2Zm0-11a2.006,2.006,0,0,1-2,2H19a2.006,2.006,0,0,1-2-2V22a2.006,2.006,0,0,1,2-2h5a2.006,2.006,0,0,1,2,2Zm11,0a2.006,2.006,0,0,1-2,2H30a2.006,2.006,0,0,1-2-2V22a2.006,2.006,0,0,1,2-2h5a2.006,2.006,0,0,1,2,2Zm11,0a2.006,2.006,0,0,1-2,2H41a2.006,2.006,0,0,1-2-2V22a2.006,2.006,0,0,1,2-2h5a2.006,2.006,0,0,1,2,2Zm-2,6H41v5h5ZM30,33v5h5V33ZM19,44v5h5V44Z"></path><rect x="41" y="22" width="5" height="5"></rect><rect x="19" y="22" width="5.001" height="5"></rect><rect x="30" y="22" width="5" height="5"></rect><path d="M50,10a1,1,0,0,0-1-1H41v2a3,3,0,0,1-6,0V9H19v2a3,3,0,0,1-6,0V9H5a1,1,0,0,0-1,1v6H50Z"></path><rect x="19" y="33" width="5.001" height="5"></rect><path d="M15,11a1,1,0,0,0,2,0V5a1,1,0,0,0-2,0Z"></path><path d="M37,11a1,1,0,0,0,2,0V5a1,1,0,0,0-2,0Z"></path></g></svg>