<svg xmlns="http://www.w3.org/2000/svg" viewBox="0 0 64 64" x="0px" y="0px"><g><path d="M49,14H42V11a1,1,0,0,0-1-1H35.38l-.241-1.325.81-.27A3,3,0,0,0,38,5.559V5.4a3.019,3.019,0,0,0-2.217-2.9,14.467,14.467,0,0,0-7.565,0A3.019,3.019,0,0,0,26,5.4v.156A3,3,0,0,0,28.051,8.4l.81.27L28.62,10H23a1,1,0,0,0-1,1v3H15a3,3,0,0,0-3,3V59a3,3,0,0,0,3,3H49a3,3,0,0,0,3-3V17A3,3,0,0,0,49,14Zm-9-2v6H36.834l-1.091-6Zm-5.2,6H29.2l1.091-6h3.422ZM30.316,7.051l-1.632-.544A1,1,0,0,1,28,5.559V5.4a1,1,0,0,1,.75-.969,12.39,12.39,0,0,1,6.5,0A1,1,0,0,1,36,5.4v.156a1,1,0,0,1-.684.948l-1.632.544a1,1,0,0,0-.667,1.128L33.348,10h-2.7l.331-1.821A1,1,0,0,0,30.316,7.051ZM24,12h4.257l-1.091,6H24Zm-1,8H41a1,1,0,0,0,1-1V16h4V54l-1.2-1.6a1,1,0,0,0-1.6,0l-2.2,2.933-2.2-2.933a1,1,0,0,0-1.6,0l-2.2,2.933-2.2-2.933a1,1,0,0,0-1.6,0l-2.2,2.933-2.2-2.933a1.036,1.036,0,0,0-1.6,0l-2.2,2.934L20.805,52.4a1.037,1.037,0,0,0-1.6,0L18,54V16h4v3A1,1,0,0,0,23,20ZM50,59a1,1,0,0,1-1,1H15a1,1,0,0,1-1-1V17a1,1,0,0,1,1-1h1V57a1,1,0,0,0,.684.949A1.014,1.014,0,0,0,17,58a1,1,0,0,0,.8-.4l2.2-2.936L22.211,57.6a1,1,0,0,0,1.6,0l2.2-2.933,2.2,2.933a1.036,1.036,0,0,0,1.6,0l2.2-2.933,2.2,2.933a1,1,0,0,0,1.6,0l2.2-2.933,2.2,2.933a1.036,1.036,0,0,0,1.6,0L44,54.667,46.2,57.6A1,1,0,0,0,48,57V16h1a1,1,0,0,1,1,1Z"></path><path d="M33,32H31a1,1,0,0,1-1-1H28a3,3,0,0,0,3,3v2h2V34a3,3,0,0,0,0-6H31a1,1,0,0,1,0-2h2a1,1,0,0,1,1,1h2a3,3,0,0,0-3-3V22H31v2a3,3,0,0,0,0,6h2a1,1,0,0,1,0,2Z"></path><rect x="22" y="39" width="14" height="2"></rect><rect x="38" y="39" width="4" height="2"></rect><rect x="22" y="43" width="14" height="2"></rect><rect x="38" y="43" width="4" height="2"></rect><rect x="22" y="47" width="14" height="2"></rect><rect x="38" y="47" width="4" height="2"></rect></g></svg>