<svg xmlns="http://www.w3.org/2000/svg" viewBox="0 0 64 64" x="0px" y="0px"><g data-name="Dashboard-Smartphone-Speed-Meter-Internet Speed"><polygon points="38.414 44 41.586 44 40 42.414 38.414 44"></polygon><polygon points="43 42.586 43 39.414 41.414 41 43 42.586"></polygon><polygon points="41.586 38 38.414 38 40 39.586 41.586 38"></polygon><path d="M34,54H30a1,1,0,0,0,0,2h4a1,1,0,0,0,0-2Z"></path><polygon points="37 39.414 37 42.586 38.586 41 37 39.414"></polygon><path d="M50,8a4,4,0,0,0-4-4H18a4,4,0,0,0-4,4V56a4,4,0,0,0,4,4H46a4,4,0,0,0,4-4ZM29,6h6V8H29ZM25,6h2V8H25Zm5,36v2H18V42ZM18,40V38h2v2Zm4,0V38h8v2ZM34,58H30a3,3,0,0,1,0-6h4a3,3,0,0,1,0,6ZM46.707,46.293l-1.414,1.414L43.586,46H36.414l-1.707,1.707-1.414-1.414L35,44.586V37.414l-1.707-1.707,1.414-1.414L36.414,36h7.172l1.707-1.707,1.414,1.414L45,37.414v7.172ZM47,29H39a1,1,0,0,1-1-1,5.991,5.991,0,0,0-2.177-4.621L32.866,28.5l-1.732-1,2.954-5.118A5.984,5.984,0,0,0,26,28a1,1,0,0,1-1,1H17a1,1,0,0,1-1-1,16,16,0,0,1,32,0A1,1,0,0,1,47,29Z"></path><path d="M41.192,20.222l-1.414-1.414,1.375-1.375A13.929,13.929,0,0,0,33,14.048V16H31V14.048a13.929,13.929,0,0,0-8.153,3.385l1.375,1.375-1.414,1.414-1.38-1.379A13.94,13.94,0,0,0,18.035,27h6.027A7.985,7.985,0,0,1,35.1,20.632l2.035-3.524,1.732,1-2.035,3.524A8,8,0,0,1,39.938,27h6.027a13.94,13.94,0,0,0-3.393-8.157Z"></path></g></svg>