<svg xmlns="http://www.w3.org/2000/svg" viewBox="0 0 64 64" x="0px" y="0px"><g data-name="Washing Machine"><path d="M22,17a3,3,0,1,0-3-3A3,3,0,0,0,22,17Zm0-4a1,1,0,1,1-1,1A1,1,0,0,1,22,13Z"></path><path d="M32,17a3,3,0,1,0-3-3A3,3,0,0,0,32,17Zm0-4a1,1,0,1,1-1,1A1,1,0,0,1,32,13Z"></path><path d="M42,17a3,3,0,1,0-3-3A3,3,0,0,0,42,17Zm0-4a1,1,0,1,1-1,1A1,1,0,0,1,42,13Z"></path><path d="M56,10h2a1,1,0,0,0,1-1V3a1,1,0,0,0-1-1H6A1,1,0,0,0,5,3V9a1,1,0,0,0,1,1H8V54H6a1,1,0,0,0-1,1v6a1,1,0,0,0,1,1H58a1,1,0,0,0,1-1V55a1,1,0,0,0-1-1H56ZM7,4H57V8H7Zm47,6v8H10V10Zm3,50H7V56H57ZM10,54V20H54V54Z"></path><path d="M48,31H45.729a14.979,14.979,0,0,0-28.672,4.874.781.781,0,0,0-.017.084c0,.018.009.033.01.05-.021.33-.05.657-.05.992a14.989,14.989,0,0,0,28.729,6H48a1,1,0,0,0,1-1V32A1,1,0,0,0,48,31ZM32,24a13.073,13.073,0,0,1,11.57,7.106A.993.993,0,0,0,43,32v4.99a7.7,7.7,0,0,1-2.9-.891A9.692,9.692,0,0,0,35.33,34.96,9.656,9.656,0,0,0,30.568,36.1a7.687,7.687,0,0,1-3.908.942,7.637,7.637,0,0,1-3.9-.942,9.667,9.667,0,0,0-3.6-1.079A13.01,13.01,0,0,1,32,24Zm0,26A13.015,13.015,0,0,1,19,37.009a7.7,7.7,0,0,1,2.9.891,9.641,9.641,0,0,0,4.764,1.14A9.692,9.692,0,0,0,31.434,37.9a7.653,7.653,0,0,1,3.9-.941,7.69,7.69,0,0,1,3.908.942A9.629,9.629,0,0,0,43,39v3a.993.993,0,0,0,.57.894A13.073,13.073,0,0,1,32,50Zm15-9H45V33h2Z"></path></g></svg>