<svg xmlns="http://www.w3.org/2000/svg" viewBox="0 0 64 64" x="0px" y="0px"><g><path d="M21,10H17.78L15.97,2.757A1,1,0,0,0,15,2H13a1,1,0,0,0-1,1v7H6.82L5.98,5.8A1,1,0,0,0,5,5H3A1,1,0,0,0,2,6V20a1,1,0,0,0,1,1H5a1,1,0,0,0,.98-.8L6.82,16H12v7a1,1,0,0,0,1,1h2a1,1,0,0,0,.97-.757L17.78,16H21a3,3,0,0,0,0-6ZM14,4h.219l1.5,6H14ZM4.181,7l.666,3.33L4,10.612V7ZM4,19V15.388l.847.282L4.181,19Zm10.219,3H14V16h1.719ZM21,14H6.163L4,13.279v-.558L6.163,12H21a1,1,0,0,1,0,2Z"></path><path d="M54,44a4,4,0,1,0,4,4A4,4,0,0,0,54,44Zm0,6a2,2,0,1,1,2-2A2,2,0,0,1,54,50Z"></path><path d="M54,40a8.009,8.009,0,0,0-8,8c0,5.314,6.951,13.32,7.247,13.659a1,1,0,0,0,1.506,0C55.049,61.32,62,53.314,62,48A8.009,8.009,0,0,0,54,40Zm0,19.445C51.82,56.759,48,51.354,48,48a6,6,0,0,1,12,0C60,51.354,56.18,56.759,54,59.445Z"></path><path d="M17.281,34.29l1.225,1.582a8.876,8.876,0,0,1,1.522-.951l-.882-1.8A10.962,10.962,0,0,0,17.281,34.29Z"></path><path d="M20.9,53.558a11.084,11.084,0,0,0,2.16.4l.167-1.993a8.964,8.964,0,0,1-1.764-.329Z"></path><path d="M21.2,32.358l.506,1.935a8.992,8.992,0,0,1,1.774-.278l-.111-2A11.011,11.011,0,0,0,21.2,32.358Z"></path><path d="M17.037,51.516a11.077,11.077,0,0,0,1.828,1.215l.936-1.768a9,9,0,0,1-1.5-.994Z"></path><path d="M17.2,37.107,15.687,35.8a11.081,11.081,0,0,0-1.267,1.794l1.742.984A9.033,9.033,0,0,1,17.2,37.107Z"></path><path d="M52.869,21.464l1.971-.338a10.913,10.913,0,0,0-.588-2.118l-1.863.727A8.962,8.962,0,0,1,52.869,21.464Z"></path><path d="M14.271,48.136a11.141,11.141,0,0,0,1.213,1.827L17.033,48.7a9.111,9.111,0,0,1-1-1.5Z"></path><path d="M55,23.314l-2-.057a9.133,9.133,0,0,1-.228,1.784l1.949.45A11.129,11.129,0,0,0,55,23.314Z"></path><path d="M54.008,27.572l-1.819-.833a9.078,9.078,0,0,1-.908,1.553L52.9,29.466A11.121,11.121,0,0,0,54.008,27.572Z"></path><path d="M48.646,30.71l1.037,1.71A11.111,11.111,0,0,0,51.437,31.1l-1.352-1.473A9.207,9.207,0,0,1,48.646,30.71Z"></path><path d="M13.071,41.748l1.987.225a8.939,8.939,0,0,1,.38-1.754l-1.9-.618A10.964,10.964,0,0,0,13.071,41.748Z"></path><path d="M15.032,43.771l-1.992.17a11.144,11.144,0,0,0,.4,2.158l1.92-.563A9.027,9.027,0,0,1,15.032,43.771Z"></path><path d="M50.21,13.92a11.025,11.025,0,0,0-1.927-1.055L47.5,14.707a8.951,8.951,0,0,1,1.575.862Z"></path><path d="M53.255,17.053a11.067,11.067,0,0,0-1.366-1.719l-1.434,1.395a8.943,8.943,0,0,1,1.118,1.406Z"></path><path d="M46.183,12.217A11.07,11.07,0,0,0,44,12v2a9.051,9.051,0,0,1,1.788.178Z"></path><rect x="40" y="12" width="2" height="2"></rect><rect x="36" y="12" width="2" height="2"></rect><rect x="37.144" y="52" width="2" height="2"></rect><rect x="37.428" y="32" width="2" height="2"></rect><path d="M47.024,31.479a8.948,8.948,0,0,1-1.744.431l.283,1.98a10.959,10.959,0,0,0,2.133-.527Z"></path><rect x="41.144" y="52" width="1.856" height="2"></rect><rect x="41.428" y="32" width="2" height="2"></rect><rect x="29.144" y="52" width="2" height="2"></rect><rect x="33.428" y="32" width="2" height="2"></rect><rect x="25.428" y="32" width="2" height="2"></rect><rect x="25.144" y="52" width="2" height="2"></rect><rect x="28" y="12" width="2" height="2"></rect><rect x="33.144" y="52" width="2" height="2"></rect><rect x="32" y="12" width="2" height="2"></rect><rect x="29.428" y="32" width="2" height="2"></rect></g></svg>