<svg xmlns="http://www.w3.org/2000/svg" viewBox="0 0 64 64" x="0px" y="0px"><g data-name="Web Design"><path d="M54.249,10.158l-.5,1.936A3,3,0,0,1,56,15v3H54v2h2V40H8V20H22V18H8V15a3,3,0,0,1,3-3H22V10H11a5.006,5.006,0,0,0-5,5V45a5.006,5.006,0,0,0,5,5H23.867l-.75,6H21a2,2,0,0,0-2,2v2a2,2,0,0,0,2,2H43a2,2,0,0,0,2-2V58a2,2,0,0,0-2-2H40.883l-.75-6H53a5.006,5.006,0,0,0,5-5V15A5,5,0,0,0,54.249,10.158ZM43,60H21V58H43Zm-4.133-4H25.133l.75-6H38.117ZM53,48H11a3,3,0,0,1-3-3V42H56v3A3,3,0,0,1,53,48Z"></path><rect x="50" y="44" width="2" height="2"></rect><rect x="12" y="14" width="2" height="2"></rect><rect x="16" y="14" width="2" height="2"></rect><rect x="20" y="14" width="2" height="2"></rect><path d="M26,38H50a2,2,0,0,0,2-2V4a2,2,0,0,0-2-2H26a2,2,0,0,0-2,2V36A2,2,0,0,0,26,38ZM26,4H50V36H26Z"></path><path d="M31,16h6V14H32V10h4V8H31a1,1,0,0,0-1,1v6A1,1,0,0,0,31,16Z"></path><path d="M31,28h6V26H32V22h4V20H31a1,1,0,0,0-1,1v6A1,1,0,0,0,31,28Z"></path><path d="M35.029,11.557l-1.264-1.264-1.414,1.414,1.971,1.971a1,1,0,0,0,1.414,0l3.971-3.971L38.293,8.293Z"></path><path d="M35.029,23.557l-1.264-1.264-1.414,1.414,1.971,1.971a1,1,0,0,0,1.414,0l3.971-3.971-1.414-1.414Z"></path><rect x="42" y="9" width="4" height="2"></rect><rect x="42" y="13" width="4" height="2"></rect><rect x="42" y="21" width="4" height="2"></rect><rect x="42" y="25" width="4" height="2"></rect><rect x="30" y="30" width="2" height="2"></rect><rect x="34" y="30" width="4" height="2"></rect><rect x="40" y="30" width="6" height="2"></rect><rect x="12" y="24" width="10" height="2"></rect><rect x="12" y="28" width="10" height="2"></rect><rect x="12" y="32" width="10" height="2"></rect><rect x="12" y="36" width="10" height="2"></rect></g></svg>