<svg xmlns="http://www.w3.org/2000/svg" viewBox="0 0 64 64" x="0px" y="0px"><g><path d="M57,2H7A3,3,0,0,0,4,5V35a3,3,0,0,0,3,3H19V48a1,1,0,0,0,.2.6L22,52.333V61a1,1,0,0,0,1,1H44a1,1,0,0,0,1-1V52.333L47.8,48.6A1,1,0,0,0,48,48V38h9a3,3,0,0,0,3-3V5A3,3,0,0,0,57,2ZM37,12.692a5.971,5.971,0,0,1,0,6.616ZM35,28H29V4h6Zm5,8H37V34h3Zm0-5v1H37V30h3.142A3.939,3.939,0,0,0,40,31Zm-5,5H29V30h6ZM27,19.308a5.971,5.971,0,0,1,0-6.616ZM6,5A1,1,0,0,1,7,4H27V9.777a7.954,7.954,0,0,0,0,12.446V28H7a1,1,0,0,1-1-1ZM6,29.816A2.966,2.966,0,0,0,7,30H27v2H7a1,1,0,0,1-1-1ZM7,36a1,1,0,0,1-1-1V33.816A2.966,2.966,0,0,0,7,34H27v2H7ZM46,47.667,43.2,51.4a1,1,0,0,0-.2.6v8H24V52a1,1,0,0,0-.2-.6L21,47.667V38h3v3h2V38h3v3h2V38h3v3h2V38h4v.764l-1.9,3.789A1,1,0,0,0,38,43v3h2V43.236l1.9-3.789A1,1,0,0,0,42,39V31a2,2,0,0,1,4,0ZM57,36H48V34h9a2.966,2.966,0,0,0,1-.184V35A1,1,0,0,1,57,36Zm0-4H48V31a3.939,3.939,0,0,0-.142-1H57a2.966,2.966,0,0,0,1-.184V31A1,1,0,0,1,57,32Zm0-4H46.618a3.927,3.927,0,0,0-5.236,0H37V22.223A7.954,7.954,0,0,0,37,9.777V4H57a1,1,0,0,1,1,1V27A1,1,0,0,1,57,28Z"></path><path d="M53,23H50v2h4a1,1,0,0,0,1-1V20H53Z"></path><path d="M10,25h4V23H11V20H9v4A1,1,0,0,0,10,25Z"></path><path d="M54,7H50V9h3v3h2V8A1,1,0,0,0,54,7Z"></path><path d="M11,9h3V7H10A1,1,0,0,0,9,8v4h2Z"></path><rect x="20" y="15" width="2" height="2"></rect><rect x="42" y="15" width="2" height="2"></rect></g></svg>