<svg xmlns="http://www.w3.org/2000/svg" viewBox="0 0 64 64" x="0px" y="0px"><g data-name="Contract-Sign-Working At Home-Document-Home"><polygon points="40.25 46.83 40.12 49.06 41.98 47.83 48.37 36.78 46.63 35.78 40.25 46.83"></polygon><path d="M39,52a.994.994,0,0,1-1-1.06l.27-4.46a.942.942,0,0,1,.13-.44L42,39.8V29a1,1,0,0,0-1-1H23a1,1,0,0,0-1,1V55a1,1,0,0,0,1,1H41a1,1,0,0,0,1-1V50.22l-2.45,1.61A1.016,1.016,0,0,1,39,52ZM24,32h7v2H24Zm0,4H38v2H24Zm0,4H38v2H24ZM36,52H31V50h5Zm0-6H24V44H36Z"></path><path d="M49.5,32.81a1.01,1.01,0,0,0-1.37.37l-.5.87,1.74,1,.5-.87A1.01,1.01,0,0,0,49.5,32.81Z"></path><path d="M54,59V26.85L32,8.31,10,26.96V59a1,1,0,0,0,1,1H53A1,1,0,0,0,54,59ZM51.6,35.18,44,48.34V55a3.009,3.009,0,0,1-3,3H23a3.009,3.009,0,0,1-3-3V29a3.009,3.009,0,0,1,3-3H41a3.009,3.009,0,0,1,3,3v7.34l2.4-4.16a3,3,0,0,1,5.2,3Z"></path><path d="M59.7,26.43,32.64,3.84A1,1,0,0,0,32,3.61a1.025,1.025,0,0,0-.64.23L4.38,26.48a1.083,1.083,0,0,0-.31,1.33,1,1,0,0,0,.7.49.986.986,0,0,0,.81-.22L31.35,6.24a.987.987,0,0,1,1.29,0L58.42,27.96a1,1,0,0,0,1.28-1.53Z"></path></g></svg>