<svg xmlns="http://www.w3.org/2000/svg" viewBox="0 0 64 64" x="0px" y="0px"><title>Package-Box-Product-Delivery-Hand</title><g><path d="M61.18,39.1A3.969,3.969,0,0,0,59,36.81V9a3.009,3.009,0,0,0-3-3H24a3.009,3.009,0,0,0-3,3V37.03a20.264,20.264,0,0,0-3.24,1.85l-3.14,2.2-1.15-1.64a1.007,1.007,0,0,0-1.39-.25L2.25,46.07A1.017,1.017,0,0,0,2,47.47L12.33,62.21a1,1,0,0,0,1.39.25l9.83-6.88a1.019,1.019,0,0,0,.25-1.4l-.57-.81a8.9,8.9,0,0,1,6.6-1.41l1.78.3a13,13,0,0,0,6.71-.58l20.47-7.45a4,4,0,0,0,2.39-5.13ZM45,8H56a1,1,0,0,1,1,1v3H45ZM37,8h6v8.59l-2.29-2.3a1.008,1.008,0,0,0-1.42,0L37,16.59ZM23,9a1,1,0,0,1,1-1H35v4H23Zm0,5H35v5a.987.987,0,0,0,.62.92,1,1,0,0,0,1.09-.21L40,16.41l3.29,3.3A1.007,1.007,0,0,0,44,20a.838.838,0,0,0,.38-.08A.987.987,0,0,0,45,19V14H57V36.51a3.847,3.847,0,0,0-.94.2L52.52,38H45.49a3.873,3.873,0,0,0-1.85-.87L33.59,35.36a20.993,20.993,0,0,0-9.74.58l-.18.06c-.23.06-.45.15-.67.23ZM13.39,60.25,4.22,47.14l8.19-5.74,9.17,13.11ZM59.4,40.82a2,2,0,0,1-1.29,1.53L37.64,49.8a10.988,10.988,0,0,1-5.68.49l-1.79-.3a10.883,10.883,0,0,0-8.09,1.74l-6.31-9.02,3.14-2.19a18.6,18.6,0,0,1,5.31-2.6l.18-.05a19.244,19.244,0,0,1,8.85-.55l10.04,1.77a2.048,2.048,0,0,1,1.3.83,2.012,2.012,0,0,1,.33.86,1.768,1.768,0,0,1-.05.84,2.009,2.009,0,0,1-2.29,1.42L31.77,41.13l-.34,1.96L42.23,45a3.419,3.419,0,0,0,.71.07,4.017,4.017,0,0,0,3.84-2.85l9.96-3.63a2,2,0,0,1,2.56,1.2A1.9,1.9,0,0,1,59.4,40.82Z"></path></g></svg>