<svg xmlns="http://www.w3.org/2000/svg" viewBox="0 0 64 64" x="0px" y="0px"><g><path d="M29.59,20H27.72l-.58,1.73,1.57,1.56A1.033,1.033,0,0,1,29,24v1H27v-.59L25.59,23H23.41L22,24.41v3.18l1.71,1.7A1.033,1.033,0,0,1,24,30v1H22v-.59l-.84-.84L20,31.3v4.29l1,1V35h2v5.22l3.24.81a1.01,1.01,0,0,1,.71.65L27.72,44h1.87L31,42.59V21.41ZM27,36.41V38H25V36a1.033,1.033,0,0,1,.29-.71l1-1,1.42,1.42ZM29,30a1.033,1.033,0,0,1-.29.71l-2,2-1.42-1.42L27,29.59V27h2Z"></path><path d="M42.84,29.57l-.84.84V31H40V30a1.033,1.033,0,0,1,.29-.71L42,27.59V24.41L40.59,23H38.41L37,24.41V25H35V24a1.033,1.033,0,0,1,.29-.71l1.57-1.56L36.28,20H34.41L33,21.41V42.59L34.41,44h1.87l.77-2.32a1.01,1.01,0,0,1,.71-.65L41,40.22V35h2v1.59l1-1V31.3Zm-7.55,1.14A1.033,1.033,0,0,1,35,30V27h2v2.59l1.71,1.7-1.42,1.42ZM39,38H37V36.41l-.71-.7,1.42-1.42,1,1A1.033,1.033,0,0,1,39,36Z"></path><path d="M18,4a1,1,0,0,0-1,1V19.03A4.924,4.924,0,0,1,20,18h8V4Zm8,12H19V14h7Zm0-4H19V10h7Zm0-4H19V6h7ZM20,20a3.014,3.014,0,0,0-2.83,2h4.41l.71-.71A1.033,1.033,0,0,1,23,21h2.28l.33-1Z"></path><path d="M44,58H36v2H46.83A3.014,3.014,0,0,0,44,58Z"></path><path d="M50,42a1,1,0,0,0-1,1V57.03A4.924,4.924,0,0,1,52,56h8V42Zm8,12H51V52h7Zm0-4H51V48h7Zm0-4H51V44h7Z"></path><path d="M4,22H14.83A3.014,3.014,0,0,0,12,20H4Z"></path><path d="M49.17,60H60V58H52A3.014,3.014,0,0,0,49.17,60Z"></path><path d="M14,4H4V18h8a4.924,4.924,0,0,1,3,1.03V5A1,1,0,0,0,14,4ZM13,16H6V14h7Zm0-4H6V10h7Zm0-4H6V6h7Z"></path><path d="M46,42H42.12l-3.34.84-.83,2.48A1.014,1.014,0,0,1,37,46H36V56h8a4.924,4.924,0,0,1,3,1.03V43A1,1,0,0,0,46,42ZM45,54H38V52h7Zm0-4H38V48h7Zm0-4H40V44h5Z"></path><rect x="30" y="54" width="2" height="2"></rect><rect x="24.081" y="52.958" width="2.001" height="2" transform="translate(-33.529 64.219) rotate(-75)"></rect><rect x="18.634" y="50.418" width="1.999" height="2" transform="translate(-34.714 42.718) rotate(-60.005)"></rect><rect x="14.029" y="46.557" width="2" height="2" transform="translate(-29.226 24.556) rotate(-45)"></rect><rect x="10.582" y="41.634" width="1.999" height="2" transform="translate(-19.762 11.5) rotate(-29.995)"></rect><rect x="8.525" y="35.987" width="2.001" height="2" transform="matrix(0.966, -0.259, 0.259, 0.966, -9.244, 3.723)"></rect><rect x="8" y="30" width="2" height="2"></rect><rect x="32" y="8" width="2" height="2"></rect><rect x="37.919" y="9.043" width="2.001" height="2" transform="translate(19.146 45.036) rotate(-75)"></rect><rect x="43.366" y="11.581" width="1.999" height="2" transform="translate(11.29 44.716) rotate(-60.005)"></rect><rect x="47.971" y="15.443" width="2" height="2" transform="translate(2.716 39.444) rotate(-45)"></rect><rect x="51.419" y="20.366" width="1.999" height="2" transform="translate(-3.661 29.067) rotate(-29.995)"></rect><rect x="53.475" y="26.013" width="2.001" height="2" transform="matrix(0.966, -0.259, 0.259, 0.966, -5.134, 15.012)"></rect><rect x="54" y="32" width="2" height="2"></rect><path d="M50,32h2A20.023,20.023,0,0,0,32,12v2A18.021,18.021,0,0,1,50,32Z"></path><path d="M14,32H12A20.023,20.023,0,0,0,32,52V50A18.021,18.021,0,0,1,14,32Z"></path></g></svg>