<svg xmlns="http://www.w3.org/2000/svg" viewBox="0 0 64 64" x="0px" y="0px"><g data-name="Referee-Line Man-Flag"><rect x="20" y="4" width="18" height="11"></rect><rect x="15" y="55" width="10.001" height="2"></rect><rect x="20" y="17" width="18" height="11"></rect><rect x="40" y="4" width="18" height="11"></rect><rect x="40" y="17" width="18" height="11"></rect><polygon points="15 47 15 49 25 49 25.001 49 25 47 15 47"></polygon><polygon points="15 51 15 53 25 53 25.001 53 25 51 15 51"></polygon><polygon points="22 43 15 43 15 45 25 45 25.001 45 25 43 22 43"></polygon><rect x="16" y="4" width="2" height="32"></rect><path d="M22,41a1,1,0,0,0,1-1V39a1,1,0,0,0-1-1H9a3,3,0,0,0-3,3V60h8V58.722A1.993,1.993,0,0,1,13,57V55a1.978,1.978,0,0,1,.278-1A1.978,1.978,0,0,1,13,53V51a1.978,1.978,0,0,1,.278-1A1.978,1.978,0,0,1,13,49V47a1.978,1.978,0,0,1,.278-1A1.978,1.978,0,0,1,13,45V43H11V41Z"></path><rect x="16" y="59" width="2" height="1"></rect></g></svg>