<svg xmlns="http://www.w3.org/2000/svg" viewBox="0 0 64 64" x="0px" y="0px"><g data-name="Money-Stack-Coins-Money Bag-Economy"><path d="M59,26H58v2H56V26H54v2H52V26H50v2H48V26H47a1,1,0,0,0-1,1v2a1,1,0,0,0,1,1H59a1,1,0,0,0,1-1V27A1,1,0,0,0,59,26Z"></path><rect x="4" y="50" width="18" height="2"></rect><rect x="4" y="54" width="18" height="2"></rect><rect x="4" y="58" width="18" height="2"></rect><path d="M59,32H58v2H56V32H54v2H52V32H50v2H48V32H47a1,1,0,0,0-1,1v2a1,1,0,0,0,1,1H59a1,1,0,0,0,1-1V33A1,1,0,0,0,59,32Z"></path><rect x="4" y="46" width="18" height="2"></rect><path d="M4,34.17A1.831,1.831,0,0,0,5.83,36H28.17A1.831,1.831,0,0,0,30,34.17a1.783,1.783,0,0,0-.54-1.29l-1.34-1.34A3.838,3.838,0,0,1,27,28.83V23a7.008,7.008,0,0,0-7-7H14a7.008,7.008,0,0,0-7,7v5.83a3.838,3.838,0,0,1-1.12,2.71L4.54,32.88A1.783,1.783,0,0,0,4,34.17ZM18,27H16a3,3,0,0,1,0-6V20h2v1a3,3,0,0,1,3,3H19a1,1,0,0,0-1-1H16a1,1,0,0,0,0,2h2a3,3,0,0,1,0,6v1H16V31a3,3,0,0,1-3-3h2a1,1,0,0,0,1,1h2a1,1,0,0,0,0-2Z"></path><path d="M19,14a1,1,0,0,0,0-2H15a1,1,0,0,0,0,2Z"></path><path d="M20,6c-.59,0-.66.07-.79.21A2.7,2.7,0,0,1,17,7a2.7,2.7,0,0,1-2.21-.79C14.66,6.07,14.59,6,14,6s-.66.07-.79.21a3.579,3.579,0,0,1-.46.38L15.48,10h3.04l2.73-3.41a3.579,3.579,0,0,1-.46-.38C20.66,6.07,20.59,6,20,6Z"></path><path d="M31,26a1,1,0,0,0-1,1v2a1,1,0,0,0,1,1H43a1,1,0,0,0,1-1V27a1,1,0,0,0-1-1H42v2H40V26H38v2H36V26H34v2H32V26Z"></path><rect x="42" y="58" width="18" height="2"></rect><rect x="42" y="54" width="18" height="2"></rect><rect x="42" y="50" width="18" height="2"></rect><rect x="42" y="46" width="18" height="2"></rect><rect x="42" y="38" width="18" height="2"></rect><rect x="42" y="42" width="18" height="2"></rect><path d="M44,35V33a1,1,0,0,0-1-1H42v2H40V32H38v2H36V32H34v2H32V32h-.68a3.738,3.738,0,0,1,.19,4H43A1,1,0,0,0,44,35Z"></path><rect x="4" y="42" width="18" height="2"></rect><path d="M24,60H40V38H24Zm9-10H31a3,3,0,0,1,0-6V43h2v1a3,3,0,0,1,3,3H34a1,1,0,0,0-1-1H31a1,1,0,0,0,0,2h2a3,3,0,0,1,0,6v1H31V54a3,3,0,0,1-3-3h2a1,1,0,0,0,1,1h2a1,1,0,0,0,0-2Z"></path><rect x="4" y="38" width="18" height="2"></rect><path d="M45,24a8,8,0,1,0-8-8A8.011,8.011,0,0,0,45,24Zm1-7H44a3,3,0,0,1,0-6V10h2v1a3,3,0,0,1,3,3H47a1,1,0,0,0-1-1H44a1,1,0,0,0,0,2h2a3,3,0,0,1,0,6v1H44V21a3,3,0,0,1-3-3h2a1,1,0,0,0,1,1h2a1,1,0,0,0,0-2Z"></path></g></svg>