<svg xmlns="http://www.w3.org/2000/svg" viewBox="0 0 64 64" x="0px" y="0px"><g data-name="Saving-Money Bag-Coins-Money-Loan"><rect x="30" y="58" width="11" height="2"></rect><path d="M60,47.091V42.91A6.007,6.007,0,0,1,55.09,38H34.91A6.008,6.008,0,0,1,30,42.91v4.18A6.008,6.008,0,0,1,34.91,52H55.09A6.006,6.006,0,0,1,60,47.091ZM45,50a5,5,0,1,1,5-5A5.006,5.006,0,0,1,45,50Z"></path><circle cx="45" cy="45" r="3"></circle><rect x="43" y="54" width="4" height="6"></rect><path d="M32.858,38H30v2.858A4,4,0,0,0,32.858,38Z"></path><path d="M30,49.126V52h2.859A4.007,4.007,0,0,0,30,49.126Z"></path><rect x="30" y="54" width="11" height="2"></rect><path d="M57.142,52H60V49.143A3.993,3.993,0,0,0,57.142,52Z"></path><path d="M21,34a1,1,0,0,0,0-2H13a1,1,0,0,0,0,2Z"></path><rect x="49" y="54" width="11" height="2"></rect><polygon points="14.535 30 19.465 30 22.131 26 11.869 26 14.535 30"></polygon><rect x="49" y="58" width="11" height="2"></rect><path d="M6,53a1,1,0,0,1-1,1,1,1,0,0,0,0,2H28V43a7.008,7.008,0,0,0-7-7H13a7.008,7.008,0,0,0-7,7Zm12-6H16a3,3,0,0,1,0-6V40h2v1a3,3,0,0,1,3,3H19a1,1,0,0,0-1-1H16a1,1,0,0,0,0,2h2a3,3,0,0,1,0,6v1H16V51a3,3,0,0,1-3-3h2a1,1,0,0,0,1,1h2a1,1,0,0,0,0-2Z"></path><path d="M57.142,38A4,4,0,0,0,60,40.858V38Z"></path><polygon points="58 18 56 18 56 16 54 16 54 18 52 18 52 16 50 16 50 18 48 18 48 16 46 16 46 20 60 20 60 16 58 16 58 18"></polygon><polygon points="56 30 54 30 54 28 52 28 52 30 50 30 50 28 48 28 48 30 46 30 46 28 44 28 44 32 58 32 58 28 56 28 56 30"></polygon><polygon points="44 26 44 22 42 22 42 24 40 24 40 22 38 22 38 24 36 24 36 22 34 22 34 24 32 24 32 22 30 22 30 26 42 26 44 26"></polygon><polygon points="60 26 60 22 58 22 58 24 56 24 56 22 54 22 54 24 52 24 52 22 50 22 50 24 48 24 48 22 46 22 46 26 58 26 60 26"></polygon><polygon points="42 28 40 28 40 30 38 30 38 28 36 28 36 30 34 30 34 28 32 28 32 30 30 30 30 28 28 28 28 32 42 32 42 28"></polygon><path d="M36,4a8,8,0,1,0,8,8A8.009,8.009,0,0,0,36,4Zm-1,7h2a3,3,0,0,1,0,6v1H35V17a3,3,0,0,1-3-3h2a1,1,0,0,0,1,1h2a1,1,0,0,0,0-2H35a3,3,0,0,1,0-6V6h2V7a3,3,0,0,1,3,3H38a1,1,0,0,0-1-1H35a1,1,0,0,0,0,2Z"></path></g></svg>