<svg xmlns="http://www.w3.org/2000/svg" viewBox="0 0 64 64" x="0px" y="0px"><title>Search-Book</title><g><path d="M15,12H53V38h2V3a1,1,0,0,0-1-1H14A5.006,5.006,0,0,0,9,7V57a5.006,5.006,0,0,0,5,5H40V60H15ZM14,4H53V6H15V8H53v2H14a3,3,0,0,1,0-6ZM11,57V10.974a4.954,4.954,0,0,0,2,.925V59.816A3,3,0,0,1,11,57Z"></path><path d="M20,16a1,1,0,0,0-1,1V27a1,1,0,0,0,1,1H48a1,1,0,0,0,1-1V17a1,1,0,0,0-1-1ZM47,26H21V18H47Z"></path><path d="M59.707,60.293,52.315,52.9A8.016,8.016,0,1,0,50.9,54.315l7.392,7.392ZM40,48a6,6,0,1,1,6,6A6.006,6.006,0,0,1,40,48Z"></path></g></svg>