<svg xmlns="http://www.w3.org/2000/svg" viewBox="0 0 64 64" x="0px" y="0px"><g data-name="Shipping"><path d="M28.9,49.014a1,1,0,0,0-1.225-.707l-.966.259-1.8-6.713a1.016,1.016,0,0,0-.258-.448l-9.759-9.758a4.009,4.009,0,0,0-3.374-1.132L9.8,24.107a4,4,0,1,0-7.727,2.072l5.694,21.25a1.009,1.009,0,0,0,.373.547l4.876,3.586.168.627-.966.259a1,1,0,0,0-.707,1.225L13.58,61.4a1,1,0,0,0,.965.742.967.967,0,0,0,.259-.035l15.455-4.14a1,1,0,0,0,.707-1.225ZM14.854,50.705a1,1,0,0,0-.373-.547L9.606,46.572,4,25.661a2,2,0,0,1,3.864-1.036L9.654,31.3a4.318,4.318,0,0,0-.426.352,4.013,4.013,0,0,0,0,5.658l8.083,8.083,1.415-1.414-8.083-8.083a2.007,2.007,0,0,1-.008-2.824,1.848,1.848,0,0,1,.569-.391c.032-.014.063-.03.093-.046a1.19,1.19,0,0,1,.244-.086,2,2,0,0,1,1.933.518l9.568,9.566,1.73,6.455-9.66,2.589Zm.4,9.211L13.7,54.121l.966-.259h0l1.918-.514L27.223,50.5l1.552,5.8Z"></path><path d="M61.531,23.143a4,4,0,0,0-7.329.964l-1.717,6.408a4.016,4.016,0,0,0-3.374,1.132l-9.759,9.758a1.016,1.016,0,0,0-.258.448l-1.8,6.713-.966-.259a1,1,0,0,0-1.225.707l-2.07,7.727a1,1,0,0,0,.707,1.225L49.2,62.106a.972.972,0,0,0,.259.035,1,1,0,0,0,.965-.742l2.071-7.726a1,1,0,0,0-.707-1.225l-.966-.259.168-.627,4.876-3.586a1.009,1.009,0,0,0,.373-.547l5.694-21.25A3.977,3.977,0,0,0,61.531,23.143ZM48.748,59.916,35.225,56.293l1.552-5.8,10.64,2.851,1.918.514h0l.966.259ZM60,25.661l-5.6,20.911-4.875,3.586a1,1,0,0,0-.373.547l-.259.967-9.66-2.589,1.73-6.455,9.568-9.566a2.015,2.015,0,0,1,1.934-.518,1.2,1.2,0,0,1,.243.086c.03.016.061.032.093.046a1.815,1.815,0,0,1,.559.382,2.009,2.009,0,0,1,0,2.833l-8.084,8.083,1.414,1.414,8.084-8.083a4.015,4.015,0,0,0-.009-5.667,4.168,4.168,0,0,0-.416-.344l1.787-6.669A2,2,0,1,1,60,25.661Z"></path><path d="M23,33H41a2,2,0,0,0,2-2V15a2,2,0,0,0-2-2H23a2,2,0,0,0-2,2V31A2,2,0,0,0,23,33Zm0-2V19h6v3a1,1,0,0,0,1,1h4a1,1,0,0,0,1-1V19h6V31ZM41,17H35V15h6Zm-8-2v6H31V15Zm-4,0v2H23V15Z"></path><rect x="35" y="27" width="4" height="2"></rect><rect x="31" y="27" width="2" height="2"></rect><path d="M49,9.414V19h2V9.414l2.536,2.535,1.414-1.414L50.707,6.293a1,1,0,0,0-1.414,0L45.05,10.535l1.414,1.414Z"></path><path d="M31,5.414V11h2V5.414l2.536,2.535L36.95,6.535,32.707,2.293a1,1,0,0,0-1.414,0L27.05,6.535l1.414,1.414Z"></path><path d="M13,9.414V19h2V9.414l2.536,2.535,1.414-1.414L14.707,6.293a1,1,0,0,0-1.414,0L9.05,10.535l1.414,1.414Z"></path><rect x="13" y="21" width="2" height="2"></rect><rect x="49" y="21" width="2" height="2"></rect></g></svg>