<svg xmlns="http://www.w3.org/2000/svg" viewBox="0 0 48 48" x="0px" y="0px"><g data-name="Delivery"><polygon points="33 18 33 20 35 20 35 22 31 22 31 24 35 24 35 28 15 28 15 16 35 16 35 18 33 18"></polygon><rect x="35" y="18" width="7" height="2"></rect><rect x="35" y="22" width="4" height="2"></rect><rect x="40" y="22" width="2" height="2"></rect><rect x="38" y="26" width="2" height="2"></rect><rect x="41" y="26" width="2" height="2"></rect><path d="M37,32V30H4v2h.78a2.964,2.964,0,0,1,4.44,0H25.78a2.964,2.964,0,0,1,4.44,0h1.56a2.964,2.964,0,0,1,4.44,0Z"></path><polygon points="13 19 8.351 19 4 22.48 4 25 13 25 13 19"></polygon><rect x="4" y="27" width="9" height="1"></rect><circle cx="7" cy="34" r="2"></circle><circle cx="28" cy="34" r="2"></circle><circle cx="34" cy="34" r="2"></circle></g></svg>