<svg xmlns="http://www.w3.org/2000/svg" viewBox="0 0 64 64" x="0px" y="0px"><g data-name="Sofa"><path d="M59.335,21.722A1.994,1.994,0,0,0,57.8,21H55.054l.523-9.942a6.995,6.995,0,0,0-8.452-7.214C42.564,4.828,36.238,6,32,6S21.436,4.828,16.875,3.844a6.995,6.995,0,0,0-8.452,7.214L8.946,21H6.2a2,2,0,0,0-1.966,2.366l4.5,24.127A2.991,2.991,0,0,0,11.694,50H14V61a1,1,0,0,0,1,1h3a1,1,0,0,0,1-.917L19.92,50H44.08L45,61.083A1,1,0,0,0,46,62h3a1,1,0,0,0,1-1V50h2.306a2.984,2.984,0,0,0,2.955-2.488l4.5-24.145A1.993,1.993,0,0,0,59.335,21.722ZM53.826,23h0M12.173,6.878A4.949,4.949,0,0,1,16.453,5.8C21.109,6.8,27.586,8,32,8S42.891,6.8,47.547,5.8a5,5,0,0,1,6.033,5.153l-.537,10.215a2,2,0,0,0-1.181,1.455l-3.57,18.542a.992.992,0,0,1-.292.543V35a3,3,0,0,0-3-3H19a3,3,0,0,0-3,3v6.7a1.033,1.033,0,0,1-.3-.563L12.138,22.622a1.994,1.994,0,0,0-1.181-1.455L10.42,10.952A4.966,4.966,0,0,1,12.173,6.878ZM46,42H18V35a1,1,0,0,1,1-1H45a1,1,0,0,1,1,1ZM17.08,60H16V50h1.913ZM48,60H46.92l-.833-10H48Zm5.292-12.836a1,1,0,0,1-.986.836H11.694a1,1,0,0,1-.989-.854L6.2,23h3.97l3.561,18.493A2.991,2.991,0,0,0,16.694,44H47.306a2.982,2.982,0,0,0,2.954-2.482L53.826,23H57.8Z"></path><rect x="19" y="16" width="26" height="2"></rect><rect x="19" y="22" width="26" height="2"></rect></g></svg>