<svg xmlns="http://www.w3.org/2000/svg" viewBox="0 0 64 64" x="0px" y="0px"><g data-name="Deal-Hand Shake"><path d="M26.933,41.305a4.971,4.971,0,0,1-1.237-.881L27.11,39.01a3.071,3.071,0,0,0,4.244,0,1.029,1.029,0,0,1,1.414,0l4.243,4.243a1.023,1.023,0,0,0,1.414,0,1,1,0,0,0,0-1.414L30.586,34H27.172l-8.9,8.9,3.536,3.536Z"></path><rect x="9.15" y="29.293" width="14" height="6" transform="translate(-18.104 20.879) rotate(-45)"></rect><rect x="14.393" y="35.535" width="12.001" height="2" transform="translate(-19.863 25.127) rotate(-45.009)"></rect><path d="M36.3,59.516a1.021,1.021,0,0,0,1.414,0,1,1,0,0,0,0-1.415L36.3,56.688A1,1,0,0,0,34.889,58.1Z"></path><path d="M35.441,54.411a2.9,2.9,0,0,1,2.824-2.8A2.959,2.959,0,0,1,41.1,48.755a2.967,2.967,0,0,1,3.754-2.731l.294-.294L36.33,36.915h0l3.51,3.51a3,3,0,0,1,0,4.242,3.072,3.072,0,0,1-4.243,0L31.99,41.062a4.963,4.963,0,0,1-2.758.827c-.017,0-.034-.005-.051-.005l-4.543,4.553,0,0-2.121,2.121a1,1,0,0,0,0,1.415,1.024,1.024,0,0,0,1.414,0l2.829-2.829,1.414,1.414-2.829,2.829A1,1,0,0,0,26.758,52.8l2.828-2.828L31,51.385l-2.828,2.828a1,1,0,0,0,0,1.414,1.02,1.02,0,0,0,1.4.011l.008-.011,2.161-2.153.675-.675,1.414,1.414,0,0h0l-.943.94L31,57.042l-.013.01a1,1,0,0,0,1.426,1.4l.3-.3a2.966,2.966,0,0,1,2.733-3.747Z"></path><rect x="44.263" y="27.121" width="6" height="16" transform="translate(-10.991 43.708) rotate(-45.001)"></rect><rect x="42.022" y="33.364" width="1.999" height="12" transform="translate(-15.234 41.948) rotate(-44.998)"></rect><path d="M46.2,51.031a1,1,0,0,0,0-1.414L44.789,48.2a1,1,0,0,0-1.415,1.414l1.414,1.414A1,1,0,0,0,46.2,51.031Z"></path><path d="M40.546,56.688a1,1,0,0,0,0-1.414l-1.414-1.415a1,1,0,0,0-1.414,1.415l1.414,1.414A1,1,0,0,0,40.546,56.688Z"></path><path d="M43.374,53.86a1,1,0,0,0,0-1.415L41.96,51.031a1,1,0,1,0-1.414,1.414L41.96,53.86A1.025,1.025,0,0,0,43.374,53.86Z"></path><path d="M39,22V13H25v9h4V17a1,1,0,0,1,1-1h4a1,1,0,0,1,1,1v5Z"></path><rect x="31" y="18" width="2" height="4"></rect><polygon points="40.198 11 32 4.292 23.802 11 24 11 40 11 40.198 11"></polygon><polygon points="13 12 15 12 15 10 17 10 17 8 15 8 15 6 13 6 13 8 11 8 11 10 13 10 13 12"></polygon><polygon points="49 20 49 22 51 22 51 24 53 24 53 22 55 22 55 20 53 20 53 18 51 18 51 20 49 20"></polygon><polygon points="45 9 47 9 47 7 49 7 49 5 47 5 47 3 45 3 45 5 43 5 43 7 45 7 45 9"></polygon><polygon points="8 24 8 22 10 22 10 20 8 20 8 18 6 18 6 20 4 20 4 22 6 22 6 24 8 24"></polygon></g></svg>