<svg xmlns="http://www.w3.org/2000/svg" viewBox="0 0 64 64" x="0px" y="0px"><title>Cocktail_5</title><g data-name="Cocktail"><path d="M55,2H45a1,1,0,0,0-.707,1.707L48.687,8.1,45.835,12H23.941a9,9,0,1,0-5.423,9.283L31,39.313V60H20a1,1,0,0,0,0,2H44a1,1,0,0,0,0-2H33V39.313L50.822,13.569A1,1,0,0,0,50,12H48.312l1.806-2.468,4.175,4.175A1,1,0,0,0,56,13V3A1,1,0,0,0,55,2ZM22.478,18a8.931,8.931,0,0,0,1.463-4H44.372l-2.927,4Zm-3.8,0-2.769-4H21.92a6.975,6.975,0,0,1-2.031,4ZM15,20a7,7,0,1,1,6.92-8H14a1,1,0,0,0-.822,1.569l4.166,6.019A6.954,6.954,0,0,1,15,20Zm5.644,0H43.938L32,37.243,20.261,20.287C20.39,20.193,20.52,20.1,20.644,20Zm27.448-6-2.769,4h-1.4l2.927-4ZM54,10.586,47.414,4H54Z"></path><path d="M32.62,30.08a1.155,1.155,0,0,0-.33.21A1.047,1.047,0,0,0,32,31a1,1,0,0,0,.08.38,1.155,1.155,0,0,0,.21.33,1.032,1.032,0,0,0,.33.21A1,1,0,0,0,33,32a1.052,1.052,0,0,0,.71-.29,1.155,1.155,0,0,0,.21-.33A1,1,0,0,0,34,31a1.052,1.052,0,0,0-.29-.71A1,1,0,0,0,32.62,30.08Z"></path><path d="M27.29,25.29a1.014,1.014,0,0,0,0,1.42,1.014,1.014,0,0,0,1.42,0,1,1,0,0,0-1.42-1.42Z"></path><path d="M32.71,23.71a1.014,1.014,0,0,0,0-1.42,1.169,1.169,0,0,0-.33-.21.956.956,0,0,0-.58-.06.636.636,0,0,0-.18.06.782.782,0,0,0-.181.09l-.149.12A1.028,1.028,0,0,0,31,23a1,1,0,0,0,.08.38.933.933,0,0,0,.21.33,1.7,1.7,0,0,0,.149.12.782.782,0,0,0,.181.09.636.636,0,0,0,.18.06A1.355,1.355,0,0,0,32,24,1.052,1.052,0,0,0,32.71,23.71Z"></path><path d="M36,28a1.2,1.2,0,0,0,.189-.02.609.609,0,0,0,.191-.06.568.568,0,0,0,.17-.09c.059-.04.11-.08.16-.12A1.014,1.014,0,1,0,36,28Z"></path><path d="M39,23a1.052,1.052,0,0,0,.71-.29l.12-.15a.8.8,0,0,0,.09-.18.6.6,0,0,0,.059-.18A1.234,1.234,0,0,0,40,22a1,1,0,1,0-1,1Z"></path></g></svg>