<svg xmlns="http://www.w3.org/2000/svg" viewBox="0 0 64 64" x="0px" y="0px"><g data-name="Presentaion profile"><rect x="4" y="46" width="56" height="2"></rect><rect x="30" y="50" width="4" height="6"></rect><rect x="23" y="58" width="18" height="2"></rect><rect x="4" y="8" width="56" height="2"></rect><rect x="30" y="4" width="4" height="2"></rect><circle cx="50" cy="36" r="4"></circle><rect x="21" y="16" width="22" height="4"></rect><circle cx="14" cy="36" r="4"></circle><circle cx="32" cy="36" r="4"></circle><path d="M6,44H58V12H6Zm7-13.91V25H26V22H19V14H45v8H38v3H51v5.09a6,6,0,1,1-2,0V27H36V22H33v8.09a6,6,0,1,1-2,0V22H28v5H15v3.09a6,6,0,1,1-2,0Z"></path></g></svg>