<svg xmlns="http://www.w3.org/2000/svg" viewBox="0 0 64 64" x="0px" y="0px"><title>Artificial Intelligence-Robot-Robotic-Automation</title><g data-name="Artificial Intelligence"><path d="M60.917,30.95a23.436,23.436,0,0,0-.721-4.21A1,1,0,0,0,59.23,26H56.475A8.936,8.936,0,0,0,57,23a1,1,0,0,0-1-1H42V20h5a3,3,0,0,0,3-3V5a3,3,0,0,0-3-3H25a3,3,0,0,0-3,3V17a3,3,0,0,0,3,3h5v2H16a1,1,0,0,0-1,1,8.936,8.936,0,0,0,.525,3H12.76a1,1,0,0,0-.968.748A24.771,24.771,0,0,0,11,32.61L2.778,41.659A2,2,0,0,0,4.26,45H9v6a7.008,7.008,0,0,0,7,7h8v3a1,1,0,0,0,1,1H53a1,1,0,0,0,1-1V50.348A25.049,25.049,0,0,0,60.917,30.95ZM49,29.929V24h5.929A7.016,7.016,0,0,1,49,29.929Zm-2,.965L44.191,44H27.809L25,30.894V24H47ZM39,18V16h3v2Zm-9,0V16h3v2Zm5-2h2v2H35ZM24,17V5a1,1,0,0,1,1-1H47a1,1,0,0,1,1,1V17a1,1,0,0,1-1,1H44V15a1,1,0,0,0-1-1H29a1,1,0,0,0-1,1v3H25A1,1,0,0,1,24,17Zm8,3h8v2H32Zm-9,4v5.929A7.016,7.016,0,0,1,17.071,24ZM52.291,49.234A1,1,0,0,0,52,49.94V60H26V58a2,2,0,0,0-2-2H16a5.006,5.006,0,0,1-5-5V44a1,1,0,0,0-1-1L4.26,43l8.48-9.33A1,1,0,0,0,13,33a22.929,22.929,0,0,1,.547-5h2.975a9,9,0,0,0,6.661,3.959l2.839,13.25A1,1,0,0,0,27,46H45a1,1,0,0,0,.978-.791l2.839-13.25A9,9,0,0,0,55.478,28h2.971a21.748,21.748,0,0,1,.474,3.109A23.044,23.044,0,0,1,52.291,49.234Z"></path><path d="M29,34h3v5a1,1,0,0,0,1,1h6a1,1,0,0,0,1-1V34h3a1,1,0,0,0,1-1V27a1,1,0,0,0-1-1H29a1,1,0,0,0-1,1v6A1,1,0,0,0,29,34Zm9,4H34V34h4ZM30,28H42v4H30Z"></path><path d="M30,12a3,3,0,1,0-3-3A3,3,0,0,0,30,12Zm0-4a1,1,0,1,1-1,1A1,1,0,0,1,30,8Z"></path><path d="M42,12a3,3,0,1,0-3-3A3,3,0,0,0,42,12Zm0-4a1,1,0,1,1-1,1A1,1,0,0,1,42,8Z"></path><rect x="54" y="6" width="2" height="4"></rect><rect x="54" y="12" width="2" height="2"></rect><rect x="54" y="16" width="2" height="2"></rect><rect x="58" y="6" width="2" height="2"></rect><rect x="58" y="10" width="2" height="2"></rect><rect x="58" y="14" width="2" height="2"></rect><rect x="12" y="6" width="2" height="4"></rect><rect x="12" y="12" width="2" height="2"></rect><rect x="12" y="16" width="2" height="2"></rect><rect x="16" y="6" width="2" height="2"></rect><rect x="16" y="10" width="2" height="2"></rect><rect x="16" y="14" width="2" height="2"></rect></g></svg>