<svg xmlns="http://www.w3.org/2000/svg" viewBox="0 0 64 64" x="0px" y="0px"><g><rect x="6" y="5" width="2" height="2"></rect><rect x="10" y="5" width="2" height="2"></rect><rect x="14" y="5" width="2" height="2"></rect><path d="M51,14H42V5a3,3,0,0,0-3-3H5A3,3,0,0,0,2,5V35a3,3,0,0,0,3,3H16V59a3,3,0,0,0,3,3H51a3,3,0,0,0,3-3V17A3,3,0,0,0,51,14ZM5,4H39a1,1,0,0,1,1,1V8H4V5A1,1,0,0,1,5,4ZM5,36a1,1,0,0,1-1-1V10H40v4H19a3,3,0,0,0-3,3V36ZM24,16h2v2.7l-.168-.252a1,1,0,0,0-1.664,0L24,18.7ZM52,59a1,1,0,0,1-1,1H19a1,1,0,0,1-1-1V17a1,1,0,0,1,1-1h3v6a1,1,0,0,0,1.832.555L25,20.8l1.168,1.752A1,1,0,0,0,28,22V16H51a1,1,0,0,1,1,1Z"></path><rect x="22" y="26" width="6" height="2"></rect><rect x="22" y="30" width="26" height="2"></rect><rect x="28" y="36" width="6" height="2"></rect><rect x="36" y="36" width="12" height="2"></rect><rect x="28" y="40" width="20" height="2"></rect><rect x="28" y="44" width="20" height="2"></rect><rect x="22" y="50" width="4" height="2"></rect><rect x="28" y="50" width="10" height="2"></rect><rect x="28" y="54" width="14" height="2"></rect><rect x="44" y="54" width="4" height="2"></rect><rect x="30" y="26" width="8" height="2"></rect></g></svg>