<svg xmlns="http://www.w3.org/2000/svg" viewBox="0 0 64 64" x="0px" y="0px"><g><path d="M48.91,40a8,8,0,0,0,3.048-15.432,1,1,0,0,1-.509-1.4A13,13,0,0,0,29.461,9.4a.985.985,0,0,1-.965.4,1,1,0,0,1-.8-.679A6,6,0,0,0,16,11a6.076,6.076,0,0,0,.473,2.346,1,1,0,0,1-.606,1.332A13,13,0,0,0,20,40c.208,0,.417-.016.622-.031l.232-.017a.988.988,0,0,1,.963.557A7.963,7.963,0,0,0,29,45V33.3L23.465,25H19a1,1,0,0,1-.707-.293l-2-2,1.414-1.414L19.414,23H24a1,1,0,0,1,.832.445l1.431,2.146,4.1-3.364A1,1,0,0,1,31,22h3v2H31.357l-3.98,3.263,1.67,2.5A.986.986,0,0,1,30,29h4a1,1,0,0,1,1,1v4h.411l4.715-8.486A1,1,0,0,1,41,25h4v2H41.589L40.1,29.683l4.109,4.11-1.414,1.414-3.7-3.706-2.214,3.985A1,1,0,0,1,36,36H35v6.272A8.1,8.1,0,0,0,36.182,40.5a1,1,0,0,1,.9-.56.934.934,0,0,1,.149.011,1,1,0,0,1,.839.834,4.993,4.993,0,0,0,9.856.051A1,1,0,0,1,48.91,40Z"></path><polygon points="31 61 33 61 33 44.48 33 31 31 31 31 45.94 31 61"></polygon></g></svg>