<svg xmlns="http://www.w3.org/2000/svg" viewBox="0 0 64 64" x="0px" y="0px"><g><path d="M54.987,14.937a.945.945,0,0,0-.051-.257c-.011-.032-.019-.063-.033-.094a.984.984,0,0,0-.2-.293l-12-12a.971.971,0,0,0-.3-.2c-.029-.013-.057-.021-.086-.031a.966.966,0,0,0-.271-.054C42.036,2.01,42.019,2,42,2H14A5.006,5.006,0,0,0,9,7V57a5.006,5.006,0,0,0,5,5H50a5.006,5.006,0,0,0,5-5V15C55,14.978,54.989,14.959,54.987,14.937ZM51.586,14H44a1,1,0,0,1-1-1V5.414ZM50,60H14a3,3,0,0,1-3-3V7a3,3,0,0,1,3-3H41v9a3,3,0,0,0,3,3h9V57A3,3,0,0,1,50,60Z"></path><path d="M45.447,31.105,40,28.382V17a1,1,0,0,0-.1-.447C39.761,16.285,36.565,10,32,10s-7.761,6.285-7.895,6.553A1,1,0,0,0,24,17V28.382l-5.447,2.723A1,1,0,0,0,18,32v9a1,1,0,0,0,1,1,.983.983,0,0,0,.316-.052l5.317-1.772L27.2,43.6a1,1,0,0,0,.8.4h8a1,1,0,0,0,.8-.4l2.567-3.424,5.317,1.772A.983.983,0,0,0,45,42a1,1,0,0,0,1-1V32A1,1,0,0,0,45.447,31.105ZM26,17.243C26.87,15.607,29.343,12,32,12s5.126,3.607,6,5.244V38H26ZM20,32.618l4-2v7.661l-4,1.333ZM35.5,42h-7L27,40H37ZM44,39.612l-4-1.333V30.618l4,2Z"></path><path d="M29,21h6a1,1,0,0,0,.949-1.316l-1-3A1,1,0,0,0,34,16H30a1,1,0,0,0-.949.684l-1,3A1,1,0,0,0,29,21Zm1.721-3h2.558l.334,1H30.387Z"></path><rect x="31" y="47" width="2" height="6"></rect><rect x="31" y="55" width="2" height="2"></rect><rect x="35" y="47" width="2" height="4"></rect><rect x="35" y="53" width="2" height="2"></rect><rect x="27" y="47" width="2" height="4"></rect><rect x="27" y="53" width="2" height="2"></rect></g></svg>