<svg xmlns="http://www.w3.org/2000/svg" viewBox="0 0 64 64" x="0px" y="0px"><title>Tool</title><g><path d="M61,27H54a1.006,1.006,0,0,0-.555.168L50.7,29H35V13.3l1.832-2.748A1.006,1.006,0,0,0,37,10V3a1,1,0,0,0-1-1H28a1,1,0,0,0-1,1v7a1.006,1.006,0,0,0,.168.555L29,13.3V29H13.3l-2.748-1.832A1.006,1.006,0,0,0,10,27H3a1,1,0,0,0-1,1v8a1,1,0,0,0,1,1h7a1.006,1.006,0,0,0,.555-.168L13.3,35H29V50.7l-1.832,2.748A1.006,1.006,0,0,0,27,54v7a1,1,0,0,0,1,1h8a1,1,0,0,0,1-1V54a1.006,1.006,0,0,0-.168-.555L35,50.7V35H50.7l2.748,1.832A1.006,1.006,0,0,0,54,37h7a1,1,0,0,0,1-1V28A1,1,0,0,0,61,27Zm-1,8H54.3l-2.748-1.832A1.006,1.006,0,0,0,51,33H34a1,1,0,0,0-1,1V51a1.006,1.006,0,0,0,.168.555L35,54.3V60H29V54.3l1.832-2.748A1.006,1.006,0,0,0,31,51V34a1,1,0,0,0-1-1H13a1.006,1.006,0,0,0-.555.168L9.7,35H4V29H9.7l2.748,1.832A1.006,1.006,0,0,0,13,31H30a1,1,0,0,0,1-1V13a1.006,1.006,0,0,0-.168-.555L29,9.7V4h6V9.7l-1.832,2.748A1.006,1.006,0,0,0,33,13V30a1,1,0,0,0,1,1H51a1.006,1.006,0,0,0,.555-.168L54.3,29H60Z"></path></g></svg>