<svg xmlns="http://www.w3.org/2000/svg" viewBox="0 0 64 64" x="0px" y="0px"><g><path d="M54.318,50.43l-1.327-2.389L53,38a1,1,0,0,0-.125-.485l-6.3-11.371A4.026,4.026,0,0,0,43,24.081V5a3,3,0,0,0-3-3H8A3,3,0,0,0,5,5V49a3,3,0,0,0,3,3H24.321l1.054,1.9a1,1,0,0,0,.391.391l8,4.431L35.08,61.1a1.988,1.988,0,0,0,1.2.953,2.012,2.012,0,0,0,.553.078,1.992,1.992,0,0,0,.968-.252L53.539,53.15a2,2,0,0,0,.779-2.72ZM7,49V5A1,1,0,0,1,8,4H40a1,1,0,0,1,1,1V24.678a3.977,3.977,0,0,0-1.425,5.345L41,32.594v2.838a7.044,7.044,0,0,0-.82,8.055L41,44.753V49a1,1,0,0,1-1,1H8A1,1,0,0,1,7,49ZM36.83,60.131l-1.455-2.625a1.007,1.007,0,0,0-.391-.391l-8-4.43L26.607,52H40a3,3,0,0,0,3-3V46l.839-.544-1.945-3a5.007,5.007,0,0,1,1.949-6.8,1,1,0,0,0,.39-1.359l-2.907-5.245a2,2,0,0,1-.173-1.526,2.017,2.017,0,0,1,1.866-1.451,2,2,0,0,1,1.807,1.034L51,38.258,50.99,48.3a1,1,0,0,0,.126.486L52.57,51.4Z"></path><path d="M38,6H10A1,1,0,0,0,9,7V43a1,1,0,0,0,1,1H38a1,1,0,0,0,1-1V7A1,1,0,0,0,38,6ZM37,42H11V8H37Z"></path><rect x="21" y="46" width="6" height="2"></rect><rect x="15" y="11" width="4" height="2"></rect><rect x="21" y="11" width="12" height="2"></rect><rect x="15" y="15" width="18" height="2"></rect><rect x="15" y="19" width="12" height="2"></rect><rect x="29" y="19" width="4" height="2"></rect><rect x="15" y="23" width="18" height="2"></rect><rect x="15" y="31" width="12" height="2"></rect><rect x="29" y="31" width="4" height="2"></rect><rect x="15" y="35" width="18" height="2"></rect><rect x="15" y="27" width="8" height="2"></rect><rect x="25" y="27" width="4" height="2"></rect><rect x="31" y="27" width="2" height="2"></rect></g></svg>