<svg xmlns="http://www.w3.org/2000/svg" viewBox="0 0 64 64" x="0px" y="0px"><g><path d="M44,20.361V45.639a13.978,13.978,0,0,0,0-25.278Z"></path><path d="M42,48.479A16.055,16.055,0,0,1,38,49,15.972,15.972,0,0,1,22.026,33.535,8.931,8.931,0,0,0,19,33v-.009a.991.991,0,0,1-.707-.284l-5.435-5.435a3.075,3.075,0,0,0-4.243,0l-.707.707a1,1,0,0,0,0,1.415l11.8,11.9A1,1,0,0,1,20,42v8H42Z"></path><path d="M23,8H21a1,1,0,0,0-1,1V31.051a10.883,10.883,0,0,1,2.076.4A15.832,15.832,0,0,1,24.156,25H24V9A1,1,0,0,0,23,8Z"></path><path d="M20,60H42V52H20Zm6-4h2v2H26Zm-4,0h2v2H22Z"></path><path d="M32,18.165a15.888,15.888,0,0,1,4-1.027V12a1,1,0,0,0-1-1H33a1,1,0,0,0-1,1Z"></path><path d="M42,19.581A14.022,14.022,0,0,0,38,19v6H36V19.158a13.844,13.844,0,0,0-4,1.2V25H30V21.52A14.068,14.068,0,0,0,28.1,23.1a13.888,13.888,0,0,0-4.064,9.131A11,11,0,0,1,30,42H28a8.991,8.991,0,0,0-3.9-7.409A14,14,0,0,0,42,46.419ZM38.351,42l-1.585,1.219a3.044,3.044,0,0,1-.405-2.758c.146-.649.156-.846-.039-1.1s-.427-.3-1.056-.322a2.862,2.862,0,0,1-2.97-3.862c.138-.614.165-.836-.041-1.1l1.586-1.218a3.047,3.047,0,0,1,.407,2.759c-.138.615-.165.836.041,1.1s.426.3,1.055.322a2.86,2.86,0,0,1,2.968,3.86C38.167,41.549,38.156,41.745,38.351,42ZM41,32a3.049,3.049,0,0,1-2.436-1.359c-.4-.485-.562-.641-.9-.641s-.5.156-.9.641a2.86,2.86,0,0,1-4.87,0c-.425-.511-.575-.64-.9-.64V28a3.042,3.042,0,0,1,2.434,1.36c.425.511.575.64.9.64.337,0,.5-.156.9-.641a2.863,2.863,0,0,1,4.872,0c.4.485.562.641.9.641Z"></path><path d="M42,17a1,1,0,0,0-1-1H39a1,1,0,0,0-1,1,16.055,16.055,0,0,1,4,.521Z"></path><path d="M26,22.443c.225-.255.444-.514.687-.756A16.033,16.033,0,0,1,30,19.156V5a1,1,0,0,0-1-1H27a1,1,0,0,0-1,1Z"></path><path d="M60,52.17v5.66l-6.44-6.45a1,1,0,0,1,0-1.41l1.41-1.41a1.014,1.014,0,0,1,1.41,0Z"></path><rect x="50.5" y="44.379" width="2" height="4.243" transform="translate(-17.796 50.036) rotate(-45)"></rect></g></svg>