<svg xmlns="http://www.w3.org/2000/svg" viewBox="0 0 64 64" x="0px" y="0px"><g data-name="Mobile App-Hand-Smartphone-Taxi-Technology"><path d="M28.96,24.94l4.96-.04h.01a1.014,1.014,0,0,1,.8.4,14.059,14.059,0,1,0-2.33-5.01,1.017,1.017,0,0,1-.22.89ZM36,18a2.989,2.989,0,0,1,1.571-2.621L37.382,15H36V13h2a1,1,0,0,1,.9.553l.1.211,2.1-4.211A1,1,0,0,1,42,9V6a1,1,0,0,1,1-1h6a1,1,0,0,1,1,1V9a1,1,0,0,1,.9.553L53,13.764l.1-.211A1,1,0,0,1,54,13h2v2H54.618l-.189.379A2.989,2.989,0,0,1,56,18v2a3,3,0,0,1-2,2.816V25a2,2,0,0,1-2,2H50a2,2,0,0,1-2-2V23H44v2a2,2,0,0,1-2,2H40a2,2,0,0,1-2-2V22.816A3,3,0,0,1,36,20Z"></path><polygon points="49.382 11 49 11 43 11 42.618 11 40.618 15 51.382 15 49.382 11"></polygon><rect x="4" y="54" width="12" height="6"></rect><rect x="40" y="23" width="2" height="2"></rect><rect x="44" y="7" width="4" height="2"></rect><rect x="50" y="23" width="2" height="2"></rect><path d="M39,21H53a1,1,0,0,0,1-1V18a1,1,0,0,0-1-1H39a1,1,0,0,0-1,1v2A1,1,0,0,0,39,21Zm11-3h2v2H50ZM40,18h2v2H40Z"></path><path d="M19,35.25a1,1,0,0,0-1.36-.36,1,1,0,0,0-.47.61l-1.15,4.3a2.974,2.974,0,0,1-2.88,2.21H13.1a2.956,2.956,0,0,1-2.53-1.45L8.14,36.51A1,1,0,0,1,8,36V28.1A5.009,5.009,0,0,0,4,33V44.53a.956.956,0,0,0,.11.44l1.78,3.58A1,1,0,0,1,6,49v3h8V51a.984.984,0,0,1,.2-.6L17,46.67V44.79a6.922,6.922,0,0,1,.24-1.81l1.86-6.97A.974.974,0,0,0,19,35.25Z"></path><path d="M25,11H13a3.009,3.009,0,0,0-3,3V35.72l2.29,3.81a.953.953,0,0,0,.83.48,1.045,1.045,0,0,0,.97-.73l1.15-4.3a3.007,3.007,0,0,1,5.5-.73,3.032,3.032,0,0,1,.3,2.28l-.13.47H22v2H20.37l-.53,2H25a3.009,3.009,0,0,0,3-3V14A3.009,3.009,0,0,0,25,11Zm-9,2h6v2H16Zm-2,6h2v2H14ZM24,29H14V27H24Zm0-4H14V23H24Zm0-4H18V19h6Z"></path></g></svg>