<svg xmlns="http://www.w3.org/2000/svg" viewBox="0 0 64 64" x="0px" y="0px"><g><path d="M39.68,40.29,30,37.26v-.68a4.991,4.991,0,0,0,6.22-1.9A5.058,5.058,0,0,0,38,35a5,5,0,0,0,5-5,4.9,4.9,0,0,0-.33-1.79A4.989,4.989,0,0,0,40,19V17a15,15,0,1,0-30,0v2a4.989,4.989,0,0,0-2.67,9.21A4.9,4.9,0,0,0,7,30a5,5,0,0,0,5,5,5.058,5.058,0,0,0,1.78-.32A4.991,4.991,0,0,0,20,36.58v.68l-9.68,3.03A8.959,8.959,0,0,0,4,48.88V61a1,1,0,0,0,1,1H45a1,1,0,0,0,1-1V48.88A8.959,8.959,0,0,0,39.68,40.29ZM13.97,60a4.756,4.756,0,0,0-.8-2.36A6.794,6.794,0,0,1,12,54a6.609,6.609,0,0,1,1.71-4.29l-1.42-1.42A8.723,8.723,0,0,0,10,54a8.855,8.855,0,0,0,1.52,4.77A2.655,2.655,0,0,1,11.97,60H6V48.88a6.964,6.964,0,0,1,4.91-6.68l7.07-2.21-3.74,4.36a1,1,0,0,0,.05,1.36l2.14,2.13-1.98,1.33a.989.989,0,0,0-.33,1.31L19.32,60ZM20,57.08l-3.68-6.76,2.23-1.49A.989.989,0,0,0,19,48.1a1.046,1.046,0,0,0-.29-.81l-2.35-2.34L20,40.7ZM25,33a9.014,9.014,0,0,1-9-9V17.97a19.161,19.161,0,0,0,11.31-4.31A9.468,9.468,0,0,0,34,16.96V24A9.014,9.014,0,0,1,25,33ZM38,17v3.15a1.014,1.014,0,0,0,.4.8.97.97,0,0,0,.87.16A2.876,2.876,0,0,1,40,21a3.009,3.009,0,0,1,3,3,2.968,2.968,0,0,1-2.02,2.81,1.035,1.035,0,0,0-.62.64.99.99,0,0,0,.13.88A2.964,2.964,0,0,1,41,30a3.009,3.009,0,0,1-3,3,2.911,2.911,0,0,1-1.67-.51,1,1,0,0,0-.87-.12,1.035,1.035,0,0,0-.64.62A2.963,2.963,0,0,1,30,34.21v-.42A11.014,11.014,0,0,0,36,24V16a1,1,0,0,0-1-1,7.75,7.75,0,0,1-6.22-2.71c.15-.16.29-.31.42-.47a15.167,15.167,0,0,0,3.13-5.54A12.975,12.975,0,0,1,38,17ZM20,34.21a2.963,2.963,0,0,1-4.82-1.22,1.035,1.035,0,0,0-.64-.62.993.993,0,0,0-.87.12A2.911,2.911,0,0,1,12,33a3.009,3.009,0,0,1-3-3,2.964,2.964,0,0,1,.51-1.67.99.99,0,0,0,.13-.88,1.035,1.035,0,0,0-.62-.64A2.968,2.968,0,0,1,7,24a3.009,3.009,0,0,1,3-3,2.876,2.876,0,0,1,.73.11.97.97,0,0,0,.87-.16,1.014,1.014,0,0,0,.4-.8V17A12.974,12.974,0,0,1,30.53,5.25a13.332,13.332,0,0,1-2.84,5.26,11.815,11.815,0,0,1-.86.9A17.117,17.117,0,0,1,15,16a1,1,0,0,0-1,1v7a11.014,11.014,0,0,0,6,9.79ZM28,60H22V43.97a4.884,4.884,0,0,0,6,0Zm0-20a3,3,0,0,1-6,0V34.57a10.68,10.68,0,0,0,6,0Zm2,.7,3.64,4.25-2.35,2.34a1.046,1.046,0,0,0-.29.81.989.989,0,0,0,.45.73l2.23,1.49L30,57.08ZM44,60H38.03a2.655,2.655,0,0,1,.45-1.23A8.855,8.855,0,0,0,40,54a8.723,8.723,0,0,0-2.29-5.71l-1.42,1.42A6.609,6.609,0,0,1,38,54a6.723,6.723,0,0,1-1.18,3.64A4.846,4.846,0,0,0,36.03,60H30.68l5.2-9.52a.989.989,0,0,0-.33-1.31l-1.98-1.33,2.14-2.13a1,1,0,0,0,.05-1.36l-3.74-4.36,7.07,2.21A6.964,6.964,0,0,1,44,48.88Z"></path><circle cx="21" cy="21" r="2"></circle><circle cx="29" cy="21" r="2"></circle><path d="M22.872,26.118l-1.4,1.424a5.007,5.007,0,0,0,7.064,0l-1.4-1.424A3.082,3.082,0,0,1,22.872,26.118Z"></path><path d="M59,40H57.97A4.924,4.924,0,0,0,59,37a5,5,0,0,0-10,0,4.924,4.924,0,0,0,1.03,3H49a1,1,0,0,0-1,1v6a1,1,0,0,0,1,1h1V59a3.009,3.009,0,0,0,3,3h2a3.009,3.009,0,0,0,3-3V48h1a1,1,0,0,0,1-1V41A1,1,0,0,0,59,40Zm-5-6a3,3,0,1,1-3,3A3.009,3.009,0,0,1,54,34Zm2,25a1,1,0,0,1-1,1H53a1,1,0,0,1-1-1V48h4Zm2-13H50V42h8Z"></path></g></svg>