<svg xmlns="http://www.w3.org/2000/svg" viewBox="0 0 64 64" x="0px" y="0px"><title>Speech Bubble_50</title><g data-name="Speech Bubble"><path d="M32,2A30,30,0,1,0,62,32,30.034,30.034,0,0,0,32,2Zm0,58A28,28,0,1,1,60,32,28.032,28.032,0,0,1,32,60Z"></path><path d="M13,21v1h2V20H14A1,1,0,0,0,13,21Z"></path><rect x="13" y="23" width="2" height="2"></rect><rect x="13" y="26" width="2" height="2"></rect><rect x="13" y="32" width="2" height="2"></rect><rect x="13" y="35" width="2" height="2"></rect><rect x="13" y="29" width="2" height="2"></rect><path d="M13,39a1,1,0,0,0,1,1h1V38H13Z"></path><rect x="16" y="38" width="2" height="2"></rect><rect x="24" y="38" width="2" height="2"></rect><polygon points="19 38 19 40 21 40 23 40 23 38 21 38 19 38"></polygon><path d="M28.9,38.553A1,1,0,0,0,28,38H27v2h.382l.171.342,1.789-.895Z"></path><rect x="28.334" y="40.677" width="2" height="1.984" transform="translate(-15.538 17.518) rotate(-26.565)"></rect><path d="M32.447,45.658,32,45.882l-.447-.224-.3.6-.6.3.447.894a1,1,0,0,0,1.79,0l.447-.894-.6-.3Z"></path><rect x="33.673" y="40.669" width="1.984" height="2" transform="translate(-18.108 54.04) rotate(-63.435)"></rect><polygon points="32 44.764 31.116 42.996 29.327 43.891 30.214 45.665 31.999 44.773 33.785 45.666 34.672 43.892 32.883 42.997 32 44.764"></polygon><path d="M35.1,38.553l-.447.894,1.789.895L36.618,40H37V38H36A1,1,0,0,0,35.1,38.553Z"></path><rect x="38" y="38" width="2" height="2"></rect><polygon points="41 38 41 40 43 40 45 40 45 38 43 38 41 38"></polygon><rect x="46" y="38" width="2" height="2"></rect><path d="M49,40h1a1,1,0,0,0,1-1V38H49Z"></path><rect x="49" y="35" width="2" height="2"></rect><rect x="49" y="32" width="2" height="2"></rect><rect x="49" y="29" width="2" height="2"></rect><rect x="49" y="23" width="2" height="2"></rect><rect x="49" y="26" width="2" height="2"></rect><path d="M50,20H49v2h2V21A1,1,0,0,0,50,20Z"></path><rect x="22" y="20" width="2" height="2"></rect><rect x="25" y="20" width="2" height="2"></rect><rect x="28" y="20" width="2" height="2"></rect><rect x="46" y="20" width="2" height="2"></rect><rect x="34" y="20" width="2" height="2"></rect><rect x="31" y="20" width="2" height="2"></rect><rect x="43" y="20" width="2" height="2"></rect><rect x="16" y="20" width="2" height="2"></rect><rect x="40" y="20" width="2" height="2"></rect><rect x="19" y="20" width="2" height="2"></rect><rect x="37" y="20" width="2" height="2"></rect></g></svg>