<svg xmlns="http://www.w3.org/2000/svg" viewBox="0 0 64 64" x="0px" y="0px"><g data-name="Computer-Banking-Online-Online Banking-Financial"><path d="M53,10H51v2h2a3,3,0,0,1,3,3V40H8V15a3,3,0,0,1,3-3h2V10H11a5.006,5.006,0,0,0-5,5V45a5.006,5.006,0,0,0,5,5H23.867l-.75,6H22a3,3,0,0,0,0,6H42a3,3,0,0,0,0-6H40.883l-.75-6H53a5.006,5.006,0,0,0,5-5V15A5.006,5.006,0,0,0,53,10ZM43,59a1,1,0,0,1-1,1H22a1,1,0,0,1,0-2H42A1,1,0,0,1,43,59Zm-4.133-3H25.133l.75-6H38.117ZM53,48H11a3,3,0,0,1-3-3V42H56v3A3,3,0,0,1,53,48Z"></path><rect x="50" y="44" width="2" height="2"></rect><path d="M32,5a3,3,0,1,0,3,3A3,3,0,0,0,32,5Zm0,4a1,1,0,1,1,1-1A1,1,0,0,1,32,9Z"></path><path d="M16,36H48a1,1,0,0,0,1-1V31a1,1,0,0,0-1-1H46V27a1,1,0,0,0-1-1V18a1,1,0,0,0,1-1V14h2a1,1,0,0,0,1-1V8a1,1,0,0,0-.7-.955l-16-5a1.009,1.009,0,0,0-.6,0l-16,5A1,1,0,0,0,15,8v5a1,1,0,0,0,1,1h2v3a1,1,0,0,0,1,1v8a1,1,0,0,0-1,1v3H16a1,1,0,0,0-1,1v4A1,1,0,0,0,16,36Zm24-6V28h4v2ZM25,26V18a1,1,0,0,0,1-1V14H38v3a1,1,0,0,0,1,1v8a1,1,0,0,0-1,1v3H26V27A1,1,0,0,0,25,26Zm18,0H41V18h2Zm1-10H40V14h4ZM17,8.735,32,4.048,47,8.735V12H17ZM24,14v2H20V14Zm-3,4h2v8H21ZM20,28h4v2H20Zm-3,4H47v2H17Z"></path><path d="M33,25H31a1,1,0,0,1-1-1H28a3,3,0,0,0,3,3v1h2V27a3,3,0,0,0,0-6H31a1,1,0,0,1,0-2h2a1,1,0,0,1,1,1h2a3,3,0,0,0-3-3V16H31v1a3,3,0,0,0,0,6h2a1,1,0,0,1,0,2Z"></path></g></svg>