<svg xmlns="http://www.w3.org/2000/svg" viewBox="0 0 64 64" x="0px" y="0px"><g><path d="M48,36a1,1,0,0,0,0-2H22a3,3,0,0,1,0-6H42a1,1,0,0,1,0,2H22a1,1,0,0,0,0,2H46a3,3,0,0,0,0-6H20a5,5,0,0,0,0,10Z"></path><path d="M44,54a1,1,0,0,0,1-1V49a1,1,0,0,0-2,0v4A1,1,0,0,0,44,54Z"></path><path d="M32,54a1,1,0,0,0,1-1V49a1,1,0,0,0-2,0v4A1,1,0,0,0,32,54Z"></path><path d="M60,39a1,1,0,0,0-1-1H5a1,1,0,0,0,0,2H59A1,1,0,0,0,60,39Z"></path><path d="M20,54a1,1,0,0,0,1-1V49a1,1,0,0,0-2,0v4A1,1,0,0,0,20,54Z"></path><path d="M10.669,60H53.331a1,1,0,0,0,.984-.822L57.778,42H6.222l3.46,17.16A1.006,1.006,0,0,0,10.669,60ZM41,49a3,3,0,0,1,6,0v4a3,3,0,0,1-6,0ZM29,49a3,3,0,0,1,6,0v4a3,3,0,0,1-6,0ZM17,49a3,3,0,0,1,6,0v4a3,3,0,0,1-6,0Z"></path><path d="M40,24a5,5,0,0,0,0-10H22a3,3,0,0,0,0,6H40a1,1,0,0,0,0-2H23a1,1,0,0,1,0-2H40a3,3,0,0,1,0,6H20a1,1,0,0,0,0,2Z"></path><path d="M40.839,6.215A2,2,0,0,0,39,5H25a2,2,0,0,0-1.839,1.215A21.016,21.016,0,0,0,5,27v9H7V27A19.014,19.014,0,0,1,23.408,8.2,1.99,1.99,0,0,0,25,9H39a1.99,1.99,0,0,0,1.592-.8A19.014,19.014,0,0,1,57,27v9h2V27A21.016,21.016,0,0,0,40.839,6.215Z"></path></g></svg>