<svg xmlns="http://www.w3.org/2000/svg" viewBox="0 0 64 64" x="0px" y="0px"><g><rect x="2" y="49" width="60" height="2"></rect><rect x="10" y="19" width="12" height="2"></rect><rect x="6" y="15" width="12" height="2"></rect><rect x="2" y="15" width="2" height="2"></rect><path d="M45.82,45H48V43H43A3.01,3.01,0,0,1,45.82,45Z"></path><rect x="32" y="35" width="4" height="2"></rect><rect x="32" y="39" width="4" height="2"></rect><rect x="32" y="27" width="4" height="2"></rect><rect x="32" y="31" width="4" height="2"></rect><path d="M34,45h1.18A3.01,3.01,0,0,1,38,43H34Z"></path><path d="M57.82,45H60V40.56L57.49,39H54a1,1,0,0,1-1-1V33H50V45h2.18a2.988,2.988,0,0,1,5.64,0Z"></path><path d="M40.5,44.35A3.009,3.009,0,0,1,43,43H38A3.009,3.009,0,0,1,40.5,44.35Z"></path><rect x="55" y="33" width="2" height="4"></rect><path d="M16,35a1,1,0,0,0,2,0,7.462,7.462,0,0,0-1-2.147A7.457,7.457,0,0,0,16,35Z"></path><path d="M39,27H38V41h1a5,5,0,0,0,5-5V32A5,5,0,0,0,39,27Z"></path><path d="M26,27V25H22v2H9a5,5,0,0,0-5,5v4a5,5,0,0,0,5,5H30V27ZM17,38a3,3,0,0,1-3-3c0-1.278,1.522-3.62,2.177-4.568a1.038,1.038,0,0,1,1.646,0C18.478,31.38,20,33.722,20,35A3,3,0,0,1,17,38Z"></path><path d="M23.82,45H25V43H21A3.01,3.01,0,0,1,23.82,45Z"></path><path d="M7,45H8.18A3.01,3.01,0,0,1,11,43H7Z"></path><path d="M18.5,44.35A3.009,3.009,0,0,1,21,43H16A3.009,3.009,0,0,1,18.5,44.35Z"></path><path d="M13.5,44.35A3.009,3.009,0,0,1,16,43H11A3.009,3.009,0,0,1,13.5,44.35Z"></path><circle cx="11" cy="47" r="2"></circle><circle cx="16" cy="47" r="2"></circle><circle cx="21" cy="47" r="2"></circle><circle cx="38" cy="47" r="2"></circle><circle cx="43" cy="47" r="2"></circle><circle cx="55" cy="47" r="2"></circle><rect x="30" y="25" width="2" height="2"></rect><rect x="36" y="25" width="2" height="2"></rect><rect x="36" y="41" width="2" height="2"></rect><rect x="30" y="41" width="2" height="2"></rect></g></svg>