<svg xmlns="http://www.w3.org/2000/svg" viewBox="0 0 64 64" x="0px" y="0px"><g data-name="Mobile App-Browser-Smartphone-Taxi-Technology"><polygon points="54.37 56 47.62 50 22.41 50 16.41 56 54.37 56"></polygon><rect x="8" y="58" width="48" height="2"></rect><polygon points="9.63 56 13.59 56 19.59 50 16.38 50 9.63 56"></polygon><rect x="36" y="32" width="2" height="2"></rect><rect x="26" y="32" width="2" height="2"></rect><rect x="30" y="16" width="4" height="2"></rect><polygon points="35.382 20 35 20 29 20 28.618 20 26.618 24 37.382 24 35.382 20"></polygon><path d="M13,10H51V5a1,1,0,0,0-1-1H14a1,1,0,0,0-1,1ZM23,6h2V8H23ZM19,6h2V8H19ZM15,6h2V8H15Z"></path><path d="M14,38H28a1,1,0,0,1,.83.45L32,43.2l3.17-4.75A1,1,0,0,1,36,38H50a1,1,0,0,0,1-1V12H13V37A1,1,0,0,0,14,38Zm8-11a2.989,2.989,0,0,1,1.571-2.621L23.382,24H22V22h2a1,1,0,0,1,.895.553l.105.211,2.105-4.211A1,1,0,0,1,28,18V15a1,1,0,0,1,1-1h6a1,1,0,0,1,1,1v3a1,1,0,0,1,.9.553L39,22.764l.1-.211A1,1,0,0,1,40,22h2v2H40.618l-.189.379A2.989,2.989,0,0,1,42,27v2a3,3,0,0,1-2,2.816V34a2,2,0,0,1-2,2H36a2,2,0,0,1-2-2V32H30v2a2,2,0,0,1-2,2H26a2,2,0,0,1-2-2V31.816A3,3,0,0,1,22,29Z"></path><path d="M25,30H39a1,1,0,0,0,1-1V27a1,1,0,0,0-1-1H25a1,1,0,0,0-1,1v2A1,1,0,0,0,25,30Zm11-3h2v2H36ZM26,27h2v2H26Z"></path></g></svg>