<svg xmlns="http://www.w3.org/2000/svg" viewBox="0 0 64 64" x="0px" y="0px"><g data-name="Website Programming"><path d="M49,4H25a1,1,0,0,0-1,1V8H50V5A1,1,0,0,0,49,4ZM28,7H26V5h2Zm3,0H29V5h2Zm3,0H32V5h2Z"></path><path d="M49,28a1,1,0,0,0,1-1V10H24v9H39a3,3,0,0,1,3,3v6Z"></path><path d="M5,53H39a1,1,0,0,0,1-1V27H4V52A1,1,0,0,0,5,53Zm21-2H22V49h4ZM14,43V41h6v2Zm2,2v2H12V45Zm2,0h4v2H18Zm4-2V41h8v2Zm6,2v2H24V45Zm4,6H28V49h4ZM27.293,31.707l1.414-1.414,3,3a1,1,0,0,1,0,1.414l-3,3-1.414-1.414L29.586,34Zm-4.222-3.078,1.858.742-4,10-1.858-.742ZM12.293,33.293l3-3,1.414,1.414L14.414,34l2.293,2.293-1.414,1.414-3-3A1,1,0,0,1,12.293,33.293ZM10,41h2v2H10ZM8,49H20v2H8Z"></path><path d="M60,40V37a1,1,0,0,0-1-1H42v4Z"></path><path d="M35,60H59a1,1,0,0,0,1-1V42H42V52a3,3,0,0,1-3,3H34v4A1,1,0,0,0,35,60Z"></path><path d="M4,22v3H40V22a1,1,0,0,0-1-1H5A1,1,0,0,0,4,22Zm10,0h2v2H14Zm-4,0h2v2H10ZM6,22H8v2H6Z"></path></g></svg>