<svg xmlns="http://www.w3.org/2000/svg" viewBox="0 0 64 64" x="0px" y="0px"><g data-name="Business Protect"><path d="M31,43.722V46h2V43.722a2,2,0,1,0-2,0Z"></path><path d="M57,35V30.723l1.5-.855A1,1,0,0,0,59,29V15a1,1,0,0,0-1-1H42V7a1,1,0,0,0-1-1H23a1,1,0,0,0-1,1v7H6a1,1,0,0,0-1,1V29a1,1,0,0,0,.5.868l1.5.855V35A5,5,0,0,0,7,45V55a3,3,0,0,0,3,3H54a3,3,0,0,0,3-3V45a5,5,0,0,0,0-10Zm-2,8H40V37a1,1,0,0,0-1-1H38V34H51a1,1,0,0,0,.5-.132l3.5-2ZM36,34v2H28V34Zm-7.816-2A3,3,0,0,1,31,30h2a3,3,0,0,1,2.816,2ZM38,38v9a1,1,0,0,1-1,1H27a1,1,0,0,1-1-1V38ZM40,8V9H24V8ZM24,11H40v3H24ZM7,16H57V28.42L50.734,32H37.9A5.009,5.009,0,0,0,33,28H31a5.009,5.009,0,0,0-4.9,4H13.266L7,28.42Zm5.5,17.868A1,1,0,0,0,13,34H26v2H25a1,1,0,0,0-1,1v6H9V31.866ZM4,40a2.994,2.994,0,0,1,3-3v6A3,3,0,0,1,4,40ZM55,55a1,1,0,0,1-1,1H10a1,1,0,0,1-1-1V45H24v2a3,3,0,0,0,3,3H37a3,3,0,0,0,3-3V45H55Zm4.128-12.882A3.018,3.018,0,0,1,57,43V37a3,3,0,0,1,2.128,5.118Z"></path></g></svg>