<svg xmlns="http://www.w3.org/2000/svg" viewBox="0 0 64 64" x="0px" y="0px"><g><path d="M60,56H54.106a1,1,0,0,1-.708-.294L37.315,36.931A3.01,3.01,0,0,0,35.144,36H30V22h1a1,1,0,0,0,.789-1.614l-14-18a1.035,1.035,0,0,0-1.578,0l-14,18A1,1,0,0,0,3,22H4V41a1,1,0,0,0,1,1H6V61a1,1,0,0,0,1,1H27a1,1,0,0,0,1-1V42h4.894a.979.979,0,0,1,.687.271l16.1,18.8A3.01,3.01,0,0,0,51.856,62H60a2,2,0,0,0,2-2V58A2,2,0,0,0,60,56ZM17,4.629,28.955,20H5.045ZM28,22V40H25V33A8,8,0,0,0,9,33v7H6V22ZM11,40V33a6,6,0,0,1,12,0v7ZM8,42h2V60H8Zm4,0H22V60H12ZM26,60H24V42h2Zm34,0H51.856a.979.979,0,0,1-.687-.271l-16.1-18.8A3.01,3.01,0,0,0,32.894,40H30V38h5.144a.979.979,0,0,1,.687.271L51.9,57.03l.036.039A3.01,3.01,0,0,0,54.106,58H60Z"></path></g></svg>