<svg xmlns="http://www.w3.org/2000/svg" viewBox="0 0 64 64" x="0px" y="0px"><g data-name="Smart Blender-Internet of Things-Smartphone-Household-Control"><path d="M55,6H52V5a3.009,3.009,0,0,0-3-3H31a3.009,3.009,0,0,0-3,3V6H25a2,2,0,0,0-1.6,3.2L28,15.33V20H16a5,5,0,0,0-5,5V39.75L7.02,44.23a11.059,11.059,0,0,0-2.76,7.99l.62,9.84,2-.12L6.26,52.1a9.055,9.055,0,0,1,2.26-6.55L11,42.76v8.17l-.33.57,1.73,1,3-5.2a1.01,1.01,0,0,1,.61-.46.963.963,0,0,1,.76.1,1,1,0,0,1,.36,1.36l-3,5.2a.994.994,0,0,0,.04,1.05l.89,1.34a5.624,5.624,0,0,1,.33,5.66l1.78.9A7.661,7.661,0,0,0,18,59a7.505,7.505,0,0,0-.63-3H25v1a1,1,0,0,0,1,1H54a1,1,0,0,0,1-1V53a1,1,0,0,0-1-1H53V43.36a10.929,10.929,0,0,0-1.17-4.92l-1.94-3.89A.977.977,0,0,0,49,34V32a1,1,0,0,0,.97-.76L51.78,24H55a5,5,0,0,0,5-5V11A5,5,0,0,0,55,6ZM25,8h3v4ZM13,25a3.009,3.009,0,0,1,3-3H30a3.009,3.009,0,0,1,3,3v1H13Zm2.49,19.91A2.933,2.933,0,0,0,13.89,46H13V28H33V46H18.66a2.931,2.931,0,0,0-.89-.79A2.981,2.981,0,0,0,15.49,44.91ZM16.2,54l-.02-.04,2.69-4.66a3.007,3.007,0,0,0,.38-1.3H33v3a3.009,3.009,0,0,1-3,3ZM53,54v2H30a4.952,4.952,0,0,0,3.97-2ZM50.05,39.34A9.036,9.036,0,0,1,51,43.36V52H34.9a5.468,5.468,0,0,0,.1-1V49H46a1,1,0,0,0,1-1V40a1,1,0,0,0-1-1H35V36H48.38ZM35,47V41H45v6Zm0-13V32H47v2ZM50,22.88,48.22,30H35V25a5,5,0,0,0-5-5V8H50ZM50,6H30V5a1,1,0,0,1,1-1H49a1,1,0,0,1,1,1Zm2,6h2v6H52Zm6,7a3.009,3.009,0,0,1-3,3H52V20h2a2.006,2.006,0,0,0,2-2V12a2.006,2.006,0,0,0-2-2H52V8h3a3.009,3.009,0,0,1,3,3Z"></path><rect x="37" y="12" width="6" height="2"></rect><rect x="37" y="16" width="6" height="2"></rect><rect x="37" y="20" width="6" height="2"></rect><rect x="37" y="24" width="6" height="2"></rect><rect x="37" y="43" width="2" height="2"></rect><rect x="41" y="43" width="2" height="2"></rect><rect x="22" y="50" width="2" height="2"></rect><path d="M19.465,37.465l1.414,1.414a3.072,3.072,0,0,1,4.242,0l1.414-1.414a5,5,0,0,0-7.07,0Z"></path><path d="M27.95,36.05l1.414-1.414a9.012,9.012,0,0,0-12.728,0L18.05,36.05A7.009,7.009,0,0,1,27.95,36.05Z"></path><path d="M21.586,40.586,23,42l1.414-1.414A2,2,0,0,0,21.586,40.586Z"></path></g></svg>