<svg xmlns="http://www.w3.org/2000/svg" viewBox="0 0 64 64" x="0px" y="0px"><g data-name="Data Connection"><rect x="31" y="38" width="2" height="2"></rect><rect x="35" y="38" width="2" height="2"></rect><rect x="27" y="38" width="2" height="2"></rect><rect x="10" y="14" width="2" height="2"></rect><rect x="14" y="14" width="2" height="2"></rect><rect x="6" y="14" width="2" height="2"></rect><rect x="50" y="6" width="2" height="2"></rect><rect x="46" y="28" width="10" height="2"></rect><path d="M53,37a2,2,0,0,0,2-2V34h4a3,3,0,0,0,3-3V5a3,3,0,0,0-3-3H43a3,3,0,0,0-3,3V30H21a3,3,0,0,0-3,3V48.818L17.182,51H5a1,1,0,0,1-1-1V38a1,1,0,0,1,1-1H9a3,3,0,0,0,3-3V31h1a2,2,0,0,0,2-2V28h2a3,3,0,0,0,3-3V5a3,3,0,0,0-3-3H5A3,3,0,0,0,2,5V25a3,3,0,0,0,3,3H7v1a2,2,0,0,0,2,2h1v3a1,1,0,0,1-1,1H5a3,3,0,0,0-3,3V50a3,3,0,0,0,3,3H16.432l-1.369,3.649A1,1,0,0,0,15,57v3a2,2,0,0,0,2,2H47a2,2,0,0,0,2-2V57a1,1,0,0,0-.063-.351L48.318,55H59a3,3,0,0,0,3-3V44a3,3,0,0,0-3-3H53a1,1,0,0,1-1-1V37ZM9,4h4V5H9ZM4,25V5A1,1,0,0,1,5,4H7V5A2,2,0,0,0,9,7h4a2,2,0,0,0,2-2V4h2a1,1,0,0,1,1,1V25a1,1,0,0,1-1,1H5A1,1,0,0,1,4,25Zm5,3h4v1H9Zm44,7H49V34h4ZM42,5a1,1,0,0,1,1-1H59a1,1,0,0,1,1,1V31a1,1,0,0,1-1,1H45.816A3,3,0,0,0,43,30H42ZM37.781,56l-.811-3.243A1,1,0,0,0,36,52H28a1,1,0,0,0-.97.757L26.219,56H17.443l2.25-6H44.307l2.25,6Zm-2.062,0H28.281l.5-2h6.438ZM20,33a1,1,0,0,1,1-1H43a1,1,0,0,1,1,1V48H20ZM17,60V58H47v2ZM53,43h6a1,1,0,0,1,1,1v8a1,1,0,0,1-1,1H47.568L46,48.818V34h1v1a2,2,0,0,0,2,2h1v3A3,3,0,0,0,53,43Z"></path><rect x="50" y="17" width="2" height="2"></rect><rect x="54" y="17" width="2" height="2"></rect><rect x="46" y="17" width="2" height="2"></rect><rect x="22" y="13" width="2" height="2"></rect><path d="M30,20h2V14a1,1,0,0,0-1-1H26v2h4Z"></path><rect x="30" y="22" width="2" height="2"></rect><rect x="30" y="26" width="2" height="2"></rect><path d="M36,19h2V17H35a1,1,0,0,0-1,1v6h2Z"></path><rect x="34" y="26" width="2" height="2"></rect></g></svg>