<svg xmlns="http://www.w3.org/2000/svg" viewBox="0 0 64 64" x="0px" y="0px"><title>Vaccuum Cleaner</title><g data-name="Vaccuum Cleaner"><path d="M29,45h6V27H29Zm2-16h2V43H31Z"></path><path d="M57,31a3,3,0,1,0-4,2.816V44a1,1,0,0,1-1,1H48a1,1,0,0,1-1-1V26a3,3,0,0,0-3-3H38V21H35V8H33V4h7V2H24V4h7V8H29V21H26V49H23.814L18,54.583V56H15v6H49V56H46V54.567L40.2,49H38V25h6a1,1,0,0,1,1,1V44a3,3,0,0,0,3,3h4a3,3,0,0,0,3-3V33.816A3,3,0,0,0,57,31ZM31,10h2V21H31ZM47,58v2H17V58Zm-7.6-7L44,55.419V56H20v-.565L24.619,51ZM28,49V23h8V49ZM54,32a1,1,0,1,1,1-1A1,1,0,0,1,54,32Z"></path></g></svg>