<svg xmlns="http://www.w3.org/2000/svg" viewBox="0 0 64 64" x="0px" y="0px"><g><path d="M57,31c0-3.322-2.419-6.223-6-7.782V7a5.006,5.006,0,0,0-5-5H18a5.006,5.006,0,0,0-5,5V17.218C9.419,18.777,7,21.678,7,25s2.417,6.231,6,7.79V57a5.006,5.006,0,0,0,5,5H46a5.006,5.006,0,0,0,5-5V38.79C54.583,37.231,57,34.324,57,31ZM25,4H39V5a1,1,0,0,1-1,1H26a1,1,0,0,1-1-1ZM9,25c0-3.86,4.486-7,10-7s10,3.14,10,7c0,2.812-2.521,5.417-6.273,6.484a1,1,0,0,0-.727.962v2.14l-2.293-2.293A1,1,0,0,0,19,32C13.486,32,9,28.86,9,25ZM49,57a3,3,0,0,1-3,3H18a3,3,0,0,1-3-3V33.481a15.508,15.508,0,0,0,3.581.514l3.712,3.712A1,1,0,0,0,24,37V33.182c4.277-1.457,7-4.608,7-8.182,0-4.962-5.383-9-12-9a15.525,15.525,0,0,0-4,.525V7a3,3,0,0,1,3-3h5V5a3,3,0,0,0,3,3H38a3,3,0,0,0,3-3V4h5a3,3,0,0,1,3,3V22.525A15.525,15.525,0,0,0,45,22c-6.617,0-12,4.038-12,9,0,3.574,2.723,6.725,7,8.182V43a1,1,0,0,0,1.707.707l3.712-3.712A15.508,15.508,0,0,0,49,39.481ZM45,38a1,1,0,0,0-.707.293L42,40.586v-2.14a1,1,0,0,0-.727-.962C37.521,36.417,35,33.812,35,31c0-3.86,4.486-7,10-7s10,3.14,10,7S50.514,38,45,38Z"></path><rect x="12" y="22" width="14" height="2"></rect><rect x="12" y="26" width="14" height="2"></rect><rect x="38" y="28" width="14" height="2"></rect><rect x="38" y="32" width="14" height="2"></rect><rect x="33" y="50" width="2" height="2"></rect><rect x="37" y="50" width="2" height="2"></rect><rect x="29" y="50" width="2" height="2"></rect><rect x="25" y="50" width="2" height="2"></rect></g></svg>