<svg xmlns="http://www.w3.org/2000/svg" viewBox="0 0 64 64" x="0px" y="0px"><g data-name="Cloud-Download-Arrow Down-Cloud Computing-Data"><path d="M32,32A14,14,0,1,0,46,46,14.015,14.015,0,0,0,32,32Zm4.707,18.707-4,4a1,1,0,0,1-1.414,0l-4-4A1,1,0,0,1,28,49h1V38h2V50a1,1,0,0,1-.649.937L32,52.586l1.649-1.649A1,1,0,0,1,33,50V38h2V49h1a1,1,0,0,1,.707,1.707Z"></path><path d="M50.825,20.166a1,1,0,0,1-.835-.986c0-.028.006-.144.009-.171A8.01,8.01,0,0,0,42,11a7.832,7.832,0,0,0-2.35.354,1,1,0,0,1-1.181-.481A13,13,0,0,0,14,17a12.75,12.75,0,0,0,.168,2,1,1,0,0,1-.837,1.144A10.994,10.994,0,0,0,15,42h1.527a15.976,15.976,0,0,1,30.946,0H49a10.993,10.993,0,0,0,1.825-21.834ZM27,9a8.009,8.009,0,0,0-8,8H17A10.011,10.011,0,0,1,27,7ZM49,39V37a6.006,6.006,0,0,0,6-6h2A8.009,8.009,0,0,1,49,39Z"></path></g></svg>