<svg xmlns="http://www.w3.org/2000/svg" viewBox="0 0 64 64" x="0px" y="0px"><g><path d="M11.414,56H52.586l-4-4H15.414ZM46,53h2v2H46Zm-4,0h2v2H42ZM24,53H40v2H24Zm-4,0h2v2H20Zm-4,0h2v2H16Z"></path><rect x="10" y="58" width="44" height="2"></rect><path d="M19,50H17V48a1,1,0,0,0-1-1H10a3,3,0,0,1,0-6h6a1,1,0,0,0,1-1V38h2v2a3,3,0,0,1-3,3H10a1,1,0,0,0,0,2h6a3,3,0,0,1,3,3Z"></path><path d="M32,18.066l4.312-4.313a2,2,0,0,0,0-2.826,2.051,2.051,0,0,0-2.825,0l-.78.78a1,1,0,0,1-1.414,0l-.78-.78A1.986,1.986,0,0,0,29.1,10.34a2.012,2.012,0,0,0-1.412.586,2,2,0,0,0,0,2.827Z"></path><path d="M53,9V30H11V9a1,1,0,0,1,1-1h9.63A12,12,0,1,0,42.37,8H52A1,1,0,0,1,53,9Z"></path><path d="M11,35a1,1,0,0,0,1,1H52a1,1,0,0,0,1-1V32H11Zm36-2h2v2H47Z"></path><path d="M32,24A10,10,0,1,0,22,14,10.011,10.011,0,0,0,32,24ZM26.273,9.513A4.026,4.026,0,0,1,29.1,8.34a3.971,3.971,0,0,1,2.827,1.173L32,9.586l.073-.073A3.971,3.971,0,0,1,34.9,8.34a4.027,4.027,0,0,1,2.828,1.174,4,4,0,0,1,0,5.653l-5.02,5.021a1,1,0,0,1-1.414,0l-5.02-5.021a4,4,0,0,1,0-5.654Z"></path><rect x="23" y="44" width="18" height="2"></rect><rect x="28" y="38" width="8" height="4"></rect></g></svg>