<svg xmlns="http://www.w3.org/2000/svg" viewBox="0 0 64 64" x="0px" y="0px"><g data-name="Smart Car-Internet of Things-Car-Control-Internet"><path d="M61,38a1,1,0,0,0,1-1V33a1,1,0,0,0-1-1H55.77L52.23,18.73a3,3,0,1,0-2.46,0L46.23,32H36a1,1,0,0,0-1,1v4a1,1,0,0,0,1,1h1V52H26V49.82A3.01,3.01,0,0,0,28,47V45a2.994,2.994,0,0,0-1.57-2.62l.19-.38H28V40H26a.988.988,0,0,0-.89.55l-.11.21-2.11-4.21A.988.988,0,0,0,22,36H12a.988.988,0,0,0-.89.55L9,40.76l-.11-.21A.988.988,0,0,0,8,40H6v2H7.38l.19.38A2.994,2.994,0,0,0,6,45v2a3.01,3.01,0,0,0,2,2.82V52H2v2H62V52H60V38ZM12.62,38h8.76l2,4H10.62ZM12,52H10V50h2Zm8,0H14V50h6Zm4,0H22V50h2Zm1-4H9a1,1,0,0,1-1-1V45a1,1,0,0,1,1-1H25a1,1,0,0,1,1,1v2A1,1,0,0,1,25,48ZM51,15a1,1,0,1,1-1,1A1,1,0,0,1,51,15Zm.57,9H50.43L51,21.88ZM49.9,26h2.2l.53,2H49.37Zm-1.07,4h4.34l.53,2H48.3ZM46,52H43V44h3Zm12,0H48V43a1,1,0,0,0-1-1H42a1,1,0,0,0-1,1v9H39V38H58ZM37,36V34H60v2Z"></path><path d="M51,50h4a1,1,0,0,0,1-1V43a1,1,0,0,0-1-1H51a1,1,0,0,0-1,1v6A1,1,0,0,0,51,50Zm1-6h2v4H52Z"></path><path d="M46.051,20.949l1.414-1.414a5,5,0,0,1,0-7.07l-1.414-1.414a7,7,0,0,0,0,9.9Z"></path><path d="M55.949,20.949a7,7,0,0,0,0-9.9l-1.414,1.414a5,5,0,0,1,0,7.07Z"></path><path d="M44.636,22.364a9.01,9.01,0,0,1,0-12.728L43.222,8.222a11.012,11.012,0,0,0,0,15.556Z"></path><path d="M57.364,22.364l1.414,1.414a11.012,11.012,0,0,0,0-15.556L57.364,9.636A9.01,9.01,0,0,1,57.364,22.364Z"></path><rect x="10" y="45" width="2" height="2"></rect><rect x="22" y="45" width="2" height="2"></rect><path d="M20.535,29.465a5,5,0,0,0-7.07,0l1.414,1.414a3.072,3.072,0,0,1,4.242,0Z"></path><path d="M21.95,28.05l1.414-1.414a9.012,9.012,0,0,0-12.728,0L12.05,28.05A7.009,7.009,0,0,1,21.95,28.05Z"></path><path d="M15.586,32.586,17,34l1.414-1.414A2,2,0,0,0,15.586,32.586Z"></path></g></svg>