<svg xmlns="http://www.w3.org/2000/svg" viewBox="0 0 64 64" x="0px" y="0px"><g data-name="Coffee Pot"><path d="M56,38H49V36h6V22H49V20h7a1,1,0,0,1,1,1V37A1,1,0,0,1,56,38Z"></path><path d="M25,22V40H39V22Zm4,16H27V36h2Zm0-4H27V32h2Zm0-4H27V28h2Zm0-4H27V24h2Zm4,12H31V36h2Zm0-4H31V32h2Zm0-4H31V28h2Zm0-4H31V24h2Zm4,12H35V36h2Zm0-4H35V32h2Zm0-4H35V28h2Zm0-4H35V24h2Z"></path><path d="M41.6,48.36a6.462,6.462,0,0,0-2.831.569,8.435,8.435,0,0,1-3.574.711,8.418,8.418,0,0,1-3.57-.711,6.456,6.456,0,0,0-2.829-.569,6.452,6.452,0,0,0-2.825.568,8.407,8.407,0,0,1-3.57.712,8.412,8.412,0,0,1-3.569-.711A6.576,6.576,0,0,0,17,48.416V60H47V49.593a8.432,8.432,0,0,1-2.573-.664A6.465,6.465,0,0,0,41.6,48.36Z"></path><polygon points="15 22 9.868 22 15 29.697 15 22"></polygon><path d="M47,22H41V41a1,1,0,0,1-1,1H24a1,1,0,0,1-1-1V22H17V46.408a8.368,8.368,0,0,1,2.571.664,6.457,6.457,0,0,0,2.826.568,6.453,6.453,0,0,0,2.826-.568,8.4,8.4,0,0,1,3.569-.712,8.4,8.4,0,0,1,3.571.712,7.326,7.326,0,0,0,5.659,0,9.336,9.336,0,0,1,7.147,0A6.554,6.554,0,0,0,47,47.584Z"></path><rect x="30" y="4" width="4" height="2"></rect><rect x="17" y="16" width="30" height="4"></rect><path d="M46.929,14A7.011,7.011,0,0,0,40,8H24a7.011,7.011,0,0,0-6.929,6Z"></path></g></svg>