<svg xmlns="http://www.w3.org/2000/svg" viewBox="0 0 64 64" x="0px" y="0px"><g data-name="Smart Refrigerator-Internet of Things-App-Smartphone-Refrigerator"><path d="M38,26.1V24H8V55a1,1,0,0,0,1,1H34V31A5.017,5.017,0,0,1,38,26.1ZM16,41a3,3,0,0,1-6,0V35a3,3,0,0,1,6,0Z"></path><path d="M32.78,60H35v-.03A4.992,4.992,0,0,1,34.1,58H32.28Z"></path><path d="M30,10H16v6H30ZM20,14H18V12h2Zm4,0H22V12h2Zm4,0H26V12h2Z"></path><polygon points="13.22 60 13.72 58 11 58 11 60 13.22 60"></polygon><path d="M56,54H36v3a3.009,3.009,0,0,0,3,3H53a3.009,3.009,0,0,0,3-3Zm-9,4H45V56h2Z"></path><path d="M13,34a1,1,0,0,0-1,1v6a1,1,0,0,0,2,0V35A1,1,0,0,0,13,34Z"></path><path d="M56,34H36V52H56ZM46,48l-1.414-1.414a2,2,0,0,1,2.828,0Zm2.121-3.121a3.072,3.072,0,0,0-4.242,0l-1.414-1.414a5,5,0,0,1,7.07,0ZM50.95,42.05a7.009,7.009,0,0,0-9.9,0l-1.414-1.414a9.012,9.012,0,0,1,12.728,0Z"></path><path d="M56,31a3.009,3.009,0,0,0-3-3H39a3.009,3.009,0,0,0-3,3v1H56Z"></path><path d="M8,22H38V5a1,1,0,0,0-1-1H9A1,1,0,0,0,8,5ZM14,9a1,1,0,0,1,1-1H31a1,1,0,0,1,1,1v8a1,1,0,0,1-1,1H15a1,1,0,0,1-1-1Z"></path></g></svg>