<svg xmlns="http://www.w3.org/2000/svg" viewBox="0 0 64 64" x="0px" y="0px"><g data-name="Discount Badge"><path d="M59.141,27.69c-.975-.818-1.984-1.664-2.175-2.381-.207-.772.254-2.049.7-3.283.645-1.784,1.312-3.63.455-5.11-.87-1.5-2.82-1.848-4.7-2.181-1.277-.226-2.6-.459-3.145-1.006s-.781-1.869-1.006-3.146c-.334-1.885-.679-3.835-2.182-4.7-1.479-.857-3.326-.189-5.11.455-1.234.447-2.51.907-3.283.7-.717-.192-1.563-1.2-2.381-2.176C35.064,3.375,33.776,1.84,32,1.84s-3.064,1.535-4.31,3.019c-.818.975-1.664,1.984-2.381,2.175-.772.206-2.049-.255-3.283-.7-1.785-.645-3.632-1.311-5.11-.455-1.5.87-1.848,2.82-2.181,4.705-.226,1.277-.459,2.6-1.006,3.145s-1.869.781-3.146,1.006c-1.885.334-3.835.679-4.7,2.182-.857,1.48-.19,3.326.455,5.11.447,1.234.908,2.511.7,3.283-.192.717-1.2,1.563-2.176,2.381C3.375,28.936,1.84,30.224,1.84,32s1.535,3.064,3.019,4.31c.975.818,1.984,1.664,2.175,2.381.207.772-.254,2.049-.7,3.283-.645,1.784-1.312,3.63-.455,5.11.87,1.5,2.82,1.848,4.705,2.181,1.277.226,2.6.459,3.145,1.006s.781,1.869,1.006,3.146c.334,1.885.679,3.835,2.182,4.7,1.479.857,3.326.189,5.11-.455,1.235-.446,2.514-.906,3.283-.7.717.192,1.563,1.2,2.381,2.176,1.246,1.484,2.534,3.019,4.31,3.019s3.064-1.535,4.31-3.019c.818-.975,1.664-1.984,2.381-2.175.77-.208,2.048.254,3.283.7,1.784.644,3.63,1.31,5.11.455,1.5-.87,1.848-2.82,2.181-4.7.226-1.277.459-2.6,1.006-3.145s1.869-.781,3.146-1.006c1.885-.334,3.835-.679,4.7-2.182.857-1.48.19-3.326-.455-5.11-.447-1.234-.908-2.511-.7-3.283.192-.717,1.2-1.563,2.176-2.381,1.484-1.246,3.019-2.534,3.019-4.31S60.625,28.936,59.141,27.69Zm-1.286,7.088c-1.213,1.017-2.467,2.07-2.822,3.4-.368,1.379.2,2.955.753,4.479.466,1.292.995,2.755.6,3.43-.4.7-1.954.971-3.323,1.213-1.582.28-3.218.569-4.211,1.562s-1.282,2.628-1.561,4.21c-.242,1.369-.516,2.92-1.213,3.323-.674.39-2.138-.139-3.429-.6-1.524-.552-3.1-1.123-4.48-.752-1.326.354-2.379,1.608-3.4,2.821-.907,1.081-1.935,2.3-2.778,2.3s-1.871-1.224-2.778-2.3c-1.017-1.213-2.07-2.467-3.4-2.822a3.665,3.665,0,0,0-.943-.117,10.988,10.988,0,0,0-3.536.87c-1.292.466-2.756.995-3.43.6-.7-.4-.971-1.954-1.213-3.323-.28-1.582-.569-3.218-1.562-4.211s-2.628-1.282-4.21-1.561c-1.369-.242-2.92-.516-3.323-1.213-.39-.675.139-2.138.605-3.429.552-1.525,1.121-3.1.752-4.48-.354-1.326-1.608-2.379-2.821-3.4-1.081-.907-2.3-1.935-2.3-2.778s1.224-1.871,2.3-2.778c1.213-1.017,2.467-2.07,2.822-3.4.368-1.379-.2-2.955-.753-4.479-.466-1.292-1-2.755-.605-3.43.4-.7,1.954-.971,3.323-1.213,1.582-.28,3.218-.569,4.211-1.562s1.282-2.628,1.561-4.21c.242-1.369.516-2.92,1.213-3.323.672-.39,2.138.139,3.429.605,1.525.551,3.1,1.122,4.48.752,1.326-.354,2.379-1.608,3.4-2.821.907-1.081,1.935-2.3,2.778-2.3s1.871,1.224,2.778,2.3c1.017,1.213,2.07,2.467,3.4,2.822,1.38.368,2.955-.2,4.479-.753,1.291-.466,2.754-1,3.43-.605.7.4.971,1.954,1.213,3.323.28,1.582.569,3.218,1.562,4.211s2.628,1.282,4.21,1.561c1.369.242,2.92.516,3.323,1.213.39.675-.139,2.138-.6,3.429-.552,1.525-1.121,3.1-.752,4.48.354,1.326,1.608,2.379,2.821,3.4,1.081.907,2.3,1.935,2.3,2.778S58.936,33.871,57.855,34.778Z"></path><path d="M32,11A21,21,0,1,0,53,32,21.023,21.023,0,0,0,32,11Zm0,40A19,19,0,1,1,51,32,19.021,19.021,0,0,1,32,51Z"></path><rect x="19.272" y="31" width="25.456" height="2" transform="translate(-13.255 32) rotate(-45)"></rect><path d="M38,34a4,4,0,1,0,4,4A4,4,0,0,0,38,34Zm0,6a2,2,0,1,1,2-2A2,2,0,0,1,38,40Z"></path><path d="M26,30a4,4,0,1,0-4-4A4,4,0,0,0,26,30Zm0-6a2,2,0,1,1-2,2A2,2,0,0,1,26,24Z"></path></g></svg>