<svg xmlns="http://www.w3.org/2000/svg" viewBox="0 0 64 64" x="0px" y="0px"><g><path d="M34,42.77V41.24l-4.49-1.41A4.969,4.969,0,0,1,26,35.06v-.49a10.68,10.68,0,0,1-6,0v.49a4.969,4.969,0,0,1-3.51,4.77l-6.9,2.16C12.29,43.09,16.95,44,23,44A45.088,45.088,0,0,0,34,42.77Z"></path><path d="M11.17,57.64a4.756,4.756,0,0,1,.8,2.36H34.03a4.759,4.759,0,0,1,.8-2.37A6.735,6.735,0,0,0,36,54a6.422,6.422,0,0,0-.53-2.43A3,3,0,0,1,34,49V44.84A48.354,48.354,0,0,1,23,46c-6.73,0-12.8-1.15-15.81-2.96A6.967,6.967,0,0,0,4,48.88V60H9.97a2.655,2.655,0,0,0-.45-1.23A8.855,8.855,0,0,1,8,54a8.723,8.723,0,0,1,2.29-5.71l1.42,1.42A6.609,6.609,0,0,0,10,54,6.794,6.794,0,0,0,11.17,57.64Z"></path><path d="M59,34H37a1,1,0,0,0-1,1V46H60V35A1,1,0,0,0,59,34ZM44.71,42.29l-1.42,1.42-3-3a1.008,1.008,0,0,1,0-1.42l3-3,1.42,1.42L42.41,40Zm3.26,1.95-1.94-.48,2-8,1.94.48Zm7.74-3.53-3,3-1.42-1.42L53.59,40l-2.3-2.29,1.42-1.42,3,3A1.008,1.008,0,0,1,55.71,40.71Z"></path><path d="M7.02,26.81a1.035,1.035,0,0,1,.62.64.99.99,0,0,1-.13.88A2.964,2.964,0,0,0,7,30a3,3,0,0,0,4.67,2.49.993.993,0,0,1,.87-.12,1.035,1.035,0,0,1,.64.62A2.963,2.963,0,0,0,18,34.21v-.42A11.014,11.014,0,0,1,12,24V17a1,1,0,0,1,1-1,17.117,17.117,0,0,0,11.83-4.59,10.137,10.137,0,0,0,.86-.9,13.265,13.265,0,0,0,2.84-5.26A12.991,12.991,0,0,0,10,17v3.15a1.014,1.014,0,0,1-.4.8.97.97,0,0,1-.87.16A2.942,2.942,0,0,0,8,21a3.009,3.009,0,0,0-3,3A2.968,2.968,0,0,0,7.02,26.81Z"></path><path d="M38.98,26.81A2.968,2.968,0,0,0,41,24a3.009,3.009,0,0,0-3-3,2.942,2.942,0,0,0-.73.11.97.97,0,0,1-.87-.16,1.014,1.014,0,0,1-.4-.8V17A12.975,12.975,0,0,0,30.33,6.28a15.167,15.167,0,0,1-3.13,5.54c-.13.16-.27.31-.42.47A7.75,7.75,0,0,0,33,15a1,1,0,0,1,1,1v8a11.014,11.014,0,0,1-6,9.79v.42a2.963,2.963,0,0,0,4.82-1.22,1.035,1.035,0,0,1,.64-.62.993.993,0,0,1,.87.12,3,3,0,0,0,4.16-4.16.99.99,0,0,1-.13-.88A1.035,1.035,0,0,1,38.98,26.81Z"></path><path d="M42,52v4.18A2.964,2.964,0,0,0,40.18,60H36.03a2.576,2.576,0,0,1,.45-1.23A8.855,8.855,0,0,0,38,54a7.8,7.8,0,0,0-.27-2Z"></path><path d="M53,60a1,1,0,0,0,0-2H43a1,1,0,0,0,0,2Z"></path><rect x="46" y="52" width="4" height="4"></rect><path d="M25.31,13.66A19.236,19.236,0,0,1,14,17.98V24a9,9,0,0,0,18,0V16.96A9.468,9.468,0,0,1,25.31,13.66ZM17,21a2,2,0,1,1,2,2A2.006,2.006,0,0,1,17,21Zm6,8a5.005,5.005,0,0,1-3.53-1.46l1.4-1.42a3.081,3.081,0,0,0,4.26,0l1.4,1.42A5.005,5.005,0,0,1,23,29Zm4-6a2,2,0,1,1,2-2A2.006,2.006,0,0,1,27,23Z"></path><path d="M60,49V48H36v1a1,1,0,0,0,1,1H59A1,1,0,0,0,60,49Z"></path></g></svg>