<svg xmlns="http://www.w3.org/2000/svg" viewBox="0 0 32 32" x="0px" y="0px"><g><path d="M19,8.579V2H13V8.579a8.062,8.062,0,0,1,6,0Z"></path><path d="M18.347,23.648a8.105,8.105,0,0,1-.966.224c-.121.021-.243.036-.366.051q-.4.05-.8.06c-.074,0-.145.017-.219.017s-.145-.015-.219-.017c-.267-.007-.532-.027-.8-.06-.122-.015-.243-.03-.364-.051a7.775,7.775,0,0,1-.971-.226c-.063-.019-.124-.043-.186-.064-.155-.052-.312-.1-.463-.161V30h6V23.421c-.149.06-.3.107-.455.158C18.478,23.6,18.414,23.627,18.347,23.648Z"></path><path d="M19.431,11.082c-.039-.028-.083-.046-.123-.073a6.072,6.072,0,0,0-6.73.067,5.992,5.992,0,0,0-.009,9.842,5.71,5.71,0,0,0,1.638.8,6.086,6.086,0,0,0,5.215-.792,5.992,5.992,0,0,0,.009-9.842Zm-1.138,8.625-3-3A1,1,0,0,1,15,16V12h2v3.586l2.707,2.707Z"></path></g></svg>