<svg xmlns="http://www.w3.org/2000/svg" viewBox="0 0 64 64" x="0px" y="0px"><g data-name="File Transfer-Smartphone-Files-Transfer-Technology"><path d="M46,4H18a4,4,0,0,0-4,4v4h6a1.033,1.033,0,0,1,.71.29l6,6A1.033,1.033,0,0,1,27,19V33a3.009,3.009,0,0,1-3,3H14V56a4,4,0,0,0,4,4H46a4,4,0,0,0,4-4V50H40a3.009,3.009,0,0,1-3-3V29a3.009,3.009,0,0,1,3-3H50V8A4,4,0,0,0,46,4ZM29,6h6V8H29ZM25,8V6h2V8ZM17,45a1,1,0,0,1-1-1V38h2v5H29.59l-2.3-2.29,1.42-1.42,4,4a1.008,1.008,0,0,1,0,1.42l-4,4-1.42-1.42L29.59,45ZM34,58H30a3,3,0,0,1,0-6h4a3,3,0,0,1,0,6ZM48,24H46V19H34.41l2.3,2.29-1.42,1.42-4-4a1.008,1.008,0,0,1,0-1.42l4-4,1.42,1.42L34.41,17H47a1,1,0,0,1,1,1Z"></path><path d="M40,28a1,1,0,0,0-1,1V47a1,1,0,0,0,1,1H54a1,1,0,0,0,1-1V34H52a3,3,0,0,1-3-3V28Zm1,4h6v2H41ZM53,46H41V44H53Zm0-4H41V40H53Zm0-6v2H41V36Z"></path><path d="M34,54H30a1,1,0,0,0,0,2h4a1,1,0,0,0,0-2Z"></path><path d="M10,14a1,1,0,0,0-1,1V33a1,1,0,0,0,1,1H24a1,1,0,0,0,1-1V20H22a3,3,0,0,1-3-3V14Zm1,4h6v2H11ZM23,32H11V30H23Zm0-4H11V26H23Zm0-6v2H11V22Z"></path><path d="M51,31a1,1,0,0,0,1,1h1.586L51,29.414Z"></path><path d="M23.586,18,21,15.414V17a1,1,0,0,0,1,1Z"></path></g></svg>