<svg xmlns="http://www.w3.org/2000/svg" viewBox="0 0 64 64" x="0px" y="0px"><g data-name="Face Authentication-Smartphone"><path d="M40.281,45.553l-5.556-1.592A1,1,0,0,1,34,43V41.768a8.737,8.737,0,0,1-4,0V43a1,1,0,0,1-.725.961l-5.549,1.59A1,1,0,0,0,23.14,46H40.86A.985.985,0,0,0,40.281,45.553Z"></path><path d="M39,33V31.787a6.943,6.943,0,0,1-4.254-3.119l-.7.7A8.939,8.939,0,0,1,27.687,32H25v1a7,7,0,0,0,14,0ZM28,34h2a2,2,0,0,0,4,0h2a4,4,0,0,1-8,0Z"></path><path d="M32.636,27.95l1.657-1.657a1.013,1.013,0,0,1,.867-.28,1,1,0,0,1,.735.54l.341.683A4.968,4.968,0,0,0,40,29.951V28a8,8,0,0,0-16,0v2h3.687A6.954,6.954,0,0,0,32.636,27.95Z"></path><path d="M26,7H38a1,1,0,0,0,1-1V4H25V6A1,1,0,0,0,26,7Z"></path><path d="M49,7a3,3,0,0,0-3-3H41V6a3,3,0,0,1-3,3H26a3,3,0,0,1-3-3V4H18a3,3,0,0,0-3,3V57a3,3,0,0,0,3,3H46a3,3,0,0,0,3-3ZM17,18a1,1,0,0,1,1-1h4v2H19v3H17Zm5,34H18a1,1,0,0,1-1-1V47h2v3h3Zm-1-5v-.49a3,3,0,0,1,2.181-2.884L28,42.246v-1.2A9,9,0,0,1,23,33V32a1,1,0,0,1-1-1V28a10,10,0,0,1,20,0v3a1,1,0,0,1-1,1v1a9,9,0,0,1-5,8.05v1.2l4.825,1.382A3,3,0,0,1,43,46.51V47a1,1,0,0,1-1,1H22A1,1,0,0,1,21,47Zm26,4a1,1,0,0,1-1,1H42V50h3V47h2Zm0-29H45V19H42V17h4a1,1,0,0,1,1,1Z"></path></g></svg>