<svg xmlns="http://www.w3.org/2000/svg" viewBox="0 0 64 64" x="0px" y="0px"><title>Mangosteen</title><g><path d="M48.754,20.825A6.987,6.987,0,0,0,42,12a7.07,7.07,0,0,0-1.817.249A8.955,8.955,0,0,0,36,7.947V3a1,1,0,0,0-1-1H29a1,1,0,0,0-1,1V7.947a8.947,8.947,0,0,0-4.183,4.3A6.97,6.97,0,0,0,15,19a6.921,6.921,0,0,0,.246,1.824C10.28,25.508,7,30.3,7,38,7,51.682,17.748,62,32,62S57,51.682,57,38C57,30.3,53.72,25.509,48.754,20.825ZM42,14a5,5,0,1,1-3.668,8.4,9.011,9.011,0,0,0,2.656-5.9C41,16.337,41,16.163,41,16a9,9,0,0,0-.192-1.856A5.036,5.036,0,0,1,42,14ZM34,4V7.236a9.045,9.045,0,0,0-4,0V4ZM29.37,9.509a7.084,7.084,0,0,1,5.254,0,6.966,6.966,0,0,1,4.024,4.3l0,0h0A6.976,6.976,0,0,1,39,16c0,.118,0,.243-.008.375a7.015,7.015,0,0,1-2.643,5.111h0A7,7,0,1,1,29.37,9.509ZM22,14a5.015,5.015,0,0,1,1.212.166A9.016,9.016,0,0,0,23,16a8.925,8.925,0,0,0,2.661,6.391A5,5,0,1,1,22,14ZM32,60C18.673,60,9,50.748,9,38c0-6.735,2.809-11.065,7.118-15.245a6.964,6.964,0,0,0,11.122.875,8.954,8.954,0,0,0,9.52,0,6.965,6.965,0,0,0,11.123-.875C52.191,26.936,55,31.266,55,38,55,50.748,45.327,60,32,60Z"></path><path d="M52,37a1,1,0,0,0-1,1A17.414,17.414,0,0,1,40.456,54.222a1,1,0,1,0,.822,1.823A19.612,19.612,0,0,0,53,38,1,1,0,0,0,52,37Z"></path><path d="M38.92,55.62a.8.8,0,0,0-.09-.18l-.12-.15a1.034,1.034,0,0,0-1.42,0A1.028,1.028,0,0,0,37,56a1,1,0,0,0,.08.38.933.933,0,0,0,.21.33,1.7,1.7,0,0,0,.149.12.782.782,0,0,0,.181.09.636.636,0,0,0,.18.06A1.487,1.487,0,0,0,38,57a.99.99,0,0,0,1-1,1.116,1.116,0,0,0-.021-.19A.577.577,0,0,0,38.92,55.62Z"></path></g></svg>