<svg xmlns="http://www.w3.org/2000/svg" viewBox="0 0 64 64" x="0px" y="0px"><g data-name="Book-Ai Book"><path d="M33,15H31V50a1,1,0,0,0,2,0Z"></path><path d="M4,16V51H29.184A2.966,2.966,0,0,1,29,50V49H6a1,1,0,0,1-1-1V16Z"></path><path d="M7,13V47H29V13H15v5a1,1,0,0,1-1.707.707L12,17.414l-1.293,1.293A1,1,0,0,1,9,18V13Zm12,4h6v2H19Zm-8,4H25v2H11Zm0,4H25v2H11Zm0,4H25v2H11Zm0,4H25v2H11Zm0,4H25v2H11Zm0,4H25v2H11Z"></path><path d="M11.293,15.293a1,1,0,0,1,1.414,0l.293.293V13H11v2.586Z"></path><rect x="34.986" y="30.986" width="19.014" height="2"></rect><path d="M42,25H35V23h6.586l3.707-3.707A1,1,0,0,1,46,19h3v2H46.414l-3.707,3.707A1,1,0,0,1,42,25Z"></path><path d="M42,16H35V14h6.586l3.707-3.707,1.414,1.414-4,4A1,1,0,0,1,42,16Z"></path><path d="M49,45H46a1,1,0,0,1-.707-.293L41.586,41H35V39h7a1,1,0,0,1,.707.293L46.414,43H49Z"></path><path d="M43.293,53.707,39.586,50H35V48h5a1,1,0,0,1,.707.293l4,4Z"></path><circle cx="49" cy="8" r="2"></circle><circle cx="53" cy="20" r="2"></circle><circle cx="58" cy="32" r="2"></circle><circle cx="53" cy="44" r="2"></circle><circle cx="47" cy="56" r="2"></circle></g></svg>