<svg xmlns="http://www.w3.org/2000/svg" viewBox="0 0 64 64" x="0px" y="0px"><g><path d="M44.755,30.647a1.1,1.1,0,0,0,.127-.175,1,1,0,0,0-.05-1.027l-4-6A1,1,0,0,0,40,23H24a1,1,0,0,0-.832.445l-4,6a1,1,0,0,0-.05,1.027,1.1,1.1,0,0,0,.127.175l0,0,12,14a1,1,0,0,0,1.518,0l12-14ZM34.674,31,32,40.36,29.326,31Zm-4.806-2L32,25.8,34.132,29Zm4-4h4.264L36,28.2ZM28,28.2,25.868,25h4.264Zm1.824,11.727L22.174,31h5.074ZM36.752,31h5.074l-7.65,8.924Zm5.379-2H37.868L40,25.8ZM24,25.8,26.132,29H21.869Z"></path><path d="M53,14a1,1,0,0,1-1-1H50a3,3,0,0,0,2,2.816V17h2V15.816A2.993,2.993,0,0,0,53,10a1,1,0,1,1,1-1h2a3,3,0,0,0-2-2.816V5H52V6.184A2.993,2.993,0,0,0,53,12a1,1,0,0,1,0,2Z"></path><path d="M53,20a9,9,0,1,0-9-9A9.011,9.011,0,0,0,53,20ZM53,4a7,7,0,1,1-7,7A7.008,7.008,0,0,1,53,4Z"></path><path d="M11,14a1,1,0,0,1-1-1H8a3,3,0,0,0,2,2.816V17h2V15.816A2.993,2.993,0,0,0,11,10a1,1,0,1,1,1-1h2a3,3,0,0,0-2-2.816V5H10V6.184A2.993,2.993,0,0,0,11,12a1,1,0,0,1,0,2Z"></path><path d="M11,20a9,9,0,1,0-9-9A9.011,9.011,0,0,0,11,20ZM11,4a7,7,0,1,1-7,7A7.008,7.008,0,0,1,11,4Z"></path><path d="M53,50a1,1,0,0,1,1,1h2a3,3,0,0,0-2-2.816V47H52v1.184A2.993,2.993,0,0,0,53,54a1,1,0,1,1-1,1H50a3,3,0,0,0,2,2.816V59h2V57.816A2.993,2.993,0,0,0,53,52a1,1,0,0,1,0-2Z"></path><path d="M53,44a9,9,0,1,0,9,9A9.011,9.011,0,0,0,53,44Zm0,16a7,7,0,1,1,7-7A7.008,7.008,0,0,1,53,60Z"></path><path d="M11,50a1,1,0,0,1,1,1h2a3,3,0,0,0-2-2.816V47H10v1.184A2.993,2.993,0,0,0,11,54a1,1,0,1,1-1,1H8a3,3,0,0,0,2,2.816V59h2V57.816A2.993,2.993,0,0,0,11,52a1,1,0,0,1,0-2Z"></path><path d="M11,44a9,9,0,1,0,9,9A9.011,9.011,0,0,0,11,44Zm0,16a7,7,0,1,1,7-7A7.008,7.008,0,0,1,11,60Z"></path><rect x="41.379" y="19.5" width="4.243" height="2" transform="translate(-1.755 36.763) rotate(-45)"></rect><rect x="19.5" y="18.379" width="2" height="4.243" transform="translate(-8.491 20.5) rotate(-45)"></rect><rect x="17.964" y="41.5" width="7.071" height="2" transform="translate(-23.755 27.651) rotate(-45)"></rect><rect x="41.5" y="38.964" width="2" height="7.071" transform="translate(-17.604 42.5) rotate(-45)"></rect></g></svg>