<svg xmlns="http://www.w3.org/2000/svg" viewBox="0 0 64 64" x="0px" y="0px"><title>House_2</title><path d="M35,22a6,6,0,1,0-6,6A6.006,6.006,0,0,0,35,22Zm-6,4a4,4,0,1,1,4-4A4,4,0,0,1,29,26Z"></path><path d="M27,32H19a1,1,0,0,0-1,1V43a1,1,0,0,0,1,1h8a1,1,0,0,0,1-1V33A1,1,0,0,0,27,32Zm-1,5H24V34h2Zm-4-3v3H20V34Zm-2,5h2v3H20Zm4,3V39h2v3Z"></path><path d="M39,32H31a1,1,0,0,0-1,1V43a1,1,0,0,0,1,1h8a1,1,0,0,0,1-1V33A1,1,0,0,0,39,32Zm-1,5H36V34h2Zm-4-3v3H32V34Zm-2,5h2v3H32Zm4,3V39h2v3Z"></path><path d="M39,46H31a1,1,0,0,0-1,1v6a1,1,0,0,0,1,1h8a1,1,0,0,0,1-1V47A1,1,0,0,0,39,46Zm-1,3H36V48h2Zm-4-1v1H32V48Zm-2,3h2v1H32Zm4,1V51h2v1Z"></path><path d="M55,60V54.823A4.921,4.921,0,0,0,58,50c0-2.757-1.794-5-4-5s-4,2.243-4,5a4.921,4.921,0,0,0,3,4.823V60H44V25.414l5.293,5.293a1,1,0,0,0,1.414,0l3-3a1,1,0,0,0,0-1.414l-24-24a1,1,0,0,0-1.414,0l-24,24a1,1,0,0,0,0,1.414l3,3a1,1,0,0,0,1.414,0L14,25.414V60H2v2H62V60ZM52,50c0-1.626.916-3,2-3s2,1.374,2,3a3.5,3.5,0,0,1-1,2.57V51H53v1.57A3.494,3.494,0,0,1,52,50ZM8,28.586,6.414,27,29,4.414,51.586,27,50,28.586,29.707,8.293a1,1,0,0,0-1.414,0ZM20,60V48h6V60Zm8,0V47a1,1,0,0,0-1-1H19a1,1,0,0,0-1,1V60H16V23.414l13-13,13,13V60Z"></path></svg>