<svg xmlns="http://www.w3.org/2000/svg" viewBox="0 0 64 64" x="0px" y="0px"><g><path d="M27.12,51.99a.993.993,0,0,0,.87-1.11l-.97-7.94a.977.977,0,0,0-.38-.67,1.021,1.021,0,0,0-.74-.2l-.99.12-.97-7.94a1.027,1.027,0,0,0-.2-.48L21.5,30.79l-1.13-9.2a5.006,5.006,0,0,0-1.89-3.34,5.145,5.145,0,0,0-2.68-1.04l-.01-.1a5.006,5.006,0,0,0-1.89-3.33,5.062,5.062,0,0,0-2.68-1.04l-.01-.1a4,4,0,0,0-7.94.97L6.19,37.43a.988.988,0,0,0,.3.6l4.32,4.23.2,1.64-.99.12a.987.987,0,0,0-.87,1.11l.98,7.94a.987.987,0,0,0,.37.67,1.009,1.009,0,0,0,.62.21.487.487,0,0,0,.12-.01l.88,7.18,1.99-.24-.88-7.18,11.91-1.46,1.09,8.88,1.98-.24ZM17.25,19.83a3.025,3.025,0,0,1,1.13,2l.71,5.76L16.68,24.4l-.63-5.13A2.935,2.935,0,0,1,17.25,19.83Zm-4.58-4.48a3.07,3.07,0,0,1,1.13,2.01l.12.99.41,3.33a3.94,3.94,0,0,0-2.09-.66l-.77-6.23A3.217,3.217,0,0,1,12.67,15.35ZM8.13,36.84,5.25,13.37a2,2,0,1,1,3.97-.49l.12.99v.01l.94,7.58a4.084,4.084,0,0,0-.57.34,4,4,0,0,0-.78,5.6l6.02,7.99,1.59-1.2L10.52,26.2a2,2,0,1,1,3.2-2.41l8.26,10.97.95,7.67L13,43.65l-.24-1.98a1.044,1.044,0,0,0-.3-.6Zm3.86,15-.73-5.96,13.89-1.71.74,5.96Z"></path><rect x="21.542" y="46.518" width="2" height="1.999" transform="translate(-5.634 3.108) rotate(-7.014)"></rect><rect x="40.458" y="46.518" width="1.999" height="2" transform="translate(-10.766 82.864) rotate(-82.988)"></rect><path d="M57.25,9.16a4,4,0,0,0-4.46,3.48l-.01.1a5.057,5.057,0,0,0-2.69,1.05,4.989,4.989,0,0,0-1.88,3.32l-.01.1a5.139,5.139,0,0,0-2.69,1.05,4.989,4.989,0,0,0-1.88,3.33l-1.13,9.2-2.24,2.98a1.027,1.027,0,0,0-.2.48l-.97,7.94-.99-.12a1.021,1.021,0,0,0-.74.2.977.977,0,0,0-.38.67l-.97,7.94a.993.993,0,0,0,.87,1.11l-1.09,8.89,1.98.24,1.09-8.88L50.77,53.7l-.88,7.18,1.99.24.88-7.18a.487.487,0,0,0,.12.01,1.009,1.009,0,0,0,.62-.21.987.987,0,0,0,.37-.67l.98-7.94a.987.987,0,0,0-.87-1.11l-.99-.12.2-1.64,4.32-4.23a.988.988,0,0,0,.3-.6l2.92-23.82A3.988,3.988,0,0,0,57.25,9.16Zm-7.17,9.19.12-.99a3.053,3.053,0,0,1,1.12-2,3.2,3.2,0,0,1,1.21-.57l-.77,6.23a3.94,3.94,0,0,0-2.09.66Zm-4.46,3.48a3.008,3.008,0,0,1,1.12-1.99,3.2,3.2,0,0,1,1.21-.57l-.63,5.13-2.41,3.19Zm6.39,30.01-13.9-1.71.74-5.96,13.89,1.71Zm6.74-38.47L55.87,36.84l-4.33,4.23a1.044,1.044,0,0,0-.3.6L51,43.65l-9.93-1.22.95-7.67,8.26-10.97a2,2,0,0,1,3.2,2.41l-6.02,7.99,1.59,1.2,6.02-7.99a4,4,0,0,0-.78-5.6,4.084,4.084,0,0,0-.57-.34l.94-7.58v-.01l.12-.99a2,2,0,0,1,3.97.49Z"></path><path d="M42.61,3.91a7.007,7.007,0,0,0-9.9,0L32,4.62l-.71-.71a7,7,0,0,0-9.9,9.9l9.9,9.9a1.014,1.014,0,0,0,1.42,0l9.9-9.9a7,7,0,0,0,0-9.9Zm-1.42,8.48L32,21.59l-9.19-9.2a5,5,0,0,1,3.53-8.53,5.022,5.022,0,0,1,3.54,1.46l1.41,1.42a1.008,1.008,0,0,0,1.42,0l1.41-1.42a5.005,5.005,0,0,1,8.54,3.54A4.939,4.939,0,0,1,41.19,12.39Z"></path></g></svg>