<svg xmlns="http://www.w3.org/2000/svg" viewBox="0 0 64 64" x="0px" y="0px"><title>Computer</title><g><path d="M38,48H10a3,3,0,0,0-3,3v8a3,3,0,0,0,3,3H38a3,3,0,0,0,3-3V51A3,3,0,0,0,38,48Zm1,11a1,1,0,0,1-1,1H10a1,1,0,0,1-1-1V51a1,1,0,0,1,1-1H38a1,1,0,0,1,1,1Z"></path><rect x="11" y="56" width="2" height="2"></rect><rect x="11" y="52" width="2" height="2"></rect><rect x="15" y="52" width="2" height="2"></rect><rect x="19" y="52" width="2" height="2"></rect><rect x="23" y="52" width="2" height="2"></rect><rect x="27" y="52" width="2" height="2"></rect><rect x="31" y="52" width="2" height="2"></rect><rect x="35" y="52" width="2" height="2"></rect><rect x="15" y="56" width="18" height="2"></rect><rect x="35" y="56" width="2" height="2"></rect><path d="M17,24a8.948,8.948,0,0,0,5.611-1.975l.682.682A1,1,0,0,0,24,23h2V21H24.414l-.389-.389a8.968,8.968,0,0,0,.428-10.65L25.414,9H27V7H25a1,1,0,0,0-.707.293L23.144,8.442A8.994,8.994,0,1,0,17,24Zm5.707-12.293L23,11.414A6.94,6.94,0,0,1,23.92,14H18V8.08a6.967,6.967,0,0,1,3.73,1.776l-.437.437ZM16,8.08V15a1,1,0,0,0,1,1h6.92A6.947,6.947,0,0,1,22.6,19.184l-.891-.891-1.414,1.414.891.891A6.992,6.992,0,1,1,16,8.08Z"></path><rect x="28" y="21" width="4" height="2"></rect><rect x="29" y="7" width="4" height="2"></rect><path d="M54,47V44a5,5,0,0,0-10,0,1,1,0,0,1-1,1c-.617,0-1-.555-1-1.448V40A3,3,0,0,0,39.005,37H30V34H43a3,3,0,0,0,3-3V5a3,3,0,0,0-3-3H5A3,3,0,0,0,2,5V31a3,3,0,0,0,3,3H18v7H15v2H33V41H30V39h9.005A1,1,0,0,1,40,40v3.555A3.131,3.131,0,0,0,43,47a3,3,0,0,0,3-3,3,3,0,0,1,6,0v3a3,3,0,0,0-3,3v6a3,3,0,0,0,3,3h2a3,3,0,0,0,3-3V50A3,3,0,0,0,54,47ZM5,4H43a1,1,0,0,1,1,1V26H4V5A1,1,0,0,1,5,4ZM4,31V28H44v3a1,1,0,0,1-1,1H5A1,1,0,0,1,4,31ZM20,41V34h8v7ZM55,56a1,1,0,0,1-1,1H52a1,1,0,0,1-1-1V50a1,1,0,0,1,1-1h2a1,1,0,0,1,1,1Z"></path><rect x="52" y="51" width="2" height="2"></rect></g></svg>