<svg xmlns="http://www.w3.org/2000/svg" viewBox="0 0 64 64" x="0px" y="0px"><g><path d="M27.044,24.391c.726,5.6,9.743,11.183,11.928,12.461C41.164,35.6,50.2,30.12,50.952,24.527A5.591,5.591,0,0,0,48.9,19.559l-.009-.01a5.571,5.571,0,0,0-7.709,0l-1.517,1.474a1,1,0,0,1-1.393,0l-1.518-1.474a5.471,5.471,0,0,0-3.828-1.525,5.651,5.651,0,0,0-3.89,1.535A5.458,5.458,0,0,0,27.044,24.391ZM33,20v2a2,2,0,0,0-2,2H29A4,4,0,0,1,33,20Z"></path><path d="M14,60V40H4V60ZM10,42h2v2H10Z"></path><path d="M16,57l26.856.019L59.468,40.407,58.76,39.7a3.011,3.011,0,0,0-4.245,0l-10.8,11a.985.985,0,0,1-.713.29V51H27V49H42a3,3,0,0,0-3-3H31.65a1,1,0,0,1-.944-.672A4.98,4.98,0,0,0,26,42H21a5.006,5.006,0,0,0-5,5Z"></path><rect x="38" y="9" width="2" height="6"></rect><rect x="38" y="5" width="2" height="2"></rect><rect x="44" y="6" width="2" height="6"></rect><rect x="44" y="2" width="2" height="2"></rect><rect x="32" y="8" width="2" height="6"></rect><rect x="32" y="4" width="2" height="2"></rect><rect x="27" y="11" width="2" height="2"></rect><rect x="27" y="7" width="2" height="2"></rect><rect x="18" y="19" width="2" height="2"></rect><rect x="20" y="21" width="2" height="2"></rect><rect x="18" y="23" width="2" height="2"></rect><rect x="16" y="21" width="2" height="2"></rect><rect x="20" y="5" width="2" height="2"></rect><rect x="22" y="7" width="2" height="2"></rect><rect x="20" y="9" width="2" height="2"></rect><rect x="18" y="7" width="2" height="2"></rect><rect x="53" y="10" width="2" height="2"></rect><rect x="55" y="12" width="2" height="2"></rect><rect x="53" y="14" width="2" height="2"></rect><rect x="51" y="12" width="2" height="2"></rect><rect x="27" y="15" width="2" height="3"></rect></g></svg>