<svg xmlns="http://www.w3.org/2000/svg" viewBox="0 0 64 64" x="0px" y="0px"><g data-name="Smart Fan-Internet of Things-App-Household-Smartphone"><path d="M30,30v3.97a4.049,4.049,0,0,0,1.61-.51,21.794,21.794,0,0,0,5.48-5.41,4.988,4.988,0,0,1-2.04-3.57,23.7,23.7,0,0,0-6.81,1.74A4.966,4.966,0,0,1,30,30Z"></path><rect x="37" y="58" width="6" height="2"></rect><path d="M48.39,33.46A3.992,3.992,0,0,0,53.85,32a3.994,3.994,0,0,0-1.46-5.46,22.159,22.159,0,0,0-7.44-2.06,4.988,4.988,0,0,1-2.04,3.57A21.794,21.794,0,0,0,48.39,33.46Z"></path><path d="M24,57v3H35V54H29.58A5.014,5.014,0,0,1,25,57Z"></path><path d="M25,27H13a3.01,3.01,0,0,0-2.82,2H27.82A3.01,3.01,0,0,0,25,27Z"></path><rect x="37" y="54" width="6" height="2"></rect><path d="M40,4A20.02,20.02,0,0,0,20,24c0,.34.01.67.03,1H25a5.106,5.106,0,0,1,1.11.13c.17-.12.34-.23.48-.32a23.859,23.859,0,0,1,8.68-2.35,4.993,4.993,0,0,1,1.03-1.79A24.04,24.04,0,0,1,34,12a6,6,0,0,1,12,0,24.04,24.04,0,0,1-2.3,8.67,4.993,4.993,0,0,1,1.03,1.79,23.838,23.838,0,0,1,8.66,2.34,6.026,6.026,0,0,1,2.2,8.2,6.012,6.012,0,0,1-8.2,2.2,23.736,23.736,0,0,1-6.33-6.32,4.742,4.742,0,0,1-2.12,0,23.736,23.736,0,0,1-6.33,6.32,5.973,5.973,0,0,1-2.61.77v5.34A20,20,0,1,0,40,4ZM25.12,22.12l-1.99-.24A17.124,17.124,0,0,1,31.5,9.27l1,1.74A15.034,15.034,0,0,0,25.12,22.12Zm4.23-.87-1.94-.5a12.962,12.962,0,0,1,3.99-6.5l1.32,1.5A10.94,10.94,0,0,0,29.35,21.25Zm7.9,13.4a11.133,11.133,0,0,0,5.5,0l.5,1.94a13.086,13.086,0,0,1-6.5,0ZM40,41a16.907,16.907,0,0,1-7.44-1.71l.88-1.8a15.1,15.1,0,0,0,13.12,0l.88,1.8A16.907,16.907,0,0,1,40,41ZM50.65,21.25a10.935,10.935,0,0,0-3.32-5.45l1.34-1.49a12.964,12.964,0,0,1,3.92,6.44Zm4.32,1.81A14.907,14.907,0,0,0,48.44,11.6l1.12-1.66a16.914,16.914,0,0,1,7.41,13Z"></path><path d="M40,19a4.974,4.974,0,0,1,2.07.46A22.5,22.5,0,0,0,44,12a4,4,0,0,0-8,0,22.5,22.5,0,0,0,1.93,7.46A4.974,4.974,0,0,1,40,19Z"></path><circle cx="40" cy="24" r="3"></circle><path d="M10,31V46.46l.67-1.16a3.007,3.007,0,0,1,5.5.73,3.187,3.187,0,0,1,.08.97H28V31Zm9,13-1.41-1.41a1.992,1.992,0,0,1,2.82,0Zm2.12-3.12a3.075,3.075,0,0,0-4.24,0l-1.42-1.42a5.022,5.022,0,0,1,7.08,0Zm2.83-2.83a7.007,7.007,0,0,0-9.9,0l-1.41-1.41a9,9,0,0,1,12.72,0Z"></path><path d="M45,45.42A21.718,21.718,0,0,1,40,46a22.052,22.052,0,0,1-5-.59V52H45Z"></path><path d="M11.13,52.5a.994.994,0,0,0,.04,1.05l.89,1.34A5.66,5.66,0,0,1,12.64,60H3.82l-.56-8.9a9.055,9.055,0,0,1,2.26-6.55L8,41.76v8.17l-.33.57,1.73,1,3-5.2a1.01,1.01,0,0,1,.61-.46.995.995,0,0,1,1.12,1.46Z"></path><path d="M15.46,49l-2.28,3.96.54.82A7.535,7.535,0,0,1,14.37,55H25a3.009,3.009,0,0,0,3-3V49ZM20,53H18V51h2Z"></path><path d="M56,57a3.009,3.009,0,0,0-3-3H45v6H56Z"></path></g></svg>