<svg xmlns="http://www.w3.org/2000/svg" viewBox="0 0 64 64" x="0px" y="0px"><g><path d="M4,51a1,1,0,0,0,1,1H59a1,1,0,0,0,1-1V48H4Zm24-2h8v2H28Z"></path><path d="M50,5a1,1,0,0,0-1-1H15a1,1,0,0,0-1,1V8H50ZM18,7H16V5h2Zm4,0H20V5h2Zm4,0H24V5h2Z"></path><rect x="32" y="16" width="12" height="4"></rect><path d="M7,46H57V15a3,3,0,0,0-3-3H52V35a3,3,0,0,1-3,3H15a3,3,0,0,1-3-3V12H10a3,3,0,0,0-3,3Z"></path><path d="M14,35a1,1,0,0,0,1,1H49a1,1,0,0,0,1-1V10H14Zm32-3H40V30h6Zm0-4H36V26H46ZM30,15a1,1,0,0,1,1-1H45a1,1,0,0,1,1,1v6a1,1,0,0,1-1,1H31a1,1,0,0,1-1-1Zm0,11h4v2H30Zm0,4h8v2H30ZM22,16h4v2H22Zm-4,0h2v2H18Zm0,4h8v2H18Zm0,6h8v2H18Zm0,4h8v2H18Z"></path></g></svg>