<svg xmlns="http://www.w3.org/2000/svg" viewBox="0 0 64 64" x="0px" y="0px"><g><path d="M22.05,52h19.9a9.987,9.987,0,0,0-8.13-8.836h0c-.294-.055-.594-.095-.9-.122S32.307,43,32,43a9.976,9.976,0,0,0-9.95,9Z"></path><path d="M31,41.041c.331-.027.665-.041,1-.041s.669.014,1,.041V5a1,1,0,0,0-2,0Z"></path><path d="M20,55a1,1,0,0,0,1,1H43a1,1,0,0,0,0-2H21A1,1,0,0,0,20,55Z"></path><path d="M46,60H18a1,1,0,0,0,0,2H46a1,1,0,0,0,0-2Z"></path><path d="M55.836,59.014l-6,1A1,1,0,0,0,50,62a.927.927,0,0,0,.165-.014l6-1a1,1,0,1,0-.328-1.972Z"></path><path d="M50,57a1,1,0,0,0,.446-.1l6-3a1,1,0,1,0-.894-1.79l-6,3A1,1,0,0,0,50,57Z"></path><path d="M14.164,60.014l-6-1a1,1,0,1,0-.328,1.972l6,1A.927.927,0,0,0,14,62a1,1,0,0,0,.163-1.986Z"></path><path d="M14.447,55.105l-6-3a1,1,0,0,0-.894,1.79l6,3a1,1,0,1,0,.894-1.79Z"></path><path d="M17,35a1,1,0,0,0,1-1V33a1,1,0,0,0-2,0v1A1,1,0,0,0,17,35Z"></path><path d="M15,35H14a1,1,0,0,0,0,2h1a1,1,0,0,0,0-2Z"></path><path d="M18,39V38a1,1,0,0,0-2,0v1a1,1,0,0,0,2,0Z"></path><path d="M19,37h1a1,1,0,0,0,0-2H19a1,1,0,0,0,0,2Z"></path><path d="M49,26a1,1,0,0,0,1-1V24a1,1,0,0,0-2,0v1A1,1,0,0,0,49,26Z"></path><path d="M47,26H46a1,1,0,0,0,0,2h1a1,1,0,0,0,0-2Z"></path><path d="M49,28a1,1,0,0,0-1,1v1a1,1,0,0,0,2,0V29A1,1,0,0,0,49,28Z"></path><path d="M51,28h1a1,1,0,0,0,0-2H51a1,1,0,0,0,0,2Z"></path><circle cx="51" cy="42" r="1"></circle><circle cx="7" cy="45" r="2"></circle></g></svg>