<svg xmlns="http://www.w3.org/2000/svg" viewBox="0 0 64 64" x="0px" y="0px"><g><path d="M42,30H22a1,1,0,0,0-1,1v6a3.009,3.009,0,0,0,3,3H40a3.009,3.009,0,0,0,3-3V31A1,1,0,0,0,42,30ZM32,38a3,3,0,1,1,3-3A3,3,0,0,1,32,38Z"></path><circle cx="32" cy="35" r="1"></circle><path d="M24,42a4.924,4.924,0,0,1-3-1.03V51a3.009,3.009,0,0,0,3,3H40a3.009,3.009,0,0,0,3-3V40.97A4.924,4.924,0,0,1,40,42Z"></path><path d="M60,26H57V60a3.009,3.009,0,0,0,3-3Z"></path><path d="M60,19a3.009,3.009,0,0,0-3-3H7a3.009,3.009,0,0,0-3,3v5H7.18A3.01,3.01,0,0,1,10,22H54a3.01,3.01,0,0,1,2.82,2H60Z"></path><path d="M4,57a3.009,3.009,0,0,0,3,3V26H4Z"></path><rect x="26" y="4" width="12" height="3"></rect><path d="M40,4.17V14h2V7A3.014,3.014,0,0,0,40,4.17Z"></path><path d="M22,14h2V4.17A3.014,3.014,0,0,0,22,7Z"></path><path d="M54,24H10a1,1,0,0,0-1,1V60H55V25A1,1,0,0,0,54,24ZM45,51a5,5,0,0,1-5,5H24a5,5,0,0,1-5-5V31a3.009,3.009,0,0,1,3-3H42a3.009,3.009,0,0,1,3,3Z"></path></g></svg>