<svg xmlns="http://www.w3.org/2000/svg" viewBox="0 0 64 64" x="0px" y="0px"><g data-name="Gear-Light Bulb-Idea-Business-Management"><path d="M31,13h2a1,1,0,0,1,1,1h2a3,3,0,0,0-3-3V10H31v1a3,3,0,0,0,0,6h2a1,1,0,0,1,0,2H31a1,1,0,0,1-1-1H28a3,3,0,0,0,3,3v1h2V21a3,3,0,0,0,0-6H31a1,1,0,0,1,0-2Z"></path><path d="M31.632,6.006A10.066,10.066,0,0,0,22,16.087a9.91,9.91,0,0,0,3.889,7.823A2.9,2.9,0,0,1,26.974,26H25v2h2v2a4,4,0,0,0,4,4h2a4,4,0,0,0,4-4V28h2V26H37.027a3.02,3.02,0,0,1,1.16-2.149A10,10,0,0,0,31.632,6.006ZM35,30a2,2,0,0,1-2,2H31a2,2,0,0,1-2-2V28h6Zm1.953-7.724A5.02,5.02,0,0,0,35.013,26H28.987a4.929,4.929,0,0,0-1.88-3.676A7.922,7.922,0,0,1,24,16.07a8.053,8.053,0,0,1,7.7-8.065C31.8,8,31.9,8,32,8a8,8,0,0,1,4.951,14.276Z"></path><rect x="31" y="2" width="2" height="2"></rect><rect x="24.5" y="3.742" width="2" height="2" transform="translate(1.045 13.383) rotate(-29.995)"></rect><rect x="19.742" y="8.5" width="2" height="2" transform="translate(2.145 22.715) rotate(-60.005)"></rect><rect x="18" y="15" width="2" height="2"></rect><rect x="19.742" y="21.5" width="2" height="2" transform="translate(-8.47 13.383) rotate(-29.995)"></rect><rect x="42.258" y="21.5" width="2" height="2" transform="translate(2.146 48.717) rotate(-60.005)"></rect><rect x="44" y="15" width="2" height="2"></rect><rect x="42.258" y="8.5" width="2" height="2" transform="translate(1.044 22.898) rotate(-29.995)"></rect><rect x="37.5" y="3.742" width="2" height="2" transform="translate(15.146 35.715) rotate(-60.005)"></rect><path d="M53.994,49.932l-3.712-4.64a20.794,20.794,0,0,0,1.925-4.642l5.9-.656A1,1,0,0,0,59,39V31a1,1,0,0,0-.89-.994l-5.9-.656a20.884,20.884,0,0,0-1.926-4.642l3.712-4.64a1,1,0,0,0-.074-1.331L48.263,13.08l-1.414,1.414,5.025,5.024L48.291,24a1,1,0,0,0-.073,1.145A18.875,18.875,0,0,1,50.442,30.5a1,1,0,0,0,.861.758L57,31.9V38.1l-5.7.633a1,1,0,0,0-.861.758,18.892,18.892,0,0,1-2.224,5.363A1,1,0,0,0,48.291,46l3.583,4.478-4.392,4.392L43,51.291a1,1,0,0,0-1.145-.073A18.875,18.875,0,0,1,36.5,53.442a1,1,0,0,0-.758.861L35.1,60H28.9l-.633-5.7a1,1,0,0,0-.758-.861,18.875,18.875,0,0,1-5.363-2.224A1,1,0,0,0,21,51.291l-4.478,3.583-4.392-4.392L15.709,46a1,1,0,0,0,.073-1.145A18.892,18.892,0,0,1,13.558,39.5a1,1,0,0,0-.861-.758L7,38.1V31.9l5.7-.633a1,1,0,0,0,.861-.758,18.875,18.875,0,0,1,2.224-5.363A1,1,0,0,0,15.709,24l-3.583-4.478,5.025-5.024L15.737,13.08,10.08,18.737a1,1,0,0,0-.074,1.331l3.712,4.64a20.884,20.884,0,0,0-1.926,4.642l-5.9.656A1,1,0,0,0,5,31v8a1,1,0,0,0,.89.994l5.9.656a20.794,20.794,0,0,0,1.925,4.642l-3.712,4.64a1,1,0,0,0,.074,1.331l5.657,5.657a1,1,0,0,0,1.331.074l4.64-3.712a20.833,20.833,0,0,0,4.642,1.925l.656,5.9A1,1,0,0,0,28,62h8a1,1,0,0,0,.994-.89l.656-5.9a20.833,20.833,0,0,0,4.642-1.925l4.64,3.712a1,1,0,0,0,1.331-.074l5.657-5.657A1,1,0,0,0,53.994,49.932Z"></path><path d="M32,48a13,13,0,0,0,9.689-21.667L40.2,27.667a11,11,0,1,1-16.4,0l-1.49-1.334A13,13,0,0,0,32,48Z"></path><path d="M13.915,11.058l-1.207-1.6a31.974,31.974,0,0,0-8.357,9.423L6.078,19.9A29.979,29.979,0,0,1,13.915,11.058Z"></path><path d="M3.486,20.467q-.447.878-.842,1.782l1.834.8q.369-.849.79-1.67Z"></path><path d="M49.69,59.23l1.18,1.615a32.3,32.3,0,0,0,9.009-10.122l-1.741-.983A30.314,30.314,0,0,1,49.69,59.23Z"></path><path d="M60.031,45.712c-.248.649-.522,1.3-.814,1.928l1.814.841c.312-.671.6-1.363.868-2.055Z"></path></g></svg>