<svg xmlns="http://www.w3.org/2000/svg" viewBox="0 0 64 64" x="0px" y="0px"><g><path d="M11,42a1,1,0,0,0,0,2H50.18a2.868,2.868,0,0,1,0-2Z"></path><path d="M11,48H53a1,1,0,0,0,0-2H11a3,3,0,0,1,0-6H53a1,1,0,0,0,0-2H11a5,5,0,0,0,0,10Z"></path><path d="M15,60H57a1,1,0,0,0,0-2H15a3,3,0,0,1,0-6H57a1,1,0,0,0,0-2H15a5,5,0,0,0,0,10Z"></path><path d="M15,54a1,1,0,0,0,0,2H54.18a2.868,2.868,0,0,1,0-2Z"></path><path d="M52,14a1,1,0,0,1-1-1,5,5,0,0,0-5-5,4.946,4.946,0,0,0-3.58,1.52,1.008,1.008,0,0,1-.86.29,1.026,1.026,0,0,1-.74-.52,9.991,9.991,0,0,0-18.73,3.46,1,1,0,0,1-1.68.6A4.995,4.995,0,0,0,12,17a1.088,1.088,0,0,1-.34.8,1.034,1.034,0,0,1-.8.27A5.7,5.7,0,0,0,10,18a6,6,0,0,0,0,12h6.34L13.4,27.8A1,1,0,0,1,14,26h3V21a1,1,0,0,1,1-1h8a1,1,0,0,1,1,1v5h3a1,1,0,0,1,.6,1.8L27.66,30H36V28H33a1,1,0,0,1-.6-1.8l8-6a.99.99,0,0,1,1.2,0l8,6A1,1,0,0,1,49,28H46v2h6a8,8,0,0,0,0-16Zm-7,0H43V12h2Zm4,0H47V12h2Zm3,14V26a4,4,0,0,0,4-4h2A6,6,0,0,1,52,28Z"></path><path d="M44,32V27a1,1,0,0,1,1-1h1l-5-3.75L36,26h1a1,1,0,0,1,1,1v5Z"></path><path d="M19,22v5a1,1,0,0,1-1,1H17l5,3.75L27,28H26a1,1,0,0,1-1-1V22Z"></path></g></svg>