<svg xmlns="http://www.w3.org/2000/svg" viewBox="0 0 64 64" x="0px" y="0px"><g data-name="Megaphone-Marketing-Strategy-Report-Money Bag"><path d="M50,60H14a3,3,0,0,1-3-3V48H9v9a5.006,5.006,0,0,0,5,5H50a5,5,0,0,0,3.308-1.25l-1.325-1.5A2.989,2.989,0,0,1,50,60Z"></path><path d="M11,7a3,3,0,0,1,3-3H45V9a3,3,0,0,0,3,3h5V24h2V11a1,1,0,0,0-.293-.707l-8-8A1,1,0,0,0,46,2H14A5.006,5.006,0,0,0,9,7V25h2ZM47,9V5.414L51.586,10H48A1,1,0,0,1,47,9Z"></path><rect x="15" y="8" width="2" height="2"></rect><rect x="19" y="8" width="6" height="2"></rect><rect x="15" y="12" width="10" height="2"></rect><path d="M47,44h2a1,1,0,0,1,1,1h2a3,3,0,0,0-3-3V41H47v1a3,3,0,0,0,0,6h2a1,1,0,0,1,0,2H47a1,1,0,0,1-1-1H44a3,3,0,0,0,3,3v1h2V52a3,3,0,0,0,0-6H47a1,1,0,0,1,0-2Z"></path><path d="M60,52.171V45a9.016,9.016,0,0,0-6.361-8.6A2.957,2.957,0,0,0,54,35a3,3,0,0,0-2.412-2.941L53.9,27.447A1,1,0,0,0,53,26H43a1,1,0,0,0-.9,1.447l2.307,4.612A3,3,0,0,0,42,35a2.957,2.957,0,0,0,.361,1.4A9.016,9.016,0,0,0,36,45v7.171A3,3,0,0,0,37,58H59a3,3,0,0,0,1-5.829ZM51.382,28l-2,4H46.618l-2-4ZM44,35a1,1,0,0,1,1-1h6a1,1,0,0,1,0,2H45A1,1,0,0,1,44,35ZM59,56H37a1,1,0,0,1,0-2,1,1,0,0,0,1-1V45a7.008,7.008,0,0,1,7-7h6a7.008,7.008,0,0,1,7,7v8a1,1,0,0,0,1,1,1,1,0,0,1,0,2Z"></path><path d="M28.12,33.8l-2.5-4.33a3,3,0,1,0-3-5.19l-2.5-4.33a2.994,2.994,0,0,0-5.47,2.33L8.47,30.14,3.44,33.05a2.993,2.993,0,0,0-1.1,4.09l2,3.47a3.006,3.006,0,0,0,4.1,1.1l3.5,6.06a2.992,2.992,0,0,0,2.6,1.5,3.04,3.04,0,0,0,1.5-.4l1.73-1a3.016,3.016,0,0,0,1.1-4.1l-3.07-5.3,7.57-1.09a3,3,0,0,0,4.75-3.58Zm-3.13-7.42a1,1,0,0,1-.36,1.36h-.01l-1-1.73A1,1,0,0,1,24.99,26.38ZM7.44,39.97a1,1,0,0,1-1.37-.36l-2-3.47a1,1,0,0,1,.37-1.36l.86-.5,3,5.19Zm-.4-6.69,1.73-1,3,5.19-1.73,1ZM17.13,44.77a.985.985,0,0,1-.36,1.36l-1.73,1a1,1,0,0,1-1.37-.36l-3.5-6.06,3.3-1.91.2-.03Zm-3.47-8.02L10.34,31l5.33-6.77,6.52,11.29Zm12.37-.58a1.01,1.01,0,0,1-1.37-.37l-8-13.85a1,1,0,0,1,.37-1.37.947.947,0,0,1,.49-.13,1,1,0,0,1,.87.5l8,13.85A1.007,1.007,0,0,1,26.03,36.17Z"></path><rect x="28.187" y="22.375" width="4" height="2" transform="translate(-7.644 18.226) rotate(-30.002)"></rect><rect x="24.016" y="18.363" width="4.243" height="2" transform="translate(0.67 39.598) rotate(-75)"></rect><rect x="30.638" y="26.768" width="2" height="4.243" transform="translate(-4.456 51.971) rotate(-74.999)"></rect><path d="M35,16a1,1,0,0,0-1,1v6a1,1,0,0,0,1,1H47a1,1,0,0,0,1-1V17a1,1,0,0,0-1-1Zm11,6H36V18H46Z"></path><rect x="22" y="54" width="10" height="2"></rect><rect x="22" y="50" width="10" height="2"></rect><rect x="22" y="46" width="10" height="2"></rect><rect x="22" y="42" width="2" height="2"></rect><rect x="26" y="42" width="6" height="2"></rect></g></svg>