<svg xmlns="http://www.w3.org/2000/svg" viewBox="0 0 64 64" x="0px" y="0px"><g><circle cx="38" cy="16" r="1"></circle><path d="M4,45.586l8-8V37a1,1,0,0,0-1-1h-.586L4,42.414Z"></path><path d="M4,37v2.586L7.586,36H5A1,1,0,0,0,4,37Z"></path><polygon points="12 46.414 4 54.414 4 57.586 12 49.586 12 46.414"></polygon><path d="M12,59v-.586L10.414,60H11A1,1,0,0,0,12,59Z"></path><path d="M12,52.414l-7.46,7.46A.974.974,0,0,0,5,60H7.586L12,55.586Z"></path><rect x="48" y="43" width="2" height="10"></rect><path d="M60,52.414l-7.46,7.46A.974.974,0,0,0,53,60h2.586L60,55.586Z"></path><path d="M32,40a1,1,0,0,0,1-1V37a1,1,0,0,0-2,0v2A1,1,0,0,0,32,40Z"></path><path d="M45,57a1,1,0,0,0,1-1V35.162L44.279,30H19.721L18,35.162V56a1,1,0,0,0,1,1h4V56a5.006,5.006,0,0,1,5-5h8a5.006,5.006,0,0,1,5,5v1ZM29,37a3,3,0,0,1,6,0v2a3,3,0,0,1-6,0Zm9,2a6.006,6.006,0,0,1-5,5.91V47h2v2H29V47h2V44.91A6.006,6.006,0,0,1,26,39V38h2v1a4,4,0,0,0,8,0V38h2Z"></path><path d="M36,53H28a3,3,0,0,0-3,3v1H39V56A3,3,0,0,0,36,53Z"></path><rect x="14" y="43" width="2" height="10"></rect><polygon points="4 51.586 12 43.586 12 40.414 4 48.414 4 51.586"></polygon><rect x="50" y="13" width="2" height="6"></rect><rect x="12" y="13" width="2" height="6"></rect><path d="M60,37a1,1,0,0,0-1-1h-.586L52,42.414v3.172l8-8Z"></path><polygon points="52 51.586 60 43.586 60 40.414 52 48.414 52 51.586"></polygon><path d="M16,25a3,3,0,0,0,3,3H45a3,3,0,0,0,3-3V7a3,3,0,0,0-3-3H19a3,3,0,0,0-3,3ZM18,9a3,3,0,0,1,3-3H43a3,3,0,0,1,3,3V23a3,3,0,0,1-3,3H21a3,3,0,0,1-3-3Z"></path><path d="M52,37v2.586L55.586,36H53A1,1,0,0,0,52,37Z"></path><path d="M60,59v-.586L58.414,60H59A1,1,0,0,0,60,59Z"></path><polygon points="60 46.414 52 54.414 52 57.586 60 49.586 60 46.414"></polygon><circle cx="26" cy="16" r="1"></circle><path d="M21,24H43a1,1,0,0,0,1-1V9a1,1,0,0,0-1-1H21a1,1,0,0,0-1,1V23A1,1,0,0,0,21,24ZM38,13a3,3,0,1,1-3,3A3,3,0,0,1,38,13ZM26,13a3,3,0,1,1-3,3A3,3,0,0,1,26,13Z"></path></g></svg>