<svg xmlns="http://www.w3.org/2000/svg" viewBox="0 0 64 64" x="0px" y="0px"><g><path d="M44.389,51.523a4,4,0,1,0,2.582,1.646A3.982,3.982,0,0,0,44.389,51.523Zm.453,5.578a2,2,0,0,1-2.786-.491,2,2,0,0,1,1.634-3.148,2.093,2.093,0,0,1,.352.031,1.991,1.991,0,0,1,1.29.822h0A2,2,0,0,1,44.842,57.1Z"></path><path d="M60.9,43.417a7,7,0,0,0-9.511-1.867l-4.3-2.007a5.006,5.006,0,0,0-.443-.793h0c-.041-.059-.1-.1-.138-.159L45.1,22.481a7.014,7.014,0,0,0-7.59-6.362A1,1,0,0,0,36.6,17.2l1.593,18.2L21.636,27.681a1,1,0,0,0-1.328.482,7.014,7.014,0,0,0,3.383,9.309L38.347,44.3c.038.06.061.125.1.183a4.979,4.979,0,0,0,.593.687l.416,4.728a7,7,0,1,0,9.974,1.552A7,7,0,0,0,60.9,43.417Zm-13.724,2.8-.2-2.315a4.987,4.987,0,0,0,.542-1.95L49.756,43a7,7,0,0,0-1.545,3.7Zm-7.084-2.875a3,3,0,1,1,4.179.736A3,3,0,0,1,40.088,43.339Zm2.135-23.1a5,5,0,0,1,.882,2.421l1.25,14.3a5,5,0,0,0-4,.183L38.688,18.125A5.029,5.029,0,0,1,42.223,20.236ZM24.539,35.661a5.018,5.018,0,0,1-2.751-5.7L38.4,37.7l.09,1.03a5,5,0,0,0-.936,2.992ZM42.553,46.616a4.971,4.971,0,0,0,2.582-.738l.247,2.8c-.157-.039-.313-.079-.473-.107a6.953,6.953,0,0,0-3.535.293l-.215-2.451A5.019,5.019,0,0,0,42.553,46.616Zm4.009,12.942A5,5,0,0,1,39.6,58.331a5,5,0,1,1,6.963,1.227Zm.905-9.995-.092-1.047.96.448a6.94,6.94,0,0,0,1.089,2.477A7,7,0,0,0,47.467,49.563ZM58.03,51.528a5,5,0,1,1,1.228-6.963A5.006,5.006,0,0,1,58.03,51.528Z"></path><path d="M52.868,44.156a4,4,0,0,0,1.6,7.216,4.073,4.073,0,0,0,.7.062,4,4,0,1,0-2.3-7.278Zm4.264,3.624a2,2,0,0,1-3.608.8h0a2,2,0,1,1,3.608-.8Z"></path><rect x="10.515" y="18" width="16.971" height="2" transform="translate(-7.87 19) rotate(-45)"></rect><path d="M24,27a3,3,0,1,0-3-3A3,3,0,0,0,24,27Zm0-4a1,1,0,1,1-1,1A1,1,0,0,1,24,23Z"></path><path d="M17,14a3,3,0,1,0-3,3A3,3,0,0,0,17,14Zm-3,1a1,1,0,1,1,1-1A1,1,0,0,1,14,15Z"></path><path d="M4,19A15,15,0,1,1,29.91,29.294l1.455,1.373A17,17,0,1,0,19,36V34A15.017,15.017,0,0,1,4,19Z"></path></g></svg>