<svg xmlns="http://www.w3.org/2000/svg" viewBox="0 0 64 64" x="0px" y="0px"><g data-name="Research-Business-Human mind-Money-Financial"><path d="M60.919,24.955a25.068,25.068,0,0,0-23.29-22.9A24.788,24.788,0,0,0,18.9,8.769,25.1,25.1,0,0,0,11,26.61L2.78,35.654A2,2,0,0,0,4.261,39H9v6a7.008,7.008,0,0,0,7,7h7a1,1,0,0,1,1,1v8a1,1,0,0,0,1,1H53a1,1,0,0,0,1-1V44.348A25.039,25.039,0,0,0,60.919,24.955ZM52.292,43.233a1,1,0,0,0-.292.706V60H26V53a3,3,0,0,0-3-3H16a5.006,5.006,0,0,1-5-5V38a1,1,0,0,0-1-1H4.26l8.48-9.327A1,1,0,0,0,13,27,23,23,0,0,1,37.5,4.048a23,23,0,0,1,14.79,39.185Z"></path><path d="M35,21h2a1,1,0,0,1,1,1h2a3,3,0,0,0-3-3V18H35v1a3,3,0,0,0,0,6h2a1,1,0,0,1,0,2H35a1,1,0,0,1-1-1H32a3,3,0,0,0,3,3v1h2V29a3,3,0,0,0,0-6H35a1,1,0,0,1,0-2Z"></path><path d="M36,10A14,14,0,1,0,50,24,14.015,14.015,0,0,0,36,10Zm9.847,7.16-1.742,1.006A10.07,10.07,0,0,0,41.834,15.9l1.006-1.742A12.1,12.1,0,0,1,45.847,17.16ZM35,33.949v2a11.894,11.894,0,0,1-4.106-1.1l1-1.735A9.9,9.9,0,0,0,35,33.949Zm2,0a9.9,9.9,0,0,0,3.1-.84l1,1.735A11.894,11.894,0,0,1,37,35.949ZM36,32a8,8,0,1,1,8-8A8.009,8.009,0,0,1,36,32Zm-9.949-9h-2a11.888,11.888,0,0,1,1.105-4.106l1.735,1A9.875,9.875,0,0,0,26.051,23Zm0,2a9.9,9.9,0,0,0,.84,3.1l-1.735,1A11.888,11.888,0,0,1,24.051,25ZM37,14.051v-2a11.894,11.894,0,0,1,4.106,1.105l-1,1.735A9.9,9.9,0,0,0,37,14.051Zm-2,0a9.894,9.894,0,0,0-3.1.84l-1-1.735A11.894,11.894,0,0,1,35,12.051ZM45.949,25h2a11.894,11.894,0,0,1-1.1,4.106l-1.735-1A9.9,9.9,0,0,0,45.949,25Zm0-2a9.9,9.9,0,0,0-.84-3.1l1.735-1A11.894,11.894,0,0,1,47.949,23ZM29.16,14.153,30.166,15.9A10.07,10.07,0,0,0,27.9,18.166L26.153,17.16A12.1,12.1,0,0,1,29.16,14.153ZM26.153,30.84,27.9,29.834A10.07,10.07,0,0,0,30.166,32.1L29.16,33.847A12.1,12.1,0,0,1,26.153,30.84ZM42.84,33.847,41.834,32.1a10.07,10.07,0,0,0,2.271-2.271l1.742,1.006A12.1,12.1,0,0,1,42.84,33.847Z"></path><rect x="35" y="40" width="2" height="2"></rect><rect x="35" y="44" width="2" height="2"></rect><rect x="35" y="48" width="2" height="2"></rect><rect x="35" y="52" width="2" height="2"></rect></g></svg>