<svg xmlns="http://www.w3.org/2000/svg" viewBox="0 0 64 64" x="0px" y="0px"><g><path d="M46.68,41.29,39.1,38.92A2.986,2.986,0,0,1,37,36.06V34.99a4.984,4.984,0,0,0,7.22-1.31A5.058,5.058,0,0,0,46,34a5,5,0,0,0,5-5,4.9,4.9,0,0,0-.33-1.79A4.989,4.989,0,0,0,48,18a16,16,0,0,0-32,0,4.989,4.989,0,0,0-2.67,9.21A4.9,4.9,0,0,0,13,29a5,5,0,0,0,5,5,5.058,5.058,0,0,0,1.78-.32A4.984,4.984,0,0,0,27,34.99v1.07a2.982,2.982,0,0,1-2.11,2.86l-7.57,2.37A8.959,8.959,0,0,0,11,49.88V61a1,1,0,0,0,1,1H52a1,1,0,0,0,1-1V49.88A8.959,8.959,0,0,0,46.68,41.29Zm.52-21.16a2.977,2.977,0,0,1,1.78,5.68,1.035,1.035,0,0,0-.62.64.99.99,0,0,0,.13.88A2.964,2.964,0,0,1,49,29a3.009,3.009,0,0,1-3,3,2.911,2.911,0,0,1-1.67-.51,1,1,0,0,0-.87-.12,1.035,1.035,0,0,0-.64.62,2.969,2.969,0,0,1-4.11,1.71,11.56,11.56,0,0,0,1.07-.92A10.919,10.919,0,0,0,42.95,26H43a3.971,3.971,0,0,0,3.46-5.97A1,1,0,0,0,47.2,20.13ZM43,24V20a2.006,2.006,0,0,1,2,2,2.015,2.015,0,0,1-2,2ZM32,4A14.015,14.015,0,0,1,46,18c0,.36-.03.72-.06,1.08a1.014,1.014,0,0,0,.02.25A3.99,3.99,0,0,0,43,18V17a10.914,10.914,0,0,0-5.99-9.78A1,1,0,0,0,35.8,8.76,4.919,4.919,0,0,1,37,12v3H35V10H33v5H31V10H29v5H27V12a4.919,4.919,0,0,1,1.2-3.24,1,1,0,0,0-1.21-1.54A10.914,10.914,0,0,0,21,17v1a3.974,3.974,0,0,0-2.96,1.33,1.055,1.055,0,0,0,.02-.25c-.03-.36-.06-.72-.06-1.08A14.015,14.015,0,0,1,32,4ZM21,20v4a2.015,2.015,0,0,1-2-2A2.006,2.006,0,0,1,21,20Zm3,14a2.985,2.985,0,0,1-2.82-2.01,1.035,1.035,0,0,0-.64-.62.993.993,0,0,0-.87.12A2.911,2.911,0,0,1,18,32a3.009,3.009,0,0,1-3-3,2.964,2.964,0,0,1,.51-1.67.99.99,0,0,0,.13-.88,1.035,1.035,0,0,0-.62-.64A2.968,2.968,0,0,1,13,23a2.935,2.935,0,0,1,3.8-2.87,1,1,0,0,0,.74-.1A3.981,3.981,0,0,0,21,26h.05a10.99,10.99,0,0,0,4.24,7.7A3.014,3.014,0,0,1,24,34Zm-1-9V17a8.912,8.912,0,0,1,2.04-5.7A5.374,5.374,0,0,0,25,12v4a1,1,0,0,0,1,1H38a1,1,0,0,0,1-1V12a5.374,5.374,0,0,0-.04-.7A8.912,8.912,0,0,1,41,17v8a9,9,0,0,1-18,0Zm2.49,15.83A4.969,4.969,0,0,0,29,36.06v-.49a10.8,10.8,0,0,0,6,.01v.48a4.969,4.969,0,0,0,3.51,4.77l6.9,2.16C42.71,44.09,38.05,45,32,45s-10.71-.91-13.41-2.01ZM51,60H45.03a2.655,2.655,0,0,1,.45-1.23A8.855,8.855,0,0,0,47,54a8.723,8.723,0,0,0-2.29-5.71l-1.42,1.42A6.609,6.609,0,0,1,45,54a6.723,6.723,0,0,1-1.18,3.64A4.846,4.846,0,0,0,43.03,60H20.97a4.756,4.756,0,0,0-.8-2.36A6.794,6.794,0,0,1,19,54a6.609,6.609,0,0,1,1.71-4.29l-1.42-1.42A8.723,8.723,0,0,0,17,54a8.855,8.855,0,0,0,1.52,4.77A2.655,2.655,0,0,1,18.97,60H13V49.88a6.956,6.956,0,0,1,3.18-5.85C19.19,45.85,25.26,47,32,47s12.81-1.15,15.82-2.97A6.956,6.956,0,0,1,51,49.88Z"></path><circle cx="28" cy="21" r="2"></circle><circle cx="36" cy="21" r="2"></circle><path d="M35.532,28.542l-1.4-1.424a3.082,3.082,0,0,1-4.256,0l-1.4,1.424a5.007,5.007,0,0,0,7.064,0Z"></path></g></svg>