<svg xmlns="http://www.w3.org/2000/svg" viewBox="0 0 64 64" x="0px" y="0px"><g data-name="Layer 51"><path d="M21,45H53a1,1,0,0,0,1-1V8a1,1,0,0,0-1-1H21a1,1,0,0,0-1,1V44A1,1,0,0,0,21,45ZM22,9H52V43H22Z"></path><path d="M50,10H24a1,1,0,0,0-1,1V41a1,1,0,0,0,1,1H50a1,1,0,0,0,1-1V11A1,1,0,0,0,50,10ZM49,40H25V12H49Z"></path><rect x="30" y="15" width="14" height="2"></rect><rect x="33" y="19" width="8" height="2"></rect><rect x="30" y="35" width="14" height="2"></rect><rect x="33" y="31" width="8" height="2"></rect><path d="M40,26a3,3,0,1,0-3,3A3,3,0,0,0,40,26Zm-4,0a1,1,0,1,1,1,1A1,1,0,0,1,36,26Z"></path><path d="M58,2H12A7.008,7.008,0,0,0,5,9V55a7.008,7.008,0,0,0,7,7H58a1,1,0,0,0,1-1V3A1,1,0,0,0,58,2ZM57,48H17V4H57ZM13,4h2V48H13ZM7,9a5.009,5.009,0,0,1,4-4.9V17.08a6.978,6.978,0,0,0-4,2.031ZM7,24a5.009,5.009,0,0,1,4-4.9V34.08a6.978,6.978,0,0,0-4,2.031Zm4,12.1V48.08a6.988,6.988,0,0,0-4,2.025V41A5.009,5.009,0,0,1,11,36.1ZM12,60a5,5,0,0,1,0-10H57v2H13a3,3,0,0,0,0,6H57v2Zm45-6v2H13a1,1,0,0,1,0-2Z"></path></g></svg>