<svg xmlns="http://www.w3.org/2000/svg" viewBox="0 0 64 64" x="0px" y="0px"><g><polygon points="28 58 26 58 26 59 24 59 24 58 22 58 22 59 20 59 20 58 18 58 18 60 28 60 28 58"></polygon><polygon points="17 54 17 56 27 56 27 54 25 54 25 55 23 55 23 54 21 54 21 55 19 55 19 54 17 54"></polygon><path d="M42.071,32H48V26.071A7.018,7.018,0,0,0,42.071,32Z"></path><polygon points="4 36 48 36 48 34 41 34 11 34 4 34 4 36"></polygon><path d="M4,32H9.929A7.018,7.018,0,0,0,4,26.071Z"></path><polygon points="49 46 49 48 59 48 59 46 57 46 57 47 55 47 55 46 53 46 53 47 51 47 51 46 49 46"></polygon><path d="M48,17.929V12H42.071A7.018,7.018,0,0,0,48,17.929Z"></path><circle cx="26" cy="22" r="5"></circle><path d="M4,24.059A9.013,9.013,0,0,1,11.941,32H40.059A9.013,9.013,0,0,1,48,24.059V19.941A9.013,9.013,0,0,1,40.059,12H11.941A9.013,9.013,0,0,1,4,19.941ZM26,15a7,7,0,1,1-7,7A7.008,7.008,0,0,1,26,15Z"></path><polygon points="49 42 48 42 48 44 58 44 58 42 56 42 56 43 54 43 54 42 52 42 52 43 50 43 50 42 49 42"></polygon><path d="M4,12v5.929A7.018,7.018,0,0,0,9.929,12Z"></path><polygon points="4 40 47 40 48 40 48 38 4 38 4 40"></polygon><polygon points="4 44 32 44 44 44 46 44 46 42 4 42 4 44"></polygon><polygon points="60 58 58 58 58 59 56 59 56 58 54 58 54 59 52 59 52 58 50 58 50 60 60 60 60 58"></polygon><polygon points="60 50 58 50 58 51 56 51 56 50 54 50 54 51 52 51 52 50 50 50 50 52 60 52 60 50"></polygon><polygon points="44 50 42 50 42 51 40 51 40 50 38 50 38 51 36 51 36 50 34 50 34 52 44 52 44 50"></polygon><polygon points="59 54 57 54 57 55 55 55 55 54 53 54 53 55 51 55 51 54 49 54 49 56 59 56 59 54"></polygon><polygon points="33 46 33 48 43 48 43 46 41 46 41 47 39 47 39 46 37 46 37 47 35 47 35 46 33 46"></polygon><polygon points="43 54 41 54 41 55 39 55 39 54 37 54 37 55 35 55 35 54 33 54 33 56 43 56 43 54"></polygon><polygon points="44 58 42 58 42 59 40 59 40 58 38 58 38 59 36 59 36 58 34 58 34 60 44 60 44 58"></polygon></g></svg>