<svg xmlns="http://www.w3.org/2000/svg" viewBox="0 0 64 64" x="0px" y="0px"><g><path d="M55,47V30H9V54H55V52H52V50h3V49H50V47ZM32,52A10,10,0,1,1,42,42,10.011,10.011,0,0,1,32,52Zm18,0H48V50h2Z"></path><circle cx="32" cy="42" r="8"></circle><path d="M11,4a1,1,0,0,0-1,1v8a1,1,0,0,0,1,1H53a1,1,0,0,0,1-1V5a1,1,0,0,0-1-1H49v7H47V4H41v7H39V4H33v7H31V4H25v7H23V4H17v7H15V4Z"></path><rect x="9" y="56" width="46" height="4"></rect><path d="M54.92,28A7.006,7.006,0,0,0,48,22H16a7.006,7.006,0,0,0-6.92,6Z"></path><polygon points="15 20 16 20 48 20 49 20 49 16 15 16 15 20"></polygon></g></svg>