<svg xmlns="http://www.w3.org/2000/svg" viewBox="0 0 64 64" x="0px" y="0px"><g data-name="Hacker"><path d="M32.019,12H32a10.062,10.062,0,0,0-9.79,8H41.788A9.932,9.932,0,0,0,32.019,12Z"></path><path d="M32.866,27.5a1.029,1.029,0,0,0-1.732,0,1,1,0,0,1-.864.5H22.218a9.868,9.868,0,0,0,1.814,4H39.966a9.955,9.955,0,0,0,1.814-4H33.73A1,1,0,0,1,32.866,27.5Z"></path><circle cx="37" cy="23" r="1"></circle><circle cx="27" cy="23" r="1"></circle><path d="M44,26.02V27h-.038l0,.064A12,12,0,0,1,42.384,32h2.259A14.133,14.133,0,0,0,46,26.016v-4A14,14,0,0,0,32.029,8h-.017A14.033,14.033,0,0,0,18,21.982v4A13.957,13.957,0,0,0,19.354,32h2.258a11.933,11.933,0,0,1-1.568-4.908c-.023-.381-.044-.741-.044-1.112v-4c0-.361.021-.723.054-1.073A12.066,12.066,0,0,1,32,10h.02A11.927,11.927,0,0,1,43.946,20.911c0,.025.005.061.009.089H44v5.02Z"></path><path d="M32.029,4h-.017A18.033,18.033,0,0,0,14,21.972v4A18.086,18.086,0,0,0,15.044,32h2.131A16.014,16.014,0,0,1,16,25.98v-4A16.038,16.038,0,0,1,32.012,6h.019A16,16,0,0,1,48,22.022v4A16.162,16.162,0,0,1,46.819,32h2.129A17.989,17.989,0,0,0,50,26.026v-4A18.01,18.01,0,0,0,32.029,4Z"></path><path d="M24,23a2.966,2.966,0,0,1,.184-1H22v4h5A3,3,0,0,1,24,23Z"></path><path d="M42,22.02V22H39.816A2.966,2.966,0,0,1,40,23a3,3,0,0,1-3,3h5Z"></path><path d="M34,23a2.966,2.966,0,0,1,.184-1H29.816A2.966,2.966,0,0,1,30,23a3,3,0,0,1-3,3h2.765c.024-.026.053-.045.078-.071.055-.058.115-.106.174-.159a2.92,2.92,0,0,1,.383-.293,2.337,2.337,0,0,1,.216-.126,2.808,2.808,0,0,1,.453-.188c.071-.023.139-.051.212-.069a2.8,2.8,0,0,1,1.438,0c.073.018.141.046.212.069a2.808,2.808,0,0,1,.453.188,2.337,2.337,0,0,1,.216.126,2.92,2.92,0,0,1,.383.293c.059.053.119.1.174.159.025.026.054.045.078.071H37A3,3,0,0,1,34,23Z"></path><polygon points="4 54 13.499 54 13.213 50 4 50 4 54"></polygon><path d="M4.176,48H13.07l-.419-5.86A68.011,68.011,0,0,0,4.176,48Z"></path><path d="M14.074,34l1.859,26H48.069l1.858-26ZM32,53a5,5,0,1,1,5-5A5.006,5.006,0,0,1,32,53Z"></path><polygon points="60 56 50.36 56 50.074 60 60 60 60 56"></polygon><path d="M50.931,48h8.893a67.564,67.564,0,0,0-8.476-5.84Z"></path><polygon points="60 50 50.788 50 50.503 54 60 54 60 50"></polygon><polygon points="4 60 13.928 60 13.642 56 4 56 4 60"></polygon><circle cx="32" cy="48" r="3"></circle></g></svg>