<svg xmlns="http://www.w3.org/2000/svg" viewBox="0 0 64 64" x="0px" y="0px"><g data-name="Phone Call-Contact-Communication-Smartphone-Application"><path d="M26.62,36l-.26.52,1.2.9.51-1.29A6.882,6.882,0,0,0,26.78,36Z"></path><path d="M42,54H6v2a4,4,0,0,0,4,4H38a4,4,0,0,0,4-4ZM25,58H23V56h2Z"></path><path d="M27.47,21.04A3.989,3.989,0,0,0,20,23a8.622,8.622,0,0,0,3.61-.92A11.216,11.216,0,0,1,27.47,21.04Z"></path><path d="M49.42,30.994,49.414,31l2.068,2.068a6.93,6.93,0,0,0,1.253-.919L50.5,29.914Z"></path><path d="M24,31a4,4,0,0,0,4-4V23a8.622,8.622,0,0,0-3.61.92A10.362,10.362,0,0,1,20,25v2A4,4,0,0,0,24,31Z"></path><path d="M44.006,25.58l1.08-1.08-2.235-2.235a6.929,6.929,0,0,0-.92,1.252L44,25.586Z"></path><path d="M48,16A11,11,0,1,0,59,27,11.007,11.007,0,0,0,48,16Zm1,7a3,3,0,0,1,3,3H50a1,1,0,0,0-1-1Zm5.9,9.771A8.964,8.964,0,0,1,47.99,36a9.26,9.26,0,0,1-1.183-.076A8.995,8.995,0,0,1,42.229,20.1a1,1,0,0,1,1.348.061l3.63,3.63a1,1,0,0,1,0,1.414L45.42,26.994a.956.956,0,0,0-.266.958,3.013,3.013,0,0,0,1.894,1.894.956.956,0,0,0,.958-.266l1.787-1.787a1,1,0,0,1,1.414,0l3.63,3.63A1,1,0,0,1,54.9,32.771ZM54,26a5.006,5.006,0,0,0-5-5V19a7.008,7.008,0,0,1,7,7Z"></path><path d="M42,38.52a12.979,12.979,0,0,1,0-23.04V12H6V52H42ZM35,45a1,1,0,0,1-1,1H14a1,1,0,0,1-1-1V41.4a7.075,7.075,0,0,1,3.39-6.01l.21-.12A8.968,8.968,0,0,1,21,34V32.19a6.006,6.006,0,0,1-2.91-4.2c-.03,0-.06.01-.09.01a2,2,0,0,1,0-4V23a6,6,0,0,1,12,0v1a2,2,0,0,1,0,4c-.03,0-.06-.01-.09-.01A6.006,6.006,0,0,1,27,32.19V34a9.008,9.008,0,0,1,4.42,1.28l.17.1A7.079,7.079,0,0,1,35,41.4Z"></path><path d="M46.414,31.743a5.022,5.022,0,0,1-3.157-3.157,2.769,2.769,0,0,1-.13-1.045l-1.974-1.974a7.115,7.115,0,0,0-.092,2.37,7.039,7.039,0,0,0,6,6,7.135,7.135,0,0,0,2.369-.093l-1.973-1.972A2.79,2.79,0,0,1,46.414,31.743Z"></path><path d="M23,32.91v1.85l1,2,1-2V32.91a5.6,5.6,0,0,1-2,0Z"></path><path d="M6,10H42V8a4,4,0,0,0-4-4H10A4,4,0,0,0,6,8ZM21,6h6V8H21ZM17,6h2V8H17Z"></path><path d="M30.57,37.11l-.17-.1c-.14-.09-.29-.15-.44-.23l-1.03,2.59a1,1,0,0,1-.66.59A.842.842,0,0,1,28,40a1.029,1.029,0,0,1-.6-.2l-1.95-1.46-.56,1.11a1,1,0,0,1-1.78,0l-.56-1.11L20.6,39.8a1.029,1.029,0,0,1-.6.2.842.842,0,0,1-.27-.04,1,1,0,0,1-.66-.59l-1.03-2.59a3.356,3.356,0,0,0-.42.22l-.21.12A5.032,5.032,0,0,0,15,41.4V44H33V41.4A5.036,5.036,0,0,0,30.57,37.11Z"></path><path d="M21.64,36.52,21.38,36h-.16a6.882,6.882,0,0,0-1.29.13l.51,1.29Z"></path></g></svg>