<svg xmlns="http://www.w3.org/2000/svg" viewBox="0 0 64 64" x="0px" y="0px"><g><path d="M60,7a3,3,0,0,0-3-3H7A3,3,0,0,0,4,7v5H6a2,2,0,0,1,2,2V28a2,2,0,0,1-2,2H4v6a3,3,0,0,0,3,3H38.184A2.953,2.953,0,0,1,42,37.182V28a3,3,0,0,1,3-3,3.015,3.015,0,0,1,3,3v7.184a2.928,2.928,0,0,1,3.126.708,2.8,2.8,0,0,1,.406.508,2.946,2.946,0,0,1,3.594.492,2.8,2.8,0,0,1,.406.508,2.946,2.946,0,0,1,3.594.492c.032.032.058.068.089.1A2.976,2.976,0,0,0,60,36ZM14,8h2v2H14ZM10,8h2v2H10ZM20,35H10V33H20Zm0-4H10V29H20Zm0-21H18V8h2ZM32,32A11,11,0,1,1,43,21,11.013,11.013,0,0,1,32,32ZM46,11h2v2H46ZM56,21H46V19H56Zm0-4H46V15H56Zm0-4H50V11h6Z"></path><path d="M32,12a9,9,0,1,0,9,9A9.01,9.01,0,0,0,32,12Zm-1,8h2a3,3,0,0,1,0,6v2H31V26a3,3,0,0,1-3-3h2a1,1,0,0,0,1,1h2a1,1,0,0,0,0-2H31a3,3,0,0,1,0-6V14h2v2a3,3,0,0,1,3,3H34a1,1,0,0,0-1-1H31a1,1,0,0,0,0,2Z"></path><rect x="4" y="14" width="2" height="14"></rect><path d="M56,60V56a1.012,1.012,0,0,1,.071-.372L58,50.808V40a.7.7,0,0,0-.023-.2A1.021,1.021,0,0,0,57.7,39.3.966.966,0,0,0,57,39a1,1,0,0,0-1,1v2H54V39a.965.965,0,0,0-.287-.694A.978.978,0,0,0,53,38a1,1,0,0,0-1,1v3H50V38a.965.965,0,0,0-.287-.694A.978.978,0,0,0,49,37a1,1,0,0,0-1,1v4H46V28a.965.965,0,0,0-.287-.694A.978.978,0,0,0,45,27a1,1,0,0,0-1,1V46H42V40a.965.965,0,0,0-.287-.694A.978.978,0,0,0,41,39a1,1,0,0,0-1,1V50.649l3.781,4.726A1,1,0,0,1,44,56v4Z"></path><path d="M29.293,43.293l-3,3,1.414,1.414L29,46.414V54h2V46.414l1.293,1.293,1.414-1.414-3-3A1,1,0,0,0,29.293,43.293Z"></path><path d="M18.293,47.293l-3,3,1.414,1.414L18,50.414V58h2V50.414l1.293,1.293,1.414-1.414-3-3A1,1,0,0,0,18.293,47.293Z"></path><path d="M7.293,45.293l-3,3,1.414,1.414L7,48.414V56H9V48.414l1.293,1.293,1.414-1.414-3-3A1,1,0,0,0,7.293,45.293Z"></path><rect x="29" y="56" width="2" height="2"></rect><rect x="29" y="60" width="2" height="2"></rect><rect x="18" y="60" width="2" height="2"></rect><rect x="7" y="58" width="2" height="2"></rect></g></svg>