<svg xmlns="http://www.w3.org/2000/svg" viewBox="0 0 48 48" x="0px" y="0px"><title>Calendar</title><g><path d="M24,0A24,24,0,1,0,48,24,24.028,24.028,0,0,0,24,0Zm0,46A22,22,0,1,1,46,24,22.025,22.025,0,0,1,24,46Z"></path><path d="M37,13H32V11H30v2H25V11H23v2H17V11H15v2H11a2,2,0,0,0-2,2V33a2,2,0,0,0,2,2H37a2,2,0,0,0,2-2V15A2,2,0,0,0,37,13ZM15,15v2h2V15h6v2h2V15h5v2h2V15h5v3H11V15ZM11,33V20H37V33Z"></path><rect x="21" y="23" width="2" height="2"></rect><rect x="25" y="23" width="2" height="2"></rect><rect x="29" y="23" width="2" height="2"></rect><rect x="33" y="23" width="2" height="2"></rect><rect x="17" y="23" width="2" height="2"></rect><rect x="13" y="23" width="2" height="2"></rect><rect x="21" y="28" width="2" height="2"></rect><rect x="25" y="28" width="2" height="2"></rect><rect x="29" y="28" width="2" height="2"></rect><rect x="33" y="28" width="2" height="2"></rect><rect x="17" y="28" width="2" height="2"></rect><rect x="13" y="28" width="2" height="2"></rect></g></svg>