<svg xmlns="http://www.w3.org/2000/svg" viewBox="0 0 64 64" x="0px" y="0px"><g data-name="coffee cup-coffee mug-espresso-drink-coffee"><path d="M8.17,54A3.014,3.014,0,0,0,11,56H53a3.014,3.014,0,0,0,2.83-2Z"></path><path d="M45.28,52c3.52-10.75,5.18-19,3.93-31.09a1,1,0,0,0-1-.91H15.79a1,1,0,0,0-1,.91C13.54,33,15.2,41.25,18.72,52Z"></path><rect x="19" y="58" width="26" height="2"></rect><path d="M26,16h2a2.258,2.258,0,0,1,.759-1.681,4.208,4.208,0,0,0,0-5.968,2.244,2.244,0,0,1,0-3.366A4.171,4.171,0,0,0,30,2H28a2.259,2.259,0,0,1-.76,1.683,4.212,4.212,0,0,0,0,5.969,2.243,2.243,0,0,1,0,3.365A4.164,4.164,0,0,0,26,16Z"></path><path d="M34,16h2a2.258,2.258,0,0,1,.759-1.681,4.208,4.208,0,0,0,0-5.968,2.244,2.244,0,0,1,0-3.366A4.171,4.171,0,0,0,38,2H36a2.259,2.259,0,0,1-.76,1.683,4.212,4.212,0,0,0,0,5.969,2.243,2.243,0,0,1,0,3.365A4.164,4.164,0,0,0,34,16Z"></path></g></svg>