<svg xmlns="http://www.w3.org/2000/svg" viewBox="0 0 64 64" x="0px" y="0px"><g><rect x="11" y="16" width="4" height="2"></rect><rect x="17" y="16" width="12" height="2"></rect><rect x="11" y="22" width="18" height="2"></rect><rect x="11" y="28" width="12" height="2"></rect><rect x="11" y="34" width="18" height="2"></rect><rect x="11" y="40" width="18" height="2"></rect><rect x="11" y="46" width="18" height="2"></rect><path d="M61,14H57V11a1,1,0,0,0-1-1H53.88a4.987,4.987,0,0,0-9.8-.989L43.818,10H36a5,5,0,0,0-4,2,5,5,0,0,0-4-2H8a1,1,0,0,0-1,1v3H3a1,1,0,0,0-1,1V57a1,1,0,0,0,1,1H61a1,1,0,0,0,1-1V15A1,1,0,0,0,61,14ZM44.228,37.374l-2.6,2.038-.966-.259-1.23-3.064,2.717-.556Zm6.546-22.429-5.8-1.553.259-.966,5.8,1.553Zm-6.312.379,1.932.517L41.635,33.6l-2.19.448ZM45.241,35.6l-1.674-1.484,4.758-17.756,1.932.518Zm.774-26.071a3,3,0,0,1,3.673-2.121,3.005,3.005,0,0,1,2.123,3.674l-.26.966-5.8-1.552ZM36,12h7.282L37.1,35.091a1.822,1.822,0,0,0-.03.22,1.919,1.919,0,0,0,.068.411l1.862,4.64a1,1,0,0,0,.669.594h0l-.518,1.932a1,1,0,0,0,.708,1.224.962.962,0,0,0,.259.035,1,1,0,0,0,.965-.742l.518-1.932a1,1,0,0,0,.876-.179l3.933-3.087a1.946,1.946,0,0,0,.264-.322,1.747,1.747,0,0,0,.085-.206l5.693-21.25.776-2.9L53.635,12H55V52H36a4.967,4.967,0,0,0-3,1.012V15A3,3,0,0,1,36,12ZM9,12H28a3,3,0,0,1,3,3V53.012A4.967,4.967,0,0,0,28,52H9ZM4,16H7V53a1,1,0,0,0,1,1H28a3,3,0,0,1,2.816,2H4ZM60,56H33.184A3,3,0,0,1,36,54H56a1,1,0,0,0,1-1V16h3Z"></path><rect x="25" y="28" width="4" height="2"></rect></g></svg>