<svg xmlns="http://www.w3.org/2000/svg" viewBox="0 0 64 64" x="0px" y="0px"><g data-name="Audio Book"><path d="M25,31h3.764l5.314,2.657A3,3,0,0,0,40,33V29.858a3.981,3.981,0,0,0,0-7.716V19a3,3,0,0,0-5.922-.657L28.764,21H25a3,3,0,0,0-3,3v4A3,3,0,0,0,25,31Zm16-5a1.993,1.993,0,0,1-1,1.722V24.278A1.993,1.993,0,0,1,41,26Zm-5-7a1,1,0,0,1,2,0V33a1,1,0,0,1-2,0Zm-6,3.618,4-2V31.382l-4-2ZM24,24a1,1,0,0,1,1-1h3v6H25a1,1,0,0,1-1-1Z"></path><path d="M45.657,31.657a8.012,8.012,0,0,0,0-11.314l-1.414,1.414a6.008,6.008,0,0,1,0,8.486Z"></path><path d="M47.071,33.071l1.414,1.414a12.013,12.013,0,0,0,0-16.97l-1.414,1.414A10.009,10.009,0,0,1,47.071,33.071Z"></path><path d="M58,2H12A7.009,7.009,0,0,0,5,9V55a7.009,7.009,0,0,0,7,7H58a1,1,0,0,0,1-1V3A1,1,0,0,0,58,2ZM57,48H17V4H57ZM13,4h2V48H13ZM7,9a5.009,5.009,0,0,1,4-4.9V17.08a6.978,6.978,0,0,0-4,2.031ZM7,24a5.009,5.009,0,0,1,4-4.9V34.08a6.978,6.978,0,0,0-4,2.031Zm4,12.1V48.08a6.988,6.988,0,0,0-4,2.025V41A5.009,5.009,0,0,1,11,36.1ZM12,60a5,5,0,0,1,0-10H57v2H13a3,3,0,0,0,0,6H57v2Zm45-6v2H13a1,1,0,0,1,0-2Z"></path></g></svg>