<svg xmlns="http://www.w3.org/2000/svg" viewBox="0 0 64 64" x="0px" y="0px"><g data-name="Process File"><path d="M57,2H25a3,3,0,0,0-3,3V24h2V5a1,1,0,0,1,1-1H48v7a1,1,0,0,0,1.707.707L52,9.414l2.293,2.293A1,1,0,0,0,56,11V4h1a1,1,0,0,1,1,1V52a1,1,0,0,1-1,1H39v2H57a3,3,0,0,0,3-3V5A3,3,0,0,0,57,2ZM54,8.586,52.707,7.293a1,1,0,0,0-1.414,0L50,8.586V4h4Z"></path><path d="M34.578,50.147a14,14,0,0,0,.657-1.6l3.907-.558A1,1,0,0,0,40,47V41a1,1,0,0,0-.858-.99l-3.907-.558a14,14,0,0,0-.657-1.6L36.942,34.7a1,1,0,0,0-.092-1.307l-4.244-4.243a1,1,0,0,0-1.306-.093l-3.154,2.364a13.905,13.905,0,0,0-1.6-.657l-.558-3.906A1,1,0,0,0,25,26H19a1,1,0,0,0-.99.859l-.558,3.906a13.905,13.905,0,0,0-1.6.657L12.7,29.058a1,1,0,0,0-1.306.093L7.15,33.394A1,1,0,0,0,7.058,34.7l2.364,3.152a14,14,0,0,0-.657,1.6l-3.907.558A1,1,0,0,0,4,41v6a1,1,0,0,0,.858.99l3.907.558a14,14,0,0,0,.657,1.6L7.058,53.3a1,1,0,0,0,.092,1.307l4.244,4.243a1,1,0,0,0,1.306.093l3.153-2.364a13.921,13.921,0,0,0,1.6.657l.558,3.906A1,1,0,0,0,19,62h6a1,1,0,0,0,.99-.859l.558-3.906a13.921,13.921,0,0,0,1.6-.657L31.3,58.942a1,1,0,0,0,1.306-.093l4.244-4.243a1,1,0,0,0,.092-1.307Zm-2.772,6.675L28.845,54.6a1,1,0,0,0-1.081-.077,11.9,11.9,0,0,1-2.4.987,1,1,0,0,0-.71.819L24.133,60H19.867l-.523-3.669a1,1,0,0,0-.71-.819,11.9,11.9,0,0,1-2.4-.987,1,1,0,0,0-1.081.077l-2.961,2.22L9.178,53.806l2.22-2.961a1,1,0,0,0,.077-1.081,11.939,11.939,0,0,1-.987-2.4,1,1,0,0,0-.818-.71L6,46.133V41.867l3.67-.524a1,1,0,0,0,.818-.71,11.939,11.939,0,0,1,.987-2.4,1,1,0,0,0-.077-1.081l-2.22-2.961,3.016-3.016,2.961,2.22a1,1,0,0,0,1.081.077,12,12,0,0,1,2.4-.987,1,1,0,0,0,.71-.819L19.867,28h4.266l.523,3.669a1,1,0,0,0,.71.819,12,12,0,0,1,2.4.987,1,1,0,0,0,1.081-.077l2.961-2.22,3.016,3.016L32.6,37.155a1,1,0,0,0-.077,1.081,11.939,11.939,0,0,1,.987,2.4,1,1,0,0,0,.818.71l3.67.524v4.266l-3.67.524a1,1,0,0,0-.818.71,11.939,11.939,0,0,1-.987,2.4,1,1,0,0,0,.077,1.081l2.22,2.961Z"></path><rect x="21" y="30" width="2" height="2"></rect><rect x="11.808" y="33.808" width="2" height="2" transform="translate(-20.861 19.251) rotate(-45)"></rect><rect x="8" y="43" width="2" height="2"></rect><rect x="11.808" y="52.192" width="2" height="2" transform="translate(-33.861 24.636) rotate(-45)"></rect><rect x="21" y="56" width="2" height="2"></rect><rect x="30.192" y="52.192" width="2" height="2" transform="translate(-28.477 37.636) rotate(-45)"></rect><rect x="34" y="43" width="2" height="2"></rect><rect x="30.192" y="33.808" width="2" height="2" transform="translate(-15.477 32.251) rotate(-45)"></rect><path d="M22,36a8,8,0,1,0,8,8A8.009,8.009,0,0,0,22,36Zm0,14a6,6,0,1,1,6-6A6.006,6.006,0,0,1,22,50Z"></path><rect x="28" y="8" width="6" height="2"></rect><rect x="36" y="8" width="4" height="2"></rect><rect x="28" y="14" width="16" height="2"></rect><rect x="28" y="22" width="26" height="2"></rect><rect x="42" y="28" width="12" height="2"></rect><rect x="42" y="34" width="12" height="2"></rect><rect x="42" y="40" width="12" height="2"></rect></g></svg>