<svg xmlns="http://www.w3.org/2000/svg" viewBox="0 0 64 64" x="0px" y="0px"><g data-name="Graphic Design-Sketch-Gear-Art-Design"><rect x="17" y="54" width="28" height="4"></rect><polygon points="49.764 56 47 54.618 47 57.382 49.764 56"></polygon><path d="M14,57h1V55H14a1,1,0,0,0,0,2Z"></path><path d="M39.032,33.926a1,1,0,0,1-.042-1.04,7.951,7.951,0,0,0,.7-1.69,1,1,0,0,1,.765-.706L42,30.18V27.82l-1.548-.31a1,1,0,0,1-.765-.706,7.951,7.951,0,0,0-.7-1.69,1,1,0,0,1,.042-1.04l.873-1.31-1.669-1.67-1.31.874a1,1,0,0,1-1.042.041,7.946,7.946,0,0,0-1.688-.7,1,1,0,0,1-.706-.765L33.181,19H30.819l-.309,1.548a1,1,0,0,1-.706.765,7.946,7.946,0,0,0-1.688.7,1,1,0,0,1-1.042-.041l-1.31-.874L24.1,22.764l.873,1.31a1,1,0,0,1,.042,1.04,7.951,7.951,0,0,0-.7,1.69,1,1,0,0,1-.765.706L22,27.82v2.36l1.548.31a1,1,0,0,1,.765.706,7.951,7.951,0,0,0,.7,1.69,1,1,0,0,1-.042,1.04l-.873,1.31,1.669,1.67,1.31-.874a1,1,0,0,1,1.042-.041,7.946,7.946,0,0,0,1.688.7,1,1,0,0,1,.706.765L30.819,39h2.362l.309-1.548a1,1,0,0,1,.706-.765,7.946,7.946,0,0,0,1.688-.7,1,1,0,0,1,1.042.041l1.31.874,1.669-1.67ZM32,35a6,6,0,1,1,6-6A6.006,6.006,0,0,1,32,35Z"></path><circle cx="32" cy="29" r="4"></circle><path d="M4,39.54a5.976,5.976,0,0,1,8-.008V9A4,4,0,0,0,4,9Z"></path><path d="M60,9a4,4,0,0,0-8,0V39.532a5.976,5.976,0,0,1,8,.008Z"></path><path d="M56,40a4,4,0,0,0-4,4,1,1,0,0,1-2,0V10H14V44a1,1,0,0,1-2,0,4,4,0,1,0-4,4H56a4,4,0,0,0,0-8ZM47.714,25.825l-1.932.517-.517-1.931,1.931-.518Zm-1.358-3.959-1.732,1-1-1.732,1.732-1Zm-3.75-4.887,1.415,1.415-1.415,1.414-1.414-1.414Zm-3.472-2.335,1.732,1-1,1.731-1.732-1Zm-3.959-1.357,1.931.517-.517,1.932-1.932-.518ZM31,13h2v2H31Zm-2.175.287.518,1.931-1.932.518L26.894,13.8Zm-3.959,1.357,1,1.731-1.732,1-1-1.731Zm-3.472,2.335,1.414,1.415-1.414,1.414-1.415-1.414Zm-2.75,3.155,1.732,1-1,1.732-1.732-1ZM16.8,23.893l1.931.518-.517,1.931-1.932-.517ZM16,28h2v2H16Zm.286,4.175,1.932-.517.517,1.931-1.931.518Zm1.358,3.959,1.732-1,1,1.732-1.732,1Zm3.75,4.887-1.415-1.415,1.415-1.414,1.414,1.414Zm3.472,2.335-1.732-1,1-1.731,1.732,1Zm3.959,1.357L26.894,44.2l.517-1.932,1.932.518ZM33,45H31V43h2Zm2.175-.287-.518-1.931,1.932-.518.517,1.932Zm1.131-6.691a10.076,10.076,0,0,1-.97.4L34.98,40.2A1,1,0,0,1,34,41H30a1,1,0,0,1-.98-.8l-.356-1.774a10.076,10.076,0,0,1-.97-.4l-1.5,1a1,1,0,0,1-1.261-.125L22.1,36.071a1,1,0,0,1-.125-1.262l1-1.5a9.7,9.7,0,0,1-.4-.971L20.8,31.98A1,1,0,0,1,20,31V27a1,1,0,0,1,.8-.98l1.774-.355a9.7,9.7,0,0,1,.4-.971l-1-1.5a1,1,0,0,1,.125-1.262L24.929,19.1a1,1,0,0,1,1.261-.125l1.5,1a10.076,10.076,0,0,1,.97-.4L29.02,17.8A1,1,0,0,1,30,17h4a1,1,0,0,1,.98.8l.356,1.774a10.076,10.076,0,0,1,.97.4l1.5-1a1,1,0,0,1,1.261.125L41.9,21.929a1,1,0,0,1,.125,1.262l-1,1.5a9.7,9.7,0,0,1,.4.971l1.774.355A1,1,0,0,1,44,27v4a1,1,0,0,1-.8.98l-1.774.355a9.7,9.7,0,0,1-.4.971l1,1.5a1,1,0,0,1-.125,1.262L39.071,38.9a1,1,0,0,1-1.261.125Zm2.828,5.334-1-1.731,1.732-1,1,1.731Zm3.472-2.335-1.414-1.415,1.414-1.414,1.415,1.414Zm2.75-3.155-1.732-1,1-1.732,1.732,1Zm1.84-3.759-1.931-.518.517-1.931,1.932.517ZM48,30H46V28h2Z"></path></g></svg>