<svg xmlns="http://www.w3.org/2000/svg" viewBox="0 0 64 64" x="0px" y="0px"><g data-name="Money Tree"><path d="M39,11a7,7,0,1,0-7,7A7.008,7.008,0,0,0,39,11ZM29,13h2a1,1,0,1,0,1-1,2.993,2.993,0,0,1-1-5.816V5h2V6.184A3,3,0,0,1,35,9H33a1,1,0,1,0-1,1,2.993,2.993,0,0,1,1,5.816V17H31V15.816A3,3,0,0,1,29,13Z"></path><circle cx="14" cy="23" r="1"></circle><path d="M6,19v8H22V19Zm3,5H7V22H9Zm5,2a3,3,0,1,1,3-3A3,3,0,0,1,14,26Zm7-2H19V22h2Z"></path><circle cx="50" cy="28" r="1"></circle><path d="M42,24v8H58V24Zm3,5H43V27h2Zm5,2a3,3,0,1,1,3-3A3,3,0,0,1,50,31Zm7-2H55V27h2Z"></path><path d="M37.293,27.293,33,31.586V20H31v5.586l-3.293-3.293A1,1,0,0,0,27,22H24v2h2.586L31,28.414V42h2V34.414L38.414,29H40V27H38A1,1,0,0,0,37.293,27.293Z"></path><path d="M23,38a8,8,0,1,0,8,8A8.009,8.009,0,0,0,23,38Zm0,7a2.993,2.993,0,0,1,1,5.816V52H22V50.816A3,3,0,0,1,20,48h2a1,1,0,1,0,1-1,2.993,2.993,0,0,1-1-5.816V40h2v1.184A3,3,0,0,1,26,44H24a1,1,0,1,0-1,1ZM7.069,44.207l3.94.694.347-1.97-3.939-.694Zm8.153-7.4-2.828-2.829-1.415,1.415,2.829,2.828Z"></path><polygon points="48 46 46 46 46 44 44 44 44 46 42 46 42 44 40 44 40 46 38 46 38 44 36 44 36 46 34 46 34 44 33 44 33 48 49 48 49 44 48 44 48 46"></polygon><polygon points="49 50 48 50 48 52 46 52 46 50 44 50 44 52 42 52 42 50 40 50 40 52 38 52 38 50 36 50 36 52 34 52 34 50 33 50 33 54 49 54 49 50"></polygon><polygon points="31 56 30 56 30 58 28 58 28 56 26 56 26 58 24 58 24 56 22 56 22 58 20 58 20 56 18 56 18 58 16 58 16 56 15 56 15 60 31 60 31 56"></polygon><polygon points="49 56 48 56 48 58 46 58 46 56 44 56 44 58 42 58 42 56 40 56 40 58 38 58 38 56 36 56 36 58 34 58 34 56 33 56 33 60 49 60 49 56"></polygon></g></svg>