<svg xmlns="http://www.w3.org/2000/svg" viewBox="0 0 64 64" x="0px" y="0px"><g><circle cx="19" cy="24" r="2"></circle><circle cx="27" cy="24" r="2"></circle><path d="M23,32a4.994,4.994,0,0,0,3.307-1.25l-1.323-1.5a3.076,3.076,0,0,1-3.968,0l-1.323,1.5A4.994,4.994,0,0,0,23,32Z"></path><path d="M37.68,42.29,28,39.26v-.4A4.231,4.231,0,0,0,29,39a3.93,3.93,0,0,0,2.61-1h8.16a3.006,3.006,0,0,0,2.98-3.33L41,18.94V15a1,1,0,0,0-1-1H34.95a10.919,10.919,0,0,0-3.17-6.78,11.048,11.048,0,0,0-5.91-3.06,2.978,2.978,0,0,0-5.73.01A10.929,10.929,0,0,0,11.05,14H6a1,1,0,0,0-1,1v3.94L3.25,34.67A3.006,3.006,0,0,0,6.23,38h8.16A3.969,3.969,0,0,0,17,39a4.231,4.231,0,0,0,1-.14v.4L8.32,42.29A8.959,8.959,0,0,0,2,50.88V61a1,1,0,0,0,1,1H43a1,1,0,0,0,1-1V50.88A8.959,8.959,0,0,0,37.68,42.29ZM36,43.86l1.09.34A6.958,6.958,0,0,1,41.93,50H36ZM34.37,31.55A1.965,1.965,0,0,1,35,33a2.006,2.006,0,0,1-2,2,1.835,1.835,0,0,1-.73-.15,1.043,1.043,0,0,0-.83.04.987.987,0,0,0-.52.64,1.9,1.9,0,0,1-.44.81,2.052,2.052,0,0,1-2.41.41A11.015,11.015,0,0,0,33.95,28H34a3.961,3.961,0,0,0,1.92-.51A1.7,1.7,0,0,1,36,28a1.991,1.991,0,0,1-1.3,1.87,1,1,0,0,0-.33,1.68ZM34,26V22a2.006,2.006,0,0,1,2,2,2.015,2.015,0,0,1-2,2Zm6.76,8.89a1.012,1.012,0,0,1-.25.78,1,1,0,0,1-.74.33H35.63a3.981,3.981,0,0,0,.89-4.9A3.987,3.987,0,0,0,38,28a4.045,4.045,0,0,0-.55-2.01A3.944,3.944,0,0,0,38,24a4,4,0,0,0-4-4h5.1ZM39,16v2H26.97a4.84,4.84,0,0,0,.93-2ZM26,6.23A9.025,9.025,0,0,1,32.95,14H27.9A5.013,5.013,0,0,0,26,11.03ZM22,5a1,1,0,0,1,1-1,1.015,1.015,0,0,1,1,1.05V10.1a5.05,5.05,0,0,0-2,0Zm1,7a3,3,0,1,1-3,3A3.009,3.009,0,0,1,23,12ZM20,6.23v4.8A5.013,5.013,0,0,0,18.1,14H13.05A8.956,8.956,0,0,1,20,6.23ZM7,16H18.1a4.84,4.84,0,0,0,.93,2H7ZM6.23,36a1,1,0,0,1-.74-.33,1.012,1.012,0,0,1-.25-.78L6.9,20H12a4,4,0,0,0-4,4,3.944,3.944,0,0,0,.55,1.99A4.045,4.045,0,0,0,8,28a3.987,3.987,0,0,0,1.48,3.1,3.981,3.981,0,0,0,.89,4.9ZM12,22v4a2.015,2.015,0,0,1-2-2A2.006,2.006,0,0,1,12,22Zm3.51,14.33a1.89,1.89,0,0,1-.43-.8.987.987,0,0,0-.52-.64,1.043,1.043,0,0,0-.83-.04A1.835,1.835,0,0,1,13,35a2.006,2.006,0,0,1-2-2,1.965,1.965,0,0,1,.63-1.45,1,1,0,0,0-.33-1.68A1.991,1.991,0,0,1,10,28a1.7,1.7,0,0,1,.08-.51A3.961,3.961,0,0,0,12,28h.05a11.015,11.015,0,0,0,5.88,8.75A2.027,2.027,0,0,1,15.51,36.33ZM14,27V20H32v7a9,9,0,0,1-18,0ZM10,60H4V56h6Zm0-6H4V52h6Zm0-4H4.07a6.958,6.958,0,0,1,4.84-5.8L10,43.86ZM20,60H12V56h8Zm0-6H12V52h8Zm0-4H12V43.24L19.15,41H20Zm4,10H22V41h2ZM20,39V37.57a10.68,10.68,0,0,0,6,0V39ZM34,60H26V56h8Zm0-6H26V52h8Zm0-4H26V41h.85L34,43.24Zm8,10H36V56h6Zm0-6H36V52h6Z"></path><path d="M60.95,35.68A1.028,1.028,0,0,0,59.92,35L55,35.38V33a1,1,0,0,0-1-1H50a1,1,0,0,0-1,1v2.84L46.92,36A1,1,0,0,0,46,37V47a1,1,0,0,0,.92,1l2.08.16V61a1,1,0,0,0,1,1h4a1,1,0,0,0,1-1V48.62l4.92.38H60a1,1,0,0,0,.95-.68A22.807,22.807,0,0,0,62,42,22.807,22.807,0,0,0,60.95,35.68ZM51,34h2v1.54l-2,.15Zm2,26H51V48.31l2,.15Zm2.35-13.36L48,46.07V37.93l7.35-.57A19.52,19.52,0,0,1,56,42,19.52,19.52,0,0,1,55.35,46.64Zm3.92.3-1.9-.15A20.863,20.863,0,0,0,58,42a20.863,20.863,0,0,0-.63-4.79l1.9-.15A20.014,20.014,0,0,1,60,42,20.014,20.014,0,0,1,59.27,46.94Z"></path></g></svg>