<svg xmlns="http://www.w3.org/2000/svg" viewBox="0 0 64 64" x="0px" y="0px"><g><path d="M22.48,50.66l-7.87,1.39-1.97.34-.23-1.33L7.59,46.83,3.83,25.52a2.011,2.011,0,0,1,.88-2.03h.01a1.14,1.14,0,0,1,.19-.1,1.709,1.709,0,0,1,.55-.19,2.186,2.186,0,0,1,.36-.03,1.821,1.821,0,0,1,.52.08c.04.01.09.03.13.04a1.98,1.98,0,0,1,.46.23c.01,0,.01,0,.01.01a1.981,1.981,0,0,1,.79,1.13c.01.05.03.11.04.16l1.2,6.8a3.912,3.912,0,0,0-.95,5.95l7.35,8.76,1.53-1.29L9.56,36.28a2,2,0,0,1,.24-2.81,1.071,1.071,0,0,1,.22-.15l.44-.21a2.83,2.83,0,0,1,.28-.08,1.853,1.853,0,0,1,.47-.02c.05,0,.1.01.15.01.11.02.21.04.32.07.05.02.11.04.17.06.09.04.18.09.27.14l.15.09a1.928,1.928,0,0,1,.33.31c.01.01.02.01.02.02l2.18,2.6A4.887,4.887,0,0,0,14,39a5,5,0,0,0,5,5h2.25l.07.08Z"></path><polygon points="11.998 54.538 11.994 54.538 11.013 54.711 12.054 60.62 25.841 58.189 24.799 52.28 24.245 52.378 22.829 52.629 22.829 52.628 17.906 53.496 11.998 54.538"></polygon><path d="M60.17,25.52,56.41,46.83l-4.82,4.23-.23,1.33-1.97-.34-7.87-1.39,1.16-6.58.07-.08H45a5,5,0,0,0,5-5,4.887,4.887,0,0,0-.8-2.69l2.18-2.6.01-.01a2.05,2.05,0,0,1,.34-.32c.05-.03.1-.05.15-.08a1.509,1.509,0,0,1,.28-.15c.05-.02.11-.04.16-.06.11-.03.21-.05.32-.07.05,0,.1-.01.15-.01a1.872,1.872,0,0,1,.47.02,2.83,2.83,0,0,1,.28.08l.45.21a1.429,1.429,0,0,1,.2.14,2,2,0,0,1,.25,2.82L47.1,45.04l1.53,1.29,7.35-8.76a4.023,4.023,0,0,0-.51-5.65,4.27,4.27,0,0,0-.44-.3l1.2-6.8a1.088,1.088,0,0,1,.07-.24,1.994,1.994,0,0,1,.75-1.05,1.8,1.8,0,0,1,.48-.24c.04-.01.09-.03.13-.04a1.821,1.821,0,0,1,.52-.08,2.186,2.186,0,0,1,.36.03,2.042,2.042,0,0,1,.64.23c.03.02.07.03.1.05s.07.06.11.09A2.019,2.019,0,0,1,60.17,25.52Z"></path><polygon points="52.987 54.711 52.006 54.538 52.002 54.538 46.094 53.496 41.171 52.628 41.171 52.629 39.755 52.378 39.201 52.28 38.159 58.189 51.946 60.62 52.987 54.711"></polygon><path d="M32,29a3,3,0,0,1,3,3c0,1.66-3,5-3,5s-3-3.34-3-5A3,3,0,0,1,32,29Z"></path><path d="M48,39.156A3.11,3.11,0,0,1,44.835,42H19.165A3.11,3.11,0,0,1,16,39.156,3,3,0,0,1,19,36a2.887,2.887,0,0,1,1.02.19c0-.06-.02-.13-.02-.19a2.991,2.991,0,0,1,5.82-.98A1.1,1.1,0,0,1,26,35a3,3,0,0,1,3,3h1.21c.11.13.21.24.3.34l.748.828a1,1,0,0,0,1.484,0l.748-.828c.09-.1.19-.21.3-.34H35a3,3,0,0,1,3-3,1.1,1.1,0,0,1,.18.02A2.991,2.991,0,0,1,44,36c0,.06-.02.13-.02.19A2.887,2.887,0,0,1,45,36,3,3,0,0,1,48,39.156Z"></path><rect x="46" y="16" width="2" height="4"></rect><rect x="46" y="22" width="2" height="2"></rect><rect x="50" y="19" width="2" height="6"></rect><rect x="50" y="27" width="2" height="2"></rect><rect x="16" y="16" width="2" height="4"></rect><rect x="16" y="22" width="2" height="2"></rect><rect x="12" y="19" width="2" height="6"></rect><rect x="12" y="27" width="2" height="2"></rect><path d="M32,4A11,11,0,1,0,43,15,11.013,11.013,0,0,0,32,4ZM28,8a3,3,0,1,1-3,3A3,3,0,0,1,28,8ZM26.707,21.707l-1.414-1.414,12-12,1.414,1.414ZM36,22a3,3,0,1,1,3-3A3,3,0,0,1,36,22Z"></path><circle cx="28" cy="11" r="1"></circle><circle cx="36" cy="19" r="1"></circle></g></svg>