<svg xmlns="http://www.w3.org/2000/svg" viewBox="0 0 64 64" x="0px" y="0px"><g data-name="Email Marketing"><rect x="4" y="33" width="4" height="2"></rect><path d="M14,17V33h2v2H14v5h4v2H14V52a3.009,3.009,0,0,0,3,3H57a3.009,3.009,0,0,0,3-3V17ZM30,42H20V40H30ZM18,35V33h2v2Zm12,0H22V33h8Zm0-7H16V26H30ZM56,40a2.006,2.006,0,0,1-2,2H34a2.006,2.006,0,0,1-2-2V27a.145.145,0,0,1,.02-.07.749.749,0,0,1,.02-.21l.03-.06a.338.338,0,0,1,.06-.12.761.761,0,0,1,.12-.19l.09-.09a.858.858,0,0,1,.2-.13.879.879,0,0,0,.1-.06A1.048,1.048,0,0,1,33,26H55a1.1,1.1,0,0,1,.36.07c.03.02.07.04.1.06a.858.858,0,0,1,.2.13l.09.09a.761.761,0,0,1,.12.19.338.338,0,0,1,.06.12l.03.06a.714.714,0,0,1,.02.2A.235.235,0,0,1,56,27Z"></path><polygon points="51.566 28 36.434 28 44 32.814 51.566 28"></polygon><polygon points="34 28.822 34 37.891 40.237 32.791 34 28.822"></polygon><polygon points="54.001 37.892 54 28.822 47.763 32.791 54.001 37.892"></polygon><path d="M44.537,34.844a1,1,0,0,1-1.074,0l-1.449-.923L34.579,40H53.421l-7.435-6.079Z"></path><path d="M57,9H17a3.009,3.009,0,0,0-3,3v3H60V12A3.009,3.009,0,0,0,57,9ZM19,13H17V11h2Zm4,0H21V11h2Zm4,0H25V11h2Z"></path><rect x="10" y="40" width="2" height="2"></rect><rect x="10" y="26" width="4" height="2"></rect><rect x="12" y="33" width="2" height="2"></rect><rect x="3" y="40" width="4" height="2"></rect><rect x="6" y="26" width="2" height="2"></rect></g></svg>