<svg xmlns="http://www.w3.org/2000/svg" viewBox="0 0 64 64" x="0px" y="0px"><g data-name="Save File"><path d="M59,28H50V12a2,2,0,0,0-2-2H34a1,1,0,0,0-.293-.707l-7-7A1,1,0,0,0,26,2H4A2,2,0,0,0,2,4V34a2,2,0,0,0,2,2H8V59a3,3,0,0,0,3,3H53a3,3,0,0,0,3-3V44h5a1,1,0,0,0,1-1V31A3,3,0,0,0,59,28ZM18,4V6H14V4ZM12,4V7a1,1,0,0,0,1,1h6a1,1,0,0,0,1-1V4h2v6H8V4ZM4,4H6v7a1,1,0,0,0,1,1H23a1,1,0,0,0,1-1V4h1.586L32,10.414,32,34H30V21a1,1,0,0,0-1-1H7a1,1,0,0,0-1,1V34H4ZM8,34V22H28V34Zm2,25V36H32a2,2,0,0,0,2-2V12H48V59a2.966,2.966,0,0,0,.184,1H11A1,1,0,0,1,10,59Zm44,0a1,1,0,0,1-1,1H51a1,1,0,0,1-1-1V30h4.184A2.966,2.966,0,0,0,54,31Zm6-17H56V31a1,1,0,0,1,1-1h2a1,1,0,0,1,1,1Z"></path><rect x="36" y="18" width="8" height="2"></rect><rect x="36" y="22" width="8" height="2"></rect><rect x="36" y="26" width="8" height="2"></rect><rect x="14" y="40" width="30" height="2"></rect><rect x="14" y="44" width="30" height="2"></rect><rect x="14" y="48" width="30" height="2"></rect><rect x="14" y="52" width="30" height="2"></rect></g></svg>