<svg xmlns="http://www.w3.org/2000/svg" viewBox="0 0 64 64" x="0px" y="0px"><g data-name="Smart light-Internet of Things-App-Application-Desk Lamp"><rect x="2" y="22" width="4" height="2"></rect><rect x="4.666" y="28.376" width="4" height="2" transform="translate(-18.82 13.317) rotate(-45)"></rect><rect x="12" y="30" width="2" height="4"></rect><path d="M57,26H43a4.924,4.924,0,0,0-3,1.03V21.97a4.958,4.958,0,0,0-2.54-8.92L33.57,9.16a4.924,4.924,0,0,0,.6-2.33,5,5,0,0,0-8.54-3.54L21.25,7.68a10.982,10.982,0,0,0-11.17,2.68l-.84.84a2.992,2.992,0,0,0-3.4,4.82l3.6,3.61a5,5,0,0,0,6.93,6.93l3.61,3.6a2.992,2.992,0,0,0,4.82-3.4l.84-.84a11,11,0,0,0,2.67-11.16l1.19-1.19,2.8,2.8a4.844,4.844,0,0,0,1.7,5.6V45H30V42a1,1,0,0,0-1-1H25a1,1,0,0,0-1,1v3.1A5.017,5.017,0,0,0,20,50v1a3.009,3.009,0,0,0-3,3v2a1,1,0,0,0,1,1H38a5,5,0,0,0,5,5H57a5,5,0,0,0,5-5V31A5,5,0,0,0,57,26ZM11.49,24.51a3.011,3.011,0,0,1-.87-2.13,2.97,2.97,0,0,1,.3-1.28l3.98,3.98A3,3,0,0,1,11.49,24.51Zm11.32,4.24a1.027,1.027,0,0,1-1.42,0L7.25,14.61a1.008,1.008,0,0,1,0-1.42,1.024,1.024,0,0,1,.71-.29,1.042,1.042,0,0,1,.71.29L22.81,27.33A1.008,1.008,0,0,1,22.81,28.75Zm1.41-4.24-.71.7-6.36-6.36-6.36-6.36.7-.71A9,9,0,1,1,24.22,24.51Zm3.24-11.72a10.745,10.745,0,0,0-4.24-4.25l3.82-3.83a3.012,3.012,0,0,1,4.25,0,2.994,2.994,0,0,1,0,4.24Zm5.9,1.81-2.45-2.44,1.42-1.42,2.68,2.68A4.989,4.989,0,0,0,33.36,14.6ZM26,43h2v2H26ZM38,55H19V54a1,1,0,0,1,1-1H38Zm0-4H22V50a3.009,3.009,0,0,1,3-3H38Zm0-6H36V22.9a5.05,5.05,0,0,0,2,0ZM37,21a3,3,0,1,1,3-3A3.009,3.009,0,0,1,37,21ZM60,57a3.009,3.009,0,0,1-3,3H43a3.009,3.009,0,0,1-3-3V54H60Zm0-5H40V34H60Zm0-20H40V31a3.009,3.009,0,0,1,3-3H57a3.009,3.009,0,0,1,3,3Z"></path><rect x="49" y="56" width="2" height="2"></rect><path d="M51,39.1V38H49v1.1a5,5,0,1,0,2,0ZM50,47a2.993,2.993,0,0,1-1-5.816V44h2V41.184A2.993,2.993,0,0,1,50,47Z"></path></g></svg>