<svg xmlns="http://www.w3.org/2000/svg" viewBox="0 0 64 64" x="0px" y="0px"><g><path d="M26,28V44a3,3,0,0,0,3,3H47a3,3,0,0,0,3-3V28a3,3,0,0,0-3-3H29A3,3,0,0,0,26,28ZM47,45H29a1,1,0,0,1-1-1V31H48V44A1,1,0,0,1,47,45Zm1-17v1H28V28a1,1,0,0,1,1-1H47A1,1,0,0,1,48,28Z"></path><rect x="34" y="37" width="8" height="2" transform="translate(-13.908 51.914) rotate(-60.005)"></rect><path d="M33.293,34.293l-3,3a1,1,0,0,0,0,1.414l3,3,1.414-1.414L32.414,38l2.293-2.293Z"></path><path d="M42.707,34.293l-1.414,1.414L43.586,38l-2.293,2.293,1.414,1.414,3-3a1,1,0,0,0,0-1.414Z"></path><polygon points="53 10 55 10 55 8 57 8 57 6 55 6 55 4 53 4 53 6 51 6 51 8 53 8 53 10"></polygon><rect x="46" y="12" width="6" height="2"></rect><rect x="51" y="16" width="6" height="2"></rect><polygon points="53 54 51 54 51 56 49 56 49 58 51 58 51 60 53 60 53 58 55 58 55 56 53 56 53 54"></polygon><rect x="18" y="11" width="2" height="2"></rect><rect x="22" y="11" width="2" height="2"></rect><rect x="26" y="11" width="2" height="2"></rect><rect x="30" y="11" width="2" height="2"></rect><path d="M58,36A20.035,20.035,0,0,0,44,16.922V7a5.006,5.006,0,0,0-5-5H11A5.006,5.006,0,0,0,6,7V57a5.006,5.006,0,0,0,5,5H39a5.006,5.006,0,0,0,5-5V55.078A20.035,20.035,0,0,0,58,36Zm-2,0A18,18,0,1,1,38,18,18.021,18.021,0,0,1,56,36ZM18,4H32V6a1,1,0,0,1-1,1H19a1,1,0,0,1-1-1ZM42,57a3,3,0,0,1-3,3H11a3,3,0,0,1-3-3V7a3,3,0,0,1,3-3h5V6a3,3,0,0,0,3,3H31a3,3,0,0,0,3-3V4h5a3,3,0,0,1,3,3v9.4A20,20,0,1,0,42,55.6Z"></path><rect x="22.216" y="17.381" width="2" height="2" transform="translate(-6.383 19.223) rotate(-39.999)"></rect><rect x="19.381" y="20.216" width="2" height="2" transform="translate(-8.972 23.197) rotate(-50.012)"></rect><rect x="17.081" y="23.5" width="2" height="2" transform="translate(-12.177 27.908) rotate(-59.998)"></rect><rect x="15.387" y="27.134" width="1.999" height="2" transform="translate(-15.655 33.909) rotate(-69.999)"></rect><rect x="14.35" y="31.006" width="2" height="2" transform="translate(-18.835 41.567) rotate(-80.004)"></rect><rect x="14" y="35" width="2" height="2"></rect><rect x="14.35" y="38.994" width="2" height="2" transform="translate(-6.709 3.271) rotate(-9.996)"></rect><rect x="15.387" y="42.867" width="2" height="1.999" transform="translate(-14.019 8.253) rotate(-20.006)"></rect><rect x="17.081" y="46.5" width="2" height="2" transform="translate(-21.329 15.406) rotate(-30.002)"></rect><rect x="19.381" y="49.784" width="2" height="2" transform="translate(-27.87 24.972) rotate(-39.988)"></rect><rect x="22.216" y="52.619" width="2" height="2" transform="translate(-32.785 36.949) rotate(-50.012)"></rect><rect x="25.5" y="54.919" width="2" height="2" transform="translate(-35.177 50.915) rotate(-60.005)"></rect></g></svg>