<svg xmlns="http://www.w3.org/2000/svg" viewBox="0 0 64 64" x="0px" y="0px"><g><path d="M30,31a9,9,0,1,0,9,9A9.01,9.01,0,0,0,30,31Zm4,11a3,3,0,0,1-3,3v2H29V45a3,3,0,0,1-3-3h2a1,1,0,0,0,1,1V41a3,3,0,0,1,0-6V33h2v2a3,3,0,0,1,3,3H32a1,1,0,0,0-1-1v2A3,3,0,0,1,34,42Z"></path><path d="M31,43a1,1,0,0,0,0-2Z"></path><path d="M28,38a1,1,0,0,0,1,1V37A1,1,0,0,0,28,38Z"></path><path d="M30,27A13,13,0,1,0,43,40,13.015,13.015,0,0,0,30,27Zm0,24A11,11,0,1,1,41,40,11.013,11.013,0,0,1,30,51Z"></path><path d="M38,4c-.5,0-.8.25-1.32.73a3.463,3.463,0,0,1-5.36,0C30.8,4.25,30.5,4,30,4s-.8.25-1.32.73A3.773,3.773,0,0,1,26,6a3.773,3.773,0,0,1-2.68-1.27C22.8,4.25,22.5,4,22,4s-.8.25-1.32.73a5.943,5.943,0,0,1-1.06.84L25.52,14h8.96l5.9-8.43a5.943,5.943,0,0,1-1.06-.84C38.8,4.25,38.5,4,38,4Z"></path><path d="M36,18a1,1,0,0,0,0-2H24a1,1,0,0,0,0,2Z"></path><path d="M52.21,52.02l-3.12-4.98A7.322,7.322,0,0,1,48,43.22v-9.4A11,11,0,0,1,39,23a10.774,10.774,0,0,1,.35-2.74A10.78,10.78,0,0,0,37,20H23A11.007,11.007,0,0,0,12,31V43.22a7.261,7.261,0,0,1-1.09,3.81L7.79,52.02A5.2,5.2,0,0,0,7,54.78,5.224,5.224,0,0,0,12.22,60H47.78a5.219,5.219,0,0,0,4.43-7.98ZM30,55A15,15,0,1,1,45,40,15.018,15.018,0,0,1,30,55Z"></path><polygon points="51 22 51 18 49 18 49 22 45 22 45 24 49 24 49 28 51 28 51 24 55 24 55 22 51 22"></polygon><path d="M50,14a9,9,0,1,0,9,9A9.01,9.01,0,0,0,50,14Zm0,16a7,7,0,1,1,7-7A7.008,7.008,0,0,1,50,30Z"></path></g></svg>