<svg xmlns="http://www.w3.org/2000/svg" viewBox="0 0 64 64" x="0px" y="0px"><g data-name="Optimization"><path d="M43.646,16.112a3.968,3.968,0,0,0-3.69,4.542,1,1,0,0,1-.283.845L25.5,35.673a1,1,0,0,1-.845.283,3.968,3.968,0,0,0-4.542,3.69l1.867-1.868a1,1,0,0,1,1.415,0l2.828,2.828a1,1,0,0,1,0,1.415l-1.868,1.867a3.968,3.968,0,0,0,3.69-4.542,1,1,0,0,1,.283-.845L42.5,24.327a.987.987,0,0,1,.845-.283,3.968,3.968,0,0,0,4.542-3.69l-1.867,1.868a1,1,0,0,1-1.415,0l-2.828-2.828a1,1,0,0,1,0-1.415Z"></path><path d="M60,51H38.721l-.544,1.633A2,2,0,0,1,36.279,54H27.721a2,2,0,0,1-1.9-1.367L25.279,51H4v2a3,3,0,0,0,3,3H57a3,3,0,0,0,3-3Z"></path><path d="M55,17H45.59L43.9,18.69l1.41,1.41,2.53-2.53a1.01,1.01,0,0,1,.92-.27.991.991,0,0,1,.72.61,5.983,5.983,0,0,1-1.34,6.43,5.918,5.918,0,0,1-4.56,1.73L30.07,39.58A5.975,5.975,0,0,1,24.1,45.9a6.037,6.037,0,0,1-2.19-.42.991.991,0,0,1-.61-.72,1.01,1.01,0,0,1,.27-.92l2.53-2.53L22.69,39.9l-2.53,2.53a1.01,1.01,0,0,1-.92.27.991.991,0,0,1-.72-.61,5.983,5.983,0,0,1,1.34-6.43,5.9,5.9,0,0,1,4.56-1.73L37.93,20.42A5.9,5.9,0,0,1,38.78,17H9a3.009,3.009,0,0,0-3,3V49h4V28a5,5,0,0,1,5-5H32v2H15a3.009,3.009,0,0,0-3,3v3H24v2H12V49H26a1.014,1.014,0,0,1,.95.68L27.72,52h8.56l.77-2.32A1.014,1.014,0,0,1,38,49H52V33H40V31H52V28a2.985,2.985,0,0,0-2.25-2.9l.5-1.94A5,5,0,0,1,54,28V49h4V20A3.009,3.009,0,0,0,55,17ZM16,29H14V27h2Zm4,0H18V27h2Zm2,0V27h2v2Z"></path></g></svg>