<svg xmlns="http://www.w3.org/2000/svg" viewBox="0 0 64 64" x="0px" y="0px"><g data-name="Pot"><path d="M29.2,12H34.8a2.926,2.926,0,0,0,.2-1,3,3,0,0,0-6,0A2.926,2.926,0,0,0,29.2,12Z"></path><path d="M55,15a1,1,0,0,0-1-1H10a1,1,0,0,0-1,1v1H55Z"></path><polygon points="53 22 51 22 51 23 49 23 49 22 47 22 47 23 45 23 45 22 43 22 43 23 41 23 41 22 39 22 39 23 37 23 37 22 35 22 35 23 33 23 33 22 31 22 31 23 29 23 29 22 27 22 27 23 25 23 25 22 23 22 23 23 21 23 21 22 19 22 19 23 17 23 17 22 15 22 15 23 13 23 13 22 11 22 11 24 53 24 53 22"></polygon><path d="M53,26H11V53a3,3,0,0,0,3,3H50a3,3,0,0,0,3-3ZM42,54H40V52h2Zm9-3a3,3,0,0,1-3,3H44V52h4a1,1,0,0,0,1-1V47h2Z"></path><path d="M59,34H55V32h4a1,1,0,0,0,1-1V27a1,1,0,0,0-1-1H55V24h4a3,3,0,0,1,3,3v4A3,3,0,0,1,59,34Z"></path><path d="M9,34H5a3,3,0,0,1-3-3V27a3,3,0,0,1,3-3H9v2H5a1,1,0,0,0-1,1v4a1,1,0,0,0,1,1H9Z"></path></g></svg>