<svg xmlns="http://www.w3.org/2000/svg" viewBox="0 0 64 64" x="0px" y="0px"><g><rect x="6" y="11" width="2" height="2"></rect><rect x="10" y="11" width="2" height="2"></rect><rect x="14" y="11" width="2" height="2"></rect><rect x="13" y="5" width="2" height="2"></rect><rect x="17" y="5" width="2" height="2"></rect><rect x="21" y="5" width="2" height="2"></rect><path d="M61.142,31.01l-2.682-.383a10.86,10.86,0,0,0-.679-1.639l1.625-2.166a1,1,0,0,0-.093-1.307l-2.828-2.828a1,1,0,0,0-1.306-.093l-2.167,1.624a10.9,10.9,0,0,0-1.639-.678l-.383-2.682A1,1,0,0,0,50,20H49V5a3,3,0,0,0-3-3H12A3,3,0,0,0,9,5V8H5a3,3,0,0,0-3,3V41a3,3,0,0,0,3,3H8V61a1,1,0,0,0,1,1h8a1,1,0,0,0,1-1V44h4V61a1,1,0,0,0,1,1h4a1,1,0,0,0,1-1V54h2a1,1,0,0,0,1-1V48H29v4H28V44H38.2l1.314,1.313a1,1,0,0,0,1.306.093l2.167-1.624a10.855,10.855,0,0,0,1.639.678l.383,2.682A1,1,0,0,0,46,48h4a1,1,0,0,0,.99-.858l.383-2.682a10.9,10.9,0,0,0,1.639-.678l2.167,1.624a1,1,0,0,0,1.306-.093l2.828-2.828a1,1,0,0,0,.093-1.307l-1.625-2.166a10.86,10.86,0,0,0,.679-1.639l2.682-.383A1,1,0,0,0,62,36V32A1,1,0,0,0,61.142,31.01ZM46,20a1,1,0,0,0-.99.858l-.383,2.682a10.855,10.855,0,0,0-1.639.678L42,23.477V11a2.966,2.966,0,0,0-.184-1H47V20ZM11,5a1,1,0,0,1,1-1H46a1,1,0,0,1,1,1V8H11ZM5,10H39a1,1,0,0,1,1,1v3H4V11A1,1,0,0,1,5,10Zm5,50V28h6v3H14v2h2v4H14v2h2v4H14v2h2v4H14v2h2v4H14v2h2v3ZM24.721,32h.558L26,34.162V56H24V34.162ZM24,60V58h2v2Zm3.948-26.316-1-3A1,1,0,0,0,26,30V28H24v2a1,1,0,0,0-.948.684l-1,3A1,1,0,0,0,22,34v8H18V27a1,1,0,0,0-1-1H9a1,1,0,0,0-1,1V42H5a1,1,0,0,1-1-1V16H40v6.433a.967.967,0,0,0-.485.254l-2.828,2.828a1,1,0,0,0-.093,1.307l1.625,2.166a10.86,10.86,0,0,0-.679,1.639l-2.682.383A1,1,0,0,0,34,32v4a1,1,0,0,0,.858.99l2.682.383a10.86,10.86,0,0,0,.679,1.639l-1.625,2.166a.985.985,0,0,0-.16.822H28V34A1,1,0,0,0,27.948,33.684ZM60,35.133l-2.463.352a1,1,0,0,0-.827.742,8.923,8.923,0,0,1-.977,2.357,1,1,0,0,0,.061,1.111l1.492,1.99-1.6,1.6-1.991-1.492a1,1,0,0,0-1.11-.06,8.859,8.859,0,0,1-2.356.975,1,1,0,0,0-.744.828L49.133,46H46.867l-.351-2.463a1,1,0,0,0-.744-.828,8.859,8.859,0,0,1-2.356-.975,1,1,0,0,0-1.11.06l-1.991,1.492-1.6-1.6,1.492-1.99a1,1,0,0,0,.061-1.111,8.923,8.923,0,0,1-.977-2.357,1,1,0,0,0-.827-.742L36,35.133V32.867l2.463-.352a1,1,0,0,0,.827-.742,8.923,8.923,0,0,1,.977-2.357,1,1,0,0,0-.061-1.111l-1.492-1.99,1.6-1.6,1.991,1.492a1,1,0,0,0,1.11.06,8.859,8.859,0,0,1,2.356-.975,1,1,0,0,0,.744-.828L46.867,22h2.266l.351,2.463a1,1,0,0,0,.744.828,8.859,8.859,0,0,1,2.356.975,1,1,0,0,0,1.11-.06l1.991-1.492,1.6,1.6-1.492,1.99a1,1,0,0,0-.061,1.111,8.923,8.923,0,0,1,.977,2.357,1,1,0,0,0,.827.742L60,32.867Z"></path><path d="M48,28a6,6,0,1,0,6,6A6.006,6.006,0,0,0,48,28Zm0,10a4,4,0,1,1,4-4A4,4,0,0,1,48,38Z"></path><rect x="47" y="24" width="2" height="2"></rect><rect x="40.636" y="26.636" width="2" height="2" transform="translate(-7.348 37.527) rotate(-44.99)"></rect><rect x="38" y="33" width="2" height="2"></rect><rect x="40.636" y="39.364" width="2" height="2" transform="translate(-16.347 41.263) rotate(-45)"></rect><rect x="47" y="42" width="2" height="2"></rect><rect x="53.364" y="39.364" width="2" height="2" transform="translate(-12.62 50.252) rotate(-44.99)"></rect><rect x="56" y="33" width="2" height="2"></rect><rect x="53.364" y="26.636" width="2" height="2" transform="translate(-3.615 46.546) rotate(-45.01)"></rect></g></svg>