<svg xmlns="http://www.w3.org/2000/svg" xmlns:xlink="http://www.w3.org/1999/xlink" version="1.1" x="0px" y="0px" viewBox="0 0 64 64" style="enable-background:new 0 0 64 64;" xml:space="preserve"><g><path d="M54.5,18c-0.4,0-0.7,0-1.1,0.1l-0.5,5c-0.1,0.5-0.5,0.9-1,0.9H30c-0.4,0-0.8-0.3-1-0.7l-1.5-5.1c-0.5,0.2-1,0.4-1.4,0.7   C25,19.6,23.7,20,22.3,20c-1.3,0-2.6-0.4-3.7-1.1c-0.8-0.6-1.7-0.9-2.7-0.9c-1,0-1.9,0.3-2.7,0.9c-1.1,0.8-2.4,1.2-3.8,1.1   c-1.3,0-2.7-0.4-3.8-1.1C4.9,18.3,4,18,3,18v43h58V20c-1.3,0-2.7-0.4-3.8-1.1C56.5,18.3,55.5,18,54.5,18z M36,34h6v2h-6V34z M23,23   h2v2h-2V23z M16,23h5v2h-5V23z M9,24c1.7,0,3,1.3,3,3s-1.3,3-3,3s-3-1.3-3-3S7.3,24,9,24z M12,39v2h-2v-2H12z M6,35h2v2H6V35z    M23,56h-2v2c0,0.6-0.4,1-1,1c-0.1,0-0.2,0-0.2,0c-1.6-0.5-3.1-1.5-4-3h-5.5c-2.4,0-4.4-1.7-4.9-4l-0.9-4.4   c-0.3-1.6,0.7-3.2,2.4-3.5C7,44,7.2,44,7.4,44h11.4c1,0,2,0.3,2.8,0.8l1.5,1c0.2,0.1,0.4,0.2,0.6,0.2H25c0.6,0,1-0.4,1-1v-4   c0-0.6-0.4-1-1-1h-1.2c-0.4,1.2-1.6,2-2.8,2h-2c-0.6,0-1-0.4-1-1V31c0-0.6,0.4-1,1-1h2c1.7,0,3,1.3,3,3v1h1c3.9,0,7,3.1,7,7v6   C32,52,28,56,23,56z M33,59h-2v-2h2V59z M33,29h2v2h-2V29z M47.9,44.5l-1.4,2.4l-0.1,2c0,0.2-0.1,0.3-0.1,0.4l-4.5,7.8   c-0.3,0.5-0.9,0.6-1.4,0.4l-5.2-3c-0.5-0.3-0.6-0.9-0.4-1.4l4.5-7.8c0.1-0.1,0.2-0.2,0.3-0.3l1.7-1.1l1.4-2.4   c0.3-0.5,0.9-0.6,1.4-0.4l3.5,2C48,43.4,48.1,44,47.9,44.5z M55,54h-6v-2h6V54z M59,54h-2v-2h2V54z M57.8,41.5l-5.2,3   c-0.5,0.3-1.1,0.1-1.4-0.4l-4.5-7.8c-0.1-0.1-0.1-0.3-0.1-0.4l-0.1-2l-1.4-2.4c-0.3-0.5-0.1-1.1,0.4-1.4l3.5-2   c0.5-0.3,1.1-0.1,1.4,0.4l1.4,2.4l1.7,1.1c0.1,0.1,0.2,0.2,0.3,0.3l4.5,7.8C58.5,40.6,58.3,41.2,57.8,41.5z M58,31h-2v-2h2V31z"></path><polygon points="39.3,12 48.7,12 48.2,10 39.8,10  "></polygon><path d="M42.9,45.1c-0.1,0.1-0.2,0.2-0.3,0.3l-1.7,1.1L37,53.3l3.5,2l3.9-6.7l0.1-2c0-0.2,0.1-0.3,0.1-0.4l1-1.7l-1.7-1L42.9,45.1z   "></path><path d="M25,36h-2c-0.6,0-1-0.4-1-1v-2c0-0.6-0.4-1-1-1h-1v8h1c0.6,0,1-0.4,1-1s0.4-1,1-1h2c1.7,0,3,1.3,3,3v4c0,1.7-1.3,3-3,3   h-1.4c-0.6,0-1.2-0.2-1.7-0.5l-1.5-1C20,46.2,19.4,46,18.8,46H7.4c-0.3,0-0.6,0.1-0.8,0.4c-0.2,0.2-0.3,0.5-0.2,0.8l0.9,4.4   C7.6,53,8.8,54,10.3,54h4.8C15,53.7,15,53.3,15,53h2c0,0.6,0.1,1.1,0.3,1.6c0.4,0.8,0.9,1.4,1.7,1.9V53h2v1h2c3.9,0,7-3.1,7-7v-6   C30,38.2,27.8,36,25,36z M13,51h-2v-2h2V51z"></path><circle cx="9" cy="27" r="1"></circle><path d="M51.9,14H28.3l0.6,2c1.3,0,2.5,0.4,3.6,1.1c1.6,1.1,3.8,1.1,5.4,0c2.3-1.5,5.2-1.5,7.5,0c1.6,1.1,3.8,1.1,5.4,0   c0.3-0.2,0.5-0.3,0.8-0.5L51.9,14z"></path><path d="M44.3,18.9c-1.6-1.1-3.8-1.1-5.4,0c-2.3,1.5-5.2,1.5-7.5,0c-0.6-0.4-1.2-0.7-1.9-0.8l1.2,3.9h20.4l0.3-2.9   c-1,0.6-2.1,0.9-3.3,0.9C46.8,20,45.4,19.6,44.3,18.9z"></path><path d="M50.4,32.4c-0.1-0.1-0.2-0.2-0.3-0.3l-1-1.7l-1.7,1l1,1.7c0.1,0.1,0.1,0.3,0.1,0.4l0.1,2l3.9,6.7l3.5-2l-3.9-6.7L50.4,32.4   z"></path><rect x="46" y="3" width="2" height="5"></rect></g></svg>