<svg xmlns="http://www.w3.org/2000/svg" viewBox="0 0 48 48" x="0px" y="0px"><title>Gift Box_4</title><g data-name="Gift Box"><path d="M43,0H5A5.006,5.006,0,0,0,0,5V43a5.006,5.006,0,0,0,5,5H43a5.006,5.006,0,0,0,5-5V5A5.006,5.006,0,0,0,43,0ZM32.133,14.386a4.025,4.025,0,0,1-4.267,0,4.012,4.012,0,0,1-.7-6.219,3.482,3.482,0,0,1,.65-.509c.024-.015.043-.032.069-.047.049-.032.1-.06.206-.125a3.976,3.976,0,0,1,4.068.154,3.44,3.44,0,0,1,.669.523,4.022,4.022,0,0,1,0,5.67A3.9,3.9,0,0,1,32.133,14.386Zm-6.757.441L20.945,16.3A3,3,0,0,1,17,13.45V8.55a3.008,3.008,0,0,1,2.991-3.007,3.021,3.021,0,0,1,.952.155l4.425,1.48-.008.012a6.029,6.029,0,0,0-.527.767c-.025.042-.052.083-.076.126a6.04,6.04,0,0,0-.371.81c-.02.051-.038.1-.056.155a5.992,5.992,0,0,0-.229.868L24.086,10H22a1,1,0,0,0,0,2h2.087c.011.068.031.133.045.2a5.876,5.876,0,0,0,.186.7c.024.072.043.145.07.216a5.978,5.978,0,0,0,.385.832c.027.048.06.091.088.138a5.952,5.952,0,0,0,.439.633C25.328,14.752,25.347,14.792,25.376,14.827ZM35.726,2l2.026,2.026L32.765,5.693a6.053,6.053,0,0,0-4.939-.281L24.414,2ZM34.633,14.818a5.993,5.993,0,0,0,.533-.772c.024-.042.05-.082.073-.124a5.921,5.921,0,0,0,.375-.813c.019-.051.037-.1.054-.152a5.923,5.923,0,0,0,.231-.872L35.914,12H38a1,1,0,0,0,0-2H35.914c0-.028-.01-.056-.015-.083a5.945,5.945,0,0,0-.229-.867c-.018-.053-.036-.105-.056-.157a5.979,5.979,0,0,0-.372-.81c-.023-.042-.05-.083-.074-.124a6.027,6.027,0,0,0-.532-.773l-.005-.008L39.065,5.7a3.136,3.136,0,0,1,.711-.149,3.024,3.024,0,0,1,2.267.8A2.968,2.968,0,0,1,43,8.55v4.9a3,3,0,0,1-3.947,2.85l-4.427-1.472Zm8.292,2.691A4.954,4.954,0,0,0,45,13.45V11.264l1,1V23.586l-5.193-5.193A5,5,0,0,0,42.925,17.509ZM46,5V9.436L44.987,8.423A4.936,4.936,0,0,0,43.4,4.885a5.027,5.027,0,0,0-3.28-1.317L38.554,2H43A3,3,0,0,1,46,5ZM11.414,46,2,36.586V25.273L22.736,46ZM2,43V39.414L8.586,46H5A3,3,0,0,1,2,43Zm41,3H25.564L2,22.446V5A3,3,0,0,1,5,2H21.586L24.3,4.711,21.575,3.8A5,5,0,0,0,15,8.55v4.9a5.011,5.011,0,0,0,4.984,5.009,5.054,5.054,0,0,0,1.592-.26l5.669-1.887c.1.051.193.109.294.154-1.3,3.979-3.551,9.132-7.246,12.827a1,1,0,1,0,1.414,1.414c4.008-4.008,6.406-9.529,7.771-13.739.173.015.346.032.522.032s.349-.017.522-.032c1.365,4.211,3.763,9.731,7.771,13.739a1,1,0,0,0,1.414-1.414c-3.694-3.695-5.945-8.848-7.246-12.827.1-.045.2-.1.293-.154l4.712,1.568L46,26.414V43A3,3,0,0,1,43,46Z"></path></g></svg>