<svg xmlns="http://www.w3.org/2000/svg" viewBox="0 0 64 64" x="0px" y="0px"><title>Smartphone-File-Archive-Document</title><g><path d="M54.7,19.688c-.315-.182-.622-.335-.925-.475A12.847,12.847,0,0,0,47,18.012V7a5.006,5.006,0,0,0-5-5H14A5.006,5.006,0,0,0,9,7V57a5.006,5.006,0,0,0,5,5H42a5.006,5.006,0,0,0,5-5V35.02l8.062-13.965A1,1,0,0,0,54.7,19.688Zm-9.346.634a11.159,11.159,0,0,1,1.83-.328,11.434,11.434,0,0,0-1.651,1.85l-.859-1.3C44.9,20.464,45.118,20.384,45.35,20.322Zm-2.533,1.04,1.508,2.289c-.459.754-.916,1.556-1.387,2.387L40.8,22.8A10.835,10.835,0,0,1,42.817,21.362Zm-3.4,2.972,2.409,3.649-1.382,2.393-2.464-3.732.691-1.2A10.9,10.9,0,0,1,39.416,24.334Zm-2.555,4.247,2.464,3.732-1.382,2.394-2.464-3.732Zm4.2,4.731,4.465.269L44.14,35.975l-4.465-.268Zm1.118-1.936,1.382-2.394,4.464.269-1.382,2.394Zm2.49-4.33c.477-.841.937-1.647,1.392-2.394l4.464.268-1.382,2.395Zm2.693-4.319a5.464,5.464,0,0,1,2.675-2.13,4.134,4.134,0,0,1,2.767.375l-1.162,2.012ZM21,4H35V6H21ZM42,60H14a3,3,0,0,1-3-3V7a3,3,0,0,1,3-3h5V6a2,2,0,0,0,2,2H35a2,2,0,0,0,2-2V4h5a3,3,0,0,1,3,3V18.354c-.056.014-.113.022-.169.037a12.917,12.917,0,0,0-7.894,6.056l-3.5,6.063a1,1,0,0,0,.032,1.051l3.356,5.082L31.134,46.5l1.732,1,5.691-9.857,6.08.365.059,0a.976.976,0,0,0,.3-.053V57A3,3,0,0,1,42,60Z"></path><path d="M16,24h8a1,1,0,0,0,1-1V15a1,1,0,0,0-1-1H16a1,1,0,0,0-1,1v8A1,1,0,0,0,16,24Zm1-8h6v6H17Z"></path><rect x="28" y="14" width="10" height="2"></rect><rect x="28" y="18" width="4" height="2"></rect><rect x="34" y="18" width="4" height="2"></rect><rect x="28" y="22" width="6" height="2"></rect><rect x="15" y="31" width="4" height="2"></rect><rect x="21" y="31" width="10" height="2"></rect><rect x="15" y="35" width="16" height="2"></rect><rect x="15" y="40" width="6" height="2"></rect><rect x="23" y="40" width="2" height="2"></rect><rect x="27" y="40" width="4" height="2"></rect><rect x="15" y="45" width="8" height="2"></rect><rect x="25" y="45" width="4" height="2"></rect></g></svg>