<svg xmlns="http://www.w3.org/2000/svg" viewBox="0 0 64 64" x="0px" y="0px"><g data-name="Save-Computer-Disk-Save File-Data"><path d="M55.707,56.293l-6-6A1,1,0,0,0,49,50H19V48a3,3,0,0,0-3-3H10a1,1,0,0,1,0-2h6a3,3,0,0,0,3-3V38h7v4H22a1,1,0,0,0-1,1v4a1,1,0,0,0,1,1H42a1,1,0,0,0,1-1V43a1,1,0,0,0-1-1H38V38H52a3,3,0,0,0,3-3V9a3,3,0,0,0-3-3H46V8h6a1,1,0,0,1,1,1V30H11V9a1,1,0,0,1,1-1h6V6H12A3,3,0,0,0,9,9V35a3,3,0,0,0,3,3h5v2a1,1,0,0,1-1,1H10a3,3,0,0,0,0,6h6a1,1,0,0,1,1,1v2H15a1,1,0,0,0-.707.293l-6,6A1,1,0,0,0,8,57v3a2,2,0,0,0,2,2H54a2,2,0,0,0,2-2V57A1,1,0,0,0,55.707,56.293ZM41,46H23V44H41Zm-5-4H28V38h8ZM11,35V32H53v3a1,1,0,0,1-1,1H12A1,1,0,0,1,11,35Zm4.414,17H48.586l4,4H11.414ZM10,60V58H54v2Z"></path><rect x="16" y="53" width="2" height="2"></rect><rect x="20" y="53" width="2" height="2"></rect><rect x="42" y="53" width="2" height="2"></rect><rect x="24" y="53" width="16" height="2"></rect><rect x="46" y="53" width="2" height="2"></rect><rect x="47" y="33" width="2" height="2"></rect><path d="M43.77,8.36l-5-6A.992.992,0,0,0,38,2H22a2.006,2.006,0,0,0-2,2V24a2.006,2.006,0,0,0,2,2H42a2.006,2.006,0,0,0,2-2V9A1,1,0,0,0,43.77,8.36ZM26,4h4V6h2V4h2V8H26ZM38,24H26V16H38Zm4,0H40V15a1,1,0,0,0-1-1H25a1,1,0,0,0-1,1v9H22V4h2V9a1,1,0,0,0,1,1H35a1,1,0,0,0,1-1V4h1.53L42,9.36Z"></path><rect x="28" y="18" width="8" height="2"></rect></g></svg>