<svg xmlns="http://www.w3.org/2000/svg" viewBox="0 0 64 64" x="0px" y="0px"><g data-name="Network Server"><circle cx="15" cy="9" r="1"></circle><path d="M22,4H8V26H22ZM15,6a3,3,0,1,1-3,3A3,3,0,0,1,15,6Zm4,16H11V20h8Zm0-4H11V16h8Z"></path><circle cx="49" cy="9" r="1"></circle><path d="M56,4H42V26H56ZM49,6a3,3,0,1,1-3,3A3,3,0,0,1,49,6Zm4,16H45V20h8Zm0-4H45V16h8Z"></path><circle cx="32" cy="43" r="1"></circle><path d="M39,38H25V60H39Zm-7,2a3,3,0,1,1-3,3A3,3,0,0,1,32,40Zm4,16H28V54h8Zm0-4H28V50h8Z"></path><rect x="24" y="15" width="16" height="2"></rect><polygon points="27.12 36 24.89 36 20.89 28 23.12 28 27.12 36"></polygon><polygon points="43.12 28 39.12 36 36.89 36 40.89 28 43.12 28"></polygon></g></svg>