<svg xmlns="http://www.w3.org/2000/svg" viewBox="0 0 64 64" x="0px" y="0px"><g data-name="Customer Service-Telephone-Help-Call Center-Basket"><path d="M37.622,42.207a3.073,3.073,0,0,0-4.243,0L28.1,47.491a4.984,4.984,0,0,1-5.719.971,15.088,15.088,0,0,1-6.838-6.838,4.983,4.983,0,0,1,.971-5.719l5.284-5.284a3,3,0,0,0,0-4.242l-8.99-8.99a3,3,0,0,0-4.405.163A27.117,27.117,0,0,0,2,35,26.7,26.7,0,0,0,4.388,46.111a26.982,26.982,0,0,0,13.5,13.5A27.053,27.053,0,0,0,46.448,55.6a2.977,2.977,0,0,0,1.044-2.144,3.025,3.025,0,0,0-.881-2.26ZM9.924,18.845a.966.966,0,0,1,.7-.339h.041a1.02,1.02,0,0,1,.721.3l8.989,8.99a1,1,0,0,1,0,1.414L18,31.586,7.96,21.546A24.766,24.766,0,0,1,9.924,18.845Zm8.787,38.944a24.991,24.991,0,0,1-12.5-12.5,24.959,24.959,0,0,1,.7-21.964L16.586,33,15.1,34.491a6.98,6.98,0,0,0-1.351,8.016,17.1,17.1,0,0,0,7.749,7.75,6.98,6.98,0,0,0,8.016-1.352L31,47.414l9.676,9.677a24.96,24.96,0,0,1-21.965.7Zm26.443-3.714a24.617,24.617,0,0,1-2.7,1.965L32.414,46l2.379-2.379a1.021,1.021,0,0,1,1.414,0l8.99,8.99a1.028,1.028,0,0,1,.3.763A.961.961,0,0,1,45.154,54.075Z"></path><path d="M43,2A17.993,17.993,0,0,0,28.79,31.04l-1.73,4.61a1.033,1.033,0,0,0,.23,1.06,1.013,1.013,0,0,0,1.06.23l4.88-1.83A18,18,0,1,0,43,2Zm0,34a15.939,15.939,0,0,1-9.08-2.83.965.965,0,0,0-.57-.18.91.91,0,0,0-.35.07l-3.29,1.23,1.15-3.08a.991.991,0,0,0-.16-.99A15.993,15.993,0,1,1,43,36Z"></path><path d="M53,14H51.43l.3-1.69a2.922,2.922,0,0,0,.04-.51,2.992,2.992,0,0,0-2.48-2.94,2.907,2.907,0,0,0-2.23.48,2.945,2.945,0,0,0-1.24,1.95L45.34,14H40.66l-.47-2.71a3,3,0,0,0-1.25-1.95,2.94,2.94,0,0,0-2.22-.49,3.01,3.01,0,0,0-2.49,2.95,3.115,3.115,0,0,0,.04.52l.3,1.68H33a3,3,0,0,0-3,3,3.009,3.009,0,0,0,3,3h.09l.7,7.28A5,5,0,0,0,38.78,32h8.44a4.994,4.994,0,0,0,4.99-4.68l.7-7.32H53a3,3,0,0,0,3-3A3.009,3.009,0,0,0,53,14Zm-5.22-2.37a1.05,1.05,0,0,1,.42-.65.961.961,0,0,1,.74-.15.987.987,0,0,1,.83.97c0,.07-.01.12-.01.18L48.69,18H46.66ZM44.98,16l-.35,2H41.37l-.35-2Zm-7.91-5.18a1,1,0,0,1,.73.16,1.05,1.05,0,0,1,.42.65L39.34,18H37.31l-1.06-6.01a1.225,1.225,0,0,1-.02-.19A1,1,0,0,1,37.07,10.82ZM33,18a1,1,0,0,1-1-1,.949.949,0,0,1,.31-.71A.928.928,0,0,1,33,16h1.92l.36,2Zm17.21,9.17A3,3,0,0,1,47.22,30H38.78a3.008,3.008,0,0,1-2.99-2.87L35.1,20H50.9Zm3.48-9.46A.928.928,0,0,1,53,18H50.72l.36-2H53a1,1,0,0,1,1,1A.949.949,0,0,1,53.69,17.71Z"></path><rect x="45" y="22" width="2" height="6"></rect><rect x="39" y="22" width="2" height="6"></rect></g></svg>