<svg xmlns="http://www.w3.org/2000/svg" viewBox="0 0 64 64" x="0px" y="0px"><g><path d="M57,2H7A5.006,5.006,0,0,0,2,7V45a5.006,5.006,0,0,0,5,5H23.867l-.75,6H21a3,3,0,0,0,0,6H43a3,3,0,0,0,0-6H40.883l-.75-6H57a5.006,5.006,0,0,0,5-5V7A5.006,5.006,0,0,0,57,2ZM7,4H57a3,3,0,0,1,3,3V40H4V7A3,3,0,0,1,7,4ZM44,59a1,1,0,0,1-1,1H21a1,1,0,0,1,0-2H43A1,1,0,0,1,44,59Zm-5.133-3H25.133l.75-6H38.117ZM57,48H7a3,3,0,0,1-3-3V42H60v3A3,3,0,0,1,57,48Z"></path><rect x="54" y="44" width="2" height="2"></rect><path d="M18,30h1.184A2.993,2.993,0,0,0,25,29V21a2.993,2.993,0,0,0-5.816-1h-.133a12.987,12.987,0,0,1,25.9,0h-.133A2.993,2.993,0,0,0,39,21v8a2.993,2.993,0,0,0,5.816,1H45v1a3,3,0,0,1-3,3H39.816a3,3,0,1,0,0,2H42a5.006,5.006,0,0,0,5-5V29.816A3,3,0,0,0,49,27V23a3,3,0,0,0-2.042-2.829,14.98,14.98,0,0,0-29.916,0A3,3,0,0,0,15,23v4A3,3,0,0,0,18,30Zm19,6a1,1,0,1,1,1-1A1,1,0,0,1,37,36Zm6-7a1,1,0,0,1-2,0V21a1,1,0,0,1,2,0Zm4-2a1,1,0,0,1-1,1H45V22h1a1,1,0,0,1,1,1ZM21,21a1,1,0,0,1,2,0v8a1,1,0,0,1-2,0Zm-4,2a1,1,0,0,1,1-1h1v6H18a1,1,0,0,1-1-1Z"></path></g></svg>