<svg xmlns="http://www.w3.org/2000/svg" viewBox="0 0 64 64" x="0px" y="0px"><g data-name="Information Ecology-Ecology-Smartphone-Application-Plant"><path d="M37.28,33.95a5.326,5.326,0,0,0,2.03-3.7,5.353,5.353,0,0,0-4.21.35,5.384,5.384,0,0,0-2.03,3.71A5.357,5.357,0,0,0,37.28,33.95Z"></path><path d="M42.25,43.53l.77-2.89-2.9-.78A5,5,0,0,0,34,43.4l-.78,2.89,2.9.78A5.012,5.012,0,0,0,42.25,43.53Z"></path><path d="M35,21c0-2.58-2.07-4.22-3-4.84-.93.61-3,2.26-3,4.84s2.07,4.22,3,4.84C32.93,25.23,35,23.58,35,21Z"></path><path d="M50,12H14V52H31V48.3l-2.6.7a7.151,7.151,0,0,1-1.81.24,7.02,7.02,0,0,1-6.77-5.19l-1.03-3.86a1,1,0,0,1,.7-1.23l3.87-1.03A7,7,0,0,1,31,40.83V36.35a9.252,9.252,0,0,1-1.96.23,6.164,6.164,0,0,1-3.41-.95c-2.93-1.9-3.01-5.9-3.02-6.06a1,1,0,0,1,.61-.93c.15-.07,3.83-1.62,6.76.28a5.355,5.355,0,0,1,1.02.85v-2.2c-1.21-.76-4-2.92-4-6.57,0-4.57,4.37-6.8,4.55-6.89a.956.956,0,0,1,.9,0C32.63,14.2,37,16.43,37,21c0,3.65-2.79,5.81-4,6.57v2.2a5.355,5.355,0,0,1,1.02-.85c2.93-1.9,6.61-.35,6.76-.28a1,1,0,0,1,.61.93c-.01.16-.09,4.16-3.02,6.06a6.164,6.164,0,0,1-3.41.95A9.252,9.252,0,0,1,33,36.35v4.48a7,7,0,0,1,7.64-2.9l3.87,1.03a1,1,0,0,1,.7,1.23l-1.03,3.86a7.029,7.029,0,0,1-6.77,5.19A7.151,7.151,0,0,1,35.6,49L33,48.3V52H50Z"></path><path d="M23.88,39.86l-2.9.78.77,2.89a5.017,5.017,0,0,0,6.13,3.54l2.9-.78L30,43.4A5,5,0,0,0,23.88,39.86Z"></path><path d="M28.9,30.6a5.375,5.375,0,0,0-4.22-.35,5.324,5.324,0,0,0,2.04,3.7,5.307,5.307,0,0,0,4.21.35A5.345,5.345,0,0,0,28.9,30.6Z"></path><path d="M50,54H14v2a4,4,0,0,0,4,4H46a4,4,0,0,0,4-4ZM33,58H31V56h2Z"></path><path d="M50,8a4,4,0,0,0-4-4H18a4,4,0,0,0-4,4v2H50ZM27,8H25V6h2Zm8,0H29V6h6Z"></path></g></svg>