<svg xmlns="http://www.w3.org/2000/svg" viewBox="0 0 64 64" x="0px" y="0px"><g><path d="M32,24a4,4,0,0,0-4,4,3.943,3.943,0,0,0,.544,2h6.912A3.943,3.943,0,0,0,36,28,4,4,0,0,0,32,24Z"></path><path d="M50,19H14a1,1,0,0,0-1,1V30h2V25.9a1,1,0,0,1,.8-.979A4,4,0,0,0,18.92,21.8a1,1,0,0,1,.98-.8H24v2H20.658A5.984,5.984,0,0,1,17,26.658V29.34a5.812,5.812,0,0,1,1.289.66h8.057a6,6,0,1,1,11.308,0h8.057A5.812,5.812,0,0,1,47,29.34V26.658A5.984,5.984,0,0,1,43.342,23H40V21h4.1a1,1,0,0,1,.98.8,4,4,0,0,0,3.12,3.121,1,1,0,0,1,.8.979V30h2V20A1,1,0,0,0,50,19Z"></path><rect x="27" y="48" width="10.001" height="1"></rect><path d="M6,46H58V15a3,3,0,0,0-3-3H9a3,3,0,0,0-3,3Zm42-5H16V39H48ZM14,37V35h4v2Zm6,0V35H32v2Zm16,0V35h2v2Zm14,0H40V35H50ZM8,30h3V20a3,3,0,0,1,3-3H50a3,3,0,0,1,3,3V30h3v2H8Z"></path><path d="M4,51a1,1,0,0,0,1,1H59a1,1,0,0,0,1-1V48H39v1a2,2,0,0,1-2,2H27a2,2,0,0,1-2-2V48H4Z"></path></g></svg>