<svg xmlns="http://www.w3.org/2000/svg" viewBox="0 0 64 64" x="0px" y="0px"><g><path d="M40.192,20.293a1,1,0,0,0-1.414,0L36.161,22.91l-1.532.3-2.922-2.922A1,1,0,0,0,31,20H27.172l-2.536-2.535a1,1,0,0,0-1.414,0l-9.9,9.9a1,1,0,0,0,0,1.414l2.828,2.828,4.372,4.372a2.977,2.977,0,0,0,2.546,4.271A2.952,2.952,0,0,0,25.9,43.076,2.953,2.953,0,0,0,28.724,45.9a2.994,2.994,0,0,0,5.1,1.964l1.063,1.063A2.989,2.989,0,0,0,40,46.964a2.95,2.95,0,0,0,2.826-2.827,2.957,2.957,0,0,0,2.83-2.829,2.987,2.987,0,0,0,1.965-5.1l-1.058-1.058.708-.707c0-.006.006-.013.011-.018l2.814-2.814a1,1,0,0,0,0-1.414Zm-1.767,9.546a1,1,0,0,1,0,1.414,1.022,1.022,0,0,1-1.414,0l-4.243-4.242a1,1,0,0,0-1.414,0,3,3,0,0,1-4.244,0L25.7,28.425a4.966,4.966,0,0,0,1.232.885l-5.121,5.125L18.272,30.9l8.9-8.9h3.414Zm-14.5-10.253L25.344,21l-8.487,8.485-1.414-1.414ZM31.7,46.74a.992.992,0,0,1-.714-1.686L31,45.042l2.055-2.055.771-.769v0l0,0L32.414,40.8l-.773.773-2.063,2.055-.009.011a1,1,0,0,1-1.4-1.425L31,39.385l-1.414-1.414L26.758,40.8a1,1,0,0,1-1.415-1.414l2.829-2.828-1.414-1.414-2.83,2.828a1.022,1.022,0,0,1-1.413,0,1,1,0,0,1,0-1.414l2.121-2.122,0,0L29.2,29.869a4.961,4.961,0,0,0,2.793-.808L35.6,32.667a3.073,3.073,0,0,0,4.243,0,3,3,0,0,0,0-4.242l-3.51-3.51h0l8.816,8.815-.3.3a2.966,2.966,0,0,0-3.755,2.73,2.955,2.955,0,0,0-2.829,2.855,2.9,2.9,0,0,0-2.826,2.8,2.965,2.965,0,0,0-2.733,3.746l-.3.3A.989.989,0,0,1,31.7,46.74Zm6.018.777a1.022,1.022,0,0,1-1.414,0L34.889,46.1A1,1,0,0,1,36.3,44.688L37.718,46.1a.987.987,0,0,1,.293.706A1,1,0,0,1,37.718,47.517Zm2.828-2.829a1,1,0,0,1-1.414,0l-1.414-1.414a1,1,0,0,1,0-1.415.987.987,0,0,1,.706-.293,1,1,0,0,1,.707.293l1.414,1.414A1,1,0,0,1,40.546,44.688Zm2.827-2.829a1.022,1.022,0,0,1-1.413,0l-1.414-1.414a1,1,0,0,1,1.414-1.414l1.414,1.414a1,1,0,0,1,.293.707A.988.988,0,0,1,43.373,41.859Zm2.83-2.828a1,1,0,0,1-1.415,0l-1.414-1.414A1,1,0,0,1,44.789,36.2L46.2,37.617A1,1,0,0,1,46.2,39.031Zm.354-6.718-8.485-8.485,1.413-1.414L47.971,30.9Z"></path><path d="M61.2,27.02l-6.008-1.2a23.773,23.773,0,0,0-2.418-5.845l3.4-5.1a1,1,0,0,0-.125-1.262L50.385,7.958a1,1,0,0,0-1.262-.125l-5.1,3.4a23.773,23.773,0,0,0-5.845-2.418L36.98,2.8A1,1,0,0,0,36,2H28a1,1,0,0,0-.98.8l-1.2,6.008a23.773,23.773,0,0,0-5.845,2.418l-5.1-3.4a1,1,0,0,0-1.262.125L7.958,13.615a1,1,0,0,0-.125,1.262l3.4,5.1a23.773,23.773,0,0,0-2.418,5.845L2.8,27.02A1,1,0,0,0,2,28v8a1,1,0,0,0,.8.98l6.008,1.2a23.773,23.773,0,0,0,2.418,5.845l-3.4,5.1a1,1,0,0,0,.125,1.262l5.657,5.657a1,1,0,0,0,1.262.125l5.1-3.4a23.773,23.773,0,0,0,5.845,2.418l1.2,6.008A1,1,0,0,0,28,62h8a1,1,0,0,0,.98-.8l1.2-6.008a23.773,23.773,0,0,0,5.845-2.418l5.1,3.4a1,1,0,0,0,1.262-.125l5.657-5.657a1,1,0,0,0,.125-1.262l-3.4-5.1a23.773,23.773,0,0,0,2.418-5.845l6.008-1.2A1,1,0,0,0,62,36V28A1,1,0,0,0,61.2,27.02ZM60,35.18l-5.823,1.165a1,1,0,0,0-.777.75,21.818,21.818,0,0,1-2.665,6.436,1,1,0,0,0,.02,1.08l3.293,4.94-4.5,4.5-4.94-3.293a1,1,0,0,0-1.08-.02A21.818,21.818,0,0,1,37.1,53.4a1,1,0,0,0-.75.777L35.18,60H28.82l-1.165-5.823a1,1,0,0,0-.75-.777,21.818,21.818,0,0,1-6.436-2.665,1,1,0,0,0-1.08.02l-4.94,3.293-4.5-4.5,3.293-4.94a1,1,0,0,0,.02-1.08A21.818,21.818,0,0,1,10.6,37.1a1,1,0,0,0-.777-.75L4,35.18V28.82l5.823-1.165a1,1,0,0,0,.777-.75,21.818,21.818,0,0,1,2.665-6.436,1,1,0,0,0-.02-1.08l-3.293-4.94,4.5-4.5,4.94,3.293a1,1,0,0,0,1.08.02A21.818,21.818,0,0,1,26.905,10.6a1,1,0,0,0,.75-.777L28.82,4h6.36l1.165,5.823a1,1,0,0,0,.75.777,21.818,21.818,0,0,1,6.436,2.665,1,1,0,0,0,1.08-.02l4.94-3.293,4.5,4.5-3.293,4.94a1,1,0,0,0-.02,1.08A21.818,21.818,0,0,1,53.4,26.905a1,1,0,0,0,.777.75L60,28.82Z"></path><rect x="31" y="8" width="2" height="2"></rect><rect x="14.736" y="14.736" width="2" height="2" transform="translate(-6.518 15.736) rotate(-45)"></rect><rect x="8" y="31" width="2" height="2"></rect><rect x="14.736" y="47.264" width="2" height="2" transform="translate(-29.519 25.263) rotate(-45)"></rect><rect x="31" y="54" width="2" height="2"></rect><rect x="47.264" y="47.264" width="2" height="2" transform="translate(-19.991 48.264) rotate(-45)"></rect><rect x="54" y="31" width="2" height="2"></rect><rect x="47.264" y="14.736" width="2" height="2" transform="translate(3.009 38.737) rotate(-45)"></rect></g></svg>