<svg xmlns="http://www.w3.org/2000/svg" viewBox="0 0 64 64" x="0px" y="0px"><g data-name="Four Wheel Drive Car"><path d="M36,12V25H49.132L41.355,13.336A3,3,0,0,0,38.859,12Z"></path><path d="M56,33h4V32a5,5,0,0,0-.1-1H56Z"></path><path d="M21,35a10.994,10.994,0,0,1,9.793,6H34V27H10v2h1a2,2,0,0,1,2,2v2a2,2,0,0,1-2,2H10v2h3v1.462A10.985,10.985,0,0,1,21,35Z"></path><path d="M36,41h3.207A10.985,10.985,0,0,1,57,38.462V37h3V35H56a2,2,0,0,1-2-2V31a2,2,0,0,1,2-2h2.974A4.977,4.977,0,0,0,55,27H36Zm2-12h4v2H38Z"></path><path d="M59,41a1,1,0,0,0,1-1V39H57.449a10.967,10.967,0,0,1,1.344,2Z"></path><polygon points="8 22 8 19 4 19 4 20 5 20 5 22 4 22 4 24 5 24 5 26 4 26 4 29 8 29 8 28 7 28 7 26 8 26 8 24 7 24 7 22 8 22"></polygon><path d="M34,12H13a3,3,0,0,0-3,3V25H34Z"></path><path d="M10,40a1,1,0,0,0,1,1h.207a10.967,10.967,0,0,1,1.344-2H10Z"></path><rect x="10" y="31" width="1" height="2"></rect><path d="M28,47V45H26.91a5.641,5.641,0,0,0-.29-1.09l.94-.54-1-1.74-.94.55a6.047,6.047,0,0,0-.8-.8l.55-.94-1.74-1-.54.94A5.641,5.641,0,0,0,22,40.09V39H20v1.09a5.641,5.641,0,0,0-1.09.29l-.54-.94-1.74,1,.55.94a6.047,6.047,0,0,0-.8.8l-.94-.55-1,1.74.94.54A5.641,5.641,0,0,0,15.09,45H14v2h1.09a5.641,5.641,0,0,0,.29,1.09l-.94.54,1,1.74.94-.55a6.047,6.047,0,0,0,.8.8l-.55.94,1.74,1,.54-.94a5.641,5.641,0,0,0,1.09.29V53h2V51.91a5.641,5.641,0,0,0,1.09-.29l.54.94,1.74-1-.55-.94a6.047,6.047,0,0,0,.8-.8l.94.55,1-1.74-.94-.54A5.641,5.641,0,0,0,26.91,47Zm-7,3a4,4,0,1,1,4-4A4,4,0,0,1,21,50Zm0-6a2,2,0,1,0,2,2A2.006,2.006,0,0,0,21,44Zm1,3H20V45h2Z"></path><path d="M56,47V45H54.91a5.641,5.641,0,0,0-.29-1.09l.94-.54-1-1.74-.94.55a6.047,6.047,0,0,0-.8-.8l.55-.94-1.74-1-.54.94A5.641,5.641,0,0,0,50,40.09V39H48v1.09a5.641,5.641,0,0,0-1.09.29l-.54-.94-1.74,1,.55.94a6.047,6.047,0,0,0-.8.8l-.94-.55-1,1.74.94.54A5.641,5.641,0,0,0,43.09,45H42v2h1.09a5.641,5.641,0,0,0,.29,1.09l-.94.54,1,1.74.94-.55a6.047,6.047,0,0,0,.8.8l-.55.94,1.74,1,.54-.94a5.641,5.641,0,0,0,1.09.29V53h2V51.91a5.641,5.641,0,0,0,1.09-.29l.54.94,1.74-1-.55-.94a6.047,6.047,0,0,0,.8-.8l.94.55,1-1.74-.94-.54A5.641,5.641,0,0,0,54.91,47Zm-7,3a4,4,0,1,1,4-4A4,4,0,0,1,49,50Zm0-6a2,2,0,1,0,2,2A2.006,2.006,0,0,0,49,44Zm1,3H48V45h2Z"></path></g></svg>