<svg xmlns="http://www.w3.org/2000/svg" viewBox="0 0 64 64" x="0px" y="0px"><title>Lamp_1</title><g data-name="Lamp"><path d="M60,45V38.586L40.414,19H33V8H46V2H18V8H31V19H23.586L4,38.586V45H2v6H24.609a7.963,7.963,0,0,0,14.782,0H62V45ZM20,4H44V6H20ZM6,39.414,24.414,21H39.586L58,39.414V45H6ZM32,54a5.944,5.944,0,0,1-5.181-3H37.181A5.944,5.944,0,0,1,32,54Zm28-5H4V47H60Z"></path><rect x="31" y="58" width="2" height="4"></rect><rect x="21.515" y="55.485" width="4" height="2" transform="translate(-33.054 33.172) rotate(-45)"></rect><rect x="39.485" y="54.486" width="2" height="4" transform="translate(-28.083 45.172) rotate(-45)"></rect><rect x="54" y="41" width="2" height="2"></rect><rect x="54" y="38" width="2" height="2"></rect><rect x="51" y="41" width="2" height="2"></rect></g></svg>