<svg xmlns="http://www.w3.org/2000/svg" viewBox="0 0 64 64" x="0px" y="0px"><g data-name="Magnifying Glass-Money"><rect x="43.757" y="45" width="8.485" height="2" transform="translate(-18.468 47.414) rotate(-45)"></rect><rect x="50" y="47" width="2" height="2"></rect><rect x="44" y="43" width="2" height="2"></rect><rect x="51.757" y="57" width="8.485" height="2" transform="translate(-24.61 56.586) rotate(-45)"></rect><rect x="58" y="59" width="2" height="2"></rect><rect x="52" y="55" width="2" height="2"></rect><rect x="3.757" y="41" width="8.485" height="2" transform="translate(-27.355 17.958) rotate(-45)"></rect><rect x="10" y="43" width="2" height="2"></rect><rect x="4" y="39" width="2" height="2"></rect><rect x="11.757" y="55" width="8.485" height="2" transform="translate(-34.912 27.716) rotate(-45)"></rect><rect x="18" y="57" width="2" height="2"></rect><rect x="12" y="53" width="2" height="2"></rect><path d="M32,44c-.673,0-1.339-.044-2-.108V48h4V43.9C33.339,43.961,32.673,44,32,44Z"></path><path d="M27,51v9H37V51a1,1,0,0,0-1-1H28A1,1,0,0,0,27,51Z"></path><path d="M33,33a3,3,0,0,1-3-3V18a3,3,0,0,1,3-3H49.215A19.114,19.114,0,0,0,39,5.353c-.047-.019-.095-.036-.143-.054-.359-.141-.724-.269-1.092-.388l-.323-.1c-.314-.1-.632-.181-.951-.26-.138-.033-.275-.067-.414-.1-.3-.067-.6-.123-.9-.175-.151-.026-.3-.054-.453-.077-.312-.045-.626-.078-.942-.109-.138-.013-.275-.031-.414-.041C32.913,4.02,32.458,4,32,4c-.533,0-1.063.028-1.59.072-.078.007-.157.012-.235.02A18.971,18.971,0,0,0,20.8,7.651l-.051.038q-.672.494-1.3,1.048c-.448.4-.877.821-1.291,1.263H31a3,3,0,0,1,3,3H32a1,1,0,0,0-1-1H5a1,1,0,0,0-1,1V25a1,1,0,0,0,1,1H28v2H13.685A19.054,19.054,0,0,0,32,42a19.39,19.39,0,0,0,3.061-.248A19.021,19.021,0,0,0,48.143,33ZM32,8a14.855,14.855,0,0,0-6.562,1.507l-.876-1.8a17.014,17.014,0,0,1,20.709,4.666l-1.561,1.25A14.937,14.937,0,0,0,32,8ZM14,16h2v2H14Zm.293,5.293,6-6,1.414,1.414-6,6ZM22,22H20V20h2ZM32,40a16.9,16.9,0,0,1-15.291-9.562l1.8-.876A15,15,0,0,0,41.921,34.25l1.324,1.5A16.979,16.979,0,0,1,32,40Z"></path><path d="M32,18V30a1,1,0,0,0,1,1H59a1,1,0,0,0,1-1V18a1,1,0,0,0-1-1H33A1,1,0,0,0,32,18Zm18,9H48V25h2Zm-.293-5.293-6,6-1.414-1.414,6-6ZM42,21h2v2H42Z"></path></g></svg>