<svg xmlns="http://www.w3.org/2000/svg" viewBox="0 0 64 64" x="0px" y="0px"><g><path d="M38.168,10.555A1,1,0,0,0,40,10V4h3a1,1,0,0,1,1,1v5h2V5a3,3,0,0,0-3-3H7A3,3,0,0,0,4,5V53a3,3,0,0,0,3,3H35V54H7a1,1,0,0,1-1-1V5A1,1,0,0,1,7,4H34v6a1,1,0,0,0,1.832.555L37,8.8Zm-2-4.11L36,6.7V4h2V6.7l-.168-.252a1,1,0,0,0-1.664,0Z"></path><path d="M20,43A10.011,10.011,0,0,0,30,33a1,1,0,0,0-1-1H21V24a1,1,0,0,0-1-1,10,10,0,0,0,0,20ZM19,25.062V33a1,1,0,0,0,1,1h7.937A8,8,0,1,1,19,25.062Z"></path><path d="M33,30A10.011,10.011,0,0,0,23,20a1,1,0,0,0-1,1v9a1,1,0,0,0,1,1h9A1,1,0,0,0,33,30Zm-9-1V22.062A8.017,8.017,0,0,1,30.937,29Z"></path><rect x="28" y="42" width="4" height="2"></rect><rect x="28" y="46" width="4" height="2"></rect><path d="M15,17H13a1,1,0,0,1-1-1H10a3,3,0,0,0,3,3v1h2V19a3,3,0,0,0,0-6H13a1,1,0,0,1,0-2h2a1,1,0,0,1,1,1h2a3,3,0,0,0-3-3V8H13V9a3,3,0,0,0,0,6h2a1,1,0,0,1,0,2Z"></path><rect x="20" y="15" width="8" height="2"></rect><rect x="20" y="11" width="8" height="2"></rect><path d="M54,44H42a1,1,0,0,0-1,1V57a1,1,0,0,0,1,1H54a1,1,0,0,0,1-1V45A1,1,0,0,0,54,44Zm-1,4H51V46h2Zm-6,4V50h2v2Zm2,2v2H47V54Zm-4-2H43V50h2Zm2-4V46h2v2Zm4,2h2v2H51Zm-6-4v2H43V46Zm-2,8h2v2H43Zm8,2V54h2v2Z"></path><path d="M58,28H57V13a1,1,0,0,0-1.6-.8L53.338,13.75,51.273,12.2a1,1,0,0,0-1.2,0l-2.066,1.55L45.94,12.2a1,1,0,0,0-1.2,0l-2.07,1.55L40.6,12.2A1,1,0,0,0,39,13V28H38a2,2,0,0,0-2,2v9a1,1,0,0,0,.03.243l.97,3.88V60a2,2,0,0,0,2,2H57a2,2,0,0,0,2-2V43.123l.97-3.88A1,1,0,0,0,60,39V30A2,2,0,0,0,58,28ZM41,15l1.071.8a1,1,0,0,0,1.2,0l2.07-1.55,2.066,1.55a1,1,0,0,0,1.2,0l2.067-1.55,2.064,1.55a1,1,0,0,0,1.2,0L55,15V28H41ZM58,38.877l-.97,3.88A1,1,0,0,0,57,43V60H39V43a1,1,0,0,0-.03-.243L38,38.877V30H58Z"></path><path d="M41,42H55a1,1,0,0,0,1-1V33a1,1,0,0,0-1-1H41a1,1,0,0,0-1,1v8A1,1,0,0,0,41,42Zm1-8H54v6H42Z"></path><rect x="43" y="19" width="6" height="2"></rect><rect x="51" y="19" width="2" height="2"></rect><rect x="43" y="23" width="6" height="2"></rect><rect x="51" y="23" width="2" height="2"></rect><rect x="45" y="36" width="2" height="2"></rect><rect x="49" y="36" width="2" height="2"></rect></g></svg>