<svg xmlns="http://www.w3.org/2000/svg" viewBox="0 0 64 64" x="0px" y="0px"><g><path d="M47,35H46V20A11.013,11.013,0,0,0,35,9H27a1,1,0,0,0-1,1,5.982,5.982,0,0,0,1.779,4.26A3,3,0,0,0,26,17V27a1,1,0,0,0,1,1h4a1,1,0,0,0,1-1V24.414l1.707-1.707A1,1,0,0,0,34,22V20.781l2-.5v7.153l-4.515,2.709A1,1,0,0,0,31,31v4H30a1,1,0,0,0-1,1v6a1,1,0,0,0,1,1H47a1,1,0,0,0,1-1V36A1,1,0,0,0,47,35ZM35,11a9.007,9.007,0,0,1,8.867,7.518A10.98,10.98,0,0,0,35,14H32a4.009,4.009,0,0,1-3.874-3ZM33,31.566l4.515-2.709A1,1,0,0,0,38,28V19a1,1,0,0,0-1.243-.97l-4,1A1,1,0,0,0,32,20v1.586l-1.707,1.707A1,1,0,0,0,30,24v2H28V17a1,1,0,0,1,1-1h6a9.011,9.011,0,0,1,9,9V35H33ZM46,41H31V37H46Z"></path><path d="M58,2H12A7.008,7.008,0,0,0,5,9V55a7.008,7.008,0,0,0,7,7H58a1,1,0,0,0,1-1V3A1,1,0,0,0,58,2ZM57,9.92A7,7,0,0,1,51.08,4H57ZM49.059,48H24.941A9.013,9.013,0,0,0,17,40.059V11.941A9.013,9.013,0,0,0,24.941,4H49.059A9.013,9.013,0,0,0,57,11.941V40.059A9.013,9.013,0,0,0,49.059,48ZM57,42.08V48H51.08A7,7,0,0,1,57,42.08ZM13,4h2V48H13Zm4,0h5.92A7,7,0,0,1,17,9.92Zm0,38.08A7,7,0,0,1,22.92,48H17ZM7,9a5.009,5.009,0,0,1,4-4.9V17.08a6.98,6.98,0,0,0-4,2.03ZM7,24a5.009,5.009,0,0,1,4-4.9V34.08a6.98,6.98,0,0,0-4,2.03Zm4,12.1V48.08a6.988,6.988,0,0,0-4,2.025V41A5.009,5.009,0,0,1,11,36.1ZM12,60a5,5,0,0,1,0-10H57v2H13a3,3,0,0,0,0,6H57v2Zm45-6v2H13a1,1,0,0,1,0-2Z"></path></g></svg>