<svg xmlns="http://www.w3.org/2000/svg" viewBox="0 0 64 64" x="0px" y="0px"><g data-name="Startup"><polygon points="38.219 22 38 22 38 28 39.719 28 38.219 22"></polygon><polygon points="35.613 52 28.387 52 28.721 53 35.279 53 35.613 52"></polygon><path d="M34,38a2,2,0,0,0-4,0c0,.62.937,2.119,2,3.451C33.061,40.125,34,38.637,34,38Z"></path><circle cx="32" cy="14" r="1"></circle><path d="M27.051,54.316,26.279,52H4v3a1,1,0,0,0,1,1H59a1,1,0,0,0,1-1V52H37.72l-.772,2.316A1,1,0,0,1,36,55H28A1,1,0,0,1,27.051,54.316Z"></path><path d="M36,12.516,31.994,8.423,28,12.43V28h3V20h2v8h3ZM32,17a3,3,0,1,1,3-3A3,3,0,0,1,32,17Z"></path><polygon points="26 28 26 22 25.781 22 24.281 28 26 28"></polygon><path d="M54,14H38v6h1a1,1,0,0,1,.97.76l2,8a1.022,1.022,0,0,1-.18.86A1,1,0,0,1,41,30H36.72l-.77,2.32A1.014,1.014,0,0,1,35,33H29a1.014,1.014,0,0,1-.95-.68L27.28,30H23a1,1,0,0,1-.79-.38,1.022,1.022,0,0,1-.18-.86l2-8A1,1,0,0,1,25,20h1V14H10a3.009,3.009,0,0,0-3,3V50H57V17A3.009,3.009,0,0,0,54,14ZM48,25h2v6H48Zm0,8h2v2H48ZM44,22h2v4H44Zm0,6h2v2H44ZM32,34a4,4,0,0,1,4,4c0,1.94-2.71,5.06-3.26,5.67a.995.995,0,0,1-1.48,0C30.71,43.06,28,39.94,28,38A4,4,0,0,1,32,34ZM18,22h2v4H18Zm0,6h2v2H18Zm-4-3h2v6H14Zm0,8h2v2H14ZM53,47H11V45h4.56A3.906,3.906,0,0,1,15,43a4.034,4.034,0,0,1,4.13-4A4,4,0,0,1,27,40H25a2,2,0,0,0-4,0,1.008,1.008,0,0,1-1.35,1.11A1.884,1.884,0,0,0,19,41a2,2,0,0,0,0,4H45a2,2,0,0,0,0-4,1.884,1.884,0,0,0-.65.11,1.012,1.012,0,0,1-.99-.15,1.028,1.028,0,0,1-.36-.94A2,2,0,1,0,39,40H37a4,4,0,0,1,7.87-1A4.021,4.021,0,0,1,49,43a3.906,3.906,0,0,1-.56,2H53Z"></path><polygon points="29.721 31 34.279 31 34.612 30 29.387 30 29.721 31"></polygon></g></svg>