<svg xmlns="http://www.w3.org/2000/svg" viewBox="0 0 64 64" x="0px" y="0px"><g data-name="Library"><path d="M59,10a1,1,0,0,0,1-1V5a1,1,0,0,0-1-1H13a3,3,0,0,0-3,3V17a2.966,2.966,0,0,0,.184,1H6a1,1,0,0,0-1,1v4a1,1,0,0,0,1,1,2,2,0,0,1,0,4,1,1,0,0,0-1,1v4a1,1,0,0,0,1,1h4.184A2.966,2.966,0,0,0,10,35V45a2.966,2.966,0,0,0,.184,1H10a3,3,0,0,0-3,3V59a3,3,0,0,0,3,3H56a1,1,0,0,0,1-1V57a1,1,0,0,0-1-1,2,2,0,0,1,0-4,1,1,0,0,0,1-1V48h2a1,1,0,0,0,1-1V43a1,1,0,0,0-1-1,2,2,0,0,1,0-4,1,1,0,0,0,1-1V33a1,1,0,0,0-1-1H54.816A2.966,2.966,0,0,0,55,31V21a2.966,2.966,0,0,0-.184-1H59a1,1,0,0,0,1-1V15a1,1,0,0,0-1-1,2,2,0,0,1,0-4ZM58,8H16V6H58ZM12,17V7a1,1,0,0,1,1-1h1V18H13A1,1,0,0,1,12,17ZM7,20H49v2H7Zm2.858,7H45V25H9.858a3.966,3.966,0,0,0-.414-1H49v4H9.444A3.966,3.966,0,0,0,9.858,27ZM7,30H49v2H7Zm7,4V46H13a1,1,0,0,1-1-1V35a1,1,0,0,1,1-1ZM9,59V49a1,1,0,0,1,1-1h1V60H10A1,1,0,0,1,9,59Zm46,1H13V58H55Zm-2.858-7H17v2H52.142a3.966,3.966,0,0,0,.414,1H13V52H52.556A3.966,3.966,0,0,0,52.142,53ZM55,50H13V48H55Zm3-4H16V44H58Zm-2.858-7H18v2H55.142a3.966,3.966,0,0,0,.414,1H16V38H55.556A3.966,3.966,0,0,0,55.142,39ZM58,36H16V34H58ZM53,21V31a1,1,0,0,1-1,1H51V20h1A1,1,0,0,1,53,21Zm5-3H16V16H58ZM16,14V10H55.556a3.966,3.966,0,0,0-.414,1H20v2H55.142a3.966,3.966,0,0,0,.414,1Z"></path></g></svg>