<svg xmlns="http://www.w3.org/2000/svg" viewBox="0 0 64 64" x="0px" y="0px"><g><path d="M61.724,29.343l-6.97-8A1,1,0,0,0,54,21H50V11h8V22h2V10a1,1,0,0,0-1-1H50V5a3,3,0,0,0-3-3H17a3,3,0,0,0-3,3H8A1,1,0,0,0,7,6v4H9V7h5v5H5a3,3,0,0,0-3,3V55a3,3,0,0,0,3,3H28v1a3,3,0,0,0,3,3H59a3,3,0,0,0,3-3V30.03A1.107,1.107,0,0,0,61.724,29.343ZM55,24.67,58.773,29H56a1,1,0,0,1-1-1ZM42,4h2V7.7l-.168-.252a1.039,1.039,0,0,0-1.664,0L42,7.7ZM16,5a1,1,0,0,1,1-1H40v7a1,1,0,0,0,1.832.555L43,9.8l1.168,1.752A1,1,0,0,0,46,11V4h1a1,1,0,0,1,1,1V49a1,1,0,0,1-1,1H17a1,1,0,0,1-1-1ZM8,14h2v3.7l-.168-.252a1.039,1.039,0,0,0-1.664,0L8,17.7ZM4,55V15a1,1,0,0,1,1-1H6v7a1,1,0,0,0,1.832.555L9,19.8l1.168,1.752A1,1,0,0,0,12,21V14h2V49a3,3,0,0,0,3,3H32v3a1,1,0,0,1-1,1H5A1,1,0,0,1,4,55Zm55,5H31a1,1,0,0,1-1-1V58h1a3,3,0,0,0,3-3V52H47a3,3,0,0,0,3-3V23h3v5a3,3,0,0,0,3,3h4V59A1,1,0,0,1,59,60Z"></path><path d="M22,28H42a1,1,0,0,0,1-1V19a1,1,0,0,0-1-1H22a1,1,0,0,0-1,1v8A1,1,0,0,0,22,28Zm1-8H41v6H23Z"></path><rect x="31" y="22" width="2" height="2"></rect><rect x="35" y="22" width="2" height="2"></rect><rect x="27" y="22" width="2" height="2"></rect><rect x="21" y="8" width="6" height="2"></rect><rect x="21" y="12" width="6" height="2"></rect><rect x="21" y="32" width="22" height="2"></rect><rect x="21" y="36" width="22" height="2"></rect><rect x="21" y="40" width="22" height="2"></rect><rect x="52" y="36" width="6" height="2"></rect><rect x="52" y="40" width="6" height="2"></rect><rect x="52" y="44" width="6" height="2"></rect><rect x="52" y="48" width="6" height="2"></rect><rect x="6" y="44" width="6" height="2"></rect><rect x="6" y="40" width="6" height="2"></rect><rect x="6" y="36" width="6" height="2"></rect><rect x="6" y="32" width="6" height="2"></rect><rect x="6" y="28" width="6" height="2"></rect></g></svg>