<svg xmlns="http://www.w3.org/2000/svg" viewBox="0 0 64 64" x="0px" y="0px"><g><circle cx="5" cy="51" r="2"></circle><circle cx="59" cy="55" r="2"></circle><path d="M36,51H34V61a1,1,0,0,0,1,1h8V60H36Z"></path><rect x="45" y="60" width="2" height="2"></rect><rect x="49" y="60" width="2" height="2"></rect><rect x="53" y="60" width="2" height="2"></rect><path d="M28,58H21v2h8a1,1,0,0,0,1-1V51H28Z"></path><rect x="17" y="58" width="2" height="2"></rect><rect x="13" y="58" width="2" height="2"></rect><rect x="9" y="58" width="2" height="2"></rect><path d="M45,49v6a1,1,0,0,0,1,1h8V54H47V49Z"></path><path d="M59,52a3,3,0,1,0,3,3A3,3,0,0,0,59,52Zm0,4a1,1,0,1,1,1-1A1,1,0,0,1,59,56Z"></path><path d="M17,50H10v2h8a1,1,0,0,0,1-1V47H17Z"></path><path d="M52,14a1,1,0,0,1-1-1,5,5,0,0,0-8.581-3.484,1,1,0,0,1-1.6-.226,9.993,9.993,0,0,0-18.733,3.458,1,1,0,0,1-1.675.606A4.993,4.993,0,0,0,12,17a1.086,1.086,0,0,1-.343.8,1.027,1.027,0,0,1-.8.274A5.914,5.914,0,0,0,10,18a6,6,0,0,0,0,12H52a8,8,0,0,0,0-16ZM24,28H22V26h2Zm15,0H26V26H39Zm4,0H41V26h2Zm2-14H43V12h2Zm2-2h2v2H47Zm3,16H48V26h2Zm2,0V26a4,4,0,0,0,4-4h2A6.006,6.006,0,0,1,52,28Z"></path><path d="M32,37a6.006,6.006,0,0,0,5.91-5H26.09A6.006,6.006,0,0,0,32,37Z"></path><path d="M25.149,41.6a1,1,0,0,1,1.082-.077,11.641,11.641,0,0,0,2.394.986,1,1,0,0,1,.715.819L29.867,47h4.267l.526-3.672a1,1,0,0,1,.715-.819,11.664,11.664,0,0,0,2.394-.986,1,1,0,0,1,1.082.077l2.956,2.219,3.012-3.013L42.6,37.85a1,1,0,0,1-.078-1.08,11.672,11.672,0,0,0,.985-2.4,1,1,0,0,1,.82-.715L48,33.133V32H39.931a7.993,7.993,0,0,1-15.862,0H16v1.133l3.672.527a1,1,0,0,1,.819.715,11.641,11.641,0,0,0,.986,2.394,1,1,0,0,1-.077,1.082l-2.219,2.955,3.013,3.013Z"></path></g></svg>