<svg xmlns="http://www.w3.org/2000/svg" viewBox="0 0 64 64" x="0px" y="0px"><title>Cloud Networking_1</title><g data-name="Cloud Networking"><path d="M26.707,39.293a1,1,0,0,0-1.414,0l-5,5A1,1,0,0,0,21,46h2V56h2V45a1,1,0,0,0-1-1h-.586L26,41.414,28.586,44H28a1,1,0,0,0-1,1V56h2V46h2a1,1,0,0,0,.707-1.707Z"></path><path d="M43,49H41V39H39V50a1,1,0,0,0,1,1h.586L38,53.586,35.414,51H36a1,1,0,0,0,1-1V39H35V49H33a1,1,0,0,0-.707,1.707l5,5a1,1,0,0,0,1.414,0l5-5A1,1,0,0,0,43,49Z"></path><path d="M51.6,20.473A15.988,15.988,0,0,0,22.149,16L22,16A13.024,13.024,0,0,0,9.222,26.671,11.058,11.058,0,0,0,2.048,38.044,11.242,11.242,0,0,0,13.305,48H18V46H13.305A9.226,9.226,0,0,1,4.04,37.86,9.044,9.044,0,0,1,10.4,28.385a1,1,0,0,0,.7-.828A11.017,11.017,0,0,1,22,18c.152,0,.3.011.45.021l.214.013a1.018,1.018,0,0,0,.941-.533,13.99,13.99,0,0,1,26.156,3.975,1,1,0,0,0,.773.8,12.021,12.021,0,0,1,9.411,12.893A12.281,12.281,0,0,1,47.639,46H46v2h1.639a14.3,14.3,0,0,0,14.3-12.646A14.024,14.024,0,0,0,51.6,20.473Z"></path></g></svg>