<svg xmlns="http://www.w3.org/2000/svg" viewBox="0 0 64 64" x="0px" y="0px"><g data-name="Smart Boiler-Internet of Things-App-Internet-Smartphone"><path d="M28.22,8l.72-2.88a2.24,2.24,0,0,0-3.88,0L25.78,8Z"></path><path d="M28,25a1,1,0,0,0-2,0v3h2Z"></path><rect x="26" y="37" width="2" height="5"></rect><rect x="26" y="30" width="2" height="5"></rect><path d="M57,54H37v3a3.009,3.009,0,0,0,3,3H54a3.009,3.009,0,0,0,3-3Zm-9,4H46V56h2Z"></path><path d="M27,48a1,1,0,0,0,1-1V44H26v3A1,1,0,0,0,27,48Z"></path><polygon points="7.41 18 12 22.59 12 18 7.41 18"></polygon><path d="M13,60H36.03A4.924,4.924,0,0,1,35,57V56H13a1,1,0,0,0-1,1v2A1,1,0,0,0,13,60Z"></path><path d="M14,16H40V15a5,5,0,0,0-5-5H19a5,5,0,0,0-5,5Z"></path><path d="M57,31a3.009,3.009,0,0,0-3-3H40a3.009,3.009,0,0,0-3,3v1H57Z"></path><path d="M42,24v2h4V25a1,1,0,0,0-1-1Z"></path><path d="M57,34H37V52H57ZM47,50a7,7,0,1,1,7-7A7.008,7.008,0,0,1,47,50Z"></path><path d="M50,26V25a5,5,0,0,0-5-5H42v2h3a3.009,3.009,0,0,1,3,3v1Z"></path><path d="M47,38a5,5,0,1,0,5,5A5.006,5.006,0,0,0,47,38Zm1.293,7.707-2-2A1,1,0,0,1,46,43V40h2v2.586l1.707,1.707Z"></path><path d="M14,54H35V31a5,5,0,0,1,5-5V18H14ZM24,25a3,3,0,0,1,6,0V47a3,3,0,0,1-6,0Z"></path></g></svg>