<svg xmlns="http://www.w3.org/2000/svg" viewBox="0 0 64 64" x="0px" y="0px"><title>Money-Exchange</title><g><path d="M26,11a1,1,0,0,1,1,1h2a3,3,0,0,0-2-2.816V8H25V9.184A2.993,2.993,0,0,0,26,15a1,1,0,1,1-1,1H23a3,3,0,0,0,2,2.816V20h2V18.816A2.993,2.993,0,0,0,26,13a1,1,0,0,1,0-2Z"></path><path d="M26,5a9,9,0,1,0,9,9A9.01,9.01,0,0,0,26,5Zm0,16a7,7,0,1,1,7-7A7.008,7.008,0,0,1,26,21Z"></path><rect x="30" y="13" width="2" height="2"></rect><rect x="20" y="13" width="2" height="2"></rect><path d="M48,26a2,2,0,0,0,2-2V4a2,2,0,0,0-2-2H4A2,2,0,0,0,2,4V24a2,2,0,0,0,2,2ZM4,4H48V24H4Z"></path><path d="M6,7v4H8V8h3V6H7A1,1,0,0,0,6,7Z"></path><path d="M8,17H6v4a1,1,0,0,0,1,1h4V20H8Z"></path><path d="M45,6H41V8h3v3h2V7A1,1,0,0,0,45,6Z"></path><path d="M44,20H41v2h4a1,1,0,0,0,1-1V17H44Z"></path><path d="M38,47a1,1,0,0,1,1,1h2a3,3,0,0,0-2-2.816V44H37v1.184A2.993,2.993,0,0,0,38,51a1,1,0,1,1-1,1H35a3,3,0,0,0,2,2.816V56h2V54.816A2.993,2.993,0,0,0,38,49a1,1,0,0,1,0-2Z"></path><path d="M38,41a9,9,0,1,0,9,9A9.01,9.01,0,0,0,38,41Zm0,16a7,7,0,1,1,7-7A7.008,7.008,0,0,1,38,57Z"></path><rect x="42" y="49" width="2" height="2"></rect><rect x="32" y="49" width="2" height="2"></rect><path d="M60,38H16a2,2,0,0,0-2,2V60a2,2,0,0,0,2,2H60a2,2,0,0,0,2-2V40A2,2,0,0,0,60,38ZM16,60V40H60V60Z"></path><path d="M18,43v4h2V44h3V42H19A1,1,0,0,0,18,43Z"></path><path d="M20,53H18v4a1,1,0,0,0,1,1h4V56H20Z"></path><path d="M57,42H53v2h3v3h2V43A1,1,0,0,0,57,42Z"></path><path d="M56,56H53v2h4a1,1,0,0,0,1-1V53H56Z"></path><path d="M52.465,27.05l-1.414,1.414,4.242,4.243a1,1,0,0,0,1.414,0l4.242-4.243L59.535,27.05,57,29.586V14a1,1,0,0,0-1-1H52v2h3V29.586Z"></path><path d="M11.535,36.95l1.414-1.414L8.707,31.293a1.029,1.029,0,0,0-1.414,0L3.051,35.536,4.465,36.95,7,34.414V50a1,1,0,0,0,1,1h4V49H9V34.414Z"></path></g></svg>