<svg xmlns="http://www.w3.org/2000/svg" viewBox="0 0 64 64" x="0px" y="0px"><title>Browser_13</title><g data-name="Browser"><path d="M2,2V62H62V2ZM60,4v6H4V4ZM4,60V12H60V60Z"></path><rect x="6" y="6" width="2" height="2"></rect><rect x="10" y="6" width="2" height="2"></rect><rect x="14" y="6" width="2" height="2"></rect><rect x="56" y="6" width="2" height="2"></rect><path d="M8,28H56V16H8Zm2-10H54v8H10Z"></path><path d="M8,56H56V32H8Zm2-22H54V54H10Z"></path><rect x="31" y="43" width="2" height="2"></rect><rect x="37" y="43" width="2" height="2"></rect><rect x="25" y="43" width="2" height="2"></rect></g></svg>