<svg xmlns="http://www.w3.org/2000/svg" viewBox="0 0 64 64" x="0px" y="0px"><g data-name="Flask"><path d="M42.955,6.328a4.986,4.986,0,0,0-8.948-2.312,5.1,5.1,0,0,0-6.059.04A6.995,6.995,0,0,0,16.059,8.089,5,5,0,0,0,16,17.9V23a3,3,0,0,0,6,0V22a1,1,0,0,1,2,0V55a7,7,0,0,0,14,0V22a3.017,3.017,0,0,0,3-3,2.966,2.966,0,0,0-.184-1H41A6,6,0,0,0,42.955,6.328ZM31,60a5.006,5.006,0,0,1-5-5V42.347a9.32,9.32,0,0,0,2,.193,8.615,8.615,0,0,0,3.339-.6A7.706,7.706,0,0,1,36,41.719V55A5.006,5.006,0,0,1,31,60Zm5-20.347a9.32,9.32,0,0,0-2-.193,8.615,8.615,0,0,0-3.339.6A6.646,6.646,0,0,1,28,40.54a6.6,6.6,0,0,1-2-.259V30.816A2.966,2.966,0,0,0,27,31a3,3,0,0,0,3-3V22h6ZM39,19a.978.978,0,0,1-.306.712A.957.957,0,0,1,38,20H30V18h8A1,1,0,0,1,39,19Zm2-3H29a1,1,0,0,0-1,1V28a1,1,0,0,1-2,0V22a3,3,0,0,0-6,0v1a1,1,0,0,1-2,0V17a1,1,0,0,0-1-1,3,3,0,0,1,0-6,1,1,0,0,0,1-1,5,5,0,0,1,9.068-2.9,1,1,0,0,0,.788.418.961.961,0,0,0,.809-.376,2.967,2.967,0,0,1,4.767.113.992.992,0,0,0,.953.406,1,1,0,0,0,.8-.657,2.993,2.993,0,0,1,5.818.906c-.005.037-.013.12-.015.158a1,1,0,0,0,.8,1.009A4,4,0,0,1,41,16Z"></path><path d="M50,16a3,3,0,1,0,3,3A3,3,0,0,0,50,16Zm0,4a1,1,0,1,1,1-1A1,1,0,0,1,50,20Z"></path><path d="M10,17a3,3,0,1,0,3,3A3,3,0,0,0,10,17Zm0,4a1,1,0,1,1,1-1A1,1,0,0,1,10,21Z"></path><path d="M19,28a3,3,0,1,0,3,3A3,3,0,0,0,19,28Zm0,4a1,1,0,1,1,1-1A1,1,0,0,1,19,32Z"></path><rect x="22" y="12" width="2" height="2"></rect><rect x="28" y="8" width="2" height="2"></rect><rect x="35" y="10" width="2" height="2"></rect><rect x="32" y="25" width="2" height="2"></rect><rect x="32" y="32" width="2" height="2"></rect><rect x="28" y="35" width="2" height="2"></rect><rect x="32" y="45" width="2" height="2"></rect><rect x="28" y="50" width="2" height="2"></rect></g></svg>