<svg xmlns="http://www.w3.org/2000/svg" viewBox="0 0 64 64" x="0px" y="0px"><g><rect x="27" y="37" width="4" height="1"></rect><rect x="18" y="48" width="4" height="4"></rect><rect x="33" y="40" width="4" height="1"></rect><rect x="27" y="40" width="4" height="1"></rect><polygon points="49 22.586 49 12 43 12 43 16.586 49 22.586"></polygon><path d="M29.807,13.779l.076-.076a3,3,0,0,1,4.234,0l20.09,20.09a1.125,1.125,0,0,0,1.586,0,1.123,1.123,0,0,0,0-1.586L32.7,9.117a1,1,0,0,0-1.406,0l-2.141,2.141A13.964,13.964,0,0,1,29.807,13.779Z"></path><path d="M16,28A12,12,0,1,0,4,16,12.013,12.013,0,0,0,16,28Zm-4-9h2v1a1,1,0,0,0,1,1h2a1,1,0,0,0,1-1V18a1,1,0,0,0-1-1H15a3,3,0,0,1-3-3V12a3,3,0,0,1,3-3V7h2V9a3,3,0,0,1,3,3v1H18V12a1,1,0,0,0-1-1H15a1,1,0,0,0-1,1v2a1,1,0,0,0,1,1h2a3,3,0,0,1,3,3v2a3,3,0,0,1-3,3v2H15V23a3,3,0,0,1-3-3Z"></path><rect x="33" y="37" width="4" height="1"></rect><rect x="41" y="8" width="10" height="2"></rect><path d="M37,60V46H27V60Zm-9-7h1V51H28V49h2a1,1,0,0,1,1,1v4a1,1,0,0,1-1,1H28Z"></path><path d="M8.207,32.207a1.125,1.125,0,0,0,0,1.586,1.123,1.123,0,0,0,1.586,0l3.5-3.5,0,0,.485-.485a13.964,13.964,0,0,1-2.521-.651Z"></path><path d="M16.436,29.978,16.414,30H47.586L32.7,15.117a1,1,0,0,0-1.406,0l-1.319,1.319A14,14,0,0,1,16.436,29.978Z"></path><path d="M56,57a1,1,0,0,1-1-1,3,3,0,0,0-6,0,2.962,2.962,0,0,0,.113.759,1,1,0,0,1-1.006,1.255c-.034,0-.135-.012-.169-.016a2.977,2.977,0,0,0-2.767,2h14.7A4.006,4.006,0,0,0,56,57Z"></path><path d="M13,57a.506.506,0,0,1-.138.017.971.971,0,0,1-.984-.67A1.993,1.993,0,0,0,8,57a1.972,1.972,0,0,0,.214.875,1,1,0,0,1-1.34,1.338,1.993,1.993,0,0,0-2.6.787h12.6A4.006,4.006,0,0,0,13,57Z"></path><path d="M47.992,53.041A5,5,0,0,1,49,52.026V32H15V55.348A6.013,6.013,0,0,1,18.911,60H25V45a1,1,0,0,1,1-1H38a1,1,0,0,1,1,1V60h4.11A5.007,5.007,0,0,1,47,56.1c0-.033,0-.067,0-.1a4.938,4.938,0,0,1,.511-2.161A.971.971,0,0,1,47,54H41a1,1,0,0,1-1-1V47a1,1,0,0,1,1-1h6a1,1,0,0,1,1,1v6C48,53.015,47.992,53.027,47.992,53.041ZM24,53a1,1,0,0,1-1,1H17a1,1,0,0,1-1-1V47a1,1,0,0,1,1-1h6a1,1,0,0,1,1,1ZM39,41a2,2,0,0,1-2,2H27a2,2,0,0,1-2-2V37a2,2,0,0,1,2-2H37a2,2,0,0,1,2,2Z"></path><rect x="42" y="48" width="4" height="4"></rect></g></svg>