<svg xmlns="http://www.w3.org/2000/svg" viewBox="0 0 64 64" x="0px" y="0px"><g><path d="M32,2A30,30,0,1,0,62,32,30.034,30.034,0,0,0,32,2Zm0,58A28,28,0,1,1,60,32,28.032,28.032,0,0,1,32,60Z"></path><rect x="20" y="13" width="2" height="12"></rect><rect x="23" y="13" width="2" height="12"></rect><path d="M48.655,49.28l1.389,1.44a26.457,26.457,0,0,0,1.934-2.079L50.442,47.36A24.438,24.438,0,0,1,48.655,49.28Z"></path><path d="M56,32a23.87,23.87,0,0,1-4.113,13.439l1.656,1.122A25.868,25.868,0,0,0,58,32Z"></path><path d="M51,32a18.866,18.866,0,0,0-5-12.813V13a1.072,1.072,0,0,0-1.081-1,7,7,0,0,0-5.393,2.565A18.677,18.677,0,0,0,32,13a18.943,18.943,0,0,0-4,.428V13H26V24.586l-1.707,1.707a1,1,0,0,0-.289.79l1.639,19.668A3,3,0,0,1,22.652,50h-.3a3,3,0,0,1-2.991-3.249L21,27.083a1,1,0,0,0-.289-.79L19,24.586V13H17v7.362a18.926,18.926,0,0,0,.554,23.951l-.189,2.272A5,5,0,0,0,22.348,52h.3a5.013,5.013,0,0,0,3.68-1.614c.061-.067.1-.146.16-.215a18.724,18.724,0,0,0,10.47.16A5.214,5.214,0,0,0,46,46.78V44.813A18.866,18.866,0,0,0,51,32ZM15,32a17.032,17.032,0,0,1,2-7.97V25a1,1,0,0,0,.293.707l1.672,1.672L17.8,41.317A16.955,16.955,0,0,1,15,32Zm34,0a16.865,16.865,0,0,1-3,9.612V22.388A16.865,16.865,0,0,1,49,32ZM27.439,48.37a4.969,4.969,0,0,0,.2-1.785l-1.6-19.206,1.672-1.672A1,1,0,0,0,28,25V15.489A16.968,16.968,0,0,1,32,15a16.7,16.7,0,0,1,6.469,1.312,6.893,6.893,0,0,0-.414,1.315L35.439,30.705a4.988,4.988,0,0,0,1.368,4.516l.14.14L35.6,46.133a5.206,5.206,0,0,0,.276,2.417A17.212,17.212,0,0,1,27.439,48.37ZM44,46.78a3.22,3.22,0,1,1-6.415-.4L38.883,36H44ZM44,34H38.414l-.193-.193A3,3,0,0,1,37.4,31.1L40.016,18.02A5.018,5.018,0,0,1,44,14.085Z"></path></g></svg>