<svg xmlns="http://www.w3.org/2000/svg" viewBox="0 0 64 64" x="0px" y="0px"><g><rect x="19" y="22" width="2" height="2"></rect><rect x="19" y="14" width="2" height="2"></rect><polygon points="44 54 60 54 60 50 59 50 59 52 57 52 57 50 55 50 55 52 53 52 53 50 51 50 51 52 49 52 49 50 47 50 47 52 45 52 45 50 44 50 44 54"></polygon><rect x="4" y="4" width="32" height="2"></rect><polygon points="44 60 60 60 60 56 59 56 59 58 57 58 57 56 55 56 55 58 53 58 53 56 51 56 51 58 49 58 49 56 47 56 47 58 45 58 45 56 44 56 44 60"></polygon><rect x="11" y="38" width="2" height="2"></rect><rect x="41" y="30" width="2" height="2"></rect><rect x="41" y="22" width="2" height="2"></rect><rect x="27" y="22" width="2" height="2"></rect><rect x="49" y="22" width="2" height="2"></rect><rect x="11" y="30" width="2" height="2"></rect><rect x="27" y="14" width="2" height="2"></rect><rect x="49" y="30" width="2" height="2"></rect><path d="M36,16V33H34V8H6V60h7V49a1,1,0,0,1,1-1h8v2H15V60h9V56a2.006,2.006,0,0,1,2-2h2.67A9.991,9.991,0,1,1,42,40.67V38a2.006,2.006,0,0,1,2-2H56V16ZM25,13a1,1,0,0,1,1-1h4a1,1,0,0,1,1,1v4a1,1,0,0,1-1,1H26a1,1,0,0,1-1-1Zm0,8a1,1,0,0,1,1-1h4a1,1,0,0,1,1,1v4a1,1,0,0,1-1,1H26a1,1,0,0,1-1-1Zm-8-8a1,1,0,0,1,1-1h4a1,1,0,0,1,1,1v4a1,1,0,0,1-1,1H18a1,1,0,0,1-1-1Zm0,8a1,1,0,0,1,1-1h4a1,1,0,0,1,1,1v4a1,1,0,0,1-1,1H18a1,1,0,0,1-1-1Zm0,8a1,1,0,0,1,1-1h4a1,1,0,0,1,1,1v3H21V30H19v2h1v2H18a1,1,0,0,1-1-1ZM15,41a1,1,0,0,1-1,1H10a1,1,0,0,1-1-1V37a1,1,0,0,1,1-1h4a1,1,0,0,1,1,1Zm0-8a1,1,0,0,1-1,1H10a1,1,0,0,1-1-1V29a1,1,0,0,1,1-1h4a1,1,0,0,1,1,1Zm0-8a1,1,0,0,1-1,1H10a1,1,0,0,1-1-1V21a1,1,0,0,1,1-1h4a1,1,0,0,1,1,1Zm0-8a1,1,0,0,1-1,1H10a1,1,0,0,1-1-1V13a1,1,0,0,1,1-1h4a1,1,0,0,1,1,1Zm2,20a1,1,0,0,1,1-1h3v2H19v2H17Zm4.01,6.9-3.94-.69.35-1.97,3.94.69Zm2.8-6.68-2.83-2.83,1.41-1.41,2.83,2.83ZM28,30H27v2h1v2H26a1,1,0,0,1-1-1V29a1,1,0,0,1,1-1h2Zm1.93,3.36-.69-3.94,1.97-.35.69,3.94ZM45,33a1,1,0,0,1-1,1H40a1,1,0,0,1-1-1V29a1,1,0,0,1,1-1h4a1,1,0,0,1,1,1Zm0-8a1,1,0,0,1-1,1H40a1,1,0,0,1-1-1V21a1,1,0,0,1,1-1h4a1,1,0,0,1,1,1Zm8,8a1,1,0,0,1-1,1H48a1,1,0,0,1-1-1V29a1,1,0,0,1,1-1h4a1,1,0,0,1,1,1Zm0-8a1,1,0,0,1-1,1H48a1,1,0,0,1-1-1V21a1,1,0,0,1,1-1h4a1,1,0,0,1,1,1Z"></path><polygon points="42 56 41 56 41 58 39 58 39 56 37 56 37 58 35 58 35 56 33 56 33 58 31 58 31 56 29 56 29 58 27 58 27 56 26 56 26 60 42 60 42 56"></polygon><polygon points="44 48 60 48 60 44 59 44 59 46 57 46 57 44 55 44 55 46 53 46 53 44 51 44 51 46 49 46 49 44 47 44 47 46 45 46 45 44 44 44 44 48"></polygon><polygon points="44 38 44 42 60 42 60 38 59 38 59 40 57 40 57 38 55 38 55 40 53 40 53 38 51 38 51 40 49 40 49 38 47 38 47 40 45 40 45 38 44 38"></polygon><path d="M33,37a8,8,0,1,0,8,8A8.011,8.011,0,0,0,33,37Zm0,7a3,3,0,0,1,1,5.82V51H32V49.82A3.01,3.01,0,0,1,30,47h2a1,1,0,1,0,1-1,3,3,0,0,1-1-5.82V39h2v1.18A3.01,3.01,0,0,1,36,43H34a1,1,0,1,0-1,1Z"></path><path d="M42,50a1.978,1.978,0,0,1,.278-1c-.022-.038-.043-.077-.063-.116A10.054,10.054,0,0,1,37.33,54H42Z"></path><rect x="11" y="14" width="2" height="2"></rect><rect x="11" y="22" width="2" height="2"></rect></g></svg>