<svg xmlns="http://www.w3.org/2000/svg" viewBox="0 0 64 64" x="0px" y="0px"><title>Business Thinking_1</title><g data-name="Business Thinking"><path d="M61,8H29a1,1,0,0,0-1,1V23a1,1,0,0,0,1,1H61a1,1,0,0,0,1-1V9A1,1,0,0,0,61,8ZM60,22H30V10H60Z"></path><path d="M32,20a1.95,1.95,0,0,1,1.477.657A1,1,0,0,0,34.23,21H40V19H34.646A3.943,3.943,0,0,0,33,18.125v-4.25A3.943,3.943,0,0,0,34.646,13H40V11H34.23a1,1,0,0,0-.753.343A1.95,1.95,0,0,1,32,12a1,1,0,0,0-1,1v6A1,1,0,0,0,32,20Z"></path><path d="M57,13.875v4.25A3.943,3.943,0,0,0,55.354,19H50v2h5.77a1,1,0,0,0,.753-.343A1.95,1.95,0,0,1,58,20a1,1,0,0,0,1-1V13a1,1,0,0,0-1-1,1.95,1.95,0,0,1-1.477-.657A1,1,0,0,0,55.77,11H50v2h5.354A3.943,3.943,0,0,0,57,13.875Z"></path><path d="M45,21a5,5,0,1,0-5-5A5.006,5.006,0,0,0,45,21Zm0-8a3,3,0,1,1-3,3A3,3,0,0,1,45,13Z"></path><path d="M17.5,24A2.5,2.5,0,0,1,15,21.5H13a4.5,4.5,0,0,0,9,0H20A2.5,2.5,0,0,1,17.5,24Z"></path><path d="M58,40a9.01,9.01,0,0,1-9,9,1,1,0,0,0-1,1V60H26V51h5V49H17a5.006,5.006,0,0,1-5-5V36a1,1,0,0,0-1-1H6.385l6.539-19.748A17.9,17.9,0,0,1,29.392,4H43a15,15,0,0,1,7.511,2.012l1-1.73A17,17,0,0,0,43,2H29.392A19.914,19.914,0,0,0,11.051,14.555l-7,21.131A1,1,0,0,0,5,37h5v7a7.008,7.008,0,0,0,7,7h7V61a1,1,0,0,0,1,1H49a1,1,0,0,0,1-1V50.955A11.015,11.015,0,0,0,60,40V28H58Z"></path></g></svg>