<svg xmlns="http://www.w3.org/2000/svg" viewBox="0 0 64 64" x="0px" y="0px"><g><polygon points="53 10 55 10 55 8 57 8 57 6 55 6 55 4 53 4 53 6 51 6 51 8 53 8 53 10"></polygon><rect x="46" y="12" width="6" height="2"></rect><rect x="51" y="16" width="6" height="2"></rect><polygon points="53 54 51 54 51 56 49 56 49 58 51 58 51 60 53 60 53 58 55 58 55 56 53 56 53 54"></polygon><path d="M19,7H31a1,1,0,0,0,1-1V4H18V6A1,1,0,0,0,19,7Z"></path><path d="M42,55.6A20,20,0,1,1,42,16.4V7a3,3,0,0,0-3-3H34V6a3,3,0,0,1-3,3H19a3,3,0,0,1-3-3V4H11A3,3,0,0,0,8,7V57a3,3,0,0,0,3,3H39a3,3,0,0,0,3-3ZM30,11h2v2H30Zm-4,0h2v2H26Zm-4,0h2v2H22Zm1.34,5.972L24.625,18.5,23.092,19.79l-1.285-1.533Zm-1.55,4.121-1.285,1.532-1.532-1.286,1.285-1.532ZM18,11h2v2H18Zm-.284,12.134,1.731,1-1,1.732-1.731-1Zm-1.927,3.718,1.88.684-.684,1.88-1.88-.685Zm-1.251,4,1.97.347-.348,1.97-1.97-.348ZM14,35h2v2H14Zm.19,4.183,1.97-.348.348,1.97-1.97.347Zm.915,4.086,1.88-.685.684,1.88-1.88.684Zm1.611,3.865,1.731-1,1,1.732-1.731,1Zm3.542,5.059-1.285-1.532,1.532-1.286,1.285,1.532Zm3.082,2.835-1.533-1.285,1.285-1.533L24.625,53.5Zm3.526,2.257-1.732-1,1-1.732,1.732,1Z"></path><path d="M56,36A18,18,0,1,0,38,54,18.021,18.021,0,0,0,56,36Zm-10.222.636-7.071,7.071a1,1,0,0,1-1.414,0l-7.071-7.071a5,5,0,0,1,7.071-7.071l.707.707.707-.707a5,5,0,0,1,7.071,7.071Z"></path><path d="M40.121,30.979l-1.414,1.415a1.029,1.029,0,0,1-1.414,0l-1.414-1.415a3,3,0,1,0-4.243,4.243L38,41.586l6.364-6.364a3,3,0,1,0-4.243-4.243Z"></path></g></svg>