<svg xmlns="http://www.w3.org/2000/svg" viewBox="0 0 64 64" x="0px" y="0px"><g><path d="M62,46H56.68a1,1,0,0,1-.51-.14l-2.63-1.58A8.969,8.969,0,0,0,48.91,43h-1.3a9.058,9.058,0,0,0-3.34.64l-3.22,1.29a.9.9,0,0,1-.37.07h-7a2,2,0,0,0,0,4h10v2H33.17a5.009,5.009,0,0,1-2.5-.67L20,44.17a1.969,1.969,0,0,0-1.52-.2A2,2,0,0,0,18,47.63l13.63,7.88a14.956,14.956,0,0,0,9.16,1.92l12.78-1.42a.884.884,0,0,1,.23,0L62,57Z"></path><path d="M27.89,31.1a9.748,9.748,0,0,1-.84-3.1h-2a11.873,11.873,0,0,0,1.11,4.11Z"></path><path d="M27.39,24.26l-1.78-1.02A11.764,11.764,0,0,0,25.05,26h2A9.393,9.393,0,0,1,27.39,24.26Z"></path><path d="M28.89,32.83l-1.74,1.01a12.3,12.3,0,0,0,3.01,3.01l1.01-1.74A10.274,10.274,0,0,1,28.89,32.83Z"></path><path d="M45,27a7.977,7.977,0,0,0-11.58-7.14l.01.01a4.008,4.008,0,0,1-2.83,4.9,4.174,4.174,0,0,1-1.04.13c-.09,0-.18-.01-.27-.01A7.843,7.843,0,0,0,29,27a8,8,0,0,0,16,0ZM33,29h2a1,1,0,0,0,1,1h2a1,1,0,0,0,0-2H36a3,3,0,0,1,0-6V21h2v1a3,3,0,0,1,3,3H39a1,1,0,0,0-1-1H36a1,1,0,0,0,0,2h2a3,3,0,0,1,0,6v1H36V32A3,3,0,0,1,33,29Z"></path><path d="M36,17.07V15.06a11.724,11.724,0,0,0-4.1,1.1l.99,1.72A10.056,10.056,0,0,1,36,17.07Z"></path><path d="M36,38.95v-2a9.748,9.748,0,0,1-3.1-.84l-1.01,1.73A11.873,11.873,0,0,0,36,38.95Z"></path><path d="M48.95,28h-2a9.748,9.748,0,0,1-.84,3.1l1.73,1.01A11.873,11.873,0,0,0,48.95,28Z"></path><path d="M45.11,32.83a10.274,10.274,0,0,1-2.28,2.28l1.01,1.74a12.3,12.3,0,0,0,3.01-3.01Z"></path><path d="M6,18a1,1,0,0,1,.51.14l2.63,1.58A9,9,0,0,0,13.77,21h1.3a9.149,9.149,0,0,0,3.35-.64l3.21-1.29a1.023,1.023,0,0,1,.87.06l6.06,3.5a1.969,1.969,0,0,0,1.52.2,1.927,1.927,0,0,0,1.21-.93,2,2,0,0,0-.73-2.73l-8.66-5,1-1.73,5.77,3.33a13.574,13.574,0,0,1,1.94-1.22,13.977,13.977,0,0,1,6.25-1.54L29.05,8.5a14.908,14.908,0,0,0-9.16-1.93L7.11,7.99a.81.81,0,0,1-.31-.01L2,7.02V18Z"></path><path d="M38,38.95a11.873,11.873,0,0,0,4.11-1.11L41.1,36.11a9.748,9.748,0,0,1-3.1.84Z"></path><path d="M43.83,17.17l-1,1.72a10.274,10.274,0,0,1,2.28,2.28l1.72-1A11.88,11.88,0,0,0,43.83,17.17Z"></path><path d="M38,15.07v1.98a9.748,9.748,0,0,1,3.1.84l1-1.72A11.884,11.884,0,0,0,38,15.07Z"></path><path d="M46.11,22.9a9.748,9.748,0,0,1,.84,3.1h1.98a11.987,11.987,0,0,0-1.1-4.1Z"></path></g></svg>