<svg xmlns="http://www.w3.org/2000/svg" viewBox="0 0 64 64" x="0px" y="0px"><g><polygon points="25.67 39.42 24 38.23 22.33 39.42 23.62 42 24.38 42 25.67 39.42"></polygon><circle cx="12" cy="49" r="2"></circle><polygon points="30 36.67 28.09 36.07 25.93 37.15 30 40.06 30 36.67"></polygon><polygon points="19.91 36.07 18 36.67 18 40.06 22.07 37.15 19.91 36.07"></polygon><path d="M35,20a2.015,2.015,0,0,0,2-2,2.006,2.006,0,0,0-2-2Z"></path><polygon points="25.88 60 24.1 44 23.9 44 22.12 60 25.88 60"></polygon><path d="M39,60a4,4,0,0,1,3-3.87V52a1,1,0,0,1-1,1H39V51h1V48a3.009,3.009,0,0,0-3-3H35a3.009,3.009,0,0,0-3,3v3h1v2H31a1,1,0,0,1-1-1V48a5,5,0,0,1,5-5V38.24l-3-.94V42a1.008,1.008,0,0,1-.54.89A1.072,1.072,0,0,1,31,43a.959.959,0,0,1-.58-.19l-3.1-2.21-1.29,2.58L27.89,60H35V55h2v5Z"></path><path d="M15,10.18A3,3,0,0,1,16,10h8a5,5,0,0,0,5-5V4H20a5,5,0,0,0-5,5Z"></path><path d="M15,21a9,9,0,0,0,18,0V13a1,1,0,0,0-1-1H16a1,1,0,0,0-1,1Zm13-5a2,2,0,1,1-2,2A2,2,0,0,1,28,16Zm-2.016,7.25,1.323,1.5a5,5,0,0,1-6.614,0l1.323-1.5A3.076,3.076,0,0,0,25.984,23.25ZM20,16a2,2,0,1,1-2,2A2,2,0,0,1,20,16Z"></path><path d="M11,18a2.015,2.015,0,0,0,2,2V16A2.006,2.006,0,0,0,11,18Z"></path><path d="M50.28,36H48v4h2.23a.983.983,0,0,0,.81-.42.963.963,0,0,0,.13-.9Z"></path><path d="M42,42H39a2.974,2.974,0,0,1-2-.78V43a5,5,0,0,1,5,5Z"></path><path d="M5,60h6V55h2v5h7.11l1.86-16.82L20.68,40.6l-3.1,2.21A.959.959,0,0,1,17,43a1.072,1.072,0,0,1-.46-.11A1.008,1.008,0,0,1,16,42V37.3l-3,.94v6.9a4,4,0,1,1-2,0V38.86l-1.09.34A6.964,6.964,0,0,0,5,45.88Z"></path><path d="M28.89,10H32a3,3,0,0,1,1,.18V7H30.71A7.065,7.065,0,0,1,28.89,10Z"></path><path d="M60,45a3,3,0,0,0-3-3H56v2h1a1,1,0,0,1,1,1v4.153a8.965,8.965,0,0,0-4.82-3.073l-4.42-1.11A1,1,0,0,1,48,44V42H47a1,1,0,0,1-1-1V36H44a.6.6,0,0,0-.55.34A2.992,2.992,0,0,1,40.76,38H38v1a1,1,0,0,0,1,1h4a1,1,0,0,1,1,1V57a1,1,0,0,1-1,1,2.006,2.006,0,0,0-2,2h6V51h2v7h2.54A4.016,4.016,0,0,1,54,56.13V54a3.009,3.009,0,0,1,3-3h1v2H57a1,1,0,0,0-1,1v3a1,1,0,0,1-1,1,2.006,2.006,0,0,0-2,2h7V54.81c0-.273-.014-.543-.038-.81H60Z"></path><path d="M32,32H27v-.43a10.68,10.68,0,0,1-6,0V32H16a5.006,5.006,0,0,0-5,5v2h2V37a3,3,0,0,1,3-3h5v.38l3,1.5,3-1.5V34h5a3,3,0,0,1,3,3v2h2V37A5.006,5.006,0,0,0,32,32Z"></path></g></svg>