<svg xmlns="http://www.w3.org/2000/svg" viewBox="0 0 64 64" x="0px" y="0px"><g data-name="Smartphone-Application-Computer-Laptop-Wifi Sharing"><path d="M20,39H44V15H20Zm13-7H31V30h2Zm1.121-3.122a3.074,3.074,0,0,0-4.242,0l-1.414-1.414a5,5,0,0,1,7.07,0Zm4.243-4.242L36.95,26.05a7.011,7.011,0,0,0-9.9,0l-1.414-1.414A9.01,9.01,0,0,1,38.364,24.636Z"></path><path d="M8,51H56V18a3.009,3.009,0,0,0-3-3H46V44a5,5,0,0,1-5,5H23a5,5,0,0,1-5-5V15H11a3.009,3.009,0,0,0-3,3Z"></path><path d="M20,13H44V10a3.009,3.009,0,0,0-3-3H23a3.009,3.009,0,0,0-3,3Zm9-4h6v2H29Z"></path><path d="M20,44a3.009,3.009,0,0,0,3,3H41a3.009,3.009,0,0,0,3-3V41H20Zm11-1h2v2H31Z"></path><path d="M4,57a2.006,2.006,0,0,0,2,2H58a2.006,2.006,0,0,0,2-2V53H38a2.006,2.006,0,0,1-2,2H28a2.006,2.006,0,0,1-2-2H4Z"></path></g></svg>