<svg xmlns="http://www.w3.org/2000/svg" viewBox="0 0 64 64" x="0px" y="0px"><g><path d="M27.833,18.753l-1.49,1.49,1.414,1.414,1.49-1.49A4.961,4.961,0,0,0,31,20.9V23h2V20.9a4.961,4.961,0,0,0,1.753-.732l1.49,1.49,1.414-1.414-1.49-1.49A4.969,4.969,0,0,0,36.9,17H39V15H36.9a4.969,4.969,0,0,0-.732-1.753l1.49-1.49-1.414-1.414-1.49,1.49A4.961,4.961,0,0,0,33,11.1V9H31v2.1a4.961,4.961,0,0,0-1.753.732l-1.49-1.49-1.414,1.414,1.49,1.49A4.969,4.969,0,0,0,27.1,15H25v2h2.1A4.969,4.969,0,0,0,27.833,18.753ZM32,13a3,3,0,1,1-3,3A3,3,0,0,1,32,13Z"></path><rect x="31" y="15" width="2" height="2"></rect><path d="M32,28A12,12,0,1,0,20,16,12.013,12.013,0,0,0,32,28ZM32,6A10,10,0,1,1,22,16,10.011,10.011,0,0,1,32,6Z"></path><path d="M41.19,28.33a1.474,1.474,0,0,0-.15,1.14,1.458,1.458,0,0,0,.7.91l4.76,2.75A1,1,0,0,1,47,34v1a5,5,0,0,0,5,5h2v2H52a7.008,7.008,0,0,1-7-7H29.5a1.5,1.5,0,0,0,0,3H42a1,1,0,0,1,0,2H37.65a3.433,3.433,0,0,1,.01,3H42a1,1,0,0,1,0,2h-.35a3.389,3.389,0,0,1,0,3H42a1,1,0,0,1,0,2H37.66a3.433,3.433,0,0,1-.01,3H54.76l3.79-1.89A1,1,0,0,1,59,51h3v2H59.24l-3.79,1.89A1,1,0,0,1,55,55H32.66A3.438,3.438,0,0,1,33,56.5,3.5,3.5,0,0,1,29.5,60H9a1,1,0,0,1-.45-.11L4.76,58H2V56H5a1,1,0,0,1,.45.11L9.24,58H29.5a1.5,1.5,0,0,0,0-3H22a1,1,0,0,1,0-2H34.5a1.5,1.5,0,0,0,0-3H22a1,1,0,0,1,0-2H38.5a1.5,1.5,0,0,0,0-3H22a1,1,0,0,1,0-2H34.5a1.5,1.5,0,0,0,0-3H18a1,1,0,0,1-.97-.74,1.022,1.022,0,0,1,.47-1.13l4.76-2.75a1.458,1.458,0,0,0,.7-.91,1.474,1.474,0,0,0-.15-1.14,1.5,1.5,0,0,0-2.05-.54L5.04,41.87a1.128,1.128,0,0,1-.5.13H2V40H4.27l15.49-8.95a3.507,3.507,0,0,1,4.78,1.28,3.443,3.443,0,0,1,.35,2.66,3.492,3.492,0,0,1-1.63,2.13L21.73,38h4.61A3.438,3.438,0,0,1,26,36.5,3.5,3.5,0,0,1,29.5,33H42.27l-1.53-.88a3.492,3.492,0,0,1-1.63-2.13,3.443,3.443,0,0,1,.35-2.66,3.507,3.507,0,0,1,4.78-1.28L59.73,35H62v2H59.46a1.128,1.128,0,0,1-.5-.13L43.24,27.79A1.5,1.5,0,0,0,41.19,28.33Z"></path></g></svg>