<svg xmlns="http://www.w3.org/2000/svg" viewBox="0 0 64 64" x="0px" y="0px"><g><path d="M59,16H40V7a5.006,5.006,0,0,0-5-5H7A5.006,5.006,0,0,0,2,7V57a5.006,5.006,0,0,0,5,5H35a5.006,5.006,0,0,0,5-5V54H59a3,3,0,0,0,3-3V19A3,3,0,0,0,59,16ZM14,4H28V5a1,1,0,0,1-1,1H15a1,1,0,0,1-1-1ZM38,57a3,3,0,0,1-3,3H7a3,3,0,0,1-3-3V7A3,3,0,0,1,7,4h5V5a3,3,0,0,0,3,3H27a3,3,0,0,0,3-3V4h5a3,3,0,0,1,3,3v9H11a3,3,0,0,0-3,3V51a3,3,0,0,0,3,3H38Zm22-6a1,1,0,0,1-1,1H11a1,1,0,0,1-1-1V19a1,1,0,0,1,1-1H59a1,1,0,0,1,1,1Z"></path><rect x="52" y="31" width="2" height="2"></rect><path d="M31,32a1,1,0,0,0,.707-.293C32.044,31.37,35,28.347,35,26a4,4,0,0,0-8,0c0,2.347,2.956,5.37,3.293,5.707A1,1,0,0,0,31,32Zm0-8a2,2,0,0,1,2,2c0,.874-1.017,2.381-2,3.525-.983-1.144-2-2.651-2-3.525A2,2,0,0,1,31,24Z"></path><rect x="30" y="25" width="2" height="2"></rect><path d="M53,27a5.006,5.006,0,0,0-5,5c0,3.4,3.949,6.462,4.4,6.8a1,1,0,0,0,1.2,0c.451-.338,4.4-3.4,4.4-6.8A5.006,5.006,0,0,0,53,27Zm0,9.708c-1.181-1.038-3-3-3-4.708a3,3,0,0,1,6,0C56,33.708,54.181,35.67,53,36.708Z"></path><rect x="22" y="20" width="2" height="6"></rect><path d="M14,30H12v2h3a1,1,0,0,0,1-1V20H14Z"></path><path d="M15,36H12v2h2V50h2V37A1,1,0,0,0,15,36Z"></path><path d="M23,40H43a1,1,0,0,0,1-1V20H42V38H24V32H22v7A1,1,0,0,0,23,40Z"></path><path d="M20,47v3h2V48H58V46H21A1,1,0,0,0,20,47Z"></path><rect x="18" y="33" width="2" height="2"></rect><rect x="18" y="37" width="2" height="2"></rect><rect x="23" y="42" width="2" height="2"></rect><path d="M21,42H20V41H18v2a1,1,0,0,0,1,1h2Z"></path><path d="M20,30h1V28H19a1,1,0,0,0-1,1v2h2Z"></path><rect x="23" y="28" width="2" height="2"></rect><rect x="27" y="42" width="2" height="2"></rect><rect x="31" y="42" width="2" height="2"></rect><rect x="35" y="42" width="2" height="2"></rect><rect x="39" y="42" width="2" height="2"></rect><rect x="43" y="42" width="2" height="2"></rect><rect x="47" y="42" width="2" height="2"></rect><path d="M54,43V41H52v1H51v2h2A1,1,0,0,0,54,43Z"></path></g></svg>