<svg xmlns="http://www.w3.org/2000/svg" viewBox="0 0 64 64" x="0px" y="0px"><g data-name="Saline"><path d="M35,12H33a3,3,0,0,0-3,3V29a3,3,0,0,0,3,3H43a3,3,0,0,0,3-3V15a3,3,0,0,0-3-3H41a3,3,0,0,0-2-2.816V5.816A3,3,0,0,0,41,3H39a1,1,0,0,1-2,0,1,1,0,0,0-1-1H21a1,1,0,0,0-1,1V56a1,1,0,0,0,1,1h4.78a3,3,0,1,0,4.44,0h7.56a3,3,0,1,0,4.44,0H46V55H22V4H35.171A3.015,3.015,0,0,0,37,5.824v3.36A3,3,0,0,0,35,12ZM28,60a1,1,0,1,1,1-1A1,1,0,0,1,28,60Zm12,0a1,1,0,1,1,1-1A1,1,0,0,1,40,60Zm3-46a1,1,0,0,1,1,1V29a1,1,0,0,1-1,1H33a1,1,0,0,1-1-1V15a1,1,0,0,1,1-1Zm-6-2a1,1,0,0,1,2,0Z"></path><path d="M38,26a3,3,0,0,0,3-3c0-1.278-1.522-3.621-2.177-4.568a1.038,1.038,0,0,0-1.646,0C36.522,19.379,35,21.722,35,23A3,3,0,0,0,38,26Zm0-5.146A7.462,7.462,0,0,1,39,23a1,1,0,0,1-2,0A7.457,7.457,0,0,1,38,20.854Z"></path></g></svg>