<svg xmlns="http://www.w3.org/2000/svg" viewBox="0 0 64 64" x="0px" y="0px"><title>Menu</title><g><path d="M29,46h6a5.006,5.006,0,0,0,5-5V40h1a3,3,0,0,0,3-3V35a3,3,0,0,0-3-3H25a1,1,0,0,0-1,1v8A5.006,5.006,0,0,0,29,46ZM42,35v2a1,1,0,0,1-1,1H40V34h1A1,1,0,0,1,42,35ZM26,34H38v7a3,3,0,0,1-3,3H29a3,3,0,0,1-3-3Z"></path><path d="M30.7,30h2a.736.736,0,0,1,.157-.484,2.811,2.811,0,0,0,0-3.028.83.83,0,0,1,0-.973A2.673,2.673,0,0,0,33.3,24h-2a.739.739,0,0,1-.158.487,2.813,2.813,0,0,0,0,3.029.828.828,0,0,1,0,.97A2.675,2.675,0,0,0,30.7,30Z"></path><path d="M35.7,30h2a.736.736,0,0,1,.157-.484,2.811,2.811,0,0,0,0-3.028.83.83,0,0,1,0-.973A2.673,2.673,0,0,0,38.3,24h-2a.739.739,0,0,1-.158.487,2.813,2.813,0,0,0,0,3.029.828.828,0,0,1,0,.97A2.675,2.675,0,0,0,35.7,30Z"></path><path d="M25.7,30h2a.736.736,0,0,1,.157-.484,2.811,2.811,0,0,0,0-3.028.83.83,0,0,1,0-.973A2.673,2.673,0,0,0,28.3,24h-2a.739.739,0,0,1-.158.487,2.813,2.813,0,0,0,0,3.029.828.828,0,0,1,0,.97A2.675,2.675,0,0,0,25.7,30Z"></path><path d="M54,7H43.816A3,3,0,0,0,41,5H36.583a5,5,0,0,0-9.166,0H23a3,3,0,0,0-2.816,2H10A1,1,0,0,0,9,8V61a1,1,0,0,0,1,1H54a1,1,0,0,0,1-1V8A1,1,0,0,0,54,7ZM44,14V13h5V56H15V13h5v1a1,1,0,0,0,1,1H43A1,1,0,0,0,44,14ZM22,8a1,1,0,0,1,1-1h5.13a1,1,0,0,0,.969-.754,3,3,0,0,1,5.8,0A1,1,0,0,0,35.87,7H41a1,1,0,0,1,1,1v5H22ZM53,60H11V9h9v2H14a1,1,0,0,0-1,1V57a1,1,0,0,0,1,1H50a1,1,0,0,0,1-1V12a1,1,0,0,0-1-1H44V9h9Z"></path><path d="M32,5a3,3,0,1,0,3,3A3,3,0,0,0,32,5Zm0,4a1,1,0,1,1,1-1A1,1,0,0,1,32,9Z"></path></g></svg>