<svg xmlns="http://www.w3.org/2000/svg" viewBox="0 0 64 64" x="0px" y="0px"><g data-name="Multi Brain"><path d="M61.941,28.486a19.121,19.121,0,0,0-10.494-15.5l-.894,1.788a17.11,17.11,0,0,1,9.394,13.872,16.911,16.911,0,0,1-5.613,14.024A1,1,0,0,0,54,43.41V60H34V51a1,1,0,0,0-1-1H27a3,3,0,0,1-3-3V40a1,1,0,0,0-1-1H19.081l1.7-2.125-1.562-1.25-1.7,2.126A2,2,0,0,0,19.081,41H22v6a5.006,5.006,0,0,0,5,5h5v9a1,1,0,0,0,1,1H55a1,1,0,0,0,1-1V43.851A18.888,18.888,0,0,0,61.941,28.486Z"></path><path d="M19,51a1,1,0,0,0-1-1H12a3,3,0,0,1-3-3V40a1,1,0,0,0-1-1H4.081l6.7-8.375A1,1,0,0,0,11,30a16.806,16.806,0,0,1,1.889-7.794l-1.778-.919A19.059,19.059,0,0,0,9,29.645L2.519,37.751A2,2,0,0,0,4.081,41H7v6a5.006,5.006,0,0,0,5,5h5v9a1,1,0,0,0,1,1H30V60H19Z"></path><path d="M32,38A18,18,0,1,0,14,20,18.021,18.021,0,0,0,32,38ZM32,4A16,16,0,1,1,16,20,16.019,16.019,0,0,1,32,4Z"></path><path d="M37.293,20.707l1.414-1.414L37,17.586V15H35v3a1,1,0,0,0,.293.707Z"></path><path d="M37.707,22.293l-1.414,1.414.707.707V26h2V24a1,1,0,0,0-.293-.707Z"></path><path d="M21,29a1,1,0,0,0,.758.97l3.467.867.827,2.479A1,1,0,0,0,27,34h3a1,1,0,0,0,.707-.293L32,32.414l1.293,1.293A1,1,0,0,0,34,34h3a1,1,0,0,0,.948-.684l.827-2.479,3.467-.867A1,1,0,0,0,43,29V27.414l2.707-2.707A1,1,0,0,0,46,24V19a1.006,1.006,0,0,0-.168-.555L44,15.7V12a1,1,0,0,0-.293-.707l-2-2A1,1,0,0,0,41,9H38.721l-.773-2.316A1,1,0,0,0,37,6H34a1,1,0,0,0-.707.293L32,7.586,30.707,6.293A1,1,0,0,0,30,6H27a1,1,0,0,0-.948.684L25.279,9H23a1,1,0,0,0-.707.293l-2,2A1,1,0,0,0,20,12v3.7l-1.832,2.748A1.006,1.006,0,0,0,18,19v5a1,1,0,0,0,.293.707L21,27.414ZM34.414,8h1.865l.577,1.73-1.563,1.563A1,1,0,0,0,35,12v1h2v-.586L38.414,11h2.172L42,12.414v3.172l-1.707,1.707A1,1,0,0,0,40,18v1h2v-.586l.845-.844L44,19.3v4.283l-1,1V23H41v5.219l-2.693.674L37,27.586V27H35v1a1,1,0,0,0,.293.707l1.563,1.563L36.279,32H34.414L33,30.586V9.414ZM20,23.586V19.3l1.155-1.733.845.844V19h2V18a1,1,0,0,0-.293-.707L22,15.586V12.414L23.414,11h2.172L27,12.414V13h2V12a1,1,0,0,0-.293-.707L27.144,9.73,27.721,8h1.865L31,9.414V30.586L29.586,32H27.721l-.577-1.73,1.563-1.563A1,1,0,0,0,29,28V27H27v.586l-1.307,1.307L23,28.219V23H21v1.586Z"></path><path d="M28.707,18.707A1,1,0,0,0,29,18V15H27v2.586l-1.707,1.707,1.414,1.414Z"></path><path d="M27,24.414l.707-.707-1.414-1.414-1,1A1,1,0,0,0,25,24v2h2Z"></path></g></svg>