<svg xmlns="http://www.w3.org/2000/svg" viewBox="0 0 64 64" x="0px" y="0px"><g><polygon points="11.41 56 52.59 56 48.59 52 15.41 52 11.41 56"></polygon><rect x="10" y="58" width="44" height="2"></rect><path d="M32.82,8H30.77A3.861,3.861,0,0,0,27.8,4.98l.4-1.96C31,3.58,32.31,5.76,32.82,8Z"></path><path d="M12,8a1,1,0,0,0-1,1V30H53V9a1,1,0,0,0-1-1H32.81a11.157,11.157,0,0,1,.28,2.24,5.266,5.266,0,0,0,1.14-.38,6.8,6.8,0,0,1,4.07-.57c4.34.76,7.1,5.81,6.14,11.24A11.4,11.4,0,0,1,41,27.01a7.507,7.507,0,0,1-5.03,2.08,6.288,6.288,0,0,1-1.14-.11,6.007,6.007,0,0,1-1.56-.48,3.083,3.083,0,0,0-2.54,0,6.007,6.007,0,0,1-1.56.48A7.266,7.266,0,0,1,23,27.01a11.4,11.4,0,0,1-3.44-6.48c-.96-5.43,1.8-10.48,6.14-11.24a6.8,6.8,0,0,1,4.07.57,5.18,5.18,0,0,0,1.32.41A9.114,9.114,0,0,0,30.77,8Z"></path><rect x="28" y="38" width="8" height="4"></rect><rect x="23" y="44" width="18" height="2"></rect><path d="M53,35V32H11v3a1,1,0,0,0,1,1H52A1,1,0,0,0,53,35Zm-4,0H47V33h2Z"></path><path d="M26.05,11.26c-3.26.57-5.29,4.57-4.52,8.92a9.367,9.367,0,0,0,2.81,5.34,5.356,5.356,0,0,0,4.49,1.5,4.447,4.447,0,0,0,1.07-.34,5.125,5.125,0,0,1,4.2,0,4.447,4.447,0,0,0,1.07.34,5.325,5.325,0,0,0,4.49-1.5,9.367,9.367,0,0,0,2.81-5.34c.77-4.35-1.26-8.35-4.52-8.92a4.751,4.751,0,0,0-2.87.41,7.219,7.219,0,0,1-6.16,0A4.751,4.751,0,0,0,26.05,11.26Zm9.91,11.824c.637,0,2.02-1.1,2.513-3.3l1.951.436c-.611,2.729-2.571,4.866-4.464,4.866Z"></path><path d="M32.889,6.032a3.745,3.745,0,0,1,1.228-2.565,3.769,3.769,0,0,1,2.656-1.238,3.784,3.784,0,0,1-1.242,2.655,3.318,3.318,0,0,1-.35.316,3.584,3.584,0,0,1-2.293.913C32.888,6.087,32.889,6.06,32.889,6.032Z"></path><path d="M19,50H17V48a1,1,0,0,0-1-1H12a3,3,0,0,1,0-6h4a1,1,0,0,0,1-1V38h2v2a3,3,0,0,1-3,3H12a1,1,0,0,0,0,2h4a3,3,0,0,1,3,3Z"></path></g></svg>