<svg xmlns="http://www.w3.org/2000/svg" viewBox="0 0 64 64" x="0px" y="0px"><title>Bell</title><g><path d="M55.126,50.892A2.944,2.944,0,0,0,53,50H52a1,1,0,0,1-1-1V31.43A19.565,19.565,0,0,0,45.7,18H49a2,2,0,0,0,2-2V4a2,2,0,0,0-2-2H42a7,7,0,0,0-6.036,3.508,5.964,5.964,0,0,0-7.928,0A7,7,0,0,0,22,2H15a2,2,0,0,0-2,2V16a2,2,0,0,0,2,2h3.157A18.865,18.865,0,0,0,13,31V49a1,1,0,0,1-1,1H11a3,3,0,0,0-3,3,3.015,3.015,0,0,0,3,3H25.08a6.991,6.991,0,0,0,13.84,0H53a3,3,0,0,0,3-3A2.928,2.928,0,0,0,55.126,50.892ZM42,4h7V16H42a5,5,0,0,1-4.667-3.264A5.945,5.945,0,0,0,37.91,11H43a1,1,0,0,0,0-2H37.91a5.945,5.945,0,0,0-.577-1.736A5,5,0,0,1,42,4ZM32,6a4,4,0,1,1-4,4A4,4,0,0,1,32,6ZM15,4h7a5,5,0,0,1,4.667,3.264A5.945,5.945,0,0,0,26.09,9H21a1,1,0,0,0,0,2h5.09a5.945,5.945,0,0,0,.577,1.736A5,5,0,0,1,22,16H15ZM32,60a5.008,5.008,0,0,1-4.9-4h9.8A5.008,5.008,0,0,1,32,60Zm21-6H11a.974.974,0,0,1-.712-.306A.957.957,0,0,1,10,53a1,1,0,0,1,1-1h1a3,3,0,0,0,3-3V31a16.873,16.873,0,0,1,6.082-13H22a7,7,0,0,0,6.036-3.508,5.964,5.964,0,0,0,7.928,0A7,7,0,0,0,42,18h.794A17.558,17.558,0,0,1,49,31.43V49a3,3,0,0,0,3,3h1a.974.974,0,0,1,.712.306A.957.957,0,0,1,54,53,1,1,0,0,1,53,54Z"></path></g></svg>