<svg xmlns="http://www.w3.org/2000/svg" viewBox="0 0 64 64" x="0px" y="0px"><g data-name="Research-Business-Human mind-Money-Financial"><path d="M45.949,23h2a11.894,11.894,0,0,0-1.1-4.106l-1.735,1A9.9,9.9,0,0,1,45.949,23Z"></path><path d="M45.109,28.1l1.735,1A11.894,11.894,0,0,0,47.949,25h-2A9.9,9.9,0,0,1,45.109,28.1Z"></path><path d="M44.105,18.166l1.742-1.006a12.1,12.1,0,0,0-3.007-3.007L41.834,15.9A10.07,10.07,0,0,1,44.105,18.166Z"></path><path d="M37,33.949v2a11.894,11.894,0,0,0,4.106-1.1l-1-1.735A9.9,9.9,0,0,1,37,33.949Z"></path><path d="M41.834,32.1l1.006,1.742a12.1,12.1,0,0,0,3.007-3.007l-1.742-1.006A10.07,10.07,0,0,1,41.834,32.1Z"></path><path d="M30.894,34.844A11.894,11.894,0,0,0,35,35.949v-2a9.9,9.9,0,0,1-3.1-.84Z"></path><path d="M41.106,13.156A11.894,11.894,0,0,0,37,12.051v2a9.9,9.9,0,0,1,3.1.84Z"></path><path d="M27.9,29.834,26.153,30.84a12.1,12.1,0,0,0,3.007,3.007L30.166,32.1A10.07,10.07,0,0,1,27.9,29.834Z"></path><path d="M52,60V43.939a1,1,0,0,1,.292-.706A23,23,0,0,0,20.263,10.227,22.783,22.783,0,0,0,13,27a1,1,0,0,1-.26.673L4.26,37H10a1,1,0,0,1,1,1v7a5.006,5.006,0,0,0,5,5h7a3,3,0,0,1,3,3v7ZM37,54H35V52h2Zm0-4H35V48h2Zm0-4H35V44h2Zm0-4H35V40h2ZM22,24A14,14,0,1,1,36,38,14.015,14.015,0,0,1,22,24Z"></path><path d="M26.051,25h-2a11.888,11.888,0,0,0,1.105,4.106l1.735-1A9.9,9.9,0,0,1,26.051,25Z"></path><path d="M30.166,15.9,29.16,14.153a12.1,12.1,0,0,0-3.007,3.007L27.9,18.166A10.07,10.07,0,0,1,30.166,15.9Z"></path><path d="M26.891,19.9l-1.735-1A11.888,11.888,0,0,0,24.051,23h2A9.875,9.875,0,0,1,26.891,19.9Z"></path><path d="M35,14.051v-2a11.894,11.894,0,0,0-4.106,1.105l1,1.735A9.894,9.894,0,0,1,35,14.051Z"></path><path d="M36,32a8,8,0,1,0-8-8A8.009,8.009,0,0,0,36,32Zm1-7H35a3,3,0,0,1,0-6V18h2v1a3,3,0,0,1,3,3H38a1,1,0,0,0-1-1H35a1,1,0,0,0,0,2h2a3,3,0,0,1,0,6v1H35V29a3,3,0,0,1-3-3h2a1,1,0,0,0,1,1h2a1,1,0,0,0,0-2Z"></path></g></svg>