<svg xmlns="http://www.w3.org/2000/svg" viewBox="0 0 64 64" x="0px" y="0px"><g><path d="M31.9,31.553A1,1,0,0,0,31,31H30V28.379a10.729,10.729,0,0,0-1.873-6.142q-3.126-4.516-6.254,0A10.729,10.729,0,0,0,20,28.379V31H19a1,1,0,0,0-.895.553l-2.276,4.553A2,2,0,0,0,17.618,39H21a1,1,0,0,0,.895-.553l.52-1.041.637,1.91A1,1,0,0,0,24,40h2a1,1,0,0,0,.948-.684l.637-1.91.52,1.041A1,1,0,0,0,29,39h3.382a2,2,0,0,0,1.789-2.9ZM22,28.379a8.729,8.729,0,0,1,1.518-5C24.27,22.29,24.8,22,25,22s.73.29,1.482,1.376a8.729,8.729,0,0,1,1.518,5V35H26V30H24v5H22ZM17.618,37l2-4H20v3a.982.982,0,0,0,.469.826L20.382,37Zm7.1,1-.334-1h1.226l-.334,1Zm4.9-1-.087-.174A.982.982,0,0,0,30,36V33h.382l2,4Z"></path><path d="M25,27.118l1.553.777.894-1.79-2-1a1,1,0,0,0-.894,0l-2,1,.894,1.79Z"></path><path d="M27,42v2a1,1,0,0,1,0,2,1,1,0,0,0-1,1,1,1,0,0,1-2,0,1,1,0,0,0-1-1,1,1,0,0,1,0-2V42a3,3,0,0,0-.871,5.871,3,3,0,0,0,5.742,0A3,3,0,0,0,27,42Z"></path><path d="M54.707,10.293l-8-8A1,1,0,0,0,46,2H14A5.006,5.006,0,0,0,9,7V57a5.006,5.006,0,0,0,5,5H50a5.006,5.006,0,0,0,5-5V11A1,1,0,0,0,54.707,10.293ZM47,5.414,51.586,10H48a1,1,0,0,1-1-1ZM50,60H14a3,3,0,0,1-3-3V7a3,3,0,0,1,3-3H45V9a3,3,0,0,0,3,3h5V57A3,3,0,0,1,50,60Z"></path><rect x="15" y="8" width="2" height="2"></rect><rect x="19" y="8" width="6" height="2"></rect><rect x="15" y="12" width="10" height="2"></rect><rect x="37" y="21" width="2" height="2"></rect><rect x="41" y="21" width="8" height="2"></rect><rect x="37" y="25" width="12" height="2"></rect><rect x="37" y="29" width="12" height="2"></rect><rect x="37" y="33" width="12" height="2"></rect><path d="M48,39H38a1,1,0,0,0-1,1V50a1,1,0,0,0,1,1H48a1,1,0,0,0,1-1V40A1,1,0,0,0,48,39Zm-6.414,6L39,47.586V42.414Zm-1.172-4h5.172L43,43.586ZM43,46.414,45.586,49H40.414ZM44.414,45,47,42.414v5.172Z"></path></g></svg>