<svg xmlns="http://www.w3.org/2000/svg" viewBox="0 0 64 64" x="0px" y="0px"><g data-name="Mail Box"><path d="M48,19V16h3a1,1,0,0,0,1-1V11a1,1,0,0,0-1-1H47.618L45.9,6.553A1,1,0,0,0,45,6H34.816A2.966,2.966,0,0,0,35,5a3,3,0,0,0-6,0,2.966,2.966,0,0,0,.184,1H19a1,1,0,0,0-.895.553L16.382,10H13a1,1,0,0,0-1,1v4a1,1,0,0,0,1,1h3v3a1,1,0,0,0,1,1V56H13a1,1,0,0,0-1,1v4a1,1,0,0,0,1,1H51a1,1,0,0,0,1-1V57a1,1,0,0,0-1-1H47V20A1,1,0,0,0,48,19ZM31,5a1,1,0,1,1,1,1A1,1,0,0,1,31,5ZM19.618,8H44.382l1,2H18.618ZM14,12H50v2H14Zm32,4v2H18V16Zm4,44H14V58H50Zm-5-4H19V20H45Z"></path><path d="M25,32H39a3,3,0,0,0,3-3V27a3,3,0,0,0-3-3H25a3,3,0,0,0-3,3v2A3,3,0,0,0,25,32Zm-1-5a1,1,0,0,1,1-1H39a1,1,0,0,1,1,1v2a1,1,0,0,1-1,1H25a1,1,0,0,1-1-1Z"></path><rect x="26" y="27" width="12" height="2"></rect><path d="M40,41H24a1,1,0,0,0-1,1v8a1,1,0,0,0,1,1H40a1,1,0,0,0,1-1V42A1,1,0,0,0,40,41Zm-1,8H25V43H39Z"></path></g></svg>