<svg xmlns="http://www.w3.org/2000/svg" viewBox="0 0 64 64" x="0px" y="0px"><g data-name="Speech Bubble"><path d="M59,17H5a3,3,0,0,0-3,3V44a3,3,0,0,0,3,3h5.382l3.723,7.447a1.042,1.042,0,0,0,1.79,0L19.618,47h7.764l3.723,7.447a1.042,1.042,0,0,0,1.79,0L36.618,47h7.764l3.723,7.447a1,1,0,0,0,1.79,0L53.618,47H59a3,3,0,0,0,3-3V20A3,3,0,0,0,59,17Zm1,27a1,1,0,0,1-1,1H53a1,1,0,0,0-.9.553L49,51.764l-3.1-6.211A1,1,0,0,0,45,45H36a1,1,0,0,0-.9.553L32,51.764,28.9,45.553A1,1,0,0,0,28,45H19a1,1,0,0,0-.895.553L15,51.764,11.9,45.553A1,1,0,0,0,11,45H5a1,1,0,0,1-1-1V20a1,1,0,0,1,1-1H59a1,1,0,0,1,1,1Z"></path><rect x="10" y="25" width="2" height="2"></rect><rect x="14" y="25" width="2" height="2"></rect><rect x="18" y="25" width="36" height="2"></rect><rect x="10" y="31" width="22" height="2"></rect><rect x="34" y="31" width="2" height="2"></rect><rect x="38" y="31" width="2" height="2"></rect><rect x="10" y="37" width="44" height="2"></rect><rect x="42" y="31" width="12" height="2"></rect></g></svg>