<svg xmlns="http://www.w3.org/2000/svg" viewBox="0 0 64 64" x="0px" y="0px"><g data-name="Cocktail-Beverage-Drink-Fresh-Alcohol Drink"><path d="M51,4a9.016,9.016,0,0,0-8.94,8H18.75L12.98,3.19A3.009,3.009,0,0,0,8.72,2.4L3.42,6.19,4.58,7.81,9.89,4.02a.977.977,0,0,1,.76-.17,1.026,1.026,0,0,1,.65.44L16.36,12H13a1,1,0,0,0-.85,1.52L29,41.28V56H24a3.009,3.009,0,0,0-3,3v2a1,1,0,0,0,1,1H42a1,1,0,0,0,1-1V59a3.009,3.009,0,0,0-3-3H35V41.28L47.22,21.16A9,9,0,1,0,51,4ZM45.4,8.82,48.59,12H44.08A6.985,6.985,0,0,1,45.4,8.82ZM14.78,14h2.89l3.93,6H18.42ZM40,58a1,1,0,0,1,1,1v1H23V59a1,1,0,0,1,1-1Zm-9-2V42h2V56Zm2.44-16H30.56L19.63,22h3.28l6.25,9.55,1.68-1.1L25.3,22H44.37ZM23.99,20l-3.93-6h22a8.982,8.982,0,0,0,3.3,6Zm22.56-1.6A6.986,6.986,0,0,1,44.08,14h5.14ZM50,19.92a7.224,7.224,0,0,1-1.74-.48L50,16.57Zm0-9.33L46.82,7.4A6.985,6.985,0,0,1,50,6.08ZM57.92,12H53.41L56.6,8.82A6.985,6.985,0,0,1,57.92,12ZM52,6.08A6.985,6.985,0,0,1,55.18,7.4L52,10.59Zm0,13.84V15.41l3.18,3.19A6.985,6.985,0,0,1,52,19.92Zm4.6-2.74L53.41,14h4.51A6.985,6.985,0,0,1,56.6,17.18Z"></path></g></svg>