<svg xmlns="http://www.w3.org/2000/svg" viewBox="0 0 64 64" x="0px" y="0px"><g><circle cx="20" cy="25" r="3"></circle><rect x="5" y="10" width="30" height="2"></rect><path d="M35,18H5V32H35ZM11,30H8a1,1,0,0,1-1-1V26H9v2h2Zm0-8H9v2H7V21a1,1,0,0,1,1-1h3Zm9,8a5,5,0,1,1,5-5A5.006,5.006,0,0,1,20,30Zm14-1a1,1,0,0,1-1,1H30V28h2V26h2Zm0-5H32V22H30V20h3a1,1,0,0,1,1,1Z"></path><rect x="5" y="14" width="30" height="2"></rect><path d="M47,36H59.92a3.018,3.018,0,0,0-.8-1.464L51.586,27H47Z"></path><path d="M4,38v8a1,1,0,0,0,1,1H8.08a6.991,6.991,0,0,1,13.84,0H43.08a6.991,6.991,0,0,1,13.84,0H59a1,1,0,0,0,1-1V38H47a2,2,0,0,1-2-2V27a2,2,0,0,1,2-2h2.586L47.88,23.294A1,1,0,0,0,47.17,23H41V37a1,1,0,0,1-1,1Zm40,2v2H40V40Z"></path><path d="M10,48a5,5,0,1,0,5-5A5.006,5.006,0,0,0,10,48Zm8,0a3,3,0,1,1-3-3A3,3,0,0,1,18,48Z"></path><circle cx="50" cy="48" r="1"></circle><circle cx="15" cy="48" r="1"></circle><path d="M45,48a5,5,0,1,0,5-5A5.006,5.006,0,0,0,45,48Zm8,0a3,3,0,1,1-3-3A3,3,0,0,1,53,48Z"></path><rect x="2" y="53" width="60" height="2"></rect></g></svg>