<svg xmlns="http://www.w3.org/2000/svg" viewBox="0 0 64 64" x="0px" y="0px"><g><path d="M55,16H49V5a3.009,3.009,0,0,0-3-3H36a3.009,3.009,0,0,0-3,3V16H27a3.009,3.009,0,0,0-3,3V30.31l-3.59-1.6a.979.979,0,0,0-.82,0l-13,5.78A.987.987,0,0,0,6,35.4v8.54A17.016,17.016,0,0,0,14.74,58.8l4.77,2.65a.988.988,0,0,0,.98,0l4.77-2.65a16.978,16.978,0,0,0,4.75-3.94c0,.05-.01.09-.01.14a3,3,0,1,0,5.82-1H46.18a3,3,0,1,0,5.64,0H55a3.009,3.009,0,0,0,3-3V19A3.009,3.009,0,0,0,55,16ZM35,5a1,1,0,0,1,1-1H46a1,1,0,0,1,1,1V6H35ZM47,8v8H45V8ZM43,8v8H39V8ZM35,8h2v8H35ZM24.28,57.05,20,59.43l-4.28-2.38h-.01A15.018,15.018,0,0,1,8,43.94V36.05l12-5.33,12,5.33v7.89A15.007,15.007,0,0,1,24.28,57.05ZM33,56a1,1,0,1,1,1-1A1,1,0,0,1,33,56Zm16,0a1,1,0,1,1,1-1A1,1,0,0,1,49,56Zm3-4H31.96A17.038,17.038,0,0,0,34,43.94V50h2V24H34V35.4a.987.987,0,0,0-.59-.91L30,32.97V23a1,1,0,0,1,1-1H51a1,1,0,0,1,1,1Zm4-1a1,1,0,0,1-1,1H54V23a3.009,3.009,0,0,0-3-3H31a3.009,3.009,0,0,0-3,3v9.08l-2-.89V19a1,1,0,0,1,1-1H55a1,1,0,0,1,1,1Z"></path><rect x="40" y="24" width="2" height="26"></rect><rect x="46" y="24" width="2" height="26"></rect><path d="M29.406,37.086l-9-4a1,1,0,0,0-.812,0l-9,4A1,1,0,0,0,10,38v5.939A13.006,13.006,0,0,0,16.687,55.3l2.827,1.571a1,1,0,0,0,.972,0L23.313,55.3A13.006,13.006,0,0,0,30,43.939V38A1,1,0,0,0,29.406,37.086ZM28,43.939a11.006,11.006,0,0,1-5.658,9.616L20,54.856l-2.342-1.3A11.006,11.006,0,0,1,12,43.939v-5.29L20,35.1l8,3.554Z"></path></g></svg>