<svg xmlns="http://www.w3.org/2000/svg" viewBox="0 0 32 32" x="0px" y="0px"><title>File Cloud_1</title><g data-name="File Cloud"><path d="M27.99,7.944a1.494,1.494,0,0,0-.067-.316.985.985,0,0,0-.164-.279l-6-7a.978.978,0,0,0-.306-.231C21.423.1,21.394.092,21.364.08a.977.977,0,0,0-.319-.07C21.029.009,21.016,0,21,0H5A1,1,0,0,0,4,1V31a1,1,0,0,0,1,1H27a1,1,0,0,0,1-1V8C28,7.981,27.991,7.963,27.99,7.944ZM22,3.7,24.826,7H22ZM6,30V2H20V8a1,1,0,0,0,1,1h5V30Z"></path><path d="M19.25,13a3.485,3.485,0,0,0-1.45.314A2.995,2.995,0,0,0,13.152,14,3,3,0,0,0,10.6,15.594a3.162,3.162,0,0,0,.257,3.293A2.636,2.636,0,0,0,13.062,20h6.4a3.165,3.165,0,0,0,2.71-1.5,3.659,3.659,0,0,0,.124-3.722A3.507,3.507,0,0,0,19.25,13Zm1.208,4.47a1.151,1.151,0,0,1-.995.53h-6.4a.668.668,0,0,1-.549-.233,1.174,1.174,0,0,1-.148-1.235A1,1,0,0,1,13.25,16a.977.977,0,0,1,.269.036,1,1,0,0,0,1.253-.749,1,1,0,0,1,.978-.787.993.993,0,0,1,.9.577,1,1,0,0,0,1.587.319,1.548,1.548,0,0,1,2.32.368A1.623,1.623,0,0,1,20.458,17.47Z"></path></g></svg>