<svg xmlns="http://www.w3.org/2000/svg" viewBox="0 0 64 64" x="0px" y="0px"><g><circle cx="22" cy="24" r="2"></circle><path d="M59,48a1,1,0,0,0,1-1V5a1,1,0,0,0-1-1H29a1,1,0,0,0-1,1V8H53a3,3,0,0,1,3,3V48Z"></path><path d="M4,43A11,11,0,1,0,15,32,11.013,11.013,0,0,0,4,43Zm21,0A10,10,0,1,1,15,33,10.011,10.011,0,0,1,25,43Z"></path><path d="M42.555,22.168,44,23.131V16H40v7.131l1.445-.963a1,1,0,0,1,1.11,0Z"></path><path d="M53,54a1,1,0,0,0,1-1V11a1,1,0,0,0-1-1H23a1,1,0,0,0-1,1v3H47a3,3,0,0,1,3,3V54Z"></path><path d="M17,60H47a1,1,0,0,0,1-1V17a1,1,0,0,0-1-1H46v9a1,1,0,0,1-1.555.832L42,24.2l-2.445,1.63A1,1,0,0,1,38,25V16H17a1,1,0,0,0-1,1V30.051a12.987,12.987,0,0,1,0,25.9V59A1,1,0,0,0,17,60Zm5-32a4,4,0,1,1,4-4A4,4,0,0,1,22,28ZM44,54.36a3.97,3.97,0,0,1-1.934-.458,2.31,2.31,0,0,0-2.135,0,4.3,4.3,0,0,1-3.866,0A2.036,2.036,0,0,0,35,53.64v-2a3.943,3.943,0,0,1,1.931.459,2.308,2.308,0,0,0,2.134,0,4.31,4.31,0,0,1,3.867,0A2.033,2.033,0,0,0,44,52.36ZM44,48H29V46H44Zm0-6H29V40H44Zm0-8v2H29V34ZM32,22h4v2H32Zm-4,0h2v2H28Zm0,4h8v2H28Z"></path><path d="M7,43a8,8,0,1,0,8-8A8.009,8.009,0,0,0,7,43Zm3,1H8V42h2Zm10-2h2v2H20Zm-2-1H16a1,1,0,1,0-1,1,2.993,2.993,0,0,1,1,5.816V49H14V47.816A3,3,0,0,1,12,45h2a1,1,0,1,0,1-1,2.993,2.993,0,0,1-1-5.816V37h2v1.184A3,3,0,0,1,18,41Z"></path></g></svg>