<svg xmlns="http://www.w3.org/2000/svg" viewBox="0 0 64 64" x="0px" y="0px"><title>Cactus_9</title><g data-name="Cactus"><path d="M53.733,19.847a1,1,0,0,0-1.063-.13,46.844,46.844,0,0,0-7.657,4.892A49.78,49.78,0,0,0,46.4,10.361,1,1,0,0,0,44.7,9.723,49.474,49.474,0,0,0,36.959,20.2,50.243,50.243,0,0,0,32.905,2.575a1,1,0,0,0-1.81,0A50.243,50.243,0,0,0,27.041,20.2,49.474,49.474,0,0,0,19.3,9.723a1,1,0,0,0-1.694.638,49.778,49.778,0,0,0,1.384,14.248,46.844,46.844,0,0,0-7.657-4.892,1,1,0,0,0-1.4,1.148,50.243,50.243,0,0,0,8.817,17.186A.986.986,0,0,0,18,39V61a1,1,0,0,0,1,1H45a1,1,0,0,0,1-1V39a.985.985,0,0,0-.747-.949,50.251,50.251,0,0,0,8.816-17.186A1,1,0,0,0,53.733,19.847ZM42.256,27.08v0c-.225.723-.479,1.464-.75,2.193q-.468,1.24-.961,2.438c-.094.228-.191.446-.286.671-.234.557-.469,1.112-.709,1.649-.133.3-.268.58-.4.87-.2.443-.409.887-.616,1.312-.154.316-.309.614-.463.919s-.3.582-.446.864H35.2l.035-.12c.119-.39.232-.808.34-1.251.032-.13.06-.277.091-.412.074-.322.149-.643.217-.989.034-.171.064-.359.1-.536.06-.328.122-.653.178-1,.034-.21.063-.435.1-.651.049-.332.1-.659.144-1,.031-.241.057-.495.086-.742.04-.337.081-.67.116-1.018.028-.27.049-.551.074-.827.03-.34.063-.675.089-1.024.022-.294.039-.6.058-.9.022-.342.046-.681.064-1.03.017-.315.027-.638.04-.957s.029-.619.038-.935a50.247,50.247,0,0,1,7.49-11.659A50.138,50.138,0,0,1,42.256,27.08ZM32,5.679A49.191,49.191,0,0,1,35,22c0,.8-.01,1.583-.03,2.353a53.826,53.826,0,0,1-1.651,12.959c-.069.239-.143.471-.22.688H30.9q-.117-.33-.224-.7c-.226-.744-.433-1.6-.619-2.54A65.3,65.3,0,0,1,29.03,24.353h0C29.01,23.582,29,22.8,29,22A49.25,49.25,0,0,1,32,5.679ZM27.036,24.608c.009.311.026.613.038.92.013.325.023.654.04.974.017.342.041.673.063,1.009.019.306.036.617.059.918.026.341.058.669.087,1,.025.283.048.572.076.848.034.341.075.666.113,1,.03.254.056.515.088.762.044.339.094.66.142.986.033.221.062.452.1.667.055.343.116.663.176.988.033.179.063.37.1.544.067.341.141.655.213.973.032.139.061.291.094.426.108.441.221.858.339,1.247.012.044.026.088.039.132H26.379c-.148-.28-.3-.569-.444-.86-.155-.307-.312-.607-.466-.926-.2-.412-.4-.843-.6-1.272-.141-.306-.284-.6-.424-.917-.221-.494-.437-1.006-.652-1.516-.114-.271-.231-.532-.344-.807-.325-.793-.645-1.6-.954-2.421-.273-.733-.527-1.474-.753-2.2a50.155,50.155,0,0,1-2.2-14.133A50.155,50.155,0,0,1,27.036,24.608Zm-7.115,3.341c.21.661.445,1.343.7,2.033q.453,1.2.932,2.365c.105.258.213.506.319.76.217.516.434,1.026.656,1.525.127.285.253.564.381.843.212.463.424.914.638,1.359.128.265.255.528.383.786.062.125.123.258.185.38H21.285c-.22-.257-.435-.52-.651-.784A49.22,49.22,0,0,1,12.6,22.687,51.139,51.139,0,0,1,19.921,27.949ZM44,60H20V40H44Zm-.634-22.783c-.216.263-.431.526-.651.783H39.882c.062-.123.124-.257.186-.382.126-.252.25-.511.375-.77q.33-.684.656-1.395c.122-.267.243-.533.363-.8q.34-.767.671-1.56c.1-.247.209-.489.311-.739q.477-1.167.934-2.37c.256-.688.491-1.369.7-2.03A51.067,51.067,0,0,1,51.4,22.688,49.194,49.194,0,0,1,43.366,37.217Z"></path><rect x="40" y="56" width="2" height="2"></rect><rect x="40" y="52" width="2" height="2"></rect><rect x="36" y="56" width="2" height="2"></rect></g></svg>