<svg xmlns="http://www.w3.org/2000/svg" viewBox="0 0 64 64" x="0px" y="0px"><g data-name="Health Education-Article-Computer-Knowledge-Blog"><path d="M52,6a7.995,7.995,0,0,0-6.97,11.92.994.994,0,0,1-.02,1l-1.04,1.74,2.52-.42a.777.777,0,0,1,.16-.02,1.029,1.029,0,0,1,.6.2A7.926,7.926,0,0,0,52,22,8,8,0,0,0,52,6Zm4,9H53v3H51V15H48V13h3V10h2v3h3Z"></path><path d="M52,24a9.86,9.86,0,0,1-5.59-1.72l-4.25.71a1.019,1.019,0,0,1-.99-.43.988.988,0,0,1-.03-1.07l1.87-3.12A10.034,10.034,0,0,1,42,14a9.5,9.5,0,0,1,.21-2H21v1a3.009,3.009,0,0,1-3,3H17v3a.987.987,0,0,1-.62.92A.838.838,0,0,1,16,20a1.007,1.007,0,0,1-.71-.29L11.59,16H8V40H56V23.15A9.888,9.888,0,0,1,52,24ZM38,28a2,2,0,0,1-1.72-1H33.91a5.949,5.949,0,0,1-1.02,2.47l1.67,1.68a2,2,0,1,1-1.41,1.41l-1.68-1.67A5.949,5.949,0,0,1,29,31.91v2.37a2,2,0,1,1-2,0V31.91a5.949,5.949,0,0,1-2.47-1.02l-1.68,1.67a2,2,0,0,1-3.34,1.93,2.022,2.022,0,0,1,0-2.83,1.983,1.983,0,0,1,1.41-.58,1.861,1.861,0,0,1,.52.07l1.67-1.68A5.949,5.949,0,0,1,22.09,27H19.72a2,2,0,1,1,0-2h2.37a5.949,5.949,0,0,1,1.02-2.47l-1.67-1.68a1.807,1.807,0,0,1-.51.08,2.01,2.01,0,1,1,1.92-1.49l1.68,1.67A5.949,5.949,0,0,1,27,20.09V17.72a2,2,0,1,1,2,0v2.37a5.949,5.949,0,0,1,2.47,1.02l1.68-1.67a2,2,0,0,1,.51-1.93,2,2,0,1,1,1.41,3.42,1.807,1.807,0,0,1-.51-.08l-1.67,1.68A5.949,5.949,0,0,1,33.91,25h2.37A2,2,0,1,1,38,28Zm4,0h2v2H42Zm10,6H42V32H52Zm0-4H46V28h6Z"></path><path d="M31.43,23.98l-.72.73-1.42-1.42.73-.72a3.864,3.864,0,0,0-4.04,0l.73.72-1.42,1.42-.72-.73a3.864,3.864,0,0,0,0,4.04l.72-.73,1.42,1.42-.73.72a3.864,3.864,0,0,0,4.04,0l-.73-.72,1.42-1.42.72.73a3.864,3.864,0,0,0,0-4.04ZM29,27H27V25h2Z"></path><path d="M18,4H5A1,1,0,0,0,4,5v8a1,1,0,0,0,1,1h7a1.033,1.033,0,0,1,.71.29L15,16.59V15a1,1,0,0,1,1-1h2a1,1,0,0,0,1-1V5A1,1,0,0,0,18,4Zm-2,8H7V10h9Zm0-4H7V6h9Z"></path><path d="M8,42v3a3.009,3.009,0,0,0,3,3H53a3.009,3.009,0,0,0,3-3V42Zm44,4H50V44h2Z"></path><polygon points="25.883 50 25.133 56 38.867 56 38.117 50 25.883 50"></polygon><path d="M21,59a1,1,0,0,0,1,1H42a1,1,0,0,0,0-2H22A1,1,0,0,0,21,59Z"></path></g></svg>