<svg xmlns="http://www.w3.org/2000/svg" viewBox="0 0 64 64" x="0px" y="0px"><g><path d="M44.53,35.152,37,30.446V7A5,5,0,0,0,27,7V30.446l-7.53,4.706A1,1,0,0,0,19,36v3a1,1,0,0,0,1,1h8V52.586l-5.707,5.707A1,1,0,0,0,22,59v2a1,1,0,0,0,1,1H41a1,1,0,0,0,1-1V59a1,1,0,0,0-.293-.707L36,52.586V40h8a1,1,0,0,0,1-1V36A1,1,0,0,0,44.53,35.152ZM29,28h6v2H29Zm0-2V14h6V26Zm0-16h6v2H29Zm3-6a3,3,0,0,1,3,3V8H29V7A3,3,0,0,1,32,4Zm2,48H30V51h4ZM24,59.414l4-4V60H24ZM33,60V56H31v4H30V54h4v6Zm7,0H36V55.414l4,4Zm3-22H35a1,1,0,0,0-1,1V49H30V39a1,1,0,0,0-1-1H21V36.554L28.287,32h7.426L43,36.554Z"></path></g></svg>