<svg xmlns="http://www.w3.org/2000/svg" viewBox="0 0 64 64" x="0px" y="0px"><g><path d="M50,47a1,1,0,0,0-1-1H15a1,1,0,0,0,0,2H49A1,1,0,0,0,50,47Z"></path><path d="M14,17a1,1,0,0,0,1,1H49a1,1,0,0,0,0-2H15A1,1,0,0,0,14,17Z"></path><path d="M16,14H48V13a3,3,0,0,0-3-3H19a3,3,0,0,0-3,3Z"></path><path d="M44,60V56H20v4ZM24,57H40v2H24Z"></path><path d="M48,51V50H16v1a3,3,0,0,0,3,3H45A3,3,0,0,0,48,51Z"></path><path d="M32,39a5.006,5.006,0,0,0,5-5c0-1.909-2.816-5.885-5-8.475-2.184,2.591-5,6.569-5,8.475A5.006,5.006,0,0,0,32,39Zm-2.974-5.081a17.527,17.527,0,0,1,2.127-4.261,1.039,1.039,0,0,1,1.694,0,17.527,17.527,0,0,1,2.127,4.261,1.037,1.037,0,0,1,.02.278,3,3,0,0,1-5.988,0A1.037,1.037,0,0,1,29.026,33.919Z"></path><path d="M48,44V20H16V44ZM31.256,23.332a1.031,1.031,0,0,1,1.488,0C33.385,24.046,39,30.407,39,34a7,7,0,0,1-14,0C25,30.407,30.615,24.046,31.256,23.332Z"></path><path d="M32,35a1,1,0,0,0,.98-.8A11.166,11.166,0,0,0,32,32.135a11.166,11.166,0,0,0-.98,2.065A1,1,0,0,0,32,35Z"></path><polygon points="46 2 18 2 18 4 22 4 22 8 24 8 24 4 31 4 31 8 33 8 33 4 40 4 40 8 42 8 42 4 46 4 46 2"></polygon></g></svg>