<svg xmlns="http://www.w3.org/2000/svg" viewBox="0 0 64 64" x="0px" y="0px"><g data-name="Mobile SEO"><path d="M46,2H18a5.006,5.006,0,0,0-5,5V57a5.006,5.006,0,0,0,5,5H46a5.006,5.006,0,0,0,5-5V7A5.006,5.006,0,0,0,46,2Zm3,55a3,3,0,0,1-3,3H18a3,3,0,0,1-3-3V7a3,3,0,0,1,3-3H46a3,3,0,0,1,3,3Z"></path><path d="M46,52H18V33H16V52a2,2,0,0,0,2,2H46a2,2,0,0,0,2-2V33H46Z"></path><path d="M46,5H40a1,1,0,0,0-.707.293L37.586,7H26.414L24.707,5.293A1,1,0,0,0,24,5H18a2,2,0,0,0-2,2V23h2V7h5.586l1.707,1.707A1,1,0,0,0,26,9H38a1,1,0,0,0,.707-.293L40.414,7H46V23h2V7A2,2,0,0,0,46,5Z"></path><rect x="29" y="56" width="6" height="2"></rect><rect x="31" y="45" width="2" height="2"></rect><rect x="35" y="45" width="2" height="2"></rect><rect x="27" y="45" width="2" height="2"></rect><path d="M17.8,25.02A1,1,0,0,0,17,26v4a1,1,0,0,0,.8.98l2.737.548a11.966,11.966,0,0,0,.862,2.08l-1.549,2.323a1,1,0,0,0,.125,1.261l2.829,2.829a1,1,0,0,0,1.261.125L26.392,38.6a11.966,11.966,0,0,0,2.08.862L29.02,42.2A1,1,0,0,0,30,43h4a1,1,0,0,0,.98-.8l.548-2.737a11.966,11.966,0,0,0,2.08-.862l2.323,1.549a1,1,0,0,0,1.261-.125l2.829-2.829a1,1,0,0,0,.125-1.261L42.6,33.608a11.966,11.966,0,0,0,.862-2.08L46.2,30.98A1,1,0,0,0,47,30V26a1,1,0,0,0-.8-.98l-2.737-.548a11.966,11.966,0,0,0-.862-2.08l1.549-2.323a1,1,0,0,0-.125-1.261l-2.829-2.829a1,1,0,0,0-1.261-.125L37.608,17.4a11.966,11.966,0,0,0-2.08-.862L34.98,13.8A1,1,0,0,0,34,13H30a1,1,0,0,0-.98.8l-.548,2.737a11.966,11.966,0,0,0-2.08.862l-2.323-1.549a1,1,0,0,0-1.261.125l-2.829,2.829a1,1,0,0,0-.125,1.261L21.4,22.392a11.966,11.966,0,0,0-.862,2.08Zm3.732,1.292a1,1,0,0,0,.774-.738,9.873,9.873,0,0,1,1.123-2.71,1,1,0,0,0-.025-1.07l-1.435-2.152,1.669-1.669,2.152,1.435a1,1,0,0,0,1.07.025,9.873,9.873,0,0,1,2.71-1.123,1,1,0,0,0,.738-.774L30.82,15h2.36l.507,2.536a1,1,0,0,0,.739.774,9.873,9.873,0,0,1,2.71,1.123,1,1,0,0,0,1.07-.025l2.152-1.435,1.669,1.669-1.435,2.152a1,1,0,0,0-.025,1.07,9.873,9.873,0,0,1,1.123,2.71,1,1,0,0,0,.774.738L45,26.82v2.36l-2.536.508a1,1,0,0,0-.774.738,9.922,9.922,0,0,1-1.123,2.71,1,1,0,0,0,.025,1.07l1.435,2.152-1.669,1.669-2.152-1.435a1,1,0,0,0-1.07-.025,9.873,9.873,0,0,1-2.71,1.123,1,1,0,0,0-.739.774L33.18,41H30.82l-.508-2.536a1,1,0,0,0-.738-.774,9.873,9.873,0,0,1-2.71-1.123,1,1,0,0,0-1.07.025l-2.152,1.435-1.669-1.669,1.435-2.152a1,1,0,0,0,.025-1.07,9.922,9.922,0,0,1-1.123-2.71,1,1,0,0,0-.774-.738L19,29.18V26.82Z"></path><path d="M32,35a7,7,0,1,0-7-7A7.008,7.008,0,0,0,32,35Zm0-12a5,5,0,1,1-5,5A5.006,5.006,0,0,1,32,23Z"></path><path d="M61,15H58v2h2V45H53v2h8a1,1,0,0,0,1-1V16A1,1,0,0,0,61,15Z"></path><rect x="54" y="15" width="2" height="2"></rect><rect x="56" y="31" width="2" height="2"></rect><rect x="56" y="35" width="2" height="2"></rect><rect x="56" y="39" width="2" height="2"></rect><path d="M2,16V46a1,1,0,0,0,1,1H6V45H4V17h7V15H3A1,1,0,0,0,2,16Z"></path><rect x="8" y="45" width="2" height="2"></rect><rect x="6" y="29" width="2" height="2"></rect><rect x="6" y="25" width="2" height="2"></rect><rect x="6" y="21" width="2" height="2"></rect></g></svg>