<svg xmlns="http://www.w3.org/2000/svg" viewBox="0 0 64 64" x="0px" y="0px"><g data-name="Home Office-Working At Home-Desk-Office-Work Station"><path d="M60.99,24.89h-.01L33.93,2.31a2.981,2.981,0,0,0-3.85,0L3.1,24.95a3.071,3.071,0,0,0-.74,3.89,2.976,2.976,0,0,0,2.08,1.43,2.921,2.921,0,0,0,.5.05,2.986,2.986,0,0,0,1.93-.71L8,28.66V59a3.009,3.009,0,0,0,3,3H53a3.009,3.009,0,0,0,3-3V28.54l1.13.95a3,3,0,0,0,3.86-4.6ZM19,60H17V52h2Zm24,0H21V52H43Zm4,0H45V52h2Zm0-10H17V48H47ZM14,46V44H50v2Zm3.02-4V40H20a1,1,0,0,1,1,1v1ZM47,36v1a1,1,0,0,1-1,1H34a1,1,0,0,1-1-1V36ZM33,34V29a1,1,0,0,1,1-1H46a1,1,0,0,1,1,1v5Zm8.72,8H38.28l.5-2h2.44ZM54,59a1,1,0,0,1-1,1H49V48h2a1,1,0,0,0,1-1V43a1,1,0,0,0-1-1H43.78l-.5-2H46a3.009,3.009,0,0,0,3-3V29a3.009,3.009,0,0,0-3-3H34a3.009,3.009,0,0,0-3,3v8a3.009,3.009,0,0,0,3,3h2.72l-.5,2H23V41a3.009,3.009,0,0,0-3-3H17.02V31.41l1.57-1.56v1.22a.99.99,0,0,0,.29.71l1.41,1.41a.99.99,0,0,0,1.42,0l4.65-4.65a1.017,1.017,0,0,0,.3-.71,1,1,0,0,0-.3-.71l-1.41-1.41a1,1,0,0,0-.71-.3H22.83l-1.12-1.12a1.047,1.047,0,0,0-1.42,0l-2.83,2.83a.984.984,0,0,0-.15,1.18l-2,1.99a.99.99,0,0,0-.29.71v7.9c0,.04-.02.07-.02.1v3H13a1,1,0,0,0-1,1v4a1,1,0,0,0,1,1h2V60H11a1,1,0,0,1-1-1V26.96L32,8.31,54,26.85ZM20.29,28.54l-.7-.71L21,26.41l.71.71a.967.967,0,0,0,.7.29h1.42l.41.42L21,31.07l-.41-.41V29.24A.976.976,0,0,0,20.29,28.54Zm39.53-.71a.988.988,0,0,1-1.4.13L32.64,6.24a.987.987,0,0,0-1.29,0L5.58,28.08a.977.977,0,0,1-.81.22,1,1,0,0,1-.7-.49,1.083,1.083,0,0,1,.31-1.33L31.36,3.84A1.025,1.025,0,0,1,32,3.61a1,1,0,0,1,.64.23L59.7,26.43A.987.987,0,0,1,59.82,27.83Z"></path></g></svg>