<svg xmlns="http://www.w3.org/2000/svg" viewBox="0 0 64 64" x="0px" y="0px"><g data-name="Graphic Tablet-Drawing Tablet-Device-Graphic-Computer"><path d="M57,2H15a5.006,5.006,0,0,0-5,5V28h2V7a3,3,0,0,1,3-3H57a3,3,0,0,1,3,3V32H42v2H60v3a3,3,0,0,1-3,3H42v2h.117l.75,6H42v2h5v2H42v2h5a2,2,0,0,0,2-2V50a2,2,0,0,0-2-2H44.883l-.75-6H57a5.006,5.006,0,0,0,5-5V7A5.006,5.006,0,0,0,57,2Z"></path><rect x="54" y="36" width="2" height="2"></rect><path d="M37,30H22v2H37a1,1,0,0,1,1,1v5H22v2H38V56H4V40h8V38H4V33a1,1,0,0,1,1-1h7V30H5a3.009,3.009,0,0,0-3,3V59a3.009,3.009,0,0,0,3,3H37a3.009,3.009,0,0,0,3-3V33A3.009,3.009,0,0,0,37,30Zm1,29a1,1,0,0,1-1,1H5a1,1,0,0,1-1-1V58H38Z"></path><rect x="6" y="34" width="4" height="2"></rect><rect x="32" y="34" width="4" height="2"></rect><rect x="26" y="34" width="4" height="2"></rect><path d="M19,25H15a1,1,0,0,0-1,1v8H12v2h2V47a1,1,0,0,0,.11.45l1,2A.977.977,0,0,0,16,50v2h2V50a.977.977,0,0,0,.89-.55l1-2A1,1,0,0,0,20,47V26A1,1,0,0,0,19,25ZM18,46.76,17.38,48h-.76L16,46.76V31h2ZM18,29H16V27h2Z"></path><path d="M34,7H22a1,1,0,0,0-1,1V20a1,1,0,0,0,1,1h3V19H23V9H33v2h2V8A1,1,0,0,0,34,7Z"></path><path d="M35,20V17H33v2H31v2h3A1,1,0,0,0,35,20Z"></path><rect x="27" y="13" width="2" height="2"></rect><rect x="31" y="13" width="2" height="2"></rect><rect x="39" y="21" width="2" height="2"></rect><rect x="39" y="25" width="2" height="2"></rect><rect x="35" y="25" width="2" height="2"></rect><rect x="31" y="25" width="2" height="2"></rect><rect x="27" y="17" width="2" height="2"></rect><rect x="27" y="21" width="2" height="2"></rect><rect x="27" y="25" width="2" height="2"></rect><path d="M44,21a7,7,0,1,0-7-7A7.008,7.008,0,0,0,44,21ZM44,9a5,5,0,1,1-5,5A5.006,5.006,0,0,1,44,9Z"></path></g></svg>