<svg xmlns="http://www.w3.org/2000/svg" viewBox="0 0 64 64" x="0px" y="0px"><g data-name="Cloud-Smartphone-Transfer-Cloud Computing-Data"><circle cx="37" cy="21" r="1"></circle><path d="M12,22a7.008,7.008,0,0,0,7,7h2.96L26,25.54V23.82a3,3,0,1,1,2,0V26a1.011,1.011,0,0,1-.35.76L25.04,29H38.96l-2.61-2.24A1.011,1.011,0,0,1,36,26V23.82a3,3,0,1,1,2,0v1.72L42.04,29H45a7,7,0,0,0,.79-13.95.986.986,0,0,1-.69-.4.966.966,0,0,1-.18-.77A5.532,5.532,0,0,0,45,13a5,5,0,0,0-5-5,4.921,4.921,0,0,0-2.16.5,1,1,0,0,1-1.27-.36A9,9,0,0,0,20,13c0,.3.02.6.05.9a1.036,1.036,0,0,1-.26.77,1,1,0,0,1-.74.33A7.019,7.019,0,0,0,12,22Zm33,3a3,3,0,0,0,3-3h2a5.006,5.006,0,0,1-5,5ZM29,6V8a5.006,5.006,0,0,0-5,5H22A7.008,7.008,0,0,1,29,6Z"></path><circle cx="27" cy="21" r="1"></circle><path d="M25,36H21V32.46L25.04,29H21.96l-2.61,2.24A1.011,1.011,0,0,0,19,32v4H15a3.009,3.009,0,0,0-3,3V57a3.009,3.009,0,0,0,3,3H25a3.009,3.009,0,0,0,3-3V39A3.009,3.009,0,0,0,25,36Zm-8,2h6v2H17Zm4,20H19V56h2Zm-1-7-1.414-1.414a2,2,0,0,1,2.828,0Zm2.122-3.121a3,3,0,0,0-4.244,0l-1.414-1.414a5.008,5.008,0,0,1,7.072,0Z"></path><path d="M49,36H45V32a1.011,1.011,0,0,0-.35-.76L42.04,29H38.96L43,32.46V36H39a3.009,3.009,0,0,0-3,3V57a3.009,3.009,0,0,0,3,3H49a3.009,3.009,0,0,0,3-3V39A3.009,3.009,0,0,0,49,36Zm-8,2h6v2H41Zm4,20H43V56h2Zm-1-7-1.414-1.414a2,2,0,0,1,2.828,0Zm2.121-3.121a3.072,3.072,0,0,0-4.242,0l-1.414-1.414a5,5,0,0,1,7.07,0Z"></path></g></svg>