<svg xmlns="http://www.w3.org/2000/svg" viewBox="0 0 64 64" x="0px" y="0px"><g><path d="M59.98,9.67,54.33,4.02a1.008,1.008,0,0,0-1.42,0L41.6,15.33l7.07,7.07L59.98,11.09a.99.99,0,0,0,0-1.42Z"></path><rect x="9.305" y="31.191" width="37.01" height="9.999" transform="translate(-17.445 30.264) rotate(-45)"></rect><path d="M55.74,18.16l-1.41,1.41,1.41,1.42a1.992,1.992,0,0,1,0,2.83L41.6,37.96a1,1,0,0,0,1.41,1.41L57.86,24.52a2.994,2.994,0,0,0,0-4.24Z"></path><rect x="42.013" y="15.991" width="1.994" height="9.999" transform="translate(-2.245 36.56) rotate(-45)"></rect><polygon points="10.22 47.59 7.828 54.758 3.293 59.293 4.707 60.707 9.242 56.172 16.41 53.78 10.22 47.59"></polygon></g></svg>