<svg xmlns="http://www.w3.org/2000/svg" viewBox="0 0 64 64" x="0px" y="0px"><g data-name="Global Management"><path d="M37.972,24.841A15.919,15.919,0,0,1,33,25.953V31h5.974A24.316,24.316,0,0,0,37.972,24.841Z"></path><path d="M38.974,33H33v5.047a15.919,15.919,0,0,1,4.972,1.112A24.316,24.316,0,0,0,38.974,33Z"></path><path d="M37.289,41.043a13.9,13.9,0,0,0-4.289-1v5.786C34.69,45.323,36.2,43.563,37.289,41.043Z"></path><path d="M33,18.167v5.786a13.9,13.9,0,0,0,4.289-1C36.2,20.437,34.69,18.677,33,18.167Z"></path><path d="M31,45.833V40.047a13.9,13.9,0,0,0-4.289,1C27.8,43.563,29.31,45.323,31,45.833Z"></path><path d="M39.805,40.053a15.881,15.881,0,0,1,2.312,1.584A13.959,13.959,0,0,0,45.948,33H40.972A25.953,25.953,0,0,1,39.805,40.053Z"></path><path d="M37.348,44.931A13.865,13.865,0,0,0,40.636,43a13.838,13.838,0,0,0-1.546-1.056A14.379,14.379,0,0,1,37.348,44.931Z"></path><path d="M40.972,31h4.976a13.953,13.953,0,0,0-3.831-8.637,15.881,15.881,0,0,1-2.312,1.584A25.953,25.953,0,0,1,40.972,31Z"></path><path d="M40.635,21a13.835,13.835,0,0,0-3.287-1.93,14.37,14.37,0,0,1,1.742,2.986A13.734,13.734,0,0,0,40.635,21Z"></path><path d="M23.365,43a13.835,13.835,0,0,0,3.287,1.93,14.37,14.37,0,0,1-1.742-2.986A13.734,13.734,0,0,0,23.365,43Z"></path><path d="M24.2,40.053A25.953,25.953,0,0,1,23.028,33H18.052a13.953,13.953,0,0,0,3.831,8.637A15.881,15.881,0,0,1,24.2,40.053Z"></path><path d="M24.2,23.947a15.881,15.881,0,0,1-2.312-1.584A13.959,13.959,0,0,0,18.052,31h4.976A25.953,25.953,0,0,1,24.2,23.947Z"></path><path d="M26.028,39.159A15.919,15.919,0,0,1,31,38.047V33H25.026A24.316,24.316,0,0,0,26.028,39.159Z"></path><path d="M25.026,31H31V25.953a15.919,15.919,0,0,1-4.972-1.112A24.316,24.316,0,0,0,25.026,31Z"></path><path d="M20.444,50.32a1,1,0,0,1,1.13-.094,20.887,20.887,0,0,0,4.91,2.037,1,1,0,0,1,.734.865L27.905,60H36.1l.687-6.872a1,1,0,0,1,.734-.865,20.887,20.887,0,0,0,4.91-2.037,1,1,0,0,1,1.13.094L48.9,54.694,54.7,48.9l-4.376-5.347a1,1,0,0,1-.092-1.13,21.012,21.012,0,0,0,2.037-4.911,1,1,0,0,1,.865-.733L60,36.1v-8.19l-6.871-.687a1,1,0,0,1-.865-.733,21.012,21.012,0,0,0-2.037-4.911,1,1,0,0,1,.092-1.13L54.7,15.1,48.9,9.306,43.556,13.68a1,1,0,0,1-1.13.094,20.887,20.887,0,0,0-4.91-2.037,1,1,0,0,1-.734-.865L36.1,4h-8.19l-.687,6.872a1,1,0,0,1-.734.865,20.887,20.887,0,0,0-4.91,2.037,1,1,0,0,1-1.13-.094L15.1,9.306,9.305,15.1l4.376,5.347a1,1,0,0,1,.092,1.13,21.012,21.012,0,0,0-2.037,4.911,1,1,0,0,1-.865.733L4,27.905V36.1l6.871.687a1,1,0,0,1,.865.733,21.012,21.012,0,0,0,2.037,4.911,1,1,0,0,1-.092,1.13L9.305,48.9,15.1,54.694ZM50,31h2v2H50ZM18.564,46.85,17.15,45.435l1.415-1.414,1.414,1.415ZM33,52H31V50h2Zm12.436-5.15-1.415-1.414,1.414-1.415,1.415,1.414Zm0-29.7,1.414,1.415-1.415,1.414-1.414-1.415ZM31,12h2v2H31ZM18.564,17.15l1.415,1.414-1.414,1.415L17.15,18.565Zm2.58,3.114A15.959,15.959,0,1,1,16,32,15.862,15.862,0,0,1,21.144,20.264ZM14,33H12V31h2Z"></path><path d="M26.652,19.069A13.865,13.865,0,0,0,23.364,21a13.838,13.838,0,0,0,1.546,1.056A14.423,14.423,0,0,1,26.652,19.069Z"></path><path d="M31,18.167c-1.69.51-3.2,2.27-4.289,4.79a13.9,13.9,0,0,0,4.289,1Z"></path></g></svg>