<svg xmlns="http://www.w3.org/2000/svg" viewBox="0 0 64 64" x="0px" y="0px"><title>Chassis</title><g><path d="M52,2H46a2,2,0,0,0-2,2V8H40V3a1,1,0,0,0-1-1H25a1,1,0,0,0-1,1V8H20V4a2,2,0,0,0-2-2H12a2,2,0,0,0-2,2V14a2,2,0,0,0,2,2h6a2,2,0,0,0,2-2V10h4V20.586l-1.707,1.707A1,1,0,0,0,22,23V54H20V50a2,2,0,0,0-2-2H12a2,2,0,0,0-2,2V60a2,2,0,0,0,2,2h6a2,2,0,0,0,2-2V56h2v5a1,1,0,0,0,1,1H41a1,1,0,0,0,1-1V56h2v4a2,2,0,0,0,2,2h6a2,2,0,0,0,2-2V50a2,2,0,0,0-2-2H46a2,2,0,0,0-2,2v4H42V23a1,1,0,0,0-.293-.707L40,20.586V10h4v4a2,2,0,0,0,2,2h6a2,2,0,0,0,2-2V4A2,2,0,0,0,52,2ZM12,14V12h1a1,1,0,0,0,0-2H12V8h1a1,1,0,0,0,0-2H12V4h6V6H17a1,1,0,0,0,0,2h1v2H17a1,1,0,0,0,0,2h1v2Zm0,46V58h1a1,1,0,0,0,0-2H12V54h1a1,1,0,0,0,0-2H12V50h6v2H17a1,1,0,0,0,0,2h1v2H17a1,1,0,0,0,0,2h1v2ZM46,50h6v2H51a1,1,0,0,0,0,2h1v2H51a1,1,0,0,0,0,2h1v2H46V58h1a1,1,0,0,0,0-2H46V54h1a1,1,0,0,0,0-2H46V50ZM26,4H38V8H35V6a1,1,0,0,0-1-1H30a1,1,0,0,0-1,1V8H26Zm6,49a2,2,0,1,1-2,2A2,2,0,0,1,32,53ZM31,15V7h2v8Zm-7,8.414,1.707-1.707A1,1,0,0,0,26,21V10h3v6a1,1,0,0,0,1,1h1V51.142A4,4,0,0,0,28.142,54H24ZM40,60H24V56h4.142a3.981,3.981,0,0,0,7.716,0H40ZM38.293,21.707,40,23.414V54H35.858A4,4,0,0,0,33,51.142V17h1a1,1,0,0,0,1-1V10h3V21A1,1,0,0,0,38.293,21.707ZM46,14V12h1a1,1,0,0,0,0-2H46V8h1a1,1,0,0,0,0-2H46V4h6V6H51a1,1,0,0,0,0,2h1v2H51a1,1,0,0,0,0,2h1v2Z"></path></g></svg>