<svg xmlns="http://www.w3.org/2000/svg" viewBox="0 0 64 64" x="0px" y="0px"><g><polygon points="40.279 50 35.721 50 34.387 54 41.613 54 40.279 50"></polygon><path d="M57,5H5A1,1,0,0,0,4,6V19.18A3,3,0,0,1,5,19H57a3,3,0,0,1,1,.18V6A1,1,0,0,0,57,5ZM56,17H6V15H56Zm0-4H6V11H56Zm0-4H6V7H56Z"></path><circle cx="31" cy="35" r="6"></circle><polygon points="46.279 44 41.721 44 40.387 48 47.613 48 46.279 44"></polygon><polygon points="35.279 56 30.721 56 29.387 60 36.613 60 35.279 56"></polygon><polygon points="57.279 56 52.721 56 51.387 60 58.613 60 57.279 56"></polygon><polygon points="46.279 56 41.721 56 40.387 60 47.613 60 46.279 56"></polygon><path d="M57,21H5a1,1,0,0,0-1,1V48a1,1,0,0,0,1,1H33.94l.11-.32A1.014,1.014,0,0,1,35,48h3.28l1.77-5.32A1.014,1.014,0,0,1,41,42h6a1.014,1.014,0,0,1,.95.68L49.72,48H53a1.014,1.014,0,0,1,.95.68l.11.32H57a1,1,0,0,0,1-1V22A1,1,0,0,0,57,21ZM19,45H9a1,1,0,0,1-1-1V38h2v5h9Zm0-18H10v5H8V26a1,1,0,0,1,1-1H19ZM31,43a8,8,0,1,1,8-8A8.011,8.011,0,0,1,31,43Zm23,1a1,1,0,0,1-1,1H51V43h1V38h2Zm0-12H52V27H43V25H53a1,1,0,0,1,1,1Z"></path><polygon points="52.279 50 47.721 50 46.387 54 53.613 54 52.279 50"></polygon></g></svg>