<svg xmlns="http://www.w3.org/2000/svg" viewBox="0 0 64 64" x="0px" y="0px"><g><path d="M37,23a1,1,0,0,0-1-1H28a1,1,0,0,0-1,1,4.734,4.734,0,0,0,5,5A4.734,4.734,0,0,0,37,23Zm-7.877,1h5.754A2.7,2.7,0,0,1,32,26,2.7,2.7,0,0,1,29.123,24Z"></path><path d="M28,19a1,1,0,0,1,1,1h2a3,3,0,0,0-6,0h2A1,1,0,0,1,28,19Z"></path><path d="M36,19a1,1,0,0,1,1,1h2a3,3,0,0,0-6,0h2A1,1,0,0,1,36,19Z"></path><path d="M40.87,34.26,37,33.23V30.65A10.023,10.023,0,0,0,42,22h.5a3.5,3.5,0,0,0,0-7H42v-.28A2,2,0,0,0,43,13V11a2,2,0,0,0-.65-1.47l1.33-2.65,1.75-.35A3,3,0,1,0,48,2H30.48A7.027,7.027,0,0,0,24.4,5.52l-2.05,3.6A2,2,0,0,0,21,11v2a2,2,0,0,0,1,1.72V15h-.5a3.5,3.5,0,0,0,0,7H22a10.023,10.023,0,0,0,5,8.65v2.58l-3.87,1.03A15.026,15.026,0,0,0,12,48.76V53a9.014,9.014,0,0,0,9,9H43a9.014,9.014,0,0,0,9-9V48.76A15.026,15.026,0,0,0,40.87,34.26ZM48,4a1,1,0,1,1-1,1A1,1,0,0,1,48,4ZM22,20h-.5a1.5,1.5,0,0,1,0-3H22Zm20.5-3a1.5,1.5,0,0,1,0,3H42V17ZM26.14,6.52A5,5,0,0,1,30.48,4h14.7a3.392,3.392,0,0,0-.14.57l-2.24.45a.985.985,0,0,0-.69.53L40.83,8.11,38.8,5.4,37.2,6.6,39,9H24.72ZM23,11H41v2H23Zm1,11V15H40v7a8,8,0,0,1-16,0Zm11,9.54V34c0,1.08-1.37,2-3,2s-3-.92-3-2V31.54a10.013,10.013,0,0,0,6,0Zm-7.73,3.69A4.993,4.993,0,0,0,32,38a4.993,4.993,0,0,0,4.73-2.77l1.96.52A6.988,6.988,0,0,1,32,40a6.988,6.988,0,0,1-6.69-4.25ZM33,42v4H31V42ZM22,40a1,1,0,0,0-1,1v6a1,1,0,0,0,1,1v6H20V46H18v8.59l-1.71,1.7,1.42,1.42L19.41,56H22v4H21a7.008,7.008,0,0,1-7-7V48.76a13.011,13.011,0,0,1,9.38-12.48A8,8,0,0,0,26.07,40Zm1,2h6v4H23Zm3,18H24V56h2a2,2,0,0,1,0,4Zm14,0H38a2,2,0,0,1,0-4h2Zm0-6H38a4,4,0,0,0-4,4,3.906,3.906,0,0,0,.56,2H29.44A3.906,3.906,0,0,0,30,58a4,4,0,0,0-4-4H24V48H40Zm1-8H35V42h6Zm9,7a7.008,7.008,0,0,1-7,7H42V56h2.59l1.7,1.71,1.42-1.42L46,54.59V46H44v8H42V48a1,1,0,0,0,1-1V41a1,1,0,0,0-1-1H37.93a8,8,0,0,0,2.69-3.72A13.011,13.011,0,0,1,50,48.76Z"></path></g></svg>