<svg xmlns="http://www.w3.org/2000/svg" data-name="Goal-On top" viewBox="0 0 64 64" x="0px" y="0px"><path d="M15.5,31H21a1,1,0,0,0,.79-.386L27.4,23.4l.3,1.717,1.97-.344-.69-3.94a1,1,0,0,0-1.157-.813l-3.94.69.344,1.97,1.387-.243L20.511,29H15a1,1,0,0,0-.8.4l-9,12,1.6,1.2Z"></path><path d="M32,56a1,1,0,0,1-.832-.445l-11.2-16.809L12,50h3a1,1,0,0,1,.707.293l2.979,2.979-1.414,1.414L14.586,52h-4L4.918,60h38.7l-4-4Z"></path><path d="M38,26.518V15H48.941l-2.727-3.465a1,1,0,0,1,.01-1.25L48.9,7H36V26.2L28.327,37H38a1,1,0,0,1,.707.293l4.115,4.115-1.414,1.414L37.586,39H27v-.131l-2.347,3.305L32.532,54h7.5a1,1,0,0,1,.707.293L46.446,60H59.127Z"></path></svg>