<svg xmlns="http://www.w3.org/2000/svg" viewBox="0 0 64 64" x="0px" y="0px"><title>Slippers</title><g><path d="M18,2H16A13.015,13.015,0,0,0,3,15V29a1,1,0,0,0,1,1H5V51A11.013,11.013,0,0,0,16,62h2A11.013,11.013,0,0,0,29,51V30h1a1,1,0,0,0,1-1V15A13.015,13.015,0,0,0,18,2Zm9,49a9.01,9.01,0,0,1-9,9H16a9.01,9.01,0,0,1-9-9V30H9V51a7.008,7.008,0,0,0,7,7h2a7.008,7.008,0,0,0,7-7V30h2ZM11,30H23V51a5.006,5.006,0,0,1-5,5H16a5.006,5.006,0,0,1-5-5Zm18-2H5V15A11.013,11.013,0,0,1,16,4h2A11.013,11.013,0,0,1,29,15Z"></path><path d="M48,2H46A13.015,13.015,0,0,0,33,15V29a1,1,0,0,0,1,1h1V51A11.013,11.013,0,0,0,46,62h2A11.013,11.013,0,0,0,59,51V30h1a1,1,0,0,0,1-1V15A13.015,13.015,0,0,0,48,2Zm9,49a9.01,9.01,0,0,1-9,9H46a9.01,9.01,0,0,1-9-9V30h2V51a7.008,7.008,0,0,0,7,7h2a7.008,7.008,0,0,0,7-7V30h2ZM41,30H53V51a5.006,5.006,0,0,1-5,5H46a5.006,5.006,0,0,1-5-5Zm18-2H35V15A11.013,11.013,0,0,1,46,4h2A11.013,11.013,0,0,1,59,15Z"></path></g></svg>