<svg xmlns="http://www.w3.org/2000/svg" viewBox="0 0 64 64" x="0px" y="0px"><g data-name="Barrier-Security-Traffic Barrier-Street-Village"><path d="M12.687,30.3l2.827,1.571a1,1,0,0,0,.972,0L19.313,30.3A13.006,13.006,0,0,0,26,18.939V13a1,1,0,0,0-.594-.914l-9-4a1,1,0,0,0-.812,0l-9,4A1,1,0,0,0,6,13v5.939A13.006,13.006,0,0,0,12.687,30.3ZM8,13.65l8-3.556,8,3.556v5.289a11.007,11.007,0,0,1-5.658,9.616L16,29.856l-2.342-1.3A11.007,11.007,0,0,1,8,18.939Z"></path><path d="M15,23a1,1,0,0,0,.707-.293l5-5-1.414-1.414L15,20.586l-2.293-2.293-1.414,1.414,3,3A1,1,0,0,0,15,23Z"></path><path d="M56,52H34.82A3,3,0,0,0,29,53v7H28v2h8V60H35V58H56a1,1,0,0,0,1-1V53A1,1,0,0,0,56,52ZM33,60H31V53a1,1,0,0,1,2,0Zm2.22-4H35V54h.72Zm4,0H37.28l.5-2h1.94Zm4,0H41.28l.5-2h1.94Zm4,0H45.28l.5-2h1.94Zm4,0H49.28l.5-2h1.94ZM55,56H53.28l.5-2H55Z"></path><rect x="38" y="37" width="2" height="12"></rect><rect x="50" y="37" width="2" height="12"></rect><rect x="44" y="46" width="2" height="2"></rect><rect x="44" y="42" width="2" height="2"></rect><rect x="44" y="38" width="2" height="2"></rect><path d="M41,19a4,4,0,1,0,4-4A4,4,0,0,0,41,19Zm6,0a2,2,0,1,1-2-2A2,2,0,0,1,47,19Z"></path><path d="M61.26,17.85,56,12.59V5a1,1,0,0,0-1-1H51a1,1,0,0,0-1,1V6.59l-4.29-4.3a1.008,1.008,0,0,0-1.42,0L28.74,17.85a1,1,0,0,0,0,1.41l2.82,2.83a1.007,1.007,0,0,0,.71.29.99.99,0,0,0,.71-.29L34,21.07V33a2.006,2.006,0,0,0,2,2H54a2.006,2.006,0,0,0,2-2V21.07l1.02,1.02a.99.99,0,0,0,.71.29,1.007,1.007,0,0,0,.71-.29l2.82-2.83A1,1,0,0,0,61.26,17.85ZM52,6h2v4.59l-2-2ZM47,33H43V27h4Zm7,0H49V26a1,1,0,0,0-1-1H42a1,1,0,0,0-1,1v7H36V19.07l9-9,9,9Zm3.73-13.03L45.71,7.95a1.014,1.014,0,0,0-1.42,0L32.27,19.97l-1.41-1.41L45,4.41,59.14,18.56Z"></path><circle cx="16" cy="50" r="2"></circle><path d="M29.44,48.02,16.71,35.29a1.008,1.008,0,0,0-1.42,0L2.56,48.02a1.033,1.033,0,0,0-.29.71,1.052,1.052,0,0,0,.29.71l2.83,2.82a1.008,1.008,0,0,0,1.42,0L8,51.07V60a2.006,2.006,0,0,0,2,2H22a2.006,2.006,0,0,0,2-2V51.07l1.19,1.19a.99.99,0,0,0,1.42,0l2.83-2.82a1.052,1.052,0,0,0,.29-.71A1.033,1.033,0,0,0,29.44,48.02ZM17,60H15V56h2Zm5,0H19V55a1,1,0,0,0-1-1H14a1,1,0,0,0-1,1v5H10V49.07l6-6,6,6Zm3.9-9.86-9.19-9.19a1.014,1.014,0,0,0-1.42,0L6.1,50.14,4.69,48.73,16,37.41,27.31,48.73Z"></path></g></svg>