<svg xmlns="http://www.w3.org/2000/svg" viewBox="0 0 64 64" x="0px" y="0px"><g><path d="M49,12H15V44.66l2.44-4.22A3.982,3.982,0,0,1,22,38.61V21a3.009,3.009,0,0,1,3-3H39a3.009,3.009,0,0,1,3,3v.89a2.9,2.9,0,0,1,1.5.39,3.011,3.011,0,0,1,1.1,4.1L42,30.88V39a3.009,3.009,0,0,1-3,3H25c-.05,0-.09-.01-.14-.01a3.958,3.958,0,0,1-.49,2.45l-3.26,5.64L21.88,52H49ZM19,23H17V21h2Zm3-7H19v3H17V15a1,1,0,0,1,1-1h4Z"></path><path d="M42.87,25.38a1,1,0,0,0-1.13-1.47.99.99,0,0,0-.61.47l-.5.86,1.74,1Z"></path><polygon points="36.25 32.83 36.12 35.06 37.98 33.83 41.37 27.97 39.63 26.97 36.25 32.83"></polygon><path d="M39,20H25a1,1,0,0,0-1,1V39a1,1,0,0,0,1,1H39a1,1,0,0,0,1-1V34.34l-.4.7a1.009,1.009,0,0,1-.32.33l-3.73,2.46A1,1,0,0,1,34,36.94l.27-4.46a.942.942,0,0,1,.13-.44l5-8.66a2.808,2.808,0,0,1,.6-.72V21A1,1,0,0,0,39,20ZM26,22h6v2H26Zm0,8h6v2H26Zm7,8H28V36h5Zm3-10H26V26H36Z"></path><path d="M21,58.23v-1.3a9.149,9.149,0,0,0-.64-3.35l-1.29-3.21a1.023,1.023,0,0,1,.06-.87l3.5-6.06a1.974,1.974,0,0,0,.2-1.52,1.894,1.894,0,0,0-.93-1.21,1.988,1.988,0,0,0-2.73.73l-5,8.66-1.73-1,.56-.98V35.15l-4.51,7.8a14.956,14.956,0,0,0-1.92,9.16L7.561,61h13A8.945,8.945,0,0,0,21,58.23Z"></path><path d="M49,9a5,5,0,0,0-5-5H20a5,5,0,0,0-5,5v1H49ZM27,8H25V6h2Zm8,0H29V6h6Z"></path><path d="M49,54H22.6a11.075,11.075,0,0,1,.4,2.93v1.3A11.529,11.529,0,0,1,22.85,60H44a5,5,0,0,0,5-5ZM34,58H30V56h4Z"></path></g></svg>