<svg xmlns="http://www.w3.org/2000/svg" viewBox="0 0 64 64" x="0px" y="0px"><g><circle cx="46" cy="34" r="2"></circle><circle cx="46" cy="24" r="2"></circle><circle cx="22" cy="34" r="2"></circle><rect x="31" y="4" width="2" height="1"></rect><rect x="4" y="44" width="56" height="2"></rect><path d="M9,42H55V7H9Zm4-9h5.142a3.981,3.981,0,0,1,7.716,0H42.142A4,4,0,0,1,45,30.142V27.858A4,4,0,0,1,42.142,25H21a4,4,0,0,1-4-4V17a4,4,0,0,1,4-4H46.586l-1.121-1.122,1.414-1.414,2.828,2.829a1,1,0,0,1,0,1.414l-2.828,2.829-1.414-1.414L46.586,15H21a2,2,0,0,0-2,2v4a2,2,0,0,0,2,2H42.142A3.992,3.992,0,1,1,47,27.858v2.284A3.992,3.992,0,1,1,42.142,35H25.858a3.981,3.981,0,0,1-7.716,0H13Z"></path><polygon points="42.447 60.105 33 55.382 33 48 31 48 31 55.382 21.553 60.105 22.447 61.895 32 57.118 41.553 61.895 42.447 60.105"></polygon></g></svg>