<svg xmlns="http://www.w3.org/2000/svg" viewBox="0 0 64 64" x="0px" y="0px"><g><path d="M50,2H28a5.006,5.006,0,0,0-5,5V21.01H21.81a5.016,5.016,0,0,0-4.331,2.5l-5,8.67A11.009,11.009,0,0,0,11,37.68V61a1,1,0,0,0,1,1H24a1,1,0,0,0,1-1V59.835c1.364-.46,2.494-1.858,3.2-3.835H50a5.006,5.006,0,0,0,5-5V7A5.006,5.006,0,0,0,50,2ZM34,4H44V6H34ZM24,58a1,1,0,0,0-1,1v1H13V37.68a9.006,9.006,0,0,1,1.206-4.5l5-8.67a3.011,3.011,0,0,1,2.6-1.5H23v7.721L17.938,39.5l1.732,1,5.5-9.526a2,2,0,1,1,3.465,2l-5.5,9.526A1,1,0,0,0,24,44c1.416,0,3,2.993,3,7S25.416,58,24,58Zm29-7a3,3,0,0,1-3,3H28.733A16.542,16.542,0,0,0,29,51c0-4.176-1.424-7.516-3.49-8.614l4.856-8.412A3.982,3.982,0,0,0,25,28.467V7a3,3,0,0,1,3-3h4V6a2,2,0,0,0,2,2H44a2,2,0,0,0,2-2V4h4a3,3,0,0,1,3,3Z"></path><path d="M33.694,31H44.306a2.991,2.991,0,0,0,2.959-2.507l1.721-10.329A1,1,0,0,0,48,17H45.18l.806-4.836-1.972-.328L43.153,17H34.847l-.861-5.164-1.972.328L32.82,17H30a1,1,0,0,0-.986,1.164l1.721,10.329A2.991,2.991,0,0,0,33.694,31ZM46.819,19l-1.527,9.165a1,1,0,0,1-.986.835H33.694a1,1,0,0,1-.986-.835L31.181,19Z"></path><rect x="38" y="21" width="2" height="6"></rect><rect x="42" y="21" width="2" height="6"></rect><rect x="34" y="21" width="2" height="6"></rect><rect x="31" y="36" width="2" height="2"></rect><rect x="35" y="36" width="2" height="2"></rect><rect x="39" y="36" width="10" height="2"></rect><rect x="31" y="40" width="18" height="2"></rect><rect x="31" y="44" width="18" height="2"></rect><rect x="31" y="48" width="18" height="2"></rect></g></svg>