<svg xmlns="http://www.w3.org/2000/svg" viewBox="0 0 64 64" x="0px" y="0px"><g data-name="Award"><rect x="9" y="56" width="46" height="4"></rect><path d="M30.6,24.073l-.5,1.545,1.314-.955a1,1,0,0,1,1.176,0l1.314.955-.5-1.545a1,1,0,0,1,.364-1.118L35.078,22H33.453a1,1,0,0,1-.951-.691L32,19.764l-.5,1.545a1,1,0,0,1-.951.691H28.922l1.314.955A1,1,0,0,1,30.6,24.073Z"></path><path d="M19,4.168V54H43.119L48.885,8.838Zm5.894,16.523A1,1,0,0,1,25.845,20H29.82l1.229-3.781a1,1,0,0,1,1.9,0L34.18,20h3.975a1,1,0,0,1,.588,1.809l-3.216,2.337,1.229,3.781a1,1,0,0,1-1.539,1.118L32,26.708l-3.217,2.337a1,1,0,0,1-1.539-1.118l1.229-3.781-3.216-2.337A1,1,0,0,1,24.894,20.691ZM24,36h4v2H24Zm16,6H24V40H40Zm0-4H30V36H40Z"></path><polygon points="7 18 7 16 9 16 9 14 7 14 7 12 5 12 5 14 3 14 3 16 5 16 5 18 7 18"></polygon><rect x="10" y="29" width="2" height="2"></rect><rect x="12" y="31" width="2" height="2"></rect><rect x="10" y="33" width="2" height="2"></rect><rect x="8" y="31" width="2" height="2"></rect><rect x="57" y="12" width="2" height="2"></rect><rect x="59" y="14" width="2" height="2"></rect><rect x="57" y="16" width="2" height="2"></rect><rect x="55" y="14" width="2" height="2"></rect><rect x="52" y="30" width="2" height="2"></rect><rect x="54" y="32" width="2" height="2"></rect><rect x="52" y="34" width="2" height="2"></rect><rect x="50" y="32" width="2" height="2"></rect></g></svg>