<svg xmlns="http://www.w3.org/2000/svg" viewBox="0 0 64 64" x="0px" y="0px"><g data-name="Time Management-Work Time-Productivity-Gear-Cogwheel"><circle cx="43" cy="21" r="1"></circle><circle cx="19" cy="39" r="5"></circle><path d="M30.05,22a12.956,12.956,0,0,0,3.09,7.45l1.37-1.38,1.42,1.42-1.38,1.37A12.956,12.956,0,0,0,42,33.95V32h2v1.95a12.956,12.956,0,0,0,7.45-3.09l-1.38-1.37,1.42-1.42,1.37,1.38A12.956,12.956,0,0,0,55.95,22H54V20h1.95a12.956,12.956,0,0,0-3.09-7.45l-1.37,1.38-1.42-1.42,1.38-1.37A12.956,12.956,0,0,0,44,8.05V10H42V8.05a12.956,12.956,0,0,0-7.45,3.09l1.38,1.37-1.42,1.42-1.37-1.38A12.956,12.956,0,0,0,30.05,20H32v2ZM40,21a3,3,0,0,1,2-2.816V12h2v6.184A2.993,2.993,0,0,1,43,24a2.951,2.951,0,0,1-1.285-.3l-3.008,3.008-1.414-1.414L40.3,22.285A2.951,2.951,0,0,1,40,21Z"></path><path d="M60,21a17,17,0,1,0-32.3,7.356L25.91,29.63a1,1,0,0,1-1.11.04,11.031,11.031,0,0,0-3.3-1.38,1,1,0,0,1-.77-.81L20.15,24h-2.3l-.58,3.48a1,1,0,0,1-.77.81,11.031,11.031,0,0,0-3.3,1.38,1,1,0,0,1-1.11-.04L9.21,27.58,7.58,29.21l2.05,2.88a1,1,0,0,1,.04,1.11,11.031,11.031,0,0,0-1.38,3.3,1,1,0,0,1-.81.77L4,37.85v2.3l3.48.58a1,1,0,0,1,.81.77,11.031,11.031,0,0,0,1.38,3.3,1,1,0,0,1-.04,1.11L7.58,48.79l1.63,1.63,2.88-2.05a1,1,0,0,1,1.11-.04,11.031,11.031,0,0,0,3.3,1.38,1,1,0,0,1,.77.81L17.85,54h2.3l.58-3.48a1,1,0,0,1,.77-.81,11.031,11.031,0,0,0,3.3-1.38,1,1,0,0,1,1.11.04l2.88,2.05.875-.875a1,1,0,0,1,.626.683,8.859,8.859,0,0,0,.975,2.356,1,1,0,0,1-.06,1.11l-1.492,1.991,1.6,1.6,1.99-1.492a1,1,0,0,1,1.111-.061,8.923,8.923,0,0,0,2.357.977,1,1,0,0,1,.742.827L37.867,60h2.266l.352-2.463a1,1,0,0,1,.742-.827,8.923,8.923,0,0,0,2.357-.977,1,1,0,0,1,1.111.061l1.99,1.492,1.6-1.6-1.492-1.991a1,1,0,0,1-.06-1.11,8.859,8.859,0,0,0,.975-2.356,1,1,0,0,1,.828-.744L51,49.133V46.867l-2.463-.351a1,1,0,0,1-.828-.744,8.859,8.859,0,0,0-.975-2.356,1,1,0,0,1,.06-1.11l1.492-1.991-1.6-1.6L44.7,40.206a1,1,0,0,1-1.111.061,8.923,8.923,0,0,0-2.357-.977,1,1,0,0,1-.742-.827l-.1-.685A16.882,16.882,0,0,0,60,21ZM43,6A15,15,0,1,1,28,21,15.018,15.018,0,0,1,43,6ZM19,46a7,7,0,1,1,7-7A7.008,7.008,0,0,1,19,46Zm12.266-2.584a8.859,8.859,0,0,0-.975,2.356,1,1,0,0,1-.828.744l-.6.085-.492-.691a1,1,0,0,1-.04-1.11,11.031,11.031,0,0,0,1.38-3.3.994.994,0,0,1,.434-.611l1.062,1.417A1,1,0,0,1,31.266,43.416ZM45,48a6,6,0,1,1-6-6A6.006,6.006,0,0,1,45,48Zm-7.485-9.537a1,1,0,0,1-.742.827,8.923,8.923,0,0,0-2.357.977,1,1,0,0,1-1.026-.015l.61-.1v-2.3l-3.48-.58a1,1,0,0,1-.81-.77,11.031,11.031,0,0,0-1.38-3.3,1,1,0,0,1,.04-1.11l.844-1.185a17.062,17.062,0,0,0,8.49,6.238Z"></path><circle cx="39" cy="48" r="4"></circle></g></svg>