<svg xmlns="http://www.w3.org/2000/svg" viewBox="0 0 64 64" x="0px" y="0px"><g><path d="M60,27a3,3,0,0,0-3-3H7a3,3,0,0,0-3,3V51a3,3,0,0,0,3,3h9V51H14a1,1,0,0,1-1-1V44a1,1,0,0,1,1-1H50a1,1,0,0,1,1,1v6a1,1,0,0,1-1,1H48v3h9a3,3,0,0,0,3-3ZM21,37a3,3,0,1,1,3-3A3,3,0,0,1,21,37Zm11,1a4,4,0,1,1,4-4A4,4,0,0,1,32,38Zm11-1a3,3,0,1,1,3-3A3,3,0,0,1,43,37Z"></path><path d="M48,47v2h1V45H15v4h1V47a1,1,0,0,1,1-1H47A1,1,0,0,1,48,47Z"></path><circle cx="43" cy="34" r="1"></circle><circle cx="32" cy="34" r="2"></circle><circle cx="21" cy="34" r="1"></circle><rect x="18" y="9" width="28" height="3"></rect><rect x="18" y="4" width="28" height="3"></rect><rect x="18" y="14" width="28" height="8"></rect><rect x="48" y="18" width="4" height="4"></rect><path d="M46,60V48H18V60ZM22,51H42v2H22Zm0,4H42v2H22Z"></path><rect x="12" y="18" width="4" height="4"></rect></g></svg>