<svg xmlns="http://www.w3.org/2000/svg" viewBox="0 0 64 64" x="0px" y="0px"><g><path d="M32,35A11,11,0,1,0,43,46,11.013,11.013,0,0,0,32,35ZM27,47H25V45h2Zm9-3H34V43H30v2h4a2,2,0,0,1,2,2v2a2,2,0,0,1-2,2H33v2H31V51H30a2,2,0,0,1-2-2V48h2v1h4V47H30a2,2,0,0,1-2-2V43a2,2,0,0,1,2-2h1V39h2v2h1a2,2,0,0,1,2,2Zm3,3H37V45h2Z"></path><rect x="10" y="24" width="2" height="2"></rect><rect x="12" y="26" width="2" height="2"></rect><rect x="10" y="28" width="2" height="2"></rect><rect x="8" y="26" width="2" height="2"></rect><rect x="53" y="21" width="2" height="2"></rect><rect x="55" y="23" width="2" height="2"></rect><rect x="53" y="25" width="2" height="2"></rect><rect x="51" y="23" width="2" height="2"></rect><rect x="12" y="6" width="2" height="2"></rect><rect x="14" y="8" width="2" height="2"></rect><rect x="12" y="10" width="2" height="2"></rect><rect x="10" y="8" width="2" height="2"></rect><path d="M40,16a3,3,0,0,0,3-3V10H36a3,3,0,0,0-3,3H31v9a3,3,0,0,0-3-3H21v3a3,3,0,0,0,3,3h7v8h2V28h7a3,3,0,0,0,3-3V22H36a3,3,0,0,0-3,3V16Z"></path><path d="M28,7H21v3a3,3,0,0,0,3,3h7V10A3,3,0,0,0,28,7Z"></path></g></svg>