<svg xmlns="http://www.w3.org/2000/svg" viewBox="0 0 64 64" x="0px" y="0px"><g><circle cx="31" cy="12" r="2"></circle><circle cx="26" cy="5" r="2"></circle><circle cx="15" cy="34" r="2"></circle><circle cx="6" cy="42" r="2"></circle><path d="M12,4a8,8,0,1,0,8,8A8.009,8.009,0,0,0,12,4Zm-1,7h2a3,3,0,0,1,0,6v1H11V17a3,3,0,0,1-3-3h2a1,1,0,0,0,1,1h2a1,1,0,0,0,0-2H11a3,3,0,0,1,0-6V6h2V7a3,3,0,0,1,3,3H14a1,1,0,0,0-1-1H11a1,1,0,0,0,0,2Z"></path><rect x="5" y="31" width="2" height="6"></rect><rect x="14" y="27" width="2" height="2"></rect><rect x="14" y="23" width="2" height="2"></rect><rect x="5" y="27" width="2" height="2"></rect><rect x="5" y="23" width="2" height="2"></rect><path d="M54,60V47.41a1,1,0,0,1,.334-.745,16.911,16.911,0,0,0,5.613-14.024A17.2,17.2,0,0,0,50,18.536V25H48V17.757a16.237,16.237,0,0,0-3.079-.652A17.41,17.41,0,0,0,40,17.276V21H38V17.747A17.015,17.015,0,0,0,26,34a1,1,0,0,1-.219.625L19.081,43H23a1,1,0,0,1,1,1v7a3,3,0,0,0,3,3h6a1,1,0,0,1,1,1v5ZM48,27h2v2H48Zm0,4h2v2H48ZM38,23h2v2H38Zm0,4h2v2H38Zm-6,7H30a4,4,0,0,1,8,0H36a2,2,0,0,0-4,0Z"></path><path d="M47,11H40V7a3,3,0,0,0-3-3H31V6h6a1,1,0,0,1,1,1v4H36v2h2v2h2V13h7a1,1,0,0,1,1,1v2h2V14A3,3,0,0,0,47,11Z"></path></g></svg>