<svg xmlns="http://www.w3.org/2000/svg" viewBox="0 0 64 64" x="0px" y="0px"><g><path d="M59.95,31.53,49.47,21.05A7,7,0,0,0,44.51,19H40V16.79a19.263,19.263,0,0,0,6.65-2.29l2.85-1.63a1.007,1.007,0,0,0,0-1.74L46.65,9.5A19.135,19.135,0,0,0,37.22,7H9A5,5,0,0,0,9,17h9v2H8a6,6,0,0,0-6,6V46a5,5,0,0,0,5,5H8.08a6.991,6.991,0,0,0,13.84,0H42.08a6.991,6.991,0,0,0,13.84,0H59a3.009,3.009,0,0,0,3-3V36.49A7,7,0,0,0,59.95,31.53ZM50.59,25l7.94,7.95c.02.01.03.03.05.05H40V26a1,1,0,0,1,1-1ZM9,15A3,3,0,0,1,9,9H37.22a17.072,17.072,0,0,1,7.98,2H11v2H45.2a17.072,17.072,0,0,1-7.98,2Zm29,1.97V19H20V17H37.22Q37.61,17,38,16.97ZM8.08,49H7a3.01,3.01,0,0,1-2.82-2H8.69A6.739,6.739,0,0,0,8.08,49ZM15,55a5,5,0,1,1,5-5A5,5,0,0,1,15,55Zm23-6H21.92a6.739,6.739,0,0,0-.61-2H38Zm0-23V45H19.89a6.978,6.978,0,0,0-9.78,0H4V25a4,4,0,0,1,4-4H44.51a4.945,4.945,0,0,1,3.54,1.47l.54.53H41A3.009,3.009,0,0,0,38,26Zm4.08,23H40V47h2.69A6.739,6.739,0,0,0,42.08,49ZM49,55a5,5,0,1,1,5-5A5,5,0,0,1,49,55Zm11-7a1,1,0,0,1-1,1H55.92a6.739,6.739,0,0,0-.61-2H60Zm0-7H58V39h2Zm0-4H58a2.006,2.006,0,0,0-2,2v2a2.006,2.006,0,0,0,2,2h2v2H53.89a6.978,6.978,0,0,0-9.78,0H40V35H59.75A4.952,4.952,0,0,1,60,36.49Z"></path><rect x="42" y="37" width="4" height="2"></rect><circle cx="15" cy="50" r="2"></circle><circle cx="49" cy="50" r="2"></circle><path d="M33,23H9a3.009,3.009,0,0,0-3,3v6a3.009,3.009,0,0,0,3,3H33a3.009,3.009,0,0,0,3-3V26A3.009,3.009,0,0,0,33,23ZM25,33H9a1,1,0,0,1-1-1V26a1,1,0,0,1,1-1H25Zm9-1a1,1,0,0,1-1,1H27V25h6a1,1,0,0,1,1,1Z"></path></g></svg>