<svg xmlns="http://www.w3.org/2000/svg" viewBox="0 0 64 64" x="0px" y="0px"><g><path d="M62.115,19.5l-3-5.2a1,1,0,0,0-1.366-.366l-3.465,2a1,1,0,0,0-.366,1.366h0l-7.747,4.473-9.891,4.8-.783-.447A1.007,1.007,0,0,0,35,26H31V23a1,1,0,0,0-1-1H14a1,1,0,0,0-1,1v3H10a1,1,0,0,0-.753.342l-7,8v0c-.006.007-.009.015-.015.022a.993.993,0,0,0-.22.493,9.941,9.941,0,0,0,0,.282.99.99,0,0,0,.22.492c.006.007.009.016.015.023v0l7,8A1,1,0,0,0,10,44v2H3a1,1,0,0,0-1,1v4a1,1,0,0,0,1,1H5v3a1,1,0,0,0,1,1h6a1,1,0,0,0,1-1V52H51v3a1,1,0,0,0,1,1h6a1,1,0,0,0,1-1V52h2a1,1,0,0,0,1-1V47a1,1,0,0,0-1-1H40V44a1,1,0,0,0,.664-.253l9-8a147.5,147.5,0,0,1,.177-.213,1.03,1.03,0,0,0,.09-.2c.01-.028.028-.051.036-.08v-.011a1.009,1.009,0,0,0,.029-.31.855.855,0,0,0-.022-.1,1,1,0,0,0-.04-.188l-.009-.015a.894.894,0,0,0-.059-.1.98.98,0,0,0-.1-.164,1.046,1.046,0,0,0-.084-.079,1.022,1.022,0,0,0-.154-.126c-.012-.007-.019-.018-.031-.025L43.578,30.75l5.532-3.744L49.124,27l7.794-4.5a1,1,0,0,0,1.366.366l3.465-2a1,1,0,0,0,.366-1.366Zm-7.2-.464.5.866.5.866-6.928,4-1-1.732ZM24,28h6v2H24Zm-9-4H29v2H15Zm-1,4h4v2H14ZM11,54H7V52h4Zm46,0H53V52h4Zm3-4H4V48H60ZM38,46H12V44H38Zm1.62-4H10.454L5.2,36H46.37ZM5.2,34l5.25-6H12v3a1,1,0,0,0,1,1h6a1,1,0,0,0,1-1V28h2v3a1,1,0,0,0,1,1h8a1,1,0,0,0,1-1V28h2.734l1,.573.006,0L45.236,34Zm36.442-4.356-2.818-1.608-.445-.255,7.837-3.8,1.068,1.848Zm16.5-9.01-2-3.464,1.733-1,2,3.464Z"></path></g></svg>