<svg xmlns="http://www.w3.org/2000/svg" viewBox="0 0 64 64" x="0px" y="0px"><g data-name="Mobile Marketing"><path d="M46,32a8.013,8.013,0,0,0-7-7.938V39.938A8.013,8.013,0,0,0,46,32Z"></path><path d="M57,28H53.192a1,1,0,0,1-.95-.688,14.863,14.863,0,0,0-.861-2.063,1,1,0,0,1,.185-1.158l2.7-2.7-5.658-5.658-2.7,2.7a1,1,0,0,1-1.158.185,14.863,14.863,0,0,0-2.063-.861,1,1,0,0,1-.688-.95V13H39v9.051a10,10,0,0,1,0,19.9V51h3V47.192a1,1,0,0,1,.688-.95,14.863,14.863,0,0,0,2.063-.861,1,1,0,0,1,1.158.185l2.7,2.7,5.658-5.658-2.7-2.7a1,1,0,0,1-.185-1.158,14.863,14.863,0,0,0,.861-2.063,1,1,0,0,1,.95-.688H57Z"></path><path d="M22,24a8,8,0,1,0,8,8A8.009,8.009,0,0,0,22,24Zm-4,9H16V31h2Zm4-2a2.993,2.993,0,0,1,1,5.816V38H21V36.816A3,3,0,0,1,19,34h2a1,1,0,1,0,1-1,2.993,2.993,0,0,1-1-5.816V26h2v1.184A3,3,0,0,1,25,30H23a1,1,0,1,0-1,1Zm6,2H26V31h2Z"></path><path d="M37,54H7v3a3,3,0,0,0,3,3H34a3,3,0,0,0,3-3ZM23,58H21V56h2Z"></path><path d="M37,12H7V52H37ZM22,42A10,10,0,1,1,32,32,10.011,10.011,0,0,1,22,42Z"></path><path d="M37,7a3,3,0,0,0-3-3H10A3,3,0,0,0,7,7v3H37ZM16,8H14V6h2Zm4,0H18V6h2Z"></path></g></svg>