<svg xmlns="http://www.w3.org/2000/svg" viewBox="0 0 64 64" x="0px" y="0px"><g data-name="Data Analytics"><path d="M13,12a3,3,0,1,0-3-3A3,3,0,0,0,13,12Zm0-4a1,1,0,1,1-1,1A1,1,0,0,1,13,8Z"></path><rect x="32" y="8" width="2" height="2"></rect><rect x="28" y="8" width="2" height="2"></rect><rect x="24" y="8" width="2" height="2"></rect><rect x="20" y="8" width="2" height="2"></rect><path d="M16,21a3,3,0,1,0-3,3A3,3,0,0,0,16,21Zm-4,0a1,1,0,1,1,1,1A1,1,0,0,1,12,21Z"></path><rect x="32" y="20" width="2" height="2"></rect><rect x="28" y="20" width="2" height="2"></rect><rect x="24" y="20" width="2" height="2"></rect><rect x="20" y="20" width="2" height="2"></rect><path d="M59,24H42V9a1,1,0,0,0-1-1H38V5a3,3,0,0,0-3-3H9A3,3,0,0,0,6,5V8H3A1,1,0,0,0,2,9V33a1,1,0,0,0,1,1H6v3a3,3,0,0,0,3,3h5V59a3,3,0,0,0,3,3H59a3,3,0,0,0,3-3V27A3,3,0,0,0,59,24Zm1,3v5H16V27a1,1,0,0,1,1-1H59A1,1,0,0,1,60,27ZM8,25V17a1,1,0,0,1,1-1H35a1,1,0,0,1,1,1v7H17a3,3,0,0,0-2.816,2H9A1,1,0,0,1,8,25Zm30-1V22h2v2Zm2-14V20H38V17a2.981,2.981,0,0,0-.78-2A2.981,2.981,0,0,0,38,13V10ZM8,5A1,1,0,0,1,9,4H35a1,1,0,0,1,1,1v8a1,1,0,0,1-1,1H9a1,1,0,0,1-1-1ZM4,10H6v3a2.981,2.981,0,0,0,.78,2A2.981,2.981,0,0,0,6,17v3H4ZM4,32V22H6v3a2.981,2.981,0,0,0,.78,2A2.981,2.981,0,0,0,6,29v3Zm5,6a1,1,0,0,1-1-1V29a1,1,0,0,1,1-1h5v2.184A2.966,2.966,0,0,0,13,30a3,3,0,0,0,0,6,2.966,2.966,0,0,0,1-.184V38Zm5-5a1,1,0,1,1-1-1A1,1,0,0,1,14,33ZM59,60H17a1,1,0,0,1-1-1V34H60V59A1,1,0,0,1,59,60Z"></path><rect x="18" y="28" width="2" height="2"></rect><rect x="22" y="28" width="2" height="2"></rect><rect x="26" y="28" width="2" height="2"></rect><path d="M36,45a8,8,0,1,0-8,8,1,1,0,0,0,1-1V46h6A1,1,0,0,0,36,45Zm-8-1a1,1,0,0,0-1,1v5.917A6,6,0,1,1,33.917,44Z"></path><path d="M38,47H31a1,1,0,0,0-1,1v7a1,1,0,0,0,1,1,8.009,8.009,0,0,0,8-8A1,1,0,0,0,38,47Zm-6,6.917V49h4.917A6.017,6.017,0,0,1,32,53.917Z"></path><rect x="18" y="52" width="4" height="2"></rect><rect x="18" y="56" width="4" height="2"></rect><path d="M38.293,38.293l-2,2,1.414,1.414L39.414,40H42V38H39A1,1,0,0,0,38.293,38.293Z"></path><rect x="44" y="38" width="4" height="2"></rect><rect x="44" y="42" width="4" height="2"></rect><rect x="44" y="52" width="14" height="2"></rect><rect x="44" y="48" width="4" height="2"></rect><rect x="50" y="48" width="8" height="2"></rect></g></svg>