<svg xmlns="http://www.w3.org/2000/svg" viewBox="0 0 64 64" x="0px" y="0px"><g><polygon points="56.36 30.65 52.85 31.5 54.99 34.4 59.69 36.11 61.06 32.36 56.36 30.65"></polygon><polygon points="3 27 3 31 8 31 11 29 8 27 3 27"></polygon><path d="M38.88,34H25.12a15.727,15.727,0,0,0,.37,2H38.51A15.727,15.727,0,0,0,38.88,34Z"></path><path d="M32,43c2.45,0,4.61-1.99,5.86-5H26.14C27.39,41.01,29.55,43,32,43Z"></path><path d="M38.31,27.27l-3.65-1.33.68-1.88,1.91.7C35.97,22.46,34.09,21,32,21c-2.96,0-5.49,2.91-6.51,7H30v2H25.12A18.682,18.682,0,0,0,25,32H39A16.129,16.129,0,0,0,38.31,27.27Z"></path><path d="M21,31.43v1.14a34.849,34.849,0,0,0,6.41,20.19L32,59.27l4.59-6.51A34.849,34.849,0,0,0,43,32.57V31.43c0-.84-.04-1.66-.09-2.49l-2.33-.84A18.21,18.21,0,0,1,41,32c0,7.17-4.04,13-9,13s-9-5.83-9-13a18.682,18.682,0,0,1,.12-2H21.05C21.04,30.48,21,30.95,21,31.43ZM30,47h4v2H30Z"></path><path d="M42.67,26.73a34.8,34.8,0,0,0-6.08-15.49L32,4.73l-4.59,6.51A34.722,34.722,0,0,0,21.19,28h2.25C24.61,22.78,28,19,32,19c3.38,0,6.33,2.71,7.87,6.71ZM34,17H30V15h4Z"></path><path d="M15.13,28A3.657,3.657,0,0,0,15,29a3.708,3.708,0,0,0,.13,1H9V28Z"></path><path d="M56.2,31.56l-.69,1.88L48.52,30.9a3.323,3.323,0,0,0,.36-.95A3.865,3.865,0,0,0,49,29v-.06Z"></path><path d="M45,31c-.012-.965-.063-1.93-.152-2.874Q44.8,27.568,44.731,27H45a2,2,0,0,1,2,2,1.781,1.781,0,0,1-.058.45,1.953,1.953,0,0,1-.529.963A1.983,1.983,0,0,1,45,31Z"></path><path d="M19,31a2,2,0,0,1,0-4h.268c-.079.644-.138,1.293-.176,1.94-.05.68-.08,1.373-.089,2.06Z"></path></g></svg>