<svg xmlns="http://www.w3.org/2000/svg" viewBox="0 0 64 64" x="0px" y="0px"><g><path d="M57,2H7A5.006,5.006,0,0,0,2,7V57a5.006,5.006,0,0,0,5,5H57a5.006,5.006,0,0,0,5-5V7A5.006,5.006,0,0,0,57,2ZM7,4H57a3,3,0,0,1,3,3v3H4V7A3,3,0,0,1,7,4ZM57,60H7a3,3,0,0,1-3-3V12H60V57A3,3,0,0,1,57,60Z"></path><rect x="8" y="6" width="2" height="2"></rect><rect x="12" y="6" width="2" height="2"></rect><rect x="16" y="6" width="2" height="2"></rect><rect x="22" y="6" width="24" height="2"></rect><path d="M23,32.791V27.816A2.993,2.993,0,0,0,22,22H16a2.993,2.993,0,0,0-1,5.816v4.975L10.535,43a5,5,0,0,0,4.581,7h7.768a5,5,0,0,0,4.581-7ZM17,33V28h4v5a.983.983,0,0,0,.084.4l.967,2.211c-.22-.019-.455-.031-.721-.031a6.874,6.874,0,0,0-2.668.479,5.02,5.02,0,0,1-2,.361,5.567,5.567,0,0,1-1.028-.086L16.916,33.4A.983.983,0,0,0,17,33Zm-1-9h6a1,1,0,0,1,0,2H16a1,1,0,0,1,0-2Zm9.4,22.642A2.954,2.954,0,0,1,22.884,48H15.116a3,3,0,0,1-2.749-4.2l2.447-5.591a7.126,7.126,0,0,0,1.846.214,6.911,6.911,0,0,0,2.679-.48,4.987,4.987,0,0,1,1.991-.36,4.827,4.827,0,0,1,1.7.261L25.633,43.8A2.955,2.955,0,0,1,25.4,46.642Z"></path><path d="M31.293,21.293l-5,5,1.414,1.414L32.414,23H36V21H32A1,1,0,0,0,31.293,21.293Z"></path><rect x="38" y="21" width="4" height="2"></rect><rect x="44" y="21" width="6" height="2"></rect><rect x="38" y="24" width="12" height="2"></rect><rect x="30" y="42" width="6" height="2"></rect><rect x="38" y="42" width="4" height="2"></rect><rect x="44" y="42" width="6" height="2"></rect><rect x="38" y="45" width="12" height="2"></rect><rect x="15" y="42" width="2" height="2"></rect><rect x="20" y="44" width="2" height="2"></rect><rect x="20" y="40" width="2" height="2"></rect></g></svg>