<svg xmlns="http://www.w3.org/2000/svg" viewBox="0 0 64 64" x="0px" y="0px"><g><path d="M24,56V52a1,1,0,0,1,1-1h3V49H25a1,1,0,0,1-1-1V46H22v2a1,1,0,0,1-1,1H18v2h3a1,1,0,0,1,1,1v4Z"></path><path d="M32,14.57V13c-.15-.54-3.15-2-9-2s-8.84,1.46-9,2.01v1.56C16.13,13.5,19.64,13,23,13S29.87,13.5,32,14.57Z"></path><path d="M45,58H38v2h9.83A3.014,3.014,0,0,0,45,58Z"></path><path d="M14,22a9,9,0,0,0,18,0V17.01c-.17-.56-3.17-2.01-9-2.01s-8.84,1.46-9,2.01Zm13-5a2,2,0,1,1-2,2A2,2,0,0,1,27,17Zm-2.016,7.25,1.323,1.5a5,5,0,0,1-6.614,0l1.323-1.5A3.076,3.076,0,0,0,24.984,24.25ZM19,17a2,2,0,1,1-2,2A2,2,0,0,1,19,17Z"></path><path d="M4,46.88V60H36V44.12a22.211,22.211,0,0,1-6.55,3A.986.986,0,0,1,30,48v4a1,1,0,0,1-1,1H26v4a1,1,0,0,1-1,1H21a1,1,0,0,1-1-1V53H17a1,1,0,0,1-1-1V48a.974.974,0,0,1,.54-.87,21.278,21.278,0,0,1-9.81-5.79A6.988,6.988,0,0,0,4,46.88Z"></path><path d="M37.83,22.1a4.142,4.142,0,0,1-1,1.73A4,4,0,0,1,34,25h-.43A11.026,11.026,0,0,1,28,31.79v3.47l9.69,3.04a7.835,7.835,0,0,1,.85.32Z"></path><path d="M8.17,22.1a4.142,4.142,0,0,0,1,1.73A4,4,0,0,0,12,25h.43A11.026,11.026,0,0,0,18,31.79v3.47L8.31,38.3a7.835,7.835,0,0,0-.85.32Z"></path><path d="M50.17,60H60V58H53A3.014,3.014,0,0,0,50.17,60Z"></path><path d="M60,42H53a3.009,3.009,0,0,0-3,3V57.03A4.924,4.924,0,0,1,53,56h7Zm-2,7H56v4H54V49H52V47h2V45h2v2h2Z"></path><path d="M27.08,37.07l-.38-.12A.987.987,0,0,1,26,36V32.57a10.68,10.68,0,0,1-6,0V36a.987.987,0,0,1-.7.95l-.38.12L23,43.2Z"></path><path d="M37.65,18.03a14.663,14.663,0,0,0-29.3,0l-.07,1.52A4.01,4.01,0,0,1,12,17V13c0-2.75,5.7-4,11-4s11,1.25,11,4v4a4.01,4.01,0,0,1,3.72,2.55Z"></path><path d="M10.59,22.41A1.983,1.983,0,0,0,12,23V19a2.006,2.006,0,0,0-2,2A1.983,1.983,0,0,0,10.59,22.41Z"></path><path d="M35.41,22.41A1.983,1.983,0,0,0,36,21a2.006,2.006,0,0,0-2-2v3c0,.34-.02.67-.05,1H34A1.983,1.983,0,0,0,35.41,22.41Z"></path><path d="M45,42H38V56h7a4.924,4.924,0,0,1,3,1.03V45A3.009,3.009,0,0,0,45,42Zm1,12H40V52h6Zm0-4H40V48h6Zm0-4H40V44h6Z"></path><path d="M36,41a1,1,0,0,1,.66-.93l-7.59-2.38L24.87,44H25a1,1,0,0,1,1,1v.79a20.509,20.509,0,0,0,10-4.15Z"></path><path d="M8.91,40.2a3.879,3.879,0,0,0-.36.15A19.947,19.947,0,0,0,20,45.77V45a1,1,0,0,1,1-1h.13l-4.2-6.31Z"></path></g></svg>