<svg xmlns="http://www.w3.org/2000/svg" viewBox="0 0 64 64" x="0px" y="0px"><title>Music-Song-Book</title><g><path d="M15,12H53V38h2V3a1,1,0,0,0-1-1H14A5.006,5.006,0,0,0,9,7V57a5.006,5.006,0,0,0,5,5H40V60H15ZM13,59.816A3,3,0,0,1,11,57V10.974a4.954,4.954,0,0,0,2,.925ZM11,7a3,3,0,0,1,3-3H53V6H15V8H53v2H14A3,3,0,0,1,11,7Z"></path><path d="M20,16a1,1,0,0,0-1,1V27a1,1,0,0,0,1,1H48a1,1,0,0,0,1-1V17a1,1,0,0,0-1-1ZM47,26H21V18H47Z"></path><path d="M49,40A11,11,0,1,0,60,51,11.013,11.013,0,0,0,49,40Zm0,20a9,9,0,1,1,9-9A9.011,9.011,0,0,1,49,60Z"></path><path d="M54.447,50.105l-8-4A1,1,0,0,0,45,47v8a1,1,0,0,0,1.447.9l8-4a1,1,0,0,0,0-1.79ZM47,53.382V48.618L51.764,51Z"></path></g></svg>