<svg xmlns="http://www.w3.org/2000/svg" viewBox="0 0 64 64" x="0px" y="0px"><g data-name="Sleeveless-Clothes"><path d="M22,4V15a9.013,9.013,0,0,1-8,8.945V60H50V23.945c-.221-.025-.438-.064-.655-.1-.055-.01-.111-.015-.166-.027-.283-.058-.561-.13-.833-.214-.079-.025-.153-.056-.23-.083-.193-.065-.385-.131-.571-.209-.1-.042-.2-.091-.292-.136-.159-.073-.318-.145-.471-.227-.1-.055-.2-.117-.3-.176-.142-.082-.283-.165-.419-.255-.1-.066-.2-.138-.3-.209-.129-.092-.258-.186-.381-.285-.1-.077-.189-.158-.281-.239-.118-.1-.235-.206-.347-.315-.089-.086-.175-.175-.261-.265-.107-.112-.212-.226-.313-.344-.081-.094-.16-.19-.238-.288q-.144-.183-.279-.374c-.072-.1-.143-.2-.211-.308-.085-.131-.165-.265-.244-.4-.062-.108-.124-.215-.182-.325-.074-.141-.141-.285-.207-.431-.052-.111-.1-.222-.15-.336-.062-.151-.116-.306-.17-.462-.039-.114-.081-.226-.116-.342-.05-.165-.089-.334-.13-.5-.026-.111-.057-.22-.08-.333-.037-.19-.063-.384-.088-.578-.013-.1-.031-.19-.041-.287C42.016,15.6,42,15.3,42,15V4H40V15a7.008,7.008,0,0,1-7,7H31a7.008,7.008,0,0,1-7-7V4Z"></path><path d="M31,20h2a5.006,5.006,0,0,0,5-5V4H26V15A5.006,5.006,0,0,0,31,20Z"></path></g></svg>