<svg xmlns="http://www.w3.org/2000/svg" viewBox="0 0 64 64" x="0px" y="0px"><g data-name="Shopping-Hand Shake"><path d="M13,39H11V57.7L8.832,54.445a1.039,1.039,0,0,0-1.664,0L5,57.7V20.3l2.168,3.252a1,1,0,0,0,1.664,0L11,20.3V31h2V18h4v2.184a3,3,0,1,0,2,0V18H35v2.184a3,3,0,1,0,2,0V18h4V28h2V17a1,1,0,0,0-1-1H37V12A9.982,9.982,0,0,0,22,3.353,9.982,9.982,0,0,0,7,12v4H4a1,1,0,0,0-1,1V61a1,1,0,0,0,1,1H33V60H13Zm5-15a1,1,0,1,1,1-1A1,1,0,0,1,18,24Zm18,0a1,1,0,1,1,1-1A1,1,0,0,1,36,24ZM8,56.8,10.132,60H5.868ZM8,21.2,5.868,18h4.264ZM22,5.765A7.984,7.984,0,0,1,25,12v4H19V12A7.984,7.984,0,0,1,22,5.765ZM27,4a8.009,8.009,0,0,1,8,8v4H27V12a9.965,9.965,0,0,0-3.212-7.322A7.953,7.953,0,0,1,27,4ZM9,12A7.991,7.991,0,0,1,20.212,4.678,9.965,9.965,0,0,0,17,12v4H9Z"></path><path d="M62.163,37.95,49.435,25.222a1.029,1.029,0,0,0-1.414,0l-5.657,5.657a1,1,0,0,0,0,1.414l.707.707-1.91,1.91-1.532.305-2.922-2.922A1,1,0,0,0,36,32H32.171l-1.828-1.828h0a1,1,0,0,0,0-1.414L24.686,23.1a1,1,0,0,0-1.414,0L11.958,34.414a1,1,0,0,0,0,1.414l5.657,5.657a1,1,0,0,0,1.414,0h0l2.122,2.121,4.371,4.372a2.977,2.977,0,0,0,2.545,4.271A2.955,2.955,0,0,0,30.9,55.077,2.952,2.952,0,0,0,33.724,57.9a2.994,2.994,0,0,0,5.1,1.964l1.063,1.063A2.988,2.988,0,0,0,45,58.965a2.953,2.953,0,0,0,2.828-2.83,2.954,2.954,0,0,0,2.829-2.826,2.972,2.972,0,0,0,1.965-.864,3,3,0,0,0,0-4.242l-1.058-1.058.708-.707c.006-.006.008-.015.014-.021l2.1-2.1.707.708a1,1,0,0,0,1.414,0l5.657-5.657a1,1,0,0,0,0-1.414ZM14.08,35.121l9.9-9.9,4.243,4.243-9.9,9.9Zm14.849-3.535L30.343,33l-8.485,8.485-1.415-1.414ZM32.171,34h3.415l7.838,7.839a1,1,0,1,1-1.414,1.414l-4.242-4.242a1,1,0,0,0-1.414,0,3,3,0,0,1-4.243,0L30.7,40.425a4.989,4.989,0,0,0,1.23.885l-5.12,5.125L23.272,42.9ZM36.7,58.74a.993.993,0,0,1-.714-1.687L36,57.042l2.055-2.055.771-.769v0l0,0L37.414,52.8l-.773.773-2.062,2.055-.009.011a1,1,0,0,1-1.4-1.425L36,51.385l-1.414-1.414L31.757,52.8a1.021,1.021,0,0,1-1.414,0,1,1,0,0,1,0-1.414l2.828-2.828-1.414-1.414-2.828,2.828a1,1,0,1,1-1.414-1.414L34.2,41.869a4.982,4.982,0,0,0,2.793-.808L40.6,44.667a3,3,0,1,0,4.243-4.242l-3.51-3.51h0l8.815,8.815-.312.312a3.052,3.052,0,0,0-2.873.746,2.968,2.968,0,0,0-.864,1.966,2.955,2.955,0,0,0-2.828,2.828,2.957,2.957,0,0,0-2.831,2.857,2.923,2.923,0,0,0-2.731,3.72l-.293.293A.993.993,0,0,1,36.7,58.74Zm6.018.777a1,1,0,0,1-1.415,0L39.889,58.1A1,1,0,0,1,41.3,56.688h0L42.718,58.1a1,1,0,0,1,0,1.414Zm2.828-2.829a1,1,0,0,1-1.414,0l-1.414-1.414a1,1,0,1,1,1.414-1.415l1.414,1.414A1,1,0,0,1,45.546,56.688Zm2.829-2.829a1,1,0,0,1-1.415,0l-1.414-1.414a1,1,0,0,1,1.414-1.414l1.414,1.414a1,1,0,0,1,0,1.414ZM51.2,51.031a1.02,1.02,0,0,1-1.413,0l-1.414-1.414A1,1,0,1,1,49.789,48.2L51.2,49.617A1,1,0,0,1,51.2,51.031Zm.355-6.718-8.485-8.486,1.413-1.413L52.971,42.9ZM55.8,42.9,44.485,31.586l4.243-4.243L60.042,38.657Z"></path><path d="M42.293,12.707l1.414-1.414L42.414,10H55V27h2V9a1,1,0,0,0-1-1H42.414l1.293-1.293L42.293,5.293l-3,3a1,1,0,0,0,0,1.414Z"></path><rect x="59" y="25" width="2" height="2"></rect><rect x="59" y="21" width="2" height="2"></rect><rect x="59" y="17" width="2" height="2"></rect></g></svg>