<svg xmlns="http://www.w3.org/2000/svg" viewBox="0 0 64 64" x="0px" y="0px"><rect x="29" y="10" width="2" height="2"></rect><rect x="15.565" y="15.565" width="2" height="2" transform="translate(-6.861 16.573) rotate(-45.02)"></rect><rect x="10" y="29" width="2" height="2"></rect><rect x="15.565" y="42.435" width="2" height="2" transform="translate(-25.855 24.42) rotate(-44.98)"></rect><rect x="29" y="48" width="2" height="2"></rect><rect x="48" y="29" width="2" height="2"></rect><rect x="42.435" y="15.565" width="2" height="2" transform="translate(1.002 35.55) rotate(-44.98)"></rect><path d="M33.535,29.293,31,26.757V15H29V26.757L26.758,29H17v2h9.758l2.535,2.536a1,1,0,0,0,1.414,0l2.828-2.829A1,1,0,0,0,33.535,29.293ZM30,31.414,28.586,30,30,28.586,31.414,30Z"></path><path d="M53.91,32.085c.06-.691.09-1.393.09-2.085A24,24,0,1,0,30,54a24.322,24.322,0,0,0,3.129-.2l-.258-1.984A22,22,0,1,1,52,30c0,.635-.027,1.279-.082,1.915Z"></path><path d="M30,56A26,26,0,1,1,56,30a26.518,26.518,0,0,1-.283,3.854l1.978.292A28.4,28.4,0,0,0,58,30,28,28,0,1,0,30,58a28.386,28.386,0,0,0,4.146-.3l-.292-1.979A26.231,26.231,0,0,1,30,56Z"></path><path d="M48,34A14,14,0,1,0,62,48,14.015,14.015,0,0,0,48,34Zm0,26A12,12,0,1,1,60,48,12.013,12.013,0,0,1,48,60Z"></path><rect x="39.515" y="47" width="16.971" height="2" transform="translate(-19.882 48) rotate(-45)"></rect><path d="M52,49a3,3,0,1,0,3,3A3,3,0,0,0,52,49Zm0,4a1,1,0,1,1,1-1A1,1,0,0,1,52,53Z"></path><path d="M44,47a3,3,0,1,0-3-3A3,3,0,0,0,44,47Zm0-4a1,1,0,1,1-1,1A1,1,0,0,1,44,43Z"></path></svg>