<svg xmlns="http://www.w3.org/2000/svg" viewBox="0 0 64 64" x="0px" y="0px"><g data-name="Email Maketing"><path d="M61,54H59V21a5.006,5.006,0,0,0-5-5H51v2h3a3,3,0,0,1,3,3V54H7V21a3,3,0,0,1,3-3h3V16H10a5.006,5.006,0,0,0-5,5V54H3a1,1,0,0,0-1,1v4a3,3,0,0,0,3,3H59a3,3,0,0,0,3-3V55A1,1,0,0,0,61,54ZM35.613,56l-.334,1H28.721l-.334-1ZM60,59a1,1,0,0,1-1,1H5a1,1,0,0,1-1-1V56H26.279l.772,2.316A1,1,0,0,0,28,59h8a1,1,0,0,0,.949-.684L37.721,56H60Z"></path><path d="M9,48v2H55V48H48.444A3.959,3.959,0,0,0,49,46a4.01,4.01,0,0,0-4.126-4A4,4,0,0,0,37,43h2a2,2,0,1,1,4,.02,1,1,0,0,0,1.349,1.092A1.8,1.8,0,0,1,45,44a2,2,0,0,1,0,4H19a2,2,0,0,1,0-4,1.8,1.8,0,0,1,.648.112A1.013,1.013,0,0,0,21,43a2,2,0,0,1,4,0h2a4,4,0,0,0-7.874-1A4.022,4.022,0,0,0,15,46a3.959,3.959,0,0,0,.556,2Z"></path><path d="M18,30H46a3,3,0,0,0,3-3V11a3,3,0,0,0-3-3H18a3,3,0,0,0-3,3V27A3,3,0,0,0,18,30Zm6.979-13.393L17,24.586V12.618ZM46,28H18a.994.994,0,0,1-.93-.656l9.794-9.794L31.553,19.9a1,1,0,0,0,.894,0l4.689-2.345,9.794,9.794A.994.994,0,0,1,46,28ZM39.021,16.607,47,12.618V24.586ZM18,10H46a.982.982,0,0,1,.825.469L32,17.882,17.175,10.469A.982.982,0,0,1,18,10Z"></path><path d="M27,37c0,2.448,3.525,6.794,4.232,7.641a1,1,0,0,0,1.536,0C33.475,43.794,37,39.448,37,37a5,5,0,0,0-10,0Zm8,0c0,1.073-1.57,3.529-3,5.4-1.431-1.866-3-4.322-3-5.4a3,3,0,0,1,6,0Z"></path><rect x="31" y="36" width="2" height="2"></rect><path d="M9,5.414V9h2V5.414l1.293,1.293,1.414-1.414-3-3a1,1,0,0,0-1.414,0l-3,3L7.707,6.707Z"></path><rect x="9" y="11" width="2" height="2"></rect><path d="M53,5.414V9h2V5.414l1.293,1.293,1.414-1.414-3-3a1,1,0,0,0-1.414,0l-3,3,1.414,1.414Z"></path><rect x="53" y="11" width="2" height="2"></rect><rect x="45" y="32" width="2" height="4"></rect><rect x="45" y="38" width="2" height="2"></rect><rect x="17" y="32" width="2" height="4"></rect><rect x="17" y="38" width="2" height="2"></rect><rect x="51" y="26" width="2" height="4"></rect><rect x="51" y="32" width="2" height="2"></rect><rect x="11" y="26" width="2" height="4"></rect><rect x="11" y="32" width="2" height="2"></rect></g></svg>