<svg xmlns="http://www.w3.org/2000/svg" viewBox="0 0 64 64" x="0px" y="0px"><g><path d="M38,33a7,7,0,1,0,7,7A7.008,7.008,0,0,0,38,33Zm0,12a5,5,0,1,1,5-5A5.006,5.006,0,0,1,38,45Z"></path><path d="M31,27v5.871a10,10,0,1,0,14,0V27a5.006,5.006,0,0,0-5-5H36A5.006,5.006,0,0,0,31,27ZM46,40a8,8,0,1,1-8-8A8.009,8.009,0,0,1,46,40ZM43,27v4.353a9.915,9.915,0,0,0-10,0V27a3,3,0,0,1,3-3h4A3,3,0,0,1,43,27Z"></path><polygon points="36 39 37 39 37 43 39 43 39 39 40 39 40 37 36 37 36 39"></polygon><polygon points="53 10 55 10 55 8 57 8 57 6 55 6 55 4 53 4 53 6 51 6 51 8 53 8 53 10"></polygon><rect x="46" y="12" width="6" height="2"></rect><rect x="51" y="16" width="6" height="2"></rect><polygon points="53 54 51 54 51 56 49 56 49 58 51 58 51 60 53 60 53 58 55 58 55 56 53 56 53 54"></polygon><rect x="18" y="11" width="2" height="2"></rect><rect x="22" y="11" width="2" height="2"></rect><rect x="26" y="11" width="2" height="2"></rect><rect x="30" y="11" width="2" height="2"></rect><path d="M58,36A20.035,20.035,0,0,0,44,16.922V7a5.006,5.006,0,0,0-5-5H11A5.006,5.006,0,0,0,6,7V57a5.006,5.006,0,0,0,5,5H39a5.006,5.006,0,0,0,5-5V55.078A20.035,20.035,0,0,0,58,36Zm-2,0A18,18,0,1,1,38,18,18.021,18.021,0,0,1,56,36ZM18,4H32V6a1,1,0,0,1-1,1H19a1,1,0,0,1-1-1ZM42,57a3,3,0,0,1-3,3H11a3,3,0,0,1-3-3V7a3,3,0,0,1,3-3h5V6a3,3,0,0,0,3,3H31a3,3,0,0,0,3-3V4h5a3,3,0,0,1,3,3v9.4A20,20,0,1,0,42,55.6Z"></path><rect x="22.216" y="17.381" width="2" height="2" transform="translate(-6.383 19.223) rotate(-39.999)"></rect><rect x="19.381" y="20.216" width="2" height="2" transform="translate(-8.972 23.197) rotate(-50.012)"></rect><rect x="17.081" y="23.5" width="2" height="2" transform="translate(-12.177 27.908) rotate(-59.998)"></rect><rect x="15.387" y="27.134" width="1.999" height="2" transform="translate(-15.655 33.909) rotate(-69.999)"></rect><rect x="14.35" y="31.006" width="2" height="2" transform="translate(-18.835 41.567) rotate(-80.004)"></rect><rect x="14" y="35" width="2" height="2"></rect><rect x="14.35" y="38.994" width="2" height="2" transform="translate(-6.709 3.271) rotate(-9.996)"></rect><rect x="15.387" y="42.867" width="2" height="1.999" transform="translate(-14.019 8.253) rotate(-20.006)"></rect><rect x="17.081" y="46.5" width="2" height="2" transform="translate(-21.329 15.406) rotate(-30.002)"></rect><rect x="19.381" y="49.784" width="2" height="2" transform="translate(-27.87 24.972) rotate(-39.988)"></rect><rect x="22.216" y="52.619" width="2" height="2" transform="translate(-32.785 36.949) rotate(-50.012)"></rect><rect x="25.5" y="54.919" width="2" height="2" transform="translate(-35.177 50.915) rotate(-60.005)"></rect></g></svg>