<svg xmlns="http://www.w3.org/2000/svg" viewBox="0 0 64 64" x="0px" y="0px"><title>Flight-Plane-Aeroplane</title><g><path d="M61.991,30.939a.854.854,0,0,0-.016-.113.993.993,0,0,0-.1-.291.974.974,0,0,0-.116-.169.933.933,0,0,0-.064-.077.985.985,0,0,0-.235-.173l-.015-.011-12-6a1,1,0,0,0-.535-.1c-.013,0-.024-.009-.037-.009H44.462L27.762,4.353A1,1,0,0,0,27,4H19a1,1,0,0,0-.819,1.573L31.079,24H15.414L7.707,16.293A1,1,0,0,0,7,16H3a1,1,0,0,0-1,1V32a1,1,0,0,0,.551.894l13.936,7a1.012,1.012,0,0,0,.449.106H31.079l-12.9,18.427A1,1,0,0,0,19,60h8a1,1,0,0,0,.762-.353L44.462,40H59a3,3,0,0,0,3-3V31C62,30.979,61.993,30.96,61.991,30.939ZM50,26.672,56.724,30H50ZM20.92,6h5.618l15.3,18H33.521ZM4,18H6.586l5.967,5.967L4,24ZM26.538,58H20.92l12.6-18h8.316ZM59,38H17.172L4,31.383V26H48v5a1,1,0,0,0,1,1H60v5A1,1,0,0,1,59,38Z"></path><rect x="43" y="28" width="2" height="2"></rect><rect x="39" y="28" width="2" height="2"></rect><rect x="35" y="28" width="2" height="2"></rect><rect x="31" y="28" width="2" height="2"></rect><rect x="27" y="28" width="2" height="2"></rect><rect x="23" y="28" width="2" height="2"></rect><rect x="19" y="28" width="2" height="2"></rect><rect x="15" y="28" width="2" height="2"></rect><rect x="8" y="4" width="8" height="2"></rect><rect x="4" y="4" width="2" height="2"></rect><rect x="10" y="8" width="8" height="2"></rect><rect x="6" y="8" width="2" height="2"></rect><rect x="12" y="12" width="8" height="2"></rect><rect x="8" y="12" width="2" height="2"></rect><rect x="8" y="58" width="8" height="2"></rect><rect x="4" y="58" width="2" height="2"></rect><rect x="10" y="54" width="8" height="2"></rect><rect x="6" y="54" width="2" height="2"></rect><rect x="12" y="50" width="8" height="2"></rect><rect x="8" y="50" width="2" height="2"></rect></g></svg>