<svg xmlns="http://www.w3.org/2000/svg" viewBox="0 0 64 64" x="0px" y="0px"><g data-name="Working-Book-Laptop-Time Management-Clock"><path d="M48,35a3,3,0,1,0-3-3A3,3,0,0,0,48,35Zm0-4a1,1,0,1,1-1,1A1,1,0,0,1,48,31Z"></path><path d="M17,28A11,11,0,1,0,6,17,11.013,11.013,0,0,0,17,28ZM8.059,16a8.956,8.956,0,0,1,1.916-4.611l1.368,1.368,1.414-1.414L11.389,9.975A8.956,8.956,0,0,1,16,8.059V10h2V8.059a8.956,8.956,0,0,1,4.611,1.916l-1.368,1.368,1.414,1.414,1.368-1.368A8.956,8.956,0,0,1,25.941,16H24v2h1.941a8.956,8.956,0,0,1-1.916,4.611l-1.368-1.368-1.414,1.414,1.368,1.368A8.956,8.956,0,0,1,18,25.941V24H16v1.941a8.956,8.956,0,0,1-4.611-1.916l1.368-1.368-1.414-1.414L9.975,22.611A8.956,8.956,0,0,1,8.059,18H10V16Z"></path><path d="M17.707,17.707A1,1,0,0,0,18,17V12H16v4.586l-1.707,1.707,1.414,1.414Z"></path><path d="M17,32A15,15,0,1,0,2,17,15.017,15.017,0,0,0,17,32ZM17,4A13,13,0,1,1,4,17,13.015,13.015,0,0,1,17,4Z"></path><path d="M60,48h1a1,1,0,0,0,1-1V43a1,1,0,0,0-1-1H59.08a3.923,3.923,0,0,0,.15-.59l2.45-18A3,3,0,0,0,58.71,20H35.75a3.024,3.024,0,0,0-2.98,2.59L30.67,38H17a1,1,0,0,0-1,1v2a3,3,0,0,0,.18,1H11a9,9,0,0,0,0,18h5v1a.987.987,0,0,0,.62.92,1,1,0,0,0,1.09-.21L19.41,60h1.18l1.7,1.71A1.007,1.007,0,0,0,23,62a.838.838,0,0,0,.38-.08A.987.987,0,0,0,24,61V60H61a1,1,0,0,0,1-1V55a1,1,0,0,0-1-1H60a3,3,0,0,1,0-6ZM58.71,22a.981.981,0,0,1,.75.34,1,1,0,0,1,.24.8L57.25,41.13a1.012,1.012,0,0,1-1,.87H36.15l2.72-20Zm-23.96.87a1.012,1.012,0,0,1,1-.87h1.1L34.13,42H32.15ZM18,40H30.4l-.27,2H19a1,1,0,0,1-1-1ZM12,58H11a7,7,0,1,1,0-14h1v2H11a5,5,0,0,0,0,10h1Zm4,0H14V56h2Zm6,.59-1.29-1.3a1.014,1.014,0,0,0-1.42,0L18,58.59V52h4ZM11,50v2h5v2H11a3,3,0,0,1,0-6H56.03a4.84,4.84,0,0,0-.93,2Zm45.03,4H24V52H55.1A4.84,4.84,0,0,0,56.03,54ZM60,56v2H24V56ZM14,46V44H60v2Z"></path></g></svg>