<svg xmlns="http://www.w3.org/2000/svg" viewBox="0 0 64 64" x="0px" y="0px"><path d="M57,16H46V7a5.006,5.006,0,0,0-5-5H23a5.006,5.006,0,0,0-5,5v9H7a5.006,5.006,0,0,0-5,5V59a3,3,0,0,0,3,3H59a3,3,0,0,0,3-3V21A5.006,5.006,0,0,0,57,16ZM40,6H24V4H40Zm0,2v8H24V8Zm6,14v2H40V22ZM44,7V20H42V4.171A3.006,3.006,0,0,1,44,7ZM24,22v2H18V22ZM22,4.171V20H20V7A3.006,3.006,0,0,1,22,4.171ZM37,52h2V50H37V48a2,2,0,0,0-2-2H29a2,2,0,0,0-2,2v2H25v2h2v2H9a1,1,0,0,1-1-1V33a3,3,0,0,1,3-3H53a3,3,0,0,1,3,3V53a1,1,0,0,1-1,1H37Zm-2-2H29V48h6Zm-6,2h6v8H29Zm31,7a1,1,0,0,1-1,1H37V56H55a3,3,0,0,0,3-3V33a5.006,5.006,0,0,0-5-5H11a5.006,5.006,0,0,0-5,5V53a3,3,0,0,0,3,3H27v4H5a1,1,0,0,1-1-1V21a3,3,0,0,1,3-3H18v2H17a1,1,0,0,0-1,1v4a1,1,0,0,0,1,1h8a1,1,0,0,0,1-1V21a1,1,0,0,0-1-1H24V18H40v2H39a1,1,0,0,0-1,1v4a1,1,0,0,0,1,1h8a1,1,0,0,0,1-1V21a1,1,0,0,0-1-1H46V18H57a3,3,0,0,1,3,3Z"></path></svg>