<svg xmlns="http://www.w3.org/2000/svg" viewBox="0 0 64 64" x="0px" y="0px"><g><rect x="12" y="26" width="2" height="2"></rect><rect x="16" y="26" width="2" height="2"></rect><rect x="20" y="26" width="2" height="2"></rect><path d="M59,12H40V5a3,3,0,0,0-3-3H5A3,3,0,0,0,2,5V37a3,3,0,0,0,3,3H8V59a3,3,0,0,0,3,3H49a3,3,0,0,0,3-3V50h7a3,3,0,0,0,3-3V15A3,3,0,0,0,59,12Zm1,3v3H26V15a1,1,0,0,1,1-1H59A1,1,0,0,1,60,15ZM50,30H10V25a1,1,0,0,1,1-1H49a1,1,0,0,1,1,1ZM5,4H37a1,1,0,0,1,1,1V8H4V5A1,1,0,0,1,5,4ZM5,38a1,1,0,0,1-1-1V10H38v2H27a3,3,0,0,0-3,3v7H11a3,3,0,0,0-3,3V38ZM49,60H11a1,1,0,0,1-1-1V32H50V59A1,1,0,0,1,49,60ZM59,48H52V25a3,3,0,0,0-3-3H26V20H60V47A1,1,0,0,1,59,48Z"></path><rect x="54" y="24" width="4" height="2"></rect><rect x="54" y="29" width="4" height="2"></rect><rect x="54" y="34" width="4" height="2"></rect><rect x="54" y="39" width="4" height="2"></rect><path d="M9,20H21a1,1,0,0,0,1-1V13a1,1,0,0,0-1-1H9a1,1,0,0,0-1,1v6A1,1,0,0,0,9,20Zm1-6H20v4H10Z"></path><path d="M46,34H14a1,1,0,0,0-1,1V47a1,1,0,0,0,1,1H46a1,1,0,0,0,1-1V35A1,1,0,0,0,46,34ZM15,36H45v8.132l-7.445-4.964a1,1,0,0,0-1.078-.02l-6.2,3.812L26.6,40.2a1,1,0,0,0-1.115-.057L15.723,46H15ZM31,46H19.61l6.328-3.8Zm1-1.75,4.98-3.062L44.2,46H34.333Z"></path><rect x="13" y="50" width="16" height="2"></rect><rect x="31" y="50" width="16" height="2"></rect><rect x="13" y="54" width="16" height="2"></rect><rect x="31" y="54" width="16" height="2"></rect></g></svg>