<svg xmlns="http://www.w3.org/2000/svg" viewBox="0 0 64 64" x="0px" y="0px"><g data-name="Car Lift"><circle cx="15" cy="45" r="2"></circle><circle cx="49" cy="45" r="2"></circle><rect x="56" y="22" width="4" height="2"></rect><polygon points="18.348 15.998 32 15.999 32 8 20.74 8 18.348 15.998"></polygon><path d="M4,30v1a1,1,0,0,0,1,1H8.08a6.991,6.991,0,0,1,13.84,0H32V18H18.34a1.994,1.994,0,0,1-1.905-2.587l2.4-7.991A1.99,1.99,0,0,1,20.74,6H41.562l-.279-.488A3,3,0,0,0,38.679,4H20.472a2.983,2.983,0,0,0-2.683,1.658L11.9,17.447a1,1,0,0,1-.771.545l-6.248.781A1,1,0,0,0,4,19.766V28H7v2ZM19,20h4v2H19Z"></path><path d="M48.918,18H34V32h8.08a6.991,6.991,0,0,1,13.84,0H59a1,1,0,0,0,1-1V30H57V28h3V26H56a2,2,0,0,1-2-2V22a2,2,0,0,1,2-2h3.707a.989.989,0,0,0-.542-.292ZM40,22H36V20h4Z"></path><polygon points="34 8 34 15.999 47.277 16 42.705 8 34 8"></polygon><path d="M15,28a5,5,0,1,0,5,5A5.006,5.006,0,0,0,15,28Zm1,6H14V32h2Z"></path><path d="M49,28a5,5,0,1,0,5,5A5.006,5.006,0,0,0,49,28Zm1,6H48V32h2Z"></path><path d="M33.65,49.94,32,51.59l-1.65-1.65A1.011,1.011,0,0,0,31,49V41a1.011,1.011,0,0,0-.65-.94L32,38.41l1.65,1.65A1.011,1.011,0,0,0,33,41v8A1.011,1.011,0,0,0,33.65,49.94Z"></path><path d="M28,42H6V40H27.58l-.29.29a1,1,0,0,0-.21,1.09A.987.987,0,0,0,28,42Z"></path><path d="M58,40v2H36a.987.987,0,0,0,.92-.62,1,1,0,0,0-.21-1.09L36.42,40Z"></path><polygon points="49 48.414 41.414 56 56.586 56 49 48.414"></polygon><polygon points="7.414 56 22.586 56 15 48.414 7.414 56"></polygon><rect x="6" y="58" width="52" height="2"></rect></g></svg>