<svg xmlns="http://www.w3.org/2000/svg" viewBox="0 0 64 64" x="0px" y="0px"><title>Record-Microphone-Book</title><g><path d="M60,55H33V54a3,3,0,0,1,3-3H57a1,1,0,0,0,1-1V35H56V49H36a4.967,4.967,0,0,0-3,1.012V18a3,3,0,0,1,3-3h2V13H36a5,5,0,0,0-4,2,5,5,0,0,0-4-2H7a1,1,0,0,0-1,1v5H3a1,1,0,0,0-1,1V56a1,1,0,0,0,1,1H61a1,1,0,0,0,1-1V33H60ZM8,15H28a3,3,0,0,1,3,3V50.012A4.967,4.967,0,0,0,28,49H8ZM4,21H6V50a1,1,0,0,0,1,1H28a3,3,0,0,1,3,3v1H4Z"></path><rect x="12" y="23" width="14" height="2"></rect><rect x="12" y="31" width="14" height="2"></rect><rect x="12" y="39" width="14" height="2"></rect><rect x="38" y="39" width="14" height="2"></rect><path d="M52,24.941V27H46v2H60V27H54V24.941A9.01,9.01,0,0,0,62,16H60a7,7,0,0,1-14,0H44A9.01,9.01,0,0,0,52,24.941Z"></path><path d="M53,21a5.006,5.006,0,0,0,5-5V12a5,5,0,0,0-10,0v4A5.006,5.006,0,0,0,53,21ZM53,9a3,3,0,0,1,2.816,2H54v2h2v2H54v2h1.816a2.982,2.982,0,0,1-5.632,0H52V15H50V13h2V11H50.184A3,3,0,0,1,53,9Z"></path></g></svg>