<svg xmlns="http://www.w3.org/2000/svg" viewBox="0 0 64 64" x="0px" y="0px"><g data-name="avatar-man-young-account-profile"><path d="M46.925,37.314,38.867,36.24A1,1,0,0,1,38,35.249V32.208A11,11,0,0,0,42.949,24H43a3.989,3.989,0,0,0,.342-7.965l1.106-6.62a4.966,4.966,0,0,0-3.325-5.56l-.856-.292a22.644,22.644,0,0,0-16.534,0l-.856.292a4.965,4.965,0,0,0-3.325,5.559l1.106,6.621A3.99,3.99,0,0,0,21,24h.051A11,11,0,0,0,26,32.208v3.041a1,1,0,0,1-.867.991l-8.058,1.074A7.022,7.022,0,0,0,11,44.253V61a1,1,0,0,0,1,1H52a1,1,0,0,0,1-1V44.253A7.022,7.022,0,0,0,46.925,37.314ZM32,46.586,30.414,45,32,43.414,33.586,45Zm-1,1.828v2.832L18.85,39.1l2.5-.333Zm2,0,9.652-9.652,2.5.333L33,51.246Zm7.156-9.984L35,43.586l-1.537-1.538L38,38.073a2.978,2.978,0,0,0,.6.15ZM45,20a2,2,0,0,1-2,2V18.083L43.014,18A2,2,0,0,1,45,20ZM23.512,5.752l.872-.3a20.66,20.66,0,0,1,15.232,0l.872.3a2.974,2.974,0,0,1,1.988,3.333l-.907,5.424A4.982,4.982,0,0,0,38,13H26a4.982,4.982,0,0,0-3.569,1.509l-.907-5.425A2.974,2.974,0,0,1,23.512,5.752ZM19.587,21.413A2,2,0,0,1,20.986,18l.014.082V22A1.986,1.986,0,0,1,19.587,21.413ZM23,23V18a3,3,0,0,1,3-3H38a3,3,0,0,1,3,3v5a9,9,0,0,1-18,0Zm9,11a10.927,10.927,0,0,0,4-.764v2.013a2.981,2.981,0,0,0,.431,1.544L32,40.671l-4.431-3.878A2.981,2.981,0,0,0,28,35.249V33.236A10.927,10.927,0,0,0,32,34Zm-6.6,4.223a2.978,2.978,0,0,0,.6-.15l4.541,3.975L29,43.586,23.844,38.43ZM51,60H45V51H43v9H21V51H19v9H13V44.253a5.02,5.02,0,0,1,3.433-4.747l14.86,14.861a1,1,0,0,0,1.414,0l14.86-14.861A5.02,5.02,0,0,1,51,44.253Z"></path><path d="M29,21h2a3,3,0,0,0-6,0h2a1,1,0,0,1,2,0Z"></path><path d="M36,20a1,1,0,0,1,1,1h2a3,3,0,0,0-6,0h2A1,1,0,0,1,36,20Z"></path><path d="M36.33,26.5l-1.73-1a3,3,0,0,1-5.2,0l-1.73,1a5,5,0,0,0,8.66,0Z"></path></g></svg>