<svg xmlns="http://www.w3.org/2000/svg" viewBox="0 0 64 64" x="0px" y="0px"><g><path d="M42,55.6A20,20,0,1,1,42,16.4V7a3,3,0,0,0-3-3H34V6a3,3,0,0,1-3,3H19a3,3,0,0,1-3-3V4H11A3,3,0,0,0,8,7V57a3,3,0,0,0,3,3H39a3,3,0,0,0,3-3ZM30,11h2v2H30Zm-4,0h2v2H26Zm-4,0h2v2H22Zm1.339,5.972L24.625,18.5,23.093,19.79l-1.286-1.533ZM21.79,21.093,20.5,22.625l-1.532-1.286,1.285-1.532ZM18,11h2v2H18Zm-.285,12.134,1.732,1-1,1.732-1.732-1Zm-1.926,3.718,1.879.684-.684,1.879-1.879-.684Zm-1.251,4,1.97.347-.347,1.97-1.97-.348ZM14,35h2v2H14Zm.191,4.183,1.97-.348.347,1.97-1.97.347Zm.914,4.086,1.879-.684.684,1.879-1.879.684Zm1.61,3.865,1.732-1,1,1.732-1.732,1Zm3.542,5.059-1.285-1.532L20.5,49.375l1.286,1.532Zm3.082,2.835-1.532-1.285,1.286-1.533L24.625,53.5Zm3.527,2.257-1.732-1,1-1.732,1.732,1Z"></path><path d="M30,29.65v5.289a11.007,11.007,0,0,0,5.658,9.616L38,45.856l2.342-1.3A11.007,11.007,0,0,0,46,34.939V29.65l-8-3.556Z"></path><path d="M19,7H31a1,1,0,0,0,1-1V4H18V6A1,1,0,0,0,19,7Z"></path><path d="M56,36A18,18,0,1,0,38,54,18.021,18.021,0,0,0,56,36Zm-8-1.061A13.006,13.006,0,0,1,41.313,46.3l-2.827,1.571a1,1,0,0,1-.972,0L34.687,46.3A13.006,13.006,0,0,1,28,34.939V29a1,1,0,0,1,.594-.914l9-4a1,1,0,0,1,.812,0l9,4A1,1,0,0,1,48,29Z"></path><rect x="54.619" y="20.216" width="2" height="2" transform="translate(-0.629 40.703) rotate(-39.988)"></rect><rect x="56.919" y="23.5" width="2" height="2" transform="translate(-4.49 32.244) rotate(-30.002)"></rect><rect x="58.613" y="27.134" width="2" height="1.999" transform="translate(-6.028 22.092) rotate(-20.006)"></rect><rect x="59.65" y="31.006" width="2" height="2" transform="translate(-4.635 11.013) rotate(-9.996)"></rect><rect x="60" y="35" width="2" height="2"></rect><rect x="59.65" y="38.994" width="2" height="2" transform="translate(10.736 92.782) rotate(-80.004)"></rect><rect x="58.613" y="42.867" width="1.999" height="2" transform="translate(-1.997 84.88) rotate(-69.999)"></rect><rect x="56.919" y="46.5" width="2" height="2" transform="translate(-12.178 73.907) rotate(-59.998)"></rect><rect x="54.619" y="49.784" width="2" height="2" transform="matrix(0.643, -0.766, 0.766, 0.643, -19.035, 60.749)"></rect><polygon points="53 10 55 10 55 8 57 8 57 6 55 6 55 4 53 4 53 6 51 6 51 8 53 8 53 10"></polygon><rect x="46" y="12" width="6" height="2"></rect><rect x="51" y="16" width="6" height="2"></rect><polygon points="52 54 50 54 50 56 48 56 48 58 50 58 50 60 52 60 52 58 54 58 54 56 52 56 52 54"></polygon></g></svg>