<svg xmlns="http://www.w3.org/2000/svg" viewBox="0 0 64 64" x="0px" y="0px"><g><path d="M61,52H59V17a5.006,5.006,0,0,0-5-5H50v2h4a3,3,0,0,1,3,3V52H7V17a3,3,0,0,1,3-3h4V12H10a5.006,5.006,0,0,0-5,5V52H3a1,1,0,0,0-1,1v4a3,3,0,0,0,3,3H59a3,3,0,0,0,3-3V53A1,1,0,0,0,61,52ZM35.613,54l-.334,1H28.721l-.334-1ZM60,57a1,1,0,0,1-1,1H5a1,1,0,0,1-1-1V54H26.279l.772,2.316A1,1,0,0,0,28,57h8a1,1,0,0,0,.949-.684L37.721,54H60Z"></path><rect x="11" y="47" width="42" height="2"></rect><path d="M32,40A18,18,0,1,0,14,22,18.021,18.021,0,0,0,32,40ZM32,6A16,16,0,1,1,16,22,16.019,16.019,0,0,1,32,6Z"></path><path d="M32,25a2.993,2.993,0,0,0,1-5.816V12H31v7.184A3,3,0,0,0,29.184,21H24v2h5.184A3,3,0,0,0,32,25Zm0-4a1,1,0,1,1-1,1A1,1,0,0,1,32,21Z"></path><rect x="18" y="21" width="2" height="2"></rect><rect x="31" y="34" width="2" height="2"></rect><rect x="44" y="21" width="2" height="2"></rect><rect x="31" y="8" width="2" height="2"></rect></g></svg>