<svg xmlns="http://www.w3.org/2000/svg" viewBox="0 0 64 64" x="0px" y="0px"><g data-name="Science"><path d="M20,34A10.011,10.011,0,0,0,30,44a9.81,9.81,0,0,0,3.437-.626,2.965,2.965,0,0,0,1.8.626H50.764a3,3,0,0,0,2.683-4.342L47,26.764V19.816A2.993,2.993,0,0,0,46,14H40a2.993,2.993,0,0,0-1,5.816v6.948l-.779,1.558A10.029,10.029,0,0,0,34,24.841V19.816A2.993,2.993,0,0,0,33,14H27a2.993,2.993,0,0,0-1,5.816v5.025A10.024,10.024,0,0,0,20,34Zm2,0a7.826,7.826,0,0,1,.221-1.756,10.352,10.352,0,0,0,3.109.416,10.327,10.327,0,0,0,4.009-.72,8.294,8.294,0,0,1,3.321-.6A8.3,8.3,0,0,1,36,31.945c.112.041.234.081.35.121l-3.8,7.592a2.968,2.968,0,0,0-.228,1.989A7.882,7.882,0,0,1,30,42,8.009,8.009,0,0,1,22,34Zm29.615,7.526a.99.99,0,0,1-.851.474H35.236a1,1,0,0,1-.894-1.447L37.118,35H48.882l2.776,5.553A.987.987,0,0,1,51.615,41.526ZM47.882,33H38.118L40.9,27.447A1,1,0,0,0,41,27V20h4v7a1,1,0,0,0,.1.447ZM40,16h6a1,1,0,0,1,0,2H40a1,1,0,0,1,0-2ZM37.023,30.184c-.114-.04-.229-.078-.344-.12a10.345,10.345,0,0,0-4.019-.724,10.313,10.313,0,0,0-4,.719,8.326,8.326,0,0,1-3.332.6,8.355,8.355,0,0,1-2.439-.3,8.032,8.032,0,0,1,4.443-3.895A1,1,0,0,0,28,25.52V20h4v5.52a1,1,0,0,0,.666.942A8.018,8.018,0,0,1,37.023,30.184ZM27,16h6a1,1,0,0,1,0,2H27a1,1,0,0,1,0-2Z"></path><rect x="25" y="35" width="2" height="2"></rect><rect x="30" y="38" width="2" height="2"></rect><rect x="31" y="33" width="2" height="2"></rect><rect x="41" y="38" width="2" height="2"></rect><rect x="45" y="37" width="2" height="2"></rect><rect x="43" y="29" width="2" height="2"></rect><rect x="28" y="27" width="2" height="2"></rect><path d="M44,11h4a2,2,0,0,0,2-2V8H48V9H44a2,2,0,0,0-2,2v1h2Z"></path><rect x="31" y="10" width="2" height="2"></rect><rect x="27" y="9" width="2" height="2"></rect><path d="M58,2H12A7.008,7.008,0,0,0,5,9V55a7.008,7.008,0,0,0,7,7H58a1,1,0,0,0,1-1V3A1,1,0,0,0,58,2ZM57,48H17V4H57ZM13,4h2V48H13ZM7,9a5.009,5.009,0,0,1,4-4.9V17.08a6.98,6.98,0,0,0-4,2.03ZM7,24a5.009,5.009,0,0,1,4-4.9V34.08a6.98,6.98,0,0,0-4,2.03Zm4,12.1V48.08a6.988,6.988,0,0,0-4,2.025V41A5.009,5.009,0,0,1,11,36.1ZM12,60a5,5,0,0,1,0-10H57v2H13a3,3,0,0,0,0,6H57v2Zm45-6v2H13a1,1,0,0,1,0-2Z"></path></g></svg>