<svg xmlns="http://www.w3.org/2000/svg" viewBox="0 0 32 32" x="0px" y="0px"><g data-name="Smartphone-Touch Screen"><path d="M21,14.122V22a1,1,0,0,1-2,0,1,1,0,0,0-1-1v5a1,1,0,0,0,1,1,2,2,0,0,1,2,2v1h7V28.726A1.925,1.925,0,0,1,29,27l0-5a3,3,0,0,0-3-3H25v1H23V14a1,1,0,0,0-1.176-.985A1.1,1.1,0,0,0,21,14.122Z"></path><path d="M7,6V24h7v2H7v3a1,1,0,0,0,1,1H19V29a3.009,3.009,0,0,1-3-3V20a1,1,0,0,1,1-1h1a3,3,0,0,1,1,.17V14.12a3.149,3.149,0,0,1,2-2.95V6Zm4,10H9V14h2Zm4,13H13V27h2Zm0-13H13V14h2Z"></path><path d="M21,3a1,1,0,0,0-1-1H8A1,1,0,0,0,7,3V4H21Z"></path></g></svg>