<svg xmlns="http://www.w3.org/2000/svg" viewBox="0 0 64 64" x="0px" y="0px"><g><path d="M32,37A11,11,0,1,0,21,26,11.013,11.013,0,0,0,32,37ZM26.027,27a18.368,18.368,0,0,0,.707,4.346,10.667,10.667,0,0,0-1.275.816A8.96,8.96,0,0,1,23.059,27ZM33,32.062a9.043,9.043,0,0,1,1.735.368A5.351,5.351,0,0,1,33,34.666Zm-2,2.6a5.351,5.351,0,0,1-1.735-2.236A8.936,8.936,0,0,1,31,32.062Zm-3.168-.7a9.077,9.077,0,0,1-.792-.466c.137-.091.28-.168.421-.251C27.579,33.5,27.7,33.741,27.832,33.969Zm8.707-.717c.141.083.284.16.421.251a9.077,9.077,0,0,1-.792.466C36.3,33.741,36.421,33.5,36.539,33.252Zm-1.119-2.7A10.951,10.951,0,0,0,33,30.057V27h2.974A16.6,16.6,0,0,1,35.42,30.551ZM33,25V21.955a11.01,11.01,0,0,0,2.419-.51A16.628,16.628,0,0,1,35.974,25Zm0-5.062v-2.6a5.359,5.359,0,0,1,1.734,2.233A9,9,0,0,1,33,19.938Zm3.168-1.907a9.1,9.1,0,0,1,.793.467c-.137.091-.273.182-.414.265C36.427,18.508,36.3,18.264,36.168,18.031ZM31,17.334v2.6a9,9,0,0,1-1.734-.371A5.359,5.359,0,0,1,31,17.334Zm-3.547,1.429c-.141-.083-.277-.174-.414-.265a9.1,9.1,0,0,1,.793-.467C27.7,18.264,27.573,18.508,27.453,18.763ZM31,21.955V25H28.026a16.628,16.628,0,0,1,.555-3.555A11.01,11.01,0,0,0,31,21.955ZM31,27v3.057a10.928,10.928,0,0,0-2.42.494A16.6,16.6,0,0,1,28.026,27Zm7.541,5.162a10.7,10.7,0,0,0-1.275-.816A18.368,18.368,0,0,0,37.973,27h2.968A8.96,8.96,0,0,1,38.541,32.162ZM40.941,25H37.973a18.35,18.35,0,0,0-.709-4.352,11,11,0,0,0,1.278-.809A8.958,8.958,0,0,1,40.941,25ZM25.458,19.839a11,11,0,0,0,1.278.809A18.35,18.35,0,0,0,26.027,25H23.059A8.958,8.958,0,0,1,25.458,19.839Z"></path><path d="M46.414,18H51V16H46a1,1,0,0,0-.707.293l-2,2,1.414,1.414Z"></path><path d="M46,36h5V34H46.414l-1.707-1.707-1.414,1.414,2,2A1,1,0,0,0,46,36Z"></path><path d="M55,20a3,3,0,1,0-3-3A3,3,0,0,0,55,20Zm0-4a1,1,0,1,1-1,1A1,1,0,0,1,55,16Z"></path><path d="M53,38h4a1,1,0,0,0,1-1V33a1,1,0,0,0-1-1H53a1,1,0,0,0-1,1v4A1,1,0,0,0,53,38Zm1-4h2v2H54Z"></path><path d="M19.293,19.707l1.414-1.414-2-2A1,1,0,0,0,18,16H13v2h4.586Z"></path><path d="M18.707,35.707l2-2-1.414-1.414L17.586,34H13v2h5A1,1,0,0,0,18.707,35.707Z"></path><path d="M9,20a3,3,0,1,0-3-3A3,3,0,0,0,9,20Zm0-4a1,1,0,1,1-1,1A1,1,0,0,1,9,16Z"></path><path d="M7,38h4a1,1,0,0,0,1-1V33a1,1,0,0,0-1-1H7a1,1,0,0,0-1,1v4A1,1,0,0,0,7,38Zm1-4h2v2H8Z"></path><path d="M57,2H7A5.006,5.006,0,0,0,2,7V45a5.006,5.006,0,0,0,5,5H23.867l-.75,6H21a3,3,0,0,0,0,6H43a3,3,0,0,0,0-6H40.883l-.75-6H57a5.006,5.006,0,0,0,5-5V7A5.006,5.006,0,0,0,57,2ZM7,4H57a3,3,0,0,1,3,3v3H4V7A3,3,0,0,1,7,4Zm53,8V40H4V12ZM44,59a1,1,0,0,1-1,1H21a1,1,0,0,1,0-2H43A1,1,0,0,1,44,59Zm-5.133-3H25.133l.75-6H38.117ZM57,48H7a3,3,0,0,1-3-3V42H60v3A3,3,0,0,1,57,48Z"></path><rect x="54" y="44" width="2" height="2"></rect><rect x="8" y="6" width="2" height="2"></rect><rect x="12" y="6" width="2" height="2"></rect><rect x="16" y="6" width="2" height="2"></rect></g></svg>