<svg xmlns="http://www.w3.org/2000/svg" viewBox="0 0 64 64" x="0px" y="0px"><g><path d="M58.133,5.553a9.007,9.007,0,0,0-12.727,0L2.979,47.979a1,1,0,0,0,0,1.415L14.293,60.707a1,1,0,0,0,1.414,0L58.133,18.28a9,9,0,0,0,0-12.727ZM56.719,16.866,54.6,18.988,51.77,16.159l-1.415,1.414L53.184,20.4l-1.415,1.414-2.828-2.828L47.527,20.4l2.828,2.828-1.414,1.415-4.95-4.95-1.414,1.414,4.95,4.95-1.415,1.414-2.828-2.828L41.87,26.059,44.7,28.887,43.284,30.3l-2.828-2.828-1.414,1.414,2.828,2.828L40.456,33.13,37.627,30.3l-1.414,1.414,2.829,2.828-1.415,1.414-4.949-4.949-1.414,1.414,4.949,4.95L34.8,38.787l-2.828-2.829-1.414,1.414L33.385,40.2l-1.414,1.414-2.829-2.828L27.728,40.2l2.829,2.828-1.415,1.415-2.829-2.829L24.9,43.029l2.829,2.829-1.415,1.414-4.949-4.95L19.95,43.736,24.9,48.687,23.485,50.1l-2.828-2.829-1.414,1.415,2.828,2.828-1.414,1.414L17.828,50.1l-1.414,1.414,2.829,2.828-1.415,1.415L15,52.929l-1.414,1.414,2.828,2.829L15,58.586l-9.9-9.9L46.82,6.967a7,7,0,1,1,9.9,9.9Z"></path><path d="M51.062,8.381a3,3,0,0,0,4.243,4.243h0a3,3,0,1,0-4.244-4.243Zm2.829,2.829a1,1,0,1,1,0-1.415A1,1,0,0,1,53.891,11.21Z"></path></g></svg>