<svg xmlns="http://www.w3.org/2000/svg" viewBox="0 0 64 64" x="0px" y="0px"><g><path d="M60.545,18.562l-9.03-5.419A1,1,0,0,0,51,13H19.835L17.983,2.821A1,1,0,0,0,17,2H10a1,1,0,0,0-1,.949L8.59,11H5a3.015,3.015,0,0,0-3,3,3,3,0,0,0,3,3H8.314l-.233,5.171a2.992,2.992,0,0,0,2.547,3.087l10.559,1.629a1.032,1.032,0,0,1,.566.28l1.95,1.95A2.985,2.985,0,0,0,25.83,30H50a1.073,1.073,0,0,0,.179-.016l9.357-1.7A2.994,2.994,0,0,0,62,25.33v-4.2A3.015,3.015,0,0,0,60.545,18.562ZM4,14a.977.977,0,0,1,.307-.713A.959.959,0,0,1,5,13h8a1,1,0,0,1,1,1,.977.977,0,0,1-.307.713A.959.959,0,0,1,13,15H5A1,1,0,0,1,4,14ZM60,25.33a1,1,0,0,1-.818.985L49.91,28H25.83a1,1,0,0,1-.713-.3l-1.95-1.95a3.033,3.033,0,0,0-1.665-.841L10.927,23.28a1,1,0,0,1-.848-1.025L10.316,17H13a3.015,3.015,0,0,0,3-3,3,3,0,0,0-3-3H10.593l.357-7h5.215l1.852,10.179A1,1,0,0,0,19,15H50.723l8.793,5.277A1,1,0,0,1,60,21.13Z"></path><path d="M45,17H25a3,3,0,0,0,0,6H45a3,3,0,0,0,0-6Zm0,4H25a1,1,0,0,1,0-2H45a1,1,0,0,1,0,2Z"></path><path d="M40.707,33.293A1,1,0,0,0,40,33H36a1,1,0,0,0-.447.1l-1.356.678-1.49-1.49A1,1,0,0,0,32,32H30a1,1,0,0,0-1,1v2a1,1,0,0,0,.293.707l.319.319-.345.372a1,1,0,0,0-.267.68V39a1,1,0,0,0,1,1h2a1,1,0,0,0,.707-.293l1.49-1.49,1.356.678A1,1,0,0,0,36,39h4a1,1,0,0,0,.707-.293l2-2a1,1,0,0,0,0-1.414Zm-7.414,3L31.586,38H31v-.529l.733-.791a1,1,0,0,0-.026-1.387L31,34.586V34h.586l1.707,1.707a1,1,0,0,0,.7.293A1,1,0,0,0,33.293,36.293ZM39.586,37h-3.35l-1.789-.9a1,1,0,0,0-.439-.1,1,1,0,0,0,.439-.1l1.789-.9h3.35l1,1Z"></path><path d="M35.126,56.607A1,1,0,0,0,34.66,56L31.2,54a1,1,0,0,0-.44-.132l-1.513-.091L28.7,51.741a1,1,0,0,0-.466-.607l-1.732-1a1,1,0,0,0-1.366.366l-1,1.732a1,1,0,0,0-.1.759l.117.436-.486.15a1,1,0,0,0-.57.455L22.134,55.7a1,1,0,0,0,.366,1.366l1.732,1a1.016,1.016,0,0,0,.759.1l2.035-.546.836,1.265a1,1,0,0,0,.334.315l3.464,2a1,1,0,0,0,.5.134,1.035,1.035,0,0,0,.259-.034l2.732-.733a1,1,0,0,0,.707-1.224ZM27.205,55.5l-2.331.625-.508-.293.265-.458,1.031-.319a1,1,0,0,0,.67-1.214l-.259-.966.293-.507.508.293.624,2.332a1,1,0,0,0,.445.595A1,1,0,0,0,27.205,55.5Zm5.1,3.759-2.9-1.675-1.1-1.669a1,1,0,0,0-.313-.3.969.969,0,0,0,.419.12l2,.121,2.9,1.674.366,1.366Z"></path><path d="M39.822,48.009a1,1,0,0,0-.466-.608l-3.463-2a1,1,0,0,0-.441-.131l-1.513-.091-.545-2.035a1.007,1.007,0,0,0-.466-.608l-1.732-1a1,1,0,0,0-1.366.366l-1,1.732a1,1,0,0,0-.1.759l.118.435-.486.151a1,1,0,0,0-.571.455L26.83,47.1a1,1,0,0,0,.366,1.366l1.732,1a1.015,1.015,0,0,0,.759.1l2.036-.544.836,1.264a.99.99,0,0,0,.334.316l3.463,2a1.009,1.009,0,0,0,.5.133.99.99,0,0,0,.259-.034l2.733-.732a1,1,0,0,0,.707-1.225ZM37,50.659l-2.9-1.675-1.1-1.669A1,1,0,0,0,31.9,46.9l-2.332.624-.507-.293.265-.458,1.03-.318a1,1,0,0,0,.671-1.214l-.258-.966.292-.506.507.293.625,2.331a1,1,0,0,0,.907.739l2,.12L38,48.927l.366,1.366Z"></path></g></svg>