<svg xmlns="http://www.w3.org/2000/svg" viewBox="0 0 64 64" x="0px" y="0px"><g><rect x="14" y="30" width="2" height="2"></rect><rect x="20" y="30" width="2" height="2"></rect><rect x="42" y="30" width="2" height="2"></rect><rect x="48" y="30" width="2" height="2"></rect><path d="M57.01,44.16a5.956,5.956,0,0,0,.75-9.82A4.068,4.068,0,0,0,58,33a4,4,0,0,0-3-3.87V19.05l2-.66V23h2V17a1.014,1.014,0,0,0-.68-.95l-12-4a1,1,0,0,0-.64,0l-12,4a1,1,0,0,0,0,1.9L37,19.05V29.13A4,4,0,0,0,34,33a4.068,4.068,0,0,0,.24,1.34,5.956,5.956,0,0,0,.75,9.82A8.921,8.921,0,0,0,32,47.51a9.022,9.022,0,0,0-4.92-4.36L22,41.3V38.92A8.06,8.06,0,0,0,25.74,34H26a3,3,0,0,0,0-6V19.39l3-1V23h2V17a1.014,1.014,0,0,0-.68-.95l-12-4a1,1,0,0,0-.64,0l-12,4a1,1,0,0,0,0,1.9L10,19.39V28a3,3,0,0,0,0,6h.26A8.06,8.06,0,0,0,14,38.92V41.3L8.92,43.15A9.01,9.01,0,0,0,3,51.6V61a1,1,0,0,0,1,1H60a1,1,0,0,0,1-1V51.6A9,9,0,0,0,57.01,44.16ZM10,32a1,1,0,0,1,0-2ZM22.92,43.76l-1.08,1.66-1.82-1.81,1.04-.52ZM24,26.97a2.009,2.009,0,0,1-1.6-1.48L22.28,25H24ZM24,23H12V20.05l5.68,1.9a1.049,1.049,0,0,0,.64,0L24,20.05Zm-4.18,2A3.01,3.01,0,0,1,17,27H12V25ZM27,31a1,1,0,0,1-1,1V30A1,1,0,0,1,27,31ZM9.16,17,18,14.05,26.84,17,18,19.95ZM12,32V29h5a5.012,5.012,0,0,0,3.93-1.91A3.99,3.99,0,0,0,24,28.98V32a6,6,0,0,1-12,0Zm8,7.74v1.64L18.76,42H17.24L16,41.38V39.74a7.822,7.822,0,0,0,4,0Zm-5.06,3.35,1.04.52-1.82,1.81-1.08-1.66ZM17,60H5V51.6a7.03,7.03,0,0,1,4.61-6.58l1.54-.56,2.01,3.09a1.015,1.015,0,0,0,.74.44A.34.34,0,0,0,14,48a1.007,1.007,0,0,0,.71-.29l.05-.06L17,51.28Zm-.78-13.8L18,44.41l1.78,1.79L18,49.09ZM31,60H19V51.28l2.24-3.63.05.06A1.007,1.007,0,0,0,22,48a.34.34,0,0,0,.1-.01,1.015,1.015,0,0,0,.74-.44l2.01-3.09,1.54.56A7.03,7.03,0,0,1,31,51.6ZM56,33a1.857,1.857,0,0,1-.05.34,6.45,6.45,0,0,0-.75-.22l-.4,1.96a3.992,3.992,0,0,1-.27,7.87L50,41.3V38.92A8.005,8.005,0,0,0,54,32V31A2.006,2.006,0,0,1,56,33Zm-7.34,9.94.7.25a7.374,7.374,0,0,1-6.72,0l.7-.25A.992.992,0,0,0,44,42V39.74a7.822,7.822,0,0,0,4,0V42A.992.992,0,0,0,48.66,42.94ZM46,38a6,6,0,0,1-6-6V29h2.86a4.987,4.987,0,0,0,4.16-2.23l.14-.2.96.97A4.994,4.994,0,0,0,51.66,29H52v3A6,6,0,0,1,46,38ZM39,23V19.72l6.68,2.23a1.049,1.049,0,0,0,.64,0L53,19.72V23Zm14,2v2H51.66a2.956,2.956,0,0,1-2.12-.88L48.41,25Zm-7.2,0-.44.66A3.006,3.006,0,0,1,42.86,27H39V25ZM46,14.05,54.84,17,46,19.95,37.16,17ZM34,39a4.013,4.013,0,0,1,3.19-3.92l-.4-1.96a5.772,5.772,0,0,0-.74.22A1.857,1.857,0,0,1,36,33a2.006,2.006,0,0,1,2-2v1a8.005,8.005,0,0,0,4,6.92V41.3l-4.53,1.65A4.007,4.007,0,0,1,34,39ZM45,60H33V51.6a7.03,7.03,0,0,1,4.61-6.58l2.09-.76L45,51.33ZM43.19,45.58a9.61,9.61,0,0,0,5.62,0L46,49.33ZM59,60H47V51.33l5.3-7.07,2.09.76A7.03,7.03,0,0,1,59,51.6Z"></path></g></svg>