<svg xmlns="http://www.w3.org/2000/svg" viewBox="0 0 64 64" x="0px" y="0px"><g data-name="Contract"><path d="M59.648,19.18,56.82,16.352a1,1,0,0,0-1.414,0l-2.122,2.121h0a1,1,0,0,0-1.414,0L50,20.343V5a3,3,0,0,0-3-3H7A3,3,0,0,0,4,5V59a3,3,0,0,0,3,3H47a3,3,0,0,0,3-3V34.988l.456.455,7.071-7.07a1,1,0,0,0,0-1.415l-1.414-1.414,1.414-1.414a1,1,0,0,0,0-1.414h0l2.121-2.122A1,1,0,0,0,59.648,19.18Zm-7.071,1.414,2.829,2.829-2.829,2.828-2.828-2.828ZM34.192,44.636l-2.828-2.828,16.97-16.971,2.829,2.829Zm-5.885,2.6,1.7-3.96L32.724,46l-3.96,1.7ZM42,4v6.586L40.707,9.293a1,1,0,0,0-1.414,0L38,10.586V4Zm5,56H7a1,1,0,0,1-1-1V5A1,1,0,0,1,7,4H36v9a1,1,0,0,0,1.707.707L40,11.414l2.293,2.293A1,1,0,0,0,44,13V4h3a1,1,0,0,1,1,1V22.343L28.536,41.808a.985.985,0,0,0-.212.313L26.2,47.07a1,1,0,0,0,.212,1.1h0l-2.121,2.121,1.414,1.414,2.121-2.121h0a1,1,0,0,0,1.1.212l4.949-2.122a.985.985,0,0,0,.313-.212L48,33.657V59A1,1,0,0,1,47,60Zm8.406-32.334L50,33.071V31.657l4.7-4.7Zm.707-6.364L54.7,19.887l1.415-1.414,1.414,1.414Z"></path><rect x="10" y="22" width="28" height="2"></rect><rect x="10" y="28" width="28" height="2"></rect><rect x="10" y="34" width="18" height="2"></rect><rect x="10" y="16" width="10" height="2"></rect></g></svg>