<svg xmlns="http://www.w3.org/2000/svg" viewBox="0 0 64 64" x="0px" y="0px"><title>Add-Shopping Cart</title><g data-name="Add-Shopping Cart"><path d="M61,18H17.962l-.646-7.437A4.974,4.974,0,0,0,12.33,6H12a2,2,0,0,0-2-2H4A2,2,0,0,0,2,6V8a2,2,0,0,0,2,2h6a2,2,0,0,0,2-2h.33a3.022,3.022,0,0,1,2.994,2.736L15.954,18H15a1,1,0,0,0,0,2h1.128l2.556,29.437A4.974,4.974,0,0,0,23.67,54H25.1a5,5,0,0,0,9.8,0H48.1a5,5,0,1,0,0-2H34.9a5,5,0,0,0-9.8,0H23.67a3.022,3.022,0,0,1-2.994-2.736L18.135,20h.945l1.465,17.581A7.041,7.041,0,0,0,27.521,44H50.479a7.041,7.041,0,0,0,6.976-6.419L58.92,20H61a1,1,0,0,0,0-2ZM4,8V6h6V8ZM53,50a3,3,0,1,1-3,3A3,3,0,0,1,53,50ZM30,50a3,3,0,1,1-3,3A3,3,0,0,1,30,50ZM55.462,37.415A5.03,5.03,0,0,1,50.479,42H27.521a5.03,5.03,0,0,1-4.983-4.585L21.087,20H56.913Z"></path><path d="M29.29,53.71a1.155,1.155,0,0,0,.33.21.943.943,0,0,0,.76,0,.9.9,0,0,0,.54-.54.942.942,0,0,0,0-.76,1.155,1.155,0,0,0-.21-.33,1.032,1.032,0,0,0-.33-.21,1,1,0,0,0-.76,0,.9.9,0,0,0-.54.54.943.943,0,0,0,0,.76A1.032,1.032,0,0,0,29.29,53.71Z"></path><path d="M53,54a.99.99,0,0,0,1-1,1,1,0,0,0-.08-.38,1.155,1.155,0,0,0-.21-.33,1.047,1.047,0,0,0-1.42,0,1.155,1.155,0,0,0-.21.33A1,1,0,0,0,52,53a1.052,1.052,0,0,0,.29.71A1.033,1.033,0,0,0,53,54Z"></path><path d="M39,40a9,9,0,1,0-9-9A9.011,9.011,0,0,0,39,40Zm0-16a7,7,0,1,1-7,7A7.008,7.008,0,0,1,39,24Z"></path><path d="M36,32h2v2a1,1,0,0,0,2,0V32h2a1,1,0,0,0,0-2H40V28a1,1,0,0,0-2,0v2H36a1,1,0,0,0,0,2Z"></path></g></svg>