<svg xmlns="http://www.w3.org/2000/svg" viewBox="0 0 64 64" x="0px" y="0px"><g data-name="Park"><rect x="31" y="38" width="2" height="18"></rect><rect x="48" y="42" width="2" height="14"></rect><rect x="14" y="42" width="2" height="14"></rect><path d="M33,38H44a1,1,0,0,0,1-1V5a1,1,0,0,0-1-1H20a1,1,0,0,0-1,1V37a1,1,0,0,0,1,1H31V25.363l-7.681-7.682,1.414-1.414L31,22.535V17h2V28.555l5.277-5.278,1.414,1.414L33,31.383Z"></path><path d="M50,42h5a1,1,0,0,0,1-1V25a1,1,0,0,0-1-1H47V35l.707-.707L49,35.584l3.293-3.293,1.414,1.414L50,37.41Z"></path><path d="M14,31.586V28h2v3.585l.293-.293L17,32V18H6a1,1,0,0,0-1,1V41a1,1,0,0,0,1,1h8V34.414l-3.707-3.707,1.414-1.414Z"></path><path d="M48,42V37.414l-1-1V37a3,3,0,0,1-3,3H42v1a1,1,0,0,0,1,1Z"></path><path d="M25,41V40H20a3,3,0,0,1-3-3V33.413l-1,1V42h8A1,1,0,0,0,25,41Z"></path><path d="M18,59a1,1,0,0,0-1-1H11a1,1,0,0,1-1-1V55a1,1,0,0,0-1-1H7a1,1,0,0,0-1,1v2a1,1,0,0,1-1,1,1,1,0,0,0-1,1v1H18Z"></path><path d="M51,59a1,1,0,0,0-1-1H49a1,1,0,0,1-1-1,5,5,0,0,0-10,0,1,1,0,0,1-1,1H30a1,1,0,0,0-1,1v1H51Z"></path></g></svg>