<svg xmlns="http://www.w3.org/2000/svg" viewBox="0 0 64 64" x="0px" y="0px"><g data-name="Camera-Internet of Things-Wireless-Smartphone-Control"><path d="M24,53H4v3a3.009,3.009,0,0,0,3,3H21a3.009,3.009,0,0,0,3-3Zm-9,4H13V55h2Z"></path><circle cx="39" cy="21" r="5"></circle><path d="M59,34a1,1,0,0,0,1-1V11a1,1,0,0,0-1-1H48a1,1,0,0,1-.9-.55L45.38,6H32.62L30.9,9.45A1,1,0,0,1,30,10H24V26.03A4.952,4.952,0,0,1,26,30v4Zm-1-3H53V29h5Zm0-4H53V25h5Zm0-4H53V21h5Zm0-4H53V17h5Zm-7-7h2v2H51ZM39,10A11,11,0,1,1,28,21,11.013,11.013,0,0,1,39,10Z"></path><path d="M39,30a9,9,0,1,0-9-9A9.01,9.01,0,0,0,39,30Zm0-16a7,7,0,1,1-7,7A7.008,7.008,0,0,1,39,14Z"></path><path d="M16,11V25h5a5.468,5.468,0,0,1,1,.1V10H17A1,1,0,0,0,16,11Z"></path><rect x="20" y="6" width="4" height="2"></rect><path d="M24,33H4V51H24ZM14,47l-1.414-1.414a2,2,0,0,1,2.828,0Zm2.122-3.121a3,3,0,0,0-4.244,0l-1.414-1.414a5.008,5.008,0,0,1,7.072,0ZM18.95,41.05a7.009,7.009,0,0,0-9.9,0L7.636,39.636a9.009,9.009,0,0,1,12.728,0Z"></path><path d="M24,30a3.009,3.009,0,0,0-3-3H7a3.009,3.009,0,0,0-3,3v1H24Z"></path><path d="M40,45H28v2H41a1,1,0,0,0,1-1V38H40Z"></path><rect x="28" y="41" width="2" height="2"></rect><rect x="32" y="41" width="2" height="2"></rect><rect x="36" y="41" width="2" height="2"></rect></g></svg>