<svg xmlns="http://www.w3.org/2000/svg" viewBox="0 0 64 64" x="0px" y="0px"><g data-name="Joystick"><path d="M17,36A11,11,0,1,0,28,47,11.013,11.013,0,0,0,17,36Zm0,20a9,9,0,1,1,9-9A9.01,9.01,0,0,1,17,56Z"></path><path d="M47,36A11,11,0,1,0,58,47,11.013,11.013,0,0,0,47,36Zm0,20a9,9,0,1,1,9-9A9.01,9.01,0,0,1,47,56Z"></path><path d="M48,46a3,3,0,1,0-3-3A3,3,0,0,0,48,46Zm0-4a1,1,0,1,1-1,1A1,1,0,0,1,48,42Z"></path><path d="M52,45a3,3,0,1,0,3,3A3,3,0,0,0,52,45Zm0,4a1,1,0,1,1,1-1A1,1,0,0,1,52,49Z"></path><path d="M46,48a3,3,0,1,0,3,3A3,3,0,0,0,46,48Zm0,4a1,1,0,1,1,1-1A1,1,0,0,1,46,52Z"></path><path d="M45,46a3,3,0,1,0-3,3A3,3,0,0,0,45,46Zm-3,1a1,1,0,1,1,1-1A1,1,0,0,1,42,47Z"></path><path d="M20,44V41a1,1,0,0,0-1-1H15a1,1,0,0,0-1,1v3H11a1,1,0,0,0-1,1v4a1,1,0,0,0,1,1h3v3a1,1,0,0,0,1,1h4a1,1,0,0,0,1-1V50h3a1,1,0,0,0,1-1V45a1,1,0,0,0-1-1Zm2,4H19a1,1,0,0,0-1,1v3H16V49a1,1,0,0,0-1-1H12V46h3a1,1,0,0,0,1-1V42h2v3a1,1,0,0,0,1,1h3Z"></path><path d="M51,32.558V31a2,2,0,0,0-2-2H45a2,2,0,0,0-2,2v1H38V30a2,2,0,0,0-2-2V26a2,2,0,0,0-2-2H33V20H56a1,1,0,0,0,1-1V13a1,1,0,0,0-1-1H9V8H32a1,1,0,0,0,1-1V3H31V6H8A1,1,0,0,0,7,7v6a1,1,0,0,0,1,1H55v4H32a1,1,0,0,0-1,1v5H30a2,2,0,0,0-2,2v2a2,2,0,0,0-2,2v2H21V31a2,2,0,0,0-2-2H15a2,2,0,0,0-2,2v1.558A14.992,14.992,0,0,0,17,62H47a14.992,14.992,0,0,0,4-29.442ZM45,31h4v1.149A14.99,14.99,0,0,0,47,32H45ZM30,26h4v2H30Zm-2,4h8v2H28ZM15,31h4v1H17a14.99,14.99,0,0,0-2,.149ZM47,60H17a13,13,0,0,1,0-26H47a13,13,0,0,1,0,26Z"></path><rect x="27" y="38" width="2" height="2"></rect><rect x="31" y="38" width="2" height="2"></rect><rect x="35" y="38" width="2" height="2"></rect><rect x="29" y="52" width="2" height="2"></rect><rect x="33" y="52" width="2" height="2"></rect></g></svg>