<svg xmlns="http://www.w3.org/2000/svg" viewBox="0 0 64 64" x="0px" y="0px"><g data-name="Gaming-Control-Internet-Internet of Things-Smartphone"><path d="M57,2H13A5,5,0,0,0,8,7V26H7a5,5,0,0,0-5,5V57a5,5,0,0,0,5,5H21a5,5,0,0,0,5-5V56H48a3,3,0,0,0,3-3,3.009,3.009,0,0,0-3-3H39V44H57a5,5,0,0,0,5-5V7A5,5,0,0,0,57,2ZM24,57a3.009,3.009,0,0,1-3,3H7a3.009,3.009,0,0,1-3-3V54H24Zm0-5H4V34H24Zm0-20H4V31a3.009,3.009,0,0,1,3-3H21a3.009,3.009,0,0,1,3,3ZM41,15H29a8.011,8.011,0,0,0-8,8v3H14V8H56V38H26V31h1a1.052,1.052,0,0,0,.62-.21l4.52-3.58a1.03,1.03,0,0,1,.62-.21h4.48a1.03,1.03,0,0,1,.62.21l4.52,3.58A1.076,1.076,0,0,0,43,31h3a3.009,3.009,0,0,0,3-3V23A8.011,8.011,0,0,0,41,15ZM25.58,29A5.073,5.073,0,0,0,23,26.42V23a6,6,0,0,1,6-6H41a6,6,0,0,1,6,6v5a1,1,0,0,1-1,1H43.35L39.1,25.65A2.964,2.964,0,0,0,37.24,25H32.76a3.015,3.015,0,0,0-1.86.64L26.65,29ZM26,44h5v6H26Zm22,8a1,1,0,0,1,1,1,.949.949,0,0,1-.31.71A.928.928,0,0,1,48,54H26V52ZM33,50V44h4v6ZM60,39a3.009,3.009,0,0,1-3,3H26V40H57a1,1,0,0,0,1-1V7a1,1,0,0,0-1-1H13a1,1,0,0,0-1,1V26H10V7a3.009,3.009,0,0,1,3-3H57a3.009,3.009,0,0,1,3,3Z"></path><path d="M10.464,43.465l1.414,1.414a3,3,0,0,1,4.244,0l1.414-1.414A5.008,5.008,0,0,0,10.464,43.465Z"></path><path d="M9.05,42.05a7.009,7.009,0,0,1,9.9,0l1.414-1.414a9.009,9.009,0,0,0-12.728,0Z"></path><path d="M12.586,46.586,14,48l1.414-1.414A2,2,0,0,0,12.586,46.586Z"></path><rect x="13" y="56" width="2" height="2"></rect><polygon points="27 25 29 25 29 23 31 23 31 21 29 21 29 19 27 19 27 21 25 21 25 23 27 23 27 25"></polygon><rect x="41" y="19" width="2" height="2"></rect><rect x="43" y="21" width="2" height="2"></rect><rect x="41" y="23" width="2" height="2"></rect><rect x="39" y="21" width="2" height="2"></rect><rect x="32" y="19" width="2" height="2"></rect><rect x="36" y="19" width="2" height="2"></rect></g></svg>