<svg xmlns="http://www.w3.org/2000/svg" viewBox="0 0 64 64" x="0px" y="0px"><g data-name="Mobile Phone-Cellphone-Communication-Retro-Technology"><path d="M34,36H30a1,1,0,0,0-1,1v4a1,1,0,0,0,1,1h4a1,1,0,0,0,1-1V37A1,1,0,0,0,34,36Zm-1,4H31V38h2Z"></path><rect x="37" y="36" width="4" height="2"></rect><rect x="37" y="40" width="4" height="2"></rect><rect x="23" y="36" width="4" height="2"></rect><rect x="23" y="40" width="4" height="2"></rect><rect x="29" y="46" width="6" height="2"></rect><rect x="23" y="46" width="4" height="2"></rect><rect x="37" y="46" width="4" height="2"></rect><rect x="29" y="50" width="6" height="2"></rect><rect x="29" y="54" width="6" height="2"></rect><rect x="23" y="50" width="4" height="2"></rect><rect x="37" y="50" width="4" height="2"></rect><rect x="23" y="54" width="4" height="2"></rect><rect x="37" y="54" width="4" height="2"></rect><path d="M41,8a2,2,0,0,0-2-2H25a2,2,0,0,0-2,2V24a2,2,0,0,0,2,2H39a2,2,0,0,0,2-2ZM39,24H25V8H39Z"></path><path d="M44.71,28.71A1.033,1.033,0,0,0,45,28V5a3.009,3.009,0,0,0-3-3H22a3.009,3.009,0,0,0-3,3V28a1.033,1.033,0,0,0,.29.71L21,30.41V32H20a1,1,0,0,0-1,1V59a3.009,3.009,0,0,0,3,3H42a3.009,3.009,0,0,0,3-3V33a1,1,0,0,0-1-1H43V30.41ZM43,59a1,1,0,0,1-1,1H22a1,1,0,0,1-1-1V34H43ZM41.29,29.29A1.033,1.033,0,0,0,41,30v2H23V30a1.033,1.033,0,0,0-.29-.71L21,27.59V5a1,1,0,0,1,1-1H42a1,1,0,0,1,1,1V27.59Z"></path><rect x="25" y="28" width="14" height="2"></rect><path d="M29,12h3V10H29a2,2,0,0,0-2,2v3h2Z"></path><rect x="27" y="17" width="2" height="2"></rect></g></svg>