<svg xmlns="http://www.w3.org/2000/svg" viewBox="0 0 64 64" x="0px" y="0px"><g data-name="Saving-Money Bag-Money-Calculator-Finance-Cost"><path d="M59,20H37.47a14.954,14.954,0,0,0-5.69-1.89A2.93,2.93,0,0,0,32,17a3,3,0,0,0-1.49-2.58l5.35-8.91A1,1,0,0,0,35,4a2.557,2.557,0,0,1-1.87-.78,4.612,4.612,0,0,0-6.25,0,2.644,2.644,0,0,1-3.75,0,4.612,4.612,0,0,0-6.25,0A2.6,2.6,0,0,1,15,4a1,1,0,0,0-.86,1.51l5.35,8.91a2.974,2.974,0,0,0-1.27,3.7A15.009,15.009,0,0,0,5,33V46.13a3.991,3.991,0,0,0-3,4.09A4.158,4.158,0,0,0,6.17,54H32v5a3.009,3.009,0,0,0,3,3H59a3.009,3.009,0,0,0,3-3V23A3.009,3.009,0,0,0,59,20ZM16.6,5.73a5.568,5.568,0,0,0,1.53-.95A2.557,2.557,0,0,1,20,4a2.6,2.6,0,0,1,1.88.78,4.612,4.612,0,0,0,6.25,0,2.644,2.644,0,0,1,3.75,0,5.357,5.357,0,0,0,1.52.95L28.43,14H21.57ZM30,17a1,1,0,0,1-1,1H21a1,1,0,0,1,0-2h8A1,1,0,0,1,30,17ZM26,51a1,1,0,0,1-1,1H13a1,1,0,0,1-1-1V49a1,1,0,0,1,1-1h1v2h2V48h2v2h2V48h2v2h2V48h1a1,1,0,0,1,1,1Zm0-6a1,1,0,0,1-1,1H13a1,1,0,0,1-1-1V43a1,1,0,0,1,1-1h1v2h2V42h2v2h2V42h2v2h2V42h1a1,1,0,0,1,1,1ZM14,35a5,5,0,1,1,5,5A5,5,0,0,1,14,35ZM32,23V52H27.82A3,3,0,0,0,28,51V49a2.974,2.974,0,0,0-.78-2A2.974,2.974,0,0,0,28,45V43a3.009,3.009,0,0,0-3-3H23.89a7,7,0,1,0-9.78,0H13a3.009,3.009,0,0,0-3,3v2a2.974,2.974,0,0,0,.78,2A2.974,2.974,0,0,0,10,49v2a3,3,0,0,0,.18,1H6.17A2.127,2.127,0,0,1,4,50.11,2,2,0,0,1,6,48a1,1,0,0,0,1-1V33A13.012,13.012,0,0,1,20,20h.54A5.979,5.979,0,0,0,19,24v1h2V24a4,4,0,0,1,8,0v1h2V24a5.979,5.979,0,0,0-1.54-4H30a13.114,13.114,0,0,1,3.42.46A3,3,0,0,0,32,23ZM60,59a1,1,0,0,1-1,1H35a1,1,0,0,1-1-1V23a1,1,0,0,1,1-1H59a1,1,0,0,1,1,1Z"></path><path d="M56,24H38a2,2,0,0,0-2,2v6a2,2,0,0,0,2,2H56a2,2,0,0,0,2-2V26A2,2,0,0,0,56,24ZM38,32V26H56v6Z"></path><rect x="50" y="28" width="2" height="2"></rect><rect x="46" y="28" width="2" height="2"></rect><rect x="42" y="28" width="2" height="2"></rect><path d="M41,44H37a1,1,0,0,0-1,1v4a1,1,0,0,0,1,1h4a1,1,0,0,0,1-1V45A1,1,0,0,0,41,44Zm-1,4H38V46h2Z"></path><path d="M41,36H37a1,1,0,0,0-1,1v4a1,1,0,0,0,1,1h4a1,1,0,0,0,1-1V37A1,1,0,0,0,41,36Zm-1,4H38V38h2Z"></path><path d="M49,36H45a1,1,0,0,0-1,1v4a1,1,0,0,0,1,1h4a1,1,0,0,0,1-1V37A1,1,0,0,0,49,36Zm-1,4H46V38h2Z"></path><path d="M57,36H53a1,1,0,0,0-1,1v4a1,1,0,0,0,1,1h4a1,1,0,0,0,1-1V37A1,1,0,0,0,57,36Zm-1,4H54V38h2Z"></path><path d="M49,44H45a1,1,0,0,0-1,1v4a1,1,0,0,0,1,1h4a1,1,0,0,0,1-1V45A1,1,0,0,0,49,44Zm-1,4H46V46h2Z"></path><path d="M57,44H53a1,1,0,0,0-1,1v4a1,1,0,0,0,1,1h4a1,1,0,0,0,1-1V45A1,1,0,0,0,57,44Zm-1,4H54V46h2Z"></path><path d="M41,52H37a1,1,0,0,0-1,1v4a1,1,0,0,0,1,1h4a1,1,0,0,0,1-1V53A1,1,0,0,0,41,52Zm-1,4H38V54h2Z"></path><path d="M49,52H45a1,1,0,0,0-1,1v4a1,1,0,0,0,1,1h4a1,1,0,0,0,1-1V53A1,1,0,0,0,49,52Zm-1,4H46V54h2Z"></path><path d="M57,52H53a1,1,0,0,0-1,1v4a1,1,0,0,0,1,1h4a1,1,0,0,0,1-1V53A1,1,0,0,0,57,52Zm-1,4H54V54h2Z"></path><path d="M19,36v2a3,3,0,0,0,3-3H20A1,1,0,0,1,19,36Z"></path></g></svg>