<svg xmlns="http://www.w3.org/2000/svg" viewBox="0 0 64 64" x="0px" y="0px"><title>Euro-Money</title><g><path d="M55,2H9A2,2,0,0,0,7,4V60a2,2,0,0,0,2,2H55a2,2,0,0,0,2-2V4A2,2,0,0,0,55,2ZM40,4V6H24V4ZM23,12H41a1,1,0,0,0,1-1V8h9V56H13V8h9v3A1,1,0,0,0,23,12Zm17-2H24V8H40ZM9,60V4H22V6H12a1,1,0,0,0-1,1V57a1,1,0,0,0,1,1H52a1,1,0,0,0,1-1V7a1,1,0,0,0-1-1H42V4H55l0,56Z"></path><path d="M35,43a5.894,5.894,0,0,0,3.587-1.187l-1.193-1.605A3.936,3.936,0,0,1,35,41c-2.2,0-3.774-1.76-4.517-4H38V35H30.057a8.8,8.8,0,0,1,0-2H38V31H30.483c.743-2.24,2.317-4,4.517-4a3.924,3.924,0,0,1,2.361.769l1.18-1.616A5.89,5.89,0,0,0,35,25c-3.5,0-5.751,2.747-6.607,6H26v2h2.047c-.028.334-.047.667-.047,1s.019.666.047,1H26v2h2.393C29.249,40.253,31.5,43,35,43Z"></path></g></svg>