<svg xmlns="http://www.w3.org/2000/svg" viewBox="0 0 64 64" x="0px" y="0px"><g><circle cx="19" cy="18" r="2"></circle><circle cx="27" cy="18" r="2"></circle><path d="M26.307,24.75l-1.323-1.5a3.076,3.076,0,0,1-3.968,0l-1.323,1.5a5,5,0,0,0,6.614,0Z"></path><rect x="22" y="42" width="2" height="2"></rect><rect x="22" y="46" width="2" height="2"></rect><rect x="22" y="50" width="2" height="2"></rect><path d="M60,28H52a4.994,4.994,0,0,0-4,2.03A4.994,4.994,0,0,0,44,28H36a1,1,0,0,0-1,1v7.46l-7-2.19V30.79A11.028,11.028,0,0,0,33.95,22H34a4,4,0,0,0,0-8V6a1,1,0,0,0-1-1H30V3a1,1,0,0,0-1-1H19a7.008,7.008,0,0,0-7,7v5a4,4,0,1,0,0,8h.05A11.028,11.028,0,0,0,18,30.79v3.47L8.31,37.29A8.963,8.963,0,0,0,2,45.88V61a1,1,0,0,0,1,1H60a1,1,0,0,0,1-1V53a1,1,0,0,0-1-1H44V50H60a1,1,0,0,0,1-1V29A1,1,0,0,0,60,28ZM34,16a2.006,2.006,0,0,1,2,2,2.015,2.015,0,0,1-2,2ZM12,20a2.015,2.015,0,0,1-2-2,2.006,2.006,0,0,1,2-2ZM28.77,36.6,27.5,41.09l-2.98-2.98,2.67-2ZM23,36.75,20,34.5V31.57a10.68,10.68,0,0,0,6,0V34.5ZM29.71,7H32v3.18A3,3,0,0,0,31,10H27.89A7.065,7.065,0,0,0,29.71,7ZM14,9a5,5,0,0,1,5-5h9V5a5,5,0,0,1-5,5H15a3,3,0,0,0-1,.18Zm0,12V13a1,1,0,0,1,1-1H31a1,1,0,0,1,1,1v8a9,9,0,0,1-18,0Zm4.81,15.11,2.67,2L18.5,41.09,17.23,36.6ZM35.78,57A2.974,2.974,0,0,0,35,59a3,3,0,0,0,.18,1H12V46H10V60H4V45.88A6.964,6.964,0,0,1,8.91,39.2l6.41-2,1.72,6.07a1,1,0,0,0,.71.7A1.068,1.068,0,0,0,18,44a1.007,1.007,0,0,0,.71-.29L23,39.41l4.29,4.3A1.007,1.007,0,0,0,28,44a1.068,1.068,0,0,0,.25-.03,1,1,0,0,0,.71-.7l1.72-6.07L35,38.55V49a1,1,0,0,0,1,1h6v2H38a3.009,3.009,0,0,0-3,3A2.974,2.974,0,0,0,35.78,57ZM39,60H38a1,1,0,0,1,0-2h1Zm0-4H38a1,1,0,0,1,0-2h1Zm20,4H41V58H59Zm0-6v2H41V54ZM37,48V46h7a3.014,3.014,0,0,1,2.83,2Zm10-2.97A4.924,4.924,0,0,0,44,44H37V30h7a3.009,3.009,0,0,1,3,3ZM59,48H49.17A3.014,3.014,0,0,1,52,46h7Zm0-4H52a4.924,4.924,0,0,0-3,1.03V33a3.009,3.009,0,0,1,3-3h7Z"></path><rect x="51" y="32" width="6" height="2"></rect><rect x="51" y="36" width="6" height="2"></rect><rect x="51" y="40" width="6" height="2"></rect><rect x="39" y="32" width="6" height="2"></rect><rect x="39" y="36" width="6" height="2"></rect><rect x="39" y="40" width="6" height="2"></rect></g></svg>