<svg xmlns="http://www.w3.org/2000/svg" viewBox="0 0 64 64" x="0px" y="0px"><g data-name="Car Wash"><circle cx="53" cy="5" r="2"></circle><circle cx="25" cy="11" r="2"></circle><path d="M11,60h4a1,1,0,0,0,1-1V56H10v3A1,1,0,0,0,11,60Z"></path><polygon points="57.22 35 57.721 32.998 50.202 33 51.535 35 57.22 35"></polygon><path d="M49,60h4a1,1,0,0,0,1-1V56H48v3A1,1,0,0,0,49,60Z"></path><path d="M49,43V42H46a1,1,0,0,0-1,1v1h3A1,1,0,0,0,49,43Z"></path><path d="M21.184,35h5.632a2.982,2.982,0,0,0-5.632,0Z"></path><path d="M13,27H27a2,2,0,0,0,0-4h-.142a1,1,0,0,1-.967-.749A3,3,0,0,0,23,20a2.963,2.963,0,0,0-.76.113,1,1,0,0,1-1.254-1.007c0-.034.012-.134.017-.168a2,2,0,0,0-4,.027,1,1,0,0,1-1.6.858A3.956,3.956,0,0,0,13,19a4,4,0,0,0,0,8Z"></path><path d="M41.142,20H41a2,2,0,0,0,0,4H55a4,4,0,0,0,0-8,3.956,3.956,0,0,0-2.4.823,1,1,0,0,1-1.6-.908A2,2,0,0,0,47,16h0a.345.345,0,0,1,.013.106,1,1,0,0,1-1.254,1.007A2.963,2.963,0,0,0,45,17a3,3,0,0,0-2.891,2.251A1,1,0,0,1,41.142,20Z"></path><rect x="6" y="50" width="52" height="4"></rect><path d="M19.1,35a5,5,0,0,1,9.8,0H49.132l-5.774-8.666A2.85,2.85,0,0,0,43.066,26H41a3.966,3.966,0,0,1-2.618-1H31a4,4,0,0,1-4,4H18.5L14,35Z"></path><path d="M8.632,38.428A1,1,0,0,0,8,39.35V40h3v2H8v2h3v2H8v2H56V46H53V44h3V42H53V40h3v-.56a1.013,1.013,0,0,0-.693-.954L50.839,37H12.193ZM43,43a3,3,0,0,1,3-3h4a1,1,0,0,1,1,1v2a3,3,0,0,1-3,3H44a1,1,0,0,1-1-1ZM27,40H37a3,3,0,0,1,0,6H27a3,3,0,0,1,0-6ZM13,41a1,1,0,0,1,1-1h4a3,3,0,0,1,3,3v2a1,1,0,0,1-1,1H16a3,3,0,0,1-3-3Z"></path><polygon points="6.779 34.998 11.501 35 13 33 6.28 33 6.779 34.998"></polygon><path d="M16,44h3V43a1,1,0,0,0-1-1H15v1A1,1,0,0,0,16,44Z"></path><path d="M38,43a1,1,0,0,0-1-1H35v2h2A1,1,0,0,0,38,43Z"></path><path d="M27,44h2V42H27a1,1,0,0,0,0,2Z"></path><rect x="31" y="42" width="2" height="2"></rect><rect x="2" y="60" width="60" height="2"></rect><rect x="9" y="13" width="2" height="2"></rect><rect x="4" y="16" width="2" height="2"></rect><rect x="43" y="8" width="2" height="2"></rect><rect x="56" y="10" width="2" height="2"></rect><rect x="45" y="4" width="2" height="2"></rect><rect x="29" y="4" width="2" height="2"></rect><path d="M12,8a2,2,0,0,0,4,0c0-.62-.938-2.119-2-3.451C12.939,5.875,12,7.363,12,8Z"></path><path d="M33,14a2,2,0,0,0,4,0c0-.62-.938-2.119-2-3.451C33.939,11.875,33,13.363,33,14Z"></path></g></svg>