<svg xmlns="http://www.w3.org/2000/svg" viewBox="0 0 64 64" x="0px" y="0px"><g><path d="M48.789,29.64,39.734,14H40a1,1,0,0,0,1-1V9a1,1,0,0,0-1-1H39V3a1,1,0,0,0-1-1H26a1,1,0,0,0-1,1V8H24a1,1,0,0,0-1,1v4a1,1,0,0,0,1,1h.266L15.211,29.64A9.01,9.01,0,0,0,14,34.149V57a5.006,5.006,0,0,0,5,5H45a5.006,5.006,0,0,0,5-5V34.149A9.01,9.01,0,0,0,48.789,29.64ZM27,4H37V8H27Zm-2,6H39v2H25ZM48,57a3,3,0,0,1-3,3H19a3,3,0,0,1-3-3V34.149a7.009,7.009,0,0,1,.942-3.507L26.576,14H37.424l9.634,16.642A7.009,7.009,0,0,1,48,34.149Z"></path><path d="M39.857,23.485A1,1,0,0,0,39,23H37a1,1,0,0,0-1,1V38a3,3,0,0,0,3,3h5a2,2,0,0,0,2-2V34.554a3,3,0,0,0-.428-1.544ZM44,39H39a1,1,0,0,1-1-1V25h.434l5.423,9.039a1,1,0,0,1,.143.515Z"></path></g></svg>