<svg xmlns="http://www.w3.org/2000/svg" viewBox="0 0 64 64" x="0px" y="0px"><g><path d="M61,54H60V23a3,3,0,0,0-3-3V17a1,1,0,0,0-.1-.447L53,8.764V3a1,1,0,0,0-1-1H12a1,1,0,0,0-1,1V8.764L7.105,16.553A1,1,0,0,0,7,17v3a3,3,0,0,0-3,3V54H3a1,1,0,0,0-1,1v4a3,3,0,0,0,3,3H59a3,3,0,0,0,3-3V55A1,1,0,0,0,61,54ZM38.9,50a12.976,12.976,0,0,0-.8-22.475A5.021,5.021,0,0,0,40,25.969a4.954,4.954,0,0,0,8,0,4.994,4.994,0,0,0,3,1.93V50ZM9,18h6v5a3,3,0,0,1-6,0Zm42.382-8,3,6H9.618l3-6ZM17,18h6v5a3,3,0,0,1-6,0Zm8,0h6v5a3,3,0,0,1-6,0Zm7,7.969c.008.011.018.021.027.032h-.054C31.982,25.99,31.992,25.98,32,25.969ZM33,23V18h6v5a3,3,0,0,1-6,0Zm8-5h6v5a3,3,0,0,1-6,0ZM13,27.9a4.994,4.994,0,0,0,3-1.93,4.954,4.954,0,0,0,8,0,5.021,5.021,0,0,0,1.905,1.556A12.976,12.976,0,0,0,25.1,50H13ZM21,39A11,11,0,1,1,32,50,11.013,11.013,0,0,1,21,39ZM52,26a3,3,0,0,1-3-3V18h6v5A3,3,0,0,1,52,26ZM51,4V8H13V4ZM6,23a1,1,0,0,1,1-1v1a5.009,5.009,0,0,0,4,4.9V50H8v2H56V50H53V27.9A5.009,5.009,0,0,0,57,23V22a1,1,0,0,1,1,1V54H6ZM28,56h8v1H28Zm32,3a1,1,0,0,1-1,1H5a1,1,0,0,1-1-1V56H26v1a2,2,0,0,0,2,2h8a2,2,0,0,0,2-2V56H60Z"></path><rect x="23.515" y="38" width="16.971" height="2" transform="translate(-18.205 34.05) rotate(-45)"></rect><path d="M36,40a3,3,0,1,0,3,3A3,3,0,0,0,36,40Zm0,4a1,1,0,1,1,1-1A1,1,0,0,1,36,44Z"></path><path d="M28,38a3,3,0,1,0-3-3A3,3,0,0,0,28,38Zm0-4a1,1,0,1,1-1,1A1,1,0,0,1,28,34Z"></path></g></svg>