<svg xmlns="http://www.w3.org/2000/svg" viewBox="0 0 32 32" x="0px" y="0px"><title>File Minus_4</title><g data-name="File Minus"><path d="M6,2H8V8a1,1,0,0,0,1.707.707L11,7.414l1.293,1.293A1,1,0,0,0,13,9a.987.987,0,0,0,.383-.076A1,1,0,0,0,14,8V2h6V8a1,1,0,0,0,1,1h5v8h2V8c0-.019-.009-.036-.01-.055a.95.95,0,0,0-.04-.223.83.83,0,0,0-.027-.094.994.994,0,0,0-.164-.278l-6-7a.974.974,0,0,0-.3-.231c-.031-.016-.061-.027-.093-.04A.974.974,0,0,0,21.05.011C21.032.01,21.017,0,21,0H5A1,1,0,0,0,4,1V31a1,1,0,0,0,1,1H19V30H6ZM22,3.7,24.826,7H22ZM12,2V5.586l-.293-.293a1,1,0,0,0-1.414,0L10,5.586V2Z"></path><path d="M25,18a7,7,0,1,0,7,7A7.008,7.008,0,0,0,25,18Zm0,12a5,5,0,1,1,5-5A5.006,5.006,0,0,1,25,30Z"></path><rect x="21" y="24" width="8" height="2"></rect></g></svg>