<svg xmlns="http://www.w3.org/2000/svg" viewBox="0 0 64 64" x="0px" y="0px"><g data-name="Chair-Furniture-Desk Chair-Sitting-Seat"><circle cx="47" cy="59" r="2"></circle><circle cx="32" cy="59" r="2"></circle><circle cx="17" cy="59" r="2"></circle><rect x="31" y="38" width="2" height="4"></rect><rect x="11" y="20" width="5" height="2"></rect><rect x="30" y="44" width="4" height="6"></rect><polygon points="16.13 24 14.15 24 15.87 36 17.85 36 16.13 24"></polygon><path d="M44.13,36l.5-3.46A74.725,74.725,0,0,0,32,31a74.725,74.725,0,0,0-12.63,1.54l.5,3.46Z"></path><path d="M23.54,29.78,22.2,6.86a1.015,1.015,0,0,1,.7-1.02A34.913,34.913,0,0,1,32,4a34.913,34.913,0,0,1,9.1,1.84,1.015,1.015,0,0,1,.7,1.02L40.46,29.78c.6.09,1.18.19,1.74.28L43.79,7.01a3.012,3.012,0,0,0-2.1-3.08A37.443,37.443,0,0,0,32,2a37.05,37.05,0,0,0-9.69,1.94,2.993,2.993,0,0,0-2.1,3.07L21.8,30.06C22.36,29.97,22.94,29.87,23.54,29.78Z"></path><polygon points="29.08 52 17 53.86 17 54 17 55 47 55 47 54 47 53.86 34.92 52 29.08 52"></polygon><path d="M24.24,7.53,25.53,29.5A51.725,51.725,0,0,1,32,29a51.725,51.725,0,0,1,6.47.5L39.76,7.53A30.525,30.525,0,0,0,32,6,30.525,30.525,0,0,0,24.24,7.53ZM36,24H28V22h8Zm0-5H28V17h8Zm0-5H28V12h8Z"></path><rect x="48" y="20" width="5" height="2"></rect><polygon points="46.15 36 48.13 36 49.85 24 47.87 24 46.15 36"></polygon></g></svg>