<svg xmlns="http://www.w3.org/2000/svg" viewBox="0 0 64 64" x="0px" y="0px"><title>Clipboard_29</title><g data-name="Clipboard"><path d="M15,21V33a1,1,0,0,0,1,1h8a1,1,0,0,0,1-1V21a1,1,0,0,0-1-1H16A1,1,0,0,0,15,21Zm2,1h6V32H17Z"></path><path d="M28,34h8a1,1,0,0,0,1-1V21a1,1,0,0,0-1-1H28a1,1,0,0,0-1,1V33A1,1,0,0,0,28,34Zm1-12h6V32H29Z"></path><path d="M40,34h8a1,1,0,0,0,1-1V21a1,1,0,0,0-1-1H40a1,1,0,0,0-1,1V33A1,1,0,0,0,40,34Zm1-12h6V32H41Z"></path><rect x="15" y="38" width="10" height="2"></rect><rect x="15" y="42" width="10" height="2"></rect><rect x="15" y="46" width="2" height="2"></rect><rect x="19" y="46" width="2" height="2"></rect><rect x="23" y="46" width="2" height="2"></rect><rect x="27" y="38" width="10" height="2"></rect><rect x="27" y="42" width="10" height="2"></rect><rect x="27" y="46" width="2" height="2"></rect><rect x="31" y="46" width="2" height="2"></rect><rect x="35" y="46" width="2" height="2"></rect><rect x="39" y="38" width="10" height="2"></rect><rect x="39" y="42" width="10" height="2"></rect><rect x="39" y="46" width="2" height="2"></rect><rect x="43" y="46" width="2" height="2"></rect><rect x="47" y="46" width="2" height="2"></rect><path d="M55,2H9A2,2,0,0,0,7,4V60a2,2,0,0,0,2,2H55a2,2,0,0,0,2-2V4A2,2,0,0,0,55,2ZM40,4V6H24V4ZM23,12H41a1,1,0,0,0,1-1V8h9V56H13V8h9v3A1,1,0,0,0,23,12Zm17-2H24V8H40ZM9,60V4H22V6H12a1,1,0,0,0-1,1V57a1,1,0,0,0,1,1H52a1,1,0,0,0,1-1V7a1,1,0,0,0-1-1H42V4H55V60Z"></path></g></svg>