<svg xmlns="http://www.w3.org/2000/svg" viewBox="0 0 32 32" x="0px" y="0px"><g><path d="M26.84,21A2.12,2.12,0,0,0,25,22.155,2.12,2.12,0,0,0,23.16,21,2.3,2.3,0,0,0,21,23.415C21,26.283,25,29,25,29s4-2.717,4-5.585A2.3,2.3,0,0,0,26.84,21Z"></path><path d="M26,3a1,1,0,0,0-1-1H7A1,1,0,0,0,6,3V4H26Z"></path><path d="M6,6V24H19.04a3.685,3.685,0,0,1-.04-.58A4.3,4.3,0,0,1,23.16,19a3.891,3.891,0,0,1,1.84.46,3.518,3.518,0,0,1,1-.36V6Zm6,10H10V14h2Zm5,0H15V14h2Zm5,0H20V14h2Z"></path><path d="M19.64,26H6v3a1,1,0,0,0,1,1H23.01A12.519,12.519,0,0,1,19.64,26ZM17,29H15V27h2Z"></path></g></svg>