<svg xmlns="http://www.w3.org/2000/svg" viewBox="0 0 64 64" x="0px" y="0px"><g><path d="M32,25a1,1,0,0,1-1-1H29a3,3,0,0,0,2,2.816V28h2V26.816A2.993,2.993,0,0,0,32,21a1,1,0,1,1,1-1h2a3,3,0,0,0-2-2.816V16H31v1.184A2.993,2.993,0,0,0,32,23a1,1,0,0,1,0,2Z"></path><path d="M32,33A11,11,0,1,0,21,22,11.013,11.013,0,0,0,32,33Zm0-20a9,9,0,1,1-9,9A9.01,9.01,0,0,1,32,13Z"></path><rect x="37" y="21" width="2" height="2"></rect><rect x="25" y="21" width="2" height="2"></rect><path d="M58.438,51.892,48.66,31.831c.035-.05.076-.093.108-.147.626-1.082.155-2.382-.259-3.53a4.5,4.5,0,0,1-.433-1.844c.091-.339.734-.878,1.25-1.312.954-.8,2.034-1.707,2.034-3s-1.08-2.2-2.034-3c-.515-.433-1.158-.972-1.249-1.311a4.513,4.513,0,0,1,.432-1.845c.415-1.148.885-2.448.259-3.53s-2.007-1.337-3.218-1.551a4.461,4.461,0,0,1-1.783-.531,4.461,4.461,0,0,1-.531-1.783c-.215-1.211-.457-2.585-1.552-3.219s-2.382-.156-3.53.259a4.547,4.547,0,0,1-1.844.433c-.339-.091-.878-.734-1.312-1.25-.8-.954-1.707-2.034-3-2.034s-2.2,1.08-3,2.034c-.433.515-.972,1.158-1.311,1.249a4.527,4.527,0,0,1-1.845-.432c-1.147-.414-2.444-.885-3.53-.259S20.979,7.239,20.765,8.45a4.461,4.461,0,0,1-.531,1.783,4.461,4.461,0,0,1-1.783.531c-1.211.215-2.585.457-3.219,1.552s-.155,2.382.259,3.53a4.5,4.5,0,0,1,.433,1.844c-.091.339-.734.878-1.25,1.312-.954.8-2.034,1.707-2.034,3s1.08,2.2,2.034,3c.515.433,1.158.972,1.249,1.311a4.513,4.513,0,0,1-.432,1.845c-.415,1.148-.885,2.448-.259,3.53.032.054.073.1.108.147L5.562,51.892a1,1,0,0,0,1.032,1.429l10.05-1.361,5.123,8.765a1,1,0,0,0,.863.495h.038a1,1,0,0,0,.86-.561L32,43.289l8.473,17.369a1,1,0,0,0,.861.561h.037a1,1,0,0,0,.863-.495l5.123-8.765,10.05,1.361a1,1,0,0,0,1.032-1.429ZM14.64,22c0-.358.794-1.024,1.319-1.466a5.1,5.1,0,0,0,1.9-2.327,5.25,5.25,0,0,0-.483-3.041c-.212-.588-.568-1.572-.409-1.848s1.172-.466,1.837-.585a5.173,5.173,0,0,0,2.848-1.086A5.176,5.176,0,0,0,22.734,8.8c.118-.664.295-1.667.583-1.834s1.262.2,1.849.408a5.233,5.233,0,0,0,3.042.482,5.094,5.094,0,0,0,2.326-1.9C30.976,5.434,31.642,4.64,32,4.64s1.024.794,1.466,1.319a5.1,5.1,0,0,0,2.327,1.9,5.231,5.231,0,0,0,3.041-.483c.589-.212,1.574-.565,1.848-.409.29.168.466,1.172.585,1.837a5.173,5.173,0,0,0,1.086,2.848A5.176,5.176,0,0,0,45.2,12.734c.664.118,1.667.295,1.834.583s-.2,1.261-.408,1.849a5.244,5.244,0,0,0-.482,3.042,5.094,5.094,0,0,0,1.895,2.326c.525.442,1.319,1.108,1.319,1.466s-.794,1.024-1.319,1.466a5.1,5.1,0,0,0-1.9,2.327,5.25,5.25,0,0,0,.483,3.041c.212.588.568,1.572.409,1.848s-1.172.466-1.837.585a5.173,5.173,0,0,0-2.848,1.086A5.176,5.176,0,0,0,41.266,35.2c-.118.664-.3,1.667-.583,1.834s-1.261-.2-1.849-.408a5.247,5.247,0,0,0-3.042-.482,5.094,5.094,0,0,0-2.326,1.895c-.442.525-1.108,1.319-1.466,1.319s-1.024-.794-1.466-1.319a5.1,5.1,0,0,0-2.327-1.9,2.648,2.648,0,0,0-.69-.087,7.19,7.19,0,0,0-2.351.57c-.588.213-1.572.567-1.848.409s-.466-1.172-.585-1.837a5.173,5.173,0,0,0-1.086-2.848A5.176,5.176,0,0,0,18.8,31.266c-.664-.118-1.667-.295-1.834-.583s.2-1.261.408-1.849a5.244,5.244,0,0,0,.482-3.042,5.094,5.094,0,0,0-1.895-2.326C15.434,23.024,14.64,22.358,14.64,22Zm7.91,36.1-4.243-7.258,4.15-8.509-1.8-.877-4.146,8.5L8.178,51.088l4.437-9.1,4.493,2.192.877-1.8-4.494-2.193,3.539-7.261a12.678,12.678,0,0,0,1.42.309,4.461,4.461,0,0,1,1.783.531,4.461,4.461,0,0,1,.531,1.783c.215,1.211.457,2.585,1.552,3.219s2.382.155,3.53-.259a4.491,4.491,0,0,1,1.844-.433c.339.091.878.734,1.312,1.25a6.89,6.89,0,0,0,1.862,1.729l-3,6.144L23.378,45.01l-.877,1.8L26.991,49Zm24.936-8.143-4.146-8.5-1.8.877,4.15,8.509L41.45,58.1,37.009,49l4.49-2.19-.877-1.8-4.49,2.19-3-6.144A6.882,6.882,0,0,0,35,39.326c.433-.515.972-1.158,1.311-1.249a4.513,4.513,0,0,1,1.845.432c1.147.414,2.445.885,3.53.259s1.337-2.007,1.551-3.218a4.461,4.461,0,0,1,.531-1.783,4.461,4.461,0,0,1,1.783-.531,12.972,12.972,0,0,0,1.421-.309l3.539,7.26L46.015,42.38l.877,1.8,4.493-2.192,4.437,9.1Z"></path></g></svg>