<svg xmlns="http://www.w3.org/2000/svg" viewBox="0 0 64 64" x="0px" y="0px"><g data-name="Payment-Money-Credit Card-Smartphone-Payment"><rect x="14" y="4" width="14" height="2"></rect><circle cx="52" cy="23" r="1"></circle><rect x="36" y="14" width="4" height="2"></rect><circle cx="46" cy="41" r="3"></circle><rect x="44" y="50" width="4" height="1"></rect><rect x="44" y="53" width="4" height="1"></rect><path d="M55,24a1,1,0,0,0,0-2,.928.928,0,0,0-.172.038,2.776,2.776,0,0,1,0,1.924A.928.928,0,0,0,55,24Z"></path><path d="M38,56H32a2,2,0,0,1-2-2V34a2,2,0,0,1,2-2h6V30H33a3,3,0,0,1-3-3V11a3,3,0,0,1,3-3h5V7a3,3,0,0,0-3-3H30V6a2,2,0,0,1-2,2H14a2,2,0,0,1-2-2V4H7A3,3,0,0,0,4,7V57a3,3,0,0,0,3,3H35a3,3,0,0,0,3-3ZM17,42A11,11,0,1,1,28,31,11.013,11.013,0,0,1,17,42Z"></path><path d="M17,22a9,9,0,1,0,9,9A9.01,9.01,0,0,0,17,22Zm-1,8h2a3,3,0,0,1,0,6v2H16V36a3,3,0,0,1-3-3h2a1,1,0,0,0,1,1h2a1,1,0,0,0,0-2H16a3,3,0,0,1,0-6V24h2v2a3,3,0,0,1,3,3H19a1,1,0,0,0-1-1H16a1,1,0,0,0,0,2Z"></path><path d="M60,43.09V38.91A6.006,6.006,0,0,1,55.091,34L36.91,34A6.007,6.007,0,0,1,32,38.91v4.18A6.008,6.008,0,0,1,36.91,48H55.09A6.008,6.008,0,0,1,60,43.09ZM46,46a5,5,0,1,1,5-5A5.006,5.006,0,0,1,46,46Z"></path><path d="M60,45.142A4,4,0,0,0,57.142,48H60Z"></path><rect x="32" y="50" width="10" height="1"></rect><rect x="50" y="50" width="10" height="1"></rect><path d="M32,45.126V48h2.859A4.007,4.007,0,0,0,32,45.126Z"></path><rect x="50" y="53" width="10" height="1"></rect><rect x="32" y="53" width="10" height="1"></rect><path d="M60,36.858V34H57.143A3.993,3.993,0,0,0,60,36.858Z"></path><path d="M32,36.858A4,4,0,0,0,34.858,34H32Z"></path><path d="M32,11V27a1,1,0,0,0,1,1H59a1,1,0,0,0,1-1V11a1,1,0,0,0-1-1H33A1,1,0,0,0,32,11Zm8,15H38V24h2Zm4,0H42V24h2ZM56,13h2v4H56Zm-4,0h2v4H52Zm1.507,7.421A2.959,2.959,0,0,1,55,20a3,3,0,0,1,0,6,2.959,2.959,0,0,1-1.493-.421A2.965,2.965,0,0,1,52,26a3,3,0,0,1,0-6A2.965,2.965,0,0,1,53.507,20.421ZM48,13h2v4H48ZM34,13a1,1,0,0,1,1-1h6a1,1,0,0,1,1,1v4a1,1,0,0,1-1,1H35a1,1,0,0,1-1-1Zm0,7H44v2H34Zm0,4h2v2H34Z"></path></g></svg>