<svg xmlns="http://www.w3.org/2000/svg" viewBox="0 0 64 64" x="0px" y="0px"><g><path d="M31,60V13.414l-2.293,2.293a1,1,0,0,1-1.371.041L18.62,8h-.3a.906.906,0,0,0-.289.043L5.2,12.2A1.964,1.964,0,0,0,4,14.03V48h8V23h2V60Z"></path><rect x="52" y="50" width="8" height="2"></rect><path d="M60,14.03a1.978,1.978,0,0,0-1.257-1.85L45.991,8.051A.922.922,0,0,0,45.68,8h-.3l-8.716,7.748a1,1,0,0,1-1.371-.041L33,13.414V60H50V23h2V48h8ZM37,58H35V56h2Zm0-6H35V50h2Zm0-6H35V44h2Zm0-6H35V38h2Zm0-6H35V32h2Zm0-6H35V26h2Zm0-6H35V20h2Z"></path><polygon points="39.149 4 24.851 4 32 9.719 39.149 4"></polygon><polygon points="43.647 6.864 41.819 4.425 33.497 11.083 36.04 13.626 43.647 6.864"></polygon><rect x="4" y="50" width="8" height="2"></rect><polygon points="30.503 11.083 22.181 4.425 20.353 6.864 27.96 13.626 30.503 11.083"></polygon></g></svg>