<svg xmlns="http://www.w3.org/2000/svg" viewBox="0 0 64 64" x="0px" y="0px"><title>Presentaion business</title><g data-name="Presentaion business"><path d="M32,25a1,1,0,0,1-1-1H29a3,3,0,0,0,2,2.816V28h2V26.816A2.993,2.993,0,0,0,32,21a1,1,0,1,1,1-1h2a3,3,0,0,0-2-2.816V16H31v1.184A2.993,2.993,0,0,0,32,23a1,1,0,0,1,0,2Z"></path><path d="M16,37a1,1,0,0,1-1-1H13a3,3,0,0,0,2,2.816V40h2V38.816A2.993,2.993,0,0,0,16,33a1,1,0,1,1,1-1h2a3,3,0,0,0-2-2.816V28H15v1.184A2.993,2.993,0,0,0,16,35a1,1,0,0,1,0,2Z"></path><path d="M16,43a8.968,8.968,0,0,0,6.69-3,15.945,15.945,0,0,0,18.621,0A9.009,9.009,0,1,0,45.9,25.258a17.1,17.1,0,0,0-5.03-4.738,8.989,8.989,0,0,0-17.736,0,17.118,17.118,0,0,0-5.03,4.738A9,9,0,1,0,16,43Zm39-9a7,7,0,1,1-7-7A7.008,7.008,0,0,1,55,34ZM32,15a7,7,0,1,1-7,7A7.008,7.008,0,0,1,32,15Zm-8.947,7.962a9,9,0,0,0,17.894,0,15.142,15.142,0,0,1,3,3.012,8.973,8.973,0,0,0-3.807,12.4,13.951,13.951,0,0,1-16.286,0,8.973,8.973,0,0,0-3.807-12.4A15.115,15.115,0,0,1,23.053,22.962ZM16,27a7,7,0,1,1-7,7A7.008,7.008,0,0,1,16,27Z"></path><path d="M48,37a1,1,0,0,1-1-1H45a3,3,0,0,0,2,2.816V40h2V38.816A2.993,2.993,0,0,0,48,33a1,1,0,1,1,1-1h2a3,3,0,0,0-2-2.816V28H47v1.184A2.993,2.993,0,0,0,48,35a1,1,0,0,1,0,2Z"></path><rect x="10" y="14" width="6" height="2"></rect><rect x="10" y="18" width="6" height="2"></rect><rect x="46" y="14" width="2" height="2"></rect><rect x="50" y="14" width="4" height="2"></rect><rect x="46" y="18" width="8" height="2"></rect><path d="M62,12V6H36V2H28V6H2v6H4V44H2v6H28v6H21v6H43V56H36V50H62V44H60V12ZM30,4h4V6H30ZM4,8H60v2H4ZM41,58v2H23V58Zm-7-2H30V50h4Zm26-8H4V46H60Zm-2-4H6V12H58Z"></path></g></svg>