<svg xmlns="http://www.w3.org/2000/svg" viewBox="0 0 64 64" x="0px" y="0px"><g data-name="Chemex-Coffee Maker-Coffee-Hot Drink-Food"><path d="M61,56H54.26a4.91,4.91,0,0,0,1-2.64l.14-1.92,3.3-.83A4.372,4.372,0,0,0,57.63,42H43a1.007,1.007,0,0,0-.73.32.985.985,0,0,0-.27.75l.74,10.29a4.91,4.91,0,0,0,1,2.64H34.6c.11-.09.23-.18.33-.27l1.16-1.03a11.051,11.051,0,0,0,2.67-12.87L31.75,26.8a2.033,2.033,0,0,0,.84-.73,1.969,1.969,0,0,0,.12-1.91l-2.33-5a1,1,0,0,1-.04-.72l1.52-4.84a1.99,1.99,0,0,0-.3-1.78,2.012,2.012,0,0,0-1.04-.73L32.95,3.3A.992.992,0,0,0,32,2H10a.992.992,0,0,0-.95,1.3l2.43,7.79a1.957,1.957,0,0,0-1.04.73,1.98,1.98,0,0,0-.3,1.78l1.52,4.84a1,1,0,0,1-.04.72L9.29,24.15a2.027,2.027,0,0,0-.19.86,1.926,1.926,0,0,0,.31,1.06,2.033,2.033,0,0,0,.84.73L3.24,41.83A11.051,11.051,0,0,0,5.91,54.7l1.15,1.03c.11.09.23.18.34.27H3a1,1,0,0,0-1,1v2a3.009,3.009,0,0,0,3,3H59a3.009,3.009,0,0,0,3-3V57A1,1,0,0,0,61,56ZM55.93,44h1.7a2.373,2.373,0,0,1,1.87,3.83,2.343,2.343,0,0,1-1.29.84l-2.66.67Zm-2,0-.66,9.21A3.009,3.009,0,0,1,50.28,56H47.72a3.009,3.009,0,0,1-2.99-2.79L44.07,44ZM30.9,25H24.38l-1.43-3.74A2.951,2.951,0,0,0,23.82,20h4.75v.01Zm-9.98-3.01c.02,0,.05.01.08.01s.06-.01.08-.01L22.24,25H19.76ZM20,19a1,1,0,1,1,1,1A1,1,0,0,1,20,19Zm1-3a3.01,3.01,0,0,0-2.82,2H13.61c-.02-.05-.02-.11-.04-.16L12.05,13h17.9l-1.52,4.84c-.02.05-.02.11-.04.16H23.82A3.01,3.01,0,0,0,21,16ZM11.36,4H30.64l-2.19,7H13.55Zm2.07,16.01V20h4.75a2.951,2.951,0,0,0,.87,1.26L17.62,25H11.1ZM12.37,27h4.48l-.77,2.01c-.02,0-.05-.01-.08-.01a3,3,0,1,0,3,3,2.964,2.964,0,0,0-1.05-2.26L19,27h4l1.05,2.74A2.964,2.964,0,0,0,23,32a3,3,0,1,0,3-3c-.03,0-.06.01-.08.01L25.15,27h4.48l7,15H5.37ZM17,32a1,1,0,1,1-1-1A1,1,0,0,1,17,32Zm8,0a1,1,0,1,1,1,1A1,1,0,0,1,25,32ZM7.23,53.2A9.063,9.063,0,0,1,4.56,44H37.44a9.063,9.063,0,0,1-2.67,9.2L33.6,54.23A6.938,6.938,0,0,1,28.96,56H13.04a6.982,6.982,0,0,1-4.65-1.77ZM60,59a1,1,0,0,1-1,1H5a1,1,0,0,1-1-1V58H60Z"></path></g></svg>