<svg xmlns="http://www.w3.org/2000/svg" viewBox="0 0 64 64" x="0px" y="0px"><g><rect x="39" y="45" width="4" height="5"></rect><rect x="33" y="24" width="4" height="5"></rect><rect x="33" y="45" width="4" height="5"></rect><rect x="39" y="31" width="4" height="5"></rect><rect x="33" y="31" width="4" height="5"></rect><rect x="33" y="38" width="4" height="5"></rect><rect x="39" y="38" width="4" height="5"></rect><rect x="45" y="24" width="4" height="5"></rect><rect x="39" y="24" width="4" height="5"></rect><rect x="45" y="31" width="4" height="5"></rect><polygon points="55 9 51 9 51 12 49 12 49 9 45 9 45 12 43 12 43 9 39 9 39 12 37 12 37 9 33 9 33 12 31 12 31 9 27 9 27 12 25 12 25 9 21 9 21 12 19 12 19 9 15 9 15 12 13 12 13 9 9 9 9 16 55 16 55 9"></polygon><rect x="45" y="38" width="4" height="5"></rect><rect x="45" y="45" width="4" height="5"></rect><rect x="27" y="24" width="4" height="5"></rect><rect x="15" y="31" width="4" height="5"></rect><rect x="15" y="24" width="4" height="5"></rect><rect x="15" y="38" width="4" height="5"></rect><rect x="21" y="45" width="4" height="5"></rect><path d="M9,55H55V18H9Zm4-32a1,1,0,0,1,1-1H50a1,1,0,0,1,1,1V51a1,1,0,0,1-1,1H14a1,1,0,0,1-1-1Z"></path><rect x="15" y="45" width="4" height="5"></rect><rect x="27" y="31" width="4" height="5"></rect><rect x="21" y="38" width="4" height="5"></rect><rect x="27" y="45" width="4" height="5"></rect><rect x="27" y="38" width="4" height="5"></rect><rect x="21" y="31" width="4" height="5"></rect><rect x="21" y="24" width="4" height="5"></rect><rect x="13" y="4" width="2" height="5"></rect><rect x="19" y="4" width="2" height="5"></rect><rect x="25" y="4" width="2" height="5"></rect><rect x="31" y="4" width="2" height="5"></rect><rect x="37" y="4" width="2" height="5"></rect><rect x="43" y="4" width="2" height="5"></rect><rect x="49" y="4" width="2" height="5"></rect></g></svg>