<svg xmlns="http://www.w3.org/2000/svg" viewBox="0 0 64 64" x="0px" y="0px"><g><path d="M32,30A13,13,0,1,0,19,17,13.015,13.015,0,0,0,32,30ZM26.959,7.089a5.953,5.953,0,0,1,4.5,1.025.932.932,0,0,0,1.074,0,5.965,5.965,0,0,1,4.5-1.025,5.995,5.995,0,0,1,4.268,8.7,16.111,16.111,0,0,0-1.893,5.962L39.179,24.2A3.1,3.1,0,0,1,33,23.9V21a1,1,0,0,0-2,0v2.9a3.1,3.1,0,0,1-6.179.3l-.237-2.449a16.1,16.1,0,0,0-1.893-5.961,6,6,0,0,1,4.268-8.7Z"></path><path d="M26.574,21.56l.238,2.449A1.1,1.1,0,0,0,29,23.9V21a3,3,0,0,1,6,0v2.9a1.1,1.1,0,0,0,2.188.106l.238-2.449a18.094,18.094,0,0,1,2.115-6.7A3.989,3.989,0,0,0,33.7,9.74a2.922,2.922,0,0,1-3.4,0,3.964,3.964,0,0,0-3-.679,3.995,3.995,0,0,0-2.837,5.794A18.094,18.094,0,0,1,26.574,21.56Zm2.838-11.071a6.981,6.981,0,0,0,5.177,0l.822,1.823a8.795,8.795,0,0,1-6.82,0Z"></path><path d="M25.486,42.9l-2.9-2.9H20V38h.586l-1.364-1.364,1.414-1.414L24,38.586V37h2v3.586l.9.9a4,4,0,0,0-.607-4.85c-1.765-1.765-5.839-2.361-8.157-2.5.139,2.318.735,6.392,2.5,8.157A4,4,0,0,0,25.486,42.9Z"></path><path d="M37.1,39.486l.9-.9V35h2v1.586l3.364-3.364,1.414,1.414L43.414,36H44v2H41.414l-2.9,2.9a4,4,0,0,0,4.85-.607c1.765-1.765,2.361-5.839,2.5-8.157-2.318.139-6.392.735-8.157,2.5A4,4,0,0,0,37.1,39.486Z"></path><rect x="14" y="50" width="36" height="2"></rect><rect x="16" y="54" width="32" height="6"></rect><path d="M37.06,42.36l-2.35,2.35A1.033,1.033,0,0,1,34,45H33v3H31V47H30a1.033,1.033,0,0,1-.71-.29l-2.35-2.35a5.983,5.983,0,0,0,1.42-1.42L30.41,45H31V32h2V43h.59l2.05-2.06a5.983,5.983,0,0,0,1.42,1.42Z"></path></g></svg>