<svg xmlns="http://www.w3.org/2000/svg" data-name="Layer 38" viewBox="0 0 64 64" x="0px" y="0px"><g><path d="M42,54a1,1,0,0,0,1-1V48H21v5a1,1,0,0,0,1,1Z"></path><path d="M56,8H32.9A5,5,0,0,1,33,9V27a5.006,5.006,0,0,1-5,5H8a4.948,4.948,0,0,1-3-1.026V43a3,3,0,0,0,3,3H56a3,3,0,0,0,3-3V11A3,3,0,0,0,56,8Zm1,18a2,2,0,0,1-2,2H37a2,2,0,0,1-2-2V12a2,2,0,0,1,2-2H55a2,2,0,0,1,2,2Z"></path><polygon points="39 56 25 56 25 60 8 60 8 62 56 62 56 60 39 60 39 56"></polygon><rect x="37" y="12" width="18.001" height="14"></rect><path d="M8,30H28a3,3,0,0,0,3-3V9a3,3,0,0,0-3-3H8A3,3,0,0,0,5,9V27A3,3,0,0,0,8,30ZM18,7A11,11,0,1,1,7,18,11.013,11.013,0,0,1,18,7Z"></path><circle cx="18" cy="18" r="9"></circle></g></svg>