<svg xmlns="http://www.w3.org/2000/svg" viewBox="0 0 64 64" x="0px" y="0px"><g data-name="Space Rocket"><circle cx="5" cy="48" r="2"></circle><circle cx="49" cy="15" r="2"></circle><polygon points="56 8 58 8 58 6 60 6 60 4 58 4 58 2 56 2 56 4 54 4 54 6 56 6 56 8"></polygon><polygon points="47 29 49 29 49 27 51 27 51 25 49 25 49 23 47 23 47 25 45 25 45 27 47 27 47 29"></polygon><polygon points="29 48 27 48 27 50 25 50 25 52 27 52 27 54 29 54 29 52 31 52 31 50 29 50 29 48"></polygon><rect x="15" y="4" width="2" height="2"></rect><rect x="2" y="9" width="2" height="2"></rect><rect x="25" y="60" width="2" height="2"></rect><rect x="18" y="42" width="2" height="2"></rect><rect x="11" y="57" width="2" height="2"></rect><path d="M60.293,60.293c.529-.529-.357-3.185-1.414-4.243a2,2,0,1,0-2.829,2.829C57.107,59.936,59.762,60.82,60.293,60.293Z"></path><path d="M41.2,40.2a1,1,0,1,0,.707.292A.995.995,0,0,0,41.2,40.2Z"></path><path d="M42.928,56.444l2.516-2.515-4.166-4.166a3.013,3.013,0,0,0-.141,2.74Z"></path><path d="M52.515,46.858,44.16,38.5a2.953,2.953,0,0,0-1.547-.824,17.621,17.621,0,0,0-3.183-.349,2.942,2.942,0,0,0-1.764.336c-.267.266-.606,1.643.013,4.947A2.953,2.953,0,0,0,38.5,44.16l8.355,8.355Zm-9.193-3.536a3,3,0,1,1,0-4.243h0A3,3,0,0,1,43.322,43.322Z"></path><path d="M56.444,42.929,52.5,41.137a3.014,3.014,0,0,0-2.739.142l4.165,4.165Z"></path><polygon points="53.551 50.065 53.315 48.886 48.886 53.315 50.065 53.551 53.551 50.065"></polygon><path d="M34.957,21.243c-1.855,2.206-4.055,4.59-6.59,7.124s-4.918,4.735-7.124,6.59c.253.015.507.043.757.043A13.015,13.015,0,0,0,35,22C35,21.75,34.972,21.5,34.957,21.243Z"></path><path d="M38.973,5.027c-.815-.814-3.208-3.2-11.655,2.962A14.742,14.742,0,0,1,29.46,9.005c5.595-3.912,7.307-3.352,8.1-2.562.817.816,1.4,2.6-2.935,8.631a89.415,89.415,0,0,1-9.085,10.463,89.415,89.415,0,0,1-10.463,9.085c-3.795,2.729-5.908,3.509-7.157,3.509a1.947,1.947,0,0,1-1.474-.574c-.792-.791-1.351-2.5,2.562-8.1a14.78,14.78,0,0,1-1.016-2.141C1.828,35.764,4.212,38.158,5.027,38.973c.864.863,3.488,3.487,13.186-4.119a101.785,101.785,0,0,0,8.74-7.9,101.482,101.482,0,0,0,7.9-8.742C42.46,8.515,39.835,5.89,38.973,5.027Z"></path><path d="M20.465,9.1A13.013,13.013,0,0,0,9.1,20.465,16.015,16.015,0,0,0,20.465,9.1Z"></path><path d="M9.335,24.95q.126.526.292,1.036c.124,0,.246.014.373.014A16.019,16.019,0,0,0,26,10c0-.127-.011-.248-.014-.373-.343-.111-.692-.21-1.047-.294a13.592,13.592,0,0,0-2.409-.3,18,18,0,0,1-13.5,13.5A13.625,13.625,0,0,0,9.335,24.95Z"></path><path d="M27.977,10.46A18,18,0,0,1,10.46,27.977c.176.339.366.671.572.993a13.057,13.057,0,0,0,3.447,3.6,89.494,89.494,0,0,0,9.644-8.451,89.494,89.494,0,0,0,8.451-9.644,13.066,13.066,0,0,0-3.6-3.445C28.65,10.827,28.317,10.637,27.977,10.46Z"></path></g></svg>