<svg xmlns="http://www.w3.org/2000/svg" viewBox="0 0 48 48" x="0px" y="0px"><title>E mail</title><g data-name="E mail"><path d="M46,34H45V11a5.006,5.006,0,0,0-5-5H10a5.006,5.006,0,0,0-5,5v3H7V11a3,3,0,0,1,3-3H40a3,3,0,0,1,3,3V34H7V28H5v6H4a1,1,0,0,0-1,1v3a2,2,0,0,0,2,2H45a2,2,0,0,0,2-2V35A1,1,0,0,0,46,34ZM5,38V36H21a1,1,0,0,0,1,1h6a1,1,0,0,0,1-1H45v2Z"></path><path d="M9,31a1,1,0,0,0,1,1H40a1,1,0,0,0,1-1V11a1,1,0,0,0-1-1H10a1,1,0,0,0-1,1v2h2V12H39V30H11V29H9Z"></path><path d="M28,27a1,1,0,0,0,1-1V16a.9.9,0,0,0-.018-.09.973.973,0,0,0-.014-.161c-.007-.027-.025-.049-.034-.075a1.022,1.022,0,0,0-.058-.131,1.01,1.01,0,0,0-.123-.183.951.951,0,0,0-.092-.1,1,1,0,0,0-.2-.133.883.883,0,0,0-.105-.056A.988.988,0,0,0,28,15H10a.988.988,0,0,0-.36.073.8.8,0,0,0-.1.056,1.012,1.012,0,0,0-.2.132,1.078,1.078,0,0,0-.092.1,1.01,1.01,0,0,0-.123.183.964.964,0,0,0-.058.131c-.009.026-.027.048-.034.075a.973.973,0,0,0-.014.161A.9.9,0,0,0,9,16V26a1,1,0,0,0,1,1ZM11,25V17.7l7.515,4.175a1,1,0,0,0,.97,0L27,17.7V25Zm13.141-8L19,19.856,13.859,17Z"></path><rect x="6" y="16" width="2" height="2"></rect><rect x="3" y="20" width="5" height="2"></rect><rect x="1" y="24" width="7" height="2"></rect><rect x="31" y="20" width="2" height="2"></rect></g></svg>