<svg xmlns="http://www.w3.org/2000/svg" viewBox="0 0 64 64" x="0px" y="0px"><g><circle cx="32" cy="29" r="2"></circle><path d="M35.858,28H44.68L50,24.2V22a1,1,0,0,0-1-1H15a1,1,0,0,0-1,1v2.2L19.32,28h8.822a3.981,3.981,0,0,1,7.716,0Z"></path><path d="M15,43H49a1,1,0,0,0,1-1V26.655l-4.418,3.158A1,1,0,0,1,45,30H35.858a3.981,3.981,0,0,1-7.716,0H19a1,1,0,0,1-.582-.187L14,26.655V42A1,1,0,0,0,15,43Z"></path><path d="M34.309,5.105l2.4-2.4L35.293,1.293l-4,4a1,1,0,0,0,0,1.414l4,4,1.414-1.414L34.543,7.129a25,25,0,0,1,3.228,49.2l.458,1.946a27,27,0,0,0-3.92-53.172Z"></path><path d="M28.707,53.293l-1.414,1.414,2.164,2.164a25,25,0,0,1-3.228-49.2l-.458-1.946A27,27,0,0,0,29.691,58.9l-2.4,2.4,1.414,1.414,4-4a1,1,0,0,0,0-1.414Z"></path></g></svg>