<svg xmlns="http://www.w3.org/2000/svg" viewBox="0 0 64 64" x="0px" y="0px"><g><path d="M61,40H3a1,1,0,0,0-1,1V61a1,1,0,0,0,1,1H61a1,1,0,0,0,1-1V41A1,1,0,0,0,61,40ZM37,42v4H27V42ZM21,42h4v5a1,1,0,0,0,1,1H38a1,1,0,0,0,1-1V42H60V54H4V42ZM4,60V56H60v4Z"></path><path d="M23.443,25H27a1,1,0,0,0,.895-.553l.52-1.041.637,1.91v0A3.969,3.969,0,0,0,28,28c0,2.06,1.558,6,4,6s4-3.94,4-6a3.969,3.969,0,0,0-1.053-2.682v0l.637-1.91.52,1.041A1,1,0,0,0,37,25h3.557a2,2,0,0,0,1.873-2.7l-2.007-5.35A3.011,3.011,0,0,0,38,15.03V9.185a4.937,4.937,0,0,0-.861-2.806C34.143,2,32.53,2,32,2s-2.143,0-5.138,4.378A4.935,4.935,0,0,0,26,9.185V15.03a3.012,3.012,0,0,0-2.423,1.917L21.57,22.3A2,2,0,0,0,23.443,25Zm10.17-2-.334,1H30.721l-.334-1ZM32,32c-.748,0-2-2.5-2-4a2,2,0,0,1,4,0C34,29.5,32.748,32,32,32Zm6.55-14.351L40.557,23H37.618l-.087-.174A.982.982,0,0,0,38,22V17.089A.993.993,0,0,1,38.55,17.649ZM28,9.185a2.95,2.95,0,0,1,.512-1.677C30.41,4.733,31.624,4,32,4s1.59.733,3.489,3.509A2.951,2.951,0,0,1,36,9.185V21H33V15H31v6H28Zm-2.55,8.463a.994.994,0,0,1,.55-.559V22a.982.982,0,0,0,.469.826L26.382,23H23.443Z"></path><path d="M32,12a3,3,0,1,0-3-3A3,3,0,0,0,32,12Zm0-4a1,1,0,1,1-1,1A1,1,0,0,1,32,8Z"></path><path d="M20,37a1,1,0,0,1,1-1,.976.976,0,0,1,.506.138,1,1,0,0,0,1.508-.966A1.516,1.516,0,0,1,23,35a1,1,0,0,1,2,0h2a3,3,0,0,0-5.83-.995A3,3,0,1,0,21,40V38A1,1,0,0,1,20,37Z"></path><path d="M46,37a3.01,3.01,0,0,0-3.17-2.995A3,3,0,0,0,37,35h2a1,1,0,0,1,2,0,1.516,1.516,0,0,1-.014.172,1,1,0,0,0,1.508.966A.976.976,0,0,1,43,36a1,1,0,0,1,0,2v2A3,3,0,0,0,46,37Z"></path><rect x="47" y="10" width="2" height="8"></rect><rect x="47" y="20" width="2" height="2"></rect><rect x="53" y="16" width="2" height="6"></rect><rect x="53" y="24" width="2" height="2"></rect><rect x="58" y="21" width="2" height="6"></rect><rect x="58" y="29" width="2" height="2"></rect><rect x="47" y="24" width="2" height="2"></rect><rect x="15" y="10" width="2" height="8"></rect><rect x="15" y="20" width="2" height="2"></rect><rect x="9" y="16" width="2" height="6"></rect><rect x="9" y="24" width="2" height="2"></rect><rect x="4" y="21" width="2" height="6"></rect><rect x="4" y="29" width="2" height="2"></rect><rect x="15" y="24" width="2" height="2"></rect></g></svg>