<svg xmlns="http://www.w3.org/2000/svg" viewBox="0 0 64 64" x="0px" y="0px"><g data-name="Chair"><path d="M48,32H45V29.414l1.707-1.707A1,1,0,0,0,47,27V5a1,1,0,0,0-.293-.707l-2-2A1,1,0,0,0,44,2H20a1,1,0,0,0-.707.293l-2,2A1,1,0,0,0,17,5V27a1,1,0,0,0,.293.707L19,29.414V32H16a1,1,0,0,0-1,1v6a1,1,0,0,0,1,1h2V61a1,1,0,0,0,1,1h4a1,1,0,0,0,1-1V57H40v4a1,1,0,0,0,1,1h4a1,1,0,0,0,1-1V40h2a1,1,0,0,0,1-1V33A1,1,0,0,0,48,32Zm-7,0V30h2v2Zm-2-2v2H25V30ZM19,5.414,20.414,4H43.586L45,5.414V26.586L43.586,28H20.414L19,26.586ZM21,30h2v2H21ZM20,60V40h2V60Zm4-5V40H40V55Zm20,5H42V40h2Zm3-22H17V34H47Z"></path><path d="M24,26H40a3,3,0,0,0,3-3V9a3,3,0,0,0-3-3H24a3,3,0,0,0-3,3V23A3,3,0,0,0,24,26ZM23,9a1,1,0,0,1,1-1H40a1,1,0,0,1,1,1V23a1,1,0,0,1-1,1H24a1,1,0,0,1-1-1Z"></path><polygon points="27 15 29 15 29 14 30 14 30 12 29 12 29 11 27 11 27 12 26 12 26 14 27 14 27 15"></polygon><polygon points="35 15 37 15 37 14 38 14 38 12 37 12 37 11 35 11 35 12 34 12 34 14 35 14 35 15"></polygon><polygon points="27 21 29 21 29 20 30 20 30 18 29 18 29 17 27 17 27 18 26 18 26 20 27 20 27 21"></polygon><polygon points="35 21 37 21 37 20 38 20 38 18 37 18 37 17 35 17 35 18 34 18 34 20 35 20 35 21"></polygon></g></svg>