<svg xmlns="http://www.w3.org/2000/svg" viewBox="0 0 64 64" x="0px" y="0px"><title>Navigation</title><g><path d="M45,50H19v2H45v5a3,3,0,0,1-3,3H18a3,3,0,0,1-3-3V12H41V10H15V7a3,3,0,0,1,3-3H42a3,3,0,0,1,3,3v4.833h2V7a5.006,5.006,0,0,0-5-5H18a5.006,5.006,0,0,0-5,5V57a5.006,5.006,0,0,0,5,5H42a5.006,5.006,0,0,0,5-5V39H45Z"></path><rect x="29" y="55" width="2" height="2"></rect><rect x="22" y="6" width="2" height="2"></rect><rect x="26" y="6" width="2" height="2"></rect><path d="M22,14H18a1,1,0,0,0-1,1v4h2V16h3Z"></path><path d="M35,22c0,7.292,6.952,15.32,7.248,15.658a1,1,0,0,0,1.5,0C44.048,37.32,51,29.292,51,22a8,8,0,0,0-16,0Zm14,0c0,5.2-4.239,11.165-6,13.417C41.239,33.165,37,27.205,37,22a6,6,0,0,1,12,0Z"></path><path d="M39,22a4,4,0,1,0,4-4A4,4,0,0,0,39,22Zm6,0a2,2,0,1,1-2-2A2,2,0,0,1,45,22Z"></path><path d="M28,23H26v7H23v2h4a1,1,0,0,0,1-1Z"></path><path d="M30,23v8a1,1,0,0,0,1,1h4V30H32V23Z"></path><path d="M28,47V35a1,1,0,0,0-1-1H21v2h5V47Z"></path><path d="M39,36V34H31a1,1,0,0,0-1,1v4a1,1,0,0,0,1,1h6V38H32V36Z"></path><path d="M30,43v2h2V44h5V42H31A1,1,0,0,0,30,43Z"></path></g></svg>