<svg xmlns="http://www.w3.org/2000/svg" viewBox="0 0 64 64" x="0px" y="0px"><g><rect x="8" y="34" width="2" height="2"></rect><rect x="8" y="30" width="2" height="2"></rect><rect x="8" y="26" width="2" height="2"></rect><path d="M21,4V26H47V4Zm4,4h2v2H25ZM43,22H25V20H43Zm0-4H25V16H43Zm0-4H25V12H43Zm0-4H29V8H43Z"></path><rect x="12" y="29" width="2" height="4"></rect><rect x="54" y="29" width="2" height="4"></rect><rect x="58" y="34" width="2" height="2"></rect><path d="M16,34H52V28H16Zm22-4H48v2H38ZM20,30h2v2H20Z"></path><path d="M11,60H57a1,1,0,0,0,1-1V56H10v3A1,1,0,0,0,11,60Z"></path><path d="M10.34,54H57.66l-5.4-18H15.74ZM19,48H15V46h4Zm29,4H20V50H48ZM23,48V46h2v2Zm4,0V46h2v2Zm4,0V46h2v2Zm4,0V46h2v2Zm4,0V46h2v2Zm4,0V46h2v2Zm10-2v2H49V46Zm-2-2H49V42h2Zm-4-6h2v2H47Zm0,6H45V42h2Zm-4-6h2v2H43Zm0,6H41V42h2Zm-4-6h2v2H39Zm0,6H37V42h2Zm-4-6h2v2H35Zm0,6H33V42h2Zm-4-6h2v2H31Zm0,6H29V42h2Zm-4-6h2v2H27Zm0,6H25V42h2Zm-4-6h2v2H23Zm0,6H21V42h2Zm-4-6h2v2H19Zm-2,4h2v2H17Z"></path><rect x="58" y="26" width="2" height="2"></rect><rect x="58" y="30" width="2" height="2"></rect><path d="M18,26H16V24.414L13.586,22H4a1,1,0,0,1-1-1V18H5v2h9a1,1,0,0,1,.707.293l3,3A1,1,0,0,1,18,24Z"></path></g></svg>