<svg xmlns="http://www.w3.org/2000/svg" viewBox="0 0 64 64" x="0px" y="0px"><g><path d="M51,34H43a7.009,7.009,0,0,0-7,7v6a3,3,0,0,0,3,3h2.517a2.983,2.983,0,0,0,2.871-2.128l.52-1.713A.866.866,0,0,0,44.942,46h4.116a.856.856,0,0,0,.034.158l.52,1.712A2.983,2.983,0,0,0,52.483,50H55a3,3,0,0,0,3-3V41A7.009,7.009,0,0,0,51,34Zm5,13a1,1,0,0,1-1,1H52.483a1,1,0,0,1-.957-.71l-.5-1.648A2.006,2.006,0,0,0,49.058,44H44.942a2.006,2.006,0,0,0-1.967,1.642l-.5,1.649a1,1,0,0,1-.957.709H39a1,1,0,0,1-1-1V41a5.006,5.006,0,0,1,5-5h8a5.006,5.006,0,0,1,5,5Z"></path><path d="M59,30H35a3.009,3.009,0,0,0-3,3v2.52l-4-1.25V30.79A11.028,11.028,0,0,0,33.95,22H34a4,4,0,0,0,0-8V6a1,1,0,0,0-1-1H30V3a1,1,0,0,0-1-1H19a7.008,7.008,0,0,0-7,7v5a4,4,0,1,0,0,8h.05A11.028,11.028,0,0,0,18,30.79v3.47L8.31,37.29A8.963,8.963,0,0,0,2,45.88V61a1,1,0,0,0,1,1H52a3,3,0,0,0,0-6H51V54h8a3.009,3.009,0,0,0,3-3V33A3.009,3.009,0,0,0,59,30ZM34,16a2.006,2.006,0,0,1,2,2,2.015,2.015,0,0,1-2,2ZM12,20a2.015,2.015,0,0,1-2-2,2.006,2.006,0,0,1,2-2ZM29.71,7H32v3.18A3,3,0,0,0,31,10H27.89A7.065,7.065,0,0,0,29.71,7ZM14,9a5,5,0,0,1,5-5h9V5a5,5,0,0,1-5,5H15a3,3,0,0,0-1,.18Zm0,12V13a1,1,0,0,1,1-1H31a1,1,0,0,1,1,1v8a9,9,0,0,1-18,0ZM26,31.57V35a3,3,0,0,1-6,0V31.57a10.68,10.68,0,0,0,6,0ZM18.19,36.3a4.977,4.977,0,0,0,9.62,0l1.93.6a7,7,0,0,1-13.48,0ZM10,60H4V56h6Zm0-6H4V52h6Zm24,6H12V46H10v4H4V45.88A6.964,6.964,0,0,1,8.91,39.2l5.45-1.7a8.992,8.992,0,0,0,17.28,0l.36.11V51a3.01,3.01,0,0,0,2,2.82Zm5.18,0H36V54h7v2H42a2.98,2.98,0,0,0-2.82,4ZM52,58a1,1,0,0,1,0,2H42a1,1,0,0,1,0-2Zm-7-2V54h4v2Zm15-5a1,1,0,0,1-1,1H35a1,1,0,0,1-1-1V33a1,1,0,0,1,1-1H59a1,1,0,0,1,1,1Z"></path><circle cx="42" cy="40" r="2"></circle><rect x="46" y="39" width="2" height="2"></rect><circle cx="19" cy="18" r="2"></circle><circle cx="27" cy="18" r="2"></circle><path d="M26.307,24.75l-1.323-1.5a3.076,3.076,0,0,1-3.968,0l-1.323,1.5a5,5,0,0,0,6.614,0Z"></path><polygon points="53 38 51 38 51 39 50 39 50 41 51 41 51 42 53 42 53 41 54 41 54 39 53 39 53 38"></polygon></g></svg>