<svg xmlns="http://www.w3.org/2000/svg" viewBox="0 0 64 64" x="0px" y="0px"><g data-name="Grill"><path d="M38.366,39.78,32,33.414,29.174,36.24l.486.486a6.993,6.993,0,0,1,8.5,3.26Z"></path><path d="M27.817,37.711l-.057-.057L25.634,39.78l.206.206a7.042,7.042,0,0,1,1.21-1.622A7.124,7.124,0,0,1,27.817,37.711Z"></path><path d="M25,43.313a7.142,7.142,0,0,1,.112-1.227l-.892-.892L22.1,43.31l4.879,4.879A6.95,6.95,0,0,1,25,43.313Z"></path><path d="M22.806,39.78l-3.465-3.465L18,37.657a3.958,3.958,0,0,1-.9.653L20.69,41.9Z"></path><path d="M42.457,35.689a4.008,4.008,0,0,1-2.281-2.579L36.24,29.174,33.414,32l6.366,6.366Z"></path><rect x="47.263" y="11.736" width="2" height="8.001" transform="translate(3.009 38.737) rotate(-45)"></rect><path d="M38.288,14.254c.024.024.051.044.076.068s.044.052.068.076l4.878,4.878,2.125-2.125-6.366-6.366L36.944,12.91Z"></path><path d="M20.829,27.173a2,2,0,0,0-1.415.584l-5.657,5.657a2,2,0,1,0,2.829,2.829l5.657-5.657a2,2,0,0,0-1.414-3.413Z"></path><path d="M44,34h8a2,2,0,0,0,0-4H44a2,2,0,0,0,0,4Z"></path><path d="M28.47,49.676l.206-.206a6.965,6.965,0,0,1-1.555-1.143Z"></path><path d="M35.536,46.849a5,5,0,1,0-7.072,0A4.968,4.968,0,0,0,35.536,46.849Zm-7.072-4.243,2.829-2.828,1.414,1.414-2.829,2.829Zm5.658,0,1.414,1.415-2.829,2.828-1.414-1.414Z"></path><rect x="22.047" y="33.121" width="3.007" height="4.9" transform="translate(-18.254 27.071) rotate(-45)"></rect><rect x="47.467" y="18.309" width="3.005" height="9.003" transform="translate(-1.787 41.308) rotate(-45)"></rect><path d="M41.9,20.69l-.954-.954a9.091,9.091,0,0,1,0,1.909Z"></path><rect x="32.262" y="3.607" width="3.005" height="7.997" transform="translate(4.511 26.103) rotate(-45)"></rect><polygon points="49.206 28 43.31 22.104 41.194 24.22 44.974 28 49.206 28"></polygon><path d="M23.576,26.278c.026.024.056.04.081.065a4,4,0,0,1,.559,4.939l3.544,3.544L30.586,32,24.22,25.634Z"></path><path d="M36.874,15.668a7,7,0,1,0,.144.144Zm-10.531,3.6,4.243-4.243L32,16.443l-4.243,4.243Zm2.828,5.657-1.414-1.414,7.072-7.071,1.414,1.414Zm4.243,1.414L32,24.929l4.243-4.242L37.657,22.1Z"></path><path d="M37.654,27.76l2.669,2.669a4.023,4.023,0,0,1,2.134-2.118L39.78,25.634Z"></path><path d="M31.041,29.627l.959.959.959-.959a8.388,8.388,0,0,1-1.918,0Z"></path><path d="M36.95,48.263a6.969,6.969,0,0,1-1.626,1.207l3.745,3.745L41.2,51.089,37.6,47.5A7.051,7.051,0,0,1,36.95,48.263Z"></path><path d="M38.888,42.086A7.142,7.142,0,0,1,39,43.313a6.986,6.986,0,0,1-.409,2.344l4.018,4.018,2.826-2.826L39.78,41.194Z"></path><rect x="43.436" y="37.196" width="3.996" height="7.997" transform="translate(-15.821 44.193) rotate(-45)"></rect><path d="M32,50.31a6.992,6.992,0,0,1-1.224-.112l-.892.892,5.655,5.655,2.116-2.116L33.224,50.2A6.992,6.992,0,0,1,32,50.31Z"></path><polygon points="45.894 36 51.089 41.195 53.215 39.069 50.146 36 45.894 36"></polygon><path d="M52.872,28.1A4,4,0,0,1,56,31.962l2.163,2.163L60.284,32l-5.655-5.655Z"></path><path d="M52.872,35.9l1.757,1.757,2.116-2.116L55.36,34.154A4,4,0,0,1,52.872,35.9Z"></path><rect x="28.732" y="52.395" width="3.005" height="7.997" transform="translate(-31.021 37.897) rotate(-45)"></rect><rect x="21.308" y="44.468" width="3.005" height="9.003" transform="translate(-27.946 30.472) rotate(-45)"></rect><path d="M32.95,11.744,28.461,7.255,26.345,9.371l2.794,2.794A9.045,9.045,0,0,1,32.95,11.744Z"></path><path d="M21.737,25.289l1.069-1.069-5.655-5.655-2.826,2.826,4.393,4.393A4,4,0,0,1,21.737,25.289Z"></path><rect x="12.501" y="22.975" width="3.007" height="6.101" transform="translate(-14.3 17.525) rotate(-45)"></rect><path d="M25.636,14.322a8.954,8.954,0,0,1,1.581-1.251l-2.286-2.286-2.126,2.126,2.163,2.163A9.235,9.235,0,0,1,25.636,14.322Z"></path><path d="M23.884,16.819l-2.493-2.494-2.826,2.826,4.494,4.494A9.028,9.028,0,0,1,23.884,16.819Z"></path><path d="M12.343,32l1.342-1.341L9.371,26.345,7.255,28.461,11.69,32.9A3.958,3.958,0,0,1,12.343,32Z"></path><path d="M19.276,43.31l-4.524-4.524a3.957,3.957,0,0,1-2.409-1.129c-.025-.025-.041-.055-.065-.081l-1.493,1.493,6.366,6.366Z"></path><path d="M11.214,35.248,5.841,29.875,3.716,32l5.655,5.655,1.918-1.918A4.068,4.068,0,0,1,11.214,35.248Z"></path><rect x="14.736" y="44.263" width="2" height="8.001" transform="translate(-29.518 25.263) rotate(-45)"></rect></g></svg>