<svg xmlns="http://www.w3.org/2000/svg" viewBox="0 0 64 64" x="0px" y="0px"><g data-name="Airport Guidepost"><path d="M47.021,28.08l-4.506,4.505-9.893-3.45a1,1,0,0,0-1.036.238l-2.243,2.242a1,1,0,0,0,.152,1.539l7.471,4.98-3.488,3.489L29.217,38.58a1,1,0,0,0-1.288.107l-2.121,2.121a1,1,0,0,0,0,1.414L33.586,50a2,2,0,0,0,2.828,0L53.385,33.029a2,2,0,0,0,0-2.828l-2.121-2.122A3.005,3.005,0,0,0,47.021,28.08ZM35,48.586l-7.071-7.071.815-.815,4.261,3.043a1,1,0,0,0,1.288-.107l4.949-4.95a1,1,0,0,0-.152-1.539l-7.471-4.98.938-.937,9.892,3.451a1,1,0,0,0,1.036-.238l4.95-4.949a1,1,0,0,1,1.415,0l2.121,2.121Z"></path><path d="M61,16a1,1,0,0,0,1-1V11a1,1,0,0,0-1-1H3a1,1,0,0,0-1,1v4a1,1,0,0,0,1,1H28v6H23a5.006,5.006,0,0,0-5,5V51a5.006,5.006,0,0,0,5,5H57a5.006,5.006,0,0,0,5-5V27a5.006,5.006,0,0,0-5-5H54V16ZM4,12H60v2H4ZM60,27V51a3,3,0,0,1-3,3H23a3,3,0,0,1-3-3V27a3,3,0,0,1,3-3H57A3,3,0,0,1,60,27Zm-8-5H30V16H52Z"></path></g></svg>