<svg xmlns="http://www.w3.org/2000/svg" viewBox="0 0 64 64" x="0px" y="0px"><g data-name="Lamp"><rect x="20" y="4" width="24" height="2"></rect><path d="M26.819,51a5.974,5.974,0,0,0,10.362,0Z"></path><rect x="4" y="47" width="56" height="2"></rect><path d="M24.414,21,6,39.414V45H58V39.414L39.586,21ZM54,38h2v2H54Zm0,3h2v2H54Zm-3,0h2v2H51Z"></path><rect x="31" y="56" width="2" height="4"></rect><rect x="21.515" y="53.485" width="4" height="2" transform="translate(-31.64 32.586) rotate(-45)"></rect><rect x="39.485" y="52.486" width="2" height="4" transform="translate(-26.669 44.586) rotate(-45)"></rect><rect x="31" y="8" width="2" height="11"></rect></g></svg>