<svg xmlns="http://www.w3.org/2000/svg" viewBox="0 0 64 64" x="0px" y="0px"><g><rect x="2" y="46" width="5" height="2"></rect><rect x="4" y="42" width="3" height="2"></rect><rect x="5" y="38" width="2" height="2"></rect><rect x="23" y="17" width="16" height="2"></rect><rect x="19" y="17" width="2" height="2"></rect><rect x="17" y="13" width="18" height="2"></rect><rect x="13" y="13" width="2" height="2"></rect><path d="M61.117,35.7,49.3,23.883A2.985,2.985,0,0,0,47.17,23H15a5.006,5.006,0,0,0-5,5V48a3,3,0,0,0,3,3h2.08a6.98,6.98,0,0,0,2.03,4H2v2H50a7,7,0,0,0,6.92-6H59a3,3,0,0,0,3-3V37.83A2.987,2.987,0,0,0,61.117,35.7ZM60,37.83V39H47V29h4.586L59.7,37.117A1,1,0,0,1,60,37.83ZM17,50a5,5,0,1,1,5,5A5.006,5.006,0,0,1,17,50Zm9.89,5a6.98,6.98,0,0,0,2.03-4H43.08a6.975,6.975,0,0,0,2.031,4ZM50,55a5,5,0,1,1,5-5A5.006,5.006,0,0,1,50,55Zm9-6H56.92a6.991,6.991,0,0,0-13.84,0H28.92a6.991,6.991,0,0,0-13.84,0H13a1,1,0,0,1-1-1V28a3,3,0,0,1,3-3H47.17a1,1,0,0,1,.713.3l1.7,1.7H47a2,2,0,0,0-2,2V39a2,2,0,0,0,2,2H60v7A1,1,0,0,1,59,49Z"></path><path d="M22,46a4,4,0,1,0,4,4A4,4,0,0,0,22,46Zm0,6a2,2,0,1,1,2-2A2,2,0,0,1,22,52Z"></path><path d="M50,46a4,4,0,1,0,4,4A4,4,0,0,0,50,46Zm0,6a2,2,0,1,1,2-2A2,2,0,0,1,50,52Z"></path><path d="M39,27H17a3,3,0,0,0-3,3v8a3,3,0,0,0,3,3H39a3,3,0,0,0,3-3V30A3,3,0,0,0,39,27ZM16,38V30a1,1,0,0,1,1-1H30V39H17A1,1,0,0,1,16,38Zm24,0a1,1,0,0,1-1,1H32V29h7a1,1,0,0,1,1,1Z"></path><rect x="34" y="35" width="2" height="2"></rect></g></svg>