<svg xmlns="http://www.w3.org/2000/svg" viewBox="0 0 64 64" x="0px" y="0px"><g><path d="M48,56.016A3.99,3.99,0,0,1,44.016,60H19.984A3.99,3.99,0,0,1,16,56.016V44H14V56.016A5.992,5.992,0,0,0,19.984,62H44.016A5.992,5.992,0,0,0,50,56.016V52H48Z"></path><path d="M16,7.984A3.99,3.99,0,0,1,19.984,4H44.016A3.99,3.99,0,0,1,48,7.984V28h2V7.984A5.992,5.992,0,0,0,44.016,2H19.984A5.992,5.992,0,0,0,14,7.984V12h2Z"></path><rect x="23" y="6" width="2" height="2"></rect><rect x="27" y="6" width="10" height="2"></rect><path d="M27,55a3,3,0,0,0,3,3h4a3,3,0,0,0,0-6H30A3,3,0,0,0,27,55Zm3-1h4a1,1,0,0,1,0,2H30a1,1,0,0,1,0-2Z"></path><path d="M19,35h.3c2.4,0,3.464-1.293,3.66-2.5A2.99,2.99,0,0,0,21.5,29.4a.9.9,0,0,1-.5-.709V26a4.992,4.992,0,0,0-2.15-4.1,3,3,0,1,0-5.7,0A4.992,4.992,0,0,0,11,26v2.6a.812.812,0,0,1-.364.73A3,3,0,0,0,9.041,32.5,3.082,3.082,0,0,0,12.107,35H13a3,3,0,0,0,6,0ZM15,21a1,1,0,0,1,2,0,.821.821,0,0,1-.018.1,4.92,4.92,0,0,0-1.964,0A.821.821,0,0,1,15,21ZM12.107,33a1.085,1.085,0,0,1-1.093-.825,1,1,0,0,1,.532-1.067A2.77,2.77,0,0,0,13,28.6V26a3,3,0,0,1,6,0v2.693a2.84,2.84,0,0,0,1.5,2.44,1.008,1.008,0,0,1,.486,1.042c-.122.744-1.22.825-1.687.825ZM15,35h2a1,1,0,0,1-2,0Z"></path><path d="M30,28A14,14,0,1,0,16,42,14.015,14.015,0,0,0,30,28ZM4,28A12,12,0,1,1,16,40,12.013,12.013,0,0,1,4,28Z"></path><path d="M59,30H35a3,3,0,0,0-3,3V47a3,3,0,0,0,3,3H59a3,3,0,0,0,3-3V33A3,3,0,0,0,59,30ZM35,32H59a.982.982,0,0,1,.8.428l-12.4,5.315a1.007,1.007,0,0,1-.788,0L34.2,32.428A.982.982,0,0,1,35,32ZM59,48H35a1,1,0,0,1-1-1V34.517l11.819,5.065a3.017,3.017,0,0,0,2.363,0L60,34.517V47A1,1,0,0,1,59,48Z"></path><rect x="32" y="14" width="2" height="2"></rect><rect x="36" y="14" width="8" height="2"></rect><rect x="32" y="18" width="12" height="2"></rect><rect x="32" y="22" width="12" height="2"></rect></g></svg>