<svg xmlns="http://www.w3.org/2000/svg" viewBox="0 0 64 64" x="0px" y="0px"><g data-name="Smart Home-Cloud-Smartphone-Technology-Communication"><path d="M44,8a2,2,0,1,0-2,2,2.015,2.015,0,0,0,2-2Z"></path><path d="M32.41,29.41A1.955,1.955,0,0,0,33,28a2,2,0,1,0-2,2A1.955,1.955,0,0,0,32.41,29.41Z"></path><circle cx="19" cy="46" r="2"></circle><path d="M28,60V44.84l-9-6.6-9,6.6V60h2V53a1,1,0,0,1,1-1h6a1,1,0,0,1,1,1v7Zm-1-7v4a1,1,0,0,1-1,1H22a1,1,0,0,1-1-1V53a1,1,0,0,1,1-1h4A1,1,0,0,1,27,53Zm-8-3a4,4,0,1,1,4-4A4,4,0,0,1,19,50Z"></path><rect x="23" y="54" width="2" height="2"></rect><path d="M33.69,46.23A.791.791,0,0,0,34,44.81L19,34.22,4,44.81a.791.791,0,0,0,.31,1.42.748.748,0,0,0,.6-.14l13.5-9.9a1.011,1.011,0,0,1,1.18,0l13.5,9.9A.748.748,0,0,0,33.69,46.23Z"></path><rect x="14" y="54" width="4" height="6"></rect><polygon points="26 35 26 36.72 28 38.13 28 35 26 35"></polygon><path d="M34,13H32.706a1,1,0,0,1-.958-1.286,6,6,0,1,0-11.554-3.2,1,1,0,0,1-1.379.665A1.99,1.99,0,0,0,16,11a2.019,2.019,0,0,0,.126.667A1,1,0,0,1,15.184,13H14a4,4,0,0,0,0,8H34a4,4,0,0,0,0-8Zm-9,6H23V17h2Zm1.122-3.122a3.006,3.006,0,0,0-4.244,0l-1.414-1.414a5.008,5.008,0,0,1,7.072,0ZM28.95,13.05a7,7,0,0,0-9.9,0l-1.414-1.414a9,9,0,0,1,12.728,0Z"></path><path d="M60,30a3,3,0,0,0-3-3H47a3,3,0,0,0-3,3V50a3,3,0,0,0,3,3H57a3,3,0,0,0,3-3ZM50,29h4v2H50Zm-4,0h2v2H46Zm8,22H50V49h4Zm-3-6V43h2v2Zm3.122-3.122a3.006,3.006,0,0,0-4.244,0l-1.414-1.414a5.008,5.008,0,0,1,7.072,0ZM56.95,39.05a7,7,0,0,0-9.9,0l-1.414-1.414a9,9,0,0,1,12.728,0Z"></path><path d="M51,58H32v2H52a1,1,0,0,0,1-1V57H51Z"></path><rect x="32" y="54" width="2" height="2"></rect><rect x="36" y="54" width="2" height="2"></rect><rect x="40" y="54" width="2" height="2"></rect><rect x="11" y="25" width="2" height="2"></rect><rect x="11" y="29" width="2" height="2"></rect><rect x="15" y="25" width="2" height="6"></rect><path d="M40,33H35a1,1,0,0,1-.707-.293l-1-1,1.414-1.414.707.707H40Z"></path><path d="M53,23H51V18.414l-6.707-6.707,1.414-1.414,7,7A1,1,0,0,1,53,18Z"></path></g></svg>