<svg xmlns="http://www.w3.org/2000/svg" viewBox="0 0 64 64" x="0px" y="0px"><g><path d="M49.758,47.03a1,1,0,0,1,1.212.728l1.982,7.93L54.677,60H56.7L49.231,32H14.769L7.3,60H9.323l1.725-4.312,1.982-7.93a1,1,0,1,1,1.94.484l-1.922,7.686L14.677,60h2.646l1.7-4.253.984-7.871a1,1,0,0,1,1.984.248l-.968,7.744L22.677,60h2.646L27,55.807V48a1,1,0,0,1,2,0v7.807L30.677,60h2.646L35,55.807V48a1,1,0,0,1,2,0v7.807L38.677,60h2.646l1.653-4.132-.968-7.744a1,1,0,0,1,1.984-.248l.984,7.871L46.677,60h2.646l1.629-4.072L49.03,48.242A1,1,0,0,1,49.758,47.03Z"></path><rect x="28" y="22" width="8" height="2"></rect><rect x="30" y="4" width="4" height="16"></rect><rect x="13" y="26" width="38" height="4"></rect></g></svg>