<svg xmlns="http://www.w3.org/2000/svg" viewBox="0 0 64 64" x="0px" y="0px"><g><path d="M44,18a3,3,0,1,0,3,3A3,3,0,0,0,44,18Zm0,4a1,1,0,1,1,1-1A1,1,0,0,1,44,22Z"></path><rect x="43" y="26" width="2" height="2"></rect><rect x="39" y="11" width="2" height="2"></rect><rect x="47" y="11" width="2" height="2"></rect><path d="M62,11H60a2,2,0,0,1-4,0H54a3.982,3.982,0,0,0,1.619,3.2A2.972,2.972,0,0,0,55,16v3H51a1,1,0,0,0-.1-.447L49.618,16H50a3,3,0,0,0,3-3V11a3,3,0,0,0-2-2.816V4.5a2.5,2.5,0,0,0-5,0V8H42V4.5a2.5,2.5,0,0,0-5,0V8.184A3,3,0,0,0,35,11v2a3,3,0,0,0,3,3h.382L37.1,18.553A1,1,0,0,0,37,19H33V16a2.972,2.972,0,0,0-.619-1.8A3.984,3.984,0,0,0,34,11H32a2,2,0,0,1-4,0H26a3.984,3.984,0,0,0,1.619,3.2A2.972,2.972,0,0,0,27,16v6a3,3,0,0,0,3,3h7v1.586l-.707.707A1,1,0,0,0,36,28v2a1,1,0,0,0,.293.707l1,1A1,1,0,0,0,38,32h1v7a2.966,2.966,0,0,0,.184,1H4V15a3,3,0,0,1,3-3H24V10H7a5.006,5.006,0,0,0-5,5V45a5.006,5.006,0,0,0,5,5H19.867l-.75,6H17a2,2,0,0,0-2,2v2a2,2,0,0,0,2,2H39a2,2,0,0,0,2-2V58a2,2,0,0,0-2-2H36.883l-.75-6H49a5.006,5.006,0,0,0,5-5V33H52v7H48.816A2.966,2.966,0,0,0,49,39V32h1a1,1,0,0,0,.707-.293l1-1A1,1,0,0,0,52,30V28a1,1,0,0,0-.293-.707L51,26.586V25h7a3,3,0,0,0,3-3V16a2.972,2.972,0,0,0-.619-1.8A3.982,3.982,0,0,0,62,11ZM48,4.5a.5.5,0,0,1,1,0V8H48ZM39.5,4a.5.5,0,0,1,.5.5V8H39V4.5A.5.5,0,0,1,39.5,4ZM37,13V11a1,1,0,0,1,1-1H50a1,1,0,0,1,1,1v2a1,1,0,0,1-1,1H38A1,1,0,0,1,37,13Zm-6,3v3.184a2.809,2.809,0,0,0-2,0V16a1,1,0,0,1,2,0Zm-2,6a1,1,0,1,1,1,1A1,1,0,0,1,29,22Zm3.816,1a2.809,2.809,0,0,0,0-2H37v2ZM39,60H17V58H39Zm-4.133-4H21.133l.75-6H34.117ZM52,45a3,3,0,0,1-3,3H7a3,3,0,0,1-3-3V42H52ZM47,33H45v2h2v2H45v2h2a1,1,0,0,1-1,1H42a1,1,0,0,1-1-1h2V37H41V35h2V33H41V32h6Zm3-3.414L49.586,30H38.414L38,29.586V28.414l.707-.707A1,1,0,0,0,39,27V19.236L40.618,16h6.764L49,19.236V27a1,1,0,0,0,.293.707l.707.707ZM51,21h4.184a2.809,2.809,0,0,0,0,2H51Zm7,2a1,1,0,1,1,1-1A1,1,0,0,1,58,23Zm1-7v3.184a2.809,2.809,0,0,0-2,0V16a1,1,0,0,1,2,0Z"></path><rect x="46" y="44" width="2" height="2"></rect><path d="M11.293,14.293l-3,3a1,1,0,0,0,0,1.414l3,3,1.414-1.414L10.414,18l2.293-2.293Z"></path><rect x="12.228" y="17" width="8.544" height="2" transform="translate(-6.147 27.129) rotate(-69.444)"></rect><path d="M20.293,15.707,22.586,18l-2.293,2.293,1.414,1.414,3-3a1,1,0,0,0,0-1.414l-3-3Z"></path><rect x="8" y="26" width="4" height="2"></rect><rect x="14" y="26" width="10" height="2"></rect><rect x="10" y="30" width="4" height="2"></rect><rect x="16" y="30" width="10" height="2"></rect><rect x="28" y="30" width="2" height="2"></rect><rect x="10" y="34" width="4" height="2"></rect><rect x="16" y="34" width="10" height="2"></rect><rect x="28" y="34" width="2" height="2"></rect></g></svg>