<svg xmlns="http://www.w3.org/2000/svg" viewBox="0 0 64 64" x="0px" y="0px"><g><path d="M53,8H26V6a2.006,2.006,0,0,0-2-2H21a3.009,3.009,0,0,0-3,3V8H15a2.006,2.006,0,0,0-2,2V36a2.006,2.006,0,0,0,2,2H53a2.006,2.006,0,0,0,2-2V10A2.006,2.006,0,0,0,53,8ZM20,7a1,1,0,0,1,1-1h3V22H22a3.989,3.989,0,0,0-2,.54Zm-5,3h3V26a3.906,3.906,0,0,0,.56,2H15ZM31,36H15V34H31Zm0-4H15V30H31Zm0-9a5,5,0,0,1,0-8Zm0-10.3a6.961,6.961,0,0,0,0,12.6V28H22a2,2,0,0,1,0-4h2a2.006,2.006,0,0,0,2-2V10h5ZM35,36H33V30h2Zm0-8H33V10h2Zm2-13a5,5,0,0,1,0,8ZM53,36H37V34H53Zm0-4H37V30H53Zm0-4H48.09A5.992,5.992,0,0,1,53,23.09Zm0-6.93A8,8,0,0,0,46.07,28H37V25.3a6.961,6.961,0,0,0,0-12.6V10h9.07A8,8,0,0,0,53,16.93Zm0-6.16A5.992,5.992,0,0,1,48.09,10H53Z"></path><rect x="44" y="18" width="2" height="2"></rect><path d="M60.15,42.9a4.019,4.019,0,0,0-5.47-1.47l-8.73,5.04A3.559,3.559,0,0,0,46,46a3.995,3.995,0,0,0-4-4H35.19l-3.02-1.21a11,11,0,0,0-4.1-.79h-1.3a10.922,10.922,0,0,0-5.66,1.57L18.72,43H18a1,1,0,0,0-1-1H9a1,1,0,0,0-1,1H2v2H8V56.31l-6.11.7.22,1.98,5.95-.68A1,1,0,0,0,9,59h8a1,1,0,0,0,1-1v-.68L21.98,57l12.69,1.41a15.291,15.291,0,0,0,1.91.11,16.948,16.948,0,0,0,8.47-2.28l13.63-7.87a4,4,0,0,0,1.47-5.47ZM16,57H10V44h6ZM58.62,45.42a1.968,1.968,0,0,1-.94,1.21L44.05,54.5a14.908,14.908,0,0,1-9.16,1.93L22.11,55.01a1.21,1.21,0,0,0-.19-.01L18,55.32V45h1a1,1,0,0,0,.51-.14l2.63-1.57A8.884,8.884,0,0,1,26.77,42h1.3a8.881,8.881,0,0,1,3.35.65l3.21,1.28A.937.937,0,0,0,35,44h7a2.015,2.015,0,0,1,2,2,2.006,2.006,0,0,1-2,2H32v2H42.51a4.9,4.9,0,0,0,2.5-.67l10.67-6.16a2.009,2.009,0,0,1,2.94,2.25Z"></path><rect x="12" y="54" width="2" height="2"></rect></g></svg>