<svg xmlns="http://www.w3.org/2000/svg" viewBox="0 0 64 64" x="0px" y="0px"><g data-name="Video Player-Smartphone-Headphone-Online-Lesson"><rect x="25" y="22" width="2" height="2"></rect><rect x="29" y="22" width="6" height="2"></rect><path d="M34,52H30a3,3,0,0,0,0,6h4a3,3,0,0,0,0-6Zm0,4H30a1,1,0,0,1,0-2h4a1,1,0,0,1,0,2Z"></path><path d="M60,34.18V30A28,28,0,0,0,4,30v4.18A3.01,3.01,0,0,0,2,37v8a3.009,3.009,0,0,0,3,3h5.18A3.01,3.01,0,0,0,13,50h5v7a5,5,0,0,0,5,5H41a5,5,0,0,0,5-5V50h5a3.01,3.01,0,0,0,2.82-2H59a3.009,3.009,0,0,0,3-3V37A3.01,3.01,0,0,0,60,34.18ZM49.56,10.85A25.913,25.913,0,0,1,58,30v4H56V30a23.961,23.961,0,0,0-7.85-17.74ZM32,4A25.868,25.868,0,0,1,48.03,9.55l-1.42,1.43a23.921,23.921,0,0,0-29.22,0L15.97,9.55A25.868,25.868,0,0,1,32,4ZM6,30a25.913,25.913,0,0,1,8.44-19.15l1.41,1.41A23.961,23.961,0,0,0,8,30v4H6Zm4,16H5a1,1,0,0,1-1-1V37a1,1,0,0,1,1-1h5Zm4,2H13a1,1,0,0,1-1-1V35a1,1,0,0,1,1-1h1Zm4,0H16V34h2Zm26,9a3.009,3.009,0,0,1-3,3H23a3.009,3.009,0,0,1-3-3V23a3.009,3.009,0,0,1,3-3H41a3.009,3.009,0,0,1,3,3Zm4-9H46V34h2Zm4-1a1,1,0,0,1-1,1H50V34h1a1,1,0,0,1,1,1ZM51,32H46V23a5,5,0,0,0-5-5H23a5,5,0,0,0-5,5v9H13a3.01,3.01,0,0,0-2.82,2H10V30a22,22,0,0,1,44,0v4h-.18A3.01,3.01,0,0,0,51,32Zm9,13a1,1,0,0,1-1,1H54V36h5a1,1,0,0,1,1,1Z"></path><path d="M30,44a3,3,0,0,0-2.816,2H23v2h4.184a2.982,2.982,0,0,0,5.632,0H41V46H32.816A3,3,0,0,0,30,44Zm0,4a1,1,0,1,1,1-1A1,1,0,0,1,30,48Z"></path><path d="M30.057,37.9a1.994,1.994,0,0,0,2.052-.1l3.2-2.131a2,2,0,0,0,0-3.328l-3.2-2.131A2,2,0,0,0,29,31.869v4.262A2,2,0,0,0,30.057,37.9ZM34.2,34,31,36.138V31.869Z"></path><path d="M32,42a8,8,0,1,0-8-8A8.009,8.009,0,0,0,32,42Zm0-14a6,6,0,1,1-6,6A6.006,6.006,0,0,1,32,28Z"></path></g></svg>