<svg xmlns="http://www.w3.org/2000/svg" viewBox="0 0 64 64" x="0px" y="0px"><g data-name="Make money-Business-Coins-Hand"><path d="M43,30H41a1,1,0,0,1-1-1H38a3,3,0,0,0,3,3v1h2V32a3,3,0,0,0,0-6H41a1,1,0,0,1,0-2h2a1,1,0,0,1,1,1h2a3,3,0,0,0-3-3V21H41v1a3,3,0,0,0,0,6h2a1,1,0,0,1,0,2Z"></path><path d="M32,27A10,10,0,1,0,42,17,10.011,10.011,0,0,0,32,27Zm10-8a8,8,0,1,1-8,8A8.009,8.009,0,0,1,42,19Z"></path><path d="M60.57,41.92a4.1,4.1,0,0,0-5.17-2.06l-8.93,3.25a4,4,0,0,0-3.18-2.96l-11-1.94a19.1,19.1,0,0,0-9.8.85l-6.75,2.46a1,1,0,0,0-1.28-.6L3.19,45.02a1.04,1.04,0,0,0-.57.52,1.026,1.026,0,0,0-.03.77L8.06,61.34A1,1,0,0,0,9,62a1.016,1.016,0,0,0,.34-.06l11.28-4.1a.987.987,0,0,0,.56-.52,1.027,1.027,0,0,0,.04-.77l4.18-1.52a10.893,10.893,0,0,1,4.52-.64l4.75.33a12.789,12.789,0,0,0,5.34-.75l18.28-6.65a4,4,0,0,0,2.28-5.4ZM9.6,59.72,4.81,46.56l9.4-3.42L18.99,56.3ZM58.74,44.4a2.024,2.024,0,0,1-1.13,1.04L39.33,52.09a11.059,11.059,0,0,1-4.52.64l-4.75-.33a12.766,12.766,0,0,0-5.34.75l-4.19,1.52L16.43,43.4l6.74-2.46a17.1,17.1,0,0,1,8.77-.76l11.01,1.94a2,2,0,0,1,1.62,2.31,2.06,2.06,0,0,1-.82,1.3,2.04,2.04,0,0,1-1.5.33L31.42,44.15l-.35,1.97L41.9,48.03a4.253,4.253,0,0,0,.71.06,3.939,3.939,0,0,0,2.28-.73,3.851,3.851,0,0,0,1.51-2.1l9.68-3.52a2.121,2.121,0,0,1,2.67,1A2,2,0,0,1,58.74,44.4Z"></path><rect x="14.15" y="53.505" width="2" height="1.999" transform="translate(-17.729 8.469) rotate(-20.001)"></rect><path d="M28,20a7,7,0,1,0-7-7A7.008,7.008,0,0,0,28,20ZM28,8a5,5,0,1,1-5,5A5.006,5.006,0,0,1,28,8Z"></path><path d="M55,16a7,7,0,1,0-7-7A7.008,7.008,0,0,0,55,16ZM55,4a5,5,0,1,1-5,5A5.006,5.006,0,0,1,55,4Z"></path><path d="M31,13H29a1,1,0,0,1-1,1v2A3,3,0,0,0,31,13Z"></path><path d="M58,9H56a1,1,0,0,1-1,1v2A3,3,0,0,0,58,9Z"></path><rect x="38" y="9" width="2" height="6"></rect><rect x="38" y="5" width="2" height="2"></rect><rect x="43" y="6" width="2" height="6"></rect><rect x="43" y="2" width="2" height="2"></rect><rect x="55" y="28" width="2" height="2"></rect><rect x="55" y="24" width="2" height="2"></rect><rect x="27" y="28" width="2" height="2"></rect><rect x="27" y="24" width="2" height="2"></rect></g></svg>