<svg xmlns="http://www.w3.org/2000/svg" viewBox="0 0 64 64" x="0px" y="0px"><g data-name="Cloud-Smartphone-Cloud Computing-Internet-Storage"><path d="M50.83,20.17a1,1,0,0,1-.84-.99c0-.03.01-.14.01-.17a8.008,8.008,0,0,0-10.35-7.66.984.984,0,0,1-1.18-.48A13,13,0,0,0,14,17a12.177,12.177,0,0,0,.17,2,1.021,1.021,0,0,1-.18.74,1,1,0,0,1-.66.4A10.993,10.993,0,0,0,15,42h4V31a5,5,0,0,1,5-5H40a5,5,0,0,1,5,5V42h4a10.991,10.991,0,0,0,1.83-21.83ZM27,9a8.009,8.009,0,0,0-8,8H17A10.011,10.011,0,0,1,27,7ZM49,39V37a6.006,6.006,0,0,0,6-6h2A8.009,8.009,0,0,1,49,39Z"></path><path d="M43,31a3.009,3.009,0,0,0-3-3H24a3.009,3.009,0,0,0-3,3V57a3.009,3.009,0,0,0,3,3H40a3.009,3.009,0,0,0,3-3ZM29,30h6v2H29Zm-4,0h2v2H25ZM35,58H29V56h6ZM30.586,47.586a2,2,0,0,1,2.828,0L32,49Zm3.535-1.708a3.074,3.074,0,0,0-4.242,0l-1.414-1.414a5,5,0,0,1,7.07,0ZM36.95,43.05a7.011,7.011,0,0,0-9.9,0l-1.414-1.414a9.01,9.01,0,0,1,12.728,0Z"></path></g></svg>