<svg xmlns="http://www.w3.org/2000/svg" viewBox="0 0 64 64" x="0px" y="0px"><title>List-Report</title><g><path d="M16,20a1,1,0,0,0-1,1v6a1,1,0,0,0,1,1h6a1,1,0,0,0,1-1V21a1,1,0,0,0-1-1Zm5,6H17V22h4Z"></path><path d="M22,30H16a1,1,0,0,0-1,1v6a1,1,0,0,0,1,1h6a1,1,0,0,0,1-1V31A1,1,0,0,0,22,30Zm-1,6H17V32h4Z"></path><path d="M22,40H16a1,1,0,0,0-1,1v6a1,1,0,0,0,1,1h6a1,1,0,0,0,1-1V41A1,1,0,0,0,22,40Zm-1,6H17V42h4Z"></path><rect x="27" y="21" width="22" height="2"></rect><rect x="33" y="25" width="16" height="2"></rect><rect x="31" y="31" width="18" height="2"></rect><rect x="27" y="35" width="22" height="2"></rect><rect x="27" y="41" width="22" height="2"></rect><rect x="33" y="45" width="16" height="2"></rect><rect x="27" y="25" width="4" height="2"></rect><rect x="27" y="31" width="2" height="2"></rect><rect x="27" y="45" width="4" height="2"></rect><path d="M55,2H9A2,2,0,0,0,7,4V60a2,2,0,0,0,2,2H55a2,2,0,0,0,2-2V4A2,2,0,0,0,55,2ZM40,4V6H24V4ZM23,12H41a1,1,0,0,0,1-1V8h9V56H13V8h9v3A1,1,0,0,0,23,12Zm17-2H24V8H40ZM9,60V4H22V6H12a1,1,0,0,0-1,1V57a1,1,0,0,0,1,1H52a1,1,0,0,0,1-1V7a1,1,0,0,0-1-1H42V4H55V60Z"></path></g></svg>