<svg xmlns="http://www.w3.org/2000/svg" viewBox="0 0 64 64" x="0px" y="0px"><g><path d="M23,5a3,3,0,1,0,3,3A3,3,0,0,0,23,5Zm0,4a1,1,0,1,1,1-1A1,1,0,0,1,23,9Z"></path><rect x="14" y="49" width="6" height="2"></rect><path d="M59,42H40.78a8.891,8.891,0,0,0-3.09-1.7L28,37.26V35.45A4.055,4.055,0,0,0,30,36a3.979,3.979,0,0,0,3.48-2.04,4,4,0,0,0,4.04-5.86A3.987,3.987,0,0,0,39,25a3.942,3.942,0,0,0-1.03-2.65c.01-.12.03-.23.03-.35a4,4,0,0,0-4-4v-.72l.11-.03A2.484,2.484,0,0,0,36,14.83V13a1,1,0,0,0-1-1h-.28l2.27-3.97a3,3,0,0,0-.8-3.89L35.2,3.4A7.042,7.042,0,0,0,31,2H15a7.042,7.042,0,0,0-4.2,1.4l-.99.74a3,3,0,0,0-.8,3.89L11.28,12H11a1,1,0,0,0-1,1v1.83a2.484,2.484,0,0,0,1.89,2.42l.11.03V18a4,4,0,0,0-4,4c0,.12.02.23.03.35A3.942,3.942,0,0,0,7,25a3.987,3.987,0,0,0,1.48,3.1,4,4,0,0,0,4.04,5.86A3.979,3.979,0,0,0,16,36a4.055,4.055,0,0,0,2-.55v1.81L8.31,40.29A8.963,8.963,0,0,0,2,48.88V61a1,1,0,0,0,1,1H59a3.009,3.009,0,0,0,3-3V45A3.009,3.009,0,0,0,59,42Zm0,2a.988.988,0,0,1,.84.49L48,50.86,36.16,44.49A.988.988,0,0,1,37,44ZM28.73,39.59l-1.17,3.55-2.87-2.87,2.4-1.2Zm8.1-14.76a1.092,1.092,0,0,0,.13-.17A1.861,1.861,0,0,1,37,25a1.991,1.991,0,0,1-1.3,1.87,1,1,0,0,0-.64.75,1.012,1.012,0,0,0,.3.93A1.938,1.938,0,0,1,36,30a2,2,0,0,1-2.73,1.86,1.016,1.016,0,0,0-.82.02,1.053,1.053,0,0,0-.53.64A1.99,1.99,0,0,1,30,34a1.956,1.956,0,0,1-1.36-.57A11.02,11.02,0,0,0,33.81,26H34A4,4,0,0,0,36.83,24.83ZM36,22a2.015,2.015,0,0,1-2,2V20A2.006,2.006,0,0,1,36,22Zm-2-7.17a.483.483,0,0,1-.38.48,22.723,22.723,0,0,1-5.57.69H17.95a22.723,22.723,0,0,1-5.57-.69.483.483,0,0,1-.38-.48V14H34ZM10.74,7.04a1.008,1.008,0,0,1,.27-1.3L12,5a5.053,5.053,0,0,1,3-1H31a5.053,5.053,0,0,1,3,1l.99.74a1.008,1.008,0,0,1,.27,1.3L32.42,12H13.58ZM12,20v4a2.015,2.015,0,0,1-2-2A2.006,2.006,0,0,1,12,20Zm4,14a1.99,1.99,0,0,1-1.92-1.48,1.053,1.053,0,0,0-.53-.64,1.016,1.016,0,0,0-.82-.02A2,2,0,0,1,10,30a1.938,1.938,0,0,1,.64-1.45,1.012,1.012,0,0,0,.3-.93,1,1,0,0,0-.64-.75A1.991,1.991,0,0,1,9,25a1.861,1.861,0,0,1,.04-.34,1.092,1.092,0,0,0,.13.17A4,4,0,0,0,12,26h.19a10.83,10.83,0,0,0,5.17,7.43A1.956,1.956,0,0,1,16,34Zm.64-3.64A8.942,8.942,0,0,1,14,24V17.67a24.966,24.966,0,0,0,3.95.33h10.1A24.966,24.966,0,0,0,32,17.67V24a8.994,8.994,0,0,1-15.36,6.36Zm2.27,8.71,2.4,1.2-2.87,2.87-1.17-3.55ZM22,60H11.97a4.846,4.846,0,0,0-.79-2.36A6.723,6.723,0,0,1,10,54a6.609,6.609,0,0,1,1.71-4.29l-1.42-1.42A8.723,8.723,0,0,0,8,54a8.855,8.855,0,0,0,1.52,4.77A2.655,2.655,0,0,1,9.97,60H4V48.88A6.964,6.964,0,0,1,8.91,42.2l6.45-2.01,1.69,5.12a1,1,0,0,0,.72.66A.908.908,0,0,0,18,46a1.007,1.007,0,0,0,.71-.29L22,42.41ZM20,37.38v-2.8a10.8,10.8,0,0,0,6-.01v2.81l-3,1.5ZM34.18,60H24V42.41l3.29,3.3A1.007,1.007,0,0,0,28,46a.908.908,0,0,0,.23-.03,1,1,0,0,0,.72-.66l1.69-5.12,5.94,1.85A3,3,0,0,0,34,45V59A3,3,0,0,0,34.18,60ZM36,46.67l8.47,4.57L36,57.09ZM59,60H37a.978.978,0,0,1-.88-.56L46.45,52.3l1.08.58a.98.98,0,0,0,.94,0l1.09-.58,10.32,7.14A.978.978,0,0,1,59,60Zm1-2.91-8.46-5.86L60,46.67Z"></path><circle cx="19" cy="21" r="2"></circle><circle cx="27" cy="21" r="2"></circle><path d="M23,29a4.994,4.994,0,0,0,3.307-1.25l-1.323-1.5a3.076,3.076,0,0,1-3.968,0l-1.323,1.5A4.994,4.994,0,0,0,23,29Z"></path></g></svg>