<svg xmlns="http://www.w3.org/2000/svg" viewBox="0 0 64 64" x="0px" y="0px"><g data-name="Growth"><rect x="31" y="28" width="2" height="12"></rect><circle cx="32" cy="13" r="2"></circle><path d="M32,26A11,11,0,1,0,21,15,11.013,11.013,0,0,0,32,26ZM32,5A10,10,0,1,1,22,15,10.011,10.011,0,0,1,32,5Z"></path><path d="M32,17a4,4,0,0,0-4,4v.917a7.928,7.928,0,0,0,8,0V21a3.984,3.984,0,0,0-4-4Z"></path><path d="M26.041,20.319a6.009,6.009,0,0,1,3.066-4.572,4,4,0,1,1,5.789,0,5.932,5.932,0,0,1,3.062,4.575,8,8,0,1,0-11.917,0Z"></path><path d="M24.46,35.715a7.015,7.015,0,0,0,6.466-.3,6.983,6.983,0,0,0-10.4-4.848A7.024,7.024,0,0,0,24.46,35.715Z"></path><path d="M37.005,30.277a7.027,7.027,0,0,0-3.931,5.143,6.983,6.983,0,0,0,10.4-4.848A7.019,7.019,0,0,0,37.005,30.277Z"></path><path d="M49.21,51.012a1,1,0,0,1-.8-.428,19.97,19.97,0,0,0-34.485,2.9.982.982,0,0,1-1.018.567A7.953,7.953,0,0,0,12,54c-4.319,0-7.444,2.42-7.933,6H59.952C59.451,54.843,55.089,51.122,49.21,51.012Z"></path></g></svg>