<svg xmlns="http://www.w3.org/2000/svg" viewBox="0 0 64 64" x="0px" y="0px"><g><path d="M43,2V4H39.75L35.98,17H33.89L38.04,2.72A.987.987,0,0,1,39,2Z"></path><polygon points="37.808 26 33.364 26 30.96 34.279 29.04 33.721 31.282 26 18.192 26 27 37.125 27 60 20 60 20 62 36 62 36 60 29 60 29 37.125 37.808 26"></polygon><path d="M47,10a6.01,6.01,0,0,0-5.917,5H47a1,1,0,0,1,.784,1.621l-3.672,4.638A5.878,5.878,0,0,0,47,22a6,6,0,0,0,0-12Z"></path><polygon points="33.894 17 11.067 17 16.609 24 31.862 24 33.894 17"></polygon><polygon points="35.977 17 33.944 24 39.391 24 44.933 17 35.977 17"></polygon></g></svg>