<svg xmlns="http://www.w3.org/2000/svg" viewBox="0 0 64 64" x="0px" y="0px"><g data-name="Folder-Files Management-Smartphone-Mobile-App"><path d="M21,58.23v-1.3a9.149,9.149,0,0,0-.64-3.35l-1.29-3.21a1.023,1.023,0,0,1,.06-.87l3.5-6.06a1.974,1.974,0,0,0,.2-1.52,1.894,1.894,0,0,0-.93-1.21,1.988,1.988,0,0,0-2.73.73l-5,8.66-1.73-1,.56-.98V35.15l-4.51,7.8a14.956,14.956,0,0,0-1.92,9.16L7.561,61h13A8.945,8.945,0,0,0,21,58.23Z"></path><path d="M23,37a1,1,0,0,0,1,1H40a1,1,0,0,0,1-1V31H33a1.033,1.033,0,0,1-.71-.29L27.59,26H23Z"></path><path d="M28.71,24.29,33.41,29H37V20H27v4h1A1.033,1.033,0,0,1,28.71,24.29ZM35,28H33V26h2Zm-6-6h6v2H29Z"></path><path d="M49,12H15V44.66l2.44-4.22a4,4,0,0,1,3.96-1.97A2.942,2.942,0,0,1,21,37V23a3.009,3.009,0,0,1,3-3h1a2.006,2.006,0,0,1,2-2H37a2.006,2.006,0,0,1,2,2v5h2a2.006,2.006,0,0,1,2,2V37a3.009,3.009,0,0,1-3,3H24.07a4.005,4.005,0,0,1,.3,4.44l-3.26,5.64L21.88,52H49ZM19,23H17V21h2Zm3-7H19v3H17V15a1,1,0,0,1,1-1h4Z"></path><path d="M49,54H22.6a11.075,11.075,0,0,1,.4,2.93v1.3A11.529,11.529,0,0,1,22.85,60H44a5,5,0,0,0,5-5ZM34,58H30V56h4Z"></path><path d="M24,22a1,1,0,0,0-1,1v1h2V22Z"></path><rect x="39" y="27" width="2" height="2"></rect><path d="M49,9a5,5,0,0,0-5-5H20a5,5,0,0,0-5,5v1H49ZM27,8H25V6h2Zm8,0H29V6h6Z"></path></g></svg>