<svg xmlns="http://www.w3.org/2000/svg" viewBox="0 0 64 64" x="0px" y="0px"><g data-name="Security Woman-Avatar-Occupation-Woman-Guard"><path d="M37,24V18.65l-7.03-1.27a11.1,11.1,0,0,0-3.94-.01L19,18.65V24a9,9,0,0,0,18,0ZM22,21a2,2,0,1,1,2,2A2,2,0,0,1,22,21Zm6,8a4.994,4.994,0,0,1-3.307-1.25l1.323-1.5a3.076,3.076,0,0,0,3.968,0l1.323,1.5A4.994,4.994,0,0,1,28,29Zm4-6a2,2,0,1,1,2-2A2,2,0,0,1,32,23Z"></path><path d="M42.04,42.77l2.82,1.03a1.016,1.016,0,0,0,1.28-.6,1,1,0,0,0-.6-1.28l-2.82-1.03Z"></path><path d="M19,12.37l6.41-.98a16.6,16.6,0,0,1,5.17,0l6.42.98V7a3.009,3.009,0,0,0-3-3H22a3.009,3.009,0,0,0-3,3ZM28,5a3,3,0,1,1-3,3A3,3,0,0,1,28,5Z"></path><path d="M31,34.57a10.8,10.8,0,0,1-6,.01v2.8l3,1.5,3-1.5Z"></path><polygon points="26.88 42.54 27.62 44 28.38 44 29.12 42.54 28 41.41 26.88 42.54"></polygon><circle cx="28" cy="8" r="1"></circle><polygon points="26.31 40.27 23.91 39.07 22.27 39.59 23.44 43.14 26.31 40.27"></polygon><path d="M42.03,60H47V48.88a6.989,6.989,0,0,0-.79-3.21,2.874,2.874,0,0,1-1.01.19,3,3,0,0,1-1.02-.18l-7.52-2.74a1,1,0,0,1-.6-1.28l.44-1.21-.86-.27-1.69,5.13a1,1,0,0,1-.72.66A.908.908,0,0,1,33,46a1.007,1.007,0,0,1-.71-.29l-1.68-1.69-.58,1.16L31.88,60h8.15a4.846,4.846,0,0,1,.79-2.36,6.176,6.176,0,0,0,.18-7V55a1,1,0,0,1-1,1H34a1,1,0,0,1-1-1V49a1,1,0,0,1,1-1h6a1,1,0,0,1,1,1l.71-.71A8.723,8.723,0,0,1,44,54a8.855,8.855,0,0,1-1.52,4.77A2.655,2.655,0,0,0,42.03,60Z"></path><rect x="35" y="50" width="4" height="4"></rect><path d="M17.13,15.1a1.006,1.006,0,0,0-.01.91l.1.2a1.006,1.006,0,0,0,1.08.54l7.37-1.34a13.031,13.031,0,0,1,4.66,0l7.37,1.34a1.02,1.02,0,0,0,1.08-.54l.1-.21a1,1,0,0,0-.74-1.43l-7.86-1.21a15.374,15.374,0,0,0-4.56,0l-7.86,1.21A.978.978,0,0,0,17.13,15.1Z"></path><polygon points="33.73 39.59 32.09 39.07 29.69 40.27 32.56 43.14 33.73 39.59"></polygon><path d="M39,20v4a2.015,2.015,0,0,0,2-2A2.006,2.006,0,0,0,39,20Z"></path><path d="M17,24V20a2.006,2.006,0,0,0-2,2,2.015,2.015,0,0,0,2,2Z"></path><rect x="15.434" y="39.804" width="2.003" height="2.003" transform="translate(-13.053 8.161) rotate(-20.154)"></rect><path d="M14.04,24.66A1.861,1.861,0,0,0,14,25a1.991,1.991,0,0,0,1.3,1.87,1,1,0,0,1,.64.75,1.012,1.012,0,0,1-.3.93A1.938,1.938,0,0,0,15,30a2,2,0,0,0,2.73,1.86,1.017,1.017,0,0,1,.82.02,1.053,1.053,0,0,1,.53.64A1.99,1.99,0,0,0,21,34a1.956,1.956,0,0,0,1.36-.57A10.83,10.83,0,0,1,17.19,26H17a4,4,0,0,1-2.83-1.17A1.092,1.092,0,0,1,14.04,24.66Z"></path><path d="M9.86,43.2a.956.956,0,0,0,.52.56.9.9,0,0,0,.42.1.974.974,0,0,0,.34-.06l2.82-1.03-.68-1.88-2.82,1.03A1,1,0,0,0,9.86,43.2Z"></path><path d="M9,48.88V60h4.97a2.655,2.655,0,0,0-.45-1.23A8.855,8.855,0,0,1,12,54a8.723,8.723,0,0,1,2.29-5.71L15,49a1,1,0,0,1,1-1h6a1,1,0,0,1,1,1v6a1,1,0,0,1-1,1H16a1,1,0,0,1-1-1V50.64a6.176,6.176,0,0,0,.18,7A4.846,4.846,0,0,1,15.97,60h8.15l1.85-14.82-.58-1.16-1.68,1.69A1.007,1.007,0,0,1,23,46a.908.908,0,0,1-.23-.03,1,1,0,0,1-.72-.66l-1.69-5.13-.86.27.44,1.21a1,1,0,0,1-.6,1.28l-7.52,2.74a3,3,0,0,1-1.02.18,2.874,2.874,0,0,1-1.01-.19A6.989,6.989,0,0,0,9,48.88Z"></path><rect x="38.564" y="39.804" width="2.003" height="2.003" transform="translate(-12.373 63.888) rotate(-69.846)"></rect><polygon points="28.12 46 27.88 46 26.13 60 29.87 60 28.12 46"></polygon><path d="M39,26h-.19a11.02,11.02,0,0,1-5.17,7.43A1.956,1.956,0,0,0,35,34a1.99,1.99,0,0,0,1.92-1.48,1.071,1.071,0,0,1,.52-.64,1.085,1.085,0,0,1,.83-.03A1.835,1.835,0,0,0,39,32a2.006,2.006,0,0,0,2-2,1.965,1.965,0,0,0-.63-1.45,1,1,0,0,1,.33-1.68A1.991,1.991,0,0,0,42,25a1.861,1.861,0,0,0-.04-.34,1.092,1.092,0,0,1-.13.17A4,4,0,0,1,39,26Z"></path><rect x="17" y="50" width="4" height="4"></rect><path d="M50,51h4v7a2.015,2.015,0,0,1-2,2,2.006,2.006,0,0,1-2-2Z"></path><path d="M54.88,27l-.84,22H49.96l-.84-22a2.882,2.882,0,1,1,5.76,0Z"></path></g></svg>