<svg xmlns="http://www.w3.org/2000/svg" viewBox="0 0 64 64" x="0px" y="0px"><g data-name="Evidence"><path d="M22.121,46.878a3.974,3.974,0,0,0,2.828-1.171l5.657-5.657.707.707a1,1,0,0,0,1.415,0l2.829-2.828a1,1,0,0,0,0-1.414l-.708-.708,7.071-7.071a16.091,16.091,0,0,0,4.526-9.05,1,1,0,0,0-1.132-1.132,16.094,16.094,0,0,0-9.05,4.526l-7.072,7.071-.707-.707a1,1,0,0,0-1.414,0l-2.828,2.828a1,1,0,0,0,0,1.414l.707.707L19.293,40.05a4,4,0,0,0,2.828,6.828ZM37.678,24.494a14.1,14.1,0,0,1,6.511-3.683,14.1,14.1,0,0,1-3.683,6.511l-7.071,7.071-2.828-2.828Zm-9.9,7.071,5.658,5.657-1.415,1.414-5.657-5.657Zm-7.071,9.9,5.657-5.657,2.829,2.829-5.658,5.657a2.049,2.049,0,0,1-2.828,0,2,2,0,0,1,0-2.829Z"></path><path d="M56,8H54V3a1,1,0,0,0-1-1H11a1,1,0,0,0-1,1V8H8A1,1,0,0,0,7,9v4a1,1,0,0,0,1,1h2V59a3,3,0,0,0,3,3H51a3,3,0,0,0,3-3V14h2a1,1,0,0,0,1-1V9A1,1,0,0,0,56,8ZM12,4H52V8H12ZM52,59a1,1,0,0,1-1,1H13a1,1,0,0,1-1-1V14H52Zm3-47H9V10H55Z"></path><path d="M32,48v8a2,2,0,0,0,2,2H48a2,2,0,0,0,2-2V48a2,2,0,0,0-2-2H34A2,2,0,0,0,32,48Zm16,8H34V48H48Z"></path><rect x="36" y="49" width="10" height="2"></rect><rect x="36" y="53" width="10" height="2"></rect></g></svg>