<svg xmlns="http://www.w3.org/2000/svg" viewBox="0 0 64 64" x="0px" y="0px"><g data-name="Computer Game-Laptop"><path d="M61,50H59V17a5.006,5.006,0,0,0-5-5H46.669a20.932,20.932,0,0,0-29.338,0H10a5.006,5.006,0,0,0-5,5V50H3a1,1,0,0,0-1,1v4a3,3,0,0,0,3,3H59a3,3,0,0,0,3-3V51A1,1,0,0,0,61,50ZM32,8A19,19,0,1,1,13,27,19.021,19.021,0,0,1,32,8ZM7,17a3,3,0,0,1,3-3h5.539a21,21,0,1,0,32.922,0H54a3,3,0,0,1,3,3V50H7ZM36,52a1,1,0,0,1-1,1H29a1,1,0,0,1-1-1Zm24,3a1,1,0,0,1-1,1H5a1,1,0,0,1-1-1V52H26a3,3,0,0,0,3,3h6a3,3,0,0,0,3-3H60Z"></path><path d="M21,38h2.249a3.011,3.011,0,0,0,2.974-2.6l.719-5.4H37.058l.719,5.4A3.011,3.011,0,0,0,40.751,38H43a3,3,0,0,0,3-3V24a8.009,8.009,0,0,0-8-8H26a8.009,8.009,0,0,0-8,8V35A3,3,0,0,0,21,38ZM20,24a6.006,6.006,0,0,1,6-6H38a6.006,6.006,0,0,1,6,6V35a1,1,0,0,1-1,1H40.751a1,1,0,0,1-.991-.868l-.72-5.4A2.006,2.006,0,0,0,37.058,28H26.942a2.006,2.006,0,0,0-1.982,1.735l-.72,5.4a1,1,0,0,1-.991.868H21a1,1,0,0,1-1-1Z"></path><polygon points="24 26 26 26 26 24 28 24 28 22 26 22 26 20 24 20 24 22 22 22 22 24 24 24 24 26"></polygon><rect x="38" y="20" width="2" height="2"></rect><rect x="40" y="22" width="2" height="2"></rect><rect x="38" y="24" width="2" height="2"></rect><rect x="36" y="22" width="2" height="2"></rect><rect x="29" y="20" width="2" height="2"></rect><rect x="33" y="20" width="2" height="2"></rect></g></svg>