<svg xmlns="http://www.w3.org/2000/svg" viewBox="0 0 64 64" x="0px" y="0px"><g data-name="Hand Dryer-Hand-Hygiene-Healthcare-Heat"><path d="M27.11,57.55,29,53.76V40a1,1,0,0,0-2,0v5a1,1,0,0,1-2,0V36a1,1,0,0,0-2,0v9a1,1,0,0,1-2,0V32a1,1,0,0,0-2,0V45a1,1,0,0,1-2,0V36a1,1,0,0,0-2,0V47.12A5,5,0,0,1,19,52v1H17V52a3.009,3.009,0,0,0-3-3,1,1,0,0,1-.87-.5l-2-3.46a.971.971,0,0,0-.6-.47A1,1,0,0,0,9.4,46.04l6.47,11.19a1.094,1.094,0,0,1,.13.5V62H27V58A1,1,0,0,1,27.11,57.55Z"></path><path d="M48.13,57.23,54.6,46.04a1.01,1.01,0,0,0-.37-1.37.988.988,0,0,0-1.36.37l-2,3.46A1,1,0,0,1,50,49a3.009,3.009,0,0,0-3,3v1H45V52a5,5,0,0,1,4-4.88V36a1,1,0,0,0-2,0v9a1,1,0,0,1-2,0V32a1,1,0,0,0-2,0V45a1,1,0,0,1-2,0V36a1,1,0,0,0-2,0v9a1,1,0,0,1-2,0V40a1,1,0,0,0-2,0V53.76l1.89,3.79A1,1,0,0,1,37,58v4H48V57.73A1.094,1.094,0,0,1,48.13,57.23Z"></path><path d="M53,12v4H44V13H42v3H36V13H34v3H30V13H28v3H22V13H20v3H11V12a1,1,0,0,1,1-1H52A1,1,0,0,1,53,12Z"></path><path d="M5,16H9V12a3.009,3.009,0,0,1,3-3H52a3.009,3.009,0,0,1,3,3v4h4a1,1,0,0,0,1-1V2H4V15A1,1,0,0,0,5,16Z"></path><path d="M30,26V18H28v8a1,1,0,0,1-2,0H24a3,3,0,0,0,6,0Z"></path><path d="M34,18v8a3,3,0,0,0,6,0H38a1,1,0,0,1-2,0V18Z"></path><path d="M42,18v4a3,3,0,0,0,6,0H46a1,1,0,0,1-2,0V18Z"></path><path d="M22,22V18H20v4a1,1,0,0,1-2,0H16a3,3,0,0,0,6,0Z"></path><path d="M11,32a3,3,0,0,0,3-3V20H12v9a1,1,0,0,1-2,0H8A3,3,0,0,0,11,32Z"></path><path d="M50,20v9a3,3,0,0,0,6,0H54a1,1,0,0,1-2,0V20Z"></path></g></svg>