<svg xmlns="http://www.w3.org/2000/svg" viewBox="0 0 64 64" x="0px" y="0px"><title>Suspension</title><g><path d="M59,38H53a3,3,0,0,0-3,3v3H46V42h2a1,1,0,0,0,0-2H43.712l4.676-2.078h0l.016-.007a1.064,1.064,0,0,0,.1-.073.635.635,0,0,0,.314-.3,1.059,1.059,0,0,0,.1-.163.989.989,0,0,0,.049-.243A.965.965,0,0,0,49,37l0-.009a.965.965,0,0,0-.038-.188,1.013,1.013,0,0,0-.045-.2v-.008a1,1,0,0,0-.075-.105,1.026,1.026,0,0,0-.145-.2.963.963,0,0,0-.169-.114.949.949,0,0,0-.151-.094.989.989,0,0,0-.272-.055A.878.878,0,0,0,48,36H43.712l4.676-2.078h0l.016-.007a1.064,1.064,0,0,0,.1-.073.635.635,0,0,0,.314-.3,1.059,1.059,0,0,0,.1-.163.989.989,0,0,0,.049-.243A.965.965,0,0,0,49,33l0-.009a.965.965,0,0,0-.038-.188,1.013,1.013,0,0,0-.045-.2v-.008a.934.934,0,0,0-.076-.107.98.98,0,0,0-.144-.2.954.954,0,0,0-.179-.121,1.008,1.008,0,0,0-.139-.087.973.973,0,0,0-.293-.059A.815.815,0,0,0,48,32H43.712l4.676-2.078h0l.016-.007a1.064,1.064,0,0,0,.1-.073.635.635,0,0,0,.314-.3,1.059,1.059,0,0,0,.1-.163.989.989,0,0,0,.049-.243A.965.965,0,0,0,49,29l0-.009a.965.965,0,0,0-.038-.188,1.013,1.013,0,0,0-.045-.2v-.008a1.125,1.125,0,0,0-.075-.106.991.991,0,0,0-.145-.2,6.71,6.71,0,0,0-.319-.208.956.956,0,0,0-.281-.057c-.033,0-.061-.019-.094-.019H46V26a1,1,0,0,0-1-1H42a1,1,0,0,0-1,1v2H39a1,1,0,0,0,0,2h4.288l-4.676,2.078h0l-.016.007a1.064,1.064,0,0,0-.1.073.635.635,0,0,0-.314.3,1.059,1.059,0,0,0-.1.163.989.989,0,0,0-.049.243A.965.965,0,0,0,38,33l0,.009a.965.965,0,0,0,.038.188,1.013,1.013,0,0,0,.045.2v.008a1,1,0,0,0,.191.278c.021.022.045.038.067.058a.994.994,0,0,0,.218.147c.031.015.059.029.091.041A1,1,0,0,0,39,34h4.288l-4.676,2.078h0l-.016.007a1.064,1.064,0,0,0-.1.073.635.635,0,0,0-.314.3,1.059,1.059,0,0,0-.1.163.989.989,0,0,0-.049.243A.965.965,0,0,0,38,37l0,.009a.965.965,0,0,0,.038.188,1.013,1.013,0,0,0,.045.2v.008a1,1,0,0,0,.191.278c.021.022.045.038.067.058a.994.994,0,0,0,.218.147c.031.015.059.029.091.041A1,1,0,0,0,39,38h4.288l-4.676,2.078h0l-.016.007a1.064,1.064,0,0,0-.1.073.635.635,0,0,0-.314.3,1.059,1.059,0,0,0-.1.163.989.989,0,0,0-.049.243A.965.965,0,0,0,38,41l0,.009a.965.965,0,0,0,.038.188,1.013,1.013,0,0,0,.045.2v.008a1,1,0,0,0,.191.278c.021.022.045.038.067.058a.994.994,0,0,0,.218.147c.031.015.059.029.091.041A1,1,0,0,0,39,42h2v2H23V42h2a.985.985,0,0,0,.347-.07.934.934,0,0,0,.091-.041.965.965,0,0,0,.217-.147c.023-.02.047-.036.068-.058a1.01,1.01,0,0,0,.191-.278V41.4a1.013,1.013,0,0,0,.045-.2A.965.965,0,0,0,26,41.009L26,41a.965.965,0,0,0-.026-.13.989.989,0,0,0-.049-.243,1.059,1.059,0,0,0-.1-.163.635.635,0,0,0-.314-.3,1.064,1.064,0,0,0-.1-.073l-.016-.007h0L20.712,38H25a.985.985,0,0,0,.347-.07.934.934,0,0,0,.091-.041.965.965,0,0,0,.217-.147c.023-.02.047-.036.068-.058a1.01,1.01,0,0,0,.191-.278V37.4a1.013,1.013,0,0,0,.045-.2A.965.965,0,0,0,26,37.009L26,37a.965.965,0,0,0-.026-.13.989.989,0,0,0-.049-.243,1.059,1.059,0,0,0-.1-.163.635.635,0,0,0-.314-.3,1.064,1.064,0,0,0-.1-.073l-.016-.007h0L20.712,34H25a.985.985,0,0,0,.347-.07.934.934,0,0,0,.091-.041.965.965,0,0,0,.217-.147c.023-.02.047-.036.068-.058a1.01,1.01,0,0,0,.191-.278V33.4a1.013,1.013,0,0,0,.045-.2A.965.965,0,0,0,26,33.009L26,33a.965.965,0,0,0-.026-.13.989.989,0,0,0-.049-.243,1.059,1.059,0,0,0-.1-.163.635.635,0,0,0-.314-.3,1.064,1.064,0,0,0-.1-.073l-.016-.007h0L20.712,30H25a1,1,0,0,0,0-2H23V26a1,1,0,0,0-1-1H19a1,1,0,0,0-1,1v2H16a.912.912,0,0,0-.1.021.975.975,0,0,0-.27.055.988.988,0,0,0-.154.1.967.967,0,0,0-.166.112.978.978,0,0,0-.146.207.84.84,0,0,0-.074.1V28.6a1.013,1.013,0,0,0-.045.2.965.965,0,0,0-.038.188L15,29a.965.965,0,0,0,.026.13.989.989,0,0,0,.049.243,1.059,1.059,0,0,0,.1.163.635.635,0,0,0,.314.3,1.064,1.064,0,0,0,.1.073l.016.007h0L20.288,32H16a.944.944,0,0,0-.12.024,1.015,1.015,0,0,0-.253.051.858.858,0,0,0-.468.417.941.941,0,0,0-.073.1V32.6a1.013,1.013,0,0,0-.045.2.965.965,0,0,0-.038.188L15,33a.965.965,0,0,0,.026.13.989.989,0,0,0,.049.243,1.059,1.059,0,0,0,.1.163.635.635,0,0,0,.314.3,1.064,1.064,0,0,0,.1.073l.016.007h0L20.288,36H16a1.034,1.034,0,0,0-.108.022.953.953,0,0,0-.266.054.993.993,0,0,0-.152.095.95.95,0,0,0-.168.113,102.091,102.091,0,0,1-.22.31V36.6a1.013,1.013,0,0,0-.045.2.965.965,0,0,0-.038.188L15,37a.965.965,0,0,0,.026.13.989.989,0,0,0,.049.243,1.059,1.059,0,0,0,.1.163.635.635,0,0,0,.314.3,1.064,1.064,0,0,0,.1.073l.016.007h0L20.288,40H16a1,1,0,0,0,0,2h2v2H14V41a3,3,0,0,0-3-3H5a3,3,0,0,0-3,3V53a3,3,0,0,0,3,3h6a3,3,0,0,0,3-3V50H50v3a3,3,0,0,0,3,3h6a3,3,0,0,0,3-3V41A3,3,0,0,0,59,38ZM43,27h1v1H43Zm0,15h1v2H43ZM20,27h1v1H20Zm0,15h1v2H20ZM11,54H5a1,1,0,0,1-1-1V52H6a1,1,0,0,0,0-2H4V48H6a1,1,0,0,0,0-2H4V44H6a1,1,0,0,0,0-2H4V41a1,1,0,0,1,1-1h6a1,1,0,0,1,1,1v1H10a1,1,0,0,0,0,2h2v2H10a1,1,0,0,0,0,2h2v2H10a1,1,0,0,0,0,2h2v1A1,1,0,0,1,11,54Zm3-6V46H50v2Zm45,6H53a1,1,0,0,1-1-1V52h2a1,1,0,0,0,0-2H52V48h2a1,1,0,0,0,0-2H52V44h2a1,1,0,0,0,0-2H52V41a1,1,0,0,1,1-1h6a1,1,0,0,1,1,1v1H58a1,1,0,0,0,0,2h2v2H58a1,1,0,0,0,0,2h2v2H58a1,1,0,0,0,0,2h2v1A1,1,0,0,1,59,54Z"></path></g></svg>