<svg xmlns="http://www.w3.org/2000/svg" viewBox="0 0 64 64" x="0px" y="0px"><g data-name="Bar"><rect x="44" y="40" width="12" height="2"></rect><rect x="40" y="58" width="2" height="2"></rect><rect x="40" y="54" width="2" height="2"></rect><path d="M42,25a1,1,0,0,0-2,0V52h2Z"></path><rect x="26" y="30" width="12" height="2"></rect><rect x="58" y="58" width="2" height="2"></rect><rect x="58" y="54" width="2" height="2"></rect><path d="M60,35a1,1,0,0,0-2,0V52h2Z"></path><rect x="4" y="58" width="2" height="2"></rect><rect x="8" y="18" width="12" height="2"></rect><rect x="4" y="54" width="2" height="2"></rect><rect x="4" y="50" width="2" height="2"></rect><path d="M6,13a1,1,0,0,0-2,0V48H6Z"></path><rect x="22" y="58" width="2" height="2"></rect><rect x="22" y="54" width="2" height="2"></rect><rect x="22" y="50" width="2" height="2"></rect><path d="M24,13a1,1,0,0,0-2,0V48h2Z"></path></g></svg>