<svg xmlns="http://www.w3.org/2000/svg" viewBox="0 0 64 64" x="0px" y="0px"><g><path d="M62,7a5,5,0,0,0-5-5H7A5,5,0,0,0,2,7V35a4.976,4.976,0,0,0,1.41,3.47A2.992,2.992,0,0,0,2,41v2a3.009,3.009,0,0,0,3,3H20.66L13.68,58.09a2.916,2.916,0,0,0-.31,2.27,2.97,2.97,0,0,0,1.4,1.83,3.034,3.034,0,0,0,1.5.4,3.475,3.475,0,0,0,.78-.1,2.986,2.986,0,0,0,1.82-1.4L21.23,57H42.77l2.36,4.09a2.986,2.986,0,0,0,1.82,1.4,3.489,3.489,0,0,0,.79.1,3.025,3.025,0,0,0,1.49-.4,3,3,0,0,0,1.1-4.1L43.34,46H59a3.009,3.009,0,0,0,3-3V41a2.992,2.992,0,0,0-1.41-2.53A4.976,4.976,0,0,0,62,35ZM17.13,60.09a.995.995,0,1,1-1.72-1L22.97,46h2.3ZM27.58,46h8.84l2.89,5H24.69Zm-5.2,9,1.16-2H40.46l1.16,2ZM48.6,59.09a1.013,1.013,0,0,1,.1.76,1.026,1.026,0,0,1-.47.61,1,1,0,0,1-.76.09.963.963,0,0,1-.6-.46L38.73,46h2.3ZM60,43a1,1,0,0,1-1,1H5a1,1,0,0,1-1-1V41a1,1,0,0,1,1-1H59a1,1,0,0,1,1,1ZM35,28H17a3.009,3.009,0,0,0-3,3v3H8V8H56V34H38V31A3.009,3.009,0,0,0,35,28ZM16,34V31a1,1,0,0,1,1-1H35a1,1,0,0,1,1,1v3Zm20,2v2H16V36Zm24-1a3.009,3.009,0,0,1-3,3H38V36H57a1,1,0,0,0,1-1V7a1,1,0,0,0-1-1H7A1,1,0,0,0,6,7V35a1,1,0,0,0,1,1h7v2H7a3.009,3.009,0,0,1-3-3V7A3.009,3.009,0,0,1,7,4H57a3.009,3.009,0,0,1,3,3Z"></path><path d="M44,32h4a1,1,0,0,0,1-1V15a1,1,0,0,0-1-1H44a1,1,0,0,0-1,1V31A1,1,0,0,0,44,32Zm1-2V28h2v2Zm2-14V26H45V16Z"></path></g></svg>