<svg xmlns="http://www.w3.org/2000/svg" viewBox="0 0 64 64" x="0px" y="0px"><g data-name="Welsh Terrier"><path d="M19,9H16V25H32V9H29a1,1,0,0,1-1-1.025L28.025,7h-8.05L20,7.975A1,1,0,0,1,19,9Zm8,6h2v2H27Zm-6,0v2H19V15Z"></path><path d="M33.82,48l-.7-4.189-3.365-.841a1,1,0,0,1-.59-.416l-.7-1.058-1.891,1.323A1,1,0,0,1,26,43H22a1,1,0,0,1-.573-.181L18,40.421V59a1,1,0,0,0,1,1h2a1,1,0,0,0,1-1V50a1,1,0,0,1,1-1h4a1,1,0,0,1,1,1v9a1,1,0,0,0,1,1h2a1,1,0,0,0,1-1V49a1,1,0,0,1,1-1Z"></path><path d="M30.05,5.983v.042L30.025,7H33a1,1,0,0,1,.707.293l4,4A1,1,0,0,1,38,12v3h1V5.834L30.021,4.2Z"></path><path d="M45,48.414l-1.293,1.293A1,1,0,0,1,43,50H41v7a1,1,0,0,0,1,1h2a1,1,0,0,0,1-1Z"></path><path d="M47,44h2V42a4,4,0,0,1,4-4,3.959,3.959,0,0,1,2,.556V35H37a1,1,0,0,1-.427.819l-6.47,4.53.515.775,3.625.906a1,1,0,0,1,.743.8L35.847,48h6.739l3.707-3.707A1,1,0,0,1,47,44Z"></path><path d="M25.685,41,35,34.479V30.333L32.5,27H28v1a1,1,0,0,1-.293.707l-2,2A1,1,0,0,1,25,31v1h3a1,1,0,0,1,.832.445l2,3-1.664,1.11L28,34.8V35a4,4,0,0,1-8,0v-.2l-1.168,1.752-1.664-1.11,2-3A1,1,0,0,1,20,32h3V31a1,1,0,0,1-.707-.293l-2-2A1,1,0,0,1,20,28V27H15.5L13,30.333v4.146L22.315,41Z"></path><path d="M9,5.834V15h1V12a1,1,0,0,1,.293-.707l4-4A1,1,0,0,1,15,7h2.975l-.025-.975V5.983L17.979,4.2Z"></path><polygon points="26 27 22 27 22 27.586 23.414 29 24.586 29 26 27.586 26 27"></polygon><path d="M52,58h2a1,1,0,0,0,1-1V42a2,2,0,0,0-4,0V57A1,1,0,0,0,52,58Z"></path><polygon points="53 23 53 33 54.819 33 53.153 23 53 23"></polygon><path d="M22,35a2,2,0,0,0,4,0V34H22Z"></path></g></svg>