<svg xmlns="http://www.w3.org/2000/svg" viewBox="0 0 64 64" x="0px" y="0px"><g><path d="M55,39V35.41C52.89,36.99,49.27,38,45,38s-7.89-1.01-10-2.59V39c0,1.89,4.28,4,10,4S55,40.89,55,39ZM38,40H36V38h2Zm4,1H40V39h2Z"></path><path d="M45,45c-6.84,0-12-2.58-12-6V25c0-3.42,5.16-6,12-6V8a4,4,0,0,0-4-4H13A4,4,0,0,0,9,8V56a4,4,0,0,0,4,4H41a4,4,0,0,0,4-4ZM24,6h6V8H24ZM20,6h2V8H20ZM13,21H24.586l-1.293-1.293,1.414-1.414,3,3a1,1,0,0,1,0,1.414l-3,3-1.414-1.414L24.586,23H13Zm0,10H24.586l-1.293-1.293,1.414-1.414,3,3a1,1,0,0,1,0,1.414l-3,3-1.414-1.414L24.586,33H13Zm0,10H24.586l-1.293-1.293,1.414-1.414,3,3a1,1,0,0,1,0,1.414l-3,3-1.414-1.414L24.586,43H13ZM29,58H25a3,3,0,0,1,0-6h4a3,3,0,0,1,0,6Z"></path><path d="M29,54H25a1,1,0,0,0,0,2h4a1,1,0,0,0,0-2Z"></path><path d="M55,28.41C52.89,29.99,49.27,31,45,31s-7.89-1.01-10-2.59V32c0,1.89,4.28,4,10,4s10-2.11,10-4ZM38,33H36V31h2Zm4,1H40V32h2Z"></path><path d="M45,21c-5.72,0-10,2.11-10,4s4.28,4,10,4,10-2.11,10-4S50.72,21,45,21Zm6,5H39V24H51Z"></path></g></svg>