<svg xmlns="http://www.w3.org/2000/svg" viewBox="0 0 64 64" x="0px" y="0px"><g><circle cx="19" cy="22" r="2"></circle><circle cx="27" cy="22" r="2"></circle><path d="M19.468,28.542a5.007,5.007,0,0,0,7.064,0l-1.4-1.424a3.082,3.082,0,0,1-4.256,0Z"></path><path d="M59,30H37.89a4.2,4.2,0,0,0-.22-.79A4.989,4.989,0,0,0,35,20V19a2.006,2.006,0,0,0,2-2V15a2.006,2.006,0,0,0-2-2h-.05a10.919,10.919,0,0,0-3.17-6.78A11.806,11.806,0,0,0,29.5,4.47a11.3,11.3,0,0,0-3.63-1.3,2.983,2.983,0,0,0-5.74,0,11.3,11.3,0,0,0-3.63,1.3A11.023,11.023,0,0,0,11.07,13H11a2.006,2.006,0,0,0-2,2v2a2.006,2.006,0,0,0,2,2v1a4.989,4.989,0,0,0-2.67,9.21A4.9,4.9,0,0,0,8,31a5,5,0,0,0,5,5,5.058,5.058,0,0,0,1.78-.32A4.984,4.984,0,0,0,18,37.89v.37L8.31,41.29A8.963,8.963,0,0,0,2,49.88V61a1,1,0,0,0,1,1H52a3,3,0,0,0,0-6H51V54h8a3.009,3.009,0,0,0,3-3V33A3.009,3.009,0,0,0,59,30ZM38,25a2.968,2.968,0,0,1-2.02,2.81,1.035,1.035,0,0,0-.62.64.99.99,0,0,0,.13.88,2.784,2.784,0,0,1,.33.67H35a3.009,3.009,0,0,0-3,3v.82a2.609,2.609,0,0,1-.67-.33,1,1,0,0,0-.87-.12,1.035,1.035,0,0,0-.64.62A2.952,2.952,0,0,1,28,35.82V34.79A11.014,11.014,0,0,0,34,25V22.12a.817.817,0,0,0,.27-.01A2.876,2.876,0,0,1,35,22,3.009,3.009,0,0,1,38,25ZM28,38.27v-.38a4.984,4.984,0,0,0,3.22-2.21,4.971,4.971,0,0,0,.78.21v3.63Zm4,3.34V43.3L30.03,41ZM23,34a9.014,9.014,0,0,1-9-9V19H32v6A9.014,9.014,0,0,1,23,34Zm3,1.57v3.34l-.59,3.23a3.807,3.807,0,0,1-4.82,0L20,38.91V35.57a10.68,10.68,0,0,0,6,0ZM26,5.23a9.024,9.024,0,0,1,2,.72V11h2V7.32c.12.11.25.2.36.32A8.94,8.94,0,0,1,32.95,13H26ZM22,4a1,1,0,0,1,2,0v9H22ZM16,7.31V11h2V5.95a9.209,9.209,0,0,1,2-.72V13H13.06A9,9,0,0,1,16,7.31ZM11,15H35v2H11Zm5.18,18.99a1.035,1.035,0,0,0-.64-.62,1,1,0,0,0-.87.12A2.911,2.911,0,0,1,13,34a3.009,3.009,0,0,1-3-3,2.964,2.964,0,0,1,.51-1.67.99.99,0,0,0,.13-.88,1.035,1.035,0,0,0-.62-.64A2.968,2.968,0,0,1,8,25a3.009,3.009,0,0,1,3-3,2.876,2.876,0,0,1,.73.11.817.817,0,0,0,.27.01V25a11.014,11.014,0,0,0,6,9.79v1.03A2.952,2.952,0,0,1,16.18,33.99ZM10.8,60a4.444,4.444,0,0,0-.63-1.36A6.794,6.794,0,0,1,9,55a6.609,6.609,0,0,1,1.71-4.29L9.29,49.29A8.723,8.723,0,0,0,7,55a8.855,8.855,0,0,0,1.52,4.77,1.665,1.665,0,0,1,.12.23H4V49.88A6.964,6.964,0,0,1,8.91,43.2l7.06-2.21-3.73,4.36a1,1,0,0,0,.05,1.36l2.14,2.13-1.98,1.33a.989.989,0,0,0-.45.73,1.046,1.046,0,0,0,.29.81L20.59,60Zm3.77-8.84,1.98-1.33A.989.989,0,0,0,17,49.1a1.046,1.046,0,0,0-.29-.81l-2.35-2.34,4.03-4.7,3.05,16.78Zm6.48-6.48a6.1,6.1,0,0,0,3.9,0L23,55.41Zm6.56-3.43,4.03,4.7-2.35,2.34a1.046,1.046,0,0,0-.29.81.989.989,0,0,0,.45.73l1.98,1.33-6.87,6.87ZM32,48.41v.72l-.43-.29Zm3.83,10.22A4.61,4.61,0,0,0,35.2,60H25.41l7.2-7.2A3.006,3.006,0,0,0,35,54h1.89A5.016,5.016,0,0,1,37,55,6.735,6.735,0,0,1,35.83,58.63ZM39.18,60H37.36c.04-.08.07-.16.12-.24A8.8,8.8,0,0,0,39,55a6.849,6.849,0,0,0-.08-1H43v2H42a2.98,2.98,0,0,0-2.82,4ZM52,58a1,1,0,0,1,0,2H42a1,1,0,0,1,0-2Zm-7-2V54h4v2Zm15-5a1,1,0,0,1-1,1H35a1,1,0,0,1-1-1V33a1,1,0,0,1,1-1H59a1,1,0,0,1,1,1Z"></path><path d="M55.242,40.03l-1.667-.418q-.107-.292-.237-.574l.884-1.474a1,1,0,0,0-.151-1.221l-1.414-1.414a1,1,0,0,0-1.221-.151l-1.474.884q-.282-.13-.574-.237l-.418-1.667A1,1,0,0,0,48,33H46a1,1,0,0,0-.97.758l-.418,1.667q-.292.107-.574.237l-1.474-.884a1,1,0,0,0-1.221.151l-1.414,1.414a1,1,0,0,0-.151,1.221l.884,1.474q-.13.282-.237.574l-1.667.418A1,1,0,0,0,38,41v2a1,1,0,0,0,.758.97l1.667.418q.107.292.237.574l-.884,1.473a1,1,0,0,0,.151,1.221l1.414,1.415a1,1,0,0,0,1.221.151l1.474-.884q.282.13.574.237l.418,1.667A1,1,0,0,0,46,51h2a1,1,0,0,0,.97-.758l.418-1.667q.292-.107.574-.237l1.474.884a1,1,0,0,0,1.221-.151l1.414-1.415a1,1,0,0,0,.151-1.221l-.884-1.473q.13-.282.237-.574l1.667-.418A1,1,0,0,0,56,43V41A1,1,0,0,0,55.242,40.03ZM54,42.22l-1.452.363a1,1,0,0,0-.724.71,4.983,4.983,0,0,1-.5,1.2,1,1,0,0,0,.008,1.016l.77,1.283-.31.309-1.283-.769a1,1,0,0,0-1.016-.008,4.983,4.983,0,0,1-1.2.5,1,1,0,0,0-.71.724L47.22,49h-.44l-.363-1.452a1,1,0,0,0-.71-.724,4.983,4.983,0,0,1-1.2-.5,1,1,0,0,0-1.016.008l-1.283.769L41.9,46.8l.77-1.283a1,1,0,0,0,.008-1.016,4.983,4.983,0,0,1-.5-1.2,1,1,0,0,0-.724-.71L40,42.22v-.44l1.452-.363a1,1,0,0,0,.724-.71,4.983,4.983,0,0,1,.5-1.2,1,1,0,0,0-.008-1.016l-.77-1.283.31-.31,1.283.77a1,1,0,0,0,1.016.008,4.983,4.983,0,0,1,1.2-.5,1,1,0,0,0,.71-.724L46.78,35h.44l.363,1.452a1,1,0,0,0,.71.724,4.983,4.983,0,0,1,1.2.5,1,1,0,0,0,1.016-.008L51.8,36.9l.31.31-.77,1.283a1,1,0,0,0-.008,1.016,4.983,4.983,0,0,1,.5,1.2,1,1,0,0,0,.724.71L54,41.78Z"></path><path d="M47,38a4,4,0,1,0,4,4A4,4,0,0,0,47,38Zm0,6a2,2,0,1,1,2-2A2,2,0,0,1,47,44Z"></path></g></svg>