<svg xmlns="http://www.w3.org/2000/svg" viewBox="0 0 64 64" x="0px" y="0px"><title>Corn</title><g><path d="M49.139,28.7c-.013-.038-.019-.076-.035-.111-.046-.138-.085-.284-.132-.42v0h0l0-.014a51.22,51.22,0,0,0-2.229-5.5c-.01-.026-.022-.049-.034-.074-3.227-6.745-7.394-11-11.985-12.207A12.878,12.878,0,0,1,39.46,5.888a1,1,0,0,0-.919-1.777A14.745,14.745,0,0,0,33,9.327V3a1,1,0,0,0-2,0V9.321a14.761,14.761,0,0,0-5.541-5.21,1,1,0,0,0-.919,1.777,12.891,12.891,0,0,1,4.742,4.471A13.989,13.989,0,0,0,23.4,13.822a.976.976,0,0,0-.15.137,22.55,22.55,0,0,0-2.081,2.3.965.965,0,0,0-.157.2A43.131,43.131,0,0,0,14.2,30.8,87.543,87.543,0,0,0,11,55c0,2.009.058,4.046.171,6.057a1,1,0,0,0,1,.943H51.83a1,1,0,0,0,1-.943C52.942,59.046,53,57.009,53,55A84.888,84.888,0,0,0,49.139,28.7ZM16.543,30H23v4h-.225a13.878,13.878,0,0,0-6.329-3.686C16.478,30.209,16.51,30.1,16.543,30Zm2.288-6H23v4H17.214Q17.972,25.873,18.831,24Zm3.483-6H23v4H19.814A30.418,30.418,0,0,1,22.314,18ZM31,24v4H25V24Zm-6-2V18h6v4Zm6,8v4H25V30Zm2,0h6v4H33Zm0-2V24h6v4Zm0-6V18h6v4Zm8-4h.643a30.774,30.774,0,0,1,2.524,4H41Zm-2-2H33V12.067a11.089,11.089,0,0,1,6,3.008Zm-8-3.93V16H25v-.99A11,11,0,0,1,31,12.07ZM25,36h6v4H27.341A31,31,0,0,0,25,36.479Zm6,6v6.25A49.758,49.758,0,0,0,28.413,42Zm2,6.484V42h2.224A57.441,57.441,0,0,0,33,48.484ZM36.106,40H33V36h5.24A37.913,37.913,0,0,0,36.106,40ZM41,32.247V30h2.293A19.65,19.65,0,0,0,41,32.247ZM41,28V24h4.156q.845,1.822,1.59,3.887c-.089.037-.178.073-.267.113ZM13.119,60C13.04,58.335,13,56.657,13,55q0-1.561.049-3.106c.011-.344.033-.682.047-1.023.029-.683.056-1.366.1-2.042.026-.414.064-.821.1-1.233.045-.6.088-1.193.144-1.783.042-.437.1-.866.142-1.3.061-.555.12-1.112.19-1.66.058-.443.125-.877.189-1.315.076-.527.151-1.056.236-1.576.072-.438.154-.867.232-1.3.092-.509.183-1.02.284-1.521.086-.423.18-.838.272-1.256.109-.495.217-.991.335-1.477.1-.407.2-.8.308-1.2q.13-.495.266-.983C22.476,33.717,28.432,43.2,31.23,56.8c0,.02.006.041.011.061.222,1.081.414,2.117.581,3.139h-18.7Zm37.762,0H33.841c-.175-1.094-.37-2.2-.605-3.353a62.128,62.128,0,0,1,4.418-15.24,34.533,34.533,0,0,1,3.2-5.749l-.01-.007a.817.817,0,0,0,.056-.084l.016.009A17.069,17.069,0,0,1,46.955,30h.5A83.579,83.579,0,0,1,51,55C51,56.657,50.96,58.335,50.881,60Z"></path></g></svg>