<svg xmlns="http://www.w3.org/2000/svg" viewBox="0 0 64 64" x="0px" y="0px"><g><path d="M37.93,39.38A2.993,2.993,0,0,0,35,37a2.932,2.932,0,0,0-2.04.82L28,36.27v-.82A4.055,4.055,0,0,0,30,36a3.979,3.979,0,0,0,3.48-2.04,4,4,0,0,0,4.04-5.86A3.987,3.987,0,0,0,39,25a3.942,3.942,0,0,0-1.03-2.65c.01-.12.03-.23.03-.35a4,4,0,0,0-3.23-3.92,2.987,2.987,0,0,0,.79-.97l.11-.21A2.979,2.979,0,0,0,34,12.75V8.28a5.023,5.023,0,0,0-4.07-4.91L24.76,2.33a9.315,9.315,0,0,0-3.53,0L16.02,3.38A5.009,5.009,0,0,0,12,8.28v4.47a2.979,2.979,0,0,0-1.67,4.15l.1.21a3.239,3.239,0,0,0,.78.97A4,4,0,0,0,8,22c0,.12.02.23.03.35A3.942,3.942,0,0,0,7,25a3.987,3.987,0,0,0,1.48,3.1,4,4,0,0,0,4.04,5.86A3.979,3.979,0,0,0,16,36a4.055,4.055,0,0,0,2-.55v.82l-4.96,1.55A2.932,2.932,0,0,0,11,37a2.993,2.993,0,0,0-2.93,2.38A8.949,8.949,0,0,0,2,47.88V61a1,1,0,0,0,1,1H43a1,1,0,0,0,1-1V47.88A8.949,8.949,0,0,0,37.93,39.38ZM34,20a2.006,2.006,0,0,1,2,2,2.015,2.015,0,0,1-2,2Zm2.83,4.83a1.092,1.092,0,0,0,.13-.17A1.861,1.861,0,0,1,37,25a1.991,1.991,0,0,1-1.3,1.87,1,1,0,0,0-.33,1.68A1.965,1.965,0,0,1,36,30a2.006,2.006,0,0,1-2,2,1.835,1.835,0,0,1-.73-.15,1.085,1.085,0,0,0-.83.03,1.071,1.071,0,0,0-.52.64A1.99,1.99,0,0,1,30,34a1.956,1.956,0,0,1-1.36-.57A11.061,11.061,0,0,0,33.81,26H34A4,4,0,0,0,36.83,24.83ZM14,8.28a3.03,3.03,0,0,1,2.47-2.95l5.15-1.04a7.478,7.478,0,0,1,2.75,0l5.21,1.05A3.016,3.016,0,0,1,32,8.28v4.09l-6.42-.98a16.537,16.537,0,0,0-5.16,0L14,12.37ZM12.13,15.1a.978.978,0,0,1,.73-.53l7.86-1.21a15.374,15.374,0,0,1,4.56,0l7.86,1.21A1,1,0,0,1,33.88,16l-.1.21a1.006,1.006,0,0,1-1.08.54l-7.37-1.34a12.589,12.589,0,0,0-4.66,0L13.3,16.75a1.006,1.006,0,0,1-1.08-.54l-.1-.2A1.006,1.006,0,0,1,12.13,15.1ZM12,20v4a2.015,2.015,0,0,1-2-2A2.006,2.006,0,0,1,12,20Zm4,14a1.99,1.99,0,0,1-1.92-1.48,1.071,1.071,0,0,0-.52-.64,1.085,1.085,0,0,0-.83-.03A1.835,1.835,0,0,1,12,32a2.006,2.006,0,0,1-2-2,1.965,1.965,0,0,1,.63-1.45,1,1,0,0,0-.33-1.68A1.991,1.991,0,0,1,9,25a1.861,1.861,0,0,1,.04-.34,1.092,1.092,0,0,0,.13.17A4,4,0,0,0,12,26h.19a10.943,10.943,0,0,0,3.03,5.78,10.717,10.717,0,0,0,2.14,1.65A1.956,1.956,0,0,1,16,34Zm.64-3.64A8.942,8.942,0,0,1,14,24V18.65l7.03-1.28a11.1,11.1,0,0,1,3.94.01L32,18.65V24a8.989,8.989,0,0,1-12.79,8.16A8.893,8.893,0,0,1,16.64,30.36ZM26,34.57V37a3,3,0,0,1-6,0V34.57a10.68,10.68,0,0,0,6,0ZM18.19,38.3a4.977,4.977,0,0,0,9.62,0l4.23,1.33A2.206,2.206,0,0,0,32,40v6H14V40a2.206,2.206,0,0,0-.04-.37ZM10,40a1,1,0,0,1,2,0v8a1,1,0,0,1-2,0ZM4,47.88a6.947,6.947,0,0,1,4-6.31V48a3.005,3.005,0,0,0,.97,2.2A8.64,8.64,0,0,0,8,54H4ZM4,60V56H8.28a8.778,8.778,0,0,0,1.25,2.77A2.673,2.673,0,0,1,9.97,60Zm31.92-5.15a6.891,6.891,0,0,1-1.09,2.78,4.759,4.759,0,0,0-.8,2.37H11.97a4.68,4.68,0,0,0-.79-2.36,6.982,6.982,0,0,1-1.11-2.82A4.465,4.465,0,0,1,10,54a6.618,6.618,0,0,1,.82-3.02A1.1,1.1,0,0,0,11,51a3.009,3.009,0,0,0,3-3H32a3.009,3.009,0,0,0,3,3,1.1,1.1,0,0,0,.18-.02A6.618,6.618,0,0,1,36,54,4.208,4.208,0,0,1,35.92,54.85ZM36,48a1,1,0,0,1-2,0V40a1,1,0,0,1,2,0Zm6,12H36.03a2.652,2.652,0,0,1,.45-1.24A8.8,8.8,0,0,0,37.72,56H42Zm0-6H38a8.64,8.64,0,0,0-.97-3.8A3.005,3.005,0,0,0,38,48V41.57a6.947,6.947,0,0,1,4,6.31Z"></path><path d="M61,27H43a1,1,0,0,0-1,1v2H40a1,1,0,0,0-1,1v5a.988.988,0,0,0,.55.89L51,42.62V44H49a1,1,0,0,0-1,1V61a1,1,0,0,0,1,1h6a1,1,0,0,0,1-1V45a1,1,0,0,0-1-1H53V42a.988.988,0,0,0-.55-.89L41,35.38V32h1v2a1,1,0,0,0,1,1h5v1a3,3,0,0,0,6,0V35h2v3a3,3,0,0,0,6,0V28A1,1,0,0,0,61,27ZM54,60H50V50h4Zm0-14v2H50V46Zm6-8a1,1,0,0,1-2,0V35a3,3,0,0,0-6,0v1a1,1,0,0,1-2,0V34a1,1,0,0,0-1-1H44V29H60Z"></path><circle cx="19" cy="21" r="2"></circle><circle cx="27" cy="21" r="2"></circle><path d="M23,29a4.994,4.994,0,0,0,3.307-1.25l-1.323-1.5a3.076,3.076,0,0,1-3.968,0l-1.323,1.5A4.994,4.994,0,0,0,23,29Z"></path></g></svg>