<svg xmlns="http://www.w3.org/2000/svg" viewBox="0 0 64 64" x="0px" y="0px"><g data-name="Graveyard"><circle cx="51" cy="12" r="5"></circle><path d="M23,11a1,1,0,0,1-1-1,3,3,0,0,0-6,0,.74.74,0,0,1,.02.19,1,1,0,0,1-1.353.936A1.99,1.99,0,0,0,12,13H25A2,2,0,0,0,23,11Z"></path><polygon points="11 47 13 47 13 41 15 41 15 39 13 39 13 37 11 37 11 39 9 39 9 41 11 41 11 47"></polygon><polygon points="52.828 47.924 54.76 48.442 56.313 42.646 58.244 43.164 58.762 41.232 56.83 40.714 57.348 38.783 55.416 38.265 54.898 40.197 52.967 39.679 52.449 41.611 54.381 42.128 52.828 47.924"></polygon><polygon points="31 38 33 38 33 30 35 30 35 28 33 28 33 26 31 26 31 28 29 28 29 30 31 30 31 38"></polygon><path d="M16.456,22.453a1.987,1.987,0,0,1,2.87-.19,1,1,0,0,0,1.636-.479,1.995,1.995,0,0,1,3.913.348l1.992-.174a3.991,3.991,0,0,0-7.289-1.888A4,4,0,0,0,14,24.087L16,23.913A1.987,1.987,0,0,1,16.456,22.453Z"></path><path d="M40,24a.993.993,0,0,1,.559.171,1,1,0,0,0,1.5-.5A1,1,0,0,1,44,24h2a2.993,2.993,0,0,0-5.3-1.917A3,3,0,0,0,37,25h2A1,1,0,0,1,40,24Z"></path><path d="M53.965,60l3.363-9.832-7.577-2.032L49.414,50H51a1,1,0,0,1,.948.684l1,3-1.9.632L50.279,52H49.053l-1.446,8H39.043l.45-10.344-.718.18-.827,2.48a1,1,0,0,1-.632.633l-3,1-.632-1.9,2.525-.842.843-2.525a1,1,0,0,1,.7-.654l1.826-.458L39.956,39H24.044l.13,3H26a1,1,0,0,1,.895.553l.85,1.7,1.7.851-.894,1.79-2-1a1,1,0,0,1-.448-.448L25.382,44H24.261l.7,16H16V55.62l-1.324.265L13.9,57.447l-1.79-.894,1-2a1,1,0,0,1,.7-.533l2.2-.44V48H8.074l.214,3H10a1,1,0,0,1,.895.553l1,2-1.79.894L9.382,53H8.431l.5,7H2v2H62V60Z"></path></g></svg>