<svg xmlns="http://www.w3.org/2000/svg" viewBox="0 0 64 64" x="0px" y="0px"><g data-name="Business-Man-Avatar-Hat"><path d="M24.508,41.906l4.96,3.858-4.4-10.393a1,1,0,0,1,.1-.926l.837-1.255c-.324.06-.641.136-.954.223l-1.8,4.216,2.308,1.539a1,1,0,0,1,.152,1.539Z"></path><polygon points="28.073 33.692 27.124 35.117 28.444 38.417 30.575 36.819 28.073 33.692"></polygon><path d="M23,22V20a1,1,0,0,0,0,2Z"></path><path d="M41,13a9,9,0,0,0-18,0Z"></path><rect x="22" y="15" width="20.001" height="1"></rect><path d="M40.753,37.629l-1.8-4.216c-.313-.087-.63-.163-.954-.223l.837,1.255a1,1,0,0,1,.1.926l-4.4,10.393,4.96-3.858-1.2-1.2a1,1,0,0,1,.152-1.539Z"></path><path d="M47,60V44a10.994,10.994,0,0,0-5.385-9.442l1.3,3.048a1,1,0,0,1-.364,1.226L40.57,40.155l1.137,1.138a1,1,0,0,1-.093,1.5L33,49.489V60h8V44h2V60Z"></path><polygon points="35 31.649 35 29 29 29 29 31.649 32 35.399 35 31.649"></polygon><polygon points="36.876 35.117 35.927 33.692 33.425 36.819 35.556 38.417 36.876 35.117"></polygon><polygon points="34.763 40.322 32 38.25 29.237 40.322 32 46.538 34.763 40.322"></polygon><path d="M41,20v2a1,1,0,0,0,0-2Z"></path><path d="M25,19v5a3,3,0,0,0,3,3h8a3,3,0,0,0,3-3V18H25Zm9.29-.71a1.155,1.155,0,0,1,.33-.21.991.991,0,0,1,.76,0,1.155,1.155,0,0,1,.33.21A1.029,1.029,0,0,1,36,19a1,1,0,0,1-.08.38,1.169,1.169,0,0,1-.21.33,1.155,1.155,0,0,1-.33.21.943.943,0,0,1-.76,0,1.155,1.155,0,0,1-.33-.21,1.169,1.169,0,0,1-.21-.33A1,1,0,0,1,34,19,1.029,1.029,0,0,1,34.29,18.29Zm-6.27.51a.636.636,0,0,1,.06-.18.782.782,0,0,1,.09-.181l.12-.149a1.018,1.018,0,0,1,.91-.27.636.636,0,0,1,.18.06.757.757,0,0,1,.18.09l.15.12.12.149a.782.782,0,0,1,.09.181.636.636,0,0,1,.06.18A1.355,1.355,0,0,1,30,19a1,1,0,0,1-.08.38,1.169,1.169,0,0,1-.21.33.99.99,0,0,1-1.09.21,1.155,1.155,0,0,1-.33-.21,1.169,1.169,0,0,1-.21-.33A1,1,0,0,1,28,19,1.355,1.355,0,0,1,28.02,18.8Z"></path><path d="M31,60V49.489l-8.614-6.7a1,1,0,0,1-.093-1.5l1.137-1.138-1.985-1.323a1,1,0,0,1-.364-1.226l1.3-3.048A10.994,10.994,0,0,0,17,44V60h4V44h2V60Z"></path></g></svg>