<svg xmlns="http://www.w3.org/2000/svg" viewBox="0 0 64 64" x="0px" y="0px"><g><path d="M48.051,22.464A4.973,4.973,0,0,0,44.515,21H13.924a5,5,0,0,0-4.581,3L5.258,33.334A14.912,14.912,0,0,0,4,39.347V45H7v2H4.184A3,3,0,0,0,7,49H8.08a6.991,6.991,0,0,1,13.84,0H38V35H13.44a3,3,0,0,1-2.94-3.588l1.2-6A3.013,3.013,0,0,1,14.64,23H48.586Z"></path><path d="M49,45a5,5,0,1,0,5,5A5.006,5.006,0,0,0,49,45Zm1,6H48V49h2Z"></path><path d="M15,45a5,5,0,1,0,5,5A5.006,5.006,0,0,0,15,45Zm1,6H14V49h2Z"></path><path d="M55.92,49H59a1,1,0,0,0,1-1V47H57V45h3V43H57a3,3,0,0,1,0-6h3v-.515A5,5,0,0,0,59.752,35H40V49h2.08a6.991,6.991,0,0,1,13.84,0ZM46,39H42V37h4Z"></path><path d="M13.66,25.809l-1.2,6a.983.983,0,0,0,.2.828A1,1,0,0,0,13.44,33H38V25H14.64A1.007,1.007,0,0,0,13.66,25.809Z"></path><path d="M40,25v8H58.576c-.015-.016-.025-.034-.041-.05L50.586,25Z"></path><rect x="35" y="17" width="6" height="2"></rect><path d="M56,40a1,1,0,0,0,1,1h3V39H57A1,1,0,0,0,56,40Z"></path><path d="M37,15h2V14a1,1,0,0,0-2,0Z"></path><rect x="37" y="7" width="2" height="2"></rect><rect x="41.242" y="8.757" width="2" height="2" transform="translate(5.465 32.715) rotate(-44.98)"></rect><rect x="32.757" y="8.757" width="2" height="2" transform="translate(2.994 26.739) rotate(-45.02)"></rect><rect x="43" y="13" width="2" height="2"></rect><rect x="31" y="13" width="2" height="2"></rect></g></svg>