<svg xmlns="http://www.w3.org/2000/svg" viewBox="0 0 32 32" x="0px" y="0px"><title>File Text_5</title><g data-name="File Text"><path d="M27.99,7.945a.941.941,0,0,0-.04-.223.775.775,0,0,0-.027-.094,1,1,0,0,0-.164-.279l-6-7a.978.978,0,0,0-.306-.231C21.423.1,21.4.092,21.364.08a.977.977,0,0,0-.32-.07C21.029.009,21.015,0,21,0H5A1,1,0,0,0,4,1V31a1,1,0,0,0,1,1H27a1,1,0,0,0,1-1V8C28,7.981,27.991,7.964,27.99,7.945ZM22,3.7,24.826,7H22ZM6,30V2H20V8a1,1,0,0,0,1,1h5V30Z"></path><path d="M23,13H9a1,1,0,0,0-1,1V26a1,1,0,0,0,1,1H23a1,1,0,0,0,1-1V14A1,1,0,0,0,23,13Zm-1,2v2H10V15Zm0,4v2H10V19ZM10,25V23H22v2Z"></path></g></svg>