<svg xmlns="http://www.w3.org/2000/svg" viewBox="0 0 64 64" x="0px" y="0px"><g data-name="Folder"><rect x="10" y="48" width="2" height="2"></rect><rect x="14" y="48" width="6" height="2"></rect><rect x="10" y="52" width="10" height="2"></rect><path d="M58,2H24a3,3,0,0,0-3,3V26.251l-7.367-6.025A1,1,0,0,0,13,20H5a3,3,0,0,0-3,3V59a3,3,0,0,0,3,3H47a3,3,0,0,0,3-3V46h8a3,3,0,0,0,3-3V5A3,3,0,0,0,58,2ZM45,4h2V6.7l-.168-.252a1.039,1.039,0,0,0-1.664,0L45,6.7ZM23,5a1,1,0,0,1,1-1H43v6a1,1,0,0,0,1.832.555L46,8.8l1.168,1.752A1,1,0,0,0,49,10V4h1a1,1,0,0,1,1,1V43a1,1,0,0,1-1,1H24a1,1,0,0,1-1-1ZM22,46V56H8V46ZM5,22h7.644L21,28.833v4.418l-7.367-6.025A1,1,0,0,0,13,27H4V23A1,1,0,0,1,5,22ZM47,60H5a1,1,0,0,1-1-1V29h8.644L21,35.833V43a2.966,2.966,0,0,0,.184,1H7a1,1,0,0,0-1,1V57a1,1,0,0,0,1,1H23a1,1,0,0,0,1-1V46H48V59A1,1,0,0,1,47,60Zm5.816-16A2.966,2.966,0,0,0,53,43V5a2.966,2.966,0,0,0-.184-1H54a1,1,0,0,1,1,1V43a1,1,0,0,1-1,1ZM59,43a1,1,0,0,1-1,1H56.816A2.966,2.966,0,0,0,57,43V5a2.966,2.966,0,0,0-.184-1H58a1,1,0,0,1,1,1Z"></path><rect x="43" y="22" width="6" height="2"></rect><rect x="25" y="12" width="12" height="2"></rect><rect x="25" y="8" width="4" height="2"></rect><rect x="31" y="8" width="6" height="2"></rect><rect x="25" y="18" width="24" height="2"></rect><rect x="25" y="22" width="10" height="2"></rect><rect x="37" y="22" width="4" height="2"></rect><rect x="25" y="26" width="24" height="2"></rect><rect x="25" y="30" width="24" height="2"></rect><rect x="25" y="34" width="24" height="2"></rect></g></svg>