<svg xmlns="http://www.w3.org/2000/svg" viewBox="0 0 64 64" x="0px" y="0px"><title>Calendar-meeting-Idea</title><g><path d="M51,60H19V36a1,1,0,0,0-1-1H9.271L16.786,4H51V8h2V3a1,1,0,0,0-1-1H16a1,1,0,0,0-.972.765l-8,33A1,1,0,0,0,8,37h9V61a1,1,0,0,0,1,1H52a1,1,0,0,0,1-1V29H51Z"></path><path d="M23,15a2,2,0,0,1-4,0,1,1,0,0,0-2,0,4,4,0,0,0,8,0,1,1,0,0,0-2,0Z"></path><path d="M57,11H56V10H54v1H52V10H50v1H48V10H46v1H44V10H42v1H41a1,1,0,0,0-1,1V26a1,1,0,0,0,1,1H57a1,1,0,0,0,1-1V12A1,1,0,0,0,57,11Zm-1,2v2H42V13ZM42,25V17H56v8Z"></path><rect x="44" y="18" width="2" height="2"></rect><rect x="48" y="18" width="2" height="2"></rect><rect x="52" y="18" width="2" height="2"></rect><rect x="44" y="22" width="2" height="2"></rect><rect x="48" y="22" width="2" height="2"></rect><rect x="52" y="22" width="2" height="2"></rect></g></svg>