<svg xmlns="http://www.w3.org/2000/svg" viewBox="0 0 64 64" x="0px" y="0px"><g><path d="M62,35V33H60.9a5.038,5.038,0,0,0-.73-1.75l.78-.79-1.41-1.41-.79.78a4.891,4.891,0,0,0-2.29-.78L54,26.59A1.983,1.983,0,0,0,52.59,26H47.07l-1.48-2.55,2.1-.38A2.01,2.01,0,0,0,49.12,22l1.18-2.36a2.012,2.012,0,0,0,0-1.79,1.985,1.985,0,0,0-1.43-1.07l-9.6-1.75a2.186,2.186,0,0,0-.36-.03h-8.5a1.983,1.983,0,0,0-1.41.59L27.59,17H11.72A2,2,0,0,0,10,16H4a2.006,2.006,0,0,0-2,2v4a2.006,2.006,0,0,0,2,2h6a2,2,0,0,0,1.72-1H23.69c.04.06.08.13.12.19L19,25.39V29H11V28H9v1.1a5.038,5.038,0,0,0-1.75.73l-.79-.78L5.05,30.46l.78.79A5.038,5.038,0,0,0,5.1,33H4v2H5.1a5.038,5.038,0,0,0,.73,1.75l-.78.79,1.41,1.41.79-.78A5.038,5.038,0,0,0,9,38.9V40h2v1h1.08a7.108,7.108,0,0,0,.42,1.6l-.93.53,1,1.74.94-.54a7.072,7.072,0,0,0,1.16,1.16l-.54.94,1.74,1,.53-.93a7.108,7.108,0,0,0,1.6.42V48h2V47h2v1h2V47h2v1h2V47h2v1h2V47h2v1h2V47h2v1h2V47h2v1h2V47h2v1h2V46.92a7.108,7.108,0,0,0,1.6-.42l.53.93,1.74-1-.54-.94a7.072,7.072,0,0,0,1.16-1.16l.94.54,1-1.74-.93-.53a7.108,7.108,0,0,0,.42-1.6H55V40h2V38.9a5.038,5.038,0,0,0,1.75-.73l.79.78,1.41-1.41-.78-.79A5.038,5.038,0,0,0,60.9,35ZM10,22H4V18h6Zm2.08,17H11v-.1a5.263,5.263,0,0,0,1.17-.42A4.714,4.714,0,0,0,12.08,39ZM10,37a3,3,0,1,1,3-3A3.009,3.009,0,0,1,10,37Zm42.59-9,1,1H40.41l1-1ZM30.41,17h8.5l9.6,1.75-1.18,2.36L36.91,23H26.41l-1-1Zm-6.72,4H12V19H25.59L24,20.59A1.771,1.771,0,0,0,23.69,21ZM21,26.67l4.35-1.99a1.912,1.912,0,0,0,1.06.32h10.5a2.186,2.186,0,0,0,.36-.03l6.23-1.14L44.76,26H41.41a1.983,1.983,0,0,0-1.41.59L37.59,29H35a2.006,2.006,0,0,0-2-2H27a2.006,2.006,0,0,0-2,2H21ZM33,29v4H27V29ZM19,45a5,5,0,1,1,5-5A5,5,0,0,1,19,45Zm4.89,0a6.99,6.99,0,0,0-8.92-10.71A2.85,2.85,0,0,0,15,34a4.924,4.924,0,0,0-1.03-3H25v2a2.006,2.006,0,0,0,2,2h6a2.006,2.006,0,0,0,2-2V31h2v6a2.006,2.006,0,0,0,2,2h1.09A6.638,6.638,0,0,0,40,40a6.97,6.97,0,0,0,2.11,5ZM47,45a5,5,0,0,1-5-5,5.566,5.566,0,0,1,.11-1h1.03A4.231,4.231,0,0,0,43,40a4,4,0,1,0,7.21-2.38l.92-.4A4.872,4.872,0,0,1,52,40,5,5,0,0,1,47,45Zm-2-5a2.023,2.023,0,0,1,.27-1h1.37a1.98,1.98,0,0,0,.8-.17l.83-.36A1.976,1.976,0,0,1,49,40a2,2,0,0,1-4,0Zm1.64-3H39V31H55v2.35ZM55,39H53.92a4.014,4.014,0,0,0-.09-.5,5.19,5.19,0,0,0,1.17.39Zm1-2a2.981,2.981,0,0,1-2.18-.96l1.01-.44A1.968,1.968,0,0,0,56,36a1.992,1.992,0,0,0,1-3.72v-1.1A3,3,0,0,1,56,37Z"></path><path d="M19,36a4,4,0,1,0,4,4A4,4,0,0,0,19,36Zm0,6a2,2,0,1,1,2-2A2,2,0,0,1,19,42Z"></path><circle cx="10" cy="34" r="2"></circle></g></svg>