<svg xmlns="http://www.w3.org/2000/svg" viewBox="0 0 64 64" x="0px" y="0px"><g><path d="M59,44H51a3,3,0,0,0-3,3v2H46V45a3,3,0,0,0-3-3V40h3a1,1,0,0,0,1-1V22h4V33a2.981,2.981,0,0,0,.52,1.685A4.983,4.983,0,0,0,49,39h2a3,3,0,0,1,6,0h2a4.983,4.983,0,0,0-2.52-4.315A2.981,2.981,0,0,0,57,33V21.618A3.962,3.962,0,0,0,58,19a4,4,0,0,0-4-4,3.962,3.962,0,0,0-2.618,1H46.949a14.981,14.981,0,0,0-29.9,0H12.618A3.962,3.962,0,0,0,10,15a4,4,0,0,0-4,4,3.962,3.962,0,0,0,1,2.618V33a2.981,2.981,0,0,0,.52,1.685A4.983,4.983,0,0,0,5,39H7a3,3,0,0,1,6,0h2a4.983,4.983,0,0,0-2.52-4.315A2.981,2.981,0,0,0,13,33V22h4V39a1,1,0,0,0,1,1h3v2a3,3,0,0,0-3,3v4H16V47a3,3,0,0,0-3-3H5a3,3,0,0,0-3,3V59a3,3,0,0,0,3,3h8a3,3,0,0,0,3-3V57H48v2a3,3,0,0,0,3,3h8a3,3,0,0,0,3-3V47A3,3,0,0,0,59,44ZM50.142,20H47V18h3.142a3.592,3.592,0,0,0,0,2ZM53,33V22.858a3.592,3.592,0,0,0,2,0V33a1,1,0,0,1-2,0Zm1-16a2,2,0,1,1-2,2A2,2,0,0,1,54,17ZM32,4A13.015,13.015,0,0,1,45,17V32H41V27a1,1,0,0,0-1-1H24a1,1,0,0,0-1,1v5H19V17A13.015,13.015,0,0,1,32,4Zm7,28H25V28H39ZM10,17a2,2,0,1,1-2,2A2,2,0,0,1,10,17ZM9,33V22.858a3.592,3.592,0,0,0,2,0V33a1,1,0,0,1-2,0Zm4.858-13a3.592,3.592,0,0,0,0-2H17v2ZM19,34H45v4H19Zm4,6H41v2H23ZM4,59V58H6V56H4V54H6V52H4V50H6V48H4V47a1,1,0,0,1,1-1H8V60H5A1,1,0,0,1,4,59Zm9,1H10V46h3a1,1,0,0,1,1,1v1H12v2h2v2H12v2h2v2H12v2h2v1A1,1,0,0,1,13,60Zm3-9h2v4H16Zm28,4H20V45a1,1,0,0,1,1-1H43a1,1,0,0,1,1,1Zm2,0V51h2v4Zm4,4V58h2V56H50V54h2V52H50V50h2V48H50V47a1,1,0,0,1,1-1h3V60H51A1,1,0,0,1,50,59Zm9,1H56V46h3a1,1,0,0,1,1,1v1H58v2h2v2H58v2h2v2H58v2h2v1A1,1,0,0,1,59,60Z"></path><path d="M37,45H27a3,3,0,0,0-3,3v2a3,3,0,0,0,3,3H37a3,3,0,0,0,3-3V48A3,3,0,0,0,37,45Zm1,5a1,1,0,0,1-1,1H27a1,1,0,0,1-1-1V48a1,1,0,0,1,1-1H37a1,1,0,0,1,1,1Z"></path><path d="M22,22H42a1,1,0,0,0,1-1V17a11,11,0,0,0-22,0v4A1,1,0,0,0,22,22Zm1-5a9,9,0,0,1,18,0v3H23Z"></path><path d="M32,10a4,4,0,1,0,4,4A4,4,0,0,0,32,10Zm0,6a2,2,0,1,1,2-2A2,2,0,0,1,32,16Z"></path></g></svg>