<svg xmlns="http://www.w3.org/2000/svg" viewBox="0 0 64 64" x="0px" y="0px"><path d="M13,33A11,11,0,1,0,24,22,11.013,11.013,0,0,0,13,33Zm19.394-.919a1,1,0,0,1,0,1.838l-14,6A.981.981,0,0,1,18,40a1,1,0,0,1-.832-1.554L20.8,33l-3.63-5.445a1,1,0,0,1,1.226-1.474Z"></path><path d="M26,60h6V43.226a12.93,12.93,0,0,1-6,2.6Z"></path><path d="M34,60h9V38H36a13,13,0,0,1-2,3.3Z"></path><path d="M4,5V28h8a13.018,13.018,0,0,1,12-8V4H5A1,1,0,0,0,4,5Z"></path><path d="M32,4H26V20.17a12.93,12.93,0,0,1,6,2.6Z"></path><path d="M22.832,33.554l-2.132,3.2L29.462,33,20.7,29.244l2.134,3.2A1,1,0,0,1,22.832,33.554Z"></path><path d="M49,17.91A2,2,0,0,0,47,16c-.03,0-.061,0-.092,0A2,2,0,0,0,45,18.09,1.978,1.978,0,0,0,47.09,20,2,2,0,0,0,49,17.91Z"></path><path d="M5,60H24V46a13.018,13.018,0,0,1-12-8H4V59A1,1,0,0,0,5,60Zm6.82-17A4.015,4.015,0,0,1,16,46.819h0a4.006,4.006,0,0,1-3,4.051V55H11V50.857A3.991,3.991,0,0,1,11.82,43Z"></path><path d="M60,36V30H36.637a12.578,12.578,0,0,1,0,6H44a1,1,0,0,1,1,1V60h6V37a1,1,0,0,1,1-1Z"></path><path d="M60,59V38H53V60h6A1,1,0,0,0,60,59Z"></path><path d="M12.09,49A2,2,0,0,0,12,45c-.03,0-.061,0-.092,0a2,2,0,1,0,.18,4Z"></path><path d="M4,30v6h7.363a12.578,12.578,0,0,1,0-6Z"></path><path d="M48,28H60V5a1,1,0,0,0-1-1H34V24.705A13,13,0,0,1,36,28H48Zm-5-9.819A4,4,0,0,1,51,17.819h0a4.006,4.006,0,0,1-3,4.051V26H46V21.857A4,4,0,0,1,43,18.181Z"></path></svg>