<svg xmlns="http://www.w3.org/2000/svg" viewBox="0 0 64 64" x="0px" y="0px"><g data-name="VHS Player-Video Tape-Tape-Recorder-Electronic"><path d="M53,32a3,3,0,0,0,2.816-2H50.184A3,3,0,0,0,53,32Z"></path><path d="M53,26a3,3,0,0,0-2.816,2h5.632A3,3,0,0,0,53,26Z"></path><rect x="16" y="26" width="28" height="4"></rect><rect x="7" y="40" width="4" height="2"></rect><rect x="53" y="40" width="4" height="2"></rect><path d="M60,22H4V38H60ZM12,31H8V29h4Zm0-4H8V25h4Zm10,9H20V34h2Zm4,0H24V34h2Zm10,0H34V34h2Zm4,0H38V34h2Zm6-5a1,1,0,0,1-1,1H15a1,1,0,0,1-1-1V25a1,1,0,0,1,1-1H45a1,1,0,0,1,1,1Zm7,3a5,5,0,1,1,5-5A5.006,5.006,0,0,1,53,34Z"></path></g></svg>