<svg xmlns="http://www.w3.org/2000/svg" viewBox="0 0 64 64" x="0px" y="0px"><g><path d="M33.694,29H44.306a1,1,0,0,0,.986-.835L46.819,19H31.181l1.527,9.165A1,1,0,0,0,33.694,29ZM42,21h2v6H42Zm-4,0h2v6H38Zm-4,0h2v6H34Z"></path><path d="M53,7a3,3,0,0,0-3-3H46V6a2,2,0,0,1-2,2H34a2,2,0,0,1-2-2V4H28a3,3,0,0,0-3,3V28.467a3.993,3.993,0,0,1,5.366,5.507L25.51,42.386C27.576,43.484,29,46.824,29,51a16.542,16.542,0,0,1-.267,3H50a3,3,0,0,0,3-3ZM30.735,28.493,29.014,18.164A1,1,0,0,1,30,17h2.82l-.806-4.836,1.972-.328L34.847,17h8.306l.861-5.164,1.972.328L45.18,17H48a1,1,0,0,1,.986,1.164L47.265,28.493A2.991,2.991,0,0,1,44.306,31H33.694A2.991,2.991,0,0,1,30.735,28.493ZM37,36v2H35V36Zm-4,0v2H31V36ZM49,50H31V48H49Zm0-4H31V44H49Zm0-4H31V40H49Zm0-4H39V36H49Z"></path><rect x="34" y="4" width="10" height="2"></rect><path d="M23,23.01H21.81a3.011,3.011,0,0,0-2.6,1.5l-5,8.67A9.006,9.006,0,0,0,13,37.68V60H23V59a1,1,0,0,1,1-1c1.416,0,3-2.993,3-7s-1.584-7-3-7a1,1,0,0,1-.866-1.5l5.5-9.526a2,2,0,0,0-3.465-2L19.67,40.5l-1.732-1L23,30.731Z"></path></g></svg>