<svg xmlns="http://www.w3.org/2000/svg" viewBox="0 0 64 64" x="0px" y="0px"><g data-name="Hand-Washing Hand-Hygiene-Clean-Safe"><path d="M55.45,24.11l-10-5a.956.956,0,0,0-.9,0L38,22.38V15a2.015,2.015,0,0,1,2-2,2.006,2.006,0,0,1,2,2v3h2V15a3.994,3.994,0,0,0-6-3.46V11a3.994,3.994,0,0,0-6-3.46V6a4,4,0,1,0-8,0V7.54A3.995,3.995,0,0,0,18,11V27.27l-2.13-3.7a4.005,4.005,0,0,0-6.94,4L20,46.73V50H19a1,1,0,0,0-1,1V62h2V52H42V62h2V51a1,1,0,0,0-1-1H42V46.19l.33-.82-1.86-.74-.4,1A.937.937,0,0,0,40,46v4H22V46.46a1.063,1.063,0,0,0-.13-.5L10.67,26.57a1.94,1.94,0,0,1-.27-.99,2,2,0,0,1,3.73-1.01l4,6.93A1,1,0,0,0,19,32h3a7.008,7.008,0,0,1,7,7v2h2V39a9.014,9.014,0,0,0-9-9H20V11a2.015,2.015,0,0,1,2-2,2.006,2.006,0,0,1,2,2V25a1,1,0,0,0,2,0V6a2.015,2.015,0,0,1,2-2,2.006,2.006,0,0,1,2,2V25a1,1,0,0,0,2,0V11a2.015,2.015,0,0,1,2-2,2.006,2.006,0,0,1,2,2V23.38l-1.45.73A.977.977,0,0,0,34,25v6.21a13.051,13.051,0,0,0,6.31,11.14l4.18,2.51a1,1,0,0,0,1.02,0l4.18-2.51A13.051,13.051,0,0,0,56,31.21V25A.977.977,0,0,0,55.45,24.11ZM54,31.21a11.067,11.067,0,0,1-5.34,9.43L45,42.83l-3.66-2.19A11.067,11.067,0,0,1,36,31.21V25.62l9-4.5,9,4.5Z"></path><path d="M41.707,30.293l-1.414,1.414,3,3a1,1,0,0,0,1.414,0l5-5-1.414-1.414L44,32.586Z"></path></g></svg>