<svg xmlns="http://www.w3.org/2000/svg" viewBox="0 0 64 64" x="0px" y="0px"><g><path d="M40.586,12,34,5.414V9a3,3,0,0,0,3,3Z"></path><path d="M33.5,54.2l.089-.064A2.959,2.959,0,0,1,36.6,53.82l.1.044c.151.066.308.135.471.192.143.059.2.087.261.107a2.974,2.974,0,0,1,1.942,2.391L39.866,60h4.268l.5-3.452a2.961,2.961,0,0,1,1.915-2.376c.3-.112.592-.235.877-.36a2.968,2.968,0,0,1,3.013.341l2.781,2.086,3.024-3.023L54.15,50.43a2.969,2.969,0,0,1-.335-3.014c.122-.283.246-.574.358-.876a2.96,2.96,0,0,1,2.38-1.91l3.447-.5V39.866l-3.453-.5a2.963,2.963,0,0,1-2.376-1.915c-.111-.3-.235-.593-.359-.879a2.962,2.962,0,0,1,.342-3.011l2.086-2.781-3.024-3.023L50.43,29.85a2.971,2.971,0,0,1-3.025.33c-.268-.117-.562-.24-.866-.354a2.962,2.962,0,0,1-1.91-2.38L44.134,24H39.866l-.5,3.452a2.961,2.961,0,0,1-1.915,2.376c-.3.112-.592.235-.877.36a2.966,2.966,0,0,1-3.013-.341l-2.781-2.086L27.76,30.784l2.09,2.786a2.969,2.969,0,0,1,.331,3.023c-.117.269-.241.563-.354.867a2.96,2.96,0,0,1-2.38,1.91l-3.447.5v4.268l3.453.5a2.963,2.963,0,0,1,2.376,1.915c.111.3.235.593.359.879a2.962,2.962,0,0,1-.342,3.011L27.76,53.216l3.024,3.023ZM42,32A10,10,0,1,1,32,42,10.011,10.011,0,0,1,42,32Z"></path><path d="M28.25,49.23a.975.975,0,0,0,.109-1c-.143-.332-.28-.657-.406-.994a.971.971,0,0,0-.78-.629l-4.316-.62A1,1,0,0,1,22,45V39a1,1,0,0,1,.857-.99l4.31-.62a.971.971,0,0,0,.785-.624c.127-.342.264-.667.4-.983a.981.981,0,0,0-.1-1.009L25.64,31.29a1,1,0,0,1,.093-1.307l4.25-4.25a1,1,0,0,1,1.307-.092l3.48,2.609a.977.977,0,0,0,1,.109c.331-.143.657-.28.992-.406a.969.969,0,0,0,.631-.78l.621-4.316A1,1,0,0,1,39,22h3V14H37a5.006,5.006,0,0,1-5-5V4H7A3,3,0,0,0,4,7V51a3,3,0,0,0,3,3H25.721a1,1,0,0,1-.081-1.29ZM26,28H12V26H26ZM14,8h6v2H14ZM8,8h4v2H8Zm0,4H20v2H8Zm0,8H30v2H8Zm0,6h2v2H8Zm0,6h6v2H8Zm8,8H8V38h8Zm0-8h2v2H16Zm4,8H18V38h2Z"></path><path d="M42,50a8,8,0,1,0-8-8A8.009,8.009,0,0,0,42,50Zm1-7H41a3,3,0,0,1,0-6V36h2v1a3,3,0,0,1,3,3H44a1,1,0,0,0-1-1H41a1,1,0,0,0,0,2h2a3,3,0,0,1,0,6v1H41V47a3,3,0,0,1-3-3h2a1,1,0,0,0,1,1h2a1,1,0,0,0,0-2Z"></path></g></svg>