<svg xmlns="http://www.w3.org/2000/svg" viewBox="0 0 64 64" x="0px" y="0px"><g data-name="Satellite Dish"><path d="M29.081,30.846A5.007,5.007,0,0,0,24.826,25.2l-.279,1.981A3,3,0,0,1,27.1,30.566Z"></path><path d="M33.042,31.4a9.013,9.013,0,0,0-7.659-10.165L25.1,23.217a7.01,7.01,0,0,1,5.958,7.907Z"></path><path d="M20.586,32.414a.983.983,0,0,0,.293.706,1.02,1.02,0,0,0,1.414,0h0a1,1,0,1,0-1.707-.706Z"></path><polygon points="17.342 35.243 18.757 36.658 18.993 35.007 17.342 35.243"></polygon><path d="M7.739,31.3,22.705,46.261a10.9,10.9,0,0,0,1.677-1.151L8.89,29.618A10.862,10.862,0,0,0,7.739,31.3Z"></path><path d="M14.446,49.312a12.885,12.885,0,0,1-5.039-2.373L6.388,56H15.78Z"></path><path d="M9.564,44.436a11.017,11.017,0,0,0,11.168,2.681L6.883,33.268A11.015,11.015,0,0,0,9.564,44.436Z"></path><rect x="4" y="58" width="14" height="2"></rect><circle cx="41" cy="44" r="1"></circle><path d="M41.194,53.608l-9.8-9.8a7,7,0,0,0,9.8,9.8Z"></path><path d="M30.523,60h5.045l-.456-3.212a8.937,8.937,0,0,1-3.748-1.77Z"></path><rect x="37.793" y="45.5" width="1.414" height="2" transform="translate(-21.604 40.843) rotate(-45)"></rect><rect x="2" y="60" width="60" height="2"></rect><path d="M46,44h2a7.009,7.009,0,0,0-7-7v2A5.006,5.006,0,0,1,46,44Z"></path><path d="M52,44A11.013,11.013,0,0,0,41,33v2a9.01,9.01,0,0,1,9,9Z"></path><path d="M55,4a5,5,0,1,0,5,5A5.006,5.006,0,0,0,55,4Zm0,8H53V10h2Zm2-4H55V6h2Z"></path><rect x="33" y="4" width="14" height="2"></rect><rect x="29" y="4" width="2" height="2"></rect><rect x="25" y="4" width="2" height="2"></rect><rect x="27" y="8" width="18" height="2"></rect><rect x="23" y="8" width="2" height="2"></rect><rect x="31" y="12" width="14" height="2"></rect><rect x="21" y="12" width="8" height="2"></rect><rect x="17" y="12" width="2" height="2"></rect></g></svg>