<svg xmlns="http://www.w3.org/2000/svg" viewBox="0 0 64 64" x="0px" y="0px"><g data-name="Browser"><rect x="10" y="32" width="10" height="6"></rect><path d="M4,60H60V12H4ZM22,46H12V44H22Zm17,8H25V52H39Zm0-4H25V48H39ZM25,46V44h2v2Zm14,0H29V44H39Zm0-6H25V30H39ZM56,54H42V52H56Zm0-4H42V48H56ZM42,46V44h2v2Zm14,0H46V44H56Zm0-6H42V30H56ZM8,16H56V26H8ZM8,30H22V40H8ZM8,44h2v2H8Zm0,4H22v2H8Zm0,4H22v2H8Z"></path><rect x="10" y="18" width="44" height="6"></rect><rect x="44" y="32" width="10" height="6"></rect><rect x="27" y="32" width="10" height="6"></rect><path d="M60,4H4v6H60ZM8,8H6V6H8Zm4,0H10V6h2Zm4,0H14V6h2ZM58,8H56V6h2Z"></path></g></svg>