<svg xmlns="http://www.w3.org/2000/svg" viewBox="0 0 64 64" x="0px" y="0px"><g><path d="M61.707,16.293l-10-10A1,1,0,0,0,51,6H33V8H50v7a3,3,0,0,0,3,3h7V53a3,3,0,0,1-3,3H36V41A13.008,13.008,0,0,0,24,28.051V25.9A5.009,5.009,0,0,0,28,21V19a3,3,0,0,0,3-3V7a5.006,5.006,0,0,0-5-5H8A1,1,0,0,0,7,3,8.937,8.937,0,0,0,8.139,7.37a2.965,2.965,0,0,0-1.487,3.359l.891,3.558A2.994,2.994,0,0,0,10,19v2a5.009,5.009,0,0,0,4,4.9v2.152A13.008,13.008,0,0,0,2,41V61a1,1,0,0,0,1,1H35a1,1,0,0,0,1-1V58H57a5.006,5.006,0,0,0,5-5V17A1,1,0,0,0,61.707,16.293ZM27.753,34.629l-2.308,1.539a1,1,0,0,0-.152,1.539l1.2,1.2-4.959,3.857,4.4-10.391a1,1,0,0,0-.1-.927L25,30.19c.324.06.641.136.954.223Zm-15.2,1.539-2.308-1.539,1.8-4.216c.313-.087.63-.163.954-.223l-.837,1.255a1,1,0,0,0-.1.927l4.4,10.391-4.959-3.857,1.2-1.2a1,1,0,0,0-.152-1.539ZM22,26v2.65L19,32.4,16,28.65V26Zm-6.927,4.692,2.5,3.127-2.131,1.6-1.32-3.3ZM19,35.25l2.763,2.072L19,43.538l-2.763-6.216Zm3.556.167-2.131-1.6,2.5-3.127.949,1.425ZM28,17V15a1,1,0,0,1,0,2ZM26,4a3,3,0,0,1,3,3v6.184A2.966,2.966,0,0,0,28,13V12a1,1,0,0,0-1-1,3.436,3.436,0,0,1-3.051-2.316,1,1,0,0,0-1.656-.391C20.9,9.688,17.277,10,16,10A7.011,7.011,0,0,1,9.071,4ZM10,9.689V13a3.007,3.007,0,0,0-.7.089l-.712-2.846a.99.99,0,0,1,.181-.858.973.973,0,0,1,.58-.337Q9.662,9.384,10,9.689ZM9,16a1,1,0,0,1,1-1v2A1,1,0,0,1,9,16Zm3,5V11.05A8.934,8.934,0,0,0,16,12c.478,0,4.2-.048,6.647-1.487A5.146,5.146,0,0,0,26,12.907V21a3,3,0,0,1-3,3H15A3,3,0,0,1,12,21ZM4,41a10.994,10.994,0,0,1,5.385-9.442l-1.3,3.048a1,1,0,0,0,.364,1.226l1.985,1.323L9.293,38.293a1,1,0,0,0,.093,1.5L18,46.489V60H10V41H8V60H4ZM34,60H30V41H28V60H20V46.489l8.614-6.7a1,1,0,0,0,.093-1.5L27.57,37.155l1.985-1.323a1,1,0,0,0,.364-1.226l-1.3-3.048A10.994,10.994,0,0,1,34,41ZM52,15V9.414L58.586,16H53A1,1,0,0,1,52,15Z"></path><path d="M33,21h2v9a1,1,0,0,0,1,1H48a1,1,0,0,0,1-1V21h2a1,1,0,0,0,.614-1.79l-9-7a1,1,0,0,0-1.228,0l-9,7A1,1,0,0,0,33,21Zm8,8V25h2v4Zm6,0H45V24a1,1,0,0,0-1-1H40a1,1,0,0,0-1,1v5H37V21H47ZM42,14.267,48.085,19H35.915Z"></path><rect x="39" y="35" width="4" height="2"></rect><rect x="45" y="35" width="8" height="2"></rect><rect x="39" y="40" width="14" height="2"></rect><path d="M48.065,46.1a2.306,2.306,0,0,1-2.133,0A3.962,3.962,0,0,0,44,45.64v2a2.034,2.034,0,0,1,1.065.261,4.3,4.3,0,0,0,3.865,0,2.308,2.308,0,0,1,2.136,0A3.97,3.97,0,0,0,53,48.36v-2a2.033,2.033,0,0,1-1.068-.262,4.31,4.31,0,0,0-3.867,0Z"></path><path d="M19,21a3,3,0,0,0,3-3H20a1,1,0,0,1-2,0H16A3,3,0,0,0,19,21Z"></path><circle cx="16" cy="14" r="1"></circle><circle cx="22" cy="14" r="1"></circle></g></svg>