<svg xmlns="http://www.w3.org/2000/svg" viewBox="0 0 64 64" x="0px" y="0px"><g data-name="Online Shopping-Checklist-Smartphone-Basket-Ecommerce"><circle cx="51" cy="39" r="2"></circle><path d="M57,40V38H54.86a3.57,3.57,0,0,1,.11.74L56.24,40Z"></path><path d="M60,14H53a3.009,3.009,0,0,1-3-3V4H21a3.009,3.009,0,0,0-3,3V20h7a5,5,0,0,1,5,5V43.76l2.02-2.03A1.99,1.99,0,0,1,31,40V38a2.006,2.006,0,0,1,2-2h3.38a3.932,3.932,0,0,1,5.24,0h6.76a3.932,3.932,0,0,1,5.24,0H57a2.006,2.006,0,0,1,2,2v2a1.99,1.99,0,0,1-1.02,1.73L60,43.76ZM31,13h2a3,3,0,0,1,0,6v1H31V19a3,3,0,0,1-3-3h2a1,1,0,0,0,1,1h2a1,1,0,0,0,0-2H31a3,3,0,0,1,0-6V8h2V9a3,3,0,0,1,3,3H34a1,1,0,0,0-1-1H31a1,1,0,0,0,0,2Zm11-1h6v2H42Zm-4,0h2v2H38Zm0,6V16H48v2ZM49.707,29.707l-4,4a1,1,0,0,1-1.414,0l-4-4A1,1,0,0,1,41,28h1V21h2v8a1,1,0,0,1-.649.937L45,31.586l1.649-1.649A1,1,0,0,1,46,29V21h2v7h1a1,1,0,0,1,.707,1.707Z"></path><path d="M47.14,40a3.641,3.641,0,0,1,0-2H42.86a3.641,3.641,0,0,1,0,2Z"></path><path d="M53.02,42.43l4.35,4.35a1.008,1.008,0,0,0,1.42,0,.987.987,0,0,0-.01-1.41l-4.35-4.35A3.969,3.969,0,0,1,53.02,42.43Z"></path><path d="M31.22,46.79a1,1,0,0,0,1.41-.01l4.35-4.35a3.969,3.969,0,0,1-1.41-1.41l-4.35,4.35A.99.99,0,0,0,31.22,46.79Z"></path><path d="M60,48.36a3.047,3.047,0,0,1-1.93.71,3,3,0,0,1-2.09-.85l-.74,5.2A3,3,0,0,1,52.27,56H37.73a3,3,0,0,1-2.97-2.57l-.74-5.21a3,3,0,0,1-2.09.85A3.047,3.047,0,0,1,30,48.36V57a4.924,4.924,0,0,1-1.03,3H57a3.009,3.009,0,0,0,3-3Z"></path><path d="M28,57V54H4v3a3.009,3.009,0,0,0,3,3H25A3.009,3.009,0,0,0,28,57ZM17,58H15V56h2Z"></path><path d="M35.14,38H33v2h.76l1.27-1.26A3.57,3.57,0,0,1,35.14,38Z"></path><path d="M36.74,53.14a1,1,0,0,0,.99.86H52.27a1,1,0,0,0,.99-.87l.95-6.68-3.47-3.48A3.971,3.971,0,0,1,48.38,42H41.62a3.971,3.971,0,0,1-2.36.97l-3.47,3.48Zm12.268-9.264,1.984.248-1,8-1.984-.248ZM44,44h2v8H44Zm-3.008-.124,1,8-1.984.248-1-8Z"></path><circle cx="39" cy="39" r="2"></circle><path d="M28,28H4V52H28ZM10,49H6V47h4Zm0-4H6V43h4ZM6,36a4.992,4.992,0,0,1,7.753-4.167l1.54-1.54,1.414,1.414-1.54,1.54A5,5,0,1,1,6,36ZM26,49H12V47H26Zm0-4H12V43H26Zm0-4H18V39h8Zm0-4H18V35h8Z"></path><path d="M28,25a3.009,3.009,0,0,0-3-3H7a3.009,3.009,0,0,0-3,3v1H28Z"></path><path d="M10.707,37.707,9.293,36.293,12.285,33.3A2.951,2.951,0,0,0,11,33a3,3,0,1,0,3,3,2.951,2.951,0,0,0-.3-1.285Z"></path><path d="M58.59,12,52,5.41V11a1,1,0,0,0,1,1Z"></path></g></svg>