<svg xmlns="http://www.w3.org/2000/svg" viewBox="0 0 64 64" x="0px" y="0px"><g><path d="M39,49a3.009,3.009,0,0,0-3-3H28a3.009,3.009,0,0,0-3,3v1H39Z"></path><rect x="25" y="52" width="14" height="2"></rect><path d="M49.04,60l1.92-50H13.04l1.92,50H23V49a5,5,0,0,1,5-5h8a5,5,0,0,1,5,5V60ZM31.293,17.293l3-3,1.414,1.414-1.551,1.551a8.961,8.961,0,0,1,6.189,5.367l-1.854.75A6.975,6.975,0,0,0,32,19a1,1,0,0,1-.707-1.707Zm-11,6.414,1.414-1.414,1.551,1.551a8.961,8.961,0,0,1,5.367-6.189l.75,1.854A6.975,6.975,0,0,0,25,26a1,1,0,0,1-.617.924A.987.987,0,0,1,24,27a1,1,0,0,1-.707-.293Zm12.414,11-3,3-1.414-1.414,1.551-1.551a8.961,8.961,0,0,1-6.189-5.367l1.854-.75A6.975,6.975,0,0,0,32,33a1,1,0,0,1,.707,1.707Zm8.035-6.551a8.961,8.961,0,0,1-5.367,6.189l-.75-1.854A6.975,6.975,0,0,0,39,26a1,1,0,0,1,1.707-.707l3,3-1.414,1.414Z"></path><rect x="11" y="4" width="42" height="4"></rect><rect x="25" y="56" width="14" height="4"></rect></g></svg>