<svg xmlns="http://www.w3.org/2000/svg" viewBox="0 0 64 64" x="0px" y="0px"><path d="M31,41a1,1,0,0,0-1-1H26a1,1,0,0,0,0,2h4A1,1,0,0,0,31,41Z"></path><path d="M45.32,60,47,55.81V45a1,1,0,0,0-2,0v3H43V44a1,1,0,0,0-2,0v4H39V43a1,1,0,0,0-2,0v5H35V35a1,1,0,0,0-2,0V51H31V45a1,1,0,0,0-2,0V55.72L31.57,60Z"></path><circle cx="28" cy="27" r="1"></circle><path d="M36,4H20a5,5,0,0,0-5,5V41a5,5,0,0,0,5,5h7V45a3,3,0,0,1,.18-1H26a3,3,0,0,1,0-6h4a3,3,0,0,1,1,.18V35a3,3,0,0,1,6,0v5.18a2.957,2.957,0,0,1,3.53,1.22,2.183,2.183,0,0,1,.47-.21V9A5,5,0,0,0,36,4ZM23,6H33V8H23ZM19,8V6h2V8Zm9,22a3,3,0,1,1,3-3A3.009,3.009,0,0,1,28,30Zm3.54-6.54a5.022,5.022,0,0,0-7.08,0l-1.41-1.41a7,7,0,0,1,9.9,0Zm2.82-2.82a9,9,0,0,0-12.72,0l-1.42-1.42a11.015,11.015,0,0,1,15.56,0Z"></path></svg>