<svg xmlns="http://www.w3.org/2000/svg" viewBox="0 0 64 64" x="0px" y="0px"><g data-name="CD-Compact Disc-Store"><path d="M32,26A11,11,0,1,0,21,15,11.013,11.013,0,0,0,32,26Zm4.5-18.8A9.032,9.032,0,0,1,41,15H39a7.026,7.026,0,0,0-3.5-6.064ZM32,6a8.993,8.993,0,0,1,2.25.284l-.5,1.936A7.023,7.023,0,0,0,32,8Zm0,5a4,4,0,1,1-4,4A4,4,0,0,1,32,11Z"></path><path d="M44.48,18.609a13.13,13.13,0,0,1-.445,1.288A14.889,14.889,0,0,1,49,31v4a3,3,0,0,0,3,3,2.634,2.634,0,0,0,.729-.093A2.994,2.994,0,0,0,55,35a1,1,0,0,1,1-1h.971A16.963,16.963,0,0,0,44.48,18.609Z"></path><rect x="34" y="46" width="12.001" height="6"></rect><circle cx="32" cy="15" r="2"></circle><path d="M17,35a3,3,0,0,0,6,0V25c0-.206.023-.406.037-.608a13.062,13.062,0,0,1-2.132-2.651A12.9,12.9,0,0,0,17,31Z"></path><path d="M51,60a1,1,0,0,0,1-1V40a4.982,4.982,0,0,1-4-2.031,4.954,4.954,0,0,1-8,0,4.954,4.954,0,0,1-8,0,4.954,4.954,0,0,1-8,0,4.954,4.954,0,0,1-8,0A4.982,4.982,0,0,1,12,40V59a1,1,0,0,0,1,1h3V47a3,3,0,0,1,3-3h6a3,3,0,0,1,3,3V60ZM32,46a2,2,0,0,1,2-2H46a2,2,0,0,1,2,2v6a2,2,0,0,1-2,2H34a2,2,0,0,1-2-2Z"></path><path d="M39,35V25.937a12.9,12.9,0,0,1-6,2.012V35a3,3,0,0,0,6,0Z"></path><path d="M40.963,24.392c.014.2.037.4.037.608V35a3,3,0,0,0,6,0V31A12.9,12.9,0,0,0,43.1,21.741,13.062,13.062,0,0,1,40.963,24.392Z"></path><path d="M7.03,34H8a1,1,0,0,1,1,1,2.987,2.987,0,0,0,2.247,2.9A2.7,2.7,0,0,0,12,38a3,3,0,0,0,3-3V31a14.889,14.889,0,0,1,4.965-11.1,13.081,13.081,0,0,1-.443-1.281A17.062,17.062,0,0,0,7.03,34Z"></path><path d="M19,46a1,1,0,0,0-1,1V60h8V47a1,1,0,0,0-1-1Zm6,9H23V51h2Z"></path><path d="M31,35V27.949a12.9,12.9,0,0,1-6-2.012V35a3,3,0,0,0,6,0Z"></path></g></svg>