<svg xmlns="http://www.w3.org/2000/svg" viewBox="0 0 64 64" x="0px" y="0px"><g data-name="Business-Woman-Avatar-Long-Hair"><path d="M23,18.06a1,1,0,0,1-.877.992A6.991,6.991,0,0,0,18.945,31.69,12.954,12.954,0,0,1,27,28.051V25.188A6,6,0,0,1,24,20V14h2v6a4,4,0,0,0,4,4h4a4,4,0,0,0,4-4V14h2v6a6,6,0,0,1-3,5.188v2.863a12.954,12.954,0,0,1,8.055,3.639,6.991,6.991,0,0,0-3.178-12.638A1,1,0,0,1,41,18.06V13a9,9,0,0,0-18,0Zm6.71-1.35A1.014,1.014,0,1,1,30,16,1.052,1.052,0,0,1,29.71,16.71Zm6,0-.15.12a.776.776,0,0,1-.18.09.609.609,0,0,1-.191.06A1.2,1.2,0,0,1,35,17a1,1,0,0,1-.38-.08.933.933,0,0,1-.33-.21,1.014,1.014,0,0,1,0-1.42,1.054,1.054,0,0,1,.9-.27.609.609,0,0,1,.191.06.776.776,0,0,1,.18.09l.15.12a1.014,1.014,0,0,1,0,1.42ZM25,10.58a3.339,3.339,0,0,1,1.913.563,1.551,1.551,0,0,0,1.769,0,3.533,3.533,0,0,1,3.827,0,1.4,1.4,0,0,0,.885.277,1.421,1.421,0,0,0,.887-.278,3.545,3.545,0,0,1,3.831,0A1.422,1.422,0,0,0,39,11.42v2a3.353,3.353,0,0,1-1.915-.562,1.557,1.557,0,0,0-1.776,0,3.541,3.541,0,0,1-3.83,0,1.549,1.549,0,0,0-1.768,0,3.533,3.533,0,0,1-3.827,0A1.4,1.4,0,0,0,25,12.58Z"></path><polygon points="27.124 32.117 28.444 35.417 30.574 33.819 28.073 30.693 27.124 32.117"></polygon><path d="M43,60h4V41a11.013,11.013,0,0,0-9.005-10.81l.837,1.255a1,1,0,0,1,.1.927L32.914,46.406a1,1,0,0,1-1.828,0L25.071,32.372a1,1,0,0,1,.1-.927l.837-1.255A11.013,11.013,0,0,0,17,41V60h4V50.447a8.417,8.417,0,0,1,0-10.894V38h2v2a1,1,0,0,1-.4.8c-.9.679-1.6,2.815-1.6,4.2s.7,3.522,1.6,4.2a1,1,0,0,1,.4.8V60H41V50a1,1,0,0,1,.4-.8c.9-.679,1.6-2.815,1.6-4.2s-.7-3.522-1.6-4.2A1,1,0,0,1,41,40V38h2v1.553a8.417,8.417,0,0,1,0,10.894Z"></path><polygon points="34.763 37.321 32 35.25 29.237 37.321 32 43.538 34.763 37.321"></polygon><polygon points="36.876 32.117 35.927 30.693 33.426 33.819 35.556 35.417 36.876 32.117"></polygon><path d="M35,28.649V25.91A6,6,0,0,1,34,26H30a6,6,0,0,1-1-.09v2.739l3,3.75Z"></path></g></svg>