<svg xmlns="http://www.w3.org/2000/svg" viewBox="0 0 64 64" x="0px" y="0px"><g><rect x="32" y="25" width="2" height="2"></rect><rect x="32" y="29" width="2" height="2"></rect><rect x="28" y="25" width="2" height="2"></rect><rect x="28" y="29" width="2" height="2"></rect><polygon points="38.367 29 36 29 36 31 38.117 31 38.367 29"></polygon><path d="M49,54H22.6a10.96,10.96,0,0,1,.4,2.926v1.3A10.985,10.985,0,0,1,22.846,60H44a5.006,5.006,0,0,0,5-5ZM34,58H30V56h4Z"></path><polygon points="38.867 25 36 25 36 27 38.617 27 38.867 25"></polygon><path d="M49,12H15V44.66l2.437-4.222a4,4,0,0,1,6.929,4L21.108,50.08,21.877,52H49ZM19,23H17V21h2Zm0-7v3H17V15a1,1,0,0,1,1-1h4v2ZM41,38a1,1,0,0,0-1-1H38.816A2.966,2.966,0,0,1,39,38a3,3,0,0,1-6,0,2.966,2.966,0,0,1,.184-1H30.816A2.966,2.966,0,0,1,31,38a3,3,0,1,1-5-2.22V22.414L24.586,21H22V19h3a1,1,0,0,1,.707.293l2,2A1,1,0,0,1,28,22v1H40a1,1,0,0,1,.992,1.124l-1,8A1,1,0,0,1,39,33H28v2H40a3,3,0,0,1,3,3Z"></path><circle cx="28" cy="38" r="1"></circle><path d="M49,9a5.006,5.006,0,0,0-5-5H20a5.006,5.006,0,0,0-5,5v1H49ZM27,8H25V6h2Zm8,0H29V6h6Z"></path><path d="M21,58.23v-1.3a8.975,8.975,0,0,0-.644-3.343l-1.285-3.211a1,1,0,0,1,.063-.872l3.5-6.062a2,2,0,1,0-3.464-2l-5,8.66-1.733-1L13,48.124V35.151l-4.506,7.8a14.9,14.9,0,0,0-1.92,9.16L7.562,61H20.555A8.923,8.923,0,0,0,21,58.23Z"></path><circle cx="36" cy="38" r="1"></circle></g></svg>