<svg xmlns="http://www.w3.org/2000/svg" viewBox="0 0 64 64" x="0px" y="0px"><g><circle cx="56" cy="59" r="2"></circle><circle cx="48" cy="59" r="2"></circle><path d="M14.3,26.87a1,1,0,0,1,.64.75,1.012,1.012,0,0,1-.3.93A1.938,1.938,0,0,0,14,30a2,2,0,0,0,2.73,1.86,1.017,1.017,0,0,1,.82.02,1.053,1.053,0,0,1,.53.64A1.99,1.99,0,0,0,20,34a2.023,2.023,0,0,0,1-.27v-.94a11.064,11.064,0,0,1-2.78-2.01A10.919,10.919,0,0,1,15.05,24H15a3.925,3.925,0,0,1-1.52-.3A2.022,2.022,0,0,0,13,25,1.991,1.991,0,0,0,14.3,26.87Z"></path><path d="M13,45.62V40.86l-1.09.34A6.964,6.964,0,0,0,7,47.88V60h6V58.38a2.823,2.823,0,0,0-.47-1.61,8.2,8.2,0,0,1,0-9.54A2.823,2.823,0,0,0,13,45.62Z"></path><circle cx="26" cy="53" r="1"></circle><path d="M20.86,47H22V45h2v2h7.14l.89-5.76a7.967,7.967,0,0,1-12.06,0Z"></path><path d="M26,34a11.09,11.09,0,0,1-3-.42V37a.987.987,0,0,1-.7.95l-1.74.55a5.771,5.771,0,0,0,.61,1.04.351.351,0,0,1,.05.08,5.99,5.99,0,0,0,9.56,0,.558.558,0,0,1,.05-.08,5.771,5.771,0,0,0,.61-1.04l-1.74-.55A.987.987,0,0,1,29,37V33.57A10.665,10.665,0,0,1,26,34Z"></path><path d="M26,9a55.5,55.5,0,0,1,9.62.81C34.42,6.42,30.56,4,26,4s-8.42,2.42-9.62,5.81A55.5,55.5,0,0,1,26,9Z"></path><path d="M4,19c0,2.09,2.65,4.24,7.01,5.77a3.969,3.969,0,0,1,.88-2.28A3.981,3.981,0,0,1,15,16V14.9a1,1,0,0,1,.81-.98A54.158,54.158,0,0,1,26,13a54.158,54.158,0,0,1,10.19.92,1,1,0,0,1,.81.98V16a3.981,3.981,0,0,1,3.11,6.49,3.969,3.969,0,0,1,.88,2.28C45.35,23.24,48,21.09,48,19c0-4.71-11.59-8-22-8S4,14.29,4,19Z"></path><path d="M37,60V58.38a4.846,4.846,0,0,1,.83-2.75,6.216,6.216,0,0,0,0-7.26A4.846,4.846,0,0,1,37,45.62V40.24l-2.67-.84-1.2,7.82A3.007,3.007,0,0,1,35,50v6a3.009,3.009,0,0,1-3,3H20a3.009,3.009,0,0,1-3-3V50a3.007,3.007,0,0,1,1.87-2.78l-1.2-7.82L15,40.24v5.38a4.846,4.846,0,0,1-.83,2.75,6.216,6.216,0,0,0,0,7.26A4.846,4.846,0,0,1,15,58.38V60Z"></path><path d="M44,59a3.657,3.657,0,0,0,.13,1H39V58.38a2.823,2.823,0,0,1,.47-1.61,8.2,8.2,0,0,0,0-9.54A2.823,2.823,0,0,1,39,45.62V40.86l1.09.35a6.8,6.8,0,0,1,1.91.94V53a4.982,4.982,0,0,0,2.41,4.25A3.953,3.953,0,0,0,44,59Z"></path><path d="M15,22V18a2.006,2.006,0,0,0-2,2,2.015,2.015,0,0,0,2,2Z"></path><path d="M60,53V41a3.009,3.009,0,0,0-3-3H47a3.009,3.009,0,0,0-3,3V53a3.009,3.009,0,0,0,3,3H57A3.009,3.009,0,0,0,60,53ZM49,53H47V41h2Zm4,0H51V41h2Zm2-12h2V53H55Z"></path><path d="M17,15.73V23a9,9,0,0,0,18,0V15.73A53.781,53.781,0,0,0,26,15,53.781,53.781,0,0,0,17,15.73ZM20,20a2,2,0,1,1,2,2A2,2,0,0,1,20,20Zm6,8a5.006,5.006,0,0,1-3.532-1.458l1.4-1.424a3.082,3.082,0,0,0,4.256,0l1.4,1.424A5.006,5.006,0,0,1,26,28Zm4-10a2,2,0,1,1-2,2A2,2,0,0,1,30,18Z"></path><path d="M37,18v4a2.015,2.015,0,0,0,2-2A2.006,2.006,0,0,0,37,18Z"></path><path d="M36.95,24A11.028,11.028,0,0,1,31,32.79v.94A2.023,2.023,0,0,0,32,34a1.99,1.99,0,0,0,1.92-1.48,1.053,1.053,0,0,1,.53-.64,1.016,1.016,0,0,1,.82-.02A2,2,0,0,0,38,30a1.938,1.938,0,0,0-.64-1.45,1.012,1.012,0,0,1-.3-.93,1,1,0,0,1,.64-.75A1.991,1.991,0,0,0,39,25a2.022,2.022,0,0,0-.48-1.3A3.925,3.925,0,0,1,37,24Z"></path><path d="M19,50v6a1,1,0,0,0,1,1H32a1,1,0,0,0,1-1V50a1,1,0,0,0-1-1H20A1,1,0,0,0,19,50Zm7,0a3,3,0,1,1-3,3A3,3,0,0,1,26,50Z"></path><path d="M49,30a1,1,0,0,0-1,1v5h2V32h4v4h2V31a1,1,0,0,0-1-1Z"></path></g></svg>