<svg xmlns="http://www.w3.org/2000/svg" viewBox="0 0 64 64" x="0px" y="0px"><g data-name="Coffee Beans-Coffee-Hand-Seeds-Beans"><path d="M59.61,44.42a1.927,1.927,0,0,1-.93,1.21L45.05,53.51a14.956,14.956,0,0,1-9.16,1.92L23.11,54.01A1.477,1.477,0,0,0,22.9,54L4,55.89V44H20a1,1,0,0,0,.51-.14l2.63-1.58A9,9,0,0,1,27.77,41h1.3a9.149,9.149,0,0,1,3.35.64l3.21,1.29A.937.937,0,0,0,36,43h7a2,2,0,0,1,0,4H33v2H43.51a4.982,4.982,0,0,0,2.5-.67l10.67-6.16a2,2,0,0,1,2.93,2.25Z"></path><path d="M31.533,32.463a3.785,3.785,0,0,0,1.142-2.317,5.777,5.777,0,0,1,1.686-3.341,5.4,5.4,0,0,1,3.5-1.606c.148-.02.291-.04.43-.063a4.173,4.173,0,0,0-2.64-.865,6.083,6.083,0,0,0-.848.062,8.45,8.45,0,0,0-4.677,2.475c-2.139,2.139-2.984,4.937-2.314,6.987a8.128,8.128,0,0,1,1.381-.294A3.417,3.417,0,0,0,31.533,32.463Z"></path><path d="M37.192,33.879A8.45,8.45,0,0,0,39.667,29.2a5.076,5.076,0,0,0-.174-2.305,8.3,8.3,0,0,1-1.361.283,3.424,3.424,0,0,0-2.355,1.037,3.81,3.81,0,0,0-1.141,2.323,5.75,5.75,0,0,1-1.689,3.337,5.381,5.381,0,0,1-3.48,1.6c-.159.023-.312.046-.461.071C31.025,37.172,34.6,36.477,37.192,33.879Z"></path><path d="M48.533,32.463a3.785,3.785,0,0,0,1.142-2.317,5.777,5.777,0,0,1,1.686-3.341,5.4,5.4,0,0,1,3.5-1.606c.148-.02.291-.04.43-.063a4.173,4.173,0,0,0-2.64-.865,6.083,6.083,0,0,0-.848.062,8.45,8.45,0,0,0-4.677,2.475c-2.139,2.139-2.984,4.937-2.314,6.987a8.128,8.128,0,0,1,1.381-.294A3.417,3.417,0,0,0,48.533,32.463Z"></path><path d="M54.192,33.879A8.45,8.45,0,0,0,56.667,29.2a5.076,5.076,0,0,0-.174-2.305,8.3,8.3,0,0,1-1.361.283,3.424,3.424,0,0,0-2.355,1.037,3.81,3.81,0,0,0-1.141,2.323,5.75,5.75,0,0,1-1.689,3.337,5.381,5.381,0,0,1-3.48,1.6c-.159.023-.312.046-.461.071C48.025,37.172,51.6,36.477,54.192,33.879Z"></path><path d="M43.533,16.463a3.785,3.785,0,0,0,1.142-2.317,5.777,5.777,0,0,1,1.686-3.341,5.4,5.4,0,0,1,3.5-1.606c.148-.02.291-.04.43-.063a4.173,4.173,0,0,0-2.64-.865,6.083,6.083,0,0,0-.848.062,8.45,8.45,0,0,0-4.677,2.475c-2.139,2.139-2.984,4.937-2.314,6.987a8.128,8.128,0,0,1,1.381-.294A3.417,3.417,0,0,0,43.533,16.463Z"></path><path d="M49.192,17.879A8.45,8.45,0,0,0,51.667,13.2a5.076,5.076,0,0,0-.174-2.3,8.3,8.3,0,0,1-1.361.283,3.424,3.424,0,0,0-2.355,1.037,3.81,3.81,0,0,0-1.141,2.323,5.75,5.75,0,0,1-1.689,3.337,5.381,5.381,0,0,1-3.48,1.6c-.159.023-.312.046-.461.071C43.026,21.171,46.6,20.476,49.192,17.879Z"></path></g></svg>