<svg xmlns="http://www.w3.org/2000/svg" viewBox="0 0 64 64" x="0px" y="0px"><g><path d="M55,40a7.008,7.008,0,0,0,7-7V9a7.008,7.008,0,0,0-7-7H41a7.008,7.008,0,0,0-7,7V33a7.008,7.008,0,0,0,7,7h4V56H41a3,3,0,0,0-3,3v1a2,2,0,0,0,2,2H60a2,2,0,0,0,2-2V59a3,3,0,0,0-3-3h-.071A7.011,7.011,0,0,0,52,50a6.872,6.872,0,0,0-1,.079V40ZM41,38a5.006,5.006,0,0,1-5-5V9a5.006,5.006,0,0,1,5-5H55a5.006,5.006,0,0,1,5,5V33a5.006,5.006,0,0,1-5,5H51V21a1,1,0,0,0-1-1H46a1,1,0,0,0-1,1V38Zm8,0H47V22h2Zm8,19a1,1,0,0,0,1,1h1a1,1,0,0,1,1,1v1H40V59a1,1,0,0,1,1-1h5a1,1,0,0,0,1-1,5,5,0,0,1,10,0Zm-8-6.321a7.015,7.015,0,0,0-2,1.43V40h2Z"></path><path d="M33,50H30V48h2a1,1,0,0,0,1-1V41a1,1,0,0,0-1-1H4a1,1,0,0,0-1,1v6a1,1,0,0,0,1,1H6v2H3a1,1,0,0,0-1,1v4a1,1,0,0,0,1,1H5v5a1,1,0,0,0,1,1h4a1,1,0,0,0,1-1V56H25v5a1,1,0,0,0,1,1h4a1,1,0,0,0,1-1V56h2a1,1,0,0,0,1-1V51A1,1,0,0,0,33,50ZM5,42H31v4H5Zm3,6H28v2H8ZM9,60H7V56H9Zm20,0H27V56h2Zm3-6H4V52H32Z"></path><path d="M12,18a4,4,0,1,0-4-4A4,4,0,0,0,12,18Zm0-6a2,2,0,1,1-2,2A2,2,0,0,1,12,12Z"></path><rect x="11" y="6" width="2" height="2"></rect><rect x="6.05" y="8.05" width="2" height="2" transform="translate(-4.335 7.636) rotate(-45)"></rect><rect x="4" y="13" width="2" height="2"></rect><rect x="6.05" y="17.95" width="2" height="2" transform="translate(-11.334 10.536) rotate(-45)"></rect><rect x="11" y="20" width="2" height="2"></rect><rect x="15.95" y="17.95" width="2" height="2" transform="translate(-8.435 17.535) rotate(-45)"></rect><rect x="18" y="13" width="2" height="2"></rect><rect x="15.95" y="8.05" width="2" height="2" transform="translate(-1.435 14.636) rotate(-45)"></rect></g></svg>