<svg xmlns="http://www.w3.org/2000/svg" viewBox="0 0 64 64" x="0px" y="0px"><g><path d="M11.279,25l.772-2.316A1,1,0,0,1,13,22h8a1,1,0,0,1,.949.684L22.721,25h6.836l-2.25-6H6.693l-2.25,6Z"></path><path d="M7,17H27V5a1,1,0,0,0-1-1H8A1,1,0,0,0,7,5ZM20,9h2v2H20ZM16,9h2v2H16ZM12,9h2v2H12Z"></path><rect x="4" y="27" width="26" height="2"></rect><polygon points="13.387 25 20.613 25 20.279 24 13.721 24 13.387 25"></polygon><path d="M21.949,53.684,22.721,56h6.836l-2.25-6H6.693l-2.25,6h6.836l.772-2.316A1,1,0,0,1,13,53h8A1,1,0,0,1,21.949,53.684Z"></path><rect x="4" y="58" width="26" height="2"></rect><path d="M27,36a1,1,0,0,0-1-1H8a1,1,0,0,0-1,1V48H27ZM14,42H12V40h2Zm4,0H16V40h2Zm4,0H20V40h2Z"></path><polygon points="13.387 56 20.613 56 20.279 55 13.721 55 13.387 56"></polygon><path d="M60,21H46V43H60Zm-7,2a3,3,0,1,1-3,3A3,3,0,0,1,53,23Zm4,16H49V37h8Zm0-4H49V33h8Z"></path><circle cx="53" cy="26" r="1"></circle><polygon points="44 32.89 44 35.12 29 42.62 29 40.39 44 32.89"></polygon><polygon points="44 28.88 44 31.11 31.67 24.94 30.64 22.2 44 28.88"></polygon><rect x="16" y="31" width="2" height="2"></rect></g></svg>