<svg xmlns="http://www.w3.org/2000/svg" viewBox="0 0 64 64" x="0px" y="0px"><title>Hotel_2</title><g data-name="Hotel"><path d="M61,14H42V3a1,1,0,0,0-1-1H3A1,1,0,0,0,2,3V61a1,1,0,0,0,1,1H61a1,1,0,0,0,1-1V15A1,1,0,0,0,61,14ZM4,4H40V60H34V43a1,1,0,0,0-1-1H11a1,1,0,0,0-1,1V60H4Zm8,40h9V60H12ZM23,60V44h9V60Zm37,0H42V16H60Z"></path><path d="M45,24h4a1,1,0,0,0,1-1V19a1,1,0,0,0-1-1H45a1,1,0,0,0-1,1v4A1,1,0,0,0,45,24Zm1-4h2v2H46Z"></path><path d="M53,24h4a1,1,0,0,0,1-1V19a1,1,0,0,0-1-1H53a1,1,0,0,0-1,1v4A1,1,0,0,0,53,24Zm1-4h2v2H54Z"></path><path d="M45,32h4a1,1,0,0,0,1-1V27a1,1,0,0,0-1-1H45a1,1,0,0,0-1,1v4A1,1,0,0,0,45,32Zm1-4h2v2H46Z"></path><path d="M53,32h4a1,1,0,0,0,1-1V27a1,1,0,0,0-1-1H53a1,1,0,0,0-1,1v4A1,1,0,0,0,53,32Zm1-4h2v2H54Z"></path><path d="M45,40h4a1,1,0,0,0,1-1V35a1,1,0,0,0-1-1H45a1,1,0,0,0-1,1v4A1,1,0,0,0,45,40Zm1-4h2v2H46Z"></path><path d="M53,40h4a1,1,0,0,0,1-1V35a1,1,0,0,0-1-1H53a1,1,0,0,0-1,1v4A1,1,0,0,0,53,40Zm1-4h2v2H54Z"></path><path d="M45,48h4a1,1,0,0,0,1-1V43a1,1,0,0,0-1-1H45a1,1,0,0,0-1,1v4A1,1,0,0,0,45,48Zm1-4h2v2H46Z"></path><path d="M53,48h4a1,1,0,0,0,1-1V43a1,1,0,0,0-1-1H53a1,1,0,0,0-1,1v4A1,1,0,0,0,53,48Zm1-4h2v2H54Z"></path><path d="M45,56h4a1,1,0,0,0,1-1V51a1,1,0,0,0-1-1H45a1,1,0,0,0-1,1v4A1,1,0,0,0,45,56Zm1-4h2v2H46Z"></path><path d="M53,56h4a1,1,0,0,0,1-1V51a1,1,0,0,0-1-1H53a1,1,0,0,0-1,1v4A1,1,0,0,0,53,56Zm1-4h2v2H54Z"></path><path d="M11,38H33a1,1,0,0,0,1-1V33a1,1,0,0,0-1-1H11a1,1,0,0,0-1,1v4A1,1,0,0,0,11,38Zm1-4H32v2H12Z"></path><path d="M11,30H33a1,1,0,0,0,1-1V25a1,1,0,0,0-1-1H11a1,1,0,0,0-1,1v4A1,1,0,0,0,11,30Zm1-4H32v2H12Z"></path><path d="M11,22H33a1,1,0,0,0,1-1V17a1,1,0,0,0-1-1H11a1,1,0,0,0-1,1v4A1,1,0,0,0,11,22Zm1-4H32v2H12Z"></path><path d="M11,14H33a1,1,0,0,0,1-1V9a1,1,0,0,0-1-1H11a1,1,0,0,0-1,1v4A1,1,0,0,0,11,14Zm1-4H32v2H12Z"></path></g></svg>