<svg xmlns="http://www.w3.org/2000/svg" viewBox="0 0 64 64" x="0px" y="0px"><g><path d="M38,21H26a1,1,0,0,0-1,1v6a1,1,0,0,0,1,1H38a1,1,0,0,0,1-1V22A1,1,0,0,0,38,21Zm-1,6H27V23H37Z"></path><path d="M38,31H26a1,1,0,0,0-1,1V42a1,1,0,0,0,1,1H38a1,1,0,0,0,1-1V32A1,1,0,0,0,38,31ZM37,41H27V33H37Z"></path><rect x="29" y="34" width="6" height="2"></rect><rect x="29" y="38" width="6" height="2"></rect><rect x="31" y="24" width="2" height="2"></rect><rect x="34" y="24" width="2" height="2"></rect><rect x="28" y="24" width="2" height="2"></rect><path d="M47,2H39a5.006,5.006,0,0,0-5,5V17H30V7a5.006,5.006,0,0,0-5-5H17a5.006,5.006,0,0,0-5,5V55a5.006,5.006,0,0,0,5,5h8a5.006,5.006,0,0,0,5-5V47h4v8a5.006,5.006,0,0,0,5,5h8a5.006,5.006,0,0,0,5-5V7A5.006,5.006,0,0,0,47,2Zm3,38H43V38h7ZM24,45a1,1,0,0,1-1-1V20a1,1,0,0,1,1-1H40a1,1,0,0,1,1,1V44a1,1,0,0,1-1,1ZM14,28h7v8H14Zm0-4h7v2H14Zm0,14h7v2H14ZM50,26H43V24h7ZM43,36V28h7v8ZM36,7a3,3,0,0,1,3-3h8a3,3,0,0,1,3,3V22H43V20a3,3,0,0,0-3-3H36ZM17,4h8a3,3,0,0,1,3,3V17H24a3,3,0,0,0-3,3v2H14V7A3,3,0,0,1,17,4ZM28,55a3,3,0,0,1-3,3H17a3,3,0,0,1-3-3V42h7v2a3,3,0,0,0,3,3h4Zm19,3H39a3,3,0,0,1-3-3V47h4a3,3,0,0,0,3-3V42h7V55A3,3,0,0,1,47,58Z"></path></g></svg>