<svg xmlns="http://www.w3.org/2000/svg" viewBox="0 0 64 64" x="0px" y="0px"><g><path d="M61.124,26.008l-6.09-.761a23.825,23.825,0,0,0-1.974-4.755l3.771-4.849a1,1,0,0,0-.082-1.321L49.678,7.251a1,1,0,0,0-1.322-.082L43.507,10.94a23.885,23.885,0,0,0-4.754-1.974l-.761-6.09A1,1,0,0,0,37,2H27a1,1,0,0,0-.992.876l-.761,6.09a23.885,23.885,0,0,0-4.754,1.974L15.644,7.169a1,1,0,0,0-1.322.082L7.251,14.322a1,1,0,0,0-.082,1.321l3.771,4.849a23.825,23.825,0,0,0-1.974,4.755l-6.09.761A1,1,0,0,0,2,27V37a1,1,0,0,0,.876.992l6.09.761a23.816,23.816,0,0,0,1.974,4.754l-3.771,4.85a1,1,0,0,0,.082,1.321l7.071,7.071a1,1,0,0,0,1.322.082l4.849-3.771a23.885,23.885,0,0,0,4.754,1.974l.761,6.09A1,1,0,0,0,27,62H37a1,1,0,0,0,.992-.876l.761-6.09a23.885,23.885,0,0,0,4.754-1.974l4.849,3.771a1,1,0,0,0,1.322-.082l7.071-7.071a1,1,0,0,0,.082-1.321l-3.771-4.85a23.816,23.816,0,0,0,1.974-4.754l6.09-.761A1,1,0,0,0,62,37V27A1,1,0,0,0,61.124,26.008ZM60,36.117l-5.875.735a1,1,0,0,0-.844.738A21.835,21.835,0,0,1,51,43.09a1,1,0,0,0,.074,1.119l3.64,4.679L48.888,54.71l-4.679-3.639A1,1,0,0,0,43.09,51a21.891,21.891,0,0,1-5.5,2.283,1,1,0,0,0-.739.844L36.117,60H27.883l-.735-5.875a1,1,0,0,0-.739-.844A21.891,21.891,0,0,1,20.91,51a1,1,0,0,0-1.119.073L15.112,54.71,9.289,48.888l3.64-4.679A1,1,0,0,0,13,43.09a21.835,21.835,0,0,1-2.284-5.5,1,1,0,0,0-.844-.738L4,36.117V27.883l5.875-.735a1,1,0,0,0,.844-.738A21.857,21.857,0,0,1,13,20.91a1,1,0,0,0-.074-1.119l-3.64-4.679L15.112,9.29l4.679,3.639A1,1,0,0,0,20.91,13a21.891,21.891,0,0,1,5.5-2.283,1,1,0,0,0,.739-.844L27.883,4h8.234l.735,5.875a1,1,0,0,0,.739.844A21.891,21.891,0,0,1,43.09,13a1,1,0,0,0,1.119-.073L48.888,9.29l5.823,5.822-3.64,4.679A1,1,0,0,0,51,20.91a21.857,21.857,0,0,1,2.284,5.5,1,1,0,0,0,.844.738L60,27.883Z"></path><path d="M46,36V31a1.006,1.006,0,0,0-.168-.555L44,27.7V24a1,1,0,0,0-.293-.707l-2-2A1,1,0,0,0,41,21H38.721l-.773-2.316A1,1,0,0,0,37,18H34a1,1,0,0,0-.707.293L32,19.586l-1.293-1.293A1,1,0,0,0,30,18H27a1,1,0,0,0-.948.684L25.279,21H23a1,1,0,0,0-.707.293l-2,2A1,1,0,0,0,20,24v3.7l-1.832,2.748A1.006,1.006,0,0,0,18,31v5a1,1,0,0,0,.293.707L21,39.414V41a1,1,0,0,0,.758.97l3.467.867.827,2.479A1,1,0,0,0,27,46h3a1,1,0,0,0,.707-.293L32,44.414l1.293,1.293A1,1,0,0,0,34,46h3a1,1,0,0,0,.948-.684l.827-2.479,3.467-.867A1,1,0,0,0,43,41V39.414l2.707-2.707A1,1,0,0,0,46,36ZM29.586,44H27.721l-.577-1.73,1.563-1.563A1,1,0,0,0,29,40V39H27v.586l-1.307,1.307L23,40.219V35H21v1.586l-1-1V31.3l1.155-1.733.845.844V31h2V30a1,1,0,0,0-.293-.707L22,27.586V24.414L23.414,23h2.172L27,24.414V25h2V24a1,1,0,0,0-.293-.707L27.144,21.73,27.721,20h1.865L31,21.414V42.586ZM44,35.586l-1,1V35H41v5.219l-2.693.674L37,39.586V39H35v1a1,1,0,0,0,.293.707l1.563,1.563L36.279,44H34.414L33,42.586V21.414L34.414,20h1.865l.577,1.73-1.563,1.563A1,1,0,0,0,35,24v1h2v-.586L38.414,23h2.172L42,24.414v3.172l-1.707,1.707A1,1,0,0,0,40,30v1h2v-.586l.845-.844L44,31.3Z"></path><path d="M38.707,31.293,37,29.586V27H35v3a1,1,0,0,0,.293.707l2,2Z"></path><path d="M37.707,34.293l-1.414,1.414.707.707V38h2V36a1,1,0,0,0-.293-.707Z"></path><path d="M27,29.586l-1.707,1.707,1.414,1.414,2-2A1,1,0,0,0,29,30V27H27Z"></path><path d="M25.293,35.293A1,1,0,0,0,25,36v2h2V36.414l.707-.707-1.414-1.414Z"></path><rect x="31" y="8" width="2" height="6"></rect><rect x="16.151" y="14.15" width="2" height="6" transform="translate(-7.104 17.152) rotate(-45.003)"></rect><rect x="8" y="31" width="6" height="2"></rect><rect x="14.151" y="45.849" width="6" height="2" transform="translate(-28.104 25.849) rotate(-45)"></rect><rect x="31" y="50" width="2" height="6"></rect><rect x="45.849" y="43.849" width="2" height="6" transform="translate(-19.406 46.853) rotate(-45.003)"></rect><rect x="50" y="31" width="6" height="2"></rect><rect x="43.849" y="16.151" width="6" height="2" transform="translate(1.594 38.151) rotate(-45)"></rect></g></svg>