<svg xmlns="http://www.w3.org/2000/svg" viewBox="0 0 64 64" x="0px" y="0px"><g data-name="Game Controler"><path d="M62,32A13.009,13.009,0,0,0,50,19.051V5a3,3,0,0,0-3-3H17a3,3,0,0,0-3,3V19.051A12.975,12.975,0,0,0,6,41.359v12.9a7.742,7.742,0,0,0,15.251,1.883l2.8-11.239A4.929,4.929,0,0,0,25,45a5.009,5.009,0,0,0,4.9-4h4.2A5.009,5.009,0,0,0,39,45a4.929,4.929,0,0,0,.947-.1l2.8,11.239A7.741,7.741,0,0,0,58,54.26v-12.9A12.955,12.955,0,0,0,62,32ZM16,5a1,1,0,0,1,1-1H47a1,1,0,0,1,1,1V21a1,1,0,0,1-1,1H17a1,1,0,0,1-1-1Zm3.311,50.658A5.742,5.742,0,0,1,8,54.26V42.937a12.917,12.917,0,0,0,13.316.415,5,5,0,0,0,.869.775ZM25,43a3,3,0,1,1,3-3A3,3,0,0,1,25,43Zm9.1-4H29.9A5.009,5.009,0,0,0,25,35a4.955,4.955,0,0,0-3.2,1.188A8,8,0,1,0,20.57,37.73a4.734,4.734,0,0,0-.274,3.9A10.832,10.832,0,0,1,15,43a11,11,0,0,1-.995-21.95A3,3,0,0,0,17,24H47A3,3,0,0,0,50,21.05,11,11,0,0,1,49,43a10.832,10.832,0,0,1-5.3-1.37,4.734,4.734,0,0,0-.274-3.9A8.066,8.066,0,1,0,42.2,36.188,4.955,4.955,0,0,0,39,35,5.009,5.009,0,0,0,34.1,39ZM21,32a6,6,0,1,1-6-6A6.006,6.006,0,0,1,21,32Zm22,0a6,6,0,1,1,6,6A6.006,6.006,0,0,1,43,32Zm-7,8a3,3,0,1,1,3,3A3,3,0,0,1,36,40ZM56,54.26a5.742,5.742,0,0,1-11.31,1.4L41.815,44.127a5,5,0,0,0,.869-.775A12.917,12.917,0,0,0,56,42.937Z"></path><polygon points="16 28 14 28 14 31 11 31 11 33 14 33 14 36 16 36 16 33 19 33 19 31 16 31 16 28"></polygon><rect x="48" y="28" width="2" height="2"></rect><rect x="51" y="31" width="2" height="2"></rect><rect x="45" y="31" width="2" height="2"></rect><rect x="48" y="34" width="2" height="2"></rect><rect x="27" y="30" width="2" height="2"></rect><rect x="31" y="30" width="2" height="2"></rect><rect x="35" y="30" width="2" height="2"></rect><path d="M20,21H44a2,2,0,0,0,2-2V7a2,2,0,0,0-2-2H20a2,2,0,0,0-2,2V19A2,2,0,0,0,20,21ZM20,7H44l0,12H20Z"></path><rect x="31" y="12" width="2" height="2"></rect><rect x="35" y="12" width="2" height="2"></rect><rect x="27" y="12" width="2" height="2"></rect></g></svg>