<svg xmlns="http://www.w3.org/2000/svg" viewBox="0 0 64 64" x="0px" y="0px"><g data-name="Room Service"><path d="M55.971,26C55.36,13.493,43.305,9,32,9S8.64,13.493,8.029,26Zm-3.8-5.434a15.665,15.665,0,0,1,.952,2.212l-1.893.647a13.432,13.432,0,0,0-.829-1.926Zm-8.791-7.537a17.14,17.14,0,0,1,7.4,5.368L49.2,19.62a15.168,15.168,0,0,0-6.553-4.733Z"></path><path d="M8,28l2.4,3.2A7.035,7.035,0,0,0,16,34H48a7.035,7.035,0,0,0,5.6-2.8L56,28Z"></path><path d="M32,7c.578,0,1.145.013,1.707.033A1.96,1.96,0,0,0,34,6a2,2,0,0,0-4,0,1.96,1.96,0,0,0,.293,1.033C30.855,7.013,31.422,7,32,7Z"></path><polygon points="6 15 8 15 8 13 10 13 10 11 8 11 8 9 6 9 6 11 4 11 4 13 6 13 6 15"></polygon><polygon points="55 9 57 9 57 7 59 7 59 5 57 5 57 3 55 3 55 5 53 5 53 7 55 7 55 9"></polygon><rect x="6.766" y="47.331" width="6" height="12" transform="translate(-17.65 6.556) rotate(-19.999)"></rect><rect x="14.223" y="42.253" width="8" height="16" transform="translate(-16.088 9.263) rotate(-19.999)"></rect><path d="M37.732,54,59.15,41.634a1.983,1.983,0,0,0,1-1.734,2,2,0,0,0-3-1.731l-9.193,5.306A3.992,3.992,0,0,1,44,47H33V45H44a2,2,0,0,0,2-2,1.691,1.691,0,0,0-.116-.644,1.915,1.915,0,0,0-.471-.769A1.983,1.983,0,0,0,44,41H29.259l-6.668,3.71L25.972,54Z"></path><rect x="56" y="26" width="6" height="2"></rect><rect x="2" y="26" width="6" height="2"></rect></g></svg>