<svg xmlns="http://www.w3.org/2000/svg" viewBox="0 0 64 64" x="0px" y="0px"><g><path d="M35.414,44h3.714a10.057,10.057,0,0,0-2.092-1.622Z"></path><path d="M28.914,41.5,32,44.586,35.087,41.5A10.118,10.118,0,0,0,28.914,41.5Z"></path><path d="M33,50h8.951a9.782,9.782,0,0,0-.163-1H33Z"></path><path d="M33,46.414V47h8.154a9.943,9.943,0,0,0-.5-1H33.414Z"></path><path d="M22.846,47H31v-.586L30.586,46H23.348A9.728,9.728,0,0,0,22.846,47Z"></path><path d="M24.871,44h3.715l-1.622-1.622A10.03,10.03,0,0,0,24.871,44Z"></path><path d="M50.53,20.27a.994.994,0,0,1-.77-.79A13.985,13.985,0,0,0,23.61,15.5a1,1,0,0,1-.95.53l-.21-.01c-.15-.01-.3-.02-.45-.02a11.007,11.007,0,0,0-10.89,9.56.987.987,0,0,1-.71.82A9,9,0,0,0,13,44h9.25a11.993,11.993,0,0,1,19.5,0H48a12,12,0,0,0,2.53-23.73ZM32,38a7,7,0,1,1,7-7A7.008,7.008,0,0,1,32,38Z"></path><path d="M34.972,27a4.9,4.9,0,0,0-5.944,0A3,3,0,0,1,32,30,3,3,0,0,1,34.972,27Z"></path><path d="M22.049,50H31V49H22.212A9.782,9.782,0,0,0,22.049,50Z"></path><path d="M32,30a3,3,0,0,1-3,3,2.968,2.968,0,0,1-1.774-.594,4.968,4.968,0,0,0,9.548,0A2.968,2.968,0,0,1,35,33,3,3,0,0,1,32,30Z"></path><circle cx="35" cy="30" r="1"></circle><circle cx="29" cy="30" r="1"></circle></g></svg>