<svg xmlns="http://www.w3.org/2000/svg" viewBox="0 0 64 64" x="0px" y="0px"><g data-name="Digital Graphic-Graphic Tool-Editor-Browser-Digital"><path d="M57,2H7A5,5,0,0,0,2,7V57a5,5,0,0,0,5,5H57a5,5,0,0,0,5-5V7A5,5,0,0,0,57,2ZM34,60H30V41h4Zm1-21H29a1,1,0,0,1,0-2h6a1,1,0,0,1,0,2Zm-2-7V28.12l2.84,3.97L34.38,35H29.62l-1.46-2.91L31,28.12V32ZM60,57a3.009,3.009,0,0,1-3,3H36V40.82a2.98,2.98,0,0,0,.43-5.44l1.46-2.93a.983.983,0,0,0-.08-1.03l-5-7a1.024,1.024,0,0,0-1.62,0l-5,7a.983.983,0,0,0-.08,1.03l1.46,2.93A2.98,2.98,0,0,0,28,40.82V60H7a3.009,3.009,0,0,1-3-3V12H60Zm0-47H4V7A3.009,3.009,0,0,1,7,4H57a3.009,3.009,0,0,1,3,3Z"></path><rect x="8" y="6" width="2" height="2"></rect><rect x="12" y="6" width="2" height="2"></rect><rect x="16" y="6" width="2" height="2"></rect><path d="M47,16a3,3,0,0,0-2.816,2H34.816a2.982,2.982,0,0,0-5.632,0H19.816a3,3,0,1,0,0,2h4.953a13.891,13.891,0,0,0-6.732,11.173,3,3,0,1,0,2,.023A12.086,12.086,0,0,1,29.314,20.31a2.979,2.979,0,0,0,5.372,0A12.086,12.086,0,0,1,43.963,31.2a3,3,0,1,0,2-.023A13.893,13.893,0,0,0,39.231,20h4.953A2.995,2.995,0,1,0,47,16ZM19,35a1,1,0,1,1,1-1A1,1,0,0,1,19,35Zm26,0a1,1,0,1,1,1-1A1,1,0,0,1,45,35ZM17,20a1,1,0,1,1,1-1A1,1,0,0,1,17,20Zm15,0a1,1,0,1,1,1-1A1,1,0,0,1,32,20Zm15,0a1,1,0,1,1,1-1A1,1,0,0,1,47,20Z"></path></g></svg>