<svg xmlns="http://www.w3.org/2000/svg" viewBox="0 0 64 64" x="0px" y="0px"><g data-name="Pharmacy"><path d="M55,60V35.9a4.994,4.994,0,0,1-3-1.93,4.954,4.954,0,0,1-8,0,4.954,4.954,0,0,1-8,0,4.954,4.954,0,0,1-8,0,4.954,4.954,0,0,1-8,0,4.954,4.954,0,0,1-8,0A4.994,4.994,0,0,1,9,35.9V60H2v2H62V60ZM11,38a1,1,0,0,1,1-1H52a1,1,0,0,1,1,1V50a1,1,0,0,1-1,1H12a1,1,0,0,1-1-1Z"></path><circle cx="41" cy="43" r="1"></circle><path d="M42,46H40a3,3,0,0,0-3,3h8A3,3,0,0,0,42,46Z"></path><path d="M28,43H20a1,1,0,0,0-1,1v5H29V44A1,1,0,0,0,28,43Zm-3,4H23V45h2Z"></path><path d="M48,4H16V20H48ZM38,14a1,1,0,0,1-1,1H35v2a1,1,0,0,1-1,1H30a1,1,0,0,1-1-1V15H27a1,1,0,0,1-1-1V10a1,1,0,0,1,1-1h2V7a1,1,0,0,1,1-1h4a1,1,0,0,1,1,1V9h2a1,1,0,0,1,1,1Z"></path><path d="M33,10V8H31v2a1,1,0,0,1-1,1H28v2h2a1,1,0,0,1,1,1v2h2V14a1,1,0,0,1,1-1h2V11H34A1,1,0,0,1,33,10Z"></path><path d="M53.382,14H50v7a1,1,0,0,1-1,1H15a1,1,0,0,1-1-1V14H10.618l-5,10H58.382Z"></path><path d="M17,44a3,3,0,0,1,3-3h8a3,3,0,0,1,3,3v5h4a4.992,4.992,0,0,1,3.316-4.687A2.963,2.963,0,0,1,38,43a3,3,0,1,1,5.685,1.313A4.993,4.993,0,0,1,47,49h4V39H13V49h4Z"></path><rect x="5" y="26" width="54" height="2"></rect><path d="M16,34a3,3,0,0,0,3-3V30H13v1A3,3,0,0,0,16,34Z"></path><path d="M56,34a3,3,0,0,0,3-3V30H53v1A3,3,0,0,0,56,34Z"></path><path d="M40,34a3,3,0,0,0,3-3V30H37v1A3,3,0,0,0,40,34Z"></path><path d="M48,34a3,3,0,0,0,3-3V30H45v1A3,3,0,0,0,48,34Z"></path><path d="M8,34a3,3,0,0,0,3-3V30H5v1A3,3,0,0,0,8,34Z"></path><path d="M32,34a3,3,0,0,0,3-3V30H29v1A3,3,0,0,0,32,34Z"></path><path d="M24,34a3,3,0,0,0,3-3V30H21v1A3,3,0,0,0,24,34Z"></path></g></svg>