<svg xmlns="http://www.w3.org/2000/svg" viewBox="0 0 64 64" x="0px" y="0px"><g data-name="Light"><path d="M42,40H40V51a1,1,0,0,1-1,1H10v2H41a1,1,0,0,0,1-1Z"></path><rect x="39" y="36" width="4" height="2"></rect><polygon points="40 30 40 14 32.247 14 35.802 30 40 30"></polygon><rect x="36" y="32" width="10" height="2"></rect><rect x="40" y="4" width="2" height="2"></rect><polygon points="49.753 14 42 14 42 30 46.198 30 49.753 14"></polygon><rect x="4" y="46" width="4" height="14"></rect><polygon points="52 10.618 46.764 8 35.236 8 30 10.618 30 12 52 12 52 10.618"></polygon></g></svg>