<svg xmlns="http://www.w3.org/2000/svg" viewBox="0 0 64 64" x="0px" y="0px"><g><rect x="24" y="34" width="1" height="3"></rect><rect x="21" y="39" width="4" height="1"></rect><rect x="21" y="34" width="1" height="3"></rect><path d="M24.739,15.6c-.058.028-.114.056-.173.081a3.959,3.959,0,0,1-.605.2c-.107.027-.216.042-.326.06s-.228.028-.343.036c-.1.007-.193.031-.292.031s-.193-.024-.291-.031c-.116-.008-.231-.019-.345-.036s-.217-.033-.323-.059a3.963,3.963,0,0,1-.616-.2c-.052-.023-.1-.048-.154-.072-.069-.033-.141-.061-.208-.1A1.982,1.982,0,0,0,21,16a2,2,0,0,0,4,0,1.982,1.982,0,0,0-.063-.5C24.873,15.538,24.805,15.563,24.739,15.6Z"></path><path d="M23,10a2,2,0,0,0-2,2,1.979,1.979,0,0,0,.511,1.329,1.823,1.823,0,0,0,.679.484,2.065,2.065,0,0,0,2.286-.47A2,2,0,0,0,23,10Z"></path><path d="M37,45.414l-4.607-4.607a4.991,4.991,0,0,1,0-7.07l.7-.7a2.055,2.055,0,0,1,2.835,0L39.9,37H41V5a1,1,0,0,0-1-1H16a1,1,0,0,0-1,1V45a1,1,0,0,0,1,1H37ZM35,8h2v8H35Zm0,14h2v8H35ZM31,8h2v2H31Zm0,4h2v2H31Zm0,4h2v2H31Zm0,4h2v2H31Zm0,4h2v2H31Zm0,4h2v2H31ZM27,41a1,1,0,0,1-1,1H20a1,1,0,0,1-1-1V33a1,1,0,0,1,1-1h6a1,1,0,0,1,1,1Zm0-25a4,4,0,1,1-7.454-2,4,4,0,1,1,6.907,0A3.968,3.968,0,0,1,27,16Z"></path><path d="M49,60V36.66a3.02,3.02,0,0,0-.877-2.123L43,29.414V38a1,1,0,0,1-1,1H39.48a1,1,0,0,1-.707-.293l-4.26-4.26-.706.7a3.062,3.062,0,0,0-.832,2.68,3,3,0,0,0,.832,1.566l4.9,4.9A1,1,0,0,1,39,45v3a3,3,0,0,0,3,3v2a5.006,5.006,0,0,1-5-5H30v3a3,3,0,0,0,3,3,1,1,0,0,1,1,1v5Z"></path></g></svg>