<svg xmlns="http://www.w3.org/2000/svg" viewBox="0 0 64 64" x="0px" y="0px"><g data-name="Time-Stop Watch-Percentage"><path d="M32,25A11,11,0,1,0,43,36,11.013,11.013,0,0,0,32,25Zm-4,4a3,3,0,1,1-3,3A3,3,0,0,1,28,29ZM26.707,42.707l-1.414-1.414,12-12,1.414,1.414ZM36,43a3,3,0,1,1,3-3A3,3,0,0,1,36,43Z"></path><circle cx="36" cy="40" r="1"></circle><circle cx="28" cy="32" r="1"></circle><path d="M32,12A24,24,0,1,0,56,36,24.028,24.028,0,0,0,32,12ZM51.577,31.79l-1.931.517-.518-1.932,1.932-.517ZM48.82,25.134l1,1.732-1.732,1-1-1.732ZM41.134,18.18l1.732,1-1,1.732-1.732-1ZM45,36A13,13,0,1,1,32,23,13.015,13.015,0,0,1,45,36ZM36.21,16.423l1.932.517-.517,1.932-1.932-.518ZM31,16h2v2H31Zm-3.21.423.517,1.931-1.932.518-.517-1.932ZM22.866,18.18l1,1.732-1.732,1-1-1.732Zm-4.3,2.971,1.414,1.414-1.414,1.414-1.414-1.414ZM12.94,29.858l1.932.517-.518,1.932-1.931-.517ZM12,35h2v2H12Zm.423,5.21,1.931-.517.518,1.932-1.932.517Zm2.757,6.656-1-1.732,1.732-1,1,1.732Zm.732-19-1.732-1,1-1.732,1.732,1Zm2.653,22.983-1.414-1.414,1.414-1.414,1.414,1.414Zm4.3,2.971-1.732-1,1-1.732,1.732,1Zm4.924,1.757-1.932-.517.517-1.932,1.932.518ZM33,56H31V54h2Zm3.21-.423-.517-1.931,1.932-.518.517,1.932Zm4.924-1.757-1-1.732,1.732-1,1,1.732Zm4.3-2.971-1.414-1.414,1.414-1.414,1.414,1.414Zm0-26.87-1.414-1.414,1.414-1.414,1.414,1.414ZM48.82,46.866l-1.732-1,1-1.732,1.732,1Zm2.24-4.724-1.932-.517.518-1.932,1.931.517ZM50,37V35h2v2Z"></path><path d="M49.651,16.933q.735.681,1.416,1.416l.729-.729L50.38,16.2Z"></path><path d="M13.62,16.2,12.2,17.62l.729.729q.681-.735,1.416-1.416Z"></path><rect x="28" y="4" width="8.001" height="2"></rect><path d="M32,10c.335,0,.668.013,1,.025V8H31v2.025C31.332,10.013,31.665,10,32,10Z"></path></g></svg>