<svg xmlns="http://www.w3.org/2000/svg" viewBox="0 0 64 64" x="0px" y="0px"><g><path d="M15,46a5,5,0,1,0,5,5A5.006,5.006,0,0,0,15,46Zm1,6H14V50h2Z"></path><path d="M21.92,50H34V22H32V35a1,1,0,0,1-1,1H4v2H5a2,2,0,0,1,2,2v2a2,2,0,0,1-2,2H4v2H7v2H4v1a1,1,0,0,0,1,1H8.08a6.991,6.991,0,0,1,13.84,0Z"></path><path d="M55.92,50H59a1,1,0,0,0,1-1V48H57V46h3V44H56a2,2,0,0,1-2-2V40a2,2,0,0,1,2-2h2.974A4.977,4.977,0,0,0,55,36H36V50h6.08a6.991,6.991,0,0,1,13.84,0ZM42,40H38V38h4Z"></path><path d="M41.383,23.256A3.01,3.01,0,0,0,38.941,22H36V34H49.057Z"></path><path d="M56,42h4V41a5,5,0,0,0-.1-1H56Z"></path><path d="M49,46a5,5,0,1,0,5,5A5.006,5.006,0,0,0,49,46Zm1,6H48V50h2Z"></path><path d="M14.135,24.97,17,26.812l2.865-1.842A8.964,8.964,0,0,0,24,17.4V8H10v9.4A8.964,8.964,0,0,0,14.135,24.97Zm-.428-10.677L16,16.586l4.293-4.293,1.414,1.414-5,5a1,1,0,0,1-1.414,0l-3-3Z"></path><rect x="4" y="40" width="1" height="2"></rect><path d="M4,14V34H30V14H26v3.4a10.958,10.958,0,0,1-5.053,9.255l-3.406,2.188a1,1,0,0,1-1.082,0l-3.406-2.188A10.958,10.958,0,0,1,8,17.4V14Z"></path></g></svg>