<svg xmlns="http://www.w3.org/2000/svg" viewBox="0 0 64 64" x="0px" y="0px"><g><path d="M37,28.051V25.9A5.009,5.009,0,0,0,41,21V20a3,3,0,0,0,0-6h2V12H41V11a9,9,0,0,0-18,0v1H21v2h2a3,3,0,0,0,0,6v1a5.009,5.009,0,0,0,4,4.9v2.152A13.008,13.008,0,0,0,15,41V61a1,1,0,0,0,1,1H48a1,1,0,0,0,1-1V41A13.008,13.008,0,0,0,37,28.051Zm3.753,6.578-2.308,1.539a1,1,0,0,0-.152,1.539l1.2,1.2-4.959,3.857,4.4-10.391a1,1,0,0,0-.1-.927l-.837-1.255c.324.06.641.136.954.223Zm-15.2,1.539-2.308-1.539,1.8-4.216c.313-.087.63-.163.954-.223l-.837,1.255a1,1,0,0,0-.1.927l4.4,10.391-4.959-3.857,1.2-1.2a1,1,0,0,0-.152-1.539ZM35,26v2.65L32,32.4,29,28.65V26Zm-6.927,4.692,2.5,3.127-2.131,1.6-1.32-3.3ZM32,35.25l2.763,2.072L32,43.538l-2.763-6.216Zm3.556.167-2.131-1.6,2.5-3.127.949,1.425ZM42,17a1,1,0,0,1-1,1V16A1,1,0,0,1,42,17Zm-3.3-8H38a3,3,0,0,1-3-3V4.685A7.024,7.024,0,0,1,38.705,9ZM29,4.685V6a3,3,0,0,1-3,3h-.7A7.024,7.024,0,0,1,29,4.685ZM22,17a1,1,0,0,1,1-1v2A1,1,0,0,1,22,17Zm3,4V14h1a3.029,3.029,0,1,0,.78-2H25V11h1a5.006,5.006,0,0,0,5-5V4.08a6.29,6.29,0,0,1,2,0V6a5.006,5.006,0,0,0,5,5h1v1H37.22A2.987,2.987,0,1,0,38,14h1v7a3,3,0,0,1-3,3H28A3,3,0,0,1,25,21Zm3-7a1,1,0,1,1,1,1A1,1,0,0,1,28,14Zm8,0a1,1,0,1,1-1-1A1,1,0,0,1,36,14ZM17,41a10.994,10.994,0,0,1,5.385-9.442l-1.3,3.048a1,1,0,0,0,.364,1.226l1.985,1.323-1.137,1.138a1,1,0,0,0,.093,1.5L31,46.489V60H23V41H21V60H17ZM47,60H43V41H41V60H33V46.489l8.614-6.7a1,1,0,0,0,.093-1.5L40.57,37.155l1.985-1.323a1,1,0,0,0,.364-1.226l-1.3-3.048A10.994,10.994,0,0,1,47,41Z"></path></g></svg>