<svg xmlns="http://www.w3.org/2000/svg" viewBox="0 0 64 64" x="0px" y="0px"><g><path d="M48,48H38a2,2,0,0,1-2-2V36a2,2,0,0,1,2-2H48V12H16v4h9a2,2,0,0,1,2,2V28a2,2,0,0,1-2,2H16V52H48Z"></path><path d="M25,18H9V28H25Zm-7.419,6.813a1,1,0,0,1-1.162,0l-7-5,1.162-1.626L17,22.771l6.419-4.584,1.162,1.626Z"></path><path d="M16,10H48V7a3,3,0,0,0-3-3H19a3,3,0,0,0-3,3Zm9-4h6V8H25ZM19,6h4V8H19Z"></path><path d="M54,36H38V46H54Zm-7.419,6.813a1,1,0,0,1-1.162,0l-7-5,1.162-1.626L46,40.771l6.419-4.584,1.162,1.626Z"></path><path d="M48,54H16v3a3,3,0,0,0,3,3H45a3,3,0,0,0,3-3ZM35,58H29V56h6Z"></path></g></svg>