<svg xmlns="http://www.w3.org/2000/svg" viewBox="0 0 64 64" x="0px" y="0px"><g><rect x="31" y="49" width="2" height="2"></rect><path d="M56.46,60A5.99,5.99,0,0,0,52,50c-.113,0-.226,0-.338.01A6,6,0,0,0,40,52h2a4,4,0,0,1,7.935-.707,1,1,0,0,0,1.208.8A3.848,3.848,0,0,1,52,52a4,4,0,0,1,0,8H12a4,4,0,0,1,0-8,3.848,3.848,0,0,1,.857.095,1,1,0,0,0,1.208-.8A4,4,0,0,1,22,52h2a6,6,0,0,0-11.662-1.99C12.226,50,12.113,50,12,50A5.99,5.99,0,0,0,7.54,60H2v2H62V60Z"></path><path d="M5,5.414V20H7V5.414L8.293,6.707,9.707,5.293l-3-3a1,1,0,0,0-1.414,0l-3,3L3.707,6.707Z"></path><rect x="5" y="22" width="2" height="2"></rect><rect x="5" y="26" width="2" height="2"></rect><rect x="5" y="30" width="2" height="2"></rect><path d="M57,5.414V20h2V5.414l1.293,1.293,1.414-1.414-3-3a1,1,0,0,0-1.414,0l-3,3,1.414,1.414Z"></path><rect x="57" y="22" width="2" height="2"></rect><rect x="57" y="26" width="2" height="2"></rect><rect x="57" y="30" width="2" height="2"></rect><path d="M9,38a3,3,0,0,0,3,3H52a3,3,0,0,0,3-3V10a3,3,0,0,0-3-3H12a3,3,0,0,0-3,3Zm44,0a1,1,0,0,1-1,1H12a1,1,0,0,1-1-1V18a1,1,0,0,1,1-1H52a1,1,0,0,1,1,1Zm0-22.816A2.966,2.966,0,0,0,52,15H12a2.966,2.966,0,0,0-1,.184V14a1,1,0,0,1,1-1H52a1,1,0,0,1,1,1ZM12,9H52a1,1,0,0,1,1,1v1.184A2.966,2.966,0,0,0,52,11H12a2.966,2.966,0,0,0-1,.184V10A1,1,0,0,1,12,9Z"></path><path d="M13,20v4h2V21h3V19H14A1,1,0,0,0,13,20Z"></path><path d="M50,19H46v2h3v3h2V20A1,1,0,0,0,50,19Z"></path><path d="M15,32H13v4a1,1,0,0,0,1,1h4V35H15Z"></path><path d="M49,35H46v2h4a1,1,0,0,0,1-1V32H49Z"></path><rect x="23.515" y="27" width="16.971" height="2" transform="translate(-10.426 30.828) rotate(-45)"></rect><path d="M36,29a3,3,0,1,0,3,3A3,3,0,0,0,36,29Zm0,4a1,1,0,1,1,1-1A1,1,0,0,1,36,33Z"></path><path d="M28,27a3,3,0,1,0-3-3A3,3,0,0,0,28,27Zm0-4a1,1,0,1,1-1,1A1,1,0,0,1,28,23Z"></path><path d="M26,50c0,4.514,5.262,7.723,5.485,7.857a1,1,0,0,0,1.03,0C32.738,57.723,38,54.514,38,50a6,6,0,0,0-12,0Zm10,0c0,2.681-2.815,4.958-4,5.8-1.185-.84-4-3.117-4-5.8a4,4,0,0,1,8,0Z"></path></g></svg>