<svg xmlns="http://www.w3.org/2000/svg" viewBox="0 0 64 64" x="0px" y="0px"><g><path d="M57,6H7a5.006,5.006,0,0,0-5,5V45a5.006,5.006,0,0,0,5,5H22.867l-.75,6H21a1,1,0,0,0-1,1v3H16v2H48V60H44V57a1,1,0,0,0-1-1H41.883l-.75-6H57a5.006,5.006,0,0,0,5-5V11A5.006,5.006,0,0,0,57,6ZM7,8H57a3,3,0,0,1,3,3V40H4V11A3,3,0,0,1,7,8ZM42,60H22V58H42Zm-2.133-4H24.133l.75-6H39.117ZM57,48H7a3,3,0,0,1-3-3V42H60v3A3,3,0,0,1,57,48Z"></path><rect x="54" y="44" width="2" height="2"></rect><path d="M22,38a7.894,7.894,0,0,0,4-1.1A4.97,4.97,0,0,0,29.116,38h7.768a4.977,4.977,0,0,0,3.988-2H45a3,3,0,0,0,3-3V22a2,2,0,0,0,2-2V18a2,2,0,0,0-2-2H46.843L48.3,10.568l-1.932-.517L44.773,16H37v-.184A2.993,2.993,0,0,0,36,10H30a2.993,2.993,0,0,0-1,5.816v4.975l-1.5,3.43A7.9,7.9,0,0,0,25,22.58V18.816A2.993,2.993,0,0,0,24,13H20a2.993,2.993,0,0,0-1,5.816v3.766A8,8,0,0,0,22,38Zm17.4-3.358A2.954,2.954,0,0,1,36.884,36H29.116a3,3,0,0,1-2.748-4.2l2.058-4.705a6.8,6.8,0,0,0,2.234.328,6.911,6.911,0,0,0,2.679-.48,5.681,5.681,0,0,1,3.975,0c.073.026.152.049.225.074L39.632,31.8A2.955,2.955,0,0,1,39.4,34.642ZM31,21V16h4v5a.983.983,0,0,0,.084.4l1.427,3.261a8.074,8.074,0,0,0-1.181-.081,6.878,6.878,0,0,0-2.668.479,5.02,5.02,0,0,1-2,.361,4.942,4.942,0,0,1-1.425-.177L30.916,21.4A.983.983,0,0,0,31,21Zm15,3H44v2h2v2H44v2h2v3a1,1,0,0,1-1,1H41.783a4.984,4.984,0,0,0-.319-3l-3.935-9H46Zm2-6v2H37V18ZM30,12h6a1,1,0,0,1,0,2H30a1,1,0,0,1,0-2ZM20,15h4a1,1,0,0,1,0,2H20a1,1,0,0,1,0-2Zm.285,9.248A1,1,0,0,0,21,23.29V19h2v4.29a1,1,0,0,0,.717.959A5.884,5.884,0,0,1,26.447,26H17.561A5.956,5.956,0,0,1,20.285,24.248ZM16.356,28h9.49l-1.31,3a4.975,4.975,0,0,0,.175,4.352A5.927,5.927,0,0,1,22,36a6.006,6.006,0,0,1-6-6A5.909,5.909,0,0,1,16.356,28Z"></path><rect x="18" y="31" width="2" height="2"></rect><rect x="21" y="29" width="2" height="2"></rect><rect x="29" y="32" width="2" height="2"></rect><rect x="33" y="30" width="2" height="2"></rect><rect x="32" y="22" width="2" height="2"></rect></g></svg>