<svg xmlns="http://www.w3.org/2000/svg" viewBox="0 0 64 64" x="0px" y="0px"><g><path d="M38,33H36.445a1,1,0,0,1-.864-1.5A2.946,2.946,0,0,0,36,30a2.994,2.994,0,0,0-5.945-.514,1,1,0,0,1-1.522.673A1.018,1.018,0,0,0,27,31a.984.984,0,0,0,.142.5,1,1,0,0,1-.865,1.5H26a2,2,0,0,0,0,4H38a2,2,0,0,0,0-4Z"></path><circle cx="32" cy="8" r="4"></circle><circle cx="56" cy="32" r="4"></circle><path d="M46.142,46.142a4,4,0,1,0,5.657,0A4.1,4.1,0,0,0,46.142,46.142Z"></path><circle cx="32" cy="56" r="4"></circle><circle cx="8" cy="32" r="4"></circle><path d="M15.029,11.03A4,4,0,0,0,12.2,17.858a4.1,4.1,0,0,0,5.657,0,4,4,0,0,0-2.829-6.828Z"></path><path d="M48.971,11.03a4,4,0,0,0-2.829,6.828,4.1,4.1,0,0,0,5.657,0,4,4,0,0,0-2.828-6.828Z"></path><path d="M15.029,44.971A4,4,0,0,0,12.2,51.8a4.1,4.1,0,0,0,5.657,0,4,4,0,0,0-2.829-6.828Z"></path><rect x="31" y="14" width="2" height="9"></rect><rect x="37.964" y="21.5" width="7.071" height="2" transform="translate(-3.755 35.935) rotate(-45)"></rect><rect x="44" y="31" width="6" height="2"></rect><rect x="41" y="39.172" width="2" height="5.657" transform="translate(-17.397 42) rotate(-45)"></rect><rect x="31" y="41" width="2" height="9"></rect><rect x="19.172" y="41" width="5.657" height="2" transform="translate(-23.255 27.858) rotate(-45)"></rect><rect x="14" y="31" width="6" height="2"></rect><rect x="21.5" y="18.964" width="2" height="7.071" transform="translate(-9.32 22.5) rotate(-45)"></rect></g></svg>