<svg xmlns="http://www.w3.org/2000/svg" viewBox="0 0 64 64" x="0px" y="0px"><g data-name="First aid kit-Bag"><path d="M30,39v5h4V39a1,1,0,0,1,1-1h5V34H35a1,1,0,0,1-1-1V28H30v5a1,1,0,0,1-1,1H24v4h5A1,1,0,0,1,30,39Z"></path><path d="M32,50A14,14,0,1,0,18,36,14.015,14.015,0,0,0,32,50ZM22,33a1,1,0,0,1,1-1h5V27a1,1,0,0,1,1-1h6a1,1,0,0,1,1,1v5h5a1,1,0,0,1,1,1v6a1,1,0,0,1-1,1H36v5a1,1,0,0,1-1,1H29a1,1,0,0,1-1-1V40H23a1,1,0,0,1-1-1Z"></path><path d="M5,57H59a1,1,0,0,0,1-1V15a1,1,0,0,0-1-1H5a1,1,0,0,0-1,1V56A1,1,0,0,0,5,57ZM32,20A16,16,0,1,1,16,36,16.019,16.019,0,0,1,32,20Z"></path><path d="M42,4H22a1,1,0,0,0-1,1v7h2V8H41v4h2V5A1,1,0,0,0,42,4Z"></path></g></svg>