<svg xmlns="http://www.w3.org/2000/svg" viewBox="0 0 64 64" x="0px" y="0px"><g><path d="M50,35H11a1,1,0,0,0-1,1V60H50Z"></path><path d="M54,37.94A8.963,8.963,0,0,1,53,38H52V57h2Z"></path><path d="M53,36a6.983,6.983,0,0,0,.984-.077A.993.993,0,0,0,52,36Z"></path><path d="M62,29a9.009,9.009,0,0,1-6,8.49V35.32a6.935,6.935,0,0,0,1.96-1.37A7.007,7.007,0,0,0,53,22H11A7,7,0,0,0,8,35.32v2.17A9,9,0,0,1,11,20H53A9.014,9.014,0,0,1,62,29Z"></path><path d="M33,21H31V14.917A6,6,0,1,1,38,9H36a4,4,0,1,0-4,4,1,1,0,0,1,1,1Z"></path></g></svg>