<svg xmlns="http://www.w3.org/2000/svg" viewBox="0 0 64 64" x="0px" y="0px"><g><rect x="12" y="58" width="33" height="4"></rect><rect x="20" y="45" width="7" height="11"></rect><rect x="34" y="45" width="6" height="7"></rect><rect x="47" y="4" width="2" height="20"></rect><rect x="47" y="26" width="8" height="30"></rect><path d="M45,41H15V56h3V44a1,1,0,0,1,1-1h9a1,1,0,0,1,1,1V56H45ZM42,53a1,1,0,0,1-1,1H33a1,1,0,0,1-1-1V44a1,1,0,0,1,1-1h8a1,1,0,0,1,1,1Z"></path><path d="M37.06,35a8.042,8.042,0,0,1,2.65-5H13a6.017,6.017,0,0,0-5.92,5Z"></path><rect x="47" y="58" width="10" height="4"></rect><rect x="15" y="26" width="30" height="2"></rect><rect x="27" y="9" width="2" height="2"></rect><path d="M37,13H35v1a1,1,0,0,1-.617.924A.987.987,0,0,1,34,15a1,1,0,0,1-.707-.293L32,13.414l-1.293,1.293A1,1,0,0,1,29,14V13H27v6H37Z"></path><path d="M32,11a1,1,0,0,1,.707.293l.293.293V9H31v2.586l.293-.293A1,1,0,0,1,32,11Z"></path><path d="M19,24H45V4H19ZM25,8a1,1,0,0,1,1-1H38a1,1,0,0,1,1,1V20a1,1,0,0,1-1,1H26a1,1,0,0,1-1-1Z"></path><rect x="7" y="37" width="30" height="2"></rect><path d="M45,30a6,6,0,0,0-6,6v3h6Z"></path><rect x="35" y="9" width="2" height="2"></rect></g></svg>