<svg xmlns="http://www.w3.org/2000/svg" viewBox="0 0 64 64" x="0px" y="0px"><g data-name="Planet Control"><path d="M53,10H51.808c.882-3.341-.221-5.187-1.421-6.387C48.376,1.6,44.58-.161,34.911,7.3A15.326,15.326,0,0,0,32,7a14.9,14.9,0,0,0-8.962,3H11a5.006,5.006,0,0,0-5,5V45a5.006,5.006,0,0,0,5,5H23.867l-.75,6H21a2,2,0,0,0-2,2v2a2,2,0,0,0,2,2H43a2,2,0,0,0,2-2V58a2,2,0,0,0-2-2H40.883l-.75-6H53a5.006,5.006,0,0,0,5-5V15A5.006,5.006,0,0,0,53,10Zm-1.89,2H53a3,3,0,0,1,3,3V40H24.222A41.8,41.8,0,0,0,29.1,36.7,15.343,15.343,0,0,0,32,37,15.017,15.017,0,0,0,47,22a15.405,15.405,0,0,0-.3-2.911A33.869,33.869,0,0,0,51.11,12Zm-6.153,9.243c.014.253.043.507.043.757A13.015,13.015,0,0,1,32,35c-.25,0-.5-.029-.757-.044,2.207-1.855,4.591-4.055,7.124-6.589S43.1,23.448,44.957,21.243ZM48.973,5.027c.862.863,3.487,3.488-4.119,13.185a101.415,101.415,0,0,1-7.9,8.741,101.642,101.642,0,0,1-8.74,7.9c-9.7,7.606-12.324,4.982-13.186,4.12-.815-.815-3.2-3.208,2.962-11.654a14.769,14.769,0,0,0,1.016,2.14c-3.913,5.6-3.354,7.306-2.563,8.1a1.953,1.953,0,0,0,1.475.574c1.249,0,3.362-.78,7.157-3.509a89.483,89.483,0,0,0,10.463-9.085,89.551,89.551,0,0,0,9.085-10.463c4.336-6.032,3.752-7.814,2.936-8.631-.791-.79-2.5-1.35-8.1,2.562a14.954,14.954,0,0,0-2.142-1.016C45.762,1.828,48.157,4.211,48.973,5.027ZM30.465,9.1A16.018,16.018,0,0,1,19.1,20.466,13.014,13.014,0,0,1,30.465,9.1ZM43.8,12.755c-.206-.262-.43-.507-.653-.755h1.142C44.13,12.243,43.974,12.487,43.8,12.755ZM45.429,10H41.552c2.805-1.841,4.17-2.169,4.57-2.122A4.887,4.887,0,0,1,45.429,10Zm-6.455,1.034a13.09,13.09,0,0,1,3.6,3.445,89.575,89.575,0,0,1-8.451,9.644,89.794,89.794,0,0,1-9.643,8.451,13.06,13.06,0,0,1-3.448-3.6c-.206-.322-.4-.654-.572-.993A18,18,0,0,0,37.977,10.46C38.318,10.637,38.651,10.827,38.974,11.034ZM20.2,31.245a15.154,15.154,0,0,0,2.55,2.55c-3.013,2.021-4.465,2.379-4.877,2.327C17.825,35.707,18.185,34.256,20.2,31.245ZM35.986,9.627c0,.125.014.246.014.373A16.019,16.019,0,0,1,20,26c-.127,0-.249-.01-.373-.013q-.165-.51-.292-1.037a13.6,13.6,0,0,1-.3-2.42,18,18,0,0,0,13.5-13.5,13.58,13.58,0,0,1,2.409.3C35.294,9.417,35.643,9.516,35.986,9.627ZM11,12h9.851A14.925,14.925,0,0,0,17,22a15.358,15.358,0,0,0,.3,2.91C10.288,33.995,11.421,37.9,13.252,40H8V15A3,3,0,0,1,11,12ZM43,60H21V58H43Zm-4.133-4H25.133l.75-6H38.117ZM53,48H11a3,3,0,0,1-3-3V42h8.434a6,6,0,0,0,1.313.141A8.091,8.091,0,0,0,19.194,42H56v3A3,3,0,0,1,53,48Z"></path><rect x="50" y="44" width="2" height="2"></rect></g></svg>