<svg xmlns="http://www.w3.org/2000/svg" viewBox="0 0 64 64" x="0px" y="0px"><g data-name="Communication"><polygon points="48.994 12.816 56.512 8 41.312 8 48.994 12.816"></polygon><path d="M51.913,13.321l-2.374,1.521a1,1,0,0,1-1.07.006l-2.4-1.5L39.414,20H58.592Z"></path><polygon points="60 18.58 60 8.14 53.637 12.216 60 18.58"></polygon><polygon points="38 18.586 44.332 12.254 38 8.285 38 18.586"></polygon><path d="M29.392,4A17.9,17.9,0,0,0,12.934,15.229L6.385,35H12v9a5.006,5.006,0,0,0,5,5H31v2H26v9H48V49h1a9.011,9.011,0,0,0,9-9V22H37a1,1,0,0,1-1-1V7a1,1,0,0,1,1-1H50.424A14.822,14.822,0,0,0,43,4H29.392ZM26,9h2v2H26ZM17.5,26A4.505,4.505,0,0,1,13,21.5h2a2.5,2.5,0,0,0,5,0h2A4.505,4.505,0,0,1,17.5,26ZM24,19H22V17h2Zm0-4V13h2v2Zm10,4H26V17h8Zm0-4H28V13h6Zm0-4H30V9h4Z"></path></g></svg>