<svg xmlns="http://www.w3.org/2000/svg" viewBox="0 0 64 64" x="0px" y="0px"><g data-name="Coding-Computer-Programming-Development-Web Developing"><path d="M11.414,56H52.586l-4-4H15.414ZM46,53h2v2H46Zm-4,0h2v2H42ZM24,53H40v2H24Zm-4,0h2v2H20Zm-4,0h2v2H16Z"></path><rect x="10" y="58" width="44" height="2"></rect><path d="M19,50H17V48a1,1,0,0,0-1-1H10a3,3,0,0,1,0-6h6a1,1,0,0,0,1-1V38h2v2a3,3,0,0,1-3,3H10a1,1,0,0,0,0,2h6a3,3,0,0,1,3,3Z"></path><path d="M53,9V30H11V9a1,1,0,0,1,1-1h9.63A12,12,0,1,0,42.37,8H52A1,1,0,0,1,53,9Z"></path><path d="M32,24A10,10,0,1,0,22,14,10.011,10.011,0,0,0,32,24Zm3.293-12.293,1.414-1.414,3,3a1,1,0,0,1,0,1.414l-3,3-1.414-1.414L37.586,14Zm-3.241-1.023,1.9.632-2,6-1.9-.632Zm-4.759-.391,1.414,1.414L26.414,14l2.293,2.293-1.414,1.414-3-3a1,1,0,0,1,0-1.414Z"></path><rect x="23" y="44" width="18" height="2"></rect><path d="M11,35a1,1,0,0,0,1,1H52a1,1,0,0,0,1-1V32H11Zm36-2h2v2H47Z"></path><rect x="28" y="38" width="8" height="4"></rect></g></svg>