<svg xmlns="http://www.w3.org/2000/svg" viewBox="0 0 64 64" x="0px" y="0px"><g><path d="M57,38H43.886A4.874,4.874,0,0,0,44,37V7a5.006,5.006,0,0,0-5-5H25a5.006,5.006,0,0,0-5,5V37a4.874,4.874,0,0,0,.114,1H7a5.006,5.006,0,0,0-5,5V57a5.006,5.006,0,0,0,5,5H57a5.006,5.006,0,0,0,5-5V43A5.006,5.006,0,0,0,57,38ZM28,4h8V5a1,1,0,0,1-1,1H29a1,1,0,0,1-1-1ZM22,37V7a3,3,0,0,1,3-3h1V5a3,3,0,0,0,3,3h6a3,3,0,0,0,3-3V4h1a3,3,0,0,1,3,3V37a2.95,2.95,0,0,1-.2,1H22.2A2.95,2.95,0,0,1,22,37ZM57,60H7a3,3,0,0,1-3-3H15V55H4V53H15V51H4V49H15V47H4V45H15V43H4a3,3,0,0,1,3-3H57a3,3,0,0,1,3,3H49v2H60v2H49v2H60v2H49v2H60v2H49v2H60A3,3,0,0,1,57,60Z"></path><path d="M42,45H22a1,1,0,0,0-1,1v8a1,1,0,0,0,1,1H42a1,1,0,0,0,1-1V46A1,1,0,0,0,42,45Zm-1,8H23V47H41Z"></path><rect x="31" y="49" width="2" height="2"></rect><rect x="35" y="49" width="2" height="2"></rect><rect x="27" y="49" width="2" height="2"></rect><path d="M37.757,13.03l-8,2A1,1,0,0,0,29,16v7.184A2.966,2.966,0,0,0,28,23a3,3,0,1,0,3,3V20.78l6-1.5v1.9A2.966,2.966,0,0,0,36,21a3,3,0,1,0,3,3V14a1,1,0,0,0-.385-.788A.985.985,0,0,0,37.757,13.03ZM28,27a1,1,0,1,1,1-1A1,1,0,0,1,28,27Zm3-8.28V16.781l6-1.5V17.22ZM36,25a1,1,0,1,1,1-1A1,1,0,0,1,36,25Z"></path></g></svg>