<svg xmlns="http://www.w3.org/2000/svg" viewBox="0 0 64 64" x="0px" y="0px"><g><path d="M61.9,56.553,56,44.764V13a3,3,0,0,0-3-3H46v2h7a1,1,0,0,1,1,1V44H10V17.642A5.924,5.924,0,0,0,12.449,16H13v2a1,1,0,0,0,.105.447l1.364,2.727A.982.982,0,0,0,14,22v8a1,1,0,0,0,1,1H28v2a1,1,0,0,0,.758.97l1.606.4a7.884,7.884,0,0,0,.56,1.349l-.853,1.421a1,1,0,0,0,.151,1.222l1.414,1.414a1,1,0,0,0,1.221.151l1.421-.853a7.951,7.951,0,0,0,1.351.56l.4,1.606A1,1,0,0,0,37,42h2a1,1,0,0,0,.97-.758l.4-1.606a7.951,7.951,0,0,0,1.351-.56l1.421.853a1,1,0,0,0,1.221-.151l1.414-1.414a1,1,0,0,0,.151-1.222l-.853-1.421a7.884,7.884,0,0,0,.56-1.349l1.606-.4A1,1,0,0,0,48,33V31a1,1,0,0,0-.758-.97l-1.606-.4a7.884,7.884,0,0,0-.56-1.349l.853-1.421a1,1,0,0,0-.151-1.222l-1.414-1.414a1,1,0,0,0-1.221-.151l-1.422.853a7.908,7.908,0,0,0-1.35-.56l-.4-1.606A1,1,0,0,0,39,22H37a1,1,0,0,0-.97.758l-.4,1.606a7.908,7.908,0,0,0-1.35.56L34,24.757V22a1,1,0,0,0-1-1V16h.55A5.947,5.947,0,0,0,38,18a6.032,6.032,0,0,0,5.5-3.6A1,1,0,0,0,42.59,13H39.618l-.5-1,.5-1H42.59A1,1,0,0,0,43.5,9.6,6.032,6.032,0,0,0,38,6a5.947,5.947,0,0,0-4.45,2H33V5a3,3,0,0,0-3-3H18a3,3,0,0,0-3,3V6.184A3,3,0,0,0,13.184,8h-.733A5.916,5.916,0,0,0,8,6,6.032,6.032,0,0,0,2.5,9.6,1,1,0,0,0,3.41,11H6.382l.5,1-.5,1H3.41a1,1,0,0,0-.914,1.4A6.032,6.032,0,0,0,8,18V44.764L2.105,56.553A1,1,0,0,0,2,57v3a2,2,0,0,0,2,2H60a2,2,0,0,0,2-2V57A1,1,0,0,0,61.9,56.553ZM54.382,46l5,10H40.618L38.9,52.553A1,1,0,0,0,38,52H26a1,1,0,0,0-.895.553L23.382,56H4.618l5-10Zm-16,10H25.618l1-2H37.382ZM16,29V23H32v1a.98.98,0,0,0-.364.221l-1.414,1.414a1,1,0,0,0-.151,1.222l.853,1.421c-.124.235-.233.476-.333.721Zm18.805-2.07a5.918,5.918,0,0,1,1.871-.778,1,1,0,0,0,.75-.733L37.781,24h.438l.355,1.419a1,1,0,0,0,.75.733,5.918,5.918,0,0,1,1.871.778,1,1,0,0,0,1.05.012l1.257-.754.31.31-.753,1.256A1,1,0,0,0,43.07,28.8a5.967,5.967,0,0,1,.778,1.873,1,1,0,0,0,.733.75L46,31.781v.438l-1.419.355a1,1,0,0,0-.733.75A5.967,5.967,0,0,1,43.07,35.2a1,1,0,0,0-.011,1.049l.753,1.256-.31.31-1.256-.754a1,1,0,0,0-1.049.012,5.948,5.948,0,0,1-1.873.778,1,1,0,0,0-.75.733L38.219,40h-.438l-.355-1.419a1,1,0,0,0-.75-.733A5.948,5.948,0,0,1,34.8,37.07a1,1,0,0,0-1.049-.012l-1.256.754-.311-.31.754-1.256A1,1,0,0,0,32.93,35.2a5.967,5.967,0,0,1-.778-1.873,1,1,0,0,0-.733-.75L30,32.219v-.438l1.419-.355a1,1,0,0,0,.733-.75A5.967,5.967,0,0,1,32.93,28.8a1,1,0,0,0,.011-1.049L32.187,26.5l.311-.31,1.257.754A1,1,0,0,0,34.805,26.93ZM34.02,10a1,1,0,0,0,.795-.395A3.977,3.977,0,0,1,40.644,9H39a1,1,0,0,0-.9.553l-1,2a1,1,0,0,0,0,.894l1,2A1,1,0,0,0,39,15h1.644a3.977,3.977,0,0,1-5.829-.605A1,1,0,0,0,34.02,14H22.891a7.025,7.025,0,0,0-1.383-1.05A2.849,2.849,0,0,0,24,12.22a2.954,2.954,0,0,0,4,0A2.987,2.987,0,0,0,33,10ZM20,12.22c.047.042.1.081.146.12-.071-.023-.144-.041-.216-.062ZM31,5v5a1,1,0,0,1-2,0V4h1A1,1,0,0,1,31,5Zm-4,5a1,1,0,0,1-2,0V4h2Zm-4,0a1,1,0,0,1-2,0V4h2ZM18,4h1V9a3,3,0,0,0-2-2.816V5A1,1,0,0,1,18,4ZM15,9a1,1,0,0,1,2,0v4a1,1,0,0,0,1,1,5.006,5.006,0,0,1,5,5h2a6.962,6.962,0,0,0-.679-3H31v5H16.618L15,17.764ZM5.356,15H7a1,1,0,0,0,.895-.553l1-2a1,1,0,0,0,0-.894l-1-2A1,1,0,0,0,7,9H5.356A4.01,4.01,0,0,1,8,8a3.943,3.943,0,0,1,3.2,1.625.987.987,0,0,0,.979.375H13v4h-.758a1,1,0,0,0-1.045.374A3.966,3.966,0,0,1,8.758,15.92,3.182,3.182,0,0,1,8,16,4.01,4.01,0,0,1,5.356,15ZM4,60V58H60v2Z"></path><rect x="10" y="52" width="2" height="2"></rect><rect x="14" y="52" width="2" height="2"></rect><rect x="48" y="52" width="2" height="2"></rect><rect x="52" y="52" width="2" height="2"></rect><rect x="15" y="48" width="2" height="2"></rect><rect x="11" y="48" width="2" height="2"></rect><rect x="19" y="48" width="2" height="2"></rect><rect x="23" y="48" width="2" height="2"></rect><rect x="27" y="48" width="2" height="2"></rect><rect x="31" y="48" width="2" height="2"></rect><rect x="35" y="48" width="2" height="2"></rect><rect x="39" y="48" width="2" height="2"></rect><rect x="43" y="48" width="2" height="2"></rect><rect x="47" y="48" width="2" height="2"></rect><rect x="51" y="48" width="2" height="2"></rect><rect x="18" y="52" width="4" height="2"></rect><rect x="42" y="52" width="4" height="2"></rect><path d="M38,36a4,4,0,1,0-4-4A4,4,0,0,0,38,36Zm0-6a2,2,0,1,1-2,2A2,2,0,0,1,38,30Z"></path><path d="M52,20a3,3,0,1,0-3,3A3,3,0,0,0,52,20Zm-3,1a1,1,0,1,1,1-1A1,1,0,0,1,49,21Z"></path><rect x="48" y="25" width="2" height="4"></rect><rect x="40" y="19" width="4" height="2"></rect></g></svg>