<svg xmlns="http://www.w3.org/2000/svg" viewBox="0 0 64 64" x="0px" y="0px"><g><path d="M58,40H51V39a6.006,6.006,0,0,0-6-6H37a4,4,0,0,1-4-4V24H47a3,3,0,0,0,3-3V5a3,3,0,0,0-3-3H17a3,3,0,0,0-3,3V21a3,3,0,0,0,3,3H31v5a6.006,6.006,0,0,0,6,6h8a4,4,0,0,1,4,4v1H6a3,3,0,0,0-3,3V59a3,3,0,0,0,3,3H58a3,3,0,0,0,3-3V43A3,3,0,0,0,58,40ZM16,21V5a1,1,0,0,1,1-1H47a1,1,0,0,1,1,1V21a1,1,0,0,1-1,1H17A1,1,0,0,1,16,21ZM59,59a1,1,0,0,1-1,1H6a1,1,0,0,1-1-1V43a1,1,0,0,1,1-1H58a1,1,0,0,1,1,1Z"></path><path d="M8,50h4a1,1,0,0,0,1-1V45a1,1,0,0,0-1-1H8a1,1,0,0,0-1,1v4A1,1,0,0,0,8,50Zm1-4h2v2H9Z"></path><path d="M16,50h4a1,1,0,0,0,1-1V45a1,1,0,0,0-1-1H16a1,1,0,0,0-1,1v4A1,1,0,0,0,16,50Zm1-4h2v2H17Z"></path><path d="M24,50h4a1,1,0,0,0,1-1V45a1,1,0,0,0-1-1H24a1,1,0,0,0-1,1v4A1,1,0,0,0,24,50Zm1-4h2v2H25Z"></path><path d="M32,50h4a1,1,0,0,0,1-1V45a1,1,0,0,0-1-1H32a1,1,0,0,0-1,1v4A1,1,0,0,0,32,50Zm1-4h2v2H33Z"></path><path d="M44,44H40a1,1,0,0,0-1,1v4a1,1,0,0,0,1,1h4a1,1,0,0,0,1-1V45A1,1,0,0,0,44,44Zm-1,4H41V46h2Z"></path><path d="M44,52H8a1,1,0,0,0-1,1v4a1,1,0,0,0,1,1H44a1,1,0,0,0,1-1V53A1,1,0,0,0,44,52Zm-1,4H9V54H43Z"></path><path d="M56,46H52a1,1,0,0,0-1,1v5H48a1,1,0,0,0-1,1v4a1,1,0,0,0,1,1h8a1,1,0,0,0,1-1V47A1,1,0,0,0,56,46ZM55,56H49V54h3a1,1,0,0,0,1-1V48h2Z"></path><path d="M46.447,6.9l-.894-1.79-13.1,6.553a1,1,0,0,1-.895,0L18.447,5.105,17.553,6.9l8.092,4.046-8.352,8.352,1.414,1.414,8.824-8.824,3.128,1.564a3.014,3.014,0,0,0,2.683,0l3.127-1.564,8.824,8.824,1.414-1.414-8.352-8.352Z"></path></g></svg>