<svg xmlns="http://www.w3.org/2000/svg" viewBox="0 0 64 64" x="0px" y="0px"><title>Presentaion person profile_1</title><g data-name="Presentaion person profile"><path d="M17,16a3,3,0,1,0-3,3A3,3,0,0,0,17,16Zm-3,1a1,1,0,1,1,1-1A1,1,0,0,1,14,17Z"></path><path d="M18,22a3,3,0,0,0-3-3H13a3,3,0,0,0-3,3v5h8Zm-2,3H12V22a1,1,0,0,1,1-1h2a1,1,0,0,1,1,1Z"></path><path d="M17,32a3,3,0,1,0-3,3A3,3,0,0,0,17,32Zm-3,1a1,1,0,1,1,1-1A1,1,0,0,1,14,33Z"></path><path d="M18,38a3,3,0,0,0-3-3H13a3,3,0,0,0-3,3v5h8Zm-2,3H12V38a1,1,0,0,1,1-1h2a1,1,0,0,1,1,1Z"></path><path d="M45,22h7V16H22V26H45ZM24,18H50v2H24Zm19,6H24V22H43Z"></path><path d="M50,36H40V32H22V42H50ZM24,34H38v2H24Zm24,6H24V38H48Z"></path><path d="M62,12V6H36V2H28V6H2v6H4V44H2v6H28v6H21v6H43V56H36V50H62V44H60V12ZM30,4h4V6H30ZM4,8H60v2H4ZM41,58v2H23V58Zm-7-2H30V50h4Zm26-8H4V46H60Zm-2-4H6V12H58Z"></path></g></svg>