<svg xmlns="http://www.w3.org/2000/svg" viewBox="0 0 64 64" x="0px" y="0px"><g data-name="Lesson-Online-Audio Book-Headphone-Device"><path d="M36,19a3.01,3.01,0,0,1,2-2.82v-3.1A11.962,11.962,0,0,0,34,22v2h2Z"></path><path d="M4,10H38V7a3.009,3.009,0,0,0-3-3H7A3.009,3.009,0,0,0,4,7ZM16,6h2V8H16ZM12,6h2V8H12ZM8,6h2V8H8Z"></path><path d="M32,27v6a1,1,0,0,0,1,1h3V26H33A1,1,0,0,0,32,27Z"></path><path d="M4,37a3.01,3.01,0,0,0,2,2.82V33a1,1,0,0,1,1-1h3V29a1,1,0,0,1,1-1H25a4.966,4.966,0,0,1,3.99,2.02A5.087,5.087,0,0,1,30,29.01V27a3.01,3.01,0,0,1,2-2.82V22a13.939,13.939,0,0,1,4.22-10H4Zm8-23H22v2H12ZM8,14h2v2H8Zm0,4H22v2H8Zm0,4H22v2H8Z"></path><rect x="16" y="34" width="8" height="4"></rect><rect x="48" y="44" width="2" height="16"></rect><rect x="42" y="22" width="8" height="4"></rect><circle cx="46" cy="35" r="3"></circle><path d="M54,41V19a1,1,0,0,0-1-1H39a1,1,0,0,0-1,1V41a1,1,0,0,0,1,1H53A1,1,0,0,0,54,41Zm-8-1a5,5,0,1,1,5-5A5.006,5.006,0,0,1,46,40Zm6-13a1,1,0,0,1-1,1H41a1,1,0,0,1-1-1V21a1,1,0,0,1,1-1H51a1,1,0,0,1,1,1Z"></path><path d="M60,33V27a1,1,0,0,0-1-1H56v8h3A1,1,0,0,0,60,33Z"></path><path d="M28,33a3.009,3.009,0,0,0-3-3H12V56H25a4.924,4.924,0,0,1,3,1.03ZM26,52H14V50H26Zm0-4H14V46H26Zm0-4H14V42H26Zm0-5a1,1,0,0,1-1,1H15a1,1,0,0,1-1-1V33a1,1,0,0,1,1-1H25a1,1,0,0,1,1,1Z"></path><rect x="8" y="34" width="2" height="26"></rect><path d="M12,58v2H27.83A3.014,3.014,0,0,0,25,58Z"></path><path d="M36,41V36H33a3.009,3.009,0,0,1-3-3V57.03A4.924,4.924,0,0,1,33,56H46V44H39A3.009,3.009,0,0,1,36,41Zm8,11H32V50H44Zm0-4H32V46H44Z"></path><path d="M33,58a3.014,3.014,0,0,0-2.83,2H46V58Z"></path><path d="M60,22v2H58V22A12.01,12.01,0,0,0,46,10a11.887,11.887,0,0,0-6,1.61V9.35A14,14,0,0,1,60,22Z"></path></g></svg>