<svg xmlns="http://www.w3.org/2000/svg" viewBox="0 0 64 64" x="0px" y="0px"><g><rect x="23" y="27" width="2" height="2"></rect><rect x="27" y="28" width="2" height="2"></rect><rect x="23" y="34" width="2" height="2"></rect><rect x="27" y="35" width="2" height="2"></rect><rect x="26" y="20" width="12" height="2"></rect><rect x="41" y="14" width="2" height="2"></rect><rect x="45" y="15" width="2" height="2"></rect><rect x="45" y="22" width="2" height="2"></rect><rect x="44" y="7" width="12" height="2"></rect><path d="M50,28c6.84,0,12-2.58,12-6V8c0-3.42-5.16-6-12-6S38,4.58,38,8v7.76A22.411,22.411,0,0,0,32,15a22.411,22.411,0,0,0-6,.76V8c0-3.42-5.16-6-12-6S2,4.58,2,8V22c0,3.42,5.16,6,12,6a22.855,22.855,0,0,0,6-.78V30H3a1,1,0,0,0-1,1V61a1,1,0,0,0,1,1H61a1,1,0,0,0,1-1V31a1,1,0,0,0-1-1H44V27.22A22.855,22.855,0,0,0,50,28ZM50,4c5.72,0,10,2.11,10,4s-4.28,4-10,4S40,9.89,40,8,44.28,4,50,4ZM40,11.41C42.11,12.99,45.73,14,50,14s7.89-1.01,10-2.59V15c0,1.89-4.28,4-10,4s-10-2.11-10-4ZM32,17c5.72,0,10,2.11,10,4s-4.28,4-10,4-10-2.11-10-4S26.28,17,32,17ZM26,42V40.24A22.411,22.411,0,0,0,32,41a22.411,22.411,0,0,0,6-.76V42Zm5,2v4H19V44Zm2,0H45v4H33Zm-1-5c-5.72,0-10-2.11-10-4V31.41C24.11,32.99,27.73,34,32,34s7.89-1.01,10-2.59V35C42,36.89,37.72,39,32,39Zm0-7c-5.72,0-10-2.11-10-4V24.41C24.11,25.99,27.73,27,32,27s7.89-1.01,10-2.59V28C42,29.89,37.72,32,32,32ZM14,4c5.72,0,10,2.11,10,4s-4.28,4-10,4S4,9.89,4,8,8.28,4,14,4ZM4,11.41C6.11,12.99,9.73,14,14,14s7.89-1.01,10-2.59V15c0,1.89-4.28,4-10,4S4,16.89,4,15ZM14,26C8.28,26,4,23.89,4,22V18.41C6.11,19.99,9.73,21,14,21a22.691,22.691,0,0,0,6.11-.79A3.012,3.012,0,0,0,20,21v4.13A20.394,20.394,0,0,1,14,26Zm5,6h1v3a3.384,3.384,0,0,0,.17,1H19Zm2.52,6A9.133,9.133,0,0,0,24,39.54V42H12V38ZM4,32H17v4H4Zm0,6h6v4H4Zm0,6H17v4H4Zm0,6h6v4H4ZM17,60H4V56H17Zm-5-6V50H24v4Zm19,6H19V56H31Zm-5-6V50H38v4Zm19,6H33V56H45Zm-5-6V50H52v4Zm20,6H47V56H60Zm0-6H54V50h6Zm0-6H47V44H60Zm0-6H54V38h6ZM47,32H60v4H47Zm5,6v4H40V39.54A9.133,9.133,0,0,0,42.48,38Zm-7-6v4H43.83A3.384,3.384,0,0,0,44,35V32ZM43.89,20.21A22.691,22.691,0,0,0,50,21c4.27,0,7.89-1.01,10-2.59V22c0,1.89-4.28,4-10,4a20.394,20.394,0,0,1-6-.87V21A3.012,3.012,0,0,0,43.89,20.21Z"></path><rect x="5" y="14" width="2" height="2"></rect><rect x="9" y="15" width="2" height="2"></rect><rect x="5" y="21" width="2" height="2"></rect><rect x="9" y="22" width="2" height="2"></rect><rect x="8" y="7" width="12" height="2"></rect></g></svg>