<svg xmlns="http://www.w3.org/2000/svg" viewBox="0 0 64 64" x="0px" y="0px"><g data-name="Circuit Board-Socket-Plugin-Electrical-Household-Technology"><path d="M57,43H55v4a1,1,0,0,0,2,0Z"></path><path d="M59,32a3.009,3.009,0,0,0-3-3H48a3.009,3.009,0,0,0-3,3v9H59Z"></path><rect x="50" y="25" width="4" height="2"></rect><path d="M49,43H47v4a1,1,0,0,0,2,0Z"></path><path d="M10,44H24a1,1,0,0,0,1-1V37a1,1,0,0,0-1-1H10a1,1,0,0,0-1,1v6A1,1,0,0,0,10,44Zm10-6a2,2,0,1,1-2,2A2,2,0,0,1,20,38Zm-6,0a2,2,0,1,1-2,2A2,2,0,0,1,14,38Z"></path><path d="M10,30H24a1,1,0,0,0,1-1V23a1,1,0,0,0-1-1H10a1,1,0,0,0-1,1v6A1,1,0,0,0,10,30Zm10-6a2,2,0,1,1-2,2A2,2,0,0,1,20,24Zm-6,0a2,2,0,1,1-2,2A2,2,0,0,1,14,24Z"></path><path d="M10,16H24a1,1,0,0,0,1-1V9a1,1,0,0,0-1-1H10A1,1,0,0,0,9,9v6A1,1,0,0,0,10,16Zm10-6a2,2,0,1,1-2,2A2,2,0,0,1,20,10Zm-6,0a2,2,0,1,1-2,2A2,2,0,0,1,14,10Z"></path><path d="M6,48H28a1,1,0,0,0,1-1V5a1,1,0,0,0-1-1H6A1,1,0,0,0,5,5V47A1,1,0,0,0,6,48ZM7,9a3,3,0,0,1,3-3H24a3,3,0,0,1,3,3v6a3,3,0,0,1-3,3H10a3,3,0,0,1-3-3ZM7,23a3,3,0,0,1,3-3H24a3,3,0,0,1,3,3v6a3,3,0,0,1-3,3H10a3,3,0,0,1-3-3ZM7,37a3,3,0,0,1,3-3H24a3,3,0,0,1,3,3v6a3,3,0,0,1-3,3H10a3,3,0,0,1-3-3Z"></path><rect x="14" y="50" width="6" height="2"></rect><path d="M32,62H21a5.006,5.006,0,0,1-5-5V54h2v3a3,3,0,0,0,3,3H32a3,3,0,0,0,3-3V11a9,9,0,0,1,18,0V23H51V11a7,7,0,0,0-14,0V57A5.006,5.006,0,0,1,32,62Z"></path></g></svg>