<svg xmlns="http://www.w3.org/2000/svg" viewBox="0 0 32 32" x="0px" y="0px"><title>File Up Arrow_6</title><g data-name="File Up Arrow"><path d="M27.99,7.944a1.494,1.494,0,0,0-.067-.316.985.985,0,0,0-.164-.279l-6-7a.978.978,0,0,0-.306-.231c-.03-.015-.059-.026-.09-.039A.99.99,0,0,0,21.045.01C21.03.009,21.016,0,21,0H5A1,1,0,0,0,4,1V31a1,1,0,0,0,1,1H27a1,1,0,0,0,1-1V8C28,7.981,27.991,7.963,27.99,7.944ZM22,3.7,24.826,7H22ZM6,30V2H20V8a1,1,0,0,0,1,1h5V30Z"></path><path d="M15,13.415V18h2V13.415l1.121,1.121,1.414-1.414-2.828-2.829a1.029,1.029,0,0,0-1.414,0l-2.828,2.829,1.414,1.414Z"></path><path d="M18,19H14V18H12v2a1,1,0,0,0,1,1h6a1,1,0,0,0,1-1V18H18Z"></path></g></svg>