<svg xmlns="http://www.w3.org/2000/svg" viewBox="0 0 64 64" x="0px" y="0px"><g><path d="M39,55H55a1,1,0,0,0,1-1V36a1,1,0,0,0-1-1H39a1,1,0,0,0-1,1V54A1,1,0,0,0,39,55Zm1-12a1,1,0,0,1,1-1h3V39a1,1,0,0,1,1-1h4a1,1,0,0,1,1,1v3h3a1,1,0,0,1,1,1v4a1,1,0,0,1-1,1H50v3a1,1,0,0,1-1,1H45a1,1,0,0,1-1-1V48H41a1,1,0,0,1-1-1Z"></path><path d="M46,47v3h2V47a1,1,0,0,1,1-1h3V44H49a1,1,0,0,1-1-1V40H46v3a1,1,0,0,1-1,1H42v2h3A1,1,0,0,1,46,47Z"></path><polygon points="35 20 35 24 59 24 59 20 56 20 56 22 54 22 54 20 52 20 52 22 50 22 50 20 48 20 48 22 46 22 46 20 44 20 44 22 42 22 42 20 40 20 40 22 38 22 38 20 35 20"></polygon><rect x="14" y="56" width="18" height="2"></rect><path d="M32,32.67a2.945,2.945,0,0,1,.607-1.809L33.253,30H4v4H27v2H4v9a9.01,9.01,0,0,0,9,9H32Z"></path><path d="M9.1,28H18.9L17.4,13.08a3.42,3.42,0,0,0-6.806,0Z"></path><path d="M34,32.67V59a1,1,0,0,0,1,1H59a1,1,0,0,0,1-1V32.67a.965.965,0,0,0-.193-.591L57.2,28.6A1,1,0,0,1,57,28V26H37v2a1,1,0,0,1-.2.6l-2.6,3.47A.967.967,0,0,0,34,32.67ZM36,36a3,3,0,0,1,3-3H55a3,3,0,0,1,3,3V54a3,3,0,0,1-3,3H39a3,3,0,0,1-3-3Z"></path></g></svg>