<svg xmlns="http://www.w3.org/2000/svg" viewBox="0 0 64 64" x="0px" y="0px"><g><path d="M56,38H40a2,2,0,0,0-2,2V56a2,2,0,0,0,2,2H56a2,2,0,0,0,2-2V40A2,2,0,0,0,56,38Zm0,6H52V40h4ZM46,50V46h4v4Zm4,2v4H46V52Zm-6-2H40V46h4Zm2-6V40h4v4Zm6,2h4v4H52Zm-8-6v4H40V40ZM40,52h4v4H40Zm12,4V52h4v4Z"></path><path d="M60,22.18V5a3.009,3.009,0,0,0-3-3H5A3.009,3.009,0,0,0,2,5V47a3.009,3.009,0,0,0,3,3h7v3.27l-.13-.23a3,3,0,1,0-5.2,3L10.4,62.5l1.73-1L8.4,55.04a1.01,1.01,0,0,1,.37-1.37.99.99,0,0,1,1.36.37l2,3.46a1.022,1.022,0,0,0,1.13.47A1,1,0,0,0,14,57V45a1,1,0,0,1,2,0v9a1,1,0,0,0,2,0V51a1.074,1.074,0,0,1,1-1,1,1,0,0,1,1,1v3a1,1,0,0,0,2,0V52a1,1,0,0,1,2,0v3a1,1,0,0,0,2,0V53a1,1,0,0,1,2,0v9h2V53a3.009,3.009,0,0,0-3-3,2.934,2.934,0,0,0-1.47.39,2.465,2.465,0,0,0-.32-.39H34v9a3.009,3.009,0,0,0,3,3H59a3.009,3.009,0,0,0,3-3V25A3.01,3.01,0,0,0,60,22.18ZM32,4H57a1,1,0,0,1,1,1V22H56V8a2.006,2.006,0,0,0-2-2H32ZM50,8v2.59l-.29-.3a1.014,1.014,0,0,0-1.42,0l-.29.3V8ZM30,48H18V46H30Zm0-34H28v2h2v4H28v2h2v4H28v2h2v4H28v2h2v4H28v2h2v4H17.82a2.988,2.988,0,0,0-5.64,0H8V8H30Zm0-8H8A2.006,2.006,0,0,0,6,8V44a2.006,2.006,0,0,0,2,2h4v2H5a1,1,0,0,1-1-1V5A1,1,0,0,1,5,4H30Zm4,42H32V46h2Zm0-4H32V40h2Zm0-6H32V34h2Zm0-6H32V28h2Zm0-7v1H32V22h2V20H32V16h2V14H32V8H46v5a.987.987,0,0,0,.62.92,1,1,0,0,0,1.09-.21L49,12.41l1.29,1.3A1.007,1.007,0,0,0,51,14a.838.838,0,0,0,.38-.08A.987.987,0,0,0,52,13V8h2V22H37A3.009,3.009,0,0,0,34,25ZM60,59a1,1,0,0,1-1,1H37a1,1,0,0,1-1-1V25a1,1,0,0,1,1-1H59a1,1,0,0,1,1,1Z"></path><path d="M56,26H40a2,2,0,0,0-2,2v6a2,2,0,0,0,2,2H56a2,2,0,0,0,2-2V28A2,2,0,0,0,56,26Zm0,8H40V28H56Z"></path><rect x="51" y="30" width="2" height="2"></rect><rect x="47" y="30" width="2" height="2"></rect><rect x="43" y="30" width="2" height="2"></rect><rect x="10" y="26" width="14" height="2"></rect><rect x="10" y="34" width="14" height="2"></rect><rect x="10" y="38" width="14" height="2"></rect><rect x="10" y="30" width="10" height="2"></rect><rect x="22" y="30" width="2" height="2"></rect><path d="M13.168,23.555A1,1,0,0,0,14,24a1.028,1.028,0,0,0,.147-.011,1,1,0,0,0,.811-.7L17.744,14H26V12H17a1,1,0,0,0-.958.713l-2.389,7.964-.821-1.232A1,1,0,0,0,12,19H10v2h1.465Z"></path><polygon points="23.121 16.465 21 18.586 18.879 16.465 17.465 17.879 19.586 20 17.465 22.121 18.879 23.535 21 21.414 23.121 23.535 24.535 22.121 22.414 20 24.535 17.879 23.121 16.465"></polygon></g></svg>