<svg xmlns="http://www.w3.org/2000/svg" viewBox="0 0 64 64" x="0px" y="0px"><g data-name="Shopping-Shopping Bag-Delivery-Commerce-Bag"><path d="M43,34H35a1,1,0,0,0-1,1v5h9Z"></path><path d="M60,40V35a1,1,0,0,0-1-1H51v6Z"></path><path d="M45,41.13l1.45-.96a.963.963,0,0,1,1.1,0l1.45.96V34H45Z"></path><path d="M34,59a1,1,0,0,0,1,1H59a1,1,0,0,0,1-1V42H51v1a.984.984,0,0,1-.53.88.977.977,0,0,1-1.02-.05L47,42.2l-2.45,1.63a.963.963,0,0,1-1.02.05A.984.984,0,0,1,43,43V42H34Zm14-6a1,1,0,0,1,1-1h8a1,1,0,0,1,1,1v4a1,1,0,0,1-1,1H49a1,1,0,0,1-1-1Z"></path><rect x="50" y="54" width="6" height="2"></rect><path d="M43,16H37v4a1,1,0,0,1-1,1H32a1,1,0,0,1-1-1V16H19v4a1,1,0,0,1-1,1H14a1,1,0,0,1-1-1V16H7a3.009,3.009,0,0,0-3,3V52H30v2H4v1a5,5,0,0,0,5,5H32.18A2.772,2.772,0,0,1,32,59V35H18a1,1,0,0,1-1-1V26a1,1,0,0,1,1-1H32a1,1,0,0,1,1,1v6.77A2.984,2.984,0,0,1,35,32H46V19A3.009,3.009,0,0,0,43,16ZM19,27v6H31V27Z"></path><path d="M33,4.17V19h2V7A3.014,3.014,0,0,0,33,4.17Z"></path><path d="M15,19h2V4.17A3.014,3.014,0,0,0,15,7Z"></path><rect x="19" y="4" width="12" height="2"></rect></g></svg>