<svg xmlns="http://www.w3.org/2000/svg" viewBox="0 0 64 64" x="0px" y="0px"><title>Businessman</title><g><path d="M44,27H37V26a3,3,0,0,0,3-3V11.9A5.009,5.009,0,0,0,44,7V3a1,1,0,0,0-1-1H31a5.006,5.006,0,0,0-5,5V8.184A3,3,0,0,0,24,11V23a3,3,0,0,0,3,3v1H20a9.01,9.01,0,0,0-9,9V61a1,1,0,0,0,1,1H52a1,1,0,0,0,1-1V36A9.01,9.01,0,0,0,44,27ZM28,7a3,3,0,0,1,3-3H42V7a3,3,0,0,1-3,3H28V7ZM26,23V11a1,1,0,0,0,1,1H38V23a1,1,0,0,1-1,1H27A1,1,0,0,1,26,23Zm9,3v5l-2.4-1.8a1,1,0,0,0-1.2,0L29,31V26ZM51,60H46V35H44V60H20V35H18V60H13V36a7.008,7.008,0,0,1,7-7h7v4a1,1,0,0,0,1.6.8L32,31.25l3.4,2.55a1.009,1.009,0,0,0,.268.14c.032.011.066.014.1.022a.942.942,0,0,0,.19.031c.015,0,.028.007.043.007s.031-.01.047-.011a1.018,1.018,0,0,0,.4-.094A1,1,0,0,0,37,33V29h7a7.008,7.008,0,0,1,7,7Z"></path><path d="M33,34H31a1,1,0,0,0-1,.947l-1,19a1,1,0,0,0,.292.76l2,2a1,1,0,0,0,1.414,0l2-2a1,1,0,0,0,.292-.76l-1-19A1,1,0,0,0,33,34ZM32,54.586l-.978-.978L31.949,36h.1l.927,17.608Z"></path><rect x="38" y="36" width="4" height="2"></rect></g></svg>