<svg xmlns="http://www.w3.org/2000/svg" viewBox="0 0 64 64" x="0px" y="0px"><g><path d="M59.493,38.735l-9.86-1.643-4.986-8.725a15.578,15.578,0,0,0,.654-1.735l3.864-.646A1,1,0,0,0,50,25V19a1,1,0,0,0-.835-.986L45.3,17.368a16.206,16.206,0,0,0-1.206-2.912l2.28-3.184a1,1,0,0,0-.106-1.289l-4.25-4.25a1,1,0,0,0-1.289-.106l-3.183,2.28A16.246,16.246,0,0,0,34.632,6.7l-.646-3.866A1,1,0,0,0,33,2H27a1,1,0,0,0-.986.835L25.368,6.7a16.206,16.206,0,0,0-2.912,1.206l-3.184-2.28a1,1,0,0,0-1.289.106l-4.25,4.25a1,1,0,0,0-.106,1.289l2.28,3.184A16.206,16.206,0,0,0,14.7,17.368l-3.866.646A1,1,0,0,0,10,19v6a1,1,0,0,0,.835.986l3.867.646c.109.361.228.7.351,1.025l-4.708,9.417-5.717.715A3,3,0,0,0,2,40.766V52a3,3,0,0,0,3,3H8.08a6.991,6.991,0,0,0,13.84,0H42.08a6.991,6.991,0,0,0,13.84,0H59a3,3,0,0,0,3-3V41.694A2.991,2.991,0,0,0,59.493,38.735ZM34,29h8.7l4.572,8H34Zm-2,8H18.348l2.392-8H32ZM29,22a1,1,0,1,1,1,1A1,1,0,0,1,29,22Zm3.7-1.285,2.958-2.958-1.414-1.414L31.285,19.3A2.951,2.951,0,0,0,30,19a3,3,0,0,0-3,3,2.966,2.966,0,0,0,.184,1H21V21h-.935a9.945,9.945,0,0,1,.828-3.1l.813.469,1-1.732-.813-.469a9.917,9.917,0,0,1,2.272-2.272l.469.813,1.732-1L25.9,12.9a9.975,9.975,0,0,1,3.1-.809V13h2v-.913a9.99,9.99,0,0,1,3.1.809l-.467.81,1.732,1,.469-.813a9.933,9.933,0,0,1,2.272,2.271l-.813.47,1,1.732.813-.469a9.965,9.965,0,0,1,.828,3.1H39v2h.942c-.005.054,0,.11-.009.164A5,5,0,0,0,38.679,23H32.816a2.856,2.856,0,0,0-.117-2.285ZM20.055,23.029l0-.029h.422C20.331,23,20.193,23.017,20.055,23.029ZM12,24.153V19.847l3.655-.611a1,1,0,0,0,.8-.732A14.237,14.237,0,0,1,17.952,14.9a1,1,0,0,0-.049-1.089L15.747,10.8l3.05-3.05L21.808,9.9a1,1,0,0,0,1.089.049A14.237,14.237,0,0,1,26.5,8.458a1,1,0,0,0,.732-.8L27.847,4h4.306l.611,3.655a1,1,0,0,0,.732.8A14.274,14.274,0,0,1,37.1,9.952,1,1,0,0,0,38.192,9.9L41.2,7.747l3.051,3.05L42.1,13.808a1,1,0,0,0-.049,1.089A14.239,14.239,0,0,1,43.543,18.5a1,1,0,0,0,.8.732L48,19.847v4.306l-3.655.611a1,1,0,0,0-.8.736c-.053.2-.126.4-.188.605l-.334-.585A4.967,4.967,0,0,0,41.8,24.1,11.834,11.834,0,0,0,42,22a11.989,11.989,0,0,0-6-10.395,12.228,12.228,0,0,0-12,0A11.992,11.992,0,0,0,18,22a12.362,12.362,0,0,0,.119,1.6,4.962,4.962,0,0,0-1.792,1.612,1,1,0,0,0-.672-.444ZM4,52V51H7V49H4V40.766a1,1,0,0,1,.876-.993l6.248-.781a1,1,0,0,0,.771-.545l5.894-11.789A2.982,2.982,0,0,1,20.472,25H38.679a3,3,0,0,1,2.6,1.512l.279.488H20.74a1.989,1.989,0,0,0-1.908,1.423l-2.4,7.989a1.974,1.974,0,0,0,.3,1.774A2,2,0,0,0,18.34,39H32V53H21.92A6.991,6.991,0,0,0,8.08,53H5A1,1,0,0,1,4,52Zm11,7a5,5,0,1,1,5-5A5.006,5.006,0,0,1,15,59Zm34,0a5,5,0,1,1,5-5A5.006,5.006,0,0,1,49,59Zm10-6H55.92a6.991,6.991,0,0,0-13.84,0H34V39H48.918l10.247,1.708a.989.989,0,0,1,.542.292H56a2,2,0,0,0-2,2v2a2,2,0,0,0,2,2h4v2H57v2h3v1A1,1,0,0,1,59,53Zm1-10v2H56V43Z"></path><rect x="36" y="41" width="4" height="2"></rect><rect x="19" y="41" width="4" height="2"></rect><rect x="14" y="53" width="2" height="2"></rect><rect x="48" y="53" width="2" height="2"></rect><path d="M23,22h2a5.006,5.006,0,0,1,5-5V15A7.008,7.008,0,0,0,23,22Z"></path></g></svg>