<svg xmlns="http://www.w3.org/2000/svg" viewBox="0 0 64 64" x="0px" y="0px"><g><path d="M61,13a1,1,0,0,0,1-1V8a1,1,0,0,0-1-1H50.64A3.007,3.007,0,0,0,47.7,9.411L42.18,37H40V32a3,3,0,0,0-3-3H15a3,3,0,0,0-3,3v5.09A6.006,6.006,0,0,0,7,43v4.09A6,6,0,1,0,12.461,57H40.73A7.913,7.913,0,0,0,46,59a8.02,8.02,0,0,0,7.738-6H59a3,3,0,0,0,3-3V44a7.008,7.008,0,0,0-7-7H48.211l4.615-24ZM14,32a1,1,0,0,1,1-1H37a1,1,0,0,1,1,1v5H14ZM8,57a4,4,0,1,1,3.923-4.787A3.737,3.737,0,0,1,12,53a3.924,3.924,0,0,1-.8,2.4A4.027,4.027,0,0,1,8,57Zm5.662-2c0-.015.007-.031.012-.046a5.894,5.894,0,0,0,.164-.634c.024-.108.061-.212.079-.322A6.1,6.1,0,0,0,14,53H38.261c.02.08.055.156.078.236.041.142.09.28.139.42.087.246.185.487.3.723.063.136.126.269.2.4.039.072.067.149.108.22ZM46,57a6,6,0,0,1-5.937-5.185,3.353,3.353,0,0,1-.045-.353c0-.042,0-.091-.007-.135,0-.083-.008-.169-.009-.261a6.615,6.615,0,0,1,.053-.838c.013-.1.027-.192.044-.286.025-.145.06-.285.094-.426A6.009,6.009,0,0,1,44.968,45.1c.164-.027.328-.054.492-.068.04,0,.082,0,.123-.006.193-.012.386-.018.578-.013.049,0,.1,0,.146.008.179.009.356.025.532.05.059.008.117.017.176.027.16.027.318.062.475.1.068.017.136.032.2.052.147.043.291.095.434.149.068.026.138.047.205.076a5.828,5.828,0,0,1,.54.261c.1.058.2.123.3.186.081.05.161.1.239.154.1.072.2.148.3.227.067.053.132.107.2.163.1.082.19.165.279.253.068.066.131.136.2.2s.156.165.229.252a5.983,5.983,0,0,1,.366.489c.029.043.053.089.08.132.091.145.179.292.258.443.026.052.05.1.075.158.073.149.14.3.2.455.021.055.041.109.06.164.056.158.1.317.146.479.014.056.03.112.043.168.039.167.067.337.091.507.008.053.019.105.025.159A6.033,6.033,0,0,1,52,51a4.672,4.672,0,0,1-.07.86A6.011,6.011,0,0,1,46,57ZM60,44v6a1,1,0,0,1-1,1H54a8.046,8.046,0,0,0-.054-.9c-.008-.071-.022-.141-.032-.212-.032-.228-.071-.454-.122-.675-.017-.076-.038-.15-.058-.225-.056-.217-.12-.43-.194-.639-.025-.073-.052-.145-.079-.217q-.121-.312-.267-.612c-.033-.068-.064-.137-.1-.2-.107-.207-.225-.407-.35-.6-.034-.054-.064-.11-.1-.163q-.231-.342-.493-.659c-.09-.108-.188-.208-.283-.311s-.187-.2-.286-.3-.232-.215-.352-.32c-.094-.081-.189-.161-.287-.238-.073-.057-.138-.122-.213-.177-.055-.041-.115-.072-.171-.111-.109-.076-.222-.146-.335-.216-.132-.082-.261-.167-.4-.241-.155-.085-.317-.158-.478-.233q-.289-.134-.588-.243c-.157-.058-.313-.117-.474-.165-.119-.035-.239-.063-.359-.093-.171-.042-.342-.081-.516-.112-.113-.02-.226-.037-.34-.052-.188-.026-.379-.043-.571-.055-.1-.007-.209-.014-.315-.016-.063,0-.125-.01-.189-.01-.148,0-.293.014-.439.022-.093.005-.185.006-.279.014-.2.019-.4.049-.6.082a8.747,8.747,0,0,0-1.254.284A7.718,7.718,0,0,0,38.3,48.875c-.06.214-.113.431-.154.652-.022.121-.04.243-.056.366A7.911,7.911,0,0,0,38,51H13.659c-.014-.04-.035-.075-.05-.115-.034-.091-.076-.177-.115-.266a5.805,5.805,0,0,0-.294-.591c-.053-.091-.1-.18-.162-.268a6.135,6.135,0,0,0-.406-.553c-.052-.062-.1-.128-.152-.189a5.97,5.97,0,0,0-.657-.635c-.049-.04-.1-.073-.153-.112a5.9,5.9,0,0,0-.6-.414c-.088-.052-.177-.1-.267-.147a6,6,0,0,0-.587-.271c-.093-.038-.185-.076-.28-.109a5.9,5.9,0,0,0-.78-.209c-.043-.009-.083-.023-.126-.03L9,47.084V43a4,4,0,0,1,4-4H55A5.006,5.006,0,0,1,60,44ZM51.018,11.812,46.174,37H44.22L49.659,9.8A1,1,0,0,1,50.64,9H60v2H52A1,1,0,0,0,51.018,11.812Z"></path><path d="M29,41H25a1,1,0,0,0-1,1v6a1,1,0,0,0,1,1h4a1,1,0,0,0,1-1V42A1,1,0,0,0,29,41Zm-1,6H26V43h2Z"></path><path d="M21,41H17a1,1,0,0,0-1,1v6a1,1,0,0,0,1,1h4a1,1,0,0,0,1-1V42A1,1,0,0,0,21,41Zm-1,6H18V43h2Z"></path><path d="M37,41H33a1,1,0,0,0-1,1v6a1,1,0,0,0,1,1h4a1,1,0,0,0,1-1V42A1,1,0,0,0,37,41Zm-1,6H34V43h2Z"></path><circle cx="8" cy="53" r="2"></circle><path d="M46,48a3,3,0,1,0,3,3A3,3,0,0,0,46,48Zm0,4a1,1,0,1,1,1-1A1,1,0,0,1,46,52Z"></path></g></svg>