<svg xmlns="http://www.w3.org/2000/svg" viewBox="0 0 64 64" x="0px" y="0px"><g data-name="Navigation Setting"><path d="M40.613,22.078,18.693,31.27a1,1,0,0,0,.19,1.9l9.954,1.99,1.99,9.954a1,1,0,0,0,.881.8c.034,0,.067,0,.1,0a1,1,0,0,0,.922-.613l9.192-21.92a1,1,0,0,0-1.309-1.309ZM22.477,31.852,36.7,25.889l-7.339,7.339Zm9.671,9.671-1.376-6.881L38.111,27.3Z"></path><path d="M61.124,26.008l-5.016-.627a24.8,24.8,0,0,0-2.378-5.75l3.1-3.988a1,1,0,0,0-.082-1.321L49.678,7.251a1,1,0,0,0-1.321-.082l-3.987,3.1a24.794,24.794,0,0,0-5.751-2.378l-.627-5.016A1,1,0,0,0,37,2H27a1,1,0,0,0-.992.876l-.627,5.016A24.794,24.794,0,0,0,19.63,10.27l-3.987-3.1a1,1,0,0,0-1.321.082L7.251,14.322a1,1,0,0,0-.082,1.321l3.1,3.988a24.8,24.8,0,0,0-2.378,5.75l-5.016.627A1,1,0,0,0,2,27V37a1,1,0,0,0,.876.992l5.016.628a24.841,24.841,0,0,0,2.378,5.75l-3.1,3.987a1,1,0,0,0,.082,1.321l7.071,7.071a1,1,0,0,0,1.321.082l3.987-3.1a24.812,24.812,0,0,0,5.751,2.378l.627,5.016A1,1,0,0,0,27,62H37a1,1,0,0,0,.992-.876l.627-5.016A24.812,24.812,0,0,0,44.37,53.73l3.987,3.1a1,1,0,0,0,1.321-.082l7.071-7.071a1,1,0,0,0,.082-1.321l-3.1-3.987a24.841,24.841,0,0,0,2.378-5.75l5.016-.628A1,1,0,0,0,62,37V27A1,1,0,0,0,61.124,26.008ZM60,36.117l-4.813.6a1,1,0,0,0-.848.755,22.83,22.83,0,0,1-2.67,6.454,1,1,0,0,0,.065,1.134l2.976,3.826L48.888,54.71l-3.826-2.976a1,1,0,0,0-1.134-.065,22.817,22.817,0,0,1-6.454,2.67,1,1,0,0,0-.755.848L36.117,60H27.883l-.6-4.813a1,1,0,0,0-.755-.848,22.817,22.817,0,0,1-6.454-2.67,1,1,0,0,0-1.134.065L15.112,54.71,9.29,48.888l2.976-3.826a1,1,0,0,0,.065-1.134,22.83,22.83,0,0,1-2.67-6.454,1,1,0,0,0-.848-.755L4,36.117V27.883l4.813-.6a1,1,0,0,0,.848-.755,22.842,22.842,0,0,1,2.67-6.454,1,1,0,0,0-.065-1.133L9.29,15.112,15.112,9.29l3.826,2.976a1,1,0,0,0,1.134.065,22.817,22.817,0,0,1,6.454-2.67,1,1,0,0,0,.755-.848L27.883,4h8.234l.6,4.813a1,1,0,0,0,.755.848,22.817,22.817,0,0,1,6.454,2.67,1,1,0,0,0,1.134-.065L48.888,9.29l5.822,5.822-2.976,3.827a1,1,0,0,0-.065,1.133,22.842,22.842,0,0,1,2.67,6.454,1,1,0,0,0,.848.755l4.813.6Z"></path><rect x="31" y="10" width="2" height="2"></rect><rect x="45.849" y="16.151" width="2" height="2" transform="translate(1.594 38.151) rotate(-45)"></rect><rect x="52" y="31" width="2" height="2"></rect><rect x="45.849" y="45.849" width="2" height="2" transform="translate(-19.406 46.849) rotate(-45)"></rect><rect x="31" y="52" width="2" height="2"></rect><rect x="16.151" y="45.849" width="2" height="2" transform="translate(-28.104 25.849) rotate(-45)"></rect><rect x="10" y="31" width="2" height="2"></rect><rect x="16.151" y="16.151" width="2" height="2" transform="translate(-7.104 17.151) rotate(-45)"></rect><path d="M32,14A18,18,0,1,0,50,32,18.021,18.021,0,0,0,32,14Zm0,34A16,16,0,1,1,48,32,16.019,16.019,0,0,1,32,48Z"></path></g></svg>