<svg xmlns="http://www.w3.org/2000/svg" viewBox="0 0 64 64" x="0px" y="0px"><g data-name="Payment-Credit Card-Hand-Ecommerce-Arrow up"><path d="M35,2H15a3.009,3.009,0,0,0-3,3V16.42L4.76,28.95A16.835,16.835,0,0,0,2.59,39.33l1.4,12.68L3,61.9l2,.2,1-10a1.477,1.477,0,0,0-.01-.21L4.57,39.11A14.908,14.908,0,0,1,6.5,29.95L12,20.42V33.39L10.44,36.1l1.73,1,5-8.66a2,2,0,1,1,3.46,2l-3.5,6.06a1.023,1.023,0,0,0-.06.87l1.29,3.21A9.149,9.149,0,0,1,19,43.93v1.3a9,9,0,0,1-1.28,4.63l-1.58,2.63A1,1,0,0,0,16,53v9h2V53.28l1.43-2.39A10.974,10.974,0,0,0,21,45.23v-1.3A11,11,0,0,0,20.27,40H35a3.009,3.009,0,0,0,3-3V5A3.009,3.009,0,0,0,35,2ZM25,38H19.48l-.37-.92,3.26-5.64a4,4,0,0,0-4.5-5.87,3.948,3.948,0,0,0-2.43,1.87L14,29.93V5a1,1,0,0,1,1-1H25Zm6,0H27V4h4Zm5-1a1,1,0,0,1-1,1H33V4h2a1,1,0,0,1,1,1Z"></path><rect x="21" y="6" width="2" height="2"></rect><rect x="21" y="10" width="2" height="2"></rect><rect x="21" y="14" width="2" height="2"></rect><rect x="21" y="18" width="2" height="2"></rect><rect x="21" y="22" width="2" height="2"></rect><rect x="17" y="6" width="2" height="14"></rect><path d="M51,9h2a1,1,0,0,1,1,1h2a3,3,0,0,0-3-3V6H51V7a3,3,0,0,0,0,6h2a1,1,0,0,1,0,2H51a1,1,0,0,1-1-1H48a3,3,0,0,0,3,3v1h2V17a3,3,0,0,0,0-6H51a1,1,0,0,1,0-2Z"></path><path d="M52,2A10,10,0,1,0,62,12,10.011,10.011,0,0,0,52,2Zm0,18a8,8,0,1,1,8-8A8.009,8.009,0,0,1,52,20Z"></path><path d="M52.707,26.293a1,1,0,0,0-1.414,0l-6,6A1,1,0,0,0,46,34h2V57h2V33a1,1,0,0,0-1-1h-.586L52,28.414,55.586,32H55a1,1,0,0,0-1,1V57h2V34h2a1,1,0,0,0,.707-1.707Z"></path><path d="M37.707,44.293a1,1,0,0,0-1.414,0l-6,6A1,1,0,0,0,31,52h2V62h2V51a1,1,0,0,0-1-1h-.586L37,46.414,40.586,50H40a1,1,0,0,0-1,1V62h2V52h2a1,1,0,0,0,.707-1.707Z"></path></g></svg>