<svg xmlns="http://www.w3.org/2000/svg" viewBox="0 0 64 64" x="0px" y="0px"><g data-name="Big Data-Data-Transfer-Cloud-Computing"><path d="M49,17h-.06A8.513,8.513,0,0,0,49,16a9.014,9.014,0,0,0-9-9,8.77,8.77,0,0,0-2.49.36A12.995,12.995,0,0,0,14,15a12.833,12.833,0,0,0,.17,2.03A10,10,0,0,0,15,37h1V49a3.009,3.009,0,0,0,3,3h8v4H26a3,3,0,0,0,0,6H38a3,3,0,0,0,0-6H37V52h8a3.009,3.009,0,0,0,3-3V37h1a10,10,0,0,0,0-20ZM38,58a1,1,0,0,1,0,2H26a1,1,0,0,1,0-2Zm-9-2V52h6v4Zm17-7a1,1,0,0,1-1,1H19a1,1,0,0,1-1-1V48H46Zm0-3H18V33a1,1,0,0,1,1-1h4v5c0,2.63,4.53,4,9,4s9-1.37,9-4V32h4a1,1,0,0,1,1,1ZM32,27a15.9,15.9,0,0,0,7-1.4V30c0,.58-2.45,2-7,2s-7-1.42-7-2V25.6A15.9,15.9,0,0,0,32,27Zm-7-4c0-.58,2.45-2,7-2s7,1.42,7,2-2.45,2-7,2S25,23.58,25,23Zm7,11a15.9,15.9,0,0,0,7-1.4V37c0,.58-2.45,2-7,2s-7-1.42-7-2V32.6A15.9,15.9,0,0,0,32,34Zm17,1H48V33a3.009,3.009,0,0,0-3-3H41V23c0-2.63-4.53-4-9-4s-9,1.37-9,4v7H19a3.009,3.009,0,0,0-3,3v2H15a8,8,0,0,1,0-16h.39a1,1,0,0,0,.79-.38.989.989,0,0,0,.18-.86A11.377,11.377,0,0,1,16,15,11,11,0,0,1,36.27,9.09a1,1,0,0,0,1.2.39A6.985,6.985,0,0,1,47,16a7.468,7.468,0,0,1-.23,1.76,1.022,1.022,0,0,0,.18.86,1,1,0,0,0,.79.38H49a8,8,0,0,1,0,16Z"></path><path d="M18,15h2a7.008,7.008,0,0,1,7-7V6A9.011,9.011,0,0,0,18,15Z"></path><path d="M51.4,32.5l-.8-1.833A4,4,0,0,0,53,27h2A6,6,0,0,1,51.4,32.5Z"></path><rect x="27" y="28" width="2" height="2"></rect><rect x="31" y="29" width="2" height="2"></rect><rect x="27" y="35" width="2" height="2"></rect><rect x="31" y="36" width="2" height="2"></rect><path d="M59.92,43.38A.987.987,0,0,1,59,44H58V55H56V43a1.011,1.011,0,0,1,.65-.94L55,40.41l-1.65,1.65A1.011,1.011,0,0,1,54,43v8H52V44H51a.987.987,0,0,1-.92-.62,1,1,0,0,1,.21-1.09l4-4a1.008,1.008,0,0,1,1.42,0l4,4A1,1,0,0,1,59.92,43.38Z"></path><rect x="56" y="57" width="2" height="2"></rect><rect x="52" y="53" width="2" height="2"></rect><path d="M13.71,50.71l-4,4a1.014,1.014,0,0,1-1.42,0l-4-4a1,1,0,0,1-.21-1.09A.987.987,0,0,1,5,49H6V40H8V50a1.011,1.011,0,0,1-.65.94L9,52.59l1.65-1.65A1.011,1.011,0,0,1,10,50V44h2v5h1a.987.987,0,0,1,.92.62A1,1,0,0,1,13.71,50.71Z"></path><rect x="10" y="40" width="2" height="2"></rect><rect x="6" y="36" width="2" height="2"></rect></g></svg>