<svg xmlns="http://www.w3.org/2000/svg" viewBox="0 0 64 64" x="0px" y="0px"><path d="M24,17.071v-1.1A4.977,4.977,0,0,0,26,12V11a1,1,0,0,0,1-1V8A6,6,0,0,0,15,8v2a1,1,0,0,0,1,1v1a4.977,4.977,0,0,0,2,3.974v1.1A7.011,7.011,0,0,0,12,24V34H7a1,1,0,0,0-1,1V45a1,1,0,0,0,1,1h8V56a3,3,0,0,0-3,3v2a1,1,0,0,0,1,1h6a1,1,0,0,0,.447-.1L21,61.118l1.553.777A1,1,0,0,0,23,62h6a1,1,0,0,0,1-1V59a3,3,0,0,0-3-3V36h2a1,1,0,0,0,1-1V24A7.011,7.011,0,0,0,24,17.071ZM17,8a4,4,0,0,1,8,0V9h-.172a1.009,1.009,0,0,1-.707-.293L22.707,7.293a1,1,0,0,0-1.414,0l-.828.829A2.983,2.983,0,0,1,18.343,9H17Zm1.343,3a4.968,4.968,0,0,0,3.536-1.464L22,9.415l.707.706A2.96,2.96,0,0,0,24,10.87V12a3,3,0,0,1-6,0V11ZM21,17a5,5,0,0,0,1-.1v.687l-1,1-1-1V16.9A5,5,0,0,0,21,17ZM19.637,36l-2.045,2H10.408L8.363,36ZM8,38.443l1.3,1.272A1,1,0,0,0,10,40h8a1,1,0,0,0,.7-.285L20,38.443V44H8ZM17,46h3V56H17Zm1.764,14H14V59a1,1,0,0,1,1-1h5v1.382ZM28,59v1H23.236L22,59.382V58h5A1,1,0,0,1,28,59Zm-6-3V36h3V56Zm6-22H27V23H25V34H17V23H15V34H14V24a4.991,4.991,0,0,1,4.624-4.962L20,20.414V30h2V20.414l1.376-1.376A4.991,4.991,0,0,1,28,24Z"></path><path d="M54,16a4,4,0,0,0-3-3.858V8A6,6,0,0,0,39,8v4.142a3.982,3.982,0,0,0-1.207,7.186A6.967,6.967,0,0,0,36,24V34H32a1,1,0,0,0-1,1V45a1,1,0,0,0,1,1h8V56H39a3,3,0,0,0-3,3v2a1,1,0,0,0,1,1h6a1,1,0,0,0,.447-.1L45,61.118l1.553.777A1,1,0,0,0,47,62h6a1,1,0,0,0,1-1V59a3,3,0,0,0-3-3H50V46h2a1,1,0,0,0,.986-1.165L51.514,36H53a1,1,0,0,0,1-1V24a6.967,6.967,0,0,0-1.793-4.672A3.961,3.961,0,0,0,54,16Zm-2,0A1.972,1.972,0,0,1,50.5,17.935a6.729,6.729,0,0,0-2.137-.8A1.964,1.964,0,0,1,48,16c0-.009,0-.019,0-.028a5.012,5.012,0,0,0,1.542-1.915A1.955,1.955,0,0,1,50,14,2,2,0,0,1,52,16Zm-9.657-5a4.968,4.968,0,0,0,3.536-1.464L46,9.415l.707.706A2.96,2.96,0,0,0,48,10.87V12a3,3,0,0,1-4.449,2.628.982.982,0,0,0-.114-.076,2.57,2.57,0,0,1-.551-.421,3,3,0,0,1-.732-1.2A2.822,2.822,0,0,1,42,12V11ZM43.9,16.866a4.649,4.649,0,0,0,2.208,0,3.926,3.926,0,0,0,.7,1.5,2.907,2.907,0,0,1-3.612,0A3.934,3.934,0,0,0,43.9,16.866ZM45,4a4,4,0,0,1,4,4V9h-.172a1.009,1.009,0,0,1-.707-.293L46.707,7.293a1.028,1.028,0,0,0-1.414,0l-.828.829A2.983,2.983,0,0,1,42.343,9H41V8A4,4,0,0,1,45,4ZM40,14a1.931,1.931,0,0,1,.446.054,5.068,5.068,0,0,0,1.018,1.484A4.774,4.774,0,0,0,42,15.99V16a1.964,1.964,0,0,1-.358,1.133,6.729,6.729,0,0,0-2.137.8A1.972,1.972,0,0,1,38,16,2,2,0,0,1,40,14Zm4.637,22-2.045,2H35.408l-2.045-2ZM33,44V38.443l1.3,1.272A1,1,0,0,0,35,40h8a1,1,0,0,0,.7-.285L45,38.443V44H33Zm9,2h2V56H42Zm.764,14H38V59a1,1,0,0,1,1-1h5v1.382ZM52,59v1H47.236L46,59.382V58h5A1,1,0,0,1,52,59Zm-4-3H46V46h2ZM47,44V35a1,1,0,0,0-1-1h3.153l1.666,10Zm5-10h-.82L51,32.917V23H49v9H41V23H39v9.92L38.822,34H38V24a4.978,4.978,0,0,1,2.267-4.183h0l.008,0a4.745,4.745,0,0,1,1.1-.536A4.18,4.18,0,0,0,45,21a4.18,4.18,0,0,0,3.629-1.724,4.745,4.745,0,0,1,1.1.536l.008,0h0A4.978,4.978,0,0,1,52,24Z"></path></svg>