<svg xmlns="http://www.w3.org/2000/svg" viewBox="0 0 64 64" x="0px" y="0px"><g data-name="Moon Rover"><path d="M29,14h2a8.009,8.009,0,0,0-8-8V8A6.006,6.006,0,0,1,29,14Z"></path><path d="M33,14h2A12.013,12.013,0,0,0,23,2V4A10.011,10.011,0,0,1,33,14Z"></path><path d="M53.92,54H57a1,1,0,0,0,1-1V52a4,4,0,0,1,0-8V42H45a3,3,0,0,1-3-3V28H7a3,3,0,0,0-3,3V53a1,1,0,0,0,1,1H6.08a6.991,6.991,0,0,1,13.84,0h1.16a6.991,6.991,0,0,1,13.84,0h5.16a6.991,6.991,0,0,1,13.84,0ZM36,40a2,2,0,0,1-2,2H8a2,2,0,0,1-2-2V32a2,2,0,0,1,2-2H34a2,2,0,0,1,2,2Z"></path><path d="M47,50a5,5,0,1,0,5,5A5.006,5.006,0,0,0,47,50Zm0,8a3,3,0,1,1,3-3A3,3,0,0,1,47,58Z"></path><path d="M28,50a5,5,0,1,0,5,5A5.006,5.006,0,0,0,28,50Zm0,8a3,3,0,1,1,3-3A3,3,0,0,1,28,58Z"></path><circle cx="28" cy="55" r="1"></circle><circle cx="13" cy="55" r="1"></circle><circle cx="47" cy="55" r="1"></circle><rect x="8" y="32" width="26.001" height="8"></rect><path d="M21.112,22.788a8.946,8.946,0,0,1-3.749-1.77L16.523,26h5.045Z"></path><path d="M45,40H57.959a4.963,4.963,0,0,0-.642-1.9l-3.861-6.632A7.037,7.037,0,0,0,47.41,28H44V39A1,1,0,0,0,45,40Z"></path><path d="M58,50V46a2,2,0,0,0,0,4Z"></path><path d="M23,12a1.979,1.979,0,0,0-.511.075l2.436,2.436A1.972,1.972,0,0,0,23,12Z"></path><path d="M18.048,18.954a7.032,7.032,0,0,0,9.146.654l-9.8-9.8A7.032,7.032,0,0,0,18.048,18.954Z"></path><path d="M13,50a5,5,0,1,0,5,5A5.006,5.006,0,0,0,13,50Zm0,8a3,3,0,1,1,3-3A3,3,0,0,1,13,58Z"></path></g></svg>