<svg xmlns="http://www.w3.org/2000/svg" viewBox="0 0 64 64" x="0px" y="0px"><g><path d="M61.964,35.692A4,4,0,0,0,56.8,33.4L52,35.239V18h2a1,1,0,0,0,.941-1.336l-5-14A1,1,0,0,0,49,2H17a1,1,0,0,0-.942.664l-5,14A1,1,0,0,0,12,18h2V37a1,1,0,0,0,1,1h1.241l-1.042.727a1,1,0,0,0-1.392-.247l-6.56,4.591A1,1,0,0,0,7,44.467L1.27,48.482a1,1,0,0,0-.246,1.393l8.03,11.468a1,1,0,0,0,.645.411.931.931,0,0,0,.174.016,1.007,1.007,0,0,0,.574-.181l5.734-4.016a1,1,0,0,0,.644.411A.942.942,0,0,0,17,58a1,1,0,0,0,.574-.181l6.55-4.59a1,1,0,0,0,.247-1.39l-.572-.817.006,0a9.6,9.6,0,0,1,7.04-1.921l1.789.28a13.1,13.1,0,0,0,6.694-.7l20.333-7.807a3.988,3.988,0,0,0,2.3-5.175ZM17.7,4H48.3l4.286,12H13.419ZM16,18H50V36H47.238a3.435,3.435,0,0,0-.228-.367,3.978,3.978,0,0,0-2.613-1.6l-.2-.032H47a1,1,0,0,0,1-1V26a4,4,0,0,0-8,0v7a.969.969,0,0,0,.07.345L38,33.017V25a1,1,0,0,0-1-1H29a1,1,0,0,0-1,1v7.405a19.817,19.817,0,0,0-2,.388V26a4,4,0,0,0-8,0v7a1,1,0,0,0,1,1h3.542a22.511,22.511,0,0,0-3.427,2H16ZM42,32V26a2,2,0,0,1,4,0v6Zm-6,.7-1.684-.267A20.6,20.6,0,0,0,30,32.211V26h6ZM24,32H20V26a2,2,0,0,1,4,0ZM10.119,59.377l-6.883-9.83,4.915-3.441,6.882,9.829Zm7.129-3.772L9.217,44.133l4.914-3.439L22.16,52.163ZM60.212,37.446A1.979,1.979,0,0,1,58.951,39L38.614,46.806a11.071,11.071,0,0,1-5.669.6l-1.787-.279a11.536,11.536,0,0,0-8.5,2.256h0l-6.312-9.015,3.3-2.3c.105-.08.22-.159.354-.249a18.546,18.546,0,0,1,5.025-2.664l.142-.047a18.069,18.069,0,0,1,3.94-.817A18.375,18.375,0,0,1,34,34.408l10.08,1.6a2,2,0,0,1,1.316.812,1.636,1.636,0,0,1,.268.544.882.882,0,0,1,.043.191c.005.034.012.068.02.1a1.714,1.714,0,0,1-.021.838,2,2,0,0,1-2.273,1.457L32.6,38.232l-.314,1.976,10.836,1.719a4.029,4.029,0,0,0,4.511-2.87l9.886-3.792a2,2,0,0,1,2.584,1.15A1.964,1.964,0,0,1,60.212,37.446Z"></path><rect x="16.982" y="50.429" width="2" height="2" transform="translate(-26.245 19.613) rotate(-34.998)"></rect><rect x="4" y="16" width="4" height="2"></rect><rect x="4.764" y="23" width="4.472" height="2" transform="translate(-9.994 5.664) rotate(-26.565)"></rect><rect x="6" y="7.764" width="2" height="4.472" transform="translate(-5.075 11.789) rotate(-63.435)"></rect><rect x="58" y="16" width="4" height="2"></rect><rect x="58" y="21.764" width="2" height="4.472" transform="translate(11.148 66.038) rotate(-63.435)"></rect><rect x="56.764" y="9" width="4.472" height="2" transform="translate(1.757 27.441) rotate(-26.565)"></rect></g></svg>