<svg xmlns="http://www.w3.org/2000/svg" viewBox="0 0 64 64" x="0px" y="0px"><g data-name="Digital Graphic-Graphic Editor-Tool-Edit Tools-Art"><rect x="38" y="13" width="4" height="28"></rect><polygon points="51.38 43 48.62 43 50 45.76 51.38 43"></polygon><rect x="48" y="15" width="4" height="26"></rect><polygon points="41.382 43 38.618 43 40 45.764 41.382 43"></polygon><path d="M4,46.54a5.976,5.976,0,0,1,8-.008V18a4,4,0,0,0-8,0Z"></path><rect x="48" y="9" width="4" height="4"></rect><polygon points="24 23 22 23 22 41.5 24 43 24 23"></polygon><path d="M60,19V55H8a4,4,0,1,1,4-4,1,1,0,0,0,2,0V19h6V42a1.014,1.014,0,0,0,.4.8L24,45.5V49h2V23h2V49h2V45.5l3.6-2.7A1.014,1.014,0,0,0,34,42V19h2V42a1,1,0,0,0,.11.45l3,6a1,1,0,0,0,1.78,0l3-6A1,1,0,0,0,44,42V19h2V42a1,1,0,0,0,.11.45l3,6a1,1,0,0,0,1.78,0l3-6A1,1,0,0,0,54,42V19h2v3h2V19Z"></path><rect x="22" y="19" width="10" height="2"></rect><path d="M41,10a1,1,0,0,0-2,0v1h2Z"></path><polygon points="32 41.5 32 23 30 23 30 43 32 41.5"></polygon><path d="M58,19H56V13H54V11h3a1,1,0,0,1,1,1Z"></path><path d="M28,11.185V9H26v2.185a3,3,0,1,0,2,0ZM28,15H26V13h2Z"></path></g></svg>