<svg xmlns="http://www.w3.org/2000/svg" viewBox="0 0 64 64" x="0px" y="0px"><g data-name="Hard Disk-Computer-Disk-Data-Storage"><path d="M11.414,56H52.586l-4-4H15.414ZM46,53h2v2H46Zm-4,0h2v2H42ZM24,53H40v2H24Zm-4,0h2v2H20Zm-4,0h2v2H16Z"></path><rect x="10" y="58" width="44" height="2"></rect><path d="M19,50H17V48a1,1,0,0,0-1-1H10a3,3,0,0,1,0-6h6a1,1,0,0,0,1-1V38h2v2a3,3,0,0,1-3,3H10a1,1,0,0,0,0,2h6a3,3,0,0,1,3,3Z"></path><path d="M26.134,20.769a1,1,0,0,0,1.732,1,18.128,18.128,0,0,0,.754-3.3A18.054,18.054,0,0,0,26.134,20.769Z"></path><path d="M21,29a1,1,0,0,0,1,1H42a1,1,0,0,0,1-1V5a1,1,0,0,0-1-1H22a1,1,0,0,0-1,1Zm20-1H35V26h6Zm0-4H35V22h6ZM39,6h2V8H39ZM32,6a7,7,0,1,1-1.591,13.814,12.377,12.377,0,0,1-.811,2.954,2.982,2.982,0,0,1-1.822,1.4,3.021,3.021,0,0,1-.781.1,3,3,0,0,1-2.593-4.5A12.941,12.941,0,0,1,26.654,17.5,6.988,6.988,0,0,1,32,6ZM23,6h2V8H23Z"></path><path d="M29.387,15.282a1,1,0,0,1,1.6.926c-.048.354-.132.939-.238,1.618A4.951,4.951,0,0,0,32,18a5.018,5.018,0,1,0-3.809-1.772C28.69,15.826,29.12,15.489,29.387,15.282ZM31,12h2v2H31Z"></path><path d="M11,35a1,1,0,0,0,1,1H52a1,1,0,0,0,1-1V32H11Zm36-2h2v2H47Z"></path><path d="M53,9V30H44.82A3,3,0,0,0,45,29V8h7A1,1,0,0,1,53,9Z"></path><path d="M19.18,30H11V9a1,1,0,0,1,1-1h7V29A3,3,0,0,0,19.18,30Z"></path><rect x="28" y="38" width="8" height="4"></rect><rect x="23" y="44" width="18" height="2"></rect></g></svg>