<svg xmlns="http://www.w3.org/2000/svg" viewBox="0 0 64 64" x="0px" y="0px"><g data-name="Business Card"><circle cx="32" cy="24" r="4"></circle><rect x="4" y="31" width="6" height="16"></rect><path d="M35.617,40.868,33.657,42H59a1,1,0,0,0,1-1V17a1,1,0,0,0-1-1H23a1,1,0,0,0-1,1V37H20V28H17.414L12,33.414V46H22.732L34.62,39.134a2.993,2.993,0,0,0,1.1-4.095,3.007,3.007,0,0,0-2.6-1.5,3.041,3.041,0,0,0-1.5.4L23.5,38.625l-1-1.731,8.12-4.69a5.019,5.019,0,0,1,6.837,1.838,4.995,4.995,0,0,1-1.84,6.826ZM32,30a6,6,0,1,1,6-6A6.006,6.006,0,0,1,32,30Zm24,4H48V32h8ZM46,20H56v2H46Zm-4,0h2v2H42Zm0,4H56v2H42Zm-2,8h6v2H40Zm0,4H56v2H40Z"></path></g></svg>