<svg xmlns="http://www.w3.org/2000/svg" viewBox="0 0 64 64" x="0px" y="0px"><g><path d="M42,15.781l-1.419-.355a1,1,0,0,1-.733-.75A5.948,5.948,0,0,0,39.07,12.8a1,1,0,0,1-.012-1.049l.754-1.256-.31-.31-1.256.754A1,1,0,0,1,37.2,10.93a5.948,5.948,0,0,0-1.873-.778,1,1,0,0,1-.75-.733L34.219,8h-.438l-.355,1.419a1,1,0,0,1-.75.733,5.948,5.948,0,0,0-1.873.778,1,1,0,0,1-1.049.012L28.5,10.188l-.31.31.754,1.256A1,1,0,0,1,28.93,12.8a5.948,5.948,0,0,0-.778,1.873,1,1,0,0,1-.733.75L26,15.781v.438l1.419.355a1,1,0,0,1,.733.75A5.948,5.948,0,0,0,28.93,19.2a1,1,0,0,1,.012,1.049L28.188,21.5l.31.31,1.256-.754a1,1,0,0,1,1.049.012,5.948,5.948,0,0,0,1.873.778,1,1,0,0,1,.75.733L33.781,24h.438l.355-1.419a1,1,0,0,1,.75-.733A5.948,5.948,0,0,0,37.2,21.07a1,1,0,0,1,1.049-.012l1.256.754.31-.31-.754-1.256A1,1,0,0,1,39.07,19.2a5.948,5.948,0,0,0,.778-1.873,1,1,0,0,1,.733-.75L42,16.219ZM34,20a4,4,0,1,1,4-4A4,4,0,0,1,34,20Z"></path><circle cx="34" cy="16" r="2"></circle><path d="M12,33a1,1,0,0,0,1,1H55a1,1,0,0,0,1-1V30H39v1a2,2,0,0,1-2,2H31a2,2,0,0,1-2-2V30H12Z"></path><rect x="31" y="30" width="6" height="1"></rect><path d="M53,5a1,1,0,0,0-1-1H16a1,1,0,0,0-1,1V28H53Zm-5.218,8.342-1.932.518-.517-1.932,1.931-.517ZM46.625,9.866l-1.733,1-1-1.732,1.733-1ZM43.192,5.394l1.414,1.414L43.192,8.222,41.778,6.808Zm-18.384,0,1.414,1.414L24.808,8.222,23.394,6.808Zm-2.433,2.74,1.733,1-1,1.732-1.733-1Zm-1.639,3.277,1.931.517L22.15,13.86l-1.932-.518ZM20,15h2v2H20Zm.218,3.658,1.932-.518.517,1.932-1.931.517Zm1.157,3.476,1.733-1,1,1.732-1.733,1Zm3.433,4.472-1.414-1.414,1.414-1.414,1.414,1.414Zm14.334-2.677-1.421-.853a7.932,7.932,0,0,1-1.349.56l-.4,1.606A1,1,0,0,1,35,26H33a1,1,0,0,1-.97-.758l-.4-1.606a7.932,7.932,0,0,1-1.349-.56l-1.421.853a1,1,0,0,1-1.222-.151l-1.414-1.414a1,1,0,0,1-.151-1.222l.853-1.421a7.932,7.932,0,0,1-.56-1.349l-1.606-.4A1,1,0,0,1,24,17V15a1,1,0,0,1,.758-.97l1.606-.4a7.932,7.932,0,0,1,.56-1.349l-.853-1.421a1,1,0,0,1,.151-1.222l1.414-1.414a1,1,0,0,1,1.222-.151l1.421.853a7.932,7.932,0,0,1,1.349-.56l.4-1.606A1,1,0,0,1,33,6h2a1,1,0,0,1,.97.758l.4,1.606a7.932,7.932,0,0,1,1.349.56l1.421-.853a1,1,0,0,1,1.222.151l1.414,1.414a1,1,0,0,1,.151,1.222l-.853,1.421a7.932,7.932,0,0,1,.56,1.349l1.606.4A1,1,0,0,1,44,15v2a1,1,0,0,1-.758.97l-1.606.4a7.932,7.932,0,0,1-.56,1.349l.853,1.421a1,1,0,0,1-.151,1.222l-1.414,1.414A1,1,0,0,1,39.142,23.929Zm4.05,2.677-1.414-1.414,1.414-1.414,1.414,1.414Zm2.433-2.74-1.733-1,1-1.732,1.733,1Zm1.639-3.277-1.931-.517.517-1.932,1.932.518ZM48,17H46V15h2Z"></path><path d="M60.4,39.818a1.948,1.948,0,0,0-.092-1.029,2.005,2.005,0,0,0-2.565-1.2l-9.961,3.625A4.011,4.011,0,0,1,43.235,44L32.426,42.1l.348-1.97,10.81,1.91a2,2,0,0,0,2.29-1.414,1.735,1.735,0,0,0,.042-.845,1.882,1.882,0,0,0-.327-.856,2.012,2.012,0,0,0-1.3-.826L34.247,36.325a19.059,19.059,0,0,0-8.846.542l-.183.05a18.922,18.922,0,0,0-5.313,2.6l-3.138,2.2,6.314,9.018a10.9,10.9,0,0,1,8.093-1.747l1.786.309a11,11,0,0,0,5.678-.494l20.47-7.45A1.97,1.97,0,0,0,60.4,39.818Z"></path><rect x="8.9" y="41.824" width="10" height="16" transform="translate(-26.064 16.983) rotate(-35)"></rect></g></svg>