<svg xmlns="http://www.w3.org/2000/svg" viewBox="0 0 64 64" x="0px" y="0px"><g><path d="M24,22.184A2.966,2.966,0,0,1,25,22H59a2.966,2.966,0,0,1,1,.184V21a1,1,0,0,0-1-1H25a1,1,0,0,0-1,1Z"></path><circle cx="51" cy="36" r="1"></circle><path d="M59,42a1,1,0,0,0,1-1V25a1,1,0,0,0-1-1H25a1,1,0,0,0-1,1V36.027l2-1.155V31a2,2,0,0,1,2-2H26V27a1,1,0,0,1,1-1h4v2H28v1h8.277a6.959,6.959,0,0,1,11.446,0H56V28H53V26h4a1,1,0,0,1,1,1v2H56a2,2,0,0,1,2,2V42Z"></path><path d="M15.414,28,10,33.414V46H22.732L34.62,39.134a2.993,2.993,0,0,0,1.1-4.095,3.007,3.007,0,0,0-2.6-1.5,3.041,3.041,0,0,0-1.5.4L23.5,38.625A1,1,0,0,1,22,37.76V28Z"></path><circle cx="47" cy="36" r="1"></circle><rect x="28" y="47" width="28" height="2"></rect><polygon points="28.462 45 56 45 56 43 31.925 43 28.462 45"></polygon><rect x="4" y="31" width="4" height="16"></rect><path d="M28,33.717,30.62,32.2a5.019,5.019,0,0,1,6.837,1.838,4.995,4.995,0,0,1-1.84,6.826L35.388,41H56V31H28ZM47,33a2.981,2.981,0,0,1,2,.78,3,3,0,1,1,0,4.44A3,3,0,1,1,47,33Z"></path><path d="M39.011,29h5.978a4.967,4.967,0,0,0-5.978,0Z"></path><path d="M39.293,8.293l1.414,1.414,3-3a1,1,0,0,0,0-1.414l-3-3L39.293,3.707,40.586,5H25V7H40.586Z"></path><path d="M24.707,52.707l-1.414-1.414-3,3a1,1,0,0,0,0,1.414l3,3,1.414-1.414L23.414,56H35V54H23.414Z"></path><path d="M48.707,55.707l-1.414-1.414-3,3a1,1,0,0,0,0,1.414l3,3,1.414-1.414L47.414,59H59V57H47.414Z"></path><path d="M34,11v2H49.586l-1.293,1.293,1.414,1.414,3-3a1,1,0,0,0,0-1.414l-3-3L48.293,9.707,49.586,11Z"></path></g></svg>