<svg xmlns="http://www.w3.org/2000/svg" viewBox="0 0 64 64" x="0px" y="0px"><g><path d="M21,30a7,7,0,1,0,7,7A7.008,7.008,0,0,0,21,30Zm0,6a2.993,2.993,0,0,1,1,5.816V43H20V41.816A3,3,0,0,1,18,39h2a1,1,0,1,0,1-1,2.993,2.993,0,0,1-1-5.816V31h2v1.184A3,3,0,0,1,24,35H22a1,1,0,1,0-1,1Z"></path><path d="M50,9h6V8a3,3,0,0,0-6,0Z"></path><rect x="10" y="53" width="50" height="2"></rect><rect x="10" y="57" width="50" height="2"></rect><path d="M60,23H58V40.469a3,3,0,0,1-.4,1.488l-2.868,5.02a2,2,0,0,1-3.472,0L48.4,41.957a2.993,2.993,0,0,1-.4-1.488V23H10V51H60ZM44,33h2v2H44ZM32,33H42v2H32ZM21,46a9,9,0,1,1,9-9A9.01,9.01,0,0,1,21,46Zm11-9H46v2H32ZM48,47a3.044,3.044,0,0,1-2.434-1.36c-.425-.512-.575-.64-.9-.64-.337,0-.5.156-.9.64a2.861,2.861,0,0,1-4.871,0c-.4-.485-.562-.641-.9-.641V43a3.049,3.049,0,0,1,2.437,1.36c.4.484.561.64.9.64s.5-.156.9-.641a2.86,2.86,0,0,1,4.869,0c.425.512.575.64.9.64Z"></path><rect x="4" y="53" width="4" height="6"></rect><polygon points="55.848 41 50.152 41 53 45.984 55.848 41"></polygon><rect x="4" y="23" width="4" height="28"></rect><rect x="50" y="14" width="6" height="25"></rect><rect x="50" y="11" width="6" height="1"></rect><path d="M47,18H45V10a1,1,0,0,1,1-1h2v2H47Z"></path></g></svg>