<svg xmlns="http://www.w3.org/2000/svg" viewBox="0 0 64 64" x="0px" y="0px"><g><circle cx="59" cy="55" r="2"></circle><circle cx="5" cy="55" r="2"></circle><circle cx="5" cy="30" r="2"></circle><circle cx="59" cy="30" r="2"></circle><circle cx="59" cy="44" r="2"></circle><circle cx="5" cy="44" r="2"></circle><circle cx="5" cy="16" r="2"></circle><circle cx="59" cy="16" r="2"></circle><path d="M31.432,37.606,31.78,39h.44l.348-1.394a1,1,0,0,1,.779-.739,6.9,6.9,0,0,0,2.559-1.057,1,1,0,0,1,1.073-.029l1.23.738.311-.31-.739-1.23a1,1,0,0,1,.029-1.073,6.928,6.928,0,0,0,1.057-2.56,1,1,0,0,1,.739-.779L41,30.219v-.438l-1.394-.348a1,1,0,0,1-.739-.779,6.928,6.928,0,0,0-1.057-2.56,1,1,0,0,1-.029-1.073l.739-1.23-.311-.31-1.23.738a1,1,0,0,1-1.073-.029,6.9,6.9,0,0,0-2.559-1.057,1,1,0,0,1-.779-.739L32.22,21h-.44l-.348,1.394a1,1,0,0,1-.779.739,6.9,6.9,0,0,0-2.559,1.057,1,1,0,0,1-1.073.029l-1.23-.738-.311.31.739,1.23a1,1,0,0,1-.029,1.073,6.928,6.928,0,0,0-1.057,2.56,1,1,0,0,1-.739.779L23,29.781v.438l1.394.348a1,1,0,0,1,.739.779,6.928,6.928,0,0,0,1.057,2.56,1,1,0,0,1,.029,1.073l-.739,1.23.311.31,1.23-.738a1,1,0,0,1,1.073.029,6.9,6.9,0,0,0,2.559,1.057A1,1,0,0,1,31.432,37.606ZM27,30a5,5,0,1,1,5,5A5.006,5.006,0,0,1,27,30Z"></path><circle cx="32" cy="30" r="3"></circle><polygon points="38.219 6 38.719 4 25.28 4 25.78 6 38.219 6"></polygon><path d="M17,60H47a1,1,0,0,0,1-1V56H39a1,1,0,0,1-.6-.2l-4-3A1,1,0,0,1,34,52V43h2v8.5L39.333,54H48V45H46a1,1,0,0,1-.707-.293l-5-5,1.414-1.414L46.414,43H48V31H45V29h3V17H46.414l-4.707,4.707-1.414-1.414,5-5A1,1,0,0,1,46,15h2V5a1,1,0,0,0-1-1H40.78l-.621,2.485A2,2,0,0,1,38.219,8H25.781a2,2,0,0,1-1.94-1.515L23.22,4H17a1,1,0,0,0-1,1V15h2a1,1,0,0,1,.707.293l5,5-1.414,1.414L17.586,17H16V29h3v2H16V43h1.586l4.707-4.707,1.414,1.414-5,5A1,1,0,0,1,18,45H16v9h8.667L28,51.5V43h2v9a1,1,0,0,1-.4.8l-4,3a1,1,0,0,1-.6.2H16v3A1,1,0,0,0,17,60ZM37,12h2v2H37Zm-4,0h2v2H33Zm-4,0h2v2H29Zm-4,0h2v2H25Zm4.64,26.684a8.868,8.868,0,0,1-2.114-.873l-1.376.825a1,1,0,0,1-1.221-.151l-1.414-1.414a1,1,0,0,1-.151-1.222l.825-1.375a8.951,8.951,0,0,1-.873-2.114l-1.558-.39A1,1,0,0,1,21,31V29a1,1,0,0,1,.758-.97l1.558-.39a8.951,8.951,0,0,1,.873-2.114l-.825-1.375a1,1,0,0,1,.151-1.222l1.414-1.414a1,1,0,0,1,1.221-.151l1.376.825a8.868,8.868,0,0,1,2.114-.873l.39-1.559A1,1,0,0,1,31,19h2a1,1,0,0,1,.97.757l.39,1.559a8.868,8.868,0,0,1,2.114.873l1.376-.825a1,1,0,0,1,1.221.151l1.414,1.414a1,1,0,0,1,.151,1.222l-.825,1.375a8.951,8.951,0,0,1,.873,2.114l1.558.39A1,1,0,0,1,43,29v2a1,1,0,0,1-.758.97l-1.558.39a8.951,8.951,0,0,1-.873,2.114l.825,1.375a1,1,0,0,1-.151,1.222l-1.414,1.414a1,1,0,0,1-1.221.151l-1.376-.825a8.868,8.868,0,0,1-2.114.873l-.39,1.559A1,1,0,0,1,33,41H31a1,1,0,0,1-.97-.757Z"></path><rect x="48" y="15" width="6" height="2"></rect><rect x="48" y="29" width="6" height="2"></rect><rect x="48" y="43" width="6" height="2"></rect><rect x="48" y="54" width="6" height="2"></rect><rect x="10" y="15" width="6" height="2"></rect><rect x="10" y="29" width="6" height="2"></rect><rect x="10" y="43" width="6" height="2"></rect><rect x="10" y="54" width="6" height="2"></rect></g></svg>