<svg xmlns="http://www.w3.org/2000/svg" viewBox="0 0 64 64" x="0px" y="0px"><g><path d="M61,2H53a1,1,0,0,0-1,1V5h-.985L44.2,2.081A.984.984,0,0,0,43.81,2H33.29a7.01,7.01,0,0,0-4.947,2.052L20.2,12.183a3.95,3.95,0,0,0-.618,4.887,3.991,3.991,0,0,0,.533.635A8.881,8.881,0,0,0,19,22a9,9,0,1,0,16.469-5h2.483c.716,2.4,3.932,4,6.854,4s6.137-1.6,6.853-4H52v2a1,1,0,0,0,1,1h8a1,1,0,0,0,1-1V3A1,1,0,0,0,61,2ZM35,22a7,7,0,0,1-14,0,6.9,6.9,0,0,1,1.244-3.974A6.982,6.982,0,0,1,27.81,15H28c.125,0,.247.016.372.022A3.91,3.91,0,0,0,31.806,17h1.078A6.985,6.985,0,0,1,35,22Zm15.806-7a1,1,0,0,0-1,1c0,1.514-2.477,3-5,3s-5-1.486-5-3a1,1,0,0,0-1-1h-7a2,2,0,1,1,0-4h11V9h-11a4,4,0,0,0-4,4h-.019a8.993,8.993,0,0,0-6.5,3.012c-.008-.011-.018-.02-.026-.032a1.963,1.963,0,0,1,.355-2.382L29.76,5.464A5,5,0,0,1,33.29,4H43.6l6.812,2.919A.985.985,0,0,0,50.81,7H52v8ZM60,18H54V4h6Z"></path><path d="M42.157,43.18,37,39.54V34a1,1,0,0,0-1-1H32a1,1,0,0,0-1,1v1.3l-4.424-3.122a1,1,0,0,0-1.152,0l-15.581,11A2.786,2.786,0,1,0,13.1,47.7L15,46.307V60a2,2,0,0,0,2,2H35a2,2,0,0,0,2-2V46.307L38.9,47.7a2.786,2.786,0,1,0,3.255-4.522ZM33,35h2v3.128l-2-1.411ZM21,60V54h4v6Zm14,0H27V53a1,1,0,0,0-1-1H20a1,1,0,0,0-1,1v7H17V44.84l9-6.6,9,6.6Zm6.2-14.108a.783.783,0,0,1-.517.337.773.773,0,0,1-.6-.14l-13.494-9.9a1,1,0,0,0-1.184,0l-13.494,9.9A.786.786,0,1,1,11,44.814l15-10.59L41,44.813A.784.784,0,0,1,41.2,45.892Z"></path><path d="M28,53v4a1,1,0,0,0,1,1h4a1,1,0,0,0,1-1V53a1,1,0,0,0-1-1H29A1,1,0,0,0,28,53Zm2,1h2v2H30Z"></path><path d="M22,46a4,4,0,1,0,4-4A4,4,0,0,0,22,46Zm6,0a2,2,0,1,1-2-2A2,2,0,0,1,28,46Z"></path><path d="M27,19h2a1,1,0,0,1,1,1h2a3,3,0,0,0-3-3V16H27v1a3,3,0,0,0,0,6h2a1,1,0,0,1,0,2H27a1,1,0,0,1-1-1H24a3,3,0,0,0,3,3v1h2V27a3,3,0,0,0,0-6H27a1,1,0,0,1,0-2Z"></path><path d="M58,44H48a2,2,0,0,0-2,2v2a1.92,1.92,0,0,0,.027.264A1.993,1.993,0,0,0,45,50v2a1.993,1.993,0,0,0,1.027,1.736A1.92,1.92,0,0,0,46,54v2a1.92,1.92,0,0,0,.027.264A1.993,1.993,0,0,0,45,58v2a2,2,0,0,0,2,2H57a2,2,0,0,0,2-2V58a1.92,1.92,0,0,0-.027-.264A1.993,1.993,0,0,0,60,56V54a1.993,1.993,0,0,0-1.027-1.736A1.92,1.92,0,0,0,59,52V50a1.92,1.92,0,0,0-.027-.264A1.993,1.993,0,0,0,60,48V46A2,2,0,0,0,58,44ZM48,46H58v2H48l0-2Zm9,6H47l0-2H57Zm1,2v2H48l0-2H58Zm-1,6H47l0-2H57Z"></path></g></svg>