<svg xmlns="http://www.w3.org/2000/svg" viewBox="0 0 64 64" x="0px" y="0px"><g data-name="Valve-Pipes-Industry-Gas Pipe-Water Pipe"><rect x="28" y="21" width="8" height="4"></rect><path d="M18,11v8H46V11H40v3a1,1,0,0,1-1,1H25a1,1,0,0,1-1-1V11Z"></path><rect x="41" y="38" width="2" height="12"></rect><rect x="21" y="38" width="2" height="12"></rect><path d="M60,50V38H51V50ZM54,40h4v2H54Z"></path><rect x="45" y="35" width="4" height="18"></rect><path d="M13,50V38H4V50ZM6,40H8v2H6Z"></path><rect x="15" y="35" width="4" height="18"></rect><path d="M42,29a2.006,2.006,0,0,0-2-2H24a2,2,0,0,0,0,4H40A2.006,2.006,0,0,0,42,29Z"></path><path d="M25,50H39V33H25Zm6-4h4v2H31Zm-4,0h2v2H27Z"></path></g></svg>