<svg xmlns="http://www.w3.org/2000/svg" viewBox="0 0 64 64" x="0px" y="0px"><g><path d="M61.9,51.553,56,39.764V8a3,3,0,0,0-3-3H11A3,3,0,0,0,8,8V39.764L2.105,51.553A1,1,0,0,0,2,52v4a3,3,0,0,0,3,3H59a3,3,0,0,0,3-3V52A1,1,0,0,0,61.9,51.553ZM40.618,51,38.9,47.553A1,1,0,0,0,38,47H26a1,1,0,0,0-.895.553L23.382,51H4.618l5-10H54.382l5,10Zm-2.236,0H25.618l1-2H37.382ZM10,8a1,1,0,0,1,1-1H53a1,1,0,0,1,1,1V39H10ZM59,57H5a1,1,0,0,1-1-1V53H60v3A1,1,0,0,1,59,57Z"></path><rect x="10" y="47" width="2" height="2"></rect><rect x="14" y="47" width="2" height="2"></rect><rect x="48" y="47" width="2" height="2"></rect><rect x="52" y="47" width="2" height="2"></rect><rect x="15" y="43" width="2" height="2"></rect><rect x="11" y="43" width="2" height="2"></rect><rect x="19" y="43" width="2" height="2"></rect><rect x="23" y="43" width="2" height="2"></rect><rect x="27" y="43" width="2" height="2"></rect><rect x="31" y="43" width="2" height="2"></rect><rect x="35" y="43" width="2" height="2"></rect><rect x="39" y="43" width="2" height="2"></rect><rect x="43" y="43" width="2" height="2"></rect><rect x="47" y="43" width="2" height="2"></rect><rect x="51" y="43" width="2" height="2"></rect><rect x="18" y="47" width="4" height="2"></rect><rect x="42" y="47" width="4" height="2"></rect><path d="M46.258,11.387a2,2,0,0,0-2.449-1.415l-5.8,1.553a1.966,1.966,0,0,0-.479.207A1.989,1.989,0,0,0,36,11H30a1.978,1.978,0,0,0-1,.278A1.978,1.978,0,0,0,28,11H22a1.978,1.978,0,0,0-1,.278A1.978,1.978,0,0,0,20,11H14a2,2,0,0,0-2,2V33a2,2,0,0,0,2,2h6a1.978,1.978,0,0,0,1-.278A1.978,1.978,0,0,0,22,35h6a1.978,1.978,0,0,0,1-.278A1.978,1.978,0,0,0,30,35h6a2,2,0,0,0,2-2V19.2l3.775,14.09a2,2,0,0,0,2.45,1.414l5.8-1.553h0a2,2,0,0,0,1.414-2.449ZM36,13V24H30V13ZM30,26h6v1H30ZM20,29H14V28h6Zm0-16V26H14V13ZM14,33V31h6v2Zm8,0V13h6V33Zm8,0V29h6v4Zm18.468-5.641-5.8,1.553-.259-.967,5.8-1.553ZM44.326,11.9l3.366,12.557-5.8,1.553L38.531,13.457Zm-.619,20.871-.518-1.932,5.8-1.553.518,1.932Z"></path><circle cx="25" cy="29" r="2"></circle></g></svg>