<svg xmlns="http://www.w3.org/2000/svg" viewBox="0 0 64 64" x="0px" y="0px"><g><path d="M57,2H19a3,3,0,0,0-3,3V24H4a2,2,0,0,0-2,2V48a2,2,0,0,0,2,2H16v9a3,3,0,0,0,3,3H57a3,3,0,0,0,3-3V5A3,3,0,0,0,57,2ZM49,4h2V8.586l-.293-.293a1,1,0,0,0-1.414,0L49,8.586ZM4,26H34v2H4Zm30,4v2H4V30ZM4,34H34V48H4ZM58,59a1,1,0,0,1-1,1H19a1,1,0,0,1-1-1V50H34a2,2,0,0,0,2-2V26a2,2,0,0,0-2-2H18V5a1,1,0,0,1,1-1H47v7a1,1,0,0,0,1.707.707L50,10.414l1.293,1.293A1,1,0,0,0,53,11V4h4a1,1,0,0,1,1,1Z"></path><rect x="32" y="16" width="4" height="2"></rect><rect x="38" y="16" width="16" height="2"></rect><rect x="22" y="20" width="6" height="2"></rect><rect x="30" y="20" width="6" height="2"></rect><rect x="38" y="20" width="16" height="2"></rect><rect x="22" y="52" width="22" height="2"></rect><rect x="46" y="52" width="8" height="2"></rect><rect x="38" y="24" width="16" height="2"></rect><rect x="38" y="28" width="16" height="2"></rect><rect x="38" y="32" width="16" height="2"></rect><rect x="38" y="36" width="16" height="2"></rect><rect x="38" y="40" width="16" height="2"></rect><rect x="38" y="44" width="16" height="2"></rect><rect x="38" y="48" width="16" height="2"></rect><path d="M27,11H25a1,1,0,0,1,0-2h2a1,1,0,0,1,1,1h2a3,3,0,0,0-3-3V6H25V7a3,3,0,0,0,0,6h2a1,1,0,0,1,0,2H25a1,1,0,0,1-1-1H22a3,3,0,0,0,3,3v1h2V17a3,3,0,0,0,0-6Z"></path><path d="M19,36a5,5,0,1,0,5,5A5.006,5.006,0,0,0,19,36Zm0,8a3,3,0,1,1,3-3A3,3,0,0,1,19,44Z"></path><path d="M6,37v3H8V38h2V36H7A1,1,0,0,0,6,37Z"></path><path d="M32,36H29v2h2v2h2V37A1,1,0,0,0,32,36Z"></path><path d="M8,42H6v3a1,1,0,0,0,1,1h3V44H8Z"></path><path d="M31,44H29v2h3a1,1,0,0,0,1-1V42H31Z"></path></g></svg>