<svg xmlns="http://www.w3.org/2000/svg" viewBox="0 0 64 64" x="0px" y="0px"><g><path d="M46,2H18a6.006,6.006,0,0,0-6,6V56a6.006,6.006,0,0,0,6,6H46a6.006,6.006,0,0,0,6-6V8A6.006,6.006,0,0,0,46,2Zm4,54a4,4,0,0,1-4,4H18a4,4,0,0,1-4-4V8a4,4,0,0,1,4-4H46a4,4,0,0,1,4,4Z"></path><path d="M34,52H30a3,3,0,0,0,0,6h4a3,3,0,0,0,0-6Zm0,4H30a1,1,0,0,1,0-2h4a1,1,0,0,1,0,2Z"></path><rect x="25" y="6" width="2" height="2"></rect><rect x="29" y="6" width="6" height="2"></rect><path d="M22.219,24.988c-.1.2-.2.406-.29.612l1.832.8a8.689,8.689,0,0,1,.5-.984,1,1,0,0,0-.06-1.11l-1.492-1.991,1.6-1.6,1.991,1.492a1,1,0,0,0,1.11.061,8.9,8.9,0,0,1,2.356-.977,1,1,0,0,0,.744-.827L30.867,18h2.266l.351,2.463a1,1,0,0,0,.744.827,8.9,8.9,0,0,1,2.356.977,1,1,0,0,0,1.11-.061l1.991-1.492,1.6,1.6L40.474,23.4l1.6,1.2,1.333-1.779a1,1,0,0,0-.093-1.306l-2.828-2.828a.994.994,0,0,0-1.306-.093l-2.167,1.625a10.9,10.9,0,0,0-1.639-.679l-.383-2.682A1,1,0,0,0,34,16H30a1,1,0,0,0-.99.858l-.383,2.682a10.86,10.86,0,0,0-1.639.679l-2.167-1.625a.992.992,0,0,0-1.306.093l-2.828,2.828a1,1,0,0,0-.093,1.306Z"></path><path d="M42.073,35.4l-1.6,1.2.812,1.085-1.6,1.6-1.991-1.492a1,1,0,0,0-1.11-.061,8.9,8.9,0,0,1-2.356.977,1,1,0,0,0-.744.827L33.133,42H30.867l-.351-2.463a1,1,0,0,0-.744-.827,8.9,8.9,0,0,1-2.356-.977,1,1,0,0,0-1.11.061l-1.991,1.492-1.6-1.6,1.492-1.991a1,1,0,0,0,.06-1.11,8.689,8.689,0,0,1-.5-.984l-1.832.8c.09.206.186.411.29.612l-1.625,2.167a1,1,0,0,0,.093,1.306l2.828,2.828a1,1,0,0,0,1.306.093l2.167-1.625a10.86,10.86,0,0,0,1.639.679l.383,2.682A1,1,0,0,0,30,44h4a1,1,0,0,0,.99-.858l.383-2.682a10.9,10.9,0,0,0,1.639-.679l2.167,1.625a1,1,0,0,0,1.306-.093l2.828-2.828a1,1,0,0,0,.093-1.306Z"></path><rect x="31" y="20" width="2" height="2"></rect><rect x="24.636" y="22.636" width="2" height="2" transform="translate(-9.204 25.05) rotate(-45)"></rect><rect x="24.636" y="35.364" width="2" height="2" transform="translate(-18.205 28.778) rotate(-45)"></rect><rect x="31" y="38" width="2" height="2"></rect><path d="M46,25H38.414l1.364-1.364-1.414-1.414L36.95,23.636,38.314,25H33a2,2,0,0,0-2,2v2H28.135A4,4,0,0,1,30.4,26.332L29.6,24.5A6,6,0,0,0,26.091,29H24V28a1,1,0,0,0-1-1H21a.984.984,0,0,0-.242.03l-4,1A1,1,0,0,0,16,29v2a1,1,0,0,0,.758.97l4,1A.984.984,0,0,0,21,33h2a1,1,0,0,0,1-1V31h2.091A6,6,0,0,0,29.6,35.5l.8-1.832A4,4,0,0,1,28.135,31H31v2a2,2,0,0,0,2,2h5.314L36.95,36.364l1.414,1.414,1.414-1.414L38.414,35H46a2,2,0,0,0,2-2V27A2,2,0,0,0,46,25ZM22,31h-.877L18,30.219v-.438L21.123,29H22Zm24-4v2H33V27ZM33,33V31H46v2Z"></path></g></svg>