<svg xmlns="http://www.w3.org/2000/svg" viewBox="0 0 64 64" x="0px" y="0px"><title>Book-Writing-Tool-Pencil-Education</title><g><path d="M61,15H58.785L60.6,11.858a3,3,0,0,0-5.2-3L54.165,11H36a3,3,0,0,0-3,3H31a3,3,0,0,0-3-3H7a1,1,0,0,0-1,1v3H3a1,1,0,0,0-1,1V54a1,1,0,0,0,1,1H29.184a2.982,2.982,0,0,0,5.632,0H61a1,1,0,0,0,1-1V16A1,1,0,0,0,61,15ZM40.18,39.331l1.639.946-2.238,1.985Zm2.686-.759-1.732-1,12-20.784,1.732,1Zm13-22.517-1.732-1,.5-.866,1.732,1Zm1.268-6.2a1,1,0,0,1,1.732,1l-1.5,2.6-1.732-1ZM35,14a1,1,0,0,1,1-1H53.01L38.4,38.3a1.026,1.026,0,0,0-.113.3l-1.267,6.2a1,1,0,0,0,1.642.948l4.733-4.2a1.008,1.008,0,0,0,.2-.248L56,19.824V49H36a2.966,2.966,0,0,0-1,.184ZM12,13h2v2.586l-.293-.293a1,1,0,0,0-1.414,0L12,15.586ZM8,13h2v5a1,1,0,0,0,1.707.707L13,17.414l1.293,1.293A1,1,0,0,0,16,18V13H28a1,1,0,0,1,1,1V49.184A2.966,2.966,0,0,0,28,49H8ZM4,17H6V50a1,1,0,0,0,1,1H28a1,1,0,0,1,1,1v1H4ZM33,54a1,1,0,0,1-2,0V16h2Zm27-1H35V52a1,1,0,0,1,1-1H57a1,1,0,0,0,1-1V17h2Z"></path><rect x="10" y="21" width="16" height="2"></rect><rect x="10" y="25" width="16" height="2"></rect><rect x="10" y="29" width="16" height="2"></rect><rect x="10" y="33" width="16" height="2"></rect><rect x="10" y="37" width="16" height="2"></rect><rect x="10" y="41" width="16" height="2"></rect><rect x="10" y="45" width="16" height="2"></rect><rect x="18" y="17" width="6" height="2"></rect><rect x="37" y="17" width="10" height="2"></rect><rect x="37" y="21" width="8" height="2"></rect><rect x="37" y="25" width="6" height="2"></rect><rect x="37" y="29" width="4" height="2"></rect></g></svg>