<svg xmlns="http://www.w3.org/2000/svg" viewBox="0 0 64 64" x="0px" y="0px"><g><circle cx="47" cy="45" r="1"></circle><path d="M47,40a5,5,0,1,0,5,5A5,5,0,0,0,47,40Zm0,8a3,3,0,1,1,3-3A3,3,0,0,1,47,48Z"></path><path d="M36,18.04V24h9.2l-.52-.83A10.933,10.933,0,0,0,36,18.04Z"></path><path d="M54.99,46A1,1,0,0,0,56,45.02a9.765,9.765,0,0,0-.15-1.7,9.071,9.071,0,0,0-8.04-7.28,8.931,8.931,0,0,0-6.89,2.32A9.063,9.063,0,0,0,38,45a1,1,0,0,0,1,1h1.08A6.634,6.634,0,0,1,40,45a7,7,0,0,1,14,0,6.634,6.634,0,0,1-.08,1Z"></path><path d="M56,38h-.5a11.936,11.936,0,0,1,1.17,1.73c.01-.01.02-.01.02-.02A.949.949,0,0,0,57,39,1,1,0,0,0,56,38Z"></path><path d="M57.47,41.6a10.4,10.4,0,0,1,.34,1.36A8.966,8.966,0,0,1,57.95,44H59a1,1,0,0,0,1-1V42A28.017,28.017,0,0,0,26.36,14.57a2.992,2.992,0,0,0-2.02,1.49l-4.92,8.85a3.062,3.062,0,0,1-2.04,1.48A17.081,17.081,0,0,0,4,43a1,1,0,0,0,1,1H6.05a11.106,11.106,0,0,1,.85-3.33A2,2,0,0,1,6,39V37a2.006,2.006,0,0,1,2-2h4.4a11.008,11.008,0,0,1,15.41,7.96A8.966,8.966,0,0,1,27.95,44h8.1a11,11,0,0,1,17.28-8H56a3.009,3.009,0,0,1,3,3,2.971,2.971,0,0,1-.89,2.13A2.931,2.931,0,0,1,57.47,41.6ZM34,30H30V28h4Zm13.87-4.52A.99.99,0,0,1,47,26H23a1,1,0,0,1-.89-1.45l3.44-6.89A2.992,2.992,0,0,1,28.24,16h7.11a12.911,12.911,0,0,1,11.02,6.11l1.48,2.36A.989.989,0,0,1,47.87,25.48Z"></path><circle cx="17" cy="45" r="1"></circle><path d="M24.99,46A1,1,0,0,0,26,45.02a9.765,9.765,0,0,0-.15-1.7,9.071,9.071,0,0,0-8.04-7.28,8.931,8.931,0,0,0-6.89,2.32A9.063,9.063,0,0,0,8,45a1,1,0,0,0,1,1h1.08A6.634,6.634,0,0,1,10,45a7,7,0,0,1,14,0,6.634,6.634,0,0,1-.08,1Z"></path><path d="M8,38.69A11.729,11.729,0,0,1,9.46,37H8Z"></path><path d="M17,40a5,5,0,1,0,5,5A5,5,0,0,0,17,40Zm0,8a3,3,0,1,1,3-3A3,3,0,0,1,17,48Z"></path><path d="M27.34,18.55,24.62,24H34V18H28.24A.992.992,0,0,0,27.34,18.55Z"></path><path d="M62,25l-3.13,3.91A27.682,27.682,0,0,0,56.5,25Z"></path></g></svg>