<svg xmlns="http://www.w3.org/2000/svg" viewBox="0 0 64 64" x="0px" y="0px"><g><path d="M44,7a2,2,0,1,0-2-2,2.015,2.015,0,0,0,2,2Z"></path><path d="M20,7a2.015,2.015,0,0,0,2-2,2,2,0,1,0-2,2Z"></path><polygon points="15.549 25.238 15.238 25.549 16.895 28.309 17.515 28.929 18.929 27.515 18.309 26.895 15.549 25.238"></polygon><path d="M27.414,33.172a2,2,0,0,1,2.828,0l1.206,1.206.935-.935a1.006,1.006,0,0,1,.846-.283A3.943,3.943,0,0,0,36.6,32.053a4.017,4.017,0,0,0,1.164-2.575l-1.16,1.159a1,1,0,0,1-1.024.241l-2.12-.71a1,1,0,0,1-.631-.631l-.71-2.12a1,1,0,0,1,.241-1.024l1.159-1.16A4.017,4.017,0,0,0,30.947,26.4a3.947,3.947,0,0,0-1.107,3.374,1,1,0,0,1-.283.846L25.794,34.38l.206.206Z"></path><circle cx="54" cy="38" r="2"></circle><path d="M23.172,37.414,24.586,36l-.206-.206-4.621,4.622a1,1,0,0,1-.952.423,3.974,3.974,0,0,0-3.41,1.108,4.017,4.017,0,0,0-1.164,2.575l1.16-1.159a1,1,0,0,1,1.024-.241l2.12.71a1,1,0,0,1,.631.631l.71,2.12a1,1,0,0,1-.241,1.024l-1.159,1.16A4.017,4.017,0,0,0,21.053,47.6a3.965,3.965,0,0,0,1.108-3.41,1,1,0,0,1,.47-1l1.747-1.747-1.206-1.206A2,2,0,0,1,23.172,37.414Z"></path><polygon points="24.586 38.828 34.485 48.728 35.899 47.313 27.414 38.828 28.828 37.414 37.313 45.899 38.729 44.484 28.828 34.586 24.586 38.828"></polygon><path d="M45,22H9a1,1,0,0,0-1,1V51a1,1,0,0,0,1,1H45a1,1,0,0,0,1-1V23A1,1,0,0,0,45,22ZM40.142,45.9,35.9,50.142a2,2,0,0,1-2.828,0l-7.279-7.28-1.6,1.6a5.918,5.918,0,0,1-1.729,4.558,6.053,6.053,0,0,1-6.435,1.357,1,1,0,0,1-.349-1.641l2.1-2.1L17.43,45.57l-1.061-.355-2.1,2.1a1,1,0,0,1-1.641-.349,6.047,6.047,0,0,1,1.357-6.435A5.986,5.986,0,0,1,18.541,38.8l4.425-4.424-4.037-4.037-.707.707a1,1,0,0,1-1.414,0l-1.414-1.414a.975.975,0,0,1-.151-.193l-2.121-3.535a1,1,0,0,1,.15-1.221l1.415-1.415a1,1,0,0,1,1.221-.15l3.535,2.121a.975.975,0,0,1,.193.151l1.414,1.414a1,1,0,0,1,0,1.414l-.707.707,4.037,4.037,3.429-3.429a5.91,5.91,0,0,1,1.724-4.554,6.052,6.052,0,0,1,6.435-1.357,1,1,0,0,1,.349,1.641l-2.1,2.1.355,1.061,1.061.355,2.1-2.1a1,1,0,0,1,1.641.349,6.047,6.047,0,0,1-1.357,6.435,5.926,5.926,0,0,1-4.554,1.724l-.6.6,7.28,7.279A2,2,0,0,1,40.142,45.9Z"></path><rect x="50" y="58" width="4" height="2"></rect><path d="M32,12a5.009,5.009,0,0,0-4.9,4h9.8A5.009,5.009,0,0,0,32,12Z"></path><path d="M60,21a3,3,0,0,0-3-3H7a3,3,0,0,0-3,3V53a3,3,0,0,0,3,3H57a3,3,0,0,0,3-3ZM48,51a3,3,0,0,1-3,3H9a3,3,0,0,1-3-3V23a3,3,0,0,1,3-3H45a3,3,0,0,1,3,3Zm9,1H51V50h6Zm0-4H51V46h6Zm-3-6a4,4,0,1,1,4-4A4,4,0,0,1,54,42Zm0-10a4,4,0,1,1,4-4A4,4,0,0,1,54,32Z"></path><rect x="10" y="58" width="4" height="2"></rect><circle cx="54" cy="28" r="2"></circle><path d="M41.98,8.44,37.6,12.82a6.377,6.377,0,0,0-1.42-1.42l4.38-4.38A3.725,3.725,0,0,0,41.98,8.44Z"></path><path d="M27.82,11.4a6.377,6.377,0,0,0-1.42,1.42L22.02,8.44a3.725,3.725,0,0,0,1.42-1.42Z"></path></g></svg>