<svg xmlns="http://www.w3.org/2000/svg" viewBox="0 0 64 64" x="0px" y="0px"><g data-name="Internet-World Wide Web"><path d="M16.878,41.879l1.415,1.414a1.023,1.023,0,0,1,1.414,0l1.415-1.414A3.072,3.072,0,0,0,16.878,41.879Z"></path><path d="M14.757,39.757l1.414,1.414a4.007,4.007,0,0,1,5.658,0l1.414-1.414A6.007,6.007,0,0,0,14.757,39.757Z"></path><path d="M12.636,37.636,14.05,39.05a7,7,0,0,1,9.9,0l1.414-1.414a9,9,0,0,0-12.728,0Z"></path><path d="M37,2a24.68,24.68,0,0,0-9.979,2.083A24.975,24.975,0,0,0,12,27a24.319,24.319,0,0,0,.2,3H9a3,3,0,0,0-3,3V46.807L2.071,56.628A1.012,1.012,0,0,0,2,57v3a2,2,0,0,0,2,2H34a2,2,0,0,0,2-2V57a1.012,1.012,0,0,0-.071-.372L34,51.811A24.547,24.547,0,0,0,37,52a24.016,24.016,0,0,0,4.165-.354A25,25,0,0,0,37,2ZM60,27a22.946,22.946,0,0,1-4.676,13.909L53,38.586V34a1,1,0,0,0-.293-.707L49,29.586V26.414l1.707-1.707A1,1,0,0,0,51,24V18a1,1,0,0,0-.293-.707l-5-5A1,1,0,0,0,45,12H40.414L37,8.586V4A23.026,23.026,0,0,1,60,27ZM14,27A22.975,22.975,0,0,1,27.605,6.019L30,8.414v3.172l-3.707,3.707A1,1,0,0,0,26,16v3.586L22.586,23H20a1,1,0,0,0-1,1v3a1,1,0,0,0,.293.707L21.586,30H14.218A22.221,22.221,0,0,1,14,27ZM8,33a1,1,0,0,1,1-1H29a1,1,0,0,1,1,1V46H8Zm25.414,0h7.172L45,37.414v3.172l-1.707,1.707A1,1,0,0,0,43,43v3.586l-2.707,2.707a.989.989,0,0,0-.248.481q-1,.136-2.045.181V47a1,1,0,0,0-.293-.707L36,44.586V41a1,1,0,0,0-1-1H32V34.414ZM24.781,56l-.811-3.243A1,1,0,0,0,23,52H15a1,1,0,0,0-.97.757L13.219,56H4.477l3.2-8H30.323l3.2,8Zm-2.062,0H15.281l.5-2h6.438ZM4,60V58H34v2ZM32,46.807V42h2v3a1,1,0,0,0,.293.707L36,47.414v2.54a22.088,22.088,0,0,1-2.863-.306ZM43.312,49.1l1.4-1.395A1,1,0,0,0,45,47V43.414l1.707-1.707A1,1,0,0,0,47,41V37a1,1,0,0,0-.293-.707l-5-5A1,1,0,0,0,41,31H33a1,1,0,0,0-.707.293l-.533.533A3,3,0,0,0,29,30H24.414L21,26.586V25h2a1,1,0,0,0,.707-.293l4-4A1,1,0,0,0,28,20V16.414l3.707-3.707A1,1,0,0,0,32,12V8a1,1,0,0,0-.293-.707L29.633,5.218A22.624,22.624,0,0,1,35,4.092V9a1,1,0,0,0,.293.707l4,4A1,1,0,0,0,40,14h4.586L49,18.414v5.172l-1.707,1.707A1,1,0,0,0,47,26v4a1,1,0,0,0,.293.707L51,34.414V39a1,1,0,0,0,.293.707l2.748,2.748A22.84,22.84,0,0,1,43.312,49.1Z"></path><path d="M43,17H37a1,1,0,0,0-1,1v2a1,1,0,0,0,.293.707L38,22.414V26a1,1,0,0,0,1,1h2a1,1,0,0,0,.707-.293l2-2A1,1,0,0,0,44,24V18A1,1,0,0,0,43,17Zm-1,6.586L40.586,25H40V22a1,1,0,0,0-.293-.707L38,19.586V19h4Z"></path></g></svg>