<svg xmlns="http://www.w3.org/2000/svg" viewBox="0 0 64 64" x="0px" y="0px"><g data-name="File Chart Travel Plan"><rect x="15" y="24" width="32" height="2"></rect><polygon points="53 46 53 43.414 48.045 38.459 43.459 43.045 46.414 46 53 46"></polygon><polygon points="40 42.414 36.414 46 43.586 46 40 42.414"></polygon><path d="M52.708,12.14,46,5.418V11a1,1,0,0,0,1,1h4v2H47a3,3,0,0,1-3-3V4H12a1,1,0,0,0-1,1V32H29v2H11v2h2v2H11v2H23v2H11v2H29v2H11V59a1,1,0,0,0,1,1H52a1,1,0,0,0,1-1V48H34a1,1,0,0,1-1-1V33a1,1,0,0,1,1-1H53V12.846A.992.992,0,0,0,52.708,12.14ZM29,42H25V40h4Zm0-4H15V36H29ZM19,8H39v2H19ZM15,8h2v2H15Zm0,4H39v2H15ZM49,27a1,1,0,0,1-1,1H14a1,1,0,0,1-1-1V23a1,1,0,0,1,1-1H48a1,1,0,0,1,1,1Z"></path><path d="M35,44.586l4.293-4.293a1,1,0,0,1,1.414,0l1.338,1.338,5.293-5.293a1,1,0,0,1,1.414,0L53,40.586V34H35Z"></path></g></svg>