<svg xmlns="http://www.w3.org/2000/svg" viewBox="0 0 64 64" x="0px" y="0px"><title>Conference</title><g><path d="M61,5H37.736A6.984,6.984,0,0,0,26.264,5H3A1,1,0,0,0,2,6V41a1,1,0,0,0,1,1H17V61a1,1,0,0,0,1,1H46a1,1,0,0,0,1-1V42H61a1,1,0,0,0,1-1V6A1,1,0,0,0,61,5ZM37,9A5,5,0,0,1,27,9c0-.1.024-.194.03-.292A7.052,7.052,0,0,0,29,9a6.93,6.93,0,0,0,4.357-1.522A7.012,7.012,0,0,0,36,8a7.126,7.126,0,0,0,.882-.058A4.985,4.985,0,0,1,37,9ZM15,35V33H49v2ZM32,18a2,2,0,0,1-1.731-1h3.462A2,2,0,0,1,32,18Zm-3.841-.945A4,4,0,0,0,31,19.858V31H26V24H24v7H22V24A7.007,7.007,0,0,1,28.159,17.055ZM42,31H40V24H38v7H33V19.858a4,4,0,0,0,2.841-2.8A7.007,7.007,0,0,1,42,24ZM35.955,5.976a5.129,5.129,0,0,1-1.121-.136,6.856,6.856,0,0,0,.374-.643A5.05,5.05,0,0,1,35.955,5.976ZM32,4a4.914,4.914,0,0,1,1.456.242,5.028,5.028,0,0,1-.976,1.344A4.935,4.935,0,0,1,29,7a5.006,5.006,0,0,1-1.455-.223A4.988,4.988,0,0,1,32,4ZM4,40V7H25.3a6.97,6.97,0,0,0,3.163,8.027A9,9,0,0,0,20,24v7H14a1,1,0,0,0-1,1v4a1,1,0,0,0,1,1h3v3ZM45,60H19V37H45ZM60,40H47V37h3a1,1,0,0,0,1-1V32a1,1,0,0,0-1-1H44V24a9,9,0,0,0-8.458-8.973A6.97,6.97,0,0,0,38.705,7H60Z"></path></g></svg>