<svg xmlns="http://www.w3.org/2000/svg" viewBox="0 0 64 64" x="0px" y="0px"><title>Audio-Book</title><g><rect x="22" y="55" width="2" height="2"></rect><rect x="15" y="6" width="2" height="2"></rect><rect x="19" y="6" width="2" height="2"></rect><path d="M26.515,31.143l-5-3A1,1,0,0,0,20,29v6a1,1,0,0,0,1.515.857l5-3a1,1,0,0,0,0-1.714ZM22,33.233V30.767L24.057,32Z"></path><path d="M59,17V16a1,1,0,0,0-1-1H56a3,3,0,0,0,0,6h2a1,1,0,0,0,1-1V19a1,1,0,0,1,1,1v6a3,3,0,0,1-3,3H52V7a1,1,0,0,1,1-1h1V7a1,1,0,0,0,1,1h2a3,3,0,0,0,0-6H55a1,1,0,0,0-1,1V4H53a3,3,0,0,0-3,3V56a3,3,0,0,1-6,0V36a5.009,5.009,0,0,0-4-4.9V7a5.006,5.006,0,0,0-5-5H11A5.006,5.006,0,0,0,6,7V57a5.006,5.006,0,0,0,5,5H35a5.006,5.006,0,0,0,5-5V33.184A3,3,0,0,1,42,36V56a5,5,0,0,0,10,0V31h5a5.006,5.006,0,0,0,5-5V20A3,3,0,0,0,59,17Zm-2,2H56a1,1,0,0,1,0-2h1ZM56,4h1a1,1,0,0,1,0,2H56ZM38,57a3,3,0,0,1-3,3H11a3,3,0,0,1-3-3V52H38Zm0-26H33V25a3,3,0,0,0-3-3H16a3,3,0,0,0-3,3V39a3,3,0,0,0,3,3H30a3,3,0,0,0,3-3V33h5V50H8V12H38Zm-7-6V39a1,1,0,0,1-1,1H16a1,1,0,0,1-1-1V25a1,1,0,0,1,1-1H30A1,1,0,0,1,31,25Zm7-15H8V7a3,3,0,0,1,3-3H35a3,3,0,0,1,3,3Z"></path></g></svg>