<svg xmlns="http://www.w3.org/2000/svg" viewBox="0 0 64 64" x="0px" y="0px"><title>Warning</title><g><path d="M44,2H20a5.006,5.006,0,0,0-5,5V57a5.006,5.006,0,0,0,5,5H44a5.006,5.006,0,0,0,5-5V7A5.006,5.006,0,0,0,44,2Zm0,58H20a3,3,0,0,1-3-3V12H43V10H17V7a3,3,0,0,1,3-3H44a3,3,0,0,1,3,3V50H21v2H47v5A3,3,0,0,1,44,60Z"></path><rect x="31" y="55" width="2" height="2"></rect><rect x="24" y="6" width="2" height="2"></rect><rect x="28" y="6" width="2" height="2"></rect><path d="M21,16h3V14H20a1,1,0,0,0-1,1v4h2Z"></path><path d="M44.99,41.5a1,1,0,0,0,0-1l-12.124-21a1.04,1.04,0,0,0-1.732,0L19.01,40.5a1,1,0,0,0,.866,1.5H44.124A1,1,0,0,0,44.99,41.5ZM21.608,40,32,22,42.392,40Z"></path><rect x="31" y="27" width="2" height="8"></rect><rect x="31" y="36" width="2" height="2"></rect></g></svg>