<svg xmlns="http://www.w3.org/2000/svg" viewBox="0 0 64 64" x="0px" y="0px"><g><path d="M57,10H43V7A5,5,0,0,0,33,7v3H19a3,3,0,0,0-3,3V30h2V13a1,1,0,0,1,1-1h7.111A7,7,0,0,0,24.3,15H22a2,2,0,0,0-2,2V30h2V17h2v2a1,1,0,0,0,1,1H51a1,1,0,0,0,1-1V17h2V55H33v2H54a2,2,0,0,0,2-2V17a2,2,0,0,0-2-2h-2.3a7,7,0,0,0-1.816-3H57a1,1,0,0,1,1,1V59a1,1,0,0,1-1,1H19a1,1,0,0,1-1-1H16a3,3,0,0,0,3,3H57a3,3,0,0,0,3-3V13A3,3,0,0,0,57,10Zm-7,7v1H26V17a5.006,5.006,0,0,1,5-5h3a1,1,0,0,0,1-1V7a3,3,0,0,1,6,0v4a1,1,0,0,0,1,1h3A5.006,5.006,0,0,1,50,17Z"></path><rect x="26" y="24" width="2" height="2"></rect><rect x="30" y="24" width="20" height="2"></rect><rect x="26" y="28" width="16" height="2"></rect><rect x="44" y="28" width="6" height="2"></rect><path d="M31,56V42.077l.371-.148A1,1,0,0,0,32,41V38a2,2,0,0,0-2-2H23V34a2,2,0,0,0-2-2H13a2,2,0,0,0-2,2v2H4a2,2,0,0,0-2,2v3a1,1,0,0,0,.629.929L3,42.077V56a2,2,0,0,0,2,2H29A2,2,0,0,0,31,56ZM13,34h8v2H13ZM4,40.323V38H30v2.323L20.808,44H13.192Zm1,2.554,7.629,3.052A1,1,0,0,0,13,46h8a1,1,0,0,0,.371-.071L29,42.877V56H5Z"></path><rect x="26" y="32" width="12" height="2"></rect><rect x="40" y="32" width="10" height="2"></rect><rect x="34" y="36" width="16" height="2"></rect><rect x="34" y="40" width="16" height="2"></rect><rect x="34" y="44" width="16" height="2"></rect><rect x="34" y="48" width="10" height="2"></rect><rect x="46" y="48" width="4" height="2"></rect><circle cx="38" cy="7" r="1"></circle></g></svg>