<svg xmlns="http://www.w3.org/2000/svg" viewBox="0 0 64 64" x="0px" y="0px"><g><path d="M15.8,13.42a3.346,3.346,0,0,0,1.914-.563,1.551,1.551,0,0,1,1.769,0,3.541,3.541,0,0,0,3.83,0,1.554,1.554,0,0,1,1.774,0A3.362,3.362,0,0,0,27,13.42v-2a1.419,1.419,0,0,1-.887-.278,3.547,3.547,0,0,0-3.832,0,1.419,1.419,0,0,1-.887.278,1.4,1.4,0,0,1-.885-.277,3.533,3.533,0,0,0-3.827,0,1.549,1.549,0,0,1-1.768,0A3.346,3.346,0,0,0,13,10.58v2a1.4,1.4,0,0,1,.884.277A3.345,3.345,0,0,0,15.8,13.42Z"></path><path d="M61.707,16.293l-10-10A1,1,0,0,0,51,6H32V8H50v7a3,3,0,0,0,3,3h7V53a3,3,0,0,1-3,3H37V41a12.921,12.921,0,0,0-2.619-7.793A9,9,0,0,0,31,17.221V13A11,11,0,0,0,9,13v4.221A9,9,0,0,0,5.619,33.207,12.921,12.921,0,0,0,3,41V61a1,1,0,0,0,1,1H36a1,1,0,0,0,1-1V58H57a5.006,5.006,0,0,0,5-5V17A1,1,0,0,0,61.707,16.293ZM4,26a7,7,0,0,1,6.123-6.948A1,1,0,0,0,11,18.06V13a9,9,0,0,1,18,0v5.06a1,1,0,0,0,.877.992A6.99,6.99,0,0,1,33.054,31.69,12.947,12.947,0,0,0,25,28.051V25.188A6,6,0,0,0,28,20V14H26v6a4,4,0,0,1-4,4H18a4,4,0,0,1-4-4V14H12v6a6,6,0,0,0,3,5.188v2.863A12.947,12.947,0,0,0,6.946,31.69,6.993,6.993,0,0,1,4,26Zm14,0h4a6,6,0,0,0,1-.09v2.74L20,32.4,17,28.65V25.91A6,6,0,0,0,18,26Zm-1.927,4.692,2.5,3.127-2.131,1.6-1.32-3.3ZM20,35.25l2.763,2.072L20,43.538l-2.763-6.216Zm3.556.167-2.131-1.6,2.5-3.127.949,1.425ZM35,60H31V50.447a8.417,8.417,0,0,0,0-10.894V38H29v2a1,1,0,0,0,.4.8c.9.679,1.6,2.815,1.6,4.2s-.7,3.522-1.6,4.2a1,1,0,0,0-.4.8V60H11V50a1,1,0,0,0-.4-.8C9.7,48.522,9,46.386,9,45s.7-3.522,1.6-4.2A1,1,0,0,0,11,40V38H9v1.553A8.417,8.417,0,0,0,9,50.447V60H5V41a11.013,11.013,0,0,1,9.005-10.81l-.837,1.255a1,1,0,0,0-.1.927l6.015,14.034a1,1,0,0,0,1.828,0l6.015-14.034a1,1,0,0,0-.1-.927L26,30.19A11.013,11.013,0,0,1,35,41ZM52,15V9.414L58.586,16H53A1,1,0,0,1,52,15Z"></path><path d="M56,29h1a1,1,0,0,0,.659-1.752l-8-7a1,1,0,0,0-1.318,0l-8,7A1,1,0,0,0,41,29h1v7a1,1,0,0,0,1,1H55a1,1,0,0,0,1-1Zm-7-6.671L54.338,27H43.662ZM48,35V33h2v2Zm6,0H52V32a1,1,0,0,0-1-1H47a1,1,0,0,0-1,1v3H44V29H54Z"></path><rect x="42" y="39" width="4" height="2"></rect><rect x="48" y="39" width="8" height="2"></rect><rect x="34" y="13" width="2" height="2"></rect><rect x="38" y="13" width="8" height="2"></rect><rect x="42" y="44" width="14" height="2"></rect><rect x="42" y="49" width="14" height="2"></rect><rect x="38" y="17" width="8" height="2"></rect><path d="M20,20a1,1,0,0,1-1-1H17a3,3,0,0,0,6,0H21A1,1,0,0,1,20,20Z"></path><circle cx="17" cy="15" r="1"></circle><circle cx="23" cy="15" r="1"></circle></g></svg>