<svg xmlns="http://www.w3.org/2000/svg" viewBox="0 0 64 64" x="0px" y="0px"><g data-name="Coffee Grinder-Mill-Grains-Coffee"><path d="M59.92,6.08A5.006,5.006,0,0,0,55,2H53a5.005,5.005,0,0,0-4.92,4.09,3.054,3.054,0,0,0,.28,1.87L51,13.24V14H46.25L35.48,8.12A1,1,0,0,0,35,8H21.28l.69-2.76a.978.978,0,0,0-.08-.69l-.1-.21a4.239,4.239,0,0,0-7.58,0l-.1.21a.978.978,0,0,0-.08.69L15,9.12V12H6a3,3,0,0,0-1,5.82v6.04a10.9,10.9,0,0,0,2.7,7.2L6,33.33a5.075,5.075,0,0,0-1,3V59a3.009,3.009,0,0,0,3,3H28a3.009,3.009,0,0,0,3-3V36.33a5.075,5.075,0,0,0-1-3l-1.7-2.27a10.9,10.9,0,0,0,2.7-7.2V17.82A3,3,0,0,0,30,12H21V10H34.75l10.77,5.88A1,1,0,0,0,46,16h5v1a1,1,0,0,0,1,1h4a1,1,0,0,0,1-1V13.24l2.64-5.28A3.074,3.074,0,0,0,59.92,6.08ZM18,4a2.235,2.235,0,0,1,1.94,1.12L19.22,8H16.78l-.72-2.88A2.235,2.235,0,0,1,18,4Zm1,6v2H17V10ZM29,59a1,1,0,0,1-1,1H8a1,1,0,0,1-1-1V38H29Zm-.6-24.47A3.027,3.027,0,0,1,28.97,36H7.03a3.027,3.027,0,0,1,.57-1.47L9.5,32h17ZM29,23.86A8.945,8.945,0,0,1,26.58,30H9.42A8.945,8.945,0,0,1,7,23.86V18H29ZM30,14a1,1,0,0,1,0,2H6a1,1,0,0,1,0-2Zm25,2H53V14h2Zm2.85-8.94L55.38,12H52.62L50.15,7.06a.957.957,0,0,1-.1-.61A2.993,2.993,0,0,1,53,4h2a2.993,2.993,0,0,1,2.95,2.45A.957.957,0,0,1,57.85,7.06Z"></path></g></svg>