<svg xmlns="http://www.w3.org/2000/svg" viewBox="0 0 64 64" x="0px" y="0px"><g><path d="M50,40a1,1,0,0,0,1-1V5a1,1,0,0,0-1-1H14a1,1,0,0,0-1,1V39a1,1,0,0,0,1,1ZM29,38H25V36h4Zm6,0H31V36h4Zm6,0H37V36h4Zm6,0H43V36h4ZM15,8a2,2,0,0,1,2-2H47a2,2,0,0,1,2,2V32a2,2,0,0,1-2,2H17a2,2,0,0,1-2-2Z"></path><path d="M6,46v2H9v.16l2.14-3.66A.987.987,0,0,1,12,44H52a.987.987,0,0,1,.86.5L55,48.16V48h3V46H55V44h3V42H6v2H9v2Z"></path><polygon points="58 52 58 50 56.07 50 57.24 52 58 52"></polygon><path d="M47,8H17V32H47ZM21,19H19V17h2Zm3-7H21v3H19V11a1,1,0,0,1,1-1h4Z"></path><path d="M12.57,46,6.74,56H57.26L51.43,46ZM12,54H10V52h2Zm31-6h2v2H43Zm-4,0h2v2H39Zm-4,0h2v2H35Zm-4,0h2v2H31Zm-4,0h2v2H27Zm-4,0h2v2H23Zm-4,0h2v2H19Zm-3,6H14V52h2Zm1-4H15V48h2Zm29,4H18V52H46Zm1-6h2v2H47Zm3,6H48V52h2Zm2-2h2v2H52Z"></path><polygon points="6 52 6.76 52 7.93 50 6 50 6 52"></polygon><rect x="6" y="58" width="52" height="2"></rect></g></svg>