<svg xmlns="http://www.w3.org/2000/svg" viewBox="0 0 48 48" x="0px" y="0px"><g data-name="Alcohol Drink"><path d="M12,15a1,1,0,0,1-1,1,5.006,5.006,0,0,0-5,5V43a1,1,0,0,0,1,1H21a1,1,0,0,0,1-1V21a5.006,5.006,0,0,0-5-5,1,1,0,0,1-1-1V7.951H12Zm8,26a1,1,0,0,1-1,1H16V40h2V38h2Zm0-18a1,1,0,0,1,1,1v8a1,1,0,0,1-1,1H8a1,1,0,0,1-1-1V24a1,1,0,0,1,1-1Z"></path><rect x="9" y="25" width="10" height="6"></rect><rect x="12" y="4" width="4" height="1.951"></rect><polygon points="41.939 29 28.061 29 28.59 38 41.41 38 41.939 29"></polygon><polygon points="41.057 44 41.292 40 28.708 40 28.943 44 41.057 44"></polygon></g></svg>