<svg xmlns="http://www.w3.org/2000/svg" viewBox="0 0 64 64" x="0px" y="0px"><g><circle cx="45" cy="45" r="1"></circle><path d="M45,30A15,15,0,1,0,60,45,15.018,15.018,0,0,0,45,30ZM34,46H32V44h2ZM44,32h2v2H44Zm2,26H44V56h2ZM45,48a3.01,3.01,0,0,1-2.82-2H38V44h4.18A3.035,3.035,0,0,1,44,42.18V36h2v6.18A3,3,0,0,1,45,48Zm11-2V44h2v2Z"></path><path d="M47,4H7A3.009,3.009,0,0,0,4,7v3H50V7A3.009,3.009,0,0,0,47,4ZM10,8H8V6h2Zm4,0H12V6h2Zm4,0H16V6h2ZM40,8H22V6H40Z"></path><path d="M4,12V47a3,3,0,0,0,3,3h3V12Z"></path><path d="M12,12V50H28.77A16.949,16.949,0,0,1,50,28.77V12ZM45,25a1,1,0,0,1-1,1H16a1,1,0,0,1-1-1V17a1,1,0,0,1,1-1H44a1,1,0,0,1,1,1Z"></path><rect x="17" y="18" width="26" height="6"></rect></g></svg>