<svg xmlns="http://www.w3.org/2000/svg" viewBox="0 0 48 48" x="0px" y="0px"><title>Cloud-Computing</title><g><path d="M24,0A24,24,0,1,0,48,24,24.028,24.028,0,0,0,24,0Zm0,46A22,22,0,1,1,46,24,22.025,22.025,0,0,1,24,46Z"></path><path d="M32.112,17.053A9.768,9.768,0,0,0,22.963,11a9.679,9.679,0,0,0-9.813,9.335A6.021,6.021,0,0,0,9,26a6.1,6.1,0,0,0,6.186,6H16V30h-.814A4.1,4.1,0,0,1,11,26a4.049,4.049,0,0,1,3.355-3.918,1,1,0,0,0,.813-1.036c-.01-.182-.02-.363-.02-.546A7.671,7.671,0,0,1,22.963,13a7.852,7.852,0,0,1,7.478,5.313,1,1,0,0,0,.937.7A5.63,5.63,0,0,1,37,24.5a5.616,5.616,0,0,1-5.3,5.483c-.147.008-.287.017-.436.017H31v2h.259c.186,0,.363-.01.59-.022A7.623,7.623,0,0,0,39,24.5,7.618,7.618,0,0,0,32.112,17.053Z"></path><path d="M24.535,28.121l-2.828-2.828a1,1,0,0,0-1.414,0l-2.828,2.828,1.414,1.414L20,28.414V36h2V28.414l1.121,1.121Z"></path><path d="M28,32.586V25H26v7.586l-1.121-1.121-1.414,1.414,2.828,2.828a1,1,0,0,0,1.414,0l2.828-2.828-1.414-1.414Z"></path></g></svg>