<svg xmlns="http://www.w3.org/2000/svg" viewBox="0 0 64 64" x="0px" y="0px"><g data-name="Advertising-Digital Marketing-Megaphone-Ecommerce-Website"><path d="M10,33.24v2.91l4,.67V34.93A7.9,7.9,0,0,1,10,33.24Z"></path><path d="M31,50V45.88l-1.54-.62L23,57.25V60h4.32l3.81-9.53A1.064,1.064,0,0,1,31,50Z"></path><path d="M29.83,43.25l1.17.47V42H30V40h1a1,1,0,0,0,0-2H29.65a.972.972,0,0,0-.8.4.985.985,0,0,0-.16.88Z"></path><path d="M21,60V46.09a5.018,5.018,0,0,0-2.09-4.07l-4.3-3.07-5.39-.9L5.33,40.64A3.008,3.008,0,0,0,4,43.14V60H8V46.16l-.95-2.84,1.9-.64,1,3A1.185,1.185,0,0,1,10,46V60Z"></path><path d="M60,12H10v1.29A7.268,7.268,0,0,1,12,13H22a1,1,0,0,1,1,1v2a5,5,0,0,1-1.68,3.74A4.028,4.028,0,0,1,23,23v4a8,8,0,0,1-7,7.93v2.56l4.07,2.91A6.968,6.968,0,0,1,23,46.09v6.94l4.93-9.15-1.16-4.06a2.956,2.956,0,0,1,.49-2.63,2.8,2.8,0,0,1,.69-.64A4.994,4.994,0,0,1,30,27h5.85L45,24.26V24a1,1,0,0,1,1-1h4a1,1,0,0,1,1,1V40a1,1,0,0,1-1,1H46a1,1,0,0,1-1-1v-.26l-5.12-1.53A2.9,2.9,0,0,1,40,39v4a3.009,3.009,0,0,1-3,3v4a1,1,0,0,1-1,1H33.08l-3.6,9H57a3.009,3.009,0,0,0,3-3ZM38.816,20a2.982,2.982,0,0,1-5.632,0H29V18h4.184a2.982,2.982,0,0,1,5.632,0H56v2ZM56.553,38.9l-4-2,.894-1.79,4,2ZM53,33V31h4v2Zm.447-4.105-.894-1.79,4-2,.894,1.79Z"></path><path d="M31,35V29H30a3,3,0,0,0,0,6Z"></path><path d="M9,21a2.006,2.006,0,0,1,2-2h7a3.009,3.009,0,0,0,3-3V15H12a5,5,0,0,0-5,5v2H8A1,1,0,0,0,9,21Z"></path><circle cx="36" cy="19" r="1"></circle><path d="M5.59,24.59A1.983,1.983,0,0,0,5,26a2.006,2.006,0,0,0,2,2H8.29a1.008,1.008,0,0,1,.96.71,5.811,5.811,0,0,0,.6,1.37,5.682,5.682,0,0,0,.91,1.16A5.928,5.928,0,0,0,15,33a6,6,0,0,0,6-6V23a2.006,2.006,0,0,0-2-2H11a3.009,3.009,0,0,1-3,3H7A1.983,1.983,0,0,0,5.59,24.59Z"></path><path d="M60,7a3.009,3.009,0,0,0-3-3H13a3.009,3.009,0,0,0-3,3v3H60ZM16,8H14V6h2Zm4,0H18V6h2Zm4,0H22V6h2Z"></path><path d="M33.78,37h-.56a2.387,2.387,0,0,1,.28.35A2.387,2.387,0,0,1,33.78,37Z"></path><path d="M33,49h2V45.82A3.01,3.01,0,0,1,33,43Z"></path><rect x="47" y="25" width="2" height="14"></rect><rect x="33" y="29" width="2" height="6"></rect><rect x="35" y="38" width="3" height="6" rx="1"></rect><polygon points="45 26.34 37 28.74 37 35.26 45 37.66 45 26.34"></polygon></g></svg>