<svg xmlns="http://www.w3.org/2000/svg" viewBox="0 0 64 64" x="0px" y="0px"><g data-name="World History"><path d="M7,36.111a6.978,6.978,0,0,1,4-2.031V19.1A5.009,5.009,0,0,0,7,24Z"></path><path d="M57,50H12a5,5,0,0,0,0,10H57V58H13a3,3,0,0,1,0-6H57Z"></path><path d="M7,50.105a6.988,6.988,0,0,1,4-2.025V36.1A5.009,5.009,0,0,0,7,41Z"></path><rect x="13" y="4" width="2" height="44"></rect><path d="M12,55a1,1,0,0,0,1,1H57V54H13A1,1,0,0,0,12,55Z"></path><path d="M7,19.111a6.978,6.978,0,0,1,4-2.031V4.1A5.009,5.009,0,0,0,7,9Z"></path><path d="M39,27v1a1,1,0,0,1-.293.707L38,29.414v1.354a8.965,8.965,0,0,0,3.888-1.977L39.649,27Z"></path><path d="M44.448,14.966A10.992,10.992,0,0,1,28.966,30.448l-1.418,1.418A12.99,12.99,0,0,0,49,22a12.885,12.885,0,0,0-3.139-8.447Z"></path><path d="M40,21.279,42.162,22H45a8.97,8.97,0,0,0-2.682-6.4L42,16.236V18a1,1,0,0,1-.553.895L40,19.618Z"></path><path d="M57,4H17V48H57ZM37,36.949V41h5v2H30V41h5V36.966a15.053,15.053,0,0,1-8.872-3.68l-1.441,1.441-1.414-1.415,1.439-1.438a14.955,14.955,0,0,1-1.7-2.373l1.73-1a13,13,0,0,0,1.394,1.955l1.42-1.42A10.992,10.992,0,0,1,43.034,13.552l1.413-1.413A13.436,13.436,0,0,0,42.7,10.856L43.73,9.144a15.245,15.245,0,0,1,2.145,1.566l1.437-1.437,1.415,1.415L47.3,12.119A14.995,14.995,0,0,1,37,36.949Z"></path><path d="M31.205,27H33v-.382L31.553,25.9A1,1,0,0,1,31,25V23a1,1,0,0,1,.445-.832L34,20.465V19.414l-.707-.707A1,1,0,0,1,33,18V15.333l-1.027-1.37A8.985,8.985,0,0,0,27.71,25.5Z"></path><path d="M35,15v2.586l.707.707A1,1,0,0,1,36,19v2a1,1,0,0,1-.445.832L33,23.535v.847l1.447.723A1,1,0,0,1,35,26v2a1,1,0,0,1-1,1H31a.985.985,0,0,1-.394-.081l-.669-.287A8.952,8.952,0,0,0,36,31V29a1,1,0,0,1,.293-.707L37,27.586V26a1,1,0,0,1,1-1h2a1,1,0,0,1,.625.219l2.621,2.1A8.942,8.942,0,0,0,44.768,24H42a1,1,0,0,1-.316-.052l-3-1A1,1,0,0,1,38,22V19a1,1,0,0,1,.553-.895L40,17.382V16a1,1,0,0,1,.1-.447l.6-1.208a8.856,8.856,0,0,0-6.773-1.1L34.8,14.4A1,1,0,0,1,35,15Z"></path></g></svg>