<svg xmlns="http://www.w3.org/2000/svg" viewBox="0 0 64 64" x="0px" y="0px"><g><circle cx="32" cy="18" r="2"></circle><polygon points="27.498 35 36.502 35 36.207 33 27.793 33 27.498 35"></polygon><path d="M45.26,53.51a4.086,4.086,0,0,0-.048-.617L40.769,22.82c-.035.064-.08.121-.117.183-.1.171-.208.334-.317.5-.132.2-.266.4-.412.588-.121.158-.25.308-.381.458-.157.18-.316.356-.486.525-.144.142-.293.278-.446.413-.178.156-.361.308-.551.452-.165.125-.333.245-.507.36-.1.065-.184.141-.283.2l4.423,29.934,1.97-.293C44.574,56.008,45.26,54.877,45.26,53.51Z"></path><path d="M33,8.051V4H31V8.051a9.829,9.829,0,0,1,2,0Z"></path><path d="M26.443,26.3c-.172-.114-.339-.232-.5-.356-.19-.145-.373-.3-.552-.454-.153-.135-.3-.271-.448-.415-.167-.167-.325-.34-.479-.518-.134-.153-.265-.306-.388-.466-.144-.187-.275-.381-.405-.577-.111-.168-.223-.334-.323-.509-.036-.061-.08-.117-.115-.18L18.789,52.887a4.1,4.1,0,0,0-.049.623c0,1.367.686,2.5,1.6,2.631l1.973.293L26.731,26.5C26.63,26.438,26.542,26.361,26.443,26.3Z"></path><path d="M39.924,19.106A8.1,8.1,0,0,0,40,18c0-.188-.009-.379-.026-.567V17.41a8,8,0,0,0-6.191-7.2c-.055-.013-.112-.017-.167-.029a7.813,7.813,0,0,0-3.386.027,8,8,0,0,0-6.2,7.206v.022h0c-.017.188-.026.379-.026.567a8,8,0,0,0,11.713,7.086l0,0a7.967,7.967,0,0,0,4.207-5.977ZM32,22a4,4,0,1,1,4-4A4,4,0,0,1,32,22Z"></path><rect x="18.862" y="58.549" width="4" height="2" transform="translate(-41.101 71.463) rotate(-81.577)"></rect><rect x="42.138" y="57.549" width="2" height="4" transform="translate(-8.245 6.949) rotate(-8.409)"></rect></g></svg>