<svg xmlns="http://www.w3.org/2000/svg" viewBox="0 0 64 64" x="0px" y="0px"><g><path d="M57,2H7A3,3,0,0,0,4,5V61a1,1,0,0,0,.684.949A1.014,1.014,0,0,0,5,62a1,1,0,0,0,.8-.4l3.706-4.936L13.213,61.6a1.035,1.035,0,0,0,1.6,0l3.7-4.933,3.7,4.933a1.037,1.037,0,0,0,1.6,0l3.7-4.933,3.7,4.933a1.035,1.035,0,0,0,1.6,0l3.7-4.933,3.7,4.933a1.035,1.035,0,0,0,1.6,0l3.7-4.933,3.7,4.933a1,1,0,0,0,1.6,0l3.7-4.933L58.2,61.6A1,1,0,0,0,60,61V5A3,3,0,0,0,57,2ZM48,4h4v6L50.8,8.4a1.036,1.036,0,0,0-1.6,0L48,10ZM58,58l-2.693-3.6a1,1,0,0,0-1.6,0l-3.7,4.933-3.7-4.933a1,1,0,0,0-1.6,0l-3.7,4.933-3.7-4.933a1.035,1.035,0,0,0-1.6,0l-3.7,4.933-3.7-4.933a1.036,1.036,0,0,0-1.6,0l-3.7,4.933-3.7-4.933a1,1,0,0,0-1.6,0l-3.7,4.934L10.306,54.4a1,1,0,0,0-1.6,0L6,58V5A1,1,0,0,1,7,4H46v9a1,1,0,0,0,1.8.6L50,10.667,52.2,13.6a1,1,0,0,0,.8.4,1.019,1.019,0,0,0,.316-.051A1,1,0,0,0,54,13V4h3a1,1,0,0,1,1,1Z"></path><rect x="10" y="14" width="30" height="2"></rect><rect x="10" y="10" width="8" height="2"></rect><rect x="20" y="10" width="20" height="2"></rect><rect x="10" y="20" width="26" height="2"></rect><rect x="38" y="20" width="16" height="2"></rect><rect x="10" y="24" width="32" height="2"></rect><rect x="44" y="24" width="10" height="2"></rect><rect x="10" y="28" width="44" height="2"></rect><rect x="10" y="32" width="26" height="2"></rect><rect x="38" y="32" width="6" height="2"></rect><rect x="46" y="32" width="8" height="2"></rect><rect x="10" y="36" width="20" height="2"></rect><rect x="32" y="36" width="22" height="2"></rect><rect x="10" y="40" width="8" height="2"></rect><rect x="20" y="40" width="22" height="2"></rect><rect x="44" y="40" width="10" height="2"></rect><rect x="10" y="44" width="28" height="2"></rect><rect x="40" y="44" width="14" height="2"></rect><rect x="10" y="48" width="38" height="2"></rect><rect x="50" y="48" width="4" height="2"></rect></g></svg>