<svg xmlns="http://www.w3.org/2000/svg" viewBox="0 0 64 64" x="0px" y="0px"><g><path d="M60.062,28.786A4.987,4.987,0,0,0,56.232,27H56V13a5.006,5.006,0,0,0-5-5H25.7L24.335,4.218A3,3,0,0,0,21.438,2H7A5.006,5.006,0,0,0,2,7V61a1,1,0,0,0,.02.107,1.031,1.031,0,0,0,.024.135.992.992,0,0,0,.123.285c.015.022.016.05.032.072s.017.011.023.019a1.01,1.01,0,0,0,.316.265c.026.013.055.016.082.027a.988.988,0,0,0,.237.08A.982.982,0,0,0,3,62H55a1,1,0,0,0,.984-.82l5.171-28.3v-.006A4.986,4.986,0,0,0,60.062,28.786ZM7,4H21.438a1,1,0,0,1,.971.758c.008.033.018.065.029.1L24.06,9.34A1,1,0,0,0,25,10H51a3,3,0,0,1,3,3V27H49V21a2.133,2.133,0,0,0-.064-.32c-.011-.032-.019-.063-.033-.094a1,1,0,0,0-.2-.293l-8-8a.97.97,0,0,0-.294-.2c-.03-.014-.06-.022-.091-.033A2.224,2.224,0,0,0,40,12H18a5.006,5.006,0,0,0-5,5V33h-.523a2.99,2.99,0,0,0-2.871,2.128L4,54.09V7A3,3,0,0,1,7,4ZM41,15.414,45.586,20H42a1,1,0,0,1-1-1ZM42,22h5v5H38.386A3.013,3.013,0,0,0,35.6,28.879L33.4,33H15V17a3,3,0,0,1,3-3H39v5A3,3,0,0,0,42,22ZM59.187,32.519,54.166,60H4.339l7.182-24.294A1,1,0,0,1,12.477,35H34a1,1,0,0,0,.882-.529l2.513-4.7a.918.918,0,0,0,.054-.12A1.007,1.007,0,0,1,38.386,29H56.232a3,3,0,0,1,2.955,3.519Z"></path><rect x="19" y="18" width="4" height="2"></rect><rect x="25" y="18" width="8" height="2"></rect><rect x="19" y="22" width="14" height="2"></rect><rect x="19" y="26" width="16" height="2"></rect><rect x="35" y="22" width="2" height="2"></rect></g></svg>