<svg xmlns="http://www.w3.org/2000/svg" viewBox="0 0 64 64" x="0px" y="0px"><g data-name="Car Camera"><path d="M55,15H9a7.009,7.009,0,0,0-7,7V42a7.009,7.009,0,0,0,7,7H55a7.009,7.009,0,0,0,7-7V22A7.009,7.009,0,0,0,55,15Zm5,27a5.006,5.006,0,0,1-5,5H9a5.006,5.006,0,0,1-5-5V22a5.006,5.006,0,0,1,5-5H55a5.006,5.006,0,0,1,5,5Z"></path><path d="M21,23a9,9,0,1,0,9,9A9.01,9.01,0,0,0,21,23Zm0,16a7,7,0,1,1,7-7A7.009,7.009,0,0,1,21,39Z"></path><path d="M46,28H33.364a13,13,0,1,0,0,8H46a4,4,0,0,0,0-8ZM21,43A11,11,0,1,1,32,32,11.013,11.013,0,0,1,21,43Zm26.413-9.587A1.986,1.986,0,0,1,46,34H33.83a11.85,11.85,0,0,0,0-4H46a2,2,0,0,1,1.413,3.413Z"></path><rect x="35" y="40" width="4" height="2"></rect><rect x="41" y="40" width="4" height="2"></rect><rect x="37" y="21" width="6" height="2"></rect><path d="M56,42a1,1,0,0,1-1,1H52v2h3a3,3,0,0,0,3-3V41H56Z"></path><rect x="56" y="37" width="2" height="2"></rect><path d="M21,28a4,4,0,1,0,4,4A4,4,0,0,0,21,28Zm0,6a2,2,0,1,1,2-2A2,2,0,0,1,21,34Z"></path></g></svg>