<svg xmlns="http://www.w3.org/2000/svg" viewBox="0 0 64 64" x="0px" y="0px"><g data-name="Cloud Document"><circle cx="53" cy="29" r="1"></circle><path d="M54,12h4.731L53,5.615V11A1,1,0,0,0,54,12Z"></path><path d="M54,14a3.009,3.009,0,0,1-3-3V4H23a1,1,0,0,0-1,1v5H20V8H19a1,1,0,0,0-1,1v3.24A8.236,8.236,0,0,1,20,12a9.015,9.015,0,0,1,8.99,8.52,8.993,8.993,0,0,1,11.35,5.1l-1.85.76a6.989,6.989,0,0,0-10.07-3.39.99.99,0,0,1-1.06-.02,1.03,1.03,0,0,1-.44-.98A7.691,7.691,0,0,0,27,21a7,7,0,1,0-13.67,2.12,1.014,1.014,0,0,1-.26,1.02.987.987,0,0,1-1.03.22c-.01,0-.03-.01-.04-.01A6,6,0,1,0,9.14,35.94L11,36V27h2v9h9v2H18v4h6V30h2V42H42v2H26v5H39v2H25a1,1,0,0,1-1-1V44H18V59a1,1,0,0,0,1,1H56a1,1,0,0,0,1-1V58H23a3.009,3.009,0,0,1-3-3V46h2v9a1,1,0,0,0,1,1H59a1,1,0,0,0,1-1V14ZM26,28H24V26h2ZM30,8h8v2H30Zm0,6V12H42v2Zm2,24H28V36h4a6.965,6.965,0,0,0,6.49-4.38l1.85.76A8.958,8.958,0,0,1,32,38Zm4-8V28H48v2Zm7,21H41V49h2Zm1-9h2v2H44Zm3,9H45V49h2Zm3-7H48V42h2Zm3-12a3,3,0,1,1,3-3A3.009,3.009,0,0,1,53,32Z"></path><polygon points="13 42 13 38 11 38 11 42 11 44 13 44 16 44 16 42 13 42"></polygon></g></svg>