<svg xmlns="http://www.w3.org/2000/svg" viewBox="0 0 64 64" x="0px" y="0px"><g><path d="M25,32H39a2,2,0,0,0,2-2V23a7.02,7.02,0,0,0-7-7H30a7.02,7.02,0,0,0-7,7v7A2,2,0,0,0,25,32Zm14-9v7H33v-5.8l2.545-5.949A4.965,4.965,0,0,1,39,23Zm-5.521-5L32,21.457,30.521,18ZM25,23a4.965,4.965,0,0,1,3.455-4.744L31,24.205V30H25Z"></path><rect x="35" y="22" width="2" height="2"></rect><path d="M37,11V9a1,1,0,0,0,1-1V7a5.006,5.006,0,0,0-5-5H31a5.006,5.006,0,0,0-5,5V8a1,1,0,0,0,1,1v2a5,5,0,0,0,10,0ZM31,4h2a3,3,0,0,1,3,3H32.236l-1.789-.895a1,1,0,0,0-1.154.188L28.586,7H28A3,3,0,0,1,31,4Zm1,10a3,3,0,0,1-3-3V9a1,1,0,0,0,.707-.293l.49-.49,1.356.678A1,1,0,0,0,32,9h3v2A3,3,0,0,1,32,14Z"></path><path d="M32,44a9,9,0,1,0,9,9A9.01,9.01,0,0,0,32,44Zm0,16a7,7,0,1,1,7-7A7.008,7.008,0,0,1,32,60Z"></path><path d="M31,50h2a1,1,0,0,1,1,1h2a3,3,0,0,0-3-3V47H31v1a3,3,0,0,0,0,6h2a1,1,0,0,1,0,2H31a1,1,0,0,1-1-1H28a3,3,0,0,0,3,3v1h2V58a3,3,0,0,0,0-6H31a1,1,0,0,1,0-2Z"></path><path d="M52,44a9,9,0,1,0,9,9A9.01,9.01,0,0,0,52,44Zm0,16a7,7,0,1,1,7-7A7.008,7.008,0,0,1,52,60Z"></path><path d="M12,44a9,9,0,1,0,9,9A9.01,9.01,0,0,0,12,44Zm0,16a7,7,0,1,1,7-7A7.008,7.008,0,0,1,12,60Z"></path><polygon points="15.293 48.293 12 51.586 8.707 48.293 7.293 49.707 10.586 53 9 53 9 55 11 55 11 56 9 56 9 58 11 58 11 59 13 59 13 58 15 58 15 56 13 56 13 55 15 55 15 53 13.414 53 16.707 49.707 15.293 48.293"></polygon><path d="M53,50a3.022,3.022,0,0,1,.752.095l.5-1.938A5.006,5.006,0,0,0,48.1,52H47v2h1.1a5.006,5.006,0,0,0,6.148,3.843l-.5-1.938A2.989,2.989,0,0,1,50.184,54H54V52H50.184A3,3,0,0,1,53,50Z"></path><rect x="31" y="34" width="2" height="8"></rect><rect x="16.343" y="37" width="11.314" height="2" transform="translate(-20.426 26.686) rotate(-45)"></rect><rect x="41" y="32.343" width="2" height="11.314" transform="translate(-14.569 40.828) rotate(-45)"></rect></g></svg>