<svg xmlns="http://www.w3.org/2000/svg" viewBox="0 0 64 64" x="0px" y="0px"><g><path d="M59,2H17a1,1,0,0,0-1,1V6H5A1,1,0,0,0,4,7V55a7.008,7.008,0,0,0,7,7H53a7.008,7.008,0,0,0,7-7V3A1,1,0,0,0,59,2ZM10,59.9V13H8V58.974A4.977,4.977,0,0,1,6,55V8H16V55a4.977,4.977,0,0,1-2,3.974V13H12V59.9a5,5,0,0,1-2,0ZM58,55a5.006,5.006,0,0,1-5,5H15.89A6.977,6.977,0,0,0,18,55V4H58Z"></path><path d="M21,16H33a1,1,0,0,0,1-1V9a1,1,0,0,0-1-1H21a1,1,0,0,0-1,1v6A1,1,0,0,0,21,16Zm1-6H32v4H22Z"></path><path d="M37,24H55a1,1,0,0,0,1-1V9a1,1,0,0,0-1-1H37a1,1,0,0,0-1,1V23A1,1,0,0,0,37,24Zm1-14H54V22H38Z"></path><rect x="24" y="18" width="10" height="2"></rect><rect x="20" y="18" width="2" height="2"></rect><rect x="20" y="22" width="14" height="2"></rect><rect x="20" y="30" width="14" height="2"></rect><rect x="36" y="30" width="20" height="2"></rect><rect x="20" y="36" width="14" height="2"></rect><rect x="36" y="36" width="20" height="2"></rect><rect x="20" y="42" width="14" height="2"></rect><rect x="36" y="42" width="20" height="2"></rect><rect x="20" y="48" width="14" height="2"></rect><rect x="36" y="48" width="20" height="2"></rect><rect x="20" y="54" width="14" height="2"></rect><rect x="36" y="54" width="20" height="2"></rect></g></svg>