<svg xmlns="http://www.w3.org/2000/svg" viewBox="0 0 64 64" x="0px" y="0px"><g data-name="Email Marketing"><path d="M36,32H8a.985.985,0,0,0-.826.469L22,39.882l14.826-7.413A.985.985,0,0,0,36,32Z"></path><polygon points="49 54.308 49.923 52 48.077 52 49 54.308"></polygon><path d="M50,20a1,1,0,0,0-2,0v1h2Z"></path><rect x="48" y="23" width="2" height="27"></rect><path d="M36.93,49.344,27.136,39.55,22.447,41.9a1,1,0,0,1-.894,0L16.864,39.55,7.07,49.344A.993.993,0,0,0,8,50H36A.993.993,0,0,0,36.93,49.344Z"></path><polygon points="7 34.618 7 46.586 14.979 38.607 7 34.618"></polygon><polygon points="37 34.618 29.021 38.607 37 46.586 37 34.618"></polygon><path d="M48.293,9.293a1,1,0,0,1,1.414,0L51,10.586V4H47v6.586Z"></path><path d="M54,4H53v9a.987.987,0,0,1-.62.92A.838.838,0,0,1,52,14a1.007,1.007,0,0,1-.71-.29L49,11.41l-2.29,2.3a1,1,0,0,1-1.09.21A.987.987,0,0,1,45,13V4H18a3.009,3.009,0,0,0-3,3V30H36a3.009,3.009,0,0,1,3,3V49a3.009,3.009,0,0,1-3,3H15v5a3.009,3.009,0,0,0,3,3H54a3.009,3.009,0,0,0,3-3V7A3.009,3.009,0,0,0,54,4ZM19,8h6v2H19Zm0,4h8v2H19Zm0,8h4v2H19Zm24,6H19V24H43Zm0-4H25V20H43Zm9,30a.937.937,0,0,1-.07.37l-2,5a1,1,0,0,1-1.86,0l-2-5A.937.937,0,0,1,46,52V20a3,3,0,0,1,6,0Z"></path></g></svg>