<svg xmlns="http://www.w3.org/2000/svg" viewBox="0 0 32 32" x="0px" y="0px"><title>File Down Arrow_12</title><g data-name="File Down Arrow"><path d="M6,2H8V8a1,1,0,0,0,1.707.707L11,7.414l1.293,1.293A1,1,0,0,0,13,9a.987.987,0,0,0,.383-.076A1,1,0,0,0,14,8V2h6V8a1,1,0,0,0,1,1h5v8h2V8c0-.019-.009-.037-.01-.056a.967.967,0,0,0-.039-.22c-.01-.032-.015-.065-.028-.1a.994.994,0,0,0-.164-.278l-6-7a.981.981,0,0,0-.306-.232A.917.917,0,0,0,21.362.08a.975.975,0,0,0-.311-.069C21.033.01,21.018,0,21,0H5A1,1,0,0,0,4,1V31a1,1,0,0,0,1,1H19V30H6ZM22,3.7,24.826,7H22ZM12,2V5.586l-.293-.293a1,1,0,0,0-1.414,0L10,5.586V2Z"></path><path d="M25,18a7,7,0,1,0,7,7A7.009,7.009,0,0,0,25,18Zm0,12a5,5,0,1,1,5-5A5.006,5.006,0,0,1,25,30Z"></path><path d="M27.121,24.465,26,25.586V21H24v4.586l-1.121-1.121-1.414,1.414,2.828,2.828a1,1,0,0,0,1.414,0l2.828-2.828Z"></path></g></svg>