<svg xmlns="http://www.w3.org/2000/svg" viewBox="0 0 64 64" x="0px" y="0px"><g><path d="M45,18c-8.45,0-17,2.06-17,6v8c0,3.94,8.55,6,17,6,5.97,0,11.98-1.04,15-3.03V40c0,1.63-5.84,4-15,4a46.58,46.58,0,0,1-6.85-.49l-.3,1.98A47.929,47.929,0,0,0,45,46c5.97,0,11.98-1.04,15-3.03V48c0,1.63-5.84,4-15,4a45.556,45.556,0,0,1-7.82-.65l-.36,1.96A46.724,46.724,0,0,0,45,54c8.45,0,17-2.06,17-6V24C62,20.06,53.45,18,45,18ZM60,32c0,1.63-5.84,4-15,4s-15-2.37-15-4V26.97C33.02,28.96,39.03,30,45,30s11.98-1.04,15-3.03ZM45,28c-9.16,0-15-2.37-15-4s5.84-4,15-4,15,2.37,15,4S54.16,28,45,28Z"></path><rect x="56" y="30" width="2" height="2"></rect><rect x="52" y="31" width="2" height="2"></rect><rect x="48" y="32" width="2" height="2"></rect><rect x="56" y="38" width="2" height="2"></rect><rect x="52" y="39" width="2" height="2"></rect><rect x="48" y="40" width="2" height="2"></rect><rect x="56" y="46" width="2" height="2"></rect><rect x="52" y="47" width="2" height="2"></rect><rect x="48" y="48" width="2" height="2"></rect><rect x="39" y="23" width="12" height="2"></rect><rect x="33" y="13" width="2" height="2"></rect><rect x="29" y="13" width="2" height="2"></rect><path d="M11,31H26V29H11a7,7,0,1,1,.05-14,1,1,0,0,0,.995-1.1c-.029-.3-.045-.6-.045-.9A8.994,8.994,0,0,1,28.565,8.138a1,1,0,0,0,1.274.36A4.941,4.941,0,0,1,32,8a5.006,5.006,0,0,1,5,5,4.949,4.949,0,0,1-.083.879,1,1,0,0,0,.873,1.169,6.947,6.947,0,0,1,3.837,1.7l1.322-1.5A8.939,8.939,0,0,0,39,13.226c0-.076,0-.151,0-.226a7.008,7.008,0,0,0-7-7,6.9,6.9,0,0,0-2.232.369A10.994,10.994,0,0,0,10,13v.055A9,9,0,0,0,11,31Z"></path><path d="M35.142,45.01l-2.682-.383a10.96,10.96,0,0,0-.678-1.639l1.624-2.166a1,1,0,0,0-.093-1.307l-2.828-2.828a1,1,0,0,0-1.307-.093l-2.166,1.624a10.96,10.96,0,0,0-1.639-.678l-.383-2.682A1,1,0,0,0,24,34H20a1,1,0,0,0-.99.858l-.383,2.682a10.96,10.96,0,0,0-1.639.678l-2.166-1.624a1,1,0,0,0-1.307.093l-2.828,2.828a1,1,0,0,0-.093,1.307l1.624,2.166a10.96,10.96,0,0,0-.678,1.639l-2.682.383A1,1,0,0,0,8,46v4a1,1,0,0,0,.858.99l2.682.383a10.96,10.96,0,0,0,.678,1.639l-1.624,2.166a1,1,0,0,0,.093,1.307l2.828,2.828a1,1,0,0,0,1.307.093l2.166-1.624a10.96,10.96,0,0,0,1.639.678l.383,2.682A1,1,0,0,0,20,62h4a1,1,0,0,0,.99-.858l.383-2.682a10.96,10.96,0,0,0,1.639-.678l2.166,1.624a1,1,0,0,0,1.307-.093l2.828-2.828a1,1,0,0,0,.093-1.307l-1.624-2.166a10.96,10.96,0,0,0,.678-1.639l2.682-.383A1,1,0,0,0,36,50V46A1,1,0,0,0,35.142,45.01ZM34,49.133l-2.463.352a1,1,0,0,0-.828.743,8.892,8.892,0,0,1-.975,2.356,1,1,0,0,0,.06,1.111l1.492,1.99-1.6,1.6L27.7,55.794a1,1,0,0,0-1.111-.06,8.892,8.892,0,0,1-2.356.975,1,1,0,0,0-.743.828L23.133,60H20.867l-.352-2.463a1,1,0,0,0-.743-.828,8.892,8.892,0,0,1-2.356-.975,1,1,0,0,0-1.111.06l-1.99,1.492-1.6-1.6,1.492-1.99a1,1,0,0,0,.06-1.111,8.892,8.892,0,0,1-.975-2.356,1,1,0,0,0-.828-.743L10,49.133V46.867l2.463-.352a1,1,0,0,0,.828-.743,8.892,8.892,0,0,1,.975-2.356,1,1,0,0,0-.06-1.111l-1.492-1.99,1.6-1.6,1.99,1.492a1,1,0,0,0,1.111.06,8.892,8.892,0,0,1,2.356-.975,1,1,0,0,0,.743-.828L20.867,36h2.266l.352,2.463a1,1,0,0,0,.743.828,8.892,8.892,0,0,1,2.356.975,1,1,0,0,0,1.111-.06l1.99-1.492,1.6,1.6-1.492,1.99a1,1,0,0,0-.06,1.111,8.892,8.892,0,0,1,.975,2.356,1,1,0,0,0,.828.743L34,46.867Z"></path><path d="M22,42a6,6,0,1,0,6,6A6.006,6.006,0,0,0,22,42Zm0,10a4,4,0,1,1,4-4A4,4,0,0,1,22,52Z"></path><rect x="4" y="47" width="2" height="2"></rect><rect x="4" y="43" width="2" height="2"></rect><rect x="4" y="51" width="2" height="2"></rect><rect x="38" y="56" width="2" height="2"></rect><rect x="42" y="56" width="2" height="2"></rect><rect x="46" y="56" width="2" height="2"></rect><rect x="50" y="56" width="2" height="2"></rect></g></svg>