<svg xmlns="http://www.w3.org/2000/svg" viewBox="0 0 64 64" x="0px" y="0px"><g><path d="M7.272,58.142a1,1,0,0,0,1.415,0l.707-.707L6.565,54.606l-.707.707a1,1,0,0,0,0,1.415Z"></path><rect x="11.929" y="49.071" width="2" height="4" transform="translate(-32.326 24.101) rotate(-45)"></rect><path d="M17.171,21.373a3,3,0,0,0,0,4.242L38.385,46.829a3,3,0,0,0,4.242,0l.707-.708L17.879,20.666Z"></path><rect x="31.728" y="13.272" width="2" height="36" transform="translate(-12.527 32.302) rotate(-45)"></rect><rect x="16.121" y="39.879" width="12" height="4" transform="translate(-23.133 27.908) rotate(-45)"></rect><rect x="9.1" y="51.899" width="2" height="4" transform="translate(-35.154 22.929) rotate(-45)"></rect><rect x="14.757" y="46.243" width="2" height="4" transform="translate(-29.498 25.272) rotate(-45)"></rect><path d="M24,15a1,1,0,0,0,.707-.293l7-7a1,1,0,1,0-1.414-1.414l-7,7A1,1,0,0,0,24,15Z"></path><path d="M34,5a1,1,0,0,0,.707-.293l1-1a1,1,0,1,0-1.414-1.414l-1,1A1,1,0,0,0,34,5Z"></path><path d="M36.293,27.707a1,1,0,0,0,1.414,0l13-13a1,1,0,0,0-1.414-1.414l-13,13A1,1,0,0,0,36.293,27.707Z"></path><path d="M53,12a1,1,0,0,0,.707-.293l3-3a1,1,0,1,0-1.414-1.414l-3,3A1,1,0,0,0,53,12Z"></path><path d="M54.293,34.293l-5,5a1,1,0,1,0,1.414,1.414l5-5a1,1,0,0,0-1.414-1.414Z"></path><path d="M59.293,29.293l-2,2a1,1,0,1,0,1.414,1.414l2-2a1,1,0,0,0-1.414-1.414Z"></path><path d="M34.293,15.293l-4,4a1,1,0,1,0,1.414,1.414l4-4a1,1,0,0,0-1.414-1.414Z"></path><path d="M38,14a1,1,0,0,0,.707-.293l3-3a1,1,0,0,0-1.414-1.414l-3,3A1,1,0,0,0,38,14Z"></path><path d="M44,8a1,1,0,0,0,.707-.293l3-3a1,1,0,1,0-1.414-1.414l-3,3A1,1,0,0,0,44,8Z"></path><path d="M56.707,21.293a1,1,0,0,0-1.414,0l-12,12a1,1,0,1,0,1.414,1.414l12-12A1,1,0,0,0,56.707,21.293Z"></path><path d="M61.707,16.293a1,1,0,0,0-1.414,0l-2,2a1,1,0,1,0,1.414,1.414l2-2A1,1,0,0,0,61.707,16.293Z"></path></g></svg>