<svg xmlns="http://www.w3.org/2000/svg" viewBox="0 0 64 64" x="0px" y="0px"><g data-name="Video Player-Smartphone-Lesson-Online-Hand"><path d="M42,4H14a4,4,0,0,0-4,4V56a4,4,0,0,0,4,4H31.8l-1.15-2H26a3,3,0,0,1,0-6h2.54a3.98,3.98,0,0,1,1.86-2.43,4,4,0,0,1,5.47,1.47l.13.23V40H28.82a2.988,2.988,0,0,1-5.64,0H19V38h4.18a2.988,2.988,0,0,1,5.64,0H36V36a4,4,0,0,1,8,0v8.54A3.989,3.989,0,0,1,46,44V8A4,4,0,0,0,42,4ZM25,6h6V8H25ZM21,6h2V8H21Zm7,28a9,9,0,1,1,9-9A9.014,9.014,0,0,1,28,34ZM26,54a1,1,0,0,0,0,2h3.49l-.55-.96A3.446,3.446,0,0,1,28.52,54Z"></path><polygon points="27 27.138 30.197 25 27 22.869 27 27.138"></polygon><path d="M28,18a7,7,0,1,0,7,7A7.008,7.008,0,0,0,28,18Zm3.31,8.66-3.2,2.14a2.028,2.028,0,0,1-1.11.33,2.071,2.071,0,0,1-.94-.23A2,2,0,0,1,25,27.13V22.87a2,2,0,0,1,3.11-1.67l3.2,2.14a1.993,1.993,0,0,1,0,3.32Z"></path><circle cx="26" cy="39" r="1"></circle><path d="M60,50V60H34.11l-3.44-5.96a2.018,2.018,0,0,1,.73-2.74,2.066,2.066,0,0,1,1.52-.2,1.942,1.942,0,0,1,1.21.94l2,3.46a1.022,1.022,0,0,0,1.13.47A1,1,0,0,0,38,55V36a2,2,0,0,1,4,0V52a1,1,0,0,0,2,0V48a2,2,0,0,1,4,0v4a1,1,0,0,0,2,0V49a2,2,0,0,1,4,0v3a1,1,0,0,0,2,0V50a2,2,0,0,1,4,0Z"></path></g></svg>