<svg xmlns="http://www.w3.org/2000/svg" viewBox="0 0 64 64" x="0px" y="0px"><g data-name="Smartphone-Schedule-Clock-Calendar-Time Management"><rect x="23" y="6" width="2" height="2"></rect><rect x="19" y="6" width="2" height="2"></rect><rect x="27" y="6" width="10" height="2"></rect><path d="M30,58h4a3,3,0,0,0,0-6H30a3,3,0,0,0,0,6Zm0-4h4a1,1,0,0,1,0,2H30a1,1,0,0,1,0-2Z"></path><path d="M49,55a5.006,5.006,0,0,1-5,5H20a5.006,5.006,0,0,1-5-5V40H13V55a7.008,7.008,0,0,0,7,7H44a7.008,7.008,0,0,0,7-7V52.037H49Z"></path><path d="M15,9a5.006,5.006,0,0,1,5-5H44a5.006,5.006,0,0,1,5,5V25h2V9a7.008,7.008,0,0,0-7-7H20a7.008,7.008,0,0,0-7,7v1h2Z"></path><path d="M58,28H55V27H53v1H51V27H49v1H47V27H45v1H43V27H41v1H38a3,3,0,0,0-3,3V47a3,3,0,0,0,3,3H58a3,3,0,0,0,3-3V31A3,3,0,0,0,58,28ZM38,30h3v1h2V30h2v1h2V30h2v1h2V30h2v1h2V30h3a1,1,0,0,1,1,1v2H37V31A1,1,0,0,1,38,30Zm15,5v3H49V35Zm-6,3H43V35h4Zm-6,0H37V35h4Zm0,2v3H37V40Zm2,0h4v3H43Zm4,5v3H43V45Zm2,0h4v3H49Zm0-2V40h4v3Zm6-3h4v3H55Zm0-2V35h4v3ZM37,47V45h4v3H38A1,1,0,0,1,37,47Zm21,1H55V45h4v2A1,1,0,0,1,58,48Z"></path><path d="M28,25A13,13,0,1,0,15,38,13.015,13.015,0,0,0,28,25ZM7.929,30.657,6.552,32.034A10.946,10.946,0,0,1,4.051,26H6V24H4.051a10.946,10.946,0,0,1,2.5-6.034l1.377,1.377,1.414-1.414L7.966,16.552A10.946,10.946,0,0,1,14,14.051V16h2V14.051a10.946,10.946,0,0,1,6.034,2.5l-1.377,1.377,1.414,1.414,1.377-1.377A10.946,10.946,0,0,1,25.949,24H24v2h1.949a10.946,10.946,0,0,1-2.5,6.034l-1.377-1.377-1.414,1.414,1.377,1.377A10.946,10.946,0,0,1,16,35.949V34H14v1.949a10.946,10.946,0,0,1-6.034-2.5l1.377-1.377Z"></path><path d="M15,28a3,3,0,0,0,2.816-2H21V24H17.816A3,3,0,0,0,16,22.184V18H14v4.184A2.993,2.993,0,0,0,15,28Zm0-4a1,1,0,1,1-1,1A1,1,0,0,1,15,24Z"></path><rect x="31" y="14" width="14" height="2"></rect><rect x="31" y="18" width="14" height="2"></rect><rect x="31" y="22" width="14" height="2"></rect><rect x="19" y="40" width="10" height="2"></rect><rect x="19" y="44" width="10" height="2"></rect><rect x="19" y="48" width="10" height="2"></rect></g></svg>