<svg xmlns="http://www.w3.org/2000/svg" viewBox="0 0 64 64" x="0px" y="0px"><g data-name="Energy Saving Light"><path d="M32,2A17.993,17.993,0,0,0,20.039,33.441L21,43.051V51c0,.37.021.73.054,1.09V52.1a11,11,0,0,0,21.891-.009c.033-.36.054-.72.054-1.09V43.051l.961-9.61A17.993,17.993,0,0,0,32,2Zm9,45H23V44H41Zm0,4H23V49H41Zm-9,9a8.955,8.955,0,0,1-8.771-7H40.77A8.956,8.956,0,0,1,32,60ZM42.3,32.235a.97.97,0,0,0-.319.911L41.1,42H22.905l-.877-8.765a1,1,0,0,0-.327-1,16,16,0,1,1,20.6,0Z"></path></g></svg>