<svg xmlns="http://www.w3.org/2000/svg" viewBox="0 0 64 64" x="0px" y="0px"><g><path d="M52,44.839V38h2V36H52V32h1a1,1,0,0,0,.707-.293l3-3-1.414-1.414L52.586,30H52V21a3,3,0,0,0-3-3H48v2h1a1,1,0,0,1,1,1v9H44v2h6v4H44v2h6v6H14V38h6V36H14V32h6V30H14V21a1,1,0,0,1,1-1h1V18H15a3,3,0,0,0-3,3v9h-.586L8.707,27.293,7.293,28.707l3,3A1,1,0,0,0,11,32h1v4H10v2h2v6.839L8.052,56.684A1,1,0,0,0,8,57v2a3,3,0,0,0,3,3H53a3,3,0,0,0,3-3V57a1,1,0,0,0-.052-.316ZM50.279,46l3.334,10H40.618L38.9,52.553A1,1,0,0,0,38,52H26a1,1,0,0,0-.895.553L23.382,56H10.387l3.334-10Zm-11.9,10H25.618l1-2H37.382ZM53,60H11a1,1,0,0,1-1-1V58H54v1A1,1,0,0,1,53,60Z"></path><rect x="14" y="52" width="2" height="2"></rect><rect x="48" y="52" width="2" height="2"></rect><rect x="15" y="48" width="2" height="2"></rect><rect x="19" y="48" width="2" height="2"></rect><rect x="23" y="48" width="2" height="2"></rect><rect x="27" y="48" width="2" height="2"></rect><rect x="31" y="48" width="2" height="2"></rect><rect x="35" y="48" width="2" height="2"></rect><rect x="39" y="48" width="2" height="2"></rect><rect x="43" y="48" width="2" height="2"></rect><rect x="47" y="48" width="2" height="2"></rect><rect x="18" y="52" width="4" height="2"></rect><rect x="42" y="52" width="4" height="2"></rect><path d="M31,15.816V22H30a1,1,0,0,0-.986.836L27.153,34H26a1,1,0,0,0-1,1v4a1,1,0,0,0,1,1H38a1,1,0,0,0,1-1V35a1,1,0,0,0-1-1H36.847L34.986,22.836A1,1,0,0,0,34,22H33V15.816a3,3,0,1,0-2,0ZM37,38H27V36H37Zm-2.18-4H29.18l1.667-10h2.306ZM32,12a1,1,0,1,1-1,1A1,1,0,0,1,32,12Z"></path><path d="M27.051,17.949l1.414-1.414a5,5,0,0,1,0-7.07L27.051,8.051a7,7,0,0,0,0,9.9Z"></path><path d="M36.949,17.949a7,7,0,0,0,0-9.9L35.535,9.465a5,5,0,0,1,0,7.07Z"></path><path d="M24.222,20.778l1.414-1.414a9.01,9.01,0,0,1,0-12.728L24.222,5.222A11.012,11.012,0,0,0,24.222,20.778Z"></path><path d="M38.364,19.364l1.414,1.414a11.012,11.012,0,0,0,0-15.556L38.364,6.636A9.01,9.01,0,0,1,38.364,19.364Z"></path><path d="M22.808,22.192a13,13,0,0,1,0-18.384L21.394,2.394a15,15,0,0,0,0,21.212Z"></path><path d="M41.192,22.192l1.414,1.414a15,15,0,0,0,0-21.212L41.192,3.808a13,13,0,0,1,0,18.384Z"></path><path d="M59,28a3,3,0,1,0-3-3A3,3,0,0,0,59,28Zm0-4a1,1,0,1,1-1,1A1,1,0,0,1,59,24Z"></path><path d="M59,34a3,3,0,1,0,3,3A3,3,0,0,0,59,34Zm0,4a1,1,0,1,1,1-1A1,1,0,0,1,59,38Z"></path><path d="M5,28a3,3,0,1,0-3-3A3,3,0,0,0,5,28Zm0-4a1,1,0,1,1-1,1A1,1,0,0,1,5,24Z"></path><path d="M5,34a3,3,0,1,0,3,3A3,3,0,0,0,5,34Zm0,4a1,1,0,1,1,1-1A1,1,0,0,1,5,38Z"></path></g></svg>