<svg xmlns="http://www.w3.org/2000/svg" viewBox="0 0 64 64" x="0px" y="0px"><g data-name="Contract"><path d="M57.82,27.67a1.009,1.009,0,0,1-.29.7l-7.07,7.07-1.42-1.41,6.37-6.36-.71-.71,1.41-1.42,1.42,1.42A1.033,1.033,0,0,1,57.82,27.67Z"></path><rect x="55.113" y="18.887" width="2" height="2" transform="translate(2.373 45.503) rotate(-45)"></rect><path d="M40.707,9.293,42,10.586V4H38v6.586l1.293-1.293a1,1,0,0,1,1.414,0Z"></path><path d="M7,60H47a1,1,0,0,0,1-1V33.657L34.192,47.464a.985.985,0,0,1-.313.212L28.93,49.8a1,1,0,0,1-1.1-.212h0l-2.121,2.121-1.414-1.414,2.121-2.121h0a1,1,0,0,1-.212-1.1l2.122-4.949a.985.985,0,0,1,.212-.313L48,22.343V5a1,1,0,0,0-1-1H44v9a1,1,0,0,1-1.707.707L40,11.414l-2.293,2.293A1,1,0,0,1,36,13V4H7A1,1,0,0,0,6,5V59A1,1,0,0,0,7,60Zm3-44H20v2H10Zm0,6H38v2H10Zm0,6H38v2H10Zm0,6H28v2H10Z"></path><rect x="50.577" y="21.423" width="4" height="4" transform="translate(-1.163 44.038) rotate(-45)"></rect><polygon points="28.764 47.693 32.724 45.996 30.004 43.276 28.307 47.236 28.764 47.693"></polygon><rect x="29.263" y="32.736" width="24" height="4" transform="translate(-12.477 39.352) rotate(-45)"></rect></g></svg>