<svg xmlns="http://www.w3.org/2000/svg" viewBox="0 0 64 64" x="0px" y="0px"><g data-name="coffee cup-coffee mug-espresso-drink-coffee"><path d="M45.1,55.05,45.15,54H18.85l.05,1.05a1.007,1.007,0,0,0,1,.95H44.1A1.007,1.007,0,0,0,45.1,55.05Z"></path><path d="M34.851,41.415a5.874,5.874,0,0,1-.577.491,3.183,3.183,0,0,0-1.281,2.221,5.183,5.183,0,0,1-2.051,3.553l-.07.055a2.957,2.957,0,0,0,1.446-.19A4.926,4.926,0,0,0,35.229,42.5,3.11,3.11,0,0,0,34.851,41.415Z"></path><path d="M31.669,41.88a4.718,4.718,0,0,1,1.391-1.563l.063-.05a2.558,2.558,0,0,0-.306-.038,3.149,3.149,0,0,0-1.135.226A4.926,4.926,0,0,0,28.771,45.5a3.13,3.13,0,0,0,.377,1.088,6.166,6.166,0,0,1,.578-.493,3.187,3.187,0,0,0,1.284-2.224A4.719,4.719,0,0,1,31.669,41.88Z"></path><rect x="14" y="20" width="36" height="4"></rect><rect x="21" y="58" width="22" height="2"></rect><path d="M46.17,33.66a2.974,2.974,0,0,1,.76-1.86l.81-.9a.971.971,0,0,0,.26-.67V30H16v.23a.971.971,0,0,0,.26.67l.81.9a2.974,2.974,0,0,1,.76,1.86L17.9,35H46.1Z"></path><rect x="31" y="4" width="2" height="14"></rect><rect x="16" y="26" width="32" height="2"></rect><path d="M46,37H18l.75,15h26.5Zm-9.67,9.5a6.652,6.652,0,0,1-3.285,2.907,5.121,5.121,0,0,1-1.867.366A4.326,4.326,0,0,1,29,49.2a4.6,4.6,0,0,1-2.206-3.4,6.917,6.917,0,0,1,4.161-7.2A4.46,4.46,0,0,1,37.206,42.2,6.66,6.66,0,0,1,36.33,46.5Z"></path></g></svg>