<svg xmlns="http://www.w3.org/2000/svg" viewBox="0 0 64 64" x="0px" y="0px"><g><path d="M55.033,17.415a3.77,3.77,0,0,0-1.762-1.86,3.626,3.626,0,0,1-.86-.665,3.749,3.749,0,0,1-.378-1.04,3.707,3.707,0,0,0-1.216-2.23,3.686,3.686,0,0,0-2.482-.47,3.716,3.716,0,0,1-1.121-.042,3.574,3.574,0,0,1-.878-.6A3.79,3.79,0,0,0,44,9.4a3.8,3.8,0,0,0-2.337,1.108,3.553,3.553,0,0,1-.877.6,3.718,3.718,0,0,1-1.12.042,3.7,3.7,0,0,0-2.483.469,3.709,3.709,0,0,0-1.216,2.231,3.741,3.741,0,0,1-.378,1.039,3.655,3.655,0,0,1-.861.667,3.773,3.773,0,0,0-1.761,1.858,3.672,3.672,0,0,0,.32,2.482A3.751,3.751,0,0,1,33.6,21a3.751,3.751,0,0,1-.313,1.1,3.67,3.67,0,0,0-.32,2.481,3.77,3.77,0,0,0,1.762,1.86,3.647,3.647,0,0,1,.86.665,3.749,3.749,0,0,1,.378,1.04,3.707,3.707,0,0,0,1.216,2.23A2.957,2.957,0,0,0,39,30.87V44a1,1,0,0,0,1.625.781L45,41.281l4.375,3.5A1,1,0,0,0,51,44V34a1,1,0,0,0-1-1H45v2h4v6.919l-3.375-2.7a1,1,0,0,0-1.25,0L41,41.919V31a6.189,6.189,0,0,1,.664.5A3.79,3.79,0,0,0,44,32.6a3.8,3.8,0,0,0,2.337-1.108,3.553,3.553,0,0,1,.877-.6,3.755,3.755,0,0,1,1.12-.042,3.678,3.678,0,0,0,2.483-.469,3.709,3.709,0,0,0,1.216-2.231,3.741,3.741,0,0,1,.378-1.039,3.634,3.634,0,0,1,.861-.667,3.773,3.773,0,0,0,1.761-1.858,3.672,3.672,0,0,0-.32-2.482A3.751,3.751,0,0,1,54.4,21a3.751,3.751,0,0,1,.313-1.1A3.67,3.67,0,0,0,55.033,17.415Zm-2.189,5.4a2.675,2.675,0,0,1,.287,1.15c-.077.239-.558.549-.944.8a4.979,4.979,0,0,0-1.393,1.17,5.023,5.023,0,0,0-.692,1.7,2.671,2.671,0,0,1-.462,1.132,2.679,2.679,0,0,1-1.2.089,5.092,5.092,0,0,0-1.84.137,4.926,4.926,0,0,0-1.522.952c-.379.308-.808.658-1.073.658s-.694-.35-1.072-.658a4.912,4.912,0,0,0-1.523-.952,3.8,3.8,0,0,0-1.181-.159c-.226,0-.448.011-.659.022a2.665,2.665,0,0,1-1.2-.089,2.676,2.676,0,0,1-.462-1.132,5.027,5.027,0,0,0-.692-1.7,4.991,4.991,0,0,0-1.393-1.169c-.386-.249-.867-.559-.944-.8a2.675,2.675,0,0,1,.287-1.15A5.151,5.151,0,0,0,35.6,21a5.151,5.151,0,0,0-.444-1.816,2.675,2.675,0,0,1-.287-1.15c.077-.239.558-.549.943-.8a4.968,4.968,0,0,0,1.394-1.17,5.023,5.023,0,0,0,.692-1.7,2.671,2.671,0,0,1,.462-1.132,2.632,2.632,0,0,1,1.2-.089,5.093,5.093,0,0,0,1.84-.137,4.926,4.926,0,0,0,1.522-.952c.379-.308.808-.658,1.073-.658s.694.35,1.072.658a4.912,4.912,0,0,0,1.523.952,5.087,5.087,0,0,0,1.84.137,2.678,2.678,0,0,1,1.2.089,2.676,2.676,0,0,1,.462,1.132,5.027,5.027,0,0,0,.692,1.7,4.991,4.991,0,0,0,1.393,1.169c.386.249.867.559.944.8a2.675,2.675,0,0,1-.287,1.15A5.151,5.151,0,0,0,52.4,21,5.151,5.151,0,0,0,52.844,22.816Z"></path><path d="M44,14a7,7,0,1,0,7,7A7.008,7.008,0,0,0,44,14Zm0,12a5,5,0,1,1,5-5A5.006,5.006,0,0,1,44,26Z"></path><path d="M59,7H5A1,1,0,0,0,4,8v8a9.01,9.01,0,0,0,9,9h.051A13.009,13.009,0,0,0,26,37h2V55H21a1,1,0,0,0-1,1v4H17v2H47V60H44V56a1,1,0,0,0-1-1H36V37h2V35H26A11.013,11.013,0,0,1,15,24V9H49v1h2V9h7v7a6.926,6.926,0,0,1-1.535,4.375l1.56,1.25A9.019,9.019,0,0,0,60,16V8A1,1,0,0,0,59,7ZM42,60H22V57H42ZM34,37V55H30V37ZM6,16V9h7V23A7.008,7.008,0,0,1,6,16Z"></path><path d="M11,10H8a1,1,0,0,0-1,1v5a6.007,6.007,0,0,0,3.6,5.5,1,1,0,0,0,1.4-.916V11A1,1,0,0,0,11,10Zm-1,8.644A4,4,0,0,1,9,16V12h1Z"></path><path d="M57,16V11a1,1,0,0,0-1-1H53a1,1,0,0,0-1,1v2h2V12h1v4Z"></path></g></svg>