<svg xmlns="http://www.w3.org/2000/svg" viewBox="0 0 64 64" x="0px" y="0px"><path d="M51,27H13V47H51ZM17,45H15V29h2Zm4,0H19V29h2Zm4,0H23V29h2Zm4,0H27V29h2Zm4,0H31V29h2Zm4,0H35V29h2Zm4,0H39V29h2Zm4,0H43V29h2Zm4,0H47V29h2Z"></path><path d="M56,53V21H8V53ZM11,27a2,2,0,0,1,2-2H51a2,2,0,0,1,2,2V47a2,2,0,0,1-2,2H13a2,2,0,0,1-2-2Z"></path><rect x="37" y="11" width="4" height="2"></rect><path d="M4,15v4H60V15H54a1,1,0,0,1-1-1V11H49v3a1,1,0,0,1-1,1H16a1,1,0,0,1-1-1V11H11v3a1,1,0,0,1-1,1Zm4,3H6V16H8Zm48-2h2v2H56Z"></path><path d="M59,55H5v4H59ZM9,58H7V56H9Zm48,0H55V56h2Z"></path><rect x="35" y="5" width="8" height="4"></rect></svg>