<svg xmlns="http://www.w3.org/2000/svg" viewBox="0 0 64 64" x="0px" y="0px"><path d="M27,22a2.028,2.028,0,0,1-.95-.24.95.95,0,0,1,.37.58l.63,2.93,2.47-2.85L29.1,22Z"></path><path d="M39,42H25a1,1,0,0,0-1,1v2a1,1,0,0,0,1,1H39a1,1,0,0,0,1-1V43A1,1,0,0,0,39,42ZM28,45H26V43h2Zm10,0H36V43h2Z"></path><path d="M39,20a2.022,2.022,0,0,1-.86,1.65.878.878,0,0,1,.35-.1l2.99-.21L39,18.47Z"></path><path d="M34.9,22l-.42.42,2.47,2.85.63-2.93a.95.95,0,0,1,.37-.58A2.028,2.028,0,0,1,37,22Z"></path><rect x="30" y="32" width="4" height="2"></rect><rect x="26" y="48" width="2" height="2"></rect><rect x="36" y="48" width="2" height="2"></rect><polygon points="35.38 36 28.62 36 26.62 40 37.38 40 35.38 36"></polygon><path d="M13,60H51a1,1,0,0,0,1-1V12H47a3.009,3.009,0,0,1-3-3V4H13a1,1,0,0,0-1,1V59A1,1,0,0,0,13,60Zm14-4H23V54h4Zm14,0H29V54H41Zm1-16H40.62l-.19.38A2.994,2.994,0,0,1,42,43v2a3.01,3.01,0,0,1-2,2.82V50a2.006,2.006,0,0,1-2,2H36a2.006,2.006,0,0,1-2-2V48H30v2a2.006,2.006,0,0,1-2,2H26a2.006,2.006,0,0,1-2-2V47.82A3.01,3.01,0,0,1,22,45V43a2.994,2.994,0,0,1,1.57-2.62L23.38,40H22V38h2a.988.988,0,0,1,.89.55l.11.21,2.11-4.21A.988.988,0,0,1,28,34V31a1,1,0,0,1,1-1h6a1,1,0,0,1,1,1v3a.988.988,0,0,1,.89.55L39,38.76l.11-.21A.988.988,0,0,1,40,38h2ZM19.7,21.54l4.15-4.79-.34-.34a1.992,1.992,0,0,1,0-2.82L25,12.1V10a2.006,2.006,0,0,1,2-2h2.1l1.49-1.49a2.01,2.01,0,0,1,2.82,0L34.9,8H37a2.006,2.006,0,0,1,2,2v2.1l1.49,1.49a1.992,1.992,0,0,1,0,2.82l-.34.34,4.15,4.79a.971.971,0,0,1,.17,1.03,1,1,0,0,1-.85.62l-4.24.3-.89,4.16a1.009,1.009,0,0,1-.73.76,1.068,1.068,0,0,1-.25.03,1.017,1.017,0,0,1-.76-.34l-3.74-4.31a1.962,1.962,0,0,1-2.02,0L27.25,28.1a1.017,1.017,0,0,1-.76.34,1.068,1.068,0,0,1-.25-.03,1.009,1.009,0,0,1-.73-.76l-.89-4.16-4.24-.3a1,1,0,0,1-.85-.62A.971.971,0,0,1,19.7,21.54Z"></path><path d="M25.86,21.65A2.022,2.022,0,0,1,25,20V18.47l-2.48,2.87,2.99.21A.878.878,0,0,1,25.86,21.65Z"></path><circle cx="32" cy="15" r="2"></circle><path d="M47,10h4.59L46,4.41V9A1,1,0,0,0,47,10Z"></path><path d="M27,17.9V20h2.1a1.966,1.966,0,0,1,1.41.59L32,22.07l1.49-1.48A1.966,1.966,0,0,1,34.9,20H37V17.9a1.966,1.966,0,0,1,.59-1.41L39.07,15l-1.48-1.49A1.966,1.966,0,0,1,37,12.1V10H34.9a1.966,1.966,0,0,1-1.41-.59L32,7.93,30.51,9.41A1.966,1.966,0,0,1,29.1,10H27v2.1a1.966,1.966,0,0,1-.59,1.41L24.93,15l1.48,1.49A1.966,1.966,0,0,1,27,17.9ZM32,11a4,4,0,1,1-4,4A4,4,0,0,1,32,11Z"></path></svg>