<svg xmlns="http://www.w3.org/2000/svg" viewBox="0 0 64 64" x="0px" y="0px"><g data-name="Cloud-Download-Arrow Down-Cloud Computing-Data"><path d="M51.979,18.358A10.008,10.008,0,0,0,39.836,9.235,15,15,0,0,0,12,17c0,.437.022.882.068,1.345A12.994,12.994,0,0,0,15,44h1.139a16,16,0,1,0,31.722,0H49a12.993,12.993,0,0,0,2.979-25.642ZM32,60A14,14,0,1,1,46,46,14.015,14.015,0,0,1,32,60ZM49,42H47.473a15.976,15.976,0,0,0-30.946,0H15a10.994,10.994,0,0,1-1.669-21.861A1,1,0,0,0,14.168,19,12.75,12.75,0,0,1,14,17a13,13,0,0,1,24.469-6.127,1,1,0,0,0,1.181.481A7.832,7.832,0,0,1,42,11a8.01,8.01,0,0,1,8,8.009c0,.027-.009.143-.009.171a1,1,0,0,0,.835.986A10.993,10.993,0,0,1,49,42Z"></path><path d="M17,17h2a8.009,8.009,0,0,1,8-8V7A10.011,10.011,0,0,0,17,17Z"></path><path d="M55,31a6.006,6.006,0,0,1-6,6v2a8.009,8.009,0,0,0,8-8Z"></path><path d="M36,49H35V38H33V50a1,1,0,0,0,.649.937L32,52.586l-1.649-1.649A1,1,0,0,0,31,50V38H29V49H28a1,1,0,0,0-.707,1.707l4,4a1,1,0,0,0,1.414,0l4-4A1,1,0,0,0,36,49Z"></path></g></svg>