<svg xmlns="http://www.w3.org/2000/svg" viewBox="0 0 64 64" x="0px" y="0px"><g data-name="Coffee Beans Plant"><path d="M46,4A13.015,13.015,0,0,0,33,17H31v5A13.015,13.015,0,0,0,18,9H7v1A13.015,13.015,0,0,0,20,23H31v5.277a2,2,0,1,0,0,3.446v2.056a3,3,0,1,0,0,4.442V40.38a4,4,0,1,0,0,5.24v2.159a3,3,0,1,0,0,4.442v1.558A3,3,0,1,0,31.221,58h.056A1.994,1.994,0,1,0,33,57v-.779a3,3,0,1,0,0-4.442V49.723a2,2,0,1,0,0-3.446V44.621A3.992,3.992,0,1,0,38.4,38.8l-.054-.007A4.987,4.987,0,1,0,33,31.027V18H44A13.015,13.015,0,0,0,57,5V4ZM34.517,38.316l-.047-.006A4.011,4.011,0,0,0,33,39.365v-2.4A5.088,5.088,0,0,0,34.517,38.316Z"></path></g></svg>