<svg xmlns="http://www.w3.org/2000/svg" viewBox="0 0 64 64" x="0px" y="0px"><g data-name="Social Media"><path d="M54,60V51a5.023,5.023,0,0,0-3.591-4.791A1.981,1.981,0,0,1,49,44.3V43.01a2.029,2.029,0,0,1,.775-1.616A2.943,2.943,0,0,0,51,39V37a3.009,3.009,0,0,0-.984-2.222,2.96,2.96,0,0,0-2.31-.762A3.118,3.118,0,0,0,45,37.17V39a2.934,2.934,0,0,0,1.212,2.384A2.036,2.036,0,0,1,47,43.01V44.3a1.983,1.983,0,0,1-1.415,1.911A4.956,4.956,0,0,0,42.6,48.627c.093.166.162.343.246.514s.183.361.262.547c.118.276.214.56.309.844.06.182.128.36.179.544.088.318.148.642.206.968.029.159.071.315.092.475A11.066,11.066,0,0,1,44,54v6Z"></path><path d="M23.376,49.213a8.958,8.958,0,0,0-1.288,3.522A9.175,9.175,0,0,0,22,54v6H42V54a9,9,0,0,0-7.2-8.82,1,1,0,0,1-.8-.98V41.19a1,1,0,0,1,.5-.865A5.024,5.024,0,0,0,37,36V32a5,5,0,0,0-10,0v4a5.024,5.024,0,0,0,2.5,4.325,1,1,0,0,1,.5.865V44.2a1,1,0,0,1-.8.98,9.038,9.038,0,0,0-5.821,4.032Z"></path><path d="M10,60H20V54a11.066,11.066,0,0,1,.1-1.481c.021-.16.063-.316.092-.475.058-.326.118-.65.206-.968.051-.184.119-.363.18-.545.094-.284.19-.567.308-.842.08-.188.173-.368.263-.551s.153-.346.245-.511a4.964,4.964,0,0,0-2.989-2.418A1.981,1.981,0,0,1,17,44.3V43.01a2.029,2.029,0,0,1,.775-1.616A2.943,2.943,0,0,0,19,39V37.17a3.118,3.118,0,0,0-2.706-3.154,2.97,2.97,0,0,0-2.31.762A3.009,3.009,0,0,0,13,37v2a2.934,2.934,0,0,0,1.212,2.384A2.036,2.036,0,0,1,15,43.01V44.3a1.983,1.983,0,0,1-1.415,1.911A5.02,5.02,0,0,0,10,51Z"></path><path d="M16,20a1,1,0,0,1,.707.293L19,22.586V20.61a1,1,0,0,1,.8-.981C24.63,18.669,28,15.943,28,13c0-3.794-5.5-7-12-7S4,9.206,4,13,9.495,20,16,20ZM8,10H24v2H8Zm0,4H24v2H8Z"></path><path d="M47.293,23.293A1,1,0,0,1,48,23c6.505,0,12-3.206,12-7S54.505,9,48,9s-12,3.206-12,7c0,2.943,3.37,5.669,8.2,6.629a1,1,0,0,1,.8.981v1.976ZM40,13H56v2H40Zm0,6V17H56v2Z"></path></g></svg>