<svg xmlns="http://www.w3.org/2000/svg" viewBox="0 0 64 64" x="0px" y="0px"><g><path d="M59,4H5A3,3,0,0,0,2,7V41a3,3,0,0,0,3,3H30.391A21.21,21.21,0,0,0,43.649,59.937a1.009,1.009,0,0,0,.7,0A21.21,21.21,0,0,0,57.609,44H59a3,3,0,0,0,3-3V7A3,3,0,0,0,59,4ZM5,6H59a.992.992,0,0,1,.875.542L32,24.805,4.125,6.542A.992.992,0,0,1,5,6ZM44,57.928A19.3,19.3,0,0,1,32,40a18.777,18.777,0,0,1,1.349-7c4.367-.081,8.363-1.673,10.651-4.182,2.288,2.509,6.284,4.1,10.651,4.182A18.777,18.777,0,0,1,56,40,19.3,19.3,0,0,1,44,57.928ZM59,42H57.9c.062-.661.1-1.327.1-2a20.779,20.779,0,0,0-1.772-8.413,1,1,0,0,0-.934-.6L55,31c-4.443,0-8.433-1.709-10.163-4.354a1.039,1.039,0,0,0-1.674,0C41.433,29.291,37.443,31,33,31l-.294-.011a.984.984,0,0,0-.934.6A20.779,20.779,0,0,0,30,40c0,.673.042,1.339.1,2H5a1,1,0,0,1-1-1V8.851L31.452,26.836a1,1,0,0,0,1.1,0L60,8.851V41A1,1,0,0,1,59,42Z"></path><path d="M44,34a9,9,0,1,0,9,9A9.011,9.011,0,0,0,44,34Zm0,16a7,7,0,1,1,7-7A7.008,7.008,0,0,1,44,50Z"></path><path d="M43,43.586l-2.293-2.293-1.414,1.414,3,3a1,1,0,0,0,1.414,0l5-5-1.414-1.414Z"></path></g></svg>