<svg xmlns="http://www.w3.org/2000/svg" viewBox="0 0 64 64" x="0px" y="0px"><g data-name="Credit card-Payment-Smartphone"><polygon points="51 10 53 10 53 8 55 8 55 6 53 6 53 4 51 4 51 6 49 6 49 8 51 8 51 10"></polygon><rect x="44" y="12" width="6" height="2"></rect><rect x="49" y="16" width="6" height="2"></rect><polygon points="51 54 49 54 49 56 47 56 47 58 49 58 49 60 51 60 51 58 53 58 53 56 51 56 51 54"></polygon><path d="M17,7H29a1,1,0,0,0,1-1V4H16V6A1,1,0,0,0,17,7Z"></path><path d="M49.388,48H27a3,3,0,0,1-3-3V27a3,3,0,0,1,3-3H49.388a18.011,18.011,0,1,0,0,24Z"></path><rect x="30" y="30" width="4" height="2"></rect><path d="M40,55.6A20,20,0,1,1,40,16.4V7a3,3,0,0,0-3-3H32V6a3,3,0,0,1-3,3H17a3,3,0,0,1-3-3V4H9A3,3,0,0,0,6,7V57a3,3,0,0,0,3,3H37a3,3,0,0,0,3-3ZM28,11h2v2H28Zm-4,0h2v2H24Zm-4,0h2v2H20Zm1.34,5.972L22.625,18.5,21.092,19.79l-1.285-1.533Zm-1.55,4.121-1.285,1.532-1.532-1.286,1.285-1.532ZM16,11h2v2H16Zm-.284,12.134,1.731,1-1,1.732-1.731-1Zm-1.927,3.718,1.88.684-.684,1.88-1.88-.685Zm-1.251,4,1.97.347-.348,1.97-1.97-.348ZM12,35h2v2H12Zm.19,4.183,1.97-.348.348,1.97-1.97.347Zm.915,4.086,1.88-.685.684,1.88-1.88.684Zm1.611,3.865,1.731-1,1,1.732-1.731,1Zm3.542,5.059-1.285-1.532,1.532-1.286,1.285,1.532Zm3.082,2.835-1.533-1.285,1.285-1.533L22.625,53.5Zm3.526,2.257-1.732-1,1-1.732,1.732,1Z"></path><path d="M53,30a.928.928,0,0,0-.172.038,2.776,2.776,0,0,1,0,1.924A.928.928,0,0,0,53,32a1,1,0,0,0,0-2Z"></path><path d="M58,45V27a1,1,0,0,0-1-1H27a1,1,0,0,0-1,1V45a1,1,0,0,0,1,1H57A1,1,0,0,0,58,45ZM44,38h2v2H44ZM28,29a1,1,0,0,1,1-1h6a1,1,0,0,1,1,1v4a1,1,0,0,1-1,1H29a1,1,0,0,1-1-1Zm6,9v2H32V38Zm-6,0h2v2H28Zm8,6H28V42h8Zm0-6h2v2H36Zm6,6H38V42h4Zm0-4H40V38h2Zm8,4H44V42h6Zm0-4H48V38h2Zm3-6a2.959,2.959,0,0,1-1.493-.421A2.965,2.965,0,0,1,50,34a3,3,0,0,1,0-6,2.965,2.965,0,0,1,1.507.421A2.959,2.959,0,0,1,53,28a3,3,0,0,1,0,6Z"></path><circle cx="50" cy="31" r="1"></circle></g></svg>