<svg xmlns="http://www.w3.org/2000/svg" viewBox="0 0 64 64" x="0px" y="0px"><g><circle cx="19" cy="18" r="2"></circle><circle cx="27" cy="18" r="2"></circle><path d="M26.308,24.75l-1.325-1.5a3.074,3.074,0,0,1-3.966,0l-1.325,1.5a5,5,0,0,0,6.616,0Z"></path><path d="M58,39H57a3.009,3.009,0,0,0-3-3H48a3.009,3.009,0,0,0-3,3H44a2.983,2.983,0,0,0-2.21.98,8.886,8.886,0,0,0-4.1-2.68l-2.75-.86A4.989,4.989,0,0,0,30,32H28V30.79A11.028,11.028,0,0,0,33.95,22H34a4,4,0,0,0,0-8V6a1,1,0,0,0-1-1H30V3a1,1,0,0,0-1-1H19a7.008,7.008,0,0,0-7,7v5a4,4,0,1,0,0,8h.05A11.028,11.028,0,0,0,18,30.79V32H16a4.989,4.989,0,0,0-4.94,4.44l-2.75.86A8.941,8.941,0,0,0,2,45.88V61a1,1,0,0,0,1,1H43a1.048,1.048,0,0,0,.36-.07A3.39,3.39,0,0,0,44,62H58a3.009,3.009,0,0,0,3-3V42A3.009,3.009,0,0,0,58,39ZM34,16a2.006,2.006,0,0,1,2,2,2.015,2.015,0,0,1-2,2ZM12,20a2.015,2.015,0,0,1-2-2,2.006,2.006,0,0,1,2-2ZM30,34a3.005,3.005,0,0,1,2.71,1.74L28,34.27V34ZM29.71,7H32v3.18A3,3,0,0,0,31,10H27.89A7.065,7.065,0,0,0,29.71,7ZM14,9a5,5,0,0,1,5-5h9V5a5,5,0,0,1-5,5H15a3,3,0,0,0-1,.18Zm0,12V13a1,1,0,0,1,1-1H31a1,1,0,0,1,1,1v8a9,9,0,0,1-18,0Zm9,14.88-3-1.5V31.57a10.68,10.68,0,0,0,6,0v2.81Zm1.67,3.54L23.38,42h-.76l-1.29-2.58L23,38.23ZM16,34h2v.27l-4.71,1.47A3.005,3.005,0,0,1,16,34ZM12,47a2,2,0,1,1-2,2A2.006,2.006,0,0,1,12,47Zm7.1,13H12V54H10v6H4V45.88A6.964,6.964,0,0,1,8.91,39.2L11,38.55v6.59a4,4,0,1,0,2,0V37.92l2-.62V42a1.008,1.008,0,0,0,.54.89A1.072,1.072,0,0,0,16,43a.959.959,0,0,0,.58-.19l3.1-2.21,1.29,2.58ZM17,40.06V36.67l1.91-.59,2.16,1.07ZM21.12,60,22.9,44h.2l1.78,16Zm5.97-23.92,1.91.59v3.39l-4.07-2.91ZM36,60V54H34v6H26.9L25.03,43.18l1.29-2.58,3.1,2.21A.959.959,0,0,0,30,43a1.072,1.072,0,0,0,.46-.11A1.008,1.008,0,0,0,31,42V37.3l2,.62V43a5,5,0,0,0-5,5v4a1,1,0,0,0,1,1h2V51H30V48a3.009,3.009,0,0,1,3-3h2a3.009,3.009,0,0,1,3,3v3H37v2h2a1,1,0,0,0,1-1V48a5,5,0,0,0-5-5V38.55l2.09.65A7.016,7.016,0,0,1,41,42.28V59a3,3,0,0,0,.18,1ZM47,39a1,1,0,0,1,1-1h6a1,1,0,0,1,1,1v3H47ZM59,59a1,1,0,0,1-1,1H44a1,1,0,0,1-1-1V42a1,1,0,0,1,1-1h1v2a1,1,0,0,0,1,1H56a1,1,0,0,0,1-1V41h1a1,1,0,0,1,1,1Z"></path><path d="M56,49H54V47a1,1,0,0,0-1-1H49a1,1,0,0,0-1,1v2H46a1,1,0,0,0-1,1v4a1,1,0,0,0,1,1h2v2a1,1,0,0,0,1,1h4a1,1,0,0,0,1-1V55h2a1,1,0,0,0,1-1V50A1,1,0,0,0,56,49Zm-1,4H53a1,1,0,0,0-1,1v2H50V54a1,1,0,0,0-1-1H47V51h2a1,1,0,0,0,1-1V48h2v2a1,1,0,0,0,1,1h2Z"></path></g></svg>