<svg xmlns="http://www.w3.org/2000/svg" viewBox="0 0 64 64" x="0px" y="0px"><g data-name="Drone-Internet of Things-Electronics-Navigator-Smartphone"><path d="M14,6V9h2V6a1,1,0,0,0-2,0Z"></path><circle cx="34" cy="29" r="1"></circle><path d="M59,11H43a.967.967,0,0,1-.55-.17L39.7,9H28.3l-2.75,1.83A.967.967,0,0,1,25,11H9a1,1,0,0,0-1,1v4a1,1,0,0,0,1,1H19a.988.988,0,0,1,.89.55L20.62,19H26V18a3.009,3.009,0,0,1,3-3H39a3.009,3.009,0,0,1,3,3v1h5.38l.73-1.45A.988.988,0,0,1,49,17H59a1,1,0,0,0,1-1V12A1,1,0,0,0,59,11ZM14,15H10V13h4Zm4,0H16V13h2Zm4,0H20V13h2Zm9-2H29V11h2Zm4,0H33V11h2Zm4,0H37V11h2Zm9,2H46V13h2Zm4,0H50V13h2Zm6,0H54V13h4Z"></path><rect x="45" y="21" width="2" height="4"></rect><rect x="21" y="21" width="2" height="4"></rect><rect x="33" y="21" width="2" height="2"></rect><path d="M39,17H29a1,1,0,0,0-1,1v1H40V18A1,1,0,0,0,39,17Z"></path><path d="M52,6V9h2V6a1,1,0,0,0-2,0Z"></path><path d="M30,33h8V25H30Zm4-7a3,3,0,1,1-3,3A3,3,0,0,1,34,26Z"></path><polygon points="24 5 24 3 6 3 6 5 15 5 24 5"></polygon><polygon points="44 3 44 5 53 5 62 5 62 3 44 3"></polygon><path d="M43.879,32.121l-1.414,1.414a5,5,0,0,0,7.07,0l-1.414-1.414A3.072,3.072,0,0,1,43.879,32.121Z"></path><path d="M47.414,30.414,46,29l-1.414,1.414a2,2,0,0,0,2.828,0Z"></path><path d="M24,55H4v3a3.009,3.009,0,0,0,3,3H21a3.009,3.009,0,0,0,3-3Zm-9,4H13V57h2Z"></path><path d="M24,32a3.009,3.009,0,0,0-3-3H7a3.009,3.009,0,0,0-3,3v1H24Z"></path><path d="M24,35H4V53H24ZM14,49l-1.414-1.414a2,2,0,0,1,2.828,0Zm2.121-3.121a3.072,3.072,0,0,0-4.242,0l-1.414-1.414a5,5,0,0,1,7.07,0ZM18.95,43.05a7.009,7.009,0,0,0-9.9,0L7.636,41.636a9.012,9.012,0,0,1,12.728,0Z"></path><path d="M45,43H28v2H46a1,1,0,0,0,1-1V37H45Z"></path></g></svg>