<svg xmlns="http://www.w3.org/2000/svg" viewBox="0 0 64 64" x="0px" y="0px"><g><path d="M33,10.816a2.809,2.809,0,0,1-2,0V12h2Z"></path><circle cx="32" cy="18" r="1"></circle><path d="M49.323,12l3.2-8H11.477l3.2,8H29V8a3,3,0,0,1,6,0v4Z"></path><path d="M33,14H31v1.184a2.809,2.809,0,0,1,2,0Z"></path><circle cx="32" cy="8" r="1"></circle><path d="M53,8.193l-2.071,5.179A1,1,0,0,1,50,14H35v4a3,3,0,0,1-2,2.816V50H50a1,1,0,0,1,.929.628L53,55.807Z"></path><polygon points="49.323 52 14.677 52 11.477 60 52.523 60 49.323 52"></polygon><path d="M11,55.807l2.071-5.179A1,1,0,0,1,14,50H31V20.816A3,3,0,0,1,29,18V14H14a1,1,0,0,1-.929-.628L11,8.193Z"></path></g></svg>