<svg xmlns="http://www.w3.org/2000/svg" viewBox="0 0 64 64" x="0px" y="0px"><g><rect x="23" y="14" width="2" height="2"></rect><rect x="27" y="15" width="2" height="2"></rect><rect x="23" y="21" width="2" height="2"></rect><rect x="27" y="22" width="2" height="2"></rect><rect x="26" y="7" width="12" height="2"></rect><path d="M32,28c6.841,0,12-2.58,12-6V8c0-3.42-5.159-6-12-6S20,4.58,20,8V22C20,25.42,25.159,28,32,28Zm0-2c-5.724,0-10-2.112-10-4V18.406C24.114,19.994,27.729,21,32,21s7.886-1.006,10-2.594V22C42,23.888,37.724,26,32,26ZM32,4c5.724,0,10,2.112,10,4s-4.276,4-10,4S22,9.888,22,8,26.276,4,32,4ZM22,11.406C24.114,12.994,27.729,14,32,14s7.886-1.006,10-2.594V15c0,1.888-4.276,4-10,4s-10-2.112-10-4Z"></path><path d="M55.707,56.293l-6-6A1,1,0,0,0,49,50H19V48a3,3,0,0,0-3-3H10a1,1,0,0,1,0-2h6a3,3,0,0,0,3-3V38h7v4H22a1,1,0,0,0-1,1v4a1,1,0,0,0,1,1H42a1,1,0,0,0,1-1V43a1,1,0,0,0-1-1H38V38H52a3,3,0,0,0,3-3V9a3,3,0,0,0-3-3H46V8h6a1,1,0,0,1,1,1V30H11V9a1,1,0,0,1,1-1h6V6H12A3,3,0,0,0,9,9V35a3,3,0,0,0,3,3h5v2a1,1,0,0,1-1,1H10a3,3,0,0,0,0,6h6a1,1,0,0,1,1,1v2H15a1,1,0,0,0-.707.293l-6,6A1,1,0,0,0,8,57v3a2,2,0,0,0,2,2H54a2,2,0,0,0,2-2V57A1,1,0,0,0,55.707,56.293ZM41,46H23V44H41Zm-5-4H28V38h8ZM11,35V32H53v3a1,1,0,0,1-1,1H12A1,1,0,0,1,11,35Zm4.414,17H48.586l4,4H11.414ZM10,60V58H54v2Z"></path><rect x="16" y="53" width="2" height="2"></rect><rect x="20" y="53" width="2" height="2"></rect><rect x="42" y="53" width="2" height="2"></rect><rect x="24" y="53" width="16" height="2"></rect><rect x="46" y="53" width="2" height="2"></rect><rect x="47" y="33" width="2" height="2"></rect></g></svg>