<svg xmlns="http://www.w3.org/2000/svg" viewBox="0 0 64 64" x="0px" y="0px"><g data-name="Time Management"><path d="M22,13.414l-.122.122A4.966,4.966,0,0,1,18.343,15H18v1a3,3,0,0,0,6,0V14.87a2.96,2.96,0,0,1-1.293-.749Z"></path><path d="M20.464,12.122l.829-.829a1,1,0,0,1,1.414,0l1.414,1.414a1,1,0,0,0,.708.293H25V12a4,4,0,0,0-8,0v1h1.343A3.02,3.02,0,0,0,20.464,12.122Z"></path><path d="M20,20.9v.687l1,1,1-1V20.9a5,5,0,0,1-2,0Z"></path><path d="M23.376,23.038l-1.669,1.669a1,1,0,0,1-1.414,0l-1.669-1.669A4.991,4.991,0,0,0,14,28H28A4.991,4.991,0,0,0,23.376,23.038Z"></path><circle cx="49" cy="21" r="1"></circle><path d="M59.949,20a10.946,10.946,0,0,0-2.5-6.034l-1.377,1.377-1.414-1.414,1.377-1.377A10.946,10.946,0,0,0,50,10.051V12H48V10.051a10.946,10.946,0,0,0-6.034,2.5l1.377,1.377-1.414,1.414-1.377-1.377A10.946,10.946,0,0,0,38.051,20H40v2H38.051a10.946,10.946,0,0,0,2.5,6.034l1.377-1.377,1.414,1.414-1.377,1.377A10.946,10.946,0,0,0,48,31.949V30h2v1.949a10.946,10.946,0,0,0,6.034-2.5l-1.377-1.377,1.414-1.414,1.377,1.377A10.946,10.946,0,0,0,59.949,22H58V20ZM55,22H51.816A2.993,2.993,0,1,1,48,18.184V14h2v4.184A3,3,0,0,1,51.816,20H55Z"></path><path d="M50,33.949c-.331.026-.662.051-1,.051A13,13,0,0,1,49,8c.338,0,.669.025,1,.051V5a1,1,0,0,0-1-1H11a1,1,0,0,0-1,1V52H43a1,1,0,0,1,1,1v4a3,3,0,0,0,6,0ZM12,28a7.011,7.011,0,0,1,6-6.929v-1.1A4.977,4.977,0,0,1,16,16V15a1,1,0,0,1-1-1V12a6,6,0,0,1,12,0v2a1,1,0,0,1-1,1v1a4.977,4.977,0,0,1-2,3.974v1.1A7.011,7.011,0,0,1,30,28v1a1,1,0,0,1-1,1H13a1,1,0,0,1-1-1Zm0,4H38v2H12Zm8,6V36H34v2Zm6,2v2H16V40ZM12,36h6v2H12Zm0,4h2v2H12Zm0,4H34v2H12Zm36,6H12V48H48Zm0-4H36V44H48Zm0-4H28V40H48Zm0-4H36V36H48Z"></path><path d="M4,57a3,3,0,0,0,3,3H43a4.987,4.987,0,0,1-1-3V54H4Z"></path></g></svg>