<svg xmlns="http://www.w3.org/2000/svg" viewBox="0 0 64 64" x="0px" y="0px"><g data-name="Money"><path d="M18,8A14,14,0,1,0,32,22,14.015,14.015,0,0,0,18,8ZM11,23H9V21h2Zm5-2h4a3,3,0,0,1,3,3v1a3,3,0,0,1-3,3H19v2H17V28H16a3,3,0,0,1-3-3h2a1,1,0,0,0,1,1h4a1,1,0,0,0,1-1V24a1,1,0,0,0-1-1H16a3,3,0,0,1-3-3V19a3,3,0,0,1,3-3h1V14h2v2h1a3,3,0,0,1,3,3H21a1,1,0,0,0-1-1H16a1,1,0,0,0-1,1v1A1,1,0,0,0,16,21Zm11,2H25V21h2Z"></path><polygon points="32 52 32 46 6 46 6 52 8 52 8 49 10 49 10 52 12 52 12 49 14 49 14 52 16 52 16 49 18 49 18 52 20 52 20 49 22 49 22 52 24 52 24 49 26 49 26 52 28 52 28 49 30 49 30 52 32 52"></polygon><polygon points="60 52 60 46 34 46 34 52 36 52 36 49 38 49 38 52 40 52 40 49 42 49 42 52 44 52 44 49 46 49 46 52 48 52 48 49 50 49 50 52 52 52 52 49 54 49 54 52 56 52 56 49 58 49 58 52 60 52"></polygon><polygon points="32 60 32 54 6 54 6 60 8 60 8 57 10 57 10 60 12 60 12 57 14 57 14 60 16 60 16 57 18 57 18 60 20 60 20 57 22 57 22 60 24 60 24 57 26 57 26 60 28 60 28 57 30 57 30 60 32 60"></polygon><polygon points="60 60 60 54 34 54 34 60 36 60 36 57 38 57 38 60 40 60 40 57 42 57 42 60 44 60 44 57 46 57 46 60 48 60 48 57 50 57 50 60 52 60 52 57 54 57 54 60 56 60 56 57 58 57 58 60 60 60"></polygon><polygon points="60 44 60 38 34 38 34 44 36 44 36 41 38 41 38 44 40 44 40 41 42 41 42 44 44 44 44 41 46 41 46 44 48 44 48 41 50 41 50 44 52 44 52 41 54 41 54 44 56 44 56 41 58 41 58 44 60 44"></polygon><polygon points="6 44 8 44 8 41 10 41 10 44 12 44 12 41 14 41 14 44 16 44 16 41 18 41 18 44 20 44 20 41 22 41 22 44 24 44 24 41 26 41 26 44 28 44 28 41 30 41 30 44 32 44 32 38 6 38 6 44"></polygon><polygon points="60 30 34 30 34 36 36 36 36 33 38 33 38 36 40 36 40 33 42 33 42 36 44 36 44 33 46 33 46 36 48 36 48 33 50 33 50 36 52 36 52 33 54 33 54 36 56 36 56 33 58 33 58 36 60 36 60 30"></polygon><polygon points="34 20 36 20 36 17 38 17 38 20 40 20 40 17 42 17 42 20 44 20 44 17 46 17 46 20 48 20 48 17 50 17 50 20 52 20 52 17 54 17 54 20 56 20 56 17 58 17 58 20 60 20 60 14 34 14 34 20"></polygon><polygon points="60 22 34 22 34 28 36 28 36 25 38 25 38 28 40 28 40 25 42 25 42 28 44 28 44 25 46 25 46 28 48 28 48 25 50 25 50 28 52 28 52 25 54 25 54 28 56 28 56 25 58 25 58 28 60 28 60 22"></polygon></g></svg>