<svg xmlns="http://www.w3.org/2000/svg" viewBox="0 0 64 64" x="0px" y="0px"><g><path d="M11.414,56H52.586l-4-4H15.414ZM46,53h2v2H46Zm-4,0h2v2H42ZM24,53H40v2H24Zm-4,0h2v2H20Zm-4,0h2v2H16Z"></path><rect x="10" y="58" width="44" height="2"></rect><path d="M19,50H17V48a1,1,0,0,0-1-1H10a3,3,0,0,1,0-6h6a1,1,0,0,0,1-1V38h2v2a3,3,0,0,1-3,3H10a1,1,0,0,0,0,2h6a3,3,0,0,1,3,3Z"></path><circle cx="32" cy="25" r="1"></circle><path d="M41,18V13a9,9,0,0,0-18,0v5h4V16h2v2h2V16h2v2h2V16h2v2ZM28,14a3,3,0,1,1,3-3A3,3,0,0,1,28,14Zm8,0a3,3,0,1,1,3-3A3,3,0,0,1,36,14Z"></path><path d="M53,9V30H11V9a1,1,0,0,1,1-1H22.22A10.805,10.805,0,0,0,21,13v6a1,1,0,0,0,1,1h3v1.43l-2.11,1.26A2.979,2.979,0,0,0,21,22a3,3,0,1,0,3,3,2.907,2.907,0,0,0-.06-.6l2.57-1.54A.99.99,0,0,0,27,22V20h4v2.18a3,3,0,1,0,2,0V20h4v2a.99.99,0,0,0,.49.86l2.57,1.54A2.907,2.907,0,0,0,40,25a3,3,0,1,0,3-3,2.979,2.979,0,0,0-1.89.69L39,21.43V20h3a1,1,0,0,0,1-1V13a10.805,10.805,0,0,0-1.22-5H52A1,1,0,0,1,53,9Z"></path><circle cx="28" cy="11" r="1"></circle><circle cx="36" cy="11" r="1"></circle><circle cx="21" cy="25" r="1"></circle><path d="M11,35a1,1,0,0,0,1,1H52a1,1,0,0,0,1-1V32H11Zm36-2h2v2H47Z"></path><rect x="23" y="44" width="18" height="2"></rect><rect x="28" y="38" width="8" height="4"></rect><circle cx="43" cy="25" r="1"></circle></g></svg>