<svg xmlns="http://www.w3.org/2000/svg" viewBox="0 0 64 64" x="0px" y="0px"><g data-name="Wireless Charger"><path d="M20,41H14V59a1,1,0,0,0,1,1h4a1,1,0,0,0,1-1ZM18,57H16V55h2Zm0-4H16V51h2Zm0-4H16V47h2Zm0-4H16V43h2Z"></path><path d="M38,12h6a1,1,0,0,0,1-1V10H37v1A1,1,0,0,0,38,12Z"></path><path d="M23,38V26a1,1,0,0,0-1-1H12a1,1,0,0,0-1,1V38a1,1,0,0,0,1,1H22A1,1,0,0,0,23,38Zm-3.071-5.629-2,5-1.858-.742L17.523,33H15a1,1,0,0,1-.929-1.371l2-5,1.858.742L16.477,31H19a1,1,0,0,1,.929,1.371Z"></path><path d="M60,32a13.037,13.037,0,0,0-5-10.238V42.237a12.68,12.68,0,0,0,1.193-1.044A12.951,12.951,0,0,0,60,32Z"></path><path d="M41,25a7,7,0,1,0,7,7A7.008,7.008,0,0,0,41,25Zm2.929,7.371-2,5-1.858-.742L41.523,33H39a1,1,0,0,1-.929-1.371l2-5,1.858.742L40.477,31H43a1,1,0,0,1,.929,1.371Z"></path><path d="M53,13a3,3,0,0,0-3-3H47v1a3,3,0,0,1-3,3H38a3,3,0,0,1-3-3V10H32a3,3,0,0,0-3,3V51a3,3,0,0,0,3,3H50a3,3,0,0,0,3-3ZM41,41a9,9,0,1,1,9-9A9.01,9.01,0,0,1,41,41Z"></path><path d="M12,23V20.014a13.222,13.222,0,0,0-4.195,2.8A12.949,12.949,0,0,0,4,32a13.086,13.086,0,0,0,8,11.994V41a3,3,0,0,1-3-3V26A3,3,0,0,1,12,23Z"></path><path d="M27,19H22v4a3,3,0,0,1,3,3V38a3,3,0,0,1-3,3v4h5Z"></path><path d="M14,23h6V5a1,1,0,0,0-1-1H15a1,1,0,0,0-1,1ZM16,7h2V9H16Zm0,4h2v2H16Zm0,4h2v2H16Zm0,4h2v2H16Z"></path></g></svg>