<svg xmlns="http://www.w3.org/2000/svg" viewBox="0 0 64 64" x="0px" y="0px"><g data-name="Smart Tv-App-Internet-Smartphone-Internet of Things"><circle cx="10" cy="49" r="1"></circle><path d="M12,32V22a10.2,10.2,0,0,1-2-.2V32Z"></path><rect x="48" y="15" width="4.001" height="4"></rect><rect x="48" y="27" width="4.001" height="4"></rect><rect x="33" y="44" width="4" height="6"></rect><path d="M60,7a3.009,3.009,0,0,0-3-3H17.97a10.024,10.024,0,0,1,2.01,2H57a1,1,0,0,1,1,1V39a1,1,0,0,1-1,1H17v2H57a3.009,3.009,0,0,0,3-3Z"></path><path d="M22,54H48a1,1,0,0,0,0-2H22a1,1,0,0,0,0,2Z"></path><rect x="38" y="15" width="4.001" height="4"></rect><path d="M22,15h-.46a10.109,10.109,0,0,1-2.41,4H22Z"></path><path d="M12,20a8,8,0,1,0-8-8A8.011,8.011,0,0,0,12,20Zm0-3-1.414-1.414a2,2,0,0,1,2.828,0Zm2.121-3.121a3.072,3.072,0,0,0-4.242,0L8.465,12.465a5,5,0,0,1,7.07,0Zm4.243-4.243L16.95,11.05a7.009,7.009,0,0,0-9.9,0L5.636,9.636A9.012,9.012,0,0,1,18.364,9.636Z"></path><path d="M15,34H5V60H15ZM7,36H9v2H7Zm0,4H9v2H7ZM9,58H7V56H9Zm4,0H11V56h2Zm-3-6a3,3,0,1,1,3-3A3,3,0,0,1,10,52Zm3-10H11V40h2Zm0-4H11V36h2Z"></path><rect x="28" y="15" width="4.001" height="4"></rect><rect x="38" y="27" width="4.001" height="4"></rect><rect x="28" y="27" width="4.001" height="4"></rect><path d="M17,34v4H56V8H21.16A9.917,9.917,0,0,1,22,12c0,.34-.02.67-.05,1H22a2.006,2.006,0,0,1,2,2v4a2.006,2.006,0,0,1-2,2H18a2.02,2.02,0,0,1-1.07-.31A10.149,10.149,0,0,1,14,21.8V32h1A2.006,2.006,0,0,1,17,34ZM46,15a2,2,0,0,1,2-2h4a2,2,0,0,1,2,2v4a2,2,0,0,1-2,2H48a2,2,0,0,1-2-2Zm0,12a2,2,0,0,1,2-2h4a2,2,0,0,1,2,2v4a2,2,0,0,1-2,2H48a2,2,0,0,1-2-2ZM36,15a2,2,0,0,1,2-2h4a2,2,0,0,1,2,2v4a2,2,0,0,1-2,2H38a2,2,0,0,1-2-2Zm0,12a2,2,0,0,1,2-2h4a2,2,0,0,1,2,2v4a2,2,0,0,1-2,2H38a2,2,0,0,1-2-2ZM26,15a2,2,0,0,1,2-2h4a2,2,0,0,1,2,2v4a2,2,0,0,1-2,2H28a2,2,0,0,1-2-2Zm0,12a2,2,0,0,1,2-2h4a2,2,0,0,1,2,2v4a2,2,0,0,1-2,2H28a2,2,0,0,1-2-2ZM16,27a2,2,0,0,1,2-2h4a2,2,0,0,1,2,2v4a2,2,0,0,1-2,2H18a2,2,0,0,1-2-2Z"></path><rect x="18" y="27" width="4.001" height="4"></rect></g></svg>