<svg xmlns="http://www.w3.org/2000/svg" viewBox="0 0 64 64" x="0px" y="0px"><g><rect x="26" y="50" width="5" height="10"></rect><path d="M19,60V30H5V60ZM15,32h2v2H15Zm0,4h2v2H15Zm0,4h2v2H15Zm0,4h2v2H15Zm0,4h2v2H15Zm0,4h2v2H15ZM11,32h2v2H11Zm0,4h2v2H11Zm0,4h2v2H11Zm0,4h2v2H11Zm0,4h2v2H11Zm0,4h2v2H11ZM7,32H9v2H7Zm0,4H9v2H7Zm0,4H9v2H7Zm0,4H9v2H7Zm0,4H9v2H7Zm0,4H9v2H7Z"></path><rect x="33" y="50" width="5" height="10"></rect><path d="M45,60H59V30H45ZM55,32h2v2H55Zm0,4h2v2H55Zm0,4h2v2H55Zm0,4h2v2H55Zm0,4h2v2H55Zm0,4h2v2H55ZM51,32h2v2H51Zm0,4h2v2H51Zm0,4h2v2H51Zm0,4h2v2H51Zm0,4h2v2H51Zm0,4h2v2H51ZM47,32h2v2H47Zm0,4h2v2H47Zm0,4h2v2H47Zm0,4h2v2H47Zm0,4h2v2H47Zm0,4h2v2H47Z"></path><rect x="4" y="26" width="15" height="2"></rect><path d="M31,19v3h2V19a1,1,0,0,1,1-1h3V16H34a1,1,0,0,1-1-1V12H31v3a1,1,0,0,1-1,1H27v2h3A1,1,0,0,1,31,19Z"></path><rect x="45" y="26" width="15" height="2"></rect><path d="M21,60h3V50H23V48H41v2H40V60h3V8H21Zm4-45a1,1,0,0,1,1-1h3V11a1,1,0,0,1,1-1h4a1,1,0,0,1,1,1v3h3a1,1,0,0,1,1,1v4a1,1,0,0,1-1,1H35v3a1,1,0,0,1-1,1H30a1,1,0,0,1-1-1V20H26a1,1,0,0,1-1-1ZM23,28H41v2H23Zm0,4H41v2H23Zm0,4H41v2H23Zm0,4H41v2H23Z"></path><rect x="18" y="4" width="28" height="2"></rect></g></svg>