<svg xmlns="http://www.w3.org/2000/svg" viewBox="0 0 64 64" x="0px" y="0px"><g data-name="Sent-Email"><path d="M22,27a1,1,0,0,1,1-1h6a2,2,0,0,0,0-4H20a7.008,7.008,0,0,0-7,7v4a7.008,7.008,0,0,0,7,7h2V30.98A4.96,4.96,0,0,1,19,32V30A3,3,0,0,0,22,27Z"></path><path d="M26.719,20H29a3.991,3.991,0,0,1,3.96,3.606L42,28.844,59.852,18.509A.988.988,0,0,0,59,18H25a.988.988,0,0,0-.852.509Z"></path><path d="M12.522,24H10V38h2.522A8.947,8.947,0,0,1,11,33V29A8.947,8.947,0,0,1,12.522,24Z"></path><path d="M25,44H59a1,1,0,0,0,1-1V20.734L42.5,30.865a1,1,0,0,1-1,0L32.6,25.71A3.994,3.994,0,0,1,29,28H24V43A1,1,0,0,0,25,44Z"></path><rect x="4" y="22" width="4" height="18"></rect></g></svg>