<svg xmlns="http://www.w3.org/2000/svg" viewBox="0 0 64 64" x="0px" y="0px"><g><path d="M23,52H22V45.05a1,1,0,0,0-.133-.5L14.955,32.582a2.279,2.279,0,0,0-.14-.212A4.036,4.036,0,0,0,12,30.633V22a4,4,0,0,0-8,0V46a1,1,0,0,0,.219.625L8,51.351V52H7a1,1,0,0,0-1,1v8a1,1,0,0,0,1,1H23a1,1,0,0,0,1-1V53A1,1,0,0,0,23,52ZM9.781,50.375,6,45.649V22a2,2,0,0,1,4,0v8.905a4.317,4.317,0,0,0-.5.23A4.014,4.014,0,0,0,8.034,36.6l5.72,9.9,1.732-1-5.72-9.9a2.007,2.007,0,0,1,.725-2.73,1.856,1.856,0,0,1,.651-.231c.034-.005.314-.04.358-.04a1.95,1.95,0,0,1,1.008.28,1.886,1.886,0,0,1,.653.615c.019.028.052.079.073.105L20,45.317V52H10V51A1,1,0,0,0,9.781,50.375ZM22,60H8V54H22Z"></path><rect x="18" y="56" width="2" height="2"></rect><path d="M56,18a4,4,0,0,0-4,4v8.633a3.852,3.852,0,0,0-1.492.506,3.893,3.893,0,0,0-1.322,1.23,2.354,2.354,0,0,0-.152.231l-6.9,11.951a1,1,0,0,0-.133.5V52H41a1,1,0,0,0-1,1v8a1,1,0,0,0,1,1H57a1,1,0,0,0,1-1V53a1,1,0,0,0-1-1H56v-.649l3.781-4.726A1,1,0,0,0,60,46V22A4,4,0,0,0,56,18Zm0,42H42V54H56Zm2-14.351-3.781,4.726A1,1,0,0,0,54,51v1H44V45.317l6.779-11.74c.022-.027.041-.054.06-.082A2.031,2.031,0,0,1,52.5,32.6c.044,0,.324.035.357.04a1.837,1.837,0,0,1,.641.225,2.009,2.009,0,0,1,.735,2.735l-5.719,9.9,1.732,1,5.72-9.9A3.908,3.908,0,0,0,54,30.905V22a2,2,0,0,1,4,0Z"></path><rect x="44" y="56" width="2" height="2"></rect><path d="M18.858,18.99l2.682.383a10.96,10.96,0,0,0,.678,1.639l-1.624,2.166a1,1,0,0,0,.093,1.307l2.828,2.828a1,1,0,0,0,1.307.093l2.166-1.624a10.96,10.96,0,0,0,1.639.678l.383,2.682A1,1,0,0,0,30,30h4a1,1,0,0,0,.99-.858l.383-2.682a10.9,10.9,0,0,0,1.639-.678l2.167,1.624a1,1,0,0,0,1.306-.093l2.828-2.828a1,1,0,0,0,.093-1.307l-1.625-2.166a10.86,10.86,0,0,0,.679-1.639l2.682-.383A1,1,0,0,0,46,18V14a1,1,0,0,0-.858-.99l-2.682-.383a10.86,10.86,0,0,0-.679-1.639l1.625-2.166a1,1,0,0,0-.093-1.307L40.485,4.687a1,1,0,0,0-1.306-.093L37.012,6.218a10.9,10.9,0,0,0-1.639-.678L34.99,2.858A1,1,0,0,0,34,2H30a1,1,0,0,0-.99.858L28.627,5.54a10.96,10.96,0,0,0-1.639.678L24.822,4.594a1,1,0,0,0-1.307.093L20.687,7.515a1,1,0,0,0-.093,1.307l1.624,2.166a10.96,10.96,0,0,0-.678,1.639l-2.682.383A1,1,0,0,0,18,14v4A1,1,0,0,0,18.858,18.99ZM20,14.867l2.463-.352a1,1,0,0,0,.828-.743,8.892,8.892,0,0,1,.975-2.356,1,1,0,0,0-.06-1.111l-1.492-1.99,1.6-1.6,1.99,1.492a1,1,0,0,0,1.111.06,8.892,8.892,0,0,1,2.356-.975,1,1,0,0,0,.743-.828L30.867,4h2.266l.351,2.463a1,1,0,0,0,.744.828,8.859,8.859,0,0,1,2.356.975,1,1,0,0,0,1.11-.06l1.991-1.492,1.6,1.6-1.492,1.99a1,1,0,0,0-.061,1.111,8.923,8.923,0,0,1,.977,2.357,1,1,0,0,0,.827.742L44,14.867v2.266l-2.463.352a1,1,0,0,0-.827.742,8.923,8.923,0,0,1-.977,2.357,1,1,0,0,0,.061,1.111l1.492,1.99-1.6,1.6-1.991-1.492a1,1,0,0,0-1.11-.06,8.859,8.859,0,0,1-2.356.975,1,1,0,0,0-.744.828L33.133,28H30.867l-.352-2.463a1,1,0,0,0-.743-.828,8.892,8.892,0,0,1-2.356-.975,1,1,0,0,0-1.111.06l-1.99,1.492-1.6-1.6,1.492-1.99a1,1,0,0,0,.06-1.111,8.892,8.892,0,0,1-.975-2.356,1,1,0,0,0-.828-.743L20,17.133Z"></path><path d="M32,22a6,6,0,1,0-6-6A6.006,6.006,0,0,0,32,22Zm0-10a4,4,0,1,1-4,4A4,4,0,0,1,32,12Z"></path><rect x="31" y="6" width="2" height="2"></rect><rect x="24.636" y="8.636" width="2" height="2" transform="translate(0.695 20.95) rotate(-45)"></rect><rect x="22" y="15" width="2" height="2"></rect><rect x="24.636" y="21.364" width="2" height="2" transform="translate(-8.305 24.678) rotate(-45)"></rect><rect x="31" y="24" width="2" height="2"></rect><rect x="37.364" y="21.364" width="2" height="2" transform="translate(-4.579 33.67) rotate(-44.99)"></rect><rect x="40" y="15" width="2" height="2"></rect><rect x="37.364" y="8.636" width="2" height="2" transform="translate(4.423 29.95) rotate(-45)"></rect><path d="M50,10a1,1,0,0,1,1-1h5.586l-1.293,1.293,1.414,1.414,3-3a1,1,0,0,0,0-1.414l-3-3L55.293,5.707,56.586,7H51a3,3,0,0,0-3,3V20h2Z"></path><rect x="48" y="22" width="2" height="2"></rect><rect x="48" y="26" width="2" height="2"></rect><rect x="52" y="11" width="2" height="2"></rect><rect x="52" y="15" width="2" height="2"></rect><path d="M7.293,11.707l1.414-1.414L7.414,9H13a1,1,0,0,1,1,1V20h2V10a3,3,0,0,0-3-3H7.414L8.707,5.707,7.293,4.293l-3,3a1,1,0,0,0,0,1.414Z"></path><rect x="14" y="22" width="2" height="2"></rect><rect x="14" y="26" width="2" height="2"></rect><rect x="10" y="11" width="2" height="2"></rect><rect x="10" y="15" width="2" height="2"></rect><path d="M26.293,32.293l-3,3,1.414,1.414L26,35.414V43h2V35.414l1.293,1.293,1.414-1.414-3-3A1,1,0,0,0,26.293,32.293Z"></path><rect x="26" y="45" width="2" height="2"></rect><rect x="26" y="49" width="2" height="2"></rect><path d="M40.707,35.293l-3-3a1,1,0,0,0-1.414,0l-3,3,1.414,1.414L36,35.414V43h2V35.414l1.293,1.293Z"></path><rect x="36" y="45" width="2" height="2"></rect><rect x="36" y="49" width="2" height="2"></rect></g></svg>