<svg xmlns="http://www.w3.org/2000/svg" viewBox="0 0 64 64" x="0px" y="0px"><g><path d="M52.935,12.043A7.011,7.011,0,0,0,46,6a6.928,6.928,0,0,0-4.051,1.292,11.994,11.994,0,0,0-21.533,3.6A6.984,6.984,0,0,0,10.083,16,8,8,0,1,0,10,32h5V30H10a6,6,0,0,1,0-12,5.914,5.914,0,0,1,.861.07,1.031,1.031,0,0,0,.8-.274A1.086,1.086,0,0,0,12,17a4.993,4.993,0,0,1,8.412-3.646,1,1,0,0,0,1.675-.606A9.993,9.993,0,0,1,40.82,9.29a1,1,0,0,0,1.6.226A5,5,0,0,1,51,13a1,1,0,0,0,1,1,8,8,0,0,1,0,16H41v2H52a10,10,0,0,0,.935-19.957Z"></path><rect x="47" y="12" width="2" height="2"></rect><rect x="43" y="12" width="2" height="2"></rect><path d="M56,22a4,4,0,0,1-4,4v2a6.006,6.006,0,0,0,6-6Z"></path><rect x="48" y="26" width="2" height="2"></rect><path d="M30,26H29V24H27v2H26a2,2,0,0,0-2,2v2a2,2,0,0,0,2,2h4v2H26V33H24v1a2,2,0,0,0,2,2h1v2h2V36h1a2,2,0,0,0,2-2V32a2,2,0,0,0-2-2H26V28h4v1h2V28A2,2,0,0,0,30,26Z"></path><path d="M39,31A11,11,0,1,0,28,42,11.013,11.013,0,0,0,39,31ZM28,40a9,9,0,1,1,9-9A9.011,9.011,0,0,1,28,40Z"></path><path d="M45,50a6,6,0,1,0,6,6A6.006,6.006,0,0,0,45,50Zm0,10a4,4,0,1,1,4-4A4,4,0,0,1,45,60Z"></path><path d="M10,46a5,5,0,1,0,5,5A5.006,5.006,0,0,0,10,46Zm0,8a3,3,0,1,1,3-3A3,3,0,0,1,10,54Z"></path><path d="M54,38a4,4,0,1,0,4,4A4,4,0,0,0,54,38Zm0,6a2,2,0,1,1,2-2A2,2,0,0,1,54,44Z"></path><rect x="9" y="42" width="2" height="2"></rect><rect x="9" y="38" width="2" height="2"></rect><rect x="9" y="34" width="2" height="2"></rect><rect x="44" y="46" width="2" height="2"></rect><rect x="44" y="42" width="2" height="2"></rect><rect x="44" y="36" width="2" height="4"></rect><rect x="53" y="34" width="2" height="2"></rect><polygon points="24 56 22 56 22 58 20 58 20 60 22 60 22 62 24 62 24 60 26 60 26 58 24 58 24 56"></polygon><rect x="22" y="52" width="2" height="2"></rect><rect x="22" y="48" width="2" height="2"></rect><polygon points="34 51 32 51 32 53 30 53 30 55 32 55 32 57 34 57 34 55 36 55 36 53 34 53 34 51"></polygon><rect x="32" y="47" width="2" height="2"></rect><rect x="32" y="43" width="2" height="2"></rect><rect x="22" y="44" width="2" height="2"></rect></g></svg>