<svg xmlns="http://www.w3.org/2000/svg" viewBox="0 0 512 512" x="0px" y="0px"><g data-name="Wedding"><path d="M250.343,165.657a8,8,0,0,0,11.314,0L295.6,131.716a24,24,0,0,0-33.943-33.941L256,103.432l-5.657-5.658a24.03,24.03,0,0,0-33.941,0h0a24.027,24.027,0,0,0,0,33.94Zm-22.628-56.568a8.011,8.011,0,0,1,11.314,0L250.343,120.4a8,8,0,0,0,11.314,0l11.313-11.313A8,8,0,0,1,284.285,120.4L256,148.686,227.716,120.4a8.01,8.01,0,0,1,0-11.314Z"></path><path d="M78.583,65.66A19.315,19.315,0,0,0,43.2,70.318l-.857,3.2-3.2-.857a19.314,19.314,0,1,0-10,37.311l32.784,8.785a8,8,0,0,0,9.8-5.657l8.784-32.785A19.189,19.189,0,0,0,78.583,65.66ZM65.057,76.174l-6.714,25.057L33.286,94.517A3.314,3.314,0,1,1,35,88.116L45.93,91.044a8,8,0,0,0,9.8-5.657l2.927-10.928a3.314,3.314,0,0,1,6.4,1.715Z"></path><path d="M496.512,87.288a19.34,19.34,0,0,0-23.655-13.657l-3.2.858-.857-3.2a19.314,19.314,0,1,0-37.312,10l8.784,32.784a8,8,0,0,0,9.8,5.658l32.784-8.785a19.315,19.315,0,0,0,13.658-23.655Zm-15.786,6.656a3.3,3.3,0,0,1-2.012,1.544L453.657,102.2l-6.714-25.057a3.321,3.321,0,0,1,3.2-4.174,3.342,3.342,0,0,1,1.654.446,3.3,3.3,0,0,1,1.544,2.012l2.927,10.928a8,8,0,0,0,9.8,5.658L477,89.086a3.314,3.314,0,0,1,3.728,4.858Z"></path><path d="M392,136v-8.022A39.962,39.962,0,0,0,408,96V73.888l7.155-14.31A7.994,7.994,0,0,0,416,56V48a32.036,32.036,0,0,0-32-32H312a8,8,0,0,0-6.656,12.438l13.425,20.137-5.924,11.847a8,8,0,0,0,3.577,10.733L328,76.944V96a39.962,39.962,0,0,0,16,31.978V136h-5.524a40.111,40.111,0,0,0-34.642,20L256,238.854,208.166,156a40.109,40.109,0,0,0-34.642-20H168v-8.022A39.962,39.962,0,0,0,184,96V76.944l11.578-5.789a8,8,0,0,0,3.577-10.733l-5.924-11.847,13.425-20.137A8,8,0,0,0,200,16H128A32.036,32.036,0,0,0,96,48v8a7.994,7.994,0,0,0,.845,3.578L104,73.888V96a39.962,39.962,0,0,0,16,31.978V136a48.054,48.054,0,0,0-48,48v84a20,20,0,0,0,24,19.6V448a24.028,24.028,0,0,0-24,24v16a8,8,0,0,0,8,8h48a7.994,7.994,0,0,0,3.578-.845L144,488.944l12.422,6.211A7.994,7.994,0,0,0,160,496h48a8,8,0,0,0,8-8V472a24.028,24.028,0,0,0-24-24V208l34.29,59.391A19.859,19.859,0,0,0,256,273.059a19.955,19.955,0,0,0,29.708-5.669L320,208V448a24.028,24.028,0,0,0-24,24v16a8,8,0,0,0,8,8h48a7.994,7.994,0,0,0,3.578-.845L368,488.944l12.422,6.211A7.994,7.994,0,0,0,384,496h48a8,8,0,0,0,8-8V472a24.028,24.028,0,0,0-24-24V287.6A20,20,0,0,0,440,268V184A48.054,48.054,0,0,0,392,136Zm32,48v56h-8V176H400v96H376V217.3l21.6-64.8A32.045,32.045,0,0,1,424,184Zm-59.578-24.845a8,8,0,0,0,7.156,0l8.325-4.162L368,190.7l-11.9-35.709ZM368,120a24.028,24.028,0,0,1-24-24V80h6.059a31.793,31.793,0,0,0,22.628-9.373L374.5,68.81A31.7,31.7,0,0,0,392,79.271V96A24.028,24.028,0,0,1,368,120Zm16-88a16.019,16.019,0,0,1,16,16v6.111L395.255,63.6a15.9,15.9,0,0,1-10.734-8.446l-1.366-2.733a8,8,0,0,0-12.812-2.08l-8.971,8.971A15.891,15.891,0,0,1,350.059,64h-12.17l-7.156-3.578,4.422-8.844a8,8,0,0,0-.5-8.015L326.948,32ZM368,136a40.028,40.028,0,0,0,8-.805v3.861l-8,4-8-4V135.2A40.028,40.028,0,0,0,368,136ZM144,190.7l-11.9-35.709,8.325,4.162a8,8,0,0,0,7.156,0l8.325-4.162Zm0-70.7a24.028,24.028,0,0,1-24-24V79.271A31.7,31.7,0,0,0,137.5,68.81l1.817,1.817A31.793,31.793,0,0,0,161.941,80H168V96A24.028,24.028,0,0,1,144,120ZM112,48a16.019,16.019,0,0,1,16-16h57.052l-7.708,11.563a8,8,0,0,0-.5,8.015l4.422,8.844L174.111,64h-12.17a15.891,15.891,0,0,1-11.313-4.686l-8.971-8.971a8,8,0,0,0-12.812,2.08l-1.366,2.732A15.9,15.9,0,0,1,116.745,63.6L112,54.111Zm32,88a40.028,40.028,0,0,0,8-.805v3.861l-8,4-8-4V135.2A40.028,40.028,0,0,0,144,136Zm-29.6,16.5L136,217.3V272H112V176H96v64H88V184A32.045,32.045,0,0,1,114.4,152.5ZM92,272a4,4,0,0,1-4-4V256h8v12A4,4,0,0,1,92,272Zm34.111,208H88v-8a8.009,8.009,0,0,1,8-8h40v11.056ZM200,472v8H161.889L152,475.056V464h40A8.009,8.009,0,0,1,200,472Zm-48-24V312H136V448H112V288h64V448Zm38.928-273.86a8,8,0,0,0-14.928,4V272H152V217.3l21.764-65.291A24.062,24.062,0,0,1,194.309,164l38.761,67.139-6.925,4Zm54.685,86.71a3.994,3.994,0,0,1-5.466-1.46l-6-10.4,6.925-4,6,10.39A4,4,0,0,1,245.613,260.85Zm22.767.54a3.953,3.953,0,0,1-1.994-.54,4,4,0,0,1-1.458-5.46l6-10.395,6.926,4-6,10.4A3.962,3.962,0,0,1,268.38,261.39Zm17.475-26.253-6.926-4L317.691,164a24.062,24.062,0,0,1,20.545-11.992L360,217.3V272H336V178.14a8,8,0,0,0-14.928-4ZM350.111,480H312v-8a8.009,8.009,0,0,1,8-8h40v11.056ZM424,472v8H385.889L376,475.056V464h40A8.009,8.009,0,0,1,424,472Zm-48-24V312H360V448H336V288h64V448Zm44-176a4,4,0,0,1-4-4V256h8v12A4,4,0,0,1,420,272Z"></path></g></svg>