<svg xmlns="http://www.w3.org/2000/svg" viewBox="0 0 64 64" x="0px" y="0px"><g data-name="Mobile Phone-Conversation-Communications-Retro-Telephone"><path d="M41,14H36V11a1,1,0,0,0-1-1V3a1,1,0,0,0-1-1H30a1,1,0,0,0-1,1v7a1,1,0,0,0-1,1v3H23a1,1,0,0,0-1,1V61a1,1,0,0,0,1,1H41a1,1,0,0,0,1-1V15A1,1,0,0,0,41,14ZM31,4h2v6H31Zm-1,8h4v2H30ZM40,60H24V57.41L27.41,54h9.18L40,57.41Zm0-5.41-2.29-2.3A1.033,1.033,0,0,0,37,52H27a1.033,1.033,0,0,0-.71.29L24,54.59V22.45l3.62,1.48A1.217,1.217,0,0,0,28,24h8a1.217,1.217,0,0,0,.38-.07L40,22.45ZM40,20.3,35.8,22H28.2L24,20.3V16H40Z"></path><rect x="30" y="18" width="4" height="2"></rect><rect x="29" y="56" width="6" height="2"></rect><rect x="31" y="38" width="2" height="2"></rect><rect x="35" y="38" width="2" height="2"></rect><rect x="27" y="38" width="2" height="2"></rect><rect x="31" y="42" width="2" height="2"></rect><rect x="35" y="42" width="2" height="2"></rect><rect x="27" y="42" width="2" height="2"></rect><rect x="31" y="46" width="2" height="2"></rect><rect x="35" y="46" width="2" height="2"></rect><rect x="27" y="46" width="2" height="2"></rect><rect x="31" y="28" width="2" height="2"></rect><rect x="35" y="28" width="2" height="2"></rect><rect x="27" y="28" width="2" height="2"></rect><rect x="31" y="32" width="2" height="2"></rect><rect x="35" y="32" width="2" height="2"></rect><rect x="27" y="32" width="2" height="2"></rect><path d="M42,10v2a2,2,0,0,1,2,2h2A4,4,0,0,0,42,10Z"></path><path d="M42,6V8a6.006,6.006,0,0,1,6,6h2A8.009,8.009,0,0,0,42,6Z"></path><path d="M42,2V4A10.011,10.011,0,0,1,52,14h2A12.013,12.013,0,0,0,42,2Z"></path></g></svg>