<svg xmlns="http://www.w3.org/2000/svg" viewBox="0 0 64 64" x="0px" y="0px"><g><path d="M27,15H9a1,1,0,0,0-1,1v6a1,1,0,0,0,1,1H27a1,1,0,0,0,1-1V16A1,1,0,0,0,27,15Zm-1,6H10V17H26Z"></path><rect x="8" y="25" width="6" height="2"></rect><rect x="16" y="25" width="12" height="2"></rect><rect x="8" y="29" width="14" height="2"></rect><rect x="24" y="29" width="4" height="2"></rect><rect x="8" y="33" width="4" height="2"></rect><rect x="14" y="33" width="14" height="2"></rect><rect x="18" y="10" width="8" height="2"></rect><rect x="18" y="7" width="4" height="2"></rect><path d="M60,40h-.286l2.172-8.091a1,1,0,0,0-.706-1.225l-2.9-.78a1,1,0,0,0-1.225.707L54.533,40H49v-.184A2.993,2.993,0,0,0,48,34H46V13a5,5,0,0,0-10,0V45a9,9,0,0,1-18,0V42H31a3,3,0,0,0,3-3V5a3,3,0,0,0-3-3H5A3,3,0,0,0,2,5V39a3,3,0,0,0,3,3H16v3a11,11,0,0,0,22,0V13a3,3,0,0,1,6,0V34H42a2.993,2.993,0,0,0-1,5.816v4.975L36.535,55a5,5,0,0,0,4.581,7h7.768a4.975,4.975,0,0,0,3.988-2H57a3,3,0,0,0,3-3V46a2,2,0,0,0,2-2V42A2,2,0,0,0,60,40ZM12,4V6.7l-.168-.252a1,1,0,0,0-1.664,0L10,6.7V4ZM4,39V5A1,1,0,0,1,5,4H8v6a1,1,0,0,0,1.832.555L11,8.8l1.168,1.752A1,1,0,0,0,14,10V4H31a1,1,0,0,1,1,1V39a1,1,0,0,1-1,1H5A1,1,0,0,1,4,39Zm54.726-6.9.969.26L57.643,40H56.6ZM43,45V40h4v5a.991.991,0,0,0,.084.4l1.427,3.26a8.074,8.074,0,0,0-1.181-.081,6.874,6.874,0,0,0-2.668.479,5.02,5.02,0,0,1-2,.361,4.947,4.947,0,0,1-1.425-.177L42.916,45.4A.991.991,0,0,0,43,45Zm-1-9h6a1,1,0,0,1,0,2H42a1,1,0,0,1,0-2Zm9.4,22.642A2.954,2.954,0,0,1,48.884,60H41.116a3,3,0,0,1-2.749-4.2l2.059-4.7a6.8,6.8,0,0,0,2.234.328,6.911,6.911,0,0,0,2.679-.48,5.678,5.678,0,0,1,3.974,0c.073.026.153.049.226.074L51.633,55.8A2.955,2.955,0,0,1,51.4,58.642ZM58,48H56v2h2v2H56v2h2v3a1,1,0,0,1-1,1H53.783a4.984,4.984,0,0,0-.318-3l-3.936-9H58Zm2-4H49V42H60Z"></path><rect x="42" y="56" width="2" height="2"></rect><rect x="46" y="53" width="2" height="2"></rect></g></svg>