<svg xmlns="http://www.w3.org/2000/svg" viewBox="0 0 64 64" x="0px" y="0px"><g data-name="Shopping-Sale-Discount-Shopping Cart-Ecommerce"><path d="M59,56H43V52H58a1.01,1.01,0,0,0,1-.92l1-12a1.013,1.013,0,0,0-.26-.76A1.029,1.029,0,0,0,59,38V31a1,1,0,0,0-1-1H55V27a1,1,0,0,0-1-1H46a1,1,0,0,0-1,1V38H43V35a1.033,1.033,0,0,0-.29-.71l-2-2A1.033,1.033,0,0,0,40,32H37.82A2.98,2.98,0,0,0,35,30h-.47a2.9,2.9,0,0,0-.93-1.41l-9.96-8.36-.01.01A1,1,0,0,0,23,20H20.97A4.924,4.924,0,0,0,22,17V15a3.02,3.02,0,0,0-1.08-2.29A3.976,3.976,0,0,0,22,10V9a1,1,0,0,0-1-1H15a3.009,3.009,0,0,0-3,3v6a4.924,4.924,0,0,0,1.03,3h-.37a4.994,4.994,0,0,0-3.54,1.46L3.46,27.12A4.994,4.994,0,0,0,2,30.66V37a3,3,0,0,0,6,0V31.07l2-2V40a1.033,1.033,0,0,0,.29.71L12,42.41v5.18l-5.71,5.7-3,3a1.008,1.008,0,0,0,0,1.42l5,5a1.014,1.014,0,0,0,1.42,0l1.58-1.59a3,3,0,0,0,0-4.24l-.32-.32L19,49.72V61a1,1,0,0,0,1,1h8a1,1,0,0,0,1-1V59a3.009,3.009,0,0,0-3-3H25V46a.969.969,0,0,0-.24-.65L24,44.46V28.36l.37.31c0,.01,5.37,4.52,5.37,4.52.1.07.2.14.3.2a2.913,2.913,0,0,0,.83,1.72A2.971,2.971,0,0,0,33,36h2a3.01,3.01,0,0,0,2.82-2h1.77L41,35.41V57a1,1,0,0,0,1,1h1.18a3,3,0,1,0,5.64,0h3.36a3,3,0,1,0,5.64,0H59a1,1,0,0,1,1,1h2A3.009,3.009,0,0,0,59,56Zm-6-6H51V48h2Zm0-4H51V44h2Zm0-4H51V40h2Zm4.08,8H55V48h2.25Zm.33-4H55V44h2.58Zm.34-4H55V40h2.91ZM57,32v6H51V32ZM47,28h6v2H50a1,1,0,0,0-1,1v7H47Zm0,12h2v2H47Zm0,4h2v2H47Zm0,4h2v2H47Zm-4-8h2v2H43Zm0,4h2v2H43Zm0,4h2v2H43ZM14,11a1,1,0,0,1,1-1h5a2.006,2.006,0,0,1-2,2H14Zm0,3h5a1,1,0,0,1,1,1v2a3,3,0,0,1-6,0ZM6.29,29.95a1.033,1.033,0,0,0-.29.71V37a1,1,0,0,1-2,0V30.66a2.956,2.956,0,0,1,.88-2.12l1.88-1.89,1.42,1.42Zm5.09-4.21a1,1,0,0,0-1.09.21l-.7.71L8.17,25.24l2.37-2.36A3,3,0,0,1,12.66,22H22V34H12V26.66A.987.987,0,0,0,11.38,25.74ZM9.88,59.71,9,60.59,5.41,57,7,55.41l2.88,2.88A1.008,1.008,0,0,1,9.88,59.71Zm-.33-4.57L8.41,54l5.3-5.29A1.033,1.033,0,0,0,14,48V44.41l3.75,3.75ZM12,39.59V36H22v6.13l-3.24-3.78-1.52,1.3L23,46.37V56H21V49a1.052,1.052,0,0,0-.29-.71ZM26,58a1,1,0,0,1,1,1v1H21V58ZM24.9,26.51l-.9-.76V23.14l2.19,1.84Zm6.13,5.15L26.44,27.8l1.28-1.53,4.6,3.85a1.005,1.005,0,0,1,.12,1.41.948.948,0,0,1-.68.35A.98.98,0,0,1,31.03,31.66ZM35,34H33a.959.959,0,0,1-.58-.21A2.919,2.919,0,0,0,34.45,32H35a.949.949,0,0,1,.71.31A.928.928,0,0,1,36,33,1,1,0,0,1,35,34ZM46,60a1,1,0,1,1,1-1A1,1,0,0,1,46,60Zm9,0a1,1,0,1,1,1-1A1,1,0,0,1,55,60Z"></path><rect x="43" y="12" width="8" height="2" transform="translate(4.572 37.038) rotate(-44.995)"></rect><rect x="43.172" y="9.172" width="2" height="2" transform="translate(5.749 34.22) rotate(-45.01)"></rect><rect x="48.828" y="14.828" width="2" height="2" transform="translate(3.406 39.878) rotate(-45.01)"></rect><path d="M47,22a9,9,0,1,0-9-9A9.01,9.01,0,0,0,47,22ZM47,6a7,7,0,1,1-7,7A7.008,7.008,0,0,1,47,6Z"></path><rect x="32" y="12" width="4" height="2"></rect><rect x="33.5" y="6.197" width="2" height="3.606" transform="translate(8.706 32.268) rotate(-56.31)"></rect><rect x="32.697" y="17" width="3.606" height="2" transform="translate(-4.19 22.16) rotate(-33.69)"></rect><rect x="58" y="12" width="4" height="2"></rect><rect x="57.697" y="7" width="3.606" height="2" transform="translate(5.555 34.348) rotate(-33.69)"></rect><rect x="58.5" y="16.197" width="2" height="3.606" transform="translate(11.518 57.522) rotate(-56.31)"></rect></g></svg>