<svg xmlns="http://www.w3.org/2000/svg" viewBox="0 0 64 64" x="0px" y="0px"><title>Tea</title><g><path d="M24.04,14h2c0-.574.209-.816.682-1.309a3.548,3.548,0,0,0,0-5.386C26.249,6.812,26.04,6.57,26.04,6s.209-.813.681-1.305A3.6,3.6,0,0,0,27.96,2h-2c0,.572-.209.813-.681,1.306a3.544,3.544,0,0,0,0,5.383c.473.493.682.735.682,1.309s-.209.816-.682,1.309A3.61,3.61,0,0,0,24.04,14Z"></path><path d="M14.04,14h2c0-.574.209-.816.682-1.309a3.548,3.548,0,0,0,0-5.386C16.249,6.812,16.04,6.57,16.04,6s.209-.813.681-1.305A3.6,3.6,0,0,0,17.96,2h-2c0,.572-.209.813-.681,1.306a3.544,3.544,0,0,0,0,5.383c.473.493.682.735.682,1.309s-.209.816-.682,1.309A3.61,3.61,0,0,0,14.04,14Z"></path><path d="M34.04,14h2c0-.574.209-.816.682-1.309a3.548,3.548,0,0,0,0-5.386C36.249,6.812,36.04,6.57,36.04,6s.209-.813.681-1.305A3.6,3.6,0,0,0,37.96,2h-2c0,.572-.209.813-.681,1.306a3.544,3.544,0,0,0,0,5.383c.473.493.682.735.682,1.309s-.209.816-.682,1.309A3.61,3.61,0,0,0,34.04,14Z"></path><path d="M57,16H3a1,1,0,0,0-1,1V47A15,15,0,0,0,9.548,60H2v2H53V60H42.452A15,15,0,0,0,50,47V38h7a5.006,5.006,0,0,0,5-5V21A5.006,5.006,0,0,0,57,16Zm-7,6h5a1,1,0,0,1,1,1v8a1,1,0,0,1-1,1H50ZM48,47A13.015,13.015,0,0,1,35,60H17A13.015,13.015,0,0,1,4,47V18H34V30H33a1,1,0,0,0-.6.2l-4,3a1,1,0,0,0-.4.8V47a1,1,0,0,0,1,1H41a1,1,0,0,0,1-1V34a1,1,0,0,0-.4-.8l-4-3A1,1,0,0,0,37,30H36V18H48ZM36.667,32,40,34.5V46H30V34.5L33.333,32ZM60,33a3,3,0,0,1-3,3H50V34h5a3,3,0,0,0,3-3V23a3,3,0,0,0-3-3H50V18h7a3,3,0,0,1,3,3Z"></path></g></svg>