<svg xmlns="http://www.w3.org/2000/svg" viewBox="0 0 64 64" x="0px" y="0px"><title>Snowman</title><g><path d="M46.479,33.335A1.988,1.988,0,0,0,47,32V26a2,2,0,0,0-2-2H40.649a9.978,9.978,0,0,0-4.038-13.874,2.984,2.984,0,0,0-3.563-4.371L22.876,1.619a1,1,0,0,0-1.367.789l-1.5,10.878a2.994,2.994,0,0,0,1.938,5.285c.027,0,.053-.009.08-.01-.007.146-.023.294-.023.439a9.959,9.959,0,0,0,1.351,5H19a2,2,0,0,0-2,2v6a1.988,1.988,0,0,0,.521,1.335,18,18,0,1,0,28.958,0ZM23.314,3.956,30.791,7l-8.582,4.955ZM21.072,16.072a1,1,0,0,1,.366-1.366l12.124-7a1,1,0,1,1,1,1.732l-.208.12-.021.012L22.438,16.438A1,1,0,0,1,21.072,16.072ZM24,19a8.17,8.17,0,0,1,.1-1.215l10.777-6.222A7.954,7.954,0,0,1,38.228,24H25.772A7.956,7.956,0,0,1,24,19Zm-5,7H45v6H19Zm18,8h4v6H37ZM32,60A15.975,15.975,0,0,1,19.537,34H35v6a2,2,0,0,0,2,2h4a2,2,0,0,0,2-2V34h1.463A15.975,15.975,0,0,1,32,60Z"></path><path d="M32.92,38.62a.757.757,0,0,0-.09-.18,1.576,1.576,0,0,0-.12-.15,1,1,0,0,0-1.09-.21,1.032,1.032,0,0,0-.33.21,1.014,1.014,0,0,0,0,1.42,1.032,1.032,0,0,0,.33.21A1,1,0,0,0,32,40a.99.99,0,0,0,1-1,1.5,1.5,0,0,0-.02-.2A.636.636,0,0,0,32.92,38.62Z"></path><path d="M32.92,19.62a.757.757,0,0,0-.09-.18,1.576,1.576,0,0,0-.12-.15,1.021,1.021,0,0,0-1.09-.21,1.032,1.032,0,0,0-.33.21,1.014,1.014,0,0,0,0,1.42,1.032,1.032,0,0,0,.33.21A1,1,0,0,0,32,21a.99.99,0,0,0,1-1,1.5,1.5,0,0,0-.02-.2A.636.636,0,0,0,32.92,19.62Z"></path><path d="M34.29,16.29a1,1,0,1,0,1.42,0A1.052,1.052,0,0,0,34.29,16.29Z"></path><path d="M29.92,16.62a.757.757,0,0,0-.09-.18l-.12-.15A1,1,0,0,0,28,17a1,1,0,0,0,.08.38,1.155,1.155,0,0,0,.21.33A1,1,0,0,0,30,17a1.5,1.5,0,0,0-.02-.2A.636.636,0,0,0,29.92,16.62Z"></path><path d="M31.62,44.08a1.032,1.032,0,0,0-.33.21,1.014,1.014,0,0,0,0,1.42,1.032,1.032,0,0,0,.33.21A1,1,0,0,0,32,46a1,1,0,0,0,.71-1.71A1,1,0,0,0,31.62,44.08Z"></path><path d="M31.62,50.08a1.032,1.032,0,0,0-.33.21,1.014,1.014,0,0,0,0,1.42,1.032,1.032,0,0,0,.33.21.943.943,0,0,0,.76,0,1.032,1.032,0,0,0,.33-.21,1.576,1.576,0,0,0,.12-.15.757.757,0,0,0,.09-.18.636.636,0,0,0,.06-.18A1.5,1.5,0,0,0,33,51a1.052,1.052,0,0,0-.29-.71A1,1,0,0,0,31.62,50.08Z"></path></g></svg>