<svg xmlns="http://www.w3.org/2000/svg" viewBox="0 0 64 64" x="0px" y="0px"><g><circle cx="47" cy="36" r="2"></circle><circle cx="32" cy="36" r="2"></circle><circle cx="17" cy="36" r="2"></circle><circle cx="23" cy="21" r="1"></circle><path d="M19,26H45a1,1,0,0,0,1-1V17a1,1,0,0,0-1-1H19a1,1,0,0,0-1,1v8A1,1,0,0,0,19,26Zm23-6h2v2H42Zm-4,0h2v2H38Zm-4,0h2v2H34Zm-4,0h2v2H30Zm-7-2a3,3,0,1,1-3,3A3,3,0,0,1,23,18Z"></path><path d="M45,4H19a1,1,0,0,0-1,1v8a1,1,0,0,0,1,1H45a1,1,0,0,0,1-1V5A1,1,0,0,0,45,4ZM23,12a3,3,0,1,1,3-3A3,3,0,0,1,23,12Zm9-2H30V8h2Zm4,0H34V8h2Zm4,0H38V8h2Zm4,0H42V8h2Z"></path><circle cx="23" cy="9" r="1"></circle><path d="M8,46v6H26V46Zm4,4H10V48h2Zm8,0H18V48h2Zm4,0H22V48h2Z"></path><path d="M26,54H8v6H26ZM12,58H10V56h2Zm8,0H18V56h2Zm4,0H22V56h2Z"></path><path d="M56,54H38v6H56ZM42,58H40V56h2Zm8,0H48V56h2Zm4,0H52V56h2Z"></path><path d="M38,46v6H56V46Zm4,4H40V48h2Zm8,0H48V48h2Zm4,0H52V48h2Z"></path><path d="M51,22H48V20h2V10H48V8h3a1,1,0,0,1,1,1V21A1,1,0,0,1,51,22Z"></path><path d="M16,22H13a1,1,0,0,1-1-1V9a1,1,0,0,1,1-1h3v2H14V20h2Z"></path><rect x="31" y="28" width="2" height="4"></rect><rect x="21" y="35" width="7" height="2"></rect><rect x="36" y="35" width="7" height="2"></rect><rect x="46" y="40" width="2" height="3"></rect><rect x="16" y="40" width="2" height="3"></rect></g></svg>