<svg xmlns="http://www.w3.org/2000/svg" viewBox="0 0 64 64" x="0px" y="0px"><g><path d="M42.709,31.772a8.892,8.892,0,0,0-.975-2.356,1,1,0,0,1,.06-1.111l1.492-1.99-1.6-1.6L39.7,26.206a1,1,0,0,1-1.111.06,8.892,8.892,0,0,0-2.356-.975,1,1,0,0,1-.743-.828L35.133,22H32.867l-.352,2.463a1,1,0,0,1-.743.828,8.892,8.892,0,0,0-2.356.975,1,1,0,0,1-1.111-.06l-1.99-1.492-1.6,1.6,1.492,1.99a1,1,0,0,1,.06,1.111,8.892,8.892,0,0,0-.975,2.356,1,1,0,0,1-.828.743L22,32.867v2.266l2.463.352a1,1,0,0,1,.828.743,8.892,8.892,0,0,0,.975,2.356,1,1,0,0,1-.06,1.111l-1.492,1.99,1.6,1.6,1.99-1.492a1,1,0,0,1,1.111-.06,8.892,8.892,0,0,0,2.356.975,1,1,0,0,1,.743.828L32.867,46h2.266l.352-2.463a1,1,0,0,1,.743-.828,8.892,8.892,0,0,0,2.356-.975,1,1,0,0,1,1.111.06l1.99,1.492,1.6-1.6L41.794,39.7a1,1,0,0,1-.06-1.111,8.892,8.892,0,0,0,.975-2.356,1,1,0,0,1,.828-.743L46,35.133V32.867l-2.463-.352A1,1,0,0,1,42.709,31.772ZM34,37a2.993,2.993,0,0,1-1-5.816V27h2v4.184A2.993,2.993,0,0,1,34,37Z"></path><path d="M8,10H60V5a1,1,0,0,0-1-1H9A1,1,0,0,0,8,5ZM26,6H52V8H26ZM20,6h2V8H20ZM16,6h2V8H16ZM12,6h2V8H12Z"></path><circle cx="34" cy="34" r="1"></circle><path d="M60,55V12H8V55a1,1,0,0,0,1,1H59A1,1,0,0,0,60,55ZM34,54A20,20,0,1,1,54,34,20.023,20.023,0,0,1,34,54Z"></path><path d="M5,60H53a1,1,0,0,0,1-1V58H9a3,3,0,0,1-3-3V18H4V59A1,1,0,0,0,5,60Z"></path><path d="M4,16H6V10H5a1,1,0,0,0-1,1Z"></path><path d="M51.949,33A17.9,17.9,0,0,0,47.4,22.019l-1.374,1.375-1.415-1.415,1.375-1.374A17.9,17.9,0,0,0,35,16.051V18H33V16.051a17.9,17.9,0,0,0-10.981,4.554l1.375,1.374-1.415,1.415-1.374-1.375A17.9,17.9,0,0,0,16.051,33H18v2H16.051a17.975,17.975,0,0,0,35.9,0H50V33ZM48,36a1,1,0,0,1-.858.99l-2.682.383a10.96,10.96,0,0,1-.678,1.639l1.624,2.166a1,1,0,0,1-.093,1.307l-2.828,2.828a1,1,0,0,1-1.307.093l-2.166-1.624a11,11,0,0,1-1.639.678l-.383,2.682A1,1,0,0,1,36,48H32a1,1,0,0,1-.99-.858l-.383-2.682a10.96,10.96,0,0,1-1.639-.678l-2.166,1.624a1,1,0,0,1-1.307-.093l-2.828-2.828a1,1,0,0,1-.093-1.307l1.624-2.166a10.96,10.96,0,0,1-.678-1.639l-2.682-.383A1,1,0,0,1,20,36V32a1,1,0,0,1,.858-.99l2.682-.383a10.96,10.96,0,0,1,.678-1.639l-1.624-2.166a1,1,0,0,1,.093-1.307l2.828-2.828a1,1,0,0,1,1.307-.093l2.166,1.624a10.96,10.96,0,0,1,1.639-.678l.383-2.682A1,1,0,0,1,32,20h4a1,1,0,0,1,.99.858l.383,2.682a11,11,0,0,1,1.639.678l2.166-1.624a1,1,0,0,1,1.307.093l2.828,2.828a1,1,0,0,1,.093,1.307l-1.624,2.166a10.96,10.96,0,0,1,.678,1.639l2.682.383A1,1,0,0,1,48,32Z"></path></g></svg>