<svg xmlns="http://www.w3.org/2000/svg" viewBox="0 0 64 64" x="0px" y="0px"><title>Mirror_1</title><g data-name="Mirror"><path d="M56,26a1,1,0,0,0-1-1H51.979C51.54,12.229,42.749,2,32,2S12.46,12.229,12.021,25H9a1,1,0,0,0-1,1c0,14.253,9.178,26.045,21,27.773V56H21a1,1,0,0,0-1,1v4a1,1,0,0,0,1,1H43a1,1,0,0,0,1-1V57a1,1,0,0,0-1-1H35V53.773C46.822,52.045,56,40.253,56,26ZM32,4c9.925,0,18,9.869,18,22S41.925,48,32,48,14,38.131,14,26,22.075,4,32,4ZM10.016,27h2.005C12.46,39.771,21.251,50,32,50S51.54,39.771,51.979,27h2.005C53.537,40.875,43.848,52,32,52S10.463,40.875,10.016,27ZM42,60H22V58H42Zm-9-6v2H31V54Z"></path><path d="M32,46c8.822,0,16-8.972,16-20S40.822,6,32,6,16,14.972,16,26,23.178,46,32,46ZM32,8c7.72,0,14,8.075,14,18S39.72,44,32,44,18,35.925,18,26,24.28,8,32,8Z"></path><rect x="22.515" y="19" width="16.971" height="2" transform="translate(-5.062 27.778) rotate(-45)"></rect><rect x="17.515" y="18" width="16.971" height="2" transform="translate(-5.82 23.95) rotate(-45)"></rect></g></svg>