<svg xmlns="http://www.w3.org/2000/svg" viewBox="0 0 64 64" x="0px" y="0px"><g data-name="Idea Programming"><polygon points="32.057 33 25.943 33 29 37.279 32.057 33"></polygon><rect x="24" y="50" width="10" height="2"></rect><rect x="27" y="54" width="4" height="1"></rect><path d="M23.5,42.517a1,1,0,0,1,.5.865V45H34V43.382a1,1,0,0,1,.5-.865,11,11,0,1,0-11,0Zm-.39-10.975A1,1,0,0,1,24,31H34a1,1,0,0,1,.814,1.581l-5,7a1,1,0,0,1-1.628,0l-5-7A1,1,0,0,1,23.111,31.542Z"></path><path d="M4,11v5H54V11a1,1,0,0,0-1-1H5A1,1,0,0,0,4,11Zm16,1H46v2H20Zm-6,0h2v2H14Zm-4,0h2v2H10ZM6,12H8v2H6Z"></path><path d="M60,53V12H56V54h3A1,1,0,0,0,60,53Z"></path><path d="M55.816,10H60V5a1,1,0,0,0-1-1H11a1,1,0,0,0-1,1V8H53A3,3,0,0,1,55.816,10Z"></path><path d="M5,60H53a1,1,0,0,0,1-1V18H4V59A1,1,0,0,0,5,60Zm8.045-17.634-1-1.732,3.465-2,1,1.732ZM36,53a1,1,0,0,1-1,1H33v2a1,1,0,0,1-1,1H26a1,1,0,0,1-1-1V54H23a1,1,0,0,1-1-1V49a1,1,0,0,1,1-1H35a1,1,0,0,1,1,1Zm8.955-10.634-3.465-2,1-1.732,3.465,2ZM48,33H44V31h4ZM44.955,21.634l1,1.732-3.465,2-1-1.732ZM29,20a12.993,12.993,0,0,1,7,23.943V46a1,1,0,0,1-1,1H23a1,1,0,0,1-1-1V43.943A12.993,12.993,0,0,1,29,20ZM13.045,21.634l3.465,2-1,1.732-3.465-2ZM10,31h4v2H10Z"></path></g></svg>