<svg xmlns="http://www.w3.org/2000/svg" viewBox="0 0 64 64" x="0px" y="0px"><g><path d="M30,23a6,6,0,0,0,0-12H27.937A8,8,0,0,0,12.573,7.042,3.915,3.915,0,0,0,12,7a4,4,0,0,0-4,4A6,6,0,0,0,8,23ZM4,17a4,4,0,0,1,4-4H9.184a1,1,0,0,0,.942-1.333A1.973,1.973,0,0,1,12,9a1.96,1.96,0,0,1,.813.179,1.006,1.006,0,0,0,.845-.011,1,1,0,0,0,.535-.654,6,6,0,1,1,11.555,3.2A1,1,0,0,0,26.706,13H30a4,4,0,0,1,0,8H8A4,4,0,0,1,4,17Z"></path><rect x="22" y="11" width="2" height="2"></rect><rect x="18" y="11" width="2" height="2"></rect><path d="M60,48a2,2,0,0,0,2-2V38a2,2,0,0,0-2-2H34a2,2,0,0,0-2,2v8a2,2,0,0,0,2,2h1v2H34a2,2,0,0,0-2,2v8a2,2,0,0,0,2,2H60a2,2,0,0,0,2-2V52a2,2,0,0,0-2-2H59V48ZM34,38H60v8H34Zm7,12V48H53v2Zm-4-2h2v2H37ZM60,60H34V52H60ZM57,50H55V48h2Z"></path><path d="M55,39a3,3,0,1,0,3,3A3,3,0,0,0,55,39Zm0,4a1,1,0,1,1,1-1A1,1,0,0,1,55,43Z"></path><rect x="48" y="41" width="2" height="2"></rect><rect x="44" y="41" width="2" height="2"></rect><rect x="40" y="41" width="2" height="2"></rect><rect x="36" y="41" width="2" height="2"></rect><path d="M55,59a3,3,0,1,0-3-3A3,3,0,0,0,55,59Zm0-4a1,1,0,1,1-1,1A1,1,0,0,1,55,55Z"></path><rect x="48" y="55" width="2" height="2"></rect><rect x="44" y="55" width="2" height="2"></rect><rect x="40" y="55" width="2" height="2"></rect><rect x="36" y="55" width="2" height="2"></rect><rect x="31" y="7" width="2" height="2"></rect><rect x="35.167" y="7.365" width="2" height="1.999" transform="translate(21.657 42.534) rotate(-80.013)"></rect><rect x="39.208" y="8.448" width="2" height="2" transform="translate(17.567 43.992) rotate(-69.981)"></rect><rect x="43" y="10.215" width="2" height="2" transform="translate(12.29 43.716) rotate(-60.005)"></rect><rect x="46.427" y="12.615" width="1.999" height="1.999" transform="translate(6.509 41.19) rotate(-49.994)"></rect><rect x="49.385" y="15.573" width="2" height="2" transform="translate(1.131 36.254) rotate(-39.988)"></rect><rect x="51.785" y="19" width="1.999" height="1.999" transform="translate(-2.927 29.08) rotate(-30.009)"></rect><rect x="53.553" y="22.791" width="1.999" height="2" transform="translate(-4.847 20.085) rotate(-19.993)"></rect><rect x="54.635" y="26.832" width="2" height="2" transform="translate(-3.987 10.079) rotate(-9.996)"></rect><rect x="55" y="31" width="2" height="2"></rect><rect x="26.833" y="54.636" width="2" height="1.999" transform="translate(-31.787 73.398) rotate(-80.013)"></rect><rect x="22.791" y="53.553" width="2" height="2" transform="translate(-35.609 58.231) rotate(-69.981)"></rect><rect x="19" y="51.785" width="2" height="2" transform="translate(-35.714 43.718) rotate(-60.005)"></rect><rect x="15.574" y="49.385" width="1.999" height="1.999" transform="translate(-32.675 30.689) rotate(-49.994)"></rect><rect x="12.615" y="46.427" width="2" height="2" transform="translate(-27.295 19.839) rotate(-39.988)"></rect><rect x="10.216" y="43" width="1.999" height="1.999" transform="translate(-20.502 11.507) rotate(-30.009)"></rect><rect x="8.448" y="39.208" width="1.999" height="2" transform="translate(-13.178 5.653) rotate(-19.993)"></rect><rect x="7.365" y="35.168" width="2" height="2" transform="translate(-6.151 2.001) rotate(-9.996)"></rect><rect x="7" y="31" width="2" height="2"></rect><rect x="7.365" y="26.832" width="2" height="2" transform="translate(-20.497 31.239) rotate(-80.004)"></rect><path d="M13,32a18.953,18.953,0,0,1,1.2-6.65l-1.873-.7A21.017,21.017,0,0,0,29.9,52.9l.2-1.99A18.925,18.925,0,0,1,13,32Z"></path><path d="M52.9,34.1c.069-.691.1-1.4.1-2.1A20.987,20.987,0,0,0,37.249,11.662l-.5,1.936A18.989,18.989,0,0,1,51,32c0,.636-.031,1.276-.094,1.9Z"></path></g></svg>