<svg xmlns="http://www.w3.org/2000/svg" viewBox="0 0 64 64" x="0px" y="0px"><g><circle cx="19" cy="24" r="2"></circle><circle cx="27" cy="24" r="2"></circle><path d="M26.308,30.75l-1.325-1.5a3.074,3.074,0,0,1-3.966,0l-1.325,1.5a5,5,0,0,0,6.616,0Z"></path><path d="M50,45a6,6,0,1,0,6,6A6.006,6.006,0,0,0,50,45Zm0,10a4,4,0,1,1,4-4A4,4,0,0,1,50,55Z"></path><path d="M61.2,48.02l-1.78-.36a9,9,0,0,0-.4-.97l1-1.5a.986.986,0,0,0-.12-1.26L57.07,41.1a.987.987,0,0,0-1.26-.12l-1.5,1c-.32-.15-.64-.28-.97-.4l-.36-1.78A1,1,0,0,0,52,39H48a1,1,0,0,0-.98.8l-.36,1.78c-.33.12-.65.25-.97.4l-1.5-1a.986.986,0,0,0-1.26.12l-2.57,2.57a8.778,8.778,0,0,0-2.67-1.37L28,39.27V36.79A11.028,11.028,0,0,0,33.95,28H34a4,4,0,0,0,0-8h1a2.006,2.006,0,0,0,2-2V16a2.006,2.006,0,0,0-2-2h-.05a10.919,10.919,0,0,0-3.17-6.78,11.048,11.048,0,0,0-5.91-3.06,2.985,2.985,0,0,0-5.74.01A10.919,10.919,0,0,0,11.05,14H11a2.006,2.006,0,0,0-2,2v2a2.006,2.006,0,0,0,2,2h1a4,4,0,1,0,0,8h.05A11.028,11.028,0,0,0,18,36.79v2.48L8.31,42.3A8.941,8.941,0,0,0,2,50.88V61a1,1,0,0,0,1,1H43a.994.994,0,0,0,.98-.88,1,1,0,0,0,.21-.1l1.5-1c.32.15.64.28.97.4l.36,1.78A1,1,0,0,0,48,63h4a1,1,0,0,0,.98-.8l.36-1.78c.33-.12.65-.25.97-.4l1.5,1a.986.986,0,0,0,1.26-.12l2.83-2.83a.986.986,0,0,0,.12-1.26l-1-1.5a9,9,0,0,0,.4-.97l1.78-.36A1,1,0,0,0,62,53V49A1,1,0,0,0,61.2,48.02ZM12,26a2.015,2.015,0,0,1-2-2,2.006,2.006,0,0,1,2-2Zm24-2a2.015,2.015,0,0,1-2,2V22A2.006,2.006,0,0,1,36,24ZM26,6.23a9.527,9.527,0,0,1,2,.71V12h2V8.3c.12.11.25.22.36.34A8.94,8.94,0,0,1,32.95,14H26ZM22,5a1,1,0,0,1,2,0v9H22ZM16,8.28V12h2V6.93a9.118,9.118,0,0,1,2-.7V14H13.05A9.034,9.034,0,0,1,16,8.28ZM11,18V16H35v2Zm3,9V20H32v7a9,9,0,0,1-18,0Zm9,13.88-3-1.5V37.57a10.68,10.68,0,0,0,6,0v1.81Zm1.67,3.54L23.38,47h-.76l-1.29-2.58L23,43.23ZM19.14,60H12V50H10V60H4V50.88A6.964,6.964,0,0,1,8.91,44.2L15,42.3V47a1.008,1.008,0,0,0,.54.89A1.072,1.072,0,0,0,16,48a.959.959,0,0,0,.58-.19l3.1-2.21,1.28,2.56ZM17,45.06V41.67l1.91-.59,2.16,1.07ZM21.17,60l1.69-11h.28l1.69,11Zm5.92-18.92,1.91.59v3.39l-4.07-2.91ZM42,60H36V50H34V60H26.86L25.04,48.16l1.28-2.56,3.1,2.21A.959.959,0,0,0,30,48a1.072,1.072,0,0,0,.46-.11A1.008,1.008,0,0,0,31,47V42.3l6.09,1.9a6.99,6.99,0,0,1,3.75,2.83c-.09.21-.19.42-.26.63l-1.78.36A1,1,0,0,0,38,49v4a1,1,0,0,0,.8.98l1.78.36a9,9,0,0,0,.4.97l-1,1.5a.986.986,0,0,0,.12,1.26l1.9,1.9Zm18-7.82-1.55.31a.984.984,0,0,0-.76.71,8.359,8.359,0,0,1-.7,1.69,1,1,0,0,0,.04,1.04l.88,1.31-1.67,1.67-1.31-.88a1.017,1.017,0,0,0-1.05-.04,8.044,8.044,0,0,1-1.68.7.984.984,0,0,0-.71.76L51.18,61H48.82l-.31-1.55a.984.984,0,0,0-.71-.76,8.044,8.044,0,0,1-1.68-.7,1.017,1.017,0,0,0-1.05.04l-1.31.88-1.67-1.67.88-1.31a1,1,0,0,0,.04-1.04,8.359,8.359,0,0,1-.7-1.69.984.984,0,0,0-.76-.71L40,52.18V49.82l1.55-.31a.984.984,0,0,0,.76-.71,8.359,8.359,0,0,1,.7-1.69,1,1,0,0,0-.04-1.04l-.88-1.31,1.67-1.67,1.31.88a1.017,1.017,0,0,0,1.05.04,8.044,8.044,0,0,1,1.68-.7.984.984,0,0,0,.71-.76L48.82,41h2.36l.31,1.55a.984.984,0,0,0,.71.76,8.044,8.044,0,0,1,1.68.7,1.017,1.017,0,0,0,1.05-.04l1.31-.88,1.67,1.67-.88,1.31a1,1,0,0,0-.04,1.04,8.359,8.359,0,0,1,.7,1.69.984.984,0,0,0,.76.71l1.55.31Z"></path></g></svg>