<svg xmlns="http://www.w3.org/2000/svg" viewBox="0 0 64 64" x="0px" y="0px"><g data-name="Pharmacist"><path d="M18.508,38.906l4.959,3.857-4.4-10.391a1,1,0,0,1,.1-.927l.837-1.255c-.324.06-.641.136-.954.223l-1.8,4.216,2.308,1.539a1,1,0,0,1,.152,1.539Z"></path><path d="M35,17a1,1,0,0,0,0-2Z"></path><path d="M34.753,34.629l-1.8-4.218q-.47-.13-.953-.221l.837,1.255a1,1,0,0,1,.1.927l-4.4,10.391,4.959-3.857-1.2-1.2a1,1,0,0,1,.152-1.539Z"></path><path d="M35.541,11.018c-.179.1-.353.217-.541.3V13a2.974,2.974,0,0,1,.956.17A10.087,10.087,0,0,0,35.541,11.018Z"></path><polygon points="22.073 30.692 21.124 32.117 22.444 35.417 24.575 33.819 22.073 30.692"></polygon><path d="M43,47V43H41v4a1,1,0,0,1-1,1H36v2h4a1,1,0,0,1,1,1v4h2V51a1,1,0,0,1,1-1h4V48H44A1,1,0,0,1,43,47Z"></path><path d="M25,60V46.489l-8.614-6.7a1,1,0,0,1-.093-1.5l1.137-1.138-1.985-1.323a1,1,0,0,1-.364-1.226l1.3-3.048A10.994,10.994,0,0,0,11,41V60h4V41h2V60Z"></path><path d="M42,38A11,11,0,1,0,53,49,11.013,11.013,0,0,0,42,38Zm7,14H45v4a1,1,0,0,1-1,1H40a1,1,0,0,1-1-1V52H35a1,1,0,0,1-1-1V47a1,1,0,0,1,1-1h4V42a1,1,0,0,1,1-1h4a1,1,0,0,1,1,1v4h4a1,1,0,0,1,1,1v4A1,1,0,0,1,49,52Z"></path><path d="M17,13V11a1,1,0,0,1,1-1H32a4.727,4.727,0,0,0,1.652-.288,4.771,4.771,0,0,0,1.694-1A5,5,0,0,0,37,5V4H26a9.991,9.991,0,0,0-9.961,9.172A2.974,2.974,0,0,1,17,13Z"></path><path d="M39.882,36.188a11,11,0,0,0-4.274-4.646l1.311,3.064a1,1,0,0,1-.364,1.226L34.57,37.155l.727.727A12.893,12.893,0,0,1,39.882,36.188Z"></path><path d="M17,17V15a1,1,0,0,0,0,2Z"></path><path d="M29,49a12.908,12.908,0,0,1,.924-4.785L27,46.489V60h8.1A12.989,12.989,0,0,1,29,49Z"></path><polygon points="28.763 37.322 26 35.25 23.237 37.322 26 43.538 28.763 37.322"></polygon><polygon points="30.876 32.117 29.927 30.692 27.425 33.819 29.556 35.417 30.876 32.117"></polygon><path d="M19,12v9a3,3,0,0,0,3,3h8a3,3,0,0,0,3-3V11.93A7.166,7.166,0,0,1,32,12Zm4,1a1,1,0,1,1-1,1A1,1,0,0,1,23,13Zm3,9a4,4,0,0,1-4-4h2a2,2,0,0,0,4,0h2A4,4,0,0,1,26,22Zm3-7a1,1,0,1,1,1-1A1,1,0,0,1,29,15Z"></path><polygon points="29 28.65 29 26 23 26 23 28.65 26 32.399 29 28.65"></polygon></g></svg>