<svg xmlns="http://www.w3.org/2000/svg" viewBox="0 0 48 48" x="0px" y="0px"><title>Make-Money-Grow</title><g><path d="M25,24.051V22.007a6.884,6.884,0,0,0,.006-1.61,6.831,6.831,0,0,0,1.509.169,6.635,6.635,0,0,0,3.88-1.24,6.749,6.749,0,0,0,2.715-6.284,1,1,0,0,0-.567-.787,6.739,6.739,0,0,0-6.821.578A6.586,6.586,0,0,0,25,13.44V12.007a6.889,6.889,0,0,0,0-1.636,6.835,6.835,0,0,0,1.407.148A6.637,6.637,0,0,0,30.4,9.2a6.749,6.749,0,0,0,2.591-6.337,1,1,0,0,0-.582-.775A6.742,6.742,0,0,0,25.6,2.8a6.637,6.637,0,0,0-2.439,3.679A6.482,6.482,0,0,0,22.4,5.8a6.745,6.745,0,0,0-6.809-.712,1,1,0,0,0-.582.775A6.749,6.749,0,0,0,17.6,12.2a6.64,6.64,0,0,0,3.989,1.319A6.82,6.82,0,0,0,23,13.37v2.948a6.616,6.616,0,0,0-.6-.518,6.747,6.747,0,0,0-6.809-.712,1,1,0,0,0-.582.775A6.749,6.749,0,0,0,17.6,22.2a6.64,6.64,0,0,0,3.989,1.319A6.82,6.82,0,0,0,23,23.37v.681a11,11,0,1,0,2,0Zm1.89-9.595a4.716,4.716,0,0,1,4.268-.607A4.641,4.641,0,0,1,25,18.321v-.636A4.684,4.684,0,0,1,26.89,14.456ZM26.8,4.4a4.719,4.719,0,0,1,4.255-.69A4.719,4.719,0,0,1,29.2,7.6a4.717,4.717,0,0,1-4.255.69A4.719,4.719,0,0,1,26.8,4.4Zm-8,6.2a4.719,4.719,0,0,1-1.855-3.892A4.62,4.62,0,0,1,23,10.5v.81A4.713,4.713,0,0,1,18.8,10.6Zm0,10a4.719,4.719,0,0,1-1.855-3.892A4.62,4.62,0,0,1,23,20.5v.81A4.71,4.71,0,0,1,18.8,20.6ZM24,44a9,9,0,1,1,9-9A9.01,9.01,0,0,1,24,44Z"></path><path d="M26,30H25V28H23v2H22a2,2,0,0,0-2,2v2a2,2,0,0,0,2,2h4v2H22V37H20v1a2,2,0,0,0,2,2h1v2h2V40h1a2,2,0,0,0,2-2V36a2,2,0,0,0-2-2H22V32h4v1h2V32A2,2,0,0,0,26,30Z"></path><rect x="29" y="34" width="2" height="2"></rect><rect x="17" y="34" width="2" height="2"></rect></g></svg>