<svg xmlns="http://www.w3.org/2000/svg" viewBox="0 0 64 64" x="0px" y="0px"><title>Sent-Book</title><g><path d="M60,30V55H33V54a3,3,0,0,1,3-3H57a1,1,0,0,0,1-1V32H56V49H36a4.967,4.967,0,0,0-3,1.012V18a3,3,0,0,1,3-3h2V13H36a5,5,0,0,0-4,2,5,5,0,0,0-4-2H7a1,1,0,0,0-1,1v5H3a1,1,0,0,0-1,1V56a1,1,0,0,0,1,1H61a1,1,0,0,0,1-1V30ZM8,15H28a3,3,0,0,1,3,3V50.012A4.967,4.967,0,0,0,28,49H8ZM4,21H6V50a1,1,0,0,0,1,1H28a3,3,0,0,1,3,3v1H4Z"></path><rect x="12" y="23" width="14" height="2"></rect><rect x="12" y="31" width="14" height="2"></rect><rect x="12" y="39" width="14" height="2"></rect><rect x="38" y="39" width="14" height="2"></rect><path d="M43.6,23.3l5.869,1.2,3.975,4.483a1,1,0,0,0,.748.336.97.97,0,0,0,.244-.03,1,1,0,0,0,.73-.74l4.8-20.32a1,1,0,0,0-1.66-.958l-15.2,14.321A1,1,0,0,0,43.6,23.3Zm10.062,2.915-2.439-2.751L56.459,14.4ZM54.727,13.4l-5.233,9.064-3.6-.737Z"></path></g></svg>