<svg xmlns="http://www.w3.org/2000/svg" viewBox="0 0 64 64" x="0px" y="0px"><g><path d="M11.414,56H52.586l-4-4H15.414ZM46,53h2v2H46Zm-4,0h2v2H42ZM24,53H40v2H24Zm-4,0h2v2H20Zm-4,0h2v2H16Z"></path><rect x="10" y="58" width="44" height="2"></rect><path d="M19,50H17V48a1,1,0,0,0-1-1H10a3,3,0,0,1,0-6h6a1,1,0,0,0,1-1V38h2v2a3,3,0,0,1-3,3H10a1,1,0,0,0,0,2h6a3,3,0,0,1,3,3Z"></path><path d="M32,4C26.276,4,22,6.112,22,8s4.276,4,10,4S42,9.888,42,8,37.724,4,32,4Zm6,5H26V7H38Z"></path><path d="M53,9V30H11V9a1,1,0,0,1,1-1h8V22c0,3.42,5.16,6,12,6s12-2.58,12-6V8h8A1,1,0,0,1,53,9Z"></path><path d="M42,11.406C39.886,12.994,36.271,14,32,14s-7.886-1.006-10-2.594V15c0,1.888,4.276,4,10,4s10-2.112,10-4ZM25,16H23V14h2Zm4,1H27V15h2Z"></path><path d="M22,18.406V22c0,1.888,4.276,4,10,4s10-2.112,10-4V18.406C39.886,19.994,36.271,21,32,21S24.114,19.994,22,18.406ZM25,23H23V21h2Zm4,1H27V22h2Z"></path><path d="M11,35a1,1,0,0,0,1,1H52a1,1,0,0,0,1-1V32H11Zm36-2h2v2H47Z"></path><rect x="23" y="44" width="18" height="2"></rect><rect x="28" y="38" width="8" height="4"></rect></g></svg>