<svg xmlns="http://www.w3.org/2000/svg" viewBox="0 0 64 64" x="0px" y="0px"><g data-name="Handbag"><rect x="43" y="32" width="2" height="28"></rect><path d="M42,28a1,1,0,0,0,0,2h4a1,1,0,0,0,0-2Z"></path><path d="M19,26h2V17a11,11,0,0,1,22,0v9h2V17a13,13,0,0,0-26,0Z"></path><path d="M22,30a1,1,0,0,0,0-2H18a1,1,0,0,0,0,2Z"></path><path d="M5.374,34.476A83.516,83.516,0,0,0,4,46,83.516,83.516,0,0,0,5.374,57.524,2.99,2.99,0,0,0,8.328,60H17V32H8.328A2.99,2.99,0,0,0,5.374,34.476Z"></path><rect x="19" y="32" width="2" height="28"></rect><path d="M55.672,32H47V60h8.672a2.989,2.989,0,0,0,2.954-2.476A83.363,83.363,0,0,0,60,46a83.363,83.363,0,0,0-1.374-11.524A2.989,2.989,0,0,0,55.672,32Z"></path><path d="M41,60V32H23V60ZM26,49a1,1,0,0,1,1-1H37a1,1,0,0,1,1,1v6a1,1,0,0,1-1,1H27a1,1,0,0,1-1-1Z"></path><rect x="28" y="50" width="8" height="4"></rect></g></svg>