<svg xmlns="http://www.w3.org/2000/svg" viewBox="0 0 64 64" x="0px" y="0px"><g data-name="Traffic Light"><path d="M32,5a3,3,0,1,0,3,3A3,3,0,0,0,32,5Zm0,4a1,1,0,1,1,1-1A1,1,0,0,1,32,9Z"></path><path d="M32,12a3,3,0,1,0,3,3A3,3,0,0,0,32,12Zm0,4a1,1,0,1,1,1-1A1,1,0,0,1,32,16Z"></path><path d="M32,19a3,3,0,1,0,3,3A3,3,0,0,0,32,19Zm0,4a1,1,0,1,1,1-1A1,1,0,0,1,32,23Z"></path><path d="M39,18a1,1,0,0,0,.97-.757l1-4A1,1,0,0,0,40,12H38V11h1a1,1,0,0,0,.97-.757l1-4A1,1,0,0,0,40,5H38V3a1,1,0,0,0-1-1H27a1,1,0,0,0-1,1V5H24a1,1,0,0,0-.97,1.243l1,4A1,1,0,0,0,25,11h1v1H24a1,1,0,0,0-.97,1.243l1,4A1,1,0,0,0,25,18h1v1H24a1,1,0,0,0-.97,1.243l1,4A1,1,0,0,0,25,25h1v2a1,1,0,0,0,1,1h2V56H26a1,1,0,0,0-1,1v4a1,1,0,0,0,1,1H38a1,1,0,0,0,1-1V57a1,1,0,0,0-1-1H35V28h2a1,1,0,0,0,1-1V25h1a1,1,0,0,0,.97-.757l1-4A1,1,0,0,0,40,19H38V18Zm-.281-4-.5,2H38V14Zm0-7-.5,2H38V7ZM25.781,9l-.5-2H26V9Zm0,7-.5-2H26v2Zm0,7-.5-2H26v2ZM37,60H27V58H37Zm-4-4H31V28h2Zm3-30H28V4h8Zm2.719-5-.5,2H38V21Z"></path></g></svg>