<svg xmlns="http://www.w3.org/2000/svg" viewBox="0 0 64 64" x="0px" y="0px"><g><path d="M29.18,30a2.868,2.868,0,0,0,0,2H17v4H15V31a1,1,0,0,1,1-1Z"></path><path d="M31,25h2v3.18a2.868,2.868,0,0,0-2,0Z"></path><path d="M49,31v5H47V32H34.82a2.868,2.868,0,0,0,0-2H48A1,1,0,0,1,49,31Z"></path><path d="M20.17,13.08A4.994,4.994,0,0,0,21,23H43a5,5,0,0,0,0-10H41.93a.981.981,0,0,1-.75-.34.968.968,0,0,1-.24-.78A8.477,8.477,0,0,0,41,11,6.993,6.993,0,0,0,27.77,7.83a1.012,1.012,0,0,1-1.27.47A3.936,3.936,0,0,0,25,8a4,4,0,0,0-4,3.96c0,.04.01.09.01.11A1.011,1.011,0,0,1,20.17,13.08ZM37,11h2v2H37Zm-4,0h2v2H33Z"></path><path d="M16,60c5.72,0,10-2.11,10-4V52.41C23.89,53.99,20.27,55,16,55S8.11,53.99,6,52.41V56C6,57.89,10.28,60,16,60Zm-5-4h2v2H11ZM7,55H9v2H7Z"></path><path d="M16,53c5.72,0,10-2.11,10-4V45.41C23.89,46.99,20.27,48,16,48S8.11,46.99,6,45.41V49C6,50.89,10.28,53,16,53Zm-5-4h2v2H11ZM7,48H9v2H7Z"></path><path d="M16,38c-5.72,0-10,2.11-10,4s4.28,4,10,4,10-2.11,10-4S21.72,38,16,38Zm6,5H10V41H22Z"></path><path d="M48,53c5.72,0,10-2.11,10-4V45.41C55.89,46.99,52.27,48,48,48s-7.89-1.01-10-2.59V49C38,50.89,42.28,53,48,53Zm-5-4h2v2H43Zm-4-1h2v2H39Z"></path><path d="M48,38c-5.72,0-10,2.11-10,4s4.28,4,10,4,10-2.11,10-4S53.72,38,48,38Zm6,5H42V41H54Z"></path><path d="M48,60c5.72,0,10-2.11,10-4V52.41C55.89,53.99,52.27,55,48,55s-7.89-1.01-10-2.59V56C38,57.89,42.28,60,48,60Zm-5-4h2v2H43Zm-4-1h2v2H39Z"></path><path d="M56,19a2.993,2.993,0,0,0-1,5.816V27h2V24.816A2.993,2.993,0,0,0,56,19Z"></path><rect x="55" y="29" width="2" height="2"></rect><rect x="55" y="33" width="2" height="2"></rect><path d="M8,19a2.993,2.993,0,0,0-1,5.816V27H9V24.816A2.993,2.993,0,0,0,8,19Z"></path><rect x="7" y="29" width="2" height="2"></rect><rect x="7" y="33" width="2" height="2"></rect><circle cx="32" cy="31" r="1"></circle></g></svg>