<svg xmlns="http://www.w3.org/2000/svg" viewBox="0 0 64 64" x="0px" y="0px"><g data-name="Smartphone-Light Control-Remote-Connection-Electronics"><path d="M19.533,19.769A8,8,0,0,0,13.865,6a8.093,8.093,0,0,0-7.86,7.7A8.011,8.011,0,0,0,8.392,19.7,5.17,5.17,0,0,1,9.961,23H8v2h2v2a2,2,0,0,0,2,2h1V46a1,1,0,0,0,1,1h6V45H15V29h1a2,2,0,0,0,2-2V25h2V23H18.037A4.981,4.981,0,0,1,19.533,19.769Zm-9.74-1.5A5.927,5.927,0,0,1,8,13.778,6.069,6.069,0,0,1,13.9,8,5.993,5.993,0,0,1,18.15,18.324,7.011,7.011,0,0,0,16.01,23H11.99A7.162,7.162,0,0,0,9.793,18.269ZM12,27V25h4v2Z"></path><path d="M17,14H15a1,1,0,0,1-2,0H11a3,3,0,0,0,2,2.816V21h2V16.816A3,3,0,0,0,17,14Z"></path><rect x="13" y="2" width="2" height="2"></rect><rect x="7.5" y="3.474" width="2" height="2" transform="translate(-1.098 4.85) rotate(-30.002)"></rect><rect x="3.474" y="7.5" width="2" height="2" transform="translate(-5.124 8.124) rotate(-59.998)"></rect><rect x="2" y="13" width="2" height="2"></rect><rect x="3.474" y="18.5" width="2" height="2" transform="translate(-9.149 4.848) rotate(-29.995)"></rect><rect x="22.526" y="18.5" width="2" height="2" transform="translate(-5.125 30.123) rotate(-59.998)"></rect><rect x="24" y="13" width="2" height="2"></rect><rect x="22.526" y="7.5" width="2" height="2" transform="translate(-1.099 12.9) rotate(-29.995)"></rect><rect x="18.5" y="3.474" width="2" height="2" transform="translate(5.877 19.126) rotate(-60.005)"></rect><path d="M58,14a8,8,0,0,0-8.136-8,8.09,8.09,0,0,0-7.858,7.7,8.006,8.006,0,0,0,2.386,5.99A5.17,5.17,0,0,1,45.961,23H44v2h2v2a2,2,0,0,0,2,2h1V45H44v2h6a1,1,0,0,0,1-1V29h1a2,2,0,0,0,2-2V25h2V23H54.037a4.979,4.979,0,0,1,1.5-3.231A7.915,7.915,0,0,0,58,14ZM48,27V25h4v2Zm4.01-4H47.99a7.166,7.166,0,0,0-2.2-4.731A5.923,5.923,0,0,1,44,13.778,6.067,6.067,0,0,1,49.9,8,5.993,5.993,0,0,1,54.15,18.324,7.009,7.009,0,0,0,52.01,23Z"></path><path d="M50,15a1,1,0,0,1-1-1H47a3,3,0,0,0,2,2.816V21h2V16.816A3,3,0,0,0,53,14H51A1,1,0,0,1,50,15Z"></path><rect x="49" y="2" width="2" height="2"></rect><rect x="43.5" y="3.474" width="2" height="2" transform="translate(3.725 22.851) rotate(-30.002)"></rect><rect x="39.473" y="7.5" width="2" height="2" transform="translate(12.878 39.304) rotate(-60.005)"></rect><rect x="38" y="13" width="2" height="2"></rect><rect x="39.473" y="18.5" width="2" height="2" transform="translate(-4.328 22.845) rotate(-29.995)"></rect><rect x="58.526" y="18.5" width="2" height="2" transform="translate(12.88 61.306) rotate(-60.005)"></rect><rect x="60" y="13" width="2" height="2"></rect><rect x="58.526" y="7.5" width="2" height="2" transform="translate(3.723 30.897) rotate(-29.995)"></rect><rect x="54.5" y="3.474" width="2" height="2" transform="translate(23.88 50.304) rotate(-60.005)"></rect><path d="M37,32H27a5.006,5.006,0,0,0-5,5V57a5.006,5.006,0,0,0,5,5H37a5.006,5.006,0,0,0,5-5V37A5.006,5.006,0,0,0,37,32Zm3,25a3,3,0,0,1-3,3H27a3,3,0,0,1-3-3V37a3,3,0,0,1,3-3H37a3,3,0,0,1,3,3Z"></path><rect x="30" y="36" width="4" height="2"></rect><rect x="26" y="36" width="2" height="2"></rect><rect x="30" y="56" width="4" height="2"></rect><rect x="31" y="50" width="2" height="2"></rect><path d="M28.464,47.464l1.414,1.414a3.075,3.075,0,0,1,4.243,0l1.414-1.414a5,5,0,0,0-7.071,0Z"></path><path d="M25.636,44.636,27.05,46.05a7,7,0,0,1,9.9,0l1.414-1.414a9,9,0,0,0-12.728,0Z"></path><rect x="9" y="33" width="2" height="2"></rect><rect x="9" y="37" width="2" height="2"></rect><rect x="9" y="41" width="2" height="2"></rect><rect x="9" y="45" width="2" height="2"></rect><rect x="18" y="49" width="2" height="2"></rect><rect x="14" y="49" width="2" height="2"></rect><rect x="9" y="49" width="2" height="2"></rect><rect x="53" y="33" width="2" height="2"></rect><rect x="53" y="37" width="2" height="2"></rect><rect x="53" y="41" width="2" height="2"></rect><rect x="53" y="45" width="2" height="2"></rect><rect x="48" y="49" width="2" height="2"></rect><rect x="44" y="49" width="2" height="2"></rect><rect x="53" y="49" width="2" height="2"></rect></g></svg>