<svg xmlns="http://www.w3.org/2000/svg" viewBox="0 0 64 64" x="0px" y="0px"><g><rect x="26" y="50" width="2" height="6"></rect><polygon points="28.59 34 30 32.59 30 32 24 32 24 32.59 25.41 34 28.59 34"></polygon><rect x="20" y="46" width="14" height="2"></rect><path d="M46,16a1.033,1.033,0,0,1,.71.29l5,5A1.033,1.033,0,0,1,52,22V47a1,1,0,0,1-1,1H43a1,1,0,0,0-1,1v7H54.52L58,51.65V13a3.009,3.009,0,0,0-3-3H39.31a6.867,6.867,0,0,1,0,6Zm7-3a2,2,0,1,1-2,2A2,2,0,0,1,53,13Z"></path><rect x="22" y="42" width="10" height="2"></rect><path d="M22,30H32V19.92A6.991,6.991,0,0,1,32,6.08V4H22Z"></path><rect x="14" y="58" width="46" height="2"></rect><path d="M33,8a5,5,0,1,0,5,5A5,5,0,0,0,33,8Zm0,7a2,2,0,1,1,2-2A2,2,0,0,1,33,15Z"></path><rect x="18" y="40" width="18" height="2"></rect><path d="M4.567,26.019,3.051,27.536,4.465,28.95l1.516-1.517A3.915,3.915,0,0,0,7,27.858V30H9V27.858a3.915,3.915,0,0,0,1.019-.425l1.516,1.517,1.414-1.414-1.516-1.517A3.915,3.915,0,0,0,11.858,25H14V23H11.858a3.915,3.915,0,0,0-.425-1.019l1.516-1.517L11.535,19.05l-1.516,1.517A3.915,3.915,0,0,0,9,20.142V18H7v2.142a3.915,3.915,0,0,0-1.019.425L4.465,19.05,3.051,20.464l1.516,1.517A3.915,3.915,0,0,0,4.142,23H2v2H4.142A3.915,3.915,0,0,0,4.567,26.019ZM8,22a2,2,0,1,1-2,2A2,2,0,0,1,8,22Z"></path><path d="M15,36h3V34H15.414l-2.707-2.707-1.414,1.414,3,3A1,1,0,0,0,15,36Z"></path><rect x="2" y="33" width="2" height="2"></rect><rect x="6" y="33" width="4" height="2"></rect><rect x="2" y="37" width="8" height="2"></rect></g></svg>