<svg xmlns="http://www.w3.org/2000/svg" viewBox="0 0 64 64" x="0px" y="0px"><g data-name="Cactus"><path d="M41.664,11.52c.19.344.373.7.541,1.057.077.166.145.339.217.509.129.3.255.606.368.919.071.193.134.39.2.586.1.3.192.611.277.923.056.205.11.41.159.619.077.32.143.644.2.971.038.2.078.407.111.614.056.36.1.724.135,1.091.018.178.043.354.057.534.017.218.022.438.033.657H47v2H43.972c-.005.115-.01.23-.017.345-.009.142-.024.282-.036.423-.026.306-.055.61-.093.912-.02.16-.044.318-.068.476-.043.288-.092.572-.146.855-.03.153-.059.3-.092.457-.066.3-.141.6-.22.9-.032.121-.06.243-.095.363-.119.415-.249.825-.393,1.226-.009.022-.019.044-.027.067q-.205.561-.445,1.1c-.053.12-.111.235-.166.352-.082.175-.159.353-.246.524h5.549A18.7,18.7,0,0,0,49,26.674c1.437-4.2,1.319-8.674-.312-11.975A8.155,8.155,0,0,0,44,10.378a7.448,7.448,0,0,0-3.244-.33q.4.57.755,1.188C41.567,11.328,41.612,11.426,41.664,11.52Z"></path><path d="M22.072,30c-.087-.171-.164-.349-.246-.524-.055-.117-.113-.232-.166-.352q-.238-.538-.445-1.1c-.008-.023-.018-.045-.027-.067-.144-.4-.274-.811-.393-1.226-.035-.12-.063-.242-.1-.363-.079-.3-.154-.6-.22-.9-.033-.152-.062-.3-.092-.457-.054-.283-.1-.567-.146-.855-.024-.158-.048-.316-.068-.476-.038-.3-.067-.606-.093-.912-.012-.141-.027-.281-.036-.423-.007-.115-.012-.23-.017-.345H17V20h3.029c0-.111.009-.223.016-.334.009-.144.025-.287.037-.431.025-.3.052-.594.089-.889.021-.166.047-.332.072-.5.041-.271.085-.539.136-.806.032-.169.067-.337.1-.5.057-.264.121-.524.188-.784.042-.159.082-.319.127-.477.08-.277.168-.549.259-.82.044-.132.084-.266.131-.4.142-.394.294-.781.46-1.159.02-.046.044-.09.065-.136.133-.3.271-.591.419-.876a7.3,7.3,0,0,0-2.313.236,8.149,8.149,0,0,0-4.942,4.025c-1.829,3.19-2.219,7.647-1.042,11.924A17.724,17.724,0,0,0,14.475,30Z"></path><path d="M39.8,29.711c.09-.157.179-.315.263-.476.1-.182.187-.368.276-.555.076-.162.153-.324.225-.49.085-.2.163-.4.241-.6.064-.166.129-.332.188-.5.074-.211.14-.427.2-.643.052-.168.1-.335.151-.506.062-.226.114-.457.167-.687.038-.168.08-.334.114-.5.049-.244.087-.493.126-.742.026-.161.056-.32.078-.482.036-.277.06-.557.084-.837.012-.139.03-.276.04-.416.027-.421.042-.845.042-1.272a16.509,16.509,0,0,0-3.775-10.934A8.616,8.616,0,0,0,33,7.076v6.51l1.121-1.122,1.414,1.414L33,16.414v5.172l1.121-1.122,1.414,1.414L33,24.414V30h6.626C39.685,29.9,39.744,29.809,39.8,29.711Z"></path><path d="M22,21c0,.427.015.851.042,1.272.01.14.028.277.04.416.024.28.048.56.084.837.022.162.052.321.078.482.039.249.077.5.126.742.034.17.076.336.114.5.053.23.1.461.167.687.046.171.1.338.151.506.065.216.131.432.205.643.059.169.124.335.188.5.078.2.156.4.241.6.072.166.149.328.225.49.089.187.18.373.276.555.084.161.173.319.263.476.056.1.115.193.174.289H31V24.414l-2.535-2.536,1.414-1.414L31,21.586V16.414l-2.535-2.536,1.414-1.414L31,13.586V7.075a9.445,9.445,0,0,0-6.427,4.583l0,0a14.762,14.762,0,0,0-1.1,2.06A17.563,17.563,0,0,0,22.21,18.2c-.073.5-.134,1-.168,1.515Q22,20.353,22,21Z"></path><path d="M53,32H14V53a7.008,7.008,0,0,0,7,7H43a7.008,7.008,0,0,0,7-7V48h3a5.006,5.006,0,0,0,5-5V37A5.006,5.006,0,0,0,53,32ZM43,57H41V55h2Zm4,0H45V55h2Zm0-4H45V51h2Zm9-10a3,3,0,0,1-3,3H50V34h3a3,3,0,0,1,3,3Z"></path><rect x="31" y="2" width="2" height="4"></rect><rect x="47.492" y="9.407" width="4.9" height="2" transform="translate(7.269 38.363) rotate(-45)"></rect><rect x="51" y="18" width="4" height="2"></rect><rect x="12.327" y="11.45" width="2" height="3.754" transform="translate(-5.52 13.327) rotate(-45)"></rect><rect x="8" y="21" width="4" height="2"></rect><rect x="40.95" y="5.5" width="5.099" height="2" transform="translate(28.587 47.878) rotate(-78.679)"></rect><rect x="18.5" y="5.95" width="2" height="5.099" transform="translate(-1.288 3.989) rotate(-11.31)"></rect></g></svg>