<svg xmlns="http://www.w3.org/2000/svg" viewBox="0 0 64 64" x="0px" y="0px"><g><path d="M30.483,27.878c.452,2.5,1.122,3.956,1.559,4.128.386-.172,1.035-1.631,1.479-4.127-.506-.21-1.014-.444-1.521-.687C31.5,27.435,30.988,27.667,30.483,27.878Z"></path><path d="M33.517,16.123c-.452-2.5-1.122-3.957-1.559-4.129-.386.172-1.035,1.631-1.48,4.128.507.211,1.015.443,1.522.686C32.505,16.565,33.012,16.334,33.517,16.123Z"></path><rect x="10" y="13" width="2" height="2"></rect><path d="M33.3,19.75c-.446-.258-.877-.489-1.3-.709-.422.22-.852.452-1.3.709-.222.128-.438.26-.655.392C30.018,20.735,30,21.351,30,22s.018,1.265.046,1.858c.217.132.433.264.655.392.446.257.876.489,1.3.709.423-.22.853-.452,1.3-.709.222-.128.438-.26.655-.392C33.982,23.265,34,22.649,34,22s-.018-1.265-.046-1.858C33.737,20.01,33.521,19.878,33.3,19.75Z"></path><path d="M25.767,23.315c-.374.348-.723.7-1.031,1.039-1.3,1.445-1.544,2.39-1.4,2.646.258.447,2.065.536,4.931-.429-.063-.524-.113-1.048-.152-1.565C27.28,24.459,26.491,23.892,25.767,23.315Z"></path><path d="M25.767,20.685c.724-.577,1.513-1.144,2.352-1.691.039-.516.089-1.04.152-1.563a12.478,12.478,0,0,0-3.733-.757c-.671,0-1.084.129-1.2.326-.148.256.1,1.2,1.4,2.646C25.044,19.99,25.393,20.337,25.767,20.685Z"></path><circle cx="14" cy="32" r="1"></circle><path d="M36.678,22c-.221-.171-.451-.34-.684-.508,0,.17.006.345.006.508s0,.338-.006.508C36.227,22.34,36.457,22.171,36.678,22Z"></path><path d="M27.322,22c.221.171.451.34.684.508C28,22.338,28,22.163,28,22s0-.338.006-.508C27.773,21.66,27.543,21.829,27.322,22Z"></path><path d="M38.233,23.315c-.724.577-1.513,1.144-2.352,1.691-.039.517-.089,1.041-.152,1.565,2.865.964,4.672.877,4.931.429.148-.256-.1-1.2-1.4-2.646C38.956,24.01,38.607,23.663,38.233,23.315Z"></path><path d="M35.729,17.428c.063.525.113,1.049.152,1.566.839.547,1.628,1.114,2.352,1.691.374-.348.723-.7,1.031-1.039,1.3-1.445,1.544-2.39,1.4-2.646C40.4,16.552,38.594,16.464,35.729,17.428Z"></path><path d="M60,40H4v3a3,3,0,0,0,3,3H57a3,3,0,0,0,3-3Z"></path><path d="M60,9a3,3,0,0,0-3-3H7A3,3,0,0,0,4,9V38H60ZM8,15V13h2V11h2v2h2v2H12v2H10V15Zm6,20a3,3,0,1,1,3-3A3,3,0,0,1,14,35ZM40.752,23.019C43.023,25.55,42.9,27.125,42.393,28a3.2,3.2,0,0,1-3,1.336,13.406,13.406,0,0,1-3.974-.76C34.854,31.526,33.808,34,32,34s-2.854-2.474-3.421-5.424a13.406,13.406,0,0,1-3.974.76,3.2,3.2,0,0,1-3-1.336c-.5-.875-.63-2.45,1.641-4.981.3-.338.643-.678,1-1.019-.359-.341-.7-.681-1-1.019C20.977,18.45,21.1,16.875,21.607,16c1-1.723,3.791-1.618,6.974-.583C29.147,12.47,30.194,10,32,10s2.853,2.47,3.419,5.416c3.183-1.035,5.977-1.14,6.974.584.505.875.63,2.45-1.641,4.981-.3.338-.643.678-1,1.019C40.109,22.341,40.45,22.681,40.752,23.019ZM50,31H48v2H46V31H44V29h2V27h2v2h2Zm0-16a3,3,0,1,1,3-3A3,3,0,0,1,50,15Z"></path><rect x="23" y="58" width="18" height="2"></rect><circle cx="50" cy="12" r="1"></circle><rect x="27" y="48" width="10" height="8"></rect><rect x="46" y="29" width="2" height="2"></rect></g></svg>