<svg xmlns="http://www.w3.org/2000/svg" viewBox="0 0 48 48" x="0px" y="0px"><g><path d="M34,9h4.586L33,3.414V8A1,1,0,0,0,34,9Z"></path><path d="M37,25H11a7,7,0,1,0,6.781,8.75A1,1,0,0,1,18.75,33h10.5a1,1,0,0,1,.969.75A7,7,0,1,0,37,25ZM14,33H12v2H10V33H8V31h2V29h2v2h2Zm9-2H21V29h2Zm5,0H26V29h2Zm6,2H32V31h2Zm1-4h2v2H35Zm3,6H36V33h2Zm3-2H39V31h2Z"></path><path d="M34,11a3.009,3.009,0,0,1-3-3V2H9A1,1,0,0,0,8,3V23.53A8.805,8.805,0,0,1,11,23H21V21h2V19a2.006,2.006,0,0,1,2-2h4V14h2v3a2.006,2.006,0,0,1-2,2H25v2h2v2H37a8.805,8.805,0,0,1,3,.53V11ZM12,6h2V8H12Zm8,6H12V10h8Zm0-4H16V6h4Z"></path><path d="M40,40.47V45a1,1,0,0,1-1,1H9a1,1,0,0,1-1-1V40.47A8.805,8.805,0,0,0,11,41a9.005,9.005,0,0,0,8.49-6h9.02A9.005,9.005,0,0,0,37,41,8.805,8.805,0,0,0,40,40.47Z"></path></g></svg>