<svg xmlns="http://www.w3.org/2000/svg" viewBox="0 0 64 64" x="0px" y="0px"><g><path d="M53,45a8,8,0,1,0-8-8A8.009,8.009,0,0,0,53,45Zm0-14a6,6,0,1,1-6,6A6.006,6.006,0,0,1,53,31Z"></path><path d="M52,42h2V41a2,2,0,0,0,2-2V38a2,2,0,0,0-2-2H52V35h4V33H54V32H52v1a2,2,0,0,0-2,2v1a2,2,0,0,0,2,2h2v1H50v2h2Z"></path><path d="M29,35a8,8,0,1,0,8,8A8.009,8.009,0,0,0,29,35Zm0,14a6,6,0,1,1,6-6A6.006,6.006,0,0,1,29,49Z"></path><path d="M30,38H28v1a2,2,0,0,0-2,2v1a2,2,0,0,0,2,2h2v1H26v2h2v1h2V47a2,2,0,0,0,2-2V44a2,2,0,0,0-2-2H28V41h4V39H30Z"></path><path d="M18,32a8,8,0,1,0-8,8A8.009,8.009,0,0,0,18,32ZM4,32a6,6,0,1,1,6,6A6.006,6.006,0,0,1,4,32Z"></path><path d="M11,37V36a2,2,0,0,0,2-2V33a2,2,0,0,0-2-2H9V30h4V28H11V27H9v1a2,2,0,0,0-2,2v1a2,2,0,0,0,2,2h2v1H7v2H9v1Z"></path><path d="M56.773,50.174a8.98,8.98,0,0,1,1.836.578l.8-1.832a10.95,10.95,0,0,0-2.248-.707Z"></path><path d="M44.822,54.843A8,8,0,0,0,38,51v2a6.006,6.006,0,0,1,6,6h2a9.011,9.011,0,0,1,9-9V48A11.011,11.011,0,0,0,44.822,54.843Z"></path><path d="M18.835,58.463A5.987,5.987,0,0,0,14,56v2a4,4,0,0,1,4,4h2a6.006,6.006,0,0,1,6-6V54A8,8,0,0,0,18.835,58.463Z"></path><path d="M9.2,58.4l1.6,1.2a4.015,4.015,0,0,1,1.591-1.264l-.806-1.83A6.019,6.019,0,0,0,9.2,58.4Z"></path><path d="M10,19a1,1,0,0,0,.707-.293l3-3-1.414-1.414L11,15.586V8H9v7.586L7.707,14.293,6.293,15.707l3,3A1,1,0,0,0,10,19Z"></path><path d="M28,30a1,1,0,0,0,.707-.293l3-3-1.414-1.414L29,26.586V19H27v7.586l-1.293-1.293-1.414,1.414,3,3A1,1,0,0,0,28,30Z"></path><path d="M38.707,12.707l3-3L40.293,8.293,39,9.586V2H37V9.586L35.707,8.293,34.293,9.707l3,3a1,1,0,0,0,1.414,0Z"></path><path d="M53,23a1,1,0,0,0,.707-.293l3-3-1.414-1.414L54,19.586V14H52v5.586l-1.293-1.293-1.414,1.414,3,3A1,1,0,0,0,53,23Z"></path><rect x="9" y="4" width="2" height="2"></rect><rect x="27" y="15" width="2" height="2"></rect><rect x="27" y="11" width="2" height="2"></rect><rect x="52" y="10" width="2" height="2"></rect><rect x="52" y="6" width="2" height="2"></rect></g></svg>