<svg xmlns="http://www.w3.org/2000/svg" viewBox="0 0 64 64" x="0px" y="0px"><g><rect x="29" y="58" width="9" height="2"></rect><rect x="29" y="50" width="9" height="2"></rect><rect x="29" y="54" width="9" height="2"></rect><rect x="29" y="42" width="9" height="2"></rect><path d="M60,18H54V47a3,3,0,0,0,6,0Z"></path><rect x="29" y="46" width="9" height="2"></rect><path d="M53.03,50A4.924,4.924,0,0,1,52,47V5.24a2.116,2.116,0,0,1-.11.21C51.36,6.52,50.62,8,49,8s-2.35-1.47-2.88-2.55C45.69,4.6,45.37,4,45.01,4s-.68.6-1.11,1.45C43.37,6.52,42.63,8,41.01,8s-2.36-1.48-2.89-2.55C37.69,4.6,37.36,4,37.01,4s-.68.6-1.11,1.45C35.37,6.52,34.63,8,33.01,8s-2.36-1.48-2.89-2.55C29.69,4.6,29.36,4,29.01,4s-.68.6-1.11,1.45C27.37,6.52,26.63,8,25.01,8s-2.36-1.48-2.89-2.55C21.69,4.6,21.36,4,21.01,4s-.68.6-1.11,1.45C19.37,6.52,18.63,8,17.01,8s-2.36-1.48-2.9-2.56c-.04-.07-.08-.14-.11-.2V40H38a2.006,2.006,0,0,1,2,2v8ZM48,38H44V36h4Zm0-4H44V32h4Zm0-4H44V28h4Zm0-4H44V24h4ZM34,12H48v2H34Zm-4,0h2v2H30Zm0,4H48v2H30Zm-7,1H21a3,3,0,0,1,0-6V10h2v1a3,3,0,0,1,3,3H24a1,1,0,0,0-1-1H21a1,1,0,0,0,0,2h2a3,3,0,0,1,0,6v1H21V21a3,3,0,0,1-3-3h2a1,1,0,0,0,1,1h2a1,1,0,0,0,0-2Zm-5,7H42v2H18Zm0,4H42v2H18Zm0,4H42v2H18Zm0,6V36H42v2Z"></path><rect x="4" y="58" width="9" height="2"></rect><rect x="4" y="50" width="9" height="2"></rect><rect x="4" y="42" width="9" height="2"></rect><path d="M15,60H27V42H15Zm7-8H20a3,3,0,0,1,0-6V45h2v1a3,3,0,0,1,3,3H23a1,1,0,0,0-1-1H20a1,1,0,0,0,0,2h2a3,3,0,0,1,0,6v1H20V56a3,3,0,0,1-3-3h2a1,1,0,0,0,1,1h2a1,1,0,0,0,0-2Z"></path><rect x="4" y="54" width="9" height="2"></rect><rect x="4" y="46" width="9" height="2"></rect></g></svg>