<svg xmlns="http://www.w3.org/2000/svg" viewBox="0 0 64 64" x="0px" y="0px"><title>Envelope-Letter</title><g><path d="M59,26H54V15c0-.022-.011-.041-.013-.063a.945.945,0,0,0-.051-.257c-.011-.032-.019-.063-.033-.094a1,1,0,0,0-.2-.293l-12-12a.992.992,0,0,0-.294-.2c-.03-.013-.06-.021-.091-.032a.975.975,0,0,0-.262-.052C41.039,2.011,41.021,2,41,2H15a5.006,5.006,0,0,0-5,5V26H5a3,3,0,0,0-3,3V56.98A5.03,5.03,0,0,0,7,62H57a5.006,5.006,0,0,0,5-5V29A3,3,0,0,0,59,26Zm0,2a1,1,0,0,1,1,1v.448l-6,3.79V28ZM50.586,14H43a1,1,0,0,1-1-1V5.414ZM15,4H40v9a3,3,0,0,0,3,3h9V34.5L42.044,40.79a2.969,2.969,0,0,0-2-.79H23.961a2.969,2.969,0,0,0-2,.79L12,34.5V7A3,3,0,0,1,15,4ZM5,28h5v5.238l-6-3.79V29A1,1,0,0,1,5,28ZM4,56.98V31.815L20.653,42.333l-14.1,17.62A3.019,3.019,0,0,1,4,56.98ZM9.081,60l14.1-17.624A1,1,0,0,1,23.961,42H40.039a1,1,0,0,1,.781.375L54.919,60Zm48.363-.045-14.1-17.622L60,31.815V57A3,3,0,0,1,57.444,59.955Z"></path><path d="M31.515,32.875a1,1,0,0,0,.97,0C32.874,32.658,42,27.515,42,21h0a5.994,5.994,0,0,0-5.992-6h-.016A5.883,5.883,0,0,0,32,16.545,5.893,5.893,0,0,0,28.021,15H28a5.976,5.976,0,0,0-6,5.993c0,2.376,1.2,4.83,3.567,7.3A28.48,28.48,0,0,0,31.515,32.875ZM25.14,18.191A4.2,4.2,0,0,1,28.019,17a3.972,3.972,0,0,1,3.186,1.626,1,1,0,0,0,.8.4h0a1,1,0,0,0,.8-.4A3.936,3.936,0,0,1,35.992,17H36A3.993,3.993,0,0,1,40,21h0c0,4.585-6.2,8.729-8,9.836a26.649,26.649,0,0,1-4.99-3.935C25.011,24.824,24,22.837,24,21A4.012,4.012,0,0,1,25.14,18.191Z"></path></g></svg>