<svg xmlns="http://www.w3.org/2000/svg" viewBox="0 0 64 64" x="0px" y="0px"><g><path d="M32,58A15,15,0,1,0,17,43,15.017,15.017,0,0,0,32,58Zm0-28A13,13,0,1,1,19,43,13.015,13.015,0,0,1,32,30Z"></path><path d="M34,46H30a1,1,0,0,1-1-1H27a3,3,0,0,0,3,3h1v2h2V48h1a3,3,0,0,0,0-6H30a1,1,0,0,1,0-2h4a1,1,0,0,1,1,1h2a3,3,0,0,0-3-3H33V36H31v2H30a3,3,0,0,0,0,6h4a1,1,0,0,1,0,2Z"></path><rect x="39" y="42" width="2" height="2"></rect><rect x="23" y="42" width="2" height="2"></rect><path d="M59,60V24h2a1,1,0,0,0,.9-.57.981.981,0,0,0-.12-1.05l-8-10a1.025,1.025,0,0,0-1.56,0l-8,10a.981.981,0,0,0-.12,1.05A1,1,0,0,0,45,24h2v7.38a19.147,19.147,0,0,0-8-6.03V14h2a1,1,0,0,0,.74-1.67l-9-10a1.027,1.027,0,0,0-1.48,0l-9,10A1,1,0,0,0,23,14h2V25.35a19.147,19.147,0,0,0-8,6.03V24h2a1,1,0,0,0,.9-.57.981.981,0,0,0-.12-1.05l-8-10a1.025,1.025,0,0,0-1.56,0l-8,10a.981.981,0,0,0-.12,1.05A1,1,0,0,0,3,24H5V60H2v2H62V60ZM32,4.5,38.75,12H38a1,1,0,0,0-1,1V24.69a18.461,18.461,0,0,0-10,0V13a1,1,0,0,0-1-1h-.75ZM15,60H7V23a1,1,0,0,0-1-1H5.08L11,14.6,16.92,22H16a1,1,0,0,0-1,1V34.57a18.766,18.766,0,0,0,0,16.86Zm2,0V54.62A19.072,19.072,0,0,0,23.57,60Zm30,0H40.43A19.072,19.072,0,0,0,47,54.62ZM32,60A17,17,0,1,1,49,43,17.024,17.024,0,0,1,32,60ZM58,22a1,1,0,0,0-1,1V60H49V51.43a18.766,18.766,0,0,0,0-16.86V23a1,1,0,0,0-1-1h-.92L53,14.6,58.92,22Z"></path></g></svg>