<svg xmlns="http://www.w3.org/2000/svg" viewBox="0 0 64 64" x="0px" y="0px"><g data-name="Coffee Bag-Coffee-Beans-Bag-Coffee Beans"><path d="M30.131,34.18a3.422,3.422,0,0,0-2.354,1.037,3.81,3.81,0,0,0-1.141,2.323,5.756,5.756,0,0,1-1.689,3.337,5.389,5.389,0,0,1-3.479,1.6c-.159.023-.312.046-.462.071,2.02,1.618,5.589.924,8.186-1.673A8.453,8.453,0,0,0,31.667,36.2a5.09,5.09,0,0,0-.174-2.3A8.223,8.223,0,0,1,30.131,34.18Z"></path><path d="M23.533,39.463a3.793,3.793,0,0,0,1.142-2.317,5.774,5.774,0,0,1,1.686-3.341,5.4,5.4,0,0,1,3.5-1.606c.148-.02.29-.04.43-.063a4.177,4.177,0,0,0-2.64-.865,6.072,6.072,0,0,0-.848.062,8.453,8.453,0,0,0-4.677,2.475c-2.139,2.139-2.984,4.937-2.313,6.987a8.237,8.237,0,0,1,1.38-.294A3.419,3.419,0,0,0,23.533,39.463Z"></path><path d="M19.67,12,13.9,26a11.971,11.971,0,0,0-.9,4.57V60H38V30.23a13.963,13.963,0,0,1,.8-4.66L43.59,12ZM33.647,36.484a10.448,10.448,0,0,1-3.041,5.809A10.079,10.079,0,0,1,23.665,45.4a6.06,6.06,0,0,1-4.372-1.7c-2.73-2.729-2.095-7.8,1.414-11.313a10.448,10.448,0,0,1,5.809-3.041,6.006,6.006,0,0,1,7.131,7.131Z"></path><path d="M20,8v2H44V8H43V6h1V4H20V6h1V8ZM39,6h2V8H39ZM35,6h2V8H35ZM31,6h2V8H31ZM27,6h2V8H27ZM23,6h2V8H23Z"></path><path d="M50,30.23a12.092,12.092,0,0,0-.68-4L46,16.84V51.7l4,6Z"></path><polygon points="45 53.8 40.87 60 49.13 60 45 53.8"></polygon><path d="M44,16.84l-3.32,9.39a12.092,12.092,0,0,0-.68,4V57.7l4-6Z"></path></g></svg>