<svg xmlns="http://www.w3.org/2000/svg" viewBox="0 0 64 64" x="0px" y="0px"><g><polygon points="46 51 44 51 44 53 42 53 42 55 44 55 44 57 46 57 46 55 48 55 48 53 46 53 46 51"></polygon><path d="M45.99,44.76,39,42.29V38.33c.16-.16.31-.32.45-.49A13.889,13.889,0,0,0,46,26a4,4,0,0,0,0-8V16a14,14,0,0,0-28,0v2a4,4,0,0,0,0,8,13.889,13.889,0,0,0,6.55,11.84c.14.17.29.33.45.49v3.96l-6.99,2.47A15.021,15.021,0,0,0,8,58.91V61a1,1,0,0,0,1,1H55a1,1,0,0,0,1-1V58.91A15.021,15.021,0,0,0,45.99,44.76ZM46,20a2,2,0,0,1,0,4ZM18,24a2,2,0,0,1,0-4Zm7,36H10V58.91a13.052,13.052,0,0,1,8.67-12.27L25,44.41ZM44,26a11.919,11.919,0,0,1-2.46,7.27c.02-.17.05-.35.07-.52l.16-2a5.014,5.014,0,0,0-.72-3.02L44,23.3ZM32,4A12.018,12.018,0,0,1,44,16h-.68a4.987,4.987,0,0,1-4.74-3.42l-.63-1.9a1,1,0,0,0-1.84-.13l-.79,1.58A6.972,6.972,0,0,1,29.06,16H20A12.01,12.01,0,0,1,32,4ZM20,18h9.06a8.933,8.933,0,0,0,7.75-4.43A7,7,0,0,0,43.32,18H44v1.7l-4.37,6.54a4.375,4.375,0,0,0-.82-.47A17.946,17.946,0,0,0,32,24a17.946,17.946,0,0,0-6.81,1.77,4.375,4.375,0,0,0-.82.47L20,19.7Zm2.23,12.75.16,2c.02.17.05.35.07.52A11.919,11.919,0,0,1,20,26V23.3l2.95,4.43A5.014,5.014,0,0,0,22.23,30.75ZM37,60H27V46.53A8.584,8.584,0,0,0,32,48a8.584,8.584,0,0,0,5-1.47Zm0-17c0,1.63-2.29,3-5,3s-5-1.37-5-3V39.85A8.892,8.892,0,0,0,31.36,41h1.28A8.892,8.892,0,0,0,37,39.85Zm-4.36-4H31.36a7.038,7.038,0,0,1-6.97-6.42l-.17-1.99a3.021,3.021,0,0,1,1.78-3A16.035,16.035,0,0,1,32,26a16.035,16.035,0,0,1,6,1.59,3.021,3.021,0,0,1,1.78,3l-.17,1.99A7.038,7.038,0,0,1,32.64,39ZM54,60H39V44.41l6.33,2.23A13.052,13.052,0,0,1,54,58.91Z"></path><circle cx="26" cy="22" r="2"></circle><circle cx="38" cy="22" r="2"></circle><rect x="28" y="30" width="8" height="2"></rect><rect x="28" y="34" width="8" height="2"></rect></g></svg>