<svg xmlns="http://www.w3.org/2000/svg" viewBox="0 0 64 64" x="0px" y="0px"><g><path d="M17,21a3,3,0,0,0,6,0h2a3,3,0,0,0,6,0h2a3,3,0,0,0,6,0h2a3,3,0,0,0,6,0V18H17Z"></path><polygon points="22.414 12 18.414 16 45.586 16 41.586 12 22.414 12"></polygon><circle cx="32" cy="55" r="1"></circle><path d="M34.118,32.661,32.6,33.8a1,1,0,0,1-1.2,0l-1.518-1.139a2.2,2.2,0,0,0-2.641,3.52L32,39.75l4.759-3.569a2.2,2.2,0,0,0-2.641-3.52Z"></path><path d="M49,21a4.977,4.977,0,0,1-2,3.974V45a5.006,5.006,0,0,1-5,5H22a5.006,5.006,0,0,1-5-5V24.974A4.977,4.977,0,0,1,15,21V57a3,3,0,0,0,3,3H46a3,3,0,0,0,3-3ZM32,58a3,3,0,1,1,3-3A3,3,0,0,1,32,58Z"></path><rect x="25" y="4" width="14" height="2"></rect><path d="M49,7a3,3,0,0,0-3-3H41V6a2,2,0,0,1-2,2H25a2,2,0,0,1-2-2V4H18a3,3,0,0,0-3,3V17a1,1,0,0,1,.293-.707l6-6A1,1,0,0,1,22,10H42a1,1,0,0,1,.707.293l6,6A1,1,0,0,1,49,17Z"></path><path d="M40,23.969a4.954,4.954,0,0,1-8,0,4.954,4.954,0,0,1-8,0,4.962,4.962,0,0,1-5,1.93V45a3,3,0,0,0,3,3H42a3,3,0,0,0,3-3V25.9a4.962,4.962,0,0,1-5-1.93ZM39.6,34.95a4.157,4.157,0,0,1-1.647,2.83L32.6,41.8a1,1,0,0,1-1.2,0l-5.358-4.02a4.2,4.2,0,1,1,5.039-6.718L32,31.75l.919-.688A4.2,4.2,0,0,1,39.6,34.95Z"></path></g></svg>