<svg xmlns="http://www.w3.org/2000/svg" viewBox="0 0 64 64" x="0px" y="0px"><g><circle cx="22" cy="40" r="1"></circle><path d="M49,52V7a3,3,0,0,0-3-3H18a3,3,0,0,0-3,3v3H45v2H15V57a3,3,0,0,0,3,3H46a3,3,0,0,0,3-3V54H19V52ZM23,8H21V6h2Zm8,0H25V6h6Zm3.828,34.414-1.414,1.414L32,42.414l-1.414,1.414-1.414-1.414L30.586,41l-1.414-1.414,1.414-1.414L32,39.586l1.414-1.414,1.414,1.414L33.414,41ZM28.172,26.586l1.414-1.414L31,26.586l1.414-1.414,1.414,1.414L32.414,28l1.414,1.414-1.414,1.414L31,29.414l-1.414,1.414-1.414-1.414L29.586,28Zm-9-3,1.414-1.414L22,23.586l1.414-1.414,1.414,1.414L23.414,25l1.414,1.414-1.414,1.414L22,26.414l-1.414,1.414-1.414-1.414L20.586,25ZM22,37a2.951,2.951,0,0,1,1.285.3l3.008-3.008A1,1,0,0,1,27,34h7.346l5.726-13.088-1.356.58-.787-1.839,3.677-1.572a1,1,0,0,1,1.313.526l1.573,3.678-1.838.786-.664-1.553L35.916,35.4A1,1,0,0,1,35,36H27.414L24.7,38.715A2.951,2.951,0,0,1,25,40a3,3,0,1,1-3-3Zm9,19h2v2H31Z"></path></g></svg>