<svg xmlns="http://www.w3.org/2000/svg" viewBox="0 0 64 64" x="0px" y="0px"><g data-name="Online Booking"><polygon points="35 26 41 26 41 25.781 35 24.281 35 26"></polygon><polygon points="34.388 36 38 36 38 35.82 34.67 35.154 34.388 36"></polygon><path d="M32,18a1,1,0,0,0-1,1V33.837L31.721,36h.558L33,33.837V19A1,1,0,0,0,32,18Z"></path><polygon points="26 35.82 26 36 29.612 36 29.33 35.154 26 35.82"></polygon><polygon points="29 24.281 23 25.781 23 26 29 26 29 24.281"></polygon><path d="M47,54H17v1a5.006,5.006,0,0,0,5,5H42a5.006,5.006,0,0,0,5-5ZM34,58H30V56h4Z"></path><path d="M47,12H17V52H47ZM21,40H19V38h2Zm0-4H19V30h2Zm6,10H25V44h2Zm0-4H25V40h2Zm6,6H31V46h2Zm0-4H31V40h2Zm6,2H37V44h2Zm0-4H37V40h2Zm3-14H35v5.18l4.2.84A1,1,0,0,1,40,35v2a1,1,0,0,1-1,1H25a1,1,0,0,1-1-1V35a1,1,0,0,1,.8-.98l4.2-.84V28H22a1,1,0,0,1-1-1V25a1,1,0,0,1,.757-.97L29,22.219V19a3,3,0,0,1,6,0v3.219l7.243,1.811A1,1,0,0,1,43,25v2A1,1,0,0,1,42,28Zm3,12H43V38h2Zm0-4H43V30h2Z"></path><path d="M47,9a5.006,5.006,0,0,0-5-5H22a5.006,5.006,0,0,0-5,5v1H47ZM23,8H21V6h2Zm8,0H25V6h6Z"></path></g></svg>