<svg xmlns="http://www.w3.org/2000/svg" viewBox="0 0 64 64" x="0px" y="0px"><title>Clip</title><g data-name="Clip"><path d="M56,54H54.165l3.823-24.848A1,1,0,0,0,57,28H41.305L40.1,15.914A7,7,0,0,0,39,2H25a7,7,0,0,0-1.1,13.914L22.7,28H7a1,1,0,0,0-.988,1.152L9.835,54H8a1,1,0,0,0-1,1v6a1,1,0,0,0,1,1H56a1,1,0,0,0,1-1V55A1,1,0,0,0,56,54Zm-.166-24L52.142,54H43.905l-2.4-24ZM41.9,54H22.105l2.4-24h14.99ZM25.741,14.329A1,1,0,0,0,25,14,5,5,0,0,1,25,4H39a5,5,0,0,1,0,10,1,1,0,0,0-.995,1.1L39.3,28H24.705L26,15.1A1,1,0,0,0,25.741,14.329ZM8.166,30H22.5L20.1,54H11.858ZM55,60H9V56H55Z"></path></g></svg>