<svg xmlns="http://www.w3.org/2000/svg" viewBox="0 0 64 64" x="0px" y="0px"><title>Comment-Chat-Service-Book</title><g><path d="M15,12H53V38h2V3a1,1,0,0,0-1-1H14A5.006,5.006,0,0,0,9,7V57a5.006,5.006,0,0,0,5,5H40V60H15ZM14,4H53V6H15V8H53v2H14a3,3,0,0,1,0-6ZM11,57V10.974a4.954,4.954,0,0,0,2,.925V59.816A3,3,0,0,1,11,57Z"></path><path d="M20,16a1,1,0,0,0-1,1V27a1,1,0,0,0,1,1H48a1,1,0,0,0,1-1V17a1,1,0,0,0-1-1ZM47,26H21V18H47Z"></path><path d="M47,40c-7.168,0-13,4.038-13,9,0,3.659,3.182,6.929,8,8.308V61a1,1,0,0,0,1.707.707L47.419,58C54.394,57.842,60,53.866,60,49,60,44.038,54.168,40,47,40Zm0,16a1,1,0,0,0-.707.293L44,58.586V56.535a1,1,0,0,0-.77-.973C38.905,54.541,36,51.9,36,49c0-3.86,4.935-7,11-7s11,3.14,11,7S53.065,56,47,56Z"></path><rect x="46" y="48" width="2" height="2"></rect><rect x="50" y="48" width="2" height="2"></rect><rect x="42" y="48" width="2" height="2"></rect></g></svg>