<svg xmlns="http://www.w3.org/2000/svg" viewBox="0 0 64 64" x="0px" y="0px"><g><path d="M61.967,43.809a4.989,4.989,0,0,0-6.639-2.415L42.371,47.426A5,5,0,0,0,38,40H23a6.986,6.986,0,0,0-6.321,4H14V41a1,1,0,0,0-1-1H3a1,1,0,0,0-1,1V61a1,1,0,0,0,1,1H13a1,1,0,0,0,1-1V59H40.114a5.026,5.026,0,0,0,2.112-.468l17.328-8.077a5.021,5.021,0,0,0,2.413-6.646ZM12,60H4V42h8ZM58.708,48.644,41.381,56.72a3.031,3.031,0,0,1-1.267.28H14V46h3.35a1,1,0,0,0,.944-.672A4.98,4.98,0,0,1,23,42H38a3,3,0,0,1,0,6H29v2H40.475a5.013,5.013,0,0,0,2.109-.468l13.591-6.327a2.99,2.99,0,0,1,3.975,1.44,3.058,3.058,0,0,1,.28,1.275A3.018,3.018,0,0,1,58.708,48.644Z"></path><path d="M20,15H18a1,1,0,0,1-1-1H15a3,3,0,0,0,3,3v1h2V17a3,3,0,0,0,0-6H18a1,1,0,0,1,0-2h2a1,1,0,0,1,1,1h2a3,3,0,0,0-3-3V6H18V7a3,3,0,0,0,0,6h2a1,1,0,0,1,0,2Z"></path><path d="M19,22A10,10,0,1,0,9,12,10.011,10.011,0,0,0,19,22ZM19,4a8,8,0,1,1-8,8A8.009,8.009,0,0,1,19,4Z"></path><path d="M17,26v4a1.991,1.991,0,0,0,1.027,1.736A1.92,1.92,0,0,0,18,32v4a2,2,0,0,0,2,2H34a2,2,0,0,0,2-2V32a1.991,1.991,0,0,0-1.027-1.736A1.92,1.92,0,0,0,35,30V26a2,2,0,0,0-2-2H19A2,2,0,0,0,17,26ZM34,36H20V32h2v2h2V32h2v2h2V32h2v2h2V32h2Zm-1-6H19V26h2v2h2V26h2v2h2V26h2v2h2V26h2Z"></path><path d="M39,26v4a1.92,1.92,0,0,0,.027.264A1.991,1.991,0,0,0,38,32v4a2,2,0,0,0,2,2H54a2,2,0,0,0,2-2V32a1.92,1.92,0,0,0-.027-.264A1.991,1.991,0,0,0,57,30V26a2,2,0,0,0-2-2V20a2,2,0,0,0,2-2V14a2,2,0,0,0-2-2H41a2,2,0,0,0-2,2v4a2,2,0,0,0-2,2v4A2,2,0,0,0,39,26Zm6,2V26h2v2h2V26h2v2h2V26h2v4H41V26h2v2Zm9,8H40V32h2v2h2V32h2v2h2V32h2v2h2V32h2ZM41,14h2v2h2V14h2v2h2V14h2v2h2V14h2v4H41Zm-2,6h2v2h2V20h2v2h2V20h2v2h2V20h2v4H39Z"></path></g></svg>