<svg xmlns="http://www.w3.org/2000/svg" viewBox="0 0 64 64" x="0px" y="0px"><g data-name="Meteorite"><path d="M37,12a24.842,24.842,0,0,0-10.339,2.247L18.707,6.293,17.293,7.707,24.785,15.2a25.176,25.176,0,0,0-4.731,3.441L8.707,7.293,7.293,8.707,18.64,20.054A25.176,25.176,0,0,0,15.2,24.785L7.707,17.293,6.293,18.707l7.954,7.954a24.783,24.783,0,0,0-1.909,6.263L7.707,28.293,6.293,29.707l5.759,5.759C12.021,35.974,12,36.484,12,37A25,25,0,1,0,37,12ZM60,37a22.879,22.879,0,0,1-4.689,13.9L53,48.586V44a1,1,0,0,0-.293-.707L49,39.586V36.414l1.707-1.707A1,1,0,0,0,51,34V28a1,1,0,0,0-.293-.707l-5-5A1,1,0,0,0,45,22H40.414L37,18.586V14A23.026,23.026,0,0,1,60,37ZM36.707,56.293,35,54.586V51a1,1,0,0,0-1-1H30.414L29,48.586V46.414L32.414,43h7.172L44,47.414v3.172l-1.707,1.707A1,1,0,0,0,42,53v3.586l-2.707,2.707a.986.986,0,0,0-.274.613C38.353,59.964,37.681,60,37,60V57A1,1,0,0,0,36.707,56.293Zm5.251,3.163,1.749-1.749A1,1,0,0,0,44,57V53.414l1.707-1.707A1,1,0,0,0,46,51V47a1,1,0,0,0-.293-.707l-5-5A1,1,0,0,0,40,41H32a1,1,0,0,0-.707.293l-4,4A1,1,0,0,0,27,46v3a1,1,0,0,0,.293.707l2,2A1,1,0,0,0,30,52h3v3a1,1,0,0,0,.293.707L35,57.414v2.494a22.927,22.927,0,0,1-14.044-6.45l1.751-1.751A1,1,0,0,0,23,51V48.414l2.707-2.707A1,1,0,0,0,26,45V42a1,1,0,0,0-.293-.707l-5-5-1.414,1.414L24,42.414v2.172l-2.707,2.707A1,1,0,0,0,21,48v2.586L19.586,52a22.929,22.929,0,0,1-2.629-26.262,1.983,1.983,0,0,0,.673.879l3.58,2.6-1.368,4.208a2,2,0,0,0,3.078,2.236l3.58-2.6,3.58,2.6a1.967,1.967,0,0,0,2.351,0,1.97,1.97,0,0,0,.727-2.235L31.79,29.219l3.58-2.6A2,2,0,0,0,34.194,23H29.77L28.4,18.792h0a2,2,0,0,0-3.8,0L23.23,23H18.806c-.015,0-.027.006-.041.006A22.987,22.987,0,0,1,35,14.092V19a1,1,0,0,0,.293.707l4,4A1,1,0,0,0,40,24h4.586L49,28.414v5.172l-1.707,1.707A1,1,0,0,0,47,36v4a1,1,0,0,0,.293.707L51,44.414V49a1,1,0,0,0,.293.707l2.736,2.737A23.012,23.012,0,0,1,41.958,59.456ZM29.663,29.146l1.592,4.9-4.167-3.028a1,1,0,0,0-1.176,0l-4.167,3.027,1.592-4.9a1,1,0,0,0-.363-1.118L18.806,25h5.151a1,1,0,0,0,.951-.691L26.5,19.4l0,.012,1.592,4.9a1,1,0,0,0,.951.691h5.151l-4.168,3.028A1,1,0,0,0,29.663,29.146Z"></path><path d="M43,27H37a1,1,0,0,0-1,1v2a1,1,0,0,0,.293.707L38,32.414V36a1,1,0,0,0,1,1h2a1,1,0,0,0,.707-.293l2-2A1,1,0,0,0,44,34V28A1,1,0,0,0,43,27Zm-1,6.586L40.586,35H40V32a1,1,0,0,0-.293-.707L38,29.586V29h4Z"></path><rect x="3.5" y="2.379" width="2" height="4.243" transform="translate(-1.864 4.5) rotate(-45)"></rect><rect x="14" y="2.586" width="2" height="2.828" transform="translate(1.565 11.778) rotate(-45)"></rect><rect x="3" y="13.586" width="2" height="2.828" transform="translate(-9.435 7.222) rotate(-45)"></rect><rect x="3" y="24.586" width="2" height="2.828" transform="translate(-17.213 10.444) rotate(-45)"></rect><polygon points="55 10 57 10 57 8 59 8 59 6 57 6 57 4 55 4 55 6 53 6 53 8 55 8 55 10"></polygon><rect x="5" y="52" width="2" height="2"></rect><rect x="15" y="58" width="2" height="2"></rect><rect x="5" y="40" width="2" height="2"></rect><rect x="40" y="2" width="2" height="2"></rect><rect x="58" y="16" width="2" height="2"></rect><rect x="32" y="7" width="2" height="2"></rect></g></svg>