<svg xmlns="http://www.w3.org/2000/svg" viewBox="0 0 64 64" x="0px" y="0px"><g><path d="M47.633,5.464A7.956,7.956,0,0,0,39.2,6.528a7.982,7.982,0,0,0-14.392,0A8,8,0,0,0,12.494,16.1,11.865,11.865,0,0,0,18.841,21.8a7.866,7.866,0,0,0,2.61.5l.58,2.379a1,1,0,0,0,1.395.669l.906-.423L30.43,38H17a2,2,0,0,0-2,2V60a2,2,0,0,0,2,2H47a2,2,0,0,0,2-2V40a2,2,0,0,0-2-2H33.57l6.1-13.078.906.423a1,1,0,0,0,1.4-.669l.58-2.378a7.9,7.9,0,0,0,2.61-.5A11.87,11.87,0,0,0,51.507,16.1,8.027,8.027,0,0,0,47.633,5.464ZM32,4a6.006,6.006,0,0,1,6,6c0,3.493-2.909,8-6,8s-6-4.507-6-8A6.006,6.006,0,0,1,32,4Zm.781,17H31.219l.208-1.044a3.753,3.753,0,0,0,1.146,0ZM14.308,15.258a6.022,6.022,0,0,1,2.905-7.982,5.95,5.95,0,0,1,6.91,1.375A8,8,0,0,0,24,10a11.477,11.477,0,0,0,1.743,5.811,6.373,6.373,0,0,1-1.724,3.559,3.652,3.652,0,0,1-.892.594,4.775,4.775,0,0,1-3.6-.048A9.873,9.873,0,0,1,14.308,15.258Zm9.127,6.732a5.116,5.116,0,0,0,.545-.218c.171-.081.329-.181.489-.276l.632.86-1.415.661Zm4,.165-1.451-1.977a8.067,8.067,0,0,0,1.307-2.386A8.028,8.028,0,0,0,29.5,19.4l-.478,2.4A1,1,0,0,0,30,23h1V34.489L26.144,24.076l.907-.423a1,1,0,0,0,.384-1.5ZM47,57H17V56H47ZM17,60V59H47v1ZM47,45h0v9H17V40H47ZM33,34.489V23h1a1,1,0,0,0,.98-1.2L34.5,19.4a8.028,8.028,0,0,0,2.207-1.611,8.072,8.072,0,0,0,1.308,2.386l-1.452,1.977a1,1,0,0,0,.384,1.5l.907.423Zm5.9-12.133.632-.861c.162.1.322.2.5.281a5.432,5.432,0,0,0,.538.215l-.251,1.026Zm10.794-7.1a9.879,9.879,0,0,1-5.217,4.658,4.787,4.787,0,0,1-3.595.052,3.65,3.65,0,0,1-.9-.6,6.372,6.372,0,0,1-1.727-3.561A11.477,11.477,0,0,0,40,10a8,8,0,0,0-.123-1.349,5.949,5.949,0,0,1,6.91-1.375A6.023,6.023,0,0,1,49.693,15.258Z"></path><path d="M32,52a5,5,0,1,0-5-5A5.006,5.006,0,0,0,32,52Zm0-8a3,3,0,1,1-3,3A3,3,0,0,1,32,44Z"></path><path d="M20,52h3V50H21V48H19v3A1,1,0,0,0,20,52Z"></path><path d="M45,51V48H43v2H41v2h3A1,1,0,0,0,45,51Z"></path><path d="M21,44h2V42H20a1,1,0,0,0-1,1v3h2Z"></path><path d="M43,46h2V43a1,1,0,0,0-1-1H41v2h2Z"></path></g></svg>