<svg xmlns="http://www.w3.org/2000/svg" viewBox="0 0 64 64" x="0px" y="0px"><g data-name="Tempered Glass-Smartphone"><path d="M20,52a3,3,0,1,0,3,3A3,3,0,0,0,20,52Zm0,4a1,1,0,1,1,1-1A1,1,0,0,1,20,56Z"></path><path d="M55,2H33a5.009,5.009,0,0,0-4.9,4H9a5.006,5.006,0,0,0-5,5V57a5.006,5.006,0,0,0,5,5H31a5.009,5.009,0,0,0,4.9-4H55a5.006,5.006,0,0,0,5-5V7A5.006,5.006,0,0,0,55,2Zm3,25.586L30.692,54.894A2.972,2.972,0,0,1,30,53V46.414l28-28Zm0-12-28,28V40.414l28-28ZM39,4H49V6H39ZM33,4h4V6a2,2,0,0,0,2,2H49a2,2,0,0,0,2-2V4h4a3,3,0,0,1,3,3V9.586l-28,28V7A3,3,0,0,1,33,4ZM15,8H25v2H15ZM31,60H9a3,3,0,0,1-3-3V11A3,3,0,0,1,9,8h4v2a2,2,0,0,0,2,2H25a2,2,0,0,0,2-2V8h1V53a5.006,5.006,0,0,0,5,5h.816A3,3,0,0,1,31,60Zm24-4H33a3.008,3.008,0,0,1-.532-.054L58,30.414V53A3,3,0,0,1,55,56Z"></path><path d="M44,48a3,3,0,1,0,3,3A3,3,0,0,0,44,48Zm0,4a1,1,0,1,1,1-1A1,1,0,0,1,44,52Z"></path></g></svg>