<svg xmlns="http://www.w3.org/2000/svg" viewBox="0 0 64 64" x="0px" y="0px"><g data-name="Playground"><rect x="12" y="28" width="8" height="8"></rect><rect x="28" y="28" width="8" height="8"></rect><path d="M31,53H28a2,2,0,0,1-2-2V43a2,2,0,0,1,2-2h3V38H28a2,2,0,0,1-2-2V28a2,2,0,0,1,2-2h3V23H28a2,2,0,0,1-2-2V13a2,2,0,0,1,2-2h3V8H17v3h3a2,2,0,0,1,2,2v8a2,2,0,0,1-2,2H17v3h3a2,2,0,0,1,2,2v8a2,2,0,0,1-2,2H17v3h3a2,2,0,0,1,2,2v8a2,2,0,0,1-2,2H17v3H31Z"></path><rect x="12" y="43" width="8" height="8"></rect><rect x="4" y="4" width="56" height="2"></rect><path d="M7,56h8V53H12a2,2,0,0,1-2-2V43a2,2,0,0,1,2-2h3V38H12a2,2,0,0,1-2-2V28a2,2,0,0,1,2-2h3V23H12a2,2,0,0,1-2-2V13a2,2,0,0,1,2-2h3V8H7Z"></path><rect x="12" y="13" width="8" height="8"></rect><rect x="28" y="13" width="8" height="8"></rect><path d="M57,8H49v3h3a2,2,0,0,1,2,2v8a2,2,0,0,1-2,2H49v3h3a2,2,0,0,1,2,2v8a2,2,0,0,1-2,2H49v3h3a2,2,0,0,1,2,2v8a2,2,0,0,1-2,2H49v3h8Z"></path><rect x="28" y="43" width="8" height="8"></rect><rect x="44" y="43" width="8" height="8"></rect><rect x="4" y="58" width="56" height="2"></rect><rect x="44" y="28" width="8" height="8"></rect><path d="M47,53H44a2,2,0,0,1-2-2V43a2,2,0,0,1,2-2h3V38H44a2,2,0,0,1-2-2V28a2,2,0,0,1,2-2h3V23H44a2,2,0,0,1-2-2V13a2,2,0,0,1,2-2h3V8H33v3h3a2,2,0,0,1,2,2v8a2,2,0,0,1-2,2H33v3h3a2,2,0,0,1,2,2v8a2,2,0,0,1-2,2H33v3h3a2,2,0,0,1,2,2v8a2,2,0,0,1-2,2H33v3H47Z"></path><rect x="44" y="13" width="8" height="8"></rect></g></svg>