<svg xmlns="http://www.w3.org/2000/svg" viewBox="0 0 64 64" x="0px" y="0px"><g data-name="Stationery-Paper-Pencil-Ruler-Office Material"><path d="M58.707,10.293l-8-8A1,1,0,0,0,50,2H18a5.006,5.006,0,0,0-5,5v9h2V7a3,3,0,0,1,3-3H49V9a3,3,0,0,0,3,3h5V57a3,3,0,0,1-3,3H31v2H54a5.006,5.006,0,0,0,5-5V11A1,1,0,0,0,58.707,10.293ZM51,9V5.414L55.586,10H52A1,1,0,0,1,51,9Z"></path><rect x="19" y="8" width="2" height="2"></rect><rect x="23" y="8" width="6" height="2"></rect><rect x="19" y="12" width="10" height="2"></rect><path d="M53,19a1,1,0,0,0-1-1H36a1,1,0,0,0-1,1V31a1,1,0,0,0,1,1H52a1,1,0,0,0,1-1ZM51,30H37V20H51Z"></path><path d="M31,39a1,1,0,0,0-1-1H28V30a1,1,0,0,0-.143-.515l-3-5a1.039,1.039,0,0,0-1.714,0l-3,5A1,1,0,0,0,20,30v8H18V19a1,1,0,0,0-1-1H9a1,1,0,0,0-1,1V38H6a1,1,0,0,0-1,1v4a1,1,0,0,0,1,1H7V59a3,3,0,0,0,3,3H26a3,3,0,0,0,3-3V44h1a1,1,0,0,0,1-1ZM24,26.944,25.834,30H22.166ZM22,32h4v6H22ZM10,20h6v2H14v2h2v2H13v2h3v2H14v2h2v2H13v2h3v2H10ZM27,59a1,1,0,0,1-1,1H10a1,1,0,0,1-1-1V44H27Zm2-17H7V40H29Z"></path><rect x="39" y="36" width="14" height="2"></rect><rect x="35" y="40" width="18" height="2"></rect><rect x="35" y="44" width="18" height="2"></rect><rect x="35" y="48" width="18" height="2"></rect><rect x="35" y="52" width="18" height="2"></rect><rect x="35" y="36" width="2" height="2"></rect></g></svg>