<svg xmlns="http://www.w3.org/2000/svg" viewBox="0 0 64 64" x="0px" y="0px"><title>Blog-Browser-Seo-Web Design</title><g><path d="M5,56H51a1,1,0,0,0,1-1V41.215l-3.67,6.357a1,1,0,0,1-.423.4l-2.96,1.464L43.6,51.768A3,3,0,0,1,38.02,50H27a1,1,0,0,1-1-1V37a1,1,0,0,1,1-1H43.464L52,21.216V16.032H4V55A1,1,0,0,0,5,56ZM44,30H38V28h6ZM32,20H48v2H32Zm-6,0h4v2H26Zm0,4H48v2H26Zm0,4H36v2H26ZM8,21a1,1,0,0,1,1-1H21a1,1,0,0,1,1,1V31a1,1,0,0,1-1,1H9a1,1,0,0,1-1-1ZM8,36H22v2H8Zm0,4H22v2H8Zm0,4H22v2H8Zm0,4H22v2H8Z"></path><polygon points="46.423 46.471 41.577 43.673 41.731 46.071 44.269 47.536 46.423 46.471"></polygon><path d="M40.134,49.768a1,1,0,0,0,1.732,1l1-1.732-1.732-1Z"></path><rect x="10" y="22" width="10" height="8"></rect><path d="M4,14.032H52V9a1,1,0,0,0-1-1H5A1,1,0,0,0,4,9ZM16,10h2v2H16Zm-4,0h2v2H12ZM8,10h2v2H8Z"></path><path d="M55.724,20.523a2.982,2.982,0,0,0-1.822,1.4l-.5.866,5.2,3,.5-.866a3,3,0,0,0-3.374-4.4Z"></path><rect x="54.25" y="23.453" width="1" height="5.999" transform="translate(4.465 60.639) rotate(-59.998)"></rect><path d="M28,48H38.845l.905-1.568-.212-3.3a.994.994,0,0,1,.132-.564L42.309,38H28Z"></path><polygon points="50.902 27.118 42.402 41.84 44.134 42.839 51.634 29.849 53.366 30.849 45.866 43.839 47.598 44.839 56.098 30.117 50.902 27.118"></polygon></g></svg>