<svg xmlns="http://www.w3.org/2000/svg" viewBox="0 0 64 64" x="0px" y="0px"><g data-name="Cloud-Cloud Computing-Location-World-Pin"><path d="M28,38c0-.33.01-.67.03-1H26.09a5.6,5.6,0,0,0,0,2h1.94C28.01,38.67,28,38.33,28,38Z"></path><path d="M26.81,41a5.975,5.975,0,0,0,2.05,2.1,11.709,11.709,0,0,1-.59-2.1Z"></path><path d="M37.19,35a5.975,5.975,0,0,0-2.05-2.1,11.709,11.709,0,0,1,.59,2.1Z"></path><path d="M50.83,20.17a1,1,0,0,1-.84-.99c0-.03.01-.14.01-.17a8.008,8.008,0,0,0-10.35-7.66,1,1,0,0,1-1.18-.48,12.977,12.977,0,0,0-24.3,8.12,1.035,1.035,0,0,1-.18.75,1,1,0,0,1-.66.4A10.993,10.993,0,0,0,15,42h2.51A10.544,10.544,0,0,1,17,39a15,15,0,0,1,30,0,10.544,10.544,0,0,1-.51,3H49a10.991,10.991,0,0,0,1.83-21.83ZM27,9a8.009,8.009,0,0,0-8,8H17A10.011,10.011,0,0,1,27,7ZM49,39V37a6.006,6.006,0,0,0,6-6h2A8.009,8.009,0,0,1,49,39Z"></path><path d="M32,32c-.49,0-1.25,1.1-1.67,3h3.34C33.25,33.1,32.49,32,32,32Z"></path><path d="M26.81,35h1.46a11.709,11.709,0,0,1,.59-2.1A5.975,5.975,0,0,0,26.81,35Z"></path><path d="M32,44c.49,0,1.25-1.1,1.67-3H30.33C30.75,42.9,31.51,44,32,44Z"></path><path d="M32,26A13.012,13.012,0,0,0,19,39c0,6.27,10.18,17.55,13,20.55,2.82-3,13-14.28,13-20.55A13.012,13.012,0,0,0,32,26Zm0,20a8,8,0,1,1,8-8A8.011,8.011,0,0,1,32,46Z"></path><path d="M36,38c0,.33-.01.67-.03,1h1.94a5.6,5.6,0,0,0,0-2H35.97C35.99,37.33,36,37.67,36,38Z"></path><path d="M30.04,37c-.02.32-.04.65-.04,1s.02.68.04,1h3.92c.02-.32.04-.65.04-1s-.02-.68-.04-1Z"></path><path d="M35.14,43.1A5.975,5.975,0,0,0,37.19,41H35.73A11.709,11.709,0,0,1,35.14,43.1Z"></path></g></svg>