<svg xmlns="http://www.w3.org/2000/svg" data-name="Water Energy" viewBox="0 0 64 64" x="0px" y="0px"><path d="M34.309,5.105l2.4-2.4L35.293,1.293l-4,4a1,1,0,0,0,0,1.414l4,4,1.414-1.414L34.543,7.129a25,25,0,0,1,1.3,49.577l.3,1.977A27,27,0,0,0,34.309,5.105Z"></path><path d="M28.707,53.293l-1.414,1.414,2.164,2.164a25,25,0,0,1-1.3-49.577l-.3-1.977A27,27,0,0,0,29.691,58.9l-2.4,2.4,1.414,1.414,4-4a1,1,0,0,0,0-1.414Z"></path><path d="M32,21.443C29.933,23.664,24,30.424,24,35a8,8,0,0,0,16,0C40,30.815,34.759,24.374,32,21.443Z"></path></svg>