<svg xmlns="http://www.w3.org/2000/svg" viewBox="0 0 64 64" x="0px" y="0px"><g data-name="Handbag"><path d="M54.661,25.54c-1.036-.3-2.644-.747-4.661-1.224V20a18,18,0,0,0-36,0v4.316c-2.017.477-3.626.922-4.668,1.226A3.023,3.023,0,0,0,7.2,28.777l3.6,30.571A3.007,3.007,0,0,0,13.78,62H50.22A3.007,3.007,0,0,0,53.2,59.347l3.6-30.575A3.024,3.024,0,0,0,54.661,25.54ZM26,24.311c2.1-.2,4.105-.311,6-.311s3.9.106,6,.311V28a6,6,0,0,1-12,0ZM32,22a72.92,72.92,0,0,0-12,1.115V20a12,12,0,0,1,24,0v3.115A72.92,72.92,0,0,0,32,22ZM15,30h4v7H15Zm30,0h4v7H45ZM32,4A16.019,16.019,0,0,1,48,20v8H46V20a14,14,0,0,0-28,0v8H16V20A16.019,16.019,0,0,1,32,4ZM51.217,59.112a1,1,0,0,1-1,.888H13.78a1,1,0,0,1-1-.887l-3.6-30.565A1.018,1.018,0,0,1,9.9,27.46c.931-.273,2.342-.663,4.1-1.087V28a1,1,0,0,0-1,1v9a1,1,0,0,0,1,1h6a1,1,0,0,0,1-1V29a1,1,0,0,0-1-1V25.141c1.366-.236,2.7-.431,4-.593V28a8,8,0,0,0,16,0V24.548c1.3.162,2.634.357,4,.593V28a1,1,0,0,0-1,1v9a1,1,0,0,0,1,1h6a1,1,0,0,0,1-1V29a1,1,0,0,0-1-1V26.373c1.757.424,3.167.814,4.092,1.085a1.019,1.019,0,0,1,.724,1.085Z"></path><rect x="31" y="30" width="2" height="2"></rect></g></svg>