<svg xmlns="http://www.w3.org/2000/svg" viewBox="0 0 64 64" x="0px" y="0px"><g data-name="Portable SSD"><path d="M50,62H30a3,3,0,0,1-3-3V58h2v1a1,1,0,0,0,1,1H50a5.006,5.006,0,0,0,5-5V45a3,3,0,0,0-3-3H50a5.006,5.006,0,0,1-5-5V29h2v8a3,3,0,0,0,3,3h2a5.006,5.006,0,0,1,5,5V55A7.008,7.008,0,0,1,50,62Z"></path><path d="M44,26a1,1,0,0,0,1,1h2a1,1,0,0,0,1-1V19H44Z"></path><rect x="45" y="13" width="2" height="4"></rect><path d="M10,25H38V7a3,3,0,0,0-3-3H13a3,3,0,0,0-3,3ZM24,9a3,3,0,0,1,3-3h6a3,3,0,0,1,3,3v9.468a2.965,2.965,0,0,1-1.522,2.61,2.964,2.964,0,0,1-3.021-.038l-6-3.6A3.013,3.013,0,0,1,24,14.868Z"></path><path d="M26.485,15.725h0l6,3.6A1,1,0,0,0,34,18.468V9a1,1,0,0,0-1-1H27a1,1,0,0,0-1,1v5.868A1,1,0,0,0,26.485,15.725Z"></path><path d="M10,49a3,3,0,0,0,3,3H35a3,3,0,0,0,3-3V27H10Z"></path><rect x="27" y="54" width="2.001" height="2"></rect></g></svg>