<svg xmlns="http://www.w3.org/2000/svg" viewBox="0 0 64 64" x="0px" y="0px"><g><rect x="26" y="11" width="12" height="6"></rect><rect x="10" y="27" width="12" height="6"></rect><rect x="3" y="43" width="10" height="6"></rect><rect x="19" y="43" width="10" height="6"></rect><rect x="51" y="43" width="10" height="6"></rect><rect x="35" y="43" width="10" height="6"></rect><rect x="42" y="27" width="12" height="6"></rect><path d="M17,23H47v2h2V22a1,1,0,0,0-1-1H33V19H31v2H16a1,1,0,0,0-1,1v3h2Z"></path><path d="M24,37H17V35H15v2H8a1,1,0,0,0-1,1v3H9V39H23v2h2V38A1,1,0,0,0,24,37Z"></path><path d="M56,37H49V35H47v2H40a1,1,0,0,0-1,1v3h2V39H55v2h2V38A1,1,0,0,0,56,37Z"></path></g></svg>