<svg xmlns="http://www.w3.org/2000/svg" viewBox="0 0 64 64" x="0px" y="0px"><g><path d="M61.52,44.912,54.393,22.105A2.987,2.987,0,0,0,51.529,20H48V16h2.219a2,2,0,0,0,1.94-1.515L52.78,12H57V10H7v2h4.22l.621,2.485A2,2,0,0,0,13.781,16H16v4H12.471a2.987,2.987,0,0,0-2.864,2.105L2.48,44.912A7,7,0,0,0,9.161,54H54.839a7,7,0,0,0,6.681-9.088ZM13.78,14l-.5-2H50.719l-.5,2ZM18,16H46v4H18ZM58.867,49.961A4.95,4.95,0,0,1,54.839,52H9.161a5,5,0,0,1-4.772-6.491L11.516,22.7a1,1,0,0,1,.955-.7H51.529a1,1,0,0,1,.955.7l7.127,22.807A4.95,4.95,0,0,1,58.867,49.961Z"></path><path d="M32,25A12,12,0,1,0,44,37,12.013,12.013,0,0,0,32,25Zm0,22a9.985,9.985,0,0,1-8.1-4.166l.811-.468-1-1.732-.815.47a9.9,9.9,0,0,1-.84-3.1H23V36h-.949a9.9,9.9,0,0,1,.84-3.1l.815.47,1-1.732-.811-.468A10.07,10.07,0,0,1,26.166,28.9l.468.811,1.732-1-.47-.815a9.9,9.9,0,0,1,3.1-.84V28h2v-.949a9.875,9.875,0,0,1,3.1.84l-.47.815,1.732,1,.468-.811A10.07,10.07,0,0,1,40.1,31.166l-.811.468,1,1.732.815-.47a9.894,9.894,0,0,1,.84,3.1H41v2h.949a9.894,9.894,0,0,1-.84,3.1l-.815-.47-1,1.732.811.468A9.985,9.985,0,0,1,32,47Z"></path><path d="M36.293,31.293,33.285,34.3A2.951,2.951,0,0,0,32,34a3,3,0,1,0,3,3,2.951,2.951,0,0,0-.3-1.285l3.008-3.008ZM32,38a1,1,0,1,1,1-1A1,1,0,0,1,32,38Z"></path></g></svg>