<svg xmlns="http://www.w3.org/2000/svg" viewBox="0 0 64 64" x="0px" y="0px"><title>Clipboard_18</title><g data-name="Clipboard"><path d="M16,16a1,1,0,0,0-1,1V37a1,1,0,0,0,1,1H48a1,1,0,0,0,1-1V17a1,1,0,0,0-1-1Zm1,20V18h4V36Zm30,0H23V18H47Z"></path><rect x="25" y="20" width="2" height="2"></rect><rect x="29" y="20" width="16" height="2"></rect><rect x="25" y="24" width="20" height="2"></rect><rect x="25" y="28" width="20" height="2"></rect><rect x="25" y="32" width="20" height="2"></rect><rect x="15" y="42" width="2" height="2"></rect><rect x="19" y="42" width="30" height="2"></rect><rect x="15" y="46" width="34" height="2"></rect><rect x="15" y="50" width="34" height="2"></rect><path d="M55,2H9A2,2,0,0,0,7,4V60a2,2,0,0,0,2,2H55a2,2,0,0,0,2-2V4A2,2,0,0,0,55,2ZM40,4V6H24V4ZM23,12H41a1,1,0,0,0,1-1V8h9V56H13V8h9v3A1,1,0,0,0,23,12Zm17-2H24V8H40ZM9,60V4H22V6H12a1,1,0,0,0-1,1V57a1,1,0,0,0,1,1H52a1,1,0,0,0,1-1V7a1,1,0,0,0-1-1H42V4H55V60Z"></path></g></svg>