<svg xmlns="http://www.w3.org/2000/svg" viewBox="0 0 64 64" x="0px" y="0px"><title>Book</title><g><path d="M55,7H17.91A6,6,0,0,0,6,8V57h.09A6.006,6.006,0,0,0,12,62H50a1,1,0,0,0,1-1V57h4a1,1,0,0,0,1-1V8A1,1,0,0,0,55,7ZM12,4a4,4,0,0,1,4,4V51.54a5.965,5.965,0,0,0-8,0V8A4,4,0,0,1,12,4ZM49,60H12a4,4,0,1,1,4-4,1,1,0,0,0,1,1H49Zm5-5H18V9H54Z"></path><path d="M23,25H37a1,1,0,0,0,1-1V14a1,1,0,0,0-1-1H23a1,1,0,0,0-1,1V24A1,1,0,0,0,23,25Zm1-10H36v8H24Z"></path><rect x="42" y="13" width="8" height="2"></rect><rect x="42" y="17" width="8" height="2"></rect><rect x="42" y="21" width="8" height="2"></rect><rect x="22" y="29" width="28" height="2"></rect><rect x="22" y="35" width="28" height="2"></rect><rect x="22" y="41" width="28" height="2"></rect><rect x="22" y="47" width="28" height="2"></rect></g></svg>