<svg xmlns="http://www.w3.org/2000/svg" data-name="Gaming Gear-Smartphone" viewBox="0 0 64 64" x="0px" y="0px"><path d="M54,2H10A5.006,5.006,0,0,0,5,7V27a5.006,5.006,0,0,0,5,5H31v4H14a5.006,5.006,0,0,0-5,5V57a5.006,5.006,0,0,0,5,5H50a5.006,5.006,0,0,0,5-5V41a5.006,5.006,0,0,0-5-5H33V32H54a5.006,5.006,0,0,0,5-5V7A5.006,5.006,0,0,0,54,2ZM21,60H14a3,3,0,0,1-3-3V41a3,3,0,0,1,3-3h7ZM43,38h7a3,3,0,0,1,3,3V57a3,3,0,0,1-3,3H43Zm-5,2V38h3V60H23V38h3v2a2,2,0,0,0,2,2h8A2,2,0,0,0,38,40Zm-2-2v2H28V38ZM26,19a1,1,0,0,1-1-1V15H39v3a1,1,0,0,1-1,1Zm31,5H55a1,1,0,0,1-1-1V11a1,1,0,0,1,1-1h2ZM57,8H55a3,3,0,0,0-3,3V23a3,3,0,0,0,3,3h2v1a3,3,0,0,1-3,3H33V21h5a3,3,0,0,0,3-3V14a1,1,0,0,0-1-1H24a1,1,0,0,0-1,1v4a3,3,0,0,0,3,3h5v9H10a3,3,0,0,1-3-3V7a3,3,0,0,1,3-3H54a3,3,0,0,1,3,3Z"></path><polygon points="13 52 15 52 15 54 17 54 17 52 19 52 19 50 17 50 17 48 15 48 15 50 13 50 13 52"></polygon><rect x="13" y="56" width="6" height="2"></rect><rect x="47" y="48" width="2" height="2"></rect><rect x="49" y="50" width="2" height="2"></rect><rect x="45" y="50" width="2" height="2"></rect><rect x="47" y="52" width="2" height="2"></rect><rect x="45" y="56" width="6" height="2"></rect><rect x="27" y="50" width="2" height="2"></rect><rect x="31" y="50" width="2" height="2"></rect><rect x="35" y="50" width="2" height="2"></rect><rect x="29" y="16" width="6" height="2"></rect><rect x="31" y="9" width="2" height="2"></rect><rect x="35" y="9" width="2" height="2"></rect><rect x="27" y="9" width="2" height="2"></rect><rect x="23" y="9" width="2" height="2"></rect><rect x="39" y="9" width="2" height="2"></rect></svg>