<svg xmlns="http://www.w3.org/2000/svg" viewBox="0 0 64 64" x="0px" y="0px"><g><path d="M25.08,16H23.45l-.5-1.55a1,1,0,0,0-1.9,0L20.55,16H18.92a1,1,0,0,0-.59,1.81l1.32.95-.5,1.55a1,1,0,0,0,1.54,1.12L22,20.47l1.31.96a1,1,0,0,0,1.54-1.12l-.5-1.55,1.32-.95A1,1,0,0,0,25.08,16Z"></path><path d="M37,56H32a1,1,0,0,1,0-2h5a2,2,0,0,0,0-4H32a1,1,0,0,1,0-2h5a2,2,0,0,0,0-4H32a1,1,0,0,1,0-2h5a2,2,0,0,0,0-4H26a1,1,0,0,1-1-1V32a2.006,2.006,0,0,0-2-2H21v7a1.014,1.014,0,0,1-.4.8l-4,3a.984.984,0,0,1-.6.2H14V58h1a1,1,0,0,1,.45.11L19.24,60H37a2,2,0,0,0,0-4Z"></path><rect x="4" y="40" width="8" height="20"></rect><rect x="47" y="24" width="4" height="6"></rect><polygon points="58.22 8 39.78 8 39.28 10 58.72 10 58.22 8"></polygon><path d="M58,30V18a3.967,3.967,0,0,1-3-1.38,3.951,3.951,0,0,1-6,0,3.951,3.951,0,0,1-6,0A3.967,3.967,0,0,1,40,18V30h5V23a1,1,0,0,1,1-1h6a1,1,0,0,1,1,1v7Z"></path><path d="M59.99,14.15,59.28,12H56v2a2,2,0,0,0,3.99.15Z"></path><path d="M38.01,14.15A2,2,0,0,0,42,14V12H38.72Z"></path><path d="M52,16a2.006,2.006,0,0,0,2-2V12H50v2A2.006,2.006,0,0,0,52,16Z"></path><path d="M46,16a2.006,2.006,0,0,0,2-2V12H44v2A2.006,2.006,0,0,0,46,16Z"></path><rect x="29" y="17" width="4" height="2"></rect><rect x="28.697" y="12" width="3.606" height="2" transform="translate(-2.089 19.102) rotate(-33.69)"></rect><rect x="29.5" y="21.197" width="2" height="3.606" transform="translate(-5.556 35.619) rotate(-56.31)"></rect><rect x="11" y="17" width="4" height="2"></rect><rect x="12.5" y="11.197" width="2" height="3.606" transform="translate(-4.805 17.022) rotate(-56.31)"></rect><rect x="11.697" y="22" width="3.606" height="2" transform="translate(-10.491 11.351) rotate(-33.69)"></rect></g></svg>