<svg xmlns="http://www.w3.org/2000/svg" viewBox="0 0 64 64" x="0px" y="0px"><g><circle cx="52" cy="20" r="2"></circle><rect x="17" y="21" width="6" height="2"></rect><circle cx="20" cy="44" r="1"></circle><path d="M20,26c.338,0,.667.032,1,.051V25H19v1.051C19.333,26.032,19.662,26,20,26Z"></path><path d="M20,28A16,16,0,1,0,36,44,16.021,16.021,0,0,0,20,28ZM8,45H6V43H8ZM19,30h2v2H19Zm2,28H19V56h2ZM20,47a3.01,3.01,0,0,1-2.82-2H12V43h5.18A3.035,3.035,0,0,1,19,41.18V34h2v7.18A3,3,0,0,1,20,47Zm12-2V43h2v2Z"></path><path d="M32.73,29.854l-.75.75A18.191,18.191,0,0,1,33.4,32.02l.75-.75Z"></path><path d="M7.27,29.854,5.854,31.27l.75.75A18.191,18.191,0,0,1,8.02,30.6Z"></path><path d="M14,12V27.05a18.877,18.877,0,0,1,3-.78V25a2.006,2.006,0,0,1-2-2V21a2.006,2.006,0,0,1,2-2h6a2.006,2.006,0,0,1,2,2v2a2.006,2.006,0,0,1-2,2v1.27a17.862,17.862,0,0,1,7.41,3.07l1.61-1.61a1.008,1.008,0,0,1,1.42,0l2.83,2.83a1.008,1.008,0,0,1,0,1.42l-1.61,1.61A17.85,17.85,0,0,1,36.1,52H59a1,1,0,0,0,1-1V12Zm20,9H32V19h2Zm2,0V19H46v2Zm7,18H41V37h2Zm4,0H45V37h2Zm6-1a1,1,0,0,1-1,1H49V37h2V26h2ZM52,24a4,4,0,1,1,4-4A4,4,0,0,1,52,24Z"></path><path d="M59,4H15a1,1,0,0,0-1,1v5H60V5A1,1,0,0,0,59,4ZM20,8H18V6h2Zm4,0H22V6h2Zm4,0H26V6h2Z"></path></g></svg>