<svg xmlns="http://www.w3.org/2000/svg" viewBox="0 0 64 64" x="0px" y="0px"><title>Weather</title><g><path d="M21.185,36H37.259c.186,0,.362-.009.591-.022A7.622,7.622,0,0,0,45,28.5a7.331,7.331,0,0,0-1.97-4.974A6.918,6.918,0,0,0,44,20a7,7,0,0,0-12.269-4.608A10.171,10.171,0,0,0,28.963,15a9.68,9.68,0,0,0-9.814,9.335A6.021,6.021,0,0,0,15,30,6.1,6.1,0,0,0,21.185,36ZM37,15a5.006,5.006,0,0,1,5,5,4.95,4.95,0,0,1-.53,2.224,7.813,7.813,0,0,0-3.358-1.171,9.537,9.537,0,0,0-4.374-4.836A4.992,4.992,0,0,1,37,15ZM20.355,26.082a1.025,1.025,0,0,0,.812-1.058c-.01-.173-.019-.349-.019-.524A7.671,7.671,0,0,1,28.963,17a7.851,7.851,0,0,1,7.478,5.313,1,1,0,0,0,.936.7A5.489,5.489,0,0,1,37.7,33.983c-.148.009-.288.017-.436.017H21.185A4.1,4.1,0,0,1,17,30,4.049,4.049,0,0,1,20.355,26.082Z"></path><rect x="37" y="10" width="2" height="2"></rect><rect x="31" y="11" width="2" height="2"></rect><rect x="45" y="17" width="2" height="2"></rect><rect x="42" y="12" width="2" height="2"></rect><path d="M59,2H5A3,3,0,0,0,2,5V45a3,3,0,0,0,3,3H22.9l-.8,8H19a1,1,0,0,0-1,1v3H16v2H48V60H46V57a1,1,0,0,0-1-1H41.905l-.8-8H59a3,3,0,0,0,3-3V5A3,3,0,0,0,59,2ZM44,58v2H20V58ZM24.105,56l.8-8H39.1l.8,8ZM60,45a1,1,0,0,1-1,1H5a1,1,0,0,1-1-1V5A1,1,0,0,1,5,4H59a1,1,0,0,1,1,1Z"></path><path d="M56,6H8A2,2,0,0,0,6,8V39a1,1,0,0,0,1,1H57a1,1,0,0,0,1-1V8A2,2,0,0,0,56,6Zm0,32H8V8H56Z"></path><rect x="31" y="42" width="2" height="2"></rect></g></svg>