<svg xmlns="http://www.w3.org/2000/svg" viewBox="0 0 64 64" x="0px" y="0px"><g><path d="M41,6h2V5a1,1,0,0,0-2,0Z"></path><rect x="52" y="8" width="4" height="6"></rect><path d="M41.243,35.243a6,6,0,1,0-8.486,0A6.008,6.008,0,0,0,41.243,35.243Z"></path><rect x="28" y="42" width="4" height="4"></rect><path d="M44.071,38.071a10,10,0,1,0-14.142,0A10.009,10.009,0,0,0,44.071,38.071ZM29,31a7.993,7.993,0,1,1,2.343,5.657A7.948,7.948,0,0,1,29,31Z"></path><path d="M28,22v1.084c.169-.191.332-.386.515-.569s.378-.346.569-.515Z"></path><polygon points="58.214 49.384 52.556 43.728 49.728 46.556 55.385 52.213 58.213 49.385 58.214 49.384"></polygon><path d="M53.971,53.627,52,51.657V60h4V54.107a1.958,1.958,0,0,1-2.029-.48Z"></path><path d="M19,6h2V5a1,1,0,0,0-2,0Z"></path><path d="M30,6h2V5a1,1,0,0,0-2,0Z"></path><path d="M12,8v6H50V8H41V9a1,1,0,0,0,1,1v2a3,3,0,0,1-3-3V8H30V9a1,1,0,0,0,1,1v2a3,3,0,0,1-3-3V8H19V9a1,1,0,0,0,1,1v2a3,3,0,0,1-3-3V8Z"></path><polygon points="52 40.344 56 44.344 56 16 52 16 52 40.344"></polygon><path d="M47.607,40.192l-1.45-1.45c-.215.254-.433.505-.672.743s-.49.457-.743.672l1.45,1.45Z"></path><path d="M6,51a3,3,0,0,0,3,3H43a4.987,4.987,0,0,1-1-3V48H6Z"></path><path d="M50,54.974A4.948,4.948,0,0,1,47,56H12v4H50Z"></path><path d="M12,46h4V41a1,1,0,0,1,1-1h6a1,1,0,0,1,1,1v5h2V41a1,1,0,0,1,1-1h2.084c-.191-.169-.386-.332-.569-.515A12.011,12.011,0,0,1,26,26.23V21a1,1,0,0,1,1-1h5.229a11.983,11.983,0,0,1,15.1,17.085l1.694,1.693A1.015,1.015,0,0,1,50,38.547V16H12Zm4-25a1,1,0,0,1,1-1h6a1,1,0,0,1,1,1v6a1,1,0,0,1-1,1H17a1,1,0,0,1-1-1Zm0,10a1,1,0,0,1,1-1h6a1,1,0,0,1,1,1v6a1,1,0,0,1-1,1H17a1,1,0,0,1-1-1Z"></path><path d="M44.778,43.021l-1.693-1.694A11.864,11.864,0,0,1,34,42.6V46h9a1,1,0,0,1,1,1v4a3,3,0,0,0,6,0V49.657l-5.222-5.222A1,1,0,0,1,44.778,43.021Z"></path><rect x="18" y="42" width="4" height="4"></rect><rect x="47.021" y="42.021" width="4" height="2" transform="translate(-16.062 47.27) rotate(-45.006)"></rect><rect x="18" y="22" width="4" height="4"></rect><rect x="18" y="32" width="4" height="4"></rect></g></svg>