<svg xmlns="http://www.w3.org/2000/svg" viewBox="0 0 64 64" x="0px" y="0px"><g data-name="Cloud-Padlock-Cloud Computing-Data-Storage"><path d="M51.98,18.36A10.01,10.01,0,0,0,42,9a9.663,9.663,0,0,0-2.16.24A15,15,0,0,0,12,17a12.414,12.414,0,0,0,.07,1.34A13,13,0,0,0,15,44h1.14A16.515,16.515,0,0,0,16,46a16,16,0,0,0,32,0,16.515,16.515,0,0,0-.14-2H49a12.992,12.992,0,0,0,2.98-25.64ZM32,60A14,14,0,1,1,46,46,14.015,14.015,0,0,1,32,60ZM49,42H47.47a15.972,15.972,0,0,0-30.94,0H15a10.993,10.993,0,0,1-1.67-21.86,1,1,0,0,0,.66-.4,1.021,1.021,0,0,0,.18-.74A12.177,12.177,0,0,1,14,17a13,13,0,0,1,24.47-6.13.984.984,0,0,0,1.18.48A8.008,8.008,0,0,1,50,19.01c0,.03-.01.14-.01.17a1.007,1.007,0,0,0,.84.99A10.991,10.991,0,0,1,49,42Z"></path><path d="M17,17h2a8.009,8.009,0,0,1,8-8V7A10.011,10.011,0,0,0,17,17Z"></path><path d="M55,31a6.006,6.006,0,0,1-6,6v2a8.009,8.009,0,0,0,8-8Z"></path><path d="M39,44V43a7,7,0,0,0-14,0v1a1,1,0,0,0-1,1V55a1,1,0,0,0,1,1H39a1,1,0,0,0,1-1V45A1,1,0,0,0,39,44ZM27,43a5,5,0,0,1,10,0v1H35V43a3,3,0,0,0-6,0v1H27Zm6,0v1H31V43a1,1,0,0,1,2,0Zm5,11H26V46H38Z"></path><polygon points="30 50 31 50 31 52 33 52 33 50 34 50 34 48 30 48 30 50"></polygon></g></svg>