<svg xmlns="http://www.w3.org/2000/svg" viewBox="0 0 64 64" x="0px" y="0px"><g><path d="M61.9,52.553,56,40.764V9a3,3,0,0,0-3-3H11A3,3,0,0,0,8,9V40.764L2.105,52.553A1,1,0,0,0,2,53v3a2,2,0,0,0,2,2H60a2,2,0,0,0,2-2V53A1,1,0,0,0,61.9,52.553ZM40.618,52,38.9,48.553A1,1,0,0,0,38,48H26a1,1,0,0,0-.895.553L23.382,52H4.618l5-10H54.382l5,10Zm-2.236,0H25.618l1-2H37.382ZM10,9a1,1,0,0,1,1-1H53a1,1,0,0,1,1,1V40H10ZM4,56V54H60v2Z"></path><rect x="10" y="48" width="2" height="2"></rect><rect x="14" y="48" width="2" height="2"></rect><rect x="48" y="48" width="2" height="2"></rect><rect x="52" y="48" width="2" height="2"></rect><rect x="15" y="44" width="2" height="2"></rect><rect x="11" y="44" width="2" height="2"></rect><rect x="19" y="44" width="2" height="2"></rect><rect x="23" y="44" width="2" height="2"></rect><rect x="27" y="44" width="2" height="2"></rect><rect x="31" y="44" width="2" height="2"></rect><rect x="35" y="44" width="2" height="2"></rect><rect x="39" y="44" width="2" height="2"></rect><rect x="43" y="44" width="2" height="2"></rect><rect x="47" y="44" width="2" height="2"></rect><rect x="51" y="44" width="2" height="2"></rect><rect x="18" y="48" width="4" height="2"></rect><rect x="42" y="48" width="4" height="2"></rect><path d="M26,17a4,4,0,1,0,4,4A4,4,0,0,0,26,17Zm0,6a2,2,0,1,1,2-2A2,2,0,0,1,26,23Z"></path><path d="M47.24,25.029l-1.6-.4a7.9,7.9,0,0,0-.559-1.351l.852-1.429a1,1,0,0,0-.153-1.219l-1.41-1.41a1,1,0,0,0-1.219-.152l-1.428.851a7.9,7.9,0,0,0-1.352-.558l-.4-1.6A1,1,0,0,0,39,17H37a1,1,0,0,0-.971.76l-.372,1.5a.98.98,0,0,0-.415-.233l-1.6-.4a8.018,8.018,0,0,0-.561-1.349l.853-1.421a1,1,0,0,0-.151-1.222l-1.414-1.414a1,1,0,0,0-1.222-.151l-1.421.853a7.932,7.932,0,0,0-1.349-.56l-.4-1.606A1,1,0,0,0,27,11H25a1,1,0,0,0-.97.758l-.4,1.606a7.932,7.932,0,0,0-1.349.56l-1.421-.853a1,1,0,0,0-1.222.151l-1.414,1.414a1,1,0,0,0-.151,1.222l.853,1.421a7.932,7.932,0,0,0-.56,1.349l-1.606.4A1,1,0,0,0,16,20v2a1,1,0,0,0,.758.97l1.606.4a7.932,7.932,0,0,0,.56,1.349l-.853,1.421a1,1,0,0,0,.151,1.222l1.414,1.414a1,1,0,0,0,1.222.151l1.421-.853a7.932,7.932,0,0,0,1.349.56l.4,1.606A1,1,0,0,0,25,31h2a1,1,0,0,0,.97-.758l.376-1.5a.98.98,0,0,0,.414.232l1.6.4a7.858,7.858,0,0,0,.558,1.351l-.851,1.429a1,1,0,0,0,.152,1.219l1.41,1.41a1,1,0,0,0,1.219.152l1.428-.851a7.9,7.9,0,0,0,1.352.558l.4,1.6A1,1,0,0,0,37,37h2a1,1,0,0,0,.971-.76l.4-1.6a7.9,7.9,0,0,0,1.352-.558l1.428.851a1,1,0,0,0,1.219-.152l1.41-1.41a1,1,0,0,0,.153-1.219l-.852-1.429a7.9,7.9,0,0,0,.559-1.351l1.6-.4A1,1,0,0,0,48,28V26A1,1,0,0,0,47.24,25.029ZM27.324,26.848a1,1,0,0,0-.75.733L26.219,29h-.438l-.355-1.419a1,1,0,0,0-.75-.733A5.948,5.948,0,0,1,22.8,26.07a1,1,0,0,0-1.049-.012l-1.256.754-.31-.31.754-1.256A1,1,0,0,0,20.93,24.2a5.948,5.948,0,0,1-.778-1.873,1,1,0,0,0-.733-.75L18,21.219v-.438l1.419-.355a1,1,0,0,0,.733-.75A5.948,5.948,0,0,1,20.93,17.8a1,1,0,0,0,.012-1.049L20.188,15.5l.31-.31,1.256.754A1,1,0,0,0,22.8,15.93a5.948,5.948,0,0,1,1.873-.778,1,1,0,0,0,.75-.733L25.781,13h.438l.355,1.419a1,1,0,0,0,.75.733,5.948,5.948,0,0,1,1.873.778,1,1,0,0,0,1.049.012l1.256-.754.31.31-.754,1.256A1,1,0,0,0,31.07,17.8a5.948,5.948,0,0,1,.778,1.873,1,1,0,0,0,.733.75L34,20.781v.438l-1.419.355a1,1,0,0,0-.733.75A5.948,5.948,0,0,1,31.07,24.2a1,1,0,0,0-.012,1.049l.754,1.256-.31.31-1.256-.754a1,1,0,0,0-1.049.012A5.948,5.948,0,0,1,27.324,26.848ZM46,27.217l-1.42.352a1,1,0,0,0-.737.761A5.914,5.914,0,0,1,43.07,30.2a1,1,0,0,0-.009,1.04l.751,1.261-.308.309-1.262-.751a1,1,0,0,0-1.039.009,5.875,5.875,0,0,1-1.873.772,1,1,0,0,0-.761.738L38.218,35h-.436l-.351-1.42a1,1,0,0,0-.761-.738A5.875,5.875,0,0,1,34.8,32.07a1,1,0,0,0-1.039-.009l-1.261.751-.31-.309.752-1.261a1,1,0,0,0-.009-1.04,6.017,6.017,0,0,1-.62-1.385c.017-.015.038-.023.054-.039l1.414-1.414A.986.986,0,0,0,34,26.993V27a4.166,4.166,0,1,0,.052-.513,1.006,1.006,0,0,0-.123-.345l-.853-1.421a8.018,8.018,0,0,0,.561-1.349l1.6-.4A1,1,0,0,0,36,22v-.648a5.173,5.173,0,0,1,.671-.194,1,1,0,0,0,.76-.738L37.782,19h.436l.351,1.42a1,1,0,0,0,.761.738,5.875,5.875,0,0,1,1.873.772,1,1,0,0,0,1.039.009l1.262-.751.308.309-.751,1.261a1,1,0,0,0,.009,1.04,5.914,5.914,0,0,1,.773,1.872,1,1,0,0,0,.737.761l1.42.352ZM36,27a2,2,0,1,1,2,2A2,2,0,0,1,36,27Z"></path><rect x="36" y="11" width="2" height="2"></rect><rect x="40" y="11" width="2" height="2"></rect><rect x="44" y="11" width="2" height="2"></rect><rect x="48" y="11" width="2" height="2"></rect><rect x="15" y="35" width="2" height="2"></rect><rect x="19" y="35" width="2" height="2"></rect><rect x="23" y="35" width="2" height="2"></rect><rect x="27" y="35" width="2" height="2"></rect></g></svg>