<svg xmlns="http://www.w3.org/2000/svg" viewBox="0 0 64 64" x="0px" y="0px"><g data-name="Medical Research"><path d="M52,20H50V18H42v2H40V17a1,1,0,0,1,1-1H51a1,1,0,0,1,1,1Z"></path><path d="M47,36V34H45v2a1,1,0,0,1-1,1H42v2h2a1,1,0,0,1,1,1v2h2V40a1,1,0,0,1,1-1h2V37H48A1,1,0,0,1,47,36Z"></path><polygon points="60 22 32 22 32 26.181 41.099 28 50.901 28 60 26.181 60 22"></polygon><path d="M51.2,29.98A1.355,1.355,0,0,1,51,30H41a1.355,1.355,0,0,1-.2-.02L33,28.42V45a1,1,0,0,0,1,1H58a1,1,0,0,0,1-1V28.42ZM52,40a1,1,0,0,1-1,1H49v2a1,1,0,0,1-1,1H44a1,1,0,0,1-1-1V41H41a1,1,0,0,1-1-1V36a1,1,0,0,1,1-1h2V33a1,1,0,0,1,1-1h4a1,1,0,0,1,1,1v2h2a1,1,0,0,1,1,1Z"></path><path d="M10.168,12.445a1,1,0,0,1,1.664,0L12,12.7V10H10v2.7Z"></path><path d="M31,20h7V11a1,1,0,0,0-1-1H14v6a1.008,1.008,0,0,1-.71.96A.967.967,0,0,1,13,17a.984.984,0,0,1-.83-.45L11,14.8,9.83,16.55a.992.992,0,0,1-1.12.41A1.008,1.008,0,0,1,8,16V10H5a1,1,0,0,0-1,1V53a1,1,0,0,0,1,1H37a1,1,0,0,0,1-1V48H34a3.009,3.009,0,0,1-3-3V28.02l-.2-.04A1,1,0,0,1,30,27V21A1,1,0,0,1,31,20ZM14,20H24v2H14ZM8,20h4v2H8ZM28,44H8V42H28Zm0-4H8V38H28Zm0-4H8V34H28Zm0-4H8V30H28Zm0-6H8V24H28Z"></path></g></svg>