<svg xmlns="http://www.w3.org/2000/svg" viewBox="0 0 64 64" x="0px" y="0px"><g><path d="M32,17a3,3,0,1,0,3,3A3,3,0,0,0,32,17Zm0,4a1,1,0,1,1,1-1A1,1,0,0,1,32,21Z"></path><path d="M31.758,13.03l-4,1,.484,1.94L32,15.031l3.758.939.484-1.94-4-1A.968.968,0,0,0,31.758,13.03Z"></path><path d="M59.43,15H40.475a9.028,9.028,0,0,0-4.6-5.111l-.632-5.032a3.268,3.268,0,0,0-6.484,0l-.632,5.034A9.031,9.031,0,0,0,23.525,15H4.57A2.573,2.573,0,0,0,2,17.57a2.546,2.546,0,0,0,2.343,2.546l4.55.4A3.959,3.959,0,0,0,8,23a4,4,0,0,0,8,0,3.955,3.955,0,0,0-.509-1.914l8.369.729a8.982,8.982,0,0,0,16.28,0l8.369-.729A3.955,3.955,0,0,0,48,23a4,4,0,0,0,8,0,3.959,3.959,0,0,0-.893-2.488l4.55-.4A2.546,2.546,0,0,0,62,17.57,2.573,2.573,0,0,0,59.43,15ZM12,25a2,2,0,1,1,2-2A2,2,0,0,1,12,25Zm40,0a2,2,0,1,1,2-2A2,2,0,0,1,52,25ZM30.742,5.1a1.269,1.269,0,0,1,2.516,0l.511,4.072a8.929,8.929,0,0,0-3.538,0ZM4.517,18.124A.557.557,0,0,1,4,17.57.565.565,0,0,1,4.57,17H23.059A8.935,8.935,0,0,0,23,18a9.073,9.073,0,0,0,.173,1.748ZM32,25a7,7,0,1,1,7-7A7.009,7.009,0,0,1,32,25Zm27.483-6.876L40.827,19.748A9.073,9.073,0,0,0,41,18a8.935,8.935,0,0,0-.059-1H59.43a.565.565,0,0,1,.57.57A.557.557,0,0,1,59.483,18.124Z"></path><path d="M50,48H39V37a1,1,0,0,0-1-1H14a1,1,0,0,0-1,1V61a1,1,0,0,0,1,1H50a1,1,0,0,0,1-1V49A1,1,0,0,0,50,48ZM19,38h2v2.59l-.29-.3a1.014,1.014,0,0,0-1.42,0l-.29.3Zm-4,0h2v2H15Zm0,12h2v2H15ZM25,60H15V54h2v1a.987.987,0,0,0,.62.92,1,1,0,0,0,1.09-.21L20,54.41l1.29,1.3A1.007,1.007,0,0,0,22,56a.838.838,0,0,0,.38-.08A.987.987,0,0,0,23,55V54h2Zm-6-7.41V50h2v2.59l-.29-.3a1.014,1.014,0,0,0-1.42,0ZM25,52H23V50h2Zm0-4H15V42h2v1a.987.987,0,0,0,.62.92,1,1,0,0,0,1.09-.21L20,42.41l1.29,1.3A1.007,1.007,0,0,0,22,44a.838.838,0,0,0,.38-.08A.987.987,0,0,0,23,43V42h2Zm0-8H23V38h2Zm6-2h2v2.59l-.29-.3a1.014,1.014,0,0,0-1.42,0l-.29.3Zm-4,0h2v2H27Zm0,12h2v2H27ZM37,60H27V54h2v1a.987.987,0,0,0,.62.92,1,1,0,0,0,1.09-.21L32,54.41l1.29,1.3A1.007,1.007,0,0,0,34,56a.838.838,0,0,0,.38-.08A.987.987,0,0,0,35,55V54h2Zm-6-7.41V50h2v2.59l-.29-.3a1.014,1.014,0,0,0-1.42,0ZM37,52H35V50h2Zm0-4H27V42h2v1a.987.987,0,0,0,.62.92,1,1,0,0,0,1.09-.21L32,42.41l1.29,1.3A1.007,1.007,0,0,0,34,44a.838.838,0,0,0,.38-.08A.987.987,0,0,0,35,43V42h2Zm0-8H35V38h2Zm6,10h2v2.59l-.29-.3a1.014,1.014,0,0,0-1.42,0l-.29.3Zm-4,0h2v2H39ZM49,60H39V54h2v1a.987.987,0,0,0,.62.92,1,1,0,0,0,1.09-.21L44,54.41l1.29,1.3A1.007,1.007,0,0,0,46,56a.838.838,0,0,0,.38-.08A.987.987,0,0,0,47,55V54h2Zm0-8H47V50h2Z"></path></g></svg>