<svg xmlns="http://www.w3.org/2000/svg" viewBox="0 0 64 64" x="0px" y="0px"><g data-name="Folder-Files Management-Smartphone-Mobile-App"><rect x="29" y="22" width="6" height="2"></rect><rect x="33" y="26" width="2" height="2"></rect><path d="M44,2H20a7.008,7.008,0,0,0-7,7V31.15L6.76,41.95A16.875,16.875,0,0,0,4.59,52.33l1.08,9.78,1.99-.22L6.57,52.11a14.956,14.956,0,0,1,1.92-9.16L13,35.15V48.12l-.56.98,1.73,1,5-8.66a1.988,1.988,0,0,1,2.73-.73,1.894,1.894,0,0,1,.93,1.21,1.974,1.974,0,0,1-.2,1.52l-3.5,6.06a1.023,1.023,0,0,0-.06.87l1.29,3.21A9.149,9.149,0,0,1,21,56.93v1.3a8.937,8.937,0,0,1-.66,3.39l1.85.76c.05-.13.08-.25.13-.38H44a7.008,7.008,0,0,0,7-7V9A7.008,7.008,0,0,0,44,2Zm5,53a5,5,0,0,1-5,5H22.85A11.529,11.529,0,0,0,23,58.23v-1.3A11.075,11.075,0,0,0,22.6,54H49Zm0-3H21.88l-.77-1.92,3.26-5.64a4.005,4.005,0,0,0-.3-4.44H40a3.009,3.009,0,0,0,3-3V27a2.006,2.006,0,0,0-2-2H39V20a2.006,2.006,0,0,0-2-2H27a2.006,2.006,0,0,0-2,2H24a3.009,3.009,0,0,0-3,3V37a2.942,2.942,0,0,0,.4,1.47,4,4,0,0,0-3.96,1.97L15,44.66V12H49ZM27.59,26l4.7,4.71A1.033,1.033,0,0,0,33,31h8v6a1,1,0,0,1-1,1H24a1,1,0,0,1-1-1V26ZM23,24V23a1,1,0,0,1,1-1h1v2Zm4,0V20H37v9H33.41l-4.7-4.71A1.033,1.033,0,0,0,28,24Zm12,5V27h2v2ZM49,10H15V9a5,5,0,0,1,5-5H44a5,5,0,0,1,5,5Z"></path><rect x="25" y="6" width="2" height="2"></rect><rect x="29" y="6" width="6" height="2"></rect><rect x="30" y="56" width="4" height="2"></rect><path d="M17,15v4h2V16h3V14H18A1,1,0,0,0,17,15Z"></path><rect x="17" y="21" width="2" height="2"></rect></g></svg>