<svg xmlns="http://www.w3.org/2000/svg" viewBox="0 0 64 64" x="0px" y="0px"><g data-name="Compound Medicine"><path d="M34.544,36.014c-.075-.026-.156-.049-.23-.076a5.681,5.681,0,0,0-3.975,0,6.911,6.911,0,0,1-2.679.48,6.79,6.79,0,0,1-2.233-.328L23.366,40.8a2.942,2.942,0,0,0-.208,1.691l9.453,1.668a3.982,3.982,0,0,1,1.738.776A2.965,2.965,0,0,0,36.633,40.8ZM29,42H27V40h2Zm4-2H31V38h2Z"></path><path d="M17.019,55.12a1,1,0,0,1,.662-.008l5.734,1.937,20.344-7.4a2,2,0,0,0-1.369-3.76L35.9,48.247a4.113,4.113,0,0,1-.042.537,4.016,4.016,0,0,1-4.636,3.259L19.965,50.057l.347-1.969L31.57,50.073a2.011,2.011,0,0,0,2.319-1.628,1.822,1.822,0,0,0-.008-.676c-.007-.035-.012-.069-.016-.1a1.278,1.278,0,0,0-.069-.25,1.983,1.983,0,0,0-1.532-1.286L18.938,43.779l-6.279,2.286,3.42,9.4Z"></path><polygon points="10.095 44.869 4.457 46.922 9.246 60.078 14.884 58.025 10.7 46.531 10.438 45.81 10.438 45.81 10.095 44.869"></polygon><path d="M28,25v5a1,1,0,0,1-.083.4l-1.682,3.843a4.952,4.952,0,0,0,1.425.177,5.02,5.02,0,0,0,2-.361,6.878,6.878,0,0,1,2.668-.479,8.016,8.016,0,0,1,1.177.081L32.083,30.4A1,1,0,0,1,32,30V25Z"></path><path d="M33,21H27a1,1,0,0,0,0,2h6a1,1,0,0,0,0-2Z"></path><path d="M40.853,6.249l-.531,3.012-.045.254c.334-.008.658-.012.974-.014a23.443,23.443,0,0,0,6.2-.743,28.341,28.341,0,0,0,2.875-.839Z"></path><path d="M59.379,12.983a2,2,0,0,0-.8-3.608L53.9,8.549a25.365,25.365,0,0,1-5.98,2.153c-.838.2-1.572.349-2.234.46l12.2,2.152A1.994,1.994,0,0,0,59.379,12.983Z"></path><path d="M38.892,4.17a.993.993,0,0,0-.646-.41.963.963,0,0,0-.177-.016,1,1,0,0,0-.982.826l-1.042,5.909a1,1,0,0,0,.811,1.158h0a1,1,0,0,0,1.158-.812l1.042-5.909A.991.991,0,0,0,38.892,4.17Z"></path><rect x="31" y="15" width="2" height="2"></rect><rect x="27" y="13" width="2" height="2"></rect><rect x="30" y="10" width="2" height="2"></rect></g></svg>