<svg xmlns="http://www.w3.org/2000/svg" viewBox="0 0 64 64" x="0px" y="0px"><g data-name="Multi Function"><circle cx="56" cy="30" r="2"></circle><circle cx="8" cy="34" r="2"></circle><path d="M28,19.586V15.3L26.845,13.57,26,14.414V15H24V14a1,1,0,0,1,.293-.707L26,11.586V8.414L24.586,7H22.414L21,8.414V9H19V8a1,1,0,0,1,.293-.707L20.856,5.73,20.279,4H18.414L17,5.414V26.586L18.414,28h1.865l.577-1.73-1.563-1.563A1,1,0,0,1,19,24V23h2v.586l1.307,1.307L25,24.219V19h2v1.586ZM19,14V11h2v2.586l1.707,1.707-1.414,1.414-2-2A1,1,0,0,1,19,14Zm4,8H21V20.414l-.707-.707,1.414-1.414,1,1A1,1,0,0,1,23,20Z"></path><path d="M12.707,24.707,11.144,26.27,11.721,28h1.865L15,26.586V5.414L13.586,4H11.721l-.577,1.73,1.563,1.563A1,1,0,0,1,13,8V9H11V8.414L9.586,7H7.414L6,8.414v3.172l1.707,1.707A1,1,0,0,1,8,14v1H6v-.586l-.845-.844L4,15.3v4.283l1,1V19H7v5.219l2.693.674L11,23.586V23h2v1A1,1,0,0,1,12.707,24.707ZM11,20.414V22H9V20a1,1,0,0,1,.293-.707l1-1,1.414,1.414Zm1.707-5.707-2,2L9.293,15.293,11,13.586V11h2v3A1,1,0,0,1,12.707,14.707Z"></path><path d="M44.707,56.707,43.144,58.27,43.721,60h1.865L47,58.586V37.414L45.586,36H43.721l-.577,1.73,1.563,1.563A1,1,0,0,1,45,40v1H43v-.586L41.586,39H39.414L38,40.414v3.172l1.707,1.707A1,1,0,0,1,40,46v1H38v-.586l-.845-.844L36,47.3v4.283l1,1V51h2v5.219l2.693.674L43,55.586V55h2v1A1,1,0,0,1,44.707,56.707ZM43,52.414V54H41V52a1,1,0,0,1,.293-.707l1-1,1.414,1.414Zm1.707-5.707-2,2-1.414-1.414L43,45.586V43h2v3A1,1,0,0,1,44.707,46.707Z"></path><path d="M60,51.586V47.3L58.845,45.57,58,46.414V47H56V46a1,1,0,0,1,.293-.707L58,43.586V40.414L56.586,39H54.414L53,40.414V41H51V40a1,1,0,0,1,.293-.707l1.563-1.563L52.279,36H50.414L49,37.414V58.586L50.414,60h1.865l.577-1.73-1.563-1.563A1,1,0,0,1,51,56V55h2v.586l1.307,1.307L57,56.219V51h2v1.586ZM51,46V43h2v2.586l1.707,1.707-1.414,1.414-2-2A1,1,0,0,1,51,46Zm4,8H53V52.414l-.707-.707,1.414-1.414,1,1A1,1,0,0,1,55,52Z"></path><path d="M15,32V44a5.006,5.006,0,0,0,5,5H32V47H20a3,3,0,0,1-3-3V32Z"></path><path d="M49,32V20a5.006,5.006,0,0,0-5-5H32v2H44a3,3,0,0,1,3,3V32Z"></path><path d="M33,57H12a5.006,5.006,0,0,1-5-5V38H9V52a3,3,0,0,0,3,3H33Z"></path><path d="M57,26H55V12a3,3,0,0,0-3-3H31V7H52a5.006,5.006,0,0,1,5,5Z"></path></g></svg>