<svg xmlns="http://www.w3.org/2000/svg" viewBox="0 0 64 64" x="0px" y="0px"><g><path d="M46,19V17a7.008,7.008,0,0,0-7-7H28.588L26.956,4.706A1,1,0,0,0,26,4H20a1,1,0,0,0-1,1v5H11.693L8.937,2.649A1,1,0,0,0,8,2H3A1,1,0,0,0,2,3V17a5.006,5.006,0,0,0,5,5H19v7a1,1,0,0,0,1,1h6a1,1,0,0,0,.94-.658L29.61,22H43A3,3,0,0,0,46,19ZM21,6h4.262L26.5,10H21ZM44,19a1,1,0,0,1-1,1H30.337l.6-1.658-1.88-.684L25.3,28H21V18H19v2H7a3,3,0,0,1-3-3V4H7.307l2.756,7.351A1,1,0,0,0,11,12H39a5.006,5.006,0,0,1,5,5Z"></path><rect x="38" y="14" width="4" height="2"></rect><rect x="32" y="14" width="2" height="2"></rect><rect x="28" y="14" width="2" height="2"></rect><rect x="24" y="14" width="2" height="2"></rect><rect x="20" y="14" width="2" height="2"></rect><rect x="16" y="14" width="2" height="2"></rect><rect x="12" y="14" width="2" height="2"></rect><path d="M53,41a4,4,0,1,0,4,4A4,4,0,0,0,53,41Zm0,6a2,2,0,1,1,2-2A2,2,0,0,1,53,47Z"></path><path d="M53,36a9.011,9.011,0,0,0-9,9c0,4.712,7.461,11.919,8.312,12.726a1,1,0,0,0,1.376,0C54.539,56.919,62,49.712,62,45A9.011,9.011,0,0,0,53,36Zm0,19.6c-2.447-2.457-7-7.639-7-10.6a7,7,0,0,1,14,0C60,47.96,55.447,53.144,53,55.6Z"></path><rect x="52" y="60" width="2" height="2"></rect><rect x="48" y="60" width="2" height="2"></rect><rect x="44" y="60" width="2" height="2"></rect><rect x="40" y="60" width="2" height="2"></rect><rect x="36" y="60" width="2" height="2"></rect><rect x="32" y="60" width="2" height="2"></rect><rect x="28" y="60" width="2" height="2"></rect><rect x="24" y="60" width="2" height="2"></rect><rect x="20" y="60" width="2" height="2"></rect><rect x="16" y="60" width="2" height="2"></rect><rect x="12" y="60" width="2" height="2"></rect><rect x="8" y="60" width="2" height="2"></rect><rect x="52" y="32" width="2" height="2"></rect><rect x="56" y="32" width="2" height="2"></rect><rect x="60" y="32" width="2" height="2"></rect><rect x="60" y="28" width="2" height="2"></rect><rect x="60" y="24" width="2" height="2"></rect><rect x="60" y="20" width="2" height="2"></rect><rect x="56" y="20" width="2" height="2"></rect><rect x="52" y="20" width="2" height="2"></rect><rect x="48" y="20" width="2" height="2"></rect><rect x="48" y="32" width="2" height="2"></rect><rect x="44" y="32" width="2" height="2"></rect><rect x="40" y="32" width="2" height="2"></rect><rect x="36" y="32" width="2" height="2"></rect><rect x="32" y="32" width="2" height="2"></rect><rect x="28" y="32" width="2" height="2"></rect><rect x="24" y="32" width="2" height="2"></rect><rect x="20" y="32" width="2" height="2"></rect><rect x="16" y="32" width="2" height="2"></rect><rect x="12" y="32" width="2" height="2"></rect><rect x="8" y="32" width="2" height="2"></rect><rect x="4" y="60" width="2" height="2"></rect><rect x="4" y="56" width="2" height="2"></rect><rect x="4" y="52" width="2" height="2"></rect><rect x="4" y="48" width="2" height="2"></rect><rect x="4" y="44" width="2" height="2"></rect><rect x="4" y="40" width="2" height="2"></rect><rect x="4" y="36" width="2" height="2"></rect><rect x="4" y="32" width="2" height="2"></rect></g></svg>