<svg xmlns="http://www.w3.org/2000/svg" viewBox="0 0 64 64" x="0px" y="0px"><g data-name="Wifi Network"><path d="M34.816,51A2.987,2.987,0,0,0,33,49.184V46H31v3.184A2.987,2.987,0,0,0,29.184,51H3v2H29.184a2.982,2.982,0,0,0,5.632,0H61V51Z"></path><rect x="55" y="54" width="2" height="2"></rect><rect x="51" y="54" width="2" height="2"></rect><rect x="47" y="54" width="2" height="2"></rect><rect x="43" y="54" width="2" height="2"></rect><rect x="39" y="54" width="2" height="2"></rect><rect x="7" y="54" width="2" height="2"></rect><rect x="11" y="54" width="2" height="2"></rect><rect x="15" y="54" width="2" height="2"></rect><rect x="19" y="54" width="2" height="2"></rect><rect x="23" y="54" width="2" height="2"></rect><path d="M56,32h2V13a1,1,0,0,0-2,0Z"></path><path d="M7,32H9V13a1,1,0,0,0-2,0Z"></path><path d="M4,35v9H60V35a1,1,0,0,0-1-1H5A1,1,0,0,0,4,35Zm24,1h2v2H28Zm-4,0h2v2H24Zm-4,0h2v2H20Zm-4,0h2v2H16Zm-4,0h2v2H12ZM8,36h2v2H8Z"></path><rect x="53" y="46" width="4" height="1"></rect><rect x="7" y="46" width="4" height="1"></rect><path d="M17.867,14.867a19.956,19.956,0,0,1,28.266,0,1,1,0,1,0,1.414-1.414,21.955,21.955,0,0,0-31.094,0,1,1,0,0,0,1.414,1.414Z"></path><path d="M42.6,19.4a1,1,0,0,0,.707-1.707,15.968,15.968,0,0,0-22.614,0,1,1,0,0,0,1.414,1.414,13.969,13.969,0,0,1,19.786,0A.993.993,0,0,0,42.6,19.4Z"></path><path d="M38.36,23.64a1,1,0,0,0,.709-1.705,9.98,9.98,0,0,0-14.138,0,1,1,0,0,0,1.418,1.41,7.981,7.981,0,0,1,11.3,0A1,1,0,0,0,38.36,23.64Z"></path><circle cx="32" cy="27" r="2"></circle></g></svg>