<svg xmlns="http://www.w3.org/2000/svg" viewBox="0 0 64 64" x="0px" y="0px"><title>Watch-Health-Love</title><g><path d="M52,32a19.9,19.9,0,0,0-7-15.177V12a2,2,0,0,0-2-2V5a3,3,0,0,0-3-3H24a3,3,0,0,0-3,3v5a2,2,0,0,0-2,2v4.822a19.944,19.944,0,0,0,0,30.346V52a2,2,0,0,0,2,2v5a3,3,0,0,0,3,3H40a3,3,0,0,0,3-3V54a2,2,0,0,0,2-2V47.168A19.948,19.948,0,0,0,52,32ZM23,5a1,1,0,0,1,1-1H40a1,1,0,0,1,1,1v5H23Zm-2,7H43v3.3c-.322-.213-.653-.408-.986-.6-.078-.044-.152-.1-.23-.139-.461-.259-.933-.5-1.412-.719-.146-.067-.3-.124-.444-.188-.34-.147-.681-.289-1.029-.417-.188-.069-.378-.13-.568-.194-.317-.106-.635-.206-.956-.3q-.3-.084-.607-.159c-.323-.079-.648-.149-.975-.212-.2-.039-.4-.079-.6-.112-.356-.057-.713-.1-1.072-.139-.173-.019-.345-.044-.518-.058C33.071,12.026,32.537,12,32,12s-1.071.026-1.6.069c-.173.014-.345.039-.518.058-.359.038-.716.082-1.072.139-.2.033-.4.073-.6.112-.326.063-.65.133-.973.212q-.306.075-.609.16c-.32.089-.636.188-.95.294-.193.064-.385.126-.576.2-.342.126-.678.266-1.012.41-.153.066-.309.126-.461.2-.477.221-.947.458-1.406.715-.087.05-.171.107-.258.158-.324.188-.647.378-.961.585ZM14,32A18.022,18.022,0,0,1,32,14q.777,0,1.546.067A17.993,17.993,0,0,1,42.087,46.9c-.1.069-.209.127-.311.194-.353.229-.71.451-1.079.656-.2.108-.4.2-.6.3-.283.143-.567.285-.858.414-.24.1-.484.2-.728.3-.263.1-.527.2-.8.292s-.523.168-.787.243-.548.148-.825.213c-.259.06-.517.12-.778.17-.324.06-.652.106-.981.15-.22.029-.438.064-.659.085-.557.053-1.12.086-1.69.086s-1.133-.033-1.69-.086c-.221-.021-.439-.056-.659-.085-.329-.044-.657-.09-.981-.15-.261-.05-.519-.11-.778-.17-.277-.065-.552-.135-.825-.213s-.526-.156-.787-.243-.532-.189-.8-.292c-.244-.1-.488-.19-.728-.3-.291-.129-.575-.271-.858-.414-.2-.1-.4-.2-.6-.3-.369-.205-.726-.427-1.079-.656-.1-.067-.21-.125-.311-.194A17.994,17.994,0,0,1,14,32ZM41,59a1,1,0,0,1-1,1H24a1,1,0,0,1-1-1V54H41Zm2-10.3V52H21V48.7c.445.294.9.566,1.371.822.142.079.289.147.433.222q.548.285,1.109.536c.207.091.415.18.625.265.354.142.712.271,1.073.393.2.066.389.14.588.2.522.159,1.052.294,1.586.409.2.044.407.076.611.113q.6.113,1.216.187c.2.023.391.047.589.065.6.054,1.2.091,1.8.091s1.2-.037,1.8-.091c.2-.018.393-.042.589-.065q.612-.075,1.216-.187c.2-.037.409-.069.611-.113.534-.115,1.064-.25,1.586-.409.2-.06.392-.134.588-.2.361-.122.719-.251,1.073-.393.21-.085.418-.174.625-.265q.563-.251,1.109-.536c.144-.075.291-.143.433-.222C42.1,49.263,42.555,48.991,43,48.7Z"></path><path d="M32,49A17,17,0,1,0,15,32,17.019,17.019,0,0,0,32,49Zm0-32A15,15,0,1,1,17,32,15.017,15.017,0,0,1,32,17Z"></path><path d="M31.515,41.875a1,1,0,0,0,.97,0C32.874,41.658,42,36.516,42,30a5.963,5.963,0,0,0-1.754-4.242A6.159,6.159,0,0,0,35.991,24,5.884,5.884,0,0,0,32,25.545,5.9,5.9,0,0,0,28.018,24H28a5.976,5.976,0,0,0-6,5.993c0,2.375,1.2,4.829,3.567,7.3A28.44,28.44,0,0,0,31.515,41.875ZM25.14,27.191A4.043,4.043,0,0,1,28,26h.012A3.97,3.97,0,0,1,31.2,27.628a1,1,0,0,0,.8.4.979.979,0,0,0,.8-.4A3.94,3.94,0,0,1,35.993,26H36A3.993,3.993,0,0,1,40,30c0,4.586-6.2,8.729-8,9.837a26.679,26.679,0,0,1-4.99-3.937C25.011,33.823,24,31.837,24,30A4.012,4.012,0,0,1,25.14,27.191Z"></path></g></svg>