<svg xmlns="http://www.w3.org/2000/svg" viewBox="0 0 64 64" x="0px" y="0px"><g><rect x="21" y="45" width="2" height="12"></rect><polygon points="45 58 45 60 49 60 49 58 49 44 49 42 45 42 45 44 45 58"></polygon><path d="M25,57H39V40H25V57Zm6-4h4v2H31Zm-4,0h2v2H27Z"></path><rect x="41" y="45" width="2" height="12"></rect><path d="M32,28A12,12,0,1,0,20,16,12.013,12.013,0,0,0,32,28Zm0-10a1.96,1.96,0,0,1-.511-.075l-1.782,1.782-1.414-1.414,1.782-1.782A1.96,1.96,0,0,1,30,16a2,2,0,1,1,2,2ZM32,6A10.011,10.011,0,0,1,42,16a9.888,9.888,0,0,1-2.936,7.069,1,1,0,0,1-1.411,0L35.536,20.95l1.414-1.414L38.318,20.9a7.861,7.861,0,0,0,1.6-3.9H38V15h1.931a7.953,7.953,0,0,0-1.619-3.9L36.95,12.464,35.536,11.05,36.9,9.688A7.953,7.953,0,0,0,33,8.069V10H31V8.069a7.953,7.953,0,0,0-3.9,1.619l1.362,1.362L27.05,12.464,25.688,11.1A7.953,7.953,0,0,0,24.069,15H26v2H24.082a7.861,7.861,0,0,0,1.6,3.9l1.368-1.368,1.414,1.414-2.117,2.117a1,1,0,0,1-1.411,0A9.888,9.888,0,0,1,22,16,10.011,10.011,0,0,1,32,6Z"></path><path d="M61,57V45H51V57ZM55,47h4v2H55Z"></path><path d="M42,36a2,2,0,0,0-2-2H24a2,2,0,0,0,0,4H40A2,2,0,0,0,42,36Z"></path><path d="M13,57V45H3V57ZM5,47H7v2H5Z"></path><path d="M28,29.41V32h8V29.41a13.854,13.854,0,0,1-8,0Z"></path><polygon points="15 58 15 60 19 60 19 58 19 44 19 42 15 42 15 44 15 58"></polygon></g></svg>