<svg xmlns="http://www.w3.org/2000/svg" viewBox="0 0 64 64" x="0px" y="0px"><g data-name="Game Boy"><path d="M20,40H46V22H20ZM36,30h2v2H36Zm-4,0h2v2H32Zm-4,0h2v2H28Z"></path><circle cx="53" cy="25" r="1"></circle><circle cx="11" cy="25" r="1"></circle><path d="M12,34V33H10v1a1,1,0,0,1-1,1H8v2H9a1,1,0,0,1,1,1v1h2V38a1,1,0,0,1,1-1h1V35H13A1,1,0,0,1,12,34Z"></path><path d="M60,23a5.006,5.006,0,0,0-5-5H9a5.006,5.006,0,0,0-5,5V39a7.008,7.008,0,0,0,7,7H53a7.008,7.008,0,0,0,7-7ZM11,22a3,3,0,1,1-3,3A3,3,0,0,1,11,22Zm5,16a1,1,0,0,1-1,1H14v1a1,1,0,0,1-1,1H9a1,1,0,0,1-1-1V39H7a1,1,0,0,1-1-1V34a1,1,0,0,1,1-1H8V32a1,1,0,0,1,1-1h4a1,1,0,0,1,1,1v1h1a1,1,0,0,1,1,1Zm32,3a1,1,0,0,1-1,1H19a1,1,0,0,1-1-1V21a1,1,0,0,1,1-1H47a1,1,0,0,1,1,1Zm4-4H50V35h2Zm3,3H53V38h2Zm0-6H53V32h2Zm-2-6a3,3,0,1,1,3-3A3,3,0,0,1,53,28Zm5,9H56V35h2Z"></path></g></svg>