<svg xmlns="http://www.w3.org/2000/svg" viewBox="0 0 64 64" x="0px" y="0px"><g><rect x="48" y="52" width="4.001" height="4"></rect><rect x="48" y="46" width="4.001" height="4"></rect><rect x="42" y="40" width="4" height="4"></rect><rect x="42" y="46" width="4" height="4"></rect><rect x="42" y="52" width="4" height="4"></rect><path d="M4,44.11a6.979,6.979,0,0,1,10,0V19A5,5,0,0,0,4,19Z"></path><rect x="48" y="40" width="4" height="4"></rect><rect x="36" y="40" width="4" height="4"></rect><path d="M60,48V20H54v2h1a3.009,3.009,0,0,1,3,3V48Z"></path><path d="M30,25a3.009,3.009,0,0,1,3-3h1V20H16V48H30Zm-7,6H21a3,3,0,0,1,0-6V24h2v1a3,3,0,0,1,3,3H24a1,1,0,0,0-1-1H21a1,1,0,0,0,0,2h2a3,3,0,0,1,0,6v1H21V35a3,3,0,0,1-3-3h2a1,1,0,0,0,1,1h2a1,1,0,0,0,0-2Zm5,13H18V42H28Zm0-4H18V38H28Z"></path><path d="M52,28H36v6H52ZM41,32H39V30h2Zm4,0H43V30h2Zm4,0H47V30h2Z"></path><rect x="36" y="52" width="4" height="4"></rect><path d="M33,60H55a1,1,0,0,0,1-1V25a1,1,0,0,0-1-1H33a1,1,0,0,0-1,1V59A1,1,0,0,0,33,60Zm1-32a2,2,0,0,1,2-2H52a2,2,0,0,1,2,2v6a2,2,0,0,1-2,2H36a2,2,0,0,1-2-2Zm0,12a2,2,0,0,1,2-2H52a2,2,0,0,1,2,2V56a2,2,0,0,1-2,2H36a2,2,0,0,1-2-2Z"></path><path d="M50.8,7.6a1.041,1.041,0,0,1-1.6,0L47,4.67,44.79,7.6a1,1,0,0,1-.8.4,1.014,1.014,0,0,1-.8-.4L41,4.67,38.8,7.6a1.041,1.041,0,0,1-1.6,0L36,6V22H52V6ZM46,20H38V18h8Zm0-4H38V14h8Zm0-4H38V10h8Zm4,8H48V18h2Zm0-4H48V14h2Zm0-4H48V10h2Z"></path><rect x="36" y="46" width="4" height="4"></rect><path d="M9,54H30V50H15a1,1,0,0,1-1-1,5,5,0,1,0-5,5Z"></path></g></svg>