<svg xmlns="http://www.w3.org/2000/svg" viewBox="0 0 64 64" x="0px" y="0px"><g><path d="M60,4H50a3.009,3.009,0,0,0-3,3V23.03A4.924,4.924,0,0,1,50,22H60ZM58,20H49V18h9Zm0-4H49V14h9Zm0-4H49V10h9Zm0-4H49V6h9Z"></path><path d="M47.17,26H60V24H50A3.014,3.014,0,0,0,47.17,26Z"></path><path d="M20,37a3,3,0,0,0-3-3H7a3,3,0,0,0-3,3V57a3,3,0,0,0,3,3H17a3,3,0,0,0,3-3ZM6,38V36H8v2ZM9,48H7V46H9Zm5,10H10V56h4ZM11,48V46h2v2Zm3-10H10V36h4Zm3,10H15V46h2Z"></path><polygon points="26.13 50 37.87 50 37.12 44 26.88 44 26.13 50"></polygon><path d="M21.9,36a4.712,4.712,0,0,1,.1,1v5H50a3.009,3.009,0,0,0,3-3V36ZM47,38h2v2H47ZM31,28a1,1,0,0,1-1-1V12H14a3.009,3.009,0,0,0-3,3V32h6a5.01,5.01,0,0,1,4,2H53V28ZM15,14h2v2H15ZM27,28H15V26H27Zm0-4H15V22H27Zm0-4H15V18H27Zm0-4H19V14h8Z"></path><path d="M45,7a3.009,3.009,0,0,0-3-3H32V22H42a4.924,4.924,0,0,1,3,1.03ZM43,20H34V18h9Zm0-4H34V14h9Zm0-4H34V10h9Zm0-4H34V6h9Z"></path><path d="M32,24v2H44.83A3.014,3.014,0,0,0,42,24Z"></path><rect x="22" y="52" width="20" height="2" rx="1"></rect></g></svg>