<svg xmlns="http://www.w3.org/2000/svg" viewBox="0 0 64 64" x="0px" y="0px"><g><path d="M39.71,13.71l-2,2-1.42-1.42,2-2,.01.01a3.013,3.013,0,0,0,1.41,1.41Z"></path><circle cx="41" cy="11" r="2"></circle><path d="M22.6,15.391a13.916,13.916,0,0,0,4.1,9.9c.2.2.408.4.62.583a13.994,13.994,0,0,0,18.444.1L26.024,6.229A13.871,13.871,0,0,0,22.6,15.391Z"></path><path d="M36,31.385c-.191-.007-.38-.028-.57-.042-.145-.01-.289-.017-.433-.031-.42-.042-.838-.1-1.252-.172l-.057-.008c-.434-.08-.862-.182-1.287-.3-.127-.035-.252-.076-.378-.114-.3-.089-.6-.185-.891-.292-.14-.051-.28-.1-.419-.16-.287-.114-.57-.238-.85-.368-.124-.058-.248-.113-.37-.173q-.535-.267-1.05-.572c-.037-.022-.075-.041-.112-.063-.341-.207-.676-.426-1-.659L22.22,54H36Z"></path><rect x="16" y="56" width="28" height="4"></rect><rect x="43.799" y="5.201" width="4" height="2" transform="translate(9.029 34.201) rotate(-45)"></rect><rect x="40" y="2" width="2" height="4"></rect><rect x="46" y="10" width="4" height="2"></rect></g></svg>