<svg xmlns="http://www.w3.org/2000/svg" viewBox="0 0 64 64" x="0px" y="0px"><g><path d="M39,41v-.02l-2.19-.68a4.976,4.976,0,0,1-9.62,0L25,40.98V48H39Z"></path><path d="M35,39V35.58A11.09,11.09,0,0,1,32,36a10.665,10.665,0,0,1-3-.43V39a3,3,0,0,0,6,0Z"></path><path d="M43,21v4a2.015,2.015,0,0,0,2-2A2.006,2.006,0,0,0,43,21Z"></path><path d="M27,16V13a1,1,0,0,1,1.8-.6L31.5,16H44.96a13,13,0,0,0-25.92,0Z"></path><path d="M30.2,17.6,29,16v1a1,1,0,0,1-1,1H23v7a9,9,0,0,0,18,0V18H31A1.014,1.014,0,0,1,30.2,17.6ZM26,21a2,2,0,1,1,2,2A2,2,0,0,1,26,21Zm10-2a2,2,0,1,1-2,2A2,2,0,0,1,36,19Zm-1,7h2a5,5,0,0,1-10,0h2a3,3,0,0,0,6,0Z"></path><path d="M21,41V51a1,1,0,0,0,2,0V41a1,1,0,0,0-2,0Z"></path><rect x="13" y="56" width="6" height="4"></rect><path d="M43,53.82A2.98,2.98,0,0,1,39,51V50H25v1a2.98,2.98,0,0,1-4,2.82V60H43Z"></path><path d="M21,25V21a2.006,2.006,0,0,0-2,2,2.015,2.015,0,0,0,2,2Z"></path><path d="M43,41a1,1,0,0,0-2,0V51a1,1,0,0,0,2,0Z"></path><rect x="45" y="56" width="6" height="4"></rect><path d="M51,49.88a6.943,6.943,0,0,0-4.91-6.67L45,42.86V54h6Z"></path><path d="M13,54h6V42.86l-1.09.34A6.964,6.964,0,0,0,13,49.88Z"></path></g></svg>