<svg xmlns="http://www.w3.org/2000/svg" viewBox="0 0 64 64" x="0px" y="0px"><g data-name="Amplifier-Speaker-Sound Box-Guitar Amplifier-Audio"><path d="M56,8a1,1,0,0,0,1-1V4a2.006,2.006,0,0,0-2-2H52a1,1,0,0,0-1,1H13a1,1,0,0,0-1-1H9A2.006,2.006,0,0,0,7,4V7A1,1,0,0,0,8,8H9V56H8a1,1,0,0,0-1,1v3a2.006,2.006,0,0,0,2,2h3a1,1,0,0,0,1-1H51a1,1,0,0,0,1,1h3a2.006,2.006,0,0,0,2-2V57a1,1,0,0,0-1-1H55V8ZM9,4h2V6H9Zm2,56H9V58h2Zm40-3v2H13V57a1,1,0,0,0-1-1H11V8h1a1,1,0,0,0,1-1V5H51V7a1,1,0,0,0,1,1h1V56H52A1,1,0,0,0,51,57Zm4,3H53V58h2ZM53,6V4h2V6Z"></path><path d="M44,17a3,3,0,1,0-3-3A3,3,0,0,0,44,17Zm0-4a1,1,0,1,1-1,1A1,1,0,0,1,44,13Z"></path><path d="M36,17a3,3,0,1,0-3-3A3,3,0,0,0,36,17Zm0-4a1,1,0,1,1-1,1A1,1,0,0,1,36,13Z"></path><path d="M28,17a3,3,0,1,0-3-3A3,3,0,0,0,28,17Zm0-4a1,1,0,1,1-1,1A1,1,0,0,1,28,13Z"></path><path d="M50,7H14a1,1,0,0,0-1,1V20a1,1,0,0,0,1,1H50a1,1,0,0,0,1-1V8A1,1,0,0,0,50,7ZM49,19H15V9H49Z"></path><rect x="17" y="13" width="2" height="2"></rect><rect x="21" y="13" width="2" height="2"></rect><path d="M50,23H14a1,1,0,0,0-1,1V56a1,1,0,0,0,1,1H50a1,1,0,0,0,1-1V24A1,1,0,0,0,50,23ZM49,55H15V25H49Z"></path><rect x="17" y="27" width="2" height="2"></rect><rect x="21" y="27" width="2" height="2"></rect><rect x="25" y="27" width="2" height="2"></rect><rect x="29" y="27" width="2" height="2"></rect><rect x="33" y="27" width="2" height="2"></rect><rect x="37" y="27" width="2" height="2"></rect><rect x="41" y="27" width="2" height="2"></rect><rect x="45" y="27" width="2" height="2"></rect><rect x="17" y="31" width="2" height="2"></rect><rect x="21" y="31" width="2" height="2"></rect><rect x="25" y="31" width="2" height="2"></rect><rect x="29" y="31" width="2" height="2"></rect><rect x="33" y="31" width="2" height="2"></rect><rect x="37" y="31" width="2" height="2"></rect><rect x="41" y="31" width="2" height="2"></rect><rect x="45" y="31" width="2" height="2"></rect><rect x="17" y="35" width="2" height="2"></rect><rect x="21" y="35" width="2" height="2"></rect><rect x="25" y="35" width="2" height="2"></rect><rect x="29" y="35" width="2" height="2"></rect><rect x="33" y="35" width="2" height="2"></rect><rect x="37" y="35" width="2" height="2"></rect><rect x="41" y="35" width="2" height="2"></rect><rect x="45" y="35" width="2" height="2"></rect><rect x="17" y="39" width="2" height="2"></rect><rect x="21" y="39" width="2" height="2"></rect><rect x="25" y="39" width="2" height="2"></rect><rect x="29" y="39" width="2" height="2"></rect><rect x="33" y="39" width="2" height="2"></rect><rect x="37" y="39" width="2" height="2"></rect><rect x="41" y="39" width="2" height="2"></rect><rect x="45" y="39" width="2" height="2"></rect><rect x="17" y="43" width="2" height="2"></rect><rect x="21" y="43" width="2" height="2"></rect><rect x="25" y="43" width="2" height="2"></rect><rect x="29" y="43" width="2" height="2"></rect><rect x="33" y="43" width="2" height="2"></rect><rect x="37" y="43" width="2" height="2"></rect><rect x="41" y="43" width="2" height="2"></rect><rect x="45" y="43" width="2" height="2"></rect><rect x="17" y="47" width="2" height="2"></rect><rect x="21" y="47" width="2" height="2"></rect><rect x="25" y="47" width="2" height="2"></rect><rect x="29" y="47" width="2" height="2"></rect><rect x="33" y="47" width="2" height="2"></rect><rect x="37" y="47" width="2" height="2"></rect><rect x="41" y="47" width="2" height="2"></rect><rect x="45" y="47" width="2" height="2"></rect><rect x="17" y="51" width="2" height="2"></rect><rect x="21" y="51" width="2" height="2"></rect><rect x="25" y="51" width="2" height="2"></rect><rect x="29" y="51" width="2" height="2"></rect><rect x="33" y="51" width="2" height="2"></rect><rect x="37" y="51" width="2" height="2"></rect><rect x="41" y="51" width="2" height="2"></rect><rect x="45" y="51" width="2" height="2"></rect></g></svg>