<svg xmlns="http://www.w3.org/2000/svg" viewBox="0 0 64 64" x="0px" y="0px"><g><rect x="31" y="2" width="2" height="4"></rect><rect x="15.444" y="8.443" width="2" height="4" transform="translate(-2.569 14.686) rotate(-45)"></rect><rect x="8" y="25" width="4" height="2"></rect><rect x="14.443" y="40.557" width="4" height="2" transform="translate(-24.569 23.799) rotate(-45)"></rect><rect x="46.557" y="39.556" width="2" height="4" transform="translate(-15.456 45.799) rotate(-45)"></rect><rect x="52" y="25" width="4" height="2"></rect><rect x="45.556" y="9.444" width="4" height="2" transform="translate(6.544 36.686) rotate(-45)"></rect><path d="M32,8A18.021,18.021,0,0,0,14,26a17.829,17.829,0,0,0,7,14.229V44H19a1,1,0,0,0-1,1v4a1,1,0,0,0,1,1h2v5a1,1,0,0,0,1,1h5v5a1,1,0,0,0,1,1h8a1,1,0,0,0,1-1V56h5a1,1,0,0,0,1-1V50h2a1,1,0,0,0,1-1V45a1,1,0,0,0-1-1H43V40.229A17.829,17.829,0,0,0,50,26,18.021,18.021,0,0,0,32,8Zm3,52H29V56h6Zm6-6H23V50H41Zm3-6H20V46H44Zm-2.59-9.077a1,1,0,0,0-.41.807V44H23V39.73a1,1,0,0,0-.41-.807,16,16,0,1,1,18.82,0Z"></path><path d="M42,23H40.478a9.266,9.266,0,0,0-.362-.873l1.076-1.077a1,1,0,0,0,0-1.414l-2.828-2.828a1,1,0,0,0-1.414,0l-1.077,1.076A9.266,9.266,0,0,0,35,17.522V16a1,1,0,0,0-1-1H30a1,1,0,0,0-1,1v1.522a9.266,9.266,0,0,0-.873.362L27.05,16.808a1,1,0,0,0-1.414,0l-2.828,2.828a1,1,0,0,0,0,1.414l1.076,1.077a9.266,9.266,0,0,0-.362.873H22a1,1,0,0,0-1,1v4a1,1,0,0,0,1,1h1.522a9.266,9.266,0,0,0,.362.873L22.808,30.95a1,1,0,0,0,0,1.414l2.828,2.828a1,1,0,0,0,1.414,0l1.077-1.076a9.266,9.266,0,0,0,.873.362V36a1,1,0,0,0,1,1h4a1,1,0,0,0,1-1V34.478a9.266,9.266,0,0,0,.873-.362l1.077,1.076a1,1,0,0,0,1.414,0l2.828-2.828a1,1,0,0,0,0-1.414l-1.076-1.077A9.266,9.266,0,0,0,40.478,29H42a1,1,0,0,0,1-1V24A1,1,0,0,0,42,23Zm-1,4H39.738a1,1,0,0,0-.968.75,7,7,0,0,1-.745,1.8,1,1,0,0,0,.154,1.216l.892.892-1.414,1.414-.892-.892a1,1,0,0,0-1.216-.154,7,7,0,0,1-1.8.745,1,1,0,0,0-.75.968V35H31V33.738a1,1,0,0,0-.75-.968,7,7,0,0,1-1.8-.745,1,1,0,0,0-1.216.154l-.892.892-1.414-1.414.892-.892a1,1,0,0,0,.154-1.216,7,7,0,0,1-.745-1.8,1,1,0,0,0-.968-.75H23V25h1.262a1,1,0,0,0,.968-.75,7,7,0,0,1,.745-1.8,1,1,0,0,0-.154-1.216l-.892-.892,1.414-1.414.892.892a1,1,0,0,0,1.216.154,7,7,0,0,1,1.8-.745,1,1,0,0,0,.75-.968V17h2v1.262a1,1,0,0,0,.75.968,7,7,0,0,1,1.8.745,1,1,0,0,0,1.216-.154l.892-.892,1.414,1.414-.892.892a1,1,0,0,0-.154,1.216,7,7,0,0,1,.745,1.8,1,1,0,0,0,.968.75H41Z"></path><path d="M32,21a5,5,0,1,0,5,5A5.006,5.006,0,0,0,32,21Zm0,8a3,3,0,1,1,3-3A3,3,0,0,1,32,29Z"></path><rect x="25" y="40" width="2" height="2"></rect><rect x="29" y="40" width="2" height="2"></rect><rect x="33" y="40" width="2" height="2"></rect><rect x="37" y="40" width="2" height="2"></rect></g></svg>