<svg xmlns="http://www.w3.org/2000/svg" viewBox="0 0 64 64" x="0px" y="0px"><g><rect x="21" y="52" width="2" height="2"></rect><rect x="49" y="52" width="2" height="2"></rect><rect x="2" y="49" width="5" height="2"></rect><rect x="4" y="45" width="3" height="2"></rect><rect x="5" y="41" width="2" height="2"></rect><path d="M61.121,38.707,49.294,26.88A2.98,2.98,0,0,0,47.17,26H37a2,2,0,0,0-2,2V41H12a2,2,0,0,0-2,2v8a3,3,0,0,0,3,3h2.08a6.98,6.98,0,0,0,2.03,4H2v2H50a7,7,0,0,0,6.92-6H59a3,3,0,0,0,3-3V40.829A2.983,2.983,0,0,0,61.121,38.707ZM60,40.829V41H45V32h6.586l8.121,8.121A1,1,0,0,1,60,40.829ZM17,53a5,5,0,1,1,5,5A5.006,5.006,0,0,1,17,53Zm9.89,5a6.98,6.98,0,0,0,2.03-4H43.08a6.975,6.975,0,0,0,2.031,4ZM50,58a5,5,0,1,1,5-5A5.006,5.006,0,0,1,50,58Zm9-6H56.92a6.991,6.991,0,0,0-13.84,0H28.92a6.991,6.991,0,0,0-13.84,0H13a1,1,0,0,1-1-1V43H36a1,1,0,0,0,1-1V28H47.17a1,1,0,0,1,.71.294L49.586,30H45a2,2,0,0,0-2,2v9a2,2,0,0,0,2,2H60v8A1,1,0,0,1,59,52Z"></path><rect x="40" y="45" width="4" height="2"></rect><rect x="6" y="6" width="6" height="2"></rect><rect x="2" y="6" width="2" height="2"></rect><rect x="9" y="2" width="4" height="2"></rect><rect x="5" y="2" width="2" height="2"></rect><rect x="42" y="18" width="8" height="2"></rect><rect x="38" y="18" width="2" height="2"></rect><path d="M8,20c0,9.392,11.894,18.42,12.4,18.8a1,1,0,0,0,1.2,0C22.106,38.42,34,29.392,34,20A13,13,0,0,0,8,20ZM21,9A11.013,11.013,0,0,1,32,20c0,7.271-8.623,14.791-11,16.725C18.622,34.792,10,27.281,10,20A11.013,11.013,0,0,1,21,9Z"></path><path d="M21,26a6,6,0,1,0-6-6A6.006,6.006,0,0,0,21,26Zm0-10a4,4,0,1,1-4,4A4,4,0,0,1,21,16Z"></path><rect x="40" y="14" width="4" height="2"></rect><rect x="36" y="14" width="2" height="2"></rect></g></svg>