<svg xmlns="http://www.w3.org/2000/svg" viewBox="0 0 64 64" x="0px" y="0px"><g><path d="M58.3,17.15A6.272,6.272,0,0,0,54.55,16a7.342,7.342,0,0,0-.85.05L54,13.1a1.036,1.036,0,0,0-.26-.77A1,1,0,0,0,53,12H50.78l-.81-3.24A1,1,0,0,0,49,8H48V2H46V8H39a1,1,0,0,0-.97.76L37.22,12H27a1,1,0,0,0-.8.4,1.012,1.012,0,0,0-.16.89l.89,2.95a7.231,7.231,0,0,0-1.91.91,4.7,4.7,0,0,1-5.39,0A6.272,6.272,0,0,0,15.88,16a6.3,6.3,0,0,0-3.75,1.15A4.349,4.349,0,0,1,9.44,18a4.349,4.349,0,0,1-2.69-.85A6.272,6.272,0,0,0,3,16v2a4.372,4.372,0,0,1,2.69.85A6.272,6.272,0,0,0,9.44,20a6.272,6.272,0,0,0,3.75-1.15A4.372,4.372,0,0,1,15.88,18a4.4,4.4,0,0,1,2.7.85A6.237,6.237,0,0,0,22.32,20a6.247,6.247,0,0,0,3.75-1.15,5.59,5.59,0,0,1,1.43-.7l1.54,5.14A1.008,1.008,0,0,0,30,24H52a1.015,1.015,0,0,0,1-.9l.49-5a5.377,5.377,0,0,1,1.06-.1,4.4,4.4,0,0,1,2.7.85A6.272,6.272,0,0,0,61,20V18A4.4,4.4,0,0,1,58.3,17.15ZM39.78,10h8.44l.5,2H39.28ZM51.1,22H30.74l-1.18-3.94a4.529,4.529,0,0,1,1.9.79,6.689,6.689,0,0,0,7.5,0,4.7,4.7,0,0,1,5.39,0A6.272,6.272,0,0,0,48.1,20a6,6,0,0,0,3.28-.87Zm.53-5.33c-.3.15-.57.32-.83.48a4.713,4.713,0,0,1-5.4,0,6.689,6.689,0,0,0-7.5,0,4.682,4.682,0,0,1-5.38,0,6.331,6.331,0,0,0-3.57-1.14L28.34,14H51.9Z"></path><path d="M32,41a7.008,7.008,0,0,0-7-7H24V33a3,3,0,0,0-3-3H19a1,1,0,0,0-1,1V41a1,1,0,0,0,1,1h2a3.006,3.006,0,0,0,2.829-2H25a1,1,0,0,1,1,1v4a1,1,0,0,1-1,1H23.61a.977.977,0,0,1-.557-.173l-1.489-.989A4.981,4.981,0,0,0,18.79,44H7.44A3,3,0,0,0,4.5,47.587l.879,4.387A5.008,5.008,0,0,0,10.28,56h5.5a6.946,6.946,0,0,0,3.976,2.97A1,1,0,0,0,21,58V56h2a9.011,9.011,0,0,0,9-9Zm-2,6a7.008,7.008,0,0,1-7,7H21V53H19v3.469a4.128,4.128,0,0,1-1.688-1.858A4.06,4.06,0,0,1,17,53H15a6.455,6.455,0,0,0,.084,1h-4.8a3.005,3.005,0,0,1-2.94-2.417l-.88-4.391a.978.978,0,0,1,.205-.825A1,1,0,0,1,7.44,46H18.79a2.991,2.991,0,0,1,1.667.5l1.477.981A2.98,2.98,0,0,0,23.61,48H25a3,3,0,0,0,3-3V41a3,3,0,0,0-3-3H23a1,1,0,0,0-1,1,1,1,0,0,1-1,1H20V32h1a1,1,0,0,1,1,1v2a1,1,0,0,0,1,1h2a5.006,5.006,0,0,1,5,5Z"></path><rect x="11" y="49" width="2" height="2"></rect><path d="M9,24a3,3,0,1,0,3,3A3,3,0,0,0,9,24Zm0,4a1,1,0,1,1,1-1A1,1,0,0,1,9,28Z"></path><path d="M53.381,32l-1.669-1.1L50.33,28.5a1,1,0,0,0-1.366-.366l-3.464,2a1,1,0,0,0-.366,1.366l1.382,2.394.12,2a.989.989,0,0,0,.132.44l4.5,7.8a1,1,0,0,0,1.366.366l5.2-3a1,1,0,0,0,.366-1.366l-4.5-7.8A.987.987,0,0,0,53.381,32ZM52.5,42.258l-3.882-6.723-.12-2a.989.989,0,0,0-.132-.44l-1-1.732,1.732-1,1,1.732a1,1,0,0,0,.315.335l1.669,1.1,3.882,6.723Z"></path><path d="M47.5,43.134l-3.464-2a1,1,0,0,0-1.366.366l-1.382,2.394L39.619,45a.987.987,0,0,0-.315.334l-4.5,7.8a1,1,0,0,0,.366,1.366l5.2,3a1,1,0,0,0,1.366-.366l4.5-7.8a.989.989,0,0,0,.132-.44l.12-2L47.866,44.5A1,1,0,0,0,47.5,43.134ZM44.634,46.1a.989.989,0,0,0-.132.44l-.12,2L40.5,55.258l-3.464-2,3.882-6.723,1.669-1.1A1,1,0,0,0,42.9,45.1l1-1.732,1.732,1Z"></path><rect x="16" y="23" width="5" height="2"></rect><rect x="23" y="23" width="2" height="2"></rect><rect x="33" y="29" width="2" height="2"></rect><rect x="36" y="34" width="6" height="2"></rect><rect x="56" y="29" width="2" height="2"></rect><rect x="49" y="52" width="6" height="2"></rect><rect x="57" y="52" width="2" height="2"></rect><rect x="6" y="35" width="2" height="2"></rect><rect x="10" y="39" width="2" height="2"></rect><rect x="31" y="57" width="2" height="2"></rect></g></svg>