<svg xmlns="http://www.w3.org/2000/svg" viewBox="0 0 64 64" x="0px" y="0px"><g data-name="Passport"><path d="M52,2H17a7.008,7.008,0,0,0-7,7V55a7.008,7.008,0,0,0,7,7H52a2,2,0,0,0,2-2V4A2,2,0,0,0,52,2ZM45,4V14.238L41.769,10.36a1,1,0,0,0-1.538,0L37,14.238V4ZM17,60a5.006,5.006,0,0,1-5-5V9a5.006,5.006,0,0,1,5-5H35V17a1,1,0,0,0,1.769.64L41,12.562l4.231,5.078A1,1,0,0,0,46,18a1.013,1.013,0,0,0,.341-.06A1,1,0,0,0,47,17V4h5V60Z"></path><path d="M32,19q-.649,0-1.289.063a12.894,12.894,0,0,0-6.941,2.865c-.331.271-.652.56-.959.866A13,13,0,0,0,32,45q.65,0,1.289-.063a12.894,12.894,0,0,0,6.941-2.865c.331-.271.652-.56.959-.866A13,13,0,0,0,32,19Zm8.409,20.09a12.994,12.994,0,0,0-2.085-1.447A22.769,22.769,0,0,0,38.975,33h3.976A10.951,10.951,0,0,1,40.409,39.09Zm-1.431,1.42c-.051.043-.107.079-.159.121-.216.17-.434.335-.66.488-.1.068-.207.129-.31.194-.183.115-.368.229-.558.333-.117.065-.238.124-.358.184-.139.07-.281.135-.423.2a11.561,11.561,0,0,0,.626-1.084c.21-.423.4-.877.575-1.344a10.994,10.994,0,0,1,1.28.9ZM26.705,41.644c-.183-.1-.362-.211-.539-.322-.109-.068-.221-.133-.327-.205-.216-.146-.424-.3-.63-.465-.061-.049-.127-.092-.187-.142l-.013-.011a10.958,10.958,0,0,1,1.28-.9c.178.468.366.923.577,1.348a11.385,11.385,0,0,0,.624,1.08q-.21-.093-.414-.2C26.952,41.772,26.827,41.711,26.705,41.644ZM23.591,24.91a12.994,12.994,0,0,0,2.085,1.447A22.769,22.769,0,0,0,25.025,31H21.049A10.951,10.951,0,0,1,23.591,24.91Zm1.431-1.42c.052-.043.107-.08.16-.121.215-.17.433-.335.659-.488.1-.068.206-.129.309-.193.184-.116.369-.23.559-.334.118-.065.238-.124.358-.184.139-.07.281-.135.423-.2a11.561,11.561,0,0,0-.626,1.084c-.21.423-.4.877-.575,1.344a10.994,10.994,0,0,1-1.28-.9Zm12.272-1.135c.184.1.363.212.542.324.108.068.219.132.325.2.216.146.424.3.63.466.062.048.127.091.187.141l.013.011a10.958,10.958,0,0,1-1.28.9c-.178-.468-.366-.923-.577-1.348a11.385,11.385,0,0,0-.624-1.08q.21.093.416.2C37.049,22.228,37.173,22.289,37.294,22.355Zm-1.949,1.59a12.912,12.912,0,0,1,.562,1.338,11.006,11.006,0,0,1-7.815,0,13.189,13.189,0,0,1,.561-1.334C29.6,22.075,30.814,21,32,21S34.405,22.075,35.345,23.945ZM27.024,31a20.948,20.948,0,0,1,.5-3.8,12.894,12.894,0,0,0,8.942,0,20.971,20.971,0,0,1,.505,3.8Zm9.952,2a20.948,20.948,0,0,1-.505,3.8,12.894,12.894,0,0,0-8.942,0,20.971,20.971,0,0,1-.5-3.8ZM25.025,33a22.778,22.778,0,0,0,.651,4.643,13.039,13.039,0,0,0-2.085,1.447A10.95,10.95,0,0,1,21.049,33Zm3.63,7.055a12.912,12.912,0,0,1-.562-1.338,11.006,11.006,0,0,1,7.815,0,13.189,13.189,0,0,1-.561,1.334C34.405,41.925,33.186,43,32,43S29.6,41.925,28.655,40.055ZM38.975,31a22.778,22.778,0,0,0-.651-4.643,13.039,13.039,0,0,0,2.085-1.447A10.95,10.95,0,0,1,42.951,31Z"></path></g></svg>