<svg xmlns="http://www.w3.org/2000/svg" viewBox="0 0 64 64" x="0px" y="0px"><g><path d="M41,39v2h4V38.82A3,3,0,0,1,44,39Z"></path><polygon points="24.28 23 39.72 23 39.22 21 24.78 21 24.28 23"></polygon><path d="M39,41V39H25v2a2.006,2.006,0,0,1-2,2H21.69a23.369,23.369,0,0,0,2.66,2.6L32,51.92l7.65-6.32A23.369,23.369,0,0,0,42.31,43H41A2.006,2.006,0,0,1,39,41Z"></path><path d="M23,39H20a3,3,0,0,1-1-.18V41h4Z"></path><path d="M19.44,28.88l.53-1.05A.993.993,0,1,0,19,29,.966.966,0,0,0,19.44,28.88Z"></path><path d="M16.01,28.06a23.009,23.009,0,0,0,.99,6.5V32a2.942,2.942,0,0,1,.4-1.47A2.99,2.99,0,0,1,16.01,28.06Z"></path><path d="M44,31H20a1,1,0,0,0-1,1v4a1,1,0,0,0,1,1H44a1,1,0,0,0,1-1V32A1,1,0,0,0,44,31ZM23,36a2,2,0,1,1,2-2A2,2,0,0,1,23,36Zm12-1H29V33h6Zm6,1a2,2,0,1,1,2-2A2,2,0,0,1,41,36Z"></path><path d="M46.6,30.53A2.942,2.942,0,0,1,47,32v2.56a23.009,23.009,0,0,0,.99-6.5A2.99,2.99,0,0,1,46.6,30.53Z"></path><path d="M16,17.58V27.97A3.009,3.009,0,0,1,19,25a2.949,2.949,0,0,1,1.99.78l1.07-2.13.78-3.13A1.99,1.99,0,0,1,24.78,19H27V16a1,1,0,0,1,1-1h8a1,1,0,0,1,1,1v3h2.22a1.99,1.99,0,0,1,1.94,1.52l.78,3.13,1.07,2.13A2.949,2.949,0,0,1,45,25a3.009,3.009,0,0,1,3,2.97V17.58L32,10.63Z"></path><path d="M10,13.66V27.87A28.923,28.923,0,0,0,20.53,50.23L32,59.7l11.47-9.47A28.923,28.923,0,0,0,54,27.87V13.66L32,4.09Zm39.4,2.35a1.011,1.011,0,0,1,.6.92V27.87a24.993,24.993,0,0,1-3,11.87V41a2.006,2.006,0,0,1-2,2h-.12a24.119,24.119,0,0,1-3.95,4.14l-8.29,6.85a1.005,1.005,0,0,1-1.28,0l-8.29-6.85A24.119,24.119,0,0,1,19.12,43H19a2.006,2.006,0,0,1-2-2V39.74a24.993,24.993,0,0,1-3-11.87V16.93a1.011,1.011,0,0,1,.6-.92l17-7.39a1.011,1.011,0,0,1,.8,0Z"></path><path d="M45,27a1,1,0,0,0-.97.83l.53,1.05A.966.966,0,0,0,45,29a1,1,0,0,0,0-2Z"></path><rect x="29" y="17" width="6" height="2"></rect><polygon points="21.62 29 42.38 29 40.38 25 23.62 25 21.62 29"></polygon></g></svg>