<svg xmlns="http://www.w3.org/2000/svg" viewBox="0 0 64 64" x="0px" y="0px"><g data-name="Game Console"><path d="M17,40a1,1,0,0,0,1-1V4H16V39A1,1,0,0,0,17,40Z"></path><circle cx="16" cy="54" r="2"></circle><rect x="4" y="4" width="2" height="56"></rect><path d="M22,4H20V39a3,3,0,0,1-6,0V4H8V60H22ZM16,58a4,4,0,1,1,4-4A4,4,0,0,1,16,58Z"></path><rect x="54" y="16" width="2" height="2"></rect><path d="M56,12H40a4,4,0,0,0-4,4V27a1,1,0,0,0,1,1h2.324a1,1,0,0,0,.985-.824l.48-2.7A3,3,0,0,1,43.742,22h8.516a3,3,0,0,1,2.953,2.475l.48,2.7a1,1,0,0,0,.985.825H59a1,1,0,0,0,1-1V16A4,4,0,0,0,56,12ZM44,18H42v2H40V18H38V16h2V14h2v2h2Zm3-2H45V14h2Zm4,0H49V14h2Zm7,2H56v2H54V18H52V16h2V14h2v2h2Z"></path><path d="M29,28H24V26h4V3a1,1,0,0,1,1-1H60a1,1,0,0,1,1,1V7a1,1,0,0,1-1,1H49v2H47V7a1,1,0,0,1,1-1H59V4H30V27A1,1,0,0,1,29,28Z"></path><path d="M49,42H47V39a1,1,0,0,1,1-1H59V36H24V34H60a1,1,0,0,1,1,1v4a1,1,0,0,1-1,1H49Z"></path><rect x="54" y="48" width="2" height="2"></rect><path d="M37,60h2.324a1,1,0,0,0,.985-.824l.48-2.7A3,3,0,0,1,43.742,54h8.516a3,3,0,0,1,2.953,2.475l.48,2.7a1,1,0,0,0,.985.825H59a1,1,0,0,0,1-1V48a4,4,0,0,0-4-4H40a4,4,0,0,0-4,4V59A1,1,0,0,0,37,60ZM52,48h2V46h2v2h2v2H56v2H54V50H52Zm-3-2h2v2H49Zm-4,0h2v2H45Zm-7,2h2V46h2v2h2v2H42v2H40V50H38Z"></path></g></svg>