<svg xmlns="http://www.w3.org/2000/svg" viewBox="0 0 64 64" x="0px" y="0px"><title>Plans-Construction</title><g><path d="M57,11H52V8A5,5,0,0,0,42,8v3H13.911A6,6,0,0,0,2,12V47a5.985,5.985,0,0,0,6,6H57a5.006,5.006,0,0,0,5-5V16A5.006,5.006,0,0,0,57,11ZM44,12h6v2H44Zm0,4h6V38.649L47,42.4l-3-3.75ZM47,5a3,3,0,0,1,3,3v2H44V8A3,3,0,0,1,47,5ZM4,12a4,4,0,1,1,8,0V42.521c-.02-.018-.043-.03-.063-.047a6.133,6.133,0,0,0-.765-.565c-.042-.026-.085-.051-.129-.076a5.911,5.911,0,0,0-.857-.42l-.121-.043a5.855,5.855,0,0,0-.943-.263c-.029-.006-.058-.008-.086-.013A6.048,6.048,0,0,0,8,41a5.97,5.97,0,0,0-1.06.1l-.091.013a5.942,5.942,0,0,0-.949.274c-.041.015-.083.029-.123.045a5.881,5.881,0,0,0-.848.423c-.043.026-.086.051-.128.078a5.951,5.951,0,0,0-.744.556c-.018.015-.039.027-.057.042ZM60,48a3,3,0,0,1-3,3H8a4.006,4.006,0,1,1,4-4,1,1,0,0,0,2,0V13H42V39a1,1,0,0,0,.219.625l4,5a1,1,0,0,0,1.562,0l4-5A1,1,0,0,0,52,39V13h5a3,3,0,0,1,3,3Z"></path></g></svg>