<svg xmlns="http://www.w3.org/2000/svg" viewBox="0 0 64 64" x="0px" y="0px"><g data-name="Cloud Document"><path d="M34,20H10v8H34ZM19,25H17V23h2Zm4,0H21V23h2Zm4,0H25V23h2Z"></path><path d="M37.293,9.293a1,1,0,0,1,1.414,0L40,10.586V4H36v6.586Z"></path><path d="M54.739,33.228a1,1,0,0,1-.752-1L54,32.081A7,7,0,1,0,40,32c0,.165.013.327.025.489a1.029,1.029,0,0,1-.409.9,1,1,0,0,1-.965.133A7,7,0,1,0,36,47H53a7,7,0,0,0,1.739-13.772Z"></path><path d="M43,4H42v9a.987.987,0,0,1-.62.92A.838.838,0,0,1,41,14a1.007,1.007,0,0,1-.71-.29L38,11.41l-2.29,2.3a1,1,0,0,1-1.09.21A.987.987,0,0,1,34,13V4H7A3.009,3.009,0,0,0,4,7V57a3.009,3.009,0,0,0,3,3H43a3.009,3.009,0,0,0,3-3V49H36a9,9,0,0,1,0-18,9.156,9.156,0,0,1,2.03.23A9.014,9.014,0,0,1,46,23.06V7A3.009,3.009,0,0,0,43,4ZM14,8H24v2H14ZM8,8h4v2H8Zm0,4H24v2H8ZM18,54H8V52H18Zm0-4H8V48H18Zm4-10H8V38H22Zm2-4H8V34H24Zm12-7a1,1,0,0,1-1,1H9a1,1,0,0,1-1-1V19a1,1,0,0,1,1-1H35a1,1,0,0,1,1,1Z"></path></g></svg>