<svg xmlns="http://www.w3.org/2000/svg" viewBox="0 0 64 64" x="0px" y="0px"><g data-name="Big Data-Storage-Server-Networking-Database-Folder"><rect x="6" y="48" width="2" height="2"></rect><rect x="10" y="49" width="2" height="2"></rect><rect x="6" y="55" width="2" height="2"></rect><rect x="10" y="56" width="2" height="2"></rect><rect x="9" y="41" width="12" height="2"></rect><rect x="40" y="48" width="2" height="2"></rect><rect x="44" y="49" width="2" height="2"></rect><rect x="40" y="55" width="2" height="2"></rect><rect x="44" y="56" width="2" height="2"></rect><rect x="43" y="41" width="12" height="2"></rect><path d="M50,36.02V32a1,1,0,0,0-1-1H34.82A3.035,3.035,0,0,0,33,29.18V26h8a3.009,3.009,0,0,0,3-3V11a2.006,2.006,0,0,0-2-2H40V4a2.006,2.006,0,0,0-2-2H26a2.006,2.006,0,0,0-2,2H23a3.009,3.009,0,0,0-3,3V23a3.009,3.009,0,0,0,3,3h8v3.18A3.035,3.035,0,0,0,29.18,31H15a1,1,0,0,0-1,1v4.02C7.66,36.26,3,38.75,3,42V56c0,3.42,5.16,6,12,6s12-2.58,12-6V42c0-3.25-4.66-5.74-11-5.98V33H29.18a2.988,2.988,0,0,0,5.64,0H48v3.02c-6.34.24-11,2.73-11,5.98V56c0,3.42,5.16,6,12,6s12-2.58,12-6V42C61,38.75,56.34,36.26,50,36.02ZM25,56c0,1.89-4.28,4-10,4S5,57.89,5,56V52.41C7.11,53.99,10.73,55,15,55s7.89-1.01,10-2.59Zm0-7c0,1.89-4.28,4-10,4S5,50.89,5,49V45.41C7.11,46.99,10.73,48,15,48s7.89-1.01,10-2.59Zm0-7c0,1.89-4.28,4-10,4S5,43.89,5,42s4.28-4,10-4S25,40.11,25,42ZM40,11h2v3H40ZM26,4H38V14H32.41l-4.7-4.71A1.033,1.033,0,0,0,27,9H26ZM22,7a1,1,0,0,1,1-1h1V9H22Zm1,17a1,1,0,0,1-1-1V11h4.59l4.7,4.71A1.033,1.033,0,0,0,32,16H42v7a1,1,0,0,1-1,1Zm9,9a1,1,0,1,1,1-1A1,1,0,0,1,32,33ZM59,56c0,1.89-4.28,4-10,4s-10-2.11-10-4V52.41C41.11,53.99,44.73,55,49,55s7.89-1.01,10-2.59Zm0-7c0,1.89-4.28,4-10,4s-10-2.11-10-4V45.41C41.11,46.99,44.73,48,49,48s7.89-1.01,10-2.59ZM49,46c-5.72,0-10-2.11-10-4s4.28-4,10-4,10,2.11,10,4S54.72,46,49,46Z"></path><rect x="28" y="6" width="8" height="2"></rect><rect x="32" y="10" width="4" height="2"></rect></g></svg>