<svg xmlns="http://www.w3.org/2000/svg" viewBox="0 0 64 64" x="0px" y="0px"><g><rect x="40" y="28" width="2" height="7"></rect><rect x="32" y="25" width="2" height="4"></rect><path d="M49,6a3.959,3.959,0,0,1,.556-2H17a2,2,0,0,0-2,2V40H49ZM28.293,15.293a1,1,0,0,1,1.414,0L32,17.586,38.586,11H37V9h4a1,1,0,0,1,1,1v4H40V12.414l-7.293,7.293a1,1,0,0,1-1.414,0L29,17.414l-3.293,3.293-1.414-1.414ZM46,37H19a1,1,0,0,1-1-1V13h2V35h2V28a1,1,0,0,1,1-1h4a1,1,0,0,1,1,1v7h2V24a1,1,0,0,1,1-1h4a1,1,0,0,1,1,1V35h2V18a1,1,0,0,1,1-1h4a1,1,0,0,1,1,1V35h2Z"></path><rect x="40" y="19" width="2" height="7"></rect><rect x="24" y="33" width="2" height="2"></rect><path d="M13,40V16H11a1,1,0,0,0-1,1V44H54V17a1,1,0,0,0-1-1H51V40h1v2H12V40Z"></path><path d="M53,4a2,2,0,0,0-2,2v4h4V6A2,2,0,0,0,53,4Z"></path><rect x="32" y="31" width="2" height="4"></rect><rect x="24" y="29" width="2" height="2"></rect><path d="M23.382,56l1.723-3.447A1,1,0,0,1,26,52H38a1,1,0,0,1,.9.553L40.618,56H59.382l-5-10H9.618l-5,10ZM54,54H52V52h2Zm-3-6h2v2H51Zm-1,6H48V52h2Zm-3-6h2v2H47Zm-4,0h2v2H43Zm-1,4h4v2H42Zm-3-4h2v2H39Zm-4,0h2v2H35Zm-4,0h2v2H31Zm-4,0h2v2H27Zm-4,0h2v2H23Zm-4,0h2v2H19Zm-1,4h4v2H18Zm-3-4h2v2H15Zm-1,4h2v2H14Zm-3-4h2v2H11Zm-1,4h2v2H10Z"></path><polygon points="26.618 54 25.618 56 38.382 56 37.382 54 26.618 54"></polygon><rect x="4" y="58" width="56" height="2"></rect></g></svg>