<svg xmlns="http://www.w3.org/2000/svg" viewBox="0 0 64 64" x="0px" y="0px"><g data-name="Book-Audio Book"><path d="M35,39.632v6.552A2.966,2.966,0,0,1,36,46H57V39.632a13.954,13.954,0,0,1-22,0Z"></path><path d="M60,31a13.912,13.912,0,0,1-1,5.166V47a1,1,0,0,1-1,1H36a1,1,0,0,0-1,1,2.966,2.966,0,0,1-.184,1H60Z"></path><path d="M59,18v7.834A13.912,13.912,0,0,1,60,31V18Z"></path><rect x="40" y="30" width="1" height="2"></rect><path d="M35,22.368a13.954,13.954,0,0,1,22,0V14H36a1,1,0,0,0-1,1Z"></path><path d="M33,17H31V49a1,1,0,0,0,2,0V36.166a13.844,13.844,0,0,1,0-10.332Z"></path><polygon points="45 28.618 43 29.618 43 32.382 45 33.382 45 28.618"></polygon><path d="M46,43A12,12,0,1,0,34,31,12.013,12.013,0,0,0,46,43Zm6.243-16.243a6.008,6.008,0,0,1,0,8.486l-1.414-1.414a4.007,4.007,0,0,0,0-5.658Zm-3.536,3.536,1.414-1.415a3,3,0,0,1,0,4.244l-1.414-1.415a1,1,0,0,0,0-1.414ZM38,29a1,1,0,0,1,1-1h2.764l3.789-1.895A1,1,0,0,1,47,27v8a1,1,0,0,1-1.447.9L41.764,34H39a1,1,0,0,1-1-1Z"></path><path d="M7,14V46H28a2.966,2.966,0,0,1,1,.184V15a1,1,0,0,0-1-1H15v5a1,1,0,0,1-1.707.707L12,18.414l-1.293,1.293A1,1,0,0,1,9,19V14Zm4,8H25v2H11Zm0,4H25v2H11Zm0,4H25v2H11Zm0,4H25v2H11Zm0,4H25v2H11Z"></path><path d="M4,18V50H29.184A2.966,2.966,0,0,1,29,49a1,1,0,0,0-1-1H6a1,1,0,0,1-1-1V18Z"></path><path d="M11.293,16.293a1,1,0,0,1,1.414,0l.293.293V14H11v2.586Z"></path></g></svg>