<svg xmlns="http://www.w3.org/2000/svg" viewBox="0 0 64 64" x="0px" y="0px"><g><path d="M57,44a1,1,0,0,1,0-2,3,3,0,0,0,0-6H42.82A2.98,2.98,0,0,0,40,32H37.85l-.67-4H44a5,5,0,0,0,5-5V7a5,5,0,0,0-5-5H20a5,5,0,0,0-5,5V23a5,5,0,0,0,5,5h6.82l-.67,4H24a2.98,2.98,0,0,0-2.82,4H15a6.988,6.988,0,0,0-4.83,12.05A7,7,0,0,0,11,62H53a3,3,0,0,0,0-6,1,1,0,0,1,0-2,2.98,2.98,0,0,0,2.82-4H57a3,3,0,0,0,0-6ZM17,7a3.009,3.009,0,0,1,3-3H44a3.009,3.009,0,0,1,3,3V20H17Zm3,19a3.009,3.009,0,0,1-3-3V22H47v1a3.009,3.009,0,0,1-3,3Zm15.82,6H28.18l.67-4h6.3ZM24,34H40a1,1,0,0,1,0,2H24a1,1,0,0,1,0-2ZM53,52H11a3,3,0,0,0,0,6H53a1,1,0,0,1,0,2H11a5,5,0,0,1,0-10H53a1,1,0,0,1,0,2Zm-2.82,4H11a1,1,0,0,1,0-2H50.18a2.868,2.868,0,0,0,0,2ZM57,48H15a5,5,0,0,1,0-10H57a1,1,0,0,1,0,2H15a3,3,0,0,0,0,6H57a1,1,0,0,1,0,2Zm-2.82-4H15a1,1,0,0,1,0-2H54.18a2.868,2.868,0,0,0,0,2Z"></path><rect x="43" y="23" width="2" height="2"></rect><polygon points="62 4 60 4 60 2 58 2 58 4 56 4 56 6 58 6 58 8 60 8 60 6 62 6 62 4"></polygon><rect x="58" y="10" width="2" height="4"></rect><rect x="58" y="16" width="2" height="2"></rect><rect x="58" y="20" width="2" height="2"></rect><rect x="53" y="13" width="2" height="4"></rect><rect x="53" y="19" width="2" height="2"></rect><rect x="53" y="23" width="2" height="2"></rect><polygon points="4 8 6 8 6 6 8 6 8 4 6 4 6 2 4 2 4 4 2 4 2 6 4 6 4 8"></polygon><rect x="4" y="10" width="2" height="4"></rect><rect x="4" y="16" width="2" height="2"></rect><rect x="4" y="20" width="2" height="2"></rect><rect x="10" y="13" width="2" height="4"></rect><rect x="10" y="19" width="2" height="2"></rect><rect x="10" y="23" width="2" height="2"></rect><path d="M30.056,15.9a2,2,0,0,0,2.053-.1l3.2-2.132a2,2,0,0,0,0-3.328L32.109,8.2A2,2,0,0,0,29,9.868v4.264A2,2,0,0,0,30.056,15.9ZM34.2,12,31,14.138V9.868Z"></path><rect x="39" y="7" width="6" height="2"></rect><rect x="39" y="11" width="6" height="2"></rect><rect x="39" y="15" width="6" height="2"></rect><rect x="19" y="7" width="6" height="2"></rect><rect x="19" y="11" width="6" height="2"></rect><rect x="19" y="15" width="6" height="2"></rect></g></svg>