<svg xmlns="http://www.w3.org/2000/svg" viewBox="0 0 64 64" x="0px" y="0px"><g data-name="Brain Bag"><path d="M42,39.414V40H40V39a1,1,0,0,1,.293-.707L42,36.586V33.414L40.586,32H38.414L37,33.414V34H35V33a1,1,0,0,1,.293-.707l1.563-1.563L36.279,29H34.414L33,30.414V51.586L34.414,53h1.865l.577-1.73-1.563-1.563A1,1,0,0,1,35,49V48h2v.586l1.307,1.307L41,49.219V44h2v1.586l1-1V40.3L42.845,38.57ZM35,39V36h2v2.586l1.707,1.707-1.414,1.414-2-2A1,1,0,0,1,35,39Zm4,8H37V45.414l-.707-.707,1.414-1.414,1,1A1,1,0,0,1,39,45Z"></path><path d="M27.721,29l-.577,1.73,1.563,1.563A1,1,0,0,1,29,33v1H27v-.586L25.586,32H23.414L22,33.414v3.172l1.707,1.707A1,1,0,0,1,24,39v1H22v-.586l-.845-.844L20,40.3v4.283l1,1V44h2v5.219l2.693.674L27,48.586V48h2v1a1,1,0,0,1-.293.707L27.144,51.27,27.721,53h1.865L31,51.586V30.414L29.586,29ZM27,45.414V47H25V45a1,1,0,0,1,.293-.707l1-1,1.414,1.414ZM29,39a1,1,0,0,1-.293.707l-2,2-1.414-1.414L27,38.586V36h2Z"></path><path d="M54,39A19.021,19.021,0,0,0,35,20H29A19.021,19.021,0,0,0,10,39V55a5.006,5.006,0,0,0,5,5H49a5.006,5.006,0,0,0,5-5Zm-8,6a1,1,0,0,1-.293.707L43,48.414V50a1,1,0,0,1-.757.97l-3.468.867-.826,2.479A1,1,0,0,1,37,55H34a1,1,0,0,1-.707-.293L32,53.414l-1.293,1.293A1,1,0,0,1,30,55H27a1,1,0,0,1-.949-.684l-.826-2.479-3.468-.867A1,1,0,0,1,21,50V48.414l-2.707-2.707A1,1,0,0,1,18,45V40a1.006,1.006,0,0,1,.168-.555L20,36.7V33a1,1,0,0,1,.293-.707l2-2A1,1,0,0,1,23,30h2.279l.772-2.316A1,1,0,0,1,27,27h3a1,1,0,0,1,.707.293L32,28.586l1.293-1.293A1,1,0,0,1,34,27h3a1,1,0,0,1,.949.684L38.721,30H41a1,1,0,0,1,.707.293l2,2A1,1,0,0,1,44,33v3.7l1.832,2.748A1.006,1.006,0,0,1,46,40Z"></path><path d="M37,17a1,1,0,0,0-1-1H28a1,1,0,0,0,0,2h8A1,1,0,0,0,37,17Z"></path><path d="M37.005,4a2.585,2.585,0,0,0-1.875.781,4.615,4.615,0,0,1-6.25,0,2.646,2.646,0,0,0-3.754,0,5.511,5.511,0,0,1-1.524.945L28.566,14h6.868L40.4,5.725a5.52,5.52,0,0,1-1.522-.944A2.576,2.576,0,0,0,37.005,4Z"></path></g></svg>