<svg xmlns="http://www.w3.org/2000/svg" viewBox="0 0 64 64" x="0px" y="0px"><g><path d="M39.112,29.053a7.813,7.813,0,0,1,3.358,1.171A4.95,4.95,0,0,0,43,28a4.995,4.995,0,0,0-8.262-3.783A9.537,9.537,0,0,1,39.112,29.053Z"></path><path d="M34,54H30a1,1,0,0,0,0,2h4a1,1,0,0,0,0-2Z"></path><path d="M38.377,31.01a1,1,0,0,1-.936-.7A7.851,7.851,0,0,0,29.963,25a7.671,7.671,0,0,0-7.815,7.5c0,.175.009.351.019.524a1.025,1.025,0,0,1-.812,1.058A4.049,4.049,0,0,0,18,38a4.1,4.1,0,0,0,4.185,4H38.259c.148,0,.288-.008.436-.017a5.489,5.489,0,0,0-.318-10.973Z"></path><path d="M50,8a4,4,0,0,0-4-4H18a4,4,0,0,0-4,4V56a4,4,0,0,0,4,4H46a4,4,0,0,0,4-4ZM44.657,18.929l1.414,1.414-1.414,1.414-1.414-1.414ZM38,17h2v2H38ZM29,6h6V8H29Zm5.757,14.343-1.414,1.414-1.414-1.414,1.414-1.414ZM25,6h2V8H25Zm9,52H30a3,3,0,0,1,0-6h4a3,3,0,0,1,0,6Zm4.85-14.022c-.229.013-.405.022-.591.022H22.185A6.1,6.1,0,0,1,16,38a6.021,6.021,0,0,1,4.149-5.665A9.68,9.68,0,0,1,29.963,23a10.171,10.171,0,0,1,2.768.392A7,7,0,0,1,45,28a6.918,6.918,0,0,1-.97,3.526A7.331,7.331,0,0,1,46,36.5,7.622,7.622,0,0,1,38.85,43.978ZM48,27H46V25h2Z"></path></g></svg>