<svg xmlns="http://www.w3.org/2000/svg" viewBox="0 0 64 64" x="0px" y="0px"><g><path d="M17,32H47V8H17Zm2-21a1,1,0,0,1,1-1h4v2H21v3H19Zm0,6h2v2H19Z"></path><rect x="30" y="38" width="4" height="2"></rect><path d="M6.741,56H57.259L51.426,46H12.574ZM12,54H10V52h2Zm40-2h2v2H52Zm-2,2H48V52h2Zm-3-6h2v2H47Zm-4,0h2v2H43Zm-4,0h2v2H39Zm-4,0h2v2H35Zm-4,0h2v2H31Zm-4,0h2v2H27Zm-4,0h2v2H23Zm-4,0h2v2H19Zm-1,4H46v2H18Zm-3-4h2v2H15Zm-1,4h2v2H14Z"></path><path d="M13,4V44H51V4Zm4,36H15V38h2Zm4,0H19V38h2Zm20,0H36v1a1,1,0,0,1-1,1H29a1,1,0,0,1-1-1V40H23V38h5V37a1,1,0,0,1,1-1h6a1,1,0,0,1,1,1v1h5Zm4,0H43V38h2Zm4,0H47V38h2Zm0-7a1,1,0,0,1-1,1H16a1,1,0,0,1-1-1V7a1,1,0,0,1,1-1H48a1,1,0,0,1,1,1Z"></path><rect x="6" y="58" width="52" height="2"></rect></g></svg>