<svg xmlns="http://www.w3.org/2000/svg" viewBox="0 0 64 64" x="0px" y="0px"><g data-name="Planet Earth"><path d="M36,26v3h.586L38,27.586V23H34v.586l1.707,1.707A1,1,0,0,1,36,26Z"></path><path d="M33,59V55a1,1,0,0,1,.293-.707L36,51.586V48a1,1,0,0,1,.293-.707L38,45.586V42.414L33.586,38H26.414L23,41.414v2.172L24.414,45H28a1,1,0,0,1,1,1v3.586l1.707,1.707A1,1,0,0,1,31,52v6.918C31.661,58.967,32.327,59,33,59Z"></path><path d="M10.985,47.6,14,44.586V42a1,1,0,0,1,.293-.707L17,38.586V36.414l-4.707-4.707A1,1,0,0,1,12,31V28a1,1,0,0,1,1-1h2.586L19,23.586V20a1,1,0,0,1,.293-.707L23,15.586V12.414L20.586,10H17.377a26.939,26.939,0,0,0-6.392,37.6Z"></path><path d="M29,58.7V52.414l-1.707-1.707A1,1,0,0,1,27,50V47H24a1,1,0,0,1-.707-.293l-2-2A1,1,0,0,1,21,44V41a1,1,0,0,1,.293-.707l4-4A1,1,0,0,1,26,36h8a1,1,0,0,1,.707.293l5,5A1,1,0,0,1,40,42v4a1,1,0,0,1-.293.707L38,48.414V52a1,1,0,0,1-.293.707L35,55.414v3.5a26.863,26.863,0,0,0,15-5.962V47.414l-4.707-4.707A1,1,0,0,1,45,42V37.414l-3.707-3.707A1,1,0,0,1,41,33V29a1,1,0,0,1,.293-.707L43,26.586V21.414L38.586,17H34a1,1,0,0,1-.707-.293l-4-4A1,1,0,0,1,29,12V5.3A26.784,26.784,0,0,0,20.655,8H21a1,1,0,0,1,.707.293l3,3A1,1,0,0,1,25,12v4a1,1,0,0,1-.293.707L21,20.414V24a1,1,0,0,1-.293.707l-4,4A1,1,0,0,1,16,29H14v1.586l4.707,4.707A1,1,0,0,1,19,36v3a1,1,0,0,1-.293.707L16,42.414V45a1,1,0,0,1-.293.707l-3.5,3.5A27,27,0,0,0,29,58.7ZM32,22a1,1,0,0,1,1-1h6a1,1,0,0,1,1,1v6a1,1,0,0,1-.293.707l-2,2A1,1,0,0,1,37,31H35a1,1,0,0,1-1-1V26.414l-1.707-1.707A1,1,0,0,1,32,24Z"></path><path d="M60,32A27.03,27.03,0,0,0,33,5c-.673,0-1.339.033-2,.082v6.5L34.414,15H39a1,1,0,0,1,.707.293l5,5A1,1,0,0,1,45,21v6a1,1,0,0,1-.293.707L43,29.414v3.172l3.707,3.707A1,1,0,0,1,47,37v4.586l4.707,4.707A1,1,0,0,1,52,47v4.162A26.913,26.913,0,0,0,60,32Z"></path><rect x="16" y="3.287" width="2" height="2" transform="translate(0.134 9.075) rotate(-30.002)"></rect><rect x="9.373" y="8.373" width="2" height="2" transform="translate(-3.589 10.08) rotate(-45)"></rect><rect x="4.287" y="15" width="2" height="2" transform="translate(-11.213 12.578) rotate(-59.998)"></rect><rect x="4.287" y="47" width="2" height="2" transform="translate(-23.288 9.072) rotate(-29.995)"></rect><rect x="9.373" y="53.628" width="2" height="2" transform="translate(-35.589 23.335) rotate(-45)"></rect><rect x="16" y="58.712" width="2" height="2" transform="translate(-43.214 44.584) rotate(-60.005)"></rect><rect x="48" y="58.713" width="2" height="2" transform="translate(-23.292 32.502) rotate(-30.002)"></rect><rect x="54.628" y="53.628" width="2" height="2" transform="translate(-22.335 55.335) rotate(-45)"></rect><rect x="59.712" y="47" width="2" height="2" transform="translate(-11.214 76.577) rotate(-59.998)"></rect><rect x="59.713" y="15" width="2" height="2" transform="translate(0.132 32.494) rotate(-29.995)"></rect><rect x="54.628" y="8.373" width="2" height="2" transform="translate(9.666 42.08) rotate(-45)"></rect><rect x="48" y="3.287" width="2" height="2" transform="translate(20.791 44.582) rotate(-60.005)"></rect></g></svg>