<svg xmlns="http://www.w3.org/2000/svg" viewBox="0 0 64 64" x="0px" y="0px"><g><path d="M34,54H30a1,1,0,0,0,0,2h4a1,1,0,0,0,0-2Z"></path><path d="M54,12H26v9a.987.987,0,0,1-.62.92A.838.838,0,0,1,25,22a1.007,1.007,0,0,1-.71-.29L22,19.41l-2.29,2.3a1,1,0,0,1-1.09.21A.987.987,0,0,1,18,21V12H10V48H54ZM28,16h2v2H28Zm0,4H42v2H28ZM18,30h2v2H18Zm0,4H42v2H18ZM46,44H18V42H46Zm0-4H18V38H46Zm0-4H44V34h2Zm0-4H22V30H46Zm0-6H28V24H46Zm0-4H44V20h2Zm0-4H32V16H46Z"></path><path d="M54,50H10v7a3.009,3.009,0,0,0,3,3H51a3.009,3.009,0,0,0,3-3ZM34,58H30a3,3,0,0,1,0-6h4a3,3,0,0,1,0,6Z"></path><path d="M22.71,17.29,24,18.59V12H20v6.59l1.29-1.3a1.014,1.014,0,0,1,1.42,0Z"></path><path d="M54,7a3.009,3.009,0,0,0-3-3H13a3.009,3.009,0,0,0-3,3v3H54Z"></path></g></svg>