<svg xmlns="http://www.w3.org/2000/svg" viewBox="0 0 64 64" x="0px" y="0px"><g><path d="M57,26H44.62l3.347-12.746A1,1,0,0,0,47,12a9.322,9.322,0,0,0-4.426,1.1A7.321,7.321,0,0,1,39,14a4.693,4.693,0,0,1-2.976-.852A6.635,6.635,0,0,0,32,12a6.635,6.635,0,0,0-4.024,1.148A4.693,4.693,0,0,1,25,14a7.321,7.321,0,0,1-3.574-.9A9.322,9.322,0,0,0,17,12a1,1,0,0,0-.968,1.252L19.354,26H7a5.006,5.006,0,0,0-5,5V53a1,1,0,0,0,1,1H61a1,1,0,0,0,1-1V31A5.006,5.006,0,0,0,57,26ZM20.574,14.905A9.322,9.322,0,0,0,25,16a6.635,6.635,0,0,0,4.024-1.148A4.693,4.693,0,0,1,32,14a4.693,4.693,0,0,1,2.976.852A6.635,6.635,0,0,0,39,16a9.322,9.322,0,0,0,4.426-1.1,8.362,8.362,0,0,1,2.249-.8L41.238,31H36.281l1.689-6.757a1,1,0,0,0-1.94-.486L34.219,31H29.781L27.97,23.757a1,1,0,0,0-1.94.486L27.719,31h-5l-4.4-16.894A8.372,8.372,0,0,1,20.574,14.905ZM7,28H19.875l.781,3H17a1,1,0,0,0,0,2H47a1,1,0,0,0,0-2H43.306l.788-3H57a3,3,0,0,1,3,3V46H4V31A3,3,0,0,1,7,28ZM60,52H4V48H60Z"></path></g></svg>