<svg xmlns="http://www.w3.org/2000/svg" viewBox="0 0 64 64" x="0px" y="0px"><g data-name="Lamp"><path d="M61,22H3a1,1,0,0,0-1,1v6a3,3,0,0,0,2.042,2.829A11.007,11.007,0,0,0,15,42H49A11.007,11.007,0,0,0,59.958,31.829,3,3,0,0,0,62,29V23A1,1,0,0,0,61,22ZM49,40H15a9.013,9.013,0,0,1-8.945-8h51.89A9.013,9.013,0,0,1,49,40ZM60,29a1,1,0,0,1-1,1H5a1,1,0,0,1-1-1V24H60Z"></path><rect x="31" y="46" width="2" height="8"></rect><rect x="42" y="45.86" width="2" height="7.28" transform="translate(-11.944 13.718) rotate(-15.945)"></rect><rect x="17.36" y="48.5" width="7.28" height="2" transform="translate(-32.363 56.108) rotate(-74.07)"></rect></g></svg>