<svg xmlns="http://www.w3.org/2000/svg" viewBox="0 0 64 64" x="0px" y="0px"><g><rect x="50" y="9" width="2" height="2"></rect><rect x="44" y="9" width="2" height="2"></rect><path d="M61.707,7.293l-3-3A1,1,0,0,0,58,4H54.766l-.909-1.515A1,1,0,0,0,53,2H43a1,1,0,0,0-.857.485L41.234,4H38a1,1,0,0,0-.707.293l-3,3A1,1,0,0,0,34,8v8a1,1,0,0,0,.143.515l3,5A1,1,0,0,0,38,22h2a1,1,0,0,0,1-1V18.414l1-1V28a1,1,0,0,1-1,1H21a1,1,0,0,0-.781.375L16.519,34H8V33a5.006,5.006,0,0,0-5-5,1,1,0,0,0-1,1v8a3,3,0,0,0,3,3H16v5.808l-1.929,4.821A1,1,0,0,0,14,51V61a1,1,0,0,0,1,1h4a1,1,0,0,0,1-1V51.277l2-3.333V60a1,1,0,0,0,1,1h4a1,1,0,0,0,1-1V50.3l1.832-2.748A1.006,1.006,0,0,0,30,47V44h1.86L38,45.754V61a1,1,0,0,0,1,1h4a1,1,0,0,0,1-1V46h4V61a1,1,0,0,0,1,1h4a1,1,0,0,0,1-1V16.868l1,.667V21a1,1,0,0,0,1,1h2a1,1,0,0,0,.857-.485l3-5A1,1,0,0,0,62,16V8A1,1,0,0,0,61.707,7.293ZM43.566,4h8.868l.6,1H50V7h4.234L55,8.277v2.39L52.2,14.4a1,1,0,0,0-.2.6v5.586L51.586,21H50.414L49,19.586v-1.77A3,3,0,0,0,51,15H49a1,1,0,0,1-2,0H45a3,3,0,0,0,2,2.816v1.77L45.586,21H44.414L44,20.586V15a1,1,0,0,0-.2-.6L41,10.667V8.277L41.766,7H46V5H42.966ZM48.93,22.344a.987.987,0,0,1-1.86,0l.93-.93Zm-9.637-5.051A1,1,0,0,0,39,18v2h-.434L36,15.723V8.414L38.414,6h1.62l-.891,1.485A1,1,0,0,0,39,8v3a1,1,0,0,0,.2.6l2.48,3.306ZM5,38a1,1,0,0,1-1-1V30.171A3.006,3.006,0,0,1,6,33v2a1,1,0,0,0,1,1h9v2Zm23,8.7-1.832,2.748A1.006,1.006,0,0,0,26,50v9H24V46.816A3,3,0,0,0,26,44h2ZM52,60H50V45a1,1,0,0,0-1-1H43a1,1,0,0,0-1,1V60H40V45a1,1,0,0,0-.725-.962l-7-2A1.02,1.02,0,0,0,32,42H26V40H24v4a1,1,0,0,1-1,1H22a1,1,0,0,0-.857.485l-3,5A1,1,0,0,0,18,51v9H16V51.192l1.929-4.821A1,1,0,0,0,18,46V35.351L21.48,31H41a3,3,0,0,0,3-3V23h1.184a2.982,2.982,0,0,0,5.632,0H52Zm8-44.277L57.434,20H57V17a1,1,0,0,0-.445-.832l-2.121-1.414L56.8,11.6A1,1,0,0,0,57,11V8a1,1,0,0,0-.143-.515L55.966,6h1.62L60,8.414Z"></path></g></svg>