<svg xmlns="http://www.w3.org/2000/svg" viewBox="0 0 64 64" x="0px" y="0px"><g><path d="M34,24a1,1,0,0,0,1-1V22H33v1A1,1,0,0,0,34,24Z"></path><path d="M30,24a1,1,0,0,0,1-1V22H29v1A1,1,0,0,0,30,24Z"></path><path d="M38,24a1,1,0,0,0,1-1V22H37v1A1,1,0,0,0,38,24Z"></path><path d="M26,24a1,1,0,0,0,1-1V22H25v1A1,1,0,0,0,26,24Z"></path><polygon points="25.883 50 25.133 56 38.867 56 38.117 50 25.883 50"></polygon><path d="M20,59a1,1,0,0,0,1,1H43a1,1,0,0,0,0-2H21A1,1,0,0,0,20,59Z"></path><path d="M60,42H4v3a3,3,0,0,0,3,3H57a3,3,0,0,0,3-3Zm-4,4H54V44h2Z"></path><path d="M23,22H21v1a1,1,0,0,0,2,0Z"></path><polygon points="39.465 16 24.535 16 21.868 20 42.132 20 39.465 16"></polygon><path d="M38,26a2.981,2.981,0,0,1-2-.78,2.954,2.954,0,0,1-4,0,2.954,2.954,0,0,1-4,0,2.954,2.954,0,0,1-4,0,2.989,2.989,0,0,1-1,.6V36h2V29a1,1,0,0,1,1-1h6a1,1,0,0,1,1,1v7h8V25.816a3.005,3.005,0,0,1-1-.6A2.981,2.981,0,0,1,38,26Z"></path><path d="M60,7a3,3,0,0,0-3-3H7A3,3,0,0,0,4,7v3H60ZM10,8H8V6h2Zm4,0H12V6h2Zm4,0H16V6h2Z"></path><rect x="27" y="30" width="4" height="6"></rect><path d="M60,12H4V40H60ZM45,23a3,3,0,0,1-2,2.816V37a1,1,0,0,1-1,1H22a1,1,0,0,1-1-1V25.816A3,3,0,0,1,19,23V21h0a1,1,0,0,1,.163-.555l4-6A1,1,0,0,1,24,14H40a1,1,0,0,1,.832.445l4,6A1,1,0,0,1,45,21H45Z"></path><path d="M41,23a1,1,0,0,0,2,0V22H41Z"></path></g></svg>