<svg xmlns="http://www.w3.org/2000/svg" viewBox="0 0 64 64" x="0px" y="0px"><g data-name="Compact Disc-Music"><path d="M4,28H5.69a1,1,0,0,1,.866.5,18.982,18.982,0,0,0,32.888,0,1,1,0,0,1,.866-.5H42V9a5.006,5.006,0,0,0-5-5H9A5.006,5.006,0,0,0,4,9ZM23,6A14,14,0,1,1,9,20,14.015,14.015,0,0,1,23,6Z"></path><path d="M23,32A12,12,0,1,0,11,20,12.013,12.013,0,0,0,23,32Zm0-2V28a8.084,8.084,0,0,0,1.779-.2l.442,1.95A10.008,10.008,0,0,1,23,30Zm8-10h2a9.948,9.948,0,0,1-5.555,8.96l-.89-1.791A7.959,7.959,0,0,0,31,20Zm-8-3a3,3,0,1,1-3,3A3,3,0,0,1,23,17Z"></path><path d="M17,39.107V42H29V39.107a20.6,20.6,0,0,1-12,0Z"></path><circle cx="23" cy="20" r="1"></circle><path d="M4,33A13.015,13.015,0,0,0,17,46H29A13.015,13.015,0,0,0,42,33V30H40.878A21.033,21.033,0,0,1,31,38.4V42a2,2,0,0,1-2,2H17a2,2,0,0,1-2-2V38.4A21.033,21.033,0,0,1,5.122,30H4Zm30,6h2v2H34ZM11,39h2v2H11Z"></path><path d="M58,24V43a3,3,0,0,1-3,3H53a3,3,0,0,1-3-3V36H48v7a5.006,5.006,0,0,0,5,5v9a3,3,0,0,1-3,3H8a3,3,0,0,1,0-6H19a5.006,5.006,0,0,0,5-5V48H22v1a3,3,0,0,1-3,3H8A5,5,0,0,0,8,62H50a5.006,5.006,0,0,0,5-5V48a5.006,5.006,0,0,0,5-5V24Z"></path><path d="M48,30h2V27a1,1,0,0,1,1-1h1V20H51a3,3,0,0,0-3,3Z"></path><rect x="48" y="32" width="2" height="2"></rect><path d="M60,11a3,3,0,0,0-3-3H56v6h1a1,1,0,0,1,1,1v3h2Z"></path><rect x="58" y="20" width="2" height="2"></rect></g></svg>