<svg xmlns="http://www.w3.org/2000/svg" viewBox="0 0 64 64" x="0px" y="0px"><g><path d="M59,40H57V39a2,2,0,0,0-2-2H53a2,2,0,0,0-2,2v1H47V36a2,2,0,0,0-2-2H43V7a3,3,0,0,0-3-3H24a3,3,0,0,0-3,3V34H19a2,2,0,0,0-2,2v4H13V39a2,2,0,0,0-2-2H9a2,2,0,0,0-2,2v1H5a3,3,0,0,0-3,3V57a3,3,0,0,0,3,3H59a3,3,0,0,0,3-3V43A3,3,0,0,0,59,40Zm-6-1h2v1H53ZM23,32H41v3a1,1,0,0,1-1,1H24a1,1,0,0,1-1-1Zm18-2H23V10H41ZM24,6H40a1,1,0,0,1,1,1V8H23V7A1,1,0,0,1,24,6ZM19,36h2.184A3,3,0,0,0,24,38H40a3,3,0,0,0,2.816-2H45v4H19ZM9,39h2v1H9ZM60,57a1,1,0,0,1-1,1H5a1,1,0,0,1-1-1V43a1,1,0,0,1,1-1H59a1,1,0,0,1,1,1Z"></path><path d="M55,44H9a2,2,0,0,0-2,2v8a2,2,0,0,0,2,2H55a2,2,0,0,0,2-2V46A2,2,0,0,0,55,44Zm0,5H51V46h4ZM37,49H33V46h4Zm2-3h4v3H39Zm-8,3H27V46h4Zm-6,0H21V46h4Zm-6,0H15V46h4Zm0,2v3H15V51Zm2,0h4v3H21Zm6,0h4v3H27Zm6,0h4v3H33Zm6,0h4v3H39Zm6,0h4v3H45Zm0-2V46h4v3ZM13,46v3H9V46ZM9,51h4v3H9Zm42,3V51h4v3Z"></path><rect x="30" y="33" width="4" height="2"></rect><path d="M29.03,24.945a2.006,2.006,0,0,0,2.03-.053l5.113-3.2a2,2,0,0,0,0-3.39l-5.113-3.2a2,2,0,0,0-3.06,1.7V23.2A2,2,0,0,0,29.03,24.945ZM35.113,20,30,23.2V16.8Z"></path></g></svg>