<svg xmlns="http://www.w3.org/2000/svg" viewBox="0 0 64 64" x="0px" y="0px"><path d="M32,52c-.335,0-.668-.012-1-.03V56h2V51.97C32.668,51.988,32.335,52,32,52Z"></path><path d="M50.953,25.467C50.3,36.916,42.05,46,32,46S13.7,36.916,13.047,25.467C13.019,25.974,13,26.484,13,27c0,12.682,8.523,23,19,23S51,39.682,51,27C51,26.484,50.981,25.974,50.953,25.467Z"></path><path d="M22,59v1H42V59a1,1,0,0,0-1-1H23A1,1,0,0,0,22,59Z"></path><path d="M49,24C49,12.972,41.374,4,32,4S15,12.972,15,24a22.563,22.563,0,0,0,2.369,10.133A25.215,25.215,0,0,1,25,30.864V24a3,3,0,0,1,3-3h8a3,3,0,0,1,3,3v6.864a25.215,25.215,0,0,1,7.631,3.269A22.563,22.563,0,0,0,49,24Z"></path><path d="M37,30.444V24a1,1,0,0,0-1-1H28a1,1,0,0,0-1,1v6.444a28.375,28.375,0,0,1,10,0Z"></path><path d="M32,44c5.591,0,10.546-3.206,13.646-8.123A24.941,24.941,0,0,0,32,32a24.941,24.941,0,0,0-13.646,3.877C21.454,40.794,26.409,44,32,44Z"></path></svg>