<svg xmlns="http://www.w3.org/2000/svg" viewBox="0 0 64 64" x="0px" y="0px"><g data-name="coffee cup-coffee mug-espresso-drink-coffee"><path d="M59.88,29.58A8.9,8.9,0,0,0,52.7,26H47V22a2.006,2.006,0,0,0-2-2H9a2.006,2.006,0,0,0-2,2V56a2.006,2.006,0,0,0,2,2h1v2a2.006,2.006,0,0,0,2,2H42a2.006,2.006,0,0,0,2-2V58h1a2.006,2.006,0,0,0,2-2V50h5.49a7.026,7.026,0,0,0,6.73-5.08l2.13-7.44A8.913,8.913,0,0,0,59.88,29.58ZM42,60H12V58H42Zm3-4H9V22H45Zm2-24h5.7a3,3,0,0,1,2.88,3.82l-2.13,7.45a1,1,0,0,1-.96.73H47Zm12.43,4.93L57.3,44.38A5.025,5.025,0,0,1,52.49,48H47V46h5.49a3.018,3.018,0,0,0,2.89-2.18l2.12-7.45A4.993,4.993,0,0,0,52.7,30H47V28h5.7a7.008,7.008,0,0,1,6.73,8.93Z"></path><path d="M21,16h2a2.258,2.258,0,0,1,.759-1.681,4.208,4.208,0,0,0,0-5.968,2.245,2.245,0,0,1,0-3.366A4.168,4.168,0,0,0,25,2H23a2.261,2.261,0,0,1-.759,1.683,4.209,4.209,0,0,0,0,5.969,2.244,2.244,0,0,1,0,3.365A4.164,4.164,0,0,0,21,16Z"></path><path d="M29,16h2a2.258,2.258,0,0,1,.759-1.681,4.208,4.208,0,0,0,0-5.968,2.245,2.245,0,0,1,0-3.366A4.168,4.168,0,0,0,33,2H31a2.261,2.261,0,0,1-.759,1.683,4.209,4.209,0,0,0,0,5.969,2.244,2.244,0,0,1,0,3.365A4.164,4.164,0,0,0,29,16Z"></path></g></svg>