<svg xmlns="http://www.w3.org/2000/svg" viewBox="0 0 64 64" x="0px" y="0px"><title>Wash Basin</title><g data-name="Wash Basin"><path d="M37,23V15h8v2h6V12a3,3,0,0,0-3-3H35V6a3,3,0,0,0-6,0V9H16a3,3,0,0,0-3,3v5h6V15h8v8H2v7a9.01,9.01,0,0,0,9,9H23V53a9,9,0,0,0,18,0V39H53a9.01,9.01,0,0,0,9-9V23Zm0-12H48a1,1,0,0,1,1,1v3H47V13H37ZM31,6a1,1,0,0,1,2,0V9H31ZM17,13v2H15V12a1,1,0,0,1,1-1H27v2Zm12,2V11h6V23H29ZM39,53a7,7,0,0,1-14,0V39H39ZM60,30a7.009,7.009,0,0,1-7,7H11a7.009,7.009,0,0,1-7-7V25H60Z"></path><rect x="47" y="19" width="2" height="2"></rect><rect x="42.757" y="17.243" width="2.001" height="2" transform="translate(-0.083 36.284) rotate(-45)"></rect><rect x="51.243" y="17.242" width="2" height="2.001" transform="translate(2.402 42.284) rotate(-45)"></rect><rect x="15" y="19" width="2" height="2"></rect><rect x="19.243" y="17.242" width="2" height="2.001" transform="translate(-6.971 19.657) rotate(-45)"></rect><rect x="10.757" y="17.243" width="2.001" height="2" transform="translate(-9.456 13.657) rotate(-45)"></rect><rect x="56" y="27" width="2" height="2"></rect><rect x="56" y="30" width="2" height="2"></rect><rect x="53" y="27" width="2" height="2"></rect></g></svg>