<svg xmlns="http://www.w3.org/2000/svg" viewBox="0 0 64 64" x="0px" y="0px"><g data-name="Smartphone-Graphic-Design-App-Mobile Phone"><rect x="31" y="42" width="2" height="4"></rect><polygon points="31.72 21 31 23.16 31 40 33 40 33 23.16 32.28 21 31.72 21"></polygon><circle cx="19" cy="14" r="1"></circle><path d="M34,54H30a1,1,0,0,0,0,2h4a1,1,0,0,0,0-2Z"></path><path d="M50,8a4,4,0,0,0-4-4H18a4,4,0,0,0-4,4V56a4,4,0,0,0,4,4H46a4,4,0,0,0,4-4ZM29,6h6V8H29ZM25,6h2V8H25Zm9,52H30a3,3,0,0,1,0-6h4a3,3,0,0,1,0,6Zm-.05-38.32,1,3A1.185,1.185,0,0,1,35,23V47a1,1,0,0,1-1,1H30a1,1,0,0,1-1-1V23a1.185,1.185,0,0,1,.05-.32l1-3A1.014,1.014,0,0,1,31,19V17h2v2A1.014,1.014,0,0,1,33.95,19.68ZM45,17a3,3,0,0,1-2.816-2H38.9a12.986,12.986,0,0,1,6.062,10.171,3,3,0,1,1-2,.026,10.987,10.987,0,0,0-21.918,0,3,3,0,1,1-2-.026A12.986,12.986,0,0,1,25.1,15H21.816a3,3,0,1,1,0-2H42.184A2.995,2.995,0,1,1,45,17Z"></path><circle cx="45" cy="14" r="1"></circle><circle cx="20" cy="28" r="1"></circle><circle cx="44" cy="28" r="1"></circle></g></svg>