<svg xmlns="http://www.w3.org/2000/svg" data-name="Cargo Car" viewBox="0 0 64 64" x="0px" y="0px"><polygon points="28 7 4 7 4 29 28 29 28 16 28 7"></polygon><path d="M15,40a9.935,9.935,0,0,1,8.658,5H34V17H30V30a1,1,0,0,1-1,1H4v2H7v2H4v9a1,1,0,0,0,1,1H6.342A9.935,9.935,0,0,1,15,40Z"></path><path d="M41.387,18.261A3,3,0,0,0,38.94,17H36V29H49.057Z"></path><path d="M49,40a9.935,9.935,0,0,1,8.658,5H59a1,1,0,0,0,1-1V43H57V41h3V39H56a2,2,0,0,1-2-2V35a2,2,0,0,1,2-2h2.974A4.977,4.977,0,0,0,55,31H36V45h4.342A9.935,9.935,0,0,1,49,40ZM38,35V33h4v2Z"></path><path d="M56,37h4V36a5,5,0,0,0-.1-1H56Z"></path><path d="M22,52V50H20.91a5.641,5.641,0,0,0-.29-1.09l.94-.54-1-1.74-.94.55a6.047,6.047,0,0,0-.8-.8l.55-.94-1.74-1-.54.94A5.641,5.641,0,0,0,16,45.09V44H14v1.09a5.641,5.641,0,0,0-1.09.29l-.54-.94-1.74,1,.55.94a6.047,6.047,0,0,0-.8.8l-.94-.55-1,1.74.94.54A5.641,5.641,0,0,0,9.09,50H8v2H9.09a5.641,5.641,0,0,0,.29,1.09l-.94.54,1,1.74.94-.55a6.047,6.047,0,0,0,.8.8l-.55.94,1.74,1,.54-.94a5.641,5.641,0,0,0,1.09.29V58h2V56.91a5.641,5.641,0,0,0,1.09-.29l.54.94,1.74-1-.55-.94a6.047,6.047,0,0,0,.8-.8l.94.55,1-1.74-.94-.54A5.641,5.641,0,0,0,20.91,52Zm-7,3a4,4,0,1,1,4-4A4,4,0,0,1,15,55Zm0-6a2,2,0,1,0,2,2A2.006,2.006,0,0,0,15,49Zm1,3H14V50h2Z"></path><path d="M56,52V50H54.91a5.641,5.641,0,0,0-.29-1.09l.94-.54-1-1.74-.94.55a6.047,6.047,0,0,0-.8-.8l.55-.94-1.74-1-.54.94A5.641,5.641,0,0,0,50,45.09V44H48v1.09a5.641,5.641,0,0,0-1.09.29l-.54-.94-1.74,1,.55.94a6.047,6.047,0,0,0-.8.8l-.94-.55-1,1.74.94.54A5.641,5.641,0,0,0,43.09,50H42v2h1.09a5.641,5.641,0,0,0,.29,1.09l-.94.54,1,1.74.94-.55a6.047,6.047,0,0,0,.8.8l-.55.94,1.74,1,.54-.94a5.641,5.641,0,0,0,1.09.29V58h2V56.91a5.641,5.641,0,0,0,1.09-.29l.54.94,1.74-1-.55-.94a6.047,6.047,0,0,0,.8-.8l.94.55,1-1.74-.94-.54A5.641,5.641,0,0,0,54.91,52Zm-7,3a4,4,0,1,1,4-4A4,4,0,0,1,49,55Zm0-6a2,2,0,1,0,2,2A2.006,2.006,0,0,0,49,49Zm1,3H48V50h2Z"></path></svg>