<svg xmlns="http://www.w3.org/2000/svg" viewBox="0 0 64 64" x="0px" y="0px"><g data-name="Idea Storage"><path d="M55.857,38.485A1,1,0,0,0,55,38H9a.985.985,0,0,0-.843.494l-.014-.009-6,10A1,1,0,0,0,3,50H8V61a1,1,0,0,0,1,1H55a1,1,0,0,0,1-1V50h5a1,1,0,0,0,.857-1.515ZM4.767,48,8,42.611V48ZM24,60H10V40H24Zm30,0H26V42.61l4.143,6.905A1,1,0,0,0,31,50H54ZM31.566,48l-4.8-8H54.434l4.8,8Z"></path><rect x="48" y="56" width="4" height="2"></rect><rect x="44" y="56" width="2" height="2"></rect><rect x="45.722" y="14.5" width="2" height="2" transform="translate(-1.491 25.433) rotate(-29.995)"></rect><path d="M23.111,16.108a3.84,3.84,0,0,0-3.058,4.418,3.98,3.98,0,0,0,1.06,7.367,3.967,3.967,0,0,0,1.935,2.585A3.99,3.99,0,0,0,31,30V17a3.994,3.994,0,0,0-7.889-.892ZM29,17V30a2,2,0,1,1-3.414-1.414l-1.414-1.414a3.972,3.972,0,0,0-.737,1.05,1.958,1.958,0,0,1,.077-2.551l-1.485-1.342a3.958,3.958,0,0,0-.834,1.5,1.988,1.988,0,0,1-.375-3.429A3.98,3.98,0,0,0,24,24V22a2,2,0,1,1,2-2h2a3.991,3.991,0,0,0-2.825-3.8A2,2,0,0,1,29,17Z"></path><path d="M33,30a3.99,3.99,0,0,0,7.952.478,3.967,3.967,0,0,0,1.935-2.585,3.98,3.98,0,0,0,1.06-7.367,3.84,3.84,0,0,0-3.058-4.418A3.994,3.994,0,0,0,33,17Zm2-13a2,2,0,0,1,3.825-.8A3.991,3.991,0,0,0,36,20h2a2,2,0,1,1,2,2v2a3.98,3.98,0,0,0,3.182-1.6,1.988,1.988,0,0,1-.375,3.429,3.958,3.958,0,0,0-.834-1.5l-1.485,1.342a1.958,1.958,0,0,1,.077,2.551,3.972,3.972,0,0,0-.737-1.05l-1.414,1.414A2,2,0,1,1,35,30Z"></path><rect x="48" y="23" width="2" height="2"></rect><rect x="47.421" y="27.4" width="2" height="2" transform="translate(8.438 67.802) rotate(-74.973)"></rect><rect x="45.722" y="31.5" width="2" height="2" transform="translate(-4.782 56.718) rotate(-60.005)"></rect><rect x="43.021" y="35.021" width="2" height="2" transform="translate(-12.577 41.677) rotate(-45)"></rect><rect x="18.98" y="35.021" width="2" height="2" transform="translate(-19.618 24.678) rotate(-45)"></rect><rect x="16.277" y="31.5" width="2" height="2" transform="translate(-13.933 12.99) rotate(-29.995)"></rect><rect x="14.579" y="27.4" width="2" height="2" transform="translate(-6.82 5) rotate(-15)"></rect><rect x="14" y="23" width="2" height="2"></rect><rect x="14.579" y="18.6" width="2" height="2" transform="translate(-7.39 29.565) rotate(-74.973)"></rect><rect x="16.277" y="14.5" width="2" height="2" transform="translate(-4.784 22.715) rotate(-60.005)"></rect><rect x="18.98" y="10.98" width="2" height="2" transform="translate(-2.619 17.636) rotate(-45)"></rect><rect x="22.5" y="8.277" width="2" height="2" transform="translate(-1.491 12.991) rotate(-29.995)"></rect><rect x="26.6" y="6.579" width="2" height="2" transform="translate(-1.021 7.415) rotate(-15.027)"></rect><rect x="31" y="6" width="2" height="2"></rect><rect x="35.4" y="6.579" width="2" height="2" transform="translate(19.658 40.777) rotate(-75)"></rect><rect x="39.5" y="8.277" width="2" height="2" transform="translate(12.218 39.715) rotate(-60.005)"></rect><rect x="43.021" y="10.98" width="2" height="2" transform="translate(4.423 34.636) rotate(-45)"></rect><rect x="47.421" y="18.6" width="2" height="2" transform="translate(-3.426 13.224) rotate(-15.027)"></rect><polygon points="53 10 55 10 55 8 57 8 57 6 55 6 55 4 53 4 53 6 51 6 51 8 53 8 53 10"></polygon><polygon points="6 28 8 28 8 26 10 26 10 24 8 24 8 22 6 22 6 24 4 24 4 26 6 26 6 28"></polygon><path d="M10,10A3,3,0,1,0,7,7,3,3,0,0,0,10,10Zm0-4A1,1,0,1,1,9,7,1,1,0,0,1,10,6Z"></path><path d="M56,32a3,3,0,1,0,3-3A3,3,0,0,0,56,32Zm3-1a1,1,0,1,1-1,1A1,1,0,0,1,59,31Z"></path></g></svg>