<svg xmlns="http://www.w3.org/2000/svg" viewBox="0 0 64 64" x="0px" y="0px"><g><path d="M61,16a1,1,0,0,0,1-1V11a1,1,0,0,0-1-1H58.618L54.9,2.553A1,1,0,0,0,54,2H10a1,1,0,0,0-.895.553L5.382,10H3a1,1,0,0,0-1,1v4a1,1,0,0,0,1,1H5V60H2v2H62V60H59V16ZM10.618,4H53.382l3,6H7.618ZM4,12H60v2H4ZM53,24H11V20H53ZM11,26H53v2H11Zm0,4H53v2H11Zm0,4H53V60H50.816A2.966,2.966,0,0,0,51,59V57a2.981,2.981,0,0,0-.78-2A2.981,2.981,0,0,0,51,53V51a2.981,2.981,0,0,0-.78-2A2.981,2.981,0,0,0,51,47V45a3,3,0,0,0-3-3H38a3,3,0,0,0-3,3v2a2.981,2.981,0,0,0,.78,2A2.981,2.981,0,0,0,35,51v2a2.981,2.981,0,0,0,.78,2A2.981,2.981,0,0,0,35,57v2a2.966,2.966,0,0,0,.184,1H32.22A2.981,2.981,0,0,0,33,58V50a3,3,0,0,0-3-3H28a3,3,0,0,0-3,3v8a2.981,2.981,0,0,0,.78,2H19.587A6.993,6.993,0,1,0,11,49.11ZM44.9,58.148,44.279,60H41.387l.561-1.684a1,1,0,0,0-.116-.871L40.868,56h2.6ZM37,47V45a1,1,0,0,1,1-1h.465L39.9,46.148,39.279,48H38A1,1,0,0,1,37,47Zm12,0a1,1,0,0,1-1,1H46.387l.561-1.684a1,1,0,0,0-.116-.871L45.868,44H48a1,1,0,0,1,1,1Zm-4.1,5.148L44.279,54H41.387l.561-1.684a1,1,0,0,0-.116-.871L40.868,50h2.6ZM43.465,44,44.9,46.148,44.279,48H41.387l.561-1.684a1,1,0,0,0-.116-.871L40.868,44ZM37,53V51a1,1,0,0,1,1-1h.465L39.9,52.148,39.279,54H38A1,1,0,0,1,37,53Zm9.832-1.555L45.868,50H48a1,1,0,0,1,1,1v2a1,1,0,0,1-1,1H46.387l.561-1.684A1,1,0,0,0,46.832,51.445ZM31,54.279l-2,.667-2-.667V52.388l1.684.561a1,1,0,0,0,.632,0L31,52.388Zm0-4-2,.667-2-.667V50a1,1,0,0,1,1-1h2a1,1,0,0,1,1,1Zm-4,6.109,1.684.561a1,1,0,0,0,.632,0L31,56.388V58a1,1,0,0,1-1,1H28a1,1,0,0,1-1-1ZM16,49a5,5,0,1,1-5,5A5.006,5.006,0,0,1,16,49ZM12.413,60H11V58.89A7.04,7.04,0,0,0,12.413,60ZM37,59V57a1,1,0,0,1,1-1h.465L39.9,58.148,39.279,60H38A1,1,0,0,1,37,59Zm9.387,1,.561-1.684a1,1,0,0,0-.116-.871L45.868,56H48a1,1,0,0,1,1,1v2a1,1,0,0,1-1,1ZM57,60H55V19a1,1,0,0,0-1-1H10a1,1,0,0,0-1,1V60H7V16H57Z"></path><path d="M16,57a3,3,0,1,0-3-3A3,3,0,0,0,16,57Zm0-4a1,1,0,1,1-1,1A1,1,0,0,1,16,53Z"></path></g></svg>