<svg xmlns="http://www.w3.org/2000/svg" viewBox="0 0 64 64" x="0px" y="0px"><g data-name="Paint Tube"><polygon points="39.641 24 24.359 24 24.216 26 39.784 26 39.641 24"></polygon><rect x="29" y="10" width="6" height="4"></rect><polygon points="25 4 25 8 39.001 8 39 4 37 4 37 6 35 6 35 4 33 4 33 6 31 6 31 4 29 4 29 6 27 6 27 4 25 4"></polygon><path d="M24.864,16.929,24.5,22h15l-.362-5.071a1,1,0,0,0-1-.929H25.862A1,1,0,0,0,24.864,16.929Z"></path><circle cx="32" cy="36" r="4"></circle><polygon points="22.645 48 41.355 48 41.212 46 22.788 46 22.645 48"></polygon><rect x="20" y="58" width="24" height="2"></rect><polygon points="22.074 56 41.926 56 41.498 50 22.502 50 22.074 56"></polygon><path d="M41.069,44,39.927,28H24.073L22.931,44ZM32,30a6,6,0,1,1-6,6A6.006,6.006,0,0,1,32,30Z"></path></g></svg>