<svg xmlns="http://www.w3.org/2000/svg" viewBox="0 0 64 64" x="0px" y="0px"><g data-name="Stream Iron"><path d="M61.884,19.532l-9-17a1,1,0,0,0-.122-.159,1.055,1.055,0,0,0-.071-.091,1,1,0,0,0-.29-.2c-.028-.012-.059-.013-.087-.023a1,1,0,0,0-.271-.054C52.028,2.008,52.015,2,52,2H12c-.015,0-.028.008-.043.009a.967.967,0,0,0-.272.055.755.755,0,0,0-.085.022.989.989,0,0,0-.292.2.98.98,0,0,0-.068.088.984.984,0,0,0-.124.161l-9,17a1,1,0,0,0,.478,1.382L11,24.65V61a1,1,0,0,0,1,1H52a1,1,0,0,0,1-1V24.65l8.406-3.736a1,1,0,0,0,.478-1.382ZM40.944,4A9,9,0,0,1,23.056,4ZM4.385,19.521,11,7.026V22.461ZM34,60V50h2V60ZM24,44a1,1,0,0,1-1-1V40H47v3a1,1,0,0,1-1,1Zm14,2v2H32V46ZM51,60H38V50h1a1,1,0,0,0,1-1V46h6a3,3,0,0,0,3-3V39a1,1,0,0,0-1-1H22a1,1,0,0,0-1,1v4a3,3,0,0,0,3,3h6v3a1,1,0,0,0,1,1h1V60H13V4h8.051a10.994,10.994,0,0,0,21.9,0H51Zm2-37.539V7.026l6.615,12.5Z"></path><path d="M41,25a4.827,4.827,0,0,0-1.077.122,5,5,0,0,0-9.846,0A4.827,4.827,0,0,0,29,25a5,5,0,0,0,0,10,1,1,0,0,0,0-2,3,3,0,0,1,0-6,2.941,2.941,0,0,1,1.542.442.994.994,0,0,0,1.071-.034,1.011,1.011,0,0,0,.432-.991A2.742,2.742,0,0,1,32,26a3,3,0,0,1,6,0,2.928,2.928,0,0,1-.048.438,1,1,0,0,0,1.506,1A2.941,2.941,0,0,1,41,27a3,3,0,0,1,0,6,1,1,0,0,0,0,2,5,5,0,0,0,0-10Z"></path><path d="M32,31a1,1,0,0,0-1,1v4a1,1,0,0,0,2,0V32A1,1,0,0,0,32,31Z"></path><path d="M35,31a1,1,0,0,0-1,1v4a1,1,0,0,0,2,0V32A1,1,0,0,0,35,31Z"></path><path d="M38,31a1,1,0,0,0-1,1v4a1,1,0,0,0,2,0V32A1,1,0,0,0,38,31Z"></path></g></svg>