<svg xmlns="http://www.w3.org/2000/svg" viewBox="0 0 64 64" x="0px" y="0px"><g data-name="Cloud-Cloud Computing-Media-Multimedia-Music"><path d="M32,48a5,5,0,1,0,5,5A5.006,5.006,0,0,0,32,48Zm0,8a3,3,0,1,1,3-3A3,3,0,0,1,32,56Z"></path><path d="M37,38H27a1,1,0,0,0-1,1v6a1,1,0,0,0,1,1H37a1,1,0,0,0,1-1V39A1,1,0,0,0,37,38Zm-1,6H28V40h8Z"></path><path d="M51.98,18.36A10.01,10.01,0,0,0,42,9a9.663,9.663,0,0,0-2.16.24A15,15,0,0,0,12,17a12.414,12.414,0,0,0,.07,1.34A13,13,0,0,0,15,44h1.18A3,3,0,0,0,16,45v6a3.009,3.009,0,0,0,3,3h3v5a3.009,3.009,0,0,0,3,3H39a3.009,3.009,0,0,0,3-3V54h3a3.009,3.009,0,0,0,3-3V45a3,3,0,0,0-.18-1H49a12.992,12.992,0,0,0,2.98-25.64ZM22,52H19a1,1,0,0,1-1-1V45a1,1,0,0,1,1-1h3Zm18,7a1,1,0,0,1-1,1H25a1,1,0,0,1-1-1V37a1,1,0,0,1,1-1H39a1,1,0,0,1,1,1ZM39,34H25a3.009,3.009,0,0,0-3,3v5H20V40a12,12,0,0,1,24,0v2H42V37A3.009,3.009,0,0,0,39,34Zm7,17a1,1,0,0,1-1,1H42V44h3a1,1,0,0,1,1,1Zm3-9H46V40a14,14,0,0,0-28,0v2H15a10.993,10.993,0,0,1-1.67-21.86,1,1,0,0,0,.66-.4,1.021,1.021,0,0,0,.18-.74A12.177,12.177,0,0,1,14,17a13,13,0,0,1,24.47-6.13.984.984,0,0,0,1.18.48A8.008,8.008,0,0,1,50,19.01c0,.03-.01.14-.01.17a1.007,1.007,0,0,0,.84.99A10.991,10.991,0,0,1,49,42Z"></path><path d="M17,17h2a8.009,8.009,0,0,1,8-8V7A10.011,10.011,0,0,0,17,17Z"></path><path d="M55,31a6.006,6.006,0,0,1-6,6v2a8.009,8.009,0,0,0,8-8Z"></path></g></svg>