<svg xmlns="http://www.w3.org/2000/svg" viewBox="0 0 48 48" x="0px" y="0px"><g><rect x="19" y="35" width="10" height="6"></rect><rect x="17" y="43" width="14" height="2"></rect><path d="M44.1,3H34.46A5.931,5.931,0,0,1,36,7c0,3.03-4.69,8.96-5.22,9.62a.991.991,0,0,1-1.56,0C28.69,15.96,24,10.03,24,7a5.931,5.931,0,0,1,1.54-4H3.9a.9.9,0,0,0-.9.9V32.1a.9.9,0,0,0,.9.9H44.1a.9.9,0,0,0,.9-.9V3.9A.9.9,0,0,0,44.1,3ZM38,4h4a1,1,0,0,1,1,1V24H41V6H38ZM28,16v2H26v3H24V18H19v5H17V14H12V12h5V9h2v7h2V11h2v5ZM5,5A1,1,0,0,1,6,4H22V6H7V24H5ZM44,28H4V26H44Z"></path><path d="M30,3a4,4,0,0,0-4,4c0,1.52,2.21,4.97,4,7.37,1.79-2.4,4-5.85,4-7.37A4,4,0,0,0,30,3Zm0,7a3,3,0,1,1,3-3A3.009,3.009,0,0,1,30,10Z"></path><circle cx="30" cy="7" r="1"></circle></g></svg>