<svg xmlns="http://www.w3.org/2000/svg" viewBox="0 0 64 64" x="0px" y="0px"><g><path d="M42,48.88a7,7,0,0,0-.22-1.69l-3.97-3.97a7.2,7.2,0,0,1-.87-1.06L32,40.61V41a9,9,0,1,1-18,0v-.39L8.91,42.2A6.964,6.964,0,0,0,4,48.88V60H9.64a1.665,1.665,0,0,0-.12-.23A8.855,8.855,0,0,1,8,55a8.723,8.723,0,0,1,2.29-5.71l1.42,1.42A6.609,6.609,0,0,0,10,55a6.794,6.794,0,0,0,1.17,3.64A4.444,4.444,0,0,1,11.8,60H35.63a4.974,4.974,0,0,1-2.06-8.29A5,5,0,0,1,42,54.24Z"></path><path d="M7.02,26.81a1.035,1.035,0,0,1,.62.64.99.99,0,0,1-.13.88A2.964,2.964,0,0,0,7,30a3,3,0,0,0,4.67,2.49.993.993,0,0,1,.87-.12,1.035,1.035,0,0,1,.64.62A2.963,2.963,0,0,0,18,34.21v-.42A11.014,11.014,0,0,1,12,24V17a1,1,0,0,1,1-1,17.117,17.117,0,0,0,11.83-4.59,10.137,10.137,0,0,0,.86-.9,13.265,13.265,0,0,0,2.84-5.26A12.991,12.991,0,0,0,10,17v3.15a1.014,1.014,0,0,1-.4.8.97.97,0,0,1-.87.16A2.942,2.942,0,0,0,8,21a3.009,3.009,0,0,0-3,3A2.968,2.968,0,0,0,7.02,26.81Z"></path><path d="M42,57.41l-1.36,1.37A5.079,5.079,0,0,1,38.57,60H42Z"></path><path d="M39.22,53.12a3,3,0,1,0-4.24,4.24,3.056,3.056,0,0,0,4.24,0,2.994,2.994,0,0,0,0-4.24Z"></path><path d="M26.78,12.29A7.75,7.75,0,0,0,33,15a1,1,0,0,1,1,1v8a11.014,11.014,0,0,1-6,9.79v.42a2.963,2.963,0,0,0,4.82-1.22,1.035,1.035,0,0,1,.64-.62.993.993,0,0,1,.87.12,3,3,0,0,0,4.16-4.16.99.99,0,0,1-.13-.88,1.035,1.035,0,0,1,.62-.64A2.968,2.968,0,0,0,41,24a3.009,3.009,0,0,0-3-3,2.942,2.942,0,0,0-.73.11.965.965,0,0,1-.87-.16,1.014,1.014,0,0,1-.4-.8V17A12.975,12.975,0,0,0,30.33,6.28a15.167,15.167,0,0,1-3.13,5.54C27.07,11.98,26.93,12.13,26.78,12.29Z"></path><path d="M23,48a7.008,7.008,0,0,0,7-7V39.99l-1.9-.6A3.007,3.007,0,0,1,26,36.53V34.57a10.68,10.68,0,0,1-6,0v1.96a3.007,3.007,0,0,1-2.1,2.86l-1.9.6V41a6.982,6.982,0,0,0,7,7Z"></path><path d="M32,24V16.96a9.468,9.468,0,0,1-6.69-3.3A19.236,19.236,0,0,1,14,17.98V24a9,9,0,0,0,18,0ZM17,21a2,2,0,1,1,2,2A2,2,0,0,1,17,21Zm6,8a5.01,5.01,0,0,1-3.532-1.458l1.4-1.424a3.082,3.082,0,0,0,4.256,0l1.4,1.424A5.01,5.01,0,0,1,23,29Zm4-6a2,2,0,1,1,2-2A2,2,0,0,1,27,23Z"></path><path d="M48.42,42.52l2.82,2.82,3.54-3.54a4.992,4.992,0,0,0,.64-6.28Z"></path><path d="M47,49.59l2.83-2.83L38.59,35.51a5,5,0,0,0,.63,6.3l4.25,4.24Z"></path><path d="M60.43,51.71a4.968,4.968,0,0,0-8.46,2.84L48.41,51,47,49.59l-5,4.99v2.84l5-5.01,6.36,6.37a5,5,0,0,0,7.07-7.07Zm-1.41,5.65a3.056,3.056,0,0,1-4.24,0,3,3,0,0,1,0-4.24,2.994,2.994,0,0,1,4.24,0A3,3,0,0,1,59.02,57.36Z"></path></g></svg>