<svg xmlns="http://www.w3.org/2000/svg" viewBox="0 0 64 64" x="0px" y="0px"><g data-name="Book"><path d="M7,40H28v1a3,3,0,0,0,3,3V42a1,1,0,0,1-1-1V6h2V35h2V4H54V34h2V3a1,1,0,0,0-1-1H33a1,1,0,0,0-1,1V4H30V3a1,1,0,0,0-1-1H7A1,1,0,0,0,6,3V39A1,1,0,0,0,7,40ZM8,4H28V38H8Z"></path><path d="M26,41H4V5.029H2V42a1,1,0,0,0,1,1H26Z"></path><rect x="10" y="8" width="2" height="2"></rect><rect x="14" y="8" width="12" height="2"></rect><rect x="10" y="14" width="16" height="2"></rect><rect x="10" y="20" width="16" height="2"></rect><rect x="10" y="26" width="16" height="2"></rect><rect x="58" y="5.029" width="2" height="29.971"></rect><rect x="44" y="8" width="8" height="2"></rect><rect x="36" y="8" width="6" height="2"></rect><rect x="36" y="14" width="16" height="2"></rect><rect x="36" y="20" width="16" height="2"></rect><rect x="10" y="32" width="16" height="2"></rect><path d="M55,36H48V28a4,4,0,0,0-8,0V39.723l-1.16-1.382a4,4,0,1,0-6.126,5.132l7.519,8.969,0,0A5,5,0,0,0,43,55.576V61a1,1,0,0,0,1,1H58a1,1,0,0,0,1-1V55.576A5,5,0,0,0,62,51V43A7.008,7.008,0,0,0,55,36ZM33.783,40.73a1.98,1.98,0,0,1,.709-1.354,2.05,2.05,0,0,1,2.813.247L40,42.834V49.05l-5.755-6.864A1.98,1.98,0,0,1,33.783,40.73ZM57,60H45V56H57Zm3-9a3,3,0,0,1-3,3H45a3,3,0,0,1-3-3V28a2,2,0,0,1,4,0V41h2V38h3v3h2V38h2a5,5,0,0,1,1,.1V42h2V39.026A4.977,4.977,0,0,1,60,43Z"></path><rect x="24" y="52" width="2" height="2"></rect><rect x="28" y="52" width="2" height="2"></rect><rect x="32" y="52" width="2" height="2"></rect><path d="M17,54h5V52H17V47H15v5H11V45H9v8a1,1,0,0,0,1,1h5v5a1,1,0,0,0,1,1H32V58H17Z"></path><rect x="34" y="58" width="2" height="2"></rect><rect x="38" y="58" width="2" height="2"></rect></g></svg>