<svg xmlns="http://www.w3.org/2000/svg" viewBox="0 0 64 64" x="0px" y="0px"><title>Letter-Money</title><g><path d="M61.983,30.916a.809.809,0,0,0,0-.11.75.75,0,0,0-.041-.106.893.893,0,0,0-.056-.147.934.934,0,0,0-.12-.177.981.981,0,0,0-.094-.109,1.012,1.012,0,0,0-.2-.132.962.962,0,0,0-.108-.061A.98.98,0,0,0,61,30H59V7.87A1.888,1.888,0,0,0,57.1,6H6.9A1.888,1.888,0,0,0,5,7.87V30H3a.98.98,0,0,0-.366.074.962.962,0,0,0-.108.061,1.029,1.029,0,0,0-.195.132,1.069,1.069,0,0,0-.094.108.975.975,0,0,0-.12.178.917.917,0,0,0-.056.146.333.333,0,0,0-.044.217A.781.781,0,0,0,2,31V60a2,2,0,0,0,2,2H60a2,2,0,0,0,2-2V31A.781.781,0,0,0,61.983,30.916ZM4,32.495l1.615.668h0l16.13,6.675L4,57.586Zm19.747,8.172,7.87,3.257a1.006,1.006,0,0,0,.766,0l7.87-3.257L59.586,60H4.414Zm18.506-.828,16.13-6.675h0L60,32.495V57.586ZM57,18H7V14H57ZM57,8v4H7V8ZM7,20.24V20H57V31.572L32,41.918,7,31.572V20.24Z"></path><path d="M32,35a1,1,0,0,1-1-1H29a3,3,0,0,0,2,2.816V38h2V36.816A2.993,2.993,0,0,0,32,31a1,1,0,1,1,1-1h2a3,3,0,0,0-2-2.816V26H31v1.184A2.993,2.993,0,0,0,32,33a1,1,0,0,1,0,2Z"></path><path d="M32,41a9,9,0,1,0-9-9A9.01,9.01,0,0,0,32,41Zm0-16a7,7,0,1,1-7,7A7.009,7.009,0,0,1,32,25Z"></path><rect x="36" y="31" width="2" height="2"></rect><rect x="26" y="31" width="2" height="2"></rect><path d="M52,28h2V24a1,1,0,0,0-1-1H49v2h3Z"></path><path d="M12,25h3V23H11a1,1,0,0,0-1,1v4h2Z"></path></g></svg>