<svg xmlns="http://www.w3.org/2000/svg" viewBox="0 0 64 64" x="0px" y="0px"><g><path d="M61.124,26.008l-6.09-.761a23.841,23.841,0,0,0-1.974-4.754l3.771-4.849a1,1,0,0,0-.082-1.322L49.678,7.251a1,1,0,0,0-1.322-.082L43.507,10.94a23.841,23.841,0,0,0-4.754-1.974l-.761-6.09A1,1,0,0,0,37,2H27a1,1,0,0,0-.992.876l-.761,6.09a23.841,23.841,0,0,0-4.754,1.974L15.644,7.169a1,1,0,0,0-1.322.082L7.251,14.322a1,1,0,0,0-.082,1.322l3.771,4.849a23.841,23.841,0,0,0-1.974,4.754l-6.09.761A1,1,0,0,0,2,27V37a1,1,0,0,0,.876.992l6.09.761a23.841,23.841,0,0,0,1.974,4.754L7.169,48.356a1,1,0,0,0,.082,1.322l7.071,7.071a1,1,0,0,0,1.322.082l4.849-3.771a23.841,23.841,0,0,0,4.754,1.974l.761,6.09A1,1,0,0,0,27,62H37a1,1,0,0,0,.992-.876l.761-6.09a23.841,23.841,0,0,0,4.754-1.974l4.849,3.771a1,1,0,0,0,1.322-.082l7.071-7.071a1,1,0,0,0,.082-1.322L53.06,43.507a23.841,23.841,0,0,0,1.974-4.754l6.09-.761A1,1,0,0,0,62,37V27A1,1,0,0,0,61.124,26.008ZM60,36.117l-5.875.735a1,1,0,0,0-.844.739A21.881,21.881,0,0,1,51,43.09a1,1,0,0,0,.074,1.119l3.64,4.679-5.823,5.823-4.679-3.64A1,1,0,0,0,43.09,51a21.881,21.881,0,0,1-5.5,2.284,1,1,0,0,0-.739.844L36.117,60H27.883l-.735-5.875a1,1,0,0,0-.739-.844A21.881,21.881,0,0,1,20.91,51a1,1,0,0,0-1.119.074l-4.679,3.64L9.289,48.888l3.64-4.679A1,1,0,0,0,13,43.09a21.881,21.881,0,0,1-2.284-5.5,1,1,0,0,0-.844-.739L4,36.117V27.883l5.875-.735a1,1,0,0,0,.844-.739A21.881,21.881,0,0,1,13,20.91a1,1,0,0,0-.074-1.119l-3.64-4.679,5.823-5.823,4.679,3.64A1,1,0,0,0,20.91,13a21.881,21.881,0,0,1,5.5-2.284,1,1,0,0,0,.739-.844L27.883,4h8.234l.735,5.875a1,1,0,0,0,.739.844A21.881,21.881,0,0,1,43.09,13a1,1,0,0,0,1.119-.074l4.679-3.64,5.823,5.823-3.64,4.679A1,1,0,0,0,51,20.91a21.881,21.881,0,0,1,2.284,5.5,1,1,0,0,0,.844.739L60,27.883Z"></path><rect x="31" y="8" width="2" height="2"></rect><rect x="14.736" y="14.736" width="2" height="2" transform="translate(-6.518 15.736) rotate(-45)"></rect><rect x="8" y="31" width="2" height="2"></rect><rect x="14.736" y="47.264" width="2" height="2" transform="translate(-29.519 25.263) rotate(-45)"></rect><rect x="31" y="54" width="2" height="2"></rect><rect x="47.264" y="47.264" width="2" height="2" transform="translate(-19.991 48.264) rotate(-45)"></rect><rect x="54" y="31" width="2" height="2"></rect><rect x="47.264" y="14.736" width="2" height="2" transform="translate(3.009 38.737) rotate(-45)"></rect><path d="M36,28.791V23.816A2.993,2.993,0,0,0,35,18H29a2.993,2.993,0,0,0-1,5.816v4.975L23.535,39a5,5,0,0,0,4.581,7h7.768a5,5,0,0,0,4.581-7ZM30,29V24h4v5a.983.983,0,0,0,.084.4l1.427,3.261a8.074,8.074,0,0,0-1.181-.081,6.874,6.874,0,0,0-2.668.479,5.02,5.02,0,0,1-2,.361,4.942,4.942,0,0,1-1.425-.177L29.916,29.4A.983.983,0,0,0,30,29Zm-1-9h6a1,1,0,0,1,0,2H29a1,1,0,0,1,0-2Zm9.4,22.642A2.954,2.954,0,0,1,35.884,44H28.116a3,3,0,0,1-2.749-4.2l2.059-4.7a6.8,6.8,0,0,0,2.234.328,6.911,6.911,0,0,0,2.679-.48,5.678,5.678,0,0,1,3.974,0c.073.027.153.049.226.074L38.633,39.8A2.955,2.955,0,0,1,38.4,42.642Z"></path><rect x="28" y="40" width="2" height="2"></rect><rect x="32" y="38" width="2" height="2"></rect><path d="M32,13A19,19,0,1,0,51,32,19.021,19.021,0,0,0,32,13Zm0,36A17,17,0,1,1,49,32,17.019,17.019,0,0,1,32,49Z"></path></g></svg>