<svg xmlns="http://www.w3.org/2000/svg" viewBox="0 0 64 64" x="0px" y="0px"><g data-name="Payment-Currency-Credit card-Cash-Exchange"><path d="M60,2H32a2,2,0,0,0-2,2v7H5a3,3,0,0,0-3,3V30a3,3,0,0,0,3,3H18v4.184A2.966,2.966,0,0,0,17,37a3,3,0,0,0-3,3V51a1,1,0,0,0,.143.515L17,56.277V61a1,1,0,0,0,1,1H33a1,1,0,0,0,1-1V56.192l1.929-4.82A1.012,1.012,0,0,0,36,51V40a3,3,0,0,0-3-3,2.967,2.967,0,0,0-1.471.4,2.955,2.955,0,0,0-4-1A2.94,2.94,0,0,0,24,35.184V33h7a3,3,0,0,0,3-3V26H60a2,2,0,0,0,2-2V4A2,2,0,0,0,60,2Zm0,11.09A6.008,6.008,0,0,0,55.09,18H34V14a3,3,0,0,0-2-2.816V8.91A6.008,6.008,0,0,0,36.91,4H55.09A6.008,6.008,0,0,0,60,8.91ZM60,21H50V20H60ZM23.816,27a2.982,2.982,0,0,0-5.632,0H4V25H32v2ZM34,20h8v1H34Zm10,0h4v4H44ZM60,6.858A4,4,0,0,1,57.142,4H60ZM34.858,4A4,4,0,0,1,32,6.858V4ZM5,13H31a1,1,0,0,1,1,1v5H20v2H32v2H4V14A1,1,0,0,1,5,13ZM5,31a1,1,0,0,1-1-1V29H18v2Zm20,6a1,1,0,0,1,1,1v5h2V39a1,1,0,0,1,2,0v4h2V40a1,1,0,0,1,2,0V50.808l-1.929,4.82A1.012,1.012,0,0,0,32,56v4H19V56a1,1,0,0,0-.143-.515L16,50.723V40a1,1,0,0,1,2,0v6h2V28a1,1,0,0,1,2,0V43h2V38A1,1,0,0,1,25,37Zm6-6H24V29h8v1A1,1,0,0,1,31,31Zm3-8h8v1H34Zm26,1H50V23H60Zm-2.858-6A4,4,0,0,1,60,15.142V18Z"></path><path d="M46,6a5,5,0,1,0,5,5A5.006,5.006,0,0,0,46,6Zm0,8a3,3,0,1,1,3-3A3,3,0,0,1,46,14Z"></path><path d="M7,21h6a1,1,0,0,0,1-1V16a1,1,0,0,0-1-1H7a1,1,0,0,0-1,1v4A1,1,0,0,0,7,21Zm1-4h4v2H8Z"></path><rect x="28" y="15" width="2" height="2"></rect><rect x="24" y="15" width="2" height="2"></rect><rect x="20" y="15" width="2" height="2"></rect><rect x="53" y="28" width="2" height="2"></rect><rect x="53" y="32" width="2" height="2"></rect><path d="M53,47H46v2h8a1,1,0,0,0,1-1V36H53Z"></path><rect x="42" y="47" width="2" height="2"></rect><rect x="38" y="47" width="2" height="2"></rect></g></svg>