<svg xmlns="http://www.w3.org/2000/svg" viewBox="0 0 64 64" x="0px" y="0px"><g><rect x="50" y="38" width="2.001" height="2"></rect><rect x="4" y="58" width="56" height="2"></rect><polygon points="6 43.59 6 56 13 56 13 39.7 6 43.59"></polygon><rect x="19" y="47" width="3" height="9"></rect><rect x="42" y="38" width="2.001" height="2"></rect><path d="M26,56V26.56L15,31.64V56h2V47a2.006,2.006,0,0,1,2-2h3a2.006,2.006,0,0,1,2,2v9ZM22,43H19a2,2,0,0,1-2-2V34.677a1.989,1.989,0,0,1,1.259-1.857l3-1.2A2,2,0,0,1,24,33.477V41A2,2,0,0,1,22,43Z"></path><path d="M28,18.59V56h2V46a2.006,2.006,0,0,1,2-2H54a2.006,2.006,0,0,1,2,2V56h2V36.54L35.45,21.84A1.013,1.013,0,0,1,35,21V14.7ZM48,38a2,2,0,0,1,2-2h2a2,2,0,0,1,2,2v2a2,2,0,0,1-2,2H50a2,2,0,0,1-2-2Zm-8,0a2,2,0,0,1,2-2h2a2,2,0,0,1,2,2v2a2,2,0,0,1-2,2H42a2,2,0,0,1-2-2Zm-4-2a2,2,0,0,1,2,2v2a2,2,0,0,1-2,2H34a2,2,0,0,1-2-2V38a2,2,0,0,1,2-2Z"></path><rect x="32" y="54" width="22" height="2"></rect><rect x="32" y="50" width="22" height="2"></rect><rect x="32" y="46" width="22" height="2"></rect><rect x="34" y="38" width="2.001" height="2"></rect><polygon points="19 34.678 19 41 22.002 41 22 33.477 19 34.678"></polygon></g></svg>