<svg xmlns="http://www.w3.org/2000/svg" viewBox="0 0 64 64" x="0px" y="0px"><title>Cocktail_10</title><g data-name="Cocktail"><path d="M61.457,21.4c0-.01.005-.021.009-.031A11.091,11.091,0,0,0,62,18a11.293,11.293,0,0,0-.494-3.291A1,1,0,0,0,60.55,14H3.45a1,1,0,0,0-.956.709A11.293,11.293,0,0,0,2,18a11.091,11.091,0,0,0,.534,3.365c0,.01.005.021.009.031C5.137,29.511,16.84,35.705,31,35.985V60H17a1,1,0,0,0,0,2H47a1,1,0,0,0,0-2H33V35.985C47.16,35.705,58.863,29.511,61.457,21.4ZM4.221,16H59.779A9.209,9.209,0,0,1,60,18a9.305,9.305,0,0,1-.227,2H4.227A9.305,9.305,0,0,1,4,18,9.209,9.209,0,0,1,4.221,16Zm.665,6H59.114C56,28.893,45.023,34,32,34S8,28.893,4.886,22Z"></path><path d="M17.92,24.62a.782.782,0,0,0-.09-.181l-.12-.149a1,1,0,0,0-1.09-.21,1.032,1.032,0,0,0-.33.21A1.05,1.05,0,0,0,16,25a.99.99,0,0,0,.29.71A1.033,1.033,0,0,0,17,26a1,1,0,0,0,.38-.08,1.155,1.155,0,0,0,.33-.21A.99.99,0,0,0,18,25a1.487,1.487,0,0,0-.02-.2A.636.636,0,0,0,17.92,24.62Z"></path><path d="M21.62,28.08a.933.933,0,0,0-.33.21A1.05,1.05,0,0,0,21,29a.99.99,0,0,0,.29.71,1.155,1.155,0,0,0,.33.21.943.943,0,0,0,.76,0,1.155,1.155,0,0,0,.33-.21A.99.99,0,0,0,23,29a1.05,1.05,0,0,0-.29-.71A1,1,0,0,0,21.62,28.08Z"></path><path d="M32.71,26.71A.99.99,0,0,0,33,26a.838.838,0,0,0-.08-.38,1.032,1.032,0,0,0-.21-.33,1.047,1.047,0,0,0-1.42,0,1.155,1.155,0,0,0-.21.33.942.942,0,0,0,0,.76,1.169,1.169,0,0,0,.21.33,1.155,1.155,0,0,0,.33.21.99.99,0,0,0,1.09-.21Z"></path><path d="M35.29,31.71a1.014,1.014,0,0,0,1.42,0A1.007,1.007,0,0,0,37,31a1.05,1.05,0,0,0-.29-.71,1.032,1.032,0,0,0-.33-.21.636.636,0,0,0-.18-.06.949.949,0,0,0-.58.06,1.155,1.155,0,0,0-.33.21A1.05,1.05,0,0,0,35,31a.838.838,0,0,0,.08.38A1.169,1.169,0,0,0,35.29,31.71Z"></path><path d="M45,27a1,1,0,0,0,.38-.08,1.155,1.155,0,0,0,.33-.21.99.99,0,0,0,.21-1.09,1.032,1.032,0,0,0-.21-.33,1.576,1.576,0,0,0-.15-.12.757.757,0,0,0-.18-.09.636.636,0,0,0-.18-.06,1.018,1.018,0,0,0-.91.27,1.032,1.032,0,0,0-.21.33A.99.99,0,0,0,45,27Z"></path><path d="M42.29,11.71a.99.99,0,0,0,1.09.21,1.155,1.155,0,0,0,.33-.21,1.169,1.169,0,0,0,.21-.33A.838.838,0,0,0,44,11a1.355,1.355,0,0,0-.02-.2.636.636,0,0,0-.06-.18.782.782,0,0,0-.09-.181l-.12-.149a1,1,0,0,0-.9-.27.6.6,0,0,0-.19.06.556.556,0,0,0-.17.09.955.955,0,0,0-.16.12A1.05,1.05,0,0,0,42,11a.838.838,0,0,0,.08.38A1.169,1.169,0,0,0,42.29,11.71Z"></path><path d="M32.29,6.71a.99.99,0,0,0,1.09.21,1.155,1.155,0,0,0,.33-.21,1.169,1.169,0,0,0,.21-.33.942.942,0,0,0,0-.76.9.9,0,0,0-.54-.54,1,1,0,0,0-1.09.21,1.032,1.032,0,0,0-.21.33.943.943,0,0,0,0,.76A1.169,1.169,0,0,0,32.29,6.71Z"></path><path d="M10.62,7.92a.943.943,0,0,0,.76,0,1.155,1.155,0,0,0,.33-.21.99.99,0,0,0,.21-1.09,1.032,1.032,0,0,0-.21-.33,1,1,0,0,0-.9-.27.6.6,0,0,0-.19.06.556.556,0,0,0-.17.09.955.955,0,0,0-.16.12,1.032,1.032,0,0,0-.21.33.99.99,0,0,0,.21,1.09A1.155,1.155,0,0,0,10.62,7.92Z"></path><path d="M20,10h1v1a1,1,0,0,0,2,0V10h1a1,1,0,0,0,0-2H23V7a1,1,0,0,0-2,0V8H20a1,1,0,0,0,0,2Z"></path><path d="M50,6h1V7a1,1,0,0,0,2,0V6h1a1,1,0,0,0,0-2H53V3a1,1,0,0,0-2,0V4H50a1,1,0,0,0,0,2Z"></path></g></svg>