<svg xmlns="http://www.w3.org/2000/svg" viewBox="0 0 64 64" x="0px" y="0px"><g><path d="M27,12a6,6,0,1,0,6,6A6.006,6.006,0,0,0,27,12Zm0,10a4,4,0,1,1,4-4A4,4,0,0,1,27,22Z"></path><path d="M52,34.18V7a1,1,0,0,0-1-1H3A1,1,0,0,0,2,7V45a1,1,0,0,0,1,1H38A12,12,0,1,0,52,34.18ZM50,8v5.92A7,7,0,0,1,44.08,8ZM4,8H9.92A7,7,0,0,1,4,13.92ZM4,22.08A7,7,0,0,1,9.92,28H4ZM20,44H4V42H20Zm0-4H4V38H20Zm0-4H4V34H20Zm0-4H4V30H20ZM32,44H22V30H32ZM11.94,28A9.013,9.013,0,0,0,4,20.06V15.94A9.013,9.013,0,0,0,11.94,8H42.06A9.013,9.013,0,0,0,50,15.94v4.12A9.013,9.013,0,0,0,42.06,28ZM34,32V30H50v2Zm16,2a11.929,11.929,0,0,0-6.62,2H34V34Zm-5.92-6A7,7,0,0,1,50,22.08V28Zm-5.9,16H34V42h4.7A11.979,11.979,0,0,0,38.18,44ZM34,40V38h7.08a12.065,12.065,0,0,0-1.46,2ZM50,56A10,10,0,1,1,60,46,10.016,10.016,0,0,1,50,56Z"></path><path d="M56,43H44a1,1,0,0,0-1,1v4a1,1,0,0,0,1,1H56a1,1,0,0,0,1-1V44A1,1,0,0,0,56,43Zm-1,4H45V45H55Z"></path></g></svg>