<svg xmlns="http://www.w3.org/2000/svg" viewBox="0 0 64 64" x="0px" y="0px"><g><path d="M61,47V57.88l-7.2-.87a.884.884,0,0,0-.23,0L40.79,58.43a14.956,14.956,0,0,1-9.16-1.92L18,48.63a2,2,0,0,1,.48-3.66,1.969,1.969,0,0,1,1.52.2l10.67,6.16a5.009,5.009,0,0,0,2.5.67H43.68V50h-10a2,2,0,0,1,0-4h7a.9.9,0,0,0,.37-.07l3.22-1.29A9.058,9.058,0,0,1,47.61,44h1.3a8.969,8.969,0,0,1,4.63,1.28l2.63,1.58a1,1,0,0,0,.51.14Z"></path><circle cx="36" cy="28" r="4"></circle><path d="M26.51,15h-.17l1.74,1h.96l-1.03-.59A2.916,2.916,0,0,0,26.51,15Z"></path><path d="M18,33.09V37a1,1,0,0,0,1,1h3.91A5.992,5.992,0,0,0,18,33.09Z"></path><path d="M18.16,22.21a1.041,1.041,0,0,0-.16.06v.64a6.013,6.013,0,0,0,3.2-1.64l-.28-.16Z"></path><path d="M47.07,18H31.3a3.994,3.994,0,0,1-2.74,6.9,4.016,4.016,0,0,1-2-.53L22.99,22.3A8.017,8.017,0,0,1,18,24.94v6.13A8,8,0,0,1,24.93,38H47.07A8,8,0,0,1,54,31.07V24.93A8,8,0,0,1,47.07,18ZM36,34a6,6,0,1,1,6-6A6,6,0,0,1,36,34Z"></path><path d="M54,22.91V19a1,1,0,0,0-1-1H49.09A5.992,5.992,0,0,0,54,22.91Z"></path><path d="M54,37V33.09A5.992,5.992,0,0,0,49.09,38H53A1,1,0,0,0,54,37Z"></path><path d="M21.64,13.74a1.022,1.022,0,0,0,.47,1.13l7.45,4.3a1.968,1.968,0,0,1,.94,1.21,2.009,2.009,0,0,1-2.94,2.25l-6.06-3.5a1.021,1.021,0,0,0-.87-.06l-3.22,1.28a8.793,8.793,0,0,1-3.34.65h-1.3a8.945,8.945,0,0,1-4.64-1.29L5.51,18.14A1,1,0,0,0,5,18H3V7.28l2.76.69a.821.821,0,0,0,.35.02L18.89,6.57A14.854,14.854,0,0,1,28.05,8.5l13,7.5H33.04l-4.02-2.32A4.875,4.875,0,0,0,26.51,13h-3.9A1,1,0,0,0,21.64,13.74Z"></path></g></svg>