<svg xmlns="http://www.w3.org/2000/svg" viewBox="0 0 64 64" x="0px" y="0px"><title>Hourglass-Time-Waitting-Book</title><g><path d="M60,33V55H33V54a3,3,0,0,1,3-3H57a1,1,0,0,0,1-1V35H56V49H36a4.961,4.961,0,0,0-3,1.013V18a3,3,0,0,1,3-3h2V13H36a5,5,0,0,0-4,2,5,5,0,0,0-4-2H7a1,1,0,0,0-1,1v5H3a1,1,0,0,0-1,1V56a1,1,0,0,0,1,1H61a1,1,0,0,0,1-1V33ZM8,15H28a3,3,0,0,1,3,3V50.013A4.961,4.961,0,0,0,28,49H8ZM4,21H6V50a1,1,0,0,0,1,1H28a3,3,0,0,1,3,3v1H4Z"></path><rect x="12" y="23" width="14" height="2"></rect><rect x="12" y="31" width="14" height="2"></rect><rect x="12" y="39" width="14" height="2"></rect><rect x="38" y="39" width="14" height="2"></rect><path d="M58,29V27H56V22a4.982,4.982,0,0,0-2.031-4A4.982,4.982,0,0,0,56,14V9h2V7H44V9h2v5a4.982,4.982,0,0,0,2.031,4A4.982,4.982,0,0,0,46,22v5H44v2ZM54,9v4H48V9Zm-5.816,6h5.632a2.982,2.982,0,0,1-5.632,0ZM50,19.184V21h2V19.184A3,3,0,0,1,54,22v1H48V22A3,3,0,0,1,50,19.184ZM48,25h6v2H48Z"></path></g></svg>