<svg xmlns="http://www.w3.org/2000/svg" viewBox="0 0 64 64" x="0px" y="0px"><g><path d="M20,38H38a1,1,0,0,0,1-1V29a1,1,0,0,0-1-1H20a1,1,0,0,0-1,1v8A1,1,0,0,0,20,38Zm1-8H37v6H21Z"></path><rect x="23" y="32" width="2" height="2"></rect><rect x="27" y="32" width="2" height="2"></rect><rect x="31" y="32" width="4" height="2"></rect><rect x="19" y="40" width="2" height="2"></rect><rect x="23" y="40" width="22" height="2"></rect><rect x="41" y="32" width="4" height="2"></rect><rect x="41" y="36" width="4" height="2"></rect><rect x="18" y="19" width="2" height="2"></rect><rect x="22" y="19" width="2" height="2"></rect><rect x="14" y="19" width="2" height="2"></rect><path d="M61.937,29.649,59,21.818V10a3,3,0,0,0-3-3H40a3,3,0,0,0-3,3V21.82L36.186,24H32V14a3,3,0,0,0-3-3H9a3,3,0,0,0-3,3V27.807L2.071,37.628A1.012,1.012,0,0,0,2,38v3a2,2,0,0,0,2,2H15v3.807l-3.929,9.821A1.012,1.012,0,0,0,11,57v3a2,2,0,0,0,2,2H51a2,2,0,0,0,2-2V57a1.012,1.012,0,0,0-.071-.372L49,46.807V35H60a2,2,0,0,0,2-2V30A1,1,0,0,0,61.937,29.649ZM39,10a1,1,0,0,1,1-1H56a1,1,0,0,1,1,1V21H39Zm-.306,13H57.307l2.25,6H52.72l-.772-2.316A1,1,0,0,0,51,26H48.816A3,3,0,0,0,46,24H38.321ZM49,28h1.279l.334,1H49ZM38.78,56l-.81-3.243A1,1,0,0,0,37,52H27a1,1,0,0,0-.97.757L25.22,56H13.477l3.2-8H47.323l3.2,8Zm-2.061,0H27.281l.5-2h8.438ZM7.677,29H15v4a1,1,0,0,0-.97.757L13.22,37H4.477ZM47,46H17V27a1,1,0,0,1,1-1H46a1,1,0,0,1,1,1ZM8,14a1,1,0,0,1,1-1H29a1,1,0,0,1,1,1V24H18a3,3,0,0,0-3,3H8ZM4,41V39H15v2Zm9,19V58H51v2ZM49,33V31H60v2Z"></path><rect x="47" y="14" width="2" height="2"></rect><rect x="51" y="14" width="2" height="2"></rect><rect x="43" y="14" width="2" height="2"></rect></g></svg>