<svg xmlns="http://www.w3.org/2000/svg" viewBox="0 0 64 64" x="0px" y="0px"><g><path d="M18,4a1,1,0,0,0-1,1V39a1,1,0,0,0,1,1H30V17a3,3,0,0,1,3-3H45V5a1,1,0,0,0-1-1H27v6a1,1,0,0,1-1.832.555L24,8.8l-1.168,1.752A1,1,0,0,1,21,10V4Zm9,29H19V31h8Zm0-4H19V27h8Zm0-4H19V23h8Zm0-4H19V19h8Zm0-6v2H19V15Z"></path><rect x="38" y="27" width="16" height="6"></rect><path d="M24,6a1,1,0,0,1,.832.445L25,6.7V4H23V6.7l.168-.252A1,1,0,0,1,24,6Z"></path><path d="M11,26a1,1,0,0,1,.832.445L12,26.7V24H10v2.7l.168-.252A1,1,0,0,1,11,26Z"></path><path d="M5,60H31a1,1,0,0,0,1-1V53.816A3,3,0,0,1,30,51V42H18a3,3,0,0,1-3-3V24H14v6a1,1,0,0,1-1.832.555L11,28.8,9.832,30.555A1,1,0,0,1,8,30V24H5a1,1,0,0,0-1,1V59A1,1,0,0,0,5,60Zm21-9H24V49h2Zm0-6v2H12V45ZM6,35h6v2H6Zm0,4h8v2H6Zm0,6h4v2H6Zm0,4H22v2H6Zm0,4H26v2H6Z"></path><path d="M38.168,18.445a1,1,0,0,1,1.664,0L40,18.7V16H38v2.7Z"></path><path d="M59,52a1,1,0,0,0,1-1V17a1,1,0,0,0-1-1H42v6a1,1,0,0,1-1.832.555L39,20.8l-1.168,1.752A1,1,0,0,1,36,22V16H33a1,1,0,0,0-1,1V51a1,1,0,0,0,1,1Zm-3-5H46V45H56Zm0-4H46V41H56Zm0-4H46V37H56ZM36,26a1,1,0,0,1,1-1H55a1,1,0,0,1,1,1v8a1,1,0,0,1-1,1H37a1,1,0,0,1-1-1Zm0,11h8v2H36Zm0,4h8v2H36Zm0,4h8v2H36Z"></path></g></svg>