<svg xmlns="http://www.w3.org/2000/svg" data-name="Real Estate" viewBox="0 0 64 64" x="0px" y="0px"><path d="M27,36H37V18H27Zm6-16h2v2H33Zm0,4h2v2H33Zm0,4h2v2H33Zm0,4h2v2H33ZM29,20h2v2H29Zm0,4h2v2H29Zm0,4h2v2H29Zm0,4h2v2H29Z"></path><path d="M15,36H25V24.281l-10,2.5Zm6-8h2v2H21Zm0,4h2v2H21Zm-4-4h2v2H17Zm0,4h2v2H17Z"></path><path d="M20,59a1,1,0,0,0,1,1H43a1,1,0,0,0,0-2H21A1,1,0,0,0,20,59Z"></path><polygon points="25.883 50 25.133 56 38.867 56 38.117 50 25.883 50"></polygon><path d="M60,42H4v3a3,3,0,0,0,3,3H57a3,3,0,0,0,3-3Zm-4,4H54V44h2Z"></path><path d="M39,36H49V26.781l-10-2.5Zm6-8h2v2H45Zm0,4h2v2H45Zm-4-4h2v2H41Zm0,4h2v2H41Z"></path><path d="M60,12H4V40H60ZM53,38H11V36h2V26a1,1,0,0,1,.758-.97L25,22.219V18H23V16h8V14h2v2h8v2H39v4.219L50.242,25.03A1,1,0,0,1,51,26V36h2Z"></path><path d="M60,7a3,3,0,0,0-3-3H7A3,3,0,0,0,4,7v3H60ZM10,8H8V6h2Zm4,0H12V6h2Zm4,0H16V6h2Z"></path></svg>