<svg xmlns="http://www.w3.org/2000/svg" viewBox="0 0 64 64" x="0px" y="0px"><g data-name="avatar-man-young-account-profile"><path d="M29,21h2a3,3,0,0,0-6,0h2a1,1,0,0,1,2,0Z"></path><path d="M36,20a1,1,0,0,1,1,1h2a3,3,0,0,0-6,0h2A1,1,0,0,1,36,20Z"></path><path d="M36.331,26.5l-1.732-1a3,3,0,0,1-5.2,0l-1.732,1a5,5,0,0,0,8.662,0Z"></path><path d="M46.92,37.32l-7.17-.97c-.02-.01-.03-.04-.04-.06L38,34.59V32.21c.3-.2.6-.41.88-.64a10.931,10.931,0,0,0,7.99-10.6A3.911,3.911,0,0,0,47,20a3.955,3.955,0,0,0-.35-1.62l-.51-4.77A12.961,12.961,0,0,0,33.22,2H30.78A12.961,12.961,0,0,0,17.86,13.61l-.51,4.77A3.955,3.955,0,0,0,17,20a3.911,3.911,0,0,0,.13.97,10.931,10.931,0,0,0,7.99,10.6c.28.23.58.44.88.64v2.38l-1.71,1.7c-.01.02-.02.05-.04.06l-7.17.97A7,7,0,0,0,11,44.25V61a1,1,0,0,0,1,1H52a1,1,0,0,0,1-1V44.25A7,7,0,0,0,46.92,37.32Zm-4.96-9.68A10.855,10.855,0,0,0,42.95,24H43a3.9,3.9,0,0,0,1.45-.28A8.882,8.882,0,0,1,41.96,27.64ZM45,20a2.015,2.015,0,0,1-2,2V18A2.006,2.006,0,0,1,45,20ZM19.84,13.83A10.975,10.975,0,0,1,30.78,4h2.44a10.975,10.975,0,0,1,10.94,9.83l.25,2.44A3.887,3.887,0,0,0,43,16V13a1,1,0,0,0-1-1H39V10H37v2H35V8H33v4H22a1,1,0,0,0-1,1v3a3.887,3.887,0,0,0-1.41.27ZM21,18v4a2.015,2.015,0,0,1-2-2A2.006,2.006,0,0,1,21,18Zm-1.45,5.72A3.9,3.9,0,0,0,21,24h.05a10.855,10.855,0,0,0,.99,3.64A8.971,8.971,0,0,1,19.55,23.72ZM23,23V14H41v9a9,9,0,0,1-18,0Zm7.59,18.74-3.78,2.52-.76-6.89.82-.83ZM28,34.68V33.24a10.906,10.906,0,0,0,8,0v1.44l-4,5.6Zm4,8.52,3.3,2.2C34.28,47.08,33.12,48,32,48s-2.28-.92-3.3-2.6Zm1.41-1.46,3.72-5.2.82.83-.76,6.89ZM19,60H13V44.25a5,5,0,0,1,4.34-4.95L19,39.08Zm24,0H21V38.81l3.15-.42.86,7.72a.979.979,0,0,0,.57.8A1.023,1.023,0,0,0,26,47a.991.991,0,0,0,.55-.17l.49-.32C28.44,48.77,30.18,50,32,50s3.56-1.23,4.96-3.49l.49.32A.991.991,0,0,0,38,47a1.023,1.023,0,0,0,.42-.09.979.979,0,0,0,.57-.8l.86-7.72,3.15.42Zm8,0H45V39.08l1.66.22A5,5,0,0,1,51,44.25Z"></path></g></svg>