<svg xmlns="http://www.w3.org/2000/svg" viewBox="0 0 64 64" x="0px" y="0px"><g data-name="Electric Charger"><polygon points="52.96 10.38 55.79 13.21 55 14 55 21 54 24 52 24 51 21 51 12.34 52.96 10.38"></polygon><rect x="55.495" y="7.649" width="2.051" height="4.002" transform="translate(9.731 42.793) rotate(-45.001)"></rect><path d="M6,26H36V9a5.006,5.006,0,0,0-5-5H11A5.006,5.006,0,0,0,6,9Zm4-14a2,2,0,0,1,2-2H30a2,2,0,0,1,2,2v6a2,2,0,0,1-2,2H12a2,2,0,0,1-2-2Z"></path><path d="M30,12H12v6H30ZM18,16H16V14h2Zm4,0H20V14h2Zm4,0H24V14h2Z"></path><path d="M21,41v6.39L24.234,42H23a1,1,0,0,1-1-1V34.172L17.92,40H20A1,1,0,0,1,21,41Z"></path><rect x="4" y="56" width="34" height="4"></rect><path d="M6,54H36V28H6Zm9.181-13.573,7-10A1,1,0,0,1,24,31v9h2a1,1,0,0,1,.857,1.515l-6,10A1,1,0,0,1,20,52a1.022,1.022,0,0,1-.267-.036A1,1,0,0,1,19,51V42H16a1,1,0,0,1-.819-1.573Z"></path><path d="M39,43a1,1,0,0,0,1-1V40a1,1,0,0,0-1-1H38v4Z"></path><path d="M49,62a5.006,5.006,0,0,1-5-5V43a1,1,0,0,0-1-1H42V40h1a3,3,0,0,1,3,3V57a3,3,0,0,0,6,0V26h2V57A5.006,5.006,0,0,1,49,62Z"></path></g></svg>