<svg xmlns="http://www.w3.org/2000/svg" viewBox="0 0 64 64" x="0px" y="0px"><g data-name="Project-Time Management-Document-Clock-Time"><path d="M57,10H54a1,1,0,0,0-.19-.58l-5-7A1,1,0,0,0,48,2H21a5,5,0,0,0-5,5v3H13a5,5,0,0,0-5,5V35.03A14.981,14.981,0,0,0,22.69,60.87a2.145,2.145,0,0,0,.18.24A2.971,2.971,0,0,0,25,62H45a3.009,3.009,0,0,0,3-3,3,3,0,0,0-3-3H43.88l-.75-6H57a5,5,0,0,0,5-5V15A5,5,0,0,0,57,10ZM47,4h.49l3.57,5H48a1,1,0,0,1-1-1ZM18,7a3.009,3.009,0,0,1,3-3H45V8a3.009,3.009,0,0,0,3,3h4V40H30.26A15.022,15.022,0,0,0,18,32.05Zm-8,8a3.009,3.009,0,0,1,3-3h3V32.05a14.857,14.857,0,0,0-6,1.69Zm7,45A13,13,0,1,1,30,47,13.012,13.012,0,0,1,17,60ZM31.7,50h9.42l.75,6H28.97A14.866,14.866,0,0,0,31.7,50ZM45,58a.949.949,0,0,1,.71.31A.928.928,0,0,1,46,59a1,1,0,0,1-1,1H25a.934.934,0,0,1-.4-.09A15.5,15.5,0,0,0,27.16,58ZM60,45a3.009,3.009,0,0,1-3,3H31.95c.02-.33.05-.66.05-1a14.807,14.807,0,0,0-.88-5H60Zm0-5H54V12h3a3.009,3.009,0,0,1,3,3Z"></path><rect x="54" y="44" width="2" height="2"></rect><rect x="22" y="8" width="2" height="2"></rect><rect x="26" y="8" width="12" height="2"></rect><rect x="22" y="12" width="16" height="2"></rect><rect x="22" y="16" width="26" height="2"></rect><rect x="22" y="20" width="26" height="2"></rect><rect x="22" y="24" width="26" height="2"></rect><rect x="22" y="28" width="26" height="2"></rect><rect x="28" y="32" width="20" height="2"></rect><path d="M17,36A11,11,0,1,0,28,47,11.013,11.013,0,0,0,17,36Zm8.941,12a8.956,8.956,0,0,1-1.916,4.611l-1.368-1.368-1.414,1.414,1.368,1.368A8.956,8.956,0,0,1,18,55.941V54H16v1.941a8.956,8.956,0,0,1-4.611-1.916l1.368-1.368-1.414-1.414L9.975,52.611A8.956,8.956,0,0,1,8.059,48H10V46H8.059a8.956,8.956,0,0,1,1.916-4.611l1.368,1.368,1.414-1.414-1.368-1.368A8.956,8.956,0,0,1,16,38.059V40h2V38.059a8.956,8.956,0,0,1,4.611,1.916l-1.368,1.368,1.414,1.414,1.368-1.368A8.956,8.956,0,0,1,25.941,46H24v2Z"></path><path d="M16,46.586l-1.707,1.707,1.414,1.414,2-2A1,1,0,0,0,18,47V42H16Z"></path></g></svg>