<svg xmlns="http://www.w3.org/2000/svg" viewBox="0 0 64 64" x="0px" y="0px"><g><path d="M60.949,60.684l-2-6A1,1,0,0,0,58,54H55.721l-1.772-5.316A1,1,0,0,0,53,48H49.721l-1.772-5.316A1,1,0,0,0,47,42H41a1,1,0,0,0-.949.684L38.279,48H35a1,1,0,0,0-.949.684L32.279,54H30a1,1,0,0,0-.949.684l-2,6A1,1,0,0,0,28,62H38a.991.991,0,0,0,.5-.14A.991.991,0,0,0,39,62H49a.991.991,0,0,0,.5-.14A.991.991,0,0,0,50,62H60a1,1,0,0,0,.949-1.316ZM53.613,54H46.387l1.334-4h4.558Zm-9.892,0-1.333-4h3.224l-1.333,4Zm-2-10h4.558l1.334,4H40.387Zm-6,6h4.558l1.334,4H34.387ZM29.387,60l1.334-4h4.558l1.334,4Zm9.113-.663L37.388,56h2.224ZM40.387,60l1.334-4h4.558l1.334,4Zm9.113-.663L48.388,56h2.224ZM51.387,60l1.334-4h4.558l1.334,4Z"></path><path d="M31,49H5a1,1,0,0,1-1-1V22a1,1,0,0,1,1-1H57a1,1,0,0,1,1,1V48a1,1,0,0,1-1,1v2a3,3,0,0,0,3-3V6a3,3,0,0,0-3-3H5A3,3,0,0,0,2,6V48a3,3,0,0,0,3,3H31ZM5,5H57a1,1,0,0,1,1,1V19.184A2.966,2.966,0,0,0,57,19H5a2.966,2.966,0,0,0-1,.184V6A1,1,0,0,1,5,5Z"></path><path d="M23,35a8,8,0,1,0,8-8A8.009,8.009,0,0,0,23,35Zm14,0a6,6,0,1,1-6-6A6.006,6.006,0,0,1,37,35Z"></path><rect x="6" y="15" width="50" height="2"></rect><rect x="6" y="11" width="50" height="2"></rect><rect x="6" y="7" width="50" height="2"></rect><path d="M19,25H9a1,1,0,0,0-1,1v6h2V27h9Z"></path><path d="M54,26a1,1,0,0,0-1-1H43v2h9v5h2Z"></path><path d="M8,38v6a1,1,0,0,0,1,1H19V43H10V38Z"></path><path d="M52,43H51v2h2a1,1,0,0,0,1-1V38H52Z"></path></g></svg>