<svg xmlns="http://www.w3.org/2000/svg" data-name="Credit Card-Payment Method-Mobile Payment-Payment-Smartphone" viewBox="0 0 64 64" x="0px" y="0px"><rect x="27" y="21" width="4" height="2"></rect><path d="M34,48H30a1,1,0,0,0,0,2h4a1,1,0,0,0,0-2Z"></path><rect x="27" y="17" width="4" height="2"></rect><path d="M36,37a1,1,0,0,0,1-1V33a1,1,0,0,0-2,0v3A1,1,0,0,0,36,37Z"></path><path d="M46,26a2.006,2.006,0,0,0,2,2h4a2,2,0,0,0,0-4H48A2.006,2.006,0,0,0,46,26Z"></path><path d="M48,40h4a2,2,0,0,0,0-4H48a2,2,0,0,0,0,4Z"></path><path d="M48,46h4a2,2,0,0,0,0-4H48a2,2,0,0,0,0,4Z"></path><path d="M48,34h4a2,2,0,0,0,0-4H48a2,2,0,0,0,0,4Z"></path><path d="M40,13H24a1,1,0,0,0-1,1V40a1,1,0,0,0,1,1H40a1,1,0,0,0,1-1V14A1,1,0,0,0,40,13Zm-5,2h2v2H35Zm0,4h2v2H35Zm0,4h2v2H35ZM27,39H25V37h2Zm0-4H25V33h2Zm0-4H25V29h2Zm4,8H29V29h2Zm1-14H26a1,1,0,0,1-1-1V16a1,1,0,0,1,1-1h6a1,1,0,0,1,1,1v8A1,1,0,0,1,32,25Zm7,11a3,3,0,0,1-6,0V33a3,3,0,0,1,6,0Z"></path><path d="M48,22V9a5,5,0,0,0-5-5H21a5,5,0,0,0-5,5V25.72l.86,1.44A14.993,14.993,0,0,1,19,34.88v1.45a12.047,12.047,0,0,1-1.71,6.19l-1.72-1.04A9.92,9.92,0,0,0,17,36.33V34.88a13.013,13.013,0,0,0-1.85-6.69l-1.01-1.68A1,1,0,0,1,14,26V18a2.006,2.006,0,0,0-2-2H10V47a1.033,1.033,0,0,1-.29.71L3,54.42V61H28.58l5.01-5H21a7.008,7.008,0,0,1-7-7V44h2v5a5,5,0,0,0,5,5H43a5,5,0,0,0,5-5V48a3.985,3.985,0,0,1-2.62-7,3.951,3.951,0,0,1,0-6,3.951,3.951,0,0,1,0-6A3.985,3.985,0,0,1,48,22ZM29,6h6V8H29ZM25,6h2V8H25Zm9,46H30a3,3,0,0,1,0-6h4a3,3,0,0,1,0,6Zm9-12a3.009,3.009,0,0,1-3,3H24a3.009,3.009,0,0,1-3-3V14a3.009,3.009,0,0,1,3-3H40a3.009,3.009,0,0,1,3,3Z"></path></svg>