<svg xmlns="http://www.w3.org/2000/svg" viewBox="0 0 64 64" x="0px" y="0px"><g><rect x="8" y="51" width="18" height="9"></rect><rect x="8" y="31" width="18" height="18"></rect><path d="M26,17a5.006,5.006,0,0,0-5-5H13a5.006,5.006,0,0,0-5,5v1H26Z"></path><rect x="8" y="20" width="18" height="9"></rect><polygon points="19 6 19 4 15 4 15 10 19 10 19 8 17 8 17 6 19 6"></polygon><rect x="46" y="30" width="2" height="2"></rect><rect x="44" y="26" width="6" height="2"></rect><path d="M50,34H44V57a3,3,0,0,0,6,0Z"></path><path d="M57,23V13a1,1,0,0,0-1-1H38a1,1,0,0,0-1,1V23a1,1,0,0,0,1,1H56A1,1,0,0,0,57,23Zm-2-2H39V19H55Zm0-4H39V15H55Z"></path></g></svg>