<svg xmlns="http://www.w3.org/2000/svg" viewBox="0 0 64 64" x="0px" y="0px"><g data-name="Barista-Waiter-Woman-Coffee Shop-Coffee"><circle cx="19" cy="22" r="2"></circle><circle cx="27" cy="22" r="2"></circle><path d="M26.532,28.542l-1.4-1.424a3.082,3.082,0,0,1-4.256,0l-1.4,1.424a5.007,5.007,0,0,0,7.064,0Z"></path><path d="M54.61,44H44.105a2,2,0,0,0-1.99,2.2l.62,6.2a3.987,3.987,0,0,0,3.98,3.6h2.57a3.987,3.987,0,0,0,3.98-3.6l.087-.863,2.515-1.006A3.353,3.353,0,0,0,58,47.39,3.394,3.394,0,0,0,54.61,44Zm-3.335,8.2a1.994,1.994,0,0,1-1.99,1.8h-2.57a1.994,1.994,0,0,1-1.99-1.8l-.62-6.2H51.9Zm3.854-3.528-1.553.62L53.905,46h.7A1.392,1.392,0,0,1,56,47.39,1.367,1.367,0,0,1,55.129,48.671Z"></path><path d="M49,36a13,13,0,0,0-10.63,5.54,6.946,6.946,0,0,0-.68-.24l-3.54-1.11A30.8,30.8,0,0,0,39,23C39,10.64,32.42,2,23,2S7,10.64,7,23a30.8,30.8,0,0,0,4.85,17.19l-3.54,1.1A8.963,8.963,0,0,0,2,49.88V61a1,1,0,0,0,1,1H43a1,1,0,0,0,1-1,13,13,0,1,0,5-25ZM36.94,24.69a27.591,27.591,0,0,1-4.8,14.87L28,38.27V34.79a11.064,11.064,0,0,0,2.78-2.01A10.919,10.919,0,0,0,33.95,26H34a4,4,0,0,0,2.83-1.17A1.71,1.71,0,0,1,36.94,24.69ZM33,41.92V48H31V41.3ZM21.68,17a17.437,17.437,0,0,0,4.79-3.44A10.053,10.053,0,0,0,32,15.95V17ZM32,19v3a3.009,3.009,0,0,1-3,3H27a3.009,3.009,0,0,1-3-3V19ZM22,19v3a3.009,3.009,0,0,1-3,3H17a3.009,3.009,0,0,1-3-3V19Zm-5,8h2a4.994,4.994,0,0,0,4-2.03A4.994,4.994,0,0,0,27,27h2a5,5,0,0,0,2.94-.97A9.015,9.015,0,0,1,23,34a9.013,9.013,0,0,1-8.94-7.97A5,5,0,0,0,17,27Zm9,8.58V38.7l-3,4.5-3-4.5V35.57a10.8,10.8,0,0,0,6,.01Zm-3.83,9.97a.99.99,0,0,0,1.66,0l3.59-5.37,1.58.49V48H17V40.67l1.58-.49ZM34,24V20a2.006,2.006,0,0,1,2,2,2.015,2.015,0,0,1-2,2Zm2.76-4.88A3.979,3.979,0,0,0,34,18V15a1,1,0,0,0-1-1,7.869,7.869,0,0,1-5.19-1.92,15.142,15.142,0,0,0,2.73-5.51C33.84,9.14,36.06,13.52,36.76,19.12ZM23,4a12.286,12.286,0,0,1,5.76,1.39A13.162,13.162,0,0,1,25.7,11.5,16.725,16.725,0,0,1,13,17a18.7,18.7,0,0,1-3.34-.31C11.36,8.9,16.29,4,23,4ZM12,20v4a2.015,2.015,0,0,1-2-2A2.006,2.006,0,0,1,12,20ZM9.3,18.66c.14.02.28.04.41.07a4.223,4.223,0,0,0-.47.39C9.26,18.96,9.28,18.81,9.3,18.66Zm-.24,6.03a1.71,1.71,0,0,1,.11.14A4,4,0,0,0,12,26h.05A11.028,11.028,0,0,0,18,34.79v3.48l-4.14,1.29A27.591,27.591,0,0,1,9.06,24.69ZM15,41.3V48H13V41.92ZM4,60V49.88A6.964,6.964,0,0,1,8.91,43.2L11,42.55V48a1.033,1.033,0,0,0-.71.29A8.723,8.723,0,0,0,8,54a8.855,8.855,0,0,0,1.52,4.77A2.655,2.655,0,0,1,9.97,60Zm25,0H17V56H29Zm5.82-2.36A4.846,4.846,0,0,0,34.03,60H31V55a1,1,0,0,0-1-1H16a1,1,0,0,0-1,1v5H11.97a4.846,4.846,0,0,0-.79-2.36A6.242,6.242,0,0,1,11.44,50H34.56a6.242,6.242,0,0,1,.26,7.64Zm.89-9.35A1.033,1.033,0,0,0,35,48V42.55l2.1.66c.08.02.16.06.24.08a12.875,12.875,0,0,0-1.32,5.35C35.91,48.52,35.81,48.4,35.71,48.29ZM42,60H36.03a2.655,2.655,0,0,1,.45-1.23,9.243,9.243,0,0,0,1.33-3.19A13.133,13.133,0,0,0,42,59.94Zm7,0A11,11,0,1,1,60,49,11.007,11.007,0,0,1,49,60Z"></path></g></svg>