<svg xmlns="http://www.w3.org/2000/svg" viewBox="0 0 64 64" x="0px" y="0px"><g data-name="skyscraper-building-tower-city-real estate"><path d="M55,60V9.57l-2-1.2V10H51V8h1.39L45.72,4H41V60H39V9.57l-2-1.2V10H35V8h1.39L29.72,4H25V60H23V9.57l-2-1.2V10H19V8h1.39L13.72,4H9V60H3v2H61V60ZM19,12h2v2H19Zm0,4h2v2H19Zm0,4h2v2H19Zm0,4h2v2H19Zm0,4h2v2H19Zm0,4h2v2H19Zm0,4h2v2H19Zm0,4h2v2H19Zm0,4h2v2H19Zm0,4h2v2H19Zm0,4h2v2H19ZM15,8h2v2H15Zm0,4h2v2H15Zm0,4h2v2H15Zm0,4h2v2H15Zm0,4h2v2H15Zm0,4h2v2H15Zm0,4h2v2H15Zm0,4h2v2H15Zm0,4h2v2H15Zm0,4h2v2H15Zm0,4h2v2H15Zm0,4h2v2H15ZM11,8h2v2H11Zm0,4h2v2H11Zm0,4h2v2H11Zm0,4h2v2H11Zm0,4h2v2H11Zm0,4h2v2H11Zm0,4h2v2H11Zm0,4h2v2H11Zm0,4h2v2H11Zm0,4h2v2H11Zm0,4h2v2H11Zm0,4h2v2H11Zm8,8V58H13v2H11V57a1,1,0,0,1,1-1h8a1,1,0,0,1,1,1v3ZM35,12h2v2H35Zm0,4h2v2H35Zm0,4h2v2H35Zm0,4h2v2H35Zm0,4h2v2H35Zm0,4h2v2H35Zm0,4h2v2H35Zm0,4h2v2H35Zm0,4h2v2H35Zm0,4h2v2H35Zm0,4h2v2H35ZM31,8h2v2H31Zm0,4h2v2H31Zm0,4h2v2H31Zm0,4h2v2H31Zm0,4h2v2H31Zm0,4h2v2H31Zm0,4h2v2H31Zm0,4h2v2H31Zm0,4h2v2H31Zm0,4h2v2H31Zm0,4h2v2H31Zm0,4h2v2H31ZM27,8h2v2H27Zm0,4h2v2H27Zm0,4h2v2H27Zm0,4h2v2H27Zm0,4h2v2H27Zm0,4h2v2H27Zm0,4h2v2H27Zm0,4h2v2H27Zm0,4h2v2H27Zm0,4h2v2H27Zm0,4h2v2H27Zm0,4h2v2H27Zm8,8V58H29v2H27V57a1,1,0,0,1,1-1h8a1,1,0,0,1,1,1v3ZM51,12h2v2H51Zm0,4h2v2H51Zm0,4h2v2H51Zm0,4h2v2H51Zm0,4h2v2H51Zm0,4h2v2H51Zm0,4h2v2H51Zm0,4h2v2H51Zm0,4h2v2H51Zm0,4h2v2H51Zm0,4h2v2H51ZM47,8h2v2H47Zm0,4h2v2H47Zm0,4h2v2H47Zm0,4h2v2H47Zm0,4h2v2H47Zm0,4h2v2H47Zm0,4h2v2H47Zm0,4h2v2H47Zm0,4h2v2H47Zm0,4h2v2H47Zm0,4h2v2H47Zm0,4h2v2H47ZM43,8h2v2H43Zm0,4h2v2H43Zm0,4h2v2H43Zm0,4h2v2H43Zm0,4h2v2H43Zm0,4h2v2H43Zm0,4h2v2H43Zm0,4h2v2H43Zm0,4h2v2H43Zm0,4h2v2H43Zm0,4h2v2H43Zm0,4h2v2H43Zm8,8V58H45v2H43V57a1,1,0,0,1,1-1h8a1,1,0,0,1,1,1v3Z"></path></g></svg>