<svg xmlns="http://www.w3.org/2000/svg" viewBox="0 0 64 64" x="0px" y="0px"><g data-name="Browser"><polygon points="25.883 50 25.133 56 38.867 56 38.117 50 25.883 50"></polygon><rect x="29" y="26" width="31" height="14"></rect><path d="M20,59a1,1,0,0,0,1,1H43a1,1,0,0,0,0-2H21A1,1,0,0,0,20,59Z"></path><path d="M60,18H23a3,3,0,0,0-3,3v3H60ZM26,22H24V20h2Zm4,0H28V20h2Zm4,0H32V20h2Z"></path><path d="M60,42H4v3a3,3,0,0,0,3,3H57a3,3,0,0,0,3-3Zm-4,4H54V44h2Z"></path><rect x="20" y="26" width="7" height="14"></rect><path d="M60,7a3,3,0,0,0-3-3H7A3,3,0,0,0,4,7v3H60ZM10,8H8V6h2Zm4,0H12V6h2Zm4,0H16V6h2Z"></path><path d="M60,12H4V40H18V21a5.006,5.006,0,0,1,5-5H60Z"></path></g></svg>