<svg xmlns="http://www.w3.org/2000/svg" viewBox="0 0 64 64" x="0px" y="0px"><g><path d="M54,14a5.006,5.006,0,0,0-5,5V50a1,1,0,0,0,.1.447L51,54.236V57a3,3,0,0,0,6,0V54.236l1.9-3.789A1,1,0,0,0,59,50V19A5.006,5.006,0,0,0,54,14Zm0,2a3,3,0,0,1,3,3v1H51V19A3,3,0,0,1,54,16Zm1.382,37H52.618l-1.584-3.168A.988.988,0,0,1,52,49a1,1,0,0,1,1,1,1,1,0,0,0,2,0,1,1,0,0,1,1-1,.988.988,0,0,1,.966.832ZM56,47a2.963,2.963,0,0,0-1,.179V27H53V47.179a2.846,2.846,0,0,0-2,0V25h6V47.184A2.966,2.966,0,0,0,56,47Zm1-24H51V22h6ZM55,57a1,1,0,0,1-2,0V55h2Z"></path><path d="M25.015,43a8.941,8.941,0,0,0,3.586-.761l1.033,1.789-.866.5a1,1,0,0,0-.366,1.366l3,5.2a3,3,0,1,0,5.2-3l-3-5.2a1,1,0,0,0-1.366-.366l-.866.5-1.029-1.783A9,9,0,1,0,25.015,43Zm7.351,1.76,2.5,4.33a1,1,0,0,1-1.732,1l-2.5-4.33ZM21.5,27.938A7,7,0,1,1,18.938,37.5,6.956,6.956,0,0,1,21.5,27.938Z"></path><path d="M25,40a6,6,0,1,0-6-6A6.006,6.006,0,0,0,25,40Zm0-10a4,4,0,1,1-4,4A4,4,0,0,1,25,30Z"></path><path d="M42,12H36.969A4.952,4.952,0,0,0,34,11H32V7a5.006,5.006,0,0,0-5-5H25a5.006,5.006,0,0,0-5,5v4H18a4.952,4.952,0,0,0-2.969,1H10a5.006,5.006,0,0,0-5,5V57a5.006,5.006,0,0,0,5,5H42a5.006,5.006,0,0,0,5-5V17A5.006,5.006,0,0,0,42,12ZM16,56a5.006,5.006,0,0,1-5-5h4a1,1,0,0,1,1,1Zm-1-7H11V18h2v3a1,1,0,0,0,1,1H38a1,1,0,0,0,1-1V18h2V56H18V52A3,3,0,0,0,15,49Zm0-30H37v1H15Zm3-6h3a1,1,0,0,0,1-1V7a3,3,0,0,1,3-3h2a3,3,0,0,1,3,3v5a1,1,0,0,0,1,1h3a3,3,0,0,1,3,3v1H15V16A3,3,0,0,1,18,13ZM45,57a3,3,0,0,1-3,3H10a3,3,0,0,1-3-3V17a3,3,0,0,1,3-3h3.424A4.95,4.95,0,0,0,13,16H11a2,2,0,0,0-2,2V51a7.008,7.008,0,0,0,7,7H41a2,2,0,0,0,2-2V18a2,2,0,0,0-2-2H39a4.95,4.95,0,0,0-.424-2H42a3,3,0,0,1,3,3Z"></path><path d="M26,12a3,3,0,1,0-3-3A3,3,0,0,0,26,12Zm0-4a1,1,0,1,1-1,1A1,1,0,0,1,26,8Z"></path></g></svg>