<svg xmlns="http://www.w3.org/2000/svg" viewBox="0 0 64 64" x="0px" y="0px"><g><polygon points="27.377 34.623 33.033 32.448 29.552 28.967 27.377 34.623"></polygon><polygon points="34.447 31.034 36.623 25.377 30.966 27.553 34.447 31.034"></polygon><path d="M34,54H30a1,1,0,0,0,0,2h4a1,1,0,0,0,0-2Z"></path><path d="M50,8a4,4,0,0,0-4-4H18a4,4,0,0,0-4,4V56a4,4,0,0,0,4,4H46a4,4,0,0,0,4-4ZM29,6h6V8H29ZM25,6h2V8H25Zm9,52H30a3,3,0,0,1,0-6h4a3,3,0,0,1,0,6ZM32,46A16,16,0,1,1,48,30,16.019,16.019,0,0,1,32,46Z"></path><path d="M45.949,29a13.919,13.919,0,0,0-3.381-8.154l-1.376,1.376-1.414-1.414,1.376-1.376A13.919,13.919,0,0,0,33,16.051V18H31V16.051a13.919,13.919,0,0,0-8.154,3.381l1.376,1.376-1.414,1.414-1.376-1.376A13.919,13.919,0,0,0,18.051,29H20v2H18.051a13.919,13.919,0,0,0,3.381,8.154l1.376-1.376,1.414,1.414-1.376,1.376A13.919,13.919,0,0,0,31,43.949V42h2v1.949a13.919,13.919,0,0,0,8.154-3.381l-1.376-1.376,1.414-1.414,1.376,1.376A13.919,13.919,0,0,0,45.949,31H44V29ZM39.3,24l-3.536,9.193a1,1,0,0,1-.574.574L26,37.3A1,1,0,0,1,24.7,36.005l3.535-9.193a1,1,0,0,1,.574-.574L38.005,22.7A1,1,0,0,1,39.3,24Z"></path></g></svg>