<svg xmlns="http://www.w3.org/2000/svg" viewBox="0 0 64 64" x="0px" y="0px"><title>Speech Bubble_31</title><g data-name="Speech Bubble"><path d="M32,2A30,30,0,1,0,62,32,30.034,30.034,0,0,0,32,2Zm0,58A28,28,0,1,1,60,32,28.032,28.032,0,0,1,32,60Z"></path><path d="M46.969,20l-32,1a1,1,0,0,0-.964,1.1l2,19A1.019,1.019,0,0,0,17.066,42L31,41.069V48a1,1,0,0,0,1.8.6l5.613-7.484,8.37,1.861A1,1,0,0,0,48,42V21a1,1,0,0,0-.3-.718A.951.951,0,0,0,46.969,20ZM46,40.753l-7.783-1.73A1.008,1.008,0,0,0,37.2,39.4L33,45V40a1,1,0,0,0-1-1l-.066,0-14.04.936L16.107,22.966,46,22.031Z"></path><path d="M20,29H42a1,1,0,0,0,0-2H20a1,1,0,0,0,0,2Z"></path><path d="M20,35H42a1,1,0,0,0,0-2H20a1,1,0,0,0,0,2Z"></path></g></svg>