<svg xmlns="http://www.w3.org/2000/svg" viewBox="0 0 64 64" x="0px" y="0px"><g data-name="X ray-Lungs-Anatomy-Medical-Organ"><path d="M59,2H5A3.009,3.009,0,0,0,2,5V59a3.009,3.009,0,0,0,3,3H59a3.009,3.009,0,0,0,3-3V5A3.009,3.009,0,0,0,59,2Zm1,57a1,1,0,0,1-1,1H5a1,1,0,0,1-1-1V5A1,1,0,0,1,5,4H59a1,1,0,0,1,1,1Z"></path><path d="M43,24H41a5,5,0,0,0-5,5v.33l-.6-.46a1.014,1.014,0,0,1-.4-.8V12a3,3,0,0,0-6,0V28.07a1.014,1.014,0,0,1-.4.8l-.6.46V29a5,5,0,0,0-5-5H21A11.007,11.007,0,0,0,10,35V51.23a5,5,0,0,0,2.15,4.11,4.985,4.985,0,0,0,4.6.57l2.81-1.05A13.075,13.075,0,0,0,28,42.68V36.87l3.4-2.56a1.021,1.021,0,0,1,1.2,0L36,36.87v5.81a13.075,13.075,0,0,0,8.44,12.18l2.81,1.05A4.994,4.994,0,0,0,54,51.23V35A11.007,11.007,0,0,0,43,24ZM31,12a1,1,0,0,1,2,0v2H31Zm0,4h2v2H31Zm0,4h2v2H31ZM26,42.68a11.051,11.051,0,0,1-7.14,10.3l-2.81,1.05A2.994,2.994,0,0,1,12,51.23V35a9.014,9.014,0,0,1,9-9h2a3.009,3.009,0,0,1,3,3v1.84l-6.6,4.99a3,3,0,0,0,1.82,5.39,3.039,3.039,0,0,0,1.8-.6L26,38.38Zm7.8-9.96a3,3,0,0,0-3.6,0l-8.39,6.3a1,1,0,0,1-1.2-1.6l9.2-6.96A2.984,2.984,0,0,0,31,28.07V24h2v4.07a3.012,3.012,0,0,0,1.19,2.39l9.2,6.96a1,1,0,0,1,.39.69,1,1,0,0,1-1.59.91ZM52,51.23a2.994,2.994,0,0,1-4.05,2.8l-2.81-1.05A11.051,11.051,0,0,1,38,42.68v-4.3l2.98,2.24a3,3,0,0,0,3.62-4.79L38,30.84V29a3.009,3.009,0,0,1,3-3h2a9.014,9.014,0,0,1,9,9Z"></path><path d="M22,19V7a1,1,0,0,0-1-1H7A1,1,0,0,0,6,7V19a1,1,0,0,0,1,1H21A1,1,0,0,0,22,19Zm-2-1H8V8H20Z"></path><rect x="10" y="10" width="8" height="2"></rect><rect x="10" y="14" width="8" height="2"></rect></g></svg>