<svg xmlns="http://www.w3.org/2000/svg" viewBox="0 0 64 64" x="0px" y="0px"><g data-name="Budget-Finance-Calculator-Money-Book Bank"><path d="M57,2H17a1,1,0,0,0-1,1V20H5a3.009,3.009,0,0,0-3,3V59a3.009,3.009,0,0,0,3,3H57a5,5,0,0,0,5-5V7A5,5,0,0,0,57,2ZM18,4h4V20H18ZM30,59a1,1,0,0,1-1,1H5a1,1,0,0,1-1-1V23a1,1,0,0,1,1-1H29a1,1,0,0,1,1,1Zm30-2a3.009,3.009,0,0,1-3,3H31.82A3,3,0,0,0,32,59V58H57a4.924,4.924,0,0,0,3-1.03Zm0-4a3.009,3.009,0,0,1-3,3H32V54H57a4.924,4.924,0,0,0,3-1.03ZM43,38V36h2v2h2V36h2v2h2V36h1a1,1,0,0,1,1,1v2a1,1,0,0,1-1,1H40a1,1,0,0,1-1-1V37a1,1,0,0,1,1-1h1v2Zm-3,4h1v2h2V42h2v2h2V42h2v2h2V42h1a1,1,0,0,1,1,1v2a1,1,0,0,1-1,1H40a1,1,0,0,1-1-1V43A1,1,0,0,1,40,42Zm0,6h1v2h2V48h2v2h2V48h2v2h2V48h1a1,1,0,0,1,1,1v2a1,1,0,0,1-1,1H40a1,1,0,0,1-1-1V49A1,1,0,0,1,40,48Zm20,1a3.009,3.009,0,0,1-3,3H54.82A3,3,0,0,0,55,51V49a2.974,2.974,0,0,0-.78-2A2.974,2.974,0,0,0,55,45V43a2.974,2.974,0,0,0-.78-2A2.974,2.974,0,0,0,55,39V37a3.009,3.009,0,0,0-3-3H40a3.009,3.009,0,0,0-3,3v2a2.974,2.974,0,0,0,.78,2A2.974,2.974,0,0,0,37,43v2a2.974,2.974,0,0,0,.78,2A2.974,2.974,0,0,0,37,49v2a3,3,0,0,0,.18,1H32V23a3.009,3.009,0,0,0-3-3H24V4H57a3.009,3.009,0,0,1,3,3Z"></path><path d="M26,24H8a2,2,0,0,0-2,2v6a2,2,0,0,0,2,2H26a2,2,0,0,0,2-2V26A2,2,0,0,0,26,24ZM8,32V26H26l0,6Z"></path><rect x="20" y="28" width="2" height="2"></rect><rect x="16" y="28" width="2" height="2"></rect><rect x="12" y="28" width="2" height="2"></rect><path d="M11,44H7a1,1,0,0,0-1,1v4a1,1,0,0,0,1,1h4a1,1,0,0,0,1-1V45A1,1,0,0,0,11,44Zm-1,4H8V46h2Z"></path><path d="M11,36H7a1,1,0,0,0-1,1v4a1,1,0,0,0,1,1h4a1,1,0,0,0,1-1V37A1,1,0,0,0,11,36Zm-1,4H8V38h2Z"></path><path d="M19,36H15a1,1,0,0,0-1,1v4a1,1,0,0,0,1,1h4a1,1,0,0,0,1-1V37A1,1,0,0,0,19,36Zm-1,4H16V38h2Z"></path><path d="M27,36H23a1,1,0,0,0-1,1v4a1,1,0,0,0,1,1h4a1,1,0,0,0,1-1V37A1,1,0,0,0,27,36Zm-1,4H24V38h2Z"></path><path d="M19,44H15a1,1,0,0,0-1,1v4a1,1,0,0,0,1,1h4a1,1,0,0,0,1-1V45A1,1,0,0,0,19,44Zm-1,4H16V46h2Z"></path><path d="M27,44H23a1,1,0,0,0-1,1v4a1,1,0,0,0,1,1h4a1,1,0,0,0,1-1V45A1,1,0,0,0,27,44Zm-1,4H24V46h2Z"></path><path d="M11,52H7a1,1,0,0,0-1,1v4a1,1,0,0,0,1,1h4a1,1,0,0,0,1-1V53A1,1,0,0,0,11,52Zm-1,4H8V54h2Z"></path><path d="M19,52H15a1,1,0,0,0-1,1v4a1,1,0,0,0,1,1h4a1,1,0,0,0,1-1V53A1,1,0,0,0,19,52Zm-1,4H16V54h2Z"></path><path d="M27,52H23a1,1,0,0,0-1,1v4a1,1,0,0,0,1,1h4a1,1,0,0,0,1-1V53A1,1,0,0,0,27,52Zm-1,4H24V54h2Z"></path><path d="M41,15h2a1,1,0,0,1,1,1h2a3,3,0,0,0-3-3V12H41v1a3,3,0,0,0,0,6h2a1,1,0,0,1,0,2H41a1,1,0,0,1-1-1H38a3,3,0,0,0,3,3v1h2V23a3,3,0,0,0,0-6H41a1,1,0,0,1,0-2Z"></path><path d="M42,8A10,10,0,1,0,52,18,10.011,10.011,0,0,0,42,8Zm0,18a8,8,0,1,1,8-8A8.009,8.009,0,0,1,42,26Z"></path></g></svg>