<svg xmlns="http://www.w3.org/2000/svg" viewBox="0 0 64 64" x="0px" y="0px"><g><path d="M23,12.069V14.09A6.008,6.008,0,0,1,27.91,19h2.021A8.008,8.008,0,0,0,23,12.069Z"></path><path d="M34,25a3.009,3.009,0,0,1,3-3H54V8H10V38H34Zm13-9H45a3,3,0,0,1,0-6V9h2v1a3,3,0,0,1,3,3H48a1,1,0,0,0-1-1H45a1,1,0,0,0,0,2h2a3,3,0,0,1,0,6v1H45V20a3,3,0,0,1-3-3h2a1,1,0,0,0,1,1h2a1,1,0,0,0,0-2ZM34,10h4v2H34Zm0,4h4v2H34ZM32,36H28V34h4Zm0-4H28V30h4ZM22,30A10,10,0,1,1,32,20,10.011,10.011,0,0,1,22,30Z"></path><path d="M56,28H40v6H56ZM45,32H43V30h2Zm4,0H47V30h2Zm4,0H51V30h2Z"></path><path d="M22,26a5.961,5.961,0,0,1-3.471-1.115L17.1,26.312A7.981,7.981,0,0,0,29.931,21H27.91A6.006,6.006,0,0,1,22,26Z"></path><path d="M16,20a6.006,6.006,0,0,1,5-5.91V12.069A7.98,7.98,0,0,0,15.688,24.9l1.427-1.426A5.961,5.961,0,0,1,16,20Z"></path><path d="M6,38H8V8a2.006,2.006,0,0,1,2-2H54a2.006,2.006,0,0,1,2,2V22h2V7a3.009,3.009,0,0,0-3-3H9A3.009,3.009,0,0,0,6,7Z"></path><rect x="52" y="40" width="4" height="4"></rect><path d="M7,46H34V44H28a2.006,2.006,0,0,1-2-2V40H4v3A3.009,3.009,0,0,0,7,46Z"></path><circle cx="22" cy="20" r="4"></circle><rect x="28" y="40" width="6" height="2"></rect><rect x="46" y="46" width="4" height="4"></rect><rect x="40" y="46" width="4" height="4"></rect><rect x="46" y="52" width="4" height="4"></rect><rect x="46" y="40" width="4" height="4"></rect><path d="M37,60H59a1,1,0,0,0,1-1V25a1,1,0,0,0-1-1H37a1,1,0,0,0-1,1V59A1,1,0,0,0,37,60Zm1-32a2,2,0,0,1,2-2H56a2,2,0,0,1,2,2v6a2,2,0,0,1-2,2H40a2,2,0,0,1-2-2Zm0,12a2,2,0,0,1,2-2H56a2,2,0,0,1,2,2V56a2,2,0,0,1-2,2H40a2,2,0,0,1-2-2Z"></path><rect x="40" y="52" width="4" height="4"></rect><rect x="40" y="40" width="4" height="4"></rect><rect x="52" y="46" width="4" height="4"></rect><rect x="52" y="52" width="4.001" height="4"></rect></g></svg>