<svg xmlns="http://www.w3.org/2000/svg" viewBox="0 0 64 64" x="0px" y="0px"><g data-name="House-Security-Insureance-Hand-Real Estate"><path d="M57.82,41.29a4.108,4.108,0,0,0-5.18-2.07l-8.93,3.25a4.067,4.067,0,0,0-.59-1.31,3.981,3.981,0,0,0-2.59-1.64L28.47,37.39a14.958,14.958,0,0,0-7.73.68l-1.56.56a16.755,16.755,0,0,0-4.09,2.18l-.23-.61a.989.989,0,0,0-1.28-.59L4.19,43.03a.989.989,0,0,0-.57.51,1.026,1.026,0,0,0-.03.77l-1.93.7.68,1.88,1.93-.7,1.31,3.59,2.8,7.68L1.66,59.91l.68,1.88,6.72-2.45A1,1,0,0,0,10,60a1.016,1.016,0,0,0,.34-.06l9.4-3.42A.987.987,0,0,0,20.3,56a.958.958,0,0,0,.04-.76l2.3-.84a10.893,10.893,0,0,1,4.52-.64l4.75.33a13.12,13.12,0,0,0,5.34-.75l18.28-6.66a3.936,3.936,0,0,0,2.26-2.07A4.007,4.007,0,0,0,57.82,41.29ZM10.6,57.72,5.81,44.56l7.52-2.73,4.79,13.15ZM55.98,43.77a2.006,2.006,0,0,1-1.13,1.03L36.57,51.46a10.886,10.886,0,0,1-4.52.63l-4.75-.32a12.789,12.789,0,0,0-5.34.75l-2.31.84L15.8,42.77a14.762,14.762,0,0,1,4.07-2.26l1.55-.57a13.058,13.058,0,0,1,6.7-.58l12.07,2.13a1.985,1.985,0,0,1,1.29.82,2.025,2.025,0,0,1,.33,1.49,1.975,1.975,0,0,1-.82,1.29,1.952,1.952,0,0,1-1.5.33L28.66,43.51l-.35,1.97,10.83,1.91a3.419,3.419,0,0,0,.71.07,3.939,3.939,0,0,0,2.28-.73,3.994,3.994,0,0,0,1.52-2.1l9.67-3.53a2.141,2.141,0,0,1,2.67,1A2.027,2.027,0,0,1,55.98,43.77Z"></path><path d="M32,19a4,4,0,1,0,4-4A4,4,0,0,0,32,19Zm6,0a2,2,0,1,1-2-2A2,2,0,0,1,38,19Z"></path><path d="M52.26,17.85,47,12.59V5a1,1,0,0,0-1-1H42a1,1,0,0,0-1,1V6.59l-4.29-4.3a1.047,1.047,0,0,0-1.42,0L19.74,17.85a1,1,0,0,0,0,1.41l2.82,2.83a1.008,1.008,0,0,0,1.42,0L25,21.07V33a2.006,2.006,0,0,0,2,2H45a2.006,2.006,0,0,0,2-2V21.07l1.02,1.02a.982.982,0,0,0,.71.29.96.96,0,0,0,.7-.29l2.83-2.83a.976.976,0,0,0,.3-.7A1,1,0,0,0,52.26,17.85ZM43,6h2v4.59l-2-2ZM38,33H34V27h4Zm7,0H40V26a1,1,0,0,0-1-1H33a1,1,0,0,0-1,1v7H27V19.07l9-9,9,9Zm3.73-13.03L36.71,7.95a1.014,1.014,0,0,0-1.42,0L23.27,19.97l-1.41-1.41L36,4.41,50.14,18.56Z"></path></g></svg>