<svg xmlns="http://www.w3.org/2000/svg" viewBox="0 0 64 64" x="0px" y="0px"><g data-name="Marketing Plan"><path d="M42,32A10,10,0,1,0,52,22,10.011,10.011,0,0,0,42,32Zm18,0a8,8,0,1,1-8-8A8.009,8.009,0,0,1,60,32Z"></path><path d="M51,26v1.184A2.993,2.993,0,0,0,52,33a1,1,0,1,1-1,1H49a3,3,0,0,0,2,2.816V38h2V36.816A2.993,2.993,0,0,0,52,31a1,1,0,1,1,1-1h2a3,3,0,0,0-2-2.816V26Z"></path><path d="M59,56V53a1,1,0,0,0-1-1H57V50h1a1,1,0,0,0,1-1V45a1,1,0,0,0-1-1H46a1,1,0,0,0-1,1v3H44a1,1,0,0,0-1,1v3H34a1,1,0,0,0-1,1v4a1,1,0,0,0,1,1v3a1,1,0,0,0,1,1H59a1,1,0,0,0,1-1V57A1,1,0,0,0,59,56ZM47,56V54h2v1h2V54h2v1h2V54h2v2Zm0-10h2v1h2V46h2v1h2V46h2v2H47Zm-2,4h2v1h2V50h2v1h2V50h2v2H45ZM35,54h2v1h2V54h2v1h2V54h2v2H35Zm1,4h2v1h2V58h2v1h2V58h2v2H36Zm22,2H48V58h2v1h2V58h2v1h2V58h2Z"></path><path d="M16,34H34V50h2V34a2,2,0,0,0-2-2H16a2,2,0,0,0-2,2V60a2,2,0,0,0,2,2H32V60H16Z"></path><path d="M31,36H19a1,1,0,0,0-1,1v4a1,1,0,0,0,1,1H31a1,1,0,0,0,1-1V37A1,1,0,0,0,31,36Zm-1,4H20V38H30Z"></path><path d="M31,44H19a1,1,0,0,0-1,1V57a1,1,0,0,0,1,1H31a1,1,0,0,0,1-1V45A1,1,0,0,0,31,44ZM26,56H24V52h2Zm0-6H24V46h2Zm-4-4v4H20V46Zm-2,6h2v4H20Zm10,4H28V46h2Z"></path><path d="M37.372,25.929l5-2a1,1,0,0,0,0-1.858l-5-2A1.012,1.012,0,0,0,37,20H5a3,3,0,0,0,0,6H37A1.012,1.012,0,0,0,37.372,25.929ZM35,24H8V22H35Zm4.308-1L37,23.923V22.077ZM4,23a1,1,0,0,1,1-1H6v2H5A1,1,0,0,1,4,23Z"></path><path d="M11,59V28H9V59a3,3,0,0,0,3,3V60A1,1,0,0,1,11,59Z"></path><path d="M11,5a1,1,0,0,1,1-1H44v8a3,3,0,0,0,3,3h6v5h2V14.03a1,1,0,0,0-.225-.632l-9-11.03A1,1,0,0,0,45,2H12A3,3,0,0,0,9,5V18h2Zm35,7V5.81L51.868,13H47A1,1,0,0,1,46,12Z"></path><rect x="16" y="8" width="4" height="2"></rect><rect x="22" y="8" width="10" height="2"></rect><rect x="16" y="12" width="20" height="2"></rect></g></svg>