<svg xmlns="http://www.w3.org/2000/svg" viewBox="0 0 64 64" x="0px" y="0px"><title>Blog-Browser-Seo-Web Design</title><g><rect x="8" y="10" width="2" height="2"></rect><rect x="12" y="10" width="2" height="2"></rect><rect x="16" y="10" width="2" height="2"></rect><path d="M21,20H9a1,1,0,0,0-1,1V31a1,1,0,0,0,1,1H21a1,1,0,0,0,1-1V21A1,1,0,0,0,21,20ZM20,30H10V22H20Z"></path><rect x="26" y="20" width="4" height="2"></rect><rect x="32" y="20" width="16" height="2"></rect><rect x="26" y="24" width="22" height="2"></rect><rect x="26" y="28" width="10" height="2"></rect><rect x="38" y="28" width="6" height="2"></rect><rect x="8" y="36" width="14" height="2"></rect><rect x="8" y="40" width="14" height="2"></rect><rect x="8" y="44" width="14" height="2"></rect><rect x="8" y="48" width="14" height="2"></rect><path d="M59,19.091a4.866,4.866,0,0,0-5,.022V9a3,3,0,0,0-3-3H5A3,3,0,0,0,2,9V55a3,3,0,0,0,3,3H51a3,3,0,0,0,3-3V37.751l6.83-11.83A5.005,5.005,0,0,0,59,19.091ZM38.845,48H28V38H42.309L39.67,42.572a.994.994,0,0,0-.132.564l.212,3.3Zm1.289,1.768,1-1.732,1.732,1-1,1.732a1,1,0,0,1-1.732-1Zm4.135-2.232-2.538-1.465-.154-2.4,4.846,2.8Zm3.329-2.7-1.732-1,7.5-12.99-1.732-1-7.5,12.99-1.732-1,8.5-14.722,5.2,3Zm4.3-19.454.5-.865,5.2,3-.5.866ZM5,8H51a1,1,0,0,1,1,1v5.032H4V9A1,1,0,0,1,5,8ZM52,55a1,1,0,0,1-1,1H5a1,1,0,0,1-1-1V16.032H52v5.184L43.464,36H27a1,1,0,0,0-1,1V49a1,1,0,0,0,1,1H38.02A3,3,0,0,0,43.6,51.768l1.348-2.336,2.96-1.464a1,1,0,0,0,.423-.4L52,41.215Zm7.1-30.079-.5.866-5.2-3,.5-.866a3,3,0,0,1,5.2,3Z"></path></g></svg>