<svg xmlns="http://www.w3.org/2000/svg" viewBox="0 0 64 64" x="0px" y="0px"><g><path d="M59,34H58V13a11,11,0,0,0-21.949-1H34a3,3,0,0,0-3,3v2a1,1,0,0,0,1,1H44a1,1,0,0,0,1-1V15a3,3,0,0,0-3-3h-.91A6,6,0,0,1,53,13V34H29a3,3,0,0,0-3-3H16a3,3,0,0,0-3,3H5a3.017,3.017,0,0,0-3,3,3,3,0,0,0,3,3h.22l1.54,6.152A12.958,12.958,0,0,0,18,55.92V59a3,3,0,0,0,6,0V56H40v3a3,3,0,0,0,6,0V55.92a12.957,12.957,0,0,0,11.239-9.767L58.78,40H59a3.017,3.017,0,0,0,3-3A3,3,0,0,0,59,34ZM42,14a1,1,0,0,1,1,1v1H33V15a1,1,0,0,1,1-1Zm5-9a8.008,8.008,0,0,0-7.931,7h-1.01A9,9,0,0,1,56,13V34H55V13A8.009,8.009,0,0,0,47,5ZM15,34a1,1,0,0,1,1-1H26a1,1,0,0,1,1,1v7H15Zm-1,9H28v2H14Zm13,4v1a1,1,0,0,1-1,1H16a1,1,0,0,1-1-1V47ZM5,38a1,1,0,0,1-1-1,.978.978,0,0,1,.306-.712A.957.957,0,0,1,5,36h8v2ZM22,59a1,1,0,0,1-2,0V56h2Zm22,0a1,1,0,0,1-2,0V56h2ZM55.3,45.668A10.974,10.974,0,0,1,44.63,54H19.37A10.975,10.975,0,0,1,8.7,45.667L7.281,40H13v1.278A1.993,1.993,0,0,0,12,43v2a1.993,1.993,0,0,0,1,1.722V48a3,3,0,0,0,3,3H26a3,3,0,0,0,3-3V46.722A1.993,1.993,0,0,0,30,45V43a1.993,1.993,0,0,0-1-1.722V40H56.719Zm4.4-7.956A.957.957,0,0,1,59,38H29V36H59a1,1,0,0,1,1,1A.978.978,0,0,1,59.694,37.712Z"></path><rect x="37" y="20" width="2" height="2"></rect><rect x="37" y="24" width="2" height="2"></rect><rect x="41" y="20" width="2" height="2"></rect><rect x="41" y="24" width="2" height="2"></rect><rect x="33" y="20" width="2" height="2"></rect><rect x="33" y="24" width="2" height="2"></rect></g></svg>