<svg xmlns="http://www.w3.org/2000/svg" viewBox="0 0 64 64" x="0px" y="0px"><g data-name="Online Banking-Mobile-Transfer-Money-Arrows"><path d="M31,25h2a1,1,0,0,1,1,1h2a3,3,0,0,0-3-3V22H31v1a3,3,0,0,0,0,6h2a1,1,0,0,1,0,2H31a1,1,0,0,1-1-1H28a3,3,0,0,0,3,3v1h2V33a3,3,0,0,0,0-6H31a1,1,0,0,1,0-2Z"></path><path d="M32,18A10,10,0,1,0,42,28,10.011,10.011,0,0,0,32,18Zm0,18a8,8,0,1,1,8-8A8.009,8.009,0,0,1,32,36Z"></path><path d="M58,46a3.94,3.94,0,0,0-2.57.94A4.012,4.012,0,0,0,52,45V31h2v2a1,1,0,0,0,.58.91A1.023,1.023,0,0,0,55,34a1,1,0,0,0,.64-.23l6-5a1,1,0,0,0,0-1.54l-6-5A1,1,0,0,0,54,23v2H52V7a5,5,0,0,0-5-5H17a5,5,0,0,0-5,5V25H10V23a1,1,0,0,0-1.64-.77l-6,5a1,1,0,0,0,0,1.54l6,5A1,1,0,0,0,9,34a1.023,1.023,0,0,0,.42-.09A1,1,0,0,0,10,33V31h2V57a5,5,0,0,0,5,5H32.96l.29.5,1.73-1-4.31-7.46a2,2,0,1,1,3.46-2l2,3.46A1,1,0,0,0,38,55V40a2,2,0,0,1,4,0V52a1,1,0,0,0,2,0V48a2,2,0,0,1,4,0v4a1,1,0,0,0,2,0V49a2,2,0,0,1,4,0v3a1,1,0,0,0,2,0V50a2,2,0,0,1,4,0V62h2V50A4,4,0,0,0,58,46ZM14,7a3.009,3.009,0,0,1,3-3H47a3.009,3.009,0,0,1,3,3V25H48V8a2.006,2.006,0,0,0-2-2H18a2.006,2.006,0,0,0-2,2V25H14ZM30.65,58l1.15,2H17a3.009,3.009,0,0,1-3-3V31h2V56a2.006,2.006,0,0,0,2,2ZM50,45.54a4.491,4.491,0,0,0-.57.4A4,4,0,0,0,48,44.54V31h2ZM44,29v2h2V44a3.989,3.989,0,0,0-2,.54V40a4,4,0,0,0-8,0V51.27l-.13-.23a4,4,0,1,0-6.93,4l.55.96H18V31h2V29H9a1,1,0,0,0-1,1v.87L4.56,28,8,25.13V26a1,1,0,0,0,1,1H20V25H18V8H46V25H44v2H55a1,1,0,0,0,1-1v-.87L59.44,28,56,30.87V30a1,1,0,0,0-1-1Z"></path></g></svg>