<svg xmlns="http://www.w3.org/2000/svg" viewBox="0 0 64 64" x="0px" y="0px"><g data-name="Game Boy"><path d="M50,2H14a3,3,0,0,0-3,3V59a3,3,0,0,0,3,3H44a9.01,9.01,0,0,0,9-9V5A3,3,0,0,0,50,2ZM43,60H41V58H39v2H37V58H35v2H33V58H31v2H29V58H27v2H25V58H23v2H21V57a1,1,0,0,1,1-1H42a1,1,0,0,1,1,1Zm8-7a7,7,0,0,1-6,6.92V57a3,3,0,0,0-3-3H22a3,3,0,0,0-3,3v3H14a1,1,0,0,1-1-1V5a1,1,0,0,1,1-1H50a1,1,0,0,1,1,1Z"></path><path d="M47,6H17a2,2,0,0,0-2,2V32a2,2,0,0,0,2,2H47a2,2,0,0,0,2-2V8A2,2,0,0,0,47,6ZM17,32V8H47V32Z"></path><path d="M29,42H26V39a1,1,0,0,0-1-1H21a1,1,0,0,0-1,1v3H17a1,1,0,0,0-1,1v4a1,1,0,0,0,1,1h3v3a1,1,0,0,0,1,1h4a1,1,0,0,0,1-1V48h3a1,1,0,0,0,1-1V43A1,1,0,0,0,29,42Zm-1,4H25a1,1,0,0,0-1,1v3H22V47a1,1,0,0,0-1-1H18V44h3a1,1,0,0,0,1-1V40h2v3a1,1,0,0,0,1,1h3Z"></path><path d="M40,44a3,3,0,1,0-3-3A3,3,0,0,0,40,44Zm0-4a1,1,0,1,1-1,1A1,1,0,0,1,40,40Z"></path><path d="M40,46a3,3,0,1,0,3,3A3,3,0,0,0,40,46Zm0,4a1,1,0,1,1,1-1A1,1,0,0,1,40,50Z"></path><path d="M45,42a3,3,0,1,0,3,3A3,3,0,0,0,45,42Zm0,4a1,1,0,1,1,1-1A1,1,0,0,1,45,46Z"></path><path d="M38,45a3,3,0,1,0-3,3A3,3,0,0,0,38,45Zm-3,1a1,1,0,1,1,1-1A1,1,0,0,1,35,46Z"></path><rect x="31" y="19" width="2" height="2"></rect><rect x="35" y="19" width="2" height="2"></rect><rect x="27" y="19" width="2" height="2"></rect></g></svg>