<svg xmlns="http://www.w3.org/2000/svg" viewBox="0 0 64 64" x="0px" y="0px"><g data-name="Credit Card-Payment Method-Mobile-Payment-Smartphone"><path d="M41,22H13a1,1,0,0,0-1,1V40.66l3.44-5.95a3.948,3.948,0,0,1,2.43-1.87,4.007,4.007,0,0,1,3.03.4,3.875,3.875,0,0,1,1.1.95V34h2v2H22.83a3.988,3.988,0,0,1-.13,2H24v2H22v-.64c-.49.84-1.02,1.75-1.53,2.64H41a1,1,0,0,0,1-1V23A1,1,0,0,0,41,22Zm-7,2h2v2H34Zm-4,0h2v2H30Zm-4,0h2v2H26Zm-2,7a1,1,0,0,1-1,1H15a1,1,0,0,1-1-1V25a1,1,0,0,1,1-1h8a1,1,0,0,1,1,1Zm13,9H34a3,3,0,0,1,0-6h3a3,3,0,0,1,0,6Zm3-10H26V28H40Zm0-4H38V24h2Z"></path><rect x="20" y="26" width="2" height="4"></rect><path d="M44,52H40a1,1,0,0,0,0,2h4a1,1,0,0,0,0-2Z"></path><rect x="16" y="26" width="2" height="4"></rect><path d="M53,4H31a5,5,0,0,0-5,5V20H41a3.009,3.009,0,0,1,3,3V41a3.009,3.009,0,0,1-3,3H26v9a5,5,0,0,0,5,5H53a5,5,0,0,0,5-5V9A5,5,0,0,0,53,4ZM39,6h6V8H39ZM35,6h2V8H35Zm-5,6h2v2H30ZM44,56H40a3,3,0,0,1,0-6h4a3,3,0,0,1,0,6ZM54,42H48V40h6Zm0-4H48V36h6Zm0-4H48V32h6Zm0-4H48V28h6Zm0-4H48V24h6Zm0-4H48V20h6Zm0-4H30V16H54Zm0-4H34V12H54Z"></path><path d="M16.13,45.5a1.031,1.031,0,0,0,.01,1.02l2.14,3.56A4.987,4.987,0,0,1,19,52.65V61H4V41.2a8.863,8.863,0,0,1,.83-3.77l4.01-8.69A2.936,2.936,0,0,1,10,27.46V41a3,3,0,0,0,.71,1.9L9.44,45.1l1.73,1,6-10.39a2,2,0,0,1,1.21-.94,2.06,2.06,0,0,1,1.52.2,2.007,2.007,0,0,1,.94,1.23,1.969,1.969,0,0,1-.2,1.52C18.85,40.8,16.13,45.5,16.13,45.5Z"></path><path d="M37,36H34a1,1,0,0,0,0,2h3a1,1,0,0,0,0-2Z"></path></g></svg>