<svg xmlns="http://www.w3.org/2000/svg" viewBox="0 0 64 64" x="0px" y="0px"><g><rect x="17" y="19" width="30" height="1"></rect><path d="M42.607,42.192l-1.45-1.45c-.214.253-.433.505-.672.743s-.49.458-.743.672l1.45,1.45Z"></path><path d="M16,23V45H39.758l-1.673-1.672A11.99,11.99,0,1,1,27.229,22H17A1,1,0,0,1,16,23Z"></path><rect x="42.021" y="44.02" width="4" height="2" transform="translate(-18.941 44.322) rotate(-45.007)"></rect><path d="M32,23.005a10,10,0,1,0,7.071,2.924A9.965,9.965,0,0,0,32,23.005Zm-1,9h2a3,3,0,0,1,0,6v1H31V38a3,3,0,0,1-3-3h2a1,1,0,0,0,1,1h2a1,1,0,0,0,0-2H31a3,3,0,0,1,0-6V27h2v1a3,3,0,0,1,3,3H34a1,1,0,0,0-1-1H31a1,1,0,0,0,0,2Z"></path><polygon points="24.78 51 24.28 53 39.72 53 39.22 51 24.78 51"></polygon><polygon points="23.28 57 40.72 57 40.22 55 23.78 55 23.28 57"></polygon><path d="M44.021,40.778a1,1,0,0,1,1.414,0L48,43.344V23a1,1,0,0,1-1-1H36.771a11.96,11.96,0,0,1,5.557,17.085Z"></path><polygon points="40.344 47 6 47 6 49 42.344 49 40.344 47"></polygon><rect x="46.971" y="45.97" width="4" height="8" transform="translate(-20.991 49.272) rotate(-45.007)"></rect><rect x="49" y="19" width="6" height="2"></rect><rect x="9" y="19" width="6" height="2"></rect><path d="M60,57V51H55.175a2,2,0,0,1-.548,1.8L51.8,55.627a2,2,0,0,1-2.828,0L44.344,51H41.28l1.5,6Z"></path><rect x="10" y="23" width="4" height="22"></rect><path d="M6,12.8V17H58V12.8L32,7.024ZM35,12a3,3,0,1,1-3-3A3,3,0,0,1,35,12Z"></path><circle cx="32" cy="12" r="1"></circle><polygon points="58 49 58 47 51.656 47 53.656 49 58 49"></polygon><polygon points="4 57 21.22 57 22.72 51 4 51 4 57"></polygon><rect x="50" y="23" width="4" height="22"></rect></g></svg>