<svg xmlns="http://www.w3.org/2000/svg" viewBox="0 0 64 64" x="0px" y="0px"><g data-name="Smart Watch-Internet of Things-Wristwatch-Light-Control"><path d="M51.53,19.77A8,8,0,0,0,45.86,6a8.09,8.09,0,0,0-7.85,7.71,7.973,7.973,0,0,0,2.38,5.99A5.155,5.155,0,0,1,41.96,23H40v2h2v2a2.006,2.006,0,0,0,2,2h4a2.006,2.006,0,0,0,2-2V25h2V23H50.04A5,5,0,0,1,51.53,19.77ZM48,27H44V25h4Zm.01-4H43.99a7.147,7.147,0,0,0-2.2-4.73A5.947,5.947,0,0,1,40,13.78,6.073,6.073,0,0,1,45.9,8a5.89,5.89,0,0,1,4.31,1.72A5.991,5.991,0,0,1,52,14a5.929,5.929,0,0,1-1.85,4.32A7,7,0,0,0,48.01,23Z"></path><path d="M46,15a1,1,0,0,1-1-1H43a3,3,0,0,0,2,2.816V21h2V16.816A3,3,0,0,0,49,14H47A1,1,0,0,1,46,15Z"></path><rect x="45" y="2" width="2" height="2"></rect><rect x="39.5" y="3.473" width="2" height="2" transform="translate(3.188 20.846) rotate(-29.995)"></rect><rect x="35.473" y="7.5" width="2" height="2" transform="translate(10.878 35.839) rotate(-60.005)"></rect><rect x="34" y="13" width="2" height="2"></rect><rect x="35.473" y="18.5" width="2" height="2" transform="translate(-4.864 20.845) rotate(-29.995)"></rect><rect x="54.526" y="18.5" width="2" height="2" transform="translate(10.879 57.841) rotate(-60.005)"></rect><rect x="56" y="13" width="2" height="2"></rect><rect x="54.526" y="7.5" width="2" height="2" transform="translate(3.187 28.897) rotate(-29.995)"></rect><rect x="50.5" y="3.473" width="2" height="2" transform="translate(21.88 46.84) rotate(-60.005)"></rect><path d="M45,35H29v2H46a1,1,0,0,0,1-1V31H45Z"></path><path d="M17,28.1V26H15v2.1a5,5,0,1,0,2,0ZM16,36a2.993,2.993,0,0,1-1-5.816V33h2V30.184A2.993,2.993,0,0,1,16,36Z"></path><rect x="29" y="31" width="2" height="2"></rect><rect x="33" y="31" width="2" height="2"></rect><rect x="37" y="31" width="2" height="2"></rect><rect x="41" y="31" width="2" height="2"></rect><path d="M24.76,21.11l-.3-.89A9.129,9.129,0,0,1,24,17.38V5a3.009,3.009,0,0,0-3-3H11A3.009,3.009,0,0,0,8,5V17.38a9.129,9.129,0,0,1-.46,2.84l-.3.89A3,3,0,0,0,5,24V40a3,3,0,0,0,2.24,2.89l.3.89A9.129,9.129,0,0,1,8,46.62V59a3.009,3.009,0,0,0,3,3H21a3.009,3.009,0,0,0,3-3V46.62a9.129,9.129,0,0,1,.46-2.84l.3-.89A3,3,0,0,0,27,40V24A3,3,0,0,0,24.76,21.11ZM9.44,20.86A11.165,11.165,0,0,0,10,17.38V5a1,1,0,0,1,1-1H21a1,1,0,0,1,1,1V17.38a11.165,11.165,0,0,0,.56,3.48l.05.14H9.39ZM22.56,43.14A11.165,11.165,0,0,0,22,46.62V59a1,1,0,0,1-1,1H11a1,1,0,0,1-1-1V46.62a11.165,11.165,0,0,0-.56-3.48L9.39,43H22.61ZM25,40a1,1,0,0,1-1,1H8a1,1,0,0,1-1-1V24a1,1,0,0,1,1-1H24a1,1,0,0,1,1,1Z"></path><rect x="15" y="46" width="2" height="2"></rect><rect x="15" y="50" width="2" height="2"></rect><rect x="15" y="54" width="2" height="2"></rect></g></svg>