<svg xmlns="http://www.w3.org/2000/svg" viewBox="0 0 64 64" x="0px" y="0px"><g><path d="M57.89,42.55,55,36.76V33a1,1,0,0,0-1-1H46a1,1,0,0,0-1,1v3.76l-.87,1.74a8.667,8.667,0,0,0-2.44-1.2L36,35.51V33a.983.983,0,0,0-.43-.82,1,1,0,0,0-.92-.12l-2.65,1V30.79A11.028,11.028,0,0,0,37.95,22H38a4,4,0,0,0,0-8V6a1,1,0,0,0-1-1H34V3a1,1,0,0,0-1-1H23a7.008,7.008,0,0,0-7,7v5a4,4,0,1,0,0,8h.05A11.028,11.028,0,0,0,22,30.79v2.27l-2.65-1a1,1,0,0,0-.92.12A.983.983,0,0,0,18,33v2.52L12.31,37.3A8.941,8.941,0,0,0,6,45.88V61a1,1,0,0,0,1,1H55a.989.989,0,0,0,.99-.89l2-18A.922.922,0,0,0,57.89,42.55ZM38,16a2.006,2.006,0,0,1,2,2,2.015,2.015,0,0,1-2,2ZM16,20a2.015,2.015,0,0,1-2-2,2.006,2.006,0,0,1,2-2ZM14,60H8V45.88a6.964,6.964,0,0,1,4.91-6.68L14,38.86Zm4,0H16V38.24l2-.63ZM33.71,7H36v3.18A3,3,0,0,0,35,10H31.89A7.065,7.065,0,0,0,33.71,7ZM18,9a5,5,0,0,1,5-5h9V5a5,5,0,0,1-5,5H19a3,3,0,0,0-1,.18Zm0,12V13a1,1,0,0,1,1-1H35a1,1,0,0,1,1,1v8a9,9,0,0,1-18,0Zm6,12.81V31.57a10.68,10.68,0,0,0,6,0v2.24l-3,1.12Zm9.36,7.64L27,49.4l-6.36-7.95L27,39.07ZM20,34.44l6,2.25v.62l-6,2.25ZM34,60H20V43.85l6.22,7.77a.991.991,0,0,0,1.56,0L34,43.85Zm0-20.44-6-2.25v-.62l6-2.25ZM47,34h6v2H47Zm-.38,4h6.76l2,4H44.62ZM38,60H36V37.61l2,.63Zm2,0V38.86l1.09.34a7.033,7.033,0,0,1,2.14,1.11l-1.12,2.24a.922.922,0,0,0-.1.56L43.88,60Zm14.1,0H45.9L44.12,44H55.88Z"></path><rect x="26" y="41" width="2" height="2"></rect><rect x="26" y="45" width="2" height="2"></rect><circle cx="23" cy="18" r="2"></circle><circle cx="31" cy="18" r="2"></circle><path d="M30.308,24.75l-1.325-1.5a3.074,3.074,0,0,1-3.966,0l-1.325,1.5a5,5,0,0,0,6.616,0Z"></path></g></svg>