<svg xmlns="http://www.w3.org/2000/svg" viewBox="0 0 64 64" x="0px" y="0px"><g><path d="M45.433,28.463c.076-.076.143-.152.211-.228A6.986,6.986,0,0,0,47.368,24.8a1,1,0,0,1,.944-.813,8,8,0,1,0-8.167-9.462c.3-.011.6-.018.9,0l-.124,2a7.207,7.207,0,0,0-.894,0,8.047,8.047,0,0,0,.385,1.99,5.014,5.014,0,0,1,5.078,5,4.692,4.692,0,0,1-.091.945,4.87,4.87,0,0,1-1.388,2.588L39.4,31.668a8.739,8.739,0,0,1,.194,1.752,9.11,9.11,0,0,1-.064.95ZM44,18h2a1,1,0,0,0,1,1h2a1,1,0,0,0,0-2H47a3,3,0,0,1,0-6V10h2v1a3,3,0,0,1,3,3H50a1,1,0,0,0-1-1H47a1,1,0,0,0,0,2h2a3,3,0,0,1,0,6v1H47V21A3,3,0,0,1,44,18Z"></path><path d="M48,4A12.013,12.013,0,0,0,36,16a11.261,11.261,0,0,0,.091,1.479,11.839,11.839,0,0,0,1.228,3.983,12.06,12.06,0,0,0,4.589,4.866l.7-.7a2.951,2.951,0,0,0,.6-.858A9.983,9.983,0,0,1,38,16c0-.15,0-.3.014-.438a10,10,0,1,1,11.141,10.37,8.944,8.944,0,0,1-.87,2.054A11.995,11.995,0,0,0,48,4Z"></path><path d="M37.59,33.42a6.737,6.737,0,0,0-.243-1.811,6.945,6.945,0,0,0-4.418-4.774L31.3,28.467l0,0a5.027,5.027,0,0,1,2.823,1.413,4.954,4.954,0,0,1,1.3,4.83,4.838,4.838,0,0,1-1.3,2.241l-7.063,7.063A4.877,4.877,0,0,1,24.44,45.4a5.017,5.017,0,0,1-5.842-5.85,1,1,0,0,1,1.381-.73,10.006,10.006,0,0,1,4.8,4.388,2.924,2.924,0,0,0,.846-.6l.7-.7a12.046,12.046,0,0,0-4.862-4.588,11.844,11.844,0,0,0-3.978-1.228A11.383,11.383,0,0,0,16,36,12,12,0,1,0,27.986,48.268a8.934,8.934,0,0,1-2.061.868A9.995,9.995,0,1,1,15.612,38.011l.076,2a8,8,0,1,0,8.166,9.463c-.111,0-.222.015-.333.015-.161,0-.321-.005-.48-.012l.107-2a6.952,6.952,0,0,0,5.075-1.823c.1-.086.166-.147.236-.217l7.074-7.074A6.754,6.754,0,0,0,36.6,36.969,6.838,6.838,0,0,0,37.59,33.42ZM15,47h2a3,3,0,0,1,0,6v1H15V53a3,3,0,0,1-3-3h2a1,1,0,0,0,1,1h2a1,1,0,0,0,0-2H15a3,3,0,0,1,0-6V42h2v1a3,3,0,0,1,3,3H18a1,1,0,0,0-1-1H15a1,1,0,0,0,0,2Z"></path><path d="M43.289,22.458a2.941,2.941,0,0,0-.681-1.056,3,3,0,0,0-1.051-.671A7.969,7.969,0,0,0,43.289,22.458Z"></path><path d="M19.617,34.487a13.731,13.731,0,0,1,2.088.744L24.6,32.338a9.011,9.011,0,0,1-.122-2.71Z"></path><path d="M21.394,42.6a3,3,0,0,0,1.083.7,8.016,8.016,0,0,0-1.78-1.78A2.983,2.983,0,0,0,21.394,42.6Z"></path><path d="M26.655,32.4a6.946,6.946,0,0,0,4.416,4.765L32.7,35.533a.209.209,0,0,1,.014-.017,4.977,4.977,0,0,1-4.133-6.227,4.844,4.844,0,0,1,1.306-2.243l5.341-5.341a13.911,13.911,0,0,1-.744-2.088l-6.02,6.02A6.754,6.754,0,0,0,27.4,27.031,6.94,6.94,0,0,0,26.655,32.4Z"></path></g></svg>