<svg xmlns="http://www.w3.org/2000/svg" viewBox="0 0 64 64" x="0px" y="0px"><g><path d="M30,46V44H27.86a3.673,3.673,0,0,1,.11.74L29.24,46Z"></path><path d="M31.79,52.78a1,1,0,0,0-.01-1.41l-4.35-4.35a3.969,3.969,0,0,1-1.41,1.41l4.35,4.35A.99.99,0,0,0,31.79,52.78Z"></path><circle cx="18" cy="27" r="4"></circle><path d="M36,29a3.009,3.009,0,0,1,3-3H52V11.96H4V43a1,1,0,0,1,1-1H9.38a3.932,3.932,0,0,1,5.24,0h6.76a3.932,3.932,0,0,1,5.24,0H31a1,1,0,0,1,1,1v4a.994.994,0,0,1-.8.96l2,1.99a3,3,0,0,1-4.22,4.27L28.73,56H36ZM8,16h2v2H8ZM18,37A10,10,0,1,1,28,27,10.011,10.011,0,0,1,18,37Zm15,1H29V36h4Zm0-4H29V32h4Zm0-12H29V20h4Zm0-4H29V16h4Z"></path><circle cx="24" cy="45" r="2"></circle><path d="M18,33a5.961,5.961,0,0,1-3.471-1.115L13.1,33.312A7.981,7.981,0,0,0,25.931,28H23.91A6.006,6.006,0,0,1,18,33Z"></path><path d="M19,19.069V21.09A6.008,6.008,0,0,1,23.91,26h2.021A8.008,8.008,0,0,0,19,19.069Z"></path><path d="M12,27a6.006,6.006,0,0,1,5-5.91V19.069A7.98,7.98,0,0,0,11.688,31.9l1.427-1.426A5.961,5.961,0,0,1,12,27Z"></path><path d="M8.57,47.02,4.22,51.37A.911.911,0,0,0,4,51.7v.75a1.044,1.044,0,0,0,.22.34.987.987,0,0,0,1.41-.01l4.35-4.35A3.969,3.969,0,0,1,8.57,47.02Z"></path><path d="M4.83,55.06A2.983,2.983,0,0,0,7,56h.27l-.25-1.78a3,3,0,0,1-2.09.85C4.9,55.07,4.86,55.06,4.83,55.06Z"></path><path d="M23.74,48.97A3.971,3.971,0,0,1,21.38,48H14.62a3.971,3.971,0,0,1-2.36.97L8.79,52.45l.95,6.69a1.009,1.009,0,0,0,.99.86H25.27a1.009,1.009,0,0,0,.99-.87l.95-6.68ZM13.008,58.124l-1-8,1.984-.248,1,8ZM19,58H17V50h2Zm3.992.124-1.984-.248,1-8,1.984.248Z"></path><path d="M20.14,46a3.641,3.641,0,0,1,0-2H15.86a3.641,3.641,0,0,1,0,2Z"></path><path d="M4,47v1.76l.8-.8A.994.994,0,0,1,4,47Z"></path><circle cx="12" cy="45" r="2"></circle><path d="M8.14,44H6v2h.76l1.27-1.26A3.673,3.673,0,0,1,8.14,44Z"></path><path d="M4,9.96H52V7a3.009,3.009,0,0,0-3-3H7A3.009,3.009,0,0,0,4,7ZM16,6h2V8H16ZM12,6h2V8H12ZM8,6h2V8H8Z"></path><rect x="42" y="51" width="6" height="5"></rect><path d="M39,60H59a1,1,0,0,0,1-1V29a1,1,0,0,0-1-1H39a1,1,0,0,0-1,1V59A1,1,0,0,0,39,60Zm1-28a2,2,0,0,1,2-2H56a2,2,0,0,1,2,2v6a2,2,0,0,1-2,2H42a2,2,0,0,1-2-2Zm0,12a2,2,0,0,1,2-2H56a2,2,0,0,1,2,2V56a2,2,0,0,1-2,2H42a2,2,0,0,1-2-2Z"></path><rect x="50" y="44" width="6" height="5"></rect><path d="M56,32H42v6H56ZM46,36H44V34h2Zm4,0H48V34h2Zm4,0H52V34h2Z"></path><rect x="42" y="44" width="6" height="5"></rect><rect x="50" y="51" width="6.001" height="5"></rect></g></svg>