<svg xmlns="http://www.w3.org/2000/svg" viewBox="0 0 64 64" x="0px" y="0px"><g data-name="Speech Bubble"><path d="M50,19h-.083A6.01,6.01,0,0,0,44,14a5.783,5.783,0,0,0-2.008.362,11.991,11.991,0,0,0-19.984,0A5.783,5.783,0,0,0,20,14a6.01,6.01,0,0,0-5.917,5H14a12,12,0,1,0,.181,24L12.02,53.8a1,1,0,0,0,1.521,1.037l12.024-7.73A11.863,11.863,0,0,0,32,49a11.989,11.989,0,0,0,8.507-3.55A5.94,5.94,0,0,0,43,46a6.02,6.02,0,0,0,5.252-3.131A11.873,11.873,0,0,0,50,43a12,12,0,0,0,0-24Zm0,22a10.109,10.109,0,0,1-2.12-.23,1,1,0,0,0-1.148.626,3.967,3.967,0,0,1-5.888,1.963,1,1,0,0,0-1.3.186A9.992,9.992,0,0,1,32,47a9.892,9.892,0,0,1-5.833-1.9,1,1,0,0,0-1.126-.031l-10.6,6.812L16.4,42.092a1,1,0,0,0-.98-1.2.974.974,0,0,0-.132.008A9.536,9.536,0,0,1,14,41a10,10,0,0,1,0-20c.309,0,.613.019.914.046a1,1,0,0,0,1.091-1c0-.027,0-.061,0-.094A4,4,0,0,1,20,16a3.944,3.944,0,0,1,1.917.514,1,1,0,0,0,1.355-.387,9.993,9.993,0,0,1,17.456,0,1,1,0,0,0,1.355.387A3.944,3.944,0,0,1,44,16a4.005,4.005,0,0,1,4,3.956c0,.033-.005.068-.005.095a1,1,0,0,0,1.091,1c.3-.027.605-.046.914-.046a10,10,0,0,1,0,20Z"></path><rect x="17" y="36" width="2" height="2"></rect><rect x="21" y="36" width="2" height="2"></rect><rect x="25" y="36" width="22" height="2"></rect><rect x="17" y="32" width="14" height="2"></rect><rect x="33" y="32" width="2" height="2"></rect><rect x="37" y="32" width="10" height="2"></rect><rect x="17" y="28" width="30" height="2"></rect><rect x="17" y="24" width="8" height="2"></rect><rect x="27" y="24" width="2" height="2"></rect><rect x="31" y="24" width="2" height="2"></rect><rect x="35" y="24" width="12" height="2"></rect></g></svg>