<svg xmlns="http://www.w3.org/2000/svg" viewBox="0 0 64 64" x="0px" y="0px"><g data-name="Inheritance Law"><path d="M43,51a2,2,0,0,0,0-4H31a1,1,0,0,1-.316-.051l-3.845-1.282A12.993,12.993,0,0,0,22.729,45h-.851a13,13,0,0,0-6.689,1.853l-1.674,1A1,1,0,0,1,13,48H12V58h7.531a9.026,9.026,0,0,1,1.052.062l11.921,1.4a13.1,13.1,0,0,0,8.018-1.652L58.15,47.634a1.983,1.983,0,0,0,1-1.734,2,2,0,0,0-3-1.731l-9.194,5.306A3.992,3.992,0,0,1,43,53H28V51Z"></path><rect x="4" y="47" width="6" height="12"></rect><path d="M17,39H47a1,1,0,0,0,0-2,2,2,0,0,1-2-2V24a9.01,9.01,0,0,0-9-9H28a9.01,9.01,0,0,0-9,9V35a2,2,0,0,1-2,2,1,1,0,0,0,0,2ZM37,27h2v2H37Zm-5,1a2.993,2.993,0,0,1-1-5.816V20h2v2.184A3,3,0,0,1,35,25H33a1,1,0,1,0-1,1,2.993,2.993,0,0,1,1,5.816V34H31V31.816A3,3,0,0,1,29,29h2a1,1,0,1,0,1-1Zm-7-1h2v2H25Z"></path><path d="M34,13a1,1,0,0,0,0-2H30a1,1,0,0,0,0,2Z"></path><polygon points="30.58 9 33.42 9 36.276 4 27.724 4 30.58 9"></polygon></g></svg>