<svg xmlns="http://www.w3.org/2000/svg" viewBox="0 0 64 64" x="0px" y="0px"><g><path d="M30,13H4a2.006,2.006,0,0,0-2,2V29a2.006,2.006,0,0,0,2,2h6v2.27l-.13-.23a3,3,0,1,0-5.2,3L11,47V62h2V57H24.66L25,62.07l2-.14-.35-5.19A.971.971,0,0,0,27,56V48a1,1,0,0,0-.89-.98l1.78-3.57A1,1,0,0,0,28,43V31h2a2.006,2.006,0,0,0,2-2V15A2.006,2.006,0,0,0,30,13ZM4,15H6.86A4.017,4.017,0,0,1,4,17.86ZM4,29V26.14A4.017,4.017,0,0,1,6.86,29ZM25,55H13V49H25Zm1-12.24-1.89,3.79a1.018,1.018,0,0,0-.1.45H13v-.27a1.094,1.094,0,0,0-.13-.5L6.4,35.04a1.01,1.01,0,0,1,.37-1.37.988.988,0,0,1,1.36.37l2,3.46A1,1,0,0,0,11,38h1a4,4,0,0,1,4,4v1h2V42a6,6,0,0,0-6-6V31h2v2a1,1,0,0,0,2,0V31h2v2a1,1,0,0,0,2,0V31h2v2a1,1,0,0,0,2,0V31h2ZM30,29H27.14A4.017,4.017,0,0,1,30,26.14Zm0-4.91A5.992,5.992,0,0,0,25.09,29H8.91A5.992,5.992,0,0,0,4,24.09V19.91A5.992,5.992,0,0,0,8.91,15H25.09A5.992,5.992,0,0,0,30,19.91Zm0-6.23A4.017,4.017,0,0,1,27.14,15H30Z"></path><path d="M17,17a5,5,0,1,0,5,5A5.006,5.006,0,0,0,17,17Zm0,8a3,3,0,1,1,3-3A3,3,0,0,1,17,25Z"></path><path d="M60,33H54V30.73l.13.23a3.019,3.019,0,0,0,2.61,1.5,3,3,0,0,0,2.59-4.5L53,17V2H51V7H39.34L39,1.93l-2,.14.35,5.19A.971.971,0,0,0,37,8v8a1,1,0,0,0,.89.98l-1.78,3.57A1,1,0,0,0,36,21V33H34a2.006,2.006,0,0,0-2,2V49a2.006,2.006,0,0,0,2,2H60a2.006,2.006,0,0,0,2-2V35A2.006,2.006,0,0,0,60,33ZM39,9H51v6H39ZM38,21.24l1.89-3.79a1.018,1.018,0,0,0,.1-.45H51v.27a1.094,1.094,0,0,0,.13.5L57.6,28.96a1.01,1.01,0,0,1-.37,1.37.988.988,0,0,1-1.36-.37l-2-3.46A1,1,0,0,0,53,26H52a4,4,0,0,1-4-4V21H46v1a6,6,0,0,0,6,6v5H50V31a1,1,0,0,0-2,0v2H46V31a1,1,0,0,0-2,0v2H42V31a1,1,0,0,0-2,0v2H38ZM34,35h2.86A4.017,4.017,0,0,1,34,37.86Zm0,14V46.14A4.017,4.017,0,0,1,36.86,49Zm26,0H57.14A4.017,4.017,0,0,1,60,46.14Zm0-4.91A5.992,5.992,0,0,0,55.09,49H38.91A5.992,5.992,0,0,0,34,44.09V39.91A5.992,5.992,0,0,0,38.91,35H55.09A5.992,5.992,0,0,0,60,39.91Zm0-6.23A4.017,4.017,0,0,1,57.14,35H60Z"></path><path d="M47,37a5,5,0,1,0,5,5A5.006,5.006,0,0,0,47,37Zm0,8a3,3,0,1,1,3-3A3,3,0,0,1,47,45Z"></path><rect x="21" y="51" width="2" height="2"></rect><rect x="41" y="11" width="2" height="2"></rect></g></svg>