<svg xmlns="http://www.w3.org/2000/svg" viewBox="0 0 64 64" x="0px" y="0px"><g><rect x="31" y="24" width="2" height="17"></rect><polygon points="25 22 30 22 34 22 39.001 22 39 16 25 16 25 22"></polygon><path d="M34,6a2,2,0,0,0-4,0v8h4Z"></path><path d="M35,24V41h8V39a5.028,5.028,0,0,0-1-3l-4-5.333a5.032,5.032,0,0,1-1-3V24Z"></path><path d="M21,59a1,1,0,0,0,1,1H42a1,1,0,0,0,1-1V43H35v4a3,3,0,0,1-6,0V43H21Z"></path><path d="M21,41h8V24H27v3.667a5.032,5.032,0,0,1-1,3L22,36a5.028,5.028,0,0,0-1,3Z"></path><path d="M31,47a1,1,0,0,0,2,0V43H31Z"></path></g></svg>