<svg xmlns="http://www.w3.org/2000/svg" viewBox="0 0 64 64" x="0px" y="0px"><g data-name="Coffee Cup-Coffee-Take Away-Drink-Hand"><path d="M47,41h4a2,2,0,0,0,0-4H47a2,2,0,0,0,0,4Z"></path><path d="M47,35h4a2,2,0,0,0,0-4H47a2,2,0,0,0,0,4Z"></path><path d="M51,43H47a2,2,0,0,0,0,4h4a2,2,0,0,0,0-4Z"></path><path d="M33.59,58l-3.01,3H3V58.42l6.71-6.71A1.033,1.033,0,0,0,10,51V20h2a2.006,2.006,0,0,1,2,2v8a1,1,0,0,0,.14.51l.51.84A16.54,16.54,0,0,1,17,39.85a16.632,16.632,0,0,1-3.62,10.33l-.16.2,1.56,1.24.09-.1.08,3.56a3.026,3.026,0,0,0,3,2.92Z"></path><polygon points="47.15 4 16.85 4 16.18 8 47.82 8 47.15 4"></polygon><path d="M45,27a2.006,2.006,0,0,0,2,2h4a2,2,0,0,0,0-4H47A2.006,2.006,0,0,0,45,27Z"></path><path d="M30.758,41.866c.182-.194.358-.4.546-.584.947-.95,1.7-1.7,1.7-3.282s-.753-2.339-1.707-3.293A6.192,6.192,0,0,1,29,30a5.534,5.534,0,0,1,1.43-3.79c-3.105.818-5.43,4-5.43,7.79C25,37.926,27.49,41.193,30.758,41.866Z"></path><path d="M47,23h.81l.17-7H16.02l.34,14.33A18.484,18.484,0,0,1,19,39.85a18.548,18.548,0,0,1-2.2,8.74l.15,6.44a1,1,0,0,0,1,.97h28.1a1.006,1.006,0,0,0,1-.98L47.2,49H47a3.985,3.985,0,0,1-2.62-7,3.951,3.951,0,0,1,0-6,3.951,3.951,0,0,1,0-6A3.985,3.985,0,0,1,47,23ZM32,44c-4.96,0-9-4.49-9-10s4.04-10,9-10,9,4.49,9,10S36.96,44,32,44Z"></path><rect x="14" y="10" width="36" height="4"></rect><path d="M35,38a5.534,5.534,0,0,1-1.43,3.79c3.1-.818,5.43-4,5.43-7.79,0-3.926-2.49-7.193-5.758-7.866-.182.194-.358.395-.546.584-.947.95-1.7,1.7-1.7,3.282s.753,2.339,1.707,3.293A6.192,6.192,0,0,1,35,38Z"></path></g></svg>