<svg xmlns="http://www.w3.org/2000/svg" viewBox="0 0 64 64" x="0px" y="0px"><g data-name="Computer Game-PC-Gaming-Keyboard-Fighting Game"><path d="M42.768,50.359A1,1,0,0,0,42,50H8a1,1,0,0,0-.768.359l-5,6A1,1,0,0,0,2,57v4a1,1,0,0,0,1,1H47a1,1,0,0,0,1-1V57a1,1,0,0,0-.232-.641ZM8.468,52H41.532l3.333,4H5.135ZM4,60V58H46v2Z"></path><rect x="9" y="53" width="2" height="2"></rect><rect x="13" y="53" width="2" height="2"></rect><rect x="35" y="53" width="2" height="2"></rect><rect x="17" y="53" width="16" height="2"></rect><rect x="39" y="53" width="2" height="2"></rect><rect x="40" y="33" width="2" height="2"></rect><path d="M61,10H48V9a3.009,3.009,0,0,0-3-3H35.48l.7-2.8a.985.985,0,0,0-.26-.95,1.01,1.01,0,0,0-.95-.26L29.32,3.4a1.04,1.04,0,0,0-.51.31L26.77,6H23.23L21.19,3.71a1.011,1.011,0,0,0-.5-.31L15.03,1.99A.994.994,0,0,0,13.82,3.2l.7,2.8H5A3.009,3.009,0,0,0,2,9V35a3.009,3.009,0,0,0,3,3H19v4H15a1,1,0,0,0-1,1v4a1,1,0,0,0,1,1H35a1,1,0,0,0,1-1V43a1,1,0,0,0-1-1H31V38h7v9a1,1,0,0,0,1,1H61a1,1,0,0,0,1-1V11A1,1,0,0,0,61,10ZM30.1,5.27l3.74-.94L32.9,8.08l-4.37,3.89L26.34,9.5Zm-10.2,0L30.38,17.06l-.31.32-1.18,1.17L17.1,8.07l-.94-3.74ZM30.34,22.76l-1.41-1.42,4.24-4.24,1.42,1.41Zm7.07,1.41L36,25.59l-2.83-2.83,1.42-1.42Zm-22-5.66,1.42-1.41,4.24,4.24-1.41,1.42Zm1.42,4.25L14,25.59l-1.41-1.42,2.82-2.83Zm2.79-5.7,2.02-2.27,1.86,1.65-2.39,2.12ZM4,9A1,1,0,0,1,5,8H15.02l.21.86a1.011,1.011,0,0,0,.31.5l4.6,4.1L18.2,15.64l-.66-.66a1.008,1.008,0,0,0-1.42,0l-2.83,2.83a1,1,0,0,0,0,1.41l.71.71-3.54,3.53a1.052,1.052,0,0,0-.29.71,1.033,1.033,0,0,0,.29.71l2.83,2.83a1.014,1.014,0,0,0,1.42,0l3.53-3.54.71.71a.99.99,0,0,0,.71.29.967.967,0,0,0,.7-.29l2.83-2.83a1,1,0,0,0,0-1.41l-.66-.67L25,17.78l2.47,2.19-.66.67a1,1,0,0,0,0,1.41l2.83,2.83a.967.967,0,0,0,.7.29.99.99,0,0,0,.71-.29l.71-.71,3.53,3.54a1.014,1.014,0,0,0,1.42,0l2.83-2.83a1.033,1.033,0,0,0,.29-.71,1.052,1.052,0,0,0-.29-.71L36,19.93l.71-.71a1,1,0,0,0,0-1.41l-2.83-2.83a1.008,1.008,0,0,0-1.42,0l-.66.66-1.94-2.18,4.6-4.09a1.04,1.04,0,0,0,.31-.51L34.98,8H45a1,1,0,0,1,1,1V30H4ZM34,44v2H16V44ZM21,42V38h8v4ZM5,36a1,1,0,0,1-1-1V32H46v3a1,1,0,0,1-1,1ZM60,46H40V38H60Zm0-10H47.82A3,3,0,0,0,48,35V33.44A3.906,3.906,0,0,0,50,34a4,4,0,0,0,3.86-3H60ZM48,30a2,2,0,1,1,2,2A2.006,2.006,0,0,1,48,30Zm12-1H53.86A4,4,0,0,0,50,26a3.906,3.906,0,0,0-2,.56V12H60Z"></path><rect x="56" y="16" width="2" height="4"></rect><rect x="52" y="16" width="2" height="4"></rect><path d="M59,54H53a3,3,0,0,0-3,3v4a1,1,0,0,0,1,1H61a1,1,0,0,0,1-1V57A3,3,0,0,0,59,54Zm1,6H52V57a1,1,0,0,1,1-1h6a1,1,0,0,1,1,1Z"></path></g></svg>