<svg xmlns="http://www.w3.org/2000/svg" viewBox="0 0 64 64" x="0px" y="0px"><g><path d="M32.926,13.624a1,1,0,0,0-1.852,0l-13,32a1,1,0,0,0,1.45,1.228L32,39.174l12.476,7.678a1,1,0,0,0,1.45-1.228ZM31,19.118V37.441l-9.925,6.108Zm2,18.323V19.118l9.925,24.431Z"></path><path d="M32,6A26,26,0,1,0,58,32,26.03,26.03,0,0,0,32,6Zm0,50A24,24,0,1,1,56,32,24.028,24.028,0,0,1,32,56Z"></path><path d="M32,2A30,30,0,1,0,62,32,30.034,30.034,0,0,0,32,2Zm0,58A28,28,0,1,1,60,32,28.032,28.032,0,0,1,32,60Z"></path></g></svg>