<svg xmlns="http://www.w3.org/2000/svg" viewBox="0 0 64 64" x="0px" y="0px"><title>Sign</title><g><path d="M59,33H35V29H54a1,1,0,0,0,.848-.47l5-8a1,1,0,0,0,0-1.06l-5-8A1,1,0,0,0,54,11H35V8h1a1,1,0,0,0,1-1V3a1,1,0,0,0-1-1H28a1,1,0,0,0-1,1V7a1,1,0,0,0,1,1h1v3H6a1,1,0,0,0-1,1V28a1,1,0,0,0,1,1H29v4H11a1,1,0,0,0-.848.47l-5,8a1,1,0,0,0,0,1.06l5,8A1,1,0,0,0,11,51H29V61a1,1,0,0,0,1,1h4a1,1,0,0,0,1-1V51H59a1,1,0,0,0,1-1V34A1,1,0,0,0,59,33ZM29,4h6V6H29Zm2,4h2v3H31ZM7,13H53.446l4.375,7-4.375,7H7ZM31,29h2v4H31Zm2,31H31V51h2ZM58,49H11.554L7.179,42l4.375-7H58Z"></path></g></svg>