<svg xmlns="http://www.w3.org/2000/svg" viewBox="0 0 64 64" x="0px" y="0px"><g><path d="M38,23H29a3.961,3.961,0,0,1-1.611-.345A4.939,4.939,0,0,1,28,25a5,5,0,1,1-5-5,4.939,4.939,0,0,1,2.345.611A3.9,3.9,0,0,1,25.556,17H19.342a3.933,3.933,0,0,1-4.684,0H8V33H38ZM14,31H11a1,1,0,0,1-1-1V27h2v2h2Zm0-10H12v2H10V20a1,1,0,0,1,1-1h3Zm22,9a1,1,0,0,1-1,1H32V29h2V27h2Z"></path><rect x="54" y="10" width="6" height="12"></rect><path d="M52,12H50.657a4.968,4.968,0,0,1-3.536-1.464L44.8,8.217A10.93,10.93,0,0,0,37.035,5l-10.718-.01h-.006a6.954,6.954,0,0,0-4.95,2.05L15.7,12.694a1.834,1.834,0,0,0,0,2.595,1.878,1.878,0,0,0,2.594,0l4.824-4.825A4.968,4.968,0,0,1,26.657,9H33a4,4,0,0,1,0,8H29a2,2,0,0,0,0,4H52Z"></path><circle cx="23" cy="25" r="3"></circle><path d="M40,41V39H7a3,3,0,0,0,0,6H40V43H7V41Z"></path><path d="M40,47H7a4.948,4.948,0,0,1-3-1.026V60H40V59H34a5,5,0,0,1,0-10h6Z"></path><path d="M31,54a3,3,0,0,0,3,3h6V51H34A3,3,0,0,0,31,54Zm4,1H33V53h2Z"></path></g></svg>