<svg xmlns="http://www.w3.org/2000/svg" viewBox="0 0 64 64" x="0px" y="0px"><g data-name="Road Sign"><path d="M59,2H5A3,3,0,0,0,2,5V33a3,3,0,0,0,3,3H7V56H4a1,1,0,0,0-1,1v4a1,1,0,0,0,1,1H16a1,1,0,0,0,1-1V57a1,1,0,0,0-1-1H13V36H51V56H48a1,1,0,0,0-1,1v4a1,1,0,0,0,1,1H60a1,1,0,0,0,1-1V57a1,1,0,0,0-1-1H57V36h2a3,3,0,0,0,3-3V5A3,3,0,0,0,59,2ZM15,60H5V58H15Zm-4-4H9V36h2Zm48,4H49V58H59Zm-4-4H53V36h2Zm5-23a1,1,0,0,1-1,1H5a1,1,0,0,1-1-1V5A1,1,0,0,1,5,4H59a1,1,0,0,1,1,1Z"></path><path d="M27,28H45a5.006,5.006,0,0,0,5-5V18h2a1,1,0,0,0,.707-1.707l-6-6a1,1,0,0,0-1.414,0l-6,6A1,1,0,0,0,40,18h2v2H27a1,1,0,0,0-1,1v6A1,1,0,0,0,27,28Zm1-6H42a2,2,0,0,0,2-2V17a1,1,0,0,0-1-1h-.586L46,12.414,49.586,16H49a1,1,0,0,0-1,1v6a3,3,0,0,1-3,3H28Z"></path><rect x="12" y="25" width="2" height="2"></rect><rect x="16" y="25" width="2" height="2"></rect><rect x="20" y="25" width="2" height="2"></rect><rect x="12" y="21" width="2" height="2"></rect><rect x="16" y="21" width="2" height="2"></rect><rect x="20" y="21" width="2" height="2"></rect><path d="M57,6H7A1,1,0,0,0,6,7V31a1,1,0,0,0,1,1H57a1,1,0,0,0,1-1V7A1,1,0,0,0,57,6ZM56,30H8V8H56Z"></path></g></svg>