<svg xmlns="http://www.w3.org/2000/svg" viewBox="0 0 64 64" x="0px" y="0px"><path d="M53,6h6a1,1,0,0,0,0-2H53a1,1,0,0,0,0,2Z"></path><circle cx="10" cy="58" r="2"></circle><circle cx="40" cy="58" r="2"></circle><path d="M5,54H47a1,1,0,0,0,1-1V52H5a1,1,0,0,0,0,2Z"></path><path d="M48,50H46V7a1,1,0,0,1,.1-.447l1-2A1,1,0,0,1,48,4h2V6H48.618L48,7.236Z"></path><circle cx="24" cy="23" r="1"></circle><path d="M43,41a1,1,0,0,0-1-1H6a1,1,0,0,0,0,2H42A1,1,0,0,0,43,41Z"></path><polygon points="39.219 46 39.719 44 8.28 44 8.78 46 39.219 46"></polygon><path d="M24,26A15,15,0,0,0,9.315,38H38.693A15.023,15.023,0,0,0,24,26Z"></path></svg>