<svg xmlns="http://www.w3.org/2000/svg" viewBox="0 0 64 64" x="0px" y="0px"><g data-name="Smart Washing Machine-Internet of Things-App-Internet-Smartphone"><path d="M59,2H13a3.009,3.009,0,0,0-3,3V26H7a5,5,0,0,0-5,5V57a5,5,0,0,0,5,5H59a3.009,3.009,0,0,0,3-3V5A3.009,3.009,0,0,0,59,2ZM24,57a3.009,3.009,0,0,1-3,3H7a3.009,3.009,0,0,1-3-3V54H24Zm0-5H4V34H24Zm0-20H4V31a3.009,3.009,0,0,1,3-3H21a3.009,3.009,0,0,1,3,3Zm21,1a3,3,0,0,0-3,3,3.009,3.009,0,0,0,3,3h.54a10,10,0,1,1,0-6Zm.95,2c.03.33.05.66.05,1s-.02.67-.05,1H45a1,1,0,0,1-1-1,.949.949,0,0,1,.31-.71A.928.928,0,0,1,45,35ZM36,48A12,12,0,1,0,25.81,29.7a4.96,4.96,0,0,0-1.06-1.97A13.994,13.994,0,1,1,26,45.76V42.62A11.992,11.992,0,0,0,36,48ZM60,59a1,1,0,0,1-1,1H24.97A4.924,4.924,0,0,0,26,57V56H60Zm0-5H26V48.45A15.985,15.985,0,1,0,23.14,26.5,4.951,4.951,0,0,0,21,26H12V18H60Zm0-38H12V5a1,1,0,0,1,1-1H59a1,1,0,0,1,1,1Z"></path><path d="M36,14a4,4,0,1,0-4-4A4,4,0,0,0,36,14ZM35,8.278V10h2V8.278a2,2,0,1,1-2,0Z"></path><path d="M45,14H57a1,1,0,0,0,1-1V7a1,1,0,0,0-1-1H45a1,1,0,0,0-1,1v6A1,1,0,0,0,45,14Zm1-6H56v4H46Z"></path><rect x="14" y="9" width="2" height="2"></rect><rect x="18" y="9" width="2" height="2"></rect><rect x="22" y="9" width="2" height="2"></rect><rect x="26" y="9" width="2" height="2"></rect><path d="M10.465,43.464l1.414,1.414a3.074,3.074,0,0,1,4.242,0l1.414-1.414a5,5,0,0,0-7.07,0Z"></path><path d="M9.05,42.05a7.011,7.011,0,0,1,9.9,0l1.414-1.414a9.01,9.01,0,0,0-12.728,0Z"></path><path d="M12.586,46.586,14,48l1.414-1.414A2,2,0,0,0,12.586,46.586Z"></path><rect x="13" y="56" width="2" height="2"></rect></g></svg>