<svg xmlns="http://www.w3.org/2000/svg" viewBox="0 0 64 64" x="0px" y="0px"><g><path d="M54.707,14.293l-12-12A1,1,0,0,0,42,2H14A5.006,5.006,0,0,0,9,7V57a5.006,5.006,0,0,0,5,5H50a5.006,5.006,0,0,0,5-5V15A1,1,0,0,0,54.707,14.293ZM43,5.414,51.586,14H46a3,3,0,0,1-3-3ZM50,60H14a3,3,0,0,1-3-3V7a3,3,0,0,1,3-3H41v7a5.006,5.006,0,0,0,5,5h7V57A3,3,0,0,1,50,60Z"></path><rect x="37" y="24" width="2" height="2"></rect><rect x="41" y="24" width="6" height="2"></rect><rect x="37" y="28" width="10" height="2"></rect><path d="M17,32H31a2,2,0,0,0,2-2V28a6.965,6.965,0,0,0-5.88-6.907A6.879,6.879,0,0,0,26,21H22a6.858,6.858,0,0,0-1.119.093A6.965,6.965,0,0,0,15,28v2A2,2,0,0,0,17,32Zm14-4v2H25v-.8l2.544-5.949A4.963,4.963,0,0,1,31,28Zm-5.521-5L24,26.457,22.521,23ZM17,28a4.963,4.963,0,0,1,3.456-4.744L23,29.205V30H17Z"></path><rect x="27" y="27" width="2" height="2"></rect><path d="M29,16V15a1,1,0,0,0,1-1V13a5.006,5.006,0,0,0-5-5H23a5.006,5.006,0,0,0-5,5v1a1,1,0,0,0,1,1v1a5,5,0,0,0,10,0Zm-6-6h2a3,3,0,0,1,3,3H24.236l-1.789-.895a1.006,1.006,0,0,0-1.154.188L20.586,13H20A3,3,0,0,1,23,10Zm1,9a3,3,0,0,1-3-3V15a1,1,0,0,0,.707-.293l.49-.49,1.356.678A1,1,0,0,0,24,15h3v1A3,3,0,0,1,24,19Z"></path><path d="M48,34H16a1,1,0,0,0-1,1v8a1,1,0,0,0,1,1H48a1,1,0,0,0,1-1V35A1,1,0,0,0,48,34ZM17,36H31v6H17Zm30,6H33V36H47Z"></path><path d="M26,46H16a1,1,0,0,0-1,1v8a1,1,0,0,0,1,1H26a1,1,0,0,0,1-1V47A1,1,0,0,0,26,46Zm-1,8H17V48h8Z"></path><rect x="32" y="46" width="16" height="2"></rect><rect x="32" y="50" width="16" height="2"></rect><rect x="32" y="54" width="16" height="2"></rect></g></svg>