<svg xmlns="http://www.w3.org/2000/svg" viewBox="0 0 64 64" x="0px" y="0px"><title>Basket</title><g><path d="M59,20H51.133L52.992,5.124A.852.852,0,0,0,53,5a3,3,0,0,0-3-3,2.926,2.926,0,0,0-2.108.874A2.936,2.936,0,0,0,47,4.932L45.117,20H18.883L17,4.932A3.015,3.015,0,0,0,14,2a3,3,0,0,0-3,3,.852.852,0,0,0,.008.124L12.867,20H5a3,3,0,0,0-3,3v2a2.981,2.981,0,0,0,1.021,2.237L6.907,60.221A2,2,0,0,0,8.9,62h46.21a2,2,0,0,0,1.987-1.772l3.887-32.991A2.981,2.981,0,0,0,62,25V23A3,3,0,0,0,59,20ZM48.992,5.124A.852.852,0,0,0,49,5a.974.974,0,0,1,.306-.712A.957.957,0,0,1,50,4a1,1,0,0,1,1,.948L49.008,20.876A.852.852,0,0,0,49,21a1,1,0,0,1-1,1,.978.978,0,0,1-.383-.078.791.791,0,0,1-.1-.067.976.976,0,0,1-.211-.142,5.705,5.705,0,0,1-.214-.309,1.013,1.013,0,0,1-.039-.158.972.972,0,0,1-.045-.222ZM14,4a.974.974,0,0,1,.712.306A.957.957,0,0,1,15,5a.852.852,0,0,0,.008.124L17,21.024a.972.972,0,0,1-.045.222.562.562,0,0,1-.167.348,1.031,1.031,0,0,1-.086.119.976.976,0,0,1-.211.142.791.791,0,0,1-.1.067A.978.978,0,0,1,16,22a1,1,0,0,1-1-1,.852.852,0,0,0-.008-.124L13,4.948A1,1,0,0,1,14,4ZM4,23a1,1,0,0,1,1-1h8.171c.016.044.039.083.056.126s.048.112.074.167a3.01,3.01,0,0,0,.179.318c.03.045.056.093.088.137a3.09,3.09,0,0,0,.327.386l.008.01a3.173,3.173,0,0,0,.4.326c.044.03.092.056.138.084a2.94,2.94,0,0,0,.323.173c.056.025.112.048.169.07a2.98,2.98,0,0,0,.355.109c.055.013.108.029.164.04A3.051,3.051,0,0,0,16,24a2.941,2.941,0,0,0,.551-.056c.056-.01.109-.026.164-.04a2.96,2.96,0,0,0,.361-.112c.056-.022.111-.044.166-.069a2.991,2.991,0,0,0,.339-.184c.041-.026.085-.049.125-.076a3.059,3.059,0,0,0,.4-.333c.021-.021.039-.046.06-.068a3.05,3.05,0,0,0,.276-.335c.033-.047.063-.1.093-.145a3.035,3.035,0,0,0,.175-.322c.025-.054.051-.107.073-.163.013-.033.031-.063.043-.1H45.171c.012.034.03.064.044.1.021.056.046.109.071.162a3.142,3.142,0,0,0,.176.323c.03.049.06.1.093.145a3.05,3.05,0,0,0,.276.335c.021.022.039.047.06.068a3.059,3.059,0,0,0,.4.333c.04.027.084.05.125.076a2.991,2.991,0,0,0,.339.184c.055.025.11.047.166.069a3.15,3.15,0,0,0,.361.113c.055.013.108.029.164.039A2.941,2.941,0,0,0,48,24a3.051,3.051,0,0,0,.545-.054c.056-.011.109-.027.164-.04a2.98,2.98,0,0,0,.355-.109c.057-.022.113-.045.169-.07a2.94,2.94,0,0,0,.323-.173c.046-.028.094-.054.138-.084a3.173,3.173,0,0,0,.4-.326l.008-.01a3.09,3.09,0,0,0,.327-.386c.032-.044.058-.092.088-.137a3.01,3.01,0,0,0,.179-.318c.026-.055.051-.111.074-.167s.04-.082.056-.126H59a1,1,0,0,1,1,1v2a1,1,0,0,1-1,1H5a1,1,0,0,1-1-1ZM55.105,60,8.9,59.993,5.125,28h53.75l-3.77,32h0"></path><path d="M32,58a3,3,0,0,0,3-3V33a3,3,0,0,0-6,0V55A3,3,0,0,0,32,58ZM31,33a1,1,0,0,1,2,0V55a1,1,0,0,1-2,0Z"></path><path d="M41,58a2.993,2.993,0,0,0,3-2.955L45,33a3,3,0,0,0-6-.045L38,55A3,3,0,0,0,41,58Zm0-25a1,1,0,0,1,2-.045L42,55a1,1,0,0,1-2,.045Z"></path><path d="M50,58a2.98,2.98,0,0,0,3-2.91L55,33a3,3,0,0,0-6-.09L47,55A3,3,0,0,0,50,58Zm1-25a1,1,0,0,1,2-.09L51,55a1,1,0,0,1-2,.09Z"></path><path d="M23,58a3.012,3.012,0,0,0,3-3.045L25,33a3,3,0,1,0-6,.045L20,55A3,3,0,0,0,23,58ZM22,32a1.014,1.014,0,0,1,1,1.045L24,55a1,1,0,0,1-1,1,1.014,1.014,0,0,1-1-1.045L21,33A1,1,0,0,1,22,32Z"></path><path d="M14,58a3.018,3.018,0,0,0,3-3.09L15,33a3,3,0,1,0-6,.09L11,55A3,3,0,0,0,14,58ZM12,32a1.03,1.03,0,0,1,1,1.09L15,55a1,1,0,0,1-1,1,1.03,1.03,0,0,1-1-1.09L11,33A1,1,0,0,1,12,32Z"></path></g></svg>