<svg xmlns="http://www.w3.org/2000/svg" viewBox="0 0 64 64" x="0px" y="0px"><title>Browser_6</title><g data-name="Browser"><path d="M2,2V62H62V2ZM60,4v6H4V4ZM4,60V12H60V60Z"></path><rect x="6" y="6" width="2" height="2"></rect><rect x="10" y="6" width="2" height="2"></rect><rect x="14" y="6" width="2" height="2"></rect><rect x="56" y="6" width="2" height="2"></rect><path d="M8,26H56V16H8Zm2-8H54v6H10Z"></path><path d="M25,40H39V30H25Zm2-8H37v6H27Z"></path><path d="M8,40H22V30H8Zm2-8H20v6H10Z"></path><path d="M42,40H56V30H42Zm2-8H54v6H44Z"></path><rect x="8" y="44" width="2" height="2"></rect><rect x="12" y="44" width="10" height="2"></rect><rect x="8" y="48" width="14" height="2"></rect><rect x="8" y="52" width="14" height="2"></rect><rect x="25" y="44" width="2" height="2"></rect><rect x="29" y="44" width="10" height="2"></rect><rect x="25" y="48" width="14" height="2"></rect><rect x="25" y="52" width="14" height="2"></rect><rect x="42" y="44" width="2" height="2"></rect><rect x="46" y="44" width="10" height="2"></rect><rect x="42" y="48" width="14" height="2"></rect><rect x="42" y="52" width="14" height="2"></rect></g></svg>