<svg xmlns="http://www.w3.org/2000/svg" viewBox="0 0 64 64" x="0px" y="0px"><g data-name="Smarthome-Internet of Things-Smart house-Communications-Technology"><polygon points="26 55 38 55 38 61 34 61 34 57 30 57 30 61 26 61 26 55"></polygon><polygon points="40 53 24 53 26 49 38 49 40 53"></polygon><polygon points="47 55 59 55 59 61 55 61 55 57 51 57 51 61 47 61 47 55"></polygon><polygon points="61 53 45 53 47 49 59 49 61 53"></polygon><polygon points="5 55 17 55 17 61 13 61 13 57 9 57 9 61 5 61 5 55"></polygon><polygon points="19 53 3 53 5 49 17 49 19 53"></polygon><rect x="6" y="44" width="2" height="2"></rect><rect x="6" y="40" width="2" height="2"></rect><rect x="6" y="36" width="2" height="2"></rect><rect x="56" y="44" width="2" height="2"></rect><rect x="56" y="40" width="2" height="2"></rect><rect x="56" y="36" width="2" height="2"></rect><rect x="42" y="32" width="2" height="2"></rect><rect x="46" y="32" width="2" height="2"></rect><rect x="50" y="32" width="2" height="2"></rect><rect x="20" y="32" width="2" height="2"></rect><rect x="16" y="32" width="2" height="2"></rect><rect x="12" y="32" width="2" height="2"></rect><path d="M32,24a8,8,0,1,0-8-8A8.009,8.009,0,0,0,32,24Zm0-3-1.414-1.414a2,2,0,0,1,2.828,0Zm2.122-3.121a3,3,0,0,0-4.244,0l-1.414-1.414a5.008,5.008,0,0,1,7.072,0Zm4.242-4.243L36.95,15.05a7.009,7.009,0,0,0-9.9,0l-1.414-1.414A9.009,9.009,0,0,1,38.364,13.636Z"></path><path d="M32,28A12,12,0,1,0,20,16,12.01,12.01,0,0,0,32,28ZM32,6A10,10,0,1,1,22,16,10.011,10.011,0,0,1,32,6Z"></path><path d="M53,36H39V35H33V30H31v5H25v1H11a1,1,0,0,0-1,1v9h2V38H25v1h6v7h2V39h6V38H52v8h2V37A1,1,0,0,0,53,36Z"></path></g></svg>