<svg xmlns="http://www.w3.org/2000/svg" viewBox="0 0 64 64" x="0px" y="0px"><g><path d="M4,34V60H16V34ZM9,58H7V56H9Zm0-4H7V52H9Zm0-4H7V48H9Zm0-4H7V44H9Zm0-4H7V40H9Zm0-4H7V36H9Zm4,20H11V56h2Zm0-4H11V52h2Zm0-4H11V48h2Zm0-4H11V44h2Zm0-4H11V40h2Zm0-4H11V36h2Z"></path><rect x="28" y="50" width="3" height="10"></rect><path d="M60,60V34H48V60ZM55,36h2v2H55Zm0,4h2v2H55Zm0,4h2v2H55Zm0,4h2v2H55Zm0,4h2v2H55Zm0,4h2v2H55ZM51,36h2v2H51Zm0,4h2v2H51Zm0,4h2v2H51Zm0,4h2v2H51Zm0,4h2v2H51Zm0,4h2v2H51Z"></path><rect x="33" y="50" width="3" height="10"></rect><path d="M31,20v4h2V20a1,1,0,0,1,1-1h4V17H34a1,1,0,0,1-1-1V12H31v4a1,1,0,0,1-1,1H26v2h4A1,1,0,0,1,31,20Z"></path><rect x="15" y="4" width="34" height="2"></rect><path d="M18,60h8V49a1,1,0,0,1,1-1H37a1,1,0,0,1,1,1V60h8V8H18Zm5-2H21V56h2Zm0-4H21V52h2Zm0-4H21V48h2Zm20,8H41V56h2Zm0-4H41V52h2Zm0-4H41V48h2ZM24,16a1,1,0,0,1,1-1h4V11a1,1,0,0,1,1-1h4a1,1,0,0,1,1,1v4h4a1,1,0,0,1,1,1v4a1,1,0,0,1-1,1H35v4a1,1,0,0,1-1,1H30a1,1,0,0,1-1-1V21H25a1,1,0,0,1-1-1ZM20,28H44v2H20Zm0,4H44v2H20Zm0,4H44v2H20Zm0,4H44v2H20Zm0,4H44v2H20Z"></path></g></svg>