<svg xmlns="http://www.w3.org/2000/svg" viewBox="0 0 64 64" x="0px" y="0px"><g data-name="Success"><path d="M10,57v2a3,3,0,0,0,3,3H51V60H16V56H51V54H13A3,3,0,0,0,10,57Zm4,3H13a1,1,0,0,1-1-1V57a1,1,0,0,1,1-1h1Z"></path><rect x="18" y="57" width="32" height="2"></rect><path d="M52,45H14v2H49v4H14v2H52a3,3,0,0,0,3-3V48A3,3,0,0,0,52,45Zm1,5a1,1,0,0,1-1,1H51V47h1a1,1,0,0,1,1,1Z"></path><rect x="15" y="48" width="32" height="2"></rect><path d="M16,16h3v5a5.006,5.006,0,0,0,5,5h5v8H24a1,1,0,0,0-1,1v3H20a1,1,0,0,0-1,1v4a1,1,0,0,0,1,1H44a1,1,0,0,0,1-1V39a1,1,0,0,0-1-1H41V35a1,1,0,0,0-1-1H35V26h5a5.006,5.006,0,0,0,5-5V16h3a3,3,0,0,0,3-3V5a3,3,0,0,0-3-3H16a3,3,0,0,0-3,3v8A3,3,0,0,0,16,16ZM43,42H21V40H43Zm-4-4H25V36H39Zm-6-4H31V26h2ZM49,5v8a1,1,0,0,1-1,1H45V4h3A1,1,0,0,1,49,5ZM43,21a3,3,0,0,1-3,3H24a3,3,0,0,1-3-3V4H43ZM15,5a1,1,0,0,1,1-1h3V14H16a1,1,0,0,1-1-1Z"></path></g></svg>