<svg xmlns="http://www.w3.org/2000/svg" viewBox="0 0 64 64" x="0px" y="0px"><g data-name="Space Needle-Landmark-Seattle-Monuments-America"><polygon points="31 45 31 32 29.91 32 28.61 45 31 45"></polygon><polygon points="31 20 28.18 20 29.85 30 31 30 31 20"></polygon><polygon points="33 45 35.39 45 34.09 32 33 32 33 45"></polygon><polygon points="35.82 20 33 20 33 30 34.15 30 35.82 20"></polygon><polygon points="30.78 10 33.22 10 33.72 8 36 8 36 6 33 6 33 2 31 2 31 6 28 6 28 8 30.28 8 30.78 10"></polygon><polygon points="35.59 47 33 47 33 54 31 54 31 47 28.41 47 27.71 54 24 54 24 56 27.51 56 27.11 60 31 60 31 56 33 56 33 60 36.89 60 36.49 56 40 56 40 54 36.29 54 35.59 47"></polygon><path d="M39.33,14l-2.66-2H27.33l-2.66,2H20v2h4.67l2.66,2h9.34l2.66-2H44V14ZM25,16V14H39v2Z"></path><rect x="2" y="60" width="60" height="2"></rect></g></svg>