<svg xmlns="http://www.w3.org/2000/svg" viewBox="0 0 64 64" x="0px" y="0px"><g><path d="M47,4H17a1,1,0,0,0-1,1v5H48V5A1,1,0,0,0,47,4ZM20,8H18V6h2Zm4,0H22V6h2Zm4,0H26V6h2Z"></path><path d="M54,17V44H10V17a1,1,0,0,1,1-1h3V37a3.009,3.009,0,0,0,3,3H47a3.009,3.009,0,0,0,3-3V16h3A1,1,0,0,1,54,17Z"></path><path d="M24.22,24l1.44,7.2a1,1,0,0,0,.98.8H37.36a1,1,0,0,0,.98-.8L39.78,24ZM29,30H27V26h2Zm4,0H31V26h2Zm4,0H35V26h2Z"></path><path d="M16,12V37a1,1,0,0,0,1,1H47a1,1,0,0,0,1-1V12ZM40.3,31.59A3,3,0,0,1,37.36,34H26.64a3,3,0,0,1-2.94-2.41L22.02,23.2a.99.99,0,0,1,.21-.83A.971.971,0,0,1,23,22h2.78l-.76-3.8,1.96-.4.84,4.2h8.36l.84-4.2,1.96.4L38.22,22H41a.971.971,0,0,1,.77.37.99.99,0,0,1,.21.83Z"></path><path d="M54.38,46H9.62l-5,10H23.38l1.73-3.45A.977.977,0,0,1,26,52H38a.977.977,0,0,1,.89.55L40.62,56H59.38ZM19,48h2v2H19Zm-7,6H10V52h2Zm1-4H11V48h2Zm3,4H14V52h2Zm1-4H15V48h2Zm5,4H18V52h4Zm3-4H23V48h2Zm4,0H27V48h2Zm4,0H31V48h2Zm4,0H35V48h2Zm6-2h2v2H43Zm-2,2H39V48h2Zm5,4H42V52h4Zm1-6h2v2H47Zm3,6H48V52h2Zm1-6h2v2H51Zm3,6H52V52h2Z"></path><polygon points="26.618 54 25.618 56 38.382 56 37.382 54 26.618 54"></polygon><rect x="4" y="58" width="56" height="2"></rect></g></svg>