<svg xmlns="http://www.w3.org/2000/svg" viewBox="0 0 64 64" x="0px" y="0px"><g data-name="Graphic Design-Computer-Office-Art-Design"><path d="M55.5,10.67l-1,1.73A3.016,3.016,0,0,1,56,15V40H50V11.9A5,5,0,0,0,49,2H19a5.006,5.006,0,0,0-5,5V40H8V15a3,3,0,0,1,3-3h1V10H11a5.006,5.006,0,0,0-5,5V45a5.006,5.006,0,0,0,5,5H23.867l-.75,6H21a2,2,0,0,0-2,2v2a2,2,0,0,0,2,2H43a2,2,0,0,0,2-2V58a2,2,0,0,0-2-2H40.883l-.75-6H53a5.006,5.006,0,0,0,5-5V15A5.019,5.019,0,0,0,55.5,10.67ZM23,4H49a3,3,0,0,1,0,6H23a4.992,4.992,0,0,0,0-6ZM16,7a3,3,0,1,1,3,3,1,1,0,0,0,0,2H48V40H16ZM43,60H21V58H43Zm-4.133-4H25.133l.75-6H38.117ZM53,48H11a3,3,0,0,1-3-3V42H56v3A3,3,0,0,1,53,48Z"></path><rect x="50" y="44" width="2" height="2"></rect><rect x="28" y="15" width="2" height="2"></rect><rect x="24.5" y="15.938" width="1.999" height="1.999" transform="translate(-5.053 15.024) rotate(-30.009)"></rect><rect x="21.938" y="18.5" width="2" height="2" transform="translate(-5.419 29.614) rotate(-59.998)"></rect><rect x="21" y="22" width="2" height="2"></rect><rect x="21.938" y="25.5" width="2" height="2" transform="translate(-10.177 15.02) rotate(-30.002)"></rect><rect x="24.5" y="28.062" width="1.999" height="1.999" transform="translate(-12.42 36.609) rotate(-59.991)"></rect><rect x="31.5" y="28.062" width="2" height="2" transform="translate(-10.178 20.15) rotate(-30.009)"></rect><rect x="34.062" y="25.5" width="2" height="1.999" transform="translate(-5.421 43.608) rotate(-59.991)"></rect><rect x="34.062" y="18.5" width="1.999" height="2" transform="translate(-5.052 20.15) rotate(-30.009)"></rect><rect x="31.5" y="15.938" width="2" height="2" transform="translate(1.581 36.614) rotate(-59.998)"></rect><path d="M30,24h3V22H29a1,1,0,0,0-1,1v4h2Z"></path><path d="M41,22H39v2h1V34H30V33H28v2a1,1,0,0,0,1,1H41a1,1,0,0,0,1-1V23A1,1,0,0,0,41,22Z"></path><rect x="35" y="22" width="2" height="2"></rect><rect x="28" y="29" width="2" height="2"></rect></g></svg>