<svg xmlns="http://www.w3.org/2000/svg" viewBox="0 0 64 64" x="0px" y="0px"><g data-name="Document"><rect x="17" y="46" width="9" height="8"></rect><rect x="17" y="20" width="30" height="18"></rect><path d="M12,60H52a1,1,0,0,0,1-1V12.846a.99.99,0,0,0-.292-.7L46,5.418V11a1,1,0,0,0,1,1h4v2H47a3,3,0,0,1-3-3V4H12a1,1,0,0,0-1,1V59A1,1,0,0,0,12,60Zm37-6H30V52H49Zm0-4H30V48H49ZM30,46V44h2v2Zm19,0H34V44H49ZM19,8H39v2H19ZM15,8h2v2H15Zm0,4H39v2H15Zm0,7a1,1,0,0,1,1-1H48a1,1,0,0,1,1,1V39a1,1,0,0,1-1,1H16a1,1,0,0,1-1-1Zm0,26a1,1,0,0,1,1-1H27a1,1,0,0,1,1,1V55a1,1,0,0,1-1,1H16a1,1,0,0,1-1-1Z"></path></g></svg>