<svg xmlns="http://www.w3.org/2000/svg" viewBox="0 0 64 64" x="0px" y="0px"><g data-name="Working Desk-Working-Desk-Study-Computer"><path d="M59,30h2a1,1,0,0,0,1-1V25a1,1,0,0,0-1-1H53V22h4a3.009,3.009,0,0,0,3-3V9a3.009,3.009,0,0,0-3-3H41a3.009,3.009,0,0,0-3,3V19a3.009,3.009,0,0,0,3,3h4v2H36a5,5,0,0,0-5-5H23a5,5,0,0,0-5,5H14V13a1,1,0,0,0-1-1H5a1,1,0,0,0-1,1V24H3a1,1,0,0,0-1,1v4a1,1,0,0,0,1,1H5V56H2v2H62V56H59ZM40,9a1,1,0,0,1,1-1H57a1,1,0,0,1,1,1v7H40Zm1,11a1,1,0,0,1-1-1V18H58v1a1,1,0,0,1-1,1Zm10,2v2H47V22ZM20,24a3.009,3.009,0,0,1,3-3h8a3.009,3.009,0,0,1,3,3v8a3.009,3.009,0,0,1-3,3H30V28a1,1,0,0,0-1-1H25a1,1,0,0,0-1,1v7H23a3.009,3.009,0,0,1-3-3ZM34,41a1,1,0,0,1,1,1v1H19V42a1,1,0,0,1,1-1Zm-8-2V29h2V39ZM10,14h2V24H10ZM6,14H8V24H6ZM9,56H7V30H9ZM4,28V26H18v2ZM16.18,56H11V30h7v2a5,5,0,0,0,5,5h1v2H20a3.009,3.009,0,0,0-3,3v2a1,1,0,0,0,1,1h8v3H21a3.009,3.009,0,0,0-3,3v1.18A2.964,2.964,0,0,0,16.18,56ZM19,56a1,1,0,1,1,1-1A1,1,0,0,1,19,56Zm5.18,0H21.82A2.964,2.964,0,0,0,20,52.18V51a1,1,0,0,1,1-1h5v2.18A2.964,2.964,0,0,0,24.18,56ZM27,56a1,1,0,1,1,1-1A1,1,0,0,1,27,56Zm5.18,0H29.82A2.964,2.964,0,0,0,28,52.18V50h5a1,1,0,0,1,1,1v1.18A2.964,2.964,0,0,0,32.18,56ZM35,56a1,1,0,1,1,1-1A1,1,0,0,1,35,56Zm8,0H37.82A2.964,2.964,0,0,0,36,52.18V51a3.009,3.009,0,0,0-3-3H28V45h8a1,1,0,0,0,1-1V42a3.009,3.009,0,0,0-3-3H30V37h1a5,5,0,0,0,5-5V30h7Zm14,0H45V46H57Zm0-12H45V38H57Zm0-8H45V30H57ZM36,28V26H60v2Z"></path><rect x="49" y="32" width="4" height="2"></rect><rect x="49" y="40" width="4" height="2"></rect><rect x="49" y="48" width="4" height="2"></rect></g></svg>