<svg xmlns="http://www.w3.org/2000/svg" viewBox="0 0 64 64" x="0px" y="0px"><g><path d="M50,56a4,4,0,0,1-4,4H18a4,4,0,0,1-4-4V8a4,4,0,0,1,4-4H46a4,4,0,0,1,4,4V36h2V8a6.006,6.006,0,0,0-6-6H18a6.006,6.006,0,0,0-6,6V56a6.006,6.006,0,0,0,6,6H46a6.006,6.006,0,0,0,6-6V50H50Z"></path><path d="M34,58a3,3,0,0,0,0-6H30a3,3,0,0,0,0,6Zm-5-3a1,1,0,0,1,1-1h4a1,1,0,0,1,0,2H30A1,1,0,0,1,29,55Z"></path><rect x="25" y="6" width="2" height="2"></rect><rect x="29" y="6" width="6" height="2"></rect><path d="M53,38H30a1,1,0,0,0-.406.086l-9,4a1,1,0,0,0,0,1.828l9,4A1,1,0,0,0,30,48H53a5,5,0,0,0,0-10Zm-7,4H31V40H46ZM29,45.461l-2-.889V41.428l2-.889ZM31,44H46v2H31Zm17-4h2v6H48ZM25,42.317v1.366L23.462,43ZM53,46H52V40h1a3,3,0,0,1,0,6Z"></path><path d="M34,13a1,1,0,0,0-1-1H19a1,1,0,0,0-1,1V25a1,1,0,0,0,1,1H33a1,1,0,0,0,1-1ZM32,24H20V14H32Z"></path><rect x="36" y="12" width="10" height="2"></rect><rect x="36" y="16" width="10" height="2"></rect><rect x="36" y="20" width="10" height="2"></rect><rect x="36" y="24" width="10" height="2"></rect><rect x="18" y="30" width="4" height="2"></rect><rect x="24" y="30" width="10" height="2"></rect><rect x="18" y="34" width="16" height="2"></rect></g></svg>