<svg xmlns="http://www.w3.org/2000/svg" viewBox="0 0 64 64" x="0px" y="0px"><g data-name="Smartphone Bluetooth"><polygon points="32 22.414 32 29.586 35.586 26 32 22.414"></polygon><polygon points="32 34.414 32 41.586 35.586 38 32 34.414"></polygon><path d="M47,50V7a3,3,0,0,0-3-3H20a3,3,0,0,0-3,3v3H43v2H17V57a3,3,0,0,0,3,3H44a3,3,0,0,0,3-3V52H21V50ZM26,8H24V6h2Zm4,0H28V6h2Zm1,47h2v2H31ZM30,29.586V20a1,1,0,0,1,1.707-.707l6,6a1,1,0,0,1,0,1.414L32.414,32l5.293,5.293a1,1,0,0,1,0,1.414l-6,6A1,1,0,0,1,30,44V34.414l-5.293,5.293-1.414-1.414L29.586,32l-6.293-6.293,1.414-1.414ZM19,19V15a1,1,0,0,1,1-1h4v2H21v3Z"></path></g></svg>