<svg xmlns="http://www.w3.org/2000/svg" viewBox="0 0 64 64" x="0px" y="0px"><g><path d="M36.513,22.523,47.39,16,24.613,16l10.872,6.522A1,1,0,0,0,36.513,22.523Z"></path><polygon points="50 30.698 50 16.764 40.914 22.216 50 30.698"></polygon><polygon points="24.883 50 24.133 56 39.867 56 39.117 50 24.883 50"></polygon><path d="M37.545,24.237a2.989,2.989,0,0,1-3.091,0l-1.583-.95L23.537,32H48.463l-9.334-8.713Z"></path><polygon points="22 16.764 22 30.698 31.086 22.216 22 16.764"></polygon><path d="M59,8H5A1,1,0,0,0,4,9V40H60V9A1,1,0,0,0,59,8ZM6,17H8v2H6Zm4,4v2H8V21ZM8,31H6V29H8Zm0-6h4v2H8Zm10,6H10V29h8Zm0-4H14V25h4Zm0-4H12V21h6Zm0-4H10V17h8ZM52,32a1.99,1.99,0,0,1-2,2H22a2.011,2.011,0,0,1-1.387-.554A2.077,2.077,0,0,1,20,32V16a1.994,1.994,0,0,1,2-2H50a1.993,1.993,0,0,1,2,2Z"></path><polygon points="42 58 22 58 22 60 16 60 16 62 48 62 48 60 42 60 42 58"></polygon><path d="M4,47a1,1,0,0,0,1,1H59a1,1,0,0,0,1-1V42H4Zm48-3h4v2H52Z"></path></g></svg>