<svg xmlns="http://www.w3.org/2000/svg" viewBox="0 0 64 64" x="0px" y="0px"><g><path d="M24,6H34a1,1,0,0,0,1-1V4H23V5A1,1,0,0,0,24,6Z"></path><path d="M45,56H31a2,2,0,0,1-2-2V15a1,1,0,0,1,1.895-.447L32,16.764l1.1-2.211a1.042,1.042,0,0,1,1.79,0L36,16.764l1.1-2.211a1.042,1.042,0,0,1,1.79,0L40,16.769l1.115-2.218A1,1,0,0,1,42.012,14h0a1,1,0,0,1,.893.555l1.1,2.2,1-2V7a3,3,0,0,0-3-3H37V5a3,3,0,0,1-3,3H24a3,3,0,0,1-3-3V4H16a3,3,0,0,0-3,3V57a3,3,0,0,0,3,3H42a3,3,0,0,0,3-3Z"></path><path d="M53,19.236l-.1.211a1.042,1.042,0,0,1-1.79,0L50,17.236l-1.1,2.211a1.042,1.042,0,0,1-1.79,0L46,17.236l-1.1,2.211A1,1,0,0,1,44,20h0a1,1,0,0,1-.9-.555l-1.1-2.209-1.113,2.213A1,1,0,0,1,40,20h0a1,1,0,0,1-.894-.553L38,17.236l-1.1,2.211a1.042,1.042,0,0,1-1.79,0L34,17.236l-1.1,2.211a1.042,1.042,0,0,1-1.79,0L31,19.236V54H53ZM45,50H39V48h6Zm0-4H35V44H45Zm0-4H35V40H45Zm0-4H35V36H45Zm0-4H35V32H45Zm0-4H35V28H45Zm0-4H35V24H45Zm4,24H47V48h2Zm0-4H47V44h2Zm0-4H47V40h2Zm0-4H47V36h2Zm0-4H47V32h2Zm0-4H47V28h2Zm0-4H47V24h2Z"></path></g></svg>