<svg xmlns="http://www.w3.org/2000/svg" viewBox="0 0 32 32" x="0px" y="0px"><g><path d="M27.362,16.639a1,1,0,1,0-1.415,1.414,6.987,6.987,0,0,1,0,9.894,1,1,0,0,0,1.415,1.414,8.988,8.988,0,0,0,0-12.722Z"></path><path d="M25.241,18.759a1,1,0,1,0-1.414,1.414,3.993,3.993,0,0,1,0,5.654,1,1,0,1,0,1.414,1.414,5.992,5.992,0,0,0,0-8.482Z"></path><circle cx="22" cy="23" r="2"></circle><path d="M26,3a1,1,0,0,0-1-1H7A1,1,0,0,0,6,3V4H26Z"></path><path d="M6,6V24H18.13A3.657,3.657,0,0,1,18,23a4,4,0,0,1,3.58-3.96,2.858,2.858,0,0,1,.83-1.69,2.944,2.944,0,0,1,1.36-.77A2.879,2.879,0,0,1,26,14.43V6Zm6,10H10V14h2Zm5,0H15V14h2Zm5,0H20V14h2Z"></path><path d="M23.77,29.42a2.925,2.925,0,0,1-1.36-.76,2.973,2.973,0,0,1-.83-1.7,3.97,3.97,0,0,1-2.2-.96H6v3a1,1,0,0,0,1,1H23.99A2.392,2.392,0,0,1,23.77,29.42ZM17,29H15V27h2Z"></path></g></svg>