<svg xmlns="http://www.w3.org/2000/svg" viewBox="0 0 64 64" x="0px" y="0px"><g><path d="M19,60h9.074L31,21.923a1,1,0,0,1,1.994,0L35.926,60H45V13.92A7,7,0,0,1,39.08,8H37v5a3,3,0,0,1-3,3H32a1,1,0,0,1-1-1V8H24.92A7,7,0,0,1,19,13.92Z"></path><rect x="19" y="4" width="12" height="2"></rect><path d="M19,11.9A5.016,5.016,0,0,0,22.9,8H19Z"></path><rect x="37" y="4" width="8" height="2"></rect><path d="M45,8H41.1A5.016,5.016,0,0,0,45,11.9Z"></path><rect x="33" y="4" width="2" height="2"></rect><path d="M35,13V8H33v6h1A1,1,0,0,0,35,13Z"></path></g></svg>