<svg xmlns="http://www.w3.org/2000/svg" viewBox="0 0 64 64" x="0px" y="0px"><g><rect x="26" y="54" width="12" height="6"></rect><rect x="23" y="46" width="18" height="6" rx="1"></rect><path d="M39.07,17.54l-6.36,6.37a1.014,1.014,0,0,1-1.42,0l-6.36-6.37-8.49,8.49,9.27,9.26A1.033,1.033,0,0,1,26,36v8H38V36a1.033,1.033,0,0,1,.29-.71l9.27-9.26ZM24,26.414V28H22V24a1,1,0,0,1,1-1h4v2H25.414l4.293,4.293-1.414,1.414ZM34.293,37.707,33,36.414V42H31V36.414l-1.293,1.293-1.414-1.414,3-3a1,1,0,0,1,1.414,0l3,3ZM40,28V26.414l-4.293,4.293-1.414-1.414L38.586,25H37V23h4a1,1,0,0,1,1,1v4Z"></path><polygon points="17.86 10.47 12.2 4.82 3.72 13.3 9.37 18.96 17.86 10.47"></polygon><path d="M51.8,26.03l2.83-2.83a1,1,0,0,0,0-1.41L43.31,10.47a1,1,0,0,0-1.41,0L39.07,13.3a1.014,1.014,0,0,0,0,1.42L50.38,26.03A1.027,1.027,0,0,0,51.8,26.03Z"></path><polygon points="60.28 13.3 51.8 4.82 46.14 10.47 54.63 18.96 60.28 13.3"></polygon><path d="M12.2,26.03a1.014,1.014,0,0,0,1.41,0L24.93,14.72a1.014,1.014,0,0,0,0-1.42L22.1,10.47a1,1,0,0,0-1.41,0L9.37,21.79a1,1,0,0,0,0,1.41Z"></path></g></svg>