<svg xmlns="http://www.w3.org/2000/svg" viewBox="0 0 64 64" x="0px" y="0px"><g data-name="Gift-Smartphone-Present-Online-Gift Box"><path d="M24,18a3.009,3.009,0,0,0,3-3V12H21v3A3.009,3.009,0,0,0,24,18Z"></path><path d="M13,15.11A3,3,0,0,0,19,15V12H13.78Z"></path><path d="M28,26h3V25a1,1,0,0,0-1-1H27v1A1,1,0,0,0,28,26Z"></path><path d="M32,18a3.009,3.009,0,0,0,3-3V12H29v3A3.009,3.009,0,0,0,32,18Z"></path><path d="M40,18a3.009,3.009,0,0,0,3-3V12H37v3A3.009,3.009,0,0,0,40,18Z"></path><path d="M50,50H14v6a4,4,0,0,0,4,4H46a4,4,0,0,0,4-4ZM34,58H30a3,3,0,0,1,0-6h4a3,3,0,0,1,0,6Z"></path><path d="M14,10H50V8a4,4,0,0,0-4-4H18a4,4,0,0,0-4,4ZM29,6h6V8H29ZM25,6h2V8H25Z"></path><rect x="23" y="34" width="6" height="10"></rect><path d="M50,19.58A4.941,4.941,0,0,1,48,20a4.994,4.994,0,0,1-4-2.03,4.956,4.956,0,0,1-8,0,4.956,4.956,0,0,1-8,0,4.956,4.956,0,0,1-8,0A4.994,4.994,0,0,1,16,20a4.941,4.941,0,0,1-2-.42V48H50ZM44,33a1,1,0,0,1-1,1V45a1,1,0,0,1-1,1H22a1,1,0,0,1-1-1V34a1,1,0,0,1-1-1V27a1,1,0,0,1,1-1h4.18A3,3,0,0,1,25,25V23a1,1,0,0,1,1-1h4a2.974,2.974,0,0,1,2,.78A2.974,2.974,0,0,1,34,22h4a1,1,0,0,1,1,1v2a3,3,0,0,1-.18,1H43a1,1,0,0,1,1,1Z"></path><rect x="35" y="28" width="7" height="4"></rect><rect x="35" y="34" width="6" height="10"></rect><path d="M34,54H30a1,1,0,0,0,0,2h4a1,1,0,0,0,0-2Z"></path><path d="M51,15.11,50.22,12H45v3a3,3,0,0,0,6,.11Z"></path><rect x="31" y="28" width="2" height="4"></rect><path d="M37,25V24H34a1,1,0,0,0-1,1v1h3A1,1,0,0,0,37,25Z"></path><rect x="22" y="28" width="7" height="4"></rect><rect x="31" y="34" width="2" height="10"></rect></g></svg>