<svg xmlns="http://www.w3.org/2000/svg" viewBox="0 0 64 64" x="0px" y="0px"><g><circle cx="28" cy="21" r="2"></circle><circle cx="36" cy="21" r="2"></circle><path d="M28.25,27.308a5,5,0,0,0,7.5,0l-1.5-1.324a3,3,0,0,1-4.5,0Z"></path><rect x="31" y="49" width="2" height="2"></rect><rect x="31" y="53" width="2" height="2"></rect><path d="M58.553,29.9l.894-1.79-2.759-1.379,2.019-2.019-1.414-1.414L53.187,27.4l-1.239-3.715-1.9.632,1.554,4.664-5.042,5.043a17.949,17.949,0,0,0-4.66-4.259,11.971,11.971,0,0,0-.249-13.883A2,2,0,0,0,43,14V12a1.987,1.987,0,0,0-.649-1.465l1.374-2.748,2.034-.813A2.994,2.994,0,1,0,48,2H32a7.027,7.027,0,0,0-5.6,2.8l-3.969,5.293A1.994,1.994,0,0,0,21,12v2a2,2,0,0,0,1.345,1.881A11.968,11.968,0,0,0,22.1,29.764a17.917,17.917,0,0,0-4.66,4.259L12.394,28.98l1.555-4.664-1.9-.632L10.813,27.4,6.707,23.293,5.293,24.707l2.019,2.019L4.553,28.105l.894,1.79L8.8,28.217l7.475,7.475A23.384,23.384,0,0,0,13,48c0,5.551,1.2,8.995,3.076,12H5v2H59V60H47.924C49.8,57,51,53.551,51,48a23.392,23.392,0,0,0-3.277-12.308L55.2,28.217ZM43.042,33.134a15.04,15.04,0,0,1-2.379,2.11l-.378-3.584c.114-.109.226-.219.336-.332A15.569,15.569,0,0,1,43.042,33.134ZM30,39.879a15.874,15.874,0,0,0,4-.011v4.263l-1.445-.963a1,1,0,0,0-1.11,0L30,44.131ZM36,46V34.3a11.973,11.973,0,0,0,2.428-1.184l1.354,12.87-1.227-.818a1,1,0,0,0-1.11,0L36,46.131ZM23,12H41v2H23ZM49,5a1,1,0,1,1-1-1A1,1,0,0,1,49,5ZM28,6a5.018,5.018,0,0,1,4-2H45.184A2.966,2.966,0,0,0,45,5c0,.041.01.078.012.118l-2.383.953a1,1,0,0,0-.524.482L40.92,8.923,38.857,5.485l-1.714,1.03L39.234,10H25ZM24.874,16H39.126A9.861,9.861,0,0,1,42,23a10,10,0,0,1-20,0A9.859,9.859,0,0,1,24.874,16ZM32,35a11.986,11.986,0,0,0,2-.181v3.042a14.97,14.97,0,0,1-13.052-4.718,15.588,15.588,0,0,1,2.432-1.815A11.953,11.953,0,0,0,32,35ZM45.523,60H18.476C16.379,57.011,15,53.744,15,48a20.449,20.449,0,0,1,4.569-13.435A16.891,16.891,0,0,0,28,39.516V46a1,1,0,0,0,1.555.832L32,45.2l2,1.333V48a1,1,0,0,0,1.555.832L38,47.2l2.445,1.63a1,1,0,0,0,1.549-.936L40.9,37.468a16.792,16.792,0,0,0,3.54-2.9A20.45,20.45,0,0,1,49,48C49,53.744,47.621,57.011,45.523,60Z"></path><polygon points="4.707 12.707 6.414 11 8 11 8 12.586 6.293 14.293 7.707 15.707 9 14.414 10.293 15.707 11.707 14.293 10 12.586 10 11 11.586 11 13.293 12.707 14.707 11.293 13.414 10 14.707 8.707 13.293 7.293 11.586 9 10 9 10 7.414 11.707 5.707 10.293 4.293 9 5.586 7.707 4.293 6.293 5.707 8 7.414 8 9 6.414 9 4.707 7.293 3.293 8.707 4.586 10 3.293 11.293 4.707 12.707"></polygon><polygon points="60.707 12.707 59.293 11.293 57.586 13 56 13 56 11.414 57.707 9.707 56.293 8.293 55 9.586 53.707 8.293 52.293 9.707 54 11.414 54 13 52.414 13 50.707 11.293 49.293 12.707 50.586 14 49.293 15.293 50.707 16.707 52.414 15 54 15 54 16.586 52.293 18.293 53.707 19.707 55 18.414 56.293 19.707 57.707 18.293 56 16.586 56 15 57.586 15 59.293 16.707 60.707 15.293 59.414 14 60.707 12.707"></polygon></g></svg>