<svg xmlns="http://www.w3.org/2000/svg" viewBox="0 0 64 64" x="0px" y="0px"><g data-name="Education"><polygon points="26.786 19 37 22.929 47.214 19 37 15.071 26.786 19"></polygon><path d="M37,25a1.009,1.009,0,0,1-.359-.066L31,22.764v4.6A17.178,17.178,0,0,0,37,29a17.14,17.14,0,0,0,6-1.637v-4.6l-5.641,2.17A1.009,1.009,0,0,1,37,25Z"></path><path d="M52.292,43.233A23,23,0,0,0,20.263,10.227,22.783,22.783,0,0,0,13,27a1,1,0,0,1-.26.673L4.26,37H10a1,1,0,0,1,1,1v7a5.006,5.006,0,0,0,5,5h8a2,2,0,0,1,2,2v8H52V46.193a24.955,24.955,0,0,1-3.369,2.385l-1.012-1.724a23.155,23.155,0,0,0,4.67-3.615ZM34,35H32V33h2Zm4,0H36V33h2Zm4,0H40V33h2Zm8.359-15.066L45,22v6a1,1,0,0,1-.553.895C44.275,28.98,40.2,31,37,31s-7.275-2.02-7.447-2.105A1,1,0,0,1,29,28V22l-4-1.539v3.13l2.707,2.707-1.414,1.414L25,26.414V28H23V26.414l-1.293,1.293-1.414-1.414L23,23.586V19a1,1,0,0,1,.641-.934l13-5a1.02,1.02,0,0,1,.718,0l13,5a1,1,0,0,1,0,1.868Z"></path></g></svg>