<svg xmlns="http://www.w3.org/2000/svg" viewBox="0 0 64 64" x="0px" y="0px"><g><path d="M55.707,56.293l-6-6A1,1,0,0,0,49,50H19V48a3,3,0,0,0-3-3H10a1,1,0,0,1,0-2h6a3,3,0,0,0,3-3V38h7v4H22a1,1,0,0,0-1,1v4a1,1,0,0,0,1,1H42a1,1,0,0,0,1-1V43a1,1,0,0,0-1-1H38V38H52a3,3,0,0,0,3-3V9a3,3,0,0,0-3-3H50V8h2a1,1,0,0,1,1,1V30H11V9a1,1,0,0,1,1-1h2V6H12A3,3,0,0,0,9,9V35a3,3,0,0,0,3,3h5v2a1,1,0,0,1-1,1H10a3,3,0,0,0,0,6h6a1,1,0,0,1,1,1v2H15a1,1,0,0,0-.707.293l-6,6A1,1,0,0,0,8,57v3a2,2,0,0,0,2,2H54a2,2,0,0,0,2-2V57A1,1,0,0,0,55.707,56.293ZM41,46H23V44H41Zm-5-4H28V38h8ZM11,35V32H53v3a1,1,0,0,1-1,1H12A1,1,0,0,1,11,35Zm4.414,17H48.586l4,4H11.414ZM10,60V58H54v2Z"></path><rect x="16" y="53" width="2" height="2"></rect><rect x="20" y="53" width="2" height="2"></rect><rect x="42" y="53" width="2" height="2"></rect><rect x="24" y="53" width="16" height="2"></rect><rect x="46" y="53" width="2" height="2"></rect><rect x="47" y="33" width="2" height="2"></rect><path d="M18,26H46a2,2,0,0,0,2-2V4a2,2,0,0,0-2-2H18a2,2,0,0,0-2,2V24A2,2,0,0,0,18,26Zm0-3.586,1.8-1.8L21.4,21.8a1,1,0,0,0,1.306-.095L24,20.414l1.293,1.293A1,1,0,0,0,26.6,21.8l.732-.547L24.586,24H18Zm3.234-3.234L24,16.414l2.766,2.766-.671.5-1.388-1.388a1,1,0,0,0-1.414,0l-1.388,1.388ZM27.414,24,33.5,17.914l1.793,1.793a1,1,0,0,0,1.414,0L38,18.414l1.293,1.293a1,1,0,0,0,1.414,0L42.5,17.914l3.5,3.5V24Zm7.5-7.5L38,13.414,41.086,16.5,40,17.586l-1.293-1.293a1,1,0,0,0-1.414,0L36,17.586ZM46,4V18.587l-7.294-7.294a1,1,0,0,0-1.414,0L29.5,19.086l-4.793-4.793a1,1,0,0,0-1.414,0L18,19.586V4Z"></path><path d="M30,12a3,3,0,1,0-3-3A3,3,0,0,0,30,12Zm0-4a1,1,0,1,1-1,1A1,1,0,0,1,30,8Z"></path><rect x="20" y="10" width="6" height="2"></rect><rect x="34" y="10" width="2" height="2"></rect></g></svg>