<svg xmlns="http://www.w3.org/2000/svg" viewBox="0 0 64 64" x="0px" y="0px"><g data-name="Report"><path d="M61,50H59V17a5.006,5.006,0,0,0-5-5H53V5a3,3,0,0,0-3-3H14a3,3,0,0,0-3,3v7H10a5.006,5.006,0,0,0-5,5V50H3a1,1,0,0,0-1,1v4a3,3,0,0,0,3,3H59a3,3,0,0,0,3-3V51A1,1,0,0,0,61,50ZM13,12H51V43a1,1,0,0,1-1,1H14a1,1,0,0,1-1-1Zm1-8H50a1,1,0,0,1,1,1v5H13V5A1,1,0,0,1,14,4ZM7,17a3,3,0,0,1,3-3h1V43a3,3,0,0,0,3,3H50a3,3,0,0,0,3-3V14h1a3,3,0,0,1,3,3V50H7ZM36,52a1,1,0,0,1-1,1H29a1,1,0,0,1-1-1Zm24,3a1,1,0,0,1-1,1H5a1,1,0,0,1-1-1V52H26a3,3,0,0,0,3,3h6a3,3,0,0,0,3-3H60Z"></path><rect x="15" y="6" width="2" height="2"></rect><rect x="19" y="6" width="2" height="2"></rect><rect x="23" y="6" width="2" height="2"></rect><path d="M18,22h8a1,1,0,0,0,1-1V15a1,1,0,0,0-1-1H18a1,1,0,0,0-1,1v6A1,1,0,0,0,18,22Zm1-6h6v4H19Z"></path><path d="M18,32h8a1,1,0,0,0,1-1V25a1,1,0,0,0-1-1H18a1,1,0,0,0-1,1v6A1,1,0,0,0,18,32Zm1-6h6v4H19Z"></path><path d="M18,42h8a1,1,0,0,0,1-1V35a1,1,0,0,0-1-1H18a1,1,0,0,0-1,1v6A1,1,0,0,0,18,42Zm1-6h6v4H19Z"></path><path d="M30,32H46a1,1,0,0,0,1-1V15a1,1,0,0,0-1-1H30a1,1,0,0,0-1,1V31A1,1,0,0,0,30,32Zm1-16H45V30H31Z"></path><rect x="29" y="34" width="4" height="2"></rect><rect x="35" y="34" width="12" height="2"></rect><rect x="29" y="38" width="18" height="2"></rect><rect x="33" y="24" width="2" height="4"></rect><rect x="37" y="22" width="2" height="6"></rect><rect x="41" y="20" width="2" height="8"></rect></g></svg>