<svg xmlns="http://www.w3.org/2000/svg" viewBox="0 0 64 64" x="0px" y="0px"><g><path d="M55,6H50a3,3,0,0,0-3-3H15a3,3,0,0,0-3,3H9a5.006,5.006,0,0,0-5,5V45a5.006,5.006,0,0,0,5,5H23.867l-.75,6H21a3,3,0,0,0,0,6H43a3,3,0,0,0,0-6H40.883l-.75-6H55a5.006,5.006,0,0,0,5-5V11A5.006,5.006,0,0,0,55,6Zm0,2a3,3,0,0,1,3,3V40H50V8ZM14,12H48V40H14Zm1-7H47a1,1,0,0,1,1,1v4H14V6A1,1,0,0,1,15,5ZM9,8h3V40H6V11A3,3,0,0,1,9,8ZM44,59a1,1,0,0,1-1,1H21a1,1,0,0,1,0-2H43A1,1,0,0,1,44,59Zm-5.133-3H25.133l.75-6H38.117ZM55,48H9a3,3,0,0,1-3-3V42H58v3A3,3,0,0,1,55,48Z"></path><rect x="52" y="44" width="2" height="2"></rect><rect x="16" y="6" width="2" height="2"></rect><rect x="20" y="6" width="2" height="2"></rect><rect x="24" y="6" width="2" height="2"></rect><path d="M39.192,20.979a3.072,3.072,0,0,0-4.242,0L30,25.929l-.707-.708a3.073,3.073,0,0,0-4.242,0,3,3,0,0,0,0,4.242l2.828,2.829h0a3,3,0,0,0,4.242,0l7.071-7.071a3,3,0,0,0,0-4.243Zm-1.414,2.829-7.071,7.07a1,1,0,0,1-1.414,0L26.465,28.05a1,1,0,0,1,0-1.414,1.023,1.023,0,0,1,1.414,0l1.414,1.414a1,1,0,0,0,1.414,0l5.658-5.657a1.023,1.023,0,0,1,1.413,0,1,1,0,0,1,0,1.414Z"></path><path d="M32,14A12,12,0,1,0,44,26,12.013,12.013,0,0,0,32,14Zm0,22A10,10,0,1,1,42,26,10.011,10.011,0,0,1,32,36Z"></path></g></svg>