<svg xmlns="http://www.w3.org/2000/svg" viewBox="0 0 64 64" x="0px" y="0px"><g data-name="Flat Tyre"><rect x="36.767" y="27.672" width="4" height="2" transform="matrix(0.998, -0.07, 0.07, 0.998, -1.904, 2.772)"></rect><rect x="10.831" y="29.485" width="3.999" height="2" transform="translate(-2.097 0.97) rotate(-4.004)"></rect><rect x="13.665" y="41.386" width="2" height="2" transform="matrix(0.998, -0.069, 0.069, 0.998, -2.904, 1.119)"></rect><rect x="47.582" y="39.015" width="2" height="2" transform="translate(-2.675 3.49) rotate(-4.004)"></rect><path d="M62,45H53.487c.129-.127.257-.255.377-.393a6.942,6.942,0,0,0,1.691-4.078l3.071-.215a3,3,0,0,0,2.785-3.2l-.559-7.981a7.008,7.008,0,0,0-7.47-6.494l-3.478.243L40.59,11.6a5.035,5.035,0,0,0-4.2-1.8L11.429,11.537a7,7,0,0,0-6.1,4.631L1.9,25.769a16.95,16.95,0,0,0-.946,6.9L1.557,41.3a3,3,0,0,0,2.99,2.79c.07,0,.14,0,.212-.007l3.078-.216A6.92,6.92,0,0,0,8.188,45H2v2H62Zm-9.646-1.7A4.965,4.965,0,0,1,48.945,45H48.85a5,5,0,0,1-.617-9.973c.12-.008.238-.013.357-.013a5,5,0,0,1,4.978,4.652h0A4.964,4.964,0,0,1,52.354,43.3ZM21.637,42.9,41.747,41.5A6.973,6.973,0,0,0,43.681,45H21.149A7.058,7.058,0,0,0,21.637,42.9Zm37.22-13.63.07,1-3.99.279L54.8,28.553l3.889-.272A4.962,4.962,0,0,1,58.857,29.271Zm-5.336-4.638a4.953,4.953,0,0,1,4.11,1.717l-2.974.208A2,2,0,0,0,52.8,28.693l.139,1.994a2,2,0,0,0,1.993,1.861c.047,0,.1,0,.142-.005l3.991-.278.139,1.995-2.992.209.139,1.995,2.992-.209.07,1a1,1,0,0,1-.929,1.067l-3.071.215a6.991,6.991,0,0,0-13.807.966l-6.064.424-.977-13.966ZM31.873,16.122l.558,7.98L9.708,25.691,10.745,17.6Zm2-.14,7.323-.512,6.259,7.582-13.024.911ZM4.619,42.086a.973.973,0,0,1-1.067-.927l-.07-1,2.992-.209-.14-1.995-2.991.209-.395-5.639a14.934,14.934,0,0,1,.834-6.086l3.426-9.6a5,5,0,0,1,4.359-3.308l24.958-1.745a3.02,3.02,0,0,1,2.522,1.083l.582.705L10.606,15.6a2,2,0,0,0-1.844,1.741L7.724,25.437a2,2,0,0,0,1.982,2.254c.047,0,.094,0,.141,0L32.571,26.1l.976,13.965L21.5,40.906a6.991,6.991,0,0,0-13.808.965ZM11.013,45a1.009,1.009,0,0,1-.924-.6,4.85,4.85,0,0,1-.411-1.67A5,5,0,0,1,14.319,37.4c.119-.008.237-.012.355-.012a5,5,0,0,1,4.577,6.991,1.025,1.025,0,0,1-.935.624Z"></path><rect x="14" y="50" width="2" height="4"></rect><rect x="19" y="48.764" width="2" height="4.472" transform="translate(-20.696 14.328) rotate(-26.565)"></rect><rect x="7.764" y="50" width="4.472" height="2" transform="translate(-40.088 37.136) rotate(-63.435)"></rect></g></svg>