<svg xmlns="http://www.w3.org/2000/svg" viewBox="0 0 64 64" x="0px" y="0px"><g><rect x="6" y="10" width="2" height="2"></rect><rect x="10" y="10" width="2" height="2"></rect><rect x="14" y="10" width="2" height="2"></rect><rect x="18" y="56" width="8" height="2"></rect><rect x="14" y="56" width="2" height="2"></rect><rect x="20" y="52" width="6" height="2"></rect><rect x="22" y="48" width="4" height="2"></rect><rect x="16" y="52" width="2" height="2"></rect><rect x="51.995" y="56.006" width="2" height="2"></rect><rect x="36.995" y="55.994" width="2" height="2"></rect><path d="M61.665,48.263l-8.99-8a1,1,0,0,0-.665-.253H49V34.474A17.024,17.024,0,0,0,58.8,21.5l1.011,1.2,1.531-1.285-2.571-3.065a1,1,0,0,0-1.409-.123l-3.064,2.572,1.285,1.531L56.8,21.309A15.023,15.023,0,0,1,49,32.257V31a1,1,0,0,0-1-1H40V28h8a2,2,0,0,0,2-2V19.22A2.985,2.985,0,0,0,51,17V15a1,1,0,0,0-.2-.6l-3-4A1,1,0,0,0,47,10H40V9a3,3,0,0,0-3-3H34.548a14.973,14.973,0,0,1,21.995,9.312l1.939-.491A16.984,16.984,0,0,0,31.068,6H5A3,3,0,0,0,2,9V39a3,3,0,0,0,3,3H28V54.99a3,3,0,0,0,2.99,3H33.1a5.008,5.008,0,0,0,4.9,4h0a5.007,5.007,0,0,0,4.9-4l5.2,0a5.006,5.006,0,0,0,4.894,4h0a5.008,5.008,0,0,0,4.9-4h1.1a3.009,3.009,0,0,0,3.01-3v-6A1,1,0,0,0,61.665,48.263ZM53.008,45.01H55l3.372,3H53ZM47,48H30V32h1.059A16.967,16.967,0,0,0,47,35.247Zm0-14.875A14.863,14.863,0,0,1,34.529,32H47ZM43,26H41V24h2Zm5,0H45V23a1,1,0,0,0-1-1H40a1,1,0,0,0-1,1v3H36V20a2.981,2.981,0,0,0,2-.78,2.954,2.954,0,0,0,4,0,2.954,2.954,0,0,0,4,0A2.981,2.981,0,0,0,48,20Zm0-8a1,1,0,0,1-1-1H45a1,1,0,0,1-2,0H41a1,1,0,0,1-2,0H37a1,1,0,0,1-2,0V16H49v1A1,1,0,0,1,48,18Zm0-4H36l1.5-2h9ZM5,40a1,1,0,0,1-1-1V16H21V14H4V9A1,1,0,0,1,5,8H29.062a16.919,16.919,0,0,0-3.857,8.5l-1.01-1.2-1.532,1.285,2.571,3.065a1,1,0,0,0,.679.353A.844.844,0,0,0,26,20a1,1,0,0,0,.643-.234l3.064-2.572-1.286-1.531L27.2,16.69A14.962,14.962,0,0,1,31.836,8H37a1,1,0,0,1,1,1v1H37a1,1,0,0,0-.8.4l-3,4a1,1,0,0,0-.2.6v2a2.985,2.985,0,0,0,1,2.22V26a2,2,0,0,0,2,2h2v2H31.8a14.945,14.945,0,0,1-4.328-7.249l-1.936.5A16.9,16.9,0,0,0,29.048,30H29a1,1,0,0,0-1,1v9ZM40.114,59.117a2.977,2.977,0,0,1-2.119.877h0a3,3,0,0,1,0-6h0a3,3,0,0,1,2.117,5.123Zm15,.012A2.981,2.981,0,0,1,53,60.006h0a3,3,0,0,1,0-6h0a3,3,0,0,1,2.117,5.123ZM58.99,56.01H57.9a5.01,5.01,0,0,0-4.9-4h-.005a5.007,5.007,0,0,0-4.9,4l-5.2,0a5.009,5.009,0,0,0-4.9-4h-.005a5.008,5.008,0,0,0-4.9,4H30.99a1,1,0,0,1-.99-1V50H48a1,1,0,0,0,1-1V42.01h2.629l1.15,1.023a2,2,0,0,0-1.771,1.972l-.008,3a2,2,0,0,0,2,2h7v5A1.019,1.019,0,0,1,58.99,56.01Z"></path><path d="M21,24H18.22l.76-3.8L17.02,19.8,16.18,24H11.82l-.84-4.2L9.02,20.2,9.78,24H7a1,1,0,0,0-.976,1.217L7.676,32.65A2.982,2.982,0,0,0,10.6,35H17.4a2.982,2.982,0,0,0,2.928-2.35l1.652-7.433A1,1,0,0,0,21,24Zm-2.628,8.217A.994.994,0,0,1,17.4,33H10.6a.994.994,0,0,1-.976-.783L8.247,26H19.753Z"></path><rect x="11" y="28" width="2" height="3"></rect><rect x="15" y="28" width="2" height="3"></rect></g></svg>