<svg xmlns="http://www.w3.org/2000/svg" viewBox="0 0 64 64" x="0px" y="0px"><g data-name="Data Security-Shield-Cloud-Network-Protection"><circle cx="59" cy="37" r="2"></circle><circle cx="56" cy="51" r="2"></circle><circle cx="42" cy="59" r="2"></circle><circle cx="22" cy="59" r="2"></circle><circle cx="8" cy="51" r="2"></circle><circle cx="5" cy="37" r="2"></circle><path d="M34.343,45.555A11.007,11.007,0,0,0,40,35.939v-5.29L32,27.1l-8,3.554v5.29a11.007,11.007,0,0,0,5.657,9.616L32,46.856ZM29,35a3,3,0,1,1,4,2.816V42H31V37.816A3,3,0,0,1,29,35Z"></path><path d="M10,30h8V28a1.016,1.016,0,0,1,.58-.91l13-6a1.025,1.025,0,0,1,.84,0l13,6A1.016,1.016,0,0,1,46,28v2h6a8,8,0,0,0,0-16,1,1,0,0,1-1-1,5,5,0,0,0-5-5,4.946,4.946,0,0,0-3.58,1.52,1,1,0,0,1-.86.29.982.982,0,0,1-.74-.52,9.992,9.992,0,0,0-18.73,3.45,1,1,0,0,1-1.67.61A5,5,0,0,0,12,17a1.1,1.1,0,0,1-.35.8,1.034,1.034,0,0,1-.8.27A5.038,5.038,0,0,0,10,18a6,6,0,0,0,0,12Zm42-4a4,4,0,0,0,4-4h2a6.006,6.006,0,0,1-6,6ZM47,12h2v2H47Zm-4,0h2v2H43Z"></path><path d="M36.11,48.65A14.975,14.975,0,0,0,44,35.44v-6.8L32,23.1,20,28.64v6.8a14.975,14.975,0,0,0,7.89,13.21L32,50.86ZM28.687,47.3A13.006,13.006,0,0,1,22,35.939V30a1,1,0,0,1,.594-.914l9-4a1,1,0,0,1,.812,0l9,4A1,1,0,0,1,42,30v5.939A13.008,13.008,0,0,1,35.313,47.3l-2.828,1.571a1,1,0,0,1-.97,0Z"></path><circle cx="32" cy="35" r="1"></circle><path d="M52.293,48.707,49.586,46H42.78V44H50a1,1,0,0,1,.707.293l3,3Z"></path><rect x="46" y="36" width="8" height="2"></rect><path d="M11.707,48.707l-1.414-1.414,3-3A1,1,0,0,1,14,44h7.22v2H14.414Z"></path><rect x="10" y="36" width="8" height="2"></rect><path d="M38.293,56.707l-3-3A1,1,0,0,1,35,53V50.19h2v2.4l2.707,2.707Z"></path><path d="M25.707,56.707l-1.414-1.414L27,52.586v-2.4h2V53a1,1,0,0,1-.293.707Z"></path></g></svg>