<svg xmlns="http://www.w3.org/2000/svg" viewBox="0 0 64 64" x="0px" y="0px"><g data-name="Game Controler"><path d="M33,15H31V14a3,3,0,0,1,3-3H48a3,3,0,0,0,0-6H32V3H48a5,5,0,0,1,0,10H34a1,1,0,0,0-1,1Z"></path><path d="M60,32A11.013,11.013,0,0,0,49,21H15a11,11,0,0,0,0,22,10.832,10.832,0,0,0,5.3-1.37,3.971,3.971,0,0,1-.239-2.19A9.048,9.048,0,1,1,23.366,35.3,4.929,4.929,0,0,1,25,35a5.009,5.009,0,0,1,4.9,4h4.2A5.009,5.009,0,0,1,39,35a4.929,4.929,0,0,1,1.634.3,9,9,0,1,1,3.309,4.143,3.971,3.971,0,0,1-.239,2.19A10.832,10.832,0,0,0,49,43,11.013,11.013,0,0,0,60,32ZM29,32H27V30h2Zm4,0H31V30h2Zm4,0H35V30h2Z"></path><circle cx="39" cy="40" r="3"></circle><path d="M50.26,60A5.747,5.747,0,0,0,56,54.26V42.937a12.917,12.917,0,0,1-13.316.415,5,5,0,0,1-.869.775L44.69,55.658A5.729,5.729,0,0,0,50.26,60Z"></path><circle cx="25" cy="40" r="3"></circle><path d="M49,39a7,7,0,1,0-7-7A7.009,7.009,0,0,0,49,39Zm2-8h2v2H51Zm-3-3h2v2H48Zm0,6h2v2H48Zm-3-3h2v2H45Z"></path><path d="M8,42.937V54.26a5.742,5.742,0,0,0,11.311,1.4l2.874-11.531a5,5,0,0,1-.869-.775A12.917,12.917,0,0,1,8,42.937Z"></path><path d="M29,17a1,1,0,0,0-1,1v1h8V18a1,1,0,0,0-1-1Z"></path><path d="M34.1,41H29.9a4.972,4.972,0,0,1-.346,1.03h4.894A4.972,4.972,0,0,1,34.1,41Z"></path><path d="M15,25a7,7,0,1,0,7,7A7.009,7.009,0,0,0,15,25Zm4,8H16v3H14V33H11V31h3V28h2v3h3Z"></path></g></svg>