<svg xmlns="http://www.w3.org/2000/svg" viewBox="0 0 64 64" x="0px" y="0px"><g><path d="M48.81,38.29A4.964,4.964,0,0,0,49,37V35.27a2.992,2.992,0,0,0,1.73-3.17L48.11,14.66A1.99,1.99,0,0,0,49,13V11a2.006,2.006,0,0,0-2-2H43a7.008,7.008,0,0,0-7-7H28a7.008,7.008,0,0,0-7,7H17a2.006,2.006,0,0,0-2,2v2a1.99,1.99,0,0,0,.89,1.66L13.27,32.1A2.992,2.992,0,0,0,15,35.27V37a4.964,4.964,0,0,0,.19,1.29A8.949,8.949,0,0,0,11,45.88V61a1,1,0,0,0,1,1H52a1,1,0,0,0,1-1V45.88A8.949,8.949,0,0,0,48.81,38.29Zm-.18-6.71A2.988,2.988,0,0,0,46,30H38.31a11.328,11.328,0,0,0,1.47-1.22A10.919,10.919,0,0,0,42.95,22H43a4,4,0,0,0,2.83-1.17,4.168,4.168,0,0,0,.95-1.57ZM41,38v2H37V37.69a79.863,79.863,0,0,0,9.55-1.75c.06-.01.11-.02.16-.03.09-.03.2-.05.29-.07V37a3.009,3.009,0,0,1-3,3H43V38Zm2,15a1,1,0,1,1-1-1A1,1,0,0,1,43,53ZM29.89,26.01l-4.96.55a10.752,10.752,0,0,1-.67-.99l5.98-1.2a9.065,9.065,0,0,1,3.52,0l5.98,1.2a9.062,9.062,0,0,1-.67.99l-4.96-.55-.22,1.98,3.28.37a8.969,8.969,0,0,1-10.34,0l3.28-.37ZM38,21H36a3.009,3.009,0,0,1-3-3V15h8v3A3.009,3.009,0,0,1,38,21Zm2.94,1.03a9.348,9.348,0,0,1-.35,1.67L37.1,23H38A5,5,0,0,0,40.94,22.03Zm-7.42.28a11.054,11.054,0,0,0-3.04,0A4.886,4.886,0,0,0,32,20.97,4.886,4.886,0,0,0,33.52,22.31ZM31,18a3.009,3.009,0,0,1-3,3H26a3.009,3.009,0,0,1-3-3V15h8Zm-5,5h.9l-3.48.7a9.367,9.367,0,0,1-.36-1.67A5,5,0,0,0,26,23ZM46,34H37V32h9a1,1,0,0,1,0,2ZM43,20V16a2.006,2.006,0,0,1,2,2,2.015,2.015,0,0,1-2,2Zm2.62-5h.52l.1.67A3.944,3.944,0,0,0,45.62,15ZM28,4h8a5,5,0,0,1,5,5H39V7.24a1.981,1.981,0,0,0-.82-1.61,2.02,2.02,0,0,0-1.8-.28,15.365,15.365,0,0,1-8.76,0,2.02,2.02,0,0,0-1.8.28A1.981,1.981,0,0,0,25,7.24V9H23A5,5,0,0,1,28,4Zm9,3.24V9H27V7.25A17.206,17.206,0,0,0,37,7.24ZM17,11H47v2H17Zm4,5v4a2.015,2.015,0,0,1-2-2A2.006,2.006,0,0,1,21,16Zm-2.62-1a3.944,3.944,0,0,0-.62.67l.1-.67Zm-1.16,4.26a4.168,4.168,0,0,0,.95,1.57A4,4,0,0,0,21,22h.05a10.983,10.983,0,0,0,4.65,8H18a2.988,2.988,0,0,0-2.63,1.58ZM27,60H13V45.88a6.963,6.963,0,0,1,3.09-5.8A4.982,4.982,0,0,0,20,42h1v8.18a3,3,0,1,0,2,0V42h4Zm-5-8a1,1,0,1,1-1,1A1,1,0,0,1,22,52Zm5-12H23V38H21v2H20a3.009,3.009,0,0,1-3-3V35.84c.09.02.2.04.29.07.05.01.1.02.16.03A79.863,79.863,0,0,0,27,37.69Zm0-6H18a1,1,0,0,1,0-2h9Zm8,26H29V40.97a4.884,4.884,0,0,0,6,0ZM29.15,37.89c.96.07,1.92.11,2.85.11s1.89-.04,2.85-.11a2.98,2.98,0,0,1-5.7,0ZM35,35.87c-1.02.08-2.03.13-3,.13s-1.98-.05-3-.13v-4.3A10.665,10.665,0,0,0,32,32a11.09,11.09,0,0,0,3-.42ZM51,60H37V42h4v8.18a3,3,0,1,0,2,0V42h1a4.982,4.982,0,0,0,3.91-1.92A6.963,6.963,0,0,1,51,45.88Z"></path><circle cx="27" cy="18" r="2"></circle><circle cx="37" cy="18" r="2"></circle></g></svg>