<svg xmlns="http://www.w3.org/2000/svg" viewBox="0 0 64 64" x="0px" y="0px"><g><path d="M16,25H38a1,1,0,0,0,1-1V14a1,1,0,0,0-1-1H16a1,1,0,0,0-1,1V24A1,1,0,0,0,16,25Zm1-10H37v8H17Z"></path><path d="M62,34A19.007,19.007,0,0,0,44,15.051V6a1,1,0,0,0-1-1H9a7.009,7.009,0,0,0-7,7V52a7.009,7.009,0,0,0,7,7H43a1,1,0,0,0,1-1V52.949A19.007,19.007,0,0,0,62,34ZM44,28.083a6,6,0,0,1,0,11.834ZM42,45H12V7H42Zm-38,2.1V12A5.006,5.006,0,0,1,9,7h1V45H9a7.106,7.106,0,0,0-.719.037c-.092.009-.18.028-.271.041-.143.021-.287.038-.427.067-.108.022-.212.054-.319.082s-.239.056-.355.093-.223.081-.334.122-.21.073-.311.116-.222.106-.332.16c-.094.046-.191.088-.282.138-.109.06-.212.128-.318.193-.087.054-.177.105-.262.162-.1.07-.2.147-.295.221-.082.063-.167.122-.246.187s-.179.162-.268.244-.157.14-.23.214ZM9,57a5.009,5.009,0,0,1-5-5,5.006,5.006,0,0,1,5-5H42v4H9v2H42v4Zm35-6.029v-9.04a7.993,7.993,0,0,0,0-15.862v-9.04a17,17,0,0,1,0,33.942Z"></path></g></svg>