<svg xmlns="http://www.w3.org/2000/svg" viewBox="0 0 64 64" x="0px" y="0px"><g><path d="M53.318,50.429l-1.327-2.388L52,38a1.008,1.008,0,0,0-.125-.486l-6.3-11.37A4.03,4.03,0,0,0,42,24.081V5a3,3,0,0,0-3-3H11A3,3,0,0,0,8,5V49a3,3,0,0,0,3,3H23.321l1.054,1.9a.991.991,0,0,0,.391.39l8,4.432L34.081,61.1a1.984,1.984,0,0,0,1.2.953,2.027,2.027,0,0,0,.555.078,1.991,1.991,0,0,0,.967-.252L52.54,53.15a2,2,0,0,0,.778-2.721ZM40,24.679a3.977,3.977,0,0,0-1.425,5.344L40,32.594v2.852A6.9,6.9,0,0,0,38.56,42H10V12H40ZM11,4H39a1,1,0,0,1,1,1v5H10V5A1,1,0,0,1,11,4ZM10,49V44H39.513l.487.752V49a1,1,0,0,1-1,1H11A1,1,0,0,1,10,49ZM35.83,60.13l-1.455-2.625a1,1,0,0,0-.391-.389l-8-4.431L25.607,52H39a3,3,0,0,0,3-3V46l.839-.544-1.945-3a5.006,5.006,0,0,1,1.949-6.8,1,1,0,0,0,.39-1.359l-2.907-5.245a2,2,0,0,1-.173-1.526,1.972,1.972,0,0,1,.946-1.193,1.994,1.994,0,0,1,.92-.258h.038a2.016,2.016,0,0,1,1.769,1.035L50,38.258,49.99,48.3a1,1,0,0,0,.126.487L51.57,51.4Z"></path><rect x="22" y="46" width="6" height="2"></rect><rect x="12" y="6" width="2" height="2"></rect><rect x="16" y="6" width="4" height="2"></rect><path d="M15,34H35a2,2,0,0,0,2-2V18a2,2,0,0,0-2-2H15a2,2,0,0,0-2,2V32A2,2,0,0,0,15,34Zm0-2V19.822l9.463,6.022a1,1,0,0,0,1.074,0L35,19.822V32Zm.863-14H34.137L25,23.814Z"></path></g></svg>