<svg xmlns="http://www.w3.org/2000/svg" viewBox="0 0 64 64" x="0px" y="0px"><g><path d="M50,18.08A7,7,0,0,0,44.08,24H50Z"></path><path d="M32,26H22V40h7.81l1.25-3.35A1.007,1.007,0,0,1,32,36Z"></path><rect x="34" y="26" width="16" height="2"></rect><rect x="34" y="34" width="16" height="2"></rect><rect x="34" y="30" width="16" height="2"></rect><polygon points="33.31 46 24.69 46 22.44 52 35.56 52 33.31 46"></polygon><path d="M4,16.06A9.013,9.013,0,0,1,11.94,24H42.06A9.013,9.013,0,0,1,50,16.06V11.94A9.013,9.013,0,0,1,42.06,4H11.94A9.013,9.013,0,0,1,4,11.94ZM27,8a6,6,0,1,1-6,6A6.006,6.006,0,0,1,27,8Z"></path><polygon points="43.56 44 41.31 38 32.69 38 30.44 44 43.56 44"></polygon><circle cx="27" cy="14" r="4"></circle><polygon points="50 40 50 38 43.44 38 44.19 40 50 40"></polygon><path d="M4,4V9.92A7,7,0,0,0,9.92,4Z"></path><polygon points="25.31 54 16.69 54 14.44 60 27.56 60 25.31 54"></polygon><polygon points="32.69 54 30.44 60 43.56 60 41.31 54 32.69 54"></polygon><rect x="4" y="38" width="16" height="2"></rect><rect x="4" y="34" width="16" height="2"></rect><rect x="4" y="26" width="16" height="2"></rect><polygon points="49.31 46 40.69 46 38.44 52 51.56 52 49.31 46"></polygon><rect x="4" y="30" width="16" height="2"></rect><path d="M50,9.92V4H44.08A7,7,0,0,0,50,9.92Z"></path><polygon points="57.31 54 48.69 54 46.44 60 59.56 60 57.31 54"></polygon><path d="M4,24H9.92A7,7,0,0,0,4,18.08Z"></path></g></svg>