<svg xmlns="http://www.w3.org/2000/svg" viewBox="0 0 64 64" x="0px" y="0px"><g><path d="M43.707,50.293A1,1,0,0,0,43,50H41V48a1,1,0,0,1,1-1H58a3,3,0,0,0,0-6H44a1,1,0,0,1-1-1V38h3a3,3,0,0,0,3-3V9a3,3,0,0,0-3-3H34.414L30.707,2.293A1,1,0,0,0,30,2H18a2,2,0,0,0-2,2V6H6A3,3,0,0,0,3,9V35a3,3,0,0,0,3,3H20v4H16a1,1,0,0,0-1,1v4a1,1,0,0,0,1,1H36a1,1,0,0,0,1-1V43a1,1,0,0,0-1-1H32V38h9v2a3,3,0,0,0,3,3H58a1,1,0,0,1,0,2H42a3,3,0,0,0-3,3v2H9a1,1,0,0,0-.707.293l-6,6A1,1,0,0,0,2,57v3a2,2,0,0,0,2,2H48a2,2,0,0,0,2-2V57a1,1,0,0,0-.293-.707ZM31,5.414,33.586,8H31ZM18,4H29V8a2,2,0,0,0,2,2h3V26H18ZM6,8H16V26a2,2,0,0,0,2,2H34a2,2,0,0,0,2-2V8H46a1,1,0,0,1,1,1V30H5V9A1,1,0,0,1,6,8ZM5,35V32H47v3a1,1,0,0,1-1,1H6A1,1,0,0,1,5,35ZM35,46H17V44H35Zm-5-4H22V38h8ZM9.414,52H42.586l4,4H5.414ZM4,60V58H48v2Z"></path><rect x="10" y="53" width="2" height="2"></rect><rect x="14" y="53" width="24" height="2"></rect><rect x="40" y="53" width="2" height="2"></rect><path d="M59,52H55a3,3,0,0,0-3,3v2a1,1,0,0,0,1,1h8a1,1,0,0,0,1-1V55A3,3,0,0,0,59,52Zm1,4H54V55a1,1,0,0,1,1-1h4a1,1,0,0,1,1,1Z"></path><rect x="41" y="33" width="2" height="2"></rect><rect x="21" y="12" width="10" height="2"></rect><rect x="21" y="16" width="10" height="2"></rect><rect x="21" y="20" width="10" height="2"></rect></g></svg>