<svg xmlns="http://www.w3.org/2000/svg" viewBox="0 0 64 64" x="0px" y="0px"><g data-name="Bottle"><circle cx="32" cy="41" r="5"></circle><path d="M50,52H14v5a3,3,0,0,0,3,3H47a3,3,0,0,0,3-3Z"></path><path d="M50,25.034a7.029,7.029,0,0,0-5.076-6.73l-6.748-1.928A3.014,3.014,0,0,1,36,13.491V12H28v1.491a3.014,3.014,0,0,1-2.175,2.885L19.076,18.3A7.029,7.029,0,0,0,14,25.034V30H50Z"></path><polygon points="25 4 25 10 39.001 10 39 4 37 4 37 7 35 7 35 4 33 4 33 7 31 7 31 4 29 4 29 7 27 7 27 4 25 4"></polygon><path d="M50,32H14V50H50ZM32,48a7,7,0,1,1,7-7A7.008,7.008,0,0,1,32,48Z"></path></g></svg>