<svg xmlns="http://www.w3.org/2000/svg" viewBox="0 0 64 64" x="0px" y="0px"><g><path d="M59,48H57.83A3,3,0,0,0,55,44H46.73l.23-.13a3,3,0,1,0-3-5.2L33,45H22V44h1a1.014,1.014,0,0,0,.95-.68l1.82-5.48A2,2,0,0,0,27,36V13a1,1,0,0,0-1-1H25V8h2a1,1,0,0,0,1-1V3a1,1,0,0,0-1-1H15a1,1,0,0,0-1,1V7a1,1,0,0,0,1,1h2v4H16a1,1,0,0,0-1,1V36a2,2,0,0,0,1.23,1.84l1.82,5.48A1.014,1.014,0,0,0,19,44h1v1H2v2H20v2H19v2h4V49H22V47H33.27a1.094,1.094,0,0,0,.5-.13L44.96,40.4a1.01,1.01,0,0,1,1.37.37.988.988,0,0,1-.37,1.36l-3.46,2A1,1,0,0,0,42,45a3.009,3.009,0,0,1-3,3H38v2h1a5,5,0,0,0,4.88-4H55a1,1,0,0,1,0,2H46a1,1,0,0,0,0,2H59a1,1,0,0,1,0,2H46a1,1,0,0,0,0,2h9a1,1,0,0,1,0,2H46a1,1,0,0,0,0,2h5a1,1,0,0,1,0,2H37.12l-3.88-.97A.986.986,0,0,0,33,59H2v2H32.88l3.88.97A.986.986,0,0,0,37,62H51a3,3,0,0,0,2.83-4H55a3,3,0,0,0,2.83-4H59a3,3,0,0,0,0-6ZM16,6V4H26V6Zm7,2v4H19V8ZM17,36V14h8v2H23v2h2v2H23v2h2v2H23v2h2v2H23v2h2v2H23v2h2v2Zm2.72,6-1.33-4h5.22l-1.33,4Z"></path><path d="M42.567,19.019,41.05,20.535l1.414,1.414,1.517-1.516A3.915,3.915,0,0,0,45,20.858V23h2V20.858a3.915,3.915,0,0,0,1.019-.425l1.517,1.516,1.414-1.414-1.517-1.516A3.915,3.915,0,0,0,49.858,18H52V16H49.858a3.915,3.915,0,0,0-.425-1.019l1.517-1.516-1.414-1.414-1.517,1.516A3.915,3.915,0,0,0,47,13.142V11H45v2.142a3.915,3.915,0,0,0-1.019.425l-1.517-1.516L41.05,13.465l1.517,1.516A3.915,3.915,0,0,0,42.142,16H40v2h2.142A3.915,3.915,0,0,0,42.567,19.019ZM46,15a2,2,0,1,1-2,2A2,2,0,0,1,46,15Z"></path><path d="M33.081,29.606A1,1,0,0,0,34,31a.989.989,0,0,0,.394-.081l5.6-2.4A12.995,12.995,0,1,0,33,17a12.86,12.86,0,0,0,2.317,7.388ZM35,17a11.021,11.021,0,1,1,5.543,9.542,1,1,0,0,0-.892-.052L35.9,28.1l1.475-3.444a1,1,0,0,0-.123-1A10.886,10.886,0,0,1,35,17Z"></path></g></svg>