<svg xmlns="http://www.w3.org/2000/svg" viewBox="0 0 64 64" x="0px" y="0px"><g><path d="M61,16H57V13a1,1,0,0,0-1-1H36a5,5,0,0,0-4,2,5,5,0,0,0-4-2H8a1,1,0,0,0-1,1v3H3a1,1,0,0,0-1,1V53a1,1,0,0,0,1,1H32a1,1,0,0,0,1-1,3.015,3.015,0,0,1,1.5-2.6l-1-1.73a4.85,4.85,0,0,0-.5.361V17a3,3,0,0,1,3-3H55V28h2V18h3V52H59v2h2a1,1,0,0,0,1-1V17A1,1,0,0,0,61,16ZM4,18H7V49a1,1,0,0,0,1,1H28a3,3,0,0,1,2.816,2H4ZM31,49.013A4.961,4.961,0,0,0,28,48H9V14H28a3,3,0,0,1,3,3Z"></path><path d="M59,42a2,2,0,0,0-2-2h-.286l2.172-8.091a1,1,0,0,0-.706-1.224l-2.9-.781a1,1,0,0,0-1.226.706L51.533,40H46v-.184A2.993,2.993,0,0,0,45,34H39a2.993,2.993,0,0,0-1,5.816v4.975L33.536,55a5,5,0,0,0,4.58,7h7.768a4.977,4.977,0,0,0,3.988-2H54a3,3,0,0,0,3-3V46a2,2,0,0,0,2-2Zm-3.273-9.9.968.26L54.643,40H53.6ZM40,45V40h4v5a.983.983,0,0,0,.084.4l1.427,3.261a8.074,8.074,0,0,0-1.181-.081,6.878,6.878,0,0,0-2.668.479,5.02,5.02,0,0,1-2,.361,4.942,4.942,0,0,1-1.425-.177L39.916,45.4A.983.983,0,0,0,40,45Zm-1-9h6a1,1,0,0,1,0,2H39a1,1,0,0,1,0-2Zm9.4,22.642A2.954,2.954,0,0,1,45.884,60H38.116a3,3,0,0,1-2.748-4.2l2.058-4.7a6.8,6.8,0,0,0,2.234.328,6.911,6.911,0,0,0,2.679-.48,5.681,5.681,0,0,1,3.975,0c.073.026.152.049.225.074L48.632,55.8A2.955,2.955,0,0,1,48.4,58.642ZM55,48H53v2h2v2H53v2h2v3a1,1,0,0,1-1,1H50.783a4.984,4.984,0,0,0-.319-3l-3.935-9H55Zm2-4H46V42H57Z"></path><path d="M25,24a2.965,2.965,0,0,0-.82.128l-1.727-2.41a3.005,3.005,0,1,0-4.791.139l-2.014,3.218A2.953,2.953,0,0,0,15,25a3,3,0,1,0,2.905,3.714l4.391-.438A3,3,0,1,0,25,24Zm-7.662,2.143,2.014-3.218a2.753,2.753,0,0,0,1.468-.053l1.727,2.41a2.994,2.994,0,0,0-.452,1l-4.391.438A2.963,2.963,0,0,0,17.338,26.143ZM20,19a1,1,0,1,1-1,1A1,1,0,0,1,20,19ZM15,29a1,1,0,1,1,1-1A1,1,0,0,1,15,29Zm10-1a1,1,0,1,1,1-1A1,1,0,0,1,25,28Z"></path><rect x="12" y="34" width="4" height="2"></rect><rect x="18" y="34" width="10" height="2"></rect><rect x="12" y="38" width="16" height="2"></rect><rect x="12" y="42" width="16" height="2"></rect><rect x="36" y="17" width="6" height="2"></rect><rect x="44" y="17" width="8" height="2"></rect><rect x="36" y="21" width="6" height="2"></rect><rect x="44" y="21" width="8" height="2"></rect><rect x="36" y="25" width="6" height="2"></rect><rect x="44" y="25" width="8" height="2"></rect></g></svg>