<svg xmlns="http://www.w3.org/2000/svg" viewBox="0 0 64 64" x="0px" y="0px"><g><path d="M52,17a1,1,0,0,0,.707-.293l3-3-1.414-1.414L53,13.586V6H51v7.586l-1.293-1.293-1.414,1.414,3,3A1,1,0,0,0,52,17Z"></path><rect x="51" y="2" width="2" height="2"></rect><path d="M12,17a1,1,0,0,0,.707-.293l3-3-1.414-1.414L13,13.586V6H11v7.586L9.707,12.293,8.293,13.707l3,3A1,1,0,0,0,12,17Z"></path><rect x="11" y="2" width="2" height="2"></rect><rect x="41" y="44" width="2" height="6"></rect><rect x="41" y="52" width="2" height="2"></rect><rect x="41" y="56" width="2" height="2"></rect><rect x="47" y="42" width="2" height="4"></rect><rect x="47" y="48" width="2" height="2"></rect><rect x="47" y="52" width="2" height="2"></rect><rect x="21" y="44" width="2" height="6"></rect><rect x="21" y="52" width="2" height="2"></rect><rect x="21" y="56" width="2" height="2"></rect><rect x="15" y="42" width="2" height="4"></rect><rect x="15" y="48" width="2" height="2"></rect><rect x="15" y="52" width="2" height="2"></rect><circle cx="36" cy="19" r="1"></circle><circle cx="28" cy="11" r="1"></circle><path d="M32,26A11,11,0,1,0,21,15,11.013,11.013,0,0,0,32,26Zm4-4a3,3,0,1,1,3-3A3,3,0,0,1,36,22ZM37.293,8.293l1.414,1.414-12,12-1.414-1.414ZM28,8a3,3,0,1,1-3,3A3,3,0,0,1,28,8Z"></path><path d="M52,24v8.37L35.57,40.1A.982.982,0,0,0,35,41V60H29V41a.982.982,0,0,0-.57-.9L12,32.37V24H22.64a12.951,12.951,0,0,0,18.72,0Z"></path></g></svg>