<svg xmlns="http://www.w3.org/2000/svg" viewBox="0 0 64 64" x="0px" y="0px"><g><path d="M42,44V42.4a10.932,10.932,0,0,1,3.256-7.8A18.824,18.824,0,0,0,51,21,19,19,0,1,0,18.859,34.7,10.645,10.645,0,0,1,22,42.4V44a3.99,3.99,0,0,0-1.313,7.761A4,4,0,0,0,24,58h1.1A5.009,5.009,0,0,0,30,62h4a5.009,5.009,0,0,0,4.9-4H40a4,4,0,0,0,3.312-6.239A3.99,3.99,0,0,0,42,44ZM20.242,33.258a16.954,16.954,0,0,1-5.188-13.62,17.164,17.164,0,0,1,15-15.53,16.99,16.99,0,0,1,13.8,29.051A12.941,12.941,0,0,0,40,42.4V44H24V42.4A12.654,12.654,0,0,0,20.242,33.258ZM34,60H30a3,3,0,0,1-2.816-2h9.632A3,3,0,0,1,34,60Zm6-4H24a2,2,0,0,1,0-4H40a2,2,0,0,1,0,4Zm2-6H22a2,2,0,0,1,0-4H42a2,2,0,0,1,0,4Z"></path><rect x="53" y="20" width="4" height="2"></rect><rect x="49.919" y="8.5" width="4" height="2" transform="translate(2.204 27.227) rotate(-29.995)"></rect><rect x="11.081" y="7.5" width="2" height="4" transform="translate(-2.187 15.213) rotate(-59.998)"></rect><rect x="7" y="20" width="4" height="2"></rect><rect x="10.082" y="31.5" width="4" height="2" transform="translate(-14.632 10.396) rotate(-30.002)"></rect><rect x="50.918" y="30.5" width="2" height="4" transform="translate(-2.184 61.218) rotate(-60.005)"></rect><path d="M55,53a1,1,0,0,1-1,1H48v2h6a3,3,0,0,0,3-3V49H55Z"></path><rect x="55" y="45" width="2" height="2"></rect><rect x="55" y="41" width="2" height="2"></rect><path d="M9,53V49H7v4a3,3,0,0,0,3,3h6V54H10A1,1,0,0,1,9,53Z"></path><rect x="7" y="45" width="2" height="2"></rect><rect x="7" y="41" width="2" height="2"></rect><rect x="23.515" y="20" width="16.971" height="2" transform="translate(-5.477 28.778) rotate(-45)"></rect><path d="M36,22a3,3,0,1,0,3,3A3,3,0,0,0,36,22Zm0,4a1,1,0,1,1,1-1A1,1,0,0,1,36,26Z"></path><path d="M28,20a3,3,0,1,0-3-3A3,3,0,0,0,28,20Zm0-4a1,1,0,1,1-1,1A1,1,0,0,1,28,16Z"></path></g></svg>