<svg xmlns="http://www.w3.org/2000/svg" viewBox="0 0 64 64" x="0px" y="0px"><title>Payment-Credit card-Book</title><g data-name="Payment-Credit card-Book"><path d="M60,55H33V54a3,3,0,0,1,3-3H57a1,1,0,0,0,1-1V29H56V49H36a4.967,4.967,0,0,0-3,1.012V18a3,3,0,0,1,3-3h2V13H36a5,5,0,0,0-4,2,5,5,0,0,0-4-2H7a1,1,0,0,0-1,1v5H3a1,1,0,0,0-1,1V56a1,1,0,0,0,1,1H61a1,1,0,0,0,1-1V27H60ZM8,15H28a3,3,0,0,1,3,3V50.012A4.967,4.967,0,0,0,28,49H8ZM4,21H6V50a1,1,0,0,0,1,1H28a3,3,0,0,1,3,3v1H4Z"></path><rect x="12" y="23" width="14" height="2"></rect><rect x="12" y="31" width="14" height="2"></rect><rect x="12" y="39" width="14" height="2"></rect><rect x="38" y="39" width="14" height="2"></rect><path d="M61,7H41a1,1,0,0,0-1,1V22a1,1,0,0,0,1,1H61a1,1,0,0,0,1-1V8A1,1,0,0,0,61,7ZM60,21H42V9H60Z"></path><path d="M53,16a2.965,2.965,0,0,0,1.507-.421A2.959,2.959,0,0,0,56,16a3,3,0,0,0,0-6,2.959,2.959,0,0,0-1.493.421A2.965,2.965,0,0,0,53,10a3,3,0,0,0,0,6Zm4-3a1,1,0,0,1-1,1,.928.928,0,0,1-.172-.038,2.776,2.776,0,0,0,0-1.924A.928.928,0,0,1,56,12,1,1,0,0,1,57,13Zm-4-1a1,1,0,1,1-1,1A1,1,0,0,1,53,12Z"></path><rect x="44" y="11" width="4" height="2"></rect><rect x="44" y="17" width="14" height="2"></rect></g></svg>