<svg xmlns="http://www.w3.org/2000/svg" viewBox="0 0 64 64" x="0px" y="0px"><g><path d="M48,12a3,3,0,0,0,3-3V7a1,1,0,0,0-1-1H47V5a3.015,3.015,0,0,0-3-3H24a3,3,0,0,0-3,3v9H18a5.006,5.006,0,0,0-5,5V57a5.006,5.006,0,0,0,5,5H46a5.006,5.006,0,0,0,5-5V19a5.006,5.006,0,0,0-5-5H43V12Zm1-4V9a1,1,0,0,1-2,0V8ZM44.713,4.306A.965.965,0,0,1,45,5V9a2.966,2.966,0,0,0,.184,1H43V5a1,1,0,0,1,1-1A.978.978,0,0,1,44.713,4.306ZM23,5a1,1,0,0,1,1-1H41.184A2.966,2.966,0,0,0,41,5V20H23ZM46,16a3,3,0,0,1,3,3V57a3,3,0,0,1-3,3H18a3,3,0,0,1-3-3V19a3,3,0,0,1,3-3h3v4H19v2H45V20H43V16Z"></path><path d="M20,24a2,2,0,0,0-2,2v6a2,2,0,0,0,2,2H44a2,2,0,0,0,2-2V26a2,2,0,0,0-2-2Zm0,8V26H44v6Z"></path><path d="M32,38a4,4,0,1,0,4,4A4,4,0,0,0,32,38Zm0,6a2,2,0,1,1,2-2A2,2,0,0,1,32,44Z"></path><path d="M42,38a4,4,0,1,0,4,4A4,4,0,0,0,42,38Zm0,6a2,2,0,1,1,2-2A2,2,0,0,1,42,44Z"></path><path d="M22,38a4,4,0,1,0,4,4A4,4,0,0,0,22,38Zm0,6a2,2,0,1,1,2-2A2,2,0,0,1,22,44Z"></path><path d="M32,48a4,4,0,1,0,4,4A4,4,0,0,0,32,48Zm0,6a2,2,0,1,1,2-2A2,2,0,0,1,32,54Z"></path><path d="M42,48a4,4,0,1,0,4,4A4,4,0,0,0,42,48Zm0,6a2,2,0,1,1,2-2A2,2,0,0,1,42,54Z"></path><path d="M22,48a4,4,0,1,0,4,4A4,4,0,0,0,22,48Zm0,6a2,2,0,1,1,2-2A2,2,0,0,1,22,54Z"></path><rect x="26" y="15" width="4" height="2"></rect><rect x="32" y="15" width="6" height="2"></rect><rect x="26" y="11" width="4" height="2"></rect><rect x="32" y="11" width="6" height="2"></rect><rect x="26" y="7" width="4" height="2"></rect><rect x="32" y="7" width="6" height="2"></rect><rect x="31" y="28" width="2" height="2"></rect><rect x="35" y="28" width="2" height="2"></rect><rect x="27" y="28" width="2" height="2"></rect></g></svg>