<svg xmlns="http://www.w3.org/2000/svg" viewBox="0 0 64 64" x="0px" y="0px"><g data-name="Leak-Pipe-Broken-Plumbering-Home Repair"><path d="M61,4H53.82A3.01,3.01,0,0,0,51,2H49a3.01,3.01,0,0,0-2.82,2H43A17.024,17.024,0,0,0,26,21v3.18A3.01,3.01,0,0,0,24,27v2a3.01,3.01,0,0,0,2,2.82V35a5,5,0,0,1-10,0V31.82A3.01,3.01,0,0,0,18,29V27a3.01,3.01,0,0,0-2-2.82V3a1,1,0,0,0-1-1H5A1,1,0,0,0,4,3V24.18A3.01,3.01,0,0,0,2,27v2a3.01,3.01,0,0,0,2,2.82V35a17,17,0,0,0,34,0V31.82A3.01,3.01,0,0,0,40,29V27a3.01,3.01,0,0,0-2-2.82V21a5,5,0,0,1,5-5h3.18A3.01,3.01,0,0,0,49,18h2a3.01,3.01,0,0,0,2.82-2H61a1,1,0,0,0,1-1V5A1,1,0,0,0,61,4ZM6,4h8V24H6ZM4,29V27a1,1,0,0,1,1-1H15a1,1,0,0,1,1,1v2a1,1,0,0,1-1,1H5A1,1,0,0,1,4,29Zm32,6A15.015,15.015,0,0,1,22,49.95v-.54l3-3,1.29,1.3,1.42-1.42L26.41,45l1.3-1.29-1.42-1.42L22,46.59l-2.29-2.3-1.42,1.42L20.59,48l-.3.29A1.033,1.033,0,0,0,20,49v.95A15.015,15.015,0,0,1,6,35V32h8v3a7,7,0,0,0,14,0V32h8Zm2-6a1,1,0,0,1-1,1H27a1,1,0,0,1-1-1V27a1,1,0,0,1,1-1H37a1,1,0,0,1,1,1Zm8-15H43a7.008,7.008,0,0,0-7,7v3H28V21A15.018,15.018,0,0,1,43,6h3Zm6,1a1,1,0,0,1-1,1H49a1,1,0,0,1-1-1V5a1,1,0,0,1,1-1h2a1,1,0,0,1,1,1Zm8-1H54V6h6Z"></path><path d="M22.177,54.432C21.522,55.38,20,57.722,20,59a3,3,0,0,0,6,0c0-1.278-1.522-3.62-2.177-4.568A1.038,1.038,0,0,0,22.177,54.432ZM23,60a1,1,0,0,1-1-1,7.457,7.457,0,0,1,1-2.147A7.462,7.462,0,0,1,24,59,1,1,0,0,1,23,60Z"></path></g></svg>