<svg xmlns="http://www.w3.org/2000/svg" viewBox="0 0 64 64" x="0px" y="0px"><g><path d="M21,36V32.613a11.8,11.8,0,0,0,3.093-1.278l2.392,2.393a1,1,0,0,0,1.414,0L30.728,30.9a1,1,0,0,0,0-1.414l-2.392-2.392A11.831,11.831,0,0,0,29.613,24H33a1,1,0,0,0,1-1V19a1,1,0,0,0-1-1H29.613a11.831,11.831,0,0,0-1.277-3.093l2.392-2.392a1,1,0,0,0,0-1.414L27.9,8.272a1,1,0,0,0-1.414,0l-2.392,2.392A11.831,11.831,0,0,0,21,9.387V6a1,1,0,0,0-1-1H16a1,1,0,0,0-1,1V9.387a11.831,11.831,0,0,0-3.093,1.277L9.515,8.272a1,1,0,0,0-1.414,0L5.272,11.1a1,1,0,0,0,0,1.414l2.392,2.392A11.831,11.831,0,0,0,6.387,18H3a1,1,0,0,0-1,1v4a1,1,0,0,0,1,1H6.387a11.831,11.831,0,0,0,1.277,3.093L5.272,29.485a1,1,0,0,0,0,1.414L8.1,33.728a1,1,0,0,0,1.414,0l2.392-2.393A11.8,11.8,0,0,0,15,32.613V36a1,1,0,0,0,1,1h4A1,1,0,0,0,21,36Zm-2-4.19V35H17V31.81a1,1,0,0,0-.819-.984,9.892,9.892,0,0,1-3.846-1.589,1,1,0,0,0-1.274.117L8.808,31.606,7.394,30.192l2.252-2.254a1,1,0,0,0,.117-1.274,9.881,9.881,0,0,1-1.589-3.845A1,1,0,0,0,7.19,22H4V20H7.19a1,1,0,0,0,.984-.819,9.881,9.881,0,0,1,1.589-3.845,1,1,0,0,0-.117-1.274L7.394,11.808l1.414-1.414,2.254,2.252a1,1,0,0,0,1.274.117,9.881,9.881,0,0,1,3.845-1.589A1,1,0,0,0,17,10.19V7h2v3.19a1,1,0,0,0,.819.984,9.881,9.881,0,0,1,3.845,1.589,1,1,0,0,0,1.274-.117l2.254-2.252,1.414,1.414-2.252,2.254a1,1,0,0,0-.117,1.274,9.881,9.881,0,0,1,1.589,3.845A1,1,0,0,0,28.81,20H32v2H28.81a1,1,0,0,0-.984.819,9.881,9.881,0,0,1-1.589,3.845,1,1,0,0,0,.117,1.274l2.252,2.254-1.414,1.414-2.253-2.252a1,1,0,0,0-1.274-.117,9.892,9.892,0,0,1-3.846,1.589A1,1,0,0,0,19,31.81Z"></path><path d="M18,13a8,8,0,1,0,8,8A8.009,8.009,0,0,0,18,13Zm0,14a6,6,0,1,1,6-6A6.006,6.006,0,0,1,18,27Z"></path><path d="M18,18a3,3,0,1,0,3,3A3,3,0,0,0,18,18Zm0,4a1,1,0,1,1,1-1A1,1,0,0,1,18,22Z"></path><path d="M41,48H38.416l-.051-.123,1.827-1.827a1,1,0,0,0,0-1.414l-2.828-2.828a1,1,0,0,0-1.414,0l-1.827,1.827L34,43.584V41a1,1,0,0,0-1-1H29a1,1,0,0,0-1,1v2.584l-.123.051L26.05,41.808a1,1,0,0,0-1.414,0l-2.828,2.828a1,1,0,0,0,0,1.414l1.827,1.827L23.584,48H21a1,1,0,0,0-1,1v4a1,1,0,0,0,1,1h2.584l.051.123L21.808,55.95a1,1,0,0,0,0,1.414l2.828,2.828a1,1,0,0,0,1.414,0l1.827-1.827.123.051V61a1,1,0,0,0,1,1h4a1,1,0,0,0,1-1V58.416l.123-.051,1.827,1.827a1,1,0,0,0,1.414,0l2.828-2.828a1,1,0,0,0,0-1.414l-1.827-1.827L38.416,54H41a1,1,0,0,0,1-1V49A1,1,0,0,0,41,48Zm-1,4H37.706a1,1,0,0,0-.958.714,5.967,5.967,0,0,1-.469,1.139,1,1,0,0,0,.172,1.184l1.62,1.62-1.414,1.414-1.62-1.62a1,1,0,0,0-1.184-.172,5.967,5.967,0,0,1-1.139.469,1,1,0,0,0-.714.958V60H30V57.706a1,1,0,0,0-.714-.958,5.967,5.967,0,0,1-1.139-.469,1,1,0,0,0-1.184.172l-1.62,1.62-1.414-1.414,1.62-1.62a1,1,0,0,0,.172-1.184,5.967,5.967,0,0,1-.469-1.139A1,1,0,0,0,24.294,52H22V50h2.294a1,1,0,0,0,.958-.714,5.967,5.967,0,0,1,.469-1.139,1,1,0,0,0-.172-1.184l-1.62-1.62,1.414-1.414,1.62,1.62a1,1,0,0,0,1.184.172,5.967,5.967,0,0,1,1.139-.469A1,1,0,0,0,30,44.294V42h2v2.294a1,1,0,0,0,.714.958,5.967,5.967,0,0,1,1.139.469,1,1,0,0,0,1.184-.172l1.62-1.62,1.414,1.414-1.62,1.62a1,1,0,0,0-.172,1.184,5.967,5.967,0,0,1,.469,1.139,1,1,0,0,0,.958.714H40Z"></path><path d="M31,47a4,4,0,1,0,4,4A4,4,0,0,0,31,47Zm0,6a2,2,0,1,1,2-2A2,2,0,0,1,31,53Z"></path><path d="M49,26a4,4,0,1,0,4,4A4,4,0,0,0,49,26Zm0,6a2,2,0,1,1,2-2A2,2,0,0,1,49,32Z"></path><path d="M61,27H57.478a9.008,9.008,0,0,0-.362-.873l2.49-2.491a1,1,0,0,0,0-1.414l-2.828-2.828a1,1,0,0,0-1.414,0l-2.491,2.49A9.008,9.008,0,0,0,52,21.522V18a1,1,0,0,0-1-1H47a1,1,0,0,0-1,1v3.522a9.008,9.008,0,0,0-.873.362l-2.491-2.49a1,1,0,0,0-1.414,0l-2.828,2.828a1,1,0,0,0,0,1.414l2.49,2.491a9.008,9.008,0,0,0-.362.873H37a1,1,0,0,0-1,1v4a1,1,0,0,0,1,1h3.522a9.008,9.008,0,0,0,.362.873l-2.49,2.491a1,1,0,0,0,0,1.414l2.828,2.828a1,1,0,0,0,1.414,0l2.491-2.49a9.008,9.008,0,0,0,.873.362V42a1,1,0,0,0,1,1h4a1,1,0,0,0,1-1V38.478a9.008,9.008,0,0,0,.873-.362l2.491,2.49a1,1,0,0,0,1.414,0l2.828-2.828a1,1,0,0,0,0-1.414l-2.49-2.491A9.008,9.008,0,0,0,57.478,33H61a1,1,0,0,0,1-1V28A1,1,0,0,0,61,27Zm-1,4H56.738a1,1,0,0,0-.967.75,7,7,0,0,1-.747,1.8,1,1,0,0,0,.155,1.216l2.306,2.306-1.414,1.414-2.306-2.306a1,1,0,0,0-1.216-.155,7,7,0,0,1-1.8.747,1,1,0,0,0-.75.967V41H48V37.738a1,1,0,0,0-.75-.967,7,7,0,0,1-1.8-.747,1,1,0,0,0-1.216.155l-2.306,2.306-1.414-1.414,2.306-2.306a1,1,0,0,0,.155-1.216,7,7,0,0,1-.747-1.8,1,1,0,0,0-.967-.75H38V29h3.262a1,1,0,0,0,.967-.75,7,7,0,0,1,.747-1.8,1,1,0,0,0-.155-1.216l-2.306-2.306,1.414-1.414,2.306,2.306a1,1,0,0,0,1.216.155,7,7,0,0,1,1.8-.747,1,1,0,0,0,.75-.967V19h2v3.262a1,1,0,0,0,.75.967,7,7,0,0,1,1.8.747,1,1,0,0,0,1.216-.155l2.306-2.306,1.414,1.414-2.306,2.306a1,1,0,0,0-.155,1.216,7,7,0,0,1,.747,1.8,1,1,0,0,0,.967.75H60Z"></path></g></svg>