<svg xmlns="http://www.w3.org/2000/svg" viewBox="0 0 64 64" x="0px" y="0px"><g data-name="Headphone in ear"><path d="M29,18H5a3,3,0,0,0-3,3V59a3,3,0,0,0,3,3H29a3,3,0,0,0,3-3V21A3,3,0,0,0,29,18ZM5,20H29a1,1,0,0,1,1,1v9H25V28a2,2,0,0,0-2-2H11a2,2,0,0,0-2,2v2H4V21A1,1,0,0,1,5,20ZM23,30H11V28H23Zm6,30H5a1,1,0,0,1-1-1V32H30V59A1,1,0,0,1,29,60Z"></path><path d="M21,52a3,3,0,1,0,3,3A3,3,0,0,0,21,52Zm0,4a1,1,0,1,1,1-1A1,1,0,0,1,21,56Z"></path><rect x="26" y="54" width="2" height="2"></rect><path d="M61.6,11.2,59.2,9.4A7.04,7.04,0,0,0,55,8h-.789a6.979,6.979,0,0,0-5.735,3H46a1,1,0,0,0-1,1v4a1,1,0,0,0,1,1h1V40a1,1,0,0,0,1,1h4a1,1,0,0,0,1-1V19.883A7.024,7.024,0,0,0,54.208,20H55a7.04,7.04,0,0,0,4.2-1.4l2.4-1.8A1,1,0,0,0,62,16V12A1,1,0,0,0,61.6,11.2ZM47,13h1v2H47Zm2,26V37h2v2Zm2-4H49V17.669a6.975,6.975,0,0,0,2,1.548Zm3.208-17a4.99,4.99,0,0,1-4.158-2.223L50,15.7V12.3l.051-.076A4.989,4.989,0,0,1,54.211,10H55a4.946,4.946,0,0,1,1,.115v7.77A4.946,4.946,0,0,1,55,18ZM60,15.5,58,17V11l2,1.5Z"></path><path d="M43,5H40.524a6.979,6.979,0,0,0-5.735-3H34a7.04,7.04,0,0,0-4.2,1.4L27.4,5.2A1,1,0,0,0,27,6v4a1,1,0,0,0,.4.8l2.4,1.8A7.04,7.04,0,0,0,34,14h.792A7.024,7.024,0,0,0,36,13.883V34a1,1,0,0,0,1,1h4a1,1,0,0,0,1-1V11h1a1,1,0,0,0,1-1V6A1,1,0,0,0,43,5ZM29,9.5v-3L31,5v6ZM34,12a4.946,4.946,0,0,1-1-.115V4.115A4.946,4.946,0,0,1,34,4h.789a4.989,4.989,0,0,1,4.16,2.227L39,6.3V9.7l-.05.074A4.99,4.99,0,0,1,34.792,12Zm6-.331V29H38V13.217A6.975,6.975,0,0,0,40,11.669ZM38,33V31h2v2ZM42,9H41V7h1Z"></path></g></svg>