<svg xmlns="http://www.w3.org/2000/svg" viewBox="0 0 64 64" x="0px" y="0px"><g data-name="Mobile App-Location-Smartphone-Taxi-Technology"><rect x="44" y="16" width="4" height="2"></rect><path d="M46,12A14,14,0,0,0,34.34,33.75a1.012,1.012,0,0,1,.11.91l-1.74,4.63,4.64-1.74a1.03,1.03,0,0,1,.35-.06.939.939,0,0,1,.55.17A14,14,0,1,0,46,12ZM56,27v2a3.01,3.01,0,0,1-2,2.82V34a2.006,2.006,0,0,1-2,2H50a2.006,2.006,0,0,1-2-2V32H44v2a2.006,2.006,0,0,1-2,2H40a2.006,2.006,0,0,1-2-2V31.82A3.01,3.01,0,0,1,36,29V27a2.994,2.994,0,0,1,1.57-2.62L37.38,24H36V22h2a.977.977,0,0,1,.89.55l.11.21,2.11-4.21A.977.977,0,0,1,42,18V15a1,1,0,0,1,1-1h6a1,1,0,0,1,1,1v3a.977.977,0,0,1,.89.55L53,22.76l.11-.21A.977.977,0,0,1,54,22h2v2H54.62l-.19.38A2.994,2.994,0,0,1,56,27Z"></path><rect x="50" y="32" width="2" height="2"></rect><path d="M53,26H39a1,1,0,0,0-1,1v2a1,1,0,0,0,1,1H53a1,1,0,0,0,1-1V27A1,1,0,0,0,53,26ZM42,29H40V27h2Zm10,0H50V27h2Z"></path><polygon points="49.38 20 42.62 20 40.62 24 51.38 24 49.38 20"></polygon><rect x="40" y="32" width="2" height="2"></rect><path d="M24,54H20a1,1,0,0,0,0,2h4a1,1,0,0,0,0-2Z"></path><circle cx="22" cy="36" r="1"></circle><path d="M22,31a5.006,5.006,0,0,0-5,5c0,2.566,3.147,6.531,5,8.551,1.853-2.02,5-5.985,5-8.551A5.006,5.006,0,0,0,22,31Zm0,8a3,3,0,1,1,3-3A3,3,0,0,1,22,39Z"></path><path d="M36,4H8A4,4,0,0,0,4,8V56a4,4,0,0,0,4,4H36a4,4,0,0,0,4-4V40.82a14.828,14.828,0,0,1-2.42-1.22l-6.23,2.34A1.03,1.03,0,0,1,31,42a1.007,1.007,0,0,1-.71-.29,1.033,1.033,0,0,1-.23-1.06l2.34-6.23A15.978,15.978,0,0,1,40,11.18V8A4,4,0,0,0,36,4ZM19,6h6V8H19ZM15,6h2V8H15Zm-1,9H24v2H14Zm-4,0h2v2H10Zm0,4H24v2H10Zm14,4v2H22V23ZM10,23H20v2H10ZM24,58H20a3,3,0,0,1,0-6h4a3,3,0,0,1,0,6ZM22.71,46.71a1.014,1.014,0,0,1-1.42,0C20.65,46.06,15,40.29,15,36a7,7,0,0,1,14,0C29,40.29,23.35,46.06,22.71,46.71Z"></path></g></svg>