<svg xmlns="http://www.w3.org/2000/svg" viewBox="0 0 64 64" x="0px" y="0px"><g><path d="M41.039,32.9c.247-.235.761-.723.761-.9s-.514-.661-.761-.9A4.221,4.221,0,0,1,39.8,29.465a4.354,4.354,0,0,1,.031-2.108,3.284,3.284,0,0,0,.094-1.122,3.4,3.4,0,0,0-1.1-.255,4.307,4.307,0,0,1-2-.615,4.268,4.268,0,0,1-1.191-1.7,3.179,3.179,0,0,0-.6-.985,3.694,3.694,0,0,0-1,.434A4.4,4.4,0,0,1,32,23.8a4.4,4.4,0,0,1-2.023-.689,3.686,3.686,0,0,0-1-.432h-.02a3.373,3.373,0,0,0-.589.982,4.275,4.275,0,0,1-1.19,1.7,4.314,4.314,0,0,1-2,.615,3.248,3.248,0,0,0-1.109.262,3.415,3.415,0,0,0,.1,1.115,4.35,4.35,0,0,1,.031,2.107,4.217,4.217,0,0,1-1.238,1.64c-.247.235-.761.723-.761.9s.514.661.761.9A4.221,4.221,0,0,1,24.2,34.535a4.354,4.354,0,0,1-.031,2.108,3.284,3.284,0,0,0-.094,1.122,3.4,3.4,0,0,0,1.1.255,4.307,4.307,0,0,1,2,.615,4.268,4.268,0,0,1,1.191,1.7,3.179,3.179,0,0,0,.6.985,3.923,3.923,0,0,0,1-.434A4.4,4.4,0,0,1,32,40.2a4.4,4.4,0,0,1,2.023.689,2.806,2.806,0,0,0,1.016.431,3.373,3.373,0,0,0,.589-.982,4.275,4.275,0,0,1,1.19-1.7,4.314,4.314,0,0,1,2-.615,3.248,3.248,0,0,0,1.109-.262,3.415,3.415,0,0,0-.1-1.115,4.35,4.35,0,0,1-.031-2.107A4.217,4.217,0,0,1,41.039,32.9ZM32,39a7,7,0,1,1,7-7A7.008,7.008,0,0,1,32,39Z"></path><path d="M60,38V30H42.771A2.89,2.89,0,0,1,43.8,32a3.4,3.4,0,0,1-1.384,2.346,3.43,3.43,0,0,0-.713.807,3.393,3.393,0,0,0,.1,1.134A5.334,5.334,0,0,1,41.916,38Z"></path><path d="M42.02,49.355l2.235-.136-5.311-9.2a2.857,2.857,0,0,0-.949.23,3.423,3.423,0,0,0-.562.949,3.385,3.385,0,0,1-1.787,2.024,1.993,1.993,0,0,1-.619.1,3.119,3.119,0,0,1-1.309-.349l5.339,9.244,1.229-1.865L38.6,47.428l1.732-1Z"></path><circle cx="32" cy="32" r="5"></circle><path d="M60,26H41.916a5.334,5.334,0,0,1-.116,1.713c-.017.092-.034.19-.05.287H60Z"></path><path d="M4,38H22.084a5.334,5.334,0,0,1,.116-1.713,3.393,3.393,0,0,0,.1-1.134,3.43,3.43,0,0,0-.713-.807A3.4,3.4,0,0,1,20.2,32a2.89,2.89,0,0,1,1.029-2H4Z"></path><path d="M4,26v2H22.25c-.016-.1-.033-.2-.05-.287A5.334,5.334,0,0,1,22.084,26Z"></path><path d="M24.943,52.218l5.336-9.238a2.57,2.57,0,0,1-1.925.245A3.385,3.385,0,0,1,26.567,41.2,3.4,3.4,0,0,0,26,40.252a2.85,2.85,0,0,0-.948-.23l-5.311,9.2,2.235.136,1.69-2.927,1.732,1-1.688,2.925Z"></path></g></svg>