<svg xmlns="http://www.w3.org/2000/svg" viewBox="0 0 64 64" x="0px" y="0px"><g data-name="Bone Fracture"><path d="M59.316,14.826a8,8,0,0,0-7.925-2.276l-.113-.112A7.994,7.994,0,0,0,49,4.513,8.09,8.09,0,0,0,38,4.621a8.005,8.005,0,0,0-.761,10.658l-9.942,9.943a1,1,0,0,0-.293.707v2.829a1,1,0,0,0,1.11.994l5.081-.565-.524,3.671A1,1,0,0,0,33.657,34h2.21l1.138,2.275a1,1,0,0,0,.734.54.977.977,0,0,0,.16.013.994.994,0,0,0,.707-.293l9.943-9.942a8.006,8.006,0,0,0,10.659-.761A8.091,8.091,0,0,0,59.316,14.826Zm-1.545,9.615a5.954,5.954,0,0,1-4.265,1.83,5.83,5.83,0,0,1-4.293-1.756,1,1,0,0,0-1.414,0L38.174,34.14l-.794-1.587a1,1,0,0,0-.9-.553H34.811l.543-3.809a1,1,0,0,0-.272-.837,1.011,1.011,0,0,0-.828-.3L29,27.641v-1.3L39.313,16.029a1,1,0,0,0,0-1.414,6,6,0,0,1,.074-8.556,6.067,6.067,0,0,1,8.253-.082A6,6,0,0,1,49.2,12.384a1,1,0,0,0,.235,1.042l.966.965a1,1,0,0,0,1.042.235,6.007,6.007,0,0,1,6.408,1.562A6.069,6.069,0,0,1,57.771,24.441Z"></path><path d="M33.38,35.553a1,1,0,0,0-.9-.553H29.63l.975-2.926a1,1,0,0,0-1.19-1.286L25,31.892V28.929a1,1,0,0,0-1.707-.707l-7.821,7.821a7.934,7.934,0,0,0-4.9-1.679H10.5A7.944,7.944,0,0,0,4.813,36.8a8.091,8.091,0,0,0-.109,11,8,8,0,0,0,7.926,2.277l.112.112a8,8,0,1,0,14.043-2.842l7.821-7.821a1,1,0,0,0,.188-1.154ZM24.707,46.606a1,1,0,0,0,0,1.415,6,6,0,0,1-.072,8.556,6.071,6.071,0,0,1-8.253.084,6.005,6.005,0,0,1-1.564-6.408,1,1,0,0,0-.235-1.042l-.965-.966a1,1,0,0,0-1.042-.235,6,6,0,0,1-6.407-1.564,6.066,6.066,0,0,1,.082-8.252,6,6,0,0,1,8.557-.073,1,1,0,0,0,1.414,0L23,31.343v1.829a1,1,0,0,0,1.242.97l3.89-.972-.838,2.514A1,1,0,0,0,28.242,37h3.625l.816,1.631Z"></path></g></svg>