<svg xmlns="http://www.w3.org/2000/svg" viewBox="0 0 64 64" x="0px" y="0px"><g><path d="M30,23v3h.586L32,24.586V20H28v.586l1.707,1.707A1,1,0,0,1,30,23Z"></path><path d="M55,49H33a5,5,0,0,0,0,10H55a5,5,0,0,0,0-10ZM35,57a3,3,0,1,1,3-3A3,3,0,0,1,35,57Zm9-2H42V53h2Zm4,0H46V53h2Zm4,0H50V53h2Zm4,0H54V53h2Z"></path><path d="M35,13a1,1,0,0,1,.707.293l5,5A1,1,0,0,1,41,19v6a1,1,0,0,1-.293.707L39,27.414v3.172l3.707,3.707A1,1,0,0,1,43,35h5.884A22.57,22.57,0,0,0,50,28,23.025,23.025,0,0,0,27,5V9.586L30.414,13Z"></path><path d="M19.622,6.208l2.085,2.085A1,1,0,0,1,22,9v4a1,1,0,0,1-.293.707L18,17.414V21a1,1,0,0,1-.293.707l-4,4A1,1,0,0,1,13,26H11v1.586l4.707,4.707A1,1,0,0,1,16,33v3a1,1,0,0,1-.293.707L13,39.414V42a1,1,0,0,1-.293.707l-1.751,1.751A22.924,22.924,0,0,0,26,50.975V48.414l-1.707-1.707A1,1,0,0,1,24,46V43H21a1,1,0,0,1-.707-.293l-2-2A1,1,0,0,1,18,40V37a1,1,0,0,1,.293-.707l4-4A1,1,0,0,1,23,32h8a1,1,0,0,1,.707.293L34.414,35h6.172l-3.293-3.293A1,1,0,0,1,37,31V27a1,1,0,0,1,.293-.707L39,24.586V19.414L34.586,15H30a1,1,0,0,1-.707-.293l-4-4A1,1,0,0,1,25,10V5.113A23.076,23.076,0,0,0,19.622,6.208ZM26,19a1,1,0,0,1,1-1h6a1,1,0,0,1,1,1v6a1,1,0,0,1-.293.707l-2,2A1,1,0,0,1,31,28H29a1,1,0,0,1-1-1V23.414l-1.707-1.707A1,1,0,0,1,26,21Z"></path><circle cx="35" cy="42" r="1"></circle><path d="M31.71,35.124,30.586,34H23.414L20,37.414v2.172L21.414,41H25a1,1,0,0,1,1,1A7.009,7.009,0,0,1,31.71,35.124Z"></path><path d="M28,48v1.111A7.045,7.045,0,0,1,29.413,48,7,7,0,0,1,26,42v3.586l1.707,1.707A1,1,0,0,1,28,48Z"></path><path d="M4,28A22.894,22.894,0,0,0,9.586,43L11,41.586V39a1,1,0,0,1,.293-.707L14,35.586V33.414L9.293,28.707A1,1,0,0,1,9,28V25a1,1,0,0,1,1-1h2.586L16,20.586V17a1,1,0,0,1,.293-.707L20,12.586V9.414L17.588,7A22.94,22.94,0,0,0,4,28Z"></path><path d="M55,37H33a5,5,0,0,0,0,10H55a5,5,0,0,0,0-10ZM35,45a3,3,0,1,1,3-3A3,3,0,0,1,35,45Zm9-2H42V41h2Zm4,0H46V41h2Zm4,0H50V41h2Zm4,0H54V41h2Z"></path><circle cx="35" cy="54" r="1"></circle></g></svg>