<svg xmlns="http://www.w3.org/2000/svg" viewBox="0 0 64 64" x="0px" y="0px"><g data-name="Racing Car"><path d="M55.92,41H59a1,1,0,0,0,1-1V39H57V37h3V35H56a2,2,0,0,1-2-2V31a2,2,0,0,1,2-2h1.889A6.971,6.971,0,0,0,53,27H23.677L34.491,41H42.08a6.991,6.991,0,0,1,13.84,0ZM33,31H29V29h4Z"></path><path d="M49,37a5,5,0,1,0,5,5A5.006,5.006,0,0,0,49,37Zm1,6H48V41h2Z"></path><path d="M17,37a5,5,0,1,0,5,5A5.006,5.006,0,0,0,17,37Zm1,6H16V41h2Z"></path><path d="M56,33h3.92a6.937,6.937,0,0,0-.605-2H56Z"></path><polygon points="40.799 25 30.687 18 26.227 18 19.288 21.318 22.132 25 40.799 25"></polygon><path d="M23.92,41h8.044L21.15,27H7.409L4,28.63V31H7v2H4v7a1,1,0,0,0,1,1h5.08a6.991,6.991,0,0,1,13.84,0Z"></path><polygon points="11.591 25 19.605 25 17.443 22.201 11.591 25"></polygon><path d="M11,20H5.414L3.707,18.293,2.293,19.707l2,2A1,1,0,0,0,5,22H7v2.61H9V22h2Z"></path></g></svg>