<svg xmlns="http://www.w3.org/2000/svg" viewBox="0 0 64 64" x="0px" y="0px"><rect x="4" y="47" width="24" height="3"></rect><rect x="4" y="42" width="24" height="3"></rect><rect x="30" y="42" width="4" height="13"></rect><path d="M5,55H28V52H4v2A1,1,0,0,0,5,55Z"></path><path d="M5,12a1,1,0,0,0-1,1V40H8.56A3.906,3.906,0,0,1,8,38V12Z"></path><rect x="30" y="12" width="4" height="28"></rect><path d="M28,12H16V34a2.006,2.006,0,0,1-2,2H12a2,2,0,0,0,0,4H28V34.04a8.964,8.964,0,0,1,0-16.08ZM21,27H19V25h2Z"></path><path d="M10,9V34.54A3.989,3.989,0,0,1,12,34h2V8H11A1,1,0,0,0,10,9Z"></path><path d="M28,31.73V20.27a6.972,6.972,0,0,0,0,11.46Z"></path><path d="M36,20.27V31.73a6.972,6.972,0,0,0,0-11.46Z"></path><path d="M60,13a1,1,0,0,0-1-1H53.07A8,8,0,0,0,60,18.93Z"></path><path d="M60,20.95A10.012,10.012,0,0,1,51.05,12H36v5.96a8.964,8.964,0,0,1,0,16.08V40H51.05A10.012,10.012,0,0,1,60,31.05ZM45,27H43V25h2Z"></path><rect x="36" y="47" width="24" height="3"></rect><rect x="36" y="42" width="24" height="3"></rect><path d="M60,54V52H36v3H59A1,1,0,0,0,60,54Z"></path><path d="M60,33.06A8.023,8.023,0,0,0,53.06,40H60Z"></path></svg>