<svg xmlns="http://www.w3.org/2000/svg" viewBox="0 0 64 64" x="0px" y="0px"><g><rect x="25" y="6" width="2" height="2"></rect><rect x="29" y="6" width="6" height="2"></rect><rect x="31" y="56" width="2" height="2"></rect><rect x="7" y="27" width="5" height="2"></rect><rect x="7" y="31" width="12" height="2"></rect><rect x="7" y="35" width="12" height="2"></rect><rect x="7" y="39" width="12" height="2"></rect><path d="M61.71,23.29l-6-6A1.033,1.033,0,0,0,55,17H52V8a6,6,0,0,0-6-6H18a6,6,0,0,0-6,6V21H5a3.009,3.009,0,0,0-3,3V44a3.009,3.009,0,0,0,3,3h7v9a6,6,0,0,0,6,6H46a6,6,0,0,0,6-6V43h7a3.009,3.009,0,0,0,3-3V24A1.033,1.033,0,0,0,61.71,23.29ZM56,20.41,58.59,23H57a1,1,0,0,1-1-1ZM14,8a4,4,0,0,1,4-4H46a4,4,0,0,1,4,4v2H14ZM5,45a1,1,0,0,1-1-1V24a1,1,0,0,1,1-1H16v3a3.009,3.009,0,0,0,3,3h3V44a1,1,0,0,1-1,1ZM18,26V24.41L20.59,27H19A1,1,0,0,1,18,26ZM50,56a4,4,0,0,1-4,4H18a4,4,0,0,1-4-4V54H50Zm0-4H14V47h7a3.009,3.009,0,0,0,3-3V28a1.033,1.033,0,0,0-.29-.71l-6-6A1.033,1.033,0,0,0,17,21H14V12H50v5H43a3.009,3.009,0,0,0-3,3V40a3.009,3.009,0,0,0,3,3h7ZM60,40a1,1,0,0,1-1,1H43a1,1,0,0,1-1-1V20a1,1,0,0,1,1-1H54v3a3.009,3.009,0,0,0,3,3h3Z"></path><rect x="45" y="23" width="5" height="2"></rect><rect x="45" y="27" width="12" height="2"></rect><rect x="45" y="31" width="12" height="2"></rect><rect x="45" y="35" width="12" height="2"></rect><path d="M37.707,41.293l-1.414,1.414L37.586,44H28v2h9.586l-1.293,1.293,1.414,1.414,3-3a1,1,0,0,0,0-1.414Z"></path><path d="M36,20V18H26.414l1.293-1.293-1.414-1.414-3,3a1,1,0,0,0,0,1.414l3,3,1.414-1.414L26.414,20Z"></path></g></svg>