<svg xmlns="http://www.w3.org/2000/svg" viewBox="0 0 64 64" x="0px" y="0px"><g><path d="M57,44H56V36h1a1,1,0,0,0,1-1V33a.984.984,0,0,0-.03-.242l-1-4A1,1,0,0,0,56,28H54a1,1,0,0,0-.97.758l-1,4A.984.984,0,0,0,52,33v2a1,1,0,0,0,1,1h1v8H53a3,3,0,0,0-3,3V59a3,3,0,0,0,3,3h4a3,3,0,0,0,3-3V47A3,3,0,0,0,57,44ZM54,33.123,54.781,30h.438L56,33.123V34H54ZM58,59a1,1,0,0,1-1,1H56V49H54V60H53a1,1,0,0,1-1-1V47a1,1,0,0,1,1-1h4a1,1,0,0,1,1,1Z"></path><circle cx="22" cy="21" r="2"></circle><circle cx="30" cy="21" r="2"></circle><path d="M29.307,27.75l-1.323-1.5a3.076,3.076,0,0,1-3.968,0l-1.323,1.5a5,5,0,0,0,6.614,0Z"></path><path d="M40.93,39.38A2.993,2.993,0,0,0,38,37a2.932,2.932,0,0,0-2.04.82l-1.79-.56A5.02,5.02,0,0,0,31,35.1V33.79A11.028,11.028,0,0,0,36.95,25H37a4,4,0,0,0,1.46-7.72c.03-.06.21-.38.21-.38A2.979,2.979,0,0,0,37,12.75V8.28a5,5,0,0,0-4.02-4.9l-6-1.2a4.974,4.974,0,0,0-1.96,0l-6,1.2A5,5,0,0,0,15,8.28v4.47a2.979,2.979,0,0,0-1.67,4.15s.18.32.21.38A4,4,0,0,0,15,25h.05a10.919,10.919,0,0,0,3.17,6.78A11.064,11.064,0,0,0,21,33.79V35.1a5.02,5.02,0,0,0-3.17,2.16l-1.79.56A2.932,2.932,0,0,0,14,37a2.993,2.993,0,0,0-2.93,2.38A8.949,8.949,0,0,0,5,47.88V61a1,1,0,0,0,1,1H46a1,1,0,0,0,1-1V47.88A8.949,8.949,0,0,0,40.93,39.38ZM37,19a2.006,2.006,0,0,1,2,2,2.015,2.015,0,0,1-2,2ZM15,23a2.015,2.015,0,0,1-2-2,2.006,2.006,0,0,1,2-2ZM35.04,39.62A2.45,2.45,0,0,0,35,40c0-.14-.03-.27-.04-.4ZM34,45a1,1,0,0,0,1-1v4H27.12l1.91-3.83A.992.992,0,0,0,31,44a1,1,0,0,1,2,0A1,1,0,0,0,34,45Zm-8,.76-3-6V34.58A11.09,11.09,0,0,0,26,35a10.665,10.665,0,0,0,3-.43v5.19ZM33,40v1.17a3.026,3.026,0,0,0-2,0v-4A3.014,3.014,0,0,1,33,40ZM17,8.28a3,3,0,0,1,2.41-2.94l6-1.2a2.931,2.931,0,0,1,1.18,0l6,1.2A3,3,0,0,1,35,8.28v4.09l-6.42-.98a16.537,16.537,0,0,0-5.16,0L17,12.37Zm-1.78,7.93-.1-.2a1.006,1.006,0,0,1,.01-.91.978.978,0,0,1,.73-.53l7.86-1.21a15.374,15.374,0,0,1,4.56,0l7.86,1.21A1,1,0,0,1,36.88,16l-.1.21a1.006,1.006,0,0,1-1.08.54l-7.37-1.34a12.589,12.589,0,0,0-4.66,0L16.3,16.75A1.006,1.006,0,0,1,15.22,16.21Zm4.42,14.15A8.942,8.942,0,0,1,17,24V18.65l7.03-1.28a11.1,11.1,0,0,1,3.94.01L35,18.65V24a8.994,8.994,0,0,1-15.36,6.36ZM19,40a3.014,3.014,0,0,1,2-2.83v4a3.026,3.026,0,0,0-2,0Zm-1,5a1,1,0,0,0,1-1,1,1,0,0,1,2,0,.992.992,0,0,0,1.97.17L24.88,48H17V44A1,1,0,0,0,18,45Zm-.96-5.4c-.01.13-.04.26-.04.4a2.45,2.45,0,0,0-.04-.38ZM13,60H7V56h6Zm0-6H7V47.88a6.947,6.947,0,0,1,4-6.31V50a3.01,3.01,0,0,0,2,2.82Zm1-3a1,1,0,0,1-1-1V40a1,1,0,0,1,2,0V50A1,1,0,0,1,14,51Zm23,9H15V52.82A3.01,3.01,0,0,0,17,50H35a3.01,3.01,0,0,0,2,2.82Zm1-9a1,1,0,0,1-1-1V40a1,1,0,0,1,2,0V50A1,1,0,0,1,38,51Zm7,9H39V56h6Zm0-6H39V52.82A3.01,3.01,0,0,0,41,50V41.57a6.947,6.947,0,0,1,4,6.31Z"></path></g></svg>