<svg xmlns="http://www.w3.org/2000/svg" viewBox="0 0 32 32" x="0px" y="0px"><title>File Plus</title><g data-name="File Plus"><path d="M6,2H20V8a1,1,0,0,0,1,1h5v8h2V8c0-.019-.009-.036-.01-.055a.941.941,0,0,0-.04-.223.775.775,0,0,0-.027-.094,1,1,0,0,0-.164-.279l-6-7a.986.986,0,0,0-.3-.23.946.946,0,0,0-.092-.04A.978.978,0,0,0,21.046.01C21.03.009,21.016,0,21,0H5A1,1,0,0,0,4,1V31a1,1,0,0,0,1,1H19V30H6ZM22,3.7,24.826,7H22Z"></path><path d="M25,18a7,7,0,1,0,7,7A7.008,7.008,0,0,0,25,18Zm0,12a5,5,0,1,1,5-5A5.006,5.006,0,0,1,25,30Z"></path><polygon points="26 24 26 21 24 21 24 24 21 24 21 26 24 26 24 29 26 29 26 26 29 26 29 24 26 24"></polygon></g></svg>