<svg xmlns="http://www.w3.org/2000/svg" viewBox="0 0 64 64" x="0px" y="0px"><g><path d="M10,35H22a1,1,0,0,0,1-1V32a1,1,0,0,0-1-1H21v2H19V31H17v2H15V31H13v2H11V31H10a1,1,0,0,0-1,1v2A1,1,0,0,0,10,35Z"></path><path d="M22,41a1,1,0,0,0,1-1V38a1,1,0,0,0-1-1H21v2H19V37H17v2H15V37H13v2H11V37H10a1,1,0,0,0-1,1v2a1,1,0,0,0,1,1Z"></path><path d="M25.16,28.85l1.01-1.75a9.783,9.783,0,0,1-2.27-2.27l-1.75,1.01A12.3,12.3,0,0,0,25.16,28.85Z"></path><path d="M25,32v2a1,1,0,0,0,1,1H38a1,1,0,0,0,1-1V32a1.009,1.009,0,0,0-.31-.71,12.879,12.879,0,0,1-1.69.77V33H35v-.33a13.8,13.8,0,0,1-6,0V33H27v-.94a12.879,12.879,0,0,1-1.69-.77A1.009,1.009,0,0,0,25,32Z"></path><path d="M20.05,20a11.873,11.873,0,0,0,1.11,4.11l1.73-1.01a9.748,9.748,0,0,1-.84-3.1Z"></path><path d="M10,25a1,1,0,0,0-1,1v2a1,1,0,0,0,1,1H22a1.108,1.108,0,0,0,.19-.02A14.276,14.276,0,0,1,20.53,27H19V25H17v2H15V25H13v2H11V25Z"></path><path d="M36.1,28.11a9.748,9.748,0,0,1-3.1.84v2a11.873,11.873,0,0,0,4.11-1.11Z"></path><path d="M52,55H12v1a1,1,0,0,0,1,1H51a1,1,0,0,0,1-1Z"></path><path d="M4.1,49A5.009,5.009,0,0,0,9,53H55a5.009,5.009,0,0,0,4.9-4Z"></path><path d="M33,7.05v2a9.748,9.748,0,0,1,3.1.84l1.01-1.73A11.873,11.873,0,0,0,33,7.05Z"></path><path d="M24,19a8,8,0,1,0,8-8A8.011,8.011,0,0,0,24,19Zm12-2H34a1,1,0,0,0-1-1H31a1,1,0,0,0,0,2h2a3,3,0,0,1,0,6v1H31V24a3,3,0,0,1-3-3h2a1,1,0,0,0,1,1h2a1,1,0,0,0,0-2H31a3,3,0,0,1,0-6V13h2v1A3,3,0,0,1,36,17Z"></path><path d="M40.1,13.17l1.75-1.01a12.3,12.3,0,0,0-3.01-3.01L37.83,10.9A9.783,9.783,0,0,1,40.1,13.17Z"></path><path d="M31,28.95a9.748,9.748,0,0,1-3.1-.84l-1.01,1.73A11.873,11.873,0,0,0,31,30.95Z"></path><path d="M54,25H53v2H51V25H49v2H47V25H45v2H43.47a14.276,14.276,0,0,1-1.66,1.98A1.108,1.108,0,0,0,42,29H54a1,1,0,0,0,1-1V26A1,1,0,0,0,54,25Z"></path><path d="M31,7.05a11.873,11.873,0,0,0-4.11,1.11L27.9,9.89A9.748,9.748,0,0,1,31,9.05Z"></path><path d="M41.11,14.9a9.748,9.748,0,0,1,.84,3.1h2a11.873,11.873,0,0,0-1.11-4.11Z"></path><path d="M23.9,13.17a9.783,9.783,0,0,1,2.27-2.27L25.16,9.15a12.3,12.3,0,0,0-3.01,3.01Z"></path><path d="M20.05,18h2a9.748,9.748,0,0,1,.84-3.1l-1.73-1.01A11.873,11.873,0,0,0,20.05,18Z"></path><path d="M22,47a1,1,0,0,0,1-1V44a1,1,0,0,0-1-1H21v2H19V43H17v2H15V43H13v2H11V43H10a1,1,0,0,0-1,1v2a1,1,0,0,0,1,1Z"></path><path d="M43.95,20h-2a9.748,9.748,0,0,1-.84,3.1l1.73,1.01A11.873,11.873,0,0,0,43.95,20Z"></path><path d="M42,31a1,1,0,0,0-1,1v2a1,1,0,0,0,1,1H54a1,1,0,0,0,1-1V32a1,1,0,0,0-1-1H53v2H51V31H49v2H47V31H45v2H43V31Z"></path><path d="M37.83,27.1l1.01,1.75a12.3,12.3,0,0,0,3.01-3.01L40.1,24.83A9.783,9.783,0,0,1,37.83,27.1Z"></path><path d="M54,37H53v2H51V37H49v2H47V37H45v2H43V37H42a1,1,0,0,0-1,1v2a1,1,0,0,0,1,1H54a1,1,0,0,0,1-1V38A1,1,0,0,0,54,37Z"></path><path d="M54,47a1,1,0,0,0,1-1V44a1,1,0,0,0-1-1H53v2H51V43H49v2H47V43H45v2H43V43H42a1,1,0,0,0-1,1v2a1,1,0,0,0,1,1Z"></path><path d="M38,47a1,1,0,0,0,1-1V44a1,1,0,0,0-1-1H37v2H35V43H33v2H31V43H29v2H27V43H26a1,1,0,0,0-1,1v2a1,1,0,0,0,1,1Z"></path><path d="M38,41a1,1,0,0,0,1-1V38a1,1,0,0,0-1-1H37v2H35V37H33v2H31V37H29v2H27V37H26a1,1,0,0,0-1,1v2a1,1,0,0,0,1,1Z"></path></g></svg>