<svg xmlns="http://www.w3.org/2000/svg" viewBox="0 0 64 64" x="0px" y="0px"><g><rect x="8" y="20" width="24" height="2"></rect><rect x="8" y="24" width="24" height="2"></rect><rect x="8" y="28" width="24" height="2"></rect><path d="M13,15H11a1,1,0,0,1-1-1H8a3,3,0,0,0,3,3v1h2V17a3,3,0,0,0,0-6H11a1,1,0,0,1,0-2h2a1,1,0,0,1,1,1h2a3,3,0,0,0-3-3V6H11V7a3,3,0,0,0,0,6h2a1,1,0,0,1,0,2Z"></path><rect x="18" y="15" width="10" height="2"></rect><rect x="30" y="15" width="2" height="2"></rect><rect x="18" y="11" width="14" height="2"></rect><path d="M56,38H40a2,2,0,0,0-2,2V56a2,2,0,0,0,2,2H56a2,2,0,0,0,2-2V40A2,2,0,0,0,56,38Zm0,6H52V40h4ZM46,50V46h4v4Zm4,2v4H46V52Zm-6-2H40V46h4Zm2-6V40h4v4Zm6,2h4v4H52Zm-8-6v4H40V40ZM40,52h4v4H40Zm12,4V52h4v4Z"></path><path d="M59,22H52V7a5,5,0,0,0-5-5H7A5,5,0,0,0,2,7V53a4.987,4.987,0,0,0,4.1,4.9l1.41,1.41a.994.994,0,0,0,1.31.1L10.7,58h.76a11.835,11.835,0,0,0,1.17.46l.38,2.68A1,1,0,0,0,14,62h4a1,1,0,0,0,.99-.86l.38-2.68A11.835,11.835,0,0,0,20.54,58h.76l1.88,1.41a.994.994,0,0,0,1.31-.1L25.8,58H34v1a3.009,3.009,0,0,0,3,3H59a3.009,3.009,0,0,0,3-3V25A3.009,3.009,0,0,0,59,22ZM47,4a3.009,3.009,0,0,1,3,3V22H48V13a.971.971,0,0,0-.26-.67L40.25,4ZM39,5.61,44.75,12H40a1,1,0,0,1-1-1ZM4.75,54.98A2.965,2.965,0,0,1,4,53V51.15l1.54.22a10.291,10.291,0,0,0,.68,1.64Zm19.04-1.29,1.5,1.99-1.61,1.61-1.99-1.5a1.017,1.017,0,0,0-1.11-.06,8.664,8.664,0,0,1-2.35.98,1,1,0,0,0-.75.83L17.13,60H14.87l-.35-2.46a1,1,0,0,0-.75-.83,8.664,8.664,0,0,1-2.35-.98,1.017,1.017,0,0,0-1.11.06l-1.99,1.5L6.71,55.68l1.5-1.99a1.017,1.017,0,0,0,.06-1.11,8.664,8.664,0,0,1-.98-2.35,1,1,0,0,0-.83-.75L4,49.13V46.87l2.46-.35a1,1,0,0,0,.83-.75,8.664,8.664,0,0,1,.98-2.35,1.017,1.017,0,0,0-.06-1.11l-1.5-1.99,1.61-1.61,1.99,1.5a1.017,1.017,0,0,0,1.11.06,8.664,8.664,0,0,1,2.35-.98,1,1,0,0,0,.75-.83L14.87,36h2.26l.35,2.46a1,1,0,0,0,.75.83,8.664,8.664,0,0,1,2.35.98,1.017,1.017,0,0,0,1.11-.06l1.99-1.5,1.61,1.61-1.5,1.99a1.017,1.017,0,0,0-.06,1.11,8.664,8.664,0,0,1,.98,2.35,1,1,0,0,0,.83.75l2.46.35v2.26l-2.46.35a1,1,0,0,0-.83.75,8.664,8.664,0,0,1-.98,2.35A1.017,1.017,0,0,0,23.79,53.69ZM34,25V56H27.57a1,1,0,0,0-.16-.82l-1.63-2.17a10.291,10.291,0,0,0,.68-1.64l2.68-.38A1,1,0,0,0,30,50V46a1,1,0,0,0-.86-.99l-2.68-.38a10.291,10.291,0,0,0-.68-1.64l1.63-2.17a.994.994,0,0,0-.1-1.31l-2.82-2.82a.994.994,0,0,0-1.31-.1l-2.17,1.63a10.291,10.291,0,0,0-1.64-.68l-.38-2.68A1,1,0,0,0,18,34H14a1,1,0,0,0-.99.86l-.38,2.68a10.291,10.291,0,0,0-1.64.68L8.82,36.59a.994.994,0,0,0-1.31.1L4.69,39.51a.994.994,0,0,0-.1,1.31l1.63,2.17a10.291,10.291,0,0,0-.68,1.64L4,44.85V7A3.009,3.009,0,0,1,7,4H37v7a3.009,3.009,0,0,0,3,3h6v8H37A3.009,3.009,0,0,0,34,25ZM60,59a1,1,0,0,1-1,1H37a1,1,0,0,1-1-1V25a1,1,0,0,1,1-1H59a1,1,0,0,1,1,1Z"></path><path d="M56,26H40a2,2,0,0,0-2,2v6a2,2,0,0,0,2,2H56a2,2,0,0,0,2-2V28A2,2,0,0,0,56,26Zm0,8H40V28H56Z"></path><rect x="51" y="30" width="2" height="2"></rect><rect x="47" y="30" width="2" height="2"></rect><rect x="43" y="30" width="2" height="2"></rect><path d="M16,42a6,6,0,1,0,6,6A6.006,6.006,0,0,0,16,42Zm0,10a4,4,0,1,1,4-4A4,4,0,0,1,16,52Z"></path><rect x="15" y="38" width="2" height="2"></rect><rect x="8.636" y="40.636" width="2" height="2" transform="translate(-26.619 19.008) rotate(-45)"></rect><rect x="6" y="47" width="2" height="2"></rect><rect x="8.636" y="53.364" width="2" height="2" transform="translate(-35.619 22.736) rotate(-45)"></rect><rect x="15" y="56" width="2" height="2"></rect><rect x="21.364" y="53.364" width="2" height="2" transform="translate(-31.891 31.737) rotate(-45)"></rect><rect x="24" y="47" width="2" height="2"></rect><rect x="21.364" y="40.636" width="2" height="2" transform="translate(-22.891 28.009) rotate(-45)"></rect></g></svg>