<svg xmlns="http://www.w3.org/2000/svg" viewBox="0 0 64 64" x="0px" y="0px"><g data-name="Christmas Card-Xmas-Christmas-Greetings-Card"><path d="M35.05,36.57a1.022,1.022,0,0,1-.06-1.04,1.007,1.007,0,0,1,.89-.53H37.1l-3.05-4.43a1.022,1.022,0,0,1-.06-1.04,1.007,1.007,0,0,1,.89-.53h.95L32,24.54,28.17,29h.95a1.007,1.007,0,0,1,.89.53,1.022,1.022,0,0,1-.06,1.04L26.9,35h1.22a1.007,1.007,0,0,1,.89.53,1.022,1.022,0,0,1-.06,1.04L25.9,41H38.1ZM31,27h2v2H31Zm1,12H30V37h2Zm2-4H32V33h2Z"></path><path d="M23.12,10H46V5.56a1,1,0,0,0-.38-.79,1.022,1.022,0,0,0-.86-.18Z"></path><path d="M49,12H15a2.006,2.006,0,0,0-2,2V58a2.006,2.006,0,0,0,2,2H49a2.006,2.006,0,0,0,2-2V14A2.006,2.006,0,0,0,49,12ZM33,16h2v2H33Zm-4,0h2v2H29ZM15,16H27v2H15Zm8,9v2H21V25Zm-5-4v2H16V21ZM15,33h2V31h2v2h2v2H19v2H17V35H15ZM27,56H15V54H27Zm4,0H29V54h2Zm4,0H33V54h2Zm1-6H28V48h3V43H24a1,1,0,0,1-.82-1.57L26.22,37H25a1,1,0,0,1-.82-1.57L27.22,31H26a1,1,0,0,1-.91-.58,1.017,1.017,0,0,1,.15-1.07l6-7a1.04,1.04,0,0,1,1.52,0l6,7a1.017,1.017,0,0,1,.15,1.07A1,1,0,0,1,38,31H36.78l3.04,4.43A1,1,0,0,1,39,37H37.78l3.04,4.43A1,1,0,0,1,40,43H33v5h3Zm2-27V21h2v2ZM49,56H37V54H49ZM42,37V35h2v2Zm7-8H47v2H45V29H43V27h2V25h2v2h2Zm0-11H37V16H49Z"></path></g></svg>