<svg xmlns="http://www.w3.org/2000/svg" viewBox="0 0 64 64" x="0px" y="0px"><g><path d="M20.1,26H24V22.1A5.016,5.016,0,0,0,20.1,26Z"></path><path d="M25,32a5,5,0,0,0,1-9.9V27a1,1,0,0,1-1,1H20.1A5.009,5.009,0,0,0,25,32Z"></path><path d="M46,39.14l-3.4,5.9a1.009,1.009,0,0,1-.32.33l-3.73,2.46A1,1,0,0,1,37,46.94l.27-4.46a.942.942,0,0,1,.13-.44L46,27.14V12H10V52H46ZM38,22h2v2H38Zm0,4h2v2H38ZM14,17a1,1,0,0,1,1-1H25a1,1,0,0,1,1,1v3.08A7,7,0,1,1,18.08,28H15a1,1,0,0,1-1-1ZM35,48H22.5a3.5,3.5,0,0,1,0-7h6a1.5,1.5,0,0,0,0-3H14V36H28.5a3.5,3.5,0,0,1,0,7h-6a1.5,1.5,0,0,0,0,3H35Zm1-20H34V26h2Zm0-4H34V22h2Z"></path><path d="M24,20.08V18H16v8h2.08A7,7,0,0,1,24,20.08Z"></path><path d="M53.87,21.52a1,1,0,0,0-1.74-1l-.5.86,1.74,1Z"></path><polygon points="50.63 23.12 39.25 42.83 39.12 45.06 40.98 43.83 52.37 24.12 50.63 23.12"></polygon><path d="M46,54H10v2a4,4,0,0,0,4,4H42a4,4,0,0,0,4-4ZM29,58H27V56h2Z"></path><path d="M10,10H46V8a4,4,0,0,0-4-4H14a4,4,0,0,0-4,4ZM25,6h6V8H25ZM21,6h2V8H21Z"></path></g></svg>