<svg xmlns="http://www.w3.org/2000/svg" viewBox="0 0 64 64" x="0px" y="0px"><g data-name="Game Console"><path d="M59.45,17.992A3.007,3.007,0,0,0,56.624,16H7.376A3.007,3.007,0,0,0,4.55,17.992,43.411,43.411,0,0,0,2,32,43.411,43.411,0,0,0,4.55,46.008,3.007,3.007,0,0,0,7.376,48H56.624a3.007,3.007,0,0,0,2.826-1.992A43.411,43.411,0,0,0,62,32,43.411,43.411,0,0,0,59.45,17.992ZM57.566,45.336a1,1,0,0,1-.942.664H7.376a1,1,0,0,1-.942-.664A41.346,41.346,0,0,1,4,32,41.346,41.346,0,0,1,6.434,18.664,1,1,0,0,1,7.376,18H56.624a1,1,0,0,1,.942.664A41.346,41.346,0,0,1,60,32,41.346,41.346,0,0,1,57.566,45.336Z"></path><path d="M10,32a4,4,0,1,0,4,4A4,4,0,0,0,10,32Zm0,6a2,2,0,1,1,2-2A2,2,0,0,1,10,38Z"></path><rect x="8" y="20" width="2" height="2"></rect><rect x="54" y="20" width="2" height="2"></rect><path d="M47,22H17a1,1,0,0,0-1,1V41a1,1,0,0,0,1,1H47a1,1,0,0,0,1-1V23A1,1,0,0,0,47,22ZM46,40H18V24H46Z"></path><rect x="53" y="32" width="2" height="2"></rect><rect x="56" y="35" width="2" height="2"></rect><rect x="53" y="38" width="2" height="2"></rect><rect x="50" y="35" width="2" height="2"></rect><rect x="7" y="26" width="2" height="2"></rect><rect x="11" y="26" width="2" height="2"></rect></g></svg>