<svg xmlns="http://www.w3.org/2000/svg" viewBox="0 0 64 64" x="0px" y="0px"><g data-name="Mobile Phone"><path d="M23,54H21a1,1,0,0,0,0,2h2a1,1,0,0,0,0-2Z"></path><path d="M33,47H31a1,1,0,0,0,0,2h2a1,1,0,0,0,0-2Z"></path><path d="M33,40H31a1,1,0,0,0,0,2h2a1,1,0,0,0,0-2Z"></path><path d="M23,47H21a1,1,0,0,0,0,2h2a1,1,0,0,0,0-2Z"></path><path d="M23,40H21a1,1,0,0,0,0,2h2a1,1,0,0,0,0-2Z"></path><path d="M41,33a1,1,0,0,0-1-1H36a1,1,0,0,0,0,2h4A1,1,0,0,0,41,33Z"></path><path d="M33,54H31a1,1,0,0,0,0,2h2a1,1,0,0,0,0-2Z"></path><path d="M43,47H41a1,1,0,0,0,0,2h2a1,1,0,0,0,0-2Z"></path><path d="M24,32a1,1,0,0,0,0,2h4a1,1,0,0,0,0-2Z"></path><path d="M43,40H41a1,1,0,0,0,0,2h2a1,1,0,0,0,0-2Z"></path><path d="M22,26H42a1,1,0,0,0,1-1V13a1,1,0,0,0-1-1H22a1,1,0,0,0-1,1V25A1,1,0,0,0,22,26Zm19-4H39V20h2Zm-5-8h4a1,1,0,0,1,1,1v3H39V16H36Z"></path><path d="M43,54H41a1,1,0,0,0,0,2h2a1,1,0,0,0,0-2Z"></path><path d="M48,7a3,3,0,0,0-3-3H19a3,3,0,0,0-3,3V57a3,3,0,0,0,3,3H45a3,3,0,0,0,3-3ZM28,6h8V8H28Zm-9,7a3,3,0,0,1,3-3H42a3,3,0,0,1,3,3V25a3,3,0,0,1-3,3H22a3,3,0,0,1-3-3ZM31,33a3,3,0,0,1-3,3H24a3,3,0,0,1,0-6h4A3,3,0,0,1,31,33ZM23,58H21a3,3,0,0,1,0-6h2a3,3,0,0,1,0,6Zm0-7H21a3,3,0,0,1,0-6h2a3,3,0,0,1,0,6Zm0-7H21a3,3,0,0,1,0-6h2a3,3,0,0,1,0,6ZM33,58H31a3,3,0,0,1,0-6h2a3,3,0,0,1,0,6Zm0-7H31a3,3,0,0,1,0-6h2a3,3,0,0,1,0,6Zm0-7H31a3,3,0,0,1,0-6h2a3,3,0,0,1,0,6Zm0-11a3,3,0,0,1,3-3h4a3,3,0,0,1,0,6H36A3,3,0,0,1,33,33ZM43,58H41a3,3,0,0,1,0-6h2a3,3,0,0,1,0,6Zm0-7H41a3,3,0,0,1,0-6h2a3,3,0,0,1,0,6Zm0-7H41a3,3,0,0,1,0-6h2a3,3,0,0,1,0,6Z"></path></g></svg>