<svg xmlns="http://www.w3.org/2000/svg" viewBox="0 0 64 64" x="0px" y="0px"><g data-name="Liquid Ban"><path d="M41.568,23.511A9.16,9.16,0,0,1,37,15.686V4a2,2,0,0,0-2-2H29a2,2,0,0,0-2,2V15.686a9.16,9.16,0,0,1-4.568,7.825A11.053,11.053,0,0,0,17,33V59a3,3,0,0,0,3,3H44a3,3,0,0,0,3-3V33A11.053,11.053,0,0,0,41.568,23.511ZM29,4h6V8H29ZM45,59a1,1,0,0,1-1,1H20a1,1,0,0,1-1-1V33a9.046,9.046,0,0,1,4.446-7.765A11.165,11.165,0,0,0,29,15.686V10h6v5.686a11.165,11.165,0,0,0,5.554,9.549A9.046,9.046,0,0,1,45,33Z"></path><path d="M35.536,34.636a1,1,0,0,0-.707.293L32,37.758l-2.829-2.829a1.029,1.029,0,0,0-1.414,0l-2.828,2.829a1,1,0,0,0,0,1.414L27.757,42l-2.828,2.828a1,1,0,0,0,0,1.414l2.828,2.829a1,1,0,0,0,1.414,0L32,46.242l2.829,2.829a1,1,0,0,0,1.414,0l2.828-2.829a1,1,0,0,0,0-1.414L36.243,42l2.828-2.828a1,1,0,0,0,0-1.414l-2.828-2.829A1,1,0,0,0,35.536,34.636Zm-1.414,6.657a1,1,0,0,0,0,1.414l2.828,2.828L35.536,46.95l-2.829-2.829a1,1,0,0,0-1.414,0L28.464,46.95,27.05,45.535l2.828-2.828a1,1,0,0,0,0-1.414L27.05,38.465l1.414-1.415,2.829,2.829a1.029,1.029,0,0,0,1.414,0l2.829-2.829,1.414,1.415Z"></path><path d="M32,30A12,12,0,1,0,44,42,12.013,12.013,0,0,0,32,30Zm0,22A10,10,0,1,1,42,42,10.011,10.011,0,0,1,32,52Z"></path></g></svg>