<svg xmlns="http://www.w3.org/2000/svg" viewBox="0 0 48 48" x="0px" y="0px"><g data-name="Credit Card-Payment"><path d="M36,7a1,1,0,0,0-1-1H5A1,1,0,0,0,4,7V9H36Z"></path><circle cx="38" cy="28" r="2"></circle><rect x="4" y="11" width="32" height="2"></rect><rect x="18" y="27" width="4" height="2"></rect><path d="M43,22H13a1,1,0,0,0-1,1V41a1,1,0,0,0,1,1H43a1,1,0,0,0,1-1V23A1,1,0,0,0,43,22ZM16,26a1,1,0,0,1,1-1h6a1,1,0,0,1,1,1v4a1,1,0,0,1-1,1H17a1,1,0,0,1-1-1ZM41,39a1,1,0,0,1-1,1H16a1,1,0,0,1-1-1V35a1,1,0,0,1,1-1H40a1,1,0,0,1,1,1Zm-3-7a4,4,0,1,1,4-4A4,4,0,0,1,38,32Z"></path><path d="M36,15v5H13a3.009,3.009,0,0,0-3,3v3H5a1,1,0,0,1-1-1V15Z"></path><rect x="17" y="36" width="22" height="2"></rect></g></svg>