<svg xmlns="http://www.w3.org/2000/svg" viewBox="0 0 64 64" x="0px" y="0px"><g data-name="Delivery"><rect x="6" y="37" width="2" height="2"></rect><rect x="2" y="37" width="2" height="2"></rect><rect x="7" y="41" width="2" height="2"></rect><rect x="3" y="41" width="2" height="2"></rect><rect x="28" y="21" width="2" height="4"></rect><rect x="32" y="21" width="3" height="2"></rect><path d="M50,37a5.006,5.006,0,0,0-5,5,4.948,4.948,0,0,0,1.026,3H25.974A4.948,4.948,0,0,0,27,42a5,5,0,0,0-10,0,4.948,4.948,0,0,0,1.026,3H2v2H50a5,5,0,0,0,0-10ZM23,43H21V41h2Zm28,0H49V41h2Z"></path><path d="M43,30V21a2,2,0,0,1,2-2h4.586l-1.707-1.707A1.009,1.009,0,0,0,47.172,17H13a1,1,0,0,0-1,1V40a1,1,0,0,0,1,1h2.08a6.991,6.991,0,0,1,13.84,0H43.08a6.991,6.991,0,0,1,13.84,0H59a1,1,0,0,0,1-1V32H45A2,2,0,0,1,43,30Zm-6,1a2,2,0,0,1-2,2H23a2,2,0,0,1-2-2V21a2,2,0,0,1,2-2H35a2,2,0,0,1,2,2Z"></path><rect x="23" y="21" width="3" height="2"></rect><path d="M32,25v1a1,1,0,0,1-1,1H27a1,1,0,0,1-1-1V25H23v6H35V25Z"></path><polygon points="51.586 21 45 21 45 30 60 30 60 29.414 51.586 21"></polygon><rect x="14" y="29" width="5" height="2"></rect><rect x="16" y="25" width="3" height="2"></rect><rect x="17" y="21" width="2" height="2"></rect></g></svg>