<svg xmlns="http://www.w3.org/2000/svg" viewBox="0 0 64 64" x="0px" y="0px"><g><path d="M15,62H5a3,3,0,0,1-3-3V49a3,3,0,0,1,3-3H6v2H5a1,1,0,0,0-1,1V59a1,1,0,0,0,1,1H15a1,1,0,0,0,1-1V56h2v3A3,3,0,0,1,15,62Z"></path><rect x="52" y="33" width="4" height="4"></rect><rect x="52" y="43" width="4" height="4"></rect><rect x="28" y="23" width="4" height="4"></rect><rect x="52" y="23" width="4" height="4"></rect><path d="M56,11H28v6H56ZM46,15H44V13h2Zm4,0H48V13h2Zm4,0H52V13h2Z"></path><rect x="40" y="43" width="4" height="4"></rect><rect x="40" y="23" width="4" height="4"></rect><rect x="40" y="33" width="4" height="4"></rect><path d="M24,51H60V7H24Zm22-3a1,1,0,0,1-1,1H39a1,1,0,0,1-1-1V42a1,1,0,0,1,1-1h6a1,1,0,0,1,1,1Zm0-10a1,1,0,0,1-1,1H39a1,1,0,0,1-1-1V32a1,1,0,0,1,1-1h6a1,1,0,0,1,1,1Zm0-10a1,1,0,0,1-1,1H39a1,1,0,0,1-1-1V22a1,1,0,0,1,1-1h6a1,1,0,0,1,1,1ZM58,48a1,1,0,0,1-1,1H51a1,1,0,0,1-1-1V42a1,1,0,0,1,1-1h6a1,1,0,0,1,1,1Zm0-10a1,1,0,0,1-1,1H51a1,1,0,0,1-1-1V32a1,1,0,0,1,1-1h6a1,1,0,0,1,1,1Zm0-10a1,1,0,0,1-1,1H51a1,1,0,0,1-1-1V22a1,1,0,0,1,1-1h6a1,1,0,0,1,1,1ZM26,10a1,1,0,0,1,1-1H57a1,1,0,0,1,1,1v8a1,1,0,0,1-1,1H27a1,1,0,0,1-1-1Zm0,12a1,1,0,0,1,1-1h6a1,1,0,0,1,1,1v6a1,1,0,0,1-1,1H27a1,1,0,0,1-1-1Zm0,10a1,1,0,0,1,1-1h6a1,1,0,0,1,1,1v6a1,1,0,0,1-1,1H27a1,1,0,0,1-1-1Zm0,10a1,1,0,0,1,1-1h6a1,1,0,0,1,1,1v6a1,1,0,0,1-1,1H27a1,1,0,0,1-1-1Z"></path><rect x="8" y="7" width="2" height="44"></rect><rect x="28" y="43" width="4" height="4"></rect><path d="M21,54a1,1,0,0,0,1-1V5a1,1,0,0,0-1-1H13a1,1,0,0,0-1,1V53a1,1,0,0,0,1,1Zm-5-4h2v2H16Z"></path><rect x="28" y="33" width="4" height="4"></rect></g></svg>