<svg xmlns="http://www.w3.org/2000/svg" viewBox="0 0 64 64" x="0px" y="0px"><g><path d="M59,60V48h1a1,1,0,0,0,1-1V43a1,1,0,0,0-1-1H53V37.82a3,3,0,1,0-2,0V42H34a1,1,0,0,0-1,1v4a1,1,0,0,0,1,1h1V60H2v2H62V60ZM52,34a1,1,0,1,1-1,1A1,1,0,0,1,52,34ZM35,44H59v2H35ZM45,60H41V54h4Zm12,0H47V53a1,1,0,0,0-1-1H40a1,1,0,0,0-1,1v7H37V48H57Z"></path><path d="M50,58h4a1,1,0,0,0,1-1V53a1,1,0,0,0-1-1H50a1,1,0,0,0-1,1v4A1,1,0,0,0,50,58Zm1-4h2v2H51Z"></path><path d="M48,4H37V3a1,1,0,0,0-1-1H28a1,1,0,0,0-1,1V4H16a1,1,0,0,0-1,1v8a1,1,0,0,0,1,1H27v1a1,1,0,0,0,1,1h.56A3.906,3.906,0,0,0,28,18a1,1,0,0,0,1,1h6a1,1,0,0,0,1-1,3.906,3.906,0,0,0-.56-2H36a1,1,0,0,0,1-1V14H48a1,1,0,0,0,1-1V5A1,1,0,0,0,48,4ZM21,12H17V10h4Zm0-4H17V6h4Zm6,4H23V10h4Zm0-4H23V6h4Zm3.27,9a2,2,0,0,1,3.46,0ZM35,14H29V4h6Zm6-2H37V10h4Zm0-4H37V6h4Zm6,4H43V10h4Zm0-4H43V6h4Z"></path><path d="M25.536,19.535l-1.414-1.414a3,3,0,0,1-4.244,0l-1.414,1.414a5.007,5.007,0,0,0,7.072,0Z"></path><path d="M15.636,22.364a9.01,9.01,0,0,0,12.728,0L26.95,20.95a7.009,7.009,0,0,1-9.9,0Z"></path><path d="M45.536,19.535l-1.414-1.414a3,3,0,0,1-4.244,0l-1.414,1.414a5.007,5.007,0,0,0,7.072,0Z"></path><path d="M46.95,20.95a7.009,7.009,0,0,1-9.9,0l-1.414,1.414a9.01,9.01,0,0,0,12.728,0Z"></path><rect x="31" y="10" width="2" height="2"></rect><path d="M45.879,32.879a3,3,0,0,0,0,4.242l1.414-1.414a1,1,0,0,1,0-1.414Z"></path><path d="M45.171,32.172l-1.414-1.414a6,6,0,0,0,0,8.484l1.414-1.414a4,4,0,0,1,0-5.656Z"></path><path d="M58.121,37.121a3,3,0,0,0,0-4.242l-1.414,1.414a1,1,0,0,1,0,1.414Z"></path><path d="M58.829,37.828l1.414,1.414a6,6,0,0,0,0-8.484l-1.414,1.414a4,4,0,0,1,0,5.656Z"></path><path d="M5,56h8a3,3,0,0,0,3-3V39a3,3,0,0,0-3-3H5a3,3,0,0,0-3,3V53A3,3,0,0,0,5,56ZM4,39a1,1,0,0,1,1-1h8a1,1,0,0,1,1,1V53a1,1,0,0,1-1,1H5a1,1,0,0,1-1-1Z"></path><path d="M7.586,45.586,9,47l1.414-1.414A2,2,0,0,0,7.586,45.586Z"></path><path d="M11.122,44.879l1.414-1.414a5.008,5.008,0,0,0-7.072,0l1.414,1.414A3,3,0,0,1,11.122,44.879Z"></path><rect x="8" y="50" width="2" height="2"></rect><rect x="18" y="39" width="2" height="2"></rect><rect x="22" y="39" width="2" height="2"></rect><rect x="26" y="39" width="2" height="2"></rect><rect x="20" y="43" width="2" height="2"></rect><rect x="24" y="43" width="2" height="2"></rect><rect x="28" y="43" width="2" height="2"></rect><rect x="18" y="47" width="2" height="2"></rect><rect x="22" y="47" width="2" height="2"></rect><rect x="26" y="47" width="2" height="2"></rect><rect x="20" y="51" width="2" height="2"></rect><rect x="24" y="51" width="2" height="2"></rect><rect x="28" y="51" width="2" height="2"></rect></g></svg>