<svg xmlns="http://www.w3.org/2000/svg" viewBox="0 0 64 64" x="0px" y="0px"><g data-name="Money Transfer"><path d="M32,42A10,10,0,1,0,22,32,10.011,10.011,0,0,0,32,42Zm0-18a8,8,0,1,1-8,8A8.009,8.009,0,0,1,32,24Z"></path><path d="M32,35a1,1,0,0,1-1-1H29a3,3,0,0,0,2,2.816V38h2V36.816A2.993,2.993,0,0,0,32,31a1,1,0,1,1,1-1h2a3,3,0,0,0-2-2.816V26H31v1.184A2.993,2.993,0,0,0,32,33a1,1,0,0,1,0,2Z"></path><path d="M49,57a3,3,0,0,1-3,3H18a3,3,0,0,1-3-3V37H13V57a5.006,5.006,0,0,0,5,5H46a5.006,5.006,0,0,0,5-5V44H49Z"></path><rect x="48" y="31" width="2" height="2"></rect><path d="M15,7a3,3,0,0,1,3-3H46a3,3,0,0,1,3,3V20h2V7a5.006,5.006,0,0,0-5-5H18a5.006,5.006,0,0,0-5,5V27h2Z"></path><path d="M48,22V7a2,2,0,0,0-2-2H40.535a2,2,0,0,0-1.581.775L37.612,7H26.388L25.046,5.775A2,2,0,0,0,23.465,5H18a2,2,0,0,0-2,2V27h2V7h5.465a.986.986,0,0,0,.158.184l1.7,1.555A1,1,0,0,0,26,9H38a1,1,0,0,0,.674-.261l1.7-1.555A1.025,1.025,0,0,0,40.535,7H46V22Z"></path><rect x="44" y="31" width="2" height="2"></rect><path d="M48,52V42H46V52H18V37H16V52a2,2,0,0,0,2,2H46A2,2,0,0,0,48,52Z"></path><rect x="29" y="56" width="6" height="2"></rect><path d="M15.293,34.293l1.414,1.414,3-3a1,1,0,0,0,0-1.414l-3-3-1.414,1.414L16.586,31H10v2h6.586Z"></path><path d="M61.707,31.293l-3-3-1.414,1.414L58.586,31H52v2h6.586l-1.293,1.293,1.414,1.414,3-3A1,1,0,0,0,61.707,31.293Z"></path><path d="M46,24v2h6.586l-1.293,1.293,1.414,1.414,3-3a1,1,0,0,0,0-1.414l-3-3-1.414,1.414L52.586,24Z"></path><path d="M52.707,35.293l-1.414,1.414L52.586,38H46v2h6.586l-1.293,1.293,1.414,1.414,3-3a1,1,0,0,0,0-1.414Z"></path><rect x="6" y="31" width="2" height="2"></rect><rect x="2" y="31" width="2" height="2"></rect><rect x="42" y="38" width="2" height="2"></rect><rect x="42" y="24" width="2" height="2"></rect><rect x="31" y="15" width="2" height="2"></rect><rect x="35" y="15" width="2" height="2"></rect><rect x="27" y="15" width="2" height="2"></rect></g></svg>