<svg xmlns="http://www.w3.org/2000/svg" viewBox="0 0 64 64" x="0px" y="0px"><g data-name="Bar"><path d="M59,32a3,3,0,0,0-3,3v3H44V25a3,3,0,0,0-6,0v3H26V13a3,3,0,0,0-6,0v3H8V13a3,3,0,0,0-6,0V61a1,1,0,0,0,1,1H7a1,1,0,0,0,1-1V22H20V61a1,1,0,0,0,1,1h4a1,1,0,0,0,1-1V34H38V61a1,1,0,0,0,1,1h4a1,1,0,0,0,1-1V44H56V61a1,1,0,0,0,1,1h4a1,1,0,0,0,1-1V35A3,3,0,0,0,59,32ZM58,54h2v2H58Zm0-19a1,1,0,0,1,2,0V52H58ZM40,54h2v2H40Zm0-29a1,1,0,0,1,2,0V52H40ZM24,52H22V50h2Zm-2,2h2v2H22Zm0-41a1,1,0,0,1,2,0V48H22ZM4,50H6v2H4Zm0,4H6v2H4ZM5,12a1,1,0,0,1,1,1V48H4V13A1,1,0,0,1,5,12ZM6,60H4V58H6ZM8,20V18H20v2ZM24,60H22V58h2Zm2-28V30H38v2ZM42,60H40V58h2Zm2-18V40H56v2ZM60,60H58V58h2Z"></path></g></svg>