<svg xmlns="http://www.w3.org/2000/svg" viewBox="0 0 64 64" x="0px" y="0px"><g><path d="M34,19v3H60V19a3,3,0,0,0-3-3H37A3,3,0,0,0,34,19Zm10-1h2v2H44Zm-4,0h2v2H40Zm-2,2H36V18h2Z"></path><polygon points="48 31.123 47.219 28 46.781 28 46 31.123 46 32 48 32 48 31.123"></polygon><circle cx="16" cy="29" r="4"></circle><path d="M34,57a3,3,0,0,0,3,3H57a3,3,0,0,0,3-3V24H34Zm8-15a2,2,0,0,1,2-2h2V34H45a1,1,0,0,1-1-1V31a1,1,0,0,1,.03-.243l1-4A1,1,0,0,1,46,26h2a1,1,0,0,1,.97.757l1,4A1,1,0,0,1,50,31v2a1,1,0,0,1-1,1H48v6h2a2,2,0,0,1,2,2V56a2,2,0,0,1-2,2H44a2,2,0,0,1-2-2Z"></path><polygon points="46 45 48 45 48 56 50.001 56 50 42 44 42 44 56 46 56 46 45"></polygon><path d="M26,50H22a1,1,0,0,0,0,2h4a1,1,0,0,0,0-2Z"></path><path d="M25.286,21.315l-1.6-1.6L21.7,21.206a1,1,0,0,1-1.111.06,8.892,8.892,0,0,0-2.356-.975,1,1,0,0,1-.743-.828L17.133,17H14.867l-.352,2.463a1,1,0,0,1-.743.828,8.892,8.892,0,0,0-2.356.975,1,1,0,0,1-1.111-.06l-1.99-1.492-1.6,1.6,1.493,1.991a1,1,0,0,1,.059,1.111,8.871,8.871,0,0,0-.975,2.355,1,1,0,0,1-.828.743L4,27.867v2.266l2.463.352a1,1,0,0,1,.828.743,8.892,8.892,0,0,0,.975,2.356,1,1,0,0,1-.06,1.111l-1.492,1.99,1.6,1.6,1.99-1.492a1,1,0,0,1,1.111-.06,8.892,8.892,0,0,0,2.356.975,1,1,0,0,1,.743.828L14.867,41h2.266l.352-2.463a1,1,0,0,1,.743-.828,8.892,8.892,0,0,0,2.356-.975,1,1,0,0,1,1.111.06l1.99,1.492,1.6-1.6L23.794,34.7a1,1,0,0,1-.06-1.111,8.892,8.892,0,0,0,.975-2.356,1,1,0,0,1,.828-.743L28,30.133V27.867l-2.463-.352a1,1,0,0,1-.828-.743,8.871,8.871,0,0,0-.975-2.355,1,1,0,0,1,.059-1.111ZM8,30H6V28H8Zm16-2h2v2H24Zm-9-9h2v2H15ZM8.222,22.636l1.414-1.414,1.414,1.414L9.636,24.05ZM9.636,36.778,8.222,35.364,9.636,33.95l1.414,1.414ZM17,39H15V37h2Zm-1-4a6,6,0,1,1,6-6A6.006,6.006,0,0,1,16,35Zm7.778.364-1.414,1.414L20.95,35.364l1.414-1.414ZM22.364,24.05,20.95,22.636l1.414-1.414,1.414,1.414Z"></path><path d="M35,4H13A5,5,0,0,0,8,9v8.42a.972.972,0,0,1,.82.17l2.17,1.63a10.291,10.291,0,0,1,1.64-.68l.38-2.68A1,1,0,0,1,14,15h4a1,1,0,0,1,.99.86l.38,2.68a10.291,10.291,0,0,1,1.64.68l2.17-1.63a.994.994,0,0,1,1.31.1l2.82,2.82a.994.994,0,0,1,.1,1.31l-1.63,2.17a10.291,10.291,0,0,1,.68,1.64l2.68.38A1,1,0,0,1,30,27v4a1,1,0,0,1-.86.99l-2.68.38a10.291,10.291,0,0,1-.68,1.64l1.63,2.17a.994.994,0,0,1-.1,1.31l-2.82,2.82a.994.994,0,0,1-1.31.1l-2.17-1.63a10.291,10.291,0,0,1-1.64.68l-.38,2.68A1,1,0,0,1,18,43H14a1,1,0,0,1-.99-.86l-.38-2.68a10.291,10.291,0,0,1-1.64-.68L8.82,40.41a.972.972,0,0,1-.82.17V51a5,5,0,0,0,5,5H32V19a5,5,0,0,1,5-5h3V9A5,5,0,0,0,35,4ZM17,8H15V6h2ZM29,8H19V6H29ZM26,54H22a3,3,0,0,1,0-6h4a3,3,0,0,1,0,6Z"></path></g></svg>