<svg xmlns="http://www.w3.org/2000/svg" viewBox="0 0 64 64" x="0px" y="0px"><title>Shopping Cart</title><g data-name="Shopping Cart"><path d="M58.755,19.345A1,1,0,0,0,58,19H54V10a1,1,0,0,0-1-1H42V6a1,1,0,0,0-1-1H27a1,1,0,0,0-1,1v7H20a1,1,0,0,0-1,1v5H15V3a1,1,0,0,0-1-1H6V4h7V52.1A5,5,0,1,0,18.9,58H39.1a5,5,0,1,0,0-2H18.9A5.016,5.016,0,0,0,15,52.1V49H54a1,1,0,0,0,.99-.858l4-28A1,1,0,0,0,58.755,19.345ZM44,54a3,3,0,1,1-3,3A3,3,0,0,1,44,54Zm8-43v8H42V11ZM28,7H40V19H31V14a1,1,0,0,0-1-1H28Zm-7,8h8v4H21ZM17,57a3,3,0,1,1-3-3A3,3,0,0,1,17,57ZM53.133,47H15V21H56.847Z"></path><rect x="13" y="56" width="2" height="2"></rect><rect x="43" y="56" width="2" height="2"></rect><rect x="19" y="23" width="2" height="22"></rect><rect x="25" y="23" width="2" height="22"></rect><rect x="31" y="23" width="2" height="22"></rect><rect x="37" y="23" width="2" height="22"></rect><rect x="43" y="23" width="2" height="22"></rect><rect x="49" y="23" width="2" height="22"></rect></g></svg>