<svg xmlns="http://www.w3.org/2000/svg" viewBox="0 0 64 64" x="0px" y="0px"><g><path d="M60,40H52V5a3,3,0,0,0-3-3H9A3,3,0,0,0,6,5V40H4a2,2,0,0,0-2,2V60a2,2,0,0,0,2,2H60a2,2,0,0,0,2-2V42A2,2,0,0,0,60,40ZM50,5V40H48V5a2.966,2.966,0,0,0-.184-1H49A1,1,0,0,1,50,5ZM46,5V40H44V5a2.966,2.966,0,0,0-.184-1H45A1,1,0,0,1,46,5ZM16,4V6.7l-.168-.252a1,1,0,0,0-1.664,0L14,6.7V4ZM8,5A1,1,0,0,1,9,4h3v6a1,1,0,0,0,1.832.555L15,8.8l1.168,1.752A1,1,0,0,0,18,10V4H41a1,1,0,0,1,1,1V40H8ZM60,60H4V42H60Z"></path><path d="M45,52H15a1,1,0,0,0-1,1v4a1,1,0,0,0,1,1H45a1,1,0,0,0,1-1V53A1,1,0,0,0,45,52Zm-1,4H16V54H44Z"></path><path d="M48,53v4a1,1,0,0,0,1,1h8a1,1,0,0,0,1-1V47a1,1,0,0,0-1-1H53a1,1,0,0,0-1,1v5H49A1,1,0,0,0,48,53Zm2,1h3a1,1,0,0,0,1-1V48h2v8H50Z"></path><path d="M11,52H7a1,1,0,0,0-1,1v4a1,1,0,0,0,1,1h4a1,1,0,0,0,1-1V53A1,1,0,0,0,11,52Zm-1,4H8V54h2Z"></path><path d="M29,50h4a1,1,0,0,0,1-1V45a1,1,0,0,0-1-1H29a1,1,0,0,0-1,1v4A1,1,0,0,0,29,50Zm1-4h2v2H30Z"></path><path d="M37,50h4a1,1,0,0,0,1-1V45a1,1,0,0,0-1-1H37a1,1,0,0,0-1,1v4A1,1,0,0,0,37,50Zm1-4h2v2H38Z"></path><path d="M45,50h4a1,1,0,0,0,1-1V45a1,1,0,0,0-1-1H45a1,1,0,0,0-1,1v4A1,1,0,0,0,45,50Zm1-4h2v2H46Z"></path><path d="M18,49V45a1,1,0,0,0-1-1H13a1,1,0,0,0-1,1v4a1,1,0,0,0,1,1h4A1,1,0,0,0,18,49Zm-2-1H14V46h2Z"></path><path d="M21,50h4a1,1,0,0,0,1-1V45a1,1,0,0,0-1-1H21a1,1,0,0,0-1,1v4A1,1,0,0,0,21,50Zm1-4h2v2H22Z"></path><rect x="12" y="13" width="4" height="2"></rect><rect x="18" y="13" width="8" height="2"></rect><rect x="12" y="17" width="16" height="2"></rect><rect x="12" y="23" width="2" height="2"></rect><rect x="16" y="23" width="22" height="2"></rect><rect x="12" y="27" width="20" height="2"></rect><rect x="34" y="27" width="4" height="2"></rect><rect x="12" y="31" width="26" height="2"></rect><rect x="12" y="35" width="26" height="2"></rect></g></svg>