<svg xmlns="http://www.w3.org/2000/svg" viewBox="0 0 64 64" x="0px" y="0px"><title>Cloud</title><g><path d="M55,2H9A2,2,0,0,0,7,4V60a2,2,0,0,0,2,2H55a2,2,0,0,0,2-2V4A2,2,0,0,0,55,2ZM40,4V6H24V4ZM23,12H41a1,1,0,0,0,1-1V8h9V56H13V8h9v3A1,1,0,0,0,23,12Zm17-2H24V8H40ZM9,60V4H22V6H12a1,1,0,0,0-1,1V57a1,1,0,0,0,1,1H52a1,1,0,0,0,1-1V7a1,1,0,0,0-1-1H42V4H55V60Z"></path><path d="M19,38a5.006,5.006,0,0,0,5,5H39a6,6,0,1,0-.257-11.994A8,8,0,0,0,23,33c0,.033,0,.067,0,.1A5.009,5.009,0,0,0,19,38Zm4.953-3c.039,0,.083.008.11.008a1.05,1.05,0,0,0,.768-.339,1,1,0,0,0,.239-.8,5.993,5.993,0,1,1,11.876-1.622,1,1,0,0,0,1.2.853A3.935,3.935,0,0,1,39,33a4,4,0,0,1,0,8H24a3,3,0,0,1-.047-6Z"></path></g></svg>