<svg xmlns="http://www.w3.org/2000/svg" viewBox="0 0 64 64" x="0px" y="0px"><g data-name="Fightinng Game-Esport-Gaming-Shield-Online"><polygon points="29.65 31.93 27.48 34.1 28.22 34.84 30.52 32.73 29.65 31.93"></polygon><polygon points="27.31 29.79 25.33 31.95 26.07 32.69 28.17 30.58 27.31 29.79"></polygon><path d="M20.41,35.51l-2.12-2.12a1.009,1.009,0,0,1-.29-.7,1.033,1.033,0,0,1,.29-.71l2.83-2.83a1.047,1.047,0,0,1,1.42,0l1.38,1.38,1.92-2.09L18.16,21.4a.986.986,0,0,1-.32-.62l-.42-3.81L16,17.59V27.87a23.055,23.055,0,0,0,2.21,9.85Z"></path><rect x="17.415" y="38.759" width="6" height="1.998" transform="translate(-22.133 26.08) rotate(-45)"></rect><polygon points="35.78 34.84 36.51 34.1 20.96 18.54 22.37 17.13 37.93 32.69 38.67 31.95 24.01 15.96 19.26 15.43 19.79 20.18 35.78 34.84"></polygon><rect x="34.341" y="34.513" width="10.002" height="2.005" transform="translate(-13.592 38.184) rotate(-44.959)"></rect><rect x="23.655" y="30.514" width="2.005" height="10.002" transform="translate(-17.896 27.868) rotate(-45.041)"></rect><path d="M10,13.66V27.87A28.923,28.923,0,0,0,20.53,50.23L32,59.7l11.47-9.47A28.923,28.923,0,0,0,54,27.87V13.66L32,4.09Zm33.7-.12,2.06-.23a.983.983,0,0,1,1.1,1.1l-.05.48,2.59,1.12a1.011,1.011,0,0,1,.6.92V27.87a25.2,25.2,0,0,1-2.72,11.34l1.26,1.25a1.008,1.008,0,0,1,0,1.42l-2.83,2.83a1.014,1.014,0,0,1-1.42,0l-.43-.44a24.082,24.082,0,0,1-2.93,2.87l-8.29,6.85a1.005,1.005,0,0,1-1.28,0l-8.29-6.85a24.082,24.082,0,0,1-2.93-2.87l-.43.44a1.014,1.014,0,0,1-1.42,0l-2.83-2.83a1.033,1.033,0,0,1-.29-.71,1.052,1.052,0,0,1,.29-.71l1.26-1.25A25.2,25.2,0,0,1,14,27.87V16.93a1.011,1.011,0,0,1,.6-.92l2.59-1.12-.05-.48a1,1,0,0,1,.28-.82,1.037,1.037,0,0,1,.82-.28l2.06.23L31.6,8.62a1.011,1.011,0,0,1,.8,0Z"></path><polygon points="34.41 24.35 41.62 17.13 43.04 18.55 35.76 25.82 36.81 26.97 44.21 20.19 44.74 15.43 39.99 15.96 33.36 23.2 34.41 24.35"></polygon><path d="M37.22,41.88a1,1,0,0,1-1.41,0l-2.83-2.83a1,1,0,0,1,0-1.41l1.38-1.39L32,34.09l-2.36,2.16,1.38,1.39a1,1,0,0,1,0,1.41l-2.83,2.83a1,1,0,0,1-1.41,0l-2.12-2.12-3.08,3.08a22.572,22.572,0,0,0,2.77,2.76L32,51.92l7.65-6.32a22.572,22.572,0,0,0,2.77-2.76l-3.08-3.08Z"></path><path d="M24.29,13.98l.31.04a.931.931,0,0,1,.63.31L32,21.72l6.77-7.39a1.024,1.024,0,0,1,.63-.31l.31-.04L32,10.63Z"></path><rect x="42.586" y="36.758" width="1.998" height="6" transform="translate(-15.35 42.394) rotate(-44.932)"></rect><path d="M40.08,30.53l1.38-1.38a1.007,1.007,0,0,1,.71-.29.99.99,0,0,1,.71.29l2.83,2.83a1,1,0,0,1,0,1.41l-2.12,2.12,2.2,2.21A23.055,23.055,0,0,0,48,27.87V17.59l-1.42-.62-.43,3.81a1.024,1.024,0,0,1-.31.63l-7.68,7.03Z"></path></g></svg>