<svg xmlns="http://www.w3.org/2000/svg" viewBox="0 0 64 64" x="0px" y="0px"><g data-name="Fingerprint Scan-Smartphone-Scan-Security"><path d="M27,54H23a1,1,0,0,0,0,2h4a1,1,0,0,0,0-2Z"></path><path d="M40,10a18.589,18.589,0,0,1,3,.24V8a4,4,0,0,0-4-4H11A4,4,0,0,0,7,8V56a4,4,0,0,0,4,4H39a4,4,0,0,0,4-4V47.76A18.589,18.589,0,0,1,40,48H22a1,1,0,0,1-1-1V29A19.017,19.017,0,0,1,40,10ZM22,6h6V8H22ZM18,6h2V8H18Zm5,46h4a3,3,0,0,1,0,6H23a3,3,0,0,1,0-6Z"></path><path d="M40,12A17.019,17.019,0,0,0,23,29V46H40a17,17,0,0,0,0-34Zm0,9a5.006,5.006,0,0,0-5,5H33a7,7,0,0,1,14,0v6H45V26A5.006,5.006,0,0,0,40,21Zm0,4a1,1,0,0,0-1,1v4H37V26a3,3,0,0,1,6,0v6a3,3,0,0,1-6,0h2a1,1,0,0,0,2,0V26A1,1,0,0,0,40,25ZM38.9,42.945A10.956,10.956,0,0,1,29,32V26a10.913,10.913,0,0,1,2.2-6.6l1.6,1.2A8.917,8.917,0,0,0,31,26v6a8.963,8.963,0,0,0,8.1,8.955ZM33,32V28h2v4a5,5,0,0,0,9.715,1.667l1.887.666A7,7,0,0,1,33,32Zm18,0a10.956,10.956,0,0,1-9.9,10.945l-.2-1.99A8.963,8.963,0,0,0,49,32V28h2Zm-2-6a9.01,9.01,0,0,0-9-9,8.917,8.917,0,0,0-5.4,1.8l-1.2-1.6A11,11,0,0,1,51,26Z"></path></g></svg>