<svg xmlns="http://www.w3.org/2000/svg" viewBox="0 0 64 64" x="0px" y="0px"><g data-name="Envelope"><path d="M61.707,26.293,48.868,13.454C47.864,7.013,40.689,2,32,2S16.136,7.013,15.132,13.454L2.293,26.293A1,1,0,0,0,2,27V59a3,3,0,0,0,3,3H59a3,3,0,0,0,3-3V27A1,1,0,0,0,61.707,26.293Zm-37.09,7.631a1,1,0,0,0,1.09-.217l5.723-5.723c.189.009.378.016.57.016,8.789,0,16.041-5.126,16.912-11.674L59.586,27l-9,9H13.414l-9-9L15.1,16.319c.561,4.316,3.845,8.089,8.9,10.145V33A1,1,0,0,0,24.617,33.924ZM32,4c8.271,0,15,4.935,15,11S40.271,26,32,26c-.227,0-.449-.012-.672-.023l-.245-.013a.994.994,0,0,0-.753.292L26,30.586V25.778a1,1,0,0,0-.656-.939C20.2,22.955,17,19.185,17,15,17,8.935,23.729,4,32,4ZM59,60H5a1,1,0,0,1-1-1V29.414l8.293,8.293A1,1,0,0,0,13,38H51a1,1,0,0,0,.707-.293L60,29.414V59A1,1,0,0,1,59,60Z"></path><rect x="23" y="14" width="18" height="2"></rect><rect x="23" y="10" width="18" height="2"></rect><rect x="23" y="18" width="18" height="2"></rect></g></svg>