<svg xmlns="http://www.w3.org/2000/svg" viewBox="0 0 64 64" x="0px" y="0px"><title>Pen</title><g data-name="Pen"><path d="M61.4,11.088,52.912,2.6a1,1,0,0,0-1.414,0L6.243,47.858a1,1,0,0,0,0,1.414l1.414,1.414L4.122,54.222a1,1,0,0,0,0,1.414L5.536,57.05,1.293,61.293l1.414,1.414L6.95,58.464l1.414,1.414a1,1,0,0,0,1.414,0l3.536-3.535,1.414,1.414a1,1,0,0,0,1.414,0L53.619,20.281,55.033,21.7,40.184,36.544,41.6,37.958,57.154,22.4a1,1,0,0,0,0-1.414l-2.121-2.121L61.4,12.5A1,1,0,0,0,61.4,11.088ZM9.071,57.757,6.243,54.929,9.071,52.1,11.9,54.929Zm6.364-2.121L8.364,48.565,39.477,17.452l7.071,7.071ZM47.962,23.109l-7.071-7.071L52.205,4.724,59.276,11.8Z"></path></g></svg>