<svg xmlns="http://www.w3.org/2000/svg" viewBox="0 0 64 64" x="0px" y="0px"><g data-name="Game Console"><path d="M44,22V8a2,2,0,0,0-2-2H22a2,2,0,0,0-2,2V22a2,2,0,0,0,2,2H42A2,2,0,0,0,44,22ZM22,8H42V22H22Z"></path><path d="M41,35a3,3,0,1,0,3,3A3,3,0,0,0,41,35Zm0,4a1,1,0,1,1,1-1A1,1,0,0,1,41,39Z"></path><path d="M34,32a3,3,0,1,0,3-3A3,3,0,0,0,34,32Zm4,0a1,1,0,1,1-1-1A1,1,0,0,1,38,32Z"></path><path d="M59.707,27.293l-6-6A1,1,0,0,0,53,21H50V5a3,3,0,0,0-3-3H17a3,3,0,0,0-3,3V21H11a1,1,0,0,0-.707.293l-6,6A1,1,0,0,0,4,28V61a1,1,0,0,0,1,1H16a1,1,0,0,0,1-1V56.3l.388-.582A4.89,4.89,0,0,0,19,56H45a4.89,4.89,0,0,0,1.612-.279L47,56.3V61a1,1,0,0,0,1,1H59a1,1,0,0,0,1-1V28A1,1,0,0,0,59.707,27.293ZM15.168,55.445A1.006,1.006,0,0,0,15,56v4H6V28.414L11.414,23H14v7.1l-2.707,2.708,1.414,1.414,5.535-5.536a2,2,0,1,1,2.829,2.829l-7.778,7.778a1,1,0,0,0-.074,1.332L17,45.351V52.7ZM27,34h3v2H27a1,1,0,0,0-1,1v3H24V37a1,1,0,0,0-1-1H20v-.586L21.414,34H23a1,1,0,0,0,1-1V30h2v3A1,1,0,0,0,27,34ZM45,54H19a2.9,2.9,0,0,1-.428-.056l.26-.389A1.006,1.006,0,0,0,19,53V45a1,1,0,0,0-.219-.625l-3.441-4.3,2.73-2.729A.993.993,0,0,0,19,38h3v3a1,1,0,0,0,1,1h4a1,1,0,0,0,1-1V38h3a1,1,0,0,0,1-1V33a1,1,0,0,0-1-1H28V29a1,1,0,0,0-1-1H23.05a3.965,3.965,0,0,0-6.222-.728L16,28.1V5a1,1,0,0,1,1-1H47a1,1,0,0,1,1,1V28.1l-.828-.828a4,4,0,1,0-5.657,5.657L48,39.414V40.9l-2.781,3.476A1,1,0,0,0,45,45v8a1.006,1.006,0,0,0,.168.555l.26.389A2.9,2.9,0,0,1,45,54Zm13,6H49V56a1.006,1.006,0,0,0-.168-.555L47,52.7V45.351l3.781-4.726a1,1,0,0,0-.074-1.332l-7.778-7.778a2,2,0,0,1,2.829-2.829l5.535,5.536,1.414-1.414L50,30.1V23h2.586L58,28.414Z"></path><rect x="26" y="44" width="4" height="2"></rect><rect x="34" y="44" width="4" height="2"></rect></g></svg>