<svg xmlns="http://www.w3.org/2000/svg" viewBox="0 0 64 64" x="0px" y="0px"><g><path d="M19.272,21.829l1.414,1.414c3.3-3.3,6.735-3.418,10.352-3.282.137,3.618.019,7.053-3.281,10.353l1.414,1.414c3.841-3.841,4.01-7.812,3.871-11.686,3.874.138,7.845-.03,11.686-3.871l-1.414-1.414c-3.3,3.3-6.736,3.419-10.352,3.282-.137-3.618-.019-7.053,3.281-10.353L34.829,6.272c-3.841,3.84-4.01,7.812-3.871,11.685C27.082,17.817,23.113,17.987,19.272,21.829Z"></path><rect x="38.071" y="8.929" width="2" height="6" transform="translate(3.009 31.121) rotate(-45)"></rect><rect x="35.243" y="12.758" width="2" height="4" transform="translate(0.18 29.95) rotate(-45)"></rect><rect x="23.929" y="23.071" width="2" height="6" transform="translate(-11.133 25.263) rotate(-45)"></rect><rect x="26.757" y="21.243" width="2" height="4" transform="translate(-8.305 26.435) rotate(-45)"></rect><path d="M40.958,30.957c-3.874-.139-7.845.031-11.686,3.872l1.414,1.414c3.3-3.3,6.735-3.418,10.352-3.282.137,3.618.019,7.053-3.281,10.353l1.414,1.414c3.841-3.841,4.01-7.812,3.871-11.686,3.874.138,7.846-.03,11.686-3.871l-1.414-1.414c-3.3,3.3-6.736,3.419-10.352,3.282-.137-3.618-.019-7.053,3.281-10.353l-1.414-1.414C40.988,23.112,40.819,27.084,40.958,30.957Z"></path><rect x="48.071" y="21.929" width="2" height="6" transform="translate(-3.255 42) rotate(-45)"></rect><rect x="45.243" y="25.758" width="2" height="4" transform="translate(-6.083 40.828) rotate(-45)"></rect><rect x="33.929" y="36.071" width="2" height="6" transform="translate(-17.397 36.142) rotate(-45)"></rect><rect x="36.757" y="34.243" width="2" height="4" transform="translate(-14.569 37.314) rotate(-45)"></rect><path d="M58,2H12A7.008,7.008,0,0,0,5,9V55a7.008,7.008,0,0,0,7,7H58a1,1,0,0,0,1-1V3A1,1,0,0,0,58,2ZM57,48H17V4H57ZM13,4h2V48H13ZM7,9a5.009,5.009,0,0,1,4-4.9V17.08a6.98,6.98,0,0,0-4,2.03ZM7,24a5.009,5.009,0,0,1,4-4.9V34.08a6.98,6.98,0,0,0-4,2.03Zm4,12.1V48.08a6.988,6.988,0,0,0-4,2.025V41A5.009,5.009,0,0,1,11,36.1ZM12,60a5,5,0,0,1,0-10H57v2H13a3,3,0,0,0,0,6H57v2Zm45-6v2H13a1,1,0,0,1,0-2Z"></path></g></svg>