<svg xmlns="http://www.w3.org/2000/svg" viewBox="0 0 64 64" x="0px" y="0px"><g><path d="M59,14H47V5a3,3,0,0,0-3-3H18a3,3,0,0,0-3,3V22H5a3,3,0,0,0-3,3V59a3,3,0,0,0,3,3H31a3,3,0,0,0,3-3V54H59a3,3,0,0,0,3-3V17A3,3,0,0,0,59,14Zm-5,2v2.7l-.168-.252a1,1,0,0,0-1.664,0L52,18.7V16ZM39,4V6.7l-.168-.252a1,1,0,0,0-1.664,0L37,6.7V4ZM12,24v2.7l-.168-.252a1,1,0,0,0-1.664,0L10,26.7V24ZM60,51a1,1,0,0,1-1,1H33a1,1,0,0,1-1-1V48H30v3a3,3,0,0,0,2,2.816V59a1,1,0,0,1-1,1H5a1,1,0,0,1-1-1V25a1,1,0,0,1,1-1H8v6a1,1,0,0,0,1.832.555L11,28.8l1.168,1.752A1,1,0,0,0,14,30V24h1V39a3,3,0,0,0,3,3h5V40H18a1,1,0,0,1-1-1V5a1,1,0,0,1,1-1H35v6a1,1,0,0,0,1.832.555L38,8.8l1.168,1.752A1,1,0,0,0,41,10V4h3a1,1,0,0,1,1,1v9H33a3,3,0,0,0-3,3v6h2V17a1,1,0,0,1,1-1H50v6a1,1,0,0,0,1.832.555L53,20.8l1.168,1.752A1,1,0,0,0,56,22V16h3a1,1,0,0,1,1,1Z"></path><rect x="19" y="15" width="8" height="2"></rect><rect x="19" y="19" width="8" height="2"></rect><rect x="19" y="23" width="8" height="2"></rect><rect x="6" y="35" width="6" height="2"></rect><rect x="6" y="39" width="6" height="2"></rect><rect x="6" y="45" width="4" height="2"></rect><rect x="12" y="45" width="10" height="2"></rect><rect x="6" y="49" width="16" height="2"></rect><rect x="24" y="49" width="2" height="2"></rect><rect x="6" y="53" width="20" height="2"></rect><path d="M55,25H48v2h6v6H52v2h3a1,1,0,0,0,1-1V26A1,1,0,0,0,55,25Z"></path><rect x="52" y="37" width="4" height="2"></rect><rect x="49" y="41" width="7" height="2"></rect><rect x="48" y="45" width="8" height="2"></rect><path d="M45.781,41.012a10.86,10.86,0,0,0,.679-1.639l2.682-.383A1,1,0,0,0,50,38V34a1,1,0,0,0-.858-.99l-2.682-.383a10.86,10.86,0,0,0-.679-1.639l1.625-2.167a1,1,0,0,0-.093-1.306l-2.828-2.828a1,1,0,0,0-1.306-.093l-2.167,1.625a10.9,10.9,0,0,0-1.639-.679l-.383-2.682A1,1,0,0,0,38,22H34a1,1,0,0,0-.99.858l-.383,2.682a10.86,10.86,0,0,0-1.639.679l-2.167-1.625a.994.994,0,0,0-1.306.093l-2.828,2.828a1,1,0,0,0-.093,1.306l1.625,2.167a10.86,10.86,0,0,0-.679,1.639l-2.682.383A1,1,0,0,0,22,34v4a1,1,0,0,0,.858.99l2.682.383a10.86,10.86,0,0,0,.679,1.639l-1.625,2.167a1,1,0,0,0,.093,1.306l2.828,2.828a1,1,0,0,0,1.306.093l2.167-1.625a10.86,10.86,0,0,0,1.639.679l.383,2.682A1,1,0,0,0,34,50h4a1,1,0,0,0,.99-.858l.383-2.682a10.9,10.9,0,0,0,1.639-.679l2.167,1.625a1,1,0,0,0,1.306-.093l2.828-2.828a1,1,0,0,0,.093-1.306Zm-1.987.682,1.492,1.991-1.6,1.6-1.991-1.492a1,1,0,0,0-1.11-.061,8.9,8.9,0,0,1-2.356.977,1,1,0,0,0-.744.827L37.133,48H34.867l-.351-2.463a1,1,0,0,0-.744-.827,8.9,8.9,0,0,1-2.356-.977,1,1,0,0,0-1.11.061l-1.991,1.492-1.6-1.6,1.492-1.991a1,1,0,0,0,.061-1.11,8.9,8.9,0,0,1-.977-2.356,1,1,0,0,0-.827-.744L24,37.133V34.867l2.463-.351a1,1,0,0,0,.827-.744,8.9,8.9,0,0,1,.977-2.356,1,1,0,0,0-.061-1.11l-1.492-1.991,1.6-1.6,1.991,1.492a1,1,0,0,0,1.11.061,8.9,8.9,0,0,1,2.356-.977,1,1,0,0,0,.744-.827L34.867,24h2.266l.351,2.463a1,1,0,0,0,.744.827,8.9,8.9,0,0,1,2.356.977,1,1,0,0,0,1.11-.061l1.991-1.492,1.6,1.6-1.492,1.991a1,1,0,0,0-.061,1.11,8.9,8.9,0,0,1,.977,2.356,1,1,0,0,0,.827.744L48,34.867v2.266l-2.463.351a1,1,0,0,0-.827.744,8.9,8.9,0,0,1-.977,2.356A1,1,0,0,0,43.794,41.694Z"></path><path d="M36,30a6,6,0,1,0,6,6A6.006,6.006,0,0,0,36,30Zm0,10a4,4,0,1,1,4-4A4,4,0,0,1,36,40Z"></path><rect x="35" y="26" width="2" height="2"></rect><rect x="28.636" y="28.636" width="2" height="2" transform="translate(-12.276 29.636) rotate(-45)"></rect><rect x="26" y="35" width="2" height="2"></rect><rect x="28.636" y="41.364" width="2" height="2" transform="translate(-21.276 33.364) rotate(-45)"></rect><rect x="35" y="44" width="2" height="2"></rect><rect x="41.364" y="41.364" width="2" height="2" transform="translate(-17.548 42.364) rotate(-45)"></rect><rect x="44" y="35" width="2" height="2"></rect><rect x="41.364" y="28.636" width="2" height="2" transform="translate(-8.547 38.636) rotate(-45)"></rect></g></svg>