<svg xmlns="http://www.w3.org/2000/svg" viewBox="0 0 64 64" x="0px" y="0px"><g><path d="M50,9h6V8a3,3,0,0,0-6,0Z"></path><path d="M60,20H58V33a1.006,1.006,0,0,1-.168.555L56,36.3V39a3,3,0,0,1-6,0V36.3l-1.832-2.748A1.006,1.006,0,0,1,48,33V20H8V44H60ZM34,26h8v2H34Zm0,4H44v2H34Zm0,6H46v2H34ZM21,42A10,10,0,1,1,31,32,10.011,10.011,0,0,1,21,42Zm19,0H34V40h6Zm8,0H42V40h6Z"></path><path d="M21,24a8,8,0,1,0,8,8A8.009,8.009,0,0,0,21,24Zm-1,7h2a3,3,0,0,1,0,6v1H20V37a3,3,0,0,1-3-3h2a1,1,0,0,0,1,1h2a1,1,0,0,0,0-2H20a3,3,0,0,1,0-6V26h2v1a3,3,0,0,1,3,3H23a1,1,0,0,0-1-1H20a1,1,0,0,0,0,2Z"></path><path d="M38,46H8a2,2,0,0,1-2-2V20a2,2,0,0,1,2-2H38V9a5.006,5.006,0,0,0-5-5H9A5.006,5.006,0,0,0,4,9V55a5.006,5.006,0,0,0,5,5H33a5.006,5.006,0,0,0,5-5ZM16,6H26V8H16ZM12,6h2V8H12ZM8,6h2V8H8ZM23,58H19a3,3,0,0,1,0-6h4a3,3,0,0,1,0,6Z"></path><path d="M23,54H19a1,1,0,0,0,0,2h4a1,1,0,0,0,0-2Z"></path><polygon points="55.798 33 50.202 33 51.535 35 54.465 35 55.798 33"></polygon><path d="M53,40a1,1,0,0,0,1-1V37H52v2A1,1,0,0,0,53,40Z"></path><rect x="50" y="11" width="6" height="1"></rect><polygon points="50 31 52 31 52 16 54 16 54 31 56 31 56 14 50 14 50 31"></polygon></g></svg>