<svg xmlns="http://www.w3.org/2000/svg" viewBox="0 0 64 64" x="0px" y="0px"><title>Credit card-Payment</title><g data-name="Credit card-Payment"><path d="M18,34H42a1,1,0,0,0,1-1V30h3a1,1,0,0,0,1-1V13a1,1,0,0,0-1-1H22a1,1,0,0,0-1,1v3H18a1,1,0,0,0-1,1V33A1,1,0,0,0,18,34Zm5-20H45V28H43V17a1,1,0,0,0-1-1H23Zm-4,4H41V32H19Z"></path><path d="M36,20a2.981,2.981,0,0,0-2,.78,3,3,0,1,0,0,4.44A3,3,0,1,0,36,20Zm-4,4a1,1,0,1,1,1-1A1,1,0,0,1,32,24Zm4,0a1,1,0,1,1,1-1A1,1,0,0,1,36,24Z"></path><rect x="21" y="20" width="6" height="2"></rect><rect x="21" y="24" width="6" height="2"></rect><rect x="21" y="28" width="18" height="2"></rect><path d="M59,2H5A3,3,0,0,0,2,5V45a3,3,0,0,0,3,3H22.9l-.8,8H19a1,1,0,0,0-1,1v3H16v2H48V60H46V57a1,1,0,0,0-1-1H41.905l-.8-8H59a3,3,0,0,0,3-3V5A3,3,0,0,0,59,2ZM44,58v2H20V58ZM24.105,56l.8-8H39.1l.8,8ZM60,45a1,1,0,0,1-1,1H5a1,1,0,0,1-1-1V5A1,1,0,0,1,5,4H59a1,1,0,0,1,1,1Z"></path><path d="M56,6H8A2,2,0,0,0,6,8V39a1,1,0,0,0,1,1H57a1,1,0,0,0,1-1V8A2,2,0,0,0,56,6Zm0,32H8V8H56Z"></path><rect x="31" y="42" width="2" height="2"></rect></g></svg>