<svg xmlns="http://www.w3.org/2000/svg" viewBox="0 0 64 64" x="0px" y="0px"><title>Folder-Book</title><g><path d="M60,55H33V54a3,3,0,0,1,3-3H57a1,1,0,0,0,1-1V33H56V49H36a4.961,4.961,0,0,0-3,1.013V18a3,3,0,0,1,3-3h2V13H36a5,5,0,0,0-4,2,5,5,0,0,0-4-2H7a1,1,0,0,0-1,1v5H3a1,1,0,0,0-1,1V56a1,1,0,0,0,1,1H61a1,1,0,0,0,1-1V31H60ZM31,55H4V21H6V50a1,1,0,0,0,1,1H28a3,3,0,0,1,3,3Zm0-4.987A4.961,4.961,0,0,0,28,49H8V15H28a3,3,0,0,1,3,3Z"></path><rect x="12" y="23" width="14" height="2"></rect><rect x="12" y="31" width="14" height="2"></rect><rect x="12" y="39" width="14" height="2"></rect><rect x="38" y="39" width="14" height="2"></rect><path d="M61,11H53.618L51.9,7.553A1,1,0,0,0,51,7H43a1,1,0,0,0-1,1V25a2,2,0,0,0,2,2H60a2,2,0,0,0,2-2V12A1,1,0,0,0,61,11ZM44,9h6.382l1,2H44ZM60,25H44V13H60Z"></path></g></svg>