<svg xmlns="http://www.w3.org/2000/svg" viewBox="0 0 64 64" x="0px" y="0px"><g><path d="M55.51,47.37a.987.987,0,0,1,.82-.71L60,46.13V41.87l-3.67-.53a.987.987,0,0,1-.82-.71,12.353,12.353,0,0,0-.98-2.39,1.023,1.023,0,0,1,.07-1.09l2.22-2.96-3.01-3.01L50.84,33.4a1.006,1.006,0,0,1-1.08.08,12.021,12.021,0,0,0-2.39-.99.987.987,0,0,1-.71-.82L46.13,28H41.87l-.53,3.67a.987.987,0,0,1-.71.82,12.021,12.021,0,0,0-2.39.99,1.026,1.026,0,0,1-1.08-.08l-2.97-2.22-3.01,3.01,2.22,2.96a1.023,1.023,0,0,1,.07,1.09,12.353,12.353,0,0,0-.98,2.39.987.987,0,0,1-.82.71L28,41.87v4.26l3.67.53a.987.987,0,0,1,.82.71,12.353,12.353,0,0,0,.98,2.39,1.023,1.023,0,0,1-.07,1.09l-2.22,2.96,3.01,3.01,2.97-2.22a1.026,1.026,0,0,1,1.08-.08,11.78,11.78,0,0,0,2.39.99.987.987,0,0,1,.71.82L41.87,60h4.26l.53-3.67a.987.987,0,0,1,.71-.82,11.78,11.78,0,0,0,2.39-.99,1.026,1.026,0,0,1,1.08.08l2.97,2.22,3.01-3.01L54.6,50.85a1.023,1.023,0,0,1-.07-1.09A12.353,12.353,0,0,0,55.51,47.37ZM56,43h2v2H56ZM32,45H30V43h2ZM43,30h2v2H43Zm-9.61,4.81,1.42-1.42,1.41,1.42-1.41,1.41Zm1.42,19.8-1.42-1.42,1.42-1.41,1.41,1.41ZM45,58H43V56h2Zm-1-4A10,10,0,1,1,54,44,10.016,10.016,0,0,1,44,54Zm10.61-.81-1.42,1.42-1.41-1.42,1.41-1.41ZM53.19,36.22l-1.41-1.41,1.41-1.42,1.42,1.42Z"></path><path d="M53,4H7A3.009,3.009,0,0,0,4,7v3.03H56V7A3.009,3.009,0,0,0,53,4ZM10,8H8V6h2Zm4,0H12V6h2Zm4,0H16V6h2Z"></path><path d="M23,18.062V25h6.938A8.019,8.019,0,0,0,23,18.062Z"></path><path d="M17,30V22.062A8,8,0,1,0,25.938,31H18A1,1,0,0,1,17,30Z"></path><path d="M4,12.03V53a3.009,3.009,0,0,0,3,3H30.54l-1.39-1.39a1,1,0,0,1-.09-1.31l2.36-3.15a14.937,14.937,0,0,1-.66-1.6l-3.9-.56A1,1,0,0,1,26,47V41a1,1,0,0,1,.86-.99l3.9-.56a14.937,14.937,0,0,1,.66-1.6L29.06,34.7a1,1,0,0,1,.09-1.31l4.24-4.24a1,1,0,0,1,1.31-.09l3.15,2.36a14.937,14.937,0,0,1,1.6-.66l.56-3.9A1,1,0,0,1,41,26h6a1,1,0,0,1,.99.86l.56,3.9a14.937,14.937,0,0,1,1.6.66l3.15-2.36a1,1,0,0,1,1.31.09L56,30.54V12.03ZM8,44h4v2H8ZM24,54H8V52H24Zm0-4H8V48H24Zm0-4H14V44H24Zm-6-6a10,10,0,0,1,0-20,1,1,0,0,1,1,1v8h8a1,1,0,0,1,1,1A10.016,10.016,0,0,1,18,40ZM31,27H22a1,1,0,0,1-1-1V17a1,1,0,0,1,1-1A10.016,10.016,0,0,1,32,26,1,1,0,0,1,31,27Zm7-11h4v2H38Zm14,6H38V20H52Zm0-4H44V16h8Z"></path><path d="M44,36a8,8,0,1,0,8,8A8.011,8.011,0,0,0,44,36Zm-1,7h2a3,3,0,0,1,0,6v1H43V49a3.009,3.009,0,0,1-3-3h2a1,1,0,0,0,1,1h2a1,1,0,0,0,0-2H43a3,3,0,0,1,0-6V38h2v1a3.009,3.009,0,0,1,3,3H46a1,1,0,0,0-1-1H43a1,1,0,0,0,0,2Z"></path></g></svg>