<svg xmlns="http://www.w3.org/2000/svg" viewBox="0 0 64 64" x="0px" y="0px"><g data-name="Room Service-Food-Hotel-Dinner-Cart"><circle cx="20" cy="7" r="1"></circle><path d="M56,20H8V30H56ZM37,25H27V23H37Z"></path><path d="M26,18a3.014,3.014,0,0,0,2.83-2H11.17A3.014,3.014,0,0,0,14,18Z"></path><path d="M8,54H56V44H8Zm19-8H37v2H27Z"></path><path d="M56,32H8V42H56ZM37,36H27V34H37Z"></path><path d="M20,8c-4.02,0-7.35,2.61-7.91,6H27.91C27.35,10.61,24.02,8,20,8Z"></path><path d="M52,18a1,1,0,0,0,1-1V14H49v3a1,1,0,0,0,1,1Z"></path><rect x="39" y="4" width="2" height="2"></rect><polygon points="37 11.24 37 18 43 18 43 11.24 41.38 8 38.62 8 37 11.24"></polygon><circle cx="51" cy="58" r="2"></circle><circle cx="14" cy="58" r="2"></circle></g></svg>