<svg xmlns="http://www.w3.org/2000/svg" viewBox="0 0 64 64" x="0px" y="0px"><g data-name="Ecology"><path d="M32,15A17,17,0,1,0,49,32,17.019,17.019,0,0,0,32,15ZM45.778,28.222c0,.621-.068,6.139-2.414,8.485a4.933,4.933,0,0,1-5.834.878L36,39.37V46H34V39.254a17.808,17.808,0,0,0-2.375-3.473,7,7,0,0,1-9.817-.074c-3.034-3.034-3.121-11.11-3.121-12.02a1,1,0,0,1,1-1c.91,0,8.986.087,12.02,3.121a7.006,7.006,0,0,1,1.158,8.357,20.575,20.575,0,0,1,2.31,3.094l.8-.937a4.989,4.989,0,0,1,.315-6.686c2.346-2.346,7.864-2.414,8.485-2.414A1,1,0,0,1,45.778,28.222Z"></path><path d="M40.241,31.349l1.518,1.3-2.875,3.354a2.992,2.992,0,0,0,3.066-.712c1.224-1.225,1.668-4.19,1.79-6.032-1.843.123-4.812.568-6.033,1.789a3,3,0,0,0-.406,3.729Z"></path><path d="M20.711,24.711c.118,2.738.7,7.767,2.511,9.582a4.991,4.991,0,0,0,7.019.043A22.05,22.05,0,0,0,25.553,30.9l.894-1.79a23.6,23.6,0,0,1,4.936,3.554,5.007,5.007,0,0,0-1.09-5.437C28.478,25.407,23.449,24.829,20.711,24.711Z"></path><path d="M54.339,26.526a22.817,22.817,0,0,0-2.67-6.454,1,1,0,0,1,.065-1.134l2.976-3.826L48.888,9.29l-3.826,2.976a1,1,0,0,1-1.134.065,22.817,22.817,0,0,0-6.454-2.67,1,1,0,0,1-.755-.848L36.117,4H27.883l-.6,4.813a1,1,0,0,1-.755.848,22.817,22.817,0,0,0-6.454,2.67,1,1,0,0,1-1.134-.065L15.112,9.29,9.29,15.112l2.976,3.826a1,1,0,0,1,.065,1.134,22.817,22.817,0,0,0-2.67,6.454,1,1,0,0,1-.848.755L4,27.883v8.234l4.813.6a1,1,0,0,1,.848.755,22.817,22.817,0,0,0,2.67,6.454,1,1,0,0,1-.065,1.134L9.29,48.888l5.822,5.822,3.826-2.976a1,1,0,0,1,1.134-.065,22.817,22.817,0,0,0,6.454,2.67,1,1,0,0,1,.755.848l.6,4.813h8.234l.6-4.813a1,1,0,0,1,.755-.848,22.817,22.817,0,0,0,6.454-2.67,1,1,0,0,1,1.134.065l3.826,2.976,5.822-5.822-2.976-3.826a1,1,0,0,1-.065-1.134,22.817,22.817,0,0,0,2.67-6.454,1,1,0,0,1,.848-.755l4.813-.6V27.883l-4.813-.6A1,1,0,0,1,54.339,26.526ZM11,33H9V31h2ZM47.557,15.029l1.414,1.414-1.415,1.415-1.414-1.414ZM31,9h2v2H31ZM16.443,15.029l1.415,1.415-1.414,1.414-1.415-1.415Zm0,33.942-1.414-1.414,1.415-1.415,1.414,1.414ZM33,55H31V53h2Zm14.557-6.029-1.415-1.415,1.414-1.414,1.415,1.415ZM32,51A19,19,0,1,1,51,32,19.021,19.021,0,0,1,32,51ZM55,33H53V31h2Z"></path></g></svg>