<svg xmlns="http://www.w3.org/2000/svg" viewBox="0 0 64 64" x="0px" y="0px"><g><path d="M61,22H48V3a1,1,0,0,0-1-1H17a1,1,0,0,0-1,1V22H3a1,1,0,0,0-1,1V51a1,1,0,0,0,1,1H16.5c-.006.114-.022.209-.022.334a5.332,5.332,0,0,0,.619,2.6,3.777,3.777,0,0,1,0,3.466A5.323,5.323,0,0,0,16.48,61a1,1,0,0,0,1,1h4a1,1,0,0,0,1-1,3.385,3.385,0,0,1,.421-1.734,5.772,5.772,0,0,0,0-5.2,3.382,3.382,0,0,1-.421-1.734c0-.126.012-.224.019-.331h2c-.006.114-.022.209-.022.334a5.332,5.332,0,0,0,.619,2.6,3.777,3.777,0,0,1,0,3.466A5.323,5.323,0,0,0,24.48,61a1,1,0,0,0,1,1h4a1,1,0,0,0,1-1,3.385,3.385,0,0,1,.421-1.734,5.772,5.772,0,0,0,0-5.2,3.382,3.382,0,0,1-.421-1.734c0-.126.012-.224.019-.331h2c-.006.114-.022.209-.022.334a5.332,5.332,0,0,0,.619,2.6,3.777,3.777,0,0,1,0,3.466A5.323,5.323,0,0,0,32.48,61a1,1,0,0,0,1,1h4a1,1,0,0,0,1-1,3.385,3.385,0,0,1,.421-1.734,5.772,5.772,0,0,0,0-5.2,3.382,3.382,0,0,1-.421-1.734c0-.126.012-.224.019-.331h2c-.006.114-.022.209-.022.334a5.332,5.332,0,0,0,.619,2.6,3.777,3.777,0,0,1,0,3.466A5.323,5.323,0,0,0,40.48,61a1,1,0,0,0,1,1h4a1,1,0,0,0,1-1,3.385,3.385,0,0,1,.421-1.734,5.772,5.772,0,0,0,0-5.2,3.382,3.382,0,0,1-.421-1.734c0-.126.012-.224.019-.331H61a1,1,0,0,0,1-1V23A1,1,0,0,0,61,22ZM48,29h2v2H48ZM18,4H46V31H18ZM14,31V29h2v2ZM4,24H16v3H13a1,1,0,0,0-1,1v4a1,1,0,0,0,1,1H51a1,1,0,0,0,1-1V28a1,1,0,0,0-1-1H48V24H60V36H4ZM21.1,58.4a5.475,5.475,0,0,0-.543,1.6H18.6a4.384,4.384,0,0,1,.3-.733,5.77,5.77,0,0,0,0-5.2,3.78,3.78,0,0,1,0-3.469,5.475,5.475,0,0,0,.543-1.6H21.4a4.384,4.384,0,0,1-.3.733,5.77,5.77,0,0,0,0,5.2,3.78,3.78,0,0,1,0,3.469Zm8,0a5.475,5.475,0,0,0-.543,1.6H26.6a4.384,4.384,0,0,1,.3-.733,5.77,5.77,0,0,0,0-5.2,3.78,3.78,0,0,1,0-3.469,5.475,5.475,0,0,0,.543-1.6H29.4a4.384,4.384,0,0,1-.3.733,5.77,5.77,0,0,0,0,5.2,3.78,3.78,0,0,1,0,3.469Zm8,0a5.475,5.475,0,0,0-.543,1.6H34.6a4.384,4.384,0,0,1,.3-.733,5.77,5.77,0,0,0,0-5.2,3.78,3.78,0,0,1,0-3.469,5.475,5.475,0,0,0,.543-1.6H37.4a4.384,4.384,0,0,1-.3.733,5.77,5.77,0,0,0,0,5.2,3.78,3.78,0,0,1,0,3.469ZM41.52,48a3.385,3.385,0,0,1-.421,1.734c-.04.083-.081.177-.122.266H39.162a5.189,5.189,0,0,0,.358-2,1,1,0,0,0-1-1h-4a1,1,0,0,0-1,1,3.385,3.385,0,0,1-.421,1.734c-.04.083-.081.177-.122.266H31.162a5.189,5.189,0,0,0,.358-2,1,1,0,0,0-1-1h-4a1,1,0,0,0-1,1,3.385,3.385,0,0,1-.421,1.734c-.04.083-.081.177-.122.266H23.162a5.189,5.189,0,0,0,.358-2,1,1,0,0,0-1-1h-4a1,1,0,0,0-1,1,3.385,3.385,0,0,1-.421,1.734c-.04.083-.081.177-.122.266H14V46H50v4H47.162a5.189,5.189,0,0,0,.358-2,1,1,0,0,0-1-1h-4A1,1,0,0,0,41.52,48ZM45.1,58.4a5.475,5.475,0,0,0-.543,1.6H42.6a4.384,4.384,0,0,1,.3-.733,5.77,5.77,0,0,0,0-5.2,3.78,3.78,0,0,1,0-3.469,5.475,5.475,0,0,0,.543-1.6H45.4a4.384,4.384,0,0,1-.3.733,5.77,5.77,0,0,0,0,5.2,3.78,3.78,0,0,1,0,3.469ZM60,50H52V45a1,1,0,0,0-1-1H13a1,1,0,0,0-1,1v5H4V38H60Z"></path><rect x="7" y="27" width="2" height="2"></rect><rect x="7" y="31" width="2" height="2"></rect><rect x="55" y="27" width="2" height="2"></rect><rect x="55" y="31" width="2" height="2"></rect><rect x="22" y="7" width="4" height="2"></rect><rect x="28" y="7" width="14" height="2"></rect><rect x="22" y="13" width="10" height="2"></rect><rect x="34" y="13" width="8" height="2"></rect><rect x="22" y="19" width="6" height="2"></rect><rect x="30" y="19" width="12" height="2"></rect><rect x="22" y="25" width="20" height="2"></rect></g></svg>