<svg xmlns="http://www.w3.org/2000/svg" viewBox="0 0 64 64" x="0px" y="0px"><title>Checklist-Order-Delivery-Package-Box</title><g><path d="M59,28H54V12a1.006,1.006,0,0,0-.168-.555L48.424,3.339A2.977,2.977,0,0,0,45.93,2H10.07A2.977,2.977,0,0,0,7.578,3.335l-5.41,8.11A1.006,1.006,0,0,0,2,12V53a3,3,0,0,0,3,3H36v3a3,3,0,0,0,3,3H59a3,3,0,0,0,3-3V31A3,3,0,0,0,59,28Zm-5,2h2v2.586l-.293-.293a1,1,0,0,0-1.414,0L54,32.586ZM22,19H4V13H22Zm2-6h8V25.919l-3.375-2.7a1,1,0,0,0-1.25,0L24,25.919Zm10,0H52v6H34ZM9.245,4.44A.985.985,0,0,1,10.07,4H45.93a.988.988,0,0,1,.828.444L51.131,11H4.869ZM5,54a1,1,0,0,1-1-1V21H22v7a1,1,0,0,0,1.625.781L28,25.28l4.375,3.5A1,1,0,0,0,34,28V21H52v7H39a3,3,0,0,0-3,3V54Zm55,5a1,1,0,0,1-1,1H39a1,1,0,0,1-1-1V31a1,1,0,0,1,1-1H52v5a1,1,0,0,0,1.707.707L55,34.414l1.293,1.293A1,1,0,0,0,57,36a.987.987,0,0,0,.383-.076A1,1,0,0,0,58,35V30h1a1,1,0,0,1,1,1Z"></path><path d="M43,41.586l-1.293-1.293-1.414,1.414,2,2a1,1,0,0,0,1.414,0l4-4-1.414-1.414Z"></path><path d="M43,52.586l-1.293-1.293-1.414,1.414,2,2a1,1,0,0,0,1.414,0l4-4-1.414-1.414Z"></path><rect x="50" y="42" width="8" height="2"></rect><rect x="50" y="53" width="8" height="2"></rect><rect x="50" y="49" width="8" height="2"></rect><rect x="50" y="38" width="2" height="2"></rect><rect x="54" y="38" width="4" height="2"></rect></g></svg>