<svg xmlns="http://www.w3.org/2000/svg" viewBox="0 0 64 64" x="0px" y="0px"><g><path d="M25,18H39a3,3,0,0,0,3-3V9a3,3,0,0,0-3-3H25a3,3,0,0,0-3,3v6A3,3,0,0,0,25,18ZM24,9a1,1,0,0,1,1-1H39a1,1,0,0,1,1,1v6a1,1,0,0,1-1,1H25a1,1,0,0,1-1-1Z"></path><path d="M25,20a3,3,0,1,0,3,3A3,3,0,0,0,25,20Zm0,4a1,1,0,1,1,1-1A1,1,0,0,1,25,24Z"></path><path d="M32,20a3,3,0,1,0,3,3A3,3,0,0,0,32,20Zm0,4a1,1,0,1,1,1-1A1,1,0,0,1,32,24Z"></path><path d="M25,28a3,3,0,1,0,3,3A3,3,0,0,0,25,28Zm0,4a1,1,0,1,1,1-1A1,1,0,0,1,25,32Z"></path><path d="M32,28a3,3,0,1,0,3,3A3,3,0,0,0,32,28Zm0,4a1,1,0,1,1,1-1A1,1,0,0,1,32,32Z"></path><path d="M54,38a2.967,2.967,0,0,0-1.471.4,2.955,2.955,0,0,0-4-1A2.94,2.94,0,0,0,45,36.184v-.226A4.989,4.989,0,0,0,46,33V7a5.006,5.006,0,0,0-5-5H23a5.006,5.006,0,0,0-5,5V33a5.006,5.006,0,0,0,5,5H39v2.184A2.966,2.966,0,0,0,38,40a3,3,0,0,0-3,3v7a11,11,0,0,0,22,0V41A3,3,0,0,0,54,38ZM23,36a3,3,0,0,1-3-3V7a3,3,0,0,1,3-3H41a3,3,0,0,1,3,3V28.78A2.981,2.981,0,0,0,42,28V23a3,3,0,0,0-3-3,3.015,3.015,0,0,0-3,3v8a3,3,0,0,0,3,3v2Zm17-7.22A2.985,2.985,0,0,0,39,31v1a1,1,0,0,1-1-1V23a.974.974,0,0,1,.306-.712A.957.957,0,0,1,39,22a1,1,0,0,1,1,1ZM55,50a9,9,0,0,1-18,0V43a1,1,0,0,1,2,0v3a1,1,0,0,0,2,0V31a1,1,0,0,1,2,0V42a1,1,0,0,0,2,0V39a1,1,0,0,1,2,0v4a1,1,0,0,0,2,0V40a1,1,0,0,1,2,0v4a1,1,0,0,0,2,0V41a1,1,0,0,1,2,0Z"></path></g></svg>