<svg xmlns="http://www.w3.org/2000/svg" viewBox="0 0 64 64" x="0px" y="0px"><g data-name="Cloud-Server-Storage-Cloud Computing-Data"><path d="M12,22a7.008,7.008,0,0,0,7,7h4V25.82a3,3,0,1,1,2,0V29h6V25.82a3,3,0,1,1,2,0V29h6V25.82a3,3,0,1,1,2,0V29h4a7,7,0,0,0,.79-13.95.986.986,0,0,1-.69-.4.966.966,0,0,1-.18-.77A5.532,5.532,0,0,0,45,13a5,5,0,0,0-5-5,4.921,4.921,0,0,0-2.16.5,1.009,1.009,0,0,1-1.27-.36A9,9,0,0,0,20,13c0,.3.02.6.05.9a1.036,1.036,0,0,1-.26.77,1,1,0,0,1-.74.33A7.019,7.019,0,0,0,12,22Zm33,3a3,3,0,0,0,3-3h2a5.006,5.006,0,0,1-5,5ZM29,6V8a5.006,5.006,0,0,0-5,5H22A7.008,7.008,0,0,1,29,6Z"></path><circle cx="40" cy="23" r="1"></circle><circle cx="32" cy="23" r="1"></circle><circle cx="24" cy="23" r="1"></circle><path d="M4,53.6V58c0,.58,2.45,2,7,2s7-1.42,7-2V53.6A15.9,15.9,0,0,1,11,55,15.9,15.9,0,0,1,4,53.6ZM8,58H6V56H8Zm4,1H10V57h2Z"></path><path d="M4,46.6V51c0,.58,2.45,2,7,2s7-1.42,7-2V46.6A15.9,15.9,0,0,1,11,48,15.9,15.9,0,0,1,4,46.6ZM8,51H6V49H8Zm4,1H10V50h2Z"></path><path d="M25,46.6V51c0,.58,2.45,2,7,2s7-1.42,7-2V46.6A15.9,15.9,0,0,1,32,48,15.9,15.9,0,0,1,25,46.6ZM29,51H27V49h2Zm4,1H31V50h2Z"></path><path d="M33,42.026V29H31V42.026c-3.905.188-6,1.438-6,1.974,0,.58,2.45,2,7,2s7-1.42,7-2C39,43.464,36.905,42.214,33,42.026Z"></path><path d="M25,53.6V58c0,.58,2.45,2,7,2s7-1.42,7-2V53.6A15.9,15.9,0,0,1,32,55,15.9,15.9,0,0,1,25,53.6ZM29,58H27V56h2Zm4,1H31V57h2Z"></path><path d="M46,46.6V51c0,.58,2.45,2,7,2s7-1.42,7-2V46.6A15.9,15.9,0,0,1,53,48,15.9,15.9,0,0,1,46,46.6ZM50,51H48V49h2Zm4,1H52V50h2Z"></path><path d="M46,53.6V58c0,.58,2.45,2,7,2s7-1.42,7-2V53.6A15.9,15.9,0,0,1,53,55,15.9,15.9,0,0,1,46,53.6ZM50,58H48V56h2Zm4,1H52V57h2Z"></path><path d="M52,42.026c-3.905.188-6,1.438-6,1.974,0,.58,2.45,2,7,2s7-1.42,7-2c0-.536-2.095-1.786-6-1.974V36a1,1,0,0,0-1-1H41V29H39v7a1,1,0,0,0,1,1H52Z"></path><path d="M25,29H23v6H11a1,1,0,0,0-1,1v6.026C6.1,42.214,4,43.464,4,44c0,.58,2.45,2,7,2s7-1.42,7-2c0-.536-2.1-1.786-6-1.974V37H24a1,1,0,0,0,1-1Z"></path></g></svg>