<svg xmlns="http://www.w3.org/2000/svg" viewBox="0 0 64 64" x="0px" y="0px"><g><path d="M59,20H52V7a5,5,0,0,0-5-5H7A5,5,0,0,0,2,7V57a5,5,0,0,0,5,5H59a3.009,3.009,0,0,0,3-3V23A3.009,3.009,0,0,0,59,20ZM47,4a3.009,3.009,0,0,1,3,3V20H48V13a.971.971,0,0,0-.26-.67L40.25,4ZM39,5.61,44.75,12H40a1,1,0,0,1-1-1ZM32.18,60H7a3.009,3.009,0,0,1-3-3V7A3.009,3.009,0,0,1,7,4H37v7a3.009,3.009,0,0,0,3,3h6v6H35a3.009,3.009,0,0,0-3,3V59A3,3,0,0,0,32.18,60ZM60,59a1,1,0,0,1-1,1H35a1,1,0,0,1-1-1V23a1,1,0,0,1,1-1H59a1,1,0,0,1,1,1Z"></path><path d="M56,24H38a2,2,0,0,0-2,2v6a2,2,0,0,0,2,2H56a2,2,0,0,0,2-2V26A2,2,0,0,0,56,24ZM38,32V26H56v6Z"></path><rect x="50" y="28" width="2" height="2"></rect><rect x="46" y="28" width="2" height="2"></rect><rect x="42" y="28" width="2" height="2"></rect><path d="M41,44H37a1,1,0,0,0-1,1v4a1,1,0,0,0,1,1h4a1,1,0,0,0,1-1V45A1,1,0,0,0,41,44Zm-1,4H38V46h2Z"></path><path d="M41,36H37a1,1,0,0,0-1,1v4a1,1,0,0,0,1,1h4a1,1,0,0,0,1-1V37A1,1,0,0,0,41,36Zm-1,4H38V38h2Z"></path><path d="M49,36H45a1,1,0,0,0-1,1v4a1,1,0,0,0,1,1h4a1,1,0,0,0,1-1V37A1,1,0,0,0,49,36Zm-1,4H46V38h2Z"></path><path d="M57,36H53a1,1,0,0,0-1,1v4a1,1,0,0,0,1,1h4a1,1,0,0,0,1-1V37A1,1,0,0,0,57,36Zm-1,4H54V38h2Z"></path><path d="M49,44H45a1,1,0,0,0-1,1v4a1,1,0,0,0,1,1h4a1,1,0,0,0,1-1V45A1,1,0,0,0,49,44Zm-1,4H46V46h2Z"></path><path d="M57,44H53a1,1,0,0,0-1,1v4a1,1,0,0,0,1,1h4a1,1,0,0,0,1-1V45A1,1,0,0,0,57,44Zm-1,4H54V46h2Z"></path><path d="M41,52H37a1,1,0,0,0-1,1v4a1,1,0,0,0,1,1h4a1,1,0,0,0,1-1V53A1,1,0,0,0,41,52Zm-1,4H38V54h2Z"></path><path d="M49,52H45a1,1,0,0,0-1,1v4a1,1,0,0,0,1,1h4a1,1,0,0,0,1-1V53A1,1,0,0,0,49,52Zm-1,4H46V54h2Z"></path><path d="M57,52H53a1,1,0,0,0-1,1v4a1,1,0,0,0,1,1h4a1,1,0,0,0,1-1V53A1,1,0,0,0,57,52Zm-1,4H54V54h2Z"></path><rect x="6.515" y="14" width="16.971" height="2" transform="translate(-6.213 15) rotate(-45)"></rect><path d="M11,14a3,3,0,1,0-3-3A3,3,0,0,0,11,14Zm0-4a1,1,0,1,1-1,1A1,1,0,0,1,11,10Z"></path><path d="M19,16a3,3,0,1,0,3,3A3,3,0,0,0,19,16Zm0,4a1,1,0,1,1,1-1A1,1,0,0,1,19,20Z"></path><rect x="25" y="8" width="10" height="2"></rect><rect x="25" y="12" width="10" height="2"></rect><rect x="25" y="16" width="10" height="2"></rect><rect x="8" y="26" width="4" height="2"></rect><rect x="14" y="26" width="14" height="2"></rect><rect x="8" y="30" width="4" height="2"></rect><rect x="14" y="30" width="14" height="2"></rect><rect x="8" y="34" width="4" height="2"></rect><rect x="14" y="34" width="14" height="2"></rect><rect x="8" y="38" width="4" height="2"></rect><rect x="14" y="38" width="14" height="2"></rect><rect x="8" y="42" width="4" height="2"></rect><rect x="14" y="42" width="14" height="2"></rect><rect x="8" y="46" width="4" height="2"></rect><rect x="14" y="46" width="14" height="2"></rect></g></svg>