<svg xmlns="http://www.w3.org/2000/svg" viewBox="0 0 64 64" x="0px" y="0px"><g><path d="M59.347,22.634,33.5,7.711a3.014,3.014,0,0,0-3,0L4.653,22.634a4,4,0,1,0,4,6.928L10,28.785V55a3,3,0,0,0,3,3H51a3,3,0,0,0,3-3V28.785l1.347.777a4,4,0,1,0,4-6.928ZM52,55a1,1,0,0,1-1,1H13a1,1,0,0,1-1-1V27.63L31.5,16.372a1,1,0,0,1,1,0L52,27.63Zm7.079-27.9a2,2,0,0,1-2.732.732L33.5,14.64a3.006,3.006,0,0,0-3,0L7.653,27.83a2,2,0,0,1-2.931-2.25,1.979,1.979,0,0,1,.931-1.214L31.5,9.443a1.008,1.008,0,0,1,1,0L58.347,24.366a2,2,0,0,1,.732,2.732Z"></path><path d="M27.842,32l-.656-3.712a3,3,0,0,0-5.956.512,3.1,3.1,0,0,0,.045.524L21.749,32H20a3.015,3.015,0,0,0-3,3,3,3,0,0,0,3,3h.074l.718,9.277A5,5,0,0,0,25.784,52H38.216a5,5,0,0,0,4.991-4.7l.719-9.3H44a3.015,3.015,0,0,0,3-3,3,3,0,0,0-3-3H42.251l.477-2.689a3.145,3.145,0,0,0,.042-.511,3,3,0,0,0-5.955-.514L36.159,32Zm7.963,2-.353,2h-6.9L28.2,34ZM24.072,27.823a.968.968,0,0,1,.729.159,1,1,0,0,1,.415.652L26.518,36H24.489l-1.242-7.01a1.109,1.109,0,0,1-.017-.19A1,1,0,0,1,24.072,27.823ZM19,35a.977.977,0,0,1,.307-.713A.959.959,0,0,1,20,34h2.1l.354,2H20A1,1,0,0,1,19,35ZM41.212,47.166a3,3,0,0,1-3,2.834H25.784a3.007,3.007,0,0,1-3-2.855L22.08,38H41.92ZM44,34a1,1,0,0,1,1,1,.977.977,0,0,1-.307.713A.959.959,0,0,1,44,36H41.542l.355-2Zm-5.215-5.368a1,1,0,0,1,.414-.65.97.97,0,0,1,.739-.157.994.994,0,0,1,.832.975,1.166,1.166,0,0,1-.014.177L39.511,36H37.482Z"></path><rect x="31" y="40" width="2" height="8"></rect><rect x="36" y="40" width="2" height="8"></rect><rect x="26" y="40" width="2" height="8"></rect></g></svg>