<svg xmlns="http://www.w3.org/2000/svg" viewBox="0 0 64 64" x="0px" y="0px"><g><path d="M57,29H27a3,3,0,0,0-3,3V48a3,3,0,0,0,3,3H57a3,3,0,0,0,3-3V32A3,3,0,0,0,57,29Zm1,19a1,1,0,0,1-1,1H27a1,1,0,0,1-1-1V32a1,1,0,0,1,1-1H57a1,1,0,0,1,1,1Z"></path><path d="M56.447,33.9l-.894-1.79-13.1,6.553a1,1,0,0,1-.9,0L28.447,32.1l-.894,1.79,8.092,4.046-8.352,8.352,1.414,1.414,8.824-8.824,3.128,1.564a3.014,3.014,0,0,0,2.683,0l3.127-1.564,8.824,8.824,1.414-1.414-8.352-8.352Z"></path><path d="M50,57a3,3,0,0,1-3,3H15a3,3,0,0,1-3-3V56H43V54H9a3,3,0,0,1-3-3V7A3,3,0,0,1,9,4H32v7a1,1,0,0,0,1.707.707L36,9.414l2.293,2.293A1,1,0,0,0,39,12a.987.987,0,0,0,.383-.076A1,1,0,0,0,40,11V4h1a3,3,0,0,1,3,3V26h2V10h1a3,3,0,0,1,3,3V27h2V13a5.006,5.006,0,0,0-5-5H46V7a5.006,5.006,0,0,0-5-5H9A5.006,5.006,0,0,0,4,7V51a5.006,5.006,0,0,0,5,5h1v1a5.006,5.006,0,0,0,5,5H47a5.006,5.006,0,0,0,5-5V55H50ZM38,4V8.586L36.707,7.293a1,1,0,0,0-1.414,0L34,8.586V4Z"></path><rect x="10" y="8" width="4" height="2"></rect><rect x="16" y="8" width="12" height="2"></rect><rect x="10" y="23" width="12" height="2"></rect><rect x="24" y="23" width="16" height="2"></rect><rect x="10" y="18" width="30" height="2"></rect><rect x="10" y="13" width="18" height="2"></rect><rect x="10" y="28" width="10" height="2"></rect><rect x="10" y="33" width="10" height="2"></rect><rect x="10" y="38" width="10" height="2"></rect><rect x="10" y="43" width="10" height="2"></rect><rect x="10" y="47" width="10" height="2"></rect></g></svg>