<svg xmlns="http://www.w3.org/2000/svg" viewBox="0 0 64 64" x="0px" y="0px"><path d="M26,31.57a10.68,10.68,0,0,1-6,0v7.02a11.733,11.733,0,0,0,6,0Z"></path><path d="M27.89,10H31a3,3,0,0,1,1,.18V7H29.71A7.065,7.065,0,0,1,27.89,10Z"></path><path d="M14,21a9,9,0,0,0,18,0V13a1,1,0,0,0-1-1H15a1,1,0,0,0-1,1Zm13-5a2,2,0,1,1-2,2A2,2,0,0,1,27,16Zm-2.016,7.25,1.323,1.5a5,5,0,0,1-6.614,0l1.323-1.5A3.076,3.076,0,0,0,24.984,23.25ZM19,16a2,2,0,1,1-2,2A2,2,0,0,1,19,16Z"></path><path d="M20,40.65V60h6V40.65a13.032,13.032,0,0,1-6,0Z"></path><path d="M14.23,46.38,18,55.81V37.41L14.41,41l2.3,2.29a1.046,1.046,0,0,1,.29.81.989.989,0,0,1-.45.73Z"></path><path d="M30.58,37.17l3.13,3.12A1.024,1.024,0,0,1,34,41V38.23Z"></path><path d="M10,18a2.015,2.015,0,0,0,2,2V16A2.006,2.006,0,0,0,10,18Z"></path><path d="M31.59,41,28,37.41v18.4l3.77-9.43-2.32-1.55A.989.989,0,0,1,29,44.1a1.046,1.046,0,0,1,.29-.81Z"></path><path d="M34,59V46a.971.971,0,0,1-.07.37L28.48,60h5.7A3,3,0,0,1,34,59Z"></path><path d="M33.71,41.71l-2.14,2.13,1.98,1.33A.984.984,0,0,1,34,46V41A1.024,1.024,0,0,1,33.71,41.71Z"></path><path d="M14,10.18A3,3,0,0,1,15,10h8a5,5,0,0,0,5-5V4H19a5,5,0,0,0-5,5Z"></path><path d="M34,20a2.015,2.015,0,0,0,2-2,2.006,2.006,0,0,0-2-2Z"></path><path d="M54,59V54.34l-.4.7a1.009,1.009,0,0,1-.32.33l-3.73,2.46A1,1,0,0,1,48,56.94l.27-4.46a.942.942,0,0,1,.13-.44l5.6-9.7V35a1,1,0,0,0-1-1H37a1,1,0,0,0-1,1V59a1,1,0,0,0,1,1H53A1,1,0,0,0,54,59ZM42,36H52v2H42Zm-4,0h2v2H38Zm0,4H52v2H38Zm0,4H50v2H38Zm0,4H48v2H38Zm8,10H38V56h8Zm0-4H38V52h8Z"></path><polygon points="56.63 41.78 50.25 52.83 50.12 55.06 51.98 53.83 58.37 42.78 56.63 41.78"></polygon><path d="M59.87,40.18a1,1,0,1,0-1.74-1l-.5.87,1.74,1Z"></path><path d="M4,60h6V48h2V60h5.52L12.07,46.37a1,1,0,0,1,.38-1.2l1.98-1.33-2.14-2.13a1.008,1.008,0,0,1,0-1.42l3.13-3.12L8.91,39.2A6.964,6.964,0,0,0,4,45.88Z"></path></svg>