<svg xmlns="http://www.w3.org/2000/svg" viewBox="0 0 64 64" x="0px" y="0px"><g data-name="Smartphone-Mobile Store-Ecommerce-Shopping Bag-Credit Card"><rect x="21" y="6" width="2" height="2"></rect><rect x="25" y="6" width="8" height="2"></rect><path d="M59,38H46V9a7.008,7.008,0,0,0-7-7H19a7.008,7.008,0,0,0-7,7V21.42L4.76,33.95A16.835,16.835,0,0,0,2.59,44.33l1.4,12.63L3.02,61.8l1.96.4,1-5a.81.81,0,0,0,.01-.31L4.57,44.11A14.908,14.908,0,0,1,6.5,34.95L12,25.42V38.39L10.44,41.1l1.73,1,5-8.66a2,2,0,0,1,2.73-.73,1.927,1.927,0,0,1,.93,1.21,1.969,1.969,0,0,1-.2,1.52l-3.5,6.06a1.023,1.023,0,0,0-.06.87l1.29,3.21A9.149,9.149,0,0,1,19,48.93v1.3a9,9,0,0,1-1.28,4.63l-1.58,2.63A1,1,0,0,0,16,58v4h2V58.28l1.43-2.39A10.907,10.907,0,0,0,20.84,52H28v7a3.009,3.009,0,0,0,3,3H59a3.009,3.009,0,0,0,3-3V41A3.009,3.009,0,0,0,59,38ZM28,46H27a1,1,0,0,1-1-1,.949.949,0,0,1,.31-.71A.928.928,0,0,1,27,44h1Zm0-5v1H27a3,3,0,0,0-3,3,3.009,3.009,0,0,0,3,3h1v2H21V48.93a10.825,10.825,0,0,0-.79-4.09l-1.1-2.76,3.26-5.64a4.034,4.034,0,0,0,.49-2.47,2.85,2.85,0,0,0,.29.03h11.7a3,3,0,0,0,2.99-3.21L37,18.93A1.011,1.011,0,0,0,36,18H33V16a4,4,0,0,0-8,0v2H22a1.011,1.011,0,0,0-1,.93l-.83,11.71a4.09,4.09,0,0,0-2.3-.07,3.948,3.948,0,0,0-2.43,1.87L14,34.93V9a5,5,0,0,1,5-5H39a5,5,0,0,1,5,5V38H31A3.009,3.009,0,0,0,28,41ZM27,22V20h4v2h2V20h2.07l.78,10.93a.949.949,0,0,1-.27.75.97.97,0,0,1-.73.32H23.15a.97.97,0,0,1-.73-.32.949.949,0,0,1-.27-.75L22.93,20H25v2Zm0-4V16a2,2,0,0,1,4,0v2ZM60,59a1,1,0,0,1-1,1H31a1,1,0,0,1-1-1V49H60Zm0-12H30V45H60Zm0-4H30V41a1,1,0,0,1,1-1H59a1,1,0,0,1,1,1Z"></path><rect x="32" y="51" width="2" height="2"></rect><rect x="36" y="51" width="2" height="2"></rect><rect x="40" y="51" width="2" height="2"></rect><rect x="44" y="51" width="2" height="2"></rect><rect x="32" y="55" width="14" height="2"></rect><path d="M55,51H51a3,3,0,0,0,0,6h4a3,3,0,0,0,0-6Zm0,4H51a1,1,0,0,1,0-2h4a1,1,0,0,1,0,2Z"></path></g></svg>