<svg xmlns="http://www.w3.org/2000/svg" viewBox="0 0 64 64" x="0px" y="0px"><g><path d="M12,55a1,1,0,0,0,1,1H57V54H13A1,1,0,0,0,12,55Z"></path><path d="M7,19.111a6.978,6.978,0,0,1,4-2.031V4.1A5.009,5.009,0,0,0,7,9Z"></path><path d="M7,36.111a6.978,6.978,0,0,1,4-2.031V19.1A5.009,5.009,0,0,0,7,24Z"></path><path d="M7,50.105a6.988,6.988,0,0,1,4-2.025V36.1A5.009,5.009,0,0,0,7,41Z"></path><path d="M39.818,22.309,37.5,15.174l-.005-.013-2.313,7.148A1,1,0,0,1,34.23,23h-7.5L32.8,27.41a1,1,0,0,1,.363,1.117l-2.318,7.136,6.069-4.409a1,1,0,0,1,1.176,0l6.069,4.409-2.318-7.136A1,1,0,0,1,42.2,27.41L48.271,23h-7.5A1,1,0,0,1,39.818,22.309Z"></path><rect x="13" y="4" width="2" height="44"></rect><path d="M57,4H17V48H57ZM49.447,24.618,43.966,28.6l2.094,6.445a2,2,0,0,1-3.079,2.234L37.5,33.3,32.019,37.28a1.97,1.97,0,0,1-2.352,0,1.969,1.969,0,0,1-.727-2.236L31.034,28.6l-5.481-3.984A2,2,0,0,1,26.729,21H33.5L35.6,14.556a2,2,0,0,1,3.8,0h0L41.5,21h6.775a2,2,0,0,1,1.176,3.618Z"></path><path d="M57,50H12a5,5,0,0,0,0,10H57V58H13a3,3,0,0,1,0-6H57Z"></path></g></svg>