<svg xmlns="http://www.w3.org/2000/svg" viewBox="0 0 64 64" x="0px" y="0px"><title>Delete-Recycle-Book</title><g><path d="M60,55H33V54a3,3,0,0,1,3-3H57a1,1,0,0,0,1-1V35H56V49H36a4.967,4.967,0,0,0-3,1.012V18a3,3,0,0,1,3-3h2V13H36a5,5,0,0,0-4,2,5,5,0,0,0-4-2H7a1,1,0,0,0-1,1v5H3a1,1,0,0,0-1,1V56a1,1,0,0,0,1,1H61a1,1,0,0,0,1-1V33H60ZM8,15H28a3,3,0,0,1,3,3V50.012A4.967,4.967,0,0,0,28,49H8ZM4,21H6V50a1,1,0,0,0,1,1H28a3,3,0,0,1,3,3v1H4Z"></path><rect x="12" y="23" width="14" height="2"></rect><rect x="12" y="31" width="14" height="2"></rect><rect x="12" y="39" width="14" height="2"></rect><rect x="38" y="39" width="14" height="2"></rect><path d="M55,11V8a1,1,0,0,0-1-1H48a1,1,0,0,0-1,1v3H40v2h3V26a3,3,0,0,0,3,3H56a3,3,0,0,0,3-3V13h3V11ZM49,9h4v2H49Zm8,17a1,1,0,0,1-1,1H46a1,1,0,0,1-1-1V13H57Z"></path><rect x="48" y="15" width="2" height="10"></rect><rect x="52" y="15" width="2" height="10"></rect></g></svg>