<svg xmlns="http://www.w3.org/2000/svg" viewBox="0 0 64 64" x="0px" y="0px"><g data-name="World Business"><path d="M32.95,24.374V31.05h9.467a19.081,19.081,0,0,0-2.359-8.268A20.661,20.661,0,0,1,32.95,24.374Z"></path><path d="M32.95,15.541v6.933a18.8,18.8,0,0,0,6.095-1.325A19.041,19.041,0,0,0,32.95,15.541Z"></path><path d="M31.05,32.95H21.583a19.085,19.085,0,0,0,2.359,8.268,20.691,20.691,0,0,1,7.108-1.593Z"></path><path d="M31.05,48.459V41.526a18.8,18.8,0,0,0-6.1,1.325A19.041,19.041,0,0,0,31.05,48.459Z"></path><path d="M44.317,32.95a20.98,20.98,0,0,1-2.538,9.082,21.037,21.037,0,0,1,2.576,1.621,16.912,16.912,0,0,0,4.6-10.7Z"></path><path d="M32.95,48.464a19.045,19.045,0,0,0,6.094-5.613,18.786,18.786,0,0,0-6.094-1.325Z"></path><path d="M42.417,32.95H32.95v6.675a20.691,20.691,0,0,1,7.108,1.593A19.069,19.069,0,0,0,42.417,32.95Z"></path><path d="M19.683,31.05a20.976,20.976,0,0,1,2.538-9.082,21.037,21.037,0,0,1-2.576-1.621,16.912,16.912,0,0,0-4.6,10.7Z"></path><path d="M23.219,43.669a19.562,19.562,0,0,0-2.181,1.314,16.936,16.936,0,0,0,6.576,3.425A20.981,20.981,0,0,1,23.219,43.669Z"></path><path d="M40.78,43.669a20.989,20.989,0,0,1-4.4,4.74,16.937,16.937,0,0,0,6.579-3.426A19.335,19.335,0,0,0,40.78,43.669Z"></path><path d="M19.683,32.95H15.048a16.912,16.912,0,0,0,4.6,10.7,21.167,21.167,0,0,1,2.576-1.622A20.984,20.984,0,0,1,19.683,32.95Z"></path><path d="M40.788,20.341c.436-.228.87-.468,1.292-.733l1.008,1.611c-.428.268-.867.514-1.309.749a20.988,20.988,0,0,1,2.538,9.082h4.635A16.982,16.982,0,0,0,36.386,15.592,21.036,21.036,0,0,1,40.788,20.341Z"></path><path d="M23.22,20.331a20.989,20.989,0,0,1,4.4-4.74,16.937,16.937,0,0,0-6.579,3.426A19.484,19.484,0,0,0,23.22,20.331Z"></path><path d="M31.05,24.374a20.672,20.672,0,0,1-7.108-1.592,19.069,19.069,0,0,0-2.359,8.268H31.05Z"></path><path d="M31.05,15.536a19.045,19.045,0,0,0-6.094,5.613,18.786,18.786,0,0,0,6.094,1.325Z"></path><path d="M62.536,34.122l-2.829-2.829a1,1,0,0,0-1.414,0l-2.829,2.829,1.414,1.414,1-1A26,26,0,0,1,6.619,37.668L4.667,38.1A28,28,0,0,0,59.9,34.311l1.225,1.225Z"></path><path d="M57.326,26.09l1.948-.453a27.86,27.86,0,0,0-1.217-3.905l-1.86.734A26.047,26.047,0,0,1,57.326,26.09Z"></path><path d="M5.707,32.707l2.829-2.829L7.122,28.464l-1,1A26.016,26.016,0,0,1,41.583,7.823l.737-1.86A28.012,28.012,0,0,0,4.1,29.689L2.878,28.464,1.464,29.878l2.829,2.829a1,1,0,0,0,1.414,0Z"></path><path d="M51,6a7,7,0,1,0,7,7A7.008,7.008,0,0,0,51,6Zm-4,8H45V12h2Zm4-2a2.993,2.993,0,0,1,1,5.816V19H50V17.816A3,3,0,0,1,48,15h2a1,1,0,1,0,1-1,2.993,2.993,0,0,1-1-5.816V7h2V8.184A3,3,0,0,1,54,11H52a1,1,0,1,0-1,1Zm4,2V12h2v2Z"></path></g></svg>