<svg xmlns="http://www.w3.org/2000/svg" viewBox="0 0 64 64" x="0px" y="0px"><path d="M51.832,20.445,48,14.7V12a2,2,0,0,0,2-2V4a2,2,0,0,0-2-2H16a2,2,0,0,0-2,2v6a2,2,0,0,0,2,2v2.7l-3.832,5.748A1.006,1.006,0,0,0,12,21V57a5.006,5.006,0,0,0,5,5H47a5.006,5.006,0,0,0,5-5V21A1.006,1.006,0,0,0,51.832,20.445ZM16,4h6V7h2V4h4V7h2V4h4V7h2V4h4V7h2V4h6l0,6H16Zm30,8v2H18V12Zm1,48H17a3,3,0,0,1-3-3V54H48V52H14V30h6V28H14V21.3L17.535,16h28.93L50,21.3V28H40v2H50V57A3,3,0,0,1,47,60Z"></path><path d="M32,34a7,7,0,1,0,4.949,2.051A6.951,6.951,0,0,0,32,34ZM28.465,44.535a5,5,0,0,1-.636-6.292l6.928,6.928a5,5,0,0,1-6.292-.636Zm7.706-.778-6.928-6.928a5,5,0,0,1,6.928,6.928Z"></path><path d="M29,31H25.414l3.293-3.293A1,1,0,0,0,28,26H22v2h3.586l-3.293,3.293A1,1,0,0,0,23,33h6Z"></path><path d="M31.293,27.293A1,1,0,0,0,32,29h6V27H34.414l3.293-3.293A1,1,0,0,0,37,22H31v2h3.586Z"></path></svg>