<svg xmlns="http://www.w3.org/2000/svg" viewBox="0 0 64 64" x="0px" y="0px"><g data-name="Invoice-File-Business Model-Money-Share"><path d="M50,59a1,1,0,0,1-1,1H15a1,1,0,0,1-1-1V31H12V59a3,3,0,0,0,3,3H49a3,3,0,0,0,3-3V31H50Z"></path><path d="M14,5a1,1,0,0,1,1-1H42v7a1,1,0,0,0,1.832.555L45,9.8l1.168,1.752A1,1,0,0,0,48,11V4h1a1,1,0,0,1,1,1V17h2V5a3,3,0,0,0-3-3H15a3,3,0,0,0-3,3V17h2ZM46,7.7l-.168-.252a1.039,1.039,0,0,0-1.664,0L44,7.7V4h2Z"></path><path d="M31,21h2a1,1,0,0,1,1,1h2a3,3,0,0,0-3-3V18H31v1a3,3,0,0,0,0,6h2a1,1,0,0,1,0,2H31a1,1,0,0,1-1-1H28a3,3,0,0,0,3,3v1h2V29a3,3,0,0,0,0-6H31a1,1,0,0,1,0-2Z"></path><rect x="10" y="23" width="14" height="2"></rect><path d="M5,17a3,3,0,1,0-3-3A3,3,0,0,0,5,17Zm0-4a1,1,0,1,1-1,1A1,1,0,0,1,5,13Z"></path><path d="M5,27a3,3,0,1,0-3-3A3,3,0,0,0,5,27Zm0-4a1,1,0,1,1-1,1A1,1,0,0,1,5,23Z"></path><path d="M5,31a3,3,0,1,0,3,3A3,3,0,0,0,5,31Zm0,4a1,1,0,1,1,1-1A1,1,0,0,1,5,35Z"></path><rect x="16" y="31" width="2" height="2"></rect><rect x="20" y="31" width="2" height="2"></rect><rect x="16" y="15" width="2" height="2"></rect><rect x="20" y="15" width="2" height="2"></rect><path d="M10.293,20.707A1,1,0,0,0,11,21H23.94a1,1,0,0,0,.895-.555,8,8,0,0,1,14.329,0,1,1,0,0,0,.9.555H53a1,1,0,0,0,.707-.293l3-3-1.414-1.414L52.586,19H40.658a10,10,0,0,0-17.316,0H11.414L8.707,16.293,7.293,17.707Z"></path><path d="M53.707,27.293A1,1,0,0,0,53,27H40.06a1,1,0,0,0-.9.555,8,8,0,0,1-14.329,0A1,1,0,0,0,23.94,27H11a1,1,0,0,0-.707.293l-3,3,1.414,1.414L11.414,29H23.342a10,10,0,0,0,17.316,0H52.586l2.707,2.707,1.414-1.414Z"></path><rect x="40" y="23" width="14" height="2"></rect><path d="M59,17a3,3,0,1,0-3-3A3,3,0,0,0,59,17Zm0-4a1,1,0,1,1-1,1A1,1,0,0,1,59,13Z"></path><path d="M59,21a3,3,0,1,0,3,3A3,3,0,0,0,59,21Zm0,4a1,1,0,1,1,1-1A1,1,0,0,1,59,25Z"></path><path d="M59,31a3,3,0,1,0,3,3A3,3,0,0,0,59,31Zm0,4a1,1,0,1,1,1-1A1,1,0,0,1,59,35Z"></path><rect x="46" y="31" width="2" height="2"></rect><rect x="42" y="31" width="2" height="2"></rect><rect x="46" y="15" width="2" height="2"></rect><rect x="42" y="15" width="2" height="2"></rect><rect x="22" y="40" width="8" height="2"></rect><rect x="18" y="40" width="2" height="2"></rect><rect x="18" y="44" width="12" height="2"></rect><rect x="18" y="48" width="12" height="2"></rect><rect x="18" y="52" width="12" height="2"></rect><rect x="34" y="40" width="12" height="2"></rect><rect x="34" y="44" width="12" height="2"></rect><rect x="34" y="48" width="12" height="2"></rect><rect x="34" y="52" width="12" height="2"></rect></g></svg>