<svg xmlns="http://www.w3.org/2000/svg" viewBox="0 0 64 64" x="0px" y="0px"><g data-name="Truck"><rect x="36" y="42" width="2" height="4"></rect><path d="M26,43a4,4,0,1,0,4,4A4,4,0,0,0,26,43Zm1,5H25V46h2Z"></path><path d="M49,43a4,4,0,1,0,4,4A4,4,0,0,0,49,43Zm1,5H48V46h2Z"></path><path d="M44,22v8H59.234l-4.509-7.514A1,1,0,0,0,53.868,22Z"></path><path d="M59,46a1,1,0,0,0,1-1V44H57V42h3V40H56a2,2,0,0,1-2-2V36a2,2,0,0,1,2-2h4V32.108c0-.037-.013-.072-.015-.108H43a1,1,0,0,1-1-1V22H40V46h3.09a5.993,5.993,0,0,1,11.82,0ZM46,36H42V34h4Z"></path><rect x="56" y="36" width="4" height="2"></rect><path d="M12,43a4,4,0,1,0,4,4A4,4,0,0,0,12,43Zm1,5H11V46h2Z"></path><path d="M34,46V18H30.677l-1.748,4.372A1,1,0,0,1,28,23H4V46H6.09a5.993,5.993,0,0,1,11.82,0h2.18a5.993,5.993,0,0,1,11.82,0ZM26,30a1,1,0,0,1-1,1H7a1,1,0,0,1-1-1V26a1,1,0,0,1,1-1H25a1,1,0,0,1,1,1Z"></path><rect x="8" y="27" width="16" height="2"></rect><path d="M42,20H40V14H38V12h2a2,2,0,0,1,2,2Z"></path></g></svg>