<svg xmlns="http://www.w3.org/2000/svg" viewBox="0 0 64 64" x="0px" y="0px"><g><path d="M24.841,45.972A.945.945,0,0,0,25,46H47a1,1,0,0,0,1-1V5a1,1,0,0,0-1-1H25a1,1,0,0,0-1,1V23.62a3.986,3.986,0,0,1,4.9,3.89,4.013,4.013,0,0,1-.533,2l-4.634,9.415.5,1.112A8.971,8.971,0,0,1,25,43.684v.645A8.959,8.959,0,0,1,24.841,45.972ZM44,40a1,1,0,0,1-1,1H39V39h3V36h2ZM39,9h4a1,1,0,0,1,1,1v4H42V11H39Zm4,16a7,7,0,1,1-7-7A7.008,7.008,0,0,1,43,25ZM28,14V10a1,1,0,0,1,1-1h4v2H30v3Zm0,22h2v3h3v2H29a1,1,0,0,1-1-1Z"></path><circle cx="36" cy="25" r="5"></circle><path d="M20,28.37l1.405-2.808A4.227,4.227,0,0,1,22,24.776V5a2.966,2.966,0,0,1,.184-1H21a1,1,0,0,0-1,1Z"></path><path d="M21.63,38.907V38.9h0v-.026a1.05,1.05,0,0,1,.1-.413l4.871-9.89a2.1,2.1,0,0,0,.3-1.058,2,2,0,0,0-3.734-1L17.694,37.448l-1.789-.9L18,32.367V21.085a2.989,2.989,0,0,0-1.866,1.234l-4.568,6.7A8.969,8.969,0,0,0,10,34.087V60H20V51a1,1,0,0,1,.2-.6l1.4-1.879A7.038,7.038,0,0,0,23,44.329v-.645a6.968,6.968,0,0,0-.6-2.839l-.644-1.452a.984.984,0,0,1-.125-.483v0Z"></path><path d="M8.922,7,7,4.6,5.078,7A1,1,0,0,1,6,8V18H8V8A1,1,0,0,1,8.922,7Z"></path><rect x="6" y="20" width="2" height="2"></rect><rect x="6" y="24" width="2" height="2"></rect><path d="M58.922,26,57,23.6,55.078,26A1,1,0,0,1,56,27V37h2V27A1,1,0,0,1,58.922,26Z"></path><rect x="56" y="39" width="2" height="2"></rect><rect x="56" y="43" width="2" height="2"></rect></g></svg>