<svg xmlns="http://www.w3.org/2000/svg" viewBox="0 0 64 64" x="0px" y="0px"><g data-name="Cloud-Cloud Computing-Contact-Phone-Data"><path d="M32,32A14,14,0,1,0,46,46,14.015,14.015,0,0,0,32,32Zm1,10a3,3,0,0,1,3,3H34a1,1,0,0,0-1-1Zm5.9,9.77A8.972,8.972,0,0,1,31.99,55a9.356,9.356,0,0,1-1.18-.08A9,9,0,0,1,26.23,39.1a1.011,1.011,0,0,1,1.35.06l3.63,3.63a1.008,1.008,0,0,1,0,1.42l-1.79,1.78a.97.97,0,0,0-.27.96,3.041,3.041,0,0,0,1.9,1.9.97.97,0,0,0,.96-.27l1.78-1.79a1.008,1.008,0,0,1,1.42,0l3.63,3.63A1.011,1.011,0,0,1,38.9,51.77ZM38,45a5.006,5.006,0,0,0-5-5V38a7.008,7.008,0,0,1,7,7Z"></path><path d="M30.42,50.74a4.98,4.98,0,0,1-3.16-3.15,2.688,2.688,0,0,1-.13-1.05l-1.98-1.97a7.212,7.212,0,0,0-.09,2.37,7.043,7.043,0,0,0,6,6,7.212,7.212,0,0,0,2.37-.09l-1.97-1.98A2.616,2.616,0,0,1,30.42,50.74Z"></path><path d="M28.01,44.58l1.08-1.08-2.24-2.24a7.528,7.528,0,0,0-.92,1.26L28,44.59C28,44.58,28,44.58,28.01,44.58Z"></path><path d="M33.42,49.99c0,.01,0,.01-.01.01l2.07,2.07a7.066,7.066,0,0,0,1.25-.92L34.5,48.91Z"></path><path d="M50.83,20.17a1.007,1.007,0,0,1-.84-.99c0-.03.01-.14.01-.17a8.008,8.008,0,0,0-10.35-7.66.984.984,0,0,1-1.18-.48A13,13,0,0,0,14,17a13.276,13.276,0,0,0,.17,2,1.021,1.021,0,0,1-.18.74,1,1,0,0,1-.66.4A10.993,10.993,0,0,0,15,42h1.53a15.972,15.972,0,0,1,30.94,0H49a10.991,10.991,0,0,0,1.83-21.83ZM27,9a8.009,8.009,0,0,0-8,8H17A10.011,10.011,0,0,1,27,7ZM49,39V37a6.006,6.006,0,0,0,6-6h2A8.009,8.009,0,0,1,49,39Z"></path></g></svg>