<svg xmlns="http://www.w3.org/2000/svg" viewBox="0 0 64 64" x="0px" y="0px"><g data-name="Cloud Computing-Smartphone-Cloud-Dowload-Database"><path d="M46,2H18a6.006,6.006,0,0,0-6,6V56a6.006,6.006,0,0,0,6,6H46a6.006,6.006,0,0,0,6-6V8A6.006,6.006,0,0,0,46,2Zm4,54a4,4,0,0,1-4,4H18a4,4,0,0,1-4-4V8a4,4,0,0,1,4-4H46a4,4,0,0,1,4,4Z"></path><path d="M34,52H30a3,3,0,0,0,0,6h4a3,3,0,0,0,0-6Zm0,4H30a1,1,0,0,1,0-2h4a1,1,0,0,1,0,2Z"></path><rect x="25" y="6" width="2" height="2"></rect><rect x="29" y="6" width="6" height="2"></rect><path d="M42,23h-.063a8,8,0,0,0-15.364-3.958A3.915,3.915,0,0,0,26,19a4,4,0,0,0-4,4,6,6,0,0,0,0,12V33a4,4,0,0,1,0-8h1.184a1,1,0,0,0,.942-1.334,1.985,1.985,0,0,1,2.69-2.486,1,1,0,0,0,1.378-.666,6,6,0,1,1,11.554,3.2A1,1,0,0,0,40.706,25H42a4,4,0,0,1,0,8H41v2h1a6,6,0,0,0,0-12Z"></path><rect x="36" y="23" width="2" height="2"></rect><rect x="32" y="23" width="2" height="2"></rect><path d="M35.707,29.293A1,1,0,0,0,35,29H26a2,2,0,0,0-2,2V45a2,2,0,0,0,2,2H38a2,2,0,0,0,2-2V34a1,1,0,0,0-.293-.707ZM36.586,33H35V31.414ZM26,45V31h7v2a2,2,0,0,0,2,2h3V45Z"></path><rect x="28" y="37" width="8" height="2"></rect><rect x="28" y="41" width="8" height="2"></rect><rect x="28" y="33" width="2" height="2"></rect></g></svg>