<svg xmlns="http://www.w3.org/2000/svg" viewBox="0 0 64 64" x="0px" y="0px"><g data-name="Bottle"><path d="M47,53.916,44.355,22.58a10.972,10.972,0,0,0-4.574-8.108L37,12.485V9.722A1.993,1.993,0,0,0,38,8V4a2,2,0,0,0-2-2H28a2,2,0,0,0-2,2V8a1.993,1.993,0,0,0,1,1.722v2.763l-2.781,1.987a10.971,10.971,0,0,0-4.574,8.1L17,54v5a3,3,0,0,0,3,3H44a3,3,0,0,0,3-3ZM35,10v2H29V10ZM28,4h8V8H28ZM25.381,16.1,28.32,14h7.36l2.939,2.1a8.984,8.984,0,0,1,3.743,6.64L42.468,24H21.532l.107-1.267A8.978,8.978,0,0,1,25.381,16.1ZM21.363,26H42.637L45,54H19ZM44,60H20a1,1,0,0,1-1-1l0-3H45v3A1,1,0,0,1,44,60Z"></path></g></svg>