<svg xmlns="http://www.w3.org/2000/svg" viewBox="0 0 64 64" x="0px" y="0px"><g data-name="Internet Security-Database-Hosting-Network-Browser"><rect x="6" y="6" width="2" height="2"></rect><rect x="10" y="6" width="2" height="2"></rect><rect x="14" y="6" width="2" height="2"></rect><rect x="41" y="48" width="2" height="2"></rect><rect x="45" y="49" width="2" height="2"></rect><rect x="41" y="55" width="2" height="2"></rect><rect x="45" y="56" width="2" height="2"></rect><rect x="44" y="41" width="12" height="2"></rect><path d="M52,36.08V7a5,5,0,0,0-5-5H7A5,5,0,0,0,2,7V45a5,5,0,0,0,5,5H38v6c0,3.42,5.16,6,12,6s12-2.58,12-6V42C62,38.92,57.82,36.53,52,36.08ZM4,7A3.009,3.009,0,0,1,7,4H47a3.009,3.009,0,0,1,3,3v3H4ZM38,42v6H7a3.009,3.009,0,0,1-3-3V12H50V36C43.16,36,38,38.58,38,42ZM60,56c0,1.89-4.28,4-10,4s-10-2.11-10-4V52.41C42.11,53.99,45.73,55,50,55s7.89-1.01,10-2.59Zm0-7c0,1.89-4.28,4-10,4s-10-2.11-10-4V45.41C42.11,46.99,45.73,48,50,48s7.89-1.01,10-2.59ZM50,46c-5.72,0-10-2.11-10-4s4.28-4,10-4,10,2.11,10,4S55.72,46,50,46Z"></path><path d="M27.406,22.086l-9-4a1,1,0,0,0-.812,0l-9,4A1,1,0,0,0,8,23v5.939A13.006,13.006,0,0,0,14.687,40.3l2.828,1.571a1,1,0,0,0,.97,0L21.313,40.3A13.006,13.006,0,0,0,28,28.939V23A1,1,0,0,0,27.406,22.086ZM26,28.939a11.007,11.007,0,0,1-5.657,9.616L18,39.856l-2.343-1.3A11.007,11.007,0,0,1,10,28.939V23.65l8-3.556,8,3.556Z"></path><path d="M14,27a3.988,3.988,0,0,0,1,2.63V33a3,3,0,0,0,6,0V29.63A4,4,0,1,0,14,27Zm6,0a1.971,1.971,0,0,1-.67,1.479,1,1,0,0,0-.33.743V33a1,1,0,0,1-2,0V29.222a1,1,0,0,0-.33-.743A1.971,1.971,0,0,1,16,27a2,2,0,0,1,4,0Z"></path><rect x="38" y="18" width="8" height="2"></rect><rect x="34" y="18" width="2" height="2"></rect><rect x="34" y="22" width="12" height="2"></rect><rect x="34" y="26" width="12" height="2"></rect><rect x="34" y="30" width="12" height="2"></rect></g></svg>