<svg xmlns="http://www.w3.org/2000/svg" viewBox="0 0 64 64" x="0px" y="0px"><title>Medical-Hospital-Health-Check up</title><g data-name="Medical-Hospital-Health-Check up"><path d="M23,36a3.992,3.992,0,0,0,1-7.858V19a1,1,0,0,1,1-1h3a1,1,0,0,1,1,1V29a5.006,5.006,0,0,0,5,5h1a5.006,5.006,0,0,0,5-5V24a5.006,5.006,0,0,0,5-5V11a1,1,0,0,0-1-1H41v2h2v7a3,3,0,0,1-3,3H38a3,3,0,0,1-3-3V12h2V10H34a1,1,0,0,0-1,1v8a5.006,5.006,0,0,0,5,5v5a3,3,0,0,1-3,3H34a3,3,0,0,1-3-3V19a3,3,0,0,0-3-3H25a3,3,0,0,0-3,3v9.142A3.992,3.992,0,0,0,23,36Zm0-6a2,2,0,1,1-2,2A2,2,0,0,1,23,30Z"></path><path d="M59,2H5A3,3,0,0,0,2,5V45a3,3,0,0,0,3,3H22.9l-.8,8H19a1,1,0,0,0-1,1v3H16v2H48V60H46V57a1,1,0,0,0-1-1H41.905l-.8-8H59a3,3,0,0,0,3-3V5A3,3,0,0,0,59,2ZM44,58v2H20V58ZM24.105,56l.8-8H39.1l.8,8ZM60,45a1,1,0,0,1-1,1H5a1,1,0,0,1-1-1V5A1,1,0,0,1,5,4H59a1,1,0,0,1,1,1Z"></path><path d="M56,6H8A2,2,0,0,0,6,8V39a1,1,0,0,0,1,1H57a1,1,0,0,0,1-1V8A2,2,0,0,0,56,6Zm0,32H8V8H56Z"></path><rect x="31" y="42" width="2" height="2"></rect></g></svg>