<svg xmlns="http://www.w3.org/2000/svg" viewBox="0 0 64 64" x="0px" y="0px"><g data-name="Tombstone"><path d="M60.293,43.293,59,44.586V38H57v6.586l-2.293-2.293-1.414,1.414L56.586,47l-1.293,1.293A1,1,0,0,0,55,49v7h2V49.414l4.707-4.707Z"></path><path d="M9.293,42.293,7,44.586V38H5v6.586L3.707,43.293,2.293,44.707,7,49.414V56H9V49a1,1,0,0,0-.293-.707L7.414,47l3.293-3.293Z"></path><rect x="4" y="58" width="56" height="2"></rect><path d="M31,23V36h2V23a1,1,0,0,1,1-1h4V20H34a1,1,0,0,1-1-1V16H31v3a1,1,0,0,1-1,1H26v2h4A1,1,0,0,1,31,23Z"></path><path d="M18.233,25.775,15,24.523V56H49V31.766l-3.13,1.879-.9,3.6-1.94-.486,1-4a1,1,0,0,1,.455-.614l.777-.467-2.969-2.969,1.414-1.414,3.323,3.323L49,29.434V21a17,17,0,0,0-34,0v1.377l4.361,1.69a1,1,0,0,1,.568.561l.746,1.867L22.4,25.2l1.2,1.6-2.156,1.619.484,1.209-1.858.744ZM40,49H24V47H40ZM24,19a1,1,0,0,1,1-1h4V15a1,1,0,0,1,1-1h4a1,1,0,0,1,1,1v3h4a1,1,0,0,1,1,1v4a1,1,0,0,1-1,1H35V37a1,1,0,0,1-1,1H30a1,1,0,0,1-1-1V24H25a1,1,0,0,1-1-1ZM21,42H43v2H21Z"></path></g></svg>