<svg xmlns="http://www.w3.org/2000/svg" viewBox="0 0 64 64" x="0px" y="0px"><g data-name="Online Order-Paymant"><rect x="51" y="42" width="3" height="2"></rect><rect x="43" y="18" width="10" height="2"></rect><path d="M45,4H5A1,1,0,0,0,4,5v5H46V5A1,1,0,0,0,45,4ZM8,8H6V6H8Zm4,0H10V6h2Zm4,0H14V6h2Z"></path><path d="M48.707,44.293l.293.293V42H47v2.586l.293-.293A1,1,0,0,1,48.707,44.293Z"></path><path d="M51,47a1,1,0,0,1-1.707.707L48,46.414l-1.293,1.293A1,1,0,0,1,45,47V46H42v6H54V46H51Z"></path><rect x="42" y="42" width="3" height="2"></rect><path d="M57,18H55v2a2.006,2.006,0,0,1-2,2H43a2.006,2.006,0,0,1-2-2V18H39a3.009,3.009,0,0,0-3,3V57a3.009,3.009,0,0,0,3,3H57a3.009,3.009,0,0,0,3-3V21A3.009,3.009,0,0,0,57,18ZM49,33H47a3,3,0,0,1,0-6V26h2v1a3.009,3.009,0,0,1,3,3H50a1,1,0,0,0-1-1H47a1,1,0,0,0,0,2h2a3,3,0,0,1,0,6v1H47V37a3.009,3.009,0,0,1-3-3h2a1,1,0,0,0,1,1h2a1,1,0,0,0,0-2Zm-9-2h2v2H40ZM56,53a1,1,0,0,1-1,1H41a1,1,0,0,1-1-1V41a1,1,0,0,1,1-1H55a1,1,0,0,1,1,1Zm0-20H54V31h2Z"></path><path d="M22,25a1,1,0,0,1-1.707.707L19,24.414l-1.293,1.293A1,1,0,0,1,16,25V24H13v6H25V24H22Z"></path><rect x="13" y="20" width="3" height="2"></rect><rect x="22" y="20" width="3" height="2"></rect><path d="M19.707,22.293l.293.293V20H18v2.586l.293-.293A1,1,0,0,1,19.707,22.293Z"></path><path d="M4,12V45a1,1,0,0,0,1,1H34V21a5,5,0,0,1,5-5h7V12Zm7,23h2v2H11Zm8,6H11V39h8Zm4,0H21V39h2Zm4,0H25V39h2Zm0-4H15V35H27Zm0-6a1,1,0,0,1-1,1H12a1,1,0,0,1-1-1V19a1,1,0,0,1,1-1H26a1,1,0,0,1,1,1Z"></path></g></svg>