<svg xmlns="http://www.w3.org/2000/svg" viewBox="0 0 32 32" x="0px" y="0px"><title>File Down Arrow_8</title><g data-name="File Down Arrow"><path d="M28,1a1,1,0,0,0-1-1H5A1,1,0,0,0,4,1V31a1,1,0,0,0,1,1H21a1.008,1.008,0,0,0,.416-.091,1,1,0,0,0,.343-.259l6-7a.994.994,0,0,0,.164-.278c.013-.031.018-.064.028-.1a.977.977,0,0,0,.039-.22c0-.019.01-.037.01-.056ZM6,2H26V23H21a1,1,0,0,0-1,1v6H6ZM22,25h2.826L22,28.3Z"></path><path d="M13.879,12.465l-1.414,1.414,2.828,2.828a1,1,0,0,0,1.414,0l2.828-2.828-1.414-1.414L17,13.586V8H15v5.586Z"></path><path d="M21,21a1,1,0,0,0,1-1V10a1,1,0,0,0-1-1H18v2h2v8H12V11h2V9H11a1,1,0,0,0-1,1V20a1,1,0,0,0,1,1Z"></path></g></svg>