<svg xmlns="http://www.w3.org/2000/svg" viewBox="0 0 64 64" x="0px" y="0px"><g><polygon points="15 10 13.5 8 9.414 8 11.414 10 15 10"></polygon><polygon points="12 6 10.5 4 5.414 4 7.414 6 12 6"></polygon><polygon points="10 17.618 8 16.618 8 22.386 10 22.123 10 17.618"></polygon><polygon points="10 24.14 8 24.403 8 27.695 10 26.445 10 24.14"></polygon><polygon points="10 11.414 8 9.414 8 14.382 10 15.382 10 11.414"></polygon><polygon points="19.382 6 18.382 4 13 4 14.5 6 19.382 6"></polygon><rect x="18" y="12" width="4" height="4"></rect><rect x="18" y="18" width="4" height="4"></rect><polygon points="27.117 4 20.618 4 21.618 6 27.367 6 27.117 4"></polygon><rect x="12" y="18" width="4" height="4"></rect><polygon points="21.382 10 20.382 8 16 8 17.5 10 21.382 10"></polygon><rect x="12" y="12" width="4" height="4"></rect><path d="M46,27a1,1,0,0,0-1,1V42H43V33a.957.957,0,0,0-.288-.694A.978.978,0,0,0,42,32a1,1,0,0,0-1,1v8.17a1,1,0,0,1-1.707.707l-2.83-2.83a1.017,1.017,0,0,0-1.417,0,1,1,0,0,0,0,1.415l5.66,5.66A1,1,0,0,1,41,46.83V50H55V35a1,1,0,0,0-2,0v7H51V31a1,1,0,0,0-2,0V42H47V28A1,1,0,0,0,46,27Z"></path><path d="M52,27V24H42v3a1,1,0,0,1-1,1H23a1,1,0,0,1-1-1V24H12v3a1,1,0,0,1-.47.848L8.086,30h3.1A2.947,2.947,0,0,1,15,28.184V28a3,3,0,0,1,6,0v2H43V28a3,3,0,0,1,6,0v.184A2.947,2.947,0,0,1,52.816,30h3.1L52.47,27.848A1,1,0,0,1,52,27Z"></path><rect x="30" y="24" width="4" height="2"></rect><rect x="30" y="18" width="4" height="4"></rect><rect x="41" y="56" width="14" height="4"></rect><polygon points="27.867 10 27.617 8 22.618 8 23.618 10 27.867 10"></polygon><polygon points="6 7.414 4 5.414 4 12.382 6 13.382 6 7.414"></polygon><rect x="41" y="52" width="14" height="2"></rect><polygon points="4 30.195 6 28.945 6 24.666 4 24.929 4 30.195"></polygon><polygon points="6 15.618 4 14.618 4 22.912 6 22.649 6 15.618"></polygon><polygon points="34.719 8 29.633 8 29.883 10 34.219 10 34.719 8"></polygon><polygon points="35.719 4 29.133 4 29.383 6 35.219 6 35.719 4"></polygon><rect x="30" y="12" width="4" height="4"></rect><polygon points="56 24.383 54 24.133 54 26.445 56 27.695 56 24.383"></polygon><polygon points="56 9.414 54 11.414 54 15.382 56 14.382 56 9.414"></polygon><rect x="48" y="18" width="4" height="4"></rect><polygon points="60 24.883 58 24.633 58 28.945 60 30.195 60 24.883"></polygon><rect x="24" y="24" width="4" height="2"></rect><polygon points="54.586 8 50.5 8 49 10 52.586 10 54.586 8"></polygon><rect x="48" y="12" width="4" height="4"></rect><polygon points="54 22.117 56 22.367 56 16.618 54 17.618 54 22.117"></polygon><rect x="9" y="52" width="14" height="2"></rect><rect x="9" y="56" width="14" height="4"></rect><polygon points="60 5.414 58 7.414 58 13.382 60 12.382 60 5.414"></polygon><polygon points="60 14.618 58 15.618 58 22.617 60 22.867 60 14.618"></polygon><path d="M14,30a1,1,0,0,0-1,1V42H11V35a1,1,0,0,0-2,0V50H23V46.83a1,1,0,0,1,.293-.707l5.66-5.66a1,1,0,0,0,0-1.416,1.015,1.015,0,0,0-1.416,0l-2.83,2.829A1,1,0,0,1,23,41.17V33a1,1,0,0,0-1-1,.965.965,0,0,0-.694.287A.978.978,0,0,0,21,33v9H19V28a1,1,0,0,0-2,0V42H15V31A1,1,0,0,0,14,30Z"></path><polygon points="53.5 4 52 6 56.586 6 58.586 4 53.5 4"></polygon><rect x="36" y="24" width="4" height="2"></rect><rect x="36" y="18" width="4" height="4"></rect><rect x="24" y="12" width="4" height="4"></rect><rect x="36" y="12" width="4" height="4"></rect><rect x="24" y="18" width="4" height="4"></rect><polygon points="41.057 8 36.781 8 36.281 10 40.307 10 41.057 8"></polygon><polygon points="48 8 43.193 8 42.443 10 46.5 10 48 8"></polygon><rect x="42" y="12" width="4" height="4"></rect><polygon points="42.557 4 37.781 4 37.281 6 41.807 6 42.557 4"></polygon><rect x="42" y="18" width="4" height="4"></rect><polygon points="51 4 44.693 4 43.943 6 49.5 6 51 4"></polygon></g></svg>