<svg xmlns="http://www.w3.org/2000/svg" viewBox="0 0 64 64" x="0px" y="0px"><g data-name="Online Shop"><rect x="31" y="56" width="2" height="2"></rect><path d="M52.9,14.555,51,10.743V7a5.006,5.006,0,0,0-5-5H18a5.006,5.006,0,0,0-5,5v3.722l-1.9,3.835A1,1,0,0,0,11,15v3a4.977,4.977,0,0,0,2,3.974V57a5.006,5.006,0,0,0,5,5H46a5.006,5.006,0,0,0,5-5V21.974A4.977,4.977,0,0,0,53,18V15A1.01,1.01,0,0,0,52.9,14.555ZM18,4H46a3,3,0,0,1,3,3v3.022l-34,.02V7A3,3,0,0,1,18,4ZM46,60H18a3,3,0,0,1-3-3V54H49v3A3,3,0,0,1,46,60Zm3-8H15V22.9a4.962,4.962,0,0,0,5-1.93,4.954,4.954,0,0,0,8,0,4.954,4.954,0,0,0,8,0,4.954,4.954,0,0,0,8,0,4.962,4.962,0,0,0,5,1.93Zm2-34a3,3,0,0,1-6,0H43a3,3,0,0,1-6,0H35a3,3,0,0,1-6,0H27a3,3,0,0,1-6,0H19a3,3,0,0,1-6,0V15.234l1.578-3.192,34.824-.02L51,15.235Z"></path><rect x="28" y="6" width="8" height="2"></rect><path d="M37,28H27a5.006,5.006,0,0,0-5,5v2a1,1,0,0,0,1,1h1v2H23a1,1,0,0,0-1,1v3a2,2,0,0,0,2,2H40a2,2,0,0,0,2-2V39a1,1,0,0,0-1-1H40V36h1a1,1,0,0,0,1-1V33A5.006,5.006,0,0,0,37,28Zm3,14H24V40H40Zm-2-4H26V36H38Zm2-4H24V33a3,3,0,0,1,3-3v2h2V30h2v2h2V30h2v2h2V30a3,3,0,0,1,3,3Z"></path></g></svg>