<svg xmlns="http://www.w3.org/2000/svg" viewBox="0 0 64 64" x="0px" y="0px"><g><path d="M32,52a2,2,0,0,1-2-2V49H29a2,2,0,0,1,0-4l.113.016.76.049.25-.718a1.982,1.982,0,0,1,3.755,0l.25.719.8-.052.11-.014A2,2,0,0,1,35,49H34v1A2,2,0,0,1,32,52Z"></path><path d="M37.618,32h2.939L38.55,26.649a.993.993,0,0,0-.55-.56V31a.982.982,0,0,1-.469.826Z"></path><path d="M25.449,26.649,23.443,32h2.939l.087-.174A.982.982,0,0,1,26,31V26.089A1,1,0,0,0,25.449,26.649Z"></path><circle cx="32" cy="18" r="1"></circle><polygon points="30.721 33 33.279 33 33.613 32 30.387 32 30.721 33"></polygon><path d="M36,18.185a2.951,2.951,0,0,0-.511-1.676C33.59,13.733,32.376,13,32,13s-1.59.733-3.489,3.508A2.959,2.959,0,0,0,28,18.185V30h3V24h2v6h3ZM32,21a3,3,0,1,1,3-3A3,3,0,0,1,32,21Z"></path><path d="M44.21,54.95a25.965,25.965,0,0,1-24.42,0,8.8,8.8,0,0,1-.66,1.91,27.945,27.945,0,0,0,25.74,0A8.8,8.8,0,0,1,44.21,54.95ZM7.14,19.13a27.945,27.945,0,0,0,0,25.74,8.8,8.8,0,0,1,1.91-.66,25.965,25.965,0,0,1,0-24.42A8.8,8.8,0,0,1,7.14,19.13Zm49.72,0a8.8,8.8,0,0,1-1.91.66,25.965,25.965,0,0,1,0,24.42,8.8,8.8,0,0,1,1.91.66,27.945,27.945,0,0,0,0-25.74ZM32,4A27.73,27.73,0,0,0,19.13,7.14a8.8,8.8,0,0,1,.66,1.91,25.965,25.965,0,0,1,24.42,0,8.8,8.8,0,0,1,.66-1.91A27.73,27.73,0,0,0,32,4Z"></path><path d="M36.329,40.4A4.993,4.993,0,0,1,35,37H33a6.976,6.976,0,0,0,1.862,4.754Z"></path><path d="M31,37H29a4.989,4.989,0,0,1-1.328,3.394l1.469,1.357A6.977,6.977,0,0,0,31,37Z"></path><path d="M11,18a7,7,0,1,0-7-7A7.008,7.008,0,0,0,11,18Zm0-6a2.993,2.993,0,0,1-1-5.816V5h2V6.184A3,3,0,0,1,14,9H12a1,1,0,1,0-1,1,2.993,2.993,0,0,1,1,5.816V17H10V15.816A3,3,0,0,1,8,13h2a1,1,0,1,0,1-1Z"></path><path d="M53,18a7,7,0,1,0-7-7A7.008,7.008,0,0,0,53,18Zm0-6a2.993,2.993,0,0,1-1-5.816V5h2V6.184A3,3,0,0,1,56,9H54a1,1,0,1,0-1,1,2.993,2.993,0,0,1,1,5.816V17H52V15.816A3,3,0,0,1,50,13h2a1,1,0,1,0,1-1Z"></path><path d="M53,46a7,7,0,1,0,7,7A7.008,7.008,0,0,0,53,46Zm0,6a2.993,2.993,0,0,1,1,5.816V59H52V57.816A3,3,0,0,1,50,55h2a1,1,0,1,0,1-1,2.993,2.993,0,0,1-1-5.816V47h2v1.184A3,3,0,0,1,56,51H54a1,1,0,1,0-1,1Z"></path><path d="M11,46a7,7,0,1,0,7,7A7.008,7.008,0,0,0,11,46Zm0,6a2.993,2.993,0,0,1,1,5.816V59H10V57.816A3,3,0,0,1,8,55h2a1,1,0,1,0,1-1,2.993,2.993,0,0,1-1-5.816V47h2v1.184A3,3,0,0,1,14,51H12a1,1,0,1,0-1,1Z"></path><path d="M19.812,19.753a18,18,0,0,0-1.058,25.435l1.472-1.355a16,16,0,0,1,.941-22.608Z"></path><path d="M45.246,45.188a18,18,0,0,0-1.058-25.435l-1.355,1.472a16,16,0,0,1,.942,22.608Z"></path></g></svg>