<svg xmlns="http://www.w3.org/2000/svg" viewBox="0 0 64 64" x="0px" y="0px"><g><path d="M50.748,25.285a5.987,5.987,0,0,0-.469-1.139,1,1,0,0,1,.172-1.183l1.62-1.62-1.414-1.414-1.62,1.62a1,1,0,0,1-1.183.172,5.987,5.987,0,0,0-1.139-.469A1,1,0,0,1,46,20.294V18H44v2.294a1,1,0,0,1-.715.958,5.987,5.987,0,0,0-1.139.469,1,1,0,0,1-1.183-.172l-1.62-1.62-1.414,1.414,1.62,1.62a1,1,0,0,1,.172,1.183,5.987,5.987,0,0,0-.469,1.139,1,1,0,0,1-.958.715H36v2h2.294a1,1,0,0,1,.958.715,5.987,5.987,0,0,0,.469,1.139,1,1,0,0,1-.172,1.183l-1.62,1.62,1.414,1.414,1.62-1.62a1,1,0,0,1,1.183-.172,5.987,5.987,0,0,0,1.139.469,1,1,0,0,1,.715.958V36h2V33.706a1,1,0,0,1,.715-.958,5.987,5.987,0,0,0,1.139-.469,1,1,0,0,1,1.183.172l1.62,1.62,1.414-1.414-1.62-1.62a1,1,0,0,1-.172-1.183,5.987,5.987,0,0,0,.469-1.139A1,1,0,0,1,51.706,28H54V26H51.706A1,1,0,0,1,50.748,25.285ZM45,31a4,4,0,1,1,4-4A4,4,0,0,1,45,31Z"></path><circle cx="22" cy="42" r="4"></circle><path d="M60,12H4V57a3,3,0,0,0,3,3H57a3,3,0,0,0,3-3ZM36,45a1,1,0,0,1-1,1H31.657l2.364,2.364a1,1,0,0,1,0,1.414l-4.243,4.243a1,1,0,0,1-1.414,0L26,51.657V55a1,1,0,0,1-1,1H19a1,1,0,0,1-1-1V51.657l-2.364,2.364a1,1,0,0,1-1.414,0L9.979,49.778a1,1,0,0,1,0-1.414L12.343,46H9a1,1,0,0,1-1-1V39a1,1,0,0,1,1-1h3.343L9.979,35.636a1,1,0,0,1,0-1.414l4.243-4.243a1,1,0,0,1,1.414,0L18,32.343V29a1,1,0,0,1,1-1h6a1,1,0,0,1,1,1v3.343l2.364-2.364a1,1,0,0,1,1.414,0l4.243,4.243a1,1,0,0,1,0,1.414L31.657,38H35a1,1,0,0,1,1,1ZM56,29a1,1,0,0,1-1,1H52.416l-.051.123,1.827,1.827a1,1,0,0,1,0,1.414l-2.828,2.828a1,1,0,0,1-1.414,0l-1.827-1.827L48,34.416V37a1,1,0,0,1-1,1H43a1,1,0,0,1-1-1V34.416l-.123-.051L40.05,36.192a1.029,1.029,0,0,1-1.414,0l-2.828-2.828a1,1,0,0,1,0-1.414l1.827-1.827L37.584,30H35a1,1,0,0,1-1-1V25a1,1,0,0,1,1-1h2.584l.051-.123L35.808,22.05a1,1,0,0,1,0-1.414l2.828-2.828a1,1,0,0,1,1.414,0l1.827,1.827L42,19.584V17a1,1,0,0,1,1-1h4a1,1,0,0,1,1,1v2.584l.123.051,1.827-1.827a1.029,1.029,0,0,1,1.414,0l2.828,2.828a1,1,0,0,1,0,1.414l-1.827,1.827.051.123H55a1,1,0,0,1,1,1Z"></path><path d="M29.534,39.334a7.911,7.911,0,0,0-.322-.776,1,1,0,0,1,.2-1.138L31.9,34.929,29.071,32.1l-2.492,2.491a1,1,0,0,1-1.137.2,8,8,0,0,0-.777-.323A1,1,0,0,1,24,33.522V30H20v3.524a1,1,0,0,1-.666.942,7.911,7.911,0,0,0-.776.322,1,1,0,0,1-1.138-.2L14.929,32.1,12.1,34.929l2.491,2.492a1,1,0,0,1,.2,1.137,8,8,0,0,0-.323.777,1,1,0,0,1-.943.665H10v4h3.524a1,1,0,0,1,.942.666,7.911,7.911,0,0,0,.322.776,1,1,0,0,1-.2,1.138L12.1,49.071,14.929,51.9l2.492-2.491a1,1,0,0,1,1.137-.2,8,8,0,0,0,.777.323,1,1,0,0,1,.665.943V54h4V50.476a1,1,0,0,1,.666-.942,7.911,7.911,0,0,0,.776-.322,1,1,0,0,1,1.138.2L29.071,51.9,31.9,49.071l-2.491-2.492a1,1,0,0,1-.2-1.137,8,8,0,0,0,.323-.777A1,1,0,0,1,30.478,44H34V40H30.476A1,1,0,0,1,29.534,39.334ZM22,48a6,6,0,1,1,6-6A6.006,6.006,0,0,1,22,48Z"></path><circle cx="45" cy="27" r="2"></circle><path d="M60,7a3,3,0,0,0-3-3H7A3,3,0,0,0,4,7v3H60ZM9,8H7V6H9Zm4,0H11V6h2Zm4,0H15V6h2Z"></path></g></svg>