<svg xmlns="http://www.w3.org/2000/svg" viewBox="0 0 64 64" x="0px" y="0px"><g><path d="M21.206,32.778a7.913,7.913,0,0,0,1.027,2.474,1,1,0,0,1-.139,1.24l-1.579,1.579,1.414,1.414,1.579-1.579a1,1,0,0,1,1.241-.138A7.959,7.959,0,0,0,27.222,38.8,1,1,0,0,1,28,39.77V42h2V39.77a1,1,0,0,1,.778-.975,7.959,7.959,0,0,0,2.473-1.027,1,1,0,0,1,1.241.138l1.579,1.579,1.414-1.414-1.579-1.579a1,1,0,0,1-.139-1.24,7.913,7.913,0,0,0,1.027-2.474A1,1,0,0,1,37.77,32H40V30H37.77a1,1,0,0,1-.976-.778,7.913,7.913,0,0,0-1.027-2.474,1,1,0,0,1,.139-1.24l1.579-1.579-1.414-1.414-1.579,1.579a1,1,0,0,1-1.241.138,7.959,7.959,0,0,0-2.473-1.027A1,1,0,0,1,30,22.23V20H28v2.23a1,1,0,0,1-.778.975,7.959,7.959,0,0,0-2.473,1.027,1,1,0,0,1-1.241-.138l-1.579-1.579-1.414,1.414,1.579,1.579a1,1,0,0,1,.139,1.24,7.913,7.913,0,0,0-1.027,2.474A1,1,0,0,1,20.23,30H18v2h2.23A1,1,0,0,1,21.206,32.778ZM29,26a5,5,0,1,1-5,5A5.006,5.006,0,0,1,29,26Z"></path><circle cx="29" cy="31" r="3"></circle><path d="M60,4H4v6H60ZM8,8H6V6H8Zm4,0H10V6h2Zm4,0H14V6h2Z"></path><polygon points="54 49 52 49 52 47 54 47 54 43 52 43 52 41 54 41 54 37 50 37 50 35 54 35 54 31 52 31 52 29 54 29 54 25 52 25 52 23 54 23 54 17 46 17 46 55 54 55 54 49"></polygon><path d="M60,60V12H12V60ZM44,16a1,1,0,0,1,1-1H55a1,1,0,0,1,1,1V56a1,1,0,0,1-1,1H45a1,1,0,0,1-1-1ZM16,29a1,1,0,0,1,1-1h2.466a9.9,9.9,0,0,1,.672-1.619l-1.744-1.745a1,1,0,0,1,0-1.414l2.828-2.828a1,1,0,0,1,1.414,0l1.745,1.745A9.858,9.858,0,0,1,26,21.466V19a1,1,0,0,1,1-1h4a1,1,0,0,1,1,1v2.466a9.858,9.858,0,0,1,1.619.673l1.745-1.745a1,1,0,0,1,1.414,0l2.828,2.828a1,1,0,0,1,0,1.414l-1.744,1.745A9.9,9.9,0,0,1,38.534,28H41a1,1,0,0,1,1,1v4a1,1,0,0,1-1,1H38.534a9.9,9.9,0,0,1-.672,1.619l1.744,1.745a1,1,0,0,1,0,1.414l-2.828,2.828a1,1,0,0,1-1.414,0l-1.745-1.745A9.858,9.858,0,0,1,32,40.534V43a1,1,0,0,1-1,1H27a1,1,0,0,1-1-1V40.534a9.858,9.858,0,0,1-1.619-.673l-1.745,1.745a1,1,0,0,1-1.414,0l-2.828-2.828a1,1,0,0,1,0-1.414l1.744-1.745A9.9,9.9,0,0,1,19.466,34H17a1,1,0,0,1-1-1Z"></path><rect x="4" y="12" width="6" height="48"></rect></g></svg>