<svg xmlns="http://www.w3.org/2000/svg" viewBox="0 0 64 64" x="0px" y="0px"><g><rect x="20" y="20" width="2" height="2"></rect><rect x="24" y="20" width="2" height="2"></rect><rect x="20" y="16" width="2" height="2"></rect><rect x="24" y="16" width="2" height="2"></rect><rect x="20" y="24" width="2" height="2"></rect><rect x="24" y="24" width="2" height="2"></rect><rect x="20" y="28" width="2" height="2"></rect><rect x="24" y="28" width="2" height="2"></rect><rect x="20" y="32" width="2" height="2"></rect><rect x="24" y="32" width="2" height="2"></rect><rect x="20" y="36" width="2" height="2"></rect><rect x="24" y="36" width="2" height="2"></rect><rect x="20" y="40" width="2" height="2"></rect><rect x="24" y="40" width="2" height="2"></rect><rect x="20" y="44" width="2" height="2"></rect><rect x="24" y="44" width="2" height="2"></rect><rect x="20" y="48" width="2" height="2"></rect><rect x="24" y="48" width="2" height="2"></rect><rect x="20" y="52" width="2" height="2"></rect><rect x="24" y="52" width="2" height="2"></rect><path d="M48,60V47a1,1,0,0,0-1-1H44.85l2.06-4.59a1,1,0,0,0,.04-.72l-9-28A1,1,0,0,0,37,12V2H35V12H34a1,1,0,0,0-1,1V60H30V13a1,1,0,0,0-1-1H17a1,1,0,0,0-1,1V60H12v2H52V60ZM24,60H22V58h2Zm4,0H26V58a2.006,2.006,0,0,0-2-2H22a2.006,2.006,0,0,0-2,2v2H18V14H28Zm7-46h1.27l.64,2H35Zm0,4h2.56l.64,2H35Zm0,4h3.84l.65,2H35Zm0,4h5.13l.64,2H35Zm0,4h6.41l.65,2H35Zm0,4h7.7l.64,2H35Zm0,4h8.99l.64,2H35Zm0,4h9.45l-.9,2H35Zm0,4h7.65l-.9,2H35Zm0,4h5.85l-.9,2H35Zm1.35,10H35V58h2.25ZM35,56V54h4.05l-.9,2Zm11,4H38.55l5.4-12H46Z"></path></g></svg>