<svg xmlns="http://www.w3.org/2000/svg" viewBox="0 0 64 64" x="0px" y="0px"><g data-name="Hand Washing-Cleaning"><path d="M28,60V36a1,1,0,0,0-2,0v7a1,1,0,0,1-2,0V33a1,1,0,0,0-2,0v9a1,1,0,0,1-2,0V27a1,1,0,0,0-2,0V42a1,1,0,0,1-2,0V32a1,1,0,0,0-2,0V44.17a1,1,0,0,1-1.707.707l-4.36-4.36a1.006,1.006,0,0,0-1.713.7,1.038,1.038,0,0,0,.306.721l7.181,7.181A1,1,0,0,1,14,49.83V60Z"></path><path d="M51,49.83a1,1,0,0,1,.293-.707l7.19-7.19a1.031,1.031,0,0,0,.3-.713.989.989,0,0,0-.3-.7,1,1,0,0,0-1.421,0l-4.355,4.356A1,1,0,0,1,51,44.17V32a1,1,0,0,0-2,0V42a1,1,0,0,1-2,0V27a1,1,0,0,0-2,0V42a1,1,0,0,1-2,0V33a1,1,0,0,0-2,0V43a1,1,0,0,1-2,0V36a1,1,0,0,0-2,0V60H51Z"></path><path d="M11,5a1,1,0,0,0,1-1V3a1,1,0,0,0-2,0V4A1,1,0,0,0,11,5Z"></path><path d="M8.172,5.586A1,1,0,1,0,9.586,4.172l-.708-.708A1,1,0,1,0,7.464,4.878Z"></path><path d="M7,8H8A1,1,0,0,0,8,6H7A1,1,0,0,0,7,8Z"></path><path d="M8.172,8.414l-.708.708a1,1,0,1,0,1.414,1.414l.708-.708A1,1,0,1,0,8.172,8.414Z"></path><path d="M11,12a1,1,0,0,0,1-1V10a1,1,0,0,0-2,0v1A1,1,0,0,0,11,12Z"></path><path d="M13.122,10.536a1,1,0,1,0,1.414-1.414l-.708-.708a1,1,0,1,0-1.414,1.414Z"></path><path d="M13,7a1,1,0,0,0,1,1h1a1,1,0,0,0,0-2H14A1,1,0,0,0,13,7Z"></path><path d="M13.121,5.879a1,1,0,0,0,.707-.293l.708-.708a1,1,0,1,0-1.414-1.414l-.708.708a1,1,0,0,0,.707,1.707Z"></path><path d="M51,16a1,1,0,0,0,1-1V14a1,1,0,0,0-2,0v1A1,1,0,0,0,51,16Z"></path><path d="M48.172,16.586a1,1,0,1,0,1.414-1.414l-.708-.708a1,1,0,1,0-1.414,1.414Z"></path><path d="M47,19h1a1,1,0,0,0,0-2H47a1,1,0,0,0,0,2Z"></path><path d="M48.172,19.414l-.708.708a1,1,0,1,0,1.414,1.414l.708-.708a1,1,0,0,0-1.414-1.414Z"></path><path d="M51,23a1,1,0,0,0,1-1V21a1,1,0,0,0-2,0v1A1,1,0,0,0,51,23Z"></path><path d="M52.414,20.828l.708.708a1,1,0,0,0,1.414-1.414l-.708-.708a1,1,0,0,0-1.414,1.414Z"></path><path d="M56,18a1,1,0,0,0-1-1H54a1,1,0,0,0,0,2h1A1,1,0,0,0,56,18Z"></path><path d="M53.121,16.879a1,1,0,0,0,.707-.293l.708-.708a1,1,0,1,0-1.414-1.414l-.708.708a1,1,0,0,0,.707,1.707Z"></path><circle cx="8" cy="24" r="1"></circle><circle cx="26" cy="20" r="2"></circle><circle cx="57" cy="7" r="3"></circle><path d="M37,11a1,1,0,0,0,1-1V9a1,1,0,0,0-2,0v1A1,1,0,0,0,37,11Z"></path><path d="M36,12a1,1,0,0,0-1-1H34a1,1,0,0,0,0,2h1A1,1,0,0,0,36,12Z"></path><path d="M37,13a1,1,0,0,0-1,1v1a1,1,0,0,0,2,0V14A1,1,0,0,0,37,13Z"></path><path d="M39,13h1a1,1,0,0,0,0-2H39a1,1,0,0,0,0,2Z"></path></g></svg>