<svg xmlns="http://www.w3.org/2000/svg" viewBox="0 0 64 64" x="0px" y="0px"><g><path d="M57,60V53a1,1,0,0,0-1-1H55V51a1,1,0,0,0,.9-.553l2-4a1,1,0,0,0,0-.894l-1-2A1,1,0,0,0,56,43H46a1,1,0,0,0-.9.553l-1,2a1,1,0,0,0,0,.894l2,4A1,1,0,0,0,47,51v1H46a1,1,0,0,0-1,1v7H41V55a1,1,0,0,0-1-1H39V13a3,3,0,0,1,6,0v1.184A2.993,2.993,0,0,0,46,20h6a2.993,2.993,0,0,0,1-5.816V13A10.993,10.993,0,0,0,32,8.444,10.993,10.993,0,0,0,11,13v1.184A2.993,2.993,0,0,0,12,20h6a2.993,2.993,0,0,0,1-5.816V13a3,3,0,0,1,6,0V54H24a1,1,0,0,0-1,1v5H19V53a1,1,0,0,0-1-1H17V51a1,1,0,0,0,.895-.553l2-4a1,1,0,0,0,0-.894l-1-2A1,1,0,0,0,18,43H8a1,1,0,0,0-.895.553l-1,2a1,1,0,0,0,0,.894l2,4A1,1,0,0,0,9,51v1H8a1,1,0,0,0-1,1v7H2v2H62V60ZM46.118,46l.5-1H48v2h2V45h2v2h2V45h1.382l.5,1-1.5,3H47.618ZM49,51h4v1H49Zm3-33H46a1,1,0,0,1,0-2h6a1,1,0,0,1,0,2ZM42,4a9.01,9.01,0,0,1,9,9v1H47V13a5,5,0,0,0-10,0V54H33V13A9.01,9.01,0,0,1,42,4ZM18,18H12a1,1,0,0,1,0-2h6a1,1,0,0,1,0,2ZM22,8a5.006,5.006,0,0,0-5,5v1H13V13a9,9,0,0,1,18,0V54H27V13A5.006,5.006,0,0,0,22,8ZM8.118,46l.5-1H10v2h2V45h2v2h2V45h1.382l.5,1-1.5,3H9.618ZM11,51h4v1H11ZM9,60V54h8v6Zm16,0V56H39v4Zm22,0V54h8v6Z"></path><path d="M48.128,24.51C47.605,25.441,45,30.174,45,32a4,4,0,0,0,8,0c0-1.826-2.6-6.559-3.128-7.49A1.041,1.041,0,0,0,48.128,24.51ZM49,34a2,2,0,0,1-2-2,19.081,19.081,0,0,1,2-4.888A19.043,19.043,0,0,1,51,32,2,2,0,0,1,49,34Z"></path><path d="M19,32c0-1.826-2.605-6.559-3.128-7.49a1.041,1.041,0,0,0-1.744,0C13.605,25.441,11,30.174,11,32a4,4,0,0,0,8,0Zm-6,0a19.081,19.081,0,0,1,2-4.888A19.043,19.043,0,0,1,17,32a2,2,0,0,1-4,0Z"></path></g></svg>