<svg xmlns="http://www.w3.org/2000/svg" viewBox="0 0 64 64" x="0px" y="0px"><g><rect x="10" y="47" width="2" height="2"></rect><rect x="14" y="47" width="10" height="2"></rect><path d="M47,29A13,13,0,1,0,60,42,13.015,13.015,0,0,0,47,29ZM45,42a2.968,2.968,0,0,1-.149.888L48.34,45.5a3.12,3.12,0,1,1-1.191,1.608L43.66,44.5a3,3,0,1,1,0-4.992l3.49-2.616A2.937,2.937,0,0,1,47,36a3.006,3.006,0,1,1,1.34,2.5l-3.489,2.616A2.968,2.968,0,0,1,45,42Z"></path><circle cx="42" cy="42" r="1"></circle><circle cx="50" cy="36" r="1"></circle><circle cx="50" cy="48" r="1"></circle><path d="M4,12.371,25.836,22.853a4.985,4.985,0,0,0,4.328,0L52,12.371V10a1,1,0,0,0-1-1H5a1,1,0,0,0-1,1Z"></path><path d="M5,41H32.051A14.941,14.941,0,0,1,52,27.875V14.589L31.029,24.655a6.966,6.966,0,0,1-6.058,0L4,14.589V40A1,1,0,0,0,5,41ZM6,30H8v2H6Zm0,4H8v2a1,1,0,0,0,1,1h2v2H9a3,3,0,0,1-3-3Z"></path></g></svg>