<svg xmlns="http://www.w3.org/2000/svg" viewBox="0 0 64 64" x="0px" y="0px"><g data-name="Mobile Banking"><path d="M27,39H53a1,1,0,0,0,1-1V22a1,1,0,0,0-1-1H52V34a3,3,0,0,1-3,3H26v1A1,1,0,0,0,27,39Z"></path><path d="M23,15H44V7a3.009,3.009,0,0,0-3-3H13a3.009,3.009,0,0,0-3,3V57a3.009,3.009,0,0,0,3,3H41a3.009,3.009,0,0,0,3-3V41H27a3.009,3.009,0,0,1-3-3V37H23a3.009,3.009,0,0,1-3-3V18A3.009,3.009,0,0,1,23,15Zm7,43H24V56h6Zm0-13h2v2H30Zm-4,0h2v2H26Zm-4,0h2v2H22Zm19,7V43h2v9a2.006,2.006,0,0,1-2,2H13a2.006,2.006,0,0,1-2-2V7a2.006,2.006,0,0,1,2-2h6a1.033,1.033,0,0,1,.71.29L21.41,7H32.59l1.7-1.71A1.033,1.033,0,0,1,35,5h6a2.006,2.006,0,0,1,2,2v6H41V7H35.41l-1.7,1.71A1.033,1.033,0,0,1,33,9H21a1.033,1.033,0,0,1-.71-.29L18.59,7H13V52Z"></path><path d="M22,18V34a1,1,0,0,0,1,1H49a1,1,0,0,0,1-1V18a1,1,0,0,0-1-1H23A1,1,0,0,0,22,18Zm8,15H28V31h2Zm4,0H32V31h2ZM46,20h2v4H46Zm-4,0h2v4H42Zm1.507,7.421A2.959,2.959,0,0,1,45,27a3,3,0,0,1,0,6,2.959,2.959,0,0,1-1.493-.421A2.965,2.965,0,0,1,42,33a3,3,0,0,1,0-6A2.965,2.965,0,0,1,43.507,27.421ZM38,20h2v4H38ZM24,20a1,1,0,0,1,1-1h6a1,1,0,0,1,1,1v4a1,1,0,0,1-1,1H25a1,1,0,0,1-1-1Zm0,7H34v2H24Zm0,4h2v2H24Z"></path><circle cx="42" cy="30" r="1"></circle><path d="M45,31a1,1,0,0,0,0-2,.928.928,0,0,0-.172.038,2.776,2.776,0,0,1,0,1.924A.928.928,0,0,0,45,31Z"></path><rect x="26" y="21" width="4" height="2"></rect></g></svg>