<svg xmlns="http://www.w3.org/2000/svg" viewBox="0 0 64 64" x="0px" y="0px"><g><path d="M37.293,16.707l1.414-1.414L37,13.586V11H35v3a1,1,0,0,0,.293.707Z"></path><path d="M37.707,18.293l-1.414,1.414.707.707V22h2V20a1,1,0,0,0-.293-.707Z"></path><path d="M21,23.414V25a1,1,0,0,0,.757.97l3.468.867.826,2.479A1,1,0,0,0,27,30h3a1,1,0,0,0,.707-.293L32,28.414l1.293,1.293A1,1,0,0,0,34,30h3a1,1,0,0,0,.948-.684l.827-2.479,3.467-.867A1,1,0,0,0,43,25V23.414l2.707-2.707A1,1,0,0,0,46,20V15a1.006,1.006,0,0,0-.168-.555L44,11.7V8a1,1,0,0,0-.293-.707l-2-2A1,1,0,0,0,41,5H38.721l-.773-2.316A1,1,0,0,0,37,2H34a1,1,0,0,0-.707.293L32,3.586,30.707,2.293A1,1,0,0,0,30,2H27a1,1,0,0,0-.949.684L25.279,5H23a1,1,0,0,0-.707.293l-2,2A1,1,0,0,0,20,8v3.7l-1.832,2.748A1.006,1.006,0,0,0,18,15v5a1,1,0,0,0,.293.707ZM34.414,4h1.865l.577,1.73L35.293,7.293A1,1,0,0,0,35,8V9h2V8.414L38.414,7h2.172L42,8.414v3.172l-1.707,1.707A1,1,0,0,0,40,14v1h2v-.586l.845-.844L44,15.3v4.283l-1,1V19H41v5.219l-2.693.674L37,23.586V23H35v1a1,1,0,0,0,.293.707l1.563,1.563L36.279,28H34.414L33,26.586V5.414ZM20,15.3l1.155-1.733.845.844V15h2V14a1,1,0,0,0-.293-.707L22,11.586V8.414L23.414,7h2.172L27,8.414V9h2V8a1,1,0,0,0-.293-.707L27.144,5.73,27.721,4h1.865L31,5.414V26.586L29.586,28H27.721l-.577-1.73,1.563-1.563A1,1,0,0,0,29,24V23H27v.586l-1.307,1.307L23,24.219V19H21v1.586l-1-1Z"></path><path d="M28.707,14.707A1,1,0,0,0,29,14V11H27v2.586l-1.707,1.707,1.414,1.414Z"></path><path d="M27,20.414l.707-.707-1.414-1.414-1,1A1,1,0,0,0,25,20v2h2Z"></path><path d="M58,48H16a7,7,0,0,0,0,14H58a1,1,0,0,0,1-1V58a1,1,0,0,0-1-1,2,2,0,0,1,0-4,1,1,0,0,0,1-1V49A1,1,0,0,0,58,48Zm-1,3H21V50H57ZM11,55a5.006,5.006,0,0,1,5-5h3v1H16a4,4,0,0,0,0,8h3v1H16A5.006,5.006,0,0,1,11,55Zm46,5H21V59H57Zm-2.858-6H18v2H54.142a3.966,3.966,0,0,0,.414,1H16a2,2,0,0,1,0-4H54.556A3.966,3.966,0,0,0,54.142,54Z"></path><path d="M55,40a7.008,7.008,0,0,0-7-7H6a1,1,0,0,0-1,1v3a1,1,0,0,0,1,1,2,2,0,0,1,0,4,1,1,0,0,0-1,1v3a1,1,0,0,0,1,1H48A7.008,7.008,0,0,0,55,40Zm-2,0a5.006,5.006,0,0,1-5,5H45V44h3a4,4,0,0,0,0-8H45V35h3A5.006,5.006,0,0,1,53,40ZM7,35H43v1H7Zm2.858,6H46V39H9.858a3.966,3.966,0,0,0-.414-1H48a2,2,0,0,1,0,4H9.444A3.966,3.966,0,0,0,9.858,41ZM7,44H43v1H7Z"></path><polygon points="52 10 54 10 54 8 56 8 56 6 54 6 54 4 52 4 52 6 50 6 50 8 52 8 52 10"></polygon><polygon points="6 21 6 19 8 19 8 17 6 17 6 15 4 15 4 17 2 17 2 19 4 19 4 21 6 21"></polygon><polygon points="62 25 60 25 60 23 58 23 58 25 56 25 56 27 58 27 58 29 60 29 60 27 62 27 62 25"></polygon><polygon points="13 8 15 8 15 6 17 6 17 4 15 4 15 2 13 2 13 4 11 4 11 6 13 6 13 8"></polygon></g></svg>