<svg xmlns="http://www.w3.org/2000/svg" viewBox="0 0 64 64" x="0px" y="0px"><g><path d="M11.414,56H52.586l-4-4H15.414ZM46,53h2v2H46Zm-4,0h2v2H42ZM24,53H40v2H24Zm-4,0h2v2H20Zm-4,0h2v2H16Z"></path><rect x="10" y="58" width="44" height="2"></rect><path d="M19,50H17V48a1,1,0,0,0-1-1H10a3,3,0,0,1,0-6h6a1,1,0,0,0,1-1V38h2v2a3,3,0,0,1-3,3H10a1,1,0,0,0,0,2h6a3,3,0,0,1,3,3Z"></path><path d="M11,35a1,1,0,0,0,1,1H52a1,1,0,0,0,1-1V32H11Zm36-2h2v2H47Z"></path><path d="M18,29a1,1,0,0,0,1,1H45a1,1,0,0,0,1-1V10H18Zm14-2a2,2,0,1,1,2-2A2,2,0,0,1,32,27Zm0-15a3,3,0,0,1,3,3c0,1.249-1.615,4.492-2.11,5.457a1,1,0,0,1-1.78,0C30.615,19.492,29,16.249,29,15A3,3,0,0,1,32,12Z"></path><path d="M33,15a1,1,0,0,0-2,0,12.007,12.007,0,0,0,1,2.7A12.008,12.008,0,0,0,33,15Z"></path><path d="M46,5a1,1,0,0,0-1-1H19a1,1,0,0,0-1,1V8H46ZM22,7H20V5h2Zm4,0H24V5h2Zm4,0H28V5h2Z"></path><rect x="28" y="38" width="8" height="4"></rect><path d="M16.18,30H11V9a1,1,0,0,1,1-1h4V29A3,3,0,0,0,16.18,30Z"></path><path d="M53,9V30H47.82A3,3,0,0,0,48,29V8h4A1,1,0,0,1,53,9Z"></path><rect x="23" y="44" width="18" height="2"></rect></g></svg>