<svg xmlns="http://www.w3.org/2000/svg" viewBox="0 0 64 64" x="0px" y="0px"><g data-name="Shopping-Shopping Bag-Gift-Commerce-Business"><path d="M42,50H22a3,3,0,0,0,0,6H42a3,3,0,0,0,0-6Zm0,4H22a1,1,0,0,1,0-2H42a1,1,0,0,1,0,2Z"></path><path d="M61.66,42.25l-3.37-3-1.33,1.5L58.37,42H53V40H51v2H42a.988.988,0,0,0-.89.55L40.38,44H31V32h1a1,1,0,0,0,1-1V25a1,1,0,0,0-1-1H26.97A4.924,4.924,0,0,0,28,21V19a1,1,0,0,0-1-1H23a4.994,4.994,0,0,0-4,2.03A4.994,4.994,0,0,0,15,18H11a1,1,0,0,0-1,1v2a4.924,4.924,0,0,0,1.03,3H6a1,1,0,0,0-1,1v6a1,1,0,0,0,1,1H7V42H5.63l.28-.25-1.32-1.5-2.25,2A.981.981,0,0,0,2,43V59a3.009,3.009,0,0,0,3,3H59a3.009,3.009,0,0,0,3-3V43A.981.981,0,0,0,61.66,42.25ZM31,26v4H24V26Zm-2,6V44H23.62L23,42.76V32Zm-9-9a3.009,3.009,0,0,1,3-3h3v1a3.009,3.009,0,0,1-3,3H20Zm2,3v4H16V26Zm-1,6V42H17V32ZM12,20h3a3.009,3.009,0,0,1,3,3v1H15a3.009,3.009,0,0,1-3-3ZM7,26h7v4H7Zm8,6V42H9V32ZM60,59a1,1,0,0,1-1,1H5a1,1,0,0,1-1-1V44H21.38l.73,1.45A.988.988,0,0,0,23,46H41a.988.988,0,0,0,.89-.55L42.62,44H60Z"></path><path d="M57,15H42V11a1,1,0,0,0-1-1H36V9A7,7,0,0,0,22,9v1H17a1,1,0,0,0-1,1v5h2V12h4v3h2V12H34v3h2V12h4v3H39a1,1,0,0,0-1,1V34H33v2h5.18A3.035,3.035,0,0,0,40,37.82V39a1,1,0,0,1-1,1H33v2h6a3.009,3.009,0,0,0,3-3V38H55a3.009,3.009,0,0,0,3-3V16A1,1,0,0,0,57,15ZM34,10H24V9A5,5,0,0,1,34,9ZM56,35a1,1,0,0,1-1,1H41a1,1,0,0,1-1-1V34H56Zm0-3H40V17H56Z"></path><path d="M48,26a4,4,0,0,0,4-4V19H50v3a2,2,0,0,1-4,0V19H44v3A4,4,0,0,0,48,26Z"></path></g></svg>