<svg xmlns="http://www.w3.org/2000/svg" viewBox="0 0 64 64" x="0px" y="0px"><g data-name="Car Control-Internet of Things-Internet-Car-Smartphone"><path d="M58,12H50.48l-7.1-8.88A3.012,3.012,0,0,0,41.04,2h-13a3.021,3.021,0,0,0-2.46,1.28L19.48,12H17a2.006,2.006,0,0,0-2,2v6H14a5,5,0,0,0-5,5V37.75L5.02,42.23a11.059,11.059,0,0,0-2.76,7.99L3,62.06l2-.12L4.26,50.1a9.055,9.055,0,0,1,2.26-6.55L9,40.76v8.17l-.33.57,1.73,1,3-5.2a1.007,1.007,0,0,1,1.37-.36.99.99,0,0,1,.46.6.963.963,0,0,1-.1.76l-3,5.2a.994.994,0,0,0,.04,1.05l.89,1.34a5.615,5.615,0,0,1,0,6.22l-.89,1.34,1.66,1.1.89-1.33A7.561,7.561,0,0,0,16,57a8.258,8.258,0,0,0-.07-1H28a5,5,0,0,0,5-5V28H44.09a5.993,5.993,0,0,0,11.82,0H59a2.006,2.006,0,0,0,2-2V15A3.009,3.009,0,0,0,58,12ZM44.72,8l3.2,4H39V8ZM31,51a3.009,3.009,0,0,1-3,3H15.37a7.535,7.535,0,0,0-.65-1.22l-.54-.82L16.46,48H31Zm0-5H17.25a3,3,0,0,0-.68-2.11A.886.886,0,0,0,17,44h8a1,1,0,0,0,1-1V37a1,1,0,0,0-1-1V34a4,4,0,0,0-8,0v2a1,1,0,0,0-1,1v6a.947.947,0,0,0,.13.47,1.831,1.831,0,0,0-.36-.26,3,3,0,0,0-4.1,1.09L11,45.46V28H31Zm-7-8v4H18V38Zm-5-2V34a2,2,0,0,1,4,0v2ZM31,26H11V25a3.009,3.009,0,0,1,3-3H28a3.009,3.009,0,0,1,3,3Zm6,0H33V25a5,5,0,0,0-5-5H17V14h2.48a2.007,2.007,0,0,0,1.64-.86l6.09-8.71A1.043,1.043,0,0,1,28.04,4h13a1,1,0,0,1,.78.38L43.12,6H29a1,1,0,0,0-.83.45l-4,6a.963.963,0,0,0-.05,1.02A.984.984,0,0,0,25,14H37Zm0-14H26.87l2.67-4H37ZM50,31a4,4,0,1,1,4-4A4,4,0,0,1,50,31Zm9-11H57V18h2Zm0-4H56a1,1,0,0,0-1,1v4a1,1,0,0,0,1,1h3v4H55.91a5.993,5.993,0,0,0-11.82,0H39V14H58a1,1,0,0,1,1,1Z"></path><rect x="41" y="16" width="4" height="2"></rect><rect x="25" y="16" width="4" height="2"></rect><rect x="49" y="26" width="2" height="2"></rect><path d="M58.243,48.03l-1.668-.417c-.071-.2-.15-.387-.238-.575l.884-1.473a1,1,0,0,0-.15-1.222l-1.414-1.414a1,1,0,0,0-1.222-.15l-1.473.884c-.188-.088-.379-.167-.575-.238l-.417-1.668A1,1,0,0,0,51,41H49a1,1,0,0,0-.97.757l-.417,1.668c-.2.071-.387.15-.575.238l-1.473-.884a1,1,0,0,0-1.222.15l-1.414,1.414a1,1,0,0,0-.15,1.222l.884,1.473c-.088.188-.167.379-.238.575l-1.668.417A1,1,0,0,0,41,49v2a1,1,0,0,0,.757.97l1.668.417c.071.2.15.387.238.575l-.884,1.473a1,1,0,0,0,.15,1.222l1.414,1.414a1,1,0,0,0,1.222.15l1.473-.884c.188.088.379.167.575.238l.417,1.668A1,1,0,0,0,49,59h2a1,1,0,0,0,.97-.757l.417-1.668c.2-.071.387-.15.575-.238l1.473.884a1,1,0,0,0,1.222-.15l1.414-1.414a1,1,0,0,0,.15-1.222l-.884-1.473c.088-.188.167-.379.238-.575l1.668-.417A1,1,0,0,0,59,51V49A1,1,0,0,0,58.243,48.03ZM57,50.219l-1.453.364a1,1,0,0,0-.723.711,5.02,5.02,0,0,1-.5,1.2,1,1,0,0,0,.008,1.015l.769,1.282-.31.31-1.282-.769a1,1,0,0,0-1.015-.008,5.02,5.02,0,0,1-1.2.5,1,1,0,0,0-.711.723L50.219,57h-.438l-.364-1.453a1,1,0,0,0-.711-.723,5.02,5.02,0,0,1-1.2-.5,1,1,0,0,0-1.015.008l-1.282.769-.31-.31.769-1.282a1,1,0,0,0,.008-1.015,5.02,5.02,0,0,1-.5-1.2,1,1,0,0,0-.723-.711L43,50.219v-.438l1.453-.364a1,1,0,0,0,.723-.711,5.02,5.02,0,0,1,.5-1.2,1,1,0,0,0-.008-1.015L44.9,45.206l.31-.31,1.282.769a1,1,0,0,0,1.015.008,5.02,5.02,0,0,1,1.2-.5,1,1,0,0,0,.711-.723L49.781,43h.438l.364,1.453a1,1,0,0,0,.711.723,5.02,5.02,0,0,1,1.2.5,1,1,0,0,0,1.015-.008l1.282-.769.31.31-.769,1.282a1,1,0,0,0-.008,1.015,5.02,5.02,0,0,1,.5,1.2,1,1,0,0,0,.723.711L57,49.781Z"></path><path d="M50,47a3,3,0,1,0,3,3A3,3,0,0,0,50,47Zm0,4a1,1,0,1,1,1-1A1,1,0,0,1,50,51Z"></path><rect x="49" y="35" width="2" height="4"></rect><rect x="35" y="49" width="4" height="2"></rect><rect x="20" y="50" width="2" height="2"></rect></g></svg>