<svg xmlns="http://www.w3.org/2000/svg" viewBox="0 0 64 64" x="0px" y="0px"><title>Coffee Pot</title><g data-name="Coffee Pot"><path d="M54,8H46.078L8.156,2.012a1,1,0,0,0-1.105,1.3l3.824,11.473C5.725,20.027,3,27.683,3,37c0,9.949,3.369,18.377,9.487,23.731A5.078,5.078,0,0,0,15.826,62H42.174a5.078,5.078,0,0,0,3.339-1.269C51.631,55.377,55,46.949,55,37c0-9.392-2.769-17.1-8-22.338V14h5a3,3,0,0,1,3,3v8a3,3,0,0,0,6,0V15A7.008,7.008,0,0,0,54,8ZM45,9.854V14H12.721L9.469,4.244Zm-.8,49.372A3.076,3.076,0,0,1,42.174,60H15.826a3.076,3.076,0,0,1-2.021-.774C8.956,54.983,5.976,48.6,5.206,41H52.794C52.024,48.6,49.044,54.983,44.2,59.226ZM52.947,39H5.053C5.021,38.341,5,37.675,5,37c0-8.891,2.583-16.141,7.477-21H45.523C50.417,20.859,53,28.109,53,37,53,37.675,52.979,38.341,52.947,39ZM59,25a1,1,0,0,1-2,0V17a5.006,5.006,0,0,0-5-5H47V10h7a5.006,5.006,0,0,1,5,5Z"></path><rect x="24" y="36" width="8" height="2"></rect><rect x="24" y="30" width="8" height="2"></rect><rect x="24" y="24" width="8" height="2"></rect><rect x="24" y="42" width="8" height="2"></rect><rect x="24" y="48" width="8" height="2"></rect></g></svg>