<svg xmlns="http://www.w3.org/2000/svg" viewBox="0 0 64 64" x="0px" y="0px"><g><path d="M21,21H10V49H26a1,1,0,0,1,.948.684L27.721,52h8.558l.773-2.316A1,1,0,0,1,38,49H54V21H43v6.471a9.045,9.045,0,0,1-4.369,7.717l-6.116,3.669a1,1,0,0,1-1.03,0l-6.116-3.669A9.045,9.045,0,0,1,21,27.471Z"></path><path d="M6,49H8V21a2,2,0,0,1,2-2H21V17H9a3,3,0,0,0-3,3Z"></path><path d="M58,49V20a3,3,0,0,0-3-3H43v2H54a2,2,0,0,1,2,2V49Z"></path><path d="M60,51H38.721l-.545,1.633A2,2,0,0,1,36.279,54H27.721a2,2,0,0,1-1.9-1.368L25.279,51H4v2a3,3,0,0,0,3,3H57a3,3,0,0,0,3-3Z"></path><path d="M26.4,33.473,32,36.834l5.6-3.361a7.036,7.036,0,0,0,3.4-6v-14.5a14.006,14.006,0,0,1-9.071-3.585C29.209,11.5,24.845,12.5,23,12.844V27.471A7.036,7.036,0,0,0,26.4,33.473Zm1.309-10.18L30,25.586l7.293-7.293,1.414,1.414-8,8a1,1,0,0,1-1.414,0l-3-3Z"></path></g></svg>