<svg xmlns="http://www.w3.org/2000/svg" viewBox="0 0 64 64" x="0px" y="0px"><g data-name="Bottle"><path d="M46,47H18V57a3,3,0,0,0,3,3H43a3,3,0,0,0,3-3Z"></path><path d="M46,31H18V45H46ZM32,43a5,5,0,1,1,5-5A5.006,5.006,0,0,1,32,43Z"></path><circle cx="32" cy="38" r="3"></circle><path d="M46,23.062a4.976,4.976,0,0,0-3.143-4.642l-6.229-2.491A1,1,0,0,1,36,15V12H28v3a1,1,0,0,1-.628.929L21.143,18.42A4.976,4.976,0,0,0,18,23.062V29H46Z"></path><path d="M25,4v6H39V4Zm4,4H27V6h2Zm4,0H31V6h2Zm4,0H35V6h2Z"></path></g></svg>