<svg xmlns="http://www.w3.org/2000/svg" viewBox="0 0 64 64" x="0px" y="0px"><g><path d="M25.437,50.137l-.985.173-1.206-6.844A1,1,0,0,0,23.028,43L14.157,32.426A4.031,4.031,0,0,0,10.894,31l-1.152-6.53a4,4,0,1,0-7.878,1.389l3.82,21.665a1,1,0,0,0,.324.577l4.544,4,.113.639-.985.174a1,1,0,0,0-.811,1.159l1.389,7.878a1,1,0,0,0,.984.826,1.043,1.043,0,0,0,.175-.015l15.757-2.778a1,1,0,0,0,.811-1.159L26.6,50.948A1,1,0,0,0,25.437,50.137Zm-12.8,2.257-.174-.985a1.007,1.007,0,0,0-.324-.577l-4.544-4-3.76-21.32a2,2,0,0,1,3.939-.694l1.2,6.787a4.4,4.4,0,0,0-.453.327,4.012,4.012,0,0,0-.493,5.635l7.349,8.757,1.532-1.285L9.557,36.285A2.007,2.007,0,0,1,9.8,33.472a1.865,1.865,0,0,1,.6-.342c.034-.011.067-.024.1-.038a1.317,1.317,0,0,1,.248-.064,1.982,1.982,0,0,1,1.882.684l8.7,10.365,1.161,6.581Zm-.581,8.226-1.041-5.909.981-.173L24.8,52.28l1.041,5.909Z"></path><path d="M61.475,22.872a4,4,0,0,0-7.217,1.6L53.106,31a4.06,4.06,0,0,0-3.262,1.423L40.972,43a1,1,0,0,0-.218.468L39.548,50.31l-.985-.173a1,1,0,0,0-1.159.811l-1.389,7.878a1,1,0,0,0,.811,1.159l15.757,2.778a1.043,1.043,0,0,0,.175.015,1,1,0,0,0,.984-.826l1.389-7.878a1,1,0,0,0-.811-1.159l-.985-.174.113-.639,4.544-4a1,1,0,0,0,.324-.577l3.82-21.665A3.974,3.974,0,0,0,61.475,22.872ZM51.946,60.62,38.159,58.189,39.2,52.28,52,54.538l.985.173Zm8.221-35.106-3.76,21.32-4.544,4a1.007,1.007,0,0,0-.324.577l-.174.985-9.848-1.736,1.161-6.581,8.7-10.365a1.988,1.988,0,0,1,1.88-.684,1.294,1.294,0,0,1,.25.064c.032.014.065.027.1.038a1.841,1.841,0,0,1,.59.333,2.008,2.008,0,0,1,.249,2.821L47.1,45.041l1.532,1.285,7.349-8.757a4.015,4.015,0,0,0-.5-5.644,4.158,4.158,0,0,0-.441-.319l1.2-6.787a2,2,0,1,1,3.939.7Z"></path><path d="M32,32a4,4,0,0,0-4,4c0,1.941,2.712,5.062,3.256,5.668a1,1,0,0,0,1.488,0C33.288,41.062,36,37.941,36,36A4,4,0,0,0,32,32Zm0,7.451C30.937,38.119,30,36.62,30,36a2,2,0,0,1,4,0C34,36.637,33.061,38.125,32,39.451Z"></path><rect x="44" y="19" width="2" height="4"></rect><rect x="44" y="25" width="2" height="2"></rect><rect x="48" y="21" width="2" height="6"></rect><rect x="48" y="29" width="2" height="2"></rect><rect x="18" y="19" width="2" height="4"></rect><rect x="18" y="25" width="2" height="2"></rect><rect x="14" y="21" width="2" height="6"></rect><rect x="14" y="29" width="2" height="2"></rect><path d="M26.621,22.193a2.967,2.967,0,0,0,1.473,4.652,4,4,0,0,0,7.812,0,2.967,2.967,0,0,0,1.473-4.652,9,9,0,1,0-10.758,0ZM32,28a1.993,1.993,0,0,1-1.722-1h3.444A1.993,1.993,0,0,1,32,28Zm3-3H29a1,1,0,0,1,0-2h6a1,1,0,0,1,0,2ZM32,8a6.983,6.983,0,0,1,3.479,13.048A3.025,3.025,0,0,0,35,21H29a3.025,3.025,0,0,0-.479.048A6.983,6.983,0,0,1,32,8Z"></path><path d="M30.832,17.555,32,15.8l1.168,1.752a1,1,0,0,0,1.664,0l2-3-1.664-1.11L34,15.2l-1.168-1.752a1.039,1.039,0,0,0-1.664,0L30,15.2l-1.168-1.752-1.664,1.11,2,3A1.039,1.039,0,0,0,30.832,17.555Z"></path><rect x="31" y="2" width="2" height="2"></rect><rect x="22.515" y="5.515" width="2" height="2" transform="translate(2.281 18.535) rotate(-45)"></rect><rect x="19" y="14" width="2" height="2"></rect><rect x="43" y="14" width="2" height="2"></rect><rect x="39.485" y="5.515" width="2" height="2" transform="translate(7.251 30.536) rotate(-45)"></rect></g></svg>