<svg xmlns="http://www.w3.org/2000/svg" viewBox="0 0 64 64" x="0px" y="0px"><g><path d="M15.985,52.221a6.558,6.558,0,0,0,5.749,7.743A6.452,6.452,0,0,0,26.05,58.91,6.543,6.543,0,0,0,29,53.435V11.5A7.5,7.5,0,1,0,21.5,19v2a9.506,9.506,0,0,1-9.491-9.317A6.969,6.969,0,0,0,8,18l0,.029a9.915,9.915,0,0,1,5.782-.753l-.342,1.971a7.824,7.824,0,0,0-4.873,14.7c0-.017,0-.033,0-.05a9.209,9.209,0,0,1,4.059-7.637l1.12,1.656a7.214,7.214,0,0,0-.779,11.353,8.45,8.45,0,0,1,4.471-2.922,8.476,8.476,0,0,1,4.095-6.623l1.033,1.713a6.5,6.5,0,0,0-3.092,4.622c.061,0,.119-.01.18-.01v2a6.5,6.5,0,0,0-5.611,3.173l-.01.01,0,0a6.385,6.385,0,0,0-.946,3.379,6.483,6.483,0,0,0,2.435,5.086.976.976,0,0,1,.477.18,6.408,6.408,0,0,0,1.53.839,8.475,8.475,0,0,1,4-5.863l1.033,1.712a6.5,6.5,0,0,0-3.084,4.581,6.341,6.341,0,0,0,2.611-.35l.687,1.879A8.573,8.573,0,0,1,15.985,52.221Z"></path><path d="M9.165,37.156A6.551,6.551,0,0,0,11.3,46.487a8.358,8.358,0,0,1,.606-5.509A9.2,9.2,0,0,1,9.165,37.156Z"></path><path d="M55.957,40.826a6.519,6.519,0,0,0-1.122-3.67,9.2,9.2,0,0,1-2.745,3.822,8.358,8.358,0,0,1,.606,5.509A6.583,6.583,0,0,0,55.957,40.826Z"></path><path d="M56.385,20.533a7.9,7.9,0,0,0-5.827-1.286l-.342-1.971A9.915,9.915,0,0,1,56,18.028L56,18a6.969,6.969,0,0,0-4.009-6.317A9.506,9.506,0,0,1,42.5,21V19A7.5,7.5,0,1,0,35,11.5V53.435a6.538,6.538,0,0,0,2.943,5.47,6.46,6.46,0,0,0,4.323,1.059,6.558,6.558,0,0,0,5.749-7.743,8.577,8.577,0,0,1-6.793.451l.687-1.879a6.339,6.339,0,0,0,2.611.35,6.5,6.5,0,0,0-3.084-4.581l1.033-1.712a8.471,8.471,0,0,1,4,5.863A6.43,6.43,0,0,0,48,49.874a.976.976,0,0,1,.477-.18,6.483,6.483,0,0,0,2.435-5.086,6.385,6.385,0,0,0-.946-3.379l0,0-.01-.01a6.5,6.5,0,0,0-5.611-3.173v-2c.061,0,.119.009.18.01a6.5,6.5,0,0,0-3.092-4.622l1.033-1.713a8.476,8.476,0,0,1,4.095,6.623,8.45,8.45,0,0,1,4.471,2.922,7.214,7.214,0,0,0-.779-11.353l1.12-1.656a9.209,9.209,0,0,1,4.059,7.637c0,.017,0,.033,0,.05a7.822,7.822,0,0,0,.954-13.409Z"></path></g></svg>