<svg xmlns="http://www.w3.org/2000/svg" viewBox="0 0 64 64" x="0px" y="0px"><g data-name="Espresso Temper"><path d="M38.214,44H25.786a16.53,16.53,0,0,1-1.131,2h14.69A16.53,16.53,0,0,1,38.214,44Z"></path><path d="M32,30a12.934,12.934,0,0,0,8.8-3.456c.078-.083.15-.168.231-.25l.021.021A12.986,12.986,0,1,0,32,30Z"></path><path d="M32,32a14.882,14.882,0,0,1-6.307-1.409A22.892,22.892,0,0,1,27,39a10.747,10.747,0,0,1-.454,3H37.454A10.747,10.747,0,0,1,37,39a23.174,23.174,0,0,1,1.247-8.38A14.893,14.893,0,0,1,32,32Z"></path><rect x="16" y="54" width="32" height="6"></rect><path d="M40.85,48H23.15a30.778,30.778,0,0,1-4.142,4H44.992A30.778,30.778,0,0,1,40.85,48Z"></path></g></svg>