<svg xmlns="http://www.w3.org/2000/svg" viewBox="0 0 64 64" x="0px" y="0px"><g data-name="Delivery Truck"><path d="M53,54.006A3,3,0,0,0,52.928,60h.132A3,3,0,0,0,53,54.006Zm1,4-2,0,0-2,2,0Z"></path><path d="M52.779,43.033l-1.15-1.023H49V49a1,1,0,0,1-1,1H30v4.99a1,1,0,0,0,.99,1H32.1a5.009,5.009,0,0,1,4.9-4h0a5.007,5.007,0,0,1,4.895,4l6.2,0a5.007,5.007,0,0,1,4.9-4h0a5,5,0,0,1,4.895,4h1.1a1.018,1.018,0,0,0,1.01-1v-5H53a2,2,0,0,1-2-2l.007-3A2,2,0,0,1,52.779,43.033Z"></path><path d="M36.995,53.994a3,3,0,0,0,0,6h0a3,3,0,0,0,0-6Zm1,4-2,0,0-2,2,0Z"></path><polygon points="30 48 47 48 47 41 47 40.988 47 37 30 37 30 48"></polygon><polygon points="53.007 45.01 53 48.01 58.372 48.01 55.001 45.01 53.007 45.01"></polygon><rect x="18" y="56" width="8" height="2"></rect><rect x="14" y="56" width="2" height="2"></rect><rect x="20" y="52" width="6" height="2"></rect><rect x="22" y="48" width="4" height="2"></rect><rect x="16" y="52" width="2" height="2"></rect><path d="M13,18a1,1,0,0,1,1,1v2H24V19a1,1,0,0,1,1-1,3,3,0,0,0,0-6,2.953,2.953,0,0,0-1.542.442,1,1,0,0,1-1.506-1A2.907,2.907,0,0,0,22,11a3,3,0,0,0-6,0,2.664,2.664,0,0,0,.044.411,1.021,1.021,0,0,1-.433.994.993.993,0,0,1-1.069.037A2.953,2.953,0,0,0,13,12a3,3,0,0,0,0,6Z"></path><rect x="14" y="23" width="10" height="1"></rect><path d="M5,28H15a1,1,0,0,1,.752.341l5.248,6V29a1,1,0,0,1,1-1H33a1,1,0,0,0,1-1V5a1,1,0,0,0-1-1H5A1,1,0,0,0,4,5V27A1,1,0,0,0,5,28Zm8-18a4.886,4.886,0,0,1,1.077.122,5,5,0,0,1,9.846,0A4.886,4.886,0,0,1,25,10a5,5,0,0,1,1,9.9V25a1,1,0,0,1-1,1H13a1,1,0,0,1-1-1V19.9A5,5,0,0,1,13,10Z"></path><rect x="4" y="60" width="56" height="2"></rect></g></svg>