<svg xmlns="http://www.w3.org/2000/svg" viewBox="0 0 64 64" x="0px" y="0px"><g><path d="M61.9,54.553l-6-12A1,1,0,0,0,55,42H9a1,1,0,0,0-.895.553l-6,12A1,1,0,0,0,2,55v3a2,2,0,0,0,2,2H60a2,2,0,0,0,2-2V55A1,1,0,0,0,61.9,54.553ZM9.618,44H54.382l5,10H4.618ZM4,58V56H60v2Z"></path><rect x="10" y="50" width="2" height="2"></rect><rect x="14" y="50" width="2" height="2"></rect><rect x="18" y="50" width="28" height="2"></rect><rect x="48" y="50" width="2" height="2"></rect><rect x="52" y="50" width="2" height="2"></rect><rect x="15" y="46" width="2" height="2"></rect><rect x="11" y="46" width="2" height="2"></rect><rect x="19" y="46" width="2" height="2"></rect><rect x="23" y="46" width="2" height="2"></rect><rect x="27" y="46" width="2" height="2"></rect><rect x="31" y="46" width="2" height="2"></rect><rect x="35" y="46" width="2" height="2"></rect><rect x="39" y="46" width="2" height="2"></rect><rect x="43" y="46" width="2" height="2"></rect><rect x="47" y="46" width="2" height="2"></rect><rect x="51" y="46" width="2" height="2"></rect><path d="M9,40H55a3,3,0,0,0,3-3V7a3,3,0,0,0-3-3H9A3,3,0,0,0,6,7V37A3,3,0,0,0,9,40ZM8,37V14H30V38H9A1,1,0,0,1,8,37ZM56,7V37a1,1,0,0,1-1,1H32V6H55A1,1,0,0,1,56,7ZM9,6H30v6H8V7A1,1,0,0,1,9,6Z"></path><rect x="10" y="8" width="2" height="2"></rect><rect x="14" y="8" width="2" height="2"></rect><rect x="18" y="8" width="2" height="2"></rect><path d="M11,25h8a1,1,0,0,0,1-1V18a1,1,0,0,0-1-1H11a1,1,0,0,0-1,1v6A1,1,0,0,0,11,25Zm1-6h6v4H12Z"></path><rect x="22" y="18" width="6" height="2"></rect><rect x="22" y="22" width="6" height="2"></rect><rect x="10" y="29" width="4" height="2"></rect><rect x="16" y="29" width="12" height="2"></rect><rect x="10" y="33" width="18" height="2"></rect><path d="M39.293,17.707l1.414-1.414L38.414,14l2.293-2.293-1.414-1.414-3,3a1,1,0,0,0,0,1.414Z"></path><path d="M48.707,17.707l3-3a1,1,0,0,0,0-1.414l-3-3-1.414,1.414L49.586,14l-2.293,2.293Z"></path><rect x="40.838" y="13" width="6.325" height="1.999" transform="translate(16.793 51.306) rotate(-71.547)"></rect><rect x="36" y="21" width="4" height="2"></rect><rect x="42" y="21" width="8" height="2"></rect><rect x="38" y="25" width="6" height="2"></rect><rect x="46" y="25" width="4" height="2"></rect><rect x="36" y="29" width="4" height="2"></rect><rect x="42" y="29" width="6" height="2"></rect><rect x="38" y="33" width="8" height="2"></rect><rect x="48" y="33" width="2" height="2"></rect></g></svg>