<svg xmlns="http://www.w3.org/2000/svg" viewBox="0 0 64 64" x="0px" y="0px"><g><path d="M56,49a1,1,0,0,0-1,1,1,1,0,0,1-2,0,1,1,0,0,0-1-1,.988.988,0,0,0-.966.832L52.618,53h2.764l1.584-3.168A.988.988,0,0,0,56,49Z"></path><path d="M55,57V55H53v2a1,1,0,0,0,2,0Z"></path><rect x="51" y="22" width="6" height="1"></rect><path d="M57,19a3,3,0,0,0-6,0v1h6Z"></path><path d="M57,25H51V47.184a2.846,2.846,0,0,1,2,0V27h2V47.179a2.846,2.846,0,0,1,2,0Z"></path><path d="M15,17H37V16a3,3,0,0,0-3-3H31a1,1,0,0,1-1-1V7a3,3,0,0,0-3-3H25a3,3,0,0,0-3,3v5a1,1,0,0,1-1,1H18a3,3,0,0,0-3,3ZM26,6a3,3,0,1,1-3,3A3,3,0,0,1,26,6Z"></path><rect x="15" y="19" width="22" height="1"></rect><circle cx="26" cy="9" r="1"></circle><path d="M20.568,40.458l-.987,2.961,3.446-1.149a.993.993,0,0,1,.723.036,8.01,8.01,0,1,0-3.311-2.736A1,1,0,0,1,20.568,40.458ZM22,32H32v2H22Zm0,4H32v2H22Z"></path><path d="M11,51a5.006,5.006,0,0,0,5,5V52a1,1,0,0,0-1-1Z"></path><path d="M13,21V18H11V49h4a3,3,0,0,1,3,3v4H41V18H39v3a1,1,0,0,1-1,1H14A1,1,0,0,1,13,21Zm14,4a10,10,0,0,1,0,20,9.91,9.91,0,0,1-3.7-.713l-4.986,1.662A1.014,1.014,0,0,1,18,46a1,1,0,0,1-.949-1.316l1.466-4.4A9.994,9.994,0,0,1,27,25Z"></path><path d="M45,17a3,3,0,0,0-3-3H38.576A4.95,4.95,0,0,1,39,16h2a2,2,0,0,1,2,2V56a2,2,0,0,1-2,2H16a7.008,7.008,0,0,1-7-7V18a2,2,0,0,1,2-2h2a4.95,4.95,0,0,1,.424-2H10a3,3,0,0,0-3,3V57a3,3,0,0,0,3,3H42a3,3,0,0,0,3-3Z"></path></g></svg>