<svg xmlns="http://www.w3.org/2000/svg" data-name="Wheel Chair" viewBox="0 0 64 64" x="0px" y="0px"><path d="M56.414,55l-3.707-3.707A1,1,0,0,0,52,51H48V31a5.006,5.006,0,0,0-5-5H21V19a3,3,0,0,0-3-3H11V15H3v4h8V18h7a1,1,0,0,1,1,1V34.051A13.992,13.992,0,1,0,33.068,53H51.586l3.707,3.707A1,1,0,0,0,56,57h6V55ZM46,31v9H44V39a2.006,2.006,0,0,0-2-2H28.645c-.042-.033-.088-.061-.13-.094-.214-.164-.434-.318-.657-.47-.107-.073-.207-.157-.317-.227-.063-.04-.129-.075-.192-.114-.1-.061-.2-.12-.3-.178q-.389-.228-.788-.429c-.091-.045-.18-.092-.271-.136a13.945,13.945,0,0,0-2.24-.837c-.1-.029-.207-.053-.31-.079q-.441-.111-.888-.194c-.116-.022-.23-.044-.347-.063-.4-.063-.8-.114-1.2-.143H21V28h5v3a2,2,0,0,0,2,2H40a2,2,0,0,0,2-2V28h1A3,3,0,0,1,46,31ZM31.1,43.466q.168.411.306.835c.022.066.046.131.066.2.1.34.194.686.267,1.038.013.062.022.126.034.188q.085.44.136.888c.012.1.023.2.032.294,0,.031,0,.062,0,.093H22.414l6.739-6.739c.042.05.089.095.13.146.115.14.218.29.326.436.144.193.289.385.421.587a12,12,0,0,1,.982,1.813C31.044,43.317,31.074,43.392,31.1,43.466Zm.314,8.227a11.951,11.951,0,0,1-2.25,4.061L22.414,49h9.543l0,.022A11.817,11.817,0,0,1,31.418,51.693ZM21.387,36.087q.448.051.885.135c.064.013.129.021.192.035.351.073.7.163,1.035.266l.207.069q.417.136.822.3l.234.1a12,12,0,0,1,1.813.983c.2.128.383.27.571.409.151.113.306.219.451.338.049.04.093.086.142.127L21,45.586V36.051l.092,0C21.191,36.064,21.289,36.076,21.387,36.087ZM19,45.586l-6.741-6.741A11.938,11.938,0,0,1,19,36.051ZM17.586,47H8.051a11.938,11.938,0,0,1,2.794-6.741Zm0,2-6.741,6.741A11.938,11.938,0,0,1,8.051,49ZM19,50.414v9.535a11.938,11.938,0,0,1-6.741-2.794Zm2,0,6.756,6.756A11.964,11.964,0,0,1,21,59.958ZM33.677,51c.016-.075.022-.152.037-.227.069-.343.125-.687.168-1.035.016-.128.033-.255.045-.383.044-.449.073-.9.073-1.355,0-.411-.024-.82-.059-1.226-.011-.118-.025-.235-.038-.352-.035-.307-.079-.611-.134-.913-.018-.1-.035-.209-.056-.312-.08-.4-.174-.788-.289-1.175-.005-.016-.011-.032-.016-.049-.111-.367-.239-.728-.38-1.085-.036-.091-.074-.18-.111-.27-.087-.208-.177-.414-.274-.618H46v9Z"></path><path d="M43,57a4,4,0,1,0,4-4A4,4,0,0,0,43,57Zm4-1a1,1,0,1,1-1,1A1,1,0,0,1,47,56Z"></path></svg>