<svg xmlns="http://www.w3.org/2000/svg" viewBox="0 0 64 64" x="0px" y="0px"><g><path d="M39,11a1,1,0,0,0,1,1h4.75L39,5.61Z"></path><rect x="52" y="40" width="4" height="4"></rect><path d="M50,22V7a3.009,3.009,0,0,0-3-3H40.25l7.49,8.33A.971.971,0,0,1,48,13v9Z"></path><rect x="52" y="46" width="4.001" height="4"></rect><path d="M56,28H40v6H56ZM45,32H43V30h2Zm4,0H47V30h2Zm4,0H51V30h2Z"></path><circle cx="16" cy="48" r="4"></circle><path d="M4,53a2.965,2.965,0,0,0,.75,1.98l1.47-1.97a10.291,10.291,0,0,1-.68-1.64L4,51.15Z"></path><path d="M34,56V25a3.009,3.009,0,0,1,3-3h9V14H40a3.009,3.009,0,0,1-3-3V4H7A3.009,3.009,0,0,0,4,7V44.85l1.54-.22a10.291,10.291,0,0,1,.68-1.64L4.59,40.82a.994.994,0,0,1,.1-1.31l2.82-2.82a.994.994,0,0,1,1.31-.1l2.17,1.63a10.291,10.291,0,0,1,1.64-.68l.38-2.68A1,1,0,0,1,14,34h4a1,1,0,0,1,.99.86l.38,2.68a10.291,10.291,0,0,1,1.64.68l2.17-1.63a.994.994,0,0,1,1.31.1l2.82,2.82a.994.994,0,0,1,.1,1.31l-1.63,2.17a10.291,10.291,0,0,1,.68,1.64l2.68.38A1,1,0,0,1,30,46v4a1,1,0,0,1-.86.99l-2.68.38a10.291,10.291,0,0,1-.68,1.64l1.63,2.17a1,1,0,0,1,.16.82ZM32,17H30V15h2ZM18,11H32v2H18Zm0,4H28v2H18Zm-5-2H11a3,3,0,0,1,0-6V6h2V7a3,3,0,0,1,3,3H14a1,1,0,0,0-1-1H11a1,1,0,0,0,0,2h2a3,3,0,0,1,0,6v1H11V17a3,3,0,0,1-3-3h2a1,1,0,0,0,1,1h2a1,1,0,0,0,0-2ZM8,20H32v2H8Zm0,4H32v2H8Zm0,6V28H32v2Z"></path><path d="M24.71,50.23a1,1,0,0,1,.83-.75L28,49.13V46.87l-2.46-.35a1,1,0,0,1-.83-.75,8.664,8.664,0,0,0-.98-2.35,1.017,1.017,0,0,1,.06-1.11l1.5-1.99-1.61-1.61-1.99,1.5a1.017,1.017,0,0,1-1.11.06,8.664,8.664,0,0,0-2.35-.98,1,1,0,0,1-.75-.83L17.13,36H14.87l-.35,2.46a1,1,0,0,1-.75.83,8.664,8.664,0,0,0-2.35.98,1.017,1.017,0,0,1-1.11-.06l-1.99-1.5L6.71,40.32l1.5,1.99a1.017,1.017,0,0,1,.06,1.11,8.664,8.664,0,0,0-.98,2.35,1,1,0,0,1-.83.75L4,46.87v2.26l2.46.35a1,1,0,0,1,.83.75,8.664,8.664,0,0,0,.98,2.35,1.017,1.017,0,0,1-.06,1.11l-1.5,1.99,1.61,1.61,1.99-1.5a1.017,1.017,0,0,1,1.11-.06,8.664,8.664,0,0,0,2.35.98,1,1,0,0,1,.75.83L14.87,60h2.26l.35-2.46a1,1,0,0,1,.75-.83,8.664,8.664,0,0,0,2.35-.98,1.017,1.017,0,0,1,1.11.06l1.99,1.5,1.61-1.61-1.5-1.99a1.017,1.017,0,0,1-.06-1.11A8.664,8.664,0,0,0,24.71,50.23ZM24,47h2v2H24ZM8,49H6V47H8Zm7-11h2v2H15ZM8.222,41.636l1.414-1.414,1.414,1.414L9.636,43.05ZM9.636,55.778,8.222,54.364,9.636,52.95l1.414,1.414ZM17,58H15V56h2Zm-1-4a6,6,0,1,1,6-6A6.006,6.006,0,0,1,16,54Zm7.778.364-1.414,1.414L20.95,54.364l1.414-1.414ZM22.364,43.05,20.95,41.636l1.414-1.414,1.414,1.414Z"></path><rect x="46" y="46" width="4" height="4"></rect><rect x="40" y="40" width="4" height="4"></rect><rect x="46" y="52" width="4" height="4"></rect><rect x="40" y="46" width="4" height="4"></rect><rect x="40" y="52" width="4" height="4"></rect><rect x="52" y="52" width="4.002" height="4"></rect><path d="M37,60H59a1,1,0,0,0,1-1V25a1,1,0,0,0-1-1H37a1,1,0,0,0-1,1V59A1,1,0,0,0,37,60Zm1-32a2,2,0,0,1,2-2H56a2,2,0,0,1,2,2v6a2,2,0,0,1-2,2H40a2,2,0,0,1-2-2Zm0,12a2,2,0,0,1,2-2H56a2,2,0,0,1,2,2V56a2,2,0,0,1-2,2H40a2,2,0,0,1-2-2Z"></path><rect x="46" y="40" width="4" height="4"></rect></g></svg>