<svg xmlns="http://www.w3.org/2000/svg" viewBox="0 0 64 64" x="0px" y="0px"><g data-name="International Departure"><path d="M55.391,24.286A21.846,21.846,0,0,0,40,18q-1.086,0-2.155.1A22,22,0,0,0,40,62q1.086,0,2.155-.1a22,22,0,0,0,13.236-37.61ZM54.624,53.6a21.941,21.941,0,0,0-4.092-2.911A37.32,37.32,0,0,0,51.973,41h7.978A19.757,19.757,0,0,1,54.624,53.6Zm-1.782,1.706q-.322.272-.654.528c-.277.214-.559.419-.846.618-.228.158-.457.314-.691.462-.3.186-.6.361-.9.531-.24.134-.479.269-.723.393-.313.159-.632.3-.952.444-.247.109-.493.222-.744.321-.332.131-.671.243-1.01.356-.084.028-.168.056-.252.082a19.13,19.13,0,0,0,3.809-6.422,19.977,19.977,0,0,1,3.326,2.363C53.084,55.092,52.966,55.205,52.842,55.309Zm-20.176,3.3c-.25-.1-.493-.21-.738-.318-.323-.143-.645-.288-.96-.448-.241-.122-.477-.256-.714-.388-.307-.172-.611-.349-.909-.537-.231-.146-.456-.3-.681-.455q-.437-.3-.858-.627-.326-.252-.643-.519c-.125-.105-.245-.219-.369-.328a19.977,19.977,0,0,1,3.326-2.363,19.13,19.13,0,0,0,3.809,6.422l-.247-.08C33.341,58.85,33,58.737,32.666,58.605ZM25.376,26.4a21.941,21.941,0,0,0,4.092,2.911A37.32,37.32,0,0,0,28.027,39H20.049A19.757,19.757,0,0,1,25.376,26.4Zm1.782-1.706q.322-.271.654-.528c.277-.214.559-.419.846-.618.228-.158.457-.314.691-.462.295-.186.6-.361.9-.531.24-.134.479-.269.723-.393.313-.159.632-.3.952-.444.247-.109.493-.222.744-.321.332-.131.671-.243,1.01-.356.084-.028.168-.056.252-.082a19.13,19.13,0,0,0-3.809,6.422,19.977,19.977,0,0,1-3.326-2.363C26.916,24.908,27.034,24.8,27.158,24.691Zm20.176-3.3c.25.1.493.21.738.318.323.143.645.288.96.448.241.122.478.256.714.388.307.172.611.349.909.537.23.146.457.3.682.455.29.2.576.41.857.627q.325.252.643.519c.125.105.245.219.369.328a19.977,19.977,0,0,1-3.326,2.363,19.13,19.13,0,0,0-3.809-6.422l.247.08C46.659,21.15,47,21.263,47.334,21.4ZM39,29.955A19.876,19.876,0,0,1,31.963,28.3c1.648-4.47,4.183-7.6,7.037-8.2Zm0,2V39H30.026a35.27,35.27,0,0,1,1.307-8.785A21.892,21.892,0,0,0,39,31.952ZM39,41v7.048a21.892,21.892,0,0,0-7.667,1.737A35.27,35.27,0,0,1,30.026,41Zm0,9.045V59.9c-2.854-.6-5.389-3.727-7.037-8.2A19.876,19.876,0,0,1,39,50.045Zm2,0A19.876,19.876,0,0,1,48.037,51.7c-1.648,4.47-4.183,7.6-7.037,8.2Zm0-2V41h8.974a35.27,35.27,0,0,1-1.307,8.785A21.892,21.892,0,0,0,41,48.048ZM41,39V31.952a21.892,21.892,0,0,0,7.667-1.737A35.27,35.27,0,0,1,49.974,39Zm0-9.045v-9.85c2.854.6,5.389,3.727,7.037,8.2A19.876,19.876,0,0,1,41,29.955ZM28.027,41a37.32,37.32,0,0,0,1.441,9.692A21.941,21.941,0,0,0,25.376,53.6,19.752,19.752,0,0,1,20.049,41Zm23.946-2a37.32,37.32,0,0,0-1.441-9.692A21.941,21.941,0,0,0,54.624,26.4,19.752,19.752,0,0,1,59.951,39Z"></path><path d="M12,25.585A1.993,1.993,0,0,0,13.414,25L30.385,8.029a2,2,0,0,0,0-2.828L28.264,3.079a3.005,3.005,0,0,0-4.243,0L19.515,7.585,9.622,4.135a1,1,0,0,0-1.036.238L6.343,6.615A1,1,0,0,0,6.5,8.154l7.471,4.98-3.488,3.489L6.217,13.58a1,1,0,0,0-1.288.107L2.808,15.808a1,1,0,0,0,0,1.414L10.586,25A1.993,1.993,0,0,0,12,25.585ZM8.619,7.167l.938-.937,8.387,2.926-2.536,2.536ZM5.744,15.7l4.261,3.043a1,1,0,0,0,1.288-.107L25.435,4.494a1,1,0,0,1,1.415,0l2.121,2.121L12,23.586,4.929,16.515Z"></path><rect x="24.435" y="6.322" width="2" height="2" transform="translate(2.268 20.122) rotate(-44.98)"></rect><path d="M44.134,7.891c-.643-.25-1.3-.478-1.959-.679l-.584,1.913c.61.187,1.222.4,1.82.63Z"></path><path d="M36.07,6.075C35.388,6.025,34.691,6,34,6V8c.643,0,1.29.023,1.924.07Z"></path><path d="M47.876,9.674c-.6-.343-1.22-.667-1.837-.961l-.861,1.806c.574.273,1.147.573,1.706.892Z"></path><path d="M40.171,6.682C39.5,6.531,38.814,6.4,38.132,6.3l-.293,1.978c.634.094,1.27.213,1.892.352Z"></path><path d="M55.343,19.147,56.983,18c-.394-.565-.814-1.122-1.247-1.655l-1.552,1.262C54.587,18.1,54.977,18.622,55.343,19.147Z"></path><path d="M51.312,11.993c-.538-.424-1.1-.836-1.676-1.223l-1.117,1.658c.533.36,1.055.741,1.553,1.134Z"></path><path d="M58.751,26.018l1.9-.612c-.208-.648-.446-1.3-.708-1.948l-1.853.752C58.337,24.809,58.559,25.417,58.751,26.018Z"></path><path d="M57.305,22.458l1.791-.891c-.309-.62-.642-1.233-.991-1.821l-1.72,1.019C56.709,21.312,57.019,21.881,57.305,22.458Z"></path><path d="M54.369,14.788c-.469-.5-.966-.987-1.477-1.455l-1.35,1.476c.476.435.937.889,1.372,1.351Z"></path><path d="M16.588,55.929c.539.429,1.1.842,1.67,1.23l1.125-1.654c-.529-.359-1.05-.743-1.551-1.141Z"></path><path d="M23.747,60.063c.643.252,1.3.484,1.957.687l.592-1.91c-.609-.189-1.221-.4-1.817-.638Z"></path><path d="M9.212,41.869l-1.906.6c.207.651.442,1.308.7,1.951l1.855-.744C9.622,43.083,9.4,42.474,9.212,41.869Z"></path><path d="M12.593,48.758l-1.649,1.134c.386.56.8,1.119,1.242,1.662L13.742,50.3C13.336,49.8,12.949,49.277,12.593,48.758Z"></path><path d="M10.644,45.437l-1.795.883c.307.625.637,1.239.982,1.826l1.725-1.013C11.236,46.589,10.93,46.018,10.644,45.437Z"></path><path d="M13.544,53.119c.473.506.968,1,1.471,1.461l1.355-1.47c-.467-.43-.926-.887-1.365-1.357Z"></path><path d="M8,34.292l-2,.02c.007.685.04,1.381.1,2.07l1.992-.168C8.039,35.574,8.009,34.927,8,34.292Z"></path><path d="M8.326,38.126l-1.974.315c.107.675.242,1.359.4,2.034l1.947-.46C8.552,39.389,8.426,38.753,8.326,38.126Z"></path><path d="M6.054,32.24l2,.125c.04-.635.1-1.28.19-1.918l-1.982-.268C6.165,30.864,6.1,31.557,6.054,32.24Z"></path><path d="M9.01,26.8l-1.922-.552c-.18.625-.339,1.26-.473,1.887l1.957.417Q8.761,27.664,9.01,26.8Z"></path><path d="M20.014,58.262c.594.343,1.212.67,1.833.969l.869-1.8c-.577-.279-1.15-.582-1.7-.9Z"></path></g></svg>