<svg xmlns="http://www.w3.org/2000/svg" viewBox="0 0 64 64" x="0px" y="0px"><g data-name="Factory"><path d="M61,29H56V26a1,1,0,0,0-1-1H54V16a1,1,0,0,0-1-1H43a1,1,0,0,0-1,1v9H41a1,1,0,0,0-1,1v3H35a1,1,0,0,0-1,1v2H31V23a1,1,0,0,0-1-1H24a1,1,0,0,0-1,1v9H19a1,1,0,0,0-1,1v3H15V27a1,1,0,0,0-1-1H8a1,1,0,0,0-1,1v9H3a1,1,0,0,0-1,1V61a1,1,0,0,0,1,1H61a1,1,0,0,0,1-1V30A1,1,0,0,0,61,29ZM44,17h8v8H44ZM42,27H54v2H42ZM25,24h4v8H25ZM9,28h4v8H9ZM4,38H18V60H16V57A5,5,0,0,0,6,57v3H4ZM8,60V57a3,3,0,0,1,6,0v3ZM20,34H34V60H32V55a5,5,0,0,0-10,0v5H20Zm4,26V55a3,3,0,0,1,6,0v5Zm17,0V52H55v8Zm19,0H57V51a1,1,0,0,0-1-1H40a1,1,0,0,0-1,1v9H36V31H60Z"></path><path d="M45,6h4a1,1,0,0,1,1,1V9h2V7a3,3,0,0,0-3-3H45a1,1,0,0,1-1-1V2H42V3A3,3,0,0,0,45,6Z"></path><path d="M39,10h4a1,1,0,0,1,1,1v2h2V11a3,3,0,0,0-3-3H39a1,1,0,0,1-1-1V5H36V7A3,3,0,0,0,39,10Z"></path><path d="M21,17h4a1,1,0,0,1,1,1v2h2V18a3,3,0,0,0-3-3H21a1,1,0,0,1-1-1V12H18v2A3,3,0,0,0,21,17Z"></path><path d="M5,21H9a1,1,0,0,1,1,1v2h2V22a3,3,0,0,0-3-3H5a1,1,0,0,1-1-1V16H2v2A3,3,0,0,0,5,21Z"></path><rect x="50" y="11" width="2" height="2"></rect><path d="M23,46h8a1,1,0,0,0,1-1V41a1,1,0,0,0-1-1H23a1,1,0,0,0-1,1v4A1,1,0,0,0,23,46Zm1-4h6v2H24Z"></path><path d="M7,48h8a1,1,0,0,0,1-1V43a1,1,0,0,0-1-1H7a1,1,0,0,0-1,1v4A1,1,0,0,0,7,48Zm1-4h6v2H8Z"></path><path d="M46,38H40a1,1,0,0,0-1,1v4a1,1,0,0,0,1,1h6a1,1,0,0,0,1-1V39A1,1,0,0,0,46,38Zm-1,4H41V40h4Z"></path><path d="M49,39v4a1,1,0,0,0,1,1h6a1,1,0,0,0,1-1V39a1,1,0,0,0-1-1H50A1,1,0,0,0,49,39Zm2,1h4v2H51Z"></path></g></svg>