<svg xmlns="http://www.w3.org/2000/svg" viewBox="0 0 64 64" x="0px" y="0px"><g data-name="Ticket-Airplane-Flight-Travel-Boarding Pass-Smartphone"><path d="M48,46h4a2,2,0,0,0,0-4H48a2,2,0,0,0,0,4Z"></path><path d="M34,48H30a1,1,0,0,0,0,2h4a1,1,0,0,0,0-2Z"></path><path d="M48,34h4a2,2,0,0,0,0-4H48a2,2,0,0,0,0,4Z"></path><path d="M46,26a2.006,2.006,0,0,0,2,2h4a2,2,0,0,0,0-4H48A2.006,2.006,0,0,0,46,26Z"></path><path d="M48,40h4a2,2,0,0,0,0-4H48a2,2,0,0,0,0,4Z"></path><polygon points="29.39 28 29.46 28 32.13 24 30.72 24 29.39 28"></polygon><polygon points="32.13 18 29.46 14 29.39 14 30.72 18 32.13 18"></polygon><path d="M39,21.41,37.59,20H28a1.033,1.033,0,0,1-.71-.29L25.59,18H25v4H39Z"></path><path d="M48,22V9a5,5,0,0,0-5-5H21a5,5,0,0,0-5,5V25.72l.86,1.44A14.993,14.993,0,0,1,19,34.88v1.45a12.047,12.047,0,0,1-1.71,6.19l-1.72-1.04A9.92,9.92,0,0,0,17,36.33V34.88a13.013,13.013,0,0,0-1.85-6.69l-1.01-1.68A1,1,0,0,1,14,26V18a2.006,2.006,0,0,0-2-2H10V47a1.033,1.033,0,0,1-.29.71L3,54.42V61H28.58l5.01-5H21a7.008,7.008,0,0,1-7-7V44h2v5a5,5,0,0,0,5,5H43a5,5,0,0,0,5-5V48a3.985,3.985,0,0,1-2.62-7,3.951,3.951,0,0,1,0-6,3.951,3.951,0,0,1,0-6A3.985,3.985,0,0,1,48,22ZM29,6h6V8H29ZM25,6h2V8H25Zm9,46H30a3,3,0,0,1,0-6h4a3,3,0,0,1,0,6Zm3-10H24V40H37ZM24,38V36h8v2Zm16-4H24V32H40Zm1-11a1,1,0,0,1-1,1H34.54l-3.71,5.55A1,1,0,0,1,30,30H28a.983.983,0,0,1-.81-.42,1,1,0,0,1-.14-.9L28.61,24H24a1,1,0,0,1-1-1V17a1,1,0,0,1,1-1h2a1.033,1.033,0,0,1,.71.29L28.41,18h.2l-1.56-4.68a1,1,0,0,1,.14-.9A.983.983,0,0,1,28,12h2a1,1,0,0,1,.83.45L34.54,18H38a1.033,1.033,0,0,1,.71.29l2,2A1.033,1.033,0,0,1,41,21Z"></path></g></svg>