<svg xmlns="http://www.w3.org/2000/svg" viewBox="0 0 64 64" x="0px" y="0px"><g><path d="M61.967,43.809a4.989,4.989,0,0,0-6.639-2.415L42.371,47.426A5,5,0,0,0,38,40H23a6.986,6.986,0,0,0-6.321,4H14V41a1,1,0,0,0-1-1H3a1,1,0,0,0-1,1V61a1,1,0,0,0,1,1H13a1,1,0,0,0,1-1V59H40.114a5.026,5.026,0,0,0,2.112-.468l17.328-8.077a5.021,5.021,0,0,0,2.413-6.646ZM12,60H4V42h8ZM58.708,48.644,41.381,56.72a3.031,3.031,0,0,1-1.267.28H14V46h3.35a1,1,0,0,0,.944-.672A4.98,4.98,0,0,1,23,42H38a3,3,0,0,1,0,6H29v2H40.475a5.013,5.013,0,0,0,2.109-.468l13.591-6.327a2.99,2.99,0,0,1,3.975,1.44,3.058,3.058,0,0,1,.28,1.275A3.018,3.018,0,0,1,58.708,48.644Z"></path><path d="M17,38H51a1,1,0,0,0,1-1V17a1,1,0,0,0-1-1H17a1,1,0,0,0-1,1V37A1,1,0,0,0,17,38Zm6.92-20H44.08A7,7,0,0,0,50,23.92v2.16A7,7,0,0,0,44.08,32H23.92A7,7,0,0,0,18,26.08V23.92A7,7,0,0,0,23.92,18ZM50,32H46.1A5.013,5.013,0,0,1,50,28.1ZM21.9,32H18V28.1A5.013,5.013,0,0,1,21.9,32ZM50,36H18V34H50Zm0-18v3.9A5.013,5.013,0,0,1,46.1,18ZM18,18h3.9A5.013,5.013,0,0,1,18,21.9Z"></path><path d="M34,30a5,5,0,1,0-5-5A5.006,5.006,0,0,0,34,30Zm0-8a3,3,0,1,1-3,3A3,3,0,0,1,34,22Z"></path><path d="M32,14a1,1,0,0,0,.707-.293l3-3L34.293,9.293,32,11.586,29.707,9.293l-1.414,1.414,3,3A1,1,0,0,0,32,14Z"></path><path d="M20,11a1,1,0,0,0,.707-.293l3-3L22.293,6.293,20,8.586,17.707,6.293,16.293,7.707l3,3A1,1,0,0,0,20,11Z"></path><path d="M45,12a1,1,0,0,0,.707-.293l3-3L47.293,7.293,45,9.586,42.707,7.293,41.293,8.707l3,3A1,1,0,0,0,45,12Z"></path><rect x="30" y="4" width="2" height="4"></rect><rect x="33" y="5" width="2" height="2"></rect><rect x="18" y="2" width="2" height="2"></rect><rect x="21" y="3" width="2" height="2"></rect><rect x="43" y="4" width="2" height="2"></rect><rect x="46" y="2" width="2" height="2"></rect></g></svg>