<svg xmlns="http://www.w3.org/2000/svg" viewBox="0 0 64 64" x="0px" y="0px"><g><polygon points="33 36.44 33 47.56 31.51 47 27 45.31 27 38.69 33 36.44"></polygon><rect x="21" y="39" width="4" height="6"></rect><path d="M60,32A12.01,12.01,0,0,1,48,44H45.67a11.977,11.977,0,0,0-3.31-10.61l-1.41,1.42A9.968,9.968,0,0,1,43.63,44H40.55a6.86,6.86,0,0,0,.33-2.12,6.959,6.959,0,0,0-2.05-4.95l-1.42,1.41a4.962,4.962,0,0,1,1.47,3.54,4.66,4.66,0,0,1-.5,2.12H35V35a1.005,1.005,0,0,0-1.35-.94L25.82,37H20a1,1,0,0,0-1,1v6H13a9,9,0,0,1-2.6-17.62.987.987,0,0,0,.71-.82A11.007,11.007,0,0,1,22,16c.15,0,.3.01.45.02l.21.01a1.025,1.025,0,0,0,.95-.53,13.985,13.985,0,0,1,26.15,3.98.994.994,0,0,0,.77.79A12.053,12.053,0,0,1,60,32Z"></path><path d="M45.68,44a11.886,11.886,0,0,1-3.32,6.36l-1.41-1.41A9.909,9.909,0,0,0,43.65,44Z"></path><path d="M40.55,44a6.912,6.912,0,0,1-1.72,2.83l-1.42-1.42A4.739,4.739,0,0,0,38.4,44Z"></path></g></svg>