<svg xmlns="http://www.w3.org/2000/svg" viewBox="0 0 64 64" x="0px" y="0px"><g><path d="M39,29a1,1,0,0,0-1-1v2A1,1,0,0,0,39,29Z"></path><path d="M32,38A13,13,0,1,0,19,25,13.015,13.015,0,0,0,32,38Zm9-9a2.963,2.963,0,0,1-3.341,2.976A6,6,0,0,1,26,30V27a1,1,0,0,1,1-1H38A3,3,0,0,1,41,29ZM33.5,16h1a.5.5,0,0,0,.5-.5V14h2v1.5A2.5,2.5,0,0,1,34.5,18h-1a.5.5,0,0,0,0,1A2.5,2.5,0,0,1,36,21.5V24H34V21.5a.5.5,0,0,0-.5-.5,2.5,2.5,0,0,1,0-5Zm-8,1h1a.5.5,0,0,0,.5-.5V15h2v1.5A2.5,2.5,0,0,1,26.5,19h-1a.5.5,0,0,0,0,1h3A2.5,2.5,0,0,1,31,22.5V24H29V22.5a.5.5,0,0,0-.5-.5h-3a2.5,2.5,0,0,1,0-5Z"></path><path d="M32,34a4,4,0,0,0,4-4V28H28v2A4,4,0,0,0,32,34Z"></path><path d="M32,59.6C35.7,55.9,53,37.923,53,25a21,21,0,0,0-42,0C11,37.923,28.3,55.9,32,59.6ZM13.389,28.952l1.931-.518.518,1.932-1.932.517Zm2.657,6.414-1-1.732,1.731-1,1,1.732Zm3.226,3.776-1.414-1.414,1.414-1.414,1.415,1.414Zm4.094,2.813-1.732-1,1-1.732,1.732,1Zm4.682,1.656-1.932-.517.518-1.932,1.931.518ZM33,44H31V42h2Zm2.952-.389-.517-1.931,1.931-.518.518,1.932Zm4.682-1.656-1-1.732,1.732-1,1,1.732Zm4.094-2.813-1.415-1.414,1.415-1.414,1.414,1.414Zm3.226-3.776-1.731-1,1-1.732,1.731,1Zm2.14-4.483-1.932-.517.518-1.932,1.931.518ZM51,26H49V24h2Zm-.389-4.952-1.931.518-.518-1.932,1.932-.517Zm-2.657-6.414,1,1.732-1.731,1-1-1.732Zm-3.226-3.776,1.414,1.414-1.414,1.414-1.415-1.414ZM40.634,8.045l1.732,1-1,1.732-1.732-1ZM35.952,6.389l1.932.517-.518,1.932L35.435,8.32ZM31,6h2V8H31Zm-2.952.389.517,1.931-1.931.518-.518-1.932ZM23.366,8.045l1,1.732-1.732,1-1-1.732ZM32,10A15,15,0,1,1,17,25,15.017,15.017,0,0,1,32,10Zm-12.728.858,1.415,1.414-1.415,1.414-1.414-1.414Zm-3.226,3.776,1.731,1-1,1.732-1.731-1Zm-2.14,4.483,1.932.517-.518,1.932-1.931-.518ZM15,24v2H13V24Z"></path></g></svg>