<svg xmlns="http://www.w3.org/2000/svg" viewBox="0 0 64 64" x="0px" y="0px"><g data-name="Credit Card-Cash-Finance-Bill-Payment"><path d="M24,38H8a2,2,0,0,0-2,2V56a2,2,0,0,0,2,2H24a2,2,0,0,0,2-2V40A2,2,0,0,0,24,38Zm0,6H20V40h4ZM14,50V46h4v4Zm4,2v4H14V52Zm-6-2H8V46h4Zm2-6V40h4v4Zm6,2h4v4H20Zm-8-6v4H8V40ZM8,52h4v4H8Zm12,4V52h4v4Z"></path><path d="M24,26H8a2,2,0,0,0-2,2v6a2,2,0,0,0,2,2H24a2,2,0,0,0,2-2V28A2,2,0,0,0,24,26Zm0,8H8V28H24Z"></path><rect x="19" y="30" width="2" height="2"></rect><rect x="15" y="30" width="2" height="2"></rect><rect x="11" y="30" width="2" height="2"></rect><rect x="10" y="14" width="8" height="2"></rect><rect x="20" y="14" width="2" height="2"></rect><rect x="10" y="18" width="8" height="2"></rect><rect x="20" y="18" width="2" height="2"></rect><rect x="28" y="12" width="2" height="2"></rect><rect x="32" y="12" width="12" height="2"></rect><rect x="28" y="16" width="16" height="2"></rect><path d="M61,2c-1.62,0-2.36,1.48-2.89,2.55C57.68,5.4,57.35,6,57,6s-.67-.6-1.09-1.44C55.37,3.48,54.63,2,53.01,2s-2.36,1.48-2.89,2.55C49.69,5.4,49.36,6,49.01,6s-.68-.6-1.11-1.45C47.37,3.48,46.63,2,45.01,2s-2.36,1.48-2.89,2.55C41.69,5.4,41.36,6,41.01,6s-.68-.6-1.11-1.45C39.37,3.48,38.63,2,37.01,2s-2.36,1.48-2.89,2.55C33.69,5.4,33.36,6,33.01,6s-.68-.6-1.11-1.45C31.37,3.48,30.63,2,29.01,2s-2.36,1.48-2.89,2.55C25.69,5.4,25.36,6,25.01,6s-.69-.6-1.12-1.45C23.35,3.47,22.62,2,21,2a1,1,0,0,0-1,1V8.46l-.45-.29a.963.963,0,0,0-1.1,0L15.99,9.8,13.56,8.17a.979.979,0,0,0-1.11,0L10,9.8,7.55,8.17a.963.963,0,0,0-1.02-.05A.984.984,0,0,0,6,9V22H5a3.009,3.009,0,0,0-3,3V59a3.009,3.009,0,0,0,3,3H59a3.009,3.009,0,0,0,3-3V3A1,1,0,0,0,61,2ZM22,5.24c.03.06.07.13.11.2C22.65,6.52,23.39,7.99,25,8a.991.991,0,0,0-.55.17L22,9.8ZM8,10.87l1.45.96a.963.963,0,0,0,1.1,0L13,10.2l2.44,1.63a.963.963,0,0,0,1.1,0L19,10.2l2.45,1.63a.963.963,0,0,0,1.1,0L24,10.87V22H8ZM28,59a1,1,0,0,1-1,1H5a1,1,0,0,1-1-1V25a1,1,0,0,1,1-1H27a1,1,0,0,1,1,1Zm32,0a1,1,0,0,1-1,1H31a1,1,0,0,1-1-1V41a1,1,0,0,1,1-1H59a1,1,0,0,1,1,1Zm0-20.82A3,3,0,0,0,59,38H31a3,3,0,0,0-1,.18V25a3.009,3.009,0,0,0-3-3H26V9a.984.984,0,0,0-.53-.88A.957.957,0,0,0,25.01,8c1.62,0,2.36-1.48,2.89-2.55C28.33,4.6,28.66,4,29.01,4s.68.6,1.11,1.45C30.65,6.52,31.39,8,33.01,8s2.36-1.48,2.89-2.55C36.33,4.6,36.66,4,37.01,4s.68.6,1.11,1.45C38.65,6.52,39.39,8,41.01,8s2.36-1.48,2.89-2.55C44.33,4.6,44.66,4,45.01,4s.68.6,1.11,1.45C46.65,6.52,47.39,8,49.01,8s2.36-1.48,2.89-2.55C52.33,4.6,52.66,4,53.01,4s.68.6,1.11,1.45C54.65,6.53,55.39,8,57,8s2.36-1.48,2.89-2.55A2.116,2.116,0,0,0,60,5.24Z"></path><rect x="52" y="24" width="4" height="2"></rect><rect x="52" y="28" width="4" height="2"></rect><rect x="52" y="32" width="4" height="2"></rect><polygon points="32 24 32 26 40 26 50 26 50 24 40 24 32 24"></polygon><polygon points="32 28 32 30 40 30 50 30 50 28 40 28 32 28"></polygon><polygon points="32 32 32 34 40 34 50 34 50 32 40 32 32 32"></polygon><path d="M53,19H51a1,1,0,0,1-1-1H48a3,3,0,0,0,3,3v1h2V21a3,3,0,0,0,0-6H51a1,1,0,0,1,0-2h2a1,1,0,0,1,1,1h2a3,3,0,0,0-3-3V10H51v1a3,3,0,0,0,0,6h2a1,1,0,0,1,0,2Z"></path><path d="M34,50h6a2,2,0,0,0,2-2V44a2,2,0,0,0-2-2H34a2,2,0,0,0-2,2v4A2,2,0,0,0,34,50Zm6-2H38V44h2Zm-6-4h2v4H34Z"></path><rect x="44" y="47" width="14" height="2"></rect><rect x="32" y="52" width="2" height="2"></rect><rect x="36" y="52" width="2" height="2"></rect><rect x="40" y="52" width="2" height="2"></rect><rect x="44" y="52" width="2" height="2"></rect><rect x="32" y="56" width="14" height="2"></rect><path d="M55,52H51a3,3,0,0,0,0,6h4a3,3,0,0,0,0-6Zm0,4H51a1,1,0,0,1,0-2h4a1,1,0,0,1,0,2Z"></path><rect x="48" y="43" width="2" height="2"></rect><rect x="44" y="43" width="2" height="2"></rect><rect x="52" y="43" width="2" height="2"></rect><rect x="56" y="43" width="2" height="2"></rect></g></svg>