<svg xmlns="http://www.w3.org/2000/svg" viewBox="0 0 64 64" x="0px" y="0px"><g><path d="M22.029,32.329l1.482,1.342a1.96,1.96,0,0,0-.076,2.551,3.972,3.972,0,0,1,.737-1.05l1.414,1.414A2,2,0,1,0,29,38V25a2,2,0,0,0-3.825-.8A3.991,3.991,0,0,1,28,28H26a2,2,0,1,0-2,2v2a3.981,3.981,0,0,1-3.182-1.6,1.988,1.988,0,0,0,.375,3.429A3.941,3.941,0,0,1,22.029,32.329Z"></path><path d="M32,48A16,16,0,1,0,16,32,16.019,16.019,0,0,0,32,48Zm1-23a3.994,3.994,0,0,1,7.889-.892,3.84,3.84,0,0,1,3.058,4.418,3.98,3.98,0,0,1-1.06,7.367,3.969,3.969,0,0,1-1.935,2.585A3.99,3.99,0,0,1,33,38ZM18,32a3.987,3.987,0,0,1,2.053-3.474,3.84,3.84,0,0,1,3.058-4.418A3.994,3.994,0,0,1,31,25V38a3.99,3.99,0,0,1-7.952.478,3.969,3.969,0,0,1-1.935-2.585A4,4,0,0,1,18,32Z"></path><path d="M37,40a2,2,0,0,0,1.414-3.414l1.414-1.414a3.972,3.972,0,0,1,.737,1.05,1.96,1.96,0,0,0-.076-2.551l1.482-1.342a3.941,3.941,0,0,1,.836,1.5,1.988,1.988,0,0,0,.375-3.429A3.981,3.981,0,0,1,40,32V30a2,2,0,1,0-2-2H36a3.991,3.991,0,0,1,2.825-3.8A2,2,0,0,0,35,25V38A2,2,0,0,0,37,40Z"></path><path d="M19.791,51.071A1,1,0,0,1,20.91,51a21.857,21.857,0,0,0,5.5,2.284,1,1,0,0,1,.738.844L27.883,60h8.234l.735-5.875a1,1,0,0,1,.738-.844A21.857,21.857,0,0,0,43.09,51a1,1,0,0,1,1.119.074l4.679,3.64,5.822-5.823-3.639-4.679A1,1,0,0,1,51,43.09a21.891,21.891,0,0,0,2.283-5.5,1,1,0,0,1,.844-.739L60,36.117V27.883l-5.875-.735a1,1,0,0,1-.844-.739A21.891,21.891,0,0,0,51,20.91a1,1,0,0,1,.073-1.119l3.639-4.679L48.888,9.289l-4.679,3.64A1,1,0,0,1,43.09,13a21.857,21.857,0,0,0-5.5-2.284,1,1,0,0,1-.738-.844L36.117,4H27.883l-.735,5.875a1,1,0,0,1-.738.844A21.857,21.857,0,0,0,20.91,13a1,1,0,0,1-1.119-.074l-4.679-3.64L9.29,15.112l3.639,4.679A1,1,0,0,1,13,20.91a21.891,21.891,0,0,0-2.283,5.5,1,1,0,0,1-.844.739L4,27.883v8.234l5.875.735a1,1,0,0,1,.844.739A21.891,21.891,0,0,0,13,43.09a1,1,0,0,1-.073,1.119L9.29,48.888l5.822,5.823ZM54,31h2v2H54ZM10,33H8V31h2ZM33,56H31V54h2Zm15.264-6.322-1.415-1.414,1.414-1.414,1.415,1.414Zm0-35.356,1.414,1.414L48.263,17.15l-1.414-1.414ZM31,8h2v2H31ZM15.736,14.322l1.415,1.414L15.737,17.15l-1.415-1.414ZM32,14A18,18,0,1,1,14,32,18.021,18.021,0,0,1,32,14ZM15.737,46.85l1.414,1.414-1.415,1.414-1.414-1.414Z"></path></g></svg>