<svg xmlns="http://www.w3.org/2000/svg" viewBox="0 0 64 64" x="0px" y="0px"><g data-name="Artificial Intelligence-Chip"><path d="M60.919,24.955a25.068,25.068,0,0,0-23.29-22.9A24.8,24.8,0,0,0,18.9,8.768,25.1,25.1,0,0,0,11,26.61L2.78,35.655A2,2,0,0,0,4.261,39H9v6a7.008,7.008,0,0,0,7,7h8v9a1,1,0,0,0,1,1H53a1,1,0,0,0,1-1V44.348A25.041,25.041,0,0,0,60.919,24.955ZM52.292,43.233a1,1,0,0,0-.292.706V60H26V52a2,2,0,0,0-2-2H16a5.006,5.006,0,0,1-5-5V38a1,1,0,0,0-1-1H4.26l8.48-9.327A1,1,0,0,0,13,27,23,23,0,0,1,37.5,4.048a23,23,0,0,1,14.79,39.185Z"></path><path d="M44,12H28a1,1,0,0,0-1,1V29a1,1,0,0,0,1,1H44a1,1,0,0,0,1-1V13A1,1,0,0,0,44,12ZM43,28H29V14H43Z"></path><path d="M32,26h5a1,1,0,0,0,.707-.293l3-3A1,1,0,0,0,41,22V17a1,1,0,0,0-1-1H32a1,1,0,0,0-1,1v8A1,1,0,0,0,32,26Zm1-8h6v3.586L36.589,24H33Z"></path><rect x="35" y="32" width="2" height="2"></rect><rect x="39" y="32" width="2" height="2"></rect><rect x="31" y="32" width="2" height="2"></rect><rect x="23" y="24" width="2" height="2"></rect><rect x="23" y="20" width="2" height="2"></rect><rect x="23" y="16" width="2" height="2"></rect><rect x="47" y="24" width="2" height="2"></rect><rect x="47" y="20" width="2" height="2"></rect><rect x="47" y="16" width="2" height="2"></rect><rect x="35" y="8" width="2" height="2"></rect><rect x="39" y="8" width="2" height="2"></rect><rect x="31" y="8" width="2" height="2"></rect><path d="M41,41.184V36H39v5.184a3,3,0,1,0,2,0ZM40,45a1,1,0,1,1,1-1A1,1,0,0,1,40,45Z"></path><path d="M37,36H35v3H33V36H31v3H26v2h5v7h2V41h3a1,1,0,0,0,1-1Z"></path><path d="M21,37a3,3,0,1,0,3,3A3,3,0,0,0,21,37Zm0,4a1,1,0,1,1,1-1A1,1,0,0,1,21,41Z"></path><path d="M32,50a3,3,0,1,0,3,3A3,3,0,0,0,32,50Zm0,4a1,1,0,1,1,1-1A1,1,0,0,1,32,54Z"></path></g></svg>