<svg xmlns="http://www.w3.org/2000/svg" viewBox="0 0 64 64" x="0px" y="0px"><g data-name="Strat up"><path d="M49,18a7,7,0,1,0-7-7A7.008,7.008,0,0,0,49,18Zm-3-5h2v1h2V12H48a2,2,0,0,1-2-2V8a2,2,0,0,1,1.978-2V5h2V6H50a2,2,0,0,1,2,2V9H50V8H48v2h2a2,2,0,0,1,2,2v2a2,2,0,0,1-2,2h-.022v1h-2V16A2,2,0,0,1,46,14Z"></path><path d="M50,19.941v3.17A6.973,6.973,0,0,1,55,21h3V19a14.869,14.869,0,0,0-.707-4.523A9.017,9.017,0,0,1,50,19.941Z"></path><path d="M50,28v3h5a5.006,5.006,0,0,0,5-5V23H55A5.006,5.006,0,0,0,50,28Z"></path><path d="M51,38h7V32.315A6.952,6.952,0,0,1,55,33H50v4A1,1,0,0,0,51,38Z"></path><path d="M29.391,4q-.672,0-1.336.051A17.956,17.956,0,0,0,12.934,15.229L6.385,35H12v9a5.006,5.006,0,0,0,5,5H31v2H26v9H48V49h1a8.994,8.994,0,0,0,9-9H51a3,3,0,0,1-3-3V33H43a7.008,7.008,0,0,1-7-7V22a1,1,0,0,1,1-1h6a6.973,6.973,0,0,1,5,2.111v-3.17A8.991,8.991,0,0,1,43.338,4.013C43.225,4.01,43.114,4,43,4H29.391ZM17.5,26A4.505,4.505,0,0,1,13,21.5h2a2.5,2.5,0,0,0,5,0h2A4.505,4.505,0,0,1,17.5,26Z"></path><path d="M38,23v3a5.006,5.006,0,0,0,5,5h5V28a5.006,5.006,0,0,0-5-5Z"></path></g></svg>