<svg xmlns="http://www.w3.org/2000/svg" viewBox="0 0 64 64" x="0px" y="0px"><g data-name="Optimize Speed"><path d="M40,59a1,1,0,0,1-1,1H9a1,1,0,0,1-1-1V5A1,1,0,0,1,9,4h6.219l.621,2.485A2,2,0,0,0,17.781,8H30.219A2,2,0,0,0,32.16,6.485L32.781,4H39a1,1,0,0,1,1,1v9h2V5a3,3,0,0,0-3-3H9A3,3,0,0,0,6,5V59a3,3,0,0,0,3,3H39a3,3,0,0,0,3-3V58H40ZM30.219,6H17.781l-.5-2H30.719Z"></path><rect x="17" y="11" width="2" height="2"></rect><rect x="21" y="11" width="2" height="2"></rect><rect x="25" y="11" width="2" height="2"></rect><rect x="29" y="11" width="2" height="2"></rect><path d="M38,24A12,12,0,1,0,50,36,12.013,12.013,0,0,0,38,24Zm0,22a10.013,10.013,0,0,1-9.949-9H29V35h-.949a9.875,9.875,0,0,1,.84-3.1l.815.47,1-1.732-.811-.468A10.07,10.07,0,0,1,32.166,27.9l.468.811,1.732-1-.47-.815a9.875,9.875,0,0,1,3.1-.84V27h2v-.949a9.875,9.875,0,0,1,3.1.84l-.47.815,1.732,1,.468-.811a10.07,10.07,0,0,1,2.271,2.271l-.811.468,1,1.732.815-.47a9.894,9.894,0,0,1,.84,3.1H47v2h.949A10.013,10.013,0,0,1,38,46Z"></path><path d="M39.285,33.3A2.951,2.951,0,0,0,38,33a3,3,0,1,0,3,3,2.951,2.951,0,0,0-.3-1.285l2.958-2.958-1.414-1.414ZM38,37a1,1,0,1,1,1-1A1,1,0,0,1,38,37Z"></path><path d="M38,31V29a7.008,7.008,0,0,0-7,7h2A5.006,5.006,0,0,1,38,31Z"></path><rect x="33" y="41" width="10" height="2"></rect><path d="M57.164,32.014,53.3,31.37a15.924,15.924,0,0,0-1.206-2.915l2.276-3.187a1,1,0,0,0-.106-1.289l-4.243-4.242a1,1,0,0,0-1.289-.107l-3.186,2.276A15.892,15.892,0,0,0,42.63,20.7l-.644-3.864A1,1,0,0,0,41,16H35a1,1,0,0,0-.986.836L33.37,20.7a15.854,15.854,0,0,0-2.915,1.206L27.268,19.63a1,1,0,0,0-1.289.107l-4.242,4.242a1,1,0,0,0-.107,1.289l2.276,3.187A15.924,15.924,0,0,0,22.7,31.37l-3.865.644A1,1,0,0,0,18,33v6a1,1,0,0,0,.835.986l3.865.644a15.924,15.924,0,0,0,1.206,2.915L21.63,46.732a1,1,0,0,0,.107,1.289l4.242,4.242a1,1,0,0,0,1.289.107l3.187-2.276A15.854,15.854,0,0,0,33.37,51.3l.644,3.864A1,1,0,0,0,35,56h6a1,1,0,0,0,.986-.836L42.63,51.3a15.892,15.892,0,0,0,2.916-1.206l3.186,2.276a1,1,0,0,0,1.289-.107l4.243-4.242a1,1,0,0,0,.106-1.289l-2.276-3.187A15.924,15.924,0,0,0,53.3,40.63l3.864-.644A1,1,0,0,0,58,39V33A1,1,0,0,0,57.164,32.014ZM56,38.153l-3.655.609a1,1,0,0,0-.8.737,13.876,13.876,0,0,1-1.491,3.6,1,1,0,0,0,.048,1.09l2.153,3.015L49.205,50.25,46.19,48.1a1,1,0,0,0-1.089-.048,13.94,13.94,0,0,1-3.6,1.492,1,1,0,0,0-.736.8L40.152,54h-4.3l-.61-3.655a1,1,0,0,0-.736-.8,13.94,13.94,0,0,1-3.6-1.492,1,1,0,0,0-1.089.048L26.794,50.25,23.75,47.206,25.9,44.19a1,1,0,0,0,.048-1.089,13.948,13.948,0,0,1-1.492-3.6,1,1,0,0,0-.8-.737L20,38.153V33.847l3.656-.609a1,1,0,0,0,.8-.737,13.948,13.948,0,0,1,1.492-3.6A1,1,0,0,0,25.9,27.81L23.75,24.794l3.044-3.044L29.81,23.9a1,1,0,0,0,1.089.048,13.94,13.94,0,0,1,3.6-1.492,1,1,0,0,0,.736-.8L35.848,18h4.3l.61,3.655a1,1,0,0,0,.736.8,13.94,13.94,0,0,1,3.6,1.492A1,1,0,0,0,46.19,23.9l3.015-2.153,3.045,3.044L50.1,27.809a1,1,0,0,0-.048,1.09,13.876,13.876,0,0,1,1.491,3.6,1,1,0,0,0,.8.737L56,33.847Z"></path><rect x="10" y="16" width="6" height="2"></rect><rect x="10" y="20" width="6" height="2"></rect><path d="M22.293,19.707l1.414-1.414-2-2A1,1,0,0,0,21,16H18v2h2.586Z"></path><path d="M22.707,55.707l2-2-1.414-1.414L21.586,54H18v2h4A1,1,0,0,0,22.707,55.707Z"></path><path d="M10,55a3,3,0,1,0,3-3A3,3,0,0,0,10,55Zm4,0a1,1,0,1,1-1-1A1,1,0,0,1,14,55Z"></path></g></svg>