<svg xmlns="http://www.w3.org/2000/svg" viewBox="0 0 64 64" x="0px" y="0px"><g data-name="Graphic Design-Sketch-Ruler-Graphic Tablet-Blueprint"><path d="M61.748,11.336l-8-9A1,1,0,0,0,53,2H27a5.006,5.006,0,0,0-5,5V30h2V7a3,3,0,0,1,3-3H52v6a3,3,0,0,0,3,3h5V47a3,3,0,0,1-3,3H48v2h9a5.006,5.006,0,0,0,5-5V12A1,1,0,0,0,61.748,11.336ZM54,10V5.63L58.773,11H55A1,1,0,0,1,54,10Z"></path><path d="M43,32H18V3a1,1,0,0,0-1-1H9A1,1,0,0,0,8,3V32H5a3.009,3.009,0,0,0-3,3V59a3.009,3.009,0,0,0,3,3H43a3.009,3.009,0,0,0,3-3V35A3.009,3.009,0,0,0,43,32ZM10,4h6V9H12v2h4v2H14v2h2v2H12v2h4v2H14v2h2v2H12v2h4v5H10ZM44,59a1,1,0,0,1-1,1H5a1,1,0,0,1-1-1V35a1,1,0,0,1,1-1H43a1,1,0,0,1,1,1Z"></path><path d="M9,44a3,3,0,1,0,3,3A3,3,0,0,0,9,44Zm0,4a1,1,0,1,1,1-1A1,1,0,0,1,9,48Z"></path><rect x="7" y="40" width="4" height="2"></rect><rect x="7" y="36" width="4" height="2"></rect><rect x="7" y="52" width="4" height="2"></rect><rect x="7" y="56" width="4" height="2"></rect><path d="M49,10H29a1,1,0,0,0-1,1V27a1,1,0,0,0,1,1H49a1,1,0,0,0,1-1V11A1,1,0,0,0,49,10ZM35.08,26,37,23.6,38.92,26Zm6.4,0L40.2,24.4,43,20.67,47,26ZM48,24l-4.2-5.6a1,1,0,0,0-1.6,0l-3.29,4.39-1.13-1.41a1.025,1.025,0,0,0-1.56,0L32.52,26H30V12H48Z"></path><circle cx="35" cy="17" r="2"></circle><rect x="50" y="32" width="6" height="2"></rect><rect x="50" y="36" width="6" height="2"></rect><rect x="50" y="40" width="6" height="2"></rect><rect x="50" y="44" width="6" height="2"></rect><path d="M39.04,38.011a1,1,0,0,0-1.414,0L24.191,51.445a1.006,1.006,0,0,0-.242.391l-.707,2.121a1,1,0,0,0,.241,1.023h0L22.069,56.4l1.414,1.414L24.9,56.4h0a1,1,0,0,0,.707.292.981.981,0,0,0,.316-.051l2.121-.708a1,1,0,0,0,.391-.241L41.868,42.253a1,1,0,0,0,0-1.414Zm-11.854,16.1-1.311.438L25.334,54l.438-1.312,9.733-9.732,1.414,1.414ZM38.333,42.96l-1.414-1.414,1.414-1.414,1.414,1.414Z"></path></g></svg>