<svg xmlns="http://www.w3.org/2000/svg" viewBox="0 0 64 64" x="0px" y="0px"><g><path d="M15,4a1,1,0,0,0-1,1V30.651L32,41.823l14-8.689V18a2,2,0,0,1,2-2V13a1,1,0,0,1,1-1h1V5a1,1,0,0,0-1-1H46v7a1,1,0,0,1-1.555.832L42,10.2l-2.445,1.63A1,1,0,0,1,38,11V4Zm9,4h8v2H24ZM18,8h4v2H18Zm0,4H34v2H18Zm0,4h6v2H18Zm0,4H32v2H18Zm0,4H38v2H18Zm16,6H18V28H34Zm10,0H36V28h8Zm0-4H40V24h4Zm0-4H34V20H44Zm0-6v2H26V16Z"></path><polygon points="54 22 52 22 52 29 50 29 50 22 48 22 48 48 54 48 54 22"></polygon><polygon points="12 26 6.507 26 12 29.409 12 26"></polygon><polygon points="12 17.414 5.414 24 12 24 12 17.414"></polygon><polygon points="4 55.586 21.763 37.823 4 26.798 4 55.586"></polygon><polygon points="51.5 52 53 50 49 50 50.5 52 51.5 52"></polygon><path d="M42.555,8.168,44,9.132V4H40V9.132l1.445-.964a1,1,0,0,1,1.11,0Z"></path><polygon points="56 21.414 56 24 58.586 24 56 21.414"></polygon><path d="M56,49a1,1,0,0,1-.2.6l-.766,1.02L60,55.586V26.8l-4,2.479Z"></path><polygon points="56 26.923 57.489 26 56 26 56 26.923"></polygon><rect x="48" y="18" width="6" height="2"></rect><path d="M4,59a1,1,0,0,0,1,1H59a1,1,0,0,0,1-1v-.586l-6.178-6.178L52.8,53.6a1,1,0,0,1-.8.4v3a1,1,0,0,1-2,0V54a1,1,0,0,1-.8-.4l-3-4A1,1,0,0,1,46,49V44.414l-5.508-5.508L32.527,43.85a1,1,0,0,1-1.054,0l-7.965-4.944L4,58.414Z"></path><polygon points="46 35.488 42.237 37.823 46 41.586 46 35.488"></polygon><rect x="50" y="14" width="2" height="2"></rect></g></svg>