<svg xmlns="http://www.w3.org/2000/svg" viewBox="0 0 64 64" x="0px" y="0px"><g data-name="Qr Code-Scan-Shopping-Smartphone-Qr Scan"><path d="M6,57a3.009,3.009,0,0,0,3,3H21a3.009,3.009,0,0,0,3-3V33a3.009,3.009,0,0,0-3-3H9a3.009,3.009,0,0,0-3,3ZM19,38h3v3H19Zm-1,6h2V43h2v3H18Zm0,6h2V48h2v4H18Zm0,8H12V56h6ZM16,46H14V44h2ZM13,32h4v2H13Zm0,6h4v2H16v2H14V40H13Zm0,12h1V48h2v4H13ZM9,32h2v2H9ZM8,38h3v3H8Zm0,5h2v1h2v2H10v1H8Zm0,6h3v3H8Z"></path><path d="M58.18,22.86A2.986,2.986,0,0,0,55.19,20H51v3a3,3,0,0,1-6,0V20H35v3a3,3,0,0,1-6,0V20H24.81a2.986,2.986,0,0,0-2.99,2.86l-.24,5.2A4.987,4.987,0,0,1,26,33V57a4.939,4.939,0,0,1-1,2.97,2.85,2.85,0,0,0,.29.03H54.71a5.008,5.008,0,0,0,4.99-5.24ZM44,35h3v3H44Zm-1,6h2V40h2v3H43Zm-7-6v3H33V35Zm-7-3a1,1,0,0,1,1-1h5v2H31v4H29Zm6,21H30a1,1,0,0,1-1-1V47h2v4h4Zm1-4H33V46h3Zm1-6H35v1H33V40h2v1h2Zm4,6H38V47h1V45h2Zm0-6H39V41h2Zm1-6H41v2H39V37H38V35h4Zm1,10h2V45h2v4H43Zm8,5a1,1,0,0,1-1,1H45V51h4V47h2Zm0-15H49V33H45V31h5a1,1,0,0,1,1,1Z"></path><path d="M31,23a1,1,0,0,0,2,0V13a7,7,0,0,1,14,0V23a1,1,0,0,0,2,0V13a9,9,0,0,0-18,0Z"></path></g></svg>