<svg xmlns="http://www.w3.org/2000/svg" viewBox="0 0 64 64" x="0px" y="0px"><g data-name="Concrete Mixer-Truck-Concrete Truck-Vehicle-Automobile"><path d="M37.72,44h2.16a2.017,2.017,0,0,1,.32-1.11l.6-.89H24v2h2.28A2,2,0,0,1,28,43h8A2,2,0,0,1,37.72,44Z"></path><path d="M53.76,40.45a1,1,0,0,0-.83-.45H45.07a1,1,0,0,0-.83.45L41.87,44h1.94a5.989,5.989,0,0,1,10.38,0h1.94Z"></path><rect x="28" y="45" width="8" height="4"></rect><path d="M22,40H16a5.017,5.017,0,0,0-4.9,4h1.71A5.98,5.98,0,0,1,22,42.54Z"></path><polygon points="24 40 31.2 40 27.45 34 24 34 24 40"></polygon><polygon points="16.693 22 14.443 28 18.002 28 18 22 16.693 22"></polygon><path d="M7.9,26.83a1,1,0,0,0,.76-.02.967.967,0,0,0,.52-.55l1.45-3.74a1.013,1.013,0,0,0-.58-1.3l-.52-.2L7.37,26.63Z"></path><polygon points="7.22 34 6 34 6 36 7.72 36 7.22 34"></polygon><path d="M22,19a1,1,0,0,0-1-1H11.37a.977.977,0,0,0-.92.63l-.21.53.53.2a3.022,3.022,0,0,1,1.73,3.87l-1.45,3.74a2.991,2.991,0,0,1-1.57,1.67,3.075,3.075,0,0,1-1.22.26,2.883,2.883,0,0,1-1.08-.21l-.52-.2L6,30.19V32H7.22a2,2,0,0,1,1.94,1.52l.5,2A1.994,1.994,0,0,1,7.72,38H6v1a2,2,0,0,1-1.99,2L4,45a1,1,0,0,0,1,1H9V45a7.008,7.008,0,0,1,7-7h6ZM20,34H16V32h4Zm0-6a2,2,0,0,1-2,2H14.443a2,2,0,0,1-1.873-2.7l2.25-6A2.011,2.011,0,0,1,16.693,20H18a2,2,0,0,1,2,2Z"></path><path d="M58.12,44H60V42H57.2l.6.89A2.017,2.017,0,0,1,58.12,44Z"></path><path d="M62,24V22H61V20H59.06l.7-.95a1,1,0,0,0,.07-1.1l-1.68-2.91a1,1,0,0,0-.86-.5c-.04,0-.08.01-.12.01l-1.51.18,3.2,5.54.14-.19V22H57.55L53.5,14.99,44.17,16.1a3.122,3.122,0,0,0-1.15.38l-7.7,4.45a3.027,3.027,0,0,0-1.24,1.36l-1.75,3.85a5.046,5.046,0,0,0,.22,4.57l.92,1.58a5,5,0,0,0,3.84,2.48l4.21.41a3.086,3.086,0,0,0,1.79-.39l7.71-4.45a3.015,3.015,0,0,0,.9-.8L53,28.1V38.31h2V36h4v4h2V36h1V34H61V30h1V28H61V24ZM59,34H55V30h4Zm0-6H55V25.42L56.07,24H59Z"></path><polygon points="52.08 38 49.52 38 47.07 34.93 48.82 33.92 52.08 38"></polygon><polygon points="41.24 37.16 39.98 40 37.79 40 39.15 36.95 41.24 37.16"></polygon><path d="M32.92,15.21A4,4,0,0,0,25,16a3.967,3.967,0,0,0,1.98,3.43l-.94,3.29L26,31h2V23.14l.67-2.35.99,3.98,1.33-2.94-.53-2.12a3.987,3.987,0,0,0,2.33-2.5l2.5.28,2.93-1.69Z"></path><circle cx="18" cy="48" r="1"></circle><path d="M18,43a5,5,0,1,0,5,5A5,5,0,0,0,18,43Zm0,8a3,3,0,1,1,3-3A3,3,0,0,1,18,51Z"></path><circle cx="49" cy="48" r="1"></circle><path d="M49,43a5,5,0,1,0,5,5A5,5,0,0,0,49,43Zm0,8a3,3,0,1,1,3-3A3,3,0,0,1,49,51Z"></path></g></svg>