<svg xmlns="http://www.w3.org/2000/svg" viewBox="0 0 64 64" x="0px" y="0px"><title>Content-Marketing-Megaphone-Blog-Webpage</title><g><rect x="12" y="36" width="2" height="6"></rect><polygon points="11 52 15 52 15 44.077 14.807 44 11 44 11 52"></polygon><polygon points="24 32.477 16 35.677 16 42.323 24 45.523 24 32.477"></polygon><path d="M17,53a1,1,0,0,1-1,1H14v6h6V46.077l-3-1.2Z"></path><polygon points="20 31.923 20 4 14 4 14 34 14.807 34 20 31.923"></polygon><path d="M58,59V5a1,1,0,0,0-1-1H54v9a1,1,0,0,1-.684.949A1.019,1.019,0,0,1,53,14a1,1,0,0,1-.8-.4L50,10.667,47.8,13.6A1,1,0,0,1,46,13V4H22V31.123l2.1-.839A2.995,2.995,0,0,1,30,31v4.142a3.981,3.981,0,0,1,0,7.716V47a2.995,2.995,0,0,1-5.9.716L22,46.877V60H57A1,1,0,0,0,58,59ZM32,8H42v2H32ZM26,8h4v2H26Zm0,4H42v2H26Zm0,6H36v2H26Zm0,6V22H42v2Zm6.535,10.05,4.243-4.242,1.414,1.414-4.243,4.242ZM41,38v2H35V38Zm-7.051,4.536,4.243,4.242-1.414,1.414L32.535,43.95ZM32,50H48v2H32Zm22,6H26V54H54Zm0-4H50V50h4Zm0-4H44V46H54Zm0-4H44V42H54Zm0-4H44V38H54Zm0-4H44V34H54Zm0-4H44V30H54Zm0-4H30V26H54Zm0-4H44V22H54Zm0-4H38V18H54Z"></path><path d="M49.2,8.4a1.036,1.036,0,0,1,1.6,0L52,10V4H48v6Z"></path><path d="M10,42V36H9a1,1,0,0,0-1,1v4a1,1,0,0,0,1,1Z"></path><path d="M30,37.278v3.444a1.983,1.983,0,0,0,0-3.444Z"></path><path d="M28,47V31a1,1,0,0,0-2,0V47a1,1,0,0,0,2,0Z"></path></g></svg>