<svg xmlns="http://www.w3.org/2000/svg" viewBox="0 0 64 64" x="0px" y="0px"><g data-name="coffee cup-coffee mug-espresso-drink-coffee"><path d="M57,56H45V53.96a2.99,2.99,0,0,0,2.41-2.04c3.37-10.4,5.07-18.85,3.79-31.21A3,3,0,0,0,48.21,18H15.79a3,3,0,0,0-2.99,2.71c-1.28,12.36.42,20.81,3.79,31.21A2.99,2.99,0,0,0,19,53.96V56H7a1,1,0,0,0-1,1,5,5,0,0,0,5,5H53a5,5,0,0,0,5-5A1,1,0,0,0,57,56ZM14.79,20.91a1,1,0,0,1,1-.91H48.21a1,1,0,0,1,1,.91c.11,1.06.19,2.09.25,3.09H14.54C14.6,23,14.68,21.97,14.79,20.91ZM14.43,26H49.57a64.646,64.646,0,0,1-3.04,22H17.47A64.646,64.646,0,0,1,14.43,26ZM18.5,51.31c-.15-.44-.28-.88-.42-1.31H45.92c-.14.43-.27.87-.42,1.31a1,1,0,0,1-.95.69H19.45A1,1,0,0,1,18.5,51.31ZM43,54v2H21V54Zm10,6H11a3.014,3.014,0,0,1-2.83-2H55.83A3.014,3.014,0,0,1,53,60Z"></path><path d="M26,16h2a2.258,2.258,0,0,1,.759-1.681,4.208,4.208,0,0,0,0-5.968,2.245,2.245,0,0,1,0-3.366A4.168,4.168,0,0,0,30,2H28a2.261,2.261,0,0,1-.759,1.683,4.209,4.209,0,0,0,0,5.969,2.244,2.244,0,0,1,0,3.365A4.164,4.164,0,0,0,26,16Z"></path><path d="M34,16h2a2.258,2.258,0,0,1,.759-1.681,4.208,4.208,0,0,0,0-5.968,2.245,2.245,0,0,1,0-3.366A4.168,4.168,0,0,0,38,2H36a2.261,2.261,0,0,1-.759,1.683,4.209,4.209,0,0,0,0,5.969,2.244,2.244,0,0,1,0,3.365A4.164,4.164,0,0,0,34,16Z"></path></g></svg>