<svg xmlns="http://www.w3.org/2000/svg" viewBox="0 0 64 64" x="0px" y="0px"><g data-name="Smart Home-Working At Home-Home Office-Laptop-Online"><path d="M28.464,34.464l1.414,1.414a3.006,3.006,0,0,1,4.244,0l1.414-1.414A5.008,5.008,0,0,0,28.464,34.464Z"></path><path d="M32,31a6.956,6.956,0,0,1,4.95,2.05l1.414-1.414a9,9,0,0,0-12.728,0L27.05,33.05A6.956,6.956,0,0,1,32,31Z"></path><rect x="31" y="37" width="2" height="2"></rect><path d="M60.99,24.89h-.01L33.93,2.31a2.993,2.993,0,0,0-3.85,0L3.1,24.95a3.071,3.071,0,0,0-.74,3.89,2.976,2.976,0,0,0,2.08,1.43,2.921,2.921,0,0,0,.5.05,2.986,2.986,0,0,0,1.93-.71L8,28.66V59a3.009,3.009,0,0,0,3,3H53a3.009,3.009,0,0,0,3-3V28.54l1.13.95a3,3,0,0,0,3.86-4.6ZM54,59a1,1,0,0,1-1,1H11a1,1,0,0,1-1-1V26.96L32,8.31,54,26.85Zm5.82-31.17a.988.988,0,0,1-1.4.13L32.64,6.24a.987.987,0,0,0-1.29,0L5.58,28.08a.986.986,0,0,1-.81.22,1,1,0,0,1-.7-.49,1.083,1.083,0,0,1,.31-1.33L31.36,3.84A1.025,1.025,0,0,1,32,3.61a1,1,0,0,1,.64.23L59.7,26.43A.987.987,0,0,1,59.82,27.83Z"></path><path d="M48.94,50.65,46,42.82V27a3.009,3.009,0,0,0-3-3H21a3.009,3.009,0,0,0-3,3V42.82l-2.94,7.83A1.03,1.03,0,0,0,15,51v2a3.009,3.009,0,0,0,3,3H46a3.009,3.009,0,0,0,3-3V51A1.03,1.03,0,0,0,48.94,50.65ZM20,27a1,1,0,0,1,1-1H43a1,1,0,0,1,1,1V42H20Zm-.31,17H44.31l2.25,6H37.78l-.81-3.24A1,1,0,0,0,36,46H28a1,1,0,0,0-.97.76L26.22,50H17.44Zm16.03,6H28.28l.5-2h6.44ZM47,53a1,1,0,0,1-1,1H18a1,1,0,0,1-1-1V52H47Z"></path></g></svg>