<svg xmlns="http://www.w3.org/2000/svg" data-name="Layer 38" viewBox="0 0 64 64" x="0px" y="0px"><g><circle cx="44" cy="36" r="3"></circle><path d="M54,26H10V46H54ZM20,41a5,5,0,1,1,5-5A5.006,5.006,0,0,1,20,41Zm17-2a1,1,0,0,1-1,1H28a1,1,0,0,1-1-1V33a1,1,0,0,1,1-1h8a1,1,0,0,1,1,1Zm7,2a5,5,0,1,1,5-5A5.006,5.006,0,0,1,44,41Z"></path><polygon points="50.219 20 51.719 14 12.281 14 13.781 20 50.219 20"></polygon><circle cx="20" cy="36" r="3"></circle><path d="M4,14V50H60V14H58v5H56V14H53.781L51.97,21.243A1,1,0,0,1,51,22H13a1,1,0,0,1-.97-.757L10.219,14H8v5H6V14ZM8,25a1,1,0,0,1,1-1H55a1,1,0,0,1,1,1V47a1,1,0,0,1-1,1H9a1,1,0,0,1-1-1Z"></path><rect x="29" y="34" width="6" height="4"></rect></g></svg>