<svg xmlns="http://www.w3.org/2000/svg" viewBox="0 0 64 64" x="0px" y="0px"><g><path d="M47,40H17a3,3,0,0,0-3,3V59a3,3,0,0,0,3,3H47a3,3,0,0,0,3-3V43A3,3,0,0,0,47,40Zm1,19a1,1,0,0,1-1,1H17a1,1,0,0,1-1-1V43a1,1,0,0,1,1-1H47a1,1,0,0,1,1,1Z"></path><path d="M46.447,44.9l-.894-1.79-13.1,6.553a1,1,0,0,1-.895,0L18.447,43.105l-.894,1.79,8.092,4.046-8.352,8.352,1.414,1.414,8.824-8.824,3.128,1.564a3.014,3.014,0,0,0,2.683,0l3.127-1.564,8.824,8.824,1.414-1.414-8.352-8.352Z"></path><path d="M11,25h-.586L14,21.414,17.586,25H17a1,1,0,0,0-1,1V38h2V27h2a1,1,0,0,0,.707-1.707l-6-6a1,1,0,0,0-1.414,0l-6,6A1,1,0,0,0,8,27h2V38h2V26A1,1,0,0,0,11,25Z"></path><path d="M26,10h2V21h2V9a1,1,0,0,0-1-1h-.586L32,4.414,35.586,8H35a1,1,0,0,0-1,1V21h2V10h2a1,1,0,0,0,.707-1.707l-6-6a1,1,0,0,0-1.414,0l-6,6A1,1,0,0,0,26,10Z"></path><path d="M58.707,15.293l-6-6a1,1,0,0,0-1.414,0l-6,6A1,1,0,0,0,46,17h2V28h2V16a1,1,0,0,0-1-1h-.586L52,11.414,55.586,15H55a1,1,0,0,0-1,1V28h2V17h2a1,1,0,0,0,.707-1.707Z"></path><rect x="28" y="23" width="2" height="2"></rect><rect x="28" y="27" width="2" height="2"></rect><rect x="34" y="29" width="2" height="2"></rect><rect x="34" y="33" width="2" height="2"></rect><rect x="28" y="31" width="2" height="2"></rect><rect x="34" y="23" width="2" height="4"></rect><rect x="48" y="30" width="2" height="4"></rect><rect x="48" y="36" width="2" height="2"></rect><rect x="54" y="32" width="2" height="2"></rect><rect x="54" y="38" width="2" height="2"></rect><rect x="10" y="40" width="2" height="2"></rect><rect x="10" y="44" width="2" height="2"></rect><rect x="10" y="48" width="2" height="2"></rect></g></svg>