<svg xmlns="http://www.w3.org/2000/svg" viewBox="0 0 64 64" x="0px" y="0px"><g><path d="M19,4a1,1,0,0,0-1,1V37a1,1,0,0,0,1,1H46.757l-1.672-1.673A11.992,11.992,0,1,1,46,16.27V12H42a2,2,0,0,1-2-2V4Zm3,4h4v2H22Zm4,16H22V22h4Zm0-4H22V18h4Zm4-6H22V12h8Zm0-4H28V8h2Z"></path><polygon points="42 10 45 10 42 6 42 10"></polygon><path d="M49.607,35.192l-1.45-1.45c-.215.254-.433.505-.672.743s-.49.457-.743.672l1.45,1.45Z"></path><path d="M21,59a1,1,0,0,0,1,1H42a1,1,0,0,0,0-2H22A1,1,0,0,0,21,59Z"></path><path d="M47.343,40H6v3a3,3,0,0,0,3,3H53.343ZM33,44H31V42h2Z"></path><polygon points="25.905 48 25.105 56 38.895 56 38.095 48 25.905 48"></polygon><path d="M6,38H16.184A2.966,2.966,0,0,1,16,37V8H9a3,3,0,0,0-3,3Z"></path><path d="M43.243,21.757a6,6,0,1,0,0,8.486A5.984,5.984,0,0,0,43.243,21.757Z"></path><path d="M58,11a3,3,0,0,0-3-3H46l1.8,2.4a1,1,0,0,1,.2.6v7.084a12.006,12.006,0,0,1,1.327,14l1.694,1.693a1.029,1.029,0,0,1,1.414,0L58,39.344Z"></path><rect x="49.021" y="37.021" width="4" height="2" transform="translate(-11.94 47.22) rotate(-45.006)"></rect><path d="M46.071,18.929a10,10,0,1,0,0,14.142A9.965,9.965,0,0,0,46.071,18.929ZM44.657,31.657a8,8,0,1,1,0-11.314A7.976,7.976,0,0,1,44.657,31.657Z"></path><polygon points="60.213 44.385 60.214 44.384 54.556 38.728 51.728 41.556 57.385 47.213 60.213 44.385"></polygon></g></svg>