<svg xmlns="http://www.w3.org/2000/svg" viewBox="0 0 64 64" x="0px" y="0px"><g><path d="M23.06,17A8.262,8.262,0,0,0,23,18v7.78l6.84-1.37a11.214,11.214,0,0,1,4.32,0L41,25.78V18a8.262,8.262,0,0,0-.06-1ZM27,23a2,2,0,1,1,2-2A2,2,0,0,1,27,23Zm10,0a2,2,0,1,1,2-2A2,2,0,0,1,37,23Z"></path><polygon points="23 60 23 41.61 21 42.24 21 60 23 60"></polygon><path d="M21.25,13.76a.991.991,0,0,0,.2.86.978.978,0,0,0,.78.38H49.25a.75.75,0,0,0,.24-1.46L47.9,13H21.46C21.38,13.25,21.31,13.5,21.25,13.76Z"></path><path d="M19,23a2.015,2.015,0,0,0,2,2V21A2.006,2.006,0,0,0,19,23Z"></path><path d="M39.06,31.57l-5.17-.58.22-1.98,6.09.68a8.531,8.531,0,0,0,.62-1.91l-7.06-1.41a9.065,9.065,0,0,0-3.52,0l-7.06,1.41a8.89,8.89,0,0,0,.62,1.91l6.09-.68.22,1.98-5.16.58a8.97,8.97,0,0,0,13.41.79A8.777,8.777,0,0,0,39.06,31.57Z"></path><path d="M22.34,11H42.86a13.132,13.132,0,0,1-2.81-2.08A9.935,9.935,0,0,0,33,6H31A9.938,9.938,0,0,0,22.34,11Z"></path><path d="M35,38.81V36.58A11.09,11.09,0,0,1,32,37a10.665,10.665,0,0,1-3-.43v2.24l3,1.12Z"></path><path d="M43,25a2.015,2.015,0,0,0,2-2,2.006,2.006,0,0,0-2-2Z"></path><path d="M25,40.89v2.22a1,1,0,0,0,.43.83.974.974,0,0,0,.92.11L31,42.31v-.62l-4.65-1.74a1.145,1.145,0,0,0-.35-.07,1.067,1.067,0,0,0-.57.18A1,1,0,0,0,25,40.89Z"></path><rect x="13" y="52" width="6" height="2"></rect><path d="M33,4a1,1,0,0,0-2,0Z"></path><rect x="45" y="56" width="6" height="4"></rect><polygon points="41 60 43 60 43 42.24 41 41.61 41 60"></polygon><path d="M51,49.88a6.943,6.943,0,0,0-4.91-6.67L45,42.86V50h6Z"></path><rect x="45" y="52" width="6" height="2"></rect><path d="M39,45.93a2.852,2.852,0,0,1-1,.18,2.95,2.95,0,0,1-1.05-.19L32,44.07l-4.95,1.85a2.95,2.95,0,0,1-1.05.19,2.852,2.852,0,0,1-1-.18V60H39ZM33,56H31V54h2Zm0-4H31V50h2Zm0-4H31V46h2Z"></path><rect x="13" y="56" width="6" height="4"></rect><path d="M39,40.89a1,1,0,0,0-.43-.83.974.974,0,0,0-.92-.11L33,41.69v.62l4.65,1.74a.974.974,0,0,0,.92-.11,1,1,0,0,0,.43-.83Z"></path><path d="M13,50h6V42.86l-1.09.34A6.964,6.964,0,0,0,13,49.88Z"></path></g></svg>