<svg xmlns="http://www.w3.org/2000/svg" viewBox="0 0 64 64" x="0px" y="0px"><g data-name="House-Security-Voice Control-Technology-Protect"><path d="M60.054,27.105a.991.991,0,0,0-.353-.679L32.645,3.84a1,1,0,0,0-1.284,0L4.381,26.48a1.085,1.085,0,0,0-.307,1.335,1,1,0,0,0,.7.486.985.985,0,0,0,.812-.22L31.354,6.237a1,1,0,0,1,1.291,0L58.417,27.959a1,1,0,0,0,1.408-.125A.99.99,0,0,0,60.054,27.105Z"></path><path d="M51,24.323,32,8.31,13,24.417V59a1,1,0,0,0,1,1H50a1,1,0,0,0,1-1ZM17,30a1,1,0,0,1,1-1h6v2H19v5H17Zm7,28H18a1,1,0,0,1-1-1V51h2v5h5Zm15.014-8.836-1.057-6.338-.973,5.353a1,1,0,0,1-.951.82.981.981,0,0,1-1-.757l-.8-3.184-1.246,8.094a1,1,0,0,1-.982.848H32a1,1,0,0,1-.986-.836L28.842,40.133l-1.867,8.092A1.039,1.039,0,0,1,26,49a1,1,0,0,1-.972-.783l-1.3-5.84-.8,1.994A1,1,0,0,1,22,45H18V43h3.323l1.748-4.371a1,1,0,0,1,1.9.154l1.043,4.69,2.006-8.7A1.014,1.014,0,0,1,29.031,34a1,1,0,0,1,.955.836L31.96,46.681l1.052-6.833a1,1,0,0,1,1.958-.09l.876,3.5,1.17-6.438A.958.958,0,0,1,38.007,36a1,1,0,0,1,.979.836L40.4,45.311l.672-1.682A1,1,0,0,1,42,43h4v2H42.677l-1.748,4.371a1,1,0,0,1-1.915-.207ZM47,57a1,1,0,0,1-1,1H40V56h5V51h2Zm0-21H45V31H40V29h6a1,1,0,0,1,1,1Z"></path></g></svg>