<svg xmlns="http://www.w3.org/2000/svg" viewBox="0 0 64 64" x="0px" y="0px"><title>Mail-Email-Letter-Book</title><g><path d="M60,55H33V54a3,3,0,0,1,3-3H57a1,1,0,0,0,1-1V29H56V49H36a4.967,4.967,0,0,0-3,1.012V18a3,3,0,0,1,3-3V13a5,5,0,0,0-4,2,5,5,0,0,0-4-2H7a1,1,0,0,0-1,1v5H3a1,1,0,0,0-1,1V56a1,1,0,0,0,1,1H61a1,1,0,0,0,1-1V27H60ZM8,15H28a3,3,0,0,1,3,3V50.012A4.967,4.967,0,0,0,28,49H8ZM4,21H6V50a1,1,0,0,0,1,1H28a3,3,0,0,1,3,3v1H4Z"></path><rect x="12" y="23" width="14" height="2"></rect><rect x="12" y="31" width="14" height="2"></rect><rect x="12" y="39" width="14" height="2"></rect><rect x="38" y="39" width="14" height="2"></rect><path d="M61.985,7.923a1.093,1.093,0,0,0-.025-.2c-.006-.021-.021-.038-.028-.059a1.035,1.035,0,0,0-.058-.121,1,1,0,0,0-.127-.188.988.988,0,0,0-.09-.093.962.962,0,0,0-.2-.132.793.793,0,0,0-.1-.055A.993.993,0,0,0,61,7H39a.993.993,0,0,0-.357.072,1.6,1.6,0,0,0-.3.187.988.988,0,0,0-.09.093,1,1,0,0,0-.127.188,1.035,1.035,0,0,0-.058.121c-.007.021-.022.038-.028.059a1.016,1.016,0,0,0-.025.2c0,.026-.015.049-.015.076V22a1,1,0,0,0,1,1H61a1,1,0,0,0,1-1V8C62,7.973,61.987,7.95,61.985,7.923ZM57.566,9,50,13.814,42.434,9ZM40,21V9.822l9.463,6.022a1,1,0,0,0,1.074,0L60,9.822V21Z"></path></g></svg>