<svg xmlns="http://www.w3.org/2000/svg" viewBox="0 0 64 64" x="0px" y="0px"><g><path d="M27,27H37a5,5,0,0,0-10,0Z"></path><rect x="19" y="10" width="3" height="2"></rect><rect x="19" y="14" width="3" height="2"></rect><rect x="9" y="14" width="3" height="2"></rect><rect x="14" y="14" width="3" height="2"></rect><rect x="9" y="10" width="3" height="2"></rect><rect x="14" y="10" width="3" height="2"></rect><rect x="52" y="10" width="3" height="2"></rect><rect x="42" y="14" width="3" height="2"></rect><rect x="52" y="14" width="3" height="2"></rect><rect x="42" y="10" width="3" height="2"></rect><rect x="47" y="10" width="3" height="2"></rect><rect x="47" y="14" width="3" height="2"></rect><path d="M22,37a3,3,0,0,0-3-3H9a3,3,0,0,0-3,3V57a3,3,0,0,0,3,3H19a3,3,0,0,0,3-3ZM12,36h4v2H12ZM8,36h2v2H8Zm8,22H12V56h4Zm-3-6V50h2v2Zm3.122-3.121a3,3,0,0,0-4.244,0l-1.414-1.414a5.008,5.008,0,0,1,7.072,0ZM18.95,46.05a7.009,7.009,0,0,0-9.9,0L7.636,44.636a9.009,9.009,0,0,1,12.728,0Z"></path><path d="M58,37a3,3,0,0,0-3-3H45a3,3,0,0,0-3,3V57a3,3,0,0,0,3,3H55a3,3,0,0,0,3-3ZM48,36h4v2H48Zm-4,0h2v2H44Zm8,22H48V56h4Zm-3-6V50h2v2Zm3.122-3.121a3,3,0,0,0-4.244,0l-1.414-1.414a5.008,5.008,0,0,1,7.072,0ZM54.95,46.05a7.009,7.009,0,0,0-9.9,0l-1.414-1.414a9.009,9.009,0,0,1,12.728,0Z"></path><rect x="31" y="29" width="2" height="2"></rect><path d="M28.464,33.535a5.007,5.007,0,0,0,7.072,0l-1.414-1.414a3,3,0,0,1-4.244,0Z"></path><path d="M27.05,34.95l-1.414,1.414a9.01,9.01,0,0,0,12.728,0L36.95,34.95A7.009,7.009,0,0,1,27.05,34.95Z"></path><path d="M32,4a2.006,2.006,0,0,0-2,2h4A2.006,2.006,0,0,0,32,4Z"></path><path d="M40,12H36V8H28v4H24v2h4v6h8V14h4Zm-6,4a2,2,0,1,1-2-2A2,2,0,0,1,34,16Z"></path></g></svg>