<svg xmlns="http://www.w3.org/2000/svg" viewBox="0 0 64 64" x="0px" y="0px"><g><path d="M47,37A10,10,0,1,0,57,47,10.011,10.011,0,0,0,47,37Zm-1,9h2a3,3,0,0,1,0,6v1H46V52a3,3,0,0,1-3-3h2a1,1,0,0,0,1,1h2a1,1,0,0,0,0-2H46a3,3,0,0,1,0-6V41h2v1a3,3,0,0,1,3,3H49a1,1,0,0,0-1-1H46a1,1,0,0,0,0,2Z"></path><path d="M47,32a14.9,14.9,0,0,1,7,1.744V14H38v5a1,1,0,0,1-1,1H21a1,1,0,0,1-1-1V14H4V50H32.3A15,15,0,0,1,47,32ZM10,45H8V43h2Zm0-4H8V35h2Zm4,2H12V35h2Zm4,2H16V41h2Zm0-6H16V35h2Zm4,4H20V35h2Zm4,2H24V35h2Z"></path><path d="M47,34A13,13,0,1,0,60,47,13.015,13.015,0,0,0,47,34Zm0,25A12,12,0,1,1,59,47,12.013,12.013,0,0,1,47,59Z"></path><polygon points="36 13 36 4 22 4 22 13 22 18 36 18 36 13"></polygon><rect x="38" y="4" width="16" height="8"></rect><rect x="4" y="4" width="16" height="8"></rect></g></svg>