<svg xmlns="http://www.w3.org/2000/svg" viewBox="0 0 64 64" x="0px" y="0px"><g data-name="Camera"><path d="M50,16H45V3a1,1,0,0,0-1-1H20a1,1,0,0,0-1,1V16H18V14a1,1,0,0,0-1-1H13a1,1,0,0,0-1,1v2.3A7.009,7.009,0,0,0,7,23V55a7.008,7.008,0,0,0,7,7H50a7.008,7.008,0,0,0,7-7V23A7.008,7.008,0,0,0,50,16ZM21,4H43V16H21ZM14,15h2v1H14Zm0,3H50a5.006,5.006,0,0,1,5,5v7H39.451a14.879,14.879,0,0,0-14.9,0H9V23A5.006,5.006,0,0,1,14,18ZM32,30A13,13,0,1,1,19,43,13.015,13.015,0,0,1,32,30ZM50,60H14a5.006,5.006,0,0,1-5-5V32H21.837a15,15,0,1,0,20.326,0H55V55A5.006,5.006,0,0,1,50,60Z"></path><path d="M32,54A11,11,0,1,0,21,43,11.013,11.013,0,0,0,32,54Zm0-20a9,9,0,1,1-9,9A9.011,9.011,0,0,1,32,34Z"></path><path d="M47,27a3,3,0,1,0-3-3A3,3,0,0,0,47,27Zm0-4a1,1,0,1,1-1,1A1,1,0,0,1,47,23Z"></path><path d="M14,28h6a1,1,0,0,0,1-1V21a1,1,0,0,0-1-1H14a1,1,0,0,0-1,1v6A1,1,0,0,0,14,28Zm1-6h4v4H15Z"></path><circle cx="47" cy="56" r="2"></circle></g></svg>