<svg xmlns="http://www.w3.org/2000/svg" viewBox="0 0 64 64" x="0px" y="0px"><title>Monitor-Writing-Archive-File-Computer</title><g><path d="M14,4a1,1,0,0,0-1,1V40H45V26.669l-.443-.026L38.866,36.5l-1.732-1,5.691-9.857-3.356-5.082a1,1,0,0,1-.032-1.051l3.5-6.063A13.078,13.078,0,0,1,45,10.771V5a1,1,0,0,0-1-1H43v7a1,1,0,0,1-.771.974A1.051,1.051,0,0,1,42,12a1,1,0,0,1-.9-.553L40,9.236l-1.1,2.211A1,1,0,0,1,37,11V4Zm7,4h8v2H21ZM15,8h4v2H15Zm0,4H31v2H15Zm22,6v2H27V18ZM15,18H25v2H15Zm0,4H31v2H15Zm0,8H25v2H15Zm8,6H15V34h8Zm12,0H25V34H35Zm-8-4V30h6v2Zm10,0H35V30h2Zm2-4H15V26H39Zm0-6v2H33V22Z"></path><path d="M39.1,6.553a1.042,1.042,0,0,1,1.79,0l.1.211V4H39V6.764Z"></path><path d="M44.67,14.447l-.691,1.2,2.464,3.732,1.382-2.393-2.409-3.649A10.9,10.9,0,0,0,44.67,14.447Z"></path><path d="M18,59a1,1,0,0,0,1,1H39a1,1,0,0,0,0-2H19A1,1,0,0,0,18,59Z"></path><path d="M53,42H5v3a3,3,0,0,0,3,3H50a3,3,0,0,0,3-3Zm-4,4H47V44h2Z"></path><path d="M5,40h6V14H8a3,3,0,0,0-3,3Z"></path><polygon points="22.883 50 22.133 56 35.867 56 35.117 50 22.883 50"></polygon><path d="M50.325,12.651l-1.508-2.289A10.835,10.835,0,0,0,46.8,11.8l2.135,3.234C49.409,14.207,49.866,13.405,50.325,12.651Z"></path><path d="M58.8,9.972A4.146,4.146,0,0,0,56.033,9.6a5.464,5.464,0,0,0-2.675,2.13l4.28.257Z"></path><path d="M51.35,9.322c-.232.062-.455.142-.68.218l.859,1.3A11.379,11.379,0,0,1,53.18,8.995,11.119,11.119,0,0,0,51.35,9.322Z"></path><path d="M56.521,13.92l-4.464-.268c-.455.747-.915,1.553-1.392,2.394l4.474.269Z"></path><polygon points="49.557 17.982 48.175 20.376 52.639 20.645 54.021 18.251 49.557 17.982"></polygon><path d="M53,24.02l-1.438,2.49a1,1,0,0,1-.866.5l-.059,0L47,26.789V40h6Z"></path><polygon points="50.14 24.975 51.522 22.581 47.057 22.312 45.675 24.707 50.14 24.975"></polygon><polygon points="41.479 19.975 43.943 23.707 45.325 21.313 42.861 17.581 41.479 19.975"></polygon></g></svg>