<svg xmlns="http://www.w3.org/2000/svg" viewBox="0 0 64 64" x="0px" y="0px"><title>Curve Graph_1</title><g data-name="Curve Graph"><path d="M19.028,34c.285,7.009,3.545,12,7.972,12s7.687-4.991,7.972-12H62V32H54.974C54.708,20.71,49.991,12,44,12S33.292,20.71,33.026,32H20.972C20.687,24.991,17.427,20,13,20c-2.468,0-4.569,1.56-6,4.146V2H5V4H2V6H5V18H2v2H5V32H2v2H5V46H2v2H5V61a1,1,0,0,0,1,1H62V60H7V34ZM27,44c-3.236,0-5.715-4.234-5.974-10H32.974C32.715,39.766,30.236,44,27,44ZM44,14c4.719,0,8.718,8.147,8.975,18H35.025C35.282,22.147,39.281,14,44,14ZM13,22c3.236,0,5.715,4.234,5.974,10H7.026C7.285,26.234,9.764,22,13,22Z"></path><rect x="11" y="4" width="2" height="2"></rect><rect x="15" y="4" width="12" height="2"></rect><rect x="11" y="8" width="16" height="2"></rect><rect x="11" y="12" width="16" height="2"></rect></g></svg>