<svg xmlns="http://www.w3.org/2000/svg" viewBox="0 0 64 64" x="0px" y="0px"><g><circle cx="18" cy="33" r="1"></circle><path d="M16,20.71v.01l2,3.34,2-3.34v-.01a7.042,7.042,0,0,1-4,0Z"></path><polygon points="19.66 26 21.58 26 21.94 24.21 21.04 22.87 19.32 25.74 19.66 26"></polygon><path d="M25,13a1,1,0,0,0,0-2Z"></path><polygon points="14.42 26 16.34 26 16.68 25.74 14.96 22.87 14.06 24.21 14.42 26"></polygon><path d="M10,38H26V28H10Zm8-8a3,3,0,1,1-3,3A3,3,0,0,1,18,30Z"></path><path d="M16,56a1,1,0,0,0-1,1v2a1,1,0,0,0,1,1h8a1,1,0,0,0,1-1V57a1,1,0,0,0-1-1H23v2H21V56H19v2H17V56Z"></path><path d="M30,38V28.71a3,3,0,0,0-1.88-2.79l-4.15-1.66L23.62,26H26a2.006,2.006,0,0,1,2,2V38Z"></path><path d="M50.82,60H56V44H8V60h5.18A3,3,0,0,1,13,59V57a3.009,3.009,0,0,1,3-3h8a2.923,2.923,0,0,1,1.32.32A2.923,2.923,0,0,1,25,53V51a3.009,3.009,0,0,1,3-3h8a3.009,3.009,0,0,1,3,3v2a2.923,2.923,0,0,1-.32,1.32A2.923,2.923,0,0,1,40,54h8a3.009,3.009,0,0,1,3,3v2A3,3,0,0,1,50.82,60Z"></path><path d="M28,50a1,1,0,0,0-1,1v2a1,1,0,0,0,1,1h8a1,1,0,0,0,1-1V51a1,1,0,0,0-1-1H35v2H33V50H31v2H29V50Z"></path><path d="M13,6V7.18A3,3,0,0,1,14,7h8a1,1,0,0,0,1-1V4H15A2.006,2.006,0,0,0,13,6Z"></path><rect x="4" y="40" width="56" height="2"></rect><path d="M49,59V57a1,1,0,0,0-1-1H47v2H45V56H43v2H41V56H40a1,1,0,0,0-1,1v2a1,1,0,0,0,1,1h8A1,1,0,0,0,49,59Z"></path><path d="M27,59a1,1,0,0,0,1,1h8a1,1,0,0,0,1-1V57a1,1,0,0,0-1-1H35v2H33V56H31v2H29V56H28a1,1,0,0,0-1,1Z"></path><path d="M18,19a5,5,0,0,0,5-5V10a1,1,0,0,0-1-1H14a1,1,0,0,0-1,1v4A5,5,0,0,0,18,19Zm-1.5-4.4a3.06,3.06,0,0,0,3,0l1,1.73a5,5,0,0,1-5,0Z"></path><rect x="48" y="29" width="6.001" height="5"></rect><rect x="40" y="22" width="6" height="5"></rect><rect x="48" y="22" width="6" height="5"></rect><path d="M54,10H40v6H54ZM44,14H42V12h2Zm4,0H46V12h2Zm4,0H50V12h2Z"></path><rect x="40" y="29" width="6" height="5"></rect><path d="M57,38a1,1,0,0,0,1-1V7a1,1,0,0,0-1-1H37a1,1,0,0,0-1,1V37a1,1,0,0,0,1,1ZM38,10a2,2,0,0,1,2-2H54a2,2,0,0,1,2,2v6a2,2,0,0,1-2,2H40a2,2,0,0,1-2-2Zm0,12a2,2,0,0,1,2-2H54a2,2,0,0,1,2,2V34a2,2,0,0,1-2,2H40a2,2,0,0,1-2-2Z"></path><path d="M6,28.71V38H8V28a2.006,2.006,0,0,1,2-2h2.38l-.35-1.74L7.88,25.92A3,3,0,0,0,6,28.71Z"></path><path d="M10,12a1,1,0,0,0,1,1V11A1,1,0,0,0,10,12Z"></path></g></svg>