<svg xmlns="http://www.w3.org/2000/svg" viewBox="0 0 64 64" x="0px" y="0px"><g data-name="Text Message-Communication-Smartphone-Hands-Working At Home"><rect x="26" y="33" width="5" height="2"></rect><rect x="26" y="37" width="12" height="2"></rect><rect x="26" y="41" width="12" height="2"></rect><rect x="31" y="50" width="2" height="2"></rect><path d="M60.99,24.89h-.01L33.93,2.3a3.005,3.005,0,0,0-3.85.01L3.1,24.95a3.071,3.071,0,0,0-.74,3.89,2.976,2.976,0,0,0,2.08,1.43,2.921,2.921,0,0,0,.5.05,2.986,2.986,0,0,0,1.93-.71L8,28.66V59a3.009,3.009,0,0,0,3,3H53a3.009,3.009,0,0,0,3-3V28.54l1.13.95a3,3,0,0,0,3.86-4.6ZM26,60H17V49.33a9.077,9.077,0,0,1,1.8-5.4L21,41v8.2l-1.33,2.3,1.73,1,3-5.2a1.01,1.01,0,0,1,.61-.46.995.995,0,0,1,1.12,1.46l-3,5.2a1.014,1.014,0,0,0,.16,1.21l1.54,1.53A4,4,0,0,1,26,59.07ZM41,30V43.18A3.051,3.051,0,0,0,40,43a3.009,3.009,0,0,0-3,3H27.66a2.931,2.931,0,0,0-.89-.79,2.975,2.975,0,0,0-2.28-.3,2.921,2.921,0,0,0-1.49.93V30ZM23.18,28A3.01,3.01,0,0,1,26,26H38a3.01,3.01,0,0,1,2.82,2Zm2.15,25.92-.08-.09,2.62-4.53a3.007,3.007,0,0,0,.38-1.3H37v6h-.17a2.994,2.994,0,0,0-2.57-1.47A2.954,2.954,0,0,0,31.7,54H26A3,3,0,0,1,25.33,53.92ZM28,60v-.93A5.959,5.959,0,0,0,27.15,56h4.16a3.068,3.068,0,0,0,.36,1.04L33.38,60Zm25,0H35.69l-2.28-3.96a.93.93,0,0,1-.09-.78.9.9,0,0,1,.45-.59,1,1,0,0,1,1.37.38l1.99,3.45a1.022,1.022,0,0,0,1.13.47A1,1,0,0,0,39,58V46a1,1,0,0,1,1-1,.949.949,0,0,1,.71.31A.928.928,0,0,1,41,46V56h2V53a1,1,0,0,1,1-1,.949.949,0,0,1,.71.31A.928.928,0,0,1,45,53v3h2V54a1,1,0,0,1,1-1,.949.949,0,0,1,.71.31A.928.928,0,0,1,49,54v2h2V55a1,1,0,0,1,1-1,.949.949,0,0,1,.71.31A.928.928,0,0,1,53,55Zm1-7.21a2.916,2.916,0,0,0-3.47-.39,2.811,2.811,0,0,0-.4-.51,2.957,2.957,0,0,0-3.6-.49,2.811,2.811,0,0,0-.4-.51A2.971,2.971,0,0,0,44,50a3,3,0,0,0-1,.18V29a5,5,0,0,0-5-5H26a5,5,0,0,0-5,5v8.67l-3.8,5.06a11.067,11.067,0,0,0-2.2,6.6V60H11a1,1,0,0,1-1-1V26.96L32,8.31,54,26.85Zm5.82-24.96a.988.988,0,0,1-1.4.13L32.64,6.24a.987.987,0,0,0-1.29,0L5.58,28.08a.977.977,0,0,1-.81.22,1.02,1.02,0,0,1-.7-.48,1.094,1.094,0,0,1,.31-1.34L31.36,3.84A1.047,1.047,0,0,1,32,3.61a1,1,0,0,1,.64.23L59.7,26.43a.948.948,0,0,1,.35.68A.913.913,0,0,1,59.82,27.83Z"></path></g></svg>