<svg xmlns="http://www.w3.org/2000/svg" viewBox="0 0 64 64" x="0px" y="0px"><g data-name="Ticket-Airplane-Flight-Travel-Boarding Pass-Smartphone"><path d="M54.62,29A3.985,3.985,0,0,0,52,22H50V9a7.008,7.008,0,0,0-7-7H21a7.008,7.008,0,0,0-7,7v5.56A3.906,3.906,0,0,0,12,14H9a1,1,0,0,0-1,1V46.59l-6.71,6.7,1.42,1.42,7-7A1.033,1.033,0,0,0,10,47V16h2a2.006,2.006,0,0,1,2,2v8a1,1,0,0,0,.14.51l1.01,1.68A13.013,13.013,0,0,1,17,34.88v1.45a9.92,9.92,0,0,1-1.43,5.15l1.72,1.04A12.047,12.047,0,0,0,19,36.33V34.88a14.993,14.993,0,0,0-2.14-7.72L16,25.72V9a5,5,0,0,1,5-5H43a5,5,0,0,1,5,5V22a3.985,3.985,0,0,0-2.62,7,3.951,3.951,0,0,0,0,6,3.951,3.951,0,0,0,0,6A3.985,3.985,0,0,0,48,48v1a5,5,0,0,1-5,5H21a5,5,0,0,1-5-5V44H14v5a7.008,7.008,0,0,0,7,7H33.59l-5.3,5.29,1.42,1.42L36.41,56H43a7.008,7.008,0,0,0,7-7V48h2a3.985,3.985,0,0,0,2.62-7,3.951,3.951,0,0,0,0-6,3.951,3.951,0,0,0,0-6ZM52,46H48a2,2,0,0,1,0-4h4a2,2,0,0,1,0,4Zm0-6H48a2,2,0,0,1,0-4h4a2,2,0,0,1,0,4Zm0-6H48a2,2,0,0,1,0-4h4a2,2,0,0,1,0,4Zm0-6H48a2,2,0,0,1,0-4h4a2,2,0,0,1,0,4Z"></path><rect x="25" y="6" width="2" height="2"></rect><rect x="29" y="6" width="6" height="2"></rect><path d="M30,46a3,3,0,0,0,0,6h4a3,3,0,0,0,0-6Zm5,3a1,1,0,0,1-1,1H30a1,1,0,0,1,0-2h4A1,1,0,0,1,35,49Z"></path><path d="M40.71,20.29l-2-2A1.033,1.033,0,0,0,38,18H34.54l-3.71-5.55A1,1,0,0,0,30,12H28a.983.983,0,0,0-.81.42,1,1,0,0,0-.14.9L28.61,18h-.2l-1.7-1.71A1.033,1.033,0,0,0,26,16H24a1,1,0,0,0-1,1v6a1,1,0,0,0,1,1h4.61l-1.56,4.68a1,1,0,0,0,.14.9A.983.983,0,0,0,28,30h2a1,1,0,0,0,.83-.45L34.54,24H40a1,1,0,0,0,1-1V21A1.033,1.033,0,0,0,40.71,20.29ZM29.46,14l2.67,4H30.72l-1.33-4Zm0,14h-.07l1.33-4h1.41ZM39,22H25V18h.59l1.7,1.71A1.033,1.033,0,0,0,28,20h9.59L39,21.41Z"></path><rect x="24" y="32" width="16" height="2"></rect><rect x="24" y="36" width="8" height="2"></rect><rect x="24" y="40" width="13" height="2"></rect></g></svg>