<svg xmlns="http://www.w3.org/2000/svg" viewBox="0 0 64 64" x="0px" y="0px"><title>Presentaion money</title><g data-name="Presentaion money"><path d="M62,12V6H36V2H28V6H2v6H4V44H2v6H28v6H21v6H43V56H36V50H62V44H60V12ZM30,4h4V6H30ZM4,8H60v2H4ZM41,58v2H23V58Zm-7-2H30V50h4Zm26-8H4V46H60Zm-2-4H6V12H58Z"></path><path d="M32,36a1,1,0,0,1-1-1H29a3,3,0,0,0,2,2.816V39h2V37.816A2.993,2.993,0,0,0,32,32a1,1,0,1,1,1-1h2a3,3,0,0,0-2-2.816V27H31v1.184A2.993,2.993,0,0,0,32,34a1,1,0,0,1,0,2Z"></path><path d="M32,42a8.991,8.991,0,0,0,7-14.644V20H37v5.522a8.974,8.974,0,0,0-10,0V20H25v7.356A8.991,8.991,0,0,0,32,42Zm0-16a7,7,0,1,1-7,7A7.008,7.008,0,0,1,32,26Z"></path><rect x="31" y="18" width="2" height="4"></rect><rect x="31" y="14" width="2" height="2"></rect><rect x="37" y="16" width="2" height="2"></rect><rect x="25" y="16" width="2" height="2"></rect><rect x="45" y="24" width="2" height="2"></rect><rect x="49" y="24" width="6" height="2"></rect><rect x="45" y="28" width="10" height="2"></rect><rect x="45" y="32" width="10" height="2"></rect><rect x="9" y="24" width="8" height="2"></rect><rect x="9" y="28" width="8" height="2"></rect><rect x="9" y="32" width="8" height="2"></rect></g></svg>