<svg xmlns="http://www.w3.org/2000/svg" viewBox="0 0 64 64" x="0px" y="0px"><g data-name="Sewing Machine-Household-Utensils-Sew-Tailoring"><path d="M57,18H54.9A5.017,5.017,0,0,0,50,14H44V12h2a1,1,0,0,0,1-1V5a1,1,0,0,0-1-1H44V2H42V4H40a1,1,0,0,0-1,1v6a1,1,0,0,0,1,1h2v2H34V12h2a1,1,0,0,0,1-1V5a1,1,0,0,0-1-1H34V2H32V4H30a1,1,0,0,0-1,1v6a1,1,0,0,0,1,1h2v2H14a9.014,9.014,0,0,0-9,9V33a3.009,3.009,0,0,0,3,3v2a2.006,2.006,0,0,0,2,2h1v4h2V40h1a2.006,2.006,0,0,0,2-2V36h.44a3,3,0,0,0,2.91-2.27l1.24-4.97a1,1,0,0,1,.97-.76H34a1,1,0,0,1,1,1V46H6a1,1,0,0,0-1,1V57a1,1,0,0,0,1,1H7v3a1,1,0,0,0,1,1H52a1,1,0,0,0,1-1V58h1a1,1,0,0,0,1-1V32h2a2.006,2.006,0,0,0,2-2V20A2.006,2.006,0,0,0,57,18ZM8,34a1,1,0,0,1-1-1V23a7,7,0,0,1,4-6.31V34Zm6,4H10V36h4Zm1-4H13V16.08A6.634,6.634,0,0,1,14,16h1ZM41,10V6h4v4ZM31,10V6h4v4ZM51,60H9V58H51Zm2-4H7V48H53Zm0-10H37V29a3.009,3.009,0,0,0-3-3H21.56a3,3,0,0,0-2.91,2.27l-1.24,4.97a.979.979,0,0,1-.41.58V16H50a3.009,3.009,0,0,1,3,3Zm4-16H55V20h2Z"></path><path d="M45,42a5,5,0,1,0-5-5A5.006,5.006,0,0,0,45,42Zm0-8a3,3,0,1,1-3,3A3,3,0,0,1,45,34Z"></path><path d="M45,28a4,4,0,1,0-4-4A4,4,0,0,0,45,28Zm0-6a2,2,0,1,1-2,2A2,2,0,0,1,45,22Z"></path><path d="M32,18H22a1,1,0,0,0-1,1v4a1,1,0,0,0,1,1H32a1,1,0,0,0,1-1V19A1,1,0,0,0,32,18Zm-1,4H23V20h8Z"></path></g></svg>