<svg xmlns="http://www.w3.org/2000/svg" viewBox="0 0 64 64" x="0px" y="0px"><g><path d="M32,11a3,3,0,1,0-3-3A3,3,0,0,0,32,11Zm0-4a1,1,0,1,1-1,1A1,1,0,0,1,32,7Z"></path><path d="M49,12H44.89A6.976,6.976,0,0,0,40,10H38V7a5.006,5.006,0,0,0-5-5H31a5.006,5.006,0,0,0-5,5v3H24a6.976,6.976,0,0,0-4.89,2H15a5.006,5.006,0,0,0-5,5V57a5.006,5.006,0,0,0,5,5H49a5.006,5.006,0,0,0,5-5V17A5.006,5.006,0,0,0,49,12Zm-1,6V56H16V18h1v1a1,1,0,0,0,1,1H46a1,1,0,0,0,1-1V18ZM24,12h3a1,1,0,0,0,1-1V7a3,3,0,0,1,3-3h2a3,3,0,0,1,3,3v4a1,1,0,0,0,1,1h3a5.006,5.006,0,0,1,5,5v1H19V17A5.006,5.006,0,0,1,24,12ZM52,57a3,3,0,0,1-3,3H15a3,3,0,0,1-3-3V17a3,3,0,0,1,3-3h2.685a6.937,6.937,0,0,0-.605,2H16a2,2,0,0,0-2,2V56a2,2,0,0,0,2,2H48a2,2,0,0,0,2-2V18a2,2,0,0,0-2-2H46.92a6.937,6.937,0,0,0-.605-2H49a3,3,0,0,1,3,3Z"></path><rect x="20" y="25" width="6" height="2"></rect><rect x="28" y="25" width="16" height="2"></rect><rect x="20" y="31" width="6" height="2"></rect><rect x="28" y="31" width="16" height="2"></rect><rect x="20" y="37" width="6" height="2"></rect><rect x="28" y="37" width="16" height="2"></rect><rect x="20" y="43" width="6" height="2"></rect><rect x="28" y="43" width="16" height="2"></rect><rect x="20" y="49" width="6" height="2"></rect><rect x="28" y="49" width="16" height="2"></rect></g></svg>