<svg xmlns="http://www.w3.org/2000/svg" viewBox="0 0 64 64" x="0px" y="0px"><g><path d="M37.8,24.4A1,1,0,0,0,37,24H27a1,1,0,0,0-.8.4l-3,4a1,1,0,0,0-.2.6v2a2.985,2.985,0,0,0,1,2.22V40a2,2,0,0,0,2,2H38a2,2,0,0,0,2-2V33.22A2.985,2.985,0,0,0,41,31V29a1,1,0,0,0-.2-.6ZM27.5,26h9L38,28H26ZM38,32a1,1,0,0,1-1-1H35a1,1,0,0,1-2,0H31a1,1,0,0,1-2,0H27a1,1,0,0,1-2,0V30H39v1A1,1,0,0,1,38,32Zm-5,8H31V38h2Zm5,0H35V37a1,1,0,0,0-1-1H30a1,1,0,0,0-1,1v3H26V34a2.981,2.981,0,0,0,2-.78,2.954,2.954,0,0,0,4,0,2.954,2.954,0,0,0,4,0A2.981,2.981,0,0,0,38,34Z"></path><path d="M53.707,42.293l-3-3A1,1,0,0,0,50,39V35h4V33H50V29a1,1,0,0,0,.707-.293l3-3-1.414-1.414L50,26.586V7a5.006,5.006,0,0,0-5-5H19a5.006,5.006,0,0,0-5,5V26.586l-2.293-2.293-1.414,1.414,3,3A1,1,0,0,0,14,29v4H10v2h4v4a1,1,0,0,0-.707.293l-3,3,1.414,1.414L14,41.414V57a5.006,5.006,0,0,0,5,5H45a5.006,5.006,0,0,0,5-5V41.414l2.293,2.293ZM25,4H39V6H25ZM45,60H19a3,3,0,0,1-3-3V41h5V39H16V35h5V33H16V29h5V27H16V7a3,3,0,0,1,3-3h4V6a2,2,0,0,0,2,2H39a2,2,0,0,0,2-2V4h4a3,3,0,0,1,3,3V27H43v2h5v4H43v2h5v4H43v2h5V57A3,3,0,0,1,45,60Z"></path><path d="M56,25a3,3,0,1,0-3-3A3,3,0,0,0,56,25Zm0-4a1,1,0,1,1-1,1A1,1,0,0,1,56,21Z"></path><path d="M59,31a3,3,0,1,0,3,3A3,3,0,0,0,59,31Zm0,4a1,1,0,1,1,1-1A1,1,0,0,1,59,35Z"></path><path d="M56,43a3,3,0,1,0,3,3A3,3,0,0,0,56,43Zm0,4a1,1,0,1,1,1-1A1,1,0,0,1,56,47Z"></path><path d="M8,25a3,3,0,1,0-3-3A3,3,0,0,0,8,25Zm0-4a1,1,0,1,1-1,1A1,1,0,0,1,8,21Z"></path><path d="M8,34a3,3,0,1,0-3,3A3,3,0,0,0,8,34ZM4,34a1,1,0,1,1,1,1A1,1,0,0,1,4,34Z"></path><path d="M8,43a3,3,0,1,0,3,3A3,3,0,0,0,8,43Zm0,4a1,1,0,1,1,1-1A1,1,0,0,1,8,47Z"></path><rect x="25" y="46" width="2" height="2"></rect><rect x="29" y="46" width="10" height="2"></rect><rect x="25" y="50" width="14" height="2"></rect><rect x="25" y="14" width="2" height="2"></rect><rect x="29" y="14" width="2" height="2"></rect><rect x="33" y="14" width="6" height="2"></rect><rect x="25" y="18" width="14" height="2"></rect></g></svg>