<svg xmlns="http://www.w3.org/2000/svg" viewBox="0 0 64 64" x="0px" y="0px"><g data-name="Car Key"><circle cx="28" cy="23" r="1"></circle><circle cx="36" cy="23" r="1"></circle><path d="M34,41V36H30V60h1V42a1,1,0,0,1,1-1Z"></path><path d="M42,30H22v1a3,3,0,0,0,3,3H39a3,3,0,0,0,3-3Z"></path><rect x="33" y="43" width="1" height="17"></rect><path d="M37,8H27a1,1,0,0,0,0,2H37a1,1,0,0,0,0-2Z"></path><path d="M42,7a3,3,0,0,0-3-3H25a3,3,0,0,0-3,3V28H42ZM28,26a3,3,0,1,1,3-3A3,3,0,0,1,28,26ZM26,16V14H38v2ZM36,26a3,3,0,1,1,3-3A3,3,0,0,1,36,26Zm1-14H27a3,3,0,0,1,0-6H37a3,3,0,0,1,0,6Z"></path></g></svg>