<svg xmlns="http://www.w3.org/2000/svg" viewBox="0 0 64 64" x="0px" y="0px"><g data-name="Steam Fan"><rect x="19" y="24" width="26" height="2"></rect><path d="M45,33V32H19v1a1,1,0,0,0,1,1H44A1,1,0,0,0,45,33Z"></path><rect x="19" y="28" width="26" height="2"></rect><path d="M45,13a1,1,0,0,0-1-1H20a1,1,0,0,0-1,1v1H45Z"></path><rect x="19" y="20" width="26" height="2"></rect><rect x="19" y="16" width="26" height="2"></rect><rect x="47" y="59" width="2" height="2"></rect><path d="M51,55H46V53h5V51H44V49h7L51,7a3,3,0,0,0-3-3H16a3,3,0,0,0-3,3V57H51ZM34,6h2V8H34ZM30,6h2V8H30ZM26,6h2V8H26ZM20,6h4V8H20ZM17,33V13a3,3,0,0,1,3-3H44a3,3,0,0,1,3,3V33a3,3,0,0,1-3,3H20A3,3,0,0,1,17,33ZM32,49a4,4,0,1,1,4-4A4,4,0,0,1,32,49Zm12,6H42V53h2Z"></path><rect x="15" y="59" width="2" height="2"></rect><circle cx="32" cy="45" r="2"></circle></g></svg>