<svg xmlns="http://www.w3.org/2000/svg" viewBox="0 0 64 64" x="0px" y="0px"><title>Business growth up</title><g data-name="Business growth up"><path d="M16,38V36.816A2.993,2.993,0,0,0,15,31a1,1,0,1,1,1-1h2a3,3,0,0,0-2-2.816V26H14v1.184A2.993,2.993,0,0,0,15,33a1,1,0,1,1-1,1H12a3,3,0,0,0,2,2.816V38Z"></path><rect x="19" y="31" width="2" height="2"></rect><rect x="9" y="31" width="2" height="2"></rect><path d="M33,22V20.816A2.993,2.993,0,0,0,32,15a1,1,0,1,1,1-1h2a3,3,0,0,0-2-2.816V10H31v1.184A2.993,2.993,0,0,0,32,17a1,1,0,1,1-1,1H29a3,3,0,0,0,2,2.816V22Z"></path><rect x="36" y="15" width="2" height="2"></rect><rect x="26" y="15" width="2" height="2"></rect><path d="M50,44V42.816A2.993,2.993,0,0,0,49,37a1,1,0,1,1,1-1h2a3,3,0,0,0-2-2.816V32H48v1.184A2.993,2.993,0,0,0,49,39a1,1,0,1,1-1,1H46a3,3,0,0,0,2,2.816V44Z"></path><rect x="53" y="37" width="2" height="2"></rect><rect x="43" y="37" width="2" height="2"></rect><path d="M33,53H45a5.006,5.006,0,0,0,5-5V46.941a9,9,0,1,0-2,0V48a3,3,0,0,1-3,3H33V46h1a5.006,5.006,0,0,0,5-5V39a1,1,0,0,0-1-1H36a4.948,4.948,0,0,0-3,1.026V36h1a5.006,5.006,0,0,0,5-5V29a1,1,0,0,0-1-1H36a4.948,4.948,0,0,0-3,1.026V24.941a9,9,0,1,0-2,0v2.085A4.948,4.948,0,0,0,28,26H26a1,1,0,0,0-1,1v2a5.006,5.006,0,0,0,5,5h1v3.026A4.948,4.948,0,0,0,28,36H26a1,1,0,0,0-1,1v2a5.006,5.006,0,0,0,5,5h1v7H17a1,1,0,0,1-1-1h1a5.006,5.006,0,0,0,5-5V43a1,1,0,0,0-1-1H19a4.948,4.948,0,0,0-3,1.026V40.941a9,9,0,1,0-2,0v1.085A4.948,4.948,0,0,0,11,41H9a1,1,0,0,0-1,1v2a5.006,5.006,0,0,0,5,5h1v1a3,3,0,0,0,3,3H31v7H8v2H56V60H33Zm9-15a7,7,0,1,1,7,7A7.008,7.008,0,0,1,42,38ZM19,44h1v1a3,3,0,0,1-3,3H16V47A3,3,0,0,1,19,44ZM8,32a7,7,0,1,1,7,7A7.008,7.008,0,0,1,8,32Zm5,15a3,3,0,0,1-3-3V43h1a3,3,0,0,1,3,3v1Zm23-7h1v1a3,3,0,0,1-3,3H33V43A3,3,0,0,1,36,40Zm0-10h1v1a3,3,0,0,1-3,3H33V33A3,3,0,0,1,36,30ZM25,16a7,7,0,1,1,7,7A7.008,7.008,0,0,1,25,16Zm2,13V28h1a3,3,0,0,1,3,3v1H30A3,3,0,0,1,27,29Zm0,10V38h1a3,3,0,0,1,3,3v1H30A3,3,0,0,1,27,39Z"></path><rect x="52" y="8" width="2" height="2"></rect><rect x="54" y="10" width="2" height="2"></rect><rect x="52" y="12" width="2" height="2"></rect><rect x="50" y="10" width="2" height="2"></rect><rect x="47" y="20" width="2" height="2"></rect><rect x="49" y="22" width="2" height="2"></rect><rect x="47" y="24" width="2" height="2"></rect><rect x="45" y="22" width="2" height="2"></rect><rect x="11" y="14" width="2" height="2"></rect><rect x="13" y="16" width="2" height="2"></rect><rect x="11" y="18" width="2" height="2"></rect><rect x="9" y="16" width="2" height="2"></rect></g></svg>