<svg xmlns="http://www.w3.org/2000/svg" viewBox="0 0 64 64" x="0px" y="0px"><g data-name="Chair"><polygon points="21.133 60 22.847 48 19 48 19 60 21.133 60"></polygon><path d="M28.874,28h6.252A4.016,4.016,0,0,1,38,25.126V18.874A4.016,4.016,0,0,1,35.126,16H28.874A4.016,4.016,0,0,1,26,18.874v6.252A4.016,4.016,0,0,1,28.874,28Z"></path><path d="M17,35.026a4.954,4.954,0,0,1,2-.925V26a3,3,0,1,0-3,3,1,1,0,0,1,1,1ZM15,27V25h2v2Z"></path><rect x="17" y="44" width="30" height="2"></rect><polygon points="45 60 45 48 41.153 48 42.867 60 45 60"></polygon><path d="M17,39v3H47V39a3,3,0,0,0-3-3H20A3,3,0,0,0,17,39Z"></path><path d="M50.347,27.869A3,3,0,1,0,45,26v8.1a4.954,4.954,0,0,1,2,.925V30a1,1,0,0,1,1-1A2.99,2.99,0,0,0,50.347,27.869ZM47,27V25h2v2Z"></path><path d="M43,34V26a4.979,4.979,0,0,1,1.884-3.911c.038-.03.078-.054.116-.082V13.89A5.006,5.006,0,0,1,41.1,10H22.9A5.006,5.006,0,0,1,19,13.89v8.117c.038.028.078.052.116.082A4.979,4.979,0,0,1,21,26v8ZM24,18a1,1,0,0,1,1-1,2,2,0,0,0,2-2,1,1,0,0,1,1-1h8a1,1,0,0,1,1,1,2,2,0,0,0,2,2,1,1,0,0,1,1,1v8a1,1,0,0,1-1,1,2,2,0,0,0-2,2,1,1,0,0,1-1,1H28a1,1,0,0,1-1-1,2,2,0,0,0-2-2,1,1,0,0,1-1-1Z"></path><path d="M19,11.53H17V7a2,2,0,1,0-2,2v2a4,4,0,1,1,4-4Z"></path><path d="M47,11.53H45V7a4,4,0,1,1,4,4V9a2,2,0,1,0-2-2Z"></path></g></svg>