<svg xmlns="http://www.w3.org/2000/svg" viewBox="0 0 64 64" x="0px" y="0px"><g data-name="Data-Management"><path d="M34.986,42.165l.352-2.107L37.076,41.3a1,1,0,0,0,1.288-.107l2.828-2.828a1,1,0,0,0,.107-1.288l-1.24-1.738,2.106-.352A1,1,0,0,0,43,34V30a1,1,0,0,0-.835-.986l-2.107-.352L41.3,26.924a1,1,0,0,0-.107-1.288l-2.828-2.828a1,1,0,0,0-1.288-.107l-1.738,1.24-.352-2.106A1,1,0,0,0,34,21H30a1,1,0,0,0-.986.835l-.352,2.107L26.924,22.7a1,1,0,0,0-1.288.107l-2.828,2.828a1,1,0,0,0-.107,1.288l1.24,1.738-2.106.352A1,1,0,0,0,21,30v4a1,1,0,0,0,.835.986l2.107.352L22.7,37.076a1,1,0,0,0,.107,1.288l2.828,2.828a1,1,0,0,0,1.288.107l1.738-1.24.352,2.106A1,1,0,0,0,30,43h4A1,1,0,0,0,34.986,42.165Zm-1.621-2.436L33.153,41H30.847l-.212-1.27a2,2,0,0,0-3.135-1.3l-1.049.749L24.82,37.549l.749-1.048a2,2,0,0,0-1.3-3.136L23,33.153V30.847l1.27-.212a2,2,0,0,0,1.3-3.135l-.749-1.049,1.631-1.631,1.048.749a2,2,0,0,0,3.136-1.3L30.847,23h2.306l.212,1.27a2,2,0,0,0,3.135,1.3l1.049-.749,1.631,1.631L38.431,27.5a2,2,0,0,0,1.3,3.136L41,30.847v2.306l-1.27.212a2,2,0,0,0-1.3,3.135l.749,1.049L37.549,39.18,36.5,38.431a2,2,0,0,0-3.136,1.3Z"></path><path d="M37,32a5,5,0,1,0-5,5A5.006,5.006,0,0,0,37,32Zm-5,3a3,3,0,1,1,3-3A3,3,0,0,1,32,35Z"></path><path d="M48.5,11.918,50.414,10H52V8H50a1,1,0,0,0-.707.293L46.885,10.7A25.93,25.93,0,0,0,15.411,12l-2.7-2.7A1,1,0,0,0,12,9H10v2h1.586l2.338,2.338A25.983,25.983,0,0,0,41.7,56.115l3.592,3.592A1,1,0,0,0,46,60h2V58H46.414l-2.766-2.766A25.976,25.976,0,0,0,48.5,11.918Zm-2.789,2.789,1.365-1.365A23.964,23.964,0,0,1,55.975,31H51.949A19.991,19.991,0,0,0,33,12.051V8.025a23.851,23.851,0,0,1,12.451,4.11l-1.158,1.158ZM19.276,44.722A17.993,17.993,0,1,1,32,50,17.843,17.843,0,0,1,19.276,44.722ZM8,32a23.927,23.927,0,0,1,7.337-17.249l.956.956,1.414-1.414-.875-.876A23.882,23.882,0,0,1,31,8.025v4.026A20.007,20.007,0,0,0,12,32a19.8,19.8,0,0,0,5.19,13.4l-2.852,2.852A23.827,23.827,0,0,1,8,32ZM42.153,53.739l-1.446-1.446-1.414,1.414.864.864a24,24,0,0,1-24.4-4.909L18.6,46.81A19.8,19.8,0,0,0,32,52,20.007,20.007,0,0,0,51.949,33h4.026A24.033,24.033,0,0,1,42.153,53.739Z"></path><rect x="58" y="6" width="4" height="2"></rect><rect x="54" y="6" width="2" height="2"></rect><rect x="54" y="10" width="8" height="2"></rect><rect x="31" y="2" width="2" height="2"></rect><rect x="27" y="2" width="2" height="2"></rect><rect x="23" y="2" width="2" height="2"></rect><rect x="19" y="2" width="2" height="2"></rect><rect x="15" y="2" width="2" height="2"></rect><rect x="35" y="2" width="2" height="2"></rect><rect x="39" y="2" width="2" height="2"></rect><rect x="43" y="2" width="2" height="2"></rect><rect x="47" y="2" width="2" height="2"></rect><rect x="50" y="60" width="8" height="2"></rect><rect x="50" y="56" width="2" height="2"></rect><rect x="54" y="56" width="4" height="2"></rect><rect x="2" y="7" width="6" height="2"></rect><rect x="2" y="11" width="6" height="2"></rect><rect x="2" y="56" width="10" height="2"></rect><rect x="2" y="60" width="10" height="2"></rect></g></svg>