<svg xmlns="http://www.w3.org/2000/svg" viewBox="0 0 64 64" x="0px" y="0px"><g><path d="M48.305,44.683,39,42.229V39.114A13.919,13.919,0,0,0,45.675,30H46a4,4,0,0,0,.107-7.989,3,3,0,0,0,1.522-1.736l.3-.9h0A3.882,3.882,0,0,0,47,15.341V9.03a5,5,0,0,0-3.688-4.825C39.6,3.2,34.635,2,32,2c-3.436,0-8.617,1.353-11.4,2.159A5.008,5.008,0,0,0,17,8.96v6.381a3.883,3.883,0,0,0-.93,4.033l.3.9a3,3,0,0,0,1.522,1.736A4,4,0,0,0,18,30h.331A13.914,13.914,0,0,0,25,39.111v3.118l-9.3,2.454A12.989,12.989,0,0,0,6,57.25V61a1,1,0,0,0,1,1H57a1,1,0,0,0,1-1V57.25A12.989,12.989,0,0,0,48.305,44.683ZM27,40.07a13.913,13.913,0,0,0,10,0V42.63l-5,5.833L27,42.63ZM48,26a2,2,0,0,1-2,2V24A2,2,0,0,1,48,26ZM45,9.03V14.2c-1.294-.315-2.73-.645-4.191-.954l2.81-6.739A3,3,0,0,1,45,9.03ZM41.725,5.854,38.81,12.846A40.154,40.154,0,0,0,32,12a43.591,43.591,0,0,0-7.612,1L22,5.843A44.124,44.124,0,0,1,32,4,47.834,47.834,0,0,1,41.725,5.854Zm-21.578.757,2.269,6.8c-1.192.26-2.351.531-3.416.79V8.96A3,3,0,0,1,20.147,6.611Zm-2.033,10.53a1.977,1.977,0,0,1,1.278-.976C22.7,15.356,28.746,14,32,14s9.3,1.356,12.608,2.165a2,2,0,0,1,1.424,2.576l-.3.9a.986.986,0,0,1-.525.589,1.009,1.009,0,0,1-.8.021c-.685-.273-1.515-.649-2.43-1.062C38.833,17.769,34.919,16,32,16s-6.833,1.769-9.977,3.191c-.915.413-1.745.789-2.429,1.062a1.011,1.011,0,0,1-.8-.021.986.986,0,0,1-.525-.589l-.3-.9A1.98,1.98,0,0,1,18.114,17.141ZM18,28a2,2,0,0,1,0-4v4Zm2-1V22.206a2.958,2.958,0,0,0,.334-.095c.708-.282,1.567-.67,2.513-1.1C25.659,19.742,29.512,18,32,18s6.341,1.742,9.153,3.013c.946.428,1.8.816,2.513,1.1a3.029,3.029,0,0,0,.334.1V27a12,12,0,0,1-24,0Zm5.649,17.127,5.592,6.524a1,1,0,0,0,1.518,0l5.592-6.524,1.264.333L32,53.453,24.385,44.46ZM56,60H47V53H45v7H19V53H17v7H8V57.25a10.99,10.99,0,0,1,8.2-10.633l6.037-1.592,8.995,10.621a1,1,0,0,0,1.526,0l9-10.621L47.8,46.617A10.99,10.99,0,0,1,56,57.25Z"></path><path d="M32,30a3,3,0,0,0,3-3V23H33v4a1,1,0,0,1-2,0V23H29v4A3,3,0,0,0,32,30Z"></path><path d="M37.29,23.71a1.155,1.155,0,0,0,.33.21A.838.838,0,0,0,38,24a1.052,1.052,0,0,0,.71-.29,1.155,1.155,0,0,0,.21-.33A1,1,0,0,0,39,23a1.052,1.052,0,0,0-.29-.71,1.032,1.032,0,0,0-.33-.21.916.916,0,0,0-.76,0,1.032,1.032,0,0,0-.33.21A1.052,1.052,0,0,0,37,23a1,1,0,0,0,.08.38A1.155,1.155,0,0,0,37.29,23.71Z"></path><path d="M27,23a.838.838,0,0,0-.08-.38,1.155,1.155,0,0,0-.21-.33,1.047,1.047,0,0,0-1.42,0,1.155,1.155,0,0,0-.21.33A1,1,0,0,0,25,23a1,1,0,1,0,2,0Z"></path><path d="M32,35a7.892,7.892,0,0,0,5.953-2.345l-1.511-1.31A5.988,5.988,0,0,1,32,33a5.988,5.988,0,0,1-4.442-1.655l-1.511,1.31A7.892,7.892,0,0,0,32,35Z"></path></g></svg>