<svg xmlns="http://www.w3.org/2000/svg" viewBox="0 0 64 64" x="0px" y="0px"><g><path d="M33.53,39.64a10.926,10.926,0,0,0,7.87-5.37l4.41-7.65a7.954,7.954,0,0,1-1.46-.77,4.7,4.7,0,0,0-5.39,0,6.689,6.689,0,0,1-7.5,0,4.7,4.7,0,0,0-5.39,0c-.24.15-.5.31-.79.46a10.934,10.934,0,0,0-.19,8.46l.1.27,8.06,4.64ZM38,30h2v2H38ZM28,31H26V29h2Zm4,2h2v2H32Z"></path><circle cx="49" cy="40" r="1"></circle><path d="M46.84,24.84a8.968,8.968,0,0,0,.27-8.49l-.82-1.66a.98.98,0,0,1,.03-.94l1-1.74-5.2-3-1,1.74a1.018,1.018,0,0,1-.8.49l-1.86.12a8.993,8.993,0,0,0-7.21,4.48l-4.26,7.38A6.448,6.448,0,0,1,28.77,23a6.3,6.3,0,0,1,3.75,1.15,4.682,4.682,0,0,0,5.38,0,6.689,6.689,0,0,1,7.5,0,5.5,5.5,0,0,0,1.44.7Z"></path><circle cx="8" cy="33" r="1"></circle><path d="M54.55,25a4.4,4.4,0,0,0-2.7.85A6.272,6.272,0,0,1,48.1,27c-.07,0-.13-.01-.19-.01l-4.78,8.28a12.954,12.954,0,0,1-9.3,6.35l-.16.02-1.51,2.63,2.15,5.52a1,1,0,0,1-.06.86L28.279,61H52V59h2v2h8V27a8.847,8.847,0,0,1-4.15-1.1A7.08,7.08,0,0,0,54.55,25ZM50,30h4v2H50ZM37,46h2v2H37Zm9,11H38V55h8Zm4,0H48V55h2Zm0-7H44V48h6Zm-1-7a3,3,0,1,1,3-3A3,3,0,0,1,49,43Zm6,10H53V51h2Zm1-11h2v2H56Zm4,15H58V55h2ZM58,32H56V30h2Z"></path><path d="M30.24,44.88l-8.05-4.65-5.51.84-5.26,9.11,1.74,1,4-6.93,1.73,1-3.5,6.06,2.98-.35a.968.968,0,0,1,.62.12l.86.5,4.5-7.79,1.73,1-4.49,7.79.86.5a.981.981,0,0,1,.42.48l1.18,2.75,3.5-6.06,1.73,1-4,6.93,1.73,1,5.26-9.11ZM29,49H27V47h2Z"></path><rect x="44.969" y="4.478" width="3.002" height="6.003" transform="matrix(0.5, -0.866, 0.866, 0.5, 16.769, 43.994)"></rect><path d="M23.42,59.41a.959.959,0,0,1-.42-.47l-1.84-4.29-2.88-1.67-4.64.56a.974.974,0,0,1-.62-.13l-3.46-2a1,1,0,0,1-.37-1.36l6-10.4a.987.987,0,0,1,.72-.48l5.85-.9,1.52-2.63-.05-.14a12.927,12.927,0,0,1-.33-8.52c-.19.01-.37.02-.58.02a6.237,6.237,0,0,1-3.74-1.15,4.4,4.4,0,0,0-2.7-.85,4.372,4.372,0,0,0-2.69.85A6.272,6.272,0,0,1,9.44,27a8.882,8.882,0,0,1-4.15-1.1A7.039,7.039,0,0,0,2,25V43H6v2H2V61H26.171ZM14,29h6v2H14Zm-2,7h2v2H12ZM5,33a3,3,0,1,1,3,3A3,3,0,0,1,5,33Zm7,24H4V55h8Zm4,0H14V55h2Z"></path><rect x="26.716" y="35.954" width="1.998" height="8.002" transform="translate(-20.744 43.985) rotate(-60.006)"></rect><polygon points="39.66 5.28 41.38 6.28 40.39 8.01 38.66 7.01 39.66 5.28"></polygon><rect x="49.416" y="11.646" width="1.998" height="1.998" transform="translate(14.238 49.965) rotate(-59.971)"></rect></g></svg>