<svg xmlns="http://www.w3.org/2000/svg" viewBox="0 0 64 64" x="0px" y="0px"><g data-name="Wind Mill"><polygon points="33.926 4 30.074 4 30.931 16 33.069 16 33.926 4"></polygon><circle cx="32" cy="26" r="2"></circle><path d="M33,18v4.13a3.911,3.911,0,0,0-2,0V18Z"></path><path d="M29.15,28.81l-3.57,2.06-1.01-1.74,3.58-2.07A3.978,3.978,0,0,0,29.15,28.81Z"></path><path d="M39.43,29.13l-1.01,1.74-3.57-2.06a3.978,3.978,0,0,0,1-1.75Z"></path><polygon points="24 52 26.28 52 25.99 54 24 54 24 52"></polygon><polygon points="40 52 40 54 38.01 54 37.72 52 40 52"></polygon><polygon points="25 43 27.56 43 27.28 45 25 45 25 43"></polygon><polygon points="39 43 39 45 36.72 45 36.44 43 39 43"></polygon><polygon points="11.984 35.332 13.911 38.668 23.874 31.926 22.805 30.074 11.984 35.332"></polygon><polygon points="50.089 38.668 52.016 35.332 41.195 30.074 40.126 31.926 50.089 38.668"></polygon><polygon points="28.296 52 35.704 52 34.704 45 29.296 45 28.296 52"></polygon><polygon points="30.867 34 29.581 43 34.419 43 33.133 34 30.867 34"></polygon><polygon points="27.153 60 36.847 60 35.99 54 28.01 54 27.153 60"></polygon><path d="M40.539,42.979l.9,1.785a21.123,21.123,0,0,0,4.436-3l-1.322-1.5A19.114,19.114,0,0,1,40.539,42.979Z"></path><path d="M51,26a19.194,19.194,0,0,1-.388,3.842l1.959.4A21.2,21.2,0,0,0,53,26,20.9,20.9,0,0,0,38.244,5.944l-.594,1.91A18.913,18.913,0,0,1,51,26Z"></path><path d="M26.285,7.875l-.6-1.908A20.914,20.914,0,0,0,11,26h2A18.922,18.922,0,0,1,26.285,7.875Z"></path><path d="M41.893,37.275A14.989,14.989,0,0,1,39.485,39l1,1.732a17.008,17.008,0,0,0,2.729-1.957Z"></path><path d="M47,26a15.4,15.4,0,0,1-.117,1.884l1.985.248A17.248,17.248,0,0,0,49,26,16.939,16.939,0,0,0,38.394,10.243L37.641,12.1A14.944,14.944,0,0,1,47,26Z"></path><path d="M15,26h2a14.944,14.944,0,0,1,9.361-13.9l-.753-1.854A16.941,16.941,0,0,0,15,26Z"></path></g></svg>