<svg xmlns="http://www.w3.org/2000/svg" viewBox="0 0 64 64" x="0px" y="0px"><g><path d="M5,58v2h5.97a2.655,2.655,0,0,0-.45-1.23c-.16-.24-.3-.51-.44-.77Z"></path><path d="M35,19v4a2.015,2.015,0,0,0,2-2A2.006,2.006,0,0,0,35,19Z"></path><path d="M11,41.86l-1.09.34A6.964,6.964,0,0,0,5,48.88V56H9.29A8.261,8.261,0,0,1,9,54a8.794,8.794,0,0,1,2-5.38Z"></path><path d="M34.95,25a11.042,11.042,0,0,1-5.89,8.76A2.05,2.05,0,0,0,30,34a1.99,1.99,0,0,0,1.92-1.48,1.053,1.053,0,0,1,.53-.64,1.016,1.016,0,0,1,.82-.02A2,2,0,0,0,36,30a1.965,1.965,0,0,0-.63-1.45,1,1,0,0,1,.33-1.68A1.991,1.991,0,0,0,37,25a1.7,1.7,0,0,0-.08-.51A3.961,3.961,0,0,1,35,25Z"></path><path d="M12.3,26.87a1,1,0,0,1,.64.75,1.012,1.012,0,0,1-.3.93A1.938,1.938,0,0,0,12,30a2,2,0,0,0,2.73,1.86,1.016,1.016,0,0,1,.82.02,1.053,1.053,0,0,1,.53.64A1.99,1.99,0,0,0,18,34a2.05,2.05,0,0,0,.94-.24A11.042,11.042,0,0,1,13.05,25H13a3.961,3.961,0,0,1-1.92-.51A1.7,1.7,0,0,0,11,25,1.991,1.991,0,0,0,12.3,26.87Z"></path><path d="M43,48.88a6.943,6.943,0,0,0-4.91-6.67L37,41.86v6.76A8.794,8.794,0,0,1,39,54a8.261,8.261,0,0,1-.29,2H43Z"></path><path d="M5,18c0,1.51,1.53,3.03,4.23,4.29A3.96,3.96,0,0,1,13,17c0-2.75,5.7-4,11-4s11,1.25,11,4a3.96,3.96,0,0,1,3.77,5.29C41.47,21.03,43,19.51,43,18c0-3.31-7.8-7-19-7S5,14.69,5,18Z"></path><path d="M37.48,58.77A2.655,2.655,0,0,0,37.03,60H43V58H37.92C37.78,58.26,37.64,58.53,37.48,58.77Z"></path><path d="M24,9a45.827,45.827,0,0,1,9.69.99C32.59,6.57,28.63,4,24,4c-4.6,0-8.55,2.54-9.68,5.99A45.8,45.8,0,0,1,24,9Z"></path><path d="M13,23V19a2.006,2.006,0,0,0-2,2,2.015,2.015,0,0,0,2,2Z"></path><path d="M31,40v-.02l-2.19-.68a4.976,4.976,0,0,1-9.62,0L17,39.98V47H31Z"></path><path d="M34,51a1,1,0,0,0,1-1V40a1,1,0,0,0-2,0V50A1,1,0,0,0,34,51Z"></path><path d="M21,34.57V38a3,3,0,0,0,6,0V34.57a10.68,10.68,0,0,1-6,0Z"></path><path d="M36.51,51.64A3,3,0,0,1,31,50V49H17v1a3.009,3.009,0,0,1-3,3,2.968,2.968,0,0,1-2.5-1.36A6.314,6.314,0,0,0,11,54a6.723,6.723,0,0,0,1.18,3.64A4.846,4.846,0,0,1,12.97,60H35.03a4.846,4.846,0,0,1,.79-2.36A6.723,6.723,0,0,0,37,54,6.507,6.507,0,0,0,36.51,51.64Z"></path><path d="M14,51a1,1,0,0,0,1-1V40a1,1,0,0,0-2,0V50A1,1,0,0,0,14,51Z"></path><path d="M24,15c-5.85,0-8.85,1.46-9,2.01V24a9,9,0,0,0,18,0V17.01C32.83,16.45,29.83,15,24,15Zm-6,6a2,2,0,1,1,2,2A2,2,0,0,1,18,21Zm6,8a5.006,5.006,0,0,1-3.532-1.458l1.4-1.424a3.082,3.082,0,0,0,4.256,0l1.4,1.424A5.006,5.006,0,0,1,24,29Zm4-6a2,2,0,1,1,2-2A2,2,0,0,1,28,23Z"></path><path d="M52,59a1,1,0,0,0,2,0V49H52Z"></path><path d="M60,42V35.71a4.968,4.968,0,0,0-2.76-4.47L53,29.12l-4.24,2.12A4.968,4.968,0,0,0,46,35.71V42a1,1,0,0,0,1,1h5V34h2v9h5A1,1,0,0,0,60,42Z"></path><rect x="52" y="45" width="2" height="2"></rect></g></svg>