<svg xmlns="http://www.w3.org/2000/svg" viewBox="0 0 64 64" x="0px" y="0px"><g><path d="M50,2H11A2,2,0,0,0,9,4V58a2,2,0,0,0,2,2h8v1a1,1,0,0,0,1.555.832L23,60.2l2.445,1.63A1,1,0,0,0,27,61V60H50a5.006,5.006,0,0,0,5-5V7A5.006,5.006,0,0,0,50,2ZM47,17h6V31H47ZM53,7v8H47V4h3A3,3,0,0,1,53,7ZM45,4V50H43V4ZM11,50V33H41V50Zm0-33H41V31H11ZM41,4V15H11V4ZM11,58V52H50a4.948,4.948,0,0,0,3-1.026V54H15v2h4v2Zm14,1.132-1.445-.964a1,1,0,0,0-1.11,0L21,59.132V56h4ZM50,58H27V56H52.816A3,3,0,0,1,50,58Zm3-11a3,3,0,0,1-3,3H47V33h6V47Z"></path></g></svg>