<svg xmlns="http://www.w3.org/2000/svg" viewBox="0 0 64 64" x="0px" y="0px"><g><path d="M46.2,51.031a1,1,0,0,0,0-1.414L44.789,48.2a1,1,0,1,0-1.415,1.414l1.414,1.414A1,1,0,0,0,46.2,51.031Z"></path><path d="M45.15,45.73l-.3.29a3.007,3.007,0,0,0-2.89.77,2.918,2.918,0,0,0-.86,1.96,2.961,2.961,0,0,0-2.83,2.86,2.907,2.907,0,0,0-2.83,2.8,3.046,3.046,0,0,0-1.97.86,3,3,0,0,0-.76,2.89l-.3.29a.972.972,0,0,1-.71.29.951.951,0,0,1-.7-.29.993.993,0,0,1-.01-1.4.01.01,0,0,0,.01-.01l2.05-2.05.78-.77v-.01L32.41,52.8l-.77.77-2.06,2.06c-.01,0-.01,0-.01.01a1,1,0,0,1-1.4-1.43L31,51.38l-1.41-1.41L26.76,52.8a1,1,0,1,1-1.42-1.42l2.83-2.82-1.41-1.42-2.83,2.83a1,1,0,0,1-1.42-1.41l6.69-6.69a4.929,4.929,0,0,0,2.79-.81l3.61,3.61a3.075,3.075,0,0,0,4.24,0A3,3,0,0,0,40.28,41h.13Z"></path><path d="M27.172,34l-8.9,8.9,3.535,3.536,5.121-5.124a5,5,0,0,1-1.232-.886l1.414-1.414a3,3,0,0,0,4.244,0,1,1,0,0,1,1.414,0l4.243,4.242a1.021,1.021,0,0,0,1.414,0,1,1,0,0,0,0-1.414L30.586,34Z"></path><path d="M43.373,53.859a.988.988,0,0,0,.294-.707,1,1,0,0,0-.293-.707L41.96,51.031a1,1,0,0,0-1.414,1.414l1.414,1.414A1.022,1.022,0,0,0,43.373,53.859Z"></path><rect x="14.393" y="35.536" width="12" height="2" transform="translate(-19.862 25.121) rotate(-45)"></rect><rect x="44.263" y="27.121" width="6" height="16" transform="translate(-10.991 43.707) rotate(-45)"></rect><path d="M51,45.29V59a1,1,0,0,1-1,1H39.76A3.094,3.094,0,0,0,40,58.96a2.945,2.945,0,0,0,2.82-2.82,3,3,0,0,0,1.97-.87,2.944,2.944,0,0,0,.86-1.96,2.988,2.988,0,0,0,1.97-5.11l-1.06-1.05,2.82-2.84.71.71a.982.982,0,0,0,.71.29A1.355,1.355,0,0,0,51,45.29Z"></path><rect x="42.021" y="33.364" width="1.999" height="12" transform="translate(-15.234 41.947) rotate(-44.997)"></rect><path d="M36.3,56.688A1,1,0,0,0,34.889,58.1L36.3,59.517a1.022,1.022,0,0,0,1.414,0,1,1,0,0,0,.293-.707.987.987,0,0,0-.293-.706Z"></path><path d="M40.546,56.688a1,1,0,0,0,0-1.415l-1.414-1.414a1,1,0,0,0-.707-.293.987.987,0,0,0-.706.293,1,1,0,0,0,0,1.415l1.414,1.414A1,1,0,0,0,40.546,56.688Z"></path><path d="M29.58,59.87c.05.04.09.09.14.13H14a1,1,0,0,1-1-1V41.72a.866.866,0,0,0,.32.06,1.024,1.024,0,0,0,.71-.29l6.49,6.49a2.982,2.982,0,0,0,2.55,4.27,2.906,2.906,0,0,0,.86,1.96,2.967,2.967,0,0,0,1.97.87,2.945,2.945,0,0,0,2.82,2.82A3.025,3.025,0,0,0,29.58,59.87Z"></path><rect x="9.151" y="29.293" width="14" height="6" transform="translate(-18.104 20.879) rotate(-45)"></rect><path d="M45,12h4.732L44,5.615V11A1,1,0,0,0,45,12Z"></path><path d="M45,14a3.009,3.009,0,0,1-3-3V4H14a1,1,0,0,0-1,1V28.37l5.27-5.27a1.014,1.014,0,0,1,1.42,0l5.65,5.66a1,1,0,0,1,0,1.41L27.17,32H31a1.033,1.033,0,0,1,.71.29l2.92,2.92,1.53-.3L38.07,33l-.71-.71a1,1,0,0,1,0-1.41l5.66-5.66a1.034,1.034,0,0,1,1.41,0L51,31.79V14ZM21,8h8v2H21ZM17,8h2v2H17Zm0,4H29v2H17Zm4,8H17V18h4Zm19,6H25V24H40Zm7-6H23V18H47Z"></path></g></svg>