<svg xmlns="http://www.w3.org/2000/svg" viewBox="0 0 64 64" x="0px" y="0px"><g data-name="Smartphone-Mobile Phone-Laptop-Wifi-Internet"><path d="M20,37a3,3,0,0,0-3-3H7a3,3,0,0,0-3,3V57a3,3,0,0,0,3,3H17a3,3,0,0,0,3-3ZM10,36h4v2H10ZM6,38V36H8v2Zm8,20H10V56h4Zm3-6H7V50H17Zm0-4H7V46H17Zm0-4H7V42H17Z"></path><path d="M60,37a3,3,0,0,0-3-3H47a3,3,0,0,0-3,3V57a3,3,0,0,0,3,3H57a3,3,0,0,0,3-3ZM50,36h4v2H50Zm-4,2V36h2v2Zm8,20H50V56h4Zm3-6H47V50H57Zm0-4H47V46H57Zm0-4H47V42H57Z"></path><rect x="24" y="46" width="4" height="2"></rect><rect x="30" y="46" width="2" height="2"></rect><rect x="34" y="46" width="2" height="2"></rect><rect x="38" y="46" width="2" height="2"></rect><rect x="24" y="50" width="2" height="2"></rect><rect x="28" y="50" width="2" height="2"></rect><rect x="32" y="50" width="2" height="2"></rect><rect x="36" y="50" width="4" height="2"></rect><path d="M19,20H45V5a1,1,0,0,0-1-1H20a1,1,0,0,0-1,1Zm22-7H34V11h7ZM27,7H41V9H27Zm5,4v2H30V11ZM23,7h2V9H23Zm0,4h5v2H23Zm0,4H41v2H23Z"></path><path d="M17,23a1,1,0,0,0,1,1H46a1,1,0,0,0,1-1V22H17Z"></path><rect x="31" y="38" width="2" height="2"></rect><path d="M35.536,35.464a5.008,5.008,0,0,0-7.072,0l1.414,1.414a3.006,3.006,0,0,1,4.244,0Z"></path><path d="M38.364,32.636a9,9,0,0,0-12.728,0L27.05,34.05a7,7,0,0,1,9.9,0Z"></path></g></svg>