<svg xmlns="http://www.w3.org/2000/svg" viewBox="0 0 32 32" x="0px" y="0px"><g data-name="Smartphone-Upload"><path d="M23,3a1,1,0,0,0-1-1H10A1,1,0,0,0,9,3V4H23Z"></path><path d="M9,6V24h8a3.532,3.532,0,0,1,.05-.56,3.121,3.121,0,0,1,.91-1.64l3.45-3.46a1.008,1.008,0,0,1,1.42,0l.17.17V6Zm4,10H11V14h2Zm4,0H15V14h2Zm4,0H19V14h2Z"></path><path d="M21.41,29.66l-3.53-3.54a1.2,1.2,0,0,1-.11-.12H9v3a1,1,0,0,0,1,1H22a1.043,1.043,0,0,0,.43-.1A.994.994,0,0,1,21.41,29.66ZM17,29H15V27h2Z"></path><path d="M29,23H22.414l1.121-1.122-1.414-1.414-2.828,2.829a1,1,0,0,0,0,1.414l2.828,2.829,1.414-1.414L22.414,25H29Z"></path></g></svg>