<svg xmlns="http://www.w3.org/2000/svg" viewBox="0 0 64 64" x="0px" y="0px"><g data-name="Bomb"><rect x="19" y="23" width="2" height="2"></rect><rect x="19" y="39" width="2" height="2"></rect><rect x="19" y="27" width="2" height="10"></rect><path d="M19,53H45V43H43v1a3,3,0,0,1-3,3H24a3,3,0,0,1-3-3V43H19Z"></path><path d="M56,11H51V21h5a1,1,0,0,0,1-1V12A1,1,0,0,0,56,11Z"></path><path d="M37,33H27v8H37Zm-2,7H29V38h6Zm0-4H29V34h6Z"></path><path d="M56,37a1,1,0,0,0,1-1V28a1,1,0,0,0-1-1H51V37Z"></path><path d="M57,52V44a1,1,0,0,0-1-1H51V53h5A1,1,0,0,0,57,52Z"></path><rect x="47" y="7.999" width="2" height="48.001"></rect><rect x="43" y="23" width="2" height="2"></rect><rect x="43" y="27" width="2" height="10"></rect><rect x="43" y="39" width="2" height="2"></rect><path d="M45,11H19V21h2V20a3,3,0,0,1,3-3H40a3,3,0,0,1,3,3v1h2Z"></path><path d="M7,36a1,1,0,0,0,1,1h5V27H8a1,1,0,0,0-1,1Z"></path><path d="M8,53h5V43H8a1,1,0,0,0-1,1v8A1,1,0,0,0,8,53Z"></path><path d="M7,12v8a1,1,0,0,0,1,1h5V11H8A1,1,0,0,0,7,12Z"></path><rect x="15" y="7.999" width="2" height="48.001"></rect><path d="M40,45a1,1,0,0,0,1-1V20a1,1,0,0,0-1-1H24a1,1,0,0,0-1,1V44a1,1,0,0,0,1,1ZM36,24v2H34V24Zm-3,0v2H31V24Zm-3,0v2H28V24Zm-5,8a1,1,0,0,1,1-1H38a1,1,0,0,1,1,1V42a1,1,0,0,1-1,1H26a1,1,0,0,1-1-1Z"></path></g></svg>