<svg xmlns="http://www.w3.org/2000/svg" viewBox="0 0 64 64" x="0px" y="0px"><g data-name="Hand wash"><rect x="28" y="4" width="8" height="2"></rect><rect x="31" y="8" width="2" height="2"></rect><path d="M19,31H45V23a3,3,0,0,0-3-3H22a3,3,0,0,0-3,3Z"></path><rect x="29" y="12" width="6" height="2"></rect><polygon points="25.281 18 38.719 18 38.219 16 25.781 16 25.281 18"></polygon><rect x="19" y="49" width="26.001" height="11"></rect><rect x="19" y="33" width="26" height="14"></rect><path d="M43.293,8.707,40.586,6H38V4h3a1,1,0,0,1,.707.293l3,3Z"></path></g></svg>