<svg xmlns="http://www.w3.org/2000/svg" viewBox="0 0 64 64" x="0px" y="0px"><path d="M11,22.13v7.74a4,4,0,0,0,0-7.74Z"></path><path d="M8,26a1,1,0,0,0,1,1V25A1,1,0,0,0,8,26Z"></path><circle cx="29" cy="14" r="2"></circle><path d="M26,30V27a3.01,3.01,0,0,1,2-2.82V22.27L23.54,30Z"></path><path d="M16.59,29.91l3.13-5.41h-.01L21.16,22H17a1,1,0,0,0-1,1v6A.993.993,0,0,0,16.59,29.91Z"></path><path d="M40,31a5,5,0,0,0-5-5H29a1,1,0,0,0-1,1v5H39A1,1,0,0,0,40,31Z"></path><path d="M37,14H33a3.906,3.906,0,0,1-.56,2H37a.928.928,0,0,0,.69-.29A.949.949,0,0,0,38,15,1,1,0,0,0,37,14Z"></path><path d="M52,36a8.085,8.085,0,0,0-3.11.64L51,38.76V38h2v2.14a4.166,4.166,0,0,1,1.02.43l1.52-1.52,1.41,1.41-1.52,1.52A4.166,4.166,0,0,1,55.86,43H58v2H55.86a4.166,4.166,0,0,1-.43,1.02l1.52,1.52-1.41,1.41-1.52-1.52a4.166,4.166,0,0,1-1.02.43V50H51V47.86a4.166,4.166,0,0,1-1.02-.43l-1.52,1.52-1.41-1.41,1.52-1.52A4.166,4.166,0,0,1,48.14,45H46V43h.76l-2.12-2.11A7.994,7.994,0,1,0,52,36Z"></path><path d="M18.3,39.08,16.03,43H18v2H15.86a4.166,4.166,0,0,1-.43,1.02l1.52,1.52-1.41,1.41-1.52-1.52a4.166,4.166,0,0,1-1.02.43V50H11V47.86a4.166,4.166,0,0,1-1.02-.43L8.46,48.95,7.05,47.54l1.52-1.52A4.166,4.166,0,0,1,8.14,45H6V43H8.14a4.166,4.166,0,0,1,.43-1.02L7.05,40.46l1.41-1.41,1.52,1.52a3.683,3.683,0,0,1,.63-.31l2.42-4.19A8.761,8.761,0,0,0,12,36a8.016,8.016,0,1,0,6.3,3.08Z"></path><path d="M43.04,33H41.22A2.986,2.986,0,0,1,39,34H30v2h1.79a1.962,1.962,0,0,1,1.13.35l2.22,1.53A2,2,0,0,1,36,39.53V40h1.43l2.8-4.66Z"></path><circle cx="52" cy="44" r="2"></circle><path d="M42,31h8V29H41.71A7.268,7.268,0,0,1,42,31Z"></path><path d="M12.99,40.14a3.925,3.925,0,0,1,1.8,1.01L28.2,17.92a3.991,3.991,0,0,1-1.83-.93Z"></path><path d="M49.98,40.57,44.12,34.7l-1.55,1.29,6,5.99A3.969,3.969,0,0,1,49.98,40.57Z"></path><path d="M34,42.46V39.53L31.79,38H26v6h5.7ZM28,40h4v2H28Z"></path><polygon points="52 31 56.46 31 59.13 27 52 27 52 31"></polygon><circle cx="12" cy="44" r="2"></circle><polygon points="20 18 20 20 22.32 20 22.64 19.44 21.6 18 20 18"></polygon></svg>