<svg xmlns="http://www.w3.org/2000/svg" viewBox="0 0 64 64" x="0px" y="0px"><g data-name="Speech Bubble"><path d="M19,22a1,1,0,0,1,.8.4L24,28V23a1,1,0,0,1,1-1h5V4H4V22Zm7-8H24V12h2ZM16,8H26v2H16Zm6,4v2H20V12ZM12,8h2v2H12ZM8,8h2v2H8Zm0,4H18v2H8Zm0,4H26v2H8Z"></path><path d="M49.293,31.293A1,1,0,0,1,50,31H60V15H38V31h6a1,1,0,0,1,1,1v3.586ZM58,24H56V22h2ZM48,18H58v2H48Zm6,4v2H52V22ZM44,18h2v2H44Zm-4,0h2v2H40Zm0,4H50v2H40Zm0,6V26H58v2Z"></path><path d="M20.707,43.707A1,1,0,0,1,20,44H6V60H32V44H26a1,1,0,0,1-1-1V39.414ZM10,51H20v2H10Zm2,6H10V55h2Zm4,0H14V55h2Zm12,0H18V55H28Zm-6-4V51h2v2Zm6,0H26V51h2Zm0-6v2H10V47Z"></path></g></svg>