<svg xmlns="http://www.w3.org/2000/svg" viewBox="0 0 64 64" x="0px" y="0px"><g><path d="M25.32,46.87c-.06.012-.12.02-.181.031a6.939,6.939,0,0,1-2.269,0c-.068-.011-.135-.021-.2-.034a7.029,7.029,0,0,1-1.066-.3c-.059-.022-.117-.049-.176-.073-.142-.057-.286-.108-.425-.175V52h6V46.324c-.146.07-.3.125-.447.184-.047.019-.094.041-.142.058A6.747,6.747,0,0,1,25.32,46.87Z"></path><rect x="7" y="54" width="34" height="6"></rect><path d="M20.465,43.531c.059.06.117.11.174.159a4.966,4.966,0,0,0,6.691.028c.088-.077.146-.127.2-.185a4.771,4.771,0,0,0,1.287-2.228l0-.016a5,5,0,0,0-1.292-4.822,4.913,4.913,0,0,0-.684-.559c-.059-.041-.12-.082-.181-.12a4.9,4.9,0,0,0-.767-.407h0a5.023,5.023,0,0,0-.833-.25c-.064-.015-.129-.028-.194-.039a4.739,4.739,0,0,0-2.161.085,4.793,4.793,0,0,0-2.24,1.287,4.983,4.983,0,0,0-.006,7.068Z"></path><rect x="42.505" y="6.492" width="4.004" height="26.002" transform="translate(-0.747 37.181) rotate(-45.001)"></rect><path d="M29.656,15.958,26.117,19.5a12.93,12.93,0,0,0-3.042,13.569h.008c.1-.013.191-.013.287-.022.189-.017.376-.034.564-.035.131,0,.259.009.389.015.155.008.31.015.464.032.133.015.265.039.4.062.15.026.3.054.446.089.129.031.256.067.383.1.15.045.3.1.444.151.119.045.238.09.354.142.153.067.3.142.45.22.105.055.21.108.312.168.163.1.318.2.474.315.08.057.163.108.241.169a6.759,6.759,0,0,1,.659.576,6.867,6.867,0,0,1,.576.658c.06.077.11.159.166.238.112.157.221.315.319.479.058.1.108.2.161.3.082.154.16.309.23.469.047.108.09.217.131.327.061.159.115.32.164.484.033.112.065.225.093.339.041.168.073.338.1.509.018.111.039.222.052.335.021.184.031.369.038.555,0,.1.013.2.012.3a7.167,7.167,0,0,1-.045.716c-.005.049-.005.1-.011.146v.017A12.941,12.941,0,0,0,44.5,37.883l3.539-3.54Z"></path><rect x="39.971" y="10.029" width="2" height="26" transform="translate(-4.284 35.716) rotate(-45)"></rect><rect x="47.577" y="11.423" width="8" height="2" transform="translate(6.32 40.105) rotate(-44.995)"></rect><rect x="53.818" y="17.787" width="8.246" height="2" transform="translate(-1.408 32.492) rotate(-30.968)"></rect><rect x="41.09" y="5.059" width="8.246" height="2" transform="matrix(0.515, -0.857, 0.857, 0.515, 16.75, 41.707)"></rect></g></svg>