<svg xmlns="http://www.w3.org/2000/svg" viewBox="0 0 64 64" x="0px" y="0px"><g><path d="M19,10a1,1,0,0,0-1,1V23a1,1,0,0,0,1,1h5v7a1,1,0,0,0,1,1H39a1,1,0,0,0,1-1V24h5a1,1,0,0,0,1-1V11a1,1,0,0,0-1-1H40V3a1,1,0,0,0-1-1H25a1,1,0,0,0-1,1v7Zm7,20V20H38V30Zm18-8H40V20h2V18H22v2h2v2H20V12H44ZM26,4H38v6H26Z"></path><rect x="28" y="26" width="8" height="2"></rect><rect x="28" y="22" width="8" height="2"></rect><rect x="38" y="14" width="2" height="2"></rect><rect x="34" y="14" width="2" height="2"></rect><path d="M55.707,56.293l-6-6A1,1,0,0,0,49,50H19V48a3,3,0,0,0-3-3H10a1,1,0,0,1,0-2h6a3,3,0,0,0,3-3V38h7v4H22a1,1,0,0,0-1,1v4a1,1,0,0,0,1,1H42a1,1,0,0,0,1-1V43a1,1,0,0,0-1-1H38V38H52a3,3,0,0,0,3-3V9a3,3,0,0,0-3-3H42V8H52a1,1,0,0,1,1,1V30H42v2H53v3a1,1,0,0,1-1,1H12a1,1,0,0,1-1-1V32H22V30H11V9a1,1,0,0,1,1-1H22V6H12A3,3,0,0,0,9,9V35a3,3,0,0,0,3,3h5v2a1,1,0,0,1-1,1H10a3,3,0,0,0,0,6h6a1,1,0,0,1,1,1v2H15a1,1,0,0,0-.707.293l-6,6A1,1,0,0,0,8,57v3a2,2,0,0,0,2,2H54a2,2,0,0,0,2-2V57A1,1,0,0,0,55.707,56.293ZM41,46H23V44H41Zm-5-4H28V38h8ZM15.414,52H48.586l4,4H11.414ZM10,60V58H54v2Z"></path><rect x="16" y="53" width="2" height="2"></rect><rect x="20" y="53" width="2" height="2"></rect><rect x="42" y="53" width="2" height="2"></rect><rect x="24" y="53" width="16" height="2"></rect><rect x="46" y="53" width="2" height="2"></rect><rect x="47" y="33" width="2" height="2"></rect></g></svg>