<svg xmlns="http://www.w3.org/2000/svg" viewBox="0 0 64 64" x="0px" y="0px"><g data-name="Type File"><rect x="12" y="57" width="28" height="2"></rect><path d="M44,57H42v2h3a1,1,0,0,0,1-1V54H44Z"></path><rect x="6" y="57" width="4" height="2"></rect><rect x="7" y="53" width="2" height="2"></rect><rect x="11" y="53" width="2" height="2"></rect><rect x="15" y="53" width="2" height="2"></rect><rect x="19" y="53" width="2" height="2"></rect><rect x="23" y="53" width="2" height="2"></rect><rect x="27" y="53" width="2" height="2"></rect><rect x="31" y="53" width="2" height="2"></rect><rect x="35" y="53" width="2" height="2"></rect><rect x="39" y="53" width="2" height="2"></rect><rect x="7" y="49" width="2" height="2"></rect><rect x="11" y="49" width="2" height="2"></rect><rect x="15" y="49" width="2" height="2"></rect><rect x="19" y="49" width="2" height="2"></rect><rect x="23" y="49" width="2" height="2"></rect><rect x="27" y="49" width="2" height="2"></rect><rect x="31" y="49" width="2" height="2"></rect><rect x="35" y="49" width="2" height="2"></rect><rect x="39" y="49" width="2" height="2"></rect><path d="M56,40H36a3,3,0,0,1-3-3V34H44a2,2,0,0,0,2-2V16h9a3,3,0,0,0,3-3V7a1,1,0,0,0-1-1H52V5a3,3,0,0,0-3-3H19a3,3,0,0,0-3,3V32a2,2,0,0,0,2,2H31v3a5.006,5.006,0,0,0,5,5H56a3,3,0,0,1,3,3v2a3,3,0,0,1-3,3H53V49a1,1,0,0,0-1-1H50a3,3,0,0,0-3-3H5a3,3,0,0,0-3,3V59a3,3,0,0,0,3,3H47a3,3,0,0,0,3-3V54h2a1,1,0,0,0,1-1V52h3a5.006,5.006,0,0,0,5-5V45A5.006,5.006,0,0,0,56,40Zm0-27a1,1,0,0,1-1,1H53a1,1,0,0,1-1-1V8h4ZM49,4a1,1,0,0,1,1,1v8a2.966,2.966,0,0,0,.184,1H46V5a1,1,0,0,1,1-1ZM18,5a1,1,0,0,1,1-1H44.184A2.966,2.966,0,0,0,44,5V32H18ZM48,59a1,1,0,0,1-1,1H5a1,1,0,0,1-1-1V48a1,1,0,0,1,1-1H47a1,1,0,0,1,1,1Zm3-7H50V50h1Z"></path><rect x="22" y="9" width="4" height="2"></rect><rect x="28" y="9" width="12" height="2"></rect><rect x="22" y="13" width="10" height="2"></rect><rect x="34" y="13" width="6" height="2"></rect><rect x="22" y="17" width="6" height="2"></rect><rect x="30" y="17" width="10" height="2"></rect><rect x="22" y="21" width="18" height="2"></rect><rect x="22" y="25" width="8" height="2"></rect><rect x="32" y="25" width="8" height="2"></rect></g></svg>