<svg xmlns="http://www.w3.org/2000/svg" viewBox="0 0 64 64" x="0px" y="0px"><g><path d="M14,27a9,9,0,0,0,18,0V20H14Zm13-5a2,2,0,1,1-2,2A2,2,0,0,1,27,22Zm-2.016,7.25,1.323,1.5a5,5,0,0,1-6.614,0l1.323-1.5A3.076,3.076,0,0,0,24.984,29.25ZM19,22a2,2,0,1,1-2,2A2,2,0,0,1,19,22Z"></path><rect x="26" y="56" width="8" height="4"></rect><rect x="26" y="52" width="8" height="2"></rect><rect x="22" y="41" width="2" height="19"></rect><rect x="4" y="56" width="6" height="4"></rect><path d="M26,37.57a10.68,10.68,0,0,1-6,0V39h6Z"></path><rect x="4" y="52" width="6" height="2"></rect><circle cx="23" cy="15" r="3"></circle><path d="M33.95,28a11.015,11.015,0,0,1-5.88,8.75,2.052,2.052,0,0,0,2.41-.41,1.9,1.9,0,0,0,.44-.81.987.987,0,0,1,.52-.64,1.043,1.043,0,0,1,.83-.04A1.835,1.835,0,0,0,33,35a2.006,2.006,0,0,0,2-2,1.965,1.965,0,0,0-.63-1.45,1,1,0,0,1,.33-1.68A1.991,1.991,0,0,0,36,28a1.7,1.7,0,0,0-.08-.51A3.961,3.961,0,0,1,34,28Z"></path><path d="M26,6.23v4.8A5.013,5.013,0,0,1,27.9,14h5.05A9.025,9.025,0,0,0,26,6.23Z"></path><path d="M22,10.1a5.05,5.05,0,0,1,2,0V5.05A1.015,1.015,0,0,0,23,4a1,1,0,0,0-1,1Z"></path><path d="M26.97,18H39V16H27.9A4.84,4.84,0,0,1,26.97,18Z"></path><path d="M34,20a4,4,0,0,1,4,4,3.944,3.944,0,0,1-.55,1.99A4.045,4.045,0,0,1,38,28a3.987,3.987,0,0,1-1.48,3.1,3.981,3.981,0,0,1-.89,4.9h4.14a1,1,0,0,0,.74-.33,1.012,1.012,0,0,0,.25-.78L39.1,20Z"></path><path d="M34,22v4a2.015,2.015,0,0,0,2-2A2.006,2.006,0,0,0,34,22Z"></path><path d="M5.24,34.89a1.012,1.012,0,0,0,.25.78,1,1,0,0,0,.74.33h4.14a3.981,3.981,0,0,1-.89-4.9A3.987,3.987,0,0,1,8,28a4.045,4.045,0,0,1,.55-2.01A3.944,3.944,0,0,1,8,24a4,4,0,0,1,4-4H6.9Z"></path><path d="M10,43.86l-1.09.34A6.958,6.958,0,0,0,4.07,50H10Z"></path><path d="M7,18H19.03a4.84,4.84,0,0,1-.93-2H7Z"></path><path d="M13.05,14H18.1A5.013,5.013,0,0,1,20,11.03V6.23A8.956,8.956,0,0,0,13.05,14Z"></path><path d="M36,43.86V50h5.93a6.958,6.958,0,0,0-4.84-5.8Z"></path><rect x="36" y="52" width="6" height="2"></rect><rect x="36" y="56" width="6" height="4"></rect><polygon points="26 41 26 50 34 50 34 43.24 26.85 41 26 41"></polygon><path d="M12,26V22a2.006,2.006,0,0,0-2,2,2.015,2.015,0,0,0,2,2Z"></path><path d="M11.3,29.87a1,1,0,0,1,.33,1.68A1.965,1.965,0,0,0,11,33a2.006,2.006,0,0,0,2,2,1.835,1.835,0,0,0,.73-.15,1.043,1.043,0,0,1,.83.04.987.987,0,0,1,.52.64,1.89,1.89,0,0,0,.43.8,2.027,2.027,0,0,0,2.42.42A11.015,11.015,0,0,1,12.05,28H12a3.961,3.961,0,0,1-1.92-.51A1.7,1.7,0,0,0,10,28,1.991,1.991,0,0,0,11.3,29.87Z"></path><rect x="12" y="52" width="8" height="2"></rect><rect x="12" y="56" width="8" height="4"></rect><polygon points="20 41 19.15 41 12 43.24 12 50 20 50 20 41"></polygon><path d="M59.27,46.94A20.014,20.014,0,0,0,60,42a20.014,20.014,0,0,0-.73-4.94l-1.9.15A20.863,20.863,0,0,1,58,42a20.863,20.863,0,0,1-.63,4.79Z"></path><path d="M56,42a19.52,19.52,0,0,0-.65-4.64L48,37.93v8.14l7.35.57A19.52,19.52,0,0,0,56,42Z"></path><polygon points="53 60 53 48.46 51 48.31 51 60 53 60"></polygon><polygon points="51 34 51 35.69 53 35.54 53 34 51 34"></polygon></g></svg>