<svg xmlns="http://www.w3.org/2000/svg" viewBox="0 0 64 64" x="0px" y="0px"><g data-name="Online Shopping-Checklist-Smartphone-Basket-Ecommerce"><rect x="15" y="56" width="2" height="2"></rect><path d="M11,41a4.992,4.992,0,0,0,4.167-7.753l1.54-1.54-1.414-1.414-1.54,1.54A5,5,0,1,0,11,41Zm0-8a2.951,2.951,0,0,1,1.285.3L9.293,36.293l1.414,1.414L13.7,34.715A2.951,2.951,0,0,1,14,36a3,3,0,1,1-3-3Z"></path><rect x="18" y="39" width="8" height="2"></rect><rect x="18" y="35" width="8" height="2"></rect><rect x="6" y="43" width="4" height="2"></rect><rect x="12" y="43" width="14" height="2"></rect><rect x="6" y="47" width="4" height="2"></rect><rect x="12" y="47" width="14" height="2"></rect><rect x="44" y="44" width="2" height="8"></rect><rect x="45.469" y="47" width="8.062" height="2" transform="translate(-4.269 91.164) rotate(-82.875)"></rect><rect x="39.5" y="43.969" width="2" height="8.062" transform="translate(-5.641 5.394) rotate(-7.125)"></rect><path d="M61.71,12.29l-10-10A1.033,1.033,0,0,0,51,2H21a5,5,0,0,0-5,5V20H7a5,5,0,0,0-5,5V57a5,5,0,0,0,5,5H57a5,5,0,0,0,5-5V13A1.033,1.033,0,0,0,61.71,12.29ZM52,5.41,58.59,12H53a1,1,0,0,1-1-1ZM28,57a3.009,3.009,0,0,1-3,3H7a3.009,3.009,0,0,1-3-3V54H28Zm0-5H4V28H28Zm0-26H4V25a3.009,3.009,0,0,1,3-3H25a3.009,3.009,0,0,1,3,3ZM60,57a3.009,3.009,0,0,1-3,3H28.97A4.924,4.924,0,0,0,30,57V48.36a3.047,3.047,0,0,0,1.93.71,3,3,0,0,0,2.09-.85l.74,5.21A3,3,0,0,0,37.73,56H52.27a3,3,0,0,0,2.97-2.58l.74-5.2a3,3,0,0,0,2.09.85A3.047,3.047,0,0,0,60,48.36ZM35.57,41.02a3.969,3.969,0,0,0,1.41,1.41l-4.35,4.35a1,1,0,0,1-1.41.01.99.99,0,0,1,0-1.42ZM33,40V38h2.14a3.57,3.57,0,0,0-.11.74L33.76,40Zm6.26,2.97A3.971,3.971,0,0,0,41.62,42h6.76a3.971,3.971,0,0,0,2.36.97l3.47,3.48-.95,6.68a1,1,0,0,1-.99.87H37.73a1,1,0,0,1-.99-.86l-.95-6.69ZM37,39a2,2,0,1,1,2,2A2.006,2.006,0,0,1,37,39Zm5.86-1h4.28a3.641,3.641,0,0,0,0,2H42.86a3.641,3.641,0,0,0,0-2ZM49,39a2,2,0,1,1,2,2A2.006,2.006,0,0,1,49,39Zm9.78,6.37a.987.987,0,0,1,.01,1.41,1.008,1.008,0,0,1-1.42,0l-4.35-4.35a3.969,3.969,0,0,0,1.41-1.41ZM54.86,38H57v2h-.76l-1.27-1.26A3.57,3.57,0,0,0,54.86,38ZM60,43.76l-2.02-2.03A1.99,1.99,0,0,0,59,40V38a2.006,2.006,0,0,0-2-2H53.62a3.932,3.932,0,0,0-5.24,0H41.62a3.932,3.932,0,0,0-5.24,0H33a2.006,2.006,0,0,0-2,2v2a1.99,1.99,0,0,0,1.02,1.73L30,43.76V25a5,5,0,0,0-5-5H18V7a3.009,3.009,0,0,1,3-3H50v7a3.009,3.009,0,0,0,3,3h7Z"></path><path d="M48,21H46v8a1,1,0,0,0,.649.937L45,31.586l-1.649-1.649A1,1,0,0,0,44,29V21H42v7H41a1,1,0,0,0-.707,1.707l4,4a1,1,0,0,0,1.414,0l4-4A1,1,0,0,0,49,28H48Z"></path><path d="M33,17H31a1,1,0,0,1-1-1H28a3,3,0,0,0,3,3v1h2V19a3,3,0,0,0,0-6H31a1,1,0,0,1,0-2h2a1,1,0,0,1,1,1h2a3,3,0,0,0-3-3V8H31V9a3,3,0,0,0,0,6h2a1,1,0,0,1,0,2Z"></path><rect x="38" y="16" width="10" height="2"></rect><rect x="38" y="12" width="2" height="2"></rect><rect x="42" y="12" width="6" height="2"></rect></g></svg>