<svg xmlns="http://www.w3.org/2000/svg" viewBox="0 0 64 64" x="0px" y="0px"><g data-name="Chair"><polygon points="21.117 60 22.867 46 21 46 21 60 21.117 60"></polygon><polygon points="36 56 36 46 35.086 46 35.92 56 36 56"></polygon><polygon points="28.08 56 28.914 46 28 46 28 56 28.08 56"></polygon><polygon points="43 60 43 46 41.133 46 42.883 60 43 60"></polygon><rect x="19" y="42" width="26" height="2"></rect><ellipse cx="32" cy="17" rx="7" ry="9"></ellipse><path d="M38,32V30.293A11.55,11.55,0,0,1,32,32Z"></path><path d="M19,40H45V37a3,3,0,0,0-3-3H22a3,3,0,0,0-3,3Z"></path><path d="M26,32h6a11.55,11.55,0,0,1-6-1.707Z"></path><path d="M32,30c6.065,0,11-5.832,11-13S38.065,4,32,4,21,9.832,21,17,25.935,30,32,30ZM32,6c4.963,0,9,4.935,9,11s-4.037,11-9,11-9-4.935-9-11S27.037,6,32,6Z"></path></g></svg>