<svg xmlns="http://www.w3.org/2000/svg" viewBox="0 0 64 64" x="0px" y="0px"><g><path d="M51,2H13A5,5,0,0,0,8,7V57a5,5,0,0,0,5,5H51a5,5,0,0,0,5-5V7A5,5,0,0,0,51,2Zm3,55a3.009,3.009,0,0,1-3,3H13a3.009,3.009,0,0,1-3-3V50H54Zm0-9H10V12h8v9a.987.987,0,0,0,.62.92,1,1,0,0,0,1.09-.21L22,19.41l2.29,2.3A1.007,1.007,0,0,0,25,22a.838.838,0,0,0,.38-.08A.987.987,0,0,0,26,21V12H54ZM20,18.59V12h4v6.59l-1.29-1.3a1.014,1.014,0,0,0-1.42,0ZM54,10H10V7a3.009,3.009,0,0,1,3-3H51a3.009,3.009,0,0,1,3,3Z"></path><rect x="28" y="24" width="18" height="2"></rect><rect x="28" y="20" width="14" height="2"></rect><rect x="44" y="20" width="2" height="2"></rect><rect x="28" y="16" width="2" height="2"></rect><rect x="32" y="16" width="14" height="2"></rect><rect x="22" y="30" width="24" height="2"></rect><rect x="18" y="34" width="24" height="2"></rect><rect x="44" y="34" width="2" height="2"></rect><rect x="18" y="38" width="28" height="2"></rect><rect x="18" y="42" width="28" height="2"></rect><rect x="18" y="30" width="2" height="2"></rect><path d="M34,52H30a3,3,0,0,0,0,6h4a3,3,0,0,0,0-6Zm0,4H30a1,1,0,0,1,0-2h4a1,1,0,0,1,0,2Z"></path></g></svg>