<svg xmlns="http://www.w3.org/2000/svg" viewBox="0 0 64 64" x="0px" y="0px"><path d="M62,41a4,4,0,0,0-3-3.858V33a2.995,2.995,0,0,0-5.9-.715L43.807,36h-4.4a5.285,5.285,0,0,0-.025-.674l-2.989-22.07A13.039,13.039,0,0,0,23.51,2H22.49A13.039,13.039,0,0,0,9.608,13.256L6.619,35.325a5.008,5.008,0,0,0,1.441,4.2A10.933,10.933,0,0,0,2,49.35V61a1,1,0,0,0,1,1H43a1,1,0,0,0,1-1V58h1a1,1,0,0,0,1-1V46.877l7.1,2.838A2.995,2.995,0,0,0,59,49V44.858A4,4,0,0,0,62,41ZM45,37.677l8-3.2V47.523l-8-3.2ZM41,38h2v6H41ZM38,49.38a7.577,7.577,0,0,0-1.447-2.192A6.952,6.952,0,0,1,34.6,43.01l-.268-2.67.663.207V43a3,3,0,0,0,3,3ZM35.034,59.494a5.2,5.2,0,0,0-.476.506H11.443a5.456,5.456,0,0,0-.476-.506A8.1,8.1,0,0,1,9,54a8.268,8.268,0,0,1,1.873-5.409,8.963,8.963,0,0,0,2.512-5.38l.354-3.517,2.28-.714,1,5.208a1,1,0,0,0,1.5.669L23,42.166l4.485,2.691a1,1,0,0,0,1.5-.669l1-5.209,2.28.712.354,3.519a8.966,8.966,0,0,0,2.515,5.384A8.268,8.268,0,0,1,37,54,8.1,8.1,0,0,1,35.034,59.494ZM27.28,38.135l.78.243-.773,4.028-2.674-1.6ZM23,32a9.01,9.01,0,0,1-9-9V17h4.515a6.955,6.955,0,0,0,4.95-2.051l1.427-1.427.508.677A7.033,7.033,0,0,0,31,17h1v6A9.01,9.01,0,0,1,23,32Zm0,2a10.928,10.928,0,0,0,3-.427v3.013l-3,3-3-3V33.573A10.928,10.928,0,0,0,23,34Zm-4.279,4.135L21.387,40.8l-2.674,1.6-.772-4.027ZM39,44H38a1,1,0,0,1-1-1V39a1,1,0,0,1,1-1h1Zm-1.583-7.941a3,3,0,0,0-2.364,2.413L33.6,38.017A3.976,3.976,0,0,0,35,35H33a2,2,0,0,1-2,2h-.65L28,36.265V32.786A11,11,0,0,0,34,23V22a2.963,2.963,0,0,0,1.5-.418l1.9,14.007A3.253,3.253,0,0,1,37.417,36.059ZM34,18a1,1,0,0,1,0,2ZM22.49,4h1.02a11.03,11.03,0,0,1,10.9,9.523l.351,2.586A2.981,2.981,0,0,0,34,16a1,1,0,0,0-1-1H31a5.023,5.023,0,0,1-4-2l-1.2-1.6a1,1,0,0,0-.73-.4.987.987,0,0,0-.777.29l-2.242,2.242A4.971,4.971,0,0,1,18.515,15H13a1,1,0,0,0-1,1,2.973,2.973,0,0,0-.759.109l.35-2.586A11.03,11.03,0,0,1,22.49,4ZM12,20a1,1,0,0,1,0-2ZM8.6,35.594l1.9-14.012A2.966,2.966,0,0,0,12,22v1a11,11,0,0,0,6,9.786v3.479L15.648,37H15a2,2,0,0,1-2-2H11a3.975,3.975,0,0,0,1.4,3.015l-2.133.667A3,3,0,0,1,8.6,35.594ZM4,49.35a8.953,8.953,0,0,1,6.333-8.59l1.33-.416L11.4,43.011A6.955,6.955,0,0,1,9.45,47.186,10.234,10.234,0,0,0,7,54a10.752,10.752,0,0,0,1.791,6H4ZM42,60H37.21a9.159,9.159,0,0,0,1.142-2.253A.985.985,0,0,0,39,58h3Zm2-4H40V46h3.807l.193.077Zm13-7a1,1,0,0,1-2,0V33a1,1,0,0,1,2,0Zm2-6.278V39.278a1.983,1.983,0,0,1,0,3.444Z"></path><rect x="17" y="19" width="2" height="2"></rect><rect x="27" y="19" width="2" height="2"></rect><path d="M23,27a2,2,0,0,1-2-2H19a4,4,0,0,0,8,0H25A2,2,0,0,1,23,27Z"></path></svg>