<svg xmlns="http://www.w3.org/2000/svg" viewBox="0 0 64 64" x="0px" y="0px"><g><path d="M46.707,6.293A1,1,0,0,0,46,6H18a5,5,0,0,0-4.842,3.751l1.936.5A3,3,0,0,1,18,8H45v5a3,3,0,0,0,3,3h5V57a3,3,0,0,1-3,3H18a3,3,0,0,1-3-3V34H13V57a5.006,5.006,0,0,0,5,5H50a5.006,5.006,0,0,0,5-5V15a1,1,0,0,0-.293-.707ZM47,13V9.414L51.586,14H48A1,1,0,0,1,47,13Z"></path><path d="M54,2H22a5,5,0,0,0-3.308,1.25l1.325,1.5A2.989,2.989,0,0,1,22,4H54a3,3,0,0,1,3,3V53a2.989,2.989,0,0,1-.75,1.983l1.5,1.325A5,5,0,0,0,59,53V7A5.006,5.006,0,0,0,54,2Z"></path><path d="M16,28V27a3,3,0,0,0,0-6H14a1,1,0,0,1,0-2h2a1,1,0,0,1,1,1h2a3,3,0,0,0-3-3V16H14v1a3,3,0,0,0,0,6h2a1,1,0,0,1,0,2H14a1,1,0,0,1-1-1H11a3,3,0,0,0,3,3v1Z"></path><path d="M25,22A10,10,0,1,0,15,32,10.011,10.011,0,0,0,25,22ZM7,22a8,8,0,1,1,8,8A8.009,8.009,0,0,1,7,22Z"></path><rect x="28" y="16" width="12" height="2"></rect><rect x="28" y="12" width="2" height="2"></rect><rect x="32" y="12" width="8" height="2"></rect><path d="M24,31a1,1,0,0,0-1,1v5H21v2H47V37H45V24a1,1,0,0,0-1-1H40a1,1,0,0,0-1,1V37H37V28a1,1,0,0,0-1-1H32a1,1,0,0,0-1,1v9H29V32a1,1,0,0,0-1-1Zm17-6h2V37H41Zm-8,4h2v8H33Zm-8,8V33h2v4Z"></path><path d="M22,43a1,1,0,0,0-1,1V54a1,1,0,0,0,1,1H32a1,1,0,0,0,1-1V44a1,1,0,0,0-1-1Zm9,10H23V45h8Z"></path><rect x="37" y="43" width="12" height="2"></rect><rect x="37" y="51" width="12" height="2"></rect><rect x="37" y="47" width="12" height="2"></rect></g></svg>