<svg xmlns="http://www.w3.org/2000/svg" viewBox="0 0 64 64" x="0px" y="0px"><g><rect x="10" y="42" width="2" height="2"></rect><rect x="14" y="42" width="2" height="2"></rect><rect x="18" y="42" width="12" height="2"></rect><rect x="15" y="38" width="2" height="2"></rect><rect x="11" y="38" width="2" height="2"></rect><rect x="19" y="38" width="2" height="2"></rect><rect x="23" y="38" width="2" height="2"></rect><rect x="27" y="38" width="2" height="2"></rect><path d="M58.96,26H56V5a3,3,0,0,0-3-3H11A3,3,0,0,0,8,5V34.764L2.105,46.553A1,1,0,0,0,2,47v5a2,2,0,0,0,2,2H34v4.96A3.044,3.044,0,0,0,37.04,62H58.96A3.044,3.044,0,0,0,62,58.96V29.04A3.044,3.044,0,0,0,58.96,26ZM10,5a1,1,0,0,1,1-1H53a1,1,0,0,1,1,1V26H37.04A3.044,3.044,0,0,0,34,29.04V34H10ZM29,48h5v1H29ZM4.618,46l5-10H34V46ZM4,52V48H27v1a2,2,0,0,0,2,2h5v1Zm56,6.96A1.04,1.04,0,0,1,58.96,60H37.04A1.04,1.04,0,0,1,36,58.96V29.04A1.04,1.04,0,0,1,37.04,28H58.96A1.04,1.04,0,0,1,60,29.04Z"></path><path d="M58,29H38a1,1,0,0,0-1,1v6a1,1,0,0,0,1,1H58a1,1,0,0,0,1-1V30A1,1,0,0,0,58,29Zm-1,6H39V31H57Z"></path><path d="M42,39H38a1,1,0,0,0-1,1v4a1,1,0,0,0,1,1h4a1,1,0,0,0,1-1V40A1,1,0,0,0,42,39Zm-1,4H39V41h2Z"></path><path d="M50,39H46a1,1,0,0,0-1,1v4a1,1,0,0,0,1,1h4a1,1,0,0,0,1-1V40A1,1,0,0,0,50,39Zm-1,4H47V41h2Z"></path><path d="M58,39H54a1,1,0,0,0-1,1v4a1,1,0,0,0,1,1h4a1,1,0,0,0,1-1V40A1,1,0,0,0,58,39Zm-1,4H55V41h2Z"></path><path d="M42,46H38a1,1,0,0,0-1,1v4a1,1,0,0,0,1,1h4a1,1,0,0,0,1-1V47A1,1,0,0,0,42,46Zm-1,4H39V48h2Z"></path><path d="M50,46H46a1,1,0,0,0-1,1v4a1,1,0,0,0,1,1h4a1,1,0,0,0,1-1V47A1,1,0,0,0,50,46Zm-1,4H47V48h2Z"></path><path d="M58,46H54a1,1,0,0,0-1,1v4a1,1,0,0,0,1,1h4a1,1,0,0,0,1-1V47A1,1,0,0,0,58,46Zm-1,4H55V48h2Z"></path><path d="M42,53H38a1,1,0,0,0-1,1v4a1,1,0,0,0,1,1h4a1,1,0,0,0,1-1V54A1,1,0,0,0,42,53Zm-1,4H39V55h2Z"></path><path d="M50,53H46a1,1,0,0,0-1,1v4a1,1,0,0,0,1,1h4a1,1,0,0,0,1-1V54A1,1,0,0,0,50,53Zm-1,4H47V55h2Z"></path><path d="M58,53H54a1,1,0,0,0-1,1v4a1,1,0,0,0,1,1h4a1,1,0,0,0,1-1V54A1,1,0,0,0,58,53Zm-1,4H55V55h2Z"></path><path d="M22,14.414l2.293,2.293a1,1,0,0,0,1.414,0L30,12.414V14h2V10a1,1,0,0,0-1-1H27v2h1.586L25,14.586l-2.293-2.293a1,1,0,0,0-1.414,0l-4,4,1.414,1.414Z"></path><path d="M16,21V8H14V22a1,1,0,0,0,1,1H33V21Z"></path><rect x="36" y="8" width="4" height="2"></rect><rect x="42" y="8" width="8" height="2"></rect><rect x="36" y="12" width="14" height="2"></rect><rect x="36" y="16" width="14" height="2"></rect><rect x="14" y="25" width="8" height="2"></rect><rect x="14" y="29" width="8" height="2"></rect><rect x="36" y="20" width="14" height="2"></rect></g></svg>