<svg xmlns="http://www.w3.org/2000/svg" viewBox="0 0 64 64" x="0px" y="0px"><g data-name="Truck"><rect x="42" y="34" width="4" height="2"></rect><rect x="11" y="46" width="2" height="2"></rect><rect x="25" y="46" width="2" height="2"></rect><rect x="48" y="46" width="2" height="2"></rect><path d="M25,25H7a1,1,0,0,0-1,1v4a1,1,0,0,0,1,1H25a1,1,0,0,0,1-1V26A1,1,0,0,0,25,25Zm-1,4H8V27H24Z"></path><path d="M61.288,29.535,56.44,21.457A3.013,3.013,0,0,0,53.868,20H40V14a2,2,0,0,0-2-2H36v2h2V40H36V17a1,1,0,0,0-1-1H30a1,1,0,0,0-.929.628L27.323,21H4a2,2,0,0,0-2,2V46a2,2,0,0,0,2,2H6.09a5.993,5.993,0,0,0,11.82,0h2.18a5.993,5.993,0,0,0,11.82,0H43.09a5.993,5.993,0,0,0,11.82,0H59a3,3,0,0,0,3-3V32.108A5.009,5.009,0,0,0,61.288,29.535Zm-6.563-7.049L59.234,30H44V22h9.868A1,1,0,0,1,54.725,22.486ZM38,42v4H36V42ZM12,51a4,4,0,1,1,4-4A4,4,0,0,1,12,51Zm14,0a4,4,0,1,1,4-4A4,4,0,0,1,26,51Zm0-10a6.006,6.006,0,0,0-5.91,5H17.91A5.993,5.993,0,0,0,6.09,46H4V23H28a1,1,0,0,0,.929-.628L30.677,18H34V46H31.91A6.006,6.006,0,0,0,26,41ZM49,51a4,4,0,1,1,4-4A4,4,0,0,1,49,51Zm10-5H54.91a5.993,5.993,0,0,0-11.82,0H40V22h2v9a1,1,0,0,0,1,1H59.985c0,.036.015.071.015.108V34H56a2,2,0,0,0-2,2v2a2,2,0,0,0,2,2h4v2H57v2h3v1A1,1,0,0,1,59,46Zm1-10v2H56V36Z"></path></g></svg>