<svg xmlns="http://www.w3.org/2000/svg" viewBox="0 0 64 64" x="0px" y="0px"><title>Credit Card</title><g data-name="Credit Card"><path d="M60.368,26.037,47.6,3.925a2,2,0,0,0-2.733-.731L5.362,26H4a2,2,0,0,0-2,2V60a2,2,0,0,0,2,2H60a2,2,0,0,0,2-2V28A2,2,0,0,0,60.368,26.037ZM25.783,26,49.972,12.037l2.181,3.777L34.512,26Zm27.371-8.454L58.037,26H38.512Zm-7.29-12.62,3.107,5.379L21.782,26H9.362ZM4,60V28H60V60Z"></path><path d="M52,46a5.962,5.962,0,0,0-3.5,1.143,6,6,0,1,0,0,9.714A5.995,5.995,0,1,0,52,46ZM41,52a4.007,4.007,0,0,1,6.793-2.873,4.021,4.021,0,0,1,.005,5.74A4.006,4.006,0,0,1,41,52Zm11,4a4,4,0,0,1-2.074-.572.275.275,0,0,1,.017-.029,6.209,6.209,0,0,0,.405-.689c.028-.056.053-.111.079-.167a5.77,5.77,0,0,0,.276-.69c.008-.024.018-.046.025-.069a5.911,5.911,0,0,0,.182-.779c.01-.063.019-.127.028-.19a5.381,5.381,0,0,0,0-1.629c-.009-.064-.018-.128-.029-.192a5.9,5.9,0,0,0-.18-.776c-.008-.026-.02-.052-.028-.078a6.111,6.111,0,0,0-.27-.674c-.029-.062-.057-.123-.087-.183a6.253,6.253,0,0,0-.4-.677c-.007-.011-.012-.023-.019-.034A4,4,0,1,1,52,56Z"></path><rect x="8" y="46" width="2" height="2"></rect><rect x="12" y="46" width="2" height="2"></rect><rect x="16" y="46" width="2" height="2"></rect><rect x="20" y="46" width="2" height="2"></rect><rect x="24" y="46" width="2" height="2"></rect><rect x="28" y="46" width="2" height="2"></rect><rect x="32" y="46" width="2" height="2"></rect><rect x="36" y="46" width="2" height="2"></rect><rect x="8" y="52" width="28" height="2"></rect><path d="M10,40h6a2,2,0,0,0,2-2V34a2,2,0,0,0-2-2H10a2,2,0,0,0-2,2v4A2,2,0,0,0,10,40Zm0-6h6v4H10Z"></path><path d="M24,38H54a2,2,0,0,0,2-2V34a2,2,0,0,0-2-2H24a2,2,0,0,0-2,2v2A2,2,0,0,0,24,38Zm0-4H54v2H24Z"></path></g></svg>