<svg xmlns="http://www.w3.org/2000/svg" viewBox="0 0 64 64" x="0px" y="0px"><g data-name="Air Conditioner-Remote-Control-Smartphone-Application"><polygon points="36.41 33 37.71 34.29 36.29 35.71 34.59 34 34 34 34 34.59 35.71 36.29 34.29 37.71 33 36.41 31.71 37.71 30.29 36.29 32 34.59 32 34 31.41 34 29.71 35.71 28.29 34.29 29.59 33 28.29 31.71 29.71 30.29 31.41 32 32 32 32 31.41 30.29 29.71 31.71 28.29 33 29.59 34.29 28.29 35.71 29.71 34 31.41 34 32 34.59 32 36.29 30.29 37.71 31.71 36.41 33"></polygon><polygon points="48.293 30.293 46.586 32 46 32 46 31.414 47.707 29.707 46.293 28.293 45 29.586 43.707 28.293 42.293 29.707 44 31.414 44 32 43.414 32 41.707 30.293 40.293 31.707 41.586 33 40.293 34.293 41.707 35.707 43.414 34 44 34 44 34.586 42.293 36.293 43.707 37.707 45 36.414 46.293 37.707 47.707 36.293 46 34.586 46 34 46.586 34 48.293 35.707 49.707 34.293 48.414 33 49.707 31.707 48.293 30.293"></polygon><path d="M55,18a1,1,0,0,0,1-1V5a1,1,0,0,0-1-1H23a1,1,0,0,0-1,1V17a1,1,0,0,0,1,1h1V15a1,1,0,0,1,1-1H53a1,1,0,0,1,1,1v3Z"></path><rect x="26" y="16" width="26" height="2"></rect><rect x="38" y="22" width="2" height="4"></rect><rect x="48" y="22" width="2" height="4"></rect><rect x="28" y="22" width="2" height="4"></rect><rect x="43" y="22" width="2" height="2"></rect><rect x="33" y="22" width="2" height="2"></rect><path d="M22,33a3.009,3.009,0,0,0-3-3H7a3.009,3.009,0,0,0-3,3V57a3.009,3.009,0,0,0,3,3H19a3.009,3.009,0,0,0,3-3ZM10,32h6v2H10Zm4,26H12V56h2Zm4.707-11.707-1.414,1.414L15.586,46H14v1.586l1.707,1.707-1.414,1.414L13,49.414l-1.293,1.293-1.414-1.414L12,47.586V46H10.414L8.707,47.707,7.293,46.293,8.586,45,7.293,43.707l1.414-1.414L10.414,44H12V42.414l-1.707-1.707,1.414-1.414L13,40.586l1.293-1.293,1.414,1.414L14,42.414V44h1.586l1.707-1.707,1.414,1.414L17.414,45Z"></path><path d="M39,42a8,8,0,1,0,8,8A8.009,8.009,0,0,0,39,42Zm1,13H38V53h2Zm1.122-3.121a3,3,0,0,0-4.244,0l-1.414-1.414a5.008,5.008,0,0,1,7.072,0ZM43.95,49.05a7.009,7.009,0,0,0-9.9,0l-1.414-1.414a9.009,9.009,0,0,1,12.728,0Z"></path></g></svg>