<svg xmlns="http://www.w3.org/2000/svg" viewBox="0 0 64 64" x="0px" y="0px"><g><path d="M6,17H3V15H5V8A1,1,0,0,1,6,7H9V9H7v7A1,1,0,0,1,6,17Z"></path><rect x="29" y="22" width="6" height="6"></rect><path d="M33,16H31a1,1,0,0,0-1,1v3h4V17A1,1,0,0,0,33,16Z"></path><rect x="11" y="7" width="3" height="2"></rect><polygon points="51 42 41 42 41 44 39 44 39 42 25 42 25 44 23 44 23 42 13 42 13 46 51 46 51 42"></polygon><rect x="16" y="4" width="2" height="28"></rect><rect x="20" y="7" width="2" height="2"></rect><rect x="11" y="34" width="42" height="6"></rect><polygon points="13 54 13 60 51 60 51 54 41 54 41 56 39 56 39 54 25 54 25 56 23 56 23 54 13 54"></polygon><polygon points="51 48 47 48 47 50 45 50 45 48 33 48 33 50 31 50 31 48 19 48 19 50 17 50 17 48 13 48 13 52 51 52 51 48"></polygon><rect x="36" y="7" width="1" height="2"></rect><rect x="24" y="7" width="1" height="2"></rect><rect x="46" y="4" width="2" height="28"></rect><rect x="50" y="7" width="3" height="2"></rect><rect x="39" y="7" width="5" height="2"></rect><rect x="27" y="7" width="1" height="2"></rect><polygon points="33 7 31 7 30 7 30 9 31 9 31 14 33 14 33 9 34 9 34 7 33 7"></polygon></g></svg>