<svg xmlns="http://www.w3.org/2000/svg" viewBox="0 0 48 48" x="0px" y="0px"><g><path d="M41,12.35A5.8,5.8,0,0,0,39,12a6,6,0,0,0,0,12,5.8,5.8,0,0,0,2-.35,5.99,5.99,0,0,0,0-11.3ZM39,16a2.006,2.006,0,0,0-2,2H35a4,4,0,0,1,4-4Z"></path><path d="M40,31v6a1,1,0,0,1-2,0V31a1,1,0,0,1,2,0Z"></path><path d="M41,25.74v3.05a2.868,2.868,0,0,0-1-.61V25.93A8.4,8.4,0,0,0,41,25.74Z"></path><path d="M38,6H8A3.009,3.009,0,0,0,5,9V32H34v2H27a1,1,0,0,1-1,1H20a1,1,0,0,1-1-1H3v2H36V31a3.01,3.01,0,0,1,2-2.82V25.93A8,8,0,0,1,39,10a7.37,7.37,0,0,1,2,.27V9A3.009,3.009,0,0,0,38,6Zm-3,4H9V28H34v2H8a1,1,0,0,1-1-1V9A1,1,0,0,1,8,8H35Zm-6,8v2H27V18Zm-6,0v2H21V18Zm-6,0v2H15V18Z"></path></g></svg>