<svg xmlns="http://www.w3.org/2000/svg" viewBox="0 0 64 64" x="0px" y="0px"><g data-name="Report Chart"><path d="M31,36V29.08a6.98,6.98,0,0,0-4.145,11.65l1.438-1.437,1.414,1.414L28.414,42A6.976,6.976,0,0,0,38.92,37H32A1,1,0,0,1,31,36Z"></path><path d="M36.707,32.707l-1.414-1.414.891-.891A6.947,6.947,0,0,0,33,29.08V35h5.92A6.947,6.947,0,0,0,37.6,31.816Z"></path><rect x="22" y="7" width="20" height="1"></rect><path d="M11,60H53V4H44V5h6a1,1,0,0,1,1,1V57a1,1,0,0,1-1,1H14a1,1,0,0,1-1-1V6a1,1,0,0,1,1-1h6V4H11Z"></path><rect x="22" y="4" width="20" height="1"></rect><path d="M20,9V7H15V56H49V7H44V9a1,1,0,0,1-1,1H21A1,1,0,0,1,20,9Zm0,10H40v2H20Zm1,27H17V44h4Zm0-3H17V41h4Zm5,9H24V50h2Zm14,0H28V50H40Zm2-23H40.414l-1.389,1.389A8.993,8.993,0,0,1,26.961,43.453l-1.254,1.254A1,1,0,0,1,25,45H23V43h1.586l.856-.856A8.987,8.987,0,0,1,37.611,28.975l1.682-1.682A1,1,0,0,1,40,27h2Zm6,0H44V27h4Zm0-5v2H44V24ZM26,14H44v2H26Zm-2,2H20V14h4Z"></path></g></svg>