<svg xmlns="http://www.w3.org/2000/svg" viewBox="0 0 64 64" x="0px" y="0px"><g><path d="M61.9,54.553,56,42.764V11a3,3,0,0,0-3-3H52v2h1a1,1,0,0,1,1,1V42H10V11a1,1,0,0,1,1-1h1V8H11a3,3,0,0,0-3,3V42.764L2.105,54.553A1,1,0,0,0,2,55v4a3,3,0,0,0,3,3H59a3,3,0,0,0,3-3V55A1,1,0,0,0,61.9,54.553ZM54.382,44l5,10H40.618L38.9,50.553A1,1,0,0,0,38,50H26a1,1,0,0,0-.895.553L23.382,54H4.618l5-10Zm-16,10H25.618l1-2H37.382ZM59,60H5a1,1,0,0,1-1-1V56H60v3A1,1,0,0,1,59,60Z"></path><rect x="10" y="50" width="2" height="2"></rect><rect x="14" y="50" width="2" height="2"></rect><rect x="48" y="50" width="2" height="2"></rect><rect x="52" y="50" width="2" height="2"></rect><rect x="15" y="46" width="2" height="2"></rect><rect x="11" y="46" width="2" height="2"></rect><rect x="19" y="46" width="2" height="2"></rect><rect x="23" y="46" width="2" height="2"></rect><rect x="27" y="46" width="2" height="2"></rect><rect x="31" y="46" width="2" height="2"></rect><rect x="35" y="46" width="2" height="2"></rect><rect x="39" y="46" width="2" height="2"></rect><rect x="43" y="46" width="2" height="2"></rect><rect x="47" y="46" width="2" height="2"></rect><rect x="51" y="46" width="2" height="2"></rect><rect x="18" y="50" width="4" height="2"></rect><rect x="42" y="50" width="4" height="2"></rect><rect x="18" y="6" width="2" height="2"></rect><rect x="22" y="6" width="2" height="2"></rect><rect x="26" y="6" width="2" height="2"></rect><path d="M17,32H27.465l3.7,5.555a1,1,0,0,0,1.664,0L36.535,32H47a3,3,0,0,0,3-3V5a3,3,0,0,0-3-3H17a3,3,0,0,0-3,3V29A3,3,0,0,0,17,32Zm30-2H36a1,1,0,0,0-.832.445L32,35.2l-3.168-4.752A1,1,0,0,0,28,30H17a1,1,0,0,1-1-1V12H48V29A1,1,0,0,1,47,30ZM17,4H47a1,1,0,0,1,1,1v5H16V5A1,1,0,0,1,17,4Z"></path><rect x="31" y="24" width="2" height="2"></rect><path d="M28.464,21.464l1.414,1.414a3.006,3.006,0,0,1,4.244,0l1.414-1.414A5.008,5.008,0,0,0,28.464,21.464Z"></path><path d="M25.636,18.636,27.05,20.05a7,7,0,0,1,9.9,0l1.414-1.414a9,9,0,0,0-12.728,0Z"></path><rect x="44" y="34" width="6" height="2"></rect><rect x="40" y="34" width="2" height="2"></rect><rect x="40" y="38" width="10" height="2"></rect><rect x="18" y="34" width="6" height="2"></rect><rect x="14" y="34" width="2" height="2"></rect><rect x="14" y="38" width="10" height="2"></rect></g></svg>