<svg xmlns="http://www.w3.org/2000/svg" viewBox="0 0 64 64" x="0px" y="0px"><title>Truck-Transportation-Delivery-Cargo-Crane</title><g><rect x="42" y="36" width="4" height="2"></rect><rect x="11" y="48" width="2" height="2"></rect><rect x="25" y="48" width="2" height="2"></rect><rect x="48" y="48" width="2" height="2"></rect><path d="M61.31,31.574l-4.863-9A3,3,0,0,0,53.807,21H39a1,1,0,0,0-1,1V42H36V24a2.993,2.993,0,0,0-2.675-2.967l-18.878-10.9a3,3,0,0,0-4.4,3.374,2.972,2.972,0,0,0,.95,1.5V23H6a1,1,0,0,0-1,1V36a1,1,0,0,0,1,1H18a1,1,0,0,0,1-1V24a1,1,0,0,0-1-1H13V16.227l17,9.814V37a1,1,0,0,0-.707.293L27.586,39H3a1,1,0,0,0-1,1v8a2,2,0,0,0,2,2H6.09a5.993,5.993,0,0,0,11.82,0h2.18a5.993,5.993,0,0,0,11.82,0H43.09a5.993,5.993,0,0,0,11.82,0H59a3,3,0,0,0,3-3V34.108A4.959,4.959,0,0,0,61.31,31.574ZM11,25h2v4H11ZM9,25v2H7V25ZM7,35V29H9v1a1,1,0,0,0,1,1h4a1,1,0,0,0,1-1V29h2v6Zm10-8H15V25h2Zm37.687-3.475L59.267,32H44V23h9.807A1,1,0,0,1,54.687,23.525ZM38,44v4H36V44ZM12.082,12.232a1,1,0,0,1,1.365-.366l17.4,10.048a2.984,2.984,0,0,0-.825,1.832L12.447,13.6A1,1,0,0,1,12.082,12.232ZM32,24a1,1,0,0,1,2,0V37H32ZM12,53a4,4,0,1,1,4-4A4,4,0,0,1,12,53Zm14,0a4,4,0,1,1,4-4A4,4,0,0,1,26,53Zm0-10a6.006,6.006,0,0,0-5.91,5H17.91A5.993,5.993,0,0,0,6.09,48H4V41H28a1,1,0,0,0,.707-.293L30.414,39H34v9H31.91A6.006,6.006,0,0,0,26,43ZM49,53a4,4,0,1,1,4-4A4,4,0,0,1,49,53Zm10-5H54.91a5.993,5.993,0,0,0-11.82,0H40V23h2V33a1,1,0,0,0,1,1H59.985c0,.036.015.071.015.108V36H56a2,2,0,0,0-2,2v2a2,2,0,0,0,2,2h4v2H57v2h3v1A1,1,0,0,1,59,48Zm1-10v2H56V38Z"></path></g></svg>