<svg xmlns="http://www.w3.org/2000/svg" viewBox="0 0 64 64" x="0px" y="0px"><g data-name="Online Shop-Payment-Money-Payment Method-Mobile"><rect x="24" y="6" width="2" height="2"></rect><rect x="28" y="6" width="8" height="2"></rect><path d="M34,52H30a3,3,0,0,0,0,6h4a3,3,0,0,0,0-6Zm0,4H30a1,1,0,0,1,0-2h4a1,1,0,0,1,0,2Z"></path><path d="M52.97,14.76,52,10.88V9a7.008,7.008,0,0,0-7-7H19a7.008,7.008,0,0,0-7,7v1.88l-.97,3.88A.986.986,0,0,0,11,15a4.939,4.939,0,0,0,1,2.97V55a7.008,7.008,0,0,0,7,7H45a7.008,7.008,0,0,0,7-7V17.97A4.939,4.939,0,0,0,53,15,.986.986,0,0,0,52.97,14.76ZM14,9a5,5,0,0,1,5-5H45a5,5,0,0,1,5,5v1H14Zm29,3v3a3,3,0,0,1-6,0V12Zm-8,0v3a3,3,0,0,1-6,0V12Zm-8,0v3a3,3,0,0,1-6,0V12ZM13,15.11,13.78,12H19v3a3,3,0,0,1-6,.11ZM50,55a5,5,0,0,1-5,5H19a5,5,0,0,1-5-5V50H50Zm0-7H14V19.58A4.941,4.941,0,0,0,16,20a4.994,4.994,0,0,0,4-2.03,4.956,4.956,0,0,0,8,0,4.956,4.956,0,0,0,8,0,4.956,4.956,0,0,0,8,0A4.994,4.994,0,0,0,48,20a4.941,4.941,0,0,0,2-.42ZM48,18a3.009,3.009,0,0,1-3-3V12h5.22L51,15.11A3,3,0,0,1,48,18Z"></path><path d="M31,31h2a1,1,0,0,1,1,1h2a3,3,0,0,0-3-3V28H31v1a3,3,0,0,0,0,6h2a1,1,0,0,1,0,2H31a1,1,0,0,1-1-1H28a3,3,0,0,0,3,3v1h2V39a3,3,0,0,0,0-6H31a1,1,0,0,1,0-2Z"></path><path d="M32,24A10,10,0,1,0,42,34,10.011,10.011,0,0,0,32,24Zm0,18a8,8,0,1,1,8-8A8.009,8.009,0,0,1,32,42Z"></path></g></svg>