<svg xmlns="http://www.w3.org/2000/svg" viewBox="0 0 64 64" x="0px" y="0px"><g data-name="School"><path d="M32,32a4,4,0,1,0-4-4A4,4,0,0,0,32,32Zm-1-7h2v2h2v2H32a1,1,0,0,1-1-1Z"></path><path d="M46,60H60V32H46ZM56,34h2v2H56Zm0,4h2v2H56Zm0,4h2v2H56Zm0,4h2v2H56Zm0,4h2v2H56ZM52,34h2v2H52Zm0,4h2v2H52Zm0,4h2v2H52Zm0,4h2v2H52Zm0,4h2v2H52ZM48,34h2v2H48Zm0,4h2v2H48Zm0,4h2v2H48Zm0,4h2v2H48Zm0,4h2v2H48Z"></path><path d="M4,60H18V32H4ZM14,34h2v2H14Zm0,4h2v2H14Zm0,4h2v2H14Zm0,4h2v2H14Zm0,4h2v2H14ZM10,34h2v2H10Zm0,4h2v2H10Zm0,4h2v2H10Zm0,4h2v2H10Zm0,4h2v2H10ZM6,34H8v2H6Zm0,4H8v2H6Zm0,4H8v2H6Zm0,4H8v2H6Zm0,4H8v2H6Z"></path><path d="M18,20H4V30H18Zm-2,8H6V26H16Zm0-4H6V22H16Z"></path><rect x="20" y="14" width="24" height="4"></rect><path d="M20,60h5V51a7,7,0,0,1,14,0v9h5V20H20ZM32,22a6,6,0,1,1-6,6A6.006,6.006,0,0,1,32,22ZM22,36H42v2H22Zm0,4H42v2H22Z"></path><path d="M60,20H46V30H60Zm-2,8H48V26H58Zm0-4H48V22H58Z"></path><path d="M32,46a5.006,5.006,0,0,0-5,5v9H37V51A5.006,5.006,0,0,0,32,46Z"></path><polygon points="19.487 12 44.513 12 32 4.179 19.487 12"></polygon></g></svg>