<svg xmlns="http://www.w3.org/2000/svg" viewBox="0 0 64 64" x="0px" y="0px"><g data-name="Credit Card-Payment"><circle cx="21" cy="14" r="1"></circle><path d="M34,41h8V36a4,4,0,0,1,8,0v4a1.982,1.982,0,0,0,.249.95A.989.989,0,0,0,51,40V14a1,1,0,0,0-1-1H34a1,1,0,0,0-1,1V40A1,1,0,0,0,34,41ZM48,31H44V29h4ZM43,16a1,1,0,0,1,1-1h4a1,1,0,0,1,1,1v6a1,1,0,0,1-1,1H44a1,1,0,0,1-1-1Zm-4-1h2V25H39Zm-4,0h2v2H35Zm0,4h2v2H35Zm0,4h2v2H35Zm0,10a3,3,0,0,1,6,0,2.965,2.965,0,0,1-.421,1.507A2.956,2.956,0,0,1,41,36a3,3,0,0,1-6,0,2.956,2.956,0,0,1,.421-1.493A2.965,2.965,0,0,1,35,33Z"></path><path d="M53,57.66a5.035,5.035,0,0,1,1.463-3.537l2.32-2.32A11.058,11.058,0,0,0,60,44.04l.01-10.721a6.961,6.961,0,0,0-2.05-4.965L53,23.4v5.183l1.537,1.537A5.035,5.035,0,0,1,56,33.66V40a4,4,0,0,1-6.827,2.827,2.136,2.136,0,0,1-.2-.224A3.9,3.9,0,0,1,48,40V36a2,2,0,0,0-4,0V60h9Z"></path><path d="M38,37a1,1,0,0,0,1-1,.956.956,0,0,0-.038-.173,2.761,2.761,0,0,1-1.924,0A.956.956,0,0,0,37,36,1,1,0,0,0,38,37Z"></path><circle cx="38" cy="33" r="1"></circle><rect x="45" y="17" width="2" height="4"></rect><polygon points="31 33 7.28 33 7.779 34.998 31 35 31 33"></polygon><path d="M31,21.715A12.915,12.915,0,0,0,21,17,13.068,13.068,0,0,0,8.348,27H31Zm-5.5.489A8.983,8.983,0,0,0,21,21V19a11,11,0,0,1,5.5,1.472Zm3.3,3.3a9.01,9.01,0,0,0-1.369-1.8l1.429-1.4a11.044,11.044,0,0,1,1.672,2.2Z"></path><path d="M54,33.66a3.02,3.02,0,0,0-.877-2.123L53,31.414V40a2.976,2.976,0,0,1-.76,1.976A2,2,0,0,0,54,40Z"></path><path d="M31,29H5a1,1,0,0,0-1,1,.965.965,0,0,0,.287.694A.978.978,0,0,0,5,31H31Z"></path></g></svg>