<svg xmlns="http://www.w3.org/2000/svg" viewBox="0 0 64 64" x="0px" y="0px"><g><path d="M59.335,23.722A1.994,1.994,0,0,0,57.8,23H55.054l.525-9.947a6.994,6.994,0,0,0-8.451-7.211c-3.11.674-7.337,1.492-11.089,1.9l2.793-4.189A1,1,0,0,0,38,2H26a1,1,0,0,0-.832,1.555l2.793,4.189c-3.752-.41-7.979-1.228-11.091-1.9a6.994,6.994,0,0,0-8.449,7.211L8.946,23H6.2a2,2,0,0,0-1.966,2.366l4.5,24.127A2.991,2.991,0,0,0,11.694,52H14v9a1,1,0,0,0,1,1h3a1,1,0,0,0,1-.9l.91-9.1H44.1l.91,9.1A1,1,0,0,0,46,62h3a1,1,0,0,0,1-1V52h2.306a2.984,2.984,0,0,0,2.955-2.488l4.5-24.145A1.993,1.993,0,0,0,59.335,23.722ZM53.826,25h0M47.55,7.8a4.994,4.994,0,0,1,6.032,5.15l-.539,10.22a2,2,0,0,0-1.181,1.455l-3.57,18.542a.992.992,0,0,1-.292.543V39a4.976,4.976,0,0,0-1.41-3.466A2.993,2.993,0,0,0,45,30h0V23a11.01,11.01,0,0,0-8.331-10.659,2.886,2.886,0,0,0,.013-2.659C40.412,9.249,44.51,8.456,47.55,7.8ZM19,34a1,1,0,0,1,0-2,2,2,0,0,0,2-2V23c0-5.3,3.29-9,8-9h5a9.011,9.011,0,0,1,9,9v7a2,2,0,0,0,2,2,1,1,0,0,1,0,2ZM35,11a1,1,0,0,1-1,1H30a1,1,0,0,1,0-2h4A1,1,0,0,1,35,11ZM21,36h5.054A5.248,5.248,0,0,0,24,40h2c0-2.168,2.748-4,6-4s6,1.832,6,4h2a5.248,5.248,0,0,0-2.054-4H43a3,3,0,0,1,3,3v5H18V39A3,3,0,0,1,21,36ZM36.131,4,33.465,8H32c-.473,0-.979-.02-1.494-.044L27.869,4ZM12.166,8.879A4.945,4.945,0,0,1,16.449,7.8c3.04.658,7.134,1.451,10.869,1.885a2.939,2.939,0,0,0-.084,2.479C22.373,13,19,17.3,19,23v7a2.994,2.994,0,0,0-1.59,5.534A4.976,4.976,0,0,0,16,39v4.7a1.033,1.033,0,0,1-.3-.563L12.138,24.622a2,2,0,0,0-1.181-1.455l-.539-10.22A4.963,4.963,0,0,1,12.166,8.879ZM17.1,60H16V52H17.9ZM48,60H46.905l-.8-8H48Zm5.292-10.836a1,1,0,0,1-.986.836H11.694a1,1,0,0,1-.989-.854L6.2,25h3.97l3.561,18.493A2.991,2.991,0,0,0,16.694,46H47.306a2.982,2.982,0,0,0,2.954-2.482L53.826,25H57.8Z"></path><path d="M33,32V30a3,3,0,0,0,0-6H31a1,1,0,0,1,0-2h2a1,1,0,0,1,1,1h2a3,3,0,0,0-3-3V18H31v2a3,3,0,0,0,0,6h2a1,1,0,0,1,0,2H31a1,1,0,0,1-1-1H28a3,3,0,0,0,3,3v2Z"></path></g></svg>