<svg xmlns="http://www.w3.org/2000/svg" viewBox="0 0 64 64" x="0px" y="0px"><g data-name="Crane Truck"><path d="M34,44V35H30.414l-1.707,1.707A1,1,0,0,1,28,37H4v7H6.09a5.993,5.993,0,0,1,11.82,0h2.18a5.993,5.993,0,0,1,11.82,0Z"></path><path d="M26,41a4,4,0,1,0,4,4A4,4,0,0,0,26,41Zm1,5H25V44h2Z"></path><polygon points="8 31 8 28 6.717 28 6.931 31 8 31"></polygon><path d="M12,41a4,4,0,1,0,4,4A4,4,0,0,0,12,41Zm1,5H11V44h2Z"></path><rect x="56" y="34" width="4" height="2"></rect><polygon points="8 24 6.431 24 6.574 26 8 26 8 24"></polygon><path d="M44,19v9H59.267l-4.58-8.475a1,1,0,0,0-.88-.525Z"></path><path d="M49,41a4,4,0,1,0,4,4A4,4,0,0,0,49,41Zm1,5H48V44h2Z"></path><path d="M59,44a1,1,0,0,0,1-1V42H57V40h3V38H56a2,2,0,0,1-2-2V34a2,2,0,0,1,2-2h4V30.108c0-.037-.013-.072-.015-.108H43a1,1,0,0,1-1-1V19H40V44h3.09a5.993,5.993,0,0,1,11.82,0ZM46,34H42V32h4Z"></path><rect x="36" y="40" width="2" height="4"></rect><polygon points="14 31 15.069 31 15.283 28 14 28 14 31"></polygon><rect x="4" y="15" width="26" height="2"></rect><polygon points="15.926 19 14 19 14 22 15.712 22 15.926 19"></polygon><rect x="32" y="19" width="2" height="14"></rect><rect x="32" y="15" width="2" height="2"></rect><polygon points="14 26 15.426 26 15.569 24 14 24 14 26"></polygon><rect x="10" y="24" width="2" height="2"></rect><polygon points="8 19 6.074 19 6.288 22 8 22 8 19"></polygon><rect x="10" y="19" width="2" height="3"></rect><rect x="10" y="28" width="2" height="3"></rect></g></svg>