<svg xmlns="http://www.w3.org/2000/svg" viewBox="0 0 64 64" x="0px" y="0px"><g><path d="M61,46h-.184A2.966,2.966,0,0,0,61,45a3,3,0,0,0-3-3l-2,0V39A11.01,11.01,0,0,0,46,28.051v-.86A6,6,0,0,0,49,22V20a6,6,0,0,0-12,0v2a6,6,0,0,0,3,5.191v.86A11.01,11.01,0,0,0,30,39v3H28a3,3,0,0,0-3,3,2.966,2.966,0,0,0,.184,1H22V43.051L23,33.1A1,1,0,0,0,22,32H4a1,1,0,0,0-1,1.1l1,9.951V46H3a1,1,0,0,0-1,1v4a1,1,0,0,0,1,1H5v9a1,1,0,0,0,1,1H58a1,1,0,0,0,1-1V52h2a1,1,0,0,0,1-1V47A1,1,0,0,0,61,46Zm-7-7v3a2,2,0,0,0,2,2h2a1,1,0,0,1,0,2H52V36H50V46H44V30h1A9.01,9.01,0,0,1,54,39ZM39,22V20a4,4,0,0,1,8,0v2a4,4,0,0,1-2.4,3.662,1,1,0,0,0-.6.916V28H42V26.578a1,1,0,0,0-.6-.916A4,4,0,0,1,39,22ZM27,45a1,1,0,0,1,1-1h2a2,2,0,0,0,2-2V39a9.01,9.01,0,0,1,9-9h1V46H36V36H34V46H28A1,1,0,0,1,27,45ZM20.9,34l-.8,8H5.905l-.8-8ZM6,44H20v2H6ZM57,60H7V52H57Zm3-10H4V48H60Z"></path><path d="M20,19H18V12a1,1,0,0,0-1-1H14v2h2v6H14v2h6Z"></path><path d="M16.29,9.71a1.014,1.014,0,0,0,1.42,0,1.169,1.169,0,0,0,.21-.33.943.943,0,0,0,0-.76,1.032,1.032,0,0,0-.21-.33,1,1,0,0,0-.16-.12.568.568,0,0,0-.17-.09.609.609,0,0,0-.191-.06,1,1,0,0,0-.9.27,1.032,1.032,0,0,0-.21.33.943.943,0,0,0,0,.76A1.169,1.169,0,0,0,16.29,9.71Z"></path><path d="M17,25A10,10,0,1,0,7,15,10.011,10.011,0,0,0,17,25ZM17,7a8,8,0,1,1-8,8A8.009,8.009,0,0,1,17,7Z"></path></g></svg>