<svg xmlns="http://www.w3.org/2000/svg" viewBox="0 0 64 64" x="0px" y="0px"><g><path d="M57,44H48.93A7.844,7.844,0,0,0,50,40a7.683,7.683,0,0,0-1.48-4.6,1.014,1.014,0,0,0-.8-.4h-.3l1.25-3H51V30H48a.987.987,0,0,0-.92.62L45.25,35H40.28a1.014,1.014,0,0,0-.8.4A7.683,7.683,0,0,0,38,40a7.844,7.844,0,0,0,1.07,4H31V22H52a1,1,0,0,0,1-1C53,10.52,41.79,2,28,2S3,10.52,3,21a1,1,0,0,0,1,1H25V44H23.04L15.65,31.19a4.091,4.091,0,0,0-5.36-1.71,3.992,3.992,0,0,0-1.66,5.56l3.02,5.22L6.4,50H3a1,1,0,0,0-1,1v4a1,1,0,0,0,1,1H5.61L4.05,60.68a1,1,0,0,0,.14.9A.983.983,0,0,0,5,62H9a1.014,1.014,0,0,0,.95-.68L11.72,56H25v5a1,1,0,0,0,1,1h4a1,1,0,0,0,1-1V56H52.28l1.77,5.32A1.014,1.014,0,0,0,55,62h4a.983.983,0,0,0,.81-.42,1,1,0,0,0,.14-.9L58.39,56H61a1,1,0,0,0,1-1V49A5,5,0,0,0,57,44ZM40.81,37h6.38a5.631,5.631,0,0,1,.72,2H40.09A5.631,5.631,0,0,1,40.81,37Zm7.1,4a5.161,5.161,0,0,1-1.53,3H41.62a5.161,5.161,0,0,1-1.53-3Zm3.05-21H39.97c-.22-6.56-2.54-12.25-5.93-15.39C43.38,6.49,50.38,12.61,50.96,20ZM5.04,20c.58-7.39,7.58-13.51,16.92-15.39C18.57,7.75,16.25,13.44,16.03,20Zm12.99,0C18.34,11.09,22.68,4,28,4s9.66,7.09,9.97,16ZM29,22V44H27V22ZM12.82,42.3,17.27,50H8.68ZM8.28,60H6.39l1.33-4H9.61ZM29,60H27V56h2Zm26.72,0-1.33-4h1.89l1.33,4ZM60,54H4V52H60Zm0-4H19.58L10.37,34.04a1.937,1.937,0,0,1-.19-1.56,2.013,2.013,0,0,1,1.01-1.22,2.13,2.13,0,0,1,2.73.93L21.6,45.5a1,1,0,0,0,.86.5H57a3.009,3.009,0,0,1,3,3Z"></path></g></svg>