<svg xmlns="http://www.w3.org/2000/svg" viewBox="0 0 64 64" x="0px" y="0px"><g data-name="Smart Fan-Internet of Things-App-Household-Smartphone"><path d="M53,52H47V44.85A22,22,0,1,0,18,24c0,.34.01.67.02,1H13a5,5,0,0,0-5,5v8.75L4.02,43.23a11.059,11.059,0,0,0-2.76,7.99l.68,10.84,2-.12L3.26,51.1a9.055,9.055,0,0,1,2.26-6.55L8,41.76v8.17l-.33.57,1.73,1,3-5.2a1.01,1.01,0,0,1,.61-.46.995.995,0,0,1,1.12,1.46l-3,5.2a.994.994,0,0,0,.04,1.05l.89,1.34a5.615,5.615,0,0,1,0,6.22l-.23.34,1.67,1.1.22-.33A7.537,7.537,0,0,0,15,58a8.258,8.258,0,0,0-.07-1H22v4a1,1,0,0,0,1,1H57a1,1,0,0,0,1-1V57A5,5,0,0,0,53,52ZM40,4A20,20,0,1,1,30,41.31V35.97a5.973,5.973,0,0,0,2.61-.77,23.736,23.736,0,0,0,6.33-6.32,4.742,4.742,0,0,0,2.12,0,23.736,23.736,0,0,0,6.33,6.32,6,6,0,0,0,6-10.4,23.838,23.838,0,0,0-8.66-2.34,4.993,4.993,0,0,0-1.03-1.79A24.04,24.04,0,0,0,46,12a6,6,0,0,0-12,0,24.04,24.04,0,0,0,2.3,8.67,4.993,4.993,0,0,0-1.03,1.79,23.859,23.859,0,0,0-8.68,2.35c-.14.09-.31.2-.48.32A5.106,5.106,0,0,0,25,25H20.03c-.02-.33-.03-.66-.03-1A20.02,20.02,0,0,1,40,4Zm4.95,20.48a22.159,22.159,0,0,1,7.44,2.06A3.994,3.994,0,0,1,53.85,32a3.992,3.992,0,0,1-5.46,1.46,21.794,21.794,0,0,1-5.48-5.41A4.988,4.988,0,0,0,44.95,24.48ZM40,27a3,3,0,1,1,3-3A3.009,3.009,0,0,1,40,27Zm2.07-7.54a4.887,4.887,0,0,0-4.14,0A22.5,22.5,0,0,1,36,12a4,4,0,0,1,8,0A22.5,22.5,0,0,1,42.07,19.46Zm-4.98,8.59a21.794,21.794,0,0,1-5.48,5.41,4.049,4.049,0,0,1-1.61.51V30a4.966,4.966,0,0,0-1.76-3.78,23.7,23.7,0,0,1,6.81-1.74A4.988,4.988,0,0,0,37.09,28.05ZM30,43.59a21.826,21.826,0,0,0,3,1.25V52H30ZM13,27H25a3.01,3.01,0,0,1,2.82,2H10.18A3.01,3.01,0,0,1,13,27Zm-.51,16.91a2.962,2.962,0,0,0-1.82,1.39L10,46.46V31H28V47H16.25a3.187,3.187,0,0,0-.08-.97,3.006,3.006,0,0,0-3.68-2.12ZM14.37,55a7.535,7.535,0,0,0-.65-1.22l-.54-.82L15.46,49H28v3a3.009,3.009,0,0,1-3,3ZM35,60H24V57h1a5.014,5.014,0,0,0,4.58-3H35Zm0-14.59A22.052,22.052,0,0,0,40,46a21.718,21.718,0,0,0,5-.58V52H35ZM43,60H37V58h6Zm0-4H37V54h6Zm13,4H45V54h8a3.009,3.009,0,0,1,3,3Z"></path><path d="M27.409,20.75l1.938.5a10.947,10.947,0,0,1,3.377-5.5L31.4,14.25A12.952,12.952,0,0,0,27.409,20.75Z"></path><path d="M43.249,36.59l-.5-1.936a11.164,11.164,0,0,1-5.5,0l-.5,1.936a13.078,13.078,0,0,0,6.5,0Z"></path><path d="M50.653,21.249l1.938-.5a12.95,12.95,0,0,0-3.924-6.44L47.333,15.8A10.951,10.951,0,0,1,50.653,21.249Z"></path><path d="M32.5,11.006l-1-1.731a17.089,17.089,0,0,0-8.367,12.6l1.984.248A15.079,15.079,0,0,1,32.5,11.006Z"></path><path d="M33.438,37.493l-.876,1.8a17.041,17.041,0,0,0,14.876,0l-.876-1.8A15.1,15.1,0,0,1,33.438,37.493Z"></path><path d="M54.972,23.062l2-.124A16.894,16.894,0,0,0,49.563,9.943L48.437,11.6A14.905,14.905,0,0,1,54.972,23.062Z"></path><rect x="18" y="51" width="2" height="2"></rect><path d="M15.465,39.464l1.414,1.414a3.074,3.074,0,0,1,4.242,0l1.414-1.414a5,5,0,0,0-7.07,0Z"></path><path d="M23.95,38.05l1.414-1.414a9.01,9.01,0,0,0-12.728,0L14.05,38.05A7.011,7.011,0,0,1,23.95,38.05Z"></path><path d="M17.586,42.586,19,44l1.414-1.414A2,2,0,0,0,17.586,42.586Z"></path></g></svg>