<svg xmlns="http://www.w3.org/2000/svg" viewBox="0 0 64 64" x="0px" y="0px"><g data-name="Manufacturing-Communicate-Internet of Things-App-Smartphone"><path d="M10.464,43.465l1.414,1.414a3,3,0,0,1,4.244,0l1.414-1.414A5.008,5.008,0,0,0,10.464,43.465Z"></path><path d="M9.05,42.05a7.009,7.009,0,0,1,9.9,0l1.414-1.414a9.009,9.009,0,0,0-12.728,0Z"></path><path d="M12.586,46.586,14,48l1.414-1.414A2,2,0,0,0,12.586,46.586Z"></path><rect x="13" y="56" width="2" height="2"></rect><path d="M62,54H56.62l-4.73-9.45A.977.977,0,0,0,51,44H43.89A6.97,6.97,0,0,0,46,39a6.7,6.7,0,0,0-.23-1.74L57.08,17.68A7,7,0,1,0,50.11,6H27a1,1,0,0,0-1,1V8H23.47A8.991,8.991,0,0,0,15,2H13a1,1,0,0,0-1,1V7a1,1,0,0,0,1,1h2a3,3,0,0,1,0,6H13a1,1,0,0,0-1,1v4a1,1,0,0,0,1,1h2a8.991,8.991,0,0,0,8.47-6H26v1a1,1,0,0,0,1,1H46.52l-9.4,16.26A6.99,6.99,0,0,0,34.11,44H27a.977.977,0,0,0-.89.55l-.11.21V31a5,5,0,0,0-5-5H7a5,5,0,0,0-5,5V57a5,5,0,0,0,5,5H62a1,1,0,0,0,1-1V55A1,1,0,0,0,62,54ZM15,18H14V16h1A5,5,0,0,0,15,6H14V4h1a7,7,0,0,1,0,14Zm11-6H23.94a8.363,8.363,0,0,0,0-2H26ZM24,57a3.009,3.009,0,0,1-3,3H7a3.009,3.009,0,0,1-3-3V54H24Zm0-5H4V34H24Zm0-20H4V31a3.009,3.009,0,0,1,3-3H21a3.009,3.009,0,0,1,3,3ZM55,6a5,5,0,1,1-5,5A5,5,0,0,1,55,6ZM28,14V8H48.69A6.884,6.884,0,0,0,48,11a6.963,6.963,0,0,0,.28,1.95L47.67,14Zm21.1,1.5.24-.4a6.985,6.985,0,0,0,5.26,2.88L44.76,35.03a7.019,7.019,0,0,0-5.2-3ZM34,39a5,5,0,1,1,5,5A5,5,0,0,1,34,39ZM26,49.24,27.62,46H50.38l4,8H26ZM61,60H24.97A4.924,4.924,0,0,0,26,57V56H61Z"></path><path d="M39,36a3,3,0,1,0,3,3A3,3,0,0,0,39,36Zm0,4a1,1,0,1,1,1-1A1,1,0,0,1,39,40Z"></path><path d="M55,14a3,3,0,1,0-3-3A3,3,0,0,0,55,14Zm0-4a1,1,0,1,1-1,1A1,1,0,0,1,55,10Z"></path><rect x="26" y="18" width="2" height="2"></rect><rect x="30" y="18" width="8" height="2"></rect><rect x="48" y="29.804" width="12" height="2" transform="translate(0.326 62.172) rotate(-60.005)"></rect><rect x="57.5" y="22.01" width="2" height="2" transform="translate(9.327 62.172) rotate(-60.005)"></rect></g></svg>