<svg xmlns="http://www.w3.org/2000/svg" viewBox="0 0 64 64" x="0px" y="0px"><g data-name="Gas Extractor"><rect x="28" y="16.056" width="8" height="6.944"></rect><rect x="28" y="12.056" width="8" height="2"></rect><rect x="28" y="4" width="8" height="2.056"></rect><rect x="28" y="8.056" width="8" height="2"></rect><rect x="4" y="33" width="56" height="2"></rect><path d="M19,31H45V25H19Zm12-3h2v2H31Zm-4,0h2v2H27Zm-6,0h4v2H21Z"></path><path d="M17.293,41.293l-2.828,2.828,1.414,1.414L17,44.414V48h2V44.414l1.121,1.121,1.414-1.414-2.828-2.828A1,1,0,0,0,17.293,41.293Z"></path><path d="M17.641,52.437A3.051,3.051,0,0,0,19,50H17c0,.338-.156.5-.641.9a2.862,2.862,0,0,0,0,4.871c.485.4.641.562.641.9,0,.321-.129.471-.64.9A3.044,3.044,0,0,0,15,60h2c0-.321.129-.471.64-.9a2.86,2.86,0,0,0,0-4.869c-.485-.4-.641-.562-.641-.9S17.156,52.84,17.641,52.437Z"></path><path d="M45.293,41.293l-2.828,2.828,1.414,1.414L45,44.414V48h2V44.414l1.121,1.121,1.414-1.414-2.828-2.828A1,1,0,0,0,45.293,41.293Z"></path><path d="M45.641,52.437A3.051,3.051,0,0,0,47,50H45c0,.338-.156.5-.641.9a2.862,2.862,0,0,0,0,4.871c.485.4.641.562.641.9,0,.321-.129.471-.64.9A3.044,3.044,0,0,0,43,60h2c0-.321.129-.471.64-.9a2.86,2.86,0,0,0,0-4.869c-.485-.4-.641-.562-.641-.9S45.156,52.84,45.641,52.437Z"></path><path d="M31.293,41.293l-2.828,2.828,1.414,1.414L31,44.414V48h2V44.414l1.121,1.121,1.414-1.414-2.828-2.828A1,1,0,0,0,31.293,41.293Z"></path><path d="M31.641,52.437A3.051,3.051,0,0,0,33,50H31c0,.338-.156.5-.641.9a2.862,2.862,0,0,0,0,4.871c.485.4.641.562.641.9,0,.321-.129.471-.64.9A3.044,3.044,0,0,0,29,60h2c0-.321.129-.471.64-.9a2.86,2.86,0,0,0,0-4.869c-.485-.4-.641-.562-.641-.9S31.156,52.84,31.641,52.437Z"></path></g></svg>