<svg xmlns="http://www.w3.org/2000/svg" viewBox="0 0 64 64" x="0px" y="0px"><g><rect x="31" y="42" width="2" height="2"></rect><path d="M33.343,20.343a8,8,0,1,0,11.314,0A8.01,8.01,0,0,0,33.343,20.343Zm9.9,9.9a6,6,0,1,1,0-8.486A6.009,6.009,0,0,1,43.243,30.243Z"></path><path d="M61.627,42.971,60,41.344V11a5.006,5.006,0,0,0-5-5H44.5L41.8,2.4A1,1,0,0,0,41,2H19a3,3,0,0,0-3,3V6H9a5.006,5.006,0,0,0-5,5V43a5.006,5.006,0,0,0,5,5H23.9l-.8,8H22a3,3,0,0,0,0,6H42a3,3,0,0,0,0-6H40.905l-.8-8H55c.108,0,.211-.021.316-.027l.655.654a2,2,0,0,0,2.828,0L61.627,45.8A2,2,0,0,0,61.627,42.971ZM55,8a3,3,0,0,1,3,3V39.344l-5.565-5.566a1.029,1.029,0,0,0-1.414,0l-1.694-1.693a12.006,12.006,0,0,0-1.327-14V11a1,1,0,0,0-.2-.6L46,8ZM48.9,38.728,51.728,35.9l1.414,1.415-2.828,2.828ZM42,6l3,4H42Zm4.071,12.929A10.012,10.012,0,1,1,39,16.005,10.009,10.009,0,0,1,46.071,18.929Zm1.414,15.556c.239-.238.457-.489.672-.743l1.45,1.45-1.415,1.415-1.45-1.45C47,34.942,47.247,34.724,47.485,34.485ZM18,5a1,1,0,0,1,1-1H40v6a2,2,0,0,0,2,2h4v4.27a11.995,11.995,0,1,0-.915,20.057L46.757,38H19a1,1,0,0,1-1-1ZM9,8h7V37a2.966,2.966,0,0,0,.184,1H6V11A3,3,0,0,1,9,8ZM43,59a1,1,0,0,1-1,1H22a1,1,0,0,1,0-2H42A1,1,0,0,1,43,59Zm-4.1-3H25.105l.8-8H38.1ZM9,46a3,3,0,0,1-3-3V40H47.343l6,6Zm51.213-1.615-2.828,2.828-5.657-5.657,2.828-2.828,5.658,5.656Z"></path><rect x="22" y="12" width="8" height="2"></rect><rect x="22" y="8" width="4" height="2"></rect><rect x="28" y="8" width="2" height="2"></rect><rect x="22" y="18" width="4" height="2"></rect><rect x="22" y="22" width="4" height="2"></rect></g></svg>