<svg xmlns="http://www.w3.org/2000/svg" viewBox="0 0 64 64" x="0px" y="0px"><g data-name="Charger"><path d="M19,19.278a2.015,2.015,0,0,1,.722.722H30.278A2.015,2.015,0,0,1,31,19.278V12.722A2.015,2.015,0,0,1,30.278,12H19.722a2.015,2.015,0,0,1-.722.722Z"></path><path d="M19.722,10H30.278A2.015,2.015,0,0,1,31,9.278V4H19V9.278A2.015,2.015,0,0,1,19.722,10Z"></path><path d="M4,28H17V22.722A2.015,2.015,0,0,1,16.278,22H4Z"></path><path d="M17,9.278V4H4v6H16.278A2.015,2.015,0,0,1,17,9.278Z"></path><path d="M4,20H16.278A2.015,2.015,0,0,1,17,19.278V12.722A2.015,2.015,0,0,1,16.278,12H4Z"></path><path d="M19,28H31V22.722A2.015,2.015,0,0,1,30.278,22H19.722a2.015,2.015,0,0,1-.722.722Z"></path><path d="M60,4H47V9.278a2.015,2.015,0,0,1,.722.722H60Z"></path><path d="M60,22H47.722a2.015,2.015,0,0,1-.722.722V28H60Z"></path><path d="M45,4H33V9.278a2.015,2.015,0,0,1,.722.722H44.278A2.015,2.015,0,0,1,45,9.278Z"></path><path d="M60,12H47.722a2.015,2.015,0,0,1-.722.722v6.556a2.015,2.015,0,0,1,.722.722H60Z"></path><path d="M45,22.722A2.015,2.015,0,0,1,44.278,22H33.722a2.015,2.015,0,0,1-.722.722V28H45Z"></path><rect x="30" y="30" width="4" height="1"></rect><path d="M45,12.722A2.015,2.015,0,0,1,44.278,12H33.722a2.015,2.015,0,0,1-.722.722v6.556a2.015,2.015,0,0,1,.722.722H44.278A2.015,2.015,0,0,1,45,19.278Z"></path><rect x="13" y="36" width="6" height="1"></rect><path d="M10,60H22a1,1,0,0,0,1-1V37a1,1,0,0,0-1-1H21v1a2,2,0,0,1-2,2H13a2,2,0,0,1-2-2V36H10a1,1,0,0,0-1,1V59A1,1,0,0,0,10,60Zm3.293-12.707,4-4,1.414,1.414L16.414,47H18a1,1,0,0,1,.707,1.707l-4,4-1.414-1.414L15.586,49H14a1,1,0,0,1-.707-1.707Z"></path><path d="M39,47H33.721A2.009,2.009,0,0,0,33,46.279V33H31V46.279a2.009,2.009,0,0,0-.721.721H25v2h5.279a1.981,1.981,0,0,0,3.442,0H39Z"></path><rect x="45" y="36" width="6" height="1"></rect><path d="M42,60H54a1,1,0,0,0,1-1V37a1,1,0,0,0-1-1H53v1a2,2,0,0,1-2,2H45a2,2,0,0,1-2-2V36H42a1,1,0,0,0-1,1V59A1,1,0,0,0,42,60Zm3.293-12.707,4-4,1.414,1.414L48.414,47H50a1,1,0,0,1,.707,1.707l-4,4-1.414-1.414L47.586,49H46a1,1,0,0,1-.707-1.707Z"></path></g></svg>