<svg xmlns="http://www.w3.org/2000/svg" viewBox="0 0 64 64" x="0px" y="0px"><g data-name="Smart Car-Internet of Things-Car-Control-Internet"><path d="M46.051,20.949l1.414-1.414a5,5,0,0,1,0-7.07l-1.414-1.414a7,7,0,0,0,0,9.9Z"></path><path d="M55.949,20.949a7,7,0,0,0,0-9.9l-1.414,1.414a5,5,0,0,1,0,7.07Z"></path><path d="M44.636,22.364a9.01,9.01,0,0,1,0-12.728L43.222,8.222a11.012,11.012,0,0,0,0,15.556Z"></path><path d="M57.364,22.364l1.414,1.414a11.012,11.012,0,0,0,0-15.556L57.364,9.636A9.01,9.01,0,0,1,57.364,22.364Z"></path><polygon points="21.38 38 12.62 38 10.62 42 23.38 42 21.38 38"></polygon><path d="M9,44a1,1,0,0,0-1,1v2a1,1,0,0,0,1,1H25a1,1,0,0,0,1-1V45a1,1,0,0,0-1-1Zm3,3H10V45h2Zm12,0H22V45h2Z"></path><rect x="37" y="34" width="23" height="2"></rect><rect x="52" y="44" width="2" height="4"></rect><path d="M20.535,29.465a5,5,0,0,0-7.07,0l1.414,1.414a3.072,3.072,0,0,1,4.242,0Z"></path><path d="M21.95,28.05l1.414-1.414a9.012,9.012,0,0,0-12.728,0L12.05,28.05A7.009,7.009,0,0,1,21.95,28.05Z"></path><path d="M15.586,32.586,17,34l1.414-1.414A2,2,0,0,0,15.586,32.586Z"></path><path d="M58,52V38H39V52H24V50H21v2H13V50H10v2H2v2H62V52Zm-8-9a1,1,0,0,1,1-1h4a1,1,0,0,1,1,1v6a1,1,0,0,1-1,1H51a1,1,0,0,1-1-1Zm-4,9V44H43v8H41V43a1,1,0,0,1,1-1h5a1,1,0,0,1,1,1v9Z"></path><path d="M28,40H26a.988.988,0,0,0-.89.55L24.39,42H28Z"></path><path d="M8.89,40.55A.988.988,0,0,0,8,40H6v2H9.62Z"></path><path d="M50.03,17.74,46.23,32H48.3l.53-2h4.34l.53,2h2.07l-3.8-14.26a2,2,0,1,0-1.94,0ZM52.1,26l.53,2H49.37l.53-2ZM51,21.88,51.57,24H50.43Z"></path></g></svg>