<svg xmlns="http://www.w3.org/2000/svg" viewBox="0 0 64 64" x="0px" y="0px"><g><path d="M11.414,56H52.586l-4-4H15.414ZM46,53h2v2H46Zm-4,0h2v2H42ZM24,53H40v2H24Zm-4,0h2v2H20Zm-4,0h2v2H16Z"></path><rect x="10" y="58" width="44" height="2"></rect><path d="M19,50H17V48a1,1,0,0,0-1-1H10a3,3,0,0,1,0-6h6a1,1,0,0,0,1-1V38h2v2a3,3,0,0,1-3,3H10a1,1,0,0,0,0,2h6a3,3,0,0,1,3,3Z"></path><rect x="28" y="16" width="3" height="3"></rect><rect x="28" y="21" width="3" height="3"></rect><rect x="33" y="21" width="3" height="3"></rect><rect x="28" y="8" width="8" height="2"></rect><rect x="33" y="16" width="3" height="3"></rect><path d="M25,28H39a1,1,0,0,0,1-1V5a1,1,0,0,0-1-1H25a1,1,0,0,0-1,1V27A1,1,0,0,0,25,28ZM26,7a1,1,0,0,1,1-1H37a1,1,0,0,1,1,1v4a1,1,0,0,1-1,1H27a1,1,0,0,1-1-1Zm0,8a1,1,0,0,1,1-1H37a1,1,0,0,1,1,1V25a1,1,0,0,1-1,1H27a1,1,0,0,1-1-1Z"></path><rect x="28" y="38" width="8" height="4"></rect><path d="M53,9V30H39a3.009,3.009,0,0,0,3-3V8H52A1,1,0,0,1,53,9Z"></path><path d="M25,30H11V9a1,1,0,0,1,1-1H22V27A3.009,3.009,0,0,0,25,30Z"></path><path d="M11,35a1,1,0,0,0,1,1H52a1,1,0,0,0,1-1V32H11Zm36-2h2v2H47Z"></path><rect x="23" y="44" width="18" height="2"></rect></g></svg>