<svg xmlns="http://www.w3.org/2000/svg" viewBox="0 0 64 64" x="0px" y="0px"><g data-name="Computer-File-Office Supplies-Plan-Stationery"><path d="M53.983,14.75l1.325-1.5A5,5,0,0,0,52,12H24v2H52A2.989,2.989,0,0,1,53.983,14.75Z"></path><rect x="49" y="44" width="2" height="2"></rect><path d="M9,40V28H7V45a5,5,0,0,0,5,5H23.87l-.75,6H22a3,3,0,0,0,0,6H42a3,3,0,0,0,0-6H40.88l-.75-6H52a5,5,0,0,0,5-5V40ZM42,58a1,1,0,0,1,0,2H22a1,1,0,0,1,0-2ZM25.13,56l.75-6H38.12l.75,6ZM55,45a3.009,3.009,0,0,1-3,3H12a3.009,3.009,0,0,1-3-3V42H55Z"></path><path d="M57,28H32a1.006,1.006,0,0,0-.555.168L28.7,30H27a3,3,0,0,0,0,6h1.7l2.748,1.832A1.006,1.006,0,0,0,32,38H57a5,5,0,0,0,0-10Zm-6,4H34V30H51ZM34,34H51v2H34Zm19-4h1v6H53ZM26,33a1,1,0,0,1,1-1h1v2H27A1,1,0,0,1,26,33Zm4,1.465v-2.93L32,30.2v5.6ZM57,36H56V30h1a3,3,0,0,1,0,6Z"></path><path d="M61,16H25a1,1,0,0,0-1,1v8a1,1,0,0,0,1,1H61a1,1,0,0,0,1-1V17A1,1,0,0,0,61,16Zm-1,8H56V20H54v4H52V22H50v2H48V22H46v2H44V20H42v4H40V22H38v2H36V22H34v2H32V20H30v4H26V18H60Z"></path><path d="M22,23V9a1,1,0,0,0-.293-.707l-6-6A1,1,0,0,0,15,2H5A3,3,0,0,0,2,5V23a3,3,0,0,0,3,3H19A3,3,0,0,0,22,23ZM16,5.414,18.586,8H17a1,1,0,0,1-1-1ZM4,23V5A1,1,0,0,1,5,4h9V7a3,3,0,0,0,3,3h3V23a1,1,0,0,1-1,1H5A1,1,0,0,1,4,23Z"></path><rect x="6" y="12" width="12" height="2"></rect><rect x="6" y="16" width="12" height="2"></rect><rect x="6" y="20" width="12" height="2"></rect><rect x="6" y="8" width="6" height="2"></rect><rect x="13" y="28" width="8" height="2"></rect><rect x="13" y="32" width="8" height="2"></rect><rect x="13" y="36" width="8" height="2"></rect></g></svg>