<svg xmlns="http://www.w3.org/2000/svg" viewBox="0 0 64 64" x="0px" y="0px"><g data-name="Dust Bower"><path d="M45.543,17.241a1,1,0,0,0-1.366-.366L13,34.875A13.921,13.921,0,0,0,6.08,45.8L3.009,47.571a3.007,3.007,0,0,0-1.1,4.1l4.5,7.794a3,3,0,0,0,4.1,1.1l2.5-1.444A13.992,13.992,0,0,0,32.125,40a13.787,13.787,0,0,0-2.146-2.8L48.27,23.743a1,1,0,0,0,.273-1.3ZM9.51,58.83a1,1,0,0,1-1.366-.366l-4.5-7.794A1,1,0,0,1,4.01,49.3l2.035-1.175c0,.027.009.054.012.082.038.448.1.892.18,1.334.018.1.04.193.06.29.083.4.182.8.3,1.193.017.057.03.114.048.17.135.43.3.851.473,1.268.043.1.087.2.132.3.187.413.388.821.616,1.218L7.875,54h0a13.95,13.95,0,0,0,.836,1.264c.091.125.189.244.284.366q.338.429.706.831c.11.119.217.238.331.353q.457.463.955.885c.054.046.1.1.16.142l.029.026ZM27.765,37.872A11.99,11.99,0,0,1,13.551,57.117a12.115,12.115,0,0,1-1.171-.846A11.854,11.854,0,0,1,9.608,53c-.144-.249-.279-.5-.4-.76a11.893,11.893,0,0,1-1.2-4.925q-.011-.426.01-.854h0v0A11.956,11.956,0,0,1,14,36.607l26.847-15.5,2.274,3.94L27.819,36.3a1,1,0,0,0-.054,1.568ZM44.742,23.855l-2.163-3.748,1.732-1,2.052,3.555Z"></path><path d="M21.294,42.171A5,5,0,1,0,24.33,44.5,4.961,4.961,0,0,0,21.294,42.171Zm1.6,5.605a3,3,0,1,1-.3-2.276h0A2.98,2.98,0,0,1,22.9,47.776Z"></path><path d="M61.147,10.576a2.924,2.924,0,0,0-2.591-.682,3.017,3.017,0,0,0-2.388,2.971,1,1,0,0,0,1.5.838h0a.936.936,0,0,0,.5-.822,1,1,0,1,1,1.5.825l-6.062,3.5a1,1,0,0,0-.366,1.366h0a1,1,0,0,0,1.366.366l6.063-3.5A3.01,3.01,0,0,0,61.147,10.576Z"></path><path d="M52.471,13.241l-4.33,2.5a1,1,0,0,0-.366,1.366h0a1,1,0,0,0,1.366.366l4.2-2.424a3.211,3.211,0,0,0,1.388-1.488A3,3,0,1,0,48.972,12.4a1,1,0,0,0,1.5.836h0a.937.937,0,0,0,.5-.822,1,1,0,1,1,1.965.218A.99.99,0,0,1,52.471,13.241Z"></path></g></svg>