<svg xmlns="http://www.w3.org/2000/svg" viewBox="0 0 64 64" x="0px" y="0px"><g data-name="Browser"><circle cx="32" cy="24" r="6"></circle><circle cx="14" cy="24" r="6"></circle><path d="M4,60H60V12H4Zm13-4H7V54H17Zm4,0H19V54h2Zm0-4H7V50H21Zm0-4H7V46H21Zm0-4H7V42H21Zm0-4H7V38H21ZM7,36V34H9v2Zm14,0H11V34H21ZM35,56H25V54H35Zm4,0H37V54h2Zm0-4H25V50H39Zm0-4H25V46H39Zm0-4H25V42H39Zm0-4H25V38H39ZM25,36V34h2v2Zm14,0H29V34H39ZM53,56H43V54H53Zm4,0H55V54h2Zm0-4H43V50H57Zm0-4H43V46H57Zm0-4H43V42H57Zm0-4H43V38H57ZM43,36V34h2v2Zm14,0H47V34H57ZM50,16a8,8,0,1,1-8,8A8.009,8.009,0,0,1,50,16ZM32,16a8,8,0,1,1-8,8A8.009,8.009,0,0,1,32,16ZM14,16a8,8,0,1,1-8,8A8.009,8.009,0,0,1,14,16Z"></path><circle cx="50" cy="24" r="6"></circle><path d="M60,4H4v6H60ZM8,8H6V6H8Zm4,0H10V6h2Zm4,0H14V6h2ZM58,8H56V6h2Z"></path></g></svg>