<svg xmlns="http://www.w3.org/2000/svg" viewBox="0 0 64 64" x="0px" y="0px"><g data-name="skyscraper-building-tower-city-real estate"><path d="M59,60V28H53V60H51V24H41V60H39V16H25V60H23V24H13V60H11V28H5V60H2v2H62V60ZM55,30h2v2H55Zm0,4h2v2H55Zm0,4h2v2H55Zm0,4h2v2H55Zm0,4h2v2H55Zm0,4h2v2H55Zm0,4h2v2H55ZM47,26h2v2H47Zm0,4h2v2H47Zm0,4h2v2H47Zm0,4h2v2H47Zm0,4h2v2H47Zm0,4h2v2H47Zm0,4h2v2H47Zm0,4h2v2H47ZM43,26h2v2H43Zm0,4h2v2H43Zm0,4h2v2H43Zm0,4h2v2H43Zm0,4h2v2H43Zm0,4h2v2H43Zm0,4h2v2H43Zm0,4h2v2H43ZM19,26h2v2H19Zm0,4h2v2H19Zm0,4h2v2H19Zm0,4h2v2H19Zm0,4h2v2H19Zm0,4h2v2H19Zm0,4h2v2H19Zm0,4h2v2H19ZM15,26h2v2H15Zm0,4h2v2H15Zm0,4h2v2H15Zm0,4h2v2H15Zm0,4h2v2H15Zm0,4h2v2H15Zm0,4h2v2H15Zm0,4h2v2H15ZM7,30H9v2H7Zm0,4H9v2H7Zm0,4H9v2H7Zm0,4H9v2H7Zm0,4H9v2H7Zm0,4H9v2H7Zm0,4H9v2H7ZM35,18h2v2H35Zm0,4h2v2H35Zm0,4h2v2H35Zm0,4h2v2H35Zm0,4h2v2H35Zm0,4h2v2H35Zm0,4h2v2H35Zm0,4h2v2H35Zm0,4h2v2H35ZM31,18h2v2H31Zm0,4h2v2H31Zm0,4h2v2H31Zm0,4h2v2H31Zm0,4h2v2H31Zm0,4h2v2H31Zm0,4h2v2H31Zm0,4h2v2H31Zm0,4h2v2H31ZM27,18h2v2H27Zm0,4h2v2H27Zm0,4h2v2H27Zm0,4h2v2H27Zm0,4h2v2H27Zm0,4h2v2H27Zm0,4h2v2H27Zm0,4h2v2H27Zm0,4h2v2H27Zm7,10V56H30v4H28V55a1,1,0,0,1,1-1h6a1,1,0,0,1,1,1v5Z"></path><polygon points="34 8 33 8 33 3 31 3 31 8 30 8 30 10 34 10 34 8"></polygon><rect x="28" y="12" width="8" height="2"></rect></g></svg>