<svg xmlns="http://www.w3.org/2000/svg" viewBox="0 0 64 64" x="0px" y="0px"><title>Money-Transfer</title><g><path d="M31,21v1.09A6.006,6.006,0,0,0,26,28c0,3.566,2.914,5.314,5.485,6.857C33.908,36.311,36,37.566,36,40a4,4,0,0,1-8,0,1,1,0,0,0-2,0,6.006,6.006,0,0,0,5,5.91V47a1,1,0,0,0,2,0V45.91A6.006,6.006,0,0,0,38,40c0-3.566-2.914-5.314-5.485-6.857C30.092,31.689,28,30.434,28,28a4,4,0,0,1,8,0,1,1,0,0,0,2,0,6.006,6.006,0,0,0-5-5.91V21a1,1,0,0,0-2,0Z"></path><path d="M14,34A18,18,0,1,0,32,16,18.021,18.021,0,0,0,14,34Zm34,0A16,16,0,1,1,32,18,16.019,16.019,0,0,1,48,34Z"></path><path d="M37.22,8.524a1,1,0,0,0-.4,1.959,24.021,24.021,0,1,1-7.37-.346l-2.4,2.4a1,1,0,1,0,1.414,1.414l4.241-4.241a.99.99,0,0,0,.217-.326,1,1,0,0,0,0-.764.99.99,0,0,0-.217-.326L28.465,4.051a1,1,0,0,0-1.414,1.414l2.643,2.643a25.961,25.961,0,1,0,7.526.416Z"></path></g></svg>