<svg xmlns="http://www.w3.org/2000/svg" viewBox="0 0 64 64" x="0px" y="0px"><g><path d="M7,50.105a6.988,6.988,0,0,1,4-2.025V36.1A5.009,5.009,0,0,0,7,41Z"></path><path d="M37,21a5,5,0,0,1-1-.1V22a1,1,0,0,1-1,1H34v2h6V23H39a1,1,0,0,1-1-1V20.9A5,5,0,0,1,37,21Z"></path><rect x="13" y="4" width="2" height="44"></rect><path d="M40,19.974V21a8.933,8.933,0,0,1,3.184.593A1.968,1.968,0,0,0,44,20a2,2,0,0,0-2-2,1,1,0,0,1-.387-.078A5,5,0,0,1,40,19.974Z"></path><path d="M57,50H12a5,5,0,0,0,0,10H57V58H13a3,3,0,0,1,0-6H57Z"></path><path d="M12,55a1,1,0,0,0,1,1H57V54H13A1,1,0,0,0,12,55Z"></path><path d="M7,19.11a6.98,6.98,0,0,1,4-2.03V4.1A5.009,5.009,0,0,0,7,9Z"></path><path d="M7,36.11a6.98,6.98,0,0,1,4-2.03V19.1A5.009,5.009,0,0,0,7,24Z"></path><path d="M30.816,21.593A8.933,8.933,0,0,1,34,21V19.974a5,5,0,0,1-1.613-2.052A1,1,0,0,1,32,18a2,2,0,0,0-2,2A1.968,1.968,0,0,0,30.816,21.593Z"></path><path d="M42,23.3V26a1,1,0,0,1-1,1H33a1,1,0,0,1-1-1V23.3A7.009,7.009,0,0,0,27,30v5h1V31a1.006,1.006,0,0,1,.168-.555l2-3,1.664,1.11L30,31.3V44H44V31.3l-1.832-2.748,1.664-1.11,2,3A1.006,1.006,0,0,1,46,31v4h1V30A7.009,7.009,0,0,0,42,23.3Z"></path><path d="M57,4H17V48H57ZM23,37H21V35h2Zm0-7v3H21V30a12.874,12.874,0,0,1,1.183-5.418L24,25.418A10.878,10.878,0,0,0,23,30Zm26,6a1,1,0,0,1-1,1H46v8a1,1,0,0,1-1,1H29a1,1,0,0,1-1-1V37H26a1,1,0,0,1-1-1V30a9,9,0,0,1,3.936-7.434A4,4,0,0,1,31,16.126V12a6,6,0,0,1,12,0v4.126a4,4,0,0,1,2.064,6.44A9,9,0,0,1,49,30Zm4,1H51V35h2Zm0-4H51V30a10.878,10.878,0,0,0-1-4.582l1.817-.836A12.874,12.874,0,0,1,53,30Z"></path><path d="M40,14.885a2.981,2.981,0,0,1-1.293-.764L38,13.414l-.122.122A4.966,4.966,0,0,1,34.343,15H34v1a3,3,0,0,0,6,0Z"></path><path d="M36.464,12.122l.829-.829a1,1,0,0,1,1.414,0l1.414,1.414a1,1,0,0,0,.708.293H41V12a4,4,0,1,0-8,0v1h1.343A3.02,3.02,0,0,0,36.464,12.122Z"></path></g></svg>