<svg xmlns="http://www.w3.org/2000/svg" viewBox="0 0 64 64" x="0px" y="0px"><g><path d="M60,60V42a3.009,3.009,0,0,0-3-3H36V27.49l.58.59a2.019,2.019,0,0,0,2.18.43A1.988,1.988,0,0,0,40,26.66V25.25a2.016,2.016,0,0,0-.58-1.41L22.62,7.04a3.018,3.018,0,0,0-4.24,0L2.58,22.84A2.016,2.016,0,0,0,2,24.25v1.42a1.993,1.993,0,0,0,3.41,1.41L6,26.49V60H2v2H62V60ZM4,25.67V24.26L19.8,8.46a.984.984,0,0,1,1.4,0L38,25.25v1.41L21.21,9.87a1.014,1.014,0,0,0-1.42,0ZM30,60H24V44h6Zm4,0H32V44a2.006,2.006,0,0,0-2-2H24a2.006,2.006,0,0,0-2,2V60H8V24.49l12.5-12.5L34,25.49Zm24,0H36V55H58Zm0-7H36V48H58Zm0-7H36V41H57a1,1,0,0,1,1,1Z"></path><path d="M18,25H12a2,2,0,0,0-2,2V37a2,2,0,0,0,2,2h6a2,2,0,0,0,2-2V27A2,2,0,0,0,18,25Zm0,6H16V27h2Zm-4-4v4H12V27Zm-2,6h2v4H12Zm4,4V33h2v4Z"></path><path d="M18,42H12a2,2,0,0,0-2,2V54a2,2,0,0,0,2,2h6a2,2,0,0,0,2-2V44A2,2,0,0,0,18,42Zm0,6H16V44h2Zm-4-4v4H12V44Zm-2,6h2v4H12Zm4,4V50h2v4Z"></path><path d="M24,39h6a2,2,0,0,0,2-2V27a2,2,0,0,0-2-2H24a2,2,0,0,0-2,2V37A2,2,0,0,0,24,39Zm0-6h2v4H24Zm4,4V33h2v4Zm2-6H28V27h2Zm-4-4v4H24V27Z"></path><rect x="25" y="51" width="2" height="2"></rect></g></svg>