<svg xmlns="http://www.w3.org/2000/svg" viewBox="0 0 64 64" x="0px" y="0px"><g data-name="Call Center-Logistics-Customer-Phone-Service-Support"><path d="M27,20V13.25c-.42.08-.79.17-1.14.26A13.541,13.541,0,0,1,22,14a11.336,11.336,0,0,1-3.89-.61A7.332,7.332,0,0,0,17,13.08V15a1,1,0,0,1-1,1h-.56A3.906,3.906,0,0,1,16,18a3.987,3.987,0,0,1-.57,2.02L17.41,22H20v2H17a1.033,1.033,0,0,1-.71-.29l-2.27-2.28a3.57,3.57,0,0,1-.77.35A6.989,6.989,0,0,0,27,20Zm-7-2H18V16h2Zm3-2h2v2H23Z"></path><path d="M17,28.48V30a2,2,0,0,0,4,0V28.94A8.262,8.262,0,0,1,20,29,9.138,9.138,0,0,1,17,28.48Z"></path><rect x="4" y="50" width="56" height="2"></rect><circle cx="12" cy="18" r="2"></circle><rect x="7" y="54" width="50" height="6"></rect><path d="M12,48V45H10a1,1,0,0,1-1-1V38h2v5h3a5,5,0,0,1,5,5h5.18A3,3,0,0,1,24,47V45a1,1,0,0,1,1-1h2V38h2v6h3V39.6a6.988,6.988,0,0,0-4.61-6.57l-4.64-1.69a3.973,3.973,0,0,1-7.5,0l-4.64,1.69A6.988,6.988,0,0,0,6,39.6V45a3.009,3.009,0,0,0,3,3Z"></path><path d="M13,14h2V12a1,1,0,0,1,1-1,7.905,7.905,0,0,1,2.72.48A9.157,9.157,0,0,0,22,12a11.485,11.485,0,0,0,3.37-.43c.47-.12.98-.24,1.63-.36V8H16a3.009,3.009,0,0,0-3,3Z"></path><path d="M36.18,48h1.97l2.67-16h-.28a1.989,1.989,0,0,0-1.97,1.67Z"></path><circle cx="49" cy="40" r="1"></circle><path d="M54.31,48a.989.989,0,0,0,.98-.84l2.34-14A1,1,0,0,0,56.64,32H42.85L40.18,48ZM49,37a3,3,0,1,1-3,3A3,3,0,0,1,49,37Z"></path><path d="M26,47a1,1,0,0,0,1,1h7.15l.34-2H26Z"></path><path d="M14,48h3a3.009,3.009,0,0,0-3-3Z"></path><rect x="42" y="10" width="2" height="2"></rect><path d="M42,20H52V14H50v1a.987.987,0,0,1-.62.92A.838.838,0,0,1,49,16a1.007,1.007,0,0,1-.71-.29L47,14.41l-1.29,1.3a1,1,0,0,1-1.09.21A.987.987,0,0,1,44,15V14H42Z"></path><rect x="50" y="10" width="2" height="2"></rect><path d="M46.29,12.29a1.014,1.014,0,0,1,1.42,0l.29.3V10H46v2.59Z"></path><rect x="46" y="2" width="2" height="2"></rect><rect x="37.515" y="5.515" width="2" height="2" transform="translate(6.674 29.142) rotate(-45)"></rect><rect x="34" y="14" width="2" height="2"></rect><rect x="37.515" y="22.485" width="2" height="2" transform="translate(-5.326 34.113) rotate(-45)"></rect><rect x="46" y="26" width="2" height="2"></rect><rect x="54.485" y="22.485" width="2" height="2" transform="translate(-0.355 46.113) rotate(-45)"></rect><rect x="58" y="14" width="2" height="2"></rect><rect x="54.485" y="5.515" width="2" height="2" transform="translate(11.645 41.142) rotate(-45)"></rect></g></svg>