<svg xmlns="http://www.w3.org/2000/svg" viewBox="0 0 64 64" x="0px" y="0px"><g><polygon points="25.883 50 25.133 56 38.867 56 38.117 50 25.883 50"></polygon><path d="M6,45a3,3,0,0,0,3,3H55a3,3,0,0,0,3-3V42H6Zm47-1h2v2H53Z"></path><path d="M33,18V16H31v2a1,1,0,0,1-1,1H28v2h2a1,1,0,0,1,1,1v2h2V22a1,1,0,0,1,1-1h2V19H34A1,1,0,0,1,33,18Z"></path><polygon points="42 58 22 58 22 60 18 60 18 62 46 62 46 60 42 60 42 58"></polygon><path d="M55,10H47V36a2,2,0,0,1-2,2H19a2,2,0,0,1-2-2V10H9a3,3,0,0,0-3,3V40H58V13A3,3,0,0,0,55,10Z"></path><path d="M45,10H41a2,2,0,0,1-2-2V4H19V36H45ZM32,30A10,10,0,1,1,42,20,10.011,10.011,0,0,1,32,30Z"></path><polygon points="41 5.414 41 8 43.586 8 41 5.414"></polygon><path d="M32,12a8,8,0,1,0,8,8A8.009,8.009,0,0,0,32,12Zm6,6v4a1,1,0,0,1-1,1H35v2a1,1,0,0,1-1,1H30a1,1,0,0,1-1-1V23H27a1,1,0,0,1-1-1V18a1,1,0,0,1,1-1h2V15a1,1,0,0,1,1-1h4a1,1,0,0,1,1,1v2h2A1,1,0,0,1,38,18Z"></path></g></svg>