<svg xmlns="http://www.w3.org/2000/svg" viewBox="0 0 64 64" x="0px" y="0px"><g><path d="M21.523,34.677a1,1,0,0,1,0-1.414,1.029,1.029,0,0,1,1.414,0,.987.987,0,0,1,.261.455,1,1,0,0,0,1.751.382,1.4,1.4,0,0,1,.11-.129,1,1,0,0,1,1.415,1.414L27.888,36.8a3,3,0,0,0-3.419-4.826c-.038-.042-.077-.083-.117-.124a3.08,3.08,0,0,0-4.243,0,3,3,0,0,0,0,4.243Z"></path><path d="M50.808,26.678a1,1,0,0,1-.707.293.984.984,0,0,1-.208-.042l-.062.186,2.077,2.078,2.365-5.2a.988.988,0,0,0,.007-.785Z"></path><path d="M55.758,12.243a1,1,0,1,0,.707.293A1,1,0,0,0,55.758,12.243Z"></path><path d="M45.8,14.72a.983.983,0,0,0-.785.007l-5.2,2.364,2.078,2.078.184-.061a.985.985,0,0,1,.252-.916Z"></path><polygon points="46.998 24.282 44.718 22.002 44.246 22.945 46.055 24.754 46.998 24.282"></polygon><path d="M59.293,9.707c-.266-.266-1.643-.605-4.947.014a2.96,2.96,0,0,0-1.548.824L44.443,18.9l2.122,2.122,4.243-4.243,1.414,1.414-4.243,4.243L50.1,24.557,58.455,16.2a2.947,2.947,0,0,0,.823-1.548C59.9,11.351,59.56,9.974,59.293,9.707Zm-1.414,5.657a3,3,0,1,1,0-4.242A2.992,2.992,0,0,1,57.879,15.364Z"></path><path d="M38.08,26.92a3.975,3.975,0,0,0-2.829,1.172c-1.9,1.9-1.516,5.5-1.272,6.928,1.433.245,5.033.625,6.929-1.271A4,4,0,0,0,38.08,26.92Zm0,5.414L36.666,30.92l1.414-1.414,1.414,1.414Z"></path><path d="M47.272,30.213a7,7,0,0,0,0,9.9L48.687,38.7a5,5,0,0,1,0-7.072Z"></path><path d="M38.787,21.728l-1.414-1.414a5.007,5.007,0,0,1-7.071,0l-1.414,1.414a7.007,7.007,0,0,0,9.9,0Z"></path><rect x="49.101" y="40.527" width="2" height="2" transform="translate(-14.69 47.589) rotate(-45)"></rect><rect x="26.473" y="17.899" width="2" height="2" transform="translate(-5.315 24.973) rotate(-45.02)"></rect><rect x="55.535" y="31.264" width="6" height="2" transform="translate(-5.669 50.841) rotate(-45)"></rect><rect x="53.293" y="35.506" width="2" height="2" transform="translate(-9.909 49.094) rotate(-45.01)"></rect><rect x="55.95" y="41.335" width="6" height="2" transform="translate(-12.669 54.083) rotate(-45)"></rect><rect x="53.707" y="45.577" width="2" height="2" transform="translate(-16.912 52.326) rotate(-45)"></rect><rect x="34.736" y="6.465" width="6" height="2" transform="translate(5.774 28.87) rotate(-45)"></rect><rect x="32.494" y="10.707" width="2" height="2" transform="translate(1.532 27.113) rotate(-45)"></rect><rect x="24.665" y="7.05" width="6" height="2" transform="translate(2.411 21.92) rotate(-45)"></rect><rect x="22.423" y="11.293" width="2" height="2" transform="translate(-1.832 20.163) rotate(-45)"></rect><rect x="8.343" y="25" width="11.314" height="2" transform="translate(-14.284 17.515) rotate(-45)"></rect><rect x="5.586" y="32" width="2.828" height="2" transform="translate(-21.284 14.615) rotate(-45)"></rect><rect x="4.722" y="10.5" width="15.556" height="2" transform="translate(-4.471 12.207) rotate(-45)"></rect><rect x="2.586" y="19" width="2.828" height="2" transform="translate(-12.971 8.686) rotate(-45)"></rect><path d="M50,60a4,4,0,0,0,0-8,3.826,3.826,0,0,0-.856.095,1,1,0,0,1-1.209-.8,4,4,0,0,0-6.406-2.438,1,1,0,0,1-1.6-.6A4,4,0,0,0,32,49H30a5.959,5.959,0,0,1,.648-2.7,4.648,4.648,0,0,0-3.3,0A5.959,5.959,0,0,1,28,49H26a4,4,0,0,0-7.927-.748,1,1,0,0,1-1.6.6,4,4,0,0,0-6.406,2.438,1,1,0,0,1-1.209.8A3.826,3.826,0,0,0,8,52a4,4,0,0,0,0,8H3v2H60V60ZM39,52h2v2H39ZM26,51h2v2H26Zm-9,1h2v2H17Zm-4,8a4,4,0,0,0,4-4h2a5.969,5.969,0,0,1-1.54,4Zm10-2a3,3,0,0,0,3-3h2a5.006,5.006,0,0,1-5,5Zm7-3V53h2v2a3,3,0,0,0,3,3v2A5.006,5.006,0,0,1,30,55Zm10.54,5A5.969,5.969,0,0,1,39,56h2a4,4,0,0,0,4,4Z"></path></g></svg>