<svg xmlns="http://www.w3.org/2000/svg" viewBox="0 0 64 64" x="0px" y="0px"><g data-name="Amplifier-Electronic-Sound Box-Music Box-Audio"><circle cx="24" cy="36" r="1"></circle><circle cx="12" cy="36" r="2"></circle><circle cx="32" cy="36" r="1"></circle><circle cx="52" cy="36" r="2"></circle><circle cx="40" cy="36" r="1"></circle><path d="M12.681,28h3.838l1.522-1.9A6.143,6.143,0,0,0,17,26,5.337,5.337,0,0,0,12.681,28Z"></path><path d="M17,24a7.955,7.955,0,0,1,2.417.377l.8-1,1.562,1.25-.512.641A6.126,6.126,0,0,1,23.58,28H24V22H10v6h.42A7.039,7.039,0,0,1,17,24Z"></path><path d="M20.018,26.829,19.081,28h2.238A4.471,4.471,0,0,0,20.018,26.829Z"></path><rect x="51" y="44" width="4" height="2"></rect><path d="M40,28h.42A7.039,7.039,0,0,1,47,24a7.955,7.955,0,0,1,2.417.377l.8-1,1.562,1.25-.512.641A6.126,6.126,0,0,1,53.58,28H54V22H40Z"></path><path d="M42.681,28h3.838l1.522-1.9A6.143,6.143,0,0,0,47,26,5.337,5.337,0,0,0,42.681,28Z"></path><path d="M60,18H4V42H60ZM29,24h2v2H29ZM8,21a1,1,0,0,1,1-1H25a1,1,0,0,1,1,1v8a1,1,0,0,1-1,1H9a1,1,0,0,1-1-1Zm4,19a4,4,0,1,1,4-4A4,4,0,0,1,12,40Zm12-1a3,3,0,1,1,3-3A3,3,0,0,1,24,39Zm8,0a3,3,0,1,1,3-3A3,3,0,0,1,32,39Zm3-13H33V24h2Zm5,13a3,3,0,1,1,3-3A3,3,0,0,1,40,39Zm12,1a4,4,0,1,1,4-4A4,4,0,0,1,52,40Zm4-11a1,1,0,0,1-1,1H39a1,1,0,0,1-1-1V21a1,1,0,0,1,1-1H55a1,1,0,0,1,1,1Z"></path><rect x="9" y="44" width="4" height="2"></rect><path d="M50.018,26.829,49.081,28h2.238A4.471,4.471,0,0,0,50.018,26.829Z"></path></g></svg>