<svg xmlns="http://www.w3.org/2000/svg" viewBox="0 0 64 64" x="0px" y="0px"><g><path d="M49.856,31.946a3,3,0,0,1,4.1,1.107L57,38.319V8H36a1,1,0,0,0-1,1V40.184A2.966,2.966,0,0,1,36,40H49.062a6.715,6.715,0,0,1,1.23-1.294l-1.537-2.655a3.026,3.026,0,0,1,1.1-4.105ZM39,12H53v2H39Zm0,4H53v2H39Zm0,4H53v2H39Zm8,14H39V32h8Zm0-4H39V28h8Zm-8-4V24H53v2Z"></path><path d="M4,12V44H5.248l.135-2.232A.984.984,0,0,1,5,41V12Z"></path><path d="M23.348,46H16.142a6.858,6.858,0,0,1-.709,1.715l-1.726-1.01a4.885,4.885,0,0,0,.632-1.836,5.058,5.058,0,0,0-.493-2.892,5.105,5.105,0,0,0-1.969-2.1,1,1,0,0,1-.364-1.364l2-3.462a.971.971,0,0,0,.092-.749.986.986,0,0,0-.47-.626.97.97,0,0,0-.75-.095.99.99,0,0,0-.609.468L7.394,41.64l-.256,4.222a1,1,0,0,1-.132.437l-2.5,4.335,12.128,7Z"></path><path d="M32,44a1,1,0,0,0,1-1V11H31V43A1,1,0,0,0,32,44Z"></path><path d="M60,12H59V41a.984.984,0,0,1-.383.768L58.752,44H60Z"></path><path d="M11.293,10.293a1,1,0,0,1,1.414,0l.293.293V8H11v2.586Z"></path><path d="M47.988,42H36a1,1,0,0,0-1,1,2.966,2.966,0,0,1-.184,1H47.632A7.066,7.066,0,0,1,47.988,42Z"></path><path d="M7,8V38.323l3.044-5.273a3,3,0,0,1,5.207,2.99l-1.543,2.666A6.81,6.81,0,0,1,14.937,40H28a2.966,2.966,0,0,1,1,.184V9a1,1,0,0,0-1-1H15v5a1,1,0,0,1-1.707.707L12,12.414l-1.293,1.293A1,1,0,0,1,9,13V8ZM25,34H17V32h8Zm0-4H17V28h8ZM11,16H25v2H11Zm0,4H25v2H11Zm0,4H25v2H11Z"></path><path d="M29,43a1,1,0,0,0-1-1H16.011a7.046,7.046,0,0,1,.358,2H29.184A2.966,2.966,0,0,1,29,43Z"></path><path d="M59.494,50.634l-2.5-4.335a1,1,0,0,1-.132-.437l-.256-4.222-.078-.133-4.3-7.457a1,1,0,0,0-1.363-.375.973.973,0,0,0-.463.606.989.989,0,0,0,.094.779l2,3.451a1,1,0,0,1-.364,1.364,4.861,4.861,0,0,0-1.71,1.647,5.142,5.142,0,0,0-.26.457,5.061,5.061,0,0,0-.491,2.9,4.875,4.875,0,0,0,.631,1.829l-1.726,1.01A6.9,6.9,0,0,1,47.858,46H40.652l6.714,11.634Z"></path></g></svg>