<svg xmlns="http://www.w3.org/2000/svg" viewBox="0 0 64 64" x="0px" y="0px"><g data-name="Smart Microwave-Internet of Things-App-Internet-Smartphone"><polygon points="56 40 56 38 52.62 38 53.62 40 56 40"></polygon><path d="M24,54H4v3a3.009,3.009,0,0,0,3,3H21a3.009,3.009,0,0,0,3-3Zm-9,4H13V56h2Z"></path><path d="M14,38a5,5,0,1,0,5,5A5.006,5.006,0,0,0,14,38Zm1.293,7.707-2-2A1,1,0,0,1,13,43V40h2v2.586l1.707,1.707Z"></path><path d="M60,35V5a1,1,0,0,0-1-1H48V36H59A1,1,0,0,0,60,35Zm-6-5a4,4,0,1,1,4-4A4,4,0,0,1,54,30Zm0-12a4,4,0,1,1,4-4A4,4,0,0,1,54,18Z"></path><path d="M55,24.278V26H53V24.278a2,2,0,1,0,2,0Z"></path><path d="M55,12.278V14H53V12.278a2,2,0,1,0,2,0Z"></path><path d="M24,34H4V52H24ZM14,50a7,7,0,1,1,7-7A7.008,7.008,0,0,1,14,50Z"></path><path d="M33,20H21a3.014,3.014,0,0,0-2.83,2H35.83A3.014,3.014,0,0,0,33,20Z"></path><path d="M26,32H42V8H12V26h4V23a5,5,0,0,1,5-5H33a5,5,0,0,1,5,5v5a2.006,2.006,0,0,1-2,2H25.9a5.468,5.468,0,0,1,.1,1Zm-.168-18.445A3.78,3.78,0,0,0,25,16H23a5.744,5.744,0,0,1,1.168-3.555A3.78,3.78,0,0,0,25,10h2A5.744,5.744,0,0,1,25.832,13.555Zm6,0A3.78,3.78,0,0,0,31,16H29a5.744,5.744,0,0,1,1.168-3.555A3.78,3.78,0,0,0,31,10h2A5.744,5.744,0,0,1,31.832,13.555Z"></path><path d="M46,4H9A1,1,0,0,0,8,5V26h2V7a1,1,0,0,1,1-1H43a1,1,0,0,1,1,1V33a1,1,0,0,1-1,1H26v2H46Z"></path><path d="M24.97,28H36V24H18v2h3A4.952,4.952,0,0,1,24.97,28Z"></path><path d="M24,31a3.009,3.009,0,0,0-3-3H7a3.009,3.009,0,0,0-3,3v1H24Z"></path></g></svg>