<svg xmlns="http://www.w3.org/2000/svg" viewBox="0 0 64 64" x="0px" y="0px"><g><rect x="11" y="40" width="2" height="2"></rect><rect x="17" y="40" width="2" height="2"></rect><path d="M23.846,52.506,19,50.351V48.907a7.969,7.969,0,0,0,3.75-4.941c.084.007.165.034.25.034a3,3,0,0,0,0-6V36A8,8,0,0,0,7,36v2a3,3,0,0,0,0,6c.085,0,.167-.027.252-.035a8,8,0,0,0,2.091,3.693A7.862,7.862,0,0,0,11,48.893v1.458L6.154,52.506A7,7,0,0,0,2,58.9V61a1,1,0,0,0,1,1H27a1,1,0,0,0,1-1V58.9A7,7,0,0,0,23.846,52.506Zm-4.32.267-.234.937-1.583-.528-.367-.735.683-.341ZM15,50a7.915,7.915,0,0,0,2-.262v.644L15.764,51H14.236L13,50.382v-.644A7.921,7.921,0,0,0,15,50Zm-.783,3.8.4-.8h.764l.4.8L15,54.586Zm.088,2.912a.99.99,0,0,0,1.39,0L16.663,60H13.337ZM24,41a1,1,0,0,1-1,1V40A1,1,0,0,1,24,41ZM15,30a6.006,6.006,0,0,1,6,6v.97a2,2,0,0,1-1.6-1.485l-.432-1.728A1,1,0,0,0,17,34a3,3,0,0,1-3,3H9V36A6.006,6.006,0,0,1,15,30ZM6,41a1,1,0,0,1,1-1v2A1,1,0,0,1,6,41Zm3.031,1.58A4.614,4.614,0,0,1,9,42V39h5a5,5,0,0,0,3.93-1.912A3.985,3.985,0,0,0,21,38.978V42a4.6,4.6,0,0,1-.036.614,6,6,0,0,1-8.542,4.8,5.833,5.833,0,0,1-1.665-1.17A5.991,5.991,0,0,1,9.031,42.58Zm2.944,9.526.683.341-.367.735-1.583.528-.234-.937ZM4,58.9a5,5,0,0,1,2.966-4.567L8.619,53.6l.411,1.644A1,1,0,0,0,10,56a1.01,1.01,0,0,0,.316-.051l2.36-.787L11.252,60H4ZM26,60H18.748l-1.424-4.838,2.36.787A1.01,1.01,0,0,0,20,56a1,1,0,0,0,.97-.757l.411-1.644,1.653.735A5,5,0,0,1,26,58.9Z"></path><rect x="44" y="15" width="2" height="2"></rect><rect x="50" y="15" width="2" height="2"></rect><path d="M59.106,29.115a5.98,5.98,0,0,0,.665-9.78A4,4,0,0,0,57,14.126V11a9,9,0,0,0-18,0v3.126a4,4,0,0,0-2.771,5.209A6.028,6.028,0,0,0,34,24a5.966,5.966,0,0,0,2.89,5.115A6.979,6.979,0,0,0,35,33.9V35a1,1,0,0,0,1,1H60a1,1,0,0,0,1-1V33.9A6.969,6.969,0,0,0,59.106,29.115ZM58,18a2.078,2.078,0,0,1-.341,1.128A1,1,0,0,0,58,20.535a3.985,3.985,0,0,1-.678,7.222c-.157-.086-.3-.178-.474-.251L52,25.354V23.918A8,8,0,0,0,56,17V16A2,2,0,0,1,58,18ZM42,14h2.859a4.994,4.994,0,0,0,4.161-2.227l.135-.2.966.966A4.968,4.968,0,0,0,53.657,14H54v3a6,6,0,0,1-12,0Zm3.4,12.917A1,1,0,0,0,46,26V24.737a7.736,7.736,0,0,0,4,0V26a1,1,0,0,0,.587.911l1.586.7a6.986,6.986,0,0,1-8.344,0ZM41,11a7,7,0,0,1,14,0v1H53.657a2.983,2.983,0,0,1-2.122-.878L49.707,9.293a.986.986,0,0,0-.806-.288,1,1,0,0,0-.733.44l-.813,1.219A3,3,0,0,1,44.859,12H41Zm-3,9.535a1,1,0,0,0,.339-1.407A2.078,2.078,0,0,1,38,18a2,2,0,0,1,2-2v1a8,8,0,0,0,4,6.918v1.429c-.019.01-.037.021-.055.032L39.164,27.5c-.171.074-.323.17-.482.257A3.985,3.985,0,0,1,38,20.535ZM59,34H37v-.1a4.991,4.991,0,0,1,2.284-4.2,5.744,5.744,0,0,1,.681-.363l1.945-.864A7.8,7.8,0,0,0,48,31a7.8,7.8,0,0,0,6.091-2.531l1.954.869a5.545,5.545,0,0,1,.644.343A5,5,0,0,1,59,33.9Z"></path><path d="M54.275,37.751a22.969,22.969,0,0,1-19.7,17.088l2.132-2.132-1.414-1.414-4,4a1,1,0,0,0,0,1.414l4,4,1.414-1.414L34.3,56.888A24.977,24.977,0,0,0,56.213,38.249Z"></path><path d="M32.707,7.293l-4-4L27.293,4.707l2.4,2.4A24.9,24.9,0,0,0,7.346,27.834l1.972.332A22.891,22.891,0,0,1,29.428,9.158l-2.135,2.135,1.414,1.414,4-4A1,1,0,0,0,32.707,7.293Z"></path><rect x="38.247" y="58.046" width="2" height="2" transform="translate(-13.945 12.17) rotate(-15)"></rect><rect x="45" y="55.249" width="2" height="2" transform="translate(-21.962 30.538) rotate(-30.002)"></rect><rect x="50.799" y="50.799" width="2" height="2" transform="translate(-21.456 51.799) rotate(-45)"></rect><rect x="55.249" y="45" width="1.999" height="1.999" transform="translate(-11.717 71.702) rotate(-59.991)"></rect><rect x="58.046" y="38.247" width="2" height="2" transform="translate(5.854 86.123) rotate(-75)"></rect><rect x="23.753" y="3.954" width="2" height="2" transform="translate(-0.439 6.575) rotate(-15)"></rect><rect x="17" y="6.751" width="2" height="2" transform="translate(-1.464 10.039) rotate(-30.002)"></rect><rect x="11.201" y="11.201" width="2" height="2" transform="translate(-5.054 12.201) rotate(-45)"></rect><rect x="6.751" y="17" width="2" height="2" transform="translate(-11.713 15.712) rotate(-59.998)"></rect><rect x="3.954" y="23.753" width="2" height="2" transform="translate(-20.238 23.132) rotate(-75)"></rect></g></svg>