<svg xmlns="http://www.w3.org/2000/svg" viewBox="0 0 64 64" x="0px" y="0px"><g><path d="M35,56V53a1,1,0,0,0-1-1H33V40h1a1,1,0,0,0,1-1V35a1,1,0,0,0-.742-.966l-15-4a1,1,0,0,0-.516,0l-15,4A1,1,0,0,0,3,35v4a1,1,0,0,0,1,1H5V52H4a1,1,0,0,0-1,1v3a1,1,0,0,0-1,1v4a1,1,0,0,0,1,1H35a1,1,0,0,0,1-1V57A1,1,0,0,0,35,56Zm-4-4H29V40h2Zm-6,0V40h2V52ZM13,40V52H11V40Zm2,0h8V52H15ZM5,35.768l14-3.733,14,3.733V38H5ZM7,40H9V52H7ZM5,54H33v2H5Zm29,6H4V58H34Z"></path><rect x="18" y="34" width="2" height="2"></rect><path d="M61.929,7.628l-2-5A1,1,0,0,0,59,2H31a1,1,0,0,0-.929.628l-2,5A1.012,1.012,0,0,0,28,8v3a4.977,4.977,0,0,0,2,3.974V28a2,2,0,0,0,2,2H58a2,2,0,0,0,2-2V14.974A4.977,4.977,0,0,0,62,11V8A1.012,1.012,0,0,0,61.929,7.628ZM52,11.034A3,3,0,0,1,46,11V4h5.117ZM38.883,4H44v7a3,3,0,0,1-6,.034ZM30,8.192,31.677,4h5.19l-.859,6.876S36,10.957,36,11a3,3,0,0,1-6,0ZM36,28V20h4v8Zm22,0H42V19a1,1,0,0,0-1-1H35a1,1,0,0,0-1,1v9H32V15.9A5,5,0,0,0,37,14a5,5,0,0,0,8,0,5,5,0,0,0,8,0,5,5,0,0,0,5,1.9Zm2-17a3,3,0,0,1-6,0c0-.043-.008-.124-.008-.124L53.133,4h5.19L60,8.192Z"></path><path d="M55,18H45a1,1,0,0,0-1,1v6a1,1,0,0,0,1,1H55a1,1,0,0,0,1-1V19A1,1,0,0,0,55,18Zm-1,6H46V20h8Z"></path><path d="M44.781,32.375a1.036,1.036,0,0,0-1.562,0l-4,5A1,1,0,0,0,40,39h1v5h2V38a1,1,0,0,0-.922-1L44,34.6,45.922,37A1,1,0,0,0,45,38v8h2V39h1a1,1,0,0,0,.781-1.625Z"></path><rect x="45" y="48" width="2" height="2"></rect><rect x="45" y="52" width="2" height="2"></rect><rect x="41" y="46" width="2" height="2"></rect><path d="M57.781,38.375a1.036,1.036,0,0,0-1.562,0l-4,5A1,1,0,0,0,53,45h1v5h2V44a1,1,0,0,0-.922-1L57,40.6,58.922,43A1,1,0,0,0,58,44v8h2V45h1a1,1,0,0,0,.781-1.625Z"></path><rect x="58" y="54" width="2" height="2"></rect><rect x="58" y="58" width="2" height="2"></rect><rect x="54" y="52" width="2" height="2"></rect><path d="M9,28a3,3,0,1,0-3-3A3,3,0,0,0,9,28Zm0-4a1,1,0,1,1-1,1A1,1,0,0,1,9,24Z"></path><path d="M19,24a3,3,0,1,0-3-3A3,3,0,0,0,19,24Zm0-4a1,1,0,1,1-1,1A1,1,0,0,1,19,20Z"></path><rect x="8" y="16" width="2" height="4"></rect><rect x="8" y="12" width="2" height="2"></rect><rect x="8" y="8" width="2" height="2"></rect><rect x="18" y="14" width="2" height="2"></rect><rect x="18" y="10" width="2" height="2"></rect><rect x="18" y="6" width="2" height="2"></rect></g></svg>