<svg xmlns="http://www.w3.org/2000/svg" viewBox="0 0 64 64" x="0px" y="0px"><g data-name="Storefront-Digital Marketing"><polygon points="9.5 4 5 10 41 10 36.5 4 9.5 4"></polygon><polygon points="49.279 29 49.613 28 42.387 28 42.721 29 49.279 29"></polygon><path d="M6.072,48.608a1,1,0,0,0,1.365.366l.867-.5-3-5.2-.867.5a1,1,0,0,0-.365,1.365Z"></path><polygon points="15.663 33.229 10.334 39.997 13.659 45.756 14.062 45.7 22.186 44.522 15.663 33.229"></polygon><rect x="8.402" y="41.377" width="1.996" height="5.999" transform="translate(-20.925 10.643) rotate(-29.994)"></rect><path d="M26.027,45.175a1.02,1.02,0,0,0,.365-1.378l-.172-.3-4.7-8.112c-.016-.029-.032-.059-.045-.089L18.394,29.95a1,1,0,0,0-.864-.5.917.917,0,0,0-.476.122,1.01,1.01,0,0,0-.4,1.381l8,13.846A1.018,1.018,0,0,0,26.027,45.175Z"></path><path d="M4,15a3,3,0,0,0,6,0h2a3,3,0,0,0,6,0h2a3,3,0,0,0,6,0h2a3,3,0,0,0,6,0h2a3,3,0,0,0,6,0V12H4Z"></path><path d="M13.463,47.8l-3.293,1.9h0l3.5,6.062a1,1,0,0,0,1.366.366l1.732-1a1,1,0,0,0,.366-1.365l-3.462-6Z"></path><path d="M37,60H55a1,1,0,0,0,1-1V29a1,1,0,0,0-1-1H51.72l-.544,1.633A2,2,0,0,1,49.279,31H42.721a2,2,0,0,1-1.9-1.368L40.28,28H37a1,1,0,0,0-1,1V59A1,1,0,0,0,37,60Zm2.282-19.2a4.182,4.182,0,0,1,5.8-.736L46,40.75l.919-.689a4.2,4.2,0,1,1,5.039,6.72L46.6,50.8a1,1,0,0,1-1.2,0l-5.358-4.019a4.2,4.2,0,0,1-.76-5.984Z"></path><path d="M41.241,45.181,46,48.75l4.759-3.569a2.2,2.2,0,0,0-2.641-3.52L46.6,42.8a1,1,0,0,1-1.2,0l-1.518-1.139a2.2,2.2,0,0,0-2.641,3.52Z"></path><path d="M24.99,35.375a1,1,0,0,0-1.366-.365l0,0,1,1.73h0A1,1,0,0,0,24.99,35.375Z"></path><path d="M34,42V29a3,3,0,0,1,3-3h3V19.9a4.962,4.962,0,0,1-5-1.93,4.954,4.954,0,0,1-8,0,4.954,4.954,0,0,1-8,0,4.954,4.954,0,0,1-8,0A4.962,4.962,0,0,1,6,19.9V39a2.922,2.922,0,0,0,.349,1.363l2.114-1.222,6.188-7.861a3,3,0,0,1,1.382-3.428,2.877,2.877,0,0,1,1.5-.4,3.005,3.005,0,0,1,2.595,1.5l2.5,4.327a3,3,0,1,1,3,5.2L27.663,42Zm-.572-2.6-4.1-1.1.518-1.932,4.1,1.1Zm-2.009-8.9,1,1.733-3.465,2-1-1.733Zm-4.864.161-1.932-.517,1.1-4.1,1.931.517Z"></path></g></svg>