<svg xmlns="http://www.w3.org/2000/svg" viewBox="0 0 64 64" x="0px" y="0px"><title>Speech Bubble_36</title><g data-name="Speech Bubble"><path d="M32,2A30,30,0,1,0,62,32,30.034,30.034,0,0,0,32,2Zm0,58A28,28,0,1,1,60,32,28.032,28.032,0,0,1,32,60Z"></path><path d="M40,13a13.01,13.01,0,0,0-11.44,6.833A12.984,12.984,0,0,0,11,32c0,9.029,4.378,16.86,10.41,18.62a1,1,0,0,0,.972-1.682,11,11,0,0,1-2.912-4.761,12.979,12.979,0,0,0,15.982-6.014,12.845,12.845,0,0,0,9.077.017,11.01,11.01,0,0,1-2.911,4.758,1,1,0,0,0,.972,1.682C48.622,42.86,53,35.029,53,26A13.015,13.015,0,0,0,40,13ZM24,43a10.894,10.894,0,0,1-5.427-1.44.994.994,0,0,0-1.17.148,1.01,1.01,0,0,0-.3.9,12.977,12.977,0,0,0,1.083,3.814C15.039,43.384,13,38,13,32A11,11,0,0,1,27.759,21.664,12.93,12.93,0,0,0,33.63,37.32,11.02,11.02,0,0,1,24,43Zm21.816-2.583a12.981,12.981,0,0,0,1.072-3.729,1,1,0,0,0-1.46-1.128A11,11,0,1,1,51,26C51,32,48.961,37.384,45.816,40.417Z"></path></g></svg>