<svg xmlns="http://www.w3.org/2000/svg" viewBox="0 0 64 64" x="0px" y="0px"><g data-name="Computer Game-Laptop"><path d="M61.9,51.553,56,39.764V8a3,3,0,0,0-3-3H11A3,3,0,0,0,8,8V39.764L2.105,51.553A1,1,0,0,0,2,52v5a2,2,0,0,0,2,2H60a2,2,0,0,0,2-2V52A1,1,0,0,0,61.9,51.553ZM29,53h6v1H29ZM4.618,51l5-10H54.382l5,10ZM10,8a1,1,0,0,1,1-1H53a1,1,0,0,1,1,1V39H10ZM4,57V53H27v1a2,2,0,0,0,2,2h6a2,2,0,0,0,2-2V53H60v4Z"></path><rect x="10" y="47" width="2" height="2"></rect><rect x="14" y="47" width="2" height="2"></rect><rect x="18" y="47" width="28" height="2"></rect><rect x="48" y="47" width="2" height="2"></rect><rect x="52" y="47" width="2" height="2"></rect><rect x="15" y="43" width="2" height="2"></rect><rect x="11" y="43" width="2" height="2"></rect><rect x="19" y="43" width="2" height="2"></rect><rect x="23" y="43" width="2" height="2"></rect><rect x="27" y="43" width="2" height="2"></rect><rect x="31" y="43" width="2" height="2"></rect><rect x="35" y="43" width="2" height="2"></rect><rect x="39" y="43" width="2" height="2"></rect><rect x="43" y="43" width="2" height="2"></rect><rect x="47" y="43" width="2" height="2"></rect><rect x="51" y="43" width="2" height="2"></rect><path d="M51,9H45v2h5V35H14V11h5V9H13a1,1,0,0,0-1,1V36a1,1,0,0,0,1,1H51a1,1,0,0,0,1-1V10A1,1,0,0,0,51,9Z"></path><path d="M18,28a3,3,0,0,0,3,3h2.249a3.011,3.011,0,0,0,2.974-2.6l.719-5.4H37.058l.719,5.4A3.011,3.011,0,0,0,40.751,31H43a3,3,0,0,0,3-3V17a8.009,8.009,0,0,0-8-8H26a8.009,8.009,0,0,0-8,8Zm2-11a6.006,6.006,0,0,1,6-6H38a6.006,6.006,0,0,1,6,6V28a1,1,0,0,1-1,1H40.751a1,1,0,0,1-.991-.868l-.72-5.4A2.006,2.006,0,0,0,37.058,21H26.942a2.006,2.006,0,0,0-1.982,1.735l-.72,5.4a1,1,0,0,1-.991.868H21a1,1,0,0,1-1-1Z"></path><polygon points="24 19 26 19 26 17 28 17 28 15 26 15 26 13 24 13 24 15 22 15 22 17 24 17 24 19"></polygon><rect x="38" y="13" width="2" height="2"></rect><rect x="40" y="15" width="2" height="2"></rect><rect x="38" y="17" width="2" height="2"></rect><rect x="36" y="15" width="2" height="2"></rect><rect x="29" y="13" width="2" height="2"></rect><rect x="33" y="13" width="2" height="2"></rect></g></svg>