<svg xmlns="http://www.w3.org/2000/svg" viewBox="0 0 64 64" x="0px" y="0px"><g><path d="M61.1,46.005,60,45.891V30a1,1,0,0,0-1-1H58V18a1,1,0,0,0-1-1H53a1,1,0,0,0-1,1V29H50V20a1,1,0,0,0-1-1H45a1,1,0,0,0-1,1v9H43a1,1,0,0,0-1,1V44.029l-2-.207V23a1,1,0,0,0-1-1H27a1,1,0,0,0-1,1v9H13a1,1,0,0,0-1,1v7.925l-8.9-.92a1.02,1.02,0,0,0-.874.357,1,1,0,0,0-.187.925l6,20A1,1,0,0,0,9,62H61a1,1,0,0,0,1-1V47A1,1,0,0,0,61.1,46.005ZM54,19h2V29H54Zm-8,2h2v8H46ZM44,39H56V37H44V31H58V45.684L44,44.236ZM26,42.374V38h3v1a1,1,0,0,0,1,1h4a1,1,0,0,0,1-1V38h3v5.615ZM27,34h2v2H26V34Zm11,0v2H35V34Zm-7,0h2v4H31Zm7-8H36V24h2Zm-4-2v4H32V24Zm-4,0v2H28V24Zm-2,4h2v1a1,1,0,0,0,1,1h4a1,1,0,0,0,1-1V28h2v4H28Zm-4,8H22V34h2Zm-4-2v4H18V34Zm-4,0v2H14V34Zm-2,4h2v1a1,1,0,0,0,1,1h4a1,1,0,0,0,1-1V38h2v4.167L14,41.132ZM9.744,60,4.389,42.149,60,47.9V51H11v2H60v7Z"></path><rect x="46" y="33" width="2" height="2"></rect><rect x="50" y="33" width="2" height="2"></rect><rect x="54" y="33" width="2" height="2"></rect><path d="M60,7V9a1,1,0,0,1-1,1H57a3,3,0,0,0-3,3v2h2V13a1,1,0,0,1,1-1h2a3,3,0,0,0,3-3V7Z"></path><path d="M48,15a1,1,0,0,1,1-1,3,3,0,0,0,3-3V9H50v2a1,1,0,0,1-1,1,3,3,0,0,0-3,3v2h2Z"></path><rect x="9" y="47" width="2" height="2"></rect><rect x="13" y="47" width="2" height="2"></rect><rect x="17" y="47" width="2" height="2"></rect><rect x="21" y="47" width="2" height="2"></rect><rect x="25" y="47" width="2" height="2"></rect><rect x="29" y="47" width="2" height="2"></rect><rect x="33" y="47" width="2" height="2"></rect><rect x="37" y="47" width="2" height="2"></rect></g></svg>