<svg xmlns="http://www.w3.org/2000/svg" viewBox="0 0 64 64" x="0px" y="0px"><g data-name="Time Management-Smartphone-Time-Schedule-Clock"><path d="M7,10H43V8a4,4,0,0,0-4-4H11A4,4,0,0,0,7,8ZM22,6h6V8H22ZM18,6h2V8H18Z"></path><path d="M43,46.95a14.982,14.982,0,0,1,0-29.9V12H19v7a.987.987,0,0,1-.62.92A.838.838,0,0,1,18,20a1.007,1.007,0,0,1-.71-.29L15,17.41l-2.29,2.3a1,1,0,0,1-1.09.21A.987.987,0,0,1,11,19V12H7V52H43ZM27,16h5v2H27Zm-4,0h2v2H23Zm0,4h7v2H23ZM11,26H27v2H11Zm0,4H27v2H11Zm0,4H27v2H11Zm16,4v2H21V38ZM11,38h8v2H11ZM29,48H11V46H29Zm0-4H11V42H29Z"></path><path d="M14.29,15.29a1.014,1.014,0,0,1,1.42,0L17,16.59V12H13v4.59Z"></path><path d="M45,40.941a8.956,8.956,0,0,0,4.611-1.916l-1.368-1.368,1.414-1.414,1.368,1.368A8.956,8.956,0,0,0,52.941,33H51V31h1.941a8.956,8.956,0,0,0-1.916-4.611l-1.368,1.368-1.414-1.414,1.368-1.368A8.956,8.956,0,0,0,45,23.059V25H43V23.059a8.956,8.956,0,0,0-4.611,1.916l1.368,1.368-1.414,1.414-1.368-1.368A8.956,8.956,0,0,0,35.059,31H37v2H35.059a8.956,8.956,0,0,0,1.916,4.611l1.368-1.368,1.414,1.414-1.368,1.368A8.956,8.956,0,0,0,43,40.941V39h2Zm-.293-8.234-2,2-1.414-1.414L43,31.586V27h2v5A1,1,0,0,1,44.707,32.707Z"></path><path d="M43,54H7v2a4,4,0,0,0,4,4H39a4,4,0,0,0,4-4ZM27,58H23V56h4Z"></path><path d="M57,32A13,13,0,1,0,44,45,13.012,13.012,0,0,0,57,32ZM33,32A11,11,0,1,1,44,43,11.013,11.013,0,0,1,33,32Z"></path></g></svg>