<svg xmlns="http://www.w3.org/2000/svg" viewBox="0 0 64 64" x="0px" y="0px"><g data-name="Wealth-Profit-Business-Coins-Money Tree"><path d="M12,28a8,8,0,1,0,8,8A8.009,8.009,0,0,0,12,28Zm-1,7h2a3,3,0,0,1,0,6v1H11V41a3,3,0,0,1-3-3h2a1,1,0,0,0,1,1h2a1,1,0,0,0,0-2H11a3,3,0,0,1,0-6V30h2v1a3,3,0,0,1,3,3H14a1,1,0,0,0-1-1H11a1,1,0,0,0,0,2Z"></path><path d="M51,19a6,6,0,1,0-6-6A6,6,0,0,0,51,19ZM51,9a4,4,0,0,1,4,4H53a2,2,0,0,0-2-2Zm-2,4a2,2,0,0,0,2,2v2a4,4,0,0,1-4-4Z"></path><polygon points="42 38 42 42 60 42 60 38 58 38 58 40 56 40 56 38 54 38 54 40 52 40 52 38 50 38 50 40 48 40 48 38 46 38 46 40 44 40 44 38 42 38"></polygon><polygon points="42 32 42 36 60 36 60 32 58 32 58 34 56 34 56 32 54 32 54 34 52 34 52 32 50 32 50 34 48 34 48 32 46 32 46 34 44 34 44 32 42 32"></polygon><polygon points="40 44 38 44 38 46 36 46 36 44 34 44 34 46 32 46 32 44 30 44 30 46 28 46 28 44 26 44 26 46 24 46 24 44 22 44 22 48 40 48 40 44"></polygon><polygon points="20 58 19 58 19 56 17 56 17 58 15 58 15 56 13 56 13 58 11 58 11 56 9 56 9 58 7 58 7 56 5 56 5 60 20 60 20 58"></polygon><polygon points="5 50 5 54 20 54 20 52 19 52 19 50 17 50 17 52 15 52 15 50 13 50 13 52 11 52 11 50 9 50 9 52 7 52 7 50 5 50"></polygon><polygon points="22 54 40 54 40 50 38 50 38 52 36 52 36 50 34 50 34 52 32 52 32 50 30 50 30 52 28 52 28 50 26 50 26 52 24 52 24 50 22 50 22 54"></polygon><polygon points="42 44 42 48 60 48 60 44 58 44 58 46 56 46 56 44 54 44 54 46 52 46 52 44 50 44 50 46 48 46 48 44 46 44 46 46 44 46 44 44 42 44"></polygon><polygon points="60 56 58 56 58 58 56 58 56 56 54 56 54 58 52 58 52 56 50 56 50 58 48 58 48 56 46 56 46 58 44 58 44 56 42 56 42 60 60 60 60 56"></polygon><polygon points="22 60 40 60 40 56 38 56 38 58 36 58 36 56 34 56 34 58 32 58 32 56 30 56 30 58 28 58 28 56 26 56 26 58 24 58 24 56 22 56 22 60"></polygon><polygon points="60 50 58 50 58 52 56 52 56 50 54 50 54 52 52 52 52 50 50 50 50 52 48 52 48 50 46 50 46 52 44 52 44 50 42 50 42 54 60 54 60 50"></polygon><polygon points="8 15 10 15 10 13 12 13 12 11 10 11 10 9 8 9 8 11 6 11 6 13 8 13 8 15"></polygon><polygon points="20 10 22 10 22 8 24 8 24 6 22 6 22 4 20 4 20 6 18 6 18 8 20 8 20 10"></polygon><polygon points="30 22 32 22 32 20 34 20 34 18 32 18 32 16 30 16 30 18 28 18 28 20 30 20 30 22"></polygon><path d="M56.81,22.73A3.988,3.988,0,0,0,52,24.458V21H50v3.458a3.988,3.988,0,0,0-4.81-1.728l-1.88.68.68,1.88a4,4,0,0,0,5.13,2.39l.88-.318V30h2V27.362l.88.318a4,4,0,0,0,5.13-2.39l.68-1.88Z"></path></g></svg>