<svg xmlns="http://www.w3.org/2000/svg" viewBox="0 0 64 64" x="0px" y="0px"><g><path d="M18.32,21.88l13.652,4.969L24.794,43H23v1.77L11.873,49.538A9.012,9.012,0,0,0,4,42.056V59.944a9.009,9.009,0,0,0,7.968-8.271L23,46.945V47h4V43h-.016l6.873-15.465,12.655,4.607.684-1.88L19.005,20Z"></path><rect x="13.384" y="8.833" width="8" height="2" transform="translate(2.194 22.801) rotate(-69.981)"></rect><polygon points="59.693 20.976 54.137 27.468 57.363 28.642 60.1 21.124 59.693 20.976"></polygon><polygon points="22.598 4.281 17.809 17.438 50.047 29.171 59.769 17.812 22.598 4.281"></polygon></g></svg>