<svg xmlns="http://www.w3.org/2000/svg" viewBox="0 0 64 64" x="0px" y="0px"><g data-name="Online Library"><rect x="31" y="38" width="2" height="8"></rect><rect x="31" y="48" width="2" height="2"></rect><path d="M35,50h4V40H35Zm1-9h2v2H36Z"></path><rect x="23" y="36" width="2" height="11"></rect><rect x="23" y="49" width="2" height="1"></rect><rect x="23" y="15" width="2" height="14"></rect><rect x="27" y="40" width="2" height="10"></rect><rect x="36.743" y="16.244" width="2" height="12" transform="translate(-4.471 10.525) rotate(-14.998)"></rect><rect x="27" y="19" width="2" height="10"></rect><path d="M49,7a3,3,0,0,0-3-3H18a3,3,0,0,0-3,3V57a3,3,0,0,0,3,3H46a3,3,0,0,0,3-3ZM48,57a2,2,0,0,1-2,2H18a2,2,0,0,1-2-2V7a2,2,0,0,1,2-2h6a1,1,0,0,1,.707.293L26.414,7H37.586l1.707-1.707A1,1,0,0,1,40,5h6a2,2,0,0,1,2,2Z"></path><path d="M38.707,8.707A1,1,0,0,1,38,9H26a1,1,0,0,1-.707-.293L23.586,7H18V57H46V7H40.414ZM44,52H20V50h1V35a1,1,0,0,1,1-1h4a1,1,0,0,1,1,1v3h2V37a1,1,0,0,1,1-1h4a1,1,0,0,1,1,1v1h5a1,1,0,0,1,1,1V50h3ZM42.354,28.988,42.343,29H44v2H20V29h1V14a1,1,0,0,1,1-1h4a1,1,0,0,1,1,1v3h2V16a1,1,0,0,1,1-1h3.869L37.6,14a1,1,0,0,1,1.225.707l3.624,13.523A1.006,1.006,0,0,1,42.354,28.988Z"></path><polygon points="35 29 36.448 29 35 23.596 35 29"></polygon><rect x="31" y="17" width="2" height="12"></rect></g></svg>