<svg xmlns="http://www.w3.org/2000/svg" viewBox="0 0 64 64" x="0px" y="0px"><g data-name="Geometric ruler"><path d="M10.807,50.3A28,28,0,0,1,50.3,10.807L51.61,9.3A30,30,0,0,0,9.3,51.61Z"></path><path d="M41.054,12.419a1,1,0,0,0-.6-.73A22,22,0,0,0,11.689,40.456a1,1,0,0,0,.73.6.981.981,0,0,0,.194.019,1,1,0,0,0,.707-.293L40.78,13.32A1,1,0,0,0,41.054,12.419ZM13.007,38.266A19.989,19.989,0,0,1,38.266,13.007Z"></path><rect x="28.879" y="28.879" width="2" height="2" transform="translate(-12.376 29.879) rotate(-45)"></rect><rect x="33.121" y="24.636" width="2" height="2" transform="translate(-8.133 31.636) rotate(-45)"></rect><rect x="37.364" y="20.394" width="2" height="2" transform="translate(-3.891 33.394) rotate(-45)"></rect><rect x="41.607" y="16.15" width="2" height="2" transform="translate(0.352 35.151) rotate(-45)"></rect><rect x="45.85" y="11.908" width="2" height="2" transform="translate(4.594 36.908) rotate(-45)"></rect><rect x="24.636" y="33.121" width="2" height="2" transform="translate(-16.619 28.121) rotate(-45)"></rect><rect x="20.394" y="37.364" width="2" height="2" transform="translate(-20.862 26.364) rotate(-45)"></rect><rect x="16.15" y="41.607" width="2" height="2" transform="translate(-25.104 24.606) rotate(-45)"></rect><rect x="11.908" y="45.85" width="2" height="2" transform="translate(-29.347 22.849) rotate(-45)"></rect><path d="M61.383,2.076a1,1,0,0,0-1.09.217l-58,58A1,1,0,0,0,3,62H61a1,1,0,0,0,1-1V3A1,1,0,0,0,61.383,2.076ZM56,60V57H54v3H50V57H48v3H44V57H42v3H38V57H36v3H32V57H30v3H26V57H24v3H20V57H18v3H14V57H12v3H5.414L60,5.414V12H57v2h3v4H57v2h3v4H57v2h3v4H57v2h3v4H57v2h3v4H57v2h3v4H57v2h3v4H57v2h3v4Z"></path><path d="M51.383,26.219a.992.992,0,0,0-1.09.217L26.436,50.293A1,1,0,0,0,27.143,52H51a1,1,0,0,0,1-1V27.143A1,1,0,0,0,51.383,26.219ZM50,50H29.557L50,29.557Z"></path></g></svg>