<svg xmlns="http://www.w3.org/2000/svg" viewBox="0 0 64 64" x="0px" y="0px"><g><polygon points="52 12.7 58 13.56 58 11.41 56.59 10 53.41 10 52 11.41 52 12.7"></polygon><polygon points="52 15 53.93 15 52 14.72 52 15"></polygon><path d="M46,13a4,4,0,0,0-8,0v2h8Zm-2,0H42V11h2Z"></path><rect x="54" y="6" width="2" height="2"></rect><polygon points="50 15 50 14.44 48 14.15 48 15 50 15"></polygon><path d="M40,27.25V17H38v8a1,1,0,0,1-1,1H35v3a1.014,1.014,0,0,1-.68.95l-6,2A1.185,1.185,0,0,1,28,32H15.41l2,2h10.4l10.27-3.95A3.005,3.005,0,0,0,40,27.25Z"></path><path d="M57.59,20l.41-.41V17H52v2.59l.71.7A1.033,1.033,0,0,1,53,21a1.052,1.052,0,0,1-.29.71l-.71.7V26h6V22.41L57.59,22H55V20Z"></path><path d="M15.5,30l2.7-3.6,1.6,1.2L18,30h2.5l2.7-3.6,1.6,1.2L23,30h2.5l2.7-3.6,1.6,1.2-1.75,2.33L33,28.28V26a5,5,0,0,0-5-5H20.25L4,29.6V30h6.5l2.7-3.6,1.6,1.2L13,30Z"></path><path d="M37,47v4a1.033,1.033,0,0,1-.29.71l-2,2-1.42-1.42L35,50.59V47.41L32.59,45H32l.02,6a.966.966,0,0,1-.29.71l-2,2-1.41-1.42,1.7-1.7V49H28V47h2.01L30,45H25v1.86L28.75,60H34v2H24V60h2.67L23.04,47.27A.8.8,0,0,1,23,47V45H15a1.013,1.013,0,0,1-.84-.45,1.023,1.023,0,0,1-.07-.96L17.45,36h2.19l-3.1,7H23V36h2v7h8a1.033,1.033,0,0,1,.71.29l3,3A1.033,1.033,0,0,1,37,47Z"></path><path d="M42.91,7H40.73A2,2,0,0,0,37,8H35a4,4,0,0,1,3-3.86A4.091,4.091,0,0,0,37,4a4,4,0,0,0-4,4H31A6,6,0,0,1,42.91,7Z"></path></g></svg>