<svg xmlns="http://www.w3.org/2000/svg" viewBox="0 0 64 64" x="0px" y="0px"><g data-name="Injection"><polygon points="28 16 28 14 20 14 20 48 28 48 28 46 25 46 25 44 28 44 28 42 25 42 25 40 28 40 28 38 25 38 25 36 28 36 28 34 25 34 25 32 28 32 28 30 25 30 25 28 28 28 28 26 25 26 25 24 28 24 28 22 25 22 25 20 28 20 28 18 25 18 25 16 28 16"></polygon><rect x="22" y="50" width="4" height="4"></rect><rect x="22" y="8" width="4" height="4"></rect><rect x="20" y="4" width="8" height="2"></rect><rect x="40" y="35" width="8" height="12"></rect><path d="M48,32a1,1,0,0,0-1-1H37a1,1,0,0,0-1,1V53H48V49H39a1,1,0,0,1-1-1V34a1,1,0,0,1,1-1h9Z"></path><rect x="40" y="27" width="4" height="2"></rect><rect x="37" y="24" width="10" height="2"></rect><rect x="23" y="56" width="2" height="4"></rect></g></svg>