<svg xmlns="http://www.w3.org/2000/svg" viewBox="0 0 64 64" x="0px" y="0px"><g><path d="M50,45a6,6,0,1,0,6,6A6.006,6.006,0,0,0,50,45Zm0,10a4,4,0,1,1,4-4A4,4,0,0,1,50,55Z"></path><path d="M61.2,48.02l-1.78-.36a9,9,0,0,0-.4-.97l1-1.5a.986.986,0,0,0-.12-1.26L57.07,41.1a.987.987,0,0,0-1.26-.12l-1.5,1c-.32-.15-.64-.28-.97-.4l-.36-1.78A1,1,0,0,0,52,39H48a1,1,0,0,0-.98.8l-.36,1.78c-.33.12-.65.25-.97.4l-1.5-1a.986.986,0,0,0-1.26.12l-2.01,2.01a8.955,8.955,0,0,0-3.23-1.81L28,38.27v-.69a4.991,4.991,0,0,0,6.22-1.9A5.058,5.058,0,0,0,36,36a5,5,0,0,0,5-5,4.9,4.9,0,0,0-.33-1.79A4.989,4.989,0,0,0,38,20V18.72A2,2,0,0,0,39,17V15a2.006,2.006,0,0,0-2-2H34.95a10.919,10.919,0,0,0-3.17-6.78,11.048,11.048,0,0,0-5.91-3.06,2.985,2.985,0,0,0-5.74.01A10.919,10.919,0,0,0,11.05,13H9a2.006,2.006,0,0,0-2,2v2a2,2,0,0,0,1,1.72V20a4.989,4.989,0,0,0-2.67,9.21A4.9,4.9,0,0,0,5,31a5,5,0,0,0,5,5,5.058,5.058,0,0,0,1.78-.32A4.991,4.991,0,0,0,18,37.58v.69L8.31,41.3A8.941,8.941,0,0,0,2,49.88V61a1,1,0,0,0,1,1H43a.994.994,0,0,0,.98-.88,1,1,0,0,0,.21-.1l1.5-1c.32.15.64.28.97.4l.36,1.78A1,1,0,0,0,48,63h4a1,1,0,0,0,.98-.8l.36-1.78c.33-.12.65-.25.97-.4l1.5,1a.986.986,0,0,0,1.26-.12l2.83-2.83a.986.986,0,0,0,.12-1.26l-1-1.5a9,9,0,0,0,.4-.97l1.78-.36A1,1,0,0,0,62,53V49A1,1,0,0,0,61.2,48.02ZM23,34a9.014,9.014,0,0,1-9-9V19H32v6A9.014,9.014,0,0,1,23,34Zm3,1.57v3.34l-.59,3.23a3.807,3.807,0,0,1-4.82,0L20,38.91V35.57a10.68,10.68,0,0,0,6,0ZM37.27,22.11A2.942,2.942,0,0,1,38,22a3.009,3.009,0,0,1,3,3,2.968,2.968,0,0,1-2.02,2.81,1.035,1.035,0,0,0-.62.64.99.99,0,0,0,.13.88A2.964,2.964,0,0,1,39,31a3,3,0,0,1-4.67,2.49.993.993,0,0,0-.87-.12,1.035,1.035,0,0,0-.64.62A2.963,2.963,0,0,1,28,35.21v-.42A11.014,11.014,0,0,0,34,25V19h2v2.15a1.014,1.014,0,0,0,.4.8A.965.965,0,0,0,37.27,22.11ZM26,5.23a9.527,9.527,0,0,1,2,.71V11h2V7.3c.12.11.25.22.36.34A8.94,8.94,0,0,1,32.95,13H26ZM22,4a1,1,0,0,1,2,0v9H22ZM16,7.28V11h2V5.93a9.118,9.118,0,0,1,2-.7V13H13.05A9.034,9.034,0,0,1,16,7.28ZM9,15H37v2H9Zm7,21a2.985,2.985,0,0,1-2.82-2.01,1.035,1.035,0,0,0-.64-.62.993.993,0,0,0-.87.12,3,3,0,0,1-4.16-4.16.99.99,0,0,0,.13-.88,1.035,1.035,0,0,0-.62-.64A2.968,2.968,0,0,1,5,25a3.009,3.009,0,0,1,3-3,2.942,2.942,0,0,1,.73.11.97.97,0,0,0,.87-.16,1.014,1.014,0,0,0,.4-.8V19h2v6a11.014,11.014,0,0,0,6,9.79v.42A2.982,2.982,0,0,1,16,36ZM10.8,60a4.444,4.444,0,0,0-.63-1.36A6.794,6.794,0,0,1,9,55a6.609,6.609,0,0,1,1.71-4.29L9.29,49.29A8.723,8.723,0,0,0,7,55a8.855,8.855,0,0,0,1.52,4.77,1.665,1.665,0,0,1,.12.23H4V49.88A6.964,6.964,0,0,1,8.91,43.2l7.06-2.21-3.73,4.36a1,1,0,0,0,.05,1.36l2.14,2.13-1.98,1.33a.989.989,0,0,0-.45.73,1.046,1.046,0,0,0,.29.81L20.59,60Zm3.77-8.84,1.98-1.33A.989.989,0,0,0,17,49.1a1.046,1.046,0,0,0-.29-.81l-2.35-2.34,4.03-4.7,3.05,16.78Zm6.48-6.48a6.1,6.1,0,0,0,3.9,0L23,55.41Zm6.56-3.43,4.03,4.7-2.35,2.34a1.046,1.046,0,0,0-.29.81.989.989,0,0,0,.45.73l1.98,1.33-6.87,6.87Zm8.22,17.38A4.61,4.61,0,0,0,35.2,60H25.41l8.3-8.29A1.046,1.046,0,0,0,34,50.9a.989.989,0,0,0-.45-.73l-1.98-1.33,2.14-2.13a1,1,0,0,0,.05-1.36l-3.73-4.36,7.06,2.21a6.857,6.857,0,0,1,2.74,1.65.934.934,0,0,0,.15.34l1,1.5a9,9,0,0,0-.4.97l-1.78.36A1,1,0,0,0,38,49v2.13a7.9,7.9,0,0,0-1.29-1.84l-1.42,1.42A6.609,6.609,0,0,1,37,55,6.735,6.735,0,0,1,35.83,58.63ZM42,60H37.36a1.665,1.665,0,0,1,.12-.23A8.855,8.855,0,0,0,39,55a8.258,8.258,0,0,0-.07-1l1.65.34a9,9,0,0,0,.4.97l-1,1.5a.986.986,0,0,0,.12,1.26l1.9,1.9Zm18-7.82-1.55.31a.984.984,0,0,0-.76.71,8.359,8.359,0,0,1-.7,1.69,1,1,0,0,0,.04,1.04l.88,1.31-1.67,1.67-1.31-.88a1.017,1.017,0,0,0-1.05-.04,8.044,8.044,0,0,1-1.68.7.984.984,0,0,0-.71.76L51.18,61H48.82l-.31-1.55a.984.984,0,0,0-.71-.76,8.044,8.044,0,0,1-1.68-.7,1.017,1.017,0,0,0-1.05.04l-1.31.88-1.67-1.67.88-1.31a1,1,0,0,0,.04-1.04,8.359,8.359,0,0,1-.7-1.69.984.984,0,0,0-.76-.71L40,52.18V49.82l1.55-.31a.984.984,0,0,0,.76-.71,8.359,8.359,0,0,1,.7-1.69,1,1,0,0,0-.04-1.04l-.88-1.31,1.67-1.67,1.31.88a1.017,1.017,0,0,0,1.05.04,8.044,8.044,0,0,1,1.68-.7.984.984,0,0,0,.71-.76L48.82,41h2.36l.31,1.55a.984.984,0,0,0,.71.76,8.044,8.044,0,0,1,1.68.7,1.017,1.017,0,0,0,1.05-.04l1.31-.88,1.67,1.67-.88,1.31a1,1,0,0,0-.04,1.04,8.359,8.359,0,0,1,.7,1.69.984.984,0,0,0,.76.71l1.55.31Z"></path><circle cx="19" cy="22" r="2"></circle><circle cx="27" cy="22" r="2"></circle><path d="M19.468,28.542a5.007,5.007,0,0,0,7.064,0l-1.4-1.424a3.082,3.082,0,0,1-4.256,0Z"></path></g></svg>