<svg xmlns="http://www.w3.org/2000/svg" viewBox="0 0 64 64" x="0px" y="0px"><g data-name="Stapler-Tool-Office Material-School Material-Material"><circle cx="47" cy="36" r="1"></circle><polygon points="7 31 7 35 38.28 35 39.61 31 7 31"></polygon><path d="M55.85,22.13,14.53,15A9,9,0,0,0,4,23.87V29H60V27.05A4.983,4.983,0,0,0,55.85,22.13Z"></path><path d="M57.13,36.85A6.984,6.984,0,0,0,50.22,31h-8.5L38.39,41H57.82ZM47,39a3,3,0,1,1,3-3A3,3,0,0,1,47,39Z"></path><polygon points="60 44.41 58.59 43 5.41 43 4 44.41 4 49 60 49 60 44.41"></polygon></g></svg>