<svg xmlns="http://www.w3.org/2000/svg" viewBox="0 0 64 64" x="0px" y="0px"><g><path d="M57,44H47V43a1.033,1.033,0,0,0-.29-.71l-2-2A1.033,1.033,0,0,0,44,40H39V38h9a2.006,2.006,0,0,0,2-2V4a2.006,2.006,0,0,0-2-2H16a2.006,2.006,0,0,0-2,2V36a2.006,2.006,0,0,0,2,2h9v2H20a1.033,1.033,0,0,0-.71.29l-2,2A1.033,1.033,0,0,0,17,43v1H7a1,1,0,0,0-1,1V61a1,1,0,0,0,1,1H57a1,1,0,0,0,1-1V45A1,1,0,0,0,57,44ZM16,36V4H48V36Zm21,2v2H27V38ZM19,43.41,20.41,42H43.59L45,43.41V44H19ZM56,60H8V46H56Z"></path><path d="M46,29V7a1,1,0,0,0-1-1H19a1,1,0,0,0-1,1V29a1,1,0,0,0,1,1H45A1,1,0,0,0,46,29Zm-2-1H20V8H44Z"></path><rect x="42" y="32" width="2" height="2"></rect><rect x="38" y="32" width="2" height="2"></rect><path d="M24,12h3V10H24a2,2,0,0,0-2,2v3h2Z"></path><rect x="22" y="17" width="2" height="2"></rect><polygon points="40 49 38 49 38 50 36 50 36 52 38 52 38 53 40 53 40 52 52 52 52 50 40 50 40 49"></polygon><rect x="12" y="48" width="2" height="2"></rect><rect x="16" y="48" width="2" height="2"></rect><rect x="10" y="52" width="14" height="2"></rect><rect x="10" y="56" width="14" height="2"></rect></g></svg>