<svg xmlns="http://www.w3.org/2000/svg" viewBox="0 0 64 64" x="0px" y="0px"><g><path d="M46.69,37.3l-5.97-1.87A4.992,4.992,0,0,0,37,32.1V30.79A11.028,11.028,0,0,0,42.95,22H43a4,4,0,0,0,0-8V6a1,1,0,0,0-1-1H39V3a1,1,0,0,0-1-1H28a7.008,7.008,0,0,0-7,7v5a4,4,0,1,0,0,8h.05A11.028,11.028,0,0,0,27,30.79V32.1a4.992,4.992,0,0,0-3.72,3.33L17.31,37.3A8.941,8.941,0,0,0,11,45.88V61a1,1,0,0,0,1,1H52a1,1,0,0,0,1-1V45.88A8.941,8.941,0,0,0,46.69,37.3ZM43,16a2.006,2.006,0,0,1,2,2,2.015,2.015,0,0,1-2,2ZM21,20a2.015,2.015,0,0,1-2-2,2.006,2.006,0,0,1,2-2Zm2,40H21V45H19V60H13V45.88a6.964,6.964,0,0,1,4.91-6.68L23,37.61Zm4,0H25V37a3.014,3.014,0,0,1,2-2.83ZM38.71,7H41v3.18A3,3,0,0,0,40,10H36.89A7.065,7.065,0,0,0,38.71,7ZM23,9a5,5,0,0,1,5-5h9V5a5,5,0,0,1-5,5H24a3,3,0,0,0-1,.18Zm0,12V13a1,1,0,0,1,1-1H40a1,1,0,0,1,1,1v8c0,.26-.02.52-.04.77l-6.8-1.36a11.214,11.214,0,0,0-4.32,0l-6.8,1.36C23.02,21.52,23,21.26,23,21Zm2.77,6.48,4.34-.49-.22-1.98-5.6.62a9.3,9.3,0,0,1-.86-1.9l6.81-1.36a9.065,9.065,0,0,1,3.52,0l6.81,1.36a9.3,9.3,0,0,1-.86,1.9l-5.6-.62-.22,1.98,4.34.49a8.961,8.961,0,0,1-12.46,0ZM35,60H29V45.41l2.29,2.3a1.014,1.014,0,0,0,1.42,0L35,45.41Zm0-17.41-3,3-3-3V40.41l2.29,2.3a1.014,1.014,0,0,0,1.42,0L35,40.41Zm0-5-3,3-3-3V31.57a10.68,10.68,0,0,0,6,0ZM39,60H37V34.17A3.014,3.014,0,0,1,39,37Zm12,0H45V45H43V60H41V37.61l5.09,1.59A6.964,6.964,0,0,1,51,45.88Z"></path><circle cx="28" cy="17" r="2"></circle><circle cx="36" cy="17" r="2"></circle></g></svg>