<svg xmlns="http://www.w3.org/2000/svg" viewBox="0 0 64 64" x="0px" y="0px"><g><circle cx="19" cy="17" r="2"></circle><circle cx="27" cy="17" r="2"></circle><polygon points="22 10 24 10 24 9 25 9 25 7 24 7 24 6 22 6 22 7 21 7 21 9 22 9 22 10"></polygon><rect x="22" y="46" width="2" height="2"></rect><rect x="22" y="50" width="2" height="2"></rect><rect x="22" y="54" width="2" height="2"></rect><path d="M46,52H44v3a1,1,0,0,0,.293.707l1,1,1.414-1.414L46,54.586Z"></path><path d="M44.293,42.293A1,1,0,0,0,44,43v3h2V43.414l.707-.707-1.414-1.414Z"></path><path d="M52,54.586l-.707.707,1.414,1.414,1-1A1,1,0,0,0,54,55V52H52Z"></path><path d="M61.32,44.05,59,43.28V41a1.033,1.033,0,0,0-.29-.71l-1-1A1.033,1.033,0,0,0,57,39H55.54l-1.71-2.55A1,1,0,0,0,53,36H51a1.033,1.033,0,0,0-.71.29L49,37.59l-1.29-1.3A1.033,1.033,0,0,0,47,36H45a1,1,0,0,0-.83.45L42.46,39H41a.584.584,0,0,0-.18.04,8.542,8.542,0,0,0-3.13-1.74l-2.75-.86A4.989,4.989,0,0,0,30,32H28V30.79A11.028,11.028,0,0,0,33.95,22H34a4,4,0,0,0,0-8V7a5,5,0,0,0-5-5H17a5,5,0,0,0-5,5v7a4,4,0,1,0,0,8h.05A11.028,11.028,0,0,0,18,30.79V32H16a4.989,4.989,0,0,0-4.94,4.44l-2.75.85A8.963,8.963,0,0,0,2,45.88V61a1,1,0,0,0,1,1H43a.975.975,0,0,0,.95-.77l.22.32A1,1,0,0,0,45,62h2a1.033,1.033,0,0,0,.71-.29L49,60.41l1.29,1.3A1.033,1.033,0,0,0,51,62h2a1,1,0,0,0,.83-.45L55.54,59H57a1.033,1.033,0,0,0,.71-.29l1-1A1.033,1.033,0,0,0,59,57V54.72l2.32-.77A1.014,1.014,0,0,0,62,53V45A1.014,1.014,0,0,0,61.32,44.05ZM34,16a2.006,2.006,0,0,1,2,2,2.015,2.015,0,0,1-2,2ZM12,20a2.015,2.015,0,0,1-2-2,2.006,2.006,0,0,1,2-2ZM35,38.55l2.1.66a6.661,6.661,0,0,1,2.16,1.13A.994.994,0,0,0,39,41v2.28l-1.4.47A5.029,5.029,0,0,0,35,43ZM30,34a3.005,3.005,0,0,1,2.71,1.74L28,34.26V34ZM14,7a3.009,3.009,0,0,1,3-3H29a3.009,3.009,0,0,1,3,3v5.18A3,3,0,0,0,31,12H15a3,3,0,0,0-1,.18Zm0,14V15a1,1,0,0,1,1-1H31a1,1,0,0,1,1,1v6c0,.22-.02.43-.03.64A36.507,36.507,0,0,0,23,20a36.507,36.507,0,0,0-8.97,1.64C14.02,21.43,14,21.22,14,21Zm.39,2.62A35.268,35.268,0,0,1,23,22a35.268,35.268,0,0,1,8.61,1.62,9,9,0,0,1-17.22,0ZM19.3,35.95A.987.987,0,0,0,20,35V31.57a10.68,10.68,0,0,0,6,0V35a.987.987,0,0,0,.7.95l3.04.95a7,7,0,0,1-13.48,0ZM16,34h2v.26l-4.71,1.48A3.005,3.005,0,0,1,16,34ZM12,47a2,2,0,1,1-2,2A2.006,2.006,0,0,1,12,47Zm6,13H12v-.62a4.837,4.837,0,0,0-.83-2.74A6.794,6.794,0,0,1,10,53H8a8.855,8.855,0,0,0,1.52,4.77A2.83,2.83,0,0,1,10,59.38V60H4V45.88A6.964,6.964,0,0,1,8.91,39.2L11,38.55v6.59a4,4,0,1,0,2,0V37.92l1.36-.42A8.9,8.9,0,0,0,18,42.49Zm24,0H36v-.62a2.83,2.83,0,0,1,.48-1.61,9.411,9.411,0,0,0,1.17-2.48l-1.92-.58a6.719,6.719,0,0,1-.91,1.93A4.907,4.907,0,0,0,34,59.38V60H20V43.49A9.042,9.042,0,0,0,23,44a8.923,8.923,0,0,0,8.64-6.5l1.36.42V43a5,5,0,0,0-5,5v4a1,1,0,0,0,1,1h2V51H30V48a3.009,3.009,0,0,1,3-3h2a2.852,2.852,0,0,1,1,.18V53a1.014,1.014,0,0,0,.68.95l2.32.77V57a1.033,1.033,0,0,0,.29.71l1,1A1.033,1.033,0,0,0,41,59h1Zm6-1.41L46.59,60H45.54l-1.71-2.55A1,1,0,0,0,43,57H41.41L41,56.59V54.41l1.71-1.7A1.033,1.033,0,0,0,43,52V50H41v1.59l-1.27,1.27L38,52.28V45.72l1.73-.58L41,46.41V48h2V46a1.033,1.033,0,0,0-.29-.71L41,43.59V41.41l.41-.41H43a1,1,0,0,0,.83-.45L45.54,38h1.05L48,39.41Zm12-6.31-1.73.58L57,51.59V50H55v2a1.033,1.033,0,0,0,.29.71L57,54.41v2.18l-.41.41H55a1,1,0,0,0-.83.45L52.46,60H51.41L50,58.59V39.41L51.41,38h1.05l1.71,2.55A1,1,0,0,0,55,41h1.59l.41.41v2.18l-1.71,1.7A1.033,1.033,0,0,0,55,46v2h2V46.41l1.27-1.27,1.73.58Z"></path><path d="M52.707,41.293l-1.414,1.414.707.707V46h2V43a1,1,0,0,0-.293-.707Z"></path></g></svg>