<svg xmlns="http://www.w3.org/2000/svg" viewBox="0 0 48 48" x="0px" y="0px"><title>Email-Mail-Letter</title><g><path d="M24,0A24,24,0,1,0,48,24,24.028,24.028,0,0,0,24,0Zm0,46A22,22,0,1,1,46,24,22.025,22.025,0,0,1,24,46Z"></path><path d="M40,16a.937.937,0,0,0-.019-.092.959.959,0,0,0-.011-.151c-.007-.028-.025-.051-.035-.079a.951.951,0,0,0-.059-.135,1.127,1.127,0,0,0-.215-.281.944.944,0,0,0-.194-.131.911.911,0,0,0-.106-.058A1,1,0,0,0,39,15H9a1,1,0,0,0-.361.073.911.911,0,0,0-.106.058.944.944,0,0,0-.194.131,1.127,1.127,0,0,0-.215.281.951.951,0,0,0-.059.135c-.01.028-.028.051-.035.079a.959.959,0,0,0-.011.151A.937.937,0,0,0,8,16V32l0,.011a.988.988,0,0,0,.055.32c0,.011.012.019.016.03a.755.755,0,0,0,.052.1,1,1,0,0,0,.136.2,1.137,1.137,0,0,0,.087.083.937.937,0,0,0,.2.135c.033.017.064.036.1.05A1,1,0,0,0,9,33H39a1,1,0,0,0,.353-.071c.035-.014.066-.033.1-.05a1,1,0,0,0,.2-.135,1.137,1.137,0,0,0,.087-.083.973.973,0,0,0,.136-.2.755.755,0,0,0,.052-.1c0-.011.012-.019.016-.03a.988.988,0,0,0,.055-.32L40,32ZM38,29.919l-9.189-7.351L38,17.667ZM35,17,24,22.867,13,17Zm-25,.667,9.189,4.9L10,29.919ZM11.851,31l9.259-7.408,2.419,1.29a1,1,0,0,0,.942,0l2.419-1.29L36.149,31Z"></path></g></svg>