<svg xmlns="http://www.w3.org/2000/svg" viewBox="0 0 64 64" x="0px" y="0px"><g data-name="Customer Relationship"><rect x="23" y="45" width="1" height="12"></rect><path d="M15,17h3a1,1,0,0,1,1,1,1,1,0,0,0,1,1h1V7H20a1,1,0,0,0-1,1,1,1,0,0,1-1,1H11a3.009,3.009,0,0,0-3,3V52a3.009,3.009,0,0,0,3,3h7a1,1,0,0,1,1,1,1,1,0,0,0,1,1h1V45H20a1,1,0,0,0-1,1,1,1,0,0,1-1,1H15a1,1,0,0,1-1-1V18A1,1,0,0,1,15,17ZM12,39H10V35h2Zm0-6H10V31h2Zm0-4H10V25h2Z"></path><rect x="23" y="7" width="1" height="12"></rect><path d="M4,50H2V5A3,3,0,0,1,5,2H9a3,3,0,0,1,3,3V7H10V5A1,1,0,0,0,9,4H5A1,1,0,0,0,4,5Z"></path><rect x="28" y="31" width="16" height="2"></rect><rect x="26.515" y="22" width="16.971" height="2" transform="translate(-6.012 31.485) rotate(-45)"></rect><rect x="34" y="32.515" width="2" height="16.971" transform="translate(-18.74 36.757) rotate(-45)"></rect><rect x="2" y="52" width="2" height="2"></rect><rect x="2" y="56" width="2" height="2"></rect><rect x="2" y="60" width="2" height="2"></rect><rect x="28" y="50" width="2" height="2"></rect><rect x="28" y="46" width="2" height="2"></rect><rect x="28" y="54" width="2" height="2"></rect><rect x="28" y="12" width="2" height="2"></rect><rect x="28" y="8" width="2" height="2"></rect><rect x="28" y="16" width="2" height="2"></rect><path d="M54.414,30.344l-.707.706a1,1,0,0,1-1.414,0l-.707-.707a1,1,0,0,0-1.414,1.415L53,34.586l2.828-2.828a1,1,0,1,0-1.414-1.414Z"></path><path d="M53,25a7,7,0,1,0,7,7A7.009,7.009,0,0,0,53,25Zm4.242,8.172-3.535,3.535a1,1,0,0,1-1.414,0l-3.535-3.535A3,3,0,0,1,53,28.929h0a3,3,0,0,1,4.242,4.244Z"></path><path d="M48.414,51.344l-.707.706a1,1,0,0,1-1.414,0l-.707-.707a1,1,0,1,0-1.414,1.415L47,55.586l2.828-2.828a1,1,0,1,0-1.414-1.414Z"></path><path d="M47,46a7,7,0,1,0,7,7A7.009,7.009,0,0,0,47,46Zm4.242,8.172-3.535,3.535a1,1,0,0,1-1.414,0l-3.535-3.535A3,3,0,0,1,47,49.929h0a3,3,0,1,1,4.242,4.244Z"></path><rect x="20" y="31" width="2" height="2"></rect><rect x="24" y="31" width="2" height="2"></rect><path d="M47,4a7,7,0,1,0,7,7A7.009,7.009,0,0,0,47,4Zm4.242,8.172-3.535,3.535a1,1,0,0,1-1.414,0l-3.535-3.535A3,3,0,0,1,47,7.929h0a3,3,0,1,1,4.242,4.244Z"></path><path d="M48.414,9.344l-.707.706a1,1,0,0,1-1.414,0l-.707-.707a1,1,0,0,0-1.414,1.415L47,13.586l2.828-2.828a1,1,0,1,0-1.414-1.414Z"></path></g></svg>