<svg xmlns="http://www.w3.org/2000/svg" viewBox="0 0 64 64" x="0px" y="0px"><g><path d="M25,40H7a3,3,0,0,0-3,3V53a3,3,0,0,0,3,3h4.82l-.667,4H9v2H23V60H20.847l-.667-4H25a3,3,0,0,0,3-3V43A3,3,0,0,0,25,40ZM7,42H25a1,1,0,0,1,1,1v7H6V43A1,1,0,0,1,7,42ZM18.82,60H13.18l.667-4h4.306ZM25,54H7a1,1,0,0,1-1-1V52H26v1A1,1,0,0,1,25,54Z"></path><path d="M57,40H39a3,3,0,0,0-3,3V53a3,3,0,0,0,3,3h4.82l-.667,4H41v2H55V60H52.847l-.667-4H57a3,3,0,0,0,3-3V43A3,3,0,0,0,57,40ZM39,42H57a1,1,0,0,1,1,1v7H38V43A1,1,0,0,1,39,42ZM50.82,60H45.18l.667-4h4.306ZM57,54H39a1,1,0,0,1-1-1V52H58v1A1,1,0,0,1,57,54Z"></path><rect x="31" y="15" width="2" height="2"></rect><path d="M28.464,12.464l1.414,1.414a3.006,3.006,0,0,1,4.244,0l1.414-1.414A5.008,5.008,0,0,0,28.464,12.464Z"></path><path d="M32,9a6.956,6.956,0,0,1,4.95,2.05l1.414-1.414a9,9,0,0,0-12.728,0L27.05,11.05A6.956,6.956,0,0,1,32,9Z"></path><path d="M32,22A10,10,0,1,0,22,12,10.011,10.011,0,0,0,32,22ZM32,4a8,8,0,1,1-8,8A8.009,8.009,0,0,1,32,4Z"></path><path d="M6,29.816V34H8V29.816a3,3,0,1,0-2,0ZM7,26a1,1,0,1,1-1,1A1,1,0,0,1,7,26Z"></path><path d="M15,38a2.993,2.993,0,0,0,1-5.816V28H14v4.184A2.993,2.993,0,0,0,15,38Zm0-4a1,1,0,1,1-1,1A1,1,0,0,1,15,34Z"></path><rect x="6" y="36" width="2" height="2"></rect><rect x="14" y="24" width="2" height="2"></rect><path d="M56,29.816V34h2V29.816a3,3,0,1,0-2,0ZM57,26a1,1,0,1,1-1,1A1,1,0,0,1,57,26Z"></path><path d="M49,38a2.993,2.993,0,0,0,1-5.816V28H48v4.184A2.993,2.993,0,0,0,49,38Zm0-4a1,1,0,1,1-1,1A1,1,0,0,1,49,34Z"></path><rect x="56" y="36" width="2" height="2"></rect><rect x="48" y="24" width="2" height="2"></rect><rect x="31" y="24" width="2" height="2"></rect><path d="M22,36H42v2h2V35a1,1,0,0,0-1-1H33V28H31v6H21a1,1,0,0,0-1,1v3h2Z"></path></g></svg>