<svg xmlns="http://www.w3.org/2000/svg" viewBox="0 0 64 64" x="0px" y="0px"><g><path d="M52,2H12A5,5,0,0,0,7,7V57a5,5,0,0,0,5,5H52a5,5,0,0,0,5-5V7A5,5,0,0,0,52,2ZM43,5.41,49.59,12H44a1,1,0,0,1-1-1ZM51,57a3.009,3.009,0,0,1-3,3H12a3.009,3.009,0,0,1-3-3V7a3.009,3.009,0,0,1,3-3H41v7a3.009,3.009,0,0,0,3,3h7Zm4,0a3.009,3.009,0,0,1-3,3h-.03A4.924,4.924,0,0,0,53,57V13a1.033,1.033,0,0,0-.29-.71L44.41,4H52a3.009,3.009,0,0,1,3,3Z"></path><rect x="13" y="24" width="34" height="2"></rect><rect x="13" y="18" width="34" height="2"></rect><rect x="13" y="36" width="34" height="2"></rect><rect x="13" y="30" width="34" height="2"></rect><rect x="13" y="48" width="34" height="2"></rect><rect x="13" y="42" width="34" height="2"></rect></g></svg>