<svg xmlns="http://www.w3.org/2000/svg" viewBox="0 0 64 64" x="0px" y="0px"><g data-name="Garbage"><path d="M31,28H27a1,1,0,0,0-1,1V53a1,1,0,0,0,1,1h4a1,1,0,0,0,1-1V29A1,1,0,0,0,31,28ZM30,52H28V30h2Z"></path><path d="M23,28H19a1,1,0,0,0-1,1V53a1,1,0,0,0,1,1h4a1,1,0,0,0,1-1V29A1,1,0,0,0,23,28ZM22,52H20V30h2Z"></path><path d="M15,28H11a1,1,0,0,0-1,1V53a1,1,0,0,0,1,1h4a1,1,0,0,0,1-1V29A1,1,0,0,0,15,28ZM14,52H12V30h2Z"></path><path d="M52.279,34.654l2.66-7.312A1,1,0,0,0,54,26a4.051,4.051,0,0,0-2.33.984A2.733,2.733,0,0,1,50.5,27.6c-.1,0-.152-.021-.46-.415a2.346,2.346,0,0,0-4.076,0c-.311.4-.362.417-.465.417a2.736,2.736,0,0,1-1.168-.615A4.043,4.043,0,0,0,42,26a1,1,0,0,0-.939,1.342l2.659,7.312A13.455,13.455,0,0,0,36,41.04V26h3a1,1,0,0,0,1-1V21a1,1,0,0,0-1-1H36.618L34.9,16.553A1,1,0,0,0,34,16H27V13a1,1,0,0,0-1-1H16a1,1,0,0,0-1,1v3H8a1,1,0,0,0-.895.553L5.382,20H3a1,1,0,0,0-1,1v4a1,1,0,0,0,1,1H6V56H3a1,1,0,0,0-1,1v4a1,1,0,0,0,1,1H39a1,1,0,0,0,1-1v-.9A16.241,16.241,0,0,0,48,62c8.636,0,14-4.981,14-13C62,42.124,58.136,36.5,52.279,34.654ZM45.5,29.6a2.517,2.517,0,0,0,2.039-1.184C47.847,28.021,47.9,28,48,28s.152.021.46.415A2.514,2.514,0,0,0,50.5,29.6a3.175,3.175,0,0,0,1.693-.553l-1.877,5.16a14.788,14.788,0,0,0-4.629,0L43.81,29.05A3.172,3.172,0,0,0,45.5,29.6ZM17,14h8v2H17ZM8.618,18H33.382l1,2H7.618ZM4,22H38v2H4Zm4,4H34V56H8ZM38,60H4V58H37.267c.056.06.122.115.181.175q.182.181.373.358c.061.056.116.116.179.172Zm10,0a13.2,13.2,0,0,1-8.371-2.537,9.083,9.083,0,0,1-1.166-1.121A10.806,10.806,0,0,1,36,49c0-6.337,3.718-11.438,9.258-12.7a12.505,12.505,0,0,1,5.49,0C56.282,37.562,60,42.663,60,49,60,55.888,55.514,60,48,60Z"></path><path d="M58,20a1,1,0,0,0,1-1V18a1,1,0,0,0-2,0v1A1,1,0,0,0,58,20Z"></path><path d="M55,22h1a1,1,0,0,0,0-2H55a1,1,0,0,0,0,2Z"></path><path d="M58,22a1,1,0,0,0-1,1v1a1,1,0,0,0,2,0V23A1,1,0,0,0,58,22Z"></path><path d="M60,22h1a1,1,0,0,0,0-2H60a1,1,0,0,0,0,2Z"></path><path d="M46,11a1,1,0,0,0,1-1V9a1,1,0,0,0-2,0v1A1,1,0,0,0,46,11Z"></path><path d="M43,13h1a1,1,0,0,0,0-2H43a1,1,0,0,0,0,2Z"></path><path d="M46,13a1,1,0,0,0-1,1v1a1,1,0,0,0,2,0V14A1,1,0,0,0,46,13Z"></path><path d="M48,13h1a1,1,0,0,0,0-2H48a1,1,0,0,0,0,2Z"></path><path d="M10,5a1,1,0,0,0,1-1V3A1,1,0,0,0,9,3V4A1,1,0,0,0,10,5Z"></path><path d="M7,7H8A1,1,0,0,0,8,5H7A1,1,0,0,0,7,7Z"></path><path d="M10,7A1,1,0,0,0,9,8V9a1,1,0,0,0,2,0V8A1,1,0,0,0,10,7Z"></path><path d="M12,7h1a1,1,0,0,0,0-2H12a1,1,0,0,0,0,2Z"></path></g></svg>