<svg xmlns="http://www.w3.org/2000/svg" viewBox="0 0 64 64" x="0px" y="0px"><title>Cocktail</title><g><path d="M26.71,28.29a1.576,1.576,0,0,0-.15-.12.757.757,0,0,0-.18-.09.636.636,0,0,0-.18-.06.949.949,0,0,0-.58.06,1.155,1.155,0,0,0-.33.21,1.032,1.032,0,0,0-.21.33.942.942,0,0,0,0,.76,1.169,1.169,0,0,0,.21.33,1.014,1.014,0,0,0,1.42,0,1.169,1.169,0,0,0,.21-.33.943.943,0,0,0,0-.76A1.032,1.032,0,0,0,26.71,28.29Z"></path><path d="M28.62,35.08a.9.9,0,0,0-.54.54.99.99,0,0,0,.21,1.09,1.155,1.155,0,0,0,.33.21A.99.99,0,0,0,30,36a1.05,1.05,0,0,0-.29-.71A1.021,1.021,0,0,0,28.62,35.08Z"></path><path d="M31.71,30.29a1.576,1.576,0,0,0-.15-.12.757.757,0,0,0-.18-.09.636.636,0,0,0-.18-.06.949.949,0,0,0-.58.06,1.155,1.155,0,0,0-.33.21A1.05,1.05,0,0,0,30,31a1,1,0,0,0,.08.38,1.169,1.169,0,0,0,.21.33,1.155,1.155,0,0,0,.33.21A.852.852,0,0,0,31,32a1.011,1.011,0,0,0,.71-.29,1.169,1.169,0,0,0,.21-.33A.838.838,0,0,0,32,31,1.05,1.05,0,0,0,31.71,30.29Z"></path><path d="M35.29,34.71a1.155,1.155,0,0,0,.33.21.942.942,0,0,0,.76,0,1.155,1.155,0,0,0,.33-.21,1.169,1.169,0,0,0,.21-.33.942.942,0,0,0,0-.76,1.155,1.155,0,0,0-.21-.33,1.032,1.032,0,0,0-.33-.21,1,1,0,0,0-1.09.21,1.155,1.155,0,0,0-.21.33.943.943,0,0,0,0,.76A1.169,1.169,0,0,0,35.29,34.71Z"></path><path d="M38,30a1,1,0,0,0,.38-.07,1.461,1.461,0,0,0,.33-.22,1.169,1.169,0,0,0,.21-.33.943.943,0,0,0,0-.76,1.032,1.032,0,0,0-.21-.33,1,1,0,0,0-1.09-.21,1.155,1.155,0,0,0-.33.21,1.032,1.032,0,0,0-.21.33A.99.99,0,0,0,38,30Z"></path><path d="M43,60H33V41.949A11.01,11.01,0,0,0,43,31V4a2,2,0,0,0-2-2H23a2,2,0,0,0-2,2V31A11.01,11.01,0,0,0,31,41.949V60H22a1,1,0,0,0,0,2H43a1,1,0,0,0,0-2ZM41,4V18.735a5.906,5.906,0,0,1-1.9-.636,8.342,8.342,0,0,0-7.534,0,5.71,5.71,0,0,1-2.9.7,5.7,5.7,0,0,1-2.9-.7A7.68,7.68,0,0,0,23,17.255V4ZM23,31V19.265a5.9,5.9,0,0,1,1.9.636,7.633,7.633,0,0,0,3.765.9,7.637,7.637,0,0,0,3.766-.9,6.355,6.355,0,0,1,5.8,0A7.685,7.685,0,0,0,41,20.745V31a9,9,0,0,1-18,0Z"></path></g></svg>