<svg xmlns="http://www.w3.org/2000/svg" viewBox="0 0 48 48" x="0px" y="0px"><g data-name="Ice Coffee"><polygon points="22.092 32 23.06 22 15.087 22 15.92 32 22.092 32"></polygon><polygon points="12 20 23.254 20 23.641 16 12 16 12 20"></polygon><polygon points="31.079 44 31.913 34 16.087 34 16.92 44 31.079 44"></polygon><path d="M23.834,14l.387-4H20a5.008,5.008,0,0,0-4.9,4Z"></path><path d="M28,10H26.23l-.387,4H32.9A5.008,5.008,0,0,0,28,10Z"></path><polygon points="36 16 25.65 16 25.263 20 36 20 36 16"></polygon><polygon points="32.913 22 25.069 22 24.101 32 32.079 32 32.913 22"></polygon><polygon points="27 2.1 26.24 10 24.22 10 25 1.9 27 2.1"></polygon></g></svg>