<svg xmlns="http://www.w3.org/2000/svg" viewBox="0 0 64 64" x="0px" y="0px"><g data-name="Computer Game-Laptop"><path d="M61.9,51.553,56,39.764V8a3,3,0,0,0-3-3H11A3,3,0,0,0,8,8V39.764L2.105,51.553A1,1,0,0,0,2,52v5a2,2,0,0,0,2,2H60a2,2,0,0,0,2-2V52A1,1,0,0,0,61.9,51.553ZM29,53h6v1H29ZM4.618,51l5-10H54.382l5,10ZM10,8a1,1,0,0,1,1-1H53a1,1,0,0,1,1,1V39H10ZM4,57V53H27v1a2,2,0,0,0,2,2h6a2,2,0,0,0,2-2V53H60v4Z"></path><rect x="10" y="47" width="2" height="2"></rect><rect x="14" y="47" width="2" height="2"></rect><rect x="18" y="47" width="28" height="2"></rect><rect x="48" y="47" width="2" height="2"></rect><rect x="52" y="47" width="2" height="2"></rect><rect x="15" y="43" width="2" height="2"></rect><rect x="11" y="43" width="2" height="2"></rect><rect x="19" y="43" width="2" height="2"></rect><rect x="23" y="43" width="2" height="2"></rect><rect x="27" y="43" width="2" height="2"></rect><rect x="31" y="43" width="2" height="2"></rect><rect x="35" y="43" width="2" height="2"></rect><rect x="39" y="43" width="2" height="2"></rect><rect x="43" y="43" width="2" height="2"></rect><rect x="47" y="43" width="2" height="2"></rect><rect x="51" y="43" width="2" height="2"></rect><path d="M51,9H13a1,1,0,0,0-1,1V36a1,1,0,0,0,1,1H51a1,1,0,0,0,1-1V10A1,1,0,0,0,51,9ZM50,35H14V11H50Z"></path><rect x="27" y="17" width="2" height="2"></rect><path d="M29,33a9.888,9.888,0,0,0,7.069-2.936,1,1,0,0,0,0-1.411L30.414,23l5.653-5.653a1,1,0,0,0,0-1.411A9.888,9.888,0,0,0,29,13a10,10,0,0,0,0,20Zm0-18a7.9,7.9,0,0,1,4.9,1.682l-5.611,5.611a1,1,0,0,0,0,1.414L33.9,29.318A7.9,7.9,0,0,1,29,31a8,8,0,0,1,0-16Z"></path><rect x="34" y="22" width="2" height="2"></rect><rect x="38" y="22" width="2" height="2"></rect><rect x="42" y="22" width="2" height="2"></rect></g></svg>