<svg xmlns="http://www.w3.org/2000/svg" viewBox="0 0 64 64" x="0px" y="0px"><g data-name="Speech Bubble"><path d="M16.219,34.375A1,1,0,0,1,17,34h9V21a3,3,0,0,1,3-3h7V5a1,1,0,0,0-1-1H5A1,1,0,0,0,4,5V33a1,1,0,0,0,1,1H9a1,1,0,0,1,1,1v7.149ZM26,17H18V15h8ZM10,9H30v2H10Zm6,6v2H14V15Zm-6,0h2v2H10Zm0,6H24v2H10Zm0,6H24v2H10Z"></path><path d="M29,50H47a1,1,0,0,1,.781.375L54,58.149V51a1,1,0,0,1,1-1h4a1,1,0,0,0,1-1V21a1,1,0,0,0-1-1H29a1,1,0,0,0-1,1V49A1,1,0,0,0,29,50ZM54,33H52V31h2ZM42,25H54v2H42Zm8,6v2H48V31ZM38,25h2v2H38Zm-4,0h2v2H34Zm0,6H46v2H34Zm0,6H54v2H34Zm0,6H54v2H34Z"></path></g></svg>