<svg xmlns="http://www.w3.org/2000/svg" viewBox="0 0 64 64" x="0px" y="0px"><title>Checklist-Order-Delivery-Package-Box</title><g><path d="M4,53a1,1,0,0,0,1,1H36V31a3,3,0,0,1,3-3H52V21H34v7a1,1,0,0,1-1.625.781L28,25.28l-4.375,3.5A1,1,0,0,1,22,28V21H4Z"></path><path d="M27.375,23.219a1,1,0,0,1,1.25,0L32,25.919V13H24V25.919Z"></path><rect x="34" y="13" width="18" height="6"></rect><rect x="4" y="13" width="18" height="6"></rect><path d="M55.707,32.293l.293.293V30H54v2.586l.293-.293A1,1,0,0,1,55.707,32.293Z"></path><path d="M39,60H59a1,1,0,0,0,1-1V31a1,1,0,0,0-1-1H58v5a1,1,0,0,1-.617.924A.987.987,0,0,1,57,36a1,1,0,0,1-.707-.293L55,34.414l-1.293,1.293A1,1,0,0,1,52,35V30H39a1,1,0,0,0-1,1V59A1,1,0,0,0,39,60ZM54,38h4v2H54Zm-4,0h2v2H50Zm0,4h8v2H50Zm0,7h8v2H50Zm0,4h8v2H50ZM41.707,40.293,43,41.586l3.293-3.293,1.414,1.414-4,4a1,1,0,0,1-1.414,0l-2-2Zm0,11L43,52.586l3.293-3.293,1.414,1.414-4,4a1,1,0,0,1-1.414,0l-2-2Z"></path><path d="M45.93,4H10.07a.985.985,0,0,0-.825.44L4.869,11H51.131L46.758,4.444A.988.988,0,0,0,45.93,4Z"></path></g></svg>