<svg xmlns="http://www.w3.org/2000/svg" viewBox="0 0 64 64" x="0px" y="0px"><g data-name="Contract-Sign-Working At Home-Document-Home"><rect x="24" y="32" width="7" height="2"></rect><rect x="31" y="50" width="5" height="2"></rect><rect x="24" y="36" width="14" height="2"></rect><rect x="24" y="40" width="14" height="2"></rect><rect x="24" y="44" width="12" height="2"></rect><path d="M60.99,24.89h-.01L33.93,2.31a2.981,2.981,0,0,0-3.85,0L3.1,24.95a3.071,3.071,0,0,0-.74,3.89,2.976,2.976,0,0,0,2.08,1.43,2.921,2.921,0,0,0,.5.05,2.986,2.986,0,0,0,1.93-.71L8,28.66V59a3.009,3.009,0,0,0,3,3H53a3.009,3.009,0,0,0,3-3V28.54l1.13.95a3,3,0,0,0,3.86-4.6ZM54,59a1,1,0,0,1-1,1H11a1,1,0,0,1-1-1V26.96L32,8.31,54,26.85Zm5.82-31.17a.989.989,0,0,1-1.4.13L32.64,6.24a.987.987,0,0,0-1.29,0L5.58,28.08a.986.986,0,0,1-.81.22,1,1,0,0,1-.7-.49,1.083,1.083,0,0,1,.31-1.33L31.36,3.84A1.025,1.025,0,0,1,32,3.61a1,1,0,0,1,.64.23L59.7,26.43A.987.987,0,0,1,59.82,27.83Z"></path><path d="M50.5,31.08a3.014,3.014,0,0,0-4.1,1.1L44,36.34V29a3.009,3.009,0,0,0-3-3H23a3.009,3.009,0,0,0-3,3V55a3.009,3.009,0,0,0,3,3H41a3.009,3.009,0,0,0,3-3V48.34l7.6-13.16A3.007,3.007,0,0,0,50.5,31.08ZM42,55a1,1,0,0,1-1,1H23a1,1,0,0,1-1-1V29a1,1,0,0,1,1-1H41a1,1,0,0,1,1,1V39.8l-3.6,6.24a.942.942,0,0,0-.13.44L38,50.94a1,1,0,0,0,1.55.89L42,50.22Zm-.02-7.17-1.86,1.23.13-2.23,6.38-11.05,1.74,1Zm7.89-13.65-.5.87-1.74-1,.5-.87a1,1,0,1,1,1.74,1Z"></path></g></svg>