<svg xmlns="http://www.w3.org/2000/svg" viewBox="0 0 64 64" x="0px" y="0px"><g><path d="M59,24H57V5a3,3,0,0,0-3-3H10A3,3,0,0,0,7,5V16H5a3,3,0,0,0-3,3V59a3,3,0,0,0,3,3H59a3,3,0,0,0,3-3V27A3,3,0,0,0,59,24ZM51,4V9.132l-1.445-.964a1,1,0,0,0-1.11,0L47,9.132V4ZM45,4v7a1,1,0,0,0,1.555.832L49,10.2l2.445,1.63A1,1,0,0,0,53,11V4h1a1,1,0,0,1,1,1V24H27.781L26.16,17.516A2,2,0,0,0,24.219,16H21V5a1,1,0,0,1,1-1ZM19.184,4A2.966,2.966,0,0,0,19,5V16H15V5a1,1,0,0,1,1-1ZM9,5a1,1,0,0,1,1-1h3.184A2.966,2.966,0,0,0,13,5V16H9ZM60,59a1,1,0,0,1-1,1H5a1,1,0,0,1-1-1V19a1,1,0,0,1,1-1H24.219l1.621,6.484A2,2,0,0,0,27.781,26H59a1,1,0,0,1,1,1Z"></path><rect x="26" y="8" width="8" height="2"></rect><rect x="26" y="12" width="16" height="2"></rect><rect x="30" y="18" width="20" height="2"></rect><path d="M45.142,40.01l-2.682-.383a10.855,10.855,0,0,0-.678-1.639l1.624-2.167a1,1,0,0,0-.093-1.306l-2.828-2.828a1,1,0,0,0-1.307-.093l-2.166,1.625a10.9,10.9,0,0,0-1.639-.679l-.383-2.682A1,1,0,0,0,34,29H30a1,1,0,0,0-.99.858l-.383,2.682a10.86,10.86,0,0,0-1.639.679l-2.166-1.625a1,1,0,0,0-1.307.093l-2.828,2.828a1,1,0,0,0-.093,1.306l1.624,2.167a10.855,10.855,0,0,0-.678,1.639l-2.682.383A1,1,0,0,0,18,41v4a1,1,0,0,0,.858.99l2.682.383a10.855,10.855,0,0,0,.678,1.639l-1.624,2.167a1,1,0,0,0,.093,1.306l2.828,2.828a1,1,0,0,0,1.307.093l2.166-1.625a10.86,10.86,0,0,0,1.639.679l.383,2.682A1,1,0,0,0,30,57h4a1,1,0,0,0,.99-.858l.383-2.682a10.9,10.9,0,0,0,1.639-.679l2.166,1.625a1,1,0,0,0,1.307-.093l2.828-2.828a1,1,0,0,0,.093-1.306l-1.624-2.167a10.855,10.855,0,0,0,.678-1.639l2.682-.383A1,1,0,0,0,46,45V41A1,1,0,0,0,45.142,40.01ZM44,44.133l-2.463.351a1,1,0,0,0-.828.744,8.859,8.859,0,0,1-.975,2.356,1,1,0,0,0,.06,1.11l1.492,1.991-1.6,1.6L37.7,50.794a1,1,0,0,0-1.111-.061,8.923,8.923,0,0,1-2.357.977,1,1,0,0,0-.742.827L33.133,55H30.867l-.352-2.463a1,1,0,0,0-.742-.827,8.923,8.923,0,0,1-2.357-.977,1,1,0,0,0-1.111.061l-1.99,1.492-1.6-1.6,1.492-1.991a1,1,0,0,0,.06-1.11,8.859,8.859,0,0,1-.975-2.356,1,1,0,0,0-.828-.744L20,44.133V41.867l2.463-.351a1,1,0,0,0,.828-.744,8.859,8.859,0,0,1,.975-2.356,1,1,0,0,0-.06-1.11l-1.492-1.991,1.6-1.6,1.99,1.492a1,1,0,0,0,1.111.061,8.923,8.923,0,0,1,2.357-.977,1,1,0,0,0,.742-.827L30.867,31h2.266l.352,2.463a1,1,0,0,0,.742.827,8.923,8.923,0,0,1,2.357.977,1,1,0,0,0,1.111-.061l1.99-1.492,1.6,1.6-1.492,1.991a1,1,0,0,0-.06,1.11,8.859,8.859,0,0,1,.975,2.356,1,1,0,0,0,.828.744L44,41.867Z"></path><path d="M32,37a6,6,0,1,0,6,6A6.006,6.006,0,0,0,32,37Zm0,10a4,4,0,1,1,4-4A4,4,0,0,1,32,47Z"></path><rect x="31" y="33" width="2" height="2"></rect><rect x="24.636" y="35.636" width="2" height="2" transform="translate(-18.398 28.865) rotate(-45.01)"></rect><rect x="22" y="42" width="2" height="2"></rect><rect x="24.636" y="48.364" width="2" height="2" transform="translate(-27.397 32.586) rotate(-45)"></rect><rect x="31" y="51" width="2" height="2"></rect><rect x="37.364" y="48.364" width="2" height="2" transform="translate(-23.671 41.597) rotate(-45.01)"></rect><rect x="40" y="42" width="2" height="2"></rect><rect x="37.364" y="35.636" width="2" height="2" transform="translate(-14.669 37.849) rotate(-44.99)"></rect><rect x="48" y="55" width="8" height="2"></rect><rect x="48" y="51" width="2" height="2"></rect><rect x="52" y="51" width="4" height="2"></rect></g></svg>