<svg xmlns="http://www.w3.org/2000/svg" viewBox="0 0 64 64" x="0px" y="0px"><g><path d="M61.1,46.005,60,45.891V30a1,1,0,0,0-1-1H58V18a1,1,0,0,0-1-1H53a1,1,0,0,0-1,1V29H50V20a1,1,0,0,0-1-1H45a1,1,0,0,0-1,1v9H43a1,1,0,0,0-1,1V44.029L3.1,40.005a1,1,0,0,0-1.061,1.282l5.549,18.5a4.924,4.924,0,0,1-1.515-1.341A5.118,5.118,0,0,0,2,56.2v2c1.154,0,1.7.563,2.569,1.558A5.117,5.117,0,0,0,8.645,62H61a1,1,0,0,0,1-1V47A1,1,0,0,0,61.1,46.005ZM59.4,58.321a4.965,4.965,0,0,0-8.139,0c-.8.859-1.373,1.48-2.607,1.48s-1.8-.62-2.595-1.478a4.964,4.964,0,0,0-8.139,0c-.794.859-1.368,1.479-2.6,1.479s-1.8-.62-2.595-1.479a4.964,4.964,0,0,0-8.139,0c-.795.858-1.368,1.478-2.6,1.478s-1.8-.62-2.595-1.479A5.2,5.2,0,0,0,15.33,56.2a5.178,5.178,0,0,0-4.1,2.242,4.849,4.849,0,0,1-1.556,1.331L7.644,53H60v5.936C59.8,58.746,59.6,58.543,59.4,58.321ZM58.234,60H52.423c.1-.108.2-.216.3-.32.8-.859,1.373-1.48,2.606-1.48s1.8.621,2.6,1.48C58.026,59.785,58.132,59.893,58.234,60ZM44.886,60h-5.8c.1-.108.2-.216.3-.321.794-.859,1.368-1.479,2.595-1.479s1.811.622,2.607,1.482C44.683,59.785,44.783,59.893,44.886,60Zm-13.33,0h-5.8c.1-.107.2-.215.3-.318.8-.86,1.372-1.482,2.606-1.482s1.8.62,2.6,1.479C31.353,59.784,31.453,59.892,31.556,60Zm-13.33,0h-5.7l.209-.235c.882-1,1.437-1.565,2.6-1.565,1.228,0,1.8.62,2.6,1.479C18.023,59.784,18.123,59.892,18.226,60ZM54,19h2V29H54Zm-8,2h2v8H46ZM45,31H58v6H44V31Zm-1,8H58v6.684L44,44.236Zm16,8.9V51H7.044L4.389,42.149Z"></path><rect x="46" y="33" width="2" height="2"></rect><rect x="50" y="33" width="2" height="2"></rect><rect x="54" y="33" width="2" height="2"></rect><path d="M60,7V9a1,1,0,0,1-1,1H57a3,3,0,0,0-3,3v2h2V13a1,1,0,0,1,1-1h2a3,3,0,0,0,3-3V7Z"></path><path d="M48,15a1,1,0,0,1,1-1,3,3,0,0,0,3-3V9H50v2a1,1,0,0,1-1,1,3,3,0,0,0-3,3v2h2Z"></path><rect x="9" y="47" width="2" height="2"></rect><rect x="13" y="47" width="2" height="2"></rect><rect x="17" y="47" width="2" height="2"></rect><rect x="21" y="47" width="2" height="2"></rect><rect x="25" y="47" width="2" height="2"></rect><rect x="29" y="47" width="2" height="2"></rect><rect x="33" y="47" width="2" height="2"></rect><rect x="37" y="47" width="2" height="2"></rect><path d="M9,40H33a1,1,0,0,0,1-1V3a1,1,0,0,0-1.8-.6L30,5.333,27.8,2.4a1.036,1.036,0,0,0-1.6,0L24,5.335,21.789,2.4a1,1,0,0,0-.8-.4h0a1,1,0,0,0-.8.4L18,5.332,15.8,2.4a1.036,1.036,0,0,0-1.6,0L12,5.333,9.8,2.4A1,1,0,0,0,8,3V39A1,1,0,0,0,9,40ZM10,6l1.2,1.6a1.036,1.036,0,0,0,1.6,0L15,4.667,17.2,7.6A1,1,0,0,0,18,8h0a1,1,0,0,0,.8-.4l2.192-2.932L23.2,7.6A1,1,0,0,0,24,8h0a1,1,0,0,0,.8-.4L27,4.667,29.2,7.6a1.036,1.036,0,0,0,1.6,0L32,6V38H10Z"></path><rect x="14" y="20" width="8" height="2"></rect><rect x="24" y="20" width="4" height="2"></rect><rect x="14" y="24" width="8" height="2"></rect><rect x="24" y="24" width="4" height="2"></rect><rect x="14" y="28" width="8" height="2"></rect><rect x="24" y="28" width="4" height="2"></rect><rect x="16" y="32" width="6" height="2"></rect><rect x="24" y="32" width="4" height="2"></rect><rect x="14" y="16" width="8" height="2"></rect><rect x="24" y="16" width="4" height="2"></rect><rect x="22" y="12" width="6" height="2"></rect></g></svg>