<svg xmlns="http://www.w3.org/2000/svg" viewBox="0 0 64 64" x="0px" y="0px"><g data-name="Credit Card-Ecommerce-Hand-Shopping-Payment"><path d="M35,2H15a3.009,3.009,0,0,0-3,3V16.42L4.76,28.95A16.835,16.835,0,0,0,2.59,39.33l1.4,12.68L3,61.9l2,.2,1-10a1.477,1.477,0,0,0-.01-.21L4.57,39.11A14.908,14.908,0,0,1,6.5,29.95L12,20.42V33.39L10.44,36.1l1.73,1,5-8.66a2,2,0,1,1,3.46,2l-3.5,6.06a1.023,1.023,0,0,0-.06.87l1.29,3.21A9.149,9.149,0,0,1,19,43.93v1.3a9,9,0,0,1-1.28,4.63l-1.58,2.63A1,1,0,0,0,16,53v9h2V53.28l1.43-2.39A10.974,10.974,0,0,0,21,45.23v-1.3A11,11,0,0,0,20.27,40H35a3.009,3.009,0,0,0,3-3V5A3.009,3.009,0,0,0,35,2ZM25,38H19.48l-.37-.92,3.26-5.64a4,4,0,0,0-4.5-5.87,3.948,3.948,0,0,0-2.43,1.87L14,29.93V5a1,1,0,0,1,1-1H25Zm6,0H27V4h4Zm5-1a1,1,0,0,1-1,1H33V4h2a1,1,0,0,1,1,1Z"></path><rect x="21" y="6" width="2" height="2"></rect><rect x="21" y="10" width="2" height="2"></rect><rect x="21" y="14" width="2" height="2"></rect><rect x="21" y="18" width="2" height="2"></rect><rect x="21" y="22" width="2" height="2"></rect><rect x="17" y="6" width="2" height="14"></rect><path d="M59,36h-.36a9,9,0,1,0-11.28,0H47a3.009,3.009,0,0,0-3,3v2a2.923,2.923,0,0,0,.32,1.32A2.923,2.923,0,0,0,43,42H31a3.009,3.009,0,0,0-3,3v2a2.974,2.974,0,0,0,.78,2A2.974,2.974,0,0,0,28,51v2a2.974,2.974,0,0,0,.78,2A2.974,2.974,0,0,0,28,57v2a3.009,3.009,0,0,0,3,3H43a2.974,2.974,0,0,0,2-.78A2.974,2.974,0,0,0,47,62H59a3.009,3.009,0,0,0,3-3V57a2.974,2.974,0,0,0-.78-2A2.974,2.974,0,0,0,62,53V51a2.974,2.974,0,0,0-.78-2A2.974,2.974,0,0,0,62,47V45a2.974,2.974,0,0,0-.78-2A2.974,2.974,0,0,0,62,41V39A3.009,3.009,0,0,0,59,36ZM44,59a1,1,0,0,1-1,1H31a1,1,0,0,1-1-1V57a1,1,0,0,1,1-1h1v2h2V56h2v2h2V56h2v2h2V56h1a1,1,0,0,1,1,1Zm0-6a1,1,0,0,1-1,1H31a1,1,0,0,1-1-1V51a1,1,0,0,1,1-1h1v2h2V50h2v2h2V50h2v2h2V50h1a1,1,0,0,1,1,1Zm0-6a1,1,0,0,1-1,1H31a1,1,0,0,1-1-1V45a1,1,0,0,1,1-1h1v2h2V44h2v2h2V44h2v2h2V44h1a1,1,0,0,1,1,1Zm2-18a7,7,0,1,1,7,7A7.008,7.008,0,0,1,46,29ZM60,59a1,1,0,0,1-1,1H47a1,1,0,0,1-1-1V57a1,1,0,0,1,1-1h1v2h2V56h2v2h2V56h2v2h2V56h1a1,1,0,0,1,1,1Zm0-6a1,1,0,0,1-1,1H47a1,1,0,0,1-1-1V51a1,1,0,0,1,1-1h1v2h2V50h2v2h2V50h2v2h2V50h1a1,1,0,0,1,1,1Zm0-6a1,1,0,0,1-1,1H47a1,1,0,0,1-1-1V45a1,1,0,0,1,1-1h1v2h2V44h2v2h2V44h2v2h2V44h1a1,1,0,0,1,1,1Zm0-6a1,1,0,0,1-1,1H47a1,1,0,0,1-1-1V39a1,1,0,0,1,1-1h1v2h2V38h2v2h2V38h2v2h2V38h1a1,1,0,0,1,1,1Z"></path><path d="M56,29a3,3,0,0,1-3,3v2a5.006,5.006,0,0,0,5-5Z"></path><path d="M53,24a5.006,5.006,0,0,0-5,5h2a3,3,0,0,1,3-3Z"></path></g></svg>