<svg xmlns="http://www.w3.org/2000/svg" viewBox="0 0 64 64" x="0px" y="0px"><g><path d="M32,23.005a10,10,0,1,0,7.071,2.924A9.965,9.965,0,0,0,32,23.005Zm5.657,15.652A8,8,0,1,1,40,33,7.948,7.948,0,0,1,37.657,38.657Z"></path><rect x="42.021" y="44.021" width="4" height="2" transform="translate(-18.941 44.314) rotate(-45)"></rect><rect x="46.97" y="45.97" width="4.001" height="8.001" transform="translate(-20.991 49.272) rotate(-45.007)"></rect><path d="M41.157,40.742c-.215.254-.433.505-.672.743s-.489.457-.743.672l1.45,1.45,1.415-1.415Z"></path><path d="M32,27a6,6,0,1,0,4.243,1.757A5.963,5.963,0,0,0,32,27Z"></path><path d="M52,19a1,1,0,0,1-1-1,5,5,0,0,0-8.583-3.482,1,1,0,0,1-1.6-.226,9.988,9.988,0,0,0-18.725,3.451,1,1,0,0,1-1.672.611A5,5,0,0,0,12,22a1.086,1.086,0,0,1-.35.8,1.031,1.031,0,0,1-.8.268A5.475,5.475,0,0,0,10,23a6,6,0,0,0,0,12H20.183a11.988,11.988,0,1,1,23.634,0H52a8,8,0,0,0,0-16Zm-7,0H43V17h2Zm2-2h2v2H47Zm3,16H48V31h2Zm2,0V31a4,4,0,0,0,4-4h2A6.006,6.006,0,0,1,52,33Z"></path></g></svg>