<svg xmlns="http://www.w3.org/2000/svg" viewBox="0 0 64 64" x="0px" y="0px"><g><polygon points="22 4 22 8.22 24 8.72 24 4 22 4"></polygon><polygon points="42 8.22 42 4 40 4 40 8.72 42 8.22"></polygon><rect x="27" y="24" width="10" height="2"></rect><path d="M38,4H26v7a3.009,3.009,0,0,0,3,3h6a3.009,3.009,0,0,0,3-3Z"></path><rect x="31" y="16" width="2" height="6"></rect><path d="M15.7,40.07a.937.937,0,0,1,.37-.07h1.86a.937.937,0,0,1,.37.07L23.19,42H27V33a1,1,0,0,0-1-1H8a1,1,0,0,0-1,1v9h3.81ZM23,36h2v2H23Zm-4,0h2v2H19ZM9,36h2V34h2v2h2v2H13v2H11V38H9Z"></path><path d="M45.7,40.07a.937.937,0,0,1,.37-.07h1.86a.937.937,0,0,1,.37.07L53.19,42H57V33a1,1,0,0,0-1-1H38a1,1,0,0,0-1,1v9h3.81ZM53,36h2v2H53Zm-4,0h2v2H49ZM39,36h2V34h2v2h2v2H43v2H41V38H39Z"></path><rect x="6" y="54" width="6" height="6"></rect><rect x="22" y="54" width="6" height="6"></rect><rect x="52" y="54" width="6" height="6"></rect><rect x="36" y="54" width="6" height="6"></rect><path d="M56,50V47a1,1,0,0,0-1-1H48V44H46v2H39a1,1,0,0,0-1,1v3h2V48H54v2Z"></path><path d="M26,50V47a1,1,0,0,0-1-1H18V44H16v2H9a1,1,0,0,0-1,1v3h2V48H24v2Z"></path><polygon points="47 22 49 22 49 20 51 20 51 18 49 18 49 16 47 16 47 18 45 18 45 20 47 20 47 22"></polygon><polygon points="55 8 57 8 57 6 59 6 59 4 57 4 57 2 55 2 55 4 53 4 53 6 55 6 55 8"></polygon><rect x="53" y="13" width="2" height="2"></rect><rect x="57" y="23" width="2" height="2"></rect><polygon points="15 22 17 22 17 20 19 20 19 18 17 18 17 16 15 16 15 18 13 18 13 20 15 20 15 22"></polygon><polygon points="7 8 9 8 9 6 11 6 11 4 9 4 9 2 7 2 7 4 5 4 5 6 7 6 7 8"></polygon><rect x="9" y="13" width="2" height="2"></rect><rect x="5" y="23" width="2" height="2"></rect></g></svg>