<svg xmlns="http://www.w3.org/2000/svg" viewBox="0 0 64 64" x="0px" y="0px"><g><rect x="42" y="29" width="2" height="2"></rect><rect x="42.034" y="24.741" width="2" height="2" transform="translate(7.032 60.647) rotate(-75)"></rect><rect x="42.034" y="33.259" width="2" height="2" transform="translate(-7.4 12.305) rotate(-15)"></rect><path d="M38.46,36.52l-.51-1.93,1.928-.52A4.963,4.963,0,0,0,40,33V31H38V29h2V25.475l-.122.456-1.933-.518.518-1.932L40,23.893V13a2,2,0,0,0-4,0v6a1,1,0,0,1-2,0V10a2,2,0,0,0-4,0v9a1,1,0,0,1-2,0V6a2,2,0,0,0-4,0V19a1,1,0,0,1-2,0V9a2,2,0,0,0-4,0V25a1,1,0,0,1-1.866.5l-2-3.464A1.984,1.984,0,0,0,12.92,21.1a2.029,2.029,0,0,0-.522-.069,2,2,0,0,0-1.728,3l6.476,11.429A5.01,5.01,0,0,0,21.5,38H35a4.982,4.982,0,0,0,3.569-1.509ZM34,29h2v2H34Zm.6,8.554-.518-1.932,1.932-.518.517,1.932ZM36.014,24.9l-1.932-.518.518-1.932,1.931.518Z"></path><polygon points="51 31 51 34 57 34 57 26 51 26 51 29 53 29 53 31 51 31"></polygon><path d="M48,60H60V36H48Zm3-13h2V45h2v2h2v2H55v2H53V49H51Z"></path><path d="M56,12a1,1,0,0,1-1,1c-1.64,0-4,2.36-4,4a1,1,0,0,1-2,0c0-1.64-2.36-4-4-4a1,1,0,0,1,0-2c1.64,0,4-2.36,4-4a1,1,0,0,1,2,0c0,1.64,2.36,4,4,4A1,1,0,0,1,56,12Z"></path><path d="M14,12a1,1,0,0,1-1,1c-1.64,0-4,2.36-4,4a1,1,0,0,1-2,0c0-1.64-2.36-4-4-4a1,1,0,0,1,0-2c1.64,0,4-2.36,4-4A1,1,0,0,1,9,7c0,1.64,2.36,4,4,4A1,1,0,0,1,14,12Z"></path><path d="M21,47a1,1,0,0,1-1,1c-1.64,0-4,2.36-4,4a1,1,0,0,1-2,0c0-1.64-2.36-4-4-4a1,1,0,0,1,0-2c1.64,0,4-2.36,4-4a1,1,0,0,1,2,0c0,1.64,2.36,4,4,4A1,1,0,0,1,21,47Z"></path></g></svg>