<svg xmlns="http://www.w3.org/2000/svg" viewBox="0 0 64 64" x="0px" y="0px"><g><path d="M39,19H25a2,2,0,0,0-2,2V43a2,2,0,0,0,2,2H39a2,2,0,0,0,2-2V21A2,2,0,0,0,39,19ZM25,43V21H39V43Z"></path><path d="M32,29a3,3,0,1,0-3-3A3,3,0,0,0,32,29Zm0-4a1,1,0,1,1-1,1A1,1,0,0,1,32,25Z"></path><rect x="28" y="37" width="8" height="2"></rect><rect x="28" y="33" width="8" height="2"></rect><path d="M44,23v2h6a1,1,0,0,0,.707-.293l3-3-1.414-1.414L49.586,23Z"></path><path d="M50.707,39.293A1,1,0,0,0,50,39H44v2h5.586l2.707,2.707,1.414-1.414Z"></path><rect x="44" y="31" width="10" height="2"></rect><path d="M13.293,24.707A1,1,0,0,0,14,25h6V23H14.414l-2.707-2.707-1.414,1.414Z"></path><path d="M20,41V39H14a1,1,0,0,0-.707.293l-3,3,1.414,1.414L14.414,41Z"></path><rect x="10" y="31" width="10" height="2"></rect><path d="M56,21a3,3,0,1,0-3-3A3,3,0,0,0,56,21Zm0-4a1,1,0,1,1-1,1A1,1,0,0,1,56,17Z"></path><path d="M59,29a3,3,0,1,0,3,3A3,3,0,0,0,59,29Zm0,4a1,1,0,1,1,1-1A1,1,0,0,1,59,33Z"></path><path d="M56,43a3,3,0,1,0,3,3A3,3,0,0,0,56,43Zm0,4a1,1,0,1,1,1-1A1,1,0,0,1,56,47Z"></path><path d="M8,21a3,3,0,1,0-3-3A3,3,0,0,0,8,21Zm0-4a1,1,0,1,1-1,1A1,1,0,0,1,8,17Z"></path><path d="M8,32a3,3,0,1,0-3,3A3,3,0,0,0,8,32ZM4,32a1,1,0,1,1,1,1A1,1,0,0,1,4,32Z"></path><path d="M8,43a3,3,0,1,0,3,3A3,3,0,0,0,8,43Zm0,4a1,1,0,1,1,1-1A1,1,0,0,1,8,47Z"></path><path d="M32,8a3,3,0,1,0-3-3A3,3,0,0,0,32,8Zm0-4a1,1,0,1,1-1,1A1,1,0,0,1,32,4Z"></path><path d="M48,8a3,3,0,1,0-3-3A3,3,0,0,0,48,8Zm0-4a1,1,0,1,1-1,1A1,1,0,0,1,48,4Z"></path><path d="M24.023,14H31v3h2V14h6.977a1,1,0,0,0,.707-.293L44.7,9.7,43.281,8.281,39.562,12H33V10H31v2H24.437L20.719,8.281,19.305,9.7l4.011,4.012A1,1,0,0,0,24.023,14Z"></path><path d="M16,8a3,3,0,1,0-3-3A3,3,0,0,0,16,8Zm0-4a1,1,0,1,1-1,1A1,1,0,0,1,16,4Z"></path><path d="M32,56a3,3,0,1,0,3,3A3,3,0,0,0,32,56Zm0,4a1,1,0,1,1,1-1A1,1,0,0,1,32,60Z"></path><path d="M39.977,50H33V47H31v3H24.023a1,1,0,0,0-.707.293l-4.011,4.012,1.414,1.414L24.437,52H31v2h2V52h6.562l3.719,3.719L44.7,54.305l-4.011-4.012A1,1,0,0,0,39.977,50Z"></path><path d="M48,56a3,3,0,1,0,3,3A3,3,0,0,0,48,56Zm0,4a1,1,0,1,1,1-1A1,1,0,0,1,48,60Z"></path><path d="M16,56a3,3,0,1,0,3,3A3,3,0,0,0,16,56Zm0,4a1,1,0,1,1,1-1A1,1,0,0,1,16,60Z"></path></g></svg>