<svg xmlns="http://www.w3.org/2000/svg" viewBox="0 0 64 64" x="0px" y="0px"><g data-name="Smart home-Internet of Things-Key lock-Door-Smartphone"><path d="M59,56a1,1,0,0,0,1-1V54H32.58a4.987,4.987,0,0,1-1.61,2Z"></path><rect x="34" y="10" width="10" height="4"></rect><rect x="46" y="16" width="10" height="4"></rect><path d="M59,4H31a1,1,0,0,0-1,1V21.42A5.014,5.014,0,0,1,33,26V52H60V5A1,1,0,0,0,59,4ZM44,31H41v3a3,3,0,0,1-6,0V28a3,3,0,0,1,6,0v1h3ZM58,21a1,1,0,0,1-1,1H33a1,1,0,0,1-1-1V9a1,1,0,0,1,1-1H57a1,1,0,0,1,1,1Z"></path><rect x="34" y="16" width="10" height="4"></rect><rect x="46" y="10" width="10" height="4"></rect><path d="M11,27H31V26a3.009,3.009,0,0,0-3-3H14a3.009,3.009,0,0,0-3,3Z"></path><path d="M38,27a1,1,0,0,0-1,1v6a1,1,0,0,0,2,0V31H38V29h1V28A1,1,0,0,0,38,27Z"></path><path d="M14.73,49l-.55.96.54.82A7.537,7.537,0,0,1,16,55H28a3.009,3.009,0,0,0,3-3V49ZM22,53H20V51h2Z"></path><path d="M12.13,49.5a.994.994,0,0,0,.04,1.05l.89,1.34a5.615,5.615,0,0,1,0,6.22l-.89,1.34A.967.967,0,0,0,12,60H5v-.06L4.26,48.1a9.055,9.055,0,0,1,2.26-6.55L9,38.76v8.17l-.33.57,1.73,1,3-5.2a1.01,1.01,0,0,1,1.37-.36,1,1,0,0,1,.36,1.36Z"></path><path d="M11,29V43.46l.67-1.16a3.007,3.007,0,0,1,5.5.73,3,3,0,0,1-.3,2.27L15.89,47H31V29Zm5,10H14V37h2Zm4,0H18V37h2Zm4,0H22V37h2Zm4,0H26V37h2Z"></path><path d="M22.535,14.465a5,5,0,0,0-7.07,0l1.414,1.414a3.072,3.072,0,0,1,4.242,0Z"></path><path d="M23.95,13.05l1.414-1.414a9.012,9.012,0,0,0-12.728,0L14.05,13.05A7.009,7.009,0,0,1,23.95,13.05Z"></path><path d="M17.586,17.586,19,19l1.414-1.414A2,2,0,0,0,17.586,17.586Z"></path></g></svg>