<svg xmlns="http://www.w3.org/2000/svg" viewBox="0 0 64 64" x="0px" y="0px"><title>Check-Package</title><g><path d="M19,40A13,13,0,1,0,32,27,13.015,13.015,0,0,0,19,40Zm24,0A11,11,0,1,1,32,29,11.013,11.013,0,0,1,43,40Z"></path><path d="M27.707,40.293a1,1,0,0,0-1.414,1.414l3,3a1,1,0,0,0,1.414,0l8-8a1,1,0,0,0-1.414-1.414L30,42.586Z"></path><path d="M53.992,18.959a1,1,0,0,0-.066-.327c0-.009,0-.018-.008-.027l0-.006-7-16A1,1,0,0,0,46,2H18a1,1,0,0,0-.916.6l-7,16,0,.007c0,.008,0,.017-.008.026a1,1,0,0,0-.066.327c0,.014-.008.026-.008.041V61a1,1,0,0,0,1,1H53a1,1,0,0,0,1-1V19C54,18.985,53.992,18.973,53.992,18.959ZM51.471,18H33V4H45.346ZM18.654,4H31V18H12.529ZM52,60H12V20H52Z"></path></g></svg>