<svg xmlns="http://www.w3.org/2000/svg" viewBox="0 0 64 64" x="0px" y="0px"><title>Trophy</title><g><path d="M17.5,24A2.5,2.5,0,0,1,15,21.5H13a4.5,4.5,0,0,0,9,0H20A2.5,2.5,0,0,1,17.5,24Z"></path><path d="M58,40a9.01,9.01,0,0,1-9,9,1,1,0,0,0-1,1V60H26V51h5V49H17a5.006,5.006,0,0,1-5-5V36a1,1,0,0,0-1-1H6.385l6.539-19.748A17.9,17.9,0,0,1,29.391,4H37V2H29.391a19.913,19.913,0,0,0-18.34,12.555l-7,21.131A1,1,0,0,0,5,37h5v7a7.008,7.008,0,0,0,7,7h7V61a1,1,0,0,0,1,1H49a1,1,0,0,0,1-1V50.955A11.015,11.015,0,0,0,60,40V36H58Z"></path><path d="M61,11H41a1,1,0,0,0-1,1v2a5,5,0,0,0,4.065,4.906A7.014,7.014,0,0,0,49,24.705V32H46v2H57V32H54V24.315a7.009,7.009,0,0,0,3.935-5.409A5,5,0,0,0,62,14V12A1,1,0,0,0,61,11Zm-5,4H46V13H56ZM42,14V13h2v3.829A3.006,3.006,0,0,1,42,14ZM52,32H51V25a7.026,7.026,0,0,0,1-.08Zm-1-9a5.006,5.006,0,0,1-5-5V17H56v1A5.006,5.006,0,0,1,51,23Zm9-9a3.006,3.006,0,0,1-2,2.829V13h2Z"></path><rect x="50" y="2" width="2" height="4"></rect><rect x="55.414" y="5.586" width="4" height="2" transform="translate(12.159 42.527) rotate(-45)"></rect><rect x="42.586" y="4.586" width="2" height="4" transform="translate(8.111 32.752) rotate(-45.005)"></rect></g></svg>