<svg xmlns="http://www.w3.org/2000/svg" viewBox="0 0 64 64" x="0px" y="0px"><g><path d="M27.229,34.2l4.241,2.65a1,1,0,0,0,1.06,0l4.241-2.65A8.951,8.951,0,0,0,41,26.566v-7.55a1,1,0,0,0-.992-1L38,18a6.927,6.927,0,0,1-3.383-.878,7.726,7.726,0,0,1-1.764-1.665l-.1-.113a1.033,1.033,0,0,0-1.51,0l-.1.113a7.689,7.689,0,0,1-1.776,1.671A6.915,6.915,0,0,1,25.992,18l-2,.016a1,1,0,0,0-.992,1v7.55A8.951,8.951,0,0,0,27.229,34.2ZM25,20.008,26,20a8.883,8.883,0,0,0,4.338-1.122A6.869,6.869,0,0,0,32,17.507a6.827,6.827,0,0,0,1.65,1.365A8.9,8.9,0,0,0,37.992,20L39,20.008v6.558A6.958,6.958,0,0,1,35.71,32.5L32,34.821,28.29,32.5A6.958,6.958,0,0,1,25,26.566Z"></path><path d="M31,29a1,1,0,0,0,.707-.293l6-6-1.414-1.414L31,26.586l-2.293-2.293-1.414,1.414,3,3A1,1,0,0,0,31,29Z"></path><path d="M57,2H7A5.006,5.006,0,0,0,2,7V45a5.006,5.006,0,0,0,5,5H23.867l-.75,6H21a3,3,0,0,0,0,6H43a3,3,0,0,0,0-6H40.883l-.75-6H57a5.006,5.006,0,0,0,5-5V7A5.006,5.006,0,0,0,57,2ZM7,4H57a3,3,0,0,1,3,3v3H4V7A3,3,0,0,1,7,4Zm53,8V40H4V12ZM44,59a1,1,0,0,1-1,1H21a1,1,0,0,1,0-2H43A1,1,0,0,1,44,59Zm-5.133-3H25.133l.75-6H38.117ZM57,48H7a3,3,0,0,1-3-3V42H60v3A3,3,0,0,1,57,48Z"></path><rect x="54" y="44" width="2" height="2"></rect><rect x="8" y="6" width="2" height="2"></rect><rect x="12" y="6" width="2" height="2"></rect><rect x="16" y="6" width="2" height="2"></rect></g></svg>