<svg xmlns="http://www.w3.org/2000/svg" viewBox="0 0 64 64" x="0px" y="0px"><g data-name="Smartphone-Money-Payment-Financial-Online Banking"><path d="M56,2H28a6,6,0,0,0-6,6V32.43a.845.845,0,0,0-.05-.17,1.03,1.03,0,0,0-.71-.49l-1.87-.29A7,7,0,0,0,12,35.35a7.012,7.012,0,0,0-7.37-3.87l-1.87.29a1.03,1.03,0,0,0-.71.49,1,1,0,0,0-.06.86l.67,1.76a7.057,7.057,0,0,0,6.55,4.49,6.559,6.559,0,0,0,1.08-.09l.71-.11V42H6a3.009,3.009,0,0,0-3,3v2a2.974,2.974,0,0,0,.78,2A2.974,2.974,0,0,0,3,51v2a2.974,2.974,0,0,0,.78,2A2.974,2.974,0,0,0,3,57v2a3.009,3.009,0,0,0,3,3H18a2.974,2.974,0,0,0,2-.78A2.974,2.974,0,0,0,22,62H56a6,6,0,0,0,6-6V8A6,6,0,0,0,56,2ZM9.98,37.31a5.033,5.033,0,0,1-5.45-3.15l-.23-.61.64-.1a5.033,5.033,0,0,1,5.45,3.15l.23.61Zm3.63-.71a5.039,5.039,0,0,1,5.45-3.15l.64.1-.23.61a5.033,5.033,0,0,1-5.45,3.15l-.64-.1ZM19,59a1,1,0,0,1-1,1H6a1,1,0,0,1-1-1V57a1,1,0,0,1,1-1H7v2H9V56h2v2h2V56h2v2h2V56h1a1,1,0,0,1,1,1Zm0-6a1,1,0,0,1-1,1H6a1,1,0,0,1-1-1V51a1,1,0,0,1,1-1H7v2H9V50h2v2h2V50h2v2h2V50h1a1,1,0,0,1,1,1Zm0-6a1,1,0,0,1-1,1H6a1,1,0,0,1-1-1V45a1,1,0,0,1,1-1H7v2H9V44h2v2h2V44h2v2h2V44h1a1,1,0,0,1,1,1Zm-1-5H13V39.17l.71.11a6.559,6.559,0,0,0,1.08.09,7.057,7.057,0,0,0,6.55-4.49L22,33.15V48a2.923,2.923,0,0,0-1.32.32A2.923,2.923,0,0,0,21,47V45A3.009,3.009,0,0,0,18,42ZM35,59a1,1,0,0,1-1,1H22a1,1,0,0,1-1-1V57a1,1,0,0,1,1-1h1v2h2V56h2v2h2V56h2v2h2V56h1a1,1,0,0,1,1,1Zm0-6a1,1,0,0,1-1,1H22a1,1,0,0,1-1-1V51a1,1,0,0,1,1-1h1v2h2V50h2v2h2V50h2v2h2V50h1a1,1,0,0,1,1,1Zm25,3a4,4,0,0,1-4,4H36.82A3,3,0,0,0,37,59V57a2.974,2.974,0,0,0-.78-2A2.974,2.974,0,0,0,37,53V51a3,3,0,0,0-.18-1H60Zm0-8H24V12H60Zm0-38H24V8a4,4,0,0,1,4-4H56a4,4,0,0,1,4,4Z"></path><path d="M44,52H40a3,3,0,0,0,0,6h4a3,3,0,0,0,0-6Zm0,4H40a1,1,0,0,1,0-2h4a1,1,0,0,1,0,2Z"></path><rect x="35" y="6" width="2" height="2"></rect><rect x="39" y="6" width="6" height="2"></rect><path d="M43,33H41a1,1,0,0,1-1-1H38a3,3,0,0,0,3,3v1h2V35a3,3,0,0,0,0-6H41a1,1,0,0,1,0-2h2a1,1,0,0,1,1,1h2a3,3,0,0,0-3-3V24H41v1a3,3,0,0,0,0,6h2a1,1,0,0,1,0,2Z"></path><path d="M42,40A10,10,0,1,0,32,30,10.011,10.011,0,0,0,42,40Zm0-18a8,8,0,1,1-8,8A8.009,8.009,0,0,1,42,22Z"></path></g></svg>