<svg xmlns="http://www.w3.org/2000/svg" viewBox="0 0 64 64" x="0px" y="0px"><g><path d="M61,2H3A1,1,0,0,0,2,3V61a1,1,0,0,0,1,1H61a1,1,0,0,0,1-1V3A1,1,0,0,0,61,2ZM27,4H37V19.13l-4.45-2.96a.975.975,0,0,0-1.1,0L27,19.13ZM4,4H25V14H4ZM60,60H4V16H25v5a1,1,0,0,0,1.55.83L32,18.2l5.45,3.63A1,1,0,0,0,39,21V16H60Zm0-46H39V4H60Z"></path><path d="M57.38,47.95l-5.89-8.51.06-.06a17.021,17.021,0,0,0,3.6-5.32l.12-.28a3.957,3.957,0,0,0-5.19-5.2l-.28.12a16.824,16.824,0,0,0-5.32,3.61l-.06.06-8.51-5.89a1,1,0,0,0-1.27.11l-2.13,2.13a1,1,0,0,0,0,1.41l7.08,7.07-4.95,4.95a.689.689,0,0,0-.11.13l-.06.08-5.04-2.52a1,1,0,0,0-1.16.19l-2.12,2.12a1,1,0,0,0,0,1.41l4.95,4.95,4.24,4.25,4.95,4.95a1.014,1.014,0,0,0,1.42,0l2.12-2.12a1.021,1.021,0,0,0,.19-1.16l-2.53-5.04.09-.06a.689.689,0,0,0,.13-.11l4.95-4.95,7.07,7.07a.978.978,0,0,0,1.41,0l2.12-2.12A.989.989,0,0,0,57.38,47.95ZM34.64,29.42l.82-.82,7.52,5.21-1.4,1.39-.58.59ZM28.27,42.86l.91-.91,4.11,2.06-1.61,2.26ZM41.9,54.68l-.9.91-3.41-3.41,2.26-1.61Zm4.05-12.53-5.6,5.6-4.19,2.99-.82-.81,3.54-3.54-1.42-1.41-3.53,3.53-.82-.81,3-4.19,6.71-6.71,3.07-3.08a15.193,15.193,0,0,1,4.7-3.18l.28-.12a1.961,1.961,0,0,1,2.57,2.57l-.12.28a15.051,15.051,0,0,1-3.19,4.7l-.64.65Zm8.48,7.07-6.36-6.36,1.98-1.98,5.21,7.52Z"></path><rect x="49.9" y="31.958" width="2" height="2" transform="translate(-8.397 45.644) rotate(-45)"></rect><rect x="20" y="48" width="2" height="8"></rect><rect x="16" y="48" width="2" height="8"></rect><rect x="12" y="48" width="2" height="8"></rect><rect x="8" y="52" width="2" height="4"></rect><rect x="8" y="48" width="2" height="2"></rect></g></svg>