<svg xmlns="http://www.w3.org/2000/svg" viewBox="0 0 64 64" x="0px" y="0px"><title>Basket-Shopping</title><g><path d="M59,24H55.8L52.672,9.915A4.968,4.968,0,0,0,47.792,6H16.208a4.968,4.968,0,0,0-4.88,3.915L8.2,24H5a3,3,0,0,0-3,3v2a3,3,0,0,0,3,3h.125L8.314,55.925A7.022,7.022,0,0,0,15.253,62H48.747a7.022,7.022,0,0,0,6.939-6.075L58.875,32H59a3,3,0,0,0,3-3V27A3,3,0,0,0,59,24ZM13.28,10.349A2.982,2.982,0,0,1,16.208,8H47.792a2.982,2.982,0,0,1,2.928,2.349L53.753,24H52.8L49.746,10.557A1.991,1.991,0,0,0,47.8,9H16.2a1.991,1.991,0,0,0-1.951,1.557L11.2,24h-.955ZM50.748,24h-37.5L16.2,11H47.8ZM53.7,55.661A5.015,5.015,0,0,1,48.747,60H15.253A5.015,5.015,0,0,1,10.3,55.661L7.142,32H56.858ZM60,29a1,1,0,0,1-1,1H5a1,1,0,0,1-1-1V27a1,1,0,0,1,1-1H59a1,1,0,0,1,1,1Z"></path><path d="M37,57h0a3,3,0,0,0,3-3V38a3,3,0,0,0-6,0V54A3,3,0,0,0,37,57ZM36,38a1,1,0,0,1,2,0V54a1,1,0,0,1-1,1h0a1,1,0,0,1-1-1Z"></path><path d="M46.1,57a2.994,2.994,0,0,0,2.993-2.848l.8-16.005a3,3,0,1,0-5.987-.3l-.8,16.005A3,3,0,0,0,46.1,57Zm-.2-19.053a1,1,0,1,1,1.992.1l-.8,16a1,1,0,1,1-1.992-.1Z"></path><path d="M27,57h0a3,3,0,0,0,3-3V38a3,3,0,0,0-6,0V54A3,3,0,0,0,27,57ZM26,38a1,1,0,0,1,2,0V54a1,1,0,0,1-1,1h0a1,1,0,0,1-1-1Z"></path><path d="M17.9,57a3,3,0,0,0,2.994-3.147l-.8-16.005a3,3,0,0,0-5.987.3l.8,16.005A2.994,2.994,0,0,0,17.9,57ZM16.377,37.31a1,1,0,0,1,1.719.637l.8,16a1,1,0,1,1-1.992.1l-.8-16A.987.987,0,0,1,16.377,37.31Z"></path></g></svg>