<svg xmlns="http://www.w3.org/2000/svg" viewBox="0 0 64 64" x="0px" y="0px"><g data-name="coffee cup-coffee mug-espresso-drink-coffee"><path d="M54,25H50.37l.28-2.58A4,4,0,0,0,46.67,18H17.33a4,4,0,0,0-3.98,4.42l3.47,32.89a2.668,2.668,0,0,0,.16.69H8a2.006,2.006,0,0,0-2,2v2a2.006,2.006,0,0,0,2,2H56a2.006,2.006,0,0,0,2-2V58a2.006,2.006,0,0,0-2-2H47.02a2.668,2.668,0,0,0,.16-.69L47.85,49H54a6,6,0,0,0,6-6V31A6,6,0,0,0,54,25Zm-4.26,6H53a1,1,0,0,1,1,1V42a1,1,0,0,1-1,1H48.48ZM56,58v2H8V58ZM45.19,55.1a.99.99,0,0,1-.99.9H19.8a.99.99,0,0,1-.99-.9L15.34,22.21a1.972,1.972,0,0,1,.51-1.55A1.95,1.95,0,0,1,17.33,20H46.67a1.95,1.95,0,0,1,1.48.66,1.972,1.972,0,0,1,.51,1.55ZM58,43a4,4,0,0,1-4,4H48.06l.21-2H53a3.009,3.009,0,0,0,3-3V32a3.009,3.009,0,0,0-3-3H49.95l.21-2H54a4,4,0,0,1,4,4Z"></path><path d="M26,16h2a2.258,2.258,0,0,1,.759-1.681,4.208,4.208,0,0,0,0-5.968,2.245,2.245,0,0,1,0-3.366A4.168,4.168,0,0,0,30,2H28a2.261,2.261,0,0,1-.759,1.683,4.209,4.209,0,0,0,0,5.969,2.244,2.244,0,0,1,0,3.365A4.164,4.164,0,0,0,26,16Z"></path><path d="M34,16h2a2.258,2.258,0,0,1,.759-1.681,4.208,4.208,0,0,0,0-5.968,2.245,2.245,0,0,1,0-3.366A4.168,4.168,0,0,0,38,2H36a2.261,2.261,0,0,1-.759,1.683,4.209,4.209,0,0,0,0,5.969,2.244,2.244,0,0,1,0,3.365A4.164,4.164,0,0,0,34,16Z"></path></g></svg>