<svg xmlns="http://www.w3.org/2000/svg" viewBox="0 0 64 64" x="0px" y="0px"><g><path d="M4,49v2H19.946a1,1,0,0,1,.9.555A7.994,7.994,0,0,0,35.937,49Z"></path><path d="M28,35.412C26.584,36.9,25,38.951,25,40a3,3,0,0,0,6,0C31,38.949,29.417,36.893,28,35.412Z"></path><path d="M38.79,25.345A2.986,2.986,0,0,0,41.472,27H60V19H52.65a5.99,5.99,0,0,1-11.3,0H34v3.219l1.457.365A5,5,0,0,1,38.718,25.2ZM55,21h2v2H55Zm-4,2h2v2H51ZM40,22h2v2H40Z"></path><path d="M51,17a4,4,0,1,0-4,4A4,4,0,0,0,51,17Zm-7,1V16h2V14h2v2h2v2H48v2H46V18Z"></path><path d="M60,7H41.472a2.986,2.986,0,0,0-2.683,1.658l-.07.141a5,5,0,0,1-3.262,2.617L34,11.781V17h7a6,6,0,0,1,12,0h7Z"></path><polygon points="32.002 23.011 32 11 32 10 30 10 30 24 32.002 24 32.002 23.011"></polygon><rect x="23" y="31" width="2" height="2"></rect><rect x="27" y="28" width="2" height="2"></rect><rect x="23" y="25" width="2" height="2"></rect></g></svg>