<svg xmlns="http://www.w3.org/2000/svg" viewBox="0 0 64 64" x="0px" y="0px"><g><circle cx="54" cy="59" r="2"></circle><circle cx="46" cy="59" r="2"></circle><path d="M38,40.86V49h2V41.57a6.9,6.9,0,0,0-.91-.37Z"></path><rect x="38" y="51" width="2" height="2"></rect><path d="M28,37V34.57A10.665,10.665,0,0,1,25,35a11.09,11.09,0,0,1-3-.42V37a3,3,0,0,0,6,0Z"></path><path d="M42,59a3.657,3.657,0,0,0,.13,1H38V55h2.42a4.939,4.939,0,0,0,1.99,2.25A3.953,3.953,0,0,0,42,59Z"></path><path d="M20.19,38.3l-1.59.5L19.86,47H21V45h2v2h7.14l1.26-8.2-1.59-.5a4.976,4.976,0,0,1-9.62,0Z"></path><path d="M36,19v4a2.015,2.015,0,0,0,2-2A2.006,2.006,0,0,0,36,19Z"></path><path d="M14.13,15.1a1.006,1.006,0,0,0-.01.91l.1.2a1.006,1.006,0,0,0,1.08.54l7.37-1.34a13.031,13.031,0,0,1,4.66,0l7.37,1.34a1.02,1.02,0,0,0,1.08-.54l.1-.2a1.006,1.006,0,0,0-.01-.91.978.978,0,0,0-.73-.53l-7.86-1.21a15.374,15.374,0,0,0-4.56,0l-7.86,1.21A.978.978,0,0,0,14.13,15.1Z"></path><path d="M58,53V41a3.009,3.009,0,0,0-3-3H45a3.009,3.009,0,0,0-3,3V53a3.009,3.009,0,0,0,3,3H55A3.009,3.009,0,0,0,58,53ZM47,53H45V41h2Zm4,0H49V41h2Zm2-12h2V53H53Z"></path><circle cx="25" cy="53" r="1"></circle><path d="M19.44,11.84,18.08,7.25a8.913,8.913,0,0,0-2.05,5.12Z"></path><path d="M30.56,11.84l3.41.53a9.006,9.006,0,0,0-2.05-5.12Z"></path><path d="M22.42,11.39a16.537,16.537,0,0,1,5.16,0l.99.15,1.72-5.81a8.953,8.953,0,0,0-10.58,0l1.72,5.81Z"></path><path d="M6,49h6V40.86l-1.09.34A6.964,6.964,0,0,0,6,47.88Z"></path><path d="M36,40.24l-2.67-.84-1.2,7.82A3.007,3.007,0,0,1,34,50v6a3.009,3.009,0,0,1-3,3H19a3.009,3.009,0,0,1-3-3V50a3.007,3.007,0,0,1,1.87-2.78l-1.2-7.82L14,40.24V60H36Z"></path><path d="M23.03,17.37,16,18.65V24a9,9,0,0,0,18,0V18.65l-7.03-1.28A11.335,11.335,0,0,0,23.03,17.37ZM19,21a2,2,0,1,1,2,2A2,2,0,0,1,19,21Zm10-2a2,2,0,1,1-2,2A2,2,0,0,1,29,19Zm-.692,8.75a5,5,0,0,1-6.616,0l1.325-1.5a3.074,3.074,0,0,0,3.966,0Z"></path><rect x="6" y="55" width="6" height="5"></rect><rect x="6" y="51" width="6" height="2"></rect><path d="M12,21a2.015,2.015,0,0,0,2,2V19A2.006,2.006,0,0,0,12,21Z"></path><path d="M18,50v6a1,1,0,0,0,1,1H31a1,1,0,0,0,1-1V50a1,1,0,0,0-1-1H19A1,1,0,0,0,18,50Zm7,0a3,3,0,1,1-3,3A3,3,0,0,1,25,50Z"></path><path d="M54,31v5H52V32H48v4H46V31a1,1,0,0,1,1-1h6A1,1,0,0,1,54,31Z"></path></g></svg>