<svg xmlns="http://www.w3.org/2000/svg" viewBox="0 0 48 48" x="0px" y="0px"><title>Gift Box_8</title><g data-name="Gift Box"><path d="M39,8H34V3.361A3,3,0,0,0,30.507.4a.989.989,0,0,0-.238.071L26.6,2.084a.2.2,0,0,0-.019.012A1.946,1.946,0,0,0,26,2H22a1.946,1.946,0,0,0-.579.1.2.2,0,0,0-.019-.012L17.731.472A.989.989,0,0,0,17.493.4,3,3,0,0,0,14,3.361V8H9a3,3,0,0,0-3,3v6a3,3,0,0,0,2,2.816V43a5.006,5.006,0,0,0,5,5H35a4.994,4.994,0,0,0,4.8-3.687.94.94,0,0,0,.046-.148A4.971,4.971,0,0,0,40,43V19.816A3,3,0,0,0,42,17V11A3,3,0,0,0,39,8ZM28,3.653l2.939-1.291a.957.957,0,0,1,.707.236A.985.985,0,0,1,32,3.361V8H28V3.653ZM26,4V8H22V4ZM16,3.361a.985.985,0,0,1,.354-.763.968.968,0,0,1,.707-.236L20,3.653V8H16ZM26.414,46,10,29.586V24.414L31.586,46Zm-8,0L10,37.586V32.414L23.586,46ZM10,43V40.414L15.586,46H13A3,3,0,0,1,10,43ZM29.586,20,38,28.414v5.172L24.414,20ZM38,25.586,32.414,20H38ZM40,17a1,1,0,0,1-1,1H21a1,1,0,0,0,0,2h.586L38,36.414v5.172L17.707,21.293a1,1,0,0,0-1.414,1.414L37.76,44.174A3,3,0,0,1,35,46h-.586L10,21.586V20h1a1,1,0,0,0,0-2H9a1,1,0,0,1-1-1V11a1,1,0,0,1,1-1H39a1,1,0,0,1,1,1v6Z"></path><path d="M17,18H15a1,1,0,0,0,0,2h2a1,1,0,0,0,0-2Z"></path></g></svg>