<svg xmlns="http://www.w3.org/2000/svg" viewBox="0 0 64 64" x="0px" y="0px"><g data-name="Smart House-Internet of Things-Smart Home-Smartphone-Control-Internet"><path d="M33,19.142V22h2.858A4,4,0,0,0,33,19.142Z"></path><path d="M35.858,24H33v2.858A4,4,0,0,0,35.858,24Z"></path><path d="M31,19.142A4,4,0,0,0,28.142,22H31Z"></path><path d="M59.7,26.43,32.64,3.84a.983.983,0,0,0-1.27,0L4.38,26.48a1.119,1.119,0,0,0-.31,1.35c.02.02.04.03.05.05A4.977,4.977,0,0,1,8,26h.04L31.35,6.24a.987.987,0,0,1,1.29,0L58.41,27.96a1.022,1.022,0,0,0,1.42-.13A1,1,0,0,0,59.7,26.43Z"></path><path d="M31,26.858V24H28.142A4,4,0,0,0,31,26.858Z"></path><path d="M42,38a3,3,0,0,0-6,0v3h6Z"></path><path d="M34,51H44V43H34Zm3-6h4v2H40v2H38V47H37Z"></path><path d="M25,57V54H5v3a3.009,3.009,0,0,0,3,3H22A3.009,3.009,0,0,0,25,57Zm-9,1H14V56h2Z"></path><path d="M25,34H5V52H25ZM15,49a5,5,0,0,1-1-9.9V38h2v1.1A5,5,0,0,1,15,49Z"></path><path d="M16,41.184V44H14V41.184a3,3,0,1,0,2,0Z"></path><path d="M25,31a3.009,3.009,0,0,0-3-3H8a3.009,3.009,0,0,0-3,3v1H25Z"></path><path d="M25.97,60H51V24.32L32,8.31,13,24.42V26h9a5,5,0,0,1,5,5V57A4.924,4.924,0,0,1,25.97,60ZM44,38v3a2.006,2.006,0,0,1,2,2v8a2.006,2.006,0,0,1-2,2H34a2.006,2.006,0,0,1-2-2V43a2.006,2.006,0,0,1,2-2V38a5,5,0,0,1,10,0ZM26,23a6,6,0,1,1,6,6A6.006,6.006,0,0,1,26,23Z"></path></g></svg>