<svg xmlns="http://www.w3.org/2000/svg" viewBox="0 0 64 64" x="0px" y="0px"><g data-name="Music-Cloud"><path d="M60,32A12.01,12.01,0,0,1,48,44H42V38a3.009,3.009,0,0,0-3-3H25a3.009,3.009,0,0,0-3,3v6H13a9,9,0,0,1-2.6-17.62.987.987,0,0,0,.71-.82A11.007,11.007,0,0,1,22,16c.16,0,.31.01.46.02l.2.01a1,1,0,0,0,.95-.53,13.985,13.985,0,0,1,26.15,3.98.994.994,0,0,0,.77.79A12.053,12.053,0,0,1,60,32Z"></path><polygon points="31 46.234 33.057 45 31 43.766 31 46.234"></polygon><path d="M39,37H25a1,1,0,0,0-1,1V52a1,1,0,0,0,1,1H39a1,1,0,0,0,1-1V38A1,1,0,0,0,39,37Zm-3.485,8.857-5,3A1,1,0,0,1,29,48V42a1,1,0,0,1,1.515-.857l5,3a1,1,0,0,1,0,1.714Z"></path></g></svg>