<svg xmlns="http://www.w3.org/2000/svg" viewBox="0 0 64 64" x="0px" y="0px"><g><path d="M21.347,17.067l-.64.64-1.414-1.414.388-.388A7.95,7.95,0,0,0,17,15.069V22h6.931A7.98,7.98,0,0,0,21.347,17.067Z"></path><path d="M16,31a7.938,7.938,0,0,0,3.681-.905l-.388-.388,1.414-1.414.64.64A7.98,7.98,0,0,0,23.931,24H15V15.069A8,8,0,0,0,16,31Z"></path><path d="M4,4V60H46V14H36V4Zm24,6h4v2H28Zm0,4h4v2H28ZM27,29h4v2H27Zm0,4h4v2H27ZM10,6h8V8H10ZM6,6H8V8H6Zm10,7a9.93,9.93,0,0,1,5.145,1.441L23.586,12H26v2H24.414l-1.653,1.653a9.952,9.952,0,0,1,0,14.694l.653.653H25v2H22.586l-1.441-1.441A9.994,9.994,0,1,1,16,13ZM9,39v2H7V39ZM44,53H7V51H44Zm0-4H7V47H44Zm0-4H7V43H44Zm0-6v2H11V39Z"></path><polygon points="38 12 44.586 12 38 5.414 38 12"></polygon><rect x="53" y="14" width="4" height="38"></rect><rect x="54" y="54" width="2" height="2"></rect><rect x="53" y="11" width="4" height="1"></rect><rect x="54" y="5" width="2" height="4"></rect><polygon points="62 25 60 25 60 16 59 16 59 14 62 14 62 25"></polygon><rect x="54" y="58" width="2" height="2"></rect></g></svg>