<svg xmlns="http://www.w3.org/2000/svg" viewBox="0 0 64 64" x="0px" y="0px"><g data-name="Coat Hanger"><path d="M12.824,18.936a.985.985,0,0,0-.1.758,1,1,0,0,0,1.224.708L29.4,16.261a1,1,0,1,0-.517-1.932L13.432,18.47A.993.993,0,0,0,12.824,18.936Z"></path><path d="M38,58H36v1a1,1,0,0,0,2,0Z"></path><path d="M49,60a1,1,0,0,0,1-1V57a3,3,0,0,0-3-3H27a3,3,0,0,0-3,3v2a1,1,0,0,0,2,0V58a2,2,0,0,1,2-2H46a2,2,0,0,1,2,2v1A1,1,0,0,0,49,60Z"></path><polygon points="23.164 7.58 15.013 9.764 15.117 15.948 26.166 12.987 23.164 7.58"></polygon><path d="M48.824,6.014A1.086,1.086,0,0,0,48,7.107V11a1,1,0,0,1-1,1H40v2h9a1,1,0,0,0,1-1V7a1,1,0,0,0-1.176-.986Z"></path><path d="M26.047,19.231,24,19.779V21a1,1,0,0,0,1,1h9V20H27A.985.985,0,0,1,26.047,19.231Z"></path><path d="M40,28v2h7a1,1,0,0,0,1-1V25a1,1,0,0,0-1.176-.986A1.086,1.086,0,0,0,46,25.107V27a1,1,0,0,1-1,1Z"></path><path d="M36,52h2V5a1,1,0,0,0-2,0Z"></path></g></svg>