<svg xmlns="http://www.w3.org/2000/svg" viewBox="0 0 64 64" x="0px" y="0px"><g data-name="Dust Bower"><path d="M9.51,58.83l1.667-.963-.029-.026c-.056-.045-.106-.1-.16-.142q-.5-.42-.955-.885c-.114-.115-.221-.234-.331-.353q-.369-.4-.706-.831c-.1-.122-.193-.241-.284-.366A13.95,13.95,0,0,1,7.876,54h0l-.009-.019c-.228-.4-.429-.8-.616-1.218-.045-.1-.089-.2-.132-.3-.177-.417-.338-.838-.473-1.268-.018-.056-.031-.113-.048-.17-.118-.393-.217-.791-.3-1.193-.02-.1-.042-.193-.06-.29-.081-.442-.142-.886-.18-1.334,0-.028-.009-.055-.012-.082L4.01,49.3a1,1,0,0,0-.366,1.366l4.5,7.794A1,1,0,0,0,9.51,58.83Z"></path><polygon points="42.579 20.107 44.742 23.855 46.363 22.662 44.311 19.107 42.579 20.107"></polygon><path d="M21.5,49.6a3,3,0,0,0,1.1-4.1h0a3,3,0,1,0-1.1,4.1Z"></path><path d="M12.38,56.271a12.115,12.115,0,0,0,1.171.846A11.988,11.988,0,0,0,27.765,37.872a1,1,0,0,1,.054-1.568l15.3-11.257-2.274-3.94L14,36.607a11.956,11.956,0,0,0-5.984,9.852v0h0q-.021.428-.01.854A11.893,11.893,0,0,0,9.2,52.24c.125.257.26.511.4.76A11.854,11.854,0,0,0,12.38,56.271Zm2.79-10.565a5,5,0,1,1,.5,3.794A4.968,4.968,0,0,1,15.17,45.706Z"></path><path d="M60.147,11.576a2.924,2.924,0,0,0-2.591-.682,3.017,3.017,0,0,0-2.388,2.971,1,1,0,0,0,1.5.838h0a.936.936,0,0,0,.5-.822,1,1,0,1,1,1.5.825l-6.062,3.5a1,1,0,0,0-.366,1.366h0a1,1,0,0,0,1.367.366l6.062-3.5A3.01,3.01,0,0,0,60.147,11.576Z"></path><path d="M51.471,14.241l-4.34,2.189a1.138,1.138,0,0,0-.444,1.634h0a1.139,1.139,0,0,0,1.526.368l4.127-2.383a3.211,3.211,0,0,0,1.388-1.488A3,3,0,1,0,47.972,13.4a1,1,0,0,0,1.5.837h0a.936.936,0,0,0,.5-.822,1,1,0,1,1,1.965.218A.99.99,0,0,1,51.471,14.241Z"></path></g></svg>