<svg xmlns="http://www.w3.org/2000/svg" viewBox="0 0 64 64" x="0px" y="0px"><g data-name="Online Order"><path d="M57.665,56.252l-9-8A1.006,1.006,0,0,0,48,48H16a1.006,1.006,0,0,0-.665.252l-9,8A1,1,0,0,0,6,57v3a2,2,0,0,0,2,2H56a2,2,0,0,0,2-2V57A1,1,0,0,0,57.665,56.252ZM54.37,56H15.414l6-6H47.62ZM16.38,50h2.206l-6,6H9.63ZM8,60V58H56v2Z"></path><rect x="15" y="6" width="2" height="2"></rect><rect x="19" y="6" width="2" height="2"></rect><rect x="23" y="6" width="2" height="2"></rect><path d="M14,40H27.465l3.7,5.555a1,1,0,0,0,1.664,0L36.535,40H50a3,3,0,0,0,3-3V5a3,3,0,0,0-3-3H14a3,3,0,0,0-3,3V37A3,3,0,0,0,14,40Zm36-2H36a1,1,0,0,0-.832.445L32,43.2l-3.168-4.752A1,1,0,0,0,28,38H14a1,1,0,0,1-1-1V12H51V37A1,1,0,0,1,50,38ZM14,4H50a1,1,0,0,1,1,1v5H13V5A1,1,0,0,1,14,4Z"></path><path d="M43,25H41.788a10.988,10.988,0,0,0-7.116-5.664A2.964,2.964,0,0,0,35,18a3,3,0,0,0-6,0,2.964,2.964,0,0,0,.328,1.336A10.988,10.988,0,0,0,22.212,25H21a3,3,0,0,0,0,6h.219l.621,2.485A2,2,0,0,0,23.781,35H40.219a2,2,0,0,0,1.941-1.515L42.781,31H43a3,3,0,0,0,0-6ZM31,18a1,1,0,1,1,1,1A1,1,0,0,1,31,18Zm1,3a8.98,8.98,0,0,1,7.46,4H24.54A8.98,8.98,0,0,1,32,21Zm8.219,12H23.781l-.5-2H40.719ZM43,29H21a1,1,0,0,1,0-2H43a1,1,0,0,1,0,2Z"></path></g></svg>