<svg xmlns="http://www.w3.org/2000/svg" viewBox="0 0 64 64" x="0px" y="0px"><g data-name="Online Payment"><circle cx="39" cy="31" r="1"></circle><path d="M49,26H17V46H49ZM25,28h8v2H25Zm-6,0h4v2H19Zm0,4H33v2H19ZM47,43a1,1,0,0,1-1,1H20a1,1,0,0,1-1-1V39a1,1,0,0,1,1-1H46a1,1,0,0,1,1,1Zm-3-9a3,3,0,0,1-2.5-1.348,3,3,0,1,1,0-3.3A3,3,0,1,1,44,34Z"></path><rect x="21" y="40" width="24" height="2"></rect><path d="M40,50V48H16a1,1,0,0,1-1-1V25a1,1,0,0,1,1-1h3V18a1,1,0,0,1,1-1H40V7a3,3,0,0,0-3-3H13a3,3,0,0,0-3,3v3H36v2H10V57a3,3,0,0,0,3,3H37a3,3,0,0,0,3-3V52H14V50ZM19,8H17V6h2Zm4,0H21V6h2Zm1,47h2v2H24ZM12,19V15a1,1,0,0,1,1-1h4v2H14v3Z"></path><path d="M53,39V19H21v5H50a1,1,0,0,1,1,1V39Z"></path><circle cx="44" cy="31" r="1"></circle></g></svg>