<svg xmlns="http://www.w3.org/2000/svg" viewBox="0 0 64 64" x="0px" y="0px"><g><path d="M62,54.973a1.015,1.015,0,0,0-.069-.339.651.651,0,0,0-.039-.074.862.862,0,0,0-.074-.141l-10-14A1,1,0,0,0,51,40H50V38h7a1,1,0,0,0,1-1V33a1,1,0,0,0-1-1H40.816A2.966,2.966,0,0,0,41,31V18a2,2,0,0,0,2-2V14a2,2,0,0,0-2-2H23a2,2,0,0,0-2,2v2a2,2,0,0,0,2,2V31a2.966,2.966,0,0,0,.184,1H7a1,1,0,0,0-1,1v4a1,1,0,0,0,1,1h7v2H13a1,1,0,0,0-.813.419l-10,14a.862.862,0,0,0-.074.141.651.651,0,0,0-.039.074,1.015,1.015,0,0,0-.069.339c0,.009,0,.017,0,.027v6a1,1,0,0,0,1,1H61a1,1,0,0,0,1-1V55C62,54.99,62,54.982,62,54.973ZM23,14H41v2H23Zm16,4v2.049a8.343,8.343,0,0,0-7.432.049,5.719,5.719,0,0,1-2.908.7,5.692,5.692,0,0,1-2.9-.7c-.24-.115-.49-.23-.758-.341V18ZM25,31V21.953a7.539,7.539,0,0,0,3.66.847,7.643,7.643,0,0,0,3.773-.9,6.37,6.37,0,0,1,5.81,0c.24.115.49.23.757.34V24H37v2h2v2H37v2h2v1a1,1,0,0,1-1,1H26A1,1,0,0,1,25,31ZM8,34H56v2H8Zm8,4H48v2H16Zm-2.485,4h36.97l8.572,12H4.943ZM60,60H4V56H60Z"></path><rect x="28" y="28" width="2" height="2"></rect><rect x="32" y="25" width="2" height="2"></rect><path d="M46,44H18a1,1,0,0,0-1,1v6a1,1,0,0,0,1,1H46a1,1,0,0,0,1-1V45A1,1,0,0,0,46,44Zm-1,6H19V46H45Z"></path><rect x="31" y="47" width="2" height="2"></rect><rect x="35" y="47" width="2" height="2"></rect><rect x="27" y="47" width="2" height="2"></rect></g></svg>