<svg xmlns="http://www.w3.org/2000/svg" viewBox="0 0 48 48" x="0px" y="0px"><title>Key-Lock</title><g><path d="M24,0A24,24,0,1,0,48,24,24.028,24.028,0,0,0,24,0Zm0,46A22,22,0,1,1,46,24,22.025,22.025,0,0,1,24,46Z"></path><path d="M33,19H31V14a7,7,0,0,0-14,0v5H15a1,1,0,0,0-1,1V38a1,1,0,0,0,1,1H33a1,1,0,0,0,1-1V20A1,1,0,0,0,33,19ZM19,14a5,5,0,0,1,10,0v5H19ZM32,37H16V21H32Z"></path><path d="M24,24a2.993,2.993,0,0,0-1,5.816V34h2V29.816A2.993,2.993,0,0,0,24,24Zm0,4a1,1,0,1,1,1-1A1,1,0,0,1,24,28Z"></path></g></svg>