<svg xmlns="http://www.w3.org/2000/svg" viewBox="0 0 64 64" x="0px" y="0px"><title>Speech Bubble_12</title><g data-name="Speech Bubble"><path d="M32,2A30,30,0,1,0,62,32,30.034,30.034,0,0,0,32,2Zm0,58A28,28,0,1,1,60,32,28.032,28.032,0,0,1,32,60Z"></path><path d="M51.29,27.043l-9.214-2.794L44.94,16.34a1,1,0,0,0-1.415-1.22l-7.4,3.994-3.206-7.507a1,1,0,0,0-1.838,0L27.808,19.27l-9.487-3.217a1,1,0,0,0-1.155,1.5l4.407,6.665-8.774,1.8a1,1,0,0,0-.246,1.874l6.953,3.476-4.32,6.048A1,1,0,0,0,16,39h7V52a1,1,0,0,0,.775.975A1.021,1.021,0,0,0,24,53a1,1,0,0,0,.9-.562L30.574,40.8l6.094,2.14a1,1,0,0,0,1.261-.571l1.66-4.151,9.124,2.737a1,1,0,0,0,1.119-1.513l-5.3-7.951,6.82-2.557a1,1,0,0,0-.061-1.894Zm-8.641,3.02a1,1,0,0,0-.481,1.492l4.459,6.689-7.34-2.2a1,1,0,0,0-1.216.586l-1.644,4.111L30.4,38.622a1,1,0,0,0-1.23.5L25,47.669V38a1,1,0,0,0-1-1H17.943l3.871-5.419a1,1,0,0,0-.367-1.476L16.032,27.4l7.392-1.519a1,1,0,0,0,.633-1.531l-3.612-5.463,7.6,2.576a1,1,0,0,0,1.241-.554L32,14.546l2.716,6.361a1,1,0,0,0,1.395.487l6.056-3.268-2.331,6.433a1,1,0,0,0,.651,1.3l7.4,2.244Z"></path></g></svg>