<svg xmlns="http://www.w3.org/2000/svg" viewBox="0 0 64 64" x="0px" y="0px"><g><path d="M59,2H5A3,3,0,0,0,2,5V59a3,3,0,0,0,3,3H59a3,3,0,0,0,3-3V5A3,3,0,0,0,59,2ZM5,4H59a1,1,0,0,1,1,1v5H4V5A1,1,0,0,1,5,4ZM59,60H5a1,1,0,0,1-1-1V12H60V59A1,1,0,0,1,59,60Z"></path><rect x="8" y="6" width="2" height="2"></rect><rect x="12" y="6" width="2" height="2"></rect><rect x="16" y="6" width="2" height="2"></rect><path d="M27,32V25.22A2.985,2.985,0,0,0,28,23V21a1,1,0,0,0-.2-.6l-3-4A1,1,0,0,0,24,16H14a1,1,0,0,0-.8.4l-3,4a1,1,0,0,0-.2.6v2a2.985,2.985,0,0,0,1,2.22V32a2,2,0,0,0,2,2H25A2,2,0,0,0,27,32Zm-5-9a1,1,0,0,1-2,0H18a1,1,0,0,1-2,0H14a1,1,0,0,1-2,0V22H26v1a1,1,0,0,1-2,0Zm-7.5-5h9L25,20H13ZM13,26a2.981,2.981,0,0,0,2-.78,2.954,2.954,0,0,0,4,0,2.954,2.954,0,0,0,4,0A2.981,2.981,0,0,0,25,26v6H22V29a1,1,0,0,0-1-1H17a1,1,0,0,0-1,1v3H13Zm7,6H18V30h2Z"></path><path d="M54,37a1,1,0,0,0-1-1H49a1,1,0,0,0-1,1V54H46V43a1,1,0,0,0-1-1H41a1,1,0,0,0-1,1V54H38V41a1,1,0,0,0-1-1H33a1,1,0,0,0-1,1V54H30V47a1,1,0,0,0-1-1H25a1,1,0,0,0-1,1v7H22V49a1,1,0,0,0-1-1H17a1,1,0,0,0-1,1v5H14v2H56V54H54Zm-4,1h2V54H50Zm-8,6h2V54H42Zm-8-2h2V54H34Zm-8,6h2v6H26Zm-8,2h2v4H18Z"></path><path d="M17.783,43.024l.434,1.952,9-2a1,1,0,0,0,.442-.224l7.55-6.606,7.439,2.791a1,1,0,0,0,1.1-.272l8-9-1.494-1.33-7.544,8.488-7.357-2.76a1,1,0,0,0-1.01.185l-7.808,6.831Z"></path><rect x="36" y="17" width="2" height="2"></rect><rect x="40" y="17" width="8" height="2"></rect><rect x="36" y="21" width="12" height="2"></rect><rect x="36" y="25" width="12" height="2"></rect></g></svg>