<svg xmlns="http://www.w3.org/2000/svg" viewBox="0 0 64 64" x="0px" y="0px"><g><rect x="24" y="53" width="4" height="2"></rect><rect x="23" y="57" width="6" height="2"></rect><path d="M18,40H12a1,1,0,0,0-1,1v6a1,1,0,0,0,1,1h6a1,1,0,0,0,1-1V41A1,1,0,0,0,18,40Zm-1,6H13V42h4Z"></path><path d="M19,20H17a1,1,0,0,1-1-1H14a3,3,0,0,0,3,3v2h2V22a3,3,0,0,0,0-6H17a1,1,0,0,1,0-2h2a1,1,0,0,1,1,1h2a3,3,0,0,0-3-3V10H17v2a3,3,0,0,0,0,6h2a1,1,0,0,1,0,2Z"></path><path d="M61.316,2.051A1,1,0,0,0,60.2,2.4L58,5.333,55.8,2.4a1.036,1.036,0,0,0-1.6,0L52,5.335,49.789,2.4a1,1,0,0,0-.8-.4.93.93,0,0,0-.8.4L46,5.332,43.8,2.4a1.036,1.036,0,0,0-1.6,0L40,5.333,37.8,2.4A1,1,0,0,0,36,3V19.441l-1.335-1.188A1,1,0,0,0,34,18H28.949c.03-.33.051-.662.051-1a11,11,0,1,0-18.876,7.663L8.62,26H6a1,1,0,0,0-1,1v3H3a1,1,0,0,0-1,1v6a1,1,0,0,0,1,1H7V50H6a1,1,0,0,0-1,1v3H3a1,1,0,0,0-1,1v6a1,1,0,0,0,1,1H49a1,1,0,0,0,1-1V55a1,1,0,0,0-1-1H47V51a1,1,0,0,0-1-1H45V40H61a1,1,0,0,0,1-1V3A1,1,0,0,0,61.316,2.051ZM33.619,20,36,22.119V26H24.305a11.029,11.029,0,0,0,4.269-6ZM18,8a9,9,0,1,1-9,9A9.01,9.01,0,0,1,18,8ZM11.66,25.974,11.7,26h-.064ZM7,28H36v2H7ZM4,32H36v4H4ZM4,56H18V54H7V52H19.78l-1.6,8H4Zm25-6H23V42h6ZM20.22,60l1.6-8h8.362l1.6,8ZM34,54v2H48v4H33.82l-1.6-8H45v2Zm9-4H31V41a1,1,0,0,0-1-1H22a1,1,0,0,0-1,1v9H9V38H36v1a1,1,0,0,0,1,1H34a1,1,0,0,0-1,1v6a1,1,0,0,0,1,1h6a1,1,0,0,0,1-1V41a1,1,0,0,0-1-1h3Zm-4-8v4H35V42Zm21-4H38V6l1.2,1.6a1.036,1.036,0,0,0,1.6,0L43,4.667,45.2,7.6A1,1,0,0,0,46,8h0a1,1,0,0,0,.8-.4l2.192-2.932L51.2,7.6A1,1,0,0,0,52,8h0a1,1,0,0,0,.8-.4L55,4.667,57.2,7.6a1.036,1.036,0,0,0,1.6,0L60,6Z"></path><rect x="42" y="20" width="8" height="2"></rect><rect x="52" y="20" width="4" height="2"></rect><rect x="42" y="24" width="8" height="2"></rect><rect x="52" y="24" width="4" height="2"></rect><rect x="42" y="28" width="8" height="2"></rect><rect x="52" y="28" width="4" height="2"></rect><rect x="44" y="32" width="6" height="2"></rect><rect x="52" y="32" width="4" height="2"></rect><rect x="42" y="16" width="8" height="2"></rect><rect x="52" y="16" width="4" height="2"></rect><rect x="50" y="12" width="6" height="2"></rect></g></svg>