<svg xmlns="http://www.w3.org/2000/svg" viewBox="0 0 64 64" x="0px" y="0px"><g data-name="Delivery"><circle cx="32" cy="10" r="1"></circle><path d="M60,41V38H4v3a1,1,0,0,0,1,1H59A1,1,0,0,0,60,41Z"></path><path d="M32,13A24.027,24.027,0,0,0,8.025,36h47.95A24.027,24.027,0,0,0,32,13Zm10.428,6.93A19.958,19.958,0,0,0,32,17V15a21.965,21.965,0,0,1,11.473,3.224Zm3.843,3.057A20.352,20.352,0,0,0,44.386,21.3l1.24-1.569a22.29,22.29,0,0,1,2.07,1.858Z"></path><path d="M16,44a5,5,0,1,0,5,5A5.006,5.006,0,0,0,16,44Zm0,8a3,3,0,1,1,3-3A3,3,0,0,1,16,52Z"></path><circle cx="16" cy="49" r="1"></circle><circle cx="47" cy="49" r="1"></circle><path d="M47,44a5,5,0,1,0,5,5A5.006,5.006,0,0,0,47,44Zm0,8a3,3,0,1,1,3-3A3,3,0,0,1,47,52Z"></path><rect x="6" y="11" width="2" height="2"></rect><rect x="10" y="11" width="8" height="2"></rect><rect x="4" y="15" width="8" height="2"></rect><rect x="2" y="19" width="6" height="2"></rect></g></svg>