<svg xmlns="http://www.w3.org/2000/svg" viewBox="0 0 64 64" x="0px" y="0px"><g><path d="M36,22H28a1,1,0,0,0-1,1,4.734,4.734,0,0,0,5,5,4.734,4.734,0,0,0,5-5A1,1,0,0,0,36,22Zm-4,4a2.7,2.7,0,0,1-2.877-2h5.754A2.7,2.7,0,0,1,32,26Z"></path><path d="M28,19a1,1,0,0,1,1,1h2a3,3,0,0,0-6,0h2A1,1,0,0,1,28,19Z"></path><path d="M36,19a1,1,0,0,1,1,1h2a3,3,0,0,0-6,0h2A1,1,0,0,1,36,19Z"></path><path d="M46.76,37.38a3.783,3.783,0,0,0,.17-.6,4.012,4.012,0,0,0-.68-3.08,1.053,1.053,0,0,1-.08-1.22,4.007,4.007,0,0,0-.27-5.2,3.222,3.222,0,0,1-.92-2.41c.01-.27.02-.56.02-.83V19a12.918,12.918,0,0,0-1.14-5.28A1.963,1.963,0,0,0,44,13V11a2.01,2.01,0,0,0-1.43-1.91l1.11-2.21,1.75-.35A3,3,0,1,0,48,2H29.96a7.013,7.013,0,0,0-6.44,4.25L22.34,9H22a2.006,2.006,0,0,0-2,2v2a1.963,1.963,0,0,0,.14.72A12.918,12.918,0,0,0,19,19v5.04c0,.27.01.56.02.86a3.2,3.2,0,0,1-.92,2.38,4.007,4.007,0,0,0-.27,5.2,1.07,1.07,0,0,1-.08,1.23,3.979,3.979,0,0,0-.68,3.07,3.783,3.783,0,0,0,.17.6A15.018,15.018,0,0,0,12,48.76V53a9.014,9.014,0,0,0,9,9H43a9.014,9.014,0,0,0,9-9V48.76A15.018,15.018,0,0,0,46.76,37.38ZM48,4a1,1,0,1,1-1,1A1,1,0,0,1,48,4ZM43,19v5.04c0,.25-.01.5-.02.72a5.175,5.175,0,0,0,1.48,3.9A1.977,1.977,0,0,1,45,30.04a2.014,2.014,0,0,1-.41,1.22,2.986,2.986,0,0,0,.04,3.61A2.1,2.1,0,0,1,45,36.08a14.885,14.885,0,0,0-4.13-1.82L37,33.23V30.65A10.023,10.023,0,0,0,42,22V15a1.785,1.785,0,0,0,.23-.02A11.008,11.008,0,0,1,43,19ZM32,40a6.988,6.988,0,0,1-6.69-4.25l1.96-.52A4.993,4.993,0,0,0,32,38a4.993,4.993,0,0,0,4.73-2.77l1.96.52A6.988,6.988,0,0,1,32,40Zm1,2v4H31V42ZM32,30a8.011,8.011,0,0,1-8-8V15H40v7A8.011,8.011,0,0,1,32,30Zm3,1.54V34c0,1.08-1.37,2-3,2s-3-.92-3-2V31.54a10.013,10.013,0,0,0,6,0ZM25.36,7.03A5.005,5.005,0,0,1,29.96,4H45.18a3.392,3.392,0,0,0-.14.57l-2.24.45a.985.985,0,0,0-.69.53L40.83,8.11,38.8,5.4,37.2,6.6,39,9H24.52ZM22,11H42v2H22ZM19.41,31.26A2.014,2.014,0,0,1,19,30.04a1.977,1.977,0,0,1,.54-1.38,5.152,5.152,0,0,0,1.48-3.87c-.01-.25-.02-.5-.02-.75V19a11.008,11.008,0,0,1,.77-4.02A1.785,1.785,0,0,0,22,15v7a10.023,10.023,0,0,0,5,8.65v2.58l-3.87,1.03A14.885,14.885,0,0,0,19,36.08a2.052,2.052,0,0,1,.37-1.2A3,3,0,0,0,19.41,31.26ZM22,40a1,1,0,0,0-1,1v6a1,1,0,0,0,1,1v6H20V46H18v8.59l-1.71,1.7,1.42,1.42L19.41,56H22v4H21a7.008,7.008,0,0,1-7-7V48.76a13.011,13.011,0,0,1,9.38-12.48A8,8,0,0,0,26.07,40Zm1,2h6v4H23Zm3,18H24V56h2a2,2,0,0,1,0,4Zm14,0H38a2,2,0,0,1,0-4h2Zm0-6H38a4,4,0,0,0-4,4,3.906,3.906,0,0,0,.56,2H29.44A3.906,3.906,0,0,0,30,58a4,4,0,0,0-4-4H24V48H40Zm1-8H35V42h6Zm9,7a7.008,7.008,0,0,1-7,7H42V56h2.59l1.7,1.71,1.42-1.42L46,54.59V46H44v8H42V48a1,1,0,0,0,1-1V41a1,1,0,0,0-1-1H37.93a8,8,0,0,0,2.69-3.72A13.011,13.011,0,0,1,50,48.76Z"></path></g></svg>