<svg xmlns="http://www.w3.org/2000/svg" viewBox="0 0 64 64" x="0px" y="0px"><title>Operator</title><g><path d="M41,32H36V30a3,3,0,0,0,3-3V17.575A4.988,4.988,0,0,0,42,13V12a1,1,0,0,0-1-1H32a4.983,4.983,0,0,0-4.6,3.061A3,3,0,0,0,25,17V27a3,3,0,0,0,3,3v2H23a7.008,7.008,0,0,0-7,7V61a1,1,0,0,0,1,1H47a1,1,0,0,0,1-1V39A7.008,7.008,0,0,0,41,32ZM32,13h8a3,3,0,0,1-2.28,2.907A2.609,2.609,0,0,1,37,16H29a2.679,2.679,0,0,1,.091-.717c0-.012,0-.024.008-.036A2.988,2.988,0,0,1,32,13ZM27,27V17a1,1,0,0,0,1,1h9v9a1,1,0,0,1-1,1H28A1,1,0,0,1,27,27Zm7,3v3.586l-1.293-1.293a1,1,0,0,0-1.414,0L30,33.586V30ZM46,60H43V40H41V60H23V40H21V60H18V39a5.006,5.006,0,0,1,5-5h5v2a1,1,0,0,0,1.707.707L32,34.414l2.293,2.293a.974.974,0,0,0,.3.2.865.865,0,0,0,.1.035.988.988,0,0,0,.252.05c.022,0,.042.012.063.012s.024-.007.037-.007A.978.978,0,0,0,36,36V34h5a5.006,5.006,0,0,1,5,5Z"></path><path d="M33,38H31a1,1,0,0,0-1,.938l-1,16a1,1,0,0,0,.291.769l2,2a1,1,0,0,0,1.414,0l2-2A1,1,0,0,0,35,54.938l-1-16A1,1,0,0,0,33,38ZM32,55.586l-.974-.974L31.939,40h.122l.913,14.612Z"></path><path d="M61,4H45a1,1,0,0,0-1,1V21a1,1,0,0,0,1.707.707L49.414,18H61a1,1,0,0,0,1-1V5A1,1,0,0,0,61,4ZM60,16H49a1,1,0,0,0-.707.293L46,18.586V6H60Z"></path><rect x="48" y="8" width="2" height="2"></rect><rect x="52" y="8" width="6" height="2"></rect><rect x="48" y="12" width="10" height="2"></rect><path d="M19,26a1,1,0,0,0,1-1V9a1,1,0,0,0-1-1H3A1,1,0,0,0,2,9V21a1,1,0,0,0,1,1H14.586l3.707,3.707A1,1,0,0,0,19,26Zm-1-3.414-2.293-2.293A1,1,0,0,0,15,20H4V10H18Z"></path><rect x="14" y="12" width="2" height="2"></rect><rect x="6" y="12" width="6" height="2"></rect><rect x="6" y="16" width="10" height="2"></rect></g></svg>