<svg xmlns="http://www.w3.org/2000/svg" viewBox="0 0 64 64" x="0px" y="0px"><g><path d="M32,46a3,3,0,0,0,3-3V37H33v6a1,1,0,0,1-2,0V37H29v6A3,3,0,0,0,32,46Z"></path><path d="M41,35a3,3,0,0,0-3,3h2a1,1,0,0,1,2,0h2A3,3,0,0,0,41,35Z"></path><path d="M23,35a3,3,0,0,0-3,3h2a1,1,0,0,1,2,0h2A3,3,0,0,0,23,35Z"></path><path d="M51,30.1V28c0-1.616-1.889-2.84-5.774-3.741l-.452,1.949c3.247.752,4.163,1.579,4.228,1.774-.3,1.054-6.4,3.018-17,3.018s-16.692-1.96-17-2.979v-.007c.071-.234.991-1.056,4.226-1.806l-.452-1.949C14.889,25.16,13,26.384,13,28v2.1a4.995,4.995,0,0,0,.1,9.808A19,19,0,0,0,21,53.463V61a1,1,0,0,0,1,1H42a1,1,0,0,0,1-1V53.463a19,19,0,0,0,7.9-13.554A4.995,4.995,0,0,0,51,30.1ZM11,35a3,3,0,0,1,2-2.816v5.632A3,3,0,0,1,11,35ZM41,60H23V54.727a18.954,18.954,0,0,0,18,0Zm-9-5A17.019,17.019,0,0,1,15,38V30.458C18.7,32.41,26.718,33,32,33s13.3-.59,17-2.542V38A17.019,17.019,0,0,1,32,55ZM51,37.816V32.184a2.982,2.982,0,0,1,0,5.632Z"></path><path d="M32,49c-2.71,0-5-1.374-5-3H25c0,2.8,3.075,5,7,5s7-2.2,7-5H37C37,47.626,34.71,49,32,49Z"></path><path d="M37.293,16.707l1.414-1.414L37,13.586V11H35v3a1,1,0,0,0,.293.707Z"></path><path d="M37.707,18.293l-1.414,1.414.707.707V22h2V20a1,1,0,0,0-.293-.707Z"></path><path d="M21,23.414V25a1,1,0,0,0,.757.97l3.468.867.826,2.479A1,1,0,0,0,27,30h3a1,1,0,0,0,.707-.293L32,28.414l1.293,1.293A1,1,0,0,0,34,30h3a1,1,0,0,0,.949-.684l.826-2.479,3.468-.867A1,1,0,0,0,43,25V23.414l2.707-2.707A1,1,0,0,0,46,20V15a1.006,1.006,0,0,0-.168-.555L44,11.7V8a1,1,0,0,0-.293-.707l-2-2A1,1,0,0,0,41,5H38.721l-.772-2.316A1,1,0,0,0,37,2H34a1,1,0,0,0-.707.293L32,3.586,30.707,2.293A1,1,0,0,0,30,2H27a1,1,0,0,0-.949.684L25.279,5H23a1,1,0,0,0-.707.293l-2,2A1,1,0,0,0,20,8v3.7l-1.832,2.748A1.006,1.006,0,0,0,18,15v5a1,1,0,0,0,.293.707ZM34.414,4h1.865l.577,1.73L35.293,7.293A1,1,0,0,0,35,8V9h2V8.414L38.414,7h2.172L42,8.414v3.172l-1.707,1.707A1,1,0,0,0,40,14v1h2v-.586l.845-.844L44,15.3v4.283l-1,1V19H41v5.219l-2.693.674L37,23.586V23H35v1a1,1,0,0,0,.293.707l1.563,1.563L36.279,28H34.414L33,26.586V5.414ZM20,15.3l1.155-1.733.845.844V15h2V14a1,1,0,0,0-.293-.707L22,11.586V8.414L23.414,7h2.172L27,8.414V9h2V8a1,1,0,0,0-.293-.707L27.144,5.73,27.721,4h1.865L31,5.414V26.586L29.586,28H27.721l-.577-1.73,1.563-1.563A1,1,0,0,0,29,24V23H27v.586l-1.307,1.307L23,24.219V19H21v1.586l-1-1Z"></path><path d="M28.707,14.707A1,1,0,0,0,29,14V11H27v2.586l-1.707,1.707,1.414,1.414Z"></path><path d="M27,20.414l.707-.707-1.414-1.414-1,1A1,1,0,0,0,25,20v2h2Z"></path><path d="M59,8a3,3,0,1,0-3-3A3,3,0,0,0,59,8Zm0-4a1,1,0,1,1-1,1A1,1,0,0,1,59,4Z"></path><path d="M59,14a3,3,0,1,0,3,3A3,3,0,0,0,59,14Zm0,4a1,1,0,1,1,1-1A1,1,0,0,1,59,18Z"></path><path d="M52.414,6H54V4H52a1,1,0,0,0-.707.293l-4,4,1.414,1.414Z"></path><rect x="48" y="16" width="6" height="2"></rect><path d="M5,2A3,3,0,1,0,8,5,3,3,0,0,0,5,2ZM5,6A1,1,0,1,1,6,5,1,1,0,0,1,5,6Z"></path><path d="M5,14a3,3,0,1,0,3,3A3,3,0,0,0,5,14Zm0,4a1,1,0,1,1,1-1A1,1,0,0,1,5,18Z"></path><path d="M15.293,9.707l1.414-1.414-4-4A1,1,0,0,0,12,4H10V6h1.586Z"></path><rect x="10" y="16" width="6" height="2"></rect></g></svg>