<svg xmlns="http://www.w3.org/2000/svg" viewBox="0 0 64 64" x="0px" y="0px"><g><path d="M49.734,24H37V38H49.116l.25-2H45V34h4.616l.251-2H45V30h5.117l.25-2H45V26h5.617l.11-.876A1,1,0,0,0,49.734,24Z"></path><path d="M46,4H18a3.009,3.009,0,0,0-3,3V25h2v2H15v3H25v2H15v3H25v2H15V57a3.009,3.009,0,0,0,3,3H46a3.009,3.009,0,0,0,3-3V40H28a1,1,0,0,1-1-1V23a1,1,0,0,1,1-1h7V16.88A2.881,2.881,0,0,1,37.88,14h.24A2.881,2.881,0,0,1,41,16.88V22h8V7A3.009,3.009,0,0,0,46,4ZM19,27V25h6v2ZM35,58H29V56h6ZM46,42h2V52a2.006,2.006,0,0,1-2,2H18a2.006,2.006,0,0,1-2-2V39h2V52H46ZM35,45h2v2H35Zm-4,0h2v2H31Zm-2,0v2H27V45ZM48,20H46V7H40.41l-1.7,1.71A1.033,1.033,0,0,1,38,9H26a1.033,1.033,0,0,1-.71-.29L23.59,7H18V23H16V7a2.006,2.006,0,0,1,2-2h6a1.033,1.033,0,0,1,.71.29L26.41,7H37.59l1.7-1.71A1.033,1.033,0,0,1,40,5h6a2.006,2.006,0,0,1,2,2Z"></path><rect x="12" y="35" width="3" height="2"></rect><rect x="11" y="30" width="2" height="2"></rect><rect x="8" y="35" width="2" height="2"></rect><rect x="29" y="24" width="6" height="14"></rect><path d="M38.124,16h-.248a.877.877,0,0,0-.876.876V22h2V16.876A.877.877,0,0,0,38.124,16Z"></path></g></svg>