<svg xmlns="http://www.w3.org/2000/svg" viewBox="0 0 64 64" x="0px" y="0px"><g data-name="Speaker-Internet of Things-Smartphone-Control-Music"><path d="M59,2H23a3.009,3.009,0,0,0-3,3V26H7a5,5,0,0,0-5,5V57a5,5,0,0,0,5,5H21a5,5,0,0,0,5-5V52H58a1,1,0,0,0,.97-.76l.84-3.37A2.985,2.985,0,0,0,62,45V5A3.009,3.009,0,0,0,59,2ZM24,57a3.009,3.009,0,0,1-3,3H7a3.009,3.009,0,0,1-3-3V54H24Zm0-5H4V34H24Zm0-20H4V31a3.009,3.009,0,0,1,3-3H21a3.009,3.009,0,0,1,3,3ZM57.22,50H26V48H57.72ZM60,45a1,1,0,0,1-1,1H26V42H57a1,1,0,0,0,1-1V25a1,1,0,0,0-1-1H25a1,1,0,0,0-1,1v2.03a4.84,4.84,0,0,0-2-.93V20H60ZM56,30v2H26V30ZM26,28V26H56v2Zm30,6v2H26V34Zm0,4v2H26V38ZM60,6H56V8h4v2H56v2h4v2H56v2h4v2H22V16h4V14H22V12h4V10H22V8h4V6H22V5a1,1,0,0,1,1-1H59a1,1,0,0,1,1,1Z"></path><path d="M29,16H53a1,1,0,0,0,1-1V7a1,1,0,0,0-1-1H29a1,1,0,0,0-1,1v8A1,1,0,0,0,29,16Zm1-8H52v6H30Z"></path><rect x="40" y="10" width="2" height="2"></rect><rect x="44" y="10" width="2" height="2"></rect><rect x="36" y="10" width="2" height="2"></rect><path d="M14.536,19.465a5.008,5.008,0,0,0-7.072,0l1.414,1.414a3,3,0,0,1,4.244,0Z"></path><path d="M15.95,18.05l1.414-1.414a9.009,9.009,0,0,0-12.728,0L6.05,18.05A7.009,7.009,0,0,1,15.95,18.05Z"></path><path d="M9.586,22.586,11,24l1.414-1.414A2,2,0,0,0,9.586,22.586Z"></path><rect x="13" y="56" width="2" height="2"></rect><path d="M12.056,43.9a2,2,0,0,0,2.053-.1l3.2-2.132a2,2,0,0,0,0-3.328l-3.2-2.132A2,2,0,0,0,11,37.868v4.264A2,2,0,0,0,12.056,43.9ZM16.2,40,13,42.138v-4.27Z"></path><polygon points="13 46 11 46 11 47 8 47 8 49 11 49 11 50 13 50 13 49 20 49 20 47 13 47 13 46"></polygon></g></svg>