<svg xmlns="http://www.w3.org/2000/svg" data-name="Layer 38" viewBox="0 0 64 64" x="0px" y="0px"><title>Head phone</title><g data-name="Head phone"><path d="M60,40.184V36a2,2,0,0,0-2-2V28A26,26,0,0,0,6,28v6a2,2,0,0,0-2,2v4.184A3,3,0,0,0,2,43V55a3,3,0,0,0,3,3H8a3,3,0,0,0,3,3h6a3,3,0,0,0,3-3V40a3,3,0,0,0-3-3H11a2.966,2.966,0,0,0-1,.184V36a2,2,0,0,0-2-2V29H9.025a2,2,0,0,0,2-1.932,21,21,0,0,1,41.958,0,2,2,0,0,0,2,1.933H56v5a2,2,0,0,0-2,2v1.184A2.966,2.966,0,0,0,53,37H47a3,3,0,0,0-3,3V58a3,3,0,0,0,3,3h6a3,3,0,0,0,3-3h3a3,3,0,0,0,3-3V43A3,3,0,0,0,60,40.184ZM6,36H8v4H6ZM5,56a1,1,0,0,1-1-1V43a1,1,0,0,1,1-1H8V56Zm6-17h6a1,1,0,0,1,1,1V58a1,1,0,0,1-1,1H11a1,1,0,0,1-1-1V40A1,1,0,0,1,11,39ZM32,5A22.947,22.947,0,0,0,9.025,27h-1a24,24,0,0,1,47.949-.01l-1-.01A22.949,22.949,0,0,0,32,5ZM58,36v4H56V36ZM54,58a1,1,0,0,1-1,1H47a1,1,0,0,1-1-1V40a1,1,0,0,1,1-1h6a1,1,0,0,1,1,1Zm6-3a1,1,0,0,1-1,1H56V42h3a1,1,0,0,1,1,1Z"></path></g></svg>