<svg xmlns="http://www.w3.org/2000/svg" viewBox="0 0 64 64" x="0px" y="0px"><g data-name="Judge"><rect x="52" y="33" width="2" height="2"></rect><rect x="32" y="33" width="2" height="2"></rect><rect x="42" y="37" width="2" height="2"></rect><path d="M42,51a5.006,5.006,0,0,1-5,5H34v2h3a7.008,7.008,0,0,0,7-7V41H42Z"></path><polygon points="57 48 55 48 55 50 53 50 53 52 55 52 55 54 57 54 57 52 59 52 59 50 57 50 57 48"></polygon><polygon points="8 14 10 14 10 12 12 12 12 10 10 10 10 8 8 8 8 10 6 10 6 12 8 12 8 14"></polygon><path d="M30,60V54.58a5.026,5.026,0,0,0-3.686-4.826L25,49.4V51a1,1,0,0,1-.293.707l-7,7a1,1,0,0,1-1.414,0l-7-7A1,1,0,0,1,9,51V49.4l-1.317.359A5.024,5.024,0,0,0,4,54.58V60H7V55H9v5H25V55h2v5Z"></path><polygon points="23 50.586 23 48.852 21.6 48.472 18 51.469 18 54 16 54 16 51.469 12.4 48.472 11 48.852 11 50.586 17 56.586 23 50.586"></polygon><path d="M9,34h3.687a6.954,6.954,0,0,0,4.949-2.05l1.657-1.657a1,1,0,0,1,1.6.26l.341.683A4.969,4.969,0,0,0,25,33.951V32A8,8,0,0,0,9,32Z"></path><path d="M19.746,32.668l-.7.7A8.937,8.937,0,0,1,12.687,36H10v1a7,7,0,0,0,14,0V35.787A6.943,6.943,0,0,1,19.746,32.668ZM17,42a4,4,0,0,1-4-4h2a2,2,0,0,0,4,0h2A4,4,0,0,1,17,42Z"></path><path d="M17,46a8.971,8.971,0,0,1-2-.232V47a.989.989,0,0,1-.349.743L17,49.7l2.349-1.956A.989.989,0,0,1,19,47V45.768A8.971,8.971,0,0,1,17,46Z"></path><path d="M40,21V17a.966.966,0,0,0-.14-.5L33.74,6h5.39A3.657,3.657,0,0,1,39,5a3.657,3.657,0,0,1,.13-1H28V6h2.26L24.14,16.5A.966.966,0,0,0,24,17v4c0,2.76,3.59,5,8,5S40,23.76,40,21Zm-2-3H26v-.73L32,6.98l6,10.29Z"></path><path d="M44,8.87a3.911,3.911,0,0,1-2,0V33H36v2H50V33H44Z"></path><path d="M55.74,6H58V4H46.87A3.657,3.657,0,0,1,47,5a3.657,3.657,0,0,1-.13,1h5.39L46.14,16.5A.966.966,0,0,0,46,17v4c0,2.76,3.59,5,8,5s8-2.24,8-5V17a.966.966,0,0,0-.14-.5ZM60,18H48v-.73L54,6.98l6,10.29Z"></path><rect x="24" y="4" width="2" height="2"></rect><rect x="60" y="4" width="2" height="2"></rect><circle cx="43" cy="5" r="2"></circle></g></svg>