<svg xmlns="http://www.w3.org/2000/svg" viewBox="0 0 64 64" x="0px" y="0px"><g><path d="M61,43H42a3.009,3.009,0,0,0-3-3H33a3.009,3.009,0,0,0-3,3H22a1,1,0,0,1-1-1V34a3.009,3.009,0,0,0,3-3V25a3.009,3.009,0,0,0-3-3V3a1,1,0,0,0-1-1H6A1,1,0,0,0,5,3V22a3.009,3.009,0,0,0-3,3v6a3.009,3.009,0,0,0,3,3V48A11.007,11.007,0,0,0,16,59H30a3.009,3.009,0,0,0,3,3h6a3.009,3.009,0,0,0,3-3H61a1,1,0,0,0,1-1V44A1,1,0,0,0,61,43ZM7,4H19V22H7ZM5,32a1,1,0,0,1-1-1V25a1,1,0,0,1,1-1H21a1,1,0,0,1,1,1v6a1,1,0,0,1-1,1ZM30,57H16a9.014,9.014,0,0,1-9-9V34H19v8a3.009,3.009,0,0,0,3,3h8Zm10,2a1,1,0,0,1-1,1H33a1,1,0,0,1-1-1V43a1,1,0,0,1,1-1h6a1,1,0,0,1,1,1Zm20-2H42V45H60Z"></path><path d="M11,48H9a7.008,7.008,0,0,0,7,7V53A5.006,5.006,0,0,1,11,48Z"></path><rect x="18" y="53" width="2" height="2"></rect><rect x="44" y="53" width="2" height="2"></rect><rect x="48" y="53" width="4" height="2"></rect></g></svg>