<svg xmlns="http://www.w3.org/2000/svg" viewBox="0 0 64 64" x="0px" y="0px"><g><path d="M54,51V49a4,4,0,1,0-4-4v5H48V45a6,6,0,1,1,6,6Z"></path><path d="M6,58a4,4,0,0,1,0-8h6v2H6a2,2,0,1,0,2,2h2A4,4,0,0,1,6,58Z"></path><rect x="31" y="21" width="2" height="4"></rect><path d="M32,20a6.006,6.006,0,0,0,6-6c0-2.221-3.1-6.388-6-9.546C29.1,7.612,26,11.779,26,14A6.006,6.006,0,0,0,32,20Z"></path><path d="M50,52H14v1a7.008,7.008,0,0,0,7,7H43a7.008,7.008,0,0,0,7-7Z"></path><path d="M24,26a1,1,0,0,0-1,1v5H41V27a1,1,0,0,0-1-1Z"></path><rect x="23" y="38" width="18" height="12"></rect><rect x="23" y="34" width="18" height="2"></rect></g></svg>