<svg xmlns="http://www.w3.org/2000/svg" viewBox="0 0 64 64" x="0px" y="0px"><g><circle cx="16" cy="16" r="1"></circle><path d="M13.036,14.288c.011-.286.026-.587.046-.9a14.946,14.946,0,0,0-3.679-1.2,14.917,14.917,0,0,0,2.875,2.587Q12.671,14.517,13.036,14.288Z"></path><path d="M16.8,12.179A14.912,14.912,0,0,0,16,8.384a14.912,14.912,0,0,0-.8,3.8c.268.132.532.257.8.4C16.272,12.436,16.536,12.311,16.8,12.179Z"></path><path d="M30,40.11l.06-.06A6.847,6.847,0,0,1,34,38.08v-.26A3,3,0,0,1,35,32h6a3,3,0,0,1,1,5.82V38h5v-.18A3,3,0,0,1,48,32h6V29H52v1H50V29a2,2,0,0,1,2-2h2V4H35a5,5,0,0,0-5,5ZM37,29H35V27h2Zm4,1H39V28h2ZM34,8H50v2H34Zm0,4H50v2H34Zm0,4H50v2H34Zm0,4H50v2H34Zm0,4H50v2H34Z"></path><path d="M28,40.11V9a5,5,0,0,0-5-5H4V38H23A6.97,6.97,0,0,1,28,40.11ZM24,30H12V28H24ZM7.339,21c-.816-1.415,1.093-3.379,3.22-5-2.127-1.621-4.036-3.585-3.22-5,.731-1.266,2.723-.812,4.157-.361.553.174,1.158.407,1.782.665C13.617,8.646,14.363,6,16,6s2.383,2.646,2.722,5.3c.624-.258,1.229-.491,1.782-.665,1.434-.451,3.425-.9,4.157.361.816,1.415-1.093,3.379-3.22,5,2.127,1.621,4.036,3.585,3.22,5a1.868,1.868,0,0,1-1.754.825,8.479,8.479,0,0,1-2.4-.464c-.553-.174-1.158-.407-1.782-.665C18.383,23.354,17.637,26,16,26s-2.383-2.646-2.722-5.3c-.624.258-1.229.491-1.782.665a8.479,8.479,0,0,1-2.4.464A1.867,1.867,0,0,1,7.339,21ZM10,28v2H8V28ZM8,32H24v2H8Z"></path><path d="M4,44H27.9A5.009,5.009,0,0,0,23,40H4Z"></path><path d="M44.35,50.07a3.616,3.616,0,0,1-.35-.13,8.431,8.431,0,0,0-3.34-.6,8.32,8.32,0,0,0-3.32.6,10.316,10.316,0,0,1-4.01.72,10.31,10.31,0,0,1-3.13-.42A7.915,7.915,0,0,0,30,52a8.011,8.011,0,0,0,8,8,7.922,7.922,0,0,0,2.33-.35,2.988,2.988,0,0,1,.22-1.99ZM35,55H33V53h2Zm5,3H38V56h2Zm-1-5V51h2v2Z"></path><path d="M15.2,19.821a14.9,14.9,0,0,0,.8,3.795,14.9,14.9,0,0,0,.8-3.795c-.268-.132-.532-.257-.8-.4C15.728,19.564,15.464,19.689,15.2,19.821Z"></path><path d="M19.722,14.778A14.917,14.917,0,0,0,22.6,12.191a14.946,14.946,0,0,0-3.679,1.2c.02.314.035.615.046.9Q19.329,14.518,19.722,14.778Z"></path><path d="M19.722,17.222q-.393.261-.758.49c-.011.286-.026.587-.046.9a14.946,14.946,0,0,0,3.679,1.2A14.917,14.917,0,0,0,19.722,17.222Z"></path><path d="M13.036,17.712q-.365-.229-.758-.49A14.917,14.917,0,0,0,9.4,19.809a14.946,14.946,0,0,0,3.679-1.2C13.062,18.3,13.047,18,13.036,17.712Z"></path><path d="M31.47,41.46A4.925,4.925,0,0,0,30.1,44h1.95A10.041,10.041,0,0,1,34,42.84V40.1A4.913,4.913,0,0,0,31.47,41.46Z"></path><path d="M41,36a1,1,0,0,0,0-2H35a1,1,0,0,0,0,2Z"></path><path d="M47,40v4H43.98A9.787,9.787,0,0,0,42,42.84V40Z"></path><path d="M49,38v7a1,1,0,0,1-.11.45L46.12,51h9.76l-2.77-5.55A1,1,0,0,1,53,45V38Zm4,11H51V47h2Z"></path><path d="M54,34H48a1,1,0,0,0,0,2h6a1,1,0,0,0,0-2Z"></path><path d="M43.24,60H58.76a.966.966,0,0,0,.85-.47,1.008,1.008,0,0,0,.05-.98L56.88,53H45.12l-2.78,5.55a1.008,1.008,0,0,0,.05.98A.966.966,0,0,0,43.24,60ZM53,55h2v2H53Zm-4,1h2v2H49Z"></path><path d="M30.89,48.36a8.682,8.682,0,0,0,2.44.3,8.338,8.338,0,0,0,3.33-.6,10.3,10.3,0,0,1,4-.72,10.375,10.375,0,0,1,4.02.72c.11.05.23.08.34.12a8.015,8.015,0,0,0-4.35-3.72,1,1,0,0,1-.67-.94V38H36v5.52a1,1,0,0,1-.67.94A8.227,8.227,0,0,0,33,45.77,8.085,8.085,0,0,0,30.89,48.36ZM36,45h2v2H36Z"></path><path d="M58,26v1a2.006,2.006,0,0,1-2,2H54V27h2V26Z"></path></g></svg>