<svg xmlns="http://www.w3.org/2000/svg" viewBox="0 0 64 64" x="0px" y="0px"><title>Idea-Create</title><g><path d="M56,51H55V26a3,3,0,0,0-3-3H44v2h8a1,1,0,0,1,1,1V51H11V26a1,1,0,0,1,1-1h8V23H12a3,3,0,0,0-3,3V51H8a1,1,0,0,0-1,1v3a2,2,0,0,0,2,2H55a2,2,0,0,0,2-2V52A1,1,0,0,0,56,51ZM9,55V53H27a1,1,0,0,0,1,1h8a1,1,0,0,0,1-1H55v2Z"></path><path d="M21,29V27H15a2,2,0,0,0-2,2V48a1,1,0,0,0,1,1H50a1,1,0,0,0,1-1V29a2,2,0,0,0-2-2H43v2h6V47H15V29Z"></path><path d="M28,29.161V33H25v2h3v2a1,1,0,0,0,1,1v2a1,1,0,0,0,1,1h4a1,1,0,0,0,1-1V38a1,1,0,0,0,1-1V35h3V33H36V29.161a10,10,0,1,0-8,0ZM33,39H31V38h2Zm1-3H30V35h4ZM32,12a8,8,0,0,1,2.668,15.537A1,1,0,0,0,34,28.48V33H30V28.48a1,1,0,0,0-.668-.943A8,8,0,0,1,32,12Z"></path><path d="M28,20a4,4,0,0,1,4-4V14a6.006,6.006,0,0,0-6,6Z"></path><rect x="31" y="4" width="2" height="4"></rect><rect x="39.9" y="9.101" width="4" height="2" transform="translate(5.13 32.586) rotate(-45)"></rect><rect x="44" y="19" width="4" height="2"></rect><rect x="21.101" y="8.101" width="2" height="4" transform="translate(-0.669 18.586) rotate(-45)"></rect><rect x="16" y="19" width="4" height="2"></rect></g></svg>