<svg xmlns="http://www.w3.org/2000/svg" viewBox="0 0 64 64" x="0px" y="0px"><g data-name="Online Shopping-Ecommerce-Online Shop-Shopping Cart-Computer"><rect x="10" y="58" width="44" height="2"></rect><path d="M15.414,50l-4,6H52.586l-4-6ZM18,54H16V52h2Zm4,0H20V52h2Zm18,0H24V52H40Zm4,0H42V52h2Zm4,0H46V52h2Z"></path><rect x="40" y="16" width="2" height="2"></rect><rect x="40" y="8" width="2" height="2"></rect><rect x="40" y="12" width="2" height="2"></rect><rect x="36" y="12" width="2" height="2"></rect><polygon points="46.91 8 44 8 44 10 46.75 10 46.91 8"></polygon><rect x="36" y="16" width="2" height="2"></rect><path d="M52,8H48.92L48,19.08A1.01,1.01,0,0,1,47,20H32v2H47a3.009,3.009,0,0,1,3,3H48a1,1,0,0,0-1-1H45.82a3,3,0,1,1-5.64,0H37.82a3,3,0,1,1-5.64,0H31a1,1,0,0,1-1-1V8H12a1,1,0,0,0-1,1V22h3v2H11v6H53V9A1,1,0,0,0,52,8ZM18,14h8v2H18Zm-4,0h2v2H14Zm-1,6V18H23v2Zm15,4H16V22H28Z"></path><polygon points="46.58 12 44 12 44 14 46.41 14 46.58 12"></polygon><polygon points="44 18 46.08 18 46.25 16 44 16 44 18"></polygon><rect x="23" y="44" width="18" height="2"></rect><rect x="28" y="38" width="8" height="4"></rect><circle cx="43" cy="25" r="1"></circle><rect x="36" y="8" width="2" height="2"></rect><path d="M53,35V32H11v3a1,1,0,0,0,1,1H52A1,1,0,0,0,53,35Zm-4,0H47V33h2Z"></path><circle cx="35" cy="25" r="1"></circle><rect x="32" y="16" width="2" height="2"></rect><rect x="32" y="12" width="2" height="2"></rect><rect x="32" y="8" width="2" height="2"></rect><path d="M31.71,5.29l-2-2A1.033,1.033,0,0,0,29,3H26.721a1.911,1.911,0,0,0-.311-.41A1.955,1.955,0,0,0,25,2H23a2.006,2.006,0,0,0-2,2,2.015,2.015,0,0,0,2,2h2a2,2,0,0,0,1.721-1H28.59L30,6.41V8h2V6A1.033,1.033,0,0,0,31.71,5.29Z"></path><rect x="7" y="22" width="2" height="2"></rect></g></svg>