<svg xmlns="http://www.w3.org/2000/svg" viewBox="0 0 64 64" x="0px" y="0px"><g data-name="Excavator-Constructions-Vehicle-Heavy Vehicle-Transport"><polygon points="25.465 20 21.618 20 19.618 24 28.132 24 25.465 20"></polygon><path d="M16,13v1H30V12.93L16.93,12A.991.991,0,0,0,16,13Z"></path><path d="M40,29.82,37.31,37H26.62l.95-1.91A.318.318,0,0,0,27.6,35h5.06a1.958,1.958,0,0,0,1.22-.42Z"></path><path d="M6,30v4a3.009,3.009,0,0,0,3,3H24.38l1.4-2.8L22,30.41V29H7A1,1,0,0,0,6,30Z"></path><path d="M24,29v.59l3.2,3.19c.06.07.1.15.15.22h4.87l1.71-6.82L27.37,16H19.6L13.67,27H22A2.006,2.006,0,0,1,24,29Zm-6.083-3.948a1.988,1.988,0,0,1-.088-1.946l2-4A1.988,1.988,0,0,1,21.618,18h3.847a2,2,0,0,1,1.664.891l2.667,4A2,2,0,0,1,28.132,26H19.618A1.986,1.986,0,0,1,17.917,25.052Z"></path><path d="M35.76,50H35v1H33V50H31v1H29V50H27v1H25V50H23v1H21V50H19v1H17V50h-.76a8.044,8.044,0,0,0,1.18-2H34.58A8.044,8.044,0,0,0,35.76,50Z"></path><path d="M35.76,40a8.044,8.044,0,0,0-1.18,2H17.42a8.044,8.044,0,0,0-1.18-2H17V39h2v1h2V39h2v1h2V39h2v1h2V39h2v1h2V39h2v1Z"></path><polygon points="11 18.59 8.71 16.29 7.29 17.71 9 19.41 9 27 11 27 11 18.59"></polygon><path d="M34,45a8.262,8.262,0,0,0,.06,1H17.94a8.363,8.363,0,0,0,0-2H34.06A8.262,8.262,0,0,0,34,45Z"></path><circle cx="42" cy="45" r="1"></circle><path d="M48,46V44H46.9a4.983,4.983,0,0,0-.731-1.754l.782-.782L45.536,40.05l-.782.782A4.983,4.983,0,0,0,43,40.1V39H41v1.1a4.983,4.983,0,0,0-1.754.731l-.782-.782L37.05,41.464l.782.782A4.983,4.983,0,0,0,37.1,44H36v2h1.1a4.983,4.983,0,0,0,.731,1.754l-.782.782,1.414,1.414.782-.782A4.983,4.983,0,0,0,41,49.9V51h2V49.9a4.983,4.983,0,0,0,1.754-.731l.782.782,1.414-1.414-.782-.782A4.983,4.983,0,0,0,46.9,46Zm-6,2a3,3,0,1,1,3-3A3,3,0,0,1,42,48Z"></path><circle cx="10" cy="45" r="1"></circle><path d="M16,46V44H14.9a4.983,4.983,0,0,0-.731-1.754l.782-.782L13.536,40.05l-.782.782A4.983,4.983,0,0,0,11,40.1V39H9v1.1a4.983,4.983,0,0,0-1.754.731l-.782-.782L5.05,41.464l.782.782A4.983,4.983,0,0,0,5.1,44H4v2H5.1a4.983,4.983,0,0,0,.731,1.754l-.782.782L6.464,49.95l.782-.782A4.983,4.983,0,0,0,9,49.9V51h2V49.9a4.983,4.983,0,0,0,1.754-.731l.782.782,1.414-1.414-.782-.782A4.983,4.983,0,0,0,14.9,46Zm-6,2a3,3,0,1,1,3-3A3,3,0,0,1,10,48Z"></path><path d="M57.45,36.55l-.374.374-1.268-4.918a1.014,1.014,0,0,0,.012-.166l-2.7-17.11a1.008,1.008,0,0,0-.85-.83l-4.56-.66a1.009,1.009,0,0,0-1.07,1.37l1,2.49.572,1.427-8.2,2.243L40,22.37a1.98,1.98,0,0,1-1.16,1.81l-3.09,1.21a1.979,1.979,0,0,1,.12,1.27l-1.2,4.78,14.267-11.1L53.75,32.37a1,1,0,0,0,.153.261l1.44,5.586-2.093.7a1.1,1.1,0,0,1-.51.03L50,38.4a1,1,0,0,0-1.09,1.43l.97,1.93a1.07,1.07,0,0,0,.34.39l2.53,1.68a.991.991,0,0,0,.55.17h1.4a.991.991,0,0,0,.55-.17l2.43-1.62a.934.934,0,0,0,.41-.59l1.03-4.12A1,1,0,0,0,57.45,36.55Z"></path></g></svg>