<svg xmlns="http://www.w3.org/2000/svg" viewBox="0 0 64 64" x="0px" y="0px"><g data-name="Goal-On top-Success-Business-Mountain-Flag"><path d="M61.92,60.62l-14-34a.993.993,0,0,0-1.84,0L41.91,36.74l-7-15.16A1.016,1.016,0,0,0,34,21H33V12H44a1,1,0,0,0,1-1V3a1,1,0,0,0-1-1H32a1,1,0,0,0-1,1V21H30a1.016,1.016,0,0,0-.91.58l-7,15.16L17.92,26.62a.993.993,0,0,0-1.84,0l-14,34a.985.985,0,0,0,.09.94A1.01,1.01,0,0,0,3,62H61a1.01,1.01,0,0,0,.83-.44A.985.985,0,0,0,61.92,60.62ZM33,4H43v6H33ZM47,29.63l2.32,5.63-.32.33-1.29-1.3a1.008,1.008,0,0,0-1.42,0L45,35.59l-.32-.33ZM30.64,23h2.72l3.63,7.87-.93.78-3.35-3.36a1.008,1.008,0,0,0-1.42,0l-3.35,3.36-.93-.78ZM17,29.63l2.32,5.63-.32.33-1.29-1.3a1.008,1.008,0,0,0-1.42,0L15,35.59l-.32-.33ZM11.36,60H4.49l9.36-22.73.44.44a1.008,1.008,0,0,0,1.42,0L17,36.41l1.29,1.3a1.014,1.014,0,0,0,1.42,0l.44-.44.8,1.95Zm2.2,0L26.14,32.75l1.22,1.02a1.011,1.011,0,0,0,1.35-.06L32,30.41l3.29,3.3a1.01,1.01,0,0,0,1.35.06l1.22-1.02L50.44,60Zm39.08,0L43.05,39.22l.8-1.95.44.44a1.008,1.008,0,0,0,1.42,0L47,36.41l1.29,1.3a1.014,1.014,0,0,0,1.42,0l.44-.44L59.51,60Z"></path><path d="M9,14h8a3,3,0,0,0,0-6A4,4,0,0,0,9,8a3,3,0,0,0,0,6Zm0-4h1.184a1,1,0,0,0,.942-1.334,2,2,0,1,1,3.748,0A1,1,0,0,0,15.816,10H17a1,1,0,0,1,0,2H9a1,1,0,0,1,0-2Z"></path><path d="M51,24h8a3,3,0,0,0,0-6,4,4,0,0,0-8,0,3,3,0,0,0,0,6Zm0-4h1.184a1,1,0,0,0,.942-1.334,2,2,0,1,1,3.748,0A1,1,0,0,0,57.816,20H59a1,1,0,0,1,0,2H51a1,1,0,0,1,0-2Z"></path></g></svg>