<svg xmlns="http://www.w3.org/2000/svg" viewBox="0 0 64 64" x="0px" y="0px"><g data-name="Windsurfer"><path d="M23,32c2.665,0,4.833-1.794,4.833-4S25.665,24,23,24s-4.833,1.794-4.833,4S20.335,32,23,32Zm-2-5h4v2H21Z"></path><path d="M34,18v2a1,1,0,0,0,0-2Z"></path><path d="M42,60V58H38a1,1,0,0,1-.937-.649l-3-8A1,1,0,0,1,35,48h6.875a8.955,8.955,0,0,0-6.19-7.235L26.7,37.955A1,1,0,0,1,26,37V33.574a10.993,10.993,0,0,1-2.251.388c-.246.024-.5.038-.749.038s-.5-.014-.749-.038A10.993,10.993,0,0,1,20,33.574V37a1,1,0,0,1-.7.955l-8.981,2.81A8.947,8.947,0,0,0,4,49.35V60H9V48h2V60H35V58h2v2ZM31,55H25a2.981,2.981,0,0,1-2-.78A2.981,2.981,0,0,1,21,55H15V53h6a1,1,0,0,0,1-1V44.913L11.909,44,12.091,42,23,43,33.909,42,34.091,44,24,44.913V52a1,1,0,0,0,1,1h6Z"></path><path d="M14,14.739c1.314-.633,2.429-2.44,2.823-4.784a1,1,0,0,1,1.334-.772,15.028,15.028,0,0,0,9.686,0,1,1,0,0,1,.848.071,1.006,1.006,0,0,1,.486.7c.394,2.344,1.509,4.151,2.823,4.784V13a9,9,0,0,0-18,0Z"></path><path d="M14,23a8.95,8.95,0,0,0,2.26,5.944A5.263,5.263,0,0,1,16.167,28c0-3.309,3.065-6,6.833-6s6.833,2.691,6.833,6a5.263,5.263,0,0,1-.093.944A8.95,8.95,0,0,0,32,23V16.867c-2.053-.513-3.784-2.573-4.553-5.456a17.324,17.324,0,0,1-8.894,0c-.769,2.883-2.5,4.943-4.553,5.456Zm13-4h2v2H27ZM17,19h2v2H17Z"></path><rect x="44" y="24" width="1" height="24"></rect><rect x="47" y="27" width="8" height="14"></rect><polygon points="59.557 50 36.443 50 38.693 56 57.307 56 59.557 50"></polygon><path d="M11,19a1,1,0,0,0,1,1V18A1,1,0,0,0,11,19Z"></path></g></svg>