<svg xmlns="http://www.w3.org/2000/svg" viewBox="0 0 64 64" x="0px" y="0px"><g><path d="M36,22H34a1,1,0,0,1-1-1H31a3,3,0,0,0,3,3v1h2V24a3,3,0,0,0,0-6H34a1,1,0,0,1,0-2h2a1,1,0,0,1,1,1h2a3,3,0,0,0-3-3V13H34v1a3,3,0,0,0,0,6h2a1,1,0,0,1,0,2Z"></path><path d="M35,2A17.041,17.041,0,0,0,18.02,18.58l-4.26,7.37a16.835,16.835,0,0,0-2.17,10.38L13,49.02l-.08,1A.991.991,0,0,0,12,51v8a.961.961,0,0,0,.19.55L12,61.92l2,.16L14.16,60H25v2h2V60a1,1,0,0,0,1-1V51a.981.981,0,0,0-.85-.97l1.28-2.13A10.983,10.983,0,0,0,30,42.23v-1.3a10.907,10.907,0,0,0-.79-4.09l-.88-2.21A17,17,0,1,0,35,2ZM49.95,18h-4a10.947,10.947,0,0,0-2.5-6.03l2.83-2.83A14.971,14.971,0,0,1,49.95,18ZM36,4.05a14.971,14.971,0,0,1,8.86,3.67l-2.83,2.83A10.947,10.947,0,0,0,36,8.05Zm-2,0v4a10.947,10.947,0,0,0-6.03,2.5L25.15,7.73A14.979,14.979,0,0,1,34,4.05ZM23.73,9.15l2.82,2.82A10.947,10.947,0,0,0,24.05,18h-4A14.953,14.953,0,0,1,23.73,9.15ZM24.06,20a11.242,11.242,0,0,0,.99,3.65,4.006,4.006,0,0,0-.62.79l-1.77,3.08c-.2-.28-.39-.56-.57-.86A15.092,15.092,0,0,1,20.03,20ZM26,58H14V52H26Zm.07-23.63,1.28,3.22A8.793,8.793,0,0,1,28,40.93v1.3a8.919,8.919,0,0,1-1.29,4.64l-1.57,2.62A1,1,0,0,0,25,50H14.93l.07-.92a1.148,1.148,0,0,0-.01-.19L13.57,36.11a14.908,14.908,0,0,1,1.93-9.16l2.79-4.84a17.363,17.363,0,0,0,2.08,5.58,18.5,18.5,0,0,0,1.2,1.71l-2.14,3.7,1.74,1,5-8.66a1.968,1.968,0,0,1,1.21-.94,2.016,2.016,0,0,1,1.52.21,1.97,1.97,0,0,1,1,1.73,1.949,1.949,0,0,1-.27,1l-3.5,6.06A1.021,1.021,0,0,0,26.07,34.37ZM34,33.94a14.64,14.64,0,0,1-5.09-1.25l2.02-3.49a10.369,10.369,0,0,0,3.07.74ZM31.78,27.4a3.991,3.991,0,0,0-1.88-4.43,4.007,4.007,0,0,0-3.03-.4,1.037,1.037,0,0,0-.1.04,8.993,8.993,0,1,1,5.01,4.79ZM36,33.95v-4a10.947,10.947,0,0,0,6.03-2.5l2.83,2.83A14.971,14.971,0,0,1,36,33.95Zm10.28-5.09-2.83-2.83A10.947,10.947,0,0,0,45.95,20h4A14.971,14.971,0,0,1,46.28,28.86Z"></path><rect x="54" y="12" width="2" height="8"></rect><rect x="54" y="22" width="2" height="2"></rect><rect x="58" y="17" width="2" height="8"></rect><rect x="58" y="27" width="2" height="2"></rect><rect x="10" y="9" width="2" height="8"></rect><rect x="10" y="19" width="2" height="2"></rect><rect x="14" y="5" width="2" height="8"></rect><rect x="14" y="15" width="2" height="2"></rect><rect x="22" y="54" width="2" height="2"></rect></g></svg>