<svg xmlns="http://www.w3.org/2000/svg" viewBox="0 0 64 64" x="0px" y="0px"><g data-name="Online Booking"><path d="M22,28h7v5.18l-4.2.84A1,1,0,0,0,24,35v2a1,1,0,0,0,1,1H39a1,1,0,0,0,1-1V35a1,1,0,0,0-.8-.98L35,33.18V28h7a1,1,0,0,0,1-1V25a1,1,0,0,0-.757-.97L35,22.219V19a3,3,0,0,0-6,0v3.219L21.757,24.03A1,1,0,0,0,21,25v2A1,1,0,0,0,22,28Zm4,7.82,3.33-.666.282.846H26ZM38,36H34.388l.282-.846L38,35.82Zm3-10.219V26H35V24.281ZM31,19a1,1,0,0,1,2,0V33.837L32.279,36h-.558L31,33.837Zm-8,6.781,6-1.5V26H23Z"></path><path d="M42,2H22a7.008,7.008,0,0,0-7,7V55a7.008,7.008,0,0,0,7,7H42a7.008,7.008,0,0,0,7-7V9A7.008,7.008,0,0,0,42,2ZM22,4H42a5.006,5.006,0,0,1,5,5v1H17V9A5.006,5.006,0,0,1,22,4Zm25,8V52H17V12ZM42,60H22a5.006,5.006,0,0,1-5-5V54H47v1A5.006,5.006,0,0,1,42,60Z"></path><rect x="30" y="56" width="4" height="2"></rect><rect x="21" y="6" width="2" height="2"></rect><rect x="25" y="6" width="6" height="2"></rect><rect x="31" y="40" width="2" height="4"></rect><rect x="31" y="46" width="2" height="2"></rect><rect x="43" y="30" width="2" height="6"></rect><rect x="43" y="38" width="2" height="2"></rect><rect x="37" y="40" width="2" height="2"></rect><rect x="37" y="44" width="2" height="2"></rect><rect x="19" y="30" width="2" height="6"></rect><rect x="19" y="38" width="2" height="2"></rect><rect x="25" y="40" width="2" height="2"></rect><rect x="25" y="44" width="2" height="2"></rect></g></svg>