<svg xmlns="http://www.w3.org/2000/svg" viewBox="0 0 64 64" x="0px" y="0px"><g data-name="Online Lesson-Lesson-Smartphone-Books-Learning"><path d="M27,2H19a4.994,4.994,0,0,0-4,2.03A4.994,4.994,0,0,0,11,2H3A1,1,0,0,0,2,3V23a1,1,0,0,0,1,1H27a1,1,0,0,0,1-1V3A1,1,0,0,0,27,2ZM4,22V20h7a3.014,3.014,0,0,1,2.83,2Zm10-2.97A4.924,4.924,0,0,0,11,18H4V4h7a3.009,3.009,0,0,1,3,3ZM26,22H16.17A3.014,3.014,0,0,1,19,20h7Zm0-4H19a4.924,4.924,0,0,0-3,1.03V7a3.009,3.009,0,0,1,3-3h7Z"></path><rect x="6" y="6" width="6" height="2"></rect><rect x="6" y="10" width="6" height="2"></rect><rect x="6" y="14" width="6" height="2"></rect><rect x="18" y="6" width="6" height="2"></rect><rect x="18" y="10" width="6" height="2"></rect><rect x="18" y="14" width="6" height="2"></rect><path d="M61,2H53a4.994,4.994,0,0,0-4,2.03A4.994,4.994,0,0,0,45,2H37a1,1,0,0,0-1,1V23a1,1,0,0,0,1,1H61a1,1,0,0,0,1-1V3A1,1,0,0,0,61,2ZM38,22V20h7a3.014,3.014,0,0,1,2.83,2Zm10-2.97A4.924,4.924,0,0,0,45,18H38V4h7a3.009,3.009,0,0,1,3,3ZM60,22H50.17A3.014,3.014,0,0,1,53,20h7Zm0-4H53a4.924,4.924,0,0,0-3,1.03V7a3.009,3.009,0,0,1,3-3h7Z"></path><rect x="40" y="6" width="6" height="2"></rect><rect x="40" y="10" width="6" height="2"></rect><rect x="40" y="14" width="6" height="2"></rect><rect x="52" y="6" width="6" height="2"></rect><rect x="52" y="10" width="6" height="2"></rect><rect x="52" y="14" width="6" height="2"></rect><path d="M37,32H27a5.006,5.006,0,0,0-5,5V57a5.006,5.006,0,0,0,5,5H37a5.006,5.006,0,0,0,5-5V37A5.006,5.006,0,0,0,37,32Zm3,25a3,3,0,0,1-3,3H27a3,3,0,0,1-3-3V37a3,3,0,0,1,3-3H37a3,3,0,0,1,3,3Z"></path><rect x="30" y="36" width="4" height="2"></rect><rect x="26" y="36" width="2" height="2"></rect><rect x="30" y="56" width="4" height="2"></rect><rect x="31" y="46" width="2" height="2"></rect><rect x="35" y="46" width="2" height="2"></rect><rect x="27" y="46" width="2" height="2"></rect><path d="M48,39.586l-3.707,3.707,1.414,1.414,4-4A1,1,0,0,0,50,40V26H48Z"></path><path d="M16,26H14V40a1,1,0,0,0,.293.707l4,4,1.414-1.414L16,39.586Z"></path><rect x="52" y="38" width="2" height="2"></rect><rect x="52" y="34" width="2" height="2"></rect><rect x="52" y="30" width="2" height="2"></rect><rect x="10" y="38" width="2" height="2"></rect><rect x="10" y="34" width="2" height="2"></rect><rect x="10" y="30" width="2" height="2"></rect></g></svg>