<svg xmlns="http://www.w3.org/2000/svg" viewBox="0 0 64 64" x="0px" y="0px"><g data-name="Wardrobe"><polygon points="55 13 53 13 53 14 51 14 51 13 49 13 49 14 47 14 47 13 45 13 45 14 43 14 43 13 41 13 41 14 39 14 39 13 37 13 37 14 35 14 35 13 33 13 33 14 31 14 31 13 29 13 29 47 55 47 55 13"></polygon><rect x="10" y="59" width="44" height="2"></rect><path d="M7,57H31V49H7Zm9-6h6v2H16Z"></path><path d="M9,7V47H27V7ZM25,32H23V24h2Z"></path><polygon points="55 7 29 7 29 11 31 11 31 10 33 10 33 11 35 11 35 10 37 10 37 11 39 11 39 10 41 10 41 11 43 11 43 10 45 10 45 11 47 11 47 10 49 10 49 11 51 11 51 10 53 10 53 11 55 11 55 7"></polygon><path d="M57,49H33v8H57Zm-9,4H42V51h6Z"></path><rect x="7" y="3" width="50" height="2"></rect></g></svg>