<svg xmlns="http://www.w3.org/2000/svg" viewBox="0 0 64 64" x="0px" y="0px"><g data-name="Search-Cloud"><path d="M60,32A12.01,12.01,0,0,1,48,44H33V39.94a9,9,0,1,0-2,0V44H13a9,9,0,0,1-2.6-17.62.987.987,0,0,0,.71-.82A11.007,11.007,0,0,1,22,16c.16,0,.31.01.46.02l.2.01a.99.99,0,0,0,.95-.53,13.985,13.985,0,0,1,26.15,3.98.994.994,0,0,0,.77.79A12.053,12.053,0,0,1,60,32Z"></path><path d="M32,24a7,7,0,1,0,7,7A7.008,7.008,0,0,0,32,24Zm-3,8H27V30h2Zm4,0H31V30h2Zm2,0V30h2v2Z"></path><path d="M33,46.277V44H31v2.277A1.994,1.994,0,0,0,30,48v8a2,2,0,0,0,4,0V48A1.994,1.994,0,0,0,33,46.277Z"></path></g></svg>