<svg xmlns="http://www.w3.org/2000/svg" viewBox="0 0 64 64" x="0px" y="0px"><g data-name="Report"><path d="M58,4H16V57a4.948,4.948,0,0,1-1.026,3H55a3,3,0,0,0,3-3ZM31,9H49v2H31ZM25,9h4v2H25Zm0,4H49v2H25ZM43,56H25V54H43Zm6,0H45V54h4Zm0-4H25V50H49ZM25,48V46h4v2Zm24,0H31V46H49Zm2-5H24a1,1,0,0,1-1-1V20h2V41h2V34a1,1,0,0,1,1-1h4a1,1,0,0,1,1,1v7h1V30a1,1,0,0,1,1-1h4a1,1,0,0,1,1,1V41h1V24a1,1,0,0,1,1-1h4a1,1,0,0,1,1,1V41h4Z"></path><rect x="43" y="25" width="2" height="16"></rect><rect x="29" y="35" width="2" height="6"></rect><rect x="36" y="31" width="2" height="10"></rect><path d="M9,60h2a3,3,0,0,0,3-3V9H6V57A3,3,0,0,0,9,60Zm2-49h2V57H11ZM7,11H9V57H7Z"></path></g></svg>