<svg xmlns="http://www.w3.org/2000/svg" viewBox="0 0 64 64" x="0px" y="0px"><g data-name="Businessman-Avatar"><path d="M39.93,7.932a28.1,28.1,0,0,1-3.607,3.489l.461.922A3.036,3.036,0,0,0,39.47,14H40a1,1,0,0,1,1,1v4a9,9,0,0,1-5,8.05v1.2l8.859,2.58c.022,0,.08.022.138.04.022,0,.109.031.131.038a7.053,7.053,0,0,1,1.476.7A8.84,8.84,0,0,0,47,29a9.033,9.033,0,0,0-4.5-7.794,1,1,0,0,1-.5-.866V14A9.934,9.934,0,0,0,39.93,7.932Z"></path><path d="M22,20.34a1,1,0,0,1-.5.866A9.033,9.033,0,0,0,17,29a8.84,8.84,0,0,0,.4,2.6,7.053,7.053,0,0,1,1.476-.7L19,30.87c.058-.018.116-.036.175-.05L28,28.25V27.057a9.087,9.087,0,0,1-2.365-1.687A8.987,8.987,0,0,1,23,19V15a1,1,0,0,1,1.11-.994c.043,0,4.836.445,10.351-3.677a25.476,25.476,0,0,0,4.092-3.864A9.984,9.984,0,0,0,22,14Z"></path><path d="M39,19V15.977a5.062,5.062,0,0,1-4-2.737l-.31-.619A18.715,18.715,0,0,1,25,16.019V19a7,7,0,0,0,14,0ZM28,20h2a2,2,0,0,0,4,0h2a4,4,0,0,1-8,0Z"></path><path d="M46,46a7.329,7.329,0,0,1-2.939,6.023L43.9,60H48V37.58a5,5,0,0,0-3.487-4.768h0c-.005,0-.058-.016-.111-.032l-.1-.03-2.425-.706C41.152,35.409,37.006,38,32,38s-9.152-2.591-9.876-5.956L19.7,32.75l-.1.03c-.058.018-.117.035-.175.05A4.989,4.989,0,0,0,16,37.58V60h4.1l.839-7.977A7.635,7.635,0,0,1,21,39.936V38h2v2.5a1,1,0,0,1-.532.884,5.551,5.551,0,0,0,0,9.232,1,1,0,0,1,.526.988L22.11,60H41.89l-.884-8.4a1,1,0,0,1,.526-.988,5.551,5.551,0,0,0,0-9.232A1,1,0,0,1,41,40.5V38h2v1.936A7.309,7.309,0,0,1,46,46Z"></path><path d="M32,36c4.075,0,7.554-2.022,7.959-4.514L34.721,29.96A1,1,0,0,1,34,29V27.768a8.755,8.755,0,0,1-4,0V29a1,1,0,0,1-.721.96l-5.238,1.526C24.446,33.978,27.925,36,32,36Z"></path></g></svg>