<svg xmlns="http://www.w3.org/2000/svg" viewBox="0 0 64 64" x="0px" y="0px"><g data-name="Time-Working At Home-Employee-Working-Timetable"><path d="M44.949,38a12.919,12.919,0,0,0-3.088-7.447l-1.376,1.376-1.414-1.414,1.376-1.376A12.926,12.926,0,0,0,33,26.051V28H31V26.051a12.926,12.926,0,0,0-7.447,3.088l1.376,1.376-1.414,1.414-1.376-1.376A12.919,12.919,0,0,0,19.051,38H21v2H19.051a12.919,12.919,0,0,0,3.088,7.447l1.376-1.376,1.414,1.414-1.376,1.376A12.926,12.926,0,0,0,31,51.949V50h2v1.949a12.926,12.926,0,0,0,7.447-3.088l-1.376-1.376,1.414-1.414,1.376,1.376A12.919,12.919,0,0,0,44.949,40H43V38ZM32,42a2.951,2.951,0,0,1-1.285-.3l-3.008,3.008-1.414-1.414L29.3,40.285A2.951,2.951,0,0,1,29,39a3,3,0,0,1,2-2.816V30h2v6.184A2.993,2.993,0,0,1,32,42Z"></path><path d="M32,22A17,17,0,1,0,49,39,17.019,17.019,0,0,0,32,22Zm0,32A15,15,0,1,1,47,39,15.017,15.017,0,0,1,32,54Z"></path><circle cx="32" cy="39" r="1"></circle><path d="M59.7,26.43,32.64,3.84A1,1,0,0,0,32,3.61a1.025,1.025,0,0,0-.64.23L4.38,26.48a1.083,1.083,0,0,0-.31,1.33,1,1,0,0,0,.7.49.986.986,0,0,0,.81-.22L31.35,6.24a.987.987,0,0,1,1.29,0L58.42,27.96a1,1,0,0,0,1.28-1.53Z"></path><path d="M54,59V26.85L32,8.31,10,26.96V59a1,1,0,0,0,1,1H53A1,1,0,0,0,54,59ZM32,58A19,19,0,1,1,51,39,19.021,19.021,0,0,1,32,58Z"></path></g></svg>