<svg xmlns="http://www.w3.org/2000/svg" viewBox="0 0 64 64" x="0px" y="0px"><g data-name="skyscraper-building-tower-city-real estate"><rect x="12" y="24" width="2" height="2"></rect><rect x="16" y="24" width="2" height="2"></rect><rect x="12" y="28" width="2" height="2"></rect><rect x="12" y="32" width="2" height="2"></rect><rect x="12" y="36" width="2" height="2"></rect><rect x="12" y="40" width="2" height="2"></rect><rect x="12" y="44" width="2" height="2"></rect><rect x="8" y="24" width="2" height="2"></rect><rect x="12" y="20" width="2" height="2"></rect><rect x="16" y="20" width="2" height="2"></rect><rect x="8" y="20" width="2" height="2"></rect><rect x="12" y="16" width="2" height="2"></rect><rect x="16" y="16" width="2" height="2"></rect><rect x="8" y="16" width="2" height="2"></rect><rect x="12" y="12" width="2" height="2"></rect><rect x="16" y="12" width="2" height="2"></rect><rect x="8" y="12" width="2" height="2"></rect><rect x="8" y="28" width="2" height="2"></rect><rect x="8" y="32" width="2" height="2"></rect><rect x="8" y="36" width="2" height="2"></rect><rect x="8" y="40" width="2" height="2"></rect><rect x="8" y="44" width="2" height="2"></rect><rect x="12" y="48" width="2" height="2"></rect><rect x="12" y="52" width="2" height="2"></rect><rect x="8" y="48" width="2" height="2"></rect><rect x="8" y="52" width="2" height="2"></rect><rect x="50" y="24" width="2" height="2"></rect><rect x="46" y="24" width="2" height="2"></rect><rect x="50" y="28" width="2" height="2"></rect><rect x="50" y="32" width="2" height="2"></rect><rect x="50" y="36" width="2" height="2"></rect><rect x="50" y="40" width="2" height="2"></rect><rect x="50" y="44" width="2" height="2"></rect><rect x="54" y="24" width="2" height="2"></rect><rect x="50" y="20" width="2" height="2"></rect><rect x="46" y="20" width="2" height="2"></rect><rect x="54" y="20" width="2" height="2"></rect><rect x="50" y="16" width="2" height="2"></rect><rect x="46" y="16" width="2" height="2"></rect><rect x="54" y="16" width="2" height="2"></rect><rect x="50" y="12" width="2" height="2"></rect><rect x="46" y="12" width="2" height="2"></rect><rect x="54" y="12" width="2" height="2"></rect><rect x="54" y="28" width="2" height="2"></rect><rect x="54" y="32" width="2" height="2"></rect><rect x="54" y="36" width="2" height="2"></rect><rect x="54" y="40" width="2" height="2"></rect><rect x="54" y="44" width="2" height="2"></rect><rect x="50" y="48" width="2" height="2"></rect><rect x="50" y="52" width="2" height="2"></rect><rect x="54" y="48" width="2" height="2"></rect><rect x="54" y="52" width="2" height="2"></rect><rect x="12" y="56" width="2" height="2"></rect><rect x="8" y="56" width="2" height="2"></rect><rect x="50" y="56" width="2" height="2"></rect><rect x="54" y="56" width="2" height="2"></rect><path d="M62,4V2H40V4h2V8H40v2h2V28H22V10h2V8H22V4h2V2H2V4H4V8H2v2H4V60H2v2H62V60H60V10h2V8H60V4ZM6,4H20V8H6ZM16,29V60H6V10H20V28H17A1,1,0,0,0,16,29ZM31,60H27V54h4Zm6,0H33V54h4Zm9,0H39V53a1,1,0,0,0-1-1H26a1,1,0,0,0-1,1v7H18V30H46Zm12,0H48V29a1,1,0,0,0-1-1H44V10H58ZM58,8H44V4H58Z"></path><rect x="20" y="48" width="24" height="2"></rect><rect x="20" y="44" width="24" height="2"></rect><rect x="20" y="40" width="24" height="2"></rect><rect x="20" y="36" width="24" height="2"></rect><rect x="20" y="32" width="24" height="2"></rect></g></svg>