<svg xmlns="http://www.w3.org/2000/svg" viewBox="0 0 64 64" x="0px" y="0px"><g data-name="Gamer-Game Console-Smartphone-Application-Control"><path d="M60,45V9a5,5,0,0,0-5-5H9A5,5,0,0,0,4,9V45a4.939,4.939,0,0,0,3,4.56V37a7.008,7.008,0,0,1,7-7H50a7.008,7.008,0,0,1,7,7V49.56A4.939,4.939,0,0,0,60,45ZM33.5,23.327a7,7,0,1,1,0-8.654A1,1,0,0,1,33.417,16l-3,3,3,3A1,1,0,0,1,33.5,23.327ZM35,20H33V18h2Zm4,0H37V18h2Zm4,0H41V18h2ZM56,31V9a1,1,0,0,0-1-1H9A1,1,0,0,0,8,9V31H6V9A3,3,0,0,1,9,6H55a3,3,0,0,1,3,3V31Z"></path><path d="M41,40a6,6,0,1,0,6,6A6.006,6.006,0,0,0,41,40Zm-2,7H37V45h2Zm3,3H40V48h2Zm0-6H40V42h2Zm3,3H43V45h2Z"></path><path d="M28.293,18.293l3.028-3.028A4.945,4.945,0,0,0,28,14a5,5,0,0,0,0,10,4.945,4.945,0,0,0,3.321-1.265l-3.028-3.028A1,1,0,0,1,28.293,18.293ZM27,17V15h2v2Z"></path><path d="M53.55,42.11,55,41.38V37a5,5,0,0,0-5-5H14a5,5,0,0,0-5,5V55a5,5,0,0,0,5,5H50a5,5,0,0,0,5-5V50.62l-1.45-.73A.988.988,0,0,1,53,49V43A.988.988,0,0,1,53.55,42.11ZM21,47H19v2H17V47H15V45h2V43h2v2h2Zm5,0H24V45h2Zm4,0H28V45h2Zm11,7a8,8,0,1,1,8-8A8.009,8.009,0,0,1,41,54Z"></path></g></svg>