<svg xmlns="http://www.w3.org/2000/svg" viewBox="0 0 64 64" x="0px" y="0px"><g><path d="M26,24H8a2,2,0,0,0-2,2v6a2,2,0,0,0,2,2H26a2,2,0,0,0,2-2V26A2,2,0,0,0,26,24ZM8,32V26H26v6Z"></path><rect x="20" y="28" width="2" height="2"></rect><rect x="16" y="28" width="2" height="2"></rect><rect x="12" y="28" width="2" height="2"></rect><path d="M11,44H7a1,1,0,0,0-1,1v4a1,1,0,0,0,1,1h4a1,1,0,0,0,1-1V45A1,1,0,0,0,11,44Zm-1,4H8V46h2Z"></path><path d="M11,36H7a1,1,0,0,0-1,1v4a1,1,0,0,0,1,1h4a1,1,0,0,0,1-1V37A1,1,0,0,0,11,36Zm-1,4H8V38h2Z"></path><path d="M19,36H15a1,1,0,0,0-1,1v4a1,1,0,0,0,1,1h4a1,1,0,0,0,1-1V37A1,1,0,0,0,19,36Zm-1,4H16V38h2Z"></path><path d="M27,36H23a1,1,0,0,0-1,1v4a1,1,0,0,0,1,1h4a1,1,0,0,0,1-1V37A1,1,0,0,0,27,36Zm-1,4H24V38h2Z"></path><path d="M19,44H15a1,1,0,0,0-1,1v4a1,1,0,0,0,1,1h4a1,1,0,0,0,1-1V45A1,1,0,0,0,19,44Zm-1,4H16V46h2Z"></path><path d="M27,44H23a1,1,0,0,0-1,1v4a1,1,0,0,0,1,1h4a1,1,0,0,0,1-1V45A1,1,0,0,0,27,44Zm-1,4H24V46h2Z"></path><path d="M11,52H7a1,1,0,0,0-1,1v4a1,1,0,0,0,1,1h4a1,1,0,0,0,1-1V53A1,1,0,0,0,11,52Zm-1,4H8V54h2Z"></path><path d="M19,52H15a1,1,0,0,0-1,1v4a1,1,0,0,0,1,1h4a1,1,0,0,0,1-1V53A1,1,0,0,0,19,52Zm-1,4H16V54h2Z"></path><path d="M27,52H23a1,1,0,0,0-1,1v4a1,1,0,0,0,1,1h4a1,1,0,0,0,1-1V53A1,1,0,0,0,27,52Zm-1,4H24V54h2Z"></path><path d="M57,2H17a5,5,0,0,0-5,5V20H5a3.009,3.009,0,0,0-3,3V59a3.009,3.009,0,0,0,3,3H57a5,5,0,0,0,5-5V7A5,5,0,0,0,57,2ZM49,5.61,54.75,12H50a1,1,0,0,1-1-1ZM30,59a1,1,0,0,1-1,1H5a1,1,0,0,1-1-1V23a1,1,0,0,1,1-1H29a1,1,0,0,1,1,1Zm26-2a3.009,3.009,0,0,1-3,3H31.82A3,3,0,0,0,32,59V52H51a1,1,0,0,0,1-1V21a1,1,0,0,0-1-1H14V7a3.009,3.009,0,0,1,3-3H47v7a3.009,3.009,0,0,0,3,3h6ZM44,46V30h6V46Zm6,2v2H44V48ZM32,28V23a3,3,0,0,0-.18-1H50v6Zm0,18V30H42V46Zm10,2v2H32V48Zm18,9a3.009,3.009,0,0,1-3,3h-.03A4.924,4.924,0,0,0,58,57V13a.971.971,0,0,0-.26-.67L50.25,4H57a3.009,3.009,0,0,1,3,3Z"></path><rect x="18" y="12" width="12" height="2"></rect><rect x="18" y="8" width="2" height="2"></rect><rect x="22" y="8" width="8" height="2"></rect></g></svg>