<svg xmlns="http://www.w3.org/2000/svg" viewBox="0 0 64 64" x="0px" y="0px"><g><path d="M46.92,60A7.006,7.006,0,0,0,40,54H33V48.3l2.6.7a7,7,0,0,0,8.573-4.949l1.035-3.864a1,1,0,0,0-.707-1.225l-3.863-1.035A7.006,7.006,0,0,0,33,40.826v-5.01A3,3,0,0,0,35,33V32H52a1,1,0,0,0,1-1V3a1,1,0,0,0-1-1H34a1,1,0,0,0-1,1V4H31V3a1,1,0,0,0-1-1H12a1,1,0,0,0-1,1V31a1,1,0,0,0,1,1H29v1a3,3,0,0,0,2,2.816v5.01a7.006,7.006,0,0,0-7.643-2.9l-3.863,1.035a1,1,0,0,0-.707,1.225l1.035,3.864A7,7,0,0,0,28.4,49L31,48.3V54H24a7.006,7.006,0,0,0-6.92,6H2v2H62V60ZM34,43.4a5,5,0,0,1,6.124-3.537l2.9.777-.776,2.9a5.008,5.008,0,0,1-6.124,3.535l-2.9-.776Zm-6.124,3.673a5.009,5.009,0,0,1-6.124-3.535l-.776-2.9,2.9-.777A5.01,5.01,0,0,1,30,43.4l.776,2.9ZM35,4H51V30H35ZM33,6V33a1,1,0,0,1-2,0V6ZM13,30V4H29V30ZM24,56H40a5.009,5.009,0,0,1,4.9,4H19.1A5.009,5.009,0,0,1,24,56Z"></path><path d="M9,35H28V33H10V5.028H8V34A1,1,0,0,0,9,35Z"></path><rect x="15" y="8" width="2" height="2"></rect><rect x="19" y="8" width="8" height="2"></rect><rect x="15" y="12" width="12" height="2"></rect><rect x="15" y="16" width="12" height="2"></rect><rect x="15" y="20" width="12" height="2"></rect><path d="M36,35H55a1,1,0,0,0,1-1V5.028H54V33H36Z"></path><rect x="43" y="8" width="6" height="2"></rect><rect x="37" y="8" width="4" height="2"></rect><rect x="37" y="12" width="12" height="2"></rect><rect x="37" y="16" width="12" height="2"></rect><rect x="37" y="20" width="12" height="2"></rect><rect x="15" y="24" width="12" height="2"></rect><rect x="37" y="24" width="12" height="2"></rect></g></svg>