<svg xmlns="http://www.w3.org/2000/svg" viewBox="0 0 64 64" x="0px" y="0px"><g data-name="Robot"><path d="M24,11a3,3,0,1,0,3,3A3,3,0,0,0,24,11Zm0,4a1,1,0,1,1,1-1A1,1,0,0,1,24,15Z"></path><path d="M40,11a3,3,0,1,0,3,3A3,3,0,0,0,40,11Zm0,4a1,1,0,1,1,1-1A1,1,0,0,1,40,15Z"></path><rect x="29" y="15" width="6" height="2"></rect><path d="M59,8V4H57V7.465L55,8.8,53,7.465V4H51V8a1,1,0,0,0,.445.832l1.5,1A2.965,2.965,0,0,0,52.78,14,2.981,2.981,0,0,0,52,16v9H45V23a1,1,0,0,0-1-1H36V20H46a1,1,0,0,0,1-1V9a1,1,0,0,0-1-1H44V6a1,1,0,0,0-1-1V2H41V5H39V2H37V5a1,1,0,0,0-1,1V8H28V6a1,1,0,0,0-1-1V2H25V5H23V2H21V5a1,1,0,0,0-1,1V8H18a1,1,0,0,0-1,1V19a1,1,0,0,0,1,1H28v2H20a1,1,0,0,0-1,1v2H12V16a2.981,2.981,0,0,0-.78-2,2.965,2.965,0,0,0-.161-4.171l1.5-1A1,1,0,0,0,13,8V4H11V7.465L9,8.8,7,7.465V4H5V8a1,1,0,0,0,.445.832l1.5,1A2.965,2.965,0,0,0,6.78,14,2.981,2.981,0,0,0,6,16v9.382A3.98,3.98,0,0,0,11.618,31H19V47a1,1,0,0,0,1,1h2v8H20a1,1,0,0,0-1,1v4a1,1,0,0,0,1,1H30a1,1,0,0,0,1-1V57a1,1,0,0,0-1-1V48h4v8a1,1,0,0,0-1,1v4a1,1,0,0,0,1,1H44a1,1,0,0,0,1-1V57a1,1,0,0,0-1-1H42V48h2a1,1,0,0,0,1-1V31h7.382A3.98,3.98,0,0,0,58,25.382V16a2.981,2.981,0,0,0-.78-2,2.965,2.965,0,0,0-.161-4.171l1.5-1A1,1,0,0,0,59,8ZM9,15a1,1,0,0,1,1,1v8.142A3.939,3.939,0,0,0,9,24a3.939,3.939,0,0,0-1,.142V16A1,1,0,0,1,9,15ZM8,12a1,1,0,1,1,1,1A1,1,0,0,1,8,12ZM9,30a2,2,0,1,1,2-2A2,2,0,0,1,9,30Zm3.858-1a3.592,3.592,0,0,0,0-2H19v2ZM38,7h4V8H38ZM22,7h4V8H22Zm-3,3H45v8H19ZM30,20h4v2H30ZM29,60H21V58h8Zm-1-4H24V48h4Zm15,4H35V58h8Zm-3-4H36V48h4Zm3-10H21V24H43ZM55,13a1,1,0,1,1,1-1A1,1,0,0,1,55,13Zm1,3v8.142a3.592,3.592,0,0,0-2,0V16a1,1,0,0,1,2,0ZM45,27h6.142a3.592,3.592,0,0,0,0,2H45Zm10,3a2,2,0,1,1,2-2A2,2,0,0,1,55,30Z"></path><path d="M27,39a1,1,0,0,0,1,1h1v2h2V40h2v2h2V38.416L35.415,38H39V36H37V34h2V32H37V31a1,1,0,0,0-1-1H35V28H33v2H31V28H29v2H28a1,1,0,0,0-1,1v1H25v2h2v2H25v2h2Zm2-7h6v3.586L32.588,38H29Z"></path><rect x="31" y="34" width="2" height="2"></rect></g></svg>