<svg xmlns="http://www.w3.org/2000/svg" viewBox="0 0 64 64" x="0px" y="0px"><g><path d="M62,31V27a1,1,0,0,0-1-1H59V24.82a3,3,0,1,0-2,0V26H55a1,1,0,0,0-1,1v4a1,1,0,0,0,1,1v5H53V35H51v2H48V35H46v2H43V33H41v3.94a8.923,8.923,0,0,1-3-.89V31H36v3.69A8.955,8.955,0,0,1,33,28H31a8.955,8.955,0,0,1-3,6.69V31H26v5.05a8.923,8.923,0,0,1-3,.89V33H21v4H18V35H16v2H13V35H11v2H9V32a1,1,0,0,0,1-1V27a1,1,0,0,0-1-1H7V24.82a3,3,0,1,0-2,0V26H3a1,1,0,0,0-1,1v4a1,1,0,0,0,1,1V58H2v2H62V58H61V32A1,1,0,0,0,62,31ZM48,39h3v2H48Zm0,4h3v7H48Zm0,9h3v2H48ZM43,39h3v2H43Zm0,4h3v7H43Zm0,9h3v2H43ZM38,38.24a11.05,11.05,0,0,0,3,.71v2a13.06,13.06,0,0,1-3-.58Zm0,4.21a14.923,14.923,0,0,0,3,.5V50H38ZM38,52h3v2H38ZM33,34.3a11.078,11.078,0,0,0,3,2.91v2.32a13.175,13.175,0,0,1-3-2.17Zm0,5.68a15.659,15.659,0,0,0,3,1.77V42H33Zm-5-2.77a11.078,11.078,0,0,0,3-2.91v3.06a13.175,13.175,0,0,1-3,2.17Zm0,4.54a15.659,15.659,0,0,0,3-1.77V42H28ZM28,44h8v2H28Zm5,6V48h3v2Zm3,2v2H33V52Zm-8-4h3v2H28Zm0,4h3v2H28ZM23,38.95a11.05,11.05,0,0,0,3-.71v2.13a13.06,13.06,0,0,1-3,.58Zm0,4a14.923,14.923,0,0,0,3-.5V50H23ZM23,52h3v2H23ZM18,39h3v2H18Zm0,4h3v7H18Zm0,9h3v2H18ZM13,39h3v2H13Zm0,4h3v7H13Zm0,9h3v2H13ZM9,39h2v2H9Zm0,4h2v7H9Zm0,9h2v2H9ZM6,21a1,1,0,1,1-1,1A1,1,0,0,1,6,21ZM7,58H5V32H7ZM8,30H4V28H8ZM55,58H9V56H55Zm0-4H53V52h2Zm0-4H53V43h2Zm0-9H53V39h2Zm3-20a1,1,0,1,1-1,1A1,1,0,0,1,58,21Zm1,37H57V32h2Zm1-28H56V28h4Z"></path><path d="M29.879,18.879l1.414,1.414a1,1,0,0,1,1.414,0l1.414-1.414A3,3,0,0,0,29.879,18.879Z"></path><path d="M27.051,16.05l1.414,1.414a5,5,0,0,1,7.07,0l1.414-1.414a7,7,0,0,0-9.9,0Z"></path><path d="M38.364,14.636l1.414-1.414a11.012,11.012,0,0,0-15.556,0l1.414,1.414A9.01,9.01,0,0,1,38.364,14.636Z"></path><path d="M32,26A11,11,0,1,0,21,15,11.013,11.013,0,0,0,32,26ZM32,6a9,9,0,1,1-9,9A9.01,9.01,0,0,1,32,6Z"></path></g></svg>