<svg xmlns="http://www.w3.org/2000/svg" viewBox="0 0 64 64" x="0px" y="0px"><g data-name="Shopper-Man-Ecommerce-Shopping Bag-Payment"><path d="M37,18h1.86A4.017,4.017,0,0,0,36,15.14V17A1,1,0,0,0,37,18Z"></path><circle cx="48" cy="11" r="2"></circle><path d="M60,17V15.14A4.017,4.017,0,0,0,57.14,18H59A1,1,0,0,0,60,17Z"></path><path d="M36,6.86A4.017,4.017,0,0,0,38.86,4H37a1,1,0,0,0-1,1Z"></path><path d="M60,13.09V8.91A5.992,5.992,0,0,1,55.09,4H40.91A5.992,5.992,0,0,1,36,8.91v4.18A5.992,5.992,0,0,1,40.91,18H55.09A5.992,5.992,0,0,1,60,13.09ZM48,15a4,4,0,1,1,4-4A4,4,0,0,1,48,15Z"></path><path d="M60,6.86V5a1,1,0,0,0-1-1H57.14A4.017,4.017,0,0,0,60,6.86Z"></path><path d="M14.62,35h6.34a7,7,0,0,0-3.49-5.43l-2.81-1.61-5.38-.9-2.4,1.92a5.09,5.09,0,0,0-1.39,1.77l2.5,5,3.73-2.07-1.61-3.23,1.78-.9Z"></path><path d="M5,60H16V54a1.033,1.033,0,0,1,.29-.71l1.99-1.99,1.42,1.42L18,54.41V60h3V50H5Z"></path><path d="M9,10a2.006,2.006,0,0,1,2-2h7a3.009,3.009,0,0,0,3-3V4H12A5,5,0,0,0,7,9v2H8A1,1,0,0,0,9,10Z"></path><path d="M59,24H37a1,1,0,0,0-1,1V37H34a1,1,0,0,1-1-1V35a1,1,0,0,0-1-1,.928.928,0,0,0-.69.29A.949.949,0,0,0,31,35v1a1,1,0,0,1-1,1H14.41l-1.7,1.71-1.42-1.42,1.49-1.49-.16-.33L8.89,37.54,10.62,41H37V38H59a1,1,0,0,0,1-1V25A1,1,0,0,0,59,24Zm-7,2h2v2H52ZM40,36H38V34h2Zm4,0H42V34h2Zm1-4H39a1,1,0,0,1-1-1V27a1,1,0,0,1,1-1h6a1,1,0,0,1,1,1v4A1,1,0,0,1,45,32Zm3,4H46V34h2Zm0-10h2v2H48Zm7,10H53a3,3,0,0,1,0-6h2a3,3,0,0,1,0,6Zm3-8H56V26h2Z"></path><path d="M55,32H53a1,1,0,0,0,0,2h2a1,1,0,0,0,0-2Z"></path><rect x="40" y="28" width="4" height="2"></rect><path d="M9.11,42.45,5,34.24V48H21V43H10A.988.988,0,0,1,9.11,42.45Z"></path><path d="M10,22.24v2.91l4,.67V23.93A7.9,7.9,0,0,1,10,22.24Z"></path><path d="M19,10H11a3.009,3.009,0,0,1-3,3H7a2.015,2.015,0,0,0-2,2,2.006,2.006,0,0,0,2,2H8.29a1.008,1.008,0,0,1,.96.71,5.811,5.811,0,0,0,.6,1.37,5.682,5.682,0,0,0,.91,1.16A5.928,5.928,0,0,0,15,22a6,6,0,0,0,4.46-2H18.24a2.988,2.988,0,0,1-2.68-1.66l-.45-.89,1.78-.9.45.89a1,1,0,0,0,.9.56h2.41A6.049,6.049,0,0,0,21,16V12A2.006,2.006,0,0,0,19,10Zm0,4H17V12h2Z"></path><polygon points="40.07 47 38 47 38 49 36 49 36 47 32 47 32 49 30 49 30 47 27.93 47 27.07 59 40.93 59 40.07 47"></polygon><rect x="30" y="41" width="2" height="6"></rect><rect x="36" y="38" width="2" height="9"></rect></g></svg>