<svg xmlns="http://www.w3.org/2000/svg" viewBox="0 0 64 64" x="0px" y="0px"><g data-name="Credit card-Payment-Smartphone"><path d="M57,24H51.97A19.932,19.932,0,0,0,42,16.939V7a5.006,5.006,0,0,0-5-5H9A5.006,5.006,0,0,0,4,7V57a5.006,5.006,0,0,0,5,5H37a5.006,5.006,0,0,0,5-5V55.06A19.923,19.923,0,0,0,51.97,48H57a3,3,0,0,0,3-3V27A3,3,0,0,0,57,24ZM16,4H30V6a1,1,0,0,1-1,1H17a1,1,0,0,1-1-1ZM37,60H9a3,3,0,0,1-3-3V7A3,3,0,0,1,9,4h5V6a3,3,0,0,0,3,3H29a3,3,0,0,0,3-3V4h5a3,3,0,0,1,3,3v9.4A20,20,0,1,0,40,55.6V57A3,3,0,0,1,37,60Zm3.734-6.634A17.835,17.835,0,0,1,36,54,18.006,18.006,0,1,1,49.388,24H27a3,3,0,0,0-3,3V45a3,3,0,0,0,3,3H49.388A17.913,17.913,0,0,1,40.734,53.366ZM58,45a1,1,0,0,1-1,1H27a1,1,0,0,1-1-1V27a1,1,0,0,1,1-1H57a1,1,0,0,1,1,1Z"></path><path d="M53,28a2.959,2.959,0,0,0-1.493.421A2.965,2.965,0,0,0,50,28a3,3,0,0,0,0,6,2.965,2.965,0,0,0,1.507-.421A2.959,2.959,0,0,0,53,34a3,3,0,0,0,0-6Zm-3,4a1,1,0,1,1,1-1A1,1,0,0,1,50,32Zm3,0a.928.928,0,0,1-.172-.038,2.776,2.776,0,0,0,0-1.924A.928.928,0,0,1,53,30a1,1,0,0,1,0,2Z"></path><path d="M29,34h6a1,1,0,0,0,1-1V29a1,1,0,0,0-1-1H29a1,1,0,0,0-1,1v4A1,1,0,0,0,29,34Zm1-4h4v2H30Z"></path><rect x="28" y="42" width="8" height="2"></rect><rect x="38" y="42" width="4" height="2"></rect><rect x="44" y="42" width="6" height="2"></rect><rect x="28" y="38" width="2" height="2"></rect><rect x="32" y="38" width="2" height="2"></rect><rect x="36" y="38" width="2" height="2"></rect><rect x="40" y="38" width="2" height="2"></rect><rect x="44" y="38" width="2" height="2"></rect><rect x="48" y="38" width="2" height="2"></rect><polygon points="51 10 53 10 53 8 55 8 55 6 53 6 53 4 51 4 51 6 49 6 49 8 51 8 51 10"></polygon><rect x="44" y="12" width="6" height="2"></rect><rect x="49" y="16" width="6" height="2"></rect><polygon points="51 54 49 54 49 56 47 56 47 58 49 58 49 60 51 60 51 58 53 58 53 56 51 56 51 54"></polygon><rect x="16" y="11" width="2" height="2"></rect><rect x="20" y="11" width="2" height="2"></rect><rect x="24" y="11" width="2" height="2"></rect><rect x="28" y="11" width="2" height="2"></rect><rect x="20.216" y="17.381" width="2.001" height="2" transform="translate(-6.851 17.932) rotate(-39.988)"></rect><rect x="17.381" y="20.216" width="2" height="2" transform="translate(-9.686 21.665) rotate(-50.012)"></rect><rect x="15.082" y="23.5" width="1.999" height="1.999" transform="translate(-13.177 26.173) rotate(-59.991)"></rect><rect x="13.387" y="27.133" width="2" height="2" transform="translate(-16.97 32.033) rotate(-70.004)"></rect><rect x="12.349" y="31.006" width="2" height="2" transform="translate(-20.488 39.597) rotate(-80.004)"></rect><rect x="12" y="35" width="2" height="2"></rect><rect x="12.349" y="38.994" width="2" height="2" transform="translate(-6.739 2.924) rotate(-9.996)"></rect><rect x="13.387" y="42.866" width="2" height="2" transform="translate(-14.133 7.564) rotate(-19.996)"></rect><rect x="15.082" y="46.5" width="1.999" height="1.999" transform="translate(-21.6 14.41) rotate(-30.009)"></rect><rect x="17.381" y="49.784" width="2" height="2" transform="translate(-28.337 23.687) rotate(-39.988)"></rect><rect x="20.216" y="52.619" width="2" height="2.001" transform="translate(-33.506 35.434) rotate(-50.03)"></rect><rect x="23.5" y="54.919" width="2" height="2" transform="translate(-36.178 49.183) rotate(-60.005)"></rect></g></svg>