<svg xmlns="http://www.w3.org/2000/svg" viewBox="0 0 64 64" x="0px" y="0px"><g data-name="Time To Work"><path d="M60,12H4V57a3,3,0,0,0,3,3H57a3,3,0,0,0,3-3ZM53,54a3,3,0,0,1-3,3H14a3,3,0,0,1-3-3V18a3,3,0,0,1,3-3H50a3,3,0,0,1,3,3Z"></path><path d="M50,17H14a1,1,0,0,0-1,1V54a1,1,0,0,0,1,1H50a1,1,0,0,0,1-1V18A1,1,0,0,0,50,17Zm-3.777,9.634,1,1.732-1.733,1-1-1.732ZM31,19h2v4H31Zm-6.634,1.777,1,1.733-1.732,1-1-1.733ZM15,35h4v2H15Zm2.777,10.366-1-1.732,1.733-1,1,1.732Zm.733-16-1.733-1,1-1.732,1.733,1Zm5.856,21.857-1.732-1,1-1.733,1.732,1ZM33,53H31V49h2ZM32,39a2.951,2.951,0,0,1-1.285-.3l-4.008,4.008-1.414-1.414L29.3,37.285A2.951,2.951,0,0,1,29,36a3,3,0,0,1,2-2.816V26h2v7.184A2.993,2.993,0,0,1,32,39Zm7.634,12.223-1-1.733,1.732-1,1,1.733Zm.732-27.713-1.732-1,1-1.733,1.732,1Zm5.857,21.856-1.733-1,1-1.732,1.733,1ZM49,37H45V35h4Z"></path><circle cx="32" cy="36" r="1"></circle><path d="M60,7a3,3,0,0,0-3-3H7A3,3,0,0,0,4,7v3H60ZM10,8H8V6h2Zm4,0H12V6h2Zm4,0H16V6h2Z"></path></g></svg>