<svg xmlns="http://www.w3.org/2000/svg" viewBox="0 0 64 64" x="0px" y="0px"><g><path d="M46,2H18a6.006,6.006,0,0,0-6,6V56a6.006,6.006,0,0,0,6,6H46a6.006,6.006,0,0,0,6-6V8A6.006,6.006,0,0,0,46,2Zm4,54a4,4,0,0,1-4,4H18a4,4,0,0,1-4-4V8a4,4,0,0,1,4-4H46a4,4,0,0,1,4,4Z"></path><path d="M34,52H30a3,3,0,0,0,0,6h4a3,3,0,0,0,0-6Zm0,4H30a1,1,0,0,1,0-2h4a1,1,0,0,1,0,2Z"></path><rect x="25" y="6" width="2" height="2"></rect><rect x="29" y="6" width="6" height="2"></rect><rect x="23" y="29" width="2" height="2"></rect><rect x="27" y="30" width="2" height="2"></rect><rect x="23" y="36" width="2" height="2"></rect><rect x="27" y="37" width="2" height="2"></rect><rect x="26" y="22" width="12" height="2"></rect><path d="M32,17c-6.841,0-12,2.579-12,6V37c0,3.421,5.159,6,12,6s12-2.579,12-6V23C44,19.579,38.841,17,32,17Zm0,24c-5.724,0-10-2.111-10-4V33.406C24.114,34.994,27.729,36,32,36s7.886-1.006,10-2.594V37C42,38.889,37.724,41,32,41Zm0-7c-5.724,0-10-2.111-10-4V26.406C24.114,27.994,27.729,29,32,29s7.886-1.006,10-2.594V30C42,31.889,37.724,34,32,34Zm0-7c-5.724,0-10-2.111-10-4s4.276-4,10-4,10,2.111,10,4S37.724,27,32,27Z"></path></g></svg>