<svg xmlns="http://www.w3.org/2000/svg" viewBox="0 0 64 64" x="0px" y="0px"><g data-name="Shopping-Smartphone-Application-Online Shopping-Shopping Bag"><path d="M46,44a1,1,0,0,0,1,1H59a1,1,0,0,0,1-1V43H46Z"></path><path d="M44,24a5,5,0,0,0-10,0v1H44Z"></path><rect x="46" y="27" width="2" height="1"></rect><path d="M30,44a1,1,0,0,0,1,1H44.18A3,3,0,0,1,44,44V43H30Z"></path><polygon points="30 27 30 41 44 41 44 27 34 27 34 30 32 30 32 27 30 27"></polygon><path d="M14,10H50V8a4,4,0,0,0-4-4H18a4,4,0,0,0-4,4ZM29,6h6V8H29ZM25,6h2V8H25Z"></path><path d="M50,12V26a1,1,0,0,0-1-1H46V24a7,7,0,0,0-14,0v1H30V20a3.009,3.009,0,0,0-3-3H14V12Z"></path><rect x="8" y="23" width="4" height="2"></rect><path d="M46,41H60V30H46Zm2-9h2v2a3,3,0,0,0,6,0V32h2v2a5,5,0,0,1-10,0Z"></path><path d="M50,54H14v2a4,4,0,0,0,4,4H46a4,4,0,0,0,4-4ZM33,58H31V56h2Z"></path><path d="M28,32V20a1,1,0,0,0-1-1H5a1,1,0,0,0-1,1V32a1,1,0,0,0,1,1H27A1,1,0,0,0,28,32ZM20,21h2v2H20ZM8,31H6V29H8Zm4,0H10V29h2Zm1-4H7a1,1,0,0,1-1-1V22a1,1,0,0,1,1-1h6a1,1,0,0,1,1,1v4A1,1,0,0,1,13,27Zm3,4H14V29h2Zm0-10h2v2H16Zm7,10H21a3,3,0,0,1,0-6h2a3,3,0,0,1,0,6Zm3-8H24V21h2Z"></path><path d="M50,47v5H14V35H27a3,3,0,0,0,1-.18V44a3.009,3.009,0,0,0,3,3Z"></path><path d="M23,27H21a1,1,0,0,0,0,2h2a1,1,0,0,0,0-2Z"></path></g></svg>