<svg xmlns="http://www.w3.org/2000/svg" viewBox="0 0 64 64" x="0px" y="0px"><g><path d="M59,51a3.009,3.009,0,0,0,3-3V37.83a3,3,0,0,0-.88-2.13L49.3,23.88A3,3,0,0,0,47.17,23H45V22a3,3,0,0,0-6,0v1H15a5,5,0,0,0-5,5V48a3.009,3.009,0,0,0,3,3h2.08a6.968,6.968,0,0,0,2.03,4H2v2H62V55H54.89a6.968,6.968,0,0,0,2.03-4Zm.7-13.88a1,1,0,0,1,.3.71V39H47V29h4.59ZM41,22a1,1,0,0,1,2,0v1H41ZM22,55a5,5,0,1,1,5-5A5,5,0,0,1,22,55Zm4.89,0a6.968,6.968,0,0,0,2.03-4H43.08a6.968,6.968,0,0,0,2.03,4ZM50,55a5,5,0,1,1,5-5A5,5,0,0,1,50,55Zm0-12a7,7,0,0,0-6.92,6H28.92a6.991,6.991,0,0,0-13.84,0H13a1,1,0,0,1-1-1V28a3.009,3.009,0,0,1,3-3H47.17a1,1,0,0,1,.71.3L49.59,27H47a2.006,2.006,0,0,0-2,2V39a2.006,2.006,0,0,0,2,2H60v7a1,1,0,0,1-1,1H56.92A7,7,0,0,0,50,43Z"></path><rect x="2" y="46" width="5" height="2"></rect><rect x="4" y="42" width="3" height="2"></rect><rect x="5" y="38" width="2" height="2"></rect><rect x="16" y="17" width="16" height="2"></rect><rect x="12" y="17" width="2" height="2"></rect><rect x="10" y="13" width="18" height="2"></rect><rect x="6" y="13" width="2" height="2"></rect><path d="M22,47a3,3,0,1,0,3,3A3,3,0,0,0,22,47Zm0,4a1,1,0,1,1,1-1A1,1,0,0,1,22,51Z"></path><path d="M50,47a3,3,0,1,0,3,3A3,3,0,0,0,50,47Zm0,4a1,1,0,1,1,1-1A1,1,0,0,1,50,51Z"></path><path d="M23,38h3v3a1,1,0,0,0,1,1h4a1,1,0,0,0,1-1V38h3a1,1,0,0,0,1-1V33a1,1,0,0,0-1-1H32V29a1,1,0,0,0-1-1H27a1,1,0,0,0-1,1v3H23a1,1,0,0,0-1,1v4A1,1,0,0,0,23,38Zm1-4h3a1,1,0,0,0,1-1V30h2v3a1,1,0,0,0,1,1h3v2H31a1,1,0,0,0-1,1v3H28V37a1,1,0,0,0-1-1H24Z"></path><rect x="41" y="13" width="2" height="4"></rect><rect x="45.379" y="15.5" width="4.243" height="2" transform="translate(2.245 38.42) rotate(-45)"></rect><rect x="35.5" y="14.379" width="2" height="4.243" transform="translate(-0.977 30.642) rotate(-45)"></rect></g></svg>