<svg xmlns="http://www.w3.org/2000/svg" viewBox="0 0 64 64" x="0px" y="0px"><g><path d="M35,32a3,3,0,1,0-3,3A3,3,0,0,0,35,32Zm-3,1a1,1,0,1,1,1-1A1,1,0,0,1,32,33Z"></path><path d="M54.28,41.4l-15.3-8.838c.014-.184.025-.37.025-.565A7,7,0,0,0,37.265,27.4,16.531,16.531,0,0,0,39,20c0-6.8-4.29-13-9-13a1,1,0,0,0-1,1V25.691a7.018,7.018,0,0,0-3.62,4.056,16.517,16.517,0,0,0-7.271,2.188c-.037.021-.072.046-.109.068v0a14,14,0,0,1,7.328-12.311l-.955-1.757A16,16,0,0,0,16,32c0,.446.031.885.067,1.322a16.259,16.259,0,0,0-2.645,2.638,18.98,18.98,0,0,1,11.83-21.728l-.71-1.869a21.013,21.013,0,0,0-12.6,25.864c-.106.2-.218.4-.314.6-1.295,2.768-1.395,5.466-.275,7.4a1,1,0,0,0,1.366.366l2.8-1.619A20.965,20.965,0,0,0,42.5,50.19l-1-1.73a18.988,18.988,0,0,1-24.235-4.488l2.644-1.526A15.978,15.978,0,0,0,37.247,47.12l-.655-1.891a13.967,13.967,0,0,1-14.915-3.8l6.37-3.679A6.974,6.974,0,0,0,32,39a7.112,7.112,0,0,0,1.36-.148,16.573,16.573,0,0,0,5.531,5.214,16.2,16.2,0,0,0,8.014,2.213c.4,0,.8-.016,1.2-.05,3.045-.263,5.431-1.524,6.547-3.46A1,1,0,0,0,54.28,41.4ZM31,9.146c2.964.846,6,5.29,6,10.854a14.608,14.608,0,0,1-1.3,6.056l0,0a6.822,6.822,0,0,0-.76-.4c-.064-.03-.128-.058-.192-.086a7.075,7.075,0,0,0-.8-.291l-.01,0a6.871,6.871,0,0,0-.846-.179q-.106-.017-.213-.03A7.066,7.066,0,0,0,32,25a6.925,6.925,0,0,0-1,.072ZM12.715,44.29a6.447,6.447,0,0,1,.267-3.441,21,21,0,0,0,1.372,2.494Zm3.369-1.946A18.95,18.95,0,0,1,14.14,38.42a13.872,13.872,0,0,1,2.3-2.769,15.934,15.934,0,0,0,2.242,5.195Zm4.328-2.5a13.9,13.9,0,0,1-2.215-5.6q.445-.3.912-.574A14.606,14.606,0,0,1,25,31.771c0,.077,0,.153,0,.229a6.956,6.956,0,0,0,.088,1.043c.012.081.024.16.039.24a7.074,7.074,0,0,0,.254.987c.013.038.031.074.045.112a6.917,6.917,0,0,0,.377.849c.036.069.07.138.108.206a7.089,7.089,0,0,0,.557.842c.012.016.02.034.032.05ZM28.751,35.8A5.012,5.012,0,0,1,27,32a4.925,4.925,0,0,1,.118-1.069,5,5,0,0,1,3.224-3.642,4.817,4.817,0,0,1,.721-.192c.112-.021.225-.032.338-.045.128-.016.257-.028.388-.034s.277,0,.415,0,.246.02.369.034a5.079,5.079,0,0,1,.836.17c.084.024.169.042.251.071.136.047.266.108.4.166s.259.122.384.193c.1.053.193.108.286.168a4.856,4.856,0,0,1,.641.49A4.994,4.994,0,0,1,37,32a4.658,4.658,0,0,1-.083.915A5,5,0,0,1,28.751,35.8Zm19.177,8.435a14.09,14.09,0,0,1-8.035-1.9,14.673,14.673,0,0,1-4.586-4.163c.064-.035.118-.083.181-.119a7,7,0,0,0,.672-.441c.091-.067.182-.133.269-.2a7.068,7.068,0,0,0,.724-.681c.024-.026.052-.048.075-.075a7.036,7.036,0,0,0,.665-.888c.051-.08.093-.163.141-.244a7.009,7.009,0,0,0,.384-.759c.024-.056.059-.105.082-.161l13.785,7.96A7.245,7.245,0,0,1,47.928,44.236Z"></path><path d="M32,2A30,30,0,1,0,62,32,30.034,30.034,0,0,0,32,2Zm0,58A28,28,0,1,1,60,32,28.032,28.032,0,0,1,32,60Z"></path><path d="M51,32a19.177,19.177,0,0,1-.386,3.83l1.96.4A21.037,21.037,0,0,0,42.5,13.81l-1,1.73A19.076,19.076,0,0,1,51,32Z"></path><path d="M46,32h2a16.021,16.021,0,0,0-5.333-11.926l-1.334,1.49A14.021,14.021,0,0,1,46,32Z"></path></g></svg>