<svg xmlns="http://www.w3.org/2000/svg" viewBox="0 0 64 64" x="0px" y="0px"><g data-name="Online Shopping"><path d="M55,17V44H9V17a1,1,0,0,1,1-1h1V37a3.009,3.009,0,0,0,3,3H32a2.943,2.943,0,0,0,.98-.19A2.887,2.887,0,0,0,34,40H50a3.009,3.009,0,0,0,3-3V19a1,1,0,0,0-1-1H47V16h7A1,1,0,0,1,55,17Z"></path><path d="M33,14v4H32a1,1,0,0,0-1,1V34H13V14h3v5h2V14H28v5h2V14Z"></path><rect x="35" y="16" width="2" height="2"></rect><path d="M34,38H50a1,1,0,0,0,1-1V36H33v1A1,1,0,0,0,34,38Z"></path><path d="M13,36v1a1,1,0,0,0,1,1H31.184A2.966,2.966,0,0,1,31,37V36Z"></path><rect x="39" y="16" width="6" height="2"></rect><polygon points="26.618 54 25.618 56 38.382 56 37.382 54 26.618 54"></polygon><rect x="4" y="58" width="56" height="2"></rect><path d="M55.33,46H8.67L4.5,56H23.38l1.73-3.45A.988.988,0,0,1,26,52H38a.988.988,0,0,1,.89.55L40.62,56H59.5ZM19,48h2v2H19Zm-7,6H10V52h2Zm1-4H11V48h2Zm3,4H14V52h2Zm1-4H15V48h2Zm5,4H18V52h4Zm3-4H23V48h2Zm4,0H27V48h2Zm4,0H31V48h2Zm4,0H35V48h2Zm6-2h2v2H43Zm-2,2H39V48h2Zm5,4H42V52h4Zm1-6h2v2H47Zm3,6H48V52h2Zm1-6h2v2H51Zm3,6H52V52h2Z"></path><polygon points="51 20 47 20 47 24 45 24 45 20 39 20 39 24 37 24 37 20 33 20 33 34 51 34 51 20"></polygon><path d="M30,14H28V9A5,5,0,0,0,18,9v5H16V9A7,7,0,0,1,30,9Z"></path><path d="M47,16H45V14a3,3,0,0,0-6,0v2H37V14a5,5,0,0,1,10,0Z"></path></g></svg>