<svg xmlns="http://www.w3.org/2000/svg" viewBox="0 0 48 48" x="0px" y="0px"><title>Gift Box</title><g data-name="Gift Box"><path d="M45,8H40V3.361A3,3,0,0,0,36.507.4L26.835,2.014a.969.969,0,0,0-.242.086A1.971,1.971,0,0,0,26,2H22a1.971,1.971,0,0,0-.593.1.969.969,0,0,0-.242-.086L11.493.4A3,3,0,0,0,8,3.361V8H3a3,3,0,0,0-3,3v6a3,3,0,0,0,2,2.816V43a5.006,5.006,0,0,0,5,5H41a5.006,5.006,0,0,0,5-5V19.816A3,3,0,0,0,48,17V11A3,3,0,0,0,45,8ZM28,3.847l8.836-1.472A1,1,0,0,1,38,3.361V8H28V3.847ZM26,4V8H22V4ZM10,3.361a.982.982,0,0,1,.354-.763.993.993,0,0,1,.81-.223L20,3.847V8H10ZM46,17a1,1,0,0,1-1,1H15a1,1,0,0,0,0,2H44V43a3,3,0,0,1-3,3H7a3,3,0,0,1-3-3V20H5a1,1,0,0,0,0-2H3a1,1,0,0,1-1-1V11a1,1,0,0,1,1-1H45a1,1,0,0,1,1,1Z"></path><path d="M11,18H9a1,1,0,0,0,0,2h2a1,1,0,0,0,0-2Z"></path></g></svg>