<svg xmlns="http://www.w3.org/2000/svg" viewBox="0 0 64 64" x="0px" y="0px"><g><path d="M61,48H59V17a5.006,5.006,0,0,0-5-5H10a5.006,5.006,0,0,0-5,5V48H3a1,1,0,0,0-1,1v4a3,3,0,0,0,3,3H59a3,3,0,0,0,3-3V49A1,1,0,0,0,61,48ZM7,17a3,3,0,0,1,3-3H54a3,3,0,0,1,3,3V48H7ZM60,53a1,1,0,0,1-1,1H5a1,1,0,0,1-1-1V50H60Z"></path><rect x="28" y="51" width="8" height="2"></rect><path d="M49.142,31.01l-3.907-.558a14,14,0,0,0-.657-1.6L46.942,25.7a1,1,0,0,0-.092-1.307l-4.244-4.243a1,1,0,0,0-1.306-.093l-3.154,2.364a13.905,13.905,0,0,0-1.6-.657l-.558-3.906A1,1,0,0,0,35,17H29a1,1,0,0,0-.99.859l-.558,3.906a13.905,13.905,0,0,0-1.6.657L22.7,20.058a1,1,0,0,0-1.306.093L17.15,24.394a1,1,0,0,0-.092,1.307l2.364,3.152a14,14,0,0,0-.657,1.6l-3.907.558A1,1,0,0,0,14,32v3h2V32.867l3.67-.524a1,1,0,0,0,.818-.71,11.939,11.939,0,0,1,.987-2.4,1,1,0,0,0-.077-1.081l-2.22-2.961,3.016-3.016,2.961,2.22a1,1,0,0,0,1.081.077,12,12,0,0,1,2.4-.987,1,1,0,0,0,.71-.819L29.867,19h4.266l.523,3.669a1,1,0,0,0,.71.819,12,12,0,0,1,2.4.987,1,1,0,0,0,1.081-.077l2.961-2.22,3.016,3.016L42.6,28.155a1,1,0,0,0-.077,1.081,11.939,11.939,0,0,1,.987,2.4,1,1,0,0,0,.818.71l3.67.524V35h2V32A1,1,0,0,0,49.142,31.01Z"></path><rect x="31" y="21" width="2" height="2"></rect><rect x="21.808" y="24.808" width="2" height="2" transform="translate(-11.569 23.686) rotate(-45)"></rect><rect x="18" y="34" width="2" height="2"></rect><rect x="44" y="34" width="2" height="2"></rect><rect x="40.192" y="24.808" width="2" height="2" transform="translate(-6.184 36.686) rotate(-45)"></rect><path d="M25,35h2a5,5,0,0,1,10,0h2a7,7,0,0,0-14,0Z"></path><path d="M46.316,39.051l-3-1A1,1,0,0,0,43,38H16a1,1,0,0,0-1,1v4a1,1,0,0,0,1,1H43a1,1,0,0,0,.316-.051l3-1A1,1,0,0,0,47,42h2V40H47A1,1,0,0,0,46.316,39.051ZM17,40h2v2H17Zm28,1.279L42.838,42H21V40H42.838L45,40.721Z"></path></g></svg>