<svg xmlns="http://www.w3.org/2000/svg" viewBox="0 0 64 64" x="0px" y="0px"><g><path d="M23,50h3V42.45a14.923,14.923,0,0,1-3,.5Z"></path><path d="M26,38.24a11.05,11.05,0,0,1-3,.71v2a13.06,13.06,0,0,0,3-.58Z"></path><rect x="18" y="52" width="3" height="2"></rect><rect x="18" y="39" width="3" height="2"></rect><rect x="28" y="48" width="3" height="2"></rect><rect x="33" y="48" width="3" height="2"></rect><rect x="23" y="52" width="3" height="2"></rect><rect x="33" y="52" width="3" height="2"></rect><rect x="28" y="52" width="3" height="2"></rect><rect x="18" y="43" width="3" height="7"></rect><rect x="13" y="52" width="3" height="2"></rect><rect x="9" y="43" width="2" height="7"></rect><rect x="5" y="32" width="2" height="26"></rect><rect x="4" y="28" width="4" height="2"></rect><rect x="9" y="39" width="2" height="2"></rect><rect x="9" y="52" width="2" height="2"></rect><rect x="13" y="43" width="3" height="7"></rect><rect x="13" y="39" width="3" height="2"></rect><rect x="9" y="56" width="46" height="2"></rect><path d="M28,37.21v2.32a13.175,13.175,0,0,0,3-2.17V34.3A11.078,11.078,0,0,1,28,37.21Z"></path><rect x="48" y="52" width="3" height="2"></rect><rect x="53" y="52" width="2" height="2"></rect><rect x="53" y="39" width="2" height="2"></rect><rect x="56" y="28" width="4" height="2"></rect><rect x="53" y="43" width="2" height="7"></rect><rect x="28" y="44" width="8" height="2"></rect><rect x="57" y="32" width="2" height="26"></rect><path d="M28,41.75V42h3V39.98A15.659,15.659,0,0,1,28,41.75Z"></path><path d="M36,41.75a15.659,15.659,0,0,1-3-1.77V42h3Z"></path><rect x="48" y="43" width="3" height="7"></rect><rect x="38" y="52" width="3" height="2"></rect><path d="M41,38.95a11.05,11.05,0,0,1-3-.71v2.13a13.06,13.06,0,0,0,3,.58Z"></path><path d="M38,50h3V42.95a14.923,14.923,0,0,1-3-.5Z"></path><rect x="43" y="43" width="3" height="7"></rect><rect x="43" y="52" width="3" height="2"></rect><rect x="43" y="39" width="3" height="2"></rect><path d="M33,34.3v3.06a13.175,13.175,0,0,0,3,2.17V37.21A11.078,11.078,0,0,1,33,34.3Z"></path><rect x="48" y="39" width="3" height="2"></rect><path d="M32,6a9,9,0,1,0,9,9A9.01,9.01,0,0,0,32,6Zm.707,14.293a1,1,0,0,0-1.414,0l-1.414-1.414a3,3,0,0,1,4.242,0Zm2.828-2.829a5,5,0,0,0-7.07,0L27.051,16.05a7,7,0,0,1,9.9,0Zm-9.9-2.828-1.414-1.414a11.012,11.012,0,0,1,15.556,0l-1.414,1.414A9.01,9.01,0,0,0,25.636,14.636Z"></path><path d="M8,22a2,2,0,1,0-3,1.721V26H7V23.721A2,2,0,0,0,8,22Z"></path><path d="M60,22a2,2,0,1,0-3,1.721V26h2V23.721A2,2,0,0,0,60,22Z"></path><rect x="36" y="31" width="2" height="6"></rect><rect x="41" y="33" width="2" height="6"></rect><rect x="46" y="35" width="2" height="4"></rect><rect x="51" y="35" width="2" height="4"></rect><rect x="26" y="31" width="2" height="6"></rect><rect x="31" y="28" width="2" height="6"></rect><rect x="21" y="33" width="2" height="6"></rect><rect x="16" y="35" width="2" height="4"></rect><rect x="11" y="35" width="2" height="4"></rect></g></svg>