<svg xmlns="http://www.w3.org/2000/svg" viewBox="0 0 64 64" x="0px" y="0px"><g data-name="Money Bag-Mobile-Payment-Saving-Banking"><path d="M36,4H14A5,5,0,0,0,9,9V47a5,5,0,0,0,5,5h9.54a4.048,4.048,0,0,1,1.27-2H23a3,3,0,0,1,0-6h4a3.009,3.009,0,0,1,3,3,2.968,2.968,0,0,1-1.14,2.33,3.933,3.933,0,0,1,2.01,1.71l.13.23V41H19a5,5,0,0,1-5-5V29a10.976,10.976,0,0,1,4.7-9H17V18h3.07l-1.99-4.6a1.031,1.031,0,0,1,.08-.95A1.013,1.013,0,0,1,19,12a1.935,1.935,0,0,0,1-.37A3.848,3.848,0,0,1,22,11a3.056,3.056,0,0,1,2.25,1.34c.25.28.58.66.75.66s.5-.38.75-.66A3.056,3.056,0,0,1,28,11a3.848,3.848,0,0,1,2,.63A1.935,1.935,0,0,0,31,12a1.013,1.013,0,0,1,.84.45,1.031,1.031,0,0,1,.08.95L29.93,18H33v2H31.3A10.976,10.976,0,0,1,36,29v5.14A4,4,0,0,1,39,38v6.54A3.989,3.989,0,0,1,41,44V9A5,5,0,0,0,36,4ZM19,8H17V6h2ZM29,8H21V6h8Z"></path><path d="M25,20a9.014,9.014,0,0,0-9,9v7a3.009,3.009,0,0,0,3,3H31V38a4,4,0,0,1,3-3.86V29A9.014,9.014,0,0,0,25,20Zm-1,9h2a3,3,0,0,1,0,6v1H24V35a3.009,3.009,0,0,1-3-3h2a1,1,0,0,0,1,1h2a1,1,0,0,0,0-2H24a3,3,0,0,1,0-6V24h2v1a3.009,3.009,0,0,1,3,3H27a1,1,0,0,0-1-1H24a1,1,0,0,0,0,2Z"></path><path d="M55,50V61H29.69l-4.02-6.96a2,2,0,1,1,3.46-2l2,3.46a1.022,1.022,0,0,0,1.13.47A1,1,0,0,0,33,55V38a2,2,0,0,1,4,0V52a1,1,0,0,0,2,0V48a2,2,0,0,1,4,0v4a1,1,0,0,0,2,0V49a2,2,0,0,1,4,0v3a1,1,0,0,0,2,0V50a2,2,0,0,1,4,0Z"></path><path d="M27.61,18.32l2-4.63c-.22-.1-.42-.22-.61-.32A1.935,1.935,0,0,0,28,13c-.17,0-.5.38-.75.66A3.056,3.056,0,0,1,25,15a3.056,3.056,0,0,1-2.25-1.34c-.25-.28-.58-.66-.75-.66a1.935,1.935,0,0,0-1,.37c-.19.1-.39.22-.61.32l2,4.63a10.8,10.8,0,0,1,5.22,0Z"></path><path d="M23,46a1,1,0,0,0,0,2h4a1,1,0,0,0,0-2Z"></path></g></svg>