<svg xmlns="http://www.w3.org/2000/svg" viewBox="0 0 64 64" x="0px" y="0px"><g data-name="Smartphone"><path d="M54.075,41.8A17.788,17.788,0,0,0,57,32,18.021,18.021,0,0,0,39,14a17.788,17.788,0,0,0-9.8,2.925A3.978,3.978,0,0,1,23.925,22.2,17.79,17.79,0,0,0,21,32,18.021,18.021,0,0,0,39,50a17.788,17.788,0,0,0,9.8-2.925A3.981,3.981,0,0,1,54.075,41.8Zm-8.3,1.037-.827,2.479A1,1,0,0,1,44,46H41a1,1,0,0,1-.707-.293L39,44.414l-1.293,1.293A1,1,0,0,1,37,46H34a1,1,0,0,1-.948-.684l-.827-2.479-3.467-.867A1,1,0,0,1,28,41V39.414l-2.707-2.707A1,1,0,0,1,25,36V31a1.006,1.006,0,0,1,.168-.555L27,27.7V24a1,1,0,0,1,.293-.707l2-2A1,1,0,0,1,30,21h2.279l.773-2.316A1,1,0,0,1,34,18h3a1,1,0,0,1,.707.293L39,19.586l1.293-1.293A1,1,0,0,1,41,18h3a1,1,0,0,1,.948.684L45.721,21H48a1,1,0,0,1,.707.293l2,2A1,1,0,0,1,51,24v3.7l1.832,2.748A1.006,1.006,0,0,1,53,31v5a1,1,0,0,1-.293.707L50,39.414V41a1,1,0,0,1-.758.97Z"></path><path d="M26.979,19.979a2,2,0,1,0-2.829,0A2,2,0,0,0,26.979,19.979Z"></path><path d="M50,36.586l1-1V31.3L49.845,29.57,49,30.414V31H47V30a1,1,0,0,1,.293-.707L49,27.586V24.414L47.586,23H45.414L44,24.414V25H42V24a1,1,0,0,1,.293-.707l1.563-1.563L43.279,20H41.414L40,21.414V42.586L41.414,44h1.865l.577-1.73-1.563-1.563A1,1,0,0,1,42,40V39h2v.586l1.307,1.307L48,40.219V35h2ZM42,30V27h2v2.586l1.707,1.707-1.414,1.414-2-2A1,1,0,0,1,42,30Zm4,8H44V36.414l-.707-.707,1.414-1.414,1,1A1,1,0,0,1,46,36Z"></path><path d="M17,6H31a1,1,0,0,0,1-1V4H16V5A1,1,0,0,0,17,6Z"></path><path d="M27.94,15.37A19.735,19.735,0,0,1,39,12a16.524,16.524,0,0,1,2,.12V7a3.009,3.009,0,0,0-3-3H34V5a3.009,3.009,0,0,1-3,3H17a3.009,3.009,0,0,1-3-3V4H10A3.009,3.009,0,0,0,7,7V57a3.009,3.009,0,0,0,3,3H38a3.009,3.009,0,0,0,3-3V51.89A19,19,0,0,1,39,52,20.02,20.02,0,0,1,19,32a19.8,19.8,0,0,1,3.36-11.06,3.983,3.983,0,0,1,5.58-5.57ZM16.83,12.76l1.41,1.41-1.41,1.42-1.42-1.42Zm0,5.65,1.41,1.42-1.41,1.41-1.42-1.41Zm0,24.35,1.41,1.41-1.41,1.42-1.42-1.42ZM9,16h2v2H9ZM9,46h2v2H9Zm2.17,5.24L9.76,49.83l1.41-1.42,1.42,1.42Zm0-5.65L9.76,44.17l1.41-1.41,1.42,1.41Zm0-24.35L9.76,19.83l1.41-1.42,1.42,1.42Zm0-5.65L9.76,14.17l1.41-1.41,1.42,1.41ZM15,52H13V50h2Zm0-8H13V42h2Zm0-4H13V24h2Zm0-18H13V20h2Zm0-8H13V12h2Zm1.83,37.24-1.42-1.41,1.42-1.42,1.41,1.42ZM19,48H17V46h2Zm0-30H17V16h2Z"></path><path d="M51.021,44.021a2,2,0,1,0,2.829,0A2,2,0,0,0,51.021,44.021Z"></path><path d="M34.721,20l-.577,1.73,1.563,1.563A1,1,0,0,1,36,24v1H34v-.586L32.586,23H30.414L29,24.414v3.172l1.707,1.707A1,1,0,0,1,31,30v1H29v-.586l-.845-.844L27,31.3v4.283l1,1V35h2v5.219l2.693.674L34,39.586V39h2v1a1,1,0,0,1-.293.707L34.144,42.27,34.721,44h1.865L38,42.586V21.414L36.586,20ZM34,36.414V38H32V36a1,1,0,0,1,.293-.707l1-1,1.414,1.414ZM36,30a1,1,0,0,1-.293.707l-2,2-1.414-1.414L34,29.586V27h2Z"></path></g></svg>