<svg xmlns="http://www.w3.org/2000/svg" viewBox="0 0 64 64" x="0px" y="0px"><g><path d="M21,25.9v.687l1,1,1-1V25.9a5,5,0,0,1-2,0Z"></path><path d="M23,18.414l-.122.122A4.966,4.966,0,0,1,19.343,20H19v1a3,3,0,0,0,6,0V19.87a2.96,2.96,0,0,1-1.293-.749Z"></path><path d="M24.376,28.038l-1.669,1.669a1,1,0,0,1-1.414,0l-1.669-1.669A4.991,4.991,0,0,0,15,33H29A4.991,4.991,0,0,0,24.376,28.038Z"></path><path d="M21.464,17.122l.829-.829a1,1,0,0,1,1.414,0l1.414,1.414a1,1,0,0,0,.708.293H26V17a4,4,0,0,0-8,0v1h1.343A3.02,3.02,0,0,0,21.464,17.122Z"></path><path d="M35.54,27.613A6.977,6.977,0,0,1,39,26.071v-1.1a4.991,4.991,0,0,1-1.9-2.967,2.682,2.682,0,0,0-.831.086,2.992,2.992,0,0,0-.731,5.52Z"></path><path d="M45,21V19.885a2.981,2.981,0,0,1-1.293-.764L43,18.415l-.121.121A4.968,4.968,0,0,1,39.343,20H39v1a3,3,0,0,0,6,0Z"></path><path d="M10,39H54V8a1,1,0,0,0-1-1H11a1,1,0,0,0-1,1ZM35,20.422V18a7.008,7.008,0,0,1,7-7,7.008,7.008,0,0,1,7,7v2.42a4.985,4.985,0,0,1,.814,8.7A6.946,6.946,0,0,1,51,33v1a1,1,0,0,1-1,1H34a1,1,0,0,1-1-1V33a6.946,6.946,0,0,1,1.186-3.882,4.984,4.984,0,0,1,.814-8.7ZM13,33a7.011,7.011,0,0,1,6-6.929v-1.1A4.977,4.977,0,0,1,17,21V20a1,1,0,0,1-1-1V17a6,6,0,0,1,12,0v2a1,1,0,0,1-1,1v1a4.977,4.977,0,0,1-2,3.974v1.1A7.011,7.011,0,0,1,31,33v1a1,1,0,0,1-1,1H14a1,1,0,0,1-1-1Z"></path><path d="M38,18h1.343a2.983,2.983,0,0,0,2.122-.878l.828-.829a1.029,1.029,0,0,1,1.414,0l1.414,1.414a1.009,1.009,0,0,0,.707.293H46a1,1,0,0,1,1,1V18a5.006,5.006,0,0,0-5-5,5.009,5.009,0,0,0-5,5v1A1,1,0,0,1,38,18Z"></path><path d="M41,25.9v.687l1,1,1-1V25.9a5,5,0,0,1-2,0Z"></path><path d="M45,24.974v1.1a6.977,6.977,0,0,1,3.46,1.542,2.992,2.992,0,0,0-.706-5.514,2.745,2.745,0,0,0-.858-.085A4.992,4.992,0,0,1,45,24.974Z"></path><path d="M44.376,28.038l-1.669,1.669a1,1,0,0,1-1.414,0l-1.669-1.669A4.991,4.991,0,0,0,35,33H49A4.991,4.991,0,0,0,44.376,28.038Z"></path><path d="M59.382,51l-5-10H9.618l-5,10ZM54,49H52V47h2Zm-3-6h2v2H51Zm-1,6H48V47h2Zm-3-6h2v2H47Zm-4,0h2v2H43Zm-4,0h2v2H39Zm-4,0h2v2H35Zm-4,0h2v2H31Zm-4,0h2v2H27Zm-4,0h2v2H23Zm-4,0h2v2H19Zm-1,4H46v2H18Zm-3-4h2v2H15Zm-1,4h2v2H14Zm-3-4h2v2H11Zm-1,4h2v2H10Z"></path><rect x="29" y="53" width="6" height="1"></rect><path d="M4,57H60V53H37v1a2,2,0,0,1-2,2H29a2,2,0,0,1-2-2V53H4Z"></path></g></svg>