<svg xmlns="http://www.w3.org/2000/svg" viewBox="0 0 64 64" x="0px" y="0px"><g data-name="Tamping-Coffee Maker-Hot Drink-Coffee-Drink"><path d="M53,56H42.31a4.981,4.981,0,0,0,.99-2.58l.18-2.09,3.14-.9a3.278,3.278,0,0,0-.9-6.43H31a1.029,1.029,0,0,0-.74.32,1.013,1.013,0,0,0-.26.76l.7,8.34A4.981,4.981,0,0,0,31.69,56H24.31a4.981,4.981,0,0,0,.99-2.58l.7-8.34a1.013,1.013,0,0,0-.26-.76A1.029,1.029,0,0,0,25,44H10.28a3.278,3.278,0,0,0-.9,6.43l3.14.9.18,2.09A4.981,4.981,0,0,0,13.69,56H3a1,1,0,0,0-1,1v2a3.009,3.009,0,0,0,3,3H51a3.009,3.009,0,0,0,3-3V57A1,1,0,0,0,53,56ZM43.92,46h1.8a1.281,1.281,0,0,1,.36,2.51l-2.43.69Zm-34,2.51A1.281,1.281,0,0,1,10.28,46h1.8l.27,3.2ZM41.91,46l-.6,7.25A3.019,3.019,0,0,1,38.32,56H35.68a3.019,3.019,0,0,1-2.99-2.75L32.09,46Zm-18,0-.6,7.25A3.019,3.019,0,0,1,20.32,56H17.68a3.019,3.019,0,0,1-2.99-2.75L14.09,46ZM52,59a1,1,0,0,1-1,1H5a1,1,0,0,1-1-1V58H52Z"></path><path d="M61,2H43a1,1,0,0,0-1,1V4H40V3a1,1,0,0,0-1-1H17a1,1,0,0,0-1,1v8a5.017,5.017,0,0,0,4,4.9V19a1,1,0,0,0,1,1h4v1.39A11.984,11.984,0,0,0,16,33a1,1,0,0,0,1,1h4a1,1,0,0,0,1-1,6,6,0,0,1,12,0,1,1,0,0,0,1,1h4a1,1,0,0,0,1-1,11.984,11.984,0,0,0-9-11.61V20h4a1,1,0,0,0,1-1V15.9A5.017,5.017,0,0,0,40,11V10h2v1a1,1,0,0,0,1,1H61a1,1,0,0,0,1-1V3A1,1,0,0,0,61,2ZM37.95,32H35.94a8,8,0,0,0-15.88,0H18.05a10,10,0,0,1,8.13-8.83.988.988,0,0,0,.82-.98V20h2v2.19a.988.988,0,0,0,.82.98A10,10,0,0,1,37.95,32ZM34,18H22V16H34Zm4-7a3.009,3.009,0,0,1-3,3H21a3.009,3.009,0,0,1-3-3V4H38Zm4-3H40V6h2Zm18,2H44V4H60Z"></path><path d="M40,39c0-1.278-1.522-3.62-2.177-4.568a1.038,1.038,0,0,0-1.646,0C35.522,35.38,34,37.722,34,39a3,3,0,0,0,6,0Zm-4,0a7.457,7.457,0,0,1,1-2.147A7.462,7.462,0,0,1,38,39a1,1,0,0,1-2,0Z"></path><path d="M22,39c0-1.278-1.522-3.62-2.177-4.568a1.038,1.038,0,0,0-1.646,0C17.522,35.38,16,37.722,16,39a3,3,0,0,0,6,0Zm-4,0a7.457,7.457,0,0,1,1-2.147A7.462,7.462,0,0,1,20,39a1,1,0,0,1-2,0Z"></path></g></svg>