<svg xmlns="http://www.w3.org/2000/svg" viewBox="0 0 64 64" x="0px" y="0px"><g><path d="M57,46H50V3a1,1,0,0,0-1.8-.6L46,5.333,43.8,2.4a1.036,1.036,0,0,0-1.6,0L40,5.333,37.8,2.4a1.036,1.036,0,0,0-1.6,0L34,5.333,31.8,2.4a1.036,1.036,0,0,0-1.6,0L28,5.333,25.8,2.4a1.036,1.036,0,0,0-1.6,0L22,5.333,19.8,2.4a1.036,1.036,0,0,0-1.6,0L16,5.333,13.8,2.4a1.036,1.036,0,0,0-1.6,0L10,5.333,7.8,2.4A1,1,0,0,0,6,3V55a7.008,7.008,0,0,0,7,7H53a5.006,5.006,0,0,0,5-5V47A1,1,0,0,0,57,46ZM8,55V6L9.2,7.6a1.036,1.036,0,0,0,1.6,0L13,4.667,15.2,7.6a1.036,1.036,0,0,0,1.6,0L19,4.667,21.2,7.6a1.036,1.036,0,0,0,1.6,0L25,4.667,27.2,7.6a1.036,1.036,0,0,0,1.6,0L31,4.667,33.2,7.6a1.036,1.036,0,0,0,1.6,0L37,4.667,39.2,7.6a1.036,1.036,0,0,0,1.6,0L43,4.667,45.2,7.6a1.036,1.036,0,0,0,1.6,0L48,6V57a4.948,4.948,0,0,0,1.026,3H13A5.006,5.006,0,0,1,8,55Zm48,2a3,3,0,0,1-6,0V48h6Z"></path><path d="M17,34h4a5.006,5.006,0,0,0,5-5V28h1a3,3,0,0,0,3-3V23a3,3,0,0,0-3-3H13a1,1,0,0,0-1,1v8A5.006,5.006,0,0,0,17,34ZM28,23v2a1,1,0,0,1-1,1H26V22h1A1,1,0,0,1,28,23ZM14,22H24v7a3,3,0,0,1-3,3H17a3,3,0,0,1-3-3Z"></path><path d="M20,17v1h2V17a1,1,0,0,1,1-1h1a3,3,0,0,0,3-3V12H25v1a1,1,0,0,1-1,1H23A3,3,0,0,0,20,17Z"></path><path d="M18,16a2,2,0,0,1,2-2,3,3,0,0,0,3-3V10H21v1a1,1,0,0,1-1,1,4,4,0,0,0-4,4v2h2Z"></path><rect x="34" y="32" width="10" height="2"></rect><rect x="34" y="28" width="10" height="2"></rect><rect x="34" y="24" width="10" height="2"></rect><rect x="12" y="38" width="26" height="2"></rect><rect x="40" y="38" width="4" height="2"></rect><rect x="12" y="42" width="26" height="2"></rect><rect x="40" y="42" width="4" height="2"></rect><rect x="12" y="46" width="26" height="2"></rect><rect x="40" y="46" width="4" height="2"></rect><rect x="12" y="50" width="26" height="2"></rect><rect x="40" y="50" width="4" height="2"></rect></g></svg>