<svg xmlns="http://www.w3.org/2000/svg" viewBox="0 0 64 64" x="0px" y="0px"><g><path d="M61,52H60V21a5.006,5.006,0,0,0-5-5H54v2h1a3,3,0,0,1,3,3V52H6V21a3,3,0,0,1,3-3H26V16H9a5.006,5.006,0,0,0-5,5V52H3a1,1,0,0,0-1,1v4a3,3,0,0,0,3,3H59a3,3,0,0,0,3-3V53A1,1,0,0,0,61,52ZM37,54v1H27V54Zm22,4H5a1,1,0,0,1-1-1h9V55H4V54H25v1a2,2,0,0,0,2,2H37a2,2,0,0,0,2-2V54H60v1H51v2h9A1,1,0,0,1,59,58Z"></path><path d="M13,28a3,3,0,0,0-3,3v6a3,3,0,0,0,3,3h8.723l4.762,2.857A1,1,0,0,0,28,42V31a3,3,0,0,0-3-3Zm13,3v9.233l-3.485-2.09A1,1,0,0,0,22,38H13a1,1,0,0,1-1-1V31a1,1,0,0,1,1-1H25A1,1,0,0,1,26,31Z"></path><rect x="14" y="33" width="2" height="2"></rect><rect x="18" y="33" width="2" height="2"></rect><rect x="22" y="33" width="2" height="2"></rect><rect x="33" y="38" width="4" height="2"></rect><rect x="39" y="38" width="10" height="2"></rect><rect x="33" y="42" width="16" height="2"></rect><rect x="33" y="46" width="16" height="2"></rect><path d="M38,25.829V29a1,1,0,0,0,1.768.641l3.4-4.076A11.985,11.985,0,1,0,38,25.829ZM40,4a9.994,9.994,0,0,1,2.366,19.706,1.006,1.006,0,0,0-.532.331L40,26.238V24.949a1,1,0,0,0-.91-1A10,10,0,0,1,40,4Z"></path><path d="M40,22a8,8,0,1,0-8-8A8.009,8.009,0,0,0,40,22ZM40,8a6,6,0,1,1-6,6A6.006,6.006,0,0,1,40,8Z"></path><path d="M39,19h2V18a2,2,0,0,0,2-2V15a2,2,0,0,0-2-2H39V12h4V10H41V9H39v1a2,2,0,0,0-2,2v1a2,2,0,0,0,2,2h2v1H37v2h2Z"></path></g></svg>