<svg xmlns="http://www.w3.org/2000/svg" viewBox="0 0 64 64" x="0px" y="0px"><g><path d="M17,31h4a1,1,0,0,0,0-2H17a1,1,0,0,0,0,2Z"></path><path d="M5,57H34a1,1,0,0,0,0-2,2,2,0,0,1-2-2V42a9.01,9.01,0,0,0-9-9H15c-4.71,0-8,3.7-8,9V53a2,2,0,0,1-2,2,1,1,0,0,0,0,2ZM20,45H18a3,3,0,0,1,0-6V37h2v2a3,3,0,0,1,3,3H21a1,1,0,0,0-1-1H18a1,1,0,0,0,0,2h2a3,3,0,0,1,0,6v2H18V49a3,3,0,0,1-3-3h2a1,1,0,0,0,1,1h2a1,1,0,0,0,0-2Z"></path><rect x="51" y="45" width="4" height="2"></rect><path d="M60,42V8a1,1,0,0,0-1-1H13a1,1,0,0,0-1,1V21a.987.987,0,0,1,.135-.5A1,1,0,0,1,13,20h1V12a3,3,0,0,1,3-3H55a3,3,0,0,1,3,3V38a3,3,0,0,1-3,3H33.949c.03.33.051.662.051,1v1H59A1,1,0,0,0,60,42Z"></path><path d="M14.2,31.04a2.941,2.941,0,0,1,1.315-3.629L12.132,21.5A1,1,0,0,1,12,21V31.449A9.941,9.941,0,0,1,14.2,31.04Z"></path><polygon points="20.42 27 23.276 22 14.724 22 17.58 27 20.42 27"></polygon><path d="M55,39a1,1,0,0,0,1-1V12a1,1,0,0,0-1-1H17a1,1,0,0,0-1,1v8h9a1,1,0,0,1,.868,1.5l-3.38,5.915a2.942,2.942,0,0,1,1.315,3.63A11.01,11.01,0,0,1,33.574,39ZM35,17a1,1,0,0,1,1-1H48a1,1,0,0,1,1,1v7.859a4.987,4.987,0,0,1-2.227,4.161l-4.218,2.812a1,1,0,0,1-1.11,0L37.227,29.02A4.987,4.987,0,0,1,35,24.859Z"></path><path d="M38.336,27.355,42,29.8l3.664-2.443A2.991,2.991,0,0,0,47,24.859V18H37v6.859A2.991,2.991,0,0,0,38.336,27.355Zm1.371-5.062L41,23.586l3.293-3.293,1.414,1.414-4,4a1,1,0,0,1-1.414,0l-2-2Z"></path></g></svg>