<svg xmlns="http://www.w3.org/2000/svg" viewBox="0 0 64 64" x="0px" y="0px"><g data-name="Smart Washing Machine-Internet of Things-App-Internet-Smartphone"><rect x="46" y="8" width="10" height="4"></rect><path d="M36,12a1.994,1.994,0,0,0,1-3.722V10H35V8.278A1.994,1.994,0,0,0,36,12Z"></path><path d="M24,31a3.009,3.009,0,0,0-3-3H7a3.009,3.009,0,0,0-3,3v1H24Z"></path><path d="M24,57V54H4v3a3.009,3.009,0,0,0,3,3H21A3.009,3.009,0,0,0,24,57Zm-9,1H13V56h2Z"></path><path d="M24,34H4V52H24ZM14,48l-1.414-1.414a2,2,0,0,1,2.828,0Zm2.121-3.122a3.074,3.074,0,0,0-4.242,0l-1.414-1.414a5,5,0,0,1,7.07,0ZM18.95,42.05a7.011,7.011,0,0,0-9.9,0L7.636,40.636a9.01,9.01,0,0,1,12.728,0Z"></path><path d="M12,16H60V5a1,1,0,0,0-1-1H13a1,1,0,0,0-1,1ZM44,7a1,1,0,0,1,1-1H57a1,1,0,0,1,1,1v6a1,1,0,0,1-1,1H45a1,1,0,0,1-1-1ZM36,6a4,4,0,1,1-4,4A4,4,0,0,1,36,6ZM26,9h2v2H26ZM22,9h2v2H22ZM18,9h2v2H18ZM14,9h2v2H14Z"></path><path d="M44.31,35.29A.949.949,0,0,0,44,36a1,1,0,0,0,1,1h.95c.03-.33.05-.66.05-1s-.02-.67-.05-1H45A.928.928,0,0,0,44.31,35.29Z"></path><path d="M36,24A12,12,0,1,1,26,42.62v3.14a14.005,14.005,0,1,0-1.25-18.03,4.96,4.96,0,0,1,1.06,1.97A11.99,11.99,0,0,1,36,24Z"></path><path d="M60,59V56H26v1a4.924,4.924,0,0,1-1.03,3H59A1,1,0,0,0,60,59Z"></path><path d="M36,20A16,16,0,1,1,26,48.45V54H60V18H12v8h9a4.951,4.951,0,0,1,2.14.5A15.916,15.916,0,0,1,36,20Z"></path><path d="M36,26a10,10,0,1,0,9.54,13H45a3.009,3.009,0,0,1-3-3,3,3,0,0,1,3-3h.54A10.023,10.023,0,0,0,36,26Z"></path></g></svg>