<svg xmlns="http://www.w3.org/2000/svg" viewBox="0 0 64 64" x="0px" y="0px"><g><path d="M48.949,9.729a29.851,29.851,0,0,1-5.386,2.961A50.611,50.611,0,0,1,46.988,31H59.97A28.061,28.061,0,0,0,48.949,9.729Z"></path><path d="M26,16a1,1,0,0,0-1-1H17a1,1,0,0,0-1,1v5H26Z"></path><path d="M18.913,7.253c-.341.18-.676.372-1.01.568-.27.158-.54.316-.8.484-.1.065-.2.138-.307.205a27.709,27.709,0,0,0,4.51,2.359,20.471,20.471,0,0,1,4.375-6.135c-.072.016-.146.028-.219.045-.2.046-.388.1-.582.149q-.7.183-1.389.4c-.228.073-.455.15-.681.229q-.622.216-1.233.461-.381.153-.756.316c-.371.162-.739.335-1.1.513C19.444,6.979,19.177,7.112,18.913,7.253Z"></path><rect x="16" y="23" width="10" height="2"></rect><path d="M16,48a1,1,0,0,0,1,1h8a1,1,0,0,0,1-1V27H16Z"></path><path d="M59.97,33H46.988a50.611,50.611,0,0,1-3.425,18.31,29.817,29.817,0,0,1,5.386,2.961A28.062,28.062,0,0,0,59.97,33Z"></path><path d="M40.323,58.736c.285-.089.566-.187.847-.284.379-.132.757-.268,1.13-.416.28-.111.558-.229.834-.349.367-.16.73-.326,1.089-.5.273-.133.543-.269.812-.411q.533-.282,1.052-.589c.262-.153.523-.307.781-.469.115-.073.226-.153.34-.227a27.7,27.7,0,0,0-4.476-2.344,20.509,20.509,0,0,1-4.382,6.126c.266-.062.528-.135.792-.2C39.538,58.963,39.933,58.857,40.323,58.736Z"></path><path d="M33,4.1v8.869a27.878,27.878,0,0,0,7.788-1.384C38.688,7.374,35.966,4.609,33,4.1Z"></path><path d="M33,31H44.988a48.84,48.84,0,0,0-3.361-17.587A29.864,29.864,0,0,1,33,14.961Z"></path><path d="M47.208,8.511c-.114-.074-.224-.153-.338-.225-.26-.164-.524-.319-.788-.474-.344-.2-.691-.4-1.042-.583q-.408-.216-.822-.417-.534-.26-1.077-.5c-.28-.122-.561-.241-.846-.354-.369-.146-.742-.281-1.117-.411-.285-.1-.57-.2-.858-.288-.387-.12-.778-.225-1.17-.328-.266-.07-.532-.144-.8-.206a20.509,20.509,0,0,1,4.382,6.126A27.7,27.7,0,0,0,47.208,8.511Z"></path><path d="M33,49.039a29.863,29.863,0,0,1,8.627,1.547A48.834,48.834,0,0,0,44.988,33H33Z"></path><path d="M33,59.905c2.966-.514,5.688-3.279,7.788-7.485A27.878,27.878,0,0,0,33,51.036Z"></path><rect x="4" y="41" width="10" height="2"></rect><path d="M31,33H28V48a2.962,2.962,0,0,1-.319,1.32A30.189,30.189,0,0,1,31,49.039Z"></path><path d="M31,59.9V51.036a27.88,27.88,0,0,0-7.809,1.391C25.346,56.72,28.125,59.393,31,59.9Z"></path><path d="M31,14.961a30.189,30.189,0,0,1-3.319-.281A2.962,2.962,0,0,1,28,16V31h3Z"></path><path d="M31,4.1c-2.875.509-5.654,3.182-7.809,7.475A27.88,27.88,0,0,0,31,12.964Z"></path><path d="M11.438,13H13a3.025,3.025,0,0,1,.583.059c.065.013.125.037.188.054a2.9,2.9,0,0,1,.357.111c.071.029.136.068.2.1a3.156,3.156,0,0,1,.292.158c.066.043.126.094.189.142s.129.088.187.14c.058-.052.125-.093.187-.14s.123-.1.19-.142a3.016,3.016,0,0,1,.291-.158c.068-.034.133-.073.2-.1a3.078,3.078,0,0,1,.357-.111c.063-.017.123-.041.188-.054A3.025,3.025,0,0,1,17,13h3.357c.039-.1.078-.2.118-.292a29.865,29.865,0,0,1-5.412-2.971A27.791,27.791,0,0,0,11.438,13Z"></path><path d="M17.9,56.178c.333.2.668.387,1.008.567.268.143.54.279.813.413.355.173.712.341,1.073.5.266.117.534.228.8.336.381.153.765.3,1.152.432.259.09.518.179.78.261.41.13.825.248,1.242.359.245.065.49.131.737.189.057.014.114.023.171.036A20.469,20.469,0,0,1,21.3,53.131a27.709,27.709,0,0,0-4.51,2.359c.1.067.2.14.308.206C17.363,55.863,17.632,56.021,17.9,56.178Z"></path><path d="M5,15a1,1,0,0,0-1,1V39H14V16a1,1,0,0,0-1-1H5Zm7,5a3,3,0,1,1-3-3A3,3,0,0,1,12,20Z"></path><circle cx="9" cy="20" r="1"></circle><path d="M5,49h8a1,1,0,0,0,1-1V45H4v3A1,1,0,0,0,5,49Z"></path><path d="M20.475,51.292c-.04-.1-.079-.194-.118-.292H17a3.025,3.025,0,0,1-.583-.059c-.065-.013-.124-.037-.187-.054a2.858,2.858,0,0,1-.358-.111c-.071-.029-.135-.068-.2-.1a3.04,3.04,0,0,1-.292-.159c-.067-.043-.127-.094-.19-.142s-.129-.088-.187-.14c-.058.052-.125.093-.187.14s-.123.1-.189.142a3.057,3.057,0,0,1-.293.159c-.068.033-.132.072-.2.1a2.858,2.858,0,0,1-.358.111c-.063.017-.122.041-.187.054A3.025,3.025,0,0,1,13,51H11.438a27.784,27.784,0,0,0,3.625,3.263A29.865,29.865,0,0,1,20.475,51.292Z"></path></g></svg>