<svg xmlns="http://www.w3.org/2000/svg" viewBox="0 0 64 64" x="0px" y="0px"><g><path d="M35.351,36.418a1,1,0,0,1-.412.646.988.988,0,0,1-.747.165l-3.939-.694a1,1,0,0,1-.811-1.159l.521-2.954-1.969-.347-1.737,9.848,9.849,1.736,1.736-9.848-1.97-.347Z"></path><path d="M25.735,44.877a1,1,0,0,0,.813,1.159l7.878,1.389a1,1,0,0,0,1.159-.812l.173-.984-9.849-1.737Z"></path><path d="M40.2,19.947a6.681,6.681,0,0,1,.471-3.359,4.072,4.072,0,0,0,.3-2.013A4.022,4.022,0,0,0,37.3,11.011a3.977,3.977,0,0,0-2.44.611h0a5.275,5.275,0,0,1-5.714,0A3.963,3.963,0,0,0,27,11c-.1,0-.2,0-.3.011a4.022,4.022,0,0,0-3.682,3.565,4.064,4.064,0,0,0,.3,2.011,6.693,6.693,0,0,1,.471,3.362L21.473,41.522a8.957,8.957,0,0,0,7.183,9.79l.4.08a14.932,14.932,0,0,0,5.882,0l.4-.08a8.954,8.954,0,0,0,7.184-9.784ZM37,13a2,2,0,1,1-2,2A2,2,0,0,1,37,13Zm-5,5a5.006,5.006,0,0,1,5,5,1,1,0,0,1-.4.8l-4,3a1,1,0,0,1-1.2,0l-4-3A1,1,0,0,1,27,23,5.006,5.006,0,0,1,32,18Zm-5-5a2,2,0,1,1-2,2A2,2,0,0,1,27,13ZM37.554,46.961A3.005,3.005,0,0,1,34.6,49.44a3.105,3.105,0,0,1-.523-.045L26.2,48.005a3,3,0,0,1-2.434-3.475L26.2,30.742a1,1,0,0,1,1.158-.811l3.939.7a1,1,0,0,1,.81,1.159l-.52,2.954,1.97.347.521-2.954a1,1,0,0,1,1.158-.812l3.94.7a1,1,0,0,1,.81,1.159Z"></path><path d="M57,45h1V31.566L45.445,23.832A1,1,0,0,1,45,23V17a13,13,0,1,0-26,0v6a1,1,0,0,1-.445.832L6,31.566V45H7a3,3,0,0,0,3-3V37a1,1,0,0,1,.5-.868l7.005-4,.992,1.737L16,35.293V45a12.863,12.863,0,0,0,3.645,9H25a5.009,5.009,0,0,1,4.9,4h4.2A5.009,5.009,0,0,1,39,54h5.355A12.863,12.863,0,0,0,48,45V35.293l-2.5-1.429.992-1.737,7.005,4A1,1,0,0,1,54,37v5A3,3,0,0,0,57,45ZM35.736,53.272l-.4.081a16.906,16.906,0,0,1-6.668,0l-.4-.081a10.945,10.945,0,0,1-8.78-11.963l2.324-21.574a4.7,4.7,0,0,0-.319-2.354,6,6,0,0,1,5.072-8.365,5.953,5.953,0,0,1,3.656.92,3.249,3.249,0,0,0,3.566,0,5.959,5.959,0,0,1,3.656-.919,6,6,0,0,1,5.072,8.366,4.693,4.693,0,0,0-.319,2.351l2.325,21.581A10.943,10.943,0,0,1,35.736,53.272Z"></path><path d="M28,59a3,3,0,0,0-3-3H15a3,3,0,0,0-3,3v1H28Z"></path><path d="M34.963,22.528a3,3,0,0,0-5.926,0L32,24.75Z"></path><path d="M36,59v1H52V59a3,3,0,0,0-3-3H39A3,3,0,0,0,36,59Z"></path></g></svg>