<svg xmlns="http://www.w3.org/2000/svg" viewBox="0 0 64 64" x="0px" y="0px"><g data-name="Smart Blender-Internet of Things-Smartphone-Household-Control"><path d="M35,41v6H45V41Zm4,4H37V43h2Zm4,0H41V43h2Z"></path><path d="M35,51a5.468,5.468,0,0,1-.1,1H51V43.36a9.036,9.036,0,0,0-.95-4.02L48.38,36H35v3H46a1,1,0,0,1,1,1v8a1,1,0,0,1-1,1H35Z"></path><rect x="35" y="32" width="12" height="2"></rect><path d="M30,8V20a5,5,0,0,1,5,5v5H48.22L50,22.88V8ZM43,26H37V24h6Zm0-4H37V20h6Zm0-4H37V16h6Zm0-4H37V12h6Z"></path><rect x="52" y="12" width="2" height="6"></rect><polygon points="25 8 28 12 28 8 25 8"></polygon><path d="M58,11a3.009,3.009,0,0,0-3-3H52v2h2a2.006,2.006,0,0,1,2,2v6a2.006,2.006,0,0,1-2,2H52v2h3a3.009,3.009,0,0,0,3-3Z"></path><path d="M50,5a1,1,0,0,0-1-1H31a1,1,0,0,0-1,1V6H50Z"></path><path d="M13,26H33V25a3.009,3.009,0,0,0-3-3H16a3.009,3.009,0,0,0-3,3Z"></path><path d="M53,56V54H33.97A4.952,4.952,0,0,1,30,56Z"></path><path d="M19.25,48a3.007,3.007,0,0,1-.38,1.3l-2.69,4.66.02.04H30a3.009,3.009,0,0,0,3-3V48ZM24,52H22V50h2Z"></path><path d="M14.13,53.5a.994.994,0,0,0,.04,1.05l.89,1.34A5.627,5.627,0,0,1,16,59a4.779,4.779,0,0,1-.1,1H6.76l-.5-7.9a9.055,9.055,0,0,1,2.26-6.55L11,42.76v8.17l-.33.57,1.73,1,3-5.2a1.01,1.01,0,0,1,.61-.46.963.963,0,0,1,.76.1,1,1,0,0,1,.36,1.36Z"></path><path d="M13,28V46h.89a2.933,2.933,0,0,1,1.6-1.09,2.981,2.981,0,0,1,2.28.3,2.931,2.931,0,0,1,.89.79H33V28ZM23,42l-1.41-1.41a1.992,1.992,0,0,1,2.82,0Zm2.12-3.12a3.075,3.075,0,0,0-4.24,0l-1.42-1.42a5.022,5.022,0,0,1,7.08,0Zm2.83-2.83a7.007,7.007,0,0,0-9.9,0l-1.41-1.41a9,9,0,0,1,12.72,0Z"></path></g></svg>