<svg xmlns="http://www.w3.org/2000/svg" viewBox="0 0 64 64" x="0px" y="0px"><g><polygon points="29.387 8 34.615 8 34.28 7 29.721 7 29.387 8"></polygon><path d="M35.5,4h-7a.5.5,0,0,0,0,1h7a.5.5,0,0,0,0-1Z"></path><path d="M23.231,33.548,24.937,60H39.062l1.707-26.452a7.007,7.007,0,0,0-2.036-5.4l-2.6-2.6a3,3,0,0,1-.773-2.91A15.1,15.1,0,0,0,36,19c0-2.279-1.263-7.16-1.762-9H29.73C29.223,11.624,28,15.767,28,18a25.62,25.62,0,0,0,.727,4.717,2.989,2.989,0,0,1-.806,2.776l-2.654,2.654A7.007,7.007,0,0,0,23.231,33.548Z"></path></g></svg>