<svg xmlns="http://www.w3.org/2000/svg" viewBox="0 0 64 64" x="0px" y="0px"><g data-name="Order-List-Clipboard-Shopping Bag-Commerce"><path d="M34,35v1h8V31.02A4.894,4.894,0,0,0,39,30,5,5,0,0,0,34,35Z"></path><path d="M46,41V52H60V41Zm12,4a5,5,0,0,1-10,0V43h2v2a3,3,0,0,0,6,0V43h2Z"></path><rect x="12" y="19" width="22" height="1"></rect><circle cx="23" cy="9" r="1"></circle><path d="M31,13H28a1,1,0,0,1-1-1V7a3.009,3.009,0,0,0-3-3H22a3.009,3.009,0,0,0-3,3v5a1,1,0,0,1-1,1H15a3.009,3.009,0,0,0-3,3v1H34V16A3.009,3.009,0,0,0,31,13Zm-8-1a3,3,0,1,1,3-3A3.009,3.009,0,0,1,23,12Z"></path><path d="M46,55a1,1,0,0,0,1,1H59a1,1,0,0,0,1-1V54H46Z"></path><path d="M14,51a1,1,0,0,0-1-1H9.41L14,54.59Z"></path><polygon points="8 56 12.59 56 8 51.41 8 56"></polygon><polygon points="34 38 44 38 44 52 30 52 30 38 32 38 32 41 34 41 34 38"></polygon><rect x="46" y="38" width="2" height="1"></rect><path d="M8,58a2.006,2.006,0,0,1-2-2V18a2.006,2.006,0,0,1,2-2h2a4.941,4.941,0,0,1,.42-2H7a3.009,3.009,0,0,0-3,3V57a3.009,3.009,0,0,0,3,3H40a2.006,2.006,0,0,0,2-2ZM39,14H35.58A4.941,4.941,0,0,1,36,16h2a2.006,2.006,0,0,1,2,2v8H38V18H36v3a1,1,0,0,1-1,1H11a1,1,0,0,1-1-1V18H8V48h5a3.009,3.009,0,0,1,3,3v5H28.18A2.772,2.772,0,0,1,28,55V37a1,1,0,0,1,1-1h3v-.81a7.138,7.138,0,0,1,5.91-7.11,7,7,0,0,1,4.09.6V17A3.009,3.009,0,0,0,39,14ZM20.71,25.71l-6,6-1.42-1.42,6-6ZM15,25v2a3,3,0,1,0,3,3h2a5,5,0,1,1-5-5ZM10,38h2v2H10Zm14,6H10V42H24Zm0-4H14V38H24Zm2-7H22V31h4Zm0-4H22V27h4Z"></path><path d="M44.18,56H31a1,1,0,0,1-1-1V54H44v1A2.772,2.772,0,0,0,44.18,56Z"></path><path d="M46,35v3H44V35a5.01,5.01,0,0,0-2-4V28.68A7,7,0,0,1,46,35Z"></path></g></svg>