<svg xmlns="http://www.w3.org/2000/svg" viewBox="0 0 64 64" x="0px" y="0px"><g><path d="M50,38V35a2,2,0,0,0-2-2H33V32H31v1H16a2,2,0,0,0-2,2v3h2V35H48v3Z"></path><path d="M13,8.414V16h2V8.414l1.293,1.293,1.414-1.414-3-3a1,1,0,0,0-1.414,0l-3,3,1.414,1.414Z"></path><rect x="13" y="18" width="2" height="2"></rect><rect x="13" y="22" width="2" height="2"></rect><path d="M5,14.414V22H7V14.414l1.293,1.293,1.414-1.414-3-3a1,1,0,0,0-1.414,0l-3,3,1.414,1.414Z"></path><rect x="5" y="24" width="2" height="2"></rect><rect x="5" y="28" width="2" height="2"></rect><path d="M49,8.414V16h2V8.414l1.293,1.293,1.414-1.414-3-3a1,1,0,0,0-1.414,0l-3,3,1.414,1.414Z"></path><rect x="49" y="18" width="2" height="2"></rect><rect x="49" y="22" width="2" height="2"></rect><path d="M57,14.414V22h2V14.414l1.293,1.293,1.414-1.414-3-3a1,1,0,0,0-1.414,0l-3,3,1.414,1.414Z"></path><rect x="57" y="24" width="2" height="2"></rect><rect x="57" y="28" width="2" height="2"></rect><path d="M37.293,16.707l1.414-1.414L37,13.586V11H35v3a1,1,0,0,0,.293.707Z"></path><path d="M37.707,18.293l-1.414,1.414.707.707V22h2V20a1,1,0,0,0-.293-.707Z"></path><path d="M21,23.414V25a1,1,0,0,0,.757.97l3.468.867.826,2.479A1,1,0,0,0,27,30h3a1,1,0,0,0,.707-.293L32,28.414l1.293,1.293A1,1,0,0,0,34,30h3a1,1,0,0,0,.948-.684l.827-2.479,3.467-.867A1,1,0,0,0,43,25V23.414l2.707-2.707A1,1,0,0,0,46,20V15a1.006,1.006,0,0,0-.168-.555L44,11.7V8a1,1,0,0,0-.293-.707l-2-2A1,1,0,0,0,41,5H38.721l-.773-2.316A1,1,0,0,0,37,2H34a1,1,0,0,0-.707.293L32,3.586,30.707,2.293A1,1,0,0,0,30,2H27a1,1,0,0,0-.949.684L25.279,5H23a1,1,0,0,0-.707.293l-2,2A1,1,0,0,0,20,8v3.7l-1.832,2.748A1.006,1.006,0,0,0,18,15v5a1,1,0,0,0,.293.707ZM34.414,4h1.865l.577,1.73L35.293,7.293A1,1,0,0,0,35,8V9h2V8.414L38.414,7h2.172L42,8.414v3.172l-1.707,1.707A1,1,0,0,0,40,14v1h2v-.586l.845-.844L44,15.3v4.283l-1,1V19H41v5.219l-2.693.674L37,23.586V23H35v1a1,1,0,0,0,.293.707l1.563,1.563L36.279,28H34.414L33,26.586V5.414ZM20,15.3l1.155-1.733.845.844V15h2V14a1,1,0,0,0-.293-.707L22,11.586V8.414L23.414,7h2.172L27,8.414V9h2V8a1,1,0,0,0-.293-.707L27.144,5.73,27.721,4h1.865L31,5.414V26.586L29.586,28H27.721l-.577-1.73,1.563-1.563A1,1,0,0,0,29,24V23H27v.586l-1.307,1.307L23,24.219V19H21v1.586l-1-1Z"></path><path d="M28.707,14.707A1,1,0,0,0,29,14V11H27v2.586l-1.707,1.707,1.414,1.414Z"></path><path d="M27,20.414l.707-.707-1.414-1.414-1,1A1,1,0,0,0,25,20v2h2Z"></path><path d="M27.447,48.105,26,47.382V45a1,1,0,0,0-.757-.97L22,43.219V42a1,1,0,0,0-.293-.707l-1-1A1,1,0,0,0,20,40H17a1,1,0,0,0-.707.293L15,41.586l-1.293-1.293A1,1,0,0,0,13,40H10a1,1,0,0,0-.707.293l-1,1A1,1,0,0,0,8,42v1.219l-3.243.811A1,1,0,0,0,4,45v2.382l-1.447.723A1,1,0,0,0,2,49v4a1,1,0,0,0,.684.949L5,54.721V57a1,1,0,0,0,.293.707l1,1A1,1,0,0,0,7,59H8.465l1.7,2.555A1,1,0,0,0,11,62h2a1,1,0,0,0,.707-.293L15,60.414l1.293,1.293A1,1,0,0,0,17,62h2a1,1,0,0,0,.832-.445L21.535,59H23a1,1,0,0,0,.707-.293l1-1A1,1,0,0,0,25,57V54.721l2.316-.772A1,1,0,0,0,28,53V49A1,1,0,0,0,27.447,48.105ZM12.586,60H11.535l-1.7-2.555A1,1,0,0,0,9,57H7.414L7,56.586V54.414l1.707-1.707A1,1,0,0,0,9,52V51H7v.586l-1.27,1.27L4,52.279V49.618L5.236,49H7V47H6V45.781l2.693-.674L10,46.414V48h2V46a1,1,0,0,0-.293-.707L10,43.586V42.414L10.414,42h2.172L14,43.414V58.586ZM26,52.279l-1.73.577L23,51.586V51H21v1a1,1,0,0,0,.293.707L23,54.414v2.172L22.586,57H21a1,1,0,0,0-.832.445L18.465,60H17.414L16,58.586V43.414L17.414,42h2.172l.414.414v1.172l-1.707,1.707A1,1,0,0,0,18,46v2h2V46.414l1.307-1.307L24,45.781V47H23v2h1.764L26,49.618Z"></path><path d="M18,54.586l-.707.707,1.414,1.414,1-1A1,1,0,0,0,20,55V52H18Z"></path><path d="M12,52H10v3a1,1,0,0,0,.293.707l1,1,1.414-1.414L12,54.586Z"></path><path d="M61.447,48.105,60,47.382V45a1,1,0,0,0-.758-.97L56,43.219V42a1,1,0,0,0-.293-.707l-1-1A1,1,0,0,0,54,40H51a1,1,0,0,0-.707.293L49,41.586l-1.293-1.293A1,1,0,0,0,47,40H44a1,1,0,0,0-.707.293l-1,1A1,1,0,0,0,42,42v1.219l-3.242.811A1,1,0,0,0,38,45v2.382l-1.447.723A1,1,0,0,0,36,49v4a1,1,0,0,0,.684.949L39,54.721V57a1,1,0,0,0,.293.707l1,1A1,1,0,0,0,41,59h1.465l1.7,2.555A1,1,0,0,0,45,62h2a1,1,0,0,0,.707-.293L49,60.414l1.293,1.293A1,1,0,0,0,51,62h2a1,1,0,0,0,.832-.445L55.535,59H57a1,1,0,0,0,.707-.293l1-1A1,1,0,0,0,59,57V54.721l2.316-.772A1,1,0,0,0,62,53V49A1,1,0,0,0,61.447,48.105ZM46.586,60H45.535l-1.7-2.555A1,1,0,0,0,43,57H41.414L41,56.586V54.414l1.707-1.707A1,1,0,0,0,43,52V51H41v.586l-1.27,1.27L38,52.279V49.618L39.236,49H41V47H40V45.781l2.693-.674L44,46.414V48h2V46a1,1,0,0,0-.293-.707L44,43.586V42.414L44.414,42h2.172L48,43.414V58.586ZM60,52.279l-1.73.577L57,51.586V51H55v1a1,1,0,0,0,.293.707L57,54.414v2.172L56.586,57H55a1,1,0,0,0-.832.445L52.465,60H51.414L50,58.586V43.414L51.414,42h2.172l.414.414v1.172l-1.707,1.707A1,1,0,0,0,52,46v2h2V46.414l1.307-1.307L58,45.781V47H57v2h1.764L60,49.618Z"></path><path d="M52,54.586l-.707.707,1.414,1.414,1-1A1,1,0,0,0,54,55V52H52Z"></path><path d="M46,52H44v3a1,1,0,0,0,.293.707l1,1,1.414-1.414L46,54.586Z"></path></g></svg>