<svg xmlns="http://www.w3.org/2000/svg" viewBox="0 0 64 64" x="0px" y="0px"><g data-name="Leak-Pipe-Plumbering-Home Repair-Construction"><path d="M61,26H54a3.009,3.009,0,0,0-3-3H47a3.009,3.009,0,0,0-3,3H40V22a3.009,3.009,0,0,0,3-3V15a3.009,3.009,0,0,0-3-3V3a1,1,0,0,0-1-1H25a1,1,0,0,0-1,1v9a3.009,3.009,0,0,0-3,3v4a3.009,3.009,0,0,0,3,3v4H20a3.009,3.009,0,0,0-3-3H13a3.009,3.009,0,0,0-3,3H3a1,1,0,0,0-1,1V41a1,1,0,0,0,1,1h7a3.009,3.009,0,0,0,3,3h4a3.009,3.009,0,0,0,3-3H44a3.009,3.009,0,0,0,3,3h4a3.009,3.009,0,0,0,3-3h7a1,1,0,0,0,1-1V27A1,1,0,0,0,61,26ZM10,40H4V28h6Zm8,2a1,1,0,0,1-1,1H13a1,1,0,0,1-1-1V26a1,1,0,0,1,1-1h4a1,1,0,0,1,1,1ZM26,4H38v8H26ZM23,19V15a1,1,0,0,1,1-1H40a1,1,0,0,1,1,1v4a1,1,0,0,1-1,1H24A1,1,0,0,1,23,19ZM35,40H33v-.59l2-2Zm9,0H37V35a.987.987,0,0,0-.62-.92,1,1,0,0,0-1.09.21l-4,4A1.033,1.033,0,0,0,31,39v1H20V28h5a1,1,0,0,0,1-1V22H38v5a1,1,0,0,0,1,1h5Zm8,2a1,1,0,0,1-1,1H47a1,1,0,0,1-1-1V26a1,1,0,0,1,1-1h4a1,1,0,0,1,1,1Zm8-2H54V28h6Z"></path><path d="M38.177,54.432C37.522,55.379,36,57.722,36,59a3,3,0,0,0,6,0c0-1.278-1.522-3.621-2.177-4.568A1.038,1.038,0,0,0,38.177,54.432ZM39,60a1,1,0,0,1-1-1,7.457,7.457,0,0,1,1-2.147A7.462,7.462,0,0,1,40,59,1,1,0,0,1,39,60Z"></path><path d="M39,49c0-1.278-1.522-3.621-2.177-4.568a1.038,1.038,0,0,0-1.646,0C34.522,45.379,33,47.722,33,49a3,3,0,0,0,6,0Zm-4,0a7.457,7.457,0,0,1,1-2.147A7.462,7.462,0,0,1,37,49a1,1,0,0,1-2,0Z"></path><path d="M30.177,51.432C29.522,52.379,28,54.722,28,56a3,3,0,0,0,6,0c0-1.278-1.522-3.621-2.177-4.568A1.038,1.038,0,0,0,30.177,51.432ZM31,57a1,1,0,0,1-1-1,7.457,7.457,0,0,1,1-2.147A7.462,7.462,0,0,1,32,56,1,1,0,0,1,31,57Z"></path><rect x="6" y="30" width="2" height="2"></rect><rect x="22" y="36" width="2" height="2"></rect><rect x="26" y="36" width="4" height="2"></rect><rect x="56" y="30" width="2" height="2"></rect></g></svg>