<svg xmlns="http://www.w3.org/2000/svg" viewBox="0 0 64 64" x="0px" y="0px"><g data-name="Contact book-Phone book"><path d="M56,24a3,3,0,0,0,3-3V15a3,3,0,0,0-3-3H51V5a3,3,0,0,0-3-3H12A7.008,7.008,0,0,0,5,9V55a7.008,7.008,0,0,0,7,7H50a1,1,0,0,0,1-1V38h5a3,3,0,0,0,3-3V29a3,3,0,0,0-3-3H51V24Zm0-10a1,1,0,0,1,1,1v6a1,1,0,0,1-1,1H51V14ZM7,9a5.006,5.006,0,0,1,5-5H48a1,1,0,0,1,1,1V48H12a6.973,6.973,0,0,0-5,2.111Zm5,51a5,5,0,0,1,0-10H49v2H12v2H49v2H12v2H49v2ZM56,28a1,1,0,0,1,1,1v6a1,1,0,0,1-1,1H51V28Z"></path><path d="M20,42H36a1,1,0,0,0,1-1V29a7.011,7.011,0,0,0-6-6.929v-1.1A4.977,4.977,0,0,0,33,17V15a5,5,0,0,0-10,0v2a4.977,4.977,0,0,0,2,3.974v1.1A7.011,7.011,0,0,0,19,29V41A1,1,0,0,0,20,42Zm8-22a3,3,0,0,1-3-3v-.086a8.81,8.81,0,0,0,3.971-1.569A8.7,8.7,0,0,0,31,16.742V17A3,3,0,0,1,28,20Zm0-8a3,3,0,0,1,2.926,2.355,12.369,12.369,0,0,1-1.219-1.063,1,1,0,0,0-1.414,0,6.247,6.247,0,0,1-3.281,1.591A3,3,0,0,1,28,12Zm0,10a5,5,0,0,0,1-.1V23a.99.99,0,0,0,.548.879L28,26.2l-1.548-2.319A.99.99,0,0,0,27,23V21.9A5,5,0,0,0,28,22Zm-7,7a4.993,4.993,0,0,1,3.333-4.693l2.835,4.248a1,1,0,0,0,1.664,0l2.835-4.248A4.993,4.993,0,0,1,35,29V40H21Z"></path></g></svg>