<svg xmlns="http://www.w3.org/2000/svg" viewBox="0 0 64 64" x="0px" y="0px"><g><path d="M18,44.184V39H16v5.184a2.981,2.981,0,0,0-.936.544L12.3,43.134l-1,1.732,2.751,1.589A2.962,2.962,0,0,0,14,47a3,3,0,1,0,4-2.816ZM17,48a1,1,0,1,1,1-1A1,1,0,0,1,17,48Z"></path><path d="M55,18H5a1,1,0,0,0-1,1V35a21.073,21.073,0,0,0,.386,3.913A14.98,14.98,0,0,0,28.972,56H31A21.024,21.024,0,0,0,52,35V34h3a7.008,7.008,0,0,0,7-7V25A7.008,7.008,0,0,0,55,18ZM17,60A13,13,0,1,1,30,47,13.015,13.015,0,0,1,17,60ZM50,35A19.021,19.021,0,0,1,31,54h-.744A14.98,14.98,0,0,0,6.091,36.737C6.037,36.158,6,35.578,6,35V20H50V35Zm10-8a5.006,5.006,0,0,1-5,5H52V20h3a5.006,5.006,0,0,1,5,5Z"></path><path d="M26,14h2c0-.561.217-.8.707-1.291a3.479,3.479,0,0,0,0-5.413C28.217,6.806,28,6.565,28,6s.217-.8.707-1.294A3.565,3.565,0,0,0,30,2H28c0,.562-.217.8-.707,1.294A3.565,3.565,0,0,0,26,6,3.563,3.563,0,0,0,27.293,8.71C27.783,9.2,28,9.442,28,10s-.217.8-.707,1.29A3.562,3.562,0,0,0,26,14Z"></path><path d="M36,14h2c0-.561.217-.8.707-1.291a3.479,3.479,0,0,0,0-5.413C38.217,6.806,38,6.565,38,6s.217-.8.707-1.294A3.565,3.565,0,0,0,40,2H38c0,.562-.217.8-.707,1.294A3.565,3.565,0,0,0,36,6,3.563,3.563,0,0,0,37.293,8.71C37.783,9.2,38,9.442,38,10s-.217.8-.707,1.29A3.562,3.562,0,0,0,36,14Z"></path><path d="M16,14h2c0-.561.217-.8.707-1.291a3.479,3.479,0,0,0,0-5.413C18.217,6.806,18,6.565,18,6s.217-.8.707-1.294A3.565,3.565,0,0,0,20,2H18c0,.562-.217.8-.707,1.294A3.565,3.565,0,0,0,16,6,3.563,3.563,0,0,0,17.293,8.71C17.783,9.2,18,9.442,18,10s-.217.8-.707,1.29A3.562,3.562,0,0,0,16,14Z"></path><path d="M17,35A12,12,0,1,0,29,47,12.013,12.013,0,0,0,17,35Zm0,22A10,10,0,1,1,27,47,10.011,10.011,0,0,1,17,57Z"></path></g></svg>