<svg xmlns="http://www.w3.org/2000/svg" viewBox="0 0 64 64" x="0px" y="0px"><g><rect x="17" y="19" width="2" height="2"></rect><rect x="27" y="19" width="2" height="2"></rect><path d="M27,25H25a2,2,0,0,1-4,0H19a4,4,0,0,0,8,0Z"></path><path d="M59,38H56V36a1,1,0,0,0-1-1H51a1,1,0,0,0-1,1v2H35a2.957,2.957,0,0,0-.935.164L28,36.266v-3.48A11,11,0,0,0,34,23V22a3,3,0,0,0,0-6V13a11,11,0,0,0-22,0v3a3,3,0,0,0,0,6v1a11,11,0,0,0,6,9.786v3.479L9.723,38.854A10.943,10.943,0,0,0,2,49.35V61a1,1,0,0,0,1,1H43a1,1,0,0,0,1-1V58H59a3,3,0,0,0,3-3V41A3,3,0,0,0,59,38Zm-7-1h2v1H52ZM28.3,38.454l.493,3.94-4.04-1.731,2.528-2.528ZM35,19a1,1,0,0,1-1,1V18A1,1,0,0,1,35,19ZM23,4a9.01,9.01,0,0,1,9,9v3.605a5.589,5.589,0,0,1-3.051-2.921A1,1,0,0,0,28,13a4.269,4.269,0,0,0-3.249,1.611,8.007,8.007,0,0,1-1.8-2.928,1,1,0,0,0-1.191-.653c-2.769.692-5.88,3.077-7.757,4.7V13A9.01,9.01,0,0,1,23,4ZM11,19a1,1,0,0,1,1-1v2A1,1,0,0,1,11,19Zm3,4V18.424c.995-.946,4.417-4.065,7.423-5.195a7.736,7.736,0,0,0,3.13,3.666,1.008,1.008,0,0,0,1.339-.442A3.044,3.044,0,0,1,27.414,15.1,8.088,8.088,0,0,0,32,18.733V23a9,9,0,0,1-18,0Zm9,11a10.966,10.966,0,0,0,3-.426v3.012l-3,3-3-3V33.574A10.966,10.966,0,0,0,23,34Zm-4.279,4.135,2.528,2.528-4.04,1.731.493-3.94ZM4,49.35a8.951,8.951,0,0,1,6.319-8.586l5.286-1.654-.6,4.766A1,1,0,0,0,16,45a.986.986,0,0,0,.394-.081L23,42.088l6.606,2.831A.986.986,0,0,0,30,45a1,1,0,0,0,.992-1.124l-.6-4.765,1.908.6A2.97,2.97,0,0,0,32,41V55a3,3,0,0,0,3,3v2H11V49H9V60H4ZM42,60H37V58h5Zm18-5a1,1,0,0,1-1,1H35a1,1,0,0,1-1-1V41a1,1,0,0,1,1-1H59a1,1,0,0,1,1,1Z"></path><path d="M44,42a6,6,0,1,0,6,6A6.006,6.006,0,0,0,44,42Zm0,10a4,4,0,1,1,4-4A4,4,0,0,1,44,52Z"></path><path d="M57,42H53a1,1,0,0,0-1,1v4a1,1,0,0,0,1,1h4a1,1,0,0,0,1-1V43A1,1,0,0,0,57,42Zm-1,4H54V44h2Z"></path><rect x="52" y="50" width="2" height="2"></rect><path d="M44,49v2a3,3,0,0,0,3-3H45A1,1,0,0,1,44,49Z"></path></g></svg>