<svg xmlns="http://www.w3.org/2000/svg" viewBox="0 0 64 64" x="0px" y="0px"><title>Mouse</title><g><path d="M51,2v9a3,3,0,0,1-3,3H46a3,3,0,0,1-3-3V7a5.006,5.006,0,0,0-5-5H36a5.006,5.006,0,0,0-5,5V22H30A12.013,12.013,0,0,0,18,34V50A12.013,12.013,0,0,0,30,62h4A12.013,12.013,0,0,0,46,50V34A12.013,12.013,0,0,0,34,22H33V7a3,3,0,0,1,3-3h2a3,3,0,0,1,3,3v4a5.006,5.006,0,0,0,5,5h2a5.006,5.006,0,0,0,5-5V2ZM30,24h1v9H20.051A10.013,10.013,0,0,1,30,24Zm4,36H30A10.011,10.011,0,0,1,20,50V35H44V50A10.011,10.011,0,0,1,34,60Zm9.949-27H33V24h1A10.013,10.013,0,0,1,43.949,33Z"></path></g></svg>