<svg xmlns="http://www.w3.org/2000/svg" viewBox="0 0 64 64" x="0px" y="0px"><g data-name="Van"><rect x="8" y="19" width="30" height="8"></rect><path d="M48.051,16.464A4.973,4.973,0,0,0,44.515,15H5a1,1,0,0,0-1,1V31H7v2H4v7a3,3,0,0,0,3,3H8.08a6.991,6.991,0,0,1,13.84,0H38V29H8a2,2,0,0,1-2-2V19a2,2,0,0,1,2-2H48.586Z"></path><path d="M55.92,43H59a1,1,0,0,0,1-1V41H57V39h3V37H57a3,3,0,0,1,0-6h3v-.515A5,5,0,0,0,59.752,29H40V43h2.08a6.991,6.991,0,0,1,13.84,0ZM46,33H42V31h4Z"></path><path d="M49,39a5,5,0,1,0,5,5A5.006,5.006,0,0,0,49,39Zm1,6H48V43h2Z"></path><path d="M56,34a1,1,0,0,0,1,1h3V33H57A1,1,0,0,0,56,34Z"></path><path d="M40,19v8H58.576c-.015-.016-.025-.034-.041-.05L50.586,19Z"></path><path d="M15,39a5,5,0,1,0,5,5A5.006,5.006,0,0,0,15,39Zm1,6H14V43h2Z"></path></g></svg>