<svg xmlns="http://www.w3.org/2000/svg" viewBox="0 0 64 64" x="0px" y="0px"><g><rect x="33" y="45" width="6.001" height="5"></rect><rect x="41.001" y="29" width="5.999" height="5.999"></rect><path d="M47,24a2,2,0,0,0-2-2H41v5h6Z"></path><rect x="33" y="36.999" width="6.001" height="6.001"></rect><rect x="41.001" y="36.999" width="5.999" height="6.001"></rect><path d="M41,50h4a2,2,0,0,0,2-2V45H41Z"></path><path d="M14.469,60H49.531A3.012,3.012,0,0,0,52.5,57.424L52.7,56H11.3l.2,1.424A3.012,3.012,0,0,0,14.469,60Z"></path><path d="M54.847,41H49v7a4,4,0,0,1-4,4H19a4,4,0,0,1-4-4V41H9.153l1.858,13H52.989Z"></path><path d="M5,39H15V33H5a1,1,0,0,0-1,1v4A1,1,0,0,0,5,39Z"></path><path d="M11.455,16.532,9.17,31H15V24a4,4,0,0,1,4-4H45a4,4,0,0,1,4,4v7h5.83L52.546,16.532A2.986,2.986,0,0,0,49.582,14H14.418A2.985,2.985,0,0,0,11.455,16.532Z"></path><path d="M19,12h2V8a2,2,0,0,1,2-2H41a2,2,0,0,1,2,2v4h2V7a3,3,0,0,0-3-3H22a3,3,0,0,0-3,3Z"></path><rect x="17" y="36.999" width="6.001" height="6.001"></rect><rect x="25.001" y="22" width="5.999" height="5"></rect><path d="M17,48a2,2,0,0,0,2,2h4V45H17Z"></path><rect x="17" y="29" width="6.001" height="5.999"></rect><path d="M23,22H19a2,2,0,0,0-2,2v3h6Z"></path><rect x="33" y="29" width="6.001" height="5.999"></rect><path d="M60,38V34a1,1,0,0,0-1-1H49v6H59A1,1,0,0,0,60,38Z"></path><rect x="25.001" y="29" width="5.999" height="5.999"></rect><rect x="25.001" y="36.999" width="5.999" height="6.001"></rect><rect x="33" y="22" width="6.001" height="5"></rect><rect x="25.001" y="45" width="5.999" height="5"></rect></g></svg>