<svg xmlns="http://www.w3.org/2000/svg" viewBox="0 0 64 64" x="0px" y="0px"><g data-name="File Setting"><path d="M56,2H20a3,3,0,0,0-3,3V36h2V5a1,1,0,0,1,1-1H49v7a1,1,0,0,0,1.832.555L52,9.8l1.168,1.752A1,1,0,0,0,55,11V4h1a1,1,0,0,1,1,1V53a1,1,0,0,1-1,1H29v2H56a3,3,0,0,0,3-3V5A3,3,0,0,0,56,2ZM53,7.7l-.168-.252a1.039,1.039,0,0,0-1.664,0L51,7.7V4h2Z"></path><path d="M52.021,26.808l-2.829-2.829a1,1,0,0,0-1.261-.125L45.608,25.4a11.966,11.966,0,0,0-2.08-.862L42.98,21.8A1,1,0,0,0,42,21H38a1,1,0,0,0-.98.8l-.548,2.737a11.966,11.966,0,0,0-2.08.862l-2.323-1.549a1,1,0,0,0-1.261.125l-2.829,2.829a1,1,0,0,0-.125,1.261L29.4,30.392a11.966,11.966,0,0,0-.862,2.08L25.8,33.02A1,1,0,0,0,25,34v4a1,1,0,0,0,.8.98l2.737.548a11.966,11.966,0,0,0,.862,2.08l-1.549,2.323a1,1,0,0,0,.125,1.261l2.829,2.829a1,1,0,0,0,1.261.125L34.392,46.6a11.966,11.966,0,0,0,2.08.862L37.02,50.2A1,1,0,0,0,38,51h4a1,1,0,0,0,.98-.8l.548-2.737a11.966,11.966,0,0,0,2.08-.862l2.323,1.549a1,1,0,0,0,1.261-.125l2.829-2.829a1,1,0,0,0,.125-1.261L50.6,41.608a11.966,11.966,0,0,0,.862-2.08L54.2,38.98A1,1,0,0,0,55,38V34a1,1,0,0,0-.8-.98l-2.737-.548a11.966,11.966,0,0,0-.862-2.08l1.549-2.323A1,1,0,0,0,52.021,26.808ZM53,34.82v2.36l-2.536.508a1,1,0,0,0-.774.738,9.873,9.873,0,0,1-1.123,2.71,1,1,0,0,0,.025,1.07l1.435,2.152-1.669,1.669-2.152-1.435a1,1,0,0,0-1.07-.025,9.873,9.873,0,0,1-2.71,1.123,1,1,0,0,0-.739.774L41.18,49H38.82l-.508-2.536a1,1,0,0,0-.738-.774,9.922,9.922,0,0,1-2.71-1.123,1,1,0,0,0-1.07.025l-2.152,1.435-1.669-1.669,1.435-2.152a1,1,0,0,0,.025-1.07,9.873,9.873,0,0,1-1.123-2.71,1,1,0,0,0-.774-.738L27,37.18V34.82l2.536-.508a1,1,0,0,0,.774-.738,9.873,9.873,0,0,1,1.123-2.71,1,1,0,0,0-.025-1.07l-1.435-2.152,1.669-1.669,2.152,1.435a1,1,0,0,0,1.07.025,9.922,9.922,0,0,1,2.71-1.123,1,1,0,0,0,.738-.774L38.82,23h2.36l.507,2.536a1,1,0,0,0,.739.774,9.873,9.873,0,0,1,2.71,1.123,1,1,0,0,0,1.07-.025l2.152-1.435,1.669,1.669-1.435,2.152a1,1,0,0,0-.025,1.07,9.873,9.873,0,0,1,1.123,2.71,1,1,0,0,0,.774.738Z"></path><path d="M40,29a7,7,0,1,0,7,7A7.008,7.008,0,0,0,40,29Zm0,12a5,5,0,1,1,5-5A5.006,5.006,0,0,1,40,41Z"></path><path d="M17,44a6,6,0,1,0,6,6A6.006,6.006,0,0,0,17,44Zm0,10a4,4,0,1,1,4-4A4,4,0,0,1,17,54Z"></path><path d="M27.024,55.809l-1-1.5a9.99,9.99,0,0,0,.4-.971L28.2,52.98A1,1,0,0,0,29,52V48a1,1,0,0,0-.8-.98l-1.774-.355a9.99,9.99,0,0,0-.4-.971l1-1.5a1,1,0,0,0-.125-1.262L24.071,40.1a1,1,0,0,0-1.262-.125l-1.5,1a9.99,9.99,0,0,0-.971-.4L19.98,38.8A1,1,0,0,0,19,38H15a1,1,0,0,0-.98.8l-.355,1.774a9.99,9.99,0,0,0-.971.4l-1.5-1a1,1,0,0,0-1.262.125L7.1,42.929a1,1,0,0,0-.125,1.262l1,1.5a9.99,9.99,0,0,0-.4.971L5.8,47.02A1,1,0,0,0,5,48v4a1,1,0,0,0,.8.98l1.774.355a9.99,9.99,0,0,0,.4.971l-1,1.5A1,1,0,0,0,7.1,57.071L9.929,59.9a1,1,0,0,0,1.262.125l1.5-1a9.99,9.99,0,0,0,.971.4L14.02,61.2A1,1,0,0,0,15,62h4a1,1,0,0,0,.98-.8l.355-1.774a9.99,9.99,0,0,0,.971-.4l1.5,1a1,1,0,0,0,1.262-.125L26.9,57.071A1,1,0,0,0,27.024,55.809ZM24.687,52.2a8,8,0,0,1-.7,1.689,1,1,0,0,0,.041,1.041l.874,1.31-1.67,1.67-1.31-.874a1,1,0,0,0-1.041-.041,8,8,0,0,1-1.689.7,1,1,0,0,0-.706.765L18.18,60H15.82l-.31-1.548a1,1,0,0,0-.706-.765,8,8,0,0,1-1.689-.7,1,1,0,0,0-1.041.041l-1.31.874-1.67-1.67.874-1.31a1,1,0,0,0,.041-1.041,8,8,0,0,1-.7-1.689,1,1,0,0,0-.765-.706L7,51.18V48.82l1.548-.31a1,1,0,0,0,.765-.706,8,8,0,0,1,.7-1.689,1,1,0,0,0-.041-1.041l-.874-1.31,1.67-1.67,1.31.874a1,1,0,0,0,1.041.041,8,8,0,0,1,1.689-.7,1,1,0,0,0,.706-.765L15.82,40h2.36l.31,1.548a1,1,0,0,0,.706.765,8,8,0,0,1,1.689.7,1,1,0,0,0,1.041-.041l1.31-.874,1.67,1.67-.874,1.31a1,1,0,0,0-.041,1.041,8,8,0,0,1,.7,1.689,1,1,0,0,0,.765.706L27,48.82v2.36l-1.548.31A1,1,0,0,0,24.687,52.2Z"></path><rect x="23" y="8" width="2" height="2"></rect><rect x="27" y="8" width="2" height="2"></rect><rect x="31" y="8" width="4" height="2"></rect><rect x="23" y="12" width="12" height="2"></rect><path d="M10,13h5V11H9a1,1,0,0,0-1,1V30h2Z"></path><rect x="8" y="32" width="2" height="2"></rect><rect x="8" y="36" width="2" height="2"></rect><path d="M46,60H27v2H47a1,1,0,0,0,1-1V58H46Z"></path></g></svg>