<svg xmlns="http://www.w3.org/2000/svg" viewBox="0 0 64 64" x="0px" y="0px"><title>Graph-Report</title><g data-name="Graph-Report"><path d="M17,20H15V43a1,1,0,0,0,1,1H49V42H18.414l5-5H33a1,1,0,0,0,.707-.293L45,25.414V29h2V23a1,1,0,0,0-1-1H40v2h3.586l-11,11H23a1,1,0,0,0-.707.293L17,40.586Z"></path><rect x="19" y="46" width="8" height="2"></rect><rect x="29" y="46" width="8" height="2"></rect><rect x="39" y="46" width="8" height="2"></rect><path d="M55,2H9A2,2,0,0,0,7,4V60a2,2,0,0,0,2,2H55a2,2,0,0,0,2-2V4A2,2,0,0,0,55,2ZM40,4V6H24V4ZM23,12H41a1,1,0,0,0,1-1V8h9V56H13V8h9v3A1,1,0,0,0,23,12Zm17-2H24V8H40ZM9,60V4H22V6H12a1,1,0,0,0-1,1V57a1,1,0,0,0,1,1H52a1,1,0,0,0,1-1V7a1,1,0,0,0-1-1H42V4H55V60Z"></path></g></svg>