<svg xmlns="http://www.w3.org/2000/svg" viewBox="0 0 64 64" x="0px" y="0px"><g data-name="Pencil Case"><path d="M52,30H48V19a1,1,0,0,0-.1-.447L45,12.764V9a3,3,0,0,0-6,0v3.764l-2.9,5.789A1,1,0,0,0,36,19V30H35V12a2,2,0,0,0-2-2H32V7a1,1,0,0,0-1-1H30V3a1,1,0,0,0-1-1H17a1,1,0,0,0-1,1V30H12a2,2,0,0,0-2,2v4a2,2,0,0,0,2,2h2.08L16,61.083A1,1,0,0,0,17,62H47a1,1,0,0,0,1-.917L49.92,38H52a2,2,0,0,0,2-2V32A2,2,0,0,0,52,30ZM40.618,14h2.764l2.237,4.475L42,19.923l-3.619-1.448ZM43,21.677l3-1.2V30H43ZM41,9a1,1,0,0,1,2,0v3H41ZM38,20.477l3,1.2V30H38ZM25,16h1v7a3,3,0,0,0,6,0V16h1V30H25Zm3,0h2v7a1,1,0,0,1-2,0Zm5-2H25V12h8Zm-5-4V8h2v2ZM18,26h2V24H18V20h3V18H18V14h2V12H18V8h2V6H18V4H28V6H27a1,1,0,0,0-1,1v3H25a2,2,0,0,0-2,2V30H18ZM46.08,60H17.92L16.087,38H47.913ZM12,36V32H52v4Z"></path></g></svg>