<svg xmlns="http://www.w3.org/2000/svg" viewBox="0 0 64 64" x="0px" y="0px"><g data-name="Smartphone-Mobile Phone-Laptop-Wifi-Internet"><path d="M17,32H7a5.006,5.006,0,0,0-5,5V57a5.006,5.006,0,0,0,5,5H17a5.006,5.006,0,0,0,5-5V37A5.006,5.006,0,0,0,17,32Zm3,25a3,3,0,0,1-3,3H7a3,3,0,0,1-3-3V37a3,3,0,0,1,3-3H17a3,3,0,0,1,3,3Z"></path><rect x="10" y="36" width="4" height="2"></rect><rect x="6" y="36" width="2" height="2"></rect><rect x="10" y="56" width="4" height="2"></rect><rect x="7" y="42" width="10" height="2"></rect><rect x="7" y="46" width="10" height="2"></rect><rect x="7" y="50" width="10" height="2"></rect><path d="M57,32H47a5.006,5.006,0,0,0-5,5V57a5.006,5.006,0,0,0,5,5H57a5.006,5.006,0,0,0,5-5V37A5.006,5.006,0,0,0,57,32Zm3,25a3,3,0,0,1-3,3H47a3,3,0,0,1-3-3V37a3,3,0,0,1,3-3H57a3,3,0,0,1,3,3Z"></path><rect x="50" y="36" width="4" height="2"></rect><rect x="46" y="36" width="2" height="2"></rect><rect x="50" y="56" width="4" height="2"></rect><rect x="47" y="42" width="10" height="2"></rect><rect x="47" y="46" width="10" height="2"></rect><rect x="47" y="50" width="10" height="2"></rect><rect x="24" y="46" width="4" height="2"></rect><rect x="30" y="46" width="2" height="2"></rect><rect x="34" y="46" width="2" height="2"></rect><rect x="38" y="46" width="2" height="2"></rect><rect x="24" y="50" width="2" height="2"></rect><rect x="28" y="50" width="2" height="2"></rect><rect x="32" y="50" width="2" height="2"></rect><rect x="36" y="50" width="4" height="2"></rect><path d="M18,26H46a3,3,0,0,0,3-3V21a1,1,0,0,0-1-1H47V5a3,3,0,0,0-3-3H20a3,3,0,0,0-3,3V20H16a1,1,0,0,0-1,1v2A3,3,0,0,0,18,26ZM19,5a1,1,0,0,1,1-1H44a1,1,0,0,1,1,1V20H19ZM17,22H47v1a1,1,0,0,1-1,1H18a1,1,0,0,1-1-1Z"></path><rect x="23" y="7" width="2" height="2"></rect><rect x="27" y="7" width="14" height="2"></rect><rect x="23" y="11" width="5" height="2"></rect><rect x="30" y="11" width="2" height="2"></rect><rect x="34" y="11" width="7" height="2"></rect><rect x="23" y="15" width="18" height="2"></rect><rect x="31" y="38" width="2" height="2"></rect><path d="M35.536,35.464a5.008,5.008,0,0,0-7.072,0l1.414,1.414a3.006,3.006,0,0,1,4.244,0Z"></path><path d="M38.364,32.636a9,9,0,0,0-12.728,0L27.05,34.05a7,7,0,0,1,9.9,0Z"></path></g></svg>