<svg xmlns="http://www.w3.org/2000/svg" viewBox="0 0 64 64" x="0px" y="0px"><g><path d="M60.918,24.955a25.066,25.066,0,0,0-23.289-22.9A24.788,24.788,0,0,0,18.9,8.768,25.1,25.1,0,0,0,11,26.61L2.78,35.655A2,2,0,0,0,4.261,39H9v6a7.008,7.008,0,0,0,7,7h8v9a1,1,0,0,0,1,1H53a1,1,0,0,0,1-1V44.348A25.035,25.035,0,0,0,60.918,24.955ZM52.292,43.233l0,.006a23.139,23.139,0,0,1-4.668,3.615l1.011,1.725A25.1,25.1,0,0,0,52,46.194V60H26V52a2,2,0,0,0-2-2H16a5.006,5.006,0,0,1-5-5V38a1,1,0,0,0-1-1H4.26l8.48-9.327A1,1,0,0,0,13,27,23,23,0,0,1,37.5,4.048,23.055,23.055,0,0,1,58.924,25.113h0A23.033,23.033,0,0,1,52.292,43.233Z"></path><path d="M45.317,21.753a10.724,10.724,0,0,0,3.019-5.667c.328-1.8.122-3.043-.629-3.793s-1.992-.956-3.793-.629a10.724,10.724,0,0,0-5.667,3.019l-1.875,1.874A3.014,3.014,0,0,0,33.3,16.2l-5.2,2.364a2,2,0,0,0-.587,3.235l2.515,2.515a1,1,0,0,0,.707.293.981.981,0,0,0,.316-.051l1.1-.368L31.47,25.56a3,3,0,0,0-2.148.875c-.823.824-2.873,4.2-1.414,5.657a1.885,1.885,0,0,0,1.385.511,7.671,7.671,0,0,0,4.272-1.925h0a2.992,2.992,0,0,0,.875-2.148l1.373-.686-.368,1.1a1,1,0,0,0,.242,1.023L38.2,32.486a2,2,0,0,0,1.414.586,2.06,2.06,0,0,0,.357-.032A2,2,0,0,0,41.436,31.9L43.8,26.7a3.015,3.015,0,0,0-.359-3.068ZM39.661,16.1a8.733,8.733,0,0,1,4.61-2.465c1.3-.237,1.882-.064,2.022.075s.311.722.075,2.021A8.732,8.732,0,0,1,43.9,20.339l-6.095,6.1-1.415-1.414,4.243-4.243-1.414-1.414-4.243,4.243-1.414-1.415Zm-8.655,6.365-2.077-2.078,5.2-2.364a.99.99,0,0,1,.786-.008l-3.473,3.473a.983.983,0,0,0-.253.916Zm1.145,6.8a6.206,6.206,0,0,1-2.769,1.354,6.2,6.2,0,0,1,1.354-2.768,1,1,0,1,1,1.415,1.414Zm1.414-2.829,0,0-.194-.194.471-.943.866.866-.943.471-.2-.2Zm8.416-.566-2.365,5.2-2.078-2.078.061-.185a1.014,1.014,0,0,0,.209.04,1,1,0,0,0,.707-.293l3.472-3.472A1,1,0,0,1,41.981,25.869Z"></path><path d="M43.223,18.973l1.9-.633-.707-2.121a1,1,0,0,0-.632-.632L41.66,14.88l-.633,1.9,1.647.549Z"></path><rect x="32.979" y="33.92" width="4" height="2" transform="translate(-14.447 34.962) rotate(-45)"></rect><rect x="23.08" y="24.021" width="4" height="2" transform="translate(-10.347 25.063) rotate(-45)"></rect><rect x="47.828" y="24.728" width="4" height="2" transform="translate(-3.598 42.769) rotate(-45)"></rect><rect x="45.293" y="28.264" width="2" height="2" transform="translate(-7.133 41.305) rotate(-45)"></rect><rect x="32.272" y="9.172" width="4" height="2" transform="translate(2.846 27.213) rotate(-45)"></rect><rect x="29.737" y="12.707" width="2" height="2" transform="translate(-0.69 25.749) rotate(-45)"></rect></g></svg>