<svg xmlns="http://www.w3.org/2000/svg" viewBox="0 0 64 64" x="0px" y="0px"><g data-name="Presentaion connection"><rect x="23" y="58" width="18" height="2"></rect><rect x="30" y="50" width="4" height="6"></rect><rect x="4" y="46" width="56" height="2"></rect><path d="M6,44H58V12H6ZM30,16H54V32H35.414L30,37.414ZM10,20H28V39.414L20.586,32H10Z"></path><rect x="30" y="4" width="4" height="2"></rect><rect x="4" y="8" width="56" height="2"></rect><path d="M52,18H32V32.586L34.586,30H52ZM34,21h2v2H34Zm16,6H34V25H50Zm0-4H38V21H50Z"></path><path d="M26,34.586V22H12v8h9.414ZM22,25h2v2H22Zm-6,2H14V25h2Zm4,0H18V25h2Z"></path></g></svg>