<svg xmlns="http://www.w3.org/2000/svg" viewBox="0 0 64 64" x="0px" y="0px"><g data-name="Logistic"><path d="M54,41H42a2,2,0,0,0-2,2V53a2,2,0,0,0,2,2H54a2,2,0,0,0,2-2V43A2,2,0,0,0,54,41Zm0,4H51V43h3Zm-5-2v4H47V43Zm-4,0v2H42V43ZM42,53V47h3v1a1,1,0,0,0,1,1h4a1,1,0,0,0,1-1V47h3v6Z"></path><path d="M33,59.974V33H59.974a28.07,28.07,0,0,1-.58,4.824l1.957.414A29.969,29.969,0,1,0,38.2,61.358L37.791,59.4A28.2,28.2,0,0,1,33,59.974ZM20.987,49.256A27.963,27.963,0,0,1,31,47.023v12.9C26.942,59.344,23.359,55.3,20.987,49.256ZM31,45.023a29.975,29.975,0,0,0-10.693,2.35A49.18,49.18,0,0,1,18.013,33H31ZM33,4.079c4.058.577,7.641,4.623,10.013,10.665A27.963,27.963,0,0,1,33,16.977Zm-2,0v12.9a27.963,27.963,0,0,1-10.013-2.233C23.359,8.7,26.942,4.656,31,4.079Zm0,14.9V31H18.013a49.18,49.18,0,0,1,2.294-14.373A29.975,29.975,0,0,0,31,18.977Zm2,0a29.975,29.975,0,0,0,10.693-2.35A49.18,49.18,0,0,1,45.987,31H33ZM59.975,31H47.987a50.766,50.766,0,0,0-2.459-15.222,30.016,30.016,0,0,0,5.9-3.917A27.921,27.921,0,0,1,59.975,31ZM49.927,10.512a28.039,28.039,0,0,1-5.09,3.371,23.581,23.581,0,0,0-5.892-9.01A27.929,27.929,0,0,1,49.927,10.512ZM19.163,13.883a28.039,28.039,0,0,1-5.09-3.371A27.929,27.929,0,0,1,25.055,4.873,23.581,23.581,0,0,0,19.163,13.883Zm-6.587-2.022a30.016,30.016,0,0,0,5.9,3.917A50.766,50.766,0,0,0,16.013,31H4.025A27.921,27.921,0,0,1,12.576,11.861ZM4.025,33H16.013a50.766,50.766,0,0,0,2.459,15.222,30.016,30.016,0,0,0-5.9,3.917A27.921,27.921,0,0,1,4.025,33ZM14.073,53.488a28.039,28.039,0,0,1,5.09-3.371,23.581,23.581,0,0,0,5.892,9.01A27.929,27.929,0,0,1,14.073,53.488Z"></path><path d="M48,34A14,14,0,1,0,62,48,14.015,14.015,0,0,0,48,34Zm0,26A12,12,0,1,1,60,48,12.013,12.013,0,0,1,48,60Z"></path></g></svg>