<svg xmlns="http://www.w3.org/2000/svg" viewBox="0 0 64 64" x="0px" y="0px"><g data-name="Cloud-Cancle-Remove-Cloud Computing-Data"><path d="M32.707,43.879a1.029,1.029,0,0,1-1.414,0L28.465,41.05,27.05,42.465l2.829,2.828a1,1,0,0,1,0,1.414L27.05,49.535l1.415,1.415,2.828-2.829a1,1,0,0,1,1.414,0l2.828,2.829,1.415-1.415-2.829-2.828a1,1,0,0,1,0-1.414l2.829-2.828L35.535,41.05Z"></path><path d="M50.825,20.166a1,1,0,0,1-.835-.986c0-.028.006-.144.008-.171A8.008,8.008,0,0,0,42,11a7.838,7.838,0,0,0-2.351.354,1,1,0,0,1-1.18-.481A13,13,0,0,0,14,17a12.851,12.851,0,0,0,.168,2,1,1,0,0,1-.837,1.143A10.994,10.994,0,0,0,15,42h1.527a15.976,15.976,0,0,1,30.946,0H49a10.993,10.993,0,0,0,1.825-21.834ZM27,9a8.009,8.009,0,0,0-8,8H17A10.011,10.011,0,0,1,27,7ZM49,39V37a6.006,6.006,0,0,0,6-6h2A8.009,8.009,0,0,1,49,39Z"></path><path d="M32,32A14,14,0,1,0,46,46,14.015,14.015,0,0,0,32,32Zm7.071,16.828a1,1,0,0,1,0,1.414l-2.829,2.829a1,1,0,0,1-1.414,0L32,50.242l-2.828,2.829a1.029,1.029,0,0,1-1.414,0l-2.829-2.829a1,1,0,0,1,0-1.414L27.758,46l-2.829-2.828a1,1,0,0,1,0-1.414l2.829-2.829a1,1,0,0,1,1.414,0L32,41.758l2.828-2.829a1.029,1.029,0,0,1,1.414,0l2.829,2.829a1,1,0,0,1,0,1.414L36.242,46Z"></path></g></svg>