<svg xmlns="http://www.w3.org/2000/svg" viewBox="0 0 64 64" x="0px" y="0px"><g><path d="M55.71,56.29l-6-6A1.033,1.033,0,0,0,49,50H19V48a3.009,3.009,0,0,0-3-3H12a1,1,0,0,1,0-2h4a3.009,3.009,0,0,0,3-3V38h7v4H22a1,1,0,0,0-1,1v4a1,1,0,0,0,1,1H42a1,1,0,0,0,1-1V43a1,1,0,0,0-1-1H38V38H52a3.009,3.009,0,0,0,3-3V9a3.009,3.009,0,0,0-3-3H40V8H52a1,1,0,0,1,1,1V30H11V9a1,1,0,0,1,1-1H25V6H12A3.009,3.009,0,0,0,9,9V35a3.009,3.009,0,0,0,3,3h5v2a1,1,0,0,1-1,1H12a3,3,0,0,0,0,6h4a1,1,0,0,1,1,1v2H15a1.033,1.033,0,0,0-.71.29l-6,6A1.033,1.033,0,0,0,8,57v3a2.006,2.006,0,0,0,2,2H54a2.006,2.006,0,0,0,2-2V57A1.033,1.033,0,0,0,55.71,56.29ZM41,44v2H23V44ZM28,42V38h8v4ZM12,36a1,1,0,0,1-1-1V32H53v3a1,1,0,0,1-1,1Zm3.41,16H48.59l4,4H11.41ZM54,60H10V58H54Z"></path><rect x="47" y="33" width="2" height="2"></rect><path d="M19.56,20.525A11.367,11.367,0,0,0,23,27.005a7.266,7.266,0,0,0,6.177,1.98,6.467,6.467,0,0,0,1.555-.483,3.074,3.074,0,0,1,2.541,0,6.446,6.446,0,0,0,1.556.484,6.621,6.621,0,0,0,1.146.1A7.5,7.5,0,0,0,41,27.005a11.368,11.368,0,0,0,3.437-6.479c.958-5.43-1.8-10.471-6.14-11.237a6.794,6.794,0,0,0-4.068.572,5.242,5.242,0,0,1-1.166.384c-.009-.347-.034-.731-.081-1.139a5.682,5.682,0,0,0,3.964-1.813A5.311,5.311,0,0,0,38.6,2.027a1,1,0,0,0-.631-.632A5.316,5.316,0,0,0,32.707,3.05,6.463,6.463,0,0,0,31.39,4.9,5.325,5.325,0,0,0,28.2,3.019l-.39,1.962c2.7.537,3.226,3.375,3.267,5.287a5.259,5.259,0,0,1-1.3-.407A6.8,6.8,0,0,0,25.7,9.289C21.356,10.055,18.6,15.1,19.56,20.525ZM34.121,4.464a3.748,3.748,0,0,1,2.65-1.236,3.743,3.743,0,0,1-1.236,2.651,3.754,3.754,0,0,1-2.649,1.237A3.746,3.746,0,0,1,34.121,4.464Zm-8.073,6.794a4.754,4.754,0,0,1,2.874.415,7.26,7.26,0,0,0,6.156,0,4.759,4.759,0,0,1,2.874-.415c3.258.575,5.285,4.576,4.52,8.921a9.374,9.374,0,0,1-2.81,5.343,5.315,5.315,0,0,1-4.488,1.493,4.469,4.469,0,0,1-1.077-.334,5.072,5.072,0,0,0-4.195,0,4.448,4.448,0,0,1-1.076.334,5.316,5.316,0,0,1-4.488-1.493,9.374,9.374,0,0,1-2.81-5.344C20.763,15.834,22.79,11.833,26.048,11.258Z"></path><path d="M40.424,20.218l-1.951-.436c-.493,2.2-1.876,3.3-2.513,3.3v2C37.853,25.084,39.813,22.947,40.424,20.218Z"></path></g></svg>