<svg xmlns="http://www.w3.org/2000/svg" viewBox="0 0 48 48" x="0px" y="0px"><g data-name="Shipping"><polygon points="5 16 5 19 7.234 19 5.434 16 5 16"></polygon><path d="M44,25H40a1,1,0,0,1-1-1V21H5v2.279L16.177,27H44ZM29,24H27V22h2Zm4,0H31V22h2Zm4,0H35V22h2Z"></path><polygon points="14.943 7 23.515 19 29.707 19 18.564 7 14.943 7"></polygon><polygon points="41 23 42.149 23 41 22.081 41 23"></polygon><polygon points="29.707 29 23.515 29 14.943 41 18.564 41 29.707 29"></polygon><rect x="23" y="22" width="2" height="2"></rect><rect x="19" y="22" width="2" height="2"></rect><rect x="15" y="22" width="2" height="2"></rect><rect x="6" y="7" width="5" height="2"></rect><rect x="2" y="7" width="2" height="2"></rect><rect x="7" y="11" width="6" height="2"></rect><rect x="3" y="11" width="2" height="2"></rect><rect x="6" y="31" width="5" height="2"></rect><rect x="2" y="31" width="2" height="2"></rect><rect x="7" y="35" width="6" height="2"></rect><rect x="3" y="35" width="2" height="2"></rect></g></svg>