<svg xmlns="http://www.w3.org/2000/svg" viewBox="0 0 64 64" x="0px" y="0px"><g data-name="Coffee Cup-Hot Coffee-Break-Coffee-Hot Drink"><path d="M50,56H4v1a3.009,3.009,0,0,0,3,3H47a3.009,3.009,0,0,0,3-3Z"></path><path d="M58.76,39.19A5.656,5.656,0,0,0,54.34,30H50v2h4.34a3.659,3.659,0,0,1,.8,7.23l-6.3,1.4c-.23.76-.51,1.5-.81,2.23l7.54-1.68A5.6,5.6,0,0,0,58.76,39.19Z"></path><path d="M48,30H4v3A22.87,22.87,0,0,0,17.28,54H34.72A22.87,22.87,0,0,0,48,33ZM9.335,44.537a21.272,21.272,0,0,1-1.174-2.1l1.8-.876a19.124,19.124,0,0,0,1.063,1.9Zm8.227,7.4a20.364,20.364,0,0,1-6.7-5.3l1.541-1.275a18.325,18.325,0,0,0,6.033,4.773Z"></path><path d="M23.9,24h2a5.266,5.266,0,0,1,.957-3.15A7.168,7.168,0,0,0,28.1,16.67a7.172,7.172,0,0,0-1.243-4.182A5.274,5.274,0,0,1,25.9,9.335a5.274,5.274,0,0,1,.957-3.153A7.172,7.172,0,0,0,28.1,2h-2a5.274,5.274,0,0,1-.957,3.153A7.172,7.172,0,0,0,23.9,9.335a7.172,7.172,0,0,0,1.243,4.182A5.274,5.274,0,0,1,26.1,16.67a5.266,5.266,0,0,1-.957,3.15A7.168,7.168,0,0,0,23.9,24Z"></path><path d="M33.9,24h2a5.266,5.266,0,0,1,.957-3.15A7.168,7.168,0,0,0,38.1,16.67a7.172,7.172,0,0,0-1.243-4.182A5.274,5.274,0,0,1,35.9,9.335a5.274,5.274,0,0,1,.957-3.153A7.172,7.172,0,0,0,38.1,2h-2a5.274,5.274,0,0,1-.957,3.153A7.172,7.172,0,0,0,33.9,9.335a7.172,7.172,0,0,0,1.243,4.182A5.274,5.274,0,0,1,36.1,16.67a5.266,5.266,0,0,1-.957,3.15A7.168,7.168,0,0,0,33.9,24Z"></path><path d="M13.9,24h2a5.266,5.266,0,0,1,.957-3.15A7.168,7.168,0,0,0,18.1,16.67a7.172,7.172,0,0,0-1.243-4.182A5.274,5.274,0,0,1,15.9,9.335a5.274,5.274,0,0,1,.957-3.153A7.172,7.172,0,0,0,18.1,2h-2a5.274,5.274,0,0,1-.957,3.153A7.172,7.172,0,0,0,13.9,9.335a7.172,7.172,0,0,0,1.243,4.182A5.274,5.274,0,0,1,16.1,16.67a5.266,5.266,0,0,1-.957,3.15A7.168,7.168,0,0,0,13.9,24Z"></path></g></svg>