<svg xmlns="http://www.w3.org/2000/svg" viewBox="0 0 64 64" x="0px" y="0px"><g data-name="Bull Mastiff-Dog"><rect x="39" y="9" width="2" height="2"></rect><rect x="49" y="9" width="2" height="2"></rect><path d="M52,6H47a1,1,0,0,0-1,1v5H44V7a1,1,0,0,0-1-1H38a1,1,0,0,0-.948.684l-1,3A1,1,0,0,0,36,10v3a1,1,0,0,0,.445.832l2.064,1.376-1.366,2.277A1,1,0,0,0,37,18v7a1,1,0,0,0,1,1h4a1,1,0,0,0,.707-.293L43.414,25h3.172l.707.707A1,1,0,0,0,48,26h4a1,1,0,0,0,1-1V18a1,1,0,0,0-.143-.515l-1.366-2.277,2.064-1.376A1,1,0,0,0,54,13V10a1,1,0,0,0-.052-.316l-1-3A1,1,0,0,0,52,6ZM45.382,16h-.764L44,14.764V14h2v.764ZM38,12.465v-2.3L38.721,8H42v4H41a1,1,0,0,0-.857.485l-.6,1.006ZM51,24H48.414l-.707-.707A1,1,0,0,0,47,23H43a1,1,0,0,0-.707.293L41.586,24H39V18.277L41.566,14H42v1a1,1,0,0,0,.1.447l1,2A1,1,0,0,0,44,18v.764L43.382,20h-.764L41.9,18.553l-1.79.894,1,2A1,1,0,0,0,42,22h2a1,1,0,0,0,.9-.553l.1-.211.1.211A1,1,0,0,0,46,22h2a1,1,0,0,0,.9-.553l1-2-1.79-.894L47.382,20h-.764L46,18.764V18a1,1,0,0,0,.9-.553l1-2A1,1,0,0,0,48,15V14h.434L51,18.277Zm1-11.535-1.539,1.026-.6-1.006A1,1,0,0,0,49,12H48V8h3.279L52,10.162Z"></path><path d="M61,2H30a1,1,0,0,0-1,1V13a1,1,0,0,0,.669.944A1.023,1.023,0,0,0,30,14a1,1,0,0,0,.781-.375L33,10.851V25H16a7.009,7.009,0,0,0-6.7,5H3a1,1,0,0,0-1,1,5.006,5.006,0,0,0,5,5H9V61a1,1,0,0,0,1,1h5a1,1,0,0,0,1-1V50.414l2.707-2.707A1,1,0,0,0,19,47V43.28l1,.25V59a1,1,0,0,0,1,1h6a1,1,0,0,0,1-1V45.861l3.717,1.1A1,1,0,0,0,32,47h2V61a1,1,0,0,0,1,1h6a1,1,0,0,0,1-1V47h7V61a1,1,0,0,0,1,1h6a1,1,0,0,0,1-1V9.6l3.219,4.024A1,1,0,0,0,61,14a1.027,1.027,0,0,0,.331-.056A1,1,0,0,0,62,13V3A1,1,0,0,0,61,2ZM31,4h4.919L31,10.149ZM7,34a3.006,3.006,0,0,1-2.829-2H9v2ZM26,58H22V44.088l4,1.182Zm25,2V46a1,1,0,0,0-1-1H41a1,1,0,0,0-1,1V60H36V46a1,1,0,0,0-1-1H32.145L19,41.219V40H17v6.586l-2.707,2.707A1,1,0,0,0,14,50V60H11V32a5.006,5.006,0,0,1,5-5H33v2a1,1,0,0,0,1,1H55V60Zm4-32H35V8.351L38.481,4H52.519L55,7.1Zm5-17.851L55.081,4H60Z"></path><path d="M41,32v2c.408,0,1,.779,1,2h2C44,33.757,42.683,32,41,32Z"></path><path d="M46,36h2c0-1.221.592-2,1-2V32C47.317,32,46,33.757,46,36Z"></path><path d="M41,40v2c1.683,0,3-1.757,3-4H42C42,39.221,41.408,40,41,40Z"></path><path d="M48,38H46c0,2.243,1.317,4,3,4V40C48.592,40,48,39.221,48,38Z"></path></g></svg>