<svg xmlns="http://www.w3.org/2000/svg" viewBox="0 0 64 64" x="0px" y="0px"><g><path d="M60,27V7H36v7a1.006,1.006,0,0,1-.168.555L32.869,19H35a1,1,0,0,1,1,1v7ZM39,12H57v2H39Zm0,4H57v2H39Zm0,4H57v2H39Z"></path><path d="M60,57V37H36v7a1,1,0,0,1-1,1H32.869l2.963,4.445A1.006,1.006,0,0,1,36,50v7ZM39,42H57v2H39Zm0,4H57v2H39Zm0,4H57v2H39Z"></path><path d="M28,35.586V31.3L26.845,29.57,26,30.414V31H24V30a1,1,0,0,1,.293-.707L26,27.586V24.414L24.586,23H22.414L21,24.414V25H19V24a1,1,0,0,1,.293-.707l1.563-1.563L20.279,20H18.414L17,21.414V42.586L18.414,44h1.865l.577-1.73-1.563-1.563A1,1,0,0,1,19,40V39h2v.586l1.307,1.307L25,40.219V35h2v1.586ZM19,30V27h2v2.586l1.707,1.707-1.414,1.414-2-2A1,1,0,0,1,19,30Zm4,8H21V36.414l-.707-.707,1.414-1.414,1,1A1,1,0,0,1,23,36Z"></path><path d="M12.707,40.707,11.144,42.27,11.721,44h1.865L15,42.586V21.414L13.586,20H11.721l-.577,1.73,1.563,1.563A1,1,0,0,1,13,24v1H11v-.586L9.586,23H7.414L6,24.414v3.172l1.707,1.707A1,1,0,0,1,8,30v1H6v-.586l-.845-.844L4,31.3v4.283l1,1V35H7v5.219l2.693.674L11,39.586V39h2v1A1,1,0,0,1,12.707,40.707ZM11,36.414V38H9V36a1,1,0,0,1,.293-.707l1-1,1.414,1.414Zm1.707-5.707-2,2L9.293,31.293,11,29.586V27h2v3A1,1,0,0,1,12.707,30.707Z"></path></g></svg>