<svg xmlns="http://www.w3.org/2000/svg" viewBox="0 0 48 48" x="0px" y="0px"><g><path d="M42,6v8H40V4H29.42a4.956,4.956,0,0,0-2.24.53L25,5.62V31.38l1.29-.64A7.031,7.031,0,0,1,29.42,30v2a4.956,4.956,0,0,0-2.24.53l-2.73,1.36c-.02.01-.03.01-.05.02a.934.934,0,0,1-.8,0c-.02-.01-.03-.01-.05-.02l-2.73-1.36A4.956,4.956,0,0,0,18.58,32H7.08A1.076,1.076,0,0,1,6,30.92V6H4V33H19.76a2.992,2.992,0,0,1,2.69,1.66l.17.34h2.76l.17-.34A2.992,2.992,0,0,1,28.24,33H37V31.93a8,8,0,1,1,7-13.21V6Zm-4,6H28V10H38Zm0-4H28V6H38Z"></path><path d="M20.82,4.53A4.956,4.956,0,0,0,18.58,4H8V30H18.58a7.031,7.031,0,0,1,3.13.74l1.29.64V5.62ZM20,28H10V26H20Zm0-4H10V22H20Zm0-4H10V18H20Zm0-4H10V14H20Zm0-4H10V10H20Zm0-4H10V6H20Z"></path><path d="M38,18a6,6,0,1,0,6,6A6,6,0,0,0,38,18Zm0,4a2.006,2.006,0,0,0-2,2H34a4,4,0,0,1,4-4Z"></path><path d="M44,29.27a7.959,7.959,0,0,1-5,2.66V33h5Z"></path><path d="M38,44a1,1,0,0,0,1-1V37a1,1,0,0,0-2,0v6A1,1,0,0,0,38,44Z"></path></g></svg>