<svg xmlns="http://www.w3.org/2000/svg" viewBox="0 0 64 64" x="0px" y="0px"><g><path d="M60,12H4V39.026A4.948,4.948,0,0,1,7,38H57a4.948,4.948,0,0,1,3,1.026ZM30,15H42v2H30Zm0,4H42v2H30ZM8,15a1,1,0,0,1,1-1H25a1,1,0,0,1,1,1V25a1,1,0,0,1-1,1H9a1,1,0,0,1-1-1ZM8,28h2v2H8Zm22,6H8V32H30Zm0-4H12V28H30Zm0-7H42v2H30ZM56,34H34V32H56Zm0-4H34V28H56Zm0-5H44V23H56Zm0-4H44V19H56Zm0-4H44V15H56Z"></path><path d="M60,43a3,3,0,0,0-3-3H7a3,3,0,0,0-3,3V57a3,3,0,0,0,3,3H9V54a3,3,0,0,1,4-2.829V51a3,3,0,0,1,4.472-2.613,3,3,0,0,1,5.056,0A3,3,0,0,1,27,51v1.171A3,3,0,0,1,31,55v5h2V55a3,3,0,0,1,4-2.829V51a3,3,0,0,1,4.472-2.613,3,3,0,0,1,5.056,0A3,3,0,0,1,51,51v.171A3,3,0,0,1,55,54v6h2a3,3,0,0,0,3-3ZM11,48H9V46h2Zm0-4H9V42h2Zm4,4H13V46h2Zm0-4H13V42h2Zm4,0H17V42h2Zm4,0H21V42h2Zm4,4H25V46h2Zm0-4H25V42h2Zm4,8H29V50h2Zm0-4H29V46h2Zm0-4H29V42h2Zm4,8H33V50h2Zm0-4H33V46h2Zm0-4H33V42h2Zm4,4H37V46h2Zm0-4H37V42h2Zm4,0H41V42h2Zm4,0H45V42h2Zm4,4H49V46h2Zm0-4H49V42h2Zm4,4H53V46h2Zm0-4H53V42h2Z"></path><rect x="10" y="16" width="14" height="8"></rect><path d="M36,54a1,1,0,0,0-1,1v5H53V54a1,1,0,0,0-2,0v2a1,1,0,0,1-2,0V51a1,1,0,0,0-2,0v5a1,1,0,0,1-2,0V50a1,1,0,0,0-2,0v6a1,1,0,0,1-2,0V51a1,1,0,0,0-2,0v7a1,1,0,0,1-2,0V55A1,1,0,0,0,36,54Z"></path><path d="M12,53a1,1,0,0,0-1,1v6H29V55a1,1,0,0,0-2,0v3a1,1,0,0,1-2,0V51a1,1,0,0,0-2,0v5a1,1,0,0,1-2,0V50a1,1,0,0,0-2,0v6a1,1,0,0,1-2,0V51a1,1,0,0,0-2,0v5a1,1,0,0,1-2,0V54A1,1,0,0,0,12,53Z"></path><path d="M60,7a3,3,0,0,0-3-3H7A3,3,0,0,0,4,7v3H60ZM10,8H8V6h2Zm4,0H12V6h2Zm4,0H16V6h2Z"></path></g></svg>