<svg xmlns="http://www.w3.org/2000/svg" viewBox="0 0 64 64" x="0px" y="0px"><g><path d="M11.168,7.445a1.039,1.039,0,0,1,1.664,0L13,7.7V4H11V7.7Z"></path><path d="M33.62,19.52a8.66,8.66,0,0,0-5-1.52H20v2h6v2H20v2h8.62a8.66,8.66,0,0,0,5-1.52C34.71,21.73,35,21.2,35,21S34.71,20.27,33.62,19.52Zm-1.73,1.93-1,2-1.78-.9L29.88,21l-.77-1.55,1.78-.9,1,2A.956.956,0,0,1,31.89,21.45Z"></path><path d="M18.174,25.531,18,25.618v2.939l5.351-2.007a.993.993,0,0,0,.56-.55H19A.982.982,0,0,1,18.174,25.531Z"></path><path d="M58.95,28.64A17.152,17.152,0,0,0,43.92,13.11a16.824,16.824,0,0,0-11.36,2.75L31.44,14.2a19.117,19.117,0,0,1,12.7-3.08c.29.03.57.07.86.12V5a1,1,0,0,0-1-1H15v7a1.008,1.008,0,0,1-.71.96A.967.967,0,0,1,14,12a.984.984,0,0,1-.83-.45L12,9.8l-1.17,1.75a.992.992,0,0,1-1.12.41A1.008,1.008,0,0,1,9,11V4H6A1,1,0,0,0,5,5V59a1,1,0,0,0,1,1H31V52H26a5,5,0,0,1-5-5V41H18.08a2,2,0,0,1-1.56-3.25l5.7-7.12,1.56,1.24L18.08,39H22a1,1,0,0,1,1,1v7a3.009,3.009,0,0,0,3,3h6a1,1,0,0,1,1,1v9H53V43.41a1.022,1.022,0,0,1,.33-.75A16.9,16.9,0,0,0,58.95,28.64ZM34.76,24.13A10.751,10.751,0,0,1,28.62,26H25.97a2.986,2.986,0,0,1-1.92,2.42L18.7,30.43a2.114,2.114,0,0,1-.7.13,2.007,2.007,0,0,1-2-2V25a.977.977,0,0,1,.55-.89l1.04-.52-1.45-.49A3.016,3.016,0,0,1,14,24c-1.28,0-3.62-1.52-4.57-2.18a1,1,0,0,1,0-1.64C10.38,19.52,12.72,18,14,18a3.016,3.016,0,0,1,2.14.9l1.45-.49-1.04-.52A.977.977,0,0,1,16,17V13.44a2,2,0,0,1,2.7-1.87l5.35,2.01A2.986,2.986,0,0,1,25.97,16h2.65a10.751,10.751,0,0,1,6.14,1.87C36.27,18.92,37,19.94,37,21S36.27,23.08,34.76,24.13Z"></path><path d="M19,16h4.911a1,1,0,0,0-.56-.551L18,13.443v2.939l.174.087A.982.982,0,0,1,19,16Z"></path><path d="M14,20a7.443,7.443,0,0,0-2.146,1A7.457,7.457,0,0,0,14,22a1,1,0,0,0,0-2Z"></path><polygon points="18 20.387 17 20.721 17 21.279 18 21.613 18 20.387"></polygon></g></svg>