<svg xmlns="http://www.w3.org/2000/svg" viewBox="0 0 64 64" x="0px" y="0px"><g><polygon points="10.677 4 7.477 12 38.523 12 35.323 4 10.677 4"></polygon><path d="M41,14H36v5a3,3,0,0,0,6,0V15A1,1,0,0,0,41,14Z"></path><path d="M31,22a3,3,0,0,0,3-3V14H28v5A3,3,0,0,0,31,22Z"></path><path d="M7,22a3,3,0,0,0,3-3V14H5a1,1,0,0,0-1,1v4A3,3,0,0,0,7,22Z"></path><path d="M27.167,37.39a.971.971,0,0,0,.785-.624c.127-.342.264-.667.4-.983a.981.981,0,0,0-.1-1.009L25.64,31.29a1,1,0,0,1,.093-1.307l4.25-4.25a1,1,0,0,1,1.307-.092l3.48,2.609a.97.97,0,0,0,.995.109c.334-.144.659-.28.994-.406a.971.971,0,0,0,.631-.78l.476-3.314A5,5,0,0,1,35,21.969a4.954,4.954,0,0,1-8,0,4.954,4.954,0,0,1-8,0,4.954,4.954,0,0,1-8,0A4.994,4.994,0,0,1,8,23.9V42h3V30a2,2,0,0,1,2-2h8a2,2,0,0,1,2,2v7.989Z"></path><rect x="13" y="30" width="8" height="12"></rect><path d="M33.5,54.2l.093-.066a2.958,2.958,0,0,1,3-.314l.095.042c.155.067.314.136.479.194.138.057.2.086.258.106a2.974,2.974,0,0,1,1.943,2.392l.5,3.446h4.268l.5-3.452a2.963,2.963,0,0,1,1.915-2.376c.3-.112.593-.236.879-.36a2.956,2.956,0,0,1,3.011.341l2.781,2.086,3.023-3.023L54.15,50.43a2.964,2.964,0,0,1-.334-3.015c.122-.283.245-.575.358-.877a2.961,2.961,0,0,1,2.38-1.908l3.446-.5V39.866l-3.452-.5a2.963,2.963,0,0,1-2.376-1.915c-.112-.3-.236-.593-.36-.879a2.96,2.96,0,0,1,.341-3.011l2.086-2.781-3.023-3.023L50.43,29.85a2.967,2.967,0,0,1-3.025.33c-.267-.116-.561-.24-.867-.354a2.961,2.961,0,0,1-1.908-2.38L44.134,24H39.866l-.5,3.452a2.963,2.963,0,0,1-1.915,2.376c-.3.112-.593.236-.879.36a2.963,2.963,0,0,1-3.011-.341l-2.781-2.086L27.76,30.784l2.09,2.786a2.969,2.969,0,0,1,.331,3.023c-.117.269-.241.563-.354.867a2.96,2.96,0,0,1-2.38,1.91l-3.447.5v4.268l3.453.5a2.963,2.963,0,0,1,2.376,1.915c.111.3.235.593.359.879a2.962,2.962,0,0,1-.342,3.011L27.76,53.216l3.024,3.023ZM42,32A10,10,0,1,1,32,42,10.011,10.011,0,0,1,42,32Z"></path><path d="M42,50a8,8,0,1,0-8-8A8.009,8.009,0,0,0,42,50Zm1-7H41a3,3,0,0,1,0-6V36h2v1a3,3,0,0,1,3,3H44a1,1,0,0,0-1-1H41a1,1,0,0,0,0,2h2a3,3,0,0,1,0,6v1H41V47a3,3,0,0,1-3-3h2a1,1,0,0,0,1,1h2a1,1,0,0,0,0-2Z"></path><path d="M23,22a3,3,0,0,0,3-3V14H20v5A3,3,0,0,0,23,22Z"></path><path d="M15,22a3,3,0,0,0,3-3V14H12v5A3,3,0,0,0,15,22Z"></path></g></svg>