<svg xmlns="http://www.w3.org/2000/svg" viewBox="0 0 64 64" x="0px" y="0px"><g data-name="Web Design"><path d="M52,40H4V15a3,3,0,0,1,3-3H28V10H7a5.006,5.006,0,0,0-5,5V45a5.006,5.006,0,0,0,5,5H19.867l-.75,6H17a2,2,0,0,0-2,2v2a2,2,0,0,0,2,2H39a2,2,0,0,0,2-2V58a2,2,0,0,0-2-2H36.883l-.75-6H49a5.006,5.006,0,0,0,5-5V28H52ZM39,60H17V58H39Zm-4.133-4H21.133l.75-6H34.117ZM49,48H7a3,3,0,0,1-3-3V42H52v3A3,3,0,0,1,49,48Z"></path><rect x="46" y="44" width="2" height="2"></rect><rect x="34" y="17" width="2" height="2"></rect><rect x="38" y="17" width="2" height="2"></rect><rect x="42" y="17" width="2" height="2"></rect><rect x="48" y="16" width="2" height="4"></rect><rect x="52" y="16" width="2" height="4"></rect><rect x="56" y="16" width="2" height="4"></rect><path d="M60,12a2,2,0,0,0,2-2V4a2,2,0,0,0-2-2H32a2,2,0,0,0-2,2v6a2,2,0,0,0,2,2h1v1H32a2,2,0,0,0-2,2v6a2,2,0,0,0,2,2h1v2a1,1,0,0,0,1,1h4a1,1,0,0,0,1-1V23H53v2a1,1,0,0,0,1,1h4a1,1,0,0,0,1-1V23h1a2,2,0,0,0,2-2V15a2,2,0,0,0-2-2H59V12ZM32,4H60v6H32Zm7,9V12H53v1Zm-4-1h2v1H35Zm2,12H35V23h2Zm20,0H55V23h2Zm3-3H32V15H60Zm-3-8H55V12h2Z"></path><rect x="34" y="6" width="2" height="2"></rect><rect x="38" y="6" width="2" height="2"></rect><rect x="42" y="6" width="2" height="2"></rect><rect x="48" y="5" width="2" height="4"></rect><rect x="52" y="5" width="2" height="4"></rect><rect x="56" y="5" width="2" height="4"></rect><path d="M11.293,16.293l-3,3a1,1,0,0,0,0,1.414l3,3,1.414-1.414L10.414,20l2.293-2.293Z"></path><rect x="12.228" y="19" width="8.544" height="2" transform="translate(-8.02 28.427) rotate(-69.444)"></rect><path d="M21.707,23.707l3-3a1,1,0,0,0,0-1.414l-3-3-1.414,1.414L22.586,20l-2.293,2.293Z"></path><rect x="8" y="28" width="4" height="2"></rect><rect x="14" y="28" width="10" height="2"></rect><rect x="10" y="32" width="4" height="2"></rect><rect x="16" y="32" width="10" height="2"></rect><rect x="28" y="32" width="4" height="2"></rect><rect x="34" y="32" width="8" height="2"></rect></g></svg>