<svg xmlns="http://www.w3.org/2000/svg" viewBox="0 0 64 64" x="0px" y="0px"><g data-name="Door Lock-Security-Protection-Door-Smartphone"><rect x="11" y="19" width="6" height="2"></rect><rect x="13" y="43" width="2" height="2"></rect><path d="M10.464,31.464l1.414,1.414a3.006,3.006,0,0,1,4.244,0l1.414-1.414A5.008,5.008,0,0,0,10.464,31.464Z"></path><path d="M14,26a8.941,8.941,0,0,0-6.364,2.636L9.05,30.05a7,7,0,0,1,9.9,0l1.414-1.414A8.941,8.941,0,0,0,14,26Z"></path><path d="M12.586,34.586,14,36l1.414-1.414A2,2,0,0,0,12.586,34.586Z"></path><path d="M58,30H52V10h1a1,1,0,0,0,1-1V3a1,1,0,0,0-1-1H13a1,1,0,0,0-1,1V9a1,1,0,0,0,1,1h1v5H8a5,5,0,0,0-5,5V44a5,5,0,0,0,5,5h6v5H13a1,1,0,0,0-1,1v6a1,1,0,0,0,1,1H53a1,1,0,0,0,1-1V55a1,1,0,0,0-1-1H52V36h6a3,3,0,0,0,0-6ZM14,4H52V8H14ZM46,36h4v2H46a5,5,0,0,1,0-10h4v2H46a3,3,0,0,0,0,6Zm0-10a7.008,7.008,0,0,0-7,7,7.016,7.016,0,0,0,7,7h4V54H16V49h4a5,5,0,0,0,5-5V20a5,5,0,0,0-5-5H16V10H50V26ZM8,47a3.009,3.009,0,0,1-3-3V20a3.009,3.009,0,0,1,3-3H20a3.009,3.009,0,0,1,3,3V44a3.009,3.009,0,0,1-3,3ZM52,60H14V56H52Zm6-26H46a1,1,0,0,1,0-2H58a1,1,0,0,1,0,2Z"></path><rect x="46" y="22" width="2" height="2"></rect><rect x="42" y="22" width="2" height="2"></rect><rect x="38" y="22" width="2" height="2"></rect></g></svg>