<svg xmlns="http://www.w3.org/2000/svg" viewBox="0 0 64 64" x="0px" y="0px"><g><circle cx="59" cy="52" r="2"></circle><circle cx="15" cy="54" r="2"></circle><circle cx="5" cy="59" r="2"></circle><path d="M42.374,53.86a1,1,0,0,0,0-1.415L40.96,51.031a1,1,0,1,0-1.414,1.414L40.96,53.86A1.025,1.025,0,0,0,42.374,53.86Z"></path><path d="M35.3,59.516a1.021,1.021,0,0,0,1.414,0,1,1,0,0,0,0-1.415L35.3,56.688A1,1,0,0,0,33.889,58.1Z"></path><path d="M39.546,56.688a1,1,0,0,0,0-1.414l-1.414-1.415a1,1,0,0,0-1.414,1.415l1.414,1.414A1,1,0,0,0,39.546,56.688Z"></path><path d="M25.932,41.305a4.966,4.966,0,0,1-1.236-.881L26.11,39.01a3.071,3.071,0,0,0,4.244,0,1.029,1.029,0,0,1,1.414,0l4.243,4.243a1.023,1.023,0,0,0,1.414,0,1,1,0,0,0,0-1.414L29.586,34H26.172l-8.9,8.9,3.536,3.536Z"></path><path d="M34.441,54.411a2.9,2.9,0,0,1,2.824-2.8A2.959,2.959,0,0,1,40.1,48.755a2.967,2.967,0,0,1,3.754-2.731l.3-.294-5.307-5.3a3,3,0,0,1,0,4.242,3.073,3.073,0,0,1-4.243,0L30.99,41.062a4.963,4.963,0,0,1-2.758.827c-.017,0-.034-.005-.052-.005l-6.665,6.672a1,1,0,0,0,0,1.415,1.024,1.024,0,0,0,1.414,0l2.829-2.829,1.414,1.414-2.829,2.829A1,1,0,0,0,25.758,52.8l2.828-2.828L30,51.385l-2.828,2.828a1,1,0,0,0,0,1.414,1.02,1.02,0,0,0,1.4.011l.008-.011L31.414,52.8l1.414,1.414,0,0h0L30,57.042l-.013.01a1,1,0,0,0,1.426,1.4l.295-.3a2.966,2.966,0,0,1,2.733-3.747Z"></path><rect x="13.393" y="35.535" width="12.001" height="2" transform="translate(-20.155 24.415) rotate(-45.001)"></rect><rect x="8.15" y="29.293" width="14" height="6" transform="translate(-18.396 20.17) rotate(-44.997)"></rect><rect x="43.263" y="27.121" width="6" height="16" transform="translate(-11.284 43.001) rotate(-45.001)"></rect><path d="M52,14a1,1,0,0,1-1-1,5,5,0,0,0-5-5,4.946,4.946,0,0,0-3.58,1.52,1.018,1.018,0,0,1-.86.29.982.982,0,0,1-.74-.52,9.992,9.992,0,0,0-18.73,3.45,1,1,0,0,1-1.67.61A5,5,0,0,0,12,17a1.1,1.1,0,0,1-.35.8,1.056,1.056,0,0,1-.81.27A4.842,4.842,0,0,0,10,18a6,6,0,0,0,0,12h.37l6.9-6.9a1.014,1.014,0,0,1,1.42,0l5.65,5.66A1,1,0,0,1,24.48,30H37v.24l5.02-5.02a1.034,1.034,0,0,1,1.41,0L48.21,30H52a8,8,0,0,0,0-16Zm-7,0H43V12h2Zm2-2h2v2H47Zm3,16H48V26h2Zm2,0V26a4,4,0,0,0,4-4h2A6,6,0,0,1,52,28Z"></path><path d="M45.2,51.031a1,1,0,0,0,0-1.414L43.789,48.2a1,1,0,0,0-1.415,1.414l1.414,1.414A1,1,0,0,0,45.2,51.031Z"></path><rect x="41.022" y="33.364" width="1.999" height="12" transform="translate(-15.527 41.241) rotate(-44.998)"></rect><rect x="4" y="50" width="2" height="4"></rect><rect x="14" y="47" width="2" height="2"></rect><rect x="4" y="46" width="2" height="2"></rect><rect x="4" y="42" width="2" height="2"></rect><rect x="58" y="45" width="2" height="2"></rect><rect x="58" y="41" width="2" height="2"></rect><rect x="50" y="58" width="2" height="2"></rect><rect x="50" y="54" width="2" height="2"></rect></g></svg>