<svg xmlns="http://www.w3.org/2000/svg" viewBox="0 0 64 64" x="0px" y="0px"><g><path d="M53.857,36.485A1,1,0,0,0,53,36H11a.985.985,0,0,0-.843.494l-.014-.009-6,10A1,1,0,0,0,5,48h5V61a1,1,0,0,0,1,1H53a1,1,0,0,0,1-1V48h5a1,1,0,0,0,.857-1.515ZM6.767,46,10,40.611V46ZM24,60H12V38H24Zm28,0H26V40.61l4.143,6.905A1,1,0,0,0,31,48H52ZM31.566,46l-4.8-8H52.434l4.8,8Z"></path><rect x="46" y="56" width="4" height="2"></rect><rect x="42" y="56" width="2" height="2"></rect><rect x="48" y="24" width="2" height="4"></rect><rect x="48" y="30" width="2" height="2"></rect><rect x="52" y="26" width="2" height="4"></rect><rect x="52" y="32" width="2" height="2"></rect><rect x="14" y="24" width="2" height="4"></rect><rect x="14" y="30" width="2" height="2"></rect><rect x="10" y="26" width="2" height="4"></rect><rect x="10" y="32" width="2" height="2"></rect><path d="M56.707,8.707,55.293,7.293A22.469,22.469,0,0,0,49,22h2A20.705,20.705,0,0,1,56.707,8.707Z"></path><path d="M56,24a20.705,20.705,0,0,1,5.707-13.293L60.293,9.293A22.469,22.469,0,0,0,54,24Z"></path><path d="M15,22A22.469,22.469,0,0,0,8.707,7.293L7.293,8.707A20.813,20.813,0,0,1,13,22Z"></path><path d="M10,24A22.469,22.469,0,0,0,3.707,9.293L2.293,10.707A20.813,20.813,0,0,1,8,24Z"></path><path d="M37.293,16.707l1.414-1.414L37,13.586V11H35v3a1,1,0,0,0,.293.707Z"></path><path d="M37.707,18.293l-1.414,1.414.707.707V22h2V20a1,1,0,0,0-.293-.707Z"></path><path d="M21,23.414V25a1,1,0,0,0,.758.97l3.467.867.827,2.479A1,1,0,0,0,27,30h3a1,1,0,0,0,.707-.293L32,28.414l1.293,1.293A1,1,0,0,0,34,30h3a1,1,0,0,0,.948-.684l.827-2.479,3.467-.867A1,1,0,0,0,43,25V23.414l2.707-2.707A1,1,0,0,0,46,20V15a1.006,1.006,0,0,0-.168-.555L44,11.7V8a1,1,0,0,0-.293-.707l-2-2A1,1,0,0,0,41,5H38.721l-.773-2.316A1,1,0,0,0,37,2H34a1,1,0,0,0-.707.293L32,3.586,30.707,2.293A1,1,0,0,0,30,2H27a1,1,0,0,0-.948.684L25.279,5H23a1,1,0,0,0-.707.293l-2,2A1,1,0,0,0,20,8v3.7l-1.832,2.748A1.006,1.006,0,0,0,18,15v5a1,1,0,0,0,.293.707ZM34.414,4h1.865l.577,1.73L35.293,7.293A1,1,0,0,0,35,8V9h2V8.414L38.414,7h2.172L42,8.414v3.172l-1.707,1.707A1,1,0,0,0,40,14v1h2v-.586l.845-.844L44,15.3v4.283l-1,1V19H41v5.219l-2.693.674L37,23.586V23H35v1a1,1,0,0,0,.293.707l1.563,1.563L36.279,28H34.414L33,26.586V5.414ZM20,15.3l1.155-1.733.845.844V15h2V14a1,1,0,0,0-.293-.707L22,11.586V8.414L23.414,7h2.172L27,8.414V9h2V8a1,1,0,0,0-.293-.707L27.144,5.73,27.721,4h1.865L31,5.414V26.586L29.586,28H27.721l-.577-1.73,1.563-1.563A1,1,0,0,0,29,24V23H27v.586l-1.307,1.307L23,24.219V19H21v1.586l-1-1Z"></path><path d="M28.707,14.707A1,1,0,0,0,29,14V11H27v2.586l-1.707,1.707,1.414,1.414Z"></path><path d="M27,20.414l.707-.707-1.414-1.414-1,1A1,1,0,0,0,25,20v2h2Z"></path></g></svg>