<svg xmlns="http://www.w3.org/2000/svg" viewBox="0 0 64 64" x="0px" y="0px"><g data-name="skyscraper-building-tower-city-real estate"><path d="M51,60V9a1,1,0,0,0-1-1H49V5a.977.977,0,0,0-.55-.89l-4-2a.956.956,0,0,0-.9,0l-4,2A.977.977,0,0,0,39,5V8H37V5a.977.977,0,0,0-.55-.89l-4-2a.956.956,0,0,0-.9,0l-4,2A.977.977,0,0,0,27,5V8H25V5a.977.977,0,0,0-.55-.89l-4-2a.956.956,0,0,0-.9,0l-4,2A.977.977,0,0,0,15,5V8H14a1,1,0,0,0-1,1V60H9v2H55V60ZM17,5.62l3-1.5,3,1.5V8H17ZM25,60H15V10H25ZM29,5.62l3-1.5,3,1.5V8H29ZM33,60H31V58h2Zm4,0H35V57a1,1,0,0,0-1-1H30a1,1,0,0,0-1,1v3H27V10H37ZM41,5.62l3-1.5,3,1.5V8H41ZM49,60H39V10H49Z"></path><rect x="29" y="12" width="2" height="2"></rect><rect x="33" y="12" width="2" height="2"></rect><rect x="29" y="16" width="2" height="2"></rect><rect x="33" y="16" width="2" height="2"></rect><rect x="29" y="20" width="2" height="2"></rect><rect x="33" y="20" width="2" height="2"></rect><rect x="29" y="24" width="2" height="2"></rect><rect x="33" y="24" width="2" height="2"></rect><rect x="29" y="28" width="2" height="2"></rect><rect x="33" y="28" width="2" height="2"></rect><rect x="29" y="32" width="2" height="2"></rect><rect x="33" y="32" width="2" height="2"></rect><rect x="29" y="36" width="2" height="2"></rect><rect x="33" y="36" width="2" height="2"></rect><rect x="29" y="40" width="2" height="2"></rect><rect x="33" y="40" width="2" height="2"></rect><rect x="29" y="44" width="2" height="2"></rect><rect x="33" y="44" width="2" height="2"></rect><rect x="29" y="48" width="2" height="2"></rect><rect x="33" y="48" width="2" height="2"></rect><rect x="29" y="52" width="2" height="2"></rect><rect x="33" y="52" width="2" height="2"></rect><rect x="41" y="12" width="2" height="2"></rect><rect x="45" y="12" width="2" height="2"></rect><rect x="41" y="16" width="2" height="2"></rect><rect x="45" y="16" width="2" height="2"></rect><rect x="41" y="20" width="2" height="2"></rect><rect x="45" y="20" width="2" height="2"></rect><rect x="41" y="24" width="2" height="2"></rect><rect x="45" y="24" width="2" height="2"></rect><rect x="41" y="28" width="2" height="2"></rect><rect x="45" y="28" width="2" height="2"></rect><rect x="41" y="32" width="2" height="2"></rect><rect x="45" y="32" width="2" height="2"></rect><rect x="41" y="36" width="2" height="2"></rect><rect x="45" y="36" width="2" height="2"></rect><rect x="41" y="40" width="2" height="2"></rect><rect x="45" y="40" width="2" height="2"></rect><rect x="41" y="44" width="2" height="2"></rect><rect x="45" y="44" width="2" height="2"></rect><rect x="41" y="48" width="2" height="2"></rect><rect x="45" y="48" width="2" height="2"></rect><rect x="41" y="52" width="2" height="2"></rect><rect x="45" y="52" width="2" height="2"></rect><rect x="17" y="12" width="2" height="2"></rect><rect x="21" y="12" width="2" height="2"></rect><rect x="17" y="16" width="2" height="2"></rect><rect x="21" y="16" width="2" height="2"></rect><rect x="17" y="20" width="2" height="2"></rect><rect x="21" y="20" width="2" height="2"></rect><rect x="17" y="24" width="2" height="2"></rect><rect x="21" y="24" width="2" height="2"></rect><rect x="17" y="28" width="2" height="2"></rect><rect x="21" y="28" width="2" height="2"></rect><rect x="17" y="32" width="2" height="2"></rect><rect x="21" y="32" width="2" height="2"></rect><rect x="17" y="36" width="2" height="2"></rect><rect x="21" y="36" width="2" height="2"></rect><rect x="17" y="40" width="2" height="2"></rect><rect x="21" y="40" width="2" height="2"></rect><rect x="17" y="44" width="2" height="2"></rect><rect x="21" y="44" width="2" height="2"></rect><rect x="17" y="48" width="2" height="2"></rect><rect x="21" y="48" width="2" height="2"></rect><rect x="17" y="52" width="2" height="2"></rect><rect x="21" y="52" width="2" height="2"></rect><rect x="41" y="56" width="2" height="2"></rect><rect x="45" y="56" width="2" height="2"></rect><rect x="17" y="56" width="2" height="2"></rect><rect x="21" y="56" width="2" height="2"></rect></g></svg>