<svg xmlns="http://www.w3.org/2000/svg" viewBox="0 0 64 64" x="0px" y="0px"><g data-name="Air Filter"><path d="M49,2H15a3,3,0,0,0-3,3V55a3,3,0,0,0,2,2.816V60a2,2,0,0,0,2,2H48a2,2,0,0,0,2-2V57.816A3,3,0,0,0,52,55V5A3,3,0,0,0,49,2ZM16,60V58H48v2Zm34-5a1,1,0,0,1-1,1H15a1,1,0,0,1-1-1V5a1,1,0,0,1,1-1H49a1,1,0,0,1,1,1Z"></path><rect x="16" y="28" width="32" height="2"></rect><rect x="16" y="32" width="32" height="2"></rect><rect x="16" y="36" width="32" height="2"></rect><rect x="16" y="40" width="32" height="2"></rect><rect x="16" y="44" width="32" height="2"></rect><rect x="16" y="48" width="32" height="2"></rect><rect x="16" y="52" width="32" height="2"></rect><path d="M32,25a9,9,0,1,0-9-9A9.011,9.011,0,0,0,32,25ZM32,9a7,7,0,1,1-7,7A7.008,7.008,0,0,1,32,9Z"></path><rect x="27" y="14" width="2" height="2"></rect><rect x="31" y="14" width="2" height="2"></rect><rect x="35" y="14" width="2" height="2"></rect><rect x="29" y="18" width="6" height="2"></rect></g></svg>