<svg xmlns="http://www.w3.org/2000/svg" viewBox="0 0 64 64" x="0px" y="0px"><g><path d="M46.69,37.3l-8.02-2.51A5.006,5.006,0,0,0,37,34.1V30.79A11.028,11.028,0,0,0,42.95,22H43a4,4,0,0,0,0-8V9a7.008,7.008,0,0,0-7-7H28a7.008,7.008,0,0,0-7,7v5a4,4,0,1,0,0,8h.05A11.028,11.028,0,0,0,27,30.79V34.1a5.006,5.006,0,0,0-1.67.69l-8.02,2.5A8.963,8.963,0,0,0,11,45.88V61a1,1,0,0,0,1,1H52a1,1,0,0,0,1-1V45.88A8.941,8.941,0,0,0,46.69,37.3ZM43,16a2.006,2.006,0,0,1,2,2,2.015,2.015,0,0,1-2,2ZM21,20a2.015,2.015,0,0,1-2-2,2.006,2.006,0,0,1,2-2ZM39,39v3l-2-1.5V36.17A3.014,3.014,0,0,1,39,39ZM23,9a5,5,0,0,1,5-5h8a5,5,0,0,1,5,5v3.82A3.01,3.01,0,0,1,39,10V7.24a1.98,1.98,0,0,0-.81-1.6,2.014,2.014,0,0,0-1.81-.29,15.365,15.365,0,0,1-8.76,0,2.014,2.014,0,0,0-1.81.29A1.98,1.98,0,0,0,25,7.24V10a3.01,3.01,0,0,1-2,2.82Zm0,12V14.9A5.017,5.017,0,0,0,27,10l.01-2.75A17.173,17.173,0,0,0,37,7.24V10a5.017,5.017,0,0,0,4,4.9V21a9,9,0,0,1-18,0Zm9,19a4.924,4.924,0,0,0,3-1.03V41a.887.887,0,0,0,.07.28,7.175,7.175,0,0,1-6.14,0A.887.887,0,0,0,29,41V38.97A4.924,4.924,0,0,0,32,40Zm-3-5V31.57a10.68,10.68,0,0,0,6,0V35a3,3,0,0,1-6,0Zm-4,4a3.014,3.014,0,0,1,2-2.83V40.5L25,42ZM51,60H45V46H43V60H21V46H19V60H13V45.88a6.964,6.964,0,0,1,4.91-6.68l5.33-1.67A5.14,5.14,0,0,0,23,39v5a.988.988,0,0,0,.55.89.99.99,0,0,0,1.05-.09l2.8-2.1a8.788,8.788,0,0,0,9.2,0l2.8,2.1a.99.99,0,0,0,1.05.09A.988.988,0,0,0,41,44V39a5.016,5.016,0,0,0-.24-1.46l5.33,1.67A6.943,6.943,0,0,1,51,45.88Z"></path><path d="M34,26h4a1,1,0,0,0,1-1V23a3,3,0,0,0-3-3H28a3,3,0,0,0-3,3v2a1,1,0,0,0,1,1h4a2.981,2.981,0,0,0,2-.78A2.981,2.981,0,0,0,34,26Zm3-3v1H34a1,1,0,0,1-1-1V22h3A1,1,0,0,1,37,23Zm-7,1H27V23a1,1,0,0,1,1-1h3v1A1,1,0,0,1,30,24Z"></path><circle cx="28" cy="17" r="2"></circle><circle cx="36" cy="17" r="2"></circle></g></svg>