<svg xmlns="http://www.w3.org/2000/svg" viewBox="0 0 64 64" x="0px" y="0px"><g data-name="Smart Stove-Internet of Things-App-Internet-Smartphone"><path d="M30.832,5.555A5.744,5.744,0,0,0,32,2H30a3.78,3.78,0,0,1-.832,2.445A5.744,5.744,0,0,0,28,8h2A3.78,3.78,0,0,1,30.832,5.555Z"></path><path d="M34,8a3.78,3.78,0,0,1,.832-2.445A5.744,5.744,0,0,0,36,2H34a3.78,3.78,0,0,1-.832,2.445A5.744,5.744,0,0,0,32,8Z"></path><path d="M50.832,5.555A5.744,5.744,0,0,0,52,2H50a3.78,3.78,0,0,1-.832,2.445A5.744,5.744,0,0,0,48,8h2A3.78,3.78,0,0,1,50.832,5.555Z"></path><path d="M54,8a3.78,3.78,0,0,1,.832-2.445A5.744,5.744,0,0,0,56,2H54a3.78,3.78,0,0,1-.832,2.445A5.744,5.744,0,0,0,52,8Z"></path><path d="M21,28H7a3.009,3.009,0,0,0-3,3v1H24V31A3.009,3.009,0,0,0,21,28Z"></path><path d="M26,31v1.18A3,3,0,0,1,27,32H55a3.009,3.009,0,0,1,3,3V51a3.009,3.009,0,0,1-3,3H27a3,3,0,0,1-1-.18V56H59a1,1,0,0,0,1-1V30H25.9A5.468,5.468,0,0,1,26,31Z"></path><path d="M4,52H24V34H4Zm10-4-1.414-1.414a2,2,0,0,1,2.828,0Zm2.122-3.122a3.006,3.006,0,0,0-4.244,0l-1.414-1.414a5.008,5.008,0,0,1,7.072,0ZM14,38a8.941,8.941,0,0,1,6.364,2.636L18.95,42.05a7,7,0,0,0-9.9,0L7.636,40.636A8.941,8.941,0,0,1,14,38Z"></path><path d="M55,52a1,1,0,0,0,1-1V35a1,1,0,0,0-1-1H27a1,1,0,0,0-1,1V51a1,1,0,0,0,1,1ZM41,48l-1.414-1.414a2,2,0,0,1,2.828,0Zm2.121-3.122a3.074,3.074,0,0,0-4.242,0l-1.414-1.414a5,5,0,0,1,7.07,0ZM37,36h8v2H37Z"></path><polygon points="26 60 28.38 60 29.38 58 26 58 26 60"></polygon><polygon points="53.62 60 56 60 56 58 52.62 58 53.62 60"></polygon><path d="M4,57a3.009,3.009,0,0,0,3,3H21a3.009,3.009,0,0,0,3-3V54H4Zm9-1h2v2H13Z"></path><path d="M47,15a1,1,0,0,0,1,1h6a1,1,0,0,0,1-1V12h2V10H45v2h2Z"></path><path d="M27,15a1,1,0,0,0,1,1h6a1,1,0,0,0,1-1V12h2V10H25v2h2Z"></path><rect x="26" y="18" width="10" height="2"></rect><path d="M59,22H23a1,1,0,0,0-1,1v3.1A5.013,5.013,0,0,1,24.97,28H60V23A1,1,0,0,0,59,22ZM28,26H26V24h2Zm4,0H30V24h2Zm4,0H34V24h2Zm12,0H46V24h2Zm4,0H50V24h2Zm4,0H54V24h2Z"></path><rect x="46" y="18" width="10" height="2"></rect></g></svg>