<svg xmlns="http://www.w3.org/2000/svg" viewBox="0 0 64 64" x="0px" y="0px"><g><circle cx="32" cy="7" r="1"></circle><path d="M4,38a1,1,0,0,0,1,1H59a1,1,0,0,0,1-1V35H4Z"></path><path d="M32,10A24.027,24.027,0,0,0,8.025,33h47.95A24.027,24.027,0,0,0,32,10Zm10.428,6.93A19.958,19.958,0,0,0,32,14V12a21.959,21.959,0,0,1,11.472,3.224Zm3.842,3.056A20.374,20.374,0,0,0,44.386,18.3l1.239-1.569A22.1,22.1,0,0,1,47.7,18.585Z"></path><rect x="4" y="45" width="6" height="12"></rect><path d="M20.583,56.062l11.92,1.4a13.085,13.085,0,0,0,8.019-1.652L58.15,45.634a1.981,1.981,0,0,0,1-1.734,2,2,0,0,0-3-1.731l-9.193,5.306A3.992,3.992,0,0,1,43,51H28V49H43a2,2,0,0,0,0-4H31a1,1,0,0,1-.316-.051l-3.845-1.282A13,13,0,0,0,22.728,43h-.85a13,13,0,0,0-6.689,1.853l-1.674,1A1,1,0,0,1,13,46H12V56h7.531A9.026,9.026,0,0,1,20.583,56.062Z"></path></g></svg>