<svg xmlns="http://www.w3.org/2000/svg" viewBox="0 0 64 64" x="0px" y="0px"><g><path d="M52,22a4,4,0,1,0-4-4A4,4,0,0,0,52,22Zm0-6a2,2,0,1,1-2,2A2,2,0,0,1,52,16Z"></path><path d="M52,12a1,1,0,0,0,1-1V9a1,1,0,0,0-2,0v2A1,1,0,0,0,52,12Z"></path><path d="M46.343,13.757a1,1,0,0,0,1.414-1.414l-1.414-1.414a1,1,0,1,0-1.414,1.414Z"></path><path d="M43,19h2a1,1,0,0,0,0-2H43a1,1,0,0,0,0,2Z"></path><path d="M46.343,22.243l-1.414,1.414a1,1,0,1,0,1.414,1.414l1.414-1.414a1,1,0,0,0-1.414-1.414Z"></path><path d="M51,25v2a1,1,0,0,0,2,0V25a1,1,0,0,0-2,0Z"></path><path d="M56.243,22.243a1,1,0,0,0,0,1.414l1.414,1.414a1,1,0,0,0,1.414-1.414l-1.414-1.414A1,1,0,0,0,56.243,22.243Z"></path><path d="M58,18a1,1,0,0,0,1,1h2a1,1,0,0,0,0-2H59A1,1,0,0,0,58,18Z"></path><path d="M56.95,14.05a1,1,0,0,0,.707-.293l1.414-1.414a1,1,0,1,0-1.414-1.414l-1.414,1.414a1,1,0,0,0,.707,1.707Z"></path><path d="M20.762,12H33.238a1,1,0,0,0,.746-.333A4,4,0,0,0,30.874,5a4,4,0,0,0-7.748,0,4,4,0,0,0-3.11,6.665A1,1,0,0,0,20.762,12Zm2.906-4.873A1,1,0,0,0,25.02,6.19.722.722,0,0,0,25,6a2,2,0,0,1,4-.058c-.007.051-.021.2-.021.248a1,1,0,0,0,1.352.937A1.982,1.982,0,0,1,33,9a2.008,2.008,0,0,1-.266,1H21.266A2.008,2.008,0,0,1,21,9,1.98,1.98,0,0,1,23.668,7.127Z"></path><path d="M61,60H59V48h1a1,1,0,0,0,0-2H59V45a1,1,0,0,0-2,0v1H49V45a1,1,0,0,0-2,0v1H46a1,1,0,0,0,0,2h1V60H42V57a1,1,0,0,0-1-1H35a1,1,0,0,0-1,1v3H32V57a1,1,0,0,0-1-1H25a1,1,0,0,0-1,1v3H19V46.668A14.018,14.018,0,0,0,30,33c0-9.157-7.391-16-14-16S2,23.843,2,33A14.018,14.018,0,0,0,13,46.668V60H3a1,1,0,0,0,0,2H61a1,1,0,0,0,0-2ZM4,33c0-6.475,5.242-14,12-14s12,7.525,12,14a12.009,12.009,0,0,1-9,11.6V39.412l2.27-2.269,2.414.8a1,1,0,1,0,.632-1.9l-1.465-.489.856-.856a1.028,1.028,0,0,0,.188-.26l1-2a1,1,0,0,0-1.79-.894l-.927,1.854L19,36.584V33a1,1,0,0,0-1-1H14a.974.974,0,0,0-.539.18l-1.322-2.222.756-1.511a1,1,0,1,0-1.79-.894L10.382,29H8a1,1,0,0,0,0,2h2.431l.4.672-2.362,1.48a1,1,0,0,0,1.062,1.7l2.323-1.457L13,35.317v9.288A12.009,12.009,0,0,1,4,33ZM17,44.949c-.331.028-.662.051-1,.051s-.669-.023-1-.051V34h2ZM15,60V46.949c.332.024.662.051,1,.051s.668-.027,1-.051V60Zm11,0V58h4v2Zm10,0V58h4v2Zm13,0V48h8V60Z"></path></g></svg>