<svg xmlns="http://www.w3.org/2000/svg" viewBox="0 0 64 64" x="0px" y="0px"><g><path d="M8,41l2.4,3.2A7.037,7.037,0,0,0,16,47H48a7.037,7.037,0,0,0,5.6-2.8L56,41Z"></path><path d="M55.971,39C55.36,26.493,43.305,22,32,22S8.64,26.493,8.029,39Zm-3.8-5.434a15.616,15.616,0,0,1,.952,2.212l-1.893.647a13.386,13.386,0,0,0-.829-1.926Zm-8.791-7.537a17.142,17.142,0,0,1,7.4,5.368L49.2,32.62a15.183,15.183,0,0,0-6.552-4.733Z"></path><path d="M32,20c.578,0,1.145.013,1.707.033A1.96,1.96,0,0,0,34,19a2,2,0,0,0-4,0,1.96,1.96,0,0,0,.293,1.033C30.855,20.013,31.422,20,32,20Z"></path><polygon points="10 20 12 20 12 18 14 18 14 16 12 16 12 14 10 14 10 16 8 16 8 18 10 18 10 20"></polygon><polygon points="54 14 56 14 56 12 58 12 58 10 56 10 56 8 54 8 54 10 52 10 52 12 54 12 54 14"></polygon></g></svg>