<svg xmlns="http://www.w3.org/2000/svg" viewBox="0 0 64 64" x="0px" y="0px"><g data-name="Sofa"><polygon points="6.279 48 7.613 44 6 44 6 48 6.279 48"></polygon><rect x="4" y="40" width="56" height="2"></rect><path d="M11,24h3a2,2,0,0,1,2,2v4.184A2.966,2.966,0,0,1,17,30H30a2.981,2.981,0,0,1,2,.78A2.981,2.981,0,0,1,34,30H47a2.966,2.966,0,0,1,1,.184V26a2,2,0,0,1,2-2h3V19a3,3,0,0,0-3-3H36a3,3,0,0,0-3,3v9H31V19a3,3,0,0,0-3-3H14a3,3,0,0,0-3,3Z"></path><path d="M50,38h2V29a1,1,0,0,1,1-1h7V26H50Z"></path><polygon points="58 48 58 44 56.387 44 57.721 48 58 48"></polygon><path d="M4,28h7a1,1,0,0,1,1,1v9h2V26H4Z"></path><rect x="6" y="30" width="4" height="8"></rect><path d="M17,32a1,1,0,0,0-1,1v5H31V33a1,1,0,0,0-1-1Z"></path><rect x="54" y="30" width="4" height="8"></rect><path d="M34,32a1,1,0,0,0-1,1v5H48V33a1,1,0,0,0-1-1Z"></path></g></svg>