<svg xmlns="http://www.w3.org/2000/svg" viewBox="0 0 64 64" x="0px" y="0px"><g data-name="Blood Measuring-Medical-Medicalcheckup-Pressure"><path d="M18,32h2V15a3.009,3.009,0,0,1,3-3h7V10H23a5,5,0,0,0-5,5Z"></path><rect x="18" y="34" width="2" height="2"></rect><path d="M12,40H30V39a1,1,0,0,0-1-1H12Z"></path><path d="M46,24H56V8H46Zm8-4H50V18h4ZM48,10h6v2H48Zm0,4h6v2H48Z"></path><path d="M60,7a3.009,3.009,0,0,0-3-3H39a3.009,3.009,0,0,0-3,3V29a3.009,3.009,0,0,0,3,3H57a3.009,3.009,0,0,0,3-3ZM42,20H38V18h4Zm0-4H38V14h4Zm0-4H38V10h4Zm4,18H44V28h2Zm6,0H48V28h4Zm4,0H54V28h2Zm2-6a2.006,2.006,0,0,1-2,2H46a2.006,2.006,0,0,1-2-2V8a2.006,2.006,0,0,1,2-2H56a2.006,2.006,0,0,1,2,2Z"></path><path d="M12,56H30V42H12Zm6-8h2V46h2v2h2v2H22v2H20V50H18Z"></path><rect x="8" y="47" width="2" height="4"></rect><path d="M5,60h5V58H4v1A1,1,0,0,0,5,60Z"></path><path d="M4,39v1h6V38H5A1,1,0,0,0,4,39Z"></path><path d="M10,42H4V56h6V53H7a1,1,0,0,1-1-1V46a1,1,0,0,1,1-1h3Z"></path><path d="M12,60H29a1,1,0,0,0,1-1V58H12Z"></path><rect x="32" y="10" width="2" height="2"></rect></g></svg>