<svg xmlns="http://www.w3.org/2000/svg" viewBox="0 0 64 64" x="0px" y="0px"><g><circle cx="19" cy="22" r="2"></circle><circle cx="27" cy="22" r="2"></circle><path d="M19.468,28.542a5.007,5.007,0,0,0,7.064,0l-1.4-1.424a3.082,3.082,0,0,1-4.256,0Z"></path><path d="M56,38H40a2,2,0,0,0-2,2V56a2,2,0,0,0,2,2H56a2,2,0,0,0,2-2V40A2,2,0,0,0,56,38Zm0,6H52V40h4ZM46,50V46h4v4Zm4,2v4H46V52Zm-6-2H40V46h4Zm2-6V40h4v4Zm6,2h4v4H52Zm-8-6v4H40V40ZM40,52h4v4H40Zm12,4V52h4v4Z"></path><path d="M59,22H38.97C38.62,10.18,32.16,2,23,2,13.58,2,7,10.64,7,23a31.58,31.58,0,0,0,4.31,16.36l-3,.93A8.963,8.963,0,0,0,2,48.88V61a1,1,0,0,0,1,1H59a3.009,3.009,0,0,0,3-3V25A3.009,3.009,0,0,0,59,22ZM36.76,19.12A3.979,3.979,0,0,0,34,18V16a1,1,0,0,0-1-1,8.129,8.129,0,0,1-5.78-2.2,15.218,15.218,0,0,0,3.32-6.23C33.84,9.14,36.06,13.52,36.76,19.12Zm-7.71,28.2.84,2.51-4.2,5.77,4.28-14.06.91,3.17-1.59,1.58A1.028,1.028,0,0,0,29.05,47.32Zm-3.58,2.13-.44-3.28.92-1.83.89.63ZM28,37.26V34.79a11.064,11.064,0,0,0,2.78-2.01A10.919,10.919,0,0,0,33.95,26H34V36.51a19.764,19.764,0,0,1-1.28,2.23ZM23,34a9.014,9.014,0,0,1-9-9V18.95a18.885,18.885,0,0,0,11.83-4.73A9.71,9.71,0,0,0,32,16.96V25a9.014,9.014,0,0,1-9,9Zm3,1.58V37.5l-3,2.25L20,37.5V35.57a10.8,10.8,0,0,0,6,.01ZM23,4a12.286,12.286,0,0,1,5.76,1.39A13.21,13.21,0,0,1,25.7,11.5,16.725,16.725,0,0,1,13,17a18.7,18.7,0,0,1-3.34-.31C11.36,8.9,16.29,4,23,4ZM12,20v4a2.015,2.015,0,0,1-2-2A2.006,2.006,0,0,1,12,20ZM9.3,18.66c.14.02.28.04.41.07a4.223,4.223,0,0,0-.47.39C9.26,18.96,9.28,18.81,9.3,18.66Zm-.24,6.03a1.71,1.71,0,0,1,.11.14A4,4,0,0,0,12,26h.05A11.028,11.028,0,0,0,18,34.79v2.47l-4.72,1.48A28.5,28.5,0,0,1,9.06,24.69ZM20.31,55.6l-4.2-5.77.84-2.51a1.028,1.028,0,0,0-.24-1.03l-1.59-1.58.91-3.17ZM19.16,44.97l.89-.63.92,1.83-.44,3.28ZM11.97,60a4.756,4.756,0,0,0-.8-2.36A6.794,6.794,0,0,1,10,54a6.609,6.609,0,0,1,1.71-4.29l-1.42-1.42A8.723,8.723,0,0,0,8,54a8.855,8.855,0,0,0,1.52,4.77A2.655,2.655,0,0,1,9.97,60H4V48.88A6.964,6.964,0,0,1,8.91,42.2l5.33-1.66-1.2,4.18a1.029,1.029,0,0,0,.25.99l1.57,1.56-.81,2.41a1.016,1.016,0,0,0,.14.91L21.04,60Zm6.58-17.05L17.5,39.52l1.31-.41,2.5,1.87ZM23,57.57l-1.07-3.52L22.88,47h.24l.95,7.05ZM23.38,45h-.76l-.92-1.84,1.3-.93,1.3.93Zm3.81-5.89,1.31.4-1.05,3.44-2.76-1.97ZM24.96,60l6.85-9.41a1.016,1.016,0,0,0,.14-.91l-.81-2.41,1.57-1.56a1.029,1.029,0,0,0,.25-.99l-1.2-4.19,2.24.7V59a3,3,0,0,0,.18,1Zm9.23-36.02A1.108,1.108,0,0,1,34,24V20a2.006,2.006,0,0,1,2,2,1.108,1.108,0,0,1-.02.19A2.99,2.99,0,0,0,34.19,23.98ZM60,59a1,1,0,0,1-1,1H37a1,1,0,0,1-1-1V25a1,1,0,0,1,1-1H59a1,1,0,0,1,1,1Z"></path><path d="M56,26H40a2,2,0,0,0-2,2v6a2,2,0,0,0,2,2H56a2,2,0,0,0,2-2V28A2,2,0,0,0,56,26Zm0,8H40V28H56Z"></path><rect x="51" y="30" width="2" height="2"></rect><rect x="47" y="30" width="2" height="2"></rect><rect x="43" y="30" width="2" height="2"></rect></g></svg>