<svg xmlns="http://www.w3.org/2000/svg" viewBox="0 0 64 64" x="0px" y="0px"><title>QR Code</title><g data-name="QR Code"><path d="M7,8v8a1,1,0,0,0,1,1h8a1,1,0,0,0,1-1V8a1,1,0,0,0-1-1H8A1,1,0,0,0,7,8ZM9,9h6v6H9Z"></path><path d="M48,17h8a1,1,0,0,0,1-1V8a1,1,0,0,0-1-1H48a1,1,0,0,0-1,1v8A1,1,0,0,0,48,17Zm1-8h6v6H49Z"></path><path d="M16,47H8a1,1,0,0,0-1,1v8a1,1,0,0,0,1,1h8a1,1,0,0,0,1-1V48A1,1,0,0,0,16,47Zm-1,8H9V49h6Z"></path><rect x="11" y="11" width="2" height="2"></rect><path d="M4,4h8V2H3A1,1,0,0,0,2,3v9H4Z"></path><path d="M4,52H2v9a1,1,0,0,0,1,1h9V60H4Z"></path><path d="M61,2H52V4h8v8h2V3A1,1,0,0,0,61,2Z"></path><path d="M60,60H54v2h7a1,1,0,0,0,1-1V52H60Z"></path><rect x="51" y="11" width="2" height="2"></rect><rect x="11" y="51" width="2" height="2"></rect><rect x="19" y="11" width="2" height="2"></rect><rect x="33" y="11" width="2" height="2"></rect><polygon points="37 11 37 15 41 15 41 13 39 13 39 11 37 11"></polygon><polygon points="23 11 23 13 25 13 25 11 25 9 41 9 41 11 43 11 43 9 43 7 21 7 21 9 23 9 23 11"></polygon><rect x="19" y="15" width="2" height="4"></rect><rect x="21" y="19" width="2" height="2"></rect><polygon points="23 15 23 17 25 17 25 19 29 19 29 15 30 15 30 13 31 13 31 11 27 11 27 13 28 13 28 15 23 15"></polygon><rect x="31" y="17" width="2" height="2"></rect><polygon points="42 23 42 27 44 27 44 25 46 25 46 23 42 23"></polygon><rect x="33" y="15" width="2" height="2"></rect><polygon points="23 49 27 49 27 47 25 47 25 45 23 45 23 49"></polygon><rect x="43" y="13" width="2" height="2"></rect><rect x="42" y="17" width="4" height="4"></rect><polygon points="7 33 7 43 9 43 9 35 11 35 11 33 7 33"></polygon><rect x="7" y="19" width="10" height="2"></rect><polygon points="11 23 7 23 7 29 9 29 9 27 11 27 11 23"></polygon><polygon points="27 33 27 31 29 31 29 27 31 27 31 25 33 25 33 23 31 23 31 21 29 21 29 23 29 25 27 25 27 23 23 23 23 27 25 27 25 33 27 33"></polygon><polygon points="19 57 21 57 21 55 24 55 24 57 26 57 26 55 27 55 27 53 21 53 21 51 19 51 19 57"></polygon><polygon points="40 36 40 34 42 34 42 32 44 32 44 28 38 28 38 32 36 32 36 34 38 34 38 36 40 36"></polygon><polygon points="37 24 39 24 39 22 37 22 37 20 35 20 35 26 37 26 37 24"></polygon><rect x="13" y="23" width="4" height="2"></rect><rect x="19" y="23" width="2" height="2"></rect><rect x="13" y="33" width="2" height="2"></rect><rect x="19" y="35" width="2" height="2"></rect><rect x="21" y="33" width="2" height="2"></rect><rect x="21" y="49" width="2" height="2"></rect><rect x="11" y="29" width="2" height="2"></rect><rect x="13" y="27" width="4" height="2"></rect><rect x="17" y="29" width="2" height="2"></rect><rect x="33" y="28" width="2" height="2"></rect><rect x="31" y="30" width="2" height="2"></rect><rect x="34" y="35" width="2" height="2"></rect><rect x="47" y="33" width="4" height="2"></rect><rect x="51" y="35" width="2" height="2"></rect><rect x="30" y="35" width="2" height="2"></rect><polygon points="29 35 25 35 25 37 23 37 23 39 27 39 27 37 29 37 29 35"></polygon><polygon points="31 53 31 55 29 55 29 57 33 57 33 55 35 55 35 53 31 53"></polygon><polygon points="41 53 41 55 39 55 39 57 43 57 43 55 45 55 45 53 41 53"></polygon><polygon points="50 23 50 21 52 21 52 19 48 19 48 21 46 21 46 23 50 23"></polygon><rect x="32" y="42" width="2" height="2"></rect><rect x="32" y="46" width="2" height="2"></rect><rect x="29" y="51" width="2" height="2"></rect><polygon points="30 42 30 40 28 40 28 42 28 44 30 44 30 42"></polygon><rect x="34" y="48" width="2" height="2"></rect><polygon points="49 55 45 55 45 57 51 57 51 53 49 53 49 55"></polygon><rect x="49" y="49" width="2" height="2"></rect><rect x="45" y="49" width="2" height="2"></rect><rect x="41" y="49" width="2" height="2"></rect><rect x="43" y="47" width="2" height="2"></rect><rect x="37" y="53" width="2" height="2"></rect><rect x="19" y="31" width="2" height="2"></rect><polygon points="55 57 57 57 57 51 53 51 53 53 55 53 55 57"></polygon><rect x="53" y="47" width="2" height="2"></rect><polygon points="57 45 57 39 55 39 55 43 53 43 53 45 57 45"></polygon><rect x="55" y="35" width="2" height="2"></rect><polygon points="57 19 55 19 55 28 51 28 51 26 47 26 47 30 55 30 55 33 57 33 57 19"></polygon><polygon points="36 46 42 46 42 42 40 42 40 38 34 38 34 42 36 42 36 46"></polygon><polygon points="19 39 19 37 11 37 11 45 15 45 15 43 13 43 13 41 17 41 17 47 19 47 19 45 23 45 23 43 21 43 21 41 23 41 23 39 19 39"></polygon><polygon points="53 39 49 39 49 37 45 37 45 41 47 41 47 47 49 47 49 45 51 45 51 41 53 41 53 39"></polygon></g></svg>