<svg xmlns="http://www.w3.org/2000/svg" viewBox="0 0 64 64" x="0px" y="0px"><g data-name="Chichen Itza Pyramid-Landmark-Mexico-Pyramids-Chichen Itza"><polygon points="29.93 20 29.65 24 34.35 24 34.07 20 29.93 20"></polygon><polygon points="29.36 28 34.64 28 34.5 26 29.5 26 29.36 28"></polygon><polygon points="29.07 32 34.93 32 34.78 30 29.22 30 29.07 32"></polygon><polygon points="28.07 46 27.93 48 36.07 48 35.93 46 28.07 46"></polygon><polygon points="28.5 40 35.5 40 35.35 38 28.65 38 28.5 40"></polygon><polygon points="28.79 36 35.21 36 35.07 34 28.93 34 28.79 36"></polygon><path d="M35,15a3,3,0,0,0-6,0v3h6Z"></path><polygon points="42.46 48 56 48 56 44 41.98 44 42.46 48"></polygon><path d="M24,18h3V15a5,5,0,0,1,10,0v3h3V8H24Z"></path><polygon points="27.36 56 36.64 56 36.5 54 27.5 54 27.36 56"></polygon><polygon points="41.75 42 54 42 54 38 41.27 38 41.75 42"></polygon><polygon points="28.22 44 35.78 44 35.64 42 28.36 42 28.22 44"></polygon><polygon points="27.79 50 27.65 52 36.35 52 36.21 50 27.79 50"></polygon><rect x="24" y="4" width="16" height="2"></rect><polygon points="10 42 22.25 42 22.73 38 10 38 10 42"></polygon><polygon points="6 54 20.83 54 21.3 50 6 50 6 54"></polygon><polygon points="8 48 21.54 48 22.02 44 8 44 8 48"></polygon><polygon points="12 36 22.97 36 23.45 32 12 32 12 36"></polygon><polygon points="14 30 23.68 30 24.16 26 14 26 14 30"></polygon><polygon points="60 60 60 56 43.41 56 43.89 60 60 60"></polygon><polygon points="4 60 20.11 60 20.59 56 4 56 4 60"></polygon><polygon points="58 54 58 50 42.7 50 43.17 54 58 54"></polygon><polygon points="16 24 24.4 24 24.87 20 16 20 16 24"></polygon><polygon points="41.87 60 37.11 20 36.07 20 38.93 60 41.87 60"></polygon><polygon points="36.78 58 27.22 58 27.07 60 36.93 60 36.78 58"></polygon><polygon points="41.03 36 52 36 52 32 40.55 32 41.03 36"></polygon><polygon points="25.07 60 27.93 20 26.89 20 22.13 60 25.07 60"></polygon><polygon points="39.6 24 48 24 48 20 39.13 20 39.6 24"></polygon><polygon points="40.32 30 50 30 50 26 39.84 26 40.32 30"></polygon></g></svg>