<svg xmlns="http://www.w3.org/2000/svg" viewBox="0 0 64 64" x="0px" y="0px"><g data-name="World wide"><path d="M60,50H48a2,2,0,0,0-2,2v8a2,2,0,0,0,2,2H60a2,2,0,0,0,2-2V52A2,2,0,0,0,60,50Zm-1.015,2L54,54.848,49.015,52ZM48,60V53.723l5.008,2.861a2,2,0,0,0,1.984,0L60,53.723V60Z"></path><path d="M60,2H48a2,2,0,0,0-2,2v8a2,2,0,0,0,2,2H60a2,2,0,0,0,2-2V4A2,2,0,0,0,60,2ZM58.985,4,54,6.848,49.015,4ZM48,12V5.723l5.008,2.861a2,2,0,0,0,1.984,0L60,5.723V12Z"></path><path d="M4,14H16a2,2,0,0,0,2-2V4a2,2,0,0,0-2-2H4A2,2,0,0,0,2,4v8A2,2,0,0,0,4,14Zm0-2V5.723L9.008,8.584a2,2,0,0,0,1.984,0L16,5.723V12ZM5.015,4h9.97L10,6.848Z"></path><path d="M16,50H4a2,2,0,0,0-2,2v8a2,2,0,0,0,2,2H16a2,2,0,0,0,2-2V52A2,2,0,0,0,16,50Zm-1.015,2L10,54.848,5.015,52ZM4,60V53.723l5.008,2.861a2,2,0,0,0,1.984,0L16,53.723V60Z"></path><path d="M50.828,41.242,54,44.414V48h2V44a1,1,0,0,0-.293-.707l-4.029-4.029a20.618,20.618,0,0,0,0-14.528l4.029-4.029A1,1,0,0,0,56,20V16H54v3.586l-3.172,3.172a20.954,20.954,0,0,0-37.656,0L10,19.586V16H8v4a1,1,0,0,0,.293.707l4.029,4.029a20.618,20.618,0,0,0,0,14.528L8.293,43.293A1,1,0,0,0,8,44v4h2V44.414l3.172-3.172a20.954,20.954,0,0,0,37.656,0ZM32,51A19.015,19.015,0,0,1,14.668,39.746l2.039-2.039-1.414-1.414-1.414,1.414a18.966,18.966,0,0,1,0-11.414l1.414,1.414,1.414-1.414-2.039-2.039a18.973,18.973,0,0,1,34.664,0l-2.039,2.039,1.414,1.414,1.414-1.414a18.966,18.966,0,0,1,0,11.414l-1.414-1.414-1.414,1.414,2.039,2.039A19.015,19.015,0,0,1,32,51Z"></path><path d="M32,19A13,13,0,1,0,45,32,13.015,13.015,0,0,0,32,19ZM27.692,41.714a.919.919,0,0,1-.379.223A10.965,10.965,0,0,1,24.474,24H32a1,1,0,0,1,1,1,.978.978,0,0,1-.306.712A.957.957,0,0,1,32,26H27a3,3,0,0,0-3,3,3.015,3.015,0,0,0,3,3h3a1,1,0,0,1,1,1,.978.978,0,0,1-.306.712A.957.957,0,0,1,30,34H27a3,3,0,0,0-3,3,3.015,3.015,0,0,0,3,3,.978.978,0,0,1,.713.306A.965.965,0,0,1,28,41,.98.98,0,0,1,27.692,41.714ZM40.479,39H37a1,1,0,0,1,0-2h1.28a1,1,0,0,0,.87-1.493A1.013,1.013,0,0,1,39,35a1,1,0,0,1,1-1h2.809A10.953,10.953,0,0,1,40.479,39ZM43,32H40a3,3,0,0,0-3,3,3,3,0,0,0,0,6h1.3a10.855,10.855,0,0,1-8.834,1.7A3,3,0,0,0,27,38a.978.978,0,0,1-.713-.306A.965.965,0,0,1,26,37a1,1,0,0,1,1-1h3a3.017,3.017,0,0,0,3-3,3,3,0,0,0-3-3H27a.978.978,0,0,1-.713-.306A.965.965,0,0,1,26,29a1,1,0,0,1,1-1h5a3.017,3.017,0,0,0,3-3,3,3,0,0,0-3-3H27.444a10.923,10.923,0,0,1,12.129,2.042,2.88,2.88,0,0,0-1.68.832A2.935,2.935,0,0,0,37,27a3,3,0,0,0,3,3h2.809A10.989,10.989,0,0,1,43,32Zm-.764-4H40a1,1,0,0,1-1-1,.975.975,0,0,1,.307-.712A.952.952,0,0,1,40,26h1.208A10.976,10.976,0,0,1,42.236,28Z"></path></g></svg>