<svg xmlns="http://www.w3.org/2000/svg" viewBox="0 0 64 64" x="0px" y="0px"><g data-name="skyscraper-building-tower-city-real estate"><rect x="45" y="30" width="2" height="2"></rect><rect x="49" y="30" width="2" height="2"></rect><rect x="53" y="30" width="2" height="2"></rect><rect x="45" y="34" width="2" height="2"></rect><rect x="49" y="34" width="2" height="2"></rect><rect x="53" y="34" width="2" height="2"></rect><rect x="45" y="38" width="2" height="2"></rect><rect x="49" y="38" width="2" height="2"></rect><rect x="53" y="38" width="2" height="2"></rect><rect x="45" y="42" width="2" height="2"></rect><rect x="49" y="42" width="2" height="2"></rect><rect x="53" y="42" width="2" height="2"></rect><rect x="45" y="46" width="2" height="2"></rect><rect x="49" y="46" width="2" height="2"></rect><rect x="53" y="46" width="2" height="2"></rect><rect x="45" y="50" width="2" height="2"></rect><rect x="49" y="50" width="2" height="2"></rect><rect x="53" y="50" width="2" height="2"></rect><rect x="45" y="54" width="2" height="2"></rect><rect x="49" y="54" width="2" height="2"></rect><rect x="53" y="54" width="2" height="2"></rect><rect x="17" y="30" width="2" height="2"></rect><rect x="13" y="30" width="2" height="2"></rect><rect x="9" y="30" width="2" height="2"></rect><rect x="17" y="34" width="2" height="2"></rect><rect x="13" y="34" width="2" height="2"></rect><rect x="9" y="34" width="2" height="2"></rect><rect x="45" y="22" width="2" height="2"></rect><rect x="49" y="22" width="2" height="2"></rect><rect x="53" y="22" width="2" height="2"></rect><rect x="45" y="26" width="2" height="2"></rect><rect x="49" y="26" width="2" height="2"></rect><rect x="53" y="26" width="2" height="2"></rect><rect x="17" y="22" width="2" height="2"></rect><rect x="13" y="22" width="2" height="2"></rect><rect x="9" y="22" width="2" height="2"></rect><rect x="17" y="26" width="2" height="2"></rect><rect x="13" y="26" width="2" height="2"></rect><rect x="9" y="26" width="2" height="2"></rect><rect x="45" y="18" width="2" height="2"></rect><rect x="49" y="18" width="2" height="2"></rect><rect x="53" y="18" width="2" height="2"></rect><rect x="17" y="18" width="2" height="2"></rect><rect x="13" y="18" width="2" height="2"></rect><rect x="9" y="18" width="2" height="2"></rect><rect x="17" y="38" width="2" height="2"></rect><rect x="13" y="38" width="2" height="2"></rect><rect x="9" y="38" width="2" height="2"></rect><rect x="17" y="42" width="2" height="2"></rect><rect x="13" y="42" width="2" height="2"></rect><rect x="9" y="42" width="2" height="2"></rect><rect x="17" y="46" width="2" height="2"></rect><rect x="13" y="46" width="2" height="2"></rect><rect x="9" y="46" width="2" height="2"></rect><rect x="17" y="50" width="2" height="2"></rect><rect x="13" y="50" width="2" height="2"></rect><rect x="9" y="50" width="2" height="2"></rect><rect x="17" y="54" width="2" height="2"></rect><rect x="13" y="54" width="2" height="2"></rect><rect x="9" y="54" width="2" height="2"></rect><path d="M26,40H38a1,1,0,0,0,1-1V7a1,1,0,0,0-1-1H26a1,1,0,0,0-1,1V39A1,1,0,0,0,26,40Zm1-4h2v2H27Zm6-24v2H31V12Zm-2-2V8h2v2Zm0,24V32h2v2Zm2,2v2H31V36Zm0-16v2H31V20Zm-2-2V16h2v2Zm2,6v2H31V24Zm0,4v2H31V28Zm2,4h2v2H35Zm0-2V28h2v2Zm0-4V24h2v2Zm0-4V20h2v2Zm0-4V16h2v2Zm0-4V12h2v2Zm-6,0H27V12h2Zm0,2v2H27V16Zm0,4v2H27V20Zm0,4v2H27V24Zm0,4v2H27V28Zm0,4v2H27V32Zm6,6V36h2v2Zm2-28H35V8h2ZM29,8v2H27V8Z"></path><rect x="26" y="50" width="12" height="2"></rect><path d="M59,60V14a1,1,0,0,0,1-1V9a1,1,0,0,0-1-1H43V3a1,1,0,0,0-1-1H22a1,1,0,0,0-1,1V8H5A1,1,0,0,0,4,9v4a1,1,0,0,0,1,1V60H2v2H62V60ZM21,60H7V14H21Zm0-48H6V10H21ZM31,60H28V56h3Zm5,0H33V56h3Zm5,0H38V55a1,1,0,0,0-1-1H27a1,1,0,0,0-1,1v5H23V48H41Zm0-14H23V44H41Zm0-4H23V4H41ZM57,60H43V14H57Zm1-48H43V10H58Z"></path></g></svg>