<svg xmlns="http://www.w3.org/2000/svg" viewBox="0 0 64 64" x="0px" y="0px"><g><path d="M57,2H7A5.006,5.006,0,0,0,2,7V57a5.006,5.006,0,0,0,5,5H57a5.006,5.006,0,0,0,5-5V7A5.006,5.006,0,0,0,57,2ZM7,4H57a3,3,0,0,1,3,3v3H4V7A3,3,0,0,1,7,4ZM57,60H7a3,3,0,0,1-3-3V12H60V57A3,3,0,0,1,57,60Z"></path><path d="M8.62,7.92a.943.943,0,0,0,.76,0,1.155,1.155,0,0,0,.33-.21.99.99,0,0,0,.21-1.09,1.032,1.032,0,0,0-.21-.33,1.155,1.155,0,0,0-.33-.21.949.949,0,0,0-.58-.06.636.636,0,0,0-.18.06.556.556,0,0,0-.17.09.955.955,0,0,0-.16.12,1.032,1.032,0,0,0-.21.33.99.99,0,0,0,.21,1.09A1.155,1.155,0,0,0,8.62,7.92Z"></path><path d="M12.62,7.92a.942.942,0,0,0,.76,0,1.155,1.155,0,0,0,.33-.21A.99.99,0,0,0,14,7a.838.838,0,0,0-.08-.38,1.155,1.155,0,0,0-.21-.33,1.576,1.576,0,0,0-.15-.12.757.757,0,0,0-.18-.09.636.636,0,0,0-.18-.06.949.949,0,0,0-.58.06,1.155,1.155,0,0,0-.33.21,1.032,1.032,0,0,0-.21.33.99.99,0,0,0,.21,1.09A1.155,1.155,0,0,0,12.62,7.92Z"></path><path d="M16.29,7.71a1.155,1.155,0,0,0,.33.21.942.942,0,0,0,.76,0,1.155,1.155,0,0,0,.33-.21.99.99,0,0,0,.21-1.09,1.032,1.032,0,0,0-.21-.33,1.155,1.155,0,0,0-.33-.21.949.949,0,0,0-.58-.06.636.636,0,0,0-.18.06.556.556,0,0,0-.17.09.955.955,0,0,0-.16.12,1.032,1.032,0,0,0-.21.33A1,1,0,0,0,16,7a.838.838,0,0,0,.08.38A1.169,1.169,0,0,0,16.29,7.71Z"></path><path d="M33,15H31a5.006,5.006,0,0,0-5,5V44a1,1,0,0,0,.105.447L29,50.236V54a3,3,0,0,0,6,0V50.236l2.9-5.789A1,1,0,0,0,38,44V20A5.006,5.006,0,0,0,33,15Zm.382,34H30.618l-2.237-4.475L32,43.077l3.619,1.448ZM36,27H28V25h8Zm-8,2h3V41.323l-3,1.2Zm5,12.323V29h3V42.523ZM28,20a3,3,0,0,1,3-3h2a3,3,0,0,1,3,3v3H28Zm5,34a1,1,0,0,1-2,0V51h2Z"></path><path d="M23.273,26.764a12,12,0,0,0,0,16.472l1.454-1.373a10,10,0,0,1,0-13.726Z"></path><path d="M40.727,43.236a12,12,0,0,0,0-16.472l-1.454,1.373a10,10,0,0,1,0,13.726Z"></path><path d="M52.124,31.008l-4.812-.6a15.933,15.933,0,0,0-1.237-2.985l2.978-3.827a1,1,0,0,0-.082-1.322l-4.243-4.243a1,1,0,0,0-1.321-.082l-4.355,3.388,1.228,1.578,3.658-2.846,2.994,3L44.087,26.72a1,1,0,0,0-.07,1.127,13.871,13.871,0,0,1,1.539,3.714,1,1,0,0,0,.845.747l4.6.575v4.234l-4.6.575a1,1,0,0,0-.845.747,13.871,13.871,0,0,1-1.539,3.714,1,1,0,0,0,.07,1.127l2.845,3.658-2.994,2.995L40.28,47.087l-1.228,1.578,4.355,3.388a1,1,0,0,0,1.321-.082l4.243-4.243a1,1,0,0,0,.082-1.322l-2.978-3.827a15.933,15.933,0,0,0,1.237-2.985l4.812-.6A1,1,0,0,0,53,38V32A1,1,0,0,0,52.124,31.008Z"></path><path d="M20.593,17.947a1,1,0,0,0-1.321.082l-4.243,4.243a1,1,0,0,0-.082,1.322l2.978,3.827a15.933,15.933,0,0,0-1.237,2.985l-4.812.6A1,1,0,0,0,11,32v6a1,1,0,0,0,.876.992l4.812.6a15.933,15.933,0,0,0,1.237,2.985l-2.978,3.827a1,1,0,0,0,.082,1.322l4.243,4.243a1,1,0,0,0,1.321.082l4.355-3.388L23.72,47.087l-3.658,2.846-2.994-2.995,2.845-3.658a1,1,0,0,0,.07-1.127,13.871,13.871,0,0,1-1.539-3.714,1,1,0,0,0-.845-.747L13,37.117V32.883l4.6-.575a1,1,0,0,0,.845-.747,13.871,13.871,0,0,1,1.539-3.714,1,1,0,0,0-.07-1.127l-2.845-3.658,2.994-3,3.658,2.846,1.228-1.578Z"></path></g></svg>