<svg xmlns="http://www.w3.org/2000/svg" viewBox="0 0 64 64" x="0px" y="0px"><g data-name="Mobile Banking"><circle cx="13" cy="51" r="2"></circle><circle cx="57" cy="11" r="2"></circle><rect x="7" y="12" width="38" height="2"></rect><rect x="47" y="28" width="6" height="1"></rect><rect x="4" y="16" width="44" height="4"></rect><polygon points="18.38 4 11.63 10 40.37 10 33.62 4 18.38 4"></polygon><polygon points="38 38 38 36 32.22 36 33.82 44 38 44 38 40 34 40 34 38 38 38"></polygon><path d="M41,25v1h2V22H9V34H21V25a1,1,0,0,1,1-1h8a1,1,0,0,1,1,1v9h7V32H34a1,1,0,0,1-1-1V25a1,1,0,0,1,1-1h6A1,1,0,0,1,41,25ZM19,31a1,1,0,0,1-1,1H12a1,1,0,0,1-1-1V25a1,1,0,0,1,1-1h6a1,1,0,0,1,1,1Z"></path><path d="M41,60H59a1,1,0,0,0,1-1V29a1,1,0,0,0-1-1H55v1a2,2,0,0,1-2,2H47a2,2,0,0,1-2-2V28H41a1,1,0,0,0-1,1V59A1,1,0,0,0,41,60ZM51,46H49a3,3,0,0,1,0-6V39h2v1a3,3,0,0,1,3,3H52a1,1,0,0,0-1-1H49a1,1,0,0,0,0,2h2a3,3,0,0,1,0,6v1H49V50a3,3,0,0,1-3-3h2a1,1,0,0,0,1,1h2a1,1,0,0,0,0-2Z"></path><polygon points="4 40 4 44 18.18 44 19.78 36 7 36 7 38 18 38 18 40 4 40"></polygon><rect x="13" y="26" width="4" height="4"></rect><rect x="23" y="26" width="6" height="8"></rect><path d="M35,30h3V29a2.985,2.985,0,0,1,1-2.22V26H35Z"></path><path d="M20.22,44H31.78l-1.6-8H21.82ZM24,37h4v2H24Zm-1,4h6v2H23Z"></path><rect x="19" y="57" width="2" height="2"></rect><rect x="23" y="57" width="2" height="2"></rect><rect x="27" y="57" width="2" height="2"></rect><rect x="31" y="57" width="2" height="2"></rect><path d="M23,52V48H21v4a3,3,0,0,0,3,3h2V53H24A1,1,0,0,1,23,52Z"></path><path d="M14,56V55H12v1a3,3,0,0,0,3,3h2V57H15A1,1,0,0,1,14,56Z"></path><rect x="28" y="53" width="2" height="2"></rect><rect x="32" y="53" width="2" height="2"></rect><rect x="56" y="16" width="2" height="2"></rect><rect x="56" y="20" width="2" height="2"></rect></g></svg>