<svg xmlns="http://www.w3.org/2000/svg" viewBox="0 0 64 64" x="0px" y="0px"><g><path d="M37,28.051V25.92a6.941,6.941,0,0,0,2.656-.962l.4,1.187a1,1,0,0,0,.242.39l1.536,1.536a2.978,2.978,0,0,0,2.121.879h2a1,1,0,0,0,1-1v-2a2.978,2.978,0,0,0-.879-2.122l-1.535-1.535a1,1,0,0,0-.391-.241l-1.619-.54A6.946,6.946,0,0,0,43,19V13A10.993,10.993,0,0,0,21.764,9H20v2h1.191A10.989,10.989,0,0,0,21,13v6a6.946,6.946,0,0,0,.474,2.512l-1.619.54a1,1,0,0,0-.391.241l-1.535,1.535a2.978,2.978,0,0,0-.879,2.122v2a1,1,0,0,0,1,1h2a2.978,2.978,0,0,0,2.121-.879l1.536-1.536a1,1,0,0,0,.242-.39l.395-1.187A6.941,6.941,0,0,0,27,25.92v2.131A13.009,13.009,0,0,0,15,41V61a1,1,0,0,0,1,1H48a1,1,0,0,0,1-1V41A13.009,13.009,0,0,0,37,28.051ZM26,15a3.029,3.029,0,1,0,.78-2H26V11h7a7.961,7.961,0,0,0,5-1.751V13h-.78A2.987,2.987,0,1,0,38,15v5a4,4,0,0,1-4,4H30a4,4,0,0,1-4-4Zm2,0a1,1,0,1,1,1,1A1,1,0,0,1,28,15Zm8,0a1,1,0,1,1-1-1A1,1,0,0,1,36,15ZM30,26h5v2.649L32,32.4l-3-3.75V26Zm-1.927,4.692,2.5,3.127-2.131,1.6-1.32-3.3ZM32,35.25l2.763,2.072L32,43.538l-2.763-6.216Zm3.556.167-2.131-1.6,2.5-3.127.949,1.425Zm9.1-10.175h0a.993.993,0,0,1,.293.707v1h-1a1,1,0,0,1-.707-.293l-1.369-1.369-.437-1.31.54-.54,1.312.436ZM41,19a4.971,4.971,0,0,1-1.637,3.675A5.955,5.955,0,0,0,40,20V15h1Zm-1-6V8.9A8.93,8.93,0,0,1,41,13ZM32,4a8.956,8.956,0,0,1,6,2.309A5.936,5.936,0,0,1,33,9H23.95A9,9,0,0,1,32,4Zm-8.768,7H24v2H23A8.971,8.971,0,0,1,23.232,11ZM24,15v5a5.955,5.955,0,0,0,.637,2.675A4.971,4.971,0,0,1,23,19V15ZM22.126,25.288l-1.369,1.369a1,1,0,0,1-.707.293h-1v-1a.993.993,0,0,1,.293-.707h0l1.368-1.368,1.312-.436.54.54ZM47,60H43V50.447a8.417,8.417,0,0,0,0-10.894V38H41v2a1,1,0,0,0,.4.8c.9.679,1.6,2.815,1.6,4.2s-.7,3.522-1.6,4.2a1,1,0,0,0-.4.8V60H23V50a1,1,0,0,0-.4-.8c-.9-.679-1.6-2.815-1.6-4.2s.7-3.522,1.6-4.2A1,1,0,0,0,23,40V38H21v1.553a8.417,8.417,0,0,0,0,10.894V60H17V41a11.013,11.013,0,0,1,9-10.81l-.837,1.255a1,1,0,0,0-.1.926l6.015,14.035a1,1,0,0,0,1.828,0l6.015-14.035a1,1,0,0,0-.1-.926l-.837-1.255A11.013,11.013,0,0,1,47,41Z"></path></g></svg>