<svg xmlns="http://www.w3.org/2000/svg" viewBox="0 0 64 64" x="0px" y="0px"><g data-name="Customer Service-Telephone-Help-Call Center-Shopping Bag"><path d="M29.509,48.905a6.98,6.98,0,0,1-8.016,1.352,17.1,17.1,0,0,1-7.749-7.75A6.98,6.98,0,0,1,15.1,34.491L16.586,33,6.91,23.323A24.977,24.977,0,0,0,40.676,57.091L31,47.414Z"></path><path d="M7.96,21.546,18,31.586l2.379-2.379a1,1,0,0,0,0-1.414L11.389,18.8a1.02,1.02,0,0,0-.721-.3h-.041a.966.966,0,0,0-.7.339A24.766,24.766,0,0,0,7.96,21.546Z"></path><path d="M45.154,54.075a.961.961,0,0,0,.34-.7,1.028,1.028,0,0,0-.3-.763l-8.99-8.99a1.021,1.021,0,0,0-1.414,0L32.414,46l10.04,10.04A24.617,24.617,0,0,0,45.154,54.075Z"></path><polygon points="48 17 46 17 46 15 40 15 40 17 38 17 38 15 36 15 36 25 50 25 50 15 48 15 48 17"></polygon><path d="M36,28a1,1,0,0,0,1,1H49a1,1,0,0,0,1-1V27H36Z"></path><path d="M46,11a3,3,0,0,0-6,0v2h6Z"></path><path d="M43,4A16,16,0,0,0,30.7,30.223a1,1,0,0,1,.168.991l-1.154,3.077L33,33.056a.994.994,0,0,1,.351-.064,1.006,1.006,0,0,1,.568.177A16,16,0,1,0,43,4Zm9,24a3,3,0,0,1-3,3H37a3,3,0,0,1-3-3V14a1,1,0,0,1,1-1h3V11a5,5,0,0,1,10,0v2h3a1,1,0,0,1,1,1Z"></path></g></svg>