<svg xmlns="http://www.w3.org/2000/svg" data-name="coffee cup-coffee mug-espresso-drink-coffee" viewBox="0 0 64 64" x="0px" y="0px"><path d="M23,16h2a2.258,2.258,0,0,1,.759-1.681,4.208,4.208,0,0,0,0-5.967,2.246,2.246,0,0,1,0-3.368A4.167,4.167,0,0,0,27,2H25a2.264,2.264,0,0,1-.76,1.684,4.21,4.21,0,0,0,0,5.968,2.243,2.243,0,0,1,0,3.365A4.162,4.162,0,0,0,23,16Z"></path><path d="M31,16h2a2.258,2.258,0,0,1,.759-1.681,4.208,4.208,0,0,0,0-5.967,2.246,2.246,0,0,1,0-3.368A4.167,4.167,0,0,0,35,2H33a2.264,2.264,0,0,1-.76,1.684,4.21,4.21,0,0,0,0,5.968,2.243,2.243,0,0,1,0,3.365A4.162,4.162,0,0,0,31,16Z"></path><path d="M48.47,18H13.31a3.028,3.028,0,0,0-2.27,1.03,2.976,2.976,0,0,0-.7,2.39l5.42,38A3.02,3.02,0,0,0,18.73,62H39.27a3.02,3.02,0,0,0,2.97-2.58l1.89-13.26A5,5,0,0,0,53,43H51a3.022,3.022,0,0,1-3.06,3,2.934,2.934,0,0,1-1.67-5.35l7.62-5.28A9.531,9.531,0,0,0,48.47,18ZM40.25,59.14a.991.991,0,0,1-.98.86H18.73a.991.991,0,0,1-.98-.86l-5.43-38A.988.988,0,0,1,13.31,20H44.69a.988.988,0,0,1,.99,1.14ZM52.76,33.72l-7.6,5.26,2.5-17.56A2.974,2.974,0,0,0,47.51,20h.96a7.531,7.531,0,0,1,4.29,13.72Z"></path></svg>