<svg xmlns="http://www.w3.org/2000/svg" viewBox="0 0 64 64" x="0px" y="0px"><g data-name="Smartphone-Internet Banking-Digital Banking-Money-Business"><path d="M28,29a3,3,0,0,0-3-3H13a3,3,0,0,0-3,3V50.723l2.287,3.811a.994.994,0,0,0,.835.48h.013a.986.986,0,0,0,.953-.732l1.153-4.3a3,3,0,1,1,5.8,1.552L19.839,56H25a3,3,0,0,0,3-3ZM14,30H12V28h2Zm2-2h6v2H16Zm2,10h2a3,3,0,0,1,0,6v1H18V44a3,3,0,0,1-3-3h2a1,1,0,0,0,1,1h2a1,1,0,0,0,0-2H18a3,3,0,0,1,0-6V33h2v1a3,3,0,0,1,3,3H21a1,1,0,0,0-1-1H18a1,1,0,0,0,0,2Z"></path><path d="M19.005,50.255a.993.993,0,0,0-.608-.466,1,1,0,0,0-1.224.707L16.02,54.8a2.986,2.986,0,0,1-2.884,2.214H13.1a2.972,2.972,0,0,1-2.525-1.451L8.143,51.515A1,1,0,0,1,8,51V43.1A5.008,5.008,0,0,0,4,48V60H17v-.21a6.985,6.985,0,0,1,.238-1.811L19.1,51.014A.988.988,0,0,0,19.005,50.255Z"></path><path d="M60,60V48a5.008,5.008,0,0,0-4-4.9V51a1,1,0,0,1-.143.515l-2.429,4.048A2.972,2.972,0,0,1,50.9,57.014,3.05,3.05,0,0,1,47.98,54.8l-1.153-4.3a1,1,0,1,0-1.931.518l1.866,6.965A6.985,6.985,0,0,1,47,59.79V60Z"></path><path d="M45.085,47.857a3,3,0,0,1,3.674,2.122l1.153,4.3a.986.986,0,0,0,.953.732h.013a.994.994,0,0,0,.835-.48L54,50.723V29a3,3,0,0,0-3-3H39a3,3,0,0,0-3,3V53a3,3,0,0,0,3,3h5.161l-1.2-4.469a3,3,0,0,1,2.121-3.674ZM42,28h6v2H42Zm-2,2H38V28h2Zm1,11h2a1,1,0,0,0,1,1h2a1,1,0,0,0,0-2H44a3,3,0,0,1,0-6V33h2v1a3,3,0,0,1,3,3H47a1,1,0,0,0-1-1H44a1,1,0,0,0,0,2h2a3,3,0,0,1,0,6v1H44V44A3,3,0,0,1,41,41Z"></path><rect x="18" y="18" width="10" height="2"></rect><rect x="30" y="18" width="4" height="2"></rect><path d="M20.86,4H18V6.86A4.017,4.017,0,0,0,20.86,4Z"></path><path d="M18,13.14V16h2.86A4.017,4.017,0,0,0,18,13.14Z"></path><circle cx="32" cy="10" r="2"></circle><path d="M46,6.86V4H43.14A4.017,4.017,0,0,0,46,6.86Z"></path><path d="M46,16V13.14A4.017,4.017,0,0,0,43.14,16Z"></path><rect x="36" y="18" width="10" height="2"></rect><path d="M46,11.09V8.91A5.992,5.992,0,0,1,41.09,4H22.91A5.992,5.992,0,0,1,18,8.91v2.18A5.992,5.992,0,0,1,22.91,16H41.09A5.992,5.992,0,0,1,46,11.09ZM32,14a4,4,0,1,1,4-4A4,4,0,0,1,32,14Z"></path><path d="M7,9.414V17H9V9.414l1.293,1.293,1.414-1.414-3-3a1,1,0,0,0-1.414,0l-3,3,1.414,1.414Z"></path><rect x="7" y="19" width="2" height="2"></rect><path d="M55,9.414V17h2V9.414l1.293,1.293,1.414-1.414-3-3a1,1,0,0,0-1.414,0l-3,3,1.414,1.414Z"></path><rect x="55" y="19" width="2" height="2"></rect></g></svg>