<svg xmlns="http://www.w3.org/2000/svg" viewBox="0 0 64 64" x="0px" y="0px"><g><path d="M56.92,49H59a3,3,0,0,0,3-3V36.657a4.966,4.966,0,0,0-1.464-3.535L49.294,21.88A2.982,2.982,0,0,0,47.17,21H41a2,2,0,0,0-2,2V36H3a1,1,0,0,0-1,1v9a3,3,0,0,0,3,3H8.08a6.98,6.98,0,0,0,2.03,4H2v2H62V53H54.89A6.98,6.98,0,0,0,56.92,49Zm3-13H47V27h4.586l7.536,7.536A3.018,3.018,0,0,1,59.92,36ZM4,46V38H40a1,1,0,0,0,1-1V23h6.17a1,1,0,0,1,.71.294L49.586,25H47a2,2,0,0,0-2,2v9a2,2,0,0,0,2,2H60v8a1,1,0,0,1-1,1H56.92a6.991,6.991,0,0,0-13.84,0H21.92A6.991,6.991,0,0,0,8.08,47H5A1,1,0,0,1,4,46Zm6,2a5,5,0,1,1,5,5A5.006,5.006,0,0,1,10,48Zm9.89,5a6.98,6.98,0,0,0,2.03-4H43.08a6.98,6.98,0,0,0,2.03,4ZM45,48a5,5,0,1,1,5,5A5.006,5.006,0,0,1,45,48Z"></path><rect x="40" y="40" width="4" height="2"></rect><path d="M5,34H35a2,2,0,0,0,2-2V10a2,2,0,0,0-2-2H5a2,2,0,0,0-2,2V32A2,2,0,0,0,5,34ZM5,10H35v2H5Zm30,4v2H5V14Zm0,4V32H5V18Z"></path><path d="M20,30a5,5,0,1,0-5-5A5.006,5.006,0,0,0,20,30Zm0-8a3,3,0,1,1-3,3A3,3,0,0,1,20,22Z"></path><path d="M9,22h2V20H8a1,1,0,0,0-1,1v3H9Z"></path><path d="M32,24h2V21a1,1,0,0,0-1-1H30v2h2Z"></path><path d="M8,30h3V28H9V26H7v3A1,1,0,0,0,8,30Z"></path><path d="M34,29V26H32v2H30v2h3A1,1,0,0,0,34,29Z"></path><path d="M15,45a3,3,0,1,0,3,3A3,3,0,0,0,15,45Zm0,4a1,1,0,1,1,1-1A1,1,0,0,1,15,49Z"></path><path d="M50,45a3,3,0,1,0,3,3A3,3,0,0,0,50,45Zm0,4a1,1,0,1,1,1-1A1,1,0,0,1,50,49Z"></path></g></svg>