<svg xmlns="http://www.w3.org/2000/svg" viewBox="0 0 64 64" x="0px" y="0px"><g data-name="Headphone in ear"><circle cx="21" cy="55" r="1"></circle><rect x="11" y="28" width="12" height="2"></rect><path d="M30,30V21a1,1,0,0,0-1-1H5a1,1,0,0,0-1,1v9H9V28a2,2,0,0,1,2-2H23a2,2,0,0,1,2,2v2Z"></path><path d="M5,60H29a1,1,0,0,0,1-1V32H4V59A1,1,0,0,0,5,60Zm21-6h2v2H26Zm-5-2a3,3,0,1,1-3,3A3,3,0,0,1,21,52Z"></path><path d="M51,19.217a6.975,6.975,0,0,1-2-1.548V35h2Z"></path><rect x="49" y="37" width="2" height="2"></rect><rect x="47" y="13" width="1" height="2"></rect><path d="M55,18a4.946,4.946,0,0,0,1-.115v-7.77A4.946,4.946,0,0,0,55,10h-.789a4.989,4.989,0,0,0-4.16,2.227L50,12.3v3.4l.05.074A4.99,4.99,0,0,0,54.208,18Z"></path><polygon points="60 12.5 58 11 58 17 60 15.5 60 12.5"></polygon><polygon points="29 9.5 31 11 31 5 29 6.5 29 9.5"></polygon><rect x="41" y="7" width="1" height="2"></rect><path d="M34.792,12A4.99,4.99,0,0,0,38.95,9.777L39,9.7V6.3l-.051-.076A4.989,4.989,0,0,0,34.789,4H34a4.946,4.946,0,0,0-1,.115v7.77A4.946,4.946,0,0,0,34,12Z"></path><rect x="38" y="31" width="2" height="2"></rect><path d="M40,11.669a6.975,6.975,0,0,1-2,1.548V29h2Z"></path></g></svg>