<svg xmlns="http://www.w3.org/2000/svg" viewBox="0 0 64 64" x="0px" y="0px"><g><path d="M48,49a4.977,4.977,0,0,0-2-3.974V48H44V44.1a5,5,0,0,0-1-.1H41v3H39V44H36v3H34V34a2,2,0,0,0-4,0V57a3,3,0,0,0,3,3H45a3,3,0,0,0,3-3Z"></path><path d="M22.494,45.376a1.986,1.986,0,0,0-.249,2.81L28,55.051V48.834l-2.7-3.21A2.046,2.046,0,0,0,22.494,45.376Z"></path><path d="M12,16.083V21h4.917A6.017,6.017,0,0,0,12,16.083Z"></path><path d="M10,24a1,1,0,0,1-1-1V17.083A6,6,0,1,0,15.917,24Z"></path><path d="M57.858,17A4,4,0,0,1,54,20a3.947,3.947,0,0,1-2.019-.567l-1.452,1.452A5.984,5.984,0,0,0,59.91,17Z"></path><path d="M49.115,19.471l1.452-1.452A3.947,3.947,0,0,1,50,16a4,4,0,0,1,3-3.858V10.09a5.984,5.984,0,0,0-3.885,9.381Z"></path><path d="M55,10.09v2.052A4,4,0,0,1,57.858,15H59.91A6.008,6.008,0,0,0,55,10.09Z"></path><path d="M32,4a7,7,0,1,0,7,7A7.008,7.008,0,0,0,32,4Zm0,6a2.993,2.993,0,0,1,1,5.816V17H31V15.816A3,3,0,0,1,29,13h2a1,1,0,1,0,1-1,2.993,2.993,0,0,1-1-5.816V5h2V6.184A3,3,0,0,1,35,9H33a1,1,0,1,0-1,1Z"></path><rect x="31" y="22" width="2" height="6"></rect><path d="M37.707,29.707,44.414,23H46V21H44a1,1,0,0,0-.707.293l-7,7Z"></path><path d="M20,26h2a1,1,0,0,1,1,1v6a3,3,0,0,0,3,3V34a1,1,0,0,1-1-1V27a3,3,0,0,0-3-3H20Z"></path><path d="M19,58A10.011,10.011,0,0,1,9,48H7a12,12,0,0,0,18.71,9.949l-1.12-1.656A9.951,9.951,0,0,1,19,58Z"></path><path d="M61,31.2l-5.445,3.63a1,1,0,0,1-1.11,0L49,31.2V37H61Z"></path><polygon points="57.697 31 52.303 31 55 32.798 57.697 31"></polygon><path d="M38.554,39.71l1.889.658a8.068,8.068,0,0,1,4.889-4.913l-.666-1.885A10.08,10.08,0,0,0,38.554,39.71Z"></path><path d="M8.71,38.64l-.71.7-.71-.7a2,2,0,1,0-2.83,2.82L8,45l3.54-3.54a2,2,0,1,0-2.83-2.82Z"></path></g></svg>