<svg xmlns="http://www.w3.org/2000/svg" viewBox="0 0 64 64" x="0px" y="0px"><g data-name="Online Support-Ecommerce-Merchant-Seller-Operator"><path d="M23,25V23a1,1,0,0,0-1-1H11.82A3,3,0,0,0,6,23v1.12A7,7,0,0,0,4,29v2.71a5.971,5.971,0,0,0,4,9.2v4.55L4.23,47.98A4.974,4.974,0,0,0,2,52.14V61a1,1,0,0,0,1,1H22a1,1,0,0,0,1-1V55.64a9.027,9.027,0,0,0-4.53-7.81L16,46.42V43.93A8,8,0,0,0,23,36V32a4.007,4.007,0,0,0-1.71-3.27A4.949,4.949,0,0,0,23,25ZM8,23a1,1,0,0,1,2,0v6.09a6.1,6.1,0,0,0-2,0ZM5,35a3.959,3.959,0,0,1,.8-2.4,4.032,4.032,0,0,1,4.79-1.28A4.024,4.024,0,0,1,13,35a3.849,3.849,0,0,1-.24,1.31L9.55,34.17l-1.1,1.66,3.2,2.14A3.979,3.979,0,0,1,5,35Zm5,7.24a7.9,7.9,0,0,0,4,1.69v1.89l-4-.67ZM8,60H4V58H8Zm0-4H4V52.14a3.008,3.008,0,0,1,1.33-2.5L6,49.2V51a2.006,2.006,0,0,1,2,2Zm9.47-6.43A7,7,0,0,1,21,55.64V60H10V53a3.985,3.985,0,0,0-3.74-3.97l2.97-1.98,5.43.91ZM21,36a6,6,0,0,1-9.85,4.6,6.086,6.086,0,0,0,2.21-1.49l1.09.72A.967.967,0,0,0,15,40h3V38H15.3l-.83-.55A5.922,5.922,0,0,0,15,35a6,6,0,0,0-2.7-5H19a2.006,2.006,0,0,1,2,2Zm0-11a3.009,3.009,0,0,1-3,3H12V24h9Z"></path><path d="M56,2H34a7.008,7.008,0,0,0-7,7V49a7.008,7.008,0,0,0,7,7H56a7.008,7.008,0,0,0,7-7V9A7.008,7.008,0,0,0,56,2Zm5,47a5,5,0,0,1-5,5H34a5,5,0,0,1-5-5V9a5,5,0,0,1,5-5H56a5,5,0,0,1,5,5Z"></path><rect x="37" y="6" width="2" height="2"></rect><rect x="41" y="6" width="8" height="2"></rect><path d="M47,46H43a3,3,0,0,0,0,6h4a3,3,0,0,0,0-6Zm0,4H43a1,1,0,0,1,0-2h4a1,1,0,0,1,0,2Z"></path><path d="M53,22.93A1.011,1.011,0,0,0,52,22H49V20a4,4,0,0,0-8,0v2H38a1.011,1.011,0,0,0-1,.93l-.84,11.86A3,3,0,0,0,39.15,38h11.7a3,3,0,0,0,2.99-3.21ZM43,20a2,2,0,0,1,4,0v2H43Zm8.58,15.68a.97.97,0,0,1-.73.32H39.15a.97.97,0,0,1-.73-.32.949.949,0,0,1-.27-.75L38.93,24H41v2h2V24h4v2h2V24h2.07l.78,10.93A.949.949,0,0,1,51.58,35.68Z"></path><rect x="7" y="6" width="10" height="2"></rect><rect x="7" y="10" width="10" height="2"></rect><path d="M4,16h7.382l1.723,3.447a1,1,0,0,0,1.79,0L16.618,16H20a2,2,0,0,0,2-2V4a2,2,0,0,0-2-2H4A2,2,0,0,0,2,4V14A2,2,0,0,0,4,16ZM4,4H20V14H16a1,1,0,0,0-.895.553L14,16.764,12.9,14.553A1,1,0,0,0,12,14H4Z"></path></g></svg>