<svg xmlns="http://www.w3.org/2000/svg" viewBox="0 0 64 64" x="0px" y="0px"><g data-name="Delivery Truck"><path d="M17.392,45.56c.08.1.159.2.234.3.036.049.078.093.113.143H20V24H16V37a1,1,0,0,1-1,1H4v2H7v2H4v4H6.261c.033-.048.074-.09.108-.138.082-.111.168-.217.256-.323s.2-.236.306-.348.2-.2.3-.294.228-.2.346-.3.213-.172.324-.252c.128-.092.258-.177.391-.261.113-.07.225-.141.341-.2.143-.079.29-.148.438-.217.115-.053.229-.109.347-.156.161-.064.326-.116.492-.169.113-.035.223-.076.338-.106.188-.049.38-.082.573-.115.1-.017.193-.042.292-.054a6.638,6.638,0,0,1,1.781,0c.1.012.19.036.285.053.2.033.39.067.58.117.112.029.219.068.328.1.17.053.34.107.505.173.112.045.22.1.33.149.155.071.309.144.459.226.108.06.212.126.317.192.143.089.283.181.419.28.1.073.2.151.3.23.13.106.256.215.379.331.091.086.181.174.268.265C17.173,45.3,17.284,45.429,17.392,45.56Z"></path><polygon points="12.414 24 4 32.414 4 36 14 36 14 24 12.414 24"></polygon><path d="M16.329,47.509a4.989,4.989,0,0,0-8.652-.01A4.838,4.838,0,0,0,7,50a5,5,0,0,0,10,0A4.829,4.829,0,0,0,16.329,47.509ZM12,52a2,2,0,1,1,2-2A2,2,0,0,1,12,52Z"></path><path d="M56.329,47.509a4.989,4.989,0,0,0-8.652-.01A4.838,4.838,0,0,0,47,50a5,5,0,0,0,10,0A4.829,4.829,0,0,0,56.329,47.509ZM52,52a2,2,0,1,1,2-2A2,2,0,0,1,52,52Z"></path><path d="M57.392,45.56c.08.1.159.2.234.3.036.049.078.093.113.143H60V40H22v6H46.261c.033-.048.074-.09.108-.138.082-.111.168-.217.256-.323s.2-.236.306-.348.2-.2.3-.294.228-.2.346-.3.213-.172.324-.252c.128-.092.258-.177.391-.261.113-.07.225-.141.341-.2.143-.079.29-.148.438-.217.115-.053.229-.109.347-.156.161-.064.326-.116.492-.169.113-.035.223-.076.338-.106.188-.049.38-.082.573-.115.1-.017.193-.042.292-.054a6.638,6.638,0,0,1,1.781,0c.1.012.19.036.285.053.2.033.39.067.58.117.112.029.219.068.328.1.17.053.34.107.5.173.112.045.22.1.33.149.155.071.309.144.459.226.108.06.212.126.317.192.143.089.283.181.419.28.1.073.2.151.3.23.13.106.256.215.379.331.091.086.181.174.268.265C57.173,45.3,57.284,45.429,57.392,45.56Z"></path><rect x="22" y="36" width="38" height="2"></rect><path d="M54,19H28a1,1,0,0,0,0,2H54a1,1,0,0,0,0-2Z"></path><path d="M60,14H22V34H60ZM54,31H28a3,3,0,0,1,0-6H54a3,3,0,0,1,0,6Zm0-8H28a3,3,0,0,1,0-6H54a3,3,0,0,1,0,6Z"></path><path d="M54,27H28a1,1,0,0,0,0,2H54a1,1,0,0,0,0-2Z"></path></g></svg>