<svg xmlns="http://www.w3.org/2000/svg" viewBox="0 0 64 64" x="0px" y="0px"><g><path d="M59,53H55a2.006,2.006,0,0,0-2,2v2h8V55A2.006,2.006,0,0,0,59,53Z"></path><rect x="17" y="44" width="18" height="2"></rect><polygon points="31 8 33.586 8 31 5.414 31 8"></polygon><path d="M18,4V26H34V10H31a2,2,0,0,1-2-2V4ZM31,22H21V20H31Zm0-4H21V16H31Zm0-6v2H21V12Z"></path><path d="M6,8A1,1,0,0,0,5,9V30H47V9a1,1,0,0,0-1-1H36V26a2,2,0,0,1-2,2H18a2,2,0,0,1-2-2V8Z"></path><path d="M47,35V32H5v3a1,1,0,0,0,1,1H46A1,1,0,0,0,47,35Zm-4,0H41V33h2Z"></path><rect x="22" y="38" width="8" height="4"></rect><path d="M41,50H39V48a3,3,0,0,1,3-3H58a1,1,0,0,0,0-2H44a3,3,0,0,1-3-3V38h2v2a1,1,0,0,0,1,1H58a3,3,0,0,1,0,6H42a1,1,0,0,0-1,1Z"></path><path d="M5.414,56H46.586l-4-4H9.414ZM40,53h2v2H40ZM14,53H38v2H14Zm-4,0h2v2H10Z"></path><rect x="4" y="58" width="44" height="2"></rect></g></svg>