<svg xmlns="http://www.w3.org/2000/svg" viewBox="0 0 64 64" x="0px" y="0px"><g><path d="M28,33h1a3,3,0,0,0,6,0h1a2.993,2.993,0,0,0,1-5.816V24a4.992,4.992,0,0,0-2.15-4.1,3,3,0,1,0-5.7,0A4.992,4.992,0,0,0,27,24v3.184A2.993,2.993,0,0,0,28,33Zm4,1a1,1,0,0,1-1-1h2A1,1,0,0,1,32,34ZM31,19a1,1,0,0,1,2,0,.821.821,0,0,1-.018.1,4.92,4.92,0,0,0-1.964,0A.821.821,0,0,1,31,19Zm-2,5a3,3,0,0,1,6,0v3H29Zm-1,5h8a1,1,0,0,1,0,2H28a1,1,0,0,1,0-2Z"></path><rect x="42" y="25" width="6" height="2"></rect><rect x="41.838" y="20" width="6.325" height="2" transform="matrix(0.949, -0.316, 0.316, 0.949, -4.332, 15.316)"></rect><rect x="44" y="27.838" width="2" height="6.325" transform="translate(1.361 63.888) rotate(-71.565)"></rect><rect x="16" y="25" width="6" height="2"></rect><rect x="18" y="17.838" width="2" height="6.325" transform="translate(-6.931 32.384) rotate(-71.565)"></rect><rect x="15.838" y="30" width="6.325" height="2" transform="matrix(0.949, -0.316, 0.316, 0.949, -8.832, 7.603)"></rect><path d="M57,2H7A5.006,5.006,0,0,0,2,7V45a5.006,5.006,0,0,0,5,5H23.867l-.75,6H21a3,3,0,0,0,0,6H43a3,3,0,0,0,0-6H40.883l-.75-6H57a5.006,5.006,0,0,0,5-5V7A5.006,5.006,0,0,0,57,2ZM7,4H57a3,3,0,0,1,3,3v3H4V7A3,3,0,0,1,7,4Zm53,8V40H4V12ZM44,59a1,1,0,0,1-1,1H21a1,1,0,0,1,0-2H43A1,1,0,0,1,44,59Zm-5.133-3H25.133l.75-6H38.117ZM57,48H7a3,3,0,0,1-3-3V42H60v3A3,3,0,0,1,57,48Z"></path><rect x="54" y="44" width="2" height="2"></rect><rect x="8" y="6" width="2" height="2"></rect><rect x="12" y="6" width="2" height="2"></rect><rect x="16" y="6" width="2" height="2"></rect></g></svg>