<svg xmlns="http://www.w3.org/2000/svg" data-name="Entertainment-Parent Control" viewBox="0 0 64 64" x="0px" y="0px"><path d="M51,2H13A5.006,5.006,0,0,0,8,7V57a5.006,5.006,0,0,0,5,5H51a5.006,5.006,0,0,0,5-5V7A5.006,5.006,0,0,0,51,2ZM27,4H37V5a1,1,0,0,1-1,1H28a1,1,0,0,1-1-1ZM54,57a3,3,0,0,1-3,3H13a3,3,0,0,1-3-3V7a3,3,0,0,1,3-3H25V5a3,3,0,0,0,3,3h8a3,3,0,0,0,3-3V4H51a3,3,0,0,1,3,3Z"></path><path d="M47,12H17a3,3,0,0,0-3,3V39a3,3,0,0,0,3,3H47a3,3,0,0,0,3-3V15A3,3,0,0,0,47,12ZM17,14H47a1,1,0,0,1,1,1v3H16V15A1,1,0,0,1,17,14ZM16,39V20h4V40H17A1,1,0,0,1,16,39Zm31,1H22V20H48V39A1,1,0,0,1,47,40Z"></path><path d="M43,46H21a1,1,0,0,0-1,1v8a1,1,0,0,0,1,1H43a1,1,0,0,0,1-1V47A1,1,0,0,0,43,46Zm-1,8H22V48H42Z"></path><rect x="29" y="50" width="2" height="2"></rect><rect x="33" y="50" width="2" height="2"></rect><rect x="37" y="50" width="2" height="2"></rect><rect x="25" y="50" width="2" height="2"></rect><path d="M38.447,28.105l-6-3A1,1,0,0,0,31,26v6a1,1,0,0,0,1.447.9l6-3a1,1,0,0,0,0-1.79ZM33,30.382V27.618L35.764,29Z"></path></svg>