<svg xmlns="http://www.w3.org/2000/svg" viewBox="0 0 64 64" x="0px" y="0px"><g data-name="Credit Card-Pay-Payment Method-Commerce-Hand"><rect x="19" y="11" width="4" height="4"></rect><rect x="19" y="7" width="4" height="2"></rect><rect x="15" y="7" width="2" height="8"></rect><path d="M47,21H43a2,2,0,0,0,0,4h4a2,2,0,0,0,0-4Z"></path><path d="M52,3H12a1,1,0,0,0-1,1V28a1,1,0,0,0,1,1H52a1,1,0,0,0,1-1V4A1,1,0,0,0,52,3ZM41,7h4V9H41ZM35,7h4V9H35ZM29,7h4V9H29ZM13,19h2v4H13Zm7,8H13V25h7Zm-3-4V19h2v4Zm6,0H21V19h2Zm0-6H15a2.006,2.006,0,0,1-2-2V7a2.006,2.006,0,0,1,2-2h8a2.006,2.006,0,0,1,2,2v8A2.006,2.006,0,0,1,23,17Zm2,2h2v4H25Zm8,8H26V25h7Zm0-4H31V19h2Zm4,0H35V19h2Zm10,4H43a4,4,0,0,1,0-8h4a4,4,0,0,1,0,8Zm4-13H29V12H51Zm0-5H47V7h4Z"></path><path d="M47,61,46,48.077a.945.945,0,0,1,0-.119L46.759,31H43v2a1,1,0,0,1-2,0V31H37v2a1,1,0,0,1-2,0V31H31v2a1,1,0,0,1-2,0V31H25v5l.5.866a6.036,6.036,0,0,1,6.316,3.27l1.371,2.793-1.794.882-1.371-2.79A4.028,4.028,0,0,0,25.4,38.927l-.121.034a1,1,0,0,1-1.141-.461l-4-6.931a2.058,2.058,0,0,0-2.736-.732,2.014,2.014,0,0,0-.731,2.736l8.2,14.2a1,1,0,0,1,.134.5V61Z"></path></g></svg>