<svg xmlns="http://www.w3.org/2000/svg" viewBox="0 0 64 64" x="0px" y="0px"><path d="M11,49h2a1,1,0,0,1,1,1h2a3,3,0,0,0-3-3V46H11v1a3,3,0,0,0,0,6h2a1,1,0,0,1,0,2H11a1,1,0,0,1-1-1H8a3,3,0,0,0,3,3v1h2V57a3,3,0,0,0,0-6H11a1,1,0,0,1,0-2Z"></path><path d="M51,49h2a1,1,0,0,1,1,1h2a3,3,0,0,0-3-3V46H51v1a3,3,0,0,0,0,6h2a1,1,0,0,1,0,2H51a1,1,0,0,1-1-1H48a3,3,0,0,0,3,3v1h2V57a3,3,0,0,0,0-6H51a1,1,0,0,1,0-2Z"></path><path d="M57.458,43.632a27.885,27.885,0,0,0,0-23.264A9.993,9.993,0,1,0,43.632,6.542a27.885,27.885,0,0,0-23.264,0A9.993,9.993,0,1,0,6.542,20.368a27.885,27.885,0,0,0,0,23.264A9.993,9.993,0,1,0,20.368,57.458a27.885,27.885,0,0,0,23.264,0A9.993,9.993,0,1,0,57.458,43.632ZM52,4a8,8,0,1,1-8,8A8.009,8.009,0,0,1,52,4ZM4,12a8,8,0,1,1,8,8A8.009,8.009,0,0,1,4,12Zm8,48a8,8,0,1,1,8-8A8.009,8.009,0,0,1,12,60Zm20-2a25.655,25.655,0,0,1-10.711-2.319,9.981,9.981,0,0,0-12.97-12.97,25.9,25.9,0,0,1,0-21.422,9.981,9.981,0,0,0,12.97-12.97,25.9,25.9,0,0,1,21.422,0,9.981,9.981,0,0,0,12.97,12.97,25.9,25.9,0,0,1,0,21.422,9.981,9.981,0,0,0-12.97,12.97A25.655,25.655,0,0,1,32,58Zm20,2a8,8,0,1,1,8-8A8.009,8.009,0,0,1,52,60Z"></path><path d="M13,18V17a3,3,0,0,0,0-6H11a1,1,0,0,1,0-2h2a1,1,0,0,1,1,1h2a3,3,0,0,0-3-3V6H11V7a3,3,0,0,0,0,6h2a1,1,0,0,1,0,2H11a1,1,0,0,1-1-1H8a3,3,0,0,0,3,3v1Z"></path><path d="M53,15H51a1,1,0,0,1-1-1H48a3,3,0,0,0,3,3v1h2V17a3,3,0,0,0,0-6H51a1,1,0,0,1,0-2h2a1,1,0,0,1,1,1h2a3,3,0,0,0-3-3V6H51V7a3,3,0,0,0,0,6h2a1,1,0,0,1,0,2Z"></path><path d="M40,18H37a1,1,0,0,0-.948.684L35.279,21h-.558l-.773-2.316A1,1,0,0,0,33,18H31a1,1,0,0,0-.948.684L29.279,21h-.558l-.773-2.316A1,1,0,0,0,27,18H24a1,1,0,0,0-1,1v4a1,1,0,0,0,.105.447l1.466,2.932A2.989,2.989,0,0,0,26,32h.78l-.726,3.634-2.911,4.851A1,1,0,0,0,23,41v3a2,2,0,0,0,2,2H39a2,2,0,0,0,2-2V41a1,1,0,0,0-.143-.515l-2.911-4.851L37.22,32H38a2.989,2.989,0,0,0,1.429-5.621L40.9,23.447A1,1,0,0,0,41,23V19A1,1,0,0,0,40,18ZM25,20h1.279l.773,2.316A1,1,0,0,0,28,23h2a1,1,0,0,0,.948-.684L31.721,20h.558l.773,2.316A1,1,0,0,0,34,23h2a1,1,0,0,0,.948-.684L37.721,20H39v2.764L37.382,26H26.618L25,22.764Zm0,24V42H39v2Zm13.234-4H25.766l1.8-3h8.868ZM35.78,35H28.22l.6-3h6.36ZM38,30H26a1,1,0,0,1,0-2H38a1,1,0,0,1,0,2Z"></path></svg>