<svg xmlns="http://www.w3.org/2000/svg" viewBox="0 0 64 64" x="0px" y="0px"><title>Goal</title><g data-name="Goal"><path d="M61.787,60.466,38,22.77V19.941A8.978,8.978,0,0,0,43.689,17H57a1,1,0,0,0,.786-1.618l-3.505-4.455,3.5-4.3A1,1,0,0,0,57,5H43.689A8.993,8.993,0,1,0,36,19.941v2.8L23.466,40.392l-2.643-3.967a1,1,0,0,0-.818-.446,1.02,1.02,0,0,0-.831.423L2.168,60.422A1,1,0,0,0,2.985,62H60.941a1,1,0,0,0,.846-1.534ZM54.9,7l-2.441,3H49v2h3.581l2.36,3H45.05a8.9,8.9,0,0,0,0-8ZM30,11a7,7,0,1,1,7,7A7.008,7.008,0,0,1,30,11ZM4.918,60l5.664-8h4l2.686,2.686,1.414-1.414-2.979-2.979A1,1,0,0,0,15,50H12l7.968-11.254,11.2,16.809A1,1,0,0,0,32,56h7.621l4,4Zm41.528,0-5.707-5.707A1,1,0,0,0,40.032,54h-7.5L24.653,42.174,27,38.869V39H37.586l3.822,3.822,1.414-1.414-4.115-4.115A1,1,0,0,0,38,37H28.327l8.624-12.145L59.127,60Z"></path><path d="M15.5,31H21a1,1,0,0,0,.79-.386L27.4,23.4l.3,1.717,1.97-.344-.69-3.94a1,1,0,0,0-1.157-.813l-3.94.69.344,1.97,1.387-.243L20.511,29H15a1,1,0,0,0-.8.4l-9,12,1.6,1.2Z"></path><path d="M38,17V15.816A2.993,2.993,0,0,0,37,10a1,1,0,1,1,1-1h2a3,3,0,0,0-2-2.816V5H36V6.184A2.993,2.993,0,0,0,37,12a1,1,0,1,1-1,1H34a3,3,0,0,0,2,2.816V17Z"></path><rect x="41" y="10" width="2" height="2"></rect><rect x="31" y="10" width="2" height="2"></rect></g></svg>