<svg xmlns="http://www.w3.org/2000/svg" viewBox="0 0 64 64" x="0px" y="0px"><g><polygon points="22 26.139 20.828 26.951 22 27.672 22 26.139"></polygon><polygon points="32 19.217 30.87 20 33.13 20 32 19.217"></polygon><polygon points="42 26.139 42 27.672 43.172 26.951 42 26.139"></polygon><path d="M34,54H30a1,1,0,0,0,0,2h4a1,1,0,0,0,0-2Z"></path><path d="M40,28.9V22H24v6.9l8,4.923ZM28,24h8v2H28Zm0,4h8v2H28Z"></path><polygon points="44 39.586 44 28.79 37.317 32.903 44 39.586"></polygon><path d="M50,8a4,4,0,0,0-4-4H18a4,4,0,0,0-4,4V56a4,4,0,0,0,4,4H46a4,4,0,0,0,4-4ZM29,6h6V8H29ZM25,6h2V8H25Zm9,52H30a3,3,0,0,1,0-6h4a3,3,0,0,1,0,6ZM46,42a1,1,0,0,1-1,1H19a1,1,0,0,1-1-1V27a1,1,0,0,1,.431-.822L22,23.706V21a1,1,0,0,1,1-1h4.357l4.074-2.822a1,1,0,0,1,1.138,0L36.643,20H41a1,1,0,0,1,1,1v2.706l3.569,2.472A1,1,0,0,1,46,27Z"></path><polygon points="20 28.79 20 39.586 26.683 32.903 20 28.79"></polygon><path d="M32.524,35.852a1,1,0,0,1-1.048,0L28.434,33.98,21.414,41H42.586l-7.02-7.02Z"></path></g></svg>