<svg xmlns="http://www.w3.org/2000/svg" viewBox="0 0 64 64" x="0px" y="0px"><g><path d="M60,46a7,7,0,1,0-10.48,6.05A2.607,2.607,0,0,1,50,52h6a2.607,2.607,0,0,1,.48.05A6.967,6.967,0,0,0,60,46Zm-4.168,2.555a1,1,0,0,1-1.664,0L53,46.8l-1.168,1.752a1.039,1.039,0,0,1-1.664,0l-2-3,1.664-1.11L51,46.2l1.168-1.752a1.039,1.039,0,0,1,1.664,0L55,46.2l1.168-1.752,1.664,1.11Z"></path><path d="M53,60a2.006,2.006,0,0,0,2-2H51A2.006,2.006,0,0,0,53,60Z"></path><path d="M50,54a1,1,0,0,0,0,2h6a1,1,0,0,0,0-2Z"></path><path d="M26,5.23V13h6.95a8.94,8.94,0,0,0-2.59-5.36c-.11-.12-.24-.21-.36-.32V11H28V5.95A9.024,9.024,0,0,0,26,5.23Z"></path><path d="M4,58v2H9.97a2.673,2.673,0,0,0-.44-1.23A7.373,7.373,0,0,1,9.08,58Z"></path><path d="M42,49.88a6.964,6.964,0,0,0-4.91-6.68L36,42.86v5.75A8.824,8.824,0,0,1,38,54a8.261,8.261,0,0,1-.29,2H42Z"></path><path d="M10,42.86l-1.09.34A6.964,6.964,0,0,0,4,49.88V56H8.29A8.261,8.261,0,0,1,8,54a8.824,8.824,0,0,1,2-5.39Z"></path><path d="M11.97,60H22V56H10.37a6.678,6.678,0,0,0,.8,1.63A4.664,4.664,0,0,1,11.97,60Z"></path><path d="M13.06,13H20V5.23a9.209,9.209,0,0,0-2,.72V11H16V7.31A9,9,0,0,0,13.06,13Z"></path><path d="M36.47,58.77A2.673,2.673,0,0,0,36.03,60H42V58H36.92A7.373,7.373,0,0,1,36.47,58.77Z"></path><rect x="9" y="15" width="28" height="2"></rect><path d="M22,13h2V4a1,1,0,0,0-2,0Z"></path><path d="M22,52H20a5,5,0,0,1-5-5V41.3l-3,.94V49a1.033,1.033,0,0,1-.29.71A6.609,6.609,0,0,0,10,54H22Z"></path><path d="M29,47V40.67l-1.19-.37a4.976,4.976,0,0,1-9.62,0L17,40.67V47a3.009,3.009,0,0,0,3,3h6A3.009,3.009,0,0,0,29,47Z"></path><path d="M38,22a2.876,2.876,0,0,0-.73.11.97.97,0,0,1-.87-.16,1.014,1.014,0,0,1-.4-.8V19H34v6a11.014,11.014,0,0,1-6,9.79v.42A2.963,2.963,0,0,0,30,36a3.007,3.007,0,0,0,2.83-2.01,1,1,0,0,1,1.5-.5A2.911,2.911,0,0,0,36,34a3.009,3.009,0,0,0,3-3,2.964,2.964,0,0,0-.51-1.67.99.99,0,0,1-.13-.88,1.035,1.035,0,0,1,.62-.64A2.968,2.968,0,0,0,41,25,3.009,3.009,0,0,0,38,22Z"></path><path d="M7.02,27.81a1.035,1.035,0,0,1,.62.64.99.99,0,0,1-.13.88A2.964,2.964,0,0,0,7,31a3.009,3.009,0,0,0,3,3,2.911,2.911,0,0,0,1.67-.51,1,1,0,0,1,1.5.5A3.007,3.007,0,0,0,16,36a2.963,2.963,0,0,0,2-.79v-.42A11.014,11.014,0,0,1,12,25V19H10v2.15a1.014,1.014,0,0,1-.4.8.97.97,0,0,1-.87.16A2.876,2.876,0,0,0,8,22a3.009,3.009,0,0,0-3,3A2.968,2.968,0,0,0,7.02,27.81Z"></path><path d="M34.29,49.71A1.033,1.033,0,0,1,34,49V42.23l-3-.93V47a5,5,0,0,1-5,5H24v2H36A6.609,6.609,0,0,0,34.29,49.71Z"></path><path d="M24,56v4H34.03a4.664,4.664,0,0,1,.8-2.37,6.337,6.337,0,0,0,.8-1.63Z"></path><path d="M20,35.57V39a3,3,0,0,0,6,0V35.57a10.68,10.68,0,0,1-6,0Z"></path><path d="M32,25V19H14v6a9,9,0,0,0,18,0ZM17,22a2,2,0,1,1,2,2A2,2,0,0,1,17,22Zm6,8a5.006,5.006,0,0,1-3.532-1.458l1.4-1.424a3.082,3.082,0,0,0,4.256,0l1.4,1.424A5.006,5.006,0,0,1,23,30Zm4-6a2,2,0,1,1,2-2A2,2,0,0,1,27,24Z"></path></g></svg>