<svg xmlns="http://www.w3.org/2000/svg" viewBox="0 0 64 64" x="0px" y="0px"><title>Blog-Article-Content-Blog-News</title><g><polygon points="16 56 14 56 14 58 12 58 12 60 14 60 14 62 16 62 16 60 18 60 18 58 16 58 16 56"></polygon><rect x="20" y="58" width="2" height="2"></rect><rect x="24" y="58" width="2" height="2"></rect><rect x="28" y="58" width="2" height="2"></rect><polygon points="60 32 58 32 58 34 56 34 56 36 58 36 58 38 60 38 60 36 62 36 62 34 60 34 60 32"></polygon><rect x="58" y="40" width="2" height="2"></rect><rect x="58" y="44" width="2" height="2"></rect><rect x="58" y="48" width="2" height="2"></rect><rect x="10" y="18" width="10" height="8"></rect><path d="M52.529,20.844a11.465,11.465,0,0,1,1.635-1.836,11.123,11.123,0,0,0-2.494.533Z"></path><path d="M51,4H5A1,1,0,0,0,4,5v5.032H52V5A1,1,0,0,0,51,4ZM10,8H8V6h2Zm4,0H12V6h2Zm4,0H16V6h2Z"></path><path d="M59.8,19.973a4.141,4.141,0,0,0-2.767-.376,5.464,5.464,0,0,0-2.675,2.13l4.281.257Z"></path><polygon points="55.021 28.251 50.557 27.982 49.175 30.376 53.639 30.645 55.021 28.251"></polygon><path d="M51.666,26.046l4.473.268,1.382-2.393-4.463-.269C52.6,24.4,52.143,25.205,51.666,26.046Z"></path><path d="M51.325,22.651l-1.507-2.287a10.924,10.924,0,0,0-2.012,1.446l2.132,3.229C50.409,24.207,50.866,23.406,51.325,22.651Z"></path><polygon points="51.139 34.975 52.521 32.581 48.057 32.313 46.675 34.707 51.139 34.975"></polygon><polygon points="42.479 29.975 44.943 33.706 46.325 31.312 43.861 27.581 42.479 29.975"></polygon><path d="M5,52H51a1,1,0,0,0,1-1V36.957a.976.976,0,0,1-.3.053l-.06,0-6.079-.365L39.866,46.5l-1.732-1,5.691-9.858-3.356-5.081a1,1,0,0,1-.032-1.051l3.5-6.063A12.961,12.961,0,0,1,52,17.359V12.032H4V51A1,1,0,0,0,5,52ZM38,42H36V40h2Zm0-8H32V32h6ZM32,16H48v2H32Zm-6,0h4v2H26Zm0,4H42v2H26Zm0,4H38v2H26Zm0,8h4v2H26Zm0,4H38v2H26Zm0,4h8v2H26Zm0,4h6v2H26ZM8,17a1,1,0,0,1,1-1H21a1,1,0,0,1,1,1V27a1,1,0,0,1-1,1H9a1,1,0,0,1-1-1ZM8,32H22v2H8Zm0,4H22v2H8Zm0,4H22v2H8Zm0,4H22v2H8Z"></path><path d="M45.67,24.447l-.691,1.2,2.464,3.731,1.382-2.394-2.408-3.647A11.177,11.177,0,0,0,45.67,24.447Z"></path></g></svg>