<svg xmlns="http://www.w3.org/2000/svg" viewBox="0 0 64 64" x="0px" y="0px"><g><path d="M2,57.2V61H8.64C5.31,61,5.33,57.2,2,57.2Z"></path><path d="M60,7V9a1,1,0,0,1-1,1H57a3,3,0,0,0-3,3v2h2V13a1,1,0,0,1,1-1h2a3,3,0,0,0,3-3V7Z"></path><path d="M48,15a1,1,0,0,1,1-1,3,3,0,0,0,3-3V9H50v2a1,1,0,0,1-1,1,3,3,0,0,0-3,3v2h2Z"></path><path d="M29.3,18h2a1.36,1.36,0,0,1,.465-1.021,3.322,3.322,0,0,0,0-4.62,1.358,1.358,0,0,1,0-2.048A3.29,3.29,0,0,0,32.7,8h-2a1.362,1.362,0,0,1-.466,1.024,3.326,3.326,0,0,0,0,4.622,1.356,1.356,0,0,1,0,2.045A3.28,3.28,0,0,0,29.3,18Z"></path><path d="M35.3,16h2a1.36,1.36,0,0,1,.465-1.021,3.322,3.322,0,0,0,0-4.62,1.358,1.358,0,0,1,0-2.048A3.29,3.29,0,0,0,38.7,6h-2a1.362,1.362,0,0,1-.466,1.024,3.326,3.326,0,0,0,0,4.622,1.356,1.356,0,0,1,0,2.045A3.28,3.28,0,0,0,35.3,16Z"></path><path d="M6.3,14h2a1.36,1.36,0,0,1,.465-1.021,3.322,3.322,0,0,0,0-4.62,1.358,1.358,0,0,1,0-2.048A3.29,3.29,0,0,0,9.7,4h-2a1.362,1.362,0,0,1-.466,1.024,3.326,3.326,0,0,0,0,4.622,1.356,1.356,0,0,1,0,2.045A3.28,3.28,0,0,0,6.3,14Z"></path><path d="M12.3,12h2a1.36,1.36,0,0,1,.465-1.021,3.322,3.322,0,0,0,0-4.62,1.358,1.358,0,0,1,0-2.048A3.29,3.29,0,0,0,15.7,2h-2a1.362,1.362,0,0,1-.466,1.024,3.326,3.326,0,0,0,0,4.622,1.356,1.356,0,0,1,0,2.045A3.28,3.28,0,0,0,12.3,12Z"></path><path d="M32.175,23.051C31.18,23.925,30,25.087,30,26a4.787,4.787,0,0,0,1.079,2.549c1.556-.315,2.72-.529,2.741-.533a1,1,0,0,1,.824.219.985.985,0,0,1,.248.326,4.578,4.578,0,0,0-1.6-2.854A5.078,5.078,0,0,1,32.175,23.051Z"></path><path d="M18,41a1.954,1.954,0,0,0,.087.555l3.671.38A1.918,1.918,0,0,0,22,41c0-.621-.938-2.12-2-3.452C18.939,38.873,18,40.361,18,41Z"></path><path d="M39,28c0,1.67-2.26,4.05-4.25,5.64.14-1.47.2-2.78.23-3.64H37a8.106,8.106,0,0,0-.65-3.49V26.5c.12-.06.25-.13.38-.2.1-.06.21-.13.32-.21a3.535,3.535,0,0,0,.34-.24,3.136,3.136,0,0,0,.4-.34,3.192,3.192,0,0,0,.44-.46A6.275,6.275,0,0,1,39,28Z"></path><path d="M60,51V47.9L4.39,42.15,9.68,59.79a4.929,4.929,0,0,0,1.55-1.35,5.176,5.176,0,0,1,4.1-2.24,5.2,5.2,0,0,1,4.06,2.12c.8.86,1.37,1.48,2.6,1.48s1.8-.62,2.6-1.48a4.957,4.957,0,0,1,8.13,0c.8.86,1.37,1.48,2.6,1.48s1.8-.62,2.6-1.48a4.957,4.957,0,0,1,8.13,0c.8.86,1.37,1.48,2.6,1.48s1.81-.62,2.61-1.48a4.967,4.967,0,0,1,8.14,0c.2.22.4.44.6.63V53H11V51ZM37,47h2v2H37Zm-4,0h2v2H33Zm-4,0h2v2H29Zm-4,0h2v2H25Zm-4,0h2v2H21Zm-4,0h2v2H17Zm-4,0h2v2H13ZM9,49V47h2v2Z"></path><path d="M44,31v6H56v2H44v5.24l14,1.44V31Zm4,4H46V33h2Zm4,0H50V33h2Zm4,0H54V33h2Z"></path><path d="M31.84,30.43c-1.35.27-3.08.64-4.61,1.01-2.93.71-4.98,1.61-5.76,2.54L19.94,32.7c.94-1.13,2.79-2.09,5.51-2.86A66.849,66.849,0,0,0,20,22.53a61.822,61.822,0,0,0-6.12,8.44C12.33,33.66,12,35.19,12,36H10a11.217,11.217,0,0,1,1.54-4.92,43.088,43.088,0,0,1-5.35-2.32c.35,3,1.17,8.88,2.52,11.82l7.31.76c-.01-.11-.02-.23-.02-.34,0-1.94,2.71-5.06,3.26-5.67a1.027,1.027,0,0,1,1.48,0C21.29,35.94,24,39.06,24,41a3.745,3.745,0,0,1-.19,1.15l5.68.59a6.114,6.114,0,0,0,1.17-1.05c1.26-1.5,1.88-5.55,2.15-8.87.08-.96.13-1.85.16-2.61C32.64,30.27,32.26,30.35,31.84,30.43ZM27.32,41.95l-.64-1.9c2.11-.7,1.35-4.81,1.34-4.85l1.96-.4C30.03,35.04,31.11,40.68,27.32,41.95Z"></path><rect x="46" y="21" width="2" height="8"></rect><rect x="54" y="19" width="2" height="10"></rect><path d="M31.256,59.679c-.794-.859-1.368-1.479-2.6-1.479s-1.81.622-2.607,1.482A8.733,8.733,0,0,1,24.613,61H32.7A8.67,8.67,0,0,1,31.256,59.679Z"></path><path d="M17.926,59.679c-.794-.859-1.368-1.479-2.6-1.479-1.161,0-1.716.566-2.6,1.565A9.946,9.946,0,0,1,11.49,61h7.878A8.639,8.639,0,0,1,17.926,59.679Z"></path><path d="M57.929,59.68c-.8-.859-1.37-1.48-2.6-1.48s-1.809.621-2.607,1.48A8.652,8.652,0,0,1,51.279,61H59.39A8.7,8.7,0,0,1,57.929,59.68Z"></path><path d="M44.587,59.682c-.8-.86-1.373-1.482-2.607-1.482s-1.8.62-2.6,1.479A8.67,8.67,0,0,1,37.943,61h8.084A8.733,8.733,0,0,1,44.587,59.682Z"></path><rect x="11" y="23" width="2" height="2"></rect><rect x="7" y="19" width="2" height="2"></rect><rect x="26" y="19" width="2" height="2"></rect></g></svg>