<svg xmlns="http://www.w3.org/2000/svg" viewBox="0 0 64 64" x="0px" y="0px"><g data-name="Parking Meter"><path d="M41,15a9,9,0,0,0-18,0,1,1,0,0,0,1,1H40A1,1,0,0,0,41,15Zm-8-1V11H31v3H25.071a7,7,0,0,1,13.858,0Z"></path><path d="M36,18a3,3,0,1,0,3,3A3,3,0,0,0,36,18Zm0,4a1,1,0,1,1,1-1A1,1,0,0,1,36,22Z"></path><rect x="27" y="18" width="2" height="6"></rect><path d="M41,60V57a1,1,0,0,0-1-1H35V38h2a1,1,0,0,0,1-1V34h1a1,1,0,0,0,1-1V30a1,1,0,0,0,.983-.821l4-22A.978.978,0,0,0,45,7V3a1,1,0,0,0-1-1H20a1,1,0,0,0-1,1V7a.978.978,0,0,0,.017.179l4,22A1,1,0,0,0,24,30v3a1,1,0,0,0,1,1h1v3a1,1,0,0,0,1,1h2V56H24a1,1,0,0,0-1,1v3H17v2H47V60ZM21,6.91V4H43V6.91L39.165,28H24.835ZM38,30v2H26V30ZM28,34h8v2H28Zm3,4h2V56H31ZM25,60V58H39v2Z"></path></g></svg>