<svg xmlns="http://www.w3.org/2000/svg" viewBox="0 0 64 64" x="0px" y="0px"><g><path d="M60,12H4V40H60ZM48,34H16a8,8,0,0,1,0-16H48a8,8,0,0,1,0,16Z"></path><circle cx="45" cy="25" r="1"></circle><path d="M48,20H40V32h8a6,6,0,0,0,0-12Zm.293,9.707L46.285,27.7A2.951,2.951,0,0,1,45,28a3,3,0,1,1,3-3,2.951,2.951,0,0,1-.3,1.285l2.008,2.008Z"></path><path d="M10,26a6.006,6.006,0,0,0,6,6H38V20H16A6.006,6.006,0,0,0,10,26Zm17-1h2v2H27Zm-4,0h2v2H23Zm-4,0h2v2H19Z"></path><polygon points="25.883 50 25.133 56 38.867 56 38.117 50 25.883 50"></polygon><path d="M60,7a3,3,0,0,0-3-3H7A3,3,0,0,0,4,7v3H60ZM10,8H8V6h2Zm4,0H12V6h2Zm4,0H16V6h2Z"></path><path d="M20,59a1,1,0,0,0,1,1H43a1,1,0,0,0,0-2H21A1,1,0,0,0,20,59Z"></path><path d="M60,42H4v3a3,3,0,0,0,3,3H57a3,3,0,0,0,3-3Zm-4,4H54V44h2Z"></path></g></svg>