<svg xmlns="http://www.w3.org/2000/svg" viewBox="0 0 64 64" x="0px" y="0px"><g><rect x="14" y="16" width="24" height="2"></rect><path d="M29,6.23V14h6.95a8.94,8.94,0,0,0-2.59-5.36c-.11-.12-.24-.21-.36-.32V12H31V6.95A9.024,9.024,0,0,0,29,6.23Z"></path><path d="M25,14h2V5a1,1,0,0,0-2,0Z"></path><rect x="27" y="56" width="10" height="4"></rect><path d="M50,60a2.006,2.006,0,0,0,2-2H48A2.006,2.006,0,0,0,50,60Z"></path><path d="M37,22v4a2.015,2.015,0,0,0,2-2A2.006,2.006,0,0,0,37,22Z"></path><path d="M47,54a1,1,0,0,0,0,2h6a1,1,0,0,0,0-2Z"></path><path d="M57,46a7,7,0,1,0-10.48,6.05A2.607,2.607,0,0,1,47,52h6a2.607,2.607,0,0,1,.48.05A6.967,6.967,0,0,0,57,46Zm-4.168,2.555a1,1,0,0,1-1.664,0L50,46.8l-1.168,1.752a1.039,1.039,0,0,1-1.664,0l-2-3,1.664-1.11L48,46.2l1.168-1.752a1.039,1.039,0,0,1,1.664,0L52,46.2l1.168-1.752,1.664,1.11Z"></path><path d="M16.06,14H23V6.23a9.209,9.209,0,0,0-2,.72V12H19V8.31A9,9,0,0,0,16.06,14Z"></path><path d="M32,47V41.67l-1.19-.37a4.976,4.976,0,0,1-9.62,0L20,41.67V47a3.009,3.009,0,0,0,3,3h6A3.009,3.009,0,0,0,32,47Z"></path><path d="M23,37.57V40a3,3,0,0,0,6,0V37.57a10.68,10.68,0,0,1-6,0Z"></path><path d="M7,60h6V43.86l-1.09.34A6.964,6.964,0,0,0,7,50.88Z"></path><path d="M15,26V22a2.006,2.006,0,0,0-2,2,2.015,2.015,0,0,0,2,2Z"></path><path d="M25,52H23a5,5,0,0,1-5-5V42.3l-3,.94V54H25Z"></path><rect x="15" y="56" width="10" height="4"></rect><path d="M45,57.22A2.986,2.986,0,0,1,44,55a3.02,3.02,0,0,1,.62-1.81A8.909,8.909,0,0,1,41,46a8.726,8.726,0,0,1,.12-1.37,6.276,6.276,0,0,0-1.02-.42L39,43.86V60h6Z"></path><path d="M17,27a9,9,0,0,0,18,0V20H17Zm13-5a2,2,0,1,1-2,2A2,2,0,0,1,30,22Zm-2.016,7.25,1.323,1.5a5,5,0,0,1-6.614,0l1.323-1.5A3.076,3.076,0,0,0,27.984,29.25ZM22,22a2,2,0,1,1-2,2A2,2,0,0,1,22,22Z"></path><path d="M34,47a5,5,0,0,1-5,5H27v2H37V43.24l-3-.94Z"></path></g></svg>