<svg xmlns="http://www.w3.org/2000/svg" viewBox="0 0 64 64" x="0px" y="0px"><g><path d="M54,53a1,1,0,0,1-1,1H52v2h1a3,3,0,0,0,3-3V30H54Z"></path><path d="M4,49V12.032H50V22h2V8h1a1,1,0,0,1,1,1V20h2V9a3,3,0,0,0-3-3H52V5a3,3,0,0,0-3-3H5A3,3,0,0,0,2,5V49a3,3,0,0,0,3,3H6v1a3,3,0,0,0,3,3H28V54H9a1,1,0,0,1-1-1V52H29V50H5A1,1,0,0,1,4,49ZM5,4H49a1,1,0,0,1,1,1v5.032H4V5A1,1,0,0,1,5,4Z"></path><rect x="8" y="6" width="2" height="2"></rect><rect x="12" y="6" width="2" height="2"></rect><rect x="16" y="6" width="2" height="2"></rect><path d="M21,28a1,1,0,0,0,1-1V17a1,1,0,0,0-1-1H9a1,1,0,0,0-1,1V27a1,1,0,0,0,1,1ZM10,18H20v8H10Z"></path><rect x="26" y="16" width="4" height="2"></rect><rect x="32" y="16" width="10" height="2"></rect><rect x="26" y="20" width="16" height="2"></rect><rect x="26" y="24" width="16" height="2"></rect><rect x="8" y="32" width="18" height="2"></rect><rect x="8" y="36" width="18" height="2"></rect><rect x="8" y="40" width="18" height="2"></rect><rect x="8" y="44" width="18" height="2"></rect><path d="M46,33H36a1,1,0,0,0-1,1V44a1,1,0,0,0,1,1H46a1,1,0,0,0,1-1V34A1,1,0,0,0,46,33Zm-1,4H44V35h1Zm-5-2h2v3H40Zm-2,0v2H37V35Zm-1,8V39h1a1,1,0,0,0,1,1h4a1,1,0,0,0,1-1h1v4Z"></path><path d="M59,22H55a3,3,0,0,0-2.816,2H51a1,1,0,0,0-.9.553l-1,2A1,1,0,0,0,49,27v2H31a1,1,0,0,0-.994,1.11l2,18A1,1,0,0,0,33,49H49v2H33a2.993,2.993,0,0,0-.2,5.979A3,3,0,1,0,37.22,57h5.56a3,3,0,1,0,4.44,0H50V55H33a1,1,0,0,1,0-2H50a1,1,0,0,0,1-1V27.236L51.618,26h.566A3,3,0,0,0,55,28h4a3,3,0,0,0,0-6ZM45,60a1,1,0,1,1,1-1A1,1,0,0,1,45,60ZM35,60a1,1,0,1,1,1-1A1,1,0,0,1,35,60ZM33.9,47,32.117,31H49V47ZM59,26H55a1,1,0,0,1,0-2h4a1,1,0,0,1,0,2Z"></path></g></svg>