<svg xmlns="http://www.w3.org/2000/svg" viewBox="0 0 64 64" x="0px" y="0px"><g data-name="Address book-Book-Notebook-Agenda-Bookmark"><path d="M52,52.97A4.924,4.924,0,0,1,49,54H10v2H49a3.009,3.009,0,0,0,3-3Z"></path><path d="M33.912,23.491a3.846,3.846,0,0,1-3.824,0A3.989,3.989,0,0,0,28,27v2.05a8.9,8.9,0,0,0,8,0V27A3.989,3.989,0,0,0,33.912,23.491Z"></path><path d="M32,22a2,2,0,0,0,2-2V18a2,2,0,0,0-4,0v2A2,2,0,0,0,32,22Z"></path><path d="M52,56.97A4.924,4.924,0,0,1,49,58H10v2H49a3.009,3.009,0,0,0,3-3Z"></path><rect x="54" y="32" width="4" height="4"></rect><rect x="54" y="22" width="4" height="4"></rect><rect x="54" y="12" width="4" height="4"></rect><rect x="23" y="36" width="18" height="8"></rect><circle cx="15" cy="43" r="1"></circle><circle cx="15" cy="23" r="1"></circle><path d="M32,12a8.987,8.987,0,0,0-6,15.689V27a5.966,5.966,0,0,1,2.6-4.926A3.95,3.95,0,0,1,28,20V18a4,4,0,0,1,8,0v2a3.95,3.95,0,0,1-.6,2.074A5.966,5.966,0,0,1,38,27v.689A8.987,8.987,0,0,0,32,12Z"></path><circle cx="15" cy="13" r="1"></circle><circle cx="15" cy="33" r="1"></circle><path d="M52,7a3.009,3.009,0,0,0-3-3H10v8h2.18a3,3,0,1,1,0,2H10v8h2.18a3,3,0,1,1,0,2H10v8h2.18a3,3,0,1,1,0,2H10v8h2.18a3,3,0,1,1,0,2H10v8H49a3.009,3.009,0,0,0,3-3ZM43,45a1,1,0,0,1-1,1H22a1,1,0,0,1-1-1V35a1,1,0,0,1,1-1H42a1,1,0,0,1,1,1ZM32,32A11,11,0,1,1,43,21,11.013,11.013,0,0,1,32,32Z"></path><rect x="8" y="12" width="2" height="2"></rect><rect x="8" y="22" width="2" height="2"></rect><rect x="8" y="32" width="2" height="2"></rect><rect x="8" y="42" width="2" height="2"></rect></g></svg>