<svg xmlns="http://www.w3.org/2000/svg" viewBox="0 0 64 64" x="0px" y="0px"><g><path d="M54.987,14.937a.945.945,0,0,0-.051-.257c-.011-.032-.019-.063-.033-.094a.984.984,0,0,0-.2-.293l-12-12a.989.989,0,0,0-.294-.2c-.03-.014-.06-.022-.091-.033a.982.982,0,0,0-.263-.052C42.039,2.011,42.02,2,42,2H14A5.006,5.006,0,0,0,9,7V57a5.006,5.006,0,0,0,5,5H50a5.006,5.006,0,0,0,5-5V15C55,14.978,54.989,14.959,54.987,14.937ZM51.586,14H44a1,1,0,0,1-1-1V5.414ZM50,60H14a3,3,0,0,1-3-3V7a3,3,0,0,1,3-3H41v9a3,3,0,0,0,3,3h9V57A3,3,0,0,1,50,60Z"></path><path d="M47,29H43.613a11.834,11.834,0,0,0-1.278-3.093l2.393-2.392a1,1,0,0,0,0-1.414L41.9,19.272a1,1,0,0,0-1.414,0l-2.392,2.392A11.831,11.831,0,0,0,35,20.387V17a1,1,0,0,0-1-1H30a1,1,0,0,0-1,1v3.387a11.831,11.831,0,0,0-3.093,1.277l-2.392-2.392a1,1,0,0,0-1.414,0L19.272,22.1a1,1,0,0,0,0,1.414l2.393,2.392A11.834,11.834,0,0,0,20.387,29H17a1,1,0,0,0-1,1v4a1,1,0,0,0,1,1h3.387a11.834,11.834,0,0,0,1.278,3.093l-2.393,2.392a1,1,0,0,0,0,1.414L22.1,44.728a1,1,0,0,0,1.414,0l2.392-2.392A11.831,11.831,0,0,0,29,43.613V47a1,1,0,0,0,1,1h4a1,1,0,0,0,1-1V43.613a11.831,11.831,0,0,0,3.093-1.277l2.392,2.392a1,1,0,0,0,1.414,0L44.728,41.9a1,1,0,0,0,0-1.414l-2.393-2.392A11.834,11.834,0,0,0,43.613,35H47a1,1,0,0,0,1-1V30A1,1,0,0,0,47,29Zm-1,4H42.81a1,1,0,0,0-.984.819,9.881,9.881,0,0,1-1.589,3.845,1,1,0,0,0,.117,1.274l2.253,2.254-1.415,1.414-2.253-2.252a1,1,0,0,0-1.274-.117,9.892,9.892,0,0,1-3.846,1.589A1,1,0,0,0,33,42.81V46H31V42.81a1,1,0,0,0-.819-.984,9.892,9.892,0,0,1-3.846-1.589,1,1,0,0,0-1.274.117l-2.253,2.252-1.415-1.414,2.253-2.254a1,1,0,0,0,.117-1.274,9.881,9.881,0,0,1-1.589-3.845A1,1,0,0,0,21.19,33H18V31h3.19a1,1,0,0,0,.984-.819,9.881,9.881,0,0,1,1.589-3.845,1,1,0,0,0-.117-1.274l-2.253-2.254,1.415-1.414,2.253,2.252a1,1,0,0,0,1.274.117,9.892,9.892,0,0,1,3.846-1.589A1,1,0,0,0,31,21.19V18h2v3.19a1,1,0,0,0,.819.984,9.892,9.892,0,0,1,3.846,1.589,1,1,0,0,0,1.274-.117l2.253-2.252,1.415,1.414-2.253,2.254a1,1,0,0,0-.117,1.274,9.881,9.881,0,0,1,1.589,3.845A1,1,0,0,0,42.81,31H46Z"></path><path d="M32,24a8,8,0,1,0,8,8A8.009,8.009,0,0,0,32,24Zm0,14a6,6,0,1,1,6-6A6.006,6.006,0,0,1,32,38Z"></path><path d="M32,29a3,3,0,1,0,3,3A3,3,0,0,0,32,29Zm0,4a1,1,0,1,1,1-1A1,1,0,0,1,32,33Z"></path><rect x="16" y="8" width="4" height="2"></rect><rect x="22" y="8" width="6" height="2"></rect><rect x="16" y="12" width="12" height="2"></rect><rect x="36" y="50" width="2" height="2"></rect><rect x="40" y="50" width="8" height="2"></rect><rect x="36" y="54" width="12" height="2"></rect></g></svg>