<svg xmlns="http://www.w3.org/2000/svg" viewBox="0 0 64 64" x="0px" y="0px"><g data-name="Solar Panel"><path d="M50,6a8,8,0,1,0,8,8A8.009,8.009,0,0,0,50,6Zm0,14a6,6,0,1,1,6-6A6.006,6.006,0,0,1,50,20Z"></path><rect x="49" y="2" width="2" height="2"></rect><rect x="41.222" y="5.222" width="2" height="2" transform="translate(7.967 31.678) rotate(-45)"></rect><rect x="38" y="13" width="2" height="2"></rect><rect x="41.222" y="20.778" width="2" height="2" transform="translate(-3.033 36.234) rotate(-45)"></rect><rect x="49" y="24" width="2" height="2"></rect><rect x="56.778" y="20.778" width="2" height="2" transform="translate(1.523 47.234) rotate(-45)"></rect><rect x="60" y="13" width="2" height="2"></rect><rect x="56.778" y="5.222" width="2" height="2" transform="translate(12.523 42.678) rotate(-45)"></rect><path d="M41,26H3a1,1,0,0,0-1,1V51a1,1,0,0,0,1,1H5v9a1,1,0,0,0,1,1h4a1,1,0,0,0,1-1V52H33v9a1,1,0,0,0,1,1h4a1,1,0,0,0,1-1V52h2a1,1,0,0,0,1-1V27A1,1,0,0,0,41,26ZM9,60H7V52H9Zm28,0H35V52h2Zm3-10H4V28H40Z"></path><path d="M7,38h8a1,1,0,0,0,1-1V31a1,1,0,0,0-1-1H7a1,1,0,0,0-1,1v6A1,1,0,0,0,7,38Zm1-6h6v4H8Z"></path><path d="M18,38h8a1,1,0,0,0,1-1V31a1,1,0,0,0-1-1H18a1,1,0,0,0-1,1v6A1,1,0,0,0,18,38Zm1-6h6v4H19Z"></path><path d="M29,38h8a1,1,0,0,0,1-1V31a1,1,0,0,0-1-1H29a1,1,0,0,0-1,1v6A1,1,0,0,0,29,38Zm1-6h6v4H30Z"></path><path d="M7,48h8a1,1,0,0,0,1-1V41a1,1,0,0,0-1-1H7a1,1,0,0,0-1,1v6A1,1,0,0,0,7,48Zm1-6h6v4H8Z"></path><path d="M18,48h8a1,1,0,0,0,1-1V41a1,1,0,0,0-1-1H18a1,1,0,0,0-1,1v6A1,1,0,0,0,18,48Zm1-6h6v4H19Z"></path><path d="M29,48h8a1,1,0,0,0,1-1V41a1,1,0,0,0-1-1H29a1,1,0,0,0-1,1v6A1,1,0,0,0,29,48Zm1-6h6v4H30Z"></path><path d="M17,21h4V19H19.414l5.293-5.293A1,1,0,0,0,24,12H21.414l3.293-3.293L23.293,7.293l-5,5A1,1,0,0,0,19,14h2.586L18,17.586V16H16v4A1,1,0,0,0,17,21Z"></path><path d="M27,24h4V22H29.414l5.293-5.293A1,1,0,0,0,34,15H31.414l3.293-3.293-1.414-1.414-5,5A1,1,0,0,0,29,17h2.586L28,20.586V19H26v4A1,1,0,0,0,27,24Z"></path></g></svg>