<svg xmlns="http://www.w3.org/2000/svg" viewBox="0 0 64 64" x="0px" y="0px"><title>External Hard Disk</title><g data-name="External Hard Disk"><path d="M53,2H11A3,3,0,0,0,8,5V59a3,3,0,0,0,3,3H53a3,3,0,0,0,3-3V5A3,3,0,0,0,53,2Zm1,57a1,1,0,0,1-1,1H11a1,1,0,0,1-1-1V5a1,1,0,0,1,1-1H53a1,1,0,0,1,1,1Z"></path><path d="M44,37A12.013,12.013,0,0,1,32,49v2A14.015,14.015,0,0,0,46,37Z"></path><path d="M32,19A18,18,0,1,0,50,37,18.021,18.021,0,0,0,32,19Zm0,34A16,16,0,1,1,48,37,16.019,16.019,0,0,1,32,53Z"></path><path d="M15,52a3,3,0,1,0,3,3A3,3,0,0,0,15,52Zm0,4a1,1,0,1,1,1-1A1,1,0,0,1,15,56Z"></path><path d="M49,52a3,3,0,1,0,3,3A3,3,0,0,0,49,52Zm0,4a1,1,0,1,1,1-1A1,1,0,0,1,49,56Z"></path><path d="M15,12a3,3,0,1,0-3-3A3,3,0,0,0,15,12Zm0-4a1,1,0,1,1-1,1A1,1,0,0,1,15,8Z"></path><path d="M49,6a3,3,0,1,0,3,3A3,3,0,0,0,49,6Zm0,4a1,1,0,1,1,1-1A1,1,0,0,1,49,10Z"></path><path d="M36,37a4,4,0,1,0-4,4A4,4,0,0,0,36,37Zm-6,0a2,2,0,1,1,2,2A2,2,0,0,1,30,37Z"></path><rect x="20" y="8" width="24" height="2"></rect><rect x="20" y="12" width="24" height="2"></rect></g></svg>