<svg xmlns="http://www.w3.org/2000/svg" viewBox="0 0 64 64" x="0px" y="0px"><g><path d="M61.12,37.7l-.82-.82a1,1,0,0,1-.3-.71V32.96a4.968,4.968,0,0,0-1.04-3.01l1.96-4.55a1,1,0,0,0-.09-.95A.982.982,0,0,0,60,24H56a1.033,1.033,0,0,0-.71.29L52.7,26.88l-5.73-7.04A4.964,4.964,0,0,0,43.17,18l-2.25-5.38A.987.987,0,0,0,40,12H34a.987.987,0,0,0-.92.62l-2.27,5.44a4.9,4.9,0,0,0-2.57,1.12L17.56,28.07,6.03,30.38A5,5,0,0,0,2,35.28v3.83a9.11,9.11,0,0,0,.95,4.03l1.61,3.2A2.988,2.988,0,0,0,7.24,48h3.45a6.977,6.977,0,0,0,12.62,0H40.69a6.989,6.989,0,0,0,12.81-.4l6.11-1.29A3,3,0,0,0,62,43.38V39.83A3,3,0,0,0,61.12,37.7ZM56.41,26h2.07l-1.12,2.6a4.884,4.884,0,0,0-2.32-.6,3.428,3.428,0,0,1-.56-.06ZM34.67,14h4.66L41,18H33ZM4,36H7v1.18l-3,.6ZM17,50a5,5,0,1,1,5-5A5,5,0,0,1,17,50Zm30,0a5,5,0,1,1,5-5A5,5,0,0,1,47,50Zm13-6.62a.985.985,0,0,1-.8.97l-5.22,1.1c.01-.15.02-.3.02-.45a7,7,0,0,0-14,0,6.634,6.634,0,0,0,.08,1H23.92A6.634,6.634,0,0,0,24,45a7,7,0,0,0-14,0,6.634,6.634,0,0,0,.08,1H7.24a1,1,0,0,1-.9-.56l-1.6-3.19a7.2,7.2,0,0,1-.7-2.44l4.16-.83A1,1,0,0,0,9,38V35a1,1,0,0,0-1-1H4.3a3,3,0,0,1,2.12-1.66L18.2,29.98a.947.947,0,0,0,.44-.21l10.89-9.06A2.993,2.993,0,0,1,31.47,20H43.1a2.97,2.97,0,0,1,2.32,1.1l5.75,7.06A4.962,4.962,0,0,0,55.04,30a2.935,2.935,0,0,1,2.09.87,2.9,2.9,0,0,1,.7,1.13H54a.984.984,0,0,0-.88.53.963.963,0,0,0,.05,1.02l2,3A1,1,0,0,0,56,37h2.13a3.1,3.1,0,0,0,.75,1.3l.82.82a1,1,0,0,1,.3.71ZM58,34v1H56.54l-.67-1Z"></path><path d="M26.7,30H45.865A2,2,0,0,0,47.4,26.72l-3.334-4A2,2,0,0,0,42.531,22H31.37a2.01,2.01,0,0,0-1.3.481l-4.666,4A2,2,0,0,0,26.7,30Zm19.17-2H38V24h4.531Zm-14.5-4H36v4H26.7Z"></path><rect x="36" y="34" width="2" height="2"></rect><rect x="40" y="34" width="2" height="2"></rect><rect x="34" y="32" width="2" height="2"></rect><rect x="32" y="34" width="2" height="2"></rect><rect x="30" y="32" width="2" height="2"></rect><rect x="28" y="34" width="2" height="2"></rect><rect x="26" y="32" width="2" height="2"></rect><rect x="24" y="34" width="2" height="2"></rect><rect x="22" y="32" width="2" height="2"></rect><rect x="20" y="34" width="2" height="2"></rect><rect x="18" y="32" width="2" height="2"></rect><rect x="14" y="32" width="2" height="2"></rect><rect x="10" y="32" width="2" height="2"></rect><rect x="12" y="34" width="2" height="2"></rect><rect x="16" y="34" width="2" height="2"></rect><rect x="46" y="32" width="2" height="2"></rect><rect x="48" y="34" width="2" height="2"></rect><rect x="50" y="32" width="2" height="2"></rect><rect x="38" y="32" width="2" height="2"></rect><rect x="42" y="32" width="2" height="2"></rect><rect x="44" y="34" width="2" height="2"></rect><path d="M17,42a3,3,0,1,0,3,3A3,3,0,0,0,17,42Zm0,4a1,1,0,1,1,1-1A1,1,0,0,1,17,46Z"></path><path d="M47,42a3,3,0,1,0,3,3A3,3,0,0,0,47,42Zm0,4a1,1,0,1,1,1-1A1,1,0,0,1,47,46Z"></path></g></svg>