<svg xmlns="http://www.w3.org/2000/svg" viewBox="0 0 64 64" x="0px" y="0px"><g data-name="Cashier"><rect x="15" y="34" width="4" height="4"></rect><path d="M48.2,7.6,46,4.667,43.8,7.6A1,1,0,0,1,43,8h0a1,1,0,0,1-.8-.4L39.993,4.667,37.8,7.6A1,1,0,0,1,37,8h0a1,1,0,0,1-.8-.4L34,4.667,31.8,7.6a1.036,1.036,0,0,1-1.6,0L29,6V20h2a1,1,0,0,1,1,1V33a1,1,0,0,1-1,1H29v4H51V6L49.8,7.6A1.036,1.036,0,0,1,48.2,7.6ZM43,34H33V32H43Zm0-4H33V28H43Zm0-4H33V24H43Zm0-4H33V20H43Zm0-4H33V16H43Zm0-4H33V12H43Zm4,20H45V32h2Zm0-4H45V28h2Zm0-4H45V24h2Zm0-4H45V20h2Zm0-4H45V16h2Zm0-4H45V12h2Z"></path><rect x="27" y="52" width="10" height="2"></rect><path d="M4,32H30V22H4Zm18-6h2v2H22Zm-4,0h2v2H18Zm-4,0h2v2H14Zm-4,0h2v2H10Z"></path><path d="M60,52H39v2a2,2,0,0,1-2,2H27a2,2,0,0,1-2-2V52H4v8H60Z"></path><path d="M54.382,40H9.618l-5,10H59.382ZM43,42h2v2H43Zm-4,0h2v2H39Zm-4,0h2v2H35Zm-4,0h2v2H31Zm-4,0h2v2H27Zm-4,0h2v2H23Zm-4,0h2v2H19Zm-7,6H10V46h2Zm1-4H11V42h2Zm3,4H14V46h2Zm1-4H15V42h2Zm29,4H18V46H46Zm1-6h2v2H47Zm3,6H48V46h2Zm1-6h2v2H51Zm3,6H52V46h2Z"></path></g></svg>