<svg xmlns="http://www.w3.org/2000/svg" viewBox="0 0 64 64" x="0px" y="0px"><g><path d="M60,16a4,4,0,0,0-8,0,3,3,0,0,0,0,6h8a3,3,0,0,0,0-6Zm0,4H52a1,1,0,0,1,0-2h1.184a1,1,0,0,0,.942-1.334,2,2,0,1,1,3.748,0A1,1,0,0,0,58.816,18H60a1,1,0,0,1,0,2Z"></path><rect x="41" y="19" width="6" height="2"></rect><rect x="37" y="19" width="2" height="2"></rect><rect x="43" y="15" width="4" height="2"></rect><path d="M17,12h8a3,3,0,0,0,0-6,4,4,0,0,0-8,0,3,3,0,0,0,0,6Zm0-4h1.184a1,1,0,0,0,.942-1.334,2,2,0,1,1,3.748,0A1,1,0,0,0,23.816,8H25a1,1,0,0,1,0,2H17a1,1,0,0,1,0-2Z"></path><rect x="6" y="9" width="6" height="2"></rect><rect x="2" y="9" width="2" height="2"></rect><rect x="8" y="5" width="4" height="2"></rect><path d="M29,39a6.006,6.006,0,0,0-6,6v4a4,4,0,0,1-8,0V35.292l6.844-10.755a1,1,0,0,0-.137-1.244l-7-7a1,1,0,0,0-1.414,0l-7,7a1,1,0,0,0-.137,1.244L13,35.292V49a6,6,0,0,0,12,0V45a4,4,0,0,1,8,0V62h2V45A6.006,6.006,0,0,0,29,39ZM15,23V19.414L18.586,23Zm4.178,2L15,31.566V25ZM13,23H9.414L13,19.414Zm0,2v6.566L8.822,25Z"></path><path d="M55,45a4,4,0,0,0-4,4v3a3,3,0,0,1-6,0V42.3l5.832-8.748a1,1,0,0,0-.073-1.206l-6-7a1.033,1.033,0,0,0-1.518,0l-6,7a1,1,0,0,0-.073,1.206L43,42.3V52a5,5,0,0,0,10,0V49a2,2,0,0,1,4,0V62h2V49A4,4,0,0,0,55,45ZM45,32V28.7L47.826,32Zm3.131,2L45,38.7V34ZM43,32H40.174L43,28.7Zm0,2v4.7L39.869,34Z"></path></g></svg>