<svg xmlns="http://www.w3.org/2000/svg" viewBox="0 0 64 64" x="0px" y="0px"><g data-name="Shipping"><rect x="8" y="33.956" width="17" height="4"></rect><polygon points="35.59 26 37 27.41 37 43 27 43 27 26 35.59 26"></polygon><polygon points="41.58 32 39 32 39 29.41 41.58 32"></polygon><path d="M56,28.03V32H46.42l.41-.41a1.007,1.007,0,0,0,.24-1.03L45.55,26h8.42Z"></path><rect x="39" y="34" width="17" height="4"></rect><path d="M25,26H9a1,1,0,0,0-1,1v4.956H25Z"></path><polygon points="44.977 30.609 43.48 26.115 42.559 26.773 40.592 28.178 44 31.586 44.977 30.609"></polygon><polygon points="50.364 19.565 56.728 25.929 58.259 24.398 53.052 16.876 50.364 19.565"></polygon><path d="M39,40v3a2.006,2.006,0,0,1-2,2H27a2.006,2.006,0,0,1-2-2V39.96H8V59a1,1,0,0,0,1,1H55a1,1,0,0,0,1-1V40Zm3,10h2v2H42Zm8,6H42V54h8Zm0-4H46V50h4Z"></path><path d="M56.02,6.84a3,3,0,0,0-4.24,0L39.11,19.51l-.9,1.25-2.1,2.94,3.05,3.04,2.94-2.1,1.25-.89L56.02,11.08A3,3,0,0,0,56.02,6.84Zm-1.41,4.24L51.78,8.25l1.41-1.41,2.83,2.83Z"></path><polygon points="45.981 9.806 38.46 4.599 36.929 6.13 43.293 12.494 45.981 9.806"></polygon><polygon points="36.743 19.378 32.249 17.88 31.272 18.858 34.68 22.266 36.085 20.299 36.743 19.378"></polygon></g></svg>