<svg xmlns="http://www.w3.org/2000/svg" viewBox="0 0 64 64" x="0px" y="0px"><g><path d="M15,39a4,4,0,1,0,4,4A4,4,0,0,0,15,39Zm0,6a2,2,0,1,1,2-2A2,2,0,0,1,15,45Z"></path><path d="M49,47a4,4,0,1,0-4-4A4,4,0,0,0,49,47Zm0-6a2,2,0,1,1-2,2A2,2,0,0,1,49,41Z"></path><path d="M60,48h-.184A2.966,2.966,0,0,0,60,47V37.354A2.981,2.981,0,0,0,58.858,35h.362a1.992,1.992,0,0,0,1.94-1.517l.5-2A2,2,0,0,0,59.72,29H55.633l1.931-15.455A5.016,5.016,0,0,0,53.914,8.1C48.241,6.569,37.85,4,32,4S15.759,6.569,10.086,8.1a5.016,5.016,0,0,0-3.65,5.445L8.367,29H4.28a2,2,0,0,0-1.94,2.483l.5,2A1.993,1.993,0,0,0,4.78,35h.362A2.981,2.981,0,0,0,4,37.354V47a2.966,2.966,0,0,0,.184,1H4a2,2,0,0,0-2,2v4a2,2,0,0,0,2,2H5v3a3,3,0,0,0,3,3h6a3,3,0,0,0,3-3V56H47v3a3,3,0,0,0,3,3h6a3,3,0,0,0,3-3V56h1a2,2,0,0,0,2-2V50A2,2,0,0,0,60,48Zm-.28-17-.5,2H55.133l.25-2ZM10.607,10.031C16.185,8.525,26.381,6,32,6s15.815,2.525,21.393,4.031A3.007,3.007,0,0,1,55.58,13.3L53.117,33H43.9a5,5,0,0,0-9.8,0H30.618L28.9,29.553A1,1,0,0,0,28,29H19a1,1,0,0,0-.895.553L16.382,33h-5.5L8.42,13.3A3.007,3.007,0,0,1,10.607,10.031ZM41.816,33H36.184a2.982,2.982,0,0,1,5.632,0ZM28.382,33H18.618l1-2h7.764ZM4.28,31H8.617l.25,2H4.78ZM6,47V46H9V44H6V42H9V40H6V37.354a.994.994,0,0,1,.629-.928L10.193,35H53.807l3.564,1.426a.994.994,0,0,1,.629.928V40H55v2h3v2H55v2h3v1a1,1,0,0,1-1,1H43V42a3,3,0,0,0-3-3H24a3,3,0,0,0-3,3v6H7A1,1,0,0,1,6,47Zm17-3H41v1H23Zm0-2a1,1,0,0,1,1-1H40a1,1,0,0,1,1,1Zm0,5H41v1H23ZM15,59a1,1,0,0,1-1,1H8a1,1,0,0,1-1-1V56h8Zm42,0a1,1,0,0,1-1,1H50a1,1,0,0,1-1-1V56h8ZM4,54V50H60v4Z"></path><path d="M31.36,23.566A4.248,4.248,0,0,0,29.4,27h2c0-.826.425-1.218,1.24-1.9a4.249,4.249,0,0,0,1.96-3.434,4.246,4.246,0,0,0-1.96-3.435c-.815-.679-1.24-1.072-1.24-1.9s.425-1.219,1.24-1.9A4.252,4.252,0,0,0,34.6,11h-2c0,.827-.425,1.22-1.24,1.9a4.249,4.249,0,0,0-1.96,3.435,4.25,4.25,0,0,0,1.96,3.436c.815.679,1.24,1.072,1.24,1.9S32.175,22.887,31.36,23.566Z"></path><path d="M41.36,23.566A4.248,4.248,0,0,0,39.4,27h2c0-.826.425-1.218,1.24-1.9a4.249,4.249,0,0,0,1.96-3.434,4.246,4.246,0,0,0-1.96-3.435c-.815-.679-1.24-1.072-1.24-1.9s.425-1.219,1.24-1.9A4.252,4.252,0,0,0,44.6,11h-2c0,.827-.425,1.22-1.24,1.9a4.249,4.249,0,0,0-1.96,3.435,4.25,4.25,0,0,0,1.96,3.436c.815.679,1.24,1.072,1.24,1.9S42.175,22.887,41.36,23.566Z"></path><path d="M21.36,23.566A4.248,4.248,0,0,0,19.4,27h2c0-.826.425-1.218,1.24-1.9a4.249,4.249,0,0,0,1.96-3.434,4.246,4.246,0,0,0-1.96-3.435c-.815-.679-1.24-1.072-1.24-1.9s.425-1.219,1.24-1.9A4.252,4.252,0,0,0,24.6,11h-2c0,.827-.425,1.22-1.24,1.9a4.249,4.249,0,0,0-1.96,3.435,4.25,4.25,0,0,0,1.96,3.436c.815.679,1.24,1.072,1.24,1.9S22.175,22.887,21.36,23.566Z"></path></g></svg>