<svg xmlns="http://www.w3.org/2000/svg" viewBox="0 0 64 64" x="0px" y="0px"><g><path d="M5.05,16.536,6.464,17.95l1.517-1.517A3.915,3.915,0,0,0,9,16.858V19h2V16.858a3.915,3.915,0,0,0,1.019-.425l1.517,1.517,1.414-1.414-1.517-1.517A3.915,3.915,0,0,0,13.858,14H16V12H13.858a3.915,3.915,0,0,0-.425-1.019L14.95,9.464,13.536,8.05,12.019,9.567A3.915,3.915,0,0,0,11,9.142V7H9V9.142a3.915,3.915,0,0,0-1.019.425L6.464,8.05,5.05,9.464l1.517,1.517A3.915,3.915,0,0,0,6.142,12H4v2H6.142a3.915,3.915,0,0,0,.425,1.019ZM10,11a2,2,0,1,1-2,2A2,2,0,0,1,10,11Z"></path><path d="M60,14V12H57.858a3.915,3.915,0,0,0-.425-1.019L58.95,9.464,57.536,8.05,56.019,9.567A3.915,3.915,0,0,0,55,9.142V7H53V9.142a3.915,3.915,0,0,0-1.019.425L50.464,8.05,49.05,9.464l1.517,1.517A3.915,3.915,0,0,0,50.142,12H48v2h2.142a3.915,3.915,0,0,0,.425,1.019L49.05,16.536l1.414,1.414,1.517-1.517A3.915,3.915,0,0,0,53,16.858V19h2V16.858a3.915,3.915,0,0,0,1.019-.425l1.517,1.517,1.414-1.414-1.517-1.517A3.915,3.915,0,0,0,57.858,14Zm-6,1a2,2,0,1,1,2-2A2,2,0,0,1,54,15Z"></path><circle cx="32" cy="52" r="2"></circle><path d="M33,12a1,1,0,0,0-2,0v2h2Z"></path><path d="M43,32.59V29h2v1.59l1.29-1.3,1.42,1.42L46.41,32H48v2H44.41l-.96.96,1.15.87a3,3,0,0,1,1.17,2.05V38H49v2H45.19c-.04.05-.07.1-.11.15a.6.6,0,0,1-.08.08v3.36l2.71,2.7-1.42,1.42L45,46.41V49H43V46.39L41.7,47.7l-1.42-1.42L43,43.57V41.2a2.992,2.992,0,0,1-2.02-.58L38,38.38v4.3a11.051,11.051,0,0,0,7.14,10.3l2.81,1.05A2.994,2.994,0,0,0,52,51.23V35a9.014,9.014,0,0,0-9-9H41a3.009,3.009,0,0,0-3,3v1.84l3.84,2.9Z"></path><rect x="31" y="20" width="2" height="2"></rect><rect x="31" y="16" width="2" height="2"></rect><path d="M8,60H56V35A13.012,13.012,0,0,0,43,22H39a1,1,0,0,1-1-1V4H26V21a1,1,0,0,1-1,1H21A13.012,13.012,0,0,0,8,35Zm30-7H35.858a3.915,3.915,0,0,1-.425,1.019l1.517,1.517L35.536,56.95l-1.517-1.517A3.915,3.915,0,0,1,33,55.858V58H31V55.858a3.915,3.915,0,0,1-1.019-.425L28.464,56.95,27.05,55.536l1.517-1.517A3.915,3.915,0,0,1,28.142,53H26V51h2.142a3.915,3.915,0,0,1,.425-1.019L27.05,48.464l1.414-1.414,1.517,1.517A3.915,3.915,0,0,1,31,48.142V46h2v2.142a3.915,3.915,0,0,1,1.019.425l1.517-1.517,1.414,1.414-1.517,1.517A3.915,3.915,0,0,1,35.858,51H38ZM10,35A11.007,11.007,0,0,1,21,24h2a5,5,0,0,1,5,5v.33l.6-.46a1.014,1.014,0,0,0,.4-.8V12a3,3,0,0,1,6,0V28.07a1.014,1.014,0,0,0,.4.8l.6.46V29a5,5,0,0,1,5-5h2A11.007,11.007,0,0,1,54,35V51.23a4.975,4.975,0,0,1-5,4.99,4.824,4.824,0,0,1-1.75-.31l-2.81-1.05A13.075,13.075,0,0,1,36,42.68V36.87l-3.4-2.56a1.021,1.021,0,0,0-1.2,0L28,36.87v5.81a13.075,13.075,0,0,1-8.44,12.18l-2.81,1.05a4.985,4.985,0,0,1-4.6-.57A5,5,0,0,1,10,51.23Z"></path><path d="M13.29,53.69a2.925,2.925,0,0,0,2.76.34l2.81-1.05A11.051,11.051,0,0,0,26,42.68v-4.3l-2.98,2.24a3.039,3.039,0,0,1-1.8.6c-.08,0-.15-.02-.22-.02v2.37l2.72,2.71L22.3,47.7,21,46.39V49H19V46.41l-1.29,1.3-1.42-1.42L19,43.59V40.23a.6.6,0,0,1-.08-.08c-.04-.05-.07-.1-.11-.15H15V38h3.23v-.12a3,3,0,0,1,1.17-2.05l1.15-.87L19.59,34H16V32h1.59l-1.3-1.29,1.42-1.42L19,30.59V29h2v3.59l1.16,1.15L26,30.84V29a3.009,3.009,0,0,0-3-3H21a9.014,9.014,0,0,0-9,9V51.23A2.951,2.951,0,0,0,13.29,53.69Z"></path><path d="M20.22,38.11a1,1,0,0,0,1.59.91l8.39-6.3a3,3,0,0,1,3.6,0l8.39,6.3a1,1,0,0,0,1.2-1.6l-9.2-6.96A2.984,2.984,0,0,1,33,28.07V24H31v4.07a2.984,2.984,0,0,1-1.19,2.39l-9.2,6.96A1,1,0,0,0,20.22,38.11Z"></path></g></svg>