<svg xmlns="http://www.w3.org/2000/svg" viewBox="0 0 64 64" x="0px" y="0px"><g><path d="M43,24a8.011,8.011,0,0,0-8,8c0,4.17,5.29,9.46,8,11.71,1.96-1.66,8-7.13,8-11.71A8.011,8.011,0,0,0,43,24Zm0,7a3,3,0,0,1,1,5.82V38H42V36.82A3.01,3.01,0,0,1,40,34h2a1,1,0,1,0,1-1,3,3,0,0,1-1-5.82V26h2v1.18A3.01,3.01,0,0,1,46,30H44a1,1,0,1,0-1,1Z"></path><path d="M5,60H59a1,1,0,0,0,1-1V56H37.721l-.772,2.316A1,1,0,0,1,36,59H28a1,1,0,0,1-.949-.684L26.279,56H4v3A1,1,0,0,0,5,60Z"></path><polygon points="35.613 56 28.387 56 28.721 57 35.279 57 35.613 56"></polygon><circle cx="23" cy="22" r="5"></circle><path d="M54,18H44v2H42V13a1,1,0,0,0-1-1H5a1,1,0,0,0-1,1V31a1,1,0,0,0,1,1H31v2H7V54H57V21A3.009,3.009,0,0,0,54,18ZM11,30H7a1,1,0,0,1-1-1V25H8v3h3Zm0-14H8v3H6V15a1,1,0,0,1,1-1h4Zm3,7H12V21h2Zm9,6a7,7,0,1,1,7-7A7.008,7.008,0,0,1,23,29Zm20-7A10.016,10.016,0,0,1,53,32c0,6.42-9,13.49-9.39,13.79a.991.991,0,0,1-1.22,0C42,45.49,33,38.42,33,32A10.016,10.016,0,0,1,43,22Zm-8-8h4a1,1,0,0,1,1,1v4H38V16H35Zm-3,7h2v2H32ZM11,38H27v2H11Zm0,4H27v2H11ZM55,52H9V50H55Z"></path><path d="M5,8A1,1,0,0,0,4,9v1.184A2.966,2.966,0,0,1,5,10H41a2.966,2.966,0,0,1,1,.184V9a1,1,0,0,0-1-1Z"></path><path d="M42,5a1,1,0,0,0-1-1H5A1,1,0,0,0,4,5V6.184A2.966,2.966,0,0,1,5,6H41a2.966,2.966,0,0,1,1,.184Z"></path></g></svg>