<svg xmlns="http://www.w3.org/2000/svg" viewBox="0 0 48 48" x="0px" y="0px"><title>World</title><g><path d="M24,0A24,24,0,1,0,48,24,24.028,24.028,0,0,0,24,0Zm0,46A22,22,0,1,1,46,24,22.025,22.025,0,0,1,24,46Z"></path><path d="M24,7A17,17,0,1,0,41,24,17.019,17.019,0,0,0,24,7ZM38.949,23H32.974a29.669,29.669,0,0,0-1-6.983,17.006,17.006,0,0,0,3.08-2.12A14.921,14.921,0,0,1,38.949,23ZM25,9.179c1.819.587,3.433,2.733,4.528,5.769a14.959,14.959,0,0,1-4.528,1Zm4.1.732A15.02,15.02,0,0,1,33.616,12.5a14.953,14.953,0,0,1-2.274,1.571A15.789,15.789,0,0,0,29.1,9.911ZM23,9.179v6.773a14.959,14.959,0,0,1-4.528-1C19.567,11.912,21.181,9.766,23,9.179Zm-6.342,4.894A14.953,14.953,0,0,1,14.384,12.5,15.02,15.02,0,0,1,18.9,9.911,15.789,15.789,0,0,0,16.658,14.073ZM23,17.952V23H17.024a28.3,28.3,0,0,1,.853-6.143A16.961,16.961,0,0,0,23,17.952ZM23,25v5.048a16.961,16.961,0,0,0-5.123,1.1A28.3,28.3,0,0,1,17.024,25Zm0,7.048v6.773c-1.819-.587-3.433-2.733-4.528-5.769A14.959,14.959,0,0,1,23,32.048Zm-4.1,6.041A15.02,15.02,0,0,1,14.384,35.5a14.953,14.953,0,0,1,2.274-1.571A15.789,15.789,0,0,0,18.9,38.089Zm6.1.732V32.048a14.959,14.959,0,0,1,4.528,1C28.433,36.088,26.819,38.234,25,38.821Zm6.342-4.894A14.953,14.953,0,0,1,33.616,35.5,15.02,15.02,0,0,1,29.1,38.089,15.789,15.789,0,0,0,31.342,33.927ZM25,30.048V25h5.976a28.3,28.3,0,0,1-.853,6.143A16.961,16.961,0,0,0,25,30.048ZM25,23V17.952a16.961,16.961,0,0,0,5.123-1.1A28.3,28.3,0,0,1,30.976,23ZM12.945,13.9a17.006,17.006,0,0,0,3.08,2.12,29.669,29.669,0,0,0-1,6.983H9.051A14.921,14.921,0,0,1,12.945,13.9ZM9.051,25h5.975a29.669,29.669,0,0,0,1,6.983,17.006,17.006,0,0,0-3.08,2.12A14.921,14.921,0,0,1,9.051,25Zm26,9.1a17.006,17.006,0,0,0-3.08-2.12,29.669,29.669,0,0,0,1-6.983h5.975A14.921,14.921,0,0,1,35.055,34.1Z"></path></g></svg>