<svg xmlns="http://www.w3.org/2000/svg" viewBox="0 0 64 64" x="0px" y="0px"><g data-name="School Bus"><rect x="44" y="35" width="4" height="2"></rect><rect x="14" y="47" width="2" height="2"></rect><rect x="48" y="47" width="2" height="2"></rect><path d="M60,31H54V11a2,2,0,0,0-2-2H4a2,2,0,0,0-2,2V47a2,2,0,0,0,2,2H8.08a6.991,6.991,0,0,0,13.84,0H42.08a6.991,6.991,0,0,0,13.84,0H60a2,2,0,0,0,2-2V33A2,2,0,0,0,60,31ZM44,31V19h8V31Zm8-20v2H4V11ZM15,53a5,5,0,1,1,5-5A5.006,5.006,0,0,1,15,53Zm23-6H32V19h6Zm11,6a5,5,0,1,1,5-5A5.006,5.006,0,0,1,49,53Zm6.92-6a6.991,6.991,0,0,0-13.84,0H40V18a1,1,0,0,0-1-1H31a1,1,0,0,0-1,1V47H21.92A6.991,6.991,0,0,0,8.08,47H4V37H7V35H4V15H52v2H43a1,1,0,0,0-1,1V32a1,1,0,0,0,1,1H60v2H57a3,3,0,0,0,0,6h3v2H57v2h3v2ZM60,37v2H57a1,1,0,0,1,0-2Z"></path><path d="M27,17H19a1,1,0,0,0-1,1V32a1,1,0,0,0,1,1h8a1,1,0,0,0,1-1V18A1,1,0,0,0,27,17ZM26,31H20V19h6Z"></path><path d="M15,17H7a1,1,0,0,0-1,1V32a1,1,0,0,0,1,1h8a1,1,0,0,0,1-1V18A1,1,0,0,0,15,17ZM14,31H8V19h6Z"></path></g></svg>