<svg xmlns="http://www.w3.org/2000/svg" viewBox="0 0 64 64" x="0px" y="0px"><g data-name="DNA"><path d="M19.068,16.677C13.891,13.1,9,9.725,9,3V2H7V3c0,7.775,5.558,11.612,10.932,15.323C23.109,21.9,28,25.275,28,32c0,6.645-5.054,9.917-10.4,13.383C11.9,49.075,6,52.893,6,61v1H8V61c0-7.02,5.189-10.38,10.684-13.938C24.247,43.458,30,39.732,30,32,30,24.225,24.442,20.388,19.068,16.677Z"></path><path d="M21.12,47.175l-1.131,1.65C24.8,52.118,28,55.448,28,61v1h2V61C30,54.194,25.732,50.333,21.12,47.175Z"></path><path d="M6,32c0,6.444,4.053,10.129,8.432,13.152l1.136-1.645C11.025,40.371,8,37.214,8,32c0-5.41,3.037-8.674,7.937-12.188l-1.166-1.624C10.527,21.23,6,25.058,6,32Z"></path><path d="M20.392,14.206l1.214,1.588C25.263,13,29,9.292,29,3V2H27V3C27,8.407,23.824,11.581,20.392,14.206Z"></path><rect x="11" y="4" width="14" height="2"></rect><rect x="14" y="9" width="8" height="2"></rect><rect x="11" y="58" width="14" height="2"></rect><rect x="14" y="53" width="8" height="2"></rect><rect x="10" y="31" width="16" height="2"></rect><rect x="12" y="26" width="12" height="2"></rect><rect x="16" y="21" width="4" height="2"></rect><rect x="12" y="36" width="12" height="2"></rect><rect x="16" y="41" width="4" height="2"></rect><path d="M46.684,47.062C52.247,43.458,58,39.732,58,32c0-7.775-5.558-11.612-10.932-15.323C41.891,13.1,37,9.725,37,3V2H35V3c0,7.775,5.558,11.612,10.932,15.323C51.109,21.9,56,25.275,56,32c0,6.645-5.054,9.917-10.4,13.383C39.9,49.075,34,52.893,34,61v1h2V61C36,53.98,41.189,50.62,46.684,47.062Z"></path><path d="M49.12,47.175l-1.131,1.65C52.8,52.118,56,55.448,56,61v1h2V61C58,54.194,53.732,50.333,49.12,47.175Z"></path><path d="M34,32c0,6.444,4.053,10.129,8.432,13.152l1.136-1.645C39.025,40.371,36,37.214,36,32c0-5.41,3.037-8.674,7.937-12.188l-1.166-1.624C38.527,21.23,34,25.058,34,32Z"></path><path d="M48.392,14.206l1.214,1.588C53.263,13,57,9.292,57,3V2H55V3C55,8.407,51.824,11.581,48.392,14.206Z"></path><rect x="39" y="4" width="14" height="2"></rect><rect x="42" y="9" width="8" height="2"></rect><rect x="39" y="58" width="14" height="2"></rect><rect x="42" y="53" width="8" height="2"></rect><rect x="38" y="31" width="16" height="2"></rect><rect x="40" y="26" width="12" height="2"></rect><rect x="44" y="21" width="4" height="2"></rect><rect x="40" y="36" width="12" height="2"></rect><rect x="44" y="41" width="4" height="2"></rect></g></svg>