<svg xmlns="http://www.w3.org/2000/svg" viewBox="0 0 64 64" x="0px" y="0px"><g><path d="M11,60H27a1,1,0,0,0,1-1V36.745a7.692,7.692,0,0,1-2.767-.844,5.71,5.71,0,0,0-2.9-.7,5.71,5.71,0,0,0-2.9.7,7.642,7.642,0,0,1-3.767.9,7.636,7.636,0,0,1-3.765-.9,5.9,5.9,0,0,0-1.9-.636V59A1,1,0,0,0,11,60Z"></path><path d="M10,26.261v6.994a7.68,7.68,0,0,1,2.765.844,5.7,5.7,0,0,0,2.9.7,5.707,5.707,0,0,0,2.9-.7,7.642,7.642,0,0,1,3.767-.9,7.642,7.642,0,0,1,3.767.9,5.906,5.906,0,0,0,1.9.636V26.261a2.992,2.992,0,0,0-.542-1.721L21.9,16.606a4.972,4.972,0,0,1-.9-2.867V8H17v5.739a4.98,4.98,0,0,1-.9,2.867L10.542,24.54A2.985,2.985,0,0,0,10,26.261Z"></path><rect x="15" y="4" width="8" height="2"></rect><path d="M40.67,39.54a15.034,15.034,0,0,1,4.062.487,13.172,13.172,0,0,0,3.608.433,12.864,12.864,0,0,0,3.439-.4L51.956,36H36.044l.179,4.116c.122-.029.245-.056.369-.086A14.988,14.988,0,0,1,40.67,39.54Z"></path><path d="M51.043,57l.646-14.865a14.843,14.843,0,0,1-3.349.325,15.051,15.051,0,0,1-4.073-.488,13.161,13.161,0,0,0-3.6-.432,13.065,13.065,0,0,0-3.608.435c-.242.058-.488.117-.751.173L36.957,57Z"></path><rect x="37" y="59" width="14.001" height="1"></rect></g></svg>