<svg xmlns="http://www.w3.org/2000/svg" viewBox="0 0 64 64" x="0px" y="0px"><title>Valentine-Calendar-Love</title><g><path d="M57,6H50V5a3,3,0,0,0-6,0V6H35V5a3,3,0,0,0-6,0V6H20V5a3,3,0,0,0-6,0V6H7a5.006,5.006,0,0,0-5,5V57a5.006,5.006,0,0,0,5,5H57a5.006,5.006,0,0,0,5-5V11A5.006,5.006,0,0,0,57,6ZM46,5a1,1,0,0,1,2,0V9a1,1,0,0,1-2,0ZM31,5a1,1,0,0,1,2,0V9a1,1,0,0,1-2,0ZM16,5a1,1,0,0,1,2,0V9a1,1,0,0,1-2,0ZM7,8h7V9a3,3,0,0,0,6,0V8h9V9a3,3,0,0,0,6,0V8h9V9a3,3,0,0,0,6,0V8h7a3,3,0,0,1,3,3v5H4V11A3,3,0,0,1,7,8ZM57,60H7a3,3,0,0,1-3-3V18H60V57A3,3,0,0,1,57,60Z"></path><path d="M38,27a7.945,7.945,0,0,0-6,2.343A7.945,7.945,0,0,0,26,27a8.009,8.009,0,0,0-8,8c0,9.53,13.026,15.652,13.581,15.908a1,1,0,0,0,.838,0C32.974,50.652,46,44.53,46,35A8.009,8.009,0,0,0,38,27ZM32,48.885C29.83,47.783,20,42.377,20,35a6.006,6.006,0,0,1,6-6,5.671,5.671,0,0,1,5.143,2.515,1.039,1.039,0,0,0,1.714,0A5.671,5.671,0,0,1,38,29a6.006,6.006,0,0,1,6,6C44,42.377,34.17,47.783,32,48.885Z"></path></g></svg>