<svg xmlns="http://www.w3.org/2000/svg" viewBox="0 0 64 64" x="0px" y="0px"><path d="M62,40a4.994,4.994,0,0,0-2.03-4A4.985,4.985,0,0,0,57,27H55.97A4.924,4.924,0,0,0,57,24a5,5,0,0,0-5-5H50.97A4.924,4.924,0,0,0,52,16a5,5,0,0,0-5-5H17a5,5,0,0,0-5,5,4.9,4.9,0,0,0,1.15,3.14A5.4,5.4,0,0,0,12,19a5,5,0,0,0-5,5,4.9,4.9,0,0,0,1.15,3.14A5.4,5.4,0,0,0,7,27a4.985,4.985,0,0,0-2.97,9,4.956,4.956,0,0,0,0,8A4.985,4.985,0,0,0,7,53H57a4.985,4.985,0,0,0,2.97-9A4.994,4.994,0,0,0,62,40ZM57,29a3,3,0,0,1,0,6H30.97a4.884,4.884,0,0,0,0-6Zm-5-8a3,3,0,0,1,0,6H27a5.4,5.4,0,0,0-1.15.14A4.873,4.873,0,0,0,25.97,21ZM20.97,13H47a3,3,0,0,1,0,6H22a5.4,5.4,0,0,0-1.15.14A4.873,4.873,0,0,0,20.97,13ZM25,24a3,3,0,1,1-3-3A3.009,3.009,0,0,1,25,24ZM17,13a3,3,0,1,1-3,3A3.009,3.009,0,0,1,17,13Zm1.15,14.14a4.793,4.793,0,0,0-2.3,0,4.862,4.862,0,0,0,0-6.28,4.793,4.793,0,0,0,2.3,0,4.862,4.862,0,0,0,0,6.28ZM12,21a3,3,0,1,1-3,3A3.009,3.009,0,0,1,12,21ZM7,51a3,3,0,1,1,3-3A3.009,3.009,0,0,1,7,51Zm0-8a3,3,0,1,1,3-3A3.009,3.009,0,0,1,7,43Zm0-8a3,3,0,1,1,3-3A3.009,3.009,0,0,1,7,35Zm6.03,16H10.97a4.884,4.884,0,0,0,0-6h2.06a4.884,4.884,0,0,0,0,6Zm0-8H10.97a4.884,4.884,0,0,0,0-6h2.06a4.884,4.884,0,0,0,0,6Zm0-8H10.97a4.873,4.873,0,0,0-.12-6.14A5.4,5.4,0,0,0,12,29a5.4,5.4,0,0,0,1.15-.14A4.873,4.873,0,0,0,13.03,35ZM17,51a3,3,0,1,1,3-3A3.009,3.009,0,0,1,17,51Zm0-8a3,3,0,1,1,3-3A3.009,3.009,0,0,1,17,43Zm0-8a3,3,0,1,1,3-3A3.009,3.009,0,0,1,17,35Zm6.03,16H20.97a4.884,4.884,0,0,0,0-6h2.06a4.884,4.884,0,0,0,0,6Zm0-8H20.97a4.884,4.884,0,0,0,0-6h2.06a4.884,4.884,0,0,0,0,6Zm0-8H20.97a4.873,4.873,0,0,0-.12-6.14,4.793,4.793,0,0,0,2.3,0A4.873,4.873,0,0,0,23.03,35ZM27,51a3,3,0,1,1,3-3A3.009,3.009,0,0,1,27,51Zm0-8a3,3,0,1,1,3-3A3.009,3.009,0,0,1,27,43Zm0-8a3,3,0,1,1,3-3A3.009,3.009,0,0,1,27,35ZM60,48a3.009,3.009,0,0,1-3,3H30.97a4.884,4.884,0,0,0,0-6H57A3.009,3.009,0,0,1,60,48Zm-3-5H30.97a4.884,4.884,0,0,0,0-6H57a3,3,0,0,1,0,6Z"></path><rect x="54" y="47" width="2" height="2"></rect><rect x="48" y="47" width="4" height="2"></rect><rect x="54" y="39" width="2" height="2"></rect><rect x="48" y="39" width="4" height="2"></rect><rect x="54" y="31" width="2" height="2"></rect><rect x="48" y="31" width="4" height="2"></rect><rect x="49" y="23" width="2" height="2"></rect><rect x="43" y="23" width="4" height="2"></rect><rect x="44" y="15" width="2" height="2"></rect><rect x="38" y="15" width="4" height="2"></rect></svg>