<svg xmlns="http://www.w3.org/2000/svg" viewBox="0 0 64 64" x="0px" y="0px"><g><rect x="9.36" y="16.449" width="38" height="4.002" transform="translate(-4.74 25.457) rotate(-45)"></rect><path d="M12.1,31.89,5.74,38.25a5,5,0,0,0,0,7.07L18.46,58.05a5.022,5.022,0,0,0,7.08,0l6.36-6.36Z"></path><path d="M29.07,46.03,55.94,19.16,44.63,7.85,17.76,34.72l5.65,5.65ZM46.042,14.917l2.828,2.828-1.414,1.414-2.828-2.828Zm-2.829,2.828,2.829,2.829-1.414,1.414L41.8,19.159Zm-2.828,2.829L43.213,23.4,41.8,24.816l-2.828-2.828ZM37.557,23.4l2.828,2.828-1.414,1.415-2.828-2.829ZM34.728,26.23l2.829,2.829-1.414,1.414-2.83-2.828ZM31.9,29.059l2.829,2.828L33.313,33.3l-2.828-2.828Zm-2.828,2.828L31.9,34.716,30.485,36.13,27.657,33.3Zm-2.829,2.829,2.829,2.828-1.414,1.414L24.828,36.13Z"></path><polygon points="60.18 23.4 57.36 20.57 30.49 47.44 33.31 50.27 60.18 23.4"></polygon></g></svg>