<svg xmlns="http://www.w3.org/2000/svg" viewBox="0 0 64 64" x="0px" y="0px"><g><path d="M61,24H53a1,1,0,0,0-1,1V52a1,1,0,0,0,.086.406l4,9a1,1,0,0,0,1.828,0l4-9A1,1,0,0,0,62,52V25A1,1,0,0,0,61,24Zm-1,2v4H54V26ZM54.539,53h4.922l-.889,2H55.428ZM54,51V32h2V51Zm4,0V32h2V51Zm-1.683,6h1.366L57,58.538Z"></path><path d="M39.707,2.293A1,1,0,0,0,39,2H9A5.006,5.006,0,0,0,4,7V57a5.006,5.006,0,0,0,5,5H45a5.006,5.006,0,0,0,5-5V13a1,1,0,0,0-.293-.707ZM40,5.414,46.586,12H41a1,1,0,0,1-1-1ZM45,60H9a3,3,0,0,1-3-3V7A3,3,0,0,1,9,4H38v7a3,3,0,0,0,3,3h7V57A3,3,0,0,1,45,60Z"></path><path d="M21.167,27.247l1.49-1.49-1.414-1.414-1.49,1.49A4.969,4.969,0,0,0,18,25.1V23H16v2.1a4.969,4.969,0,0,0-1.753.732l-1.49-1.49-1.414,1.414,1.49,1.49A4.961,4.961,0,0,0,12.1,29H10v2h2.1a4.961,4.961,0,0,0,.732,1.753l-1.49,1.49,1.414,1.414,1.49-1.49A4.969,4.969,0,0,0,16,34.9V37h2V34.9a4.969,4.969,0,0,0,1.753-.732l1.49,1.49,1.414-1.414-1.49-1.49A4.961,4.961,0,0,0,21.9,31H24V29H21.9A4.961,4.961,0,0,0,21.167,27.247ZM17,33a3,3,0,1,1,3-3A3,3,0,0,1,17,33Z"></path><rect x="16" y="29" width="2" height="2"></rect><path d="M32,20V18H28a1,1,0,0,0-.707.293l-4,4,1.414,1.414L28.414,20Z"></path><rect x="36" y="18" width="6" height="2"></rect><rect x="36" y="22" width="6" height="2"></rect><path d="M18,41H16v6a1,1,0,0,0,1,1h6V46H18Z"></path><rect x="27" y="46" width="2" height="2"></rect><rect x="31" y="46" width="4" height="2"></rect><rect x="27" y="50" width="8" height="2"></rect><rect x="10" y="8" width="2" height="2"></rect><rect x="14" y="8" width="4" height="2"></rect><rect x="10" y="12" width="8" height="2"></rect><path d="M29,38h3V36H29.414l-2.707-2.707-1.414,1.414,3,3A1,1,0,0,0,29,38Z"></path><rect x="36" y="36" width="6" height="2"></rect><rect x="36" y="40" width="6" height="2"></rect></g></svg>