<svg xmlns="http://www.w3.org/2000/svg" viewBox="0 0 64 64" x="0px" y="0px"><g data-name="Granade"><path d="M38,20.884V16h2a1,1,0,0,0,1-1V3a1,1,0,0,0-1-1H16a3,3,0,0,0-3,3V23a1,1,0,0,0,1,1h4a1,1,0,0,0,1-1V8h4v7a1,1,0,0,0,1,1h2v4.884a21,21,0,1,0,12,0ZM18,6a1,1,0,0,0-1,1V22H15V5a1,1,0,0,1,1-1h7V6Zm7-2H39V14H25Zm3,12h8v4.393a20.553,20.553,0,0,0-8,0Zm4,6A19.007,19.007,0,0,1,50.949,40h-37.9A19.007,19.007,0,0,1,32,22Zm0,38A19.007,19.007,0,0,1,13.051,42h37.9A19.007,19.007,0,0,1,32,60Z"></path></g></svg>