<svg xmlns="http://www.w3.org/2000/svg" viewBox="0 0 64 64" x="0px" y="0px"><g><path d="M27,46a1,1,0,0,0,0,2h4a1,1,0,0,0,0-2Z"></path><path d="M40,4H18a5,5,0,0,0-5,5V44.66l3.44-5.95a4,4,0,0,1,7.33.96,4.038,4.038,0,0,1-.4,3.04l-4.21,7.28L20.37,52h7.17a3.962,3.962,0,0,1,1.27-2H27a3,3,0,0,1,0-6h4a3.009,3.009,0,0,1,3,3,2.968,2.968,0,0,1-1.14,2.33,3.955,3.955,0,0,1,2.01,1.71l.13.23V38a4,4,0,0,1,8,0v6.54A3.989,3.989,0,0,1,45,44V9A5,5,0,0,0,40,4ZM25,6h8V8H25ZM21,6h2V8H21ZM40,24.21a13.051,13.051,0,0,1-6.31,11.14l-4.18,2.51a1,1,0,0,1-1.02,0l-4.18-2.51A13.051,13.051,0,0,1,18,24.21V18a.977.977,0,0,1,.55-.89l10-5a.956.956,0,0,1,.9,0l10,5A.977.977,0,0,1,40,18Z"></path><path d="M59,50V61H33.69l-4.02-6.96a2.018,2.018,0,0,1,.73-2.74,2.066,2.066,0,0,1,1.52-.2,1.942,1.942,0,0,1,1.21.94l2,3.46a1.022,1.022,0,0,0,1.13.47A1,1,0,0,0,37,55V38a2,2,0,0,1,4,0V52a1,1,0,0,0,2,0V48a2,2,0,0,1,4,0v4a1,1,0,0,0,2,0V49a2,2,0,0,1,4,0v3a1,1,0,0,0,2,0V50a2,2,0,0,1,4,0Z"></path><path d="M29,14.12l-9,4.5v5.59a11.067,11.067,0,0,0,5.34,9.43L29,35.83l3.66-2.19A11.067,11.067,0,0,0,38,24.21V18.62ZM28,24h2a3,3,0,0,1,0,6v1H28V30a3.009,3.009,0,0,1-3-3h2a1,1,0,0,0,1,1h2a1,1,0,0,0,0-2H28a3,3,0,0,1,0-6V19h2v1a3.009,3.009,0,0,1,3,3H31a1,1,0,0,0-1-1H28a1,1,0,0,0,0,2Z"></path><path d="M17.13,49.5a1.031,1.031,0,0,0,.01,1.02l2.15,3.56A5.074,5.074,0,0,1,20,56.65V61H5V43.2a8.863,8.863,0,0,1,.83-3.77l4.01-8.69A2.911,2.911,0,0,1,11,29.47V47a6.5,6.5,0,0,0,.08.99l-.64,1.11,1.73,1,6-10.39a2,2,0,0,1,1.21-.94,2.06,2.06,0,0,1,1.52.2,2.012,2.012,0,0,1,.73,2.74Z"></path></g></svg>