<svg xmlns="http://www.w3.org/2000/svg" viewBox="0 0 64 64" x="0px" y="0px"><g><path d="M55.707,56.293l-6-6A1,1,0,0,0,49,50H19V48a3,3,0,0,0-3-3H10a1,1,0,0,1,0-2h6a3,3,0,0,0,3-3V38h7v4H22a1,1,0,0,0-1,1v4a1,1,0,0,0,1,1H42a1,1,0,0,0,1-1V43a1,1,0,0,0-1-1H38V38H52a3,3,0,0,0,3-3V9a3,3,0,0,0-3-3H43V8h9a1,1,0,0,1,1,1V30H36v2H53v3a1,1,0,0,1-1,1H12a1,1,0,0,1-1-1V32H28V30H11V9a1,1,0,0,1,1-1h9V6H12A3,3,0,0,0,9,9V35a3,3,0,0,0,3,3h5v2a1,1,0,0,1-1,1H10a3,3,0,0,0,0,6h6a1,1,0,0,1,1,1v2H15a1,1,0,0,0-.707.293l-6,6A1,1,0,0,0,8,57v3a2,2,0,0,0,2,2H54a2,2,0,0,0,2-2V57A1,1,0,0,0,55.707,56.293ZM41,46H23V44H41Zm-5-4H28V38h8ZM15.414,52H48.586l4,4H11.414ZM10,60V58H54v2Z"></path><rect x="16" y="53" width="2" height="2"></rect><rect x="20" y="53" width="2" height="2"></rect><rect x="42" y="53" width="2" height="2"></rect><rect x="24" y="53" width="16" height="2"></rect><rect x="46" y="53" width="2" height="2"></rect><rect x="47" y="33" width="2" height="2"></rect><path d="M18,16a6.006,6.006,0,0,0,6,6h1v1.586L23.586,25h-1.77a3,3,0,1,0,0,2H24a1,1,0,0,0,.707-.293l2-2A1,1,0,0,0,27,24V22h4v3.184a3,3,0,1,0,2,0V22h4v2a1,1,0,0,0,.293.707l2,2A1,1,0,0,0,40,27h2.184a3,3,0,1,0,0-2h-1.77L39,23.586V22h1a6,6,0,0,0,.916-11.93A6.86,6.86,0,0,0,41,9,7,7,0,0,0,28.146,5.172,3.939,3.939,0,0,0,27,5a4,4,0,0,0-4,4,3.943,3.943,0,0,0,.146,1.061A6.008,6.008,0,0,0,18,16Zm1,11a1,1,0,1,1,1-1A1,1,0,0,1,19,27Zm13,2a1,1,0,1,1,1-1A1,1,0,0,1,32,29Zm13-4a1,1,0,1,1-1,1A1,1,0,0,1,45,25ZM24.778,12a1,1,0,0,0,.743-1.669A1.979,1.979,0,0,1,25,9a2,2,0,0,1,2-2,1.967,1.967,0,0,1,1.046.3,1,1,0,0,0,1.432-.425,4.994,4.994,0,0,1,9.231,3.787A1,1,0,0,0,39.651,12H40a4,4,0,0,1,0,8H24a4,4,0,0,1,0-8Z"></path></g></svg>