<svg xmlns="http://www.w3.org/2000/svg" viewBox="0 0 64 64" x="0px" y="0px"><g data-name="Sofa"><path d="M61.867,22.835a4.95,4.95,0,0,0-3.7-3.7c-.055-.012-.11-.017-.165-.028V19a7.008,7.008,0,0,0-7-7H13a7.008,7.008,0,0,0-7,7v.1c-.055.011-.11.016-.165.028a4.952,4.952,0,0,0-3.7,3.7,5.034,5.034,0,0,0,.957,4.281A4.977,4.977,0,0,0,6,28.9V44a2,2,0,0,0,2,2v5a1,1,0,0,0,1,1h4a1,1,0,0,0,.949-.684L15.721,46H48.28l1.772,5.316A1,1,0,0,0,51,52h4a1,1,0,0,0,1-1V46a2,2,0,0,0,2-2V28.9a4.974,4.974,0,0,0,2.911-1.784A5.03,5.03,0,0,0,61.867,22.835ZM13,14H51a5.006,5.006,0,0,1,5,5v.106A4.985,4.985,0,0,0,52,24v8H49.444A3.959,3.959,0,0,0,50,30a4,4,0,0,0-4-4H38a4,4,0,0,0-4,4,3.959,3.959,0,0,0,.556,2H29.444A3.959,3.959,0,0,0,30,30a4,4,0,0,0-4-4H18a4,4,0,0,0-4,4,3.959,3.959,0,0,0,.556,2H12V24a4.98,4.98,0,0,0-4-4.893V19A5.006,5.006,0,0,1,13,14ZM56,40H8V37a3,3,0,0,1,3-3H53a3,3,0,0,1,3,3ZM16,30a2,2,0,0,1,2-2h8a2,2,0,0,1,0,4H18A2,2,0,0,1,16,30Zm20,0a2,2,0,0,1,2-2h8a2,2,0,0,1,0,4H38A2,2,0,0,1,36,30ZM4.653,25.869A3,3,0,1,1,10,24v8.1a4.954,4.954,0,0,0-2,.925V28a1,1,0,0,0-1-1A2.99,2.99,0,0,1,4.653,25.869ZM12.279,50H10V46h3.612ZM54,50H51.721l-1.334-4H54ZM8,44V42H56v2ZM59.348,25.869A2.993,2.993,0,0,1,57,27a1,1,0,0,0-1,1v5.026a4.954,4.954,0,0,0-2-.925V24a3,3,0,1,1,5.348,1.869Z"></path><polygon points="26 23 28 23 28 22 29 22 29 20 28 20 28 19 26 19 26 20 25 20 25 22 26 22 26 23"></polygon><polygon points="16 23 18 23 18 22 19 22 19 20 18 20 18 19 16 19 16 20 15 20 15 22 16 22 16 23"></polygon><polygon points="36 23 38 23 38 22 39 22 39 20 38 20 38 19 36 19 36 20 35 20 35 22 36 22 36 23"></polygon><polygon points="46 23 48 23 48 22 49 22 49 20 48 20 48 19 46 19 46 20 45 20 45 22 46 22 46 23"></polygon><rect x="6" y="23" width="2" height="2"></rect><rect x="56" y="23" width="2" height="2"></rect></g></svg>