<svg xmlns="http://www.w3.org/2000/svg" viewBox="0 0 64 64" x="0px" y="0px"><g data-name="Cargo Truck"><rect x="42" y="37" width="4" height="2"></rect><rect x="11" y="49" width="2" height="2"></rect><rect x="48" y="49" width="2" height="2"></rect><path d="M61.31,32.574l-4.863-9a2.986,2.986,0,0,0-2.5-1.555A13.008,13.008,0,0,0,41,10H40V9a1,1,0,0,0-1-1H3A1,1,0,0,0,2,9V49a2,2,0,0,0,2,2H6.09a5.993,5.993,0,0,0,11.82,0H43.09a5.993,5.993,0,0,0,11.82,0H59a3,3,0,0,0,3-3V35.108A4.959,4.959,0,0,0,61.31,32.574Zm-6.623-8.049L59.267,33H44V24h9.807A1,1,0,0,1,54.687,24.525ZM41,12A11.01,11.01,0,0,1,51.949,22H40V12ZM4,10H38V40H4Zm8,44a4,4,0,1,1,4-4A4,4,0,0,1,12,54Zm0-10a6.006,6.006,0,0,0-5.91,5H4V42H38v7H17.91A6.006,6.006,0,0,0,12,44ZM49,54a4,4,0,1,1,4-4A4,4,0,0,1,49,54Zm10-5H54.91a5.993,5.993,0,0,0-11.82,0H40V24h2V34a1,1,0,0,0,1,1H59.985c0,.036.015.071.015.108V37H56a2,2,0,0,0-2,2v2a2,2,0,0,0,2,2h4v2H57v2h3v1A1,1,0,0,1,59,49Zm1-10v2H56V39Z"></path></g></svg>