<svg xmlns="http://www.w3.org/2000/svg" viewBox="0 0 64 64" x="0px" y="0px"><g data-name="Envelope"><rect x="19" y="12" width="14" height="2"></rect><rect x="19" y="8" width="4" height="2"></rect><rect x="25" y="8" width="6" height="2"></rect><rect x="19" y="16" width="8" height="2"></rect><rect x="29" y="16" width="16" height="2"></rect><path d="M53,20H51V5a3,3,0,0,0-3-3H16a3,3,0,0,0-3,3V20H11a1,1,0,0,0-1,1V59a3,3,0,0,0,3,3H51a3,3,0,0,0,3-3V21A1,1,0,0,0,53,20ZM41,4h2V6.7l-.168-.252a1.039,1.039,0,0,0-1.664,0L41,6.7ZM15,5a1,1,0,0,1,1-1H39v6a1,1,0,0,0,1.832.555L42,8.8l1.168,1.752A1,1,0,0,0,45,10V4h3a1,1,0,0,1,1,1V20H15ZM52,22V56.586l-3.707-3.707A2.978,2.978,0,0,0,46.172,52H17.845a2.977,2.977,0,0,0-2.117.875L12,56.591V22ZM51,60H13a1,1,0,0,1-.93-.655l5.071-5.054a1,1,0,0,1,.7-.291H46.172a1.009,1.009,0,0,1,.707.293l5.051,5.051A.993.993,0,0,1,51,60Z"></path><path d="M32,30a3,3,0,1,0-3-3A3,3,0,0,0,32,30Zm0-4a1,1,0,1,1-1,1A1,1,0,0,1,32,26Z"></path><path d="M23,48H41a1,1,0,0,0,1-1V35a1,1,0,0,0-1-1H23a1,1,0,0,0-1,1V47A1,1,0,0,0,23,48Zm1-12H40V46H24Z"></path><rect x="26" y="38" width="12" height="2"></rect><rect x="26" y="42" width="12" height="2"></rect></g></svg>