<svg xmlns="http://www.w3.org/2000/svg" viewBox="0 0 64 64" x="0px" y="0px"><g><path d="M37,12.692v6.616a5.971,5.971,0,0,0,0-6.616Z"></path><path d="M40,31a3.939,3.939,0,0,1,.142-1H37v2h3Z"></path><rect x="37" y="34" width="3" height="2"></rect><rect x="29" y="4" width="6" height="24"></rect><path d="M27,19.308V12.692a5.971,5.971,0,0,0,0,6.616Z"></path><path d="M6,29.816V31a1,1,0,0,0,1,1H27V30H7A2.966,2.966,0,0,1,6,29.816Z"></path><path d="M27,4H7A1,1,0,0,0,6,5V27a1,1,0,0,0,1,1H27V22.223A7.954,7.954,0,0,1,27,9.777ZM14,25H10a1,1,0,0,1-1-1V20h2v3h3ZM14,9H11v3H9V8a1,1,0,0,1,1-1h4Zm8,8H20V15h2Z"></path><path d="M7,36H27V34H7a2.966,2.966,0,0,1-1-.184V35A1,1,0,0,0,7,36Z"></path><path d="M57,28a1,1,0,0,0,1-1V5a1,1,0,0,0-1-1H37V9.777a7.954,7.954,0,0,1,0,12.446V28h4.382a3.927,3.927,0,0,1,5.236,0ZM50,7h4a1,1,0,0,1,1,1v4H53V9H50Zm0,16h3V20h2v4a1,1,0,0,1-1,1H50Zm-6-6H42V15h2Z"></path><path d="M48,32h9a1,1,0,0,0,1-1V29.816A2.966,2.966,0,0,1,57,30H47.858A3.939,3.939,0,0,1,48,31Z"></path><rect x="29" y="30" width="6" height="6"></rect><path d="M43,60V52a1,1,0,0,1,.2-.6L46,47.667V31a2,2,0,0,0-4,0v8a1,1,0,0,1-.1.447L40,43.236V46H38V43a1,1,0,0,1,.1-.447L40,38.764V38H36v3H34V38H31v3H29V38H26v3H24V38H21v9.667L23.8,51.4a1,1,0,0,1,.2.6v8Z"></path><path d="M58,35V33.816A2.966,2.966,0,0,1,57,34H48v2h9A1,1,0,0,0,58,35Z"></path></g></svg>