<svg xmlns="http://www.w3.org/2000/svg" viewBox="0 0 64 64" x="0px" y="0px"><g data-name="Payment-Credit Card"><path d="M61,52V29.67a11,11,0,0,0-1.474-5.5L54.515,15.5A5.114,5.114,0,0,0,54,14.778V8a2,2,0,0,0-2-2H36V4a2,2,0,0,0-2-2H4A2,2,0,0,0,2,4V23a1,1,0,0,0,.1.447L4,27.236V48a2,2,0,0,0,2,2H32a2,2,0,0,0,2-2V38H44.331A31.51,31.51,0,0,0,44,41.27v.85a15,15,0,0,0,2.13,7.7L47,51.276V52a1,1,0,0,0-1,1v8a1,1,0,0,0,1,1H61a1,1,0,0,0,1-1V53A1,1,0,0,0,61,52ZM52,8V31.294L45.2,19.51a4,4,0,0,0-7.466,2,4.015,4.015,0,0,0,.534,2l6.683,11.566L44.766,36,34,36V27.236l1.9-3.789A1,1,0,0,0,36,23V8ZM34,4V8H4V4ZM32,48H6V27a1,1,0,0,0-.105-.447L4,22.764V10H34V22.764l-1.9,3.789A1,1,0,0,0,32,27Zm16.858,2.486L47.846,48.8A12.992,12.992,0,0,1,46,42.12v-.8a20.923,20.923,0,0,1,.569-4.159,1.062,1.062,0,0,0,.034-.126l.375-1.917A1.019,1.019,0,0,0,47,34.9v-.01h0a.992.992,0,0,0-.141-.5L40,22.511a2.006,2.006,0,0,1-.267-1,2,2,0,0,1,3.734-1l7.5,12.99a1,1,0,0,0,.866.5H53a1,1,0,0,0,1-1V18.6l3.8,6.567a9,9,0,0,1,1.2,4.5V52H49V51A1,1,0,0,0,48.858,50.486ZM60,60H48V54H60Z"></path><path d="M28,26H10a1,1,0,0,0-1,1V45a1,1,0,0,0,1,1H28a1,1,0,0,0,1-1V27A1,1,0,0,0,28,26Zm-1,6H23V28h4ZM17,38V34h4v4Zm4,2v4H17V40Zm-6-2H11V34h4Zm2-6V28h4v4Zm6,2h4v4H23Zm-8-6v4H11V28ZM11,40h4v4H11Zm12,4V40h4v4Z"></path><path d="M32,13a1,1,0,0,0-1-1H7a1,1,0,0,0-1,1V23a1,1,0,0,0,1,1H31a1,1,0,0,0,1-1Zm-2,9H8V14H30Z"></path><path d="M45,18h4a1,1,0,0,0,1-1V11a1,1,0,0,0-1-1H45a1,1,0,0,0-1,1v6A1,1,0,0,0,45,18Zm1-6h2v4H46Z"></path><rect x="38" y="10" width="2" height="2"></rect><rect x="38" y="14" width="2" height="2"></rect><rect x="38" y="30" width="2" height="4"></rect><rect x="26" y="17" width="2" height="2"></rect><rect x="22" y="17" width="2" height="2"></rect><rect x="18" y="17" width="2" height="2"></rect><rect x="14" y="17" width="2" height="2"></rect></g></svg>