<svg xmlns="http://www.w3.org/2000/svg" viewBox="0 0 64 64" x="0px" y="0px"><title>Chat-Heart</title><g><path d="M31.445,25.832a1,1,0,0,0,1.11,0C33.215,25.392,39,21.436,39,18a4,4,0,0,0-7-2.643A4,4,0,0,0,25,18C25,21.436,30.785,25.392,31.445,25.832ZM29,16a2,2,0,0,1,2,2,1,1,0,0,0,2,0,2,2,0,0,1,4,0c0,1.644-2.868,4.256-5,5.784-2.239-1.6-5-4.217-5-5.784A2,2,0,0,1,29,16Z"></path><path d="M19.659,34.94A1.013,1.013,0,0,0,20,35a1,1,0,0,0,.769-.36l4.7-5.64H42a3,3,0,0,0,3-3V14a3,3,0,0,0-3-3H22a3,3,0,0,0-3,3V34A1,1,0,0,0,19.659,34.94ZM21,14a1,1,0,0,1,1-1H42a1,1,0,0,1,1,1V26a1,1,0,0,1-1,1H25a1,1,0,0,0-.769.36L21,31.238Z"></path><path d="M59,2H5A3,3,0,0,0,2,5V45a3,3,0,0,0,3,3H22.9l-.8,8H19a1,1,0,0,0-1,1v3H16v2H48V60H46V57a1,1,0,0,0-1-1H41.905l-.8-8H59a3,3,0,0,0,3-3V5A3,3,0,0,0,59,2ZM44,58v2H20V58ZM24.105,56l.8-8H39.1l.8,8ZM60,45a1,1,0,0,1-1,1H5a1,1,0,0,1-1-1V5A1,1,0,0,1,5,4H59a1,1,0,0,1,1,1Z"></path><path d="M56,6H8A2,2,0,0,0,6,8V39a1,1,0,0,0,1,1H57a1,1,0,0,0,1-1V8A2,2,0,0,0,56,6Zm0,32H8V8H56Z"></path><rect x="31" y="42" width="2" height="2"></rect></g></svg>