<svg xmlns="http://www.w3.org/2000/svg" viewBox="0 0 64 64" x="0px" y="0px"><g data-name="Pay Per Click"><path d="M55,49V41a7.008,7.008,0,0,0-7-7H41V26a4,4,0,0,0-8,0V37.724l-1.161-1.383a4,4,0,1,0-6.125,5.132L33,50.163V51a3,3,0,0,0,2,2.816V56a1,1,0,0,0-1,1v4a1,1,0,0,0,1,1H53a1,1,0,0,0,1-1V57a1,1,0,0,0-1-1V52.974A4.977,4.977,0,0,0,55,49ZM35,26a2,2,0,0,1,4,0V39h2V36h3v3h2V36h2a5,5,0,0,1,1,.1V40h2V37.026A4.977,4.977,0,0,1,53,41v8a3,3,0,0,1-3,3H36a1,1,0,0,1-1-1ZM27.245,40.186a1.988,1.988,0,0,1,.248-2.81,2.05,2.05,0,0,1,2.811.247L33,40.835v6.216ZM52,60H36V58H52Zm-1-4H37V54H50a5,5,0,0,0,1-.1Z"></path><path d="M11,57V7a3,3,0,0,1,3-3H42a3,3,0,0,1,3,3V32h2V7a5.006,5.006,0,0,0-5-5H14A5.006,5.006,0,0,0,9,7V57a5.006,5.006,0,0,0,5,5H32V60H14A3,3,0,0,1,11,57Z"></path><path d="M14,7h5.465a1.025,1.025,0,0,0,.158.184l1.7,1.555A1,1,0,0,0,22,9H34a1,1,0,0,0,.674-.261l1.7-1.555A1.025,1.025,0,0,0,36.535,7H42V32h2V7a2,2,0,0,0-2-2H36.535a2,2,0,0,0-1.581.775L33.612,7H22.388L21.046,5.775A2,2,0,0,0,19.465,5H14a2,2,0,0,0-2,2V52a2,2,0,0,0,2,2H32V52H14Z"></path><path d="M35.951,20.11l1.988-.22a9.993,9.993,0,1,0-6.606,10.541l-.666-1.886a8,8,0,1,1,5.284-8.435Z"></path><path d="M28,18a1,1,0,0,1,1,1h2a3,3,0,0,0-2-2.816V15H27v1.184A2.993,2.993,0,0,0,28,22a1,1,0,1,1-1,1H25a3,3,0,0,0,2,2.816V27h2V25.816A2.993,2.993,0,0,0,28,20a1,1,0,0,1,0-2Z"></path><rect x="24" y="56" width="8" height="2"></rect></g></svg>