<svg xmlns="http://www.w3.org/2000/svg" viewBox="0 0 64 64" x="0px" y="0px"><g data-name="Map"><path d="M61,10H3a1,1,0,0,0-1,1V53a1,1,0,0,0,1,1H61a1,1,0,0,0,1-1V11A1,1,0,0,0,61,10ZM18,12V28H4V12ZM4,38H5V36H4V30H19a1,1,0,0,0,1-1V12h6V29a1,1,0,0,0,1,1H44V28H28V12H60V28H50v2H60v6H46a1,1,0,0,0-1,1V52H39V37a1,1,0,0,0-1-1H27a1,1,0,0,0-1,1V52H4ZM37,52H28V38h9Zm10,0V38H60V52Z"></path><path d="M19,36H17v2h1v8h2V37A1,1,0,0,0,19,36Z"></path><path d="M46,21.857V26h2V21.871a4.006,4.006,0,0,0,3-4.051h0a4,4,0,1,0-5,4.038ZM46.91,16c.031,0,.062,0,.092,0a2,2,0,1,1-.092,0Z"></path><path d="M15,37.82a4.013,4.013,0,1,0-5,4.039V46h2V41.871a4,4,0,0,0,3-4.051Zm-2.519,1.529A2,2,0,1,1,10.91,36c.031,0,.062,0,.092,0a2,2,0,0,1,1.475,3.349Z"></path><rect x="10" y="48" width="2" height="2"></rect><rect x="14" y="48" width="2" height="2"></rect><rect x="18" y="48" width="2" height="2"></rect><rect x="22" y="48" width="2" height="2"></rect><rect x="22" y="44" width="2" height="2"></rect><rect x="22" y="40" width="2" height="2"></rect><rect x="22" y="36" width="2" height="2"></rect><rect x="22" y="32" width="2" height="2"></rect><rect x="26" y="32" width="2" height="2"></rect><rect x="30" y="32" width="2" height="2"></rect><rect x="34" y="32" width="2" height="2"></rect><rect x="38" y="32" width="2" height="2"></rect><rect x="42" y="32" width="2" height="2"></rect><rect x="46" y="32" width="2" height="2"></rect><rect x="46" y="28" width="2" height="2"></rect></g></svg>