<svg xmlns="http://www.w3.org/2000/svg" viewBox="0 0 64 64" x="0px" y="0px"><g data-name="Truck"><path d="M61.287,29.535,57.605,23.4a7.036,7.036,0,0,0-6-3.4H46V14a2,2,0,0,0-2-2H42v2h2v6H40V16a1,1,0,0,0-.293-.707l-5-5A1,1,0,0,0,34,10H5a3,3,0,0,0-3,3V45a3,3,0,0,0,3,3H8.08a6.991,6.991,0,0,0,13.84,0H42.08a6.991,6.991,0,0,0,13.84,0H59a3,3,0,0,0,3-3V32.108A5,5,0,0,0,61.287,29.535Zm-5.4-5.107L59.234,30H44V22h7.6A5.027,5.027,0,0,1,55.891,24.428ZM4,45V13a1,1,0,0,1,1-1H33.586L38,16.414V46H21.92A6.991,6.991,0,0,0,8.08,46H5A1,1,0,0,1,4,45Zm11,7a5,5,0,1,1,5-5A5.006,5.006,0,0,1,15,52Zm34,0a5,5,0,1,1,5-5A5.006,5.006,0,0,1,49,52Zm10-6H55.92a6.991,6.991,0,0,0-13.84,0H40V22h2v9a1,1,0,0,0,1,1H59.985c0,.036.015.071.015.108V34H56a2,2,0,0,0-2,2v2a2,2,0,0,0,2,2h4v2H57v2h3v1A1,1,0,0,1,59,46Zm1-10v2H56V36Z"></path><rect x="42" y="34" width="4" height="2"></rect><rect x="14" y="46" width="2" height="2"></rect><rect x="48" y="46" width="2" height="2"></rect></g></svg>