<svg xmlns="http://www.w3.org/2000/svg" viewBox="0 0 64 64" x="0px" y="0px"><g data-name="Tissue-Paper Towel-Hand-Cleaning-Hygiene"><path d="M60,2V15a1,1,0,0,1-1,1H55V12a3.009,3.009,0,0,0-3-3H12a3.009,3.009,0,0,0-3,3v4H5a1,1,0,0,1-1-1V2H2V15a3.009,3.009,0,0,0,3,3h8V28.08A7,7,0,0,0,7,35V46.53a2.971,2.971,0,0,0,.32,1.34L9,51.24V54H8a1,1,0,0,0-1,1v7H9V56H21v6h2V55a1,1,0,0,0-1-1H21v-.67l2.67-3.55.02.01a.991.991,0,0,0,1.22,0l1.97-1.52,1.94,1.52a1.006,1.006,0,0,0,1.23,0l1.96-1.52,1.96,1.52a.991.991,0,0,0,1.22,0l1.96-1.52,1.96,1.52a.991.991,0,0,0,1.22,0l.01-.01L43,53.33V54H42a1,1,0,0,0-1,1v7h2V56H55v6h2V55a1,1,0,0,0-1-1H55V51.24l1.68-3.37A2.971,2.971,0,0,0,57,46.53V35a7,7,0,0,0-6-6.92V18h8a3.009,3.009,0,0,0,3-3V2ZM11,16V12a1,1,0,0,1,1-1h1v5ZM22.24,44.98A6.922,6.922,0,0,0,22,46.79v1.88L19.2,52.4a.984.984,0,0,0-.2.6v1H11V51a1,1,0,0,0-.11-.45L9.11,46.97A.956.956,0,0,1,9,46.53V35a5.009,5.009,0,0,1,4-4.9V38a1,1,0,0,0,.14.51l2.43,4.05a2.956,2.956,0,0,0,2.53,1.45,3.024,3.024,0,0,0,2.92-2.21l1.15-4.3a1.006,1.006,0,0,1,1.23-.71.963.963,0,0,1,.6.46.974.974,0,0,1,.1.76ZM40,47.51l-.28.22-1.96-1.52a.991.991,0,0,0-1.22,0l-1.96,1.52-1.96-1.52a.991.991,0,0,0-1.22,0l-1.96,1.52L27.5,46.21a1.006,1.006,0,0,0-1.23,0L24.3,47.73,24,47.5v-.71a5.074,5.074,0,0,1,.17-1.29l1.87-6.97a3.032,3.032,0,0,0-.3-2.28,3.007,3.007,0,0,0-5.5.73l-1.15,4.3a.987.987,0,0,1-1.8.25L15,37.72V11H49V37.72l-2.29,3.81a.953.953,0,0,1-.83.48h-.01a1,1,0,0,1-.96-.73l-1.15-4.3a3.007,3.007,0,0,0-5.5-.73,3.032,3.032,0,0,0-.3,2.28l1.87,6.97A5.074,5.074,0,0,1,40,46.79ZM55,35V46.53a.956.956,0,0,1-.11.44l-1.78,3.58A1,1,0,0,0,53,51v3H45V53a.984.984,0,0,0-.2-.6L42,48.67V46.79a6.922,6.922,0,0,0-.24-1.81L39.9,38.01a.974.974,0,0,1,.1-.76,1,1,0,0,1,1.36-.36,1,1,0,0,1,.47.61l1.15,4.3a3,3,0,0,0,2.92,2.21,2.956,2.956,0,0,0,2.53-1.45l2.43-4.05A1,1,0,0,0,51,38V30.1A5.009,5.009,0,0,1,55,35ZM53,16H51V11h1a1,1,0,0,1,1,1Z"></path></g></svg>