<svg xmlns="http://www.w3.org/2000/svg" viewBox="0 0 64 64" x="0px" y="0px"><g><rect x="35" y="33" width="2" height="3"></rect><polygon points="25.94 42 24 42 24 56 25.06 56 25.94 42"></polygon><rect x="26" y="33" width="2" height="3"></rect><polygon points="58 56 58 29 55.04 29 55.96 56 58 56"></polygon><rect x="4" y="25" width="56" height="2"></rect><rect x="24" y="38" width="16" height="2"></rect><polygon points="40 56 40 42 38.06 42 38.94 56 40 56"></polygon><rect x="24" y="29" width="16" height="2"></rect><rect x="50" y="13" width="2" height="10"></rect><rect x="46" y="11" width="2" height="12"></rect><rect x="24" y="16" width="16" height="7"></rect><rect x="54" y="9" width="4" height="14"></rect><path d="M6,21v2H17a1,1,0,0,0,0-2Z"></path><path d="M4,18a1,1,0,0,0,1,1H16V17H5A1,1,0,0,0,4,18Z"></path><polygon points="8.04 56 8.96 29 6 29 6 56 8.04 56"></polygon><path d="M17,13H8v2h9a1,1,0,0,0,0-2Z"></path></g></svg>