<svg xmlns="http://www.w3.org/2000/svg" viewBox="0 0 64 64" x="0px" y="0px"><g><path d="M22,13h2V4a1,1,0,0,0-2,0Z"></path><path d="M34.56,49.26a2.988,2.988,0,0,1-.87-2.12,3.573,3.573,0,0,1,.04-.47c-.01.01-.01.03-.02.04l-2.14,2.13,1.98,1.33a.989.989,0,0,1,.45.73,1.046,1.046,0,0,1-.29.81L25.41,60H35.2a4.61,4.61,0,0,1,.63-1.37A6.735,6.735,0,0,0,37,55a6.609,6.609,0,0,0-1.71-4.29l.69-.69A2.944,2.944,0,0,1,34.56,49.26Z"></path><path d="M20,35.57v3.34l.59,3.23a3.807,3.807,0,0,0,4.82,0L26,38.91V35.57a10.68,10.68,0,0,1-6,0Z"></path><path d="M10.17,58.64A4.444,4.444,0,0,1,10.8,60h9.79l-8.3-8.29A1.046,1.046,0,0,1,12,50.9a.989.989,0,0,1,.45-.73l1.98-1.33-2.14-2.13a1,1,0,0,1-.05-1.36l3.73-4.36L8.91,43.2A6.964,6.964,0,0,0,4,49.88V60H8.64a1.665,1.665,0,0,0-.12-.23A8.855,8.855,0,0,1,7,55a8.723,8.723,0,0,1,2.29-5.71l1.42,1.42A6.609,6.609,0,0,0,9,55,6.794,6.794,0,0,0,10.17,58.64Z"></path><path d="M26,5.23V13h6.95a8.94,8.94,0,0,0-2.59-5.36c-.11-.12-.24-.21-.36-.32V11H28V5.95A9.024,9.024,0,0,0,26,5.23Z"></path><path d="M55,60V47.07l-7-7-7,7V60h3V54a1,1,0,0,1,1-1h6a1,1,0,0,1,1,1v6ZM48,50a3,3,0,1,1,3-3A3,3,0,0,1,48,50Z"></path><rect x="9" y="15" width="28" height="2"></rect><circle cx="48" cy="47" r="1"></circle><path d="M13.06,13H20V5.23a9.209,9.209,0,0,0-2,.72V11H16V7.31A9,9,0,0,0,13.06,13Z"></path><path d="M32,25V19H14v6a9,9,0,0,0,18,0ZM17,22a2,2,0,1,1,2,2A2,2,0,0,1,17,22Zm6,8a5.01,5.01,0,0,1-3.532-1.458l1.4-1.424a3.082,3.082,0,0,0,4.256,0l1.4,1.424A5.01,5.01,0,0,1,23,30Zm4-6a2,2,0,1,1,2-2A2,2,0,0,1,27,24Z"></path><path d="M30.03,40.99l3.73,4.36a1.039,1.039,0,0,1,.22.53,2.643,2.643,0,0,1,.59-.86l1.98-1.98Z"></path><path d="M38,22a2.942,2.942,0,0,0-.73.11.965.965,0,0,1-.87-.16,1.014,1.014,0,0,1-.4-.8V19H34v6a11.014,11.014,0,0,1-6,9.79v.42a2.963,2.963,0,0,0,4.82-1.22,1.035,1.035,0,0,1,.64-.62.993.993,0,0,1,.87.12,3,3,0,0,0,4.16-4.16.99.99,0,0,1-.13-.88,1.035,1.035,0,0,1,.62-.64A2.968,2.968,0,0,0,41,25,3.009,3.009,0,0,0,38,22Z"></path><path d="M29.45,49.83A.989.989,0,0,1,29,49.1a1.046,1.046,0,0,1,.29-.81l2.35-2.34-4.03-4.7L24.56,58.03l6.87-6.87Z"></path><path d="M7.02,27.81a1.035,1.035,0,0,1,.62.64.99.99,0,0,1-.13.88A2.964,2.964,0,0,0,7,31a3,3,0,0,0,4.67,2.49.993.993,0,0,1,.87-.12,1.035,1.035,0,0,1,.64.62A2.963,2.963,0,0,0,18,35.21v-.42A11.014,11.014,0,0,1,12,25V19H10v2.15a1.014,1.014,0,0,1-.4.8.97.97,0,0,1-.87.16A2.942,2.942,0,0,0,8,22a3.009,3.009,0,0,0-3,3A2.968,2.968,0,0,0,7.02,27.81Z"></path><path d="M38.81,49.26a2.883,2.883,0,0,1-1.48.78A8.862,8.862,0,0,1,39,55V49.07Z"></path><path d="M60.02,47.85a.99.99,0,0,0,.29-.71.967.967,0,0,0-.29-.7L48.71,35.12a1.008,1.008,0,0,0-1.42,0L35.98,46.44a.967.967,0,0,0-.29.7.99.99,0,0,0,.29.71,1.014,1.014,0,0,0,1.41,0l9.9-9.9a1.014,1.014,0,0,1,1.42,0l9.9,9.9A1.014,1.014,0,0,0,60.02,47.85Z"></path><path d="M24.95,44.68a6.1,6.1,0,0,1-3.9,0L23,55.41Z"></path><path d="M37.36,60H39V55a8.855,8.855,0,0,1-1.52,4.77A1.665,1.665,0,0,0,37.36,60Z"></path><rect x="46" y="55" width="4" height="5"></rect><path d="M18.39,41.25l-4.03,4.7,2.35,2.34a1.046,1.046,0,0,1,.29.81.989.989,0,0,1-.45.73l-1.98,1.33,6.87,6.87Z"></path></g></svg>