<svg xmlns="http://www.w3.org/2000/svg" viewBox="0 0 64 64" x="0px" y="0px"><g><path d="M26,36a1,1,0,0,0-1-1H13a1,1,0,0,0-1,1V53H8V25.9a4.994,4.994,0,0,0,3-1.93,4.954,4.954,0,0,0,8,0,4.954,4.954,0,0,0,8,0,4.954,4.954,0,0,0,8,0,4.954,4.954,0,0,0,8,0,4.954,4.954,0,0,0,8,0,4.994,4.994,0,0,0,3,1.93V40h2V25.9A5.009,5.009,0,0,0,60,21V15a1,1,0,0,0-.1-.447l-6-12A1,1,0,0,0,53,2H9a1,1,0,0,0-.895.553l-6,12A1,1,0,0,0,2,15v6a5.009,5.009,0,0,0,4,4.9V53a2,2,0,0,0,2,2H38V53H26ZM15,24a3,3,0,0,1-3-3V20h6v1A3,3,0,0,1,15,24ZM4,16H58v2H4Zm19,8a3,3,0,0,1-3-3V20h6v1A3,3,0,0,1,23,24Zm8,0a3,3,0,0,1-3-3V20h6v1A3,3,0,0,1,31,24Zm8,0a3,3,0,0,1-3-3V20h6v1A3,3,0,0,1,39,24Zm8,0a3,3,0,0,1-3-3V20h6v1A3,3,0,0,1,47,24Zm11-3a3,3,0,0,1-6,0V20h6ZM9.618,4H52.382l5,10H4.618ZM4,21V20h6v1a3,3,0,0,1-6,0ZM14,53V37H24V53Z"></path><path d="M60,42H42a2,2,0,0,0-2,2V60a2,2,0,0,0,2,2H60a2,2,0,0,0,2-2V44A2,2,0,0,0,60,42Zm0,4H54V44h6Zm-8-2v6H50V44Zm-4,0v2H42V44ZM42,60V48h6v3a1,1,0,0,0,1,1h4a1,1,0,0,0,1-1V48h6l0,12Z"></path><rect x="54" y="56" width="4" height="2"></rect><rect x="50" y="56" width="2" height="2"></rect><path d="M32,37H48v3h2V36a1,1,0,0,0-1-1H31a1,1,0,0,0-1,1V46a1,1,0,0,0,1,1h7V45H32Z"></path></g></svg>