<svg xmlns="http://www.w3.org/2000/svg" viewBox="0 0 64 64" x="0px" y="0px"><g data-name="Cloud Server"><polygon points="39 32 39 30 39 28 32 28 25 28 25 30 25 32 32 32 39 32"></polygon><path d="M21,21H43a4,4,0,0,0,0-8H39.706a1,1,0,0,1-.958-1.286,6,6,0,1,0-11.555-3.2,1,1,0,0,1-.535.654,1.006,1.006,0,0,1-.845.011A1.96,1.96,0,0,0,25,9a1.972,1.972,0,0,0-1.874,2.666A1,1,0,0,1,22.184,13H21a4,4,0,0,0,0,8ZM35,11h2v2H35Zm-4,0h2v2H31Z"></path><circle cx="11" cy="43" r="1"></circle><path d="M18,38H4V60H18Zm-7,2a3,3,0,1,1-3,3A3,3,0,0,1,11,40Zm4,16H7V54h8Zm0-4H7V50h8Z"></path><circle cx="32" cy="43" r="1"></circle><path d="M39,38H25V60H39Zm-7,2a3,3,0,1,1-3,3A3,3,0,0,1,32,40Zm4,16H28V54h8Zm0-4H28V50h8Z"></path><circle cx="53" cy="43" r="1"></circle><path d="M60,38H46V60H60Zm-7,2a3,3,0,1,1-3,3A3,3,0,0,1,53,40Zm4,16H49V54h8Zm0-4H49V50h8Z"></path><rect x="31" y="23" width="2" height="3"></rect><path d="M54,36H52V31H41V29H53a1,1,0,0,1,1,1Z"></path><path d="M12,36H10V30a1,1,0,0,1,1-1H23v2H12Z"></path><rect x="31" y="34" width="2" height="2"></rect><rect x="6" y="32" width="2" height="2"></rect><rect x="6" y="28" width="2" height="2"></rect><rect x="56" y="32" width="2" height="2"></rect><rect x="56" y="28" width="2" height="2"></rect><rect x="42" y="25" width="2" height="2"></rect><rect x="46" y="25" width="2" height="2"></rect><rect x="50" y="25" width="2" height="2"></rect><rect x="20" y="25" width="2" height="2"></rect><rect x="16" y="25" width="2" height="2"></rect><rect x="12" y="25" width="2" height="2"></rect></g></svg>