<svg xmlns="http://www.w3.org/2000/svg" viewBox="0 0 64 64" x="0px" y="0px"><g><path d="M38,48.889A6.973,6.973,0,0,1,33,51H4v2H33v2H4v2H33a5.006,5.006,0,0,0,5-5Z"></path><rect x="4" y="19" width="19" height="14"></rect><path d="M48,32a6.006,6.006,0,0,0-6-6,5.89,5.89,0,0,0-2,.346V37.654A5.89,5.89,0,0,0,42,38,6.006,6.006,0,0,0,48,32Z"></path><path d="M40,50h4.134l.5-3.452a2.963,2.963,0,0,1,1.915-2.376c.3-.112.593-.236.879-.36a2.959,2.959,0,0,1,3.011.341l2.781,2.086,3.023-3.023L54.15,40.43a2.966,2.966,0,0,1-.33-3.025c.116-.267.24-.561.354-.867a2.961,2.961,0,0,1,2.38-1.908l3.446-.5V29.866l-3.452-.5a2.963,2.963,0,0,1-2.376-1.915c-.112-.3-.236-.593-.36-.879a2.96,2.96,0,0,1,.341-3.011l2.086-2.781-3.023-3.023L50.43,19.85a2.97,2.97,0,0,1-3.025.33c-.267-.116-.561-.24-.867-.354a2.961,2.961,0,0,1-1.908-2.38L44.134,14H40V24.262a8,8,0,1,1,0,15.476Z"></path><rect x="4" y="35" width="19" height="14"></rect><path d="M38,12a5.006,5.006,0,0,0-5-5H31V17h7Z"></path><path d="M38,35H31V49h2a5.006,5.006,0,0,0,5-5Z"></path><rect x="31" y="19" width="7" height="14"></rect><rect x="25" y="7" width="4" height="42"></rect><rect x="4" y="7" width="19" height="10"></rect></g></svg>