<svg xmlns="http://www.w3.org/2000/svg" viewBox="0 0 64 64" x="0px" y="0px"><title>Circle-Report_1</title><g><path d="M18,34a13,13,0,0,0,7.044,11.542L23.586,47H20v2h4a1,1,0,0,0,.707-.293l2.33-2.33A12.943,12.943,0,0,0,41.38,41.794l.913.913A1,1,0,0,0,43,43h2V41H43.414l-.928-.928A12.967,12.967,0,0,0,37,22.479V20h3V18H36a1,1,0,0,0-1,1v2.636A12.986,12.986,0,0,0,18,34ZM28.668,44.746l.039-.039-1.414-1.414-.753.753A11.012,11.012,0,0,1,20.051,35h2.008a8.991,8.991,0,0,0,13.993,6.443l1.427,1.427a10.9,10.9,0,0,1-8.811,1.876ZM31,27a7,7,0,1,1-7,7A7.008,7.008,0,0,1,31,27Zm9.707,11.293-1.414,1.414.66.66a11.089,11.089,0,0,1-.97,1.179l-1.414-1.414A8.961,8.961,0,0,0,39.941,35h2.008a10.881,10.881,0,0,1-.959,3.576ZM35.556,24a11.01,11.01,0,0,1,6.393,9H39.941A9.012,9.012,0,0,0,32,25.059V23.051a10.879,10.879,0,0,1,3,.713V24ZM30,23.051v2.008A9.012,9.012,0,0,0,22.059,33H20.051A11.01,11.01,0,0,1,30,23.051Z"></path><rect x="41" y="18" width="2" height="2"></rect><rect x="45" y="18" width="4" height="2"></rect><rect x="41" y="21" width="8" height="2"></rect><rect x="47" y="39" width="2" height="2"></rect><rect x="47" y="43" width="2" height="2"></rect><rect x="15" y="44" width="4" height="2"></rect><path d="M55,2H9A2,2,0,0,0,7,4V60a2,2,0,0,0,2,2H55a2,2,0,0,0,2-2V4A2,2,0,0,0,55,2ZM40,4V6H24V4ZM23,12H41a1,1,0,0,0,1-1V8h9V56H13V8h9v3A1,1,0,0,0,23,12Zm17-2H24V8H40ZM9,60V4H22V6H12a1,1,0,0,0-1,1V57a1,1,0,0,0,1,1H52a1,1,0,0,0,1-1V7a1,1,0,0,0-1-1H42V4H55V60Z"></path></g></svg>