<svg xmlns="http://www.w3.org/2000/svg" viewBox="0 0 64 64" x="0px" y="0px"><g><path d="M39.694,52.712A.974.974,0,0,0,40,52a1,1,0,0,0-1-1H25a.957.957,0,0,0-.694.288A.974.974,0,0,0,24,52a1,1,0,0,0,1,1H39A.957.957,0,0,0,39.694,52.712Z"></path><path d="M43.929,51.667a1,1,0,0,1,1.135.064l3.824,2.977,5.82-5.82-2.977-3.824a1,1,0,0,1-.064-1.135,22.713,22.713,0,0,0,2.672-6.457,1,1,0,0,1,.847-.754l4.814-.6V27.883l-4.814-.6a1,1,0,0,1-.847-.754,22.725,22.725,0,0,0-2.672-6.457,1,1,0,0,1,.064-1.135l2.977-3.824-5.82-5.82-3.824,2.977a1,1,0,0,1-1.135.064,22.725,22.725,0,0,0-6.457-2.672,1,1,0,0,1-.754-.847L36.117,4H27.883l-.6,4.814a1,1,0,0,1-.754.847,22.725,22.725,0,0,0-6.457,2.672,1,1,0,0,1-1.135-.064L15.112,9.292l-5.82,5.82,2.977,3.824a1,1,0,0,1,.064,1.135,22.725,22.725,0,0,0-2.672,6.457,1,1,0,0,1-.847.754L4,27.883v8.234l4.814.6a1,1,0,0,1,.847.754,22.713,22.713,0,0,0,2.672,6.457,1,1,0,0,1-.064,1.135L9.292,48.888l5.82,5.82,3.824-2.977a1,1,0,0,1,1.135-.064,22.5,22.5,0,0,0,2.036,1.084,2.906,2.906,0,0,1,.785-2.877A2.85,2.85,0,0,1,24,49.181v-.423a3.019,3.019,0,0,0-1.3-2.524,17,17,0,1,1,18.563.022A2.922,2.922,0,0,0,40,48.7v.48A3,3,0,0,1,42,52a2.965,2.965,0,0,1-.106.75A22.094,22.094,0,0,0,43.929,51.667ZM52,31h2v2H52ZM12,33H10V31h2Zm5.151,12.435,1.414,1.414-1.414,1.414-1.414-1.414Zm0-26.87-1.414-1.414,1.414-1.414,1.414,1.414ZM33,12H31V10h2Zm13.849,6.565-1.414-1.414,1.414-1.414,1.414,1.414Zm0,26.87,1.414,1.414-1.414,1.414-1.414-1.414Z"></path><path d="M37,55H27v2a3.014,3.014,0,0,0,3,3h4a3.013,3.013,0,0,0,3-3Z"></path><path d="M38,49v-.3a4.87,4.87,0,0,1,2.175-4.124A15,15,0,1,0,23.8,44.56a4.969,4.969,0,0,1,2.2,4.2V49Zm6-18v2H42V31Zm-2.108-5.866,1,1.732-1.732,1-1-1.732Zm-.732,11,1.732,1-1,1.732-1.732-1ZM20,31h2v2H20Zm2.108,7.866-1-1.732,1.732-1,1,1.732Zm.732-11-1.732-1,1-1.732,1.732,1ZM33,44H31V42h2Zm4.134-22.892,1.732,1-1,1.732-1.732-1Zm.732,19.052,1,1.732-1.732,1-1-1.732ZM31,20h2v2H31Zm2,13H31a3,3,0,0,1,0-6V26h2v1a3,3,0,0,1,3,3H34a1,1,0,0,0-1-1H31a1,1,0,0,0,0,2h2a3,3,0,0,1,0,6v1H31V37a3,3,0,0,1-3-3h2a1,1,0,0,0,1,1h2a1,1,0,0,0,0-2ZM26.866,21.108l1,1.732-1.732,1-1-1.732ZM25.134,41.892l1-1.732,1.732,1-1,1.732Z"></path><path d="M36.984,61H37l0-.013Z"></path><path d="M27,60.986,27,61h.017Z"></path></g></svg>