<svg xmlns="http://www.w3.org/2000/svg" viewBox="0 0 64 64" x="0px" y="0px"><g data-name="Smart Car-Internet of Things-Keys-Smartphone-Car"><circle cx="59" cy="13" r="2"></circle><circle cx="19" cy="13" r="2"></circle><path d="M58,17H20a1,1,0,0,0-1,1v8h2a4.939,4.939,0,0,1,2.97,1H59V18A1,1,0,0,0,58,17ZM25,25a3,3,0,1,1,3-3A3,3,0,0,1,25,25Zm21,0H32V23H46Zm0-4H32V19H46Zm7,4a3,3,0,1,1,3-3A3,3,0,0,1,53,25Z"></path><path d="M24,54H4v3a3.009,3.009,0,0,0,3,3H21a3.009,3.009,0,0,0,3-3Zm-9,4H13V56h2Z"></path><path d="M59,30V29H25.58A4.941,4.941,0,0,1,26,31H58A1,1,0,0,0,59,30Z"></path><rect x="54" y="33" width="4" height="4"></rect><circle cx="25" cy="22" r="1"></circle><circle cx="14" cy="40" r="2"></circle><circle cx="53" cy="22" r="1"></circle><polygon points="25.74 4 25.12 6 52.88 6 52.26 4 25.74 4"></polygon><path d="M24,31a3.009,3.009,0,0,0-3-3H7a3.009,3.009,0,0,0-3,3v1H24Z"></path><path d="M28.28,15h3.44a1.979,1.979,0,0,0-3.44,0Z"></path><path d="M22.35,15h3.79a3.983,3.983,0,0,1,7.72,0H55.65L53.49,8H24.51Z"></path><path d="M24,34H4V52H24ZM17,45.993v2H15V50H13V43.858a4,4,0,1,1,2,0v2.135Z"></path><path d="M44,48H28v2H45a1,1,0,0,0,1-1V35H44Z"></path><rect x="32" y="44" width="2" height="2"></rect><rect x="28" y="44" width="2" height="2"></rect><rect x="36" y="44" width="2" height="2"></rect><rect x="40" y="44" width="2" height="2"></rect></g></svg>