<svg xmlns="http://www.w3.org/2000/svg" viewBox="0 0 64 64" x="0px" y="0px"><g><path d="M48,20H8a2,2,0,0,0-2,2V50a2,2,0,0,0,2,2H48a2,2,0,0,0,2-2V22A2,2,0,0,0,48,20Zm0,2V42.587L36.707,31.293a1,1,0,0,0-1.414,0L24,42.586l-7.293-7.293a1,1,0,0,0-1.414,0L8,42.586V22ZM40.086,37.5,38,39.586l-1.293-1.293a1,1,0,0,0-1.414,0L34,39.586,31.914,37.5,36,33.414ZM19.586,41,18,42.586l-1.293-1.293a1,1,0,0,0-1.414,0L14,42.586,12.414,41,16,37.414ZM8,45.414l3-3,2.293,2.293a1,1,0,0,0,1.414,0L16,43.414l1.293,1.293a1,1,0,0,0,1.414,0L21,42.414,28.586,50H8ZM31.414,50l-6-6L30.5,38.914l2.793,2.793a1,1,0,0,0,1.414,0L36,40.414l1.293,1.293a1,1,0,0,0,1.414,0L41.5,38.914l6.5,6.5V50Z"></path><path d="M59,8H13a3,3,0,0,0-3,3v5H5a3,3,0,0,0-3,3V53a3,3,0,0,0,3,3H51a3,3,0,0,0,3-3V48h5a3,3,0,0,0,3-3V11A3,3,0,0,0,59,8ZM52,53a1,1,0,0,1-1,1H5a1,1,0,0,1-1-1V19a1,1,0,0,1,1-1H51a1,1,0,0,1,1,1ZM51,16H16V14H56V42H54V19A3,3,0,0,0,51,16Zm9,29a1,1,0,0,1-1,1H54V44h2a2,2,0,0,0,2-2V14a2,2,0,0,0-2-2H16a2,2,0,0,0-2,2v2H12V11a1,1,0,0,1,1-1H59a1,1,0,0,1,1,1Z"></path><path d="M19,33h5a3,3,0,0,0,.871-5.871,3,3,0,0,0-5.7-.129H19a3,3,0,0,0,0,6Zm0-4h1a1,1,0,0,0,1-1,1,1,0,0,1,2,0,1,1,0,0,0,1,1,1,1,0,0,1,0,2H19a1,1,0,0,1,0-2Z"></path><path d="M41,30a3,3,0,1,0-3-3A3,3,0,0,0,41,30Zm0-4a1,1,0,1,1-1,1A1,1,0,0,1,41,26Z"></path></g></svg>