<svg xmlns="http://www.w3.org/2000/svg" viewBox="0 0 64 64" x="0px" y="0px"><g><path d="M61.967,43.809a4.989,4.989,0,0,0-6.639-2.415L42.371,47.426A5,5,0,0,0,38,40H33V37.6a9.062,9.062,0,0,0,3.6.768,8.969,8.969,0,0,0,8.941-8.2,1,1,0,0,0-.424-.909,9.026,9.026,0,0,0-8.957-.786A8.935,8.935,0,0,0,33,30.96V27.949a13,13,0,1,0-2,0V30.96a8.918,8.918,0,0,0-3.159-2.5,9.033,9.033,0,0,0-8.958.786,1,1,0,0,0-.424.909A8.943,8.943,0,0,0,31,37.594V40H23a6.986,6.986,0,0,0-6.321,4H14V41a1,1,0,0,0-1-1H3a1,1,0,0,0-1,1V61a1,1,0,0,0,1,1H13a1,1,0,0,0,1-1V59H40.114a5.026,5.026,0,0,0,2.112-.468l17.328-8.077a5.021,5.021,0,0,0,2.413-6.646ZM37.005,30.277a7.025,7.025,0,0,1,6.466.295,6.983,6.983,0,0,1-10.4,4.848A7.022,7.022,0,0,1,37.005,30.277ZM24.46,35.715a7.024,7.024,0,0,1-3.931-5.143,6.983,6.983,0,0,1,10.4,4.848A7.025,7.025,0,0,1,24.46,35.715ZM21,15A11,11,0,1,1,32,26,11.013,11.013,0,0,1,21,15ZM12,60H4V42h8ZM58.708,48.644,41.381,56.72a3.031,3.031,0,0,1-1.267.28H14V46h3.35a1,1,0,0,0,.944-.672A4.98,4.98,0,0,1,23,42H38a3,3,0,0,1,0,6H29v2H40.475a5.013,5.013,0,0,0,2.109-.468l13.591-6.327a2.99,2.99,0,0,1,3.975,1.44,3.058,3.058,0,0,1,.28,1.275A3.018,3.018,0,0,1,58.708,48.644Z"></path><path d="M42,15A10,10,0,1,0,32,25,10.011,10.011,0,0,0,42,15ZM24,15a8,8,0,1,1,8,8A8.009,8.009,0,0,1,24,15Z"></path><path d="M33,21V20a3,3,0,0,0,0-6H31a1,1,0,0,1,0-2h2a1,1,0,0,1,1,1h2a3,3,0,0,0-3-3V9H31v1a3,3,0,0,0,0,6h2a1,1,0,0,1,0,2H31a1,1,0,0,1-1-1H28a3,3,0,0,0,3,3v1Z"></path></g></svg>