<svg xmlns="http://www.w3.org/2000/svg" viewBox="0 0 64 64" x="0px" y="0px"><g data-name="Music Player"><path d="M34,6H8A2,2,0,0,0,6,8V42a2,2,0,0,0,2,2H34a2,2,0,0,0,2-2V8A2,2,0,0,0,34,6ZM8,42V8H34V42Z"></path><path d="M21,47a5,5,0,1,0,5,5A5.006,5.006,0,0,0,21,47Zm0,8a3,3,0,1,1,3-3A3,3,0,0,1,21,55Z"></path><path d="M25.174,23.3l-5.114-3.2A2,2,0,0,0,17,21.8V28.2a2,2,0,0,0,3.061,1.7l5.113-3.2a2,2,0,0,0,0-3.392ZM19,28.2V21.8L24.113,25Z"></path><path d="M58,8c-2.061,0-6,1.558-6,4,0,1.819,2.167,3.086,4,3.652V22a1,1,0,0,0,1,1h1V42H51a3,3,0,0,1-3-3V32h1a1,1,0,0,0,1-1V24.652c1.833-.566,4-1.833,4-3.652,0-2.442-3.939-4-6-4a4,4,0,0,0-4,4V31a1,1,0,0,0,1,1h1v7a5.006,5.006,0,0,0,5,5h7v4a3,3,0,0,1-3,3H44a2,2,0,0,0-2-2H40V7a5.006,5.006,0,0,0-5-5H7A5.006,5.006,0,0,0,2,7V57a5.006,5.006,0,0,0,5,5H35a5.006,5.006,0,0,0,5-5V55h2a2,2,0,0,0,2-2H55a5.006,5.006,0,0,0,5-5V23h1a1,1,0,0,0,1-1V12A4,4,0,0,0,58,8ZM46,21a2,2,0,0,1,2-2c1.495,0,4,1.252,4,2,0,.542-1.509,1.545-3.2,1.9a1,1,0,0,0-.8.979V30H46ZM38,57a3,3,0,0,1-3,3H7a3,3,0,0,1-3-3V7A3,3,0,0,1,7,4H35a3,3,0,0,1,3,3Zm2-4V51h2v2ZM60,21H58V14.88a1,1,0,0,0-.8-.979c-1.7-.356-3.2-1.359-3.2-1.9,0-.748,2.505-2,4-2a2,2,0,0,1,2,2Z"></path><rect x="28" y="51" width="2" height="2"></rect><rect x="12" y="51" width="2" height="2"></rect></g></svg>