<svg xmlns="http://www.w3.org/2000/svg" viewBox="0 0 64 64" x="0px" y="0px"><g data-name="Telephone-Vintage-Phone Call-Phone-Communication"><path d="M14,37a4,4,0,0,0,4-4,3.964,3.964,0,0,0-1.6-3.18,1,1,0,0,1-.4-.8V16.978a1,1,0,0,1,.4-.8A3.964,3.964,0,0,0,18,13a4,4,0,0,0-8,0,3.964,3.964,0,0,0,1.6,3.18,1,1,0,0,1,.4.8V29.022a1,1,0,0,1-.4.8A3.964,3.964,0,0,0,10,33,4,4,0,0,0,14,37Z"></path><path d="M22,56H7a3,3,0,0,1,0-6h5a1,1,0,0,0,0-2H7a3,3,0,0,1,0-6h5a1,1,0,0,0,1-1V39h2v2a3,3,0,0,1-3,3H7a1,1,0,0,0,0,2h5a3,3,0,0,1,0,6H7a1,1,0,0,0,0,2H22Z"></path><path d="M41,34A13,13,0,1,0,28,21,13.015,13.015,0,0,0,41,34Zm0-24A11,11,0,1,1,30,21,11.013,11.013,0,0,1,41,10Z"></path><circle cx="41" cy="21" r="1"></circle><path d="M41,30a9,9,0,1,0-9-9A9.01,9.01,0,0,0,41,30Zm-4.243-3.343-1.414-1.415,1.415-1.414,1.414,1.415ZM42,28H40V26h2Zm3.243-1.343-1.415-1.414,1.414-1.415,1.415,1.414ZM48,20v2H46V20Zm-2.757-4.657,1.414,1.415-1.415,1.414-1.414-1.415ZM40,14h2v2H40Zm1,4a3,3,0,1,1-3,3A3,3,0,0,1,41,18Zm-4.243-2.657,1.415,1.414-1.414,1.415-1.415-1.414ZM34,20h2v2H34Z"></path><path d="M53,42H37a1,1,0,0,0-1,1V55a1,1,0,0,0,1,1H53a1,1,0,0,0,1-1V43A1,1,0,0,0,53,42ZM45,52a4,4,0,1,1,4-4A4,4,0,0,1,45,52Z"></path><path d="M46,46.278V48H44V46.278a2,2,0,1,0,2,0Z"></path><rect x="28" y="45" width="2" height="6"></rect><path d="M25,60H57a1,1,0,0,0,1-1V5a1,1,0,0,0-1-1H25a1,1,0,0,0-1,1V59A1,1,0,0,0,25,60Zm31-5a3,3,0,0,1-3,3H37a3,3,0,0,1-3-3V43a3,3,0,0,1,3-3H53a3,3,0,0,1,3,3ZM41,6A15,15,0,1,1,26,21,15.017,15.017,0,0,1,41,6ZM26,35h2v6H26Zm0,9a1,1,0,0,1,1-1h4a1,1,0,0,1,1,1v8a1,1,0,0,1-1,1H27a1,1,0,0,1-1-1Z"></path></g></svg>