<svg xmlns="http://www.w3.org/2000/svg" viewBox="0 0 64 64" x="0px" y="0px"><g data-name="Cloud Computting"><path d="M52,17a1,1,0,0,1-1-1,5,5,0,0,0-8.583-3.482,1,1,0,0,1-1.6-.226,9.988,9.988,0,0,0-18.725,3.451,1,1,0,0,1-1.672.611A5,5,0,0,0,12,20a1.086,1.086,0,0,1-.35.8,1.03,1.03,0,0,1-.8.268A5.475,5.475,0,0,0,10,21a6,6,0,0,0,0,12h9V30a3,3,0,0,1,3-3h1v2H22a1,1,0,0,0-1,1V43H43V30a1,1,0,0,0-1-1V27a3,3,0,0,1,3,3v3h7a8,8,0,0,0,0-16ZM29,23h2v2H29Zm-4-8h2v2H25Zm0,4h2v2H25Zm7.707,14.707-4,4a1,1,0,0,1-1.414,0l-4-4A1,1,0,0,1,24,32h1V23h2V33a1,1,0,0,1-.649.937L28,35.586l1.649-1.649A1,1,0,0,1,29,33V27h2v5h1a1,1,0,0,1,.707,1.707ZM37,39H35V37h2Zm0-4H35V33h2Zm4,6H39V39h2Zm0-4H39V35h2Zm1.924-13.617A1,1,0,0,1,42,24H41v9H39V23a1,1,0,0,1,.649-.937L38,20.414l-1.649,1.649A1,1,0,0,1,37,23v8H35V24H34a1,1,0,0,1-.707-1.707l4-4a1,1,0,0,1,1.414,0l4,4A1,1,0,0,1,42.924,23.383ZM45,17H43V15h2Zm2-2h2v2H47Zm3,16H48V29h2Zm2,0V29a4,4,0,0,0,4-4h2A6.006,6.006,0,0,1,52,31Z"></path><path d="M36.97,49.757,37.781,53h8.742l-3.2-8H20.677l-3.2,8h8.742l.811-3.243A1,1,0,0,1,28,49h8A1,1,0,0,1,36.97,49.757Z"></path><polygon points="28.281 53 35.719 53 35.219 51 28.781 51 28.281 53"></polygon><rect x="17" y="55" width="30" height="2"></rect></g></svg>