<svg xmlns="http://www.w3.org/2000/svg" viewBox="0 0 64 64" x="0px" y="0px"><g data-name="Combat Boot"><path d="M52,44H42.414l-.858-.859.687-.171a1,1,0,0,0-.486-1.94L40,41.47V39h1a1,1,0,0,0,0-2H40V34h1a1,1,0,0,0,0-2H40V29h1a1,1,0,0,0,0-2H40V24h1a1,1,0,0,0,0-2H40V19h1a1,1,0,0,0,0-2H40V14h1a1,1,0,0,0,0-2H40V9h1a1,1,0,0,0,0-2H40V3a1,1,0,0,0-1-1H18a2,2,0,0,0-2,2v7a1,1,0,0,0,.293.707L18,13.414V40.667L15.2,44.4a1.023,1.023,0,0,0-.071.135.956.956,0,0,0-.057.11A.978.978,0,0,0,15,45V60a2,2,0,0,0,2,2h8a1,1,0,0,0,.895-.553L26.618,60h6.764l.723,1.447A1,1,0,0,0,35,62H55a2,2,0,0,0,2-2V49A5.006,5.006,0,0,0,52,44Zm3,5v5H35V51.5L42.333,46H52A3,3,0,0,1,55,49ZM17,54V46h6.723L33,51.566V54ZM38,7H37a1,1,0,0,0,0,2h1v3H37a1,1,0,0,0,0,2h1v3H37a1,1,0,0,0,0,2h1v3H37a1,1,0,0,0,0,2h1v3H37a1,1,0,0,0,0,2h1v3H37a1,1,0,0,0,0,2h1v3H37a1,1,0,0,0,0,2h1v2.97l-.243.06A1,1,0,0,0,38,44a1.025,1.025,0,0,0,.244-.03l1.05-.263,1.185,1.185L38.094,46.68,34,42.586V4h4ZM18,4H32v8H19.414L18,10.586Zm1.8,37.6A1,1,0,0,0,20,41V14H32V43a1,1,0,0,0,.293.707l4.185,4.185-2.54,1.9-9.423-5.654A1,1,0,0,0,24,44H18ZM55,60H53V58H51v2H49V58H47v2H45V58H43v2H41V58H39v2H35.618L34.9,58.553A1,1,0,0,0,34,58H26a1,1,0,0,0-.895.553L24.382,60H17V56H55Z"></path></g></svg>