<svg xmlns="http://www.w3.org/2000/svg" viewBox="0 0 64 64" x="0px" y="0px"><title>Mobile-Strategy-Plan</title><g><path d="M46,2H18a5.006,5.006,0,0,0-5,5V57a5.006,5.006,0,0,0,5,5H46a5.006,5.006,0,0,0,5-5V7A5.006,5.006,0,0,0,46,2Zm0,58H18a3,3,0,0,1-3-3V12H45V10H15V7a3,3,0,0,1,3-3H46a3,3,0,0,1,3,3V52H19v2H49v3A3,3,0,0,1,46,60Z"></path><rect x="21" y="6" width="2" height="2"></rect><rect x="25" y="6" width="6" height="2"></rect><rect x="31" y="56" width="2" height="2"></rect><path d="M22,43a3,3,0,0,0,3-3,2.951,2.951,0,0,0-.3-1.285L27.414,36H35a1,1,0,0,0,.916-.6L41.99,21.518l.664,1.553,1.838-.786-1.573-3.678a1,1,0,0,0-1.313-.526l-3.677,1.572.787,1.839,1.356-.58L34.346,34H27a1,1,0,0,0-.707.293L23.285,37.3A2.951,2.951,0,0,0,22,37a3,3,0,0,0,0,6Zm0-4a1,1,0,1,1-1,1A1,1,0,0,1,22,39Z"></path><polygon points="33.414 38.172 32 39.586 30.586 38.172 29.172 39.586 30.586 41 29.172 42.414 30.586 43.828 32 42.414 33.414 43.828 34.828 42.414 33.414 41 34.828 39.586 33.414 38.172"></polygon><polygon points="29.586 30.828 31 29.414 32.414 30.828 33.828 29.414 32.414 28 33.828 26.586 32.414 25.172 31 26.586 29.586 25.172 28.172 26.586 29.586 28 28.172 29.414 29.586 30.828"></polygon><polygon points="20.586 27.828 22 26.414 23.414 27.828 24.828 26.414 23.414 25 24.828 23.586 23.414 22.172 22 23.586 20.586 22.172 19.172 23.586 20.586 25 19.172 26.414 20.586 27.828"></polygon></g></svg>