<svg xmlns="http://www.w3.org/2000/svg" data-name="Smartphone-Online-Credit Card-Bill-Report" viewBox="0 0 64 64" x="0px" y="0px"><path d="M22.6,44.184A6.947,6.947,0,0,0,23.92,41H19.414Z"></path><path d="M60,21a3,3,0,0,0-3-3H54v2a2,2,0,0,1-2,2H42a2,2,0,0,1-2-2V18H37a3,3,0,0,0-3,3V57a3,3,0,0,0,3,3H57a3,3,0,0,0,3-3ZM58,53a3,3,0,0,1-3,3H39a3,3,0,0,1-3-3V29a3,3,0,0,1,3-3H55a3,3,0,0,1,3,3Z"></path><path d="M16.009,40H16V33.08A6.995,6.995,0,1,0,21.184,45.6l-4.891-4.891A.991.991,0,0,1,16.009,40Z"></path><rect x="50" y="32" width="2" height="4"></rect><path d="M43,49a2.949,2.949,0,0,1-.962-.173A.956.956,0,0,0,42,49a1,1,0,0,0,2,0,.956.956,0,0,0-.038-.173A2.954,2.954,0,0,1,43,49Z"></path><circle cx="43" cy="46" r="1"></circle><path d="M55,28H39a1,1,0,0,0-1,1V53a1,1,0,0,0,1,1H55a1,1,0,0,0,1-1V29A1,1,0,0,0,55,28ZM40,30h2v2H40Zm0,4h2v2H40Zm0,4h2v2H40Zm6,11a3,3,0,0,1-6,0,2.959,2.959,0,0,1,.421-1.493A2.965,2.965,0,0,1,40,46a3,3,0,0,1,6,0,2.965,2.965,0,0,1-.421,1.507A2.959,2.959,0,0,1,46,49Zm0-9H44V30h2Zm7,12H49V50h4Zm0-4H49V46h4Zm0-4H49V42h4Zm1-7a1,1,0,0,1-1,1H49a1,1,0,0,1-1-1V31a1,1,0,0,1,1-1h4a1,1,0,0,1,1,1Z"></path><path d="M18,33.08V39h5.92A7,7,0,0,0,18,33.08Z"></path><path d="M39,8c-1.612,0-2.348-1.474-2.885-2.55C35.692,4.6,35.365,4,35.01,4s-.682.6-1.106,1.447C33.365,6.524,32.628,8,31.01,8s-2.356-1.476-2.9-2.553C27.691,4.6,27.364,4,27.01,4s-.682.6-1.106,1.447C25.365,6.524,24.628,8,23.01,8s-2.356-1.476-2.9-2.553C19.691,4.6,19.364,4,19.01,4s-.682.6-1.106,1.447C17.365,6.524,16.628,8,15.01,8s-2.356-1.476-2.895-2.553C11.691,4.6,11.364,4,11.01,4s-.682.6-1.106,1.447C9.365,6.524,8.628,8,7.01,8s-2.364-1.478-2.9-2.556C4.069,5.373,4.034,5.3,4,5.235V56H32V21a5.006,5.006,0,0,1,5-5h5V5.237c-.034.069-.069.138-.1.21C41.355,6.524,40.618,8,39,8ZM13,17H11a3,3,0,0,1,0-6V10h2v1a3,3,0,0,1,3,3H14a1,1,0,0,0-1-1H11a1,1,0,0,0,0,2h2a3,3,0,0,1,0,6v1H11V21a3,3,0,0,1-3-3h2a1,1,0,0,0,1,1h2a1,1,0,0,0,0-2Zm4,32a9,9,0,1,1,9-9A9.01,9.01,0,0,1,17,49ZM28,21H18V19H28Zm0-4H18V15H28Z"></path><rect x="42" y="18" width="10" height="2"></rect></svg>