<svg xmlns="http://www.w3.org/2000/svg" viewBox="0 0 64 64" x="0px" y="0px"><g><circle cx="48" cy="53" r="1"></circle><path d="M49,50.184V47a1,1,0,0,0-2,0v3.184a2.809,2.809,0,0,1,2,0Z"></path><path d="M41,60V51.535L38.7,50H25.3L23,51.535V60h3V58a6,6,0,0,1,12,0v2Z"></path><path d="M54,12H49a3,3,0,0,1-3-3V4H13a3,3,0,0,0-3,3V57a3,3,0,0,0,3,3h8V56H16a3,3,0,0,1-3-3V47a2.972,2.972,0,0,1,.619-1.8A3.982,3.982,0,0,1,12,42h2a2,2,0,0,0,4,0h2a3.982,3.982,0,0,1-1.619,3.2A2.972,2.972,0,0,1,19,47v3h2.7l2.748-1.832A1.006,1.006,0,0,1,25,48h2V45H25a1,1,0,0,1-1-1V38.293A8.213,8.213,0,0,1,31.754,30,8,8,0,0,1,40,38v6a1,1,0,0,1-1,1H37v3h2a1.006,1.006,0,0,1,.555.168L42.3,50H45V47a2.972,2.972,0,0,1,.619-1.8A3.982,3.982,0,0,1,44,42h2a2,2,0,0,0,4,0h2a3.982,3.982,0,0,1-1.619,3.2A2.972,2.972,0,0,1,51,47v6a3,3,0,0,1-3,3H43v4h8a3,3,0,0,0,3-3ZM44,15H40v2h4v2H40v2h4v2H40v2a1,1,0,0,1-1,1H37v2H35V26H33v2H31V26H29v2H27V26H25a1,1,0,0,1-1-1V23H20V21h4V19H20V17h4V15H20V13h4V11a1,1,0,0,1,1-1h2V8h2v2h2V8h2v2h2V8h2v2h2a1,1,0,0,1,1,1v2h4Z"></path><polygon points="34 18.586 34 16 30 16 30 20 32.588 20 34 18.586"></polygon><path d="M26,24H38V12H26Zm2-9a1,1,0,0,1,1-1h6a1,1,0,0,1,1,1v4a1,1,0,0,1-.292.707l-2,2A1,1,0,0,1,33,22H29a1,1,0,0,1-1-1Z"></path><path d="M32,54a4,4,0,0,0-4,4v2h8V58A4,4,0,0,0,32,54Z"></path><path d="M43,52v2h2.184a2.809,2.809,0,0,1,0-2Z"></path><path d="M31.553,46.9,29,45.618V48h6V45.618L32.447,46.9a1,1,0,0,1-.894,0Z"></path><circle cx="16" cy="53" r="1"></circle><path d="M52.586,10,48,5.414V9a1,1,0,0,0,1,1Z"></path><path d="M17,47a1,1,0,0,0-2,0v3.184a2.809,2.809,0,0,1,2,0Z"></path><path d="M36,43h2V38a6,6,0,0,0-6.186-6A6.2,6.2,0,0,0,26,38.293V43h2a1,1,0,0,1,.447.1L32,44.882l3.553-1.777A1,1,0,0,1,36,43Zm-7-2a1,1,0,0,1-1-1V37a1,1,0,0,1,.684-.949l3-1a1,1,0,0,1,.632,0l3,1A1,1,0,0,1,36,37v3a1,1,0,0,1-1,1Z"></path><polygon points="30 37.721 30 39 34 39 34 37.721 32 37.054 30 37.721"></polygon><path d="M21,54V52H18.816a2.809,2.809,0,0,1,0,2Z"></path></g></svg>