<svg xmlns="http://www.w3.org/2000/svg" viewBox="0 0 64 64" x="0px" y="0px"><g data-name="Telephone-Vintage-Retro-Phone Call-Tool"><path d="M21,39a11,11,0,0,0,21.949,1H45V38H42.949A11,11,0,0,0,21,39Zm19.941-1H37v2h3.941a9,9,0,1,1,0-2Z"></path><rect x="31" y="32" width="2" height="2"></rect><rect x="26.757" y="33.757" width="2" height="2.001" transform="translate(-16.447 29.808) rotate(-45)"></rect><rect x="25" y="38" width="2" height="2"></rect><rect x="26.757" y="42.243" width="2.001" height="2" transform="translate(-22.447 32.293) rotate(-45)"></rect><rect x="31" y="44" width="2" height="2"></rect><rect x="35.243" y="42.242" width="2" height="2.001" transform="translate(-19.962 38.293) rotate(-45)"></rect><rect x="35.242" y="33.757" width="2.001" height="2" transform="translate(-13.962 35.808) rotate(-45)"></rect><path d="M29,39a3,3,0,1,0,3-3A3,3,0,0,0,29,39Zm4,0a1,1,0,1,1-1-1A1,1,0,0,1,33,39Z"></path><path d="M61,15a1,1,0,0,0,1-1V10a1,1,0,0,0-1-1H58V6a1,1,0,0,0-1-1H53a1,1,0,0,0-1,1V9H45V7H43V9H41a1,1,0,0,0-1-1H24a1,1,0,0,0-1,1H21V7H19V9H12V6a1,1,0,0,0-1-1H7A1,1,0,0,0,6,6V9H3a1,1,0,0,0-1,1v4a1,1,0,0,0,1,1H6v2H4a1,1,0,0,0-1,1v3a1,1,0,0,0-1,1v4a1,1,0,0,0,1,1H15a1,1,0,0,0,1-1V22a1,1,0,0,0-1-1V18a1,1,0,0,0-1-1H12V15h7v2a5,5,0,0,0,5,5h5v2.31A15.109,15.109,0,0,0,18.75,32H14a1,1,0,0,0-1,1V52H11a1,1,0,0,0-1,1v3H9a1,1,0,0,0-1,1v4a1,1,0,0,0,1,1H55a1,1,0,0,0,1-1V57a1,1,0,0,0-1-1H54V53a1,1,0,0,0-1-1H51V33a1,1,0,0,0-1-1H45.25A15.109,15.109,0,0,0,35,24.31V22h5a5,5,0,0,0,5-5V15h7v2H50a1,1,0,0,0-1,1v3a1,1,0,0,0-1,1v4a1,1,0,0,0,1,1H61a1,1,0,0,0,1-1V22a1,1,0,0,0-1-1V18a1,1,0,0,0-1-1H58V15ZM8,7h2V9H8Zm6,18H4V23H14Zm-1-6v2H5V19ZM8,17V15h2v2Zm11-4H4V11H19Zm6-3H39v4H25Zm-4,1h2v2H21ZM54,58v2H10V58Zm-2-4v2H12V54ZM43.73,33.43a1,1,0,0,0,.9.57H49V52H15V34h4.37a1,1,0,0,0,.9-.57,12.974,12.974,0,0,1,23.46,0ZM31,24.04V22h2v2.04c-.33-.03-.66-.04-1-.04S31.33,24.01,31,24.04ZM43,17a3.009,3.009,0,0,1-3,3H24a3.009,3.009,0,0,1-3-3V15h2a1,1,0,0,0,1,1H40a1,1,0,0,0,1-1h2Zm0-4H41V11h2ZM54,7h2V9H54Zm6,18H50V23H60Zm-1-6v2H51V19Zm-5-2V15h2v2Zm-9-4V11H60v2Z"></path></g></svg>