<svg xmlns="http://www.w3.org/2000/svg" viewBox="0 0 64 64" x="0px" y="0px"><g data-name="LED Light"><polygon points="43.586 14 53.586 4 10.414 4 20.414 14 43.586 14"></polygon><polygon points="20.414 50 10.414 60 53.586 60 43.586 50 20.414 50"></polygon><polygon points="60 52.092 60 11.908 49 19.524 49 44.476 60 52.092"></polygon><polygon points="15 44.476 15 19.524 4 11.908 4 52.092 15 44.476"></polygon><path d="M43,44V20H21V44ZM39.29,21.29a1,1,0,0,1,.9-.27.609.609,0,0,1,.191.06.568.568,0,0,1,.17.09,1,1,0,0,1,.16.12A1.05,1.05,0,0,1,41,22a.994.994,0,0,1-.29.71,1.169,1.169,0,0,1-.33.21.943.943,0,0,1-.76,0,1.155,1.155,0,0,1-.33-.21A.99.99,0,0,1,39,22,1.045,1.045,0,0,1,39.29,21.29Zm0,4a1,1,0,0,1,.9-.27.609.609,0,0,1,.191.06.568.568,0,0,1,.17.09,1,1,0,0,1,.16.12A1.05,1.05,0,0,1,41,26a.994.994,0,0,1-.29.71,1.169,1.169,0,0,1-.33.21.943.943,0,0,1-.76,0,1.155,1.155,0,0,1-.33-.21A.99.99,0,0,1,39,26,1.045,1.045,0,0,1,39.29,25.29Zm0,4a1,1,0,0,1,.9-.27.609.609,0,0,1,.191.06.568.568,0,0,1,.17.09,1,1,0,0,1,.16.12A1.05,1.05,0,0,1,41,30a1,1,0,0,1-.08.38.9.9,0,0,1-.54.54.943.943,0,0,1-.76,0,1.155,1.155,0,0,1-.33-.21,1.169,1.169,0,0,1-.21-.33A.838.838,0,0,1,39,30,1.045,1.045,0,0,1,39.29,29.29Zm0,4a1,1,0,0,1,.9-.27.609.609,0,0,1,.191.06.568.568,0,0,1,.17.09,1,1,0,0,1,.16.12A1.05,1.05,0,0,1,41,34a.994.994,0,0,1-.29.71,1.169,1.169,0,0,1-.33.21.943.943,0,0,1-.76,0,1.155,1.155,0,0,1-.33-.21,1.169,1.169,0,0,1-.21-.33A.838.838,0,0,1,39,34,1.025,1.025,0,0,1,39.29,33.29Zm0,4a1,1,0,0,1,.9-.27.609.609,0,0,1,.191.06.568.568,0,0,1,.17.09c.059.04.11.08.16.12A1.05,1.05,0,0,1,41,38a1.039,1.039,0,0,1-.29.7,1.015,1.015,0,0,1-.33.22.99.99,0,0,1-1.3-.54A.838.838,0,0,1,39,38,1.025,1.025,0,0,1,39.29,37.29Zm0,4A1,1,0,0,1,41,42a.994.994,0,0,1-.29.71,1.169,1.169,0,0,1-.33.21.943.943,0,0,1-.76,0,1.155,1.155,0,0,1-.33-.21A.99.99,0,0,1,39,42,1.045,1.045,0,0,1,39.29,41.29Zm-4-20A1,1,0,0,1,37,22a1,1,0,0,1-.08.38,1.169,1.169,0,0,1-.21.33,1.014,1.014,0,0,1-1.42,0,1.169,1.169,0,0,1-.21-.33A.838.838,0,0,1,35,22,1.045,1.045,0,0,1,35.29,21.29Zm-.21,4.33a1.032,1.032,0,0,1,.21-.33,1.047,1.047,0,0,1,1.42,0,1.032,1.032,0,0,1,.21.33.943.943,0,0,1,0,.76,1.169,1.169,0,0,1-.21.33,1.014,1.014,0,0,1-1.42,0,1.169,1.169,0,0,1-.21-.33.942.942,0,0,1,0-.76Zm0,4a1.032,1.032,0,0,1,.21-.33,1.047,1.047,0,0,1,1.42,0,1.032,1.032,0,0,1,.21.33A1,1,0,1,1,35,30,.838.838,0,0,1,35.08,29.62Zm0,4a1.032,1.032,0,0,1,.21-.33,1,1,0,0,1,.9-.27.609.609,0,0,1,.191.06.568.568,0,0,1,.17.09,1,1,0,0,1,.16.12,1.032,1.032,0,0,1,.21.33.942.942,0,0,1,0,.76,1.169,1.169,0,0,1-.21.33,1.014,1.014,0,0,1-1.42,0,1.169,1.169,0,0,1-.21-.33.943.943,0,0,1,0-.76Zm.21,3.67a1,1,0,0,1,.9-.27.609.609,0,0,1,.191.06.568.568,0,0,1,.17.09,1,1,0,0,1,.16.12A1.05,1.05,0,0,1,37,38a1,1,0,1,1-2,0A1.045,1.045,0,0,1,35.29,37.29Zm0,4A1,1,0,0,1,37,42a1,1,0,0,1-.08.38,1.169,1.169,0,0,1-.21.33,1.014,1.014,0,0,1-1.42,0,1.169,1.169,0,0,1-.21-.33A.838.838,0,0,1,35,42,1.045,1.045,0,0,1,35.29,41.29ZM31.08,21.62a1.032,1.032,0,0,1,.21-.33,1.7,1.7,0,0,1,.149-.12.782.782,0,0,1,.181-.09.636.636,0,0,1,.18-.06,1.018,1.018,0,0,1,.91.27,1.032,1.032,0,0,1,.21.33.942.942,0,0,1,0,.76,1.169,1.169,0,0,1-.21.33,1,1,0,0,1-1.63-1.09Zm.21,3.67a1.7,1.7,0,0,1,.149-.12.782.782,0,0,1,.181-.09.636.636,0,0,1,.18-.06.949.949,0,0,1,.58.06A.96.96,0,0,1,33,26a1,1,0,0,1-.08.38,1.169,1.169,0,0,1-.21.33A1,1,0,0,1,31,26,1.025,1.025,0,0,1,31.29,25.29Zm-.21,4.33a1.032,1.032,0,0,1,.21-.33,1.7,1.7,0,0,1,.149-.12.782.782,0,0,1,.181-.09.636.636,0,0,1,.18-.06.949.949,0,0,1,.58.06,1.169,1.169,0,0,1,.33.21,1.155,1.155,0,0,1,.21.33.943.943,0,0,1,0,.76,1.169,1.169,0,0,1-.21.33,1,1,0,0,1-1.63-1.09Zm0,4a1.155,1.155,0,0,1,.21-.33,1.7,1.7,0,0,1,.149-.12.782.782,0,0,1,.181-.09.636.636,0,0,1,.18-.06,1.018,1.018,0,0,1,.91.27,1.155,1.155,0,0,1,.21.33A1,1,0,0,1,33,34a1.011,1.011,0,0,1-.29.71,1,1,0,0,1-1.63-1.09Zm.21,3.67.149-.12a.782.782,0,0,1,.181-.09.636.636,0,0,1,.18-.06,1.018,1.018,0,0,1,.91.27A1.05,1.05,0,0,1,33,38a1,1,0,0,1-.08.38,1.169,1.169,0,0,1-.21.33,1.014,1.014,0,0,1-1.42,0,1.169,1.169,0,0,1-.21-.33A1,1,0,0,1,31,38,1.025,1.025,0,0,1,31.29,37.29Zm0,4a1.7,1.7,0,0,1,.149-.12.782.782,0,0,1,.181-.09.636.636,0,0,1,.18-.06.949.949,0,0,1,.58.06A.96.96,0,0,1,33,42a1,1,0,1,1-2,0A1.045,1.045,0,0,1,31.29,41.29ZM27.08,21.62a1.155,1.155,0,0,1,.21-.33,1.047,1.047,0,0,1,1.42,0,1.155,1.155,0,0,1,.21.33.942.942,0,0,1,0,.76.9.9,0,0,1-.54.54.99.99,0,0,1-1.09-.21,1.169,1.169,0,0,1-.21-.33.943.943,0,0,1,0-.76Zm.21,3.67A1,1,0,0,1,29,26a1,1,0,0,1-.08.38.9.9,0,0,1-.54.54.99.99,0,0,1-1.09-.21,1.169,1.169,0,0,1-.21-.33A.838.838,0,0,1,27,26,1.045,1.045,0,0,1,27.29,25.29Zm-.21,4.33a1.155,1.155,0,0,1,.21-.33,1.047,1.047,0,0,1,1.42,0,1.155,1.155,0,0,1,.21.33.99.99,0,0,1-.21,1.09,1.169,1.169,0,0,1-.33.21A.99.99,0,0,1,27,30,.838.838,0,0,1,27.08,29.62Zm.21,3.67A1,1,0,0,1,29,34a.994.994,0,0,1-.29.71,1.169,1.169,0,0,1-.33.21A.99.99,0,0,1,27,34,1.045,1.045,0,0,1,27.29,33.29Zm0,4A1,1,0,0,1,29,38a1,1,0,0,1-.08.38.9.9,0,0,1-.54.54.99.99,0,0,1-1.09-.21,1.169,1.169,0,0,1-.21-.33A.838.838,0,0,1,27,38,1.045,1.045,0,0,1,27.29,37.29Zm-.21,4.33a1.155,1.155,0,0,1,.21-.33,1.047,1.047,0,0,1,1.42,0,1.155,1.155,0,0,1,.21.33.99.99,0,0,1-.21,1.09,1.169,1.169,0,0,1-.33.21A.99.99,0,0,1,27,42,.838.838,0,0,1,27.08,41.62Zm-4-20a1.032,1.032,0,0,1,.21-.33,1,1,0,0,1,.9-.27.609.609,0,0,1,.191.06.776.776,0,0,1,.18.09,1.712,1.712,0,0,1,.15.12A1.05,1.05,0,0,1,25,22a1,1,0,1,1-1.92-.38Zm0,4a1.155,1.155,0,0,1,.21-.33,1.025,1.025,0,0,1,.9-.27.609.609,0,0,1,.191.06.776.776,0,0,1,.18.09l.15.12A1.05,1.05,0,0,1,25,26a1,1,0,1,1-1.92-.38Zm.21,3.67a1,1,0,0,1,.9-.27.609.609,0,0,1,.191.06.776.776,0,0,1,.18.09,1.712,1.712,0,0,1,.15.12A1.05,1.05,0,0,1,25,30a1,1,0,1,1-2,0A1.025,1.025,0,0,1,23.29,29.29Zm-.21,4.33a.965.965,0,0,1,1.109-.6.609.609,0,0,1,.191.06.776.776,0,0,1,.18.09,1.712,1.712,0,0,1,.15.12A1.05,1.05,0,0,1,25,34a1,1,0,1,1-1.92-.38Zm0,4a1.155,1.155,0,0,1,.21-.33,1,1,0,0,1,.9-.27.609.609,0,0,1,.191.06.776.776,0,0,1,.18.09,1.712,1.712,0,0,1,.15.12,1.155,1.155,0,0,1,.21.33,1,1,0,1,1-1.84,0Zm.21,3.67a1,1,0,0,1,.9-.27.609.609,0,0,1,.191.06.776.776,0,0,1,.18.09,1.712,1.712,0,0,1,.15.12A1.05,1.05,0,0,1,25,42a1,1,0,1,1-2,0A1.025,1.025,0,0,1,23.29,41.29Z"></path></g></svg>