<svg xmlns="http://www.w3.org/2000/svg" viewBox="0 0 64 64" x="0px" y="0px"><g><polygon points="24 8 20 8 20 9.59 22 11.59 24 9.59 24 8"></polygon><path d="M11,14.83a.483.483,0,0,0,.38.48,22.723,22.723,0,0,0,5.57.69h10.1a22.723,22.723,0,0,0,5.57-.69.483.483,0,0,0,.38-.48V14H11Z"></path><polygon points="20.88 42.54 21.62 44 22.38 44 23.12 42.54 22 41.41 20.88 42.54"></polygon><path d="M31,24V17.67a24.966,24.966,0,0,1-3.95.33H16.95A24.966,24.966,0,0,1,13,17.67V24a9,9,0,0,0,18,0ZM16,21a2,2,0,1,1,2,2A2,2,0,0,1,16,21Zm6,8a4.994,4.994,0,0,1-3.307-1.25l1.323-1.5a3.076,3.076,0,0,0,3.968,0l1.323,1.5A4.994,4.994,0,0,1,22,29Zm4-6a2,2,0,1,1,2-2A2,2,0,0,1,26,23Z"></path><path d="M36.04,42.77l2.82,1.03a1.016,1.016,0,0,0,1.28-.6,1,1,0,0,0-.6-1.28l-2.82-1.03Z"></path><path d="M41,60V57.5l-3.6-2.7A1.014,1.014,0,0,1,37,54V51a.988.988,0,0,1,.55-.89l3.41-1.71a6.829,6.829,0,0,0-.75-2.73,2.874,2.874,0,0,1-1.01.19,3,3,0,0,1-1.02-.18l-7.52-2.74a1,1,0,0,1-.6-1.28l.44-1.21-.86-.27-1.69,5.13a1,1,0,0,1-.72.66A.908.908,0,0,1,27,46a1.007,1.007,0,0,1-.71-.29l-1.68-1.69-.58,1.16L25.88,60H34V57h2v3Zm-6-5a1,1,0,0,1-1,1H28a1,1,0,0,1-1-1V49a1,1,0,0,1,1-1h6a1,1,0,0,1,1,1Z"></path><rect x="29" y="50" width="4" height="4"></rect><path d="M3,60H8V57h2v3h8.12l1.85-14.82-.58-1.16-1.68,1.69A1.007,1.007,0,0,1,17,46a.908.908,0,0,1-.23-.03,1,1,0,0,1-.72-.66l-1.69-5.13-.86.27.44,1.21a1,1,0,0,1-.6,1.28L5.82,45.68a3,3,0,0,1-1.02.18,2.874,2.874,0,0,1-1.01-.19,6.829,6.829,0,0,0-.75,2.73l3.41,1.71A.988.988,0,0,1,7,51v3a1.014,1.014,0,0,1-.4.8L3,57.5ZM9,49a1,1,0,0,1,1-1h6a1,1,0,0,1,1,1v6a1,1,0,0,1-1,1H10a1,1,0,0,1-1-1Z"></path><rect x="11" y="50" width="4" height="4"></rect><polygon points="3 50.62 3 55 5 53.5 5 51.62 3 50.62"></polygon><path d="M25,34.57a10.8,10.8,0,0,1-6,.01v2.8l3,1.5,3-1.5Z"></path><polygon points="22.12 46 21.88 46 20.13 60 23.87 60 22.12 46"></polygon><polygon points="27.73 39.59 26.09 39.07 23.69 40.27 26.56 43.14 27.73 39.59"></polygon><rect x="9.434" y="39.804" width="2.003" height="2.003" transform="translate(-13.42 6.094) rotate(-20.154)"></rect><path d="M31.67,4H12.33L10.01,5.74a1.008,1.008,0,0,0-.27,1.3L12.58,12h7.01l-1.3-1.29A1.033,1.033,0,0,1,18,10V7a1,1,0,0,1,1-1h6a1,1,0,0,1,1,1v3a1.033,1.033,0,0,1-.29.71L24.41,12h7.01l2.84-4.96a1.008,1.008,0,0,0-.27-1.3Z"></path><path d="M3.86,43.2a.956.956,0,0,0,.52.56.9.9,0,0,0,.42.1.974.974,0,0,0,.34-.06l2.82-1.03-.68-1.88L4.46,41.92A1,1,0,0,0,3.86,43.2Z"></path><polygon points="41 50.62 39 51.62 39 53.5 41 55 41 50.62"></polygon><rect x="32.564" y="39.804" width="2.003" height="2.003" transform="translate(-16.306 58.255) rotate(-69.846)"></rect><path d="M33,19v4a2.015,2.015,0,0,0,2-2A2.006,2.006,0,0,0,33,19Z"></path><path d="M11,23V19a2.006,2.006,0,0,0-2,2,2.015,2.015,0,0,0,2,2Z"></path><polygon points="20.31 40.27 17.91 39.07 16.27 39.59 17.44 43.14 20.31 40.27"></polygon><path d="M62,46a4.988,4.988,0,0,0-9.5-2.14A4.99,4.99,0,1,0,45,49.992V52a2,2,0,0,0,2,2v2.5a5.5,5.5,0,0,0,11,0V54a2,2,0,0,0,2-2V49.992A5.006,5.006,0,0,0,62,46ZM46,48a.953.953,0,0,0-.184.037,3,3,0,1,1,4.368,0A.953.953,0,0,0,50,48Zm1,4V50h2v2Zm9,4.5a3.5,3.5,0,0,1-7,0V54a2,2,0,0,0,2-2V49.992a4.991,4.991,0,0,0,1.5-1.841A4.991,4.991,0,0,0,54,49.992V52a2,2,0,0,0,2,2ZM56,52V50h2v2Zm3.184-3.963A.953.953,0,0,0,59,48H55a.953.953,0,0,0-.184.037,3,3,0,1,1,4.368,0Z"></path></g></svg>