<svg xmlns="http://www.w3.org/2000/svg" viewBox="0 0 64 64" x="0px" y="0px"><g><path d="M14.32,19.9,12.9,21.32l2.149,2.149q.676-.738,1.416-1.416Z"></path><path d="M32,18A21,21,0,1,0,53,39,21.024,21.024,0,0,0,32,18Zm0,40A19,19,0,1,1,51,39,19.021,19.021,0,0,1,32,58Z"></path><circle cx="32" cy="39" r="1"></circle><path d="M32,22A17,17,0,1,0,49,39,17.019,17.019,0,0,0,32,22Zm12.49,8.634,1,1.732-1.731,1-1-1.732ZM38.634,25.51l1.732,1-1,1.731-1.732-1ZM31,24h2v2H31ZM17,38h2v2H17Zm2.51,9.366-1-1.732,1.731-1,1,1.732Zm.731-14-1.731-1,1-1.732,1.731,1ZM25.366,52.49l-1.732-1,1-1.731,1.732,1Zm-.732-24.249-1-1.731,1.732-1,1,1.731ZM33,54H31V52h2Zm5.634-1.51-1-1.731,1.732-1,1,1.731ZM34.945,38.454a3.04,3.04,0,1,1-1.01-1.727l7.095-4.093,1,1.732Zm9.545,8.912-1.731-1,1-1.732,1.731,1ZM45,40V38h2v2Z"></path><path d="M47.531,22.053q.738.677,1.416,1.416L51.1,21.32,49.68,19.9Z"></path><path d="M38,8a6,6,0,1,0-7,5.91v2.115c.332-.014.665-.025,1-.025s.668.011,1,.025V13.91A6.006,6.006,0,0,0,38,8Zm-5,3.858V10H31v1.858a4,4,0,1,1,2,0Z"></path></g></svg>