<svg xmlns="http://www.w3.org/2000/svg" viewBox="0 0 64 64" x="0px" y="0px"><g data-name="Business Report"><path d="M4,36a14.921,14.921,0,0,0,3.725,9.861l2.12-2.12A11.98,11.98,0,0,1,18,24.051v-3A15.007,15.007,0,0,0,4,36Z"></path><circle cx="48" cy="21" r="1"></circle><path d="M29,36A10.016,10.016,0,0,1,19,46c-.34,0-.67-.02-1-.05V26.05c.33-.03.66-.05,1-.05A10.016,10.016,0,0,1,29,36Z"></path><path d="M33.949,37h-3a11.98,11.98,0,0,1-19.69,8.155l-2.12,2.12A14.962,14.962,0,0,0,33.949,37Z"></path><path d="M20,21.051v3A12.006,12.006,0,0,1,30.949,35h3A15,15,0,0,0,20,21.051Z"></path><path d="M51.293,9.293a1,1,0,0,1,1.414,0L54,10.586V4H50v6.586Z"></path><path d="M57,4H56v9a.987.987,0,0,1-.62.92A.838.838,0,0,1,55,14a1.007,1.007,0,0,1-.71-.29L52,11.41l-2.29,2.3a1,1,0,0,1-1.09.21A.987.987,0,0,1,48,13V4H21a3.009,3.009,0,0,0-3,3V19.04c.33-.03.66-.04,1-.04a17,17,0,0,1,0,34c-.34,0-.67-.01-1-.04V57a3.009,3.009,0,0,0,3,3H57a3.009,3.009,0,0,0,3-3V7A3.009,3.009,0,0,0,57,4ZM48,18a3,3,0,1,1-3,3A3.009,3.009,0,0,1,48,18ZM28,8H38v2H28ZM22,8h4v2H22Zm0,6V12H38v2ZM34.71,24.71l-1.42-1.42,3-3A1.033,1.033,0,0,1,37,20h6v2H37.41ZM40,55H34a1.033,1.033,0,0,1-.71-.29l-3-3,1.42-1.42L34.41,53H40Zm8,0H42V53h6Zm0-4H42V49h6Zm8-11H42V38H56Zm0-4H42V34H56Zm0-4H42V30H56Z"></path></g></svg>