<svg xmlns="http://www.w3.org/2000/svg" viewBox="0 0 64 64" x="0px" y="0px"><g data-name="Smart light-Internet of Things-App-Application-Network"><path d="M55.09,26H25a5.017,5.017,0,0,1,4.9,4H55.81Z"></path><path d="M52,60V56H30v1a4.954,4.954,0,0,1-1.03,3.01Z"></path><rect x="35" y="32" width="8" height="2"></rect><rect x="38" y="36" width="2" height="18"></rect><path d="M28,57V54H8v3a3.009,3.009,0,0,0,3,3H25A3.009,3.009,0,0,0,28,57Zm-9,1H17V56h2Z"></path><path d="M54.02,20,51.31,4.83A1,1,0,0,0,50.33,4H27.67a1.006,1.006,0,0,0-.98.82L23.98,20Z"></path><path d="M19,41.184V44H17V41.184a3,3,0,1,0,2,0Z"></path><path d="M28,31a3.009,3.009,0,0,0-3-3H11a3.009,3.009,0,0,0-3,3v1H28Z"></path><polygon points="23.26 24 54.74 24 54.38 22 23.62 22 23.26 24"></polygon><path d="M28,34H8V52H28ZM18,49a5,5,0,0,1-1-9.9V38h2v1.1A5,5,0,0,1,18,49Z"></path><path d="M53.41,41.59a1.911,1.911,0,0,0-.41-.311V32H51v9.279A2,2,0,0,0,50,43v2a2,2,0,0,0,4,0V43A1.955,1.955,0,0,0,53.41,41.59Z"></path></g></svg>