<svg xmlns="http://www.w3.org/2000/svg" viewBox="0 0 64 64" x="0px" y="0px"><g data-name="Love-Smartphone-Chat Bubble-Message-Heart"><path d="M46,2H18a6.006,6.006,0,0,0-6,6V56a6.006,6.006,0,0,0,6,6H46a6.006,6.006,0,0,0,6-6V8A6.006,6.006,0,0,0,46,2Zm4,54a4,4,0,0,1-4,4H18a4,4,0,0,1-4-4V8a4,4,0,0,1,4-4H46a4,4,0,0,1,4,4Z"></path><path d="M34,52H30a3,3,0,0,0,0,6h4a3,3,0,0,0,0-6Zm0,4H30a1,1,0,0,1,0-2h4a1,1,0,0,1,0,2Z"></path><rect x="25" y="6" width="2" height="2"></rect><rect x="29" y="6" width="6" height="2"></rect><path d="M34.9,21.34a3.972,3.972,0,0,0-2.827,1.173L32,22.586l-.073-.074A3.976,3.976,0,0,0,29.1,21.34a4.026,4.026,0,0,0-2.827,1.173,4,4,0,0,0,0,5.654l5.02,5.02a1,1,0,0,0,1.414,0l5.02-5.02a4,4,0,0,0,0-5.654A4.026,4.026,0,0,0,34.9,21.34Zm1.412,5.412h0L32,31.066l-4.313-4.314a2,2,0,0,1,0-2.825A2.015,2.015,0,0,1,29.1,23.34a1.986,1.986,0,0,1,1.413.587l.78.78a1,1,0,0,0,1.414,0l.78-.78a2.051,2.051,0,0,1,2.825,0,2,2,0,0,1,0,2.825Z"></path><path d="M32,14c-8.822,0-16,5.832-16,13,0,4.189,2.449,8.071,6.592,10.516L21.03,43.757a1,1,0,0,0,1.622,1l5.9-5.074a19.061,19.061,0,0,0,7.019-.023l5.952,3.218a1,1,0,0,0,1.419-1.21l-1.469-4.192C45.576,35.03,48,31.167,48,27,48,19.832,40.822,14,32,14Zm7.785,22.132a1,1,0,0,0-.476,1.215L40.2,39.89l-3.992-2.159a1,1,0,0,0-.677-.1,17.147,17.147,0,0,1-7.062,0,.991.991,0,0,0-.854.221L23.734,41.19l.984-3.931a1,1,0,0,0-.5-1.127C20.323,34.076,18,30.662,18,27c0-6.065,6.28-11,14-11s14,4.935,14,11C46,30.662,43.677,34.076,39.785,36.132Z"></path></g></svg>