<svg xmlns="http://www.w3.org/2000/svg" viewBox="0 0 64 64" x="0px" y="0px"><g><path d="M57,8V4a2,2,0,0,0-2-2H51a2,2,0,0,0-2,2V8a2,2,0,0,0-2,2V49a1,1,0,0,0,.1.447L50,55.236V59a3,3,0,0,0,6,0V55.236l2.9-5.789A1,1,0,0,0,59,49V10A2,2,0,0,0,57,8ZM54.382,54H51.618l-2-4h6.764ZM49,48V18h1v8a2,2,0,0,0,2,2h2a2,2,0,0,0,2-2V18h1V48Zm5-22H52V18h2Zm3-10H49V14h8ZM51,4h4V8H51Zm-2,6h8v2H49Zm5,49a1,1,0,0,1-2,0V56h2Z"></path><path d="M40.516,52.264a1,1,0,0,0-.734.865L39.1,60h-8.19l-.687-6.871a1,1,0,0,0-.733-.865,21.008,21.008,0,0,1-4.911-2.038,1.006,1.006,0,0,0-1.13.093L18.1,54.7,12.305,48.9l4.376-5.347a1,1,0,0,0,.092-1.13,20.976,20.976,0,0,1-2.037-4.911,1,1,0,0,0-.865-.733L7,36.1v-8.19l6.871-.687a1,1,0,0,0,.865-.733,21.008,21.008,0,0,1,2.038-4.911,1,1,0,0,0-.093-1.13L12.305,15.1,18.1,9.305l5.347,4.376a1,1,0,0,0,1.13.093,21.008,21.008,0,0,1,4.911-2.038,1,1,0,0,0,.733-.865L30.905,4H39.1l.687,6.871a1,1,0,0,0,.733.865,20.9,20.9,0,0,1,4.011,1.551l.911-1.781A23.034,23.034,0,0,0,41.705,10L41,2.9A1,1,0,0,0,40,2H30a1,1,0,0,0-1,.9L28.3,10A22.968,22.968,0,0,0,24.187,11.7L18.662,7.184a1,1,0,0,0-1.34.067l-7.071,7.071a1,1,0,0,0-.067,1.34L14.7,21.187A22.938,22.938,0,0,0,13,25.3l-7.1.71A1,1,0,0,0,5,27V37a1,1,0,0,0,.9.995l7.1.71A23.064,23.064,0,0,0,14.7,42.814l-4.519,5.524a1,1,0,0,0,.067,1.34l7.071,7.071a1,1,0,0,0,1.34.067L24.187,52.3A22.968,22.968,0,0,0,28.3,54l.71,7.1a1,1,0,0,0,1,.9H40A1,1,0,0,0,41,61.1l.71-7.1a23,23,0,0,0,3.715-1.5l-.908-1.781A20.961,20.961,0,0,1,40.516,52.264Z"></path><path d="M45.647,20.057a16,16,0,1,0,0,23.885L44.315,42.45a14,14,0,1,1,0-20.9Z"></path><path d="M41,29V28a3,3,0,0,0-3-3H36V23H34v2H32a3,3,0,0,0-3,3v2a3,3,0,0,0,3,3h6a1,1,0,0,1,1,1v2a1,1,0,0,1-1,1H32a1,1,0,0,1-1-1V35H29v1a3,3,0,0,0,3,3h2v2h2V39h2a3,3,0,0,0,3-3V34a3,3,0,0,0-3-3H32a1,1,0,0,1-1-1V28a1,1,0,0,1,1-1h6a1,1,0,0,1,1,1v1Z"></path><rect x="34" y="12" width="2" height="2"></rect><rect x="20.565" y="17.564" width="2" height="2.001" transform="translate(-6.811 20.686) rotate(-45)"></rect><rect x="15" y="31" width="2" height="2"></rect><rect x="20.564" y="44.435" width="2.001" height="2" transform="translate(-25.811 28.556) rotate(-45)"></rect><rect x="34" y="50" width="2" height="2"></rect></g></svg>