<svg xmlns="http://www.w3.org/2000/svg" viewBox="0 0 64 64" x="0px" y="0px"><g><path d="M24,20.09V25h4.91A6.008,6.008,0,0,0,24,20.09Z"></path><path d="M12,60H52a1,1,0,0,0,1-1V12.846a.992.992,0,0,0-.292-.706L46,5.417V11a1,1,0,0,0,1,1h4v2H47a3,3,0,0,1-3-3V4H12a1,1,0,0,0-1,1V59A1,1,0,0,0,12,60ZM31,40H19V38H31ZM49,51a1,1,0,0,1-1,1H34a1,1,0,0,1-1-1V39a1,1,0,0,1,1-1H48a1,1,0,0,1,1,1Zm0-18H33V31H49Zm0-4H33V27H49Zm0-4H33V23H49ZM33,21V19h2v2Zm16-2v2H37V19ZM19,8H39v2H19ZM15,8h2v2H15Zm0,4H39v2H15Zm8,6a8,8,0,1,1-8,8A8.009,8.009,0,0,1,23,18ZM15,38h2v2H15Zm0,4H31v2H15Zm0,4H31v2H15Zm0,4H31v2H15Z"></path><path d="M23,32a6.006,6.006,0,0,0,5.91-5H23a1,1,0,0,1-1-1V20.09A6,6,0,0,0,23,32Z"></path><path d="M35,50H47V40H35Zm2.02-7.2a1,1,0,0,1,1.812-.359l1.044,1.567.229-.459a1,1,0,0,1,1.727-.108l.945,1.418,1.294-3.234,1.858.742-2,5a1,1,0,0,1-1.761.184l-1.044-1.567-.229.459a1,1,0,0,1-.833.551.988.988,0,0,1-.894-.443l-.661-.992L37.98,48.2,36.02,47.8Z"></path></g></svg>