<svg xmlns="http://www.w3.org/2000/svg" viewBox="0 0 64 64" x="0px" y="0px"><g data-name="Smartphone"><polygon points="18.414 36 29.586 36 24 30.414 18.414 36"></polygon><path d="M52,42V12H44v1a1,1,0,0,1-1,1H21a1,1,0,0,1-1-1V12H12V42h8V41a1,1,0,0,1,1-1H43a1,1,0,0,1,1,1v1ZM16,38a1,1,0,0,1-.349-.07,1.033,1.033,0,0,1-.1-.045,1.022,1.022,0,0,1-.209-.141.879.879,0,0,1-.254-.333c0-.009-.011-.016-.015-.026l0,0a1,1,0,0,1-.069-.347c0-.013-.007-.023-.007-.036V16a1,1,0,0,1,1-1H48a1,1,0,0,1,1,1V37a1,1,0,0,1-1,1Z"></path><path d="M17,34.586l6.293-6.293a1,1,0,0,1,1.414,0L28,31.586l9.293-9.293a1,1,0,0,1,1.414,0L47,30.586V17H17ZM30,19a3,3,0,1,1-3,3A3,3,0,0,1,30,19Z"></path><rect x="26" y="48" width="12" height="2"></rect><polygon points="29.414 33 32.414 36 47 36 47 33.414 38 24.414 29.414 33"></polygon><circle cx="30" cy="22" r="1"></circle><path d="M60,15a3,3,0,0,0-3-3H54V42h3a3,3,0,0,0,3-3ZM58,29H56V25h2Z"></path><rect x="29" y="52" width="6" height="8"></rect><path d="M4,39a3,3,0,0,0,3,3h3V12H7a3,3,0,0,0-3,3ZM6,29H8v6H6Zm0,8H8v2H6Z"></path><rect x="22" y="8" width="20" height="4"></rect><rect x="22" y="42" width="20" height="4"></rect><rect x="29" y="4" width="6" height="2"></rect></g></svg>