<svg xmlns="http://www.w3.org/2000/svg" viewBox="0 0 64 64" x="0px" y="0px"><title>Browser_34</title><g data-name="Browser"><path d="M2,2V62H62V2ZM60,4v6H4V4ZM4,60V12H60V60Z"></path><rect x="6" y="6" width="2" height="2"></rect><rect x="10" y="6" width="2" height="2"></rect><rect x="14" y="6" width="2" height="2"></rect><rect x="56" y="6" width="2" height="2"></rect><path d="M18,36A10,10,0,1,0,8,26,10.011,10.011,0,0,0,18,36Zm7.931-11H19V18.069A8.008,8.008,0,0,1,25.931,25ZM17,18.069V27h8.931A8,8,0,1,1,17,18.069Z"></path><path d="M34,56H56V38H34Zm2-16H54V54H36Z"></path><rect x="34" y="16" width="2" height="2"></rect><rect x="38" y="16" width="18" height="2"></rect><rect x="34" y="20" width="22" height="2"></rect><rect x="34" y="24" width="22" height="2"></rect><rect x="34" y="28" width="22" height="2"></rect><rect x="34" y="32" width="22" height="2"></rect><rect x="8" y="38" width="2" height="2"></rect><rect x="12" y="38" width="18" height="2"></rect><rect x="8" y="42" width="22" height="2"></rect><rect x="8" y="46" width="22" height="2"></rect><rect x="8" y="50" width="22" height="2"></rect><rect x="8" y="54" width="22" height="2"></rect><polygon points="48 46.586 46 44.586 42 48.586 40 46.586 37.293 49.293 38.707 50.707 40 49.414 42 51.414 46 47.414 48 49.414 52.707 44.707 51.293 43.293 48 46.586"></polygon></g></svg>