<svg xmlns="http://www.w3.org/2000/svg" viewBox="0 0 64 64" x="0px" y="0px"><g data-name="Mobile Shopping-Basket-Mobile Payment-Payment-Smartphone"><path d="M19.892,19.874A2.944,2.944,0,0,0,19,22a3,3,0,0,0,3,3h.091l.7,7.277A5,5,0,0,0,27.784,37h8.432a4.991,4.991,0,0,0,4.989-4.683l.7-7.317H42a3.015,3.015,0,0,0,3-3,3,3,0,0,0-3-3H40.429l.3-1.689a3.145,3.145,0,0,0,.042-.511,2.99,2.99,0,0,0-2.477-2.944,2.991,2.991,0,0,0-3.478,2.429L34.336,19H29.663l-.478-2.712a3,3,0,0,0-5.955.512,3.081,3.081,0,0,0,.045.523l.3,1.677H22A2.922,2.922,0,0,0,19.892,19.874Zm19.32,12.292a3,3,0,0,1-3,2.834H27.784a3.01,3.01,0,0,1-3-2.874L24.1,25H39.9ZM42,21a1,1,0,0,1,1,1,.977.977,0,0,1-.307.713A.959.959,0,0,1,42,23H39.722l.354-2Zm-5.215-4.368a1,1,0,0,1,.414-.65.968.968,0,0,1,.738-.157.994.994,0,0,1,.833.975,1.066,1.066,0,0,1-.015.178L37.692,23h-2.03ZM33.983,21l-.353,2H30.369l-.353-2Zm-7.911-5.177a.962.962,0,0,1,.729.159,1,1,0,0,1,.415.653L28.338,23H26.309l-1.062-6.01a1.109,1.109,0,0,1-.017-.19A1,1,0,0,1,26.072,15.823ZM24.278,23H22a1,1,0,0,1-1-1,.978.978,0,0,1,.306-.713A.965.965,0,0,1,22,21h1.925Z"></path><rect x="34" y="27" width="2" height="6"></rect><rect x="28" y="27" width="2" height="6"></rect><path d="M54.62,29A3.985,3.985,0,0,0,52,22H50V9a7.008,7.008,0,0,0-7-7H21a7.008,7.008,0,0,0-7,7v5.56A3.906,3.906,0,0,0,12,14H9a1,1,0,0,0-1,1V46.59l-6.71,6.7,1.42,1.42,7-7A1.033,1.033,0,0,0,10,47V16h2a2.006,2.006,0,0,1,2,2v8a1,1,0,0,0,.14.51l1.01,1.68A13.013,13.013,0,0,1,17,34.88v1.45a9.92,9.92,0,0,1-1.43,5.15l1.72,1.04A12.047,12.047,0,0,0,19,36.33V34.88a14.993,14.993,0,0,0-2.14-7.72L16,25.72V9a5,5,0,0,1,5-5H43a5,5,0,0,1,5,5V22a3.985,3.985,0,0,0-2.62,7,3.951,3.951,0,0,0,0,6,3.951,3.951,0,0,0,0,6A3.985,3.985,0,0,0,48,48v1a5,5,0,0,1-5,5H21a5,5,0,0,1-5-5V44H14v5a7.008,7.008,0,0,0,7,7H33.59l-5.3,5.29,1.42,1.42L36.41,56H43a7.008,7.008,0,0,0,7-7V48h2a3.985,3.985,0,0,0,2.62-7,3.951,3.951,0,0,0,0-6,3.951,3.951,0,0,0,0-6ZM52,46H48a2,2,0,0,1,0-4h4a2,2,0,0,1,0,4Zm0-6H48a2,2,0,0,1,0-4h4a2,2,0,0,1,0,4Zm0-6H48a2,2,0,0,1,0-4h4a2,2,0,0,1,0,4Zm0-6H48a2,2,0,0,1,0-4h4a2,2,0,0,1,0,4Z"></path><rect x="25" y="6" width="2" height="2"></rect><rect x="29" y="6" width="6" height="2"></rect><path d="M34,46H30a3,3,0,0,0,0,6h4a3,3,0,0,0,0-6Zm0,4H30a1,1,0,0,1,0-2h4a1,1,0,0,1,0,2Z"></path></g></svg>