<svg xmlns="http://www.w3.org/2000/svg" viewBox="0 0 64 64" x="0px" y="0px"><g><path d="M21.37,48.382a2.113,2.113,0,0,0,1.436,2.209l20.206,7.354,5.734-1.936a.99.99,0,0,1,.662.008l.94.341,3.42-9.4-6.28-2.286L34.164,47.025a2.013,2.013,0,0,0-1.533,1.288,1.246,1.246,0,0,0-.069.249.885.885,0,0,1-.017.1,1.848,1.848,0,0,0-.005.689,2.006,2.006,0,0,0,2.317,1.615l11.257-1.985.348,1.969L35.2,52.938a4.008,4.008,0,0,1-4.635-3.245,4.351,4.351,0,0,1-.045-.55l-6.488-2.362a2.008,2.008,0,0,0-2.666,1.6Z"></path><rect x="48.816" y="51.028" width="14" height="4" transform="translate(-13.104 87.34) rotate(-69.999)"></rect><path d="M44,39V24.846L35,18.24l-9,6.606V39h2V32a1,1,0,0,1,1-1h6a1,1,0,0,1,1,1v7Zm-1-7v4a1,1,0,0,1-1,1H38a1,1,0,0,1-1-1V32a1,1,0,0,1,1-1h4A1,1,0,0,1,43,32Zm-8-5a3,3,0,1,1,3-3A3,3,0,0,1,35,27Z"></path><rect x="39" y="33" width="2" height="2"></rect><circle cx="35" cy="24" r="1"></circle><path d="M49.68,26.231A.782.782,0,0,0,50,24.813l-8.531-6.022a3.841,3.841,0,0,1-3.175-1.084l-2.8-2.8A3.9,3.9,0,0,1,32,17h-.933L20,24.816a.8.8,0,0,0-.2,1.087.812.812,0,0,0,.663.337.8.8,0,0,0,.467-.152l13.481-9.894a1,1,0,0,1,1.184,0l13.49,9.9A.778.778,0,0,0,49.68,26.231Z"></path><rect x="30" y="33" width="4" height="6"></rect><rect x="4" y="4" width="6" height="14"></rect><path d="M34.05,5.465A4.967,4.967,0,0,0,30.515,4H20.2L13.394,6.919A.989.989,0,0,1,13,7H12v8h1a1,1,0,0,1,1,1c0,1.514,2.477,3,5,3s5-1.486,5-3a1,1,0,0,1,1-1h7a2,2,0,0,0,0-4H23V9h9a3.99,3.99,0,0,1,3.953,3.539l3.754,3.754a1.9,1.9,0,0,0,2.836-.313,1.938,1.938,0,0,0-.357-2.38Z"></path></g></svg>