<svg xmlns="http://www.w3.org/2000/svg" viewBox="0 0 64 64" x="0px" y="0px"><g><path d="M30,20a2.006,2.006,0,0,1,2-2h1v-.48L18,6.93V34H30ZM28,30a2,2,0,0,1-2,2H22a2,2,0,0,1-2-2V18.868A2,2,0,0,1,23.109,17.2l4,2.667A2,2,0,0,1,28,21.535Z"></path><polygon points="22 30 26 30 26 21.535 22 18.868 22 30"></polygon><rect x="4" y="36" width="26" height="2"></rect><rect x="10" y="28" width="2.001" height="2"></rect><path d="M16,16H6V34H16ZM14,30a2,2,0,0,1-2,2H10a2,2,0,0,1-2-2V28a2,2,0,0,1,2-2h2a2,2,0,0,1,2,2Zm0-8a2,2,0,0,1-2,2H10a2,2,0,0,1-2-2V20a2,2,0,0,1,2-2h2a2,2,0,0,1,2,2Z"></path><rect x="11" y="45" width="20" height="8"></rect><rect x="10" y="20" width="2.001" height="2"></rect><polygon points="36 34 52.219 34 54.719 24 36 24 36 34"></polygon><path d="M60.72,20H32V38H56.22Zm-8.5,16H36a2,2,0,0,1-2-2V24a2,2,0,0,1,2-2H54.719a2,2,0,0,1,1.941,2.484l-2.5,10A2,2,0,0,1,52.219,36Z"></path><polygon points="52.22 34 52.219 34 52.219 35 52.22 34"></polygon><path d="M42,54h7V44H42Zm1-6h2v2H43Z"></path><path d="M53,54V40H38V54h2V44a2.006,2.006,0,0,1,2-2h7a2.006,2.006,0,0,1,2,2V54Z"></path><path d="M55,58V56H36v2H34V56a2.006,2.006,0,0,1,2-2V40H6V58H2v2H62V58ZM9,45a2,2,0,0,1,2-2H31a2,2,0,0,1,2,2v8a2,2,0,0,1-2,2H11a2,2,0,0,1-2-2Z"></path></g></svg>