<svg xmlns="http://www.w3.org/2000/svg" viewBox="0 0 64 64" x="0px" y="0px"><path d="M44.6,34.276A9.986,9.986,0,0,0,43,16.841V13a11,11,0,0,0-22,0v3.841a9.986,9.986,0,0,0-1.6,17.435A12.956,12.956,0,0,0,15,44V61a1,1,0,0,0,1,1H48a1,1,0,0,0,1-1V44A12.956,12.956,0,0,0,44.6,34.276ZM47,26a8.025,8.025,0,0,1-4.135,6.981A12.887,12.887,0,0,0,37,31.051V28.188A6,6,0,0,0,40,23V22a3,3,0,0,0,2.991-2.915A7.994,7.994,0,0,1,47,26ZM24,20a1,1,0,0,1,0-2Zm2-3v-.145c1.973-.347,6.776-1.427,9.7-4.064A7.866,7.866,0,0,0,38,15.566V23a4,4,0,0,1-4,4H30a4,4,0,0,1-4-4Zm14,1a1,1,0,0,1,0,2ZM30,29h4a6,6,0,0,0,1-.09v2.738L32,35.4l-3-3.75V28.91A6,6,0,0,0,30,29Zm-1.927,4.693,2.5,3.126-2.13,1.6-1.32-3.3ZM32,38.25l2.763,2.071L32,46.538l-2.763-6.217Zm3.556.167-2.13-1.6,2.5-3.126.949,1.424ZM32,4a9.01,9.01,0,0,1,9,9v3.184A2.966,2.966,0,0,0,40,16V15a1,1,0,0,0-.553-.895c-1.327-.663-2.254-2.7-2.5-3.422A1,1,0,0,0,35.2,10.4c-2.707,3.61-10.249,4.6-10.325,4.608A1,1,0,0,0,24,16a2.966,2.966,0,0,0-1,.184V13A9.01,9.01,0,0,1,32,4ZM17,26a7.994,7.994,0,0,1,4.009-6.915A3,3,0,0,0,24,22v1a6,6,0,0,0,3,5.188v2.863a12.887,12.887,0,0,0-5.865,1.93A8.025,8.025,0,0,1,17,26ZM47,60H43V53.447a8.417,8.417,0,0,0,0-10.894V41H41v2a1,1,0,0,0,.4.8c.9.679,1.6,2.815,1.6,4.2s-.7,3.522-1.6,4.2a1,1,0,0,0-.4.8v7H23V53a1,1,0,0,0-.4-.8c-.9-.679-1.6-2.815-1.6-4.2s.7-3.522,1.6-4.2A1,1,0,0,0,23,43V41H21v1.553a8.417,8.417,0,0,0,0,10.894V60H17V44a11.013,11.013,0,0,1,9-10.81l-.837,1.255a1,1,0,0,0-.1.926l6.015,14.035a1,1,0,0,0,1.828,0l6.015-14.035a1,1,0,0,0-.1-.926l-.837-1.255A11.013,11.013,0,0,1,47,44Z"></path><path d="M34.29,18.71a1.014,1.014,0,0,0,1.42,0,1.169,1.169,0,0,0,.21-.33A1,1,0,0,0,36,18a1.05,1.05,0,0,0-.29-.71,1.712,1.712,0,0,0-.15-.12.776.776,0,0,0-.18-.09.646.646,0,0,0-.18-.06,1.009,1.009,0,0,0-.91.27A1.045,1.045,0,0,0,34,18a1,1,0,0,0,.069.38A1.523,1.523,0,0,0,34.29,18.71Z"></path><path d="M28.29,18.71a.99.99,0,0,0,1.09.21.9.9,0,0,0,.54-.54A1,1,0,0,0,30,18a1,1,0,1,0-2,0,.838.838,0,0,0,.08.38A1.169,1.169,0,0,0,28.29,18.71Z"></path></svg>