<svg xmlns="http://www.w3.org/2000/svg" viewBox="0 0 64 64" x="0px" y="0px"><g data-name="Phone-Fax-Telephone-Phone Call-Vintage"><rect x="39" y="38" width="2" height="2"></rect><rect x="39" y="46" width="2" height="2"></rect><rect x="47" y="54" width="2" height="2"></rect><rect x="47" y="46" width="2" height="2"></rect><rect x="39" y="54" width="2" height="2"></rect><path d="M60,23a1,1,0,0,0-1-1H58V58h1a1,1,0,0,0,1-1Z"></path><rect x="47" y="38" width="2" height="2"></rect><rect x="31" y="38" width="2" height="2"></rect><rect x="31" y="46" width="2" height="2"></rect><rect x="31" y="54" width="2" height="2"></rect><rect x="8" y="19" width="10" height="42" rx="1"></rect><rect x="20" y="22" width="2" height="36"></rect><path d="M52,24H28v8H52ZM38,30H36V28h2Zm4,0H40V28h2Zm4,0H44V28h2Zm4,0H48V28h2Z"></path><path d="M24,60H56V20H24Zm11-3a1,1,0,0,1-1,1H30a1,1,0,0,1-1-1V53a1,1,0,0,1,1-1h4a1,1,0,0,1,1,1Zm0-8a1,1,0,0,1-1,1H30a1,1,0,0,1-1-1V45a1,1,0,0,1,1-1h4a1,1,0,0,1,1,1Zm0-8a1,1,0,0,1-1,1H30a1,1,0,0,1-1-1V37a1,1,0,0,1,1-1h4a1,1,0,0,1,1,1Zm8,16a1,1,0,0,1-1,1H38a1,1,0,0,1-1-1V53a1,1,0,0,1,1-1h4a1,1,0,0,1,1,1Zm0-8a1,1,0,0,1-1,1H38a1,1,0,0,1-1-1V45a1,1,0,0,1,1-1h4a1,1,0,0,1,1,1Zm0-8a1,1,0,0,1-1,1H38a1,1,0,0,1-1-1V37a1,1,0,0,1,1-1h4a1,1,0,0,1,1,1Zm8,16a1,1,0,0,1-1,1H46a1,1,0,0,1-1-1V53a1,1,0,0,1,1-1h4a1,1,0,0,1,1,1Zm0-8a1,1,0,0,1-1,1H46a1,1,0,0,1-1-1V45a1,1,0,0,1,1-1h4a1,1,0,0,1,1,1Zm0-8a1,1,0,0,1-1,1H46a1,1,0,0,1-1-1V37a1,1,0,0,1,1-1h4a1,1,0,0,1,1,1ZM26,24a2,2,0,0,1,2-2H52a2,2,0,0,1,2,2v8a2,2,0,0,1-2,2H28a2,2,0,0,1-2-2Z"></path><path d="M5,58H6V22H5a1,1,0,0,0-1,1V57A1,1,0,0,0,5,58Z"></path><path d="M28,4V18H52V4ZM50,16H30V14H50Zm0-4H30V10H50Zm0-4H30V6H50Z"></path></g></svg>