<svg xmlns="http://www.w3.org/2000/svg" viewBox="0 0 64 64" x="0px" y="0px"><g data-name="Online Payment-Credit Card-Smartphone-Mobile-App"><path d="M39,32H37a1,1,0,0,0,0,2h2a1,1,0,0,0,0-2Z"></path><rect x="24" y="28" width="4" height="2"></rect><path d="M49,12H15V44.659l2.437-4.221a3.955,3.955,0,0,1,1.382-1.392A2.978,2.978,0,0,1,18,37V25a3,3,0,0,1,3-3H43a3,3,0,0,1,3,3V37a3,3,0,0,1-3,3H24.07a4,4,0,0,1,.3,4.438l-3.258,5.641L21.877,52H49ZM22,16H19v3H17V15a1,1,0,0,1,1-1h4Z"></path><path d="M44,37V25a1,1,0,0,0-1-1H21a1,1,0,0,0-1,1V37a1,1,0,0,0,1,1H43A1,1,0,0,0,44,37ZM36,26h2v2H36ZM24,36H22V34h2Zm4,0H26V34h2Zm1-4H23a1,1,0,0,1-1-1V27a1,1,0,0,1,1-1h6a1,1,0,0,1,1,1v4A1,1,0,0,1,29,32Zm3,4H30V34h2Zm0-10h2v2H32Zm7,10H37a3,3,0,0,1,0-6h2a3,3,0,0,1,0,6Zm3-8H40V26h2Z"></path><path d="M49,54H22.6a10.965,10.965,0,0,1,.4,2.926v1.3A10.985,10.985,0,0,1,22.846,60H44a5.006,5.006,0,0,0,5-5ZM34,58H30V56h4Z"></path><path d="M21,58.23v-1.3a8.975,8.975,0,0,0-.644-3.343l-1.285-3.212a1,1,0,0,1,.063-.871l3.5-6.062a2,2,0,0,0-3.464-2l-5,8.66-1.733-1L13,48.123V35.151l-4.506,7.8a14.9,14.9,0,0,0-1.92,9.16L7.562,61H20.555A8.913,8.913,0,0,0,21,58.23Z"></path><path d="M49,9a5.006,5.006,0,0,0-5-5H20a5.006,5.006,0,0,0-5,5v1H49ZM27,8H25V6h2Zm8,0H29V6h6Z"></path></g></svg>