<svg xmlns="http://www.w3.org/2000/svg" viewBox="0 0 64 64" x="0px" y="0px"><g data-name="Picture-Smartphone"><circle cx="35" cy="22" r="2"></circle><polygon points="31.414 40 39.414 48 43 48 43 36.414 39 32.414 31.414 40"></polygon><path d="M21,41.586l5.293-5.293a1,1,0,0,1,1.414,0L30,38.586l8.293-8.293a1,1,0,0,1,1.414,0L43,33.586V16H21ZM35,18a4,4,0,1,1-4,4A4,4,0,0,1,35,18Z"></path><path d="M47,54H17v3a3,3,0,0,0,3,3H44a3,3,0,0,0,3-3ZM34,58H30V56h4Z"></path><polygon points="21 44.414 21 48 36.586 48 27 38.414 21 44.414"></polygon><path d="M47,12H17V52H47ZM45,49a1,1,0,0,1-1,1H20a1,1,0,0,1-1-1V15a1,1,0,0,1,1-1H44a1,1,0,0,1,1,1Z"></path><path d="M47,7a3,3,0,0,0-3-3H20a3,3,0,0,0-3,3v3H47ZM23,8H21V6h2Zm8,0H25V6h6Z"></path></g></svg>