<svg xmlns="http://www.w3.org/2000/svg" viewBox="0 0 64 64" x="0px" y="0px"><g data-name="Qr Code-Scan-Shopping-Smartphone-Qr Scan"><path d="M60.18,22.76A4.993,4.993,0,0,0,55.19,18H51V13a11,11,0,0,0-22,0v5H24.81a4.993,4.993,0,0,0-4.99,4.76L19.58,28H9a5,5,0,0,0-5,5V57a5,5,0,0,0,5,5H21a5,5,0,0,0,1.97-.41,6.832,6.832,0,0,0,2.32.41H54.71a7.008,7.008,0,0,0,6.99-7.34ZM31,13a9,9,0,0,1,18,0V23a1,1,0,0,1-2,0V13a7,7,0,0,0-14,0V23a1,1,0,0,1-2,0Zm14,0v5H35V13a5,5,0,0,1,10,0ZM24,57a3.009,3.009,0,0,1-3,3H9a3.009,3.009,0,0,1-3-3V33a3.009,3.009,0,0,1,3-3H21a3.009,3.009,0,0,1,3,3Zm34.32,1.45A4.931,4.931,0,0,1,54.71,60H25.29a2.85,2.85,0,0,1-.29-.03A4.939,4.939,0,0,0,26,57V33a4.987,4.987,0,0,0-4.42-4.94l.24-5.2A2.986,2.986,0,0,1,24.81,20H29v3a3,3,0,0,0,6,0V20H45v3a3,3,0,0,0,6,0V20h4.19a2.986,2.986,0,0,1,2.99,2.86l1.52,31.9A4.918,4.918,0,0,1,58.32,58.45Z"></path><rect x="13" y="32" width="4" height="2"></rect><rect x="9" y="32" width="2" height="2"></rect><rect x="12" y="56" width="6" height="2"></rect><rect x="8" y="38" width="3" height="3"></rect><rect x="19" y="38" width="3" height="3"></rect><rect x="8" y="49" width="3" height="3"></rect><polygon points="20 50 18 50 18 52 22 52 22 48 20 48 20 50"></polygon><polygon points="20 44 18 44 18 46 22 46 22 43 20 43 20 44"></polygon><rect x="14" y="44" width="2" height="2"></rect><polygon points="16 48 14 48 14 50 13 50 13 52 16 52 16 48"></polygon><polygon points="10 46 12 46 12 44 10 44 10 43 8 43 8 47 10 47 10 46"></polygon><polygon points="14 42 16 42 16 40 17 40 17 38 13 38 13 40 14 40 14 42"></polygon><rect x="33" y="35" width="3" height="3"></rect><rect x="44" y="35" width="3" height="3"></rect><rect x="33" y="46" width="3" height="3"></rect><polygon points="47 45 45 45 45 47 43 47 43 49 47 49 47 45"></polygon><polygon points="38 37 39 37 39 39 41 39 41 37 42 37 42 35 38 35 38 37"></polygon><polygon points="47 40 45 40 45 41 43 41 43 43 47 43 47 40"></polygon><rect x="39" y="41" width="2" height="2"></rect><polygon points="39 47 38 47 38 49 41 49 41 45 39 45 39 47"></polygon><polygon points="35 40 33 40 33 44 35 44 35 43 37 43 37 41 35 41 35 40"></polygon><path d="M50,31H45v2h4v4h2V32A1,1,0,0,0,50,31Z"></path><path d="M49,51H45v2h5a1,1,0,0,0,1-1V47H49Z"></path><path d="M31,33h4V31H30a1,1,0,0,0-1,1v5h2Z"></path><path d="M31,47H29v5a1,1,0,0,0,1,1h5V51H31Z"></path></g></svg>