<svg xmlns="http://www.w3.org/2000/svg" viewBox="0 0 64 64" x="0px" y="0px"><g data-name="Inheritance Law"><path d="M60.615,43.9a4.027,4.027,0,0,0-5.465-1.464L46.634,47.35A4,4,0,0,0,43,45H31.162l-3.69-1.23A14.977,14.977,0,0,0,22.729,43h-.851a15,15,0,0,0-7.718,2.138L12.723,46H12a1,1,0,0,0-1-1H3a1,1,0,0,0-1,1V60a1,1,0,0,0,1,1h8a1,1,0,0,0,1-1h7.531a6.986,6.986,0,0,1,.818.048l11.921,1.4a14.717,14.717,0,0,0,1.729.1,15.1,15.1,0,0,0,7.523-2.008L59.15,49.366a3.962,3.962,0,0,0,2-3.466A4.03,4.03,0,0,0,60.615,43.9ZM10,59H4V47h6ZM58.15,47.634,40.522,57.812A13.1,13.1,0,0,1,32.5,59.464l-11.921-1.4A9.026,9.026,0,0,0,19.531,58H12V48h1a1,1,0,0,0,.515-.143l1.674-1A13,13,0,0,1,21.878,45h.851a12.993,12.993,0,0,1,4.11.667l3.845,1.282A1,1,0,0,0,31,47H43a2,2,0,0,1,0,4H28v2H43a3.992,3.992,0,0,0,3.952-3.525l9.194-5.306a2,2,0,0,1,3,1.731A1.983,1.983,0,0,1,58.15,47.634Z"></path><path d="M17,41H47a3,3,0,0,0,0-6h0V24A11.006,11.006,0,0,0,36.8,13.041a2.942,2.942,0,0,0-1.315-3.63L38.868,3.5A1,1,0,0,0,38,2H26a1,1,0,0,0-.868,1.5l3.38,5.915a2.942,2.942,0,0,0-1.315,3.63A11.006,11.006,0,0,0,17,24V35a3,3,0,0,0,0,6ZM29,12a1,1,0,0,1,1-1h4a1,1,0,0,1,0,2H30A1,1,0,0,1,29,12Zm7.276-8L33.42,9H30.58L27.724,4ZM17,37a2,2,0,0,0,2-2V24a9.01,9.01,0,0,1,9-9h8a9.01,9.01,0,0,1,9,9V35a2,2,0,0,0,2,2,1,1,0,0,1,0,2H17a1,1,0,0,1,0-2Z"></path><path d="M32,30a1,1,0,0,1-1-1H29a3,3,0,0,0,2,2.816V34h2V31.816A2.993,2.993,0,0,0,32,26a1,1,0,1,1,1-1h2a3,3,0,0,0-2-2.816V20H31v2.184A2.993,2.993,0,0,0,32,28a1,1,0,0,1,0,2Z"></path><rect x="37" y="27" width="2" height="2"></rect><rect x="25" y="27" width="2" height="2"></rect></g></svg>