<svg xmlns="http://www.w3.org/2000/svg" viewBox="0 0 64 64" x="0px" y="0px"><g data-name="Cactus"><path d="M48,60V40H16V60Zm-4-7h2v2H44Zm0,3h2v2H44Zm-3,0h2v2H41Z"></path><rect x="14" y="36" width="36" height="2"></rect><path d="M15,24a22.028,22.028,0,0,0,2.4,10H36.585c.066-.128.133-.256.2-.386.086-.178.172-.357.254-.537.1-.225.2-.453.292-.681.076-.184.152-.367.223-.553.088-.232.169-.466.25-.7.064-.186.129-.372.188-.56.075-.24.141-.481.208-.723.052-.188.106-.374.153-.563.061-.249.113-.5.167-.752.038-.184.081-.367.115-.552.049-.264.086-.53.125-.8.026-.175.057-.349.079-.525.036-.3.059-.593.084-.89.011-.148.03-.294.039-.442.027-.446.042-.892.042-1.34a21.629,21.629,0,0,0-1.29-7.418A22.131,22.131,0,0,0,28,4.972V32H26V4.955A22.147,22.147,0,0,0,15,24Z"></path><path d="M40.919,25.862c-.025.316-.052.632-.089.947-.021.177-.047.352-.072.528-.041.291-.085.58-.137.869-.032.182-.067.363-.1.544-.058.284-.121.568-.189.85-.042.176-.084.352-.13.527-.078.3-.164.589-.254.881-.047.156-.091.313-.142.467-.12.37-.252.735-.391,1.1-.028.073-.052.148-.08.221q-.24.611-.513,1.206h8.112a15.971,15.971,0,0,0,.125-19.384L43.111,26.18l-1.892-.647,3.937-11.544a15.913,15.913,0,0,0-5.328,2.6c.078.239.135.484.206.725.078.265.159.53.227.8.1.383.176.771.254,1.159.052.256.11.509.153.767.073.434.122.873.17,1.312.024.219.059.434.077.654.054.661.085,1.328.085,2,0,.469-.017.938-.044,1.406C40.947,25.558,40.931,25.71,40.919,25.862Z"></path></g></svg>