<svg xmlns="http://www.w3.org/2000/svg" viewBox="0 0 64 64" x="0px" y="0px"><g><rect x="35" y="52" width="2" height="2"></rect><rect x="39" y="52" width="2" height="2"></rect><rect x="19" y="52" width="2" height="2"></rect><rect x="23" y="52" width="2" height="2"></rect><rect x="27" y="52" width="2" height="2"></rect><rect x="31" y="52" width="2" height="2"></rect><rect x="21" y="10" width="2" height="28"></rect><rect x="25" y="10" width="2" height="28"></rect><rect x="29" y="10" width="2" height="28"></rect><rect x="33" y="10" width="2" height="28"></rect><rect x="37" y="10" width="2" height="28"></rect><rect x="21" y="40" width="2" height="2"></rect><rect x="21" y="44" width="2" height="2"></rect><rect x="25" y="44" width="2" height="2"></rect><rect x="25" y="40" width="2" height="2"></rect><rect x="29" y="40" width="2" height="2"></rect><rect x="29" y="44" width="2" height="2"></rect><rect x="33" y="44" width="2" height="2"></rect><rect x="37" y="44" width="2" height="2"></rect><rect x="37" y="40" width="2" height="2"></rect><rect x="33" y="40" width="2" height="2"></rect><path d="M45,60V49a1.355,1.355,0,0,0-.02-.2L43,38.9V8h1a1,1,0,0,0,1-1V3a1,1,0,0,0-1-1H16a1,1,0,0,0-1,1V7a1,1,0,0,0,1,1h1V38.9l-1.98,9.9A1.355,1.355,0,0,0,15,49V60H11v2H49V60ZM17,4H43V6H17ZM41.02,39.2,42.78,48H17.22l1.76-8.8A1.355,1.355,0,0,0,19,39V8H41V39A1.355,1.355,0,0,0,41.02,39.2ZM34,60H26V58h8Zm9,0H36V58a2.006,2.006,0,0,0-2-2H26a2.006,2.006,0,0,0-2,2v2H17V50H43Z"></path></g></svg>