<svg xmlns="http://www.w3.org/2000/svg" viewBox="0 0 64 64" x="0px" y="0px"><g data-name="Coding-Smartphone-Software Developer-Programming-Code"><path d="M46,2H18a6.006,6.006,0,0,0-6,6V56a6.006,6.006,0,0,0,6,6H46a6.006,6.006,0,0,0,6-6V8A6.006,6.006,0,0,0,46,2Zm4,54a4,4,0,0,1-4,4H18a4,4,0,0,1-4-4V8a4,4,0,0,1,4-4H46a4,4,0,0,1,4,4Z"></path><path d="M34,52H30a3,3,0,0,0,0,6h4a3,3,0,0,0,0-6Zm0,4H30a1,1,0,0,1,0-2h4a1,1,0,0,1,0,2Z"></path><rect x="25" y="6" width="2" height="2"></rect><rect x="29" y="6" width="6" height="2"></rect><path d="M27.293,24.707l1.414-1.414L26.414,21l2.293-2.293-1.414-1.414-3,3a1,1,0,0,0,0,1.414Z"></path><path d="M36.707,17.293l-1.414,1.414L37.586,21l-2.293,2.293,1.414,1.414,3-3a1,1,0,0,0,0-1.414Z"></path><rect x="28.838" y="20" width="6.325" height="1.999" transform="translate(1.958 44.717) rotate(-71.565)"></rect><rect x="24" y="28" width="4" height="2"></rect><rect x="30" y="28" width="10" height="2"></rect><rect x="26" y="32" width="6" height="2"></rect><rect x="34" y="32" width="6" height="2"></rect><rect x="24" y="36" width="4" height="2"></rect><rect x="30" y="36" width="8" height="2"></rect><rect x="26" y="40" width="8" height="2"></rect><rect x="36" y="40" width="4" height="2"></rect></g></svg>