<svg xmlns="http://www.w3.org/2000/svg" viewBox="0 0 64 64" x="0px" y="0px"><title>Conveyor-Machine-Manufacture-Industry</title><g><path d="M6.75,45.732,5.25,44.41A12.974,12.974,0,0,0,2,53H4A10.983,10.983,0,0,1,6.75,45.732Z"></path><path d="M2.181,55.165a12.862,12.862,0,0,0,.562,2.17l1.885-.67a10.867,10.867,0,0,1-.475-1.83Z"></path><rect x="47" y="40" width="2" height="2"></rect><path d="M51,40v2a11.028,11.028,0,0,1,9.585,5.608l1.742-.984A13.034,13.034,0,0,0,51,40Z"></path><path d="M51,50a3,3,0,1,0,3,3A3,3,0,0,0,51,50Zm1,4H50V52h2Z"></path><path d="M51,46H15a7,7,0,0,0,0,14H51a7,7,0,0,0,0-14ZM15,58a5,5,0,1,1,5-5A5.006,5.006,0,0,1,15,58Zm12,0a5,5,0,1,1,5-5A5.006,5.006,0,0,1,27,58Zm12,0a5,5,0,1,1,5-5A5.006,5.006,0,0,1,39,58Zm12,0a5,5,0,1,1,5-5A5.006,5.006,0,0,1,51,58Z"></path><path d="M19,24H43V10H35v3a1,1,0,0,1-1.555.832L31,12.2l-2.445,1.63A1,1,0,0,1,27,13V10H19Z"></path><path d="M27,50a3,3,0,1,0,3,3A3,3,0,0,0,27,50Zm1,4H26V52h2Z"></path><path d="M39,50a3,3,0,1,0,3,3A3,3,0,0,0,39,50Zm1,4H38V52h2Z"></path><rect x="19" y="6" width="8" height="2"></rect><path d="M15,50a3,3,0,1,0,3,3A3,3,0,0,0,15,50Zm1,4H14V52h2Z"></path><rect x="35" y="6" width="8" height="2"></rect><rect x="35" y="26" width="8" height="2"></rect><path d="M19,44H43V30H35v3a1,1,0,0,1-1.555.832L31,32.2l-2.445,1.63A1,1,0,0,1,27,33V30H19Z"></path><path d="M30.445,30.168a1,1,0,0,1,1.11,0L33,31.132V26H29v5.132Z"></path><path d="M30.445,10.168a1,1,0,0,1,1.11,0L33,11.132V6H29v5.132Z"></path><rect x="19" y="26" width="8" height="2"></rect></g></svg>