<svg xmlns="http://www.w3.org/2000/svg" viewBox="0 0 64 64" x="0px" y="0px"><g><path d="M59,11a3,3,0,0,0-3,3V34H42a3.986,3.986,0,0,0-1.907,7.494L45.03,61.243A1,1,0,0,0,46,62H61a1,1,0,0,0,1-1V14A3,3,0,0,0,59,11ZM42,36H57a1,1,0,0,0,1-1V14a1,1,0,0,1,2,0V40H42a2,2,0,0,1,0-4Zm4.781,24-4.5-18H60V60Z"></path><path d="M31,56H29V30H47a3,3,0,0,0,0-6h-.184A2.966,2.966,0,0,0,47,23a3,3,0,0,0-3-3H31.5L27.265,8.362a3.088,3.088,0,0,0-3.591-1.99,3,3,0,0,0-2.086,3.935L26.572,24H15.46a6.009,6.009,0,0,0,1.2-2.024A3,3,0,1,0,17,16H6a1,1,0,0,0-1,1v3a5.969,5.969,0,0,0,1.54,4H5a3,3,0,0,0,0,6H23V56H21a3,3,0,0,0,0,6H31a3,3,0,0,0,0-6ZM28.461,23.342,23.467,9.623a1,1,0,0,1,.7-1.313.8.8,0,0,1,.206-.025,1.132,1.132,0,0,1,1.013.761l4.475,12.3A1,1,0,0,0,30.8,22H44a1,1,0,0,1,0,2H29.4A1,1,0,0,1,28.461,23.342ZM18,19a1,1,0,0,1-1,1V18A1,1,0,0,1,18,19ZM7,20V18h8v2a4,4,0,0,1-8,0ZM4,27a1,1,0,0,1,1-1H47a1,1,0,0,1,0,2H5A1,1,0,0,1,4,27Zm21,3h2V56H25Zm6,30H21a1,1,0,0,1,0-2H31a1,1,0,0,1,0,2Z"></path><path d="M5.5,12h3a.5.5,0,0,1,.5.5V14h2V12.5A2.5,2.5,0,0,0,8.5,10h-3a.5.5,0,0,1,0-1h1A2.5,2.5,0,0,0,9,6.5V5H7V6.5a.5.5,0,0,1-.5.5h-1a2.5,2.5,0,0,0,0,5Z"></path><path d="M13.5,11a.5.5,0,0,1,.5.5V14h2V11.5A2.5,2.5,0,0,0,13.5,9a.5.5,0,0,1,0-1h1A2.5,2.5,0,0,0,17,5.5V4H15V5.5a.5.5,0,0,1-.5.5h-1a2.5,2.5,0,0,0,0,5Z"></path></g></svg>