<svg xmlns="http://www.w3.org/2000/svg" viewBox="0 0 64 64" x="0px" y="0px"><g data-name="Algorithm-Smartphone-Programming-Programming Language"><rect x="30.879" y="26.879" width="2.243" height="2.243" transform="translate(-10.426 30.828) rotate(-45)"></rect><path d="M31,31.414,28.586,29H23v1h2a1,1,0,0,1,1,1v4a1,1,0,0,1-1,1H23v4h5V39a1,1,0,0,1,1-1h2Z"></path><rect x="20" y="32" width="4" height="2"></rect><rect x="29" y="18" width="6" height="2"></rect><path d="M34,54H30a1,1,0,0,0,0,2h4a1,1,0,0,0,0-2Z"></path><rect x="40" y="32" width="4" height="2"></rect><path d="M50,8a4,4,0,0,0-4-4H18a4,4,0,0,0-4,4V56a4,4,0,0,0,4,4H46a4,4,0,0,0,4-4ZM29,6h6V8H29ZM25,6h2V8H25Zm9,52H30a3,3,0,0,1,0-6h4a3,3,0,0,1,0,6ZM46,35a1,1,0,0,1-1,1H43v5a1,1,0,0,1-1,1H36v1a1,1,0,0,1-1,1H29a1,1,0,0,1-1-1V42H22a1,1,0,0,1-1-1V36H19a1,1,0,0,1-1-1V31a1,1,0,0,1,1-1h2V28a1,1,0,0,1,1-1h6.586L31,24.586V22H28a1,1,0,0,1-1-1V17a1,1,0,0,1,1-1h8a1,1,0,0,1,1,1v4a1,1,0,0,1-1,1H33v2.586L35.414,27H42a1,1,0,0,1,1,1v2h2a1,1,0,0,1,1,1Z"></path><rect x="30" y="40" width="4" height="2"></rect><path d="M38,35V31a1,1,0,0,1,1-1h2V29H35.414L33,31.414V38h2a1,1,0,0,1,1,1v1h5V36H39A1,1,0,0,1,38,35Z"></path></g></svg>