<svg xmlns="http://www.w3.org/2000/svg" viewBox="0 0 64 64" x="0px" y="0px"><g data-name="Phone-Call Center"><path d="M49,2H44a3.006,3.006,0,0,0-2.829,2H35a5.006,5.006,0,0,0-5,5v9H29a1,1,0,0,0-.447.105L26,19.382V19a1,1,0,0,0-1-1H17a1,1,0,0,0-1,1v2H3a1,1,0,0,0-1,1V36a1,1,0,0,0,1,1H16v1a1,1,0,0,0,1,1h8a1,1,0,0,0,1-1h4V49a5.006,5.006,0,0,0,5,5h2v1a1,1,0,0,1-1,1H14a3,3,0,0,0,0,6H50V60H14a1,1,0,0,1,0-2H36a3,3,0,0,0,3-3V54h2.171A3.006,3.006,0,0,0,44,56h5a1,1,0,0,0,1-1V41a1,1,0,0,0-1-1H44a3.006,3.006,0,0,0-2.829,2H40V38h2a3,3,0,0,0,3-3V23a3,3,0,0,0-3-3H40.816A3,3,0,0,0,40,18.78V16h1.171A3.006,3.006,0,0,0,44,18h5a1,1,0,0,0,1-1V3A1,1,0,0,0,49,2ZM4,35V23H16V35Zm14,2V20h6V37Zm8-1V21.618L29.236,20H38a1,1,0,0,1,0,2H34a1,1,0,0,0-1,1,5.006,5.006,0,0,1-5,5v2a6.956,6.956,0,0,0,2-.3V36Zm8.78-11c-.042.047-.081.1-.12.146.023-.071.041-.144.062-.216C34.742,24.953,34.76,24.977,34.78,25ZM36,31a1,1,0,0,1,1-1h6v2H37A1,1,0,0,1,36,31Zm7-3H37a1,1,0,0,1,0-2h6Zm5,26H47V42h1ZM39,44h3a1,1,0,0,0,1-1,1,1,0,0,1,1-1h1V54H44a1,1,0,0,1-1-1,1,1,0,0,0-1-1H35a3,3,0,0,1-3-3V28.736a7.048,7.048,0,0,0,2.05-2.228A2.849,2.849,0,0,0,34.78,29a2.954,2.954,0,0,0,0,4A2.987,2.987,0,0,0,37,38h1v5A1,1,0,0,0,39,44Zm4-9a1,1,0,0,1-1,1H37a1,1,0,0,1,0-2h6Zm0-12v1H38a3,3,0,0,0,2.816-2H42A1,1,0,0,1,43,23Zm0-8a1,1,0,0,0-1-1H39a1,1,0,0,0-1,1v3H32V9a3,3,0,0,1,3-3h7a1,1,0,0,0,1-1,1,1,0,0,1,1-1h1V16H44A1,1,0,0,1,43,15Zm5,1H47V4h1Z"></path><rect x="52" y="47" width="2" height="2"></rect><rect x="52" y="43" width="2" height="2"></rect><rect x="52" y="51" width="2" height="2"></rect><rect x="52" y="9" width="2" height="2"></rect><rect x="52" y="5" width="2" height="2"></rect><rect x="52" y="13" width="2" height="2"></rect><rect x="52" y="60" width="2" height="2"></rect><rect x="56" y="60" width="2" height="2"></rect><rect x="60" y="60" width="2" height="2"></rect><rect x="15" y="6" width="12" height="2"></rect><rect x="11" y="6" width="2" height="2"></rect><rect x="19" y="12" width="8" height="2"></rect><rect x="15" y="12" width="2" height="2"></rect><rect x="15" y="43" width="12" height="2"></rect><rect x="11" y="43" width="2" height="2"></rect><rect x="19" y="49" width="8" height="2"></rect><rect x="15" y="49" width="2" height="2"></rect></g></svg>