<svg xmlns="http://www.w3.org/2000/svg" viewBox="0 0 64 64" x="0px" y="0px"><g><path d="M17,31a6,6,0,1,0,6,6A6.006,6.006,0,0,0,17,31Zm0,10a4,4,0,1,1,4-4A4,4,0,0,1,17,41Z"></path><path d="M52,15H50a1,1,0,0,1-1-1H47a3,3,0,0,0,3,3v1h2V17a3,3,0,0,0,0-6H50a1,1,0,0,1,0-2h2a1,1,0,0,1,1,1h2a3,3,0,0,0-3-3V6H50V7a3,3,0,0,0,0,6h2a1,1,0,0,1,0,2Z"></path><path d="M60.95,25.26a1.03,1.03,0,0,0-.71-.49l-1.87-.29A7.019,7.019,0,0,0,52,26.8V21.95A10,10,0,1,0,41,12H4a1,1,0,0,0-1,1V61a1,1,0,0,0,1,1H57a3.009,3.009,0,0,0,3-3V57a2.974,2.974,0,0,0-.78-2A2.974,2.974,0,0,0,60,53V51a2.974,2.974,0,0,0-.78-2A2.974,2.974,0,0,0,60,47V45a2.974,2.974,0,0,0-.78-2A2.974,2.974,0,0,0,60,41V39a3.009,3.009,0,0,0-3-3H52V32.17l.71.11a6.559,6.559,0,0,0,1.08.09,7.057,7.057,0,0,0,6.55-4.49l.67-1.76A1,1,0,0,0,60.95,25.26ZM5,14h5.92A7,7,0,0,1,5,19.92ZM5,60V54.08A7,7,0,0,1,10.92,60Zm24,0H23.08A7,7,0,0,1,29,54.08Zm0-7.94A9.013,9.013,0,0,0,21.06,60H12.94A9.013,9.013,0,0,0,5,52.06V21.94A9.013,9.013,0,0,0,12.94,14h8.12A9.013,9.013,0,0,0,29,21.94Zm0-32.14A7,7,0,0,1,23.08,14H29Zm14-1.95a10.024,10.024,0,0,0,2,2.01v4.43a6.331,6.331,0,0,0-1.37.07l-.63.09ZM49.39,29.6l.23.61-.64.1a5.033,5.033,0,0,1-5.45-3.15l-.23-.61.64-.1A5.033,5.033,0,0,1,49.39,29.6ZM47,24.79V21.16a10.063,10.063,0,0,0,3,.79V26.8A7.113,7.113,0,0,0,47,24.79Zm3,7.38V36H47V32.25a6.989,6.989,0,0,0,1.21.12,6.559,6.559,0,0,0,1.08-.09ZM39,14h2V25.43a.965.965,0,0,0-.01.69l.01.03V30H39Zm-4,0h2V30H35Zm-4,0h2V30H31Zm2,46H31V44h2Zm4,0H35V44h2Zm4,0H39V44h2Zm1.18-18H31V32H45v4a3.009,3.009,0,0,0-3,3v2A3,3,0,0,0,42.18,42ZM58,59a1,1,0,0,1-1,1H45a1,1,0,0,1-1-1V57a1,1,0,0,1,1-1h1v2h2V56h2v2h2V56h2v2h2V56h1a1,1,0,0,1,1,1Zm0-6a1,1,0,0,1-1,1H45a1,1,0,0,1-1-1V51a1,1,0,0,1,1-1h1v2h2V50h2v2h2V50h2v2h2V50h1a1,1,0,0,1,1,1Zm0-6a1,1,0,0,1-1,1H45a1,1,0,0,1-1-1V45a1,1,0,0,1,1-1h1v2h2V44h2v2h2V44h2v2h2V44h1a1,1,0,0,1,1,1Zm-4-9v2h2V38h1a1,1,0,0,1,1,1v2a1,1,0,0,1-1,1H45a1,1,0,0,1-1-1V39a1,1,0,0,1,1-1h1v2h2V38h2v2h2V38ZM51,20a8,8,0,1,1,8-8A8.011,8.011,0,0,1,51,20Zm7.47,7.16a5.033,5.033,0,0,1-5.45,3.15l-.64-.1.23-.61a5.039,5.039,0,0,1,5.45-3.15l.64.1Z"></path></g></svg>