<svg xmlns="http://www.w3.org/2000/svg" viewBox="0 0 64 64" x="0px" y="0px"><g data-name="Power Button-Smartphone-Application-Reset"><path d="M46,2H18a6,6,0,0,0-6,6V56a6,6,0,0,0,6,6H46a6,6,0,0,0,6-6V8A6,6,0,0,0,46,2Zm4,54a4,4,0,0,1-4,4H18a4,4,0,0,1-4-4V54H50Zm0-4H14V12H50Zm0-42H14V8a4,4,0,0,1,4-4H46a4,4,0,0,1,4,4Z"></path><rect x="25" y="6" width="2" height="2"></rect><rect x="29" y="6" width="6" height="2"></rect><rect x="31" y="56" width="2" height="2"></rect><path d="M32,38a6,6,0,0,0,3.6-10.8,1,1,0,1,0-1.2,1.6,4,4,0,1,1-4.8,0,1,1,0,1,0-1.2-1.6A6,6,0,0,0,32,38Z"></path><path d="M32,32a1,1,0,0,0,1-1V25a1,1,0,0,0-2,0v6A1,1,0,0,0,32,32Z"></path><path d="M32,45A13,13,0,1,0,19,32,13.015,13.015,0,0,0,32,45Zm0-24A11,11,0,1,1,21,32,11.013,11.013,0,0,1,32,21Z"></path></g></svg>