<svg xmlns="http://www.w3.org/2000/svg" viewBox="0 0 64 64" x="0px" y="0px"><g><path d="M61.9,54.553,56,42.764V11a3,3,0,0,0-3-3H40v2H53a1,1,0,0,1,1,1V42H10V11a1,1,0,0,1,1-1H24V8H11a3,3,0,0,0-3,3V42.764L2.105,54.553A1,1,0,0,0,2,55v5a2,2,0,0,0,2,2H60a2,2,0,0,0,2-2V55A1,1,0,0,0,61.9,54.553ZM54.382,44l5,10H4.618l5-10ZM29,56h6v1H29ZM4,60V56H27v1a2,2,0,0,0,2,2h6a2,2,0,0,0,2-2V56H60v4Z"></path><rect x="10" y="50" width="2" height="2"></rect><rect x="14" y="50" width="2" height="2"></rect><rect x="18" y="50" width="28" height="2"></rect><rect x="48" y="50" width="2" height="2"></rect><rect x="52" y="50" width="2" height="2"></rect><rect x="15" y="46" width="2" height="2"></rect><rect x="11" y="46" width="2" height="2"></rect><rect x="19" y="46" width="2" height="2"></rect><rect x="23" y="46" width="2" height="2"></rect><rect x="27" y="46" width="2" height="2"></rect><rect x="31" y="46" width="2" height="2"></rect><rect x="35" y="46" width="2" height="2"></rect><rect x="39" y="46" width="2" height="2"></rect><rect x="43" y="46" width="2" height="2"></rect><rect x="47" y="46" width="2" height="2"></rect><rect x="51" y="46" width="2" height="2"></rect><path d="M22,14V12H13a1,1,0,0,0-1,1V39a1,1,0,0,0,1,1H51a1,1,0,0,0,1-1V13a1,1,0,0,0-1-1H42v2h8V38H14V14Z"></path><path d="M24,19a2.972,2.972,0,0,0,.573,1.749L22.7,22H22a5.006,5.006,0,0,0-5,5v.184A3,3,0,0,0,15,30h2a1,1,0,0,1,2,0h2a3,3,0,0,0-2-2.816V27a3,3,0,0,1,3-3v7a1,1,0,0,0,.105.447l2,4A1,1,0,0,0,25,36H39a1,1,0,0,0,.9-.553l2-4A1,1,0,0,0,42,31V24a3,3,0,0,1,3,3v.184A3,3,0,0,0,43,30h2a1,1,0,0,1,2,0h2a3,3,0,0,0-2-2.816V27a5.006,5.006,0,0,0-5-5h-.7l-1.876-1.251A2.972,2.972,0,0,0,40,19V13a3,3,0,0,0-3-3H33V7.816a3,3,0,1,0-2,0V10H27a3,3,0,0,0-3,3ZM32,4a1,1,0,1,1-1,1A1,1,0,0,1,32,4Zm6.382,30H25.618l-1-2H39.382Zm-10.24-4a3.981,3.981,0,0,1,7.716,0ZM40,30H37.91a5.993,5.993,0,0,0-11.82,0H24V23.535L26.3,22H37.7L40,23.535ZM34,20H30V19h4Zm-8-7a1,1,0,0,1,1-1H37a1,1,0,0,1,1,1v6a1,1,0,0,1-1,1H36V18a1,1,0,0,0-1-1H29a1,1,0,0,0-1,1v2H27a1,1,0,0,1-1-1Z"></path><rect x="28" y="14" width="2" height="2"></rect><rect x="34" y="14" width="2" height="2"></rect><rect x="58" y="30" width="2" height="2"></rect><rect x="4" y="30" width="2" height="2"></rect><rect x="4" y="24" width="2" height="2"></rect><rect x="4" y="18" width="2" height="2"></rect><rect x="58" y="24" width="2" height="2"></rect><rect x="58" y="18" width="2" height="2"></rect><rect x="57" y="5" width="2" height="2"></rect><rect x="5" y="5" width="2" height="2"></rect></g></svg>