<svg xmlns="http://www.w3.org/2000/svg" viewBox="0 0 64 64" x="0px" y="0px"><g><rect x="19" y="42" width="2" height="2"></rect><path d="M11,26H35V12H11Zm20-4h2v2H31Zm-4,0h2v2H27Zm-4,0h2v2H23Z"></path><rect x="19" y="34" width="2" height="2"></rect><rect x="19" y="50" width="2" height="2"></rect><rect x="27" y="50" width="2" height="2"></rect><path d="M60,35H37V51H60ZM46,49a6,6,0,1,1,6-6A6.006,6.006,0,0,1,46,49Zm12,0H55V47h1V46h2Zm0-9H56V39H55V37h3Z"></path><rect x="27" y="34" width="2" height="2"></rect><rect x="27" y="42" width="2" height="2"></rect><rect x="11" y="34" width="2" height="2"></rect><rect x="11" y="42" width="2" height="2"></rect><circle cx="46" cy="43" r="4"></circle><rect x="11" y="50" width="2" height="2"></rect><path d="M41,33V8H5V60H41V53H37v1H35V32h2v1ZM15,54H9V48h6Zm0-8H9V40h6Zm0-8H9V32h6Zm8,16H17V48h6Zm0-8H17V40h6Zm0-8H17V32h6Zm8,16H25V48h6Zm0-8H25V40h6Zm0-8H25V32h6ZM9,28V10H37V28Z"></path><rect x="4" y="4" width="38" height="2"></rect></g></svg>