<svg xmlns="http://www.w3.org/2000/svg" viewBox="0 0 64 64" x="0px" y="0px"><g data-name="Coffee Machine"><path d="M46.4,24h2a1.178,1.178,0,0,1,.381-.875,3.166,3.166,0,0,0,0-4.25A1.178,1.178,0,0,1,48.4,18h-2a3.1,3.1,0,0,0,.819,2.125,1.2,1.2,0,0,1,0,1.75A3.1,3.1,0,0,0,46.4,24Z"></path><path d="M50.4,24h2a1.178,1.178,0,0,1,.381-.875,3.166,3.166,0,0,0,0-4.25A1.178,1.178,0,0,1,52.4,18h-2a3.1,3.1,0,0,0,.819,2.125,1.2,1.2,0,0,1,0,1.75A3.1,3.1,0,0,0,50.4,24Z"></path><path d="M46,31a3,3,0,0,0,3,3h2a3,3,0,0,0,3-3V28H46Z"></path><rect x="9" y="32" width="28" height="2"></rect><rect x="4" y="36" width="56" height="4"></rect><polygon points="27 14 27 12 19 12 19 14 21 14 25 14 27 14"></polygon><path d="M9,10H37V4H9ZM33,6h2V8H33ZM29,6h2V8H29ZM19,6h8V8H19ZM15,6h2V8H15ZM11,6h2V8H11Z"></path><path d="M57,60V42H7V60ZM9,45a1,1,0,0,1,1-1H54a1,1,0,0,1,1,1V57a1,1,0,0,1-1,1H10a1,1,0,0,1-1-1Z"></path><rect x="11" y="46" width="42" height="10"></rect><rect x="22" y="16" width="2" height="2"></rect><path d="M11,12V30h7.026A4.948,4.948,0,0,1,17,27V23a1,1,0,0,1,1-1H30.5a2.5,2.5,0,0,1,0,5H29a4.948,4.948,0,0,1-1.026,3H35V12H29v2a2,2,0,0,1-2,2H26v3a1,1,0,0,1-1,1H21a1,1,0,0,1-1-1V16H19a2,2,0,0,1-2-2V12Z"></path><path d="M22,30h2a3,3,0,0,0,3-3V24H19v3A3,3,0,0,0,22,30Z"></path><path d="M31,24.5a.5.5,0,0,0-.5-.5H29v1h1.5A.5.5,0,0,0,31,24.5Z"></path><path d="M57.5,33H56V31h1.5a.5.5,0,0,0,0-1H56V28h1.5a2.5,2.5,0,0,1,0,5Z"></path></g></svg>