<svg xmlns="http://www.w3.org/2000/svg" viewBox="0 0 64 64" x="0px" y="0px"><g><path d="M55,50H51a1,1,0,0,0,0,2h4a1,1,0,0,0,0-2Z"></path><rect x="34" y="40" width="2" height="4"></rect><path d="M47,60V58H31a3,3,0,0,1-3-3V37a3,3,0,0,1,3-3H52.694A22.52,22.52,0,0,0,55,24a20,20,0,0,0-40,0,1,1,0,0,1-.219.624L8.081,33,12,33a1,1,0,0,1,1,1V45a3,3,0,0,0,3,3h6a1,1,0,0,1,1,1V60ZM35,10A10,10,0,1,1,25,20,10.011,10.011,0,0,1,35,10Z"></path><rect x="38" y="40" width="2" height="4"></rect><path d="M35,28a8,8,0,1,0-8-8A8.009,8.009,0,0,0,35,28Zm1-7H34a3,3,0,0,1,0-6V14h2v1a3,3,0,0,1,3,3H37a1,1,0,0,0-1-1H34a1,1,0,0,0,0,2h2a3,3,0,0,1,0,6v1H34V25a3,3,0,0,1-3-3h2a1,1,0,0,0,1,1h2a1,1,0,0,0,0-2Z"></path><path d="M60,55V37a1,1,0,0,0-1-1H31a1,1,0,0,0-1,1V55a1,1,0,0,0,1,1H59A1,1,0,0,0,60,55ZM52,39h2v2H52Zm-4,0h2v2H48Zm-4,0h2v2H44ZM32,40a2,2,0,0,1,2-2h6a2,2,0,0,1,2,2v4a2,2,0,0,1-2,2H34a2,2,0,0,1-2-2Zm10,8v2H40V48Zm-4,0v2H36V48Zm-6,0h2v2H32Zm14,5H32V51H46Zm0-3H44V48h2Zm9,4H51a3,3,0,0,1,0-6h4a3,3,0,0,1,0,6Zm3-9H44V43H58Zm0-4H56V39h2Z"></path></g></svg>