<svg xmlns="http://www.w3.org/2000/svg" viewBox="0 0 64 64" x="0px" y="0px"><g><polygon points="60 55.586 60 26.798 42.237 37.823 60 55.586"></polygon><path d="M14,30.651,32,41.823l12-7.448V11a4.948,4.948,0,0,1,1.026-3H17a3,3,0,0,0-3,3ZM40,34H22V32H40ZM22,30V28H34v2Zm18,0H36V28h4Zm0-4H26V24H40ZM30,22V20h4v2Zm10,0H36V20h4ZM24,12H40v2H24Zm-6,0h4v2H18Zm0,4H40v2H18Zm0,4H28v2H18Zm0,4h6v2H18Zm0,4h2v2H18Z"></path><polygon points="12 17.414 5.414 24 12 24 12 17.414"></polygon><polygon points="4 55.586 21.763 37.823 4 26.798 4 55.586"></polygon><polygon points="12 26 6.507 26 12 29.409 12 26"></polygon><path d="M4,59a1,1,0,0,0,1,1H59a1,1,0,0,0,1-1v-.586L40.492,38.906,32.527,43.85a1,1,0,0,1-1.054,0l-7.965-4.944L4,58.414Z"></path><path d="M60,16V4H22V6H49a4.995,4.995,0,0,1,5,5v5a3,3,0,0,0,6,0Z"></path><polygon points="46 33.134 57.493 26 46 26 46 33.134"></polygon><polygon points="46 21 46 24 58.586 24 55.586 21 46 21"></polygon><path d="M51.118,8.872A3,3,0,0,0,46,11v8h7a4.973,4.973,0,0,1-1-3V11A3.018,3.018,0,0,0,51.118,8.872Z"></path></g></svg>