<svg xmlns="http://www.w3.org/2000/svg" viewBox="0 0 64 64" x="0px" y="0px"><g><path d="M59,2H11A3,3,0,0,0,8,5V52H3a1,1,0,0,0-1,1v6a3,3,0,0,0,3,3H51a3,3,0,0,0,3-3V50H52v9a1,1,0,0,1-1,1H47a1,1,0,0,1-1-1V53a1,1,0,0,0-1-1H10V5a1,1,0,0,1,1-1h3v9a1,1,0,0,0,1.707.707L18,11.414l2.293,2.293A1,1,0,0,0,21,14a.987.987,0,0,0,.383-.076A1,1,0,0,0,22,13V4H52.184A2.966,2.966,0,0,0,52,5V36h2V14h7a1,1,0,0,0,1-1V5A3,3,0,0,0,59,2ZM44.171,60H5a1,1,0,0,1-1-1V54H44v5A3,3,0,0,0,44.171,60ZM20,10.586,18.707,9.293a1,1,0,0,0-1.414,0L16,10.586V4h4ZM60,12H54V5a1,1,0,0,1,1-1h4a1,1,0,0,1,1,1Z"></path><path d="M55,38H24a1.006,1.006,0,0,0-.555.168L20.7,40H18a3,3,0,0,0,0,6h2.7l2.748,1.832A1.006,1.006,0,0,0,24,48H55a5,5,0,0,0,0-10ZM26,44H47V42H26V40H49v6H26Zm25-4h1v6H51ZM17,43a1,1,0,0,1,1-1h2v2H18A1,1,0,0,1,17,43Zm5,1.465v-2.93L24,40.2v5.6ZM55,46H54V40h1a3,3,0,0,1,0,6Z"></path><rect x="14" y="16" width="4" height="2"></rect><rect x="20" y="16" width="28" height="2"></rect><rect x="14" y="22" width="24" height="2"></rect><rect x="40" y="22" width="8" height="2"></rect><rect x="14" y="28" width="34" height="2"></rect><rect x="14" y="34" width="10" height="2"></rect><rect x="26" y="34" width="22" height="2"></rect></g></svg>