<svg xmlns="http://www.w3.org/2000/svg" viewBox="0 0 64 64" x="0px" y="0px"><g><path d="M32,32.67a.965.965,0,0,0-.193-.591L29.2,28.6A1,1,0,0,1,29,28V26H9v2a1,1,0,0,1-.2.6L6.2,32.07a.967.967,0,0,0-.2.6V36H32Z"></path><polygon points="7 20 7 24 31 24 31 20 28 20 28 22 26 22 26 20 24 20 24 22 22 22 22 20 20 20 20 22 18 22 18 20 16 20 16 22 14 22 14 20 12 20 12 22 10 22 10 20 7 20"></polygon><path d="M7,60H31a1,1,0,0,0,1-1V54H6v5A1,1,0,0,0,7,60Z"></path><rect x="6" y="38" width="26" height="14"></rect><path d="M41,60H53V54H41Zm9-5h2v4H50Zm-4,0h2v4H46Zm-4,0h2v4H42Z"></path><path d="M55.115,51.06,55.839,39H38.161l.724,12.06a1,1,0,0,0,1,.94H54.116A1,1,0,0,0,55.115,51.06Z"></path><polygon points="57.578 10 36.422 10 37.081 21 56.919 21 57.578 10"></polygon><polygon points="37.201 23 38.041 37 55.959 37 56.799 23 37.201 23"></polygon><polygon points="57.938 4 56 4 56 7 54 7 54 4 52 4 52 7 50 7 50 4 48 4 48 7 46 7 46 4 44 4 44 7 42 7 42 4 40 4 40 7 38 7 38 4 36.062 4 36.302 8 57.698 8 57.938 4"></polygon></g></svg>