<svg xmlns="http://www.w3.org/2000/svg" viewBox="0 0 64 64" x="0px" y="0px"><g><path d="M44,44V41a1,1,0,0,1,1-1V32a1,1,0,0,1-1-1V28H32v3a1,1,0,0,1-1,1v8a1,1,0,0,1,1,1v3Zm-5-7H37a3,3,0,0,1,0-6V30h2v1a3,3,0,0,1,3,3H40a1,1,0,0,0-1-1H37a1,1,0,0,0,0,2h2a3,3,0,0,1,0,6v1H37V41a3,3,0,0,1-3-3h2a1,1,0,0,0,1,1h2a1,1,0,0,0,0-2Z"></path><rect x="47" y="32" width="2" height="8"></rect><rect x="26" y="42" width="4" height="2"></rect><rect x="46" y="42" width="4" height="2"></rect><circle cx="38" cy="22" r="1"></circle><path d="M53,22.735,38,18.048,23,22.735V26H53ZM38,25a3,3,0,1,1,3-3A3,3,0,0,1,38,25Z"></path><rect x="46" y="28" width="4" height="2"></rect><path d="M57.586,10,53,5.414V9a1,1,0,0,0,1,1Z"></path><path d="M18,60H58a1,1,0,0,0,1-1V12H54a3,3,0,0,1-3-3V4H18a1,1,0,0,0-1,1V59A1,1,0,0,0,18,60ZM25,8h6v2H25ZM21,8h2v2H21Zm0,4H31v2H21Zm0,33a1,1,0,0,1,1-1h2V41a1,1,0,0,1,1-1V32a1,1,0,0,1-1-1V28H22a1,1,0,0,1-1-1V22a1,1,0,0,1,.7-.954l16-5a.993.993,0,0,1,.6,0l16,5A1,1,0,0,1,55,22v5a1,1,0,0,1-1,1H52v3a1,1,0,0,1-1,1v8a1,1,0,0,1,1,1v3h2a1,1,0,0,1,1,1v4a1,1,0,0,1-1,1H22a1,1,0,0,1-1-1Z"></path><rect x="23" y="46" width="30" height="2"></rect><rect x="26" y="28" width="4" height="2"></rect><rect x="27" y="32" width="2" height="8"></rect><polygon points="5.202 42 6.535 44 9.465 44 10.798 42 5.202 42"></polygon><polygon points="11 23 5 23 5 40 7 40 7 25 9 25 9 40 11 40 11 23"></polygon><path d="M9,46H7v2a1,1,0,0,0,2,0Z"></path><path d="M11,17a3,3,0,0,0-6,0v1h6Z"></path><rect x="5" y="20" width="6" height="1"></rect></g></svg>