<svg xmlns="http://www.w3.org/2000/svg" viewBox="0 0 64 64" x="0px" y="0px"><g data-name="Online Report"><path d="M20,30V22.062A8,8,0,1,0,28.938,31H21A1,1,0,0,1,20,30Z"></path><path d="M25,19.062V26h6.938A8.019,8.019,0,0,0,25,19.062Z"></path><path d="M6,45H58V15a1,1,0,0,0-1-1H7a1,1,0,0,0-1,1ZM23,18a1,1,0,0,1,1-1A10.011,10.011,0,0,1,34,27a1,1,0,0,1-1,1H24a1,1,0,0,1-1-1Zm-1,3v8h8a1,1,0,0,1,1,1A10,10,0,1,1,21,20,1,1,0,0,1,22,21ZM8,17a1,1,0,0,1,1-1H21v2H10V41H54V18H31V16H55a1,1,0,0,1,1,1V42a1,1,0,0,1-1,1H9a1,1,0,0,1-1-1ZM51,27v2H37V27ZM37,25V23h4v2Zm6,0V23h8v2Zm8,6v2H41V31ZM39,31v2H37V31Z"></path><path d="M4,47v2a1,1,0,0,0,1,1H59a1,1,0,0,0,1-1V47H37a1,1,0,0,1-1,1H28a1,1,0,0,1-1-1H4Z"></path></g></svg>