<svg xmlns="http://www.w3.org/2000/svg" viewBox="0 0 64 64" x="0px" y="0px"><g data-name="Garbage-Bin-Recycle Bin-Recycling-Bottle"><path d="M51,20H45.6l.97-1.67a1.122,1.122,0,0,0,.13-.44l.11-2L48.2,13.5a1.01,1.01,0,0,0-.37-1.37l-3.46-2A1,1,0,0,0,43,10.5l-1.38,2.39L39.95,14a1.009,1.009,0,0,0-.32.33l-1.26,2.18L38,15.76V13a1,1,0,0,0-1-1H35.19A6.035,6.035,0,0,0,31,9.08V8a1,1,0,0,0,1-1V4a2.006,2.006,0,0,0-2-2H26a2.006,2.006,0,0,0-2,2V7a1,1,0,0,0,1,1V9.08a6.014,6.014,0,0,0-3.25,1.68,5.953,5.953,0,0,0-1.46,2.41l-.96-1.67a1,1,0,0,0-1.37-.37l-3.46,2a1.01,1.01,0,0,0-.37,1.37l1.39,2.39.11,2a1.173,1.173,0,0,0,.13.44l.39.67H13a1,1,0,0,0-1,1v4a1,1,0,0,0,1,1h2.05L17,61.06A1.006,1.006,0,0,0,18,62H46a1.006,1.006,0,0,0,1-.94L48.95,26H51a1,1,0,0,0,1-1V21A1,1,0,0,0,51,20Zm-12-.57,2.25-3.89,1.67-1.11a1.009,1.009,0,0,0,.32-.33l1-1.73,1.72,1-1,1.73a1.122,1.122,0,0,0-.13.44l-.11,2L43.29,20H39Zm-6-1.19.89-1.79A1,1,0,0,0,34,16V14h2v2a1,1,0,0,0,.11.45L37,18.24V20H33ZM26,4h4V6H26Zm-2.84,8.17A4.045,4.045,0,0,1,26,11a1,1,0,0,0,1-1V8h2v2a1,1,0,0,0,1,1,3.98,3.98,0,0,1,2.7,1.06A.99.99,0,0,0,32,13v2.76l-.89,1.79A1,1,0,0,0,31,18v2H25.4l-2.7-4.67a.921.921,0,0,0-.32-.33l-.36-.24A4,4,0,0,1,23.16,12.17Zm-5.07,1.2,1,1.73a1.009,1.009,0,0,0,.32.33l1.67,1.11L23.09,20H18.46l-.85-1.46-.11-2a1.122,1.122,0,0,0-.13-.44l-1-1.73ZM45.05,60H18.95L17.06,26H46.94ZM50,24H14V22H50Z"></path><path d="M32,34.887l2.9,4.644L33.3,39.189l-.416,1.957,3.912.833A1.066,1.066,0,0,0,37,42a1,1,0,0,0,.978-.792l.832-3.912-1.957-.416-.318,1.491-3.688-5.9a1.04,1.04,0,0,0-1.7,0l-3.125,5,1.7,1.06Z"></path><path d="M40.2,48H34.414l1.293-1.293-1.414-1.414-3,3a1,1,0,0,0,0,1.414l3,3,1.414-1.414L34.414,50H42a1,1,0,0,0,.848-1.53l-3.125-5-1.7,1.06Z"></path><path d="M22,50h7V48H23.805l2.731-4.371.318,1.491,1.957-.416-.832-3.912a1,1,0,0,0-1.187-.771l-3.912.833.416,1.957,1.607-.342-3.751,6A1,1,0,0,0,22,50Z"></path></g></svg>