<svg xmlns="http://www.w3.org/2000/svg" viewBox="0 0 64 64" x="0px" y="0px"><g data-name="Map"><path d="M57,2H7A5.006,5.006,0,0,0,2,7V45a5.006,5.006,0,0,0,5,5H23.867l-.75,6H21a3,3,0,0,0,0,6H43a3,3,0,0,0,0-6H40.883l-.75-6H57a5.006,5.006,0,0,0,5-5V7A5.006,5.006,0,0,0,57,2Zm3,5V24H21V4H57A3,3,0,0,1,60,7ZM17,8V4h2V25a1,1,0,0,0,1,1H60v6H39a1,1,0,0,0-1,1v7H32V33a1,1,0,0,0-1-1H20a1,1,0,0,0-1,1v7H13V33a1,1,0,0,0-1-1H4V26h8a1,1,0,0,0,1-1V4h2V8ZM60,34v6H40V34ZM30,40H21V34h9ZM11,40H4V34h7ZM7,4h4V24H4V7A3,3,0,0,1,7,4ZM44,59a1,1,0,0,1-1,1H21a1,1,0,0,1,0-2H43A1,1,0,0,1,44,59Zm-5.133-3H25.133l.75-6H38.117ZM57,48H7a3,3,0,0,1-3-3V42H60v3A3,3,0,0,1,57,48Z"></path><rect x="54" y="44" width="2" height="2"></rect><rect x="7" y="28" width="4" height="2"></rect><rect x="15" y="20" width="2" height="4"></rect><rect x="15" y="12" width="2" height="4"></rect><rect x="15" y="34" width="2" height="4"></rect><rect x="21" y="28" width="4" height="2"></rect><rect x="29" y="28" width="4" height="2"></rect><rect x="37" y="28" width="4" height="2"></rect><rect x="34" y="34" width="2" height="4"></rect><rect x="45" y="28" width="4" height="2"></rect><rect x="53" y="28" width="4" height="2"></rect><path d="M40,16a3,3,0,1,0-3-3A3,3,0,0,0,40,16Zm0-4a1,1,0,1,1-1,1A1,1,0,0,1,40,12Z"></path><path d="M39.384,21.788a1,1,0,0,0,1.232,0C41.269,21.278,47,16.7,47,13a7,7,0,0,0-14,0C33,16.7,38.731,21.278,39.384,21.788ZM40,8a5.006,5.006,0,0,1,5,5c0,1.869-2.851,4.9-5,6.711C37.851,17.9,35,14.869,35,13A5.006,5.006,0,0,1,40,8Z"></path></g></svg>