<svg xmlns="http://www.w3.org/2000/svg" viewBox="0 0 64 64" x="0px" y="0px"><g><path d="M30,42v2a1,1,0,0,0,1,1H47V41L31,41A1,1,0,0,0,30,42Z"></path><path d="M33,39h2V5a1,1,0,0,0-2,0Z"></path><path d="M47,47,32,47a1,1,0,0,0-1,1v2a1,1,0,0,0,1,1H47Z"></path><path d="M28,34V25a1,1,0,0,0-1-1H23V34a1,1,0,0,1-1,1H17V59a1,1,0,0,0,1,1H41a1,1,0,0,0,1-1H34a3,3,0,0,1-3-3V54a2.989,2.989,0,0,1,.059-.587c.013-.065.038-.124.055-.187a3.006,3.006,0,0,1,.1-.331c-.087-.024-.169-.061-.252-.092-.054-.02-.11-.036-.162-.059a2.955,2.955,0,0,1-.47-.255l-.028-.022a3,3,0,0,1-.384-.318c-.043-.041-.079-.086-.119-.13a2.892,2.892,0,0,1-.228-.277c-.04-.054-.075-.11-.11-.168a2.845,2.845,0,0,1-.165-.3c-.029-.061-.057-.121-.081-.184a3.046,3.046,0,0,1-.111-.355c-.015-.058-.033-.114-.044-.173A2.954,2.954,0,0,1,29,50V48a2.97,2.97,0,0,1,.092-.7c.017-.069.041-.134.062-.2a2.977,2.977,0,0,1,.185-.452c.019-.037.027-.08.047-.116-.009-.006-.016-.015-.026-.021a3.04,3.04,0,0,1-.513-.426c-.037-.039-.067-.084-.1-.125a3,3,0,0,1-.3-.413c-.039-.063-.072-.128-.106-.2a2.889,2.889,0,0,1-.182-.449c-.021-.067-.046-.131-.062-.2A2.93,2.93,0,0,1,28,44V42a3,3,0,0,1,3-3V35H29.931A8.008,8.008,0,0,1,22,42V40A6.006,6.006,0,0,0,28,34Z"></path><path d="M15,58V35H4V58ZM9,37h2v2H9Zm0,4h2v2H9Z"></path><path d="M33,54v2a1,1,0,0,0,1,1H45V53L34,53A1,1,0,0,0,33,54Z"></path><path d="M37,25H59.382l-4.277-8.553a1,1,0,0,1,0-.894L59.382,7H37Zm10-8a2.993,2.993,0,0,1-1-5.816V10h2v1.184A3,3,0,0,1,50,14H48a1,1,0,1,0-1,1,2.993,2.993,0,0,1,1,5.816V22H46V20.816A3,3,0,0,1,44,18h2a1,1,0,1,0,1-1Z"></path><path d="M60,38V36a1,1,0,0,0-1-1H37v4H59A1,1,0,0,0,60,38Z"></path></g></svg>