<svg xmlns="http://www.w3.org/2000/svg" viewBox="0 0 64 64" x="0px" y="0px"><g><path d="M55,19H39.13A9.943,9.943,0,0,1,33,21.95v3.88a7,7,0,0,1,7.64-2.9l3.87,1.03a1,1,0,0,1,.7,1.23l-1.03,3.86a7,7,0,0,1-6.75,5.19A7.187,7.187,0,0,1,35.6,34L33,33.3V36h8a3.009,3.009,0,0,1,3,3,2.979,2.979,0,0,1-2.15,2.86L39.98,51.2A1,1,0,0,1,39,52H25a1,1,0,0,1-.98-.8l-1.87-9.34A2.979,2.979,0,0,1,20,39a3.009,3.009,0,0,1,3-3h8V33.3l-2.6.7a7.187,7.187,0,0,1-1.83.24,7,7,0,0,1-6.75-5.19l-1.03-3.86a1,1,0,0,1,.7-1.23l3.87-1.03A7.006,7.006,0,0,1,31,25.82V21.95A9.943,9.943,0,0,1,24.87,19H9a1,1,0,0,0-1,1V54H56V20A1,1,0,0,0,55,19ZM16,45H14V43h2Zm0-4H14V39h2Zm0-4H14V35h2Zm0-4H14V31h2ZM50,45H48V43h2Zm0-4H48V39h2Zm0-4H48V35h2Zm0-4H48V31h2Z"></path><path d="M32,20a8,8,0,1,0-8-8A8.009,8.009,0,0,0,32,20Zm1-7H31a3,3,0,0,1,0-6V6h2V7a3,3,0,0,1,3,3H34a1,1,0,0,0-1-1H31a1,1,0,0,0,0,2h2a3,3,0,0,1,0,6v1H31V17a3,3,0,0,1-3-3h2a1,1,0,0,0,1,1h2a1,1,0,0,0,0-2Z"></path><polygon points="38.181 50 39.78 42 24.22 42 25.819 50 38.181 50"></polygon><path d="M42,39a1,1,0,0,0-1-1H23a1,1,0,0,0,0,2H41A1,1,0,0,0,42,39Z"></path><path d="M4,59a1,1,0,0,0,1,1H59a1,1,0,0,0,1-1V56H38v1a2,2,0,0,1-2,2H28a2,2,0,0,1-2-2V56H4Z"></path><path d="M23.875,24.859l-2.9.777.776,2.9a5,5,0,0,0,6.124,3.535l2.9-.776L30,28.4A5.009,5.009,0,0,0,23.875,24.859Z"></path><path d="M39.917,31.57a4.97,4.97,0,0,0,2.329-3.036l.776-2.9-2.9-.777A5,5,0,0,0,34,28.4l-.776,2.9,2.9.776A4.977,4.977,0,0,0,39.917,31.57Z"></path><rect x="28" y="56" width="8" height="1"></rect></g></svg>