<svg xmlns="http://www.w3.org/2000/svg" viewBox="0 0 64 64" x="0px" y="0px"><g data-name="Breakdown"><rect x="32.626" y="37.178" width="4" height="2" transform="translate(-8.701 10.263) rotate(-15)"></rect><rect x="18.137" y="41.061" width="4" height="2" transform="translate(-10.2 6.645) rotate(-15)"></rect><rect x="16.447" y="54.205" width="2" height="2" transform="translate(-13.693 6.397) rotate(-15)"></rect><rect x="45.425" y="46.44" width="2" height="2" transform="translate(-10.696 13.632) rotate(-15)"></rect><path d="M59.528,10.3A.938.938,0,0,1,59,9.42v-1.6a3,3,0,1,0-2,0v1.6a2.916,2.916,0,0,0,1.764,2.731A2,2,0,1,1,56,14H54a3.95,3.95,0,0,0,3,3.857V36.679l-1.2-4.49a2.98,2.98,0,0,0-3.188-2.21l-8.488.823,6.6-11.43,1.531-.411-.517-1.932-1.932.518a1,1,0,0,0-.607.466L42.028,30.428,32.915,22.42a2.989,2.989,0,0,0-2.757-.644L13.949,26.119a3.01,3.01,0,0,0-2.118,2.108L8.608,40.044,3.233,42.23a3,3,0,0,0-1.768,3.556L4.373,56.637a2.991,2.991,0,0,0,3.673,2.121l2.98-.8A6.988,6.988,0,0,0,24.39,54.379L40,50.2a6.992,6.992,0,0,0,6.415,4.246,7.026,7.026,0,0,0,6.074-3.5,6.938,6.938,0,0,0,.882-4.326l2.974-.8A3.01,3.01,0,0,0,57,45.546V47a1.006,1.006,0,0,1-1,1H54v2h2a3.008,3.008,0,0,0,3-3V17.863a3.993,3.993,0,0,0,.528-7.561ZM58,4a1,1,0,1,1-1,1A1,1,0,0,1,58,4ZM54.2,33.968l.518,1.931-3.864,1.036L50.339,35Zm-28.22-4.862,1.565,5.84L16.274,38l.765-6.5Zm1.932-.518L34.8,26.742l5.421,4.765L29.478,34.422ZM18.741,60.034a5,5,0,1,1,3.536-6.124A5.006,5.006,0,0,1,18.741,60.034ZM15.635,48.443A7.005,7.005,0,0,0,10.5,56.03l-2.976.8A1,1,0,0,1,6.3,56.12l-.259-.966,2.9-.777-.517-1.932-2.9.777L3.4,45.268a1,1,0,0,1,.59-1.185l5.833-2.372a1,1,0,0,0,.588-.663L13.76,28.754a1.006,1.006,0,0,1,.706-.7l16.21-4.343a.992.992,0,0,1,.918.214L33,25.156,16.521,29.571a1.993,1.993,0,0,0-1.473,1.821l-.766,6.452a1.973,1.973,0,0,0,.745,1.637,2.006,2.006,0,0,0,1.764.37l11.263-3.018,3.623,13.523-7.8,2.091A7,7,0,0,0,15.635,48.443Zm35.12,1.5a5,5,0,1,1-5.624-7.33,5.049,5.049,0,0,1,1.3-.172,5,5,0,0,1,4.321,7.5Zm5.678-6.52a1,1,0,0,1-.608.466l-2.974.8a6.991,6.991,0,0,0-13.37,3.582l-5.872,1.574L29.985,36.315l12.478-3.343,10.339-1a1,1,0,0,1,.6.142l-3.579.959a2,2,0,0,0-1.414,2.45l.517,1.932a2,2,0,0,0,2.45,1.414l3.863-1.036.518,1.932-2.9.777.518,1.932,2.9-.777.259.966A1,1,0,0,1,56.433,43.42Z"></path><path d="M39.3,20h2a1.36,1.36,0,0,1,.465-1.021,3.322,3.322,0,0,0,0-4.62,1.358,1.358,0,0,1,0-2.048A3.29,3.29,0,0,0,42.7,10h-2a1.362,1.362,0,0,1-.466,1.024,3.326,3.326,0,0,0,0,4.622,1.356,1.356,0,0,1,0,2.045A3.28,3.28,0,0,0,39.3,20Z"></path><path d="M45.3,18h2a1.36,1.36,0,0,1,.465-1.021,3.322,3.322,0,0,0,0-4.62,1.358,1.358,0,0,1,0-2.048A3.29,3.29,0,0,0,48.7,8h-2a1.362,1.362,0,0,1-.466,1.024,3.326,3.326,0,0,0,0,4.622,1.356,1.356,0,0,1,0,2.045A3.28,3.28,0,0,0,45.3,18Z"></path></g></svg>