<svg xmlns="http://www.w3.org/2000/svg" viewBox="0 0 64 64" x="0px" y="0px"><g data-name="Sofa"><polygon points="52 51 52 47 49.387 47 50.721 51 52 51"></polygon><polygon points="13.279 51 14.612 47 12 47 12 51 13.279 51"></polygon><path d="M60,44V25a2,2,0,0,0-4,0V45h3A1,1,0,0,0,60,44Z"></path><rect x="10" y="41" width="44" height="4"></rect><path d="M54,36a3,3,0,0,0-3-3H13a3,3,0,0,0-3,3v3H54Z"></path><path d="M5,45H8V25a2,2,0,0,0-4,0V44A1,1,0,0,0,5,45Z"></path><path d="M54,18a5.006,5.006,0,0,0-5-5H15a5.006,5.006,0,0,0-5,5V32.026A4.948,4.948,0,0,1,13,31H51a4.948,4.948,0,0,1,3,1.026ZM22,22H21v1H19V22H18V20h1V19h2v1h1Zm8,0H29v1H27V22H26V20h1V19h2v1h1Zm8,0H37v1H35V22H34V20h1V19h2v1h1Zm8,0H45v1H43V22H42V20h1V19h2v1h1Z"></path></g></svg>