<svg xmlns="http://www.w3.org/2000/svg" viewBox="0 0 64 64" x="0px" y="0px"><g><circle cx="59" cy="9" r="2"></circle><circle cx="53" cy="14" r="2"></circle><circle cx="11" cy="14" r="2"></circle><circle cx="5" cy="9" r="2"></circle><path d="M43,49a2,2,0,0,0,0-4H31a1,1,0,0,1-.316-.051l-3.845-1.282A13,13,0,0,0,22.728,43h-.85a13,13,0,0,0-6.689,1.853l-1.674,1A1,1,0,0,1,13,46H12V56h7.531a9.026,9.026,0,0,1,1.052.062l11.92,1.4a13.078,13.078,0,0,0,8.019-1.652L58.15,45.634a1.981,1.981,0,0,0,1-1.734,2,2,0,0,0-3-1.731l-9.193,5.306A3.992,3.992,0,0,1,43,51H28V49Z"></path><rect x="4" y="45" width="6" height="12"></rect><rect x="58" y="14" width="2" height="6"></rect><rect x="58" y="22" width="2" height="2"></rect><rect x="52" y="19" width="2" height="6"></rect><rect x="52" y="27" width="2" height="2"></rect><rect x="4" y="14" width="2" height="6"></rect><rect x="4" y="22" width="2" height="2"></rect><rect x="10" y="19" width="2" height="6"></rect><rect x="10" y="27" width="2" height="2"></rect><path d="M45,35V22.9a4.962,4.962,0,0,1-5-1.93,4.954,4.954,0,0,1-8,0,4.954,4.954,0,0,1-8,0,4.962,4.962,0,0,1-5,1.93V35h2V26a1,1,0,0,1,1-1h6a1,1,0,0,1,1,1v9ZM31,26a1,1,0,0,1,1-1H42a1,1,0,0,1,1,1v6a1,1,0,0,1-1,1H32a1,1,0,0,1-1-1Z"></path><rect x="33" y="27" width="8" height="4"></rect><rect x="23" y="27" width="4" height="8"></rect><path d="M47,18V14H17v4a3,3,0,0,0,6,0h2a3,3,0,0,0,6,0h2a3,3,0,0,0,6,0h2a3,3,0,0,0,6,0Z"></path><polygon points="20.58 7 17.723 12 46.277 12 43.42 7 20.58 7"></polygon></g></svg>