<svg xmlns="http://www.w3.org/2000/svg" viewBox="0 0 64 64" x="0px" y="0px"><g data-name="Calculator"><path d="M59,20H48V7a5.006,5.006,0,0,0-5-5H7A5.006,5.006,0,0,0,2,7V57a5.006,5.006,0,0,0,5,5H59a3,3,0,0,0,3-3V23A3,3,0,0,0,59,20ZM40,4v6.586L38.707,9.293a1,1,0,0,0-1.414,0L36,10.586V4ZM4,57V7A3,3,0,0,1,7,4H34v9a1,1,0,0,0,1.707.707L38,11.414l2.293,2.293A1,1,0,0,0,41,14a.987.987,0,0,0,.383-.076A1,1,0,0,0,42,13V4h1a3,3,0,0,1,3,3V20H33a3,3,0,0,0-3,3V59a2.966,2.966,0,0,0,.184,1H7A3,3,0,0,1,4,57Zm56,2a1,1,0,0,1-1,1H33a1,1,0,0,1-1-1V23a1,1,0,0,1,1-1H59a1,1,0,0,1,1,1Z"></path><path d="M46,30a1,1,0,0,1,1,1h2a3,3,0,0,0-2-2.816V27H45v1.184A2.993,2.993,0,0,0,46,34a1,1,0,1,1-1,1H43a3,3,0,0,0,2,2.816V39h2V37.816A2.993,2.993,0,0,0,46,32a1,1,0,0,1,0-2Z"></path><path d="M17,14a1,1,0,0,1,1,1h2a3,3,0,0,0-2-2.816V11H16v1.184A2.993,2.993,0,0,0,17,18a1,1,0,1,1-1,1H14a3,3,0,0,0,2,2.816V23h2V21.816A2.993,2.993,0,0,0,17,16a1,1,0,0,1,0-2Z"></path><path d="M56,24H36a2,2,0,0,0-2,2V40a2,2,0,0,0,2,2H56a2,2,0,0,0,2-2V26A2,2,0,0,0,56,24ZM36,40V26H56V40Z"></path><path d="M57,44H35a1,1,0,0,0-1,1V57a1,1,0,0,0,1,1H57a1,1,0,0,0,1-1V45A1,1,0,0,0,57,44ZM48,56H43V52h5Zm0-6H43V46h5Zm-7-4v4H36V46Zm-5,6h5v4H36Zm20,4H50V46h6Z"></path><rect x="8" y="30" width="6" height="2"></rect><rect x="16" y="30" width="10" height="2"></rect><rect x="8" y="34" width="18" height="2"></rect><rect x="8" y="38" width="12" height="2"></rect><rect x="22" y="38" width="4" height="2"></rect><path d="M17,8a9,9,0,1,0,9,9A9.01,9.01,0,0,0,17,8Zm0,16a7,7,0,1,1,7-7A7.008,7.008,0,0,1,17,24Z"></path><rect x="8" y="44" width="18" height="2"></rect><rect x="8" y="48" width="18" height="2"></rect><rect x="8" y="52" width="18" height="2"></rect></g></svg>