<svg xmlns="http://www.w3.org/2000/svg" viewBox="0 0 64 64" x="0px" y="0px"><g><path d="M62,41a4,4,0,0,0-4-4H55V34.677l4.371-1.748A1,1,0,0,0,60,32V24a1,1,0,0,0-.445-.832L57,21.465V11a1,1,0,0,0-.553-.895L53,8.382V6a1,1,0,0,0-.4-.8l-4-3A1,1,0,0,0,48,2H44a1,1,0,0,0-.6.2L40,4.75,36.6,2.2A1,1,0,0,0,36,2H32a1,1,0,0,0-.6.2l-4,3A1,1,0,0,0,27,6V8.382l-3.447,1.723A1,1,0,0,0,23,11v9.279l-2.316.772A1,1,0,0,0,20,22V32a1,1,0,0,0,.629.929L25,34.677V37H22a4,4,0,0,0-3.858,3H14V39a2,2,0,0,0-2-2H3a1,1,0,0,0-1,1v6a1,1,0,0,0,1,1h9a2,2,0,0,0,2-2V42h4.142A4,4,0,0,0,21,44.858V61a1,1,0,0,0,1,1H58a1,1,0,0,0,1-1V44.858A4,4,0,0,0,62,41ZM12,43H4V39h8ZM44.333,4h3.334L51,6.5V8.586L48.586,11h-.77a3,3,0,1,0,0,2H49a1,1,0,0,0,.707-.293l2.49-2.49,2.8,1.4v9.968L53.586,23h-.968l-.462-.923A2.994,2.994,0,1,0,50,23a2.9,2.9,0,0,0,.363-.037l.742,1.484A1,1,0,0,0,52,25h2a1,1,0,0,0,.707-.293l1.42-1.42L58,24.535v6.788L54.483,32.73,53.9,31.553A1,1,0,0,0,53,31H51v2h1.382L53,34.236V37H41.666L44.6,34.8A1,1,0,0,0,45,34V32H43v1.5L41,35V22h1.614L44,23.386v3.557a1,1,0,0,0,.293.708l.766.766A3,3,0,1,0,48,26a2.967,2.967,0,0,0-1.862.667L46,26.529V22.972a1,1,0,0,0-.293-.707l-1.972-1.972A1,1,0,0,0,43.028,20H41V6.5ZM46,12a1,1,0,1,1-1-1A1,1,0,0,1,46,12Zm4,9a1,1,0,1,1,1-1A1,1,0,0,1,50,21Zm-3,8a1,1,0,1,1,1,1A1,1,0,0,1,47,29ZM27,34.3,28.535,32h.649a3,3,0,1,0,0-2H28a1,1,0,0,0-.832.445l-1.55,2.325L22,31.323v-8.6l1.73-.577,1.563,1.563A1,1,0,0,0,26,24h2a1,1,0,0,0,.895-.553l.742-1.484A2.9,2.9,0,0,0,30,22a3.015,3.015,0,1,0-2.156-.923L27.382,22h-.968L25,20.586V11.618l2.8-1.4,2.49,2.49A1,1,0,0,0,31,13h1.184a3,3,0,1,0,0-2h-.77L29,8.586V6.5L32.333,4h3.334L39,6.5V18H36.972a1,1,0,0,0-.707.293l-1.972,1.972a1,1,0,0,0-.293.707v3.557l-.722.721,1.414,1.415,1.015-1.014A1,1,0,0,0,36,24.943V21.386L37.386,20H39V37H37.664L37,36.5V35H35v2H27ZM31,31a1,1,0,1,1,1,1A1,1,0,0,1,31,31ZM29,19a1,1,0,1,1,1,1A1,1,0,0,1,29,19Zm5-7a1,1,0,1,1,1,1A1,1,0,0,1,34,12ZM23,49.414,24.586,51,23,52.586Zm0,9.172V55.414l3-3L31.586,58l-2,2H24.414ZM27.414,51,33,45.414,38.586,51,33,56.586ZM33,59.414l.586.586H32.414ZM34.414,58,40,52.414,45.586,58l-2,2H36.414Zm7-7L47,45.414,52.586,51,47,56.586ZM47,59.414l.586.586H46.414ZM48.414,58,54,52.414l3,3v3.172L55.586,60H50.414Zm7-7L57,49.414v3.172ZM57,46.586l-3,3L49.414,45H57Zm-17,3L35.414,45h9.172Zm-14,0-3-3V45h7.586ZM58,43H22a2,2,0,0,1,0-4H58a2,2,0,0,1,0,4Z"></path></g></svg>