<svg xmlns="http://www.w3.org/2000/svg" viewBox="0 0 64 64" x="0px" y="0px"><title>Presentaion plan</title><g data-name="Presentaion plan"><path d="M18,14H10v8h8Zm-2,6H12V16h4Z"></path><path d="M18,24H10v8h8Zm-2,6H12V26h4Z"></path><path d="M18,34H10v8h8Zm-2,6H12V36h4Z"></path><rect x="22" y="15" width="32" height="2"></rect><rect x="28" y="19" width="26" height="2"></rect><rect x="26" y="25" width="28" height="2"></rect><rect x="22" y="29" width="32" height="2"></rect><rect x="22" y="35" width="32" height="2"></rect><rect x="28" y="39" width="20" height="2"></rect><rect x="22" y="19" width="4" height="2"></rect><rect x="22" y="25" width="2" height="2"></rect><rect x="22" y="39" width="4" height="2"></rect><rect x="50" y="39" width="4" height="2"></rect><path d="M62,12V6H36V2H28V6H2v6H4V44H2v6H28v6H21v6H43V56H36V50H62V44H60V12ZM30,4h4V6H30ZM4,8H60v2H4ZM41,58v2H23V58Zm-7-2H30V50h4Zm26-8H4V46H60Zm-2-4H6V12H58Z"></path></g></svg>