<svg xmlns="http://www.w3.org/2000/svg" viewBox="0 0 64 64" x="0px" y="0px"><g data-name="Sleeping-Sleep-Time Management-Time-Rest"><path d="M31,25a7,7,0,0,0,14,0V19a1,1,0,0,0-1-1H32a1,1,0,0,0-1,1Zm9.133-4.5a1.042,1.042,0,0,0,1.734,0l1.731,1a3,3,0,0,1-5.2,0Zm-.149,5.751,1.323,1.5a5,5,0,0,1-6.614,0l1.323-1.5A3.076,3.076,0,0,0,39.984,26.25ZM34.133,20.5a1.042,1.042,0,0,0,1.734,0l1.731,1a3,3,0,0,1-5.2,0Z"></path><path d="M45,16.18V14H42.9a4.84,4.84,0,0,1-.93,2H44A3,3,0,0,1,45,16.18Z"></path><path d="M38,16a3.009,3.009,0,0,0,3-3V11H34a3.009,3.009,0,0,0-3,3v2.18A3,3,0,0,1,32,16Z"></path><path d="M10,48H8.059a8.956,8.956,0,0,0,1.916,4.611l1.368-1.368,1.414,1.414-1.368,1.368A8.956,8.956,0,0,0,16,55.941V54h2v1.941a8.956,8.956,0,0,0,4.611-1.916l-1.368-1.368,1.414-1.414,1.368,1.368A8.956,8.956,0,0,0,25.941,48H24V46h1.941a8.956,8.956,0,0,0-1.916-4.611l-1.368,1.368-1.414-1.414,1.368-1.368A8.956,8.956,0,0,0,18,38.059V40H16V38.059a8.956,8.956,0,0,0-4.611,1.916l1.368,1.368-1.414,1.414L9.975,41.389A8.956,8.956,0,0,0,8.059,46H10Zm6-1.414V42h2v5a1,1,0,0,1-.293.707l-2,2-1.414-1.414Z"></path><path d="M16,32.05c.33-.02.66-.05,1-.05a14.858,14.858,0,0,1,8.96,3H34V33.05A9.008,9.008,0,0,1,29,25a3,3,0,0,1,0-6V14a5,5,0,0,1,5-5h8a1,1,0,0,1,1,1v2h3a1,1,0,0,1,1,1v6a3,3,0,0,1,0,6,9.008,9.008,0,0,1-5,8.05V35H57a3.009,3.009,0,0,0,3-3V8a3.009,3.009,0,0,0-3-3H19a3.009,3.009,0,0,0-3,3ZM52.293,11.293,54.586,9H53V7h4a1,1,0,0,1,.707,1.707L55.414,11H58v2H53a1,1,0,0,1-.707-1.707Zm-1,8L53.586,17H52V15h4a1,1,0,0,1,.707,1.707L54.414,19H57v2H52a1,1,0,0,1-.707-1.707ZM24.924,15.617a1,1,0,0,1-.217,1.09L22.414,19H25v2H20a1,1,0,0,1-.707-1.707L21.586,17H20V15h4A1,1,0,0,1,24.924,15.617Zm-6.631-4.324L20.586,9H19V7h4a1,1,0,0,1,.707,1.707L21.414,11H24v2H19a1,1,0,0,1-.707-1.707Z"></path><path d="M17,60A13,13,0,1,0,4,47,13.012,13.012,0,0,0,17,60Zm0-24A11,11,0,1,1,6,47,11.013,11.013,0,0,1,17,36Z"></path><path d="M36,33.77V36a2,2,0,0,0,4,0V33.77a8.811,8.811,0,0,1-4,0Z"></path><path d="M60,49V45a1,1,0,0,0-1-1H31.7a15.15,15.15,0,0,1,0,6H59A1,1,0,0,0,60,49Z"></path><path d="M29,23V21a1,1,0,0,0,0,2Z"></path><path d="M57,52H31.12a15.039,15.039,0,0,1-6.67,8H57Z"></path><path d="M47,21v2a1,1,0,0,0,0-2Z"></path><path d="M51.26,42a6.911,6.911,0,0,0-3.58-2.72l-5.92-1.97a3.973,3.973,0,0,1-7.52,0l-4.66,1.55A14.764,14.764,0,0,1,31.12,42Z"></path></g></svg>