<svg xmlns="http://www.w3.org/2000/svg" viewBox="0 0 64 64" x="0px" y="0px"><g><path d="M37.68,40.29,28,37.26v-.68a4.991,4.991,0,0,0,6.22-1.9A5.058,5.058,0,0,0,36,35a5,5,0,0,0,5-5,4.9,4.9,0,0,0-.33-1.79A4.989,4.989,0,0,0,38,19V17A15,15,0,1,0,8,17v2a4.989,4.989,0,0,0-2.67,9.21A4.9,4.9,0,0,0,5,30a5,5,0,0,0,5,5,5.058,5.058,0,0,0,1.78-.32A4.991,4.991,0,0,0,18,36.58v.68L8.32,40.29A8.959,8.959,0,0,0,2,48.88V61a1,1,0,0,0,1,1H43a1,1,0,0,0,1-1V48.88A8.959,8.959,0,0,0,37.68,40.29ZM23,33a9.014,9.014,0,0,1-9-9V17.97a19.161,19.161,0,0,0,11.31-4.31A9.468,9.468,0,0,0,32,16.96V24A9.014,9.014,0,0,1,23,33ZM21.72,47h2.56l2.25,6.76a4.5,4.5,0,0,0-.57.63c-.31.39-.36.41-.46.41s-.15-.02-.46-.42a2.353,2.353,0,0,0-4.08,0c-.31.4-.36.42-.46.42s-.15-.02-.46-.41a4.5,4.5,0,0,0-.57-.63ZM20,43a2.006,2.006,0,0,1,2-2h2a2,2,0,0,1,0,4H22A2.006,2.006,0,0,1,20,43Zm6-5c0,.25-1.06,1-3,1s-3-.75-3-1V34.57a10.68,10.68,0,0,0,6,0ZM36,17v3.15a1.014,1.014,0,0,0,.4.8.97.97,0,0,0,.87.16A2.876,2.876,0,0,1,38,21a3.009,3.009,0,0,1,3,3,2.968,2.968,0,0,1-2.02,2.81,1.035,1.035,0,0,0-.62.64.99.99,0,0,0,.13.88A2.964,2.964,0,0,1,39,30a3.009,3.009,0,0,1-3,3,2.911,2.911,0,0,1-1.67-.51,1,1,0,0,0-1.5.5A3.007,3.007,0,0,1,30,35a2.963,2.963,0,0,1-2-.79v-.42A11.014,11.014,0,0,0,34,24V16a1,1,0,0,0-1-1,7.75,7.75,0,0,1-6.22-2.71c.15-.16.29-.31.42-.47a15.167,15.167,0,0,0,3.13-5.54A12.975,12.975,0,0,1,36,17ZM16,35a3.007,3.007,0,0,1-2.83-2.01,1,1,0,0,0-1.5-.5A2.911,2.911,0,0,1,10,33a3.009,3.009,0,0,1-3-3,2.964,2.964,0,0,1,.51-1.67.99.99,0,0,0,.13-.88,1.035,1.035,0,0,0-.62-.64A2.968,2.968,0,0,1,5,24a3.009,3.009,0,0,1,3-3,2.876,2.876,0,0,1,.73.11.97.97,0,0,0,.87-.16,1.014,1.014,0,0,0,.4-.8V17A12.973,12.973,0,0,1,28.55,5.26a13.216,13.216,0,0,1-2.86,5.25c-.26.3-.54.59-.86.9A17.117,17.117,0,0,1,13,16a1,1,0,0,0-1,1v7a11.014,11.014,0,0,0,6,9.79v.42A2.963,2.963,0,0,1,16,35ZM14,60H11.97a4.846,4.846,0,0,0-.79-2.36A6.723,6.723,0,0,1,10,54a6.609,6.609,0,0,1,1.71-4.29l-1.42-1.42A8.723,8.723,0,0,0,8,54a8.855,8.855,0,0,0,1.52,4.77A2.655,2.655,0,0,1,9.97,60H4V48.88A6.964,6.964,0,0,1,8.91,42.2L14,40.61Zm16,0H16V39.98l2.42-.75a3.24,3.24,0,0,0,.89.83,3.969,3.969,0,0,0,.52,6.29l-2.52,7.57a1.01,1.01,0,0,0,.75,1.29c.1.02.25.22.4.41a2.353,2.353,0,0,0,4.08,0c.31-.4.36-.42.46-.42s.15.02.46.42a2.353,2.353,0,0,0,4.08,0c.15-.19.3-.39.4-.41a1.01,1.01,0,0,0,.75-1.29l-2.52-7.57a3.969,3.969,0,0,0,.52-6.29,3.24,3.24,0,0,0,.89-.83l2.42.75Zm12,0H36.03a2.655,2.655,0,0,1,.45-1.23A8.855,8.855,0,0,0,38,54a8.723,8.723,0,0,0-2.29-5.71l-1.42,1.42A6.609,6.609,0,0,1,36,54a6.723,6.723,0,0,1-1.18,3.64A4.846,4.846,0,0,0,34.03,60H32V40.61l5.09,1.59A6.964,6.964,0,0,1,42,48.88Z"></path><circle cx="19" cy="21" r="2"></circle><circle cx="27" cy="21" r="2"></circle><path d="M20.872,26.118l-1.4,1.424a5.007,5.007,0,0,0,7.064,0l-1.4-1.424A3.082,3.082,0,0,1,20.872,26.118Z"></path><path d="M59,56H49a3,3,0,0,0-3,3v2a1,1,0,0,0,1,1H61a1,1,0,0,0,1-1V59A3,3,0,0,0,59,56Zm1,4H48V59a1,1,0,0,1,1-1H59a1,1,0,0,1,1,1Z"></path><path d="M59,27v1H49V27H47V37h2V36h2V53a1,1,0,0,0,1,1h4a1,1,0,0,0,1-1V36h2v1h2V27ZM55,52H53V40h2Zm0-14H53V36h2Zm4-4H49V30H59Z"></path></g></svg>