<svg xmlns="http://www.w3.org/2000/svg" viewBox="0 0 64 64" x="0px" y="0px"><g><path d="M61.983,13.914a1.1,1.1,0,0,0-.011-.152c-.008-.031-.027-.056-.037-.085a1.017,1.017,0,0,0-.057-.131.965.965,0,0,0-.124-.183.955.955,0,0,0-.091-.1,1,1,0,0,0-.2-.132.836.836,0,0,0-.106-.058A.989.989,0,0,0,61,13H15a.989.989,0,0,0-.361.073.836.836,0,0,0-.106.058.991.991,0,0,0-.2.132.864.864,0,0,0-.091.1.92.92,0,0,0-.124.183,1.017,1.017,0,0,0-.057.131c-.01.029-.029.054-.037.085a1.11,1.11,0,0,0-.011.152c0,.03-.017.055-.017.086v5H9l-.017,0a1.019,1.019,0,0,0-.29.049c-.029.009-.053.024-.08.035a1.1,1.1,0,0,0-.132.058c-.021.012-.037.031-.057.045s-.052.04-.077.062a.96.96,0,0,0-.143.156c-.018.024-.037.046-.053.072a1.006,1.006,0,0,0-.119.273l0,.009c0,.015,0,.03,0,.045A1.03,1.03,0,0,0,8,20v5H3l-.014,0a1.02,1.02,0,0,0-.3.05c-.027.009-.05.023-.075.034a.85.85,0,0,0-.135.059c-.021.012-.037.031-.057.045s-.052.04-.077.062a.96.96,0,0,0-.143.156c-.018.024-.037.046-.053.072a1.006,1.006,0,0,0-.119.273l0,.009c0,.015,0,.03,0,.045A1.03,1.03,0,0,0,2,26V50a1,1,0,0,0,1,1H49a1,1,0,0,0,1-1V45h5a1,1,0,0,0,1-1V39h5a1,1,0,0,0,1-1V14C62,13.969,61.985,13.944,61.983,13.914ZM56.922,15l-7.667,4H26.745l-7.667-4ZM48,44v3.765l-14.212-12.7L48,27.65ZM4,27.65l14.212,7.415L4,47.765Zm16.107,8.4,5.43,2.833a1.005,1.005,0,0,0,.926,0l5.43-2.833L46.38,49H5.62ZM26,36.872,7.079,27H44.921ZM43.254,25H20.746l-7.667-4H50.921ZM16,15.65,22.421,19H16Zm-6,6L16.421,25H10ZM54,43H50V26a1.03,1.03,0,0,0-.025-.193c0-.015,0-.03,0-.045l0-.009a.9.9,0,0,0-.038-.1c-.01-.027-.019-.053-.031-.078s-.031-.066-.05-.1-.035-.048-.053-.072a1,1,0,0,0-.085-.109c-.008-.008-.018-.014-.026-.022s-.022-.016-.032-.025c-.025-.022-.05-.042-.077-.062s-.036-.033-.057-.045a.8.8,0,0,0-.09-.04c-.023-.011-.044-.023-.068-.032s-.034-.015-.052-.021a1.025,1.025,0,0,0-.295-.05L49,25H47.579L54,21.65Zm2-6V20a1.03,1.03,0,0,0-.025-.193c0-.015,0-.03,0-.045l0-.009a.9.9,0,0,0-.038-.1c-.01-.027-.019-.053-.031-.078s-.031-.066-.05-.1-.035-.048-.053-.072a1,1,0,0,0-.085-.109c-.008-.008-.018-.014-.026-.022s-.022-.016-.032-.025c-.025-.022-.05-.042-.077-.062s-.036-.033-.057-.045-.06-.025-.089-.039-.045-.024-.069-.033-.035-.015-.054-.021A1,1,0,0,0,55.015,19L55,19H53.579L60,15.65V37Z"></path></g></svg>