<svg xmlns="http://www.w3.org/2000/svg" viewBox="0 0 64 64" x="0px" y="0px"><g><path d="M15,31v2a2,2,0,0,0,4,0V31H15Z"></path><path d="M53,34H47.02l1.231,2h7.131l3.723-7.447a1.028,1.028,0,0,1,.188-.26L60,27.586V26H58.554l-4.706,7.53A1,1,0,0,1,53,34Z"></path><path d="M6.586,4H4V15.586l1.707,1.707A1,1,0,0,1,6,18v2.465L8.3,22h5.461l1.789-.895A1,1,0,0,1,16,21h2a1.006,1.006,0,0,1,.555.168L21.3,23H23.7L26,21.465V21a1,1,0,0,1,.375-.781L31,16.52V11a1,1,0,0,1,.293-.707L33,8.586V5H31.333L24,10.5V13a1,1,0,0,1-1,1H12a1,1,0,0,1-1-1V8.414ZM27,14.586V12h2v3a1,1,0,0,1-.293.707l-3,3-1.414-1.414ZM21,19h2v2H21ZM7.293,16.707l-1-1A1,1,0,0,1,6,15V9H8v5.586l.707.707ZM12,18v2H10V18Z"></path><path d="M46,48a1,1,0,0,1,1,.917L47.92,60H51V44.283L43.441,32H27a1,1,0,0,1-1-1V23.868l-1.445.964A1.006,1.006,0,0,1,24,25H21a1.006,1.006,0,0,1-.555-.168L17.7,23H16.236l-1.789.895A1,1,0,0,1,14,24H8a1.006,1.006,0,0,1-.555-.168L6,22.868v1.877l5.878,10.776A1,1,0,0,1,12,36V60h2.153l1.861-11.165A1,1,0,0,1,17,48h6a1,1,0,0,1,1,1V60h2.153l1.861-11.165a1,1,0,0,1,.431-.667l4.566-3.047c0-.041-.011-.08-.011-.121V41h2v4a3,3,0,0,0,3,3,1,1,0,0,1,1,1v9h2V42h2v3A3,3,0,0,0,46,48ZM24,46H21a1,1,0,0,1-.707-.293L20,45.414l-.293.293A1,1,0,0,1,19,46H16V44h2.586l.707-.707a1,1,0,0,1,1.414,0l.707.707H24ZM21,30.5V33a4,4,0,0,1-8,0V31a1,1,0,0,1-.8-.4l-3-4,1.6-1.2L13.5,29H16V27.816A3,3,0,0,1,14,25h2a1,1,0,0,0,2,0h2a3,3,0,0,1-2,2.816V29h1.667L23.4,26.2l1.2,1.6Z"></path></g></svg>