<svg xmlns="http://www.w3.org/2000/svg" viewBox="0 0 64 64" x="0px" y="0px"><g data-name="Shopping-Shopping Bag-Smartphone-Computer-Payment"><path d="M46,26H60V15H46Zm2-9h2v2a3,3,0,0,0,6,0V17h2v2a5,5,0,0,1-10,0Z"></path><path d="M46,29a1,1,0,0,0,1,1H59a1,1,0,0,0,1-1V28H46Z"></path><path d="M17,30a3.009,3.009,0,0,0,3-3V7a3.009,3.009,0,0,0-3-3H7A3.009,3.009,0,0,0,4,7V27a3.009,3.009,0,0,0,3,3Zm-3-2H10V26h4ZM10,6h4V8H10Zm1,6V11h2v1a3,3,0,0,1,3,3H14a1,1,0,0,0-1-1H11a1,1,0,0,0,0,2h2a3,3,0,0,1,0,6v1H11V22a3,3,0,0,1-3-3h2a1,1,0,0,0,1,1h2a1,1,0,0,0,0-2H11a3,3,0,0,1,0-6ZM6,6H8V8H6Z"></path><path d="M21,59a1,1,0,0,0,1,1H42a1,1,0,0,0,0-2H22A1,1,0,0,0,21,59Z"></path><polygon points="25.88 50 25.13 56 38.87 56 38.12 50 25.88 50"></polygon><path d="M56,42H8v3a3.009,3.009,0,0,0,3,3H53a3.009,3.009,0,0,0,3-3Zm-4,4H50V44h2Z"></path><rect x="46" y="11" width="10" height="2"></rect><polygon points="30 26 30 11 32 11 32 15 34 15 34 11 44 11 44 26 30 26"></polygon><path d="M30,29V28H44v1a2.772,2.772,0,0,0,.18,1H31A1,1,0,0,1,30,29Z"></path><path d="M56,32v8H8V32h9a5,5,0,0,0,5-5V11h6V29a3.009,3.009,0,0,0,3,3Z"></path><path d="M46,11H44V9A5,5,0,0,0,34,9v2H32V9A7,7,0,0,1,46,9Z"></path></g></svg>