<svg xmlns="http://www.w3.org/2000/svg" viewBox="0 0 64 64" x="0px" y="0px"><g><path d="M46.68,40.29,37,37.26V34.79A11.028,11.028,0,0,0,42.95,26H43a4,4,0,0,0,0-8v-.85l9.41-4.24a1,1,0,0,0,0-1.82l-20-9a.979.979,0,0,0-.82,0l-20,9a1,1,0,0,0,0,1.82l.41.19v3.08A3.01,3.01,0,0,0,10,19a2.954,2.954,0,0,0,1.03,2.24l-.96,2.39,1.86.74.95-2.38c.04,0,.08.01.12.01s.08-.01.12-.01l.95,2.38,1.86-.74-.96-2.39A2.954,2.954,0,0,0,16,19a3.01,3.01,0,0,0-2-2.82V14l7,3.15V18a4,4,0,1,0,0,8h.05A11.028,11.028,0,0,0,27,34.79v2.47l-9.68,3.03A8.959,8.959,0,0,0,11,48.88V61a1,1,0,0,0,1,1H52a1,1,0,0,0,1-1V48.88A8.959,8.959,0,0,0,46.68,40.29ZM13,20a1,1,0,1,1,1-1A1,1,0,0,1,13,20Zm8,4a2.015,2.015,0,0,1-2-2,2.006,2.006,0,0,1,2-2ZM40,41.11V40.3l1.67.52-6.28,9.96c-.04.05-.08.11-.12.16l-1.21-4.82,1.26-2.53a2.957,2.957,0,0,0,1.68.53,3.018,3.018,0,0,0,1.37-.34A2.986,2.986,0,0,0,40,41.11Zm-2-1.44v1.44a.968.968,0,0,1-.54.89.978.978,0,0,1-1.04-.07l-2.49-1.78,2.16-1.08ZM32.38,45h-.76l-1.29-2.58L32,41.23l1.67,1.19Zm1.17,7.32a4.03,4.03,0,0,1-3.1,0L31.78,47h.44ZM32,38.88l-3-1.5V35.57a10.68,10.68,0,0,0,6,0v1.81ZM41,16H23V12H41Zm4,6a2.015,2.015,0,0,1-2,2V20A2.006,2.006,0,0,1,45,22ZM21,11v3.95L14.44,12,32,4.1,49.56,12,43,14.95V11a1,1,0,0,0-1-1H22A1,1,0,0,0,21,11Zm2,14V18H41v7a9,9,0,0,1-18,0Zm3,14.67,1.91-.6,2.16,1.08-2.49,1.78a.978.978,0,0,1-1.04.07.968.968,0,0,1-.54-.89Zm-2,.63v.81a2.986,2.986,0,0,0,1.63,2.67,3.018,3.018,0,0,0,1.37.34,2.957,2.957,0,0,0,1.68-.53l1.26,2.53-1.21,4.82c-.03-.06-.08-.11-.11-.16l-6.29-9.96ZM51,60H13V48.88a6.964,6.964,0,0,1,4.91-6.68l2.45-.76,6.56,10.4a6.02,6.02,0,0,0,10.16,0l6.56-10.4,2.45.76A6.964,6.964,0,0,1,51,48.88Z"></path><path d="M35.307,27.75l-1.323-1.5a3.076,3.076,0,0,1-3.968,0l-1.323,1.5a5,5,0,0,0,6.614,0Z"></path><circle cx="27" cy="22" r="2"></circle><circle cx="37" cy="22" r="2"></circle></g></svg>