<svg xmlns="http://www.w3.org/2000/svg" viewBox="0 0 64 64" x="0px" y="0px"><g data-name="coffee cup-coffee mug-espresso-drink-coffee"><path d="M57,52H47.38c3.47-10.7,5.08-19.09,3.82-31.29A3,3,0,0,0,48.21,18H15.79a3,3,0,0,0-2.99,2.71c-1.26,12.2.35,20.59,3.82,31.29H7a1,1,0,0,0-1,1,5,5,0,0,0,5,5h6v3a1,1,0,0,0,1,1H46a1,1,0,0,0,1-1V58h6a5,5,0,0,0,5-5A1,1,0,0,0,57,52ZM14.79,20.91a1,1,0,0,1,1-.91H48.21a1,1,0,0,1,1,.91C50.46,33,48.8,41.25,45.28,52H18.72C15.2,41.25,13.54,33,14.79,20.91ZM45,60H19V58H45Zm8-4H11a3.014,3.014,0,0,1-2.83-2H55.83A3.014,3.014,0,0,1,53,56Z"></path><path d="M26,16h2a2.258,2.258,0,0,1,.759-1.681,4.208,4.208,0,0,0,0-5.968,2.244,2.244,0,0,1,0-3.366A4.171,4.171,0,0,0,30,2H28a2.259,2.259,0,0,1-.76,1.683,4.212,4.212,0,0,0,0,5.969,2.243,2.243,0,0,1,0,3.365A4.164,4.164,0,0,0,26,16Z"></path><path d="M34,16h2a2.258,2.258,0,0,1,.759-1.681,4.208,4.208,0,0,0,0-5.968,2.244,2.244,0,0,1,0-3.366A4.171,4.171,0,0,0,38,2H36a2.259,2.259,0,0,1-.76,1.683,4.212,4.212,0,0,0,0,5.969,2.243,2.243,0,0,1,0,3.365A4.164,4.164,0,0,0,34,16Z"></path></g></svg>