<svg xmlns="http://www.w3.org/2000/svg" viewBox="0 0 64 64" x="0px" y="0px"><g data-name="File-Doccument-Cloud"><rect x="3" y="40" width="4" height="4"></rect><circle cx="7" cy="57" r="2"></circle><path d="M13,39.586,11.586,41H10v2h2a1,1,0,0,0,.707-.293l2-2A1,1,0,0,0,15,40V36H13Z"></path><path d="M12,51.586l-1.707,1.707,1.414,1.414,2-2A1,1,0,0,0,14,52V47H12Z"></path><circle cx="30" cy="50" r="1"></circle><path d="M30,24H26.71a1.018,1.018,0,0,1-.81-.4,1.04,1.04,0,0,1-.15-.89A5.85,5.85,0,0,0,26,21a6,6,0,0,0-11.81-1.49.993.993,0,0,1-1.38.67A1.912,1.912,0,0,0,12,20a2.006,2.006,0,0,0-2,2,1.89,1.89,0,0,0,.13.67A1,1,0,0,1,9.18,24H8a4,4,0,0,0,0,8H30a4,4,0,0,0,0-8ZM20,24H18V22h2Zm4,0H22V22h2Z"></path><circle cx="41" cy="46" r="1"></circle><path d="M60,9a1,1,0,0,0-1-1H58V55a3,3,0,0,1-3,3H22v1a1,1,0,0,0,1,1H59a1,1,0,0,0,1-1Z"></path><path d="M55,4H52v7a1.008,1.008,0,0,1-.71.96A.967.967,0,0,1,51,12a.984.984,0,0,1-.83-.45L49,9.8l-1.17,1.75a.992.992,0,0,1-1.12.41A1.008,1.008,0,0,1,46,11V4H19a1,1,0,0,0-1,1v8.27A7.783,7.783,0,0,1,20,13a8.011,8.011,0,0,1,8,8,8.386,8.386,0,0,1-.06,1H30a6,6,0,0,1,0,12H18v2h2v2H18v2h2v9h1v2H19a1,1,0,0,1-1-1v5a1,1,0,0,0,1,1H55a1,1,0,0,0,1-1V5A1,1,0,0,0,55,4ZM23,36h2v2H23Zm2,15H23V49h2Zm11-4H30a3,3,0,1,1-3,3,3.009,3.009,0,0,1,3-3H24a1,1,0,0,1-1-1V40h2v5H36Zm5,2a3,3,0,1,1,3-3A3.009,3.009,0,0,1,41,49ZM52,37H36V35H52Zm0-6H40V29H52Zm0-6H40V23H52Zm0-6H36V17H52Z"></path><path d="M48.168,7.445a1.039,1.039,0,0,1,1.664,0L50,7.7V4H48V7.7Z"></path></g></svg>