<svg xmlns="http://www.w3.org/2000/svg" viewBox="0 0 64 64" x="0px" y="0px"><g data-name="Tooth"><path d="M38.574,24.56l.238,2.449A1.1,1.1,0,0,0,41,26.9V24a3,3,0,0,1,6,0v2.9a1.1,1.1,0,0,0,2.188.106l.238-2.449a18.111,18.111,0,0,1,2.115-6.7A3.995,3.995,0,0,0,48.7,12.061a3.949,3.949,0,0,0-3,.679,2.924,2.924,0,0,1-3.405,0,3.957,3.957,0,0,0-3-.679,3.995,3.995,0,0,0-2.837,5.794A18.111,18.111,0,0,1,38.574,24.56Zm2.839-11.071a6.933,6.933,0,0,0,5.177,0l.82,1.823a8.792,8.792,0,0,1-6.819,0Z"></path><path d="M34.969,4.43l.117-.068Z"></path><path d="M56.731,7.275l-.006-.006Z"></path><path d="M56.725,32.73l0,0Z"></path><path d="M12.322,23.442c-.016.037-.034.073-.049.11-.176.427-.328.865-.469,1.308-.026.083-.058.163-.083.246-.122.4-.22.82-.312,1.237-.026.121-.062.239-.086.362-.079.4-.133.815-.183,1.227-.017.136-.044.269-.058.406C11.029,28.885,11,29.439,11,30v.351l-.218.272v0L4.081,39H9v8a3,3,0,0,0,3,3h7V60H39V42.962l.334-.3.013-.012A17.063,17.063,0,0,0,40.674,41.3c.128-.144.252-.291.375-.439.308-.368.6-.752.872-1.146A17.271,17.271,0,0,0,43,37.981V36h2v1.949a17.956,17.956,0,0,0,2.686-.33l-.511-1.905,1.931-.519.51,1.9a17.857,17.857,0,0,0,2.5-1.042l-.979-1.7,1.732-1,.982,1.7A17.981,17.981,0,0,0,55.987,33.4l-1.381-1.38,1.415-1.415,1.38,1.381a17.981,17.981,0,0,0,1.656-2.139l-1.7-.982,1-1.732,1.7.979a17.738,17.738,0,0,0,1.042-2.5l-1.9-.509.518-1.932,1.905.511A17.972,17.972,0,0,0,61.949,21H60V19h1.949a17.972,17.972,0,0,0-.33-2.686l-1.905.511L59.2,14.893l1.9-.509a17.738,17.738,0,0,0-1.042-2.5l-1.7.979-1-1.732,1.7-.982A17.981,17.981,0,0,0,57.4,8.013l-1.38,1.381L54.606,7.979,55.987,6.6a17.981,17.981,0,0,0-2.139-1.656l-.982,1.7-1.732-1,.979-1.7a17.857,17.857,0,0,0-2.5-1.042l-.51,1.9-1.931-.519.511-1.9A17.956,17.956,0,0,0,45,2.051V4H43V2.038a17.939,17.939,0,0,0-2.684.35l.509,1.9-1.931.519-.511-1.9a17.83,17.83,0,0,0-2.5,1.039l.983,1.7-1.732,1-.983-1.7A18.117,18.117,0,0,0,32,6.589l1.391,1.39L31.979,9.394,30.594,8.007a18.115,18.115,0,0,0-1.649,2.147l1.7.98-1,1.732-1.709-.986c-.19.376-.369.758-.533,1.148A17.026,17.026,0,0,0,12.322,23.442ZM35.866,36.088l-1.732-1,1-1.732,1.732,1Zm4.441,1.558-1.932-.519.519-1.932,1.931.519ZM34.08,15.009a6.033,6.033,0,0,1,4.88-4.92,5.954,5.954,0,0,1,4.5,1.025.937.937,0,0,0,1.075,0,5.95,5.95,0,0,1,4.5-1.025,5.995,5.995,0,0,1,4.269,8.7,16.123,16.123,0,0,0-1.893,5.961l-.237,2.45A3.1,3.1,0,0,1,45,26.9V24a1,1,0,0,0-2,0v2.9a3.1,3.1,0,0,1-6.179.3l-.237-2.449a16.112,16.112,0,0,0-1.893-5.961A5.986,5.986,0,0,1,34.08,15.009Zm-7.726,8.684,1.932-.518.518,1.932-1.932.518Zm5.625,6.913,1.415,1.415-1.415,1.414-1.414-1.414Zm-1.335-1.74-1.733,1-1-1.732,1.733-1ZM26.872,14.375l1.932.518-.518,1.932-1.932-.518ZM26,19h2v2H26Z"></path></g></svg>