<svg xmlns="http://www.w3.org/2000/svg" viewBox="0 0 64 64" x="0px" y="0px"><g data-name="Smartphone-Emergency Call-Ambulance-Hospital-Medical"><path d="M55.67,27.26l-8.44-7.51a3.021,3.021,0,0,0-1.98-.74l-18.24-.02a3.009,3.009,0,0,0-3,3l-.01,12a3,3,0,0,0,2.99,3H28.1a4.98,4.98,0,0,0,4.89,4,5.031,5.031,0,0,0,3.19-1.14A4.978,4.978,0,0,0,37.89,37h4.2a5.036,5.036,0,0,0,4.9,4.01,5,5,0,0,0,4.9-4h1.1a3.011,3.011,0,0,0,3.01-3v-6A1.006,1.006,0,0,0,55.67,27.26Zm-6.66-3.25,3.36,3H46l.01-3ZM35.11,38.12a3.005,3.005,0,0,1-5.12-2.13,3.024,3.024,0,0,1,.89-2.12,2.974,2.974,0,0,1,2.11-.88H33A2.988,2.988,0,0,1,35.99,36,2.973,2.973,0,0,1,35.11,38.12Zm14,.01a2.994,2.994,0,0,1-4.24,0,2.994,2.994,0,0,1,.01-4.25,2.964,2.964,0,0,1,2.11-.87H47a3,3,0,0,1,2.11,5.12ZM54,34.01a1.018,1.018,0,0,1-1.01,1h-1.1a4.98,4.98,0,0,0-4.89-4h-.01A4.989,4.989,0,0,0,42.1,35H37.89A5.017,5.017,0,0,0,33,30.99h-.01a5,5,0,0,0-4.89,4H26.99a.994.994,0,0,1-.99-1l.01-12a1,1,0,0,1,1-1l18.24.02a1.05,1.05,0,0,1,.67.25l.84.75h-.75a2,2,0,0,0-2,1.99L44,27a2,2,0,0,0,2,2.01h8Z"></path><rect x="45.995" y="35.006" width="2" height="2"></rect><rect x="31.995" y="34.994" width="2" height="2"></rect><polygon points="36 23 34 23 34 25 32 25 32 27 34 27 34 29 36 29 36 27 38 27 38 25 36 25 36 23"></polygon><path d="M46,56a4,4,0,0,1-4,4H14a4,4,0,0,1-4-4V8a4,4,0,0,1,4-4H42a4,4,0,0,1,4,4v9h2V8a6.006,6.006,0,0,0-6-6H14A6.006,6.006,0,0,0,8,8V56a6.006,6.006,0,0,0,6,6H42a6.006,6.006,0,0,0,6-6V43H46Z"></path><path d="M26,58h4a3,3,0,0,0,0-6H26a3,3,0,0,0,0,6Zm0-4h4a1,1,0,0,1,0,2H26a1,1,0,0,1,0-2Z"></path><rect x="21" y="6" width="2" height="2"></rect><rect x="25" y="6" width="6" height="2"></rect><rect x="15" y="33" width="7" height="2"></rect><rect x="17" y="29" width="5" height="2"></rect><rect x="18" y="25" width="4" height="2"></rect></g></svg>