<svg xmlns="http://www.w3.org/2000/svg" viewBox="0 0 64 64" x="0px" y="0px"><g><polygon points="36 13 39 13 39 9 21 9 21 13 24 13 36 13"></polygon><path d="M55.92,47H59a1,1,0,0,0,1-1V45H57V43h3V41H56a2,2,0,0,1-2-2V37a2,2,0,0,1,2-2h3.707a.989.989,0,0,0-.542-.292L48.918,33H34V47h8.08a6.991,6.991,0,0,1,13.84,0ZM40,37H36V35h4Z"></path><path d="M41.283,20.512A3,3,0,0,0,38.679,19H20.472a2.982,2.982,0,0,0-2.683,1.658L11.9,32.447a1,1,0,0,1-.771.545l-6.248.781A1,1,0,0,0,4,34.766V43H7v2H4v1a1,1,0,0,0,1,1H8.08a6.991,6.991,0,0,1,13.84,0H32V33H18.34a2,2,0,0,1-1.608-.814,1.974,1.974,0,0,1-.3-1.774l2.4-7.989A1.989,1.989,0,0,1,20.74,21H41.562ZM19,35h4v2H19Z"></path><path d="M49,43a5,5,0,1,0,5,5A5.006,5.006,0,0,0,49,43Zm1,6H48V47h2Z"></path><polygon points="18.348 30.997 32 30.998 32 23 20.74 23 18.348 30.997"></polygon><polygon points="47.277 31 42.705 23 34 23 34 30.999 47.277 31"></polygon><path d="M15,43a5,5,0,1,0,5,5A5.006,5.006,0,0,0,15,43Zm1,6H14V47h2Z"></path><rect x="56" y="37" width="4" height="2"></rect><rect x="23" y="15" width="2" height="2"></rect><rect x="35" y="15" width="2" height="2"></rect></g></svg>