<svg xmlns="http://www.w3.org/2000/svg" viewBox="0 0 64 64" x="0px" y="0px"><g><path d="M41,59.953V51.047a20.315,20.315,0,0,1,2.812.315l.376-1.965A22.3,22.3,0,0,0,41,49.047V41h8.962a37.85,37.85,0,0,1-.405,4.847l1.976.306A39.848,39.848,0,0,0,51.981,41h7.983a19.977,19.977,0,0,1-.79,4.715l1.916.57A21.983,21.983,0,1,0,44.189,61.6l-.378-1.963A20.25,20.25,0,0,1,41,59.953Zm-7.063-.9a19.808,19.808,0,0,1-6.552-3.543,19.885,19.885,0,0,1,3.069-2.065A18.41,18.41,0,0,0,33.937,59.054Zm-1.649-6.493A19.921,19.921,0,0,1,39,51.046V59.9C36.331,59.336,33.936,56.573,32.288,52.561ZM39,49.046a21.918,21.918,0,0,0-7.393,1.631A34.677,34.677,0,0,1,30.026,41H39Zm2-28.941c2.669.559,5.064,3.322,6.712,7.334A19.921,19.921,0,0,1,41,28.954Zm5.063.841a19.808,19.808,0,0,1,6.552,3.543,19.885,19.885,0,0,1-3.069,2.065A18.41,18.41,0,0,0,46.063,20.946ZM39,20.105v8.849a19.921,19.921,0,0,1-6.712-1.515C33.936,23.427,36.331,20.664,39,20.105Zm-8.546,6.449a19.82,19.82,0,0,1-3.069-2.066,19.824,19.824,0,0,1,6.552-3.542A18.41,18.41,0,0,0,30.454,26.554ZM39,30.954V39H30.026a34.677,34.677,0,0,1,1.581-9.677A21.918,21.918,0,0,0,39,30.954Zm2,0a21.918,21.918,0,0,0,7.393-1.631A34.677,34.677,0,0,1,49.974,39H41ZM59.951,39H51.973A36.522,36.522,0,0,0,50.25,28.45a21.908,21.908,0,0,0,3.86-2.607A19.772,19.772,0,0,1,59.951,39ZM25.89,25.843a21.854,21.854,0,0,0,3.86,2.607A36.522,36.522,0,0,0,28.027,39H20.049A19.774,19.774,0,0,1,25.89,25.843ZM20.049,41h7.978A36.522,36.522,0,0,0,29.75,51.55a21.908,21.908,0,0,0-3.86,2.607A19.772,19.772,0,0,1,20.049,41Z"></path><path d="M12,25.585A1.993,1.993,0,0,0,13.414,25L30.385,8.029a2,2,0,0,0,0-2.828L28.264,3.08a3,3,0,0,0-4.243,0L19.515,7.585,9.622,4.136a1.007,1.007,0,0,0-1.036.237L6.343,6.615A1,1,0,0,0,6.5,8.154l7.471,4.981-3.488,3.488L6.217,13.58a1,1,0,0,0-1.288.107L2.808,15.808a1,1,0,0,0,0,1.414L10.586,25A1.993,1.993,0,0,0,12,25.585ZM8.62,7.167l.937-.937,8.387,2.926-2.536,2.536ZM5.744,15.7l4.261,3.043a1,1,0,0,0,1.288-.106L25.435,4.494a1,1,0,0,1,1.415,0l2.121,2.121L12,23.586,4.929,16.515Z"></path><rect x="24.435" y="6.322" width="2" height="2" transform="translate(2.272 20.13) rotate(-45)"></rect><path d="M40.171,6.682C39.5,6.53,38.812,6.4,38.131,6.3L37.84,8.281c.631.093,1.267.211,1.891.352Z"></path><path d="M44.134,7.891c-.647-.251-1.306-.48-1.959-.678l-.584,1.912c.606.186,1.219.4,1.82.631Z"></path><path d="M36.069,6.075C35.385,6.025,34.688,6,34,6V8c.641,0,1.288.023,1.925.069Z"></path><path d="M57.305,22.457l1.791-.891c-.309-.62-.642-1.232-.991-1.821l-1.72,1.02C56.709,21.312,57.019,21.881,57.305,22.457Z"></path><path d="M54.369,14.787c-.47-.5-.967-.987-1.477-1.454l-1.35,1.477c.475.433.936.887,1.372,1.35Z"></path><path d="M47.876,9.676c-.6-.342-1.216-.665-1.837-.962l-.861,1.8c.577.275,1.15.576,1.706.893Z"></path><path d="M55.343,19.146,56.983,18c-.391-.563-.811-1.119-1.247-1.655l-1.552,1.261C54.589,18.106,54.979,18.624,55.343,19.146Z"></path><path d="M51.311,11.99c-.544-.428-1.108-.839-1.675-1.22l-1.117,1.658c.526.355,1.049.736,1.555,1.134Z"></path><path d="M58.751,26.018l1.9-.612c-.207-.645-.445-1.3-.708-1.948l-1.853.752C58.338,24.811,58.559,25.419,58.751,26.018Z"></path><path d="M13.544,53.118c.47.5.964.995,1.471,1.462l1.355-1.471c-.47-.432-.929-.889-1.365-1.356Z"></path><path d="M16.588,55.931c.539.427,1.1.84,1.669,1.228l1.127-1.652c-.53-.361-1.051-.745-1.552-1.143Z"></path><path d="M12.592,48.758l-1.647,1.135c.386.56.8,1.12,1.241,1.662L13.742,50.3C13.337,49.8,12.95,49.277,12.592,48.758Z"></path><path d="M23.747,60.063c.639.251,1.3.483,1.957.687l.592-1.91c-.613-.191-1.225-.4-1.817-.638Z"></path><path d="M20.014,58.262c.6.345,1.215.672,1.833.969l.869-1.8c-.574-.278-1.147-.58-1.7-.9Z"></path><path d="M10.643,45.438l-1.795.88c.3.624.636,1.239.982,1.828l1.725-1.014C11.233,46.586,10.927,46.016,10.643,45.438Z"></path><path d="M6.054,32.241l2,.125c.04-.635.1-1.28.19-1.919L6.258,30.18C6.165,30.864,6.1,31.559,6.054,32.241Z"></path><path d="M9.212,41.868l-1.906.6c.205.65.441,1.306.7,1.952l1.855-.744C9.621,43.08,9.4,42.471,9.212,41.868Z"></path><path d="M8,34.292l-2,.02c.007.685.04,1.381.1,2.071l1.992-.168C8.039,35.574,8.009,34.928,8,34.292Z"></path><path d="M9.01,26.8l-1.922-.553c-.181.627-.339,1.262-.473,1.888l1.957.416Q8.761,27.665,9.01,26.8Z"></path><path d="M8.326,38.126l-1.974.314c.107.676.243,1.361.4,2.034L8.7,40.015C8.552,39.389,8.427,38.753,8.326,38.126Z"></path><path d="M60,48H48a2,2,0,0,0-2,2V60a2,2,0,0,0,2,2H60a2,2,0,0,0,2-2V50A2,2,0,0,0,60,48Zm0,4H57V50h3Zm-5-2v4H53V50Zm-4,0v2H48V50ZM48,60V54h3v1a1,1,0,0,0,1,1h4a1,1,0,0,0,1-1V54h3v6Z"></path></g></svg>