<svg xmlns="http://www.w3.org/2000/svg" viewBox="0 0 64 64" x="0px" y="0px"><g data-name="Travel Bag"><path d="M39,18V3a1,1,0,0,0-1-1H26a1,1,0,0,0-1,1V18a9.01,9.01,0,0,0-9,9V53a3,3,0,0,0,3,3h1.556A3.959,3.959,0,0,0,20,58a4,4,0,0,0,8,0,3.959,3.959,0,0,0-.556-2h9.112A3.959,3.959,0,0,0,36,58a4,4,0,0,0,8,0,3.959,3.959,0,0,0-.556-2H45a3,3,0,0,0,3-3V27A9.01,9.01,0,0,0,39,18Zm2.09,36H22.91A6.008,6.008,0,0,0,18,49.09V33H33V44a1,1,0,0,0,1,1h8a1,1,0,0,0,1-1V33h3V49.09A6.008,6.008,0,0,0,41.09,54ZM18,29H33v2H18Zm28,0v2H43V29ZM41,43H35V29h6ZM27,4H37V6H27Zm0,4H37V18H27ZM25,20H39a7.008,7.008,0,0,1,7,7H18A7.008,7.008,0,0,1,25,20ZM18,53V51.126A4.015,4.015,0,0,1,20.873,54H19A1,1,0,0,1,18,53Zm8,5a2,2,0,1,1-2-2A2,2,0,0,1,26,58Zm14,2a2,2,0,1,1,2-2A2,2,0,0,1,40,60Zm6-7a1,1,0,0,1-1,1H43.127A4.015,4.015,0,0,1,46,51.126Z"></path><rect x="38" y="31" width="2" height="2"></rect><rect x="38" y="35" width="2" height="6"></rect></g></svg>