<svg xmlns="http://www.w3.org/2000/svg" viewBox="0 0 64 64" x="0px" y="0px"><title>Folder-Book</title><g><path d="M15,12H53V38h2V3a1,1,0,0,0-1-1H14A5.006,5.006,0,0,0,9,7V57a5.006,5.006,0,0,0,5,5H38V60H15ZM14,4H53V6H15V8H53v2H14a3,3,0,0,1,0-6ZM11,57V10.974a4.954,4.954,0,0,0,2,.925V59.816A3,3,0,0,1,11,57Z"></path><path d="M20,16a1,1,0,0,0-1,1V27a1,1,0,0,0,1,1H48a1,1,0,0,0,1-1V17a1,1,0,0,0-1-1ZM47,26H21V18H47Z"></path><path d="M59,46H51.618L49.9,42.553A1,1,0,0,0,49,42H41a1,1,0,0,0-1,1V60a2,2,0,0,0,2,2H58a2,2,0,0,0,2-2V47A1,1,0,0,0,59,46ZM42,44h6.382l1,2H42ZM58,60H42V48H58Z"></path></g></svg>