<svg xmlns="http://www.w3.org/2000/svg" viewBox="0 0 64 64" x="0px" y="0px"><g><rect x="30" y="52" width="14" height="8"></rect><path d="M56,38.7V26H45a3.009,3.009,0,0,1-3-3V12H9a1,1,0,0,0-.88.55l3.43,2.28-1.1,1.67L8,14.87V41a1,1,0,0,0,1,1h1V21a5,5,0,0,1,10,0V42h5V37a3,3,0,0,1,4-2.83V26a3,3,0,0,1,6,0v5.17a3,3,0,0,1,3.53,1.22A2.934,2.934,0,0,1,40,32a3,3,0,0,1,2.53,1.39A2.934,2.934,0,0,1,44,33a3.009,3.009,0,0,1,3,3v6h8a1,1,0,0,0,.93-.64L39.42,25.92l-2.87,1.91-1.1-1.66,5-3.34,1.1,1.67-.42.28ZM27.45,27.83l-2.87-1.91-1.93,1.81-1.37-1.46,1.59-1.49-1.42-.95,1.1-1.66,6,4Z"></path><path d="M28,36a1,1,0,0,0-1,1V47.586L29.414,50H44.279L45,47.838V36a1,1,0,0,0-2,0v3a1,1,0,0,1-2,0V35a1,1,0,0,0-2,0v4a1,1,0,0,1-2,0V34a1,1,0,0,0-2,0v5a1,1,0,0,1-2,0V26a1,1,0,0,0-2,0V42a1,1,0,0,1-2,0V37A1,1,0,0,0,28,36Z"></path><path d="M57,8h1.586L56,5.414V7A1,1,0,0,0,57,8Z"></path><path d="M45,24H59a1,1,0,0,0,1-1V10H57a3,3,0,0,1-3-3V4H45a1,1,0,0,0-1,1V23A1,1,0,0,0,45,24ZM46,8h6v2H46Zm0,4H58v2H46Zm0,4H58v2H46Zm0,4H58v2H46Z"></path><path d="M18,21a3,3,0,0,0-6,0v1h6Z"></path><polygon points="12.202 45 13.535 47 16.465 47 17.798 45 12.202 45"></polygon><rect x="16" y="28" width="2" height="15"></rect><rect x="12" y="28" width="2" height="15"></rect><path d="M16,49H14v2a1,1,0,0,0,2,0Z"></path><rect x="12" y="24" width="6" height="2"></rect></g></svg>