<svg xmlns="http://www.w3.org/2000/svg" viewBox="0 0 64 64" x="0px" y="0px"><g><path d="M61,52H60V21a5.006,5.006,0,0,0-5-5V13a2.133,2.133,0,0,0-.064-.32c-.011-.032-.019-.063-.033-.094a1,1,0,0,0-.2-.293l-10-10a.986.986,0,0,0-.294-.2c-.03-.013-.059-.021-.09-.032A2.232,2.232,0,0,0,44,2H14A5.006,5.006,0,0,0,9,7v9a5.006,5.006,0,0,0-5,5V52H3a1,1,0,0,0-1,1v4a3,3,0,0,0,3,3H59a3,3,0,0,0,3-3V53A1,1,0,0,0,61,52ZM58,21V48H55V18A3,3,0,0,1,58,21Zm-6.414-9H46a1,1,0,0,1-1-1V5.414ZM11,7a3,3,0,0,1,3-3H43v7a3,3,0,0,0,3,3h7V48H11ZM9,18V48H6V21A3,3,0,0,1,9,18ZM6,50H58v2H6Zm31,5H27V54H37Zm23,2a1,1,0,0,1-1,1H5a1,1,0,0,1-1-1V54H25v1a2,2,0,0,0,2,2H37a2,2,0,0,0,2-2V54H60Z"></path><path d="M25,28A10,10,0,1,0,15,18,10.011,10.011,0,0,0,25,28Zm-4-3.082V24a4,4,0,1,1,8,0v.918a7.935,7.935,0,0,1-8,0ZM23,16a2,2,0,1,1,2,2A2,2,0,0,1,23,16Zm2-6a7.986,7.986,0,0,1,5.958,13.32A5.928,5.928,0,0,0,27.9,18.745a4,4,0,1,0-5.788,0,6.009,6.009,0,0,0-3.066,4.572A7.987,7.987,0,0,1,25,10Z"></path><rect x="39" y="21" width="2" height="2"></rect><rect x="43" y="21" width="6" height="2"></rect><rect x="39" y="25" width="10" height="2"></rect><rect x="15" y="32" width="8" height="2"></rect><rect x="25" y="32" width="24" height="2"></rect><rect x="15" y="37" width="34" height="2"></rect><rect x="15" y="42" width="14" height="2"></rect><rect x="31" y="42" width="4" height="2"></rect><rect x="37" y="42" width="12" height="2"></rect></g></svg>