<svg xmlns="http://www.w3.org/2000/svg" viewBox="0 0 64 64" x="0px" y="0px"><g><path d="M5,12a1,1,0,0,0-1,1v1.184A2.966,2.966,0,0,1,5,14H45a2.966,2.966,0,0,1,1,.184V13a1,1,0,0,0-1-1Z"></path><path d="M39,41a6,6,0,1,0-4.243-1.757A5.963,5.963,0,0,0,39,41Z"></path><circle cx="25" cy="26" r="4"></circle><path d="M31,26c0,.027,0,.053,0,.08a12,12,0,0,1,15-.81V17a1,1,0,0,0-1-1H5a1,1,0,0,0-1,1V35a1,1,0,0,0,1,1H27.054a12.053,12.053,0,0,1,.5-4.579A6,6,0,1,1,31,26Zm6-8h4a1,1,0,0,1,1,1v2H40V20H37ZM8,19a1,1,0,0,1,1-1h4v2H10v3H8Zm5,15H9a1,1,0,0,1-1-1V29h2v3h3Zm2-7H13V25h2Z"></path><path d="M46,9a1,1,0,0,0-1-1H5A1,1,0,0,0,4,9v1.184A2.966,2.966,0,0,1,5,10H45a2.966,2.966,0,0,1,1,.184Z"></path><rect x="53.97" y="47.97" width="4.001" height="8.001" transform="translate(-20.355 54.808) rotate(-45.007)"></rect><rect x="49.021" y="46.021" width="4" height="2" transform="translate(-18.305 49.849) rotate(-45)"></rect><path d="M46.071,42.071a10,10,0,1,0-14.142,0A10.011,10.011,0,0,0,46.071,42.071ZM33.343,29.343A8,8,0,1,1,31,35,7.948,7.948,0,0,1,33.343,29.343Z"></path><path d="M48.157,42.742c-.215.254-.433.505-.672.743s-.489.457-.743.672l1.45,1.45,1.415-1.415Z"></path></g></svg>