<svg xmlns="http://www.w3.org/2000/svg" viewBox="0 0 64 64" x="0px" y="0px"><g data-name="Charger"><path d="M57,2H39a5.006,5.006,0,0,0-5,5V39a5.006,5.006,0,0,0,5,5h4v2a2,2,0,0,0,2,2h2v9a3,3,0,0,1-3,3H19a3,3,0,0,1-3-3V50h1a2,2,0,0,0,2-2V44h6a3,3,0,0,0,3-3V5a3,3,0,0,0-3-3H5A3,3,0,0,0,2,5V41a3,3,0,0,0,3,3h6v4a2,2,0,0,0,2,2h1v7a5.006,5.006,0,0,0,5,5H44a5.006,5.006,0,0,0,5-5V48h2a2,2,0,0,0,2-2V44h4a5.006,5.006,0,0,0,5-5V7A5.006,5.006,0,0,0,57,2ZM10,4H20V5a1,1,0,0,1-1,1H11a1,1,0,0,1-1-1ZM4,41V5A1,1,0,0,1,5,4H8V5a3,3,0,0,0,3,3h8a3,3,0,0,0,3-3V4h3a1,1,0,0,1,1,1V41a1,1,0,0,1-1,1H5A1,1,0,0,1,4,41Zm9,3h4v4H13Zm38,2H45V44h6Zm9-7a3,3,0,0,1-3,3H39a3,3,0,0,1-3-3V7a3,3,0,0,1,3-3H57a3,3,0,0,1,3,3Z"></path><path d="M19,18H18V16a1,1,0,0,0-1-1H13a1,1,0,0,0-1,1v2H11a2,2,0,0,0-2,2V32a2,2,0,0,0,2,2h8a2,2,0,0,0,2-2V20A2,2,0,0,0,19,18Zm-5-1h2v1H14ZM11,32V20h8V32Z"></path><rect x="13" y="28" width="4" height="2"></rect><path d="M53,22H51V13a1,1,0,0,0-1.819-.573l-7,10A1,1,0,0,0,43,24h3v9a1,1,0,0,0,.733.964A1.022,1.022,0,0,0,47,34a1,1,0,0,0,.857-.485l6-10A1,1,0,0,0,53,22Zm-5,7.39V23a1,1,0,0,0-1-1H44.92L49,16.172V23a1,1,0,0,0,1,1h1.234Z"></path><rect x="43" y="38" width="2" height="2"></rect><rect x="47" y="38" width="2" height="2"></rect><rect x="51" y="38" width="2" height="2"></rect></g></svg>