<svg xmlns="http://www.w3.org/2000/svg" viewBox="0 0 64 64" x="0px" y="0px"><g><path d="M49.6,26.562l-9.971-3.988A.994.994,0,0,1,39,21.646V18h7v1a1,1,0,0,0,1,1h4a1,1,0,0,0,1-1V17a5.006,5.006,0,0,0-5-5H38V9a1,1,0,0,0-1-1H36V3a1,1,0,0,0-1-1H29a1,1,0,0,0-1,1V8H27a1,1,0,0,0-1,1v3H21a1,1,0,0,0-1,1v4a1,1,0,0,0,1,1h4v3.646a.994.994,0,0,1-.629.928L14.4,26.562a6.968,6.968,0,0,0-4.4,6.5V57a5.006,5.006,0,0,0,5,5H49a5.006,5.006,0,0,0,5-5V33.062A6.968,6.968,0,0,0,49.6,26.562ZM30,4h4V8H30Zm-2,6h8v2H28Zm-6,4H47a3,3,0,0,1,3,3v1H48a2,2,0,0,0-2-2H22ZM15.143,28.42l9.971-3.988A2.987,2.987,0,0,0,27,21.646V18H37v3.646a2.987,2.987,0,0,0,1.886,2.786l9.971,3.988A4.976,4.976,0,0,1,52,33.062V34H12v-.938A4.976,4.976,0,0,1,15.143,28.42ZM52,36V50H12V36ZM49,60H15a3,3,0,0,1-3-3V52H52v5A3,3,0,0,1,49,60Z"></path></g></svg>