<svg xmlns="http://www.w3.org/2000/svg" viewBox="0 0 64 64" x="0px" y="0px"><g><path d="M60,42.974A4.948,4.948,0,0,1,57,44H35.858a3.981,3.981,0,0,1-7.716,0H7a4.948,4.948,0,0,1-3-1.026V56a4,4,0,0,0,4,4H56a4,4,0,0,0,4-4ZM9,52a3,3,0,1,1,3-3A3,3,0,0,1,9,52Zm13,6a3,3,0,1,1,3-3A3,3,0,0,1,22,58Zm20-1a4,4,0,1,1,4-4A4,4,0,0,1,42,57Z"></path><circle cx="12" cy="37" r="1"></circle><path d="M33.731,44H30.269a2,2,0,0,0,3.462,0Z"></path><circle cx="42" cy="53" r="2"></circle><circle cx="9" cy="49" r="1"></circle><circle cx="22" cy="55" r="1"></circle><circle cx="42" cy="37" r="1"></circle><path d="M60,33a3,3,0,0,0-3-3H31.91a5.993,5.993,0,0,1-11.82,0H7a3,3,0,0,0-3,3v6a3,3,0,0,0,3,3H57a3,3,0,0,0,3-3ZM12,40a3,3,0,1,1,3-3A3,3,0,0,1,12,40Zm30,0a3,3,0,1,1,3-3A3,3,0,0,1,42,40Zm13-2a3,3,0,1,1,3-3A3,3,0,0,1,55,38Z"></path><circle cx="55" cy="35" r="1"></circle><path d="M26,33a4.008,4.008,0,0,0,3.874-3H22.126A4.008,4.008,0,0,0,26,33Z"></path><circle cx="28" cy="12" r="2"></circle><circle cx="42" cy="21" r="1"></circle><path d="M55,10a1,1,0,0,0,1-1V8a1,1,0,0,0-2,0V9A1,1,0,0,0,55,10Z"></path><path d="M52.172,10.586a1,1,0,1,0,1.414-1.414l-.708-.707a1,1,0,0,0-1.414,1.414Z"></path><path d="M51,13h1a1,1,0,0,0,0-2H51a1,1,0,0,0,0,2Z"></path><path d="M52.172,13.414l-.708.707a1,1,0,1,0,1.414,1.414l.708-.707a1,1,0,1,0-1.414-1.414Z"></path><path d="M55,17a1,1,0,0,0,1-1V15a1,1,0,0,0-2,0v1A1,1,0,0,0,55,17Z"></path><path d="M57.122,15.535a1,1,0,0,0,1.414-1.414l-.708-.707a1,1,0,1,0-1.414,1.414Z"></path><path d="M57,12a1,1,0,0,0,1,1h1a1,1,0,0,0,0-2H58A1,1,0,0,0,57,12Z"></path><path d="M57.121,10.879a1,1,0,0,0,.707-.293l.708-.707a1,1,0,0,0-1.414-1.414l-.708.707a1,1,0,0,0,.707,1.707Z"></path><path d="M7,5A1,1,0,0,0,8,4V3A1,1,0,0,0,6,3V4A1,1,0,0,0,7,5Z"></path><path d="M4.172,5.586A1,1,0,0,0,5.586,4.172l-.708-.707A1,1,0,0,0,3.464,4.879Z"></path><path d="M3,8H4A1,1,0,0,0,4,6H3A1,1,0,0,0,3,8Z"></path><path d="M4.172,8.414l-.708.707a1,1,0,1,0,1.414,1.414l.708-.707A1,1,0,1,0,4.172,8.414Z"></path><path d="M7,12a1,1,0,0,0,1-1V10a1,1,0,0,0-2,0v1A1,1,0,0,0,7,12Z"></path><path d="M9.122,10.535a1,1,0,0,0,1.414-1.414l-.708-.707A1,1,0,1,0,8.414,9.828Z"></path><path d="M9,7a1,1,0,0,0,1,1h1a1,1,0,0,0,0-2H10A1,1,0,0,0,9,7Z"></path><path d="M9.121,5.879a1,1,0,0,0,.707-.293l.708-.707A1,1,0,1,0,9.122,3.465l-.708.707a1,1,0,0,0,.707,1.707Z"></path><path d="M16,20a1,1,0,0,0,1-1V18a1,1,0,0,0-2,0v1A1,1,0,0,0,16,20Z"></path><path d="M13,22h1a1,1,0,0,0,0-2H13a1,1,0,0,0,0,2Z"></path><path d="M16,22a1,1,0,0,0-1,1v1a1,1,0,0,0,2,0V23A1,1,0,0,0,16,22Z"></path><path d="M18,22h1a1,1,0,0,0,0-2H18a1,1,0,0,0,0,2Z"></path></g></svg>