<svg xmlns="http://www.w3.org/2000/svg" viewBox="0 0 64 64" x="0px" y="0px"><g data-name="Cactus"><path d="M35,10a3,3,0,0,0-6,0V41h6ZM33,36H31V34h2Zm0-6H31V28h2Zm0-6H31V22h2Zm0-6H31V16h2Zm0-6H31V10h2Z"></path><path d="M39,60V47H25V60Zm-4-7h2v2H35Zm0,3h2v2H35Zm-3,0h2v2H32Z"></path><rect x="23" y="43" width="18" height="2"></rect><rect x="31" y="2" width="2" height="4"></rect><rect x="34.243" y="4.757" width="4" height="2" transform="translate(6.544 27.314) rotate(-45)"></rect><rect x="26.757" y="3.758" width="2" height="4" transform="translate(4.059 21.314) rotate(-45)"></rect><rect x="36" y="10" width="4" height="2"></rect><rect x="36" y="16" width="4" height="2"></rect><rect x="36" y="22" width="4" height="2"></rect><rect x="36" y="28" width="4" height="2"></rect><rect x="36" y="34" width="4" height="2"></rect><rect x="24" y="10" width="4" height="2"></rect><rect x="24" y="16" width="4" height="2"></rect><rect x="24" y="22" width="4" height="2"></rect><rect x="24" y="28" width="4" height="2"></rect><rect x="24" y="34" width="4" height="2"></rect></g></svg>