<svg xmlns="http://www.w3.org/2000/svg" viewBox="0 0 64 64" x="0px" y="0px"><g><path d="M50,45h4V59a2,2,0,0,1-4,0Z"></path><path d="M60.83,25.55,59,28.3V38a3.009,3.009,0,0,1-3,3H54v2H50V41H48a3.009,3.009,0,0,1-3-3V28a.967.967,0,0,1,.17-.55l2-3,1.66,1.1L47,28.3V38a1,1,0,0,0,1,1h1V28a.967.967,0,0,1,.17-.55l2-3,1.66,1.1L51,28.3V39h2V28a.967.967,0,0,1,.17-.55l2-3,1.66,1.1L55,28.3V39h1a1,1,0,0,0,1-1V28a.967.967,0,0,1,.17-.55l2-3Z"></path><path d="M37,22a2.006,2.006,0,0,0-2-2v4a2.015,2.015,0,0,0,2-2Z"></path><path d="M27,38V35.57a10.68,10.68,0,0,1-6,0V38a3,3,0,0,0,6,0Z"></path><path d="M11,22a2.015,2.015,0,0,0,2,2V20A2.006,2.006,0,0,0,11,22Z"></path><path d="M31,40v-.02l-2.19-.68a4.976,4.976,0,0,1-9.62,0L17,39.98V47H31Z"></path><path d="M11,41.86l-1.09.34A6.964,6.964,0,0,0,5,48.88V55h6Z"></path><path d="M13,40V50a1,1,0,0,0,2,0V40a1,1,0,0,0-2,0Z"></path><path d="M7,15a1,1,0,0,0,1,1H40a1,1,0,0,0,0-2H8A1,1,0,0,0,7,15Z"></path><rect x="5" y="57" width="6" height="3"></rect><path d="M35,52.82A2.98,2.98,0,0,1,31,50V49H17v1a2.98,2.98,0,0,1-4,2.82V60H35Z"></path><path d="M35,40a1,1,0,0,0-2,0V50a1,1,0,0,0,2,0Z"></path><path d="M43,48.88a6.943,6.943,0,0,0-4.91-6.67L37,41.86V55h6Z"></path><path d="M15,12H33V7a3.009,3.009,0,0,0-3-3H18a3.009,3.009,0,0,0-3,3Z"></path><rect x="37" y="57" width="6" height="3"></rect><path d="M15,25a9,9,0,0,0,18,0V18H15Zm13-5a2,2,0,1,1-2,2A2,2,0,0,1,28,20Zm-2.016,7.25,1.323,1.5a5,5,0,0,1-6.614,0l1.323-1.5A3.076,3.076,0,0,0,25.984,27.25ZM20,20a2,2,0,1,1-2,2A2,2,0,0,1,20,20Z"></path></g></svg>