<svg xmlns="http://www.w3.org/2000/svg" viewBox="0 0 64 64" x="0px" y="0px"><g><path d="M9.28,56l.772-2.316A1,1,0,0,1,11,53h6a1,1,0,0,1,.948.684L18.72,56h4.893l-1.334-4H5.721L4.387,56Z"></path><path d="M6,50H22V41a1,1,0,0,0-1-1H7a1,1,0,0,0-1,1Zm11-6h2v2H17Zm-4,0h2v2H13ZM9,44h2v2H9Z"></path><rect x="4" y="58" width="20" height="2"></rect><polygon points="11.387 56 16.613 56 16.279 55 11.721 55 11.387 56"></polygon><path d="M42,50H58V41a1,1,0,0,0-1-1H43a1,1,0,0,0-1,1Zm11-6h2v2H53Zm-4,0h2v2H49Zm-4,0h2v2H45Z"></path><path d="M45.28,56l.772-2.316A1,1,0,0,1,47,53h6a1,1,0,0,1,.948.684L54.72,56h4.893l-1.334-4H41.721l-1.334,4Z"></path><polygon points="47.387 56 52.613 56 52.279 55 47.721 55 47.387 56"></polygon><rect x="40" y="58" width="20" height="2"></rect><polygon points="22.12 4 21.88 4 21.13 10 22.87 10 22.12 4"></polygon><path d="M45,12H19v6H45ZM25,16H23V14h2Zm8,0H31V14h2Zm4,0H35V14h2Zm4,0H39V14h2Z"></path><polygon points="42.12 4 41.88 4 41.13 10 42.87 10 42.12 4"></polygon><path d="M32,24a8,8,0,1,0,8,8A8.009,8.009,0,0,0,32,24Zm1,13H31V35h2Zm1.121-3.122a3.074,3.074,0,0,0-4.242,0l-1.414-1.414a5,5,0,0,1,7.07,0ZM36.95,31.05a7.011,7.011,0,0,0-9.9,0l-1.414-1.414a9.01,9.01,0,0,1,12.728,0Z"></path><path d="M15,22a2.993,2.993,0,0,0-1,5.816V32h2V27.816A2.993,2.993,0,0,0,15,22Z"></path><rect x="14" y="34" width="2" height="2"></rect><path d="M48,22a2.993,2.993,0,0,0-1,5.816V32h2V27.816A2.993,2.993,0,0,0,48,22Z"></path><rect x="47" y="34" width="2" height="2"></rect><path d="M56,30.184V26H54v4.184a3,3,0,1,0,2,0Z"></path><rect x="54" y="22" width="2" height="2"></rect><path d="M10,30.184V26H8v4.184a3,3,0,1,0,2,0Z"></path><rect x="8" y="22" width="2" height="2"></rect></g></svg>