<svg xmlns="http://www.w3.org/2000/svg" viewBox="0 0 64 64" x="0px" y="0px"><title>Report</title><g data-name="Report"><path d="M56.019,6H7.981A2.985,2.985,0,0,0,5,8.981V43.019A2.985,2.985,0,0,0,7.981,46H24v6H23a1,1,0,0,0-1,1v3H18v2H46V56H42V53a1,1,0,0,0-1-1H40V46H56.019A2.985,2.985,0,0,0,59,43.019V8.98A2.984,2.984,0,0,0,56.019,6ZM24,56V54H40v2Zm14-4H26V46H38Zm19-8.981a.982.982,0,0,1-.981.981H7.981A.982.982,0,0,1,7,43.019V8.981A.982.982,0,0,1,7.981,8H56.02a.98.98,0,0,1,.98.98Z"></path><rect x="10" y="36" width="44" height="2"></rect><path d="M52,11H12a2,2,0,0,0-2,2V34h2V13H52V34h2V13A2,2,0,0,0,52,11Z"></path><path d="M26,26a1,1,0,0,0-.707.293l-5,5,1.414,1.414L26.414,28H34a1,1,0,0,0,.707-.293L42,20.414V22h2V18a1,1,0,0,0-1-1H39v2h1.586l-7,7Z"></path></g></svg>