<svg xmlns="http://www.w3.org/2000/svg" viewBox="0 0 64 64" x="0px" y="0px"><g data-name="Email Marketing"><rect x="24" y="14" width="16.001" height="6"></rect><polygon points="8 56.586 20.586 44 8 31.414 8 56.586"></polygon><path d="M18,38.586,24.414,45H39.586L46,38.586V7a3,3,0,0,0-3-3H38V6a2,2,0,0,1-2,2H28a2,2,0,0,1-2-2V4H21a3,3,0,0,0-3,3ZM42,27H26V25H42ZM22,14a2,2,0,0,1,2-2H40a2,2,0,0,1,2,2v6a2,2,0,0,1-2,2H24a2,2,0,0,1-2-2Zm0,11h2v2H22Zm0,4H42v2H22Zm0,4H42v2H22Zm0,4H42v2H22Z"></path><polygon points="9.414 30 16 36.586 16 30 9.414 30"></polygon><polygon points="54.586 30 48 30 48 36.586 54.586 30"></polygon><rect x="28" y="4" width="8" height="2"></rect><polygon points="56 56.586 56 31.414 43.414 44 56 56.586"></polygon><path d="M9,60H55a.993.993,0,0,0,.93-.656L42,45.414l-1.293,1.293A1,1,0,0,1,40,47H24a1,1,0,0,1-.707-.293L22,45.414,8.07,59.344A.993.993,0,0,0,9,60Z"></path></g></svg>