<svg xmlns="http://www.w3.org/2000/svg" viewBox="0 0 64 64" x="0px" y="0px"><g data-name="Travel"><path d="M61.929,40.629,58,30.808V23a5.006,5.006,0,0,0-5-5H46V12a5.006,5.006,0,0,0-5-5H23a5.006,5.006,0,0,0-5,5v6H11a5.006,5.006,0,0,0-5,5v7.808L2.071,40.629A1,1,0,0,0,2,41v8a5.006,5.006,0,0,0,5,5H8v1a2,2,0,0,0,2,2h2a2,2,0,0,0,2-2V54H50v1a2,2,0,0,0,2,2h2a2,2,0,0,0,2-2V54h1a5.006,5.006,0,0,0,5-5V41A1,1,0,0,0,61.929,40.629ZM42,9.171A3.006,3.006,0,0,1,44,12V23H42ZM40,18H24V13H40Zm0-7H24V9H40ZM20,12a3.006,3.006,0,0,1,2-2.829V23H20Zm-9,8h7v4a1,1,0,0,0,1,1h4a1,1,0,0,0,1-1V20H40v4a1,1,0,0,0,1,1h4a1,1,0,0,0,1-1V20h7a3,3,0,0,1,3,3v4H8V23A3,3,0,0,1,11,20Zm1,35H10V54h2Zm42,0H52V54h2Zm6-6a3,3,0,0,1-3,3H7a3,3,0,0,1-3-3V41.192l3.929-9.821A1,1,0,0,0,8,31V29H56v2a1,1,0,0,0,.071.371L60,41.192Z"></path></g></svg>