<svg xmlns="http://www.w3.org/2000/svg" viewBox="0 0 64 64" x="0px" y="0px"><g><path d="M32,38a5,5,0,1,0,5,5A5.006,5.006,0,0,0,32,38Zm0,8a3,3,0,1,1,3-3A3,3,0,0,1,32,46Z"></path><circle cx="32" cy="43" r="1"></circle><path d="M29,49.315V53l2.4-1.8a1,1,0,0,1,1.2,0L35,53V49.315a6.912,6.912,0,0,1-6,0Z"></path><path d="M12,60H52a1,1,0,0,0,1-1V12.846a.992.992,0,0,0-.292-.706L46,5.417V11a1,1,0,0,0,1,1h4v2H47a3,3,0,0,1-3-3V4H12a1,1,0,0,0-1,1V59A1,1,0,0,0,12,60ZM37,47.889V55a1,1,0,0,1-1.6.8L32,53.25,28.6,55.8A1,1,0,0,1,27,55V47.889a7,7,0,1,1,10,0ZM26,18H38v2H26Zm-2,4H44v2H24Zm-4,0h2v2H20Zm0,4H44v2H20Z"></path></g></svg>