<svg xmlns="http://www.w3.org/2000/svg" data-name="Stop Watch" viewBox="0 0 64 64" x="0px" y="0px"><path d="M52.371,19.873l1.546-1.546a1,1,0,0,0,0-1.414l-2.83-2.83a1,1,0,0,0-1.414,0l-1.546,1.546A25.867,25.867,0,0,0,35,10.178V8h1a2,2,0,0,0,2-2V4a2,2,0,0,0-2-2H28a2,2,0,0,0-2,2V6a2,2,0,0,0,2,2h1v2.178a25.867,25.867,0,0,0-13.127,5.451l-1.546-1.546a1,1,0,0,0-1.414,0l-2.83,2.83a1,1,0,0,0,0,1.414l1.546,1.546a26,26,0,1,0,40.742,0ZM50.38,16.2,51.8,17.62l-.728.729q-.681-.735-1.417-1.417ZM28,4h8l0,2H28Zm3,4h2v2.025c-.332-.012-.665-.025-1-.025s-.668.013-1,.025ZM12.2,17.62,13.62,16.2l.729.728q-.735.681-1.417,1.417ZM32,60A24,24,0,1,1,56,36,24.028,24.028,0,0,1,32,60Z"></path><path d="M34.7,37.285A2.951,2.951,0,0,0,35,36a3,3,0,1,0-3,3,2.951,2.951,0,0,0,1.285-.3l6.008,6.008,1.414-1.414ZM31,36a1,1,0,1,1,1,1A1,1,0,0,1,31,36Z"></path><rect x="31" y="14" width="2" height="4"></rect><rect x="25.823" y="14.682" width="2" height="4" transform="translate(-3.404 7.511) rotate(-15)"></rect><rect x="21" y="16.679" width="2" height="4" transform="translate(-6.392 13.503) rotate(-30.002)"></rect><rect x="16.858" y="19.857" width="2" height="4.001" transform="translate(-10.225 19.029) rotate(-45)"></rect><rect x="13.679" y="24" width="2" height="4" transform="translate(-15.177 25.712) rotate(-59.998)"></rect><rect x="11.682" y="28.823" width="2" height="4" transform="translate(-20.374 35.095) rotate(-75)"></rect><rect x="10" y="35" width="4" height="2"></rect><rect x="10.682" y="40.177" width="4" height="2" transform="translate(-10.225 4.685) rotate(-15)"></rect><rect x="12.679" y="45" width="4" height="2" transform="translate(-21.034 13.503) rotate(-30.002)"></rect><rect x="15.857" y="49.142" width="4.001" height="2" transform="translate(-30.225 27.314) rotate(-45)"></rect><rect x="20" y="52.321" width="4" height="2" transform="translate(-35.178 45.718) rotate(-60.005)"></rect><rect x="24.823" y="54.318" width="4" height="2" transform="translate(-33.553 66.91) rotate(-75)"></rect><rect x="31" y="54" width="2" height="4"></rect><rect x="36.177" y="53.319" width="2" height="4" transform="translate(-13.051 11.507) rotate(-15)"></rect><rect x="41" y="51.321" width="2" height="4" transform="translate(-21.034 28.145) rotate(-30.002)"></rect><rect x="45.142" y="48.142" width="2" height="4.001" transform="translate(-21.941 47.314) rotate(-45)"></rect><rect x="48.321" y="44" width="2" height="4" transform="translate(-15.177 65.711) rotate(-59.998)"></rect><rect x="50.318" y="39.177" width="2" height="4" transform="translate(-1.737 80.089) rotate(-75)"></rect><rect x="50" y="35" width="4" height="2"></rect><rect x="49.319" y="29.823" width="4" height="2" transform="translate(-6.229 14.332) rotate(-15)"></rect><rect x="47.321" y="25" width="4" height="2" transform="translate(-6.392 28.145) rotate(-30.002)"></rect><rect x="44.142" y="20.858" width="4.001" height="2" transform="translate(-1.941 39.029) rotate(-45)"></rect><rect x="40" y="17.679" width="4" height="2" transform="translate(4.826 45.716) rotate(-60.005)"></rect><rect x="35.177" y="15.682" width="4" height="2" transform="translate(11.442 48.274) rotate(-75)"></rect></svg>