<svg xmlns="http://www.w3.org/2000/svg" viewBox="0 0 64 64" x="0px" y="0px"><g><path d="M59,34H54.905A24.919,24.919,0,0,0,57,24a22,22,0,0,0-44-.354l-6.484,8.11A2,2,0,0,0,8.08,35H11V45a5.006,5.006,0,0,0,5,5h5V61a1,1,0,0,0,1,1H48a1,1,0,0,0,1-1V58H59a3,3,0,0,0,3-3V37A3,3,0,0,0,59,34ZM47,60H23V49a1,1,0,0,0-1-1H16a3,3,0,0,1-3-3V34a1,1,0,0,0-1-1L8.081,33l6.7-8.38A1,1,0,0,0,15,24a20,20,0,1,1,40,0,22.52,22.52,0,0,1-2.306,10H31a3,3,0,0,0-3,3V55a3,3,0,0,0,3,3H47Zm13-5a1,1,0,0,1-1,1H31a1,1,0,0,1-1-1V37a1,1,0,0,1,1-1H59a1,1,0,0,1,1,1Z"></path><path d="M34,46h6a2,2,0,0,0,2-2V40a2,2,0,0,0-2-2H34a2,2,0,0,0-2,2v4A2,2,0,0,0,34,46Zm6-2H38V40h2Zm-6-4h2v4H34Z"></path><rect x="44" y="43" width="14" height="2"></rect><rect x="32" y="48" width="2" height="2"></rect><rect x="36" y="48" width="2" height="2"></rect><rect x="40" y="48" width="2" height="2"></rect><rect x="44" y="48" width="2" height="2"></rect><rect x="32" y="51" width="14" height="2"></rect><path d="M55,48H51a3,3,0,0,0,0,6h4a3,3,0,0,0,0-6Zm0,4H51a1,1,0,0,1,0-2h4a1,1,0,0,1,0,2Z"></path><rect x="48" y="39" width="2" height="2"></rect><rect x="52" y="39" width="2" height="2"></rect><rect x="56" y="39" width="2" height="2"></rect><rect x="44" y="39" width="2" height="2"></rect><path d="M36,26V25a3,3,0,0,0,0-6H34a1,1,0,0,1,0-2h2a1,1,0,0,1,1,1h2a3,3,0,0,0-3-3V14H34v1a3,3,0,0,0,0,6h2a1,1,0,0,1,0,2H34a1,1,0,0,1-1-1H31a3,3,0,0,0,3,3v1Z"></path><path d="M45,20A10,10,0,1,0,35,30,10.011,10.011,0,0,0,45,20ZM27,20a8,8,0,1,1,8,8A8.009,8.009,0,0,1,27,20Z"></path></g></svg>