<svg xmlns="http://www.w3.org/2000/svg" viewBox="0 0 64 64" x="0px" y="0px"><g data-name="Email Marketing"><path d="M57,28H48V7a5.006,5.006,0,0,0-5-5H21a5.006,5.006,0,0,0-5,5V28H7a1,1,0,0,0-1,1V59a3,3,0,0,0,3,3H55a3,3,0,0,0,3-3V29A1,1,0,0,0,57,28ZM43.414,44,56,31.414V56.586ZM54.586,30,48,36.586V30ZM28,4h8V6H28ZM21,4h5V6a2,2,0,0,0,2,2h8a2,2,0,0,0,2-2V4h5a3,3,0,0,1,3,3V38.586L39.586,45H24.414L18,38.586V7A3,3,0,0,1,21,4Zm-.414,40L8,56.586V31.414ZM16,36.586,9.414,30H16ZM55,60H9a.993.993,0,0,1-.93-.656L22,45.414l1.293,1.293A1,1,0,0,0,24,47H40a1,1,0,0,0,.707-.293L42,45.414l13.93,13.93A.993.993,0,0,1,55,60Z"></path><path d="M24,22H40a2,2,0,0,0,2-2V14a2,2,0,0,0-2-2H24a2,2,0,0,0-2,2v6A2,2,0,0,0,24,22Zm0-8H40l0,6H24Z"></path><rect x="22" y="25" width="2" height="2"></rect><rect x="26" y="25" width="16" height="2"></rect><rect x="22" y="29" width="20" height="2"></rect><rect x="22" y="33" width="20" height="2"></rect><rect x="22" y="37" width="20" height="2"></rect></g></svg>