<svg xmlns="http://www.w3.org/2000/svg" viewBox="0 0 64 64" x="0px" y="0px"><g data-name="skyscraper-building-tower-city-real estate"><polygon points="35 5.62 32 4.12 29 5.62 29 8 35 8 35 5.62"></polygon><path d="M55,60V23.57L45.72,18H41V60H39V10H25V60H23V18H18.28L9,23.57V60H3v2H61V60ZM51,24h2v2H51Zm0,4h2v2H51Zm0,4h2v2H51Zm0,4h2v2H51Zm0,4h2v2H51Zm0,4h2v2H51Zm0,4h2v2H51Zm0,4h2v2H51Zm0,4h2v2H51ZM47,24h2v2H47Zm0,4h2v2H47Zm0,4h2v2H47Zm0,4h2v2H47Zm0,4h2v2H47Zm0,4h2v2H47Zm0,4h2v2H47Zm0,4h2v2H47Zm0,4h2v2H47ZM43,24h2v2H43Zm0,4h2v2H43Zm0,4h2v2H43Zm0,4h2v2H43Zm0,4h2v2H43Zm0,4h2v2H43Zm0,4h2v2H43Zm0,4h2v2H43Zm0,4h2v2H43ZM19,24h2v2H19Zm0,4h2v2H19Zm0,4h2v2H19Zm0,4h2v2H19Zm0,4h2v2H19Zm0,4h2v2H19Zm0,4h2v2H19Zm0,4h2v2H19Zm0,4h2v2H19ZM15,24h2v2H15Zm0,4h2v2H15Zm0,4h2v2H15Zm0,4h2v2H15Zm0,4h2v2H15Zm0,4h2v2H15Zm0,4h2v2H15Zm0,4h2v2H15Zm0,4h2v2H15ZM11,24h2v2H11Zm0,4h2v2H11Zm0,4h2v2H11Zm0,4h2v2H11Zm0,4h2v2H11Zm0,4h2v2H11Zm0,4h2v2H11Zm0,4h2v2H11Zm0,4h2v2H11ZM35,12h2v2H35Zm0,4h2v2H35Zm0,4h2v2H35Zm0,4h2v2H35Zm0,4h2v2H35Zm0,4h2v2H35Zm0,4h2v2H35Zm0,4h2v2H35Zm0,4h2v2H35Zm0,4h2v2H35Zm0,4h2v2H35ZM31,12h2v2H31Zm0,4h2v2H31Zm0,4h2v2H31Zm0,4h2v2H31Zm0,4h2v2H31Zm0,4h2v2H31Zm0,4h2v2H31Zm0,4h2v2H31Zm0,4h2v2H31Zm0,4h2v2H31Zm0,4h2v2H31ZM27,12h2v2H27Zm0,4h2v2H27Zm0,4h2v2H27Zm0,4h2v2H27Zm0,4h2v2H27Zm0,4h2v2H27Zm0,4h2v2H27Zm0,4h2v2H27Zm0,4h2v2H27Zm0,4h2v2H27Zm0,4h2v2H27Zm8,8V58H29v2H27V57a1,1,0,0,1,1-1h8a1,1,0,0,1,1,1v3Z"></path></g></svg>