<svg xmlns="http://www.w3.org/2000/svg" viewBox="0 0 64 64" x="0px" y="0px"><g><path d="M62,52V13a5,5,0,0,0-5-5H39.89A7.048,7.048,0,0,0,36,6.08V3a1,1,0,0,0-1-1H23a1,1,0,0,0-1,1V27H21a1,1,0,0,0-1,1v4a1,1,0,0,0,1,1h2v.76l-1.78,1.77a2.028,2.028,0,0,0,0,2.84l1.41,1.41a2.028,2.028,0,0,0,2.84,0l.53-.53V40a2.006,2.006,0,0,0,2,2h2a2.006,2.006,0,0,0,2-2v-.76l.53.54a2.028,2.028,0,0,0,2.84,0l1.41-1.41a2.028,2.028,0,0,0,0-2.84L35,33.76V33h2a1,1,0,0,0,1-1V28a1,1,0,0,0-1-1H36V19.92A7.048,7.048,0,0,0,39.89,18h7.7L52,22.41V46H45a3.009,3.009,0,0,0-3,3v7H32V54h5a1,1,0,0,0,1-1V49a1,1,0,0,0-1-1H36V46h2V44H20v2h2v2H21a1,1,0,0,0-1,1v4a1,1,0,0,0,1,1h5v2H13a1,1,0,0,0-1,1v4a1,1,0,0,0,1,1H61a1,1,0,0,0,1-1V57a1,1,0,0,0-1-1H59.08l2.7-3.38A.977.977,0,0,0,62,52ZM24,4H34V6.08a6.991,6.991,0,0,0,0,13.84V27H24Zm.05,34.36-1.41-1.41,1.45-1.45,1.41,1.42ZM30,40H28V38h2Zm.59-4H27.41L25,33.59V33h8v.59Zm4.77.95-1.41,1.41L32.5,36.92l1.41-1.42ZM36,31H22V29H36ZM35,18a5,5,0,1,1,5-5A5,5,0,0,1,35,18ZM24,46H34v2H24Zm-2,6V50H36v2Zm8,2v2H28V54Zm30,4v2H14V58Zm0-6.35L56.52,56H44V49a1,1,0,0,1,1-1h8a1,1,0,0,0,1-1V22a1.033,1.033,0,0,0-.29-.71l-5-5A1.033,1.033,0,0,0,48,16H41.31a6.867,6.867,0,0,0,0-6H57a3.009,3.009,0,0,1,3,3Z"></path><circle cx="55" cy="15" r="2"></circle><circle cx="35" cy="13" r="2"></circle><polygon points="10 30 8 30 8 32 6 32 6 34 8 34 8 36 10 36 10 34 12 34 12 32 10 32 10 30"></polygon><path d="M16.32,39.07l-.98-3.12a7.035,7.035,0,0,0-1.39-7.9,7,7,0,0,0-9.9,9.9,7.035,7.035,0,0,0,7.9,1.39l3.11.98a1.032,1.032,0,0,0,.3.04,1,1,0,0,0,.96-1.29Zm-3.01-2.9.53,1.67-1.68-.53a.991.991,0,0,0-.77.08,5,5,0,0,1-5.93-7.93,5.022,5.022,0,0,1,7.08,0,5.047,5.047,0,0,1,.85,5.93A1.011,1.011,0,0,0,13.31,36.17Z"></path></g></svg>