<svg xmlns="http://www.w3.org/2000/svg" viewBox="0 0 64 64" x="0px" y="0px"><g data-name="Ai-Artificial Intelligence-Computer-Brain-Technology"><path d="M55.707,56.293l-6-6A1,1,0,0,0,49,50H19V48a3,3,0,0,0-3-3H10a1,1,0,0,1,0-2h6a3,3,0,0,0,3-3V38h7v4H22a1,1,0,0,0-1,1v4a1,1,0,0,0,1,1H42a1,1,0,0,0,1-1V43a1,1,0,0,0-1-1H38V38H52a3,3,0,0,0,3-3V9a3,3,0,0,0-3-3H45V8h7a1,1,0,0,1,1,1V30H11V9a1,1,0,0,1,1-1h7V6H12A3,3,0,0,0,9,9V35a3,3,0,0,0,3,3h5v2a1,1,0,0,1-1,1H10a3,3,0,0,0,0,6h6a1,1,0,0,1,1,1v2H15a1,1,0,0,0-.707.293l-6,6A1,1,0,0,0,8,57v3a2,2,0,0,0,2,2H54a2,2,0,0,0,2-2V57A1,1,0,0,0,55.707,56.293ZM41,46H23V44H41Zm-5-4H28V38h8ZM11,35V32H53v3a1,1,0,0,1-1,1H12A1,1,0,0,1,11,35Zm4.414,17H48.586l4,4H11.414ZM10,60V58H54v2Z"></path><rect x="16" y="53" width="2" height="2"></rect><rect x="20" y="53" width="2" height="2"></rect><rect x="42" y="53" width="2" height="2"></rect><rect x="24" y="53" width="16" height="2"></rect><rect x="46" y="53" width="2" height="2"></rect><rect x="47" y="33" width="2" height="2"></rect><path d="M19,17a1,1,0,0,0,.684.949L22,18.721V21a1,1,0,0,0,.293.707l1,1A1,1,0,0,0,24,23h1.465l1.7,2.555A1,1,0,0,0,28,26h2a1,1,0,0,0,.707-.293L32,24.414l1.293,1.293A1,1,0,0,0,34,26h2a1,1,0,0,0,.832-.445L38.535,23H40a1,1,0,0,0,.707-.293l1-1A1,1,0,0,0,42,21V18.721l2.316-.772A1,1,0,0,0,45,17V13a1,1,0,0,0-.553-.895L43,11.382V8a1,1,0,0,0-.758-.97L39,6.219V5a1,1,0,0,0-.293-.707l-2-2A1,1,0,0,0,36,2H34a1,1,0,0,0-.832.445L32,4.2,30.832,2.445A1,1,0,0,0,30,2H28a1,1,0,0,0-.707.293l-2,2A1,1,0,0,0,25,5V6.219l-3.242.811A1,1,0,0,0,21,8v3.382l-1.447.723A1,1,0,0,0,19,13ZM34.535,4h1.051L37,5.414V6.586L35.293,8.293A1,1,0,0,0,35,9v3h2V9.414l1.307-1.307L41,8.781V11H40v2h1.764L43,13.618v2.661l-1.73.577L40,15.586V15H38v1a1,1,0,0,0,.293.707L40,18.414v2.172L39.586,21H38a1,1,0,0,0-.832.445L35.465,24H34.414L33,22.586V6.3ZM21,13.618,22.236,13H24V11H23V8.781l2.693-.674L27,9.414V12h2V9a1,1,0,0,0-.293-.707L27,6.586V5.414L28.414,4h1.051L31,6.3V22.586L29.586,24H28.535l-1.7-2.555A1,1,0,0,0,26,21H24.414L24,20.586V18.414l1.707-1.707A1,1,0,0,0,26,16V15H24v.586l-1.27,1.27L21,16.279Z"></path><path d="M28.293,20.707l1.414-1.414L29,18.586V16H27v3a1,1,0,0,0,.293.707Z"></path><path d="M36.707,19.707A1,1,0,0,0,37,19V16H35v2.586l-.707.707,1.414,1.414Z"></path></g></svg>