<svg xmlns="http://www.w3.org/2000/svg" viewBox="0 0 64 64" x="0px" y="0px"><g data-name="Health Care"><path d="M60.023,40.148l-.705-.7a4.1,4.1,0,0,0-5.656,0L47.4,45.707a1,1,0,0,1-.708.293H46V43a3,3,0,0,0-3-3H20.657a4.968,4.968,0,0,0-3.535,1.465l-3.13,3.129-2.626-4.548a2,2,0,0,0-2.732-.733l-5.2,3a2,2,0,0,0-.732,2.733l9,15.588a2,2,0,0,0,2.732.732l5.2-3a2,2,0,0,0,.9-2.366h26.64a2.978,2.978,0,0,0,2.122-.879l10.73-10.729A3.006,3.006,0,0,0,60.023,40.148ZM13.438,59.634l-9-15.588,5.2-3,9,15.587ZM58.609,42.978,47.879,53.707a1,1,0,0,1-.708.293H19.423l-4.4-7.613,3.509-3.508A3.017,3.017,0,0,1,20.657,42H43a1,1,0,0,1,1,1v3H29a1,1,0,0,0,0,2H46.691a2.978,2.978,0,0,0,2.122-.879l6.263-6.263a2.049,2.049,0,0,1,2.828,0l.7.7A1,1,0,0,1,58.609,42.978Z"></path><path d="M37.459,37.841a1,1,0,0,0,1.082,0C39.131,37.462,53,28.438,53,19a8,8,0,0,0-15-3.87A8,8,0,0,0,23,19C23,28.438,36.869,37.462,37.459,37.841ZM31,13a6.006,6.006,0,0,1,6,6,1,1,0,0,0,2,0,6,6,0,0,1,12,0c0,7.38-10.477,15.054-13,16.794C35.476,34.056,25,26.389,25,19A6.006,6.006,0,0,1,31,13Z"></path><path d="M43,20h1v1a1,1,0,0,0,2,0V20h1a1,1,0,0,0,0-2H46V17a1,1,0,0,0-2,0v1H43a1,1,0,0,0,0,2Z"></path></g></svg>