<svg xmlns="http://www.w3.org/2000/svg" viewBox="0 0 64 64" x="0px" y="0px"><g><polygon points="14 30 16 30 16 28 18 28 18 26 6 26 6 28 14 28 14 30"></polygon><path d="M47,36A11,11,0,1,0,58,47,11.013,11.013,0,0,0,47,36Zm8.941,12a8.956,8.956,0,0,1-1.916,4.611l-1.368-1.368-1.414,1.414,1.368,1.368A8.956,8.956,0,0,1,48,55.941V54H46v1.941a8.956,8.956,0,0,1-4.611-1.916l1.368-1.368-1.414-1.414-1.368,1.368A8.956,8.956,0,0,1,38.059,48H40V46H38.059a8.956,8.956,0,0,1,1.916-4.611l1.368,1.368,1.414-1.414-1.368-1.368A8.956,8.956,0,0,1,46,38.059V40h2V38.059a8.956,8.956,0,0,1,4.611,1.916l-1.368,1.368,1.414,1.414,1.368-1.368A8.956,8.956,0,0,1,55.941,46H54v2Z"></path><path d="M46,46.586l-1.707,1.707,1.414,1.414,2-2A1,1,0,0,0,48,47V42H46Z"></path><path d="M54,33.74V15a3.009,3.009,0,0,0-3-3H40V7a5,5,0,0,0-5-5H21a5,5,0,0,0-5,5v5H5a3.009,3.009,0,0,0-3,3V51a3.009,3.009,0,0,0,3,3H33.74A15,15,0,1,0,54,33.74ZM36,4.17A3.014,3.014,0,0,1,38,7v5H36ZM22,4H34V6H22Zm0,4H34v4H22ZM18,7a3.014,3.014,0,0,1,2-2.83V12H18ZM4,15a1,1,0,0,1,1-1H51a1,1,0,0,1,1,1v5H4Zm48,7V32.88a13.506,13.506,0,0,0-2-.58V22Zm-4,0v5a3.009,3.009,0,0,1-3,3H25a3.009,3.009,0,0,1-3-3V22ZM16,52H8V35a1,1,0,0,1,1-1h6a1,1,0,0,1,1,1Zm2,0V35a3.009,3.009,0,0,0-3-3H9a3.009,3.009,0,0,0-3,3V52H5a1,1,0,0,1-1-1V22H20V49a4.924,4.924,0,0,0,1.03,3Zm14.88,0H25a3.009,3.009,0,0,1-3-3V30.97A4.924,4.924,0,0,0,25,32H45a4.924,4.924,0,0,0,3-1.03v1.08c-.33-.02-.66-.05-1-.05A15.018,15.018,0,0,0,32,47,14.807,14.807,0,0,0,32.88,52ZM47,60A13,13,0,1,1,60,47,13.012,13.012,0,0,1,47,60Z"></path></g></svg>