<svg xmlns="http://www.w3.org/2000/svg" viewBox="0 0 64 64" x="0px" y="0px"><g><path d="M60,51H33.42c2.359-2.419,7.235-4,12.58-4,4.5,0,8.781,1.132,11.439,3.027L58.6,48.4C55.571,46.239,50.979,45,46,45a27.91,27.91,0,0,0-5.673.572,26.114,26.114,0,0,1,4.51-1.393c4.407-.936,8.825-.717,11.819.583l.8-1.834c-3.412-1.483-8.162-1.74-13.032-.7C38.9,43.4,34.261,46.029,32,49.156c-2.261-3.127-6.9-5.759-12.421-6.933-4.871-1.036-9.621-.778-13.032.7l.8,1.834c3-1.3,7.414-1.519,11.819-.583a26.114,26.114,0,0,1,4.51,1.393A27.91,27.91,0,0,0,18,45c-4.979,0-9.571,1.239-12.6,3.4l1.161,1.628C9.219,48.132,13.5,47,18,47c5.345,0,10.221,1.581,12.58,4H4a1,1,0,0,0-1,1v4a1,1,0,0,0,1,1H60a1,1,0,0,0,1-1V52A1,1,0,0,0,60,51ZM5,53H31v2H5Zm54,2H33V53H59Z"></path><path d="M31.534,39.885a1,1,0,0,0,.931,0C33.263,39.465,52,29.483,52,19A11.013,11.013,0,0,0,41,8a10.9,10.9,0,0,0-9,4.687A10.9,10.9,0,0,0,23,8,11.013,11.013,0,0,0,12,19C12,29.483,30.736,39.465,31.534,39.885ZM23,10a8.937,8.937,0,0,1,8.1,5.1,1.041,1.041,0,0,0,1.8,0A8.994,8.994,0,0,1,50,19c0,8.443-15.13,17.264-18,18.86C29.127,36.264,14,27.45,14,19A9.011,9.011,0,0,1,23,10Z"></path></g></svg>