<svg xmlns="http://www.w3.org/2000/svg" viewBox="0 0 64 64" x="0px" y="0px"><g data-name="Heart Check"><path d="M51.252,41.926l-1.634-1.839a2.984,2.984,0,0,0-4.607,0,4.277,4.277,0,0,0,0,5.54L52,53.494l6.988-7.867a4.276,4.276,0,0,0,0-5.54h0a3.052,3.052,0,0,0-4.608,0l-1.633,1.839A1.032,1.032,0,0,1,51.252,41.926Z"></path><path d="M35.913,51l-2.772-8.316a1,1,0,0,0-1.9,0L27.151,54.961l-3.019-8.3A1,1,0,0,0,23.208,46a.974.974,0,0,0-.944.628L20.516,51H15V26h2a9.01,9.01,0,0,0,9-9V7a1,1,0,0,0-1-1H22V5H18a1,1,0,0,0-1,1V8a1,1,0,0,0,1,1h4V8h2v9a7.008,7.008,0,0,1-7,7H11a7.008,7.008,0,0,1-7-7V8H6V9h4a1,1,0,0,0,1-1V6a1,1,0,0,0-1-1H6V6H3A1,1,0,0,0,2,7V17a9.01,9.01,0,0,0,9,9h2V52a1,1,0,0,0,1,1h7.192a1,1,0,0,0,.929-.628L23.147,49.8l3.106,8.538a1,1,0,0,0,.939.658h.014a1,1,0,0,0,.935-.684l4.051-12.154,2.052,6.154a1,1,0,0,0,.948.684H52V51Z"></path></g></svg>