<svg xmlns="http://www.w3.org/2000/svg" viewBox="0 0 64 64" x="0px" y="0px"><g><path d="M61,52H60V21a5.006,5.006,0,0,0-5-5H46.327l2.033-2.71a1,1,0,0,0-.093-1.307l-4.25-4.25a1,1,0,0,0-1.307-.092l-3.484,2.612a.977.977,0,0,1-1.009.1c-.314-.136-.64-.273-.982-.4a.971.971,0,0,1-.625-.784l-.62-4.31A1,1,0,0,0,35,4H29a1,1,0,0,0-.99.857l-.621,4.316a.969.969,0,0,1-.631.78c-.335.126-.661.263-.992.406a.975.975,0,0,1-1-.109L21.29,7.641a1,1,0,0,0-1.307.092l-4.25,4.25a1,1,0,0,0-.093,1.307L17.673,16H9a5.006,5.006,0,0,0-5,5V52H3a1,1,0,0,0-1,1v4a3,3,0,0,0,3,3H59a3,3,0,0,0,3-3V53A1,1,0,0,0,61,52ZM20.784,9.761l2.781,2.086a2.968,2.968,0,0,0,3.013.341c.285-.125.579-.248.877-.36A2.961,2.961,0,0,0,29.37,9.452L29.866,6h4.268l.495,3.446a2.962,2.962,0,0,0,1.91,2.38c.3.114.6.237.866.354a2.969,2.969,0,0,0,3.025-.33l2.786-2.089,3.024,3.023-2.086,2.781a2.962,2.962,0,0,0-.342,3.011c.124.286.248.58.359.879a2.963,2.963,0,0,0,2.376,1.915l3.453.5v4.268l-3.447.5a2.96,2.96,0,0,0-2.38,1.91c-.112.3-.235.593-.358.876a2.969,2.969,0,0,0,.335,3.014l2.09,2.786-3.024,3.023-2.781-2.086a2.97,2.97,0,0,0-3.013-.341c-.285.125-.579.248-.877.36a2.961,2.961,0,0,0-1.915,2.376L34.134,42H29.866l-.5-3.446a2.974,2.974,0,0,0-1.942-2.391c-.059-.02-.118-.048-.261-.107-.163-.057-.32-.126-.471-.192l-.1-.044a2.959,2.959,0,0,0-3.006.316L23.5,36.2l-2.716,2.039L17.76,35.216l2.086-2.781a2.962,2.962,0,0,0,.342-3.011c-.124-.286-.248-.58-.359-.879a2.963,2.963,0,0,0-2.376-1.915L14,26.134V21.866l3.447-.5a2.96,2.96,0,0,0,2.38-1.91c.113-.3.237-.6.354-.867a2.969,2.969,0,0,0-.331-3.023l-2.09-2.786ZM6,21a3,3,0,0,1,3-3h9.264c-.106.25-.213.5-.312.766a.971.971,0,0,1-.785.624l-4.31.62A1,1,0,0,0,12,21v6a1,1,0,0,0,.857.99l4.316.62a.971.971,0,0,1,.78.629c.126.337.263.662.406.994a.975.975,0,0,1-.109,1l-2.61,3.48a1,1,0,0,0,.093,1.307l4.25,4.25a1,1,0,0,0,1.307.092l3.391-2.545.093-.067a.98.98,0,0,1,1.013-.1l.115.05c.2.085.4.172.538.218.117.052.234.1.325.132a.971.971,0,0,1,.625.784l.62,4.31A1,1,0,0,0,29,44h6a1,1,0,0,0,.99-.857l.621-4.316a.969.969,0,0,1,.631-.78c.335-.126.661-.263.992-.406a.969.969,0,0,1,1,.109l3.48,2.609a1,1,0,0,0,1.307-.092l4.25-4.25a1,1,0,0,0,.093-1.307l-2.613-3.484a.973.973,0,0,1-.106-.993l.007-.016c.136-.316.273-.641.4-.983a.971.971,0,0,1,.785-.624l4.31-.62A1,1,0,0,0,52,27V21a1,1,0,0,0-.857-.99l-4.316-.62a.971.971,0,0,1-.78-.629c-.1-.258-.2-.509-.311-.761H55a3,3,0,0,1,3,3V52H6ZM37,55H27V54H37Zm23,2a1,1,0,0,1-1,1H5a1,1,0,0,1-1-1V54H25v1a2,2,0,0,0,2,2H37a2,2,0,0,0,2-2V54H60Z"></path><path d="M33,27H31a1,1,0,0,1-1-1H28a3,3,0,0,0,3,3v1h2V29a3,3,0,0,0,0-6H31a1,1,0,0,1,0-2h2a1,1,0,0,1,1,1h2a3,3,0,0,0-3-3V18H31v1a3,3,0,0,0,0,6h2a1,1,0,0,1,0,2Z"></path><path d="M32,34A10,10,0,1,0,22,24,10.011,10.011,0,0,0,32,34Zm0-18a8,8,0,1,1-8,8A8.009,8.009,0,0,1,32,16Z"></path><rect x="10" y="47" width="44" height="2"></rect></g></svg>