<svg xmlns="http://www.w3.org/2000/svg" viewBox="0 0 64 64" x="0px" y="0px"><g data-name="Wind Energy"><circle cx="52" cy="12" r="3"></circle><rect x="51" y="2" width="2" height="2"></rect><rect x="44.636" y="4.636" width="2" height="2" transform="translate(9.381 33.92) rotate(-45)"></rect><rect x="42" y="11" width="2" height="2"></rect><rect x="44.636" y="17.364" width="2" height="2" transform="translate(0.381 37.648) rotate(-45)"></rect><rect x="51" y="20" width="2" height="2"></rect><rect x="57.364" y="17.364" width="2" height="2" transform="translate(4.109 46.648) rotate(-45)"></rect><rect x="60" y="11" width="2" height="2"></rect><rect x="57.364" y="4.636" width="2" height="2" transform="translate(13.109 42.92) rotate(-45)"></rect><path d="M28,9a4,4,0,0,0-4,4h2a2,2,0,1,1,2,2H16v2H28a4,4,0,0,0,0-8Z"></path><path d="M22,9a4,4,0,0,0-8,0h2a2,2,0,1,1,2,2H6v2H18A4,4,0,0,0,22,9Z"></path><rect x="12" y="15" width="2" height="2"></rect><rect x="8" y="15" width="2" height="2"></rect><rect x="2" y="11" width="2" height="2"></rect><path d="M16.792,34.119,16.069,24h-.138l-.723,10.119a2.7,2.7,0,0,1,1.584,0Z"></path><path d="M18.892,37.756a2.986,2.986,0,0,1-.784,1.374l9.116,4.43.069-.12Z"></path><path d="M13.108,37.756l-8.4,5.684.069.12,9.116-4.43A2.986,2.986,0,0,1,13.108,37.756Z"></path><path d="M17.47,49.9,17.95,60h-3.9l.48-10.1a12.916,12.916,0,0,1-6.82-2.88l1.28-1.54a11.3,11.3,0,0,0,1.51,1.05,11.1,11.1,0,0,0,4.12,1.38l.1-2.01a8.824,8.824,0,0,1-3.22-1.11l1-1.73a6.782,6.782,0,0,0,2.32.82l.14-3.05,1.04-.5,1.04.5.14,3.05A6.972,6.972,0,0,0,19.61,43l1.03,1.71a8.857,8.857,0,0,1-3.36,1.19l.1,2a10.949,10.949,0,0,0,5.77-2.54l1.3,1.52A12.892,12.892,0,0,1,17.47,49.9Z"></path><path d="M23,37h2a9.011,9.011,0,0,0-4.64-7.875l-.97,1.749A7.01,7.01,0,0,1,23,37Z"></path><path d="M12.61,30.874l-.97-1.749A9.011,9.011,0,0,0,7,37H9A7.01,7.01,0,0,1,12.61,30.874Z"></path><circle cx="16" cy="37" r="1"></circle><path d="M28.82,39.166A13.017,13.017,0,0,0,20.333,24.74l-.666,1.885a11.02,11.02,0,0,1,7.181,12.209Z"></path><path d="M12.333,26.625l-.666-1.885A13.017,13.017,0,0,0,3.18,39.166l1.972-.332a11.02,11.02,0,0,1,7.181-12.209Z"></path><path d="M49.47,49.9,49.95,60h-3.9l.48-10.1a12.916,12.916,0,0,1-6.82-2.88l1.28-1.54a11.3,11.3,0,0,0,1.51,1.05,11.1,11.1,0,0,0,4.12,1.38l.1-2.01a8.824,8.824,0,0,1-3.22-1.11l1-1.73a6.782,6.782,0,0,0,2.32.82l.14-3.05,1.04-.5,1.04.5.14,3.05A6.972,6.972,0,0,0,51.61,43l1.03,1.71a8.857,8.857,0,0,1-3.36,1.19l.1,2a10.949,10.949,0,0,0,5.77-2.54l1.3,1.52A12.892,12.892,0,0,1,49.47,49.9Z"></path><path d="M50.9,37.768a2.941,2.941,0,0,1-.79,1.359l.334.162,8.774,4.273.072-.124Z"></path><path d="M48.79,34.1,48.069,24h-.138l-.722,10.112A2.948,2.948,0,0,1,48.79,34.1Z"></path><path d="M45.1,37.761l-8.39,5.677.072.124L45.9,39.127A2.952,2.952,0,0,1,45.1,37.761Z"></path><path d="M52.36,29.125l-.97,1.749A7.01,7.01,0,0,1,55,37h2A9.011,9.011,0,0,0,52.36,29.125Z"></path><circle cx="48" cy="37" r="1"></circle><path d="M39,37h2a7.01,7.01,0,0,1,3.61-6.126l-.97-1.749A9.011,9.011,0,0,0,39,37Z"></path><path d="M60.82,39.166A13.017,13.017,0,0,0,52.333,24.74l-.666,1.885a11.02,11.02,0,0,1,7.181,12.209Z"></path><path d="M37.152,38.834a11.02,11.02,0,0,1,7.181-12.209l-.666-1.885A13.017,13.017,0,0,0,35.18,39.166Z"></path></g></svg>