<svg xmlns="http://www.w3.org/2000/svg" viewBox="0 0 64 64" x="0px" y="0px"><g><polygon points="53 10 55 10 55 8 57 8 57 6 55 6 55 4 53 4 53 6 51 6 51 8 53 8 53 10"></polygon><rect x="46" y="12" width="6" height="2"></rect><rect x="51" y="16" width="6" height="2"></rect><polygon points="53 54 51 54 51 56 49 56 49 58 51 58 51 60 53 60 53 58 55 58 55 56 53 56 53 54"></polygon><path d="M41,41v1a1,1,0,0,1-.293.707L40,43.414v1.354a8.965,8.965,0,0,0,3.888-1.977L41.649,41Z"></path><path d="M19,7H31a1,1,0,0,0,1-1V4H18V6A1,1,0,0,0,19,7Z"></path><path d="M35,41v-.382L33.553,39.9A1,1,0,0,1,33,39V37a1,1,0,0,1,.445-.832L36,34.465V33.414l-.707-.707A1,1,0,0,1,35,32V29.333l-1.028-1.37A8.985,8.985,0,0,0,29.71,39.5L33.205,41Z"></path><path d="M42,55.6A20,20,0,1,1,42,16.4V7a3,3,0,0,0-3-3H34V6a3,3,0,0,1-3,3H19a3,3,0,0,1-3-3V4H11A3,3,0,0,0,8,7V57a3,3,0,0,0,3,3H39a3,3,0,0,0,3-3ZM30,11h2v2H30Zm-4,0h2v2H26Zm-4,0h2v2H22Zm1.339,5.972L24.625,18.5,23.093,19.79l-1.286-1.533ZM21.79,21.093,20.5,22.625l-1.532-1.286,1.285-1.532ZM18,11h2v2H18Zm-.285,12.134,1.732,1-1,1.732-1.732-1Zm-1.926,3.718,1.879.684-.684,1.879-1.879-.684Zm-1.251,4,1.97.347-.347,1.97-1.97-.348ZM14,35h2v2H14Zm.191,4.183,1.97-.348.347,1.97-1.97.347Zm.914,4.086,1.879-.684.684,1.879-1.879.684Zm1.61,3.865,1.732-1,1,1.732-1.732,1Zm3.542,5.059-1.285-1.532L20.5,49.375l1.286,1.532Zm3.082,2.835-1.532-1.285,1.286-1.533L24.625,53.5Zm3.527,2.257-1.732-1,1-1.732,1.732,1Z"></path><path d="M44,30.236V32a1,1,0,0,1-.553.9L42,33.618v1.661L44.162,36H47a8.97,8.97,0,0,0-2.682-6.4Z"></path><path d="M43.684,37.949l-3-1A1,1,0,0,1,40,36V33a1,1,0,0,1,.553-.9L42,31.382V30a1,1,0,0,1,.1-.447l.6-1.208a8.856,8.856,0,0,0-6.773-1.1L36.8,28.4a1,1,0,0,1,.2.6v2.586l.707.707A1,1,0,0,1,38,33v2a1,1,0,0,1-.445.832L35,37.535v.847l1.447.723A1,1,0,0,1,37,40v2a1,1,0,0,1-1,1H33a.993.993,0,0,1-.394-.081l-.667-.285A8.957,8.957,0,0,0,38,45V43a1,1,0,0,1,.293-.707L39,41.586V40a1,1,0,0,1,1-1h2a1,1,0,0,1,.625.219l2.62,2.1A8.948,8.948,0,0,0,46.768,38H44A1,1,0,0,1,43.684,37.949Z"></path><path d="M56,36A18,18,0,1,0,38,54,18.021,18.021,0,0,0,56,36ZM38,47A11,11,0,1,1,49,36,11.013,11.013,0,0,1,38,47Z"></path></g></svg>