<svg xmlns="http://www.w3.org/2000/svg" viewBox="0 0 64 64" x="0px" y="0px"><g data-name="Order-Shopping Cart-Wishlist-Paper-Commerce"><rect x="35" y="25" width="2" height="2"></rect><rect x="35" y="33" width="2" height="2"></rect><rect x="39" y="33" width="2" height="2"></rect><rect x="31" y="25" width="2" height="2"></rect><rect x="35" y="29" width="2" height="2"></rect><polygon points="45.58 29 43 29 43 31 45.41 31 45.58 29"></polygon><rect x="39" y="29" width="2" height="2"></rect><polygon points="45.91 25 43 25 43 27 45.75 27 45.91 25"></polygon><rect x="39" y="25" width="2" height="2"></rect><polygon points="45.25 33 43 33 43 35 45.08 35 45.25 33"></polygon><path d="M49,4a4,4,0,0,0,0,8,1,1,0,0,1,0,2H17V31h8v2H17v2h5v2H17v2H27v2H17v9H49a1,1,0,0,1,0,2,4,4,0,1,0,4,4V8A4,4,0,0,0,49,4ZM47,42a1,1,0,0,0-1-1H44.82a3,3,0,1,1-5.64,0H36.82a3,3,0,1,1-5.64,0H30a1,1,0,0,1-1-1V24.41L27.59,23h-.77A3.01,3.01,0,0,1,24,25H22a3,3,0,0,1,0-6h2a3.01,3.01,0,0,1,2.82,2H28a1.033,1.033,0,0,1,.71.29L30.41,23H47a1.029,1.029,0,0,1,.74.32,1.013,1.013,0,0,1,.26.76l-1,12A1.01,1.01,0,0,1,46,37H31v2H46a3.009,3.009,0,0,1,3,3Z"></path><path d="M16,12H44.53a5.979,5.979,0,0,1,.01-8H16a4,4,0,0,0,0,8Z"></path><circle cx="42" cy="42" r="1"></circle><rect x="31" y="29" width="2" height="2"></rect><path d="M16,60H44.54a5.979,5.979,0,0,1-.01-8H16a4,4,0,0,0,0,8Z"></path><rect x="31" y="33" width="2" height="2"></rect><path d="M24,21H22a1,1,0,0,0,0,2h2a1,1,0,0,0,0-2Z"></path><circle cx="34" cy="42" r="1"></circle><rect x="5" y="39" width="2" height="2"></rect><rect x="9" y="39" width="4" height="2"></rect><rect x="12" y="35" width="5" height="2"></rect><rect x="13" y="31" width="2" height="2"></rect><rect x="8" y="35" width="2" height="2"></rect></g></svg>