<svg xmlns="http://www.w3.org/2000/svg" viewBox="0 0 64 64" x="0px" y="0px"><g><path d="M62,38a2,2,0,0,0-2-2H44a2,2,0,0,0-.771.155,10.007,10.007,0,0,0-12.562-5.586l.666,1.886a8,8,0,1,1-3.556,12.573l-1.554,1.258A10.066,10.066,0,0,0,28.013,48H26a2,2,0,0,0-2,2v4a1.978,1.978,0,0,0,.278,1A1.978,1.978,0,0,0,24,56v4a2,2,0,0,0,2,2H42a1.978,1.978,0,0,0,1-.278A1.978,1.978,0,0,0,44,62H60a2,2,0,0,0,2-2V56a1.978,1.978,0,0,0-.278-1A1.978,1.978,0,0,0,62,54V50a1.978,1.978,0,0,0-.278-1A1.978,1.978,0,0,0,62,48V44a1.978,1.978,0,0,0-.278-1A1.978,1.978,0,0,0,62,42ZM44,38h1v2h2V38h2v2h2V38h2v2h2V38h2v2h2V38h1v4H44ZM60,48H44V44h1v2h2V44h2v2h2V44h2v2h2V44h2v2h2V44h1Zm0,6H44V50h1v2h2V50h2v2h2V50h2v2h2V50h2v2h2V50h1ZM42,45.974V48H39.974A10.077,10.077,0,0,0,42,45.974ZM26,50h1v2h2V50h2v2h2V50h2v2h2V50h2v2h2V50h1v4H26Zm0,10V56h1v2h2V56h2v2h2V56h2v2h2V56h2v2h2V56h1v4Zm34,0H44V56h1v2h2V56h2v2h2V56h2v2h2V56h2v2h2V56h1Z"></path><path d="M34,43a1,1,0,0,1-1-1H31a3,3,0,0,0,2,2.816V46h2V44.816A2.993,2.993,0,0,0,34,39a1,1,0,1,1,1-1h2a3,3,0,0,0-2-2.816V34H33v1.184A2.993,2.993,0,0,0,34,41a1,1,0,0,1,0,2Z"></path><path d="M15,49a1,1,0,0,0,1-1V47h1.586l2.707,2.707,1.414-1.414-3-3A1,1,0,0,0,18,45H16V44a1,1,0,0,0-1-1H11a1,1,0,0,0-1,1v4a1,1,0,0,0,1,1Zm-3-4h2v2H12Z"></path><path d="M17.293,54.293,15.285,56.3A2.951,2.951,0,0,0,14,56a3,3,0,1,0,3,3,2.951,2.951,0,0,0-.3-1.285L18.414,56H22V54H18A1,1,0,0,0,17.293,54.293ZM14,60a1,1,0,1,1,1-1A1,1,0,0,1,14,60Z"></path><rect x="33" y="24" width="2" height="4"></rect><rect x="39" y="26.876" width="4" height="2" transform="translate(-3.639 49.449) rotate(-60.005)"></rect><rect x="44.125" y="32" width="4" height="2" transform="translate(-10.32 27.478) rotate(-29.995)"></rect><path d="M8,35a3,3,0,0,0-2.83,2.005A3,3,0,1,0,5,43V41a1,1,0,0,1,0-2,.976.976,0,0,1,.506.138,1,1,0,0,0,1.508-.966A1.516,1.516,0,0,1,7,38a1,1,0,0,1,2,0h2A3,3,0,0,0,8,35Z"></path><path d="M25,39a1,1,0,0,1,0,2v2a3,3,0,1,0-.17-5.995A3,3,0,0,0,19,38h2a1,1,0,0,1,2,0,1.516,1.516,0,0,1-.014.172,1,1,0,0,0,1.508.966A.976.976,0,0,1,25,39Z"></path><path d="M6.443,25H10a1,1,0,0,0,.895-.553l.52-1.041.637,1.91A1,1,0,0,0,13,26h4a1,1,0,0,0,.948-.684l.637-1.91.52,1.041A1,1,0,0,0,20,25h3.557a2,2,0,0,0,1.873-2.7l-2.007-5.35A3.011,3.011,0,0,0,21,15.03V9.185a4.937,4.937,0,0,0-.861-2.806C17.143,2,15.53,2,15,2S12.857,2,9.862,6.378A4.935,4.935,0,0,0,9,9.185V15.03a3.012,3.012,0,0,0-2.423,1.917L4.57,22.3A2,2,0,0,0,6.443,25Zm7.278-1-.334-1h3.226l-.334,1Zm7.829-6.351L23.557,23H20.618l-.087-.174A.982.982,0,0,0,21,22V17.089A.993.993,0,0,1,21.55,17.649ZM11,9.185a2.95,2.95,0,0,1,.512-1.677C13.41,4.733,14.624,4,15,4s1.59.733,3.489,3.509A2.951,2.951,0,0,1,19,9.185V21H16V15H14v6H11ZM8.45,17.648A.994.994,0,0,1,9,17.089V22a.982.982,0,0,0,.469.826L9.382,23H6.443Z"></path><path d="M15,12a3,3,0,1,0-3-3A3,3,0,0,0,15,12Zm0-4a1,1,0,1,1-1,1A1,1,0,0,1,15,8Z"></path><path d="M23,27H21a7.008,7.008,0,0,0,7,7V32A5.006,5.006,0,0,1,23,27Z"></path><path d="M9,27H7a5.006,5.006,0,0,1-5,5v2A7.008,7.008,0,0,0,9,27Z"></path><path d="M15,28a4,4,0,0,0-4,4c0,1.941,2.712,5.062,3.256,5.668a1,1,0,0,0,1.488,0C16.288,37.062,19,33.941,19,32A4,4,0,0,0,15,28Zm0,7.451C13.937,34.119,13,32.62,13,32a2,2,0,0,1,4,0C17,32.637,16.061,34.125,15,35.451Z"></path><polygon points="35 13 37 13 37 11 39 11 39 9 37 9 37 7 35 7 35 9 33 9 33 11 35 11 35 13"></polygon><polygon points="53 15 53 17 51 17 51 19 53 19 53 21 55 21 55 19 57 19 57 17 55 17 55 15 53 15"></polygon><path d="M50,8a3,3,0,1,0-3-3A3,3,0,0,0,50,8Zm0-4a1,1,0,1,1-1,1A1,1,0,0,1,50,4Z"></path></g></svg>