<svg xmlns="http://www.w3.org/2000/svg" viewBox="0 0 64 64" x="0px" y="0px"><title>Kettle</title><g><path d="M54,6H48.9A5.009,5.009,0,0,0,44,2H20a5.009,5.009,0,0,0-4.9,4H8l7,9.333V58h1v4H48V58h1V32h5a5.006,5.006,0,0,0,5-5V11A5.006,5.006,0,0,0,54,6ZM20,4H44a3.006,3.006,0,0,1,2.829,2H17.171A3.006,3.006,0,0,1,20,4ZM12,8H47V18H17V14.667Zm37,3h5V27H49ZM17,49h3V47H17V45h3V43H17V41h3V39H17V37h3V35H17V33h3V31H17V29h3V27H17V25h6V51H17ZM46,60H18V58H46Zm1-4H17V53h8V23H17V20H47ZM57,27a3,3,0,0,1-3,3H49V29h5a2,2,0,0,0,2-2V11a2,2,0,0,0-2-2H49V8h5a3,3,0,0,1,3,3Z"></path><rect x="43" y="22" width="2" height="2"></rect><rect x="43" y="25" width="2" height="2"></rect><rect x="40" y="22" width="2" height="2"></rect></g></svg>