<svg xmlns="http://www.w3.org/2000/svg" viewBox="0 0 64 64" x="0px" y="0px"><g><path d="M60.99,24.89h-.01L33.93,2.3a3.005,3.005,0,0,0-3.85.01L3.1,24.95a3.071,3.071,0,0,0-.74,3.89,2.976,2.976,0,0,0,2.08,1.43,2.921,2.921,0,0,0,.5.05,2.986,2.986,0,0,0,1.93-.71L11,26.11V61a1,1,0,0,0,1,1H52a1,1,0,0,0,1-1V26.01l4.13,3.48a3,3,0,0,0,3.86-4.6ZM47,60H17V58H47Zm0-4H17V54H47Zm0-4H17V50H47Zm0-4H17V46H47Zm0-4H17V42H47Zm0-4H17V38H47Zm4,20H49V37a1,1,0,0,0-1-1H16a1,1,0,0,0-1,1V60H13V24.42L32,8.31,51,24.32Zm8.82-32.17a.988.988,0,0,1-1.4.13L32.64,6.24a.987.987,0,0,0-1.29,0L5.58,28.08a.977.977,0,0,1-.81.22,1.02,1.02,0,0,1-.7-.48,1.094,1.094,0,0,1,.31-1.34L31.36,3.84A1.047,1.047,0,0,1,32,3.61a1,1,0,0,1,.64.23L59.7,26.43a.948.948,0,0,1,.35.68A.913.913,0,0,1,59.82,27.83Z"></path><path d="M26.506,24.39a4.6,4.6,0,0,0,1.251,3.852,4.487,4.487,0,0,0,3.236,1.286,5.641,5.641,0,0,0,.617-.034,6.921,6.921,0,0,0,5.884-5.884,4.462,4.462,0,0,0-5.1-5.1,6.918,6.918,0,0,0-5.884,5.884Zm9-1a4.926,4.926,0,0,1-4.116,4.116c-.023,0-.043,0-.066,0a5.732,5.732,0,0,0,1.657-3.313,3.771,3.771,0,0,1,1.136-2.317,3.493,3.493,0,0,1,.788-.605A2.667,2.667,0,0,1,35.506,23.39Zm-7.012,1.22a4.923,4.923,0,0,1,4.116-4.116l.068,0a5.734,5.734,0,0,0-1.659,3.316,3.771,3.771,0,0,1-1.136,2.317,3.48,3.48,0,0,1-.79.6A2.667,2.667,0,0,1,28.494,24.61Z"></path></g></svg>