<svg xmlns="http://www.w3.org/2000/svg" viewBox="0 0 64 64" x="0px" y="0px"><title>Church</title><g><path d="M61.53,38.152,46,28.446V22h2a1,1,0,0,0,.53-1.848L33,10.446V6h3V4H33V2H31V4H28V6h3v4.446L15.47,20.152A1,1,0,0,0,16,22h2v6.446L2.47,38.152A1,1,0,0,0,3,40H4V61a1,1,0,0,0,1,1H59a1,1,0,0,0,1-1V40h1a1,1,0,0,0,.53-1.848ZM57.513,38H46V30.8ZM32,12.179,44.513,20H19.487ZM18,30.8V38H6.487ZM6,40H18V60H6ZM20,22H44V60H40V49a7.008,7.008,0,0,0-7-7H31a7.008,7.008,0,0,0-7,7V60H20ZM37.9,48H26.1A5.009,5.009,0,0,1,31,44h2A5.009,5.009,0,0,1,37.9,48ZM26,60V50H38V60Zm32,0H46V40H58Z"></path><path d="M32,40a8,8,0,1,0-8-8A8.009,8.009,0,0,0,32,40Zm-5.91-7H31v4.91A6.008,6.008,0,0,1,26.09,33ZM33,37.91V33h4.91A6.008,6.008,0,0,1,33,37.91ZM37.91,31H33V26.09A6.008,6.008,0,0,1,37.91,31ZM31,26.09V31H26.09A6.008,6.008,0,0,1,31,26.09Z"></path><rect x="48" y="42" width="8" height="2"></rect><rect x="48" y="46" width="8" height="2"></rect><rect x="48" y="50" width="8" height="2"></rect><rect x="48" y="54" width="8" height="2"></rect><rect x="8" y="42" width="8" height="2"></rect><rect x="8" y="46" width="8" height="2"></rect><rect x="8" y="50" width="8" height="2"></rect><rect x="8" y="54" width="8" height="2"></rect></g></svg>