<svg xmlns="http://www.w3.org/2000/svg" viewBox="0 0 64 64" x="0px" y="0px"><g data-name="Robot Controller"><circle cx="59" cy="43" r="2"></circle><circle cx="59" cy="29" r="2"></circle><circle cx="59" cy="15" r="2"></circle><circle cx="5" cy="43" r="2"></circle><circle cx="5" cy="29" r="2"></circle><circle cx="5" cy="15" r="2"></circle><path d="M28,27.236v6.6L28.721,36h6.558L36,33.838v-6.6L34.382,24H29.618ZM32,26a3,3,0,1,1-3,3A3,3,0,0,1,32,26Z"></path><path d="M27,38a1,1,0,0,0,0,2H37a1,1,0,0,0,0-2Z"></path><path d="M38,21V19a1,1,0,0,0-1-1H27a1,1,0,0,0-1,1v2a1,1,0,0,0,1,1H37A1,1,0,0,0,38,21Zm-8,0H28V19h2Zm6,0H34V19h2Z"></path><circle cx="32" cy="29" r="1"></circle><path d="M36,59a4,4,0,0,0-8,0,4.068,4.068,0,0,0,.14,1h7.72A4.068,4.068,0,0,0,36,59Z"></path><path d="M39.688,56.8a7.4,7.4,0,0,0-.694-1.674,1,1,0,0,1,.035-1.055l.874-1.307L38.233,51.1l-1.307.874a1,1,0,0,1-1.056.034,7.378,7.378,0,0,0-1.673-.694,1,1,0,0,1-.708-.766L33.18,49H30.82l-.309,1.546a1,1,0,0,1-.708.766,7.378,7.378,0,0,0-1.673.694,1,1,0,0,1-1.056-.034L25.767,51.1,24.1,52.767l.874,1.307a1,1,0,0,1,.035,1.055,7.4,7.4,0,0,0-.694,1.674,1,1,0,0,1-.766.707L22,57.82V60h4.09A6.075,6.075,0,0,1,26,59a6,6,0,0,1,12,0,6.075,6.075,0,0,1-.09,1H42V57.82l-1.546-.31A1,1,0,0,1,39.688,56.8Z"></path><rect x="25" y="4" width="14" height="2"></rect><path d="M46,14h3V7a3,3,0,0,0-3-3H41V6a2,2,0,0,1-2,2H25a2,2,0,0,1-2-2V4H18a3,3,0,0,0-3,3v7h3a1,1,0,0,1,.707.293l3,3-1.414,1.414L17.586,16H15V28h2v2H15V42h2.586l2.707-2.707,1.414,1.414-3,3A1,1,0,0,1,18,44H15V57a3,3,0,0,0,3,3h2V57a1,1,0,0,1,.8-.98l1.771-.355a9.291,9.291,0,0,1,.4-.974l-1-1.5a1,1,0,0,1,.124-1.263l2.83-2.83a1,1,0,0,1,1.262-.124l1.5,1a9.623,9.623,0,0,1,.975-.4L29.02,47.8A1,1,0,0,1,30,47h4a1,1,0,0,1,.98.8l.355,1.771a9.623,9.623,0,0,1,.975.4l1.495-1a1,1,0,0,1,1.262.124l2.83,2.83a1,1,0,0,1,.124,1.263l-1,1.5a9.291,9.291,0,0,1,.4.974l1.771.355A1,1,0,0,1,44,57v3h2a3,3,0,0,0,3-3V44H46a1,1,0,0,1-.707-.293l-2-2,1.414-1.414L46.414,42H49V30H47V28h2V16H46.414l-1.707,1.707-1.414-1.414,2-2A1,1,0,0,1,46,14Zm-2,8a1,1,0,0,0,1-1h2a3,3,0,0,1-2,2.816V24a5.006,5.006,0,0,1-5,5H38v5a1,1,0,0,1-.052.316l-.574,1.722A2.992,2.992,0,0,1,37,42H27a2.992,2.992,0,0,1-.374-5.962l-.574-1.722A1,1,0,0,1,26,34V29H24a5.006,5.006,0,0,1-5-5v-.184A3,3,0,0,1,17,21h2a1,1,0,0,0,2,0h2a3,3,0,0,1-2,2.816V24a3,3,0,0,0,3,3h2a1,1,0,0,1,.105-.447L27.382,24H27a3,3,0,0,1-3-3V19a3,3,0,0,1,3-3V13h2v3h6V13h2v3a3,3,0,0,1,3,3v2a3,3,0,0,1-3,3h-.382L37.9,26.553A1,1,0,0,1,38,27h2a3,3,0,0,0,3-3v-.184A3,3,0,0,1,41,21h2A1,1,0,0,0,44,22Z"></path><rect x="49" y="14" width="6" height="2"></rect><rect x="49" y="28" width="6" height="2"></rect><rect x="49" y="42" width="6" height="2"></rect><rect x="9" y="14" width="6" height="2"></rect><rect x="9" y="28" width="6" height="2"></rect><rect x="9" y="42" width="6" height="2"></rect></g></svg>