<svg xmlns="http://www.w3.org/2000/svg" viewBox="0 0 64 64" x="0px" y="0px"><title>Global Network</title><g data-name="Global Network"><path d="M62,55H35.858A4,4,0,0,0,33,52.142V49.951A22.981,22.981,0,0,0,48.028,10.5a22.751,22.751,0,0,0-15.59-6.489,5.09,5.09,0,0,0-.8,0A23,23,0,0,0,15.972,43.5,22.738,22.738,0,0,0,31,49.952v2.19A4,4,0,0,0,28.142,55H2v2H28.142a3.981,3.981,0,0,0,7.716,0H62ZM33,39.043a26.238,26.238,0,0,1,5.586.814A26.166,26.166,0,0,1,33,46.653Zm-2,7.613a26.188,26.188,0,0,1-5.586-6.8A26.256,26.256,0,0,1,31,39.043Zm9.539-6.208a25.906,25.906,0,0,1,5.138,2.462A20.773,20.773,0,0,1,34.722,47.8,28.123,28.123,0,0,0,40.539,40.448Zm-1.014-2.409a28.278,28.278,0,0,0-6.525-1V28h8.971A25.466,25.466,0,0,1,39.525,38.039ZM33,26V16.963a28.208,28.208,0,0,0,6.526-1A25.47,25.47,0,0,1,41.971,26ZM31,14.957a26.238,26.238,0,0,1-5.586-.814A26.186,26.186,0,0,1,31,7.347Zm2-7.613a26.188,26.188,0,0,1,5.586,6.8A26.256,26.256,0,0,1,33,14.957Zm7.54,6.208a28.152,28.152,0,0,0-5.829-7.361,20.761,20.761,0,0,1,10.966,4.9A25.87,25.87,0,0,1,40.54,13.552Zm-17.079,0a25.88,25.88,0,0,1-5.138-2.462A20.77,20.77,0,0,1,29.278,6.2,28.123,28.123,0,0,0,23.461,13.552Zm1.013,2.409a28.245,28.245,0,0,0,6.526,1V26H22.029A25.482,25.482,0,0,1,24.474,15.961ZM31,28v9.043a28.3,28.3,0,0,0-6.525,1A25.454,25.454,0,0,1,22.029,28ZM23.46,40.448a28.131,28.131,0,0,0,5.829,7.361,20.761,20.761,0,0,1-10.966-4.9A25.9,25.9,0,0,1,23.46,40.448Zm23.706,1.041a27.852,27.852,0,0,0-5.718-2.838A27.454,27.454,0,0,0,43.971,28h8.98A20.788,20.788,0,0,1,47.166,41.489ZM52.951,26h-8.98a27.432,27.432,0,0,0-2.523-10.65,27.918,27.918,0,0,0,5.719-2.84A20.8,20.8,0,0,1,52.951,26ZM16.833,12.51a27.889,27.889,0,0,0,5.719,2.839A27.454,27.454,0,0,0,20.029,26h-8.98A20.8,20.8,0,0,1,16.833,12.51ZM11.049,28h8.98a27.432,27.432,0,0,0,2.523,10.65,27.918,27.918,0,0,0-5.719,2.84A20.8,20.8,0,0,1,11.049,28ZM32,58a2,2,0,1,1,2-2A2,2,0,0,1,32,58Z"></path><rect x="55" y="52" width="2" height="2"></rect><rect x="51" y="52" width="2" height="2"></rect><rect x="47" y="52" width="2" height="2"></rect><rect x="43" y="52" width="2" height="2"></rect><rect x="39" y="52" width="2" height="2"></rect><rect x="7" y="52" width="2" height="2"></rect><rect x="11" y="52" width="2" height="2"></rect><rect x="15" y="52" width="2" height="2"></rect><rect x="19" y="52" width="2" height="2"></rect><rect x="23" y="52" width="2" height="2"></rect></g></svg>