<svg xmlns="http://www.w3.org/2000/svg" viewBox="0 0 64 64" x="0px" y="0px"><g><path d="M45,26a2.952,2.952,0,0,1,1.594.467A8.036,8.036,0,1,0,42,31.4V29a2.965,2.965,0,0,1,.163-.931A2.987,2.987,0,0,1,40,29v1H38V29a3,3,0,0,1-3-3h2a1,1,0,0,0,1,1h2a1,1,0,0,0,0-2H38a3,3,0,0,1,0-6V18h2v1a3,3,0,0,1,3,3H41a1,1,0,0,0-1-1H38a1,1,0,0,0,0,2h2a3,3,0,0,1,3,3,2.965,2.965,0,0,1-.163.931A2.987,2.987,0,0,1,45,26Z"></path><path d="M52,39v3H50V38a1,1,0,0,0-2,0v4H46V29a.959.959,0,0,0-.287-.693A.977.977,0,0,0,45,28a1,1,0,0,0-1,1V44H42V40a1,1,0,0,0-2,0V50.723l2.857,4.762A1,1,0,0,1,43,56v4H56V56a1,1,0,0,1,.071-.371L58,50.808V40a1,1,0,0,0-2,0v2H54V39a1,1,0,0,0-2,0Z"></path><path d="M27,44H11a1,1,0,0,0-1,1v4a1,1,0,0,0,1,1H27a1,1,0,0,0,1-1V45A1,1,0,0,0,27,44ZM14,48H12V46h2Zm4,0H16V46h2Zm4,0H20V46h2Zm4,0H24V46h2Z"></path><path d="M60,36V12H18V36H42V33.523a10.062,10.062,0,1,1,5.944-5.1A3.027,3.027,0,0,1,48,29v6.184A2.94,2.94,0,0,1,51.529,36.4,2.967,2.967,0,0,1,53,36ZM53,14h4a1,1,0,0,1,1,1v4H56V16H53Zm0,18h3V29h2v4a1,1,0,0,1-1,1H53ZM25,34H21a1,1,0,0,1-1-1V29h2v3h3Zm0-18H22v3H20V15a1,1,0,0,1,1-1h4Z"></path><path d="M34,38H17a1,1,0,0,1-1-1V11a1,1,0,0,1,1-1H34V7a3,3,0,0,0-3-3H27V6a2,2,0,0,1-2,2H13a2,2,0,0,1-2-2V4H7A3,3,0,0,0,4,7V53a3,3,0,0,0,3,3H31a3,3,0,0,0,3-3ZM30,49a3,3,0,0,1-3,3H11a3,3,0,0,1-3-3V45a3,3,0,0,1,3-3H27a3,3,0,0,1,3,3Z"></path><rect x="13" y="4" width="12" height="2"></rect></g></svg>