<svg xmlns="http://www.w3.org/2000/svg" viewBox="0 0 64 64" x="0px" y="0px"><g><rect x="4" y="58" width="56" height="2"></rect><path d="M9.618,46l-5,10H59.382l-5-10ZM43,48h2v2H43Zm-4,0h2v2H39Zm-4,0h2v2H35Zm-4,0h2v2H31Zm-4,0h2v2H27Zm-4,0h2v2H23Zm-4,0h2v2H19Zm-7,6H10V52h2Zm1-4H11V48h2Zm3,4H14V52h2Zm1-4H15V48h2Zm29,4H18V52H46Zm1-6h2v2H47Zm3,6H48V52h2Zm1-6h2v2H51Zm3,6H52V52h2Z"></path><polygon points="42 18 48 18 48 17.414 42 11.414 42 18"></polygon><path d="M60,7a3,3,0,0,0-3-3H7A3,3,0,0,0,4,7V35a3,3,0,0,0,3,3h7V11a3,3,0,0,1,3-3H41a1,1,0,0,1,.707.293l8,8A1,1,0,0,1,50,17V38h7a3,3,0,0,0,3-3V30H59a3,3,0,0,1-3-3V15a3,3,0,0,1,3-3h1Z"></path><path d="M17,10a1,1,0,0,0-1,1V38H48V20H41a1,1,0,0,1-1-1V10Zm9,4h6v2H26Zm-6,0h4v2H20Zm0,4H36v2H20ZM44,34H20V32H44Zm0-4H20V28H44Zm0-6v2H20V24Z"></path><path d="M58,15V27a1,1,0,0,0,1,1h1V14H59A1,1,0,0,0,58,15Z"></path></g></svg>