<svg xmlns="http://www.w3.org/2000/svg" viewBox="0 0 64 64" x="0px" y="0px"><g data-name="Business-Profit-Growth-Money Tree-Marketing"><path d="M61.63,52.757a1,1,0,0,0-.6-1.282l-1.88-.685A4.985,4.985,0,0,0,53,53.25a4.987,4.987,0,0,0-6.152-2.46l-1.88.685a1,1,0,0,0-.6,1.282l.685,1.878a4.987,4.987,0,0,0,6.408,2.988l.537-.2V60H34V55.428l.537.2a5,5,0,0,0,6.408-2.987l.685-1.879a1,1,0,0,0-.6-1.282l-1.88-.685A4.983,4.983,0,0,0,34,49.891v-.477l1.121-1.121a5.006,5.006,0,0,0,0-7.071l-1.414-1.414a1,1,0,0,0-1.414,0l-1.414,1.414a5.006,5.006,0,0,0,0,7.071L32,49.414v.477a4.985,4.985,0,0,0-5.152-1.1l-1.88.685a1,1,0,0,0-.6,1.282l.685,1.878a4.987,4.987,0,0,0,6.408,2.988l.537-.2V60H13V57.428l.537.2a5,5,0,0,0,6.408-2.987l.685-1.879a1,1,0,0,0-.6-1.282l-1.88-.685A4.984,4.984,0,0,0,13,51.89V49.949a10,10,0,1,0-2,0v1.942a4.985,4.985,0,0,0-5.152-1.1l-1.88.685a1,1,0,0,0-.6,1.282l.685,1.878a4.987,4.987,0,0,0,6.408,2.988l.537-.2V60H6v2H58V60H54V57.428l.537.2a5,5,0,0,0,6.408-2.987Zm-27.007-.294a3.005,3.005,0,0,1,3.846-1.794l.939.343-.342.939a3,3,0,0,1-3.845,1.793l-.94-.342Zm-3.844,1.281a3,3,0,0,1-3.845-1.794l-.342-.938.939-.343a3.005,3.005,0,0,1,3.846,1.794l.342.939Zm1.514-11.108L33,41.929l.707.707a3,3,0,0,1,0,4.243L33,47.586l-.707-.707A3,3,0,0,1,32.293,42.636ZM13.623,54.463a3,3,0,0,1,3.846-1.794l.939.343-.342.939a3,3,0,0,1-3.845,1.793l-.94-.342ZM9.779,55.744A3,3,0,0,1,5.934,53.95l-.342-.938.939-.343a3.005,3.005,0,0,1,3.846,1.794l.342.939ZM4,40a8,8,0,1,1,8,8A8.009,8.009,0,0,1,4,40ZM50.779,55.744a3,3,0,0,1-3.845-1.794l-.342-.938.939-.343a3.005,3.005,0,0,1,3.846,1.794l.342.939Zm8.287-1.793a3,3,0,0,1-3.845,1.793l-.94-.342.342-.939a3.005,3.005,0,0,1,3.846-1.794l.939.343Z"></path><path d="M13,46V45a3,3,0,0,0,0-6H11a1,1,0,0,1,0-2h2a1,1,0,0,1,1,1h2a3,3,0,0,0-3-3V34H11v1a3,3,0,0,0,0,6h2a1,1,0,0,1,0,2H11a1,1,0,0,1-1-1H8a3,3,0,0,0,3,3v1Z"></path><path d="M62.021,17.979,58,13.959V7a1,1,0,0,0-.293-.707l-4-4a1,1,0,0,0-1.41,0l-3,2.967L47.879,3.837a1,1,0,0,0-1.414,0L35.15,15.15a1,1,0,0,0,0,1.414L41.586,23H37a1,1,0,0,0-.293-.707l-1-1A1,1,0,0,0,35,21H32a1,1,0,0,0-1,1v8a1,1,0,0,0,1,1h3a1,1,0,0,0,.707-.293l1-1A1,1,0,0,0,37,29H47.586l1.707,1.707a1,1,0,0,0,1.414,0L62.021,19.394A1,1,0,0,0,62.021,17.979ZM53,4.41l3,3v4.545L50.712,6.67ZM47.172,5.958,48.4,7.186l-9.9,9.9-1.229-1.229ZM36,27a1,1,0,0,0-1,1v.586L34.586,29H33V23h1.586l.414.414V24a1,1,0,0,0,1,1h8a1,1,0,0,0,.707-1.707L39.914,18.5l9.9-9.9L56.9,15.686,45.586,27Zm14,1.586-1.293-1.293a.982.982,0,0,0-.362-.224L58.314,17.1,59.9,18.687Z"></path><rect x="27" y="27" width="2" height="2"></rect><rect x="26" y="23" width="2" height="2"></rect><rect x="23" y="26" width="2" height="2"></rect><rect x="19" y="28" width="2" height="2"></rect><rect x="27" y="31" width="2" height="2"></rect><rect x="24" y="34" width="2" height="2"></rect><rect x="23" y="30" width="2" height="2"></rect><path d="M15.707,21.707,17,20.414V26h2V20.414l1.293,1.293,1.414-1.414-3-3a1,1,0,0,0-1.414,0l-3,3Z"></path><path d="M11,12.414V18h2V12.414l1.293,1.293,1.414-1.414-3-3a1,1,0,0,0-1.414,0l-3,3,1.414,1.414Z"></path><path d="M5,22.414V28H7V22.414l1.293,1.293,1.414-1.414-3-3a1,1,0,0,0-1.414,0l-3,3,1.414,1.414Z"></path><rect x="2" y="60" width="2" height="2"></rect><rect x="60" y="60" width="2" height="2"></rect></g></svg>