<svg xmlns="http://www.w3.org/2000/svg" viewBox="0 0 64 64" x="0px" y="0px"><title>Add-Book</title><g><path d="M49,40A11,11,0,1,0,60,51,11.013,11.013,0,0,0,49,40Zm0,20a9,9,0,1,1,9-9A9.011,9.011,0,0,1,49,60Z"></path><polygon points="50 50 50 44 48 44 48 50 42 50 42 52 48 52 48 58 50 58 50 52 56 52 56 50 50 50"></polygon><path d="M15,12H53V38h2V3a1,1,0,0,0-1-1H14A5.006,5.006,0,0,0,9,7V57a5.006,5.006,0,0,0,5,5H40V60H15ZM14,4H53V6H15V8H53v2H14a3,3,0,0,1,0-6ZM11,57V10.974a4.954,4.954,0,0,0,2,.925V59.816A3,3,0,0,1,11,57Z"></path><path d="M20,16a1,1,0,0,0-1,1V27a1,1,0,0,0,1,1H48a1,1,0,0,0,1-1V17a1,1,0,0,0-1-1ZM47,26H21V18H47Z"></path></g></svg>