<svg xmlns="http://www.w3.org/2000/svg" viewBox="0 0 64 64" x="0px" y="0px"><g data-name="Glue-Liquid Glue-Handcraft-Bottle-Tool"><path d="M45.29,57.06A3.1,3.1,0,0,0,44,56.17V25.14a4.987,4.987,0,0,0-2.23-4.16L41,20.46V20a1,1,0,0,0,1-1V13a1,1,0,0,0-1-1H39.91l-.72-7.11a3.206,3.206,0,0,0-6.38,0L32.09,12H31a1,1,0,0,0-1,1v6a1,1,0,0,0,1,1v2.61l-5.66,2.97A9.994,9.994,0,0,0,20,34.43V56.17a3.1,3.1,0,0,0-1.29.89,3.022,3.022,0,0,0-.67,2.44A3.086,3.086,0,0,0,21.11,62H42.89a3.086,3.086,0,0,0,3.07-2.5A3.022,3.022,0,0,0,45.29,57.06ZM34.8,5.09a1.206,1.206,0,0,1,2.4,0L37.9,12H34.1ZM32,14h8v4H32ZM42.89,60H21.11a1.093,1.093,0,0,1-1.1-.82,1.026,1.026,0,0,1,.23-.83A1.011,1.011,0,0,1,21,58a1,1,0,0,0,1-1V34.43a7.991,7.991,0,0,1,4.27-7.08l6.2-3.25a1.031,1.031,0,0,0,.53-.89V20h6v1a1,1,0,0,0,.45.83l1.21.81A3.006,3.006,0,0,1,42,25.14V57a1,1,0,0,0,1,1,1.006,1.006,0,0,1,.99,1.17A1.091,1.091,0,0,1,42.89,60Z"></path><path d="M39,24H37a.939.939,0,0,0-.47.12l-9.32,5A5.989,5.989,0,0,0,24,34.43V57a1,1,0,0,0,1,1H39a1,1,0,0,0,1-1V25A1,1,0,0,0,39,24ZM38,56H26V34.43a4,4,0,0,1,2.14-3.54L37.25,26H38Z"></path></g></svg>