<svg xmlns="http://www.w3.org/2000/svg" viewBox="0 0 64 64" x="0px" y="0px"><g data-name="Coffee Maker-Plunger-Press-Coffee"><path d="M30,41a2,2,0,0,0,4,0c0-1.1-2-4-2-4S30,39.9,30,41Z"></path><rect x="31" y="32" width="2" height="2"></rect><path d="M36,49.3V48H28v1.3c0,.24.02.47.03.7h7.94C35.98,49.77,36,49.54,36,49.3Z"></path><path d="M33.65,56a.986.986,0,0,0,.92-.63l.5-1.24A12.41,12.41,0,0,0,35.71,52H28.29a12.41,12.41,0,0,0,.64,2.13l.5,1.24a.986.986,0,0,0,.92.63Z"></path><rect x="16" y="58" width="32" height="2"></rect><path d="M59,46a.928.928,0,0,0,.69-.29A.949.949,0,0,0,60,45V35.73A35.179,35.179,0,0,0,40.05,4.13l-.13-.07a.239.239,0,0,0-.09-.02A3.024,3.024,0,0,1,40,5V6.35A33.211,33.211,0,0,1,58,35.73V45A1,1,0,0,0,59,46Z"></path><path d="M24,6.35V5a3.126,3.126,0,0,1,.16-.93A.9.9,0,0,0,24,4.1,35.215,35.215,0,0,0,4,35.73V45a1,1,0,0,0,2,0V35.73A33.211,33.211,0,0,1,24,6.35Z"></path><path d="M26,5v5h2V5a1,1,0,0,0-2,0Z"></path><rect x="26" y="12" width="12" height="8"></rect><rect x="30" y="8" width="4" height="2"></rect><rect x="26" y="22" width="12" height="2"></rect><path d="M36,5v5h2V5a1,1,0,0,0-2,0Z"></path><path d="M34,5a3,3,0,0,1,.18-1H29.82A3,3,0,0,1,30,5V6h4Z"></path><path d="M48,37a9.014,9.014,0,0,0-9-9,1,1,0,0,1-1-1V26H26v1a1,1,0,0,1-1,1,9.014,9.014,0,0,0-9,9V56h2V37a7.008,7.008,0,0,1,7-7H39a7.008,7.008,0,0,1,7,7V56h2Z"></path></g></svg>