<svg xmlns="http://www.w3.org/2000/svg" viewBox="0 0 64 64" x="0px" y="0px"><g><path d="M46.69,41.3l-1.71-.54a2.978,2.978,0,0,0-5.29-1.65L37,38.26V34.79a11.064,11.064,0,0,0,2.78-2.01A10.943,10.943,0,0,0,42.81,27H43a4,4,0,0,0,0-8V18h3a1,1,0,0,0,1-1,15,15,0,0,0-30,0,1,1,0,0,0,1,1h3v1a4,4,0,1,0,0,8h.19A11.043,11.043,0,0,0,27,34.79v3.47l-2.69.85a2.978,2.978,0,0,0-5.29,1.65l-1.71.53A8.963,8.963,0,0,0,11,49.88V61a1,1,0,0,0,1,1H52a1,1,0,0,0,1-1V49.88A8.941,8.941,0,0,0,46.69,41.3ZM21,25a2.015,2.015,0,0,1-2-2,2.006,2.006,0,0,1,2-2ZM19,60H13V56h6Zm0-6H13V49.88a6.964,6.964,0,0,1,4.91-6.68L19,42.86ZM45,23a2.015,2.015,0,0,1-2,2V21A2.006,2.006,0,0,1,45,23ZM19.04,16a13,13,0,0,1,25.92,0H31.5l-2.7-3.6A1,1,0,0,0,27,13v3ZM23,25V18h5a1,1,0,0,0,1-1V16l1.2,1.6a1.014,1.014,0,0,0,.8.4H41v7a9,9,0,0,1-18,0ZM35,35.58V39a3,3,0,0,1-6,0V35.57A10.665,10.665,0,0,0,32,36,11.09,11.09,0,0,0,35,35.58ZM25,41v-.02l2.19-.68a4.977,4.977,0,0,0,9.62,0l2.19.68V48H25Zm-4,0a1,1,0,0,1,2,0V51a1,1,0,0,1-2,0ZM43,60H21V53.82A2.98,2.98,0,0,0,25,51V50H39v1a2.98,2.98,0,0,0,4,2.82Zm0-9a1,1,0,0,1-2,0V41a1,1,0,0,1,2,0Zm8,9H45V56h6Zm0-6H45V42.86l1.09.35A6.943,6.943,0,0,1,51,49.88Z"></path><circle cx="28" cy="21" r="2"></circle><circle cx="36" cy="21" r="2"></circle><path d="M37,26H35a3,3,0,0,1-6,0H27a5,5,0,0,0,10,0Z"></path></g></svg>