<svg xmlns="http://www.w3.org/2000/svg" viewBox="0 0 64 64" x="0px" y="0px"><g><path d="M7.964,18.2a2.764,2.764,0,0,0,2.133-.5l1.9-1.4V30a2,2,0,0,0,2,2H32a2,2,0,0,0,2-2V16.307l1.9,1.4a2.785,2.785,0,1,0,3.253-4.522L34,9.54V4a1,1,0,0,0-1-1H29a1,1,0,0,0-1,1v1.3L23.577,2.183a1,1,0,0,0-1.154,0l-15.58,11A2.784,2.784,0,0,0,7.964,18.2ZM18,30V24h4v6Zm14,0H24V23a1,1,0,0,0-1-1H17a1,1,0,0,0-1,1v7H14V14.84l9-6.6,9,6.6ZM30,5h2V8.128L30,6.717ZM8,14.814,23,4.224,38,14.813a.786.786,0,1,1-.917,1.276l-13.494-9.9a1,1,0,0,0-1.182,0l-13.494,9.9A.786.786,0,1,1,8,14.814Z"></path><path d="M25,23v4a1,1,0,0,0,1,1h4a1,1,0,0,0,1-1V23a1,1,0,0,0-1-1H26A1,1,0,0,0,25,23Zm2,1h2v2H27Z"></path><path d="M19,16a4,4,0,1,0,4-4A4,4,0,0,0,19,16Zm6,0a2,2,0,1,1-2-2A2,2,0,0,1,25,16Z"></path><path d="M4,50V18a1,1,0,0,1,1-1V15a3,3,0,0,0-3,3V50a3,3,0,0,0,3,3H39V51H5A1,1,0,0,1,4,50Z"></path><path d="M59,15H42v2H59a1,1,0,0,1,1,1V50a1,1,0,0,1-1,1H57v2h2a3,3,0,0,0,3-3V18A3,3,0,0,0,59,15Z"></path><path d="M48,40a5,5,0,1,0,5,5A5.006,5.006,0,0,0,48,40Zm0,8a3,3,0,1,1,3-3A3,3,0,0,1,48,48Z"></path><path d="M56.471,42.979a3.229,3.229,0,0,1-.518-.563,3.059,3.059,0,0,1,.084-.811,2.835,2.835,0,0,0-.238-2.272,2.853,2.853,0,0,0-2.1-.933,3.017,3.017,0,0,1-.78-.163,3.073,3.073,0,0,1-.391-.684A2.856,2.856,0,0,0,50.98,35.83a2.815,2.815,0,0,0-2.214.474A3.01,3.01,0,0,1,48,36.64a3.01,3.01,0,0,1-.766-.336,2.8,2.8,0,0,0-2.213-.474,2.858,2.858,0,0,0-1.548,1.724,3.153,3.153,0,0,1-.386.681,3.053,3.053,0,0,1-.783.165,2.849,2.849,0,0,0-2.1.933,2.835,2.835,0,0,0-.238,2.272,3.1,3.1,0,0,1,.085.808,3.176,3.176,0,0,1-.519.566A2.873,2.873,0,0,0,38.36,45a2.873,2.873,0,0,0,1.169,2.021,3.229,3.229,0,0,1,.518.563,3.059,3.059,0,0,1-.084.811,2.835,2.835,0,0,0,.238,2.272,2.853,2.853,0,0,0,2.1.933,4.49,4.49,0,0,1,.7.13V61a1,1,0,0,0,1.6.8L48,59.25l3.4,2.55a1,1,0,0,0,.6.2,1,1,0,0,0,1-1V51.73a4.59,4.59,0,0,1,.7-.13,2.849,2.849,0,0,0,2.1-.933,2.835,2.835,0,0,0,.238-2.272,3.1,3.1,0,0,1-.085-.808,3.176,3.176,0,0,1,.519-.566A2.873,2.873,0,0,0,57.64,45,2.873,2.873,0,0,0,56.471,42.979ZM48.6,57.2a1,1,0,0,0-1.2,0L45,59V54.159c.008,0,.012.008.02.011a2.807,2.807,0,0,0,2.214-.474A3.01,3.01,0,0,1,48,53.36a3.01,3.01,0,0,1,.766.336,3.6,3.6,0,0,0,1.659.561,1.786,1.786,0,0,0,.554-.087c.008,0,.013-.009.021-.011V59Zm6.494-11.629a3.53,3.53,0,0,0-1.043,1.4,3.633,3.633,0,0,0,.018,1.784,4.434,4.434,0,0,1,.093.729,4.317,4.317,0,0,1-.732.139,2.751,2.751,0,0,0-2.708,1.966,4.22,4.22,0,0,1-.361.659,4.6,4.6,0,0,1-.648-.307A3.67,3.67,0,0,0,48,51.36a3.672,3.672,0,0,0-1.712.575,4.517,4.517,0,0,1-.65.308,4.305,4.305,0,0,1-.36-.659,3.589,3.589,0,0,0-1.015-1.438,3.6,3.6,0,0,0-1.7-.529,4.2,4.2,0,0,1-.73-.138,4.434,4.434,0,0,1,.093-.729,3.629,3.629,0,0,0,.018-1.783,3.526,3.526,0,0,0-1.043-1.4c-.19-.18-.508-.482-.551-.53a2.952,2.952,0,0,1,.551-.612,3.53,3.53,0,0,0,1.043-1.4,3.633,3.633,0,0,0-.018-1.784,4.434,4.434,0,0,1-.093-.729,4.317,4.317,0,0,1,.732-.139,3.593,3.593,0,0,0,1.693-.528,3.589,3.589,0,0,0,1.015-1.438,4.22,4.22,0,0,1,.361-.659,4.6,4.6,0,0,1,.648.307A3.67,3.67,0,0,0,48,38.64a3.672,3.672,0,0,0,1.712-.575,4.517,4.517,0,0,1,.65-.308,4.305,4.305,0,0,1,.36.659,2.753,2.753,0,0,0,2.71,1.967,4.2,4.2,0,0,1,.73.138,4.434,4.434,0,0,1-.093.729,3.629,3.629,0,0,0-.018,1.783,3.526,3.526,0,0,0,1.043,1.4,3.832,3.832,0,0,1,.532.571A3.832,3.832,0,0,1,55.094,45.571Z"></path><path d="M58,28V22a3,3,0,0,0-3-3H49v2h6a1,1,0,0,1,1,1v6Z"></path><path d="M6,40v6a3,3,0,0,0,3,3h6V47H9a1,1,0,0,1-1-1V40Z"></path><rect x="15" y="36" width="16" height="2"></rect><rect x="13" y="40" width="20" height="2"></rect><rect x="42" y="26" width="10" height="2"></rect><rect x="38" y="26" width="2" height="2"></rect><rect x="38" y="30" width="14" height="2"></rect></g></svg>