<svg xmlns="http://www.w3.org/2000/svg" viewBox="0 0 64 64" x="0px" y="0px"><g><rect x="10" y="47" width="2" height="2"></rect><rect x="14" y="47" width="10" height="2"></rect><path d="M47,29A13,13,0,1,0,60,42,13.015,13.015,0,0,0,47,29Zm9,16H54.416l-.051.123,1.12,1.12a1,1,0,0,1,0,1.414l-2.828,2.828a1,1,0,0,1-1.414,0l-1.12-1.12L50,49.416V51a1,1,0,0,1-1,1H45a1,1,0,0,1-1-1V49.416l-.123-.051-1.12,1.12a1.029,1.029,0,0,1-1.414,0l-2.828-2.828a1,1,0,0,1,0-1.414l1.12-1.12L39.584,45H38a1,1,0,0,1-1-1V40a1,1,0,0,1,1-1h1.584l.051-.123-1.12-1.12a1,1,0,0,1,0-1.414l2.828-2.828a1,1,0,0,1,1.414,0l1.12,1.12L44,34.584V33a1,1,0,0,1,1-1h4a1,1,0,0,1,1,1v1.584l.123.051,1.12-1.12a1.029,1.029,0,0,1,1.414,0l2.828,2.828a1,1,0,0,1,0,1.414l-1.12,1.12.051.123H56a1,1,0,0,1,1,1v4A1,1,0,0,1,56,45Z"></path><path d="M52.748,40.285a5.987,5.987,0,0,0-.469-1.139,1,1,0,0,1,.172-1.183l.913-.913L51.95,35.636l-.913.913a1,1,0,0,1-1.183.172,5.987,5.987,0,0,0-1.139-.469A1,1,0,0,1,48,35.294V34H46v1.294a1,1,0,0,1-.715.958,5.987,5.987,0,0,0-1.139.469,1,1,0,0,1-1.183-.172l-.913-.913L40.636,37.05l.913.913a1,1,0,0,1,.172,1.183,5.987,5.987,0,0,0-.469,1.139,1,1,0,0,1-.958.715H39v2h1.294a1,1,0,0,1,.958.715,5.987,5.987,0,0,0,.469,1.139,1,1,0,0,1-.172,1.183l-.913.913,1.414,1.414.913-.913a1,1,0,0,1,1.183-.172,5.987,5.987,0,0,0,1.139.469,1,1,0,0,1,.715.958V50h2V48.706a1,1,0,0,1,.715-.958,5.987,5.987,0,0,0,1.139-.469,1,1,0,0,1,1.183.172l.913.913,1.414-1.414-.913-.913a1,1,0,0,1-.172-1.183,5.987,5.987,0,0,0,.469-1.139A1,1,0,0,1,53.706,43H55V41H53.706A1,1,0,0,1,52.748,40.285ZM47,46a4,4,0,1,1,4-4A4,4,0,0,1,47,46Z"></path><circle cx="47" cy="42" r="2"></circle><path d="M4,12.371,25.836,22.853a4.985,4.985,0,0,0,4.328,0L52,12.371V10a1,1,0,0,0-1-1H5a1,1,0,0,0-1,1Z"></path><path d="M5,41H32.051A14.941,14.941,0,0,1,52,27.875V14.589L31.029,24.655a6.966,6.966,0,0,1-6.058,0L4,14.589V40A1,1,0,0,0,5,41ZM6,30H8v2H6Zm0,4H8v2a1,1,0,0,0,1,1h2v2H9a3,3,0,0,1-3-3Z"></path></g></svg>