<svg xmlns="http://www.w3.org/2000/svg" viewBox="0 0 64 64" x="0px" y="0px"><g data-name="Table"><rect x="40" y="11" width="2" height="2"></rect><rect x="34" y="9" width="2" height="2"></rect><path d="M60,43V23a1,1,0,0,0-2,0V41a1,1,0,0,1-1,1H41a1,1,0,0,0,0,2H59A1,1,0,0,0,60,43Z"></path><rect x="44" y="46" width="2" height="14"></rect><rect x="56" y="46" width="2" height="14"></rect><path d="M43,26H41V24h2V20H41V18h2a2,2,0,0,1,2,2v4A2,2,0,0,1,43,26Z"></path><rect x="48" y="55" width="6" height="2"></rect><rect x="19" y="58" width="16" height="2"></rect><circle cx="18" cy="20" r="1"></circle><rect x="4" y="32" width="46" height="2"></rect><rect x="26" y="36" width="2" height="20"></rect><rect x="17" y="4" width="2" height="1"></rect><path d="M31,16a1,1,0,0,0-.985,1.176A1.084,1.084,0,0,0,31.107,18H33a1,1,0,0,1,1,1v2.5a.5.5,0,0,0,1,0V19a1,1,0,0,1,1-1h3.5a.5.5,0,0,0,0-1H39a1,1,0,0,1-1-1,1,1,0,0,0-1.56-.829,1,1,0,0,1-1.5-.5A1,1,0,0,0,33,15a.834.834,0,0,0,.017.133,1.008,1.008,0,0,1-.433.987,1,1,0,0,1-1.071.029A.985.985,0,0,0,31,16Z"></path><path d="M17,12a1,1,0,0,1-.293.707L14,15.414V30h8V15.414l-2.707-2.707A1,1,0,0,1,19,12V7H17Zm4,8a3,3,0,1,1-3-3A3,3,0,0,1,21,20Z"></path><path d="M38,30a1,1,0,0,0,1-1V20H37v1.5a2.5,2.5,0,0,1-5,0V20H31v9a1,1,0,0,0,1,1Z"></path></g></svg>