<svg xmlns="http://www.w3.org/2000/svg" viewBox="0 0 64 64" x="0px" y="0px"><g data-name="Chair"><path d="M42,32H40V28.8A15.885,15.885,0,0,0,45,17C45,8.729,39.168,2,32,2S19,8.729,19,17a15.885,15.885,0,0,0,5,11.8V32H22a5.006,5.006,0,0,0-5,5v7a2,2,0,0,0,2,2V61a1,1,0,0,0,1,1h2a1,1,0,0,0,.992-.876L24.883,46H26V57a1,1,0,0,0,1,1h2a1,1,0,0,0,1-.917L30.92,46h2.16L34,57.083A1,1,0,0,0,35,58h2a1,1,0,0,0,1-1V46h1.117l1.891,15.124A1,1,0,0,0,42,62h2a1,1,0,0,0,1-1V46a2,2,0,0,0,2-2V37A5.006,5.006,0,0,0,42,32ZM21,17C21,9.832,25.935,4,32,4S43,9.832,43,17,38.065,30,32,30,21,24.168,21,17Zm5,13.293a11.4,11.4,0,0,0,12,0V32H26ZM22,34H42a3,3,0,0,1,3,3v3H19V37A3,3,0,0,1,22,34Zm-.883,26H21V46h1.867Zm6.963-4H28V46h.914ZM36,56h-.08l-.834-10H36Zm7,4h-.117l-1.75-14H43ZM19,44V42H45v2Z"></path><path d="M32,28c4.963,0,9-4.935,9-11S36.963,6,32,6s-9,4.935-9,11S27.037,28,32,28ZM32,8c3.859,0,7,4.038,7,9s-3.141,9-7,9-7-4.038-7-9S28.141,8,32,8Z"></path></g></svg>