<svg xmlns="http://www.w3.org/2000/svg" viewBox="0 0 64 64" x="0px" y="0px"><title>Cactus_33</title><g data-name="Cactus"><path d="M61,50H58.529A45.873,45.873,0,0,0,62,31.95C62,14.532,53.379,1.89,41.5,1.89a16.315,16.315,0,0,0-9.5,3.1,16.315,16.315,0,0,0-9.5-3.1C10.621,1.89,2,14.532,2,31.95A45.873,45.873,0,0,0,5.471,50H3a1,1,0,0,0-1,1v4a7.009,7.009,0,0,0,7,7H55a7.009,7.009,0,0,0,7-7V51A1,1,0,0,0,61,50ZM41.5,3.89C52.22,3.89,60,15.69,60,31.95A43.374,43.374,0,0,1,56.357,50h-8.4c.063-.2.118-.405.179-.607.109-.358.214-.715.318-1.076.126-.443.248-.886.366-1.332.1-.363.191-.725.281-1.089.112-.45.216-.9.319-1.349.083-.363.165-.724.242-1.087.1-.454.183-.905.269-1.357.068-.356.137-.711.2-1.066.08-.46.149-.913.219-1.368.052-.341.107-.682.153-1.018.064-.472.115-.934.167-1.4.035-.31.075-.623.1-.928.048-.508.081-1,.114-1.5.016-.248.041-.5.053-.747.037-.73.058-1.444.058-2.133C51,15.875,45.252,5.89,36,5.89a12.428,12.428,0,0,0-1.366.084c-.108.012-.213.024-.32.039s-.206.02-.308.037A13.985,13.985,0,0,1,41.5,3.89ZM33,8.338c.145-.041.29-.095.437-.128A10.392,10.392,0,0,1,36,7.89c9.6,0,13,12.961,13,24.06,0,.675-.02,1.373-.057,2.089-.012.231-.037.473-.052.707-.034.494-.065.986-.115,1.494-.028.289-.069.587-.1.88-.053.467-.1.931-.169,1.406-.044.318-.1.643-.15.965-.071.459-.139.917-.222,1.381-.059.337-.13.677-.2,1.016-.088.454-.174.908-.272,1.364-.074.347-.158.7-.239,1.043-.1.45-.206.9-.319,1.348-.089.353-.187.7-.281,1.056-.119.439-.236.879-.363,1.316-.1.356-.214.707-.323,1.06Q46,49.54,45.848,50H33Zm-2,0V50H18.152A61.963,61.963,0,0,1,15,31.95c0-11.1,3.4-24.06,13-24.06a10.5,10.5,0,0,1,2.591.326C30.721,8.245,30.865,8.3,31,8.336ZM4,31.95C4,15.69,11.78,3.89,22.5,3.89A13.98,13.98,0,0,1,30,6.051a12.342,12.342,0,0,0-2-.161c-9.252,0-15,9.985-15,26.06A63.72,63.72,0,0,0,16.042,50h-8.4A43.374,43.374,0,0,1,4,31.95ZM60,52v1H4V52Zm-5,8H9a5.006,5.006,0,0,1-5-5H60A5.006,5.006,0,0,1,55,60Z"></path></g></svg>