<svg xmlns="http://www.w3.org/2000/svg" viewBox="0 0 64 64" x="0px" y="0px"><g><path d="M13,15.11A3,3,0,0,0,19,15V12H13.78Z"></path><path d="M40,18a3.009,3.009,0,0,0,3-3V12H37v3A3.009,3.009,0,0,0,40,18Z"></path><path d="M24,18a3.009,3.009,0,0,0,3-3V12H21v3A3.009,3.009,0,0,0,24,18Z"></path><path d="M34,54H30a1,1,0,0,0,0,2h4a1,1,0,0,0,0-2Z"></path><path d="M23.5,37.309,23,35.764l0-.012-.5,1.557a1,1,0,0,1-.951.691H19.922l1.314.955a1,1,0,0,1,.364,1.117l-.5,1.545,1.314-.954a1,1,0,0,1,1.176,0l1.314.955-.5-1.546a1,1,0,0,1,.364-1.117L26.077,38H24.453A1,1,0,0,1,23.5,37.309Z"></path><path d="M14,10H50V8a4,4,0,0,0-4-4H18a4,4,0,0,0-4,4ZM29,6h6V8H29ZM25,6h2V8H25Z"></path><path d="M50,50H14v6a4,4,0,0,0,4,4H46a4,4,0,0,0,4-4ZM34,58H30a3,3,0,0,1,0-6h4a3,3,0,0,1,0,6Z"></path><path d="M32,18a3.009,3.009,0,0,0,3-3V12H29v3A3.009,3.009,0,0,0,32,18Z"></path><path d="M41.5,37.309,41,35.764l-.5,1.545a1,1,0,0,1-.951.691H37.922l1.314.955a1,1,0,0,1,.364,1.117l-.5,1.545,1.314-.954a1,1,0,0,1,1.176,0l1.314.955-.5-1.546a1,1,0,0,1,.364-1.117L44.077,38H42.453A1,1,0,0,1,41.5,37.309Z"></path><path d="M50,19.58A4.941,4.941,0,0,1,48,20a4.994,4.994,0,0,1-4-2.03,4.956,4.956,0,0,1-8,0,4.956,4.956,0,0,1-8,0,4.956,4.956,0,0,1-8,0A4.994,4.994,0,0,1,16,20a4.941,4.941,0,0,1-2-.42V48H50Zm-8.555,2.588,1.11,1.664-3,2-1.11-1.664ZM43,28v2H39V28ZM22.555,22.168l3,2-1.11,1.664-3-2ZM21,28h4v2H21Zm6.253,11.618-.726.528.278.854a2,2,0,0,1-3.078,2.235L23,42.708l-.727.527A2,2,0,0,1,19.2,41l.278-.854-.726-.529A2,2,0,0,1,19.922,36h.9l.278-.854a2,2,0,0,1,3.8,0h0L25.18,36h.9a2,2,0,0,1,1.175,3.618Zm7.824-6.382a1.968,1.968,0,0,1-2.35,0L32,32.708l-.727.527A2,2,0,0,1,28.2,31l.278-.854-.726-.529A2,2,0,0,1,28.922,26h.9l.278-.854a2,2,0,0,1,3.8,0h0L34.18,26h.9a2,2,0,0,1,1.175,3.618l-.726.528.278.854A1.972,1.972,0,0,1,35.077,33.236Zm10.176,6.382-.726.528.278.854a2,2,0,0,1-3.078,2.235L41,42.708l-.727.527A2,2,0,0,1,37.2,41l.278-.854-.726-.529A2,2,0,0,1,37.922,36h.9l.278-.854h0a2,2,0,0,1,3.8,0L43.18,36h.9a2,2,0,0,1,1.175,3.618Z"></path><path d="M32.5,27.309,32,25.764l0-.012-.5,1.557a1,1,0,0,1-.951.691H28.922l1.314.955a1,1,0,0,1,.364,1.117l-.5,1.545,1.314-.954a1,1,0,0,1,1.176,0l1.314.955-.5-1.546a1,1,0,0,1,.364-1.117L35.077,28H33.453A1,1,0,0,1,32.5,27.309Z"></path><path d="M51,15.11,50.22,12H45v3a3,3,0,0,0,6,.11Z"></path></g></svg>