<svg xmlns="http://www.w3.org/2000/svg" viewBox="0 0 64 64" x="0px" y="0px"><g><path d="M61,16H54V3a1,1,0,0,0-1-1c-1.62,0-2.36,1.48-2.89,2.55C49.68,5.4,49.35,6,49,6s-.67-.6-1.09-1.44C47.37,3.48,46.63,2,45.01,2s-2.36,1.48-2.89,2.55C41.69,5.4,41.36,6,41.01,6s-.68-.6-1.11-1.45C39.37,3.48,38.63,2,37.01,2s-2.36,1.48-2.89,2.55C33.69,5.4,33.36,6,33.01,6s-.68-.6-1.11-1.45C31.37,3.48,30.63,2,29.01,2s-2.36,1.48-2.89,2.55C25.69,5.4,25.36,6,25.01,6s-.68-.6-1.11-1.45C23.37,3.48,22.63,2,21.01,2s-2.36,1.48-2.89,2.55C17.69,5.4,17.36,6,17.01,6s-.69-.6-1.12-1.45C15.35,3.47,14.62,2,13,2a1,1,0,0,0-1,1V22H5a3.009,3.009,0,0,0-3,3V59a3.009,3.009,0,0,0,3,3H27a3.009,3.009,0,0,0,3-3V52h2v1a2.974,2.974,0,0,0,.78,2A2.974,2.974,0,0,0,32,57v2a3.009,3.009,0,0,0,3,3h8a2.974,2.974,0,0,0,2-.78A2.974,2.974,0,0,0,47,62h8a3.009,3.009,0,0,0,3-3V57a3.009,3.009,0,0,0-3-3H47a2.923,2.923,0,0,0-1.32.32A2.923,2.923,0,0,0,46,53V52H57a5,5,0,0,0,5-5V17A1,1,0,0,0,61,16ZM46,57a1,1,0,0,1,1-1h1v2h2V56h2v2h2V56h1a1,1,0,0,1,1,1v2a1,1,0,0,1-1,1H47a1,1,0,0,1-1-1ZM28,59a1,1,0,0,1-1,1H5a1,1,0,0,1-1-1V25a1,1,0,0,1,1-1H27a1,1,0,0,1,1,1Zm16,0a1,1,0,0,1-1,1H35a1,1,0,0,1-1-1V57a1,1,0,0,1,1-1h1v2h2V56h2v2h2V56h1a1,1,0,0,1,1,1Zm0-6a1,1,0,0,1-1,1H35a1,1,0,0,1-1-1V51a1,1,0,0,1,1-1h1v2h2V50h2v2h2V50h1a1,1,0,0,1,1,1Zm0-6a1,1,0,0,1-1,1H35a1,1,0,0,1-1-1V45a1,1,0,0,1,1-1h1v2h2V44h2v2h2V44h1a1,1,0,0,1,1,1Zm1.82,3a3.174,3.174,0,0,0-.6-1A2.974,2.974,0,0,0,46,47V45a3.009,3.009,0,0,0-3-3H35a3.009,3.009,0,0,0-3,3v2a2.974,2.974,0,0,0,.78,2,3.174,3.174,0,0,0-.6,1H30V25a3.009,3.009,0,0,0-3-3H14V5.24c.03.06.07.13.11.2C14.65,6.52,15.39,8,17.01,8s2.36-1.48,2.89-2.55C20.33,4.6,20.66,4,21.01,4s.68.6,1.11,1.45C22.65,6.52,23.39,8,25.01,8s2.36-1.48,2.89-2.55C28.33,4.6,28.66,4,29.01,4s.68.6,1.11,1.45C30.65,6.52,31.39,8,33.01,8s2.36-1.48,2.89-2.55C36.33,4.6,36.66,4,37.01,4s.68.6,1.11,1.45C38.65,6.52,39.39,8,41.01,8s2.36-1.48,2.89-2.55C44.33,4.6,44.66,4,45.01,4s.68.6,1.11,1.45C46.65,6.53,47.39,8,49,8s2.36-1.48,2.89-2.55A2.116,2.116,0,0,0,52,5.24V47a4.924,4.924,0,0,0,1.03,3ZM60,47a3,3,0,0,1-6,0V18h6Z"></path><rect x="18" y="12" width="2" height="2"></rect><rect x="22" y="12" width="14" height="2"></rect><rect x="18" y="16" width="18" height="2"></rect><rect x="44" y="24" width="4" height="2"></rect><rect x="44" y="28" width="4" height="2"></rect><rect x="44" y="32" width="4" height="2"></rect><rect x="44" y="36" width="4" height="2"></rect><rect x="32" y="24" width="10" height="2"></rect><rect x="32" y="28" width="10" height="2"></rect><rect x="32" y="32" width="10" height="2"></rect><rect x="32" y="36" width="10" height="2"></rect><path d="M45,19H43a1,1,0,0,1-1-1H40a3,3,0,0,0,3,3v1h2V21a3,3,0,0,0,0-6H43a1,1,0,0,1,0-2h2a1,1,0,0,1,1,1h2a3,3,0,0,0-3-3V10H43v1a3,3,0,0,0,0,6h2a1,1,0,0,1,0,2Z"></path><path d="M24,38H8a2,2,0,0,0-2,2V56a2,2,0,0,0,2,2H24a2,2,0,0,0,2-2V40A2,2,0,0,0,24,38Zm0,6H20V40h4ZM14,50V46h4v4Zm4,2v4H14V52Zm-6-2H8V46h4Zm2-6V40h4v4Zm6,2h4v4H20Zm-8-6v4H8V40ZM8,52h4v4H8Zm12,4V52h4v4Z"></path><path d="M24,26H8a2,2,0,0,0-2,2v6a2,2,0,0,0,2,2H24a2,2,0,0,0,2-2V28A2,2,0,0,0,24,26Zm0,8H8V28H24Z"></path><rect x="19" y="30" width="2" height="2"></rect><rect x="15" y="30" width="2" height="2"></rect><rect x="11" y="30" width="2" height="2"></rect></g></svg>