<svg xmlns="http://www.w3.org/2000/svg" viewBox="0 0 64 64" x="0px" y="0px"><g><path d="M31,40.3V45a5,5,0,0,1-5,5H24v2H35.64a6.254,6.254,0,0,0-1.35-2.29A1.033,1.033,0,0,1,34,49V41.24Z"></path><path d="M33.95,25a11.042,11.042,0,0,1-5.89,8.76A2.019,2.019,0,0,0,29,34a1.99,1.99,0,0,0,1.92-1.48,1.071,1.071,0,0,1,.52-.64,1.085,1.085,0,0,1,.83-.03A1.835,1.835,0,0,0,33,32a2.006,2.006,0,0,0,2-2,1.965,1.965,0,0,0-.63-1.45,1,1,0,0,1,.33-1.68A1.991,1.991,0,0,0,36,25a1.753,1.753,0,0,0-.08-.51A3.961,3.961,0,0,1,34,25Z"></path><path d="M34,19v4a2.015,2.015,0,0,0,2-2A2.006,2.006,0,0,0,34,19Z"></path><path d="M12,23V19a2.006,2.006,0,0,0-2,2,2.015,2.015,0,0,0,2,2Z"></path><path d="M36.03,60h4.96a10.918,10.918,0,0,1-3.07-5.01,8.968,8.968,0,0,1-1.44,3.77A2.652,2.652,0,0,0,36.03,60Z"></path><path d="M11.3,26.87a1,1,0,0,1,.33,1.68A1.965,1.965,0,0,0,11,30a2.006,2.006,0,0,0,2,2,1.835,1.835,0,0,0,.73-.15,1.085,1.085,0,0,1,.83.03,1.071,1.071,0,0,1,.52.64A1.99,1.99,0,0,0,17,34a2.019,2.019,0,0,0,.94-.24A11.042,11.042,0,0,1,12.05,25H12a3.961,3.961,0,0,1-1.92-.51A1.807,1.807,0,0,0,10,25,1.991,1.991,0,0,0,11.3,26.87Z"></path><path d="M37.09,42.21,36,41.86v6.75a8.411,8.411,0,0,1,1.38,2.34,11,11,0,0,1,1.19-4.69,8.292,8.292,0,0,1,1.57-2.11A6.811,6.811,0,0,0,37.09,42.21Z"></path><path d="M10,41.86l-1.09.34A6.964,6.964,0,0,0,4,48.88V60H9.97a2.673,2.673,0,0,0-.44-1.23A8.234,8.234,0,0,1,10,48.61Z"></path><path d="M29,45V39.67l-1.19-.37a4.976,4.976,0,0,1-9.62,0L17,39.67V45a3.009,3.009,0,0,0,3,3h6A3.009,3.009,0,0,0,29,45Z"></path><path d="M22,50H20a5,5,0,0,1-5-5V40.3l-3,.94V49a1.033,1.033,0,0,1-.29.71A6.254,6.254,0,0,0,10.36,52H22Z"></path><path d="M11.97,60H22V54H10a6.794,6.794,0,0,0,1.17,3.64A4.6,4.6,0,0,1,11.97,60Z"></path><path d="M34.83,57.63A6.735,6.735,0,0,0,36,54H24v6H34.03A4.759,4.759,0,0,1,34.83,57.63Z"></path><path d="M23,15c-5.85,0-8.85,1.46-9,2.01V24a9,9,0,0,0,18,0V17.01C31.83,16.45,28.83,15,23,15Zm-6,6a2,2,0,1,1,2,2A2,2,0,0,1,17,21Zm6,8a5.01,5.01,0,0,1-3.532-1.458l1.4-1.424a3.082,3.082,0,0,0,4.256,0l1.4,1.424A5.01,5.01,0,0,1,23,29Zm4-6a2,2,0,1,1,2-2A2,2,0,0,1,27,23Z"></path><path d="M4,18c0,1.51,1.53,3.03,4.23,4.29A3.96,3.96,0,0,1,12,17c0-2.75,5.7-4,11-4s11,1.25,11,4a3.96,3.96,0,0,1,3.77,5.29C40.47,21.03,42,19.51,42,18c0-3.31-7.8-7-19-7S4,14.69,4,18Z"></path><path d="M20.04,34.58a.218.218,0,0,1-.04.05V38a3,3,0,0,0,6,0V34.63a.218.218,0,0,1-.04-.05,10.64,10.64,0,0,1-5.92,0Z"></path><path d="M23,9a45.827,45.827,0,0,1,9.69.99C31.59,6.57,27.63,4,23,4c-4.6,0-8.55,2.54-9.68,5.99A45.8,45.8,0,0,1,23,9Z"></path><path d="M59.66,47.2a5.306,5.306,0,0,0-3.71-2.94,4.751,4.751,0,0,0-2.87.41,7.235,7.235,0,0,1-2.008.6,11.349,11.349,0,0,0-.511-4.169,4.59,4.59,0,0,0,3.679-1.51,4.362,4.362,0,0,0,1.42-4.25,4.362,4.362,0,0,0-4.25,1.42,4.85,4.85,0,0,0-1.5,2.9A5.4,5.4,0,0,0,46.2,37.02L45.8,38.98c3.325.666,3.363,4.785,3.26,6.312a7.248,7.248,0,0,1-2.144-.622,4.927,4.927,0,0,0-2.08-.48,4.146,4.146,0,0,0-.79.07,5.306,5.306,0,0,0-3.71,2.94,9.374,9.374,0,0,0-.81,5.98c.76,4.34,4.04,7.4,7.3,6.84a4.447,4.447,0,0,0,1.07-.34,5.125,5.125,0,0,1,4.2,0,4.023,4.023,0,0,0,1.07.33c3.26.58,6.54-2.49,7.3-6.83A9.374,9.374,0,0,0,59.66,47.2Z"></path></g></svg>