<svg xmlns="http://www.w3.org/2000/svg" viewBox="0 0 48 48" x="0px" y="0px"><title>Pointer</title><g><path d="M24,0A24,24,0,1,0,48,24,24.028,24.028,0,0,0,24,0Zm0,46A22,22,0,1,1,46,24,22.025,22.025,0,0,1,24,46Z"></path><path d="M24,7A12.013,12.013,0,0,0,12,19c0,12.332,10.9,21.4,11.367,21.774a1,1,0,0,0,1.221.035C25.054,40.47,36,32.355,36,19A12.013,12.013,0,0,0,24,7Zm.032,31.694C21.782,36.63,14,28.777,14,19a10,10,0,0,1,20,0C34,29.557,26.3,36.792,24.032,38.694Z"></path><path d="M24,14a5,5,0,1,0,5,5A5.006,5.006,0,0,0,24,14Zm0,8a3,3,0,1,1,3-3A3,3,0,0,1,24,22Z"></path></g></svg>