<svg xmlns="http://www.w3.org/2000/svg" viewBox="0 0 64 64" x="0px" y="0px"><circle cx="44" cy="44" r="1"></circle><path d="M34,48A13.971,13.971,0,0,1,55.265,36.055c.193-.8.362-1.617.478-2.438.026-.188.041-.378.062-.566.048-.4.1-.8.127-1.208C55.975,31.229,56,30.614,56,30A26,26,0,1,0,30,56c.613,0,1.227-.025,1.839-.068.4-.029.8-.078,1.2-.126.192-.022.386-.037.577-.064.82-.116,1.631-.284,2.436-.477A13.9,13.9,0,0,1,34,48Zm9.435-30.021-1.414-1.415,1.415-1.414,1.414,1.415ZM50,31H48V29h2ZM30,54A24,24,0,1,1,54,30c0,.692-.03,1.394-.09,2.085l-1.992-.17c.055-.636.082-1.28.082-1.915A21.983,21.983,0,1,0,32.871,51.814l.258,1.984A24.322,24.322,0,0,1,30,54Zm1-44v2H29V10ZM15.15,16.565l1.414-1.415,1.415,1.414-1.414,1.415Zm2.829,26.871L16.564,44.85,15.15,43.435l1.415-1.414ZM12,29v2H10V29ZM29,50V48h2v2Zm4.535-19.293-2.828,2.829a1,1,0,0,1-1.414,0L26.758,31H17V29h9.758L29,26.757V15h2V26.757l2.535,2.536A1,1,0,0,1,33.535,30.707Z"></path><rect x="29" y="29" width="2" height="2" transform="translate(-12.426 30) rotate(-45)"></rect><path d="M48,36A12,12,0,1,0,60,48,12.013,12.013,0,0,0,48,36Zm-4,5a3,3,0,1,1-3,3A3,3,0,0,1,44,41ZM42.707,54.707l-1.414-1.414,12-12,1.414,1.414ZM52,55a3,3,0,1,1,3-3A3,3,0,0,1,52,55Z"></path><circle cx="52" cy="52" r="1"></circle></svg>