<svg xmlns="http://www.w3.org/2000/svg" viewBox="0 0 64 64" x="0px" y="0px"><g data-name="Loan-Real Estate-Investment-Loan-Financial"><path d="M61.707,10.293l-8-8A1,1,0,0,0,53,2H23a3,3,0,0,0-3,3V30H15a1,1,0,0,0-1,1v4a1,1,0,0,0,1,1h1v2H5a1,1,0,0,0-1,1v4a1,1,0,0,0,1,1H6V60H2v2H52V60H48V58H59a3,3,0,0,0,3-3V11A1,1,0,0,0,61.707,10.293ZM54,5.414,58.586,10H55a1,1,0,0,1-1-1ZM16,32H38v2H16ZM38,42V40H48v2Zm-2-6V60H31V56h1V54H22v2h1v4H18V36ZM29,56v4H25V56ZM6,40H16v2H6Zm2,4h8V60H8ZM38,60V44h8V60Zm21-4H48V44h1a1,1,0,0,0,1-1V39a1,1,0,0,0-1-1H38V36h1a1,1,0,0,0,1-1V31a1,1,0,0,0-1-1H22V5a1,1,0,0,1,1-1H52V9a3,3,0,0,0,3,3h5V55A1,1,0,0,1,59,56Z"></path><rect x="20" y="38" width="2" height="2"></rect><rect x="24" y="38" width="2" height="2"></rect><rect x="28" y="38" width="2" height="2"></rect><rect x="32" y="38" width="2" height="2"></rect><rect x="20" y="42" width="2" height="2"></rect><rect x="24" y="42" width="2" height="2"></rect><rect x="28" y="42" width="2" height="2"></rect><rect x="32" y="42" width="2" height="2"></rect><rect x="20" y="46" width="2" height="2"></rect><rect x="24" y="46" width="2" height="2"></rect><rect x="28" y="46" width="2" height="2"></rect><rect x="32" y="46" width="2" height="2"></rect><rect x="20" y="50" width="2" height="2"></rect><rect x="24" y="50" width="2" height="2"></rect><rect x="28" y="50" width="2" height="2"></rect><rect x="32" y="50" width="2" height="2"></rect><rect x="40" y="46" width="4" height="2"></rect><rect x="40" y="50" width="4" height="2"></rect><rect x="40" y="54" width="4" height="2"></rect><rect x="10" y="46" width="4" height="2"></rect><rect x="10" y="50" width="4" height="2"></rect><rect x="10" y="54" width="4" height="2"></rect><path d="M29,11h2a1,1,0,0,1,1,1h2a3,3,0,0,0-3-3V8H29V9a3,3,0,0,0,0,6h2a1,1,0,0,1,0,2H29a1,1,0,0,1-1-1H26a3,3,0,0,0,3,3v1h2V19a3,3,0,0,0,0-6H29a1,1,0,0,1,0-2Z"></path><rect x="38" y="17" width="10" height="2"></rect><rect x="38" y="13" width="2" height="2"></rect><rect x="42" y="13" width="2" height="2"></rect><rect x="46" y="13" width="2" height="2"></rect><rect x="44" y="23" width="12" height="2"></rect><rect x="44" y="27" width="12" height="2"></rect><rect x="44" y="31" width="12" height="2"></rect></g></svg>