<svg xmlns="http://www.w3.org/2000/svg" viewBox="0 0 64 64" x="0px" y="0px"><g><polygon points="32.618 40 43.382 40 44.382 38 31.618 38 32.618 40"></polygon><path d="M34,26h1V24a1,1,0,0,1,1-1h4a1,1,0,0,1,1,1v2h1a1,1,0,0,0,1-1V19a1,1,0,0,0-1-1H34a1,1,0,0,0-1,1v6A1,1,0,0,0,34,26Zm5-6h2v2H39Zm-4,0h2v2H35Z"></path><path d="M33.3,28,31,29.535V36h2V35a5,5,0,0,1,10,0v1h2V29.535L42.7,28Z"></path><rect x="37" y="25" width="2" height="1"></rect><path d="M14,58V52.889a9.05,9.05,0,0,1,.95-4.025l1.522-3.044A5.036,5.036,0,0,0,17,43.583V42.79a6.978,6.978,0,0,1,.239-1.812L19.1,34.014a1,1,0,0,0-.707-1.225,1,1,0,0,0-.758.1.989.989,0,0,0-.466.607L16.02,37.8A3.038,3.038,0,0,1,13.1,40.014a2.969,2.969,0,0,1-2.525-1.451L8.143,34.515A1,1,0,0,1,8,34V26.1A5.008,5.008,0,0,0,4,31V42.528a1.027,1.027,0,0,0,.105.448L5.684,46.13A3.022,3.022,0,0,1,6,47.472V58Z"></path><path d="M10,25v8.723l2.287,3.811a.98.98,0,0,0,.835.48h.012a.988.988,0,0,0,.954-.732l1.153-4.3A2.959,2.959,0,0,1,18,30.771V10H13a3,3,0,0,0-3,3Zm4-1a3,3,0,1,1-3,3A3,3,0,0,1,14,24Z"></path><path d="M38,32a3,3,0,0,0-3,3v1h6V35A3,3,0,0,0,38,32Z"></path><circle cx="14" cy="27" r="1"></circle><path d="M60,13a3,3,0,0,0-3-3H20V31.406a2.985,2.985,0,0,1,1.036,3.126L20,38.4V44H57a3,3,0,0,0,3-3ZM24,13h4v2H24Zm0,4h4v2H24ZM52,36a1,1,0,0,0-2,0H48a3,3,0,0,1,2-2.816V33a3,3,0,0,0-3-3v7a1,1,0,0,1-.1.447l-2,4A1,1,0,0,1,44,42H32a1,1,0,0,1-.895-.553l-2-4A1,1,0,0,1,29,37V30a3,3,0,0,0-3,3v.184A3,3,0,0,1,28,36H26a1,1,0,0,0-2,0H22a3,3,0,0,1,2-2.816V33a5.006,5.006,0,0,1,5-5h.7l1.876-1.251A2.972,2.972,0,0,1,31,25V19a3,3,0,0,1,3-3h3V12h2v4h3a3,3,0,0,1,3,3v6a2.972,2.972,0,0,1-.573,1.749L46.3,28H47a5.006,5.006,0,0,1,5,5v.184A3,3,0,0,1,54,36Zm4-17H50V17h6Zm0-4H50V13h6Z"></path><rect x="28" y="48" width="14" height="2"></rect><rect x="44" y="48" width="2" height="2"></rect><rect x="32" y="4" width="14" height="2"></rect><rect x="28" y="4" width="2" height="2"></rect></g></svg>