<svg xmlns="http://www.w3.org/2000/svg" viewBox="0 0 64 64" x="0px" y="0px"><g data-name="Checkup"><path d="M43.912,19.59a10.99,10.99,0,0,0-15.527-8.569,3.223,3.223,0,0,1-2.77,0,10.991,10.991,0,0,0-13.66,16.23,20.9,20.9,0,0,1,3.378,8.272l1.394,8A2.992,2.992,0,0,0,19.682,46h1.561a3.009,3.009,0,0,0,2.975-2.614l1.1-8.514A1,1,0,0,1,26.313,34h1.374a1,1,0,0,1,.992.871l1.1,8.515A3.009,3.009,0,0,0,32.757,46h1.561a2.992,2.992,0,0,0,2.955-2.481l1.394-8a20.9,20.9,0,0,1,3.378-8.272A11.012,11.012,0,0,0,43.912,19.59ZM40.4,26.111A22.894,22.894,0,0,0,36.7,35.18L35.3,43.175a1,1,0,0,1-.985.825H32.757a1,1,0,0,1-.991-.871l-1.1-8.515A3.008,3.008,0,0,0,27.687,32H26.313a3.008,3.008,0,0,0-2.975,2.614l-1.1,8.514a1,1,0,0,1-.991.872H19.682a1,1,0,0,1-.985-.825L17.3,35.18A22.894,22.894,0,0,0,13.6,26.111,8.992,8.992,0,0,1,24.771,12.834a5.263,5.263,0,0,0,4.458,0A8.992,8.992,0,0,1,40.4,26.111Z"></path><path d="M55.992,44.678a3.071,3.071,0,0,0-4.241,0l-3.9-3.9a25.03,25.03,0,1,0-7.074,7.074l3.9,3.9a3,3,0,0,0,0,4.241l5.656,5.657,1.415-1.414-5.657-5.657a1,1,0,0,1,0-1.414l7.072-7.071a1.022,1.022,0,0,1,1.413,0l5.657,5.657,1.414-1.415ZM4,27A23,23,0,1,1,27,50,23.026,23.026,0,0,1,4,27ZM46.661,42.414l3.675,3.676L46.09,50.336l-3.676-3.675A25.172,25.172,0,0,0,46.661,42.414Z"></path><path d="M27,16a7.626,7.626,0,0,1-4.412-1.309L21.41,16.307A9.527,9.527,0,0,0,27,18a9.522,9.522,0,0,0,5.589-1.693l-1.178-1.616A7.625,7.625,0,0,1,27,16Z"></path></g></svg>