<svg xmlns="http://www.w3.org/2000/svg" viewBox="0 0 64 64" x="0px" y="0px"><g data-name="Cloud-Cloud Computing-Sent-Share-Transfer"><path d="M57,53h-.18a2.985,2.985,0,0,0-4.19-3.66,4.092,4.092,0,0,0-.63-.968V44a1,1,0,0,0-.293-.707l-4.436-4.436a5.986,5.986,0,0,0-4.877-8.837l9.313-9.313A1,1,0,0,0,52,20V17h5a4,4,0,0,0,0-8h-.18a2.985,2.985,0,0,0-4.19-3.66A3.991,3.991,0,1,0,45.55,9H45a4,4,0,0,0,0,8h5v2.586l-9.038,9.038A3.985,3.985,0,0,0,37,25a3.919,3.919,0,0,0-1.93.52,6.995,6.995,0,0,0-12.946,2.189L14,19.586V17h5a4,4,0,0,0,0-8h-.18a2.985,2.985,0,0,0-4.19-3.66A3.991,3.991,0,1,0,7.55,9H7a4,4,0,0,0,0,8h5v3a1,1,0,0,0,.293.707l9.313,9.313a5.986,5.986,0,0,0-4.877,8.837l-4.436,4.436A1,1,0,0,0,12,44v3.127A4.065,4.065,0,0,0,11,47a3.981,3.981,0,0,0-3.45,6H7a4,4,0,0,0,0,8H19a4,4,0,0,0,0-8h-.18a2.985,2.985,0,0,0-4.19-3.66,4.092,4.092,0,0,0-.63-.968V44.414l3.978-3.978A5.97,5.97,0,0,0,22,42H42a5.97,5.97,0,0,0,4.022-1.564L50,44.414v2.713A4.065,4.065,0,0,0,49,47a3.981,3.981,0,0,0-3.45,6H45a4,4,0,0,0,0,8H57a4,4,0,0,0,0-8ZM29,27a2.006,2.006,0,0,0-2,2H25a4,4,0,0,1,4-4ZM40,39H38V37h2Zm2,0V37a1,1,0,0,0,1-1h2A3.009,3.009,0,0,1,42,39Z"></path></g></svg>