<svg xmlns="http://www.w3.org/2000/svg" viewBox="0 0 64 64" x="0px" y="0px"><g data-name="Traffic Light"><path d="M61,3H39a1,1,0,0,0-1-1H26a1,1,0,0,0-1,1H3A1,1,0,0,0,2,4V8A1,1,0,0,0,3,9H25a1,1,0,0,0,1,1h3v2H23a3,3,0,0,0-3,3v1H15a1,1,0,0,0-.958,1.287l3,10A1,1,0,0,0,18,28h2v3H15a1,1,0,0,0-.958,1.287l3,10A1,1,0,0,0,18,43h2v3H15a1,1,0,0,0-.958,1.287l3,10A1,1,0,0,0,18,58h2v1a3,3,0,0,0,3,3H41a3,3,0,0,0,3-3V58h2a1,1,0,0,0,.958-.713l3-10A1,1,0,0,0,49,46H44V43h2a1,1,0,0,0,.958-.713l3-10A1,1,0,0,0,49,31H44V28h2a1,1,0,0,0,.958-.713l3-10A1,1,0,0,0,49,16H44V15a3,3,0,0,0-3-3H35V10h3a1,1,0,0,0,1-1H61a1,1,0,0,0,1-1V4A1,1,0,0,0,61,3ZM4,7V5H25V7ZM18.744,26l-2.4-8H20v8Zm0,15-2.4-8H20v8Zm0,15-2.4-8H20v8Zm28.912-8-2.4,8H44V48Zm0-15-2.4,8H44V33Zm0-15-2.4,8H44V18ZM42,15V59a1,1,0,0,1-1,1H23a1,1,0,0,1-1-1V15a1,1,0,0,1,1-1H41A1,1,0,0,1,42,15Zm-9-3H31V10h2Zm4-4H27V4H37ZM60,7H39V5H60Z"></path><path d="M32,31a6,6,0,1,0,6,6A6.006,6.006,0,0,0,32,31Zm0,10a4,4,0,1,1,4-4A4,4,0,0,1,32,41Z"></path><path d="M26,22a6,6,0,1,0,6-6A6.006,6.006,0,0,0,26,22Zm10,0a4,4,0,1,1-4-4A4,4,0,0,1,36,22Z"></path><path d="M32,46a6,6,0,1,0,6,6A6.006,6.006,0,0,0,32,46Zm0,10a4,4,0,1,1,4-4A4,4,0,0,1,32,56Z"></path></g></svg>