<svg xmlns="http://www.w3.org/2000/svg" viewBox="0 0 64 64" x="0px" y="0px"><g data-name="Tea Pot-Tea-Drink-Hot Drink-Kettle"><path d="M18.17,58A3.014,3.014,0,0,0,21,60H53a3.014,3.014,0,0,0,2.83-2Z"></path><path d="M60.27,32.45l-.67-6A4.986,4.986,0,0,0,54.63,22H50.3l.11,2h4.22a3,3,0,0,1,2.98,2.66l.66,6.01A2.99,2.99,0,0,1,55.3,36H51.12l.12,2H55.3a5,5,0,0,0,4.97-5.55Z"></path><path d="M47.9,16A5.009,5.009,0,0,0,43,12H31a5.009,5.009,0,0,0-4.9,4Z"></path><path d="M24.58,43.45a1.039,1.039,0,0,1-.41.76,1.025,1.025,0,0,1-.83.16l-2.79-.7a5.007,5.007,0,0,1-3.78-4.45L15.44,22.6a4.926,4.926,0,0,0-3.32-4.31L10.4,20.01a3.015,3.015,0,0,1,2.75,2.74l1.37,16.46a7,7,0,0,0,5.28,6.21l3.72.93a1.007,1.007,0,0,1,.76,1.05l-.11,1.47a10.1,10.1,0,0,0,.48,3.93l.39,1.14A2.978,2.978,0,0,0,27.88,56H46.12a2.982,2.982,0,0,0,2.84-2.05l.42-1.26a9.955,9.955,0,0,0,.5-3.74L48.06,18H25.95Z"></path><path d="M38.22,10l.72-2.88a2.24,2.24,0,0,0-3.88,0L35.78,10Z"></path><path d="M11,14a8.476,8.476,0,0,1,1.832-5.445A10.5,10.5,0,0,0,15,2H13a8.476,8.476,0,0,1-1.832,5.445A10.5,10.5,0,0,0,9,14Z"></path><path d="M10,4H8A8.476,8.476,0,0,1,6.168,9.445,10.5,10.5,0,0,0,4,16H6a8.476,8.476,0,0,1,1.832-5.445A10.5,10.5,0,0,0,10,4Z"></path></g></svg>