<svg xmlns="http://www.w3.org/2000/svg" viewBox="0 0 64 64" x="0px" y="0px"><title>Delivery</title><g><path d="M61,13H21a1,1,0,0,0-1,1V25H7a1,1,0,0,0-.97.757l-4,16A1,1,0,0,0,2,42v8a1,1,0,0,0,1,1H7a5,5,0,0,0,10,0H47a5,5,0,0,0,10,0h4a1,1,0,0,0,1-1V14A1,1,0,0,0,61,13ZM22,15H60V41H22V15ZM6.781,31H16v8H4.781ZM12,54a3,3,0,0,1-3-3,2.7,2.7,0,0,1,.1-.753A2.987,2.987,0,0,1,12,48a2.989,2.989,0,0,1,2.907,2.271A2.634,2.634,0,0,1,15,51,3,3,0,0,1,12,54Zm40,0a3,3,0,0,1-3-3,2.7,2.7,0,0,1,.1-.753A2.987,2.987,0,0,1,52,48a2.989,2.989,0,0,1,2.907,2.271A2.634,2.634,0,0,1,55,51,3,3,0,0,1,52,54Zm8-5H56.583l-.012-.023c-.025-.056-.059-.107-.086-.163a4.871,4.871,0,0,0-.286-.522c-.051-.08-.11-.152-.165-.228-.1-.132-.2-.263-.3-.385-.069-.077-.142-.147-.215-.22-.109-.108-.221-.213-.34-.311-.081-.067-.165-.13-.25-.192-.124-.089-.251-.172-.383-.25-.09-.053-.18-.106-.274-.153-.14-.072-.285-.133-.432-.191-.094-.037-.185-.077-.281-.108a5.019,5.019,0,0,0-.507-.13c-.085-.018-.167-.043-.253-.057a4.762,4.762,0,0,0-1.592,0c-.087.014-.17.039-.256.057a4.99,4.99,0,0,0-.5.129c-.1.032-.2.074-.293.112-.141.057-.28.115-.414.183-.1.051-.2.108-.3.167-.12.071-.236.146-.349.227s-.194.143-.287.22-.2.172-.288.263-.182.177-.266.272-.157.194-.232.294-.161.206-.231.318-.129.23-.191.346-.123.215-.173.33L47.417,49H16.583l-.012-.023c-.025-.056-.059-.107-.086-.163a4.871,4.871,0,0,0-.286-.522c-.051-.08-.11-.152-.165-.228-.1-.132-.195-.263-.3-.385-.069-.077-.142-.147-.215-.22-.109-.108-.221-.213-.34-.311-.081-.067-.165-.13-.25-.192-.124-.089-.251-.172-.383-.25-.09-.053-.18-.106-.274-.153-.14-.072-.285-.133-.432-.191-.094-.037-.185-.077-.281-.108a5.019,5.019,0,0,0-.507-.13c-.085-.018-.167-.043-.253-.057a4.762,4.762,0,0,0-1.592,0c-.087.014-.17.039-.256.057a4.99,4.99,0,0,0-.5.129c-.1.032-.2.074-.293.112-.141.057-.28.115-.414.183-.1.051-.2.108-.3.167-.12.071-.236.146-.349.227s-.194.143-.287.22-.195.172-.288.263-.182.177-.266.272-.157.194-.232.294-.161.206-.231.318-.129.23-.191.346-.123.215-.173.33L7.417,49H4V45H7V43H4v-.877L4.281,41H17a1,1,0,0,0,1-1V30a1,1,0,0,0-1-1H7.281l.5-2H20V42a1,1,0,0,0,1,1H60Z"></path><rect x="11" y="50" width="2" height="2"></rect><rect x="51" y="50" width="2" height="2"></rect><rect x="25" y="17" width="2" height="22"></rect><rect x="31" y="17" width="2" height="22"></rect><rect x="37" y="17" width="2" height="22"></rect><rect x="43" y="17" width="2" height="22"></rect><rect x="49" y="17" width="2" height="22"></rect><rect x="55" y="17" width="2" height="22"></rect></g></svg>