<svg xmlns="http://www.w3.org/2000/svg" viewBox="0 0 64 64" x="0px" y="0px"><g><path d="M20,37a3,3,0,0,0-3-3H7a3,3,0,0,0-3,3V57a3,3,0,0,0,3,3H17a3,3,0,0,0,3-3ZM10,36h4v2H10ZM6,38V36H8v2Zm8,20H10V56h4Zm3-6H7V50H17Zm0-4H7V46H17Zm0-4H7V42H17Z"></path><path d="M60,37a3,3,0,0,0-3-3H47a3,3,0,0,0-3,3V57a3,3,0,0,0,3,3H57a3,3,0,0,0,3-3ZM50,36h4v2H50Zm-4,2V36h2v2Zm8,20H50V56h4Zm3-6H47V50H57Zm0-4H47V46H57Zm0-4H47V42H57Z"></path><path d="M36,24a3.014,3.014,0,0,0-2.83,2H45V24Z"></path><path d="M19,26H30.83A3.014,3.014,0,0,0,28,24H19Z"></path><rect x="15" y="8" width="2" height="18"></rect><path d="M31,23.03V7a3.009,3.009,0,0,0-3-3H19V22h9A4.924,4.924,0,0,1,31,23.03ZM21,6h8V8H21Zm0,4h8v2H21Zm0,4h8v2H21Zm0,4h8v2H21Z"></path><rect x="47" y="8" width="2" height="18"></rect><path d="M33,7V23.03A4.924,4.924,0,0,1,36,22h9V4H36A3.009,3.009,0,0,0,33,7ZM43,20H35V18h8Zm0-4H35V14h8Zm0-4H35V10h8Zm0-4H35V6h8Z"></path><rect x="24" y="44" width="4" height="2"></rect><rect x="30" y="44" width="2" height="2"></rect><rect x="34" y="44" width="2" height="2"></rect><rect x="38" y="44" width="2" height="2"></rect><rect x="24" y="48" width="2" height="2"></rect><rect x="28" y="48" width="2" height="2"></rect><rect x="32" y="48" width="2" height="2"></rect><rect x="36" y="48" width="4" height="2"></rect><rect x="55" y="24" width="2" height="6"></rect><rect x="55" y="20" width="2" height="2"></rect><rect x="55" y="16" width="2" height="2"></rect><rect x="55" y="12" width="2" height="2"></rect><path d="M55,10h2V7a1,1,0,0,0-1-1H53V8h2Z"></path><rect x="7" y="24" width="2" height="6"></rect><rect x="7" y="20" width="2" height="2"></rect><rect x="7" y="16" width="2" height="2"></rect><rect x="7" y="12" width="2" height="2"></rect><path d="M9,8h2V6H8A1,1,0,0,0,7,7v3H9Z"></path></g></svg>