<svg xmlns="http://www.w3.org/2000/svg" viewBox="0 0 64 64" x="0px" y="0px"><g data-name="Sewing Machine-Sewing-Fashion-Handcraft-DIY"><path d="M57,29h4a1,1,0,0,0,1-1V12a1,1,0,0,0-1-1H57a1,1,0,0,0-1,1v2H54V12a1,1,0,0,0-1-1H7a1.033,1.033,0,0,0-.71.29l-4,4A1.033,1.033,0,0,0,2,16V30a1,1,0,0,0,.11.45l3,6A.977.977,0,0,0,6,37H7v2H5v2H7v2H9V41h2V39H9V37h1a.977.977,0,0,0,.89-.55l3-6A1,1,0,0,0,14,30V25H34V47H3a1,1,0,0,0-1,1v4a1,1,0,0,0,1,1H61a1,1,0,0,0,1-1V48a1,1,0,0,0-1-1H54V26h2v2A1,1,0,0,0,57,29Zm1-16h2V27H58ZM36,13H52V47H36ZM7.41,13H34v2H5.41ZM12,29.76,9.38,35H6.62L4,29.76V25h8ZM14.62,23l1-2H26.38l1,2Zm15,0-1.73-3.45A.977.977,0,0,0,27,19H15a.977.977,0,0,0-.89.55L12.38,23H4V17H34v6ZM60,49v2H4V49ZM54,24V16h2v8Z"></path><rect x="7" y="28" width="2" height="2"></rect><path d="M49,16H39a1,1,0,0,0-1,1V33a1,1,0,0,0,1,1H49a1,1,0,0,0,1-1V17A1,1,0,0,0,49,16ZM48,32H40V18h8Z"></path><polygon points="43 30 45 30 45 28 46 28 46 26 45 26 45 20 43 20 43 26 42 26 42 28 43 28 43 30"></polygon><path d="M44,36a4,4,0,1,0,4,4A4,4,0,0,0,44,36Zm0,6a2,2,0,1,1,2-2A2,2,0,0,1,44,42Z"></path></g></svg>