<svg xmlns="http://www.w3.org/2000/svg" viewBox="0 0 64 64" x="0px" y="0px"><g><path d="M57,6H7a5.006,5.006,0,0,0-5,5V45a5.006,5.006,0,0,0,5,5H23.867l-.75,6H22a1,1,0,0,0-1,1v3H17v2H47V60H43V57a1,1,0,0,0-1-1H40.883l-.75-6H57a5.006,5.006,0,0,0,5-5V11A5.006,5.006,0,0,0,57,6ZM7,8H57a3,3,0,0,1,3,3V40H4V11A3,3,0,0,1,7,8ZM41,60H23V58H41Zm-2.133-4H25.133l.75-6H38.117ZM57,48H7a3,3,0,0,1-3-3V42H60v3A3,3,0,0,1,57,48Z"></path><rect x="56" y="44" width="2" height="2"></rect><rect x="23.515" y="23" width="16.971" height="2" transform="translate(-7.598 29.657) rotate(-45)"></rect><path d="M34,29a3,3,0,1,0,3-3A3,3,0,0,0,34,29Zm4,0a1,1,0,1,1-1-1A1,1,0,0,1,38,29Z"></path><path d="M30,19a3,3,0,1,0-3,3A3,3,0,0,0,30,19Zm-4,0a1,1,0,1,1,1,1A1,1,0,0,1,26,19Z"></path><path d="M20.919,28.615a12.008,12.008,0,0,1,15.7-15.7l.77-1.845A14.007,14.007,0,0,0,19.074,29.386Z"></path><path d="M32,36a11.953,11.953,0,0,1-4.616-.919l-.769,1.845A14.007,14.007,0,0,0,44.926,18.614l-1.845.77A12.009,12.009,0,0,1,32,36Z"></path></g></svg>