<svg xmlns="http://www.w3.org/2000/svg" viewBox="0 0 64 64" x="0px" y="0px"><g><path d="M29,52a3,3,0,1,0,3,3A3,3,0,0,0,29,52Zm0,4a1,1,0,1,1,1-1A1,1,0,0,1,29,56Z"></path><path d="M52,30a4,4,0,1,0,4,4A4,4,0,0,0,52,30Zm0,6a2,2,0,1,1,2-2A2,2,0,0,1,52,36Z"></path><path d="M61.242,32.03l-1.606-.4a7.932,7.932,0,0,0-.56-1.349l.853-1.421a1,1,0,0,0-.151-1.222l-1.414-1.414a1,1,0,0,0-1.222-.151l-1.421.853a7.932,7.932,0,0,0-1.349-.56l-.4-1.606A1,1,0,0,0,53,24H51a1,1,0,0,0-.97.758l-.4,1.606a7.932,7.932,0,0,0-1.349.56L47,26.157V7a5.006,5.006,0,0,0-5-5H16a5.006,5.006,0,0,0-5,5V21a1,1,0,0,0-1,1H3a1,1,0,0,0-1,1V39a1,1,0,0,0,1,1h7a1,1,0,0,0,1,1V57a5.006,5.006,0,0,0,5,5H42a5.006,5.006,0,0,0,5-5V53h3a3,3,0,0,0,3-3V46H51v4a1,1,0,0,1-1,1H47V41.843l1.279-.767a7.932,7.932,0,0,0,1.349.56l.4,1.606A1,1,0,0,0,51,44h2a1,1,0,0,0,.97-.758l.4-1.606a7.932,7.932,0,0,0,1.349-.56l1.421.853a1,1,0,0,0,1.222-.151l1.414-1.414a1,1,0,0,0,.151-1.222l-.853-1.421a7.932,7.932,0,0,0,.56-1.349l1.606-.4A1,1,0,0,0,62,35V33A1,1,0,0,0,61.242,32.03ZM23,4H35V6H23ZM12,39V23h6V39ZM4,38V24h6V38ZM45,53v4a3,3,0,0,1-3,3H16a3,3,0,0,1-3-3V41h6a1,1,0,0,0,1-1h5v.55A5.945,5.945,0,0,0,23,45,6.03,6.03,0,0,0,26.6,50.5,1,1,0,0,0,28,49.59V46.618l1-.5,1,.5V49.59a1,1,0,0,0,1.405.914A6.03,6.03,0,0,0,35,45a5.945,5.945,0,0,0-2-4.45V40h3a3,3,0,0,0,3-3V25a3,3,0,0,0-3-3H34.816A3,3,0,0,0,33,20.184v-.733A5.914,5.914,0,0,0,35,15a6.03,6.03,0,0,0-3.595-5.5A1,1,0,0,0,30,10.41v2.972l-1,.5-1-.5V10.41A1,1,0,0,0,26.6,9.5,6.03,6.03,0,0,0,23,15a5.914,5.914,0,0,0,2,4.451V20H23a1,1,0,0,0-.447.105l-2.727,1.364A.982.982,0,0,0,19,21H13V7a3,3,0,0,1,3-3h5V6a2,2,0,0,0,2,2H35a2,2,0,0,0,2-2V4h5a3,3,0,0,1,3,3v5H39v2h6V26.858l-.778.778a1,1,0,0,0-.151,1.222l.853,1.421a7.932,7.932,0,0,0-.56,1.349l-1.606.4A1,1,0,0,0,42,33v2a1,1,0,0,0,.758.97l1.606.4a7.932,7.932,0,0,0,.56,1.349l-.853,1.421a1,1,0,0,0,.151,1.222l.778.778V51H39v2ZM23.236,22H32a1,1,0,0,1,0,2H28a1,1,0,0,0-1,1,5.006,5.006,0,0,1-5,5v2a6.962,6.962,0,0,0,3-.679V38H20V23.618Zm3.389-3.8A3.945,3.945,0,0,1,25,15a4.008,4.008,0,0,1,1-2.644V14a1,1,0,0,0,.553.895l2,1a1,1,0,0,0,.894,0l2-1A1,1,0,0,0,32,14V12.356A4.008,4.008,0,0,1,33,15a3.945,3.945,0,0,1-1.625,3.2.987.987,0,0,0-.375.979V20H27v-.758A1,1,0,0,0,26.625,18.2ZM34.816,24H36a1,1,0,0,1,1,1v1H32A3,3,0,0,0,34.816,24ZM31.4,41.816A3.976,3.976,0,0,1,32,47.644V46a1,1,0,0,0-.553-.9l-2-1a1,1,0,0,0-.894,0l-2,1A1,1,0,0,0,26,46v1.644a3.976,3.976,0,0,1,.605-5.828,1,1,0,0,0,.395-.8V29.891a7.025,7.025,0,0,0,1.05-1.383A2.849,2.849,0,0,0,28.78,31a2.954,2.954,0,0,0,0,4A2.987,2.987,0,0,0,31,40v1.02A1,1,0,0,0,31.4,41.816ZM28.78,27c-.042.047-.081.1-.12.146.023-.071.041-.144.062-.216C28.742,26.953,28.76,26.977,28.78,27ZM30,33a1,1,0,0,1,1-1h6v2H31A1,1,0,0,1,30,33Zm7-3H31a1,1,0,0,1,0-2h6Zm-6,8a1,1,0,0,1,0-2h6v1a1,1,0,0,1-1,1Zm29-3.781-1.419.355a1,1,0,0,0-.733.75A5.948,5.948,0,0,1,57.07,37.2a1,1,0,0,0-.012,1.049l.754,1.256-.31.31-1.256-.754a1,1,0,0,0-1.049.012,5.948,5.948,0,0,1-1.873.778,1,1,0,0,0-.75.733L52.219,42h-.438l-.355-1.419a1,1,0,0,0-.75-.733A5.948,5.948,0,0,1,48.8,39.07a1,1,0,0,0-1.049-.012l-1.256.754-.31-.31.754-1.256A1,1,0,0,0,46.93,37.2a5.948,5.948,0,0,1-.778-1.873,1,1,0,0,0-.733-.75L44,34.219v-.438l1.419-.355a1,1,0,0,0,.733-.75A5.948,5.948,0,0,1,46.93,30.8a1,1,0,0,0,.012-1.049L46.188,28.5l.31-.31,1.256.754A1,1,0,0,0,48.8,28.93a5.948,5.948,0,0,1,1.873-.778,1,1,0,0,0,.75-.733L51.781,26h.438l.355,1.419a1,1,0,0,0,.75.733,5.948,5.948,0,0,1,1.873.778,1,1,0,0,0,1.049.012l1.256-.754.31.31-.754,1.256A1,1,0,0,0,57.07,30.8a5.948,5.948,0,0,1,.778,1.873,1,1,0,0,0,.733.75L60,33.781Z"></path><path d="M52,16a3,3,0,1,0-3-3A3,3,0,0,0,52,16Zm0-4a1,1,0,1,1-1,1A1,1,0,0,1,52,12Z"></path><rect x="51" y="18" width="2" height="4"></rect></g></svg>