<svg xmlns="http://www.w3.org/2000/svg" viewBox="0 0 64 64" x="0px" y="0px"><g data-name="Cctv Camera-Security-Security Camera-Smartphone-Keypad"><path d="M48,19a4,4,0,1,0,4,4A4,4,0,0,0,48,19Zm0,6a2,2,0,1,1,2-2A2.006,2.006,0,0,1,48,25Z"></path><path d="M41,13.89V9a5,5,0,0,0-5-5H16a5,5,0,0,0-5,5V45a5.828,5.828,0,0,0,.03.59l3.4-5.88a4,4,0,0,1,7.15,3.54A2.982,2.982,0,0,1,24,42h4a3,3,0,0,1,0,6H24a2.961,2.961,0,0,1-2.83-3.95L17.73,50H36a5,5,0,0,0,5-5V38.11a13.975,13.975,0,0,1,0-24.22ZM22,6h8V8H22ZM18,6h2V8H18Zm.83,27.41-1.42,1.42L16,33.41l-1.41,1.42-1.42-1.42L14.59,32l-1.42-1.41,1.42-1.42L16,30.59l1.41-1.42,1.42,1.42L17.41,32Zm7,0-1.42,1.42L23,33.41l-1.41,1.42-1.42-1.42L21.59,32l-1.42-1.41,1.42-1.42L23,30.59l1.41-1.42,1.42,1.42L24.41,32ZM19,27a2.006,2.006,0,0,1-2-2V18.75L15.6,19.8l-1.2-1.6,8-6a.99.99,0,0,1,1.2,0l8,6-1.2,1.6L29,18.75V25a2.006,2.006,0,0,1-2,2Zm13.83,6.41-1.42,1.42L30,33.41l-1.41,1.42-1.42-1.42L28.59,32l-1.42-1.41,1.42-1.42L30,30.59l1.41-1.42,1.42,1.42L31.41,32Z"></path><path d="M23,14.25l-4,3V25h8V17.25ZM24,19H22V17h2Z"></path><path d="M28,46a1,1,0,0,0,0-2H24a1,1,0,0,0,0,2Z"></path><path d="M48,14A12,12,0,1,0,60,26,12.01,12.01,0,0,0,48,14Zm7,20a1,1,0,0,1-1,1H42a1,1,0,0,1-1-1V30a3,3,0,0,1,2.58-2.96,6,6,0,1,1,8.84,0A3,3,0,0,1,55,30Z"></path><path d="M15.13,50.5a1.031,1.031,0,0,0,.01,1.02l2.14,3.55A5.049,5.049,0,0,1,18,57.65V61H4V44.19a9.038,9.038,0,0,1,.83-3.76L9,31.38V45a6.994,6.994,0,0,0,.89,3.41.992.992,0,0,0,1.79.05l4.49-7.75a2.054,2.054,0,0,1,2.73-.73,1.968,1.968,0,0,1,.94,1.21,2.016,2.016,0,0,1-.21,1.52Z"></path><path d="M52,29H44a1,1,0,0,0-1,1v3H53V30A1,1,0,0,0,52,29Z"></path></g></svg>