<svg xmlns="http://www.w3.org/2000/svg" viewBox="0 0 64 64" x="0px" y="0px"><g><circle cx="22" cy="11" r="2"></circle><path d="M36,41v4H60V5H36V9h2v2H36v4h2v2H36v4h2v2H36v4h2v2H36v4h2v2H36v4h2v2ZM54,11h2v2H54Zm0,4h2v2H54Zm0,4h2v2H54Zm0,4h2v2H54Zm0,4h2v2H54Zm0,4h2v2H54Zm0,4h2v2H54Zm0,4h2v2H54ZM42,11H52v2H42Zm0,4H52v2H42Zm0,4H52v2H42Zm0,4H52v2H42Zm0,4H52v2H42Zm0,4H52v2H42Zm0,4H52v2H42Zm0,4H52v2H42Z"></path><path d="M34,9V5H10V37H24a7.008,7.008,0,0,1,7,7,6.634,6.634,0,0,1-.08,1H34V41H32V39h2V35H32V33h2V29H32V27h2V23H32V21h2V17H32V15h2V11H32V9ZM24,33H14V31H24Zm0-4H14V27H24Zm0-4H14V23H24Zm0-4H14V19H24Zm-2-6a4,4,0,1,1,4-4A4,4,0,0,1,22,15Zm6,18H26V31h2Zm0-4H26V27h2Zm0-4H26V23h2Zm0-4H26V19h2Z"></path><path d="M4,58a1,1,0,0,0,1,1H23a1,1,0,0,0,1-1V57H4Z"></path><path d="M25,44a1,1,0,0,0-1-1H23v2h1A1,1,0,0,0,25,44Z"></path><path d="M16,55a5,5,0,0,0,5-5V39H7V50a5,5,0,0,0,5,5Z"></path><path d="M24,39H23v2h1a3,3,0,0,1,0,6H23v2h1a5,5,0,0,0,0-10Z"></path></g></svg>