<svg xmlns="http://www.w3.org/2000/svg" viewBox="0 0 64 64" x="0px" y="0px"><title>Add-Book</title><g><path d="M51,29A11,11,0,1,0,40,18,11.013,11.013,0,0,0,51,29ZM51,9a9,9,0,1,1-9,9A9.011,9.011,0,0,1,51,9Z"></path><polygon points="50 25 52 25 52 19 58 19 58 17 52 17 52 11 50 11 50 17 44 17 44 19 50 19 50 25"></polygon><path d="M60,55H33V54a3,3,0,0,1,3-3H57a1,1,0,0,0,1-1V30H56V49H36a4.967,4.967,0,0,0-3,1.012V18a3,3,0,0,1,3-3h2V13H36a5,5,0,0,0-4,2,5,5,0,0,0-4-2H7a1,1,0,0,0-1,1v5H3a1,1,0,0,0-1,1V56a1,1,0,0,0,1,1H61a1,1,0,0,0,1-1V28H60ZM31,55H4V21H6V50a1,1,0,0,0,1,1H28a3,3,0,0,1,3,3Zm0-4.988A4.967,4.967,0,0,0,28,49H8V15H28a3,3,0,0,1,3,3Z"></path><rect x="12" y="23" width="14" height="2"></rect><rect x="12" y="31" width="14" height="2"></rect><rect x="12" y="39" width="14" height="2"></rect><rect x="38" y="39" width="14" height="2"></rect></g></svg>