<svg xmlns="http://www.w3.org/2000/svg" viewBox="0 0 64 64" x="0px" y="0px"><g><path d="M19.184,24h5.632a2.982,2.982,0,0,0-5.632,0Z"></path><circle cx="49" cy="34" r="2"></circle><path d="M17.1,24a5,5,0,0,1,9.8,0H52l-6.6-8.8A3.017,3.017,0,0,0,43,14H21a3.017,3.017,0,0,0-2.4,1.2L12,24ZM29,16h6v2H29Z"></path><circle cx="15" cy="34" r="2"></circle><path d="M57,47H49v3a1,1,0,0,0,1,1h6a1,1,0,0,0,1-1Z"></path><path d="M15,47H7v3a1,1,0,0,0,1,1h6a1,1,0,0,0,1-1Z"></path><rect x="4" y="41" width="56" height="4"></rect><rect x="23" y="38" width="18" height="1"></rect><rect x="23" y="35" width="18" height="1"></rect><path d="M40,32H24a1,1,0,0,0-1,1H41A1,1,0,0,0,40,32Z"></path><path d="M4.779,24l4.71,0c.015-.018.035-.031.049-.05L11,22H4.28Z"></path><path d="M9.851,26.137,6.628,27.426A1,1,0,0,0,6,28.354V31H9v2H6v2H9v2H6v1a1,1,0,0,0,1,1H21V33a3,3,0,0,1,3-3H40a3,3,0,0,1,3,3v6H57a1,1,0,0,0,1-1V37H55V35h3V33H55V31h3V28.354a1,1,0,0,0-.629-.929l-3.222-1.288c-.086-.034-.158-.095-.241-.137H10.092C10.009,26.042,9.937,26.1,9.851,26.137ZM49,30a4,4,0,1,1-4,4A4,4,0,0,1,49,30ZM15,30a4,4,0,1,1-4,4A4,4,0,0,1,15,30Z"></path><path d="M54.463,23.951c.014.019.033.032.048.049H59.22l.5-2H53Z"></path></g></svg>