<svg xmlns="http://www.w3.org/2000/svg" viewBox="0 0 64 64" x="0px" y="0px"><g><path d="M54.229,14.027a1,1,0,0,0-1.124.526L52,16.764l-1.1-2.211a1.042,1.042,0,0,0-1.79,0L48,16.764l-1-2V7a5.006,5.006,0,0,0-5-5H16a5.006,5.006,0,0,0-5,5V57a5.006,5.006,0,0,0,5,5H42a5.006,5.006,0,0,0,5-5V56h6a2,2,0,0,0,2-2V15A1,1,0,0,0,54.229,14.027ZM23,4H35V5a1,1,0,0,1-1,1H24a1,1,0,0,1-1-1ZM45,57a3,3,0,0,1-3,3H16a3,3,0,0,1-3-3V7a3,3,0,0,1,3-3h5V5a3,3,0,0,0,3,3H34a3,3,0,0,0,3-3V4h5a3,3,0,0,1,3,3v7.764l-1,2-1.1-2.2A1,1,0,0,0,42.014,14h0a1,1,0,0,0-.894.551L40,16.769,38.9,14.553a1.042,1.042,0,0,0-1.79,0L36,16.764l-1.1-2.211a1.042,1.042,0,0,0-1.79,0L32,16.764,30.9,14.553A1,1,0,0,0,29,15V54a2,2,0,0,0,2,2H45Zm8-3H31V19.236l.105.211a1.042,1.042,0,0,0,1.79,0L34,17.236l1.1,2.211a1.042,1.042,0,0,0,1.79,0L38,17.236l1.1,2.211A1,1,0,0,0,40,20h0a1,1,0,0,0,.894-.551l1.113-2.213,1.1,2.209A1,1,0,0,0,44,20h0a1,1,0,0,0,.9-.553L46,17.236l1.1,2.211a1.042,1.042,0,0,0,1.79,0L50,17.236l1.1,2.211a1.042,1.042,0,0,0,1.79,0l.1-.211Z"></path><rect x="35" y="24" width="10" height="2"></rect><rect x="47" y="24" width="2" height="2"></rect><rect x="35" y="28" width="10" height="2"></rect><rect x="47" y="28" width="2" height="2"></rect><rect x="35" y="32" width="10" height="2"></rect><rect x="47" y="32" width="2" height="2"></rect><rect x="35" y="36" width="10" height="2"></rect><rect x="47" y="36" width="2" height="2"></rect><rect x="35" y="40" width="10" height="2"></rect><rect x="47" y="40" width="2" height="2"></rect><rect x="35" y="44" width="10" height="2"></rect><rect x="47" y="44" width="2" height="2"></rect><rect x="39" y="48" width="6" height="2"></rect><rect x="47" y="48" width="2" height="2"></rect></g></svg>