<svg xmlns="http://www.w3.org/2000/svg" viewBox="0 0 64 64" x="0px" y="0px"><g data-name="Air Conditioner-Internet of Things-App-Smartphone-Communicate"><polygon points="53.293 34.293 51.586 36 51 36 51 35.414 52.707 33.707 51.293 32.293 50 33.586 48.707 32.293 47.293 33.707 49 35.414 49 36 48.414 36 46.707 34.293 45.293 35.707 46.586 37 45.293 38.293 46.707 39.707 48.414 38 49 38 49 38.586 47.293 40.293 48.707 41.707 50 40.414 51.293 41.707 52.707 40.293 51 38.586 51 38 51.586 38 53.293 39.707 54.707 38.293 53.414 37 54.707 35.707 53.293 34.293"></polygon><polygon points="40.41 37 41.71 38.29 40.29 39.71 38.59 38 38 38 38 38.59 39.71 40.29 38.29 41.71 37 40.41 35.71 41.71 34.29 40.29 36 38.59 36 38 35.41 38 33.71 39.71 32.29 38.29 33.59 37 32.29 35.71 33.71 34.29 35.41 36 36 36 36 35.41 34.29 33.71 35.71 32.29 37 33.59 38.29 32.29 39.71 33.71 38 35.41 38 36 38.59 36 40.29 34.29 41.71 35.71 40.41 37"></polygon><rect x="39" y="26" width="2" height="4"></rect><rect x="49" y="26" width="2" height="4"></rect><rect x="34" y="26" width="2" height="2"></rect><path d="M60,7a3.009,3.009,0,0,0-3-3H15a3.009,3.009,0,0,0-3,3V19a2.829,2.829,0,0,0,.2,1H16V19a3.009,3.009,0,0,1,3-3H53a3.009,3.009,0,0,1,3,3v3h1a3.009,3.009,0,0,0,3-3ZM48,14H46V12h2Zm4,0H50V12h2Zm4,0H54V12h2Z"></path><path d="M28,54H4v1a5,5,0,0,0,5,5H23a5,5,0,0,0,5-5ZM17,58H15V56h2Z"></path><path d="M28,30H4V52H28ZM16,46l-1.414-1.414a2,2,0,0,1,2.828,0Zm2.122-3.122a3.006,3.006,0,0,0-4.244,0l-1.414-1.414a5.008,5.008,0,0,1,7.072,0ZM20.95,40.05a7,7,0,0,0-9.9,0L9.636,38.636a9,9,0,0,1,12.728,0Z"></path><path d="M53,18H19a1,1,0,0,0-1,1v1h5a6.952,6.952,0,0,1,4.89,2H54V19A1,1,0,0,0,53,18Z"></path><path d="M28,27a5,5,0,0,0-5-5H9a5,5,0,0,0-5,5v1H28ZM11,26H9V24h2Zm8,0H13V24h6Z"></path></g></svg>