<svg xmlns="http://www.w3.org/2000/svg" viewBox="0 0 64 64" x="0px" y="0px"><g><path d="M61,44H57V41a1,1,0,0,0-1-1H55V34a3.009,3.009,0,0,0-3-3H36a1,1,0,0,0-1-1H27a1,1,0,0,0-1,1v4a1,1,0,0,0,1,1v2h2V36h6a1,1,0,0,0,1-1V33H52a1,1,0,0,1,1,1v6H52a1,1,0,0,0-1,1v3H18V39a1,1,0,0,0-1-1H16V24.7l19.37,1.77,1.22,1.38a1.012,1.012,0,0,0,.75.34.783.783,0,0,0,.26-.04l2.9-.77a1.006,1.006,0,0,0,.71-1.23L34.99,2.97a1,1,0,0,0-1.22-.71l-2.9.78a1.016,1.016,0,0,0-.74.91l-.16,2.64L13.73,16.95,5.19,19.24a1,1,0,0,0-.71,1.22l1.55,5.8a1.006,1.006,0,0,0,1.23.71L10,26.23V38H9a1,1,0,0,0-1,1V59a3.009,3.009,0,0,0,3,3H59a3.009,3.009,0,0,0,3-3V45A1,1,0,0,0,61,44ZM34,34H28V32h6Zm19,8h2v2H53ZM20,46H50v5.59L45.59,56H24.41L20,51.59ZM32.08,4.78l1.24-.33L39.01,25.7l-1.33.36-.92-1.03L31.95,7.06ZM30.33,8.74l4.19,15.65L16.48,22.74,15.3,18.32ZM7.71,24.78,6.67,20.91l6.76-1.81,1.04,3.86Zm6.29.38V38H12V25.7ZM10,40h6v4H10ZM60,59a1,1,0,0,1-1,1H11a1,1,0,0,1-1-1V46h8v6a1.033,1.033,0,0,0,.29.71l5,5A1.033,1.033,0,0,0,24,58H46a1.033,1.033,0,0,0,.71-.29l5-5A1.033,1.033,0,0,0,52,52V46h8Z"></path><rect x="22" y="40" width="26" height="2"></rect><path d="M35,54a3,3,0,1,0-3-3A3,3,0,0,0,35,54Zm0-4a1,1,0,1,1-1,1A1,1,0,0,1,35,50Z"></path><path d="M43,54a3,3,0,1,0-3-3A3,3,0,0,0,43,54Zm0-4a1,1,0,1,1-1,1A1,1,0,0,1,43,50Z"></path><path d="M27,54a3,3,0,1,0-3-3A3,3,0,0,0,27,54Zm0-4a1,1,0,1,1-1,1A1,1,0,0,1,27,50Z"></path><rect x="12" y="48" width="4" height="2"></rect><rect x="12" y="52" width="4" height="2"></rect><rect x="12" y="56" width="4" height="2"></rect><rect x="54" y="48" width="4" height="2"></rect><rect x="54" y="52" width="4" height="2"></rect><rect x="54" y="56" width="4" height="2"></rect><rect x="19.576" y="17.185" width="10.001" height="2" transform="translate(-3.869 6.979) rotate(-14.997)"></rect><rect x="24.439" y="12.545" width="4" height="2" transform="translate(-2.605 7.304) rotate(-15)"></rect><rect x="26.509" y="20.272" width="4.001" height="2" transform="matrix(0.966, -0.259, 0.259, 0.966, -4.533, 8.101)"></rect></g></svg>