<svg xmlns="http://www.w3.org/2000/svg" viewBox="0 0 64 64" x="0px" y="0px"><g><path d="M15,14a3,3,0,1,0-3-3A3,3,0,0,0,15,14Zm0-4a1,1,0,1,1-1,1A1,1,0,0,1,15,10Z"></path><rect x="36" y="10" width="2" height="2"></rect><rect x="32" y="10" width="2" height="2"></rect><rect x="28" y="10" width="2" height="2"></rect><rect x="24" y="10" width="2" height="2"></rect><path d="M15,20a3,3,0,1,0,3,3A3,3,0,0,0,15,20Zm0,4a1,1,0,1,1,1-1A1,1,0,0,1,15,24Z"></path><rect x="36" y="22" width="2" height="2"></rect><rect x="32" y="22" width="2" height="2"></rect><rect x="28" y="22" width="2" height="2"></rect><rect x="24" y="22" width="2" height="2"></rect><path d="M15,32a3,3,0,1,0,3,3A3,3,0,0,0,15,32Zm0,4a1,1,0,1,1,1-1A1,1,0,0,1,15,36Z"></path><rect x="24" y="34" width="2" height="2"></rect><path d="M44.657,33.343a8,8,0,1,0,0,11.314A8.01,8.01,0,0,0,44.657,33.343Zm-1.414,9.9a6,6,0,1,1,0-8.486A6.01,6.01,0,0,1,43.243,43.243Z"></path><path d="M61.627,55.971l-9.192-9.193a1.029,1.029,0,0,0-1.414,0l-1.694-1.693a12.006,12.006,0,0,0-1.327-14V10a1,1,0,0,0-1-1H44V7a3,3,0,0,0-3-3H9A3,3,0,0,0,6,7v3H3a1,1,0,0,0-1,1V35a1,1,0,0,0,1,1H6v3a3,3,0,0,0,3,3H27.4a11.97,11.97,0,0,0,17.688,7.327l1.693,1.694a1,1,0,0,0,0,1.414l9.193,9.192a2,2,0,0,0,2.828,0L61.627,58.8A2,2,0,0,0,61.627,55.971ZM34.23,28H9a1,1,0,0,1-1-1V19a1,1,0,0,1,1-1H41a1,1,0,0,1,1,1v8a.976.976,0,0,1-.083.377A12.052,12.052,0,0,0,34.23,28ZM44,27V23h2v6.27a11.885,11.885,0,0,0-2.2-1.254A2.954,2.954,0,0,0,44,27Zm2-16V21H44V19a2.981,2.981,0,0,0-.78-2A2.981,2.981,0,0,0,44,15V11ZM8,7A1,1,0,0,1,9,6H41a1,1,0,0,1,1,1v8a1,1,0,0,1-1,1H9a1,1,0,0,1-1-1ZM4,12H6v3a2.981,2.981,0,0,0,.78,2A2.981,2.981,0,0,0,6,19v3H4ZM4,34V24H6v3a2.981,2.981,0,0,0,.78,2A2.981,2.981,0,0,0,6,31v3Zm5,6a1,1,0,0,1-1-1V31a1,1,0,0,1,1-1H31.084c-.191.169-.386.332-.569.515A11.973,11.973,0,0,0,27.053,40Zm22.929,6.071a10,10,0,1,1,14.142,0A10.009,10.009,0,0,1,31.929,46.071Zm14.813,2.086c.253-.215.505-.433.743-.672s.457-.489.672-.743l1.45,1.45-1.415,1.415Zm4.986.742,1.414,1.415-2.828,2.828L48.9,51.728Zm8.485,8.486-2.828,2.828-5.657-5.657,2.828-2.828,5.658,5.656Z"></path></g></svg>