<svg xmlns="http://www.w3.org/2000/svg" viewBox="0 0 64 64" x="0px" y="0px"><g><path d="M32,38A14,14,0,1,0,18,24,14.015,14.015,0,0,0,32,38Zm0-26A12,12,0,1,1,20,24,12.013,12.013,0,0,1,32,12Z"></path><path d="M29,24a3,3,0,1,0,4-2.816V17H31v4.184a2.971,2.971,0,0,0-.919.529l-2.559-1.566-1.044,1.706,2.579,1.579A3.03,3.03,0,0,0,29,24Zm3-1a1,1,0,1,1-1,1A1,1,0,0,1,32,23Z"></path><path d="M32,35A11,11,0,1,0,21,24,11.013,11.013,0,0,0,32,35Zm0-20a9,9,0,1,1-9,9A9.01,9.01,0,0,1,32,15Z"></path><path d="M47.414,14H49V12H47a1,1,0,0,0-.707.293l-2,2,1.414,1.414Z"></path><rect x="51" y="12" width="4" height="2"></rect><rect x="51" y="16" width="4" height="2"></rect><path d="M45.707,32.293l-1.414,1.414,2,2A1,1,0,0,0,47,36h2V34H47.414Z"></path><rect x="51" y="34" width="4" height="2"></rect><rect x="51" y="30" width="4" height="2"></rect><path d="M18.293,15.707l1.414-1.414-2-2A1,1,0,0,0,17,12H15v2h1.586Z"></path><rect x="9" y="12" width="4" height="2"></rect><rect x="9" y="16" width="4" height="2"></rect><path d="M17.707,35.707l2-2-1.414-1.414L16.586,34H15v2h2A1,1,0,0,0,17.707,35.707Z"></path><rect x="9" y="34" width="4" height="2"></rect><rect x="9" y="30" width="4" height="2"></rect><path d="M59,6H5A3,3,0,0,0,2,9V47a3,3,0,0,0,3,3H22.867l-.75,6H21a1,1,0,0,0-1,1v3H16v2H48V60H44V57a1,1,0,0,0-1-1H41.883l-.75-6H59a3,3,0,0,0,3-3V9A3,3,0,0,0,59,6ZM5,8H59a1,1,0,0,1,1,1V40H4V9A1,1,0,0,1,5,8ZM42,60H22V58H42Zm-2.133-4H24.133l.75-6H39.117ZM59,48H5a1,1,0,0,1-1-1V42H60v5A1,1,0,0,1,59,48Z"></path><rect x="52" y="44" width="4" height="2"></rect></g></svg>