<svg xmlns="http://www.w3.org/2000/svg" viewBox="0 0 64 64" x="0px" y="0px"><title>Plan</title><g><path d="M55.988,14.939a1,1,0,0,0-.052-.26c-.011-.032-.019-.062-.033-.093a1,1,0,0,0-.2-.293l-12-12a.976.976,0,0,0-.292-.2c-.032-.015-.064-.023-.1-.035a1,1,0,0,0-.253-.05C43.043,2.011,43.023,2,43,2H9A1,1,0,0,0,8,3V61a1,1,0,0,0,1,1H55a1,1,0,0,0,1-1V15C56,14.979,55.989,14.96,55.988,14.939ZM52.586,14H44V5.414ZM10,60V4H42V15a1,1,0,0,0,1,1H54V60Z"></path><path d="M49,21a3,3,0,0,0-3,3v1H44a1,1,0,0,0-1,1v6h2V27h1V53a1,1,0,0,0,.293.707l2,2a1,1,0,0,0,1.414,0l2-2A1,1,0,0,0,52,53V24A3,3,0,0,0,49,21Zm0,2a1,1,0,0,1,1,1v4H48V24A1,1,0,0,1,49,23Zm0,30.586-1-1V30h2V52.586Z"></path><rect x="14" y="8" width="24" height="2"></rect><rect x="14" y="14" width="4" height="2"></rect><rect x="20" y="14" width="18" height="2"></rect><path d="M39,23H33v2h3.586l-7,7H24a1,1,0,0,0-.707.293l-5,5,1.414,1.414L24.414,34H30a1,1,0,0,0,.707-.293L38,26.414V30h2V24A1,1,0,0,0,39,23Z"></path><path d="M16,20H14V42a1,1,0,0,0,1,1H40V41H16Z"></path><rect x="14" y="47" width="4" height="2"></rect><rect x="20" y="47" width="10" height="2"></rect><rect x="14" y="53" width="16" height="2"></rect></g></svg>