<svg xmlns="http://www.w3.org/2000/svg" viewBox="0 0 64 64" x="0px" y="0px"><g><rect x="13" y="34" width="2" height="8"></rect><path d="M53,53a3,3,0,0,1-3,3H33v2H50a5.006,5.006,0,0,0,5-5V40H53Z"></path><path d="M54.71,10.29l-8-8A1.033,1.033,0,0,0,46,2H18a5.029,5.029,0,0,0-3.75,1.69l1.5,1.33A2.992,2.992,0,0,1,18,4H45V9a3.009,3.009,0,0,0,3,3h7V11A1.033,1.033,0,0,0,54.71,10.29ZM48,10a1,1,0,0,1-1-1V5.41L51.59,10Z"></path><path d="M59,16H56V14H54v2H52V14H50v2H48V14H46v2H44V14H42v2H39a3,3,0,0,0-3,3V35a3,3,0,0,0,3,3H59a3,3,0,0,0,3-3V19A3,3,0,0,0,59,16ZM39,18h3v1h2V18h2v1h2V18h2v1h2V18h2v1h2V18h3a1,1,0,0,1,1,1v2H38V19A1,1,0,0,1,39,18Zm15,5v3H50V23Zm-6,3H44V23h4Zm-6,0H38V23h4Zm0,2v3H38V28Zm2,0h4v3H44Zm4,5v3H44V33Zm2,0h4v3H50Zm0-2V28h4v3Zm6-3h4v3H56Zm0-2V23h4v3ZM38,35V33h4v3H39A1,1,0,0,1,38,35Zm21,1H56V33h4v2A1,1,0,0,1,59,36Z"></path><path d="M28,44H8a3,3,0,0,0-3,3V59a3,3,0,0,0,3,3H28a3,3,0,0,0,3-3V47A3,3,0,0,0,28,44ZM8,46H28a.986.986,0,0,1,.826.469L18.447,51.658a1,1,0,0,1-.894,0L7.174,46.469A.986.986,0,0,1,8,46ZM28,60H8a1,1,0,0,1-1-1V48.619l9.658,4.828a3.016,3.016,0,0,0,2.684,0L29,48.619V59A1,1,0,0,1,28,60Z"></path><path d="M15,32A13,13,0,1,0,2,19,13.015,13.015,0,0,0,15,32ZM4.051,18a10.946,10.946,0,0,1,2.5-6.034l1.377,1.377,1.414-1.414L7.966,10.552A10.946,10.946,0,0,1,14,8.051V10h2V8.051a10.946,10.946,0,0,1,6.034,2.5l-1.377,1.377,1.414,1.414,1.377-1.377A10.946,10.946,0,0,1,25.949,18H24v2h1.949a10.946,10.946,0,0,1-2.5,6.034l-1.377-1.377-1.414,1.414,1.377,1.377A10.946,10.946,0,0,1,16,29.949V28H14v1.949a10.946,10.946,0,0,1-6.034-2.5l1.377-1.377L7.929,24.657,6.552,26.034A10.946,10.946,0,0,1,4.051,20H6V18Z"></path><path d="M15,22a3,3,0,0,0,2.816-2H21V18H17.816A3,3,0,0,0,16,16.184V12H14v4.184A2.993,2.993,0,0,0,15,22Zm0-4a1,1,0,1,1-1,1A1,1,0,0,1,15,18Z"></path><rect x="33" y="8" width="6" height="2"></rect><rect x="29" y="12" width="10" height="2"></rect><rect x="29" y="8" width="2" height="2"></rect><rect x="19" y="34" width="12" height="2"></rect><rect x="19" y="38" width="12" height="2"></rect><path d="M33,51a1,1,0,0,0,1,1H48a1,1,0,0,0,1-1V41a1,1,0,0,0-1-1H34a1,1,0,0,0-1,1Zm2-9H47v8H35Z"></path></g></svg>