<svg xmlns="http://www.w3.org/2000/svg" viewBox="0 0 64 64" x="0px" y="0px"><g><path d="M18,33c.14,0,.272-.03.409-.041l-.266-.444,1.714-1.03.529.881A5,5,0,0,0,22.9,29H18a1,1,0,0,1-1-1V23.1A5,5,0,0,0,18,33Z"></path><path d="M7,43a1,1,0,0,0,1,1H44a1,1,0,0,0,1-1V42H30a1,1,0,0,1-1,1H23a1,1,0,0,1-1-1H7Z"></path><path d="M22.119,25.175,21.8,25.6l-1.6-1.2.463-.616A4.954,4.954,0,0,0,19,23.1V27h3.9A4.966,4.966,0,0,0,22.119,25.175Z"></path><path d="M9,40H43V19a1,1,0,0,0-1-1H10a1,1,0,0,0-1,1Zm21-2H26V36h4Zm8-9v2H30V29Zm-8-2V25h2v2ZM42,38a1,1,0,0,1-1,1H38V37h2V35h2ZM34,25h6v2H34Zm-6-5h4v2H28ZM18,21a6.954,6.954,0,0,1,3.871,1.173L23.2,20.4A1,1,0,0,1,24,20h2v2H24.5l-1.135,1.513A6.983,6.983,0,0,1,21.425,34.1L22.566,36H24v2H22a1,1,0,0,1-.857-.485L19.53,34.826A7,7,0,1,1,18,21Z"></path><polygon points="52.133 39 52.883 45 57.117 45 57.867 39 57.73 39 52.27 39 52.133 39"></polygon><path d="M55,31a3,3,0,0,0-3,3,7.1,7.1,0,0,0,.851,3h4.3A7.1,7.1,0,0,0,58,34,3,3,0,0,0,55,31Zm1,4H54V33h2Z"></path><rect x="2" y="46" width="60" height="2"></rect><rect x="54" y="28" width="2" height="2"></rect><rect x="57.536" y="29.465" width="2" height="2" transform="translate(-4.397 50.314) rotate(-45)"></rect><rect x="59" y="33" width="2" height="2"></rect><rect x="50.464" y="29.465" width="2" height="2" transform="translate(-6.468 45.314) rotate(-45)"></rect><rect x="49" y="33" width="2" height="2"></rect></g></svg>