<svg xmlns="http://www.w3.org/2000/svg" viewBox="0 0 64 64" x="0px" y="0px"><g><path d="M61,54H58V20a3,3,0,0,0-3-3H43v2H55a1,1,0,0,1,1,1V54H8V20a1,1,0,0,1,1-1H21V17H9a3,3,0,0,0-3,3V54H3a1,1,0,0,0-1,1v4a3,3,0,0,0,3,3H59a3,3,0,0,0,3-3V55A1,1,0,0,0,61,54ZM28,56h8v1H28Zm32,3a1,1,0,0,1-1,1H5a1,1,0,0,1-1-1V56H26v1a2,2,0,0,0,2,2h8a2,2,0,0,0,2-2V56H60Z"></path><path d="M33,15H31a1,1,0,0,1-1-1H28a3,3,0,0,0,3,3v1h2V17a3,3,0,0,0,0-6H31a1,1,0,0,1,0-2h2a1,1,0,0,1,1,1h2a3,3,0,0,0-3-3V6H31V7a3,3,0,0,0,0,6h2a1,1,0,0,1,0,2Z"></path><path d="M31,21.949v3.876a7,7,0,0,0-7.643-2.9l-3.863,1.035a1,1,0,0,0-.707,1.225l1.035,3.863a7.01,7.01,0,0,0,6.75,5.192A7.034,7.034,0,0,0,28.4,34l2.6-.7V36H23a2.991,2.991,0,0,0-.847,5.863L24.02,51.2A1,1,0,0,0,25,52H39a1,1,0,0,0,.98-.8l1.867-9.333A2.991,2.991,0,0,0,41,36H33V33.3l2.6.7a7.034,7.034,0,0,0,1.824.242,7.01,7.01,0,0,0,6.75-5.192l1.035-3.863a1,1,0,0,0-.707-1.225l-3.863-1.035A7.007,7.007,0,0,0,33,25.826V21.949a10,10,0,1,0-2,0Zm-3.122,10.12a5,5,0,0,1-6.124-3.535l-.776-2.9,2.9-.777A5.009,5.009,0,0,1,30,28.4l.776,2.9ZM38.181,50H25.819l-1.6-8H39.78ZM42,39a1,1,0,0,1-1,1H23a1,1,0,0,1,0-2H41A1,1,0,0,1,42,39ZM34,28.4a5,5,0,0,1,6.124-3.536l2.9.777-.776,2.9a5,5,0,0,1-6.124,3.535l-2.9-.776ZM32,4a8,8,0,1,1-8,8A8.009,8.009,0,0,1,32,4Z"></path><rect x="48" y="43" width="2" height="2"></rect><rect x="48" y="39" width="2" height="2"></rect><rect x="48" y="35" width="2" height="2"></rect><rect x="48" y="31" width="2" height="2"></rect><rect x="14" y="43" width="2" height="2"></rect><rect x="14" y="39" width="2" height="2"></rect><rect x="14" y="35" width="2" height="2"></rect><rect x="14" y="31" width="2" height="2"></rect></g></svg>