<svg xmlns="http://www.w3.org/2000/svg" viewBox="0 0 64 64" x="0px" y="0px"><g data-name="Health Checkup-Clipboard-Stethoscope-Medical-Doctor"><path d="M56,8H54V7a1,1,0,0,0-1-1H43.82a3,3,0,1,0-5.64,0H29a1,1,0,0,0-1,1V8H26a5,5,0,0,0-5,5V53a5,5,0,0,0,5,5h7.17A13.968,13.968,0,0,1,12,46V34a2.006,2.006,0,0,0,2-2V30a5,5,0,0,0,5-5V15a.988.988,0,0,0-.55-.89l-1.58-.79a1.995,1.995,0,1,0-.4,2.03l.53.27V25a3.009,3.009,0,0,1-3,3H8a3.009,3.009,0,0,1-3-3V15.62l.53-.27a2,2,0,1,0-.4-2.03l-1.58.79A.988.988,0,0,0,3,15V25a5,5,0,0,0,5,5v2a2.006,2.006,0,0,0,2,2V46A15.976,15.976,0,0,0,36.55,58H56a5,5,0,0,0,5-5V13A5,5,0,0,0,56,8ZM10,30h2v2H10ZM41,4a1,1,0,1,1-1,1A1,1,0,0,1,41,4ZM30,8H52v5a1,1,0,0,1-1,1H31a1,1,0,0,1-1-1Zm-1.82,6A3.01,3.01,0,0,0,31,16H51a3.01,3.01,0,0,0,2.82-2H54a1,1,0,0,1,1,1V51a1,1,0,0,1-1,1H40.82A15.769,15.769,0,0,0,42,46V37.91a6,6,0,1,0-2,0V46a13.869,13.869,0,0,1-1.37,6H28a1,1,0,0,1-1-1V15a1,1,0,0,1,1-1ZM37,32a4,4,0,1,1,4,4A4,4,0,0,1,37,32ZM35.78,56H26a3.009,3.009,0,0,1-3-3V13a3.009,3.009,0,0,1,3-3h2v2a3.009,3.009,0,0,0-3,3V51a3.009,3.009,0,0,0,3,3h9.47A14.081,14.081,0,0,1,35.78,56ZM59,53a3.009,3.009,0,0,1-3,3H38.47a16.072,16.072,0,0,0,1.37-2H54a3.009,3.009,0,0,0,3-3V15a3.009,3.009,0,0,0-3-3V10h2a3.009,3.009,0,0,1,3,3Z"></path><rect x="40" y="19" width="2" height="2"></rect><rect x="44" y="19" width="2" height="2"></rect><rect x="36" y="19" width="2" height="2"></rect><circle cx="41" cy="32" r="2"></circle></g></svg>