<svg xmlns="http://www.w3.org/2000/svg" viewBox="0 0 64 64" x="0px" y="0px"><title>Bell Pepper</title><g data-name="Bell Pepper"><path d="M42,12a6.087,6.087,0,0,0-4.417,2.177,9.442,9.442,0,0,0-3.337-3.565L34.995,3.1A1,1,0,0,0,34,2H30a1,1,0,0,0-1,1.1l.749,7.512a9.442,9.442,0,0,0-3.337,3.565A6.087,6.087,0,0,0,22,12c-5.888,0-10,9.869-10,24s4.112,24,10,24a6.087,6.087,0,0,0,4.417-2.177C27.992,60.479,29.9,62,32,62s4.008-1.521,5.583-4.177A6.087,6.087,0,0,0,42,60c5.888,0,10-9.869,10-24S47.888,12,42,12ZM31.1,4H32.9l-.6,6.018c-.1-.007-.2-.018-.3-.018s-.2.011-.3.018ZM22,58c-3.933,0-8-8.229-8-22s4.067-22,8-22a4.691,4.691,0,0,1,3.433,2.084C23.307,20.778,22,27.833,22,36s1.307,15.222,3.433,19.916A4.691,4.691,0,0,1,22,58Zm10,2c-3.784,0-8-9.856-8-24s4.216-24,8-24,8,9.856,8,24S35.784,60,32,60Zm10-2a4.691,4.691,0,0,1-3.433-2.084C40.693,51.222,42,44.167,42,36s-1.307-15.222-3.433-19.916A4.691,4.691,0,0,1,42,14c3.933,0,8,8.229,8,22S45.933,58,42,58Z"></path></g></svg>