<svg xmlns="http://www.w3.org/2000/svg" viewBox="0 0 64 64" x="0px" y="0px"><g data-name="Norwegian Elkhound-Dog"><path d="M57,29a2,2,0,0,0-4,0,1.832,1.832,0,0,0,.08.517,13.1,13.1,0,0,1,2.183,1.454A2,2,0,0,0,57,29Z"></path><path d="M16,12a3,3,0,0,0-3,3,2.961,2.961,0,0,0,.561,1.732,1,1,0,0,1-.418,1.5A7.877,7.877,0,0,0,8,26c0,5.137,3.563,8.818,9.115,9.757A3.977,3.977,0,0,1,16,33V32a1,1,0,0,1-.707-.293l-3.67-3.67A5.594,5.594,0,0,1,10,24.11a3.549,3.549,0,0,1,3.54-3.55,3.948,3.948,0,0,1,.683.065l1.448.29L17.883,18.7a3,3,0,0,1,4.234,0l2.212,2.212,1.425-.286A3.546,3.546,0,0,1,30,24.11a5.594,5.594,0,0,1-1.623,3.927l-3.67,3.67A1,1,0,0,1,24,32v1a3.977,3.977,0,0,1-1.115,2.757C28.437,34.818,32,31.137,32,26a7.877,7.877,0,0,0-5.143-7.769,1,1,0,0,1-.418-1.5A2.961,2.961,0,0,0,27,15a3,3,0,0,0-6,0,1,1,0,0,1-2,0A3,3,0,0,0,16,12Zm1,5H15V15h2Zm6-2h2v2H23Z"></path><path d="M50.717,28.548c.107.032.213.067.318.1A3.988,3.988,0,0,1,59,28.974a5,5,0,1,0-8.28-.426Z"></path><path d="M20,12a5.064,5.064,0,0,1,.965-.964C20.644,11.025,20.333,11,20,11s-.644.025-.965.039A5.064,5.064,0,0,1,20,12Z"></path><path d="M29.105,54.447l-1-2A1,1,0,0,1,28,52V47a1,1,0,0,1,.293-.707L30,44.586V42.35l-2.492-3.121A16.843,16.843,0,0,1,9.99,37.71l.8,3.07,4.659,2.325A1,1,0,0,1,16,44v5a1,1,0,0,1-.4.8L13.53,51.354l2.049,7.9a1,1,0,0,0,.968.749H18a1,1,0,0,0,1-1V50a1,1,0,0,1,1-1h5a1,1,0,0,1,.977.783l1.652,7.434A.992.992,0,0,0,28.6,58h1.834a1,1,0,0,0,.971-.758L31.97,55H30A1,1,0,0,1,29.105,54.447Z"></path><path d="M51.674,49H58V44H56a1,1,0,0,1-.948-.684L53.279,38H45.535l-3.7,5.555A1,1,0,0,1,41,44H36a1,1,0,0,1-1-1V41a1,1,0,0,1,.1-.447L37,36.764V30H35.886a17.07,17.07,0,0,1-6.616,8.231l2.511,3.145A1,1,0,0,1,32,42v3a1,1,0,0,1-.293.707L30,47.414v4.35L30.618,53H32.47l1.56-6.243A1,1,0,0,1,35,46H48.914l-.888-3.771,1.948-.458Z"></path><path d="M57,58a1,1,0,0,0,1-1V51H52.145l1.465,6.229a1,1,0,0,0,.974.771Z"></path><path d="M47,48H43v7a1,1,0,0,0,1,1h2a1,1,0,0,0,1-1Z"></path><path d="M16.414,26h1.35L19,25.382v-.566a2.988,2.988,0,0,1-1.962-2.44l-.331.331a.994.994,0,0,1-.9.273l-1.95-.39a1.935,1.935,0,0,0-.314-.03A1.546,1.546,0,0,0,12,24.11a3.58,3.58,0,0,0,1.037,2.513L16,29.586V28a1,1,0,0,1-.707-.293l-2-2,1.414-1.414Z"></path><path d="M23.586,26l1.707-1.707,1.414,1.414-2,2A1,1,0,0,1,24,28v1.586l2.963-2.963A3.58,3.58,0,0,0,28,24.11a1.546,1.546,0,0,0-1.852-1.52l-1.952.39a.993.993,0,0,1-.9-.273l-.331-.331A2.988,2.988,0,0,1,21,24.816v.566L22.236,26Z"></path><path d="M9.645,11.788a17.081,17.081,0,0,1,4.531-2L8.456,4.651Z"></path><path d="M39,30v7a1,1,0,0,1-.1.447L37,41.236V42h3.465l3.7-5.555A1,1,0,0,1,45,36h9a1,1,0,0,1,.948.684L56.721,42H58V41A11.013,11.013,0,0,0,47,30Z"></path><polygon points="11.453 43.348 12.987 49.261 14 48.5 14 44.619 11.453 43.348"></polygon><path d="M20,39A15.017,15.017,0,0,0,35,24a12.341,12.341,0,0,0-6.426-11,4.938,4.938,0,0,1,.06,3.872A9.881,9.881,0,0,1,34,26c0,7.178-5.626,12-14,12S6,33.178,6,26a9.881,9.881,0,0,1,5.366-9.131A4.938,4.938,0,0,1,11.426,13,12.341,12.341,0,0,0,5,24,15.017,15.017,0,0,0,20,39Z"></path><path d="M20,35a2,2,0,0,0,2-2V28a1,1,0,0,1-.447-.105L20,27.118l-1.553.777A1,1,0,0,1,18,28v5A2,2,0,0,0,20,35Z"></path><path d="M20,23a1,1,0,0,0,1-1h1.586L20.7,20.117a1,1,0,0,0-1.406,0L17.414,22H19A1,1,0,0,0,20,23Z"></path><path d="M30.355,11.788l1.189-7.137-5.72,5.137A17.081,17.081,0,0,1,30.355,11.788Z"></path></g></svg>