<svg xmlns="http://www.w3.org/2000/svg" viewBox="0 0 64 64" x="0px" y="0px"><title>Ghost-Hacker-Malware</title><g><path d="M28,24a3,3,0,1,0-3-3A3,3,0,0,0,28,24Zm0-4a1,1,0,1,1-1,1A1,1,0,0,1,28,20Z"></path><path d="M36,24a3,3,0,1,0-3-3A3,3,0,0,0,36,24Zm0-4a1,1,0,1,1-1,1A1,1,0,0,1,36,20Z"></path><path d="M20.88,31.119A2.973,2.973,0,0,0,23,32h2v2a2,2,0,0,0,2,2H37a2,2,0,0,0,2-2V32h2a3.006,3.006,0,0,0,3-3l0-7a12,12,0,1,0-24,0l0,7A2.975,2.975,0,0,0,20.88,31.119ZM31.84,12l.176,0A9.972,9.972,0,0,1,42,22h0l0,7a1,1,0,0,1-1,1H38a1,1,0,0,0-1,1v3H35V30H33v4H31V30H29v4H27V31a1,1,0,0,0-1-1H23a1,1,0,0,1-1-1l0-7A9.942,9.942,0,0,1,31.84,12Z"></path><rect x="29" y="26" width="2" height="2"></rect><rect x="33" y="26" width="2" height="2"></rect><path d="M59,2H5A3,3,0,0,0,2,5V45a3,3,0,0,0,3,3H22.9l-.8,8H19a1,1,0,0,0-1,1v3H16v2H48V60H46V57a1,1,0,0,0-1-1H41.905l-.8-8H59a3,3,0,0,0,3-3V5A3,3,0,0,0,59,2ZM44,58v2H20V58ZM24.105,56l.8-8H39.1l.8,8ZM60,45a1,1,0,0,1-1,1H5a1,1,0,0,1-1-1V5A1,1,0,0,1,5,4H59a1,1,0,0,1,1,1Z"></path><path d="M56,6H8A2,2,0,0,0,6,8V39a1,1,0,0,0,1,1H57a1,1,0,0,0,1-1V8A2,2,0,0,0,56,6Zm0,32H8V8H56Z"></path><rect x="31" y="42" width="2" height="2"></rect></g></svg>