<svg xmlns="http://www.w3.org/2000/svg" viewBox="0 0 64 64" x="0px" y="0px"><g data-name="Waiting Room-Seats-Travel-Furniture-Airport"><path d="M48,40a3.906,3.906,0,0,0-2,.56V37a5,5,0,0,0-5-5H23a5,5,0,0,0-5,5v3.56A3.906,3.906,0,0,0,16,40a4,4,0,0,0-4,4V55a1,1,0,0,0,1,1H51a1,1,0,0,0,1-1V44A4,4,0,0,0,48,40ZM18,54H14V44a2,2,0,0,1,4,0Zm26,0H20V52H44Zm0-4H20V46H44Zm0-6H20V37a3.009,3.009,0,0,1,3-3H41a3.009,3.009,0,0,1,3,3Zm6,10H46V44a2,2,0,0,1,4,0Z"></path><rect x="31" y="36" width="2" height="6"></rect><rect x="37" y="36" width="2" height="6"></rect><rect x="25" y="36" width="2" height="6"></rect><path d="M9,44H7V42H9a1,1,0,0,0,.79-.38,1.022,1.022,0,0,0,.18-.86l-1-4A1,1,0,0,0,8,36H4a1,1,0,0,0-.97.76l-1,4a1.022,1.022,0,0,0,.18.86A1,1,0,0,0,3,42H5v2H3a1,1,0,0,0-1,1V55a1,1,0,0,0,1,1H9a1,1,0,0,0,1-1V45A1,1,0,0,0,9,44ZM4.28,40l.5-2H7.22l.5,2ZM8,54H4V50H8Zm0-6H4V46H8Z"></path><path d="M61,44H59V42h2a1,1,0,0,0,.79-.38,1.022,1.022,0,0,0,.18-.86l-1-4A1,1,0,0,0,60,36H56a1,1,0,0,0-.97.76l-1,4a1.022,1.022,0,0,0,.18.86A1,1,0,0,0,55,42h2v2H55a1,1,0,0,0-1,1V55a1,1,0,0,0,1,1h6a1,1,0,0,0,1-1V45A1,1,0,0,0,61,44Zm-4.72-4,.5-2h2.44l.5,2ZM60,54H56V50h4Zm0-6H56V46h4Z"></path><path d="M45,8H19a3.009,3.009,0,0,0-3,3v6a3.009,3.009,0,0,0,3,3H45a3.009,3.009,0,0,0,3-3V11A3.009,3.009,0,0,0,45,8ZM42,18H22V16H42Zm4-1a1,1,0,0,1-1,1H44V15a1,1,0,0,0-1-1H21a1,1,0,0,0-1,1v3H19a1,1,0,0,1-1-1V11a1,1,0,0,1,1-1H45a1,1,0,0,1,1,1Z"></path><path d="M37,22a5.006,5.006,0,0,0,5,5V25a3,3,0,0,1-3-3Z"></path><path d="M22,25v2a5.006,5.006,0,0,0,5-5H25A3,3,0,0,1,22,25Z"></path><rect x="31" y="22" width="2" height="5"></rect></g></svg>