<svg xmlns="http://www.w3.org/2000/svg" viewBox="0 0 64 64" x="0px" y="0px"><g><path d="M43,44H53V42H52a3,3,0,0,1,0-6h1V31H43v5h1a3,3,0,0,1,0,6H43Z"></path><path d="M45,39a1,1,0,0,0-1-1H43v2h1A1,1,0,0,0,45,39Z"></path><path d="M51,39a1,1,0,0,0,1,1h1V38H52A1,1,0,0,0,51,39Z"></path><path d="M43.03,28.24l-1-3.98-4.15,1.66A3,3,0,0,0,36,28.71V36a4,4,0,0,0,4,4h1V38a3.009,3.009,0,0,1-3-3V30h2v5a1,1,0,0,0,1,1V30a1,1,0,0,1,1-1h2a1.023,1.023,0,0,1-.42-.09A1,1,0,0,1,43.03,28.24Z"></path><path d="M48,27.12l-3.55,1.77A1.03,1.03,0,0,1,44,29h8a1.03,1.03,0,0,1-.45-.11Z"></path><path d="M55,38v2h1a4,4,0,0,0,4-4V28.71a3,3,0,0,0-1.88-2.79l-4.15-1.66-1,3.98a1,1,0,0,1-.55.67A1.023,1.023,0,0,1,52,29h2a1,1,0,0,1,1,1v6a1,1,0,0,0,1-1V30h2v5A3.009,3.009,0,0,1,55,38Z"></path><path d="M55,60V45a1,1,0,0,1-1,1H42a1,1,0,0,1-1-1V60h6V48h2V60Z"></path><polygon points="46.59 25.59 44.96 22.87 44.08 24.19 44.67 26.55 46.59 25.59"></polygon><path d="M48,19a5,5,0,0,0,5-5V10a1,1,0,0,0-1-1H44a1,1,0,0,0-1,1v4A5,5,0,0,0,48,19Zm-1.5-4.4a3.057,3.057,0,0,0,3,0l1,1.73a5.007,5.007,0,0,1-5,0Z"></path><path d="M43,6V7.18A3,3,0,0,1,44,7h8a1,1,0,0,0,1-1V4H45A2.006,2.006,0,0,0,43,6Z"></path><path d="M40,13a1,1,0,0,0,1,1V12A1,1,0,0,0,40,13Z"></path><path d="M50,20.72v-.01a7.042,7.042,0,0,1-4,0v.01l2,3.34Z"></path><path d="M55,14a1,1,0,0,0,0-2Z"></path><polygon points="51.92 24.19 51.04 22.87 49.41 25.59 51.33 26.55 51.92 24.19"></polygon><rect x="24" y="46" width="4.001" height="4"></rect><path d="M12,34H28V28H12Zm11-4h2v2H23Zm-4,0h2v2H19Zm-4,0h2v2H15Z"></path><path d="M9,24a1,1,0,0,0-1,1V59a1,1,0,0,0,1,1H31a1,1,0,0,0,1-1V25a1,1,0,0,0-1-1ZM30,56a2,2,0,0,1-2,2H12a2,2,0,0,1-2-2V40a2,2,0,0,1,2-2H28a2,2,0,0,1,2,2Zm0-22a2,2,0,0,1-2,2H12a2,2,0,0,1-2-2V28a2,2,0,0,1,2-2H28a2,2,0,0,1,2,2Z"></path><rect x="24" y="52" width="4.002" height="4"></rect><rect x="18" y="46" width="4" height="4"></rect><rect x="18" y="40" width="4" height="4"></rect><rect x="12" y="40" width="4" height="4"></rect><rect x="12" y="46" width="4" height="4"></rect><rect x="18" y="52" width="4" height="4"></rect><rect x="4" y="12" width="8" height="2"></rect><rect x="28" y="20" width="8" height="2"></rect><rect x="28" y="4" width="8" height="2"></rect><rect x="4" y="16" width="8" height="2"></rect><rect x="28" y="16" width="8" height="2"></rect><rect x="28" y="8" width="8" height="2"></rect><rect x="12" y="52" width="4" height="4"></rect><path d="M26,4H14V22H26Zm-7,8h2a3,3,0,0,1,0,6v1H19V18a3,3,0,0,1-3-3h2a1,1,0,0,0,1,1h2a1,1,0,0,0,0-2H19a3,3,0,0,1,0-6V7h2V8a3,3,0,0,1,3,3H22a1,1,0,0,0-1-1H19a1,1,0,0,0,0,2Z"></path><rect x="24" y="40" width="4" height="4"></rect><rect x="4" y="4" width="8" height="2"></rect><rect x="4" y="8" width="8" height="2"></rect><rect x="4" y="20" width="8" height="2"></rect><rect x="28" y="12" width="8" height="2"></rect></g></svg>