<svg xmlns="http://www.w3.org/2000/svg" viewBox="0 0 64 64" x="0px" y="0px"><title>Goal</title><g><path d="M17.5,24A2.5,2.5,0,0,1,15,21.5H13a4.5,4.5,0,0,0,9,0H20A2.5,2.5,0,0,1,17.5,24Z"></path><path d="M58,40a9.01,9.01,0,0,1-9,9,1,1,0,0,0-1,1V60H26V51h5V49H17a5.006,5.006,0,0,1-5-5V36a1,1,0,0,0-1-1H6.385l6.539-19.748A17.9,17.9,0,0,1,29.392,4H43a14.926,14.926,0,0,1,5.593,1.077l.746-1.855A16.915,16.915,0,0,0,43,2H29.392A19.914,19.914,0,0,0,11.051,14.555l-7,21.131A1,1,0,0,0,5,37h5v7a7.009,7.009,0,0,0,7,7h7V61a1,1,0,0,0,1,1H49a1,1,0,0,0,1-1V50.955A11.015,11.015,0,0,0,60,40V20H58Z"></path><path d="M58.556,6.858l2.122-2.122L59.264,3.322,57.142,5.444l-.424-2.97-1.981.283.637,4.455-1.06,1.06L53.89,5.3l-1.981.283.637,4.455-1.8,1.8a12,12,0,1,0,1.414,1.415l1.8-1.8,4.455.637L58.7,10.11l-2.97-.424,1.06-1.06,4.455.637.283-1.981ZM50.071,28.071a10,10,0,1,1-.743-14.813L47.9,14.685A8,8,0,1,0,49.315,16.1l1.427-1.427A10.012,10.012,0,0,1,50.071,28.071Zm-2.828-2.828a6.011,6.011,0,1,1-.779-9.121l-1.451,1.451a4.1,4.1,0,0,0-4.841.6,4.013,4.013,0,1,0,6.263.807l1.444-1.443A6,6,0,0,1,47.243,25.243ZM45,21a1.986,1.986,0,0,1-.586,1.414,2.047,2.047,0,0,1-2.828,0,1.989,1.989,0,0,1,1.926-3.34l-1.219,1.219,1.414,1.414,1.219-1.219A1.992,1.992,0,0,1,45,21Z"></path></g></svg>