<svg xmlns="http://www.w3.org/2000/svg" viewBox="0 0 64 64" x="0px" y="0px"><g data-name="Police Car-Vehicle-Security-Patrol-Automobile"><rect x="35" y="11" width="2" height="4"></rect><rect x="40.364" y="14.636" width="4" height="2" transform="translate(1.352 34.536) rotate(-45)"></rect><rect x="28.636" y="13.636" width="2" height="4" transform="translate(-2.377 25.533) rotate(-44.995)"></rect><path d="M47,42a5,5,0,1,0,5,5A5,5,0,0,0,47,42Zm0,8a3,3,0,1,1,3-3A3,3,0,0,1,47,50Z"></path><path d="M59.2,46.35a.985.985,0,0,0,.8-.97V41.83a1,1,0,0,0-.3-.71l-.82-.82a3.1,3.1,0,0,1-.75-1.3H56a1,1,0,0,1-.83-.45l-2-3a.963.963,0,0,1-.05-1.02A.984.984,0,0,1,54,34h3.83a2.9,2.9,0,0,0-.7-1.13A2.935,2.935,0,0,0,55.04,32a4.962,4.962,0,0,1-3.87-1.84L45.42,23.1A2.97,2.97,0,0,0,43.1,22H31.47a2.993,2.993,0,0,0-1.94.71L18.64,31.77a.947.947,0,0,1-.44.21L6.42,34.34A2.988,2.988,0,0,0,5.06,35H8a1,1,0,0,1,1,1v3a1,1,0,0,1-.76.97L4,41.03v.08a7.034,7.034,0,0,0,.74,3.14l1.6,3.19a1,1,0,0,0,.9.56h2.84A6.634,6.634,0,0,1,10,47a7,7,0,0,1,14,0,6.634,6.634,0,0,1-.08,1H40.08A6.634,6.634,0,0,1,40,47a7,7,0,0,1,14,0c0,.15-.01.3-.02.45ZM36,36H32V34h4Zm11.676-5.151A1.981,1.981,0,0,1,45.865,32H24a1,1,0,0,1-.65-1.759l6.718-5.76A2.01,2.01,0,0,1,31.37,24H42.531a2,2,0,0,1,1.536.719l3.334,4A1.982,1.982,0,0,1,47.676,30.849Z"></path><circle cx="47" cy="47" r="1"></circle><polygon points="38 26 38 30 45.873 30 42.531 26 38 26"></polygon><polygon points="26.703 30 36 30 36 26 31.37 26 26.703 30"></polygon><polygon points="58 37 58 36 55.87 36 56.54 37 58 37"></polygon><circle cx="17" cy="47" r="1"></circle><path d="M4.02,37c0,.09-.02.18-.02.28v1.69l3-.75V37Z"></path><path d="M17,42a5,5,0,1,0,5,5A5,5,0,0,0,17,42Zm0,8a3,3,0,1,1,3-3A3,3,0,0,1,17,50Z"></path><path d="M37.41,18.59A1.983,1.983,0,0,0,36,18a2.006,2.006,0,0,0-2,2h4A1.983,1.983,0,0,0,37.41,18.59Z"></path></g></svg>