<svg xmlns="http://www.w3.org/2000/svg" viewBox="0 0 64 64" x="0px" y="0px"><g><path d="M51,20h-.05A10.013,10.013,0,0,0,41,11a9.89,9.89,0,0,0-2.681.372A13.992,13.992,0,0,0,12,18a13.7,13.7,0,0,0,.156,2.032A11,11,0,0,0,13,42V40a9,9,0,0,1,0-18c.051,0,.1,0,.149.008l.181.01a1.02,1.02,0,0,0,.81-.365,1,1,0,0,0,.2-.865A11.988,11.988,0,0,1,36.9,13.009a1,1,0,0,0,1.264.518A7.982,7.982,0,0,1,49,20.994a1,1,0,0,0,1.1,1.052A9,9,0,1,1,51,40v2a11,11,0,0,0,0-22Z"></path><path d="M15.81,39a1,1,0,0,0-.866,1.5,6.989,6.989,0,0,0,11.794.5H37.262a6.989,6.989,0,0,0,11.794-.5A1,1,0,0,0,48.19,39H44.721l-.667-2,.667-2H48.19a1,1,0,0,0,.866-1.5A6.989,6.989,0,0,0,37.262,33H26.738a6.989,6.989,0,0,0-11.794.5A1,1,0,0,0,15.81,35h3.469l.667,2-.667,2Zm6.138-2.316-1-3A1,1,0,0,0,20,33H18.01a4.983,4.983,0,0,1,7.315,1.5,1,1,0,0,0,.865.5H37.81a1,1,0,0,0,.865-.5A4.983,4.983,0,0,1,45.99,33H44a1,1,0,0,0-.948.684l-1,3a.977.977,0,0,0,0,.632l1,3A1,1,0,0,0,44,41h1.99a4.983,4.983,0,0,1-7.315-1.5,1,1,0,0,0-.865-.5H26.19a1,1,0,0,0-.865.5A4.983,4.983,0,0,1,18.01,41H20a1,1,0,0,0,.948-.684l1-3A.977.977,0,0,0,21.948,36.684Z"></path><path d="M48,44.133l-3.67.524a1,1,0,0,0-.818.71,11.939,11.939,0,0,1-.987,2.4,1,1,0,0,0,.077,1.081l2.22,2.961-3.016,3.016L38.845,52.6a1,1,0,0,0-1.081-.077,12,12,0,0,1-2.4.987,1,1,0,0,0-.71.819L34.133,58H29.867l-.523-3.669a1,1,0,0,0-.71-.819,12,12,0,0,1-2.4-.987,1,1,0,0,0-1.081.077l-2.961,2.22-3.016-3.016,2.22-2.961a1,1,0,0,0,.077-1.081,11.939,11.939,0,0,1-.987-2.4,1,1,0,0,0-.818-.71L16,44.133V43H14v2a1,1,0,0,0,.858.99l3.907.558a14,14,0,0,0,.657,1.6L17.058,51.3a1,1,0,0,0,.092,1.307l4.244,4.243a1,1,0,0,0,1.306.093l3.154-2.364a13.905,13.905,0,0,0,1.6.657l.558,3.906A1,1,0,0,0,29,60h6a1,1,0,0,0,.99-.859l.558-3.906a13.905,13.905,0,0,0,1.6-.657L41.3,56.942a1,1,0,0,0,1.306-.093l4.244-4.243a1,1,0,0,0,.092-1.307l-2.364-3.152a14,14,0,0,0,.657-1.6l3.907-.558A1,1,0,0,0,50,45V43H48Z"></path><rect x="31" y="54" width="2" height="2"></rect><rect x="21.808" y="50.192" width="2" height="2" transform="translate(-29.518 31.121) rotate(-45)"></rect><rect x="40.192" y="50.192" width="2" height="2" transform="translate(-24.134 44.121) rotate(-45)"></rect><path d="M39.189,45.512l-1.8-.879a6,6,0,0,1-10.787,0l-1.8.879a8,8,0,0,0,14.379,0Z"></path></g></svg>