<svg xmlns="http://www.w3.org/2000/svg" viewBox="0 0 64 64" x="0px" y="0px"><g data-name="Illustration-Design-Layer-Graphic Editor-Computer"><path d="M22,23a1,1,0,0,0,.684.948L25.839,25l-3.155,1.052a1,1,0,0,0,0,1.9l12,4a.986.986,0,0,0,.632,0l12-4a1,1,0,0,0,0-1.9L44.161,25l3.155-1.052a1,1,0,0,0,0-1.9L44.161,21l3.155-1.052a1,1,0,0,0,0-1.9l-12-4a.991.991,0,0,0-.632,0l-12,4a1,1,0,0,0,0,1.9L25.839,21l-3.155,1.052A1,1,0,0,0,22,23Zm21.838,4L35,29.946,26.162,27,29,26.054l5.684,1.894a.986.986,0,0,0,.632,0L41,26.054ZM35,16.054,43.838,19,35,21.946,26.162,19Zm-.316,7.894a.986.986,0,0,0,.632,0L41,22.054,43.838,23,35,25.946,26.162,23,29,22.054Z"></path><rect x="14" y="5" width="2" height="2"></rect><rect x="18" y="5" width="2" height="2"></rect><rect x="22" y="5" width="2" height="2"></rect><path d="M56.31,11.25l-1.33,1.5A2.992,2.992,0,0,1,56,15V40H54V5a3.009,3.009,0,0,0-3-3H13a3.009,3.009,0,0,0-3,3V40H8V15a2.992,2.992,0,0,1,1.02-2.25l-1.33-1.5A5.029,5.029,0,0,0,6,15V45a5,5,0,0,0,5,5H23.87l-.75,6H21a2.006,2.006,0,0,0-2,2v2a2.006,2.006,0,0,0,2,2H43a2.006,2.006,0,0,0,2-2V58a2.006,2.006,0,0,0-2-2H40.88l-.75-6H53a5,5,0,0,0,5-5V15A5.029,5.029,0,0,0,56.31,11.25ZM12,5a1,1,0,0,1,1-1H51a1,1,0,0,1,1,1V8H12Zm40,5V40H18V10ZM12,10h4V40H12ZM43,58v2H21V58ZM25.13,56l.75-6H38.12l.75,6ZM56,45a3.009,3.009,0,0,1-3,3H11a3.009,3.009,0,0,1-3-3V42H56Z"></path><rect x="50" y="44" width="2" height="2"></rect><rect x="32" y="34" width="2" height="2"></rect><rect x="36" y="34" width="2" height="2"></rect><rect x="40" y="34" width="2" height="2"></rect><rect x="28" y="34" width="2" height="2"></rect></g></svg>