<svg xmlns="http://www.w3.org/2000/svg" viewBox="0 0 64 64" x="0px" y="0px"><g><path d="M62,31H55a1,1,0,0,0,1-1V8a1,1,0,0,0-1-1H45a1,1,0,0,0-1,1V30a1,1,0,0,0,1,1H30V29H28V26h9a1,1,0,0,0,1-1V9a1,1,0,0,0-1-1H11a1,1,0,0,0-1,1V25a1,1,0,0,0,1,1h9v3H18v2H2v2H7V62H9V40H39V62h2V60H55v2h2V33h5ZM46,21h8v8H46Zm0-2V17h8v2ZM54,9v6H46V9ZM12,10H36V24H12ZM22,26h4v3H22ZM9,38V33H39v5ZM55,49H41V42H55ZM41,51H55v7H41ZM55,40H41V33H55Z"></path><rect x="46" y="34" width="4" height="2"></rect><rect x="22" y="34" width="4" height="2"></rect><rect x="46" y="43" width="4" height="2"></rect><rect x="46" y="52" width="4" height="2"></rect><path d="M13,12v4h2V13h3V11H14A1,1,0,0,0,13,12Z"></path><rect x="49" y="26" width="2" height="2"></rect></g></svg>