<svg xmlns="http://www.w3.org/2000/svg" viewBox="0 0 64 64" x="0px" y="0px"><g><path d="M27,40H19V31a3,3,0,0,0-6,0v9H5a3,3,0,0,0-3,3V61a.933.933,0,0,0,.024.117.871.871,0,0,0,.033.166.981.981,0,0,0,.112.241c.019.029.022.064.043.091s.03.02.042.034a.986.986,0,0,0,.232.189,1.064,1.064,0,0,0,.1.066A.98.98,0,0,0,3,62H29a.98.98,0,0,0,.415-.1.933.933,0,0,0,.1-.066.971.971,0,0,0,.233-.189c.012-.014.031-.019.042-.034a30.356,30.356,0,0,1,.155-.332.871.871,0,0,0,.033-.166A.933.933,0,0,0,30,61V43A3,3,0,0,0,27,40ZM15,31a1,1,0,0,1,2,0v9H15ZM5,42H27a1,1,0,0,1,1,1v9.878l-2.03-8.121A1,1,0,0,0,25,44H7a1,1,0,0,0-.97.757L4,52.878V43A1,1,0,0,1,5,42ZM26.719,56H5.281l2.5-10H24.219ZM4.281,60l.5-2H27.219l.5,2Z"></path><path d="M61.977,54.884c0-.032.007-.062,0-.093L59.147,41.579A2.011,2.011,0,0,0,57.192,40H51V37a1,1,0,0,0-1-1V5a3,3,0,0,0-6,0V36a1,1,0,0,0-1,1v3H36.808a2.011,2.011,0,0,0-1.955,1.58L32.022,54.791c-.006.031.005.061,0,.093A1.133,1.133,0,0,0,32,55v6a1,1,0,0,0,1,1H61a1,1,0,0,0,1-1V55A1.133,1.133,0,0,0,61.977,54.884ZM59.764,54H34.236l1.715-8h22.1ZM46,5a1,1,0,0,1,2,0V36H46ZM45,38h4v2H45Zm12.192,4,.429,2H36.379l.429-2ZM60,60H58V58a1,1,0,0,0-2,0v2H54V58a1,1,0,0,0-2,0v2H50V58a1,1,0,0,0-2,0v2H46V58a1,1,0,0,0-2,0v2H42V58a1,1,0,0,0-2,0v2H38V58a1,1,0,0,0-2,0v2H34V56H60Z"></path></g></svg>