<svg xmlns="http://www.w3.org/2000/svg" viewBox="0 0 64 64" x="0px" y="0px"><g data-name="Payment-Online Payment-Smartphone-Money-Currency"><rect x="16" y="21" width="8" height="2"></rect><rect x="16" y="29" width="8" height="2"></rect><rect x="16" y="25" width="8" height="2"></rect><rect x="16" y="33" width="8" height="2"></rect><path d="M26,39H38V21H26Zm7-8H31a3,3,0,0,1,0-6V24h2v1a3,3,0,0,1,3,3H34a1,1,0,0,0-1-1H31a1,1,0,0,0,0,2h2a3,3,0,0,1,0,6v1H31V35a3,3,0,0,1-3-3h2a1,1,0,0,0,1,1h2a1,1,0,0,0,0-2Z"></path><path d="M33.9,8A5.017,5.017,0,0,0,29,4H9A5.017,5.017,0,0,0,4.1,8Z"></path><path d="M60,52H33.89a7.075,7.075,0,0,1-3.8,1.91A5,5,0,0,0,35,58H55a5,5,0,0,0,5-5ZM48,56H42V54h6Z"></path><path d="M4,44H34V41H16a2.006,2.006,0,0,1-2-2V21a2.006,2.006,0,0,1,2-2H34V10H4Z"></path><rect x="16" y="37" width="8" height="2"></rect><rect x="40" y="33" width="8" height="2"></rect><rect x="40" y="29" width="8" height="2"></rect><rect x="40" y="37" width="8" height="2"></rect><path d="M55,10H36v4H59.9A5.017,5.017,0,0,0,55,10Z"></path><rect x="40" y="25" width="8" height="2"></rect><path d="M60,16H36v3H48a2.006,2.006,0,0,1,2,2V39a2.006,2.006,0,0,1-2,2H36v6a7.02,7.02,0,0,1-.68,3H60Z"></path><rect x="40" y="21" width="8" height="2"></rect><path d="M4,47a5,5,0,0,0,5,5H29a5,5,0,0,0,5-5V46H4Zm12,1h6v2H16Z"></path></g></svg>