<svg xmlns="http://www.w3.org/2000/svg" viewBox="0 0 64 64" x="0px" y="0px"><g><path d="M61.5,36.14l-7.6-4.45-.58-2.78a14.927,14.927,0,0,0-14.24-11.9c-.15-.01-.29-.01-.44-.01H38a2.006,2.006,0,0,0-2-2H34a2.006,2.006,0,0,0-2,2H28.93a15.082,15.082,0,0,0-12.87,7.29L14.43,27H4a2.006,2.006,0,0,0-2,2v2a7.008,7.008,0,0,0,7,7h5v5a5,5,0,0,0,5,5h6a3.009,3.009,0,0,0,3-3V41a1,1,0,0,0-1-1H22V38h4.79a4.989,4.989,0,0,0,4.89-3.91l.83-3.77A2.012,2.012,0,0,0,34,31h2a2.012,2.012,0,0,0,1.49-.68l.83,3.77A4.989,4.989,0,0,0,43.21,38H47v4a5,5,0,0,0,5,5h4a3.009,3.009,0,0,0,3-3V42a1,1,0,0,0-1-1H55V38h6a1,1,0,0,0,.5-1.86ZM14,36H9a5,5,0,0,1-5-5V29H14ZM24,19.98A12.9,12.9,0,0,1,28.93,19H30v2.43l-3.97,2.39L24,22.46Zm1,5.56v6.12a2.066,2.066,0,0,1-1.04.3L21,31.97V26.41l2.13-2.12Zm-3-4.5v1.55l-2.24,2.24-1.29-.52A13.079,13.079,0,0,1,22,21.04Zm-6,7.24,1.36-2.26,1.64.66v5.3L16,32ZM26,42v3a1,1,0,0,1-1,1H19a3.009,3.009,0,0,1-3-3V38h4v3a1,1,0,0,0,1,1Zm3.72-8.35A2.987,2.987,0,0,1,26.79,36H16V34l7.97-.04a3.973,3.973,0,0,0,3.7-2.51l.73-1.82a1,1,0,0,1,.93-.63h1.42ZM32,27H29.33A2.976,2.976,0,0,0,27,28.1V25.57l3.94-2.37L32,24Zm4,2H34V17h2Zm15.36.33L51.92,32H50.68L49.3,28.56l1.66-.67A11.32,11.32,0,0,1,51.36,29.33Zm-1.17-3.28-1.44.57L48.02,23A12.7,12.7,0,0,1,50.19,26.05ZM47.02,28.2a.774.774,0,0,0,.07.16l-.02.01L48.52,32H45.35a1.039,1.039,0,0,1-.35-.07V25.54l1.31-.88ZM40,19.08a12.973,12.973,0,0,1,6,2.2v1.18l-2.03,1.36L40,21.43ZM38,27V24l1.06-.8L43,25.57v2.57A2.977,2.977,0,0,0,40.65,27Zm5.21,9a2.987,2.987,0,0,1-2.93-2.35L39.25,29h1.4a.986.986,0,0,1,.92.63l1,2.49A2.987,2.987,0,0,0,45.35,34h7l.42,2ZM57,43v1a1,1,0,0,1-1,1H52a3.009,3.009,0,0,1-3-3V38h4v4a1,1,0,0,0,1,1Zm-2.19-7-.35-1.66L57.31,36Z"></path><rect x="6" y="31" width="2" height="2"></rect></g></svg>