<svg xmlns="http://www.w3.org/2000/svg" viewBox="0 0 64 64" x="0px" y="0px"><g data-name="Smartphone-Emergency Call-Medical-Ambulance-Hospital"><path d="M46,2H18a6.006,6.006,0,0,0-6,6V56a6.006,6.006,0,0,0,6,6H46a6.006,6.006,0,0,0,6-6V8A6.006,6.006,0,0,0,46,2Zm4,54a4,4,0,0,1-4,4H18a4,4,0,0,1-4-4V8a4,4,0,0,1,4-4H46a4,4,0,0,1,4,4Z"></path><path d="M34,52H30a3,3,0,0,0,0,6h4a3,3,0,0,0,0-6Zm0,4H30a1,1,0,0,1,0-2h4a1,1,0,0,1,0,2Z"></path><rect x="25" y="6" width="2" height="2"></rect><rect x="29" y="6" width="6" height="2"></rect><path d="M41,26H36V21a1,1,0,0,0-1-1H29a1,1,0,0,0-1,1v5H23a1,1,0,0,0-1,1v6a1,1,0,0,0,1,1h5v5a1,1,0,0,0,1,1h6a1,1,0,0,0,1-1V34h5a1,1,0,0,0,1-1V27A1,1,0,0,0,41,26Zm-1,6H35a1,1,0,0,0-1,1v5H30V33a1,1,0,0,0-1-1H24V28h5a1,1,0,0,0,1-1V22h4v5a1,1,0,0,0,1,1h5Z"></path></g></svg>