<svg xmlns="http://www.w3.org/2000/svg" viewBox="0 0 64 64" x="0px" y="0px"><g data-name="File Chart"><path d="M31,43V38.1A5,5,0,1,0,36.9,44H32A1,1,0,0,1,31,43Z"></path><path d="M33,38.1V42h3.9A5.016,5.016,0,0,0,33,38.1Z"></path><circle cx="51" cy="43" r="3"></circle><circle cx="32" cy="27" r="3"></circle><circle cx="13" cy="43" r="3"></circle><path d="M51,48a5.009,5.009,0,0,1-4.9-4H43.414l1.121,1.121-1.414,1.414-2.828-2.828a1,1,0,0,1,0-1.414l2.828-2.828,1.414,1.414L43.414,42H46.1A5.009,5.009,0,0,1,51,38a4.95,4.95,0,0,1,2,.424V30H46V28h7V26H46V24h7V12.846a.992.992,0,0,0-.292-.706L46,5.418V11a1,1,0,0,0,1,1h4v2H47a3,3,0,0,1-3-3V4H12a1,1,0,0,0-1,1V24h1v2H11v2h9v2H11v8.424A4.95,4.95,0,0,1,13,38a5.009,5.009,0,0,1,4.9,4h2.687l-1.121-1.121,1.414-1.414,2.828,2.828a1,1,0,0,1,0,1.414l-2.828,2.828-1.414-1.414L20.586,44H17.9A5.009,5.009,0,0,1,13,48a4.95,4.95,0,0,1-2-.424V59a1,1,0,0,0,1,1H52a1,1,0,0,0,1-1V47.576A4.95,4.95,0,0,1,51,48ZM15,8h2v2H15Zm5,18H14V24h6ZM32,50a7,7,0,0,1-1-13.92V31.9a5,5,0,1,1,2,0V36.08A7,7,0,0,1,32,50Zm7-36H15V12H39Zm0-4H19V8H39Z"></path></g></svg>