<svg xmlns="http://www.w3.org/2000/svg" viewBox="0 0 64 64" x="0px" y="0px"><g><circle cx="36" cy="16" r="2"></circle><path d="M20.14,15H18v2h.76l1.27-1.26A3.673,3.673,0,0,1,20.14,15Z"></path><circle cx="24" cy="16" r="2"></circle><path d="M27.86,15a3.641,3.641,0,0,1,0,2h4.28a3.641,3.641,0,0,1,0-2Z"></path><path d="M16.22,23.79a1,1,0,0,0,1.41-.01l4.35-4.35a3.969,3.969,0,0,1-1.41-1.41l-4.35,4.35A1.008,1.008,0,0,0,16.22,23.79Z"></path><path d="M42,17V15H39.86a3.673,3.673,0,0,1,.11.74L41.24,17Z"></path><path d="M7,38H9V8a2.006,2.006,0,0,1,2-2H49a2.006,2.006,0,0,1,2,2V26h2V7a3.009,3.009,0,0,0-3-3H10A3.009,3.009,0,0,0,7,7Z"></path><path d="M7,46H36V42a2.006,2.006,0,0,1-2,2H26a2.006,2.006,0,0,1-2-2V40H4v3A3.009,3.009,0,0,0,7,46Z"></path><path d="M40.87,26h1.57a2.944,2.944,0,0,1-1.46-.78Z"></path><path d="M43.79,23.78a1,1,0,0,0-.01-1.41l-4.35-4.35a3.969,3.969,0,0,1-1.41,1.41l4.35,4.35A1.008,1.008,0,0,0,43.79,23.78Z"></path><rect x="26" y="40" width="8" height="2"></rect><path d="M36,33H22.73a3,3,0,0,1-2.97-2.57l-.74-5.21a3,3,0,0,1-4.22-4.27l2.22-2.21A2.018,2.018,0,0,1,16,17V15a2.006,2.006,0,0,1,2-2h3.38a3.932,3.932,0,0,1,5.24,0h6.76a3.932,3.932,0,0,1,5.24,0H42a2.006,2.006,0,0,1,2,2v2a2.018,2.018,0,0,1-1.02,1.74l2.22,2.21A2.991,2.991,0,0,1,43.69,26H49V8H11V38H36Z"></path><path d="M39,60H59a1,1,0,0,0,1-1V29a1,1,0,0,0-1-1H39a1,1,0,0,0-1,1V59A1,1,0,0,0,39,60Zm1-28a2,2,0,0,1,2-2H56a2,2,0,0,1,2,2v6a2,2,0,0,1-2,2H42a2,2,0,0,1-2-2Zm0,12a2,2,0,0,1,2-2H56a2,2,0,0,1,2,2V56a2,2,0,0,1-2,2H42a2,2,0,0,1-2-2Z"></path><path d="M56,32H42v6H56ZM46,36H44V34h2Zm4,0H48V34h2Zm4,0H52V34h2Z"></path><path d="M36,29a3,3,0,0,1,2.85-2.98l.36-2.57-3.47-3.48A3.971,3.971,0,0,1,33.38,19H26.62a3.971,3.971,0,0,1-2.36.97l-3.47,3.48.95,6.69a1,1,0,0,0,.99.86H36Zm-10.992.124-1-8,1.984-.248,1,8ZM31,29H29V21h2Zm3.992.124-1.984-.248,1-8,1.984.248Z"></path><path d="M56,44H42V56H56Zm-9.829,1.757,1.415,1.415-1.414,1.414-1.415-1.415Zm-.707,6.365,5.658-5.658,1.414,1.414-5.658,5.658Zm6.365,2.121-1.415-1.415,1.414-1.414,1.415,1.415Z"></path></g></svg>