<svg xmlns="http://www.w3.org/2000/svg" data-name="File Personal Bar Chart" viewBox="0 0 64 64" x="0px" y="0px"><rect x="29" y="31" width="10" height="2"></rect><circle cx="19" cy="25" r="1"></circle><rect x="29" y="43" width="10" height="2"></rect><rect x="29" y="27" width="18" height="2"></rect><rect x="29" y="47" width="16" height="2"></rect><path d="M21,31a1,1,0,0,0-1-1H18a1,1,0,0,0-1,1v3h4Z"></path><path d="M21,47a1,1,0,0,0-1-1H18a1,1,0,0,0-1,1v3h4Z"></path><circle cx="19" cy="41" r="1"></circle><path d="M12,60H52a1,1,0,0,0,1-1V12.846a.992.992,0,0,0-.292-.706L46,5.417V11a1,1,0,0,0,1,1h4v2H47a3,3,0,0,1-3-3V4H12a1,1,0,0,0-1,1V59A1,1,0,0,0,12,60ZM47,50a1,1,0,0,1-1,1H28a1,1,0,0,1-1-1V42a1,1,0,0,1,1-1H40a1,1,0,0,1,1,1v3h5a1,1,0,0,1,1,1Zm1-25a1,1,0,0,1,1,1v4a1,1,0,0,1-1,1H41v3a1,1,0,0,1-1,1H28a1,1,0,0,1-1-1V26a1,1,0,0,1,1-1ZM19,8H39v2H19ZM15,8h2v2H15Zm0,4H39v2H15Zm0,19a3,3,0,0,1,3-3h1a3,3,0,1,1,3-3,3,3,0,0,1-3,3h1a3,3,0,0,1,3,3v4a1,1,0,0,1-1,1H16a1,1,0,0,1-1-1Zm0,16a3,3,0,0,1,3-3h1a3,3,0,1,1,3-3,3,3,0,0,1-3,3h1a3,3,0,0,1,3,3v4a1,1,0,0,1-1,1H16a1,1,0,0,1-1-1Z"></path></svg>