<svg xmlns="http://www.w3.org/2000/svg" viewBox="0 0 64 64" x="0px" y="0px"><g data-name="Speech Bubble"><path d="M60,17a3,3,0,0,0-3-3H19a3,3,0,0,0-3,3V43a3,3,0,0,0,3,3H33a1,1,0,0,1,.923.615L38,56.4l4.077-9.785A1,1,0,0,1,43,46H57a3,3,0,0,0,3-3ZM27,23h2v2H27Zm-4,0h2v2H23Zm0,6H45v2H23Zm30,8H23V35H53Zm-6-6V29h2v2Zm6,0H51V29h2Zm0-6H31V23H53Z"></path><path d="M19,12H48V9a3,3,0,0,0-3-3H7A3,3,0,0,0,4,9V35a3,3,0,0,0,3,3h7V17A5.006,5.006,0,0,1,19,12Zm-6-2H8v7H6V10A2,2,0,0,1,8,8h5Zm2-2h2v2H15Z"></path></g></svg>