<svg xmlns="http://www.w3.org/2000/svg" viewBox="0 0 64 64" x="0px" y="0px"><g><path d="M21,10a1,1,0,0,0,2,0V4H21Z"></path><path d="M27,10V4H25v6a1,1,0,0,0,2,0Z"></path><path d="M44.58,31.43a1.011,1.011,0,0,1-.73-.75,5.854,5.854,0,0,0-.78-1.88.994.994,0,0,1-.01-1.05l.75-1.25-.31-.31-1.25.75a.994.994,0,0,1-1.05-.01,5.854,5.854,0,0,0-1.88-.78,1.011,1.011,0,0,1-.75-.73L38.22,24h-.44l-.35,1.42a1.011,1.011,0,0,1-.75.73,5.854,5.854,0,0,0-1.88.78.994.994,0,0,1-1.05.01l-1.25-.75-.31.31.75,1.25a.994.994,0,0,1-.01,1.05,5.854,5.854,0,0,0-.78,1.88,1.011,1.011,0,0,1-.73.75L30,31.78v.44l1.42.35a1.011,1.011,0,0,1,.73.75,5.854,5.854,0,0,0,.78,1.88.994.994,0,0,1,.01,1.05l-.75,1.25.31.31,1.25-.75a.994.994,0,0,1,1.05.01,5.854,5.854,0,0,0,1.88.78,1.011,1.011,0,0,1,.75.73L37.78,40h.44l.35-1.42a1.011,1.011,0,0,1,.75-.73,5.854,5.854,0,0,0,1.88-.78.994.994,0,0,1,1.05-.01l1.25.75.31-.31-.75-1.25a.994.994,0,0,1,.01-1.05,5.854,5.854,0,0,0,.78-1.88,1.011,1.011,0,0,1,.73-.75L46,32.22v-.44ZM38,36a4,4,0,1,1,4-4A4,4,0,0,1,38,36Z"></path><path d="M22,13a2.951,2.951,0,0,1-.492-.05A7.025,7.025,0,0,1,22.891,14H34.02a1,1,0,0,1,.795.395A3.977,3.977,0,0,0,40.644,15H39a1,1,0,0,1-.9-.553l-1-2a1,1,0,0,1,0-.894l1-2A1,1,0,0,1,39,9h1.644a3.977,3.977,0,0,0-5.829.605A1,1,0,0,1,34.02,10H33a2.987,2.987,0,0,1-5,2.22,2.954,2.954,0,0,1-4,0A2.981,2.981,0,0,1,22,13Z"></path><circle cx="38" cy="32" r="2"></circle><path d="M31,10V5a1,1,0,0,0-1-1H29v6a1,1,0,0,0,2,0Z"></path><circle cx="49" cy="20" r="1"></circle><path d="M7.9,9.553l1,2a1,1,0,0,1,0,.894l-1,2A1,1,0,0,1,7,15H5.356A4.01,4.01,0,0,0,8,16a3.182,3.182,0,0,0,.758-.08A3.966,3.966,0,0,0,11.2,14.374,1,1,0,0,1,12.242,14H13V10h-.825a.987.987,0,0,1-.979-.375A3.943,3.943,0,0,0,8,8,4.01,4.01,0,0,0,5.356,9H7A1,1,0,0,1,7.9,9.553Z"></path><path d="M53,12H39.12l.5,1h2.97a1.013,1.013,0,0,1,.84.45,1.023,1.023,0,0,1,.07.96A6.015,6.015,0,0,1,38,18a5.941,5.941,0,0,1-4.45-2H33v5a1,1,0,0,1,1,1v2.76l.28.16a8.917,8.917,0,0,1,1.35-.56l.4-1.6A1,1,0,0,1,37,22h2a1,1,0,0,1,.97.76l.4,1.6a8.917,8.917,0,0,1,1.35.56l1.42-.85a1.011,1.011,0,0,1,1.22.15l1.42,1.42a1,1,0,0,1,.15,1.22l-.85,1.42a8.917,8.917,0,0,1,.56,1.35l1.6.4A1,1,0,0,1,48,31v2a1,1,0,0,1-.76.97l-1.6.4a8.917,8.917,0,0,1-.56,1.35l.85,1.42a1,1,0,0,1-.15,1.22l-1.42,1.42a1.011,1.011,0,0,1-1.22.15l-1.42-.85a8.917,8.917,0,0,1-1.35.56l-.4,1.6A1,1,0,0,1,39,42H37a1,1,0,0,1-.97-.76l-.4-1.6a8.917,8.917,0,0,1-1.35-.56l-1.42.85a1.011,1.011,0,0,1-1.22-.15l-1.42-1.42a1,1,0,0,1-.15-1.22l.85-1.42a8.917,8.917,0,0,1-.56-1.35l-1.6-.4A1,1,0,0,1,28,33V31H15a1,1,0,0,1-1-1V22a.988.988,0,0,1,.47-.83l-1.36-2.72A1,1,0,0,1,13,18V16h-.55A5.962,5.962,0,0,1,10,17.64V44H54V13A1,1,0,0,0,53,12Zm-9,9H40V19h4Zm6,8H48V25h2Zm-1-6a3,3,0,1,1,3-3A3.009,3.009,0,0,1,49,23Z"></path><path d="M15,9v8.764L16.618,21H31V16H24.321A6.962,6.962,0,0,1,25,19H23a5.006,5.006,0,0,0-5-5,1,1,0,0,1-1-1V9a1,1,0,0,0-2,0Z"></path><path d="M19.93,12.278c.072.021.145.039.216.062-.05-.039-.1-.078-.146-.12Z"></path><path d="M17,6.184A3,3,0,0,1,19,9V4H18a1,1,0,0,0-1,1Z"></path><path d="M31.636,24.222A.98.98,0,0,1,32,24V23H16v6H30.591c.1-.245.209-.486.333-.721l-.853-1.421a1,1,0,0,1,.151-1.222Z"></path><path d="M54.38,46H9.62l-5,10H23.38l1.73-3.45A.988.988,0,0,1,26,52H38a.988.988,0,0,1,.89.55L40.62,56H59.38ZM19,48h2v2H19Zm-7,6H10V52h2Zm1-4H11V48h2Zm3,4H14V52h2Zm1-4H15V48h2Zm5,4H18V52h4Zm3-4H23V48h2Zm4,0H27V48h2Zm4,0H31V48h2Zm4,0H35V48h2Zm6-2h2v2H43Zm-2,2H39V48h2Zm5,4H42V52h4Zm1-6h2v2H47Zm3,6H48V52h2Zm1-6h2v2H51Zm3,6H52V52h2Z"></path><polygon points="26.618 54 25.618 56 38.382 56 37.382 54 26.618 54"></polygon><rect x="4" y="58" width="56" height="2"></rect></g></svg>