<svg xmlns="http://www.w3.org/2000/svg" viewBox="0 0 64 64" x="0px" y="0px"><g><path d="M60.41,34.99l-.82-1.82a20.856,20.856,0,0,1-3.13,1.12L53,18.46A3.989,3.989,0,0,1,51,19a3.85,3.85,0,0,1-1.72-.4L45.84,34.34a21.631,21.631,0,0,1-2.56-.8l-.74,1.86a22.787,22.787,0,0,0,2.88.89l-2.08,9.5,1.96.42,2.08-9.52A22.969,22.969,0,0,0,51,37a23.339,23.339,0,0,0,3.93-.34l2.09,9.55,1.96-.42-2.09-9.55A22.7,22.7,0,0,0,60.41,34.99ZM51,35a21.12,21.12,0,0,1-3.19-.26l3.35-15.32L54.5,34.71A21.285,21.285,0,0,1,51,35Z"></path><rect x="50" y="6" width="2" height="3"></rect><path d="M48,14a3,3,0,1,0,4-2.816V13H50V11.184A3,3,0,0,0,48,14Z"></path><polygon points="6 51 6 60 58 60 58 51 54 51 54 53 52 53 52 51 48 51 48 53 46 53 46 51 42 51 42 53 40 53 40 51 36 51 36 53 34 53 34 51 30 51 30 53 28 53 28 51 24 51 24 53 22 53 22 51 18 51 18 53 16 53 16 51 12 51 12 53 10 53 10 51 6 51"></polygon><path d="M5,44H33a1,1,0,0,0,1-1V12.846a.99.99,0,0,0-.292-.7L27,5.418V11a1,1,0,0,0,1,1h4v2H28a3,3,0,0,1-3-3V4H5A1,1,0,0,0,4,5V43A1,1,0,0,0,5,44ZM10,8H20v2H10ZM6,8H8v2H6Zm0,6H24v2H6Zm0,6H32v2H6Zm0,6H32v2H6Zm0,6H32v2H6Zm0,6H32v2H6Z"></path></g></svg>