<svg xmlns="http://www.w3.org/2000/svg" viewBox="0 0 64 64" x="0px" y="0px"><g><path d="M60.58,28.29l-5.42,5.42-8.48-8.49L62.19,9.71,60.78,8.29,44.56,24.51a1.017,1.017,0,0,0-.01,1.42L55.17,36.54l-4.96,4.95L38.2,29.46l-1.42,1.42.71.7L35.47,33.6,32.5,35.08l-2.79-2.79A1.033,1.033,0,0,0,29,32H25.17l-1.83-1.83a1,1,0,0,0,.3-.71.976.976,0,0,0-.3-.7L17.69,23.1a1.008,1.008,0,0,0-1.42,0L3.45,10.28,2.04,11.69,14.86,24.51,6.37,33,3.79,30.42,2.38,31.83l2.58,2.58a1.008,1.008,0,0,0,0,1.42l5.66,5.66a1.009,1.009,0,0,0,.7.29,1.033,1.033,0,0,0,.71-.29l6.36,6.36a3,3,0,0,0,0,4.24,2.89,2.89,0,0,0,1.97.86,3,3,0,0,0,.86,1.97,2.89,2.89,0,0,0,1.97.86,2.976,2.976,0,0,0,.86,1.97,2.946,2.946,0,0,0,1.95.87,3,3,0,0,0,.88,1.96,3.086,3.086,0,0,0,2.14.86,2.932,2.932,0,0,0,2.1-.86l.71-.71a2.994,2.994,0,0,0,4.24,0,2.91,2.91,0,0,0,.86-1.97,2.944,2.944,0,0,0,2.83-2.82,2.963,2.963,0,0,0,2.83-2.83,2.993,2.993,0,0,0,1.97-5.11l2.12-2.12c.01,0,.01-.01.01-.02l2.11-2.1.7.71a1.014,1.014,0,0,0,1.42,0l6.37-6.36a1.014,1.014,0,0,0,0-1.42l-.71-.71,5.41-5.41ZM11.32,39.36,7.08,35.12l9.9-9.9,4.24,4.24Zm2.12.71,8.49-8.48L23.34,33l-8.48,8.49Zm2.83,2.83,8.9-8.9h3.42l6.77,6.78a1,1,0,0,1-1.41,1.41l-3.54-3.53a1.014,1.014,0,0,0-1.41,0,3.075,3.075,0,0,1-4.24,0l-1.42,1.41a4.965,4.965,0,0,0,1.72,1.12l-5.25,5.25ZM29.71,59.16a.982.982,0,0,1-.7.28.914.914,0,0,1-.72-.28,1,1,0,0,1-.02-1.39.01.01,0,0,0,.01-.01l.01-.01,1.26-1.26a3.025,3.025,0,0,0,.86,1.97Zm4.95-.7a1.047,1.047,0,0,1-1.42,0l-1.41-1.42a1,1,0,0,1,0-1.41.978.978,0,0,1,1.41,0l1.42,1.41A1.008,1.008,0,0,1,34.66,58.46Zm2.83-2.83a1.008,1.008,0,0,1-1.42,0l-1.41-1.42a1,1,0,0,1,0-1.41,1,1,0,0,1,1.41,0l1.42,1.41a1.014,1.014,0,0,1,0,1.42Zm2.82-2.83a1,1,0,0,1-1.41,0l-1.41-1.42a.976.976,0,0,1-.3-.7,1,1,0,0,1,.3-.71.967.967,0,0,1,.7-.29.99.99,0,0,1,.71.29l1.41,1.41a.99.99,0,0,1,0,1.42Zm2.83-2.83a1.014,1.014,0,0,1-1.41,0l-1.42-1.41a1.008,1.008,0,0,1,0-1.42,1.014,1.014,0,0,1,1.42,0l1.41,1.42A1,1,0,0,1,43.14,49.97Zm0-4.24a3,3,0,0,0-4.24,0,3.036,3.036,0,0,0-.87,1.99,2.907,2.907,0,0,0-2.82,2.8,2.943,2.943,0,0,0-2.83,2.83,3.025,3.025,0,0,0-1.97.86,1.007,1.007,0,0,0-.71-.29,1.019,1.019,0,0,0-.7.29l-2.13,2.12a.435.435,0,0,0-.06.07,1.129,1.129,0,0,1-.65.22.976.976,0,0,1-.7-.29,1,1,0,0,1,0-1.41l2.13-2.12-1.42-1.42-2.12,2.13a1.013,1.013,0,0,1-.72.28.949.949,0,0,1-.69-.28,1.008,1.008,0,0,1,0-1.42l2.12-2.12-1.42-1.41-2.12,2.12a1.057,1.057,0,0,1-.72.28.878.878,0,0,1-.69-.28,1.008,1.008,0,0,1,0-1.42l7.78-7.78a4.922,4.922,0,0,0,2.05-.77l2.9,2.9a3,3,0,0,0,4.24-4.25l-2.79-2.79,1.89-.94,8.68,8.68Zm2.83-2.83-8.48-8.49L38.9,33l8.48,8.49Z"></path><path d="M32,30A14,14,0,1,0,18,16,14.015,14.015,0,0,0,32,30ZM32,4A12,12,0,1,1,20,16,12.013,12.013,0,0,1,32,4Z"></path><path d="M38.973,21.387a1,1,0,0,0,.707.293.945.945,0,0,0,.118-.007,1,1,0,0,0,.735-.47A9.991,9.991,0,0,0,26.8,7.467a1,1,0,0,0-.184,1.56ZM32,8a7.995,7.995,0,0,1,7.414,11L29,8.586A7.97,7.97,0,0,1,32,8Z"></path><path d="M32,26a9.95,9.95,0,0,0,5.2-1.467,1,1,0,0,0,.184-1.56l-12.36-12.36a1,1,0,0,0-1.56.184A9.991,9.991,0,0,0,32,26ZM24.586,13,35,23.414A7.995,7.995,0,0,1,24.586,13Z"></path></g></svg>