<svg xmlns="http://www.w3.org/2000/svg" viewBox="0 0 64 64" x="0px" y="0px"><g><rect x="26" y="19" width="2" height="2"></rect><rect x="36" y="19" width="2" height="2"></rect><path d="M37,27V25a3,3,0,0,0-3-3H30a3,3,0,0,0-3,3v2a1,1,0,0,0,1,1h8A1,1,0,0,0,37,27Zm-2-1H29V25a1,1,0,0,1,1-1h4a1,1,0,0,1,1,1Z"></path><path d="M53,50.18v-.83a10.924,10.924,0,0,0-7.72-10.49L37,36.26V32.79a11.064,11.064,0,0,0,2.78-2.01A10.943,10.943,0,0,0,42.81,25H43a4,4,0,0,0,1.46-7.72c.03-.05.07-.11.1-.17l.11-.21A2.979,2.979,0,0,0,43,12.75V6.64A3.006,3.006,0,0,0,40.58,3.7L33.76,2.33a9.315,9.315,0,0,0-3.53,0L23.41,3.7A3.007,3.007,0,0,0,21,6.64v6.11a2.979,2.979,0,0,0-1.67,4.15l.1.21a1.629,1.629,0,0,1,.11.17A4,4,0,0,0,21,25h.19A11.043,11.043,0,0,0,27,32.79v3.47l-8.28,2.59A10.945,10.945,0,0,0,11,49.35v.83a2.988,2.988,0,0,0,0,5.64V61a1,1,0,0,0,1,1H52a1,1,0,0,0,1-1V55.82a2.988,2.988,0,0,0,0-5.64ZM43,19a2.006,2.006,0,0,1,2,2,2.015,2.015,0,0,1-2,2ZM21,23a2.015,2.015,0,0,1-2-2,2.006,2.006,0,0,1,2-2ZM40,39.3l2,.62V49a1,1,0,0,1-2,0ZM39.52,5.52l.67.14a1,1,0,0,1,.81.98v5.73l-2.77-.42Zm-8.9-1.23a7.478,7.478,0,0,1,2.75,0l4.19.84-1.3,6.51-1.68-.25a16.6,16.6,0,0,0-5.17,0l-1.67.25L26.45,5.13ZM23,6.64a1.006,1.006,0,0,1,.8-.98l.68-.14,1.29,6.43L23,12.37Zm-1.78,9.57-.1-.2a1.006,1.006,0,0,1,.01-.91.978.978,0,0,1,.73-.53l7.86-1.21a15.374,15.374,0,0,1,4.56,0l7.86,1.21A1,1,0,0,1,42.88,16l-.1.21a1.006,1.006,0,0,1-1.08.54l-7.37-1.34a13.031,13.031,0,0,0-4.66,0L22.3,16.75A1.006,1.006,0,0,1,21.22,16.21ZM23,23V18.65l7.03-1.28a11.1,11.1,0,0,1,3.94.01L41,18.65V23a9,9,0,0,1-18,0ZM35,33.58V37a3,3,0,0,1-6,0V33.57A10.665,10.665,0,0,0,32,34,11.09,11.09,0,0,0,35,33.58Zm-9,5.09,1.19-.37a4.977,4.977,0,0,0,9.62,0l1.19.37V46H26Zm-4,1.25,2-.62V49a1,1,0,0,1-2,0ZM18,60H13V56h5Zm0-6H12a1,1,0,0,1,0-2h6Zm0-5v1H13v-.65a8.959,8.959,0,0,1,6.32-8.59l.68-.21v5.63A3.01,3.01,0,0,0,18,49ZM44,60H20V49a3,3,0,0,0,6,0V48H38v1a3,3,0,0,0,6,0Zm0-13.82V40.55l.68.21A8.959,8.959,0,0,1,51,49.35V50H46V49A3.01,3.01,0,0,0,44,46.18ZM51,60H46V56h5Zm1-6H46V52h6a1,1,0,0,1,0,2Z"></path></g></svg>