<svg xmlns="http://www.w3.org/2000/svg" viewBox="0 0 64 64" x="0px" y="0px"><g><circle cx="19" cy="21" r="2"></circle><circle cx="27" cy="21" r="2"></circle><path d="M26.307,27.75l-1.323-1.5a3.076,3.076,0,0,1-3.968,0l-1.323,1.5a5,5,0,0,0,6.614,0Z"></path><path d="M37.93,39.38A2.993,2.993,0,0,0,35,37a2.932,2.932,0,0,0-2.04.82L28,36.27V33.79A11.028,11.028,0,0,0,33.95,25H34a4,4,0,0,0,1.46-7.72c.03-.06.21-.38.21-.38A2.979,2.979,0,0,0,34,12.75V8.28a5,5,0,0,0-4.02-4.9l-6-1.2a4.974,4.974,0,0,0-1.96,0l-6,1.2A5,5,0,0,0,12,8.28v4.47a2.979,2.979,0,0,0-1.67,4.15s.18.32.21.38A4,4,0,0,0,12,25h.05a10.919,10.919,0,0,0,3.17,6.78A11.064,11.064,0,0,0,18,33.79v2.48l-4.96,1.55A2.932,2.932,0,0,0,11,37a2.993,2.993,0,0,0-2.93,2.38A8.949,8.949,0,0,0,2,47.88V61a1,1,0,0,0,1,1H43a1,1,0,0,0,1-1V47.88A8.949,8.949,0,0,0,37.93,39.38ZM34,19a2.006,2.006,0,0,1,2,2,2.015,2.015,0,0,1-2,2ZM12,23a2.015,2.015,0,0,1-2-2,2.006,2.006,0,0,1,2-2ZM14,8.28a3,3,0,0,1,2.41-2.94l6-1.2a2.931,2.931,0,0,1,1.18,0l6,1.2A3,3,0,0,1,32,8.28v4.09l-6.42-.98a16.6,16.6,0,0,0-5.17,0L14,12.37Zm-1.78,7.93-.1-.2a1.006,1.006,0,0,1,.01-.91.978.978,0,0,1,.73-.53l7.86-1.21a15.374,15.374,0,0,1,4.56,0l7.86,1.21a.978.978,0,0,1,.73.53,1.006,1.006,0,0,1,.01.91l-.1.2a1.02,1.02,0,0,1-1.08.54l-7.37-1.34a13.031,13.031,0,0,0-4.66,0L13.3,16.75A1.013,1.013,0,0,1,12.22,16.21Zm4.42,14.15A8.942,8.942,0,0,1,14,24V18.65l7.03-1.28a11.1,11.1,0,0,1,3.94.01L32,18.65V24a8.994,8.994,0,0,1-15.36,6.36ZM26,34.57V37a3,3,0,0,1-6,0V34.58a10.8,10.8,0,0,0,6-.01ZM18.19,38.3a4.977,4.977,0,0,0,9.62,0l4.23,1.33A2.206,2.206,0,0,0,32,40v8H14V40a2.206,2.206,0,0,0-.04-.37ZM10,60H4V56h6Zm0-6H4V47.88a6.947,6.947,0,0,1,4-6.31V50a3.01,3.01,0,0,0,2,2.82Zm1-3a1,1,0,0,1-1-1V40a1,1,0,0,1,2,0V50A1,1,0,0,1,11,51Zm23,9H12V52.82A3.01,3.01,0,0,0,14,50H32a3.01,3.01,0,0,0,2,2.82Zm1-9a1,1,0,0,1-1-1V40a1,1,0,0,1,2,0V50A1,1,0,0,1,35,51Zm7,9H36V56h6Zm0-6H36V52.82A3.01,3.01,0,0,0,38,50V41.57a6.947,6.947,0,0,1,4,6.31Z"></path><path d="M59,32H49a3,3,0,0,0-3,3V59a3,3,0,0,0,3,3H59a3,3,0,0,0,3-3V35A3,3,0,0,0,59,32Zm0,28H49a1,1,0,0,1-1-1V58h2V56H48V54h2V52H48V50h2V48H48V46h2V44H48V42h2V40H48V38h2V36H48V35a1,1,0,0,1,1-1H59a1,1,0,0,1,1,1v1H58v2h2v2H58v2h2v2H58v2h2v2H58v2h2v2H58v2h2v2H58v2h2v1A1,1,0,0,1,59,60Z"></path><rect x="52" y="36" width="4" height="2"></rect><rect x="52" y="40" width="4" height="2"></rect><rect x="52" y="44" width="4" height="2"></rect><rect x="52" y="48" width="4" height="2"></rect><rect x="52" y="52" width="4" height="2"></rect><rect x="52" y="56" width="4" height="2"></rect></g></svg>