<svg xmlns="http://www.w3.org/2000/svg" viewBox="0 0 64 64" x="0px" y="0px"><g><path d="M59,29a1.994,1.994,0,0,0-1.723,1H55a1,1,0,0,0-.707.293l-3.4,3.4A2.972,2.972,0,0,0,49,33H15a2.972,2.972,0,0,0-1.894.692l-3.4-3.4A1,1,0,0,0,9,30H6.723a2,2,0,1,0,0,2H8.586l3.468,3.468A3.008,3.008,0,0,0,12,36v7H52V36a3.008,3.008,0,0,0-.054-.532L55.414,32h1.863A2,2,0,1,0,59,29ZM20,41a3,3,0,1,1,3-3A3,3,0,0,1,20,41Zm18-1H26V38H38Zm0-3H26V35H38Zm6,4a3,3,0,1,1,3-3A3,3,0,0,1,44,41Z"></path><path d="M36,14a1,1,0,0,0-1-1H29a1,1,0,0,0-1,1v1h8Z"></path><path d="M44.409,17.758A1,1,0,0,0,43.438,17H20.562a1,1,0,0,0-.971.758l-.06.242H44.469Z"></path><path d="M23,27a5.009,5.009,0,0,1,4.9,4h19.82l-2.75-11H19.031l-2.75,11H18.1A5.009,5.009,0,0,1,23,27Z"></path><rect x="44" y="49" width="6" height="6"></rect><path d="M20.184,31h5.632a2.982,2.982,0,0,0-5.632,0Z"></path><rect x="14" y="49" width="6.001" height="6"></rect><rect x="10" y="45" width="44" height="2"></rect><circle cx="44" cy="38" r="1"></circle><circle cx="20" cy="38" r="1"></circle></g></svg>