<svg xmlns="http://www.w3.org/2000/svg" viewBox="0 0 64 64" x="0px" y="0px"><g data-name="Touch Screen-Smartphone-Application-Hand-Technology"><rect x="25" y="6" width="2" height="2"></rect><rect x="29" y="6" width="6" height="2"></rect><path d="M52,41.56V8a6,6,0,0,0-6-6H18a6,6,0,0,0-6,6V56a6,6,0,0,0,6,6h9.72l.28.49,1.74-.98L22.67,49.04a2.018,2.018,0,0,1,.73-2.74,2.06,2.06,0,0,1,1.52-.2,1.942,1.942,0,0,1,1.21.94l2,3.46a1.022,1.022,0,0,0,1.13.47A1,1,0,0,0,30,50V31a2,2,0,0,1,4,0V47a1,1,0,0,0,2,0V43a2,2,0,0,1,4,0v4a1,1,0,0,0,2,0V44a2,2,0,0,1,4,0v3a1,1,0,0,0,2,0V45a2,2,0,0,1,4,0V62h2V45A3.98,3.98,0,0,0,52,41.56ZM23.18,54l3.4,6H18a4,4,0,0,1-4-4V54ZM50,41a3.94,3.94,0,0,0-2.57.94A4.012,4.012,0,0,0,44,40a3.94,3.94,0,0,0-2.57.94A3.993,3.993,0,0,0,36,39.54V31a4,4,0,0,0-8,0V46.27l-.13-.23a4,4,0,0,0-6.94,3.99L22.05,52H14V12H50Zm0-31H14V8a4,4,0,0,1,4-4H46a4,4,0,0,1,4,4Z"></path><path d="M32,19a10,10,0,0,0-7.453,16.667,1,1,0,1,0,1.49-1.334,8,8,0,1,1,11.926,0,1,1,0,1,0,1.49,1.334A10,10,0,0,0,32,19Z"></path></g></svg>