<svg xmlns="http://www.w3.org/2000/svg" viewBox="0 0 64 64" x="0px" y="0px"><g><path d="M26,14a4,4,0,1,0-4-4A4,4,0,0,0,26,14Zm0-6a2,2,0,1,1-2,2A2,2,0,0,1,26,8Z"></path><path d="M62,51a3.009,3.009,0,0,0-3-3H53.82A3,3,0,0,0,54,47V45a3.009,3.009,0,0,0-3-3h-.03A9.985,9.985,0,0,0,45,24V18h4a1,1,0,0,0,1-1V11a.992.992,0,0,0-.67-.94l-23-8a.938.938,0,0,0-.66,0l-23,8A.992.992,0,0,0,2,11v6a1,1,0,0,0,1,1H7V42H5a1,1,0,0,0-1,1v3H3a1,1,0,0,0-1,1v6a1,1,0,0,0,1,1H28.18a3.174,3.174,0,0,0,.6,1A2.974,2.974,0,0,0,28,57v2a3.009,3.009,0,0,0,3,3H43a2.974,2.974,0,0,0,2-.78A2.974,2.974,0,0,0,47,62H59a3.009,3.009,0,0,0,3-3V57a2.974,2.974,0,0,0-.78-2A2.974,2.974,0,0,0,62,53ZM53,34a8,8,0,1,1-8-8A8.011,8.011,0,0,1,53,34ZM39.03,42H39v-.02C39.01,41.99,39.02,41.99,39.03,42ZM37,39.97V42H30V18h7V28.03a9.91,9.91,0,0,0,0,11.94ZM43,22v2.2a9.87,9.87,0,0,0-4,1.82V22Zm-4-2V18h4v2ZM4,16V11.71L26,4.06l22,7.65V16ZM24,38V22h4V38Zm4,2v2H24V40ZM24,20V18h4v2Zm-2-2V42H15V18ZM9,38V22h4V38Zm4,2v2H9V40ZM9,20V18h4v2ZM6,44H36.18A3,3,0,0,0,36,45v1H6Zm22,7v1H4V48H31A3.009,3.009,0,0,0,28,51Zm16,8a1,1,0,0,1-1,1H31a1,1,0,0,1-1-1V57a1,1,0,0,1,1-1h1v2h2V56h2v2h2V56h2v2h2V56h1a1,1,0,0,1,1,1Zm0-6a1,1,0,0,1-1,1H31a1,1,0,0,1-1-1V51a1,1,0,0,1,1-1h1v2h2V50h2v2h2V50h2v2h2V50h1a1,1,0,0,1,1,1Zm-5-5a1,1,0,0,1-1-1V45a1,1,0,0,1,1-1h1v2h2V44h2v2h2V44h2v2h2V44h1a1,1,0,0,1,1,1v2a1,1,0,0,1-1,1ZM60,59a1,1,0,0,1-1,1H47a1,1,0,0,1-1-1V57a1,1,0,0,1,1-1h1v2h2V56h2v2h2V56h2v2h2V56h1a1,1,0,0,1,1,1Zm0-6a1,1,0,0,1-1,1H47a1,1,0,0,1-1-1V51a1,1,0,0,1,1-1h1v2h2V50h2v2h2V50h2v2h2V50h1a1,1,0,0,1,1,1Z"></path><path d="M44,28v1a3,3,0,0,0,0,6h2a1,1,0,0,1,0,2H44a1,1,0,0,1-1-1H41a3,3,0,0,0,3,3v1h2V39a3,3,0,0,0,0-6H44a1,1,0,0,1,0-2h2a1,1,0,0,1,1,1h2a3,3,0,0,0-3-3V28Z"></path></g></svg>