<svg xmlns="http://www.w3.org/2000/svg" viewBox="0 0 64 64" x="0px" y="0px"><g><rect x="27" y="40" width="30" height="1"></rect><circle cx="42" cy="53" r="3"></circle><rect x="27" y="43" width="30" height="1"></rect><path d="M41.071,7a.987.987,0,0,1-.778-.291L37,3.414,33.707,6.707a1,1,0,0,1-1.414,0l-3.3-3.3-3.3,3.213a1,1,0,0,1-1.4,0L21.008,3.406l-3.3,3.3a1,1,0,0,1-1.414,0L13,3.414,9.707,6.707A.987.987,0,0,1,8.929,7,1,1,0,0,1,8.2,6.6L7,5V53H25V40a2,2,0,0,1,2-2H43V5L41.8,6.6A1,1,0,0,1,41.071,7ZM31,35H13V33H31Zm0-4H13V29H31Zm0-4H13V25H31Zm0-4H13V21H31Zm6,12H33V33h4Zm0-4H33V29h4Zm0-4H33V25h4Zm0-4H33V21h4Zm0-6H29V15h8Zm0-4H29V11h8Z"></path><path d="M57,47V46H27V60H57ZM33,58H30a1,1,0,0,1-1-1V54h2v2h2Zm0-8H31v2H29V49a1,1,0,0,1,1-1h3Zm9,8a5,5,0,1,1,5-5A5.006,5.006,0,0,1,42,58Zm13-1a1,1,0,0,1-1,1H51V56h2V54h2Zm0-5H53V50H51V48h3a1,1,0,0,1,1,1Z"></path></g></svg>