<svg xmlns="http://www.w3.org/2000/svg" viewBox="0 0 64 64" x="0px" y="0px"><g><circle cx="32" cy="5" r="2"></circle><rect x="7" y="23" width="50" height="2"></rect><path d="M43,33a3,3,0,0,0,3-3V27H18v3a3,3,0,0,0,3,3Z"></path><path d="M10,27V59a1,1,0,0,0,1,1H53a1,1,0,0,0,1-1V58H49V56h5V54H47V52h7V27H48v3a5.006,5.006,0,0,1-5,5H21a5.006,5.006,0,0,1-5-5V27ZM43,52h2v2H43Z"></path><path d="M54,21A13.015,13.015,0,0,0,41,8H23A13.015,13.015,0,0,0,10,21ZM23,10v2a8.97,8.97,0,0,0-8.587,6.3l-1.907-.6A10.961,10.961,0,0,1,23,10Z"></path></g></svg>