<svg xmlns="http://www.w3.org/2000/svg" viewBox="0 0 64 64" x="0px" y="0px"><g><circle cx="55" cy="41" r="1"></circle><circle cx="55" cy="48" r="1"></circle><circle cx="39" cy="55" r="1"></circle><rect x="38" y="30" width="18.001" height="4"></rect><circle cx="39" cy="48" r="1"></circle><circle cx="39" cy="41" r="1"></circle><circle cx="55" cy="55" r="1"></circle><path d="M32,27a3,3,0,0,1,3-3H48V4H33a3,3,0,0,0-3,3V33.026a4.954,4.954,0,0,1,2-.925ZM33,8H45v2H33Zm0,6H45v2H33Zm0,6H45v2H33Z"></path><circle cx="47" cy="55" r="1"></circle><path d="M30,40h2V34.184A3,3,0,0,0,30,37Z"></path><circle cx="47" cy="41" r="1"></circle><circle cx="47" cy="48" r="1"></circle><rect x="20" y="38" width="8" height="2"></rect><polygon points="4 40 6 40 6 33 6 8 4 8 4 40"></polygon><path d="M15.293,43.293a1,1,0,0,1,1.414,0L18,44.586V38H14v6.586Z"></path><rect x="50" y="8" width="2" height="16"></rect><path d="M25,34H8v6h4V38H10V36H27.816A3,3,0,0,0,25,34Z"></path><path d="M28,7a3,3,0,0,0-3-3H8V32H25a4.948,4.948,0,0,1,3,1.026ZM25,28H11V26H25Zm0-6H11V20H25Zm0-6H11V14H25Zm0-6H11V8H25Z"></path><path d="M35,60H59a1,1,0,0,0,1-1V27a1,1,0,0,0-1-1H35a1,1,0,0,0-1,1V59A1,1,0,0,0,35,60Zm12-2a3,3,0,1,1,3-3A3,3,0,0,1,47,58Zm0-7a3,3,0,1,1,3-3A3,3,0,0,1,47,51Zm0-7a3,3,0,1,1,3-3A3,3,0,0,1,47,44Zm8,14a3,3,0,1,1,3-3A3,3,0,0,1,55,58Zm0-7a3,3,0,1,1,3-3A3,3,0,0,1,55,51Zm0-7a3,3,0,1,1,3-3A3,3,0,0,1,55,44ZM36,30a2,2,0,0,1,2-2H56a2,2,0,0,1,2,2v4a2,2,0,0,1-2,2H38a2,2,0,0,1-2-2Zm3,8a3,3,0,1,1-3,3A3,3,0,0,1,39,38Zm0,7a3,3,0,1,1-3,3A3,3,0,0,1,39,45Zm0,7a3,3,0,1,1-3,3A3,3,0,0,1,39,52Z"></path></g></svg>