<svg xmlns="http://www.w3.org/2000/svg" viewBox="0 0 64 64" x="0px" y="0px"><g><path d="M28,52a1,1,0,0,1-1,1H5a1,1,0,0,1-1-1V12a1,1,0,0,1,1-1h5v2a2,2,0,0,0,2,2h8a2,2,0,0,0,2-2V11h5a1,1,0,0,1,1,1v8h2V12a3,3,0,0,0-3-3H5a3,3,0,0,0-3,3V52a3,3,0,0,0,3,3H27a3,3,0,0,0,3-3V41H28ZM20,13H12V11h8Z"></path><path d="M59,9H37a3,3,0,0,0-3,3v9h2V12a1,1,0,0,1,1-1h5v2a2,2,0,0,0,2,2h8a2,2,0,0,0,2-2V11h5a1,1,0,0,1,1,1V52a1,1,0,0,1-1,1H37a1,1,0,0,1-1-1V42H34V52a3,3,0,0,0,3,3H59a3,3,0,0,0,3-3V12A3,3,0,0,0,59,9Zm-7,4H44V11h8Z"></path><path d="M28,22a1,1,0,0,0-1.707-.707l-4,4a1,1,0,0,0,0,1.414l4,4A1,1,0,0,0,28,30V29H39V27H27a1,1,0,0,0-.937.649L24.414,26l1.649-1.649A1,1,0,0,0,27,25H41V23H28Z"></path><rect x="43" y="23" width="2" height="2"></rect><rect x="47" y="23" width="2" height="2"></rect><rect x="41" y="27" width="2" height="2"></rect><rect x="45" y="27" width="2" height="2"></rect><path d="M36.617,40.924a1,1,0,0,0,1.09-.217l4-4a1,1,0,0,0,0-1.414l-4-4A1,1,0,0,0,36,32v1H27v2H37a1,1,0,0,0,.937-.649L39.586,36l-1.649,1.649A1,1,0,0,0,37,37H23v2H36v1A1,1,0,0,0,36.617,40.924Z"></path><rect x="23" y="33" width="2" height="2"></rect><rect x="19" y="37" width="2" height="2"></rect><rect x="15" y="37" width="2" height="2"></rect></g></svg>