<svg xmlns="http://www.w3.org/2000/svg" viewBox="0 0 64 64" x="0px" y="0px"><g data-name="Tea Bag-Tea-Herbs-Hot Drink-Coffee Shop"><path d="M23.61,44.6l-.23.61.64.1a5.039,5.039,0,0,0,5.45-3.15l.23-.61-.64-.1A5.039,5.039,0,0,0,23.61,44.6Z"></path><path d="M14.94,41.45l-.64.1.23.61a5.039,5.039,0,0,0,5.45,3.15l.64-.1-.23-.61A5.033,5.033,0,0,0,14.94,41.45Z"></path><path d="M18,25a1,1,0,0,0,1,1h6a1,1,0,0,0,0-2H19A1,1,0,0,0,18,25Z"></path><path d="M13,30H31V20H23v2h2a3,3,0,0,1,0,6H19a3,3,0,0,1,0-6h2V20H13Z"></path><path d="M37,59V31.24l-4-8V31a1,1,0,0,1-1,1H12a1,1,0,0,1-1-1V23.24l-4,8V59a1,1,0,0,0,1,1H36A1,1,0,0,0,37,59ZM11,58H9V56h2Zm0-4H9V52h2Zm0-4H9V48h2Zm0-4H9V44h2Zm0-4H9V40h2Zm0-4H9V36h2Zm4,20H13V56h2Zm4,0H17V56h2Zm4,0H21V56h2Zm4,0H25V56h2Zm4,0H29V56h2Zm1.01-16.88-.67,1.76a7.057,7.057,0,0,1-6.55,4.49,6.559,6.559,0,0,1-1.08-.09L23,47.17V54H21V47.17l-.71.11a6.559,6.559,0,0,1-1.08.09,7.057,7.057,0,0,1-6.55-4.49l-.67-1.76a1,1,0,0,1,.06-.86,1.052,1.052,0,0,1,.71-.49l1.87-.29A7,7,0,0,1,22,43.35a7,7,0,0,1,7.37-3.87l1.87.29a1.052,1.052,0,0,1,.71.49A1,1,0,0,1,32.01,41.12ZM35,58H33V56h2Zm0-4H33V52h2Zm0-4H33V48h2Zm0-4H33V44h2Zm0-4H33V40h2Zm0-4H33V36h2Z"></path><path d="M46,60H56a1,1,0,0,0,1-1V49.3L53.46,44H52v4h2v2H48V48h2V44H48.54L45,49.3V59A1,1,0,0,0,46,60Z"></path><path d="M52,44H50V17.5a13.5,13.5,0,0,0-27,0V20H21V17.5a15.5,15.5,0,0,1,31,0Z"></path></g></svg>