<svg xmlns="http://www.w3.org/2000/svg" viewBox="0 0 64 64" x="0px" y="0px"><title>Finger-Touch</title><g><path d="M32,20a2,2,0,0,0-2,2v1h4V22A2,2,0,0,0,32,20Z"></path><path d="M27,26.224V33a1,1,0,0,0,1,1h8a1,1,0,0,0,1-1V26.224a8,8,0,1,0-10,0ZM35,32H29V22a3,3,0,0,1,6,0ZM32,14a5.994,5.994,0,0,1,5,9.309V22a5,5,0,0,0-10,0v1.309A5.994,5.994,0,0,1,32,14Z"></path><rect x="30" y="27" width="4" height="2"></rect><path d="M59,2H5A3,3,0,0,0,2,5V45a3,3,0,0,0,3,3H22.9l-.8,8H19a1,1,0,0,0-1,1v3H16v2H48V60H46V57a1,1,0,0,0-1-1H41.905l-.8-8H59a3,3,0,0,0,3-3V5A3,3,0,0,0,59,2ZM44,58v2H20V58ZM24.105,56l.8-8H39.1l.8,8ZM60,45a1,1,0,0,1-1,1H5a1,1,0,0,1-1-1V5A1,1,0,0,1,5,4H59a1,1,0,0,1,1,1Z"></path><path d="M56,6H8A2,2,0,0,0,6,8V39a1,1,0,0,0,1,1H57a1,1,0,0,0,1-1V8A2,2,0,0,0,56,6Zm0,32H8V8H56Z"></path><rect x="31" y="42" width="2" height="2"></rect></g></svg>