<svg xmlns="http://www.w3.org/2000/svg" viewBox="0 0 64 64" x="0px" y="0px"><title>Time-Package-Box-Clock</title><rect x="29" y="10" width="2" height="2"></rect><rect x="15.565" y="15.564" width="2" height="2.001" transform="translate(-6.861 16.565) rotate(-45)"></rect><rect x="10" y="29" width="2" height="2"></rect><rect x="15.564" y="42.435" width="2.001" height="2" transform="translate(-25.861 24.435) rotate(-45)"></rect><rect x="29" y="48" width="2" height="2"></rect><rect x="48" y="29" width="2" height="2"></rect><rect x="42.434" y="15.565" width="2.001" height="2" transform="translate(1.009 35.565) rotate(-45)"></rect><path d="M31,26.758V15H29V26.758L26.758,29H17v2h9.758l2.535,2.535a1,1,0,0,0,1.414,0l2.828-2.828a1,1,0,0,0,0-1.414Zm-1,4.656L28.586,30,30,28.586,31.414,30Z"></path><path d="M61.832,38.445,57.875,32.51c.076-.84.125-1.682.125-2.51A28,28,0,1,0,30,58c.661,0,1.33-.033,2-.082V59a3,3,0,0,0,3,3H59a3,3,0,0,0,3-3V39A1.006,1.006,0,0,0,61.832,38.445ZM43,43H34V40h9Zm8.9-11H37a1,1,0,0,0-.832.445l-4,6A1.006,1.006,0,0,0,32,39V51.9c-.671.062-1.341.1-2,.1A22,22,0,1,1,52,30C52,30.659,51.957,31.329,51.9,32ZM45,40h4v7.132l-1.445-.964a1,1,0,0,0-1.11,0L45,47.132Zm6,0h9v3H51ZM34.868,38l2.667-4h18.93l2.667,4ZM30,56A26,26,0,1,1,56,30c0,.66-.036,1.33-.089,2H53.9c.057-.671.1-1.34.1-2A24,24,0,1,0,30,54c.66,0,1.329-.039,2-.1v2.007C31.33,55.964,30.66,56,30,56Zm29,4H35a1,1,0,0,1-1-1V45h9v4a1,1,0,0,0,1.555.832L47,48.2l2.445,1.63A1,1,0,0,0,51,49V45h9V59A1,1,0,0,1,59,60Z"></path></svg>