<svg xmlns="http://www.w3.org/2000/svg" viewBox="0 0 64 64" x="0px" y="0px"><g data-name="Presentation"><rect x="14" y="34" width="6" height="4"></rect><rect x="44" y="34" width="6" height="4"></rect><rect x="4" y="4" width="56" height="2"></rect><polygon points="29 51.3 29 49.703 20.174 60 21.54 60 29 51.3"></polygon><rect x="4" y="44" width="56" height="2"></rect><rect x="31" y="48" width="2" height="12"></rect><rect x="29" y="34" width="6" height="4"></rect><polygon points="43.826 60 35 49.703 35 51.3 42.46 60 43.826 60"></polygon><circle cx="32" cy="20" r="4"></circle><path d="M57,42V8H7V42ZM31,10h6v2H31Zm-4,0h2v2H27Zm5,4a6,6,0,0,1,1,11.91V28H45a3,3,0,0,1,3,3v1h3a1,1,0,0,1,1,1v6a1,1,0,0,1-1,1H43a1,1,0,0,1-1-1V33a1,1,0,0,1,1-1h3V31a1,1,0,0,0-1-1H33v2h3a1,1,0,0,1,1,1v6a1,1,0,0,1-1,1H28a1,1,0,0,1-1-1V33a1,1,0,0,1,1-1h3V30H19a1,1,0,0,0-1,1v1h3a1,1,0,0,1,1,1v6a1,1,0,0,1-1,1H13a1,1,0,0,1-1-1V33a1,1,0,0,1,1-1h3V31a3,3,0,0,1,3-3H31V25.91A6,6,0,0,1,32,14ZM15,17h6v2H15Zm-4,0h2v2H11Zm0,4H21v2H11Z"></path></g></svg>