<svg xmlns="http://www.w3.org/2000/svg" viewBox="0 0 64 64" x="0px" y="0px"><g><circle cx="8" cy="25" r="1"></circle><path d="M4,43a3,3,0,0,0,3,3h5V18H7a3,3,0,0,0-3,3ZM8,22a3,3,0,1,1-3,3A3,3,0,0,1,8,22Zm2,9v2H8V31ZM5,38H7V36H9v2h2v2H9v2H7V40H5Z"></path><path d="M60,21a3,3,0,0,0-3-3H52V46h5a3,3,0,0,0,3-3ZM59,40H57v2H55V40H53V38h2V36h2v2h2Zm-5-7V31h2v2Zm2-5a3,3,0,1,1,3-3A3,3,0,0,1,56,28Z"></path><rect x="7" y="38" width="2" height="2"></rect><path d="M14,46H50V18H14Zm2-24a2,2,0,0,1,2-2H46a2,2,0,0,1,2,2V42a2,2,0,0,1-2,2H18a2,2,0,0,1-2-2Z"></path><circle cx="56" cy="25" r="1"></circle><rect x="55" y="38" width="2" height="2"></rect><path d="M46,22H18V42H46ZM44,33H42V31h2Zm0-4H42V26H39V24h3a2,2,0,0,1,2,2Z"></path></g></svg>