<svg xmlns="http://www.w3.org/2000/svg" viewBox="0 0 64 64" x="0px" y="0px"><g data-name="coffee cup-coffee mug-espresso-drink-coffee"><path d="M18.67,47l1.16,12.1a.99.99,0,0,0,.99.9H43.18a.991.991,0,0,0,.99-.91L45.33,47Z"></path><polygon points="47.23 27 47.9 20 16.1 20 16.77 27 47.23 27"></polygon><path d="M13.91,29l2.14,16h31.9l2.14-16ZM19,43H17V31h2Zm4,0H21V31h2Zm4,0H25V31h2Zm4,0H29V31h2Zm4,0H33V31h2Zm4,0H37V31h2Zm4,0H41V31h2Zm4,0H45V31h2Z"></path><rect x="14" y="14" width="36" height="4"></rect><path d="M46.84,4.46a.971.971,0,0,0-.75-.2L18.37,7.83a1,1,0,0,0-.82.68L16.39,12H47.9l-.69-6.85A1.031,1.031,0,0,0,46.84,4.46Z"></path></g></svg>