<svg xmlns="http://www.w3.org/2000/svg" viewBox="0 0 64 64" x="0px" y="0px"><g><rect x="44" y="29" width="4" height="2"></rect><rect x="42.379" y="23.5" width="4.243" height="2" transform="translate(-4.29 38.642) rotate(-45)"></rect><rect x="43.5" y="33.379" width="2" height="4.243" transform="translate(-12.069 41.864) rotate(-45)"></rect><path d="M39,27V22a2.995,2.995,0,0,0-5.9-.716L23.807,25H18a3,3,0,0,0-3,3v4a3,3,0,0,0,3,3v7a3,3,0,0,0,3,3h2a3,3,0,0,0,3-3V35.877l7.1,2.839A2.995,2.995,0,0,0,39,38V33a3,3,0,0,0,0-6Zm-14-.323,8-3.2V36.523l-8-3.2ZM21,27h2v6H21Zm-4,5V28a1,1,0,0,1,1-1h1v6H18A1,1,0,0,1,17,32Zm7,10a1,1,0,0,1-1,1H21a1,1,0,0,1-1-1V35h3.807l.193.077Zm13-4a1,1,0,0,1-2,0V22a1,1,0,0,1,2,0Zm2-7V29a1,1,0,0,1,0,2Z"></path><path d="M62,31H59.975A28.027,28.027,0,0,0,33,4.025V2H31V4.025A28.027,28.027,0,0,0,4.025,31H2v2H4.025A28.027,28.027,0,0,0,31,59.975V62h2V59.975A28.027,28.027,0,0,0,59.975,33H62Zm-4.025,0h-2A24.027,24.027,0,0,0,33,8.025v-2A26.027,26.027,0,0,1,57.975,31Zm-4,2A22.026,22.026,0,0,1,33,53.975V52H31v1.975A22.026,22.026,0,0,1,10.025,33H12V31H10.025A22.026,22.026,0,0,1,31,10.025V12h2V10.025A22.026,22.026,0,0,1,53.975,31H52v2ZM31,6.025v2A24.027,24.027,0,0,0,8.025,31h-2A26.027,26.027,0,0,1,31,6.025ZM6.025,33h2A24.027,24.027,0,0,0,31,55.975v2A26.027,26.027,0,0,1,6.025,33ZM33,57.975v-2A24.027,24.027,0,0,0,55.975,33h2A26.027,26.027,0,0,1,33,57.975Z"></path></g></svg>