<svg xmlns="http://www.w3.org/2000/svg" viewBox="0 0 64 64" x="0px" y="0px"><g><rect x="8.624" y="17.021" width="4" height="2" transform="translate(-9.631 12.79) rotate(-45)"></rect><rect x="6.088" y="20.557" width="2" height="2" transform="translate(-13.167 11.326) rotate(-45)"></rect><rect x="17.109" y="22.678" width="4" height="2" transform="translate(-11.146 20.447) rotate(-45)"></rect><rect x="14.574" y="26.213" width="2" height="2" transform="translate(-14.683 18.988) rotate(-45.01)"></rect><rect x="43.98" y="52.376" width="4" height="2" transform="translate(-24.276 48.146) rotate(-45)"></rect><rect x="41.443" y="55.912" width="2" height="2" transform="translate(-27.811 46.681) rotate(-45)"></rect><rect x="38.322" y="43.891" width="4" height="2" transform="translate(-19.933 41.666) rotate(-45.005)"></rect><rect x="35.787" y="47.426" width="2" height="2" transform="translate(-23.468 40.196) rotate(-45)"></rect><path d="M56.61,13.7l.57-1.07a3.971,3.971,0,0,0-.69-4.73l-.39-.39a4.012,4.012,0,0,0-2.84-1.17,3.962,3.962,0,0,0-1.89.48l-1.07.57a29.1,29.1,0,0,0-8.17,6.54L10.79,50.09a2.017,2.017,0,0,0,.1,2.73l.29.29a2.017,2.017,0,0,0,2.73.1L50.07,21.87A29.1,29.1,0,0,0,56.61,13.7Zm-42.9,38.007-1.414-1.414,7-7,1.414,1.414ZM47.1,11.243l1.414-1.414a1,1,0,0,1,.9-.274l3.536.707a1,1,0,0,1,.784.784l.707,3.536a1,1,0,0,1-.273.9L52.757,16.9a1,1,0,0,1-1.414,0L47.1,12.657A1,1,0,0,1,47.1,11.243Z"></path><polygon points="60.02 49.24 48.17 26.15 41.02 32.35 44.452 36.927 42.44 39.94 45.27 42.77 47.644 41.184 50.443 44.916 48.1 48.43 50.93 51.25 53.776 49.361 56.4 52.86 60.02 49.24"></polygon><polygon points="52.379 14.449 51.908 12.093 49.551 11.621 49.222 11.95 52.05 14.778 52.379 14.449"></polygon><polygon points="17.41 52.81 22.48 59.91 24.07 58.32 21.65 49.14 17.41 52.81"></polygon><polygon points="14.86 42.35 5.68 39.93 4.09 41.52 11.19 46.59 14.86 42.35"></polygon><polygon points="12.75 13.07 15.57 15.9 19.084 13.557 22.816 16.355 21.23 18.73 24.06 21.56 27.073 19.548 31.65 22.98 37.85 15.83 14.76 3.98 11.14 7.6 14.639 10.224 12.75 13.07"></polygon></g></svg>