<svg xmlns="http://www.w3.org/2000/svg" viewBox="0 0 64 64" x="0px" y="0px"><g data-name="Mobile Shopping-Basket-Mobile-Payment-Smartphone"><rect x="21" y="6" width="2" height="2"></rect><rect x="25" y="6" width="8" height="2"></rect><path d="M57,46a3.94,3.94,0,0,0-2.57.94A4.012,4.012,0,0,0,51,45a3.94,3.94,0,0,0-2.57.94A4,4,0,0,0,47,44.54V9a7.008,7.008,0,0,0-7-7H18a7.008,7.008,0,0,0-7,7V27.26A4.983,4.983,0,0,0,8.02,29.9L4.01,38.59A10.843,10.843,0,0,0,3,43.2V62H5V43.2a8.863,8.863,0,0,1,.83-3.77l4.01-8.69A2.911,2.911,0,0,1,11,29.47V47a6.5,6.5,0,0,0,.08.99l-.64,1.11,1.73,1,6-10.39a2,2,0,0,1,1.21-.94,2.06,2.06,0,0,1,1.52.2,2.012,2.012,0,0,1,.73,2.74l-4.5,7.79a1.031,1.031,0,0,0,.01,1.02l2.15,3.56A5.074,5.074,0,0,1,20,56.65v5.34h2V56.65A7.078,7.078,0,0,0,21.47,54h6.07a4.287,4.287,0,0,0,.4,1.04l4.31,7.46,1.73-1-4.31-7.46a2.018,2.018,0,0,1,.73-2.74,2.066,2.066,0,0,1,1.52-.2,1.942,1.942,0,0,1,1.21.94l2,3.46a1.022,1.022,0,0,0,1.13.47A1,1,0,0,0,37,55V38a2,2,0,0,1,4,0V52a1,1,0,0,0,2,0V48a2,2,0,0,1,4,0v4a1,1,0,0,0,2,0V49a2,2,0,0,1,4,0v3a1,1,0,0,0,2,0V50a2,2,0,0,1,4,0V62h2V50A4,4,0,0,0,57,46ZM31,48H27a1,1,0,0,1,0-2h4a1,1,0,0,1,0,2Zm5.21-15.83A2.994,2.994,0,0,1,33.22,35H24.78a3,3,0,0,1-2.99-2.87L21.1,25H36.9ZM19,23a1,1,0,0,1-1-1,.949.949,0,0,1,.31-.71A.928.928,0,0,1,19,21h1.92l.36,2Zm3.23-6.2a1,1,0,0,1,.84-.98.985.985,0,0,1,.73.16,1.045,1.045,0,0,1,.42.66L25.34,23H23.31l-1.06-6.01A1.366,1.366,0,0,1,22.23,16.8ZM27.02,21h3.96l-.35,2H27.37Zm5.64,2,1.13-6.37a1,1,0,0,1,.41-.65,1.02,1.02,0,0,1,.74-.16,1,1,0,0,1,.83.98,1.1,1.1,0,0,1-.02.18L34.69,23Zm4.06,0,.36-2H39a1,1,0,0,1,1,1,.949.949,0,0,1-.31.71A.928.928,0,0,1,39,23ZM45,44a3.989,3.989,0,0,0-2,.54V38a4,4,0,0,0-4-4,3.906,3.906,0,0,0-1.32.24,4.822,4.822,0,0,0,.53-1.92l.7-7.32H39a3,3,0,0,0,3-3,3.009,3.009,0,0,0-3-3H37.43l.3-1.69a2.848,2.848,0,0,0,.04-.51,2.992,2.992,0,0,0-2.48-2.94,2.9,2.9,0,0,0-2.23.48,2.948,2.948,0,0,0-1.24,1.94L31.34,19H26.66l-.47-2.71a3,3,0,0,0-1.25-1.95,2.931,2.931,0,0,0-2.22-.49,3.027,3.027,0,0,0-2.45,3.47l.3,1.68H19a3,3,0,0,0-3,3,3.009,3.009,0,0,0,3,3h.09l.7,7.28A5,5,0,0,0,24.78,37h8.44a5.135,5.135,0,0,0,2.07-.46A3.918,3.918,0,0,0,35,38V51.27l-.13-.23a3.955,3.955,0,0,0-2.01-1.71A2.968,2.968,0,0,0,34,47a3.009,3.009,0,0,0-3-3H27a3,3,0,0,0,0,6h1.81a3.962,3.962,0,0,0-1.27,2H20.37l-1.21-2.01,4.21-7.28a4,4,0,0,0-1.47-5.47,4,4,0,0,0-5.46,1.47L13,44.66V9a5,5,0,0,1,5-5H40a5,5,0,0,1,5,5Z"></path><rect x="31" y="27" width="2" height="6"></rect><rect x="25" y="27" width="2" height="6"></rect></g></svg>