<svg xmlns="http://www.w3.org/2000/svg" viewBox="0 0 64 64" x="0px" y="0px"><g data-name="Cloud-Server-Cloud Computing-Data-Storage"><path d="M25,41.6V46c0,.58,2.45,2,7,2s7-1.42,7-2V41.6A15.9,15.9,0,0,1,32,43,15.9,15.9,0,0,1,25,41.6ZM29,46H27V44h2Zm4,1H31V45h2Z"></path><ellipse cx="32" cy="39" rx="7" ry="2"></ellipse><path d="M25,48.6V53c0,.58,2.45,2,7,2s7-1.42,7-2V48.6A15.9,15.9,0,0,1,32,50,15.9,15.9,0,0,1,25,48.6ZM29,53H27V51h2Zm4,1H31V52h2Z"></path><path d="M50.83,20.17a1.007,1.007,0,0,1-.84-.99c0-.03.01-.14.01-.17a8.008,8.008,0,0,0-10.35-7.66.984.984,0,0,1-1.18-.48A13,13,0,0,0,14,17a13.276,13.276,0,0,0,.17,2,1.021,1.021,0,0,1-.18.74,1,1,0,0,1-.66.4A10.993,10.993,0,0,0,15,42h1.53a15.972,15.972,0,0,1,30.94,0H49a10.991,10.991,0,0,0,1.83-21.83ZM27,9a8.009,8.009,0,0,0-8,8H17A10.011,10.011,0,0,1,27,7ZM49,39V37a6.006,6.006,0,0,0,6-6h2A8.009,8.009,0,0,1,49,39Z"></path><path d="M32,32A14,14,0,1,0,46,46,14.015,14.015,0,0,0,32,32Zm9,21c0,2.63-4.53,4-9,4s-9-1.37-9-4V39c0-2.63,4.53-4,9-4s9,1.37,9,4Z"></path></g></svg>