<svg xmlns="http://www.w3.org/2000/svg" viewBox="0 0 64 64" x="0px" y="0px"><g><path d="M35.02,24.8l-.355,1.774a9.99,9.99,0,0,0-.971.4l-1.5-1a1,1,0,0,0-1.262.125L28.1,28.929a1,1,0,0,0-.125,1.262l1,1.5a9.99,9.99,0,0,0-.4.971L26.8,33.02A1,1,0,0,0,26,34v4a1,1,0,0,0,.8.98l1.774.355a9.99,9.99,0,0,0,.4.971l-1,1.5a1,1,0,0,0,.125,1.262L30.929,45.9a1,1,0,0,0,1.262.125l1.5-1a9.99,9.99,0,0,0,.971.4L35.02,47.2A1,1,0,0,0,36,48h4a1,1,0,0,0,.98-.8l.355-1.774a9.99,9.99,0,0,0,.971-.4l1.5,1a1,1,0,0,0,1.262-.125L47.9,43.071a1,1,0,0,0,.125-1.262l-1-1.5a9.99,9.99,0,0,0,.4-.971L49.2,38.98A1,1,0,0,0,50,38V34a1,1,0,0,0-.8-.98l-1.774-.355a9.99,9.99,0,0,0-.4-.971l1-1.5a1,1,0,0,0-.125-1.262L45.071,26.1a1,1,0,0,0-1.262-.125l-1.5,1a9.99,9.99,0,0,0-.971-.4L40.98,24.8A1,1,0,0,0,40,24H36A1,1,0,0,0,35.02,24.8Zm1.49,2.744L36.82,26h2.36l.31,1.548a1,1,0,0,0,.706.765,8,8,0,0,1,1.689.7,1,1,0,0,0,1.041-.041l1.31-.874,1.67,1.67-.874,1.31a1,1,0,0,0-.041,1.041,8,8,0,0,1,.7,1.689,1,1,0,0,0,.765.706L48,34.82v2.36l-1.548.31a1,1,0,0,0-.765.706,8,8,0,0,1-.7,1.689,1,1,0,0,0,.041,1.041l.874,1.31-1.67,1.67-1.31-.874a1,1,0,0,0-1.041-.041,8,8,0,0,1-1.689.7,1,1,0,0,0-.706.765L39.18,46H36.82l-.31-1.548a1,1,0,0,0-.706-.765,8,8,0,0,1-1.689-.7,1,1,0,0,0-1.041.041l-1.31.874-1.67-1.67.874-1.31a1,1,0,0,0,.041-1.041,8,8,0,0,1-.7-1.689,1,1,0,0,0-.765-.706L28,37.18V34.82l1.548-.31a1,1,0,0,0,.765-.706,8,8,0,0,1,.7-1.689,1,1,0,0,0-.041-1.041l-.874-1.31,1.67-1.67,1.31.874a1,1,0,0,0,1.041.041,8,8,0,0,1,1.689-.7A1,1,0,0,0,36.51,27.548Z"></path><path d="M38,37a1,1,0,1,1-1,1H35a3,3,0,0,0,2,2.816V42h2V40.816A2.993,2.993,0,0,0,38,35a1,1,0,1,1,1-1h2a3,3,0,0,0-2-2.816V30H37v1.184A2.993,2.993,0,0,0,38,37Z"></path><rect x="31" y="35" width="2" height="2"></rect><rect x="43" y="35" width="2" height="2"></rect><rect x="18" y="11" width="2" height="2"></rect><rect x="22" y="11" width="2" height="2"></rect><rect x="26" y="11" width="2" height="2"></rect><rect x="30" y="11" width="2" height="2"></rect><path d="M58,36A20.035,20.035,0,0,0,44,16.922V7a5.006,5.006,0,0,0-5-5H11A5.006,5.006,0,0,0,6,7V57a5.006,5.006,0,0,0,5,5H39a5.006,5.006,0,0,0,5-5V55.078A20.035,20.035,0,0,0,58,36Zm-2,0A18,18,0,1,1,38,18,18.021,18.021,0,0,1,56,36ZM18,4H32V6a1,1,0,0,1-1,1H19a1,1,0,0,1-1-1ZM42,57a3,3,0,0,1-3,3H11a3,3,0,0,1-3-3V7a3,3,0,0,1,3-3h5V6a3,3,0,0,0,3,3H31a3,3,0,0,0,3-3V4h5a3,3,0,0,1,3,3v9.4A20,20,0,1,0,42,55.6Z"></path><rect x="22.216" y="17.381" width="2" height="2" transform="translate(-6.383 19.223) rotate(-39.999)"></rect><rect x="19.381" y="20.216" width="2" height="2" transform="translate(-8.972 23.197) rotate(-50.012)"></rect><rect x="17.081" y="23.5" width="2" height="2" transform="translate(-12.177 27.908) rotate(-59.998)"></rect><rect x="15.387" y="27.134" width="1.999" height="2" transform="translate(-15.655 33.909) rotate(-69.999)"></rect><rect x="14.35" y="31.006" width="2" height="2" transform="translate(-18.835 41.567) rotate(-80.004)"></rect><rect x="14" y="35" width="2" height="2"></rect><rect x="14.35" y="38.994" width="2" height="2" transform="translate(-6.709 3.271) rotate(-9.996)"></rect><rect x="15.387" y="42.867" width="2" height="1.999" transform="translate(-14.019 8.253) rotate(-20.006)"></rect><rect x="17.081" y="46.5" width="2" height="2" transform="translate(-21.329 15.406) rotate(-30.002)"></rect><rect x="19.381" y="49.784" width="2" height="2" transform="translate(-27.87 24.972) rotate(-39.988)"></rect><rect x="22.216" y="52.619" width="2" height="2" transform="translate(-32.785 36.949) rotate(-50.012)"></rect><rect x="25.5" y="54.919" width="2" height="2" transform="translate(-35.177 50.915) rotate(-60.005)"></rect><rect x="54.619" y="20.216" width="2" height="2" transform="translate(-0.629 40.703) rotate(-39.988)"></rect><rect x="56.919" y="23.5" width="2" height="2" transform="translate(-4.49 32.244) rotate(-30.002)"></rect><rect x="58.613" y="27.134" width="2" height="1.999" transform="translate(-6.028 22.092) rotate(-20.006)"></rect><rect x="59.65" y="31.006" width="2" height="2" transform="translate(-4.635 11.013) rotate(-9.996)"></rect><rect x="60" y="35" width="2" height="2"></rect><rect x="59.65" y="38.994" width="2" height="2" transform="translate(10.736 92.782) rotate(-80.004)"></rect><rect x="58.613" y="42.867" width="1.999" height="2" transform="translate(-1.997 84.88) rotate(-69.999)"></rect><rect x="56.919" y="46.5" width="2" height="2" transform="translate(-12.178 73.907) rotate(-59.998)"></rect><rect x="54.619" y="49.784" width="2" height="2" transform="matrix(0.643, -0.766, 0.766, 0.643, -19.035, 60.749)"></rect><polygon points="53 10 55 10 55 8 57 8 57 6 55 6 55 4 53 4 53 6 51 6 51 8 53 8 53 10"></polygon><rect x="46" y="12" width="6" height="2"></rect><rect x="51" y="16" width="6" height="2"></rect><polygon points="52 54 50 54 50 56 48 56 48 58 50 58 50 60 52 60 52 58 54 58 54 56 52 56 52 54"></polygon></g></svg>