<svg xmlns="http://www.w3.org/2000/svg" viewBox="0 0 64 64" x="0px" y="0px"><g><rect x="14" y="52" width="4" height="4"></rect><rect x="14" y="46" width="4" height="4"></rect><rect x="14" y="40" width="4" height="4"></rect><rect x="8" y="40" width="4" height="4"></rect><rect x="8" y="46" width="4" height="4"></rect><rect x="20" y="40" width="4" height="4"></rect><path d="M24,28H8v6H24ZM13,32H11V30h2Zm4,0H15V30h2Zm4,0H19V30h2Z"></path><rect x="20" y="52" width="4.001" height="4"></rect><rect x="20" y="46" width="4" height="4"></rect><path d="M60,22a1,1,0,0,0-1-1H56v6h4Z"></path><path d="M20,20h4V14H21a1,1,0,0,0-1,1Z"></path><path d="M43.81,20.42,48.51,27H54V4H26V20H43A1,1,0,0,1,43.81,20.42ZM30,8H50v2H30Zm0,4H50v2H30Zm0,4H50v2H30Z"></path><path d="M59,49a1,1,0,0,0,1-1V29H48a1,1,0,0,1-.81-.42L42.49,22H27a3.009,3.009,0,0,1,3,3V49Z"></path><path d="M5,60H27a1,1,0,0,0,1-1V25a1,1,0,0,0-1-1H5a1,1,0,0,0-1,1V59A1,1,0,0,0,5,60ZM6,28a2,2,0,0,1,2-2H24a2,2,0,0,1,2,2v6a2,2,0,0,1-2,2H8a2,2,0,0,1-2-2ZM6,40a2,2,0,0,1,2-2H24a2,2,0,0,1,2,2V56a2,2,0,0,1-2,2H8a2,2,0,0,1-2-2Z"></path><rect x="8" y="52" width="4" height="4"></rect></g></svg>