<svg xmlns="http://www.w3.org/2000/svg" viewBox="0 0 48 48" x="0px" y="0px"><title>Online-Lerning_1</title><g data-name="Online-Lerning"><path d="M44,22.122a3.1,3.1,0,0,0-2.492-3.08,3.019,3.019,0,0,0-1.637.18,2.971,2.971,0,0,0-4.806-1.512L35,17.767a3.111,3.111,0,0,0-3-.6V14a3.005,3.005,0,0,0-3.508-2.958A3.1,3.1,0,0,0,26,14.122v16.8l-4.657-4.658a3.006,3.006,0,0,0-4.563.385,3.08,3.08,0,0,0,.395,3.936L26,39.414V41a1.973,1.973,0,0,0,.1.583A.99.99,0,0,0,26,42v4a1,1,0,0,0,1,1H43a1,1,0,0,0,1-1V42a1,1,0,0,0-1-1h-.026A4.948,4.948,0,0,0,44,38ZM42,45H28V43H42ZM28,41V39a1,1,0,0,0-.293-.707l-9.118-9.118a1.082,1.082,0,0,1-.187-1.353,1,1,0,0,1,.735-.424q.042,0,.084,0a1.014,1.014,0,0,1,.712.292l6.36,6.36A1,1,0,0,0,28,33.34V14.122a1.1,1.1,0,0,1,.824-1.107A1,1,0,0,1,30,14V27h2V20a1,1,0,0,1,2,0v6h2V20a1,1,0,0,1,1.176-.985A1.1,1.1,0,0,1,38,20.122V25h2V22a1,1,0,0,1,1.176-.985A1.1,1.1,0,0,1,42,22.122V38a3,3,0,0,1-3,3Z"></path><path d="M6,44.087V3.913A.921.921,0,0,1,6.926,3H29.074A.921.921,0,0,1,30,3.913V9.652h2V3.913A2.923,2.923,0,0,0,29.074,1H6.926A2.923,2.923,0,0,0,4,3.913V44.087A2.923,2.923,0,0,0,6.926,47H24V45H6.926A.921.921,0,0,1,6,44.087Z"></path><rect x="8" y="9" width="19" height="2"></rect><rect x="10" y="5" width="11" height="2"></rect><rect x="23" y="5" width="4" height="2"></rect><path d="M8,14v4h2V15h3V13H9A1,1,0,0,0,8,14Z"></path><rect x="8" y="37" width="14" height="2"></rect><rect x="17" y="41" width="2" height="2"></rect></g></svg>