<svg xmlns="http://www.w3.org/2000/svg" viewBox="0 0 64 64" x="0px" y="0px"><g data-name="Cloud-Cloud Computing-Setting-Preferences-Gear"><path d="M60,31a10.949,10.949,0,0,0-9.17-10.83,1,1,0,0,1-.84-.99c0-.03.01-.14.01-.17a8.008,8.008,0,0,0-10.35-7.66.984.984,0,0,1-1.18-.48,12.977,12.977,0,0,0-24.3,8.12,1.035,1.035,0,0,1-.18.75,1,1,0,0,1-.66.4A10.99,10.99,0,0,0,14,41.95V41a1,1,0,0,1,.86-.99l3.9-.56a14.937,14.937,0,0,1,.66-1.6L17.06,34.7a1,1,0,0,1,.09-1.31l4.24-4.24a1,1,0,0,1,1.31-.09l3.15,2.36a14.937,14.937,0,0,1,1.6-.66l.56-3.9A1,1,0,0,1,29,26h6a1,1,0,0,1,.99.86l.56,3.9a14.937,14.937,0,0,1,1.6.66l3.15-2.36a1,1,0,0,1,1.31.09l4.24,4.24a1,1,0,0,1,.09,1.31l-2.36,3.15a14.937,14.937,0,0,1,.66,1.6l3.9.56A1,1,0,0,1,50,41v.95A11.011,11.011,0,0,0,60,31ZM27,9a8.009,8.009,0,0,0-8,8H17A10.011,10.011,0,0,1,27,7ZM49,39V37a6.006,6.006,0,0,0,6-6h2A8.009,8.009,0,0,1,49,39Z"></path><circle cx="32" cy="44" r="6"></circle><path d="M25.15,54.6a1.046,1.046,0,0,1,1.09-.08,11.78,11.78,0,0,0,2.39.99.987.987,0,0,1,.71.82L29.87,60h4.26l.53-3.67a.987.987,0,0,1,.71-.82,11.78,11.78,0,0,0,2.39-.99,1.046,1.046,0,0,1,1.09.08l2.96,2.22,3.01-3.01L42.6,50.85a1.046,1.046,0,0,1-.08-1.09,11.78,11.78,0,0,0,.99-2.39.987.987,0,0,1,.82-.71L48,46.13V41.87l-3.67-.53a.987.987,0,0,1-.82-.71,11.78,11.78,0,0,0-.99-2.39,1.046,1.046,0,0,1,.08-1.09l2.22-2.96-3.01-3.01L38.85,33.4a1.046,1.046,0,0,1-1.09.08,11.78,11.78,0,0,0-2.39-.99.987.987,0,0,1-.71-.82L34.13,28H29.87l-.53,3.67a.987.987,0,0,1-.71.82,11.78,11.78,0,0,0-2.39.99,1.046,1.046,0,0,1-1.09-.08l-2.96-2.22-3.01,3.01,2.22,2.96a1.046,1.046,0,0,1,.08,1.09,11.78,11.78,0,0,0-.99,2.39.987.987,0,0,1-.82.71L16,41.87v4.26l3.67.53a.987.987,0,0,1,.82.71,11.78,11.78,0,0,0,.99,2.39,1.046,1.046,0,0,1-.08,1.09l-2.22,2.96,3.01,3.01ZM43,43h2v2H43ZM21,45H19V43h2ZM33,57H31V55h2Zm7.485-3.1-1.414-1.414,1.414-1.414L41.9,52.485Zm0-19.8L41.9,35.515l-1.414,1.414-1.414-1.414ZM31,31h2v2H31Zm1,5a8,8,0,1,1-8,8A8.009,8.009,0,0,1,32,36Zm-8.485-1.9,1.414,1.414-1.414,1.414L22.1,35.515Zm0,16.97,1.414,1.414L23.515,53.9,22.1,52.485Z"></path></g></svg>