<svg xmlns="http://www.w3.org/2000/svg" viewBox="0 0 64 64" x="0px" y="0px"><g><path d="M10,25v8.723l2.287,3.811a.987.987,0,0,0,1.8-.252l1.153-4.3a2.981,2.981,0,0,1,1.4-1.822A2.921,2.921,0,0,1,17,30.993V17H13a3,3,0,0,0-3,3Z"></path><path d="M20,31.41A2.838,2.838,0,0,1,21.03,33H35.586L31.5,28.914l-1.793,1.793a1,1,0,0,1-1.414,0L27,29.414l-1.293,1.293a1,1,0,0,1-1.414,0L22.5,28.914Z"></path><path d="M26.293,27.293a1,1,0,0,1,1.414,0L29,28.586,30.086,27.5,27,24.414,23.914,27.5,25,28.586Z"></path><rect x="58" y="27" width="2" height="10"></rect><path d="M14,60V52.889a9.05,9.05,0,0,1,.95-4.025l1.522-3.044A5.036,5.036,0,0,0,17,43.583V42.79a6.978,6.978,0,0,1,.239-1.812L19.1,34.014a1,1,0,0,0-.707-1.225,1,1,0,0,0-.758.1.989.989,0,0,0-.466.607L16.02,37.8A3.032,3.032,0,0,1,13.1,40.014a2.969,2.969,0,0,1-2.525-1.451L8.143,34.515A1,1,0,0,1,8,34V26.1A5.008,5.008,0,0,0,4,31V42.528a1.027,1.027,0,0,0,.105.448L5.684,46.13A3.022,3.022,0,0,1,6,47.472V60Z"></path><path d="M51,33V30.414l-3.5-3.5-1.793,1.793a1,1,0,0,1-1.414,0L43,27.414l-1.293,1.293a1,1,0,0,1-1.414,0L38.5,26.914,35.414,30l3,3Z"></path><path d="M60,20a3,3,0,0,0-3-3H53V34a1,1,0,0,1-1,1H20.911L19.17,41.5A5.052,5.052,0,0,0,19,42.79v.793A7.019,7.019,0,0,1,18.567,46H57a3,3,0,0,0,3-3V39H58a2,2,0,0,1-2-2V27a2,2,0,0,1,2-2h2Z"></path><path d="M42.293,25.293a1,1,0,0,1,1.414,0L45,26.586,46.086,25.5,43,22.414,39.914,25.5,41,26.586Z"></path><circle cx="41" cy="14" r="1"></circle><path d="M51,9H19V29.586l7.293-7.293a1,1,0,0,1,1.414,0L34,28.586l8.293-8.293a1,1,0,0,1,1.414,0L51,27.586ZM27,17H23V15h4Zm4,0H29V15h2Zm10,0a3,3,0,1,1,3-3A3,3,0,0,1,41,17Z"></path></g></svg>