<svg xmlns="http://www.w3.org/2000/svg" viewBox="0 0 64 64" x="0px" y="0px"><g><path d="M16,28a1,1,0,0,1-1-1,4,4,0,0,0-8,0,1,1,0,0,1-1,1,2,2,0,0,0,0,4H16a2,2,0,0,0,0-4Z"></path><path d="M58,24a1,1,0,0,1-1-1,4,4,0,0,0-8,0,1,1,0,0,1-1,1,2,2,0,0,0,0,4H58a2,2,0,0,0,0-4Z"></path><path d="M37,56h1V47a4.38,4.38,0,0,1,.17-1.27A4.929,4.929,0,0,1,41,42.43V32H40a3.019,3.019,0,0,0-3,3Z"></path><path d="M31,21a4.38,4.38,0,0,1,.17-1.27A4.954,4.954,0,0,1,35,16.11V14H29v8.11A5.1,5.1,0,0,1,31,23Z"></path><path d="M33.1,20.25A2.614,2.614,0,0,0,33,21V56h2V35a4.978,4.978,0,0,1,2-3.99V18H36A2.985,2.985,0,0,0,33.1,20.25Z"></path><polygon points="34 8 33 8 33 2 31 2 31 8 30 8 30 12 34 12 34 8"></polygon><rect x="18" y="58" width="28" height="2"></rect><path d="M24,53a3.009,3.009,0,0,0-3-3H20v6h4Z"></path><path d="M40.1,46.25A2.614,2.614,0,0,0,40,47v9h4V44H43a2.753,2.753,0,0,0-.73.09A2.99,2.99,0,0,0,40.1,46.25Z"></path><path d="M26,53v3h1V41a3.019,3.019,0,0,0-3-3H23V48.42A5.014,5.014,0,0,1,26,53Z"></path><path d="M29,41V56h2V27a2.753,2.753,0,0,0-.09-.73A3,3,0,0,0,28,24H27V37.01A5.006,5.006,0,0,1,29,41Z"></path><rect x="14" y="60" width="36" height="2"></rect></g></svg>