<svg xmlns="http://www.w3.org/2000/svg" viewBox="0 0 64 64" x="0px" y="0px"><g><path d="M4,15a1,1,0,0,1,1-1H47a1,1,0,0,1,1,1V26h2V7a3,3,0,0,0-3-3H5A3,3,0,0,0,2,7V26H4ZM5,6H47a1,1,0,0,1,1,1V8.184A2.966,2.966,0,0,0,47,8H5a2.966,2.966,0,0,0-1,.184V7A1,1,0,0,1,5,6ZM4,11a1,1,0,0,1,1-1H47a1,1,0,0,1,1,1v1.184A2.966,2.966,0,0,0,47,12H5a2.966,2.966,0,0,0-1,.184V11Z"></path><path d="M32.6,27.334a7,7,0,1,0-13.2,0l1.886-.668a5,5,0,1,1,9.432,0Z"></path><path d="M6,17v4H8V18h3V16H7A1,1,0,0,0,6,17Z"></path><path d="M46,21V17a1,1,0,0,0-1-1H41v2h3v3Z"></path><rect x="13" y="24" width="2" height="2"></rect><rect x="37" y="24" width="2" height="2"></rect><path d="M59,28H58V11a3,3,0,0,0-6,0V28H5a3,3,0,0,0-3,3V57a3,3,0,0,0,3,3H59a3,3,0,0,0,3-3V31A3,3,0,0,0,59,28Zm0,2a1,1,0,0,1,1,1H58V30ZM52.071,43.371l2,5a1,1,0,0,0,1.858,0l2-5A1,1,0,0,0,58,43V33h2V55H4V33H52V43A1,1,0,0,0,52.071,43.371ZM54.077,43h1.846L55,45.308ZM55,10a1,1,0,0,1,1,1V41H54V11A1,1,0,0,1,55,10ZM5,30H52v1H4A1,1,0,0,1,5,30ZM59,58H5a1,1,0,0,1-1-1H60A1,1,0,0,1,59,58Z"></path><path d="M18,35a9,9,0,1,0,9,9A9.01,9.01,0,0,0,18,35Zm0,16a7,7,0,1,1,7-7A7.008,7.008,0,0,1,18,51Z"></path><path d="M18,41a1,1,0,0,1,1,1h2a3,3,0,0,0-2-2.816V38H17v1.184A2.993,2.993,0,0,0,18,45a1,1,0,1,1-1,1H15a3,3,0,0,0,2,2.816V50h2V48.816A2.993,2.993,0,0,0,18,43a1,1,0,0,1,0-2Z"></path><rect x="45" y="51" width="10" height="2"></rect><rect x="32" y="42" width="10" height="2"></rect><rect x="44" y="42" width="2" height="2"></rect><rect x="32" y="46" width="14" height="2"></rect></g></svg>