<svg xmlns="http://www.w3.org/2000/svg" viewBox="0 0 64 64" x="0px" y="0px"><g><path d="M36,20v4h1a1,1,0,0,0,1-1v-.184A3,3,0,0,1,36,20Z"></path><path d="M33,18a1,1,0,0,0-1,1v5h2V19A1,1,0,0,0,33,18Z"></path><path d="M24,20v3a1,1,0,0,0,1,1h1V19a1,1,0,0,0-2,0Z"></path><path d="M24,16.184a2.908,2.908,0,0,1,3,.6,2.954,2.954,0,0,1,4,0,2.849,2.849,0,0,1,2.492-.73A7,7,0,0,1,30,10h2a5.006,5.006,0,0,0,5,5,1,1,0,0,1,1,1v4a1,1,0,0,0,2,0V11.236L38.382,8H24Z"></path><rect x="24" y="4" width="14" height="2"></rect><rect x="42" y="42" width="2" height="2"></rect><path d="M29,18a1,1,0,0,0-1,1v5h2V19A1,1,0,0,0,29,18Z"></path><path d="M9,39.434l3.089,1.853A5,5,0,0,0,14.662,42H18V41a1,1,0,0,1,1-1h4a1,1,0,0,1,1,1v1H40V41a1,1,0,0,1,1-1h4a1,1,0,0,1,1,1v1h3.338a5,5,0,0,0,2.572-.713L55,39.434V29H9Z"></path><path d="M20,56H44a1,1,0,0,0,1-1V50H19v5A1,1,0,0,0,20,56Zm15-4h2v2H35Zm-4,0h2v2H31Zm-4,0h2v2H27Z"></path><rect x="20" y="42" width="2" height="2"></rect><path d="M14.662,44a7,7,0,0,1-3.6-1L11,42.966V59a1,1,0,0,0,1,1H52a1,1,0,0,0,1-1V42.966L52.939,43a7,7,0,0,1-3.6,1H46v1a1,1,0,0,1-1,1H41a1,1,0,0,1-1-1V44H24v1a1,1,0,0,1-1,1H19a1,1,0,0,1-1-1V44ZM46,48a1,1,0,0,1,1,1v6a3,3,0,0,1-3,3H20a3,3,0,0,1-3-3V49a1,1,0,0,1,1-1Z"></path><path d="M43,19H42v1a2.966,2.966,0,0,1-.184,1H43v6h2V19Z"></path><polygon points="21 19 19 19 19 27 21 27 21 21 22 21 22 20 22 19 21 19"></polygon></g></svg>