<svg xmlns="http://www.w3.org/2000/svg" viewBox="0 0 64 64" x="0px" y="0px"><g data-name="Website Optimizer"><path d="M54.33,46.66a1.022,1.022,0,0,0-.33.75V60H34V55a1,1,0,0,0-1-1H27a3.009,3.009,0,0,1-3-3V44a1,1,0,0,0-1-1H19.08l6.7-8.38A.977.977,0,0,0,26,34a17.011,17.011,0,0,1,5.66-12.66,16.833,16.833,0,0,1,13.26-4.23A17.152,17.152,0,0,1,59.95,32.64,16.9,16.9,0,0,1,54.33,46.66Z"></path><path d="M53,4H5A1,1,0,0,0,4,5v5H54V5A1,1,0,0,0,53,4ZM10,8H8V6h2Zm4,0H12V6h2Zm4,0H16V6h2ZM46,8H24V6H46Z"></path><path d="M4,12V55a1,1,0,0,0,1,1h9.03A4.924,4.924,0,0,1,13,53V47H10.08a2,2,0,0,1-1.56-3.25L15,35.65A19.106,19.106,0,0,1,28.72,17.74l.56,1.92A17.088,17.088,0,0,0,17,36a.977.977,0,0,1-.22.62L10.08,45H14a1,1,0,0,1,1,1v7a3.009,3.009,0,0,0,3,3h6a1,1,0,0,1,1,1v3h7V56H27a5,5,0,0,1-5-5V45H19.08a2,2,0,0,1-1.56-3.25L24,33.65A19.006,19.006,0,0,1,45.14,15.12,18.491,18.491,0,0,1,54,18.57V12Zm6,6H8V16h2Zm4,0H12V16h2Zm4,0H16V16h2Zm4,0H20V16h2Z"></path></g></svg>