<svg xmlns="http://www.w3.org/2000/svg" viewBox="0 0 64 64" x="0px" y="0px"><g data-name="Book-Finance Book-Finance-Money-Dollar"><path d="M50,2H10A1,1,0,0,0,9,3V61a1,1,0,0,0,1,1H50a5,5,0,0,0,5-5V7A5,5,0,0,0,50,2ZM15,60H11V58h4Zm0-4H11V54h4Zm0-4H11V4h4Zm38,5a3.009,3.009,0,0,1-3,3H17V58H50a4.924,4.924,0,0,0,3-1.03Zm0-4a3.009,3.009,0,0,1-3,3H17V54H50a4.924,4.924,0,0,0,3-1.03Zm0-4a3.009,3.009,0,0,1-3,3H17V4H50a3.009,3.009,0,0,1,3,3Z"></path><path d="M47,38H23a1,1,0,0,0-1,1v8a1,1,0,0,0,1,1H47a1,1,0,0,0,1-1V39A1,1,0,0,0,47,38Zm-1,8H24V40H46Z"></path><path d="M34,19h2a1,1,0,0,1,1,1h2a3,3,0,0,0-3-3V16H34v1a3,3,0,0,0,0,6h2a1,1,0,0,1,0,2H34a1,1,0,0,1-1-1H31a3,3,0,0,0,3,3v1h2V27a3,3,0,0,0,0-6H34a1,1,0,0,1,0-2Z"></path><path d="M35,8A14,14,0,1,0,49,22,14.015,14.015,0,0,0,35,8Zm9.847,7.16-1.742,1.006A10.07,10.07,0,0,0,40.834,13.9l1.006-1.742A12.1,12.1,0,0,1,44.847,15.16ZM34,31.949v2a11.894,11.894,0,0,1-4.106-1.1l1-1.735A9.9,9.9,0,0,0,34,31.949Zm2,0a9.9,9.9,0,0,0,3.1-.84l1,1.735A11.894,11.894,0,0,1,36,33.949ZM35,30a8,8,0,1,1,8-8A8.009,8.009,0,0,1,35,30Zm-9.949-9h-2a11.888,11.888,0,0,1,1.105-4.106l1.735,1A9.875,9.875,0,0,0,25.051,21Zm0,2a9.9,9.9,0,0,0,.84,3.1l-1.735,1A11.888,11.888,0,0,1,23.051,23ZM36,12.051v-2a11.894,11.894,0,0,1,4.106,1.105l-1,1.735A9.894,9.894,0,0,0,36,12.051Zm-2,0a9.894,9.894,0,0,0-3.1.84l-1-1.735A11.894,11.894,0,0,1,34,10.051ZM44.949,23h2a11.888,11.888,0,0,1-1.1,4.106l-1.735-1A9.9,9.9,0,0,0,44.949,23Zm0-2a9.875,9.875,0,0,0-.84-3.1l1.735-1A11.888,11.888,0,0,1,46.949,21ZM28.16,12.153,29.166,13.9A10.07,10.07,0,0,0,26.9,16.166L25.153,15.16A12.1,12.1,0,0,1,28.16,12.153ZM25.153,28.84,26.9,27.834a10.07,10.07,0,0,0,2.271,2.271L28.16,31.847A12.1,12.1,0,0,1,25.153,28.84ZM41.84,31.847l-1.006-1.742a10.07,10.07,0,0,0,2.271-2.271l1.742,1.006A12.1,12.1,0,0,1,41.84,31.847Z"></path></g></svg>