<svg xmlns="http://www.w3.org/2000/svg" viewBox="0 0 64 64" x="0px" y="0px"><g data-name="Business Thinking"><path d="M30,22H60V10H30ZM50,11h5.77a1,1,0,0,1,.753.343A1.95,1.95,0,0,0,58,12a1,1,0,0,1,1,1v6a1,1,0,0,1-1,1,1.95,1.95,0,0,0-1.477.657A1,1,0,0,1,55.77,21H50V19h5.354A3.943,3.943,0,0,1,57,18.125v-4.25A3.943,3.943,0,0,1,55.354,13H50Zm-5,0a5,5,0,1,1-5,5A5.006,5.006,0,0,1,45,11ZM31,13a1,1,0,0,1,1-1,1.95,1.95,0,0,0,1.477-.657A1,1,0,0,1,34.23,11H40v2H34.646A3.943,3.943,0,0,1,33,13.875v4.25A3.943,3.943,0,0,1,34.646,19H40v2H34.23a1,1,0,0,1-.753-.343A1.95,1.95,0,0,0,32,20a1,1,0,0,1-1-1Z"></path><circle cx="45" cy="16" r="3"></circle><path d="M46.147,4.338c-.459-.1-.926-.175-1.4-.231l-.276-.027C43.987,4.032,43.5,4,43,4H29.392A17.9,17.9,0,0,0,12.934,15.231L6.385,35H12v9a5.006,5.006,0,0,0,5,5H31v2H26v9H48V49h1a8.994,8.994,0,0,0,9-9V24H29a1,1,0,0,1-1-1V9a1,1,0,0,1,1-1H53.155A14.977,14.977,0,0,0,46.34,4.383C46.275,4.369,46.211,4.352,46.147,4.338ZM17.5,26A4.505,4.505,0,0,1,13,21.5h2a2.5,2.5,0,0,0,5,0h2A4.505,4.505,0,0,1,17.5,26Z"></path></g></svg>