<svg xmlns="http://www.w3.org/2000/svg" viewBox="0 0 64 64" x="0px" y="0px"><g data-name="Alternative Medicine"><path d="M49,6H43a9.01,9.01,0,0,0-9,9v1H33V3H31v9H30V11a9.01,9.01,0,0,0-9-9H15a1,1,0,0,0-1,1V5a9.01,9.01,0,0,0,9,9h8v9H28a2.993,2.993,0,0,0-1,5.816v5L19.059,55.263A5,5,0,0,0,23.747,62H40.253a5,5,0,0,0,4.688-6.737L37,33.82v-5A2.993,2.993,0,0,0,36,23H33V18h8a9.01,9.01,0,0,0,9-9V7A1,1,0,0,0,49,6ZM16,5V4h5a7.009,7.009,0,0,1,7,7v.057l-5.419-3.87L21.419,8.813,25.88,12H23A7.009,7.009,0,0,1,16,5ZM28,25h3v2H28a1,1,0,0,1,0-2Zm.937,9.348A.991.991,0,0,0,29,34V29h2V41.284a7.4,7.4,0,0,1-2.34.316,7.376,7.376,0,0,1-2.3-.306ZM42.715,58.714A2.963,2.963,0,0,1,40.253,60H23.747a3,3,0,0,1-2.813-4.042l4.735-12.785a9.36,9.36,0,0,0,2.991.427A10.038,10.038,0,0,0,31,43.354V56h2V42.715a7.352,7.352,0,0,1,2.33-.315,7.409,7.409,0,0,1,2.9.506l4.834,13.052A2.963,2.963,0,0,1,42.715,58.714ZM37.372,40.583A10.407,10.407,0,0,0,35.33,40.4a9.977,9.977,0,0,0-2.33.245V29h2v5a1.013,1.013,0,0,0,.062.348ZM36,25a1,1,0,0,1,0,2H33V25ZM48,9a7.009,7.009,0,0,1-7,7H38.12l4.461-3.187-1.162-1.626L36,15.057V15a7.009,7.009,0,0,1,7-7h5Z"></path></g></svg>