<svg xmlns="http://www.w3.org/2000/svg" viewBox="0 0 64 64" x="0px" y="0px"><g data-name="Cloud-Cloud Computing-Sent-Transfer-Share"><circle cx="32" cy="24" r="1"></circle><path d="M19.05,15A7,7,0,1,0,19,29H31V26.816a3,3,0,1,1,2,0V29H45a7,7,0,0,0,.79-13.952,1,1,0,0,1-.873-1.17A4.938,4.938,0,0,0,45,13a5.006,5.006,0,0,0-5-5,4.948,4.948,0,0,0-2.161.5,1,1,0,0,1-1.274-.359A8.994,8.994,0,0,0,20,13c0,.3.016.6.045.9a1,1,0,0,1-1,1.1ZM45,25a3,3,0,0,0,3-3h2a5.006,5.006,0,0,1-5,5Zm-4,0h2v2H41ZM29,6V8a5.006,5.006,0,0,0-5,5H22A7.008,7.008,0,0,1,29,6Z"></path><path d="M23.7,50.056a1,1,0,0,1-.824-1.257,2.98,2.98,0,0,0-4.092-3.535,1,1,0,0,1-1.3-.472,5.077,5.077,0,0,0-.48-.77v6.162a3,3,0,1,1-2,0V42.417a5,5,0,0,0-6.644,6.428A1,1,0,0,1,7.69,50.18,5,5,0,0,0,9,60H23a5,5,0,0,0,.7-9.944Z"></path><circle cx="16" cy="53" r="1"></circle><path d="M55.7,50.056a1,1,0,0,1-.824-1.257,2.98,2.98,0,0,0-4.092-3.535,1,1,0,0,1-1.3-.472,5.077,5.077,0,0,0-.48-.77v6.162a3,3,0,1,1-2,0V42.417a5,5,0,0,0-6.644,6.428,1,1,0,0,1-.666,1.335A5,5,0,0,0,41,60H55a5,5,0,0,0,.7-9.944Z"></path><circle cx="48" cy="53" r="1"></circle><path d="M48,36H34.816A3,3,0,0,0,33,34.184V29H31v5.184A3,3,0,0,0,29.184,36H16a1,1,0,0,0-1,1v7h2V38H29.184a2.982,2.982,0,0,0,5.632,0H47v6h2V37A1,1,0,0,0,48,36ZM32,38a1,1,0,1,1,1-1A1,1,0,0,1,32,38Z"></path></g></svg>