<svg xmlns="http://www.w3.org/2000/svg" viewBox="0 0 64 64" x="0px" y="0px"><g data-name="Personal Security"><path d="M28.881,27.093A6.965,6.965,0,0,0,23,34v7a2,2,0,0,0,2,2H39a2,2,0,0,0,2-2V34a7.02,7.02,0,0,0-7-7H30A6.922,6.922,0,0,0,28.881,27.093ZM25,34a4.964,4.964,0,0,1,3.456-4.744L31,35.2V41H25Zm14,0v7H33V35.2l2.544-5.948A4.964,4.964,0,0,1,39,34Zm-5.521-5L32,32.457,30.521,29Z"></path><rect x="35" y="33" width="2" height="2"></rect><path d="M26,18v1a1,1,0,0,0,1,1v2a5,5,0,0,0,10,0V20a1,1,0,0,0,1-1V18a5.006,5.006,0,0,0-5-5H31A5.006,5.006,0,0,0,26,18Zm9,4a3,3,0,0,1-6,0V20a1,1,0,0,0,.707-.293l.49-.49,1.356.678A1,1,0,0,0,32,20h3Zm1-4H32.236l-1.789-.895a1,1,0,0,0-1.154.188L28.586,18H28a3,3,0,0,1,3-3h2A3,3,0,0,1,36,18Z"></path><path d="M54.832,11.445C54.575,11.06,48.348,2,32,2S9.425,11.06,9.168,11.445A1.006,1.006,0,0,0,9,12V32.847A20.986,20.986,0,0,0,16.274,48.74L31.347,61.757a1,1,0,0,0,1.306,0L47.726,48.74A20.986,20.986,0,0,0,55,32.847V12A1.006,1.006,0,0,0,54.832,11.445ZM53,32.847a18.986,18.986,0,0,1-6.581,14.38L32,59.679,17.581,47.227A18.986,18.986,0,0,1,11,32.847V12.327C12.052,10.97,18.131,4,32,4c13.809,0,19.942,6.979,21,8.33Z"></path><path d="M32,6c-11.169,0-16.817,5.149-18.674,6.841A1,1,0,0,0,13,13.58V32.847a16.988,16.988,0,0,0,5.889,12.866L31.347,56.472a1,1,0,0,0,1.306,0L45.111,45.713A16.988,16.988,0,0,0,51,32.847V13.587a1,1,0,0,0-.326-.739C48.816,11.154,43.165,6,32,6ZM49,32.847A14.993,14.993,0,0,1,43.805,44.2L32,54.394,20.2,44.2A14.993,14.993,0,0,1,15,32.847V14.023C17,12.231,22.2,8,32,8s15,4.236,17,6.03Z"></path></g></svg>