<svg xmlns="http://www.w3.org/2000/svg" viewBox="0 0 64 64" x="0px" y="0px"><g><rect x="51" y="11" width="2" height="8"></rect><rect x="51" y="21" width="2" height="2"></rect><rect x="55" y="16" width="2" height="8"></rect><rect x="55" y="26" width="2" height="2"></rect><rect x="7" y="8" width="2" height="8"></rect><rect x="7" y="18" width="2" height="2"></rect><rect x="11" y="4" width="2" height="8"></rect><rect x="11" y="14" width="2" height="2"></rect><path d="M31,28.94a10.369,10.369,0,0,1-3.07-.74l-2.02,3.49A14.64,14.64,0,0,0,31,32.94Z"></path><path d="M41,18a9,9,0,1,0-17.23,3.61,1.037,1.037,0,0,1,.1-.04,4,4,0,0,1,5.03,3.87,3.945,3.945,0,0,1-.12.96A8.991,8.991,0,0,0,41,18ZM28,20h2a1,1,0,0,0,1,1h2a1,1,0,0,0,0-2H31a3,3,0,0,1,0-6V12h2v1a3,3,0,0,1,3,3H34a1,1,0,0,0-1-1H31a1,1,0,0,0,0,2h2a3,3,0,0,1,0,6v1H31V23A3,3,0,0,1,28,20Z"></path><path d="M41.86,6.72A14.971,14.971,0,0,0,33,3.05v4a10.947,10.947,0,0,1,6.03,2.5Z"></path><path d="M19.09,25.66c.18.3.37.58.57.86l1.77-3.08a4.006,4.006,0,0,1,.62-.79A11.242,11.242,0,0,1,21.06,19H17.03A15.092,15.092,0,0,0,19.09,25.66Z"></path><path d="M31,7.05v-4a14.979,14.979,0,0,0-8.85,3.68l2.82,2.82A10.947,10.947,0,0,1,31,7.05Z"></path><path d="M21.05,17a10.947,10.947,0,0,1,2.5-6.03L20.73,8.15A14.953,14.953,0,0,0,17.05,17Z"></path><path d="M26.63,26.44a1.949,1.949,0,0,0,.27-1,1.97,1.97,0,0,0-1-1.73,2.016,2.016,0,0,0-1.52-.21,1.968,1.968,0,0,0-1.21.94l-5,8.66-1.74-1,2.14-3.7a18.5,18.5,0,0,1-1.2-1.71,17.363,17.363,0,0,1-2.08-5.58L12.5,25.95a14.908,14.908,0,0,0-1.93,9.16l1.42,12.78a1.148,1.148,0,0,1,.01.19l-.07.92H22a1,1,0,0,1,.14-.51l1.57-2.62A8.919,8.919,0,0,0,25,41.23v-1.3a8.793,8.793,0,0,0-.65-3.34l-1.28-3.22a1.021,1.021,0,0,1,.06-.87Z"></path><path d="M23,51H11v6H23Zm-2,4H19V53h2Z"></path><polygon points="11.16 59 11.006 61 22 61 22 59 11.16 59"></polygon><path d="M43.28,8.14l-2.83,2.83A10.947,10.947,0,0,1,42.95,17h4A14.971,14.971,0,0,0,43.28,8.14Z"></path><path d="M33,32.95a14.971,14.971,0,0,0,8.86-3.67l-2.83-2.83A10.947,10.947,0,0,1,33,28.95Z"></path><path d="M42.95,19a10.947,10.947,0,0,1-2.5,6.03l2.83,2.83A14.971,14.971,0,0,0,46.95,19Z"></path></g></svg>