<svg xmlns="http://www.w3.org/2000/svg" viewBox="0 0 64 64" x="0px" y="0px"><g data-name="avatar-man-young-account-profile"><path d="M29,21h2a3,3,0,0,0-6,0h2a1,1,0,0,1,2,0Z"></path><path d="M36,20a1,1,0,0,1,1,1h2a3,3,0,0,0-6,0h2A1,1,0,0,1,36,20Z"></path><path d="M36.331,26.5l-1.732-1a3,3,0,0,1-5.2,0l-1.732,1a5,5,0,0,0,8.662,0Z"></path><path d="M46.92,37.32l-6.05-.82c-.05-.07-.1-.14-.16-.21L38,33.59V32.21A11.029,11.029,0,0,0,42.95,24H43a3.995,3.995,0,0,0,4-4V17a15,15,0,0,0-30,0v3a3.995,3.995,0,0,0,4,4h.05A11.029,11.029,0,0,0,26,32.21v1.38l-2.71,2.7c-.06.07-.11.14-.16.21l-6.05.82A7,7,0,0,0,11,44.25V61a1,1,0,0,0,1,1H52a1,1,0,0,0,1-1V44.25A7,7,0,0,0,46.92,37.32Zm-8.04-.03-1.46,5.12-3.94-2.62,3.59-4.31ZM32,38.44l-4-4.8v-.4a10.906,10.906,0,0,0,8,0v.4ZM44.41,21.41A1.983,1.983,0,0,1,43,22V18a2.006,2.006,0,0,1,2,2A1.983,1.983,0,0,1,44.41,21.41ZM21,22a2.015,2.015,0,0,1-2-2,2.006,2.006,0,0,1,2-2Zm0-6a4.047,4.047,0,0,0-1.98.54,12.988,12.988,0,0,1,25.96,0A4.047,4.047,0,0,0,43,16a1,1,0,0,0-1-1,2.677,2.677,0,0,1-2.62-2.14l-.41-2.06a1,1,0,0,0-1.96,0c-.03.16-.7,3.32-3.01,4.05V11a1,1,0,0,0-1.78-.63A14.018,14.018,0,0,1,22,15,1,1,0,0,0,21,16Zm2,7V16.97a15.809,15.809,0,0,0,9-3.61c0,3.05.04,3.1.29,3.35A1.033,1.033,0,0,0,33,17a5.564,5.564,0,0,0,4.73-2.78A4.7,4.7,0,0,0,41,16.89V23a9,9,0,0,1-18,0Zm3.93,12.48,3.59,4.31-3.94,2.62-1.46-5.12ZM51,60H45V48H43V60H21V48H19V60H13V44.25a5,5,0,0,1,4.34-4.95l6.04-.81,1.66,5.78a1.021,1.021,0,0,0,.61.67A1.073,1.073,0,0,0,26,45a.991.991,0,0,0,.55-.17L32,41.2l5.45,3.63A.991.991,0,0,0,38,45a1.073,1.073,0,0,0,.35-.06,1.021,1.021,0,0,0,.61-.67l1.66-5.78,6.04.81A5,5,0,0,1,51,44.25Z"></path><rect x="31" y="44" width="2" height="2"></rect><rect x="31" y="48" width="2" height="2"></rect><rect x="31" y="52" width="2" height="2"></rect><rect x="31" y="56" width="2" height="2"></rect></g></svg>