<svg xmlns="http://www.w3.org/2000/svg" viewBox="0 0 64 64" x="0px" y="0px"><title>Protect</title><g><path d="M53.152,12.012c-.127-.02-12.778-2.052-20.445-9.719a1,1,0,0,0-1.414,0c-7.667,7.667-20.318,9.7-20.445,9.719A1,1,0,0,0,10,13V43.2a11.023,11.023,0,0,0,5.543,9.551L31.5,61.868a1,1,0,0,0,.992,0l15.961-9.121A11.023,11.023,0,0,0,54,43.2V13A1,1,0,0,0,53.152,12.012ZM52,43.2a9.02,9.02,0,0,1-4.535,7.815L32,59.849,16.535,51.011A9.02,9.02,0,0,1,12,43.2V13.837c2.974-.577,12.975-2.925,20-9.448,7.025,6.523,17.026,8.871,20,9.448Z"></path><path d="M31.385,7.532c-5.829,4.546-12.921,6.8-16.63,7.732a1,1,0,0,0-.755.969V43.2a7.014,7.014,0,0,0,3.527,6.078L31.5,57.261a1,1,0,0,0,.992,0l13.977-7.988A7.011,7.011,0,0,0,50,43.2V16.233a1,1,0,0,0-.755-.969c-3.709-.937-10.8-3.186-16.63-7.732A1,1,0,0,0,31.385,7.532ZM48,17.006V43.2a5.006,5.006,0,0,1-2.52,4.341L32,55.241l-13.48-7.7A5.012,5.012,0,0,1,16,43.2V17.006A48.791,48.791,0,0,0,32,9.577,48.791,48.791,0,0,0,48,17.006Z"></path><path d="M31,26v1.184A2.993,2.993,0,0,0,32,33a1,1,0,1,1-1,1H29a3,3,0,0,0,2,2.816V38h2V36.816A2.993,2.993,0,0,0,32,31a1,1,0,1,1,1-1h2a3,3,0,0,0-2-2.816V26Z"></path><path d="M22,32A10,10,0,1,0,32,22,10.011,10.011,0,0,0,22,32Zm18,0a8,8,0,1,1-8-8A8.009,8.009,0,0,1,40,32Z"></path><rect x="36" y="32" width="2" height="2"></rect><rect x="26" y="32" width="2" height="2"></rect></g></svg>