<svg xmlns="http://www.w3.org/2000/svg" viewBox="0 0 64 64" x="0px" y="0px"><g><path d="M10.955,44.459l1.752-1.752A1,1,0,0,0,13,42V39.414l2.707-2.707A1,1,0,0,0,16,36V33a1,1,0,0,0-.293-.707L11,27.586V26h2a1,1,0,0,0,.707-.293l4-4A1,1,0,0,0,18,21V17.414l3.707-3.707A1,1,0,0,0,22,13V9a1,1,0,0,0-.293-.707L19.632,6.218A22.845,22.845,0,0,1,25,5.092V10a1,1,0,0,0,.293.707l4,4A1,1,0,0,0,30,15h4.586L39,19.414v5.172l-1.707,1.707A1,1,0,0,0,37,27v4a1,1,0,0,0,.293.707l2,2,1.414-1.414L39,30.586V27.414l1.707-1.707A1,1,0,0,0,41,25V19a1,1,0,0,0-.293-.707l-5-5A1,1,0,0,0,35,13H30.414L27,9.586V5A23.021,23.021,0,0,1,49.5,32.793l1.957.414a25,25,0,1,0-27.581,19.6l.248-1.985A22.861,22.861,0,0,1,10.955,44.459ZM17.6,7.016l2.4,2.4v3.172l-3.707,3.707A1,1,0,0,0,16,17v3.586L12.586,24H10a1,1,0,0,0-1,1v3a1,1,0,0,0,.293.707L14,33.414v2.172l-2.707,2.707A1,1,0,0,0,11,39v2.586L9.585,43A22.969,22.969,0,0,1,17.6,7.016Z"></path><path d="M23.414,34H31V32H23a1,1,0,0,0-.707.293l-4,4A1,1,0,0,0,18,37v3a1,1,0,0,0,.293.707l2,2A1,1,0,0,0,21,43h3V41H21.414L20,39.586V37.414Z"></path><path d="M31.707,27.707l2-2A1,1,0,0,0,34,25V19a1,1,0,0,0-1-1H27a1,1,0,0,0-1,1v2a1,1,0,0,0,.293.707L28,23.414V27a1,1,0,0,0,1,1h2A1,1,0,0,0,31.707,27.707ZM30,26V23a1,1,0,0,0-.293-.707L28,20.586V20h4v4.586L30.586,26Z"></path><path d="M35,51a3,3,0,1,0,3,3A3,3,0,0,0,35,51Zm0,4a1,1,0,1,1,1-1A1,1,0,0,1,35,55Z"></path><path d="M58.587,48A6.993,6.993,0,0,0,55,35H33a6.993,6.993,0,0,0-3.587,13A6.993,6.993,0,0,0,33,61H55a6.993,6.993,0,0,0,3.587-13ZM28,42a5.006,5.006,0,0,1,5-5H55a5,5,0,0,1,0,10H33A5.006,5.006,0,0,1,28,42ZM55,59H33a5,5,0,0,1,0-10H55a5,5,0,0,1,0,10Z"></path><rect x="42" y="53" width="2" height="2"></rect><rect x="46" y="53" width="2" height="2"></rect><rect x="50" y="53" width="2" height="2"></rect><rect x="54" y="53" width="2" height="2"></rect><path d="M35,39a3,3,0,1,0,3,3A3,3,0,0,0,35,39Zm0,4a1,1,0,1,1,1-1A1,1,0,0,1,35,43Z"></path><rect x="42" y="41" width="2" height="2"></rect><rect x="46" y="41" width="2" height="2"></rect><rect x="50" y="41" width="2" height="2"></rect><rect x="54" y="41" width="2" height="2"></rect></g></svg>