<svg xmlns="http://www.w3.org/2000/svg" viewBox="0 0 64 64" x="0px" y="0px"><g><rect x="10" y="47" width="2" height="2"></rect><rect x="14" y="47" width="10" height="2"></rect><path d="M4,12.371,25.836,22.853a4.985,4.985,0,0,0,4.328,0L52,12.371V10a1,1,0,0,0-1-1H5a1,1,0,0,0-1,1Z"></path><path d="M51.7,35.061a3.945,3.945,0,0,0-3,.679,2.924,2.924,0,0,1-3.405,0,3.957,3.957,0,0,0-3-.679,3.995,3.995,0,0,0-2.837,5.794,18.111,18.111,0,0,1,2.115,6.705l.238,2.449A1.1,1.1,0,0,0,44,49.9V47a3,3,0,0,1,6,0v2.9a1.1,1.1,0,0,0,2.188.106l.238-2.449a18.111,18.111,0,0,1,2.115-6.705A3.995,3.995,0,0,0,51.7,35.061ZM47,39a8.356,8.356,0,0,1-3.409-.688l.822-1.823a6.933,6.933,0,0,0,5.177,0l.82,1.823A8.364,8.364,0,0,1,47,39Z"></path><path d="M47,29A13,13,0,1,0,60,42,13.015,13.015,0,0,0,47,29Zm7.416,18.752-.237,2.45A3.1,3.1,0,0,1,48,49.9V47a1,1,0,0,0-2,0v2.9a3.1,3.1,0,0,1-6.179.3l-.237-2.449a16.112,16.112,0,0,0-1.893-5.961,5.99,5.99,0,0,1,8.772-7.678.937.937,0,0,0,1.075,0,5.95,5.95,0,0,1,4.5-1.025,5.995,5.995,0,0,1,4.269,8.7A16.123,16.123,0,0,0,54.416,47.752Z"></path><path d="M5,41H32.051A14.941,14.941,0,0,1,52,27.875V14.589L31.029,24.655a6.966,6.966,0,0,1-6.058,0L4,14.589V40A1,1,0,0,0,5,41ZM6,30H8v2H6Zm0,4H8v2a1,1,0,0,0,1,1h2v2H9a3,3,0,0,1-3-3Z"></path></g></svg>