<svg xmlns="http://www.w3.org/2000/svg" viewBox="0 0 64 64" x="0px" y="0px"><g><path d="M10,26a3,3,0,1,0-3-3A3,3,0,0,0,10,26Zm0-4a1,1,0,1,1-1,1A1,1,0,0,1,10,22Z"></path><path d="M61.828,56.1,52.251,29.784h0L46.1,12.87a1,1,0,0,0-1.281-.6L32,16.936V15a1,1,0,0,0-1-1H3a1,1,0,0,0-1,1V61a1,1,0,0,0,1,1H31a1,1,0,0,0,1-1V20.923L35.849,31.5l10.944,30.07a1,1,0,0,0,1.282.6L61.23,57.377a1,1,0,0,0,.6-1.281ZM30,56H18V54H30ZM4,31H16v4H4ZM30,46H18V44H30ZM18,52V48H30v4ZM30,42H18V16H30ZM16,16V29H4V16ZM4,37H16V60H4ZM18,60V58H30v2ZM50.03,29.528,38.754,33.633l-.683-1.878v0l11.276-4.105v0ZM44.558,14.493l4.1,11.277-11.276,4.1L33.282,18.6Zm3.773,45.451L39.438,35.511l11.276-4.1L59.607,55.84Z"></path><path d="M38.495,24.149a3,3,0,1,0,.1-2.294A2.984,2.984,0,0,0,38.495,24.149ZM40.408,22.7a.992.992,0,0,1,.564-.517,1.012,1.012,0,0,1,.343-.061,1,1,0,0,1,.939.658,1,1,0,0,1-1.88.685A.991.991,0,0,1,40.408,22.7Z"></path></g></svg>