<svg xmlns="http://www.w3.org/2000/svg" viewBox="0 0 64 64" x="0px" y="0px"><g><path d="M4,57V22H46V32h2V7a5.006,5.006,0,0,0-5-5H7A5.006,5.006,0,0,0,2,7V57a5.006,5.006,0,0,0,5,5H38V60H7A3,3,0,0,1,4,57ZM7,4H43a3,3,0,0,1,3,3V20H4V7A3,3,0,0,1,7,4Z"></path><path d="M8,18H42a2,2,0,0,0,2-2V8a2,2,0,0,0-2-2H8A2,2,0,0,0,6,8v8A2,2,0,0,0,8,18ZM8,8H42v8H8Z"></path><rect x="24" y="11" width="2" height="2"></rect><rect x="28" y="11" width="2" height="2"></rect><rect x="20" y="11" width="2" height="2"></rect><path d="M44,32V28a2,2,0,0,0-2-2H8a2,2,0,0,0-2,2V54a2,2,0,0,0,2,2H32.955V54H32V28H42v4ZM18,28V40H8V28ZM8,42H18V54H8ZM20,54V42H30V54ZM30,40H20V28H30Z"></path><polygon points="12 37 14 37 14 35 16 35 16 33 14 33 14 31 12 31 12 33 10 33 10 35 12 35 12 37"></polygon><polygon points="22.172 35.414 23.586 36.828 25 35.414 26.414 36.828 27.828 35.414 26.414 34 27.828 32.586 26.414 31.172 25 32.586 23.586 31.172 22.172 32.586 23.586 34 22.172 35.414"></polygon><rect x="10" y="47" width="6" height="2"></rect><rect x="22" y="47" width="6" height="2"></rect><rect x="24" y="44" width="2" height="2"></rect><rect x="24" y="50" width="2" height="2"></rect><path d="M61.832,46.445,60,43.7V40a1,1,0,0,0-.293-.707l-2-2A1,1,0,0,0,57,37H54.721l-.773-2.316A1,1,0,0,0,53,34H50a1,1,0,0,0-.707.293L48,35.586l-1.293-1.293A1,1,0,0,0,46,34H43a1,1,0,0,0-.948.684L41.279,37H39a1,1,0,0,0-.707.293l-2,2A1,1,0,0,0,36,40v3.7l-1.832,2.748A1.006,1.006,0,0,0,34,47v5a1,1,0,0,0,.293.707L37,55.414V57a1,1,0,0,0,.758.97l3.467.867.827,2.479A1,1,0,0,0,43,62h3a1,1,0,0,0,.707-.293L48,60.414l1.293,1.293A1,1,0,0,0,50,62h3a1,1,0,0,0,.948-.684l.827-2.479,3.467-.867A1,1,0,0,0,59,57V55.414l2.707-2.707A1,1,0,0,0,62,52V47A1.006,1.006,0,0,0,61.832,46.445ZM45.586,60H43.721l-.577-1.73,1.563-1.563A1,1,0,0,0,45,56V55H43v.586l-1.307,1.307L39,56.219V51H37v1.586l-1-1V47.3l1.155-1.733.845.844V47h2V46a1,1,0,0,0-.293-.707L38,43.586V40.414L39.414,39h2.172L43,40.414V41h2V40a1,1,0,0,0-.293-.707L43.144,37.73,43.721,36h1.865L47,37.414V58.586ZM60,51.586l-1,1V51H57v5.219l-2.693.674L53,55.586V55H51v1a1,1,0,0,0,.293.707l1.563,1.563L52.279,60H50.414L49,58.586V37.414L50.414,36h1.865l.577,1.73-1.563,1.563A1,1,0,0,0,51,40v1h2v-.586L54.414,39h2.172L58,40.414v3.172l-1.707,1.707A1,1,0,0,0,56,46v1h2v-.586l.845-.844L60,47.3Z"></path><path d="M54.707,47.293,53,45.586V43H51v3a1,1,0,0,0,.293.707l2,2Z"></path><path d="M53.707,50.293l-1.414,1.414.707.707V54h2V52a1,1,0,0,0-.293-.707Z"></path><path d="M43,45.586l-1.707,1.707,1.414,1.414,2-2A1,1,0,0,0,45,46V43H43Z"></path><path d="M41.293,51.293A1,1,0,0,0,41,52v2h2V52.414l.707-.707-1.414-1.414Z"></path></g></svg>