<svg xmlns="http://www.w3.org/2000/svg" data-name="Online Learning" viewBox="0 0 64 64" x="0px" y="0px"><path d="M35,46a1,1,0,0,0-1-1H20V43h4a1,1,0,0,0,0-2H13.351L8.625,44.781A1,1,0,0,1,8,45H4V57H8a1,1,0,0,1,.371.071L13.192,59H24a1,1,0,0,0,0-2H22V55h3a1,1,0,0,0,0-2H22V51h4a1,1,0,0,0,0-2H22V47H34A1,1,0,0,0,35,46Z"></path><path d="M29,50a2.994,2.994,0,0,1-1.4,2.529,2.955,2.955,0,0,1-1,4A2.931,2.931,0,0,1,26.22,60H31V49H28.816A2.966,2.966,0,0,1,29,50Z"></path><path d="M33,52v8a9,9,0,0,0,8.941-8Z"></path><path d="M27,42a2.966,2.966,0,0,1-.184,1H31V42Z"></path><path d="M33,42v1h1a3,3,0,0,1,0,6H33v1h8.941A9.01,9.01,0,0,0,33,42Z"></path><rect x="55" y="36" width="2" height="2"></rect><rect x="55" y="40" width="2" height="2"></rect><path d="M55,49a1,1,0,0,1-1,1H46v2h8a3,3,0,0,0,3-3V48H55Z"></path><rect x="55" y="44" width="2" height="2"></rect><path d="M57,34H55V10a1,1,0,0,0-1-1H44V7H54a3,3,0,0,1,3,3Z"></path><path d="M44,9H43V27a1,1,0,0,1-1,1H28a1,1,0,0,0-1,1,2.966,2.966,0,0,1-.184,1H44Z"></path><path d="M35,7h6V4H28a1,1,0,0,0-1,1V26.184A2.966,2.966,0,0,1,28,26H41V9H35v1H33V9A2,2,0,0,1,35,7Zm-6,5h2v2H29Zm0,4h4v2H29Zm10,6H29V20H39Zm0-4H35V16h4Zm0-6v2H33V12Z"></path><path d="M24,30a1,1,0,0,0,1-1V7H23V29A1,1,0,0,0,24,30Z"></path><path d="M4,8V30H21.184A2.966,2.966,0,0,1,21,29a1,1,0,0,0-1-1H6a1,1,0,0,1-1-1V8Z"></path><path d="M21,26.184V5a1,1,0,0,0-1-1H7V26H20A2.966,2.966,0,0,1,21,26.184ZM19,22H9V20H19Zm0-4H9V16H19Zm0-4H9V12H19Zm0-4H9V8H19Z"></path></svg>