<svg xmlns="http://www.w3.org/2000/svg" viewBox="0 0 64 64" x="0px" y="0px"><title>Money Exchange</title><g data-name="Money Exchange"><path d="M32,18a.94.94,0,0,1-.862-1h-2A2.993,2.993,0,0,0,31,19.8V21h2V19.8A2.993,2.993,0,0,0,34.862,17,2.937,2.937,0,0,0,32,14a1.011,1.011,0,1,1,.862-1h2A2.993,2.993,0,0,0,33,10.2V9H31v1.2A2.993,2.993,0,0,0,29.138,13,2.937,2.937,0,0,0,32,16a1.011,1.011,0,0,1,0,2Z"></path><rect x="36" y="14" width="2" height="2"></rect><rect x="26" y="14" width="2" height="2"></rect><polygon points="16.535 42.878 15.121 41.464 12 44.586 8.879 41.464 7.465 42.878 11 46.414 11 47 9 47 9 49 11 49 11 50 9 50 9 52 11 52 11 53 13 53 13 52 15 52 15 50 13 50 13 49 15 49 15 47 13 47 13 46.414 16.535 42.878"></polygon><path d="M54.856,37.421A22.761,22.761,0,0,0,41.964,14.282a9.989,9.989,0,0,0-19.928,0A22.761,22.761,0,0,0,9.144,37.421a10,10,0,1,0,9.963,16.6,22.9,22.9,0,0,0,25.786,0,10,10,0,1,0,9.963-16.6ZM32,7a8,8,0,1,1-8,8A8.009,8.009,0,0,1,32,7ZM12,55a8,8,0,1,1,8-8A8.009,8.009,0,0,1,12,55Zm20,1a20.778,20.778,0,0,1-11.635-3.536A9.988,9.988,0,0,0,12,37c-.3,0-.594.019-.887.045C11.046,36.364,11,35.681,11,35A21.045,21.045,0,0,1,22.12,16.469a9.987,9.987,0,0,0,19.76,0A21.045,21.045,0,0,1,53,35c0,.681-.046,1.364-.113,2.045C52.594,37.019,52.3,37,52,37a9.988,9.988,0,0,0-8.365,15.464A20.778,20.778,0,0,1,32,56Zm20-1a8,8,0,1,1,8-8A8.009,8.009,0,0,1,52,55Z"></path><path d="M53,51a3.966,3.966,0,0,1-2.618-1H54V48H49.142A3.939,3.939,0,0,1,49,47h5V45H49.556a3.979,3.979,0,0,1,5-1.686l.779-1.842A6,6,0,0,0,47.35,45H46v2h1a6,6,0,0,0,.09,1H46v2h1.812A5.992,5.992,0,0,0,55.4,52.5l-.8-1.833A3.965,3.965,0,0,1,53,51Z"></path></g></svg>