<svg xmlns="http://www.w3.org/2000/svg" viewBox="0 0 64 64" x="0px" y="0px"><g data-name="Time Management"><path d="M44,26A15,15,0,1,0,59,41,15.017,15.017,0,0,0,44,26Zm0,28A13,13,0,1,1,57,41,13.015,13.015,0,0,1,44,54Z"></path><path d="M45,38.184V33H43v5.184A3,3,0,0,0,41.184,40H38v2h3.184A2.993,2.993,0,1,0,45,38.184ZM44,42a1,1,0,1,1,1-1A1,1,0,0,1,44,42Z"></path><rect x="32" y="40" width="2" height="2"></rect><rect x="43" y="51" width="2" height="2"></rect><rect x="54" y="40" width="2" height="2"></rect><rect x="43" y="29" width="2" height="2"></rect><path d="M46,60H10a3,3,0,0,1-3-3V7a3,3,0,0,1,3-3H38v9a1,1,0,0,0,1.707.707L42,11.414l2.293,2.293A1,1,0,0,0,46,13V4a3,3,0,0,1,3,3V25h2V7a5.006,5.006,0,0,0-5-5H10A5.006,5.006,0,0,0,5,7V57a5.006,5.006,0,0,0,5,5H46a5.006,5.006,0,0,0,5-5H49A3,3,0,0,1,46,60ZM44,10.586,42.707,9.293a1,1,0,0,0-1.414,0L40,10.586V4h4Z"></path><rect x="11" y="8" width="4" height="2"></rect><rect x="17" y="8" width="10" height="2"></rect><rect x="11" y="12" width="16" height="2"></rect><rect x="11" y="20" width="26" height="2"></rect><rect x="39" y="20" width="6" height="2"></rect><rect x="11" y="26" width="20" height="2"></rect><rect x="11" y="32" width="16" height="2"></rect><rect x="11" y="38" width="14" height="2"></rect><rect x="11" y="48" width="10" height="2"></rect><rect x="11" y="52" width="10" height="2"></rect></g></svg>