<svg xmlns="http://www.w3.org/2000/svg" viewBox="0 0 64 64" x="0px" y="0px"><g><path d="M57,8a4,4,0,0,0-8,0V21a4,4,0,0,0,8,0V18H55V16h2V14H55V12h2V10H55V8ZM53,23a1.994,1.994,0,0,1-1-3.722V6h2V19.278A1.994,1.994,0,0,1,53,23Z"></path><path d="M20,22.758c.268.111.518.226.758.341a5.692,5.692,0,0,0,2.9.7,5.719,5.719,0,0,0,2.908-.7,7.627,7.627,0,0,1,3.762-.9,7.584,7.584,0,0,1,3.67.849V21H20Z"></path><rect x="18" y="17" width="18" height="2"></rect><path d="M8,39H46a1,1,0,0,0,0-2H8a1,1,0,0,0,0,2Z"></path><path d="M33,35a1,1,0,0,0,1-1V33H32V31h2V29H32V27h2V25.242c-.267-.11-.517-.225-.757-.34a5.746,5.746,0,0,0-2.913-.7,5.7,5.7,0,0,0-2.9.7,7.643,7.643,0,0,1-3.773.9A7.539,7.539,0,0,1,20,24.953V34a1,1,0,0,0,1,1Zm-6-7h2v2H27Zm-4,3h2v2H23Z"></path><rect x="43" y="41" width="2" height="19"></rect><rect x="9" y="41" width="2" height="19"></rect><path d="M53.93,26.92A7,7,0,0,1,40,26V10a5,5,0,0,0-10,0v5H28V10a7,7,0,0,1,14,0V26a5,5,0,0,0,9.92.9A5.494,5.494,0,0,0,53,27,4.734,4.734,0,0,0,53.93,26.92Z"></path><path d="M25,49a2,2,0,0,0,4,0c0-.619-.938-2.119-2-3.451C25.939,46.874,25,48.362,25,49Z"></path><path d="M19,60H35V59a5.006,5.006,0,0,0-5-5H24a5.006,5.006,0,0,0-5,5Z"></path></g></svg>