<svg xmlns="http://www.w3.org/2000/svg" viewBox="0 0 64 64" x="0px" y="0px"><g data-name="Robot-Smartphone-Robotic-Automation-Artificial Intelligence"><path d="M35,30V28.618L32.447,29.9A1,1,0,0,1,32,30Z"></path><path d="M29,28.618V30h3a1,1,0,0,1-.447-.105Z"></path><polygon points="34 20.721 32 20.054 30 20.721 30 22 34 22 34 20.721"></polygon><path d="M28.447,26.105,32,27.882l3.553-1.777A1,1,0,0,1,36,26h2V21a6,6,0,0,0-6.186-6A6.2,6.2,0,0,0,26,21.294V26h2A1,1,0,0,1,28.447,26.105ZM28,20a1,1,0,0,1,.684-.948l3-1a.991.991,0,0,1,.632,0l3,1A1,1,0,0,1,36,20v3a1,1,0,0,1-1,1H29a1,1,0,0,1-1-1Z"></path><polygon points="25.781 45 38.219 45 38.719 43 25.281 43 25.781 45"></polygon><path d="M50,8a4,4,0,0,0-4-4H18a4,4,0,0,0-4,4V56a4,4,0,0,0,4,4H46a4,4,0,0,0,4-4ZM29,6h6V8H29ZM25,6h2V8H25Zm9,52H30a3,3,0,0,1,0-6h4a3,3,0,0,1,0,6ZM46,40a1,1,0,0,0-2,0H42a3,3,0,0,1,2-2.816V37a3,3,0,0,0-3-3v8a.984.984,0,0,1-.03.242l-1,4A1,1,0,0,1,39,47H25a1,1,0,0,1-.97-.758l-1-4A.984.984,0,0,1,23,42V34a3,3,0,0,0-3,3v.184A3,3,0,0,1,22,40H20a1,1,0,0,0-2,0H16a3,3,0,0,1,2-2.816V37a5.006,5.006,0,0,1,5-5h.586l1.707-1.707A1,1,0,0,1,26,30h1V28H25a1,1,0,0,1-1-1V21.294A8.215,8.215,0,0,1,31.754,13,8,8,0,0,1,40,21v6a1,1,0,0,1-1,1H37v2h1a1,1,0,0,1,.707.293L40.414,32H41a5.006,5.006,0,0,1,5,5v.184A3,3,0,0,1,48,40Z"></path><path d="M34,54H30a1,1,0,0,0,0,2h4a1,1,0,0,0,0-2Z"></path><path d="M26.414,32,25,33.414V41h3V39a4,4,0,0,1,8,0v2h3V33.414L37.586,32Z"></path><path d="M32,37a2,2,0,0,0-2,2v2h4V39A2,2,0,0,0,32,37Z"></path></g></svg>