<svg xmlns="http://www.w3.org/2000/svg" viewBox="0 0 64 64" x="0px" y="0px"><g data-name="Santa Claus-Xmas-Christmas-Decorations-Present"><path d="M25.6,7.64A3,3,0,1,0,24.78,3H15.47A5.038,5.038,0,0,0,11,5.76L9.34,9.08a2.988,2.988,0,0,0-.33,5.74c0,.06-.01.12-.01.18v2.78A2.986,2.986,0,0,0,8,20v3a5.11,5.11,0,0,0,.79,2.69,8.924,8.924,0,0,0-1.08.52l-.21.12A7.025,7.025,0,0,0,4,32.4v1.78a2.988,2.988,0,0,0,0,5.64V41a3.009,3.009,0,0,0,3,3H8V57.03A4.952,4.952,0,0,0,6,61a1,1,0,0,0,1,1H23a1,1,0,0,0,1-1,4.952,4.952,0,0,0-2-3.97V44h1a3.009,3.009,0,0,0,3-3V39.82a2.988,2.988,0,0,0,0-5.64V32.3a6.874,6.874,0,0,0-3.41-5.92l-.18-.1a9.522,9.522,0,0,0-1.2-.59A5.057,5.057,0,0,0,22,23V20a2.986,2.986,0,0,0-1-2.22V15c0-.06-.01-.12-.01-.18a2.982,2.982,0,0,0,.81-5.21l.76-.76ZM27,4a1,1,0,1,1-1,1A1,1,0,0,1,27,4ZM8,42H7a1,1,0,0,1-1-1V40H8Zm0-4H5a1,1,0,0,1,0-2H8Zm0-4H6V32.4a4.994,4.994,0,0,1,2.5-4.33l.22-.13a6.85,6.85,0,0,1,1.44-.61A13.894,13.894,0,0,0,14,29.69V38H10V32H8ZM19,19a1,1,0,0,1,1,1v3c0,2.5-3.34,4.3-4.99,4.93C13.87,27.48,10,25.74,10,23V20a1,1,0,0,1,1-1Zm-8-2V15h8v2Zm5,23v2H14V40Zm-4,0v2H10V40ZM8.17,60a3,3,0,0,1,5.66,0ZM14,57.03A4.924,4.924,0,0,0,11,56a5.468,5.468,0,0,0-1,.1V55h4ZM14,53H10V51h4Zm0-6v2H10V44H20v5H16V47Zm4-5V40h2v2Zm2,9v2H16V51Zm-4,4h4v1.1a5.468,5.468,0,0,0-1-.1,4.924,4.924,0,0,0-3,1.03Zm.17,5a3,3,0,0,1,5.66,0ZM24,41a1,1,0,0,1-1,1H22V40h2Zm1-5a1,1,0,0,1,0,2H22V36Zm-3.6-7.99.19.11A4.821,4.821,0,0,1,24,32.3V34H22V32H20v6H16V29.69a13.624,13.624,0,0,0,3.82-2.35A6.643,6.643,0,0,1,21.4,28.01ZM20,13H10a1,1,0,0,1,0-2H20a1,1,0,0,1,0,2Zm1.63-5.93a1.105,1.105,0,0,0-.34.22L20.16,8.43,18.83,6.45l-1.66,1.1L18.13,9H11.62l1.16-2.34A3.044,3.044,0,0,1,15.47,5H24a3.061,3.061,0,0,0,.2,1.05Z"></path><path d="M61,40H60V37a9.012,9.012,0,0,0-8.2-8.96A2.96,2.96,0,0,0,52,27a3.009,3.009,0,0,0-1.43-2.55l3.26-4.9a.963.963,0,0,0,.05-1.02A.984.984,0,0,0,53,18c-.08,0-.11-.01-.36-.19A4.063,4.063,0,0,0,50,17a4.851,4.851,0,0,0-2.45.61,3.275,3.275,0,0,1-3.1,0A4.851,4.851,0,0,0,42,17a4.063,4.063,0,0,0-2.64.81c-.25.18-.28.19-.36.19a.984.984,0,0,0-.88.53.963.963,0,0,0,.05,1.02l3.26,4.9A3.009,3.009,0,0,0,40,27a3.108,3.108,0,0,0,.24,1.18A9.01,9.01,0,0,0,33,37v8.26A4.2,4.2,0,0,0,30,44a2.98,2.98,0,0,0-2.82,4H25a1,1,0,0,0-1,1v4a1,1,0,0,0,1,1v7a1,1,0,0,0,1,1H60a1,1,0,0,0,1-1V46a1,1,0,0,0,1-1V41A1,1,0,0,0,61,40ZM40.5,19.45c.01,0,.01,0,.02-.01A2.155,2.155,0,0,1,42,19a2.99,2.99,0,0,1,1.55.39,5.225,5.225,0,0,0,4.9,0A2.99,2.99,0,0,1,50,19a2.155,2.155,0,0,1,1.48.44c.01.01.01.01.02.01L48.46,24H43.54ZM50,27a1,1,0,0,1-1,1H43a1,1,0,0,1,0-2h6A1,1,0,0,1,50,27ZM31,60H27V54h4Zm0-8H26V50h5Zm-1-4a1,1,0,0,1,0-2,3.089,3.089,0,0,1,2.54,2Zm5,12H33V54h2Zm0-8H33V50h2Zm.46-4A3.089,3.089,0,0,1,38,46a1,1,0,0,1,0,2ZM41,60H37V54h4Zm1-8H37V50h5Zm5,8H43V54a1,1,0,0,0,1-1V49a1,1,0,0,0-1-1H41V46h6Zm0-16H40V42h7Zm-1-4a1,1,0,0,1,0-2,3.089,3.089,0,0,1,2.54,2Zm5,20H49V46h2Zm0-16H49V42h2Zm-1-5.48A4.689,4.689,0,0,0,46,36a2.98,2.98,0,0,0-2.82,4H39a1,1,0,0,0-1,1v3a4.2,4.2,0,0,0-3,1.26V37a7.008,7.008,0,0,1,7-7h9a7.008,7.008,0,0,1,7,7v3H56.82A2.98,2.98,0,0,0,54,36,4.689,4.689,0,0,0,50,38.52ZM51.46,40A3.089,3.089,0,0,1,54,38a1,1,0,0,1,0,2ZM59,60H53V46h6Zm1-16H53V42h7Z"></path><path d="M15,25a3,3,0,0,0,3-3H16a1,1,0,0,1-2,0H12A3,3,0,0,0,15,25Z"></path></g></svg>