<svg xmlns="http://www.w3.org/2000/svg" viewBox="0 0 64 64" x="0px" y="0px"><title>Writing-Pencil-Pen-Hand</title><g><path d="M33.765,6.832l-1,1.731,3.467,2,1-1.735a1.968,1.968,0,0,0,.266-.99,2,2,0,0,0-3.735-1.008Z"></path><path d="M15.66,32h1.264l2.311-4-3.917-.007a7.041,7.041,0,0,0-4.964,2.05L4.708,35.7a1.812,1.812,0,0,0-.541,1.29,1.838,1.838,0,0,0,.54,1.307,1.894,1.894,0,0,0,2.586,0l4.83-4.83A5.035,5.035,0,0,1,15.66,32Z"></path><rect x="32.748" y="9.728" width="1.001" height="4.004" transform="translate(6.474 34.668) rotate(-60.019)"></rect><rect x="51" y="34" width="9" height="10"></rect><rect x="43" y="33" width="6" height="12"></rect><path d="M16,38h4.393L33.732,14.9l-3.468-2L15.755,38.025C15.838,38.02,15.916,38,16,38Z"></path><path d="M15.788,45.979a3.883,3.883,0,0,1-3.354-2.2l-.668,1.158,3.469,2Z"></path><path d="M41,44V35H39.66a5.035,5.035,0,0,1-3.537-1.463l-2.32-2.32a11.078,11.078,0,0,0-5.47-2.97l-3.109,5.385A4,4,0,0,1,22,40H16a2,2,0,0,0,0,4Z"></path><polygon points="11.302 46.974 11.117 50.063 13.699 48.358 11.302 46.974"></polygon><path d="M23.413,37.413A1.986,1.986,0,0,0,24,36a2.1,2.1,0,0,0-.022-.21L22.8,37.829A1.988,1.988,0,0,0,23.413,37.413Z"></path><rect x="2" y="55" width="60" height="2"></rect><rect x="2" y="59" width="60" height="2"></rect></g></svg>