<svg xmlns="http://www.w3.org/2000/svg" viewBox="0 0 48 48" x="0px" y="0px"><title>Idea-Make-Money</title><g><path d="M36,45a1,1,0,0,1-1,1H20V37a1,1,0,0,0-1-1H12a3,3,0,0,1-3-3V26a1,1,0,0,0-1-1H4.436l5.23-14.141a1.044,1.044,0,0,0,.29-.464A12.745,12.745,0,0,1,22,2h6V0H22A14.755,14.755,0,0,0,8.17,9.456a1.321,1.321,0,0,0-.258.388L2.062,25.653A1,1,0,0,0,3,27H7v6a5.006,5.006,0,0,0,5,5h6v9a1,1,0,0,0,1,1H35a3,3,0,0,0,3-3V37H36Z"></path><path d="M38,17.059V12.364a6.923,6.923,0,0,0,1.386.143A6.64,6.64,0,0,0,43.4,11.17a6.747,6.747,0,0,0,2.561-6.349,1,1,0,0,0-.585-.772,6.746,6.746,0,0,0-6.806.744,6.667,6.667,0,0,0-2.555,4.392,6.546,6.546,0,0,0-1.462-1.1,6.75,6.75,0,0,0-6.842.24,1,1,0,0,0-.468.849,6.752,6.752,0,0,0,3.446,5.916,6.6,6.6,0,0,0,3.192.817A6.815,6.815,0,0,0,36,15.552v1.507a9,9,0,1,0,2,0ZM39.778,6.387a4.727,4.727,0,0,1,4.253-.711,4.646,4.646,0,0,1-6.09,4.611A4.723,4.723,0,0,1,39.778,6.387Zm-8.122,6.948a4.719,4.719,0,0,1-2.378-3.6,4.648,4.648,0,0,1,6.688,3.691A4.717,4.717,0,0,1,31.656,13.335ZM37,33a7,7,0,1,1,7-7A7.008,7.008,0,0,1,37,33Z"></path><path d="M39,21H38V20H36v1H35a2,2,0,0,0-2,2v2a2,2,0,0,0,2,2h4v2H35V28H33v1a2,2,0,0,0,2,2h1v1h2V31h1a2,2,0,0,0,2-2V27a2,2,0,0,0-2-2H35V23h4v1h2V23A2,2,0,0,0,39,21Z"></path></g></svg>