<svg xmlns="http://www.w3.org/2000/svg" viewBox="0 0 64 64" x="0px" y="0px"><g><path d="M47,60V56a2,2,0,0,0-2-2H33V16.858A3.977,3.977,0,0,0,34.618,16H42V41a7,7,0,0,0,14,0V16h4V14H56V12h4V10H56V8a3,3,0,0,0,0-6H42a3,3,0,0,0,0,6v2H34.618A3.977,3.977,0,0,0,33,9.142V2H31V9.142A3.977,3.977,0,0,0,29.382,10H22V8a3,3,0,0,0,0-6H8A3,3,0,0,0,8,8v2H4v2H8v2H4v2H8V41a7,7,0,0,0,14,0V16h7.382A3.977,3.977,0,0,0,31,16.858V54H19a2,2,0,0,0-2,2v4H2v2H62V60Zm2-14a5.006,5.006,0,0,1-5-5V27.347a9.32,9.32,0,0,0,2,.193,8.615,8.615,0,0,0,3.339-.6A7.706,7.706,0,0,1,54,26.719V41A5.006,5.006,0,0,1,49,46Zm5-21.347a9.32,9.32,0,0,0-2-.193,8.615,8.615,0,0,0-3.339.6A7.706,7.706,0,0,1,44,25.281V16H54ZM54,14H44V12H54ZM41,5a1,1,0,0,1,1-1H56a1,1,0,0,1,0,2H42A1,1,0,0,1,41,5Zm3,3H54v2H44Zm-2,6H35.858a3.592,3.592,0,0,0,0-2H42ZM7,5A1,1,0,0,1,8,4H22a1,1,0,0,1,0,2H8A1,1,0,0,1,7,5Zm3,3H20v2H10Zm0,4H20v2H10Zm5,34a5.006,5.006,0,0,1-5-5V28.347a9.32,9.32,0,0,0,2,.193,8.615,8.615,0,0,0,3.339-.6A6.646,6.646,0,0,1,18,27.46a6.6,6.6,0,0,1,2,.259V41A5.006,5.006,0,0,1,15,46Zm5-20.347a9.32,9.32,0,0,0-2-.193,8.615,8.615,0,0,0-3.339.6A6.646,6.646,0,0,1,12,26.54a6.6,6.6,0,0,1-2-.259V16H20ZM22,12h6.142a3.592,3.592,0,0,0,0,2H22Zm8,1a2,2,0,1,1,2,2A2,2,0,0,1,30,13ZM19,60V56H45v4Z"></path><path d="M16,36a3,3,0,1,0,3,3A3,3,0,0,0,16,36Zm0,4a1,1,0,1,1,1-1A1,1,0,0,1,16,40Z"></path><path d="M51,32a3,3,0,1,0-3,3A3,3,0,0,0,51,32Zm-3,1a1,1,0,1,1,1-1A1,1,0,0,1,48,33Z"></path><rect x="16" y="19" width="2" height="2"></rect><rect x="13" y="22" width="2" height="2"></rect><rect x="12" y="30" width="2" height="2"></rect><rect x="17" y="31" width="2" height="2"></rect><rect x="46" y="19" width="2" height="2"></rect><rect x="46" y="39" width="2" height="2"></rect><rect x="50" y="36" width="2" height="2"></rect></g></svg>