<svg xmlns="http://www.w3.org/2000/svg" viewBox="0 0 64 64" x="0px" y="0px"><g><path d="M61,45H58V12a5.006,5.006,0,0,0-5-5H11a5.006,5.006,0,0,0-5,5V33.958L.938,39.021a1,1,0,0,0,0,1.414L5.5,45H3a1,1,0,0,0-1,1v4a3,3,0,0,0,3,3H6.593a4.984,4.984,0,0,0,4.951,4.458h0a4.944,4.944,0,0,0,3.53-1.469l.711-.706L17.2,56.7a3,3,0,0,0,4.242,0l3.7-3.7H59a3,3,0,0,0,3-3V46A1,1,0,0,0,61,45ZM8,12a3,3,0,0,1,3-3H53a3,3,0,0,1,3,3V45H30.6a2.973,2.973,0,0,0-.669-1.029l-.838-.838a2.991,2.991,0,0,0,.286-1.446L31.3,39.769a14,14,0,1,0-7.064-7.064l-1.37,1.37-.71-.711a1,1,0,0,0-.391-.241l-4.019-1.34-4.075-4.076a1,1,0,0,0-1.415,0L8,31.958ZM20.736,44.678a1,1,0,0,1,1.415,0l4.243,4.242-1.415,1.414-4.243-4.242A1,1,0,0,1,20.736,44.678Zm7.779-9.193a12,12,0,1,1,16.97,0A12.013,12.013,0,0,1,28.515,35.485ZM27.1,36.9a13.945,13.945,0,0,0,2.351,1.885l-.941.941-4.236-4.236.941-.941A13.945,13.945,0,0,0,27.1,36.9Zm.576,7.648.838.838a1,1,0,0,1,0,1.414l-.707.707-3.533-3.532A3,3,0,0,0,27.677,44.547ZM21.288,42.4c-.065,0-.13.011-.2.018.072-.036.136-.088.207-.127C21.3,42.329,21.29,42.365,21.288,42.4ZM30.654,47H36v1H30.1A2.955,2.955,0,0,0,30.654,47Zm-17.7-17.172,3.536,3.536a1,1,0,0,0,.391.241l4.019,1.34,6.2,6.2a1,1,0,0,1-1.415,1.415l-2.828-2.829a1,1,0,0,0-1.414,0,5.006,5.006,0,0,1-7.071,0l-1.415,1.414A6.956,6.956,0,0,0,14.6,42.33L10.132,46.8,3.059,39.728ZM6.767,51H5a1,1,0,0,1-1-1V47H7.5l1.217,1.216-.706.707A5.036,5.036,0,0,0,6.767,51Zm6.894,3.575A3.006,3.006,0,0,1,8.54,52.46a2.712,2.712,0,0,1,.023-.346,3.022,3.022,0,0,1,.867-1.78L16.7,43.059a7.044,7.044,0,0,0,3.02-.117,2.878,2.878,0,0,0-1.26,2.315,2.9,2.9,0,0,0-2.824,2.8,2.988,2.988,0,0,0-1.966,5.106l.706.706Zm6.368.709a1.022,1.022,0,0,1-1.413,0h0L15.08,51.749a1,1,0,0,1,1.414-1.415l4.242,4.243Zm2.122-2.121L17.908,48.92a1,1,0,1,1,1.414-1.414l4.243,4.243ZM60,50a1,1,0,0,1-1,1H27.142l1-1H36a2,2,0,0,0,2-2V47H60Z"></path><path d="M47,27A10,10,0,1,0,37,37,10.011,10.011,0,0,0,47,27ZM29,27a8,8,0,1,1,8,8A8.009,8.009,0,0,1,29,27Z"></path><rect x="10" y="14" width="15" height="2"></rect><rect x="10" y="18" width="13" height="2"></rect><rect x="10" y="22" width="12" height="2"></rect><rect x="16" y="26" width="6" height="2"></rect><rect x="48" y="14" width="6" height="2"></rect><rect x="50" y="18" width="4" height="2"></rect><rect x="52" y="22" width="2" height="2"></rect><rect x="52" y="26" width="2" height="2"></rect><rect x="52" y="30" width="2" height="2"></rect><rect x="50" y="34" width="4" height="2"></rect><rect x="48" y="38" width="6" height="2"></rect></g></svg>