<svg xmlns="http://www.w3.org/2000/svg" viewBox="0 0 64 64" x="0px" y="0px"><title>Camera Photography</title><g data-name="Camera Photography"><path d="M44,2H20a5.006,5.006,0,0,0-5,5V57a5.006,5.006,0,0,0,5,5H44a5.006,5.006,0,0,0,5-5V7A5.006,5.006,0,0,0,44,2Zm0,58H20a3,3,0,0,1-3-3V12H43V10H17V7a3,3,0,0,1,3-3H44a3,3,0,0,1,3,3V50H21v2H47v5A3,3,0,0,1,44,60Z"></path><rect x="31" y="55" width="2" height="2"></rect><rect x="24" y="6" width="2" height="2"></rect><rect x="28" y="6" width="2" height="2"></rect><path d="M21,16h3V14H20a1,1,0,0,0-1,1v4h2Z"></path><path d="M46,43V26a1,1,0,0,0-1-1H38.781l-.811-3.242A1,1,0,0,0,37,21H27a1,1,0,0,0-.97.758L25.219,25H19a1,1,0,0,0-1,1V43a1,1,0,0,0,1,1H45A1,1,0,0,0,46,43Zm-2-1H20V27h6a1,1,0,0,0,.97-.758L27.781,23h8.438l.811,3.242A1,1,0,0,0,38,27h6Z"></path><path d="M32,27a7,7,0,1,0,7,7A7.008,7.008,0,0,0,32,27Zm0,12a5,5,0,1,1,5-5A5.006,5.006,0,0,1,32,39Z"></path></g></svg>