<svg xmlns="http://www.w3.org/2000/svg" viewBox="0 0 64 64" x="0px" y="0px"><g><path d="M40,11H50V8a4,4,0,0,0-4-4H18a4,4,0,0,0-4,4V28H24a8,8,0,0,1,1,15.94V49a1.007,1.007,0,0,1-.65.94A1.073,1.073,0,0,1,24,50a.978.978,0,0,1-.76-.35L18.4,44H14V56a4,4,0,0,0,4,4H46a4,4,0,0,0,4-4V27H45.6l-4.84,5.65A.978.978,0,0,1,40,33a1.073,1.073,0,0,1-.35-.06A1.007,1.007,0,0,1,39,32V26.94A8,8,0,0,1,40,11ZM27,8H25V6h2Zm7,44a3,3,0,0,1,0,6H30a3,3,0,0,1,0-6ZM29,8V6h6V8Z"></path><path d="M34,54H30a1,1,0,0,0,0,2h4a1,1,0,0,0,0-2Z"></path><path d="M19.616,42.349,23,46.3V43a1,1,0,0,1,1-1,6,6,0,0,0,0-12H10a6,6,0,0,0,0,12h8.857A1,1,0,0,1,19.616,42.349ZM26,39H24V37h2ZM8,33H26v2H8Zm0,6V37H22v2Z"></path><path d="M54,13H40a6,6,0,0,0,0,12,1,1,0,0,1,1,1v3.3l3.384-3.948A1,1,0,0,1,45.143,25H54a6,6,0,0,0,0-12ZM38,16h4v2H38Zm18,6H38V20H56Zm0-4H44V16H56Z"></path></g></svg>