<svg xmlns="http://www.w3.org/2000/svg" viewBox="0 0 64 64" x="0px" y="0px"><g><path d="M25.5,24.309,25,22.764l0-.012-.5,1.557a1,1,0,0,1-.951.691H21.922l1.315.955a1,1,0,0,1,.363,1.117l-.5,1.545,1.314-.954a1,1,0,0,1,1.176,0l1.314.955-.5-1.546a1,1,0,0,1,.363-1.117L28.078,25H26.453A1,1,0,0,1,25.5,24.309Z"></path><path d="M35.1,28.617l1.314-.954a1,1,0,0,1,1.176,0l1.314.955-.5-1.546a1,1,0,0,1,.363-1.117L40.078,25H38.453a1,1,0,0,1-.951-.691L37,22.764l-.005-.012-.5,1.557a1,1,0,0,1-.951.691H33.922l1.315.955a1,1,0,0,1,.363,1.117Z"></path><path d="M47.6,27.072l-.5,1.545,1.314-.954a1,1,0,0,1,1.176,0l1.314.955-.5-1.546a1,1,0,0,1,.363-1.117L52.078,25H50.453a1,1,0,0,1-.951-.691L49,22.764,49,22.752l-.5,1.557a1,1,0,0,1-.951.691H45.922l1.315.955A1,1,0,0,1,47.6,27.072Z"></path><path d="M19,33a1,1,0,0,0-1,1v3a.984.984,0,0,1-.2.6l-3,4a1.014,1.014,0,0,1-.8.4H12V52h2a1,1,0,0,1,.45.11L18.24,54H27a1,1,0,0,0,0-2H26a1,1,0,0,1,0-2h2a1,1,0,0,0,0-2H26a1,1,0,0,1,0-2h3a1,1,0,0,0,0-2H26a1,1,0,0,1,0-2h3a1,1,0,0,0,0-2H21a1,1,0,0,1-1-1V34A1,1,0,0,0,19,33Z"></path><path d="M60,14H54a3.009,3.009,0,0,1-3-3V4H17a3.009,3.009,0,0,0-3,3V39.33l2-2.66V34a3,3,0,0,1,6,0v4h7a3.009,3.009,0,0,1,3,3,2.965,2.965,0,0,1-.77,2A2.965,2.965,0,0,1,32,45a3,3,0,0,1-1.39,2.53A2.934,2.934,0,0,1,31,49a3,3,0,0,1-1.39,2.53A2.934,2.934,0,0,1,30,53a3.009,3.009,0,0,1-3,3H18a1,1,0,0,1-.45-.11L14,54.12V57a3.009,3.009,0,0,0,3,3H57a3.009,3.009,0,0,0,3-3ZM44.02,24.382A1.97,1.97,0,0,1,45.922,23h.9l.278-.854a2,2,0,0,1,3.8,0L51.18,23h.9a2,2,0,0,1,1.175,3.617l-.726.529L52.8,28a1.969,1.969,0,0,1-.726,2.236,1.969,1.969,0,0,1-2.351,0L49,29.708l-.727.527A2,2,0,0,1,45.2,28l.277-.854-.726-.529A1.97,1.97,0,0,1,44.02,24.382ZM23,8H41v2H23ZM19,8h2v2H19ZM29.253,26.617l-.726.529L28.8,28a1.969,1.969,0,0,1-.726,2.236,1.969,1.969,0,0,1-2.351,0L25,29.708l-.727.527A2,2,0,0,1,21.2,28l.277-.854-.726-.529A2,2,0,0,1,21.922,23h.9l.278-.854a2,2,0,0,1,3.8,0L27.18,23h.9a2,2,0,0,1,1.175,3.617ZM19,14V12H41v2ZM33.922,30.236A1.969,1.969,0,0,1,33.2,28l.277-.854-.726-.529A2,2,0,0,1,33.922,23h.9l.278-.854a2,2,0,0,1,3.8,0L39.18,23h.9a2,2,0,0,1,1.175,3.617l-.726.529L40.8,28a1.969,1.969,0,0,1-.726,2.236,1.969,1.969,0,0,1-2.351,0L37,29.708l-.727.527A1.97,1.97,0,0,1,33.922,30.236ZM38,38v2H36V38ZM52,56H36V54H52Zm4,0H54V54h2Zm0-4H36V50H56Zm0-4H36V46H56Zm0-4H36V42H56Zm0-4H40V38H56Z"></path><path d="M58.75,12,53,5.61V11a1,1,0,0,0,1,1Z"></path><rect x="4" y="41" width="6" height="12"></rect></g></svg>