<svg xmlns="http://www.w3.org/2000/svg" viewBox="0 0 64 64" x="0px" y="0px"><g><path d="M17,60H53a1,1,0,0,0,1-1V56H36a2,2,0,0,1-2-2V28H16V59A1,1,0,0,0,17,60Zm9-20H24a3,3,0,0,1,0-6V32h2v2a3,3,0,0,1,3,3H27a1,1,0,0,0-1-1H24a1,1,0,0,0,0,2h2a3,3,0,0,1,0,6v2H24V44a3,3,0,0,1-3-3h2a1,1,0,0,0,1,1h2a1,1,0,0,0,0-2Z"></path><polygon points="30.219 6 30.719 4 17.281 4 17.781 6 30.219 6"></polygon><path d="M16,23v3H34V22H17A1,1,0,0,0,16,23Zm10,0h2v2H26Zm-4,0h2v2H22Zm-4,0h2v2H18Z"></path><path d="M17,20H34V16a2,2,0,0,1,2-2h4V5a1,1,0,0,0-1-1H32.781L32.16,6.485A2,2,0,0,1,30.219,8H17.781A2,2,0,0,1,15.84,6.485L15.219,4H9A1,1,0,0,0,8,5V59a1,1,0,0,0,1,1h5.184A2.966,2.966,0,0,1,14,59V23A3,3,0,0,1,17,20Zm12-8h2v2H29Zm-4,0h2v2H25Zm-4,0h2v2H21Zm-4,0h2v2H17Z"></path><path d="M60,16H57v2H55V16H53v2H51V16H49v2H47V16H45v2H43V16H41v2H39V16H36V54H60ZM50,50H44V48h6Zm0-4H40V44H50Zm0-4H40V40H50Zm0-4H40V36H50Zm0-4H40V32H50Zm6,16H52V48h4Zm0-4H52V44h4Zm0-4H52V40h4Zm0-4H52V36h4Zm0-4H52V32h4Zm0-6H46V26H56Zm0-4H46V22H56Z"></path></g></svg>