<svg xmlns="http://www.w3.org/2000/svg" viewBox="0 0 64 64" x="0px" y="0px"><title>Financial Data</title><g data-name="Financial Data"><path d="M23,22A10,10,0,1,0,33,32,10.011,10.011,0,0,0,23,22Zm0,18a8,8,0,1,1,8-8A8.009,8.009,0,0,1,23,40Z"></path><path d="M23,29a.94.94,0,0,1,.862,1h2A2.993,2.993,0,0,0,24,27.2V26H22v1.2A2.993,2.993,0,0,0,20.138,30,2.937,2.937,0,0,0,23,33a1.011,1.011,0,1,1-.862,1h-2A2.993,2.993,0,0,0,22,36.8V38h2V36.8A2.993,2.993,0,0,0,25.862,34,2.937,2.937,0,0,0,23,31a1.011,1.011,0,0,1,0-2Z"></path><rect x="27" y="31" width="2" height="2"></rect><rect x="17" y="31" width="2" height="2"></rect><path d="M33,56H49V42H33Zm2-12H47V54H35Z"></path><rect x="15" y="8" width="2" height="2"></rect><rect x="19" y="8" width="20" height="2"></rect><path d="M44.414,2H9V62H55V12.586ZM45,5.414,51.586,12H45ZM11,60V4H43V14H53V60Z"></path><rect x="15" y="12" width="24" height="2"></rect><rect x="15" y="16" width="24" height="2"></rect><rect x="36" y="22" width="2" height="2"></rect><rect x="40" y="22" width="8" height="2"></rect><rect x="36" y="26" width="12" height="2"></rect><rect x="36" y="30" width="12" height="2"></rect><rect x="36" y="34" width="12" height="2"></rect><rect x="17" y="44" width="2" height="2"></rect><rect x="21" y="44" width="8" height="2"></rect><rect x="17" y="48" width="12" height="2"></rect><rect x="17" y="52" width="12" height="2"></rect></g></svg>