<svg xmlns="http://www.w3.org/2000/svg" viewBox="0 0 64 64" x="0px" y="0px"><g><path d="M57,31H27a1,1,0,0,0-1,1V48a1,1,0,0,0,1,1H57a1,1,0,0,0,1-1V32A1,1,0,0,0,57,31ZM55.29,47.71l-8.82-8.83-3.13,1.57a3.051,3.051,0,0,1-2.68,0l-3.13-1.57-8.82,8.83-1.42-1.42,8.36-8.35-8.1-4.05.9-1.78,13.1,6.55a1.017,1.017,0,0,0,.9,0l13.1-6.55.9,1.78-8.1,4.05,8.36,8.35Z"></path><path d="M47,10H46V29h4V13A3.009,3.009,0,0,0,47,10ZM45,51v3a2,2,0,0,1-2,2H12v1a3.009,3.009,0,0,0,3,3H47a3.009,3.009,0,0,0,3-3V51Zm-2,0H27a3.009,3.009,0,0,1-3-3V32a3.009,3.009,0,0,1,3-3H44V7a3.009,3.009,0,0,0-3-3H40v7a.987.987,0,0,1-.62.92A.838.838,0,0,1,39,12a1.007,1.007,0,0,1-.71-.29L36,9.41l-2.29,2.3a1,1,0,0,1-1.09.21A.987.987,0,0,1,32,11V4H9A3.009,3.009,0,0,0,6,7V51a3.009,3.009,0,0,0,3,3H41a2,2,0,0,0,2-2ZM40,25H24V23H40ZM16,8H28v2H16ZM10,8h4v2H10Zm0,5H28v2H10Zm0,5H40v2H10ZM20,49H10V47H20Zm0-4H10V43H20Zm0-5H10V38H20Zm0-5H10V33H20Zm0-5H10V28H20Zm2-5H10V23H22Z"></path><path d="M35.293,7.293a1,1,0,0,1,1.414,0L38,8.586V4H34V8.586Z"></path></g></svg>