<svg xmlns="http://www.w3.org/2000/svg" viewBox="0 0 64 64" x="0px" y="0px"><g data-name="Network"><path d="M58,16a4.985,4.985,0,0,0-3-4.58V9a7.008,7.008,0,0,0-7-7,7.008,7.008,0,0,0-7,7v2.422a4.958,4.958,0,0,0-2.152,1.817A19.769,19.769,0,0,0,19,16.84v-.866A4.977,4.977,0,0,0,21,12V11a1,1,0,0,0,1-1V8A6,6,0,0,0,10,8v2a1,1,0,0,0,1,1v1a4.977,4.977,0,0,0,2,3.974v1.1A7.011,7.011,0,0,0,7,24v3a1,1,0,0,0,1,1h4.4a19.8,19.8,0,0,0,.21,8.873A7.028,7.028,0,0,0,9,43v2.422a4.984,4.984,0,0,0-.814,8.7A6.946,6.946,0,0,0,7,58v3a1,1,0,0,0,1,1H24a1,1,0,0,0,1-1V58a6.946,6.946,0,0,0-1.186-3.882,4.963,4.963,0,0,0,2.069-3.1A19.739,19.739,0,0,0,32,52a19.989,19.989,0,0,0,11.582-3.708A5,5,0,0,0,45,49.974v1.1A7.011,7.011,0,0,0,39,58v3a1,1,0,0,0,1,1H56a1,1,0,0,0,1-1V58a7.011,7.011,0,0,0-6-6.929v-1.1A4.977,4.977,0,0,0,53,46V45a1,1,0,0,0,1-1V42a6,6,0,0,0-2.657-4.98A19.594,19.594,0,0,0,52,32a19.949,19.949,0,0,0-.4-4H56a1,1,0,0,0,1-1V24a6.946,6.946,0,0,0-1.186-3.882A4.978,4.978,0,0,0,58,16Zm-2,0a2.987,2.987,0,0,1-1.54,2.613A6.977,6.977,0,0,0,51,17.071v-1.1a4.992,4.992,0,0,0,1.9-2.96,2.745,2.745,0,0,1,.858.085A2.987,2.987,0,0,1,56,16Zm-7,1.586-1,1-1-1V16.9a5,5,0,0,0,2,0ZM48,15a3,3,0,0,1-3-3V11h.343a4.968,4.968,0,0,0,3.536-1.464L49,9.415l.707.706A2.981,2.981,0,0,0,51,10.885V12A3,3,0,0,1,48,15ZM43,9a5.009,5.009,0,0,1,5-5,5.006,5.006,0,0,1,5,5v1a1,1,0,0,0-1-1h-.172a1.009,1.009,0,0,1-.707-.293L49.707,7.293a1.028,1.028,0,0,0-1.414,0l-.828.829A2.983,2.983,0,0,1,45.343,9H44a1,1,0,0,0-1,1Zm-.729,4.093a2.711,2.711,0,0,1,.834-.077A4.989,4.989,0,0,0,45,15.974v1.1a6.977,6.977,0,0,0-3.46,1.542,2.992,2.992,0,0,1,.731-5.52ZM12,8a4,4,0,0,1,8,0V9h-.172a1.009,1.009,0,0,1-.707-.293L17.707,7.293a1,1,0,0,0-1.414,0l-.828.829A2.983,2.983,0,0,1,13.343,9H12Zm1.343,3a4.968,4.968,0,0,0,3.536-1.464L17,9.415l.707.706A2.96,2.96,0,0,0,19,10.87V12a3,3,0,0,1-6,0V11ZM16,17a5,5,0,0,0,1-.1v.687l-1,1-1-1V16.9A5,5,0,0,0,16,17ZM9,24a4.991,4.991,0,0,1,4.624-4.962l1.669,1.669a1,1,0,0,0,1.414,0l1.669-1.669A4.991,4.991,0,0,1,23,24v2H9Zm2,19a5.009,5.009,0,0,1,5-5,5.006,5.006,0,0,1,5,5v1a1,1,0,0,0-1-1h-.172a1.009,1.009,0,0,1-.707-.293l-1.414-1.414a1.028,1.028,0,0,0-1.414,0l-.828.829A2.983,2.983,0,0,1,13.343,43H12a1,1,0,0,0-1,1Zm6,8.586-1,1-1-1V50.9a5,5,0,0,0,2,0ZM16,49a3,3,0,0,1-3-3V45h.343a4.968,4.968,0,0,0,3.536-1.464L17,43.415l.707.706A2.981,2.981,0,0,0,19,44.885V46A3,3,0,0,1,16,49Zm-5.729-1.907a2.711,2.711,0,0,1,.834-.077A4.989,4.989,0,0,0,13,49.974v1.1a6.977,6.977,0,0,0-3.46,1.542,2.992,2.992,0,0,1,.731-5.52ZM23,60H9V58a4.991,4.991,0,0,1,4.624-4.962l1.669,1.669a1,1,0,0,0,1.414,0l1.669-1.669A4.991,4.991,0,0,1,23,58Zm-.54-7.387A6.977,6.977,0,0,0,19,51.071v-1.1a4.992,4.992,0,0,0,1.9-2.959,2.742,2.742,0,0,1,.858.084,2.992,2.992,0,0,1,.706,5.514ZM55,58v2H41V58a4.991,4.991,0,0,1,4.624-4.962l1.669,1.669a1,1,0,0,0,1.414,0l1.669-1.669A4.991,4.991,0,0,1,55,58Zm-6-6.414-1,1-1-1V50.9a5,5,0,0,0,2,0ZM48,49a3,3,0,0,1-3-3V45h.343a4.968,4.968,0,0,0,3.536-1.464L49,43.415l.707.706A2.96,2.96,0,0,0,51,44.87V46A3,3,0,0,1,48,49Zm4-6h-.172a1.009,1.009,0,0,1-.707-.293l-1.414-1.414a1,1,0,0,0-1.414,0l-.828.829A2.983,2.983,0,0,1,45.343,43H44V42a4,4,0,0,1,8,0ZM50,32a17.707,17.707,0,0,1-.505,4.2A5.977,5.977,0,0,0,42,42v2a1,1,0,0,0,1,1v1c0,.073.018.14.021.212A17.973,17.973,0,0,1,32,50a17.752,17.752,0,0,1-6.138-1.1A4.969,4.969,0,0,0,23,45.42V43a6.992,6.992,0,0,0-8.506-6.834A17.737,17.737,0,0,1,14.459,28H24a1,1,0,0,0,1-1V24a7,7,0,0,0-3.939-6.287,17.837,17.837,0,0,1,17.028-2.625,4.932,4.932,0,0,0,2.1,5.03A6.946,6.946,0,0,0,39,24v3a1,1,0,0,0,1,1h9.542A17.963,17.963,0,0,1,50,32Zm5-6H41V24a4.991,4.991,0,0,1,4.624-4.962l1.669,1.669a1,1,0,0,0,1.414,0l1.669-1.669A4.991,4.991,0,0,1,55,24Z"></path><rect x="31" y="8" width="2" height="2"></rect><rect x="27.006" y="8.35" width="1.999" height="2" transform="translate(-1.199 5.01) rotate(-10.01)"></rect><rect x="8" y="31" width="2" height="2"></rect><rect x="8.349" y="34.994" width="2" height="2" transform="translate(-6.106 2.169) rotate(-9.996)"></rect><rect x="27.006" y="53.651" width="2" height="1.999" transform="translate(-30.682 72.726) rotate(-79.986)"></rect><rect x="31" y="54" width="2" height="2"></rect><rect x="34.995" y="53.65" width="1.999" height="2" transform="translate(-8.951 7.088) rotate(-10.01)"></rect><rect x="53.651" y="34.994" width="2" height="2" transform="translate(9.717 83.568) rotate(-80.004)"></rect><rect x="54" y="31" width="2" height="2"></rect><rect x="34.994" y="8.35" width="2" height="1.999" transform="translate(20.528 43.169) rotate(-79.986)"></rect></g></svg>