<svg xmlns="http://www.w3.org/2000/svg" viewBox="0 0 64 64" x="0px" y="0px"><g><path d="M54,14a5.006,5.006,0,0,0-5,5V50a1,1,0,0,0,.1.447L51,54.236V57a3,3,0,0,0,6,0V54.236l1.9-3.789A1,1,0,0,0,59,50V19A5.006,5.006,0,0,0,54,14Zm0,2a3,3,0,0,1,3,3v1H51V19A3,3,0,0,1,54,16Zm1.382,37H52.618l-1.584-3.168A.988.988,0,0,1,52,49a1,1,0,0,1,1,1,1,1,0,0,0,2,0,1,1,0,0,1,1-1,.988.988,0,0,1,.966.832ZM56,47a2.963,2.963,0,0,0-1,.179V27H53V47.179a2.846,2.846,0,0,0-2,0V25h6V47.184A2.966,2.966,0,0,0,56,47Zm1-24H51V22h6ZM55,57a1,1,0,0,1-2,0V55h2Z"></path><path d="M42,12H36.969A4.952,4.952,0,0,0,34,11H32V7a5.006,5.006,0,0,0-5-5H25a5.006,5.006,0,0,0-5,5v4H18a4.952,4.952,0,0,0-2.969,1H10a5.006,5.006,0,0,0-5,5V57a5.006,5.006,0,0,0,5,5H42a5.006,5.006,0,0,0,5-5V17A5.006,5.006,0,0,0,42,12ZM16,56a5.006,5.006,0,0,1-5-5h4a1,1,0,0,1,1,1Zm-1-7H11V18h2v3a1,1,0,0,0,1,1H38a1,1,0,0,0,1-1V18h2V56H18V52A3,3,0,0,0,15,49Zm0-30H37v1H15Zm3-6h3a1,1,0,0,0,1-1V7a3,3,0,0,1,3-3h2a3,3,0,0,1,3,3v5a1,1,0,0,0,1,1h3a3,3,0,0,1,3,3v1H15V16A3,3,0,0,1,18,13ZM45,57a3,3,0,0,1-3,3H10a3,3,0,0,1-3-3V17a3,3,0,0,1,3-3h3.424A4.95,4.95,0,0,0,13,16H11a2,2,0,0,0-2,2V51a7.008,7.008,0,0,0,7,7H41a2,2,0,0,0,2-2V18a2,2,0,0,0-2-2H39a4.95,4.95,0,0,0-.424-2H42a3,3,0,0,1,3,3Z"></path><path d="M26,12a3,3,0,1,0-3-3A3,3,0,0,0,26,12Zm0-4a1,1,0,1,1-1,1A1,1,0,0,1,26,8Z"></path><path d="M22,43a1,1,0,0,0,.895-.553l.52-1.04.636,1.909A1,1,0,0,0,25,44h2a1,1,0,0,0,.949-.684l.636-1.909.52,1.04A1,1,0,0,0,30,43h3.382a2,2,0,0,0,1.789-2.9L32.9,35.553A1,1,0,0,0,32,35H31V32.379a10.724,10.724,0,0,0-1.873-6.142q-3.127-4.515-6.254,0A10.719,10.719,0,0,0,21,32.379V35H20a1,1,0,0,0-.895.553L16.829,40.1A2,2,0,0,0,18.618,43Zm3.721-1-.334-1h1.226l-.334,1Zm5.661-5,2,4H30.618l-.087-.174A.982.982,0,0,0,31,40V37ZM23,32.379a8.734,8.734,0,0,1,1.518-5C25.27,26.29,25.8,26,26,26s.73.29,1.482,1.376a8.734,8.734,0,0,1,1.518,5V39H27V34H25v5H23ZM20.618,37H21v3a.982.982,0,0,0,.469.826L21.382,41H18.618Z"></path><path d="M26,31.118l1.553.777.894-1.79-2-1a1,1,0,0,0-.894,0l-2,1,.894,1.79Z"></path><path d="M28,45v2a1,1,0,0,1,0,2,1,1,0,0,0-1,1,1,1,0,0,1-2,0,1,1,0,0,0-1-1,1,1,0,0,1,0-2V45a3,3,0,0,0-.871,5.871,3,3,0,0,0,5.742,0A3,3,0,0,0,28,45Z"></path></g></svg>