<svg xmlns="http://www.w3.org/2000/svg" viewBox="0 0 64 64" x="0px" y="0px"><g><rect x="34" y="46" width="12" height="6"></rect><path d="M16,37.969A4.982,4.982,0,0,1,12,40V59a1,1,0,0,0,1,1h3V47a3,3,0,0,1,3-3h6a3,3,0,0,1,3,3V60H51a1,1,0,0,0,1-1V40a4.982,4.982,0,0,1-4-2.031,4.954,4.954,0,0,1-8,0,4.954,4.954,0,0,1-8,0,4.954,4.954,0,0,1-8,0,4.954,4.954,0,0,1-8,0ZM32,46a2,2,0,0,1,2-2H46a2,2,0,0,1,2,2v6a2,2,0,0,1-2,2H34a2,2,0,0,1-2-2Z"></path><path d="M17,35a3,3,0,0,0,6,0V26H18.018A12.827,12.827,0,0,0,17,31Z"></path><path d="M7.029,34H8a1,1,0,0,1,1,1,2.987,2.987,0,0,0,2.247,2.9A2.7,2.7,0,0,0,12,38a3,3,0,0,0,3-3V31a14.843,14.843,0,0,1,.87-5.026A.989.989,0,0,1,15,25V20.59A16.858,16.858,0,0,0,7.029,34Z"></path><path d="M33,24H47V8H45V21a1,1,0,0,1-1,1H33Z"></path><path d="M17,8V24H31V22H20a1,1,0,0,1-1-1V8Z"></path><path d="M31,7V4H21V20H31ZM29,17H23V15h6Zm0-4H23V11h6Zm0-4H23V7h6Z"></path><path d="M28,38a3,3,0,0,0,3-3V26H25v9A3,3,0,0,0,28,38Z"></path><path d="M33,4V20H43V4Zm8,13H35V15h6Zm0-4H35V11h6Zm0-4H35V7h6Z"></path><path d="M33,35a3,3,0,0,0,6,0V26H33Z"></path><path d="M49,20.589V25a.989.989,0,0,1-.87.974A14.855,14.855,0,0,1,49,31v4a3,3,0,0,0,3,3,2.634,2.634,0,0,0,.729-.093A2.994,2.994,0,0,0,55,35a1,1,0,0,1,1-1h.972A16.886,16.886,0,0,0,49,20.589Z"></path><path d="M41,35a3,3,0,0,0,6,0V31a12.809,12.809,0,0,0-1.018-5H41Z"></path><path d="M19,46a1,1,0,0,0-1,1V60h8V47a1,1,0,0,0-1-1Zm6,9H23V51h2Z"></path></g></svg>