<svg xmlns="http://www.w3.org/2000/svg" viewBox="0 0 64 64" x="0px" y="0px"><g><path d="M25,6A19,19,0,1,0,44,25,19.021,19.021,0,0,0,25,6Zm0,36A17,17,0,1,1,42,25,17.019,17.019,0,0,1,25,42Z"></path><path d="M60.648,53.577,49.334,42.264a1.029,1.029,0,0,0-1.414,0l-.706.706-3.978-3.978a23.036,23.036,0,1,0-4.244,4.244l3.978,3.978-.706.706a1,1,0,0,0,0,1.414L53.577,60.648a5,5,0,0,0,7.071-7.071ZM4,25A21,21,0,1,1,25,46,21.024,21.024,0,0,1,4,25ZM41.947,40.531,45.8,44.38,44.38,45.8l-3.849-3.849Q41.269,41.271,41.947,40.531Zm17.287,18.7a3,3,0,0,1-4.243,0L44.385,48.627l4.242-4.242L59.234,54.991A3.005,3.005,0,0,1,59.234,59.234Z"></path><path d="M39.745,24.333c-.259-.289-6.226-6.831-13.91-7.289a7.945,7.945,0,0,0-1.67,0c-7.684.458-13.651,7-13.91,7.289a1,1,0,0,0,0,1.334c.259.289,6.226,6.831,13.91,7.289a7.945,7.945,0,0,0,1.67,0c7.684-.458,13.651-7,13.91-7.289A1,1,0,0,0,39.745,24.333ZM31,25a6,6,0,1,1-6-6A6.006,6.006,0,0,1,31,25ZM18.2,20.807a7.927,7.927,0,0,0,0,8.379A25.554,25.554,0,0,1,12.4,25,25.394,25.394,0,0,1,18.2,20.807Zm13.6,8.386a7.927,7.927,0,0,0,0-8.379A25.554,25.554,0,0,1,37.6,25,25.394,25.394,0,0,1,31.8,29.193Z"></path><path d="M25,29a4,4,0,1,0-4-4A4,4,0,0,0,25,29Zm0-6a2,2,0,1,1-2,2A2,2,0,0,1,25,23Z"></path></g></svg>