<svg xmlns="http://www.w3.org/2000/svg" viewBox="0 0 64 64" x="0px" y="0px"><g data-name="Medicine"><rect x="31" y="10" width="2" height="2"></rect><rect x="16.15" y="16.15" width="2" height="2" transform="translate(-7.104 17.15) rotate(-45)"></rect><rect x="10" y="31" width="2" height="2"></rect><rect x="16.15" y="45.85" width="2" height="2" transform="translate(-28.104 25.849) rotate(-45)"></rect><rect x="31" y="52" width="2" height="2"></rect><rect x="45.85" y="45.85" width="2" height="2" transform="translate(-19.406 46.85) rotate(-45)"></rect><rect x="52" y="31" width="2" height="2"></rect><rect x="45.85" y="16.15" width="2" height="2" transform="translate(1.595 38.151) rotate(-45)"></rect><path d="M34.311,4.1l1.4-1.4L34.293,1.293l-3,3a1,1,0,0,0,0,1.414l3,3,1.414-1.414L34.54,6.126a26,26,0,0,1,2.225,51.438l.363,1.967A28,28,0,0,0,34.311,4.1Z"></path><path d="M29.707,55.293l-1.414,1.414,1.167,1.167A26,26,0,0,1,28.154,6.282L27.861,4.3A28,28,0,0,0,29.689,59.9l-1.4,1.4,1.414,1.414,3-3a1,1,0,0,0,0-1.414Z"></path><path d="M34,29V24H30v5a1,1,0,0,1-1,1H24v4h5a1,1,0,0,1,1,1v5h4V35a1,1,0,0,1,1-1h5V30H35A1,1,0,0,1,34,29Z"></path><path d="M32,18A14,14,0,1,0,46,32,14.015,14.015,0,0,0,32,18Zm9,18H36v5a1,1,0,0,1-1,1H29a1,1,0,0,1-1-1V36H23a1,1,0,0,1-1-1V29a1,1,0,0,1,1-1h5V23a1,1,0,0,1,1-1h6a1,1,0,0,1,1,1v5h5a1,1,0,0,1,1,1v6A1,1,0,0,1,41,36Z"></path></g></svg>