<svg xmlns="http://www.w3.org/2000/svg" viewBox="0 0 64 64" x="0px" y="0px"><g data-name="Military Helmet"><path d="M59.979,34.048a36.677,36.677,0,0,0-.564-5.585,37.781,37.781,0,0,0-2.744-8.875h0A34.359,34.359,0,0,0,54.485,15.5v0l-.009-.014-.009-.015,0,0c-.143-.244-.3-.488-.45-.726A30.382,30.382,0,0,0,46.356,6.68a20.625,20.625,0,0,0-1.738-1.135A24.029,24.029,0,0,0,32,2,24.6,24.6,0,0,0,17.41,6.843l0,0h0c-.647.475-1.271.978-1.851,1.488A30.822,30.822,0,0,0,9.6,15.363c-.016.024-.038.066-.058.1h0a32.874,32.874,0,0,0-2.2,4.116l0,0c-.207.455-.4.9-.6,1.4-.159.408-.319.817-.463,1.223-.355.952-.662,1.917-.938,2.944v0h0a37.3,37.3,0,0,0-1.3,8.885A2.5,2.5,0,0,0,4.5,39H6.047C6.523,48.536,13.727,56.929,24,59.866V60a2,2,0,0,0,2,2H38a2,2,0,0,0,2-2v-.134C50.273,56.929,57.477,48.536,57.953,39H59.5a2.5,2.5,0,0,0,.479-4.952Zm-7.022,4.889c-.422,6.961-5.5,13.079-13.027,15.715A.994.994,0,0,0,39,54H25a.994.994,0,0,0-.93.652c-7.529-2.636-12.6-8.754-13.027-15.715A2.494,2.494,0,0,0,12.949,36h38.1a2.494,2.494,0,0,0,1.906,2.937ZM10.948,17H26v2H9.835Q10.354,17.98,10.948,17ZM56.9,26.332c.055.216.107.432.157.65.042.181.077.366.116.548a6.073,6.073,0,0,1-1.727-.425,4.511,4.511,0,0,1-1.715-1.245c-.088-.148-.3-.5.161-1.41A3.519,3.519,0,0,0,53.536,21h1.556c.164.38.326.76.476,1.146.045.116.095.23.139.346q.349.931.647,1.887c.052.165.1.333.146.5C56.643,25.359,56.778,25.843,56.9,26.332ZM54.17,19H38V17H53.062Q53.64,17.957,54.17,19ZM36,21H28V15h8ZM15.681,23.948a1.066,1.066,0,0,1,.5.293c-.038.012-.071.034-.108.047a4.948,4.948,0,0,0-.813.354l-.023.011a4.955,4.955,0,0,0-.735.52c-.057.047-.112.1-.166.145a4.95,4.95,0,0,0-.613.656c-.014.018-.024.039-.038.058a4.994,4.994,0,0,0-.442.732c-.019.038-.047.069-.065.107A3.023,3.023,0,0,1,10.9,25.553,2.786,2.786,0,0,0,8.141,24.14c-.135,0-.276,0-.424.015.137-.424.279-.842.435-1.259.142-.4.295-.79.457-1.205.094-.235.2-.462.3-.691h3.838A3.96,3.96,0,0,0,15.681,23.948Zm-.763,3.934A3,3,0,0,1,17.4,26.021,2.381,2.381,0,0,1,17.71,26H46.29a3,3,0,0,1,2.792,1.881L51.526,34H12.474ZM9.107,26.449a4.61,4.61,0,0,0,3.314,2.3L10.323,34H6.015a35.312,35.312,0,0,1,1.111-7.745C8.253,26.035,8.965,26.166,9.107,26.449ZM53.677,34l-2.74-6.865A4.99,4.99,0,0,0,46.29,24H18.219a2.693,2.693,0,0,0-1.9-1.948A2.223,2.223,0,0,1,14.869,21H26v1a1,1,0,0,0,1,1H37a1,1,0,0,0,1-1V21H51.189l.077.122c.719,1.121,1.135,1.844.839,2.431a3.318,3.318,0,0,0-.087,3.337,5.949,5.949,0,0,0,2.535,2,9.252,9.252,0,0,0,3,.688A34.567,34.567,0,0,1,57.986,34ZM19.955,7.535c.2-.128.4-.245.607-.366.3-.177.6-.352.9-.514.215-.116.431-.223.648-.331.3-.148.6-.291.9-.425.224-.1.448-.194.674-.285q.454-.185.916-.346c.228-.081.456-.16.686-.233.314-.1.631-.188.949-.273.228-.061.454-.124.684-.178.333-.077.669-.141,1.006-.2.219-.04.437-.085.657-.119.375-.057.754-.1,1.134-.135.187-.018.372-.046.56-.06C30.846,4.024,31.42,4,32,4c.5,0,1,.018,1.494.05.161.01.319.032.479.046.332.029.666.057,1,.1.187.025.371.061.557.09.3.048.6.095.9.155.191.039.379.087.569.131.289.067.578.133.865.211.19.052.377.113.566.17.282.086.565.173.845.27.187.065.373.138.558.209.276.1.552.211.825.327.188.08.374.166.56.251.265.121.529.246.791.378.193.1.384.2.575.3.141.076.282.158.423.238V7c0,1.395-1.467,4-5,4-1.817,0-3.158-.982-4.579-2.021C32.093,8.006,30.719,7,29,7a5.951,5.951,0,0,0-3.242,1.176c-1.423.884-2.546,1.587-5.243-.033q-.386-.231-.756-.475C19.824,7.625,19.889,7.577,19.955,7.535ZM16.87,9.841c.368-.323.77-.628,1.165-.937.47.331.95.653,1.45.953,3.744,2.247,5.731,1.01,7.329.016A4.213,4.213,0,0,1,29,9c1.065,0,2.073.737,3.24,1.592C33.782,11.721,35.529,13,38,13a6.81,6.81,0,0,0,6.859-4.923c.111.077.219.147.33.228A27.981,27.981,0,0,1,51.771,15H38V14a1,1,0,0,0-1-1H27a1,1,0,0,0-1,1v1H12.241A28.344,28.344,0,0,1,16.87,9.841ZM4,36.5a.5.5,0,0,1,.5-.5h6a.5.5,0,0,1,0,1h-6A.5.5,0,0,1,4,36.5ZM8.027,39h1C9.483,46.981,15.355,53.962,24,56.749V57.8C14.874,54.975,8.5,47.477,8.027,39ZM38,60H26V56H38v4Zm2-2.2v-1.05C48.645,53.962,54.517,46.981,54.972,39h1C55.5,47.477,49.126,54.975,40,57.8ZM59.5,37h-6a.5.5,0,0,1,0-1h6a.5.5,0,0,1,0,1Z"></path><circle cx="32" cy="18" r="2"></circle></g></svg>