<svg xmlns="http://www.w3.org/2000/svg" viewBox="0 0 64 64" x="0px" y="0px"><g data-name="Browser"><path d="M4,60H60V12H4ZM38,16H56v2H38Zm-4,0h2v2H34Zm0,4H56v2H34Zm0,4H56v2H34Zm0,4H56v2H34Zm0,4H56v2H34Zm0,6H56V56H34Zm-4,2H12V38H30ZM18,16A10,10,0,1,1,8,26,10.011,10.011,0,0,1,18,16ZM8,38h2v2H8Zm0,4H30v2H8Zm0,4H30v2H8Zm0,4H30v2H8Zm0,4H30v2H8Z"></path><path d="M19,18.069V25h6.931A8.008,8.008,0,0,0,19,18.069Z"></path><path d="M18,34a8.008,8.008,0,0,0,7.931-7H17V18.069A8,8,0,0,0,18,34Z"></path><path d="M36,54H54V40H36Zm4-7.414,2,2,4-4,2,2,3.293-3.293,1.414,1.414L48,49.414l-2-2-4,4-2-2-1.293,1.293-1.414-1.414Z"></path><path d="M60,4H4v6H60ZM8,8H6V6H8Zm4,0H10V6h2Zm4,0H14V6h2ZM58,8H56V6h2Z"></path></g></svg>