<svg xmlns="http://www.w3.org/2000/svg" viewBox="0 0 64 64" x="0px" y="0px"><g><path d="M24.974,22.822a8,8,0,0,0,14.052,0A2.994,2.994,0,1,0,40,17c-.086,0-.169.027-.254.035a8.011,8.011,0,0,0-6.506-5.929A2.556,2.556,0,0,1,34.447,9.9l-.894-1.79A4.607,4.607,0,0,0,32,9.345a4.607,4.607,0,0,0-1.553-1.24L29.553,9.9a2.547,2.547,0,0,1,1.2,1.212,8.01,8.01,0,0,0-6.5,5.928C24.169,17.027,24.086,17,24,17a3,3,0,1,0,.974,5.822ZM41,20a1,1,0,0,1-1,1,.957.957,0,0,1-.25-.05A7.984,7.984,0,0,0,40,19,1,1,0,0,1,41,20Zm-9-7a6,6,0,1,1-6,6A6.006,6.006,0,0,1,32,13Zm-9,7a1,1,0,0,1,1-1,7.984,7.984,0,0,0,.25,1.95A.957.957,0,0,1,24,21,1,1,0,0,1,23,20Z"></path><rect x="29" y="17" width="2" height="2"></rect><rect x="33" y="17" width="2" height="2"></rect><path d="M29.172,21.828a4,4,0,0,0,5.656,0l-1.414-1.414a2.047,2.047,0,0,1-2.828,0Z"></path><path d="M46,44H34a2,2,0,0,0-2,2v6a2,2,0,0,0,2,2H46a2,2,0,0,0,2-2V46A2,2,0,0,0,46,44ZM34,52V46H46v6Z"></path><path d="M53.816,60A2.966,2.966,0,0,0,54,59V39.577A4.98,4.98,0,0,0,56.9,36H58a1,1,0,0,0,1-1A18.89,18.89,0,0,0,47.989,17.781a15.99,15.99,0,0,0-31.977-.009A18.937,18.937,0,0,0,5,35a1,1,0,0,0,1,1H7.1A4.977,4.977,0,0,0,10,39.581V59a2.966,2.966,0,0,0,.184,1H4v2H60V60Zm3.156-26H56a1,1,0,0,0-1,1,2.994,2.994,0,0,1-2.271,2.907A2.634,2.634,0,0,1,52,38a3,3,0,0,1-3-3V31A14.943,14.943,0,0,0,47,23.529a15.8,15.8,0,0,0,.875-3.59A16.937,16.937,0,0,1,56.972,34ZM23,31.218V35a3,3,0,0,1-6,0V31a12.962,12.962,0,0,1,1.07-5.157A16.092,16.092,0,0,0,23,31.218Zm2,1.147a15.852,15.852,0,0,0,6,1.584V35a3,3,0,0,1-6,0Zm8,1.584a15.852,15.852,0,0,0,6-1.584V35a3,3,0,0,1-6,0Zm8-2.731a16.092,16.092,0,0,0,4.93-5.375A12.962,12.962,0,0,1,47,31v4a3,3,0,0,1-6,0ZM32,4A14,14,0,1,1,18,18,14.015,14.015,0,0,1,32,4ZM9,35a1,1,0,0,0-1-1H7.029a16.941,16.941,0,0,1,9.1-14.066,15.851,15.851,0,0,0,.876,3.595A14.943,14.943,0,0,0,15,31v4a3,3,0,0,1-3,3,2.713,2.713,0,0,1-.754-.1A2.987,2.987,0,0,1,9,35ZM26,60H18V47a1,1,0,0,1,1-1h6a1,1,0,0,1,1,1Zm2,0V47a3,3,0,0,0-3-3H19a3,3,0,0,0-3,3V60H13a1,1,0,0,1-1-1V40a4.982,4.982,0,0,0,4-2.031,4.954,4.954,0,0,0,8,0,4.954,4.954,0,0,0,8,0,4.954,4.954,0,0,0,8,0,4.954,4.954,0,0,0,8,0A4.982,4.982,0,0,0,52,40V59a1,1,0,0,1-1,1Z"></path><rect x="23" y="51" width="2" height="4"></rect></g></svg>