<svg xmlns="http://www.w3.org/2000/svg" viewBox="0 0 64 64" x="0px" y="0px"><g><path d="M61.707,52.293l-10-10A1,1,0,0,0,51,42H49V40h6a2,2,0,0,0,2,2h2a2,2,0,0,0,2-2V32a2,2,0,0,0-2-2H57a2,2,0,0,0-2,2H49V12h5a1,1,0,0,0,1-1V6a4,4,0,0,0-4-4H20a5.006,5.006,0,0,0-5,5V32H9a2,2,0,0,0-2-2H5a2,2,0,0,0-2,2v8a2,2,0,0,0,2,2H7a2,2,0,0,0,2-2h6v2H13a1,1,0,0,0-.707.293l-10,10A1,1,0,0,0,2,53v8a1,1,0,0,0,1,1H61a1,1,0,0,0,1-1V53A1,1,0,0,0,61.707,52.293ZM57,32h2v8H57ZM53,6v4H49V6a2,2,0,0,1,4,0ZM17,7a3,3,0,0,1,3-3H47.556A3.959,3.959,0,0,0,47,6V32H17ZM7,40H5V32H7Zm2-6H55v4H9Zm8,6H47v2H17Zm26.709,4C42.57,46.05,38.083,48,32,48s-10.57-1.95-11.709-4ZM60,60H4V53.414L13.414,44h4.739C19.1,47.434,24.832,50,32,50s12.9-2.566,13.847-6h4.739L60,53.414Z"></path><rect x="21" y="26" width="22" height="2"></rect><rect x="21" y="20" width="22" height="2"></rect><rect x="21" y="14" width="22" height="2"></rect><rect x="21" y="8" width="22" height="2"></rect><rect x="9" y="56" width="2" height="2"></rect><rect x="13" y="56" width="2" height="2"></rect><rect x="17" y="56" width="2" height="2"></rect><rect x="21" y="56" width="2" height="2"></rect><rect x="25" y="56" width="2" height="2"></rect><rect x="29" y="56" width="2" height="2"></rect><rect x="33" y="56" width="2" height="2"></rect><rect x="37" y="56" width="2" height="2"></rect><rect x="41" y="56" width="2" height="2"></rect><rect x="45" y="56" width="2" height="2"></rect><rect x="49" y="56" width="2" height="2"></rect><rect x="53" y="56" width="2" height="2"></rect><rect x="11" y="52" width="2" height="2"></rect><rect x="15" y="52" width="2" height="2"></rect><rect x="19" y="52" width="2" height="2"></rect><rect x="23" y="52" width="2" height="2"></rect><rect x="27" y="52" width="2" height="2"></rect><rect x="31" y="52" width="2" height="2"></rect><rect x="35" y="52" width="2" height="2"></rect><rect x="39" y="52" width="2" height="2"></rect><rect x="43" y="52" width="2" height="2"></rect><rect x="47" y="52" width="2" height="2"></rect><rect x="51" y="52" width="2" height="2"></rect></g></svg>