<svg xmlns="http://www.w3.org/2000/svg" viewBox="0 0 64 64" x="0px" y="0px"><g><path d="M42.037,40.482,33.657,47H30.343l-2.349-1.827-1.228,1.579,2.62,2.038A1,1,0,0,0,30,49h4a1,1,0,0,0,.614-.21l9-7A1,1,0,0,0,44,41.077l.307-3.984-1.994-.154Z"></path><path d="M39,19H32v2h6.445l.738,1.178,1.7-1.059-1.03-1.649A1,1,0,0,0,39,19Z"></path><path d="M25.554,21H26V19H25a1,1,0,0,0-.848.469l-5.061,8.084,1.7,1.062Z"></path><path d="M21.836,38.957l-1.994.164L20,41.082a1,1,0,0,0,.383.708l2.362,1.836,1.229-1.579L21.961,40.48Z"></path><path d="M61.71,20.29l-5-5A1.033,1.033,0,0,0,56,15H46a1.033,1.033,0,0,0-.71.29l-2.17,2.18-1.28-2.01A.985.985,0,0,0,41,15H37.87l.96-1.45A.967.967,0,0,0,39,13V7a1,1,0,0,0-.45-.83l-6-4a.963.963,0,0,0-1.1,0l-6,4A1,1,0,0,0,25,7v6a.967.967,0,0,0,.17.55L26.13,15H23a.985.985,0,0,0-.84.46l-1.28,2.01-2.17-2.18A1.033,1.033,0,0,0,18,15H8a1.033,1.033,0,0,0-.71.29l-5,5A1.033,1.033,0,0,0,2,21v9a1,1,0,0,0,1,1,6.885,6.885,0,0,0,4.94-2.05A6.894,6.894,0,0,0,10,24V23h5.57l1.07,1.13-1.48,2.33a.989.989,0,0,0-.16.6l1,16a1.039,1.039,0,0,0,.4.74l3.18,2.38-1.62.59a5.031,5.031,0,0,0-2.99,6.41l2.74,7.51a1,1,0,0,0,.94.66,1.016,1.016,0,0,0,.34-.06,6.987,6.987,0,0,0,4.46-8.01l3.77-1.37,1.18.89a.984.984,0,0,0,.6.2v2a1.033,1.033,0,0,0,.29.71l2,2a1.014,1.014,0,0,0,1.42,0l2-2A1.033,1.033,0,0,0,35,55V53a.984.984,0,0,0,.6-.2l1.18-.89,3.77,1.37a6.987,6.987,0,0,0,4.46,8.01,1.016,1.016,0,0,0,.34.06,1,1,0,0,0,.94-.66l2.74-7.51a5.031,5.031,0,0,0-2.99-6.41l-1.62-.59L47.6,43.8a1.039,1.039,0,0,0,.4-.74l1-16a.989.989,0,0,0-.16-.6l-1.48-2.33L48.43,23H54v1a7.016,7.016,0,0,0,7,7,1,1,0,0,0,1-1V21A1.033,1.033,0,0,0,61.71,20.29ZM27,7.54,32,4.2l5,3.34V12.7L35.46,15H33V13h1a.988.988,0,0,0,.89-.55l1-2-1.78-.9L33.38,11H33V8H31v3h-.38l-.73-1.45-1.78.9,1,2A.988.988,0,0,0,30,13h1v2H28.54L27,12.7ZM16,21H9a1,1,0,0,0-1,1v2a5.005,5.005,0,0,1-4,4.9V27H6V25H4V23H6V21H4.41l4-4h9.18l2.19,2.2-2.03,3.19-1.02-1.08A1,1,0,0,0,16,21Zm5.89,30.72a1.037,1.037,0,0,0-.57.52,1.026,1.026,0,0,0-.03.77,4.789,4.789,0,0,1,.31,1.71,5.025,5.025,0,0,1-2.39,4.26L16.85,52.5a3.019,3.019,0,0,1,1.79-3.85l2.85-1.04,3.82,2.87ZM33,54.59l-1,1-1-1V53h2Zm12.36-5.94a3.019,3.019,0,0,1,1.79,3.85l-2.36,6.48a5.025,5.025,0,0,1-2.39-4.26,4.789,4.789,0,0,1,.31-1.71,1.026,1.026,0,0,0-.03-.77,1.037,1.037,0,0,0-.57-.52l-3.42-1.24,3.82-2.87Zm.67-6.17L34.67,51H29.33L17.97,42.48l-.95-15.22L23.55,17h16.9l6.53,10.26ZM60,25H58v2h2v1.9A5.005,5.005,0,0,1,56,24V22a1,1,0,0,0-1-1H48a1,1,0,0,0-.73.31l-1.02,1.08L44.22,19.2,46.41,17h9.18l4,4H58v2h2Z"></path><path d="M32.2,40.125l-4.5-7.8A1,1,0,0,0,27.381,32l-1.669-1.1L24.33,28.5a1,1,0,0,0-.607-.466.992.992,0,0,0-.759.1l-3.464,2a1,1,0,0,0-.366,1.366l1.382,2.394.12,2a.989.989,0,0,0,.132.44l4.5,7.8a1,1,0,0,0,1.366.366l5.2-3A1,1,0,0,0,32.2,40.125Zm-5.7,2.133-3.882-6.723-.12-2a1,1,0,0,0-.132-.44l-1-1.732,1.732-1,1,1.732a1.009,1.009,0,0,0,.315.335l1.669,1.1,3.882,6.723Z"></path><path d="M38,24v3H36V24a1,1,0,0,0-1-1H32a1,1,0,0,0-1,1V34a3,3,0,0,0,3,3h6a3,3,0,0,0,3-3V24a1,1,0,0,0-1-1H39A1,1,0,0,0,38,24Zm2,4V25h1v6H35v2h6v1a1,1,0,0,1-1,1H34a1,1,0,0,1-1-1V25h1v3a1,1,0,0,0,1,1h4A1,1,0,0,0,40,28Z"></path><rect x="35" y="39" width="2" height="2"></rect><rect x="32" y="43" width="2" height="2"></rect><rect x="25" y="24" width="2" height="2"></rect><rect x="27" y="27" width="2" height="2"></rect><rect x="28" y="21" width="2" height="2"></rect></g></svg>