<svg xmlns="http://www.w3.org/2000/svg" viewBox="0 0 64 64" x="0px" y="0px"><g data-name="Mobile Phone-Cellphone-Retro-Communication-Technology"><path d="M46,2H18a5.006,5.006,0,0,0-5,5V57a5.006,5.006,0,0,0,5,5H46a5.006,5.006,0,0,0,5-5V7A5.006,5.006,0,0,0,46,2Zm3,55a3,3,0,0,1-3,3H18a3,3,0,0,1-3-3V7a3,3,0,0,1,3-3H46a3,3,0,0,1,3,3Z"></path><path d="M45,10H19a2,2,0,0,0-2,2V34a2,2,0,0,0,2,2H45a2,2,0,0,0,2-2V12A2,2,0,0,0,45,10ZM19,34V12H45V34Z"></path><rect x="28" y="6" width="8" height="2"></rect><rect x="38" y="6" width="2" height="2"></rect><path d="M45,38H19a2,2,0,0,0-2,2v4a2,2,0,0,0,2,2H45a2,2,0,0,0,2-2V40A2,2,0,0,0,45,38ZM34,42a2,2,0,1,1-2-2A2,2,0,0,1,34,42ZM19,40h9.556a3.875,3.875,0,0,0,0,4H19Zm16.444,4a3.875,3.875,0,0,0,0-4H45v4Z"></path><rect x="28" y="52" width="8" height="2"></rect><rect x="38" y="52" width="8" height="2"></rect><rect x="18" y="52" width="8" height="2"></rect><rect x="28" y="48" width="8" height="2"></rect><rect x="38" y="48" width="8" height="2"></rect><rect x="18" y="48" width="8" height="2"></rect><rect x="28" y="56" width="8" height="2"></rect><rect x="38" y="56" width="8" height="2"></rect><rect x="18" y="56" width="8" height="2"></rect><path d="M21,16v3h2V16h3V14H23A2,2,0,0,0,21,16Z"></path><rect x="21" y="21" width="2" height="2"></rect></g></svg>