<svg xmlns="http://www.w3.org/2000/svg" viewBox="0 0 512 512" x="0px" y="0px"><g data-name="Wedding"><path d="M488.78,89.36a11.3,11.3,0,0,0-13.85-8L464,84.29l-2.93-10.93a11.311,11.311,0,1,0-21.85,5.86L448,112l32.78-8.78A11.315,11.315,0,0,0,488.78,89.36Z"></path><path d="M289.94,54.06a16,16,0,0,0-22.63-22.63L256,42.75,244.69,31.43a16,16,0,0,0-22.63,22.63l11.31,11.31L256,88l22.63-22.63Z"></path><path d="M64.78,65.36a11.305,11.305,0,0,0-13.85,8L48,84.29,37.07,81.36a11.315,11.315,0,0,0-5.85,21.86L64,112l8.78-32.78A11.311,11.311,0,0,0,64.78,65.36Z"></path><path d="M96,284V272H88v12a4,4,0,0,0,8,0Z"></path><path d="M152,155.056V151.2a40.154,40.154,0,0,1-16,0v3.861l8,4Z"></path><path d="M155.9,170.993l-8.325,4.162a8,8,0,0,1-7.156,0l-8.325-4.162L144,206.7Z"></path><path d="M112,284v4h24V233.3l-21.6-64.8A32.045,32.045,0,0,0,88,200v56h8V192h16v92Z"></path><path d="M247.069,271.386l-6-10.39-6.925,4,6,10.4a4,4,0,1,0,6.922-4Z"></path><path d="M200,480v-8a8.009,8.009,0,0,0-8-8H152v11.056L161.889,480Z"></path><path d="M233.07,247.139,194.309,180a24.062,24.062,0,0,0-20.545-11.992L152,233.3V288h24V194.14a8,8,0,0,1,14.928-4l35.217,61Z"></path><polygon points="136 328 152 328 152 448 176 448 176 304 112 304 112 448 136 448 136 328"></polygon><path d="M168,112V95.271A31.7,31.7,0,0,1,150.5,84.81l-1.817,1.817A31.793,31.793,0,0,1,126.059,96H120v16a24,24,0,0,0,48,0Z"></path><path d="M136,475.056V464H96a8.009,8.009,0,0,0-8,8v8h38.111Z"></path><path d="M160,48H102.948l7.708,11.562a8,8,0,0,1,.5,8.016l-4.422,8.844L113.889,80h12.17a15.891,15.891,0,0,0,11.313-4.686l8.971-8.971a8,8,0,0,1,12.812,2.08l1.366,2.733A15.9,15.9,0,0,0,171.255,79.6L176,70.111V64A16.019,16.019,0,0,0,160,48Z"></path><path d="M264.928,271.39a4,4,0,0,0,1.458,5.46,3.995,3.995,0,0,0,5.465-1.457l6-10.4-6.926-4Z"></path><path d="M336,88h10.745a23.85,23.85,0,0,0,16.972-7.03l6.626-6.627a8,8,0,0,1,11.314,0l11.314,11.314A7.944,7.944,0,0,0,398.627,88H400V80a32,32,0,0,0-64,0Z"></path><path d="M404.919,127.383A40.218,40.218,0,0,1,392,143.977V144a15.693,15.693,0,0,0,2.9,9.115,53.4,53.4,0,0,1,17.013,6.36A15.767,15.767,0,0,0,424,144a16.019,16.019,0,0,0-16-16A7.962,7.962,0,0,1,404.919,127.383Z"></path><path d="M360,475.056V464H320a8.009,8.009,0,0,0-8,8v8h38.111Z"></path><path d="M397.241,261.873l-4.595-10.722A8.013,8.013,0,0,1,392,248V232a8.026,8.026,0,0,1,.155-1.569l8-40,15.69,3.138L408,232.792v13.566l3.948,9.212c.062.143.117.287.178.43H424V208a39.828,39.828,0,0,0-18.131-33.46,38.391,38.391,0,0,0-8.828-4.347C392.032,178.461,381.041,184,368,184c-14.151,0-25.889-6.523-30.186-15.978A24.079,24.079,0,0,0,317.687,180l-38.759,67.136,6.927,4,35.538-61.549a8,8,0,0,1,14.772,2.432l7.68,38.411A8.009,8.009,0,0,1,344,232v16a8.013,8.013,0,0,1-.646,3.151l-4.595,10.722A230.663,230.663,0,0,0,320,352H416A230.663,230.663,0,0,0,397.241,261.873Z"></path><rect x="344" y="368" width="16" height="80"></rect><path d="M424,284V272h-5.695q2.542,7.308,4.612,14.731A3.97,3.97,0,0,0,424,284Z"></path><rect x="376" y="368" width="16" height="80"></rect><path d="M424,480v-8a8.009,8.009,0,0,0-8-8H376v11.056L385.889,480Z"></path><path d="M359.214,151.016a31.561,31.561,0,0,1-5.585,12.062c2.445,2.528,7.6,4.922,14.371,4.922s11.927-2.394,14.371-4.923a31.507,31.507,0,0,1-5.586-12.061,39.712,39.712,0,0,1-17.571,0Z"></path><path d="M328,128a16.019,16.019,0,0,0-16,16,15.822,15.822,0,0,0,6.868,13.17A39.984,39.984,0,0,1,338.48,152h3.341A15.7,15.7,0,0,0,344,144v-.023a40.218,40.218,0,0,1-12.918-16.594A7.962,7.962,0,0,1,328,128Z"></path><path d="M392,112v-8.928a23.871,23.871,0,0,1-10.344-6.1L376,91.314l-.97.97A39.742,39.742,0,0,1,346.745,104H344v8a24,24,0,0,0,48,0Z"></path></g></svg>