<svg xmlns="http://www.w3.org/2000/svg" viewBox="0 0 64 64" x="0px" y="0px"><g data-name="Walkie Talkie"><path d="M45,16H44V13a1,1,0,0,0-1-1H39a1,1,0,0,0-1,1v3H36V13a1,1,0,0,0-1-1H31a1,1,0,0,0-1,1v3H27.754L24.376,4.176A3.014,3.014,0,0,0,21.491,2H17a3,3,0,0,0-3,3V57a5.006,5.006,0,0,0,5,5H45a5.006,5.006,0,0,0,5-5V21A5.006,5.006,0,0,0,45,16Zm-5-2h2v2H40Zm-8,0h2v2H32ZM16,5a1,1,0,0,1,1-1h4.491a1,1,0,0,1,.962.726L25.674,16H16ZM48,57a3,3,0,0,1-3,3H19a3,3,0,0,1-3-3V18H45a3,3,0,0,1,3,3Z"></path><rect x="19" y="20" width="26" height="2"></rect><rect x="19" y="25" width="26" height="2"></rect><rect x="19" y="29" width="26" height="2"></rect><path d="M44,34H20a1,1,0,0,0-1,1v6a1,1,0,0,0,1,1H44a1,1,0,0,0,1-1V35A1,1,0,0,0,44,34Zm-1,6H21V36H43Z"></path><path d="M32,46a5,5,0,1,0,5,5A5.006,5.006,0,0,0,32,46Zm0,8a3,3,0,1,1,3-3A3,3,0,0,1,32,54Z"></path><path d="M44,44H40a1,1,0,0,0-1,1v4a1,1,0,0,0,1,1h4a1,1,0,0,0,1-1V45A1,1,0,0,0,44,44Zm-1,4H41V46h2Z"></path><path d="M44,52H40a1,1,0,0,0-1,1v4a1,1,0,0,0,1,1h4a1,1,0,0,0,1-1V53A1,1,0,0,0,44,52Zm-1,4H41V54h2Z"></path><path d="M24,44H20a1,1,0,0,0-1,1v4a1,1,0,0,0,1,1h4a1,1,0,0,0,1-1V45A1,1,0,0,0,24,44Zm-1,4H21V46h2Z"></path><path d="M24,52H20a1,1,0,0,0-1,1v4a1,1,0,0,0,1,1h4a1,1,0,0,0,1-1V53A1,1,0,0,0,24,52Zm-1,4H21V54h2Z"></path></g></svg>