<svg xmlns="http://www.w3.org/2000/svg" data-name="Video Player-Smartphone-Streaming-Technology-CD Player" viewBox="0 0 64 64" x="0px" y="0px"><path d="M46,2H18a6.006,6.006,0,0,0-6,6V56a6.006,6.006,0,0,0,6,6H46a6.006,6.006,0,0,0,6-6V8A6.006,6.006,0,0,0,46,2Zm4,54a4,4,0,0,1-4,4H18a4,4,0,0,1-4-4V8a4,4,0,0,1,4-4H46a4,4,0,0,1,4,4Z"></path><path d="M34,52H30a3,3,0,0,0,0,6h4a3,3,0,0,0,0-6Zm0,4H30a1,1,0,0,1,0-2h4a1,1,0,0,1,0,2Z"></path><rect x="25" y="6" width="2" height="2"></rect><rect x="29" y="6" width="6" height="2"></rect><path d="M32,13A13,13,0,1,0,45,26,13.015,13.015,0,0,0,32,13Zm0,24A11,11,0,1,1,43,26,11.013,11.013,0,0,1,32,37Z"></path><path d="M32,23a3,3,0,1,0,3,3A3,3,0,0,0,32,23Zm0,4a1,1,0,1,1,1-1A1,1,0,0,1,32,27Z"></path><path d="M32,33v2a9.094,9.094,0,0,0,2.248-.283l-.5-1.938A7.029,7.029,0,0,1,32,33Z"></path><path d="M35.5,32.064l1,1.731a9.061,9.061,0,0,0,3.845-4.42l-1.854-.75A7.06,7.06,0,0,1,35.5,32.064Z"></path><path d="M27,41a3,3,0,0,0-2.816,2H19v2h5.184a2.982,2.982,0,0,0,5.632,0H45V43H29.816A3,3,0,0,0,27,41Zm0,4a1,1,0,1,1,1-1A1,1,0,0,1,27,45Z"></path></svg>