<svg xmlns="http://www.w3.org/2000/svg" viewBox="0 0 64 64" x="0px" y="0px"><g data-name="Chair-Furniture-Desk Chair-Livingroom-Seat"><path d="M48,38.95V33a3.01,3.01,0,0,0-2-2.82V7a5,5,0,0,0-5-5H23a5,5,0,0,0-5,5V30.18A3.01,3.01,0,0,0,16,33v5.95L14,60.91A1.01,1.01,0,0,0,15,62h4a1,1,0,0,0,.98-.82L20.93,56H43.07l.95,5.18A1,1,0,0,0,45,62h4a1.01,1.01,0,0,0,1-1.09ZM20,7a3.009,3.009,0,0,1,3-3H41a3.009,3.009,0,0,1,3,3V30H20ZM18,33a1,1,0,0,1,1-1H45a1,1,0,0,1,1,1v5H18ZM41.98,50H22.02l1.81-10H40.17ZM18.17,60H16.1l1.81-20H21.8Zm3.12-6,.36-2h20.7l.36,2Zm24.54,6L42.2,40h3.89L47.9,60Z"></path><rect x="25" y="16" width="14" height="2"></rect><rect x="25" y="10" width="14" height="2"></rect><rect x="25" y="22" width="14" height="2"></rect></g></svg>