<svg xmlns="http://www.w3.org/2000/svg" viewBox="0 0 64 64" x="0px" y="0px"><g><path d="M23,6A17,17,0,1,0,40,23,17.019,17.019,0,0,0,23,6Zm0,32A15,15,0,1,1,38,23,15.017,15.017,0,0,1,23,38Z"></path><path d="M28,14a6,6,0,0,0-5,2.687A6,6,0,0,0,18,14a5.868,5.868,0,0,0-6,6c0,6.446,10,13.521,10.427,13.819a1,1,0,0,0,1.146,0C24,33.521,34,26.446,34,20A5.868,5.868,0,0,0,28,14ZM23,31.766C20.037,29.559,14,24.2,14,20a3.87,3.87,0,0,1,4-4,4,4,0,0,1,4,4,1,1,0,0,0,2,0,4,4,0,0,1,4-4,3.87,3.87,0,0,1,4,4C32,24.2,25.963,29.559,23,31.766Z"></path><path d="M61.184,55.527,43.51,37.854a2,2,0,0,0,0-2.829l-2.044-2.043a20.986,20.986,0,1,0-8.484,8.484l2.043,2.044a2,2,0,0,0,2.829,0L55.526,61.184a3,3,0,0,0,4.244,0l1.414-1.414a3,3,0,0,0,0-4.243ZM9.564,36.436a19,19,0,1,1,26.872,0A19.026,19.026,0,0,1,9.564,36.436ZM34.744,40.4A20.539,20.539,0,0,0,40.4,34.744l1.7,1.7L36.439,42.1ZM59.77,58.355,58.355,59.77a1.024,1.024,0,0,1-1.414,0L39.268,42.1,42.1,39.268,59.77,56.942a1,1,0,0,1,0,1.413Z"></path></g></svg>