<svg xmlns="http://www.w3.org/2000/svg" viewBox="0 0 64 64" x="0px" y="0px"><g data-name="Van"><path d="M59.949,25.536,49.465,15.05A6.958,6.958,0,0,0,44.515,13H5a3,3,0,0,0-3,3V40a5.006,5.006,0,0,0,5,5H8.08a6.991,6.991,0,0,0,13.84,0H42.08a6.991,6.991,0,0,0,13.84,0H59a3,3,0,0,0,3-3V30.485A6.951,6.951,0,0,0,59.949,25.536ZM58.576,27H40V19H50.586l7.949,7.95C58.551,26.966,58.561,26.984,58.576,27ZM38,27H8V19H38ZM4,40V33H7V31H4V16a1,1,0,0,1,1-1H44.515a4.973,4.973,0,0,1,3.536,1.464l.535.536H8a2,2,0,0,0-2,2v8a2,2,0,0,0,2,2H38V43H21.92A6.991,6.991,0,0,0,8.08,43H7A3,3,0,0,1,4,40Zm11,9a5,5,0,1,1,5-5A5.006,5.006,0,0,1,15,49Zm34,0a5,5,0,1,1,5-5A5.006,5.006,0,0,1,49,49Zm10-6H55.92a6.991,6.991,0,0,0-13.84,0H40V29H59.752A5,5,0,0,1,60,30.485V31H57a3,3,0,0,0,0,6h3v2H57v2h3v1A1,1,0,0,1,59,43Zm1-10v2H57a1,1,0,0,1,0-2Z"></path><rect x="42" y="31" width="4" height="2"></rect><rect x="14" y="43" width="2" height="2"></rect><rect x="48" y="43" width="2" height="2"></rect></g></svg>