<svg xmlns="http://www.w3.org/2000/svg" viewBox="0 0 64 64" x="0px" y="0px"><g data-name="Report"><path d="M17,42a7,7,0,1,0-7-7A7.008,7.008,0,0,0,17,42Zm1-6H16a3,3,0,0,1,0-6V29h2v1a3,3,0,0,1,3,3H19a1,1,0,0,0-1-1H16a1,1,0,0,0,0,2h2a3,3,0,0,1,0,6v1H16V40a3,3,0,0,1-3-3h2a1,1,0,0,0,1,1h2a1,1,0,0,0,0-2Z"></path><path d="M58,5a1,1,0,0,0-1-1H51a4.987,4.987,0,0,1,1,3V34a3,3,0,0,0,6,0Z"></path><path d="M49.118,4.872A3,3,0,0,0,44,7V37h7a4.98,4.98,0,0,1-1-3V7A3.018,3.018,0,0,0,49.118,4.872Z"></path><path d="M9,4A3,3,0,0,0,6,7V59a1,1,0,0,0,1,1H41a1,1,0,0,0,1-1V7a4.98,4.98,0,0,1,1-3ZM8,8h4v2H8ZM8,20H34v2H8ZM38,31v2H30V31Zm-8-2V27h2v2Zm4,0V27h4v2ZM17,26a9,9,0,1,1-9,9A9.011,9.011,0,0,1,17,26ZM8,48h4v2H8Zm32,8H8V54H40Zm0-6H14V48H40Zm0-28H36V20h4Zm0-6H8V14H40Zm0-6H14V8H40Z"></path></g></svg>