<svg xmlns="http://www.w3.org/2000/svg" viewBox="0 0 64 64" x="0px" y="0px"><g data-name="Lamp-Light-Desk Lamp-Illumination-Technology"><path d="M52,56V55a5.017,5.017,0,0,0-4-4.9V19a1.033,1.033,0,0,0-.29-.71L38.58,9.17a5.045,5.045,0,0,0,.59-2.34,5,5,0,0,0-8.54-3.54L26.25,7.68a10.982,10.982,0,0,0-11.17,2.68l-.84.84a2.992,2.992,0,0,0-3.4,4.82l3.6,3.61a5,5,0,0,0,6.93,6.93l3.61,3.6a2.992,2.992,0,0,0,4.82-3.4l.84-.84A11.022,11.022,0,0,0,33.5,15.4L40,21.9V50H36V47a1,1,0,0,0-1-1H31a1,1,0,0,0-1,1v3.1A5.017,5.017,0,0,0,26,55v1a3.009,3.009,0,0,0-3,3v2a1,1,0,0,0,1,1H54a1,1,0,0,0,1-1V59A3.009,3.009,0,0,0,52,56ZM16.49,24.51a3.011,3.011,0,0,1-.87-2.13,2.97,2.97,0,0,1,.3-1.28l3.98,3.98A3,3,0,0,1,16.49,24.51Zm11.32,4.24a1.027,1.027,0,0,1-1.42,0L12.25,14.61a1.008,1.008,0,0,1,0-1.42,1.024,1.024,0,0,1,.71-.29,1.042,1.042,0,0,1,.71.29L27.81,27.33A1.008,1.008,0,0,1,27.81,28.75Zm1.41-4.24-.71.7L15.79,12.49l.7-.71A9,9,0,0,1,29.22,24.51Zm3.24-11.72a10.745,10.745,0,0,0-4.24-4.25l3.82-3.83a3.012,3.012,0,0,1,4.25,0,2.956,2.956,0,0,1,.88,2.12,3.054,3.054,0,0,1-.66,1.88,1.647,1.647,0,0,1-.22.24Zm2.04.79,2.83-2.84L46,19.41V50H42V21.49a1.033,1.033,0,0,0-.29-.71ZM32,48h2v2H32Zm-4,7a3.009,3.009,0,0,1,3-3H47a3.009,3.009,0,0,1,3,3v1H28Zm25,5H25V59a1,1,0,0,1,1-1H52a1,1,0,0,1,1,1Z"></path></g></svg>