<svg xmlns="http://www.w3.org/2000/svg" viewBox="0 0 64 64" x="0px" y="0px"><g><path d="M44,19.586V15.3L42.845,13.57,42,14.414V15H40V14a1,1,0,0,1,.293-.707L42,11.586V8.414L40.586,7H38.414L37,8.414V9H35V8a1,1,0,0,1,.293-.707L36.856,5.73,36.279,4H34.414L33,5.414V26.586L34.414,28h1.865l.577-1.73-1.563-1.563A1,1,0,0,1,35,24V23h2v.586l1.307,1.307L41,24.219V19h2v1.586ZM35,14V11h2v2.586l1.707,1.707-1.414,1.414-2-2A1,1,0,0,1,35,14Zm4,8H37V20.414l-.707-.707,1.414-1.414,1,1A1,1,0,0,1,39,20Z"></path><path d="M28.707,24.707,27.144,26.27,27.721,28h1.865L31,26.586V5.414L29.586,4H27.721l-.577,1.73,1.563,1.563A1,1,0,0,1,29,8V9H27V8.414L25.586,7H23.414L22,8.414v3.172l1.707,1.707A1,1,0,0,1,24,14v1H22v-.586l-.845-.844L20,15.3v4.283l1,1V19h2v5.219l2.693.674L27,23.586V23h2v1A1,1,0,0,1,28.707,24.707ZM27,20.414V22H25V20a1,1,0,0,1,.293-.707l1-1,1.414,1.414Zm1.707-5.707-2,2-1.414-1.414L27,13.586V11h2v3A1,1,0,0,1,28.707,14.707Z"></path><path d="M12,55a4,4,0,0,1,4-4h3V50H16a5,5,0,0,0,0,10h3V59H16A4,4,0,0,1,12,55Z"></path><rect x="21" y="59" width="36" height="1"></rect><path d="M54.142,56H18V54H54.142a3.966,3.966,0,0,1,.414-1H16a2,2,0,0,0,0,4H54.556A3.966,3.966,0,0,1,54.142,56Z"></path><rect x="21" y="50" width="36" height="1"></rect><path d="M48,35H45v1h3a4,4,0,0,1,0,8H45v1h3a5,5,0,0,0,0-10Z"></path><rect x="7" y="35" width="36" height="1"></rect><path d="M50,40a2,2,0,0,0-2-2H9.444a3.966,3.966,0,0,1,.414,1H46v2H9.858a3.966,3.966,0,0,1-.414,1H48A2,2,0,0,0,50,40Z"></path><rect x="7" y="44" width="36" height="1"></rect><polygon points="52 10 54 10 54 8 56 8 56 6 54 6 54 4 52 4 52 6 50 6 50 8 52 8 52 10"></polygon><polygon points="6 21 6 19 8 19 8 17 6 17 6 15 4 15 4 17 2 17 2 19 4 19 4 21 6 21"></polygon><polygon points="62 25 60 25 60 23 58 23 58 25 56 25 56 27 58 27 58 29 60 29 60 27 62 27 62 25"></polygon><polygon points="13 8 15 8 15 6 17 6 17 4 15 4 15 2 13 2 13 4 11 4 11 6 13 6 13 8"></polygon></g></svg>