<svg xmlns="http://www.w3.org/2000/svg" viewBox="0 0 64 64" x="0px" y="0px"><g><path d="M58,2H12A7.008,7.008,0,0,0,5,9V55a7.008,7.008,0,0,0,7,7H58a1,1,0,0,0,1-1V3A1,1,0,0,0,58,2ZM57,48H48V47a1,1,0,0,0-1-1H46v-.723L48.566,41H49a1,1,0,0,0,1-1,2,2,0,0,1,2-2,1,1,0,0,0,1-1V15a1,1,0,0,0-1-1,2,2,0,0,1-2-2,1,1,0,0,0-1-1H25a1,1,0,0,0-1,1,2,2,0,0,1-2,2,1,1,0,0,0-1,1V37a1,1,0,0,0,1,1,2,2,0,0,1,2,2,1,1,0,0,0,1,1h2a1,1,0,0,0,.293.707L31,45.414V46a1,1,0,0,0-1,1v1H17V4H57ZM32.707,44.293,29,40.586V29a1,1,0,0,1,2,0v6a1,1,0,0,0,2,0V20a1,1,0,0,1,2,0V31a1,1,0,0,0,2,0V17a1,1,0,0,1,2,0V31a1,1,0,0,0,2,0V20a1,1,0,0,1,2,0V31a1,1,0,0,0,2,0V24a1,1,0,0,1,2,0V39.723l-2.857,4.762A1,1,0,0,0,44,45v1H33V45A1,1,0,0,0,32.707,44.293ZM27,29V39H25.874A4.016,4.016,0,0,0,23,36.126V15.874A4.016,4.016,0,0,0,25.874,13H48.127A4.015,4.015,0,0,0,51,15.874V36.126a4,4,0,0,0-2,1.244V24a3,3,0,0,0-4-2.829V20a3,3,0,0,0-4-2.829V17a3,3,0,0,0-6,0v.171A3,3,0,0,0,31,20v6.171A3,3,0,0,0,27,29Zm5,19H46v4H32Zm-1,6v2H13a1,1,0,0,1-1-1,.974.974,0,0,1,.306-.712A.957.957,0,0,1,13,54Zm2,0H45v6H33Zm14,0H57v2H47Zm1-2V50h9v2ZM13,4h2V48H13ZM7,9a5.009,5.009,0,0,1,4-4.9V17.08a6.98,6.98,0,0,0-4,2.03ZM7,24a5.009,5.009,0,0,1,4-4.9V34.08a6.98,6.98,0,0,0-4,2.03Zm4,12.1V48.08a6.988,6.988,0,0,0-4,2.025V41A5.009,5.009,0,0,1,11,36.1ZM8.464,58.53A4.93,4.93,0,0,1,7,55a5.006,5.006,0,0,1,5-5H30v2H13a3.015,3.015,0,0,0-3,3,3,3,0,0,0,3,3H31v2H12A4.935,4.935,0,0,1,8.464,58.53ZM47,60V58H57v2Z"></path></g></svg>