<svg xmlns="http://www.w3.org/2000/svg" viewBox="0 0 64 64" x="0px" y="0px"><g><path d="M16,38H6V56H16a4.924,4.924,0,0,1,3,1.03V41A3.009,3.009,0,0,0,16,38Zm1,16H8V52h9Zm0-4H8V48h9Zm0-4H8V44h9Zm0-4H8V40h9Z"></path><path d="M21.17,60H34V58H24A3.014,3.014,0,0,0,21.17,60Z"></path><path d="M16,58H6v2H18.83A3.014,3.014,0,0,0,16,58Z"></path><path d="M34,38H24a3.009,3.009,0,0,0-3,3V57.03A4.924,4.924,0,0,1,24,56H34ZM32,54H23V52h9Zm0-4H23V48h9Zm0-4H23V44h9Zm0-4H23V40h9Z"></path><path d="M58,39a3,3,0,0,0-3-3H45a3,3,0,0,0-3,3V57a3,3,0,0,0,3,3H55a3,3,0,0,0,3-3ZM44,40V38h2v2Zm3,8H45V46h2Zm5,10H48V56h4ZM49,48V46h2v2Zm3-8H48V38h4Zm3,8H53V46h2Z"></path><path d="M43,13H39.71a1.018,1.018,0,0,1-.81-.4,1.04,1.04,0,0,1-.15-.89A5.85,5.85,0,0,0,39,10,6,6,0,0,0,27.19,8.51a.993.993,0,0,1-1.38.67A1.912,1.912,0,0,0,25,9a2.006,2.006,0,0,0-2,2,1.89,1.89,0,0,0,.13.67A1,1,0,0,1,22.18,13H21a4,4,0,0,0,0,8H31V18.41l-1.29,1.3-1.42-1.42,3-3a1.008,1.008,0,0,1,1.42,0l3,3-1.42,1.42L33,18.41V21H43a4,4,0,0,0,0-8ZM33,13H31V11h2Zm4,0H35V11h2Z"></path><path d="M50,28H34.816A3,3,0,0,0,33,26.184V23H31v3.184A3,3,0,0,0,29.184,28H14a1,1,0,0,0-1,1v4h2V30H29.184a2.982,2.982,0,0,0,5.632,0H49v3h2V29A1,1,0,0,0,50,28Z"></path></g></svg>