<svg xmlns="http://www.w3.org/2000/svg" viewBox="0 0 64 64" x="0px" y="0px"><g data-name="Type File"><path d="M56,52H53V50h3a3,3,0,0,0,3-3V45a3,3,0,0,0-3-3H36a5.006,5.006,0,0,1-5-5V34h2v3a3,3,0,0,0,3,3H56a5.006,5.006,0,0,1,5,5v2A5.006,5.006,0,0,1,56,52Z"></path><path d="M46,5v9h4.184A2.966,2.966,0,0,1,50,13V5a1,1,0,0,0-1-1H47A1,1,0,0,0,46,5Z"></path><path d="M52,13a1,1,0,0,0,1,1h2a1,1,0,0,0,1-1V8H52Z"></path><path d="M18,5V32H44V5a2.966,2.966,0,0,1,.184-1H19A1,1,0,0,0,18,5ZM40,27H32V25h8Zm0-8H30V17H40Zm0-4H34V13h6ZM28,9H40v2H28ZM22,9h4v2H22Zm0,4H32v2H22Zm0,4h6v2H22Zm0,4H40v2H22Zm0,4h8v2H22Z"></path><path d="M5,60H47a1,1,0,0,0,1-1V48a1,1,0,0,0-1-1H5a1,1,0,0,0-1,1V59A1,1,0,0,0,5,60Zm35-1H12V57H40Zm2-2h2V54h2v4a1,1,0,0,1-1,1H42Zm-3-8h2v2H39Zm0,4h2v2H39Zm-4-4h2v2H35Zm0,4h2v2H35Zm-4-4h2v2H31Zm0,4h2v2H31Zm-4-4h2v2H27Zm0,4h2v2H27Zm-4-4h2v2H23Zm0,4h2v2H23Zm-4-4h2v2H19Zm0,4h2v2H19Zm-4-4h2v2H15Zm0,4h2v2H15Zm-4-4h2v2H11Zm0,4h2v2H11ZM7,49H9v2H7Zm0,4H9v2H7ZM6,57h4v2H6Z"></path><rect x="50" y="50" width="1" height="2"></rect></g></svg>