<svg xmlns="http://www.w3.org/2000/svg" viewBox="0 0 64 64" x="0px" y="0px"><title>Coffee Maker</title><g data-name="Coffee Maker"><path d="M57,25H3a1,1,0,0,0-1,1V44c0,8.153,6.691,18,15,18H35c7.308,0,13.362-7.617,14.715-15H57a5.006,5.006,0,0,0,5-5V30A5.006,5.006,0,0,0,57,25Zm-7,6h5a1,1,0,0,1,1,1v8a1,1,0,0,1-1,1H50ZM35,60H17C11.111,60,4,52.863,4,44V27H48V44C48,52.863,40.889,60,35,60ZM60,42a3,3,0,0,1-3,3H50V43h5a3,3,0,0,0,3-3V32a3,3,0,0,0-3-3H50V27h7a3,3,0,0,1,3,3Z"></path><path d="M10,14h4a1,1,0,0,0,1-1V12H37v1a1,1,0,0,0,1,1h4a1,1,0,0,0,1-1V11a5.006,5.006,0,0,0-5-5H35V3a1,1,0,0,0-1-1H18a1,1,0,0,0-1,1V6H14a5.006,5.006,0,0,0-5,5v2A1,1,0,0,0,10,14ZM38,8a3,3,0,0,1,3,3v1H39V11a1,1,0,0,0-1-1H34.816A2.966,2.966,0,0,0,35,9V8ZM19,4H33V9a1,1,0,0,1-1,1H20a1,1,0,0,1-1-1Zm-8,7a3,3,0,0,1,3-3h3V9a2.966,2.966,0,0,0,.184,1H14a1,1,0,0,0-1,1v1H11Z"></path><rect x="39" y="16" width="2" height="2"></rect><rect x="39" y="20" width="2" height="2"></rect><rect x="11" y="16" width="2" height="2"></rect><rect x="11" y="20" width="2" height="2"></rect></g></svg>