<svg xmlns="http://www.w3.org/2000/svg" viewBox="0 0 64 64" x="0px" y="0px"><g data-name="Smartphone-Application-Mobile Phone-App-Technology"><path d="M46,2H18a6.006,6.006,0,0,0-6,6V56a6.006,6.006,0,0,0,6,6H46a6.006,6.006,0,0,0,6-6V8A6.006,6.006,0,0,0,46,2ZM18,4H46a4,4,0,0,1,4,4v2H14V8A4,4,0,0,1,18,4Zm32,8V52H14V12ZM46,60H18a4,4,0,0,1-4-4V54H50v2A4,4,0,0,1,46,60Z"></path><rect x="25" y="6" width="2" height="2"></rect><rect x="29" y="6" width="6" height="2"></rect><rect x="31" y="56" width="2" height="2"></rect><path d="M20,35h3v3a3,3,0,0,0,3,3h3v3a3,3,0,0,0,3,3H44a3,3,0,0,0,3-3V32a3,3,0,0,0-3-3H41V26a3,3,0,0,0-3-3H35V20a3,3,0,0,0-3-3H20a3,3,0,0,0-3,3V32A3,3,0,0,0,20,35Zm25-3V44a1,1,0,0,1-1,1H32a1,1,0,0,1-1-1V32a1,1,0,0,1,1-1H44A1,1,0,0,1,45,32Zm-6-6v3H32a3,3,0,0,0-3,3v7H26a1,1,0,0,1-1-1V26a1,1,0,0,1,1-1H38A1,1,0,0,1,39,26ZM19,20a1,1,0,0,1,1-1H32a1,1,0,0,1,1,1v3H26a3,3,0,0,0-3,3v7H20a1,1,0,0,1-1-1Z"></path></g></svg>