<svg xmlns="http://www.w3.org/2000/svg" viewBox="0 0 64 64" x="0px" y="0px"><g><path d="M58,26H51a1,1,0,0,0-1-1H36.974A4.948,4.948,0,0,0,38,22V17h7a2,2,0,0,0,2-2V14a2,2,0,0,0-2-2H38V7a5.006,5.006,0,0,0-5-5H31a5.006,5.006,0,0,0-5,5v5H19a2,2,0,0,0-2,2v1a2,2,0,0,0,2,2h7v5a4.948,4.948,0,0,0,1.026,3H14a1,1,0,0,0-1,1H4a1,1,0,0,0-1,1v4a1,1,0,0,0,1,1h9a1,1,0,0,0,1,1h7V48a1,1,0,0,0,1,1h7V61a1,1,0,0,0,1,1h4a1,1,0,0,0,1-1V49h7a1,1,0,0,0,1-1V33h7a1,1,0,0,0,1-1h7a1,1,0,0,0,1-1V27A1,1,0,0,0,58,26ZM28,7a3,3,0,0,1,3-3h2a3,3,0,0,1,3,3v5H28Zm-9,7H45v1H19Zm9,8V17h8v5a3,3,0,0,1-3,3H31A3,3,0,0,1,28,22ZM5,30V28h8v2ZM33,60H31V49h2Zm9-29a1,1,0,0,0-1,1V47H23V32a1,1,0,0,0-1-1H15V27H49v4Zm15-1H51V28h6Z"></path><polygon points="37.293 32.293 35.5 34.086 34.707 33.293 33.293 34.707 34.086 35.5 33.5 36.086 32.707 35.293 31.293 36.707 32.086 37.5 31.293 38.293 32.707 39.707 33.5 38.914 34.293 39.707 35.707 38.293 34.914 37.5 35.5 36.914 36.293 37.707 37.707 36.293 36.914 35.5 38.707 33.707 37.293 32.293"></polygon></g></svg>