<svg xmlns="http://www.w3.org/2000/svg" viewBox="0 0 64 64" x="0px" y="0px"><g><rect x="12" y="6" width="2" height="2"></rect><rect x="8" y="6" width="2" height="2"></rect><rect x="16" y="6" width="10" height="2"></rect><path d="M19,52a3,3,0,0,0,0,6h4a3,3,0,0,0,0-6Zm5,3a1,1,0,0,1-1,1H19a1,1,0,0,1,0-2h4A1,1,0,0,1,24,55Z"></path><path d="M43,24H41a1,1,0,0,1-1-1H38a3,3,0,0,0,3,3v1h2V26a3,3,0,0,0,0-6H41a1,1,0,0,1,0-2h2a1,1,0,0,1,1,1h2a3,3,0,0,0-3-3V15H41v1a3,3,0,0,0,0,6h2a1,1,0,0,1,0,2Z"></path><path d="M61.428,23.1l-9.764-4.624A9.987,9.987,0,0,0,40,11.2V9a7.009,7.009,0,0,0-7-7H9A7.009,7.009,0,0,0,2,9V55a7.009,7.009,0,0,0,7,7H33a7.009,7.009,0,0,0,7-7V50H59a3,3,0,0,0,3-3V24A1,1,0,0,0,61.428,23.1Zm-15.6,10.844L60,25.734V44.956Zm13.026-9.852L42,33.845,25.149,24.089l6.859-3.249c0,.054-.008.106-.008.16a10,10,0,0,0,20,0c0-.054-.007-.106-.008-.16ZM24,25.734l14.175,8.207L24,44.956ZM50,21a8,8,0,1,1-8-8A8.009,8.009,0,0,1,50,21ZM38,55a5.006,5.006,0,0,1-5,5H9a5.006,5.006,0,0,1-5-5V9A5.006,5.006,0,0,1,9,4H33a5.006,5.006,0,0,1,5,5v2.841a10.033,10.033,0,0,0-5.664,6.632L22.572,23.1A1,1,0,0,0,22,24V47a3,3,0,0,0,3,3H38Zm21-7H25a1,1,0,0,1-.9-.585L40.043,35.022l1.456.843a1,1,0,0,0,1,0l1.456-.843L59.9,47.415A1,1,0,0,1,59,48Z"></path><rect x="8" y="24" width="2" height="2"></rect><rect x="12" y="24" width="6" height="2"></rect><rect x="8" y="28" width="10" height="2"></rect><rect x="8" y="32" width="10" height="2"></rect><rect x="8" y="36" width="10" height="2"></rect><rect x="8" y="40" width="10" height="2"></rect><rect x="8" y="44" width="10" height="2"></rect></g></svg>