<svg xmlns="http://www.w3.org/2000/svg" viewBox="0 0 64 64" x="0px" y="0px"><g><path d="M60,42H4v3a3,3,0,0,0,3,3H57a3,3,0,0,0,3-3Zm-4,4H54V44h2Z"></path><path d="M31,20.09V18.069A8.008,8.008,0,0,0,24.069,25H26.09A6.008,6.008,0,0,1,31,20.09Z"></path><path d="M33,31.91v2.021A8.008,8.008,0,0,0,39.931,27H37.91A6.008,6.008,0,0,1,33,31.91Z"></path><path d="M26.09,27H24.069A8.008,8.008,0,0,0,31,33.931V31.91A6.008,6.008,0,0,1,26.09,27Z"></path><path d="M20,59a1,1,0,0,0,1,1H43a1,1,0,0,0,0-2H21A1,1,0,0,0,20,59Z"></path><polygon points="25.883 50 25.133 56 38.867 56 38.117 50 25.883 50"></polygon><path d="M36,26a4,4,0,1,0-4,4A4,4,0,0,0,36,26Zm-3,1H31V25h2Z"></path><path d="M33,18.069V20.09A6.008,6.008,0,0,1,37.91,25h2.021A8.008,8.008,0,0,0,33,18.069Z"></path><path d="M60,7a3,3,0,0,0-3-3H7A3,3,0,0,0,4,7v3H60ZM10,8H8V6h2Zm4,0H12V6h2Zm4,0H16V6h2Z"></path><path d="M60,12H4V40H60ZM44,27H41.949A10.015,10.015,0,0,1,33,35.949V38H31V35.949A10.015,10.015,0,0,1,22.051,27H20V25h2.051A10.015,10.015,0,0,1,31,16.051V14h2v2.051A10.015,10.015,0,0,1,41.949,25H44Z"></path></g></svg>