<svg xmlns="http://www.w3.org/2000/svg" viewBox="0 0 64 64" x="0px" y="0px"><g data-name="Mobile Marketing"><path d="M14,32V46h4V32Zm3,4H15V34h2Z"></path><path d="M37.95,36.711a.943.943,0,0,0-.334-.494A1.019,1.019,0,0,0,37,36H30.87a1,1,0,0,1-.969-.753A2.988,2.988,0,0,0,27,33H23a2.988,2.988,0,0,0-2.9,2.247c0,.012,0,.024-.008.036A2.679,2.679,0,0,0,20,36v8H35.586L49.2,30.391a3.074,3.074,0,0,0-3.418.586l-5.8,5.795c.006.076.018.151.018.228a3.017,3.017,0,0,1-3,3H26V38H37a.957.957,0,0,0,.694-.288A.978.978,0,0,0,38,37a.806.806,0,0,0-.039-.255l0,0C37.961,36.732,37.954,36.723,37.95,36.711Z"></path><path d="M47,50V35.41L36.71,45.71A1.033,1.033,0,0,1,36,46H20v1a1,1,0,0,1-1,1H17v9a3.009,3.009,0,0,0,3,3H44a3.009,3.009,0,0,0,3-3V52H21V50ZM31,55h2v2H31Z"></path><path d="M34,16a7,7,0,1,0,7,7A7.008,7.008,0,0,0,34,16Zm0,6a3,3,0,0,1,1,5.82V29H33V27.82A3.01,3.01,0,0,1,31,25h2a1,1,0,1,0,1-1,3,3,0,0,1-1-5.82V17h2v1.18A3.01,3.01,0,0,1,37,21H35a1,1,0,1,0-1,1Z"></path><path d="M44,4H20a3.009,3.009,0,0,0-3,3v3H43v2H17V30h2a1,1,0,0,1,1,1v1a4.985,4.985,0,0,1,3-1h4a4.982,4.982,0,0,1,4.58,3H37a3.006,3.006,0,0,1,1.83.63,2.525,2.525,0,0,1,.25.21l5.28-5.28A4.929,4.929,0,0,1,47,28.19V7A3.009,3.009,0,0,0,44,4ZM26,8H24V6h2Zm4,0H28V6h2Zm-6,8H21v3H19V15a1,1,0,0,1,1-1h4ZM34,32a9,9,0,1,1,9-9A9.014,9.014,0,0,1,34,32Z"></path></g></svg>