<svg xmlns="http://www.w3.org/2000/svg" viewBox="0 0 64 64" x="0px" y="0px"><g data-name="Money Bag"><path d="M59.123,53.172l-.237-.095A2.984,2.984,0,0,1,57,50.292V35A17.006,17.006,0,0,0,40.8,18.041a2.943,2.943,0,0,0-1.291-3.617l5.345-8.909A1,1,0,0,0,44,4a3.779,3.779,0,0,1-2.445-.833,6,6,0,0,0-7.11,0,4.009,4.009,0,0,1-4.89,0,5.994,5.994,0,0,0-7.11,0A3.778,3.778,0,0,1,20,4a1,1,0,0,0-.857,1.515l5.345,8.909A2.943,2.943,0,0,0,23.2,18.041,17.006,17.006,0,0,0,7,35V50.292a2.986,2.986,0,0,1-1.887,2.786l-.235.094A4.578,4.578,0,0,0,6.578,62H57.422a4.578,4.578,0,0,0,1.7-8.828ZM25,17a1,1,0,0,1,1-1H38a1,1,0,0,1,0,2H26A1,1,0,0,1,25,17ZM23.555,4.832a4.009,4.009,0,0,1,4.89,0,5.994,5.994,0,0,0,7.11,0,4.007,4.007,0,0,1,4.89,0,6.45,6.45,0,0,0,1.916.955L37.434,14H26.566L21.64,5.789A6.419,6.419,0,0,0,23.555,4.832ZM57.422,60H6.578a2.578,2.578,0,0,1-.957-4.971l.235-.094A4.977,4.977,0,0,0,9,50.292V35A15.017,15.017,0,0,1,24,20H40A15.017,15.017,0,0,1,55,35V50.292a4.975,4.975,0,0,0,3.143,4.642l.237.1A2.578,2.578,0,0,1,57.422,60Z"></path><path d="M47,28H17a2,2,0,0,0-2,2V52a2,2,0,0,0,2,2H47a2,2,0,0,0,2-2V30A2,2,0,0,0,47,28ZM17,30H47v2H17ZM47,52H17V38H47Zm0-16H17V34H47Z"></path><path d="M32,50a5,5,0,1,0-5-5A5.006,5.006,0,0,0,32,50Zm0-8a3,3,0,1,1-3,3A3,3,0,0,1,32,42Z"></path><path d="M21,42h2V40H20a1,1,0,0,0-1,1v3h2Z"></path><path d="M44,44h2V41a1,1,0,0,0-1-1H42v2h2Z"></path><path d="M20,50h3V48H21V46H19v3A1,1,0,0,0,20,50Z"></path><path d="M46,49V46H44v2H42v2h3A1,1,0,0,0,46,49Z"></path></g></svg>