<svg xmlns="http://www.w3.org/2000/svg" viewBox="0 0 64 64" x="0px" y="0px"><g><rect x="2" y="60" width="60" height="2"></rect><polygon points="49.83 51.56 50.11 53.83 52.12 52.22 49.83 51.56"></polygon><polygon points="54.36 58.57 50.57 57.49 50.88 60 54.72 60 54.36 58.57"></polygon><path d="M36.52,35.93a6.244,6.244,0,0,1-.63.63l2.37,12.45,6.17-3.78a6,6,0,0,1,0-4.46Z"></path><path d="M51.89,48.69A5.943,5.943,0,0,1,50,49a4.193,4.193,0,0,1-.5-.03l.06.43,2.7.78Z"></path><circle cx="50" cy="43" r="4"></circle><path d="M27.48,28.07A5.968,5.968,0,0,1,31,26.09V15.91a5.968,5.968,0,0,1-3.52-1.98l-7.91,4.84a6,6,0,0,1,0,4.46Z"></path><circle cx="32" cy="10" r="4"></circle><circle cx="50" cy="21" r="4"></circle><circle cx="14" cy="21" r="4"></circle><polygon points="53.8 56.33 53.2 53.92 51.14 55.57 53.8 56.33"></polygon><path d="M49,26.91a5.968,5.968,0,0,1-3.89-2.45l-7.64,5.09A5.922,5.922,0,0,1,38,32a6.1,6.1,0,0,1-.43,2.23l7.91,4.84A5.968,5.968,0,0,1,49,37.09Z"></path><polygon points="10.2 56.33 12.86 55.57 10.8 53.92 10.2 56.33"></polygon><polygon points="9.28 60 13.12 60 13.43 57.49 9.64 58.57 9.28 60"></polygon><circle cx="14" cy="43" r="4"></circle><polygon points="13.89 53.83 14.17 51.56 11.88 52.22 13.89 53.83"></polygon><path d="M12.11,48.69l-.37,1.49,2.7-.78.06-.43A4.193,4.193,0,0,1,14,49,5.943,5.943,0,0,1,12.11,48.69Z"></path><path d="M26,32a6.1,6.1,0,0,1,.43-2.23l-7.91-4.84A5.968,5.968,0,0,1,15,26.91V37.09a5.968,5.968,0,0,1,3.89,2.45l7.64-5.09A5.922,5.922,0,0,1,26,32Z"></path><circle cx="32" cy="32" r="4"></circle><path d="M27.97,48h1.79l3.79-1.89A1,1,0,0,1,34,46h1.65l-.57-3H33.3l-2.75,1.83A.967.967,0,0,1,30,45H28.54Z"></path><path d="M36.43,50.12,36.03,48H34.24l-3.79,1.89A1,1,0,0,1,30,50H27.59l-.02.12L30.64,52H25v2h2v6h3V57a1,1,0,0,1,1-1h2a1,1,0,0,1,1,1v3h3V54h2V52H33.36Z"></path><path d="M33,26.09a6,6,0,0,1,3.36,1.8l7.87-5.25A5.907,5.907,0,0,1,44,21a6.1,6.1,0,0,1,.43-2.23l-7.91-4.84A5.968,5.968,0,0,1,33,15.91Z"></path><path d="M25.74,49.01l2.37-12.45c-.16-.14-.32-.29-.47-.45l-7.87,5.25A5.907,5.907,0,0,1,20,43a6,6,0,0,1-.44,2.24Z"></path><path d="M33,41h1.69l-.64-3.37a5.864,5.864,0,0,1-4.1,0L28.92,43h.78l2.75-1.83A.967.967,0,0,1,33,41Z"></path></g></svg>