<svg xmlns="http://www.w3.org/2000/svg" viewBox="0 0 64 64" x="0px" y="0px"><g><path d="M7,50.105a6.988,6.988,0,0,1,4-2.025V36.1A5.009,5.009,0,0,0,7,41Z"></path><path d="M57,42.08A7,7,0,0,0,51.08,48H57Z"></path><path d="M22.92,4H17V9.92A7,7,0,0,0,22.92,4Z"></path><rect x="13" y="4" width="2" height="44"></rect><path d="M12,55a1,1,0,0,0,1,1H57V54H13A1,1,0,0,0,12,55Z"></path><path d="M57,50H12a5,5,0,0,0,0,10H57V58H13a3,3,0,0,1,0-6H57Z"></path><path d="M7,19.111a6.978,6.978,0,0,1,4-2.031V4.1A5.009,5.009,0,0,0,7,9Z"></path><path d="M7,36.111a6.978,6.978,0,0,1,4-2.031V19.1A5.009,5.009,0,0,0,7,24Z"></path><path d="M17,42.08V48h5.92A7,7,0,0,0,17,42.08Z"></path><path d="M57,11.941A9.012,9.012,0,0,1,49.059,4H24.941A9.012,9.012,0,0,1,17,11.941V40.059A9.012,9.012,0,0,1,24.941,48H49.059A9.012,9.012,0,0,1,57,40.059ZM50,22a1,1,0,0,1-1,1H43.315a6.832,6.832,0,0,1,.375.943l1.77.66A7.038,7.038,0,0,1,50,31.16V36a1,1,0,0,1-1,1H25a1,1,0,0,1-1-1V31.16A7.036,7.036,0,0,1,28.538,24.6l1.772-.661A6.832,6.832,0,0,1,30.685,23H25a1,1,0,0,1-1-1V20a5.006,5.006,0,0,1,5-5H45a5.006,5.006,0,0,1,5,5Z"></path><path d="M45,17H29a3,3,0,0,0-3,3v1h6.111a6.976,6.976,0,0,1,9.778,0H48V20A3,3,0,0,0,45,17Z"></path><path d="M37,33a7,7,0,0,1-6.99-6.81l-.771.287A5.026,5.026,0,0,0,26,31.16V35H48V31.16a5.028,5.028,0,0,0-3.241-4.684l-.769-.287A7,7,0,0,1,37,33Z"></path><path d="M57,4H51.08A7,7,0,0,0,57,9.92Z"></path><circle cx="37" cy="26" r="2"></circle><path d="M37,31a5,5,0,1,0-5-5A5.006,5.006,0,0,0,37,31Zm0-9a4,4,0,1,1-4,4A4,4,0,0,1,37,22Z"></path></g></svg>