<svg xmlns="http://www.w3.org/2000/svg" viewBox="0 0 64 64" x="0px" y="0px"><g data-name="Admin-Laptop"><path d="M61.9,54.553,56,42.764V11a3,3,0,0,0-3-3H46v2h7a1,1,0,0,1,1,1V42H10V11a1,1,0,0,1,1-1h7V8H11a3,3,0,0,0-3,3V42.764L2.105,54.553A1,1,0,0,0,2,55v5a2,2,0,0,0,2,2H60a2,2,0,0,0,2-2V55A1,1,0,0,0,61.9,54.553ZM54.382,44l5,10H4.618l5-10ZM29,56h6v1H29ZM4,60V56H27v1a2,2,0,0,0,2,2h6a2,2,0,0,0,2-2V56H60v4Z"></path><rect x="10" y="50" width="2" height="2"></rect><rect x="14" y="50" width="2" height="2"></rect><rect x="18" y="50" width="28" height="2"></rect><rect x="48" y="50" width="2" height="2"></rect><rect x="52" y="50" width="2" height="2"></rect><rect x="15" y="46" width="2" height="2"></rect><rect x="11" y="46" width="2" height="2"></rect><rect x="19" y="46" width="2" height="2"></rect><rect x="23" y="46" width="2" height="2"></rect><rect x="27" y="46" width="2" height="2"></rect><rect x="31" y="46" width="2" height="2"></rect><rect x="35" y="46" width="2" height="2"></rect><rect x="39" y="46" width="2" height="2"></rect><rect x="43" y="46" width="2" height="2"></rect><rect x="47" y="46" width="2" height="2"></rect><rect x="51" y="46" width="2" height="2"></rect><path d="M14,38V14h3V12H13a1,1,0,0,0-1,1V39a1,1,0,0,0,1,1H51a1,1,0,0,0,1-1V13a1,1,0,0,0-1-1H47v2h3V38Z"></path><path d="M26,29.521V31a5.006,5.006,0,0,0,5,5h2a5.006,5.006,0,0,0,5-5V29.521A13,13,0,0,0,45,18V12c0-1.275-1.219-2.241-3.728-2.952a.475.475,0,0,0-.054-.014c-.507-.14-1.052-.266-1.629-.379l.9-.9a1,1,0,0,0,0-1.414l-2.83-2.83a1,1,0,0,0-1.414,0L35,4.756V3a1,1,0,0,0-1-1H30a1,1,0,0,0-1,1V4.756L27.757,3.513a1,1,0,0,0-1.414,0l-2.83,2.83a1,1,0,0,0,0,1.414l.9.9c-.577.113-1.122.239-1.629.379-.018,0-.036.008-.055.014s-.049.016-.075.024a.468.468,0,0,0-.053.017C20.183,9.8,19,10.748,19,12v6A13,13,0,0,0,26,29.521ZM36,31a3,3,0,0,1-3,3H31a3,3,0,0,1-3-3v-.636a12.9,12.9,0,0,0,8,0Zm6-19.584a2.907,2.907,0,0,1,.956.584,2.907,2.907,0,0,1-.956.584ZM27.05,5.634,28.713,7.3a1,1,0,0,0,1.135.2,4.965,4.965,0,0,1,.481-.2A1,1,0,0,0,31,6.35V4h2V6.35a1,1,0,0,0,.671.944,5.09,5.09,0,0,1,.482.2,1,1,0,0,0,1.134-.2L36.95,5.634,38.366,7.05,36.7,8.713a1,1,0,0,0-.2,1.135,5.026,5.026,0,0,1,.2.484A1,1,0,0,0,37.65,11H40v2H37.65a1,1,0,0,0-.943.668c-.01.03-.025.057-.035.086-.377.04-.76.075-1.152.105A3.949,3.949,0,0,0,36,12a4,4,0,0,0-8,0,3.949,3.949,0,0,0,.48,1.859c-.392-.03-.774-.065-1.151-.105-.011-.028-.024-.054-.035-.083A1,1,0,0,0,26.35,13H24V11h2.35a1,1,0,0,0,.944-.671,4.965,4.965,0,0,1,.2-.481,1,1,0,0,0-.2-1.135L25.634,7.05ZM30,12a2,2,0,1,1,2.065,1.993h-.13A2,2,0,0,1,30,12Zm-8-.584v1.168A2.93,2.93,0,0,1,21.043,12,2.93,2.93,0,0,1,22,11.416Zm-1,2.91a11.589,11.589,0,0,0,1.727.626c.019.006.037.01.055.014a26.5,26.5,0,0,0,3.592.7A44.868,44.868,0,0,0,32,16a44.964,44.964,0,0,0,5.629-.338,26.579,26.579,0,0,0,3.589-.7.475.475,0,0,0,.054-.014c.027-.007.048-.016.075-.023s.037-.01.055-.018a11.416,11.416,0,0,0,1.6-.585V18a11,11,0,0,1-22,0Z"></path><path d="M32,27a5.957,5.957,0,0,0,4.8-2.4l-1.6-1.2a4,4,0,0,1-6.4,0l-1.6,1.2A5.957,5.957,0,0,0,32,27Z"></path><rect x="58" y="30" width="2" height="2"></rect><rect x="4" y="30" width="2" height="2"></rect><rect x="4" y="24" width="2" height="2"></rect><rect x="4" y="18" width="2" height="2"></rect><rect x="58" y="24" width="2" height="2"></rect><rect x="58" y="18" width="2" height="2"></rect><rect x="57" y="5" width="2" height="2"></rect><rect x="5" y="5" width="2" height="2"></rect><rect x="36" y="18" width="2" height="2"></rect><rect x="26" y="18" width="2" height="2"></rect></g></svg>