<svg xmlns="http://www.w3.org/2000/svg" viewBox="0 0 64 64" x="0px" y="0px"><g data-name="Home Office-Work From Home-Studio-Online-Woman"><path d="M27,24a8.005,8.005,0,0,1-4,6.92V33.3l4.52,1.65a3.991,3.991,0,0,0,.28-7.87l.4-1.96a6.45,6.45,0,0,1,.75.22A1.857,1.857,0,0,0,29,25a2.006,2.006,0,0,0-2-2Z"></path><path d="M21.66,34.94A.992.992,0,0,1,21,34V31.74a7.822,7.822,0,0,1-4,0V34a.992.992,0,0,1-.66.94l-.69.25a7.332,7.332,0,0,0,6.7,0Z"></path><path d="M16.19,37.58,19,41.33l2.81-3.75a9.61,9.61,0,0,1-5.62,0Z"></path><path d="M12,19h3.86a3.006,3.006,0,0,0,2.5-1.34l.81-1.21a.991.991,0,0,1,1.54-.16l1.83,1.83a2.956,2.956,0,0,0,2.12.88H26V18a7,7,0,0,0-14,0Z"></path><rect x="7" y="58" width="50" height="2"></rect><rect x="4" y="54" width="56" height="2"></rect><path d="M10.48,34.95,15,33.3V30.92A8.005,8.005,0,0,1,11,24V23a2.006,2.006,0,0,0-2,2,1.857,1.857,0,0,0,.05.34,5.772,5.772,0,0,1,.74-.22l.4,1.96a3.992,3.992,0,0,0,.29,7.87Z"></path><path d="M15,52h2.83A3.014,3.014,0,0,0,15,50Z"></path><path d="M57,36H39a1,1,0,0,0-1,1V52H57a1,1,0,0,0,1-1V37A1,1,0,0,0,57,36ZM48,47a3,3,0,1,1,3-3A3,3,0,0,1,48,47Z"></path><circle cx="48" cy="44" r="1"></circle><path d="M26,51a1,1,0,0,0,1,1h9V50H26Z"></path><path d="M25,24V21h-.34a4.994,4.994,0,0,1-3.54-1.46l-.96-.97-.14.2A4.987,4.987,0,0,1,15.86,21H13v3a6,6,0,0,0,12,0Zm-8,0H15V22h2Zm6,0H21V22h2Z"></path><path d="M13,52V50H11a1,1,0,0,1-1-1V43h2v5h3a5.017,5.017,0,0,1,4.9,4h4.28A3,3,0,0,1,24,51V49a1,1,0,0,1,1-1h1V43h2v5h4V43.6a6.988,6.988,0,0,0-4.61-6.57l-.24-.09a.145.145,0,0,1-.07-.02l-1.79-.65L19.8,43.6a1,1,0,0,1-1.6,0l-5.49-7.33-1.79.65a.188.188,0,0,1-.08.02l-.23.09A6.988,6.988,0,0,0,6,43.6V49a3.009,3.009,0,0,0,3,3Z"></path><rect x="47" y="30" width="2" height="2"></rect><path d="M51.535,27.464a5,5,0,0,0-7.07,0l1.414,1.414a3.074,3.074,0,0,1,4.242,0Z"></path><path d="M54.364,24.636a9.01,9.01,0,0,0-12.728,0L43.05,26.05a7.011,7.011,0,0,1,9.9,0Z"></path><path d="M49.569,7C49.1,5.037,48.376,4,48,4s-1.1,1.037-1.569,3Z"></path><path d="M42.264,7h2.122a12.538,12.538,0,0,1,.71-2.361A7.033,7.033,0,0,0,42.264,7Z"></path><path d="M49.9,13a19.659,19.659,0,0,0,0-4H46.1a19.659,19.659,0,0,0,0,4Z"></path><path d="M45.1,17.361A12.538,12.538,0,0,1,44.386,15H42.264A7.033,7.033,0,0,0,45.1,17.361Z"></path><path d="M41.3,9a6.927,6.927,0,0,0,0,4h2.8c-.061-.658-.1-1.329-.1-2s.035-1.342.1-2Z"></path><path d="M48,18c.376,0,1.1-1.037,1.569-3H46.431C46.9,16.963,47.624,18,48,18Z"></path><path d="M55,11a6.956,6.956,0,0,0-.3-2H51.9c.061.658.1,1.329.1,2s-.035,1.342-.1,2h2.8A6.956,6.956,0,0,0,55,11Z"></path><path d="M53.736,7A7.033,7.033,0,0,0,50.9,4.639,12.612,12.612,0,0,1,51.614,7Z"></path><path d="M51.614,15a12.612,12.612,0,0,1-.71,2.361A7.033,7.033,0,0,0,53.736,15Z"></path></g></svg>