<svg xmlns="http://www.w3.org/2000/svg" viewBox="0 0 64 64" x="0px" y="0px"><g><path d="M42,52H8V12H42v2h2V7a5.006,5.006,0,0,0-5-5H11A5.006,5.006,0,0,0,6,7V57a5.006,5.006,0,0,0,5,5H39a5.006,5.006,0,0,0,5-5V37H42ZM11,4H39a3,3,0,0,1,3,3v3H8V7A3,3,0,0,1,11,4ZM39,60H11a3,3,0,0,1-3-3V54H42v3A3,3,0,0,1,39,60Z"></path><rect x="12" y="6" width="2" height="2"></rect><rect x="16" y="6" width="4" height="2"></rect><rect x="22" y="56" width="6" height="2"></rect><path d="M55,16H41a3,3,0,0,0-3,3v8a3,3,0,0,0,3,3h3v4a1,1,0,0,0,.669.944A1.023,1.023,0,0,0,45,35a1,1,0,0,0,.781-.375L49.48,30H55a3,3,0,0,0,3-3V19A3,3,0,0,0,55,16Zm1,11a1,1,0,0,1-1,1H49a1,1,0,0,0-.781.375L46,31.149V29a1,1,0,0,0-1-1H41a1,1,0,0,1-1-1V19a1,1,0,0,1,1-1H55a1,1,0,0,1,1,1Z"></path><rect x="47" y="22" width="2" height="2"></rect><rect x="51" y="22" width="2" height="2"></rect><rect x="43" y="22" width="2" height="2"></rect><path d="M16,29c0,5.319,7.916,14.285,8.252,14.665a1,1,0,0,0,1.5,0C26.084,43.285,34,34.319,34,29a9,9,0,0,0-18,0Zm16,0c0,3.4-4.521,9.507-7,12.467C22.521,38.507,18,32.4,18,29a7,7,0,0,1,14,0Z"></path><path d="M21,29a4,4,0,1,0,4-4A4,4,0,0,0,21,29Zm6,0a2,2,0,1,1-2-2A2,2,0,0,1,27,29Z"></path></g></svg>