<svg xmlns="http://www.w3.org/2000/svg" viewBox="0 0 64 64" x="0px" y="0px"><g><path d="M46.567,22.549,42,15.7V13a2,2,0,0,0,2-2V7a1,1,0,0,0-.1-.447l-.342-.683A6.964,6.964,0,0,0,37.292,2H26.708a6.964,6.964,0,0,0-6.261,3.87l-.342.683A1,1,0,0,0,20,7v4a2,2,0,0,0,2,2v2.7l-4.567,6.852a6.99,6.99,0,0,0-1.11,4.846l4.448,32.017A3.01,3.01,0,0,0,23.741,62H40.259a3.01,3.01,0,0,0,2.97-2.587L47.677,27.4A6.99,6.99,0,0,0,46.567,22.549ZM22,7.236l.236-.472A4.974,4.974,0,0,1,26.708,4H37.292a4.974,4.974,0,0,1,4.472,2.764L42,7.236V11H22ZM40,13v2H24V13Zm5.7,14.12L41.249,59.138a1,1,0,0,1-.99.862H23.741a1,1,0,0,1-.99-.863L18.3,27.12a5,5,0,0,1,.793-3.462L23.535,17h16.93L44.9,23.658A5,5,0,0,1,45.7,27.12Z"></path></g></svg>