<svg xmlns="http://www.w3.org/2000/svg" viewBox="0 0 64 64" x="0px" y="0px"><g><path d="M55.857,38.485A1,1,0,0,0,55,38H9a.985.985,0,0,0-.843.494l-.014-.009-6,10A1,1,0,0,0,3,50H8V61a1,1,0,0,0,1,1H55a1,1,0,0,0,1-1V50h5a1,1,0,0,0,.857-1.515ZM4.766,48,8,42.61V48ZM24,60H10V40H24Zm30,0H26V42.61l4.143,6.905A1,1,0,0,0,31,50H54ZM31.566,48l-4.8-8H54.434l4.8,8Z"></path><rect x="48" y="56" width="4" height="2"></rect><rect x="44" y="56" width="2" height="2"></rect><rect x="45.722" y="14.5" width="2" height="2" transform="translate(-1.49 25.439) rotate(-30.002)"></rect><rect x="48" y="23" width="2" height="2"></rect><rect x="47.421" y="27.4" width="2" height="2" transform="matrix(0.259, -0.966, 0.966, 0.259, 8.459, 67.823)"></rect><rect x="45.722" y="31.5" width="2" height="2" transform="translate(-4.785 56.711) rotate(-59.998)"></rect><rect x="43.021" y="35.021" width="2" height="2" transform="translate(-12.577 41.678) rotate(-45)"></rect><rect x="18.979" y="35.021" width="2" height="2" transform="translate(-19.619 24.678) rotate(-45)"></rect><rect x="16.278" y="31.5" width="2" height="2" transform="translate(-13.933 12.99) rotate(-29.995)"></rect><rect x="14.579" y="27.4" width="2" height="2" transform="translate(-6.82 5) rotate(-15)"></rect><rect x="14" y="23" width="2" height="2"></rect><rect x="14.579" y="18.6" width="2" height="2" transform="matrix(0.259, -0.966, 0.966, 0.259, -7.384, 29.577)"></rect><rect x="16.277" y="14.5" width="2" height="2" transform="translate(-4.785 22.712) rotate(-59.998)"></rect><rect x="18.979" y="10.979" width="2" height="2" transform="translate(-2.619 17.636) rotate(-45)"></rect><rect x="22.5" y="8.278" width="2" height="2" transform="translate(-1.49 12.994) rotate(-30.002)"></rect><rect x="26.6" y="6.579" width="2" height="2" transform="matrix(0.966, -0.259, 0.259, 0.966, -1.021, 7.4)"></rect><rect x="31" y="6" width="2" height="2"></rect><rect x="35.4" y="6.579" width="2" height="2" transform="translate(19.658 40.777) rotate(-75)"></rect><rect x="39.5" y="8.277" width="2" height="2" transform="translate(12.218 39.715) rotate(-60.005)"></rect><rect x="43.021" y="10.979" width="2" height="2" transform="translate(4.423 34.636) rotate(-45)"></rect><rect x="47.421" y="18.6" width="2" height="2" transform="matrix(0.966, -0.259, 0.259, 0.966, -3.423, 13.197)"></rect><polygon points="53 10 55 10 55 8 57 8 57 6 55 6 55 4 53 4 53 6 51 6 51 8 53 8 53 10"></polygon><polygon points="6 28 8 28 8 26 10 26 10 24 8 24 8 22 6 22 6 24 4 24 4 26 6 26 6 28"></polygon><path d="M10,10A3,3,0,1,0,7,7,3,3,0,0,0,10,10Zm0-4A1,1,0,1,1,9,7,1,1,0,0,1,10,6Z"></path><path d="M56,32a3,3,0,1,0,3-3A3,3,0,0,0,56,32Zm3-1a1,1,0,1,1-1,1A1,1,0,0,1,59,31Z"></path><rect x="23.515" y="23" width="16.971" height="2" transform="translate(-7.598 29.657) rotate(-45)"></rect><path d="M36,25a3,3,0,1,0,3,3A3,3,0,0,0,36,25Zm0,4a1,1,0,1,1,1-1A1,1,0,0,1,36,29Z"></path><path d="M28,23a3,3,0,1,0-3-3A3,3,0,0,0,28,23Zm0-4a1,1,0,1,1-1,1A1,1,0,0,1,28,19Z"></path><path d="M32,37A13,13,0,1,0,19,24,13.015,13.015,0,0,0,32,37Zm0-24A11,11,0,1,1,21,24,11.013,11.013,0,0,1,32,13Z"></path></g></svg>