<svg xmlns="http://www.w3.org/2000/svg" viewBox="0 0 64 64" x="0px" y="0px"><g data-name="avatar-man-young-account-profile"><path d="M29,21h2a3,3,0,0,0-6,0h2a1,1,0,0,1,2,0Z"></path><path d="M36,20a1,1,0,0,1,1,1h2a3,3,0,0,0-6,0h2A1,1,0,0,1,36,20Z"></path><path d="M36.33,26.5l-1.73-1a3,3,0,0,1-5.2,0l-1.73,1a5,5,0,0,0,8.66,0Z"></path><path d="M46.92,37.32l-5.58-.75A5,5,0,0,0,38,34.1V32.21A11.029,11.029,0,0,0,42.95,24H43a3.985,3.985,0,0,0,2-7.44V9a7.008,7.008,0,0,0-7-7H26a7.008,7.008,0,0,0-7,7v7.56A3.986,3.986,0,0,0,21,24h.05A11.029,11.029,0,0,0,26,32.21V34.1a5,5,0,0,0-3.34,2.47l-5.58.75A7,7,0,0,0,11,44.25V61a1,1,0,0,0,1,1H52a1,1,0,0,0,1-1V44.25A7,7,0,0,0,46.92,37.32ZM40,39v1.17a3.026,3.026,0,0,0-2,0v-4A3.014,3.014,0,0,1,40,39Zm5-19a2.015,2.015,0,0,1-2,2V18A2.006,2.006,0,0,1,45,20ZM21,22a2.015,2.015,0,0,1-2-2,2.006,2.006,0,0,1,2-2Zm.18-6H21V9a5,5,0,0,1,5-5H38a5,5,0,0,1,5,5v7h-.18A3.01,3.01,0,0,0,40,14H37.85a1.967,1.967,0,0,1-1.78-1.11l-1.18-2.34a1.039,1.039,0,0,0-1.78,0l-1.18,2.34A1.967,1.967,0,0,1,30.15,14H24A3.01,3.01,0,0,0,21.18,16ZM23,23V17a1,1,0,0,1,1-1h6.15a3.976,3.976,0,0,0,3.57-2.21l.28-.55.28.55A3.976,3.976,0,0,0,37.85,16H40a1,1,0,0,1,1,1v6a9,9,0,0,1-18,0ZM36,33.24v5.47l-4,6.4-4-6.4V33.24a10.906,10.906,0,0,0,8,0ZM24,39a3.014,3.014,0,0,1,2-2.83v4a3.026,3.026,0,0,0-2,0ZM51,60H45V48H43V60H21V48H19V60H13V44.25a5,5,0,0,1,4.34-4.95l4.69-.63c0,.11-.03.22-.03.33v4a1,1,0,0,0,2,0,1,1,0,0,1,2,0,1,1,0,0,0,2,0v-.51l3.15,5.04a1,1,0,0,0,1.7,0L36,42.49V43a1,1,0,0,0,2,0,1,1,0,0,1,2,0,1,1,0,0,0,2,0V39c0-.11-.03-.22-.03-.33l4.69.63A5,5,0,0,1,51,44.25Z"></path></g></svg>