<svg xmlns="http://www.w3.org/2000/svg" viewBox="0 0 64 64" x="0px" y="0px"><g data-name="Electric Energy"><path d="M22.081,37.606l1.235-2.882-4.547,4.042,4.678,2.339a1,1,0,0,1,.529,1.112l-1.065,4.794,4.535-5.67L22.553,38.9A1,1,0,0,1,22.081,37.606Z"></path><rect x="10" y="10" width="26" height="8" rx="1"></rect><path d="M45,48V44a1,1,0,0,0-1-1H43v6h1A1,1,0,0,0,45,48Z"></path><path d="M5,60H41a1,1,0,0,0,0-2H5a1,1,0,0,0,0,2Z"></path><path d="M5,51a5.006,5.006,0,0,0,5,5H36a5.006,5.006,0,0,0,5-5V9a5.006,5.006,0,0,0-5-5H10A5.006,5.006,0,0,0,5,9ZM16,26H14V24h2ZM29.781,41.625l-8,10a1,1,0,0,1-1.757-.842l1.83-8.238-5.3-2.65a1,1,0,0,1-.218-1.643l9-8a1,1,0,0,1,1.584,1.142l-2.628,6.133L29.447,40.1a1,1,0,0,1,.334,1.52ZM18,26V24h2v2Zm4,0V24h2v2Zm4,0V24h2v2Zm6,0H30V24h2ZM8,11a3,3,0,0,1,3-3H35a3,3,0,0,1,3,3v6a3,3,0,0,1-3,3H11a3,3,0,0,1-3-3Z"></path><path d="M52,59a3,3,0,0,1-3-3V48a1,1,0,0,0-1-1H47V45h1a3,3,0,0,1,3,3v8a1,1,0,0,0,2,0V29h2V56A3,3,0,0,1,52,59Z"></path><path d="M59,19H49v5a3,3,0,0,0,3,3h4a3,3,0,0,0,3-3Z"></path><rect x="48" y="16" width="12" height="1"></rect><path d="M57,14h1V10.5a.5.5,0,0,0-1,0Z"></path><path d="M50,14h1V10.5a.5.5,0,0,0-1,0Z"></path></g></svg>