<svg xmlns="http://www.w3.org/2000/svg" viewBox="0 0 64 64" x="0px" y="0px"><g data-name="Law Scale"><rect x="2.44" y="15.036" width="2" height="2" transform="translate(-2.728 0.839) rotate(-9.982)"></rect><rect x="59.56" y="4.964" width="2" height="2" transform="translate(-0.117 10.588) rotate(-9.982)"></rect><path d="M61,26a.994.994,0,0,0-.124-.482L51.808,9.026a3.029,3.029,0,0,0,.141-.523l5.834-1.028-.346-1.97L51.6,6.534a2.982,2.982,0,0,0-5.551.973L33.37,9.743A4,4,0,0,0,35.858,7H38V5H35.858a3.981,3.981,0,0,0-7.716,0H26V7h2.142a3.993,3.993,0,0,0,3.8,2.994L17.6,12.524a2.983,2.983,0,0,0-5.545.973L6.217,14.525l.346,1.97L12.4,15.466c.018.032.033.066.053.1L3.124,32.518A.994.994,0,0,0,3,33v5a7.008,7.008,0,0,0,7,7H20a7.008,7.008,0,0,0,7-7V33a.994.994,0,0,0-.124-.482L17.548,15.564a2.976,2.976,0,0,0,.4-1.071L28,12.721V14H25v2h3V56H25a1,1,0,0,0-1,1v3H12v2H52V60H40V57a1,1,0,0,0-1-1H36V16h3V14H36V11.31l9.9-1.745L37.124,25.518A.994.994,0,0,0,37,26v5a7.008,7.008,0,0,0,7,7H54a7.008,7.008,0,0,0,7-7ZM30,6a2,2,0,1,1,2,2A2,2,0,0,1,30,6ZM49,7a1,1,0,1,1-1,1A1,1,0,0,1,49,7ZM15,13a1,1,0,1,1-1,1A1,1,0,0,1,15,13ZM25,38a5.006,5.006,0,0,1-5,5H10a5.006,5.006,0,0,1-5-5V37H25Zm0-3H16V19H14V35H5V33.257l9.039-16.429a2.771,2.771,0,0,0,1.922,0L25,33.257ZM38,60H26V58H38Zm-4-4H30V16h4Zm0-42H30V12.368l4-.7Zm13.592-3.367a2.884,2.884,0,0,0,2.816,0L59,26.257V28H50V12H48V28H39V26.257ZM59,31a5.006,5.006,0,0,1-5,5H44a5.006,5.006,0,0,1-5-5V30H59Z"></path><rect x="54" y="60" width="4" height="2"></rect><rect x="60" y="60" width="2" height="2"></rect><rect x="6" y="60" width="4" height="2"></rect><rect x="2" y="60" width="2" height="2"></rect><rect x="40" y="5" width="2" height="2"></rect><rect x="22" y="5" width="2" height="2"></rect></g></svg>