<svg xmlns="http://www.w3.org/2000/svg" viewBox="0 0 64 64" x="0px" y="0px"><path d="M27.905,16H30a1,1,0,0,1,1,1v1h2V17a1,1,0,0,1,1-1h4.573a38.4,38.4,0,0,1-5.517-3.663A22.8,22.8,0,0,1,27.905,16Z"></path><path d="M31,25a1,1,0,0,0,2,0V20H31Z"></path><path d="M41,22V18H35v4Zm-3.71-2.71a1.032,1.032,0,0,1,.33-.21.922.922,0,0,1,.569-.06.609.609,0,0,1,.191.06.568.568,0,0,1,.17.09,1,1,0,0,1,.16.12A1.05,1.05,0,0,1,39,20a.994.994,0,0,1-.29.71,1.169,1.169,0,0,1-.33.21.99.99,0,0,1-1.09-.21,1.523,1.523,0,0,1-.221-.33,1.035,1.035,0,0,1,.221-1.09Z"></path><path d="M23,22h6V18H23Zm2.29-2.71a.933.933,0,0,1,.33-.21,1,1,0,0,1,1.09.21A1.05,1.05,0,0,1,27,20a.994.994,0,0,1-.29.71,1.2,1.2,0,0,1-.33.22A1,1,0,0,1,26,21a.99.99,0,0,1-1-1A1.045,1.045,0,0,1,25.29,19.29Z"></path><path d="M21,18.015c-.378.027-.713.037-1,.038V19h1Z"></path><path d="M17,19.142A3.939,3.939,0,0,1,18,19V17a1,1,0,0,1,1.142-.99c.261.037,6.624.81,13.151-5.717a1,1,0,0,1,1.357-.053C33.718,10.3,40.431,16,45,16a1,1,0,0,1,1,1v2a3.939,3.939,0,0,1,1,.142V19a15,15,0,0,0-30,0Z"></path><path d="M43,19h1V17.935c-.329-.042-.664-.108-1-.185Z"></path><path d="M20,24a12,12,0,0,0,24,0V21H43v2a1,1,0,0,1-1,1H35v1a3,3,0,0,1-6,0V24H22a1,1,0,0,1-1-1V21H20Zm7.558,5.345A5.992,5.992,0,0,0,32,31a5.992,5.992,0,0,0,4.442-1.655l1.51,1.31A7.893,7.893,0,0,1,32,33a7.893,7.893,0,0,1-5.952-2.345Z"></path><path d="M56,60V54.25a11,11,0,0,0-8.2-10.633L39.38,41.4l1.59,6.36a1,1,0,0,1-1.212,1.212l-3.72-.93-1,3.025L36.82,60H45V53h2v7Z"></path><polygon points="37.458 41.956 33.956 45.458 38.626 46.626 37.458 41.956"></polygon><path d="M46,21v4a2,2,0,0,0,0-4Z"></path><path d="M8,54.25V60h9V53h2v7h8.18l1.787-8.935-1-3.025-3.72.93a1,1,0,0,1-1.212-1.212l1.59-6.36L16.2,43.617A10.994,10.994,0,0,0,8,54.25Z"></path><path d="M16,23a2,2,0,0,0,2,2V21A2,2,0,0,0,16,23Z"></path><polygon points="33.181 52 30.819 52 29.22 60 34.78 60 33.181 52"></polygon><polygon points="30.722 50 33.278 50 34.092 47.554 32 47.031 29.908 47.554 30.722 50"></polygon><path d="M37,37.061a13.782,13.782,0,0,1-10,0v2.525l5,5,5-5Z"></path><polygon points="26.542 41.956 25.374 46.626 30.044 45.458 26.542 41.956"></polygon></svg>