<svg xmlns="http://www.w3.org/2000/svg" viewBox="0 0 64 64" x="0px" y="0px"><path d="M43,23H34.816A3,3,0,0,0,33,21.184V20H31v1.184A3,3,0,0,0,29.184,23H21v2h1.382l-3.277,6.553A1,1,0,0,0,19,32a5,5,0,0,0,10,0,1,1,0,0,0-.105-.447L25.618,25h3.566A3,3,0,0,0,31,26.816V39H26v2H38V39H33V26.816A3,3,0,0,0,34.816,25h3.566L35.1,31.553A1,1,0,0,0,35,32a5,5,0,0,0,10,0,1,1,0,0,0-.1-.447L41.618,25H43ZM24,26.236,26.382,31H21.618ZM24,35a3,3,0,0,1-2.815-2h5.63A3,3,0,0,1,24,35Zm16-8.764L42.382,31H37.618ZM40,35a3,3,0,0,1-2.815-2h5.63A3,3,0,0,1,40,35ZM32,25a1,1,0,1,1,1-1A1,1,0,0,1,32,25Z"></path><rect x="22" y="39" width="2" height="2"></rect><rect x="40" y="39" width="2" height="2"></rect><path d="M52,11a8.987,8.987,0,0,1-8.56-6.21,1,1,0,0,0-.753-.67L32.2,2.02a.959.959,0,0,0-.392,0L21.313,4.12a1,1,0,0,0-.753.67A8.987,8.987,0,0,1,12,11a1,1,0,0,0-1,1V41c0,4.917,3.5,9.947,10.414,14.95a63.992,63.992,0,0,0,10.177,5.963,1,1,0,0,0,.817,0C33.249,61.537,53,52.565,53,41V12A1,1,0,0,0,52,11ZM51,41c0,9.433-16.2,17.562-19,18.9a63.659,63.659,0,0,1-9.413-5.566C18.213,51.164,13,46.281,13,41V12.955A10.977,10.977,0,0,0,22.262,5.97L32,4.02l9.738,1.95A10.977,10.977,0,0,0,51,12.955Z"></path><path d="M40.537,8.141a1,1,0,0,0-.685-.51L32.2,6.1a1,1,0,0,0-.392,0L24.148,7.631a1,1,0,0,0-.685.51,13.052,13.052,0,0,1-7.747,6.322,1,1,0,0,0-.716.958V41c0,3.512,3.029,7.561,8.76,11.71a61.03,61.03,0,0,0,7.82,4.749,1.007,1.007,0,0,0,.893.009C44.6,51.571,49,44.389,49,41V15.421a1,1,0,0,0-.716-.958A13.052,13.052,0,0,1,40.537,8.141ZM47,41c0,2.312-3.668,8.837-14.954,14.449a58.642,58.642,0,0,1-7.113-4.359C19.892,47.44,17,43.763,17,41V16.147A15.072,15.072,0,0,0,24.994,9.5L32,8.1l7.006,1.4A15.072,15.072,0,0,0,47,16.147Z"></path></svg>