<svg xmlns="http://www.w3.org/2000/svg" viewBox="0 0 64 64" x="0px" y="0px"><g data-name="Calendar-Time Management-Schedule-Date-Clock"><path d="M59,7H51V5a3,3,0,0,0-6,0V7H29V5a3,3,0,0,0-6,0V7H15a3,3,0,0,0-3,3V32.875A14.989,14.989,0,1,0,29.667,55H59a3,3,0,0,0,3-3V10A3,3,0,0,0,59,7ZM47,5a1,1,0,0,1,2,0v6a1,1,0,0,1-2,0ZM25,5a1,1,0,0,1,2,0v6a1,1,0,0,1-2,0ZM15,9h8v2a3,3,0,0,0,6,0V9H45v2a3,3,0,0,0,6,0V9h8a1,1,0,0,1,1,1v6H14V10A1,1,0,0,1,15,9Zm2,51A13,13,0,1,1,30,47,13.015,13.015,0,0,1,17,60Zm6-26.739c-.216-.1-.438-.176-.659-.261H23ZM31.7,44H34v5H31.851a14.391,14.391,0,0,0-.153-5ZM59,53H30.739a14.983,14.983,0,0,0,.7-2H34a2,2,0,0,0,2-2V44a2,2,0,0,0-2-2H31.125a14.9,14.9,0,0,0-.869-2H34a2,2,0,0,0,2-2V33a2,2,0,0,0-2-2H29a2,2,0,0,0-2,2v2.851a15.185,15.185,0,0,0-2-1.518V33a2,2,0,0,0-2-2H18a1.992,1.992,0,0,0-1.742,1.038A14.961,14.961,0,0,0,14,32.3V18H60V52A1,1,0,0,1,59,53ZM29,38V33h5v5Z"></path><path d="M23,20H18a2,2,0,0,0-2,2v5a2,2,0,0,0,2,2h5a2,2,0,0,0,2-2V22A2,2,0,0,0,23,20Zm-5,7V22h5v5Z"></path><path d="M34,20H29a2,2,0,0,0-2,2v5a2,2,0,0,0,2,2h5a2,2,0,0,0,2-2V22A2,2,0,0,0,34,20Zm-5,7V22h5v5Z"></path><path d="M45,20H40a2,2,0,0,0-2,2v5a2,2,0,0,0,2,2h5a2,2,0,0,0,2-2V22A2,2,0,0,0,45,20Zm-5,7V22h5v5Z"></path><path d="M56,20H51a2,2,0,0,0-2,2v5a2,2,0,0,0,2,2h5a2,2,0,0,0,2-2V22A2,2,0,0,0,56,20Zm-5,7V22h5v5Z"></path><path d="M45,31H40a2,2,0,0,0-2,2v5a2,2,0,0,0,2,2h5a2,2,0,0,0,2-2V33A2,2,0,0,0,45,31Zm-5,7V33h5v5Z"></path><path d="M56,31H51a2,2,0,0,0-2,2v5a2,2,0,0,0,2,2h5a2,2,0,0,0,2-2V33A2,2,0,0,0,56,31Zm-5,7V33h5v5Z"></path><path d="M45,42H40a2,2,0,0,0-2,2v5a2,2,0,0,0,2,2h5a2,2,0,0,0,2-2V44A2,2,0,0,0,45,42Zm-5,7V44h5v5Z"></path><path d="M56,42H51a2,2,0,0,0-2,2v5a2,2,0,0,0,2,2h5a2,2,0,0,0,2-2V44A2,2,0,0,0,56,42Zm-5,7V44h5v5Z"></path><path d="M17,36A11,11,0,1,0,28,47,11.013,11.013,0,0,0,17,36Zm8.941,12a8.956,8.956,0,0,1-1.916,4.611l-1.368-1.368-1.414,1.414,1.368,1.368A8.956,8.956,0,0,1,18,55.941V54H16v1.941a8.956,8.956,0,0,1-4.611-1.916l1.368-1.368-1.414-1.414L9.975,52.611A8.956,8.956,0,0,1,8.059,48H10V46H8.059a8.956,8.956,0,0,1,1.916-4.611l1.368,1.368,1.414-1.414-1.368-1.368A8.956,8.956,0,0,1,16,38.059V40h2V38.059a8.956,8.956,0,0,1,4.611,1.916l-1.368,1.368,1.414,1.414,1.368-1.368A8.956,8.956,0,0,1,25.941,46H24v2Z"></path><path d="M16,46.586l-1.707,1.707,1.414,1.414,2-2A1,1,0,0,0,18,47V42H16Z"></path></g></svg>