<svg xmlns="http://www.w3.org/2000/svg" viewBox="0 0 64 64" x="0px" y="0px"><g data-name="Money Bag-Saving-Banking-Hand-Money"><path d="M57.68,51.63,44.05,59.51a14.956,14.956,0,0,1-9.16,1.92L22.11,60.01a.884.884,0,0,0-.23,0L6,61.88V50H19a1,1,0,0,0,.51-.14l2.63-1.58A9,9,0,0,1,26.77,47h1.3a9.149,9.149,0,0,1,3.35.64l3.21,1.29A.937.937,0,0,0,35,49h7a2,2,0,0,1,0,4H32v2H42.51a5.009,5.009,0,0,0,2.5-.67l10.67-6.16a2,2,0,0,1,2,3.46Z"></path><path d="M39,22a8,8,0,1,0,8,8A8.011,8.011,0,0,0,39,22Zm-1,7h2a3,3,0,0,1,0,6v1H38V35a3.009,3.009,0,0,1-3-3h2a1,1,0,0,0,1,1h2a1,1,0,0,0,0-2H38a3,3,0,0,1,0-6V24h2v1a3.009,3.009,0,0,1,3,3H41a1,1,0,0,0-1-1H38a1,1,0,0,0,0,2Z"></path><path d="M55.66,39.11l-.32-.22A2.993,2.993,0,0,1,54,36.39V23A10,10,0,0,0,44,13H43a2.006,2.006,0,0,0,2-2,2.015,2.015,0,0,0-2-2l3-7H32l3,7a2.006,2.006,0,0,0-2,2,2.015,2.015,0,0,0,2,2H34A10,10,0,0,0,24,23V36.39a2.993,2.993,0,0,1-1.34,2.5l-.32.22A2.993,2.993,0,0,0,21,41.61V42a3,3,0,0,0,3,3H54a3,3,0,0,0,3-3v-.39A2.993,2.993,0,0,0,55.66,39.11ZM39,40A10,10,0,1,1,49,30,10.016,10.016,0,0,1,39,40Z"></path></g></svg>