<svg xmlns="http://www.w3.org/2000/svg" viewBox="0 0 64 64" x="0px" y="0px"><g><path d="M29,4a2.352,2.352,0,0,1,1.847.757A4.27,4.27,0,0,0,34,6a6.289,6.289,0,0,0,3.515-1.143A4.38,4.38,0,0,1,40,4a2.364,2.364,0,0,1,1.849.759A4.284,4.284,0,0,0,45,6V4a2.364,2.364,0,0,1-1.849-.759A4.284,4.284,0,0,0,40,2a6.289,6.289,0,0,0-3.515,1.143A4.382,4.382,0,0,1,34,4a2.352,2.352,0,0,1-1.847-.757A4.27,4.27,0,0,0,29,2a5.006,5.006,0,0,0-5,5v3H20a1,1,0,0,0-1,1v4a1,1,0,0,0,1,1h1v6.729L14.136,34.5A1,1,0,0,0,14,35V59a3,3,0,0,0,3,3H33a3,3,0,0,0,3-3V35a1,1,0,0,0-.136-.5L29,22.729V16h1a1,1,0,0,0,1-1V11a1,1,0,0,0-1-1H26V7A3,3,0,0,1,29,4ZM22.864,23.5A1,1,0,0,0,23,23V16h1V39.373A6.452,6.452,0,0,1,21,40a6.9,6.9,0,0,1-3.559-.877A12.288,12.288,0,0,0,16,38.5V35.271ZM33,60H17a1,1,0,0,1-1-1V40.654c.188.085.374.173.562.265A8.867,8.867,0,0,0,21,42a8.781,8.781,0,0,0,3-.469V54h2V40.627A6.452,6.452,0,0,1,29,40a6.9,6.9,0,0,1,3.559.877A12.288,12.288,0,0,0,34,41.5V59A1,1,0,0,1,33,60ZM27.136,23.5,34,35.271v4.075c-.188-.085-.374-.173-.562-.265A8.867,8.867,0,0,0,29,38a8.781,8.781,0,0,0-3,.469V16h1v7A1,1,0,0,0,27.136,23.5ZM29,14H21V12h8Z"></path><path d="M45,39a3,3,0,0,0-3,3c0,.956.632,3.708,2,4.665V62h2V46.665c1.368-.957,2-3.709,2-4.665A3,3,0,0,0,45,39Zm0,5.916A6.2,6.2,0,0,1,44,42a1,1,0,0,1,2,0A6.2,6.2,0,0,1,45,44.916Z"></path><path d="M45.823,23.432a1.038,1.038,0,0,0-1.646,0C43.479,24.441,40,29.6,40,32a5,5,0,0,0,10,0C50,29.6,46.521,24.441,45.823,23.432ZM45,34a1,1,0,0,1-1-1,7.457,7.457,0,0,1,1-2.147A7.462,7.462,0,0,1,46,33,1,1,0,0,1,45,34Zm2.944-1.443a14.359,14.359,0,0,0-2.121-4.125,1.038,1.038,0,0,0-1.646,0,14.359,14.359,0,0,0-2.121,4.125A3.006,3.006,0,0,1,42,32c0-1.092,1.561-3.943,3-6.192,1.439,2.249,3,5.1,3,6.192A3.006,3.006,0,0,1,47.944,32.557Z"></path></g></svg>