<svg xmlns="http://www.w3.org/2000/svg" viewBox="0 0 64 64" x="0px" y="0px"><g><path d="M33,27.1V17a1,1,0,0,0-2,0V27.1a5,5,0,0,1,2,0Z"></path><circle cx="32" cy="32" r="3"></circle><path d="M20,31a1,1,0,0,0-1,1,.965.965,0,0,0,.287.694A.978.978,0,0,0,20,33h7.1a5,5,0,0,1,0-2Z"></path><path d="M47,34A13,13,0,1,0,60,47,13.015,13.015,0,0,0,47,34Zm7.416,17.752-.237,2.45A3.1,3.1,0,0,1,48,53.9V51a1,1,0,0,0-2,0v2.9a3.1,3.1,0,0,1-6.179.3l-.237-2.449a16.112,16.112,0,0,0-1.893-5.961,5.99,5.99,0,0,1,8.772-7.678.937.937,0,0,0,1.075,0,5.955,5.955,0,0,1,4.5-1.025,5.995,5.995,0,0,1,4.269,8.7A16.123,16.123,0,0,0,54.416,51.752Z"></path><path d="M32,8a24,24,0,1,0,2.881,47.8A14.974,14.974,0,0,1,55.8,34.881,23.827,23.827,0,0,0,32,8Zm-1,2h2v2H31Zm-9.134,2.447,1,1.733-1.732,1-1-1.733ZM12,33H10V31h2Zm1.447,10.866-1-1.732,1.733-1,1,1.732Zm.733-21-1.733-1,1-1.732,1.733,1Zm7.686,28.687-1.732-1,1-1.733,1.732,1ZM32,37a4.977,4.977,0,0,1-3.974-2H20a3.015,3.015,0,0,1-3-3,3,3,0,0,1,3-3h8.026A4.993,4.993,0,0,1,29,28.026V17a3,3,0,0,1,6,0V28.026A4.983,4.983,0,0,1,32,37ZM42.866,15.18l-1.732-1,1-1.733,1.732,1Zm8.687,6.686-1.733,1-1-1.732,1.733-1Z"></path><path d="M32,60a28.158,28.158,0,0,0,6.39-.736,15.2,15.2,0,0,1-1.979-1.651,26.064,26.064,0,1,1,21.2-21.2,15.06,15.06,0,0,1,1.651,1.98A28,28,0,1,0,32,60Z"></path><path d="M51.7,39.061a3.954,3.954,0,0,0-3,.679,2.924,2.924,0,0,1-3.405,0,3.956,3.956,0,0,0-3-.679,3.995,3.995,0,0,0-2.837,5.794,18.111,18.111,0,0,1,2.115,6.705l.238,2.449A1.1,1.1,0,0,0,44,53.9V51a3,3,0,0,1,6,0v2.9a1.1,1.1,0,0,0,2.188.106l.238-2.449a18.111,18.111,0,0,1,2.115-6.705A3.995,3.995,0,0,0,51.7,39.061ZM47,43a8.356,8.356,0,0,1-3.409-.688l.822-1.823a6.933,6.933,0,0,0,5.177,0l.82,1.823A8.364,8.364,0,0,1,47,43Z"></path></g></svg>