<svg xmlns="http://www.w3.org/2000/svg" viewBox="0 0 64 64" x="0px" y="0px"><path d="M32,44a14.949,14.949,0,0,1-10.638-4.438,3.865,3.865,0,0,0-.244,4.562,13.015,13.015,0,0,0,21.767,0,3.863,3.863,0,0,0-.247-4.558A14.949,14.949,0,0,1,32,44Z"></path><path d="M51,60V49.88a6.957,6.957,0,0,0-4.907-6.675l-.675-.212a5.855,5.855,0,0,1-.86,2.223,15.019,15.019,0,0,1-25.113,0,5.865,5.865,0,0,1-.862-2.228l-.673.211A6.958,6.958,0,0,0,13,49.88V60h5.082a8.122,8.122,0,0,1,1.211-9.707l1.414,1.414A6.625,6.625,0,0,0,19,56a6.721,6.721,0,0,0,1.175,3.636c.081.119.148.241.216.364H43.608c.068-.122.135-.244.215-.362A6.719,6.719,0,0,0,45,56a6.625,6.625,0,0,0-1.707-4.293l1.414-1.414A8.12,8.12,0,0,1,45.917,60Z"></path><path d="M32,34a9.01,9.01,0,0,0,9-9V21a9,9,0,0,0-18,0v4A9.01,9.01,0,0,0,32,34Zm4-15a2,2,0,1,1-2,2A2,2,0,0,1,36,19Zm-2.016,8.25,1.323,1.5a5,5,0,0,1-6.614,0l1.323-1.5A3.076,3.076,0,0,0,33.984,27.25ZM28,19a2,2,0,1,1-2,2A2,2,0,0,1,28,19Z"></path><path d="M19,29a13,13,0,0,0,26,0V17a13,13,0,0,0-26,0Zm2-8a11,11,0,0,1,22,0v4a11,11,0,0,1-22,0Z"></path></svg>