<svg xmlns="http://www.w3.org/2000/svg" viewBox="0 0 64 64" x="0px" y="0px"><g data-name="Guitar Player"><path d="M49.729,34.886a4,4,0,1,0,2.829,4.9A4,4,0,0,0,49.729,34.886Zm.9,4.382a2,2,0,1,1-1.414-2.451A2.007,2.007,0,0,1,50.626,39.268Z"></path><rect x="44.588" y="45.341" width="2" height="10" transform="translate(-14.835 81.348) rotate(-75.002)"></rect><path d="M61.288,11.065l.518-1.931L60,8.651l.156-1.123a1,1,0,0,0-.732-1.1L55.562,5.391a1,1,0,0,0-1.185.588l-.427,1.05-1.8-.483-.517,1.932,1.562.418-.379.934L51.37,9.443l-.517,1.932,1.2.322-.712,1.751a1,1,0,0,0,.668,1.343h0L48.234,28.877a8,8,0,0,0-6.75,5.87,6.545,6.545,0,0,0-.136,1.94,3.12,3.12,0,0,1-.175,1.562,10.179,10.179,0,0,1-1.811,2.141,10.812,10.812,0,0,0-3.083-1.535L28,36.265V32.786A11,11,0,0,0,34,23V22a3,3,0,0,0,0-6V13a11,11,0,0,0-22,0v3a3,3,0,0,0,0,6v1a11,11,0,0,0,6,9.786v3.479L9.723,38.854A10.943,10.943,0,0,0,2,49.35V61a1,1,0,0,0,1,1H43a.986.986,0,0,0,.952-.762,14.415,14.415,0,0,0,2.676.265,11.155,11.155,0,0,0,5.463-1.355,10.678,10.678,0,0,0,5.088-6.7c.7-2.626-.093-5.074-.8-7.235a14.263,14.263,0,0,1-.925-4.135,3.115,3.115,0,0,1,.63-1.44,6.544,6.544,0,0,0,.851-1.747,8,8,0,0,0-2.91-8.459L57.8,16.344h0a1.033,1.033,0,0,0,.258.034,1,1,0,0,0,.991-.863l.259-1.873,1.2.322.517-1.932-1.441-.386.138-1ZM55.9,7.551l2.159.578-.829,5.99-3.607-.967ZM18.167,28c0-2.206,2.168-4,4.833-4s4.833,1.794,4.833,4S25.665,32,23,32,18.167,30.206,18.167,28ZM35,19a1,1,0,0,1-1,1V18A1,1,0,0,1,35,19ZM23,4a9.01,9.01,0,0,1,9,9v1.739c-1.314-.633-2.43-2.44-2.824-4.785a1,1,0,0,0-1.334-.771,15.009,15.009,0,0,1-9.684,0,1,1,0,0,0-1.334.771C16.43,12.3,15.314,14.106,14,14.739V13A9.01,9.01,0,0,1,23,4ZM11,19a1,1,0,0,1,1-1v2A1,1,0,0,1,11,19Zm3,4V16.867c2.052-.513,3.784-2.573,4.553-5.457a17.281,17.281,0,0,0,8.894,0c.769,2.884,2.5,4.944,4.553,5.457V23a8.952,8.952,0,0,1-2.26,5.944A5.272,5.272,0,0,0,29.833,28c0-3.309-3.065-6-6.833-6s-6.833,2.691-6.833,6a5.272,5.272,0,0,0,.093.944A8.952,8.952,0,0,1,14,23Zm8.251,10.962c.246.024.5.038.749.038s.5-.014.749-.038A10.993,10.993,0,0,0,26,33.574V37a3,3,0,0,1-6,0V33.574A10.993,10.993,0,0,0,22.251,33.962ZM4,49.35a8.951,8.951,0,0,1,6.319-8.586L18.193,38.3a4.973,4.973,0,0,0,9.614,0l7.877,2.465a8.809,8.809,0,0,1,2.163,1.016A11.541,11.541,0,0,0,34,47.235a10.69,10.69,0,0,0,1,8.249V60H11V48H9V60H4Zm33,8.587A12.436,12.436,0,0,0,40.1,60H37ZM55.007,38.371a4.923,4.923,0,0,1-.617,1.208,4.67,4.67,0,0,0-.932,2.513,15.911,15.911,0,0,0,1.023,4.737c.677,2.081,1.316,4.047.767,6.1A8.7,8.7,0,0,1,51.122,58.4a10.441,10.441,0,0,1-7.863.636,10.432,10.432,0,0,1-6.492-4.481,8.707,8.707,0,0,1-.838-6.8c.55-2.054,2.087-3.437,3.715-4.9a15.927,15.927,0,0,0,3.253-3.59,4.672,4.672,0,0,0,.449-2.643,4.951,4.951,0,0,1,.07-1.355,6,6,0,0,1,5.785-4.45,6.061,6.061,0,0,1,1.564.207,6,6,0,0,1,4.242,7.349Zm-2.776-8.955a8.035,8.035,0,0,0-.949-.325A8.216,8.216,0,0,0,50.3,28.9l3.642-13.59,1.932.517Z"></path><rect x="17" y="19" width="2" height="2"></rect><rect x="27" y="19" width="2" height="2"></rect><rect x="21" y="27" width="4" height="2"></rect><path d="M23,58a7,7,0,1,0-7-7A7.008,7.008,0,0,0,23,58Zm0-12a5,5,0,1,1-5,5A5.006,5.006,0,0,1,23,46Z"></path></g></svg>