<svg xmlns="http://www.w3.org/2000/svg" viewBox="0 0 64 64" x="0px" y="0px"><g data-name="Online Control-Smartphone"><path d="M52,12a8,8,0,0,0-4.444,14.651,1,1,0,0,1,.406,1.105L47.324,30H49a1,1,0,0,1,1,1V48.465L52,49.8l2-1.333V46.414l-1.707-1.707a1,1,0,0,1,0-1.414L54,41.586V40.414l-1.707-1.707a1,1,0,0,1,0-1.414L54,35.586V31a1,1,0,0,1,1-1h1.676l-.638-2.244a1,1,0,0,1,.406-1.105A8,8,0,0,0,52,12Zm0,9a3,3,0,1,1,3-3A3,3,0,0,1,52,21Z"></path><circle cx="52" cy="18" r="1"></circle><path d="M36,49.929l-1.47.919a1,1,0,0,1-1.06,0l-3.3-2.062A10.919,10.919,0,0,1,25.034,40H13a2,2,0,0,1-2-2V27.071L9.394,28.678a1.031,1.031,0,0,1-1.415,0L5.151,25.849a1,1,0,0,1,0-1.414L17.879,11.707a3.072,3.072,0,0,1,4.242,0L24,13.586V13a1,1,0,0,1,1-1h4a1,1,0,0,1,1,1v6.586l4.849,4.849a1,1,0,0,1,0,1.414l-2.828,2.829a1,1,0,0,1-1.415,0L29,27.071v4.311l4.553-2.277a1,1,0,0,1,.894,0L36,29.882V7a3,3,0,0,0-3-3H28V6a2,2,0,0,1-2,2H14a2,2,0,0,1-2-2V4H7A3,3,0,0,0,4,7V57a3,3,0,0,0,3,3H33a3,3,0,0,0,3-3ZM20,58a3,3,0,1,1,3-3A3,3,0,0,1,20,58Z"></path><rect x="14" y="4" width="12" height="2"></rect><circle cx="20" cy="25" r="2"></circle><circle cx="20" cy="55" r="1"></circle><path d="M41,39.458v-4.84l-7-3.5-7,3.5v4.84a8.949,8.949,0,0,0,4.23,7.631L34,48.821l2.77-1.732A8.949,8.949,0,0,0,41,39.458Z"></path><polygon points="26 14 26 15.586 28 17.586 28 14 26 14"></polygon><rect x="18" y="33" width="4" height="5"></rect><path d="M32.728,25.142,20.707,13.121a1,1,0,0,0-1.414,0L7.272,25.142l1.415,1.415,9.9-9.9a2,2,0,0,1,2.828,0l9.9,9.9Z"></path><path d="M25,38V34a1,1,0,0,1,.553-.9L27,32.382V25.071l-7-7-7,7V38h3V32a1,1,0,0,1,1-1h6a1,1,0,0,1,1,1v6Zm-5-9a4,4,0,1,1,4-4A4,4,0,0,1,20,29Z"></path></g></svg>