<svg xmlns="http://www.w3.org/2000/svg" viewBox="0 0 64 64" x="0px" y="0px"><g data-name="Short Note"><path d="M58,16H52V13a1,1,0,0,0-1-1H40V9a7.008,7.008,0,0,0-7-7,7.008,7.008,0,0,0-7,7v3H25a9,9,0,0,0-8,4.9A9,9,0,0,0,9,12H3a1,1,0,0,0-1,1V61a1,1,0,0,0,1,1H58a1,1,0,0,0,1-1V17A1,1,0,0,0,58,16ZM28,35V16h4V35Zm8.586,2L33,40.586,29.414,37ZM38,35H34V16h4Zm0-21H28V12H38ZM33,4a5.009,5.009,0,0,1,5,5v1H28V9A5.006,5.006,0,0,1,33,4ZM25,14h1V36a1,1,0,0,0,.293.707l6,6a1,1,0,0,0,1.414,0l6-6A1,1,0,0,0,40,36V14H50V52H25a8.983,8.983,0,0,0-7,3.356V21A7.008,7.008,0,0,1,25,14ZM9,14a7.008,7.008,0,0,1,7,7V55.356A8.983,8.983,0,0,0,9,52H4V14ZM4,60V58H9V56H4V54H9a7.011,7.011,0,0,1,6.929,6Zm21-6H50v2H25v2H50v2H18.071A7.011,7.011,0,0,1,25,54Zm32,6H52V18h5Z"></path><rect x="24" y="45" width="9" height="2"></rect></g></svg>