<svg xmlns="http://www.w3.org/2000/svg" viewBox="0 0 64 64" x="0px" y="0px"><g><path d="M61,6H3A1,1,0,0,0,2,7V47a1,1,0,0,0,1,1H32.423a16.982,16.982,0,0,0,7,10.305l5.014,3.419a1,1,0,0,0,1.126,0l5.013-3.418a16.992,16.992,0,0,0,7-10.306H61a1,1,0,0,0,1-1V7A1,1,0,0,0,61,6ZM4,25.05A10.018,10.018,0,0,1,12.95,34H4ZM4,36H32v4H4Zm28.948-3.469-.441.252a1,1,0,0,0-.507.87V34H14.949A12.006,12.006,0,0,0,4,23.051v-4.1A12.006,12.006,0,0,0,14.949,8h34.1A12.006,12.006,0,0,0,60,18.949v4.095a11.956,11.956,0,0,0-9.745,6.606A21.431,21.431,0,0,0,45,29,22.712,22.712,0,0,0,32.948,32.531ZM60,25.049V34H58v-.366a1,1,0,0,0-.52-.877l-.553-.308a29.164,29.164,0,0,0-4.7-2.22A9.956,9.956,0,0,1,60,25.049ZM58,36h2v4H58ZM60,8v8.95A10.018,10.018,0,0,1,51.05,8ZM4,8h8.95A10.018,10.018,0,0,1,4,16.95ZM4,46V42H32v2.259A17.07,17.07,0,0,0,32.1,46ZM49.449,56.653,45,59.688l-4.45-3.036A14.986,14.986,0,0,1,34,44.259V34.233A20.863,20.863,0,0,1,45,31a21.245,21.245,0,0,1,10.95,3.194L56,44.259A14.991,14.991,0,0,1,49.449,56.653ZM60,46H57.9a17.07,17.07,0,0,0,.1-1.741V42h2Z"></path><path d="M31,18h2a1,1,0,0,1,1,1h2a3,3,0,0,0-3-3V15H31v1a3,3,0,0,0,0,6h2a1,1,0,0,1,0,2H31a1,1,0,0,1-1-1H28a3,3,0,0,0,3,3v1h2V26a3,3,0,0,0,0-6H31a1,1,0,0,1,0-2Z"></path><path d="M32,11A10,10,0,1,0,42,21,10.011,10.011,0,0,0,32,11Zm0,18a8,8,0,1,1,8-8A8.009,8.009,0,0,1,32,29Z"></path><path d="M53.455,35.117A18.108,18.108,0,0,0,45,33a17.824,17.824,0,0,0-8.459,2.115A1,1,0,0,0,36,36v8.256A12.991,12.991,0,0,0,41.676,55l2.761,1.882a1,1,0,0,0,1.126,0L48.323,55A13,13,0,0,0,54,44.259V36.008A1,1,0,0,0,53.455,35.117ZM52,44.259a11,11,0,0,1-4.8,9.09l-2.2,1.5-2.2-1.5A10.993,10.993,0,0,1,38,44.259V36.62A15.738,15.738,0,0,1,45,35a15.936,15.936,0,0,1,7,1.629Z"></path></g></svg>