<svg xmlns="http://www.w3.org/2000/svg" viewBox="0 0 64 64" x="0px" y="0px"><title>Jacket-Construction</title><g><path d="M56,26a9.01,9.01,0,0,1-9-9V7a5.006,5.006,0,0,0-5-5H22a5.006,5.006,0,0,0-5,5V17a9.01,9.01,0,0,1-9,9,5.006,5.006,0,0,0-5,5V57a5.006,5.006,0,0,0,5,5H56a5.006,5.006,0,0,0,5-5V31A5.006,5.006,0,0,0,56,26ZM5,36H31V46H5ZM32,24.4,23.5,4h17ZM33,36H59V46H33ZM45,7V17A11.013,11.013,0,0,0,56,28a3,3,0,0,1,3,3v3H33V27.2L42.637,4.071A3,3,0,0,1,45,7ZM8,28A11.013,11.013,0,0,0,19,17V7a3,3,0,0,1,2.363-2.929L31,27.2V34H5V31A3,3,0,0,1,8,28ZM8,60a3,3,0,0,1-3-3V48H31v7a5.006,5.006,0,0,1-5,5Zm22.889,0A7.045,7.045,0,0,0,32,58.587,7.045,7.045,0,0,0,33.111,60ZM56,60H38a5.006,5.006,0,0,1-5-5V48H59v9A3,3,0,0,1,56,60Z"></path></g></svg>