<svg xmlns="http://www.w3.org/2000/svg" viewBox="0 0 64 64" x="0px" y="0px"><g><polygon points="53 10 55 10 55 8 57 8 57 6 55 6 55 4 53 4 53 6 51 6 51 8 53 8 53 10"></polygon><rect x="46" y="12" width="6" height="2"></rect><rect x="51" y="16" width="6" height="2"></rect><polygon points="53 54 51 54 51 56 49 56 49 58 51 58 51 60 53 60 53 58 55 58 55 56 53 56 53 54"></polygon><path d="M42,55.6A20,20,0,1,1,42,16.4V7a3,3,0,0,0-3-3H34V6a3,3,0,0,1-3,3H19a3,3,0,0,1-3-3V4H11A3,3,0,0,0,8,7V57a3,3,0,0,0,3,3H39a3,3,0,0,0,3-3ZM30,11h2v2H30Zm-4,0h2v2H26Zm-4,0h2v2H22Zm1.34,5.972L24.625,18.5,23.092,19.79l-1.285-1.533Zm-1.55,4.121-1.285,1.532-1.532-1.286,1.285-1.532ZM18,11h2v2H18Zm-.284,12.134,1.731,1-1,1.732-1.731-1Zm-1.927,3.718,1.88.684-.684,1.88-1.88-.685Zm-1.251,4,1.97.347-.348,1.97-1.97-.348ZM14,35h2v2H14Zm.19,4.183,1.97-.348.348,1.97-1.97.347Zm.915,4.086,1.88-.685.684,1.88-1.88.684Zm1.611,3.865,1.731-1,1,1.732-1.731,1Zm3.542,5.059-1.285-1.532,1.532-1.286,1.285,1.532Zm3.082,2.835-1.533-1.285,1.285-1.533L24.625,53.5Zm3.526,2.257-1.732-1,1-1.732,1.732,1Z"></path><path d="M19,7H31a1,1,0,0,0,1-1V4H18V6A1,1,0,0,0,19,7Z"></path><path d="M24,36a13.844,13.844,0,0,0,2.213,7.553l19.34-19.34A13.839,13.839,0,0,0,38,22,14.015,14.015,0,0,0,24,36Z"></path><path d="M56,36A18,18,0,1,0,38,54,18.021,18.021,0,0,0,56,36ZM26.08,46.1c-.021,0-.044,0-.065,0a1,1,0,0,1-.729-.39A15.842,15.842,0,0,1,22,36,16.019,16.019,0,0,1,38,20a15.83,15.83,0,0,1,9.708,3.286,1,1,0,0,1,.1,1.5l-21.02,21.02A1,1,0,0,1,26.08,46.1ZM38,52a15.83,15.83,0,0,1-9.708-3.286,1,1,0,0,1-.1-1.5l21.02-21.02a1,1,0,0,1,1.5.1A15.842,15.842,0,0,1,54,36,16.019,16.019,0,0,1,38,52Z"></path><path d="M49.787,28.447l-19.34,19.34A13.839,13.839,0,0,0,38,50,14.015,14.015,0,0,0,52,36,13.844,13.844,0,0,0,49.787,28.447Z"></path></g></svg>