<svg xmlns="http://www.w3.org/2000/svg" viewBox="0 0 48 48" x="0px" y="0px"><g><path d="M9,46H39a1,1,0,0,0,1-1V11H34a3,3,0,0,1-3-3V2H9A1,1,0,0,0,8,3V45A1,1,0,0,0,9,46ZM16,6h4V8H16ZM12,6h2V8H12Zm0,4h8v2H12Zm1.149,15.335A9.68,9.68,0,0,1,22.963,16a9.768,9.768,0,0,1,9.149,6.053,7.478,7.478,0,0,1-.262,14.925c-.213.012-.4.022-.591.022H15.185A6.1,6.1,0,0,1,9,31,6.021,6.021,0,0,1,13.149,25.335Z"></path><path d="M15.185,35H31.259c.155,0,.3-.009.455-.018a5.489,5.489,0,0,0-.337-10.972,1,1,0,0,1-.936-.7A7.851,7.851,0,0,0,22.963,18a7.671,7.671,0,0,0-7.815,7.5c0,.174.009.348.018.521a1.028,1.028,0,0,1-.811,1.062A4.047,4.047,0,0,0,11,31,4.1,4.1,0,0,0,15.185,35Z"></path><path d="M38.586,9,33,3.414V8a1,1,0,0,0,1,1Z"></path></g></svg>