<svg xmlns="http://www.w3.org/2000/svg" viewBox="0 0 64 64" x="0px" y="0px"><g><rect x="31" y="10" width="2" height="2"></rect><rect x="16.15" y="16.151" width="2" height="2" transform="translate(-7.104 17.151) rotate(-45)"></rect><rect x="10" y="31" width="2" height="2"></rect><rect x="16.15" y="45.849" width="2" height="2" transform="translate(-28.104 25.849) rotate(-45)"></rect><rect x="31" y="52" width="2" height="2"></rect><rect x="45.85" y="45.849" width="2" height="2" transform="translate(-19.405 46.849) rotate(-45)"></rect><rect x="52" y="31" width="2" height="2"></rect><rect x="45.85" y="16.151" width="2" height="2" transform="translate(1.594 38.151) rotate(-45)"></rect><path d="M34.311,4.1l1.4-1.4L34.293,1.293l-3,3a1,1,0,0,0,0,1.414l3,3,1.414-1.414L34.54,6.126a26,26,0,0,1,2.225,51.438l.363,1.967A28,28,0,0,0,34.311,4.1Z"></path><path d="M29.707,55.293l-1.414,1.414,1.167,1.167A26,26,0,0,1,28.154,6.282L27.861,4.3A28,28,0,0,0,29.689,59.9l-1.4,1.4,1.414,1.414,3-3a1,1,0,0,0,0-1.414Z"></path><path d="M32,14A18,18,0,1,0,50,32,18.021,18.021,0,0,0,32,14Zm0,34A16,16,0,1,1,48,32,16.019,16.019,0,0,1,32,48Z"></path><path d="M41,22H23a2,2,0,0,0-2,2V40a2,2,0,0,0,2,2H41a2,2,0,0,0,2-2V24A2,2,0,0,0,41,22Zm0,4H35V24h6Zm-8-2v6H31V24Zm-4,0v2H23V24ZM23,40V28h6v3a1,1,0,0,0,1,1h4a1,1,0,0,0,1-1V28h6V40Z"></path><rect x="35" y="36" width="4" height="2"></rect><rect x="31" y="36" width="2" height="2"></rect></g></svg>