<svg xmlns="http://www.w3.org/2000/svg" viewBox="0 0 64 64" x="0px" y="0px"><g data-name="VR Glasses"><path d="M51,25H13a2,2,0,0,0-2,2V37a2,2,0,0,0,2,2H25.146a1,1,0,0,0,.894-.553L27.764,35h8.472l1.724,3.447a1,1,0,0,0,.894.553H51a2,2,0,0,0,2-2V27A2,2,0,0,0,51,25Zm0,12H39.473l-1.724-3.447a1,1,0,0,0-.9-.553H27.146a1,1,0,0,0-.895.553L24.527,37H13V27H51Z"></path><path d="M58,27A25.028,25.028,0,0,0,33,2H31A25.028,25.028,0,0,0,6,27a2,2,0,0,0-2,2v6a2,2,0,0,0,2,2H8a5.006,5.006,0,0,0,3.03,4.592,20.978,20.978,0,0,0,41.94,0A5.006,5.006,0,0,0,56,37h2a2,2,0,0,0,2-2V29A2,2,0,0,0,58,27ZM31,4h2A23.026,23.026,0,0,1,56,27a5.006,5.006,0,0,0-5-5H13a5.006,5.006,0,0,0-5,5A23.026,23.026,0,0,1,31,4ZM6,35V29H8v6ZM32,60A19.007,19.007,0,0,1,13.051,42H27a1,1,0,0,0,.895-.553L29.618,38h4.764L36.1,41.447A1,1,0,0,0,37,42H50.949A19.007,19.007,0,0,1,32,60ZM54,37a3,3,0,0,1-3,3H37.618L35.9,36.553A1,1,0,0,0,35,36H29a1,1,0,0,0-.895.553L26.382,40H13a3,3,0,0,1-3-3V27a3,3,0,0,1,3-3H51a3,3,0,0,1,3,3V37Zm2-2V29h2v6Z"></path><path d="M28,14h8a3,3,0,0,0,3-3V9a3,3,0,0,0-3-3H28a3,3,0,0,0-3,3v2A3,3,0,0,0,28,14ZM27,9a1,1,0,0,1,1-1h8a1,1,0,0,1,1,1v2a1,1,0,0,1-1,1H28a1,1,0,0,1-1-1Z"></path><path d="M32,53a7.008,7.008,0,0,1-7-7H23a9,9,0,0,0,18,0H39A7.008,7.008,0,0,1,32,53Z"></path></g></svg>