<svg xmlns="http://www.w3.org/2000/svg" viewBox="0 0 64 64" x="0px" y="0px"><g><path d="M45,23H19a9.017,9.017,0,0,0-5.435,1.839,8,8,0,0,1,0,14.322A9.017,9.017,0,0,0,19,41H45a9,9,0,0,0,0-18ZM20,25h4v2H20Zm0,6H32v2H20Zm8,8H20V37h8Zm16,0H30V37H44Zm0-6H34V31H44Zm0-6H26V25H44Z"></path><circle cx="10" cy="32" r="2"></circle><path d="M45,17H19a15,15,0,0,0,0,30H45a15,15,0,0,0,0-30ZM6,32a4,4,0,1,1,4,4A4,4,0,0,1,6,32ZM45,43H19a11.048,11.048,0,0,1-8.062-3.529,1,1,0,0,1,.5-1.653,5.99,5.99,0,0,0,0-11.636,1,1,0,0,1-.5-1.653A11.048,11.048,0,0,1,19,21H45a11,11,0,0,1,0,22Z"></path></g></svg>