<svg xmlns="http://www.w3.org/2000/svg" viewBox="0 0 64 64" x="0px" y="0px"><title>Thief-Stolen-Robber-Package-Delivery</title><g><path d="M40.4,49.934C42.218,51.191,45.493,52,49,52s6.782-.809,8.6-2.066a6.748,6.748,0,0,0-1.754-1.128l-3.121-1.388a3.982,3.982,0,0,1-7.456,0L42.156,48.8A6.767,6.767,0,0,0,40.4,49.934Z"></path><path d="M38.279,53.286C40.719,54.965,44.734,56,49,56s8.281-1.035,10.721-2.714a6.976,6.976,0,0,0-.81-1.828C56.741,53.044,53.089,54,49,54s-7.741-.956-9.911-2.542A7.009,7.009,0,0,0,38.279,53.286Z"></path><path d="M10.19,4a1.016,1.016,0,0,0-.882.52L4.684,13H53.316L48.692,4.519A1.016,1.016,0,0,0,47.81,4Z"></path><path d="M47,44.737V46a2,2,0,0,0,4,0V44.737a7.736,7.736,0,0,1-4,0Z"></path><path d="M53.46,41H51a1,1,0,0,1-.9-.553L49.382,39h-.764L47.9,40.447A1,1,0,0,1,47,41H44.54a5.973,5.973,0,0,0,8.92,0Z"></path><rect x="36" y="15" width="18" height="6"></rect><path d="M4,59a1,1,0,0,0,1,1H36V55.2a9.185,9.185,0,0,1,.156-1.671,8.984,8.984,0,0,1,2.005-4.18,8.82,8.82,0,0,1,3.188-2.375L45,45.351V43.918A8,8,0,0,1,41,37V33a7.991,7.991,0,0,1,13-6.235V23H36v9a1,1,0,0,1-1.555.832L29,29.2l-5.445,3.63A1,1,0,0,1,22,32V23H4Z"></path><path d="M28.445,27.168a1,1,0,0,1,1.11,0L34,30.132V15H24V30.132Z"></path><path d="M60,55.473A22.793,22.793,0,0,1,49,58a22.793,22.793,0,0,1-11-2.527V60H60Z"></path><rect x="4" y="15" width="18" height="6"></rect><path d="M53.293,33.707l-1.49-1.49L48.447,33.9A1,1,0,0,1,48,34H43v3a5.976,5.976,0,0,0,.35,2h3.032l.723-1.447A1,1,0,0,1,48,37h2a1,1,0,0,1,.9.553L51.618,39H54.65A5.976,5.976,0,0,0,55,37V34H54A1,1,0,0,1,53.293,33.707ZM46,37H44V35h2Zm8,0H52V35h2Z"></path><path d="M49,27a6.006,6.006,0,0,0-5.91,5h4.674l3.789-1.895a1,1,0,0,1,1.154.188L54.414,32h.5A6.006,6.006,0,0,0,49,27Z"></path></g></svg>