<svg xmlns="http://www.w3.org/2000/svg" viewBox="0 0 64 64" x="0px" y="0px"><g data-name="Internet Security-Database-Hosting-Network-Browser"><path d="M50,36V12H4V45a3.009,3.009,0,0,0,3,3H38V42C38,38.58,43.16,36,50,36ZM38,18h8v2H38Zm-4,0h2v2H34Zm0,4H46v2H34Zm0,4H46v2H34Zm-6,2.939A13.006,13.006,0,0,1,21.313,40.3l-2.828,1.571a1,1,0,0,1-.97,0L14.687,40.3A13.006,13.006,0,0,1,8,28.939V23a1,1,0,0,1,.594-.914l9-4a1,1,0,0,1,.812,0l9,4A1,1,0,0,1,28,23ZM34,32V30H46v2Z"></path><path d="M4,10H50V7a3.009,3.009,0,0,0-3-3H7A3.009,3.009,0,0,0,4,7ZM14,6h2V8H14ZM10,6h2V8H10ZM6,6H8V8H6Z"></path><path d="M50,53c5.72,0,10-2.11,10-4V45.41C57.89,46.99,54.27,48,50,48s-7.89-1.01-10-2.59V49C40,50.89,44.28,53,50,53Zm-5-4h2v2H45Zm-4-1h2v2H41Z"></path><path d="M16,27a1.971,1.971,0,0,0,.67,1.479,1,1,0,0,1,.33.743V33a1,1,0,0,0,2,0V29.222a1,1,0,0,1,.33-.743A1.971,1.971,0,0,0,20,27a2,2,0,0,0-4,0Z"></path><path d="M10,23.65v5.289a11.007,11.007,0,0,0,5.657,9.616L18,39.856l2.343-1.3A11.007,11.007,0,0,0,26,28.939V23.65l-8-3.556ZM22,27a3.988,3.988,0,0,1-1,2.63V33a3,3,0,0,1-6,0V29.63A4,4,0,1,1,22,27Z"></path><path d="M50,38c-5.72,0-10,2.11-10,4s4.28,4,10,4,10-2.11,10-4S55.72,38,50,38Zm6,5H44V41H56Z"></path><path d="M50,60c5.72,0,10-2.11,10-4V52.41C57.89,53.99,54.27,55,50,55s-7.89-1.01-10-2.59V56C40,57.89,44.28,60,50,60Zm-5-4h2v2H45Zm-4-1h2v2H41Z"></path></g></svg>