<svg xmlns="http://www.w3.org/2000/svg" viewBox="0 0 64 64" x="0px" y="0px"><g><path d="M22.22,37.37a8.132,8.132,0,0,1,.24-2.68,7.627,7.627,0,0,1,.42-1.16l-.77.3a2.854,2.854,0,0,1-1.11.22,3.1,3.1,0,0,1-.95-.16l-3.03,3.02,2.83,2.83Z"></path><path d="M16.16,13.72a6.923,6.923,0,0,1,3.19,1.32l2.84-2.84a10.828,10.828,0,0,0-6.03-2.51Z"></path><path d="M10.21,31.25a2.016,2.016,0,0,0,2.84,0,2,2,0,0,0,0-2.82L10.92,26.3,8.09,29.13Z"></path><path d="M6.71,27.68l2.85-2.85a6.993,6.993,0,0,1-1.32-3.19H4.21A10.875,10.875,0,0,0,6.71,27.68Z"></path><rect x="12.752" y="39.504" width="5.006" height="4.002" transform="translate(-24.88 22.943) rotate(-45)"></rect><rect x="7.802" y="44.454" width="5.006" height="4.002" transform="translate(-29.83 20.893) rotate(-45)"></rect><path d="M8.24,19.64a7.112,7.112,0,0,1,1.32-3.18L6.71,13.61a10.816,10.816,0,0,0-2.5,6.03Z"></path><path d="M25.16,40a5.973,5.973,0,0,0,2.53,2.22L30.7,31H29.19l-2.76,1.11A5.888,5.888,0,0,0,24.88,34H28v2H24.25a5.833,5.833,0,0,0,.07,2H27v2Z"></path><path d="M39.68,38a5.833,5.833,0,0,0,.07-2H36V34h3.12a5.888,5.888,0,0,0-1.55-1.89L34.81,31H33.3l3.01,11.22A5.973,5.973,0,0,0,38.84,40H37V38Z"></path><path d="M58.29,48.22l-2.83,2.83,2.13,2.12A2,2,0,0,0,61,51.76a1.966,1.966,0,0,0-.59-1.41Z"></path><path d="M10.97,15.04a7.031,7.031,0,0,1,3.19-1.32V9.69a10.947,10.947,0,0,0-6.04,2.5Z"></path><polygon points="30.11 21 30.59 20.52 28.59 18.52 26.99 20.12 29.19 21 30.11 21"></polygon><polygon points="20.82 16.4 22.89 18.48 24.97 19.31 27.18 17.11 23.64 13.58 20.82 16.4"></polygon><path d="M5.71,48.22,3.59,50.35a1.98,1.98,0,0,0,0,2.82,1.992,1.992,0,0,0,2.82,0l2.13-2.12Z"></path><path d="M43.56,31.87a.968.968,0,0,0,.44-.82V20.95a1,1,0,0,0-1.37-.92L36,22.68V25h4v2H36v2.32l6.63,2.65A.968.968,0,0,0,43.56,31.87Z"></path><path d="M44.65,15.04a6.923,6.923,0,0,1,3.19-1.32V9.69a10.828,10.828,0,0,0-6.03,2.51Z"></path><polygon points="36.82 17.11 39.03 19.31 41.11 18.48 43.18 16.4 40.36 13.58 36.82 17.11"></polygon><polygon points="33.41 20.52 33.89 21 34.81 21 37.01 20.12 35.41 18.52 33.41 20.52"></polygon><rect x="51.694" y="43.952" width="4.002" height="5.006" transform="translate(-17.122 51.574) rotate(-45)"></rect><path d="M41.78,37.37l2.37,2.37,2.83-2.83-3.03-3.02a3.1,3.1,0,0,1-.95.16,2.854,2.854,0,0,1-1.11-.22l-.77-.3a7.627,7.627,0,0,1,.42,1.16A8.132,8.132,0,0,1,41.78,37.37Z"></path><path d="M49.84,13.72a7.031,7.031,0,0,1,3.19,1.32l2.85-2.85a10.947,10.947,0,0,0-6.04-2.5Z"></path><path d="M55.76,21.64a6.993,6.993,0,0,1-1.32,3.19l2.85,2.85a10.875,10.875,0,0,0,2.5-6.04Z"></path><path d="M53.08,26.3l-2.12,2.13a1.949,1.949,0,0,0-.59,1.41,1.981,1.981,0,0,0,.58,1.41,2.016,2.016,0,0,0,2.84,0l2.12-2.12Z"></path><rect x="30" y="23" width="4" height="6"></rect><rect x="46.744" y="39.002" width="4.002" height="5.006" transform="translate(-15.071 46.624) rotate(-45)"></rect><path d="M54.44,16.46a7.112,7.112,0,0,1,1.32,3.18h4.03a10.816,10.816,0,0,0-2.5-6.03Z"></path><path d="M28,27H24V25h4V22.68l-6.63-2.65a.986.986,0,0,0-.37-.08.957.957,0,0,0-.56.18.968.968,0,0,0-.44.82v10.1a1,1,0,0,0,1.37.92L28,29.32Z"></path></g></svg>