<svg xmlns="http://www.w3.org/2000/svg" viewBox="0 0 64 64" x="0px" y="0px"><g data-name="skyscraper-building-tower-city-real estate"><path d="M58,60V18H48V60H46V10H18V60H16V18H6V60H2v2H62V60ZM54,20h2v2H54Zm0,4h2v2H54Zm0,4h2v2H54Zm0,4h2v2H54Zm0,4h2v2H54Zm0,4h2v2H54Zm0,4h2v2H54Zm0,4h2v2H54Zm0,4h2v2H54Zm0,4h2v2H54ZM50,20h2v2H50Zm0,4h2v2H50Zm0,4h2v2H50Zm0,4h2v2H50Zm0,4h2v2H50Zm0,4h2v2H50Zm0,4h2v2H50Zm0,4h2v2H50Zm0,4h2v2H50Zm0,4h2v2H50ZM12,20h2v2H12Zm0,4h2v2H12Zm0,4h2v2H12Zm0,4h2v2H12Zm0,4h2v2H12Zm0,4h2v2H12Zm0,4h2v2H12Zm0,4h2v2H12Zm0,4h2v2H12Zm0,4h2v2H12ZM8,20h2v2H8Zm0,4h2v2H8Zm0,4h2v2H8Zm0,4h2v2H8Zm0,4h2v2H8Zm0,4h2v2H8Zm0,4h2v2H8Zm0,4h2v2H8Zm0,4h2v2H8Zm0,4h2v2H8ZM21,13a1,1,0,0,1,1-1H42a1,1,0,0,1,1,1V53a1,1,0,0,1-1,1H22a1,1,0,0,1-1-1Zm8,47V58H27v2H25V58H23v2H21V57a1,1,0,0,1,1-1h8a1,1,0,0,1,1,1v3Zm12,0V58H39v2H37V58H35v2H33V57a1,1,0,0,1,1-1h8a1,1,0,0,1,1,1v3Z"></path><rect x="28" y="34" width="3" height="3"></rect><rect x="28" y="24" width="3" height="3"></rect><rect x="28" y="29" width="3" height="3"></rect><rect x="28" y="19" width="3" height="3"></rect><rect x="23" y="34" width="3" height="3"></rect><rect x="33" y="44" width="3" height="3"></rect><rect x="33" y="49" width="3" height="3"></rect><rect x="23" y="24" width="3" height="3"></rect><rect x="33" y="39" width="3" height="3"></rect><rect x="28" y="39" width="3" height="3"></rect><rect x="23" y="14" width="3" height="3"></rect><rect x="23" y="29" width="3" height="3"></rect><rect x="28" y="44" width="3" height="3"></rect><rect x="28" y="49" width="3" height="3"></rect><rect x="28" y="14" width="3" height="3"></rect><rect x="38" y="19" width="3" height="3"></rect><rect x="38" y="24" width="3" height="3"></rect><rect x="38" y="29" width="3" height="3"></rect><rect x="38" y="14" width="3" height="3"></rect><rect x="38" y="34" width="3" height="3"></rect><polygon points="23 6 25 6 25 8 27 8 27 6 29 6 29 8 31 8 31 6 33 6 33 8 35 8 35 6 37 6 37 8 39 8 39 6 41 6 41 8 43 8 43 4 21 4 21 8 23 8 23 6"></polygon><rect x="33" y="29" width="3" height="3"></rect><rect x="38" y="39" width="3" height="3"></rect><rect x="33" y="19" width="3" height="3"></rect><rect x="33" y="34" width="3" height="3"></rect><rect x="33" y="24" width="3" height="3"></rect><rect x="38" y="44" width="3" height="3"></rect><rect x="38" y="49" width="3" height="3"></rect><rect x="33" y="14" width="3" height="3"></rect><rect x="23" y="19" width="3" height="3"></rect><rect x="23" y="39" width="3" height="3"></rect><rect x="23" y="49" width="3" height="3"></rect><rect x="23" y="44" width="3" height="3"></rect></g></svg>