<svg xmlns="http://www.w3.org/2000/svg" viewBox="0 0 32 32" x="0px" y="0px"><g><path d="M30,25V23H27.9a4.961,4.961,0,0,0-.732-1.753l1.49-1.49-1.414-1.414-1.49,1.49A4.969,4.969,0,0,0,24,19.1V17H22v2.1a4.969,4.969,0,0,0-1.753.732l-1.49-1.49-1.414,1.414,1.49,1.49A4.961,4.961,0,0,0,18.1,23H16v2h2.1a4.961,4.961,0,0,0,.732,1.753l-1.49,1.49,1.414,1.414,1.49-1.49A4.969,4.969,0,0,0,22,28.9V31h2V28.9a4.969,4.969,0,0,0,1.753-.732l1.49,1.49,1.414-1.414-1.49-1.49A4.961,4.961,0,0,0,27.9,25Zm-7,2a3,3,0,1,1,3-3A3,3,0,0,1,23,27Z"></path><path d="M23,3a1,1,0,0,0-1-1H10A1,1,0,0,0,9,3V4H23Z"></path><path d="M9,6V24h5V22a1,1,0,0,1,1-1h.76l-.536-.532a1,1,0,0,1,0-1.418l2.831-2.825a1,1,0,0,1,1.413,0L20,16.76V16a1,1,0,0,1,1-1h2V6Zm4,10H11V14h2Zm4,0H15V14h2Z"></path><path d="M15.27,29H15V27H14V26H9v3a1,1,0,0,0,1,1h6.27Z"></path></g></svg>