<svg xmlns="http://www.w3.org/2000/svg" viewBox="0 0 64 64" x="0px" y="0px"><title>Icream</title><g><path d="M44.507,28h-.054a16,16,0,1,0-24.906,0h-.054a2,2,0,0,0-1.849,2.762L30.15,61.135a2,2,0,0,0,3.7,0L46.356,30.761A2,2,0,0,0,44.507,28ZM18,18A14,14,0,1,1,41.761,28H22.239A13.965,13.965,0,0,1,18,18ZM32,60.382l0-.009L19.493,30H44.507Z"></path><path d="M25.919,36.606a1,1,0,0,0-1.838.788l6,14A1,1,0,0,0,31,52a.979.979,0,0,0,.394-.081,1,1,0,0,0,.525-1.313Z"></path><path d="M42,18a1,1,0,0,0,2,0A12.013,12.013,0,0,0,32,6a1,1,0,0,0,0,2A10.011,10.011,0,0,1,42,18Z"></path><path d="M43.92,20.62a.824.824,0,0,0-.09-.181l-.12-.149a1.047,1.047,0,0,0-1.42,0,1.7,1.7,0,0,0-.12.149.782.782,0,0,0-.09.181.6.6,0,0,0-.06.19A1.213,1.213,0,0,0,42,21a.99.99,0,0,0,.29.71,1.155,1.155,0,0,0,.33.21A.99.99,0,0,0,44,21a1.105,1.105,0,0,0-.021-.19A.577.577,0,0,0,43.92,20.62Z"></path></g></svg>