<svg xmlns="http://www.w3.org/2000/svg" viewBox="0 0 64 64" x="0px" y="0px"><g data-name="Online Shopping-Shopping-Smartphone-Shopping Bag-Commerce"><path d="M48,16a2,2,0,0,0-4,0v1h4Z"></path><polygon points="52 19 50 19 50 21 48 21 48 19 44 19 44 21 42 21 42 19 40 19 40 27 52 27 52 19"></polygon><path d="M28,46a1,1,0,0,0,0-2H24a1,1,0,0,0,0,2Z"></path><path d="M35.34,34.93l-6.53,1.22a1.019,1.019,0,0,1-1.01-.41,1,1,0,0,1-.04-1.08l3.38-5.73A15.98,15.98,0,0,1,40.85,7.86,5,5,0,0,0,36,4H16a5,5,0,0,0-5,5V45a4.032,4.032,0,0,0,.04.6l3.4-5.89a3.948,3.948,0,0,1,2.43-1.87,3.988,3.988,0,0,1,4.7,5.42A2.983,2.983,0,0,1,24,42h4a3,3,0,0,1,0,6H24a3.009,3.009,0,0,1-3-3,2.962,2.962,0,0,1,.17-.95L17.73,50H36a5,5,0,0,0,5-5V38.2A15.922,15.922,0,0,1,35.34,34.93ZM29,20H25V18h4ZM18,6h2V8H18Zm5,15a5.013,5.013,0,1,1-2.25-4.17l1.54-1.54,1.42,1.42-1.54,1.54A4.979,4.979,0,0,1,23,21ZM22,8V6h8V8Zm3,14h4v2H25Z"></path><path d="M17.707,22.707l-1.414-1.414L19.285,18.3A2.951,2.951,0,0,0,18,18a3,3,0,1,0,3,3,2.951,2.951,0,0,0-.3-1.285Z"></path><path d="M52,30V29H40v1a1,1,0,0,0,1,1H51A1,1,0,0,0,52,30Z"></path><path d="M15.13,50.5a1.031,1.031,0,0,0,.01,1.02l2.14,3.56A4.987,4.987,0,0,1,18,57.65V61H4V44.19a9.038,9.038,0,0,1,.83-3.76L9,31.38V45a6.966,6.966,0,0,0,.89,3.41,1,1,0,0,0,1.78.09l4.5-7.79a2,2,0,0,1,1.21-.94,2.06,2.06,0,0,1,1.52.2,2,2,0,0,1,.73,2.74Z"></path><path d="M57.47,14.97A14,14,0,0,0,33.18,28.61a1.042,1.042,0,0,1-.06.91L30.6,33.78l4.87-.91a1.087,1.087,0,0,1,.18-.01,1.011,1.011,0,0,1,.69.27A14,14,0,0,0,57.47,14.97ZM54,30a3.009,3.009,0,0,1-3,3H41a3.009,3.009,0,0,1-3-3V18a1,1,0,0,1,1-1h3V16a4,4,0,0,1,8,0v1h3a1,1,0,0,1,1,1Z"></path></g></svg>