<svg xmlns="http://www.w3.org/2000/svg" viewBox="0 0 64 64" x="0px" y="0px"><g data-name="Money Tree-Dollar Tree-Profit-Finance-Growth"><path d="M46,18V17a3,3,0,0,0,0-6H44a1,1,0,0,1,0-2h2a1,1,0,0,1,1,1h2a3,3,0,0,0-3-3V6H44V7a3,3,0,0,0,0,6h2a1,1,0,0,1,0,2H44a1,1,0,0,1-1-1H41a3,3,0,0,0,3,3v1Z"></path><path d="M61,36H56.18L46,32.3V30.17l.71.11a6.559,6.559,0,0,0,1.08.09,7.057,7.057,0,0,0,6.55-4.49l.67-1.76a1,1,0,0,0-.06-.86,1.052,1.052,0,0,0-.71-.49l-1.87-.29A7.019,7.019,0,0,0,46,24.8V21.95a10,10,0,1,0-2,0V24.8a7.019,7.019,0,0,0-6.37-2.32l-1.87.29a1.052,1.052,0,0,0-.71.49,1,1,0,0,0-.06.86l.67,1.76a7.057,7.057,0,0,0,6.55,4.49,6.559,6.559,0,0,0,1.08-.09l.71-.11V32.3L33.82,36H29a1,1,0,0,0-1,1v6a1,1,0,0,0,1,1h1.11l.44,4H22a2.923,2.923,0,0,0-1.32.32A2.923,2.923,0,0,0,21,47V45a3.009,3.009,0,0,0-3-3H13V39.17l.71.11a6.559,6.559,0,0,0,1.08.09,7.057,7.057,0,0,0,6.55-4.49l.67-1.76a1,1,0,0,0-.06-.86,1.03,1.03,0,0,0-.71-.49l-1.87-.29A7.005,7.005,0,0,0,12,35.35a7,7,0,0,0-7.37-3.87l-1.87.29a1.03,1.03,0,0,0-.71.49,1,1,0,0,0-.06.86l.67,1.76a7.057,7.057,0,0,0,6.55,4.49,6.559,6.559,0,0,0,1.08-.09l.71-.11V42H6a3.009,3.009,0,0,0-3,3v2a2.974,2.974,0,0,0,.78,2A2.974,2.974,0,0,0,3,51v2a2.974,2.974,0,0,0,.78,2A2.974,2.974,0,0,0,3,57v2a3.009,3.009,0,0,0,3,3H18a2.974,2.974,0,0,0,2-.78A2.974,2.974,0,0,0,22,62H57a.989.989,0,0,0,.99-.89L59.9,44H61a1,1,0,0,0,1-1V37A1,1,0,0,0,61,36ZM46.61,27.6a5.039,5.039,0,0,1,5.45-3.15l.64.1-.23.61a5.039,5.039,0,0,1-5.45,3.15l-.64-.1Zm-3.63.71a5.039,5.039,0,0,1-5.45-3.15l-.23-.61.64-.1a5.039,5.039,0,0,1,5.45,3.15l.23.61ZM13.61,36.6a5.039,5.039,0,0,1,5.45-3.15l.64.1-.23.61a5.033,5.033,0,0,1-5.45,3.15l-.64-.1Zm-3.63.71a5.033,5.033,0,0,1-5.45-3.15l-.23-.61.64-.1a5.033,5.033,0,0,1,5.45,3.15l.23.61ZM19,59a1,1,0,0,1-1,1H6a1,1,0,0,1-1-1V57a1,1,0,0,1,1-1H7v2H9V56h2v2h2V56h2v2h2V56h1a1,1,0,0,1,1,1Zm0-6a1,1,0,0,1-1,1H6a1,1,0,0,1-1-1V51a1,1,0,0,1,1-1H7v2H9V50h2v2h2V50h2v2h2V50h1a1,1,0,0,1,1,1Zm0-6a1,1,0,0,1-1,1H6a1,1,0,0,1-1-1V45a1,1,0,0,1,1-1H7v2H9V44h2v2h2V44h2v2h2V44h1a1,1,0,0,1,1,1ZM37,12a8,8,0,1,1,8,8A8.011,8.011,0,0,1,37,12Zm8,22.06L50.32,36H39.68ZM21,51a1,1,0,0,1,1-1h1v2h2V50h2v2h2V50h1.77l.45,4H22a1,1,0,0,1-1-1Zm1,9a1,1,0,0,1-1-1V57a1,1,0,0,1,1-1h1v2h2V56h2v2h2V56h2v2h.66l.22,2Zm34.1,0H33.9L32.12,44H57.88ZM60,42H30V38H60Z"></path></g></svg>