<svg xmlns="http://www.w3.org/2000/svg" viewBox="0 0 64 64" x="0px" y="0px"><g data-name="Online Consult"><path d="M5,60H33a1,1,0,0,0,1-1V52H8V50H34V40.479A10.986,10.986,0,0,1,30,32V23a5,5,0,0,0-10,0v4.1a5,5,0,1,1-2,0V23a7,7,0,0,1,14,0v9a8.955,8.955,0,0,0,2,5.644V5a1,1,0,0,0-1-1H5A1,1,0,0,0,4,5v5H30v2H4V59A1,1,0,0,0,5,60Zm13-5h2v2H18Zm7-13h4v2H25Zm-4,0h2v2H21Zm0,4h8v2H21ZM11,8H9V6h2Zm6,0H15V6h2ZM6,15a1,1,0,0,1,1-1h4v2H8v3H6Z"></path><circle cx="19" cy="32" r="3"></circle><path d="M61,4H58V3H55a1,1,0,0,0-1,1V6a1,1,0,0,0,1,1h3V6h2V20a9,9,0,0,1-18,0V6h2V7h3a1,1,0,0,0,1-1V4a1,1,0,0,0-1-1H44V4H41a1,1,0,0,0-1,1V20A11.01,11.01,0,0,0,50,30.949V32a8.991,8.991,0,0,1-16,5.64v2.85A11,11,0,0,0,52,32V30.949A11.01,11.01,0,0,0,62,20V5A1,1,0,0,0,61,4Z"></path></g></svg>