<svg xmlns="http://www.w3.org/2000/svg" viewBox="0 0 64 64" x="0px" y="0px"><g><circle cx="32" cy="37" r="2"></circle><rect x="31" y="58" width="2" height="2"></rect><path d="M38,60V54a2.981,2.981,0,0,1-2-.78,2.954,2.954,0,0,1-4,0,2.954,2.954,0,0,1-4,0A2.981,2.981,0,0,1,26,54v6h3V57a1,1,0,0,1,1-1h4a1,1,0,0,1,1,1v3Z"></path><polygon points="27.5 46 26 48 38 48 36.5 46 27.5 46"></polygon><path d="M25,51a1,1,0,0,0,2,0h2a1,1,0,0,0,2,0h2a1,1,0,0,0,2,0h2a1,1,0,0,0,2,0V50H25Z"></path><path d="M59,49V43a2.981,2.981,0,0,1-2-.78,2.954,2.954,0,0,1-4,0,2.954,2.954,0,0,1-4,0A2.981,2.981,0,0,1,47,43v6h3V46a1,1,0,0,1,1-1h4a1,1,0,0,1,1,1v3Z"></path><rect x="52" y="47" width="2" height="2"></rect><path d="M46,40a1,1,0,0,0,2,0h2a1,1,0,0,0,2,0h2a1,1,0,0,0,2,0h2a1,1,0,0,0,2,0V39H46Z"></path><polygon points="48.5 35 47 37 59 37 57.5 35 48.5 35"></polygon><path d="M17,49V43a2.981,2.981,0,0,1-2-.78,2.954,2.954,0,0,1-4,0,2.954,2.954,0,0,1-4,0A2.981,2.981,0,0,1,5,43v6H8V46a1,1,0,0,1,1-1h4a1,1,0,0,1,1,1v3Z"></path><rect x="10" y="47" width="2" height="2"></rect><polygon points="6.5 35 5 37 17 37 15.5 35 6.5 35"></polygon><path d="M4,40a1,1,0,0,0,2,0H8a1,1,0,0,0,2,0h2a1,1,0,0,0,2,0h2a1,1,0,0,0,2,0V39H4Z"></path><path d="M45.79,15.048a1,1,0,0,1-.873-1.171A4.893,4.893,0,0,0,45,13a5.006,5.006,0,0,0-5-5,4.94,4.94,0,0,0-2.16.5,1,1,0,0,1-1.275-.359A8.993,8.993,0,0,0,20.046,13.9a1,1,0,0,1-1,1.1A7,7,0,1,0,19,29H45a7,7,0,0,0,.79-13.952ZM43,27H41V25h2Zm2,0V25a3,3,0,0,0,3-3h2A5.006,5.006,0,0,1,45,27Z"></path><rect x="31" y="31" width="2" height="2"></rect><rect x="36" y="36" width="6" height="2"></rect><rect x="31" y="41" width="2" height="2"></rect><rect x="22" y="36" width="6" height="2"></rect></g></svg>