<svg xmlns="http://www.w3.org/2000/svg" viewBox="0 0 64 64" x="0px" y="0px"><g><path d="M17.09,40.64a7.063,7.063,0,0,0,3.6,2.07l-2.04-2.55Z"></path><path d="M23,17c-5.49,0-9,1.78-9,3v5a9,9,0,0,0,18,0V20C32,18.78,28.49,17,23,17Zm-6,5a2,2,0,1,1,2,2A2,2,0,0,1,17,22Zm6,8a4.994,4.994,0,0,1-3.307-1.25l1.323-1.5a3.076,3.076,0,0,0,3.968,0l1.323,1.5A4.994,4.994,0,0,1,23,30Zm4-6a2,2,0,1,1,2-2A2,2,0,0,1,27,24Z"></path><path d="M28.64,34.43A1.956,1.956,0,0,0,30,35a1.99,1.99,0,0,0,1.92-1.48,1.053,1.053,0,0,1,.53-.64,1.016,1.016,0,0,1,.82-.02A2,2,0,0,0,36,31a1.938,1.938,0,0,0-.64-1.45,1.012,1.012,0,0,1-.3-.93,1,1,0,0,1,.64-.75A1.991,1.991,0,0,0,37,26a1.861,1.861,0,0,0-.04-.34,1.092,1.092,0,0,1-.13.17A4,4,0,0,1,34,27h-.19A11.02,11.02,0,0,1,28.64,34.43Z"></path><path d="M27.35,40.16l-2.04,2.55a7.063,7.063,0,0,0,3.6-2.07Z"></path><path d="M26,38.65V35.57a10.68,10.68,0,0,1-6,0v3.08l3,3.75Z"></path><path d="M12.88,17.95C14.67,16.02,18.93,15,23,15s8.33,1.02,10.12,2.95l2.81-4.4C32.68,11.28,28.03,10,23,10s-9.68,1.28-12.93,3.55Z"></path><path d="M23,8a29.082,29.082,0,0,1,7.53.98C29.42,6.66,26.44,5,23,5s-6.42,1.66-7.53,3.98A29.082,29.082,0,0,1,23,8Z"></path><path d="M12,21a2.006,2.006,0,0,0-2,2,2.015,2.015,0,0,0,2,2Z"></path><path d="M9.04,25.66A1.861,1.861,0,0,0,9,26a1.991,1.991,0,0,0,1.3,1.87,1,1,0,0,1,.64.75,1.012,1.012,0,0,1-.3.93A1.938,1.938,0,0,0,10,31a2,2,0,0,0,2.73,1.86,1.016,1.016,0,0,1,.82.02,1.053,1.053,0,0,1,.53.64A1.99,1.99,0,0,0,16,35a1.956,1.956,0,0,0,1.36-.57A11.02,11.02,0,0,1,12.19,27H12a4,4,0,0,1-2.83-1.17A1.092,1.092,0,0,1,9.04,25.66Z"></path><path d="M36,23a2.006,2.006,0,0,0-2-2v4a2.015,2.015,0,0,0,2-2Z"></path><path d="M18.38,51.95a9.392,9.392,0,0,0-1.82,3.72,9.336,9.336,0,0,0,3.35-2.43,9.495,9.495,0,0,0,1.81-3.72A9.558,9.558,0,0,0,18.38,51.95Z"></path><path d="M29.44,55.68a9.362,9.362,0,0,0-1.82-3.73,9.482,9.482,0,0,0-3.34-2.43,8.562,8.562,0,0,0,5.16,6.16Z"></path><path d="M4,60H9.97a2.655,2.655,0,0,0-.45-1.23A8.855,8.855,0,0,1,8,54a8.723,8.723,0,0,1,2.29-5.71l1.42,1.42A6.609,6.609,0,0,0,10,54a6.723,6.723,0,0,0,1.18,3.64A4.846,4.846,0,0,1,11.97,60H34.03a4.846,4.846,0,0,1,.79-2.36A6.723,6.723,0,0,0,36,54a6.609,6.609,0,0,0-1.71-4.29l1.42-1.42A8.639,8.639,0,0,1,37.72,52H42V49.88a6.943,6.943,0,0,0-4.91-6.67l-2.23-.7a12.584,12.584,0,0,1-8.18,6.03,10.508,10.508,0,0,1,2.47,2.13,12.158,12.158,0,0,1,2.56,6.46,1,1,0,0,1-.35.83,1.032,1.032,0,0,1-.65.23,1.953,1.953,0,0,1-.23-.02,12.232,12.232,0,0,1-5.92-3.65A10.412,10.412,0,0,1,23,51.96a10.412,10.412,0,0,1-1.56,2.56,12.232,12.232,0,0,1-5.92,3.65,1.953,1.953,0,0,1-.23.02,1.032,1.032,0,0,1-.65-.23,1,1,0,0,1-.35-.83,12.158,12.158,0,0,1,2.56-6.46,10.508,10.508,0,0,1,2.47-2.13,12.584,12.584,0,0,1-8.18-6.03l-2.23.69A6.964,6.964,0,0,0,4,49.88Z"></path><path d="M36.03,60h3.35L37.6,56.44a9.1,9.1,0,0,1-1.12,2.33A2.655,2.655,0,0,0,36.03,60Z"></path><rect x="56" y="46" width="4" height="6"></rect><path d="M60,54H38.62l3,6H60ZM44,58H42V56h2Zm4,0H46V56h2Zm4,0H50V56h2Z"></path><path d="M22.99,47h.02c4.26,0,8.08-2.02,9.89-5.11l-1.96-.61A9.62,9.62,0,0,1,23,45a9.62,9.62,0,0,1-7.94-3.72l-1.96.61C14.91,44.98,18.73,47,22.99,47Z"></path><rect x="50" y="48" width="4" height="4"></rect></g></svg>