<svg xmlns="http://www.w3.org/2000/svg" viewBox="0 0 64 64" x="0px" y="0px"><g data-name="Save Time-Time Management-Hands-Clock-Time"><path d="M23.427,49.2a11.006,11.006,0,0,0,.05-5.873l-.338-1.26a10.938,10.938,0,0,0-1.817-3.742l-1.957-2.616L17.6,29.13A4,4,0,0,0,12.7,26.3a4.27,4.27,0,0,0-.447.167l2.609-9.733a4,4,0,1,0-7.73-2.071L3.06,29.871a16.878,16.878,0,0,0,.586,10.588L8.274,52.306,9,60.094,11,59.906l-.744-7.927a1.01,1.01,0,0,0-.064-.271L5.509,39.73a14.891,14.891,0,0,1-.518-9.341L9.067,15.183a2,2,0,0,1,3.868,1.036l-3.191,11.9a5.028,5.028,0,0,0,0,2.589l2.72,10.149,1.932-.517-2.589-9.659a2,2,0,0,1,3.864-1.036l1.812,6.762a1,1,0,0,0,.165.34L19.72,39.52a8.944,8.944,0,0,1,1.487,3.061l.338,1.26a9,9,0,0,1-.041,4.805l-.841,2.943a1,1,0,0,0,0,.556L23.04,60.28l1.92-.56-2.3-7.859Z"></path><path d="M60.35,40.46,55.73,52.31,55,60.09l-2-.18.75-7.93a1.179,1.179,0,0,1,.06-.27l4.68-11.98a14.938,14.938,0,0,0,.52-9.34L54.93,15.18a2,2,0,0,0-2.45-1.41,2,2,0,0,0-1.41,2.45l3.19,11.9a5.164,5.164,0,0,1,0,2.59L51.54,40.86l-1.94-.52,2.59-9.66a2.012,2.012,0,0,0-1.41-2.45,2.06,2.06,0,0,0-1.52.2,2.008,2.008,0,0,0-.93,1.22l-1.81,6.76a1.085,1.085,0,0,1-.17.34l-2.07,2.77a8.982,8.982,0,0,0-1.49,3.06l-.33,1.26a8.929,8.929,0,0,0,.04,4.81l.84,2.94a1.027,1.027,0,0,1,0,.55l-2.38,8.14-1.92-.56,2.29-7.86-.76-2.66a11.072,11.072,0,0,1-.05-5.88l.34-1.26a11.211,11.211,0,0,1,1.82-3.74l1.96-2.61,1.76-6.58a4,4,0,0,1,4.9-2.83,3.336,3.336,0,0,1,.44.17l-2.61-9.73a4,4,0,1,1,7.73-2.07l4.08,15.2A16.848,16.848,0,0,1,60.35,40.46Z"></path><path d="M32,7A11,11,0,1,0,43,18,11.013,11.013,0,0,0,32,7Zm8.941,12a8.956,8.956,0,0,1-1.916,4.611l-1.368-1.368-1.414,1.414,1.368,1.368A8.956,8.956,0,0,1,33,26.941V25H31v1.941a8.956,8.956,0,0,1-4.611-1.916l1.368-1.368-1.414-1.414-1.368,1.368A8.956,8.956,0,0,1,23.059,19H25V17H23.059a8.956,8.956,0,0,1,1.916-4.611l1.368,1.368,1.414-1.414-1.368-1.368A8.956,8.956,0,0,1,31,9.059V11h2V9.059a8.956,8.956,0,0,1,4.611,1.916l-1.368,1.368,1.414,1.414,1.368-1.368A8.956,8.956,0,0,1,40.941,17H39v2Z"></path><path d="M31,17.586l-1.707,1.707,1.414,1.414,2-2A1,1,0,0,0,33,18V13H31Z"></path><path d="M47,18A15,15,0,1,0,32,33,15.017,15.017,0,0,0,47,18ZM32,31A13,13,0,1,1,45,18,13.015,13.015,0,0,1,32,31Z"></path></g></svg>