<svg xmlns="http://www.w3.org/2000/svg" viewBox="0 0 64 64" x="0px" y="0px"><g data-name="Payment-Hands-Payment Method-Cash-Money"><rect x="24" y="51" width="2" height="2"></rect><path d="M56.23,31.93a3,3,0,0,0-4.1,1.11l-.13.23V30h1a3.009,3.009,0,0,0,3-3V5a3.009,3.009,0,0,0-3-3H10A3.009,3.009,0,0,0,7,5V27a3.009,3.009,0,0,0,3,3h2v3.27l-.13-.22a3.051,3.051,0,0,0-4.1-1.11,3,3,0,0,0-1.1,4.1L13,47a1,1,0,0,0-1,1v8a1,1,0,0,0,1,1v5h2V57H27.66L28,62.07l2-.14-.35-5.19A.971.971,0,0,0,30,56V48a.988.988,0,0,0-.97-.99l.94-3.77A.986.986,0,0,0,30,43V30h4V43a.986.986,0,0,0,.03.24l.94,3.77A.988.988,0,0,0,34,48v8a.971.971,0,0,0,.35.74L34,61.93l2,.14L36.34,57H49v5h2V57a1,1,0,0,0,1-1V48a1,1,0,0,0-1-1l6.32-10.96A3,3,0,0,0,56.23,31.93ZM54,27a1,1,0,0,1-1,1H48.08A7,7,0,0,1,54,22.08ZM53,4a1,1,0,0,1,1,1V9.92A7,7,0,0,1,48.08,4ZM9,5a1,1,0,0,1,1-1h4.92A7,7,0,0,1,9,9.92Zm1,23a1,1,0,0,1-1-1V22.08A7,7,0,0,1,14.92,28ZM28,55H14V49H28Zm0-12.12-.97,3.88a.974.974,0,0,0-.02.24H15v-.27a1.063,1.063,0,0,0-.13-.5L8.4,35.04a.991.991,0,0,1,.37-1.37,1,1,0,0,1,1.36.37l2,3.46A1,1,0,0,0,13,38h1a4,4,0,0,1,4,4v1h2V42a6,6,0,0,0-6-6V30h2v3a1,1,0,0,0,2,0V30h2v3a1,1,0,0,0,2,0V30h2v3a1,1,0,0,0,2,0V30h2ZM16.94,28A9.013,9.013,0,0,0,9,20.06V11.94A9.013,9.013,0,0,0,16.94,4H46.06A9.013,9.013,0,0,0,54,11.94v8.12A9.013,9.013,0,0,0,46.06,28ZM50,55H36V49H50Zm5.59-19.96L49.13,46.23a1.063,1.063,0,0,0-.13.5V47H36.99a.974.974,0,0,0-.02-.24L36,42.88V30h2v3a1,1,0,0,0,2,0V30h2v3a1,1,0,0,0,2,0V30h2v3a1,1,0,0,0,2,0V30h2v6a6,6,0,0,0-6,6v1h2V42a4,4,0,0,1,4-4h1a1,1,0,0,0,.87-.5l2-3.47a1.021,1.021,0,0,1,1.36-.37A.993.993,0,0,1,55.59,35.04Z"></path><rect x="38" y="51" width="2" height="2"></rect><path d="M31,13h2a1,1,0,0,1,1,1h2a3,3,0,0,0-3-3V10H31v1a3,3,0,0,0,0,6h2a1,1,0,0,1,0,2H31a1,1,0,0,1-1-1H28a3,3,0,0,0,3,3v1h2V21a3,3,0,0,0,0-6H31a1,1,0,0,1,0-2Z"></path><path d="M32,6A10,10,0,1,0,42,16,10.011,10.011,0,0,0,32,6Zm0,18a8,8,0,1,1,8-8A8.009,8.009,0,0,1,32,24Z"></path></g></svg>