<svg xmlns="http://www.w3.org/2000/svg" viewBox="0 0 64 64" x="0px" y="0px"><title>Air Conditioner</title><g data-name="Air Conditioner"><path d="M59,16H5a3,3,0,0,0-3,3V34.892A3.112,3.112,0,0,0,5.108,38H58.892A3.112,3.112,0,0,0,62,34.892V19A3,3,0,0,0,59,16Zm1,18.892A1.109,1.109,0,0,1,58.892,36H5.108A1.109,1.109,0,0,1,4,34.892V19a1,1,0,0,1,1-1H59a1,1,0,0,1,1,1Z"></path><path d="M56,29H8a1,1,0,0,0-1,1v4a1,1,0,0,0,1,1H56a1,1,0,0,0,1-1V30A1,1,0,0,0,56,29ZM9,31h6v2H9Zm8,0h6v2H17Zm8,0h6v2H25Zm8,0h6v2H33Zm8,0h6v2H41Zm14,2H49V31h6Z"></path><rect x="7" y="22" width="4" height="2"></rect><rect x="13" y="22" width="2" height="2"></rect><rect x="56" y="20" width="2" height="2"></rect><rect x="56" y="23" width="2" height="2"></rect><rect x="53" y="20" width="2" height="2"></rect><path d="M12.707,40.707l-1.414-1.414a3.721,3.721,0,0,0,0,5.414,1.009,1.009,0,0,1,.391.837c-.066.685-.94,1.422-1.242,1.626L11,48l.555.832a4.864,4.864,0,0,0,2.119-3.088,2.981,2.981,0,0,0-.967-2.451A1.723,1.723,0,0,1,12.707,40.707Z"></path><path d="M20.707,40.707l-1.414-1.414a3.721,3.721,0,0,0,0,5.414,1.009,1.009,0,0,1,.391.837c-.066.685-.94,1.422-1.242,1.626L19,48l.555.832a4.864,4.864,0,0,0,2.119-3.088,2.981,2.981,0,0,0-.967-2.451A1.723,1.723,0,0,1,20.707,40.707Z"></path><path d="M28.707,40.707l-1.414-1.414a3.721,3.721,0,0,0,0,5.414,1.009,1.009,0,0,1,.391.837c-.066.685-.94,1.422-1.242,1.626L27,48l.555.832a4.864,4.864,0,0,0,2.119-3.088,2.981,2.981,0,0,0-.967-2.451A1.723,1.723,0,0,1,28.707,40.707Z"></path><path d="M36.707,40.707l-1.414-1.414a3.721,3.721,0,0,0,0,5.414,1.009,1.009,0,0,1,.391.837c-.066.685-.94,1.422-1.242,1.626L35,48l.555.832a4.864,4.864,0,0,0,2.119-3.088,2.981,2.981,0,0,0-.967-2.451A1.723,1.723,0,0,1,36.707,40.707Z"></path><path d="M44.707,40.707l-1.414-1.414a3.721,3.721,0,0,0,0,5.414,1.009,1.009,0,0,1,.391.837c-.066.685-.94,1.422-1.242,1.626L43,48l.555.832a4.864,4.864,0,0,0,2.119-3.088,2.981,2.981,0,0,0-.967-2.451A1.723,1.723,0,0,1,44.707,40.707Z"></path><path d="M52.707,40.707l-1.414-1.414a3.721,3.721,0,0,0,0,5.414,1.009,1.009,0,0,1,.391.837c-.066.685-.94,1.422-1.242,1.626L51,48l.555.832a4.864,4.864,0,0,0,2.119-3.088,2.981,2.981,0,0,0-.967-2.451A1.723,1.723,0,0,1,52.707,40.707Z"></path></g></svg>