<svg xmlns="http://www.w3.org/2000/svg" viewBox="0 0 64 64" x="0px" y="0px"><g data-name="Geometric ruler"><path d="M12.2,12.2a28.086,28.086,0,0,0-1.44,38.045l2.065-2.065L11.494,46.85l1.414-1.414,1.332,1.331,2.828-2.829-1.332-1.332,1.414-1.414,1.332,1.332L21.311,39.7l-1.332-1.332,1.415-1.414,1.331,1.332,2.829-2.829-1.332-1.332,1.414-1.414,1.332,1.332L29.8,31.21l-1.331-1.331,1.414-1.414L31.21,29.8l2.829-2.828-1.332-1.332,1.414-1.414,1.332,1.332,2.829-2.829L36.95,21.394l1.414-1.415L39.7,21.311l2.828-2.829L41.192,17.15l1.414-1.414,1.333,1.332,2.828-2.828-1.331-1.332,1.414-1.414,1.331,1.332,2.065-2.065A28.087,28.087,0,0,0,12.2,12.2ZM40.78,13.32,13.32,40.78a1,1,0,0,1-.707.293.981.981,0,0,1-.194-.019,1,1,0,0,1-.73-.6A22,22,0,0,1,40.456,11.689a1,1,0,0,1,.324,1.631Z"></path><path d="M17.857,17.857a19.954,19.954,0,0,0-4.85,20.409L38.266,13.007a19.961,19.961,0,0,0-20.409,4.85Z"></path><polygon points="50.955 10.052 50.956 10.051 50.956 10.051 50.955 10.052"></polygon><polygon points="50 50 50 29.557 29.557 50 50 50"></polygon><path d="M60,12V5.414L5.414,60H12V57h2v3h4V57h2v3h4V57h2v3h4V57h2v3h4V57h2v3h4V57h2v3h4V57h2v3h4V57h2v3h4V56H57V54h3V50H57V48h3V44H57V42h3V38H57V36h3V32H57V30h3V26H57V24h3V20H57V18h3V14H57V12ZM52,51a1,1,0,0,1-1,1H27.143a1,1,0,0,1-.707-1.707L50.293,26.436A1,1,0,0,1,52,27.143Z"></path></g></svg>