<svg xmlns="http://www.w3.org/2000/svg" viewBox="0 0 64 64" x="0px" y="0px"><g><path d="M22,24h1V37a1,1,0,0,0,1,1H40a1,1,0,0,0,1-1V24h1a1,1,0,0,0,1-1V19a1,1,0,0,0-1-1H37V15a1,1,0,0,0-1-1H28a1,1,0,0,0-1,1v3H22a1,1,0,0,0-1,1v4A1,1,0,0,0,22,24ZM39,36H25V24H39ZM29,16h6v2H29Zm-6,4H41v2H23Z"></path><rect x="27" y="26" width="2" height="8"></rect><rect x="31" y="26" width="2" height="8"></rect><rect x="35" y="26" width="2" height="8"></rect><path d="M57,2H7A5.006,5.006,0,0,0,2,7V45a5.006,5.006,0,0,0,5,5H23.867l-.75,6H21a3,3,0,0,0,0,6H43a3,3,0,0,0,0-6H40.883l-.75-6H57a5.006,5.006,0,0,0,5-5V7A5.006,5.006,0,0,0,57,2ZM7,4H57a3,3,0,0,1,3,3v3H4V7A3,3,0,0,1,7,4Zm53,8V40H4V12ZM44,59a1,1,0,0,1-1,1H21a1,1,0,0,1,0-2H43A1,1,0,0,1,44,59Zm-5.133-3H25.133l.75-6H38.117ZM57,48H7a3,3,0,0,1-3-3V42H60v3A3,3,0,0,1,57,48Z"></path><rect x="54" y="44" width="2" height="2"></rect><rect x="8" y="6" width="2" height="2"></rect><rect x="12" y="6" width="2" height="2"></rect><rect x="16" y="6" width="2" height="2"></rect></g></svg>