<svg xmlns="http://www.w3.org/2000/svg" viewBox="0 0 64 64" x="0px" y="0px"><g data-name="Coding Process"><path d="M50.293,49.707,46.586,46H46V44h1a1,1,0,0,1,.707.293l4,4Z"></path><path d="M37.293,9.293a1,1,0,0,1,1.414,0L40,10.586V4H36v6.586Z"></path><rect x="19" y="50" width="29" height="4"></rect><rect x="50" y="50" width="4" height="4"></rect><circle cx="25" cy="28" r="5"></circle><rect x="56" y="51" width="4" height="2"></rect><polygon points="14 52.382 17 53.882 17 50.118 14 51.618 14 52.382"></polygon><path d="M35.81,27a.988.988,0,0,1-.98-.82,9.858,9.858,0,0,0-1.59-3.84,1,1,0,0,1,.11-1.28l1.55-1.55L33.49,18.1l-1.55,1.55a1,1,0,0,1-1.28.11,9.858,9.858,0,0,0-3.84-1.59.988.988,0,0,1-.82-.98V15H24v2.19a.988.988,0,0,1-.82.98,9.858,9.858,0,0,0-3.84,1.59,1,1,0,0,1-1.28-.11L16.51,18.1,15.1,19.51l1.55,1.55a1,1,0,0,1,.11,1.28,9.858,9.858,0,0,0-1.59,3.84.988.988,0,0,1-.98.82H12v2h2.19a.988.988,0,0,1,.98.82,9.858,9.858,0,0,0,1.59,3.84,1,1,0,0,1-.11,1.28L15.1,36.49l1.41,1.41,1.55-1.55a.987.987,0,0,1,1.27-.11,9.964,9.964,0,0,0,3.85,1.59.988.988,0,0,1,.82.98V41h2V38.81a.988.988,0,0,1,.82-.98,9.964,9.964,0,0,0,3.85-1.59.987.987,0,0,1,1.27.11l1.55,1.55,1.41-1.41-1.55-1.55a1,1,0,0,1-.11-1.28,9.858,9.858,0,0,0,1.59-3.84.988.988,0,0,1,.98-.82H38V27ZM25,35a7,7,0,1,1,7-7A7.008,7.008,0,0,1,25,35Z"></path><path d="M46,44V7a3.009,3.009,0,0,0-3-3H42v9a.987.987,0,0,1-.62.92A.838.838,0,0,1,41,14a1.007,1.007,0,0,1-.71-.29L38,11.41l-2.29,2.3a1,1,0,0,1-1.09.21A.987.987,0,0,1,34,13V4H7A3.009,3.009,0,0,0,4,7V57a3.009,3.009,0,0,0,3,3H43a3.009,3.009,0,0,0,3-3V56H17a1,1,0,0,1-.45-.11l-4-2A.988.988,0,0,1,12,53H8V51h4a.988.988,0,0,1,.55-.89l4-2A1,1,0,0,1,17,48H46V46H39V44ZM16,8h2v2H16ZM12,8h2v2H12ZM8,8h2v2H8ZM37.02,35.78a1,1,0,0,1,0,1.41l-2.83,2.83a1,1,0,0,1-1.41,0l-1.69-1.69A11.467,11.467,0,0,1,28,39.61V42a1,1,0,0,1-1,1H23a1,1,0,0,1-1-1V39.61a11.467,11.467,0,0,1-3.09-1.28l-1.69,1.69a1,1,0,0,1-1.41,0l-2.83-2.83a1,1,0,0,1,0-1.41l1.68-1.69A11.772,11.772,0,0,1,13.39,31H11a1,1,0,0,1-1-1V26a1,1,0,0,1,1-1h2.39a11.772,11.772,0,0,1,1.27-3.09l-1.68-1.69a1,1,0,0,1,0-1.41l2.83-2.83a1,1,0,0,1,1.41,0l1.69,1.68A11.772,11.772,0,0,1,22,16.39V14a1,1,0,0,1,1-1h4a1,1,0,0,1,1,1v2.39a11.772,11.772,0,0,1,3.09,1.27l1.69-1.68a1,1,0,0,1,1.41,0l2.83,2.83a1,1,0,0,1,0,1.41l-1.68,1.69A11.772,11.772,0,0,1,36.61,25H39a1,1,0,0,1,1,1v4a1,1,0,0,1-1,1H36.61a11.772,11.772,0,0,1-1.27,3.09Z"></path></g></svg>