<svg xmlns="http://www.w3.org/2000/svg" viewBox="0 0 64 64" x="0px" y="0px"><g><path d="M14,57a2,2,0,1,0,2,2,2.015,2.015,0,0,0-2-2Z"></path><polygon points="15 46 15 44 11 44 11 48 15 48 15 46"></polygon><circle cx="50" cy="5" r="2"></circle><path d="M25,38a1.988,1.988,0,0,0-1.03.293A1.877,1.877,0,0,0,24,38a2,2,0,0,0-4,0,1.987,1.987,0,0,0-1.12.343A1.993,1.993,0,0,0,17,37a1.905,1.905,0,0,0-.263.027,1.982,1.982,0,0,0-3.474,0A1.905,1.905,0,0,0,13,37a1.993,1.993,0,0,0-1.88,1.343A1.987,1.987,0,0,0,10,38a2,2,0,0,0-4,0,1.877,1.877,0,0,0,.03.293A2,2,0,1,0,6.5,41.31a1.963,1.963,0,0,0,2.5.413A1.987,1.987,0,0,0,10,42H20a1.987,1.987,0,0,0,1-.277,1.963,1.963,0,0,0,2.5-.413A2,2,0,1,0,25,38Z"></path><polygon points="44 44 44 48 60 48 60 44 59 44 59 46 57 46 57 44 55 44 55 46 53 46 53 44 51 44 51 46 49 46 49 44 47 44 47 46 45 46 45 44 44 44"></polygon><polygon points="44 38 44 42 60 42 60 38 59 38 59 40 57 40 57 38 55 38 55 40 53 40 53 38 51 38 51 40 49 40 49 38 47 38 47 40 45 40 45 38 44 38"></polygon><polygon points="26 50 26 54 33 54 42 54 42 50 41 50 41 52 39 52 39 50 37 50 37 52 35 52 35 50 33 50 33 52 31 52 31 50 29 50 29 52 27 52 27 50 26 50"></polygon><polygon points="60 50 59 50 59 52 57 52 57 50 55 50 55 52 53 52 53 50 51 50 51 52 49 52 49 50 47 50 47 52 45 52 45 50 44 50 44 54 60 54 60 50"></polygon><polygon points="60 56 59 56 59 58 57 58 57 56 55 56 55 58 53 58 53 56 51 56 51 58 49 58 49 56 47 56 47 58 45 58 45 56 44 56 44 60 60 60 60 56"></polygon><polygon points="42 56 41 56 41 58 39 58 39 56 37 56 37 58 35 58 35 56 33 56 33 58 31 58 31 56 29 56 29 58 27 58 27 56 26 56 26 60 42 60 42 56"></polygon><path d="M17.707,56.707l-1.414-1.414,1-1A1,1,0,0,1,18,54h4v2H18.414Z"></path><path d="M20.293,49.707,17.586,47H17V45h1a1,1,0,0,1,.707.293l3,3Z"></path><path d="M34,32a8.007,8.007,0,0,0-7.8,6.231,8.081,8.081,0,0,0,0,3.538A8,8,0,1,0,34,32Zm0,7a2.993,2.993,0,0,1,1,5.816V46H33V44.816A3,3,0,0,1,31,42h2a1,1,0,1,0,1-1,2.993,2.993,0,0,1-1-5.816V34h2v1.184A3,3,0,0,1,37,38H35a1,1,0,1,0-1,1Z"></path><rect x="33" y="24" width="2" height="4"></rect><rect x="39" y="26.876" width="4" height="2" transform="translate(-3.639 49.449) rotate(-60.005)"></rect><rect x="44.125" y="32" width="4" height="2" transform="translate(-10.32 27.478) rotate(-29.995)"></rect><path d="M20.618,23h2.939L21.55,17.649a.993.993,0,0,0-.55-.56V22a.982.982,0,0,1-.469.826Z"></path><circle cx="15" cy="9" r="1"></circle><path d="M8.45,17.648,6.443,23H9.382l.087-.174A.982.982,0,0,1,9,22V17.089A.994.994,0,0,0,8.45,17.648Z"></path><polygon points="13.721 24 16.279 24 16.613 23 13.387 23 13.721 24"></polygon><path d="M19,9.185a2.951,2.951,0,0,0-.511-1.676C16.59,4.733,15.376,4,15,4s-1.59.733-3.488,3.508A2.95,2.95,0,0,0,11,9.185V21h3V15h2v6h3ZM15,12a3,3,0,1,1,3-3A3,3,0,0,1,15,12Z"></path><path d="M23,27H21a7.008,7.008,0,0,0,7,7V32A5.006,5.006,0,0,1,23,27Z"></path><path d="M9,27H7a5.006,5.006,0,0,1-5,5v2A7.008,7.008,0,0,0,9,27Z"></path><path d="M17,31a2,2,0,0,0-4,0c0,.62.937,2.119,2,3.451C16.061,33.125,17,31.637,17,31Z"></path><polygon points="35 13 37 13 37 11 39 11 39 9 37 9 37 7 35 7 35 9 33 9 33 11 35 11 35 13"></polygon><polygon points="53 15 53 17 51 17 51 19 53 19 53 21 55 21 55 19 57 19 57 17 55 17 55 15 53 15"></polygon></g></svg>