<svg xmlns="http://www.w3.org/2000/svg" viewBox="0 0 64 64" x="0px" y="0px"><g><rect x="16" y="14" width="22" height="2"></rect><rect x="10" y="18" width="28" height="2"></rect><rect x="10" y="14" width="4" height="2"></rect><path d="M58,2H14a2,2,0,0,0-2,2V8H9a5.006,5.006,0,0,0-5,5V46a2,2,0,0,0,2,2h6v5.343a4.969,4.969,0,0,0,1.465,3.536L18,61.414A2.015,2.015,0,0,0,19.414,62H34.382a1.988,1.988,0,0,0,1.789-1.1l3.618-7.237A2,2,0,0,0,39.972,53H40V48h2a2,2,0,0,0,2-2V23H55a5.006,5.006,0,0,0,5-5V4A2,2,0,0,0,58,2ZM34.382,60H19.414l-4.535-4.535A2.98,2.98,0,0,1,14,53.343V48H31a1,1,0,0,0,1-1V39a3,3,0,0,1,6,0V52.764ZM42,46H40V39a5,5,0,0,0-10,0v7H6V13a3,3,0,0,1,3-3H43.026A4.948,4.948,0,0,0,42,13Zm2-25V13a3,3,0,1,1,6,0v5a4.973,4.973,0,0,0,1,3Zm14-3a3,3,0,0,1-6,0V13a4.995,4.995,0,0,0-5-5H14V4H58Z"></path><path d="M19,24a9,9,0,1,0,9,9A9.01,9.01,0,0,0,19,24Zm0,16a7,7,0,1,1,7-7A7.009,7.009,0,0,1,19,40Z"></path><path d="M18,30h2a1,1,0,0,1,1,1h2a3,3,0,0,0-3-3V27H18v1a3,3,0,0,0,0,6h2a1,1,0,0,1,0,2H18a1,1,0,0,1-1-1H15a3,3,0,0,0,3,3v1h2V38a3,3,0,0,0,0-6H18a1,1,0,0,1,0-2Z"></path></g></svg>