<svg xmlns="http://www.w3.org/2000/svg" viewBox="0 0 64 64" x="0px" y="0px"><g data-name="Television"><path d="M60,48H44v6H60ZM48,51H46V49h2Zm4,0H50V49h2Z"></path><path d="M46,38V14H8V30h9a1,1,0,0,1,1,1v7Zm-7-4h3V31h2v4a1,1,0,0,1-1,1H39Zm-4,0h2v2H35Z"></path><circle cx="12" cy="45" r="1"></circle><path d="M8,54h8V32H8Zm7-2H13V50h2ZM13,34h2v2H13Zm0,4h2v2H13ZM9,34h2v2H9Zm0,4h2v2H9Zm3,4a3,3,0,1,1-3,3A3,3,0,0,1,12,42ZM9,50h2v2H9Z"></path><rect x="18" y="52" width="19" height="2"></rect><path d="M50,41V11a1,1,0,0,0-1-1H5a1,1,0,0,0-1,1V41a1,1,0,0,0,1,1H6V13a1,1,0,0,1,1-1H47a1,1,0,0,1,1,1V39a1,1,0,0,1-1,1H18v2H49A1,1,0,0,0,50,41Z"></path><rect x="22" y="44" width="10" height="6"></rect></g></svg>