<svg xmlns="http://www.w3.org/2000/svg" viewBox="0 0 64 64" x="0px" y="0px"><g data-name="Hands Washing-Hand Soap-Hands-Washing-Soap"><circle cx="57" cy="36" r="4"></circle><circle cx="9" cy="33" r="2"></circle><circle cx="5" cy="15" r="2"></circle><circle cx="42" cy="9" r="1"></circle><path d="M55,9a5,5,0,0,0-5-5H34A5,5,0,0,1,24,4H18a5,5,0,0,0-5,5v6.03A4.924,4.924,0,0,1,16,14a5,5,0,0,1,0,10,4.924,4.924,0,0,1-3-1.03V23a5,5,0,0,0,5,5h1.64a3.728,3.728,0,0,1,.7-.54,3.413,3.413,0,0,1,2.65-.35,3.513,3.513,0,0,1,1.54.89H26V17.5A3.5,3.5,0,0,1,29.5,14a3.406,3.406,0,0,1,1.5.34V13.5a3.5,3.5,0,0,1,7,0v.84A3.438,3.438,0,0,1,39.5,14,3.5,3.5,0,0,1,43,17.5v1.84A3.438,3.438,0,0,1,44.5,19,3.5,3.5,0,0,1,48,22.5V28h2a5,5,0,0,0,5-5ZM19,12a3,3,0,1,1,3-3A3,3,0,0,1,19,12Zm23,0a3,3,0,1,1,3-3A3,3,0,0,1,42,12Zm7,7a4,4,0,1,1,4-4A4,4,0,0,1,49,19Z"></path><circle cx="49" cy="15" r="2"></circle><circle cx="19" cy="9" r="1"></circle><path d="M29,7a3.009,3.009,0,0,0,3-3H26A3.009,3.009,0,0,0,29,7Z"></path><rect x="28" y="52" width="18" height="8"></rect><circle cx="16" cy="19" r="3"></circle><path d="M22.47,29.04a1.519,1.519,0,0,0-1.14.15,1.508,1.508,0,0,0-.54,2.05l9.08,15.72a1.128,1.128,0,0,1,.13.5V50H44V47a1,1,0,0,1,.11-.45L46,42.76V22.5a1.5,1.5,0,0,0-3,0V30a1,1,0,0,1-2,0V17.5a1.5,1.5,0,0,0-3,0V30a1,1,0,0,1-2,0V13.5a1.5,1.5,0,0,0-3,0V30a1,1,0,0,1-2,0V17.5a1.5,1.5,0,0,0-3,0V34a1,1,0,0,1-.74.97,1.022,1.022,0,0,1-1.13-.47l-2.75-4.76A1.458,1.458,0,0,0,22.47,29.04Z"></path></g></svg>