<svg xmlns="http://www.w3.org/2000/svg" viewBox="0 0 64 64" x="0px" y="0px"><g><path d="M46.68,37.29,37,34.26V30.79A11.028,11.028,0,0,0,42.95,22H43a4,4,0,0,0,0-8V9a7.008,7.008,0,0,0-7-7H28a7.008,7.008,0,0,0-7,7v5a4,4,0,1,0,0,8h.05A11.028,11.028,0,0,0,27,30.79v3.47l-9.68,3.03A8.959,8.959,0,0,0,11,45.88V61a1,1,0,0,0,1,1H52a1,1,0,0,0,1-1V45.88A8.959,8.959,0,0,0,46.68,37.29ZM43,16a2.006,2.006,0,0,1,2,2,2.015,2.015,0,0,1-2,2ZM21,20a2.015,2.015,0,0,1-2-2,2.006,2.006,0,0,1,2-2ZM40,38.11V37.3l1.05.33-6.08,9.12-.91-3.63,1.26-2.53a2.957,2.957,0,0,0,1.68.53,3.018,3.018,0,0,0,1.37-.34A2.986,2.986,0,0,0,40,38.11Zm-2-1.44v1.44a.968.968,0,0,1-.54.89.978.978,0,0,1-1.04-.07l-2.49-1.78,2.16-1.08ZM32.38,42h-.76l-1.29-2.58L32,38.23l1.67,1.19Zm.95,6.47a2.924,2.924,0,0,1-2.66,0L31.78,44h.44ZM32,35.88l-3-1.5V31.57a10.68,10.68,0,0,0,6,0v2.81ZM23,9a5,5,0,0,1,5-5h8a5,5,0,0,1,5,5v3.82A3.01,3.01,0,0,1,39,10V7.24a1.98,1.98,0,0,0-.81-1.6,2.014,2.014,0,0,0-1.81-.29,15.365,15.365,0,0,1-8.76,0,2.014,2.014,0,0,0-1.81.29A1.98,1.98,0,0,0,25,7.24V10a3.01,3.01,0,0,1-2,2.82Zm13,5a2.974,2.974,0,0,0-2,.78,2.954,2.954,0,0,0-4,0,2.964,2.964,0,0,0-4.62.79l-1.74-.87A4.986,4.986,0,0,0,27,10l.01-2.75A17.173,17.173,0,0,0,37,7.24V10a4.986,4.986,0,0,0,3.36,4.7l-1.74.87A2.994,2.994,0,0,0,36,14Zm1,3a1,1,0,1,1-1-1A1,1,0,0,1,37,17Zm-8,0a1,1,0,1,1-1-1A1,1,0,0,1,29,17Zm-6,4V16.62l2.08,1.04A3,3,0,0,0,31,17a1,1,0,0,1,2,0,3,3,0,0,0,5.92.66L41,16.62V21a9,9,0,0,1-18,0Zm3,15.67,1.91-.6,2.16,1.08-2.49,1.78a.978.978,0,0,1-1.04.07.968.968,0,0,1-.54-.89Zm-2,.63v.81a2.986,2.986,0,0,0,1.63,2.67,3.018,3.018,0,0,0,1.37.34,2.957,2.957,0,0,0,1.68-.53l1.26,2.53-.91,3.63-6.08-9.12ZM51,60H45V45H43V60H21V45H19V60H13V45.88a6.964,6.964,0,0,1,4.91-6.68l3.05-.95,6.88,10.32a5,5,0,0,0,8.32-.01l6.88-10.31,3.05.95A6.964,6.964,0,0,1,51,45.88Z"></path><path d="M34,27h4a1,1,0,0,0,1-1V24a3,3,0,0,0-3-3H28a3,3,0,0,0-3,3v2a1,1,0,0,0,1,1h4a2.981,2.981,0,0,0,2-.78A2.981,2.981,0,0,0,34,27Zm3-3v1H34a1,1,0,0,1-1-1V23h3A1,1,0,0,1,37,24Zm-7,1H27V24a1,1,0,0,1,1-1h3v1A1,1,0,0,1,30,25Z"></path></g></svg>