<svg xmlns="http://www.w3.org/2000/svg" viewBox="0 0 64 64" x="0px" y="0px"><g data-name="Analytic-Efficiency-Researching-Search Engine-Development"><path d="M59.38,56.56l-7.04-7.05a15.458,15.458,0,0,1-2.69,2.96l6.91,6.91a1.994,1.994,0,0,0,2.82-2.82ZM40.35,20.52a16.254,16.254,0,0,0-1.32-3.22l3.65-5.74L38.44,7.32,32.7,10.97a16.254,16.254,0,0,0-3.22-1.32L28,3H22L20.52,9.65a16.254,16.254,0,0,0-3.22,1.32L11.57,7.32,7.32,11.56l3.65,5.74a16.254,16.254,0,0,0-1.32,3.22L3,22v6l6.65,1.48a16.254,16.254,0,0,0,1.32,3.22L7.32,38.43l4.25,4.25,5.73-3.65a16.254,16.254,0,0,0,3.22,1.32L22,47h4.26A14.822,14.822,0,0,1,25,41H24V39h1.15a15,15,0,0,1,4.13-8.48A6.9,6.9,0,0,1,25,32a7.026,7.026,0,1,1,5.2-2.33A14.846,14.846,0,0,1,39,26.04V24h2v2.04a14.822,14.822,0,0,1,6,1.7V22ZM11,26H9V24h2ZM24,9h2v2H24Zm-9.61,3.98,1.42,1.41-1.42,1.42-1.41-1.42Zm0,24.04-1.41-1.41,1.41-1.42,1.42,1.42ZM34,25a9,9,0,1,0-9,9v2A11,11,0,1,1,36,25Zm1.61-9.19-1.42-1.42,1.42-1.41,1.41,1.41ZM25,20a5,5,0,1,0,5,5A5,5,0,0,0,25,20ZM48,41a8,8,0,1,1-8-8A8,8,0,0,1,48,41Z"></path><path d="M40,28A13,13,0,1,0,53,41,13,13,0,0,0,40,28Zm0,23A10,10,0,1,1,50,41,10,10,0,0,1,40,51Z"></path></g></svg>