<svg xmlns="http://www.w3.org/2000/svg" viewBox="0 0 64 64" x="0px" y="0px"><g><rect x="18" y="45" width="4" height="2"></rect><rect x="34" y="45" width="4" height="2"></rect><rect x="36" y="55" width="2" height="2"></rect><rect x="12" y="55" width="2" height="2"></rect><path d="M59,2H21a3,3,0,0,0-3,3V34.149L12.52,41H4a2,2,0,0,0-2,2V55a2,2,0,0,0,2,2H7.09a5.991,5.991,0,0,0,10.937,2.265A2.994,2.994,0,0,0,21,62H59a3,3,0,0,0,3-3V5A3,3,0,0,0,59,2ZM52,4h4v6L54.8,8.4a1.036,1.036,0,0,0-1.6,0L52,10ZM42.91,55a5.993,5.993,0,0,0-11.82,0H26V43H38a1,1,0,0,0,.832-1.555l-4-6A1,1,0,0,0,34,35H19.88l1.3-1.624A1,1,0,0,1,21.961,33h13a1,1,0,0,1,.818.426l6.1,8.721A2,2,0,0,0,43.521,43H46V55ZM33,56a4,4,0,1,1,4,4A4,4,0,0,1,33,56Zm.465-19,2.667,4H26V37ZM18.28,37H24v4H15.08ZM4,47H6v2H4Zm9,13a4,4,0,1,1,4-4A4,4,0,0,1,13,60Zm0-10a6.006,6.006,0,0,0-5.91,5H4V51H7a1,1,0,0,0,1-1V46a1,1,0,0,0-1-1H4V43H24V55H18.91A6.006,6.006,0,0,0,13,50Zm7,9V57H31.09a5.979,5.979,0,0,0,1.45,3H21A1,1,0,0,1,20,59Zm40,0a1,1,0,0,1-1,1H41.46a5.979,5.979,0,0,0,1.45-3H46a2,2,0,0,0,2-2V43a2,2,0,0,0-2-2H43.521l-6.105-8.72A3,3,0,0,0,34.959,31h-13A2.973,2.973,0,0,0,20,31.746V5a1,1,0,0,1,1-1H50v9a1,1,0,0,0,1.8.6L54,10.667,56.2,13.6a1,1,0,0,0,.8.4,1.019,1.019,0,0,0,.316-.051A1,1,0,0,0,58,13V4h1a1,1,0,0,1,1,1Z"></path><path d="M30.445,23.832a1,1,0,0,0,1.11,0l4.218-2.812A4.987,4.987,0,0,0,38,16.859V9a1,1,0,0,0-1-1H25a1,1,0,0,0-1,1v7.859a4.992,4.992,0,0,0,2.227,4.161ZM26,10H36v6.859a2.991,2.991,0,0,1-1.336,2.5L31,21.8l-3.664-2.443A2.993,2.993,0,0,1,26,16.859Z"></path><path d="M30,18a1,1,0,0,0,.707-.293l4-4-1.414-1.414L30,15.586l-1.293-1.293-1.414,1.414,2,2A1,1,0,0,0,30,18Z"></path><rect x="42" y="22" width="12" height="2"></rect><rect x="42" y="18" width="4" height="2"></rect><rect x="48" y="18" width="6" height="2"></rect><rect x="26" y="26" width="28" height="2"></rect><rect x="46" y="30" width="8" height="2"></rect><rect x="40" y="30" width="4" height="2"></rect><rect x="42" y="34" width="12" height="2"></rect></g></svg>