<svg xmlns="http://www.w3.org/2000/svg" viewBox="0 0 64 64" x="0px" y="0px"><title>Lecture_1</title><g><path d="M60.53,3.456a5.035,5.035,0,0,0-2.259-1.289A4.669,4.669,0,0,0,57,2H17a7.009,7.009,0,0,0-7,7V21h2V9a5.006,5.006,0,0,1,5-5H53c-.03.039-.051.084-.079.125-.057.08-.107.165-.159.249a5.02,5.02,0,0,0-.288.53c-.045.1-.087.192-.126.29a5.086,5.086,0,0,0-.186.6c-.023.093-.052.183-.07.278A4.983,4.983,0,0,0,52,7V21h2V12h7a1,1,0,0,0,1-1V7A5.019,5.019,0,0,0,60.53,3.456ZM60,10H54V7a3,3,0,0,1,3-3,2.676,2.676,0,0,1,.751.1A2.981,2.981,0,0,1,60,7Z"></path><path d="M52,56v1a3,3,0,0,1-3,3,5.006,5.006,0,0,1-5-5V53a1,1,0,0,0-1-1H12V37H10V52H3a1,1,0,0,0-1,1v2a7.009,7.009,0,0,0,7,7H49a5.006,5.006,0,0,0,5-5V37H52ZM9,60a5.006,5.006,0,0,1-5-5V54H42v1a6.98,6.98,0,0,0,2.1,5Z"></path><rect x="16" y="39" width="32" height="2"></rect><rect x="16" y="17" width="32" height="2"></rect><rect x="20" y="11" width="28" height="2"></rect><rect x="16" y="46" width="32" height="2"></rect><path d="M55.641,23.231A1.006,1.006,0,0,0,55,23H7a5.006,5.006,0,0,0-5,5v2a5.006,5.006,0,0,0,5,5H55a1.006,1.006,0,0,0,.641-.231l6-5a1,1,0,0,0,0-1.538ZM15,25H54v3H15Zm0,5H54v3H15ZM4,30V28a3,3,0,0,1,3-3h6v8H7A3,3,0,0,1,4,30Zm52,1.865v-5.73L59.437,29Z"></path><rect x="16" y="11" width="2" height="2"></rect></g></svg>