<svg xmlns="http://www.w3.org/2000/svg" viewBox="0 0 64 64" x="0px" y="0px"><g data-name="Startup Website"><path d="M60,55V12H4V55a1,1,0,0,0,1,1H28.172a2.991,2.991,0,0,1,5.644,0H35.97A8.281,8.281,0,0,1,34,51a4,4,0,0,1,8,0,8.281,8.281,0,0,1-1.97,5h2.154a2.991,2.991,0,0,1,5.644,0H59A1,1,0,0,0,60,55ZM37,16h2v2H37Zm-4,0h2v2H33Zm-4,0h2v2H29Zm-4,0h2v2H25ZM23,53H21V51h2Zm0-4H21V45h2Zm0-17H9V30H23Zm0-4H9V26H23Zm0-4H9V22H23Zm4,27H25V49h2Zm0-4H25V43h2Zm20.557-5H43.535l-1.7,2.555A1,1,0,0,1,41,45H35a1,1,0,0,1-.832-.445L32.465,42H28.443a2,2,0,0,1-1.873-2.7l1.52-4.053A5.029,5.029,0,0,1,32,32.061V28.185a4.949,4.949,0,0,1,.861-2.807C35.856,21,37.47,21,38,21s2.144,0,5.139,4.379A4.944,4.944,0,0,1,44,28.185v3.876a5.029,5.029,0,0,1,3.91,3.184L49.43,39.3A2,2,0,0,1,47.557,42ZM51,51H49V49h2Zm0-4H49V43h2Zm4,6H53V51h2Zm0-4H53V45h2Z"></path><polygon points="35.535 43 40.465 43 41.132 42 34.868 42 35.535 43"></polygon><circle cx="38" cy="28" r="1"></circle><path d="M44,34.11V40h3.557l-1.52-4.053A3.011,3.011,0,0,0,44,34.11Z"></path><path d="M38,23c-.376,0-1.59.733-3.489,3.508A2.959,2.959,0,0,0,34,28.185V40h8V28.185a2.959,2.959,0,0,0-.511-1.677C39.59,23.733,38.376,23,38,23Zm0,8a3,3,0,1,1,3-3A3,3,0,0,1,38,31Z"></path><path d="M29.562,58.121a1,1,0,0,1-1.056.017A.974.974,0,0,0,28,58a1,1,0,0,0,0,2H48a1,1,0,0,0,0-2,.974.974,0,0,0-.506.138,1,1,0,0,1-1.508-.971A1.253,1.253,0,0,0,46,57a1,1,0,0,0-2,0H32a1,1,0,0,0-2,0,1.253,1.253,0,0,0,.014.167A1,1,0,0,1,29.562,58.121Z"></path><path d="M59,4H5A1,1,0,0,0,4,5v5H60V5A1,1,0,0,0,59,4ZM10,8H8V6h2Zm4,0H12V6h2Zm4,0H16V6h2ZM46,8H24V6H46Z"></path><path d="M40,51a2,2,0,0,0-4,0c0,1.495,1.252,4,2,4S40,52.5,40,51Z"></path><path d="M29.963,35.947,28.443,40H32V34.11A3.011,3.011,0,0,0,29.963,35.947Z"></path></g></svg>