<svg xmlns="http://www.w3.org/2000/svg" viewBox="0 0 64 64" x="0px" y="0px"><title>Startup</title><g><rect x="31" y="48" width="2" height="2"></rect><rect x="35" y="48" width="2" height="2"></rect><rect x="39" y="48" width="2" height="2"></rect><rect x="39" y="52" width="2" height="2"></rect><rect x="35" y="52" width="2" height="2"></rect><rect x="35" y="56" width="2" height="2"></rect><rect x="27" y="48" width="2" height="2"></rect><rect x="23" y="48" width="2" height="2"></rect><rect x="23" y="52" width="2" height="2"></rect><rect x="27" y="52" width="2" height="2"></rect><rect x="27" y="56" width="2" height="2"></rect><rect x="31" y="52" width="2" height="2"></rect><rect x="31" y="56" width="2" height="2"></rect><rect x="31" y="60" width="2" height="2"></rect><path d="M32,10c-3.309,0-6,2.243-6,5s2.691,5,6,5,6-2.243,6-5S35.309,10,32,10Zm0,8c-2.206,0-4-1.346-4-3s1.794-3,4-3,4,1.346,4,3S34.206,18,32,18Z"></path><path d="M49.394,33.081,43,30.341V11a1,1,0,0,0-.375-.781l-10-8a1,1,0,0,0-1.25,0l-10,8A1,1,0,0,0,21,11V30.341l-6.394,2.74A1,1,0,0,0,14,34V45a1,1,0,0,0,1,1,.981.981,0,0,0,.274-.039L21,44.326V45a1,1,0,0,0,1,1H42a1,1,0,0,0,1-1v-.674l5.726,1.635A.981.981,0,0,0,49,46a1,1,0,0,0,1-1V34A1,1,0,0,0,49.394,33.081ZM16,43.674V34.659l5-2.142v9.729ZM41,44H23V11.48l9-7.2,9,7.2Zm7-.326-5-1.428V32.517l5,2.142Z"></path><rect x="37" y="40" width="2" height="2"></rect><rect x="33" y="40" width="2" height="2"></rect><rect x="18" y="39" width="2" height="2"></rect><rect x="9" y="8" width="2" height="2"></rect><rect x="11" y="10" width="2" height="2"></rect><rect x="9" y="12" width="2" height="2"></rect><rect x="7" y="10" width="2" height="2"></rect><rect x="50" y="7" width="2" height="2"></rect><rect x="52" y="9" width="2" height="2"></rect><rect x="50" y="11" width="2" height="2"></rect><rect x="48" y="9" width="2" height="2"></rect><rect x="49" y="23" width="2" height="2"></rect><rect x="51" y="25" width="2" height="2"></rect><rect x="49" y="27" width="2" height="2"></rect><rect x="47" y="25" width="2" height="2"></rect><rect x="12" y="20" width="2" height="2"></rect><rect x="14" y="22" width="2" height="2"></rect><rect x="12" y="24" width="2" height="2"></rect><rect x="10" y="22" width="2" height="2"></rect><rect x="44" y="39" width="2" height="2"></rect><rect x="31" y="22" width="2" height="16"></rect></g></svg>