<svg xmlns="http://www.w3.org/2000/svg" viewBox="0 0 64 64" x="0px" y="0px"><g data-name="Folder-Clock-Time-File-File Folder"><path d="M52.71,47.29,56.41,51H58V45H48v2h4A1.033,1.033,0,0,1,52.71,47.29Z"></path><path d="M46,58a1,1,0,0,0,1,1H59a1,1,0,0,0,1-1V53H56a1.033,1.033,0,0,1-.71-.29L51.59,49H46Z"></path><path d="M52.71,27.29,56.41,31H58V25H48v2h4A1.033,1.033,0,0,1,52.71,27.29Z"></path><path d="M46,38a1,1,0,0,0,1,1H59a1,1,0,0,0,1-1V33H56a1.033,1.033,0,0,1-.71-.29L51.59,29H46Z"></path><path d="M52.71,6.29,56.41,10H58V4H48V6h4A1.033,1.033,0,0,1,52.71,6.29Z"></path><path d="M46,17a1,1,0,0,0,1,1H59a1,1,0,0,0,1-1V12H56a1.033,1.033,0,0,1-.71-.29L51.59,8H46Z"></path><path d="M38,14V31h4v2H38V53h4v2H37a1,1,0,0,1-1-1V33H34V31h2V13a1,1,0,0,1,1-1h5v2Z"></path><path d="M24,31h1.941a8.956,8.956,0,0,0-1.916-4.611l-1.368,1.368-1.414-1.414,1.368-1.368A8.956,8.956,0,0,0,18,23.059V25H16V23.059a8.956,8.956,0,0,0-4.611,1.916l1.368,1.368-1.414,1.414L9.975,26.389A8.956,8.956,0,0,0,8.059,31H10v2H8.059a8.956,8.956,0,0,0,1.916,4.611l1.368-1.368,1.414,1.414-1.368,1.368A8.956,8.956,0,0,0,16,40.941V39h2v1.941a8.956,8.956,0,0,0,4.611-1.916l-1.368-1.368,1.414-1.414,1.368,1.368A8.956,8.956,0,0,0,25.941,33H24Zm-6,1a1,1,0,0,1-.293.707l-2,2-1.414-1.414L16,31.586V27h2Z"></path><path d="M17,19A13,13,0,1,0,30,32,13.015,13.015,0,0,0,17,19Zm0,24A11,11,0,1,1,28,32,11.013,11.013,0,0,1,17,43Z"></path></g></svg>