<svg xmlns="http://www.w3.org/2000/svg" viewBox="0 0 64 64" x="0px" y="0px"><title>Game</title><g><polygon points="24 30 26 30 26 28 28 28 28 26 26 26 26 24 24 24 24 26 22 26 22 28 24 28 24 30"></polygon><rect x="38" y="24" width="2" height="2"></rect><rect x="40" y="26" width="2" height="2"></rect><rect x="38" y="28" width="2" height="2"></rect><rect x="36" y="26" width="2" height="2"></rect><rect x="33" y="24" width="2" height="2"></rect><rect x="29" y="24" width="2" height="2"></rect><path d="M25,34a6.986,6.986,0,0,0,6.321-4h1.358A7,7,0,1,0,39,20H35V18H33V16h4a2,2,0,0,0,2-2V12H37v2H33a2,2,0,0,0-2,2v2H29v2H25a7,7,0,0,0,0,14Zm0-12H39a5,5,0,1,1-4.706,6.672A1,1,0,0,0,33.35,28h-2.7a1,1,0,0,0-.944.672A5,5,0,1,1,25,22Z"></path><path d="M59,2H5A3,3,0,0,0,2,5V45a3,3,0,0,0,3,3H22.9l-.8,8H19a1,1,0,0,0-1,1v3H16v2H48V60H46V57a1,1,0,0,0-1-1H41.905l-.8-8H59a3,3,0,0,0,3-3V5A3,3,0,0,0,59,2ZM44,58v2H20V58ZM24.105,56l.8-8H39.1l.8,8ZM60,45a1,1,0,0,1-1,1H5a1,1,0,0,1-1-1V5A1,1,0,0,1,5,4H59a1,1,0,0,1,1,1Z"></path><path d="M56,6H8A2,2,0,0,0,6,8V39a1,1,0,0,0,1,1H57a1,1,0,0,0,1-1V8A2,2,0,0,0,56,6Zm0,32H8V8H56Z"></path><rect x="31" y="42" width="2" height="2"></rect></g></svg>