<svg xmlns="http://www.w3.org/2000/svg" viewBox="0 0 64 64" x="0px" y="0px"><g><polygon points="35 36 31.24 34.63 30.81 38.73 32.69 39.42 35 36"></polygon><circle cx="19" cy="48" r="2"></circle><path d="M24,37H20a1,1,0,0,0-1,1v3h6V38A1,1,0,0,0,24,37Z"></path><path d="M38.83,48.56l-3.5-6.06-1.73,1,1,1.73-1.73,1-1-1.73-1.74,1,3.5,6.06a1.013,1.013,0,0,0,1.37.37l3.46-2A1,1,0,0,0,38.83,48.56Z"></path><rect x="42" y="43" width="2" height="2"></rect><rect x="24" y="48" width="4" height="2"></rect><rect x="44" y="48" width="2" height="2"></rect><rect x="24" y="43.586" width="2" height="2.828" transform="translate(-24.497 30.858) rotate(-45)"></rect><rect x="12.586" y="39" width="2.828" height="2" transform="translate(-24.184 21.615) rotate(-45)"></rect><path d="M60,24.59V21.02a4.974,4.974,0,0,0-3.05,1.45l-2.24,2.24a1,1,0,0,1-1.18.17L38.7,16.97,7.33,13.48A3.006,3.006,0,0,0,4,16.47v4.54l11.33,1.87A1.989,1.989,0,0,1,17,24.85V25a2.006,2.006,0,0,1-2,2H4v2H21.33A3.868,3.868,0,0,0,24,31.88V29H36.72l3.24-1.87a1.013,1.013,0,0,1,.76-.1,1,1,0,0,1,.61.47L42.2,29H53a1.033,1.033,0,0,1,.71.29l3.24,3.24A4.974,4.974,0,0,0,60,33.98V29.41l-1.71-1.7a1.008,1.008,0,0,1,0-1.42ZM14,21H12V19h2Zm29,4H19V23h3.56l1.43-1.95A5.007,5.007,0,0,1,28.03,19h7.26a5.016,5.016,0,0,1,3.61,1.54L41.26,23H43Z"></path><path d="M35.293,21H28.028a3.012,3.012,0,0,0-2.42,1.227L25.042,23H38.49l-1.031-1.076A3.017,3.017,0,0,0,35.293,21Z"></path><path d="M41.413,31.433A1,1,0,0,1,41.1,31.1l-1-1.732-1.732,1,1,1.732a.989.989,0,0,1,.132.44l.12,2L41.5,37.794l3.464-2-1.882-3.259Z"></path><polygon points="15 24.85 12 24.36 12 25 15 25 15 24.85"></polygon><polygon points="6 23.37 4 23.04 4 25 6 25 6 23.37"></polygon><polygon points="8 23.7 8 25 10 25 10 24.03 8 23.7"></polygon></g></svg>