<svg xmlns="http://www.w3.org/2000/svg" viewBox="0 0 64 64" x="0px" y="0px"><title>Onion</title><g><path d="M56.548,42.018c2.694-6.741,2.7-13.914.009-19.679C51.887,12.325,41.367,8.412,33.778,8.1a17.274,17.274,0,0,1-9.409-3.171L20.535,2.184a1,1,0,0,0-1.58.736L18.6,7.626a17.031,17.031,0,0,1-3.571,9.183c-4.9,6.3-8.413,16.724-3.575,27.1,3.813,8.175,14.128,13.655,23.734,13.655a22.217,22.217,0,0,0,6.7-1.011,24.227,24.227,0,0,1-1.2,4.407,1,1,0,1,0,1.878.684,25.584,25.584,0,0,0,1.323-4.954l2.208,4.734a1,1,0,1,0,1.812-.846L45.7,55.842a25.6,25.6,0,0,0,4.647,2.172,1,1,0,0,0,.683-1.879A24.027,24.027,0,0,1,46.85,54.2,25.9,25.9,0,0,0,56.548,42.018ZM42.385,54.279c-10.189,4-24.614-1.553-29.121-11.217-4.457-9.557-1.2-19.194,3.34-25.025A19.01,19.01,0,0,0,20.591,7.778l.223-2.933L23.2,6.558A19.276,19.276,0,0,0,33.7,10.1c7.029.285,16.758,3.882,21.048,13.082,2.456,5.266,2.437,11.86-.053,18.09C52.23,47.435,47.745,52.174,42.385,54.279Z"></path><path d="M39.877,43.357a1,1,0,0,0-1.813.846l3.381,7.251a1,1,0,1,0,1.813-.846Z"></path><path d="M45.706,40.729a1,1,0,0,0-.968,1.031l.24,7.611a1,1,0,0,0,1,.969h.032a1,1,0,0,0,.968-1.03l-.24-7.612A.979.979,0,0,0,45.706,40.729Z"></path><path d="M33.716,46.9a1,1,0,0,0-1.334,1.491l5.677,5.077a1,1,0,0,0,1.334-1.49Z"></path></g></svg>