<svg xmlns="http://www.w3.org/2000/svg" viewBox="0 0 64 64" x="0px" y="0px"><g><path d="M30,56H29V49a1.063,1.063,0,0,0-.13-.5L27,45.27V36a5.013,5.013,0,0,0-1.47-3.54A5.068,5.068,0,0,0,23,31.1V31a5.013,5.013,0,0,0-1.47-3.54A5.068,5.068,0,0,0,19,26.1V26a4,4,0,0,0-8,0V50a.977.977,0,0,0,.22.62L15,55.35V56H14a1,1,0,0,0-1,1v5h2V58H29v4h2V57A1,1,0,0,0,30,56ZM23,33.17a3.117,3.117,0,0,1,1.12.7A3.013,3.013,0,0,1,25,36v5.8l-2-3.46Zm-4-5a3.117,3.117,0,0,1,1.12.7A3.013,3.013,0,0,1,21,31v4.36a3.914,3.914,0,0,0-2-.92ZM27,56H17V55a.977.977,0,0,0-.22-.62L13,49.65V26a2,2,0,0,1,4,0v8.64a5.279,5.279,0,0,0-.6.27,4,4,0,0,0-1.46,5.47l5,8.66,1.73-1-5-8.66a2,2,0,1,1,3.46-2L27,49.27Z"></path><path d="M49,22a4,4,0,0,0-4,4v.1A5.005,5.005,0,0,0,41,31v.1A5.005,5.005,0,0,0,37,36v9.27L35.13,48.5A1.063,1.063,0,0,0,35,49v7H34a1,1,0,0,0-1,1v5h2V58H49v4h2V57a1,1,0,0,0-1-1H49v-.65l3.78-4.73A.977.977,0,0,0,53,50V26A4,4,0,0,0,49,22Zm-6,9a3,3,0,0,1,.87-2.12A3.131,3.131,0,0,1,45,28.17v6.27a3.914,3.914,0,0,0-2,.92Zm-4,5a3,3,0,0,1,.87-2.12A3.131,3.131,0,0,1,41,33.17v5.17L39,41.8ZM51,49.65l-3.78,4.73A.977.977,0,0,0,47,55v1H37V49.27l6.87-11.89a2,2,0,1,1,3.46,2l-5,8.66,1.73,1,5-8.66a4,4,0,0,0-1.46-5.47,5.279,5.279,0,0,0-.6-.27V26a2,2,0,0,1,4,0Z"></path><rect x="19" y="9" width="2" height="10"></rect><rect x="19" y="5" width="2" height="2"></rect><rect x="43" y="2" width="2" height="8"></rect><rect x="34" y="5" width="2" height="2"></rect><rect x="43" y="14" width="2" height="2"></rect><rect x="29" y="39" width="2" height="2"></rect><rect x="29" y="43" width="2" height="2"></rect><rect x="33" y="36" width="2" height="2"></rect><rect x="33" y="40" width="2" height="2"></rect><path d="M58.343,37.479a5,5,0,0,0-.4-5.549,6.974,6.974,0,0,0,1.544-7.564A6.99,6.99,0,0,0,56,12.08V2H54V16h2V14.1a5,5,0,0,1,1.692,9.106,1,1,0,0,0-.333,1.334,5,5,0,0,1-.947,6.1,5.01,5.01,0,0,0-1.16-.483l-.5,1.936a3.073,3.073,0,0,1,1.121.557,2.991,2.991,0,0,1,.078,4.621,1,1,0,0,0,.527,1.759A4,4,0,0,1,56,47a4.07,4.07,0,0,1-.8-.08l-.4,1.96A6.093,6.093,0,0,0,56,49a6,6,0,0,0,2.343-11.521Z"></path><path d="M9.6,38.8A1,1,0,0,0,9,37a5.006,5.006,0,0,1-5-5,4.955,4.955,0,0,1,1.568-3.618,6.971,6.971,0,0,0,3.1,2.219l.667-1.886A5,5,0,0,1,10,19.1V21h2V6H10V17.08a6.94,6.94,0,0,0-5.469,9.539A6.995,6.995,0,0,0,6.981,38.7a6.012,6.012,0,0,0,1.664,8.272l1.119-1.658A4,4,0,0,1,9.6,38.8Z"></path><rect x="28" y="12" width="2" height="5.81"></rect><path d="M38.329,28.987a4,4,0,1,0-1.313-7.862A7.058,7.058,0,0,0,36,20.261V9H34V20.81a1,1,0,0,0,.5.867,5.112,5.112,0,0,1,1.427,1.236,1,1,0,0,0,1.2.285A2.089,2.089,0,0,1,38,23a2,2,0,0,1,2,2,2.034,2.034,0,0,1-2.247,1.984,1,1,0,0,0-1.038.669A5,5,0,0,1,27,26a1,1,0,0,0-1-1,2,2,0,0,1,0-4,1.948,1.948,0,0,1,1.592.8l1.616-1.18A3.93,3.93,0,0,0,26,19a4,4,0,0,0-.944,7.888,7,7,0,0,0,13.273,2.1Z"></path></g></svg>