<svg xmlns="http://www.w3.org/2000/svg" viewBox="0 0 64 64" x="0px" y="0px"><g><path d="M59,2H51a3,3,0,0,0-2.816,2H46a1,1,0,0,0-.9.553l-1,2A1,1,0,0,0,44,7V19H39.851a15,15,0,1,0-29.7,0H3a1,1,0,0,0-.982,1.189l5,26A1,1,0,0,0,8,47H44v2H7a3,3,0,0,0,0,6H8.382a4,4,0,1,0,5.236,0H35.382a4,4,0,1,0,5.236,0H45V53H7a1,1,0,0,1,0-2H45a1,1,0,0,0,1-1V7.236L46.618,6h1.566A3,3,0,0,0,51,8h8a3,3,0,0,0,0-6ZM11,60a2,2,0,1,1,2-2A2,2,0,0,1,11,60Zm27,0a2,2,0,1,1,2-2A2,2,0,0,1,38,60ZM25,4A13,13,0,1,1,12,17,13.015,13.015,0,0,1,25,4ZM10.558,21a14.981,14.981,0,0,0,28.884,0H44V33H40V32H38v1H35v2h3v4H34V35H32v4H28V36H26v3H22V34H20v5H16V34a1,1,0,0,0-1-1H6.519L4.211,21ZM44,35v4H40V35ZM22,41h4v4H22Zm-2,4H16V41h4Zm8-4h4v4H28Zm6,0h4v4H34ZM6.9,35H14v4H7.672Zm1.154,6H14v4H8.826ZM40,45V41h4v4ZM59,6H51a1,1,0,0,1,0-2h8a1,1,0,0,1,0,2Z"></path><path d="M25,28A11,11,0,1,0,14,17,11.013,11.013,0,0,0,25,28ZM25,8a9,9,0,1,1-9,9A9.01,9.01,0,0,1,25,8Z"></path><path d="M26,20H24a1,1,0,0,1-1-1H21a3,3,0,0,0,3,3v2h2V22a3,3,0,0,0,0-6H24a1,1,0,0,1,0-2h2a1,1,0,0,1,1,1h2a3,3,0,0,0-3-3V10H24v2a3,3,0,0,0,0,6h2a1,1,0,0,1,0,2Z"></path></g></svg>