<svg xmlns="http://www.w3.org/2000/svg" viewBox="0 0 64 64" x="0px" y="0px"><g data-name="Speech Bubble"><path d="M57,6H15a5.006,5.006,0,0,0-5,5v9.331A20.907,20.907,0,0,0,6.651,45.179L2.071,56.628A1,1,0,0,0,3,58a.989.989,0,0,0,.433-.1l10.521-5.049a20.958,20.958,0,0,0,30.085-9.047l8.192,9.835A1,1,0,0,0,54,53V42h3a5.006,5.006,0,0,0,5-5V11A5.006,5.006,0,0,0,57,6ZM25,54a18.914,18.914,0,0,1-10.427-3.126,1,1,0,0,0-.983-.066L4.882,54.987l3.806-9.514a1,1,0,0,0-.066-.878A18.986,18.986,0,1,1,25,54ZM60,37a3,3,0,0,1-3,3H53a1,1,0,0,0-1,1v9.237L44.886,41.7A20.967,20.967,0,0,0,12,18.539V11a3,3,0,0,1,3-3H57a3,3,0,0,1,3,3Z"></path><rect x="16" y="30" width="2" height="2"></rect><rect x="20" y="30" width="2" height="2"></rect><rect x="24" y="30" width="10" height="2"></rect><rect x="16" y="34" width="10" height="2"></rect><rect x="28" y="34" width="2" height="2"></rect><rect x="32" y="34" width="2" height="2"></rect><rect x="16" y="38" width="18" height="2"></rect><path d="M54,11H46v2h8a1,1,0,0,1,1,1v6h2V14A3,3,0,0,0,54,11Z"></path><rect x="55" y="22" width="2" height="2"></rect></g></svg>