<svg xmlns="http://www.w3.org/2000/svg" viewBox="0 0 64 64" x="0px" y="0px"><title>Bar Graph_5</title><g data-name="Bar Graph"><path d="M7,60V58H60V56H7V54H56V52H7V50H52V48H7V46H48V44H7V42H44V40H7V38H40V36H7V34H36V32H7V30H32V28H7V26H28V24H7V22H24V20H7V18H20V16H7V14h9V12H7V10h5V8H7V2H5V4H2V6H5V18H2v2H5V32H2v2H5V46H2v2H5V61a1,1,0,0,0,1,1H62V60Z"></path><rect x="42" y="4" width="2" height="2"></rect><rect x="46" y="4" width="12" height="2"></rect><rect x="42" y="8" width="16" height="2"></rect><rect x="42" y="12" width="16" height="2"></rect></g></svg>