<svg xmlns="http://www.w3.org/2000/svg" viewBox="0 0 64 64" x="0px" y="0px"><title>Idea Creative</title><g data-name="Idea Creative"><path d="M44,2H20a5.006,5.006,0,0,0-5,5V57a5.006,5.006,0,0,0,5,5H44a5.006,5.006,0,0,0,5-5V7A5.006,5.006,0,0,0,44,2Zm0,58H20a3,3,0,0,1-3-3V29h3V27H17V12H31v4h2V12H43V10H17V7a3,3,0,0,1,3-3H44a3,3,0,0,1,3,3V27H44v2h3V50H21v2H47v5A3,3,0,0,1,44,60Z"></path><rect x="31" y="55" width="2" height="2"></rect><rect x="24" y="6" width="2" height="2"></rect><rect x="28" y="6" width="2" height="2"></rect><path d="M28,37.161V41H25v2h3v2a1,1,0,0,0,1,1v2a1,1,0,0,0,1,1h4a1,1,0,0,0,1-1V46a1,1,0,0,0,1-1V43h3V41H36V37.161a10,10,0,1,0-8,0ZM33,47H31V46h2Zm1-3H30V43h4ZM32,20a8,8,0,0,1,2.668,15.537A1,1,0,0,0,34,36.48V41H30V36.48a1,1,0,0,0-.668-.943A8,8,0,0,1,32,20Z"></path><path d="M28,28a4,4,0,0,1,4-4V22a6.006,6.006,0,0,0-6,6Z"></path><rect x="39.9" y="17.101" width="4" height="2" transform="translate(-0.527 34.929) rotate(-45)"></rect><rect x="40.9" y="35.9" width="2" height="4" transform="translate(-14.527 40.728) rotate(-45)"></rect><rect x="21.101" y="16.101" width="2" height="4" transform="translate(-6.326 20.929) rotate(-45)"></rect><rect x="20.101" y="36.9" width="4" height="2" transform="translate(-20.326 26.728) rotate(-45)"></rect></g></svg>