<svg xmlns="http://www.w3.org/2000/svg" viewBox="0 0 64 64" x="0px" y="0px"><g data-name="Stove"><rect x="50" y="58" width="4" height="2"></rect><path d="M57,22H7V56H57ZM51,50a2,2,0,0,1-2,2H15a2,2,0,0,1-2-2V28a2,2,0,0,1,2-2H49a2,2,0,0,1,2,2Z"></path><path d="M15,28V50H49V28ZM47,39H45V37h2Zm0-4H45V32H42V30h4a1,1,0,0,1,1,1Z"></path><path d="M60,14H4v6H60ZM15,18H13V16h2Zm4,0H17V16h2Zm4,0H21V16h2Zm20,0H41V16h2Zm4,0H45V16h2Zm4,0H49V16h2Z"></path><rect x="10" y="58" width="4" height="2"></rect><polygon points="10 10 13 10 13 12 15 12 15 10 21 10 21 12 23 12 23 10 26 10 26 8 10 8 10 10"></polygon><polygon points="54 8 38 8 38 10 41 10 41 12 43 12 43 10 49 10 49 12 51 12 51 10 54 10 54 8"></polygon></g></svg>