<svg xmlns="http://www.w3.org/2000/svg" viewBox="0 0 64 64" x="0px" y="0px"><g data-name="Handbag"><path d="M61.98,47.8l-5-25A1,1,0,0,0,56,22H43V13a11,11,0,0,0-22,0v9H8a1,1,0,0,0-.98.8l-5,25A.925.925,0,0,0,2,48V59a3,3,0,0,0,3,3H59a3,3,0,0,0,3-3V48A.925.925,0,0,0,61.98,47.8ZM49,42h2v3a1,1,0,0,1-2,0Zm-2-2V38h6v2Zm2-4V30h2v6Zm3-8H48a1,1,0,0,0-1,1v2.816A3,3,0,0,1,45,29V24H55v5a3,3,0,0,1-2,2.816V29A1,1,0,0,0,52,28Zm-9-2H38a1,1,0,0,0-1,1v2a5,5,0,0,1-10,0V27a1,1,0,0,0-1-1H21V24H43ZM13,42h2v3a1,1,0,0,1-2,0Zm-2-2V38h6v2Zm2-4V30h2v6Zm3-8H12a1,1,0,0,0-1,1v2.816A3,3,0,0,1,9,29V24H19v5a3,3,0,0,1-2,2.816V29A1,1,0,0,0,16,28Zm21-6H27V13a5,5,0,0,1,10,0ZM23,13a9,9,0,0,1,18,0v9H39V13a7,7,0,0,0-14,0v9H23ZM7.421,31A5.015,5.015,0,0,0,11,33.9V36H10a1,1,0,0,0-1,1v4a1,1,0,0,0,1,1h1v3a3,3,0,0,0,6,0V42h1a1,1,0,0,0,1-1V37a1,1,0,0,0-1-1H17V33.9A5.009,5.009,0,0,0,21,29V28h4v1a7,7,0,0,0,14,0V28h4v1a5.009,5.009,0,0,0,4,4.9V36H46a1,1,0,0,0-1,1v4a1,1,0,0,0,1,1h1v3a3,3,0,0,0,6,0V42h1a1,1,0,0,0,1-1V37a1,1,0,0,0-1-1H53V33.9A5.015,5.015,0,0,0,56.579,31L60,48.1V50H4V48.1ZM59,60H5a1,1,0,0,1-1-1V52H60v7A1,1,0,0,1,59,60Z"></path><path d="M32,32a3,3,0,1,0-3-3A3,3,0,0,0,32,32Zm0-4a1,1,0,1,1-1,1A1,1,0,0,1,32,28Z"></path></g></svg>