<svg xmlns="http://www.w3.org/2000/svg" viewBox="0 0 32 32" x="0px" y="0px"><title>Browser_47</title><g data-name="Browser"><path d="M31,0H1A1,1,0,0,0,0,1V31a1,1,0,0,0,1,1H17V30H6V8H30v8h2V1A1,1,0,0,0,31,0ZM12,2V6H2V2ZM4,30H2V8H4ZM14,6V2H30V6Z"></path><rect x="3" y="3" width="2" height="2"></rect><rect x="6" y="3" width="2" height="2"></rect><rect x="9" y="3" width="2" height="2"></rect><path d="M25,19v4.585l-1.121-1.121-1.414,1.414,2.828,2.829a1,1,0,0,0,1.414,0l2.828-2.829-1.414-1.414L27,23.585V19Z"></path><path d="M28,28H24V27H22v2a1,1,0,0,0,1,1h6a1,1,0,0,0,1-1V27H28Z"></path></g></svg>