<svg xmlns="http://www.w3.org/2000/svg" viewBox="0 0 64 64" x="0px" y="0px"><g data-name="Capital-Finance-Hand-Revenue-Money Bag"><path d="M62.15,45.9a3.987,3.987,0,0,0-2.43-1.86,3.937,3.937,0,0,0-3.04.4l-3.02,1.74c.1-.08.2-.15.3-.24A3.653,3.653,0,0,0,55,43.39a3.6,3.6,0,0,0-1.6-2.99l-.96-.64a1.024,1.024,0,0,1-.44-.83V34a9.012,9.012,0,0,0-6.36-8.6,2.965,2.965,0,0,0-.97-3.89l3.11-3.89a.981.981,0,0,0,.12-1.05A1,1,0,0,0,47,16c-.59,0-.66-.07-.79-.21A2.7,2.7,0,0,0,44,15a2.7,2.7,0,0,0-2.21.79c-.13.14-.2.21-.79.21s-.66-.07-.79-.21A2.7,2.7,0,0,0,38,15a2.7,2.7,0,0,0-2.21.79c-.13.14-.2.21-.79.21a1,1,0,0,0-.9.57.981.981,0,0,0,.12,1.05l3.11,3.89a2.965,2.965,0,0,0-.97,3.89A9.012,9.012,0,0,0,30,34v4.93a1.008,1.008,0,0,1-.45.83l-.94.64a3.545,3.545,0,0,0-1.58,2.75,10.883,10.883,0,0,0-3.92,1.42L20.72,46H2v2H21a1,1,0,0,0,.51-.14l2.63-1.58A9,9,0,0,1,28.77,45h1.3a9.149,9.149,0,0,1,3.35.64l3.21,1.29A.937.937,0,0,0,37,47h7a2,2,0,0,1,0,4H34v2H44.51a4.982,4.982,0,0,0,2.5-.67l10.67-6.16a2,2,0,0,1,2.93,2.25,1.927,1.927,0,0,1-.93,1.21L46.05,57.51a14.956,14.956,0,0,1-9.16,1.92L24.11,58.01a1.34,1.34,0,0,0-.2-.01l-22,2,.18,2,21.9-2,12.68,1.41a16.944,16.944,0,0,0,10.38-2.17l13.63-7.87A4.018,4.018,0,0,0,62.15,45.9ZM36.75,17.59a3.579,3.579,0,0,0,.46-.38c.13-.14.2-.21.79-.21s.66.07.79.21A2.7,2.7,0,0,0,41,18a2.7,2.7,0,0,0,2.21-.79c.13-.14.2-.21.79-.21s.66.07.79.21a3.579,3.579,0,0,0,.46.38L42.52,21H39.48ZM44,24a1,1,0,0,1-1,1H39a1,1,0,0,1,0-2h4A1,1,0,0,1,44,24Zm3.95,25.48A3.441,3.441,0,0,0,47.44,47h3.95a3.614,3.614,0,0,0,1.26-.24Zm4.59-4.95a1.653,1.653,0,0,1-1.15.47H37.19l-3.03-1.21A10.825,10.825,0,0,0,30.07,43H29.05a1.625,1.625,0,0,1,.67-.94l.94-.64A2.963,2.963,0,0,0,32,38.93V34a7.008,7.008,0,0,1,7-7h4a7.008,7.008,0,0,1,7,7v4.93a2.977,2.977,0,0,0,1.33,2.49l.96.64A1.619,1.619,0,0,1,53,43.39,1.646,1.646,0,0,1,52.54,44.53Z"></path><path d="M17,14a4,4,0,1,0,4,4A4,4,0,0,0,17,14Zm0,6a2,2,0,1,1,2-2A2,2,0,0,1,17,20Z"></path><path d="M31.85,15.44,28,11.59V4a1,1,0,0,0-1-1H23a1,1,0,0,0-1,1V5.59L18.41,2a1.992,1.992,0,0,0-2.82,0L2.15,15.44a3,3,0,0,0,2.12,5.12A3.046,3.046,0,0,0,6,20V32a2.006,2.006,0,0,0,2,2H26a2.006,2.006,0,0,0,2-2V20a2.994,2.994,0,0,0,3.85-4.56ZM24,5h2V9.59l-2-2ZM19,32H15V26h4Zm7,0H21V25a1,1,0,0,0-1-1H14a1,1,0,0,0-1,1v7H8V18.07l9-9,9,9Zm4.44-13.74a1,1,0,0,1-1.42,0L17.71,6.95a1.008,1.008,0,0,0-1.42,0L4.98,18.26a1,1,0,0,1-1.42-1.41L17,3.41,30.44,16.85A1,1,0,0,1,30.44,18.26Z"></path><path d="M45,38a3,3,0,0,0-3-3H40a1,1,0,0,1,0-2h2a1,1,0,0,1,1,1h2a3,3,0,0,0-3-3V30H40v1a3,3,0,0,0,0,6h2a1,1,0,0,1,0,2H40a1,1,0,0,1-1-1H37a3,3,0,0,0,3,3v1h2V41A3,3,0,0,0,45,38Z"></path></g></svg>