<svg xmlns="http://www.w3.org/2000/svg" viewBox="0 0 64 64" x="0px" y="0px"><g data-name="coffee cup-coffee mug-espresso-drink-coffee"><path d="M26,16h2a2.258,2.258,0,0,1,.759-1.681,4.208,4.208,0,0,0,0-5.967,2.246,2.246,0,0,1,0-3.368A4.167,4.167,0,0,0,30,2H28a2.264,2.264,0,0,1-.76,1.684,4.21,4.21,0,0,0,0,5.968,2.243,2.243,0,0,1,0,3.365A4.162,4.162,0,0,0,26,16Z"></path><path d="M13,60H51a3.014,3.014,0,0,0,2.83-2H10.17A3.014,3.014,0,0,0,13,60Z"></path><path d="M49,26H46V22H18V42.51a48.7,48.7,0,0,0,1.17,10.63l.46,2.08a.985.985,0,0,0,.97.78H43.4a.985.985,0,0,0,.97-.78l.46-2.08A48.3,48.3,0,0,0,45.86,46H49a5,5,0,0,0,5-5V31A5,5,0,0,0,49,26Zm3,15a3.009,3.009,0,0,1-3,3H45.959c.015-.5.041-.993.041-1.49V28h3a3.009,3.009,0,0,1,3,3Z"></path><path d="M34,16h2a2.258,2.258,0,0,1,.759-1.681,4.208,4.208,0,0,0,0-5.967,2.246,2.246,0,0,1,0-3.368A4.167,4.167,0,0,0,38,2H36a2.264,2.264,0,0,1-.76,1.684,4.21,4.21,0,0,0,0,5.968,2.243,2.243,0,0,1,0,3.365A4.162,4.162,0,0,0,34,16Z"></path></g></svg>