<svg xmlns="http://www.w3.org/2000/svg" viewBox="0 0 64 64" x="0px" y="0px"><g><path d="M55.15,40.434,46.634,45.35A4,4,0,0,0,43,43H31.162l-3.691-1.23A14.968,14.968,0,0,0,22.728,41h-.85a15,15,0,0,0-7.718,2.138L12.723,44H12a1,1,0,0,0-1-1H3a1,1,0,0,0-1,1V58a1,1,0,0,0,1,1h8a1,1,0,0,0,1-1h7.531a7,7,0,0,1,.818.048l11.921,1.4a14.7,14.7,0,0,0,1.729.1,15.1,15.1,0,0,0,7.523-2.008L59.15,47.366a3.962,3.962,0,0,0,2-3.466,4,4,0,0,0-6-3.466ZM10,57H4V45h6ZM58.15,45.634,40.522,55.812A13.078,13.078,0,0,1,32.5,57.464l-11.92-1.4A9.026,9.026,0,0,0,19.531,56H12V46h1a1,1,0,0,0,.515-.143l1.674-1A13,13,0,0,1,21.878,43h.85a13,13,0,0,1,4.111.667l3.845,1.282A1,1,0,0,0,31,45H43a2,2,0,0,1,0,4H28v2H43a3.992,3.992,0,0,0,3.952-3.525l9.193-5.306a2,2,0,0,1,3,1.731A1.981,1.981,0,0,1,58.15,45.634Z"></path><path d="M59,12a3,3,0,1,0-3-3A3,3,0,0,0,59,12Zm0-4a1,1,0,1,1-1,1A1,1,0,0,1,59,8Z"></path><rect x="58" y="14" width="2" height="6"></rect><rect x="58" y="22" width="2" height="2"></rect><path d="M53,17a3,3,0,1,0-3-3A3,3,0,0,0,53,17Zm0-4a1,1,0,1,1-1,1A1,1,0,0,1,53,13Z"></path><rect x="52" y="19" width="2" height="6"></rect><rect x="52" y="27" width="2" height="2"></rect><path d="M5,12A3,3,0,1,0,2,9,3,3,0,0,0,5,12ZM5,8A1,1,0,1,1,4,9,1,1,0,0,1,5,8Z"></path><rect x="4" y="14" width="2" height="6"></rect><rect x="4" y="22" width="2" height="2"></rect><path d="M11,17a3,3,0,1,0-3-3A3,3,0,0,0,11,17Zm0-4a1,1,0,1,1-1,1A1,1,0,0,1,11,13Z"></path><rect x="10" y="19" width="2" height="6"></rect><rect x="10" y="27" width="2" height="2"></rect><path d="M17,21.974V35a2,2,0,0,0,2,2H45a2,2,0,0,0,2-2V21.974A4.977,4.977,0,0,0,49,18V13a.993.993,0,0,0-.132-.5l-4-7A1,1,0,0,0,44,5H20a1,1,0,0,0-.868.5l-4,7A.993.993,0,0,0,15,13v5A4.977,4.977,0,0,0,17,21.974ZM23,35V27h4v8Zm22,0H29V26a1,1,0,0,0-1-1H22a1,1,0,0,0-1,1v9H19V22.9a4.962,4.962,0,0,0,5-1.93,4.954,4.954,0,0,0,8,0,4.954,4.954,0,0,0,8,0,4.962,4.962,0,0,0,5,1.93ZM44,21a3,3,0,0,1-3-3H39a3,3,0,0,1-6,0H31a3,3,0,0,1-6,0H23a3,3,0,0,1-6,0V14H47v4A3,3,0,0,1,44,21ZM20.58,7H43.42l2.857,5H17.723Z"></path><path d="M42,25H32a1,1,0,0,0-1,1v6a1,1,0,0,0,1,1H42a1,1,0,0,0,1-1V26A1,1,0,0,0,42,25Zm-1,6H33V27h8Z"></path></g></svg>