<svg xmlns="http://www.w3.org/2000/svg" viewBox="0 0 64 64" x="0px" y="0px"><g><path d="M56,10H55V4a2,2,0,0,0-2-2H33a2,2,0,0,0-2,2v6H22a3,3,0,0,0-3,3V23H7a2,2,0,0,0-2,2V35a2,2,0,0,0,2,2H19V59a3,3,0,0,0,3,3H56a3,3,0,0,0,3-3V13A3,3,0,0,0,56,10ZM33,4H53V14H51a1,1,0,0,0-.707.293L46,18.586V15a1,1,0,0,0-1-1H33ZM7,25H27V39.586l-4.293-4.293A1,1,0,0,0,22,35H7ZM57,59a1,1,0,0,1-1,1H22a1,1,0,0,1-1-1V37h.586l5.707,5.707A1,1,0,0,0,28,43a.987.987,0,0,0,.383-.076A1,1,0,0,0,29,42V25a2,2,0,0,0-2-2H21V13a1,1,0,0,1,1-1h9v2a2,2,0,0,0,2,2H44v5a1,1,0,0,0,.617.924A.987.987,0,0,0,45,22a1,1,0,0,0,.707-.293L51.414,16H53a2,2,0,0,0,2-2V12h1a1,1,0,0,1,1,1Z"></path><rect x="9" y="27" width="2" height="2"></rect><rect x="13" y="27" width="12" height="2"></rect><rect x="9" y="31" width="16" height="2"></rect><rect x="35" y="6" width="16" height="2"></rect><rect x="35" y="10" width="16" height="2"></rect><path d="M40,38a9,9,0,1,0,9,9A9.01,9.01,0,0,0,40,38Zm6.92,8H41V40.08A7,7,0,0,1,46.92,46ZM39,40.08v6.506l-4.6,4.6A6.978,6.978,0,0,1,39,40.08ZM40,54a6.953,6.953,0,0,1-4.184-1.4l4.6-4.6H46.92A7.006,7.006,0,0,1,40,54Z"></path><rect x="49" y="36" width="4" height="2"></rect><rect x="49" y="39" width="4" height="2"></rect><rect x="49" y="54" width="4" height="2"></rect><rect x="25" y="45" width="4" height="2"></rect><rect x="25" y="48" width="4" height="2"></rect><rect x="31" y="24" width="12" height="2"></rect><rect x="45" y="24" width="8" height="2"></rect><rect x="31" y="28" width="4" height="2"></rect><rect x="37" y="28" width="16" height="2"></rect><rect x="31" y="32" width="14" height="2"></rect><rect x="47" y="32" width="6" height="2"></rect><rect x="31" y="18" width="6" height="2"></rect><rect x="39" y="18" width="2" height="2"></rect></g></svg>