<svg xmlns="http://www.w3.org/2000/svg" viewBox="0 0 48 48" x="0px" y="0px"><title>Gift Box_7</title><g data-name="Gift Box"><path d="M39,8H34V3.361A3,3,0,0,0,30.507.4a.989.989,0,0,0-.238.071L26.6,2.084a.2.2,0,0,0-.019.012A1.946,1.946,0,0,0,26,2H22a1.946,1.946,0,0,0-.579.1c-.007,0-.012-.009-.019-.012L17.73.472A.968.968,0,0,0,17.493.4,3,3,0,0,0,14,3.361V8H9a3,3,0,0,0-3,3v6a3,3,0,0,0,2,2.816V43a5.006,5.006,0,0,0,5,5H35a5.006,5.006,0,0,0,5-5V19.816A3,3,0,0,0,42,17V11A3,3,0,0,0,39,8ZM28,3.653l2.939-1.291a.964.964,0,0,1,.707.236A.985.985,0,0,1,32,3.361V8H28V3.653ZM26,4V8H22V4ZM16,3.361a.982.982,0,0,1,.354-.763.952.952,0,0,1,.707-.236L20,3.653V8H16ZM38,38H10V34H38Zm-3,8H13a3,3,0,0,1-3-3V40H38v3A3,3,0,0,1,35,46Zm5-29a1,1,0,0,1-1,1H21a1,1,0,0,0,0,2H38V32H10V20h1a1,1,0,0,0,0-2H9a1,1,0,0,1-1-1V11a1,1,0,0,1,1-1H39a1,1,0,0,1,1,1Z"></path><path d="M17,18H15a1,1,0,0,0,0,2h2a1,1,0,0,0,0-2Z"></path></g></svg>