<svg xmlns="http://www.w3.org/2000/svg" viewBox="0 0 64 64" x="0px" y="0px"><g><path d="M61,30H36.725l1.143-8H38a1,1,0,0,0,1-1V17a1,1,0,0,0-1-1H16a1,1,0,0,0-1,1v4a1,1,0,0,0,1,1h.133l.573,4H3a1,1,0,0,0-1,1v4a1,1,0,0,0,1,1h.18L5,41.1v3.839L3.008,60.876A1,1,0,0,0,4,62H61a1,1,0,0,0,1-1V31A1,1,0,0,0,61,30ZM7,42H19v2H7Zm15.02-6H34v2H21.62ZM17,18H37v2H17Zm1.153,4H35.847L34.133,34H22.42l.4-2H23a1,1,0,0,0,1-1V27a1,1,0,0,0-1-1H18.727ZM4,28H22v2H4Zm16.78,4-1.6,8H6.819l-1.6-8ZM5.133,60l1.75-14H19.117l1.75,14Zm17.75,0L21,44.938V41.1l.22-1.1H34.087l1.818,20ZM44,60V54H54v6Zm16,0H56V53a1,1,0,0,0-1-1H43a1,1,0,0,0-1,1v7H37.913L36,38.952V35.073L36.439,32H60Z"></path><path d="M51,41h4a1,1,0,0,0,1-1V36a1,1,0,0,0-1-1H51a1,1,0,0,0-1,1v4A1,1,0,0,0,51,41Zm1-4h2v2H52Z"></path><path d="M43,41h4a1,1,0,0,0,1-1V36a1,1,0,0,0-1-1H43a1,1,0,0,0-1,1v4A1,1,0,0,0,43,41Zm1-4h2v2H44Z"></path><path d="M51,49h4a1,1,0,0,0,1-1V44a1,1,0,0,0-1-1H51a1,1,0,0,0-1,1v4A1,1,0,0,0,51,49Zm1-4h2v2H52Z"></path><path d="M43,49h4a1,1,0,0,0,1-1V44a1,1,0,0,0-1-1H43a1,1,0,0,0-1,1v4A1,1,0,0,0,43,49Zm1-4h2v2H44Z"></path><path d="M4.2,23h2c0-.409.134-.569.521-.973a3.117,3.117,0,0,0,0-4.716c-.388-.405-.522-.565-.522-.976s.134-.571.522-.975A3.149,3.149,0,0,0,7.8,13h-2c0,.411-.134.571-.522.976a3.121,3.121,0,0,0,0,4.719c.388.4.522.565.522.975s-.134.569-.521.973A3.139,3.139,0,0,0,4.2,23Z"></path><path d="M9.2,23h2c0-.409.134-.569.521-.973a3.117,3.117,0,0,0,0-4.716c-.388-.405-.522-.565-.522-.976s.134-.571.522-.975A3.149,3.149,0,0,0,12.8,13h-2c0,.411-.134.571-.522.976a3.121,3.121,0,0,0,0,4.719c.388.4.522.565.522.975s-.134.569-.521.973A3.139,3.139,0,0,0,9.2,23Z"></path><path d="M19.2,12h2c0-.409.134-.569.521-.973a3.117,3.117,0,0,0,0-4.716c-.388-.405-.522-.565-.522-.976s.134-.571.522-.975A3.149,3.149,0,0,0,22.8,2h-2c0,.411-.134.571-.522.976a3.121,3.121,0,0,0,0,4.719c.388.4.522.565.522.975s-.134.569-.521.973A3.139,3.139,0,0,0,19.2,12Z"></path><path d="M25.2,12h2c0-.409.134-.569.521-.973a3.117,3.117,0,0,0,0-4.716c-.388-.405-.522-.565-.522-.976s.134-.571.522-.975A3.149,3.149,0,0,0,28.8,2h-2c0,.411-.134.571-.522.976a3.121,3.121,0,0,0,0,4.719c.388.4.522.565.522.975s-.134.569-.521.973A3.139,3.139,0,0,0,25.2,12Z"></path><path d="M31.2,12h2c0-.409.134-.569.521-.973a3.117,3.117,0,0,0,0-4.716c-.388-.405-.522-.565-.522-.976s.134-.571.522-.975A3.149,3.149,0,0,0,34.8,2h-2c0,.411-.134.571-.522.976a3.121,3.121,0,0,0,0,4.719c.388.4.522.565.522.975s-.134.569-.521.973A3.139,3.139,0,0,0,31.2,12Z"></path></g></svg>