<svg xmlns="http://www.w3.org/2000/svg" viewBox="0 0 64 64" x="0px" y="0px"><g data-name="Edit Code"><polygon points="48 47 50 45.5 50 31 52 31 52 45.5 54 47 54 29 48 29 48 47"></polygon><rect x="48" y="26" width="6" height="1"></rect><polygon points="48.522 49.108 50.414 51 51.586 51 53.478 49.108 51 47.25 48.522 49.108"></polygon><path d="M60,7a3,3,0,0,0-3-3H7A3,3,0,0,0,4,7v3H60ZM10,8H8V6h2Zm4,0H12V6h2Zm4,0H16V6h2ZM53,8H23V6H53Z"></path><path d="M51,20a3,3,0,0,0-3,3v1h6V23A3,3,0,0,0,51,20Z"></path><circle cx="26" cy="37" r="6"></circle><path d="M37.666,34.23a11.965,11.965,0,0,0-1.46-3.518,1,1,0,0,1,.144-1.233L38.729,27.1,35.9,24.272l-2.378,2.379a1,1,0,0,1-1.233.144,11.9,11.9,0,0,0-3.518-1.46,1,1,0,0,1-.77-.973V21H24v3.362a1,1,0,0,1-.77.973,11.9,11.9,0,0,0-3.518,1.46,1,1,0,0,1-1.233-.144L16.1,24.272,13.271,27.1l2.379,2.378a1,1,0,0,1,.144,1.233,11.965,11.965,0,0,0-1.46,3.518,1,1,0,0,1-.973.77H10v4h3.361a1,1,0,0,1,.973.77,11.965,11.965,0,0,0,1.46,3.518,1,1,0,0,1-.144,1.233L13.271,46.9l2.83,2.829,2.378-2.379a1,1,0,0,1,1.233-.144,11.9,11.9,0,0,0,3.518,1.46,1,1,0,0,1,.77.973V53h4V49.638a1,1,0,0,1,.77-.973,11.9,11.9,0,0,0,3.518-1.46,1,1,0,0,1,1.233.144L35.9,49.728l2.83-2.829L36.35,44.521a1,1,0,0,1-.144-1.233,11.965,11.965,0,0,0,1.46-3.518,1,1,0,0,1,.973-.77H42V35H38.639A1,1,0,0,1,37.666,34.23ZM26,45a8,8,0,1,1,8-8A8.009,8.009,0,0,1,26,45Z"></path><path d="M60,12H4V57a3,3,0,0,0,3,3H57a3,3,0,0,0,3-3ZM44,40a1,1,0,0,1-1,1H39.406a13.916,13.916,0,0,1-1.1,2.649l2.543,2.543a1,1,0,0,1,0,1.414l-4.244,4.243a1,1,0,0,1-1.414,0l-2.543-2.543A13.866,13.866,0,0,1,30,50.406V54a1,1,0,0,1-1,1H23a1,1,0,0,1-1-1V50.406a13.866,13.866,0,0,1-2.649-1.1l-2.543,2.543a1,1,0,0,1-1.414,0L11.15,47.606a1,1,0,0,1,0-1.414l2.543-2.543A13.916,13.916,0,0,1,12.594,41H9a1,1,0,0,1-1-1V34a1,1,0,0,1,1-1h3.594a13.916,13.916,0,0,1,1.1-2.649L11.15,27.808a1,1,0,0,1,0-1.414l4.244-4.243a1,1,0,0,1,1.414,0l2.543,2.543A13.866,13.866,0,0,1,22,23.594V20a1,1,0,0,1,1-1h6a1,1,0,0,1,1,1v3.594a13.866,13.866,0,0,1,2.649,1.1l2.543-2.543a1,1,0,0,1,1.414,0l4.244,4.243a1,1,0,0,1,0,1.414l-2.543,2.543A13.916,13.916,0,0,1,39.406,33H43a1,1,0,0,1,1,1Zm12,9a1,1,0,0,1-.3.7l0,0-3,3A1,1,0,0,1,52,53v2a1,1,0,0,1-2,0V53a1,1,0,0,1-.707-.293l-3-3,0,0A1,1,0,0,1,46,49V23a5,5,0,0,1,10,0Z"></path></g></svg>