<svg xmlns="http://www.w3.org/2000/svg" viewBox="0 0 48 48" x="0px" y="0px"><g data-name="Curency Exchange"><path d="M34,11a3.009,3.009,0,0,1-3-3V2H9A1,1,0,0,0,8,3V22a1.033,1.033,0,0,1,.29-.71l4.25-4.24,1.41,1.41L11.41,21H17a5,5,0,0,1,5,5v2H20V26a3.009,3.009,0,0,0-3-3H11.41l2.54,2.54-1.41,1.41L8.29,22.71A1.033,1.033,0,0,1,8,22v7h2a3.009,3.009,0,0,0,3,3h6.59l-2.54-2.54,1.41-1.41,4.25,4.24a1.014,1.014,0,0,1,0,1.42l-4.25,4.24-1.41-1.41L19.59,34H13a5,5,0,0,1-5-5V45a1,1,0,0,0,1,1H39a1,1,0,0,0,1-1V32.59A11,11,0,0,1,23.4,36.8l1.2-1.6A8.9,8.9,0,0,0,30,37a9,9,0,1,0-6.36-15.36l-1.42-1.42A11.007,11.007,0,0,1,40,23.41V11ZM12,6h2V8H12Zm8,6H12V10h8Zm0-4H16V6h4ZM35,27h2v2H35Zm-9,3h2v1h4V29H28a2.006,2.006,0,0,1-2-2V25a2.006,2.006,0,0,1,2-2h1V21h2v2h1a2.006,2.006,0,0,1,2,2v1H32V25H28v2h4a2.006,2.006,0,0,1,2,2v2a2.006,2.006,0,0,1-2,2H31v2H29V33H28a2.006,2.006,0,0,1-2-2Zm-3-3h2v2H23Z"></path><path d="M34,9h4.586L33,3.414V8A1,1,0,0,0,34,9Z"></path></g></svg>