<svg xmlns="http://www.w3.org/2000/svg" viewBox="0 0 64 64" x="0px" y="0px"><title>Record-Microphone-Sound</title><g><path d="M31,31.941V34H27v2H37V34H33V31.941A9.011,9.011,0,0,0,41,23H39a7,7,0,0,1-14,0H23A9.011,9.011,0,0,0,31,31.941Z"></path><path d="M32,28a5.006,5.006,0,0,0,5-5V15a5,5,0,0,0-10,0v8A5.006,5.006,0,0,0,32,28Zm0-16a3,3,0,0,1,3,3H33v2h2v1H33v2h2v1H33v2h2a3,3,0,0,1-6,0h2V21H29V20h2V18H29V17h2V15H29A3,3,0,0,1,32,12Z"></path><path d="M59,2H5A3,3,0,0,0,2,5V45a3,3,0,0,0,3,3H22.9l-.8,8H19a1,1,0,0,0-1,1v3H16v2H48V60H46V57a1,1,0,0,0-1-1H41.905l-.8-8H59a3,3,0,0,0,3-3V5A3,3,0,0,0,59,2ZM44,58v2H20V58ZM24.105,56l.8-8H39.1l.8,8ZM60,45a1,1,0,0,1-1,1H5a1,1,0,0,1-1-1V5A1,1,0,0,1,5,4H59a1,1,0,0,1,1,1Z"></path><path d="M56,6H8A2,2,0,0,0,6,8V39a1,1,0,0,0,1,1H57a1,1,0,0,0,1-1V8A2,2,0,0,0,56,6Zm0,32H8V8H56Z"></path><rect x="31" y="42" width="2" height="2"></rect></g></svg>