<svg xmlns="http://www.w3.org/2000/svg" viewBox="0 0 64 64" x="0px" y="0px"><g data-name="Online Bill"><path d="M56.35,4.95a4.023,4.023,0,0,1-3.1,1.57,3.911,3.911,0,0,1-3.17-1.9c-.58-.75-.92-1.14-1.59-1.14s-1.01.39-1.59,1.14a3.582,3.582,0,0,1-6.33-.01c-.58-.74-.91-1.13-1.58-1.13s-1,.39-1.58,1.13a3.9,3.9,0,0,1-3.17,1.91,3.892,3.892,0,0,1-3.16-1.91c-.58-.74-.91-1.13-1.58-1.13s-1.01.39-1.59,1.14a3.908,3.908,0,0,1-3.16,1.9,4.021,4.021,0,0,1-3.11-1.58A5.786,5.786,0,0,0,21,4.33V20h7a3.009,3.009,0,0,1,3,3V56H57V4.33A4.548,4.548,0,0,0,56.35,4.95ZM37,37H33V35h4Zm4,0H39V35h2Zm4,0H43V35h2Zm0-4H33V31H45Zm0-4H33V27H45Zm0-4H33V23H45Zm0-4H33V19H45Zm8,22H47V41h6Zm-6-6V35h2v2Zm6,0H51V35h2Zm0-4H47V31h6Zm0-4H47V27h6Zm0-4H47V23h6Zm0-4H47V19h6Zm0-6H43V13H53Zm0-4H43V9H53Z"></path><path d="M28,22H8a1,1,0,0,0-1,1v1H29V23A1,1,0,0,0,28,22Z"></path><path d="M7,56v3a1,1,0,0,0,1,1H28a1,1,0,0,0,1-1V56Zm13,3H16V57h4Z"></path><path d="M7,26V54H29V26Zm8,16H13V40h2Zm4,0H17V40h2Zm4,0H21V40h2Z"></path></g></svg>