<svg xmlns="http://www.w3.org/2000/svg" viewBox="0 0 64 64" x="0px" y="0px"><g><path d="M55.74,12.33l-9-10A1,1,0,0,0,46,2H13A5,5,0,0,0,8,7V57a5,5,0,0,0,5,5H51a5,5,0,0,0,5-5V13A.971.971,0,0,0,55.74,12.33ZM47,5.61,52.75,12H48a1,1,0,0,1-1-1ZM54,57a3.009,3.009,0,0,1-3,3H13a3.009,3.009,0,0,1-3-3V7a3.009,3.009,0,0,1,3-3H45v7a3.009,3.009,0,0,0,3,3h6Z"></path><path d="M31,15H21a1,1,0,0,0-1,1V48a1,1,0,0,0,1,1H31a1,1,0,0,0,1-1V16A1,1,0,0,0,31,15Zm-1,4H26v2h4v2H28v2h2v2H28v2h2v2H26v2h4v2H28v2h2v2H28v2h2v2H26v2h4v2H22V17h8Z"></path><path d="M43,15H35a1,1,0,0,0-1,1V39a.978.978,0,0,0,.09.41l4,9a1,1,0,0,0,1.82,0l4-9A.978.978,0,0,0,44,39V16A1,1,0,0,0,43,15Zm-7,8h2V38H36Zm3,22.54L38.32,44h1.36ZM40.57,42H37.43l-.89-2h4.92ZM42,38H40V23h2Zm0-17H36V17h6Z"></path></g></svg>