<svg xmlns="http://www.w3.org/2000/svg" viewBox="0 0 64 64" x="0px" y="0px"><g><path d="M61,47H58V14a5.006,5.006,0,0,0-5-5H11a5.006,5.006,0,0,0-5,5V47H3a1,1,0,0,0-1,1v4a3,3,0,0,0,3,3H59a3,3,0,0,0,3-3V48A1,1,0,0,0,61,47ZM8,14a3,3,0,0,1,3-3H53a3,3,0,0,1,3,3V47H8ZM28,49h8v1H28Zm32,3a1,1,0,0,1-1,1H5a1,1,0,0,1-1-1V49H26v1a2,2,0,0,0,2,2h8a2,2,0,0,0,2-2V49H60Z"></path><path d="M52,26a1,1,0,0,0-1-1H47a1,1,0,0,0-1,1V41H44V32a1,1,0,0,0-1-1H39a1,1,0,0,0-1,1v9H36V36a1,1,0,0,0-1-1H31a1,1,0,0,0-1,1v5H28V18H26V42a1,1,0,0,0,1,1H54V41H52Zm-4,1h2V41H48Zm-8,6h2v8H40Zm-8,4h2v4H32Z"></path><path d="M37,26.414l2.293,2.293a1,1,0,0,0,1.414,0L48,21.414V23h2V19a1,1,0,0,0-1-1H45v2h1.586L40,26.586l-2.293-2.293a1,1,0,0,0-1.414,0l-4,4,1.414,1.414Z"></path><path d="M17,24H15a1,1,0,0,1-1-1H12a3,3,0,0,0,3,3v1h2V26a3,3,0,0,0,0-6H15a1,1,0,0,1,0-2h2a1,1,0,0,1,1,1h2a3,3,0,0,0-3-3V15H15v1a3,3,0,0,0,0,6h2a1,1,0,0,1,0,2Z"></path><rect x="10" y="29" width="2" height="2"></rect><rect x="14" y="29" width="8" height="2"></rect><rect x="10" y="33" width="12" height="2"></rect><rect x="10" y="37" width="12" height="2"></rect><rect x="10" y="41" width="12" height="2"></rect></g></svg>