<svg xmlns="http://www.w3.org/2000/svg" viewBox="0 0 64 64" x="0px" y="0px"><g><circle cx="27" cy="14" r="4"></circle><path d="M37,22h5.51A8.994,8.994,0,0,1,50,16.06V11.94A9.013,9.013,0,0,1,42.06,4H11.94A9.013,9.013,0,0,1,4,11.94v4.12A9.013,9.013,0,0,1,11.94,24H34.18A3.01,3.01,0,0,1,37,22ZM27,20a6,6,0,1,1,6-6A6.006,6.006,0,0,1,27,20Z"></path><path d="M4,4V9.92A7,7,0,0,0,9.92,4Z"></path><path d="M50,9.92V4H44.08A7,7,0,0,0,50,9.92Z"></path><path d="M50,22V18.08A7.007,7.007,0,0,0,44.68,22Z"></path><rect x="4" y="26" width="16" height="2"></rect><path d="M4,18.08V24H9.92A7,7,0,0,0,4,18.08Z"></path><path d="M56,28H40v6H56ZM45,32H43V30h2Zm4,0H47V30h2Zm4,0H51V30h2Z"></path><rect x="22" y="26" width="10" height="14"></rect><rect x="4" y="38" width="16" height="2"></rect><rect x="4" y="34" width="16" height="2"></rect><rect x="4" y="30" width="16" height="2"></rect><rect x="46" y="40" width="4" height="4"></rect><rect x="52" y="52" width="4.001" height="4"></rect><rect x="46" y="46" width="4" height="4"></rect><rect x="40" y="40" width="4" height="4"></rect><rect x="52" y="46" width="4.001" height="4"></rect><rect x="40" y="46" width="4" height="4"></rect><path d="M37,60H59a1,1,0,0,0,1-1V25a1,1,0,0,0-1-1H37a1,1,0,0,0-1,1V59A1,1,0,0,0,37,60Zm1-32a2,2,0,0,1,2-2H56a2,2,0,0,1,2,2v6a2,2,0,0,1-2,2H40a2,2,0,0,1-2-2Zm0,12a2,2,0,0,1,2-2H56a2,2,0,0,1,2,2V56a2,2,0,0,1-2,2H40a2,2,0,0,1-2-2Z"></path><rect x="40" y="52" width="4" height="4"></rect><rect x="52" y="40" width="4" height="4"></rect><rect x="46" y="52" width="4" height="4"></rect></g></svg>