<svg xmlns="http://www.w3.org/2000/svg" viewBox="0 0 64 64" x="0px" y="0px"><title>Memory Card</title><g data-name="Memory Card"><path d="M55.768,14.359l-10-12A1,1,0,0,0,45,2H11a1,1,0,0,0-.707.293l-2,2A1,1,0,0,0,8,5V59a1,1,0,0,0,.293.707l2,2A1,1,0,0,0,11,62H53a1,1,0,0,0,.707-.293l2-2A1,1,0,0,0,56,59V15A1,1,0,0,0,55.768,14.359ZM54,58.586,52.586,60H11.414L10,58.586V5.414L11.414,4H44.532L54,15.362Z"></path><path d="M13,20h4a1,1,0,0,0,1-1V7a1,1,0,0,0-1-1H13a1,1,0,0,0-1,1V19A1,1,0,0,0,13,20ZM14,8h2V18H14Z"></path><path d="M21,20h4a1,1,0,0,0,1-1V7a1,1,0,0,0-1-1H21a1,1,0,0,0-1,1V19A1,1,0,0,0,21,20ZM22,8h2V18H22Z"></path><path d="M29,20h4a1,1,0,0,0,1-1V7a1,1,0,0,0-1-1H29a1,1,0,0,0-1,1V19A1,1,0,0,0,29,20ZM30,8h2V18H30Z"></path><path d="M37,20h4a1,1,0,0,0,1-1V7a1,1,0,0,0-1-1H37a1,1,0,0,0-1,1V19A1,1,0,0,0,37,20ZM38,8h2V18H38Z"></path><path d="M44,14v8a1,1,0,0,0,1,1h4a1,1,0,0,0,1-1V14a1,1,0,0,0-1-1H45A1,1,0,0,0,44,14Zm2,1h2v6H46Z"></path><path d="M14,30a2,2,0,0,0-2,2V52a2,2,0,0,0,2,2H50a2,2,0,0,0,2-2V32a2,2,0,0,0-2-2Zm0,22V32H50V52Z"></path></g></svg>