<svg xmlns="http://www.w3.org/2000/svg" viewBox="0 0 64 64" x="0px" y="0px"><g data-name="Safe Flight"><path d="M35,25H24a1,1,0,0,1-.986-.836L22.153,19H21v9a1,1,0,0,0,1,1H49V26a1,1,0,0,0-1-1H41a1,1,0,0,1-.9-.565L35.544,15H34.22l1.76,8.8A1,1,0,0,1,35,25Z"></path><rect x="8.17" y="39.17" width="8" height="18" transform="translate(-22.455 12.539) rotate(-30.001)"></rect><path d="M40,39H19.414l-3.555,3.555L19.578,49H44.59a3.02,3.02,0,0,0,2.123-.877l12.89-12.9a2.005,2.005,0,0,0-1.413-3.418h0a1.975,1.975,0,0,0-1.41.59L45.047,44.117A2.987,2.987,0,0,1,42.92,45H29V43H40a2,2,0,0,0,0-4Z"></path></g></svg>