<svg xmlns="http://www.w3.org/2000/svg" viewBox="0 0 64 64" x="0px" y="0px"><g data-name="Syncronize File-Mobile"><path d="M21,37V22H7V52H35V40H24A3,3,0,0,1,21,37Z"></path><path d="M7,15v5H21V14H8A1,1,0,0,0,7,15Zm8,1h4v2H15Zm-4,0h2v2H11Z"></path><path d="M8,60H34a1,1,0,0,0,1-1V54H7v5A1,1,0,0,0,8,60Zm10-4h6v2H18Z"></path><path d="M51,29a2.966,2.966,0,0,1,.184-1H47v9a1,1,0,0,0,1,1h2a1,1,0,0,0,1-1Z"></path><path d="M45,37V4H23V37a1,1,0,0,0,1,1H45.184A2.966,2.966,0,0,1,45,37Zm-4-7H27V28H41Zm0-6H27V22H41Zm0-6H27V16H41Zm0-6H27V10H41Z"></path><path d="M53,29v5h4V29a1,1,0,0,0-1-1H54A1,1,0,0,0,53,29Z"></path></g></svg>