<svg xmlns="http://www.w3.org/2000/svg" viewBox="0 0 64 64" x="0px" y="0px"><g><path d="M57,34.808c-1.439,2.249-3,5.1-3,6.192a3,3,0,0,0,6,0C60,39.907,58.439,37.057,57,34.808Z"></path><path d="M27,31v2a1,1,0,0,0,1,1H43a1,1,0,0,0,1-1V31a1,1,0,0,0-1-1L28,30A1,1,0,0,0,27,31Z"></path><path d="M57,27V25a1,1,0,0,0-1-1H26.931A8.008,8.008,0,0,1,19,31V29a6.006,6.006,0,0,0,6-6V12a1,1,0,0,0-1-1H20V23a1,1,0,0,1-1,1H14V48a1,1,0,0,0,1,1H38a1,1,0,0,0,1-1H31a3,3,0,0,1-3-3V43a2.989,2.989,0,0,1,.059-.587c.013-.066.039-.126.056-.19a3.015,3.015,0,0,1,.1-.328c-.087-.024-.168-.061-.251-.092-.055-.02-.111-.036-.164-.059a2.989,2.989,0,0,1-.469-.255.392.392,0,0,0-.032-.025,3.184,3.184,0,0,1-.38-.314c-.043-.042-.079-.087-.119-.131a2.892,2.892,0,0,1-.228-.277c-.039-.054-.075-.11-.11-.167a2.875,2.875,0,0,1-.165-.3c-.029-.06-.057-.12-.081-.183a3,3,0,0,1-.111-.356c-.015-.057-.033-.113-.044-.172A2.954,2.954,0,0,1,26,39V37a2.963,2.963,0,0,1,.092-.7c.017-.069.041-.133.062-.2a2.9,2.9,0,0,1,.187-.457c.018-.036.026-.078.046-.113-.009-.006-.016-.014-.025-.02a3.02,3.02,0,0,1-.515-.427c-.037-.038-.066-.082-.1-.122a3.114,3.114,0,0,1-.306-.416c-.038-.063-.071-.128-.105-.194a2.941,2.941,0,0,1-.182-.45c-.021-.067-.046-.131-.062-.2A2.93,2.93,0,0,1,25,33V31a3,3,0,0,1,3-3H56A1,1,0,0,0,57,27Z"></path><path d="M12,46V24H4V46ZM6,26H8v2H6Zm0,4H8v2H6Z"></path><path d="M44,39V37a1,1,0,0,0-1-1L29,36a1,1,0,0,0-1,1v2a1,1,0,0,0,1,1H43A1,1,0,0,0,44,39Z"></path><path d="M30,43v2a1,1,0,0,0,1,1H41a1,1,0,0,0,1-1V43a1,1,0,0,0-1-1L31,42A1,1,0,0,0,30,43Z"></path></g></svg>