<svg xmlns="http://www.w3.org/2000/svg" viewBox="0 0 64 64" x="0px" y="0px"><g data-name="skyscraper-building-tower-city-real estate"><path d="M60,60V35a1,1,0,0,0-1-1H58V32h2V30H30V3a1,1,0,0,0-1-1H5A1,1,0,0,0,4,3V60H2v2H62V60ZM16,60H12V56h4Zm6,0H18V56h4Zm6,0H24V55a1,1,0,0,0-1-1H11a1,1,0,0,0-1,1v5H6V4H28ZM54,32h2v2H54Zm-4,0h2v2H50Zm-4,0h2v2H46Zm-4,0h2v2H42Zm-4,0h2v2H38Zm-4,0h2v2H34Zm-4,0h2v2H30Zm0,10h4v2H30Zm0,10h4v2H30Zm28,8H30V56H58ZM36,54V52h4v2Zm6,0V52h4v2Zm6,0V52h4v2Zm10,0H54V52h4Zm0-4H30V46H58ZM36,44V42h4v2Zm6,0V42h4v2Zm6,0V42h4v2Zm10,0H54V42h4Zm0-4H30V36H58Z"></path><rect x="8" y="10" width="2" height="2"></rect><rect x="12" y="10" width="2" height="2"></rect><rect x="16" y="10" width="2" height="2"></rect><rect x="8" y="6" width="2" height="2"></rect><rect x="12" y="6" width="2" height="2"></rect><rect x="16" y="6" width="2" height="2"></rect><rect x="20" y="10" width="2" height="2"></rect><rect x="20" y="6" width="2" height="2"></rect><rect x="24" y="10" width="2" height="2"></rect><rect x="24" y="6" width="2" height="2"></rect><rect x="8" y="18" width="2" height="2"></rect><rect x="12" y="18" width="2" height="2"></rect><rect x="16" y="18" width="2" height="2"></rect><rect x="8" y="14" width="2" height="2"></rect><rect x="12" y="14" width="2" height="2"></rect><rect x="16" y="14" width="2" height="2"></rect><rect x="20" y="18" width="2" height="2"></rect><rect x="20" y="14" width="2" height="2"></rect><rect x="24" y="18" width="2" height="2"></rect><rect x="24" y="14" width="2" height="2"></rect><rect x="8" y="26" width="2" height="2"></rect><rect x="12" y="26" width="2" height="2"></rect><rect x="16" y="26" width="2" height="2"></rect><rect x="8" y="22" width="2" height="2"></rect><rect x="12" y="22" width="2" height="2"></rect><rect x="16" y="22" width="2" height="2"></rect><rect x="20" y="26" width="2" height="2"></rect><rect x="20" y="22" width="2" height="2"></rect><rect x="24" y="26" width="2" height="2"></rect><rect x="24" y="22" width="2" height="2"></rect><rect x="8" y="34" width="2" height="2"></rect><rect x="12" y="34" width="2" height="2"></rect><rect x="16" y="34" width="2" height="2"></rect><rect x="8" y="30" width="2" height="2"></rect><rect x="12" y="30" width="2" height="2"></rect><rect x="16" y="30" width="2" height="2"></rect><rect x="20" y="34" width="2" height="2"></rect><rect x="20" y="30" width="2" height="2"></rect><rect x="24" y="34" width="2" height="2"></rect><rect x="24" y="30" width="2" height="2"></rect><rect x="8" y="42" width="2" height="2"></rect><rect x="12" y="42" width="2" height="2"></rect><rect x="16" y="42" width="2" height="2"></rect><rect x="8" y="38" width="2" height="2"></rect><rect x="12" y="38" width="2" height="2"></rect><rect x="16" y="38" width="2" height="2"></rect><rect x="20" y="42" width="2" height="2"></rect><rect x="20" y="38" width="2" height="2"></rect><rect x="24" y="42" width="2" height="2"></rect><rect x="24" y="38" width="2" height="2"></rect><rect x="8" y="50" width="2" height="2"></rect><rect x="12" y="50" width="2" height="2"></rect><rect x="16" y="50" width="2" height="2"></rect><rect x="8" y="46" width="2" height="2"></rect><rect x="12" y="46" width="2" height="2"></rect><rect x="16" y="46" width="2" height="2"></rect><rect x="20" y="50" width="2" height="2"></rect><rect x="20" y="46" width="2" height="2"></rect><rect x="24" y="50" width="2" height="2"></rect><rect x="24" y="46" width="2" height="2"></rect></g></svg>