<svg xmlns="http://www.w3.org/2000/svg" viewBox="0 0 64 64" x="0px" y="0px"><g><rect x="10" y="47" width="2" height="2"></rect><rect x="14" y="47" width="10" height="2"></rect><path d="M42,37.847V43c0,1.991,3.354,4.072,5,4.893,1.645-.823,5-2.908,5-4.893V37.847l-5-.833Z"></path><path d="M4,12.371,25.836,22.853a4.985,4.985,0,0,0,4.328,0L52,12.371V10a1,1,0,0,0-1-1H5a1,1,0,0,0-1,1Z"></path><path d="M5,41H32.051A14.941,14.941,0,0,1,52,27.875V14.589L31.029,24.655a6.966,6.966,0,0,1-6.058,0L4,14.589V40A1,1,0,0,0,5,41ZM6,30H8v2H6Zm0,4H8v2a1,1,0,0,0,1,1h2v2H9a3,3,0,0,1-3-3Z"></path><path d="M47,29A13,13,0,1,0,60,42,13.015,13.015,0,0,0,47,29Zm7,14c0,3.85-5.917,6.611-6.592,6.913a1,1,0,0,1-.816,0C45.917,49.611,40,46.85,40,43V37a1,1,0,0,1,.836-.986l6-1a.951.951,0,0,1,.328,0l6,1A1,1,0,0,1,54,37Z"></path></g></svg>