<svg xmlns="http://www.w3.org/2000/svg" viewBox="0 0 64 64" x="0px" y="0px"><g><rect x="14" y="46" width="4" height="4"></rect><rect x="14" y="40" width="4" height="4"></rect><rect x="20" y="52" width="4.002" height="4"></rect><rect x="14" y="52" width="4" height="4"></rect><rect x="20" y="40" width="4" height="4"></rect><rect x="20" y="46" width="4.001" height="4"></rect><path d="M24,28H8v6H24ZM13,32H11V30h2Zm4,0H15V30h2Zm4,0H19V30h2Z"></path><rect x="8" y="40" width="4" height="4"></rect><path d="M60,18H54V47a3,3,0,0,0,6,0Z"></path><path d="M43,54a1,1,0,0,0,1-1V51a1,1,0,0,0-1-1H42v2H40V50H38v2H36V50H35a1,1,0,0,0-1,1v2a1,1,0,0,0,1,1Z"></path><path d="M47,60h8a1,1,0,0,0,1-1V57a1,1,0,0,0-1-1H54v2H52V56H50v2H48V56H47a1,1,0,0,0-1,1v2A1,1,0,0,0,47,60Z"></path><path d="M35,44a1,1,0,0,0-1,1v2a1,1,0,0,0,1,1h8a1,1,0,0,0,1-1V45a1,1,0,0,0-1-1H42v2H40V44H38v2H36V44Z"></path><rect x="8" y="46" width="4" height="4"></rect><path d="M35,42h8a3.009,3.009,0,0,1,3,3v2a2.974,2.974,0,0,1-.78,2,3.174,3.174,0,0,1,.6,1h7.21A4.924,4.924,0,0,1,52,47V5.24a2.116,2.116,0,0,1-.11.21C51.36,6.52,50.62,8,49,8s-2.35-1.47-2.88-2.55C45.69,4.6,45.37,4,45.01,4s-.68.6-1.11,1.45C43.37,6.52,42.63,8,41.01,8s-2.36-1.48-2.89-2.55C37.69,4.6,37.36,4,37.01,4s-.68.6-1.11,1.45C35.37,6.52,34.63,8,33.01,8s-2.36-1.48-2.89-2.55C29.69,4.6,29.36,4,29.01,4s-.68.6-1.11,1.45C27.37,6.52,26.63,8,25.01,8s-2.36-1.48-2.89-2.55C21.69,4.6,21.36,4,21.01,4s-.68.6-1.11,1.45C19.37,6.52,18.63,8,17.01,8s-2.36-1.48-2.9-2.56c-.04-.07-.08-.14-.11-.2V22H27a3.009,3.009,0,0,1,3,3V50h2.18a3.174,3.174,0,0,1,.6-1A2.974,2.974,0,0,1,32,47V45A3.009,3.009,0,0,1,35,42Zm7-4H32V36H42Zm0-4H32V32H42Zm0-4H32V28H42Zm6,8H44V36h4Zm0-4H44V32h4Zm0-4H44V28h4Zm0-4H44V24h4Zm-3-9H43a3,3,0,0,1,0-6V10h2v1a3,3,0,0,1,3,3H46a1,1,0,0,0-1-1H43a1,1,0,0,0,0,2h2a3,3,0,0,1,0,6v1H43V21a3,3,0,0,1-3-3h2a1,1,0,0,0,1,1h2a1,1,0,0,0,0-2Zm-3,7v2H32V24ZM22,12H36v2H22Zm-4,0h2v2H18Zm0,6V16H36v2Z"></path><rect x="8" y="52" width="4" height="4"></rect><path d="M43,56H42v2H40V56H38v2H36V56H35a1,1,0,0,0-1,1v2a1,1,0,0,0,1,1h8a1,1,0,0,0,1-1V57A1,1,0,0,0,43,56Z"></path><path d="M5,60H27a1,1,0,0,0,1-1V25a1,1,0,0,0-1-1H5a1,1,0,0,0-1,1V59A1,1,0,0,0,5,60ZM6,28a2,2,0,0,1,2-2H24a2,2,0,0,1,2,2v6a2,2,0,0,1-2,2H8a2,2,0,0,1-2-2ZM6,40a2,2,0,0,1,2-2H24a2,2,0,0,1,2,2V56a2,2,0,0,1-2,2H8a2,2,0,0,1-2-2Z"></path></g></svg>