<svg xmlns="http://www.w3.org/2000/svg" viewBox="0 0 64 64" x="0px" y="0px"><g data-name="Programming Analytic"><path d="M61,46H59V15a5.006,5.006,0,0,0-5-5H10a5.006,5.006,0,0,0-5,5V46H3a1,1,0,0,0-1,1v4a3,3,0,0,0,3,3H59a3,3,0,0,0,3-3V47A1,1,0,0,0,61,46ZM7,15a3,3,0,0,1,3-3H54a3,3,0,0,1,3,3V46H7ZM60,51a1,1,0,0,1-1,1H5a1,1,0,0,1-1-1V48H60Z"></path><rect x="28" y="49" width="8" height="2"></rect><path d="M20,21a8,8,0,1,0,8,8A8.009,8.009,0,0,0,20,21Zm-1,2.09V28H14.09A6.008,6.008,0,0,1,19,23.09ZM14.09,30h5.5l3.885,3.885A5.984,5.984,0,0,1,14.09,30Zm10.8,2.471L21,28.586v-5.5a5.984,5.984,0,0,1,3.885,9.381Z"></path><path d="M51,21H49V34H47V23H45V34H43V26H41v8H39V29H37v5H35V19H33V35a1,1,0,0,0,1,1H53V34H51Z"></path><rect x="26" y="19" width="4" height="2"></rect><rect x="26" y="16" width="4" height="2"></rect><rect x="11" y="19" width="4" height="2"></rect><rect x="11" y="16" width="4" height="2"></rect><rect x="13" y="38" width="4" height="2"></rect><rect x="13" y="41" width="4" height="2"></rect><rect x="34" y="38" width="8" height="2"></rect><rect x="34" y="41" width="2" height="2"></rect><rect x="38" y="41" width="4" height="2"></rect></g></svg>