<svg xmlns="http://www.w3.org/2000/svg" viewBox="0 0 64 64" x="0px" y="0px"><g><polygon points="7 20 7 24 31 24 31 20 28 20 28 22 26 22 26 20 24 20 24 22 22 22 22 20 20 20 20 22 18 22 18 20 16 20 16 22 14 22 14 20 12 20 12 22 10 22 10 20 7 20"></polygon><path d="M11,55H27a1,1,0,0,0,1-1V36a1,1,0,0,0-1-1H11a1,1,0,0,0-1,1V54A1,1,0,0,0,11,55Zm1-12a1,1,0,0,1,1-1h3V39a1,1,0,0,1,1-1h4a1,1,0,0,1,1,1v3h3a1,1,0,0,1,1,1v4a1,1,0,0,1-1,1H22v3a1,1,0,0,1-1,1H17a1,1,0,0,1-1-1V48H13a1,1,0,0,1-1-1Z"></path><path d="M18,47v3h2V47a1,1,0,0,1,1-1h3V44H21a1,1,0,0,1-1-1V40H18v3a1,1,0,0,1-1,1H14v2h3A1,1,0,0,1,18,47Z"></path><path d="M7,60H31a1,1,0,0,0,1-1V32.67a.965.965,0,0,0-.194-.593L29.2,28.6A1,1,0,0,1,29,28V26H9v2a1,1,0,0,1-.2.6L6.2,32.069a.973.973,0,0,0-.2.6V59A1,1,0,0,0,7,60ZM8,36a3,3,0,0,1,3-3H27a3,3,0,0,1,3,3V54a3,3,0,0,1-3,3H11a3,3,0,0,1-3-3Z"></path><path d="M41,60H53V54H41Zm9-5h2v4H50Zm-4,0h2v4H46Zm-4,0h2v4H42Z"></path><polygon points="57.938 4 56 4 56 7 54 7 54 4 52 4 52 7 50 7 50 4 48 4 48 7 46 7 46 4 44 4 44 7 42 7 42 4 40 4 40 7 38 7 38 4 36.062 4 36.302 8 57.698 8 57.938 4"></polygon><path d="M48,28V26H46v2a1,1,0,0,1-1,1H43v2h2a1,1,0,0,1,1,1v2h2V32a1,1,0,0,1,1-1h2V29H49A1,1,0,0,1,48,28Z"></path><path d="M55.115,51.061,57.578,10H36.422l2.463,41.061a1,1,0,0,0,1,.939H54.116A1,1,0,0,0,55.115,51.061ZM54,41H40V39H54ZM52,27a1,1,0,0,1,1,1v4a1,1,0,0,1-1,1H50v2a1,1,0,0,1-1,1H45a1,1,0,0,1-1-1V33H42a1,1,0,0,1-1-1V28a1,1,0,0,1,1-1h2V25a1,1,0,0,1,1-1h4a1,1,0,0,1,1,1v2ZM39,21V19H55v2Z"></path></g></svg>