<svg xmlns="http://www.w3.org/2000/svg" viewBox="0 0 64 64" x="0px" y="0px"><g data-name="Music Player-Smartphone-Music-Entertainment-Song"><rect x="28" y="26" width="8" height="4"></rect><path d="M34,54H30a1,1,0,0,0,0,2h4a1,1,0,0,0,0-2Z"></path><circle cx="32" cy="39" r="3"></circle><path d="M18,31v6a1,1,0,0,0,1,1h3V30H19A1,1,0,0,0,18,31Z"></path><path d="M39,22H25a1,1,0,0,0-1,1V45a1,1,0,0,0,1,1H39a1,1,0,0,0,1-1V23A1,1,0,0,0,39,22ZM32,44a5,5,0,1,1,5-5A5.006,5.006,0,0,1,32,44Zm6-13a1,1,0,0,1-1,1H27a1,1,0,0,1-1-1V25a1,1,0,0,1,1-1H37a1,1,0,0,1,1,1Z"></path><path d="M50,8a4,4,0,0,0-4-4H18a4,4,0,0,0-4,4V56a4,4,0,0,0,4,4H46a4,4,0,0,0,4-4ZM29,6h6V8H29ZM25,6h2V8H25Zm9,52H30a3,3,0,0,1,0-6h4a3,3,0,0,1,0,6ZM48,37a3,3,0,0,1-3,3H42v5a3,3,0,0,1-3,3H25a3,3,0,0,1-3-3V40H19a3,3,0,0,1-3-3V31a3,3,0,0,1,2-2.816V26a14,14,0,0,1,28,0v2.184A3,3,0,0,1,48,31Z"></path><path d="M45,30H42v8h3a1,1,0,0,0,1-1V31A1,1,0,0,0,45,30Z"></path><path d="M42,28h2V26a12,12,0,0,0-24,0v2h2V23a3,3,0,0,1,3-3H39a3,3,0,0,1,3,3Z"></path></g></svg>