<svg xmlns="http://www.w3.org/2000/svg" viewBox="0 0 64 64" x="0px" y="0px"><g><rect x="4" y="47" width="2" height="2"></rect><polygon points="15.08 41 24 41 24 37 18.28 37 15.08 41"></polygon><polygon points="26 37 26 41 36.132 41 33.465 37 26 37"></polygon><path d="M27.336,19.355,31,21.8l3.664-2.443A2.991,2.991,0,0,0,36,16.859V10H26v6.859A2.993,2.993,0,0,0,27.336,19.355Zm1.371-5.062L30,15.586l3.293-3.293,1.414,1.414-4,4a1,1,0,0,1-1.414,0l-2-2Z"></path><path d="M21,60H32.54a5.979,5.979,0,0,1-1.45-3H20v2A1,1,0,0,0,21,60Z"></path><path d="M13,52a4,4,0,1,0,4,4A4,4,0,0,0,13,52Zm1,5H12V55h2Z"></path><path d="M46,55V43H43.521a2,2,0,0,1-1.639-.853l-6.1-8.721A1,1,0,0,0,34.959,33h-13a1,1,0,0,0-.781.376L19.88,35H34a1,1,0,0,1,.832.445l4,6A1,1,0,0,1,38,43H26V55h5.09a5.993,5.993,0,0,1,11.82,0Zm-8-8H34V45h4Z"></path><path d="M37,52a4,4,0,1,0,4,4A4,4,0,0,0,37,52Zm1,5H36V55h2Z"></path><path d="M24,55V43H4v2H7a1,1,0,0,1,1,1v4a1,1,0,0,1-1,1H4v4H7.09a5.993,5.993,0,0,1,11.82,0ZM18,45h4v2H18Z"></path><path d="M53.2,8.4a1.036,1.036,0,0,1,1.6,0L56,10V4H52v6Z"></path><path d="M60,59V5a1,1,0,0,0-1-1H58v9a1,1,0,0,1-.684.949A1.019,1.019,0,0,1,57,14a1,1,0,0,1-.8-.4L54,10.667,51.8,13.6A1,1,0,0,1,50,13V4H21a1,1,0,0,0-1,1V31.746A2.973,2.973,0,0,1,21.961,31h13a3,3,0,0,1,2.457,1.28L43.521,41H46a2,2,0,0,1,2,2V55a2,2,0,0,1-2,2H42.91a5.979,5.979,0,0,1-1.45,3H59A1,1,0,0,0,60,59ZM42,18h4v2H42ZM24,16.859V9a1,1,0,0,1,1-1H37a1,1,0,0,1,1,1v7.859a4.987,4.987,0,0,1-2.227,4.161l-4.218,2.812a1,1,0,0,1-1.11,0L26.227,21.02A4.992,4.992,0,0,1,24,16.859ZM54,36H42V34H54ZM40,32V30h4v2Zm14,0H46V30h8Zm0-4H26V26H54Zm0-4H42V22H54Zm0-4H48V18h6Z"></path></g></svg>