<svg xmlns="http://www.w3.org/2000/svg" viewBox="0 0 64 64" x="0px" y="0px"><g data-name="Hot Coffee"><path d="M4.171,58A3.006,3.006,0,0,0,7,60H49a3.006,3.006,0,0,0,2.829-2Z"></path><path d="M58,21H4.1c-.068.986-.1,1.991-.1,3C4,36.118,8.8,47.193,16.549,53h22.9c4.591-3.441,8.135-8.739,10.271-15H54a7.008,7.008,0,0,0,7-7V24A3,3,0,0,0,58,21Zm1,10a5.006,5.006,0,0,1-5,5H50.347A44.034,44.034,0,0,0,52,24c0-.336-.027-.665-.034-1H58a1,1,0,0,1,1,1Z"></path><path d="M27.04,15h2c0-.574.209-.816.682-1.309a3.548,3.548,0,0,0,0-5.386C29.249,7.812,29.04,7.57,29.04,7s.209-.813.681-1.305A3.6,3.6,0,0,0,30.96,3h-2c0,.572-.209.813-.681,1.306a3.544,3.544,0,0,0,0,5.383c.473.493.682.735.682,1.309s-.209.816-.682,1.309A3.61,3.61,0,0,0,27.04,15Z"></path><path d="M16.04,15h2c0-.574.209-.816.682-1.309a3.548,3.548,0,0,0,0-5.386C18.249,7.812,18.04,7.57,18.04,7s.209-.813.681-1.305A3.6,3.6,0,0,0,19.96,3h-2c0,.572-.209.813-.681,1.306a3.544,3.544,0,0,0,0,5.383c.473.493.682.735.682,1.309s-.209.816-.682,1.309A3.61,3.61,0,0,0,16.04,15Z"></path><path d="M38.04,15h2c0-.574.209-.816.682-1.309a3.548,3.548,0,0,0,0-5.386C40.249,7.812,40.04,7.57,40.04,7s.209-.813.681-1.305A3.6,3.6,0,0,0,41.96,3h-2c0,.572-.209.813-.681,1.306a3.544,3.544,0,0,0,0,5.383c.473.493.682.735.682,1.309s-.209.816-.682,1.309A3.61,3.61,0,0,0,38.04,15Z"></path></g></svg>