<svg xmlns="http://www.w3.org/2000/svg" viewBox="0 0 64 64" x="0px" y="0px"><g><path d="M55.757,7.243a1,1,0,0,0-.707,1.706,1.022,1.022,0,0,0,1.414,0h0a1,1,0,0,0-.707-1.706Z"></path><path d="M31.293,55.293,34,52.586V49a1,1,0,0,1,.293-.707L36,46.586V43.414L31.586,39H24.414L21,42.414v2.172L22.414,46H26a1,1,0,0,1,1,1v3.586l1.707,1.707A1,1,0,0,1,29,53v6.918c.661.049,1.327.082,2,.082V56A1,1,0,0,1,31.293,55.293Z"></path><path d="M4.281,36.8c.023.164.035.331.061.494.106.659.239,1.309.392,1.952.007.031.012.063.019.094a26.755,26.755,0,0,0,1.266,3.894l.015.039c.248.6.52,1.187.81,1.765.021.042.04.085.061.126.28.551.58,1.088.895,1.617.042.07.084.142.127.212q.464.764.977,1.491c.028.04.057.079.085.118L12,45.586V43a1,1,0,0,1,.293-.707L15,39.586V37.414l-4.707-4.707A1,1,0,0,1,10,32V29a1,1,0,0,1,1-1h2.586L17,24.586V21a1,1,0,0,1,.293-.707L21,16.586V13.414L18.586,11H15.377a27.2,27.2,0,0,0-8.9,10.714c-.025.056-.055.11-.08.166-.115.252-.215.511-.322.767s-.216.5-.313.755c-.044.115-.08.234-.122.35-.145.4-.288.794-.414,1.2-.006.018-.01.036-.015.053A26.891,26.891,0,0,0,4.2,29.711c-.007.063-.01.127-.018.19-.055.478-.1.957-.132,1.439C4.018,31.889,4,32.443,4,33c0,.732.031,1.46.089,2.181C4.132,35.725,4.206,36.26,4.281,36.8Z"></path><path d="M32,24.586l1.707,1.707A1,1,0,0,1,34,27v3h.586L36,28.586V24H32Z"></path><path d="M57.9,30.762a27.007,27.007,0,0,0-.561-3.7c-.015-.067-.031-.133-.047-.2a26.648,26.648,0,0,0-1.155-3.717l-.014-.035A26.9,26.9,0,0,0,54.9,20.5a2.965,2.965,0,0,1-.221.736l-2.365,5.2a2,2,0,0,1-1.465,1.14,1.94,1.94,0,0,1-.356.032,2,2,0,0,1-1.414-.586l-2.515-2.515a1,1,0,0,1-.242-1.024l.368-1.1-1.8.9a1,1,0,0,1-1.154-.187l-2.829-2.829a1,1,0,0,1-.187-1.154l.9-1.8-1.1.368a1.02,1.02,0,0,1-.317.051,1,1,0,0,1-.707-.293L36.979,14.92a2,2,0,0,1,.586-3.235l5.2-2.365a2.96,2.96,0,0,1,.737-.221A26.748,26.748,0,0,0,40.9,7.88l-.048-.02A26.817,26.817,0,0,0,37.14,6.708l-.208-.048A26.805,26.805,0,0,0,33.24,6.1c-.134-.011-.269-.021-.4-.03C32.227,6.027,31.616,6,31,6c-.673,0-1.339.033-2,.082v6.5L32.414,16H36v2H32a1,1,0,0,1-.707-.293l-4-4A1,1,0,0,1,27,13V6.308l-.183.025a26.708,26.708,0,0,0-4,.945c-.127.041-.252.086-.378.128-.552.186-1.1.387-1.634.608-.1.04-.2.079-.3.121-.629.267-1.249.553-1.853.865H19a1,1,0,0,1,.707.293l3,3A1,1,0,0,1,23,13v4a1,1,0,0,1-.293.707L19,21.414V25a1,1,0,0,1-.293.707l-4,4A1,1,0,0,1,14,30H12v1.586l4.707,4.707A1,1,0,0,1,17,37v3a1,1,0,0,1-.293.707L14,43.414V46a1,1,0,0,1-.293.707l-3.5,3.5a27.164,27.164,0,0,0,4.377,4.217l.079.058q.477.364.971.708t1.028.679c.029.019.059.035.089.054q.526.327,1.067.631l.091.05c.361.2.725.393,1.094.576l.1.051q.544.267,1.1.511c.046.021.093.04.139.06q.534.231,1.078.437l.2.074c.339.126.681.244,1.025.357.092.03.185.061.278.09.31.1.623.188.937.274.128.036.256.072.385.105.271.071.544.134.818.2.171.038.342.079.514.114.225.047.452.086.679.126s.433.08.653.113c.029.005.059.008.089.012V53.414l-1.707-1.707A1,1,0,0,1,25,51V48H22a1,1,0,0,1-.707-.293l-2-2A1,1,0,0,1,19,45V42a1,1,0,0,1,.293-.707l4-4A1,1,0,0,1,24,37h8a1,1,0,0,1,.707.293l5,5A1,1,0,0,1,38,43v4a1,1,0,0,1-.293.707L36,49.414V53a1,1,0,0,1-.293.707L33,56.414v3.479c.222-.016.445-.029.666-.05.339-.034.678-.069,1.014-.115s.655-.1.98-.155c.425-.075.849-.151,1.267-.245.207-.046.412-.1.617-.151.516-.129,1.03-.263,1.534-.421.073-.023.145-.05.219-.074A26.92,26.92,0,0,0,48,53.956V48.414l-4.707-4.707A1,1,0,0,1,43,43V38.414l-3.707-3.707A1,1,0,0,1,39,34V30a1,1,0,0,1,.293-.707L41,27.586V25h2v3a1,1,0,0,1-.293.707L41,30.414v3.172l3.707,3.707A1,1,0,0,1,45,38v4.586l4.707,4.707A1,1,0,0,1,50,48v4.162a27.148,27.148,0,0,0,5.263-7.33c.018-.037.037-.073.055-.109.151-.312.292-.629.431-.947.053-.12.106-.24.157-.362.113-.269.22-.542.324-.815.067-.177.134-.354.2-.532.086-.238.167-.478.246-.72.072-.22.14-.442.206-.664s.125-.426.183-.641c.07-.256.133-.515.2-.774.046-.192.092-.384.134-.577.062-.285.115-.573.167-.861.032-.176.067-.35.095-.527.05-.309.09-.622.129-.934.02-.161.045-.321.062-.483.036-.34.061-.684.085-1.027.009-.137.024-.272.031-.409Q58,33.727,58,33c0-.616-.028-1.228-.069-1.838C57.922,31.029,57.912,30.9,57.9,30.762ZM38,29a1,1,0,0,1-.293.707l-2,2A1,1,0,0,1,35,32H33a1,1,0,0,1-1-1V27.414l-1.707-1.707A1,1,0,0,1,30,25V23a1,1,0,0,1,1-1h6a1,1,0,0,1,1,1Z"></path><path d="M59.279,9.654c.62-3.3.28-4.681.014-4.947s-1.644-.606-4.947.014a2.96,2.96,0,0,0-1.548.824l-9.769,9.768,2.122,2.122,4.243-4.243,1.414,1.414-4.243,4.243,2.122,2.122L58.455,11.2A2.96,2.96,0,0,0,59.279,9.654Zm-1.4.71h0a3,3,0,1,1-4.242-4.243,3.072,3.072,0,0,1,4.243,0,3,3,0,0,1,0,4.242Z"></path><path d="M44.381,11.134a1,1,0,0,0-.785.007l-5.2,2.364,2.078,2.079.186-.062a.981.981,0,0,1-.042-.209,1,1,0,0,1,.293-.707Z"></path><polygon points="42.832 19.359 44.641 21.168 45.584 20.696 43.304 18.416 42.832 19.359"></polygon><path d="M48.687,23.385a.981.981,0,0,1-.209-.042l-.062.186,2.078,2.078,2.365-5.2a1,1,0,0,0,.007-.786l-3.472,3.473A1,1,0,0,1,48.687,23.385Z"></path></g></svg>