<svg xmlns="http://www.w3.org/2000/svg" viewBox="0 0 64 64" x="0px" y="0px"><g data-name="Private Network"><path d="M42,45V58H58V45Zm11,6H51v4H49V51H47V49h6Z"></path><rect x="19" y="18" width="25" height="8"></rect><path d="M47,4H7A3.009,3.009,0,0,0,4,7v3H50V7A3.009,3.009,0,0,0,47,4ZM9,8H7V6H9Zm4,0H11V6h2Zm4,0H15V6h2Z"></path><path d="M44,39v4H56V39a6,6,0,0,0-12,0Z"></path><rect x="10" y="18" width="7" height="26"></rect><path d="M4,12V47a3.009,3.009,0,0,0,3,3H40V45a2.006,2.006,0,0,1,2-2V39a8.011,8.011,0,0,1,8-8V12ZM46,27a1,1,0,0,1-1,1H19V44H32v2H10a2.006,2.006,0,0,1-2-2V18a2.006,2.006,0,0,1,2-2H44a2.006,2.006,0,0,1,2,2Z"></path></g></svg>