<svg xmlns="http://www.w3.org/2000/svg" viewBox="0 0 64 64" x="0px" y="0px"><g><rect x="52" y="30" width="2" height="2"></rect><rect x="48" y="29" width="2" height="2"></rect><path d="M27,34.57a10.68,10.68,0,0,1-6,0V40a3,3,0,0,0,6,0Z"></path><path d="M43,52.76V48.88a6.964,6.964,0,0,0-4.91-6.68l-7.06-2.21,3.73,4.36a1,1,0,0,1-.05,1.36l-2.14,2.13,1.98,1.33a.989.989,0,0,1,.33,1.31L29.68,60h5.35a4.846,4.846,0,0,1,.79-2.36A6.723,6.723,0,0,0,37,54a6.609,6.609,0,0,0-1.71-4.29l1.42-1.42A8.723,8.723,0,0,1,39,54a8.855,8.855,0,0,1-1.52,4.77A2.615,2.615,0,0,0,37.03,60H41.4a3.956,3.956,0,0,1-.12-3.79Z"></path><path d="M56.38,52H45.62l-2.55,5.11A1.992,1.992,0,0,0,44.85,60h12.3a1.992,1.992,0,0,0,1.78-2.89ZM48,56H46V54h2Zm4,2H50V56h2Zm4-2H54V54h2Z"></path><path d="M33,24V16.96a9.468,9.468,0,0,1-6.69-3.3A19.236,19.236,0,0,1,15,17.98V24a9,9,0,0,0,18,0ZM18,21a2,2,0,1,1,2,2A2,2,0,0,1,18,21Zm6,8a5.006,5.006,0,0,1-3.532-1.458l1.4-1.424a3.082,3.082,0,0,0,4.256,0l1.4,1.424A5.006,5.006,0,0,1,24,29Zm4-6a2,2,0,1,1,2-2A2,2,0,0,1,28,23Z"></path><path d="M27.78,12.28A7.726,7.726,0,0,0,34,15a1,1,0,0,1,1,1v8a11.014,11.014,0,0,1-6,9.79v.42A2.963,2.963,0,0,0,31,35a3.007,3.007,0,0,0,2.83-2.01,1,1,0,0,1,1.5-.5A2.889,2.889,0,0,0,37,33a3.009,3.009,0,0,0,3-3,2.964,2.964,0,0,0-.51-1.67.99.99,0,0,1-.13-.88,1.035,1.035,0,0,1,.62-.64A2.968,2.968,0,0,0,42,24a3.009,3.009,0,0,0-3-3,2.942,2.942,0,0,0-.73.11.97.97,0,0,1-.87-.16,1.014,1.014,0,0,1-.4-.8V17A12.975,12.975,0,0,0,31.33,6.28a15.167,15.167,0,0,1-3.13,5.54A6.016,6.016,0,0,1,27.78,12.28Z"></path><path d="M8.02,26.81a1.035,1.035,0,0,1,.62.64.99.99,0,0,1-.13.88A2.964,2.964,0,0,0,8,30a3.009,3.009,0,0,0,3,3,2.889,2.889,0,0,0,1.67-.51,1,1,0,0,1,1.5.5A3.007,3.007,0,0,0,17,35a2.963,2.963,0,0,0,2-.79v-.42A11.014,11.014,0,0,1,13,24V17a1,1,0,0,1,1-1,17.117,17.117,0,0,0,11.83-4.59,10.137,10.137,0,0,0,.86-.9,13.216,13.216,0,0,0,2.86-5.25A12.991,12.991,0,0,0,11,17v3.15a1.014,1.014,0,0,1-.4.8.97.97,0,0,1-.87.16A2.942,2.942,0,0,0,9,21a3.009,3.009,0,0,0-3,3A2.968,2.968,0,0,0,8.02,26.81Z"></path><path d="M21,43.97V60h6V43.97a4.884,4.884,0,0,1-6,0Z"></path><path d="M48,38h6a1,1,0,0,0,0-2H48a1,1,0,0,0,0,2Z"></path><path d="M55.38,50l-2.27-4.55A1,1,0,0,1,53,45V40H49v5a1,1,0,0,1-.11.45L46.62,50ZM50,46h2v2H50Z"></path><path d="M30.45,48.83A.989.989,0,0,1,30,48.1a1.046,1.046,0,0,1,.29-.81l2.35-2.34L29,40.7V57.08l3.68-6.76Z"></path><path d="M19,40.7l-3.64,4.25,2.35,2.34a1.046,1.046,0,0,1,.29.81.989.989,0,0,1-.45.73l-2.23,1.49L19,57.08Z"></path><path d="M12.18,57.64A4.846,4.846,0,0,1,12.97,60h5.35l-5.2-9.52a.989.989,0,0,1,.33-1.31l1.98-1.33-2.14-2.13a1,1,0,0,1-.05-1.36l3.73-4.36L9.91,42.2A6.964,6.964,0,0,0,5,48.88V60h5.97a2.655,2.655,0,0,0-.45-1.23A8.855,8.855,0,0,1,9,54a8.723,8.723,0,0,1,2.29-5.71l1.42,1.42A6.609,6.609,0,0,0,11,54,6.723,6.723,0,0,0,12.18,57.64Z"></path></g></svg>