<svg xmlns="http://www.w3.org/2000/svg" viewBox="0 0 64 64" x="0px" y="0px"><g><path d="M56,20H49V7a5.006,5.006,0,0,0-5-5H20a5.006,5.006,0,0,0-5,5V20H11a5.006,5.006,0,0,0-5,5V57a5.006,5.006,0,0,0,5,5H56a2,2,0,0,0,2-2V22A2,2,0,0,0,56,20Zm0,2v6H49V22ZM17,7a3,3,0,0,1,3-3H44a3,3,0,0,1,3,3V28H45V26a4,4,0,0,0-8,0v2H35.444A3.959,3.959,0,0,0,36,26a4,4,0,0,0-8,0,3.959,3.959,0,0,0,.556,2H26.444A3.959,3.959,0,0,0,27,26a4,4,0,0,0-8,0,3.959,3.959,0,0,0,.556,2H17ZM43,28H39V26a2,2,0,0,1,4,0ZM30,26a2,2,0,1,1,2,2A2,2,0,0,1,30,26Zm-9,0a2,2,0,1,1,2,2A2,2,0,0,1,21,26ZM11,22h4v6H11a3,3,0,0,1,0-6Zm0,38a3,3,0,0,1-3-3V28.975A4.971,4.971,0,0,0,11,30H56v9H44a2,2,0,0,0-2,2v8a2,2,0,0,0,2,2H56v9ZM56,49H44V41H56Z"></path><path d="M24,20H40a5.006,5.006,0,0,0,5-5V11a5.006,5.006,0,0,0-5-5H24a5.006,5.006,0,0,0-5,5v4A5.006,5.006,0,0,0,24,20Zm-3-9a3,3,0,0,1,3-3H40a3,3,0,0,1,3,3v4a3,3,0,0,1-3,3H24a3,3,0,0,1-3-3Z"></path><circle cx="50" cy="45" r="2"></circle></g></svg>