<svg xmlns="http://www.w3.org/2000/svg" viewBox="0 0 64 64" x="0px" y="0px"><g><circle cx="32" cy="34" r="2"></circle><path d="M21,21h3V17c0-2.626,4.024-4,8-4s8,1.374,8,4v4h3a4,4,0,0,0,0-8H39.71a1,1,0,0,1-.958-1.289A5.891,5.891,0,0,0,39,10,5.993,5.993,0,0,0,27.2,8.516a1,1,0,0,1-1.377.667,1.983,1.983,0,0,0-2.7,2.482A1,1,0,0,1,22.18,13H21a4,4,0,0,0,0,8Z"></path><path d="M38,25V23.732A13.183,13.183,0,0,1,32,25a13.183,13.183,0,0,1-6-1.268V25c0,.7,2.278,2,6,2S38,25.705,38,25Z"></path><ellipse cx="32" cy="17" rx="6" ry="2"></ellipse><path d="M38,19.732A13.183,13.183,0,0,1,32,21a13.183,13.183,0,0,1-6-1.268V21c0,.7,2.278,2,6,2s6-1.3,6-2Z"></path><path d="M11.279,56l.772-2.316A1,1,0,0,1,13,53h6a1,1,0,0,1,.949.684L20.721,56h4.892l-1.334-4H7.721L6.387,56Z"></path><path d="M8,41v9H24V41a1,1,0,0,0-1-1H9A1,1,0,0,0,8,41Zm11,3h2v2H19Zm-4,0h2v2H15Zm-4,0h2v2H11Z"></path><rect x="6" y="58" width="20" height="2"></rect><polygon points="13.387 56 18.613 56 18.279 55 13.721 55 13.387 56"></polygon><path d="M51.949,53.684,52.721,56h4.892l-1.334-4H39.721l-1.334,4h4.892l.772-2.316A1,1,0,0,1,45,53h6A1,1,0,0,1,51.949,53.684Z"></path><polygon points="45.387 56 50.613 56 50.279 55 45.721 55 45.387 56"></polygon><rect x="38" y="58" width="20" height="2"></rect><path d="M55,40H41a1,1,0,0,0-1,1v9H56V41A1,1,0,0,0,55,40ZM45,46H43V44h2Zm4,0H47V44h2Zm4,0H51V44h2Z"></path><rect x="31" y="29" width="2" height="2"></rect><path d="M49,38H47V36a1,1,0,0,0-1-1H36V33H46a3,3,0,0,1,3,3Z"></path><path d="M17,38H15V36a3,3,0,0,1,3-3H28v2H18a1,1,0,0,0-1,1Z"></path></g></svg>