<svg xmlns="http://www.w3.org/2000/svg" viewBox="0 0 64 64" x="0px" y="0px"><g><path d="M42,30H38.706a1,1,0,0,1-.958-1.286,6,6,0,1,0-11.555-3.2,1,1,0,0,1-.535.654,1.006,1.006,0,0,1-.845.011A1.96,1.96,0,0,0,24,26a1.973,1.973,0,0,0-1.874,2.667A1,1,0,0,1,21.184,30H20a4,4,0,0,0,0,8H42a4,4,0,0,0,0-8ZM32,30H30V28h2Zm4,0H34V28h2Z"></path><path d="M57,28v1H53.721a2,2,0,1,0,0,2H58a1,1,0,0,0,1-1V28Z"></path><rect x="57" y="40" width="2" height="2"></rect><path d="M10,35a2,2,0,0,0-1.721,1H4a1,1,0,0,0-1,1v3H5V38H8.279A2,2,0,1,0,10,35Z"></path><path d="M9,30H6a1,1,0,0,1-1-1V22H7v6H9Z"></path><path d="M60,4H42V8H60ZM46,7H44V5h2Zm4,0H48V5h2Z"></path><path d="M60,10H42V20H60ZM48,12h4v2H48Zm-4,0h2v2H44Zm12,6H44V16H56Z"></path><path d="M22,4H4V8H22ZM8,7H6V5H8Zm4,0H10V5h2Z"></path><path d="M22,10H4V20H22ZM10,12h4v2H10ZM6,12H8v2H6Zm12,6H6V16H18Z"></path><path d="M22,44H4v4H22ZM8,47H6V45H8Zm4,0H10V45h2Z"></path><path d="M22,50H4V60H22ZM10,52h4v2H10ZM6,52H8v2H6Zm12,6H6V56H18Z"></path><path d="M60,50H42V60H60ZM48,52h4v2H48Zm-4,0h2v2H44Zm12,6H44V56H56Z"></path><path d="M60,44H42v4H60ZM46,47H44V45h2Zm4,0H48V45h2Z"></path><rect x="57" y="24" width="2" height="2"></rect><rect x="57" y="36" width="2" height="2"></rect><rect x="51" y="36" width="4" height="2"></rect><rect x="11" y="28" width="2" height="2"></rect></g></svg>