<svg xmlns="http://www.w3.org/2000/svg" viewBox="0 0 64 64" x="0px" y="0px"><g data-name="Payment-Money-Credit Card-Smartphone-Payment"><path d="M46,46a5,5,0,1,0-5-5A5.006,5.006,0,0,0,46,46Zm0-8a3,3,0,1,1-3,3A3,3,0,0,1,46,38Z"></path><path d="M59,30a3,3,0,0,0,3-3V11a3,3,0,0,0-3-3H40V7a5.006,5.006,0,0,0-5-5H7A5.006,5.006,0,0,0,2,7V57a5.006,5.006,0,0,0,5,5H35a5.006,5.006,0,0,0,5-5V56H60a2,2,0,0,0,2-2V34a2,2,0,0,0-2-2H40V30Zm1-19V27a1,1,0,0,1-1,1H33a1,1,0,0,1-1-1V11a1,1,0,0,1,1-1H59A1,1,0,0,1,60,11ZM14,4H28V6H14ZM32,38.91A6.007,6.007,0,0,0,36.91,34l18.181,0A6.006,6.006,0,0,0,60,38.91v4.18A6.008,6.008,0,0,0,55.09,48H36.91A6.008,6.008,0,0,0,32,43.09Zm0-2.052V34h2.858A4,4,0,0,1,32,36.858ZM60,51H50V50H60ZM44,51V50h4v1Zm4,2v1H44V53ZM32,50H42v1H32Zm0-4.874A4.007,4.007,0,0,1,34.859,48H32ZM32,53H42v1H32Zm28,1H50V53H60Zm-2.858-6A4,4,0,0,1,60,45.142V48ZM60,36.858A3.993,3.993,0,0,1,57.143,34H60ZM38,32H32a2,2,0,0,0-2,2V54a2,2,0,0,0,2,2h6v1a3,3,0,0,1-3,3H7a3,3,0,0,1-3-3V7A3,3,0,0,1,7,4h5V6a2,2,0,0,0,2,2H28a2,2,0,0,0,2-2V4h5a3,3,0,0,1,3,3V8H33a3,3,0,0,0-3,3V27a3,3,0,0,0,3,3h5Z"></path><path d="M49,23a3,3,0,0,0,3,3,2.965,2.965,0,0,0,1.507-.421A2.959,2.959,0,0,0,55,26a3,3,0,0,0,0-6,2.959,2.959,0,0,0-1.493.421A2.965,2.965,0,0,0,52,20,3,3,0,0,0,49,23Zm7,0a1,1,0,0,1-1,1,.928.928,0,0,1-.172-.038,2.776,2.776,0,0,0,0-1.924A.928.928,0,0,1,55,22,1,1,0,0,1,56,23Zm-4-1a1,1,0,1,1-1,1A1,1,0,0,1,52,22Z"></path><path d="M35,18h6a1,1,0,0,0,1-1V13a1,1,0,0,0-1-1H35a1,1,0,0,0-1,1v4A1,1,0,0,0,35,18Zm1-4h4v2H36Z"></path><rect x="56" y="13" width="2" height="4"></rect><rect x="52" y="13" width="2" height="4"></rect><rect x="48" y="13" width="2" height="4"></rect><rect x="34" y="24" width="2" height="2"></rect><rect x="38" y="24" width="2" height="2"></rect><rect x="42" y="24" width="2" height="2"></rect><rect x="34" y="20" width="10" height="2"></rect><path d="M17,20A11,11,0,1,0,28,31,11.013,11.013,0,0,0,17,20Zm0,20a9,9,0,1,1,9-9A9.01,9.01,0,0,1,17,40Z"></path><path d="M16,28h2a1,1,0,0,1,1,1h2a3,3,0,0,0-3-3V24H16v2a3,3,0,0,0,0,6h2a1,1,0,0,1,0,2H16a1,1,0,0,1-1-1H13a3,3,0,0,0,3,3v2h2V36a3,3,0,0,0,0-6H16a1,1,0,0,1,0-2Z"></path></g></svg>