<svg xmlns="http://www.w3.org/2000/svg" viewBox="0 0 64 64" x="0px" y="0px"><g><path d="M61,28H48V27a3.009,3.009,0,0,0-3-3V22h8a3.009,3.009,0,0,0,3-3V5a3.009,3.009,0,0,0-3-3H29a3.009,3.009,0,0,0-3,3V19a3.009,3.009,0,0,0,3,3h8v2a3.009,3.009,0,0,0-3,3v1H20.82A2.98,2.98,0,0,0,18,24V21.82A3,3,0,0,0,17,16H7a1,1,0,0,0-1,1v3H5a3,3,0,0,0,0,6v2H3a1,1,0,0,0-1,1v4a1,1,0,0,0,1,1H4V61a1,1,0,0,0,1,1H8a1,1,0,0,0,1-.96L9.96,34H54.04L55,61.04A1,1,0,0,0,56,62h3a1,1,0,0,0,1-1V34h1a1,1,0,0,0,1-1V29A1,1,0,0,0,61,28ZM28,5a1,1,0,0,1,1-1H53a1,1,0,0,1,1,1V16H28Zm1,15a1,1,0,0,1-1-1V18H54v1a1,1,0,0,1-1,1Zm14,2v2H39V22Zm-7,5a1,1,0,0,1,1-1h8a1,1,0,0,1,1,1v1H36ZM19,27a1,1,0,0,1-1,1H7V26H18A1,1,0,0,1,19,27ZM8,18h9a1,1,0,0,1,0,2H8ZM4,23a1,1,0,0,1,1-1H16v2H5A1,1,0,0,1,4,23ZM7.04,60H6V34H7.96ZM58,60H56.96l-.92-26H58Zm2-28H4V30H60Z"></path><path d="M41,42H23a1,1,0,0,0-1,1V61a1,1,0,0,0,1,1h3a1.011,1.011,0,0,0,1-.93L27.93,48h8.14L37,61.07A1.011,1.011,0,0,0,38,62h3a1,1,0,0,0,1-1V43A1,1,0,0,0,41,42ZM25.07,60H24V48h1.93ZM40,60H38.93l-.86-12H40Zm0-14H24V44H40Z"></path></g></svg>