<svg xmlns="http://www.w3.org/2000/svg" viewBox="0 0 64 64" x="0px" y="0px"><g><path d="M46.816,44H51a1,1,0,0,1,.707.293l1.338,1.338L60,39.546V30.5l-2.98-2.235-4.4,3.516A1,1,0,0,1,52,32H49V30h2.649L56,26.519V17.46l-1.1-.944-1.9,1.9V22H51V18a1,1,0,0,1,.293-.707l2.083-2.083-3.324-2.848-2.345,2.345A1,1,0,0,1,47,15H45.816a3,3,0,1,1,0-2h.77L49,10.586V7.48L44.649,4H36.48L33,8.351V15H31V8.351L27.52,4H19.351L15,7.48v3.106L17.414,13h.77a3,3,0,1,1,0,2H17a1,1,0,0,1-.707-.293l-2.345-2.345L10.624,15.21l2.083,2.083A1,1,0,0,1,13,18v4H11V18.414l-1.9-1.9L8,17.46v9.059L12.351,30H15v2H12a1,1,0,0,1-.625-.219L6.98,28.265,4,30.5v9.046l6.955,6.085,1.338-1.338A1,1,0,0,1,13,44h4.184a3,3,0,1,1,0,2h-3.77L12,47.414V53.68L16.515,60H21V55.414l-1.707-1.707,1.414-1.414,2,2A1,1,0,0,1,23,55v5h2.638l4.75-3.959L27.4,53.8A1,1,0,0,1,27,53V47h2v5.5L31,54V47h2v7l2-1.5V47h2v6a1,1,0,0,1-.4.8l-2.988,2.241L38.362,60H41V55a1,1,0,0,1,.293-.707l2-2,1.414,1.414L43,55.414V60h4.485L52,53.68V47.414L50.586,46h-3.77a3,3,0,1,1,0-2ZM54,34h2v4H54ZM10,38H8V34h2Zm39.707-1.707A1,1,0,0,1,50,37v4H48V37.414l-1.707-1.707,1.414-1.414ZM35,9a1,1,0,0,1,.293-.707l2-2,1.414,1.414L37,9.414V15H35ZM26.707,6.293l2,2A1,1,0,0,1,29,9v6H27V9.414L25.293,7.707ZM16,37.414V41H14V37a1,1,0,0,1,.293-.707l2-2,1.414,1.414ZM16,26V20h2v6Zm30,7a1,1,0,0,1-.858.99l-2.682.383a10.855,10.855,0,0,1-.678,1.639l1.624,2.167a1,1,0,0,1-.093,1.306l-2.828,2.828a1,1,0,0,1-1.307.093l-2.166-1.625a10.86,10.86,0,0,1-1.639.679l-.383,2.682A1,1,0,0,1,34,45H30a1,1,0,0,1-.99-.858l-.383-2.682a10.86,10.86,0,0,1-1.639-.679l-2.166,1.625a1,1,0,0,1-1.307-.093l-2.828-2.828a1,1,0,0,1-.093-1.306l1.624-2.167a10.855,10.855,0,0,1-.678-1.639l-2.682-.383A1,1,0,0,1,18,33V29a1,1,0,0,1,.858-.99l2.682-.383a10.855,10.855,0,0,1,.678-1.639l-1.624-2.167a1,1,0,0,1,.093-1.306l2.828-2.828a1,1,0,0,1,1.307-.093l2.166,1.625a10.86,10.86,0,0,1,1.639-.679l.383-2.682A1,1,0,0,1,30,17h4a1,1,0,0,1,.99.858l.383,2.682a10.86,10.86,0,0,1,1.639.679l2.166-1.625a1,1,0,0,1,1.307.093l2.828,2.828a1,1,0,0,1,.093,1.306l-1.624,2.167a10.855,10.855,0,0,1,.678,1.639l2.682.383A1,1,0,0,1,46,29Zm0-13h2v6H46Z"></path><circle cx="44" cy="45" r="1"></circle><circle cx="43" cy="14" r="1"></circle><path d="M40.709,28.772a8.859,8.859,0,0,0-.975-2.356,1,1,0,0,1,.06-1.11l1.492-1.991-1.6-1.6L37.7,23.206a1,1,0,0,1-1.111.061,8.923,8.923,0,0,0-2.357-.977,1,1,0,0,1-.742-.827L33.133,19H30.867l-.352,2.463a1,1,0,0,1-.742.827,8.923,8.923,0,0,0-2.357.977,1,1,0,0,1-1.111-.061l-1.99-1.492-1.6,1.6,1.492,1.991a1,1,0,0,1,.06,1.11,8.859,8.859,0,0,0-.975,2.356,1,1,0,0,1-.828.744L20,29.867v2.266l2.463.351a1,1,0,0,1,.828.744,8.859,8.859,0,0,0,.975,2.356,1,1,0,0,1-.06,1.11l-1.492,1.991,1.6,1.6,1.99-1.492a1,1,0,0,1,1.111-.061,8.923,8.923,0,0,0,2.357.977,1,1,0,0,1,.742.827L30.867,43h2.266l.352-2.463a1,1,0,0,1,.742-.827,8.923,8.923,0,0,0,2.357-.977,1,1,0,0,1,1.111.061l1.99,1.492,1.6-1.6-1.492-1.991a1,1,0,0,1-.06-1.11,8.859,8.859,0,0,0,.975-2.356,1,1,0,0,1,.828-.744L44,32.133V29.867l-2.463-.351A1,1,0,0,1,40.709,28.772ZM24,32H22V30h2Zm1.636,6.778-1.414-1.414,1.414-1.414,1.414,1.414Zm0-12.728-1.414-1.414,1.414-1.414,1.414,1.414ZM31,21h2v2H31Zm2,20H31V39h2ZM31,30h2a3,3,0,0,1,0,6v1H31V36a3,3,0,0,1-3-3h2a1,1,0,0,0,1,1h2a1,1,0,0,0,0-2H31a3,3,0,0,1,0-6V25h2v1a3,3,0,0,1,3,3H34a1,1,0,0,0-1-1H31a1,1,0,0,0,0,2Zm8.778,7.364-1.414,1.414L36.95,37.364l1.414-1.414ZM38.364,26.05,36.95,24.636l1.414-1.414,1.414,1.414ZM42,32H40V30h2Z"></path><circle cx="21" cy="14" r="1"></circle><circle cx="20" cy="45" r="1"></circle></g></svg>