<svg xmlns="http://www.w3.org/2000/svg" viewBox="0 0 64 64" x="0px" y="0px"><g data-name="Avatar-Man-Boy-Profile-Glasses-Bow Tie"><path d="M39,26.658a9.022,9.022,0,0,0,.747-1.086l-5.98-1.2a8.976,8.976,0,0,0-3.525,0l-5.977,1.2a8.944,8.944,0,0,0,.749,1.086l5.88-.651.22,1.988-4.148.46a8.987,8.987,0,0,0,10.079,0l-4.151-.46.22-1.988Z"></path><path d="M35,35.869v-4.29a10.837,10.837,0,0,1-6,0v4.295c1.017.081,2.026.131,3,.131S33.983,35.95,35,35.869Z"></path><path d="M40.847,22.637A4.963,4.963,0,0,1,39,23H37.1l3.487.7A8.867,8.867,0,0,0,40.847,22.637Z"></path><path d="M22,18a3,3,0,0,0,3,3h2a3,3,0,0,0,3-3V15H22Zm5-2a2,2,0,1,1-2,2A2,2,0,0,1,27,16Z"></path><path d="M26.9,23H25a4.957,4.957,0,0,1-1.843-.362,8.808,8.808,0,0,0,.258,1.063Z"></path><path d="M29.843,22.41a11,11,0,0,1,4.315,0l.85.17A5,5,0,0,1,32,18a5.005,5.005,0,0,1-3.008,4.581Z"></path><path d="M25,39.557l4.4-1.651c-1.466-.1-2.952-.265-4.4-.478Z"></path><polygon points="23 60 23 41 23 37.611 21 38.237 21 60 23 60"></polygon><path d="M34.979,9A4.973,4.973,0,0,0,37,5V4H28a5.006,5.006,0,0,0-5,5Z"></path><polygon points="41 60 43 60 43 38.237 41 37.611 41 41 41 60"></polygon><path d="M38.7,7a6.966,6.966,0,0,1-.955,2H41V7Z"></path><path d="M46.24,15.672l-.1-.672h-.521A4.043,4.043,0,0,1,46.24,15.672Z"></path><polygon points="17 13 21 13 30 13 31 13 33 13 34 13 43 13 47 13 47 11 17 11 17 13"></polygon><path d="M44,18a4.961,4.961,0,0,1-.377,1.891A1.985,1.985,0,0,0,44,16.278Z"></path><path d="M19,38.863l-1.091.341A6.958,6.958,0,0,0,13,45.88v1.339l6,1.5Z"></path><path d="M39,41.693l-7-2.625-7,2.625V60H39ZM33,51H31V49h2Zm0-4H31V45h2Zm0-4H31V41h2Z"></path><path d="M27,30.786A11.008,11.008,0,0,1,21.051,22H21a3.953,3.953,0,0,1-3.778-2.737L15.251,32.4a1,1,0,0,0,.736,1.116A85.2,85.2,0,0,0,27,35.67Z"></path><polygon points="19 50.781 13 49.281 13 60 19 60 19 50.781"></polygon><path d="M48.748,32.4l-1.97-13.133A3.954,3.954,0,0,1,43,22h-.049a10.911,10.911,0,0,1-3.174,6.777A11.031,11.031,0,0,1,37,30.794V35.67a85.218,85.218,0,0,0,11.012-2.156A1,1,0,0,0,48.748,32.4Z"></path><path d="M39,37.428c-1.45.213-2.936.381-4.4.478L39,39.557Z"></path><polygon points="51 49.281 45 50.781 45 60 51 60 51 49.281"></polygon><path d="M19,18a1.977,1.977,0,0,0,1.377,1.891A4.961,4.961,0,0,1,20,18V16.278A1.993,1.993,0,0,0,19,18Z"></path><path d="M51,45.88a6.958,6.958,0,0,0-4.907-6.675L45,38.863v9.856l6-1.5Z"></path><path d="M18.382,15h-.521l-.1.673A4.01,4.01,0,0,1,18.382,15Z"></path><path d="M42,18V15H34v3a3,3,0,0,0,3,3h2A3,3,0,0,0,42,18Zm-5,2a2,2,0,1,1,2-2A2,2,0,0,1,37,20Z"></path></g></svg>