<svg xmlns="http://www.w3.org/2000/svg" viewBox="0 0 64 64" x="0px" y="0px"><g><path d="M45,2H19a5.006,5.006,0,0,0-5,5V57a5.006,5.006,0,0,0,5,5H45a5.006,5.006,0,0,0,5-5V7A5.006,5.006,0,0,0,45,2ZM26,4H38V6H26ZM48,57a3,3,0,0,1-3,3H19a3,3,0,0,1-3-3V7a3,3,0,0,1,3-3h5V6a2,2,0,0,0,2,2H38a2,2,0,0,0,2-2V4h5a3,3,0,0,1,3,3Z"></path><path d="M32,52a3,3,0,1,0,3,3A3,3,0,0,0,32,52Zm0,4a1,1,0,1,1,1-1A1,1,0,0,1,32,56Z"></path><rect x="18" y="11" width="2" height="2"></rect><rect x="22" y="11" width="2" height="2"></rect><rect x="26" y="11" width="12" height="2"></rect><rect x="40" y="11" width="6" height="2"></rect><rect x="44" y="35" width="2" height="2"></rect><rect x="40" y="35" width="2" height="2"></rect><rect x="26" y="35" width="12" height="2"></rect><rect x="18" y="35" width="6" height="2"></rect><rect x="18" y="17" width="8" height="2"></rect><rect x="28" y="17" width="4" height="2"></rect><rect x="34" y="17" width="2" height="2"></rect><rect x="38" y="17" width="8" height="2"></rect><rect x="18" y="41" width="8" height="2"></rect><rect x="28" y="41" width="4" height="2"></rect><rect x="34" y="41" width="2" height="2"></rect><rect x="38" y="41" width="8" height="2"></rect><rect x="18" y="23" width="22" height="2"></rect><rect x="42" y="23" width="4" height="2"></rect><rect x="18" y="29" width="4" height="2"></rect><rect x="24" y="29" width="4" height="2"></rect><rect x="30" y="29" width="16" height="2"></rect><rect x="18" y="47" width="4" height="2"></rect><rect x="24" y="47" width="4" height="2"></rect><rect x="30" y="47" width="16" height="2"></rect></g></svg>