<svg xmlns="http://www.w3.org/2000/svg" viewBox="0 0 64 64" x="0px" y="0px"><g><path d="M30.787,19H55a3.012,3.012,0,0,1,.459.046L54.054,13.8a1.006,1.006,0,0,0-1.222-.7Z"></path><rect x="24" y="25" width="1" height="4"></rect><rect x="27" y="25" width="3" height="1"></rect><rect x="27" y="28" width="3" height="1"></rect><path d="M38,54H4v3a3,3,0,0,0,3,3H35a3,3,0,0,0,3-3ZM25,58H17V56h8Z"></path><path d="M4,10H38V7a3,3,0,0,0-3-3H7A3,3,0,0,0,4,7ZM17,6h8V8H17ZM11,6h4V8H11Z"></path><polygon points="38 45 20 45 20 48 18 48 18 16 20 16 20 19 23.059 19 38 14.998 38 12 4 12 4 52 38 52 38 45"></polygon><path d="M58,38.635l1.56-.421a1.007,1.007,0,0,0,.606-.471.979.979,0,0,0,.1-.749L58,28.534Z"></path><path d="M46.107,26.1a4.007,4.007,0,0,1,.226-.69c.019-.043.04-.084.06-.126.035-.073.065-.149.1-.22A1.968,1.968,0,0,0,46,25a2,2,0,0,0,0,4,1.968,1.968,0,0,0,.5-.063c-.037-.068-.065-.14-.1-.209-.023-.049-.047-.1-.068-.145a3.989,3.989,0,0,1-.223-.681c-.01-.046-.017-.092-.026-.139a3.644,3.644,0,0,1,0-1.528C46.09,26.19,46.1,26.144,46.107,26.1Z"></path><path d="M50,25a1.975,1.975,0,0,0-1.329.512,1.987,1.987,0,0,0-.014,2.965A2,2,0,1,0,50,25Z"></path><path d="M56,42V22a1,1,0,0,0-1-1H20V43H55A1,1,0,0,0,56,42ZM22,30V24a1,1,0,0,1,1-1h8a1,1,0,0,1,1,1v6a1,1,0,0,1-1,1H23A1,1,0,0,1,22,30Zm12,5v2H32V35Zm-4,0v2H28V35Zm6,6H28V39h8Zm2-4H36V35h2Zm2-2h2v2H40Zm10,6H42V39h8Zm-6-4V35h2v2Zm6,0H48V35h2Zm0-6a3.978,3.978,0,0,1-2-.546,4,4,0,1,1,0-6.909A4,4,0,1,1,50,31Z"></path></g></svg>