<svg xmlns="http://www.w3.org/2000/svg" viewBox="0 0 64 64" x="0px" y="0px"><g><path d="M59,28H49a3.009,3.009,0,0,0-3-3H34a3.009,3.009,0,0,0-3,3H5a3,3,0,0,0-3,3,3.009,3.009,0,0,0,3,3h.22l1.54,6.15a12.951,12.951,0,0,0,9.95,9.57l-1.66,4.96a1,1,0,0,0,.14.9A.983.983,0,0,0,16,56h4a1.014,1.014,0,0,0,.95-.68L22.72,50H41.28l1.77,5.32A1.014,1.014,0,0,0,44,56h4a.983.983,0,0,0,.81-.42,1,1,0,0,0,.14-.9l-1.66-4.96a12.951,12.951,0,0,0,9.95-9.57L58.78,34H59a3,3,0,0,0,3-3A3.009,3.009,0,0,0,59,28ZM33,28a1,1,0,0,1,1-1H46a1,1,0,0,1,1,1v7H33Zm-1,9H48v2H32Zm15,4v1a1,1,0,0,1-1,1H34a1,1,0,0,1-1-1V41ZM5,32a1,1,0,0,1-1-1,.949.949,0,0,1,.31-.71A.928.928,0,0,1,5,30H31v2ZM19.28,54H17.39l1.34-4.03c.21.01.42.03.64.03h1.24Zm25.44,0-1.33-4h1.24c.22,0,.43-.02.64-.03L46.61,54ZM55.3,39.67A10.979,10.979,0,0,1,44.63,48H19.37A10.979,10.979,0,0,1,8.7,39.67L7.28,34H31v1.28A2,2,0,0,0,30,37v2a2,2,0,0,0,1,1.72V42a3.009,3.009,0,0,0,3,3H46a3.009,3.009,0,0,0,3-3V40.72A2,2,0,0,0,50,39V37a2,2,0,0,0-1-1.72V34h7.72Zm4.39-7.96A.928.928,0,0,1,59,32H49V30H59a1,1,0,0,1,1,1A.949.949,0,0,1,59.69,31.71Z"></path><path d="M31,18a2.9,2.9,0,0,1-.395,1.553A4.868,4.868,0,0,0,30,22h2a2.9,2.9,0,0,1,.4-1.553A4.868,4.868,0,0,0,33,18a3.564,3.564,0,0,0-1.293-2.707C31.217,14.8,31,14.562,31,14a2.9,2.9,0,0,1,.395-1.553A4.868,4.868,0,0,0,32,10H30a2.9,2.9,0,0,1-.395,1.553A4.868,4.868,0,0,0,29,14a3.564,3.564,0,0,0,1.293,2.707C30.783,17.2,31,17.438,31,18Z"></path><path d="M23,18a2.9,2.9,0,0,1-.395,1.553A4.868,4.868,0,0,0,22,22h2a2.9,2.9,0,0,1,.395-1.553A4.868,4.868,0,0,0,25,18a3.564,3.564,0,0,0-1.293-2.707C23.217,14.8,23,14.562,23,14a2.9,2.9,0,0,1,.395-1.553A4.868,4.868,0,0,0,24,10H22a2.9,2.9,0,0,1-.395,1.553A4.868,4.868,0,0,0,21,14a3.564,3.564,0,0,0,1.293,2.707C22.783,17.2,23,17.438,23,18Z"></path><path d="M39,18a2.9,2.9,0,0,1-.4,1.553A4.868,4.868,0,0,0,38,22h2a2.9,2.9,0,0,1,.4-1.553A4.868,4.868,0,0,0,41,18a3.564,3.564,0,0,0-1.293-2.707C39.217,14.8,39,14.562,39,14a2.9,2.9,0,0,1,.4-1.553A4.868,4.868,0,0,0,40,10H38a2.9,2.9,0,0,1-.4,1.553A4.868,4.868,0,0,0,37,14a3.564,3.564,0,0,0,1.293,2.707C38.783,17.2,39,17.438,39,18Z"></path></g></svg>