<svg xmlns="http://www.w3.org/2000/svg" viewBox="0 0 48 48" x="0px" y="0px"><title>Study-Read-Book</title><g><path d="M7.08,37h11.5a5.027,5.027,0,0,1,2.235.528L23.553,38.9c.015.007.032,0,.047.011a.9.9,0,0,0,.8,0c.015-.007.032,0,.047-.011l2.734-1.367A5.027,5.027,0,0,1,29.416,37h11.5A1.081,1.081,0,0,0,42,35.92V8.08A1.081,1.081,0,0,0,40.92,7h-11.5a7.027,7.027,0,0,0-3.13.739L24,8.882,21.714,7.739A7.027,7.027,0,0,0,18.584,7H7.08A1.081,1.081,0,0,0,6,8.08V35.92A1.081,1.081,0,0,0,7.08,37Zm20.1-27.472A5.027,5.027,0,0,1,29.416,9H40V35H29.416a7.027,7.027,0,0,0-3.13.739L25,36.382V10.618ZM8,9H18.584a5.027,5.027,0,0,1,2.235.528L23,10.618V36.382l-1.286-.643A7.027,7.027,0,0,0,18.584,35H8Z"></path><path d="M45,9H43v2h1V38H28.236a2.983,2.983,0,0,0-2.683,1.658L25.382,40H22.618l-.171-.342A2.983,2.983,0,0,0,19.764,38H4V11H5V9H3a1,1,0,0,0-1,1V39a1,1,0,0,0,1,1H19.764a1,1,0,0,1,.894.553l.447.894A1,1,0,0,0,22,42h4a1,1,0,0,0,.895-.553l.447-.894A1,1,0,0,1,28.236,40H45a1,1,0,0,0,1-1V10A1,1,0,0,0,45,9Z"></path><rect x="10" y="11" width="10" height="2"></rect><rect x="10" y="15" width="10" height="2"></rect><rect x="10" y="19" width="10" height="2"></rect><rect x="10" y="23" width="10" height="2"></rect><rect x="10" y="27" width="10" height="2"></rect><rect x="10" y="31" width="10" height="2"></rect><rect x="28" y="11" width="10" height="2"></rect><rect x="28" y="15" width="10" height="2"></rect><rect x="28" y="19" width="10" height="2"></rect><rect x="28" y="23" width="10" height="2"></rect><rect x="28" y="27" width="10" height="2"></rect><rect x="28" y="31" width="10" height="2"></rect></g></svg>