<svg xmlns="http://www.w3.org/2000/svg" viewBox="0 0 64 64" x="0px" y="0px"><g data-name="Shoulder bag"><path d="M49,25a3,3,0,0,0-2.235-1H45V7a5.006,5.006,0,0,0-5-5H24a5.006,5.006,0,0,0-5,5V24H17.234a3,3,0,0,0-2.981,3.331l3.556,32A3,3,0,0,0,20.79,62H43.21a3,3,0,0,0,2.981-2.669l3.556-32A3,3,0,0,0,49,25ZM28.142,40a3.981,3.981,0,0,0,7.716,0H40.53a4.937,4.937,0,0,0,1.814-.349L40.525,56H23.475L21.656,39.651A4.937,4.937,0,0,0,23.47,40ZM30,39a2,2,0,1,1,2,2A2,2,0,0,1,30,39Zm13.5-3.571A3.01,3.01,0,0,1,40.53,38H35.858a3.981,3.981,0,0,0-7.716,0H23.47a3.01,3.01,0,0,1-2.97-2.572L19.153,26H44.847ZM39,6H25V4H39Zm0,2V24H25V8Zm4-1V24H41V4.171A3.006,3.006,0,0,1,43,7ZM21,7a3.006,3.006,0,0,1,2-2.829V24H21ZM44.2,59.11a1,1,0,0,1-.993.89H20.79a1,1,0,0,1-.993-.89l-3.556-32a.991.991,0,0,1,.248-.777.979.979,0,0,1,.646-.312L18.52,35.71a4.909,4.909,0,0,0,.933,2.235l2.133,19.166A1,1,0,0,0,22.58,58H41.42a1,1,0,0,0,.994-.889l2.133-19.165a4.92,4.92,0,0,0,.933-2.235l1.385-9.69a.979.979,0,0,1,.646.312.991.991,0,0,1,.248.777Z"></path></g></svg>