<svg xmlns="http://www.w3.org/2000/svg" viewBox="0 0 64 64" x="0px" y="0px"><g><path d="M37.437,6.763a1.029,1.029,0,0,0-1.414,0L24.7,18.083a14.918,14.918,0,0,0-3.552,15.533,6.8,6.8,0,0,0-2.1,1.435A6.978,6.978,0,0,0,19,44.889V52H6a1,1,0,0,0-1,1v8a1,1,0,0,0,1,1H42a1,1,0,0,0,1-1V53a1,1,0,0,0-1-1H29V44.887a6.827,6.827,0,0,0,1.391-2.05A14.841,14.841,0,0,0,45.917,39.3l11.32-11.32a1,1,0,0,0,0-1.415ZM49.456,32.929,31.071,14.544l1.414-1.414L50.87,31.515ZM20.471,36.463a4.793,4.793,0,0,1,2.24-1.287,4.739,4.739,0,0,1,2.161-.085c.065.011.13.024.194.039a5.023,5.023,0,0,1,.833.25h0a4.9,4.9,0,0,1,.767.407c.061.038.122.079.181.12a4.913,4.913,0,0,1,.684.559,5,5,0,0,1,1.292,4.822l0,.016a4.771,4.771,0,0,1-1.287,2.228c-.057.058-.115.108-.2.185a4.966,4.966,0,0,1-6.691-.028c-.057-.049-.115-.1-.174-.159a4.983,4.983,0,0,1,.006-7.068ZM41,60H7V54H41ZM21,52V46.324c.139.067.283.118.425.175.059.024.117.051.176.073a7.029,7.029,0,0,0,1.066.3c.068.013.135.023.2.034a6.939,6.939,0,0,0,2.269,0c.061-.011.121-.019.181-.031a6.747,6.747,0,0,0,1.091-.3c.048-.017.095-.039.142-.058.15-.059.3-.114.447-.184V52ZM44.5,37.883a12.941,12.941,0,0,1-13.569,3.043v-.017c.006-.049.006-.1.011-.146a7.167,7.167,0,0,0,.045-.716c0-.1-.008-.2-.012-.3-.007-.186-.017-.371-.038-.555-.013-.113-.034-.224-.052-.335-.029-.171-.061-.341-.1-.509-.028-.114-.06-.227-.093-.339-.049-.164-.1-.325-.164-.484-.041-.11-.084-.219-.131-.327-.07-.16-.148-.315-.23-.469-.053-.1-.1-.2-.161-.3-.1-.164-.207-.322-.319-.479-.056-.079-.106-.161-.166-.238a6.867,6.867,0,0,0-.576-.658,6.759,6.759,0,0,0-.659-.576c-.078-.061-.161-.112-.241-.169-.156-.11-.311-.218-.474-.315-.1-.06-.207-.113-.312-.168-.148-.078-.3-.153-.45-.22-.116-.052-.235-.1-.354-.142-.147-.055-.294-.106-.444-.151-.127-.038-.254-.074-.383-.1-.147-.035-.3-.063-.446-.089-.132-.023-.264-.047-.4-.062-.154-.017-.309-.024-.464-.032-.13-.006-.258-.016-.389-.015-.188,0-.375.018-.564.035-.1.009-.191.009-.287.022h-.008A12.93,12.93,0,0,1,26.117,19.5l3.539-3.539L48.042,34.343ZM52.285,30.1,33.9,11.715,36.73,8.884,55.116,27.27Z"></path><rect x="47.577" y="11.423" width="8" height="2" transform="translate(6.32 40.105) rotate(-44.995)"></rect><rect x="53.818" y="17.787" width="8.246" height="2" transform="translate(-1.408 32.492) rotate(-30.968)"></rect><rect x="41.09" y="5.059" width="8.246" height="2" transform="matrix(0.515, -0.857, 0.857, 0.515, 16.75, 41.707)"></rect></g></svg>