<svg xmlns="http://www.w3.org/2000/svg" viewBox="0 0 64 64" x="0px" y="0px"><g><path d="M55,2H9A7.008,7.008,0,0,0,2,9V43a7.008,7.008,0,0,0,7,7H22.867l-.75,6H19a3,3,0,0,0,0,6H45a3,3,0,0,0,0-6H41.883l-.75-6H55a7.008,7.008,0,0,0,7-7V9A7.008,7.008,0,0,0,55,2ZM9,4H55a5.006,5.006,0,0,1,5,5V40H4V9A5.006,5.006,0,0,1,9,4ZM46,59a1,1,0,0,1-1,1H19a1,1,0,0,1,0-2H45A1,1,0,0,1,46,59Zm-6.133-3H24.133l.75-6H39.117ZM55,48H9a5.006,5.006,0,0,1-5-5V42H60v1A5.006,5.006,0,0,1,55,48Z"></path><rect x="54" y="44" width="2" height="2"></rect><path d="M14.574,18.905,21,21.929V33a1,1,0,0,0,.835.986A77.01,77.01,0,0,0,32,35a77.01,77.01,0,0,0,10.165-1.014A1,1,0,0,0,43,33V21.929l5-2.353v4.01l-2.707,2.707,1.414,1.414L48,26.414V28h2V26.427l1.287,1.286L52.7,26.3,50,23.6V18a1,1,0,0,0-.574-.905l-17-8a1,1,0,0,0-.852,0l-17,8a1,1,0,0,0,0,1.81ZM41,32.145A70.553,70.553,0,0,1,32,33a70.553,70.553,0,0,1-9-.855V22.87l8.574,4.035a1,1,0,0,0,.852,0L41,22.87Zm-9-21.04L46.651,18,32,24.9,17.349,18Z"></path><path d="M47.414,10H50V8H47a1,1,0,0,0-.707.293l-3,3,1.414,1.414Z"></path><rect x="52" y="8" width="4" height="2"></rect><rect x="52" y="12" width="4" height="2"></rect><path d="M19.293,12.707l1.414-1.414-3-3A1,1,0,0,0,17,8H14v2h2.586Z"></path><rect x="8" y="8" width="4" height="2"></rect><rect x="8" y="12" width="4" height="2"></rect><rect x="8" y="33" width="8" height="2"></rect><rect x="8" y="29" width="8" height="2"></rect><rect x="8" y="25" width="2" height="2"></rect><rect x="12" y="25" width="4" height="2"></rect></g></svg>