<svg xmlns="http://www.w3.org/2000/svg" viewBox="0 0 64 64" x="0px" y="0px"><g data-name="Travel Bag"><path d="M38,3H26a1,1,0,0,0-1,1V18h2V7H37V18h2V4A1,1,0,0,0,38,3Z"></path><path d="M22.91,54H41.09A6.008,6.008,0,0,1,46,49.09V33H43V44a1,1,0,0,1-1,1H34a1,1,0,0,1-1-1V33H18V49.09A6.008,6.008,0,0,1,22.91,54Z"></path><path d="M46,27a7.008,7.008,0,0,0-7-7H25a7.008,7.008,0,0,0-7,7Z"></path><rect x="43" y="29" width="3" height="2"></rect><path d="M18,53a1,1,0,0,0,1,1h1.873A4.015,4.015,0,0,0,18,51.126Z"></path><path d="M41,43V29H35V43ZM38,31h2v2H38Zm0,4h2v6H38Z"></path><rect x="18" y="29" width="15" height="2"></rect><path d="M46,53V51.126A4.015,4.015,0,0,0,43.127,54H45A1,1,0,0,0,46,53Z"></path><circle cx="24" cy="58" r="2"></circle><circle cx="40" cy="58" r="2"></circle></g></svg>