<svg xmlns="http://www.w3.org/2000/svg" viewBox="0 0 64 64" x="0px" y="0px"><g><path d="M42.25,19.55,34.63,5.71a3,3,0,0,0-5.26-.01L21.75,19.55A3,3,0,0,0,24.38,24H39.62a3,3,0,0,0,2.63-4.45Zm-1.77,1.96a.988.988,0,0,1-.86.49H24.38a.988.988,0,0,1-.86-.49.975.975,0,0,1-.01-.99L31.12,6.67a1,1,0,0,1,1.76,0l7.61,13.85A.975.975,0,0,1,40.48,21.51Z"></path><rect x="31" y="18" width="2" height="2"></rect><rect x="31" y="11" width="2" height="5"></rect><path d="M41.19,28.33a1.474,1.474,0,0,0-.15,1.14,1.458,1.458,0,0,0,.7.91l4.76,2.75A1,1,0,0,1,47,34v1a5,5,0,0,0,5,5h2v2H52a7.008,7.008,0,0,1-7-7H29.5a1.5,1.5,0,0,0,0,3H42a1,1,0,0,1,0,2H37.65a3.433,3.433,0,0,1,.01,3H42a1,1,0,0,1,0,2h-.35a3.389,3.389,0,0,1,0,3H42a1,1,0,0,1,0,2H37.66a3.433,3.433,0,0,1-.01,3H54.76l3.79-1.89A1,1,0,0,1,59,51h3v2H59.24l-3.79,1.89A1,1,0,0,1,55,55H32.66A3.438,3.438,0,0,1,33,56.5,3.5,3.5,0,0,1,29.5,60H9a1,1,0,0,1-.45-.11L4.76,58H2V56H5a1,1,0,0,1,.45.11L9.24,58H29.5a1.5,1.5,0,0,0,0-3H22a1,1,0,0,1,0-2H34.5a1.5,1.5,0,0,0,0-3H22a1,1,0,0,1,0-2H38.5a1.5,1.5,0,0,0,0-3H22a1,1,0,0,1,0-2H34.5a1.5,1.5,0,0,0,0-3H18a1,1,0,0,1-.97-.74,1.022,1.022,0,0,1,.47-1.13l4.76-2.75a1.458,1.458,0,0,0,.7-.91,1.487,1.487,0,0,0-1.06-1.83,1.427,1.427,0,0,0-1.14.15L5.04,41.87a1.128,1.128,0,0,1-.5.13H2V40H4.27l15.49-8.95a3.5,3.5,0,0,1,4.78,1.28,3.443,3.443,0,0,1,.35,2.66,3.492,3.492,0,0,1-1.63,2.13L21.73,38h4.61A3.438,3.438,0,0,1,26,36.5,3.5,3.5,0,0,1,29.5,33H42.27l-1.53-.88a3.492,3.492,0,0,1-1.63-2.13,3.443,3.443,0,0,1,.35-2.66,3.5,3.5,0,0,1,4.78-1.28L59.73,35H62v2H59.46a1.128,1.128,0,0,1-.5-.13L43.24,27.79a1.427,1.427,0,0,0-1.14-.15A1.478,1.478,0,0,0,41.19,28.33Z"></path></g></svg>