<svg xmlns="http://www.w3.org/2000/svg" viewBox="0 0 64 64" x="0px" y="0px"><g><path d="M34.2,29.214,30,25.874V20a1,1,0,0,0-1-1H26a1,1,0,0,0-1,1v1.9l-2.756-2.19a1.994,1.994,0,0,0-2.488,0L7.843,29.181a2.785,2.785,0,1,0,3.264,4.513L13,32.27V42a2,2,0,0,0,2,2H27a2,2,0,0,0,2-2V32.271L30.9,33.7a2.785,2.785,0,0,0,3.3-4.488ZM27,21h1v3.285l-1-.8ZM19,42V38h4v4Zm8,0H25V37a1,1,0,0,0-1-1H18a1,1,0,0,0-1,1v5H15V30.766l6-4.515,6,4.515Zm6.2-10.108A.787.787,0,0,1,32.1,32.1L21.6,24.2a1,1,0,0,0-1.2,0L9.914,32.089a.786.786,0,0,1-1.118-.2.8.8,0,0,1,.246-1.112L21,21.277h0l12,9.536A.784.784,0,0,1,33.2,31.892Z"></path><path d="M18,31a3,3,0,1,0,3-3A3,3,0,0,0,18,31Zm4,0a1,1,0,1,1-1-1A1,1,0,0,1,22,31Z"></path><path d="M57,12H7a5.006,5.006,0,0,0-5,5V47a5.006,5.006,0,0,0,5,5H41v2H40a1,1,0,0,0-1,1v6a1,1,0,0,0,1,1H58a1,1,0,0,0,1-1V55a1,1,0,0,0-1-1H57V52a5.006,5.006,0,0,0,5-5V17A5.006,5.006,0,0,0,57,12Zm0,48H41V56H57ZM43,54V48a1,1,0,0,0-.1-.447L40,41.764V34a1,1,0,0,1,2,0v6h2V34a2.985,2.985,0,0,0-1-2.22V26a1,1,0,0,1,1-1,.977.977,0,0,1,.713.307A.959.959,0,0,1,45,26V37h2V31a1,1,0,0,1,2,0v7h2V32a1,1,0,0,1,2,0v6h2V34a1,1,0,0,1,2,0v9.838l-1.948,5.846A1,1,0,0,0,55,50v4Zm3.974-28.264a2.893,2.893,0,0,0-.847-1.843A2.937,2.937,0,0,0,44,23a3,3,0,0,0-3,3H40a2,2,0,0,1,0-4h6a1.988,1.988,0,0,1,.974,3.736ZM60,47a3,3,0,0,1-2.944,2.994l1.892-5.678A1,1,0,0,0,59,44V34a2.99,2.99,0,0,0-4.116-2.78A2.961,2.961,0,0,0,50.529,29.4,2.94,2.94,0,0,0,47,28.184v-.326A3.966,3.966,0,0,0,50,24a4,4,0,0,0-4-4H40a4,4,0,0,0,0,8h1v3a3,3,0,0,0-3,3v8a1,1,0,0,0,.1.447L41,48.236V50H7a3,3,0,0,1-3-3V17a3,3,0,0,1,3-3H54V28h2V14h1a3,3,0,0,1,3,3Z"></path></g></svg>