<svg xmlns="http://www.w3.org/2000/svg" viewBox="0 0 64 64" x="0px" y="0px"><title>Sound-Microphone-Reporter-Book</title><g><path d="M60,34V55H33V54a3,3,0,0,1,3-3H57a1,1,0,0,0,1-1V36H56V49H36a4.961,4.961,0,0,0-3,1.013V18a3,3,0,0,1,3-3h2V13H36a5,5,0,0,0-4,2,5,5,0,0,0-4-2H7a1,1,0,0,0-1,1v5H3a1,1,0,0,0-1,1V56a1,1,0,0,0,1,1H61a1,1,0,0,0,1-1V34ZM8,15H28a3,3,0,0,1,3,3V50.013A4.961,4.961,0,0,0,28,49H8ZM4,21H6V50a1,1,0,0,0,1,1H28a3,3,0,0,1,3,3v1H4Z"></path><rect x="12" y="23" width="14" height="2"></rect><rect x="12" y="31" width="14" height="2"></rect><rect x="12" y="39" width="14" height="2"></rect><rect x="38" y="39" width="14" height="2"></rect><path d="M44.514,24.928l.779.779a1,1,0,0,0,1.414,0L49,23.414V30H46v2H58V30H55V20.243l3.021-3.021a.989.989,0,0,0,.243-.962A4.993,4.993,0,1,0,51.9,9.913a1.009,1.009,0,0,0-.945.237l-4.243,4.244a1,1,0,0,0,0,1.414l.707.707-4.95,4.95a1,1,0,0,0,0,1.414l.576.576a3,3,0,0,1-3.4-.576l-1.414,1.414a5.007,5.007,0,0,0,6.292.635ZM51,30V21.414l.657-.657.707.708a1,1,0,0,0,.636.279V30ZM54.485,9.443a3,3,0,1,1,2.286,5.114L53.615,11.4A3,3,0,0,1,54.485,9.443Zm-2.828,2.828.255.255,3.733,3.734h0l.254.255-2.828,2.829-.706-.707h0l-2.828-2.828h0l-.706-.706Zm-2.829,5.658,1.414,1.414L46,23.586l-1.415-1.414Z"></path></g></svg>