<svg xmlns="http://www.w3.org/2000/svg" viewBox="0 0 64 64" x="0px" y="0px"><title>Cabbage</title><g><path d="M51.118,10.727a.811.811,0,0,0-.089-.054A33.908,33.908,0,0,0,32,5,35.229,35.229,0,0,0,21.988,6.431C14.009,8.774,7.564,13.856,4.306,20.372A21.3,21.3,0,0,0,2,30c0,7.568,4.009,14.577,11,19.331V58a3,3,0,0,0,3,3H48a3,3,0,0,0,3-3V49.333c5.9-4.039,9.854-9.892,10.779-16.306A20.522,20.522,0,0,0,62,30C62,22.524,58.034,15.5,51.118,10.727Zm8.328,23.782c-.06.246-.126.491-.2.735-.064.224-.131.447-.2.669-.078.241-.163.48-.251.718-.082.219-.165.439-.254.656-.1.235-.2.467-.3.7-.1.216-.2.431-.3.644s-.234.453-.357.677-.228.421-.35.628-.268.439-.406.656-.259.409-.4.609-.3.424-.456.634-.287.394-.439.587-.333.408-.5.61-.315.379-.481.564-.364.391-.549.585-.341.361-.52.537-.395.374-.6.559c-.184.17-.365.342-.555.508-.209.182-.428.356-.644.533-.2.159-.386.321-.587.475-.226.175-.462.34-.7.508-.2.146-.4.3-.609.437-.247.169-.505.327-.76.489-.206.13-.407.265-.617.39-.277.165-.564.32-.848.477-.2.11-.4.226-.6.332-.325.169-.66.326-.994.484-.174.083-.343.172-.52.252q-.773.348-1.575.657A32.554,32.554,0,0,1,32,53c-.825,0-1.652-.029-2.458-.087A32.288,32.288,0,0,1,17.105,49.47c-.6-.306-1.16-.631-1.7-.963.241-.482.5-.968.791-1.472a.813.813,0,0,0,.046-.088A33.715,33.715,0,0,1,34.545,32.509l.226-.075c.391-.13.777-.259,1.176-.376a36.231,36.231,0,0,1,6.407-1.315,32.015,32.015,0,0,1,17.316,2.7c-.024.131-.046.262-.072.393C59.551,34.059,59.5,34.284,59.446,34.509ZM60,30c0,.466-.017.93-.051,1.389a34.134,34.134,0,0,0-17.818-2.633,38.132,38.132,0,0,0-6.2,1.23,37.379,37.379,0,0,0-11.56-7.5,35.134,35.134,0,0,1,10.09-6.762c.993-.453,2.031-.864,3.09-1.224a35.52,35.52,0,0,1,12.665-1.96C56.437,16.934,60,23.278,60,30ZM46.969,10.594a38.1,38.1,0,0,0-10.061,2.018c-.907.309-1.794.662-2.657,1.036A35.316,35.316,0,0,0,25.4,7.661,33.682,33.682,0,0,1,32,7,32.573,32.573,0,0,1,46.969,10.594ZM22.226,8.453a33.974,33.974,0,0,1,10.053,6.1A36.691,36.691,0,0,0,22.343,21.7l-.248-.088A37.754,37.754,0,0,0,7.019,19.627,26.875,26.875,0,0,1,22.226,8.453ZM4,30a19.265,19.265,0,0,1,1.866-8.244A35.353,35.353,0,0,1,21.432,23.5l.272.095c.169.059.339.118.533.2h0l.016.006a35.8,35.8,0,0,1,11.491,6.873A35.675,35.675,0,0,0,14.467,46.015c-.017.029-.032.059-.047.089-.255.44-.486.869-.7,1.294C7.53,43.024,4,36.742,4,30ZM48,59H16a1,1,0,0,1-1-1V50.6c.387.222.78.441,1.189.65A34.3,34.3,0,0,0,29.4,54.907c.854.062,1.73.093,2.6.093a34.556,34.556,0,0,0,12.6-2.316q.879-.337,1.723-.721c.928-.42,1.816-.889,2.678-1.385V58A1,1,0,0,1,48,59Z"></path></g></svg>