<svg xmlns="http://www.w3.org/2000/svg" viewBox="0 0 64 64" x="0px" y="0px"><g data-name="Delivery Man-Avatar-Occupation-Man-Postman"><circle cx="19" cy="21" r="2"></circle><circle cx="27" cy="21" r="2"></circle><path d="M26.307,27.75l-1.323-1.5a3.076,3.076,0,0,1-3.968,0l-1.323,1.5a5,5,0,0,0,6.614,0Z"></path><rect x="14" y="50" width="6" height="2"></rect><path d="M61,40H39.32a8.8,8.8,0,0,0-1.63-.7l-6.52-2.04A5.02,5.02,0,0,0,28,35.1V33.79A11.028,11.028,0,0,0,33.95,25H34a4,4,0,0,0,1.46-7.72c.03-.06.21-.38.21-.38A2.979,2.979,0,0,0,34,12.75V8.28a5.023,5.023,0,0,0-4.07-4.91L24.76,2.33a9.116,9.116,0,0,0-3.53,0L16.02,3.38A5.009,5.009,0,0,0,12,8.28v4.47a2.979,2.979,0,0,0-1.67,4.15s.18.32.21.38A4,4,0,0,0,12,25h.05a10.919,10.919,0,0,0,3.17,6.78A11.064,11.064,0,0,0,18,33.79V35.1a5.02,5.02,0,0,0-3.17,2.16L8.31,39.29A8.963,8.963,0,0,0,2,47.88V61a1,1,0,0,0,1,1H61a1,1,0,0,0,1-1V41A1,1,0,0,0,61,40ZM34,19a2.006,2.006,0,0,1,2,2,2.015,2.015,0,0,1-2,2ZM12,23a2.015,2.015,0,0,1-2-2,2.006,2.006,0,0,1,2-2ZM30,40v1.17a3.026,3.026,0,0,0-2,0v-4A3.014,3.014,0,0,1,30,40ZM14,8.28a3.03,3.03,0,0,1,2.47-2.95l5.15-1.04a7.478,7.478,0,0,1,2.75,0l5.21,1.05A3.016,3.016,0,0,1,32,8.28v4.09l-6.42-.98a16.537,16.537,0,0,0-5.16,0L14,12.37Zm-1.78,7.93-.1-.2a1.006,1.006,0,0,1,.01-.91.978.978,0,0,1,.73-.53l7.86-1.21a15.374,15.374,0,0,1,4.56,0l7.86,1.21A1,1,0,0,1,33.88,16l-.1.21a1.006,1.006,0,0,1-1.08.54l-7.37-1.34a12.589,12.589,0,0,0-4.66,0L13.3,16.75A1.006,1.006,0,0,1,12.22,16.21Zm4.42,14.15A8.942,8.942,0,0,1,14,24V18.65l7.03-1.28a11.1,11.1,0,0,1,3.94.01L32,18.65V24a8.994,8.994,0,0,1-15.36,6.36ZM26,34.57v3.02l-3,3-3-3V34.58a10.8,10.8,0,0,0,6-.01ZM16,40a3.014,3.014,0,0,1,2-2.83v4a3.026,3.026,0,0,0-2,0ZM10,60H4V56h6Zm28,0H36V56h2Zm0-6H36V49H34V60H12V49H10v5H4V47.88A6.964,6.964,0,0,1,8.91,41.2l5.13-1.6c-.01.13-.04.26-.04.4v4a1,1,0,0,0,2,0,1,1,0,0,1,2,0,1,1,0,0,0,2,0V40.41l2.29,2.3a1.014,1.014,0,0,0,1.42,0L26,40.41V44a1,1,0,0,0,2,0,1,1,0,0,1,2,0,1,1,0,0,0,2,0V40c0-.14-.03-.27-.04-.4l5.13,1.6a8.235,8.235,0,0,1,.91.37ZM48,42h4v8H48Zm-8,0h6v4H40ZM60,60H40V48h6v3a1,1,0,0,0,1,1h6a1,1,0,0,0,1-1V48h6Zm0-14H54V42h6Z"></path></g></svg>