<svg xmlns="http://www.w3.org/2000/svg" viewBox="0 0 64 64" x="0px" y="0px"><g data-name="Resume"><path d="M23.465,12.121l.828-.828a1,1,0,0,1,1.414,0l1.414,1.414a1,1,0,0,0,.707.293H28V12a4,4,0,0,0-8,0v1h1.343A2.98,2.98,0,0,0,23.465,12.121Z"></path><path d="M47,10A10,10,0,1,0,57,20,10.011,10.011,0,0,0,47,10Zm0,18a8,8,0,1,1,8-8A8.009,8.009,0,0,1,47,28Z"></path><circle cx="47" cy="20" r="6"></circle><path d="M26.376,23.038l-1.669,1.669a1,1,0,0,1-1.414,0l-1.669-1.669A4.991,4.991,0,0,0,17,28H31A4.991,4.991,0,0,0,26.376,23.038Z"></path><path d="M23,20.9v.687l1,1,1-1V20.9a5,5,0,0,1-2,0Z"></path><path d="M25,13.414l-.121.121A4.969,4.969,0,0,1,21.343,15H21v1a3,3,0,0,0,6,0V14.87a2.98,2.98,0,0,1-1.293-.749Z"></path><path d="M7,57a3,3,0,0,0,3,3H46a4.989,4.989,0,0,1-1-3V54H7Z"></path><rect x="45" y="36" width="4" height="2"></rect><path d="M47,32c-.338,0-.669-.023-1-.051V34h2V31.949C47.669,31.977,47.338,32,47,32Z"></path><rect x="45" y="40" width="4.001" height="8"></rect><path d="M53,30.377a11.91,11.91,0,0,1-3,1.228V34a1,1,0,0,1,1,1V48a2,2,0,0,1-2,2H45a2,2,0,0,1-2-2V35a1,1,0,0,1,1-1V31.605A11.99,11.99,0,1,1,53,9.623V5a1,1,0,0,0-1-1H14a1,1,0,0,0-1,1V52H46a1,1,0,0,1,1,1v4a3,3,0,0,0,6,0ZM15,28a7.011,7.011,0,0,1,6-6.929v-1.1A4.977,4.977,0,0,1,19,16V15a1,1,0,0,1-1-1V12a6,6,0,0,1,12,0v2a1,1,0,0,1-1,1v1a4.977,4.977,0,0,1-2,3.974v1.1A7.011,7.011,0,0,1,33,28v1a1,1,0,0,1-1,1H16a1,1,0,0,1-1-1Zm0,8h6v2H15Zm14,4v2H19V40Zm-6-2V36H37v2Zm-8,2h2v2H15Zm0,4H37v2H15Zm26,6H15V48H41Zm0-4H39V44h2Zm0-4H31V40H41Zm0-4H39V36h2Zm0-4H15V32H41Z"></path></g></svg>