<svg xmlns="http://www.w3.org/2000/svg" viewBox="0 0 64 64" x="0px" y="0px"><g data-name="Online Shopping-Shopping Cart-Ecommerce-Computer-Business"><path d="M12.56,46.33,14.6,44.8l-2.04-2.72a1.235,1.235,0,0,0-.57.42,1.291,1.291,0,0,0-.21,1.11Z"></path><path d="M18,38.93a7.9,7.9,0,0,1-4-1.69v3.43l2,2.66,2-2.66Z"></path><polygon points="53.58 20 51 20 51 22 53.41 22 53.58 20"></polygon><polygon points="53.91 16 51 16 51 18 53.75 18 53.91 16"></polygon><path d="M4,47.71V60H7V51H9v9h5l-1.8-2.4a.97.97,0,0,1-.16-.87l1.89-6.63-.92-1.84a2.338,2.338,0,0,1-.45.07,2.05,2.05,0,0,1-.64-.11,2,2,0,0,1-1.28-1.34l-.78-2.72a3.512,3.512,0,0,1-.12-.78L5.88,44.92A3,3,0,0,0,4,47.71Z"></path><polygon points="17.9 56.8 16.25 51 15.75 51 14.1 56.8 16 59.33 17.9 56.8"></polygon><polygon points="14.72 47.21 15.62 49 16.38 49 17.28 47.21 16 46.25 14.72 47.21"></polygon><path d="M30,60H46a1,1,0,0,0,1-1,.928.928,0,0,0-.29-.69A.949.949,0,0,0,46,58H30Z"></path><polygon points="30 48 30 56 42.89 56 42.09 48 30 48"></polygon><path d="M60,40H20v.17a3.207,3.207,0,0,1,1.09.59l5.77,2.3A5.027,5.027,0,0,1,29.69,46H57a3.009,3.009,0,0,0,3-3Zm-4,4H54V42h2Z"></path><path d="M9.59,28.59A1.983,1.983,0,0,0,9,30a2.006,2.006,0,0,0,2,2h1.29a1.008,1.008,0,0,1,.96.71,5.811,5.811,0,0,0,.6,1.37,5.682,5.682,0,0,0,.91,1.16A5.928,5.928,0,0,0,19,37a6,6,0,0,0,6-6V27a2.006,2.006,0,0,0-2-2H15a3.009,3.009,0,0,1-3,3H11A1.983,1.983,0,0,0,9.59,28.59Z"></path><path d="M19.44,42.08,17.4,44.8l2.04,1.53.78-2.72a1.291,1.291,0,0,0-.21-1.11A1.235,1.235,0,0,0,19.44,42.08Z"></path><path d="M28,60V47.71a3,3,0,0,0-1.88-2.79l-3.86-1.54a3.512,3.512,0,0,1-.12.78l-.78,2.72a2,2,0,0,1-1.28,1.34,2.05,2.05,0,0,1-.64.11,2.338,2.338,0,0,1-.45-.07l-.92,1.84,1.89,6.63a.97.97,0,0,1-.16.87L18,60h4.99C23,60,23,51,23,51h2v9Z"></path><path d="M13,25a2.006,2.006,0,0,1,2-2h7a3.009,3.009,0,0,0,3-3V19H16a5,5,0,0,0-5,5v2h1A1,1,0,0,0,13,25Z"></path><rect x="43" y="24" width="2" height="2"></rect><path d="M32,12H30a1,1,0,0,0,0,2h2a1,1,0,0,0,0-2Z"></path><circle cx="42" cy="33" r="1"></circle><rect x="39" y="24" width="2" height="2"></rect><rect x="39" y="20" width="2" height="2"></rect><polygon points="53.25 24 51 24 51 26 53.08 26 53.25 24"></polygon><circle cx="50" cy="33" r="1"></circle><path d="M60,11a3.009,3.009,0,0,0-3-3H15a3.009,3.009,0,0,0-3,3v7.26A6.987,6.987,0,0,1,16,17H26a1,1,0,0,1,1,1v2a5,5,0,0,1-1.68,3.74A4.028,4.028,0,0,1,27,27v4a8,8,0,0,1-4.14,7H60ZM55,33a1,1,0,0,0-1-1H52.82a3,3,0,1,1-5.64,0H44.82a3,3,0,1,1-5.64,0H38a1,1,0,0,1-1-1V15.41L35.59,14h-.77A3.01,3.01,0,0,1,32,16H30a3,3,0,0,1,0-6h2a3.01,3.01,0,0,1,2.82,2H36a1.033,1.033,0,0,1,.71.29L38.41,14H55a1.029,1.029,0,0,1,.74.32,1.013,1.013,0,0,1,.26.76l-1,12A1.01,1.01,0,0,1,54,28H39v2H54a3.009,3.009,0,0,1,3,3Z"></path><rect x="47" y="20" width="2" height="2"></rect><rect x="47" y="16" width="2" height="2"></rect><rect x="47" y="24" width="2" height="2"></rect><rect x="39" y="16" width="2" height="2"></rect><rect x="43" y="20" width="2" height="2"></rect><rect x="43" y="16" width="2" height="2"></rect></g></svg>