<svg xmlns="http://www.w3.org/2000/svg" viewBox="0 0 512 512" x="0px" y="0px"><g data-name="Wedding Certificate"><path d="M416,16H128A40.058,40.058,0,0,0,88.683,48.683,40.058,40.058,0,0,0,56,88V456a40.045,40.045,0,0,0,40,40H384a40.058,40.058,0,0,0,39.317-32.683A40.058,40.058,0,0,0,456,424V56A40.045,40.045,0,0,0,416,16Zm-8,440a24.027,24.027,0,0,1-24,24H96a24.027,24.027,0,0,1-24-24V88A24.027,24.027,0,0,1,96,64H384a24.027,24.027,0,0,1,24,24Zm32-32a24.039,24.039,0,0,1-16,22.624V88a40.045,40.045,0,0,0-40-40H105.376A24.039,24.039,0,0,1,128,32H416a24.027,24.027,0,0,1,24,24Z"></path><path d="M384,120a32.036,32.036,0,0,1-32-32,8,8,0,0,0-8-8H136a8,8,0,0,0-8,8,32.036,32.036,0,0,1-32,32,8,8,0,0,0-8,8V416a8,8,0,0,0,8,8,32.036,32.036,0,0,1,32,32,8,8,0,0,0,8,8H344a8,8,0,0,0,8-8,32.036,32.036,0,0,1,32-32,8,8,0,0,0,8-8V128A8,8,0,0,0,384,120Zm-8,288.667A48.125,48.125,0,0,0,336.667,448H143.333A48.125,48.125,0,0,0,104,408.667V135.333A48.125,48.125,0,0,0,143.333,96H336.667A48.125,48.125,0,0,0,376,135.333Z"></path><path d="M234.343,197.657a8,8,0,0,0,11.314,0L279.6,163.716a24,24,0,1,0-33.943-33.941L240,135.432l-5.657-5.658a24.03,24.03,0,0,0-33.941,0h0a24.027,24.027,0,0,0,0,33.94Zm-22.628-56.568a8.011,8.011,0,0,1,11.314,0L234.343,152.4a8,8,0,0,0,11.314,0l11.313-11.313A8,8,0,0,1,268.285,152.4L240,180.686,211.716,152.4a8.01,8.01,0,0,1,0-11.314Z"></path><rect x="136" y="232" width="48" height="16"></rect><rect x="200" y="232" width="80" height="16"></rect><rect x="296" y="232" width="48" height="16"></rect><rect x="136" y="264" width="96" height="16"></rect><rect x="248" y="264" width="96" height="16"></rect><rect x="136" y="296" width="208" height="16"></rect><rect x="136" y="328" width="208" height="16"></rect><rect x="136" y="376" width="80" height="16"></rect><rect x="264" y="376" width="80" height="16"></rect></g></svg>