<svg xmlns="http://www.w3.org/2000/svg" viewBox="0 0 64 64" x="0px" y="0px"><g><polygon points="25.88 60 24.1 44 23.9 44 22.12 60 25.88 60"></polygon><path d="M35,20a2.015,2.015,0,0,0,2-2,2.006,2.006,0,0,0-2-2Z"></path><path d="M27,31.57a10.68,10.68,0,0,1-6,0v2.81l3,1.5,3-1.5Z"></path><path d="M60,35a1,1,0,0,0-1-1H37a1,1,0,0,0-1,1V46H60ZM44.707,42.293l-1.414,1.414-3-3a1,1,0,0,1,0-1.414l3-3,1.414,1.414L42.414,40Zm3.263,1.95-1.94-.486,2-8,1.94.486Zm7.737-3.536-3,3-1.414-1.414L53.586,40l-2.293-2.293,1.414-1.414,3,3A1,1,0,0,1,55.707,40.707Z"></path><path d="M35,60V51.22A2.986,2.986,0,0,1,34,49V37.93l-2-.63V42a1.008,1.008,0,0,1-.54.89A1.072,1.072,0,0,1,31,43a.959.959,0,0,1-.58-.19l-3.1-2.21-1.29,2.58L27.9,60Z"></path><polygon points="19.91 36.08 18 36.67 18 40.06 22.07 37.15 19.91 36.08"></polygon><polygon points="30 36.67 28.09 36.08 25.93 37.15 30 40.06 30 36.67"></polygon><polygon points="25.67 39.42 24 38.23 22.33 39.42 23.62 42 24.38 42 25.67 39.42"></polygon><path d="M28.89,10H32a3,3,0,0,1,1,.18V7H30.71A7.065,7.065,0,0,1,28.89,10Z"></path><path d="M43,56h1V52H37v8h3.18A2.98,2.98,0,0,1,43,56Z"></path><path d="M54,59a1,1,0,0,0-1-1H43a1,1,0,0,0,0,2H53A1,1,0,0,0,54,59Z"></path><path d="M15,10.18A3,3,0,0,1,16,10h8a5,5,0,0,0,5-5V4H20a5,5,0,0,0-5,5Z"></path><path d="M60,49V48H36v1a1,1,0,0,0,1,1H59A1,1,0,0,0,60,49Z"></path><rect x="46" y="52" width="4" height="4"></rect><path d="M15,21a9,9,0,0,0,18,0V13a1,1,0,0,0-1-1H16a1,1,0,0,0-1,1Zm13-5a2,2,0,1,1-2,2A2,2,0,0,1,28,16Zm-2.017,7.25,1.325,1.5a5,5,0,0,1-6.616,0l1.325-1.5A3.074,3.074,0,0,0,25.983,23.25ZM20,16a2,2,0,1,1-2,2A2,2,0,0,1,20,16Z"></path><path d="M11,18a2.015,2.015,0,0,0,2,2V16A2.006,2.006,0,0,0,11,18Z"></path><path d="M5,60h6V45h2V60h7.1l1.87-16.82L20.68,40.6l-3.1,2.21A.959.959,0,0,1,17,43a1.072,1.072,0,0,1-.46-.11A1.008,1.008,0,0,1,16,42V37.3L9.91,39.2A6.964,6.964,0,0,0,5,45.88Z"></path></g></svg>