<svg xmlns="http://www.w3.org/2000/svg" viewBox="0 0 64 64" x="0px" y="0px"><g><path d="M48,12H42.969A4.952,4.952,0,0,0,40,11H38V7a5.006,5.006,0,0,0-5-5H31a5.006,5.006,0,0,0-5,5v4H24a4.952,4.952,0,0,0-2.969,1H16a5.006,5.006,0,0,0-5,5V57a5.006,5.006,0,0,0,5,5H48a5.006,5.006,0,0,0,5-5V17A5.006,5.006,0,0,0,48,12ZM21,17H43v1H21Zm-1,3H44a1,1,0,0,0,1-1V18h2V56H17V18h2v1A1,1,0,0,0,20,20Zm4-7h3a1,1,0,0,0,1-1V7a3,3,0,0,1,3-3h2a3,3,0,0,1,3,3v5a1,1,0,0,0,1,1h3a3,3,0,0,1,2.816,2H21.184A3,3,0,0,1,24,13ZM51,57a3,3,0,0,1-3,3H16a3,3,0,0,1-3-3V17a3,3,0,0,1,3-3h3.424A4.95,4.95,0,0,0,19,16H17a2,2,0,0,0-2,2V56a2,2,0,0,0,2,2H47a2,2,0,0,0,2-2V18a2,2,0,0,0-2-2H45a4.95,4.95,0,0,0-.424-2H48a3,3,0,0,1,3,3Z"></path><path d="M32,12a3,3,0,1,0-3-3A3,3,0,0,0,32,12Zm0-4a1,1,0,1,1-1,1A1,1,0,0,1,32,8Z"></path><path d="M21,52H43a1,1,0,0,0,1-1V31a1,1,0,0,0-1-1H21a1,1,0,0,0-1,1V51A1,1,0,0,0,21,52Zm1-14h5V50H22Zm15,0V50H34V38ZM32,50H29V38h3Zm7,0V38h3V50Zm3-14H29V32H42ZM27,32v4H22V32Z"></path><rect x="26" y="22" width="4" height="2"></rect><rect x="32" y="22" width="6" height="2"></rect><rect x="26" y="26" width="12" height="2"></rect></g></svg>