<svg xmlns="http://www.w3.org/2000/svg" viewBox="0 0 64 64" x="0px" y="0px"><g data-name="Tow Truck"><polygon points="19.63 27 17 27 17 31 24.297 31 19.63 27"></polygon><circle cx="8" cy="38" r="1"></circle><circle cx="26" cy="38" r="1"></circle><path d="M4,37H5.184a2.982,2.982,0,0,1,5.632,0H23.184a2.982,2.982,0,0,1,5.632,0H30V34.413L28.594,33H4Z"></path><path d="M15,27H11.236a.994.994,0,0,0-.894.553L8.618,31H15Z"></path><rect x="56" y="40" width="4" height="2"></rect><path d="M44,25v9H59.267l-4.58-8.475a1,1,0,0,0-.88-.525Z"></path><path d="M59,50a1,1,0,0,0,1-1V48H57V46h3V44H56a2,2,0,0,1-2-2V40a2,2,0,0,1,2-2h4V36.108c0-.037-.013-.072-.015-.108H43a1,1,0,0,1-1-1V25H40V50h3.09a5.993,5.993,0,0,1,11.82,0ZM46,40H42V38h4Z"></path><path d="M49,47a4,4,0,1,0,4,4A4,4,0,0,0,49,47Zm1,5H48V50h2Z"></path><path d="M38,50V43H4v7H6.09a5.993,5.993,0,0,1,11.82,0Z"></path><polygon points="38 24.218 8.544 10.489 7.699 12.306 38 26.431 38 24.218"></polygon><polygon points="38 28.637 36 27.705 36 41 38 41 38 28.637"></polygon><path d="M12,47a4,4,0,1,0,4,4A4,4,0,0,0,12,47Zm1,5H11V50h2Z"></path><path d="M7,24a3,3,0,0,1-3-3H6a1,1,0,1,0,1-1,1,1,0,0,1-1-1V14.083H8v4.088A3,3,0,0,1,7,24Z"></path></g></svg>