<svg xmlns="http://www.w3.org/2000/svg" viewBox="0 0 64 64" x="0px" y="0px"><title>Startup</title><g><path d="M31,39v2H30a2,2,0,0,0-2,2v2a2,2,0,0,0,2,2h4v2H30V48H28v1a2,2,0,0,0,2,2h1v2h2V51h1a2,2,0,0,0,2-2V47a2,2,0,0,0-2-2H30V43h4v1h2V43a2,2,0,0,0-2-2H33V39Z"></path><rect x="37" y="45" width="2" height="2"></rect><rect x="25" y="45" width="2" height="2"></rect><path d="M44,8H36a4.947,4.947,0,0,0-3.091,1.1A5,5,0,0,0,28,5H20a1,1,0,0,0-1,1v4a5.006,5.006,0,0,0,5,5h7v3.026A4.948,4.948,0,0,0,28,17H20a1,1,0,0,0-1,1v4a5.006,5.006,0,0,0,5,5h7v6.051a13,13,0,1,0,2,0V30h7a5.006,5.006,0,0,0,5-5V21a1,1,0,0,0-1-1H36a4.948,4.948,0,0,0-3,1.026V18h7a5.006,5.006,0,0,0,5-5V9A1,1,0,0,0,44,8ZM24,13a3,3,0,0,1-3-3V7h7a3,3,0,0,1,3,3v3Zm0,12a3,3,0,0,1-3-3V19h7a3,3,0,0,1,3,3v3ZM43,46A11,11,0,1,1,32,35,11.013,11.013,0,0,1,43,46ZM36,22h7v3a3,3,0,0,1-3,3H33V25A3,3,0,0,1,36,22Zm7-9a3,3,0,0,1-3,3H33V13a3,3,0,0,1,3-3h7Z"></path><rect x="10" y="24" width="2" height="2"></rect><rect x="12" y="26" width="2" height="2"></rect><rect x="10" y="28" width="2" height="2"></rect><rect x="8" y="26" width="2" height="2"></rect><rect x="53" y="21" width="2" height="2"></rect><rect x="55" y="23" width="2" height="2"></rect><rect x="53" y="25" width="2" height="2"></rect><rect x="51" y="23" width="2" height="2"></rect><rect x="12" y="6" width="2" height="2"></rect><rect x="14" y="8" width="2" height="2"></rect><rect x="12" y="10" width="2" height="2"></rect><rect x="10" y="8" width="2" height="2"></rect></g></svg>