<svg xmlns="http://www.w3.org/2000/svg" viewBox="0 0 64 64" x="0px" y="0px"><g><rect x="20" y="22" width="24" height="2"></rect><rect x="13" y="4" width="38" height="2"></rect><path d="M22,46H42V26H22Zm11-4H25V40h8Zm3-12h4v2H36Zm0,3h4v2H36ZM24,29a1,1,0,0,1,1-1h8a1,1,0,0,1,1,1v8a1,1,0,0,1-1,1H25a1,1,0,0,1-1-1Z"></path><rect x="26" y="30" width="6" height="6"></rect><path d="M48,8H16V50H48ZM29,16h4V15H30a1,1,0,0,1-1-1V11a1,1,0,0,1,1-1h1V9h2v1h2v2H31v1h3a1,1,0,0,1,1,1v3a1,1,0,0,1-1,1H33v1H31V18H29Zm17,9a1,1,0,0,1-1,1H44V47a1,1,0,0,1-1,1H21a1,1,0,0,1-1-1V26H19a1,1,0,0,1-1-1V21a1,1,0,0,1,1-1H45a1,1,0,0,1,1,1Z"></path><rect x="12" y="58" width="40" height="2"></rect><rect x="16" y="52" width="32" height="4"></rect></g></svg>