<svg xmlns="http://www.w3.org/2000/svg" viewBox="0 0 64 64" x="0px" y="0px"><g data-name="Air Filter-Internet of Things-Air Pollution-Household-Smartphone"><path d="M57,55V5a1,1,0,0,0-1-1H22a1,1,0,0,0-1,1V26h3a4.952,4.952,0,0,1,3.97,2H55v2H28.9a5.468,5.468,0,0,1,.1,1v1H55v2H29v2H55v2H29v2H55v2H29v2H55v2H29v2H55v2H29v2H55v2H29v2H56A1,1,0,0,0,57,55ZM39,25a9,9,0,1,1,9-9A9.01,9.01,0,0,1,39,25Z"></path><path d="M27,57V54H7v3a3.009,3.009,0,0,0,3,3H24A3.009,3.009,0,0,0,27,57Zm-9,1H16V56h2Z"></path><path d="M39,9a7,7,0,1,0,7,7A7.009,7.009,0,0,0,39,9Zm-1,5h2v2H38Zm-4,2V14h2v2Zm8,4H36V18h6Zm2-4H42V14h2Z"></path><path d="M27.97,60H55V58H28.9A4.84,4.84,0,0,1,27.97,60Z"></path><path d="M27,31a3.009,3.009,0,0,0-3-3H10a3.009,3.009,0,0,0-3,3v1H27Z"></path><path d="M27,34H7V52H27ZM17,48l-1.414-1.414a2,2,0,0,1,2.828,0Zm2.121-3.121a3.072,3.072,0,0,0-4.242,0l-1.414-1.414a5,5,0,0,1,7.07,0ZM21.95,42.05a7.009,7.009,0,0,0-9.9,0l-1.414-1.414a9.012,9.012,0,0,1,12.728,0Z"></path></g></svg>