<svg xmlns="http://www.w3.org/2000/svg" viewBox="0 0 64 64" x="0px" y="0px"><g><rect x="31" y="5" width="19" height="2"></rect><rect x="31" y="9" width="19" height="2"></rect><rect x="52" y="5" width="2" height="6"></rect><polygon points="25 8.68 25 7.32 23.46 8 25 8.68"></polygon><path d="M60,10V6a1,1,0,0,0-1-1H56v6h3A1,1,0,0,0,60,10Z"></path><polygon points="29 10.46 29 5.54 27 6.43 27 9.57 29 10.46"></polygon><path d="M56,27H40v6H56ZM45,31H43V29h2Zm4,0H47V29h2Zm4,0H51V29h2Z"></path><rect x="52" y="39" width="4" height="4"></rect><rect x="52" y="45" width="4.001" height="4"></rect><path d="M4,39.11a6.979,6.979,0,0,1,10,0V14A5,5,0,0,0,4,14Z"></path><rect x="52" y="51" width="4.001" height="4"></rect><path d="M9,49H34V45H15a1,1,0,0,1-1-1,5,5,0,1,0-5,5Z"></path><path d="M34,24a3.009,3.009,0,0,1,3-3H59a3,3,0,0,1,1,.18V15H16V43H34Zm-9,2H23a3,3,0,0,1,0-6V19h2v1a3,3,0,0,1,3,3H26a1,1,0,0,0-1-1H23a1,1,0,0,0,0,2h2a3,3,0,0,1,0,6v1H23V30a3,3,0,0,1-3-3h2a1,1,0,0,0,1,1h2a1,1,0,0,0,0-2Zm5,13H20V37H30Zm0-4H20V33H30Z"></path><rect x="46" y="45" width="4" height="4"></rect><rect x="46" y="39" width="4" height="4"></rect><path d="M37,59H59a1,1,0,0,0,1-1V24a1,1,0,0,0-1-1H37a1,1,0,0,0-1,1V58A1,1,0,0,0,37,59Zm1-32a2,2,0,0,1,2-2H56a2,2,0,0,1,2,2v6a2,2,0,0,1-2,2H40a2,2,0,0,1-2-2Zm0,12a2,2,0,0,1,2-2H56a2,2,0,0,1,2,2V55a2,2,0,0,1-2,2H40a2,2,0,0,1-2-2Z"></path><rect x="40" y="45" width="4" height="4"></rect><rect x="46" y="51" width="4" height="4"></rect><rect x="40" y="51" width="4" height="4"></rect><rect x="40" y="39" width="4" height="4"></rect></g></svg>