<svg xmlns="http://www.w3.org/2000/svg" viewBox="0 0 64 64" x="0px" y="0px"><g><path d="M52.28,34.654l2.66-7.312A1,1,0,0,0,54,26a4.048,4.048,0,0,0-2.33.984A2.739,2.739,0,0,1,50.5,27.6c-.1,0-.153-.021-.46-.415a2.347,2.347,0,0,0-4.077,0c-.31.4-.361.417-.463.417a2.728,2.728,0,0,1-1.17-.616A4.048,4.048,0,0,0,42,26a1,1,0,0,0-.94,1.342l2.659,7.311a13.089,13.089,0,0,0-4.551,2.517C37.4,30.825,33,25.214,27.712,22.615l4.225-11.263A1,1,0,0,0,31,10c-1.556,0-2.577,1.08-3.477,2.033-.713.755-1.329,1.407-2.023,1.407-.529,0-.837-.386-1.413-1.267C23.487,11.256,22.666,10,21,10s-2.487,1.256-3.087,2.173c-.576.881-.884,1.267-1.413,1.267-.694,0-1.31-.652-2.023-1.407C13.577,11.08,12.556,10,11,10a1,1,0,0,0-.937,1.352l4.228,11.27C7.228,26.08,2,34.644,2,43A18.987,18.987,0,0,0,35.417,55.354a10.908,10.908,0,0,0,1.537,2.3,11.234,11.234,0,0,0,1.419,1.365A15.154,15.154,0,0,0,48,62c8.636,0,14-4.981,14-13C62,42.124,58.136,36.5,52.28,34.654ZM45.5,29.6a2.519,2.519,0,0,0,2.038-1.183c.311-.4.362-.417.464-.417s.153.021.46.414A2.512,2.512,0,0,0,50.5,29.6a3.181,3.181,0,0,0,1.693-.553l-1.877,5.16a14.788,14.788,0,0,0-4.629,0L43.81,29.05A3.17,3.17,0,0,0,45.5,29.6ZM13.023,13.407c.9.953,1.921,2.033,3.477,2.033,1.666,0,2.487-1.255,3.087-2.172C20.163,12.387,20.471,12,21,12s.837.387,1.413,1.268c.6.917,1.421,2.172,3.087,2.172,1.556,0,2.577-1.08,3.477-2.033.029-.031.058-.061.086-.092l-3.195,8.519c-.094-.033-.189-.055-.283-.086-.142-.046-.285-.088-.427-.13q-.5-.147-1.006-.259c-.114-.025-.227-.051-.342-.073q-.615-.122-1.235-.19c-.043,0-.085-.012-.127-.016C21.967,21.032,21.484,21,21,21s-.966.032-1.447.08l-.135.017q-.615.067-1.225.188c-.117.023-.234.05-.35.075q-.5.111-1,.257c-.144.043-.288.085-.432.131-.094.031-.189.053-.282.086l-3.2-8.519C12.965,13.346,12.994,13.376,13.023,13.407ZM21,60A17.019,17.019,0,0,1,4,43c0-7.811,5.244-16.134,11.94-18.949a12.759,12.759,0,0,1,10.12,0h0c5.576,2.345,10.225,8.47,11.566,15.236A19.763,19.763,0,0,1,38,43a17.222,17.222,0,0,1-.2,2.626,16.859,16.859,0,0,1-2.934,7.205A17.041,17.041,0,0,1,21,60Zm27,0a13.2,13.2,0,0,1-8.371-2.537,9.184,9.184,0,0,1-1.169-1.124,9.065,9.065,0,0,1-1.667-2.78c.1-.145.181-.3.274-.443.115-.183.232-.365.341-.552.133-.228.257-.46.381-.692.1-.19.2-.379.3-.573.115-.237.22-.478.326-.719.085-.2.173-.389.252-.587.1-.247.184-.5.271-.749.069-.2.142-.393.2-.593.081-.26.148-.525.218-.789.052-.2.109-.389.155-.586.064-.279.112-.561.164-.843.034-.187.076-.372.1-.56.048-.316.078-.635.11-.953.016-.159.041-.315.053-.474Q40,43.728,40,43c0-.616-.036-1.25-.1-1.9-.02-.209-.057-.425-.083-.637-.043-.35-.076-.7-.137-1.054a11.143,11.143,0,0,1,5.575-3.11,12.56,12.56,0,0,1,5.491,0C56.282,37.562,60,42.663,60,49,60,55.888,55.514,60,48,60Z"></path></g></svg>