<svg xmlns="http://www.w3.org/2000/svg" viewBox="0 0 64 64" x="0px" y="0px"><g data-name="Shopping Bag"><path d="M33,13.208V20h2V13a8.985,8.985,0,0,0-.651-3.348A5.336,5.336,0,0,0,33,13.208Z"></path><path d="M15,26a5.009,5.009,0,0,0,4.9-4H10.1A5.009,5.009,0,0,0,15,26Z"></path><path d="M17,20h2V13a7.008,7.008,0,0,1,7-7,6.938,6.938,0,0,1,3.01.682,11.1,11.1,0,0,1,1.327-1.558A8.994,8.994,0,0,0,17,13Z"></path><path d="M10,60H20V25.89a6.979,6.979,0,0,1-10,0Z"></path><path d="M46,26a1,1,0,0,0,1-1V13a9,9,0,0,0-18,0V25a1,1,0,0,0,2,0V13.208a7.123,7.123,0,0,1,6.083-7.149,7.2,7.2,0,0,1,.9-.058A7.005,7.005,0,0,1,45,13V25A1,1,0,0,0,46,26Z"></path><rect x="32" y="43" width="12" height="2"></rect><path d="M54,22H49v3a3,3,0,0,1-6,0V22H33v3a3,3,0,0,1-6,0V22H22V60H54ZM48,42a1,1,0,0,1-1,1H46v2h1a1,1,0,0,1,1,1v3a2,2,0,0,1-2,2H30a2,2,0,0,1-2-2V46a1,1,0,0,1,1-1h1V43H29a1,1,0,0,1-1-1V40a5.006,5.006,0,0,1,5-5H43a5.006,5.006,0,0,1,5,5Z"></path><rect x="30" y="47" width="16" height="2"></rect><path d="M43,37v2H41V37H39v2H37V37H35v2H33V37a3,3,0,0,0-3,3v1H46V40A3,3,0,0,0,43,37Z"></path></g></svg>