<svg xmlns="http://www.w3.org/2000/svg" viewBox="0 0 64 64" x="0px" y="0px"><g data-name="Water-Bottle"><path d="M48,23.343V21.472A4.973,4.973,0,0,0,45.236,17l-6.683-3.342A.994.994,0,0,1,38,12.764V11.722A1.993,1.993,0,0,0,39,10V4a2,2,0,0,0-2-2H27a2,2,0,0,0-2,2v6a1.993,1.993,0,0,0,1,1.722v1.042a.994.994,0,0,1-.553.894L18.764,17A4.972,4.972,0,0,0,16,21.472v1.871a4.966,4.966,0,0,0,1.464,3.535l.323.323a4.943,4.943,0,0,0,.244,7.8,4.954,4.954,0,0,0,0,8,4.943,4.943,0,0,0-.244,7.8l-.323.323A4.966,4.966,0,0,0,16,54.657V57a5.006,5.006,0,0,0,5,5H43a5.006,5.006,0,0,0,5-5V54.657a4.968,4.968,0,0,0-1.465-3.535l-.322-.323a4.943,4.943,0,0,0-.244-7.8,4.954,4.954,0,0,0,0-8,4.943,4.943,0,0,0,.244-7.8l.322-.323A4.968,4.968,0,0,0,48,23.343ZM27,4h2V7h2V4h2V7h2V4h2v6H27ZM45.121,52.536A3.017,3.017,0,0,1,46,54.657V57a3,3,0,0,1-3,3H21a3,3,0,0,1-3-3V54.657a3.02,3.02,0,0,1,.878-2.121l.751-.751A4.937,4.937,0,0,0,21,52H43a4.937,4.937,0,0,0,1.371-.215ZM46,47a3,3,0,0,1-3,3H21a3,3,0,0,1,0-6H43A3,3,0,0,1,46,47Zm0-8a3,3,0,0,1-3,3H21a3,3,0,0,1,0-6H43A3,3,0,0,1,46,39Zm-3-5H21a3,3,0,0,1,0-6H43a3,3,0,0,1,0,6Zm0-8H21a4.937,4.937,0,0,0-1.371.215l-.751-.751A3.02,3.02,0,0,1,18,23.343V21.472a2.982,2.982,0,0,1,1.658-2.683l6.684-3.342A2.983,2.983,0,0,0,28,12.764V12h8v.764a2.984,2.984,0,0,0,1.658,2.683l6.684,3.342A2.985,2.985,0,0,1,46,21.472v1.871a3.017,3.017,0,0,1-.879,2.121l-.75.751A4.937,4.937,0,0,0,43,26Z"></path></g></svg>