<svg xmlns="http://www.w3.org/2000/svg" viewBox="0 0 64 64" x="0px" y="0px"><g><path d="M4,57V22H46v4h2V7a5.006,5.006,0,0,0-5-5H7A5.006,5.006,0,0,0,2,7V57a5.006,5.006,0,0,0,5,5H34V60H7A3,3,0,0,1,4,57ZM7,4H43a3,3,0,0,1,3,3V20H4V7A3,3,0,0,1,7,4Z"></path><path d="M8,18H42a2,2,0,0,0,2-2V8a2,2,0,0,0-2-2H8A2,2,0,0,0,6,8v8A2,2,0,0,0,8,18ZM8,8H42v8H8Z"></path><rect x="24" y="11" width="2" height="2"></rect><rect x="28" y="11" width="2" height="2"></rect><rect x="20" y="11" width="2" height="2"></rect><polygon points="12 37 14 37 14 35 16 35 16 33 14 33 14 31 12 31 12 33 10 33 10 35 12 35 12 37"></polygon><polygon points="26.414 31.172 25 32.586 23.586 31.172 22.172 32.586 23.586 34 22.172 35.414 23.586 36.828 25 35.414 26.414 36.828 27.828 35.414 26.414 34 27.828 32.586 26.414 31.172"></polygon><path d="M32,32V28h6V26H8a2,2,0,0,0-2,2V54a2,2,0,0,0,2,2H29V54H20V42h7V40H20V28H30v4ZM18,54H8V42H18Zm0-14H8V28H18Z"></path><rect x="10" y="47" width="6" height="2"></rect><path d="M45,28A17,17,0,1,0,62,45,17.019,17.019,0,0,0,45,28Zm0,32A15,15,0,1,1,60,45,15.017,15.017,0,0,1,45,60Z"></path><path d="M46,42.184V36H44v6.184A3,3,0,0,0,42.184,44H38v2h4.184A2.993,2.993,0,1,0,46,42.184ZM45,46a1,1,0,1,1,1-1A1,1,0,0,1,45,46Z"></path><rect x="32" y="44" width="2" height="2"></rect><rect x="44" y="56" width="2" height="2"></rect><rect x="56" y="44" width="2" height="2"></rect><rect x="44" y="32" width="2" height="2"></rect></g></svg>