<svg xmlns="http://www.w3.org/2000/svg" viewBox="0 0 64 64" x="0px" y="0px"><g data-name="Money Bag-Computer-Report"><path d="M18,44h2a1,1,0,0,1,1,1h2a3,3,0,0,0-3-3V41H18v1a3,3,0,0,0,0,6h2a1,1,0,0,1,0,2H18a1,1,0,0,1-1-1H15a3,3,0,0,0,3,3v1h2V52a3,3,0,0,0,0-6H18a1,1,0,0,1,0-2Z"></path><path d="M57,2H15a5.006,5.006,0,0,0-5,5V35.341C6.942,37.156,5,40.673,5,45V56a3,3,0,0,0,0,6H34a3,3,0,0,0,0-6h0V54H45a3.017,3.017,0,0,0,3-3,3,3,0,0,0-3-3H42.883l-.75-6H57a5.006,5.006,0,0,0,5-5V7A5.006,5.006,0,0,0,57,2ZM12,24V7a3,3,0,0,1,3-3H57a3,3,0,0,1,3,3V32H23.816a2.994,2.994,0,0,0-1.328-1.589l3.38-5.915A1,1,0,0,0,25,23H13a1,1,0,0,0-.865.5A.987.987,0,0,0,12,24a1,1,0,0,0,.132.5l3.38,5.915A2.941,2.941,0,0,0,14.2,34.04a9.941,9.941,0,0,0-2.2.409Zm4,9a1,1,0,0,1,1-1h4a1,1,0,0,1,0,2H17A1,1,0,0,1,16,33Zm4.42-3H17.58l-2.856-5h8.552ZM35,59a1,1,0,0,1-1,1H5a1,1,0,0,1,0-2,2,2,0,0,0,2-2V45c0-5.3,3.29-9,8-9h8a9.01,9.01,0,0,1,9,9V56a2,2,0,0,0,2,2A1,1,0,0,1,35,59Zm11-8a.978.978,0,0,1-.306.712A.957.957,0,0,1,45,52H34V50H45A1,1,0,0,1,46,51Zm-5.133-3H34V45a10.966,10.966,0,0,0-.426-3h6.543ZM57,40H32.786A11,11,0,0,0,23.8,34.041c0-.014.008-.028.013-.041H60v3A3,3,0,0,1,57,40Z"></path><rect x="54" y="36" width="2" height="2"></rect><path d="M37,28A10,10,0,1,0,27,18,10.011,10.011,0,0,0,37,28Zm0-2a7.945,7.945,0,0,1-4.9-1.689L37.414,19h7.517A8.008,8.008,0,0,1,37,26Zm7.931-9H38V10.069A8.008,8.008,0,0,1,44.931,17ZM36,10.069v7.517L30.688,22.9A7.98,7.98,0,0,1,36,10.069Z"></path><rect x="16" y="8" width="4" height="2"></rect><rect x="16" y="12" width="4" height="2"></rect><rect x="54" y="8" width="4" height="2"></rect><rect x="54" y="12" width="4" height="2"></rect><rect x="54" y="24" width="4" height="2"></rect><rect x="54" y="28" width="4" height="2"></rect><path d="M26.293,11.707l1.414-1.414-2-2A1,1,0,0,0,25,8H22v2h2.586Z"></path><path d="M49.414,10H52V8H49a1,1,0,0,0-.707.293l-2,2,1.414,1.414Z"></path><rect x="48" y="24" width="4" height="2"></rect></g></svg>