<svg xmlns="http://www.w3.org/2000/svg" viewBox="0 0 64 64" x="0px" y="0px"><g><path d="M56,37h2a9.011,9.011,0,0,0-4.64-7.875l-.97,1.749A7.012,7.012,0,0,1,56,37Z"></path><path d="M60,37a11.08,11.08,0,0,1-.152,1.834l1.972.332A13.017,13.017,0,0,0,53.333,24.74l-.666,1.885A11.021,11.021,0,0,1,60,37Z"></path><path d="M45.61,30.87A7.019,7.019,0,0,0,42,37h-.69a4.669,4.669,0,0,0,.07-1.67l-.34-2.52a9,9,0,0,1,3.6-3.69Z"></path><path d="M45.33,26.63a10.815,10.815,0,0,0-4.69,3.24l-.34-2.53a13.015,13.015,0,0,1,4.37-2.6Z"></path><path d="M25,27a2.006,2.006,0,0,1-2-2H21a4,4,0,0,0,8,0H27A2.006,2.006,0,0,1,25,27Z" style="" fill="none"></path><rect x="29" y="19" width="2" height="2" style="" fill="none"></rect><rect x="19" y="19" width="2" height="2" style="" fill="none"></rect><path d="M15,49a.965.965,0,0,0,.287.694A.978.978,0,0,0,16,50a1,1,0,0,0,1-1V41.082a8.917,8.917,0,0,1-.638-1.582L15,39.926Z"></path><path d="M21.9,43.273l1.3-1.622a5,5,0,0,1-3.006-3.35l-1.926.6A6.941,6.941,0,0,0,21.9,43.273Z"></path><path d="M31,43.694a8.9,8.9,0,0,1-2.865,1.735,1.012,1.012,0,0,1-.345.061,1,1,0,0,1-.781-.375L25,42.6l-2.009,2.513a1,1,0,0,1-1.126.314A8.9,8.9,0,0,1,19,43.694V48H31Z"></path><path d="M6,49.35V50h6a1.993,1.993,0,0,1,1-1.722V40.551l-.682.214A8.947,8.947,0,0,0,6,49.35Z"></path><path d="M28,37V33.574a10.776,10.776,0,0,1-6,0V37a3,3,0,0,0,6,0Z"></path><path d="M31.184,50H18.816A3,3,0,0,1,16,52a2.935,2.935,0,0,1-2-.786V60H36V51.216A2.922,2.922,0,0,1,34,52,3,3,0,0,1,31.184,50Z"></path><rect x="5" y="52" width="7" height="2"></rect><path d="M14,18a1,1,0,0,0,0,2Z"></path><rect x="16" y="9" width="18" height="3"></rect><path d="M10,16H40a1,1,0,0,0,0-2H10a1,1,0,0,0,0,2Z"></path><path d="M36,20a1,1,0,0,0,0-2Z"></path><path d="M34,5.21a1,1,0,0,0-1.1-1L26.1,4.9a11.129,11.129,0,0,1-2.19,0l-6.8-.681a1,1,0,0,0-1.1,1V7H34Z"></path><path d="M17.651,37,20,36.265V32.786A11,11,0,0,1,14,23V22a2.963,2.963,0,0,1-1.5-.418L10.6,35.594a3,3,0,0,0,1.668,3.09l2.132-.667A3.977,3.977,0,0,1,13,35h2a2,2,0,0,0,2,2Z"></path><rect x="6" y="56" width="6" height="4"></rect><path d="M50.375,47.9l-.095-2a8.494,8.494,0,0,1-2.56,0l-.095,2.007A11.051,11.051,0,0,0,50.375,47.9Z"></path><path d="M49.792,34.12,49.069,24h-.138l-.723,10.12a2.674,2.674,0,0,1,1.584,0Z"></path><path d="M50.184,43.888l-.146-3.054L49,40.33l-1.038.5-.146,3.051A7.025,7.025,0,0,0,50.184,43.888Z"></path><path d="M49,50A13.1,13.1,0,0,1,47.53,49.9L47.049,60h3.9L50.47,49.9A12.946,12.946,0,0,1,49,50Z"></path><path d="M42.5,48.26a12.972,12.972,0,0,1-1.79-1.24L41,46.67l.989-1.19a11.3,11.3,0,0,0,1.51,1.05,11.785,11.785,0,0,0,1.24.6,9.9,9.9,0,0,0-1.81-3.85l-5.12,2.49a1.122,1.122,0,0,1-.43.1,1,1,0,0,1-.87-.5l-1-1.74a.988.988,0,0,1,.31-1.32l3.14-2.13a8.23,8.23,0,0,0-.98-.37l-.18-.06a3.978,3.978,0,0,0,2-1.66l-.791-5.647-.028.057A10.831,10.831,0,0,0,38,37a9.256,9.256,0,0,0,.11,1.49,1.861,1.861,0,0,0,.04.34l-1.97.34c-.06-.33-.1-.67-.13-1.01-.03-.38-.05-.77-.05-1.16a12.979,12.979,0,0,1,2.54-7.71l-.42-3.16L37.966,25,37.5,21.6v-.02c-.059.035-.123.064-.185.1a3.4,3.4,0,0,1-.525.214A2.9,2.9,0,0,1,36,22v1c0,.27-.01.53-.03.79-.02.24-.04.47-.07.7-.01.05-.01.1-.02.14-.04.23-.08.47-.13.7a10.862,10.862,0,0,1-.39,1.38l-.03.09a7.135,7.135,0,0,1-.29.69c-.1.228-.208.45-.324.668s-.241.437-.376.652-.27.42-.42.62a11.478,11.478,0,0,1-.95,1.14c-.17.18-.35.35-.53.52s-.37.33-.56.48-.4.31-.6.45a9.65,9.65,0,0,1-1.28.77v3.48l4.49,1.4.81.25-.6,1.91-1.06-.33A8.712,8.712,0,0,1,33,41.08V49a1,1,0,0,0,1,1,.928.928,0,0,0,.69-.29A.949.949,0,0,0,35,49V47h2v1.28A2,2,0,0,1,38,50h5v2H38v2h5v2H38v4h7V49.34A13.113,13.113,0,0,1,42.5,48.26Z"></path><path d="M46.108,37.756l-8.4,5.684.069.12,9.116-4.43A2.986,2.986,0,0,1,46.108,37.756Z"></path><path d="M29.807,38.3a5,5,0,0,1-3.006,3.35l1.3,1.622a6.941,6.941,0,0,0,3.635-4.37Z"></path><path d="M48.587,37.905l.04.019a.953.953,0,0,0,.746,0l.04-.019a1,1,0,0,0,.585-.9v-.025a1,1,0,0,0-1.994,0v.025A1,1,0,0,0,48.587,37.905Z"></path><path d="M34,23V18H16v5a9,9,0,0,0,18,0ZM19,19h2v2H19Zm6,10a4,4,0,0,1-4-4h2a2,2,0,0,0,4,0h2A4,4,0,0,1,25,29Zm6-8H29V19h2Z"></path><path d="M51.892,37.756a2.986,2.986,0,0,1-.784,1.374l9.116,4.43.069-.12Z"></path><path d="M45.5,43.06c.12.07.23.13.35.19l-.11,2.13a8.274,8.274,0,0,1-1.24-.59Z"></path><path d="M53.64,44.71a8.761,8.761,0,0,1-1.38.67l-.1-2.12v-.01c.15-.08.3-.16.45-.25Z"></path><path d="M57.45,46.88a13.132,13.132,0,0,1-4.99,2.66l-.1-2.06a10.951,10.951,0,0,0,3.79-2.12Z"></path></g></svg>