<svg xmlns="http://www.w3.org/2000/svg" viewBox="0 0 64 64" x="0px" y="0px"><g><path d="M37.116,49.318a5.7,5.7,0,0,0,1.531-3.9,5.709,5.709,0,0,0-4.1.832,5.733,5.733,0,0,0-1.529,3.9A5.7,5.7,0,0,0,37.116,49.318Z"></path><path d="M30.987,50.147a5.694,5.694,0,0,0-1.532-3.893,5.7,5.7,0,0,0-4.1-.832,5.7,5.7,0,0,0,1.531,3.9A5.725,5.725,0,0,0,30.987,50.147Z"></path><polygon points="29.618 27 28 30.236 28 37 36 37 36 30.236 34.382 27 33 27 33 29 31 29 31 27 29.618 27"></polygon><rect x="15" y="12" width="34" height="6"></rect><path d="M19.931,60H44.069l2.857-40H33v5h2a1,1,0,0,1,.9.553l2,4A1,1,0,0,1,38,30v8a1,1,0,0,1-1,1H27a1,1,0,0,1-1-1V30a1,1,0,0,1,.105-.447l2-4A1,1,0,0,1,29,25h2V20H17.074Zm3.411-15.485a1,1,0,0,1,.768-.916c.17-.04,4.161-.949,6.63,1.123A5.336,5.336,0,0,1,32,46.307a5.336,5.336,0,0,1,1.26-1.585c2.47-2.074,6.461-1.163,6.63-1.123a1,1,0,0,1,.768.916c.01.173.215,4.261-2.257,6.335a6.8,6.8,0,0,1-4.386,1.357A11.049,11.049,0,0,1,32,52.021a11.049,11.049,0,0,1-2.015.186A6.8,6.8,0,0,1,25.6,50.85C23.127,48.776,23.332,44.688,23.342,44.515Z"></path><polygon points="19.693 4 17.443 10 46.557 10 44.307 4 19.693 4"></polygon></g></svg>