<svg xmlns="http://www.w3.org/2000/svg" viewBox="0 0 64 64" x="0px" y="0px"><g><path d="M30,52h-.382A3.974,3.974,0,0,0,31,49c0-1.941-2.712-5.062-3.256-5.668a1.033,1.033,0,0,0-1.488,0C25.712,43.938,23,47.059,23,49a3.974,3.974,0,0,0,1.382,3H24a7.009,7.009,0,0,0-7,7v2a1,1,0,0,0,1,1H36a1,1,0,0,0,1-1V59A7.009,7.009,0,0,0,30,52Zm-3-6.451c1.062,1.332,2,2.832,2,3.451a2,2,0,0,1-4,0C25,48.362,25.939,46.874,27,45.549ZM35,60H19V59a5.006,5.006,0,0,1,5-5h6a5.006,5.006,0,0,1,5,5Z"></path><path d="M53,2a6.006,6.006,0,0,0-6,6V21a6.006,6.006,0,0,0,4.909,5.9A4.995,4.995,0,0,1,42,26V10a7,7,0,1,0-14,0v5H18a2,2,0,0,0-2,2v2a2,2,0,0,0,2,2V34a2.966,2.966,0,0,0,.184,1H8a3,3,0,0,0,0,6H9V62h2V41H43V62h2V41h1a3,3,0,0,0,0-6H35.816A2.966,2.966,0,0,0,36,34V21a2,2,0,0,0,2-2V17a2,2,0,0,0-2-2H30V10a5,5,0,1,1,10,0V26a7,7,0,0,0,13.932.92A6,6,0,0,0,59,21V8A6.006,6.006,0,0,0,53,2ZM47,38a1,1,0,0,1-1,1H8a1,1,0,0,1,0-2H46A1,1,0,0,1,47,38ZM21,35a1,1,0,0,1-1-1V24.953a7.539,7.539,0,0,0,3.66.847,7.643,7.643,0,0,0,3.773-.9,5.7,5.7,0,0,1,2.9-.7,5.746,5.746,0,0,1,2.913.7c.24.115.49.23.757.34V27H32v2h2v2H32v2h2v1a1,1,0,0,1-1,1ZM34,23.049a7.584,7.584,0,0,0-3.67-.849,7.627,7.627,0,0,0-3.762.9,5.719,5.719,0,0,1-2.908.7,5.692,5.692,0,0,1-2.9-.7c-.24-.115-.49-.23-.758-.341V21H34ZM36,19H18V17H36Zm17,6a4,4,0,0,1-4-4V8a4,4,0,0,1,8,0H55v2h2v2H55v2h2v2H55v2h2v3A4,4,0,0,1,53,25Z"></path><path d="M54,19.278V6H52V19.278a2,2,0,1,0,2,0Z"></path><rect x="23" y="31" width="2" height="2"></rect><rect x="27" y="28" width="2" height="2"></rect></g></svg>