<svg xmlns="http://www.w3.org/2000/svg" viewBox="0 0 64 64" x="0px" y="0px"><title>USB Cable</title><g data-name="USB Cable"><rect x="14" y="5" width="4" height="2"></rect><path d="M55,42V25a11,11,0,0,0-22,0V53a7.008,7.008,0,0,1-7,7H24a7.008,7.008,0,0,1-7-7V30h2a5.006,5.006,0,0,0,5-5V9a1,1,0,0,0-1-1H21V3a1,1,0,0,0-1-1H12a1,1,0,0,0-1,1V8H9A1,1,0,0,0,8,9V25a5.006,5.006,0,0,0,5,5h2V53a9.01,9.01,0,0,0,9,9h2a9.01,9.01,0,0,0,9-9V25a9,9,0,0,1,18,0V42a5.006,5.006,0,0,0-5,5V57a1,1,0,0,0,1,1h1v3a1,1,0,0,0,1,1h6a1,1,0,0,0,1-1V58h1a1,1,0,0,0,1-1V47A5.006,5.006,0,0,0,55,42ZM13,4h6V8H13ZM10,25V10H22V25a3,3,0,0,1-3,3H13A3,3,0,0,1,10,25ZM56,60H52V58h4Zm2-4H50V47a3,3,0,0,1,3-3h2a3,3,0,0,1,3,3Z"></path></g></svg>