<svg xmlns="http://www.w3.org/2000/svg" viewBox="0 0 64 64" x="0px" y="0px"><g data-name="Scooter"><path d="M56,19h1V13H56a3,3,0,0,0,0,6Z"></path><circle cx="53" cy="50" r="1"></circle><path d="M48.957,46a6.956,6.956,0,0,1-1.407,1.512A5.864,5.864,0,0,0,47,50a6,6,0,1,0,10.457-4ZM53,53a3,3,0,1,1,3-3A3,3,0,0,1,53,53Z"></path><path d="M48,16.5A2.5,2.5,0,0,1,45.5,19H52V13H44a1.993,1.993,0,0,0-1.722,1H45.5A2.5,2.5,0,0,1,48,16.5Z"></path><path d="M10,29H23V27H10a1,1,0,0,0,0,2Z"></path><path d="M6,47H8V44a7.008,7.008,0,0,1,7-7H27a3,3,0,0,1,3,3v7H43.227A4.978,4.978,0,0,0,48.1,43.124l1.886-8.172L48.125,21H46V40a5.006,5.006,0,0,1-5,5H33a1,1,0,0,1-1-1V31H17A11.013,11.013,0,0,0,6,42Z"></path><path d="M33,28a1,1,0,0,0-1-1H25v2h8Z"></path><path d="M51.787,36.038l-1.739,7.536c-.034.148-.094.282-.137.426H59.945a9,9,0,0,0-8.158-7.962Z"></path><path d="M28,40a1,1,0,0,0-1-1H15a5.009,5.009,0,0,0-4.9,4H28Z"></path><path d="M5,35a1,1,0,0,0-1,1,1.022,1.022,0,0,0,1.008.986,12.971,12.971,0,0,1,.8-1.567A.989.989,0,0,0,5,35Z"></path><rect x="10" y="45" width="18" height="2"></rect><path d="M36,16.5a.5.5,0,0,0,.5.5h9a.5.5,0,0,0,0-1h-9A.5.5,0,0,0,36,16.5Z"></path><circle cx="18" cy="50" r="1"></circle><path d="M12.09,49A6.126,6.126,0,0,0,12,50a6,6,0,0,0,12,0,6.126,6.126,0,0,0-.09-1H20.816A2.966,2.966,0,0,1,21,50a3,3,0,0,1-6,0,2.966,2.966,0,0,1,.184-1Z"></path><circle cx="18" cy="6" r="1"></circle><path d="M28,16a1,1,0,0,0-1-1H9a1,1,0,0,0,0,2H27A1,1,0,0,0,28,16Z"></path><polygon points="25.219 21 25.719 19 10.281 19 10.781 21 25.219 21"></polygon><path d="M18,9a5.946,5.946,0,0,0-5.641,4H23.64A5.948,5.948,0,0,0,18,9Z"></path><rect x="8" y="4" width="4" height="2"></rect><rect x="6" y="8" width="4" height="2"></rect><rect x="2" y="8" width="2" height="2"></rect></g></svg>