<svg xmlns="http://www.w3.org/2000/svg" viewBox="0 0 64 64" x="0px" y="0px"><g data-name="Gun"><rect x="11" y="26" width="8" height="2"></rect><path d="M32.02,33.642,31.077,36h5.076l.666-4H33.278A1.993,1.993,0,0,0,35,33v2A3.977,3.977,0,0,1,32.02,33.642Z"></path><rect x="58" y="23" width="2" height="2"></rect><path d="M56,22H52v3a1,1,0,0,1-1,1H39a1,1,0,0,1-1-1V22H35v3a1,1,0,0,1-1,1H24a1,1,0,0,1-1-1V22H9.566L4,31.277V35H6v2H4v1H6v2H4v1H6v2H4v1h6V33a1,1,0,0,1,1-1H23a1,1,0,0,1,.937,1.352L21,41.182V44h6V43H25V41h2a1,1,0,0,1,.071-.371L27.323,40H26V38h2.123l.4-1H27V35h2.323l1.748-4.371A1,1,0,0,1,32,30H56ZM21,29a1,1,0,0,1-1,1H10a1,1,0,0,1-1-1V25a1,1,0,0,1,1-1H20a1,1,0,0,1,1,1Zm8,1H23V28h6Z"></path><rect x="40" y="22" width="10" height="2"></rect><rect x="25" y="22" width="8" height="2"></rect><rect x="53" y="18" width="2" height="2"></rect><rect x="10" y="18" width="2" height="2"></rect></g></svg>