<svg xmlns="http://www.w3.org/2000/svg" viewBox="0 0 64 64" x="0px" y="0px"><title>Combs</title><g><path d="M20.7,8.715l3.372-3.372L22.657,3.929,19.285,7.3A2.951,2.951,0,0,0,18,7V2H16V7a2.951,2.951,0,0,0-1.285.3L11.343,3.929,9.929,5.343,13.3,8.715A2.951,2.951,0,0,0,13,10H8v2h5v2H8v2h5v2H8v2h5v2H8v2h5v2H8v2h5v2H8v2h5V50c0,.12.866,12,4,12s4-11.88,4-12V32h5V30H21V28h5V26H21V24h5V22H21V20h5V18H21V16h5V14H21V12h5V10H21A2.951,2.951,0,0,0,20.7,8.715ZM18,9a1,1,0,0,1,1,1V45H15V10a1,1,0,0,1,1-1ZM15,49V47h4v2Zm2,10.723c-.814-1.459-1.7-6.283-1.937-8.723h3.874C18.7,53.44,17.814,58.264,17,59.723Z"></path><rect x="16" y="10" width="2" height="2"></rect><rect x="16" y="14" width="2" height="2"></rect><rect x="16" y="18" width="2" height="2"></rect><rect x="16" y="22" width="2" height="2"></rect><rect x="16" y="26" width="2" height="2"></rect><rect x="16" y="30" width="2" height="2"></rect><path d="M55,2H44A11.013,11.013,0,0,0,33,13V59a3,3,0,0,0,3,3h5a3,3,0,0,0,3-3V38H55a1,1,0,0,0,1-1V3A1,1,0,0,0,55,2ZM43,36a1,1,0,0,0-1,1V59a1,1,0,0,1-1,1H36a1,1,0,0,1-1-1V13a9.011,9.011,0,0,1,9-9H54V7H45V9h9v2H45v2h9v2H45v2h9v2H45v2h9v2H45v2h9v2H45v2h9v2H45v2h9v3Z"></path></g></svg>