<svg xmlns="http://www.w3.org/2000/svg" viewBox="0 0 64 64" x="0px" y="0px"><g data-name="Air Conditioner-Air Conditioning-Cold-Cooling-Refreshing"><polygon points="26.293 44.293 24.586 46 23 46 23 44.414 24.707 42.707 23.293 41.293 22 42.586 20.707 41.293 19.293 42.707 21 44.414 21 46 19.414 46 17.707 44.293 16.293 45.707 17.586 47 16.293 48.293 17.707 49.707 19.414 48 21 48 21 49.586 19.293 51.293 20.707 52.707 22 51.414 23.293 52.707 24.707 51.293 23 49.586 23 48 24.586 48 26.293 49.707 27.707 48.293 26.414 47 27.707 45.707 26.293 44.293"></polygon><polygon points="46.293 44.293 44.586 46 43 46 43 44.414 44.707 42.707 43.293 41.293 42 42.586 40.707 41.293 39.293 42.707 41 44.414 41 46 39.414 46 37.707 44.293 36.293 45.707 37.586 47 36.293 48.293 37.707 49.707 39.414 48 41 48 41 49.586 39.293 51.293 40.707 52.707 42 51.414 43.293 52.707 44.707 51.293 43 49.586 43 48 44.586 48 46.293 49.707 47.707 48.293 46.414 47 47.707 45.707 46.293 44.293"></polygon><rect x="31" y="35" width="2" height="4"></rect><rect x="41" y="35" width="2" height="4"></rect><rect x="21" y="35" width="2" height="4"></rect><rect x="36" y="35" width="2" height="2"></rect><rect x="51" y="35" width="2" height="4"></rect><rect x="46" y="35" width="2" height="2"></rect><rect x="26" y="35" width="2" height="2"></rect><rect x="11" y="35" width="2" height="4"></rect><rect x="16" y="35" width="2" height="2"></rect><path d="M60,12a3.009,3.009,0,0,0-3-3H7a3.009,3.009,0,0,0-3,3V26a3.009,3.009,0,0,0,3,3H8V26a3.009,3.009,0,0,1,3-3H53a3.009,3.009,0,0,1,3,3v3h1a3.009,3.009,0,0,0,3-3ZM46,21H44V19h2Zm5,0H49V19h2Zm5,0H54V19h2Z"></path><rect x="10" y="31" width="44" height="2"></rect><path d="M54,26a1,1,0,0,0-1-1H11a1,1,0,0,0-1,1v3H54Z"></path></g></svg>