<svg xmlns="http://www.w3.org/2000/svg" viewBox="0 0 64 64" x="0px" y="0px"><g><path d="M46.69,40.3l-8.37-2.63L37,36.54v-.85a84.682,84.682,0,0,0,11.52-2.24,3,3,0,0,0,2.21-3.35L48.11,12.66A1.99,1.99,0,0,0,49,11V9a2.006,2.006,0,0,0-2-2H43.14A14.91,14.91,0,0,0,20.86,7H17a2.006,2.006,0,0,0-2,2v2a1.99,1.99,0,0,0,.89,1.66L13.27,30.1a3,3,0,0,0,2.21,3.35A84.682,84.682,0,0,0,27,35.69v.85l-1.32,1.13L17.31,40.3A8.941,8.941,0,0,0,11,48.88V61a1,1,0,0,0,1,1H52a1,1,0,0,0,1-1V48.88A8.941,8.941,0,0,0,46.69,40.3ZM21,60V51H19v9H13V48.88a6.964,6.964,0,0,1,4.91-6.68l3.91-1.22-1.47,1.26a1,1,0,0,0-.35.72,1.041,1.041,0,0,0,.29.75L22.59,46l-1.3,1.29a1.028,1.028,0,0,0-.2,1.13L26.44,60Zm6-3.55-3.8-8.24,1.51-1.5a1.008,1.008,0,0,0,0-1.42l-2.24-2.23L27,39.17ZM48.75,30.4a1,1,0,0,1-.74,1.11,87.54,87.54,0,0,1-8.91,1.87,11,11,0,0,0,3.61-5.9,15.365,15.365,0,0,0,1.4-1.65,4.107,4.107,0,0,0,1.72-1A4,4,0,0,0,47,22a3.9,3.9,0,0,0-.38-1.67,15.169,15.169,0,0,0,.32-2.02ZM19.09,18.51A15.111,15.111,0,0,1,19,17a12.888,12.888,0,0,1,.65-4h24.7A12.888,12.888,0,0,1,45,17a15.111,15.111,0,0,1-.09,1.51A3.893,3.893,0,0,0,43,18V17a3.009,3.009,0,0,0-3-3H24a3.009,3.009,0,0,0-3,3v1A3.893,3.893,0,0,0,19.09,18.51ZM21,20v4a2.015,2.015,0,0,1-2-2A2.006,2.006,0,0,1,21,20Zm24,2a2.015,2.015,0,0,1-2,2V20A2.006,2.006,0,0,1,45,22ZM23,17a1,1,0,0,1,1-1H40a1,1,0,0,1,1,1v6.78l-6.84-1.37a11.214,11.214,0,0,0-4.32,0L23,23.78ZM32,4a12.905,12.905,0,0,1,8.27,3H23.73A12.905,12.905,0,0,1,32,4ZM17,9H47v2H17ZM15.99,31.51a1,1,0,0,1-.74-1.11l1.81-12.09a15.169,15.169,0,0,0,.32,2.02A3.9,3.9,0,0,0,17,22a4,4,0,0,0,1.17,2.83,4.107,4.107,0,0,0,1.72,1,15.365,15.365,0,0,0,1.4,1.65,11,11,0,0,0,3.61,5.9A87.54,87.54,0,0,1,15.99,31.51Zm8.31-1.87,5.81-.65-.22-1.98-6.47.71a9.235,9.235,0,0,1-.38-1.91l7.2-1.44a9.065,9.065,0,0,1,3.52,0l7.2,1.44a9.235,9.235,0,0,1-.38,1.91l-6.47-.71-.22,1.98,5.81.65a8.979,8.979,0,0,1-15.4,0ZM35,60H29V43.65a13.032,13.032,0,0,0,6,0Zm0-18.41a11.733,11.733,0,0,1-6,0V35.88c1.01.07,2.02.12,3,.12s1.99-.05,3-.12Zm2-2.42,4.53,3.89-2.24,2.23a1.008,1.008,0,0,0,0,1.42l1.51,1.5L37,56.45ZM51,60H45V51H43v9H37.56l5.35-11.58a1.028,1.028,0,0,0-.2-1.13L41.41,46l2.3-2.29a1.041,1.041,0,0,0,.29-.75,1,1,0,0,0-.35-.72l-1.47-1.26,3.91,1.22A6.964,6.964,0,0,1,51,48.88Z"></path><circle cx="28" cy="20" r="2"></circle><circle cx="36" cy="20" r="2"></circle></g></svg>