<svg xmlns="http://www.w3.org/2000/svg" viewBox="0 0 48 48" x="0px" y="0px"><title>Gift Box_6</title><g data-name="Gift Box"><path d="M45,15H40V10.361A3,3,0,0,0,36.507,7.4L26.836,9.014a.941.941,0,0,0-.242.086A1.983,1.983,0,0,0,26,9H22a1.971,1.971,0,0,0-.593.1.962.962,0,0,0-.243-.086L11.493,7.4A3,3,0,0,0,8,10.361V15H3a3,3,0,0,0-3,3v6a3,3,0,0,0,2,2.816V36a5.006,5.006,0,0,0,5,5H41a5.006,5.006,0,0,0,5-5V26.816A3,3,0,0,0,48,24V18A3,3,0,0,0,45,15ZM28,10.847l8.835-1.472A1,1,0,0,1,38,10.361V15H28V10.847ZM26,11v4H22V11Zm-16-.639a1,1,0,0,1,1.165-.986L20,10.847V15H10ZM46,24a1,1,0,0,1-1,1H15a1,1,0,0,0,0,2H44v9a3,3,0,0,1-3,3H7a3,3,0,0,1-3-3V27H5a1,1,0,0,0,0-2H3a1,1,0,0,1-1-1V18a1,1,0,0,1,1-1H45a1,1,0,0,1,1,1Z"></path><path d="M11,25H9a1,1,0,0,0,0,2h2a1,1,0,0,0,0-2Z"></path></g></svg>