<svg xmlns="http://www.w3.org/2000/svg" viewBox="0 0 64 64" x="0px" y="0px"><g><path d="M37,16H3a1,1,0,0,0-1,1v8a1,1,0,0,0,1,1H4V53a1,1,0,0,0,1,1H35a1,1,0,0,0,1-1V26h1a1,1,0,0,0,1-1V17A1,1,0,0,0,37,16ZM34,52H6V26H34Zm2-28H4V18H7v4H9V18h4v4h2V18h4v4h2V18h4v4h2V18h4v4h2V18h3Z"></path><path d="M9,49H31a1,1,0,0,0,1-1V30a1,1,0,0,0-1-1H9a1,1,0,0,0-1,1V48A1,1,0,0,0,9,49Zm1-18H30V47H10Z"></path><path d="M25,36H23V34a1,1,0,0,0-1-1H18a1,1,0,0,0-1,1v2H15a1,1,0,0,0-1,1v4a1,1,0,0,0,1,1h2v2a1,1,0,0,0,1,1h4a1,1,0,0,0,1-1V42h2a1,1,0,0,0,1-1V37A1,1,0,0,0,25,36Zm-1,4H22a1,1,0,0,0-1,1v2H19V41a1,1,0,0,0-1-1H16V38h2a1,1,0,0,0,1-1V35h2v2a1,1,0,0,0,1,1h2Z"></path><path d="M62,11v8a1,1,0,0,1-1,1H60V47a1,1,0,0,1-1,1H38V46H58V20H40V18H60V12H57v4H55V12H51v4H49V12H45v4H43V12H39v2H37V12H33v2H31V12H28v2H26V11a1,1,0,0,1,1-1H61A1,1,0,0,1,62,11Z"></path><path d="M38,41v2H55a1,1,0,0,0,1-1V24a1,1,0,0,0-1-1H40v2H54V41Z"></path><path d="M38,31v4a1,1,0,0,0,1,1h2v2a1,1,0,0,0,1,1h4a1,1,0,0,0,1-1V36h2a1,1,0,0,0,1-1V31a1,1,0,0,0-1-1H47V28a1,1,0,0,0-1-1H42a1,1,0,0,0-1,1v2H39A1,1,0,0,0,38,31Zm2,1h2a1,1,0,0,0,1-1V29h2v2a1,1,0,0,0,1,1h2v2H46a1,1,0,0,0-1,1v2H43V35a1,1,0,0,0-1-1H40Z"></path></g></svg>