<svg xmlns="http://www.w3.org/2000/svg" viewBox="0 0 64 64" x="0px" y="0px"><g><path d="M57,15H24.33a1,1,0,0,1-.251.048A16.985,16.985,0,0,0,8.479,28H7a3,3,0,0,0,0,6H8.134A17.135,17.135,0,0,0,23.046,48.891a16.848,16.848,0,0,0,13.286-4.219,16.9,16.9,0,0,0,5.23-16.451,1,1,0,0,1,.359-1.009A.952.952,0,0,1,42.583,27H45V22a1,1,0,0,1,1-1h4a1,1,0,0,1,1,1v5h8a1,1,0,0,0,1-1V18A3,3,0,0,0,57,15ZM35,17h2v2H35ZM6,31a1,1,0,0,1,1-1H8.126a17.237,17.237,0,0,0-.108,2H7A1,1,0,0,1,6,31ZM25,47A15,15,0,1,1,40,32,15.017,15.017,0,0,1,25,47ZM41,19H39V17h2Zm4,0H43V17h2Z"></path><path d="M25,19A13,13,0,1,0,38,32,13.015,13.015,0,0,0,25,19ZM22,33H20V31h2Zm4,0H24V31h2Zm4,0H28V31h2Z"></path><rect x="47" y="23" width="2" height="4"></rect></g></svg>