<svg xmlns="http://www.w3.org/2000/svg" viewBox="0 0 64 64" x="0px" y="0px"><g data-name="Payment-Online Payment-Payment Method-Mobile Payment-Smartphone"><path d="M17,28.14V31h2.86A4.017,4.017,0,0,0,17,28.14Z"></path><path d="M19.86,17H17v2.86A4.017,4.017,0,0,0,19.86,17Z"></path><path d="M38.14,31H41V28.14A4.017,4.017,0,0,0,38.14,31Z"></path><path d="M41,19.86V17H38.14A4.017,4.017,0,0,0,41,19.86Z"></path><circle cx="29" cy="24" r="2"></circle><path d="M36.09,17H21.91A5.992,5.992,0,0,1,17,21.91v4.18A5.992,5.992,0,0,1,21.91,31H36.09A5.992,5.992,0,0,1,41,26.09V21.91A5.992,5.992,0,0,1,36.09,17ZM29,28a4,4,0,1,1,4-4A4,4,0,0,1,29,28Z"></path><path d="M17.13,49.5a1.031,1.031,0,0,0,.01,1.02l2.14,3.56A4.987,4.987,0,0,1,20,56.65V61H5V43.2a8.863,8.863,0,0,1,.83-3.77l4.01-8.69A2.853,2.853,0,0,1,11,29.47V47a6.5,6.5,0,0,0,.08.99l-.64,1.11,1.73,1,6-10.39a2,2,0,1,1,3.46,2Z"></path><path d="M59,50V61H33.69l-4.02-6.96a1.98,1.98,0,0,1-.2-1.52,2.008,2.008,0,0,1,.93-1.22,2.066,2.066,0,0,1,1.52-.2,1.942,1.942,0,0,1,1.21.94l2,3.46a1.022,1.022,0,0,0,1.13.47A1,1,0,0,0,37,55V38a2,2,0,0,1,4,0V52a1,1,0,0,0,2,0V48a2,2,0,0,1,4,0v4a1,1,0,0,0,2,0V49a2,2,0,0,1,4,0v3a1,1,0,0,0,2,0V50a2,2,0,0,1,4,0Z"></path><path d="M40,4H18a5,5,0,0,0-5,5V44.66l3.44-5.95a4,4,0,1,1,6.93,4l-4.21,7.28L20.37,52h7.17a3.952,3.952,0,0,1,1.26-2H27a3,3,0,0,1,0-6h4a3.009,3.009,0,0,1,3,3,2.968,2.968,0,0,1-1.14,2.33,3.955,3.955,0,0,1,2.01,1.71l.13.23V38a4,4,0,0,1,8,0v6.54A3.989,3.989,0,0,1,45,44V9A5,5,0,0,0,40,4ZM25,6h8V8H25ZM21,6h2V8H21ZM43,31a2.006,2.006,0,0,1-2,2H17a2.006,2.006,0,0,1-2-2V17a2.006,2.006,0,0,1,2-2H41a2.006,2.006,0,0,1,2,2Z"></path><path d="M27,46a1,1,0,0,0,0,2h4a1,1,0,0,0,0-2Z"></path></g></svg>