<svg xmlns="http://www.w3.org/2000/svg" viewBox="0 0 64 64" x="0px" y="0px"><g><path d="M13,60H51a1,1,0,0,0,1-1V5a1,1,0,0,0-1-1H48v9a1,1,0,0,1-.684.949A1.019,1.019,0,0,1,47,14a1,1,0,0,1-.8-.4L44,10.667,41.8,13.6A1,1,0,0,1,40,13V4H13a1,1,0,0,0-1,1V59A1,1,0,0,0,13,60ZM42,34v2H34V34Zm-8-2V30h5v2Zm7,10v2H34V42Zm-3-2V38h2v2Zm-2-2v2H26V38ZM24,44V42h8v2Zm6,2v2H28V46Zm2-12v2H22V34Zm-2-2V30h2v2Zm2-4H26V26h6Zm-4,2v2H22V30Zm-4-2H20V26h4Zm0,10v2H20V38Zm-2,4v2H18V42Zm-2,4h6v2H20Zm12,6H22V50H32Zm4,0H34V50h2Zm1-4H32V46h5Zm7,4H38V50h6Zm1-4H39V46h6Zm2-4H43V42h4Zm0-14v2H41V30Zm-5-4v2H34V26Zm-8-2V22h2v2ZM30.293,9.707l1.414-1.414,4,4a1,1,0,0,1,0,1.414l-4,4-1.414-1.414L33.586,13Zm-4.263-.95,1.94.486-2,8-1.94-.486ZM22,22H32v2H22Zm-5.707-9.707,4-4,1.414,1.414L18.414,13l3.293,3.293-1.414,1.414-4-4A1,1,0,0,1,16.293,12.293ZM16,22h4v2H16Zm0,12h4v2H16Zm0,16h4v2H16Z"></path><path d="M43.2,8.4a1.036,1.036,0,0,1,1.6,0L46,10V4H42v6Z"></path></g></svg>