<svg xmlns="http://www.w3.org/2000/svg" viewBox="0 0 64 64" x="0px" y="0px"><g data-name="Coffee Wtih Foam"><path d="M60,26a5.006,5.006,0,0,0-5-5H50v2h5a3,3,0,0,1,3,3v6a3,3,0,0,1-3,3H50v2h5a5.006,5.006,0,0,0,5-5Z"></path><path d="M48,36V21H4V36c0,3.9,1.646,10.053,4,14.968C10.755,56.708,14.034,60,17,60H35c2.966,0,6.245-3.292,9-9.032C46.354,46.053,48,39.9,48,36Z"></path><path d="M39,9H25c-2.484,0-4.758-2.53-5.971-4.17-2.212,2.485-7.108,3.946-7.755,4.132C6.421,9.936,4,12.3,4,16a2.994,2.994,0,0,0,3,3H47a1,1,0,0,0,1-1,9,9,0,0,0-9-9Z"></path></g></svg>