<svg xmlns="http://www.w3.org/2000/svg" viewBox="0 0 64 64" x="0px" y="0px"><g><path d="M56,49a1,1,0,0,0-1,1,1,1,0,0,1-2,0,1,1,0,0,0-1-1,.988.988,0,0,0-.966.832L52.618,53h2.764l1.584-3.168A.988.988,0,0,0,56,49Z"></path><path d="M57,25H51V47.184a2.846,2.846,0,0,1,2,0V27h2V47.179a2.846,2.846,0,0,1,2,0Z"></path><path d="M55,57V55H53v2a1,1,0,0,0,2,0Z"></path><path d="M57,19a3,3,0,0,0-6,0v1h6Z"></path><rect x="51" y="22" width="6" height="1"></rect><rect x="15" y="19" width="22" height="1"></rect><path d="M15,17H37V16a3,3,0,0,0-3-3H31a1,1,0,0,1-1-1V7a3,3,0,0,0-3-3H25a3,3,0,0,0-3,3v5a1,1,0,0,1-1,1H18a3,3,0,0,0-3,3ZM26,6a3,3,0,1,1-3,3A3,3,0,0,1,26,6Z"></path><rect x="27" y="42" width="10" height="8"></rect><path d="M45,17a3,3,0,0,0-3-3H38.576A4.95,4.95,0,0,1,39,16h2a2,2,0,0,1,2,2V56a2,2,0,0,1-2,2H16a7.008,7.008,0,0,1-7-7V18a2,2,0,0,1,2-2h2a4.95,4.95,0,0,1,.424-2H10a3,3,0,0,0-3,3V57a3,3,0,0,0,3,3H42a3,3,0,0,0,3-3Z"></path><circle cx="26" cy="9" r="1"></circle><path d="M13,21V18H11V49h4a3,3,0,0,1,3,3v4H41V18H39v3a1,1,0,0,1-1,1H14A1,1,0,0,1,13,21Zm0,9H27v2H13ZM23,46H13V44H23Zm0-4H13V40H23Zm16,9a1,1,0,0,1-1,1H26a1,1,0,0,1-1-1V41a1,1,0,0,1,1-1H38a1,1,0,0,1,1,1Zm0-15H13V34H39ZM29,26H39v2H29Zm0,4H39v2H29ZM17,26H27v2H17Zm-2,2H13V26h2Z"></path><path d="M11,51a5.006,5.006,0,0,0,5,5V52a1,1,0,0,0-1-1Z"></path></g></svg>