<svg xmlns="http://www.w3.org/2000/svg" viewBox="0 0 64 64" x="0px" y="0px"><g><circle cx="11" cy="18" r="2"></circle><circle cx="53" cy="18" r="2"></circle><circle cx="32" cy="17" r="1"></circle><circle cx="36" cy="49" r="1"></circle><circle cx="32" cy="29" r="5"></circle><circle cx="28" cy="41" r="1"></circle><circle cx="28" cy="49" r="1"></circle><path d="M32,60a29.367,29.367,0,0,0,9-1.7h0V5.7A29.374,29.374,0,0,0,32,4a29.359,29.359,0,0,0-9,1.7V58.3A29.381,29.381,0,0,0,32,60Zm4-8a3,3,0,1,1,3-3A3,3,0,0,1,36,52Zm0-8a3,3,0,1,1,3-3A3,3,0,0,1,36,44ZM37,7h2V9H37ZM31,6h2v4H31Zm1,8a3,3,0,1,1-3,3A3,3,0,0,1,32,14Zm0,8a7,7,0,1,1-7,7A7.008,7.008,0,0,1,32,22ZM28,38a3,3,0,1,1-3,3A3,3,0,0,1,28,38Zm0,8a3,3,0,1,1-3,3A3,3,0,0,1,28,46Z"></path><circle cx="36" cy="41" r="1"></circle><path d="M48.051,13.05l1.414,1.414a5,5,0,0,1,7.07,0l1.414-1.414a7,7,0,0,0-9.9,0Z"></path><path d="M45.222,10.222l1.414,1.414a9.01,9.01,0,0,1,12.728,0l1.414-1.414A11.012,11.012,0,0,0,45.222,10.222Z"></path><path d="M6.05,13.05l1.414,1.414a5.008,5.008,0,0,1,7.072,0L15.95,13.05A7.009,7.009,0,0,0,6.05,13.05Z"></path><path d="M3.222,10.222l1.414,1.414a9.01,9.01,0,0,1,12.728,0l1.414-1.414A11.012,11.012,0,0,0,3.222,10.222Z"></path></g></svg>