<svg xmlns="http://www.w3.org/2000/svg" viewBox="0 0 64 64" x="0px" y="0px"><g><rect x="22" y="29" width="2" height="3"></rect><path d="M50,44H41a3.009,3.009,0,0,1-3-3V25a3.009,3.009,0,0,1,3-3h1a2.006,2.006,0,0,1,2-2h6V12H14v8h6a2.006,2.006,0,0,1,2,2v5h2a2.006,2.006,0,0,1,2,2V41a3.009,3.009,0,0,1-3,3H14v8H50ZM20,18H18V16h2Zm4,0H22V16h2Zm2-2h9.586l-1.293-1.293,1.414-1.414,3,3a1,1,0,0,1,0,1.414l-3,3-1.414-1.414L35.586,18H26ZM38,48H28.414l1.293,1.293-1.414,1.414-3-3a1,1,0,0,1,0-1.414l3-3,1.414,1.414L28.414,46H38Zm4,0H40V46h2Zm4,0H44V46h2Z"></path><path d="M9.71,27.29,14.41,32H20V22H8v5H9A1.033,1.033,0,0,1,9.71,27.29ZM18,30H14V28h4Zm-8-6h8v2H10Z"></path><path d="M4,27H6V24H5a1,1,0,0,0-1,1Z"></path><path d="M50,54H14v2a4,4,0,0,0,4,4H46a4,4,0,0,0,4-4ZM33,58H31V56h2Z"></path><path d="M24,41V34H14a1.033,1.033,0,0,1-.71-.29L8.59,29H4V41a1,1,0,0,0,1,1H23A1,1,0,0,0,24,41Z"></path><path d="M14,10H50V8a4,4,0,0,0-4-4H18a4,4,0,0,0-4,4ZM29,6h6V8H29ZM25,6h2V8H25Z"></path><path d="M40,25v2h2V24H41A1,1,0,0,0,40,25Z"></path><path d="M60,41V34H50a1.033,1.033,0,0,1-.71-.29L44.59,29H40V41a1,1,0,0,0,1,1H59A1,1,0,0,0,60,41Z"></path><path d="M44,27h1a1.033,1.033,0,0,1,.71.29L50.41,32H56V22H44Zm10,3H50V28h4Zm-8-6h8v2H46Z"></path><rect x="58" y="29" width="2" height="3"></rect></g></svg>