<svg xmlns="http://www.w3.org/2000/svg" viewBox="0 0 64 64" x="0px" y="0px"><g data-name="Smart Circuit Board-Internet of Things-App-Internet-Smartphone"><path d="M10,18H24a3,3,0,0,0,3-3V9a3,3,0,0,0-3-3H10A3,3,0,0,0,7,9v6A3,3,0,0,0,10,18ZM9,9a1,1,0,0,1,1-1H24a1,1,0,0,1,1,1v6a1,1,0,0,1-1,1H10a1,1,0,0,1-1-1Z"></path><circle cx="14" cy="12" r="2"></circle><circle cx="20" cy="12" r="2"></circle><path d="M10,32H24a3,3,0,0,0,3-3V23a3,3,0,0,0-3-3H10a3,3,0,0,0-3,3v6A3,3,0,0,0,10,32ZM9,23a1,1,0,0,1,1-1H24a1,1,0,0,1,1,1v6a1,1,0,0,1-1,1H10a1,1,0,0,1-1-1Z"></path><circle cx="14" cy="26" r="2"></circle><circle cx="20" cy="26" r="2"></circle><path d="M27,43V37a3,3,0,0,0-3-3H10a3,3,0,0,0-3,3v6a3,3,0,0,0,3,3H24A3,3,0,0,0,27,43ZM9,43V37a1,1,0,0,1,1-1H24a1,1,0,0,1,1,1v6a1,1,0,0,1-1,1H10A1,1,0,0,1,9,43Z"></path><circle cx="14" cy="40" r="2"></circle><circle cx="20" cy="40" r="2"></circle><path d="M46.465,43.464l1.414,1.414a3.074,3.074,0,0,1,4.242,0l1.414-1.414a5,5,0,0,0-7.07,0Z"></path><path d="M45.05,42.05a7.011,7.011,0,0,1,9.9,0l1.414-1.414a9.01,9.01,0,0,0-12.728,0Z"></path><path d="M48.586,46.586,50,48l1.414-1.414A2,2,0,0,0,48.586,46.586Z"></path><path d="M57,26H51V7a5,5,0,0,0-5-5H38a5,5,0,0,0-5,5V57a3.009,3.009,0,0,1-3,3H21a3.009,3.009,0,0,1-3-3V54h2a2.006,2.006,0,0,0,2-2V50h6a3.009,3.009,0,0,0,3-3V5a3.009,3.009,0,0,0-3-3H6A3.009,3.009,0,0,0,3,5V47a3.009,3.009,0,0,0,3,3h6v2a2.006,2.006,0,0,0,2,2h2v3a5,5,0,0,0,5,5h9a5,5,0,0,0,5-5V7a3.009,3.009,0,0,1,3-3h8a3.009,3.009,0,0,1,3,3V26H43a5,5,0,0,0-5,5V57a5,5,0,0,0,5,5H57a5,5,0,0,0,5-5V31A5,5,0,0,0,57,26ZM6,48a1,1,0,0,1-1-1V5A1,1,0,0,1,6,4H28a1,1,0,0,1,1,1V47a1,1,0,0,1-1,1Zm8,4V50h6v2Zm46,5a3.009,3.009,0,0,1-3,3H43a3.009,3.009,0,0,1-3-3V54H60Zm0-5H40V34H60Zm0-20H40V31a3.009,3.009,0,0,1,3-3H57a3.009,3.009,0,0,1,3,3Z"></path><rect x="49" y="56" width="2" height="2"></rect></g></svg>