<svg xmlns="http://www.w3.org/2000/svg" viewBox="0 0 64 64" x="0px" y="0px"><g data-name="Bill"><path d="M41,38H23a1,1,0,0,0-1,1V57a1,1,0,0,0,1,1H41a1,1,0,0,0,1-1V39A1,1,0,0,0,41,38Zm-1,6H36V40h4ZM30,50V46h4v4Zm4,2v4H30V52Zm-6-2H24V46h4Zm2-6V40h4v4Zm6,2h4v4H36Zm-8-6v4H24V40ZM24,52h4v4H24Zm12,4V52h4v4Z"></path><path d="M47,20H45V3a1,1,0,0,0-1.9-.447L42,4.764,40.9,2.553a1.042,1.042,0,0,0-1.79,0L38,4.764,36.9,2.553a1.042,1.042,0,0,0-1.79,0L34,4.759l-1.1-2.2A1,1,0,0,0,32.014,2h0a1,1,0,0,0-.894.551L30,4.769,28.9,2.553a1.042,1.042,0,0,0-1.79,0L26,4.764,24.9,2.553a1.042,1.042,0,0,0-1.79,0L22,4.764,20.9,2.553A1,1,0,0,0,19,3V20H17a2,2,0,0,0-2,2V35a1,1,0,0,0,.105.447L17,39.236V60a2,2,0,0,0,2,2H45a2,2,0,0,0,2-2V39.236l1.9-3.789A1,1,0,0,0,49,35V22A2,2,0,0,0,47,20ZM21,7.236l.105.211a1.042,1.042,0,0,0,1.79,0L24,5.236l1.105,2.211a1.042,1.042,0,0,0,1.79,0L28,5.236l1.105,2.211A1,1,0,0,0,30,8h0a1,1,0,0,0,.894-.551l1.113-2.213,1.1,2.209A1,1,0,0,0,34,8h0a1,1,0,0,0,.9-.553L36,5.236l1.1,2.211a1.042,1.042,0,0,0,1.79,0L40,5.236l1.1,2.211a1.042,1.042,0,0,0,1.79,0l.1-.211V20H21ZM47,34.764l-1.9,3.789A1,1,0,0,0,45,39V60H19V39a1,1,0,0,0-.105-.447L17,34.764V22H47Z"></path><path d="M20,36H44a1,1,0,0,0,1-1V25a1,1,0,0,0-1-1H20a1,1,0,0,0-1,1V35A1,1,0,0,0,20,36Zm1-10H43v8H21Z"></path><rect x="25" y="11" width="10" height="2"></rect><rect x="37" y="11" width="2" height="2"></rect><rect x="25" y="15" width="10" height="2"></rect><rect x="37" y="15" width="2" height="2"></rect><rect x="39" y="29" width="2" height="2"></rect><rect x="35" y="29" width="2" height="2"></rect><rect x="31" y="29" width="2" height="2"></rect></g></svg>