<svg xmlns="http://www.w3.org/2000/svg" viewBox="0 0 64 64" x="0px" y="0px"><title>Presentaion report_1</title><g data-name="Presentaion report"><path d="M53,39H21V38H51V32H21V31H35V25H21V24h8V18H21V16H19V41H53ZM27,20v2H21V20Zm6,7v2H21V27Zm16,7v2H21V34Z"></path><rect x="9" y="19" width="6" height="2"></rect><rect x="9" y="23" width="2" height="2"></rect><rect x="13" y="23" width="4" height="2"></rect><rect x="9" y="34" width="6" height="2"></rect><rect x="9" y="38" width="6" height="2"></rect><rect x="9" y="28" width="8" height="2"></rect><rect x="44" y="16" width="8" height="2"></rect><rect x="44" y="20" width="2" height="2"></rect><rect x="48" y="20" width="4" height="2"></rect><path d="M62,12V6H36V2H28V6H2v6H4V44H2v6H28v6H21v6H43V56H36V50H62V44H60V12ZM30,4h4V6H30ZM4,8H60v2H4ZM41,58v2H23V58Zm-7-2H30V50h4Zm26-8H4V46H60Zm-2-4H6V12H58Z"></path></g></svg>