<svg xmlns="http://www.w3.org/2000/svg" viewBox="0 0 64 64" x="0px" y="0px"><title>Computer-Writer-Tool-Gear-Pencil</title><g><polygon points="13 21.946 13 20.054 10.162 21 13 21.946"></polygon><rect x="15" y="20" width="1" height="2"></rect><path d="M60,40H4v3a3,3,0,0,0,3,3H57a3,3,0,0,0,3-3Zm-4,4H54V42h2Z"></path><path d="M40.505,26.251A10.237,10.237,0,0,0,41.526,24H39.392a8,8,0,1,1,0-6h2.134a10.237,10.237,0,0,0-1.021-2.251,1,1,0,0,1,.065-1.133l2.118-2.723-1.581-1.581-2.723,2.117a1,1,0,0,1-1.132.066,10.141,10.141,0,0,0-2.939-1.212,1,1,0,0,1-.765-.849L33.118,7H30.882l-.43,3.434a1,1,0,0,1-.765.849A10.141,10.141,0,0,0,26.748,12.5a1,1,0,0,1-1.132-.066l-2.723-2.117-1.581,1.581,2.118,2.723a1,1,0,0,1,.065,1.133,10.082,10.082,0,0,0-1.211,2.938,1,1,0,0,1-.849.765L18,19.883v2.234l3.435.431a1,1,0,0,1,.849.765A10.082,10.082,0,0,0,23.5,26.251a1,1,0,0,1-.065,1.133l-2.118,2.723,1.581,1.581,2.723-2.117a1,1,0,0,1,1.132-.066,10.141,10.141,0,0,0,2.939,1.212,1,1,0,0,1,.765.849L30.882,35h2.236l.43-3.434a1,1,0,0,1,.765-.849,10.141,10.141,0,0,0,2.939-1.212,1,1,0,0,1,1.132.066l2.723,2.117,1.581-1.581L40.57,27.384A1,1,0,0,1,40.505,26.251Z"></path><polygon points="24.905 48 24.105 56 39.895 56 39.095 48 24.905 48"></polygon><path d="M20,59a1,1,0,0,0,1,1H43a1,1,0,0,0,0-2H21A1,1,0,0,0,20,59Z"></path><path d="M37.181,24H26.82a5.973,5.973,0,0,0,10.361,0Z"></path><path d="M60,7a3,3,0,0,0-3-3H7A3,3,0,0,0,4,7V38H60ZM57.108,23.126A2.922,2.922,0,0,1,55,24H47.062l-3.579.448a12.065,12.065,0,0,1-.923,2.236l2.25,2.892a1,1,0,0,1-.083,1.321l-2.83,2.83a1,1,0,0,1-1.321.082L37.684,31.56a12.141,12.141,0,0,1-2.235.923l-.457,3.641A1,1,0,0,1,34,37H30a1,1,0,0,1-.992-.876l-.457-3.641a12.141,12.141,0,0,1-2.235-.923l-2.892,2.249a1,1,0,0,1-1.321-.082l-2.83-2.83a1,1,0,0,1-.083-1.321l2.25-2.892a12.065,12.065,0,0,1-.923-2.236L16.938,24H13a1,1,0,0,1-.316-.052l-6-2a1,1,0,0,1,0-1.9l6-2A1,1,0,0,1,13,18h3.938l3.579-.448a12.065,12.065,0,0,1,.923-2.236l-2.25-2.892a1,1,0,0,1,.083-1.321l2.83-2.83a1,1,0,0,1,1.321-.082l2.892,2.249a12.141,12.141,0,0,1,2.235-.923l.457-3.641A1,1,0,0,1,30,5h4a1,1,0,0,1,.992.876l.457,3.641a12.141,12.141,0,0,1,2.235.923l2.892-2.249a1,1,0,0,1,1.321.082l2.83,2.83a1,1,0,0,1,.083,1.321l-2.25,2.892a12.065,12.065,0,0,1,.923,2.236L47.062,18H55a3,3,0,0,1,3,3A2.944,2.944,0,0,1,57.108,23.126Z"></path><path d="M26.819,18H37.181a5.974,5.974,0,0,0-10.362,0Z"></path><path d="M55,20H52v2h3a.965.965,0,0,0,.694-.287A.978.978,0,0,0,56,21,1,1,0,0,0,55,20Z"></path><path d="M26,21a6.126,6.126,0,0,0,.09,1H47V20H26.09A6.027,6.027,0,0,0,26,21Z"></path><rect x="49" y="20" width="1" height="2"></rect></g></svg>