<svg xmlns="http://www.w3.org/2000/svg" viewBox="0 0 64 64" x="0px" y="0px"><g><path d="M61.187,23.018,58,22.411V20a1,1,0,0,0-1-1H53a1,1,0,0,0-1,1v1.268l-2-.381V18a1,1,0,0,0-1-1H45a1,1,0,0,0-1,1v1.744l-3-.571V11a9,9,0,0,0-18,0v8.173l-3,.571V18a1,1,0,0,0-1-1H15a1,1,0,0,0-1,1v2.887l-2,.381V20a1,1,0,0,0-1-1H7a1,1,0,0,0-1,1v2.411l-3.187.607A1,1,0,0,0,2,24v8a1,1,0,0,0,1,1H6v2a1,1,0,0,0,1,1h4a1,1,0,0,0,1-1V33h2v2a1,1,0,0,0,1,1h4a1,1,0,0,0,1-1V33h3V47.219L11.757,50.03A1,1,0,0,0,11,51v6a1,1,0,0,0,1,1H26.382l1.723,3.447A1,1,0,0,0,29,62h6a1,1,0,0,0,.9-.553L37.618,58H52a1,1,0,0,0,1-1V51a1,1,0,0,0-.757-.97L41,47.219V33h3v2a1,1,0,0,0,1,1h4a1,1,0,0,0,1-1V33h2v2a1,1,0,0,0,1,1h4a1,1,0,0,0,1-1V33h3a1,1,0,0,0,1-1V24A1,1,0,0,0,61.187,23.018ZM46,19h2v1.5l-2-.38ZM16,19h2v1.122l-2,.38Zm38,2h2v1.03l-2-.381ZM25,11a7,7,0,0,1,14,0V47.89L37.2,56H26.8L25,47.89ZM8,21h2v.649L8,22.03Zm2,13H8V33h2Zm8,0H16V33h2ZM4,31V24.828l19-3.62V31Zm9,25V51.781l10.247-2.562L24.753,56Zm21.382,4H29.618l-1-2h6.764ZM51,56H39.247l1.506-6.781L51,51.781ZM48,34H46V33h2Zm8,0H54V33h2Zm4-3H41V21.208l19,3.62Z"></path><rect x="28" y="10" width="8" height="2"></rect><rect x="35" y="16" width="2" height="2"></rect><rect x="27" y="16" width="2" height="2"></rect><rect x="35" y="20" width="2" height="2"></rect><rect x="27" y="20" width="2" height="2"></rect><rect x="35" y="24" width="2" height="2"></rect><rect x="27" y="24" width="2" height="2"></rect><rect x="35" y="28" width="2" height="2"></rect><rect x="27" y="28" width="2" height="2"></rect><rect x="35" y="32" width="2" height="2"></rect><rect x="27" y="32" width="2" height="2"></rect><rect x="35" y="36" width="2" height="2"></rect><rect x="27" y="36" width="2" height="2"></rect><rect x="35" y="40" width="2" height="2"></rect><rect x="27" y="40" width="2" height="2"></rect><rect x="35" y="44" width="2" height="2"></rect><rect x="27" y="44" width="2" height="2"></rect></g></svg>