<svg xmlns="http://www.w3.org/2000/svg" viewBox="0 0 64 64" x="0px" y="0px"><g><path d="M52.12,49.88A3,3,0,0,0,47,52v4a3,3,0,0,0,6,0V52A2.993,2.993,0,0,0,52.12,49.88Z"></path><path d="M24,41a1,1,0,0,0,1,1H39a1,1,0,0,0,0-2H25A1,1,0,0,0,24,41Z"></path><polygon points="27.85 34 27.18 38 36.82 38 36.15 34 27.85 34"></polygon><path d="M53,31V28H11v3a1,1,0,0,0,1,1H52A1,1,0,0,0,53,31Zm-4,0H47V29h2Z"></path><path d="M11,26H53V5a1,1,0,0,0-1-1H12a1,1,0,0,0-1,1Z"></path><path d="M12,60H44a1,1,0,0,0,1-1V49a1,1,0,0,0-1-1H12a1,1,0,0,0-1,1V59A1,1,0,0,0,12,60Zm29-9h2v2H41Zm0,4h2v2H41Zm-4-4h2v2H37Zm0,4h2v2H37Zm-4-4h2v2H33Zm-4,0h2v2H29Zm-4,0h2v2H25Zm-4,0h2v2H21Zm0,4H35v2H21Zm-4-4h2v2H17Zm0,4h2v2H17Zm-4-4h2v2H13Zm0,4h2v2H13Z"></path></g></svg>