<svg xmlns="http://www.w3.org/2000/svg" viewBox="0 0 64 64" x="0px" y="0px"><title>Exchange</title><g><path d="M24,19a1,1,0,0,1,1-1H38.586L36.05,20.535l1.414,1.414,4.243-4.242a1,1,0,0,0,0-1.414l-4.243-4.242L36.05,13.465,38.586,16H25a3,3,0,0,0-3,3v2h2Z"></path><path d="M26.536,33.949l1.414-1.414L25.414,30H39a3,3,0,0,0,3-3V25H40v2a1,1,0,0,1-1,1H25.414l2.536-2.535-1.414-1.414-4.243,4.242a1,1,0,0,0,0,1.414Z"></path><path d="M59,2H5A3,3,0,0,0,2,5V45a3,3,0,0,0,3,3H22.9l-.8,8H19a1,1,0,0,0-1,1v3H16v2H48V60H46V57a1,1,0,0,0-1-1H41.905l-.8-8H59a3,3,0,0,0,3-3V5A3,3,0,0,0,59,2ZM44,58v2H20V58ZM24.105,56l.8-8H39.1l.8,8ZM60,45a1,1,0,0,1-1,1H5a1,1,0,0,1-1-1V5A1,1,0,0,1,5,4H59a1,1,0,0,1,1,1Z"></path><path d="M56,6H8A2,2,0,0,0,6,8V39a1,1,0,0,0,1,1H57a1,1,0,0,0,1-1V8A2,2,0,0,0,56,6Zm0,32H8V8H56Z"></path><rect x="31" y="42" width="2" height="2"></rect></g></svg>