<svg xmlns="http://www.w3.org/2000/svg" viewBox="0 0 64 64" x="0px" y="0px"><g data-name="Online Payment"><path d="M27,40a8,8,0,1,0-8-8A8.009,8.009,0,0,0,27,40Zm4-9h2v2H31Zm-4,2a2.937,2.937,0,0,1-2.862-3A2.993,2.993,0,0,1,26,27.2V26h2v1.2A2.993,2.993,0,0,1,29.862,30h-2A.872.872,0,1,0,27,31a2.937,2.937,0,0,1,2.862,3A2.993,2.993,0,0,1,28,36.8V38H26V36.8A2.993,2.993,0,0,1,24.138,34h2A.872.872,0,1,0,27,33Zm-4-2v2H21V31Z"></path><path d="M42,52V49H40v2H38V13h2v2h2V7a3,3,0,0,0-3-3H15a3,3,0,0,0-3,3v3H38v2H12V57a3,3,0,0,0,3,3H39a3,3,0,0,0,3-3V54H16V52ZM18,8H16V6h2Zm6,0H20V6h4Zm1,48h4v2H25Zm2-34A10,10,0,1,1,17,32,10.011,10.011,0,0,1,27,22ZM14,19V14h5v2H16v3Z"></path><path d="M56.9,42.954,58.882,39l-2.036-4.072,2-3L56.882,28l2-4-2-4,1.5-3H40V47H58.523ZM47,45H45V19h2Zm4,0H49V19h2Zm4,0H53V23h2Zm0-24H53V19h2Z"></path></g></svg>