<svg xmlns="http://www.w3.org/2000/svg" viewBox="0 0 64 64" x="0px" y="0px"><g><path d="M35,60V44.84l-9-6.6-9,6.6V60h2V53a1,1,0,0,1,1-1h6a1,1,0,0,1,1,1v7Zm-1-7v4a1,1,0,0,1-1,1H29a1,1,0,0,1-1-1V53a1,1,0,0,1,1-1h4A1,1,0,0,1,34,53Zm-8-3a4,4,0,1,1,4-4A4,4,0,0,1,26,50Z"></path><circle cx="26" cy="46" r="2"></circle><rect x="30" y="54" width="2" height="2"></rect><path d="M40.687,46.229A.785.785,0,0,0,41,44.813L26,34.224,11,44.814a.786.786,0,1,0,.918,1.275l13.494-9.9a1,1,0,0,1,1.184,0l13.494,9.9A.773.773,0,0,0,40.687,46.229Z"></path><polygon points="33 35 33 36.717 35 38.128 35 35 33 35"></polygon><rect x="21" y="54" width="4" height="6"></rect><rect x="54" y="4" width="6" height="14"></rect><path d="M31.806,17a3.91,3.91,0,0,1-3.434-1.978C28.247,15.016,28.125,15,28,15h-.19a6.982,6.982,0,0,0-5.566,3.026A6.9,6.9,0,0,0,21,22a7,7,0,1,0,11.884-5ZM27,21h2a3,3,0,0,1,0,6v1H27V27a3,3,0,0,1-3-3h2a1,1,0,0,0,1,1h2a1,1,0,0,0,0-2H27a3,3,0,0,1,0-6V16h2v1a3,3,0,0,1,3,3H30a1,1,0,0,0-1-1H27a1,1,0,0,0,0,2Z"></path><path d="M39.806,16c0,1.514,2.476,3,5,3s5-1.486,5-3a1,1,0,0,1,1-1H52V7H50.81a.985.985,0,0,1-.394-.081L43.6,4H33.29a5,5,0,0,0-3.53,1.464L21.617,13.6a1.963,1.963,0,0,0-.355,2.382c.008.012.018.021.026.032A8.993,8.993,0,0,1,27.787,13h.019a4,4,0,0,1,4-4h11v2h-11a2,2,0,0,0,0,4h7A1,1,0,0,1,39.806,16Z"></path><polygon points="46.998 50 47 52 57 52 57 50 47 50 46.998 50"></polygon><polygon points="47.998 46 48 48 57 48 58 48 58 46 48 46 47.998 46"></polygon><polygon points="58 54 48 54 47.998 54 48 56 58 56 58 54"></polygon><polygon points="57 60 57 58 47 58 46.998 58 47 60 57 60"></polygon></g></svg>