<svg xmlns="http://www.w3.org/2000/svg" viewBox="0 0 64 64" x="0px" y="0px"><g data-name="Payment-Taxi-Service-Smartphone-Online Payment"><path d="M18,4H46a4,4,0,0,1,4,4V20h2V8a6.006,6.006,0,0,0-6-6H18a6.006,6.006,0,0,0-6,6h2A4,4,0,0,1,18,4Z"></path><path d="M52,48v8a6,6,0,0,1-6,6H18a6,6,0,0,1-6-6V30h2V56a4,4,0,0,0,4,4H46a4,4,0,0,0,4-4V48Z"></path><path d="M30,58h4a3,3,0,0,0,0-6H30a3,3,0,0,0,0,6Zm0-4h4a1,1,0,0,1,0,2H30a1,1,0,0,1,0-2Z"></path><rect x="25" y="6" width="2" height="2"></rect><rect x="29" y="6" width="6" height="2"></rect><rect x="43" y="40" width="6" height="2"></rect><path d="M62,35a3.009,3.009,0,0,0-3-3,2.949,2.949,0,0,0-1.99.78l-1.07-2.13-.78-3.14A1.992,1.992,0,0,0,53.22,26H51V23a1,1,0,0,0-1-1H42a1,1,0,0,0-1,1v3H38.78a1.992,1.992,0,0,0-1.94,1.51l-.78,3.14-1.07,2.13A2.949,2.949,0,0,0,33,32a3,3,0,0,0-1.6,5.53A2.942,2.942,0,0,0,31,39v9a2.006,2.006,0,0,0,2,2h4a2.006,2.006,0,0,0,2-2V46H53v2a2.006,2.006,0,0,0,2,2h4a2.006,2.006,0,0,0,2-2V39a2.942,2.942,0,0,0-.4-1.47A2.983,2.983,0,0,0,62,35ZM43,24h6v2H43Zm-4.22,4H53.22l.5,2H38.28Zm-1.16,4H54.38l2,4H35.62ZM32,35a.992.992,0,0,1,1.97-.17l-.53,1.05A.966.966,0,0,1,33,36,1,1,0,0,1,32,35Zm5,13H33V45.82A3,3,0,0,0,34,46h3Zm22,0H55V46h3a3,3,0,0,0,1-.18Zm0-5a1,1,0,0,1-1,1H34a1,1,0,0,1-1-1V39a1,1,0,0,1,1-1H58a1,1,0,0,1,1,1Zm0-7a.966.966,0,0,1-.44-.12l-.53-1.05A.993.993,0,1,1,59,36Z"></path><circle cx="55" cy="41" r="2"></circle><circle cx="37" cy="41" r="2"></circle><path d="M34,26V12a2,2,0,0,0-2-2H4a2,2,0,0,0-2,2V26a2,2,0,0,0,2,2H32A2,2,0,0,0,34,26Zm-6.91,0H8.91A6.008,6.008,0,0,0,4,21.09V16.91A6.008,6.008,0,0,0,8.91,12H27.09A6.007,6.007,0,0,0,32,16.91v4.181A6.006,6.006,0,0,0,27.09,26ZM32,14.858A4,4,0,0,1,29.142,12H32ZM6.858,12A4,4,0,0,1,4,14.858V12ZM4,23.142A4,4,0,0,1,6.858,26H4ZM29.142,26A3.993,3.993,0,0,1,32,23.143V26Z"></path><path d="M18,14a5,5,0,1,0,5,5A5.006,5.006,0,0,0,18,14Zm0,8a3,3,0,1,1,3-3A3,3,0,0,1,18,22Z"></path></g></svg>