<svg xmlns="http://www.w3.org/2000/svg" viewBox="0 0 64 64" x="0px" y="0px"><g data-name="Handbag"><path d="M59,28H56.816A2.993,2.993,0,0,0,57,27.05l1-20a.987.987,0,0,0-.029-.292l-1-4A1,1,0,0,0,56,2H52a1,1,0,0,0-.97.758l-1,4A.987.987,0,0,0,50,7.05l1,20a2.993,2.993,0,0,0,.179.95H5a3,3,0,0,0-3,3V59a3,3,0,0,0,3,3H59a3,3,0,0,0,3-3V31A3,3,0,0,0,59,28ZM20.219,41.193,4,54.851V32.656ZM22.365,42H25v5a1,1,0,0,0,1,1H38a1,1,0,0,0,1-1V42h2.635L58.26,56H5.74ZM27,42H37v4H27Zm16.781-.807L60,32.656V54.85ZM52.781,4h2.438l.775,3.1-.857,17.128a2.961,2.961,0,0,0-2.274,0L52.006,7.1ZM53,27a1,1,0,1,1,1,1A1,1,0,0,1,53,27ZM5,30H59a.984.984,0,0,1,.835.483L41.753,40H22.247L4.165,30.483A.985.985,0,0,1,5,30ZM59,60H5a1,1,0,0,1-1-1V58H60v1A1,1,0,0,1,59,60Z"></path></g></svg>