<svg xmlns="http://www.w3.org/2000/svg" viewBox="0 0 64 64" x="0px" y="0px"><g data-name="Save Time-Time Management-Hands-Time-Clock"><path d="M62.3,40.58a3.517,3.517,0,0,0-1.63-2.12,3.443,3.443,0,0,0-2.66-.35,3.492,3.492,0,0,0-2.13,1.63L55,41.27V28.5A3.5,3.5,0,0,0,51.5,25a3.18,3.18,0,0,0-.97.16,19,19,0,1,0-37.06-.01A3.451,3.451,0,0,0,12.5,25,3.5,3.5,0,0,0,9,28.5V41.27l-.88-1.53a3.492,3.492,0,0,0-2.13-1.63,3.413,3.413,0,0,0-2.65.35A3.5,3.5,0,0,0,1.7,40.58a3.532,3.532,0,0,0,.35,2.66L11,58.73V62h2V58.46a1.128,1.128,0,0,0-.13-.5L3.79,42.24a1.5,1.5,0,0,1,1.68-2.2,1.458,1.458,0,0,1,.91.7L9.13,45.5A1,1,0,0,0,10,46h1a5,5,0,0,1,5,5v2h2V51a7.008,7.008,0,0,0-7-7V28.5a1.5,1.5,0,0,1,2.56-1.06A1.481,1.481,0,0,1,14,28.5V41h2V31.21a19.58,19.58,0,0,0,3,3.61V41h2V36.46a18.66,18.66,0,0,0,3,1.75V41h2V39.01a17.749,17.749,0,0,0,3,.73V53.76l-1.89,3.79A1,1,0,0,0,27,58v4h2V58.24l1.89-3.79A1,1,0,0,0,31,54V39.95c.33.02.66.05,1,.05s.67-.03,1-.05V54a1,1,0,0,0,.11.45L35,58.24V62h2V58a1,1,0,0,0-.11-.45L35,53.76V39.74a17.749,17.749,0,0,0,3-.73V41h2V38.21a18.66,18.66,0,0,0,3-1.75V41h2V34.82a19.58,19.58,0,0,0,3-3.61V41h2V28.5a1.5,1.5,0,0,1,3,0V44a7.008,7.008,0,0,0-7,7v2h2V51a5,5,0,0,1,5-5h1a1,1,0,0,0,.87-.5l2.75-4.76a1.458,1.458,0,0,1,.91-.7,1.5,1.5,0,0,1,1.68,2.2L51.13,57.96a1.128,1.128,0,0,0-.13.5V62h2V58.73l8.95-15.49A3.532,3.532,0,0,0,62.3,40.58ZM32,38A17,17,0,1,1,49,21,17.024,17.024,0,0,1,32,38Z"></path><path d="M32,6A15,15,0,1,0,47,21,15.017,15.017,0,0,0,32,6ZM44.949,22a12.926,12.926,0,0,1-3.088,7.447l-1.376-1.376-1.414,1.414,1.376,1.376A12.926,12.926,0,0,1,33,33.949V32H31v1.949a12.919,12.919,0,0,1-7.447-3.088l1.376-1.376-1.414-1.414-1.376,1.376A12.926,12.926,0,0,1,19.051,22H21V20H19.051a12.926,12.926,0,0,1,3.088-7.447l1.376,1.376,1.414-1.414-1.376-1.376A12.919,12.919,0,0,1,31,8.051V10h2V8.051a12.926,12.926,0,0,1,7.447,3.088l-1.376,1.376,1.414,1.414,1.376-1.376A12.926,12.926,0,0,1,44.949,20H43v2Z"></path><path d="M33,18.184V12H31v6.184A3,3,0,0,0,29,21a2.951,2.951,0,0,0,.3,1.285l-3.008,3.008,1.414,1.414L30.715,23.7A2.951,2.951,0,0,0,32,24a2.993,2.993,0,0,0,1-5.816ZM32,22a1,1,0,1,1,1-1A1,1,0,0,1,32,22Z"></path></g></svg>