<svg xmlns="http://www.w3.org/2000/svg" viewBox="0 0 64 64" x="0px" y="0px"><g data-name="Payment"><rect x="24" y="34" width="1" height="3"></rect><rect x="21" y="34" width="1" height="3"></rect><path d="M23,20a3.949,3.949,0,0,1-1.924-.515A1.973,1.973,0,0,0,21,20a2,2,0,0,0,4,0,1.973,1.973,0,0,0-.076-.515A3.949,3.949,0,0,1,23,20Z"></path><rect x="21" y="39" width="4" height="1"></rect><polygon points="45 6 45 8 43 8 43 10 49 10 49 4 9 4 9 10 15 10 15 8 13 8 13 6 45 6"></polygon><path d="M37,45.414l-4.607-4.607a4.991,4.991,0,0,1,0-7.07l.7-.7a2.006,2.006,0,0,1,2.834,0L39.9,37H41V8H17V45a1,1,0,0,0,1,1H37ZM35,13h2v6H35Zm0,8h2v6H35Zm-4-8h2v2H31Zm0,4h2v2H31Zm0,4h2v2H31Zm0,4h2v2H31ZM27,41a1,1,0,0,1-1,1H20a1,1,0,0,1-1-1V33a1,1,0,0,1,1-1h6a1,1,0,0,1,1,1Zm0-21a4,4,0,1,1-7.449-2.01A3.951,3.951,0,0,1,19,16a4,4,0,0,1,8,0,3.951,3.951,0,0,1-.551,1.99A3.973,3.973,0,0,1,27,20Z"></path><path d="M49,60V36.66a2.98,2.98,0,0,0-.881-2.126L43,29.414V38a1,1,0,0,1-1,1H39.48a1,1,0,0,1-.707-.293l-4.26-4.26-.706.7a3.06,3.06,0,0,0-.832,2.679,3,3,0,0,0,.832,1.567l4.9,4.9A1,1,0,0,1,39,45v3a3,3,0,0,0,3,3v2a5.006,5.006,0,0,1-5-5H30v3a3.013,3.013,0,0,0,2.377,2.936A2,2,0,0,1,34,55.9V60Z"></path><circle cx="23" cy="16" r="2"></circle></g></svg>