<svg xmlns="http://www.w3.org/2000/svg" viewBox="0 0 64 64" x="0px" y="0px"><title>Patato</title><g><path d="M46.991,5.883C35.7-1.029,19.5,4.829,10.857,18.936A41.391,41.391,0,0,0,4.657,41.4c.295,7.953,3.428,14.15,8.821,17.452a18.71,18.71,0,0,0,9.868,2.608c10.146,0,21.847-6.681,28.447-17.46C60.431,29.894,58.276,12.794,46.991,5.883Zm3.1,37.073C41.854,56.4,24.57,63.3,14.522,57.147c-4.8-2.941-7.6-8.559-7.867-15.82A39.351,39.351,0,0,1,12.562,19.98C18.363,10.506,27.744,4.971,36.4,4.971a18.1,18.1,0,0,1,9.543,2.617C56.292,13.923,58.149,29.789,50.088,42.956Z"></path><path d="M26,12a3,3,0,1,0,3,3A3,3,0,0,0,26,12Zm0,4a1,1,0,1,1,1-1A1,1,0,0,1,26,16Z"></path><path d="M21,50a3,3,0,1,0,3,3A3,3,0,0,0,21,50Zm0,4a1,1,0,1,1,1-1A1,1,0,0,1,21,54Z"></path><path d="M48,31a3,3,0,1,0,3,3A3,3,0,0,0,48,31Zm0,4a1,1,0,1,1,1-1A1,1,0,0,1,48,35Z"></path><path d="M32.71,49.29a1.047,1.047,0,0,0-1.42,0,1.032,1.032,0,0,0-.21.33,1,1,0,1,0,1.84,0A1.032,1.032,0,0,0,32.71,49.29Z"></path><path d="M27.71,52.29a1.712,1.712,0,0,0-.15-.12.776.776,0,0,0-.18-.09.991.991,0,0,0-.76,0,.9.9,0,0,0-.54.54,1,1,0,1,0,1.84,0A1.155,1.155,0,0,0,27.71,52.29Z"></path><path d="M15.62,48.08a1.032,1.032,0,0,0-.33.21A1.045,1.045,0,0,0,15,49a1,1,0,1,0,2,0,1.05,1.05,0,0,0-.29-.71A1.017,1.017,0,0,0,15.62,48.08Z"></path><path d="M26.38,49.92a1.169,1.169,0,0,0,.33-.21A.994.994,0,0,0,27,49a1.029,1.029,0,0,0-.29-.71A1,1,0,0,0,25,49a.99.99,0,0,0,1.38.92Z"></path><path d="M20.29,47.71a1.155,1.155,0,0,0,.33.21.99.99,0,0,0,1.3-1.3,1.032,1.032,0,0,0-.21-.33,1,1,0,0,0-.16-.12,1.059,1.059,0,0,0-.17-.1,1.158,1.158,0,0,0-.191-.049,1,1,0,0,0-.9.27,1.032,1.032,0,0,0-.21.33A.838.838,0,0,0,20,47,.99.99,0,0,0,20.29,47.71Z"></path><path d="M23.71,43.29a1.169,1.169,0,0,0-.33-.21.916.916,0,0,0-.76,0,.9.9,0,0,0-.54.54A.838.838,0,0,0,22,44a1,1,0,1,0,1.92-.38A1.032,1.032,0,0,0,23.71,43.29Z"></path><path d="M42.71,8.29a1,1,0,0,0-1.09-.21,1.032,1.032,0,0,0-.33.21,1.155,1.155,0,0,0-.21.33,1,1,0,1,0,1.84,0A1.155,1.155,0,0,0,42.71,8.29Z"></path><path d="M37.56,7.17a.776.776,0,0,0-.18-.09.609.609,0,0,0-.191-.06.852.852,0,0,0-.389,0,.636.636,0,0,0-.18.06.782.782,0,0,0-.181.09l-.149.12A1.045,1.045,0,0,0,36,8a1,1,0,1,0,2,0,1.05,1.05,0,0,0-.29-.71Z"></path><path d="M19,19a1,1,0,0,0,.38-.08,1.169,1.169,0,0,0,.33-.21.99.99,0,0,0,.21-1.09,1.032,1.032,0,0,0-.21-.33,1,1,0,0,0-1.09-.21.9.9,0,0,0-.54.54A.838.838,0,0,0,18,18a.99.99,0,0,0,1,1Z"></path><path d="M16.7,20.29a.98.98,0,0,0-1.62.33.942.942,0,0,0,0,.76,1.169,1.169,0,0,0,.21.33,1.461,1.461,0,0,0,.33.22A1,1,0,0,0,16,22a.954.954,0,0,0,.7-.29,1.015,1.015,0,0,0,.22-.33.942.942,0,0,0,0-.76A.911.911,0,0,0,16.7,20.29Z"></path></g></svg>