<svg xmlns="http://www.w3.org/2000/svg" viewBox="0 0 64 64" x="0px" y="0px"><g><path d="M32,25a1,1,0,0,0-1,1v1h2V26A1,1,0,0,0,32,25Z"></path><polygon points="32 30.59 33.59 29 30.41 29 32 30.59"></polygon><path d="M49,12H15V44.66l2.44-4.22a4,4,0,0,1,5.46-1.47.865.865,0,0,1,.1.07V38a3.009,3.009,0,0,1,3-3h1.1a5.468,5.468,0,0,1-.1-1V33H23V31h4V29H26a3.009,3.009,0,0,1-3-3V24h2v2a1,1,0,0,0,1,1h3V26a3,3,0,0,1,1.85-2.77A2.02,2.02,0,0,0,29,22V20a3.967,3.967,0,0,1,3,1.38A3.967,3.967,0,0,1,35,20v2a2.02,2.02,0,0,0-1.85,1.23A3,3,0,0,1,35,26v1h3a1,1,0,0,0,1-1V24h2v2a3.009,3.009,0,0,1-3,3H37v2h4v2H37v1a5.468,5.468,0,0,1-.1,1H38a3.009,3.009,0,0,1,3,3v2H39V38a1,1,0,0,0-1-1H36v-.03a4.956,4.956,0,0,1-8,0V37H26a1,1,0,0,0-1,1v2h-.92a4.165,4.165,0,0,1,.69,1.4,4.038,4.038,0,0,1-.4,3.04l-3.26,5.64L21.88,52H49ZM19,23H17V21h2Zm3-7H19v3H17V15a1,1,0,0,1,1-1h4Z"></path><path d="M49,54H22.6a11.075,11.075,0,0,1,.4,2.93v1.3A11.529,11.529,0,0,1,22.85,60H44a5,5,0,0,0,5-5ZM34,58H30V56h4Z"></path><path d="M35,34V30.41l-2,2v4.41A3.01,3.01,0,0,0,35,34Z"></path><path d="M21,58.23v-1.3a9.149,9.149,0,0,0-.64-3.35l-1.29-3.21a1.023,1.023,0,0,1,.06-.87l3.5-6.06a1.974,1.974,0,0,0,.2-1.52,1.927,1.927,0,0,0-.93-1.21,1.988,1.988,0,0,0-2.73.73l-5,8.66-1.73-1,.56-.98V35.15l-4.51,7.8a14.956,14.956,0,0,0-1.92,9.16L7.561,61h13A8.945,8.945,0,0,0,21,58.23Z"></path><path d="M29,34a3.01,3.01,0,0,0,2,2.82V32.41l-2-2Z"></path><path d="M49,9a5,5,0,0,0-5-5H20a5,5,0,0,0-5,5v1H49ZM27,8H25V6h2Zm8,0H29V6h6Z"></path></g></svg>