<svg xmlns="http://www.w3.org/2000/svg" viewBox="0 0 64 64" x="0px" y="0px"><g data-name="Book"><path d="M50,16h7.382l-1.277-2.553a1,1,0,0,1,0-.894L57.382,10H50Z"></path><path d="M48,54V50H11a5.006,5.006,0,0,0-5,5,5.009,5.009,0,0,0,5,5H48V56H11V54Z"></path><path d="M6,50.105c.009-.009.02-.017.029-.027.078-.078.161-.15.242-.224s.168-.159.257-.233.175-.134.262-.2.183-.143.279-.209.189-.117.284-.175.194-.124.295-.18.205-.1.308-.151.2-.1.306-.148.227-.085.341-.126.2-.08.3-.112c.126-.04.256-.068.384-.1.1-.024.192-.054.29-.074.147-.031.3-.049.45-.07.083-.012.164-.029.249-.038A7.106,7.106,0,0,1,11,48h1V4H11A5.006,5.006,0,0,0,6,9Z"></path><path d="M48,4H14V48H48ZM43,36H19V34H43ZM23,30V28H39v2Zm21-7a1,1,0,0,1-1,1H19a1,1,0,0,1-1-1V13a1,1,0,0,1,1-1H43a1,1,0,0,1,1,1Z"></path><path d="M56.105,37.447a1,1,0,0,1,0-.894L57.382,34H50v6h7.382Z"></path><rect x="20" y="14" width="22" height="8"></rect><path d="M56.105,25.447a1,1,0,0,1,0-.894L57.382,22H50v6h7.382Z"></path></g></svg>