<svg xmlns="http://www.w3.org/2000/svg" viewBox="0 0 64 64" x="0px" y="0px"><title>Dot Line Graph Up</title><g data-name="Dot Line Graph Up"><path d="M7,60V2H5V4H2V6H5V18H2v2H5V32H2v2H5V46H2v2H5V61a1,1,0,0,0,1,1H62V60Z"></path><path d="M32.006,33.225l-6.862,16.79C25.1,50.012,25.049,50,25,50a2.967,2.967,0,0,0-1.575.458l-5.6-4.479A2.954,2.954,0,0,0,18,45a3,3,0,1,0-3,3,2.967,2.967,0,0,0,1.575-.458l5.6,4.479A2.954,2.954,0,0,0,22,53a3,3,0,1,0,4.994-2.225l6.862-16.79c.049,0,.095.015.144.015a2.951,2.951,0,0,0,1.285-.3L42.3,40.715A2.951,2.951,0,0,0,42,42a3,3,0,1,0,4.974-2.241l5.908-14.771c.04,0,.077.012.118.012a3.034,3.034,0,1,0-1.974-.759L45.118,39.012c-.04,0-.077-.012-.118-.012a2.951,2.951,0,0,0-1.285.3L36.7,32.285A2.951,2.951,0,0,0,37,31a3,3,0,1,0-4.994,2.225ZM15,46a1,1,0,1,1,1-1A1,1,0,0,1,15,46Zm10,8a1,1,0,1,1,1-1A1,1,0,0,1,25,54ZM53,21a1,1,0,1,1-1,1A1,1,0,0,1,53,21ZM45,43a1,1,0,1,1,1-1A1,1,0,0,1,45,43ZM34,30a1,1,0,1,1-1,1A1,1,0,0,1,34,30Z"></path><rect x="11" y="4" width="2" height="2"></rect><rect x="15" y="4" width="12" height="2"></rect><rect x="11" y="8" width="16" height="2"></rect><rect x="11" y="12" width="16" height="2"></rect></g></svg>