<svg xmlns="http://www.w3.org/2000/svg" viewBox="0 0 64 64" x="0px" y="0px"><g><path d="M11.414,56H52.586l-4-4H15.414ZM46,53h2v2H46Zm-4,0h2v2H42ZM24,53H40v2H24Zm-4,0h2v2H20Zm-4,0h2v2H16Z"></path><rect x="10" y="58" width="44" height="2"></rect><path d="M19,50H17V48a1,1,0,0,0-1-1H10a3,3,0,0,1,0-6h6a1,1,0,0,0,1-1V38h2v2a3,3,0,0,1-3,3H10a1,1,0,0,0,0,2h6a3,3,0,0,1,3,3Z"></path><polygon points="30.869 5 33.131 5 32 4.217 30.869 5"></polygon><path d="M35.566,18.98l-3.042,1.872a1,1,0,0,1-1.048,0L28.434,18.98,21.414,26H42.586Z"></path><polygon points="44 13.789 37.316 17.902 44 24.586 44 13.789"></polygon><polygon points="20.828 11.951 22 12.672 22 11.139 20.828 11.951"></polygon><polygon points="20 24.586 26.684 17.902 20 13.789 20 24.586"></polygon><path d="M24,13.9l8,4.923L40,13.9V7H24ZM28,9h8v2H28Zm0,4h8v2H28Z"></path><rect x="28" y="38" width="8" height="4"></rect><path d="M11,35a1,1,0,0,0,1,1H52a1,1,0,0,0,1-1V32H11Zm36-2h2v2H47Z"></path><polygon points="42 12.672 43.172 11.951 42 11.139 42 12.672"></polygon><rect x="23" y="44" width="18" height="2"></rect><path d="M53,9V30H11V9a1,1,0,0,1,1-1H22v.71l-3.57,2.47A.983.983,0,0,0,18,12V27a1,1,0,0,0,1,1H45a1,1,0,0,0,1-1V12a.983.983,0,0,0-.43-.82L42,8.71V8H52A1,1,0,0,1,53,9Z"></path></g></svg>