<svg xmlns="http://www.w3.org/2000/svg" viewBox="0 0 64 64" x="0px" y="0px"><g data-name="Rubber Tube"><polygon points="15.339 20.898 20 16.246 20 13.414 13.925 19.489 15.339 20.898"></polygon><path d="M26,40H22V52a4,4,0,0,1-4,4H4v4H21a5.006,5.006,0,0,0,5-5Z"></path><polygon points="34 20.382 37.236 22 40 22 40 10 37.236 10 34 11.618 34 20.382"></polygon><rect x="22" y="12" width="10" height="8"></rect><rect x="20" y="36" width="8" height="2"></rect><rect x="22" y="22" width="4" height="12"></rect><rect x="46" y="15" width="2" height="2"></rect><rect x="50" y="15" width="2" height="2"></rect><rect x="54" y="15" width="2" height="2"></rect><rect x="58" y="15" width="2" height="2"></rect><rect x="41.64" y="5.5" width="17.72" height="2" transform="translate(0.218 14.515) rotate(-16.391)"></rect><rect x="49.5" y="16.268" width="2.001" height="17.464" transform="translate(14.598 68.432) rotate(-76.759)"></rect><rect x="46" y="11" width="2" height="2"></rect><rect x="50" y="11" width="2" height="2"></rect><rect x="54" y="11" width="2" height="2"></rect><rect x="58" y="11" width="2" height="2"></rect><rect x="46" y="19" width="2" height="2"></rect><rect x="42" y="15" width="2" height="2"></rect><rect x="42" y="11" width="2" height="2"></rect><rect x="42" y="19" width="2" height="2"></rect><rect x="50" y="19" width="2" height="2"></rect><rect x="54" y="19" width="2" height="2"></rect><rect x="58" y="19" width="2" height="2"></rect></g></svg>