<svg xmlns="http://www.w3.org/2000/svg" viewBox="0 0 64 64" x="0px" y="0px"><g><path d="M33,56.184A2.966,2.966,0,0,1,34,56h7V42H23V56h7a2.966,2.966,0,0,1,1,.184V46h2ZM35,49h4v2H35Zm-6,2H25V49h4Z"></path><rect x="22" y="9" width="1" height="4"></rect><path d="M32,19a7.008,7.008,0,0,1-7-7v5a3,3,0,0,0,3,3h8a3,3,0,0,0,3-3V12A7.009,7.009,0,0,1,32,19Z"></path><rect x="50.257" y="33.379" width="6.485" height="2.243" transform="translate(-8.725 47.935) rotate(-45)"></rect><path d="M6.707,35.707a1.837,1.837,0,0,0,0,2.586,1.894,1.894,0,0,0,2.586,0L9.586,38,7,35.414Z"></path><polygon points="19 28.586 19 23.414 11.414 31 14 33.586 19 28.586"></polygon><rect x="21" y="22" width="2" height="18"></rect><path d="M32,7a5,5,0,1,0,5,5A5.006,5.006,0,0,0,32,7Zm2,5a2,2,0,0,0-2-2V8a4,4,0,0,1,4,4Z"></path><rect x="9.379" y="31.257" width="2.243" height="6.485" transform="translate(-21.32 17.529) rotate(-45)"></rect><path d="M21,59v1H31V59a1,1,0,0,0-1-1H22A1,1,0,0,0,21,59Z"></path><polygon points="45 28.586 50 33.586 52.586 31 45 23.414 45 28.586"></polygon><path d="M43,59a1,1,0,0,0-1-1H34a1,1,0,0,0-1,1v1H43Z"></path><path d="M57,35.414,54.414,38l.293.293a1.894,1.894,0,0,0,2.586,0,1.84,1.84,0,0,0,0-2.586Z"></path><rect x="28" y="30" width="8" height="5"></rect><rect x="41" y="22" width="2" height="18"></rect><path d="M39,22H25V40H39Zm-4,2h2v2H35Zm-4,0h2v2H31Zm-4,0h2v2H27ZM38,36a1,1,0,0,1-1,1H27a1,1,0,0,1-1-1V29a1,1,0,0,1,1-1H37a1,1,0,0,1,1,1Z"></path><path d="M25,12a7,7,0,0,1,14,0V7a3,3,0,0,0-3-3H28a3,3,0,0,0-3,3Z"></path><rect x="41" y="9" width="1" height="4"></rect></g></svg>