<svg xmlns="http://www.w3.org/2000/svg" viewBox="0 0 64 64" x="0px" y="0px"><g><path d="M23.542,15.46A2.985,2.985,0,0,1,23,13.739V8a2,2,0,0,0,2-2V4a2,2,0,0,0-2-2H15a2,2,0,0,0-2,2V6a2,2,0,0,0,2,2v5.739a2.992,2.992,0,0,1-.542,1.721L8.9,23.394A4.972,4.972,0,0,0,8,26.261V59a3,3,0,0,0,3,3H27a3,3,0,0,0,3-3V26.261a4.98,4.98,0,0,0-.9-2.867ZM15,4h8V6H15ZM10.542,24.54,16.1,16.606a4.98,4.98,0,0,0,.9-2.867V8h4v5.739a4.972,4.972,0,0,0,.9,2.867l5.555,7.934A2.992,2.992,0,0,1,28,26.261v8.474a5.906,5.906,0,0,1-1.9-.636,7.642,7.642,0,0,0-3.767-.9,7.642,7.642,0,0,0-3.767.9,5.707,5.707,0,0,1-2.9.7,5.7,5.7,0,0,1-2.9-.7A7.68,7.68,0,0,0,10,33.255V26.261A2.985,2.985,0,0,1,10.542,24.54ZM27,60H11a1,1,0,0,1-1-1V35.265a5.9,5.9,0,0,1,1.9.636,7.636,7.636,0,0,0,3.765.9,7.642,7.642,0,0,0,3.767-.9,5.71,5.71,0,0,1,2.9-.7,5.71,5.71,0,0,1,2.9.7A7.692,7.692,0,0,0,28,36.745V59A1,1,0,0,1,27,60Z"></path><path d="M53.954,36.086a2,2,0,0,0-2-2.086H36.044a2,2,0,0,0-2,2.087L35,58.021V60a2,2,0,0,0,2,2H51a2,2,0,0,0,2-2V58.021ZM36.311,42.148c.263-.056.509-.115.751-.173a13.065,13.065,0,0,1,3.608-.435,13.161,13.161,0,0,1,3.6.432,15.051,15.051,0,0,0,4.073.488,14.843,14.843,0,0,0,3.349-.325L51.043,57H36.957ZM51.956,36l-.177,4.063a12.864,12.864,0,0,1-3.439.4,13.172,13.172,0,0,1-3.608-.433,15.034,15.034,0,0,0-4.062-.487,14.988,14.988,0,0,0-4.078.49c-.124.03-.247.057-.369.086L36.044,36ZM37,60V59H51v1Z"></path></g></svg>