<svg xmlns="http://www.w3.org/2000/svg" viewBox="0 0 64 64" x="0px" y="0px"><g><path d="M59,19H56V4a2.006,2.006,0,0,0-2-2H26a2.006,2.006,0,0,0-2,2v8H21a3.009,3.009,0,0,0-3,3V32.05c-.33-.02-.66-.05-1-.05A15,15,0,1,0,31.44,51H59a3.009,3.009,0,0,0,3-3V22A3.009,3.009,0,0,0,59,19ZM26,4H54V27H48.51l-4.7-6.58A1,1,0,0,0,43,20H26ZM20,15a1,1,0,0,1,1-1h3v6H20ZM17,60A13,13,0,1,1,30,47,13.012,13.012,0,0,1,17,60ZM60,48a1,1,0,0,1-1,1H31.85A14.712,14.712,0,0,0,32,47,15.034,15.034,0,0,0,20,32.3V22H42.49l4.7,6.58A1,1,0,0,0,48,29H60Zm0-21H56V21h3a1,1,0,0,1,1,1Z"></path><rect x="30" y="8" width="20" height="2"></rect><rect x="30" y="12" width="20" height="2"></rect><rect x="30" y="16" width="20" height="2"></rect><path d="M17,36A11,11,0,1,0,28,47,11.013,11.013,0,0,0,17,36Zm8.941,12a8.956,8.956,0,0,1-1.916,4.611l-1.368-1.368-1.414,1.414,1.368,1.368A8.956,8.956,0,0,1,18,55.941V54H16v1.941a8.956,8.956,0,0,1-4.611-1.916l1.368-1.368-1.414-1.414L9.975,52.611A8.956,8.956,0,0,1,8.059,48H10V46H8.059a8.956,8.956,0,0,1,1.916-4.611l1.368,1.368,1.414-1.414-1.368-1.368A8.956,8.956,0,0,1,16,38.059V40h2V38.059a8.956,8.956,0,0,1,4.611,1.916l-1.368,1.368,1.414,1.414,1.368-1.368A8.956,8.956,0,0,1,25.941,46H24v2Z"></path><path d="M16,46.586l-1.707,1.707,1.414,1.414,2-2A1,1,0,0,0,18,47V42H16Z"></path></g></svg>