<svg xmlns="http://www.w3.org/2000/svg" viewBox="0 0 64 64" x="0px" y="0px"><g data-name="Lawyer Bag"><path d="M15,42c0,1.223,2.337,3,6,3s6-1.777,6-3V41H15Z"></path><circle cx="32" cy="26" r="1"></circle><polygon points="37 38.271 37 39 49 39 49 38.271 43 27.985 37 38.271"></polygon><polygon points="15 38.271 15 39 27 39 27 38.271 21 27.985 15 38.271"></polygon><path d="M37,42c0,1.223,2.337,3,6,3s6-1.777,6-3V41H37Z"></path><path d="M60,19a1,1,0,0,0-1-1H5a1,1,0,0,0-1,1V30.42L10.266,34H12v2H10a.993.993,0,0,1-.5-.132l-3.5-2V57a1,1,0,0,0,1,1H57a1,1,0,0,0,1-1V33.866l-3.5,2A.993.993,0,0,1,54,36H52V34h1.734L60,30.42ZM11,22H8v3H6V21a1,1,0,0,1,1-1h4Zm2,3h2v2H13ZM23,56H21V54h2Zm20,0H41V54h2Zm8-14c0,2.757-3.589,5-8,5s-8-2.243-8-5V38a1,1,0,0,1,.136-.5L41.258,27H34.816A3,3,0,0,1,33,28.816V54h6v2H25V54h6V28.816A3,3,0,0,1,29.184,27H22.742l6.122,10.5A1,1,0,0,1,29,38v4c0,2.757-3.589,5-8,5s-8-2.243-8-5V38a1,1,0,0,1,.136-.5L19.258,27H17V25H29.184a2.982,2.982,0,0,1,5.632,0H47v2H44.742l6.122,10.5A1,1,0,0,1,51,38Zm0-15H49V25h2Zm7-2H56V22H53V20h4a1,1,0,0,1,1,1Z"></path><rect x="20" y="12" width="2" height="4"></rect><rect x="42" y="12" width="2" height="4"></rect><path d="M44,8a2,2,0,0,0-2-2H22a2,2,0,0,0-2,2v2h2V9a1,1,0,0,1,1-1H41a1,1,0,0,1,1,1v1h2Z"></path></g></svg>