<svg xmlns="http://www.w3.org/2000/svg" viewBox="0 0 64 64" x="0px" y="0px"><g><path d="M14,31V24a3,3,0,0,1,3-3h1.04a46.77,46.77,0,0,1,1.468-5.738,29.7,29.7,0,0,1-6.355-3.95A27.935,27.935,0,0,0,4.025,31Z"></path><path d="M20.186,50.627A27.732,27.732,0,0,0,14.712,54a27.9,27.9,0,0,0,10.955,5.268A22.813,22.813,0,0,1,20.186,50.627Z"></path><path d="M31,4.085c-3.51.6-6.74,4.335-8.968,10.084A27.713,27.713,0,0,0,31,15.976Z"></path><path d="M31,59.915V48.024a27.749,27.749,0,0,0-8.969,1.806C24.259,55.58,27.49,59.315,31,59.915Z"></path><path d="M19.508,48.737A46.573,46.573,0,0,1,18.04,43H17a3,3,0,0,1-3-3V33H4.025a27.935,27.935,0,0,0,9.128,19.688A29.739,29.739,0,0,1,19.508,48.737Z"></path><path d="M31,43H20.077a44.067,44.067,0,0,0,1.283,4.946A29.727,29.727,0,0,1,31,46.024Z"></path><path d="M25.667,4.731A27.9,27.9,0,0,0,14.712,10a27.68,27.68,0,0,0,5.474,3.373A22.817,22.817,0,0,1,25.667,4.731Z"></path><path d="M31,17.976a29.707,29.707,0,0,1-9.64-1.923A44.3,44.3,0,0,0,20.077,21H31Z"></path><path d="M50,33v7a3,3,0,0,1-3,3H45.96a46.77,46.77,0,0,1-1.468,5.738,29.7,29.7,0,0,1,6.355,3.95A27.935,27.935,0,0,0,59.975,33Z"></path><path d="M33,46.024a29.707,29.707,0,0,1,9.64,1.923A44.3,44.3,0,0,0,43.923,43H33Z"></path><path d="M33,21H43.923a44.067,44.067,0,0,0-1.283-4.946A29.727,29.727,0,0,1,33,17.976Z"></path><path d="M38.333,59.269A27.9,27.9,0,0,0,49.288,54a27.68,27.68,0,0,0-5.474-3.373A22.817,22.817,0,0,1,38.333,59.269Z"></path><path d="M41.968,49.831A27.713,27.713,0,0,0,33,48.024V59.915C36.51,59.315,39.74,55.58,41.968,49.831Z"></path><path d="M50.847,11.312a29.739,29.739,0,0,1-6.355,3.951A46.573,46.573,0,0,1,45.96,21H47a3,3,0,0,1,3,3v7h9.975A27.935,27.935,0,0,0,50.847,11.312Z"></path><path d="M49.288,10A27.9,27.9,0,0,0,38.333,4.731a22.813,22.813,0,0,1,5.481,8.642A27.732,27.732,0,0,0,49.288,10Z"></path><path d="M48,40V24a1,1,0,0,0-1-1H17a1,1,0,0,0-1,1V40a1,1,0,0,0,1,1H47A1,1,0,0,0,48,40Zm-2.707-.293-8.824-8.824-3.127,1.564a3.014,3.014,0,0,1-2.683,0l-3.128-1.564-8.824,8.824-1.414-1.414,8.352-8.352L17.553,25.9l.894-1.79,13.106,6.553a1,1,0,0,0,.895,0l13.1-6.553.894,1.79-8.092,4.046,8.352,8.352Z"></path><path d="M33,4.085V15.976a27.749,27.749,0,0,0,8.969-1.806C39.741,8.42,36.51,4.685,33,4.085Z"></path></g></svg>