<svg xmlns="http://www.w3.org/2000/svg" viewBox="0 0 64 64" x="0px" y="0px"><g><rect x="20" y="6" width="2" height="2"></rect><rect x="24" y="6" width="8" height="2"></rect><path d="M30,42H26a3,3,0,0,0,0,6h4a3,3,0,0,0,0-6Zm0,4H26a1,1,0,0,1,0-2h4a1,1,0,0,1,0,2Z"></path><path d="M4,28H6V16.414l1.293,1.293,1.414-1.414-3-3a1,1,0,0,0-1.414,0l-3,3,1.414,1.414L4,16.414Z"></path><path d="M50,16.414V28h2V16.414l1.293,1.293,1.414-1.414-3-3a1,1,0,0,0-1.414,0l-3,3,1.414,1.414Z"></path><path d="M56,46a3.94,3.94,0,0,0-2.57.94A4.012,4.012,0,0,0,50,45a3.94,3.94,0,0,0-2.57.94A3.985,3.985,0,0,0,45,44.13V9a7.008,7.008,0,0,0-7-7H18a7.008,7.008,0,0,0-7,7V27.3a3.026,3.026,0,0,0-1.45,1.44L5.01,38.59A11.085,11.085,0,0,0,4,43.19V62H6V43.19a9.038,9.038,0,0,1,.83-3.76L11,30.38V45a6.922,6.922,0,0,0,.43,2.39l-.99,1.71,1.73,1,6-10.39a2,2,0,0,1,1.21-.94,2.06,2.06,0,0,1,1.52.2,2.009,2.009,0,0,1,.73,2.74l-4.5,7.79a1.031,1.031,0,0,0,.01,1.02l2.14,3.56A4.987,4.987,0,0,1,20,56.65v5.34h2V56.65a7.026,7.026,0,0,0-1-3.6L20.37,52h6.17a4.033,4.033,0,0,0,.4,3.04l4.31,7.46,1.73-1-4.31-7.46a2,2,0,0,1,2.25-2.94,1.942,1.942,0,0,1,1.21.94l2,3.46a1.022,1.022,0,0,0,1.13.47A1,1,0,0,0,36,55V36a2,2,0,0,1,4,0V52a1,1,0,0,0,2,0V48a2,2,0,0,1,4,0v4a1,1,0,0,0,2,0V49a2,2,0,0,1,4,0v3a1,1,0,0,0,2,0V50a2,2,0,0,1,4,0V62h2V50A4,4,0,0,0,56,46ZM43,44.13a3.974,3.974,0,0,0-1,.41V36a4,4,0,0,0-8,0V50H32.99a4.084,4.084,0,0,0-1.55-.83,4.038,4.038,0,0,0-3.04.4,4.247,4.247,0,0,0-.59.43H19.17l-.01-.01,4.21-7.28a4,4,0,1,0-6.93-4L13,44.66V9a5,5,0,0,1,5-5H38a5,5,0,0,1,5,5Z"></path><path d="M27,21h2a1,1,0,0,1,1,1h2a3,3,0,0,0-3-3V18H27v1a3,3,0,0,0,0,6h2a1,1,0,0,1,0,2H27a1,1,0,0,1-1-1H24a3,3,0,0,0,3,3v1h2V29a3,3,0,0,0,0-6H27a1,1,0,0,1,0-2Z"></path><path d="M28,14A10,10,0,1,0,38,24,10.011,10.011,0,0,0,28,14Zm0,18a8,8,0,1,1,8-8A8.009,8.009,0,0,1,28,32Z"></path><rect x="50" y="30" width="2" height="2"></rect><rect x="50" y="34" width="2" height="2"></rect><rect x="4" y="30" width="2" height="2"></rect></g></svg>