<svg xmlns="http://www.w3.org/2000/svg" viewBox="0 0 64 64" x="0px" y="0px"><g><path d="M31.343,33.343a8,8,0,1,0,11.314,0A8.01,8.01,0,0,0,31.343,33.343Zm9.9,9.9a6,6,0,1,1,0-8.486A6.01,6.01,0,0,1,41.243,43.243Z"></path><path d="M59.627,55.971,52,48.344V12a1.006,1.006,0,0,0-.168-.555l-6-9A1,1,0,0,0,45,2H11a1,1,0,0,0-.832.445l-6,9A1.006,1.006,0,0,0,4,12V49a3,3,0,0,0,3,3H44.538a.982.982,0,0,0,.24.435l9.193,9.192a2,2,0,0,0,2.828,0L59.627,58.8A2,2,0,0,0,59.627,55.971ZM23,19H6V13H23Zm2-6h6V23.586l-2.293-2.293a1,1,0,0,0-1.414,0L25,23.586Zm8,0H50v6H33ZM11.535,4h32.93l4.667,7H6.868ZM6,49V21H23v5a1,1,0,0,0,1.707.707L28,23.414l3.293,3.293A1,1,0,0,0,33,26V21H50V46.547a1.015,1.015,0,0,0-.979.231l-1.694-1.693A12.012,12.012,0,1,0,32.23,50H7A1,1,0,0,1,6,49Zm38.071-2.929a10,10,0,1,1,0-14.142A10.011,10.011,0,0,1,44.071,46.071Zm-.986,3.256.672.673H41.77A11.809,11.809,0,0,0,43.085,49.327Zm3.107.28-1.45-1.45c.253-.215.505-.433.743-.672s.457-.489.672-.743l1.45,1.45Zm3.536-.708,1.414,1.415-2.828,2.828L46.9,51.728Zm8.485,8.486-2.828,2.828-5.657-5.657,2.828-2.828,5.658,5.656Z"></path></g></svg>