<svg xmlns="http://www.w3.org/2000/svg" viewBox="0 0 64 64" x="0px" y="0px"><g data-name="Joystick"><path d="M17,32A11,11,0,1,0,28,43,11.013,11.013,0,0,0,17,32Zm0,20a9,9,0,1,1,9-9A9.011,9.011,0,0,1,17,52Z"></path><path d="M47,32A11,11,0,1,0,58,43,11.013,11.013,0,0,0,47,32Zm0,20a9,9,0,1,1,9-9A9.011,9.011,0,0,1,47,52Z"></path><path d="M48,42a3,3,0,1,0-3-3A3,3,0,0,0,48,42Zm0-4a1,1,0,1,1-1,1A1,1,0,0,1,48,38Z"></path><path d="M52,41a3,3,0,1,0,3,3A3,3,0,0,0,52,41Zm0,4a1,1,0,1,1,1-1A1,1,0,0,1,52,45Z"></path><path d="M46,44a3,3,0,1,0,3,3A3,3,0,0,0,46,44Zm0,4a1,1,0,1,1,1-1A1,1,0,0,1,46,48Z"></path><path d="M45,42a3,3,0,1,0-3,3A3,3,0,0,0,45,42Zm-3,1a1,1,0,1,1,1-1A1,1,0,0,1,42,43Z"></path><path d="M20,40V37a1,1,0,0,0-1-1H15a1,1,0,0,0-1,1v3H11a1,1,0,0,0-1,1v4a1,1,0,0,0,1,1h3v3a1,1,0,0,0,1,1h4a1,1,0,0,0,1-1V46h3a1,1,0,0,0,1-1V41a1,1,0,0,0-1-1Zm2,4H19a1,1,0,0,0-1,1v3H16V45a1,1,0,0,0-1-1H12V42h3a1,1,0,0,0,1-1V38h2v3a1,1,0,0,0,1,1h3Z"></path><path d="M51,28.558V27a2,2,0,0,0-2-2H45a2,2,0,0,0-2,2v1H21V27a2,2,0,0,0-2-2H15a2,2,0,0,0-2,2v1.558A14.992,14.992,0,0,0,17,58H47a14.992,14.992,0,0,0,4-29.442ZM45,27h4v1.149A14.99,14.99,0,0,0,47,28H45ZM15,27h4v1H17a14.99,14.99,0,0,0-2,.149ZM47,56H17a13,13,0,0,1,0-26H47a13,13,0,0,1,0,26Z"></path><rect x="27" y="34" width="2" height="2"></rect><rect x="31" y="34" width="2" height="2"></rect><rect x="35" y="34" width="2" height="2"></rect><rect x="29" y="48" width="2" height="2"></rect><rect x="33" y="48" width="2" height="2"></rect><path d="M29,21a3,3,0,1,0,3-3A3,3,0,0,0,29,21Zm4,0a1,1,0,1,1-1-1A1,1,0,0,1,33,21Z"></path><path d="M36.95,16.05a7.009,7.009,0,0,0-9.9,0l1.414,1.414a5.008,5.008,0,0,1,7.072,0Z"></path><path d="M39.778,13.222a11.012,11.012,0,0,0-15.556,0l1.414,1.414a9.01,9.01,0,0,1,12.728,0Z"></path><path d="M41.192,11.808l1.414-1.414a15.015,15.015,0,0,0-21.212,0l1.414,1.414A13.013,13.013,0,0,1,41.192,11.808Z"></path></g></svg>