<svg xmlns="http://www.w3.org/2000/svg" viewBox="0 0 64 64" x="0px" y="0px"><path d="M50,9H27.79A17.076,17.076,0,0,0,10.843,24.661L9.076,47H7a5.006,5.006,0,0,0-5,5v2a1,1,0,0,0,1,1H9a5,5,0,0,0,4-2,5,5,0,0,0,4,2h6a1,1,0,0,0,1-1V52a5.006,5.006,0,0,0-5-5H17.2l1.558-8.285A7,7,0,0,1,25.64,33H27v6a1,1,0,0,0,.676.946A1.01,1.01,0,0,0,28,40a1,1,0,0,0,.789-.386L33.933,33H59a3,3,0,0,0,3-3V21A12.013,12.013,0,0,0,50,9ZM40,26.913l4-.364v.381Zm6-.545,2-.182v.76l-2-.008ZM50,26l2-.182v1.141l-2-.009Zm4-.363,2-.182v1.52l-2-.008Zm4-.364,2-.182V27l-2-.008ZM59,31H35.489l.3-.386-1.578-1.228L29,36.086V29H27v2H25.64A9,9,0,0,0,16.8,38.346l-1.78,9.469A1,1,0,0,0,16,49h3a3,3,0,0,1,3,3v1H17a3,3,0,0,1-3-3,1,1,0,0,0-2,0,3,3,0,0,1-3,3H4V52a3,3,0,0,1,3-3h3a1,1,0,0,0,1-.921l1.84-23.261A15.065,15.065,0,0,1,27.79,11H50A10.011,10.011,0,0,1,60,21v2.087L39.818,24.921A2.046,2.046,0,0,0,40,29H60v1A1,1,0,0,1,59,31Z"></path><rect x="34" y="25" width="2" height="2"></rect><path d="M39.707,18.979l2.67-.715a1,1,0,0,0,.707-1.225l-1.036-3.863a1,1,0,0,0-1.225-.707l-2.67.715-1.959-.4a1.019,1.019,0,0,0-.459.014l-8.693,2.329a1,1,0,0,0-.707,1.225l1.553,5.8a1,1,0,0,0,.966.742,1.033,1.033,0,0,0,.258-.034l8.694-2.33a1,1,0,0,0,.405-.217Zm-2.647-.326-7.5,2.01L28.525,16.8l1.932-.518.776,2.9,1.932-.518-.776-2.9,3.636-.974,1.959.4a.976.976,0,0,0,.459-.013l1.932-.518.519,1.932-1.933.517a1,1,0,0,0-.405.218Z"></path><path d="M53,35H49a1,1,0,0,0-1,1v4H44V36a1,1,0,0,0-1-1H39a1,1,0,0,0-1,1V53a3,3,0,0,0,3,3H51a3,3,0,0,0,3-3V36A1,1,0,0,0,53,35ZM52,53a1,1,0,0,1-1,1H41a1,1,0,0,1-1-1V37h2v4a1,1,0,0,0,1,1h6a1,1,0,0,0,1-1V37h2Z"></path><polygon points="47.414 45.172 46 46.586 44.586 45.172 43.172 46.586 44.586 48 43.172 49.414 44.586 50.828 46 49.414 47.414 50.828 48.828 49.414 47.414 48 48.828 46.586 47.414 45.172"></polygon></svg>