<svg xmlns="http://www.w3.org/2000/svg" viewBox="0 0 64 64" x="0px" y="0px"><g><rect x="8" y="20" width="4" height="2"></rect><rect x="14" y="20" width="6" height="2"></rect><rect x="8" y="24" width="12" height="2"></rect><path d="M52.293,19.293l-1.826,1.826A13.083,13.083,0,0,0,48,19.063V5a3,3,0,0,0-3-3H5A3,3,0,0,0,2,5V59a3,3,0,0,0,3,3H39a1,1,0,0,0,.707-.293l8-8A1,1,0,0,0,48,53V41.3A12.938,12.938,0,0,0,51,33a1,1,0,0,0-1-1H48V31h5a1,1,0,0,0,1-1,12.916,12.916,0,0,0-2.266-7.32L53.414,21H56V19H53A1,1,0,0,0,52.293,19.293ZM40,58.586V55a1,1,0,0,1,1-1h3.586ZM38,44a10.981,10.981,0,0,1-9.657-16.243l1.95,1.95,1.414-1.414L29.48,26.066A10.979,10.979,0,0,1,37,22.045V33a1,1,0,0,0,1,1H48.955A11.015,11.015,0,0,1,38,44Zm8-12H39V21a1,1,0,0,0-1-1,12.971,12.971,0,0,0-9.943,4.643l-2.35-2.35A1,1,0,0,0,25,22H22v2h2.586l2.3,2.3A12.977,12.977,0,0,0,46,43.226V52H41a3,3,0,0,0-3,3v5H5a1,1,0,0,1-1-1V5A1,1,0,0,1,5,4H45a1,1,0,0,1,1,1V18a12.931,12.931,0,0,0-5-1,1,1,0,0,0-1,1V30a1,1,0,0,0,1,1h5Zm5.955-3H42V19.045a10.97,10.97,0,0,1,7.055,3.486l-1.762,1.762,1.414,1.414,1.58-1.58A10.915,10.915,0,0,1,51.955,29Z"></path><rect x="58" y="17" width="4" height="2"></rect><rect x="58" y="21" width="4" height="2"></rect><rect x="8" y="8" width="4" height="2"></rect><rect x="14" y="8" width="8" height="2"></rect><rect x="8" y="12" width="14" height="2"></rect><rect x="8" y="42" width="2" height="2"></rect><rect x="12" y="42" width="10" height="2"></rect><rect x="8" y="46" width="14" height="2"></rect><rect x="8" y="50" width="16" height="2"></rect></g></svg>