<svg xmlns="http://www.w3.org/2000/svg" viewBox="0 0 64 64" x="0px" y="0px"><g data-name="Smartphone-Mobilephone-Payment-Online Payment-Money"><path d="M24,22H15.23l-3.78,1.89A1,1,0,0,1,11,24H7V38H17V31.31c-.11.05-.21.12-.32.17a7.056,7.056,0,0,1-2.64.52h-.05L14,30a4.938,4.938,0,0,0,4.17-2.24c.09-.14.17-.28.25-.43A4.935,4.935,0,0,0,19,25a1,1,0,0,1,1-1h1l3,.01a1,1,0,0,0,.69-.3.954.954,0,0,0,.31-.72.984.984,0,0,0-.29-.7A.957.957,0,0,0,24,22Z"></path><rect x="22" y="26" width="1" height="18"></rect><path d="M39,44V41.14A4.017,4.017,0,0,0,36.14,44Z"></path><path d="M39,16H36.14A4.017,4.017,0,0,0,39,18.86Z"></path><path d="M25,44h2.86A4.017,4.017,0,0,0,25,41.14Z"></path><path d="M19.83,28.86A6.761,6.761,0,0,1,19,29.87V44h1V28.58C19.94,28.67,19.9,28.77,19.83,28.86Z"></path><path d="M52,4H28a5,5,0,0,0-5,5v5H39V12h2V48H39V46H23v9a5,5,0,0,0,5,5H52a5,5,0,0,0,5-5V9A5,5,0,0,0,52,4ZM33,8H31V6h2Zm9,50H38a3,3,0,0,1,0-6h4a3,3,0,0,1,0,6ZM45,8H35V6H45Z"></path><path d="M38,56h4a1,1,0,0,0,0-2H38a1,1,0,0,0,0,2Z"></path><circle cx="32" cy="30" r="3"></circle><path d="M27.87,16H25v2.86A4.013,4.013,0,0,0,27.87,16Z"></path><rect x="19" y="16" width="1" height="4"></rect><rect x="22" y="16" width="1" height="4"></rect><path d="M25,25.82V39.09A5.992,5.992,0,0,1,29.91,44h4.18A5.992,5.992,0,0,1,39,39.09V20.91A5.992,5.992,0,0,1,34.09,16H29.91a6,6,0,0,1-4.02,4.69,2.11,2.11,0,0,1,.23.19,2.982,2.982,0,0,1-.01,4.24A2.873,2.873,0,0,1,25,25.82ZM32,25a5,5,0,1,1-5,5A5.006,5.006,0,0,1,32,25Z"></path></g></svg>