<svg xmlns="http://www.w3.org/2000/svg" viewBox="0 0 64 64" x="0px" y="0px"><g><polygon points="9.04 62 9.96 36 7 36 7 62 9.04 62"></polygon><path d="M7,28H18a1,1,0,0,0,0-2H7Z"></path><path d="M17,18H8v2h9a1,1,0,0,0,0-2Z"></path><rect x="4" y="30" width="56" height="4"></rect><polygon points="59 62 59 36 56.04 36 56.96 62 59 62"></polygon><path d="M46,27a1,1,0,0,0-1-1H37a1,1,0,0,0-1,1v1H46Z"></path><path d="M53,4H29a1,1,0,0,0-1,1V16H54V5A1,1,0,0,0,53,4Z"></path><rect x="39" y="22" width="4" height="2"></rect><path d="M54,19V18H28v1a1,1,0,0,0,1,1H53A1,1,0,0,0,54,19Z"></path><path d="M4,23a1,1,0,0,0,1,1H16V22H5A1,1,0,0,0,4,23Z"></path><rect x="24" y="44" width="16" height="4"></rect><polygon points="40 62 40 50 37.07 50 37.93 62 40 62"></polygon><polygon points="24 62 26.07 62 26.93 50 24 50 24 62"></polygon></g></svg>