<svg xmlns="http://www.w3.org/2000/svg" viewBox="0 0 64 64" x="0px" y="0px"><g><path d="M61,50H60V19a5.006,5.006,0,0,0-5-5H50V8a2,2,0,0,0-2-2H28a2,2,0,0,0-2,2v6H9a5.006,5.006,0,0,0-5,5V50H3a1,1,0,0,0-1,1v4a3,3,0,0,0,3,3H59a3,3,0,0,0,3-3V51A1,1,0,0,0,61,50ZM28,8H48V23.586l-3.293-3.293A1,1,0,0,0,44,20H28ZM6,19a3,3,0,0,1,3-3H26v4a2,2,0,0,0,2,2H43.586l4.707,4.707A1,1,0,0,0,50,26V16h5a3,3,0,0,1,3,3V50H6ZM27,52H37v1H27Zm33,3a1,1,0,0,1-1,1H5a1,1,0,0,1-1-1V52H25v1a2,2,0,0,0,2,2H37a2,2,0,0,0,2-2V52H60Z"></path><rect x="33" y="13" width="2" height="2"></rect><rect x="37" y="13" width="2" height="2"></rect><rect x="41" y="13" width="2" height="2"></rect><rect x="33" y="33" width="4" height="2"></rect><rect x="39" y="33" width="10" height="2"></rect><rect x="33" y="37" width="16" height="2"></rect><rect x="33" y="41" width="16" height="2"></rect><path d="M30,41V31a2,2,0,0,0-2-2H12a2,2,0,0,0-2,2V41a2,2,0,0,0,2,2H28A2,2,0,0,0,30,41ZM27.2,31l-6.642,4.428a1,1,0,0,1-1.11,0L12.8,31ZM12,32.868l6.336,4.224a2.989,2.989,0,0,0,3.328,0L28,32.868V41H12Z"></path></g></svg>