<svg xmlns="http://www.w3.org/2000/svg" viewBox="0 0 64 64" x="0px" y="0px"><title>Speech Bubble_29</title><g data-name="Speech Bubble"><path d="M32,2A30,30,0,1,0,62,32,30.034,30.034,0,0,0,32,2Zm0,58A28,28,0,1,1,60,32,28.032,28.032,0,0,1,32,60Z"></path><path d="M55.825,24.435a1,1,0,0,0-.667-.422,150.581,150.581,0,0,0-46.346,0,1,1,0,0,0-.79,1.191l3,14a1,1,0,0,0,1.165.773,104.528,104.528,0,0,1,19.28-1.758,6.894,6.894,0,0,1-.324,7.261,1,1,0,0,0,1.2,1.454c.337-.123,7.8-2.916,8.644-8.355A94.468,94.468,0,0,1,51.8,39.979a1,1,0,0,0,1.183-.77l3-14A1,1,0,0,0,55.825,24.435Zm-4.6,13.4a105.837,105.837,0,0,0-11.094-1.318,1.025,1.025,0,0,0-.756.271,1,1,0,0,0-.314.738c.036,2.987-2.891,5.193-5.076,6.422a8.586,8.586,0,0,0-1.2-7.337,1.323,1.323,0,0,0-1.09-.386A107.369,107.369,0,0,0,12.774,37.84L10.2,25.811a150.508,150.508,0,0,1,43.605.014Z"></path></g></svg>