<svg xmlns="http://www.w3.org/2000/svg" viewBox="0 0 64 64" x="0px" y="0px"><g><rect x="23" y="58" width="18" height="2"></rect><circle cx="19" cy="25" r="2"></circle><polygon points="27.883 50 27.133 56 36.867 56 36.117 50 27.883 50"></polygon><path d="M24.748,23.286a5.967,5.967,0,0,0-.469-1.139,1,1,0,0,1,.172-1.184l1.62-1.62-1.414-1.414-1.62,1.62a1,1,0,0,1-1.184.172,5.967,5.967,0,0,0-1.139-.469A1,1,0,0,1,20,18.294V16H18v2.294a1,1,0,0,1-.714.958,5.967,5.967,0,0,0-1.139.469,1,1,0,0,1-1.184-.172l-1.62-1.62-1.414,1.414,1.62,1.62a1,1,0,0,1,.172,1.184,5.967,5.967,0,0,0-.469,1.139,1,1,0,0,1-.958.714H10v2h2.294a1,1,0,0,1,.958.714,5.967,5.967,0,0,0,.469,1.139,1,1,0,0,1-.172,1.184l-1.62,1.62,1.414,1.414,1.62-1.62a1,1,0,0,1,1.184-.172,5.967,5.967,0,0,0,1.139.469,1,1,0,0,1,.714.958V34h2V31.706a1,1,0,0,1,.714-.958,5.967,5.967,0,0,0,1.139-.469,1,1,0,0,1,1.184.172l1.62,1.62,1.414-1.414-1.62-1.62a1,1,0,0,1-.172-1.184,5.967,5.967,0,0,0,.469-1.139A1,1,0,0,1,25.706,26H28V24H25.706A1,1,0,0,1,24.748,23.286ZM19,29a4,4,0,1,1,4-4A4,4,0,0,1,19,29Z"></path><path d="M60,13a3,3,0,0,0-3-3H7a3,3,0,0,0-3,3V40H60ZM47,13h4v2H47Zm-4,0h2v2H43Zm0,4h8v2H43Zm0,12h6v2H43ZM30,27a1,1,0,0,1-1,1H26.416l-.051.123,1.827,1.827a1,1,0,0,1,0,1.414l-2.828,2.828a1,1,0,0,1-1.414,0l-1.827-1.827L22,32.416V35a1,1,0,0,1-1,1H17a1,1,0,0,1-1-1V32.416l-.123-.051L14.05,34.192a1,1,0,0,1-1.414,0L9.808,31.364a1,1,0,0,1,0-1.414l1.827-1.827L11.584,28H9a1,1,0,0,1-1-1V23a1,1,0,0,1,1-1h2.584l.051-.123L9.808,20.05a1,1,0,0,1,0-1.414l2.828-2.828a1,1,0,0,1,1.414,0l1.827,1.827L16,17.584V15a1,1,0,0,1,1-1h4a1,1,0,0,1,1,1v2.584l.123.051,1.827-1.827a1,1,0,0,1,1.414,0l2.828,2.828a1,1,0,0,1,0,1.414l-1.827,1.827.051.123H29a1,1,0,0,1,1,1Zm11,6H35a1,1,0,0,1-.707-.293l-3-3,1.414-1.414L35.414,31H41Zm0-16H35.414l-2.707,2.707-1.414-1.414,3-3A1,1,0,0,1,35,15h6Zm4,18H43V33h2Zm7,0H47V33h5Z"></path><path d="M60,42H4v3a3,3,0,0,0,3,3H57a3,3,0,0,0,3-3Zm-4.29,3.71A1,1,0,0,1,54,45a1,1,0,1,1,2,0A.994.994,0,0,1,55.71,45.71Z"></path></g></svg>