<svg xmlns="http://www.w3.org/2000/svg" viewBox="0 0 64 64" x="0px" y="0px"><g data-name="Fire Truck-Firefighter Car-Ladder-Emergency-Vehicle"><polygon points="13.535 32 10.869 36 16.001 36 16 32 13.535 32"></polygon><path d="M19,28H12.1a1,1,0,0,0-.85.46L5.16,38.05a.918.918,0,0,0-.16.53V40H7a3.009,3.009,0,0,1,3,3,3,3,0,0,1-3,3H5v2H6a2.006,2.006,0,0,1,2,2v2H9a6.984,6.984,0,0,1,6.35-6.96A4.727,4.727,0,0,1,16,45a5.828,5.828,0,0,1,.59.03A6.86,6.86,0,0,1,20,46.26V29A1,1,0,0,0,19,28ZM18,42H15V40h3Zm0-6a2.006,2.006,0,0,1-2,2H10.87A2.014,2.014,0,0,1,9.1,36.94a1.989,1.989,0,0,1,.11-2.05l2.66-4A1.985,1.985,0,0,1,13.54,30H16a2.006,2.006,0,0,1,2,2Z"></path><path d="M8,21a1,1,0,0,0,1,1H31a1,1,0,0,0,1-1V12H13a5,5,0,0,0-5,5Z"></path><path d="M20,8H19a3.01,3.01,0,0,0-2.82,2H20Z"></path><rect x="28" y="8" width="4" height="2"></rect><path d="M51.77,30.39l3.12,2.19a3,3,0,0,0-1.15-3.25l-.82-.58Z"></path><polygon points="34 15.51 34 17.95 35.39 18.92 36.53 17.28 34 15.51"></polygon><path d="M58.07,47.84l1.58-5.3a4.979,4.979,0,0,0-1.92-5.53L34,20.39V21a3.009,3.009,0,0,1-3,3H26.95a3,3,0,0,0,.73,4.18l28.85,20.2a1.017,1.017,0,0,0,.91.13A.984.984,0,0,0,58.07,47.84Z"></path><polygon points="45.22 25.81 46.36 24.17 43.09 21.87 41.94 23.51 45.22 25.81"></polygon><rect x="48.063" y="25.277" width="2.003" height="4.006" transform="translate(-1.441 51.79) rotate(-54.961)"></rect><polygon points="4.5 52 6 52 6 50 3 50 4.5 52"></polygon><rect x="22" y="8" width="4" height="2"></rect><polygon points="34.75 35.57 22 42.87 22 46 25.77 46 35.91 36.39 34.75 35.57"></polygon><path d="M7.69,43.71A.949.949,0,0,0,8,43a1,1,0,0,0-1-1H5v2H7A.928.928,0,0,0,7.69,43.71Z"></path><polygon points="40.3 22.36 41.45 20.72 38.17 18.43 37.02 20.07 40.3 22.36"></polygon><polygon points="36 44 30.79 44 28.68 46 36 46 36 44"></polygon><path d="M30.72,32.75a2.546,2.546,0,0,1-2.45-.35,3.162,3.162,0,0,0-.6-.29,1.961,1.961,0,0,0-.12.67,2.493,2.493,0,0,1-1.17,2.28,2.494,2.494,0,0,1-2.54-.3,2.055,2.055,0,0,0-.61-.29,1.746,1.746,0,0,0-.12.67A2.555,2.555,0,0,1,22,37.39v-4.5c.08-.06.18-.12.28-.18a2.531,2.531,0,0,1,2.55.31,1.9,1.9,0,0,0,.6.28,1.828,1.828,0,0,0,.13-.66,2.506,2.506,0,0,1,1.16-2.29,2.749,2.749,0,0,1,.36-.15Z"></path><circle cx="16" cy="52" r="1"></circle><path d="M16,47a5,5,0,1,0,5,5A5,5,0,0,0,16,47Zm0,8a3,3,0,1,1,3-3A3,3,0,0,1,16,55Z"></path><circle cx="44" cy="52" r="1"></circle><path d="M44,47a5,5,0,1,0,5,5A5,5,0,0,0,44,47Zm0,8a3,3,0,1,1,3-3A3,3,0,0,1,44,55Z"></path><path d="M55.38,50.02,52.5,48H49.74A6.962,6.962,0,0,1,51,52h4a1,1,0,0,0,1-1v-.66A3.319,3.319,0,0,1,55.38,50.02Z"></path><path d="M47.592,46H49.65L37.59,37.56,32.9,42H36a2.006,2.006,0,0,1,2,2v2h2.408a6.951,6.951,0,0,1,7.184,0Z"></path><path d="M22,48v.4A6.882,6.882,0,0,1,23,52H37a6.962,6.962,0,0,1,1.26-4Z"></path></g></svg>