<svg xmlns="http://www.w3.org/2000/svg" viewBox="0 0 64 64" x="0px" y="0px"><g><circle cx="15" cy="21" r="1"></circle><circle cx="46" cy="22" r="7"></circle><path d="M46,52a1,1,0,0,0,1-1V33.949c-.331.028-.662.051-1,.051s-.669-.023-1-.051V51A1,1,0,0,0,46,52Z"></path><path d="M56,22A10,10,0,1,0,46,32,10.011,10.011,0,0,0,56,22ZM37,22a9,9,0,1,1,9,9A9.01,9.01,0,0,1,37,22Z"></path><circle cx="21" cy="29" r="1"></circle><path d="M60,40V11a3,3,0,0,0-3-3H7a3,3,0,0,0-3,3V40H41v2H4v3a3,3,0,0,0,3,3H43V33.6a12,12,0,1,1,6,0V48h8a3,3,0,0,0,3-3V42H51V40ZM20,36A12,12,0,1,1,32,24,12.013,12.013,0,0,1,20,36Zm34,8h2v2H54Z"></path><polygon points="24.883 50 24.133 56 39.867 56 39.117 50 24.883 50"></polygon><path d="M20,14A10,10,0,1,0,30,24,10.011,10.011,0,0,0,20,14Zm0,8h2v2H20Zm-5,6H13V26h2Zm0-4a3,3,0,1,1,3-3A3,3,0,0,1,15,24Zm6,8a3,3,0,1,1,3-3A3,3,0,0,1,21,32Zm5.352-8.419-1.678-1.087a1,1,0,0,0,.138-.753.992.992,0,0,0-.435-.63l-.84-.543a3,3,0,0,1-.889-4.149l1.678,1.087a1,1,0,0,0-.138.753.992.992,0,0,0,.435.63l.84.543a3,3,0,0,1,.889,4.149Z"></path><polygon points="42 58 22 58 22 60 16 60 16 62 48 62 48 60 42 60 42 58"></polygon></g></svg>