<svg xmlns="http://www.w3.org/2000/svg" viewBox="0 0 64 64" x="0px" y="0px"><g data-name="Online Control-Smartphone"><path d="M20,52a3,3,0,1,0,3,3A3,3,0,0,0,20,52Zm0,4a1,1,0,1,1,1-1A1,1,0,0,1,20,56Z"></path><path d="M62,20a10,10,0,1,0-16.153,7.881l-.809,2.846A1,1,0,0,0,46,32h2V49a1,1,0,0,0,.445.832l3,2a1,1,0,0,0,1.11,0l3-2A1,1,0,0,0,56,49V46a1,1,0,0,0-.293-.707L54.414,44l1.293-1.293A1,1,0,0,0,56,42V40a1,1,0,0,0-.293-.707L54.414,38l1.293-1.293A1,1,0,0,0,56,36V32h2a1,1,0,0,0,.962-1.273l-.809-2.846A9.983,9.983,0,0,0,62,20Zm-5.556,6.651a1,1,0,0,0-.406,1.105L56.676,30H55a1,1,0,0,0-1,1v4.586l-1.707,1.707a1,1,0,0,0,0,1.414L54,40.414v1.172l-1.707,1.707a1,1,0,0,0,0,1.414L54,46.414v2.051L52,49.8l-2-1.333V31a1,1,0,0,0-1-1H47.324l.638-2.244a1,1,0,0,0-.406-1.105,8,8,0,1,1,8.888,0Z"></path><path d="M52,15a3,3,0,1,0,3,3A3,3,0,0,0,52,15Zm0,4a1,1,0,1,1,1-1A1,1,0,0,1,52,19Z"></path><path d="M20,21a4,4,0,1,0,4,4A4,4,0,0,0,20,21Zm0,6a2,2,0,1,1,2-2A2,2,0,0,1,20,27Z"></path><path d="M42.447,33.1,38,30.882V7a5.006,5.006,0,0,0-5-5H7A5.006,5.006,0,0,0,2,7V57a5.006,5.006,0,0,0,5,5H33a5.006,5.006,0,0,0,5-5V48.664a10.928,10.928,0,0,0,5-9.206V34A1,1,0,0,0,42.447,33.1ZM14,4H26V6H14ZM33,60H7a3,3,0,0,1-3-3V7A3,3,0,0,1,7,4h5V6a2,2,0,0,0,2,2H26a2,2,0,0,0,2-2V4h5a3,3,0,0,1,3,3V29.882l-1.553-.777a1,1,0,0,0-.894,0L29,31.382V27.071l1.606,1.607a1,1,0,0,0,1.415,0l2.828-2.829a1,1,0,0,0,0-1.414L30,19.586V13a1,1,0,0,0-1-1H25a1,1,0,0,0-1,1v.586l-1.879-1.879a3.072,3.072,0,0,0-4.242,0L5.151,24.435a1,1,0,0,0,0,1.414l2.828,2.829a1.031,1.031,0,0,0,1.415,0L11,27.071V38a2,2,0,0,0,2,2H25.034a10.919,10.919,0,0,0,5.136,8.786l3.3,2.062a1,1,0,0,0,1.06,0L36,49.929V57A3,3,0,0,1,33,60ZM25.553,33.1A1,1,0,0,0,25,34v4H24V32a1,1,0,0,0-1-1H17a1,1,0,0,0-1,1v6H13V25.071l7-7,7,7v7.311ZM22,38H18V33h4Zm6-20.414-2-2V14h2Zm4.728,7.556-1.415,1.415-9.9-9.9a2,2,0,0,0-2.828,0l-9.9,9.9L7.272,25.142,19.293,13.121a1,1,0,0,1,1.414,0ZM41,39.458a8.949,8.949,0,0,1-4.23,7.631L34,48.821l-2.77-1.732A8.949,8.949,0,0,1,27,39.458v-4.84l7-3.5,7,3.5Z"></path></g></svg>