<svg xmlns="http://www.w3.org/2000/svg" viewBox="0 0 64 64" x="0px" y="0px"><g data-name="Phone Call-Contact-Phone Call-Contact-Communication-Smartphone-Application-Communication"><path d="M46,2H18a6,6,0,0,0-6,6V56a6,6,0,0,0,6,6H46a6,6,0,0,0,6-6V8A6,6,0,0,0,46,2Zm4,54a4,4,0,0,1-4,4H18a4,4,0,0,1-4-4V54H50Zm0-4H14V12H50Zm0-42H14V8a4,4,0,0,1,4-4H46a4,4,0,0,1,4,4Z"></path><rect x="25" y="6" width="2" height="2"></rect><rect x="29" y="6" width="6" height="2"></rect><rect x="31" y="56" width="2" height="2"></rect><path d="M39.84,31.42l-3.63-3.63a1.008,1.008,0,0,0-1.42,0l-1.78,1.79a.97.97,0,0,1-.96.27,3.041,3.041,0,0,1-1.9-1.9.97.97,0,0,1,.27-.96l1.79-1.78a1.008,1.008,0,0,0,0-1.42l-3.63-3.63a1.011,1.011,0,0,0-1.35-.06,9,9,0,0,0,4.58,15.82,9.356,9.356,0,0,0,1.18.08,8.972,8.972,0,0,0,6.91-3.23A1.011,1.011,0,0,0,39.84,31.42ZM27.85,22.27l2.24,2.23-1.08,1.08c-.01,0-.01,0-.01.01l-2.07-2.07A7.066,7.066,0,0,1,27.85,22.27Zm4.21,11.67a7.043,7.043,0,0,1-6-6,7.212,7.212,0,0,1,.09-2.37l1.98,1.97a2.688,2.688,0,0,0,.13,1.05,4.987,4.987,0,0,0,3.15,3.15,2.688,2.688,0,0,0,1.05.13l1.97,1.98A7.212,7.212,0,0,1,32.06,33.94Zm4.42-.87L34.41,31c.01,0,.01,0,.01-.01l1.08-1.08,2.24,2.24A7.528,7.528,0,0,1,36.48,33.07Z"></path><path d="M38,25h2a5.006,5.006,0,0,0-5-5v2A3,3,0,0,1,38,25Z"></path><path d="M42,25h2a9.01,9.01,0,0,0-9-9v2A7.008,7.008,0,0,1,42,25Z"></path><path d="M20,48h4a2,2,0,0,0,2-2V42a2,2,0,0,0-2-2H20a2,2,0,0,0-2,2v4A2,2,0,0,0,20,48Zm0-6h4v4H20Z"></path><path d="M34,40H30a2,2,0,0,0-2,2v4a2,2,0,0,0,2,2h4a2,2,0,0,0,2-2V42A2,2,0,0,0,34,40Zm-4,6V42h4v4Z"></path><path d="M40,40a2,2,0,0,0-2,2v4a2,2,0,0,0,2,2h4a2,2,0,0,0,2-2V42a2,2,0,0,0-2-2Zm0,6V42h4v4Z"></path></g></svg>