<svg xmlns="http://www.w3.org/2000/svg" viewBox="0 0 64 64" x="0px" y="0px"><g data-name="Heart Rate-Health-Smartphone-Application-Smartwatch"><path d="M33.414,30.343l-.707.707a1,1,0,0,1-1.414,0l-.707-.707a1,1,0,1,0-1.414,1.414L32,34.585l2.828-2.828a1,1,0,0,0,0-1.413A1.023,1.023,0,0,0,33.414,30.343Z"></path><path d="M38,26H26a1,1,0,0,0-1,1V38a1,1,0,0,0,1,1H38a1,1,0,0,0,1-1V27A1,1,0,0,0,38,26Zm-1.76,7.17-3.53,3.54a1.014,1.014,0,0,1-1.42,0l-3.53-3.54a2.994,2.994,0,0,1,0-4.24,3.066,3.066,0,0,1,4.24,0,3.066,3.066,0,0,1,4.24,0,2.994,2.994,0,0,1,0,4.24Z"></path><path d="M50,12V22.9l-1.98,8.57-1.04-4.69a1.011,1.011,0,0,0-.9-.78.983.983,0,0,0-1.01.63L43.32,31H41V27a3,3,0,0,0-2.08-2.84L38,14.9a1.015,1.015,0,0,0-1-.9H27a1.015,1.015,0,0,0-1,.9l-.92,9.26A3,3,0,0,0,23,27v4H19a1,1,0,0,0-.97.76l-1,4L14,22.9V12Z"></path><path d="M46,4H18a4,4,0,0,0-4,4v2H50V8A4,4,0,0,0,46,4ZM27,8H25V6h2Zm8,0H29V6h6Z"></path><polygon points="36.1 48 36.88 41 27.12 41 27.9 48 36.1 48"></polygon><polygon points="27.91 16 27.11 24 36.89 24 36.09 16 27.91 16"></polygon><path d="M50,31.78V52H14V31.61l2.03,8.62a.984.984,0,0,0,.96.77H17a1,1,0,0,0,.97-.76L19.78,33H23v5a2.993,2.993,0,0,0,2.09,2.84l.92,8.27A.989.989,0,0,0,27,50H37a.989.989,0,0,0,.99-.89l.92-8.27A2.993,2.993,0,0,0,41,38V33h3a1,1,0,0,0,.93-.63l.8-1.99,1.29,5.84A1.007,1.007,0,0,0,48,37a.987.987,0,0,0,.97-.77Z"></path><path d="M14,54v2a4,4,0,0,0,4,4H46a4,4,0,0,0,4-4V54Zm19,4H31V56h2Z"></path><path d="M57,31a1,1,0,0,0-.97.76l-1,4L51.97,22.77a1,1,0,0,0-1.94,0L50,22.9v8.88l1.01-4.37,3.02,12.82a.984.984,0,0,0,.96.77H55a1,1,0,0,0,.97-.76L57.78,33H62V31ZM13.97,22.77a1,1,0,0,0-1.94,0l-2.01,8.7L8.98,26.78a1.011,1.011,0,0,0-.9-.78.983.983,0,0,0-1.01.63L5.32,31H2v2H6a1,1,0,0,0,.93-.63l.8-1.99,1.29,5.84A1.007,1.007,0,0,0,10,37a.987.987,0,0,0,.97-.77l2.04-8.82.99,4.2V22.9Z"></path></g></svg>