<svg xmlns="http://www.w3.org/2000/svg" viewBox="0 0 64 64" x="0px" y="0px"><title>Report_1</title><g data-name="Report"><path d="M59,2H15a1,1,0,0,0-1,1V7H5A1,1,0,0,0,4,8V57a5.006,5.006,0,0,0,5,5H55a5.006,5.006,0,0,0,5-5V3A1,1,0,0,0,59,2ZM10,60H9a3,3,0,0,1-3-3V9h8V57a3,3,0,0,1-3,3Zm48-3a3,3,0,0,1-3,3H14.974A4.948,4.948,0,0,0,16,57V4H58Z"></path><path d="M24,43H51V41H47V24a1,1,0,0,0-1-1H42a1,1,0,0,0-1,1V41H40V30a1,1,0,0,0-1-1H35a1,1,0,0,0-1,1V41H33V34a1,1,0,0,0-1-1H28a1,1,0,0,0-1,1v7H25V20H23V42A1,1,0,0,0,24,43ZM43,25h2V41H43Zm-7,6h2V41H36Zm-7,4h2v6H29Z"></path><rect x="25" y="9" width="4" height="2"></rect><rect x="31" y="9" width="18" height="2"></rect><rect x="25" y="13" width="24" height="2"></rect><rect x="25" y="46" width="4" height="2"></rect><rect x="31" y="46" width="18" height="2"></rect><rect x="25" y="50" width="24" height="2"></rect><rect x="45" y="54" width="4" height="2"></rect><rect x="25" y="54" width="18" height="2"></rect><rect x="7" y="11" width="2" height="46"></rect><rect x="11" y="11" width="2" height="46"></rect></g></svg>