<svg xmlns="http://www.w3.org/2000/svg" viewBox="0 0 64 64" x="0px" y="0px"><g data-name="Game Console-Gaming-Gamer-Portable-Device"><path d="M48,6H16a1,1,0,0,0-1,1V33a1,1,0,0,0,1,1H48a1,1,0,0,0,1-1V7A1,1,0,0,0,48,6ZM47,32H17V8H47Z"></path><path d="M22,30H42a3,3,0,0,0,3-3V13a3,3,0,0,0-3-3H22a3,3,0,0,0-3,3V27A3,3,0,0,0,22,30ZM21,13a1,1,0,0,1,1-1H42a1,1,0,0,1,1,1V27a1,1,0,0,1-1,1H22a1,1,0,0,1-1-1Z"></path><rect x="33" y="36" width="2" height="2"></rect><rect x="37" y="36" width="2" height="2"></rect><rect x="41" y="36" width="2" height="2"></rect><rect x="45" y="36" width="2" height="2"></rect><path d="M29,26a6.037,6.037,0,0,0,4.8-2.4,1,1,0,0,0-.092-1.308L31.414,20l2.293-2.293A1,1,0,0,0,33.8,16.4,6,6,0,1,0,29,26Zm0-10a4.021,4.021,0,0,1,2.612.974l-2.319,2.319a1,1,0,0,0,0,1.414l2.319,2.319A4,4,0,1,1,29,16Z"></path><rect x="35" y="19" width="2" height="2"></rect><rect x="39" y="19" width="2" height="2"></rect><path d="M58,56H56V53a1,1,0,0,0-1-1H51a1,1,0,0,0-1,1v3H48V51.82a3,3,0,1,0-2,0V56H44a1,1,0,0,0-1,1v1H37a2,2,0,0,1,0-4h2a3.009,3.009,0,0,0,3-3V42H52a1,1,0,0,0,1-1V3a1,1,0,0,0-1-1H12a1,1,0,0,0-1,1V36H7A5,5,0,0,0,7,46H8a3,3,0,0,1,0,6H6a4,4,0,0,0,0,8h9v1a1,1,0,0,0,1,1H30a1,1,0,0,0,1-1V57a1,1,0,0,0-1-1H28V53a1,1,0,0,0-1-1H23a1,1,0,0,0-1,1v3H20V51.82a3,3,0,1,0-2,0V56H16a1,1,0,0,0-1,1v1H6a2,2,0,0,1,0-4H8A5,5,0,0,0,8,44H7a3,3,0,0,1,0-6h4v3a1,1,0,0,0,1,1H40v9a1,1,0,0,1-1,1H37a4,4,0,0,0,0,8h6v1a1,1,0,0,0,1,1H58a1,1,0,0,0,1-1V57A1,1,0,0,0,58,56ZM24,54h2v2H24Zm-5-6a1,1,0,1,1-1,1A1,1,0,0,1,19,48ZM17,58H29v2H17ZM13,40V4H51V40ZM52,54h2v2H52Zm-5-6a1,1,0,1,1-1,1A1,1,0,0,1,47,48ZM57,60H45V58H57Z"></path></g></svg>