<svg xmlns="http://www.w3.org/2000/svg" viewBox="0 0 64 64" x="0px" y="0px"><g><polygon points="6.135 60 11.865 60 9 56.562 6.135 60"></polygon><circle cx="38" cy="25" r="1"></circle><circle cx="20" cy="25" r="1"></circle><circle cx="42" cy="40" r="1"></circle><path d="M46,31A13,13,0,1,0,59,44,13.015,13.015,0,0,0,46,31Zm-4,6a3,3,0,1,1-3,3A3,3,0,0,1,42,37ZM40.707,50.707l-1.414-1.414,12-12,1.414,1.414ZM50,51a3,3,0,1,1,3-3A3,3,0,0,1,50,51Z"></path><circle cx="50" cy="48" r="1"></circle><path d="M39,20v2.18a3,3,0,1,1-2,0V20H21v2.18a3,3,0,1,1-2,0V20H15V60H43V58.67a14.967,14.967,0,0,1,0-29.34V20ZM29,49H19V47H29Zm0-4H19V43H29Zm0-4H19V39H29Z"></path><path d="M29,2a9.934,9.934,0,0,0-5.5,1.657A9.99,9.99,0,0,0,8,12v6h2V12A7.993,7.993,0,0,1,21.868,5,9.966,9.966,0,0,0,19,12v8h2V12a7.97,7.97,0,0,1,2.5-5.794A7.97,7.97,0,0,1,26,12v6h2V12a9.966,9.966,0,0,0-2.868-7A7.993,7.993,0,0,1,37,12v8h2V12A10.011,10.011,0,0,0,29,2Z"></path><path d="M9,26a1,1,0,0,1-.768-.36L5,21.762V58.238L8.232,54.36a1.033,1.033,0,0,1,1.536,0L13,58.238V21.762L9.768,25.64A1,1,0,0,1,9,26Z"></path><polygon points="11.865 20 6.135 20 9 23.438 11.865 20"></polygon></g></svg>