<svg xmlns="http://www.w3.org/2000/svg" viewBox="0 0 64 64" x="0px" y="0px"><g><path d="M32,7a5,5,0,1,0,5,5A5.006,5.006,0,0,0,32,7Zm0,8a3,3,0,1,1,3-3A3,3,0,0,1,32,15Z"></path><path d="M10,47v1a3,3,0,0,0,0,6h2a1,1,0,0,1,0,2H10a1,1,0,0,1-1-1H7a3,3,0,0,0,3,3v1h2V58a3,3,0,0,0,0-6H10a1,1,0,0,1,0-2h2a1,1,0,0,1,1,1h2a3,3,0,0,0-3-3V47Z"></path><path d="M31,47v1a3,3,0,0,0,0,6h2a1,1,0,0,1,0,2H31a1,1,0,0,1-1-1H28a3,3,0,0,0,3,3v1h2V58a3,3,0,0,0,0-6H31a1,1,0,0,1,0-2h2a1,1,0,0,1,1,1h2a3,3,0,0,0-3-3V47Z"></path><path d="M52,50h2a1,1,0,0,1,1,1h2a3,3,0,0,0-3-3V47H52v1a3,3,0,0,0,0,6h2a1,1,0,0,1,0,2H52a1,1,0,0,1-1-1H49a3,3,0,0,0,3,3v1h2V58a3,3,0,0,0,0-6H52a1,1,0,0,1,0-2Z"></path><path d="M54,44.06V40a1,1,0,0,0-1-1H33V34H50a1,1,0,0,0,1-1V3a1,1,0,0,0-1-1H14a1,1,0,0,0-1,1V33a1,1,0,0,0,1,1H31v5H11a1,1,0,0,0-1,1v4.06a9,9,0,1,0,2,0V41H31v3.06a9,9,0,1,0,2,0V41H52v3.06a9,9,0,1,0,2,0ZM18,53a7,7,0,1,1-7-7A7.008,7.008,0,0,1,18,53ZM49,32H38V30H49Zm0-4H38V26H49Zm0-4H38V22H49Zm0-4H44.09A5.992,5.992,0,0,1,49,15.09ZM49,4V8.91A5.992,5.992,0,0,1,44.09,4ZM15,4h4.91A5.992,5.992,0,0,1,15,8.91Zm0,11.09A5.992,5.992,0,0,1,19.91,20H15ZM26,32H15V30H26Zm0-4H15V26H26Zm0-4H15V22H26Zm-4.07-4A8,8,0,0,0,15,13.07V10.93A8,8,0,0,0,21.93,4H42.07A8,8,0,0,0,49,10.93v2.14A8,8,0,0,0,42.07,20ZM39,53a7,7,0,1,1-7-7A7.008,7.008,0,0,1,39,53ZM28,32V22h8V32ZM53,60a7,7,0,1,1,7-7A7.008,7.008,0,0,1,53,60Z"></path></g></svg>