<svg xmlns="http://www.w3.org/2000/svg" viewBox="0 0 64 64" x="0px" y="0px"><g data-name="Avatar-Man-Men-Profile-Waitress-Bow Tie"><path d="M46.69,37.3l-5.74-1.8A2.961,2.961,0,0,0,37,33.06V30.79A11.028,11.028,0,0,0,42.95,22H43a4,4,0,0,0,0-8V11a9.014,9.014,0,0,0-9-9H30a9.014,9.014,0,0,0-9,9v3a4,4,0,1,0,0,8h.05A11.028,11.028,0,0,0,27,30.79v2.27a2.961,2.961,0,0,0-3.95,2.44l-5.74,1.8A8.941,8.941,0,0,0,11,45.88V61a1,1,0,0,0,1,1H52a1,1,0,0,0,1-1V45.88A8.941,8.941,0,0,0,46.69,37.3ZM43,16a2.006,2.006,0,0,1,2,2,2.015,2.015,0,0,1-2,2ZM21,20a2.015,2.015,0,0,1-2-2,2.006,2.006,0,0,1,2-2ZM37.65,34.95a.974.974,0,0,1,.92.11,1,1,0,0,1,.43.83v2.22a1,1,0,0,1-.43.83.974.974,0,0,1-.92.11L33,37.31v-.62ZM41,14.52a3.032,3.032,0,0,1-1.4-2.02c.47.1.93.18,1.4.24ZM30,4h4a7,7,0,0,1,6.99,6.72,12.535,12.535,0,0,1-2.65-.66,11.375,11.375,0,0,1-5.51-4.07,1.041,1.041,0,0,0-1.66,0,11.375,11.375,0,0,1-5.51,4.07,12.535,12.535,0,0,1-2.65.66A7,7,0,0,1,30,4Zm-7,8.74c.47-.06.93-.14,1.4-.24A3.009,3.009,0,0,1,23,14.52Zm0,3.98.04-.01a5.037,5.037,0,0,0,3.35-3.93l.15-.93A13.722,13.722,0,0,0,32,8.18a13.722,13.722,0,0,0,5.46,3.67l.15.94a5.038,5.038,0,0,0,3.35,3.92l.04.01v4.06l-6.84-1.37a11.214,11.214,0,0,0-4.32,0L23,20.78Zm1.95,9.85,5.16-.58-.22-1.98-6.09.68a8.89,8.89,0,0,1-.62-1.91l7.06-1.41a9.065,9.065,0,0,1,3.52,0l7.06,1.41a8.89,8.89,0,0,1-.62,1.91l-6.09-.68-.22,1.98,5.16.58a8.96,8.96,0,0,1-14.1,0ZM19,60H13V45.88a6.921,6.921,0,0,1,.96-3.51l4.16,4.17A3,3,0,0,1,19,48.66Zm12,0H21V48.66a5.036,5.036,0,0,0-1.46-3.54L15.2,40.79a7.1,7.1,0,0,1,2.71-1.59L23,37.61v.5a2.994,2.994,0,0,0,1.29,2.47,3.027,3.027,0,0,0,1.71.53,2.911,2.911,0,0,0,1.05-.19L31,39.44Zm0-22.69-4.65,1.74a.974.974,0,0,1-.92-.11,1,1,0,0,1-.43-.83V35.89a1,1,0,0,1,.43-.83,1.067,1.067,0,0,1,.57-.18,1.09,1.09,0,0,1,.35.07L31,36.69Zm-2-3.5V31.57a10.68,10.68,0,0,0,6,0v2.24l-3,1.12ZM43,48.66V60H33V39.44l3.95,1.48a2.911,2.911,0,0,0,1.05.19,3.027,3.027,0,0,0,1.71-.53A2.994,2.994,0,0,0,41,38.11v-.5l5.09,1.59a7.1,7.1,0,0,1,2.71,1.59l-4.34,4.33A5.036,5.036,0,0,0,43,48.66ZM51,60H45V48.66a3,3,0,0,1,.88-2.12l4.16-4.17A6.921,6.921,0,0,1,51,45.88Z"></path><circle cx="28" cy="17" r="2"></circle><circle cx="36" cy="17" r="2"></circle></g></svg>