<svg xmlns="http://www.w3.org/2000/svg" viewBox="0 0 64 64" x="0px" y="0px"><g><path d="M60,41H57.92A7,7,0,0,0,51,35h-.077a8.057,8.057,0,0,0-6.763-4,9.993,9.993,0,0,0-18.006-.658A6.863,6.863,0,0,0,24,30a7.008,7.008,0,0,0-6.279,3.92A7.921,7.921,0,0,0,14,33a8.009,8.009,0,0,0-8,8H4a2,2,0,0,0-2,2v2a2,2,0,0,0,2,2h.323l3.5,8.742A1.99,1.99,0,0,0,9.677,57H54.323a1.99,1.99,0,0,0,1.857-1.257L59.677,47H60a2,2,0,0,0,2-2V43A2,2,0,0,0,60,41ZM14,35a5.958,5.958,0,0,1,3.617,1.218,1,1,0,0,0,1.568-.536A5,5,0,0,1,24,32a4.9,4.9,0,0,1,2.213.524A1,1,0,0,0,27.588,32a7.992,7.992,0,0,1,14.959.357,1,1,0,0,0,1.06.662A3.237,3.237,0,0,1,44,33a6.039,6.039,0,0,1,5.435,3.466,1,1,0,0,0,1.047.564A3.688,3.688,0,0,1,51,37a5.009,5.009,0,0,1,4.9,4H8A6.006,6.006,0,0,1,14,35ZM54.323,55H9.678l-3.2-8H57.523ZM4,45V43H60v2Z"></path><path d="M30.28,21h2a2.058,2.058,0,0,1,.532-1.414,4.129,4.129,0,0,0,0-5.167,2.153,2.153,0,0,1,0-2.834A3.977,3.977,0,0,0,33.72,9h-2a2.068,2.068,0,0,1-.532,1.417,4.134,4.134,0,0,0,0,5.17A2.068,2.068,0,0,1,31.72,17a2.032,2.032,0,0,1-.532,1.413A3.97,3.97,0,0,0,30.28,21Z"></path><path d="M45.28,21h2a2.058,2.058,0,0,1,.532-1.414,4.129,4.129,0,0,0,0-5.167,2.153,2.153,0,0,1,0-2.834A3.977,3.977,0,0,0,48.72,9h-2a2.068,2.068,0,0,1-.532,1.417,4.134,4.134,0,0,0,0,5.17A2.068,2.068,0,0,1,46.72,17a2.032,2.032,0,0,1-.532,1.413A3.97,3.97,0,0,0,45.28,21Z"></path><path d="M15.28,21h2a2.058,2.058,0,0,1,.532-1.414,4.129,4.129,0,0,0,0-5.167,2.153,2.153,0,0,1,0-2.834A3.977,3.977,0,0,0,18.72,9h-2a2.068,2.068,0,0,1-.532,1.417,4.134,4.134,0,0,0,0,5.17A2.068,2.068,0,0,1,16.72,17a2.032,2.032,0,0,1-.532,1.413A3.97,3.97,0,0,0,15.28,21Z"></path></g></svg>