<svg xmlns="http://www.w3.org/2000/svg" viewBox="0 0 64 64" x="0px" y="0px"><g data-name="Solar Energy"><path d="M55,42H52a1,1,0,0,1-1-1V39a3,3,0,0,0-3-3H45v2h3a1,1,0,0,1,1,1v2a3,3,0,0,0,3,3h3a5,5,0,0,1,0,10H42a3,3,0,0,0-3-3H35a1,1,0,0,0-1,1H32v2h2v2H32v2h2a1,1,0,0,0,1,1h4a3,3,0,0,0,3-3H55a7,7,0,0,0,0-14Z"></path><path d="M18,10a1.979,1.979,0,0,0-1.439.619,1,1,0,0,1-1.672-1A1.994,1.994,0,1,0,11,9c0,.025.016.1.017.128a1,1,0,0,1-1.339,1A1.977,1.977,0,0,0,9,10a2,2,0,0,0,0,4h9a2,2,0,0,0,0-4Z"></path><rect x="15" y="35" width="6" height="5"></rect><rect x="15" y="29" width="6" height="4"></rect><path d="M40.848,19.565l-.905,4.492,4.492-.9a1,1,0,0,1,1.03.427L48,27.394l2.535-3.814a1,1,0,0,1,1.03-.427l4.492.9-.905-4.492a1,1,0,0,1,.427-1.03L59.394,16l-3.815-2.535a1,1,0,0,1-.427-1.03l.905-4.492-4.492.9a1,1,0,0,1-1.03-.427L48,4.606,45.465,8.42a1,1,0,0,1-1.03.427l-4.492-.9.905,4.492a1,1,0,0,1-.427,1.03L36.606,16l3.815,2.535A1,1,0,0,1,40.848,19.565ZM48,9a7,7,0,1,1-7,7A7.008,7.008,0,0,1,48,9Z"></path><circle cx="48" cy="16" r="5"></circle><rect x="15" y="22" width="6" height="5"></rect><path d="M28.723,42H14a1,1,0,0,1-1-1V36H7.677l-3.2,8H29.523Z"></path><rect x="20" y="54" width="4" height="2"></rect><path d="M28,60V46H6V60H8V53a1,1,0,0,1,1-1h6a1,1,0,0,1,1,1v7ZM18,53a1,1,0,0,1,1-1h6a1,1,0,0,1,1,1v4a1,1,0,0,1-1,1H19a1,1,0,0,1-1-1Z"></path><rect x="10" y="54" width="4" height="6"></rect><rect x="23" y="35" width="5" height="5"></rect><rect x="23" y="22" width="5" height="5"></rect><rect x="30" y="29" width="5" height="4"></rect><rect x="30" y="22" width="5" height="5"></rect><rect x="23" y="29" width="5" height="4"></rect><rect x="30" y="35" width="5" height="5"></rect><rect x="37" y="29" width="6" height="4"></rect><rect x="37" y="35" width="6" height="5"></rect><path d="M43,25.482l-4.137.832a1,1,0,0,1-1.177-1.178L38.317,22H37v5h6Z"></path></g></svg>