<svg xmlns="http://www.w3.org/2000/svg" viewBox="0 0 64 64" x="0px" y="0px"><g data-name="Man-Worker"><path d="M48.305,39.683,39,37.229V34.106A14.029,14.029,0,0,0,45.668,25H46a4,4,0,0,0,0-8V16a14,14,0,0,0-28,0v1a4,4,0,0,0,0,8h.332A14.029,14.029,0,0,0,25,34.106v3.123l-9.3,2.454A12.988,12.988,0,0,0,6,52.25V61a1,1,0,0,0,1,1H57a1,1,0,0,0,1-1V52.25A12.988,12.988,0,0,0,48.305,39.683ZM48,21a2,2,0,0,1-2,2V19A2,2,0,0,1,48,21Zm-4-5a14.9,14.9,0,0,1-4.9-9.648A11.979,11.979,0,0,1,44,16ZM37.749,5.471a1.035,1.035,0,0,0-.15.063A11.031,11.031,0,0,1,32,7a11.031,11.031,0,0,1-5.6-1.466,1.035,1.035,0,0,0-.15-.063,11.97,11.97,0,0,1,11.5,0ZM24.9,6.349A14.9,14.9,0,0,1,20,16,11.979,11.979,0,0,1,24.9,6.349ZM18,23a2,2,0,0,1,0-4v4Zm2-1V18.54A16.681,16.681,0,0,0,26.689,7.918,13.15,13.15,0,0,0,32,9a13.15,13.15,0,0,0,5.311-1.082A16.681,16.681,0,0,0,44,18.54V22a12,12,0,0,1-24,0ZM32,36a13.894,13.894,0,0,0,5-.939v2.525l-5,5-5-5V35.061A13.894,13.894,0,0,0,32,36Zm-6.3,3.113,5.594,5.594a1,1,0,0,0,1.414,0L38.3,39.113l3.2.843A82.257,82.257,0,0,1,43.985,60H20.015A82.257,82.257,0,0,1,22.5,39.956ZM8,52.25a10.99,10.99,0,0,1,8.2-10.633l4.086-1.078A85.836,85.836,0,0,0,18.015,60H8ZM56,60H45.985a85.836,85.836,0,0,0-2.276-19.461L47.8,41.617A10.99,10.99,0,0,1,56,52.25Z"></path><path d="M32,25a3,3,0,0,0,3-3V18H33v4a1,1,0,0,1-2,0V18H29v4A3,3,0,0,0,32,25Z"></path><path d="M37.08,18.38a.757.757,0,0,0,.09.18,1.576,1.576,0,0,0,.12.15,1.032,1.032,0,0,0,.33.21A1,1,0,0,0,38,19a1.052,1.052,0,0,0,.71-.29l.12-.15a.8.8,0,0,0,.09-.18.577.577,0,0,0,.059-.19A1.116,1.116,0,0,0,39,18a1.052,1.052,0,0,0-.29-.71,1,1,0,0,0-1.09-.21,1.032,1.032,0,0,0-.33.21A1.047,1.047,0,0,0,37,18a1.225,1.225,0,0,0,.02.19A.6.6,0,0,0,37.08,18.38Z"></path><path d="M26.38,18.92a.776.776,0,0,0,.18-.09l.15-.12a1.155,1.155,0,0,0,.21-.33A1,1,0,0,0,27,18a1.116,1.116,0,0,0-.021-.19,1.054,1.054,0,0,0-.149-.36c-.04-.06-.08-.11-.12-.16l-.15-.12a.776.776,0,0,0-.18-.09.609.609,0,0,0-.191-.06,1.025,1.025,0,0,0-.9.27A1.047,1.047,0,0,0,25,18a1,1,0,0,0,.08.38,1.032,1.032,0,0,0,.21.33A1.05,1.05,0,0,0,26,19a1.2,1.2,0,0,0,.189-.02A.609.609,0,0,0,26.38,18.92Z"></path><path d="M37.953,27.655l-1.512-1.31A5.982,5.982,0,0,1,32,28a5.982,5.982,0,0,1-4.441-1.655l-1.512,1.31A7.89,7.89,0,0,0,32,30,7.89,7.89,0,0,0,37.953,27.655Z"></path></g></svg>