<svg xmlns="http://www.w3.org/2000/svg" viewBox="0 0 64 64" x="0px" y="0px"><g><path d="M48,11a2.987,2.987,0,0,0,2.5-1.34A3.059,3.059,0,0,0,51,8a3.005,3.005,0,0,0-5.5-1.67A3.067,3.067,0,0,0,45,8,3,3,0,0,0,48,11Z"></path><path d="M16,53a2.987,2.987,0,0,0-2.5,1.34A3.059,3.059,0,0,0,13,56a3.005,3.005,0,0,0,5.5,1.67A3.067,3.067,0,0,0,19,56,3,3,0,0,0,16,53Z"></path><path d="M12,20a8,8,0,1,0-8-8A8.009,8.009,0,0,0,12,20Zm0-7a2.993,2.993,0,0,1-1-5.816V6h2V7.184A3,3,0,0,1,15,10H13a1,1,0,1,0-1,1,2.993,2.993,0,0,1,1,5.816V18H11V16.816A3,3,0,0,1,9,14h2a1,1,0,1,0,1-1Z"></path><path d="M52,44a8,8,0,1,0,8,8A8.009,8.009,0,0,0,52,44Zm0,7a2.993,2.993,0,0,1,1,5.816V58H51V56.816A3,3,0,0,1,49,54h2a1,1,0,1,0,1-1,2.993,2.993,0,0,1-1-5.816V46h2v1.184A3,3,0,0,1,55,50H53a1,1,0,1,0-1,1Z"></path><path d="M32,2A29.769,29.769,0,0,0,19.07,4.93a9.55,9.55,0,0,1,1.3,1.61,27.937,27.937,0,0,1,22.9-.17,5,5,0,0,1,1.02-1.72A29.532,29.532,0,0,0,32,2Zm20.52,8.14a5.058,5.058,0,0,1-1.21,1.61,27.924,27.924,0,0,1,6.15,31.88,9.55,9.55,0,0,1,1.61,1.3,29.961,29.961,0,0,0-6.55-34.79ZM43.63,57.46a27.937,27.937,0,0,1-22.9.17,5,5,0,0,1-1.02,1.72,29.911,29.911,0,0,0,25.22-.28A9.55,9.55,0,0,1,43.63,57.46ZM6.54,20.37a9.55,9.55,0,0,1-1.61-1.3,29.961,29.961,0,0,0,6.55,34.79,5.058,5.058,0,0,1,1.21-1.61A27.924,27.924,0,0,1,6.54,20.37Z"></path><path d="M32,12A20.016,20.016,0,0,1,51.811,29.4l-1.1-1.1-1.414,1.414,3,3a1,1,0,0,0,1.414,0l3-3-1.414-1.414L53.88,29.706A22.013,22.013,0,0,0,23.6,11.659l.764,1.849A19.866,19.866,0,0,1,32,12Z"></path><path d="M32,52A20.012,20.012,0,0,1,13.5,24.381l-1.85-.762A22.014,22.014,0,0,0,32,54a22.242,22.242,0,0,0,4.142-.389l-.373-1.965A20.219,20.219,0,0,1,32,52Z"></path><path d="M37.731,51.167l.573,1.916c.686-.2,1.367-.445,2.021-.713l-.758-1.851C38.973,50.763,38.355,50.98,37.731,51.167Z"></path><path d="M33.808,38.678a1,1,0,0,1-.707.293.984.984,0,0,1-.208-.042l-.062.186,2.077,2.078,2.365-5.2a.988.988,0,0,0,.007-.785Z"></path><path d="M38.758,24.243a1,1,0,1,0,.707.293A1,1,0,0,0,38.758,24.243Z"></path><polygon points="29.998 36.282 27.718 34.002 27.246 34.945 28.149 35.848 28.15 35.849 28.152 35.851 29.055 36.754 29.998 36.282"></polygon><path d="M42.293,21.707c-.266-.266-1.644-.605-4.947.014a2.96,2.96,0,0,0-1.548.824L27.443,30.9l2.122,2.122,4.243-4.243,1.414,1.414-4.243,4.243L33.1,36.557,41.455,28.2a2.947,2.947,0,0,0,.823-1.548C42.9,23.351,42.56,21.974,42.293,21.707Zm-1.414,5.657a3,3,0,1,1,0-4.242A2.992,2.992,0,0,1,40.879,27.364Z"></path><path d="M28.01,26.727l-5.2,2.364,2.078,2.078.184-.061a.985.985,0,0,1,.252-.916L28.8,26.72A.992.992,0,0,0,28.01,26.727Z"></path><path d="M24.314,41.431a6.555,6.555,0,0,0,2.422-1.339,2,2,0,0,0,0-2.827l0,0a2,2,0,0,0-2.827,0,6.555,6.555,0,0,0-1.339,2.423c-.334,1.057-.227,1.668-.075,1.82S23.256,41.765,24.314,41.431Z"></path></g></svg>