<svg xmlns="http://www.w3.org/2000/svg" viewBox="0 0 64 64" x="0px" y="0px"><g data-name="Vaccuum Cleaner"><rect x="31" y="29" width="2" height="14"></rect><rect x="31" y="10" width="2" height="11"></rect><path d="M36,23H28V49h8ZM35,45H29V27h6Z"></path><rect x="17" y="58" width="30" height="2"></rect><polygon points="20 56 44 56 44 55.419 39.397 51 24.619 51 20 55.435 20 56"></polygon><path d="M56,31a2,2,0,1,0-3,1.723V44a1,1,0,0,1-1,1H48a1,1,0,0,1-1-1V26a3,3,0,0,0-3-3H38v2h6a1,1,0,0,1,1,1V44a3,3,0,0,0,3,3h4a3,3,0,0,0,3-3V32.723A1.994,1.994,0,0,0,56,31Z"></path><polygon points="40 2 24 2 24 4 31 4 31 8 33 8 33 4 40 4 40 2"></polygon></g></svg>