<svg xmlns="http://www.w3.org/2000/svg" viewBox="0 0 64 64" x="0px" y="0px"><g><path d="M5.237,22.385a1.971,1.971,0,0,0-.554,1.925l5.27,21.138a10.992,10.992,0,0,0,2.762,4.98l1.262,1.314A11.591,11.591,0,0,1,17,60H28V56a19.938,19.938,0,0,0-.7-6.108l-.039-.11a19.118,19.118,0,0,0-4.507-7.669l-7.088-7.342a2.012,2.012,0,0,0-1.41-.61,1.762,1.762,0,0,0-.8.17,1.863,1.863,0,0,0-.767.55,2,2,0,0,0,.113,2.683l7.628,7.894-1.438,1.39-7.628-7.893a4.02,4.02,0,0,1-.23-5.333L8.563,23.342a2,2,0,0,0-2.416-1.455A1.948,1.948,0,0,0,5.237,22.385Z"></path><path d="M41.249,42.112a19.072,19.072,0,0,0-4.5,7.637l-.062.18A19.885,19.885,0,0,0,36,55.98V60H47a11.592,11.592,0,0,1,3.025-8.26l1.257-1.309a11.006,11.006,0,0,0,2.766-4.983l5.268-21.136a1.991,1.991,0,0,0-1.454-2.423,2,2,0,0,0-2.426,1.456L52.872,33.622a4.022,4.022,0,0,1-.23,5.334l-7.628,7.892-1.438-1.39L51.2,37.565a2,2,0,0,0,.108-2.69,1.738,1.738,0,0,0-.676-.507,2,2,0,0,0-.893-.207,2.019,2.019,0,0,0-1.412.614Z"></path><path d="M47,27H45a12.975,12.975,0,0,1-1.745,6.5l1.73,1A14.96,14.96,0,0,0,47,27Z"></path><path d="M22.713,3.913l-1.43-1.4A14.915,14.915,0,0,0,17,13h2A12.92,12.92,0,0,1,22.713,3.913Z"></path><path d="M41,13a9,9,0,0,0-18,0V27a9,9,0,0,0,18,0Zm-8.564,9.978L30.05,25.364A6.958,6.958,0,0,0,28,30.313V32H26V30.313a8.94,8.94,0,0,1,2.636-6.363l1.27-1.271A7,7,0,0,1,29.417,9.5,2.968,2.968,0,0,1,29,8a3,3,0,0,1,3-3V7a1,1,0,0,0,0,2,7,7,0,0,1,.436,13.978Z"></path><path d="M32,11a5,5,0,1,0,5,5A5.006,5.006,0,0,0,32,11Zm-3,3h2v2H29Zm3,6a4,4,0,0,1-2.985-1.337l1.492-1.332a2.065,2.065,0,0,0,2.983,0l1.49,1.334A4,4,0,0,1,32,20Zm3-4H33V14h2Z"></path><rect x="17" y="15" width="2" height="2"></rect><rect x="45" y="23" width="2" height="2"></rect></g></svg>