<svg xmlns="http://www.w3.org/2000/svg" viewBox="0 0 64 64" x="0px" y="0px"><g data-name="Credit Card-Sign Contract"><path d="M21,57a3,3,0,0,1-3-3V34a3,3,0,0,1,3-3h2.059L50,23.783V7a3,3,0,0,0-3-3H11A3,3,0,0,0,8,7V57a3,3,0,0,0,3,3H47a3,3,0,0,0,3-3Zm9-29H23V26h7ZM45,18H35V16H45ZM31,12H45v2H31Zm-6,0h4v2H25Zm0,4h8v2H25Zm-7-3H16a3,3,0,0,1,0-6V6h2V7a3,3,0,0,1,3,3H19a1,1,0,0,0-1-1H16a1,1,0,0,0,0,2h2a3,3,0,0,1,0,6v1H16V17a3,3,0,0,1-3-3h2a1,1,0,0,0,1,1h2a1,1,0,0,0,0-2Zm-5,9H43v2H13Zm0,4h8v2H13Z"></path><rect x="27" y="37" width="3" height="1"></rect><rect x="27" y="40" width="3" height="1"></rect><rect x="24" y="37" width="1" height="4"></rect><path d="M30.788,31H55a3.012,3.012,0,0,1,.459.046L54.054,25.8a1,1,0,0,0-1.222-.7Z"></path><path d="M46.107,38.1a3.953,3.953,0,0,1,.227-.69c.018-.043.039-.084.059-.126.035-.073.065-.149.1-.22A1.982,1.982,0,0,0,46,37a2,2,0,0,0,0,4,1.982,1.982,0,0,0,.5-.063c-.038-.068-.067-.14-.1-.21-.023-.049-.047-.095-.068-.144a3.989,3.989,0,0,1-.223-.681c-.01-.046-.017-.092-.026-.139A3.943,3.943,0,0,1,46,39a4.052,4.052,0,0,1,.081-.765C46.09,38.19,46.1,38.144,46.107,38.1Z"></path><path d="M50,37a2.01,2.01,0,0,0-2,2,1.949,1.949,0,0,0,.657,1.476A2,2,0,1,0,50,37Z"></path><path d="M56,54V34a1,1,0,0,0-1-1H21a1,1,0,0,0-1,1V54a1,1,0,0,0,1,1H55A1,1,0,0,0,56,54ZM22,42V36a1,1,0,0,1,1-1h8a1,1,0,0,1,1,1v6a1,1,0,0,1-1,1H23A1,1,0,0,1,22,42Zm12,5v2H32V47Zm-4,0v2H28V47Zm6,6H28V51h8Zm2-4H36V47h2Zm2-2h2v2H40Zm10,6H42V51h8Zm-6-4V47h2v2Zm6,0H48V47h2Zm0-6a3.963,3.963,0,0,1-2-.547A3.963,3.963,0,0,1,46,43a4,4,0,1,1,2-7.454A4,4,0,1,1,50,43Z"></path><path d="M58,50.635l1.56-.42a1,1,0,0,0,.706-1.221L58,40.533Z"></path></g></svg>