<svg xmlns="http://www.w3.org/2000/svg" viewBox="0 0 64 64" x="0px" y="0px"><g data-name="Tea Bag-Tea-Herbs-Hot Drink-Coffee Shop"><path d="M58.83,48.45l-4-6A1,1,0,0,0,54,42H52V17.5a15.5,15.5,0,0,0-31,0V18H12a.988.988,0,0,0-.89.55l-6,12A1,1,0,0,0,5,31V59a3.009,3.009,0,0,0,3,3H36a3.009,3.009,0,0,0,3-3V31a1,1,0,0,0-.11-.45l-6-12A.988.988,0,0,0,32,18H23v-.5a13.5,13.5,0,0,1,27,0V42H48a1,1,0,0,0-.83.45l-4,6A.967.967,0,0,0,43,49V59a3.009,3.009,0,0,0,3,3H56a3.009,3.009,0,0,0,3-3V49A.967.967,0,0,0,58.83,48.45ZM25,24a1,1,0,0,1,0,2H19a1,1,0,0,1,0-2Zm8,7V23.24l4,8V59a1,1,0,0,1-1,1H8a1,1,0,0,1-1-1V31.24l4-8V31a1,1,0,0,0,1,1H32A1,1,0,0,0,33,31ZM31,20V30H13V20h8v2H19a3,3,0,0,0,0,6h6a3,3,0,0,0,0-6H23V20ZM57,59a1,1,0,0,1-1,1H46a1,1,0,0,1-1-1V49.3L48.54,44H50v4H48v2h6V48H52V44h1.46L57,49.3Z"></path><path d="M31.95,40.26a1.052,1.052,0,0,0-.71-.49l-1.87-.29A7,7,0,0,0,22,43.35a7,7,0,0,0-7.37-3.87l-1.87.29a1.052,1.052,0,0,0-.71.49,1,1,0,0,0-.06.86l.67,1.76a7.057,7.057,0,0,0,6.55,4.49,6.559,6.559,0,0,0,1.08-.09l.71-.11V54h2V47.17l.71.11a6.559,6.559,0,0,0,1.08.09,7.057,7.057,0,0,0,6.55-4.49l.67-1.76A1,1,0,0,0,31.95,40.26ZM19.98,45.31a5.039,5.039,0,0,1-5.45-3.15l-.23-.61.64-.1a5.033,5.033,0,0,1,5.45,3.15l.23.61Zm9.49-3.15a5.039,5.039,0,0,1-5.45,3.15l-.64-.1.23-.61a5.039,5.039,0,0,1,5.45-3.15l.64.1Z"></path><rect x="9" y="56" width="2" height="2"></rect><rect x="13" y="56" width="2" height="2"></rect><rect x="17" y="56" width="2" height="2"></rect><rect x="21" y="56" width="2" height="2"></rect><rect x="25" y="56" width="2" height="2"></rect><rect x="29" y="56" width="2" height="2"></rect><rect x="9" y="52" width="2" height="2"></rect><rect x="9" y="48" width="2" height="2"></rect><rect x="9" y="44" width="2" height="2"></rect><rect x="9" y="40" width="2" height="2"></rect><rect x="9" y="36" width="2" height="2"></rect><rect x="33" y="56" width="2" height="2"></rect><rect x="33" y="52" width="2" height="2"></rect><rect x="33" y="48" width="2" height="2"></rect><rect x="33" y="44" width="2" height="2"></rect><rect x="33" y="40" width="2" height="2"></rect><rect x="33" y="36" width="2" height="2"></rect></g></svg>