<svg xmlns="http://www.w3.org/2000/svg" viewBox="0 0 64 64" x="0px" y="0px"><g><rect x="12" y="36" width="40" height="14"></rect><path d="M52,52H12v5a3,3,0,0,0,3,3H49a3,3,0,0,0,3-3Z"></path><path d="M52,33.062a4.976,4.976,0,0,0-3.143-4.642l-9.971-3.988A2.987,2.987,0,0,1,37,21.646V18H27v3.646a2.987,2.987,0,0,1-1.886,2.786L15.143,28.42A4.976,4.976,0,0,0,12,33.062V34H52Z"></path><rect x="30" y="4" width="4" height="4"></rect><rect x="28" y="10" width="8" height="2"></rect><path d="M22,16H46a2,2,0,0,1,2,2h2V17a3,3,0,0,0-3-3H22Z"></path></g></svg>