<svg xmlns="http://www.w3.org/2000/svg" viewBox="0 0 64 64" x="0px" y="0px"><g><path d="M14,21a9,9,0,0,0,18,0V13a1,1,0,0,0-1-1H15a1,1,0,0,0-1,1Zm13-5a2,2,0,1,1-2,2A2,2,0,0,1,27,16Zm-2.016,7.25,1.323,1.5a5,5,0,0,1-6.614,0l1.323-1.5A3.076,3.076,0,0,0,24.984,23.25ZM19,16a2,2,0,1,1-2,2A2,2,0,0,1,19,16Z"></path><path d="M27.89,10H31a3,3,0,0,1,1,.18V7H29.71A7.065,7.065,0,0,1,27.89,10Z"></path><polygon points="23 38.23 21.11 39.58 22.57 42 23.43 42 24.89 39.58 23 38.23"></polygon><polygon points="20.97 43.22 19.48 40.75 18.15 41.7 19.86 53.22 20.97 43.22"></polygon><path d="M4,60H9V46h2a1.007,1.007,0,0,1,.29-.71l1.42-1.42-1.54-2.32a.994.994,0,0,1-.04-1.05l2.09-3.64L8.91,38.2A6.964,6.964,0,0,0,4,44.88Z"></path><path d="M10,18a2.015,2.015,0,0,0,2,2V16A2.006,2.006,0,0,0,10,18Z"></path><path d="M18.33,60,11.12,46.47A.967.967,0,0,1,11,46V60Z"></path><polygon points="28.76 35.6 27.19 35.11 24.69 36.98 28.18 39.48 28.76 35.6"></polygon><rect x="52" y="40" width="4" height="4"></rect><polygon points="34 37.23 32.78 36.85 34 38.98 34 37.23"></polygon><path d="M26,33.5V31.57a10.68,10.68,0,0,1-6,0V33.5l3,2.25Z"></path><path d="M27.84,55.43l4.93-9.25-1.48-1.47a1,1,0,0,1-.12-1.26l1.66-2.49-2.26-3.95Z"></path><polygon points="27.85 41.7 26.52 40.75 25.03 43.22 26.14 53.22 27.85 41.7"></polygon><polygon points="34 42.8 33.29 43.87 34 44.59 34 42.8"></polygon><path d="M34,59V48.13L27.67,60h6.51A3,3,0,0,1,34,59Z"></path><rect x="40" y="52" width="4" height="4"></rect><rect x="52" y="52" width="4.002" height="4"></rect><path d="M13.23,46.18l4.93,9.25L15.43,37.01l-2.26,3.95,1.66,2.49a1,1,0,0,1-.12,1.26Z"></path><path d="M14,10.18A3,3,0,0,1,15,10h8a5,5,0,0,0,5-5V4H19a5,5,0,0,0-5,5Z"></path><path d="M34,20a2.015,2.015,0,0,0,2-2,2.006,2.006,0,0,0-2-2Z"></path><path d="M40,34H56V28H40Zm11-4h2v2H51Zm-4,0h2v2H47Zm-4,0h2v2H43Z"></path><path d="M60,59V25a1,1,0,0,0-1-1H37a1,1,0,0,0-1,1V59a1,1,0,0,0,1,1H59A1,1,0,0,0,60,59Zm-2-3a2,2,0,0,1-2,2H40a2,2,0,0,1-2-2V40a2,2,0,0,1,2-2H56a2,2,0,0,1,2,2Zm0-22a2,2,0,0,1-2,2H40a2,2,0,0,1-2-2V28a2,2,0,0,1,2-2H56a2,2,0,0,1,2,2Z"></path><polygon points="22.9 44 21.12 60 24.88 60 23.1 44 22.9 44"></polygon><rect x="46" y="40" width="4" height="4"></rect><rect x="40" y="40" width="4" height="4"></rect><rect x="40" y="46" width="4" height="4"></rect><rect x="52" y="46" width="4.001" height="4"></rect><polygon points="18.81 35.11 17.24 35.6 17.82 39.48 21.31 36.98 18.81 35.11"></polygon><rect x="46" y="46" width="4" height="4"></rect><rect x="46" y="52" width="4" height="4"></rect></g></svg>