<svg xmlns="http://www.w3.org/2000/svg" viewBox="0 0 64 64" x="0px" y="0px"><g><path d="M57,2H17a1,1,0,0,0-1,1V26.53A8.976,8.976,0,0,0,13.36,42H13a3.009,3.009,0,0,0-3,3v2a3,3,0,0,0,.18,1H5a3.009,3.009,0,0,0-3,3v2a2.974,2.974,0,0,0,.78,2A2.974,2.974,0,0,0,2,57v2a3.009,3.009,0,0,0,3,3H17a2.974,2.974,0,0,0,2-.78A2.974,2.974,0,0,0,21,62H57a5,5,0,0,0,5-5V7A5,5,0,0,0,57,2ZM18,4h4V26.53A8.805,8.805,0,0,0,19,26a8.262,8.262,0,0,0-1,.06ZM12,35a7,7,0,1,1,7,7A7.008,7.008,0,0,1,12,35Zm6,24a1,1,0,0,1-1,1H5a1,1,0,0,1-1-1V57a1,1,0,0,1,1-1H6v2H8V56h2v2h2V56h2v2h2V56h1a1,1,0,0,1,1,1Zm0-6a1,1,0,0,1-1,1H5a1,1,0,0,1-1-1V51a1,1,0,0,1,1-1H6v2H8V50h2v2h2V50h2v2h2V50h1a1,1,0,0,1,1,1Zm-5-5a1,1,0,0,1-1-1V45a1,1,0,0,1,1-1h1v2h2V44h2v2h2V44h2v2h2V44h1a1,1,0,0,1,1,1v2a1,1,0,0,1-1,1ZM34,59a1,1,0,0,1-1,1H21a1,1,0,0,1-1-1V57a1,1,0,0,1,1-1h1v2h2V56h2v2h2V56h2v2h2V56h1a1,1,0,0,1,1,1Zm0-6a1,1,0,0,1-1,1H21a1,1,0,0,1-1-1V51a1,1,0,0,1,1-1h1v2h2V50h2v2h2V50h2v2h2V50h1a1,1,0,0,1,1,1Zm-2-7V40H52v6ZM60,57a3.009,3.009,0,0,1-3,3H35.82A3,3,0,0,0,36,59V58H57a4.924,4.924,0,0,0,3-1.03Zm0-4a3.009,3.009,0,0,1-3,3H35.82a3.174,3.174,0,0,0-.6-1,3.174,3.174,0,0,0,.6-1H57a4.924,4.924,0,0,0,3-1.03Zm0-4a3.009,3.009,0,0,1-3,3H36V51a3.009,3.009,0,0,0-3-3H53a1,1,0,0,0,1-1V39a1,1,0,0,0-1-1H31a1,1,0,0,0-1,1v8a1,1,0,0,0,1,1H27.82A3,3,0,0,0,28,47V45a3.009,3.009,0,0,0-3-3h-.36A8.983,8.983,0,0,0,24,27.52V4H57a3.009,3.009,0,0,1,3,3Z"></path><path d="M41,19h2a1,1,0,0,1,1,1h2a3,3,0,0,0-3-3V16H41v1a3,3,0,0,0,0,6h2a1,1,0,0,1,0,2H41a1,1,0,0,1-1-1H38a3,3,0,0,0,3,3v1h2V27a3,3,0,0,0,0-6H41a1,1,0,0,1,0-2Z"></path><path d="M42,8A14,14,0,1,0,56,22,14.015,14.015,0,0,0,42,8Zm9.847,7.16-1.742,1.006A10.07,10.07,0,0,0,47.834,13.9l1.006-1.742A12.1,12.1,0,0,1,51.847,15.16ZM41,31.949v2a11.894,11.894,0,0,1-4.106-1.1l1-1.735A9.9,9.9,0,0,0,41,31.949Zm2,0a9.9,9.9,0,0,0,3.1-.84l1,1.735A11.894,11.894,0,0,1,43,33.949ZM42,30a8,8,0,1,1,8-8A8.009,8.009,0,0,1,42,30Zm-9.949-9h-2a11.888,11.888,0,0,1,1.105-4.106l1.735,1A9.875,9.875,0,0,0,32.051,21Zm0,2a9.9,9.9,0,0,0,.84,3.1l-1.735,1A11.888,11.888,0,0,1,30.051,23ZM43,12.051v-2a11.894,11.894,0,0,1,4.106,1.105l-1,1.735A9.894,9.894,0,0,0,43,12.051Zm-2,0a9.894,9.894,0,0,0-3.1.84l-1-1.735A11.894,11.894,0,0,1,41,10.051ZM51.949,23h2a11.888,11.888,0,0,1-1.1,4.106l-1.735-1A9.9,9.9,0,0,0,51.949,23Zm0-2a9.875,9.875,0,0,0-.84-3.1l1.735-1A11.888,11.888,0,0,1,53.949,21ZM35.16,12.153,36.166,13.9A10.07,10.07,0,0,0,33.9,16.166L32.153,15.16A12.1,12.1,0,0,1,35.16,12.153ZM32.153,28.84,33.9,27.834a10.07,10.07,0,0,0,2.271,2.271L35.16,31.847A12.1,12.1,0,0,1,32.153,28.84ZM48.84,31.847l-1.006-1.742a10.07,10.07,0,0,0,2.271-2.271l1.742,1.006A12.1,12.1,0,0,1,48.84,31.847Z"></path><path d="M19,30v2a3,3,0,0,1,3,3h2A5.006,5.006,0,0,0,19,30Z"></path></g></svg>