<svg xmlns="http://www.w3.org/2000/svg" viewBox="0 0 64 64" x="0px" y="0px"><g><path d="M14,59a1,1,0,0,0,1,1H49a1,1,0,0,0,1-1V54H14Zm15-3h6v2H29Z"></path><path d="M22,26H42V12H22Zm7-10a1,1,0,0,1,1.515-.857l5,3a1,1,0,0,1,0,1.714l-5,3A1,1,0,0,1,29,22Z"></path><polygon points="31 17.767 31 20.233 33.056 19 31 17.767"></polygon><path d="M46,5.148l-.8.773a1,1,0,0,1-1.385,0L42,4.187,40.2,5.921a1,1,0,0,1-1.386,0l-1.8-1.734L35.2,5.922a1,1,0,0,1-1.386,0l-1.8-1.733-1.8,1.733a1,1,0,0,1-1.385,0L27.014,4.186,25.206,5.922a1,1,0,0,1-1.385,0l-1.81-1.736L20.2,5.922a1,1,0,0,1-1.384,0L18,5.143V48H46ZM20,34h4v2H20ZM38,44H20V42H38Zm6,0H40V42h4Zm0-4H20V38H44Zm0-4H26V34H44Zm0-4H20V30H44Zm0-5a1,1,0,0,1-1,1H21a1,1,0,0,1-1-1V11a1,1,0,0,1,1-1H43a1,1,0,0,1,1,1Z"></path><path d="M50,52V15H48V48a2,2,0,0,1-2,2H18a2,2,0,0,1-2-2V15H14V52Z"></path></g></svg>