<svg xmlns="http://www.w3.org/2000/svg" viewBox="0 0 64 64" x="0px" y="0px"><title>Cactus_24</title><g data-name="Cactus"><path d="M51,34H49.367a18.019,18.019,0,0,0,1.939-3.966h0a17.964,17.964,0,0,0-3.895-18.1,1,1,0,0,0-.891-.305,17.94,17.94,0,0,0-7.442,3.04A24.174,24.174,0,0,0,27.436,2.38a1,1,0,0,0-.872,0A24,24,0,0,0,15.185,34H13a1,1,0,0,0-1,1v4a1,1,0,0,0,1,1h1V61a1,1,0,0,0,1,1H49a1,1,0,0,0,1-1V40h1a1,1,0,0,0,1-1V35A1,1,0,0,0,51,34ZM39.332,32.794c.028-.073.052-.148.08-.221.139-.363.271-.728.391-1.1.051-.154.1-.311.142-.467.09-.292.176-.585.254-.881.046-.175.088-.351.13-.527.068-.282.131-.566.189-.85.036-.181.071-.362.1-.544.052-.289.1-.578.137-.869.025-.176.051-.351.072-.528.037-.315.064-.631.089-.947.012-.152.028-.3.037-.456.027-.468.044-.937.044-1.406,0-.671-.031-1.338-.085-2-.018-.22-.053-.435-.077-.654-.048-.439-.1-.878-.17-1.312-.043-.258-.1-.511-.153-.767-.078-.388-.157-.776-.254-1.159-.068-.268-.149-.533-.227-.8-.071-.241-.128-.486-.206-.725a15.913,15.913,0,0,1,5.328-2.6L41.219,25.533l1.892.647,3.945-11.564A15.971,15.971,0,0,1,46.931,34H38.819Q39.092,33.4,39.332,32.794ZM15,24A22.147,22.147,0,0,1,26,4.955V32h2V4.972a22.131,22.131,0,0,1,9.71,11.61A21.629,21.629,0,0,1,39,24c0,.448-.015.894-.042,1.34-.009.148-.028.294-.039.442-.025.3-.048.594-.084.89-.022.176-.053.35-.079.525-.039.266-.076.532-.125.8-.034.185-.077.368-.115.552-.054.252-.106.5-.167.752-.047.189-.1.375-.153.563-.067.242-.133.483-.208.723-.059.188-.124.374-.188.56-.081.234-.162.468-.25.7-.071.186-.147.369-.223.553-.094.228-.19.456-.292.681-.082.18-.168.359-.254.537-.063.13-.13.258-.2.386H17.4A22.028,22.028,0,0,1,15,24ZM48,60H16V40H48Zm2-22H14V36H50Z"></path><rect x="44" y="56" width="2" height="2"></rect><rect x="44" y="53" width="2" height="2"></rect><rect x="41" y="56" width="2" height="2"></rect></g></svg>