<svg xmlns="http://www.w3.org/2000/svg" viewBox="0 0 64 64" x="0px" y="0px"><g data-name="Mobile Synchronize"><path d="M4,43a1,1,0,0,0,1,1H39a1,1,0,0,0,1-1V42H25a1,1,0,0,1-1,1H20a1,1,0,0,1-1-1H4Z"></path><path d="M37,20H7a1,1,0,0,0-1,1V40H38V30a4,4,0,0,1-1.17,2.83,1.014,1.014,0,0,1-1.42,0,1.008,1.008,0,0,1,0-1.42,1.98,1.98,0,0,0,0-2.82,1,1,0,0,1,1.42-1.42A4,4,0,0,1,38,30V21A1,1,0,0,0,37,20ZM17,32H15V30h2Zm6,0H21V30h2Zm6,0H27V30h2Z"></path><path d="M41.074,21.511a1,1,0,0,0,0,1.414,10.009,10.009,0,0,1,0,14.15,1,1,0,1,0,1.418,1.41,12.008,12.008,0,0,0,0-16.97A1,1,0,0,0,41.074,21.511Z"></path><path d="M38.95,35.95a.993.993,0,0,0,.707-.293,8,8,0,0,0,0-11.314,1,1,0,0,0-1.414,1.414,6,6,0,0,1,0,8.486,1,1,0,0,0,.707,1.707Z"></path><path d="M51,40h8a1,1,0,0,0,1-1V36H52V34h8V21a1,1,0,0,0-1-1H51a1,1,0,0,0-1,1v1h8v2H50V39A1,1,0,0,0,51,40Zm3-3h2v2H54Zm2-9h2v2H56Zm-4,0h2v2H52Z"></path></g></svg>