<svg xmlns="http://www.w3.org/2000/svg" viewBox="0 0 64 64" x="0px" y="0px"><g><rect x="56" y="30" width="4" height="4"></rect><rect x="56" y="18" width="4" height="4"></rect><rect x="56" y="42" width="4" height="4"></rect><polygon points="20 35.323 28 38.523 28 25.477 20 28.677 20 35.323"></polygon><path d="M31,23a1,1,0,0,0-1,1V40a1,1,0,0,0,2,0V24A1,1,0,0,0,31,23Z"></path><path d="M15,37v7a1,1,0,0,0,1,1h2a1,1,0,0,0,1-1V37.077L18.807,37Z"></path><path d="M45,6v6h4V6a2,2,0,0,0-4,0Z"></path><rect x="16" y="29" width="2" height="6"></rect><path d="M12,30v4a1,1,0,0,0,1,1h1V29H13A1,1,0,0,0,12,30Z"></path><path d="M34,31v2a1,1,0,0,0,0-2Z"></path><path d="M4,56v2a2,2,0,0,0,2,2H37.556A3.959,3.959,0,0,1,37,58V56Z"></path><path d="M10,4A2,2,0,0,0,8,6V54H38a1,1,0,0,1,1,1v3a2,2,0,0,0,4,0V42.414l-4.707-4.707,1.414-1.414L43,39.586V33H39V31h4V24.414l-3.293,3.293-1.414-1.414L43,21.586V6a3.959,3.959,0,0,1,.556-2Zm14,9h2v2H24Zm-7,2H15a3,3,0,0,1,0-6V8h2V9a3,3,0,0,1,3,3H18a1,1,0,0,0-1-1H15a1,1,0,0,0,0,2h2a3,3,0,0,1,0,6v1H15V19a3,3,0,0,1-3-3h2a1,1,0,0,0,1,1h2a1,1,0,0,0,0-2ZM34,35v5a2.995,2.995,0,0,1-5.9.715L21,37.877V44a3,3,0,0,1-3,3H16a3,3,0,0,1-3-3V37a3,3,0,0,1-3-3V30a3,3,0,0,1,3-3h5.807L28.1,23.285A2.995,2.995,0,0,1,34,24v5a3,3,0,0,1,0,6Zm5-16H24V17H39Zm0-4H28V13H39Z"></path><rect x="43" y="31" width="9" height="2"></rect><path d="M52,19v2H46.41L43,24.42V21.58l2.29-2.29A1.033,1.033,0,0,1,46,19Z"></path><path d="M52,43v2H46a1.033,1.033,0,0,1-.71-.29L43,42.42V39.58L46.41,43Z"></path></g></svg>