<svg xmlns="http://www.w3.org/2000/svg" viewBox="0 0 64 64" x="0px" y="0px"><g data-name="Cloud Hosting"><path d="M28,28h.586L26,25.414,23.414,28H24a1,1,0,0,1,1,1V40h2V29A1,1,0,0,1,28,28Z"></path><path d="M50.534,16.273a1,1,0,0,1-.774-.8A13.989,13.989,0,0,0,23.606,11.5a.98.98,0,0,1-.944.533l-.2-.013C22.311,12.011,22.157,12,22,12a11.016,11.016,0,0,0-10.894,9.557,1,1,0,0,1-.7.827A9,9,0,0,0,13,40H23V30H21a1,1,0,0,1-.707-1.707l5-5a1,1,0,0,1,1.414,0l5,5A1,1,0,0,1,31,30H29V40h7a1,1,0,0,1-.707-.293l-5-5A1,1,0,0,1,31,33h2V23h2V34a1,1,0,0,1-1,1h-.586L36,37.586,38.586,35H38a1,1,0,0,1-1-1V23h2V33h2a1,1,0,0,1,.707,1.707l-5,5A1,1,0,0,1,36,40H48a12,12,0,0,0,2.534-23.727Z"></path><path d="M22,50H12v4H22Zm-7,3H13V51h2Zm3,0H16V51h2Z"></path><path d="M12,60H22V56H12Zm4-3h2v2H16Zm-3,0h2v2H13Z"></path><path d="M22,44H12v4H22Zm-7,3H13V45h2Zm3,0H16V45h2Z"></path><path d="M27,60H37V56H27Zm4-3h2v2H31Zm-3,0h2v2H28Z"></path><path d="M37,50H27v4H37Zm-7,3H28V51h2Zm3,0H31V51h2Z"></path><path d="M37,44H27v4H37Zm-7,3H28V45h2Zm3,0H31V45h2Z"></path><path d="M42,60H52V56H42Zm4-3h2v2H46Zm-3,0h2v2H43Z"></path><path d="M52,50H42v4H52Zm-7,3H43V51h2Zm3,0H46V51h2Z"></path><path d="M52,44H42v4H52Zm-7,3H43V45h2Zm3,0H46V45h2Z"></path></g></svg>