<svg xmlns="http://www.w3.org/2000/svg" viewBox="0 0 64 64" x="0px" y="0px"><g><path d="M18,52H44V39H18ZM40,42h2v2H40Zm0,5h2v2H40Zm-4-5h2v2H36Zm0,5h2v2H36Zm-4-5h2v2H32Zm0,5h2v2H32Zm-4-5h2v2H28Zm0,5h2v2H28Zm-4-5h2v2H24Zm0,5h2v2H24Zm-4-5h2v2H20Zm0,5h2v2H20Z"></path><polygon points="18 34 18 37 44 37 44 34 40 34 40 36 38 36 38 34 32 34 32 36 30 36 30 34 24 34 24 36 22 36 22 34 18 34"></polygon><path d="M60,32A12.01,12.01,0,0,1,48,44H46V34a2.006,2.006,0,0,0-2-2H40V30H38v2H32V30H30v2H24V30H22v2H18a2.006,2.006,0,0,0-2,2V44H13a9,9,0,0,1-2.6-17.62.987.987,0,0,0,.71-.82A11.007,11.007,0,0,1,22,16c.16,0,.31.01.46.02l.2.01a1,1,0,0,0,.95-.53,13.985,13.985,0,0,1,26.15,3.98.994.994,0,0,0,.77.79A12.053,12.053,0,0,1,60,32Z"></path></g></svg>