<svg xmlns="http://www.w3.org/2000/svg" viewBox="0 0 64 64" x="0px" y="0px"><g><rect x="13" y="4" width="2" height="44"></rect><path d="M7,36.111a6.978,6.978,0,0,1,4-2.031V19.1A5.009,5.009,0,0,0,7,24Z"></path><polygon points="46 14 44 14 44 15.717 46 17.129 46 14"></polygon><rect x="32" y="33" width="4" height="6"></rect><path d="M57,50H12a5,5,0,0,0,0,10H57V58H13a3,3,0,0,1,0-6H57Z"></path><path d="M7,19.111a6.978,6.978,0,0,1,4-2.031V4.1A5.009,5.009,0,0,0,7,9Z"></path><path d="M12,55a1,1,0,0,0,1,1H57V54H13A1,1,0,0,0,12,55Z"></path><path d="M7,50.105a6.988,6.988,0,0,1,4-2.025V36.1A5.009,5.009,0,0,0,7,41Z"></path><path d="M37,13.224,22,23.814a.785.785,0,0,0,.316,1.415.774.774,0,0,0,.6-.14l13.494-9.9a1,1,0,0,1,1.184,0l13.494,9.9A.786.786,0,1,0,52,23.814Z"></path><path d="M28,23.841V39h2V32a1,1,0,0,1,1-1h6a1,1,0,0,1,1,1v7h8V23.841l-9-6.6ZM45,32v4a1,1,0,0,1-1,1H40a1,1,0,0,1-1-1V32a1,1,0,0,1,1-1h4A1,1,0,0,1,45,32Zm-4-7a4,4,0,1,1-4-4A4,4,0,0,1,41,25Z"></path><rect x="41" y="33" width="2" height="2"></rect><path d="M57,4H17V48H57ZM53.868,26a2.763,2.763,0,0,1-1.833,1.2,2.85,2.85,0,0,1-.493.044,2.768,2.768,0,0,1-1.64-.54l-1.9-1.4V39a2,2,0,0,1-2,2H28a2,2,0,0,1-2-2V25.307l-1.9,1.4a2.786,2.786,0,1,1-3.255-4.522l15.58-11a1,1,0,0,1,1.154,0L42,14.305V13a1,1,0,0,1,1-1h4a1,1,0,0,1,1,1v5.54l5.157,3.641A2.772,2.772,0,0,1,53.868,26Z"></path><circle cx="37" cy="25" r="2"></circle></g></svg>