<svg xmlns="http://www.w3.org/2000/svg" viewBox="0 0 64 64" x="0px" y="0px"><g data-name="Pants-Clothes-Long"><polygon points="31 4 19.035 4 19.104 6 31 6 31 4"></polygon><path d="M33.766,31.923,34.958,60H46.891L44.005,32.1A1.04,1.04,0,0,1,44,31.966l.625-18.117A6.983,6.983,0,0,1,39.079,8H37v5a3,3,0,0,1-3,3H32a1,1,0,0,1-1-1V8H24.921a6.983,6.983,0,0,1-5.546,5.849L20,31.966a1.04,1.04,0,0,1,0,.137L17.109,60H29.042l1.19-28.042L31,21.923a1,1,0,0,1,1.994,0Z"></path><path d="M22.9,8H19.173l.132,3.815A4.989,4.989,0,0,0,22.9,8Z"></path><path d="M44.7,11.815,44.827,8H41.1A4.989,4.989,0,0,0,44.7,11.815Z"></path><rect x="33" y="4" width="2" height="2"></rect><path d="M35,13V8H33v6h1A1,1,0,0,0,35,13Z"></path><polygon points="44.965 4 37 4 37 6 44.896 6 44.965 4"></polygon></g></svg>