<svg xmlns="http://www.w3.org/2000/svg" viewBox="0 0 64 64" x="0px" y="0px"><g><path d="M55,42a7.006,7.006,0,0,0-6.92,6H46V47a1,1,0,0,0-1-1H42.414l2.123-2.123a1,1,0,0,0,0-1.414l-1.415-1.415,1.415-1.417,1.416,1.416a1,1,0,0,0,1.414,0l2.83-2.83a1,1,0,0,0,0-1.416L36.757,23.373a1,1,0,0,0-1.414,0L33.22,25.5l-7.073-7.073a.757.757,0,0,0-.066-.044c-.021-.019-.033-.046-.056-.063l-4.95-3.535a1,1,0,0,0-1.288.107h0L14.13,9.23l.707-.707a1,1,0,0,0,0-1.414L12.009,4.281a1,1,0,0,0-1.414,0L7.766,7.109a1,1,0,0,0,0,1.414L10.6,11.352a1,1,0,0,0,1.414,0l.707-.707L18.373,16.3h0a1,1,0,0,0-.107,1.288L21.8,22.539c.017.024.045.036.065.059s.025.048.046.069l7.063,7.071-2.122,2.114a1,1,0,0,0,0,1.415L33,39.414V46H31V45a1,1,0,0,0-1-1H26a1,1,0,0,0-1,1v1H23V44h1a1,1,0,0,0,1-1.062l-1-16A1,1,0,0,0,23,26H20a1,1,0,0,0-1,1V43a1,1,0,0,0,1,1h1v2H19a1,1,0,0,0-1,1v1H15.92a7,7,0,1,0,0,2H18v1a1,1,0,0,0,1,1h6v3a1,1,0,0,0,1,1h4a1,1,0,0,0,1-1V52H45a1,1,0,0,0,1-1V50h2.08A7,7,0,1,0,55,42ZM11.3,9.23,9.888,7.816,11.3,6.4l1.414,1.414ZM21,28h1.061l.875,14H21ZM13.9,50a4.969,4.969,0,0,1-.732,1.753l-.631-.632-1.414,1.414.631.632A4.961,4.961,0,0,1,10,53.9V53H8v.9a4.961,4.961,0,0,1-1.753-.732l.631-.632L5.464,51.121l-.631.632A4.969,4.969,0,0,1,4.1,50H5V48H4.1a4.969,4.969,0,0,1,.732-1.753l.631.632,1.414-1.414-.631-.632A4.961,4.961,0,0,1,8,44.1V45h2v-.9a4.961,4.961,0,0,1,1.753.732l-.631.632,1.414,1.414.631-.632A4.969,4.969,0,0,1,13.9,48H13v2ZM41,44.586l-.706-.706,1.416-1.416.706.706Zm-9.192-9.192-.7-.7,7.067-7.075.706.706ZM43.826,33.27l-1.41,1.412-3.54-3.531,1.414-1.416Zm-4.239,4.244-3.539-3.532,1.415-1.416L41,36.1ZM34.634,35.4l3.54,3.531-1.415,1.416-3.535-3.536Zm10.608-.713.705.706L38.88,42.466l-.706-.706Zm1.418,4.241-.707-.707,1.41-1.415.711.708ZM36.05,25.494l.706.706L35.34,27.616l-.706-.706ZM20.6,16.9l3.3,2.357-.307.308-.851.851-2.357-3.3Zm4.5,3.983.337-.337,8.484,8.484L32.51,30.446l-.167-.166-8.31-8.321Zm5.284,10.27.708.708-1.408,1.413-.713-.712ZM35,41.414l1.053,1.053,2.12,2.12L39.586,46H35ZM20,50V48h5v2Zm9,4H27V46h2Zm15-4H31V48H44Zm15.9,0a4.969,4.969,0,0,1-.732,1.753l-.631-.632-1.414,1.414.631.632A4.961,4.961,0,0,1,56,53.9V53H54v.9a4.961,4.961,0,0,1-1.753-.732l.631-.632-1.414-1.414-.631.632A4.969,4.969,0,0,1,50.1,50H51V48h-.9a4.969,4.969,0,0,1,.732-1.753l.631.632,1.414-1.414-.631-.632A4.961,4.961,0,0,1,54,44.1V45h2v-.9a4.961,4.961,0,0,1,1.753.732l-.631.632,1.414,1.414.631-.632A4.969,4.969,0,0,1,59.9,48H59v2Z"></path><path d="M55,46a3,3,0,1,0,3,3A3,3,0,0,0,55,46Zm0,4a1,1,0,1,1,1-1A1,1,0,0,1,55,50Z"></path><path d="M9,46a3,3,0,1,0,3,3A3,3,0,0,0,9,46Zm0,4a1,1,0,1,1,1-1A1,1,0,0,1,9,50Z"></path></g></svg>