<svg xmlns="http://www.w3.org/2000/svg" viewBox="0 0 64 64" x="0px" y="0px"><title>Blogger-Article-Content-Laptop-Website</title><g><polygon points="42 10 45 10 42 6 42 10"></polygon><path d="M11,12a1,1,0,0,0-1,1V44H54V17.287L48,27.679V37a3,3,0,0,1-3,3H19a3,3,0,0,1-3-3V12Z"></path><path d="M19,4a1,1,0,0,0-1,1V37a1,1,0,0,0,1,1H45a1,1,0,0,0,1-1V30.9c-.032.02-.059.047-.093.064l-2.96,1.464L41.6,34.768a3,3,0,0,1-5.2-3l1.349-2.337-.212-3.3a.994.994,0,0,1,.132-.564L45.506,12H42a2,2,0,0,1-2-2V4Zm7,4H36v2H26ZM22,8h2v2H22Zm0,4H36v2H22Zm0,12h6v2H22Zm0,4h4v2H22Zm8,6H22V32h8Zm0-4H28V28h2Zm6,0H32V28h4Zm-6-4V24h2v2Zm6,0H34V24h2Zm0-4H22V20H36Zm4-4H22V16H40Z"></path><path d="M51.724,6.987a2.984,2.984,0,0,0-1.822,1.4l-.5.866,5.2,3,.5-.866a3,3,0,0,0-3.374-4.4Z"></path><rect x="50.25" y="9.917" width="1" height="5.999" transform="translate(14.188 50.408) rotate(-59.999)"></rect><path d="M38.134,32.768a1,1,0,0,0,1.732,1l1-1.732-1.732-1Z"></path><polygon points="44.423 29.471 39.577 26.673 39.731 29.071 42.269 30.536 44.423 29.471"></polygon><polygon points="40.402 24.84 42.134 25.839 47.634 16.313 49.366 17.313 43.866 26.84 45.598 27.839 52.098 16.581 46.902 13.582 40.402 24.84"></polygon><polygon points="26.618 54 25.618 56 38.382 56 37.382 54 26.618 54"></polygon><path d="M23.382,56l1.723-3.447A1,1,0,0,1,26,52H38a1,1,0,0,1,.9.553L40.618,56H59.382l-5-10H9.618l-5,10ZM54,54H52V52h2Zm-3-6h2v2H51Zm-1,6H48V52h2Zm-3-6h2v2H47Zm-4,0h2v2H43Zm-1,4h4v2H42Zm-3-4h2v2H39Zm-4,0h2v2H35Zm-4,0h2v2H31Zm-4,0h2v2H27Zm-4,0h2v2H23Zm-4,0h2v2H19Zm-1,4h4v2H18Zm-3-4h2v2H15Zm-1,4h2v2H14Zm-3-4h2v2H11Zm-1,4h2v2H10Z"></path><rect x="4" y="58" width="56" height="2"></rect></g></svg>