<svg xmlns="http://www.w3.org/2000/svg" viewBox="0 0 64 64" x="0px" y="0px"><g data-name="Whiskey-Bottle"><path d="M46,34.062a4.978,4.978,0,0,0-3.143-4.643l-6.228-2.49A1,1,0,0,1,36,26V12H28V26a1,1,0,0,1-.628.929L21.143,29.42A4.976,4.976,0,0,0,18,34.062V35H46Z"></path><path d="M46,37H18V51H46ZM32,49a5,5,0,1,1,5-5A5.006,5.006,0,0,1,32,49Z"></path><circle cx="32" cy="44" r="3"></circle><path d="M46,53H18v4a3,3,0,0,0,3,3H43a3,3,0,0,0,3-3Z"></path><path d="M25,4v6H39V4Zm4,4H27V6h2Zm4,0H31V6h2Zm4,0H35V6h2Z"></path></g></svg>