<svg xmlns="http://www.w3.org/2000/svg" viewBox="0 0 64 64" x="0px" y="0px"><g><path d="M62,32A30,30,0,0,0,2,32,29.639,29.639,0,0,0,7.656,49.488,6.967,6.967,0,0,0,6,54v6a2,2,0,0,0,2,2H56a2,2,0,0,0,2-2V54a6.967,6.967,0,0,0-1.656-4.512A29.639,29.639,0,0,0,62,32ZM51,47H45a6.972,6.972,0,0,0-3.341.858,6.756,6.756,0,0,0-.825-1.719A6.975,6.975,0,0,0,35,43H29a6.972,6.972,0,0,0-5.829,3.131,6.82,6.82,0,0,0-.83,1.727A6.972,6.972,0,0,0,19,47H13a6.954,6.954,0,0,0-3.839,1.153A27.6,27.6,0,0,1,4.04,33H15a5.006,5.006,0,0,0-5,5v1a1,1,0,0,0,1,1v2a5,5,0,0,0,10,0V40a1,1,0,0,0,1-1V38a5.006,5.006,0,0,0-5-5h9.1a5,5,0,0,0-.1,1v1a1,1,0,0,0,1,1v2a5,5,0,0,0,10,0V36a1,1,0,0,0,1-1V34a5,5,0,0,0-.1-1H47a5.006,5.006,0,0,0-5,5v1a1,1,0,0,0,1,1v2a5,5,0,0,0,10,0V40a1,1,0,0,0,1-1V38a5.006,5.006,0,0,0-5-5H59.96a27.6,27.6,0,0,1-5.121,15.153A6.954,6.954,0,0,0,51,47Zm-3,5.461L46.517,49h2.966ZM24,60V50a4.918,4.918,0,0,1,.834-2.759,4.986,4.986,0,0,1,3.524-2.2l1.321,3.082L31,51.205V60Zm8-11.539L30.517,45h2.966Zm-16,4L14.517,49h2.966ZM45,40a1,1,0,0,0,.707-.293l.49-.49,1.356.678A1,1,0,0,0,48,40h3v2a3,3,0,0,1-6,0Zm3.236-2-1.789-.9a1,1,0,0,0-1.154.188L44.586,38H44a3,3,0,0,1,3-3h2a3,3,0,0,1,3,3ZM33,31a3,3,0,0,1,3,3H32.236l-1.789-.9a1,1,0,0,0-1.154.188L28.586,34H28a3,3,0,0,1,3-3Zm-4,5a1,1,0,0,0,.707-.293l.49-.49,1.356.678A1,1,0,0,0,32,36h3v2a3,3,0,0,1-6,0Zm4-7V16.957a30.054,30.054,0,0,0,10.734-2.371A44.573,44.573,0,0,1,46.986,31H36.974A4.977,4.977,0,0,0,33,29Zm0-14.043V4.069c3.885.48,7.368,3.731,9.889,8.7A28.065,28.065,0,0,1,33,14.957ZM31,4.069V14.957a28.065,28.065,0,0,1-9.889-2.184C23.632,7.8,27.115,4.549,31,4.069Zm0,12.888V29a4.977,4.977,0,0,0-3.974,2H17.014a44.573,44.573,0,0,1,3.252-16.414A30.054,30.054,0,0,0,31,16.957ZM13,40a1,1,0,0,0,.707-.293l.49-.49,1.356.678A1,1,0,0,0,16,40h3v2a3,3,0,0,1-6,0Zm3.236-2-1.789-.9a1,1,0,0,0-1.154.188L12.586,38H12a3,3,0,0,1,3-3h2a3,3,0,0,1,3,3Zm43.739-7H48.986a45.867,45.867,0,0,0-3.5-17.231,29.763,29.763,0,0,0,4.757-2.982A27.944,27.944,0,0,1,59.975,31ZM48.636,9.494a27.71,27.71,0,0,1-4,2.466A22.682,22.682,0,0,0,39.407,5,27.905,27.905,0,0,1,48.636,9.494ZM19.362,11.96a27.71,27.71,0,0,1-4-2.466A27.905,27.905,0,0,1,24.593,5,22.682,22.682,0,0,0,19.362,11.96Zm-5.607-1.173a29.763,29.763,0,0,0,4.757,2.982A45.867,45.867,0,0,0,15.014,31H4.025A27.944,27.944,0,0,1,13.755,10.787ZM8,54a4.991,4.991,0,0,1,4.368-4.936L15,55.205V60H8Zm9,6v-4.8l2.634-6.146A4.934,4.934,0,0,1,22,50.03V54H20v2h2v4Zm16-8.8,1.321-3.082,1.321-3.082a4.991,4.991,0,0,1,3.529,2.208A4.908,4.908,0,0,1,40,50V60H33Zm9-1.175a4.934,4.934,0,0,1,2.366-.971L47,55.205V60H42ZM56,60H49v-4.8l2.632-6.141A4.991,4.991,0,0,1,56,54Z"></path><rect x="36" y="50" width="2" height="2"></rect><rect x="52" y="54" width="2" height="2"></rect></g></svg>