<svg xmlns="http://www.w3.org/2000/svg" viewBox="0 0 64 64" x="0px" y="0px"><g><path d="M45,38a9,9,0,1,0,9,9A9.01,9.01,0,0,0,45,38Zm4.9,10a4.961,4.961,0,0,1-.732,1.753l1.49,1.49-1.414,1.414-1.49-1.49A4.969,4.969,0,0,1,46,51.9V54H44V51.9a4.969,4.969,0,0,1-1.753-.732l-1.49,1.49-1.414-1.414,1.49-1.49A4.961,4.961,0,0,1,40.1,48H38V46h2.1a4.961,4.961,0,0,1,.732-1.753l-1.49-1.49,1.414-1.414,1.49,1.49A4.969,4.969,0,0,1,44,42.1V40h2v2.1a4.969,4.969,0,0,1,1.753.732l1.49-1.49,1.414,1.414-1.49,1.49A4.961,4.961,0,0,1,49.9,46H52v2Z"></path><path d="M47,58H26V56H38.7a11.1,11.1,0,0,1-2.174-2H26V52h9.214a10.974,10.974,0,0,1-.788-2H26V48h8.051c-.03-.33-.051-.662-.051-1a10.966,10.966,0,0,1,.426-3H31a4,4,0,0,1,0-8h4a2,2,0,0,0,2-2,1.771,1.771,0,0,0-.112-.639,1.933,1.933,0,0,0-.476-.775A1.985,1.985,0,0,0,35,32H12V51h2a1,1,0,0,1,.669.257L24.384,60H47a1.973,1.973,0,0,0,1.925-2.512A3.949,3.949,0,0,1,47,58Z"></path><rect x="54" y="11" width="6" height="22"></rect><circle cx="44" cy="19" r="2"></circle><path d="M45,44a3,3,0,1,0,3,3A3,3,0,0,0,45,44Zm1,4H44V46h2Z"></path><path d="M19.17,9H17v1a3.91,3.91,0,0,0-1.92.52A1.821,1.821,0,0,1,15,10a2.006,2.006,0,0,1,2-2h1.18Z"></path><rect x="4" y="31" width="6" height="22"></rect><path d="M19.17,13l-.98.99H17.02a3.975,3.975,0,0,0-1.95.52A2.027,2.027,0,0,1,15,14a2.006,2.006,0,0,1,2-2v1Z"></path><path d="M17,4a2.006,2.006,0,0,0-2,2,1.821,1.821,0,0,0,.08.52A3.91,3.91,0,0,1,17,6h2.1l1.36-1.36L21.83,6H22V4Zm33,9a.971.971,0,0,1-.67-.26L39.62,4H26V6h.17l1.37-1.36L28.9,6H38V8H29.82l-.99,1H31v1h7v2H31v1H28.83l.99,1H38v2l-9.09-.01-1.37,1.37-1.38-1.37H26V18H22V15.99h-.16l-1.38,1.37-1.37-1.37H17.01a1.95,1.95,0,0,0-1.51.67,2.014,2.014,0,0,0-.5,1.33A2,2,0,0,0,17.01,20H33a4,4,0,1,1,0,8H29a2.006,2.006,0,0,0-2,2h8a4,4,0,0,1,2.83,1.17,3.823,3.823,0,0,1,.62.83H52V13Zm0,7H47.86a4.166,4.166,0,0,1-.43,1.02l1.52,1.52-1.41,1.41-1.52-1.52a4.166,4.166,0,0,1-1.02.43V25H43V22.86a4.166,4.166,0,0,1-1.02-.43l-1.52,1.52-1.41-1.41,1.52-1.52A4.166,4.166,0,0,1,40.14,20H38V18h2.14a4.166,4.166,0,0,1,.43-1.02l-1.52-1.52,1.41-1.41,1.52,1.52A4.166,4.166,0,0,1,43,15.14V13h2v2.14a4.166,4.166,0,0,1,1.02.43l1.52-1.52,1.41,1.41-1.52,1.52A4.166,4.166,0,0,1,47.86,18H50Z"></path><path d="M21.3,12.285l-1.544,1.544,1.414,1.414L22.715,13.7a2.746,2.746,0,0,0,.285.117V16h2V13.816a2.746,2.746,0,0,0,.285-.117l1.544,1.544,1.414-1.414L26.7,12.285A2.746,2.746,0,0,0,26.816,12H29V10H26.816a2.746,2.746,0,0,0-.117-.285l1.544-1.544L26.829,6.757,25.285,8.3A2.746,2.746,0,0,0,25,8.184V6H23V8.184a2.746,2.746,0,0,0-.285.117L21.171,6.757,19.757,8.171,21.3,9.715a2.746,2.746,0,0,0-.117.285H19v2h2.184A2.746,2.746,0,0,0,21.3,12.285ZM23,11a1,1,0,1,1,1,1A1,1,0,0,1,23,11Z"></path></g></svg>