<svg xmlns="http://www.w3.org/2000/svg" viewBox="0 0 64 64" x="0px" y="0px"><g><path d="M11.414,56H52.586l-4-4H15.414ZM46,53h2v2H46Zm-4,0h2v2H42ZM24,53H40v2H24Zm-4,0h2v2H20Zm-4,0h2v2H16Z"></path><rect x="10" y="58" width="44" height="2"></rect><path d="M19,50H17V48a1,1,0,0,0-1-1H10a3,3,0,0,1,0-6h6a1,1,0,0,0,1-1V38h2v2a3,3,0,0,1-3,3H10a1,1,0,0,0,0,2h6a3,3,0,0,1,3,3Z"></path><path d="M11,35a1,1,0,0,0,1,1H52a1,1,0,0,0,1-1V32H11Zm36-2h2v2H47Z"></path><path d="M18,29a1,1,0,0,0,1,1H45a1,1,0,0,0,1-1V10H18ZM32,12a8,8,0,1,1-8,8A8.009,8.009,0,0,1,32,12Z"></path><polygon points="34.197 20 31 17.869 31 22.138 34.197 20"></polygon><path d="M46,5a1,1,0,0,0-1-1H19a1,1,0,0,0-1,1V8H46ZM22,7H20V5h2Zm4,0H24V5h2Zm4,0H28V5h2Z"></path><path d="M32,26a6,6,0,1,0-6-6A6.006,6.006,0,0,0,32,26Zm-3-8.131A2,2,0,0,1,32.11,16.2l3.2,2.131a2,2,0,0,1,0,3.328l-3.2,2.131A2,2,0,0,1,29,22.131Z"></path><rect x="28" y="38" width="8" height="4"></rect><path d="M53,9V30H47.82A3,3,0,0,0,48,29V8h4A1,1,0,0,1,53,9Z"></path><path d="M16.18,30H11V9a1,1,0,0,1,1-1h4V29A3,3,0,0,0,16.18,30Z"></path><rect x="23" y="44" width="18" height="2"></rect></g></svg>