<svg xmlns="http://www.w3.org/2000/svg" viewBox="0 0 64 64" x="0px" y="0px"><g><path d="M16,39a8.98,8.98,0,0,0-8.739,6.836.888.888,0,0,0,.175.765,1.045,1.045,0,0,0,.816.4,1,1,0,0,0,.97-.756l.009,0a6.99,6.99,0,0,1,13.538,0l.009,0a1,1,0,0,0,.963.756,1.049,1.049,0,0,0,.823-.4.885.885,0,0,0,.174-.765A8.978,8.978,0,0,0,16,39Z"></path><circle cx="16" cy="48" r="5"></circle><path d="M48,36A12,12,0,1,0,60,48,12.013,12.013,0,0,0,48,36Zm7.748,13a2.976,2.976,0,0,1-.809-.121,6.993,6.993,0,0,1-13.877,0,2.943,2.943,0,0,1-.8.12,3.021,3.021,0,0,1-2.4-1.166,2.881,2.881,0,0,1-.541-2.477,11,11,0,0,1,21.36,0,2.881,2.881,0,0,1-.541,2.477A3.018,3.018,0,0,1,55.748,49Z"></path><circle cx="48" cy="48" r="5"></circle><path d="M39.419,15.573a3.031,3.031,0,0,0,4.014-.2l3.584-3.584a20,20,0,0,0-30.034,0l3.584,3.584a3.028,3.028,0,0,0,4.015.2,11.983,11.983,0,0,1,14.837,0Z"></path><path d="M48,39a8.978,8.978,0,0,0-8.738,6.836.885.885,0,0,0,.174.765,1.045,1.045,0,0,0,.816.4,1,1,0,0,0,.971-.756l.008,0a6.99,6.99,0,0,1,13.538,0l.008,0a1,1,0,0,0,.964.756,1.049,1.049,0,0,0,.823-.4.885.885,0,0,0,.174-.765A8.978,8.978,0,0,0,48,39Z"></path><path d="M48,34c.338,0,.668.027,1,.051V25a16.777,16.777,0,0,0-2.9-9.468l-1.255,1.255c-.063.063-.136.108-.2.166A14.869,14.869,0,0,1,47,25v9.051C47.332,34.027,47.662,34,48,34Z"></path><path d="M16,36A12,12,0,1,0,28,48,12.013,12.013,0,0,0,16,36Zm7.748,13a2.976,2.976,0,0,1-.809-.121,6.993,6.993,0,0,1-13.877,0,2.982,2.982,0,0,1-.8.12,3.024,3.024,0,0,1-2.4-1.166,2.881,2.881,0,0,1-.542-2.477,11,11,0,0,1,21.361,0,2.877,2.877,0,0,1-.541,2.477A3.021,3.021,0,0,1,23.748,49Z"></path><path d="M17.9,15.532A16.782,16.782,0,0,0,15,25v9.051c.332-.024.662-.051,1-.051s.668.027,1,.051V25a14.865,14.865,0,0,1,2.355-8.048c-.065-.059-.139-.1-.2-.165Z"></path></g></svg>