<svg xmlns="http://www.w3.org/2000/svg" viewBox="0 0 64 64" x="0px" y="0px"><g><path d="M61.93,60.62l-9-22a1.015,1.015,0,0,0-.91-.62H52a1,1,0,0,0-.91.59l-4.08,8.97-4.8-16.01A13.876,13.876,0,0,0,46,22a14,14,0,0,0-28,0,13.876,13.876,0,0,0,3.79,9.55l-4.8,16.01-4.08-8.97a.978.978,0,0,0-.93-.59,1.015,1.015,0,0,0-.91.62l-9,22A1,1,0,0,0,3,62H61a1,1,0,0,0,.93-1.38Zm-9.98-19.1,2.07,5.05L52,48.59l-2.24-2.24ZM20,22a12,12,0,0,1,24,0,11.861,11.861,0,0,1-3.08,8H37.97a10,10,0,1,0-11.94,0H23.08A11.861,11.861,0,0,1,20,22ZM40.26,32l1.67,5.58-3.35-2.39a.991.991,0,0,0-1.22.04L32,39.7l-5.36-4.47a.991.991,0,0,0-1.22-.04l-3.35,2.39L23.74,32ZM24,22a8,8,0,1,1,8,8A8.011,8.011,0,0,1,24,22ZM12.05,41.52l2.19,4.83L12,48.59,9.98,46.57ZM13.26,60H4.49L9.16,48.58l2.13,2.13a1.014,1.014,0,0,0,1.42,0l2.41-2.42.99,2.18Zm2.08,0,5.79-19.3,4.82-3.44,5.41,4.51a1.005,1.005,0,0,0,1.28,0l5.41-4.51,4.82,3.44L48.66,60Zm35.4,0-2.85-9.53.99-2.18,2.41,2.42a1.014,1.014,0,0,0,1.42,0l2.13-2.13L59.51,60Z"></path><path d="M31,19h2a1,1,0,0,1,1,1h2a3,3,0,0,0-3-3V16H31v1a3,3,0,0,0,0,6h2a1,1,0,0,1,0,2H31a1,1,0,0,1-1-1H28a3,3,0,0,0,3,3v1h2V27a3,3,0,0,0,0-6H31a1,1,0,0,1,0-2Z"></path><rect x="31" y="2" width="2" height="4"></rect><rect x="21.5" y="2.545" width="2" height="6" transform="translate(0.242 11.993) rotate(-29.999)"></rect><rect x="14.545" y="9.5" width="2" height="6" transform="translate(-3.053 19.713) rotate(-60.001)"></rect><rect x="9.349" y="8.5" width="2" height="2" transform="translate(-3.053 13.712) rotate(-59.998)"></rect><rect x="10" y="21" width="6" height="2"></rect><rect x="6" y="21" width="2" height="2"></rect><rect x="12.545" y="30.5" width="6" height="2" transform="translate(-13.666 11.99) rotate(-29.995)"></rect><rect x="9.349" y="33.5" width="2" height="2" transform="translate(-15.861 9.794) rotate(-29.995)"></rect><rect x="47.454" y="28.5" width="2" height="6" transform="translate(-3.052 57.713) rotate(-60.001)"></rect><rect x="52.65" y="33.5" width="2" height="2" transform="translate(-3.05 63.718) rotate(-60.005)"></rect><rect x="48" y="21" width="6" height="2"></rect><rect x="56" y="21" width="2" height="2"></rect><rect x="45.455" y="11.5" width="6" height="2" transform="translate(0.24 25.898) rotate(-29.995)"></rect><rect x="52.65" y="8.5" width="2" height="2" transform="translate(2.436 28.093) rotate(-29.995)"></rect><rect x="38.5" y="4.545" width="6" height="2" transform="translate(15.951 38.715) rotate(-60.005)"></rect></g></svg>