<svg xmlns="http://www.w3.org/2000/svg" viewBox="0 0 64 64" x="0px" y="0px"><g data-name="Coding Process"><rect x="6" y="5" width="2" height="2"></rect><rect x="10" y="5" width="2" height="2"></rect><rect x="14" y="5" width="2" height="2"></rect><path d="M9.707,16.293,8.414,15l1.293-1.293L8.293,12.293l-2,2a1,1,0,0,0,0,1.414l2,2Z"></path><path d="M13.707,17.707l2-2a1,1,0,0,0,0-1.414l-2-2-1.414,1.414L13.586,15l-1.293,1.293Z"></path><rect x="10" y="20" width="2" height="2"></rect><rect x="14" y="20" width="10" height="2"></rect><rect x="12" y="24" width="4" height="2"></rect><rect x="18" y="24" width="10" height="2"></rect><rect x="8" y="28" width="18" height="2"></rect><rect x="14" y="32" width="4" height="2"></rect><rect x="20" y="32" width="10" height="2"></rect><rect x="12" y="57" width="28" height="2"></rect><path d="M44,57H42v2h3a1,1,0,0,0,1-1V54H44Z"></path><rect x="6" y="57" width="4" height="2"></rect><rect x="7" y="53" width="2" height="2"></rect><rect x="11" y="53" width="2" height="2"></rect><rect x="15" y="53" width="2" height="2"></rect><rect x="19" y="53" width="2" height="2"></rect><rect x="23" y="53" width="2" height="2"></rect><rect x="27" y="53" width="2" height="2"></rect><rect x="31" y="53" width="2" height="2"></rect><rect x="35" y="53" width="2" height="2"></rect><rect x="39" y="53" width="2" height="2"></rect><rect x="7" y="49" width="2" height="2"></rect><rect x="11" y="49" width="2" height="2"></rect><rect x="15" y="49" width="2" height="2"></rect><rect x="19" y="49" width="2" height="2"></rect><rect x="23" y="49" width="2" height="2"></rect><rect x="27" y="49" width="2" height="2"></rect><rect x="31" y="49" width="2" height="2"></rect><rect x="35" y="49" width="2" height="2"></rect><rect x="39" y="49" width="2" height="2"></rect><path d="M56,2a5.006,5.006,0,0,0-5,5V17a3,3,0,0,1-3,3H42V5a3,3,0,0,0-3-3H5A3,3,0,0,0,2,5V35a3,3,0,0,0,3,3H39a3,3,0,0,0,3-3V22h6a5.006,5.006,0,0,0,5-5V7a3,3,0,0,1,6,0V47a3,3,0,0,1-3,3H53V49a1,1,0,0,0-1-1H50a3,3,0,0,0-3-3H5a3,3,0,0,0-3,3V59a3,3,0,0,0,3,3H47a3,3,0,0,0,3-3V54h2a1,1,0,0,0,1-1V52h3a5.006,5.006,0,0,0,5-5V7A5.006,5.006,0,0,0,56,2ZM5,4H39a1,1,0,0,1,1,1V8H4V5A1,1,0,0,1,5,4ZM39,36H5a1,1,0,0,1-1-1V10H40V35A1,1,0,0,1,39,36Zm9,23a1,1,0,0,1-1,1H5a1,1,0,0,1-1-1V48a1,1,0,0,1,1-1H47a1,1,0,0,1,1,1Zm3-7H50V50h1Z"></path></g></svg>