<svg xmlns="http://www.w3.org/2000/svg" viewBox="0 0 64 64" x="0px" y="0px"><g data-name="Basset Hound-Dog"><path d="M17,42V39.371l-5,2.273V56h2V50a1,1,0,0,1,.293-.707L17,46.586Z"></path><path d="M4,53a3,3,0,0,0,3,3h3V54H9a3,3,0,0,1-3-3V43.171A3.006,3.006,0,0,0,4,46Z"></path><path d="M57.868,44.5l-.83,1.453L59.48,49H60V19.287L57.5,16H56V27.764l1.9,3.789A1,1,0,0,1,58,32V44A.993.993,0,0,1,57.868,44.5Z"></path><path d="M23,45a5.006,5.006,0,0,1,5,5H39a1,1,0,0,1,.986.835L40.847,56H43V51a1,1,0,0,1,1-1h.382A3.975,3.975,0,0,1,43,47V43H41a1,1,0,0,1-.9-.553l-.1-.21-3.1,6.21A1,1,0,0,1,36,49H33a1,1,0,0,1-1-1V44H24a.919.919,0,0,1-.165-.014L19,43.18V47a1,1,0,0,1-.293.707L16,50.414V56H30V55a3,3,0,0,0-3-3,1,1,0,0,1-1-1V50a3,3,0,0,0-3-3H21V45Z"></path><path d="M36.5,16,34,19.292V47h1.385L39,39.764V36a1,1,0,0,1,.1-.447l.9-1.789v-3.35l-1.707-1.707A1,1,0,0,1,38,28V16Z"></path><polygon points="32 42 32 32.553 19 38.462 19 41.153 24.083 42 32 42"></polygon><path d="M49.847,56H52V51a.993.993,0,0,1,.132-.5L56,43.734v-11.5l-1.274-2.548L54,30.414v3.35l.9,1.789A1,1,0,0,1,55,36v4a1,1,0,0,1-.1.447l-1,2A1,1,0,0,1,53,43H51v4a3.987,3.987,0,0,1-2.129,3.513.991.991,0,0,1,.115.322Z"></path><path d="M47,49a2,2,0,0,0,2-2V42.3l-1-1.5V45H46V40.8l-1,1.5V47A2,2,0,0,0,47,49Z"></path><path d="M54,27.586V20.5L51.577,18H50V16h2a1,1,0,0,1,.718.3L54,17.627V12.414L49.586,8H48V23.586l5,5ZM52,23H50V21h2Z"></path><path d="M46,38V36a1,1,0,0,1-.9-.553l-1-2A1,1,0,0,1,44,33V30h2v2.764L46.618,34h.764L48,32.764V30h2v3a1,1,0,0,1-.1.447l-1,2A1,1,0,0,1,48,36v2a1,1,0,0,1,.832.445L50.535,41h1.847L53,39.764V36.236l-.9-1.789A1,1,0,0,1,52,34V30.414l-5-5-5,5V34a1,1,0,0,1-.1.447L41,36.236v3.528L41.618,41h1.847l1.7-2.555A1,1,0,0,1,46,38Z"></path><path d="M42.423,18,40,20.5v7.085l1,1,5-5V8H44.414L40,12.414v5.213L41.282,16.3A1,1,0,0,1,42,16h2v2ZM44,23H42V21h2Z"></path></g></svg>