<svg xmlns="http://www.w3.org/2000/svg" viewBox="0 0 64 64" x="0px" y="0px"><g><path d="M58.118,28.012l3.444-5.966a4,4,0,1,0-6.928-4L48.887,28H15.113L9.366,18.046a4,4,0,1,0-6.929,4l3.445,5.966A3.995,3.995,0,0,0,6,36H8.074L9.433,53.687A9.044,9.044,0,0,0,18.41,62H45.59a9.044,9.044,0,0,0,8.977-8.313L55.926,36H58a4,4,0,0,0,2.827-6.827A3.959,3.959,0,0,0,58.118,28.012Zm-1.752-8.966a2,2,0,1,1,3.464,2l-9,15.588-3.464-2ZM47.732,30l-2.31,4H18.578l-2.31-4ZM4.9,18.313a2,2,0,0,1,2.732.733l9,15.588-3.464,2-9-15.588A2,2,0,0,1,4.9,18.313Zm-.315,15.1A2,2,0,0,1,6,30H7.03l2.309,4H6A1.983,1.983,0,0,1,4.587,33.413ZM52.573,53.534A7.034,7.034,0,0,1,45.59,60H18.41a7.035,7.035,0,0,1-6.983-6.466L10.08,36h.414l1.443,2.5a1,1,0,0,0,1.367.366L18.268,36H45.732L50.7,38.866a1,1,0,0,0,1.366-.366L53.506,36h.414ZM58,34H54.661l2.309-4H58a2,2,0,0,1,0,4Z"></path><path d="M32,40a4,4,0,0,0-4,4v8a4,4,0,0,0,8,0V44A4,4,0,0,0,32,40Zm2,12a2,2,0,0,1-4,0V44a2,2,0,0,1,4,0Z"></path><path d="M44,40a4,4,0,0,0-4,4v8a4,4,0,0,0,8,0V44A4,4,0,0,0,44,40Zm2,12a2,2,0,0,1-4,0V44a2,2,0,0,1,4,0Z"></path><path d="M20,40a4,4,0,0,0-4,4v8a4,4,0,0,0,8,0V44A4,4,0,0,0,20,40Zm2,12a2,2,0,0,1-4,0V44a2,2,0,0,1,4,0Z"></path><path d="M18,26H46a2,2,0,0,0,2-2V4a2,2,0,0,0-2-2H18a2,2,0,0,0-2,2V24A2,2,0,0,0,18,26Zm0-6H28v1H18Zm0-6.91V8.91A6.008,6.008,0,0,0,22.91,4H41.09A6.007,6.007,0,0,0,46,8.91v4.181A6.006,6.006,0,0,0,41.09,18H22.91A6.008,6.008,0,0,0,18,13.09ZM46,21H36V20H46Zm0-3H43.142A3.993,3.993,0,0,1,46,15.143ZM30,20h4v4H30Zm16,4H36V23H46ZM46,6.858A3.993,3.993,0,0,1,43.142,4H46ZM20.858,4A4,4,0,0,1,18,6.858V4ZM18,15.127A4,4,0,0,1,20.859,18H18ZM18,23H28v1H18Z"></path><path d="M32,6a5,5,0,1,0,5,5A5.006,5.006,0,0,0,32,6Zm0,8a3,3,0,1,1,3-3A3,3,0,0,1,32,14Z"></path><rect x="58" y="6" width="2" height="4"></rect><rect x="54" y="4" width="2" height="2"></rect><rect x="54" y="8" width="2" height="4"></rect><rect x="50" y="10" width="2" height="4"></rect><rect x="50" y="6" width="2" height="2"></rect><rect x="58" y="2" width="2" height="2"></rect><rect x="4" y="6" width="2" height="4"></rect><rect x="8" y="4" width="2" height="2"></rect><rect x="8" y="8" width="2" height="4"></rect><rect x="12" y="10" width="2" height="4"></rect><rect x="12" y="6" width="2" height="2"></rect><rect x="4" y="2" width="2" height="2"></rect></g></svg>