<svg xmlns="http://www.w3.org/2000/svg" viewBox="0 0 64 64" x="0px" y="0px"><defs><style>.cls-1{fill:#231f20;}</style></defs><title>Medal_7</title><g data-name="Medal"><path class="cls-1" d="M61.767,45H56V42H54.907A24.583,24.583,0,0,0,57,32,25,25,0,0,0,7,32,24.583,24.583,0,0,0,9.093,42H8v3H2.233l3.6,6-3.6,6H15V54h5.16a24.864,24.864,0,0,0,23.68,0H49v3H61.767l-3.6-6Zm-3.534,2L56,50.723V47ZM9,32a23,23,0,0,1,46,0,22.566,22.566,0,0,1-2.3,10h-3.4A19.778,19.778,0,0,0,52,32a20,20,0,0,0-40,0,19.778,19.778,0,0,0,2.694,10H11.3A22.566,22.566,0,0,1,9,32ZM46.958,42H17.042A17.786,17.786,0,0,1,14,32a18,18,0,0,1,36,0A17.786,17.786,0,0,1,46.958,42ZM5.767,47H8v3.723ZM13,55H5.767L8,51.277V54h5Zm12.3-1H38.7A23.156,23.156,0,0,1,25.3,54ZM10,52V44H54v8Zm48.233,3H51V54h5V51.277Z"></path><path class="cls-1" d="M34.146,29,32,22.411,29.854,29H22.917l5.617,4.072-2.147,6.593L32,35.6l5.613,4.07-2.147-6.593L41.083,29Zm-.339,5.435L32,33.125l-1.807,1.31.693-2.127L29.083,31h2.223L32,28.869,32.694,31h2.223l-1.8,1.308Z"></path><path class="cls-1" d="M7,13H9a4,4,0,0,1,4-4V7A4,4,0,0,1,9,3H7A4,4,0,0,1,3,7V9A4,4,0,0,1,7,13ZM6.313,8A6.049,6.049,0,0,0,8,6.313,6.049,6.049,0,0,0,9.687,8,6.049,6.049,0,0,0,8,9.687l-.009-.012A6.06,6.06,0,0,0,6.325,8.009Z"></path><path class="cls-1" d="M55,18h2a4,4,0,0,1,4-4V12a4,4,0,0,1-4-4H55a4,4,0,0,1-4,4v2A4,4,0,0,1,55,18Zm-.687-5A6.049,6.049,0,0,0,56,11.313,6.049,6.049,0,0,0,57.687,13,6.049,6.049,0,0,0,56,14.687l-.009-.012a6.06,6.06,0,0,0-1.666-1.666Z"></path></g></svg>