<svg xmlns="http://www.w3.org/2000/svg" viewBox="0 0 64 64" x="0px" y="0px"><g><path d="M32,32A14,14,0,1,0,18,18,14.015,14.015,0,0,0,32,32Zm0-5a3,3,0,1,1,3-3A3,3,0,0,1,32,27Zm3.535-6.536a5,5,0,0,0-7.071,0L27.05,19.05a7,7,0,0,1,9.9,0Zm2.829-2.828a9.01,9.01,0,0,0-12.728,0l-1.414-1.414a11.011,11.011,0,0,1,15.556,0ZM32,9a14.9,14.9,0,0,1,10.606,4.394l-1.414,1.414a13,13,0,0,0-18.384,0l-1.414-1.414A14.9,14.9,0,0,1,32,9Z"></path><circle cx="32" cy="24" r="1"></circle><path d="M10,11V42H54V11a1,1,0,0,0-1-1H45.835a16.005,16.005,0,0,1,.987,2H51a1,1,0,0,1,1,1V39a1,1,0,0,1-1,1H13a1,1,0,0,1-1-1V13a1,1,0,0,1,1-1h4.178a16.005,16.005,0,0,1,.987-2H11A1,1,0,0,0,10,11Z"></path><path d="M32,34A15.935,15.935,0,0,1,16.527,14H14V38H50V14H47.473A15.935,15.935,0,0,1,32,34Z"></path><rect x="29" y="56" width="6" height="1"></rect><path d="M4,60H60V56H37v1a2,2,0,0,1-2,2H29a2,2,0,0,1-2-2V56H4Z"></path><path d="M59.382,54l-5-10H9.618l-5,10ZM54,52H52V50h2Zm-3-6h2v2H51Zm-1,6H48V50h2Zm-3-6h2v2H47Zm-4,0h2v2H43Zm-4,0h2v2H39Zm-4,0h2v2H35Zm-4,0h2v2H31Zm-4,0h2v2H27Zm-4,0h2v2H23Zm-4,0h2v2H19Zm-1,4H46v2H18Zm-3-4h2v2H15Zm-1,4h2v2H14Zm-3-4h2v2H11Zm-1,4h2v2H10Z"></path><rect x="58" y="30" width="2" height="2"></rect><rect x="4" y="30" width="2" height="2"></rect><rect x="4" y="24" width="2" height="2"></rect><rect x="4" y="18" width="2" height="2"></rect><rect x="58" y="24" width="2" height="2"></rect><rect x="58" y="18" width="2" height="2"></rect><rect x="57" y="5" width="2" height="2"></rect><rect x="5" y="5" width="2" height="2"></rect></g></svg>