<svg xmlns="http://www.w3.org/2000/svg" viewBox="0 0 64 64" x="0px" y="0px"><g><rect x="26" y="48" width="2" height="6"></rect><rect x="34" y="42" width="2" height="12"></rect><rect x="42" y="44" width="2" height="10"></rect><rect x="18" y="50" width="2" height="4"></rect><path d="M4,10H60V5a1,1,0,0,0-1-1H5A1,1,0,0,0,4,5ZM16,6h2V8H16ZM12,6h2V8H12ZM8,6h2V8H8Z"></path><rect x="50" y="38" width="2" height="16"></rect><path d="M5,60H59a1,1,0,0,0,1-1V12H4V59A1,1,0,0,0,5,60ZM54,37V54h2v2H14V54h2V49a1,1,0,0,1,1-1h4a1,1,0,0,1,1,1v5h2V47a1,1,0,0,1,1-1h4a1,1,0,0,1,1,1v7h2V41a1,1,0,0,1,1-1h4a1,1,0,0,1,1,1V54h2V43a1,1,0,0,1,1-1h4a1,1,0,0,1,1,1V54h2V37a1,1,0,0,1,1-1h4A1,1,0,0,1,54,37ZM40,17h8v2H40Zm-4,0h2v2H36Zm0,4H48v2H36Zm0,4H48v2H36Zm-.648,9.063,7.357,2.76,7.544-8.488,1.494,1.33-8,9a1,1,0,0,1-1.1.272l-7.439-2.791-7.55,6.606a1,1,0,0,1-.442.224l-9,2-.434-1.952,8.751-1.945,7.808-6.831A1,1,0,0,1,35.352,34.063ZM10,21a1,1,0,0,1,.2-.6l3-4A1,1,0,0,1,14,16H24a1,1,0,0,1,.8.4l3,4a1,1,0,0,1,.2.6v2a2.985,2.985,0,0,1-1,2.22V32a2,2,0,0,1-2,2H13a2,2,0,0,1-2-2V25.22A2.985,2.985,0,0,1,10,23Z"></path><path d="M13,24a1,1,0,0,0,1-1h2a1,1,0,0,0,2,0h2a1,1,0,0,0,2,0h2a1,1,0,0,0,2,0V22H12v1A1,1,0,0,0,13,24Z"></path><polygon points="23.5 18 14.5 18 13 20 25 20 23.5 18"></polygon><rect x="18" y="30" width="2" height="2"></rect><path d="M21,26a2.981,2.981,0,0,1-2-.78,2.954,2.954,0,0,1-4,0A2.981,2.981,0,0,1,13,26v6h3V29a1,1,0,0,1,1-1h4a1,1,0,0,1,1,1v3h3V26a2.981,2.981,0,0,1-2-.78A2.981,2.981,0,0,1,21,26Z"></path></g></svg>