<svg xmlns="http://www.w3.org/2000/svg" viewBox="0 0 64 64" x="0px" y="0px"><g><path d="M59,10H41a2.966,2.966,0,0,0-1,.184V9a3,3,0,0,0-3-3H13a3,3,0,0,0-3,3v5H7a5.006,5.006,0,0,0-5,5V41a5.006,5.006,0,0,0,5,5H18v6H17a1,1,0,0,0-1,1v3H14v2H36V56H34V53a1,1,0,0,0-1-1H32V46h6v9a3,3,0,0,0,3,3H59a3,3,0,0,0,3-3V13A3,3,0,0,0,59,10ZM12,14H38V33a1,1,0,0,1-1,1H13a1,1,0,0,1-1-1Zm1-6H37a1,1,0,0,1,1,1v3H12V9A1,1,0,0,1,13,8ZM7,16h3V33a3,3,0,0,0,3,3H37a3,3,0,0,0,3-3V16h3a3,3,0,0,1,3,3V38H4V19A3,3,0,0,1,7,16Zm40.9,2a4.954,4.954,0,0,0-.925-2H56v2ZM48,33.545A3.934,3.934,0,0,1,50,33a4,4,0,0,1,0,8,3.934,3.934,0,0,1-2-.545ZM48,24h8v2H48ZM4,41V40H46v1a3,3,0,0,1-3,3H7A3,3,0,0,1,4,41ZM18,56V54H32v2Zm12-4H20V46H30Zm13-6a4.99,4.99,0,0,0,4.732-3.46A5.994,5.994,0,1,0,48,31.346V28h9a1,1,0,0,0,1-1V23a1,1,0,0,0-1-1H48V20h9a1,1,0,0,0,1-1V15a1,1,0,0,0-1-1H40V13a1,1,0,0,1,1-1H59a1,1,0,0,1,1,1V50H40V46ZM59,56H41a1,1,0,0,1-1-1V52H60v3A1,1,0,0,1,59,56Z"></path><circle cx="14" cy="10" r="1"></circle><circle cx="17" cy="10" r="1"></circle><circle cx="20" cy="10" r="1"></circle><rect x="16" y="18" width="2" height="2"></rect><rect x="20" y="18" width="8" height="2"></rect><rect x="30" y="18" width="4" height="2"></rect><rect x="16" y="23" width="12" height="2"></rect><rect x="30" y="23" width="4" height="2"></rect><rect x="16" y="28" width="18" height="2"></rect></g></svg>