<svg xmlns="http://www.w3.org/2000/svg" viewBox="0 0 64 64" x="0px" y="0px"><g data-name="coffee cup-coffee mug-espresso-drink-coffee"><path d="M50,12h-.09L49.2,4.95A2.962,2.962,0,0,0,48.08,2.9a2.993,2.993,0,0,0-2.25-.63L18.12,5.85a3.021,3.021,0,0,0-2.47,2.02L14.28,12H14a2.006,2.006,0,0,0-2,2v4a2.006,2.006,0,0,0,2,2h.09l.76,8.02a2.059,2.059,0,0,0-1.29.63,2.025,2.025,0,0,0-.51,1.54l1.91,20A1.991,1.991,0,0,0,16.95,52h.19l.69,7.29A3,3,0,0,0,20.82,62H43.18a3,3,0,0,0,2.99-2.72L46.86,52h.19a1.991,1.991,0,0,0,1.99-1.81l1.91-20a1.987,1.987,0,0,0-1.8-2.17L49.91,20H50a2.006,2.006,0,0,0,2-2V14A2.006,2.006,0,0,0,50,12ZM17.55,8.51a1.011,1.011,0,0,1,.82-.68L46.09,4.25a1.02,1.02,0,0,1,.75.21,1.031,1.031,0,0,1,.37.69L47.9,12H16.39ZM44.17,59.09a.991.991,0,0,1-.99.91H20.82a.99.99,0,0,1-.99-.9L19.15,52h25.7ZM47.05,50H16.95L15.04,30H48.96ZM16.1,20H47.9l-.76,8H16.86ZM50,18H14V14H50Z"></path><path d="M29,45.2a4.3,4.3,0,0,0,2.166.57A6.193,6.193,0,0,0,36.33,42.5a6.666,6.666,0,0,0,.876-4.3,4.461,4.461,0,0,0-6.251-3.61A6.919,6.919,0,0,0,26.794,41.8,4.6,4.6,0,0,0,29,45.2Zm5.6-3.7a4.025,4.025,0,0,1-3.727,2.235l.071-.055a5.183,5.183,0,0,0,2.051-3.553,3.179,3.179,0,0,1,1.282-2.221,5.992,5.992,0,0,0,.576-.491,3.118,3.118,0,0,1,.378,1.088A4.661,4.661,0,0,1,34.6,41.5Zm-5.2-3a4.654,4.654,0,0,1,2.28-2.044,3.109,3.109,0,0,1,1.135-.227,2.575,2.575,0,0,1,.307.038l-.063.05a5.173,5.173,0,0,0-2.051,3.552,3.187,3.187,0,0,1-1.284,2.223,6.166,6.166,0,0,0-.578.493,3.137,3.137,0,0,1-.377-1.088A4.668,4.668,0,0,1,29.4,38.5Z"></path></g></svg>