<svg xmlns="http://www.w3.org/2000/svg" viewBox="0 0 64 64" x="0px" y="0px"><g data-name="World Wide"><path d="M38.779,27.667A17.909,17.909,0,0,1,33,28.953V35h6.974A27.79,27.79,0,0,0,38.779,27.667Z"></path><path d="M24.026,35H31V28.953a17.909,17.909,0,0,1-5.779-1.286A27.79,27.79,0,0,0,24.026,35Z"></path><path d="M25.221,44.333A17.909,17.909,0,0,1,31,43.047V37H24.026A27.79,27.79,0,0,0,25.221,44.333Z"></path><path d="M33,20.146v6.812a15.921,15.921,0,0,0,5.1-1.177C36.824,22.765,35.016,20.676,33,20.146Z"></path><path d="M41.968,23.508c-.052-.041-.1-.087-.152-.127-.152-.119-.309-.229-.465-.342-.231-.167-.463-.332-.7-.486-.166-.107-.335-.207-.5-.308-.238-.142-.479-.279-.724-.408q-.266-.14-.535-.268c-.248-.118-.5-.229-.752-.335-.169-.07-.339-.139-.51-.2A15.874,15.874,0,0,1,39.913,24.9,15.83,15.83,0,0,0,41.968,23.508Z"></path><path d="M25.9,25.781A15.921,15.921,0,0,0,31,26.958V20.146C28.984,20.676,27.176,22.765,25.9,25.781Z"></path><path d="M31,51.854V45.042a15.921,15.921,0,0,0-5.1,1.177C27.176,49.235,28.984,51.324,31,51.854Z"></path><path d="M23.381,26.782a17.957,17.957,0,0,1-2.826-1.922A15.98,15.98,0,0,0,16.052,35h5.975A29.484,29.484,0,0,1,23.381,26.782Z"></path><path d="M22.027,37H16.052a15.973,15.973,0,0,0,4.5,10.14,17.911,17.911,0,0,1,2.826-1.922A29.484,29.484,0,0,1,22.027,37Z"></path><path d="M22.032,48.492c.052.041.1.087.152.127.152.119.309.229.465.342.231.167.463.332.7.486.166.107.335.207.5.308.238.142.479.279.724.408q.265.14.535.268c.248.118.5.229.752.335.169.07.339.139.51.2A15.874,15.874,0,0,1,24.087,47.1,15.83,15.83,0,0,0,22.032,48.492Z"></path><path d="M26.375,21.031c-.172.064-.343.134-.513.2-.251.105-.5.215-.745.333-.182.087-.363.177-.541.271-.243.127-.481.263-.717.4-.171.1-.343.2-.511.313-.236.152-.465.314-.693.479-.158.115-.317.226-.471.347-.052.04-.1.086-.152.127A15.83,15.83,0,0,0,24.087,24.9,15.874,15.874,0,0,1,26.375,21.031Z"></path><path d="M60,7a3,3,0,0,0-3-3H7A3,3,0,0,0,4,7v3H60ZM9,8H7V6H9Zm4,0H11V6h2Zm4,0H15V6h2Z"></path><path d="M40.619,26.782A29.484,29.484,0,0,1,41.973,35h5.975a15.973,15.973,0,0,0-4.5-10.14A17.911,17.911,0,0,1,40.619,26.782Z"></path><path d="M60,12H4V57a3,3,0,0,0,3,3H57a3,3,0,0,0,3-3ZM44.19,49.232l0,0c-.415.385-.847.747-1.292,1.088a17.879,17.879,0,0,1-7.546,3.366A18.116,18.116,0,0,1,32,54,17.992,17.992,0,0,1,19.81,22.768l0,0c.415-.385.847-.747,1.292-1.088A17.993,17.993,0,0,1,44.19,49.232Z"></path><path d="M40.619,45.218a17.957,17.957,0,0,1,2.826,1.922A15.98,15.98,0,0,0,47.948,37H41.973A29.484,29.484,0,0,1,40.619,45.218Z"></path><path d="M39.974,37H33v6.047a17.909,17.909,0,0,1,5.779,1.286A27.79,27.79,0,0,0,39.974,37Z"></path><path d="M33,45.042v6.812c2.016-.53,3.824-2.619,5.1-5.635A15.921,15.921,0,0,0,33,45.042Z"></path><path d="M37.625,50.969c.172-.064.343-.134.513-.2.251-.105.5-.215.745-.333.182-.087.363-.177.541-.271.243-.127.48-.262.716-.4.172-.1.344-.2.513-.314.235-.152.464-.314.692-.479.158-.115.317-.226.471-.347.052-.04.1-.086.152-.127A15.83,15.83,0,0,0,39.913,47.1,15.874,15.874,0,0,1,37.625,50.969Z"></path></g></svg>