<svg xmlns="http://www.w3.org/2000/svg" viewBox="0 0 64 64" x="0px" y="0px"><g><path d="M26.532,6.537A9.937,9.937,0,0,0,17.53,4l-.893.2a8.976,8.976,0,0,0-6.6,5.812A19.727,19.727,0,0,1,26.532,6.537Z"></path><path d="M22,46a19.857,19.857,0,0,1-6.93-1.264l.176,2a8,8,0,1,0,15.938-1.4l-.135-1.523A19.854,19.854,0,0,1,22,46Zm-4.587,2.549-.174-1.992,3.985-.349L21.4,48.2Zm4.334,3.637-.175-1.993,3.984-.348.175,1.992Zm3.635-4.334-.174-1.992,3.985-.349.174,1.992Z"></path><path d="M31.7,15.93l.518,18.332a1,1,0,0,1-.912,1.024l-17.931,1.57c-.029,0-.059,0-.088,0a1.122,1.122,0,0,1-.141-.024A13.987,13.987,0,0,0,31.7,15.93Z"></path><path d="M40,26A18,18,0,1,0,22,44,18.021,18.021,0,0,0,40,26ZM22,42A16,16,0,1,1,38,26,16.019,16.019,0,0,1,22,42Z"></path><path d="M13.215,30.848l6.614-.578L20,32.262l-6.356.556.432,1.969,16.115-1.411-.057-2-4.157.364-.174-1.992,4.275-.374-.113-4.006-8.5.743L21.3,24.118l8.613-.753L29.8,19.359l-2.871.251-.175-1.992,2.99-.262-.087-3.063a13.962,13.962,0,0,0-19.227,3.84l.2.9,10.151-.888.174,1.992L11.056,21l.864,3.941,3.4-.3.175,1.992-3.144.275Zm10.6-.927.174,1.992L22,32.087,21.821,30.1Zm.946-12.129.175,1.993-1.993.174-.174-1.992Zm-5.454,6.5.174,1.993-1.993.174-.174-1.992Z"></path><path d="M8.983,20.88a13.908,13.908,0,0,0,3.336,15.21l-.006-.016Z"></path><path d="M52.4,59.407h0a3,3,0,0,0,2.12-5.118l-.708-.709-4.236,4.236.7.7A2.964,2.964,0,0,0,52.4,59.407Z"></path><rect x="38.092" y="44.092" width="6" height="2" transform="translate(-19.848 42.248) rotate(-44.985)"></rect><path d="M33.838,42.083l3.011,3.01,4.243-4.244-3.009-3.011A20.1,20.1,0,0,1,33.838,42.083Z"></path><rect x="43.751" y="49.748" width="5.995" height="2" transform="translate(-22.191 47.901) rotate(-44.984)"></rect><rect x="40.922" y="46.92" width="5.998" height="2" transform="translate(-21.02 45.074) rotate(-44.984)"></rect><rect x="46.581" y="52.577" width="5.993" height="2" transform="translate(-23.363 50.727) rotate(-44.983)"></rect><rect x="36" y="4" width="2" height="2"></rect><rect x="45" y="7" width="2" height="2"></rect><rect x="45" y="18" width="2" height="2"></rect><rect x="4" y="47" width="2" height="2"></rect><rect x="7" y="43" width="2" height="2"></rect><rect x="8" y="57" width="2" height="2"></rect><rect x="35" y="53" width="2" height="2"></rect><rect x="30" y="59" width="2" height="2"></rect></g></svg>