<svg xmlns="http://www.w3.org/2000/svg" viewBox="0 0 64 64" x="0px" y="0px"><g data-name="Car"><path d="M59.493,28.735l-9.86-1.643L43.02,15.52A5.009,5.009,0,0,0,38.679,13H20.472A4.973,4.973,0,0,0,16,15.764L10.9,25.973l-6.051-9.51A1,1,0,0,0,4,16H2v2H3.451l5.857,9.2-4.68.585A3,3,0,0,0,2,30.766V42a3,3,0,0,0,3,3H8.08a6.991,6.991,0,0,0,13.84,0H42.08a6.991,6.991,0,0,0,13.84,0H59a3,3,0,0,0,3-3V31.694A2.991,2.991,0,0,0,59.493,28.735ZM34,19h8.7l4.572,8H34Zm-2,8H18.348l2.392-8H32ZM4,42V41H7V39H4V30.766a1,1,0,0,1,.876-.993l6.248-.781a1,1,0,0,0,.771-.545l5.894-11.789A2.983,2.983,0,0,1,20.472,15H38.679a3,3,0,0,1,2.6,1.512l.279.488H20.74a1.99,1.99,0,0,0-1.908,1.422l-2.4,7.991A1.994,1.994,0,0,0,18.34,29H32V43H21.92A6.991,6.991,0,0,0,8.08,43H5A1,1,0,0,1,4,42Zm11,7a5,5,0,1,1,5-5A5.006,5.006,0,0,1,15,49Zm34,0a5,5,0,1,1,5-5A5.006,5.006,0,0,1,49,49Zm10-6H55.92a6.991,6.991,0,0,0-13.84,0H34V29H48.918l10.247,1.708a.989.989,0,0,1,.542.292H56a2,2,0,0,0-2,2v2a2,2,0,0,0,2,2h4v2H57v2h3v1A1,1,0,0,1,59,43Zm1-10v2H56V33Z"></path><rect x="36" y="31" width="4" height="2"></rect><rect x="19" y="31" width="4" height="2"></rect><rect x="14" y="43" width="2" height="2"></rect><rect x="48" y="43" width="2" height="2"></rect></g></svg>