<svg xmlns="http://www.w3.org/2000/svg" viewBox="0 0 64 64" x="0px" y="0px"><g><path d="M32.42,38.43l-.15-.05A12.913,12.913,0,0,1,26,40H22a12.913,12.913,0,0,1-6.27-1.62l-.15.05L20.45,44h7.1Z"></path><path d="M22,38h4a11.007,11.007,0,0,0,9.89-6.21A8.972,8.972,0,0,1,30,34H18a8.972,8.972,0,0,1-5.89-2.21A11.007,11.007,0,0,0,22,38Z"></path><path d="M11,25a7,7,0,0,0,6.67,6.98A10.978,10.978,0,0,1,13,23V17a3.009,3.009,0,0,1,3-3H32a3.009,3.009,0,0,1,3,3v6a10.978,10.978,0,0,1-4.67,8.98A7,7,0,0,0,37,25V19a7.008,7.008,0,0,0-7-7H18a7.008,7.008,0,0,0-7,7Z"></path><polygon points="26.15 50 26.82 46 21.18 46 21.85 50 26.15 50"></polygon><path d="M18,10H30a8.972,8.972,0,0,1,6.83,3.16A11,11,0,0,0,26,4H22a11,11,0,0,0-10.83,9.16A8.972,8.972,0,0,1,18,10Z"></path><path d="M53,56v1a1.033,1.033,0,0,1-.29.71l-.71.7v1.36a9.116,9.116,0,0,0,3.89-1.98L53.65,56Z"></path><path d="M43,60v-.52a10.967,10.967,0,0,1-.93-16.08,6.941,6.941,0,0,0-3.98-3.19l-1.98-.63.82,2.05a1.008,1.008,0,0,1-.22,1.08l-9,9A1.033,1.033,0,0,1,27,52H21a1.033,1.033,0,0,1-.71-.29l-9-9a1.008,1.008,0,0,1-.22-1.08l.82-2.05-1.98.62A6.964,6.964,0,0,0,5,46.88V60h6V49h2V60h2V55a1,1,0,0,1,1-1H32a1,1,0,0,1,1,1v5h2V49h2V60Z"></path><rect x="17" y="56" width="14" height="4"></rect><path d="M56,53a1.185,1.185,0,0,1-.32-.05l-3-1A1.014,1.014,0,0,1,52,51V48a.988.988,0,0,1,.55-.89L54,46.38V45a1,1,0,0,1,.11-.45l.6-1.2A8.9,8.9,0,0,0,50,42a8.737,8.737,0,0,0-2.06.25l.86,1.15a.984.984,0,0,1,.2.6v2.59l.71.7A1.033,1.033,0,0,1,50,48v2a1,1,0,0,1-.45.83L47,52.54v.84l1.45.73A.988.988,0,0,1,49,55v2a1,1,0,0,1-1,1H45a1.006,1.006,0,0,1-.39-.08l-.67-.29A8.918,8.918,0,0,0,50,60V58a1.033,1.033,0,0,1,.29-.71l.71-.7V55a1,1,0,0,1,1-1h2a.977.977,0,0,1,.62.22l2.63,2.1A9.145,9.145,0,0,0,58.77,53Z"></path><polygon points="33.99 39.67 28.94 45.44 28.5 48.09 34.83 41.76 33.99 39.67"></polygon><polygon points="19.06 45.44 14.01 39.67 13.17 41.76 19.5 48.09 19.06 45.44"></polygon><path d="M56.32,44.6l-.32.64V47a.988.988,0,0,1-.55.89L54,48.62v1.66l2.16.72H59A8.983,8.983,0,0,0,56.32,44.6Z"></path><path d="M47,56v-.38l-1.45-.73A.988.988,0,0,1,45,54V52a1,1,0,0,1,.45-.83L48,49.46V48.41l-.71-.7A1.033,1.033,0,0,1,47,47V44.33l-1.03-1.37A9.014,9.014,0,0,0,41,51a8.861,8.861,0,0,0,.71,3.5l3.5,1.5Z"></path><path d="M33,23V17a1,1,0,0,0-1-1H16a1,1,0,0,0-1,1v6a9,9,0,0,0,18,0ZM18,20a2,2,0,1,1,2,2A2,2,0,0,1,18,20Zm6,8a4.994,4.994,0,0,1-3.307-1.25l1.323-1.5a3.076,3.076,0,0,0,3.968,0l1.323,1.5A4.994,4.994,0,0,1,24,28Zm4-6a2,2,0,1,1,2-2A2,2,0,0,1,28,22Z"></path></g></svg>