<svg xmlns="http://www.w3.org/2000/svg" viewBox="0 0 64 64" x="0px" y="0px"><g><polygon points="50 52 48 52 48 50 46 50 46 52 44 52 44 50 42 50 42 52 40 52 40 50 38 50 38 52 36 52 36 50 34 50 34 54 52 54 52 50 50 50 50 52"></polygon><polygon points="50 46 48 46 48 44 46 44 46 46 44 46 44 44 42 44 42 46 40 46 40 44 38 44 38 46 36 46 36 44 34 44 34 48 52 48 52 44 50 44 50 46"></polygon><polygon points="50 40 48 40 48 38 46 38 46 40 44 40 44 38 42 38 42 40 40 40 40 38 38 38 38 40 36 40 36 38 34 38 34 42 52 42 52 38 50 38 50 40"></polygon><path d="M58,30.479a12.937,12.937,0,0,0-8.172-12.07L48.808,18H15.192l-1.019.408A12.939,12.939,0,0,0,6,30.479V57a3,3,0,0,0,3,3H55a3,3,0,0,0,3-3ZM21,21A10,10,0,1,1,11,31,10.011,10.011,0,0,1,21,21ZM54,36a1.978,1.978,0,0,1-.278,1A1.978,1.978,0,0,1,54,38v4a1.978,1.978,0,0,1-.278,1A1.978,1.978,0,0,1,54,44v4a1.978,1.978,0,0,1-.278,1A1.978,1.978,0,0,1,54,50v4a2,2,0,0,1-2,2H34a1.978,1.978,0,0,1-1-.278A1.978,1.978,0,0,1,32,56H14a2,2,0,0,1-2-2V50a1.978,1.978,0,0,1,.278-1A1.978,1.978,0,0,1,12,48V44a2,2,0,0,1,2-2H32V38a1.978,1.978,0,0,1,.278-1A1.978,1.978,0,0,1,32,36V32a2,2,0,0,1,2-2H52a2,2,0,0,1,2,2Z"></path><polygon points="50 34 48 34 48 32 46 32 46 34 44 34 44 32 42 32 42 34 40 34 40 32 38 32 38 34 36 34 36 32 34 32 34 36 52 36 52 32 50 32 50 34"></polygon><polygon points="30 46 28 46 28 44 26 44 26 46 24 46 24 44 22 44 22 46 20 46 20 44 18 44 18 46 16 46 16 44 14 44 14 48 32 48 32 44 30 44 30 46"></polygon><rect x="16" y="14" width="32" height="2"></rect><path d="M50,4H14a1,1,0,0,0-1,1v6a1,1,0,0,0,1,1H50a1,1,0,0,0,1-1V5A1,1,0,0,0,50,4ZM17,10H15V6h2Zm4,0H19V6h2Zm4,0H23V6h2Zm4,0H27V6h2Zm4,0H31V6h2Zm4,0H35V6h2Zm4,0H39V6h2Zm4,0H43V6h2Zm4,0H47V6h2Z"></path><polygon points="30 52 28 52 28 50 26 50 26 52 24 52 24 50 22 50 22 52 20 52 20 50 18 50 18 52 16 52 16 50 14 50 14 54 32 54 32 50 30 50 30 52"></polygon><path d="M21,39a8,8,0,1,0-8-8A8.009,8.009,0,0,0,21,39Zm1-7H20a3,3,0,0,1,0-6V25h2v1a3,3,0,0,1,3,3H23a1,1,0,0,0-1-1H20a1,1,0,0,0,0,2h2a3,3,0,0,1,0,6v1H20V36a3,3,0,0,1-3-3h2a1,1,0,0,0,1,1h2a1,1,0,0,0,0-2Z"></path></g></svg>