<svg xmlns="http://www.w3.org/2000/svg" viewBox="0 0 64 64" x="0px" y="0px"><g data-name="Speech Bubble"><path d="M61.929,55.628,57.348,44.179A20.951,20.951,0,0,0,39.7,13.035,20.77,20.77,0,0,0,25,7,20.969,20.969,0,0,0,6.652,38.176L2.071,49.628A1,1,0,0,0,3.433,50.9l10.519-5.049A21.089,21.089,0,0,0,24.31,48.981a20.943,20.943,0,0,0,25.736,2.871L60.567,56.9A.989.989,0,0,0,61,57a1,1,0,0,0,.929-1.372ZM13.587,43.809l-8.7,4.178,3.806-9.515a1,1,0,0,0-.065-.877A18.97,18.97,0,0,1,25,9a18.776,18.776,0,0,1,11.784,4.12A20.959,20.959,0,0,0,22.4,46.81a19.154,19.154,0,0,1-7.831-2.937A.993.993,0,0,0,13.587,43.809Zm36.822,6a1,1,0,0,0-.982.066A19.1,19.1,0,1,1,55.378,43.6a1,1,0,0,0-.066.878l3.806,9.514Z"></path><rect x="31" y="37" width="2" height="2"></rect><rect x="35" y="37" width="2" height="2"></rect><rect x="39" y="37" width="10" height="2"></rect><rect x="31" y="33" width="10" height="2"></rect><rect x="43" y="33" width="2" height="2"></rect><rect x="47" y="33" width="2" height="2"></rect><rect x="31" y="29" width="18" height="2"></rect><path d="M25,12A16.019,16.019,0,0,0,9,28h2A14.015,14.015,0,0,1,25,14Z"></path></g></svg>