<svg xmlns="http://www.w3.org/2000/svg" viewBox="0 0 64 64" x="0px" y="0px"><g data-name="VR Control"><path d="M61.143,16.01l-3.907-.561a13.626,13.626,0,0,0-.659-1.6L58.939,10.7a1,1,0,0,0-.092-1.307l-4.24-4.24A1,1,0,0,0,53.3,5.061L50.151,7.423a13.626,13.626,0,0,0-1.6-.659L47.99,2.857A1,1,0,0,0,47,2H41a1,1,0,0,0-.99.857l-.561,3.907a13.626,13.626,0,0,0-1.6.659L34.7,5.061a1,1,0,0,0-1.307.092l-4.24,4.24A1,1,0,0,0,29.06,10.7l1.059,1.416a18.855,18.855,0,0,0-15.81,5.727L10.2,17.02A1,1,0,0,0,10,17H4a1,1,0,0,0-1,1V34a1,1,0,0,0,1,1H5.52l-3,3.756A2,2,0,0,0,4.08,42H7v6a5.006,5.006,0,0,0,5,5h5v8a1,1,0,0,0,1,1H40a1,1,0,0,0,1-1V44.851A19,19,0,0,0,45.638,38H47a1,1,0,0,0,.99-.857l.561-3.907a13.626,13.626,0,0,0,1.6-.659L53.3,34.939a1,1,0,0,0,1.307-.092l4.24-4.24a1,1,0,0,0,.092-1.307l-2.362-3.149a13.626,13.626,0,0,0,.659-1.6l3.907-.561A1,1,0,0,0,62,23V17A1,1,0,0,0,61.143,16.01ZM29.921,14.1A16.864,16.864,0,0,1,40.938,20H25a1,1,0,0,0-1-1H20.1l-3.411-.682A16.887,16.887,0,0,1,29.921,14.1ZM25,22H45v8H25Zm21-2H43.466a19.188,19.188,0,0,0-4.69-4.645A6.993,6.993,0,1,1,47,26.317V21A1,1,0,0,0,46,20ZM21,21h2V31H21ZM11,23h1a1,1,0,0,1,1,1v4a1,1,0,0,1-1,1H11Zm0,8h1a3,3,0,0,0,3-3V24a3,3,0,0,0-3-3H11V19.22l8,1.6V31.181l-8,1.6ZM5,19H9V33H5ZM39.333,43.665A1,1,0,0,0,39,44.41V60H19V52a1,1,0,0,0-1-1H12a3,3,0,0,1-3-3V41a1,1,0,0,0-1-1L4.081,40l4-5H10a1,1,0,0,0,.2-.02L20.1,33H24a1,1,0,0,0,1-1H44.947A16.994,16.994,0,0,1,39.333,43.665ZM60,22.134l-3.673.526a1,1,0,0,0-.819.716,11.686,11.686,0,0,1-.985,2.394,1,1,0,0,0,.078,1.081l2.218,2.956-3.012,3.012L50.851,30.6a1,1,0,0,0-1.081-.078,11.686,11.686,0,0,1-2.394.985.994.994,0,0,0-.415.249c.01-.253.039-.5.039-.757V28.489a9,9,0,1,0-9.944-14.195,18.718,18.718,0,0,0-4.02-1.622L31.18,10.194l3.013-3.013L37.149,9.4a1,1,0,0,0,1.081.078,11.686,11.686,0,0,1,2.394-.985,1,1,0,0,0,.716-.819L41.866,4h4.268l.526,3.673a1,1,0,0,0,.716.819,11.686,11.686,0,0,1,2.394.985A1,1,0,0,0,50.851,9.4l2.956-2.218,3.012,3.012L54.6,13.149a1,1,0,0,0-.078,1.081,11.686,11.686,0,0,1,.985,2.394,1,1,0,0,0,.819.716L60,17.866Z"></path><rect x="43" y="6" width="2" height="2"></rect><rect x="33.808" y="9.808" width="2" height="2" transform="translate(2.553 27.778) rotate(-45)"></rect><rect x="52.192" y="28.192" width="2" height="2" transform="translate(-5.062 46.163) rotate(-45)"></rect><rect x="56" y="19" width="2" height="2"></rect><rect x="52.192" y="9.808" width="2" height="2" transform="translate(7.938 40.778) rotate(-45)"></rect></g></svg>