<svg xmlns="http://www.w3.org/2000/svg" viewBox="0 0 64 64" x="0px" y="0px"><g data-name="Browser Delvelopment"><path d="M47,4H7A3.009,3.009,0,0,0,4,7v3H50V7A3.009,3.009,0,0,0,47,4ZM9,8H7V6H9Zm4,0H11V6h2Zm4,0H15V6h2Z"></path><rect x="19" y="18" width="25" height="8"></rect><path d="M55.54,46.67a.992.992,0,0,1,.94-.67H60V42H56.48a1.014,1.014,0,0,1-.95-.67,7.354,7.354,0,0,0-.32-.77,1.009,1.009,0,0,1,.2-1.14l2.49-2.49L55.07,34.1l-2.49,2.49a1.009,1.009,0,0,1-1.14.2c-.25-.12-.51-.23-.77-.33a.992.992,0,0,1-.67-.94V32H46v3.52a1.014,1.014,0,0,1-.67.95,7.354,7.354,0,0,0-.77.32,1.009,1.009,0,0,1-1.14-.2L40.93,34.1,38.1,36.93l2.49,2.49a1.009,1.009,0,0,1,.2,1.14c-.12.25-.23.51-.33.77a.992.992,0,0,1-.94.67H36v4h3.52a1.014,1.014,0,0,1,.95.67,7.354,7.354,0,0,0,.32.77,1.009,1.009,0,0,1-.2,1.14L38.1,51.07l2.83,2.83,2.49-2.49a1.009,1.009,0,0,1,1.14-.2c.25.12.51.23.77.33a.992.992,0,0,1,.67.94V56h4V52.48a1.014,1.014,0,0,1,.67-.95,7.354,7.354,0,0,0,.77-.32,1.006,1.006,0,0,1,1.14.2l2.49,2.49,2.83-2.83-2.49-2.49a1.009,1.009,0,0,1-.2-1.14C55.33,47.19,55.44,46.93,55.54,46.67ZM48,50a6,6,0,1,1,6-6A6,6,0,0,1,48,50Z"></path><circle cx="48" cy="44" r="4"></circle><rect x="10" y="18" width="7" height="26"></rect><path d="M4,12V47a3.009,3.009,0,0,0,3,3H32.83l1.74-2.11A.984.984,0,0,1,34,47V41a1,1,0,0,1,1-1h3.34l-2.36-2.36a1.008,1.008,0,0,1,0-1.42l4.24-4.24a1.008,1.008,0,0,1,1.42,0L44,34.34V31a1,1,0,0,1,1-1h4.35l.65-.79V12ZM46,27a1,1,0,0,1-1,1H19V44H32v2H10a2.006,2.006,0,0,1-2-2V18a2.006,2.006,0,0,1,2-2H44a2.006,2.006,0,0,1,2,2Z"></path></g></svg>