<svg xmlns="http://www.w3.org/2000/svg" viewBox="0 0 64 64" x="0px" y="0px"><title>Scuba</title><g><path d="M14,17V15a4,4,0,0,0-4,4h2A2,2,0,0,1,14,17Z"></path><path d="M51,12.08V10a1,1,0,0,0-1-1H49V7a1,1,0,0,0-1-1H36.9a5,5,0,0,0-9.8,0H16a1,1,0,0,0-1,1V9H14a1,1,0,0,0-1,1v2.08A7,7,0,0,0,7,19V55a7.008,7.008,0,0,0,7,7h4a7.008,7.008,0,0,0,7-7V36h2v2a1,1,0,0,0,1,1h8a1,1,0,0,0,1-1V36h2V55a7.008,7.008,0,0,0,7,7h4a7.008,7.008,0,0,0,7-7V19A7,7,0,0,0,51,12.08ZM55,19v4H51V22a1,1,0,0,0-1-1H46a1,1,0,0,0-1,1v1H41V19a5.006,5.006,0,0,1,5-5h4A5.006,5.006,0,0,1,55,19ZM50,46H46a1,1,0,0,0-1,1v1H41V25h4v1a1,1,0,0,0,1,1h4a1,1,0,0,0,1-1V25h4V48H51V47A1,1,0,0,0,50,46Zm-1,2v2H47V48ZM47,25V23h2v2Zm2-14v1H47V11ZM32,4a3,3,0,1,1-3,3A3,3,0,0,1,32,4ZM17,8H27.1a5,5,0,0,0,9.8,0H47V9H46a1,1,0,0,0-1,1v2.08A7,7,0,0,0,39,19V31H37V28a1,1,0,0,0-1-1H28a1,1,0,0,0-1,1v3H25V19a7,7,0,0,0-6-6.92V10a1,1,0,0,0-1-1H17Zm1,38H14a1,1,0,0,0-1,1v1H9V25h4v1a1,1,0,0,0,1,1h4a1,1,0,0,0,1-1V25h4V48H19V47A1,1,0,0,0,18,46Zm-1,2v2H15V48ZM15,25V23h2v2Zm0-14h2v1H15Zm-1,3h4a5.006,5.006,0,0,1,5,5v4H19V22a1,1,0,0,0-1-1H14a1,1,0,0,0-1,1v1H9V19A5.006,5.006,0,0,1,14,14Zm4,46H14a5.006,5.006,0,0,1-5-5V50h4v1a1,1,0,0,0,1,1h4a1,1,0,0,0,1-1V50h4v5A5.006,5.006,0,0,1,18,60Zm7-26V33h2v1Zm10,3H29V29h6v8Zm2-3V33h2v1ZM50,60H46a5.006,5.006,0,0,1-5-5V50h4v1a1,1,0,0,0,1,1h4a1,1,0,0,0,1-1V50h4v5A5.006,5.006,0,0,1,50,60Z"></path><path d="M42,19h2a2,2,0,0,1,2-2V15A4,4,0,0,0,42,19Z"></path><rect x="31" y="5" width="2" height="3"></rect></g></svg>