<svg xmlns="http://www.w3.org/2000/svg" viewBox="0 0 64 64" x="0px" y="0px"><g><path d="M57,6H7a5,5,0,0,0-5,5V39a5,5,0,0,0,5,5h9.93l-.69,9.65a4.062,4.062,0,0,0,7.51,2.42l2.21-3.59a.986.986,0,0,1,.85-.48H37.19a.986.986,0,0,1,.85.48l2.21,3.59a4.059,4.059,0,0,0,7.51-2.42L47.07,44H57a5,5,0,0,0,5-5V11A5,5,0,0,0,57,6ZM45.22,55.34a2.014,2.014,0,0,1-1.51.66,2.074,2.074,0,0,1-1.75-.98l-2.21-3.59A2.989,2.989,0,0,0,37.19,50H26.81a2.989,2.989,0,0,0-2.56,1.43l-2.21,3.59a2.074,2.074,0,0,1-1.75.98,2.07,2.07,0,0,1-2.06-2.21l.45-6.25A6.985,6.985,0,0,0,24,50h1a.967.967,0,0,0,.55-.17L28.3,48h7.4l2.75,1.83A.967.967,0,0,0,39,50h1a6.985,6.985,0,0,0,5.32-2.46l.45,6.25A2.014,2.014,0,0,1,45.22,55.34ZM44.89,38A6.952,6.952,0,0,0,40,36H24a6.952,6.952,0,0,0-4.89,2H8V12H56V38ZM45,43a5,5,0,0,1-5,5h-.7l-2.75-1.83A.967.967,0,0,0,36,46H28a.967.967,0,0,0-.55.17L24.7,48H24a5,5,0,0,1,0-10H40A5,5,0,0,1,45,43Zm15-4a3.009,3.009,0,0,1-3,3H46.92a6.739,6.739,0,0,0-.61-2H57a1,1,0,0,0,1-1V11a1,1,0,0,0-1-1H7a1,1,0,0,0-1,1V39a1,1,0,0,0,1,1H17.69a6.739,6.739,0,0,0-.61,2H7a3.009,3.009,0,0,1-3-3V11A3.009,3.009,0,0,1,7,8H57a3.009,3.009,0,0,1,3,3Z"></path><path d="M31,21h2a1,1,0,0,1,1,1h2a3,3,0,0,0-3-3V18H31v1a3,3,0,0,0,0,6h2a1,1,0,0,1,0,2H31a1,1,0,0,1-1-1H28a3,3,0,0,0,3,3v1h2V29a3,3,0,0,0,0-6H31a1,1,0,0,1,0-2Z"></path><path d="M32,14A10,10,0,1,0,42,24,10.011,10.011,0,0,0,32,14Zm0,18a8,8,0,1,1,8-8A8.009,8.009,0,0,1,32,32Z"></path><rect x="44" y="23" width="4" height="2"></rect><rect x="42.125" y="16" width="4" height="2" transform="translate(-2.589 24.335) rotate(-29.995)"></rect><rect x="43.124" y="29" width="2" height="4" transform="translate(-4.785 53.712) rotate(-59.998)"></rect><rect x="16" y="23" width="4" height="2"></rect><rect x="18.876" y="15" width="2" height="4" transform="translate(-4.784 25.714) rotate(-60.002)"></rect><rect x="17.876" y="30" width="4" height="2" transform="translate(-12.836 14.088) rotate(-29.995)"></rect><polygon points="25 40 23 40 23 42 21 42 21 44 23 44 23 46 25 46 25 44 27 44 27 42 25 42 25 40"></polygon><rect x="39" y="40" width="2" height="2"></rect><rect x="41" y="42" width="2" height="2"></rect><rect x="39" y="44" width="2" height="2"></rect><rect x="37" y="42" width="2" height="2"></rect><rect x="33" y="40" width="2" height="2"></rect><rect x="29" y="40" width="2" height="2"></rect></g></svg>