<svg xmlns="http://www.w3.org/2000/svg" viewBox="0 0 64 64" x="0px" y="0px"><g><path d="M61,44H53V9a7.008,7.008,0,0,0-7-7H18a7.008,7.008,0,0,0-7,7V44H3a1,1,0,0,0-1,1v4a1,1,0,0,0,1,1H7V61a1,1,0,0,0,1,1H56a1,1,0,0,0,1-1V50h4a1,1,0,0,0,1-1V45A1,1,0,0,0,61,44ZM13,30h6V28H13V26h6V24H13V18h6V16H13V14h6V12H13V9a5,5,0,0,1,5-5H46a5,5,0,0,1,5,5v3H45v2h6v2H45v2h6v6H45v2h6v2H45v2h6V44H13ZM55,60H9V50H55Zm5-12H4V46H60Z"></path><path d="M40,14H37a1,1,0,0,0-.949.684L35.279,17h-.558l-.772-2.316A1,1,0,0,0,33,14H31a1,1,0,0,0-.949.684L29.279,17h-.558l-.772-2.316A1,1,0,0,0,27,14H24a1,1,0,0,0-1,1v4a1,1,0,0,0,.105.447l1.466,2.932A2.989,2.989,0,0,0,26,28h.78l-.727,3.634-2.91,4.851A1,1,0,0,0,23,37v3a2,2,0,0,0,2,2H39a2,2,0,0,0,2-2V37a1,1,0,0,0-.143-.515l-2.91-4.851L37.22,28H38a2.989,2.989,0,0,0,1.429-5.621L40.9,19.447A1,1,0,0,0,41,19V15A1,1,0,0,0,40,14ZM25,16h1.279l.772,2.316A1,1,0,0,0,28,19h2a1,1,0,0,0,.949-.684L31.721,16h.558l.772,2.316A1,1,0,0,0,34,19h2a1,1,0,0,0,.949-.684L37.721,16H39v2.764L37.382,22H26.618L25,18.764Zm0,24V38H39v2Zm13.234-4H25.766l1.8-3h8.868ZM35.78,31H28.22l.6-3h6.36ZM38,26H26a1,1,0,0,1,0-2H38a1,1,0,0,1,0,2Z"></path><path d="M23,58H41a1,1,0,0,0,1-1V53a1,1,0,0,0-1-1H23a1,1,0,0,0-1,1v4A1,1,0,0,0,23,58Zm1-4H40v2H24Z"></path></g></svg>