<svg xmlns="http://www.w3.org/2000/svg" viewBox="0 0 64 64" x="0px" y="0px"><g data-name="Mobile App-Location-Smartphone-Taxi-Technology"><path d="M40,9V8a4,4,0,0,0-4-4H8A4,4,0,0,0,4,8V56a4,4,0,0,0,4,4H36a4,4,0,0,0,4-4V43h2V56a6,6,0,0,1-6,6H8a6,6,0,0,1-6-6V8A6,6,0,0,1,8,2H36a6,6,0,0,1,6,6V9Z"></path><path d="M20,52a3,3,0,0,0,0,6h4a3,3,0,0,0,0-6Zm5,3a1,1,0,0,1-1,1H20a1,1,0,0,1,0-2h4A1,1,0,0,1,25,55Z"></path><rect x="15" y="6" width="2" height="2"></rect><rect x="19" y="6" width="6" height="2"></rect><path d="M22,33a3,3,0,1,0,3,3A3,3,0,0,0,22,33Zm0,4a1,1,0,1,1,1-1A1,1,0,0,1,22,37Z"></path><path d="M22,29a7.008,7.008,0,0,0-7,7c0,4.29,5.649,10.063,6.293,10.707a1,1,0,0,0,1.414,0C23.351,46.063,29,40.29,29,36A7.008,7.008,0,0,0,22,29Zm0,15.551c-1.853-2.02-5-5.985-5-8.551a5,5,0,0,1,10,0C27,38.566,23.853,42.531,22,44.551Z"></path><rect x="10" y="15" width="2" height="2"></rect><rect x="14" y="15" width="10" height="2"></rect><rect x="10" y="19" width="14" height="2"></rect><rect x="10" y="23" width="10" height="2"></rect><rect x="22" y="23" width="2" height="2"></rect><rect x="40" y="27" width="2" height="2"></rect><rect x="50" y="27" width="2" height="2"></rect><path d="M46,10A15.993,15.993,0,0,0,32.4,34.42l-2.34,6.23a1.033,1.033,0,0,0,.23,1.06A1.007,1.007,0,0,0,31,42a1.03,1.03,0,0,0,.35-.06l6.23-2.34A16,16,0,1,0,46,10Zm0,30a13.949,13.949,0,0,1-7.75-2.34.939.939,0,0,0-.55-.17,1.03,1.03,0,0,0-.35.06l-4.64,1.74,1.74-4.63a1.012,1.012,0,0,0-.11-.91A14,14,0,1,1,46,40Z"></path><path d="M56,24V22H54a.977.977,0,0,0-.89.55l-.11.21-2.11-4.21A.977.977,0,0,0,50,18V15a1,1,0,0,0-1-1H43a1,1,0,0,0-1,1v3a.977.977,0,0,0-.89.55L39,22.76l-.11-.21A.977.977,0,0,0,38,22H36v2h1.38l.19.38A2.994,2.994,0,0,0,36,27v2a3.01,3.01,0,0,0,2,2.82V34a2.006,2.006,0,0,0,2,2h2a2.006,2.006,0,0,0,2-2V32h4v2a2.006,2.006,0,0,0,2,2h2a2.006,2.006,0,0,0,2-2V31.82A3.01,3.01,0,0,0,56,29V27a2.994,2.994,0,0,0-1.57-2.62l.19-.38ZM44,16h4v2H44Zm-1.38,4h6.76l2,4H40.62ZM42,34H40V32h2Zm10,0H50V32h2Zm2-5a1,1,0,0,1-1,1H39a1,1,0,0,1-1-1V27a1,1,0,0,1,1-1H53a1,1,0,0,1,1,1Z"></path></g></svg>