<svg xmlns="http://www.w3.org/2000/svg" viewBox="0 0 64 64" x="0px" y="0px"><g data-name="Joystick"><circle cx="52" cy="48" r="1"></circle><circle cx="46" cy="51" r="1"></circle><circle cx="42" cy="46" r="1"></circle><path d="M18,45V42H16v3a1,1,0,0,1-1,1H12v2h3a1,1,0,0,1,1,1v3h2V49a1,1,0,0,1,1-1h3V46H19A1,1,0,0,1,18,45Z"></path><path d="M17,38a9,9,0,1,0,9,9A9.01,9.01,0,0,0,17,38Zm7,7v4a1,1,0,0,1-1,1H20v3a1,1,0,0,1-1,1H15a1,1,0,0,1-1-1V50H11a1,1,0,0,1-1-1V45a1,1,0,0,1,1-1h3V41a1,1,0,0,1,1-1h4a1,1,0,0,1,1,1v3h3A1,1,0,0,1,24,45Z"></path><circle cx="48" cy="43" r="1"></circle><path d="M47,34H17a13,13,0,0,0,0,26H47a13,13,0,0,0,0-26ZM27,38h2v2H27ZM17,58A11,11,0,1,1,28,47,11.013,11.013,0,0,1,17,58Zm14-4H29V52h2Zm0-16h2v2H31Zm4,16H33V52h2Zm0-16h2v2H35ZM47,58A11,11,0,1,1,58,47,11.013,11.013,0,0,1,47,58Z"></path><rect x="28" y="30" width="8" height="2"></rect><path d="M49,32.149V31H45v1h2A14.99,14.99,0,0,1,49,32.149Z"></path><path d="M19,32V31H15v1.149A14.99,14.99,0,0,1,17,32Z"></path><rect x="30" y="26" width="4" height="2"></rect><path d="M47,38a9,9,0,1,0,9,9A9.01,9.01,0,0,0,47,38Zm1,2a3,3,0,1,1-3,3A3,3,0,0,1,48,40Zm-9,6a3,3,0,1,1,3,3A3,3,0,0,1,39,46Zm7,8a3,3,0,1,1,3-3A3,3,0,0,1,46,54Zm6-3a3,3,0,1,1,3-3A3,3,0,0,1,52,51Z"></path><path d="M33,24H31V19a1,1,0,0,1,1-1H55V14H8a1,1,0,0,1-1-1V7A1,1,0,0,1,8,6H31V3h2V7a1,1,0,0,1-1,1H9v4H56a1,1,0,0,1,1,1v6a1,1,0,0,1-1,1H33Z"></path></g></svg>