<svg xmlns="http://www.w3.org/2000/svg" viewBox="0 0 64 64" x="0px" y="0px"><g><rect x="51" y="54" width="4" height="2"></rect><path d="M48,60a1,1,0,0,0,1-1V28.97A4.924,4.924,0,0,1,46,30H37v1a1,1,0,0,1-1,1v1a3.009,3.009,0,0,1-3,3H31a3.009,3.009,0,0,1-3-3V32a1,1,0,0,1-1-1V30H18a4.924,4.924,0,0,1-3-1.03V59a1,1,0,0,0,1,1h1V41a3.009,3.009,0,0,1,3-3H44a3.009,3.009,0,0,1,3,3V60Z"></path><path d="M32,56a1,1,0,0,0,1-1V54H31v1A1,1,0,0,0,32,56Z"></path><path d="M23,60H41V50H36v3a1,1,0,0,1-1,1v1a3,3,0,0,1-6,0V54a1,1,0,0,1-1-1V50H23Z"></path><path d="M41,45a1,1,0,0,0-1-1H24a1,1,0,0,0-1,1v3H41Z"></path><rect x="30" y="50" width="4" height="2"></rect><path d="M59,41H57V55.83A3.014,3.014,0,0,0,59,53Z"></path><path d="M44,40H20a1,1,0,0,0-1,1V60h2V45a3.009,3.009,0,0,1,3-3H40a3.009,3.009,0,0,1,3,3V60h2V41A1,1,0,0,0,44,40Z"></path><path d="M55,18.59V16h-.59l-3.52,3.52A12.131,12.131,0,0,1,51,21v1.59Z"></path><path d="M59,17a1,1,0,0,0-1-1H57v7h2Z"></path><rect x="56" y="25" width="4" height="14"></rect><rect x="30" y="24" width="4" height="2"></rect><path d="M7,55.83V41H5V53A3.014,3.014,0,0,0,7,55.83Z"></path><rect x="29" y="4" width="6" height="2"></rect><rect x="4" y="25" width="4" height="14"></rect><path d="M5,23H7V16H6a1,1,0,0,0-1,1Z"></path><path d="M13,21a12.131,12.131,0,0,1,.11-1.48L9.59,16H9v2.59l4,4Z"></path><rect x="9" y="54" width="4" height="2"></rect><path d="M25,10h2V4.17A3.014,3.014,0,0,0,25,7Z"></path><path d="M31,34h2a1,1,0,0,0,1-1V32H30v1A1,1,0,0,0,31,34Z"></path><path d="M15,21v4a3.009,3.009,0,0,0,3,3h9V27a1,1,0,0,1,1-1V23a1,1,0,0,1,1-1h6a1,1,0,0,1,1,1v3a1,1,0,0,1,1,1v1h9a3.009,3.009,0,0,0,3-3V21a9.014,9.014,0,0,0-9-9H24A9.014,9.014,0,0,0,15,21Z"></path><rect x="29" y="28" width="6" height="2"></rect><path d="M37,4.17V10h2V7A3.014,3.014,0,0,0,37,4.17Z"></path></g></svg>