<svg xmlns="http://www.w3.org/2000/svg" viewBox="0 0 64 64" x="0px" y="0px"><g><circle cx="10" cy="34" r="1"></circle><rect x="53" y="54" width="3" height="1"></rect><circle cx="18" cy="34" r="1"></circle><rect x="15" y="44" width="34.001" height="4"></rect><path d="M39,32H25v4H39ZM29,35H27V33h2Zm4,0H31V33h2Zm4,0H35V33h2Z"></path><rect x="47" y="18" width="4" height="8"></rect><rect x="8" y="54" width="3" height="1"></rect><path d="M60,51V29a1,1,0,0,0-1-1H5a1,1,0,0,0-1,1V51a1,1,0,0,0,1,1H59A1,1,0,0,0,60,51ZM47,31h2v2H47Zm-4,0h2v2H43ZM23,31a1,1,0,0,1,1-1H40a1,1,0,0,1,1,1v6a1,1,0,0,1-1,1H24a1,1,0,0,1-1-1Zm-5,0a3,3,0,1,1-3,3A3,3,0,0,1,18,31Zm-8,6a3,3,0,1,1,3-3A3,3,0,0,1,10,37ZM51,48a2,2,0,0,1-2,2H15a2,2,0,0,1-2-2V44a2,2,0,0,1,2-2H49a2,2,0,0,1,2,2Zm2-15H51V31h2Zm4,0H55V31h2Z"></path><rect x="13" y="18" width="4" height="8"></rect><path d="M17,16h1a1,1,0,0,1,1,1v9H45V17a1,1,0,0,1,1-1h1V6H17Z"></path></g></svg>