<svg xmlns="http://www.w3.org/2000/svg" viewBox="0 0 64 64" x="0px" y="0px"><g data-name="Web Promotion"><rect x="6" y="16" width="10" height="2"></rect><rect x="2" y="16" width="2" height="2"></rect><rect x="10" y="22" width="6" height="2"></rect><rect x="6" y="22" width="2" height="2"></rect><rect x="12" y="28" width="4" height="2"></rect><rect x="8" y="28" width="2" height="2"></rect><rect x="4" y="43" width="4" height="12"></rect><polygon points="21 34 23 34 31 34 33 34 33 30 21 30 21 34"></polygon><path d="M28,51a1,1,0,0,0,1,1h6V50H29A1,1,0,0,0,28,51Z"></path><rect x="10" y="40" width="6" height="17"></rect><rect x="22" y="26" width="10" height="2"></rect><path d="M35,55V54H29a1,1,0,0,0,0,2h5A1,1,0,0,0,35,55Z"></path><path d="M32,20V19a5.468,5.468,0,0,0-.1-1H30V16h.97a4.94,4.94,0,0,0-7.94,0H24v2H22.1a5.468,5.468,0,0,0-.1,1v1h2v2H22v2H32V22H30V20Zm-4,2H26V20h2Zm0-4H26V16h2Z"></path><path d="M35,44V43a1,1,0,0,0-1-1H32.816A3,3,0,0,1,30,44Z"></path><path d="M26,55a2.981,2.981,0,0,1,.78-2,2.954,2.954,0,0,1,0-4,2.849,2.849,0,0,1-.73-2.492A7.048,7.048,0,0,1,24,48.736V57a2.993,2.993,0,0,0,5.816,1H29A3,3,0,0,1,26,55Z"></path><path d="M25,43a1,1,0,0,1,1-1h4a1,1,0,0,0,0-2H21.236L18,41.618V56h4v-6.3a6.956,6.956,0,0,1-2,.3V48A5.006,5.006,0,0,0,25,43Z"></path><rect x="24" y="36" width="6" height="2"></rect><path d="M35,46H29a1,1,0,0,0,0,2h6Z"></path><path d="M26,10v2.08A6.634,6.634,0,0,1,27,12a7.008,7.008,0,0,1,7,7v5h2v2H34v2a1,1,0,0,1,1,1v5H59a1,1,0,0,0,1-1V10ZM44,32H38V30h6Zm0-4H38V26h6Zm0-4H38V22h6Zm12,8H46V30H56Zm0-4H46V26H56Zm0-4H46V22H56Zm0-5a1,1,0,0,1-1,1H36V18H54V14H34V12H55a1,1,0,0,1,1,1Z"></path><path d="M59,4H27a1,1,0,0,0-1,1V8H60V5A1,1,0,0,0,59,4ZM30,7H28V5h2Zm4,0H32V5h2Zm4,0H36V5h2Z"></path><rect x="18" y="24" width="2" height="2"></rect></g></svg>