<svg xmlns="http://www.w3.org/2000/svg" viewBox="0 0 64 64" x="0px" y="0px"><g><path d="M59,54a2.98,2.98,0,0,0-2.35,1.16l-6.7-4.64-.41-4.12,1.71,1.19a3,3,0,1,0,3.44-4.92L33.72,27.98a3.009,3.009,0,0,0-3.44,0L9.31,42.67a3,3,0,0,0,3.44,4.92l1.71-1.18-.41,4.11-6.7,4.64A2.987,2.987,0,0,0,2,57v4a1,1,0,0,0,1,1H61a1,1,0,0,0,1-1V57A3.009,3.009,0,0,0,59,54ZM6,60H4V57a1,1,0,0,1,2,0Zm7.1,0H8V57.14l5.78-4.01ZM11.61,45.95a1.006,1.006,0,1,1-1.15-1.65L31.43,29.62a.992.992,0,0,1,1.14,0L53.54,44.3a1.019,1.019,0,0,1,.25,1.4,1.008,1.008,0,0,1-1.4.25L32.57,32.18a.992.992,0,0,0-1.14,0ZM15.11,60l1.51-15.1L31,34.91V45.59L20.29,56.29a1.008,1.008,0,0,0,0,1.42L22.59,60Zm7.3-3,6.28-6.28L24.7,59.28Zm4.16,3L32,48.36,37.43,60Zm8.74-9.28L41.59,57,39.3,59.28ZM41.41,60l2.3-2.29a1.008,1.008,0,0,0,0-1.42L33,45.59V34.91L47.38,44.9,48.89,60ZM56,60H50.9l-.69-6.87L56,57.14Zm4,0H58V57a1,1,0,0,1,2,0Z"></path><path d="M17,28A11,11,0,1,0,6,17,11.013,11.013,0,0,0,17,28ZM8.059,16a8.956,8.956,0,0,1,1.916-4.611l1.368,1.368,1.414-1.414L11.389,9.975A8.956,8.956,0,0,1,16,8.059V10h2V8.059a8.956,8.956,0,0,1,4.611,1.916l-1.368,1.368,1.414,1.414,1.368-1.368A8.956,8.956,0,0,1,25.941,16H24v2h1.941a8.956,8.956,0,0,1-1.916,4.611l-1.368-1.368-1.414,1.414,1.368,1.368A8.956,8.956,0,0,1,18,25.941V24H16v1.941a8.956,8.956,0,0,1-4.611-1.916l1.368-1.368-1.414-1.414L9.975,22.611A8.956,8.956,0,0,1,8.059,18H10V16Z"></path><path d="M17.707,17.707A1,1,0,0,0,18,17V12H16v4.586l-1.707,1.707,1.414,1.414Z"></path><path d="M17,32A15,15,0,1,0,2,17,15.017,15.017,0,0,0,17,32ZM17,4A13,13,0,1,1,4,17,13.015,13.015,0,0,1,17,4Z"></path></g></svg>