<svg xmlns="http://www.w3.org/2000/svg" viewBox="0 0 64 64" x="0px" y="0px"><g><path d="M4,57a1,1,0,0,0,1,1H59a1,1,0,0,0,1-1V54H4Z"></path><circle cx="36" cy="33" r="1"></circle><rect x="42" y="20" width="2" height="2"></rect><circle cx="44" cy="33" r="1"></circle><path d="M21,12a7,7,0,1,0,7,7A7.008,7.008,0,0,0,21,12Zm-2.829,2.757,1.415,1.415-1.414,1.414-1.415-1.415Zm5.658,8.486-1.415-1.415,1.414-1.414,1.415,1.415Zm-5.658,0-1.414-1.414,7.072-7.072,1.414,1.414Z"></path><rect x="42" y="16" width="2" height="2"></rect><path d="M48,9a1,1,0,0,1,.1-.447L48.382,8H11a1,1,0,0,0-1,1V40H54V9.816A3,3,0,0,1,52.184,8H50.618L50,9.236V27a1,1,0,0,1-1,1H33a1,1,0,0,0,0,2H49v2H46.816A2.966,2.966,0,0,1,47,33a3,3,0,0,1-6,0,2.966,2.966,0,0,1,.184-1H38.816A2.966,2.966,0,0,1,39,33a3,3,0,0,1-6,0,2.966,2.966,0,0,1,.184-1H33a3,3,0,0,1,0-6H48V24H33a1,1,0,0,1-.986-.835l-2-12A1,1,0,0,1,31,10H48ZM24,36H14V34H24ZM14,32V30h2v2Zm10,0H18V30h6Zm-3-4a9,9,0,1,1,9-9A9.011,9.011,0,0,1,21,28Z"></path><rect x="38" y="20" width="2" height="2"></rect><rect x="38" y="12" width="2" height="2"></rect><rect x="38" y="16" width="2" height="2"></rect><polygon points="36 16 32.847 16 33.18 18 36 18 36 16"></polygon><polygon points="36 12 32.181 12 32.514 14 36 14 36 12"></polygon><polygon points="36 22 36 20 33.513 20 33.847 22 36 22"></polygon><path d="M59,6H55a1,1,0,0,0,0,2h4a1,1,0,0,0,0-2Z"></path><path d="M23.382,52l1.723-3.447A1,1,0,0,1,26,48H38a1,1,0,0,1,.9.553L40.618,52H59.382l-5-10H9.618l-5,10ZM54,50H52V48h2Zm-3-6h2v2H51Zm-1,6H48V48h2Zm-3-6h2v2H47Zm-4,0h2v2H43Zm-1,4h4v2H42Zm-3-4h2v2H39Zm-4,0h2v2H35Zm-4,0h2v2H31Zm-4,0h2v2H27Zm-4,0h2v2H23Zm-4,0h2v2H19Zm-1,4h4v2H18Zm-3-4h2v2H15Zm-1,4h2v2H14Zm-3-4h2v2H11Zm-1,4h2v2H10Z"></path><rect x="46" y="12" width="2" height="2"></rect><rect x="46" y="16" width="2" height="2"></rect><polygon points="26.618 50 25.618 52 38.382 52 37.382 50 26.618 50"></polygon><rect x="46" y="20" width="2" height="2"></rect><rect x="42" y="12" width="2" height="2"></rect></g></svg>