<svg xmlns="http://www.w3.org/2000/svg" viewBox="0 0 64 64" x="0px" y="0px"><g data-name="Smart Stove-Internet of Things-App-Internet-Smartphone"><path d="M59,20H58V18a2.02,2.02,0,0,0-1.23-1.85A2.915,2.915,0,0,0,57,15V13h2V11H57a1,1,0,0,0-1-1H46a1,1,0,0,0-1,1H43v2h2v2a2.915,2.915,0,0,0,.23,1.15A2.02,2.02,0,0,0,44,18v2H38V18a2.02,2.02,0,0,0-1.23-1.85A2.915,2.915,0,0,0,37,15V13h2V11H37a1,1,0,0,0-1-1H26a1,1,0,0,0-1,1H23v2h2v2a2.915,2.915,0,0,0,.23,1.15A2.02,2.02,0,0,0,24,18v2H23a3.009,3.009,0,0,0-3,3v3H7a5,5,0,0,0-5,5V57a5,5,0,0,0,5,5H21a4.924,4.924,0,0,0,3-1.03V61a1,1,0,0,0,1,1h4a.977.977,0,0,0,.89-.55L31.62,58H50.38l1.73,3.45A.988.988,0,0,0,53,62h4a1,1,0,0,0,1-1V58h1a3.009,3.009,0,0,0,3-3V23A3.009,3.009,0,0,0,59,20ZM47,12h8v3a1,1,0,0,1-1,1H48a1,1,0,0,1-1-1Zm-1,6H56v2H46ZM27,12h8v3a1,1,0,0,1-1,1H28a1,1,0,0,1-1-1Zm-1,6H36v2H26ZM24,57a3.009,3.009,0,0,1-3,3H7a3.009,3.009,0,0,1-3-3V54H24Zm0-5H4V34H24Zm0-20H4V31a3.009,3.009,0,0,1,3-3H21a3.009,3.009,0,0,1,3,3Zm4.38,28H26V58h3.38ZM56,60H53.62l-1-2H56Zm4-5a1,1,0,0,1-1,1H26V53.82A3,3,0,0,0,27,54H55a3.009,3.009,0,0,0,3-3V35a3.009,3.009,0,0,0-3-3H27a3,3,0,0,0-1,.18V31a5.468,5.468,0,0,0-.1-1H60ZM26,51V35a1,1,0,0,1,1-1H55a1,1,0,0,1,1,1V51a1,1,0,0,1-1,1H27A1,1,0,0,1,26,51ZM60,28H24.97A5.013,5.013,0,0,0,22,26.1V23a1,1,0,0,1,1-1H59a1,1,0,0,1,1,1Z"></path><rect x="26" y="24" width="2" height="2"></rect><rect x="30" y="24" width="2" height="2"></rect><rect x="34" y="24" width="2" height="2"></rect><rect x="46" y="24" width="2" height="2"></rect><rect x="50" y="24" width="2" height="2"></rect><rect x="54" y="24" width="2" height="2"></rect><rect x="37" y="36" width="8" height="2"></rect><path d="M30.832,5.555A5.744,5.744,0,0,0,32,2H30a3.78,3.78,0,0,1-.832,2.445A5.744,5.744,0,0,0,28,8h2A3.78,3.78,0,0,1,30.832,5.555Z"></path><path d="M34,8a3.78,3.78,0,0,1,.832-2.445A5.744,5.744,0,0,0,36,2H34a3.78,3.78,0,0,1-.832,2.445A5.744,5.744,0,0,0,32,8Z"></path><path d="M50.832,5.555A5.744,5.744,0,0,0,52,2H50a3.78,3.78,0,0,1-.832,2.445A5.744,5.744,0,0,0,48,8h2A3.78,3.78,0,0,1,50.832,5.555Z"></path><path d="M54,8a3.78,3.78,0,0,1,.832-2.445A5.744,5.744,0,0,0,56,2H54a3.78,3.78,0,0,1-.832,2.445A5.744,5.744,0,0,0,52,8Z"></path><path d="M10.464,43.464l1.414,1.414a3.006,3.006,0,0,1,4.244,0l1.414-1.414A5.008,5.008,0,0,0,10.464,43.464Z"></path><path d="M9.05,42.05a7,7,0,0,1,9.9,0l1.414-1.414a9,9,0,0,0-12.728,0Z"></path><path d="M12.586,46.586,14,48l1.414-1.414A2,2,0,0,0,12.586,46.586Z"></path><rect x="13" y="56" width="2" height="2"></rect><path d="M37.465,43.464l1.414,1.414a3.074,3.074,0,0,1,4.242,0l1.414-1.414a5,5,0,0,0-7.07,0Z"></path><path d="M39.586,46.586,41,48l1.414-1.414A2,2,0,0,0,39.586,46.586Z"></path></g></svg>