<svg xmlns="http://www.w3.org/2000/svg" viewBox="0 0 64 64" x="0px" y="0px"><g data-name="Vacuum Cleaner-Sweeper-Cleaning-Household-Housework"><path d="M32,3a2.006,2.006,0,0,0-2,2V28h4V5A2.006,2.006,0,0,0,32,3Z"></path><rect x="30" y="54" width="4" height="2"></rect><path d="M36,30H28a1,1,0,0,0-1,1v5H37V31A1,1,0,0,0,36,30Zm-3,4H31V32h2Z"></path><path d="M37,51V38H27V51a1,1,0,0,0,1,1h8A1,1,0,0,0,37,51Zm-6-1H29V46h2Zm4,0H33V46h2Z"></path><polygon points="22.28 60 41.72 60 41.22 58 22.78 58 22.28 60"></polygon></g></svg>