<svg xmlns="http://www.w3.org/2000/svg" viewBox="0 0 64 64" x="0px" y="0px"><g><path d="M19,48a1.993,1.993,0,0,0-1.722,1h3.444A1.993,1.993,0,0,0,19,48Z"></path><path d="M45,48a1.993,1.993,0,0,0-1.722,1h3.444A1.993,1.993,0,0,0,45,48Z"></path><path d="M45,52a1.993,1.993,0,0,0,1.722-1H43.278A1.993,1.993,0,0,0,45,52Z"></path><path d="M19,52a1.993,1.993,0,0,0,1.722-1H17.278A1.993,1.993,0,0,0,19,52Z"></path><rect x="52" y="58" width="4" height="2"></rect><path d="M60,55.162,56.279,44H7.721L4,55.162V56H60ZM19,54a4,4,0,1,1,4-4A4,4,0,0,1,19,54Zm26,0a4,4,0,1,1,4-4A4,4,0,0,1,45,54Z"></path><rect x="8" y="58" width="4" height="2"></rect><polygon points="10 40 12 40 12 42 14 42 14 40 18 40 18 42 20 42 20 40 24 40 24 42 26 42 26 40 28 40 28 38 10 38 10 40"></polygon><polygon points="54 38 36 38 36 40 38 40 38 42 40 42 40 40 44 40 44 42 46 42 46 40 50 40 50 42 52 42 52 40 54 40 54 38"></polygon><rect x="26" y="4" width="12" height="2"></rect><polygon points="6.434 20 57.566 20 38.709 8 25.291 8 6.434 20"></polygon><path d="M4,26H60V22H4Zm31-3h2v2H35Zm-4,0h2v2H31Zm-4,0h2v2H27Z"></path></g></svg>