<svg xmlns="http://www.w3.org/2000/svg" viewBox="0 0 64 64" x="0px" y="0px"><title>Payment-Methods</title><g><path d="M13,30a3,3,0,1,0,3,3A3,3,0,0,0,13,30Zm0,4a1,1,0,1,1,1-1A1,1,0,0,1,13,34Z"></path><path d="M29,30a1,1,0,0,1,1,1h2a3,3,0,0,0-2-2.816V27H28v1.184A3,3,0,0,0,26,31c0,1.618,1.476,2.356,2.553,2.9C29.4,34.318,30,34.646,30,35a1,1,0,0,1-2,0H26a3,3,0,0,0,2,2.816V39h2V37.816A3,3,0,0,0,32,35c0-1.618-1.476-2.356-2.553-2.9C28.6,31.682,28,31.354,28,31A1,1,0,0,1,29,30Z"></path><path d="M29,24a9,9,0,1,0,9,9A9.011,9.011,0,0,0,29,24Zm0,16a7,7,0,1,1,7-7A7.008,7.008,0,0,1,29,40Z"></path><path d="M49,38A11,11,0,1,0,60,49,11.013,11.013,0,0,0,49,38Zm0,20a9,9,0,1,1,9-9A9.011,9.011,0,0,1,49,58Z"></path><path d="M56,36.894V30h1a3,3,0,0,0,3-3V5a3,3,0,0,0-3-3H19a3,3,0,0,0-3,3V18H7a5.006,5.006,0,0,0-5,5V43a5.006,5.006,0,0,0,5,5H35.051c-.024.332-.051.662-.051,1A14,14,0,1,0,56,36.894ZM18,5a1,1,0,0,1,1-1H57a1,1,0,0,1,1,1V8H18Zm0,5H58v4H18Zm0,6H58V27a1,1,0,0,1-1,1H56V23a5.006,5.006,0,0,0-5-5H18ZM7,46a3,3,0,0,1-3-3V23a3,3,0,0,1,3-3H51a3,3,0,0,1,3,3V35.939a13.434,13.434,0,0,0-6.911-.793,3,3,0,1,0-2.907.726A14.036,14.036,0,0,0,35.332,46ZM46,33a1,1,0,1,1-1-1A1,1,0,0,1,46,33Zm3,28A12,12,0,1,1,61,49,12.013,12.013,0,0,1,49,61Z"></path><path d="M49,44a2,2,0,0,1,2,2h2a4,4,0,0,0-3-3.858V41H48v1.142A4,4,0,0,0,45,46c0,2.721,2.129,3.431,3.684,3.949C50.365,50.509,51,50.831,51,52a2,2,0,0,1-4,0H45a4,4,0,0,0,3,3.858V57h2V55.858A4,4,0,0,0,53,52c0-2.721-2.129-3.431-3.684-3.949C47.635,47.491,47,47.169,47,46A2,2,0,0,1,49,44Z"></path></g></svg>