<svg xmlns="http://www.w3.org/2000/svg" viewBox="0 0 64 64" x="0px" y="0px"><g data-name="Route"><circle cx="15" cy="37" r="4"></circle><path d="M15,53.725C17.377,51.791,26,44.271,26,37A11,11,0,0,0,4,37C4,44.281,12.622,51.792,15,53.725ZM15,31a6,6,0,1,1-6,6A6.006,6.006,0,0,1,15,31Z"></path><path d="M49,31.725C51.377,29.791,60,22.271,60,15a11,11,0,0,0-22,0C38,22.281,46.622,29.792,49,31.725ZM49,9a6,6,0,1,1-6,6A6.006,6.006,0,0,1,49,9Z"></path><circle cx="49" cy="15" r="4"></circle><path d="M48,57a3,3,0,0,1-3,3H16V58H14v2a2,2,0,0,0,2,2H45a5.006,5.006,0,0,0,5-5V36H48Z"></path></g></svg>