<svg xmlns="http://www.w3.org/2000/svg" viewBox="0 0 64 64" x="0px" y="0px"><g><path d="M39.443,20.585A6.8,6.8,0,0,1,37,15.253V9.816A3,3,0,0,0,39,7V6a4,4,0,0,0-4-4H29a4,4,0,0,0-4,4V7a3,3,0,0,0,2,2.816v5.437a6.8,6.8,0,0,1-2.443,5.332A11.936,11.936,0,0,0,20,30V57a5.006,5.006,0,0,0,5,5H39a5.006,5.006,0,0,0,5-5V30A11.936,11.936,0,0,0,39.443,20.585ZM27,6a2,2,0,0,1,2-2h6a2,2,0,0,1,2,2V7a1,1,0,0,1-1,1H28a1,1,0,0,1-1-1ZM25.8,22.154a8.807,8.807,0,0,0,3.2-6.9V10h6v5.253a8.807,8.807,0,0,0,3.2,6.9A9.947,9.947,0,0,1,42,30v1H22V30A9.947,9.947,0,0,1,25.8,22.154ZM42,47H22V33H42ZM39,60H25a3,3,0,0,1-3-3V49H42v8A3,3,0,0,1,39,60Z"></path></g></svg>