<svg xmlns="http://www.w3.org/2000/svg" viewBox="0 0 64 64" x="0px" y="0px"><g data-name="Fire Truck-Firefighter Car-Vehicle-Ladder-Emergency"><path d="M19,43a5,5,0,1,0,5,5A5,5,0,0,0,19,43Zm0,8a3,3,0,1,1,3-3A3,3,0,0,1,19,51Z"></path><path d="M6,40a1.988,1.988,0,0,0-1-1.72v3.44A1.988,1.988,0,0,0,6,40Z"></path><rect x="4" y="47" width="4" height="2"></rect><path d="M7,32V28a1,1,0,0,0-1-1H5.62l-.46,6H6A1,1,0,0,0,7,32Z"></path><path d="M23,28v4a1,1,0,0,0,1,1h2V27H24A1,1,0,0,0,23,28Z"></path><path d="M12,20a2.015,2.015,0,0,0-2-2,2.006,2.006,0,0,0-2,2v1h4Z"></path><path d="M28,38h6V29H28Zm2-7h2v2H30Z"></path><circle cx="47" cy="48" r="1"></circle><rect x="32" y="25" width="6" height="2"></rect><circle cx="19" cy="48" r="1"></circle><path d="M57,49a1,1,0,0,0,1-1H57a2.006,2.006,0,0,1-2-2V44a2.006,2.006,0,0,1,2-2h1V40H28v9H40.08A6.634,6.634,0,0,1,40,48a7,7,0,0,1,14,0,6.634,6.634,0,0,1-.08,1ZM38,47H30V45h8Zm1-3H30V42h9Z"></path><path d="M47,43a5,5,0,1,0,5,5A5,5,0,0,0,47,43Zm0,8a3,3,0,1,1,3-3A3,3,0,0,1,47,51Z"></path><path d="M26,49V48a6.634,6.634,0,0,1-.08,1Z"></path><rect x="13" y="27" width="4" height="6" rx="1"></rect><path d="M24,35a3.009,3.009,0,0,1-3-3V28a3.009,3.009,0,0,1,3-3h2V24a1,1,0,0,0-1-1H6.85a.987.987,0,0,0-.99.93L5.77,25H6a3.009,3.009,0,0,1,3,3v4a3.009,3.009,0,0,1-3,3H5v1.14a3.983,3.983,0,0,1,0,7.72V45H8a2.006,2.006,0,0,1,2,2v2h2.08A6.634,6.634,0,0,1,12,48a7,7,0,0,1,14,0V35Zm-5,4H16V37h3Zm0-7a3,3,0,0,1-3,3H14a3,3,0,0,1-3-3V28a3,3,0,0,1,3-3h2a3,3,0,0,1,3,3Z"></path><path d="M45.41,14l2.81,2.81a2.1,2.1,0,0,1,1.56,0L52.59,14Z"></path><path d="M58,29H52v9h6Zm-2,4H54V31h2Z"></path><rect x="57" y="44" width="1" height="2"></rect><path d="M44,29v9h6V29Zm4,4H46V31h2Z"></path><polygon points="55 14.42 51.42 18 58.59 18 55 14.42"></polygon><path d="M42.42,27H55.58L49,18.62ZM51,24a2,2,0,1,1-2-2A2,2,0,0,1,51,24Z"></path><polygon points="60 14 57.41 14 60 16.59 60 14"></polygon><polygon points="20 18 22.59 18 20 15.41 20 18"></polygon><path d="M42,29H36v9h6Zm-2,4H38V31h2Z"></path><polygon points="40.58 14 33.41 14 37 17.58 40.58 14"></polygon><polygon points="39.42 18 46.59 18 43 14.42 39.42 18"></polygon><polygon points="27.42 18 34.59 18 31 14.42 27.42 18"></polygon><polygon points="25 17.58 28.58 14 21.41 14 25 17.58"></polygon><rect x="9" y="12" width="2" height="3"></rect><rect x="3.697" y="14.197" width="2" height="3" transform="translate(-9.722 7.915) rotate(-44.987)"></rect><rect x="13.803" y="14.697" width="3" height="2" transform="translate(-6.617 15.418) rotate(-45)"></rect></g></svg>