<svg xmlns="http://www.w3.org/2000/svg" viewBox="0 0 64 64" x="0px" y="0px"><title>Port Folio-Bag-Application</title><g data-name="Port Folio-Bag-Application"><path d="M50,60H14a3,3,0,0,1-3-3V7a3,3,0,0,1,3-3H41v9a3,3,0,0,0,3,3h9V26h2V15c0-.021-.011-.04-.012-.062a1,1,0,0,0-.052-.259c-.011-.032-.019-.062-.033-.093a1,1,0,0,0-.2-.293l-12-12a1,1,0,0,0-.293-.2c-.03-.014-.061-.022-.092-.033a.982.982,0,0,0-.263-.052C42.039,2.011,42.021,2,42,2H14A5.006,5.006,0,0,0,9,7V57a5.006,5.006,0,0,0,5,5H50a5.006,5.006,0,0,0,5-5H53A3,3,0,0,1,50,60Zm1.586-46H44a1,1,0,0,1-1-1V5.414Z"></path><path d="M15,19a9,9,0,1,0,9-9A9.01,9.01,0,0,0,15,19Zm16,0a7,7,0,1,1-7-7A7.009,7.009,0,0,1,31,19Z"></path><path d="M23,13v1.184A3,3,0,0,0,21,17c0,1.618,1.476,2.355,2.553,2.895C24.4,20.318,25,20.646,25,21a1,1,0,0,1-2,0H21a3,3,0,0,0,2,2.816V25h2V23.816A3,3,0,0,0,27,21c0-1.618-1.476-2.355-2.553-2.895C23.6,17.682,23,17.354,23,17a1,1,0,0,1,2,0h2a3,3,0,0,0-2-2.816V13Z"></path><rect x="35" y="24" width="8" height="2"></rect><rect x="45" y="24" width="4" height="2"></rect><rect x="35" y="20" width="14" height="2"></rect><path d="M58,32H53V30a2,2,0,0,0-2-2H41a2,2,0,0,0-2,2v2H34a3,3,0,0,0-3,3v5a2,2,0,0,0,2,2V53a3,3,0,0,0,3,3H56a3,3,0,0,0,3-3V42a2,2,0,0,0,2-2V35A3,3,0,0,0,58,32ZM41,30H51v2H41ZM57,53a1,1,0,0,1-1,1H36a1,1,0,0,1-1-1V42h8v1a2,2,0,0,0,2,2h2a2,2,0,0,0,2-2V42h8ZM45,43V39h2l0,4Zm14-3H49V39a2,2,0,0,0-2-2H45a2,2,0,0,0-2,2v1H33V35a1,1,0,0,1,1-1H58a1,1,0,0,1,1,1Z"></path></g></svg>