<svg xmlns="http://www.w3.org/2000/svg" viewBox="0 0 64 64" x="0px" y="0px"><g data-name="skyscraper-building-tower-city-real estate"><rect x="37" y="30" width="2" height="2"></rect><rect x="41" y="30" width="2" height="2"></rect><rect x="37" y="34" width="2" height="2"></rect><rect x="41" y="34" width="2" height="2"></rect><rect x="37" y="38" width="2" height="2"></rect><rect x="41" y="38" width="2" height="2"></rect><rect x="37" y="42" width="2" height="2"></rect><rect x="41" y="42" width="2" height="2"></rect><rect x="37" y="46" width="2" height="2"></rect><rect x="41" y="46" width="2" height="2"></rect><rect x="37" y="26" width="2" height="2"></rect><rect x="41" y="26" width="2" height="2"></rect><rect x="37" y="22" width="2" height="2"></rect><rect x="41" y="22" width="2" height="2"></rect><rect x="37" y="18" width="2" height="2"></rect><rect x="41" y="18" width="2" height="2"></rect><rect x="21" y="30" width="2" height="2"></rect><rect x="25" y="30" width="2" height="2"></rect><rect x="21" y="34" width="2" height="2"></rect><rect x="25" y="34" width="2" height="2"></rect><rect x="21" y="38" width="2" height="2"></rect><rect x="25" y="38" width="2" height="2"></rect><rect x="21" y="42" width="2" height="2"></rect><rect x="25" y="42" width="2" height="2"></rect><rect x="21" y="46" width="2" height="2"></rect><rect x="25" y="46" width="2" height="2"></rect><rect x="21" y="26" width="2" height="2"></rect><rect x="25" y="26" width="2" height="2"></rect><rect x="21" y="22" width="2" height="2"></rect><rect x="25" y="22" width="2" height="2"></rect><rect x="21" y="18" width="2" height="2"></rect><rect x="25" y="18" width="2" height="2"></rect><rect x="27" y="10" width="2" height="2"></rect><rect x="31" y="10" width="2" height="2"></rect><rect x="35" y="10" width="2" height="2"></rect><path d="M50,60V51a1,1,0,0,0-1-1H47V15a1,1,0,0,0-1-1H41V9a1.007,1.007,0,0,0-.65-.94L33,5.31V2H31V5.31L23.65,8.06A1.007,1.007,0,0,0,23,9v5H18a1,1,0,0,0-1,1V50H15a1,1,0,0,0-1,1v9H10v2H54V60ZM45,16V50H35V16ZM25,9.69l7-2.62,7,2.62V14H25ZM33,16V50H31V16ZM19,16H29V50H19Zm6,44H23V56h2Zm4,0H27V56h2Zm4,0H31V56h2Zm4,0H35V56h2Zm4,0H39V56h2Zm7,0H43V55a1,1,0,0,0-1-1H22a1,1,0,0,0-1,1v5H16V52H48Z"></path></g></svg>