<svg xmlns="http://www.w3.org/2000/svg" viewBox="0 0 64 64" x="0px" y="0px"><g><path d="M35,30a1,1,0,0,1-1-1V27.19a1,1,0,0,1,.5-.865A5.016,5.016,0,0,0,37,22V20a5,5,0,0,0-10,0v2a5.016,5.016,0,0,0,2.5,4.325,1,1,0,0,1,.5.865V29a1,1,0,0,1-1,1,9.01,9.01,0,0,0-9,9v7H44V39A9.01,9.01,0,0,0,35,30Z"></path><rect x="19" y="24" width="2" height="2"></rect><rect x="17" y="12" width="2" height="2"></rect><rect x="45" y="17" width="2" height="2"></rect><path d="M55,60V4H9V60ZM11,7a1,1,0,0,1,1-1H52a1,1,0,0,1,1,1V51a1,1,0,0,1-1,1H12a1,1,0,0,1-1-1Z"></path><path d="M51,8H13V50H51ZM15,12h2V10h2v2h2v2H19v2H17V14H15Zm2,12h2V22h2v2h2v2H21v2H19V26H17ZM46,47a1,1,0,0,1-1,1H19a1,1,0,0,1-1-1V39A11.015,11.015,0,0,1,28,28.045v-.307A7.021,7.021,0,0,1,25,22V20a7,7,0,0,1,14,0v2a7.021,7.021,0,0,1-3,5.738v.307A11.015,11.015,0,0,1,46,39Zm3-28H47v2H45V19H43V17h2V15h2v2h2Z"></path></g></svg>