<svg xmlns="http://www.w3.org/2000/svg" viewBox="0 0 64 64" x="0px" y="0px"><g><polygon points="20 47 22 47 21 45.667 20 47"></polygon><polygon points="22 23 20 23 21 24.333 22 23"></polygon><path d="M35,28a7,7,0,1,0,7,7A7.009,7.009,0,0,0,35,28Zm0,6a2.993,2.993,0,0,1,1,5.816V41H34V39.816A3,3,0,0,1,32,37h2a1,1,0,1,0,1-1,2.993,2.993,0,0,1-1-5.816V29h2v1.184A3,3,0,0,1,38,33H36a1,1,0,1,0-1,1Z"></path><path d="M19,45l1.2-1.6a1.036,1.036,0,0,1,1.6,0L23,45V25l-1.2,1.6a1,1,0,0,1-1.6,0L19,25Z"></path><path d="M45,23H42v3H40V23H30v3H28V23H25V47H45ZM35,44a9,9,0,1,1,9-9A9.01,9.01,0,0,1,35,44Z"></path><path d="M11.054,16.593l-1.61-1.186a28.009,28.009,0,0,0,0,33.186l1.61-1.186a26.011,26.011,0,0,1,0-30.814Z"></path><path d="M24.3,56.84,23.7,58.75a28.154,28.154,0,0,0,16.592,0L39.7,56.84A26.287,26.287,0,0,1,24.3,56.84Z"></path><path d="M52.946,47.407l1.61,1.186a28.009,28.009,0,0,0,0-33.186l-1.61,1.186a26.011,26.011,0,0,1,0,30.814Z"></path><path d="M39.7,7.16,40.3,5.25a28.3,28.3,0,0,0-16.592,0L24.3,7.16A26.287,26.287,0,0,1,39.7,7.16Z"></path><circle cx="52" cy="8" r="1"></circle><path d="M60,12V4H44v8ZM57,7h2V9H57ZM52,5a3,3,0,1,1-3,3A3,3,0,0,1,52,5ZM45,7h2V9H45Z"></path><circle cx="12" cy="8" r="1"></circle><path d="M20,12V4H4v8ZM17,7h2V9H17ZM12,5A3,3,0,1,1,9,8,3,3,0,0,1,12,5ZM5,7H7V9H5Z"></path><circle cx="52" cy="56" r="1"></circle><path d="M44,60H60V52H44Zm13-5h2v2H57Zm-5-2a3,3,0,1,1-3,3A3,3,0,0,1,52,53Zm-7,2h2v2H45Z"></path><path d="M4,60H20V52H4Zm13-5h2v2H17Zm-5-2a3,3,0,1,1-3,3A3,3,0,0,1,12,53ZM5,55H7v2H5Z"></path><circle cx="12" cy="56" r="1"></circle><path d="M15.6,17.332a22.007,22.007,0,0,0-2.347,26.193l1.7-1.048a20.008,20.008,0,0,1,2.134-23.811Z"></path><path d="M48.17,20.227a20.01,20.01,0,0,1,.245,23.2l1.641,1.144a22.008,22.008,0,0,0-.271-25.524Z"></path><path d="M35,9a6.941,6.941,0,0,0-3,.685A6.984,6.984,0,0,0,22,16v5h2V16a5,5,0,0,1,6.008-4.9A6.975,6.975,0,0,0,28,16v5h2V16a4.977,4.977,0,0,1,2-3.974A4.977,4.977,0,0,1,34,16v5h2V16a6.975,6.975,0,0,0-2.008-4.9A5,5,0,0,1,40,16v5h2V16A7.009,7.009,0,0,0,35,9Z"></path></g></svg>