<svg xmlns="http://www.w3.org/2000/svg" viewBox="0 0 64 64" x="0px" y="0px"><g><path d="M5,5.414V20H7V5.414L8.293,6.707,9.707,5.293l-3-3a1,1,0,0,0-1.414,0l-3,3L3.707,6.707Z"></path><rect x="5" y="22" width="2" height="2"></rect><rect x="5" y="26" width="2" height="2"></rect><rect x="5" y="30" width="2" height="2"></rect><path d="M57,5.414V20h2V5.414l1.293,1.293,1.414-1.414-3-3a1,1,0,0,0-1.414,0l-3,3,1.414,1.414Z"></path><rect x="57" y="22" width="2" height="2"></rect><rect x="57" y="26" width="2" height="2"></rect><rect x="57" y="30" width="2" height="2"></rect><path d="M12,39H52a1,1,0,0,0,1-1V18a1,1,0,0,0-1-1H12a1,1,0,0,0-1,1V38A1,1,0,0,0,12,39ZM46,19h4a1,1,0,0,1,1,1v4H49V21H46Zm0,16h3V32h2v4a1,1,0,0,1-1,1H46ZM36,35a3,3,0,1,1,3-3A3,3,0,0,1,36,35Zm2.707-12.293-12,12-1.414-1.414,12-12ZM28,21a3,3,0,1,1-3,3A3,3,0,0,1,28,21ZM13,20a1,1,0,0,1,1-1h4v2H15v3H13Zm0,12h2v3h3v2H14a1,1,0,0,1-1-1Z"></path><circle cx="28" cy="24" r="1"></circle><circle cx="36" cy="32" r="1"></circle><path d="M12,13a1,1,0,0,0-1,1v1.184A2.966,2.966,0,0,1,12,15H52a2.966,2.966,0,0,1,1,.184V14a1,1,0,0,0-1-1Z"></path><path d="M53,10a1,1,0,0,0-1-1H12a1,1,0,0,0-1,1v1.184A2.966,2.966,0,0,1,12,11H52a2.966,2.966,0,0,1,1,.184Z"></path><path d="M32,55.8c1.185-.84,4-3.117,4-5.8a4,4,0,0,0-8,0C28,52.681,30.815,54.958,32,55.8ZM31,49h2v2H31Z"></path><path d="M52,60a4,4,0,0,0,0-8,3.848,3.848,0,0,0-.857.095,1,1,0,0,1-1.208-.8A4,4,0,0,0,42,52H41a3.991,3.991,0,0,0-3.859,3H35.863a15.33,15.33,0,0,1-3.348,2.857,1,1,0,0,1-1.03,0A15.33,15.33,0,0,1,28.137,55H26.859A3.991,3.991,0,0,0,23,52H22a4,4,0,0,0-7.935-.707,1,1,0,0,1-1.208.8A3.848,3.848,0,0,0,12,52a4,4,0,0,0,0,8H2v2H62V60Z"></path></g></svg>