<svg xmlns="http://www.w3.org/2000/svg" viewBox="0 0 64 64" x="0px" y="0px"><g data-name="Graphic Designer-Computer-Monitor-Graphic Tablet-Designer"><path d="M51.877,49.013l-1.664,1.11L54.131,56H9.868l4.667-7H39.942V47H14a1,1,0,0,0-.832.445l-6,9A1.006,1.006,0,0,0,7,57v3a2,2,0,0,0,2,2H55a2,2,0,0,0,2-2V57a1.006,1.006,0,0,0-.168-.555ZM9,60V58H55v2Z"></path><path d="M52,2H12A3.009,3.009,0,0,0,9,5V31a3.009,3.009,0,0,0,3,3H26v4H22a1,1,0,0,0-1,1v4a1,1,0,0,0,1,1H42a1,1,0,0,0,1-1V39a1,1,0,0,0-1-1H38V34H52a3.009,3.009,0,0,0,3-3V5A3.009,3.009,0,0,0,52,2ZM41,40v2H23V40ZM28,38V34h8v4Zm25-7a1,1,0,0,1-1,1H12a1,1,0,0,1-1-1V28H53Zm0-5H11V5a1,1,0,0,1,1-1H52a1,1,0,0,1,1,1Z"></path><rect x="47" y="29" width="2" height="2"></rect><path d="M23,24h4a1,1,0,0,0,1-1V22h8v1a1,1,0,0,0,1,1h4a1,1,0,0,0,1-1V19a1,1,0,0,0-1-1H40V12h1a1,1,0,0,0,1-1V7a1,1,0,0,0-1-1H37a1,1,0,0,0-1,1V8H28V7a1,1,0,0,0-1-1H23a1,1,0,0,0-1,1v4a1,1,0,0,0,1,1h1v6H23a1,1,0,0,0-1,1v4A1,1,0,0,0,23,24Zm17-2H38V20h2ZM38,8h2v2H38ZM24,8h2v2H24Zm2,4h1a1,1,0,0,0,1-1V10h8v1a1,1,0,0,0,1,1h1v6H37a1,1,0,0,0-1,1v1H28V19a1,1,0,0,0-1-1H26Zm-2,8h2v2H24Z"></path><rect x="23" y="52" width="14" height="2"></rect><path d="M59.87,36.84l-2.83-2.83a.99.99,0,0,0-.71-.29.967.967,0,0,0-.7.29L42.19,47.45a.983.983,0,0,0-.24.39l-.71,2.12a1.01,1.01,0,0,0,.24,1.02L40.07,52.4l1.41,1.41L42.9,52.4a.984.984,0,0,0,.7.29,1.127,1.127,0,0,0,.32-.05l2.12-.71a.983.983,0,0,0,.39-.24L59.87,38.25A1,1,0,0,0,59.87,36.84ZM45.19,50.11l-1.31.43L43.33,50l.44-1.31,9.73-9.73,1.42,1.41ZM56.33,38.96l-1.41-1.41,1.41-1.42,1.42,1.42Z"></path></g></svg>