<svg xmlns="http://www.w3.org/2000/svg" viewBox="0 0 64 64" x="0px" y="0px"><title>Report</title><g><path d="M61.982,26.913a.943.943,0,0,0-.017-.175c-.007-.025-.023-.045-.032-.069a.983.983,0,0,0-.058-.128,1.006,1.006,0,0,0-.124-.184,1.2,1.2,0,0,0-.092-.1.976.976,0,0,0-.2-.132.942.942,0,0,0-.1-.056A1,1,0,0,0,61,26H54V12.85a3.027,3.027,0,0,0-.872-2.126L45.3,2.883A3,3,0,0,0,43.17,2H13a3,3,0,0,0-3,3V26H3a1,1,0,0,0-.359.072.942.942,0,0,0-.1.056.976.976,0,0,0-.2.132,1.2,1.2,0,0,0-.092.1.98.98,0,0,0-.124.185.914.914,0,0,0-.058.127c-.009.024-.025.044-.032.069a.935.935,0,0,0-.017.175A.838.838,0,0,0,2,27V61a1,1,0,0,0,1,1H61a1,1,0,0,0,1-1V27A.838.838,0,0,0,61.982,26.913ZM4,28.746,22.812,39.773,4,58.586ZM24.6,40.818l6.9,4.045a1,1,0,0,0,1.01,0l6.9-4.045L58.586,60H5.414Zm16.593-1.045L60,28.746v29.84ZM57.317,28,54,29.945V28ZM13,4H43v7a3,3,0,0,0,3,3h4V12H46a1,1,0,0,1-1-1V5.416l6.7,6.712a1.044,1.044,0,0,1,.3.722V31.117L32,42.841,12,31.117V5A1,1,0,0,1,13,4ZM10,28v1.945L6.683,28Z"></path><rect x="16" y="8" width="2" height="2"></rect><rect x="20" y="8" width="18" height="2"></rect><rect x="16" y="14" width="22" height="2"></rect><rect x="16" y="20" width="32" height="2"></rect><rect x="16" y="26" width="32" height="2"></rect></g></svg>