<svg xmlns="http://www.w3.org/2000/svg" viewBox="0 0 64 64" x="0px" y="0px"><g><path d="M49,46a1,1,0,0,1,1,1h2a3,3,0,0,0-2-2.816V43H48v1.184A2.993,2.993,0,0,0,49,50a1,1,0,1,1-1,1H46a3,3,0,0,0,2,2.816V55h2V53.816A2.993,2.993,0,0,0,49,48a1,1,0,0,1,0-2Z"></path><path d="M49,39A10,10,0,1,0,59,49,10.011,10.011,0,0,0,49,39Zm0,18a8,8,0,1,1,8-8A8.009,8.009,0,0,1,49,57Z"></path><path d="M49,36a12.961,12.961,0,0,0-3,.363V32a1,1,0,0,0,1-1V28h2a1,1,0,0,0,1-1V21a1,1,0,0,0-1-1H42.957A21.847,21.847,0,0,0,27,12.028V9.659l6.394-2.74a1,1,0,0,0,0-1.838l-7-3A1,1,0,0,0,25,3v9.028A21.847,21.847,0,0,0,9.043,20H3a1,1,0,0,0-1,1v6a1,1,0,0,0,1,1H5v3a1,1,0,0,0,1,1V50H3a1,1,0,0,0-1,1v6a1,1,0,0,0,1,1H39.641A12.993,12.993,0,1,0,49,36Zm-5,1a13.013,13.013,0,0,0-4,2.638V32h4ZM36.051,50H35V45a9,9,0,0,0-18,0v5H14V32a1,1,0,0,0,1-1H37a1,1,0,0,0,1,1V42.1A12.9,12.9,0,0,0,36,49C36,49.338,36.025,49.669,36.051,50ZM25,50H19V45a7.006,7.006,0,0,1,6-6.92Zm2-11.92A7.006,7.006,0,0,1,33,45v5H27ZM37,28v1H15V28Zm8,2H39V28h6ZM27,4.517,30.461,6,27,7.483ZM26,14a19.865,19.865,0,0,1,14.279,6H11.721A19.865,19.865,0,0,1,26,14ZM4,22H48v4H4Zm9,6v2H7V28ZM8,32h4V50H8ZM4,56V52H36.363a12.944,12.944,0,0,0,1.7,4Zm45,4A11,11,0,1,1,60,49,11.013,11.013,0,0,1,49,60Z"></path><rect x="54" y="48" width="2" height="2"></rect><rect x="42" y="48" width="2" height="2"></rect></g></svg>