<svg xmlns="http://www.w3.org/2000/svg" viewBox="0 0 64 64" x="0px" y="0px"><g data-name="Mobile Phone-Coffee Cup-Smartphone-App-Coffee"><rect x="27" y="46" width="6" height="2"></rect><path d="M59.83,47.17A4,4,0,0,0,57,46a3.94,3.94,0,0,0-2.57.94,4.43,4.43,0,0,0-.6-.77A4,4,0,0,0,51,45a3.94,3.94,0,0,0-2.57.94,4.43,4.43,0,0,0-.6-.77,3.742,3.742,0,0,0-.83-.62V9a7.008,7.008,0,0,0-7-7H20a7.008,7.008,0,0,0-7,7V21.42L5.76,33.95A16.835,16.835,0,0,0,3.59,44.33l1.4,12.63L4.02,61.8l1.96.4,1-5a.81.81,0,0,0,.01-.31L5.57,44.11A14.908,14.908,0,0,1,7.5,34.95L13,25.42V38.39L11.44,41.1l1.73,1,5-8.66a1.988,1.988,0,0,1,2.73-.73,1.927,1.927,0,0,1,.93,1.21,1.974,1.974,0,0,1-.2,1.52l-3.5,6.06a1.023,1.023,0,0,0-.06.87l1.29,3.21A9.149,9.149,0,0,1,20,48.93v1.3a9,9,0,0,1-1.28,4.63l-1.58,2.63A1,1,0,0,0,17,58v4h2V58.28l1.43-2.39A10.907,10.907,0,0,0,21.84,52h5.71a4.055,4.055,0,0,0,.38,3.04l4.31,7.46,1.74-1-4.31-7.46a2,2,0,0,1,.3-2.39,1.9,1.9,0,0,1,.43-.34,2.005,2.005,0,0,1,2.48.4,1.367,1.367,0,0,1,.25.33l2,3.46a1.022,1.022,0,0,0,1.13.47A1,1,0,0,0,37,55V40a2.006,2.006,0,0,1,2-2,2.015,2.015,0,0,1,2,2V52a1,1,0,0,0,2,0V48a2.006,2.006,0,0,1,2-2,2.1,2.1,0,0,1,1.41.59A1.983,1.983,0,0,1,47,48v4a1,1,0,0,0,2,0V49a2.006,2.006,0,0,1,2-2,2.015,2.015,0,0,1,2,2v3a1,1,0,0,0,2,0V50a2.006,2.006,0,0,1,2-2,2.015,2.015,0,0,1,2,2V62h2V50A4,4,0,0,0,59.83,47.17ZM20,4H40a5.017,5.017,0,0,1,4.9,4H15.1A5.017,5.017,0,0,1,20,4ZM35,50H33.97a4.1,4.1,0,0,0-4.57-.43,4.478,4.478,0,0,0-.59.43H22V48.93a10.825,10.825,0,0,0-.79-4.09L20.88,44H35Zm10-5.97a4.048,4.048,0,0,0-2,.51V44h2ZM45,42H43V40a4,4,0,0,0-8,0v2H20.15l3.22-5.56a4,4,0,1,0-6.93-4L15,34.93V10H45Z"></path><path d="M36.61,23H26.1a2,2,0,0,0-1.48.66,2.025,2.025,0,0,0-.51,1.54l.62,6.2A3.994,3.994,0,0,0,28.71,35h2.58a3.994,3.994,0,0,0,3.98-3.6l.08-.87,2.52-1A3.356,3.356,0,0,0,40,26.39,3.393,3.393,0,0,0,36.61,23Zm-3.33,8.2A2,2,0,0,1,31.29,33H28.71a1.98,1.98,0,0,1-1.98-1.8L26.1,25h7.8Zm3.85-3.53-1.55.62L35.91,25h.7A1.387,1.387,0,0,1,38,26.39,1.366,1.366,0,0,1,37.13,27.67Z"></path><path d="M29.832,18.555A5.744,5.744,0,0,0,31,15H29a3.78,3.78,0,0,1-.832,2.445A5.744,5.744,0,0,0,27,21h2A3.78,3.78,0,0,1,29.832,18.555Z"></path><path d="M33,21a3.78,3.78,0,0,1,.832-2.445A5.744,5.744,0,0,0,35,15H33a3.78,3.78,0,0,1-.832,2.445A5.744,5.744,0,0,0,31,21Z"></path></g></svg>