<svg xmlns="http://www.w3.org/2000/svg" viewBox="0 0 64 64" x="0px" y="0px"><g data-name="Car Park-Parking Lot"><rect x="32" y="37" width="4" height="2"></rect><rect x="12" y="37" width="4" height="2"></rect><rect x="14" y="49" width="2" height="2"></rect><rect x="42" y="49" width="2" height="2"></rect><rect x="2" y="55" width="2" height="2"></rect><path d="M61,51H60V16a1,1,0,0,0-.293-.707l-8-8A.994.994,0,0,0,51,7H5A1,1,0,0,0,4,8v6a1,1,0,0,0,1,1H44v4a1,1,0,0,0,.293.707l5,5A1,1,0,0,0,50,25h8V51H57a1,1,0,0,0-1,1v3H47.889a6.975,6.975,0,0,0,2.031-4H53a3,3,0,0,0,3-3V40a7.008,7.008,0,0,0-7-7H45.469l-8.5-10.2A4.988,4.988,0,0,0,33.127,21H12.434a4.983,4.983,0,0,0-4.441,2.7L3.425,32.533A16.891,16.891,0,0,0,2,39.347V48a3,3,0,0,0,3,3H8.08a6.98,6.98,0,0,0,2.03,4H6v2H62V52A1,1,0,0,0,61,51ZM58,19.586l-6-6V10.414l6,6ZM6,9H50v4H6ZM50.414,23,46,18.586V15h4.586L58,22.414V23ZM43,55a5,5,0,1,1,5-5A5.006,5.006,0,0,1,43,55ZM54,40v1H50V39h3.9A5,5,0,0,1,54,40Zm-5-5a4.977,4.977,0,0,1,3.974,2H50a2,2,0,0,0-2,2v2a2,2,0,0,0,2,2h4v2H51v2h3v1a1,1,0,0,1-1,1H49.92a6.991,6.991,0,0,0-13.84,0H30V35ZM30,27h7.86v0L42.867,33,30,33.024Zm-2,6.027-16.792.027,1.373-5.305A1,1,0,0,1,13.548,27H28ZM4,48V47H7V45H4V39.347a14.885,14.885,0,0,1,1.229-5.954L9.77,24.621A2.988,2.988,0,0,1,12.434,23H33.127a2.992,2.992,0,0,1,2.3,1.08L36.2,25H13.548a3,3,0,0,0-2.9,2.249L9.259,32.607A2,2,0,0,0,11.22,35H28V49H21.92A6.991,6.991,0,0,0,8.08,49H5A1,1,0,0,1,4,48Zm6,2a5,5,0,1,1,5,5A5.006,5.006,0,0,1,10,50Zm9.89,5a6.98,6.98,0,0,0,2.03-4H36.08a6.975,6.975,0,0,0,2.031,4ZM58,55V53h2v2Z"></path></g></svg>