<svg xmlns="http://www.w3.org/2000/svg" viewBox="0 0 64 64" x="0px" y="0px"><g data-name="Exchange"><path d="M21,11v9h6.984L21.54,10.126A.991.991,0,0,0,21,11Z"></path><path d="M41,20h8V11a1,1,0,0,0-1-1H23.847l6.745,10.335a3.991,3.991,0,0,1,2.37,3.289L45.293,11.293l1.414,1.414-8.141,8.141A3.964,3.964,0,0,1,41,20Z"></path><path d="M57,33V29a7.009,7.009,0,0,0-7-7H41a2,2,0,0,0,0,4h6a1,1,0,0,1,1,1,3,3,0,0,0,3,3v9.92A7.006,7.006,0,0,0,57,33Z"></path><path d="M57.478,38H60V24H57.478A8.947,8.947,0,0,1,59,29v4A8.947,8.947,0,0,1,57.478,38Z"></path><path d="M12.522,24H10V38h2.522A8.947,8.947,0,0,1,11,33V29A8.947,8.947,0,0,1,12.522,24Z"></path><path d="M49,53V31.564A5.005,5.005,0,0,1,46.1,28H41a4,4,0,0,1-4-4,3.964,3.964,0,0,1,.848-2.434l-3.911,3.911,3.9,5.976a1,1,0,0,1,0,1.093l-3.9,5.979L46.707,51.293l-1.414,1.414L32.822,40.236,23.846,54H48A1,1,0,0,0,49,53Z"></path><path d="M13,29v4a7.006,7.006,0,0,0,6,6.92V30a3,3,0,0,0,3-3,1,1,0,0,1,1-1h6a2,2,0,0,0,0-4H20A7.009,7.009,0,0,0,13,29Z"></path><rect x="4" y="22" width="4" height="18"></rect><path d="M21.541,53.874,35.806,32l-3.643-5.58A3.979,3.979,0,0,1,29,28H23.9A5.005,5.005,0,0,1,21,31.564V53A.992.992,0,0,0,21.541,53.874Z"></path></g></svg>