<svg xmlns="http://www.w3.org/2000/svg" viewBox="0 0 64 64" x="0px" y="0px"><g><rect x="17" y="6" width="2" height="2"></rect><rect x="21" y="6" width="2" height="2"></rect><rect x="25" y="6" width="2" height="2"></rect><path d="M49,44.08V42h1a3,3,0,0,0,3-3V5a3,3,0,0,0-3-3H16a3,3,0,0,0-3,3V32a4,4,0,0,0-4,4V51a1,1,0,0,0,.2.6L12,55.333V61a1,1,0,0,0,1,1H34a1,1,0,0,0,1-1V55.333L37.8,51.6A1,1,0,0,0,38,51V42h9v2.08A7,7,0,0,0,41,51v4a7,7,0,0,0,14,0V51A7,7,0,0,0,49,44.08ZM16,4H50a1,1,0,0,1,1,1v5H15V5A1,1,0,0,1,16,4Zm-1,8H51V39a1,1,0,0,1-1,1H48.92A7,7,0,0,0,42,34H32a5.006,5.006,0,0,1-5-5V25H25v4a7.008,7.008,0,0,0,7,7H42a5.009,5.009,0,0,1,4.9,4H17V36a3.987,3.987,0,0,0-2-3.444ZM36,50.667,33.2,54.4a1,1,0,0,0-.2.6v5H14V55a1,1,0,0,0-.2-.6L11,50.667V36a2,2,0,0,1,4,0v8a1,1,0,0,0,.105.447L17,48.236V51h2V48a1,1,0,0,0-.105-.447L17,43.764V42h4v2h2V42h3v2h2V42h3v2h2V42h3ZM53,55a5,5,0,0,1-10,0V51a5,5,0,0,1,10,0Z"></path><rect x="47" y="48" width="2" height="2"></rect><path d="M20.707,21.707l3-3a1,1,0,0,0,0-1.414l-3-3-1.414,1.414L21.586,18l-2.293,2.293Z"></path><rect x="26" y="20" width="6" height="2"></rect></g></svg>