<svg xmlns="http://www.w3.org/2000/svg" viewBox="0 0 64 64" x="0px" y="0px"><g data-name="Scale-Weight-Smartphone-Internet of Things-Sync"><path d="M55,2H19a7.008,7.008,0,0,0-7,7V26H7a5,5,0,0,0-5,5V57a5,5,0,0,0,5,5H21a5,5,0,0,0,5-5V52H55a7.008,7.008,0,0,0,7-7V9A7.008,7.008,0,0,0,55,2ZM24,57a3.009,3.009,0,0,1-3,3H7a3.009,3.009,0,0,1-3-3V54H24Zm0-5H4V34H24Zm0-20H4V31a3.009,3.009,0,0,1,3-3H21a3.009,3.009,0,0,1,3,3ZM60,45a5,5,0,0,1-5,5H26V40h3V38H26V34h6V32H26V31a4.924,4.924,0,0,0-1.03-3H29V26H14V9a5,5,0,0,1,5-5H55a5,5,0,0,1,5,5Z"></path><path d="M47,15V11a3,3,0,0,0-3-3H30a3,3,0,0,0-3,3v4a3,3,0,0,0,3,3H44A3,3,0,0,0,47,15ZM29,15V11a1,1,0,0,1,1-1H44a1,1,0,0,1,1,1v4a1,1,0,0,1-1,1H30A1,1,0,0,1,29,15Z"></path><rect x="36" y="22" width="2" height="24"></rect><path d="M20,6a4,4,0,1,0,4,4A4,4,0,0,0,20,6Zm0,6a2,2,0,1,1,2-2A2,2,0,0,1,20,12Z"></path><path d="M54,6a4,4,0,1,0,4,4A4,4,0,0,0,54,6Zm0,6a2,2,0,1,1,2-2A2,2,0,0,1,54,12Z"></path><rect x="42" y="32" width="14" height="2"></rect><rect x="45" y="26" width="8" height="2"></rect><rect x="45" y="38" width="8" height="2"></rect><path d="M10.464,43.464l1.414,1.414a3.006,3.006,0,0,1,4.244,0l1.414-1.414A5.008,5.008,0,0,0,10.464,43.464Z"></path><path d="M9.05,42.05a7,7,0,0,1,9.9,0l1.414-1.414a9,9,0,0,0-12.728,0Z"></path><path d="M12.586,46.586,14,48l1.414-1.414A2,2,0,0,0,12.586,46.586Z"></path><rect x="13" y="56" width="2" height="2"></rect></g></svg>