<svg xmlns="http://www.w3.org/2000/svg" viewBox="0 0 64 64" x="0px" y="0px"><g data-name="Health Report-Mail"><path d="M60.783,22.593c-.031-.024-.066-.04-.1-.062l-.019-.013A2.93,2.93,0,0,0,59,22H54V15c0-.021-.011-.04-.012-.061a1,1,0,0,0-.052-.26c-.011-.032-.019-.062-.033-.093a1,1,0,0,0-.2-.293l-12-12a.989.989,0,0,0-.292-.2c-.032-.015-.064-.023-.1-.035a.987.987,0,0,0-.253-.05C41.043,2.011,41.023,2,41,2H15a5.006,5.006,0,0,0-5,5V22H5a2.912,2.912,0,0,0-1.672.521l0,0c-.028.019-.059.034-.087.055A2.988,2.988,0,0,0,2,25V57a5.006,5.006,0,0,0,5,5H57a5.006,5.006,0,0,0,5-5V25A2.976,2.976,0,0,0,60.783,22.593ZM57.741,24,54,26.868V24ZM50.586,14H43a1,1,0,0,1-1-1V5.414ZM12,7a3,3,0,0,1,3-3H40v9a3,3,0,0,0,3,3h9V28.4L32,43.736,12,28.4ZM10,26.869,6.259,24H10ZM60,57a3,3,0,0,1-3,3H7a3,3,0,0,1-3-3V25a1.014,1.014,0,0,1,.043-.179l26.732,20.5A2,2,0,0,0,32,45.74a1.976,1.976,0,0,0,1.217-.417l26.738-20.5A.933.933,0,0,1,60,25Z"></path><path d="M31,16v2a1,1,0,0,0,2,0V16h2a1,1,0,0,0,0-2H33V12a1,1,0,0,0-2,0v2H29a1,1,0,0,0,0,2Z"></path><path d="M32,22a7,7,0,1,0-7-7A7.008,7.008,0,0,0,32,22Zm0-12a5,5,0,1,1-5,5A5.006,5.006,0,0,1,32,10Z"></path><path d="M21,28H43a1,1,0,0,0,0-2H21a1,1,0,0,0,0,2Z"></path><path d="M21,34H43a1,1,0,0,0,0-2H21a1,1,0,0,0,0,2Z"></path></g></svg>