<svg xmlns="http://www.w3.org/2000/svg" viewBox="0 0 32 32" x="0px" y="0px"><title>Browser_6</title><g data-name="Browser"><path d="M31,0H1A1,1,0,0,0,0,1V31a1,1,0,0,0,1,1H31a1,1,0,0,0,1-1V1A1,1,0,0,0,31,0ZM30,6H14V2H30ZM12,2V6H2V2ZM2,8H4V30H2ZM6,30V8H30V30Z"></path><rect x="3" y="3" width="2" height="2"></rect><rect x="6" y="3" width="2" height="2"></rect><rect x="9" y="3" width="2" height="2"></rect><path d="M20.122,21.536l1.414-1.414-2.829-2.829a1,1,0,0,0-1.414,0l-2.829,2.829,1.414,1.414L17,20.414V26h2V20.414Z"></path><path d="M23,13H13a1,1,0,0,0-1,1V24a1,1,0,0,0,1,1h3V23H14V15h8v8H20v2h3a1,1,0,0,0,1-1V14A1,1,0,0,0,23,13Z"></path></g></svg>