<svg xmlns="http://www.w3.org/2000/svg" viewBox="0 0 64 64" x="0px" y="0px"><g><path d="M23,36A15,15,0,1,0,8,21,15.017,15.017,0,0,0,23,36ZM23,8A13,13,0,1,1,10,21,13.015,13.015,0,0,1,23,8Z"></path><path d="M23,26a5,5,0,1,0-5-5A5.006,5.006,0,0,0,23,26Zm0-8a3,3,0,1,1-3,3A3,3,0,0,1,23,18Z"></path><path d="M36,38H10a3,3,0,0,0-3,3V55a3,3,0,0,0,3,3H36a3,3,0,0,0,3-3V41A3,3,0,0,0,36,38Zm-6.281,2-.5,2H16.781l-.5-2ZM37,55a1,1,0,0,1-1,1H10a1,1,0,0,1-1-1V41a1,1,0,0,1,1-1h4.22l.81,3.242A1,1,0,0,0,16,44H30a1,1,0,0,0,.97-.758L31.78,40H36a1,1,0,0,1,1,1Z"></path><path d="M60,39H55V28a3,3,0,0,0-3-3H47V23a1,1,0,0,0-1-1H43A20,20,0,0,0,3,22V60a2,2,0,0,0,2,2H41a2,2,0,0,0,2-2V34h3a1,1,0,0,0,1-1V31h2V44a1,1,0,0,0,1,1H60a1,1,0,0,0,1-1V40A1,1,0,0,0,60,39ZM5,60V22a18,18,0,0,1,36,0V60ZM45,32H43V24h2Zm5-3H47V27h5a1,1,0,0,1,1,1V43H51V30A1,1,0,0,0,50,29Zm9,14H55V41h4Z"></path></g></svg>