<svg xmlns="http://www.w3.org/2000/svg" viewBox="0 0 64 64" x="0px" y="0px"><g><rect x="40" y="44" width="10" height="2"></rect><rect x="40" y="48" width="8" height="2"></rect><rect x="40" y="52" width="6" height="2"></rect><rect x="40" y="56" width="6" height="2"></rect><rect x="40" y="40" width="14" height="2"></rect><rect x="44" y="36" width="10" height="2"></rect><rect x="40" y="36" width="2" height="2"></rect><path d="M60.5,37.08a2.98,2.98,0,0,0-2.5-.21V35a3.009,3.009,0,0,0-3-3H41.58A5.012,5.012,0,0,0,42,30a4.9,4.9,0,0,0-.33-1.79A4.989,4.989,0,0,0,39,19V17A15,15,0,1,0,9,17v2a4.989,4.989,0,0,0-2.67,9.21A4.9,4.9,0,0,0,6,30a5,5,0,0,0,5,5,5.058,5.058,0,0,0,1.78-.32A4.991,4.991,0,0,0,19,36.58v.68L9.31,40.29A8.963,8.963,0,0,0,3,48.88V61a1,1,0,0,0,1,1H55a3.009,3.009,0,0,0,3-3V47.41l3.6-6.23A3.016,3.016,0,0,0,60.5,37.08ZM12.97,60a4.756,4.756,0,0,0-.8-2.36A6.794,6.794,0,0,1,11,54a6.609,6.609,0,0,1,1.71-4.29l-1.42-1.42A8.723,8.723,0,0,0,9,54a8.855,8.855,0,0,0,1.52,4.77A2.655,2.655,0,0,1,10.97,60H5V48.88A6.964,6.964,0,0,1,9.91,42.2l7.06-2.21-3.73,4.36a1,1,0,0,0,.05,1.36l2.14,2.13-1.98,1.33a.989.989,0,0,0-.33,1.31L18.32,60ZM19,57.08l-3.68-6.76,2.23-1.49A.989.989,0,0,0,18,48.1a1.046,1.046,0,0,0-.29-.81l-2.35-2.34L19,40.7Zm0-22.87a2.963,2.963,0,0,1-4.82-1.22,1.035,1.035,0,0,0-.64-.62.993.993,0,0,0-.87.12A2.911,2.911,0,0,1,11,33a3.009,3.009,0,0,1-3-3,2.964,2.964,0,0,1,.51-1.67.99.99,0,0,0,.13-.88,1.035,1.035,0,0,0-.62-.64A2.968,2.968,0,0,1,6,24a3.009,3.009,0,0,1,3-3,2.876,2.876,0,0,1,.73.11.97.97,0,0,0,.87-.16,1.014,1.014,0,0,0,.4-.8V17A12.948,12.948,0,0,1,29.52,5.26a13.147,13.147,0,0,1-2.83,5.25,11.815,11.815,0,0,1-.86.9A17.117,17.117,0,0,1,14,16a1,1,0,0,0-1,1v7a11.014,11.014,0,0,0,6,9.79ZM24,33a9.014,9.014,0,0,1-9-9V17.97a19.161,19.161,0,0,0,11.31-4.31A9.468,9.468,0,0,0,33,16.96V24A9.014,9.014,0,0,1,24,33Zm5,3.58a4.991,4.991,0,0,0,6.22-1.9,6.548,6.548,0,0,0,.79.22c0,.03-.01.07-.01.1v4.46l-7-2.19ZM27,60H21V43.97a4.884,4.884,0,0,0,6,0Zm0-20a3,3,0,0,1-6,0V34.57a10.68,10.68,0,0,0,6,0Zm2,.7,3.64,4.25-2.35,2.34a1.046,1.046,0,0,0-.29.81.989.989,0,0,0,.45.73l2.23,1.49L29,57.08ZM29.68,60l5.2-9.52a.989.989,0,0,0-.33-1.31l-1.98-1.33,2.14-2.13a1,1,0,0,0,.05-1.36L31.03,40,36,41.55V59a3,3,0,0,0,.18,1Zm5.65-27.51a1,1,0,0,0-.87-.12,1.035,1.035,0,0,0-.64.62A2.963,2.963,0,0,1,29,34.21v-.42A11.014,11.014,0,0,0,35,24V16a1,1,0,0,0-1-1,7.75,7.75,0,0,1-6.22-2.71c.15-.16.29-.31.42-.47a15.167,15.167,0,0,0,3.13-5.54A12.992,12.992,0,0,1,37,17v3.15a1.014,1.014,0,0,0,.4.8.97.97,0,0,0,.87.16A2.876,2.876,0,0,1,39,21a3.009,3.009,0,0,1,3,3,2.968,2.968,0,0,1-2.02,2.81,1.035,1.035,0,0,0-.62.64.99.99,0,0,0,.13.88A2.954,2.954,0,0,1,39.21,32H39a2.983,2.983,0,0,0-2.21.98A2.893,2.893,0,0,1,35.33,32.49ZM56,59a1,1,0,0,1-1,1H39a1,1,0,0,1-1-1V35a1,1,0,0,1,1-1H55a1,1,0,0,1,1,1v3.87L48.4,52.04a.942.942,0,0,0-.13.44L48,56.94a1,1,0,0,0,1.55.89l3.73-2.46a1.009,1.009,0,0,0,.32-.33L56,50.88Zm-4.02-5.17-1.86,1.23.13-2.23,6.38-11.05,1.74,1Zm7.89-13.65-.5.87-1.74-1,.5-.87a1,1,0,1,1,1.74,1Z"></path><circle cx="20" cy="21" r="2"></circle><circle cx="28" cy="21" r="2"></circle><path d="M21.872,26.118l-1.4,1.424a5.007,5.007,0,0,0,7.064,0l-1.4-1.424A3.082,3.082,0,0,1,21.872,26.118Z"></path></g></svg>