<svg xmlns="http://www.w3.org/2000/svg" viewBox="0 0 512 512" x="0px" y="0px"><g><path d="M256,64a8,8,0,0,0-5.787,2.477C245.893,71,208,111.414,208,136a48,48,0,0,0,96,0c0-24.586-37.893-65-42.213-69.523A8,8,0,0,0,256,64Zm0,104a32.036,32.036,0,0,1-32-32c0-12.028,17.772-36.084,32-52.167,14.228,16.073,32,40.12,32,52.167A32.036,32.036,0,0,1,256,168Z"></path><path d="M448,248H384a16.019,16.019,0,0,0-16,16V392a32.036,32.036,0,0,0,32,32h8v16a8.009,8.009,0,0,1-8,8H264V408h24a32.036,32.036,0,0,0,32-32V216a16.019,16.019,0,0,0-16-16H208a16.019,16.019,0,0,0-16,16V376a32.036,32.036,0,0,0,32,32h24v40H112a8.009,8.009,0,0,1-8-8V424h8a32.036,32.036,0,0,0,32-32V264a16.019,16.019,0,0,0-16-16H64a16.019,16.019,0,0,0-16,16V392a32.036,32.036,0,0,0,32,32h8v16a24.028,24.028,0,0,0,24,24H248v16H160v16H352V480H264V464H400a24.028,24.028,0,0,0,24-24V424h8a32.036,32.036,0,0,0,32-32V264A16.019,16.019,0,0,0,448,248ZM208,216h96v16a16.019,16.019,0,0,0-16,16v7.548a8.328,8.328,0,0,1-7.6,8.443A8,8,0,0,1,272,256a24,24,0,0,0-48,0v16a8,8,0,0,1-16,0Zm0,160V294.624A23.992,23.992,0,0,0,240,272V256a8,8,0,0,1,16,0,24.109,24.109,0,0,0,7.436,17.367A23.774,23.774,0,0,0,279.979,280c.389,0,.78-.008,1.17-.027A24.2,24.2,0,0,0,304,255.548V376a16.019,16.019,0,0,1-16,16H224A16.019,16.019,0,0,1,208,376ZM64,264h64v56a8,8,0,0,1-16,0V304a24.109,24.109,0,0,0-7.436-17.367,23.834,23.834,0,0,0-17.713-6.606A24.2,24.2,0,0,0,64,304.452Zm0,128V328a16.019,16.019,0,0,0,16-16v-7.548a8.328,8.328,0,0,1,7.6-8.443A8,8,0,0,1,96,304v16a23.992,23.992,0,0,0,32,22.624V392a16.019,16.019,0,0,1-16,16H80A16.019,16.019,0,0,1,64,392ZM384,264h64v40.452a24.2,24.2,0,0,0-22.851-24.425,23.819,23.819,0,0,0-17.713,6.606A24.109,24.109,0,0,0,400,304v16a8,8,0,0,1-16,0Zm64,128a16.019,16.019,0,0,1-16,16H400a16.019,16.019,0,0,1-16-16V342.624A23.992,23.992,0,0,0,416,320V304a8,8,0,0,1,8.4-7.991,8.328,8.328,0,0,1,7.6,8.443V312a16.019,16.019,0,0,0,16,16Z"></path><rect x="248" y="16" width="16" height="32"></rect><rect x="286.111" y="48" width="35.777" height="16" transform="translate(117.959 302.862) rotate(-63.435)"></rect><rect x="318.111" y="96" width="35.777" height="16" transform="translate(-11.038 161.243) rotate(-26.565)"></rect><rect x="200" y="38.111" width="16" height="35.777" transform="translate(-3.085 98.933) rotate(-26.565)"></rect><rect x="168" y="86.111" width="16" height="35.777" transform="translate(4.27 214.909) rotate(-63.435)"></rect><path d="M90.343,229.657a8,8,0,0,0,11.314,0L135.6,195.716a24,24,0,1,0-33.943-33.941L96,167.432l-5.657-5.658a24.03,24.03,0,0,0-33.941,0h0a24.027,24.027,0,0,0,0,33.94ZM67.715,173.089a8.011,8.011,0,0,1,11.314,0L90.343,184.4a8,8,0,0,0,11.314,0l11.313-11.313A8,8,0,1,1,124.285,184.4L96,212.686,67.716,184.4a8.01,8.01,0,0,1,0-11.314Z"></path><path d="M410.343,229.657a8,8,0,0,0,11.314,0L455.6,195.716a24,24,0,1,0-33.943-33.941L416,167.432l-5.657-5.658a24.03,24.03,0,0,0-33.941,0h0a24.027,24.027,0,0,0,0,33.94Zm-22.628-56.568a8.011,8.011,0,0,1,11.314,0L410.343,184.4a8,8,0,0,0,11.314,0l11.313-11.313A8,8,0,0,1,444.285,184.4L416,212.686,387.716,184.4a8.01,8.01,0,0,1,0-11.314Z"></path></g></svg>