<svg xmlns="http://www.w3.org/2000/svg" viewBox="0 0 64 64" x="0px" y="0px"><g data-name="Manufacturing-Communicate-App-Smartphone-Internet of Things"><path d="M22,48.17A3,3,0,0,1,23,48a3.06,3.06,0,0,1,1,.19V46H22Z"></path><path d="M4,46v3a3.009,3.009,0,0,0,3,3h3.71a2.911,2.911,0,0,1,1.06-1.06A3,3,0,0,1,15.84,52H16V46Zm11,4H13V48h2Z"></path><path d="M24,23a3.009,3.009,0,0,0-3-3H7a3.009,3.009,0,0,0-3,3v1H24Z"></path><path d="M32,53v7H15.84L12.4,54.04a1.01,1.01,0,0,1,.37-1.37.988.988,0,0,1,1.36.37l2,3.46A1,1,0,0,0,18,56V43a1,1,0,0,1,2,0V54a1,1,0,0,0,2,0V51a1,1,0,0,1,2,0v3a1,1,0,0,0,2,0V52a1,1,0,0,1,2,0v2a1,1,0,0,0,2,0V53a1,1,0,0,1,2,0Z"></path><path d="M4,26V44H16V43a3,3,0,0,1,6,0v1h2V26ZM14,40l-1.41-1.41a1.992,1.992,0,0,1,2.82,0Zm2.12-3.12a3,3,0,0,0-4.24,0l-1.42-1.42a5.034,5.034,0,0,1,7.08,0Zm2.83-2.83a7.007,7.007,0,0,0-9.9,0L7.64,32.64a9,9,0,0,1,12.72,0Z"></path><path d="M37.8,7.6a18.311,18.311,0,0,0,2.108-3.294L38.1,3.46A16.488,16.488,0,0,1,36.2,6.4,12.843,12.843,0,0,0,33,15h2C35,11.333,36.36,9.52,37.8,7.6Z"></path><path d="M40,15c0-3.667,1.36-5.48,2.8-7.4a18.311,18.311,0,0,0,2.108-3.294L43.1,3.46A16.488,16.488,0,0,1,41.2,6.4,12.843,12.843,0,0,0,38,15Z"></path><path d="M58.122,25.879l1.414-1.414a5.008,5.008,0,0,0-7.072,0l1.414,1.414A3,3,0,0,1,58.122,25.879Z"></path><path d="M54.586,27.586,56,29l1.414-1.414A2,2,0,0,0,54.586,27.586Z"></path><path d="M45.878,15.879a3,3,0,0,1,4.244,0l1.414-1.414a5.008,5.008,0,0,0-7.072,0Z"></path><path d="M46.586,17.586,48,19l1.414-1.414A2,2,0,0,0,46.586,17.586Z"></path><path d="M31,19H41a1,1,0,0,0,0-2H31a1,1,0,0,0,0,2Z"></path><path d="M59,41V33H51v8H49V29H42.41l.55,12H40.95l-.91-20H31.96l-.91,20H27v2H62V41Zm-6-6h4v2H53ZM43,31h4v2H43Zm0,4h4v2H43Z"></path></g></svg>