<svg xmlns="http://www.w3.org/2000/svg" viewBox="0 0 64 64" x="0px" y="0px"><g data-name="Space Capsule"><path d="M32,2A21.024,21.024,0,0,0,11,23a1,1,0,0,0,.21.614L25,41.344V44a1,1,0,0,0-.895.553l-5,10A1,1,0,0,0,19,55v4a3,3,0,0,0,3,3H42a3,3,0,0,0,3-3V55a1,1,0,0,0-.1-.447l-5-10A1,1,0,0,0,39,44V41.344l13.79-17.73A1,1,0,0,0,53,23,21.024,21.024,0,0,0,32,2Zm0,2A19.02,19.02,0,0,1,50.488,18.689,4.913,4.913,0,0,0,44,20.031a4.954,4.954,0,0,0-8,0,4.955,4.955,0,0,0-8,0,4.956,4.956,0,0,0-8,0,4.927,4.927,0,0,0-6.494-1.335A19.02,19.02,0,0,1,32,4ZM31,44V42h2v2Zm-2.35-4L21.018,22.827A2.993,2.993,0,0,1,27,23a1,1,0,0,0,.006.11L28.883,40ZM33.1,40H30.9L29,22.972a3,3,0,0,1,6-.024Zm2.012,0,1.877-16.89A1,1,0,0,0,37,23a3,3,0,0,1,5.994-.2L35.35,40ZM16,20a3,3,0,0,1,3,3,1,1,0,0,0,.086.406l7.338,16.51L13.017,22.679A3,3,0,0,1,16,20ZM27,42h2v2H27ZM42,60H22a1,1,0,0,1-1-1V56H43v3A1,1,0,0,1,42,60Zm-6-6H28V50h8Zm6.382,0H38V49a1,1,0,0,0-1-1H27a1,1,0,0,0-1,1v5H21.618l4-8H38.382ZM35,44V42h2v2Zm2.576-4.084,7.338-16.51A1,1,0,0,0,45,23a3,3,0,0,1,5.983-.321Z"></path><rect x="54" y="36" width="2" height="14"></rect><rect x="54" y="32" width="2" height="2"></rect><rect x="54" y="28" width="2" height="2"></rect><rect x="60" y="24" width="2" height="20"></rect><rect x="60" y="20" width="2" height="2"></rect><rect x="60" y="16" width="2" height="2"></rect><rect x="60" y="12" width="2" height="2"></rect><rect x="8" y="36" width="2" height="14"></rect><rect x="8" y="32" width="2" height="2"></rect><rect x="8" y="28" width="2" height="2"></rect><rect x="2" y="24" width="2" height="20"></rect><rect x="2" y="20" width="2" height="2"></rect><rect x="2" y="16" width="2" height="2"></rect><rect x="2" y="12" width="2" height="2"></rect></g></svg>