<svg xmlns="http://www.w3.org/2000/svg" viewBox="0 0 64 64" x="0px" y="0px"><g><path d="M4,57a3.009,3.009,0,0,0,3,3h3V56H4Z"></path><rect x="12" y="44" width="6" height="4"></rect><rect x="4" y="44" width="6" height="4"></rect><rect x="4" y="38" width="6" height="4"></rect><rect x="4" y="50" width="6" height="4"></rect><rect x="12" y="56" width="6" height="4"></rect><rect x="12" y="50" width="6" height="4"></rect><rect x="12" y="38" width="6" height="4"></rect><rect x="36" y="50" width="6" height="4"></rect><path d="M33,24a3,3,0,0,0-2.82,2H16.86a3.918,3.918,0,0,0-1.24-2Z"></path><path d="M50,34V32H43.9a5.468,5.468,0,0,1,.1,1v1Z"></path><path d="M53,24H33a3,3,0,0,1,2.82,2H53v2H39a4.952,4.952,0,0,1,3.97,2H53a3,3,0,0,0,0-6Z"></path><path d="M57.95,22.04A7.026,7.026,0,0,0,53,20H52v2h1a5,5,0,0,1,0,10H52v2h1a7.007,7.007,0,0,0,4.95-11.96Z"></path><path d="M42,33a3.009,3.009,0,0,0-3-3H36v1a3,3,0,0,1-6,0V30H16v1a3,3,0,0,1-6,0V30H7a3.009,3.009,0,0,0-3,3v3H42Z"></path><rect x="36" y="44" width="6" height="4"></rect><path d="M42,56H36v4h3a3.009,3.009,0,0,0,3-3Z"></path><rect x="36" y="38" width="6" height="4"></rect><rect x="20" y="38" width="6" height="4"></rect><rect x="20" y="44" width="6" height="4"></rect><rect x="12" y="20" width="29" height="2"></rect><path d="M13,32a1,1,0,0,0,1-1V27a1,1,0,0,0-2,0v4A1,1,0,0,0,13,32Z"></path><polygon points="44.41 22 45.59 22 45 21.41 44.41 22"></polygon><path d="M47,20.59V12H43v8.59l1.29-1.3a1.014,1.014,0,0,1,1.42,0Z"></path><rect x="12" y="4" width="38" height="2"></rect><path d="M34,31V27a1,1,0,0,0-2,0v4a1,1,0,0,0,2,0Z"></path><rect x="49" y="20" width="1" height="2"></rect><rect x="12" y="16" width="29" height="2"></rect><path d="M41,12H17.9a4.84,4.84,0,0,1-.93,2H41Z"></path><rect x="28" y="44" width="6" height="4"></rect><rect x="20" y="50" width="6" height="4"></rect><rect x="28" y="50" width="6" height="4"></rect><rect x="49" y="16" width="1" height="2"></rect><rect x="20" y="56" width="6" height="4"></rect><rect x="28" y="56" width="6" height="4"></rect><path d="M58,11a5,5,0,0,1-5,5H52v2h1A7,7,0,1,0,53,4H52V6h1A5,5,0,0,1,58,11Z"></path><path d="M17.9,10H53v2H49v2h4a3,3,0,0,0,0-6H16.97A4.84,4.84,0,0,1,17.9,10Z"></path><rect x="28" y="38" width="6" height="4"></rect></g></svg>