<svg xmlns="http://www.w3.org/2000/svg" viewBox="0 0 64 64" x="0px" y="0px"><g><rect x="12" y="6" width="2" height="2"></rect><rect x="16" y="6" width="2" height="2"></rect><rect x="20" y="6" width="2" height="2"></rect><path d="M59,2H11A3,3,0,0,0,8,5V8H5a3,3,0,0,0-3,3V59a3,3,0,0,0,3,3H53a3,3,0,0,0,3-3V56h3a3,3,0,0,0,3-3V5A3,3,0,0,0,59,2ZM11,4H59a1,1,0,0,1,1,1v5H10V5A1,1,0,0,1,11,4ZM5,10H8v6H4V11A1,1,0,0,1,5,10ZM54,59a1,1,0,0,1-1,1H5a1,1,0,0,1-1-1V18H8V53a3,3,0,0,0,3,3H54Zm5-5H11a1,1,0,0,1-1-1V12H60V53A1,1,0,0,1,59,54Z"></path><path d="M35,15A18,18,0,1,0,53,33,18.021,18.021,0,0,0,35,15Zm0,34A16,16,0,1,1,51,33,16.019,16.019,0,0,1,35,49Z"></path><rect x="34" y="18" width="2" height="2"></rect><rect x="27" y="19.876" width="2" height="2" transform="translate(-6.687 16.798) rotate(-30.002)"></rect><rect x="21.876" y="25" width="2" height="2" transform="translate(-11.079 32.81) rotate(-59.998)"></rect><rect x="20" y="32" width="2" height="2"></rect><rect x="21.876" y="39" width="2" height="2" transform="translate(-16.933 16.793) rotate(-29.995)"></rect><rect x="46.124" y="39" width="2" height="2" transform="translate(-11.079 60.809) rotate(-59.998)"></rect><rect x="48" y="32" width="2" height="2"></rect><rect x="46.124" y="25" width="2" height="2" transform="translate(-6.687 27.047) rotate(-30.002)"></rect><rect x="41" y="19.876" width="2" height="2" transform="translate(2.923 46.815) rotate(-60.005)"></rect><path d="M41.689,28.029c-1.668.41-7.187,1.8-8.189,2.373a3,3,0,1,0,3,5.2c1-.578,4.96-4.666,6.15-5.906a1,1,0,0,0-.961-1.663ZM35.5,33.866a1,1,0,1,1-1-1.732,36.207,36.207,0,0,1,4.213-1.278A36.258,36.258,0,0,1,35.5,33.866Z"></path><rect x="30" y="40" width="4" height="2"></rect><rect x="36" y="40" width="4" height="2"></rect><rect x="26" y="6" width="26" height="2"></rect></g></svg>