<svg xmlns="http://www.w3.org/2000/svg" viewBox="0 0 64 64" x="0px" y="0px"><g data-name="Credit Card"><rect x="19" y="50" width="28" height="2"></rect><path d="M54,40a1,1,0,0,0,1-1V11a1,1,0,0,0-1-1H10a1,1,0,0,0-1,1V39a1,1,0,0,0,1,1H35.079A7.011,7.011,0,0,1,41,34.071V27a5,5,0,0,1,10,0V40ZM13,14a2,2,0,0,1,2-2h8a2,2,0,0,1,2,2v6a2,2,0,0,1-2,2H15a2,2,0,0,1-2-2ZM23,25v4H21V25Zm-4,0v4H17V25Zm-6,0h2v4H13Zm2,13H13V36h2Zm4,0H17V36h2Zm4,0H21V36h2Zm4,0H25V36h2Zm0-4H13V32H27Zm0-5H25V25h2Zm4,0H29V25h2Zm4,0H33V25h2Zm12-7a4.99,4.99,0,0,1-3.011-1.016A4.955,4.955,0,0,1,41,22a5,5,0,0,1,0-10,4.955,4.955,0,0,1,2.989,1.016A5,5,0,1,1,47,22Z"></path><path d="M47,14a2.974,2.974,0,0,0-1.679.53,4.832,4.832,0,0,1,0,4.94A2.994,2.994,0,1,0,47,14Z"></path><rect x="15" y="14" width="8.001" height="6"></rect><circle cx="41" cy="17" r="3"></circle><path d="M46,24a3,3,0,0,0-3,3v8a1,1,0,0,1-1,1,5.006,5.006,0,0,0-5,5v1H17v2.764L18.618,48H47.382L49,44.764V27A3,3,0,0,0,46,24Z"></path><path d="M32,8h6V7a3,3,0,0,0-6,0Z"></path><path d="M16,8h6V7a3,3,0,0,0-6,0Z"></path><path d="M40,8h6V7a3,3,0,0,0-6,0Z"></path><path d="M24,8h6V7a3,3,0,0,0-6,0Z"></path><rect x="17" y="54" width="32" height="6"></rect></g></svg>