<svg xmlns="http://www.w3.org/2000/svg" viewBox="0 0 64 64" x="0px" y="0px"><g><path d="M46.68,40.29,37,37.26V34.99a4.984,4.984,0,0,0,7.22-1.31A5.058,5.058,0,0,0,46,34a5,5,0,0,0,5-5,4.9,4.9,0,0,0-.33-1.79A4.989,4.989,0,0,0,48,18a16,16,0,0,0-32,0,4.989,4.989,0,0,0-2.67,9.21A4.9,4.9,0,0,0,13,29a5,5,0,0,0,5,5,5.058,5.058,0,0,0,1.78-.32A4.984,4.984,0,0,0,27,34.99v2.27l-9.68,3.03A8.959,8.959,0,0,0,11,48.88V61a1,1,0,0,0,1,1H52a1,1,0,0,0,1-1V48.88A8.959,8.959,0,0,0,46.68,40.29Zm.52-20.16a2.977,2.977,0,0,1,1.78,5.68,1.035,1.035,0,0,0-.62.64.99.99,0,0,0,.13.88A2.964,2.964,0,0,1,49,29a3.009,3.009,0,0,1-3,3,2.911,2.911,0,0,1-1.67-.51,1,1,0,0,0-.87-.12,1.035,1.035,0,0,0-.64.62A2.963,2.963,0,0,1,38,33.21a11.5,11.5,0,0,0,1.78-1.43A10.919,10.919,0,0,0,42.95,25H43a4.006,4.006,0,0,0,3.91-4.85A.968.968,0,0,0,47.2,20.13Zm-6.37,5.61-6.67-1.33a11.214,11.214,0,0,0-4.32,0l-6.65,1.33A9.178,9.178,0,0,1,23,24V17.98a18.794,18.794,0,0,0,12.48-5.41A10.051,10.051,0,0,0,41,14.95V24A9.165,9.165,0,0,1,40.83,25.74ZM43,23V19a2.006,2.006,0,0,1,2,2,2.015,2.015,0,0,1-2,2Zm3-5c0,.12-.01.24-.02.36A3.957,3.957,0,0,0,43,17V14a1,1,0,0,0-1-1,7.888,7.888,0,0,1-5.19-1.92,14.916,14.916,0,0,0,2.57-4.95A13.968,13.968,0,0,1,46,18ZM32,4a13.87,13.87,0,0,1,5.58,1.17A13.117,13.117,0,0,1,34.7,10.5,16.725,16.725,0,0,1,22,16a1,1,0,0,0-1,1,3.957,3.957,0,0,0-2.98,1.36c-.01-.12-.02-.24-.02-.36A14.015,14.015,0,0,1,32,4ZM21,19v4a2.015,2.015,0,0,1-2-2A2.006,2.006,0,0,1,21,19Zm3,15a3.007,3.007,0,0,1-2.83-2.01,1,1,0,0,0-1.5-.5A2.911,2.911,0,0,1,18,32a3.009,3.009,0,0,1-3-3,2.964,2.964,0,0,1,.51-1.67.99.99,0,0,0,.13-.88,1.035,1.035,0,0,0-.62-.64A2.968,2.968,0,0,1,13,23a2.935,2.935,0,0,1,3.8-2.87,1.5,1.5,0,0,0,.29.03A3.861,3.861,0,0,0,17,21a3.995,3.995,0,0,0,4,4h.07a10.9,10.9,0,0,0,4.94,8.2A2.96,2.96,0,0,1,24,34Zm2.83-2.64,3.28-.37-.22-1.98-4.96.55a9,9,0,0,1-1.15-1.9l6.46-1.29a9.065,9.065,0,0,1,3.52,0l6.46,1.29a9.254,9.254,0,0,1-1.15,1.9l-4.96-.55-.22,1.98,3.28.37a9.825,9.825,0,0,1-1.12.68,8.907,8.907,0,0,1-9.22-.68ZM19.97,60a4.846,4.846,0,0,0-.79-2.36A6.723,6.723,0,0,1,18,54a6.609,6.609,0,0,1,1.71-4.29l-1.42-1.42A8.723,8.723,0,0,0,16,54a8.855,8.855,0,0,0,1.52,4.77A2.655,2.655,0,0,1,17.97,60H13V48.88a6.964,6.964,0,0,1,4.91-6.68l7.07-2.21-3.74,4.36a1,1,0,0,0,.05,1.36l2.14,2.13-1.98,1.33a1,1,0,0,0-.19,1.5L29.74,60Zm3.55-9.81,2.03-1.36A.989.989,0,0,0,26,48.1a1.046,1.046,0,0,0-.29-.81l-2.35-2.34,4.02-4.69,3.05,17.52ZM32,55.16l-1.1-6.3a4.391,4.391,0,0,0,2.2,0Zm-1.49-8.57L29,37.91V34.56a10.447,10.447,0,0,0,6,0v3.35l-1.51,8.68A3.041,3.041,0,0,1,30.51,46.59Zm6.11-6.33,4.02,4.69-2.35,2.34a1.046,1.046,0,0,0-.29.81.989.989,0,0,0,.45.73l2.03,1.36-6.9,7.59ZM51,60H46.03a2.655,2.655,0,0,1,.45-1.23A8.855,8.855,0,0,0,48,54a8.723,8.723,0,0,0-2.29-5.71l-1.42,1.42A6.609,6.609,0,0,1,46,54a6.723,6.723,0,0,1-1.18,3.64A4.846,4.846,0,0,0,44.03,60H34.26l8.48-9.33a1,1,0,0,0-.19-1.5l-1.98-1.33,2.14-2.13a1,1,0,0,0,.05-1.36l-3.74-4.36,7.07,2.21A6.964,6.964,0,0,1,51,48.88Z"></path><circle cx="28" cy="21" r="2"></circle><circle cx="36" cy="21" r="2"></circle></g></svg>