<svg xmlns="http://www.w3.org/2000/svg" viewBox="0 0 64 64" x="0px" y="0px"><g><path d="M25,57V54.33c-.657-.129-1.309-.274-2-.439V57Z"></path><path d="M49.346,47.138c4.605-3.671,7.145-8.5,7.154-13.59v0c.026-7.379-5.3-14.116-13.682-17.438-.055.309-.127.612-.2.912-.005.017-.007.035-.012.051a11.851,11.851,0,0,1-1.3,3.074c-.029.048-.062.094-.091.142-.16.257-.326.509-.5.753-.054.074-.112.144-.168.217-.161.211-.326.418-.5.618-.074.084-.151.165-.227.248-.166.178-.334.354-.51.522-.091.088-.185.172-.279.257-.17.153-.343.3-.521.445-.107.086-.215.169-.325.251q-.262.2-.536.379L37.6,24H42v2H20V24h4.381A11.994,11.994,0,0,1,19,14a12.126,12.126,0,0,1,.095-1.457c.018-.15.048-.295.071-.444.033-.207.056-.418.1-.622A8.875,8.875,0,0,0,14,9.432V19.44a1,1,0,0,1-.419.815,16.625,16.625,0,0,0-6.009,7.557.987.987,0,0,1-.572.55V38.454a.982.982,0,0,1,.544.539,19.587,19.587,0,0,0,7.087,8.833,1,1,0,0,1,.411.693L16.316,59H20V52.37a1,1,0,0,1,1.241-.971l.381.095.046.012a.981.981,0,0,1,.65-.034,27.559,27.559,0,0,0,3.86.984.993.993,0,0,1,.259.1,31.662,31.662,0,0,0,5.008.428,32.488,32.488,0,0,0,6.8-.708,13.211,13.211,0,0,0,3.266-1.052.994.994,0,0,1,.951-.013c.065-.024.134-.042.2-.065A1,1,0,0,1,44,52.08V58h3.56l1.419-10.218A1,1,0,0,1,49.346,47.138ZM16.509,27.471a1.5,1.5,0,0,0-3,0h-2a3.5,3.5,0,0,1,7,0ZM47,24V22a6.006,6.006,0,0,1,6,6H51A4,4,0,0,0,47,24Z"></path><path d="M41,57V53.759c-.333.094-.66.2-1,.282V57Z"></path><polygon points="5 37.861 5 28.936 3 29.482 3 37.301 5 37.861"></polygon><path d="M21,14a10,10,0,0,0,19.982.664c.009-.2.018-.437.018-.664a10,10,0,0,0-19.654-2.61A9.839,9.839,0,0,0,21,14Zm15-1h2v2H36Zm-5,2a2.993,2.993,0,0,1-1-5.816V8h2V9.184A3,3,0,0,1,34,12H32a1,1,0,1,0-1,1,2.993,2.993,0,0,1,1,5.816V20H30V18.816A3,3,0,0,1,28,16h2a1,1,0,1,0,1-1Zm-8-2h2v2H23Z"></path><path d="M58.5,34.471v-2a1.5,1.5,0,0,0,1.5-1.5V28h2v2.971A3.5,3.5,0,0,1,58.5,34.471Z"></path></g></svg>