<svg xmlns="http://www.w3.org/2000/svg" viewBox="0 0 64 64" x="0px" y="0px"><path d="M60,11H58V9a2,2,0,0,0-2-2H38a7,7,0,0,0-6,3.413A7,7,0,0,0,26,7H8A2,2,0,0,0,6,9v2H4a2,2,0,0,0-2,2V55a2,2,0,0,0,2,2H60a2,2,0,0,0,2-2V13A2,2,0,0,0,60,11Zm0,2V51H58V13ZM8,45H26a4.977,4.977,0,0,1,3.974,2H12v2H30.9a5,5,0,0,1,.1,1v1H8Zm25,5a5,5,0,0,1,.1-1H52V47H34.026A4.977,4.977,0,0,1,38,45H56v6H33ZM38,9H56V43H38a6.973,6.973,0,0,0-5,2.111V14A5.006,5.006,0,0,1,38,9ZM26,9a5.006,5.006,0,0,1,5,5V45.111A6.973,6.973,0,0,0,26,43H8V9ZM4,13H6V51H4ZM4,53H31v2H4Zm56,2H33V53H60Z"></path><path d="M13,27H25a2,2,0,0,0,2-2V17a2,2,0,0,0-2-2H13a2,2,0,0,0-2,2v8A2,2,0,0,0,13,27Zm0-2V18.723l5.008,2.862a2,2,0,0,0,1.984,0L25,18.723,25,25Zm1.015-8h9.97L19,19.849Z"></path><rect x="12" y="31" width="4" height="2"></rect><rect x="18" y="31" width="8" height="2"></rect><rect x="12" y="35" width="14" height="2"></rect><rect x="38" y="15" width="2" height="2"></rect><rect x="42" y="15" width="10" height="2"></rect><rect x="38" y="19" width="14" height="2"></rect><rect x="38" y="27" width="14" height="2"></rect><rect x="38" y="31" width="14" height="2"></rect><rect x="38" y="35" width="10" height="2"></rect><rect x="38" y="23" width="8" height="2"></rect><rect x="48" y="23" width="4" height="2"></rect><rect x="50" y="35" width="2" height="2"></rect></svg>