<svg xmlns="http://www.w3.org/2000/svg" viewBox="0 0 64 64" x="0px" y="0px"><g data-name="Accountant"><rect x="17" y="19" width="2" height="2"></rect><rect x="27" y="19" width="2" height="2"></rect><path d="M27,25H25a2,2,0,0,1-4,0H19a4,4,0,0,0,8,0Z"></path><path d="M18,24a4,4,0,0,0,4-4,1,1,0,0,1,2,0,4.039,4.039,0,1,0,.8-2.381,2.941,2.941,0,0,0-3.61,0A3.994,3.994,0,1,0,18,24Zm10-6a2,2,0,1,1-2,2A2,2,0,0,1,28,18ZM18,18a2,2,0,1,1-2,2A2,2,0,0,1,18,18Z"></path><path d="M57,41H39a1,1,0,0,0-1,1V57a1,1,0,0,0,1,1H57a1,1,0,0,0,1-1V42A1,1,0,0,0,57,41Zm-1,5H52V43h4ZM46,51V48h4v3Zm4,2v3H46V53Zm-6-2H40V48h4Zm2-5V43h4v3Zm6,2h4v3H52Zm-8-5v3H40V43ZM40,53h4v3H40Zm12,3V53h4v3Z"></path><path d="M59,25H37a3,3,0,0,0-3,3V38.14l-6-1.875V32.786A11,11,0,0,0,34,23V22a3,3,0,0,0,0-6V13a11,11,0,0,0-22,0v3a3,3,0,0,0,0,6v1a11,11,0,0,0,6,9.786v3.479L9.723,38.854A10.943,10.943,0,0,0,2,49.35V61a1,1,0,0,0,1,1H59a3,3,0,0,0,3-3V28A3,3,0,0,0,59,25ZM21.826,60l-.6-3.1L22.88,44h.24l1.651,12.9-.6,3.1ZM15.208,39.234l.552-.173,1.519,7.881L13.227,43.7Zm4.28,2.668,1.458,1.458-.927,7.248L18.285,41.6ZM22.553,39.9a1,1,0,0,0,.894,0l.022-.012L24.586,41l-1,1H22.414l-1-1,1.117-1.117ZM26.512,41.9l1.2-.3-1.734,9.007-.927-7.248Zm6.261,1.8-4.052,3.241L30.24,39.06l.551.172ZM30.7,51.114,26.86,56.6l1.507-7.818ZM17.633,48.781,19.14,56.6,15.3,51.114Zm15.186,2.792a1,1,0,0,0-.112-1.28l-2.21-2.21,3.5-2.8V59a2.966,2.966,0,0,0,.184,1H26.921ZM34,41.534l-.669-1.508.669.209ZM28.319,38.46l-.188.975-1.825.457-.951-.951,1.732-.866ZM35,19a1,1,0,0,1-1,1V18A1,1,0,0,1,35,19ZM23,4a9.01,9.01,0,0,1,9,9v1H30.414l-2.707-2.707A1,1,0,0,0,26.4,11.2L22.667,14H14V13A9.01,9.01,0,0,1,23,4ZM11,19a1,1,0,0,1,1-1v2A1,1,0,0,1,11,19Zm3,4V16h9a1,1,0,0,0,.6-.2l3.306-2.48,2.387,2.387A1,1,0,0,0,30,16h2v7a9,9,0,0,1-18,0Zm9,11a10.966,10.966,0,0,0,3-.426v2.808l-3,1.5-3-1.5V33.574A10.966,10.966,0,0,0,23,34Zm-4.087,4.075,1.732.866-.951.951-1.825-.457-.188-.975ZM4,49.35a8.951,8.951,0,0,1,6.319-8.586l2.349-.735L11.086,43.6a1,1,0,0,0,.289,1.186l4.128,3.3-2.21,2.21a1,1,0,0,0-.112,1.28L19.079,60H11V48H9V60H4ZM60,59a1,1,0,0,1-1,1H37a1,1,0,0,1-1-1V28a1,1,0,0,1,1-1H59a1,1,0,0,1,1,1Z"></path><path d="M57,29H39a1,1,0,0,0-1,1v8a1,1,0,0,0,1,1H57a1,1,0,0,0,1-1V30A1,1,0,0,0,57,29Zm-1,8H40V31H56Z"></path><rect x="51" y="33" width="2" height="2"></rect><rect x="47" y="33" width="2" height="2"></rect><rect x="43" y="33" width="2" height="2"></rect></g></svg>