<svg xmlns="http://www.w3.org/2000/svg" viewBox="0 0 64 64" x="0px" y="0px"><g data-name="Hospital-Health Clinic-Building-Medical-Health"><path d="M61,28H48V24h1a1,1,0,0,0,1-1V19a1,1,0,0,0-1-1H42V12a1,1,0,0,0-1-1H23a1,1,0,0,0-1,1v6H15a1,1,0,0,0-1,1v4a1,1,0,0,0,1,1h1v4H3a1,1,0,0,0-1,1V61a1,1,0,0,0,1,1H61a1,1,0,0,0,1-1V29A1,1,0,0,0,61,28ZM16,60H4V30H16Zm8-47H40V29H24Zm-8,9V20h6v2ZM31,60H27V52h4Zm6,0H33V52h4Zm9,0H39V51a1,1,0,0,0-1-1H26a1,1,0,0,0-1,1v9H18V24h4v6a1,1,0,0,0,1,1H41a1,1,0,0,0,1-1V24h4ZM42,22V20h6v2ZM60,60H48V30H60Z"></path><path d="M37,18H35V16a1,1,0,0,0-1-1H30a1,1,0,0,0-1,1v2H27a1,1,0,0,0-1,1v4a1,1,0,0,0,1,1h2v2a1,1,0,0,0,1,1h4a1,1,0,0,0,1-1V24h2a1,1,0,0,0,1-1V19A1,1,0,0,0,37,18Zm-1,4H34a1,1,0,0,0-1,1v2H31V23a1,1,0,0,0-1-1H28V20h2a1,1,0,0,0,1-1V17h2v2a1,1,0,0,0,1,1h2Z"></path><rect x="21" y="34" width="2" height="2"></rect><rect x="25" y="34" width="2" height="2"></rect><rect x="29" y="34" width="2" height="2"></rect><rect x="33" y="34" width="2" height="2"></rect><rect x="37" y="34" width="2" height="2"></rect><rect x="41" y="34" width="2" height="2"></rect><rect x="21" y="38" width="2" height="2"></rect><rect x="25" y="38" width="2" height="2"></rect><rect x="29" y="38" width="2" height="2"></rect><rect x="33" y="38" width="2" height="2"></rect><rect x="37" y="38" width="2" height="2"></rect><rect x="41" y="38" width="2" height="2"></rect><rect x="51" y="34" width="2" height="2"></rect><rect x="55" y="34" width="2" height="2"></rect><rect x="51" y="38" width="2" height="2"></rect><rect x="55" y="38" width="2" height="2"></rect><rect x="51" y="42" width="2" height="2"></rect><rect x="55" y="42" width="2" height="2"></rect><rect x="51" y="46" width="2" height="2"></rect><rect x="55" y="46" width="2" height="2"></rect><rect x="51" y="50" width="2" height="2"></rect><rect x="55" y="50" width="2" height="2"></rect><rect x="51" y="54" width="2" height="2"></rect><rect x="55" y="54" width="2" height="2"></rect><rect x="7" y="34" width="2" height="2"></rect><rect x="11" y="34" width="2" height="2"></rect><rect x="7" y="38" width="2" height="2"></rect><rect x="11" y="38" width="2" height="2"></rect><rect x="7" y="42" width="2" height="2"></rect><rect x="11" y="42" width="2" height="2"></rect><rect x="7" y="46" width="2" height="2"></rect><rect x="11" y="46" width="2" height="2"></rect><rect x="7" y="54" width="2" height="2"></rect><rect x="11" y="54" width="2" height="2"></rect><rect x="7" y="50" width="2" height="2"></rect><rect x="11" y="50" width="2" height="2"></rect><rect x="21" y="42" width="2" height="2"></rect><rect x="25" y="42" width="2" height="2"></rect><rect x="29" y="42" width="2" height="2"></rect><rect x="33" y="42" width="2" height="2"></rect><rect x="37" y="42" width="2" height="2"></rect><rect x="41" y="42" width="2" height="2"></rect><rect x="21" y="46" width="2" height="2"></rect><rect x="25" y="46" width="2" height="2"></rect><rect x="29" y="46" width="2" height="2"></rect><rect x="33" y="46" width="2" height="2"></rect><rect x="37" y="46" width="2" height="2"></rect><rect x="41" y="46" width="2" height="2"></rect></g></svg>