<svg xmlns="http://www.w3.org/2000/svg" viewBox="0 0 64 64" x="0px" y="0px"><g><path d="M61.923,56.615,57,44.8V21.9A5.009,5.009,0,0,0,61,17V11a1,1,0,0,0-.293-.707l-8-8A1,1,0,0,0,52,2H12a1,1,0,0,0-.707.293l-8,8A1,1,0,0,0,3,11v6a5.009,5.009,0,0,0,4,4.9V44.8L2.077,56.615A1,1,0,0,0,2,57v3a2,2,0,0,0,2,2H60a2,2,0,0,0,2-2V57A1,1,0,0,0,61.923,56.615ZM40.618,56,38.9,52.553A1,1,0,0,0,38,52H26a1,1,0,0,0-.895.553L23.382,56H4.5L8.667,46H55.333L59.5,56Zm-2.236,0H25.618l1-2H37.382ZM12,19.969a4.954,4.954,0,0,0,8,0,4.954,4.954,0,0,0,8,0,4.954,4.954,0,0,0,8,0,4.954,4.954,0,0,0,8,0,4.954,4.954,0,0,0,8,0,4.994,4.994,0,0,0,3,1.93V44H38V29a1,1,0,0,0-1-1H27a1,1,0,0,0-1,1V44H9V21.9A4.994,4.994,0,0,0,12,19.969ZM36,44H28V30h8ZM12.414,4H51.586l6,6H6.414ZM5,17V12H59v5a3,3,0,0,1-6,0H51a3,3,0,0,1-6,0H43a3,3,0,0,1-6,0H35a3,3,0,0,1-6,0H27a3,3,0,0,1-6,0H19a3,3,0,0,1-6,0H11a3,3,0,0,1-6,0ZM4,60V58H60v2Z"></path><rect x="10" y="52" width="2" height="2"></rect><rect x="14" y="52" width="2" height="2"></rect><rect x="48" y="52" width="2" height="2"></rect><rect x="52" y="52" width="2" height="2"></rect><rect x="15" y="48" width="2" height="2"></rect><rect x="11" y="48" width="2" height="2"></rect><rect x="19" y="48" width="2" height="2"></rect><rect x="23" y="48" width="2" height="2"></rect><rect x="27" y="48" width="2" height="2"></rect><rect x="31" y="48" width="2" height="2"></rect><rect x="35" y="48" width="2" height="2"></rect><rect x="39" y="48" width="2" height="2"></rect><rect x="43" y="48" width="2" height="2"></rect><rect x="47" y="48" width="2" height="2"></rect><rect x="51" y="48" width="2" height="2"></rect><rect x="18" y="52" width="4" height="2"></rect><rect x="42" y="52" width="4" height="2"></rect><path d="M41,38H51a1,1,0,0,0,1-1V29a1,1,0,0,0-1-1H41a1,1,0,0,0-1,1v8A1,1,0,0,0,41,38Zm1-8h8v6H42Z"></path><path d="M13,38H23a1,1,0,0,0,1-1V29a1,1,0,0,0-1-1H13a1,1,0,0,0-1,1v8A1,1,0,0,0,13,38Zm1-8h8v6H14Z"></path></g></svg>