<svg xmlns="http://www.w3.org/2000/svg" viewBox="0 0 64 64" x="0px" y="0px"><g data-name="Audio Book-Ebook-Elearning-Smartphone-Study"><path d="M31,29.03V7a3.009,3.009,0,0,0-3-3H17V28H28A4.924,4.924,0,0,1,31,29.03ZM19,7H29V9H19Zm0,4H29v2H19Zm0,4H29v2H19Zm0,4H29v2H19Zm0,4H29v2H19Z"></path><rect x="13" y="8" width="2" height="24"></rect><path d="M17,32H30.83A3.014,3.014,0,0,0,28,30H17Z"></path><path d="M22,53a6,6,0,1,0-6-6A6.006,6.006,0,0,0,22,53Zm-3-8.131a2,2,0,0,1,3.11-1.664l3.2,2.131a2,2,0,0,1,0,3.328l-3.2,2.131A2,2,0,0,1,19,49.131Z"></path><path d="M4,56a4,4,0,0,0,4,4h2V24H8a4,4,0,0,0-4,4ZM6,37H8v6H6Zm0,8H8v2H6Z"></path><polygon points="24.197 47 21 44.869 21 49.138 24.197 47"></polygon><path d="M60,28a4,4,0,0,0-4-4H54V60h2a4,4,0,0,0,4-4ZM58,43H56V41h2Z"></path><circle cx="39" cy="47" r="1"></circle><path d="M12,60H52V34H12ZM32,46h4.184a2.982,2.982,0,0,1,5.632,0H50v2H41.816a2.982,2.982,0,0,1-5.632,0H32ZM22,39a8,8,0,1,1-8,8A8.009,8.009,0,0,1,22,39Z"></path><rect x="49" y="8" width="2" height="24"></rect><path d="M33,29.03A4.924,4.924,0,0,1,36,28H47V4H36a3.009,3.009,0,0,0-3,3ZM35,7H45V9H35Zm0,4H45v2H35Zm0,4H45v2H35Zm0,4H45v2H35Zm0,4H45v2H35Z"></path><path d="M33.17,32H47V30H36A3.014,3.014,0,0,0,33.17,32Z"></path></g></svg>