<svg xmlns="http://www.w3.org/2000/svg" viewBox="0 0 64 64" x="0px" y="0px"><g data-name="Cloud-Padlock-Cloud Computing-Data-Storage"><path d="M31,43v1h2V43a1,1,0,0,0-2,0Z"></path><path d="M29,43a3,3,0,0,1,6,0v1h2V43a5,5,0,0,0-10,0v1h2Z"></path><path d="M50.83,20.17a1.007,1.007,0,0,1-.84-.99c0-.03.01-.14.01-.17a8.008,8.008,0,0,0-10.35-7.66.984.984,0,0,1-1.18-.48A13,13,0,0,0,14,17a12.177,12.177,0,0,0,.17,2,1.021,1.021,0,0,1-.18.74,1,1,0,0,1-.66.4A10.993,10.993,0,0,0,15,42h1.53a15.972,15.972,0,0,1,30.94,0H49a10.991,10.991,0,0,0,1.83-21.83ZM27,9a8.009,8.009,0,0,0-8,8H17A10.011,10.011,0,0,1,27,7ZM49,39V37a6.006,6.006,0,0,0,6-6h2A8.009,8.009,0,0,1,49,39Z"></path><path d="M32,32A14,14,0,1,0,46,46,14.015,14.015,0,0,0,32,32Zm8,23a1,1,0,0,1-1,1H25a1,1,0,0,1-1-1V45a1,1,0,0,1,1-1V43a7,7,0,0,1,14,0v1a1,1,0,0,1,1,1Z"></path><path d="M26,54H38V46H26Zm4-6h4v2H33v2H31V50H30Z"></path></g></svg>