<svg xmlns="http://www.w3.org/2000/svg" viewBox="0 0 64 64" x="0px" y="0px"><g><circle cx="36" cy="5" r="2"></circle><rect x="8" y="23" width="2" height="27"></rect><polygon points="9.923 52 8.077 52 9 54.308 9.923 52"></polygon><path d="M10,20a1,1,0,0,0-2,0v1h2Z"></path><path d="M25,41h2v5.219l2.693.674L31,45.586V45h2v1a1,1,0,0,1-.293.707L31.144,48.27,31.721,50h1.865L35,48.586V27.414L33.586,26H31.721l-.577,1.73,1.563,1.563A1,1,0,0,1,33,30v1H31v-.586L29.586,29H27.414L26,30.414v3.172l1.707,1.707A1,1,0,0,1,28,36v1H26v-.586l-.845-.844L24,37.3v4.283l1,1Zm6-5.414V33h2v3a1,1,0,0,1-.293.707l-2,2-1.414-1.414ZM29,42a1,1,0,0,1,.293-.707l1-1,1.414,1.414L31,42.414V44H29Z"></path><path d="M56,13a3,3,0,0,0-3-3H49v2h2a3,3,0,0,1,3,3V55a3,3,0,0,1-3,3H21a3,3,0,0,1-3-3V15a3,3,0,0,1,3-3h2V10H19a3,3,0,0,0-3,3V57a3,3,0,0,0,3,3H53a3,3,0,0,0,3-3Z"></path><path d="M40.279,50l.577-1.73-1.563-1.563A1,1,0,0,1,39,46V45h2v.586l1.307,1.307L45,46.219V41h2v1.586l1-1V37.3L46.845,35.57,46,36.414V37H44V36a1,1,0,0,1,.293-.707L46,33.586V30.414L44.586,29H42.414L41,30.414V31H39V30a1,1,0,0,1,.293-.707l1.563-1.563L40.279,26H38.414L37,27.414V48.586L38.414,50ZM43,44H41V42.414l-.707-.707,1.414-1.414,1,1A1,1,0,0,1,43,42ZM39,33h2v2.586l1.707,1.707-1.414,1.414-2-2A1,1,0,0,1,39,36Z"></path><path d="M46,14a1,1,0,0,0,1-1V8H25v5a1,1,0,0,0,1,1Z"></path><path d="M23.184,14H21a1,1,0,0,0-1,1V55a1,1,0,0,0,1,1H51a1,1,0,0,0,1-1V15a1,1,0,0,0-1-1H48.816A3,3,0,0,1,46,16H26A3,3,0,0,1,23.184,14ZM39,19h2v2H39Zm-4,0h2v2H35Zm-4,0h2v2H31ZM24,30a1,1,0,0,1,.293-.707l2-2A1,1,0,0,1,27,27h2.279l.773-2.316A1,1,0,0,1,31,24h3a1,1,0,0,1,.707.293L36,25.586l1.293-1.293A1,1,0,0,1,38,24h3a1,1,0,0,1,.948.684L42.721,27H45a1,1,0,0,1,.707.293l2,2A1,1,0,0,1,48,30v3.7l1.832,2.748A1.006,1.006,0,0,1,50,37v5a1,1,0,0,1-.293.707L47,45.414V47a1,1,0,0,1-.758.97l-3.467.867-.827,2.479A1,1,0,0,1,41,52H38a1,1,0,0,1-.707-.293L36,50.414l-1.293,1.293A1,1,0,0,1,34,52H31a1,1,0,0,1-.948-.684l-.827-2.479-3.467-.867A1,1,0,0,1,25,47V45.414l-2.707-2.707A1,1,0,0,1,22,42V37a1.006,1.006,0,0,1,.168-.555L24,33.7Z"></path></g></svg>