<svg xmlns="http://www.w3.org/2000/svg" viewBox="0 0 64 64" x="0px" y="0px"><title>Soccer-Football-Field-Stadium</title><g><path d="M61,14H3a1,1,0,0,0-1,1V49a1,1,0,0,0,1,1H61a1,1,0,0,0,1-1V15A1,1,0,0,0,61,14ZM56.1,48H33V38.92a6.991,6.991,0,0,0,0-13.84V16H56.1A5.016,5.016,0,0,0,60,19.9V23H53a1,1,0,0,0-1,1v4.142a3.981,3.981,0,0,0,0,7.716V40a1,1,0,0,0,1,1h7v3.1A5.016,5.016,0,0,0,56.1,48ZM4,44.1V41h7a1,1,0,0,0,1-1V35.858a3.981,3.981,0,0,0,0-7.716V24a1,1,0,0,0-1-1H4V19.9A5.016,5.016,0,0,0,7.9,16H31v9.08a6.991,6.991,0,0,0,0,13.84V48H7.9A5.016,5.016,0,0,0,4,44.1ZM4,37H7a1,1,0,0,0,1-1V28a1,1,0,0,0-1-1H4V25h6V39H4Zm0-2V29H6v6Zm8-4.722a1.983,1.983,0,0,1,0,3.444ZM31,36.9a5,5,0,0,1,0-9.8Zm2-9.8a5,5,0,0,1,0,9.8Zm19,6.621a1.983,1.983,0,0,1,0-3.444ZM54,39V25h6v2H57a1,1,0,0,0-1,1v8a1,1,0,0,0,1,1h3v2Zm6-10v6H58V29Zm0-11.184A3,3,0,0,1,58.184,16H60ZM5.816,16A3,3,0,0,1,4,17.816V16ZM4,46.184A3,3,0,0,1,5.816,48H4ZM58.184,48A3,3,0,0,1,60,46.184V48Z"></path><path d="M28,10h8a3,3,0,0,0,3-3V5a1,1,0,0,0-1-1H26a1,1,0,0,0-1,1V7A3,3,0,0,0,28,10ZM27,6H37V7a1,1,0,0,1-1,1H28a1,1,0,0,1-1-1Z"></path><rect x="41" y="6" width="2" height="2"></rect><rect x="45" y="6" width="2" height="2"></rect><rect x="49" y="6" width="2" height="2"></rect><rect x="53" y="6" width="2" height="2"></rect><rect x="21" y="6" width="2" height="2"></rect><rect x="17" y="6" width="2" height="2"></rect><rect x="13" y="6" width="2" height="2"></rect><rect x="9" y="6" width="2" height="2"></rect><path d="M36,54H28a3,3,0,0,0-3,3v2a1,1,0,0,0,1,1H38a1,1,0,0,0,1-1V57A3,3,0,0,0,36,54Zm1,4H27V57a1,1,0,0,1,1-1h8a1,1,0,0,1,1,1Z"></path><rect x="41" y="56" width="2" height="2"></rect><rect x="45" y="56" width="2" height="2"></rect><rect x="49" y="56" width="2" height="2"></rect><rect x="53" y="56" width="2" height="2"></rect><rect x="21" y="56" width="2" height="2"></rect><rect x="17" y="56" width="2" height="2"></rect><rect x="13" y="56" width="2" height="2"></rect><rect x="9" y="56" width="2" height="2"></rect></g></svg>