<svg xmlns="http://www.w3.org/2000/svg" viewBox="0 0 64 64" x="0px" y="0px"><g><circle cx="32" cy="6" r="3"></circle><path d="M13,10H11V6a1,1,0,0,1,1-1H27V7H13Z"></path><path d="M53,10H51V7H37V5H52a1,1,0,0,1,1,1Z"></path><rect x="50" y="14" width="4" height="4"></rect><path d="M57,26H7V59a1,1,0,0,0,1,1H56a1,1,0,0,0,1-1ZM15,32H13v2H11V32H9V30h2V28h2v2h2ZM32,57A14,14,0,1,1,46,43,14.015,14.015,0,0,1,32,57ZM55,32H49V30h6Z"></path><path d="M32,31A12,12,0,1,0,44,43,12.013,12.013,0,0,0,32,31Zm6.781,12.625-8,10a1,1,0,0,1-1.758-.842l1.831-8.238-5.3-2.65a1,1,0,0,1-.217-1.643l9-8a1,1,0,0,1,1.583,1.142l-2.628,6.133,5.156,2.578a1,1,0,0,1,.334,1.52Z"></path><rect x="10" y="14" width="4" height="4"></rect><rect x="4" y="20" width="56" height="4"></rect><path d="M31.081,39.606l1.235-2.882-4.547,4.042,4.678,2.339a1,1,0,0,1,.53,1.112l-1.066,4.794,4.535-5.67L31.553,40.9A1,1,0,0,1,31.081,39.606Z"></path></g></svg>