<svg xmlns="http://www.w3.org/2000/svg" viewBox="0 0 64 64" x="0px" y="0px"><g data-name="Check Point"><path d="M61.22,45A2.987,2.987,0,0,0,59,40H54V16h4a1,1,0,0,0,1-1V3a1,1,0,0,0-1-1H6A1,1,0,0,0,5,3V15a1,1,0,0,0,1,1h4V40H5a2.987,2.987,0,0,0-2.22,5,2.954,2.954,0,0,0,0,4,2.954,2.954,0,0,0,0,4,2.954,2.954,0,0,0,0,4A2.987,2.987,0,0,0,5,62h6a2.987,2.987,0,0,0,2.22-5,2.954,2.954,0,0,0,0-4,2.954,2.954,0,0,0,0-4,2.954,2.954,0,0,0,0-4,2.908,2.908,0,0,0,.6-3h.368a2.908,2.908,0,0,0,.6,3,2.954,2.954,0,0,0,0,4,2.954,2.954,0,0,0,0,4,2.954,2.954,0,0,0,0,4A2.987,2.987,0,0,0,17,62h6a2.987,2.987,0,0,0,2.22-5,2.954,2.954,0,0,0,0-4,2.954,2.954,0,0,0,0-4,2.954,2.954,0,0,0,0-4,2.908,2.908,0,0,0,.6-3h.368a2.908,2.908,0,0,0,.6,3,2.954,2.954,0,0,0,0,4,2.954,2.954,0,0,0,0,4,2.954,2.954,0,0,0,0,4A2.987,2.987,0,0,0,29,62h6a2.987,2.987,0,0,0,2.22-5,2.954,2.954,0,0,0,0-4,2.954,2.954,0,0,0,0-4,2.954,2.954,0,0,0,0-4,2.908,2.908,0,0,0,.6-3h.368a2.908,2.908,0,0,0,.6,3,2.954,2.954,0,0,0,0,4,2.954,2.954,0,0,0,0,4,2.954,2.954,0,0,0,0,4A2.987,2.987,0,0,0,41,62h6a2.987,2.987,0,0,0,2.22-5,2.954,2.954,0,0,0,0-4,2.954,2.954,0,0,0,0-4,2.954,2.954,0,0,0,0-4,2.908,2.908,0,0,0,.6-3h.368a2.908,2.908,0,0,0,.6,3,2.954,2.954,0,0,0,0,4,2.954,2.954,0,0,0,0,4,2.954,2.954,0,0,0,0,4A2.987,2.987,0,0,0,53,62h6a2.987,2.987,0,0,0,2.22-5,2.954,2.954,0,0,0,0-4,2.954,2.954,0,0,0,0-4,2.954,2.954,0,0,0,0-4ZM60,51a1,1,0,0,1-1,1H53a1,1,0,0,1,0-2h6A1,1,0,0,1,60,51Zm0,4a1,1,0,0,1-1,1H53a1,1,0,0,1,0-2h6A1,1,0,0,1,60,55Zm-7-7a1,1,0,0,1,0-2h6a1,1,0,0,1,0,2ZM7,4H9V6a1,1,0,0,0,.293.707l2,2,1.414-1.414L11,5.586V4h6.4L19.1,7.444A1,1,0,0,0,20,8h1.586l1.707,1.707,1.414-1.414-2-2A1,1,0,0,0,22,6H20.62l-.991-2H26V6h2V4H57v9.586l-1-1V11H54v2a1,1,0,0,0,.293.707l.293.293H52.744V13h-2v1h-4.8L46,12.029a1,1,0,0,0-.553-.924l-2-1-.894,1.79,1.428.714L43.941,14H38V12.414l1.707-1.707L38.293,9.293l-2,2A1,1,0,0,0,36,12v2H31.43L28,10.57V9H26v1.984a1,1,0,0,0,.293.707L28.6,14H23V13h2V11H22a1,1,0,0,0-1,1v2H9.868l.964-1.445A1.006,1.006,0,0,0,11,12V10H9v1.7L7.465,14H7ZM52,16V40H12V16ZM12,47a1,1,0,0,1-1,1H5a1,1,0,0,1,0-2h6A1,1,0,0,1,12,47Zm0,4a1,1,0,0,1-1,1H5a1,1,0,0,1,0-2h6A1,1,0,0,1,12,51Zm0,4a1,1,0,0,1-1,1H5a1,1,0,0,1,0-2h6A1,1,0,0,1,12,55Zm-1,5H5a1,1,0,0,1,0-2h6a1,1,0,0,1,0,2Zm1-17a1,1,0,0,1-1,1H5a1,1,0,0,1,0-2h6A1,1,0,0,1,12,43Zm12,4a1,1,0,0,1-1,1H17a1,1,0,0,1,0-2h6A1,1,0,0,1,24,47Zm0,4a1,1,0,0,1-1,1H17a1,1,0,0,1,0-2h6A1,1,0,0,1,24,51Zm0,4a1,1,0,0,1-1,1H17a1,1,0,0,1,0-2h6A1,1,0,0,1,24,55Zm-1,5H17a1,1,0,0,1,0-2h6a1,1,0,0,1,0,2Zm1-17a1,1,0,0,1-1,1H17a1,1,0,0,1,0-2h6A1,1,0,0,1,24,43Zm12,4a1,1,0,0,1-1,1H29a1,1,0,0,1,0-2h6A1,1,0,0,1,36,47Zm0,4a1,1,0,0,1-1,1H29a1,1,0,0,1,0-2h6A1,1,0,0,1,36,51Zm0,4a1,1,0,0,1-1,1H29a1,1,0,0,1,0-2h6A1,1,0,0,1,36,55Zm-1,5H29a1,1,0,0,1,0-2h6a1,1,0,0,1,0,2Zm1-17a1,1,0,0,1-1,1H29a1,1,0,0,1,0-2h6A1,1,0,0,1,36,43Zm12,4a1,1,0,0,1-1,1H41a1,1,0,0,1,0-2h6A1,1,0,0,1,48,47Zm0,4a1,1,0,0,1-1,1H41a1,1,0,0,1,0-2h6A1,1,0,0,1,48,51Zm0,4a1,1,0,0,1-1,1H41a1,1,0,0,1,0-2h6A1,1,0,0,1,48,55Zm-1,5H41a1,1,0,0,1,0-2h6a1,1,0,0,1,0,2Zm1-17a1,1,0,0,1-1,1H41a1,1,0,0,1,0-2h6A1,1,0,0,1,48,43Zm11-1a1,1,0,0,1,0,2H53a1,1,0,0,1,0-2Zm0,18H53a1,1,0,0,1,0-2h6a1,1,0,0,1,0,2Z"></path><path d="M15,33H49a1,1,0,0,0,1-1V21a1,1,0,0,0-1-1H15a1,1,0,0,0-1,1V32A1,1,0,0,0,15,33Zm1-11H48v9H16Z"></path><path d="M18,11V9H16v1H13v2h4A1,1,0,0,0,18,11Z"></path><path d="M32,10h1.586l1.207,1.207,1.414-1.414-1.5-1.5A1,1,0,0,0,34,8H32.414L30.707,6.293,29.293,7.707l2,2A1,1,0,0,0,32,10Z"></path><path d="M38.358,8.49l3.5.5.284-1.98-3.17-.452L36.707,4.293,35.293,5.707l2.5,2.5A1,1,0,0,0,38.358,8.49Z"></path><path d="M51.414,9,49.707,7.293A1,1,0,0,0,49,7H46V9h2.586l1.707,1.707A1,1,0,0,0,51,11h3V9Z"></path><path d="M53.447,6.9l2-1-.894-1.79L52.764,5H51V7h2A1,1,0,0,0,53.447,6.9Z"></path></g></svg>