<svg xmlns="http://www.w3.org/2000/svg" data-name="Cloud-Cloud Computing-Filter-Data-Storage" viewBox="0 0 64 64" x="0px" y="0px"><path d="M30.65,49.24A1.011,1.011,0,0,1,31,50v4.38l2-1V50a1.011,1.011,0,0,1,.35-.76L38.3,45H25.7Z"></path><rect x="24" y="41" width="16" height="2"></rect><path d="M50.83,20.17a1.007,1.007,0,0,1-.84-.99c0-.03.01-.14.01-.17a8.008,8.008,0,0,0-10.35-7.66.984.984,0,0,1-1.18-.48A13,13,0,0,0,14,17a12.177,12.177,0,0,0,.17,2,1.021,1.021,0,0,1-.18.74,1,1,0,0,1-.66.4A10.993,10.993,0,0,0,15,42h1.53a15.972,15.972,0,0,1,30.94,0H49a10.991,10.991,0,0,0,1.83-21.83ZM27,9a8.009,8.009,0,0,0-8,8H17A10.011,10.011,0,0,1,27,7ZM49,39V37a6.006,6.006,0,0,0,6-6h2A8.009,8.009,0,0,1,49,39Z"></path><path d="M32,32A14,14,0,1,0,46,46,14.015,14.015,0,0,0,32,32Zm9.65,12.76L35,50.46V54a.988.988,0,0,1-.55.89l-4,2A1.03,1.03,0,0,1,30,57a1.014,1.014,0,0,1-.53-.15A1,1,0,0,1,29,56V50.46l-6.65-5.7A1.011,1.011,0,0,1,22,44V40a1,1,0,0,1,1-1H41a1,1,0,0,1,1,1v4A1.011,1.011,0,0,1,41.65,44.76Z"></path></svg>