<svg xmlns="http://www.w3.org/2000/svg" viewBox="0 0 64 64" x="0px" y="0px"><g data-name="Valve-Pipes-Industry-Water-Gas Pipe"><rect x="19" y="41" width="4" height="12"></rect><circle cx="18" cy="10" r="2"></circle><path d="M15,38a2.006,2.006,0,0,0-2,2V54a2,2,0,0,0,4,0V40A2.006,2.006,0,0,0,15,38Z"></path><circle cx="32" cy="10" r="2"></circle><path d="M49,38a2.006,2.006,0,0,0-2,2V54a2,2,0,0,0,4,0V40A2.006,2.006,0,0,0,49,38Z"></path><path d="M61,53V41H53V53ZM55,43h4v2H55Z"></path><path d="M25,53.31A25.213,25.213,0,0,0,32,55a25.125,25.125,0,0,0,7-1.69V36H25ZM27.444,50.1A11.325,11.325,0,0,0,32,51a11.113,11.113,0,0,0,4.553-.9l.894,1.79A13.128,13.128,0,0,1,32,53a13.128,13.128,0,0,1-5.447-1.1Z"></path><rect x="41" y="41" width="4" height="12"></rect><path d="M42,32a2.006,2.006,0,0,0-2-2H24a2,2,0,0,0,0,4H40A2.006,2.006,0,0,0,42,32Z"></path><path d="M11,53V41H3V53ZM5,43H7v2H5Z"></path><path d="M36,10a3.906,3.906,0,0,1-.56,2h7.12A3.906,3.906,0,0,1,42,10Z"></path><path d="M22,10a3.906,3.906,0,0,1-.56,2h7.12A3.906,3.906,0,0,1,28,10Z"></path><rect x="30" y="18" width="4" height="4"></rect><rect x="28" y="14" width="8" height="2"></rect><circle cx="46" cy="10" r="2"></circle><rect x="28" y="24" width="8" height="4"></rect></g></svg>