<svg xmlns="http://www.w3.org/2000/svg" viewBox="0 0 64 64" x="0px" y="0px"><g data-name="Barrier-Security-Traffic Barrier-Street-Signs"><path d="M62.28,22.09l-1.94-7.76a1,1,0,0,0-1.21-.73L18.21,23.8A6.99,6.99,0,0,0,5,27v3.03a4.862,4.862,0,0,0,0,2.01V54a3.009,3.009,0,0,0-3,3v4a1,1,0,0,0,1,1H21a1,1,0,0,0,1-1V57a3.009,3.009,0,0,0-3-3V33.91L61.55,23.3a.96.96,0,0,0,.61-.45A1.014,1.014,0,0,0,62.28,22.09ZM12,22a4.972,4.972,0,0,1,4.19,2.31L8.67,26.18A4.994,4.994,0,0,0,7,26.95,5.011,5.011,0,0,1,12,22Zm8,35v3H4V57a1,1,0,0,1,1-1H19A1,1,0,0,1,20,57ZM17,40v2H7V40ZM7,38V35.1a4.933,4.933,0,0,0,4.09.78L17,34.41V38Zm10,6V54H7V44Zm6.52-13.28L10.61,33.94a3,3,0,1,1-1.45-5.82l15.09-3.76Zm5.82-1.45-3.75.94.73-6.37,3.75-.93Zm5.82-1.45-3.75.94.73-6.37,3.75-.93Zm5.82-1.45-3.75.93.74-6.36L41.72,20Zm5.83-1.45-3.75.93.73-6.36,3.75-.94Zm5.82-1.45-3.75.93.73-6.36,3.75-.94Zm2.07-.52.73-6.37,3.21-.8,1.45,5.82Z"></path><rect x="9" y="30" width="2" height="2"></rect><rect x="31.841" y="31.5" width="14.318" height="2.001" transform="translate(-5.942 8.888) rotate(-12.089)"></rect><rect x="31.841" y="35.5" width="14.318" height="2.001" transform="translate(-6.779 8.977) rotate(-12.089)"></rect><rect x="31.841" y="10.5" width="14.318" height="2.001" transform="translate(-1.545 8.442) rotate(-12.116)"></rect><rect x="31.841" y="14.5" width="14.318" height="2.001" transform="translate(-2.385 8.531) rotate(-12.116)"></rect></g></svg>