<svg xmlns="http://www.w3.org/2000/svg" viewBox="0 0 64 64" x="0px" y="0px"><g data-name="Mobile Programming"><path d="M45,2H19a5.006,5.006,0,0,0-5,5V57a5.006,5.006,0,0,0,5,5H45a5.006,5.006,0,0,0,5-5V7A5.006,5.006,0,0,0,45,2ZM19,4H45a3,3,0,0,1,3,3v3H16V7A3,3,0,0,1,19,4Zm29,8V52H16V12ZM45,60H19a3,3,0,0,1-3-3V54H48v3A3,3,0,0,1,45,60Z"></path><rect x="29" y="56" width="6" height="2"></rect><rect x="20" y="6" width="2" height="2"></rect><rect x="24" y="6" width="4" height="2"></rect><rect x="23" y="24" width="2" height="2"></rect><rect x="27" y="24" width="6" height="2"></rect><rect x="25" y="28" width="4" height="2"></rect><rect x="31" y="28" width="4" height="2"></rect><rect x="27" y="32" width="12" height="2"></rect><rect x="25" y="36" width="6" height="2"></rect><rect x="33" y="36" width="4" height="2"></rect><rect x="29" y="40" width="2" height="2"></rect><rect x="33" y="40" width="8" height="2"></rect><rect x="28" y="44" width="10" height="2"></rect><path d="M20.293,18.707l2,2,1.414-1.414L22.414,18l1.293-1.293-1.414-1.414-2,2A1,1,0,0,0,20.293,18.707Z"></path><path d="M28.707,20.707l2-2a1,1,0,0,0,0-1.414l-2-2-1.414,1.414L28.586,18l-1.293,1.293Z"></path></g></svg>