<svg xmlns="http://www.w3.org/2000/svg" viewBox="0 0 64 64" x="0px" y="0px"><g data-name="Space Capsule"><path d="M28.883,40,27.006,23.11A1,1,0,0,1,27,23a2.993,2.993,0,0,0-5.982-.173L28.65,40Z"></path><rect x="27" y="42" width="2" height="2"></rect><path d="M21.618,54H26V49a1,1,0,0,1,1-1H37a1,1,0,0,1,1,1v5h4.382l-4-8H25.618Z"></path><rect x="28" y="50" width="8" height="4"></rect><path d="M16,18a4.991,4.991,0,0,1,4.006,2.024,4.956,4.956,0,0,1,8,0,4.955,4.955,0,0,1,8,0,4.954,4.954,0,0,1,8,0,4.913,4.913,0,0,1,6.488-1.342,18.979,18.979,0,0,0-36.976,0A4.946,4.946,0,0,1,16,18Z"></path><path d="M35,22.948a3,3,0,0,0-6,.024L30.9,40H33.1Z"></path><path d="M26.424,39.916l-7.338-16.51A1,1,0,0,1,19,23a3,3,0,0,0-5.983-.321Z"></path><path d="M22,60H42a1,1,0,0,0,1-1V56H21v3A1,1,0,0,0,22,60Z"></path><path d="M48,20a3,3,0,0,0-3,3,1,1,0,0,1-.086.406l-7.338,16.51L50.983,22.679A3,3,0,0,0,48,20Z"></path><rect x="31" y="42" width="2" height="2"></rect><path d="M40,20a3,3,0,0,0-3,3,1,1,0,0,1-.006.11L35.117,40h.233l7.644-17.2A3,3,0,0,0,40,20Z"></path><rect x="35" y="42" width="2" height="2"></rect><rect x="54" y="36" width="2" height="14"></rect><rect x="54" y="32" width="2" height="2"></rect><rect x="54" y="28" width="2" height="2"></rect><rect x="60" y="24" width="2" height="20"></rect><rect x="60" y="20" width="2" height="2"></rect><rect x="60" y="16" width="2" height="2"></rect><rect x="60" y="12" width="2" height="2"></rect><rect x="8" y="36" width="2" height="14"></rect><rect x="8" y="32" width="2" height="2"></rect><rect x="8" y="28" width="2" height="2"></rect><rect x="2" y="24" width="2" height="20"></rect><rect x="2" y="20" width="2" height="2"></rect><rect x="2" y="16" width="2" height="2"></rect><rect x="2" y="12" width="2" height="2"></rect></g></svg>