<svg xmlns="http://www.w3.org/2000/svg" viewBox="0 0 64 64" x="0px" y="0px"><g><path d="M55,57V55H53v2a1,1,0,0,0,2,0Z"></path><path d="M56,49a1,1,0,0,0-1,1,1,1,0,0,1-2,0,1,1,0,0,0-1-1,.988.988,0,0,0-.966.832L52.618,53h2.764l1.584-3.168A.988.988,0,0,0,56,49Z"></path><path d="M57,19a3,3,0,0,0-6,0v1h6Z"></path><rect x="51" y="22" width="6" height="1"></rect><path d="M57,25H51V47.184a2.846,2.846,0,0,1,2,0V27h2V47.179a2.846,2.846,0,0,1,2,0Z"></path><polygon points="25.721 42 26.279 42 26.613 41 25.387 41 25.721 42"></polygon><path d="M45,17a3,3,0,0,0-3-3H38.576A4.95,4.95,0,0,1,39,16h2a2,2,0,0,1,2,2V56a2,2,0,0,1-2,2H16a7.008,7.008,0,0,1-7-7V18a2,2,0,0,1,2-2h2a4.95,4.95,0,0,1,.424-2H10a3,3,0,0,0-3,3V57a3,3,0,0,0,3,3H42a3,3,0,0,0,3-3Z"></path><path d="M33.382,41l-2-4H31v3a.982.982,0,0,1-.469.826l.087.174Z"></path><path d="M15,17H37V16a3,3,0,0,0-3-3H31a1,1,0,0,1-1-1V7a3,3,0,0,0-3-3H25a3,3,0,0,0-3,3v5a1,1,0,0,1-1,1H18a3,3,0,0,0-3,3ZM26,6a3,3,0,1,1-3,3A3,3,0,0,1,26,6Z"></path><circle cx="26" cy="9" r="1"></circle><rect x="15" y="19" width="22" height="1"></rect><path d="M11,51a5.006,5.006,0,0,0,5,5V52a1,1,0,0,0-1-1Z"></path><path d="M21.469,40.826A.982.982,0,0,1,21,40V37h-.382l-2,4h2.764Z"></path><path d="M13,21V18H11V49h4a3,3,0,0,1,3,3v4H41V18H39v3a1,1,0,0,1-1,1H14A1,1,0,0,1,13,21ZM28.871,50.871a3,3,0,0,1-5.742,0A3,3,0,0,1,24,45v2a1,1,0,0,0,0,2,1,1,0,0,1,1,1,1,1,0,0,0,2,0,1,1,0,0,1,1-1,1,1,0,0,0,0-2V45a3,3,0,0,1,.871,5.871ZM16.829,40.1l2.276-4.552A1,1,0,0,1,20,35h1V32.379a10.719,10.719,0,0,1,1.873-6.141q3.127-4.518,6.254,0A10.724,10.724,0,0,1,31,32.379V35h1a1,1,0,0,1,.9.553L35.171,40.1A2,2,0,0,1,33.382,43H30a1,1,0,0,1-.895-.553l-.52-1.04-.636,1.909A1,1,0,0,1,27,44H25a1,1,0,0,1-.949-.684l-.636-1.909-.52,1.04A1,1,0,0,1,22,43H18.618a2,2,0,0,1-1.789-2.9Z"></path><path d="M25,34h2v5h2V32.379a8.734,8.734,0,0,0-1.518-5C26.73,26.29,26.2,26,26,26s-.73.29-1.482,1.376a8.734,8.734,0,0,0-1.518,5V39h2Zm-1.447-3.895,2-1a1,1,0,0,1,.894,0l2,1-.894,1.79L26,31.118l-1.553.777Z"></path></g></svg>