<svg xmlns="http://www.w3.org/2000/svg" viewBox="0 0 64 64" x="0px" y="0px"><g><path d="M4,57V7A3,3,0,0,1,7,4H38V9a3,3,0,0,0,3,3h5V32h2V11a1,1,0,0,0-.293-.707l-8-8A1,1,0,0,0,39,2H7A5.006,5.006,0,0,0,2,7V57a5.006,5.006,0,0,0,5,5H38V60H7A3,3,0,0,1,4,57ZM40,9V5.414L44.586,10H41A1,1,0,0,1,40,9Z"></path><path d="M33,20a8,8,0,0,0-8.136-8,8.09,8.09,0,0,0-7.858,7.705,8.006,8.006,0,0,0,2.386,5.99A5.17,5.17,0,0,1,20.961,29H19v2h2v2a2,2,0,0,0,2,2h4a2,2,0,0,0,2-2V31h2V29H29.037a4.979,4.979,0,0,1,1.5-3.231A7.915,7.915,0,0,0,33,20ZM23,33V31h4v2Zm4.01-4H22.99a7.166,7.166,0,0,0-2.2-4.731A5.923,5.923,0,0,1,19,19.778a6,6,0,0,1,10.2-4.056,5.989,5.989,0,0,1-.057,8.6A7.009,7.009,0,0,0,27.01,29Z"></path><path d="M25,21a1,1,0,0,1-1-1H22a3,3,0,0,0,2,2.816V27h2V22.816A3,3,0,0,0,28,20H26A1,1,0,0,1,25,21Z"></path><rect x="24" y="8" width="2" height="2"></rect><rect x="18.5" y="9.474" width="2" height="2" transform="translate(-2.624 11.151) rotate(-29.995)"></rect><rect x="14.473" y="13.5" width="2" height="2" transform="translate(-4.82 20.652) rotate(-60.005)"></rect><rect x="13" y="19" width="2" height="2"></rect><rect x="14.473" y="24.5" width="2" height="2" transform="translate(-10.676 11.151) rotate(-29.995)"></rect><rect x="33.526" y="24.5" width="2" height="2" transform="translate(-4.819 42.654) rotate(-60.005)"></rect><rect x="35" y="19" width="2" height="2"></rect><rect x="33.526" y="13.5" width="2" height="2" transform="translate(-2.625 19.202) rotate(-29.995)"></rect><rect x="29.5" y="9.474" width="2" height="2" transform="translate(6.181 31.653) rotate(-60.005)"></rect><path d="M61.142,45.01l-2.682-.383a10.86,10.86,0,0,0-.679-1.639l1.625-2.166a1,1,0,0,0-.093-1.307l-2.828-2.828a1,1,0,0,0-1.306-.093l-2.167,1.624a10.9,10.9,0,0,0-1.639-.678l-.383-2.682A1,1,0,0,0,50,34H46a1,1,0,0,0-.99.858l-.383,2.682a10.855,10.855,0,0,0-1.639.678l-2.167-1.624a1,1,0,0,0-1.306.093l-2.828,2.828a1,1,0,0,0-.093,1.307l1.625,2.166a10.86,10.86,0,0,0-.679,1.639l-2.682.383A1,1,0,0,0,34,46v4a1,1,0,0,0,.858.99l2.682.383a10.86,10.86,0,0,0,.679,1.639l-1.625,2.166a1,1,0,0,0,.093,1.307l2.828,2.828a1,1,0,0,0,1.306.093l2.167-1.624a10.855,10.855,0,0,0,1.639.678l.383,2.682A1,1,0,0,0,46,62h4a1,1,0,0,0,.99-.858l.383-2.682a10.9,10.9,0,0,0,1.639-.678l2.167,1.624a1,1,0,0,0,1.306-.093l2.828-2.828a1,1,0,0,0,.093-1.307l-1.625-2.166a10.86,10.86,0,0,0,.679-1.639l2.682-.383A1,1,0,0,0,62,50V46A1,1,0,0,0,61.142,45.01ZM60,49.133l-2.463.352a1,1,0,0,0-.827.742,8.923,8.923,0,0,1-.977,2.357,1,1,0,0,0,.061,1.111l1.492,1.99-1.6,1.6-1.991-1.492a1,1,0,0,0-1.11-.06,8.859,8.859,0,0,1-2.356.975,1,1,0,0,0-.744.828L49.133,60H46.867l-.351-2.463a1,1,0,0,0-.744-.828,8.859,8.859,0,0,1-2.356-.975,1,1,0,0,0-1.11.06l-1.991,1.492-1.6-1.6,1.492-1.99a1,1,0,0,0,.061-1.111,8.923,8.923,0,0,1-.977-2.357,1,1,0,0,0-.827-.742L36,49.133V46.867l2.463-.352a1,1,0,0,0,.827-.742,8.923,8.923,0,0,1,.977-2.357,1,1,0,0,0-.061-1.111l-1.492-1.99,1.6-1.6,1.991,1.492a1,1,0,0,0,1.11.06,8.859,8.859,0,0,1,2.356-.975,1,1,0,0,0,.744-.828L46.867,36h2.266l.351,2.463a1,1,0,0,0,.744.828,8.859,8.859,0,0,1,2.356.975,1,1,0,0,0,1.11-.06l1.991-1.492,1.6,1.6-1.492,1.99a1,1,0,0,0-.061,1.111,8.923,8.923,0,0,1,.977,2.357,1,1,0,0,0,.827.742L60,46.867Z"></path><path d="M48,42a6,6,0,1,0,6,6A6.006,6.006,0,0,0,48,42Zm0,10a4,4,0,1,1,4-4A4,4,0,0,1,48,52Z"></path><rect x="47" y="38" width="2" height="2"></rect><rect x="40.636" y="40.636" width="2" height="2" transform="translate(-17.246 41.626) rotate(-44.99)"></rect><rect x="38" y="47" width="2" height="2"></rect><rect x="40.636" y="53.364" width="2" height="2" transform="translate(-26.246 45.364) rotate(-45)"></rect><rect x="47" y="56" width="2" height="2"></rect><rect x="53.364" y="53.364" width="2" height="2" transform="translate(-22.518 54.351) rotate(-44.99)"></rect><rect x="56" y="47" width="2" height="2"></rect><rect x="53.364" y="40.636" width="2" height="2" transform="translate(-13.517 50.648) rotate(-45.01)"></rect><rect x="8" y="39" width="18" height="2"></rect><rect x="28" y="39" width="4" height="2"></rect><rect x="8" y="43" width="24" height="2"></rect><rect x="8" y="47" width="2" height="2"></rect><rect x="12" y="47" width="20" height="2"></rect><rect x="8" y="51" width="24" height="2"></rect></g></svg>