<svg xmlns="http://www.w3.org/2000/svg" viewBox="0 0 64 64" x="0px" y="0px"><g data-name="Light"><rect x="8" y="58" width="18" height="2"></rect><path d="M41,2H17a5.006,5.006,0,0,0-5,5V56h2V7a3,3,0,0,1,3-3H41a1,1,0,0,1,1,1V8h2V5A3,3,0,0,0,41,2Z"></path><path d="M44.6,18.338a1,1,0,0,1-.6-.916V16H42v1.422a1,1,0,0,1-.6.916,4,4,0,1,0,3.2,0Z"></path><rect x="41" y="10" width="4" height="4"></rect><rect x="42" y="30" width="2" height="4"></rect><rect x="49.071" y="27.071" width="2" height="4" transform="translate(-5.89 43.925) rotate(-45.005)"></rect><rect x="51" y="21" width="4" height="2"></rect><rect x="31" y="21" width="4" height="2"></rect><rect x="33.929" y="28.071" width="4" height="2" transform="translate(-10.033 33.92) rotate(-45)"></rect></g></svg>