<svg xmlns="http://www.w3.org/2000/svg" viewBox="0 0 64 64" x="0px" y="0px"><g><path d="M52.131,19H48a1,1,0,0,1-1-1V13.3L41.869,21H46a1,1,0,0,1,1,1v4.7Z"></path><path d="M28.131,12H24a1,1,0,0,1-1-1V6.3L17.869,14H22a1,1,0,0,1,1,1v4.7Z"></path><path d="M12.03,49.242,9.219,38H4V57a3,3,0,0,0,3,3H59a1,1,0,0,0,1-1V57a7.008,7.008,0,0,0-7-7H13A1,1,0,0,1,12.03,49.242ZM52,52h4v2H52Zm-6,0h2v2H46Zm-4,0h2v2H42Zm-4,0h2v2H38Zm-4,0h2v2H34Zm-4,0h2v2H30Zm-4,0h2v2H26Zm-4,0h2v2H22Zm-4,0h2v2H18Z"></path><polygon points="20.477 30 27.677 48 37.309 48 27.409 30 20.477 30"></polygon></g></svg>