<svg xmlns="http://www.w3.org/2000/svg" viewBox="0 0 64 64" x="0px" y="0px"><g><path d="M29,24a1,1,0,0,0,1-1V3a1,1,0,0,0-1-1H18a2.981,2.981,0,0,0-2,.78A2.981,2.981,0,0,0,14,2H3A1,1,0,0,0,2,3V23a1,1,0,0,0,1,1Zm-1-2H17V21a1,1,0,0,1,1-1H28ZM18,4H28V18H18a2.966,2.966,0,0,0-1,.184V5A1,1,0,0,1,18,4ZM14,4a1,1,0,0,1,1,1V18.184A2.966,2.966,0,0,0,14,18H4V4ZM4,20H14a1,1,0,0,1,1,1v1H4Z"></path><rect x="19" y="6" width="7" height="2"></rect><rect x="19" y="10" width="7" height="2"></rect><rect x="19" y="14" width="7" height="2"></rect><rect x="6" y="6" width="7" height="2"></rect><rect x="6" y="10" width="7" height="2"></rect><rect x="6" y="14" width="7" height="2"></rect><path d="M61,2H50a2.981,2.981,0,0,0-2,.78A2.981,2.981,0,0,0,46,2H35a1,1,0,0,0-1,1V23a1,1,0,0,0,1,1H61a1,1,0,0,0,1-1V3A1,1,0,0,0,61,2ZM50,4H60V18H50a2.966,2.966,0,0,0-1,.184V5A1,1,0,0,1,50,4ZM46,4a1,1,0,0,1,1,1V18.184A2.966,2.966,0,0,0,46,18H36V4ZM36,20H46a1,1,0,0,1,1,1v1H36Zm24,2H49V21a1,1,0,0,1,1-1H60Z"></path><rect x="38" y="6" width="7" height="2"></rect><rect x="38" y="10" width="7" height="2"></rect><rect x="38" y="14" width="7" height="2"></rect><rect x="51" y="6" width="7" height="2"></rect><rect x="51" y="10" width="7" height="2"></rect><rect x="51" y="14" width="7" height="2"></rect><path d="M53,44H33V38H48a1,1,0,0,0,1-1V34H47v2H17V34H15v3a1,1,0,0,0,1,1H31v6H11a2,2,0,0,0-2,2V60a2,2,0,0,0,2,2H53a2,2,0,0,0,2-2V46A2,2,0,0,0,53,44Zm0,16H11V46H53Z"></path><rect x="17" y="56" width="28" height="2"></rect><rect x="47" y="56" width="4" height="2"></rect><rect x="13" y="56" width="2" height="2"></rect><rect x="17" y="52" width="2" height="2"></rect><rect x="13" y="52" width="2" height="2"></rect><rect x="21" y="52" width="2" height="2"></rect><rect x="25" y="52" width="2" height="2"></rect><rect x="29" y="52" width="2" height="2"></rect><rect x="33" y="52" width="2" height="2"></rect><rect x="37" y="52" width="2" height="2"></rect><rect x="41" y="52" width="2" height="2"></rect><rect x="45" y="52" width="2" height="2"></rect><rect x="49" y="52" width="2" height="2"></rect><rect x="17" y="48" width="2" height="2"></rect><rect x="13" y="48" width="2" height="2"></rect><rect x="21" y="48" width="2" height="2"></rect><rect x="25" y="48" width="2" height="2"></rect><rect x="29" y="48" width="2" height="2"></rect><rect x="33" y="48" width="2" height="2"></rect><rect x="37" y="48" width="2" height="2"></rect><rect x="41" y="48" width="2" height="2"></rect><rect x="45" y="48" width="2" height="2"></rect><rect x="49" y="48" width="2" height="2"></rect><rect x="47" y="30" width="2" height="2"></rect><rect x="47" y="26" width="2" height="2"></rect><rect x="15" y="30" width="2" height="2"></rect><rect x="15" y="26" width="2" height="2"></rect><rect x="31" y="27" width="2" height="6"></rect><rect x="35.172" y="30" width="5.657" height="2" transform="translate(-10.79 35.95) rotate(-45)"></rect><rect x="25" y="28.172" width="2" height="5.657" transform="translate(-14.305 27.464) rotate(-45)"></rect><rect x="35" y="40" width="2" height="2"></rect><rect x="39" y="40" width="2" height="2"></rect><rect x="43" y="40" width="2" height="2"></rect><rect x="27" y="40" width="2" height="2"></rect><rect x="23" y="40" width="2" height="2"></rect><rect x="19" y="40" width="2" height="2"></rect></g></svg>