<svg xmlns="http://www.w3.org/2000/svg" viewBox="0 0 64 64" x="0px" y="0px"><g><path d="M60,51V48H38v1a2,2,0,0,1-2,2H28a2,2,0,0,1-2-2V48H4v3a1,1,0,0,0,1,1H59A1,1,0,0,0,60,51Z"></path><path d="M46.118,46a14.285,14.285,0,0,0,.5-1.668,1,1,0,0,1,.852-.774L51,43.117V38.883l-3.534-.441a1,1,0,0,1-.852-.774,14.615,14.615,0,0,0-1.929-4.643,1,1,0,0,1,.055-1.149l2.188-2.813-2.991-2.991L41.124,28.26a1,1,0,0,1-1.149.055,14.615,14.615,0,0,0-4.643-1.929,1,1,0,0,1-.774-.852L34.117,22H29.883l-.441,3.534a1,1,0,0,1-.774.852,14.615,14.615,0,0,0-4.643,1.929,1,1,0,0,1-1.149-.055l-2.813-2.188-2.991,2.991,2.188,2.813a1,1,0,0,1,.055,1.149,14.615,14.615,0,0,0-1.929,4.643,1,1,0,0,1-.852.774L13,38.883v4.234l3.534.441a1,1,0,0,1,.852.774,14.285,14.285,0,0,0,.5,1.668h2.112a13,13,0,1,1,24.012,0Z"></path><path d="M7,46h8.77c-.056-.181-.116-.361-.166-.543l-3.728-.465A1,1,0,0,1,11,44V38a1,1,0,0,1,.876-.992l3.728-.465a16.571,16.571,0,0,1,1.655-3.981l-2.308-2.968a1,1,0,0,1,.082-1.321l4.24-4.24a1,1,0,0,1,1.321-.082l2.968,2.308A16.571,16.571,0,0,1,27.543,24.6l.465-3.728A1,1,0,0,1,29,20h6a1,1,0,0,1,.992.876l.465,3.728a16.571,16.571,0,0,1,3.981,1.655l2.968-2.308a1,1,0,0,1,1.321.082l4.24,4.24a1,1,0,0,1,.082,1.321l-2.308,2.968A16.571,16.571,0,0,1,48.4,36.543l3.728.465A1,1,0,0,1,53,38v6a1,1,0,0,1-.876.992l-3.728.465c-.05.182-.11.362-.166.543H57V18H7Z"></path><path d="M7,16H57V13a3,3,0,0,0-3-3H10a3,3,0,0,0-3,3Zm12-4h2v2H19Zm-4,0h2v2H15Zm-4,0h2v2H11Z"></path><circle cx="32" cy="41" r="1"></circle><rect x="28" y="48" width="8" height="1"></rect><path d="M42.949,40a10.9,10.9,0,0,0-.973-3.6l-.816.471-1-1.732.816-.471a11.1,11.1,0,0,0-2.639-2.639l-.471.816-1.732-1,.471-.816a10.9,10.9,0,0,0-3.6-.973V31H31v-.949a10.9,10.9,0,0,0-3.605.973l.471.816-1.732,1-.471-.816a11.1,11.1,0,0,0-2.639,2.639l.816.471-1,1.732-.816-.471a10.9,10.9,0,0,0-.973,3.6H22v2h-.935a10.933,10.933,0,0,0,1.154,4H41.781a10.933,10.933,0,0,0,1.154-4H42V40ZM26,41H24a8.009,8.009,0,0,1,8-8v2A6.006,6.006,0,0,0,26,41Zm9,0a3,3,0,1,1-3-3,2.951,2.951,0,0,1,1.285.3l3.008-3.008,1.414,1.414L34.7,39.715A2.951,2.951,0,0,1,35,41Z"></path></g></svg>