<svg xmlns="http://www.w3.org/2000/svg" viewBox="0 0 64 64" x="0px" y="0px"><title>Bills-Credit Card</title><g data-name="Bills-Credit Card"><path d="M60.767,3.563A2,2,0,0,0,58.589,4L55,7.586,50.417,3a2.007,2.007,0,0,0-2.834,0L43,7.586,38.417,3a2.007,2.007,0,0,0-2.834,0L31,7.586,26.417,3a2.007,2.007,0,0,0-2.834,0L19,7.586,15.417,4A2,2,0,0,0,12,5.418V32H7a5.006,5.006,0,0,0-5,5V57a5.006,5.006,0,0,0,5,5H59a3,3,0,0,0,3-3V5.41A1.994,1.994,0,0,0,60.767,3.563ZM7,34H41a3,3,0,0,1,3,3v1H4V37A3,3,0,0,1,7,34ZM4,40H44v2H4Zm9,20H7a3,3,0,0,1-3-3V44H44V57a3,3,0,0,1-3,3Zm47-1a1,1,0,0,1-1,1H44.974A4.948,4.948,0,0,0,46,57V37a5.006,5.006,0,0,0-5-5H14L14,5.417,17.586,9a2,2,0,0,0,2.828,0L25,4.417,29.586,9a2,2,0,0,0,2.828,0L37,4.417,41.586,9a2,2,0,0,0,2.828,0L49,4.417,53.586,9a2,2,0,0,0,2.828,0L60,5.41Z"></path><path d="M38,50a3.978,3.978,0,0,0-2,.546,4,4,0,1,0,0,6.909A4,4,0,1,0,38,50Zm-6,4a2,2,0,0,1,3.343-1.477,1.987,1.987,0,0,1-.014,2.965A1.975,1.975,0,0,1,34,56,2,2,0,0,1,32,54Zm6,2a1.968,1.968,0,0,1-.5-.063c.039-.071.069-.147.1-.22.02-.042.041-.083.06-.126a4.007,4.007,0,0,0,.226-.69c.01-.045.017-.091.026-.136A4.052,4.052,0,0,0,38,54a3.96,3.96,0,0,0-.081-.763c-.009-.047-.016-.093-.026-.14a4.008,4.008,0,0,0-.223-.68c-.021-.049-.045-.1-.068-.145-.034-.069-.062-.141-.1-.209A1.968,1.968,0,0,1,38,52a2,2,0,0,1,0,4Z"></path><path d="M21,55H9a1,1,0,0,0,0,2H21a1,1,0,0,0,0-2Z"></path><path d="M55,14H19a1,1,0,0,0,0,2H55a1,1,0,0,0,0-2Z"></path><path d="M9,53h9a1,1,0,0,0,0-2H9a1,1,0,0,0,0,2Z"></path><path d="M19,22h6a1,1,0,0,0,0-2H19a1,1,0,0,0,0,2Z"></path><path d="M41,20H29a1,1,0,0,0,0,2H41a1,1,0,0,0,0-2Z"></path><path d="M55,20H45a1,1,0,0,0,0,2H55a1,1,0,0,0,0-2Z"></path><path d="M33,26H19a1,1,0,0,0,0,2H33a1,1,0,0,0,0-2Z"></path><path d="M39,26H37a1,1,0,0,0,0,2h2a1,1,0,0,0,0-2Z"></path><path d="M55,26H43a1,1,0,0,0,0,2H55a1,1,0,0,0,0-2Z"></path></g></svg>