<svg xmlns="http://www.w3.org/2000/svg" viewBox="0 0 64 64" x="0px" y="0px"><g data-name="Graphic Design-Blueprint-Sketch-Editor-Tools"><path d="M48,57a3,3,0,0,1-3,3H9a3,3,0,0,1-3-3V7A3,3,0,0,1,9,4H40V9a3,3,0,0,0,3,3h5V26h2V11a1,1,0,0,0-.293-.707l-8-8A1,1,0,0,0,41,2H9A5.006,5.006,0,0,0,4,7V57a5.006,5.006,0,0,0,5,5H45a5.006,5.006,0,0,0,5-5V46H48ZM42,9V5.414L46.586,10H43A1,1,0,0,1,42,9Z"></path><path d="M58.991,31.666l-5.657-5.657a1,1,0,0,0-1.414,0L32.828,45.1a.988.988,0,0,0-.226.347l-3.536,9.193a1,1,0,0,0,1.293,1.293L39.552,52.4a.988.988,0,0,0,.347-.226L58.991,33.08A1,1,0,0,0,58.991,31.666ZM37.4,51.084l-2.042.785-2.224-2.224.785-2.042Zm.381-2.448L51.213,35.2l1.415,1.414L39.192,50.051Zm-1.414-1.414-1.415-1.414L48.385,32.372,49.8,33.787Zm-4.019,4.466.967.967-1.571.6ZM54.042,35.2,49.8,30.958l2.828-2.828,4.243,4.243Z"></path><path d="M25,24H23v2H21v2h3a1,1,0,0,0,1-1Z"></path><path d="M25,18V15a1,1,0,0,0-1-1H12a1,1,0,0,0-1,1V27a1,1,0,0,0,1,1h3V26H13V16H23v2Z"></path><rect x="17" y="20" width="2" height="2"></rect><rect x="21" y="20" width="2" height="2"></rect><rect x="29" y="28" width="2" height="2"></rect><rect x="29" y="32" width="2" height="2"></rect><rect x="25" y="32" width="2" height="2"></rect><rect x="21" y="32" width="2" height="2"></rect><rect x="17" y="24" width="2" height="2"></rect><rect x="17" y="28" width="2" height="2"></rect><rect x="17" y="32" width="2" height="2"></rect><path d="M41,21a7,7,0,1,0-7,7A7.009,7.009,0,0,0,41,21ZM29,21a5,5,0,1,1,5,5A5.006,5.006,0,0,1,29,21Z"></path><rect x="11" y="42" width="14" height="2"></rect><rect x="11" y="46" width="14" height="2"></rect><rect x="11" y="50" width="14" height="2"></rect><rect x="11" y="54" width="14" height="2"></rect></g></svg>