<svg xmlns="http://www.w3.org/2000/svg" viewBox="0 0 64 64" x="0px" y="0px"><g><path d="M62,29V21a1,1,0,0,0-.293-.707L58,16.586V13a1,1,0,0,0-1-1V7a1,1,0,0,0-1-1H52a1,1,0,0,0-1,1v5a1,1,0,0,0-1,1V33H48V7a5.006,5.006,0,0,0-5-5H7A5.006,5.006,0,0,0,2,7V57a5.006,5.006,0,0,0,5,5H43a5.006,5.006,0,0,0,5-5V45h2v6a1,1,0,0,0,.1.447l2,4A1,1,0,0,0,53,56v4h2V56a1,1,0,0,0,.9-.553l2-4A1,1,0,0,0,58,51V45h3a1,1,0,0,0,1-1V34a1,1,0,0,0-1-1H58V19.414l2,2V29ZM52,14h4v4H52Zm1-6h2v4H53ZM40,4v6.586L38.707,9.293a1,1,0,0,0-1.414,0L36,10.586V4Zm6,53a3,3,0,0,1-3,3H7a3,3,0,0,1-3-3V7A3,3,0,0,1,7,4H34v9a1,1,0,0,0,1.707.707L38,11.414l2.293,2.293A1,1,0,0,0,42,13V4h1a3,3,0,0,1,3,3V33H9a1,1,0,0,0-1,1V44a1,1,0,0,0,1,1H46Zm8.382-3h-.764l-1.5-3h3.764ZM56,49H52V45h4Zm4-6H10V35h6v2h2V35h4v2h2V35h4v2h2V35h4v2h2V35h4v2h2V35h4v2h2V35h4v2h2V35h6ZM52,33V20h4V33Z"></path></g></svg>