<svg xmlns="http://www.w3.org/2000/svg" viewBox="0 0 64 64" x="0px" y="0px"><g><path d="M55,10H51V7a1,1,0,0,0-1-1H47V3a1,1,0,0,0-1-1H18a1,1,0,0,0-1,1V6H14a1,1,0,0,0-1,1v3H9a3.009,3.009,0,0,0-3,3V47a3.01,3.01,0,0,0,2,2.82V52a2.006,2.006,0,0,0,2,2h7v7a1,1,0,0,0,1,1H46a1,1,0,0,0,1-1V54h7a2.006,2.006,0,0,0,2-2V49.82A3.01,3.01,0,0,0,58,47V13A3.009,3.009,0,0,0,55,10ZM47,8h2v6H47ZM19,4H45V14H19ZM15,8h2v6H15Zm2,44H10V50h7Zm28,8H19V44H45Zm1-18H18a1,1,0,0,0-1,1v5H15V40H49v8H47V43A1,1,0,0,0,46,42Zm8,10H47V50h7Zm2-5a1,1,0,0,1-1,1H51V39a1,1,0,0,0-1-1H14a1,1,0,0,0-1,1v9H9a1,1,0,0,1-1-1V13a1,1,0,0,1,1-1h4v3a1,1,0,0,0,1,1H50a1,1,0,0,0,1-1V12h4a1,1,0,0,1,1,1Z"></path><path d="M22,57h6a1,1,0,0,0,1-1V52a1,1,0,0,0-1-1H22a1,1,0,0,0-1,1v4A1,1,0,0,0,22,57Zm1-4h4v2H23Z"></path><rect x="31" y="55" width="12" height="2"></rect><rect x="31" y="51" width="12" height="2"></rect><rect x="21" y="47" width="22" height="2"></rect><path d="M45,20H19a2,2,0,0,0-2,2V32a2,2,0,0,0,2,2H45a2,2,0,0,0,2-2V22A2,2,0,0,0,45,20ZM19,32V22H45V32Z"></path><rect x="49" y="20" width="2" height="2"></rect><rect x="49" y="24" width="2" height="2"></rect><rect x="49" y="28" width="2" height="2"></rect><rect x="49" y="32" width="2" height="2"></rect><rect x="13" y="20" width="2" height="2"></rect><rect x="13" y="24" width="2" height="2"></rect><rect x="13" y="28" width="2" height="2"></rect><rect x="13" y="32" width="2" height="2"></rect><rect x="31" y="26" width="2" height="2"></rect><rect x="35" y="26" width="2" height="2"></rect><rect x="27" y="26" width="2" height="2"></rect></g></svg>