<svg xmlns="http://www.w3.org/2000/svg" viewBox="0 0 64 64" x="0px" y="0px"><g><circle cx="17" cy="28" r="1"></circle><path d="M53,39H11V53H53Zm-5,4H46V41h2Zm3,3H49V44h2Zm0-3H49V41h2Z"></path><circle cx="47" cy="28" r="1"></circle><rect x="8" y="58" width="48" height="2"></rect><path d="M58,35H6V56H58ZM55,55H9V37H55Z"></path><rect x="13" y="16" width="8" height="2"></rect><rect x="43" y="16" width="8" height="2"></rect><rect x="4" y="20" width="56" height="2"></rect><path d="M58,24H6v9H58ZM17,31a3,3,0,1,1,3-3A3,3,0,0,1,17,31Zm30,0a3,3,0,1,1,3-3A3,3,0,0,1,47,31Z"></path><polygon points="18.2 12.4 19.8 13.6 22.25 10.332 20.25 7.664 21.8 5.601 20.2 4.399 17.75 7.663 19.75 10.332 18.2 12.4"></polygon><polygon points="13.2 12.4 14.8 13.6 17.25 10.332 15.25 7.664 16.8 5.601 15.2 4.399 12.75 7.663 14.75 10.332 13.2 12.4"></polygon><polygon points="43.2 12.4 44.8 13.6 47.25 10.332 45.25 7.664 46.8 5.601 45.2 4.399 42.75 7.663 44.75 10.332 43.2 12.4"></polygon><polygon points="48.2 12.4 49.8 13.6 52.25 10.332 50.25 7.664 51.8 5.601 50.2 4.399 47.75 7.663 49.75 10.332 48.2 12.4"></polygon></g></svg>