<svg xmlns="http://www.w3.org/2000/svg" viewBox="0 0 64 64" x="0px" y="0px"><g><path d="M42,50H22a3,3,0,0,0,0,6H42a3,3,0,0,0,0-6Zm0,4H22a1,1,0,0,1,0-2H42a1,1,0,0,1,0,2Z"></path><path d="M61.8,42.4l-4.93-6.57A2.88,2.88,0,0,0,57,35V33a3.009,3.009,0,0,0-3-3H42a2.923,2.923,0,0,0-1.32.32A2.923,2.923,0,0,0,41,29V27a3.009,3.009,0,0,0-3-3h-.03a10,10,0,1,0-11.94,0H26a3.009,3.009,0,0,0-3,3v2a2.923,2.923,0,0,0,.32,1.32A2.923,2.923,0,0,0,22,30H10a3.009,3.009,0,0,0-3,3v2a2.88,2.88,0,0,0,.13.83L2.2,42.4A.984.984,0,0,0,2,43V59a3.009,3.009,0,0,0,3,3H59a3.009,3.009,0,0,0,3-3V43A.984.984,0,0,0,61.8,42.4ZM57,41V39.34L59,42H56.82A3,3,0,0,0,57,41ZM41,33a1,1,0,0,1,1-1h1v2h2V32h2v2h2V32h2v2h2V32h1a1,1,0,0,1,1,1v2a1,1,0,0,1-1,1H42a1,1,0,0,1-1-1Zm0,6a1,1,0,0,1,1-1h1v2h2V38h2v2h2V38h2v2h2V38h1a1,1,0,0,1,1,1v2a1,1,0,0,1-1,1H42a1,1,0,0,1-1-1ZM24,16a8,8,0,1,1,8,8A8.011,8.011,0,0,1,24,16Zm1,11a1,1,0,0,1,1-1h1v2h2V26h2v2h2V26h2v2h2V26h1a1,1,0,0,1,1,1v2a1,1,0,0,1-1,1H26a1,1,0,0,1-1-1Zm0,6a1,1,0,0,1,1-1h1v2h2V32h2v2h2V32h2v2h2V32h1a1,1,0,0,1,1,1v2a1,1,0,0,1-1,1H26a1,1,0,0,1-1-1Zm0,6a1,1,0,0,1,1-1h1v2h2V38h2v2h2V38h2v2h2V38h1a1,1,0,0,1,1,1v2a1,1,0,0,1-1,1H26a1,1,0,0,1-1-1ZM9,33a1,1,0,0,1,1-1h1v2h2V32h2v2h2V32h2v2h2V32h1a1,1,0,0,1,1,1v2a1,1,0,0,1-1,1H10a1,1,0,0,1-1-1Zm0,6a1,1,0,0,1,1-1h1v2h2V38h2v2h2V38h2v2h2V38h1a1,1,0,0,1,1,1v2a1,1,0,0,1-1,1H10a1,1,0,0,1-1-1Zm-2,.34V41a3,3,0,0,0,.18,1H5ZM60,59a1,1,0,0,1-1,1H5a1,1,0,0,1-1-1V44H60Z"></path><path d="M31,13h2a1,1,0,0,1,1,1h2a3,3,0,0,0-3-3V10H31v1a3,3,0,0,0,0,6h2a1,1,0,0,1,0,2H31a1,1,0,0,1-1-1H28a3,3,0,0,0,3,3v1h2V21a3,3,0,0,0,0-6H31a1,1,0,0,1,0-2Z"></path><path d="M13.232,24.641a1,1,0,0,0,1.536,0l5-6A1,1,0,0,0,19,17H17V2H15V18a1,1,0,0,0,1,1h.865L14,22.438,11.135,19H12a1,1,0,0,0,1-1V2H11V17H9a1,1,0,0,0-.768,1.641Z"></path><path d="M49.232,24.641a1,1,0,0,0,1.536,0l5-6A1,1,0,0,0,55,17H53V2H51V18a1,1,0,0,0,1,1h.865L50,22.438,47.135,19H48a1,1,0,0,0,1-1V2H47V17H45a1,1,0,0,0-.768,1.641Z"></path></g></svg>