<svg xmlns="http://www.w3.org/2000/svg" viewBox="0 0 64 64" x="0px" y="0px"><title>Bagpack</title><g><path d="M61,44H54V14a5.006,5.006,0,0,0-5-5H40V3a1,1,0,0,0-1-1H25a1,1,0,0,0-1,1V9H15a5.006,5.006,0,0,0-5,5V44H3a1,1,0,0,0-1,1V59a1,1,0,0,0,1,1h7v1a1,1,0,0,0,1,1H53a1,1,0,0,0,1-1V60h7a1,1,0,0,0,1-1V45A1,1,0,0,0,61,44ZM38,4V5H26V4ZM26,7H38V9H26Zm22.39,4a3.008,3.008,0,0,1,2.97,3.431l-1.86,13A3.01,3.01,0,0,1,46.53,30H44V26a1,1,0,0,0-1-1H37a1,1,0,0,0-1,1v4H28V26a1,1,0,0,0-1-1H21a1,1,0,0,0-1,1v4H17.47a3.01,3.01,0,0,1-2.97-2.571l-1.86-13A3.008,3.008,0,0,1,15.61,11ZM38,27h4v8H38ZM22,27h4v8H22ZM4,58V46h6V58Zm48,2H12V24.079l.52,3.632A5.021,5.021,0,0,0,17.47,32H20v4a1,1,0,0,0,1,1h6a1,1,0,0,0,1-1V32h8v4a1,1,0,0,0,1,1h6a1,1,0,0,0,1-1V32h2.53a5.021,5.021,0,0,0,4.95-4.288L52,24.077Zm8-2H54V46h6Z"></path><path d="M45,43H19a1,1,0,0,0-1,1V56a1,1,0,0,0,1,1H45a1,1,0,0,0,1-1V44A1,1,0,0,0,45,43ZM44,55H20V45H44Z"></path></g></svg>