<svg xmlns="http://www.w3.org/2000/svg" viewBox="0 0 64 64" x="0px" y="0px"><g><rect x="50" y="7" width="2" height="2"></rect><rect x="44" y="7" width="2" height="2"></rect><path d="M61.832,7.445l-2-3A1,1,0,0,0,59,4H55.326l-.365-1.274A1,1,0,0,0,54,2H42a1,1,0,0,0-.961.726L40.674,4H37a1,1,0,0,0-.832.445l-2,3A1.006,1.006,0,0,0,34,8v8a1,1,0,0,0,1,1h2a1,1,0,0,0,.8-.4L39,15h0v5a1,1,0,0,0,.186.581L40,21.721V27a1,1,0,0,1-1,1H25a1,1,0,0,0-.8.4L18.5,36H15a1,1,0,0,0-.707.293l-4,4A1,1,0,0,0,10,41v3H9.236l-1.277-.639A5.007,5.007,0,0,0,3,39a1,1,0,0,0-1,1v6a1,1,0,0,0,.4.8l4,3A1,1,0,0,0,7,50h5a1.006,1.006,0,0,0,.555-.168l3-2A1,1,0,0,0,16,47V43.414L17.414,42H18v3.808l-1.929,4.821A1,1,0,0,0,16,51V61a1,1,0,0,0,1,1h4a1,1,0,0,0,1-1V51.277l2-3.333V60a1,1,0,0,0,1,1h4a1,1,0,0,0,1-1V50.3l1.832-2.748A1.006,1.006,0,0,0,32,47V44h8V61a1,1,0,0,0,1,1h4a1,1,0,0,0,1-1V44h4V61a1,1,0,0,0,1,1h4a1,1,0,0,0,1-1V21.721l.814-1.14A1,1,0,0,0,57,20V15h0l1.2,1.6a1,1,0,0,0,.8.4h2a1,1,0,0,0,1-1V8A1.006,1.006,0,0,0,61.832,7.445ZM42.754,4H53.246L55,10.14v2.992l-1.445-.964A1.006,1.006,0,0,0,53,12H51.414l-1.707-1.707A1,1,0,0,0,49,10H47a1,1,0,0,0-.707.293L44.586,12H43a1.006,1.006,0,0,0-.555.168L41,13.132V10.14ZM55,19.68,50.485,26h-4.97L41,19.68V15.535L43.3,14H45a1,1,0,0,0,.707-.293L47.414,12h1.172l1.707,1.707A1,1,0,0,0,51,14h1.7L55,15.535ZM36.5,15H36V8.3L37.535,6H40.1L39.039,9.726A.97.97,0,0,0,39,10v1.667ZM17,40a1,1,0,0,0-.707.293l-2,2A1,1,0,0,0,14,43v3.465L11.7,48H7.333L4,45.5V41.171A3.006,3.006,0,0,1,6,44a1,1,0,0,0,.553.9l2,1A1,1,0,0,0,9,46h2a1,1,0,0,0,1-1V41.414L15.414,38H18v2Zm6.143,5.485-3,5A1,1,0,0,0,20,51v9H18V51.192l1.929-4.821A1,1,0,0,0,20,46h1a1,1,0,0,0,.707-.293l3-3A1,1,0,0,0,25,42V38h1v6a1,1,0,0,1-1,1H24A1,1,0,0,0,23.143,45.485ZM30,46.7l-1.832,2.748A1.006,1.006,0,0,0,28,50v9H26V46.816A3,3,0,0,0,28,44h2ZM42,60V55h1a1,1,0,0,0,.832-.445L44,54.3V60Zm10,0V50h2V60Zm2-24.22A2.981,2.981,0,0,0,52,35a1,1,0,0,0-.707.293L48,38.586l-3.293-3.293A1,1,0,0,0,44,35a3,3,0,0,0,0,6h8a2.981,2.981,0,0,0,2-.78V48H52V43a1,1,0,0,0-1-1H45a1,1,0,0,0-1,1v7.7L42.465,53H42V43a1,1,0,0,0-1-1H28V37a1,1,0,0,0-1-1H24a1,1,0,0,0-1,1v4.586L20.586,44H20V37.333L25.5,30H39a3,3,0,0,0,3-3V24.521l2.186,3.06A1,1,0,0,0,45,28h6a1,1,0,0,0,.814-.419L54,24.521ZM53,38a1,1,0,0,1-1,1H50.414l1.937-1.937A1,1,0,0,1,53,38Zm-7.414,1H44a1,1,0,0,1-.351-1.937ZM60,15h-.5L57,11.667V10a.97.97,0,0,0-.039-.274L55.9,6h2.568L60,8.3Z"></path><path d="M47,16.816v.77L45.586,19h-.172L45,18.586V17H43v2a1,1,0,0,0,.293.707l1,1A1,1,0,0,0,45,21a3,3,0,0,0,6,0,1,1,0,0,0,.707-.293l1-1A1,1,0,0,0,53,19V17H51v1.586L50.586,19h-.172L49,17.586v-.77A3,3,0,0,0,51,14H49a1,1,0,0,1-2,0H45A3,3,0,0,0,47,16.816ZM48,22a1,1,0,0,1-1-1v-.586l1-1,1,1V21A1,1,0,0,1,48,22Z"></path></g></svg>