<svg xmlns="http://www.w3.org/2000/svg" viewBox="0 0 64 64" x="0px" y="0px"><g data-name="Power Bank"><path d="M53,62H33a3,3,0,0,1-3-3V58h2v1a1,1,0,0,0,1,1H53a5.006,5.006,0,0,0,5-5V45a3,3,0,0,0-3-3H53a5.006,5.006,0,0,1-5-5V29h2v8a3,3,0,0,0,3,3h2a5.006,5.006,0,0,1,5,5V55A7.008,7.008,0,0,1,53,62Z"></path><path d="M47,26a1,1,0,0,0,1,1h2a1,1,0,0,0,1-1V19H47Z"></path><rect x="48" y="13" width="2" height="4"></rect><rect x="17" y="46" width="6" height="2"></rect><path d="M4,42.11c.019-.019.036-.041.056-.061A6.911,6.911,0,0,1,9,40H33a6.973,6.973,0,0,1,5,2.111V9a5.006,5.006,0,0,0-5-5H9A5.006,5.006,0,0,0,4,9ZM14.219,22.375l8-10A1,1,0,0,1,24,13.1l-.89,8.9H25a1,1,0,0,1,.819,1.573l-7,10a1,1,0,0,1-1.814-.673L17.9,24H15a1,1,0,0,1-.781-1.625Z"></path><circle cx="10" cy="47" r="1"></circle><path d="M19.741,22.329A1,1,0,0,1,20,23.1l-.619,6.191L23.079,24H22a1,1,0,0,1-1-1.1l.664-6.635L17.081,22H19A1,1,0,0,1,19.741,22.329Z"></path><path d="M9,52H27V45a1,1,0,0,1,1-1h6a1,1,0,0,1,1,1v6.571a4.858,4.858,0,0,0,1.529-1.034A4.936,4.936,0,0,0,38,47a5.006,5.006,0,0,0-5-5H9a5.009,5.009,0,0,0-5,5A5.006,5.006,0,0,0,9,52Zm6-7a1,1,0,0,1,1-1h8a1,1,0,0,1,1,1v4a1,1,0,0,1-1,1H16a1,1,0,0,1-1-1Zm-5-1a3,3,0,1,1-3,3A3,3,0,0,1,10,44Z"></path><path d="M32,56a1,1,0,0,0,1-1V46H29v9a1,1,0,0,0,1,1Z"></path></g></svg>