<svg xmlns="http://www.w3.org/2000/svg" viewBox="0 0 64 64" x="0px" y="0px"><g data-name="Setting"><path d="M54.833,44.4a4.006,4.006,0,0,0-5.127-2.39l-6.233,2.269a4.012,4.012,0,0,0-2.862-2.114l-13.591-2.4a.982.982,0,0,0-.515.046l-6.531,2.377-.342-.94a1,1,0,0,0-1.281-.6l-7.518,2.737a1,1,0,0,0-.6,1.281h0l-6.578,2.4a1,1,0,0,0-.6,1.281L7.849,61.5a1,1,0,0,0,1.281.6L15.708,59.7h0a1,1,0,0,0,1.282.6l7.517-2.737a1,1,0,0,0,.6-1.281l-.342-.939.611-.223,5.733,1.937a1.011,1.011,0,0,0,.663-.008l2.819-1.027h0l17.853-6.5A4,4,0,0,0,54.833,44.4ZM15.024,57.822,9.386,59.874,5.282,48.6l5.638-2.053Zm2.222.256L12.458,44.922h0L18.1,42.869l4.789,13.156ZM52.889,46.611a2,2,0,0,1-1.13,1.034l-20.344,7.4-5.734-1.937a1,1,0,0,0-.662.008l-.94.342-3.42-9.4,6.279-2.286L40.264,44.13A1.983,1.983,0,0,1,41.8,45.416a1.278,1.278,0,0,1,.069.25c0,.034.009.068.016.1a1.822,1.822,0,0,1,.008.676,2.011,2.011,0,0,1-2.319,1.628L28.312,46.088l-.347,1.969,11.259,1.986a4.016,4.016,0,0,0,4.636-3.259,4.113,4.113,0,0,0,.042-.537l6.488-2.362a2,2,0,0,1,2.5,2.726Z"></path><path d="M18.859,23.99l3.906.558a13.921,13.921,0,0,0,.657,1.6L21.058,29.3a1,1,0,0,0,.093,1.306l4.243,4.244a1,1,0,0,0,1.307.092l3.152-2.364a14,14,0,0,0,1.6.657l.558,3.907A1,1,0,0,0,33,38h6a1,1,0,0,0,.99-.858l.558-3.907a14,14,0,0,0,1.6-.657L45.3,34.942a1,1,0,0,0,1.307-.092l4.243-4.244a1,1,0,0,0,.093-1.306l-2.364-3.153a13.921,13.921,0,0,0,.657-1.6l3.906-.558A1,1,0,0,0,54,23V17a1,1,0,0,0-.859-.99l-3.906-.558a13.905,13.905,0,0,0-.657-1.6L50.942,10.7a1,1,0,0,0-.093-1.306L46.606,5.15A1,1,0,0,0,45.3,5.058L42.147,7.422a14,14,0,0,0-1.6-.657L39.99,2.858A1,1,0,0,0,39,2H33a1,1,0,0,0-.99.858l-.558,3.907a14,14,0,0,0-1.6.657L26.7,5.058a1,1,0,0,0-1.307.092L21.151,9.394a1,1,0,0,0-.093,1.306l2.364,3.154a13.905,13.905,0,0,0-.657,1.6l-3.906.558A1,1,0,0,0,18,17v6A1,1,0,0,0,18.859,23.99ZM20,17.867l3.669-.523a1,1,0,0,0,.819-.71,12,12,0,0,1,.987-2.4,1,1,0,0,0-.077-1.081l-2.22-2.961,3.016-3.016L29.155,9.4a1,1,0,0,0,1.081.077,11.939,11.939,0,0,1,2.4-.987,1,1,0,0,0,.71-.818L33.867,4h4.266l.524,3.67a1,1,0,0,0,.71.818,11.939,11.939,0,0,1,2.4.987A1,1,0,0,0,42.845,9.4l2.961-2.22,3.016,3.016L46.6,13.155a1,1,0,0,0-.077,1.081,12,12,0,0,1,.987,2.4,1,1,0,0,0,.819.71L52,17.867v4.266l-3.669.523a1,1,0,0,0-.819.71,11.9,11.9,0,0,1-.987,2.4,1,1,0,0,0,.077,1.081l2.22,2.961-3.016,3.016L42.845,30.6a1,1,0,0,0-1.081-.077,11.939,11.939,0,0,1-2.4.987,1,1,0,0,0-.71.818L38.133,36H33.867l-.524-3.67a1,1,0,0,0-.71-.818,11.939,11.939,0,0,1-2.4-.987,1,1,0,0,0-1.081.077l-2.961,2.22-3.016-3.016,2.22-2.961a1,1,0,0,0,.077-1.081,11.9,11.9,0,0,1-.987-2.4,1,1,0,0,0-.819-.71L20,22.133Z"></path><rect x="35" y="6" width="2" height="2"></rect><rect x="25.808" y="9.808" width="2" height="2" transform="translate(0.21 22.121) rotate(-45)"></rect><rect x="25.808" y="28.192" width="2" height="2" transform="translate(-12.79 27.506) rotate(-45)"></rect><rect x="35" y="32" width="2" height="2"></rect><rect x="44.192" y="28.192" width="2" height="2" transform="translate(-7.406 40.506) rotate(-45)"></rect><rect x="44.192" y="9.808" width="2" height="2" transform="translate(5.594 35.121) rotate(-45)"></rect><path d="M36,28a8,8,0,1,0-8-8A8.009,8.009,0,0,0,36,28Zm0-14a6,6,0,1,1-6,6A6.006,6.006,0,0,1,36,14Z"></path><rect x="22" y="19" width="2" height="2"></rect><rect x="48" y="19" width="2" height="2"></rect></g></svg>