<svg xmlns="http://www.w3.org/2000/svg" viewBox="0 0 64 64" x="0px" y="0px"><g data-name="Bullet"><path d="M26.36,12H37.64l-.21-2.944a5.444,5.444,0,0,0-10.86,0Z"></path><polygon points="26.074 16 37.926 16 37.783 14 26.217 14 26.074 16"></polygon><rect x="25" y="58" width="14" height="2"></rect><rect x="25" y="18" width="14" height="34"></rect><rect x="27" y="54" width="10" height="2"></rect><polygon points="46.074 16 57.926 16 57.783 14 46.217 14 46.074 16"></polygon><rect x="45" y="18" width="14" height="34"></rect><path d="M46.36,12H57.64l-.21-2.944a5.444,5.444,0,0,0-10.86,0Z"></path><rect x="45" y="58" width="14" height="2"></rect><rect x="47" y="54" width="10" height="2"></rect><rect x="5" y="58" width="14" height="2"></rect><path d="M6.36,12H17.64l-.21-2.944a5.444,5.444,0,0,0-10.86,0Z"></path><polygon points="6.074 16 17.926 16 17.783 14 6.217 14 6.074 16"></polygon><rect x="5" y="18" width="14" height="34"></rect><rect x="7" y="54" width="10" height="2"></rect></g></svg>