<svg xmlns="http://www.w3.org/2000/svg" viewBox="0 0 64 64" x="0px" y="0px"><title>Fix-Repair-Book</title><g><path d="M15,12H53V37h2V3a1,1,0,0,0-1-1H14A5.006,5.006,0,0,0,9,7V57a5.006,5.006,0,0,0,5,5H40V60H15ZM14,4H53V6H15V8H53v2H14a3,3,0,0,1,0-6ZM11,57V10.974a4.954,4.954,0,0,0,2,.925V59.816A3,3,0,0,1,11,57Z"></path><path d="M20,16a1,1,0,0,0-1,1V27a1,1,0,0,0,1,1H48a1,1,0,0,0,1-1V17a1,1,0,0,0-1-1ZM47,26H21V18H47Z"></path><path d="M58.335,43.445a1,1,0,0,0-1.674.089l-1.8,3.11-1.732-1,1.8-3.11a1,1,0,0,0-.76-1.494,6,6,0,0,0-5.862,8.965L44.4,56.768a3,3,0,1,0,5.2,3L53.5,53.005a6,6,0,0,0,4.832-9.56ZM56.964,49.01a3.991,3.991,0,0,1-3.91,1.969,1.013,1.013,0,0,0-.977.495l-4.211,7.294a1,1,0,0,1-1.732-1l4.212-7.294a1,1,0,0,0-.061-1.093,3.993,3.993,0,0,1,1.939-6.161L50.9,45.51a1,1,0,0,0,.366,1.366l3.464,2A1,1,0,0,0,56.1,48.51l1.322-2.29A4.011,4.011,0,0,1,56.964,49.01Z"></path></g></svg>