<svg xmlns="http://www.w3.org/2000/svg" viewBox="0 0 64 64" x="0px" y="0px"><g><path d="M53,9V30H11V9a1,1,0,0,1,1-1h9.87a1.077,1.077,0,0,0,.23.34l1.78,1.79q-.195.42-.36.87H21a1,1,0,0,0-1,1v4a1,1,0,0,0,1,1h2.52q.165.45.36.87L22.1,19.66a1,1,0,0,0,0,1.41l2.83,2.83a1,1,0,0,0,1.41,0l1.79-1.78q.42.195.87.36V25a1,1,0,0,0,1,1h4a1,1,0,0,0,1-1V22.48q.45-.165.87-.36l1.79,1.78a1,1,0,0,0,1.41,0l2.83-2.83a1,1,0,0,0,0-1.41l-1.78-1.79q.2-.42.36-.87H43a1,1,0,0,0,1-1V12a1,1,0,0,0-1-1H40.48q-.165-.45-.36-.87L41.9,8.34A.892.892,0,0,0,42.13,8H52A1,1,0,0,1,53,9Z"></path><path d="M11,35a1,1,0,0,0,1,1H52a1,1,0,0,0,1-1V32H11Zm36-2h2v2H47Z"></path><circle cx="32" cy="14" r="3"></circle><path d="M39.778,7.636,38.364,6.222l-1.6,1.6a1,1,0,0,1-1.216.154,6.982,6.982,0,0,0-1.8-.745A1,1,0,0,1,33,6.262V4H31V6.262a1,1,0,0,1-.75.968,7,7,0,0,0-1.8.745,1,1,0,0,1-1.216-.154l-1.6-1.6L24.222,7.636l1.6,1.6a1,1,0,0,1,.154,1.216,7,7,0,0,0-.745,1.8,1,1,0,0,1-.968.75H22v2h2.262a1,1,0,0,1,.968.75,6.976,6.976,0,0,0,.745,1.8,1,1,0,0,1-.154,1.216l-1.6,1.6,1.414,1.414,1.6-1.6a1,1,0,0,1,1.216-.154,6.955,6.955,0,0,0,1.8.745,1,1,0,0,1,.75.968V24h2V21.738a1,1,0,0,1,.751-.968,6.963,6.963,0,0,0,1.8-.745,1,1,0,0,1,1.216.154l1.6,1.6,1.414-1.414-1.6-1.6a1,1,0,0,1-.155-1.216,7.01,7.01,0,0,0,.747-1.8,1,1,0,0,1,.967-.75H42V13H39.738a1,1,0,0,1-.967-.75,7,7,0,0,0-.747-1.8,1,1,0,0,1,.155-1.216ZM32,19a5,5,0,1,1,5-5A5.006,5.006,0,0,1,32,19Z"></path><rect x="23" y="44" width="18" height="2"></rect><rect x="28" y="38" width="8" height="4"></rect><path d="M11.414,56H52.586l-4-4H15.414ZM46,53h2v2H46Zm-4,0h2v2H42ZM24,53H40v2H24Zm-4,0h2v2H20Zm-4,0h2v2H16Z"></path><rect x="10" y="58" width="44" height="2"></rect><path d="M19,50H17V48a1,1,0,0,0-1-1H10a3,3,0,0,1,0-6h6a1,1,0,0,0,1-1V38h2v2a3,3,0,0,1-3,3H10a1,1,0,0,0,0,2h6a3,3,0,0,1,3,3Z"></path></g></svg>