<svg xmlns="http://www.w3.org/2000/svg" viewBox="0 0 64 64" x="0px" y="0px"><g><path d="M39,55a1,1,0,0,0-1-1H26a1,1,0,0,0,0,2H38A1,1,0,0,0,39,55Z"></path><path d="M29.586,40,31,38.586V23.414L29.586,22H27.414L27,22.414v1.172l1.707,1.707A1,1,0,0,1,29,26v2H27V26.414l-1.307-1.307L23,25.781V27h1v2H22.236L21,29.618v2.661l1.73.577L24,31.586V31h2v1a1,1,0,0,1-.293.707L24,34.414v2.172l.414.414H26a1,1,0,0,1,.832.445L28.535,40Zm-2.293-4.293A1,1,0,0,1,27,35V32h2v2.586l.707.707-1.414,1.414Z"></path><path d="M54.339,26.528a23.314,23.314,0,0,0-1.09-3.339,22.667,22.667,0,0,0-1.12-2.291c-.153-.276-.3-.557-.462-.826l-.361-.591,3.4-4.369-5.821-5.82-4.368,3.4-.591-.361c-.266-.163-.545-.306-.818-.457a22.515,22.515,0,0,0-2.3-1.125,23.19,23.19,0,0,0-3.339-1.09L36.8,9.5,36.117,4H27.883L27.2,9.5l-.669.163a23.19,23.19,0,0,0-3.339,1.09,22.515,22.515,0,0,0-2.3,1.125c-.273.151-.552.294-.818.457l-.591.361-4.368-3.4-5.821,5.82,3.4,4.369-.361.591c-.164.269-.309.55-.462.826a22.667,22.667,0,0,0-1.12,2.291,23.314,23.314,0,0,0-1.09,3.339L9.5,27.2,4,27.883v8.234l5.5.686.163.669a23.231,23.231,0,0,0,1.091,3.342A22.806,22.806,0,0,0,11.814,43c.17.311.334.627.519.929l.361.591-3.4,4.368,5.821,5.821,4.369-3.4.591.363c.043.026.088.05.132.076q.564.338,1.148.644.762.4,1.558.739a2.959,2.959,0,0,1-.019-4.253A2.85,2.85,0,0,1,24,48.181V46a17,17,0,1,1,16,0v2.181A3,3,0,0,1,42,51a2.94,2.94,0,0,1-.882,2.114q.78-.334,1.528-.726.585-.306,1.15-.644c.043-.026.088-.05.131-.076l.591-.363,4.369,3.4,5.821-5.821-3.4-4.368.361-.591c.185-.3.349-.618.519-.929a22.806,22.806,0,0,0,1.062-2.185,23.231,23.231,0,0,0,1.091-3.342L54.5,36.8l5.5-.686V27.883L54.5,27.2ZM12,33H10V31h2Zm5.151,12.435,1.414,1.414-1.414,1.414-1.414-1.414Zm0-26.87-1.414-1.414,1.414-1.414,1.414,1.414ZM33,12H31V10h2Zm13.849,6.565-1.414-1.414,1.414-1.414,1.414,1.414Zm0,29.7-1.414-1.414,1.414-1.414,1.414,1.414ZM54,33H52V31h2Z"></path><path d="M25,52H39a.957.957,0,0,0,.694-.288A.974.974,0,0,0,40,51a1,1,0,0,0-1-1H25a.957.957,0,0,0-.694.288A.974.974,0,0,0,24,51,1,1,0,0,0,25,52Z"></path><path d="M27.184,58A3,3,0,0,0,30,60h4a3,3,0,0,0,2.816-2Z"></path><path d="M35.465,40l1.7-2.555A1,1,0,0,1,38,37h1.586L40,36.586V34.414l-1.707-1.707A1,1,0,0,1,38,32V31h2v.586l1.27,1.27L43,32.279V29.618L41.764,29H40V27h1V25.781l-2.693-.674L37,26.414V28H35V26a1,1,0,0,1,.293-.707L37,23.586V22.414L36.586,22H34.414L33,23.414V38.586L34.414,40ZM35,34.586V32h2v3a1,1,0,0,1-.293.707l-1,1-1.414-1.414Z"></path><path d="M38,48V45.39a1,1,0,0,1,.563-.9,15,15,0,1,0-13.126,0,1,1,0,0,1,.563.9V48ZM25.465,39H24a1,1,0,0,1-.707-.293l-1-1A1,1,0,0,1,22,37V34.721l-2.316-.772A1,1,0,0,1,19,33V29a1,1,0,0,1,.553-.895L21,27.382V25a1,1,0,0,1,.757-.97L25,23.219V22a1,1,0,0,1,.293-.707l1-1A1,1,0,0,1,27,20h3a1,1,0,0,1,.707.293L32,21.586l1.293-1.293A1,1,0,0,1,34,20h3a1,1,0,0,1,.707.293l1,1A1,1,0,0,1,39,22v1.219l3.243.811A1,1,0,0,1,43,25v2.382l1.447.723A1,1,0,0,1,45,29v4a1,1,0,0,1-.684.949L42,34.721V37a1,1,0,0,1-.293.707l-1,1A1,1,0,0,1,40,39H38.535l-1.7,2.555A1,1,0,0,1,36,42H34a1,1,0,0,1-.707-.293L32,40.414l-1.293,1.293A1,1,0,0,1,30,42H28a1,1,0,0,1-.832-.445Z"></path></g></svg>