<svg xmlns="http://www.w3.org/2000/svg" viewBox="0 0 64 64" x="0px" y="0px"><g><path d="M60,32A12.01,12.01,0,0,1,48,44H33V26H31V44H13a9,9,0,0,1-2.6-17.62.987.987,0,0,0,.71-.82A11.007,11.007,0,0,1,22,16c.15,0,.3.01.45.02l.21.01a1.017,1.017,0,0,0,.95-.53,13.985,13.985,0,0,1,26.15,3.98.994.994,0,0,0,.77.79A12.053,12.053,0,0,1,60,32Z"></path><path d="M31,44v4.586l-4.293-4.293-1.414,1.414,6,6a1,1,0,0,0,1.414,0l6-6-1.414-1.414L33,48.586V44Z"></path><path d="M40,54H24V53H22v2a1,1,0,0,0,1,1H41a1,1,0,0,0,1-1V53H40Z"></path></g></svg>