<svg xmlns="http://www.w3.org/2000/svg" viewBox="0 0 64 64" x="0px" y="0px"><g data-name="Cloud Computing-Smartphone-Cloud-Dowload-Technology"><path d="M46,2H18a6.006,6.006,0,0,0-6,6V56a6.006,6.006,0,0,0,6,6H46a6.006,6.006,0,0,0,6-6V8A6.006,6.006,0,0,0,46,2Zm4,54a4,4,0,0,1-4,4H18a4,4,0,0,1-4-4V8a4,4,0,0,1,4-4H46a4,4,0,0,1,4,4Z"></path><path d="M34,52H30a3,3,0,0,0,0,6h4a3,3,0,0,0,0-6Zm0,4H30a1,1,0,0,1,0-2h4a1,1,0,0,1,0,2Z"></path><rect x="25" y="6" width="2" height="2"></rect><rect x="29" y="6" width="6" height="2"></rect><path d="M43.735,20.265A5.99,5.99,0,0,0,38,16a5.8,5.8,0,0,0-2.244.452A7.942,7.942,0,0,0,30,14a8.038,8.038,0,0,0-7.738,6H22a6,6,0,0,0,0,12h2v4.586L22.285,38.3A2.951,2.951,0,0,0,21,38a3,3,0,1,0,3,3,2.951,2.951,0,0,0-.3-1.285l2.008-2.008A1,1,0,0,0,26,37V32h5v8.184a3,3,0,1,0,2,0V32h5v5a1,1,0,0,0,.293.707L40.3,39.715A2.951,2.951,0,0,0,40,41a3,3,0,1,0,3-3,2.951,2.951,0,0,0-1.285.3L40,36.586V32h2a6,6,0,0,0,1.735-11.735ZM21,42a1,1,0,1,1,1-1A1,1,0,0,1,21,42Zm11,2a1,1,0,1,1,1-1A1,1,0,0,1,32,44Zm12-3a1,1,0,1,1-1-1A1,1,0,0,1,44,41ZM42,30H22a4,4,0,0,1,0-8h1.08a1,1,0,0,0,.989-.858,5.989,5.989,0,0,1,10.652-2.836,1,1,0,0,0,1.288.249A3.936,3.936,0,0,1,38,18a3.993,3.993,0,0,1,3.925,3.273,1,1,0,0,0,.8.8A4,4,0,0,1,42,30Z"></path><path d="M41,26v2a3,3,0,0,0,3-3H42A1,1,0,0,1,41,26Z"></path><rect x="37" y="26" width="2" height="2"></rect></g></svg>