<svg xmlns="http://www.w3.org/2000/svg" viewBox="0 0 64 64" x="0px" y="0px"><g><rect x="34" y="12" width="16" height="4"></rect><path d="M44,32A12,12,0,1,0,56,44,12.01,12.01,0,0,0,44,32Zm0,15a3.01,3.01,0,0,1-2.82-2H36V43h5.18A3.035,3.035,0,0,1,43,41.18V34h2v7.18A3,3,0,0,1,44,47Z"></path><circle cx="44" cy="44" r="1"></circle><path d="M50,5a1,1,0,0,0-1-1H34v6H50Z"></path><rect x="22" y="4" width="10.001" height="18"></rect><path d="M20,4H5A1,1,0,0,0,4,5v5H20Z"></path><rect x="4" y="12" width="16" height="4"></rect><path d="M44,28A16,16,0,1,0,60,44,16.021,16.021,0,0,0,44,28Zm0,30A14,14,0,1,1,58,44,14.015,14.015,0,0,1,44,58Z"></path><path d="M34,18v4a2.006,2.006,0,0,1-2,2H22a2.006,2.006,0,0,1-2-2V18H4V49a1,1,0,0,0,1,1H27.03A17.8,17.8,0,0,1,26,44,18.021,18.021,0,0,1,44,26a17.8,17.8,0,0,1,6,1.03V18ZM10,40h2v2H10Zm8,6H10V44h8Zm0-4H14V40h4Z"></path></g></svg>