<svg xmlns="http://www.w3.org/2000/svg" viewBox="0 0 32 32" x="0px" y="0px"><title>File Text_12</title><g data-name="File Text"><path d="M27.99,7.944a1.494,1.494,0,0,0-.067-.316.985.985,0,0,0-.164-.279l-6-7a.978.978,0,0,0-.306-.231c-.03-.015-.059-.026-.09-.039A1,1,0,0,0,21.044.01C21.029.009,21.015,0,21,0H5A1,1,0,0,0,4,1V31a1,1,0,0,0,1,1H27a1,1,0,0,0,1-1V8C28,7.981,27.991,7.963,27.99,7.944ZM22,3.7,24.826,7H22ZM26,30H6V2H20V8a1,1,0,0,0,1,1h5Z"></path><rect x="8" y="11" width="2" height="2"></rect><rect x="12" y="11" width="12" height="2"></rect><rect x="8" y="15" width="2" height="2"></rect><rect x="12" y="15" width="12" height="2"></rect><rect x="8" y="19" width="2" height="2"></rect><rect x="12" y="19" width="12" height="2"></rect></g></svg>