<svg xmlns="http://www.w3.org/2000/svg" viewBox="0 0 64 64" x="0px" y="0px"><g data-name="Coffee Cup-Coffee-Book-Hot Drink-Drink"><path d="M30.659,9.752C32.693,7.972,35,5.954,35,2H33c0,3.046-1.7,4.53-3.659,6.248C27.307,10.028,25,12.046,25,16h2C27,12.954,28.7,11.47,30.659,9.752Z"></path><path d="M35,16c0-3.046,1.7-4.53,3.658-6.248C40.693,7.972,43,5.954,43,2H41c0,3.046-1.7,4.53-3.658,6.248C35.307,10.028,33,12.046,33,16Z"></path><path d="M53,44H42.28l.5-2H45a3.009,3.009,0,0,0,3-3V37a1,1,0,0,0-1-1H41.47a8.431,8.431,0,0,0,.46-2H43a7,7,0,0,0,0-14H19a1,1,0,0,0-1,1V33a8.981,8.981,0,0,0,.53,3H13a1,1,0,0,0-1,1v2a3.009,3.009,0,0,0,3,3h2.22l.5,2H3a1,1,0,0,0-1,1v4a1,1,0,0,0,1,1H5a3,3,0,0,1,0,6H3a1,1,0,0,0-1,1v4a1,1,0,0,0,1,1H53a9,9,0,0,0,0-18ZM42,26h1a1,1,0,0,1,0,2H42Zm0,4h1a3,3,0,0,0,0-6H42V22h1a5,5,0,0,1,0,10H42ZM20,22H40V33a6.983,6.983,0,0,1-.69,3H20.69A7.017,7.017,0,0,1,20,33ZM15,40a1,1,0,0,1-1-1V38H46v1a1,1,0,0,1-1,1Zm25.72,2-.5,2H19.78l-.5-2ZM4,48V46H50v2Zm5.9,4a4.84,4.84,0,0,0-.93-2H53a3.01,3.01,0,0,1,2.82,2Zm45.92,2A3.01,3.01,0,0,1,53,56H8.97a4.84,4.84,0,0,0,.93-2ZM50,60H4V58H50Zm3,0H52V58h1a5,5,0,0,0,0-10H52V46h1a7,7,0,0,1,0,14Z"></path></g></svg>