<svg xmlns="http://www.w3.org/2000/svg" viewBox="0 0 64 64" x="0px" y="0px"><title>Unlock-Key-Password-Book</title><g><path d="M15,12H53V33h2V3a1,1,0,0,0-1-1H14A5.006,5.006,0,0,0,9,7V57a5.006,5.006,0,0,0,5,5H40V60H15ZM14,4H53V6H15V8H53v2H14a3,3,0,0,1,0-6ZM11,57V10.974a4.954,4.954,0,0,0,2,.925V59.816A3,3,0,0,1,11,57Z"></path><path d="M20,16a1,1,0,0,0-1,1V27a1,1,0,0,0,1,1H48a1,1,0,0,0,1-1V17a1,1,0,0,0-1-1ZM47,26H21V18H47Z"></path><path d="M52,46a7.945,7.945,0,0,0-3,.589V42a3,3,0,0,1,6,0h2a5,5,0,1,0-10,0v5.765A7.991,7.991,0,1,0,52,46Zm0,14a6,6,0,1,1,6-6A6.006,6.006,0,0,1,52,60Z"></path><path d="M52,50a1.994,1.994,0,0,0-1,3.722V58h2V53.722A1.994,1.994,0,0,0,52,50Z"></path></g></svg>