<svg xmlns="http://www.w3.org/2000/svg" viewBox="0 0 64 64" x="0px" y="0px"><g><path d="M59,2a3,3,0,0,0-3,3V8H8V5A3,3,0,0,0,2,5V61a1,1,0,0,0,1,1H7a1,1,0,0,0,1-1V14h7V61a1,1,0,0,0,2,0V54H47v7a1,1,0,0,0,2,0V14h7V61a1,1,0,0,0,1,1h4a1,1,0,0,0,1-1V5A3,3,0,0,0,59,2Zm1,50H58V50h2Zm-2,2h2v2H58Zm2-42H58V10h2ZM58,5a1,1,0,0,1,2,0V8H58ZM47,12H41V10h6Zm-8,0H33V10h6ZM31,22v6H25V22Zm-6-2V14h6v6ZM47,36H41V30h6Zm-8,0H33V30h6Zm-8,0H25V30h6ZM17,30h6v6H17Zm6-2H17V22h6ZM17,38h6v6H17Zm8,0h6v6H25Zm8,0h6v6H33Zm8,0h6v6H41Zm6-10H41V22h6Zm-8,0H33V22h6Zm-6-8V14h6v6Zm-2-8H25V10h6Zm-8-2v2H17V10ZM5,4A1,1,0,0,1,6,5V8H4V5A1,1,0,0,1,5,4ZM4,10H6v2H4ZM4,54H6v2H4Zm2-2H4V50H6Zm0,8H4V58H6ZM6,48H4V14H6ZM8,10h7v2H8Zm15,4v6H17V14ZM17,46h6v6H17Zm8,0h6v6H25Zm8,6V46h6v6Zm8,0V46h6v6Zm6-32H41V14h6Zm2-8V10h7v2Zm11,2V48H58V14Zm0,46H58V58h2Z"></path></g></svg>