<svg xmlns="http://www.w3.org/2000/svg" viewBox="0 0 64 64" x="0px" y="0px"><g><path d="M17.078,24H15.453a1,1,0,0,1-.951-.691L14,21.764l-.5,1.545a1,1,0,0,1-.951.691H10.922l1.314.955a1,1,0,0,1,.364,1.118l-.5,1.545,1.314-.955a1,1,0,0,1,1.176,0l1.314.955-.5-1.545a1,1,0,0,1,.364-1.118Z"></path><polygon points="24.133 56 35.867 56 35.117 50 24.883 50 24.133 56"></polygon><path d="M21,60H39a1,1,0,0,0,0-2H21a1,1,0,0,0,0,2Z"></path><path d="M40,42H4v3a3,3,0,0,0,3,3H40Z"></path><path d="M58,60V56a1.012,1.012,0,0,1,.071-.372L60,50.808V40a1,1,0,0,0-2,0v2H56V39a1,1,0,0,0-2,0v3H52V38a1,1,0,0,0-2,0v4H48V28a.622.622,0,0,0-.01-.118.8.8,0,0,0-.085-.3,1.036,1.036,0,0,0-.2-.291A.967.967,0,0,0,47,27a1,1,0,0,0-1,1V46H44V40a1,1,0,0,0-2,0V50.649l3.781,4.726A1,1,0,0,1,46,56v4Z"></path><path d="M44.522,26.312a2.976,2.976,0,0,1,3.118-1.24.945.945,0,0,1,.123-.122L49.074,24H47.45a1,1,0,0,1-.951-.691L46,21.771l-.5,1.538A1,1,0,0,1,44.55,24H42.926l1.311.95a1,1,0,0,1,.365,1.118Z"></path><path d="M33.078,24H31.453a1,1,0,0,1-.951-.691L30,21.764l-.5,1.545a1,1,0,0,1-.951.691H26.922l1.314.955a1,1,0,0,1,.364,1.118l-.5,1.545,1.314-.955a1,1,0,0,1,1.176,0l1.314.955-.5-1.545a1,1,0,0,1,.364-1.118Z"></path><path d="M44,37.184V30.166l-1.211.882a1,1,0,0,1-1.54-1.116l1.227-3.788L39.253,23.81A1,1,0,0,1,39.84,22h3.983l1.226-3.779a1,1,0,0,1,1.9,0L48.177,22H52.16a1,1,0,0,1,.587,1.81l-3.224,2.335.2.61a2.432,2.432,0,0,1,.2.624l.828,2.553a1,1,0,0,1-.363,1.117.976.976,0,0,1-.388.16v3.975A2.94,2.94,0,0,1,53.529,36.4,2.863,2.863,0,0,1,56,36.184V13a3,3,0,0,0-3-3H7a3,3,0,0,0-3,3V40H40a3,3,0,0,1,3-3A2.966,2.966,0,0,1,44,37.184ZM20.743,23.809l-3.216,2.337,1.229,3.781a1,1,0,0,1-1.539,1.118L14,28.708l-3.217,2.337a1,1,0,0,1-1.539-1.118l1.229-3.781L7.257,23.809A1,1,0,0,1,7.845,22H11.82l1.229-3.781a1,1,0,0,1,1.9,0L16.18,22h3.975a1,1,0,0,1,.588,1.809Zm16,0-3.216,2.337,1.229,3.781a1,1,0,0,1-1.539,1.118L30,28.708l-3.217,2.337a1,1,0,0,1-1.539-1.118l1.229-3.781-3.216-2.337A1,1,0,0,1,23.845,22H27.82l1.229-3.781a1,1,0,0,1,1.9,0L32.18,22h3.975a1,1,0,0,1,.588,1.809Z"></path></g></svg>