<svg xmlns="http://www.w3.org/2000/svg" viewBox="0 0 64 64" x="0px" y="0px"><g data-name="Speech Bubble"><path d="M61.447,31.105,54,27.382V20a3,3,0,0,0-3-3H5a3,3,0,0,0-3,3V44a3,3,0,0,0,3,3H51a3,3,0,0,0,3-3V36.618L61.447,32.9a1,1,0,0,0,0-1.79Zm-8.894,4A1,1,0,0,0,52,36v8a1,1,0,0,1-1,1H5a1,1,0,0,1-1-1V20a1,1,0,0,1,1-1H51a1,1,0,0,1,1,1v8a1,1,0,0,0,.553.895L58.764,32Z"></path><rect x="13" y="25" width="2" height="2"></rect><rect x="17" y="25" width="2" height="2"></rect><rect x="21" y="25" width="22" height="2"></rect><rect x="13" y="31" width="22" height="2"></rect><rect x="37" y="31" width="2" height="2"></rect><rect x="41" y="31" width="2" height="2"></rect><rect x="13" y="37" width="30" height="2"></rect></g></svg>