<svg xmlns="http://www.w3.org/2000/svg" viewBox="0 0 64 64" x="0px" y="0px"><g><rect x="40" y="8" width="2" height="2"></rect><rect x="36" y="8" width="2" height="2"></rect><rect x="44" y="8" width="2" height="2"></rect><rect x="48" y="8" width="2" height="2"></rect><rect x="48" y="12" width="2" height="2"></rect><rect x="48" y="16" width="2" height="2"></rect><rect x="48" y="20" width="2" height="2"></rect><rect x="48" y="24" width="2" height="2"></rect><rect x="48" y="28" width="2" height="2"></rect><rect x="28" y="53" width="2" height="2"></rect><rect x="32" y="53" width="2" height="2"></rect><rect x="36" y="53" width="2" height="2"></rect><rect x="24" y="53" width="2" height="2"></rect><rect x="20" y="53" width="2" height="2"></rect><rect x="16" y="53" width="2" height="2"></rect><rect x="16" y="49" width="2" height="2"></rect><rect x="16" y="45" width="2" height="2"></rect><rect x="16" y="41" width="2" height="2"></rect><rect x="16" y="37" width="2" height="2"></rect><rect x="16" y="33" width="2" height="2"></rect><rect x="16" y="29" width="2" height="2"></rect><path d="M18,14a4,4,0,1,0-4-4A4,4,0,0,0,18,14Zm0-6a2,2,0,1,1-2,2A2,2,0,0,1,18,8Z"></path><path d="M33,2H3A1,1,0,0,0,2,3V26a1,1,0,0,0,1,1H33a1,1,0,0,0,1-1V3A1,1,0,0,0,33,2ZM8.91,4H27.09A6.008,6.008,0,0,0,32,8.91v2.18A6.008,6.008,0,0,0,27.09,16H8.91A6.008,6.008,0,0,0,4,11.09V8.91A6.008,6.008,0,0,0,8.91,4ZM32,16H29.126A4.015,4.015,0,0,1,32,13.127Zm0,3H4V18H32ZM4,16V13.127A4.015,4.015,0,0,1,6.874,16Zm0,5H32v1H4ZM32,4V6.873A4.015,4.015,0,0,1,29.126,4ZM4,4H6.874A4.015,4.015,0,0,1,4,6.873ZM32,25H4V24H32Z"></path><path d="M52.119,46.093A6.931,6.931,0,0,0,51,46H47a7.02,7.02,0,0,0-7,7v7a2,2,0,0,0,2,2H56a2,2,0,0,0,2-2V53A6.965,6.965,0,0,0,52.119,46.093ZM50.479,48,49,51.457,47.521,48ZM42,53a4.965,4.965,0,0,1,3.455-4.744L48,54.205V60H42Zm14,7H50v-5.8l2.545-5.949A4.965,4.965,0,0,1,56,53Z"></path><rect x="52" y="52" width="2" height="2"></rect><path d="M54,41V39a1,1,0,0,0,1-1V37a5.006,5.006,0,0,0-5-5H48a5.006,5.006,0,0,0-5,5v1a1,1,0,0,0,1,1v2a5,5,0,0,0,10,0Zm-6-7h2a3,3,0,0,1,3,3H49.236l-1.789-.9a1,1,0,0,0-1.154.188L45.586,37H45A3,3,0,0,1,48,34Zm1,10a3,3,0,0,1-3-3V39a1,1,0,0,0,.707-.293l.49-.49,1.356.678A1,1,0,0,0,49,39h3v2A3,3,0,0,1,49,44Z"></path></g></svg>