<svg xmlns="http://www.w3.org/2000/svg" viewBox="0 0 64 64" x="0px" y="0px"><g data-name="Online Support-Ecommerce-Merchant-Seller-Operator"><path d="M19,30H12.3A6,6,0,0,1,15,35a5.922,5.922,0,0,1-.53,2.45l.83.55H18v2H15a.967.967,0,0,1-.55-.17l-1.09-.72a6.086,6.086,0,0,1-2.21,1.49A6,6,0,0,0,21,36V32A2.006,2.006,0,0,0,19,30Z"></path><path d="M17.47,49.57l-2.81-1.61-5.43-.91L6.26,49.03A3.985,3.985,0,0,1,10,53v7H21V55.64A7,7,0,0,0,17.47,49.57Z"></path><path d="M10,23a1,1,0,0,0-2,0v1a3,3,0,0,0-3,3v3.54a3.092,3.092,0,0,1,.39-.33,3.713,3.713,0,0,1,.41-.28A2.263,2.263,0,0,1,6,29.8,5.949,5.949,0,0,1,9,29a5.47,5.47,0,0,1,1,.09V28h8a3.009,3.009,0,0,0,3-3V24H10Z"></path><path d="M12.76,36.31A3.849,3.849,0,0,0,13,35a4.024,4.024,0,0,0-2.41-3.68A3.988,3.988,0,0,0,5.8,32.6,3.959,3.959,0,0,0,5,35a3.979,3.979,0,0,0,6.65,2.97l-3.2-2.14,1.1-1.66Z"></path><path d="M6,51V49.2l-.67.44A3.008,3.008,0,0,0,4,52.14V56H8V53A2.006,2.006,0,0,0,6,51Z"></path><rect x="4" y="58" width="4" height="2"></rect><path d="M14,43.93a7.9,7.9,0,0,1-4-1.69v2.91l4,.67Z"></path><path d="M47,20a2,2,0,0,0-4,0v2h4Z"></path><path d="M47,48H43a1,1,0,0,0,0,2h4a1,1,0,0,0,0-2Z"></path><path d="M49,24v2H47V24H43v2H41V24H38.93l-.78,10.93a.949.949,0,0,0,.27.75.97.97,0,0,0,.73.32h11.7a.97.97,0,0,0,.73-.32.949.949,0,0,0,.27-.75L51.07,24Z"></path><path d="M56,4H34a5,5,0,0,0-5,5V49a5,5,0,0,0,5,5H56a5,5,0,0,0,5-5V9A5,5,0,0,0,56,4ZM41,6h8V8H41ZM37,6h2V8H37ZM47,52H43a3,3,0,0,1,0-6h4a3,3,0,0,1,0,6Zm6.05-14.96a3.021,3.021,0,0,1-2.2.96H39.15a3,3,0,0,1-2.99-3.21L37,22.93A1.011,1.011,0,0,1,38,22h3V20a4,4,0,0,1,8,0v2h3a1.011,1.011,0,0,1,1,.93l.84,11.86A3,3,0,0,1,53.05,37.04Z"></path><path d="M20,3H4A1,1,0,0,0,3,4V14a1,1,0,0,0,1,1h8l2,4,2-4h4a1,1,0,0,0,1-1V4A1,1,0,0,0,20,3Zm-3,9H7V10H17Zm0-4H7V6H17Z"></path></g></svg>