<svg xmlns="http://www.w3.org/2000/svg" viewBox="0 0 64 64" x="0px" y="0px"><g><rect x="30" y="19" width="4" height="1"></rect><path d="M40,23.535,37.7,22H26.3L24,23.535V30h2.09a5.993,5.993,0,0,1,11.82,0H40Z"></path><path d="M32,27a4,4,0,0,0-3.858,3h7.716A4,4,0,0,0,32,27Z"></path><polygon points="25.618 34 38.382 34 39.382 32 24.618 32 25.618 34"></polygon><path d="M53,10H37a3.009,3.009,0,0,1,3,3v6a3.024,3.024,0,0,1-.57,1.75L41.3,22H42a5,5,0,0,1,5,5v.18A3.01,3.01,0,0,1,49,30H47a1,1,0,0,0-2,0H43a3.01,3.01,0,0,1,2-2.82V27a3.009,3.009,0,0,0-3-3v7a1,1,0,0,1-.11.45l-2,4A.977.977,0,0,1,39,36H25a.977.977,0,0,1-.89-.55l-2-4A1,1,0,0,1,22,31V24a3.009,3.009,0,0,0-3,3v.18A3.01,3.01,0,0,1,21,30H19a1,1,0,0,0-2,0H15a3.01,3.01,0,0,1,2-2.82V27a5,5,0,0,1,5-5h.7l1.87-1.25A3.024,3.024,0,0,1,24,19V13a3.009,3.009,0,0,1,3-3H11a1,1,0,0,0-1,1V42H54V11A1,1,0,0,0,53,10ZM52,39a1,1,0,0,1-1,1H13a1,1,0,0,1-1-1V13a1,1,0,0,1,1-1h9v2H14V38H50V14H42V12h9a1,1,0,0,1,1,1Z"></path><path d="M37,12H27a1,1,0,0,0-1,1v6a1,1,0,0,0,1,1h1V18a1,1,0,0,1,1-1h6a1,1,0,0,1,1,1v2h1a1,1,0,0,0,1-1V13A1,1,0,0,0,37,12Zm-7,4H28V14h2Zm6,0H34V14h2Z"></path><path d="M4,60H60V56H37v1a2,2,0,0,1-2,2H29a2,2,0,0,1-2-2V56H4Z"></path><rect x="29" y="56" width="6" height="1"></rect><path d="M54.38,44H9.62l-5,10H59.38ZM43,46h2v2H43Zm-4,0h2v2H39Zm-4,0h2v2H35Zm-4,0h2v2H31Zm-4,0h2v2H27Zm-4,0h2v2H23Zm-4,0h2v2H19Zm-7,6H10V50h2Zm1-4H11V46h2Zm3,4H14V50h2Zm1-4H15V46h2Zm29,4H18V50H46Zm1-6h2v2H47Zm3,6H48V50h2Zm1-6h2v2H51Zm3,6H52V50h2Z"></path><rect x="58" y="30" width="2" height="2"></rect><rect x="4" y="30" width="2" height="2"></rect><rect x="4" y="24" width="2" height="2"></rect><rect x="4" y="18" width="2" height="2"></rect><rect x="58" y="24" width="2" height="2"></rect><rect x="58" y="18" width="2" height="2"></rect><rect x="57" y="5" width="2" height="2"></rect><rect x="5" y="5" width="2" height="2"></rect><path d="M34,5a2,2,0,1,0-3,1.721V8h2V6.721A2,2,0,0,0,34,5Z"></path></g></svg>