<svg xmlns="http://www.w3.org/2000/svg" viewBox="0 0 64 64" x="0px" y="0px"><g><path d="M23,28.9v.687l1,1,1-1V28.9a5,5,0,0,1-2,0Z"></path><path d="M17,36v4h1V35h2v5h8V35h2v5h1V36a4.991,4.991,0,0,0-4.624-4.962L25,32.414V36H23V32.414l-1.376-1.376A4.991,4.991,0,0,0,17,36Z"></path><polygon points="46.586 42 17.414 42 32 56.586 46.586 42"></polygon><path d="M56.042,11.331a15,15,0,0,0-21.214,0l-2.121,2.121a1,1,0,0,1-1.414,0l-2.121-2.121A15,15,0,0,0,7.958,32.544L15,39.586V36a7.011,7.011,0,0,1,6-6.929v-1.1A4.977,4.977,0,0,1,19,24V23a1,1,0,0,1-1-1V20a6,6,0,0,1,12,0v2a1,1,0,0,1-1,1v1a4.977,4.977,0,0,1-2,3.974v1.1a7.02,7.02,0,0,1,5.005,3.336,6.859,6.859,0,0,1,.789-1.079A3.96,3.96,0,0,1,31,28a4.009,4.009,0,0,1,3-3.874V20a6,6,0,0,1,12,0v4.126A4.009,4.009,0,0,1,49,28a3.958,3.958,0,0,1-1.793,3.327A6.967,6.967,0,0,1,49,36v3.586l7.042-7.042a15,15,0,0,0,0-21.213ZM46,12V10A11.013,11.013,0,0,1,57,21H55A9.011,9.011,0,0,0,46,12ZM56.089,25.389l-1.834-.8a9,9,0,0,0,.562-1.777l1.959.4A10.932,10.932,0,0,1,56.089,25.389Z"></path><path d="M24,27a3,3,0,0,0,3-3V22.87a2.96,2.96,0,0,1-1.293-.749L25,21.414l-.122.122A4.966,4.966,0,0,1,21.343,23H21v1A3,3,0,0,0,24,27Z"></path><path d="M23.464,20.122l.829-.829a1,1,0,0,1,1.414,0l1.414,1.414a1,1,0,0,0,.708.293H28V20a4,4,0,0,0-8,0v1h1.343A3.02,3.02,0,0,0,23.464,20.122Z"></path><path d="M38.9,28.866a3.934,3.934,0,0,1-.7,1.5,2.907,2.907,0,0,0,3.612,0,3.926,3.926,0,0,1-.7-1.5,4.649,4.649,0,0,1-2.208,0Z"></path><path d="M45,26a1,1,0,0,1-.387-.078A5.011,5.011,0,0,1,43,27.972c0,.009,0,.019,0,.028a1.957,1.957,0,0,0,.358,1.133,6.72,6.72,0,0,1,2.117.8A1.968,1.968,0,0,0,47,28,2,2,0,0,0,45,26Z"></path><path d="M35,26a2,2,0,0,0-2,2,1.968,1.968,0,0,0,1.525,1.933,6.7,6.7,0,0,1,2.117-.8A1.957,1.957,0,0,0,37,28c0-.014,0-.028,0-.042a4.5,4.5,0,0,1-.533-.421,5.018,5.018,0,0,1-1.069-1.619A1,1,0,0,1,35,26Z"></path><path d="M43.829,21H44V20a4,4,0,0,0-8,0v1h1.343a3.02,3.02,0,0,0,2.121-.878l.829-.829a1,1,0,0,1,1.414,0l1.414,1.414A1,1,0,0,0,43.829,21Z"></path><path d="M43,24V22.885a2.981,2.981,0,0,1-1.293-.764L41,21.414l-.122.122A4.966,4.966,0,0,1,37.343,23H37v1a2.749,2.749,0,0,0,.154.929,2.982,2.982,0,0,0,.731,1.2,2.634,2.634,0,0,0,.552.421.892.892,0,0,1,.113.076A3,3,0,0,0,43,24Z"></path><path d="M47,36a4.978,4.978,0,0,0-2.267-4.183,4.737,4.737,0,0,0-1.1-.541A4.178,4.178,0,0,1,40,33a4.175,4.175,0,0,1-3.628-1.725,4.75,4.75,0,0,0-1.1.537A4.982,4.982,0,0,0,33,36v4h1V35h2v5h8V35h2v5h1Z"></path></g></svg>