<svg xmlns="http://www.w3.org/2000/svg" viewBox="0 0 64 64" x="0px" y="0px"><g><path d="M61.55,51.092h0L54.11,42H56a2,2,0,0,0,2-2V36a2,2,0,0,0-2-2H50V12h7a1,1,0,0,0,1-1V7a5.006,5.006,0,0,0-5-5H19a5.006,5.006,0,0,0-5,5V34H8a2,2,0,0,0-2-2H4a2,2,0,0,0-2,2v8a2,2,0,0,0,2,2H6a2,2,0,0,0,2-2H9.89L2.45,51.092A2.012,2.012,0,0,0,2,52.357V60a2,2,0,0,0,2,2H60a2,2,0,0,0,2-2V52.357A2.012,2.012,0,0,0,61.55,51.092ZM56,7v3H50V7a3,3,0,0,1,6,0ZM16,7a3,3,0,0,1,3-3H49.026A4.948,4.948,0,0,0,48,7V34H16ZM6,42H4V34H6Zm2-6H56v4H8ZM60,52.357V60H4V52.356L12.474,42H51.526L60,52.356"></path><path d="M13,52H9a1,1,0,0,0-1,1v4a1,1,0,0,0,1,1h4a1,1,0,0,0,1-1V53A1,1,0,0,0,13,52Zm-1,4H10V54h2Z"></path><path d="M20,45H16a1,1,0,0,0-1,1v4a1,1,0,0,0,1,1h4a1,1,0,0,0,1-1V46A1,1,0,0,0,20,45Zm-1,4H17V47h2Z"></path><path d="M20,52H16a1,1,0,0,0-1,1v4a1,1,0,0,0,1,1h4a1,1,0,0,0,1-1V53A1,1,0,0,0,20,52Zm-1,4H17V54h2Z"></path><path d="M27,45H23a1,1,0,0,0-1,1v4a1,1,0,0,0,1,1h4a1,1,0,0,0,1-1V46A1,1,0,0,0,27,45Zm-1,4H24V47h2Z"></path><path d="M27,52H23a1,1,0,0,0-1,1v4a1,1,0,0,0,1,1h4a1,1,0,0,0,1-1V53A1,1,0,0,0,27,52Zm-1,4H24V54h2Z"></path><path d="M34,45H30a1,1,0,0,0-1,1v4a1,1,0,0,0,1,1h4a1,1,0,0,0,1-1V46A1,1,0,0,0,34,45Zm-1,4H31V47h2Z"></path><path d="M34,52H30a1,1,0,0,0-1,1v4a1,1,0,0,0,1,1h4a1,1,0,0,0,1-1V53A1,1,0,0,0,34,52Zm-1,4H31V54h2Z"></path><path d="M41,45H37a1,1,0,0,0-1,1v4a1,1,0,0,0,1,1h4a1,1,0,0,0,1-1V46A1,1,0,0,0,41,45Zm-1,4H38V47h2Z"></path><path d="M41,52H37a1,1,0,0,0-1,1v4a1,1,0,0,0,1,1h4a1,1,0,0,0,1-1V53A1,1,0,0,0,41,52Zm-1,4H38V54h2Z"></path><path d="M48,45H44a1,1,0,0,0-1,1v4a1,1,0,0,0,1,1h4a1,1,0,0,0,1-1V46A1,1,0,0,0,48,45Zm-1,4H45V47h2Z"></path><path d="M48,52H44a1,1,0,0,0-1,1v4a1,1,0,0,0,1,1h4a1,1,0,0,0,1-1V53A1,1,0,0,0,48,52Zm-1,4H45V54h2Z"></path><path d="M55,52H51a1,1,0,0,0-1,1v4a1,1,0,0,0,1,1h4a1,1,0,0,0,1-1V53A1,1,0,0,0,55,52Zm-1,4H52V54h2Z"></path><rect x="20" y="12" width="12" height="2"></rect><rect x="34" y="12" width="10" height="2"></rect><rect x="20" y="16" width="24" height="2"></rect><rect x="20" y="8" width="8" height="2"></rect><rect x="30" y="8" width="4" height="2"></rect><rect x="36" y="8" width="8" height="2"></rect><rect x="20" y="24" width="15" height="2"></rect><rect x="37" y="24" width="7" height="2"></rect><rect x="20" y="20" width="10" height="2"></rect><rect x="32" y="20" width="4" height="2"></rect><rect x="38" y="20" width="6" height="2"></rect><rect x="20" y="28" width="24" height="2"></rect></g></svg>