<svg xmlns="http://www.w3.org/2000/svg" viewBox="0 0 64 64" x="0px" y="0px"><g><path d="M56,44H42.55a8.952,8.952,0,0,0-4.86-3.7L28,37.26v-.68a4.991,4.991,0,0,0,6.22-1.9A5.058,5.058,0,0,0,36,35a5,5,0,0,0,5-5,4.9,4.9,0,0,0-.33-1.79A4.989,4.989,0,0,0,38,19V17A15,15,0,1,0,8,17v2a4.989,4.989,0,0,0-2.67,9.21A4.9,4.9,0,0,0,5,30a5,5,0,0,0,5,5,5.058,5.058,0,0,0,1.78-.32A4.991,4.991,0,0,0,18,36.58v.68L8.31,40.29A8.963,8.963,0,0,0,2,48.88V61a1,1,0,0,0,1,1H49a7,7,0,0,0,6.92-6H56a6,6,0,0,0,0-12ZM9,60H4V48.88A6.964,6.964,0,0,1,8.91,42.2L9,42.18ZM28.59,39.54,26.8,43.15l-2.25-2.81,2.54-1.27ZM23,38.88l-3-1.5V34.57a10.68,10.68,0,0,0,6,0v2.81ZM23,33a9.014,9.014,0,0,1-9-9V17.97a19.161,19.161,0,0,0,11.31-4.31A9.468,9.468,0,0,0,32,16.96V24A9.014,9.014,0,0,1,23,33ZM36,17v3.15a1.014,1.014,0,0,0,.4.8.97.97,0,0,0,.87.16A2.876,2.876,0,0,1,38,21a3.009,3.009,0,0,1,3,3,2.968,2.968,0,0,1-2.02,2.81,1.035,1.035,0,0,0-.62.64.99.99,0,0,0,.13.88A2.964,2.964,0,0,1,39,30a3.009,3.009,0,0,1-3,3,2.911,2.911,0,0,1-1.67-.51,1,1,0,0,0-1.5.5A3.007,3.007,0,0,1,30,35a2.963,2.963,0,0,1-2-.79v-.42A11.014,11.014,0,0,0,34,24V16a1,1,0,0,0-1-1,7.75,7.75,0,0,1-6.22-2.71c.15-.16.29-.31.42-.47a15.167,15.167,0,0,0,3.13-5.54A12.975,12.975,0,0,1,36,17ZM16,35a3.007,3.007,0,0,1-2.83-2.01,1,1,0,0,0-1.5-.5A2.911,2.911,0,0,1,10,33a3.009,3.009,0,0,1-3-3,2.964,2.964,0,0,1,.51-1.67.99.99,0,0,0,.13-.88,1.035,1.035,0,0,0-.62-.64A2.968,2.968,0,0,1,5,24a3.009,3.009,0,0,1,3-3,2.876,2.876,0,0,1,.73.11.97.97,0,0,0,.87-.16,1.014,1.014,0,0,0,.4-.8V17A12.973,12.973,0,0,1,28.55,5.26a13.216,13.216,0,0,1-2.86,5.25c-.26.3-.54.59-.86.9A17.117,17.117,0,0,1,13,16a1,1,0,0,0-1,1v7a11.014,11.014,0,0,0,6,9.79v.42A2.963,2.963,0,0,1,16,35Zm2.91,4.07,2.54,1.27L19.2,43.15l-1.79-3.61ZM15,40.3l.48-.15,2.62,5.29a.991.991,0,0,0,.79.55A.41.41,0,0,0,19,46a1,1,0,0,0,.78-.38L23,41.6l3.22,4.02A1,1,0,0,0,27,46a.41.41,0,0,0,.11-.01.991.991,0,0,0,.79-.55l2.62-5.29.48.15V47H15Zm-4,1.25,2-.63V47H11ZM29,60H17V55H29Zm6,0H31V54a1,1,0,0,0-1-1H16a1,1,0,0,0-1,1v6H11V49H35Zm0-13H33V40.92l2,.63Zm2,13V42.18l.09.02a7.093,7.093,0,0,1,3.2,2.1A.991.991,0,0,0,40,45V55a6.97,6.97,0,0,0,2.11,5Zm17-5a5,5,0,0,1-5,5H47a5,5,0,0,1-5-5V46H54Zm2-1V46a4,4,0,0,1,0,8Z"></path><path d="M52,42a8.476,8.476,0,0,1,1.832-5.445A10.5,10.5,0,0,0,56,30H54a8.476,8.476,0,0,1-1.832,5.445A10.5,10.5,0,0,0,50,42Z"></path><path d="M47.832,36.555A10.5,10.5,0,0,0,50,30H48a8.476,8.476,0,0,1-1.832,5.445A10.5,10.5,0,0,0,44,42h2A8.476,8.476,0,0,1,47.832,36.555Z"></path><circle cx="19" cy="21" r="2"></circle><circle cx="27" cy="21" r="2"></circle><path d="M20.872,26.118l-1.4,1.424a5.007,5.007,0,0,0,7.064,0l-1.4-1.424A3.082,3.082,0,0,1,20.872,26.118Z"></path></g></svg>