<svg xmlns="http://www.w3.org/2000/svg" viewBox="0 0 64 64" x="0px" y="0px"><g><path d="M47,20H28V3a1,1,0,0,0-1-1H3A1,1,0,0,0,2,3V61a1,1,0,0,0,1,1H47a1,1,0,0,0,1-1V21A1,1,0,0,0,47,20ZM4,4H26V60H23V52h1V50H6v2H7v8H4ZM9,52h5v8H9Zm7,8V52h5v8Zm30,0H28V22H46Z"></path><path d="M62,46a6,6,0,1,0-7,5.91V62h2V51.91A6.006,6.006,0,0,0,62,46Zm-5,3.858V48.414l1.707-1.707-1.414-1.414L56,46.586l-1.293-1.293-1.414,1.414L55,48.414v1.444a4,4,0,1,1,2,0Z"></path><rect x="6" y="6" width="2" height="2"></rect><rect x="10" y="6" width="2" height="2"></rect><rect x="14" y="6" width="2" height="2"></rect><rect x="18" y="6" width="2" height="2"></rect><rect x="22" y="6" width="2" height="2"></rect><rect x="6" y="10" width="2" height="2"></rect><rect x="10" y="10" width="2" height="2"></rect><rect x="14" y="10" width="2" height="2"></rect><rect x="18" y="10" width="2" height="2"></rect><rect x="22" y="10" width="2" height="2"></rect><rect x="6" y="14" width="2" height="2"></rect><rect x="10" y="14" width="2" height="2"></rect><rect x="14" y="14" width="2" height="2"></rect><rect x="18" y="14" width="2" height="2"></rect><rect x="22" y="14" width="2" height="2"></rect><rect x="6" y="18" width="2" height="2"></rect><rect x="10" y="18" width="2" height="2"></rect><rect x="14" y="18" width="2" height="2"></rect><rect x="18" y="18" width="2" height="2"></rect><rect x="22" y="18" width="2" height="2"></rect><rect x="6" y="22" width="2" height="2"></rect><rect x="10" y="22" width="2" height="2"></rect><rect x="14" y="22" width="2" height="2"></rect><rect x="18" y="22" width="2" height="2"></rect><rect x="22" y="22" width="2" height="2"></rect><rect x="6" y="26" width="2" height="2"></rect><rect x="10" y="26" width="2" height="2"></rect><rect x="14" y="26" width="2" height="2"></rect><rect x="18" y="26" width="2" height="2"></rect><rect x="22" y="26" width="2" height="2"></rect><rect x="6" y="30" width="2" height="2"></rect><rect x="10" y="30" width="2" height="2"></rect><rect x="14" y="30" width="2" height="2"></rect><rect x="18" y="30" width="2" height="2"></rect><rect x="22" y="30" width="2" height="2"></rect><rect x="6" y="34" width="2" height="2"></rect><rect x="10" y="34" width="2" height="2"></rect><rect x="14" y="34" width="2" height="2"></rect><rect x="18" y="34" width="2" height="2"></rect><rect x="22" y="34" width="2" height="2"></rect><rect x="6" y="38" width="2" height="2"></rect><rect x="10" y="38" width="2" height="2"></rect><rect x="14" y="38" width="2" height="2"></rect><rect x="18" y="38" width="2" height="2"></rect><rect x="22" y="38" width="2" height="2"></rect><rect x="6" y="42" width="2" height="2"></rect><rect x="10" y="42" width="2" height="2"></rect><rect x="14" y="42" width="2" height="2"></rect><rect x="18" y="42" width="2" height="2"></rect><rect x="22" y="42" width="2" height="2"></rect><rect x="30" y="24" width="14" height="2"></rect><rect x="30" y="28" width="14" height="2"></rect><rect x="30" y="32" width="14" height="2"></rect><rect x="30" y="36" width="14" height="2"></rect><rect x="30" y="40" width="14" height="2"></rect><rect x="30" y="44" width="14" height="2"></rect><rect x="30" y="48" width="14" height="2"></rect><rect x="30" y="52" width="14" height="2"></rect></g></svg>