<svg xmlns="http://www.w3.org/2000/svg" viewBox="0 0 64 64" x="0px" y="0px"><g><path d="M57,10H54V5a3,3,0,0,0-3-3H13a3,3,0,0,0-3,3v5H7a5.006,5.006,0,0,0-5,5V45a5.006,5.006,0,0,0,5,5H23.867l-.75,6H22a2,2,0,0,0-2,2v2H18v2H46V60H44V58a2,2,0,0,0-2-2H40.883l-.75-6H57a5.006,5.006,0,0,0,5-5V15A5.006,5.006,0,0,0,57,10ZM12,10H52V35a1,1,0,0,1-1,1H13a1,1,0,0,1-1-1Zm1-6H51a1,1,0,0,1,1,1V8H12V5A1,1,0,0,1,13,4ZM7,12h3V35a3,3,0,0,0,3,3H51a3,3,0,0,0,3-3V12h3a3,3,0,0,1,3,3V40H4V15A3,3,0,0,1,7,12ZM42,60H22V58H42Zm-3.133-4H25.133l.75-6H38.117ZM57,48H7a3,3,0,0,1-3-3V42H60v3A3,3,0,0,1,57,48Z"></path><rect x="55" y="44" width="2" height="2"></rect><rect x="14" y="5" width="2" height="2"></rect><rect x="18" y="5" width="2" height="2"></rect><rect x="22" y="5" width="2" height="2"></rect><path d="M32,31a7.989,7.989,0,0,1-7.158-4.47,3.99,3.99,0,1,0-2.011.453A9.994,9.994,0,0,0,39.474,29.64l-1.5-1.328A8,8,0,0,1,32,31ZM21,23a2,2,0,1,1,2,2A2,2,0,0,1,21,23Z"></path><path d="M32,15a7.989,7.989,0,0,1,7.158,4.47,3.99,3.99,0,1,0,2.011-.453A9.995,9.995,0,0,0,24.525,16.36l1.5,1.328A8,8,0,0,1,32,15Zm11,8a2,2,0,1,1-2-2A2,2,0,0,1,43,23Z"></path><rect x="15" y="12" width="2" height="2"></rect><rect x="19" y="12" width="4" height="2"></rect><rect x="15" y="16" width="4" height="2"></rect><rect x="44" y="28" width="6" height="2"></rect><rect x="44" y="32" width="6" height="2"></rect></g></svg>