<svg xmlns="http://www.w3.org/2000/svg" viewBox="0 0 64 64" x="0px" y="0px"><title>Speech-Recognition-Voice Recognition-Communication</title><g data-name="Speech Recognition"><path d="M49.887,29A3.027,3.027,0,0,0,46.9,31.713,14.978,14.978,0,0,1,35,44.691V41.61a11.93,11.93,0,0,0,8.844-9.746A2.994,2.994,0,0,0,46,29V27a3,3,0,0,0-2-2.816V14a12,12,0,0,0-24,0V24.184A3,3,0,0,0,18,27v2a2.993,2.993,0,0,0,2.16,2.865A11.882,11.882,0,0,0,29,41.616v3.075A14.978,14.978,0,0,1,17.1,31.713a3.005,3.005,0,0,0-5.234-1.708,2.94,2.94,0,0,0-.74,2.277A20.94,20.94,0,0,0,29,50.765V54H23a3,3,0,0,0-3,3v2a3,3,0,0,0,3,3H41a3,3,0,0,0,3-3V57a3,3,0,0,0-3-3H35V50.765A20.94,20.94,0,0,0,52.877,32.281a2.939,2.939,0,0,0-.74-2.276A3.026,3.026,0,0,0,49.887,29ZM32,4a9.981,9.981,0,0,1,7.981,4H35v2h6.159a9.843,9.843,0,0,1,.639,2H35v2h7v2H35v2h7v2H35v2h7v2H22V22h7V20H22V18h7V16H22V14h7V12H22.2a9.843,9.843,0,0,1,.639-2H29V8H24.019A9.981,9.981,0,0,1,32,4ZM20,27a1,1,0,0,1,1-1H43a1,1,0,0,1,1,1v2a1,1,0,0,1-1,1H21a1,1,0,0,1-1-1Zm2.208,5H41.79a9.991,9.991,0,0,1-19.582,0ZM31,41.953c.33.027.663.047,1,.047s.669-.021,1-.049v3c-.332.022-.663.047-1,.047s-.668-.025-1-.047ZM42,57v2a1,1,0,0,1-1,1H23a1,1,0,0,1-1-1V57a1,1,0,0,1,1-1H41A1,1,0,0,1,42,57Zm-9-3H31V50.953c.333.016.663.047,1,.047s.667-.031,1-.047Zm-1-5A18.965,18.965,0,0,1,13.111,32.066a.929.929,0,0,1,.24-.725,1.006,1.006,0,0,1,1.759.6,17,17,0,0,0,33.78,0,1.006,1.006,0,0,1,1.759-.6.928.928,0,0,1,.24.724A18.965,18.965,0,0,1,32,49Z"></path><path d="M50.707,13.707l3-3L52.293,9.293,49.586,12H46v2h4A1,1,0,0,0,50.707,13.707Z"></path><path d="M52.293,24.707l1.414-1.414-3-3A1,1,0,0,0,50,20H46v2h3.586Z"></path><rect x="46" y="16" width="8" height="2"></rect><path d="M56,10a3,3,0,1,0-3-3A3,3,0,0,0,56,10Zm0-4a1,1,0,1,1-1,1A1,1,0,0,1,56,6Z"></path><path d="M59,14a3,3,0,1,0,3,3A3,3,0,0,0,59,14Zm0,4a1,1,0,1,1,1-1A1,1,0,0,1,59,18Z"></path><path d="M56,24a3,3,0,1,0,3,3A3,3,0,0,0,56,24Zm0,4a1,1,0,1,1,1-1A1,1,0,0,1,56,28Z"></path><path d="M13.293,13.707A1,1,0,0,0,14,14h4V12H14.414L11.707,9.293l-1.414,1.414Z"></path><path d="M10.293,23.293l1.414,1.414L14.414,22H18V20H14a1,1,0,0,0-.707.293Z"></path><rect x="10" y="16" width="8" height="2"></rect><path d="M8,10A3,3,0,1,0,5,7,3,3,0,0,0,8,10ZM8,6A1,1,0,1,1,7,7,1,1,0,0,1,8,6Z"></path><path d="M8,17a3,3,0,1,0-3,3A3,3,0,0,0,8,17ZM4,17a1,1,0,1,1,1,1A1,1,0,0,1,4,17Z"></path><path d="M8,24a3,3,0,1,0,3,3A3,3,0,0,0,8,24Zm0,4a1,1,0,1,1,1-1A1,1,0,0,1,8,28Z"></path><path d="M27.333,36.217A6.959,6.959,0,0,0,29.667,37.6l.666-1.887a4.951,4.951,0,0,1-1.666-.988Z"></path><path d="M38.063,34.5l-1.731-1A5.021,5.021,0,0,1,32,36v2A7.027,7.027,0,0,0,38.063,34.5Z"></path></g></svg>