<svg xmlns="http://www.w3.org/2000/svg" viewBox="0 0 64 64" x="0px" y="0px"><g data-name="Dental Report"><path d="M46,13h6.655L45,4.5V12A1,1,0,0,0,46,13Z"></path><path d="M38.869,21.042a8.989,8.989,0,0,0-4.64.792,5.263,5.263,0,0,1-4.458,0A8.992,8.992,0,0,0,18.6,35.111,22.909,22.909,0,0,1,22.3,44.18L23.7,52.175a1,1,0,0,0,.985.825h1.56a1,1,0,0,0,.991-.871l1.106-8.515A3.006,3.006,0,0,1,31.313,41h1.374a3.008,3.008,0,0,1,2.975,2.614l1.1,8.515a1,1,0,0,0,.992.871h1.56a1,1,0,0,0,.985-.825L41.7,44.18A22.909,22.909,0,0,1,45.4,35.111a8.991,8.991,0,0,0-6.534-14.069ZM32,27a9.524,9.524,0,0,1-5.589-1.693l1.178-1.616a8.086,8.086,0,0,0,8.822,0l1.178,1.616A9.524,9.524,0,0,1,32,27Z"></path><path d="M53,15H46a3,3,0,0,1-3-3V4H14a3,3,0,0,0-3,3V57a3,3,0,0,0,3,3H50a3,3,0,0,0,3-3ZM20,9h8v2H20ZM16,9h2v2H16Zm0,4H28v2H16ZM47.046,36.251a20.893,20.893,0,0,0-3.379,8.272l-1.394,8A2.992,2.992,0,0,1,39.318,55h-1.56a3.009,3.009,0,0,1-2.976-2.614l-1.1-8.515A1,1,0,0,0,32.687,43H31.313a1,1,0,0,0-.991.871l-1.105,8.515A3.007,3.007,0,0,1,26.242,55h-1.56a2.992,2.992,0,0,1-2.955-2.481l-1.394-8a20.893,20.893,0,0,0-3.379-8.272,10.991,10.991,0,0,1,13.661-16.23,3.221,3.221,0,0,0,2.769,0A10.991,10.991,0,0,1,48.912,28.59h0A11.019,11.019,0,0,1,47.046,36.251Z"></path></g></svg>