<svg xmlns="http://www.w3.org/2000/svg" viewBox="0 0 64 64" x="0px" y="0px"><g><path d="M43,13a3.906,3.906,0,0,0-2,.56V12a4,4,0,0,0-4-4,3.906,3.906,0,0,0-2,.56V6a4,4,0,0,0-8,0V7.56A3.906,3.906,0,0,0,25,7a3.995,3.995,0,0,0-4,4v5.14A4.091,4.091,0,0,0,20,16a4,4,0,0,0-4,4V37a1,1,0,0,0,.14.51L19,42.28V61a1,1,0,0,0,1,1H44a1,1,0,0,0,1-1V42.19l1.93-4.82A.937.937,0,0,0,47,37V17A4,4,0,0,0,43,13Zm0,47H21V47H43Zm2-23.19-1.93,4.82A.937.937,0,0,0,43,42v3H21V42a1,1,0,0,0-.14-.51L18,36.72V20a2,2,0,0,1,4,0v7a1,1,0,0,0,1,1,4,4,0,0,1,4,4v1h2V32a6.017,6.017,0,0,0-5-5.92V20a4,4,0,0,0-1-2.62V11a2.015,2.015,0,0,1,2-2,2.006,2.006,0,0,1,2,2V22h2V6a2,2,0,0,1,4,0V22h2V12a2,2,0,0,1,4,0V22h2V17a2,2,0,0,1,4,0Z"></path><rect x="36.586" y="25" width="2.828" height="2" transform="translate(-7.255 34.485) rotate(-45)"></rect><rect x="39" y="28" width="2" height="2"></rect><rect x="35" y="30" width="2" height="2"></rect><rect x="32" y="25.586" width="2" height="2.828" transform="translate(-9.426 31.243) rotate(-45)"></rect><rect x="31" y="31" width="2" height="2"></rect><rect x="38" y="32" width="2" height="2"></rect><rect x="23" y="49" width="2" height="2"></rect><rect x="34" y="34.586" width="2" height="2.828" transform="translate(-15.205 35.293) rotate(-45)"></rect><rect x="27.586" y="35" width="2.828" height="2" transform="translate(-16.962 31.05) rotate(-45)"></rect><rect x="23" y="33" width="2" height="2"></rect><rect x="31" y="38" width="2" height="2"></rect></g></svg>