<svg xmlns="http://www.w3.org/2000/svg" viewBox="0 0 64 64" x="0px" y="0px"><g data-name="Shopping-Cloud"><path d="M60,32A12.01,12.01,0,0,1,48,44H41.09l.77-5H44V37H38.78l-1.81-7.24-1.94.48L36.72,37H27.28l1.69-6.76-1.94-.48L25.22,37H20v2h2.14l.78,5H13a9,9,0,0,1-2.6-17.62.987.987,0,0,0,.71-.82A11.007,11.007,0,0,1,22,16c.16,0,.31.01.46.02l.2.01a1,1,0,0,0,.95-.53,13.985,13.985,0,0,1,26.15,3.98.994.994,0,0,0,.77.79A12.053,12.053,0,0,1,60,32Z"></path><path d="M38.142,50l1.692-11H24.166l1.692,11ZM35,41h2v7H35Zm-4,0h2v7H31Zm-4,0h2v7H27Z"></path></g></svg>