<svg xmlns="http://www.w3.org/2000/svg" viewBox="0 0 64 64" x="0px" y="0px"><g><path d="M50,49a1,1,0,0,1-1,1v2a3,3,0,0,0,3-3V28H50Z"></path><path d="M4,49V12.032H50V18h2V5a3,3,0,0,0-3-3H5A3,3,0,0,0,2,5V49a3,3,0,0,0,3,3H19V50H5A1,1,0,0,1,4,49ZM5,4H49a1,1,0,0,1,1,1v5.032H4V5A1,1,0,0,1,5,4Z"></path><rect x="8" y="6" width="2" height="2"></rect><rect x="12" y="6" width="2" height="2"></rect><rect x="16" y="6" width="2" height="2"></rect><path d="M43,31H29a1,1,0,0,0-1,1V44a1,1,0,0,0,1,1H43a1,1,0,0,0,1-1V32A1,1,0,0,0,43,31Zm-1,4H39V33h3Zm-7-2h2v2.586l-.293-.293a1,1,0,0,0-1.414,0L35,35.586Zm-2,0v2H30V33ZM30,43V37h3v1a1,1,0,0,0,1.707.707L36,37.414l1.293,1.293A1,1,0,0,0,39,38V37h3v6Z"></path><path d="M59,20H53a3,3,0,0,0-2.816,2H48a1,1,0,0,0-.9.553l-1,2A1,1,0,0,0,46,25v2H21a1,1,0,0,0-.989,1.148l3,20A1,1,0,0,0,24,49H46v2H23a3,3,0,0,0,0,6h.78a3,3,0,1,0,4.44,0H39.78a3,3,0,1,0,4.44,0H47V55H23a1,1,0,0,1,0-2H47a1,1,0,0,0,1-1V25.236L48.618,24h1.566A3,3,0,0,0,53,26h6a3,3,0,0,0,0-6ZM26,60a1,1,0,1,1,1-1A1,1,0,0,1,26,60Zm16,0a1,1,0,1,1,1-1A1,1,0,0,1,42,60ZM24.861,47l-2.7-18H46V47ZM59,24H53a1,1,0,0,1,0-2h6a1,1,0,0,1,0,2Z"></path><path d="M13,25H11a1,1,0,0,1-1-1H8a3,3,0,0,0,3,3v1h2V27a3,3,0,0,0,0-6H11a1,1,0,0,1,0-2h2a1,1,0,0,1,1,1h2a3,3,0,0,0-3-3V16H11v1a3,3,0,0,0,0,6h2a1,1,0,0,1,0,2Z"></path><path d="M12,40h6V38H13V30H11v9A1,1,0,0,0,12,40Z"></path><rect x="20" y="17" width="2" height="2"></rect><rect x="24" y="17" width="6" height="2"></rect><rect x="20" y="21" width="10" height="2"></rect></g></svg>