<svg xmlns="http://www.w3.org/2000/svg" viewBox="0 0 64 64" x="0px" y="0px"><g><path d="M15,13H33V43H26v2h7v1a3,3,0,0,0,6,0V45H58a1,1,0,0,0,1-1V12a1,1,0,0,0-1-1H38a1,1,0,0,0-1,1v1H35V12a1,1,0,0,0-1-1H14a1,1,0,0,0-1,1V32h2Zm24,0H57V43H39Zm-2,2V46a1,1,0,0,1-2,0V15Z"></path><rect x="26" y="46" width="6" height="2"></rect><rect x="10" y="14.029" width="2" height="17.971"></rect><rect x="17" y="19" width="4" height="2"></rect><rect x="23" y="19" width="8" height="2"></rect><rect x="17" y="23" width="14" height="2"></rect><rect x="17" y="27" width="14" height="2"></rect><path d="M60,14.029V46H40v2H61a1,1,0,0,0,1-1V14.029Z"></path><rect x="49" y="19" width="6" height="2"></rect><rect x="41" y="19" width="6" height="2"></rect><rect x="41" y="23" width="14" height="2"></rect><rect x="41" y="27" width="14" height="2"></rect><rect x="41" y="31" width="14" height="2"></rect><rect x="41" y="35" width="14" height="2"></rect><path d="M24,51V37a2,2,0,0,0-2-2H18V34H16v1H10V34H8v1H4a2,2,0,0,0-2,2V51a2,2,0,0,0,2,2H22A2,2,0,0,0,24,51ZM8,37v1h2V37h6v1h2V37h4v2H4V37ZM4,41H22V51H4Z"></path><rect x="6" y="43" width="2" height="2"></rect><rect x="10" y="43" width="2" height="2"></rect><rect x="14" y="43" width="2" height="2"></rect><rect x="18" y="43" width="2" height="2"></rect><rect x="6" y="47" width="2" height="2"></rect><rect x="10" y="47" width="2" height="2"></rect><rect x="14" y="47" width="2" height="2"></rect><rect x="18" y="47" width="2" height="2"></rect><path d="M48,58H14V55H12v4a1,1,0,0,0,1,1H49a1,1,0,0,0,1-1V54H48Z"></path><rect x="48" y="50" width="2" height="2"></rect><rect x="35" y="54" width="2" height="2"></rect><rect x="39" y="54" width="2" height="2"></rect><rect x="31" y="54" width="2" height="2"></rect><rect x="20" y="31" width="11" height="2"></rect><rect x="26" y="35" width="5" height="2"></rect></g></svg>