<svg xmlns="http://www.w3.org/2000/svg" viewBox="0 0 64 64" x="0px" y="0px"><g data-name="Boat trip"><path d="M2,61a3.972,3.972,0,0,0,3-1.38,3.951,3.951,0,0,0,6,0,3.951,3.951,0,0,0,6,0,3.951,3.951,0,0,0,6,0,3.951,3.951,0,0,0,6,0,3.951,3.951,0,0,0,6,0,3.951,3.951,0,0,0,6,0,3.951,3.951,0,0,0,6,0,3.951,3.951,0,0,0,6,0,3.951,3.951,0,0,0,6,0A3.972,3.972,0,0,0,62,61"></path><path d="M7.43,38,28,38V7.021A23.017,23.017,0,0,0,7.43,38Z"></path><rect x="31" y="3" width="2" height="40"></rect><path d="M36,16.021V38l21.979,0A23.034,23.034,0,0,0,36,16.021Z"></path><path d="M43,4H36v6h7L41.2,7.6a1,1,0,0,1,0-1.2Z"></path><path d="M10.248,58.962a1.031,1.031,0,0,1,1.5,0,3.02,3.02,0,0,0,4.5,0,1.031,1.031,0,0,1,1.5,0,3.02,3.02,0,0,0,4.5,0,1.031,1.031,0,0,1,1.5,0,3.02,3.02,0,0,0,4.5,0,1.031,1.031,0,0,1,1.5,0,3.02,3.02,0,0,0,4.5,0,1.031,1.031,0,0,1,1.5,0,3.02,3.02,0,0,0,4.5,0,1.031,1.031,0,0,1,1.5,0,3.02,3.02,0,0,0,4.5,0,1.031,1.031,0,0,1,1.5,0,3.02,3.02,0,0,0,4.5,0,1.031,1.031,0,0,1,1.5,0,2.858,2.858,0,0,0,.424.387L57.307,51H6.693l3.131,8.349A2.858,2.858,0,0,0,10.248,58.962Z"></path><polygon points="59.557 45 4.443 45 5.943 49 58.057 49 59.557 45"></polygon></g></svg>