<svg xmlns="http://www.w3.org/2000/svg" viewBox="0 0 64 64" x="0px" y="0px"><title>Idea</title><g><path d="M17.5,24A2.5,2.5,0,0,1,15,21.5H13a4.5,4.5,0,0,0,9,0H20A2.5,2.5,0,0,1,17.5,24Z"></path><path d="M43,2H29.392A19.914,19.914,0,0,0,11.051,14.555l-7,21.131A1,1,0,0,0,5,37h5v7a7.008,7.008,0,0,0,7,7h7V61a1,1,0,0,0,1,1H49a1,1,0,0,0,1-1V50.955A11.015,11.015,0,0,0,60,40V19A17.019,17.019,0,0,0,43,2ZM58,40a9.01,9.01,0,0,1-9,9,1,1,0,0,0-1,1V60H26V51h5V49H17a5.006,5.006,0,0,1-5-5V36a1,1,0,0,0-1-1H6.385l6.539-19.748A17.9,17.9,0,0,1,29.392,4H43A15.017,15.017,0,0,1,58,19Z"></path><path d="M41,12a10,10,0,0,0-4,19.161V35H34v2h3v2a1,1,0,0,0,1,1v2a1,1,0,0,0,1,1h4a1,1,0,0,0,1-1V40a1,1,0,0,0,1-1V37h3V35H45V31.161A10,10,0,0,0,41,12Zm1,29H40V40h2Zm1-3H39V37h4Zm.668-8.463A1,1,0,0,0,43,30.48V35H39V30.48a1,1,0,0,0-.668-.943,8,8,0,1,1,5.336,0Z"></path><path d="M35,22h2a4,4,0,0,1,4-4V16A6.006,6.006,0,0,0,35,22Z"></path><rect x="40" y="6" width="2" height="4"></rect><rect x="48.9" y="11.101" width="4" height="2" transform="translate(6.352 39.536) rotate(-45)"></rect><rect x="53" y="21" width="4" height="2"></rect><rect x="49.9" y="29.9" width="2" height="4" transform="translate(-7.648 45.334) rotate(-45)"></rect><rect x="30.101" y="10.101" width="2" height="4" transform="translate(0.553 25.536) rotate(-45)"></rect><rect x="25" y="21" width="4" height="2"></rect><rect x="29.101" y="30.9" width="4" height="2" transform="translate(-13.447 31.335) rotate(-45)"></rect></g></svg>