<svg xmlns="http://www.w3.org/2000/svg" viewBox="0 0 64 64" x="0px" y="0px"><g data-name="Passport-Travel-Time-Relax-Time Management"><path d="M54,2H30a5,5,0,0,0-5,5V32.88A14.807,14.807,0,0,0,20,32,15,15,0,1,0,34.12,52H54a5,5,0,0,0,5-5V7A5,5,0,0,0,54,2ZM20,60A13,13,0,1,1,33,47,13.012,13.012,0,0,1,20,60ZM57,47a3.009,3.009,0,0,1-3,3H34.7a16.31,16.31,0,0,0,.25-2H54a4.924,4.924,0,0,0,3-1.03Zm0-4a3.009,3.009,0,0,1-3,3H34.95A15.007,15.007,0,0,0,27,33.74V7a3.009,3.009,0,0,1,3-3H54a3.009,3.009,0,0,1,3,3Z"></path><path d="M42,11a9,9,0,1,0,9,9A9.01,9.01,0,0,0,42,11Zm5.736,5H45.614a12.56,12.56,0,0,0-.71-2.361A7.033,7.033,0,0,1,47.736,16ZM49,20a6.956,6.956,0,0,1-.3,2H45.9c.061-.658.1-1.329.1-2s-.035-1.342-.1-2h2.8A6.956,6.956,0,0,1,49,20Zm-7,7c-.376,0-1.1-1.037-1.569-3h3.138C43.1,25.963,42.376,27,42,27Zm-1.9-5a19.659,19.659,0,0,1,0-4h3.8a19.659,19.659,0,0,1,0,4ZM35,20a6.956,6.956,0,0,1,.3-2h2.8c-.061.658-.1,1.329-.1,2s.035,1.342.1,2H35.3A6.956,6.956,0,0,1,35,20Zm7-7c.376,0,1.1,1.037,1.569,3H40.431C40.9,14.037,41.624,13,42,13Zm-2.9.639A12.56,12.56,0,0,0,38.386,16H36.264A7.033,7.033,0,0,1,39.1,13.639ZM36.264,24h2.122a12.56,12.56,0,0,0,.71,2.361A7.033,7.033,0,0,1,36.264,24Zm8.64,2.361A12.56,12.56,0,0,0,45.614,24h2.122A7.033,7.033,0,0,1,44.9,26.361Z"></path><rect x="36" y="33" width="12" height="2"></rect><rect x="36" y="37" width="12" height="2"></rect><path d="M20,36A11,11,0,1,0,31,47,11.013,11.013,0,0,0,20,36Zm8.941,12a8.956,8.956,0,0,1-1.916,4.611l-1.368-1.368-1.414,1.414,1.368,1.368A8.956,8.956,0,0,1,21,55.941V54H19v1.941a8.956,8.956,0,0,1-4.611-1.916l1.368-1.368-1.414-1.414-1.368,1.368A8.956,8.956,0,0,1,11.059,48H13V46H11.059a8.956,8.956,0,0,1,1.916-4.611l1.368,1.368,1.414-1.414-1.368-1.368A8.956,8.956,0,0,1,19,38.059V40h2V38.059a8.956,8.956,0,0,1,4.611,1.916l-1.368,1.368,1.414,1.414,1.368-1.368A8.956,8.956,0,0,1,28.941,46H27v2Z"></path><path d="M19,46.586l-1.707,1.707,1.414,1.414,2-2A1,1,0,0,0,21,47V42H19Z"></path></g></svg>