<svg xmlns="http://www.w3.org/2000/svg" viewBox="0 0 64 64" x="0px" y="0px"><g><rect x="40.066" y="33.433" width="1.001" height="6.001" transform="translate(-13.881 39.356) rotate(-45)"></rect><path d="M46.577,34.666a3,3,0,0,0,0-4.243,3.073,3.073,0,0,0-4.243,0l-2.121,2.121,4.243,4.243Z"></path><path d="M60,32A12.01,12.01,0,0,1,48,44H40.07l7.92-7.92a5,5,0,1,0-7.07-7.07L25.93,44H13a9,9,0,0,1-2.6-17.62.987.987,0,0,0,.71-.82A11.007,11.007,0,0,1,22,16c.15,0,.3.01.45.02l.21.01a1.035,1.035,0,0,0,.95-.53,13.985,13.985,0,0,1,26.15,3.98.994.994,0,0,0,.77.79A12.053,12.053,0,0,1,60,32Z"></path><polygon points="21.335 51.422 20.274 56.726 25.578 55.665 40.92 40.323 36.677 36.08 21.335 51.422"></polygon></g></svg>