<svg xmlns="http://www.w3.org/2000/svg" viewBox="0 0 64 64" x="0px" y="0px"><g data-name="Qr Code-Mobile-Payment-Scan-Payment Method"><path d="M40,4H18a5,5,0,0,0-5,5V44.66l3.44-5.95a4,4,0,0,1,7.33.96,4.038,4.038,0,0,1-.4,3.04l-4.21,7.28L20.37,52h7.17a3.962,3.962,0,0,1,1.27-2H27a3,3,0,0,1,0-6h4a3.009,3.009,0,0,1,3,3,2.968,2.968,0,0,1-1.14,2.33,3.933,3.933,0,0,1,2.01,1.71l.13.23V38a3.967,3.967,0,0,1,1.38-3H35V33h3V30h2v4a.5.5,0,0,1-.03.13A4,4,0,0,1,43,38v6.54A3.989,3.989,0,0,1,45,44V9A5,5,0,0,0,40,4ZM21,6h2V8H21Zm1,15V17h4v4Zm2,2v2H22V23Zm-6-9a1,1,0,0,1,1-1h4v2H20v3H18Zm5,21H19a1,1,0,0,1-1-1V30h2v3h3Zm3-4H22V27h4Zm4,0H28V27h2Zm0-6H26V23h4Zm0-4H28V17h2ZM25,8V6h8V8ZM36,31H32V29h2V27h2Zm0-6H32V23h4Zm0-4H32V17h4Zm4-3H38V15H35V13h4a1,1,0,0,1,1,1Z"></path><path d="M27,46a1,1,0,0,0,0,2h4a1,1,0,0,0,0-2Z"></path><path d="M17.13,49.5a1.031,1.031,0,0,0,.01,1.02l2.15,3.56A5.074,5.074,0,0,1,20,56.65V61H5V43.2a8.863,8.863,0,0,1,.83-3.77l4.01-8.69A2.911,2.911,0,0,1,11,29.47V47a6.5,6.5,0,0,0,.08.99l-.64,1.11,1.73,1,6-10.39a2,2,0,0,1,1.21-.94,2.06,2.06,0,0,1,1.52.2,2.012,2.012,0,0,1,.73,2.74Z"></path><path d="M59,50V61H33.69l-4.02-6.96a2,2,0,1,1,3.46-2l2,3.46a1.022,1.022,0,0,0,1.13.47A1,1,0,0,0,37,55V38a2,2,0,0,1,4,0V52a1,1,0,0,0,2,0V48a2,2,0,0,1,4,0v4a1,1,0,0,0,2,0V49a2,2,0,0,1,4,0v3a1,1,0,0,0,2,0V50a2,2,0,0,1,4,0Z"></path></g></svg>