<svg xmlns="http://www.w3.org/2000/svg" viewBox="0 0 64 64" x="0px" y="0px"><g data-name="Business Income"><path d="M57,35V30.723l1.495-.854A1,1,0,0,0,59,29V15a1,1,0,0,0-1-1H42V7a1,1,0,0,0-1-1H23a1,1,0,0,0-1,1v7H6a1,1,0,0,0-1,1V29a1,1,0,0,0,.5.869l1.5.854V35A5,5,0,0,0,7,45V55a3,3,0,0,0,3,3H54a3,3,0,0,0,3-3V45a5,5,0,0,0,0-10ZM40,8v2H24V8ZM24,12H40v2H24ZM7,16H57V28.419L50.734,32H47V30a1,1,0,0,0-1-1H42a1,1,0,0,0-1,1v2H23V30a1,1,0,0,0-1-1H18a1,1,0,0,0-1,1v2H13.266L7,28.419ZM45,31v4H43V31ZM21,31v4H19V31Zm-8.5,2.868A1.01,1.01,0,0,0,13,34h4v2a1,1,0,0,0,1,1h4a1,1,0,0,0,1-1V34H41v2a1,1,0,0,0,1,1h4a1,1,0,0,0,1-1V34h4a1.01,1.01,0,0,0,.5-.132l3.5-2V43H40.941a9,9,0,0,0-17.882,0H9V31.866ZM39,44a7,7,0,1,1-7-7A7.008,7.008,0,0,1,39,44ZM4,40a2.994,2.994,0,0,1,3-3v6A3,3,0,0,1,4,40ZM55,55a1,1,0,0,1-1,1H10a1,1,0,0,1-1-1V45H23.059a9,9,0,0,0,17.882,0H55Zm4.128-12.882A3.018,3.018,0,0,1,57,43V37a3,3,0,0,1,2.128,5.118Z"></path><path d="M32,41a1,1,0,0,1,1,1h2a3,3,0,0,0-2-2.816V38H31v1.184A2.993,2.993,0,0,0,32,45a1,1,0,1,1-1,1H29a3,3,0,0,0,2,2.816V50h2V48.816A2.993,2.993,0,0,0,32,43a1,1,0,0,1,0-2Z"></path><rect x="31" y="18" width="2" height="2"></rect><rect x="35" y="18" width="2" height="2"></rect><rect x="27" y="18" width="2" height="2"></rect><path d="M14,18H10a1,1,0,0,0-1,1v4h2V20h3Z"></path><path d="M53,23h2V19a1,1,0,0,0-1-1H50v2h3Z"></path></g></svg>