<svg xmlns="http://www.w3.org/2000/svg" viewBox="0 0 64 64" x="0px" y="0px"><g data-name="Safe Box-Safety Box-Finance-Security-Money"><path d="M57,2H7A5,5,0,0,0,2,7V53a5,5,0,0,0,5,5v3a1,1,0,0,0,1,1h6a.977.977,0,0,0,.89-.55L16.62,58H47.38l1.73,3.45A.977.977,0,0,0,50,62h6a1,1,0,0,0,1-1V58a5,5,0,0,0,5-5V7A5,5,0,0,0,57,2ZM13.38,60H9V58h5.38ZM55,60H50.62l-1-2H55Zm5-7a3.009,3.009,0,0,1-3,3H7a3.009,3.009,0,0,1-3-3V7A3.009,3.009,0,0,1,7,4H57a3.009,3.009,0,0,1,3,3Z"></path><path d="M55,6H9A3.009,3.009,0,0,0,6,9V51a3.009,3.009,0,0,0,3,3H55a3.009,3.009,0,0,0,3-3V9A3.009,3.009,0,0,0,55,6Zm1,45a1,1,0,0,1-1,1H9a1,1,0,0,1-1-1V9A1,1,0,0,1,9,8H55a1,1,0,0,1,1,1Z"></path><path d="M31,27h2a1,1,0,0,1,1,1h2a3,3,0,0,0-3-3V24H31v1a3,3,0,0,0,0,6h2a1,1,0,0,1,0,2H31a1,1,0,0,1-1-1H28a3,3,0,0,0,3,3v1h2V35a3,3,0,0,0,0-6H31a1,1,0,0,1,0-2Z"></path><path d="M49,19H15a2.006,2.006,0,0,0-2,2V39a2.006,2.006,0,0,0,2,2H49a2.006,2.006,0,0,0,2-2V21A2.006,2.006,0,0,0,49,19ZM24,39H15V37h9Zm0-4H15V33h9Zm0-4H15V29h9Zm0-4H15V25h9Zm0-4H15V21h9ZM38,39H26V21H38Zm11,0H40V37h9Zm0-4H40V33h9Zm0-4H40V29h9Zm0-4H40V25h9Zm0-4H40V21h9Z"></path></g></svg>