<svg xmlns="http://www.w3.org/2000/svg" viewBox="0 0 64 64" x="0px" y="0px"><g><path d="M32,31a8,8,0,1,0-8-8A8.009,8.009,0,0,0,32,31Zm0-14a6,6,0,1,1-6,6A6.006,6.006,0,0,1,32,17Z"></path><path d="M19.422,16.853a14,14,0,0,0-.657,1.6l-3.907.558A1,1,0,0,0,14,20v6a1,1,0,0,0,.858.99l3.907.558a14,14,0,0,0,.657,1.6L17.058,32.3a1,1,0,0,0,.093,1.307l4.243,4.243a1,1,0,0,0,1.307.093l3.152-2.364a14,14,0,0,0,1.6.657l.558,3.907A1,1,0,0,0,29,41h6a1,1,0,0,0,.99-.858l.558-3.907a14,14,0,0,0,1.6-.657L41.3,37.942a1,1,0,0,0,1.307-.093l4.243-4.243a1,1,0,0,0,.093-1.307l-2.364-3.152a14,14,0,0,0,.657-1.6l3.907-.558A1,1,0,0,0,50,26V20a1,1,0,0,0-.858-.99l-3.907-.558a14,14,0,0,0-.657-1.6L46.942,13.7a1,1,0,0,0-.093-1.307L42.606,8.151A1,1,0,0,0,41.3,8.058l-3.152,2.364a14,14,0,0,0-1.6-.657L35.99,5.858A1,1,0,0,0,35,5H29a1,1,0,0,0-.99.858l-.558,3.907a14,14,0,0,0-1.6.657L22.7,8.058a1,1,0,0,0-1.307.093l-4.243,4.243a1,1,0,0,0-.093,1.307Zm2.772-6.675,2.961,2.22a1,1,0,0,0,1.081.077,11.939,11.939,0,0,1,2.4-.987,1,1,0,0,0,.71-.818L29.867,7h4.266l.524,3.67a1,1,0,0,0,.71.818,11.939,11.939,0,0,1,2.4.987,1,1,0,0,0,1.081-.077l2.961-2.22,3.016,3.016L42.6,16.155a1,1,0,0,0-.077,1.081,11.939,11.939,0,0,1,.987,2.4,1,1,0,0,0,.818.71l3.67.524v4.266l-3.67.524a1,1,0,0,0-.818.71,11.939,11.939,0,0,1-.987,2.4,1,1,0,0,0,.077,1.081l2.22,2.961-3.016,3.016L38.845,33.6a1,1,0,0,0-1.081-.077,11.939,11.939,0,0,1-2.4.987,1,1,0,0,0-.71.818L34.133,39H29.867l-.524-3.67a1,1,0,0,0-.71-.818,11.939,11.939,0,0,1-2.4-.987,1,1,0,0,0-1.081.077l-2.961,2.22-3.016-3.016,2.22-2.961a1,1,0,0,0,.077-1.081,11.939,11.939,0,0,1-.987-2.4,1,1,0,0,0-.818-.71L16,25.133V20.867l3.67-.524a1,1,0,0,0,.818-.71,11.939,11.939,0,0,1,.987-2.4,1,1,0,0,0-.077-1.081l-2.22-2.961Z"></path><rect x="31" y="11" width="2" height="2"></rect><rect x="23.222" y="14.222" width="2" height="2" transform="translate(-3.669 21.586) rotate(-45)"></rect><rect x="20" y="22" width="2" height="2"></rect><rect x="23.222" y="29.778" width="2" height="2" transform="translate(-14.669 26.142) rotate(-45)"></rect><rect x="31" y="33" width="2" height="2"></rect><rect x="38.778" y="29.778" width="2" height="2" transform="translate(-10.113 37.142) rotate(-45)"></rect><rect x="42" y="22" width="2" height="2"></rect><rect x="38.778" y="14.222" width="2" height="2" transform="translate(0.887 32.586) rotate(-45)"></rect><path d="M42,50H22a3,3,0,0,0,0,6H42a3,3,0,0,0,0-6Zm0,4H22a1,1,0,0,1,0-2H42a1,1,0,0,1,0,2Z"></path><path d="M61.665,40.252l-9-8A1.006,1.006,0,0,0,52,32H49v2h2v6H42a1,1,0,0,0-.97.757L40.219,44H23.781l-.811-3.243A1,1,0,0,0,22,40H13V34h2V32H12a1.006,1.006,0,0,0-.665.252l-9,8A1,1,0,0,0,2,41V59a3,3,0,0,0,3,3H59a3,3,0,0,0,3-3V41A1,1,0,0,0,61.665,40.252ZM53,35.227,58.37,40H53ZM5.63,40,11,35.227V40ZM59,60H5a1,1,0,0,1-1-1V42H21.219l.811,3.243A1,1,0,0,0,23,46H41a1,1,0,0,0,.97-.757L42.781,42H60V59A1,1,0,0,1,59,60Z"></path><path d="M5,14.414V22H7V14.414l1.293,1.293,1.414-1.414-3-3a1,1,0,0,0-1.414,0l-3,3,1.414,1.414Z"></path><rect x="5" y="24" width="2" height="2"></rect><rect x="5" y="28" width="2" height="2"></rect><path d="M12,5.414V13h2V5.414l1.293,1.293,1.414-1.414-3-3a1,1,0,0,0-1.414,0l-3,3,1.414,1.414Z"></path><rect x="12" y="16" width="2" height="2"></rect><path d="M55.707,15.707,57,14.414V22h2V14.414l1.293,1.293,1.414-1.414-3-3a1,1,0,0,0-1.414,0l-3,3Z"></path><rect x="57" y="24" width="2" height="2"></rect><rect x="57" y="28" width="2" height="2"></rect><path d="M50,5.414V13h2V5.414l1.293,1.293,1.414-1.414-3-3a1,1,0,0,0-1.414,0l-3,3,1.414,1.414Z"></path><rect x="50" y="16" width="2" height="2"></rect></g></svg>