<svg xmlns="http://www.w3.org/2000/svg" viewBox="0 0 64 64" x="0px" y="0px"><g data-name="Presentaion circle report"><path d="M40.166,22.248l-1.459,1.459-1.414-1.414,1.558-1.558A9.961,9.961,0,0,0,33,18.051V27h8.949A9.918,9.918,0,0,0,40.166,22.248Z"></path><rect x="30" y="4" width="4" height="2"></rect><path d="M25.774,35.812l1.519-1.519,1.414,1.414-1.21,1.21A9.979,9.979,0,0,0,41.949,29H31V18.051a9.99,9.99,0,0,0-5.226,17.761Z"></path><rect x="4" y="8" width="56" height="2"></rect><path d="M6,44H58V12H6Zm12-2H14V40h4Zm0-4H14V36h4Zm34,4H47V40h5Zm0-4H47V36h5ZM49,16h4v2H49Zm0,4h4v2H49ZM20,38h3.586l.763-.764A11.989,11.989,0,1,1,40.264,19.322L41.586,18H47v2H42.414l-.821.821a11.979,11.979,0,0,1-15.57,17.57L24.414,40H20ZM14,14h4v2H14Zm-4,0h2v2H10Zm0,4h8v2H10Z"></path><rect x="30" y="50" width="4" height="6"></rect><rect x="23" y="58" width="18" height="2"></rect><rect x="4" y="46" width="56" height="2"></rect></g></svg>