<svg xmlns="http://www.w3.org/2000/svg" viewBox="0 0 64 64" x="0px" y="0px"><title>Typewriter-Tool-Writing-Technology</title><g data-name="Typewriter"><path d="M20.9,34.553,22.618,38H41.382l1.723-3.447A1,1,0,0,1,44,34h6V4H14V34h6A1,1,0,0,1,20.9,34.553ZM38,32H28V30H38ZM26,28V26H40v2Zm20,4H40V30h6Zm0-4H42V26h4Zm0-8H42V18h4Zm0-4H34V14H46Zm-4-6h4v2H42ZM26,10H40v2H26Zm6,4v2H22V14ZM18,10h6v2H18Zm0,4h2v2H18Zm0,4H40v2H18Zm0,4H46v2H18Zm0,4h6v2H18Zm0,4h8v2H18Z"></path><rect x="57" y="34" width="2" height="6"></rect><path d="M9,38h4a1,1,0,0,1,1,1v3H50V39a1,1,0,0,1,1-1h4V36H44.618l-1,2H46v2H18V38h2.382l-1-2H9Z"></path><rect x="5" y="34" width="2" height="6"></rect><rect x="4" y="56" width="56" height="4"></rect><path d="M59.382,54l-5-10H9.618l-5,10ZM54,52H52V50h2Zm-3-6h2v2H51Zm-1,6H48V50h2Zm-3-6h2v2H47Zm-4,0h2v2H43Zm-4,0h2v2H39Zm-4,0h2v2H35Zm-4,0h2v2H31Zm-4,0h2v2H27Zm-4,0h2v2H23Zm-4,0h2v2H19Zm-1,4H46v2H18Zm-3-4h2v2H15Zm-1,4h2v2H14Zm-3-4h2v2H11Zm-1,4h2v2H10Z"></path></g></svg>