<svg xmlns="http://www.w3.org/2000/svg" viewBox="0 0 64 64" x="0px" y="0px"><g data-name="Photo Camera"><rect x="10" y="19" width="8" height="4"></rect><circle cx="41" cy="32" r="9"></circle><path d="M41,45A13,13,0,1,0,28,32,13.015,13.015,0,0,0,41,45Zm0-24A11,11,0,1,1,30,32,11.013,11.013,0,0,1,41,21Z"></path><rect x="11" y="11" width="6" height="2"></rect><path d="M5,49H59a1,1,0,0,0,1-1V16a1,1,0,0,0-1-1H5a1,1,0,0,0-1,1V48A1,1,0,0,0,5,49Zm15-2H18V29h2ZM41,17A15,15,0,1,1,26,32,15.017,15.017,0,0,1,41,17ZM8,18a1,1,0,0,1,1-1H19a1,1,0,0,1,1,1v6a1,1,0,0,1-1,1H9a1,1,0,0,1-1-1Z"></path></g></svg>