<svg xmlns="http://www.w3.org/2000/svg" viewBox="0 0 64 64" x="0px" y="0px"><g><rect x="28" y="29" width="2" height="2"></rect><rect x="24" y="29" width="2" height="2"></rect><rect x="20" y="29" width="2" height="2"></rect><rect x="6" y="29" width="10" height="2"></rect><path d="M32,13H4a2,2,0,0,0-2,2v6a2,2,0,0,0,2,2H6v2H4a2,2,0,0,0-2,2v6a2,2,0,0,0,2,2H6v2H4a2,2,0,0,0-2,2v6a2,2,0,0,0,2,2H6v3a1,1,0,0,0,1,1h4a1,1,0,0,0,1-1V47H24v3a1,1,0,0,0,1,1h4a1,1,0,0,0,1-1V47h2a2,2,0,0,0,2-2V39a2,2,0,0,0-2-2H30V35h2a2,2,0,0,0,2-2V27a2,2,0,0,0-2-2H30V23h2a2,2,0,0,0,2-2V15A2,2,0,0,0,32,13ZM8,23h2v2H8Zm16,0v2H12V23ZM8,35h2v2H8Zm16,0v2H12V35ZM10,49H8V47h2Zm18,0H26V47h2Zm4-4H4V39H32Zm-4-8H26V35h2Zm4-4H4V27H32Zm-4-8H26V23h2ZM4,21V15H32l0,6Z"></path><rect x="28" y="17" width="2" height="2"></rect><rect x="24" y="17" width="2" height="2"></rect><rect x="20" y="17" width="2" height="2"></rect><rect x="6" y="17" width="10" height="2"></rect><rect x="28" y="41" width="2" height="2"></rect><rect x="24" y="41" width="2" height="2"></rect><rect x="20" y="41" width="2" height="2"></rect><rect x="6" y="41" width="10" height="2"></rect><path d="M39,10V29.184A3,3,0,0,0,37.184,31H36v2h1.184A3,3,0,0,0,39,34.816V54a1,1,0,0,0,1,1h4V53H41V34.816A3,3,0,0,0,42.816,33H44V31H42.816A3,3,0,0,0,41,29.184V11h3V9H40A1,1,0,0,0,39,10Zm1,23a1,1,0,1,1,1-1A1,1,0,0,1,40,33Z"></path><path d="M47,10h1v7a1,1,0,0,0,1,1H59a1,1,0,0,0,1-1V10h1a1,1,0,0,0,.65-1.759l-7-6a1,1,0,0,0-1.3,0l-7,6A1,1,0,0,0,47,10Zm11,6H50V10h8ZM54,4.317,58.3,8H49.7Z"></path><path d="M54.65,24.241a1,1,0,0,0-1.3,0l-7,6A1,1,0,0,0,47,32h1v7a1,1,0,0,0,1,1H59a1,1,0,0,0,1-1V32h1a1,1,0,0,0,.65-1.759ZM54,26.317,58.3,30H49.7ZM58,38H50V32h8Z"></path><path d="M54.65,46.241a1,1,0,0,0-1.3,0l-7,6A1,1,0,0,0,47,54h1v7a1,1,0,0,0,1,1H59a1,1,0,0,0,1-1V54h1a1,1,0,0,0,.65-1.759ZM54,48.317,58.3,52H49.7ZM58,60H50V54h8Z"></path></g></svg>