<svg xmlns="http://www.w3.org/2000/svg" viewBox="0 0 64 64" x="0px" y="0px"><g><circle cx="44" cy="59" r="2"></circle><circle cx="36" cy="59" r="2"></circle><path d="M12,49H10v2a1,1,0,0,0,2,0Z"></path><polygon points="14 26 8 26 8 43 10 43 10 28 12 28 12 43 14 43 14 26"></polygon><polygon points="8.202 45 9.535 47 12.465 47 13.798 45 8.202 45"></polygon><rect x="8" y="23" width="6" height="1"></rect><path d="M14,20a3,3,0,0,0-6,0v1h6Z"></path><rect x="42" y="42" width="2" height="2"></rect><path d="M51,12a3.009,3.009,0,0,1-3-3V4H21a1,1,0,0,0-1,1V51a1,1,0,0,0,1,1H48V50H33a1,1,0,0,1-.99-.84l-2-12a1.039,1.039,0,0,1,.23-.81A1.011,1.011,0,0,1,31,36H48V35a1,1,0,0,1,.11-.45l1-2A.977.977,0,0,1,50,32h2.18A3.01,3.01,0,0,1,55,30h1V12ZM32,28A10,10,0,1,1,42,18,10.016,10.016,0,0,1,32,28Zm20-4H44V22h8Zm0-4H44V18h8Zm0-4H44V14h8Z"></path><rect x="38" y="42" width="2" height="2"></rect><rect x="42" y="38" width="2" height="2"></rect><rect x="42" y="46" width="2" height="2"></rect><path d="M32,10a8,8,0,1,0,8,8A8.009,8.009,0,0,0,32,10Zm-1,7h2a3,3,0,0,1,0,6v1H31V23a3,3,0,0,1-3-3h2a1,1,0,0,0,1,1h2a1,1,0,0,0,0-2H31a3,3,0,0,1,0-6V12h2v1a3,3,0,0,1,3,3H34a1,1,0,0,0-1-1H31a1,1,0,0,0,0,2Z"></path><rect x="46" y="42" width="2" height="2"></rect><rect x="46" y="46" width="2" height="2"></rect><rect x="46" y="38" width="2" height="2"></rect><path d="M55,34h4a1,1,0,0,0,0-2H55a1,1,0,0,0,0,2Z"></path><path d="M51,10h3.586L50,5.414V9A1,1,0,0,0,51,10Z"></path><path d="M56,36V51a1,1,0,0,1-1,1H50V35.24L50.62,34h1.56A3.01,3.01,0,0,0,55,36Z"></path><path d="M50,52v1a1,1,0,0,1-1,1H33a1,1,0,0,0,0,2H49v2H33a3,3,0,0,1,0-6Z"></path><rect x="38" y="46" width="2" height="2"></rect><polygon points="36 38 32.181 38 32.514 40 36 40 36 38"></polygon><rect x="38" y="38" width="2" height="2"></rect><polygon points="36 48 36 46 33.514 46 33.847 48 36 48"></polygon><polygon points="36 42 32.847 42 33.181 44 36 44 36 42"></polygon></g></svg>