<svg xmlns="http://www.w3.org/2000/svg" viewBox="0 0 64 64" x="0px" y="0px"><g data-name="Contact-Contact List-Smartphone-Mobile-App"><path d="M37.663,34.574,34.9,32.736A3.981,3.981,0,0,0,36,30V27a4,4,0,0,0-8,0v3a3.981,3.981,0,0,0,1.1,2.736l-2.76,1.838A3,3,0,0,0,25,37.071V38a1,1,0,0,0,1,1H38a1,1,0,0,0,1-1v-.929A3,3,0,0,0,37.663,34.574ZM30,30V29a9.785,9.785,0,0,0,4-.917V30a2,2,0,0,1-4,0Zm2-5a1.994,1.994,0,0,1,1.737,1.028l-.13.053A8.559,8.559,0,0,1,30,27,2,2,0,0,1,32,25ZM27,37a1,1,0,0,1,.444-.762l3.567-2.376a3.6,3.6,0,0,0,1.974,0l3.567,2.376A1,1,0,0,1,37,37Z"></path><path d="M44,2H20a7.008,7.008,0,0,0-7,7V31.15L6.76,41.95A16.875,16.875,0,0,0,4.59,52.33l1.08,9.78,1.99-.22L6.57,52.11a14.956,14.956,0,0,1,1.92-9.16L13,35.15V48.12l-.56.98,1.73,1,5-8.66a1.988,1.988,0,0,1,2.73-.73,1.927,1.927,0,0,1,.93,1.21,1.974,1.974,0,0,1-.2,1.52l-3.5,6.06a1.023,1.023,0,0,0-.06.87l1.29,3.21A9.149,9.149,0,0,1,21,56.93v1.3a8.937,8.937,0,0,1-.66,3.39l1.85.76c.05-.13.09-.25.13-.38H44a7.008,7.008,0,0,0,7-7V9A7.008,7.008,0,0,0,44,2Zm5,53a5,5,0,0,1-5,5H22.85A11.529,11.529,0,0,0,23,58.23v-1.3A11.075,11.075,0,0,0,22.6,54H49Zm0-3H21.88l-.77-1.92,3.26-5.64A3.972,3.972,0,0,0,24.86,43H40a3.009,3.009,0,0,0,3-3V22a3.009,3.009,0,0,0-3-3H24a3.009,3.009,0,0,0-3,3V38.46a3.976,3.976,0,0,0-3.56,1.98L15,44.66V12H49ZM23,39.04V22a1,1,0,0,1,1-1H40a1,1,0,0,1,1,1V40a1,1,0,0,1-1,1H24.61A3.963,3.963,0,0,0,23,39.04ZM49,10H15V9a5,5,0,0,1,5-5H44a5,5,0,0,1,5,5Z"></path><rect x="25" y="6" width="2" height="2"></rect><rect x="29" y="6" width="6" height="2"></rect><rect x="30" y="56" width="4" height="2"></rect><path d="M17,15v4h2V16h3V14H18A1,1,0,0,0,17,15Z"></path><rect x="17" y="21" width="2" height="2"></rect></g></svg>