<svg xmlns="http://www.w3.org/2000/svg" viewBox="0 0 64 64" x="0px" y="0px"><g><path d="M51.707,21.293l-19-19a1,1,0,0,0-1.414,0l-19,19,1.414,1.414L19,17.414V39a1,1,0,0,0,1,1h7V52.184A3,3,0,0,0,25,55v4a3,3,0,0,0,6,0V55a3,3,0,0,0-2-2.816V40h5v5.184A3,3,0,0,0,32,48v4a3,3,0,0,0,6,0V48a3,3,0,0,0-2-2.816V40h8a1,1,0,0,0,1-1V17.414l5.293,5.293ZM29,59a1,1,0,0,1-2,0V55a1,1,0,0,1,2,0Zm7-7a1,1,0,0,1-2,0V48a1,1,0,0,1,2,0Zm7-14H21V15.414l11-11,11,11Z"></path><path d="M28,14a4,4,0,1,0,4-4A4,4,0,0,0,28,14Zm6,0a2,2,0,1,1-2-2A2,2,0,0,1,34,14Z"></path><path d="M24,28a8,8,0,1,0,8-8A8.009,8.009,0,0,0,24,28Zm14,0a6,6,0,1,1-6-6A6.006,6.006,0,0,1,38,28Z"></path><path d="M31,24v2.278a2.015,2.015,0,0,0-.722.722H28v2h2.278A1.994,1.994,0,1,0,33,26.278V24Z"></path></g></svg>