<svg xmlns="http://www.w3.org/2000/svg" viewBox="0 0 64 64" x="0px" y="0px"><g><rect x="17" y="19" width="2" height="2"></rect><rect x="27" y="19" width="2" height="2"></rect><path d="M27,25H25a2,2,0,0,1-4,0H19a4,4,0,0,0,8,0Z"></path><path d="M55.691,13.574l-2.212-2.433a2.066,2.066,0,0,0-2.959,0l-2.211,2.432A25.078,25.078,0,0,0,41.9,32.526l1.038,12.1a10.95,10.95,0,0,0-6.656-5.776L28,36.265V32.786a11.03,11.03,0,0,0,1.675-1.063A14.975,14.975,0,0,0,39,35a1,1,0,0,0,1-1V16a11,11,0,0,0-4.057-8.5A2.956,2.956,0,0,0,36,7a2.994,2.994,0,0,0-4.994-2.234A12.989,12.989,0,0,0,10,15v1.78A2.989,2.989,0,0,0,12,22v1a11,11,0,0,0,6,9.786v3.479L9.719,38.853A10.952,10.952,0,0,0,2,49.352V61a1,1,0,0,0,1,1H43a1,1,0,0,0,1-1V57.04l0,.045a1,1,0,0,0,1.39.834L52,55.088l6.606,2.831A1,1,0,0,0,60,57.085L62.1,32.526A25.078,25.078,0,0,0,55.691,13.574ZM32.615,43.209A8.968,8.968,0,0,0,35.13,48.6,8.258,8.258,0,0,1,37,54a8.1,8.1,0,0,1-1.967,5.494,5.2,5.2,0,0,0-.475.506H11.442a5.2,5.2,0,0,0-.475-.506A8.1,8.1,0,0,1,9,54a8.257,8.257,0,0,1,1.873-5.408,8.963,8.963,0,0,0,2.512-5.382l.355-3.518L15,39.3V47c0,3.86,3.589,7,8,7s8-3.14,8-7.01V39.3l1.261.394ZM17.532,49.047a4.941,4.941,0,0,1,3.954,2.786A5.853,5.853,0,0,1,17.532,49.047Zm6.982,2.786a4.941,4.941,0,0,1,3.954-2.786A5.853,5.853,0,0,1,24.514,51.833ZM38,16V32.961a12.993,12.993,0,0,1-6.846-2.6A10.945,10.945,0,0,0,34,23V22a2.989,2.989,0,0,0,2-5.22V15a12.941,12.941,0,0,0-1.263-5.587c.066-.048.142-.081.2-.134l.012-.012A9,9,0,0,1,38,16Zm-4,2a1,1,0,0,1,0,2ZM34,7a.961.961,0,0,1-.108.441.94.94,0,0,1-.168.214c-.06-.087-.113-.177-.174-.262A13.48,13.48,0,0,0,32.5,6.142.976.976,0,0,1,33,6,1,1,0,0,1,34,7ZM12,15A11,11,0,0,1,30.369,6.827c.052.046.1.086.164.149a11.572,11.572,0,0,1,1.4,1.588A10.942,10.942,0,0,1,34,15v1a1,1,0,0,0-1-1H30.414l-2.707-2.707a1,1,0,0,0-1.539.152L24.465,15H13a1,1,0,0,0-1,1Zm-1,4a1,1,0,0,1,1-1v2A1,1,0,0,1,11,19Zm3,4V17H25a1,1,0,0,0,.832-.445l1.323-1.985,2.138,2.137A1,1,0,0,0,30,17h2v6a9,9,0,0,1-18,0Zm5.3,14.955A1,1,0,0,0,20,37V33.574a10.776,10.776,0,0,0,6,0V37a1,1,0,0,0,.7.955l2.3.718V47a6.967,6.967,0,0,0-6,3.393A6.967,6.967,0,0,0,17,47V38.673ZM4,49.352a8.961,8.961,0,0,1,6.315-8.59l1.349-.422L11.4,43.01A6.958,6.958,0,0,1,9.45,47.186,10.239,10.239,0,0,0,7,54a10.752,10.752,0,0,0,1.791,6H4ZM42,60H37.209A10.752,10.752,0,0,0,39,54a10.238,10.238,0,0,0-2.447-6.812A6.95,6.95,0,0,1,34.6,43.01l-.268-2.669,1.348.421A8.961,8.961,0,0,1,42,49.352ZM58.966,23c.223.657.411,1.325.575,2H44.459c.164-.675.352-1.343.575-2Zm-4.755-8.081h0A22.963,22.963,0,0,1,58.178,21H53V13.587Zm-4.422,0L51,13.587V21H45.822A22.963,22.963,0,0,1,49.789,14.919Zm10.32,17.436L58.122,55.536l-5.728-2.455a1,1,0,0,0-.788,0l-5.728,2.455L43.891,32.355A22.863,22.863,0,0,1,44.07,27H59.93A22.863,22.863,0,0,1,60.109,32.355Z"></path><rect x="55" y="48" width="2" height="4"></rect><rect x="51" y="45" width="2" height="4"></rect><rect x="47" y="48" width="2" height="4"></rect></g></svg>