<svg xmlns="http://www.w3.org/2000/svg" viewBox="0 0 64 64" x="0px" y="0px"><g data-name="Speech Bubble"><path d="M60.349,5.722a5.011,5.011,0,0,0-3.863-1.26l-50,5.172A4.989,4.989,0,0,0,2,14.607V43a5.006,5.006,0,0,0,5,5H38V59a1,1,0,0,0,.659.94A1.013,1.013,0,0,0,39,60a1,1,0,0,0,.769-.36L49.469,48H57a5.006,5.006,0,0,0,5-5V9.435A5.009,5.009,0,0,0,60.349,5.722ZM60,43a3,3,0,0,1-3,3H49a1,1,0,0,0-.769.36L40,56.238V47a1,1,0,0,0-1-1H7a3,3,0,0,1-3-3V14.607a2.991,2.991,0,0,1,2.691-2.983l50-5.173A3,3,0,0,1,60,9.435Z"></path><rect x="14" y="18" width="2" height="2"></rect><rect x="18" y="18" width="2" height="2"></rect><rect x="22" y="18" width="28" height="2"></rect><rect x="14" y="24" width="28" height="2"></rect><rect x="44" y="24" width="2" height="2"></rect><rect x="48" y="24" width="2" height="2"></rect><rect x="14" y="30" width="36" height="2"></rect><rect x="14" y="36" width="18" height="2"></rect><rect x="34" y="36" width="2" height="2"></rect><rect x="38" y="36" width="2" height="2"></rect><rect x="42" y="36" width="8" height="2"></rect></g></svg>