<svg xmlns="http://www.w3.org/2000/svg" viewBox="0 0 64 64" x="0px" y="0px"><g><path d="M32,2A30,30,0,1,0,62,32,30.034,30.034,0,0,0,32,2ZM59.975,31H50V24a3,3,0,0,0-3-3H45.96a46.573,46.573,0,0,0-1.468-5.737,29.739,29.739,0,0,0,6.355-3.951A27.935,27.935,0,0,1,59.975,31ZM31,46.024a29.727,29.727,0,0,0-9.64,1.922A44.067,44.067,0,0,1,20.077,43H31Zm0,2V59.915c-3.51-.6-6.741-4.335-8.969-10.085A27.749,27.749,0,0,1,31,48.024Zm2,11.891V48.024a27.713,27.713,0,0,1,8.968,1.807C39.74,55.58,36.51,59.315,33,59.915Zm9.64-11.968A29.707,29.707,0,0,0,33,46.024V43H43.923A44.3,44.3,0,0,1,42.64,47.947ZM17,41a1,1,0,0,1-1-1V24a1,1,0,0,1,1-1H47a1,1,0,0,1,1,1V40a1,1,0,0,1-1,1ZM33,17.976a29.727,29.727,0,0,0,9.64-1.922A44.067,44.067,0,0,1,43.923,21H33Zm0-2V4.085c3.51.6,6.741,4.335,8.969,10.085A27.749,27.749,0,0,1,33,15.976ZM31,4.085V15.976a27.713,27.713,0,0,1-8.968-1.807C24.26,8.42,27.49,4.685,31,4.085ZM21.36,16.053A29.707,29.707,0,0,0,31,17.976V21H20.077A44.3,44.3,0,0,1,21.36,16.053ZM49.288,10a27.732,27.732,0,0,1-5.474,3.374,22.813,22.813,0,0,0-5.481-8.642A27.9,27.9,0,0,1,49.288,10Zm-29.1,3.373A27.68,27.68,0,0,1,14.712,10,27.9,27.9,0,0,1,25.667,4.731,22.817,22.817,0,0,0,20.186,13.372Zm-7.033-2.06a29.7,29.7,0,0,0,6.355,3.95A46.77,46.77,0,0,0,18.04,21H17a3,3,0,0,0-3,3v7H4.025A27.935,27.935,0,0,1,13.153,11.312ZM4.025,33H14v7a3,3,0,0,0,3,3h1.04a46.573,46.573,0,0,0,1.468,5.737,29.739,29.739,0,0,0-6.355,3.951A27.935,27.935,0,0,1,4.025,33ZM14.712,54a27.732,27.732,0,0,1,5.474-3.374,22.813,22.813,0,0,0,5.481,8.642A27.9,27.9,0,0,1,14.712,54Zm29.1-3.373A27.68,27.68,0,0,1,49.288,54a27.9,27.9,0,0,1-10.955,5.268A22.817,22.817,0,0,0,43.814,50.628Zm7.033,2.06a29.7,29.7,0,0,0-6.355-3.95A46.77,46.77,0,0,0,45.96,43H47a3,3,0,0,0,3-3V33h9.975A27.935,27.935,0,0,1,50.847,52.688Z"></path><path d="M46.447,25.9l-.894-1.79-13.1,6.553a1,1,0,0,1-.895,0L18.447,24.105l-.894,1.79,8.092,4.046-8.352,8.352,1.414,1.414,8.824-8.824,3.128,1.564a3.014,3.014,0,0,0,2.683,0l3.127-1.564,8.824,8.824,1.414-1.414-8.352-8.352Z"></path></g></svg>