<svg xmlns="http://www.w3.org/2000/svg" viewBox="0 0 64 64" x="0px" y="0px"><g data-name="Online Shopping"><circle cx="52" cy="13" r="2"></circle><circle cx="13" cy="7" r="2"></circle><path d="M38,42a2,2,0,0,1-2,2H28a2,2,0,0,1-2-2V40H24v3a3,3,0,0,0,3,3H37a3,3,0,0,0,3-3V40H38Z"></path><rect x="38" y="36" width="2" height="2"></rect><path d="M32,24a8,8,0,1,0-8-8A8.009,8.009,0,0,0,32,24Zm1-7H31a3,3,0,0,1,0-6V10h2v1a3,3,0,0,1,3,3H34a1,1,0,0,0-1-1H31a1,1,0,0,0,0,2h2a3,3,0,0,1,0,6v1H31V21a3,3,0,0,1-3-3h2a1,1,0,0,0,1,1h2a1,1,0,0,0,0-2Z"></path><path d="M55,30H9V54H55ZM42,43a5.006,5.006,0,0,1-5,5H27a5.006,5.006,0,0,1-5-5V35a1,1,0,0,1,1-1h4a1,1,0,0,1,1,1v7h8V35a1,1,0,0,1,1-1h4a1,1,0,0,1,1,1Z"></path><path d="M55,56H9v1a3,3,0,0,0,3,3H52a3,3,0,0,0,3-3Z"></path><rect x="24" y="36" width="2" height="2"></rect><polygon points="9 26.586 10.586 25 9 23.414 9 26.586"></polygon><path d="M10.414,22l2.293,2.293a1,1,0,0,1,0,1.414L10.414,28H24.826a14.068,14.068,0,0,1-5.456-6Z"></path><polygon points="55 23.414 53.414 25 55 26.586 55 23.414"></polygon><path d="M32,28A12,12,0,1,0,20,16,12.013,12.013,0,0,0,32,28ZM32,6A10,10,0,1,1,22,16,10.011,10.011,0,0,1,32,6Z"></path><path d="M53.586,22H44.63a14.068,14.068,0,0,1-5.456,6H53.586l-2.293-2.293a1,1,0,0,1,0-1.414Z"></path><rect x="51" y="6" width="2" height="2"></rect><rect x="51" y="2" width="2" height="2"></rect><rect x="12" y="12" width="2" height="2"></rect><rect x="12" y="16" width="2" height="2"></rect></g></svg>