<svg xmlns="http://www.w3.org/2000/svg" viewBox="0 0 64 64" x="0px" y="0px"><g><path d="M45.2,29.6l.7.932L43.7,32H42V30.816A3,3,0,0,0,44,28H42a1,1,0,0,1-2,0H38a3,3,0,0,0,2,2.816V32H38.236l-2.894-1.447.553-1.106-1.79-.894-2,4,1.79.894.552-1.105L37,33.618V36a4,4,0,0,0,8,0V33.535l2.1-1.4L48.2,33.6l1.6-1.2-3-4ZM43,36a2,2,0,0,1-4,0V34h4Z"></path><rect x="35" y="23" width="2" height="2"></rect><rect x="44" y="23" width="2" height="2"></rect><rect x="47" y="21.697" width="2" height="3.606" transform="translate(-4.974 30.572) rotate(-33.69)"></rect><rect x="30.307" y="22.5" width="5.385" height="2.001" transform="translate(-1.077 45.409) rotate(-68.193)"></rect><path d="M54.832,20.445,53.138,17.9,53.806,6.37a2,2,0,0,0-3.6-1.316L43.5,14H37.514L30.042,3.537A2,2,0,0,0,26.426,4.92l1.4,12.651L27.2,18.4a1,1,0,0,0-.2.6V36H15V29a1,1,0,0,0-1-1,5.006,5.006,0,0,0-5,5V61a1,1,0,0,0,1,1h5A1,1,0,0,0,16,61.1l.69-6.9c.1-.067.216-.126.315-.2v0a1,1,0,0,0,1,1,4.989,4.989,0,0,0,1-.112V57a1,1,0,0,0,1,1h5a1,1,0,0,0,.986-.835l.366-2.194A4.978,4.978,0,0,0,29,54v0a1,1,0,0,0,1,1,4.951,4.951,0,0,0,1.218-.168l.79,6.293A1,1,0,0,0,33,62h5a1,1,0,0,0,1-1V52h2.117l.891,7.124A1,1,0,0,0,43,60h5a1,1,0,0,0,1-1V38.918l.442-.647,1.329.632a1,1,0,0,0,1.3-.414l2.8-5A1,1,0,0,0,55,33V21A1.006,1.006,0,0,0,54.832,20.445ZM51.81,6.254,51.3,15.14l-.463-.7A1,1,0,0,0,50,14H46ZM28.415,4.7,35.057,14H31a1,1,0,0,0-.8.4l-.623.831ZM13,30.171V36H11V33A3.006,3.006,0,0,1,13,30.171ZM14.1,60H11V54.888A4.987,4.987,0,0,0,13,54v0a1,1,0,0,0,1,1,5.147,5.147,0,0,0,.6-.049ZM21,56V54a1,1,0,0,0,1,1,4.957,4.957,0,0,0,2.426-.637L24.153,56Zm9-7a1,1,0,0,0-1,1,3.006,3.006,0,0,1-2,2.829V50a1,1,0,0,0-2,0,3.006,3.006,0,0,1-2,2.829V50a1,1,0,0,0-2,0,3.006,3.006,0,0,1-2,2.829V50a1,1,0,0,0-2,0,3.006,3.006,0,0,1-2,2.829V50a1,1,0,0,0-2,0,3.006,3.006,0,0,1-2,2.829V38H28.525l1.609,1.689a1,1,0,0,0,1.183.2l1.486-.771.2.2V50a3.006,3.006,0,0,1-2,2.829V50A1,1,0,0,0,30,49Zm5-3.234,1.268.761L35,46.78Zm12,.953-.719-.179L47,46ZM47,43.5l-3.6,2.7a1,1,0,0,0,.358,1.77L47,48.781V58H43.883l-.891-7.124A1,1,0,0,0,42,50H38a1,1,0,0,0-1,1v9H33.882l-.768-6.12A4.972,4.972,0,0,0,35,50V48.82l4.2-.84a1,1,0,0,0,.319-1.837L35,43.434V41.363L37.285,43.7A1,1,0,0,0,38,44h7a1,1,0,0,0,.825-.436L47,41.845Zm6-10.761L50.785,36.7l-1.256-.6a1,1,0,0,0-1.255.339L44.472,42H38.421l-4.706-4.811A1,1,0,0,0,32.54,37l-1.477.766L29,35.6V19.333L31.5,16H49.465L53,21.3Z"></path></g></svg>