<svg xmlns="http://www.w3.org/2000/svg" viewBox="0 0 64 64" x="0px" y="0px"><g data-name="Cactus"><path d="M13.028,28.168A9.917,9.917,0,0,0,17.2,31.44c.018-.112.048-.222.068-.334.036-.211.081-.418.126-.627q.114-.538.263-1.064c.058-.2.117-.408.183-.611.115-.356.246-.7.385-1.052.073-.181.14-.363.218-.541.179-.4.378-.8.587-1.185.058-.106.107-.217.167-.322a16.137,16.137,0,0,1,.9-1.41c.083-.115.176-.221.261-.334.25-.331.508-.655.782-.964.133-.15.273-.29.411-.433.248-.259.5-.511.766-.751.157-.143.318-.281.481-.417.122-.1.235-.213.36-.311-.058-.083-.12-.167-.185-.254a9.409,9.409,0,0,0-5.7-3.715,6.711,6.711,0,0,0-1.2-.113,4.956,4.956,0,0,0-3.009.951,2.107,2.107,0,0,0-.229.194C10.3,20.323,10.414,24.7,13.028,28.168Z"></path><path d="M31,7c-3.309,0-6,3.589-6,8a9.977,9.977,0,0,0,.969,4.35c.015-.007.03-.011.044-.018a13.967,13.967,0,0,1,1.311-.535c.044-.015.088-.033.133-.049.435-.148.877-.271,1.324-.375l.235-.053c.441-.095.887-.17,1.338-.222.072-.008.144-.013.216-.021C31.042,18.03,31.518,18,32,18c.414,0,.826.022,1.236.058.13.011.259.031.389.046.282.032.562.07.84.119.147.026.293.056.439.087.265.055.528.119.79.19.142.039.283.076.423.118.07.022.141.037.211.059A10.137,10.137,0,0,0,37,15C37,10.589,34.309,7,31,7ZM30,17H28V15h2Zm0-4H28V11h2Zm4,4H32V15h2Zm0-4H32V11h2Z"></path><path d="M60,46H4v3A11.013,11.013,0,0,0,15,60H49A11.013,11.013,0,0,0,60,49Zm-5,4H53V48h2Zm3,3H56V51h2Zm0-3H56V48h2Z"></path><path d="M42.482,44A23.852,23.852,0,0,0,45,34a14.537,14.537,0,0,0-1.168-5.785,13.644,13.644,0,0,0-6.122-6.789,12.275,12.275,0,0,0-1.182-.547l-.061-.028c-.174-.068-.352-.121-.528-.181s-.369-.135-.556-.19-.375-.091-.562-.135-.363-.1-.546-.131c-.223-.042-.448-.066-.672-.1-.153-.02-.3-.05-.457-.064Q32.576,20,32,20a12.022,12.022,0,0,0-5.942,1.553,10.994,10.994,0,0,0-.993.612,14.138,14.138,0,0,0-5.8,9.061,14.618,14.618,0,0,0-.214,1.61C19.019,33.218,19,33.6,19,34a23.852,23.852,0,0,0,2.518,10ZM36,26h2v2H36Zm0,6h2v2H36Zm0,6h2v2H36ZM26,26h2v2H26Zm0,6h2v2H26Zm0,6h2v2H26Z"></path><path d="M41.666,14.548a19.25,19.25,0,0,0-3.431,4.9c.084.041.164.092.248.135.148.076.294.158.44.239q.4.222.779.467c.143.091.284.182.424.278.262.182.516.374.767.572.116.092.235.179.349.274.348.291.686.6,1.008.918l.026.024c.33.331.643.682.943,1.044.095.113.182.233.274.35.2.256.4.516.582.785.1.143.194.29.289.438q.249.387.477.791c.087.154.174.308.256.466.046.088.1.171.143.26a18.9,18.9,0,0,0,4.91-3.455l0,0c3.511-3.5,4.465-8.26,2.128-10.607S45.178,11.044,41.666,14.548Z"></path><rect x="30" y="2" width="2" height="4"></rect><rect x="23.636" y="4.636" width="2" height="4" transform="translate(2.523 19.364) rotate(-45)"></rect><rect x="35.364" y="5.636" width="4" height="2" transform="translate(6.251 28.364) rotate(-45)"></rect><rect x="52.4" y="9.308" width="4" height="2" transform="translate(8.645 41.485) rotate(-45)"></rect><rect x="48" y="6" width="2" height="4"></rect><rect x="55" y="15" width="4" height="2"></rect><rect x="10.029" y="13.978" width="2" height="4" transform="translate(-7.369 9.779) rotate(-36.762)"></rect><rect x="6.509" y="19.898" width="2" height="4" transform="translate(-15.239 26.192) rotate(-81.761)"></rect><rect x="15.706" y="13.28" width="4" height="2" transform="translate(1.031 29.753) rotate(-81.747)"></rect></g></svg>