<svg xmlns="http://www.w3.org/2000/svg" viewBox="0 0 64 64" x="0px" y="0px"><g><path d="M61.156,43.18,56,39.54V34a1,1,0,0,0-1-1H51a1,1,0,0,0-1,1v1.3l-4.423-3.122a1,1,0,0,0-1.154,0l-15.58,11A2.785,2.785,0,1,0,32.1,47.7L34,46.307V60a2,2,0,0,0,2,2H54a2,2,0,0,0,2-2V46.307L57.9,47.7a2.785,2.785,0,1,0,3.253-4.522ZM52,35h2v3.128l-2-1.411ZM40,60V54h4v6Zm14,0H46V53a1,1,0,0,0-1-1H39a1,1,0,0,0-1,1v7H36V44.84l9-6.6,9,6.6Zm6.2-14.108a.787.787,0,0,1-1.119.2l-13.494-9.9a1,1,0,0,0-1.182,0l-13.494,9.9a.787.787,0,0,1-1.119-.2.783.783,0,0,1,.2-1.078l15-10.59L60,44.813A.784.784,0,0,1,60.2,45.892Z"></path><path d="M47,53v4a1,1,0,0,0,1,1h4a1,1,0,0,0,1-1V53a1,1,0,0,0-1-1H48A1,1,0,0,0,47,53Zm2,1h2v2H49Z"></path><path d="M41,46a4,4,0,1,0,4-4A4,4,0,0,0,41,46Zm6,0a2,2,0,1,1-2-2A2,2,0,0,1,47,46Z"></path><path d="M32,33V29a1,1,0,0,0-1-1H30V15h1a1,1,0,0,0,1-1V9a1,1,0,0,0-.606-.919l-14-6a1.007,1.007,0,0,0-.788,0l-14,6A1,1,0,0,0,2,9v5a1,1,0,0,0,1,1H4V28H3a1,1,0,0,0-1,1v4a1,1,0,0,0,1,1H31A1,1,0,0,0,32,33Zm-4-5H26V15h2Zm-6,0V23a5,5,0,0,0-10,0v5H10V15H24V28Zm-2,0H14V23a3,3,0,0,1,6,0ZM4,9.659,17,4.088,30,9.659V13H4ZM6,15H8V28H6ZM30,32H4V30H30Z"></path><path d="M17,12a3,3,0,1,0-3-3A3,3,0,0,0,17,12Zm0-4a1,1,0,1,1-1,1A1,1,0,0,1,17,8Z"></path><rect x="32" y="20" width="2" height="2"></rect><rect x="16" y="36" width="2" height="2"></rect><rect x="16" y="40" width="2" height="2"></rect><rect x="16" y="44" width="2" height="2"></rect><rect x="16" y="48" width="2" height="2"></rect><rect x="16" y="52" width="2" height="2"></rect><rect x="20" y="52" width="2" height="2"></rect><rect x="24" y="52" width="2" height="2"></rect><rect x="28" y="52" width="2" height="2"></rect><rect x="36" y="20" width="2" height="2"></rect><rect x="40" y="20" width="2" height="2"></rect><rect x="44" y="20" width="2" height="2"></rect><rect x="44" y="24" width="2" height="2"></rect><rect x="44" y="28" width="2" height="2"></rect></g></svg>