<svg xmlns="http://www.w3.org/2000/svg" viewBox="0 0 64 64" x="0px" y="0px"><title>Employee Card-card-worker-idendification-business
</title><g data-name="Employee Card "><path d="M52,8H44.981A3.186,3.186,0,0,0,41.81,5H37.2A6.007,6.007,0,0,0,26.8,5H22.19a3.186,3.186,0,0,0-3.171,3H12a1,1,0,0,0-1,1V61a1,1,0,0,0,1,1H52a1,1,0,0,0,1-1V9A1,1,0,0,0,52,8ZM21,8.19A1.192,1.192,0,0,1,22.19,7h5.22a1,1,0,0,0,.914-.595,4.012,4.012,0,0,1,7.352,0A1,1,0,0,0,36.59,7h5.22A1.192,1.192,0,0,1,43,8.19V13H21ZM51,60H13V10h6v4a1,1,0,0,0,1,1H44a1,1,0,0,0,1-1V10h6Z"></path><path d="M32,11a3,3,0,1,0-3-3A3,3,0,0,0,32,11Zm0-4a1,1,0,1,1-1,1A1,1,0,0,1,32,7Z"></path><path d="M24,42H40a1,1,0,0,0,1-1V38a5.006,5.006,0,0,0-5-5H28a5.006,5.006,0,0,0-5,5v3A1,1,0,0,0,24,42Zm1-4a3,3,0,0,1,3-3h8a3,3,0,0,1,3,3v2H25Z"></path><path d="M37,28a5,5,0,1,0-5,5A5.006,5.006,0,0,0,37,28Zm-5,3a3,3,0,1,1,3-3A3,3,0,0,1,32,31Z"></path><path d="M44,19H20a1,1,0,0,0-1,1V45a1,1,0,0,0,1,1H44a1,1,0,0,0,1-1V20A1,1,0,0,0,44,19ZM43,44H21V21H43Z"></path><rect x="27" y="50" width="10" height="2"></rect><rect x="22" y="54" width="20" height="2"></rect></g></svg>