<svg xmlns="http://www.w3.org/2000/svg" viewBox="0 0 64 64" x="0px" y="0px"><g><path d="M40,40H37.816A3,3,0,0,0,35,38H34V35.668a14,14,0,1,0-6,0V38H26a1,1,0,0,0-.447.1l-2.727,1.364A.982.982,0,0,0,22,39H14a1,1,0,0,0-1,1v1H3a1,1,0,0,0-1,1V56a1,1,0,0,0,1,1H13v1a1,1,0,0,0,1,1h8a1,1,0,0,0,1-1h5v1a3.017,3.017,0,0,0,3,3,3,3,0,0,0,3-3V58h6a3,3,0,0,0,3-3V43A3,3,0,0,0,40,40ZM4,55V43h9V55Zm37-7H34a1,1,0,0,1,0-2h7Zm-9.22-3c-.045.05-.087.1-.128.156.024-.075.05-.149.071-.225C31.743,44.954,31.76,44.978,31.78,45ZM33,51a1,1,0,0,1,1-1h7v2H34A1,1,0,0,1,33,51Zm8-8v1H35a2.994,2.994,0,0,0,2.818-2H40A1,1,0,0,1,41,43ZM19,22A12,12,0,1,1,31,34,12.013,12.013,0,0,1,19,22ZM30,35.949c.332.024.662.051,1,.051s.668-.027,1-.051V38H30ZM15,57V41h6V57Zm8-1V41.618L26.236,40H35a1,1,0,0,1,1,1,.977.977,0,0,1-.307.713A.959.959,0,0,1,35,42H31a1,1,0,0,0-1,1,4.919,4.919,0,0,1-.838,2.765,4.8,4.8,0,0,1-.833.954A4.95,4.95,0,0,1,25,48v2a6.958,6.958,0,0,0,3-.681V56Zm8,4a.978.978,0,0,1-.712-.306A.957.957,0,0,1,30,59V47.868a6.515,6.515,0,0,0,.829-1c.081-.12.149-.248.222-.373A2.864,2.864,0,0,0,31.78,49a2.954,2.954,0,0,0,0,4A2.96,2.96,0,0,0,32,57.22V59A1,1,0,0,1,31,60Zm10-5a1,1,0,0,1-1,1H34a1,1,0,0,1,0-2h7Z"></path><path d="M41,22A10,10,0,1,0,31,32,10.011,10.011,0,0,0,41,22ZM23,22a8,8,0,1,1,8,8A8.009,8.009,0,0,1,23,22Z"></path><path d="M19,4H35V7h2V6h2V8h2V4H57V30H44v2H58a1,1,0,0,0,1-1V3a1,1,0,0,0-1-1H40a1,1,0,0,0-1,1V4H37V3a1,1,0,0,0-1-1H18a1,1,0,0,0-1,1v9h2Z"></path><path d="M15,35h5V33H16V5.028H14V34A1,1,0,0,0,15,35Z"></path><path d="M60,5.028V33H42v2H61a1,1,0,0,0,1-1V5.028Z"></path><rect x="49" y="8" width="6" height="2"></rect><rect x="43" y="8" width="4" height="2"></rect><rect x="45" y="12" width="10" height="2"></rect><rect x="46" y="16" width="9" height="2"></rect><rect x="47" y="20" width="8" height="2"></rect><rect x="47" y="24" width="8" height="2"></rect><rect x="54.492" y="39.55" width="2" height="2" transform="translate(-1.605 78.808) rotate(-69.981)"></rect><rect x="52.65" y="43.5" width="2" height="2" transform="translate(-11.711 68.719) rotate(-60.005)"></rect><rect x="50.151" y="47.07" width="1.999" height="2" transform="translate(-18.553 56.343) rotate(-49.99)"></rect><rect x="47.07" y="50.151" width="1.999" height="2" transform="translate(-21.634 42.878) rotate(-40.01)"></rect><rect x="4.38" y="33.342" width="2" height="1.999" transform="translate(-5.874 1.453) rotate(-9.987)"></rect><rect x="4" y="29" width="2" height="2"></rect><rect x="4.38" y="24.659" width="1.999" height="2" transform="translate(-20.823 26.509) rotate(-80.018)"></rect><rect x="5.508" y="20.45" width="2" height="2" transform="translate(-15.874 20.223) rotate(-69.986)"></rect><rect x="7.349" y="16.5" width="2" height="2" transform="translate(-10.981 15.98) rotate(-59.998)"></rect><rect x="9.849" y="12.93" width="2" height="2" transform="translate(-6.796 13.281) rotate(-49.981)"></rect></g></svg>