<svg xmlns="http://www.w3.org/2000/svg" viewBox="0 0 64 64" x="0px" y="0px"><title>Shampoo</title><g><path d="M41,22H38V17a1,1,0,0,0-1-1H35V13a1,1,0,0,0-1-1H33V8h7a1,1,0,0,0,1-1V3a1,1,0,0,0-1-1H32a5.006,5.006,0,0,0-5,5v5H26a1,1,0,0,0-1,1v3H23a1,1,0,0,0-1,1v5H19a7.009,7.009,0,0,0-7,7V55a3,3,0,0,0,2,2.816V60a2,2,0,0,0,2,2H44a2,2,0,0,0,2-2V57.816A3,3,0,0,0,48,55V29A7.009,7.009,0,0,0,41,22ZM29,7a3,3,0,0,1,3-3h7V6H33a2,2,0,0,0-2,2v4H29Zm-2,7h6v2H27Zm-3,4H36v4H35V19H33v3H31V19H29v3H27V19H25v3H24ZM16,60V58H44v2Zm30-5a1,1,0,0,1-1,1H15a1,1,0,0,1-1-1V29a5.006,5.006,0,0,1,5-5H41a5.006,5.006,0,0,1,5,5Z"></path><path d="M50,12a3,3,0,1,0-3-3A3,3,0,0,0,50,12Zm0-4a1,1,0,1,1-1,1A1,1,0,0,1,50,8Z"></path><path d="M53,16a4,4,0,1,0,4,4A4,4,0,0,0,53,16Zm0,6a2,2,0,1,1,2-2A2,2,0,0,1,53,22Z"></path><path d="M41,29H19a1,1,0,0,0-1,1V50a1,1,0,0,0,1,1H41a1,1,0,0,0,1-1V30A1,1,0,0,0,41,29ZM40,49H20V31H40Z"></path></g></svg>