<svg xmlns="http://www.w3.org/2000/svg" viewBox="0 0 64 64" x="0px" y="0px"><title>Head-Hunter-Find</title><g><path d="M39,24a6.4,6.4,0,0,0-.1-1.165,6.97,6.97,0,0,0-5.713-5.729h-.018a6.576,6.576,0,0,0-1.981-.058A7,7,0,0,0,25,24a6.361,6.361,0,0,0,.1,1.163A7,7,0,0,0,39,24Zm-5.122-4.614c.106.043.213.084.315.134.065.032.131.063.2.1a4.916,4.916,0,0,1,.494.308c.03.021.062.039.091.061a4.879,4.879,0,0,1,.535.46c.03.029.057.062.086.092a5.225,5.225,0,0,1,.381.445c.033.044.066.089.1.135a4.966,4.966,0,0,1,.32.515c.016.031.035.06.051.091s.021.053.033.078A5.939,5.939,0,0,1,33.7,20.156,7.726,7.726,0,0,0,33.878,19.386Zm-2.448-.355a4.238,4.238,0,0,1,.48-.026,5.727,5.727,0,0,1-.279,1.062,6.024,6.024,0,0,1-4.623,3.845A5,5,0,0,1,31.43,19.031ZM32,29a4.958,4.958,0,0,1-4.618-3.126,8.054,8.054,0,0,0,5.465-3.77,7.95,7.95,0,0,0,4.147,1.832c0,.022.006.042.006.064A5.006,5.006,0,0,1,32,29Z"></path><path d="M32,31c-8.832,0-15,5.346-15,13a1,1,0,0,0,1,1H46a1,1,0,0,0,1-1C47,36.346,40.832,31,32,31Zm1.834,2.1-.452.9H30.618l-.452-.9c.6-.057,1.2-.1,1.834-.1S33.238,33.039,33.834,33.1Zm-5.746.316.885,1.771L28.105,43H19.041C19.451,38.113,22.872,34.574,28.088,33.412ZM30.117,43l.779-7H33.1l.779,7ZM35.9,43l-.868-7.817.885-1.771c5.216,1.162,8.637,4.7,9.047,9.588Z"></path><path d="M62,31H59.975A28.027,28.027,0,0,0,33,4.025V2H31V4.025A28.027,28.027,0,0,0,4.025,31H2v2H4.025A28.027,28.027,0,0,0,31,59.975V62h2V59.975A28.027,28.027,0,0,0,59.975,33H62Zm-4.025,0h-3A23.027,23.027,0,0,0,33,9.025v-3A26.027,26.027,0,0,1,57.975,31Zm-5.026,2A20.992,20.992,0,0,1,33,52.949V51H31v1.949A20.992,20.992,0,0,1,11.051,33H13V31H11.051A20.992,20.992,0,0,1,31,11.051V13h2V11.051A20.992,20.992,0,0,1,52.949,31H51v2ZM31,6.025v3A23.027,23.027,0,0,0,9.025,31h-3A26.027,26.027,0,0,1,31,6.025ZM6.025,33h3A23.027,23.027,0,0,0,31,54.975v3A26.027,26.027,0,0,1,6.025,33ZM33,57.975v-3A23.027,23.027,0,0,0,54.975,33h3A26.027,26.027,0,0,1,33,57.975Z"></path></g></svg>