<svg xmlns="http://www.w3.org/2000/svg" viewBox="0 0 64 64" x="0px" y="0px"><g data-name="Coffee-Filter-Coffee Shop-Hot Drink-Scale"><path d="M60,45H4v6H60ZM10,49H8V47h2Zm4,0H12V47h2Zm4,0H16V47h2Zm30,0H46V47h2Zm4,0H50V47h2Zm4,0H54V47h2Z"></path><rect x="53" y="53" width="4" height="2"></rect><rect x="7" y="53" width="4" height="2"></rect><rect x="8" y="39" width="48" height="4"></rect><path d="M57,18a7.008,7.008,0,0,1-7,7H49v1c0,.34-.03.67-.05,1H50A9,9,0,0,0,50,9H49v2h1A7.008,7.008,0,0,1,57,18Z"></path><path d="M36,37A11.007,11.007,0,0,0,47,26V9H17V26A11.007,11.007,0,0,0,28,37Z"></path></g></svg>