<svg xmlns="http://www.w3.org/2000/svg" viewBox="0 0 64 64" x="0px" y="0px"><g data-name="Dripper-Coffee Filter-Coffee-Filter-Hot Drink"><path d="M51.19,11H3a1,1,0,0,0-.89,1.45L17.38,43H7a5,5,0,0,0-5,5,1,1,0,0,0,1,1H20v3a1,1,0,0,0,1,1H33a1,1,0,0,0,1-1V49H51a1,1,0,0,0,1-1,5,5,0,0,0-5-5H36.62l4.15-8.31,12.35-2.25A10.807,10.807,0,0,0,51.19,11ZM32,51H22V49H32Zm15-6a3.014,3.014,0,0,1,2.83,2H4.17A3.014,3.014,0,0,1,7,45ZM34.38,43H19.62l-15-30H49.38ZM51.19,18a3.816,3.816,0,0,1,.68,7.57l-7.19,1.3L49.12,18Zm6.76,9.46a8.83,8.83,0,0,1-5.19,3.02L41.89,32.46l1.68-3.35,8.66-1.58A5.812,5.812,0,0,0,51.19,16H50.12l1.49-2.98a8.8,8.8,0,0,1,6.34,14.44Z"></path></g></svg>