<svg xmlns="http://www.w3.org/2000/svg" viewBox="0 0 64 64" x="0px" y="0px"><g data-name="Lamp"><path d="M45,2H19a1,1,0,0,0-1,1V47a1,1,0,0,0,1,1H29v8H20a1,1,0,0,0-1,1v4a1,1,0,0,0,1,1H44a1,1,0,0,0,1-1V57a1,1,0,0,0-1-1H43V55a2,2,0,0,0-2-2H39a2,2,0,0,0-2,2v1H35V48H45a1,1,0,0,0,1-1V3A1,1,0,0,0,45,2ZM43,60H21V58H43Zm-4-5h2v1H39Zm-6,1H31V48h2ZM44,46H20V4H44Z"></path><rect x="48" y="24" width="6" height="2"></rect><rect x="47.172" y="13" width="5.657" height="2" transform="translate(4.745 39.456) rotate(-45)"></rect><rect x="49" y="33.172" width="2" height="5.657" transform="translate(-10.811 45.899) rotate(-45)"></rect><rect x="10" y="24" width="6" height="2"></rect><rect x="13" y="11.172" width="2" height="5.657" transform="translate(-5.799 14) rotate(-45)"></rect><rect x="11.172" y="35" width="5.657" height="2" transform="translate(-21.355 20.444) rotate(-45)"></rect></g></svg>