<svg xmlns="http://www.w3.org/2000/svg" viewBox="0 0 64 64" x="0px" y="0px"><g><path d="M47,52H34a1,1,0,0,1-.857-.485L29,44.61V60H47Zm-8,6H37V56h2Zm6,0H41V56h4Z"></path><polygon points="47.434 42 29.766 42 34.566 50 52.234 50 47.434 42"></polygon><rect x="17" y="42" width="10" height="18"></rect><polygon points="15 44.61 11.766 50 15 50 15 44.61"></polygon><path d="M36,20V30a1,1,0,0,1-1,1h-.826L38,35.463,41.826,31H41a1,1,0,0,1-1-1V20Z"></path><path d="M52,14a1,1,0,0,1-1-1,5,5,0,0,0-5-5,4.946,4.946,0,0,0-3.58,1.52,1.039,1.039,0,0,1-.86.29,1.026,1.026,0,0,1-.74-.52,9.991,9.991,0,0,0-18.73,3.46,1,1,0,0,1-1.68.6A4.995,4.995,0,0,0,12,17a1.088,1.088,0,0,1-.34.8,1.034,1.034,0,0,1-.8.27A5.605,5.605,0,0,0,10,18a6,6,0,0,0,0,12H20V27H18a1,1,0,0,1-.91-.58,1.017,1.017,0,0,1,.15-1.07l6-7a1.04,1.04,0,0,1,1.52,0l6,7a1.017,1.017,0,0,1,.15,1.07A1,1,0,0,1,30,27H28v3h3a1.023,1.023,0,0,1,.09-.42A1,1,0,0,1,32,29h2V19a1,1,0,0,1,1-1h6a1,1,0,0,1,1,1V29h2a1,1,0,0,1,.91.58A1.023,1.023,0,0,1,45,30h7a8,8,0,0,0,0-16Zm-7,0H43V12h2Zm2-2h2v2H47Zm3,16H48V26h2Zm2,0V26a4,4,0,0,0,4-4h2A6,6,0,0,1,52,28Z"></path><path d="M26,36V26a1,1,0,0,1,1-1h.826L24,20.537,20.174,25H21a1,1,0,0,1,1,1V36Z"></path><polygon points="6 34 4 34 4 36 2 36 2 38 4 38 4 40 6 40 6 38 8 38 8 36 6 36 6 34"></polygon><rect x="4" y="42" width="2" height="2"></rect><rect x="4" y="46" width="2" height="2"></rect><rect x="4" y="50" width="2" height="2"></rect><polygon points="60 52 58 52 58 54 56 54 56 56 58 56 58 58 60 58 60 56 62 56 62 54 60 54 60 52"></polygon><rect x="58" y="48" width="2" height="2"></rect><rect x="58" y="44" width="2" height="2"></rect><rect x="58" y="40" width="2" height="2"></rect><rect x="58" y="36" width="2" height="2"></rect></g></svg>