<svg xmlns="http://www.w3.org/2000/svg" viewBox="0 0 64 64" x="0px" y="0px"><g><path d="M37,15c-.2,0-.73.29-1.482,1.376a8.734,8.734,0,0,0-1.518,5V30h2V24h2v6h2V21.379a8.734,8.734,0,0,0-1.518-5C37.73,15.29,37.2,15,37,15Zm1.553,5.9L37,20.118l-1.553.777-.894-1.79,2-1a1,1,0,0,1,.894,0l2,1Z"></path><polygon points="37.613 32 36.387 32 36.721 33 37.279 33 37.613 32"></polygon><path d="M37,35a1,1,0,0,0-1,1,6.2,6.2,0,0,0,1,2.916A6.2,6.2,0,0,0,38,36,1,1,0,0,0,37,35Z"></path><path d="M32,31V26.089a1,1,0,0,0-.551.56L29.443,32h2.939l.087-.174A.982.982,0,0,1,32,31Z"></path><path d="M42,26.089V31a.982.982,0,0,1-.469.826l.087.174h2.939L42.55,26.649A.993.993,0,0,0,42,26.089Z"></path><path d="M17,29a1,1,0,0,0,0-2c-.036,0-.066.017-.1.02a4.852,4.852,0,0,1,0,1.96C16.934,28.983,16.964,29,17,29Z"></path><path d="M55,5a1,1,0,0,0-1-1H16a3,3,0,0,0-3,3V8.112A4.936,4.936,0,0,1,16.1,10.155,2.958,2.958,0,0,1,17,10a3.01,3.01,0,1,1-2.5,1.353A2.963,2.963,0,0,0,13,10.176V23.112A4.936,4.936,0,0,1,16.1,25.155,2.958,2.958,0,0,1,17,25a3.01,3.01,0,1,1-2.5,1.353A2.963,2.963,0,0,0,13,25.176V38.112A4.936,4.936,0,0,1,16.1,40.155,2.958,2.958,0,0,1,17,40a3.01,3.01,0,1,1-2.5,1.353A2.963,2.963,0,0,0,13,40.176v12.85A4.948,4.948,0,0,1,16,52H55ZM26,41H24V39h2Zm0-4H24V33h2Zm5,7H29V42h2Zm0-4H29V36h2Zm14,4H43V42h2Zm0-4H43V36h2Zm1.2-6.86a2,2,0,0,1-1.644.86H41a1,1,0,0,1-.9-.553l-.52-1.04L39.1,33.863A2.987,2.987,0,0,1,40,36c0,1.165-.935,5-3,5s-3-3.835-3-5a2.987,2.987,0,0,1,.9-2.137l-.485-1.456-.52,1.04A1,1,0,0,1,33,34H29.443a2,2,0,0,1-1.873-2.7l2.007-5.351A3.012,3.012,0,0,1,32,24.03V21.379a10.719,10.719,0,0,1,1.873-6.141q3.128-4.518,6.254,0A10.724,10.724,0,0,1,42,21.379V24.03a3.012,3.012,0,0,1,2.423,1.917L46.43,31.3A2,2,0,0,1,46.2,33.14ZM50,41H48V39h2Zm0-4H48V33h2Z"></path><path d="M17,14a1,1,0,0,0,0-2c-.036,0-.066.017-.1.02a4.852,4.852,0,0,1,0,1.96C16.934,13.983,16.964,14,17,14Z"></path><path d="M55,56V54H16a3,3,0,0,0,0,6H55V58H17V56Z"></path><path d="M17,44a1,1,0,0,0,0-2c-.036,0-.066.017-.1.02a4.852,4.852,0,0,1,0,1.96C16.934,43.983,16.964,44,17,44Z"></path><path d="M11,25.18V23.1a5,5,0,0,0,0,9.8V30.82a2.988,2.988,0,0,1,0-5.64Z"></path><path d="M9,13a3,3,0,0,0,2,2.82V17.9a5,5,0,0,1,0-9.8v2.08A3,3,0,0,0,9,13Z"></path><path d="M11,40.18V38.1a5,5,0,0,0,0,9.8V45.82a2.988,2.988,0,0,1,0-5.64Z"></path></g></svg>