<svg xmlns="http://www.w3.org/2000/svg" viewBox="0 0 64 64" x="0px" y="0px"><g data-name="Handshake-Deal-Smartphone-Agreement-Mobile Phone"><path d="M41.96,40.031a1,1,0,0,0-1.414,1.414l1.414,1.414a1,1,0,1,0,1.414-1.414Z"></path><path d="M39.132,42.859a1,1,0,1,0-1.414,1.415l1.414,1.414a1,1,0,1,0,1.414-1.415Z"></path><path d="M36.3,45.688h0A1,1,0,0,0,34.889,47.1L36.3,48.517a1,1,0,0,0,1.707-.707.989.989,0,0,0-.292-.707Z"></path><path d="M44.789,37.2a1,1,0,1,0-1.414,1.414l1.414,1.414a1.02,1.02,0,0,0,1.413,0,1,1,0,0,0,0-1.414Z"></path><path d="M25.7,29.425l1.414-1.414a3,3,0,0,0,4.243,0,1,1,0,0,1,1.414,0l4.242,4.242a1,1,0,1,0,1.414-1.414L30.586,23H27.171l-8.9,8.9,3.535,3.536,5.121-5.124A4.972,4.972,0,0,1,25.7,29.425Z"></path><rect x="14.393" y="24.536" width="12" height="2" transform="translate(-12.083 21.899) rotate(-45)"></rect><rect x="42.021" y="22.363" width="1.999" height="12" transform="translate(-7.457 38.719) rotate(-44.99)"></rect><path d="M36.3,41.445a2.98,2.98,0,0,1,1.966-.863A2.954,2.954,0,0,1,41.1,37.755a2.968,2.968,0,0,1,.864-1.967,3.052,3.052,0,0,1,2.873-.746l.311-.311L36.33,25.915h0l3.51,3.51A3,3,0,1,1,35.6,33.667l-3.607-3.606a4.982,4.982,0,0,1-2.793.808l-6.681,6.688a1,1,0,0,0,0,1.414,1,1,0,0,0,1.414,0l2.828-2.828,1.414,1.414-2.828,2.828a1,1,0,0,0,0,1.414,1.021,1.021,0,0,0,1.414,0l2.829-2.828L31,40.385l-2.829,2.828a1,1,0,0,0,1.4,1.425l.009-.011L32.414,41.8l1.414,1.414,0,0v0L31,46.042l-.014.011a1,1,0,0,0,1.428,1.4l.293-.293a2.926,2.926,0,0,1,2.731-3.72A2.984,2.984,0,0,1,36.3,41.445Z"></path><rect x="39" y="8" width="12" height="2"></rect><path d="M57,8H53v2a2.006,2.006,0,0,1-2,2H39a2.006,2.006,0,0,1-2-2V8H33a3.009,3.009,0,0,0-3,3V21h1a1.033,1.033,0,0,1,.71.29l2.92,2.92,1.53-.3,2.62-2.62a1,1,0,0,1,1.41,0l9.9,9.9a1.014,1.014,0,0,1,0,1.42l-2.81,2.81a.035.035,0,0,0-.01.02l-.71.71,1.06,1.05a2.988,2.988,0,0,1-1.97,5.11,2.963,2.963,0,0,1-2.83,2.83A2.945,2.945,0,0,1,40,47.96a2.993,2.993,0,0,1-5.11,1.97l-1.06-1.06a3.011,3.011,0,0,1-2.13.87,2.927,2.927,0,0,1-1.7-.53V57a3.009,3.009,0,0,0,3,3H57a3.009,3.009,0,0,0,3-3V11A3.009,3.009,0,0,0,57,8ZM48.71,21.71l-1.42-1.42L48.59,19H36V17H48.59l-1.3-1.29,1.42-1.42,3,3a1.008,1.008,0,0,1,0,1.42ZM46,46h2v2H46ZM56,56H46V54H56Zm0-4H46V50H56Zm0-4H50V46h6ZM33.82,6A3.01,3.01,0,0,0,31,4H27V6a2.006,2.006,0,0,1-2,2H13a2.006,2.006,0,0,1-2-2V4H7A3.009,3.009,0,0,0,4,7V53a3.009,3.009,0,0,0,3,3H28V46.78a2.946,2.946,0,0,1-2.1-2.7,2.979,2.979,0,0,1-1.97-.87,2.906,2.906,0,0,1-.86-1.96,2.988,2.988,0,0,1-1.97-.87,2.953,2.953,0,0,1-.58-3.4l-7.2-7.2a.99.99,0,0,1-.29-.71,1.007,1.007,0,0,1,.29-.71l9.9-9.9a1.008,1.008,0,0,1,1.42,0L27.17,21H28V11a5,5,0,0,1,5-5ZM8,12h2v2H8Zm7.29,34.29,1.42,1.42L15.41,49H26v2H15.41l1.3,1.29-1.42,1.42-3-3a1.008,1.008,0,0,1,0-1.42ZM18,18H8V16H18Zm0-4H12V12h6Z"></path><rect x="13" y="4" width="12" height="2"></rect></g></svg>