<svg xmlns="http://www.w3.org/2000/svg" viewBox="0 0 64 64" x="0px" y="0px"><g data-name="Building"><rect x="33" y="22" width="24" height="2"></rect><rect x="7" y="4" width="26" height="2"></rect><polygon points="55 59 55 26 33 26 33 30 46 30 46 32 33 32 33 36 46 36 46 38 33 38 33 42 46 42 46 44 33 44 33 48 46 48 46 50 33 50 33 54 46 54 46 56 33 56 33 59 31 59 31 8 9 8 9 12 22 12 22 14 9 14 9 18 22 18 22 20 9 20 9 24 22 24 22 26 9 26 9 30 22 30 22 32 9 32 9 36 22 36 22 38 9 38 9 42 22 42 22 44 9 44 9 48 22 48 22 50 9 50 9 54 22 54 22 56 9 56 9 59 2 59 2 61 62 61 62 59 55 59"></polygon></g></svg>