<svg xmlns="http://www.w3.org/2000/svg" viewBox="0 0 64 64" x="0px" y="0px"><g><path d="M21.29,12.662l.817.472a1,1,0,1,1-1,1.732l-.828-.478A12.922,12.922,0,0,0,19.038,19H31V12a1,1,0,0,1,2,0v7H44.962a12.922,12.922,0,0,0-1.241-4.612l-.828.478a1,1,0,1,1-1-1.732l.817-.472A13.088,13.088,0,0,0,39.338,9.29l-.472.818a1,1,0,1,1-1.732-1l.474-.822A12.9,12.9,0,0,0,33,7.048V8a1,1,0,0,1-2,0V7.048a12.9,12.9,0,0,0-4.608,1.238l.474.822a1,1,0,1,1-1.732,1l-.472-.818A13.088,13.088,0,0,0,21.29,12.662Z"></path><path d="M53,8H40.962A14.97,14.97,0,0,1,47,20a1,1,0,0,1-1,1H18a1,1,0,0,1-1-1A14.97,14.97,0,0,1,23.038,8H11a3,3,0,0,0-3,3V53a3,3,0,0,0,3,3H53a3,3,0,0,0,3-3V11A3,3,0,0,0,53,8ZM15,51H13V49h2Zm0-6H13V43h2Zm0-6H13V37h2Zm0-6H13V31h2Zm0-6H13V25h2Zm6,24H19V49h2Zm0-6H19V43h2Zm0-6H19V37h2Zm0-6H19V31h2Zm0-6H19V25h2Zm6,24H25V49h2Zm0-6H25V43h2Zm0-6H25V37h2Zm0-6H25V31h2Zm0-6H25V25h2Zm6,24H31V49h2Zm0-6H31V43h2Zm0-6H31V37h2Zm0-6H31V31h2Zm0-6H31V25h2Zm6,24H37V49h2Zm0-6H37V43h2Zm0-6H37V37h2Zm0-6H37V31h2Zm0-6H37V25h2Zm6,24H43V49h2Zm0-6H43V43h2Zm0-6H43V37h2Zm0-6H43V31h2Zm0-6H43V25h2Zm6,24H49V49h2Zm0-6H49V43h2Zm0-6H49V37h2Zm0-6H49V31h2Zm0-6H49V25h2Z"></path><path d="M60,11a7.008,7.008,0,0,0-7-7H11a7.008,7.008,0,0,0-7,7V53a7.008,7.008,0,0,0,7,7H53a7.008,7.008,0,0,0,7-7ZM58,53a5.006,5.006,0,0,1-5,5H11a5.006,5.006,0,0,1-5-5V11a5.006,5.006,0,0,1,5-5H26.659A14.763,14.763,0,0,1,37.341,6H53a5.006,5.006,0,0,1,5,5Z"></path></g></svg>