<svg xmlns="http://www.w3.org/2000/svg" viewBox="0 0 64 64" x="0px" y="0px"><g data-name="Gift-Smartphone-Present-Online-Gift Box"><path d="M34,52H30a3,3,0,0,0,0,6h4a3,3,0,0,0,0-6Zm0,4H30a1,1,0,0,1,0-2h4a1,1,0,0,1,0,2Z"></path><rect x="25" y="6" width="2" height="2"></rect><rect x="29" y="6" width="6" height="2"></rect><path d="M52.97,14.76,52,10.88V8a6,6,0,0,0-6-6H18a6,6,0,0,0-6,6v2.88l-.97,3.88A.986.986,0,0,0,11,15a4.939,4.939,0,0,0,1,2.97V56a6,6,0,0,0,6,6H46a6,6,0,0,0,6-6V17.97A4.939,4.939,0,0,0,53,15,.986.986,0,0,0,52.97,14.76ZM14,8a4,4,0,0,1,4-4H46a4,4,0,0,1,4,4v2H14Zm29,4v3a3,3,0,0,1-6,0V12Zm-8,0v3a3,3,0,0,1-6,0V12Zm-8,0v3a3,3,0,0,1-6,0V12ZM13,15.11,13.78,12H19v3a3,3,0,0,1-6,.11ZM50,56a4,4,0,0,1-4,4H18a4,4,0,0,1-4-4V50H50Zm0-8H14V19.58A4.941,4.941,0,0,0,16,20a4.994,4.994,0,0,0,4-2.03,4.956,4.956,0,0,0,8,0,4.956,4.956,0,0,0,8,0,4.956,4.956,0,0,0,8,0A4.994,4.994,0,0,0,48,20a4.941,4.941,0,0,0,2-.42ZM48,18a3.009,3.009,0,0,1-3-3V12h5.22L51,15.11A3,3,0,0,1,48,18Z"></path><path d="M43,26H38.82A3,3,0,0,0,39,25V23a1,1,0,0,0-1-1H34a2.974,2.974,0,0,0-2,.78A2.974,2.974,0,0,0,30,22H26a1,1,0,0,0-1,1v2a3,3,0,0,0,.18,1H21a1,1,0,0,0-1,1v6a1,1,0,0,0,1,1V45a1,1,0,0,0,1,1H42a1,1,0,0,0,1-1V34a1,1,0,0,0,1-1V27A1,1,0,0,0,43,26ZM29,44H23V34h6Zm0-12H22V28h7Zm-1-6a1,1,0,0,1-1-1V24h3a1,1,0,0,1,1,1v1Zm5,18H31V34h2Zm0-12H31V28h2Zm0-6V25a1,1,0,0,1,1-1h3v1a1,1,0,0,1-1,1Zm8,18H35V34h6Zm1-12H35V28h7Z"></path></g></svg>