<svg xmlns="http://www.w3.org/2000/svg" viewBox="0 0 64 64" x="0px" y="0px"><title>Lecture-Note-Book</title><g><path d="M15,12H53V38h2V3a1,1,0,0,0-1-1H14A5.006,5.006,0,0,0,9,7V57a5.006,5.006,0,0,0,5,5H38V60H15ZM14,4H53V6H15V8H53v2H14a3,3,0,0,1,0-6ZM11,57V10.974a4.954,4.954,0,0,0,2,.925V59.816A3,3,0,0,1,11,57Z"></path><path d="M20,16a1,1,0,0,0-1,1V27a1,1,0,0,0,1,1H48a1,1,0,0,0,1-1V17a1,1,0,0,0-1-1ZM47,26H21V18H47Z"></path><path d="M58.678,43.322a3,3,0,0,0-4.243,0L41,56.757a1,1,0,0,0-.273.511L40.02,60.8A1,1,0,0,0,41,62a.932.932,0,0,0,.2-.02l3.536-.707A1,1,0,0,0,45.243,61L58.678,47.565A3.005,3.005,0,0,0,58.678,43.322ZM44.042,59.372l-1.767.353.353-1.767,11.1-11.1,1.414,1.414ZM57.264,46.151l-.708.707-1.414-1.414.707-.707a1,1,0,1,1,1.415,1.414Z"></path></g></svg>