<svg xmlns="http://www.w3.org/2000/svg" viewBox="0 0 64 64" x="0px" y="0px"><title>Circus</title><g><path d="M61.6,34.2,33,12.5v-.826l9.372-3.748a1,1,0,0,0,0-1.858l-10-4A1,1,0,0,0,31,3v9.5L2.4,34.2A1,1,0,0,0,3,36h.1A5.009,5.009,0,0,0,8,40a4.943,4.943,0,0,0,1-.113V61a1,1,0,0,0,1,1H54a1,1,0,0,0,1-1V39.886A4.874,4.874,0,0,0,56,40a5.009,5.009,0,0,0,4.9-4H61a1,1,0,0,0,.6-1.8ZM33,4.477,39.308,7,33,9.523V4.477Zm-1,9.778L58.027,34H5.973ZM33,42a1,1,0,0,0-2,0c0,11.2-15.5,16.42-20,17.7V38.992a4.992,4.992,0,0,0,1.008-1.014A4.953,4.953,0,0,0,20,37.969a4.954,4.954,0,0,0,8,0,4.954,4.954,0,0,0,8,0,4.954,4.954,0,0,0,8,0,4.954,4.954,0,0,0,7.992.01A5.013,5.013,0,0,0,53,38.992V59.7C48.5,58.424,33,53.213,33,42ZM47.629,60H16.371a45.676,45.676,0,0,0,5.108-2.372c5.345-2.916,8.9-6.482,10.521-10.49,1.617,4.008,5.176,7.574,10.521,10.49A45.676,45.676,0,0,0,47.629,60ZM13.171,36h5.658a3,3,0,0,1-5.658,0Zm8.013,0h5.632a2.982,2.982,0,0,1-5.632,0Zm8,0h5.632a2.982,2.982,0,0,1-5.632,0Zm8,0h5.632a2.982,2.982,0,0,1-5.632,0Zm8,0h5.632a2.982,2.982,0,0,1-5.632,0Zm-40,0h5.621a2.975,2.975,0,0,1-5.621,0ZM56,38a2.964,2.964,0,0,1-2.8-2h5.621A3,3,0,0,1,56,38Z"></path></g></svg>