<svg xmlns="http://www.w3.org/2000/svg" viewBox="0 0 64 64" x="0px" y="0px"><g data-name="Robot"><path d="M43,50H21a5,5,0,0,0,0,10H43a5,5,0,0,0,0-10ZM22,59a4,4,0,1,1,4-4A4,4,0,0,1,22,59Zm10,0a4,4,0,1,1,4-4A4,4,0,0,1,32,59Zm10,0a4,4,0,1,1,4-4A4,4,0,0,1,42,59Z"></path><path d="M9,32.858V43a1,1,0,0,0,2,0V32.858a3.592,3.592,0,0,1-2,0Z"></path><path d="M17.532,30,19.2,28h-5.34a3.592,3.592,0,0,1,0,2Z"></path><circle cx="54" cy="29" r="2"></circle><circle cx="42" cy="55" r="2"></circle><path d="M53,32.858V43a1,1,0,0,0,2,0V32.858a3.592,3.592,0,0,1-2,0Z"></path><circle cx="22" cy="55" r="2"></circle><path d="M44.8,28l1.666,2h3.674a3.592,3.592,0,0,1,0-2Z"></path><circle cx="32" cy="55" r="2"></circle><circle cx="10" cy="29" r="2"></circle><circle cx="27" cy="17" r="1"></circle><circle cx="37" cy="17" r="1"></circle><path d="M19,31.362V44h3V35a5.006,5.006,0,0,1,5-5H37a5.006,5.006,0,0,1,5,5v9h3V31.362L40.532,26H23.468Z"></path><path d="M41,12H23a1,1,0,0,0-1,1V23a1,1,0,0,0,1,1h4V23a3,3,0,0,1,3-3h4a3,3,0,0,1,3,3v1h4a1,1,0,0,0,1-1V13A1,1,0,0,0,41,12ZM27,20a3,3,0,1,1,3-3A3,3,0,0,1,27,20Zm10,0a3,3,0,1,1,3-3A3,3,0,0,1,37,20Z"></path><path d="M34,22H30a1,1,0,0,0-1,1v1h6V23A1,1,0,0,0,34,22Z"></path><path d="M27,32a3,3,0,0,0-3,3v9H40V35a3,3,0,0,0-3-3Z"></path><polygon points="42.5 48 44 46 20 46 21.5 48 42.5 48"></polygon><path d="M58,48H56a2,2,0,0,0-4,0H50a4,4,0,0,1,8,0Z"></path><path d="M14,48H12a2,2,0,0,0-4,0H6a4,4,0,0,1,8,0Z"></path><path d="M34,5a2,2,0,1,0-3,1.721V10h2V6.721A2,2,0,0,0,34,5Z"></path></g></svg>