<svg xmlns="http://www.w3.org/2000/svg" viewBox="0 0 64 64" x="0px" y="0px"><g><path d="M45,19a1,1,0,0,0-1-1H36V15.439a5.951,5.951,0,0,0,3.777-1.732,1,1,0,0,0,0-1.414l-7.07-7.07a1,1,0,0,0-1.414,0,6.02,6.02,0,0,0-.718,7.566L28.341,18H20a1,1,0,0,0-1,1v4a.826.826,0,0,0,.02.1c0,.029-.008.057,0,.085L22,39.093V43a1,1,0,0,0,1,1h1V61a1,1,0,0,0,1,1H39a1,1,0,0,0,1-1V44h1a1,1,0,0,0,1-1V39.093l2.983-15.909c.005-.028-.006-.056,0-.085A.826.826,0,0,0,45,23ZM32.091,7.436l5.475,5.475a4.023,4.023,0,0,1-4.859-.618c-.077-.077-.154-.162-.232-.257A4.028,4.028,0,0,1,32.091,7.436Zm-.016,6.93.011.006a5.977,5.977,0,0,0,.892.517c.091.043.189.068.282.106a5.778,5.778,0,0,0,.7.251c.015,0,.029.012.044.016V18H30.517ZM21,20H43v2H21ZM38,60H26V44H38Zm2-18H24V40H40Zm.17-4H23.83L21.205,24H27v5h2V24h6v5h2V24h5.8Z"></path><rect x="38.071" y="4.929" width="2" height="2" transform="translate(7.251 29.364) rotate(-45)"></rect><rect x="40.428" y="8.818" width="2.236" height="2" transform="translate(-0.973 13.642) rotate(-18.435)"></rect><rect x="34.064" y="2.454" width="2.236" height="2" transform="translate(20.775 35.736) rotate(-71.556)"></rect></g></svg>