<svg xmlns="http://www.w3.org/2000/svg" viewBox="0 0 64 64" x="0px" y="0px"><g data-name="Smartphone-Money-Payment-Financial-Online Banking"><path d="M60,12H24V48H60ZM42,40A10,10,0,1,1,52,30,10.011,10.011,0,0,1,42,40Z"></path><path d="M18,56H17v2H15V56H13v2H11V56H9v2H7V56H6a1,1,0,0,0-1,1v2a1,1,0,0,0,1,1H18a1,1,0,0,0,1-1V57A1,1,0,0,0,18,56Z"></path><path d="M35,59V57a1,1,0,0,0-1-1H33v2H31V56H29v2H27V56H25v2H23V56H22a1,1,0,0,0-1,1v2a1,1,0,0,0,1,1H34A1,1,0,0,0,35,59Z"></path><path d="M44,54H40a1,1,0,0,0,0,2h4a1,1,0,0,0,0-2Z"></path><path d="M42,22a8,8,0,1,0,8,8A8.009,8.009,0,0,0,42,22Zm-1,7h2a3,3,0,0,1,0,6v1H41V35a3,3,0,0,1-3-3h2a1,1,0,0,0,1,1h2a1,1,0,0,0,0-2H41a3,3,0,0,1,0-6V24h2v1a3,3,0,0,1,3,3H44a1,1,0,0,0-1-1H41a1,1,0,0,0,0,2Z"></path><path d="M60,50H36.82A3,3,0,0,1,37,51v2a2.974,2.974,0,0,1-.78,2A2.974,2.974,0,0,1,37,57v2a3,3,0,0,1-.18,1H56a4,4,0,0,0,4-4ZM44,58H40a3,3,0,0,1,0-6h4a3,3,0,0,1,0,6Z"></path><path d="M18,54a1,1,0,0,0,1-1V51a1,1,0,0,0-1-1H17v2H15V50H13v2H11V50H9v2H7V50H6a1,1,0,0,0-1,1v2a1,1,0,0,0,1,1Z"></path><path d="M9,44v2H7V44H6a1,1,0,0,0-1,1v2a1,1,0,0,0,1,1H18a1,1,0,0,0,1-1V45a1,1,0,0,0-1-1H17v2H15V44H13v2H11V44Z"></path><path d="M60,8a4,4,0,0,0-4-4H28a4,4,0,0,0-4,4v2H60ZM37,8H35V6h2Zm8,0H39V6h6Z"></path><path d="M35,51a1,1,0,0,0-1-1H33v2H31V50H29v2H27V50H25v2H23V50H22a1,1,0,0,0-1,1v2a1,1,0,0,0,1,1H34a1,1,0,0,0,1-1Z"></path><path d="M19.21,32.46a5.99,5.99,0,0,0-6.53,3.78L12,38l-.68-1.76a5.99,5.99,0,0,0-6.53-3.78l-1.87.3.68,1.76a5.983,5.983,0,0,0,6.53,3.77l.87-.135V42h2V38.155l.87.135a5.983,5.983,0,0,0,6.53-3.77l.68-1.76Z"></path></g></svg>