<svg xmlns="http://www.w3.org/2000/svg" viewBox="0 0 64 64" x="0px" y="0px"><g data-name="Smart Rice Cooker-Internet of Things-App-Internet-Smartphone"><path d="M56,22H20v4h1a5,5,0,0,1,5,5V50H53a3.009,3.009,0,0,0,3-3ZM47,43a3,3,0,0,1-3,3H32a3,3,0,0,1-3-3V31a3,3,0,0,1,3-3H44a3,3,0,0,1,3,3Z"></path><path d="M14,38a5,5,0,1,0,5,5A5.006,5.006,0,0,0,14,38Zm1.293,7.707-2-2A1,1,0,0,1,13,43V40h2v2.586l1.707,1.707Z"></path><polygon points="26 54 26.38 54 27.38 52 26 52 26 54"></polygon><path d="M24,54H4v3a3.009,3.009,0,0,0,3,3H21a3.009,3.009,0,0,0,3-3Zm-9,4H13V56h2Z"></path><polygon points="60 28.22 60 26 58 26 58 28.72 60 28.22"></polygon><path d="M44,30H32a1,1,0,0,0-1,1V43a1,1,0,0,0,1,1H44a1,1,0,0,0,1-1V31A1,1,0,0,0,44,30ZM43,41a1,1,0,0,1-1,1H34a1,1,0,0,1-1-1V37a1,1,0,0,1,1-1h8a1,1,0,0,1,1,1Zm0-7H33V32H43Z"></path><rect x="35" y="38" width="6" height="2"></rect><polygon points="51 54 51 52 47.62 52 48.62 54 51 54"></polygon><path d="M24,31a3.009,3.009,0,0,0-3-3H7a3.009,3.009,0,0,0-3,3v1H24Z"></path><path d="M58,19a1,1,0,0,0-1-1H19a1,1,0,0,0-1,1v1H58Z"></path><path d="M22.39,16H53.61l-.19-.58A4.987,4.987,0,0,0,48.68,12H27.32a4.987,4.987,0,0,0-4.74,3.42Z"></path><path d="M33.1,10a5,5,0,0,1,9.8,0h2.02a6.991,6.991,0,0,0-13.84,0Z"></path><path d="M24,34H4V52H24ZM14,50a7,7,0,1,1,7-7A7.008,7.008,0,0,1,14,50Z"></path><path d="M35.18,10h5.64a2.988,2.988,0,0,0-5.64,0Z"></path></g></svg>