<svg xmlns="http://www.w3.org/2000/svg" viewBox="0 0 64 64" x="0px" y="0px"><g><path d="M29,28.693v10.6a4.974,4.974,0,0,0,2.764,4.472L36,45.882l4.236-2.118A4.974,4.974,0,0,0,43,39.292v-10.6l-7-2.625Zm12.778,3.943-7.071,7.071a1,1,0,0,1-1.414,0l-2.829-2.828,1.414-1.414L34,37.586l6.364-6.364Z"></path><path d="M10,13a1,1,0,0,1,1-1H52V8H33a1,1,0,0,1-.9-.553L30.382,4H4V57a3,3,0,1,0,6,0Z"></path><path d="M60,14H12V57a4.986,4.986,0,0,1-1,3H57a3,3,0,0,0,3-3ZM45,39.292a6.964,6.964,0,0,1-3.87,6.261L36.447,47.9a1,1,0,0,1-.894,0L30.87,45.553A6.964,6.964,0,0,1,27,39.292V28a1,1,0,0,1,.649-.937l8-3a1.009,1.009,0,0,1,.7,0l8,3A1,1,0,0,1,45,28Z"></path></g></svg>