<svg xmlns="http://www.w3.org/2000/svg" viewBox="0 0 64 64" x="0px" y="0px"><g data-name="First Aid Kit"><path d="M61.977,18.884a.951.951,0,0,0-.034-.167.981.981,0,0,0-.112-.241.947.947,0,0,0-.043-.091c-.011-.015-.03-.02-.042-.034a.972.972,0,0,0-.231-.187.928.928,0,0,0-.1-.068A.98.98,0,0,0,61,18H42V9a1,1,0,0,0-1-1H23a1,1,0,0,0-1,1v9H3a.98.98,0,0,0-.415.1.928.928,0,0,0-.1.068.972.972,0,0,0-.231.187c-.012.014-.031.019-.042.034a.947.947,0,0,0-.043.091.981.981,0,0,0-.112.241.951.951,0,0,0-.034.167A1.133,1.133,0,0,0,2,19V61a1,1,0,0,0,1,1H61a1,1,0,0,0,1-1V19A1.133,1.133,0,0,0,61.977,18.884ZM40,10v2H24V10ZM24,14H40v4H24Zm35.719,6-3.31,13.25a.992.992,0,0,1-.969.75H36V32a1,1,0,0,0-1-1H29a1,1,0,0,0-1,1v2H8.56a.993.993,0,0,1-.97-.752L4.281,20ZM30,33h4v6H30ZM4,60V27.128l1.649,6.6A2.988,2.988,0,0,0,8.56,36H28v4a1,1,0,0,0,1,1h6a1,1,0,0,0,1-1V36H55.44a2.987,2.987,0,0,0,2.91-2.268l1.65-6.6V60Z"></path><path d="M29,44H24V39a1,1,0,0,0-1-1H17a1,1,0,0,0-1,1v5H11a1,1,0,0,0-1,1v6a1,1,0,0,0,1,1h5v5a1,1,0,0,0,1,1h6a1,1,0,0,0,1-1V52h5a1,1,0,0,0,1-1V45A1,1,0,0,0,29,44Zm-1,6H23a1,1,0,0,0-1,1v5H18V51a1,1,0,0,0-1-1H12V46h5a1,1,0,0,0,1-1V40h4v5a1,1,0,0,0,1,1h5Z"></path><path d="M51.685,39a5.16,5.16,0,0,0-3.778,1.652L47,41.613l-.907-.961a5.146,5.146,0,0,0-7.556,0,5.784,5.784,0,0,0,0,7.838l7.736,8.2a1,1,0,0,0,1.454,0l7.736-8.2a5.784,5.784,0,0,0,0-7.838A5.158,5.158,0,0,0,51.685,39Zm2.324,8.117L47,54.543l-7.009-7.426a3.758,3.758,0,0,1,0-5.092,3.147,3.147,0,0,1,4.648,0l1.634,1.731a1.029,1.029,0,0,0,1.454,0l1.634-1.731a3.219,3.219,0,0,1,4.648,0A3.758,3.758,0,0,1,54.009,47.117Z"></path></g></svg>