<svg xmlns="http://www.w3.org/2000/svg" viewBox="0 0 64 64" x="0px" y="0px"><title>Shopping</title><g><path d="M32,39a1,1,0,0,1,1,1h2a3,3,0,0,0-2-2.816V36H31v1.184A2.993,2.993,0,0,0,32,43a1,1,0,1,1-1,1H29a3,3,0,0,0,2,2.816V48h2V46.816A2.993,2.993,0,0,0,32,41a1,1,0,0,1,0-2Z"></path><path d="M32,32A10,10,0,1,0,42,42,10.011,10.011,0,0,0,32,32Zm0,18a8,8,0,1,1,8-8A8.009,8.009,0,0,1,32,50Z"></path><rect x="36" y="42" width="2" height="2"></rect><rect x="26" y="42" width="2" height="2"></rect><path d="M50,21H45V13A11.013,11.013,0,0,0,34,2H30A11.013,11.013,0,0,0,19,13v8H14a1,1,0,0,0-1,1V56a5.006,5.006,0,0,0,5,5H46a5.006,5.006,0,0,0,5-5V22A1,1,0,0,0,50,21ZM21,13a9.01,9.01,0,0,1,9-9h4a9.01,9.01,0,0,1,9,9V28H42V13a8.009,8.009,0,0,0-8-8H30a8.009,8.009,0,0,0-8,8V28H21Zm19,8H24V13a6.006,6.006,0,0,1,6-6h4a6.006,6.006,0,0,1,6,6Zm9,35a3,3,0,0,1-3,3H18a3,3,0,0,1-3-3V23h4v6a1,1,0,0,0,1,1h3a1,1,0,0,0,1-1V23H40v6a1,1,0,0,0,1,1h3a1,1,0,0,0,1-1V23h4Z"></path></g></svg>