<svg xmlns="http://www.w3.org/2000/svg" viewBox="0 0 64 64" x="0px" y="0px"><g data-name="Metropolitan-Internet of Things-Network-Internet-Communicate"><rect x="21" y="20" width="22" height="2"></rect><rect x="43" y="30" width="14" height="2"></rect><rect x="7" y="30" width="14" height="2"></rect><path d="M55,60V34H43V60H41V24H23V60H21V34H9V60H2v2H62V60ZM45,38h8v2H45Zm0,4h8v2H45Zm0,4h8v2H45Zm0,4h8v2H45Zm0,4h8v2H45ZM11,38h8v2H11Zm0,4h8v2H11Zm0,4h8v2H11Zm0,4h8v2H11Zm0,4h8v2H11ZM37,26h2v2H37Zm0,4h2v2H37Zm0,4h2v2H37Zm0,4h2v2H37Zm0,4h2v2H37Zm0,4h2v2H37Zm0,4h2v2H37ZM33,26h2v2H33Zm0,4h2v2H33Zm0,4h2v2H33Zm0,4h2v2H33Zm0,4h2v2H33Zm0,4h2v2H33Zm0,4h2v2H33ZM29,26h2v2H29Zm0,4h2v2H29Zm0,4h2v2H29Zm0,4h2v2H29Zm0,4h2v2H29Zm0,4h2v2H29Zm0,4h2v2H29ZM25,26h2v2H25Zm0,4h2v2H25Zm0,4h2v2H25Zm0,4h2v2H25Zm0,4h2v2H25Zm0,4h2v2H25Zm0,4h2v2H25Zm9,10V56H30v4H28V56H27V54H37v2H36v4Z"></path><rect x="31" y="14" width="2" height="4"></rect><rect x="50" y="24" width="2" height="2"></rect><rect x="50" y="20" width="2" height="2"></rect><rect x="12" y="24" width="2" height="2"></rect><rect x="12" y="20" width="2" height="2"></rect><path d="M35.535,7.465a5,5,0,0,0-7.071,0l1.414,1.414a3.073,3.073,0,0,1,4.243,0Z"></path><path d="M36.95,6.05l1.414-1.414a9.01,9.01,0,0,0-12.728,0L27.05,6.05A7.009,7.009,0,0,1,36.95,6.05Z"></path><path d="M30.586,10.586,32,12l1.414-1.414A2,2,0,0,0,30.586,10.586Z"></path><path d="M53.121,12.879l1.414-1.414a5,5,0,0,0-7.07,0l1.414,1.414A3.072,3.072,0,0,1,53.121,12.879Z"></path><path d="M49.586,14.586,51,16l1.414-1.414A2,2,0,0,0,49.586,14.586Z"></path><path d="M15.122,12.879l1.414-1.414a5.008,5.008,0,0,0-7.072,0l1.414,1.414A3,3,0,0,1,15.122,12.879Z"></path><path d="M11.586,14.586,13,16l1.414-1.414A2,2,0,0,0,11.586,14.586Z"></path></g></svg>