<svg xmlns="http://www.w3.org/2000/svg" viewBox="0 0 64 64" x="0px" y="0px"><title>Cactus_21</title><g data-name="Cactus"><path d="M56,46H45.091a17.314,17.314,0,0,0,2.847-5.582l2.459.919.7-1.873-2.657-.993A26.575,26.575,0,0,0,49,33c0-1.014-.053-2.014-.144-3H52V28H48.608a29.649,29.649,0,0,0-2.667-8.527l2.594-2.594-1.414-1.414-2.178,2.178a18.065,18.065,0,0,0-8.589-7.805A2.975,2.975,0,0,0,37,8V6a1,1,0,0,0-1-1H34.749a2.972,2.972,0,0,0-.629-.945l-1.41-1.42a1.033,1.033,0,0,0-1.42,0L29.882,4.054A2.993,2.993,0,0,0,29.249,5H28a1,1,0,0,0-1,1V8a2.975,2.975,0,0,0,.646,1.838,18.065,18.065,0,0,0-8.589,7.805l-2.178-2.178-1.414,1.414,2.594,2.594A29.649,29.649,0,0,0,15.392,28H12v2h3.144c-.091.986-.144,1.986-.144,3a26.575,26.575,0,0,0,.56,5.471l-2.657.993.7,1.873,2.459-.919A17.314,17.314,0,0,0,18.909,46H8a1,1,0,0,0-1,1v4a1,1,0,0,0,1,1h.323l3.748,9.371A1,1,0,0,0,13,62H51a1,1,0,0,0,.929-.629L55.677,52H56a1,1,0,0,0,1-1V47A1,1,0,0,0,56,46ZM47,33c0,5.544-1.569,10.028-4.545,13H33V40.414l2.535-2.535-1.414-1.414L33,37.586V31.414l2.535-2.535-1.414-1.414L33,28.586V22.414l2.535-2.535-1.414-1.414L33,19.586V11.057C40.686,11.842,47,21.568,47,33ZM35,8a1,1,0,0,1-1,1h-.586l.7-.7a2.971,2.971,0,0,0,.439-.567c.041-.067.067-.139.1-.208a3.033,3.033,0,0,0,.185-.436c.009-.029.028-.056.037-.086H35ZM31.3,5.465l.7-.706.7.707a.93.93,0,0,1,.28.6c0,.012,0,.025,0,.037a.944.944,0,0,1-.283.779l-.7.7-.7-.7a.963.963,0,0,1-.279-.816A.928.928,0,0,1,31.3,5.465ZM29,7h.119c.008.03.027.055.036.085a2.908,2.908,0,0,0,.184.431c.036.071.063.145.1.213a3.024,3.024,0,0,0,.44.568l.7.7H30a1,1,0,0,1-1-1ZM17,33c0-11.432,6.314-21.158,14-21.943v8.529l-1.121-1.121-1.414,1.414L31,22.414v6.172l-1.121-1.121-1.414,1.414L31,31.414v6.172l-1.121-1.121-1.414,1.414L31,40.414V46H21.545C18.569,43.028,17,38.544,17,33ZM9,48H55v2H9ZM50.323,60H13.677l-3.2-8H53.523Z"></path><rect x="48" y="57" width="2" height="2"></rect><rect x="48" y="54" width="2" height="2"></rect><rect x="45" y="57" width="2" height="2"></rect></g></svg>