<svg xmlns="http://www.w3.org/2000/svg" viewBox="0 0 64 64" x="0px" y="0px"><g data-name="Traffic Light"><path d="M32,25a7,7,0,1,0,7,7A7.008,7.008,0,0,0,32,25Zm0,12a5,5,0,1,1,5-5A5.006,5.006,0,0,1,32,37Z"></path><path d="M32,7a7,7,0,1,0,7,7A7.008,7.008,0,0,0,32,7Zm0,12a5,5,0,1,1,5-5A5.006,5.006,0,0,1,32,19Z"></path><path d="M32,43a7,7,0,1,0,7,7A7.008,7.008,0,0,0,32,43Zm0,12a5,5,0,1,1,5-5A5.006,5.006,0,0,1,32,55Z"></path><path d="M47.625,22a1,1,0,0,0,.934-.641L52.934,9.984A1,1,0,0,0,53,9.625V7a1,1,0,0,0-1-1H45V5a3,3,0,0,0-3-3H22a3,3,0,0,0-3,3V6H12a1,1,0,0,0-1,1V9.625a1,1,0,0,0,.066.359l4.375,11.375a1,1,0,0,0,.934.641H19v2H12a1,1,0,0,0-1,1v2.625a1,1,0,0,0,.066.359l4.375,11.375a1,1,0,0,0,.934.641H19v2H12a1,1,0,0,0-1,1v2.625a1,1,0,0,0,.066.359l4.375,11.375a1,1,0,0,0,.934.641H19v1a3,3,0,0,0,3,3H42a3,3,0,0,0,3-3V58h2.625a1,1,0,0,0,.934-.641l4.375-11.375A1,1,0,0,0,53,45.625V43a1,1,0,0,0-1-1H45V40h2.625a1,1,0,0,0,.934-.641l4.375-11.375A1,1,0,0,0,53,27.625V25a1,1,0,0,0-1-1H45V22ZM51,8V9.439L46.938,20H45V8ZM17.062,20,13,9.439V8h6V20Zm0,18L13,27.439V26h6V38Zm0,18L13,45.439V44h6V56ZM43,59a1,1,0,0,1-1,1H22a1,1,0,0,1-1-1V5a1,1,0,0,1,1-1H42a1,1,0,0,1,1,1Zm8-15v1.439L46.938,56H45V44Zm0-18v1.439L46.938,38H45V26Z"></path></g></svg>