<svg xmlns="http://www.w3.org/2000/svg" viewBox="0 0 64 64" x="0px" y="0px"><g data-name="Bottle"><path d="M43,55.819a17.122,17.122,0,0,0-1.8-7.535A10.132,10.132,0,0,1,40,44a10.818,10.818,0,0,1,1.643-5.515A9.657,9.657,0,0,0,42.692,36H21.308a9.657,9.657,0,0,0,1.049,2.485A10.818,10.818,0,0,1,24,44a10.136,10.136,0,0,1-1.194,4.283A17.117,17.117,0,0,0,21,55.819V57a3,3,0,0,0,3,3H40a3,3,0,0,0,3-3Z"></path><path d="M42.945,12A9.013,9.013,0,0,0,34,4H30a9.013,9.013,0,0,0-8.945,8Z"></path><path d="M21,33.776c0,.074.014.149.016.224H42.984c0-.075.016-.15.016-.224V18H21Z"></path><rect x="22" y="14" width="20" height="2"></rect></g></svg>