<svg xmlns="http://www.w3.org/2000/svg" viewBox="0 0 64 64" x="0px" y="0px"><g><path d="M30,22h4a2,2,0,0,0,2-2V16a2,2,0,0,0-2-2H30a2,2,0,0,0-2,2v4A2,2,0,0,0,30,22Zm0-6h4v4H30Z"></path><path d="M34,30H30a2,2,0,0,0-2,2v4a2,2,0,0,0,2,2h4a2,2,0,0,0,2-2V32A2,2,0,0,0,34,30Zm-4,6V32h4v4Z"></path><path d="M42,32v4a2,2,0,0,0,2,2h4a2,2,0,0,0,2-2V32a2,2,0,0,0-2-2H44A2,2,0,0,0,42,32Zm6,4H44V32h4Z"></path><path d="M16,38h4a2,2,0,0,0,2-2V32a2,2,0,0,0-2-2H16a2,2,0,0,0-2,2v4A2,2,0,0,0,16,38Zm0-6h4v4H16Z"></path><path d="M19,27H31v1h2V27H45v1h2V26a1,1,0,0,0-1-1H33V24H31v1H18a1,1,0,0,0-1,1v2h2Z"></path><path d="M57,2H7A5.006,5.006,0,0,0,2,7V45a5.006,5.006,0,0,0,5,5H23.867l-.75,6H21a3,3,0,0,0,0,6H43a3,3,0,0,0,0-6H40.883l-.75-6H57a5.006,5.006,0,0,0,5-5V7A5.006,5.006,0,0,0,57,2ZM7,4H57a3,3,0,0,1,3,3v3H4V7A3,3,0,0,1,7,4Zm53,8V40H4V12ZM44,59a1,1,0,0,1-1,1H21a1,1,0,0,1,0-2H43A1,1,0,0,1,44,59Zm-5.133-3H25.133l.75-6H38.117ZM57,48H7a3,3,0,0,1-3-3V42H60v3A3,3,0,0,1,57,48Z"></path><rect x="54" y="44" width="2" height="2"></rect><rect x="8" y="6" width="2" height="2"></rect><rect x="12" y="6" width="2" height="2"></rect><rect x="16" y="6" width="2" height="2"></rect></g></svg>