<svg xmlns="http://www.w3.org/2000/svg" viewBox="0 0 64 64" x="0px" y="0px"><g data-name="Speaker-Internet of Things-Smartphone-Control-Music"><path d="M14.536,19.465a5.008,5.008,0,0,0-7.072,0l1.414,1.414a3,3,0,0,1,4.244,0Z"></path><path d="M15.95,18.05l1.414-1.414a9.009,9.009,0,0,0-12.728,0L6.05,18.05A7.009,7.009,0,0,1,15.95,18.05Z"></path><path d="M9.586,22.586,11,24l1.414-1.414A2,2,0,0,0,9.586,22.586Z"></path><rect x="26" y="34" width="30" height="2"></rect><rect x="26" y="38" width="30" height="2"></rect><path d="M24,31a3.009,3.009,0,0,0-3-3H7a3.009,3.009,0,0,0-3,3v1H24Z"></path><path d="M60,6V5a1,1,0,0,0-1-1H23a1,1,0,0,0-1,1V6h4V8H22v2h4v2H22v2h4v2H22v2H60V16H56V14h4V12H56V10h4V8H56V6Zm-6,9a1,1,0,0,1-1,1H29a1,1,0,0,1-1-1V7a1,1,0,0,1,1-1H53a1,1,0,0,1,1,1Z"></path><rect x="26" y="30" width="30" height="2"></rect><polygon points="26 50 57.22 50 57.72 48 26 48 26 50"></polygon><rect x="26" y="26" width="30" height="2"></rect><path d="M24,34H4V52H24ZM11,37.868A2,2,0,0,1,14.109,36.2l3.2,2.132a2,2,0,0,1,0,3.328l-3.2,2.132A2,2,0,0,1,11,42.132ZM20,49H13v1H11V49H8V47h3V46h2v1h7Z"></path><path d="M30,14H52V8H30Zm14-4h2v2H44Zm-4,0h2v2H40Zm-4,0h2v2H36Z"></path><path d="M60,45V20H22v6.1a4.84,4.84,0,0,1,2,.93V25a1,1,0,0,1,1-1H57a1,1,0,0,1,1,1V41a1,1,0,0,1-1,1H26v4H59A1,1,0,0,0,60,45Z"></path><path d="M24,54H4v3a3.009,3.009,0,0,0,3,3H21a3.009,3.009,0,0,0,3-3Zm-9,4H13V56h2Z"></path><polygon points="16.197 40 13 37.868 13 42.138 16.197 40"></polygon></g></svg>