<svg xmlns="http://www.w3.org/2000/svg" viewBox="0 0 64 64" x="0px" y="0px"><g><rect x="10" y="17" width="16" height="4"></rect><path d="M5,40H31a1,1,0,0,0,1-1V5a1,1,0,0,0-1-1H14v6a1,1,0,0,1-1.832.555L11,8.8,9.832,10.555A1,1,0,0,1,8,10V4H5A1,1,0,0,0,4,5V39A1,1,0,0,0,5,40Zm23-5H14V33H28Zm0-4H24V29h4Zm0-4H16V25H28ZM18,7h4V9H18Zm0,3h8v2H18ZM8,16a1,1,0,0,1,1-1H27a1,1,0,0,1,1,1v6a1,1,0,0,1-1,1H9a1,1,0,0,1-1-1Zm0,9h6v2H8Zm0,4H22v2H8Zm0,4h4v2H8Z"></path><path d="M10.168,6.445a1,1,0,0,1,1.664,0L12,6.7V4H10V6.7Z"></path><path d="M27,56A11.013,11.013,0,0,1,16,45V42h2v3a9,9,0,0,0,18,0V13a5,5,0,0,1,10,0V34H44V13a3,3,0,0,0-6,0V45A11.013,11.013,0,0,1,27,56Z"></path><path d="M48,36H42a1,1,0,0,0,0,2h6a1,1,0,0,0,0-2Z"></path><path d="M57,58a1,1,0,0,0,1-1V54H56V52h2V50H56V48h2V46H49.529l3.936,9a4.984,4.984,0,0,1,.318,3Z"></path><path d="M48.884,60a3,3,0,0,0,2.749-4.2l-2.094-4.785c-.073-.025-.153-.048-.226-.074a5.678,5.678,0,0,0-3.974,0,6.911,6.911,0,0,1-2.679.48,6.8,6.8,0,0,1-2.234-.328l-2.059,4.7A3,3,0,0,0,41.116,60ZM46,53h2v2H46Zm-4,3h2v2H42Z"></path><path d="M43,40v5a.991.991,0,0,1-.084.4l-1.681,3.842a4.947,4.947,0,0,0,1.425.177,5.02,5.02,0,0,0,2-.361,6.874,6.874,0,0,1,2.668-.479,8.074,8.074,0,0,1,1.181.081L47.084,45.4A.991.991,0,0,1,47,45V40Z"></path><rect x="49" y="42" width="11" height="2"></rect><polygon points="56.604 40 57.643 40 59.695 32.356 58.726 32.096 56.604 40"></polygon></g></svg>