<svg xmlns="http://www.w3.org/2000/svg" viewBox="0 0 64 64" x="0px" y="0px"><g><path d="M32,2A30,30,0,1,0,62,32,30.034,30.034,0,0,0,32,2ZM51,52.543V47a1,1,0,0,0-.293-.707l-2-2-1.414,1.414L49,47.414v6.814a27.849,27.849,0,0,1-15,5.693V55.414l2.707-2.707A1,1,0,0,0,37,52V48.414l1.707-1.707A1,1,0,0,0,39,46V45H37v.586l-1.707,1.707A1,1,0,0,0,35,48v3.586l-2.707,2.707A1,1,0,0,0,32,55v5c-.673,0-1.339-.032-2-.079V52a1,1,0,0,0-.293-.707L28,49.586V46a1,1,0,0,0-1-1H23.414L22,43.586V43H20v1a1,1,0,0,0,.293.707l2,2A1,1,0,0,0,23,47h3v3a1,1,0,0,0,.293.707L28,52.414v7.3a27.994,27.994,0,0,1-17.5-9.8l4.207-4.207A1,1,0,0,0,15,45V42.414l2.707-2.707A1,1,0,0,0,18,39V36a1,1,0,0,0-.293-.707l-5-5-1.414,1.414L16,36.414v2.172l-2.707,2.707A1,1,0,0,0,13,42v2.586L9.268,48.318A27.932,27.932,0,0,1,14.711,10h4.875L22,12.414v3.172l-3.707,3.707A1,1,0,0,0,18,20v3.586l-.707.707,1.414,1.414,1-1A1,1,0,0,0,20,24V20.414l3.707-3.707A1,1,0,0,0,24,16V12a1,1,0,0,0-.293-.707l-3-3A1,1,0,0,0,20,8H17.6A27.8,27.8,0,0,1,28,4.29V12a1,1,0,0,0,.293.707l4,4A1,1,0,0,0,33,17h4.586L42,21.414v5.172l-1.707,1.707A1,1,0,0,0,40,29v4a1,1,0,0,0,.293.707L44,37.414V39h2V37a1,1,0,0,0-.293-.707L42,32.586V29.414l1.707-1.707A1,1,0,0,0,44,27V21a1,1,0,0,0-.293-.707l-5-5A1,1,0,0,0,38,15H33.414L30,11.586V4.079C30.661,4.032,31.327,4,32,4A27.983,27.983,0,0,1,51,52.543Z"></path><path d="M33.707,36.293A1,1,0,0,0,33,36H31v2h1.586l1.707,1.707,1.414-1.414Z"></path><path d="M39,22a1,1,0,0,0-1-1H32a1,1,0,0,0-1,1v2a1,1,0,0,0,.293.707L33,26.414V30a1,1,0,0,0,1,1h2a1,1,0,0,0,.707-.293l2-2A1,1,0,0,0,39,28Zm-2,5.586L35.586,29H35V26a1,1,0,0,0-.293-.707L33,23.586V23h4Z"></path><path d="M56,23a4,4,0,1,0-5,3.858V31h2V26.858A4,4,0,0,0,56,23Zm-4,2a2,2,0,1,1,2-2A2,2,0,0,1,52,25Z"></path><path d="M15,20a3,3,0,1,0-4,2.816V25h2V22.816A3,3,0,0,0,15,20Zm-3,1a1,1,0,1,1,1-1A1,1,0,0,1,12,21Z"></path><path d="M28,29a2.993,2.993,0,0,0-1,5.816V39h2V34.816A2.993,2.993,0,0,0,28,29Zm0,4a1,1,0,1,1,1-1A1,1,0,0,1,28,33Z"></path><rect x="51" y="33" width="2" height="2"></rect><rect x="51" y="37" width="2" height="2"></rect><rect x="51" y="41" width="2" height="2"></rect><rect x="47" y="41" width="2" height="2"></rect><rect x="43" y="41" width="2" height="2"></rect><rect x="39" y="41" width="2" height="2"></rect><rect x="35" y="41" width="2" height="2"></rect><rect x="31" y="41" width="2" height="2"></rect><rect x="27" y="41" width="2" height="2"></rect><rect x="23" y="39" width="2" height="2"></rect><rect x="19" y="39" width="2" height="2"></rect><rect x="19" y="35" width="2" height="2"></rect><rect x="19" y="31" width="2" height="2"></rect><rect x="19" y="27" width="2" height="2"></rect><rect x="15" y="27" width="2" height="2"></rect><rect x="11" y="27" width="2" height="2"></rect></g></svg>