<svg xmlns="http://www.w3.org/2000/svg" viewBox="0 0 64 64" x="0px" y="0px"><g><circle cx="44" cy="35" r="1"></circle><path d="M49.29,41.71A1.033,1.033,0,0,1,49,41V33.24L47.38,30H40.62L39,33.24V41a1.033,1.033,0,0,1-.29.71l-.71.7v1.18l.41.41H49.59l.41-.41V42.41ZM45,42H43V40h2Zm-1-4a3,3,0,1,1,3-3A3.009,3.009,0,0,1,44,38Z"></path><rect x="51" y="35" width="3" height="2"></rect><path d="M5,54h.78c-.083-.209-.173-.415-.242-.631l-1.506-.213A.988.988,0,0,0,5,54Z"></path><path d="M4,12V46.85l1.54-.22a10.69,10.69,0,0,1,.68-1.64L4.59,42.82a1,1,0,0,1,.09-1.31l2.83-2.83a1,1,0,0,1,1.31-.09l2.17,1.63a10.69,10.69,0,0,1,1.64-.68l.38-2.68A1,1,0,0,1,14,36h4a1,1,0,0,1,.99.86l.38,2.68a10.69,10.69,0,0,1,1.64.68l2.17-1.63a1,1,0,0,1,1.31.09l2.83,2.83a1,1,0,0,1,.09,1.31l-1.63,2.17a10.69,10.69,0,0,1,.68,1.64l2.68.38A1,1,0,0,1,30,48v4a1,1,0,0,1-.86.99l-2.68.38c-.07.22-.16.42-.24.63H39.18A3,3,0,0,1,39,53V46H38a1.033,1.033,0,0,1-.71-.29l-1-1A1.033,1.033,0,0,1,36,44V42a1.033,1.033,0,0,1,.29-.71l.71-.7V39H30a3.009,3.009,0,0,1-3-3V30a2.968,2.968,0,0,1,.62-1.8A3.986,3.986,0,0,1,26,25h2a2,2,0,0,0,4,0h2a3.986,3.986,0,0,1-1.62,3.2A2.968,2.968,0,0,1,33,30v3h4a1,1,0,0,1,.11-.45L38.38,30H38a3.009,3.009,0,0,1-3-3V25a3.01,3.01,0,0,1,2-2.82V18.5a2.5,2.5,0,0,1,5,0V22h4V18.5a2.5,2.5,0,0,1,5,0v3.68A3.01,3.01,0,0,1,53,25v2a3.009,3.009,0,0,1-3,3h-.38l1.27,2.55A1,1,0,0,1,51,33h3V12Zm14.06,3.65,1.88.7-3,8-1.88-.7ZM9.29,19.29l3-3,1.42,1.42L11.41,20l2.3,2.29-1.42,1.42-3-3A1.008,1.008,0,0,1,9.29,19.29ZM8,28V26h4v2Zm6,4H10V30h4Zm0-6h8v2H14Zm10,6H16V30h8Zm1.71-11.29-3,3-1.42-1.42L23.59,20l-2.3-2.29,1.42-1.42,3,3A1.008,1.008,0,0,1,25.71,20.71Z"></path><path d="M47,47V46H41v1h2v2H41v2h2v2H41a1,1,0,0,0,1,1h4a1,1,0,0,0,1-1H45V51h2V49H45V47Z"></path><path d="M25.54,48.52a1.008,1.008,0,0,1-.83-.74,8.409,8.409,0,0,0-.98-2.35,1.015,1.015,0,0,1,.06-1.12l1.5-2-1.6-1.6-2,1.5a1,1,0,0,1-1.11.06,8.6,8.6,0,0,0-2.36-.98,1.008,1.008,0,0,1-.74-.83L17.13,38H14.87l-.35,2.46a1.008,1.008,0,0,1-.74.83,8.6,8.6,0,0,0-2.36.98,1,1,0,0,1-1.11-.06l-2-1.5-1.6,1.6,1.5,2a1.015,1.015,0,0,1,.06,1.12,8.409,8.409,0,0,0-.98,2.35,1.008,1.008,0,0,1-.83.74L4,48.87v2.26l2.46.35a1,1,0,0,1,.83.75A8.444,8.444,0,0,0,7.98,54h3.56a6,6,0,1,1,8.92,0h3.56a8.444,8.444,0,0,0,.69-1.77,1,1,0,0,1,.83-.75L28,51.13V48.87ZM8,51H6V49H8Zm1.64-5.95L8.22,43.64l1.42-1.42,1.41,1.42ZM17,42H15V40h2Zm3.95,1.64,1.41-1.42,1.42,1.42-1.42,1.41ZM26,51H24V49h2Z"></path><circle cx="16" cy="50" r="4"></circle><path d="M54,39V53a1,1,0,0,1-1,1H48.82A3,3,0,0,0,49,53V46h1a1.033,1.033,0,0,0,.71-.29l1-1A1.033,1.033,0,0,0,52,44V42a1.033,1.033,0,0,0-.29-.71l-.71-.7V39Z"></path><path d="M31,30a1,1,0,0,0-2,0v3.184a2.809,2.809,0,0,1,2,0Z"></path><circle cx="30" cy="36" r="1"></circle><path d="M37,37V35H32.816a2.809,2.809,0,0,1,0,2Z"></path><path d="M53,4H5A1,1,0,0,0,4,5v5H54V5A1,1,0,0,0,53,4ZM10,8H8V6h2Zm4,0H12V6h2Zm4,0H16V6h2ZM46,8H24V6H46Z"></path><path d="M57,33.184a2.809,2.809,0,0,1,2,0V30a1,1,0,0,0-2,0Z"></path><path d="M50,24H38a1,1,0,0,0-1,1v2a1,1,0,0,0,1,1H50a1,1,0,0,0,1-1V25A1,1,0,0,0,50,24Zm-9,3H39V25h2Zm8,0H47V25h2Z"></path><circle cx="58" cy="36" r="1"></circle><path d="M48.5,18a.5.5,0,0,0-.5.5V22h1V18.5A.5.5,0,0,0,48.5,18Z"></path><path d="M39.5,18a.5.5,0,0,0-.5.5V22h1V18.5A.5.5,0,0,0,39.5,18Z"></path><path d="M58,29a4,4,0,0,1-4-4h2a2,2,0,0,0,4,0h2A4,4,0,0,1,58,29Z"></path></g></svg>