<svg xmlns="http://www.w3.org/2000/svg" viewBox="0 0 64 64" x="0px" y="0px"><g data-name="Ghost"><ellipse cx="32" cy="31" rx="5" ry="6"></ellipse><path d="M54.749,25H48a3,3,0,0,1-3-3V17.4A13.186,13.186,0,0,0,32.63,4.015,13,13,0,0,0,19,17v5a3,3,0,0,1-3,3H9.251A5.172,5.172,0,0,0,4,29.845,5,5,0,0,0,9,35h5a5.006,5.006,0,0,1,5,5,.979.979,0,0,1-.018.187L15.435,58.813A1,1,0,0,0,16.417,60H47.583a1,1,0,0,0,.982-1.187L45.018,40.187A.979.979,0,0,1,45,40a5.006,5.006,0,0,1,5-5h5a5,5,0,0,0,5-5.155A5.172,5.172,0,0,0,54.749,25ZM22,17a4,4,0,1,1,4,4A4,4,0,0,1,22,17ZM32,39c-3.86,0-7-3.589-7-8s3.14-8,7-8,7,3.589,7,8S35.86,39,32,39Zm6-18a4,4,0,1,1,4-4A4,4,0,0,1,38,21Z"></path><circle cx="38" cy="17" r="2"></circle><circle cx="26" cy="17" r="2"></circle></g></svg>