<svg xmlns="http://www.w3.org/2000/svg" viewBox="0 0 64 64" x="0px" y="0px"><g><polygon points="19 22 15 22 15 40.28 19.001 41.613 19 22"></polygon><polygon points="15 48.279 19 49.612 19 47.721 15 46.388 15 48.279"></polygon><polygon points="15 44.279 19 45.612 19 43.721 15 42.388 15 44.279"></polygon><path d="M30,9a24.065,24.065,0,0,0-8,1.337v3.89A26.107,26.107,0,0,1,30,13c8.678,0,16.326,4.122,19.885,10.277C48.807,15.262,40.3,9,30,9Z"></path><polygon points="15 56.279 19 57.612 19 55.721 15 54.388 15 56.279"></polygon><rect x="16" y="4" width="2" height="2"></rect><rect x="14" y="8" width="6" height="12"></rect><polygon points="15 52.279 19 53.612 19 51.721 15 50.388 15 52.279"></polygon><polygon points="15 60 19.001 60 19.001 59.721 15 58.387 15 60"></polygon></g></svg>