<svg xmlns="http://www.w3.org/2000/svg" viewBox="0 0 64 64" x="0px" y="0px"><g><circle cx="17" cy="19" r="1"></circle><path d="M6.05,20a10.947,10.947,0,0,0,2.5,6.03l1.38-1.37,1.41,1.41L9.97,27.45A10.947,10.947,0,0,0,16,29.95V28h2v1.95a10.947,10.947,0,0,0,6.03-2.5l-1.37-1.38,1.41-1.41,1.38,1.37A10.947,10.947,0,0,0,27.95,20H26V18h1.95a10.947,10.947,0,0,0-2.5-6.03l-1.38,1.37-1.41-1.41,1.37-1.38A10.947,10.947,0,0,0,18,8.05V10H16V8.05a10.947,10.947,0,0,0-6.03,2.5l1.37,1.38L9.93,13.34,8.55,11.97A10.947,10.947,0,0,0,6.05,18H8v2ZM16,16.184V12h2v4.184A3,3,0,0,1,19.816,18H23v2H19.816A2.993,2.993,0,1,1,16,16.184Z"></path><rect x="52" y="29" width="8" height="1"></rect><path d="M60,12.86V10H57.14A4.017,4.017,0,0,0,60,12.86Z"></path><path d="M5,34H59a1,1,0,0,0,0-2H5a1,1,0,0,0,0,2Z"></path><path d="M60,21.14A4.017,4.017,0,0,0,57.14,24H60Z"></path><circle cx="48" cy="17" r="3"></circle><rect x="52" y="26" width="8" height="1"></rect><rect x="36" y="26" width="8" height="1"></rect><path d="M36,12.86A4.017,4.017,0,0,0,38.86,10H36Z"></path><rect x="36" y="29" width="8" height="1"></rect><path d="M36,21.13V24h2.86A4,4,0,0,0,36,21.13Z"></path><rect x="46" y="26" width="4" height="4"></rect><path d="M36,14.91v4.18A5.992,5.992,0,0,1,40.91,24H55.09A5.992,5.992,0,0,1,60,19.09V14.91A5.992,5.992,0,0,1,55.09,10H40.91A5.992,5.992,0,0,1,36,14.91ZM48,12a5,5,0,1,1-5,5A5.006,5.006,0,0,1,48,12Z"></path><rect x="19" y="58" width="26" height="2"></rect><polygon points="21.68 56 42.32 56 32 37.09 21.68 56"></polygon></g></svg>