<svg xmlns="http://www.w3.org/2000/svg" viewBox="0 0 64 64" x="0px" y="0px"><g data-name="Smartphone-Money-Payment Method-Financial-Online Banking"><path d="M46,2H18a6,6,0,0,0-6,6V56a6,6,0,0,0,6,6H46a6,6,0,0,0,6-6V8A6,6,0,0,0,46,2Zm4,54a4,4,0,0,1-4,4H18a4,4,0,0,1-4-4V50H50Zm0-8H14V12H50Zm0-38H14V8a4,4,0,0,1,4-4H46a4,4,0,0,1,4,4Z"></path><path d="M34,52H30a3,3,0,0,0,0,6h4a3,3,0,0,0,0-6Zm0,4H30a1,1,0,0,1,0-2h4a1,1,0,0,1,0,2Z"></path><rect x="25" y="6" width="2" height="2"></rect><rect x="29" y="6" width="6" height="2"></rect><path d="M31,30v1a3,3,0,0,0,0,6h2a1,1,0,0,1,0,2H31a1,1,0,0,1-1-1H28a3,3,0,0,0,3,3v1h2V41a3,3,0,0,0,0-6H31a1,1,0,0,1,0-2h2a1,1,0,0,1,1,1h2a3,3,0,0,0-3-3V30Z"></path><path d="M33.71,23.28a6.559,6.559,0,0,0,1.08.09,7.057,7.057,0,0,0,6.55-4.49l.67-1.76a1,1,0,0,0-.06-.86,1.03,1.03,0,0,0-.71-.49l-1.87-.29A7.005,7.005,0,0,0,32,19.35a7.012,7.012,0,0,0-7.37-3.87l-1.87.29a1.03,1.03,0,0,0-.71.49,1,1,0,0,0-.06.86l.67,1.76a7.057,7.057,0,0,0,6.55,4.49,6.559,6.559,0,0,0,1.08-.09l.71-.11v2.88a10,10,0,1,0,2,0V23.17Zm-.1-2.68a5.039,5.039,0,0,1,5.45-3.15l.64.1-.23.61a5.033,5.033,0,0,1-5.45,3.15l-.64-.1Zm-3.63.71a5.033,5.033,0,0,1-5.45-3.15l-.23-.61.64-.1a5.033,5.033,0,0,1,5.45,3.15l.23.61ZM40,36a8,8,0,1,1-8-8A8.011,8.011,0,0,1,40,36Z"></path></g></svg>