<svg xmlns="http://www.w3.org/2000/svg" viewBox="0 0 64 64" x="0px" y="0px"><g data-name="Clock-Time-Circular Clock-Wall Clock-Watch"><path d="M35.33,8.21a4,4,0,1,0-6.66,0,27,27,0,1,0,6.66,0ZM32,4a2,2,0,1,1-2,2A2.006,2.006,0,0,1,32,4Zm0,56A25,25,0,1,1,57,35,25.022,25.022,0,0,1,32,60Z"></path><path d="M32,12A23,23,0,1,0,55,35,23.029,23.029,0,0,0,32,12Zm0,44A21,21,0,1,1,53,35,21.023,21.023,0,0,1,32,56Z"></path><rect x="31" y="16" width="2" height="2"></rect><rect x="22" y="18.412" width="2" height="1.999" transform="translate(-6.625 14.105) rotate(-30.009)"></rect><rect x="15.411" y="25" width="2" height="1.999" transform="translate(-14.311 27.208) rotate(-59.991)"></rect><rect x="13" y="34" width="2" height="2"></rect><rect x="15.412" y="43" width="1.999" height="2" transform="translate(-19.798 14.097) rotate(-29.995)"></rect><rect x="22" y="49.588" width="1.999" height="2" transform="translate(-32.311 45.218) rotate(-60.005)"></rect><rect x="31" y="52" width="2" height="2"></rect><rect x="40" y="49.589" width="2" height="1.999" transform="translate(-19.805 27.287) rotate(-30.009)"></rect><rect x="46.588" y="43" width="2" height="1.999" transform="translate(-14.314 63.203) rotate(-59.991)"></rect><rect x="49" y="34" width="2" height="2"></rect><rect x="46.589" y="25" width="1.999" height="2" transform="translate(-6.624 27.273) rotate(-29.995)"></rect><rect x="40" y="18.411" width="1.999" height="2" transform="translate(3.691 45.216) rotate(-60.005)"></rect><path d="M34.7,36.29A2.98,2.98,0,0,0,35,35V23a3,3,0,0,0-6,0v9H24a3,3,0,0,0,0,6h8a2.98,2.98,0,0,0,1.29-.3l6,6.01,1.42-1.42ZM24,36a1,1,0,0,1,0-2h5v1a3,3,0,0,0,.18,1Zm8,0a1,1,0,1,1,1-1A1,1,0,0,1,32,36Zm1-3.82A3,3,0,0,0,32,32H31V23a1,1,0,0,1,2,0Z"></path></g></svg>