<svg xmlns="http://www.w3.org/2000/svg" viewBox="0 0 64 64" x="0px" y="0px"><g data-name="Cargo Truck"><path d="M12,45a4,4,0,1,0,4,4A4,4,0,0,0,12,45Zm1,5H11V48h2Z"></path><path d="M26,45a4,4,0,1,0,4,4A4,4,0,0,0,26,45Zm1,5H25V48h2Z"></path><path d="M34,48V39H30.414l-1.707,1.707A1,1,0,0,1,28,41H4v7H6.09a5.993,5.993,0,0,1,11.82,0h2.18a5.993,5.993,0,0,1,11.82,0Z"></path><rect x="36" y="44" width="2" height="4"></rect><path d="M34,11H4V39H27.586l1.707-1.707A1,1,0,0,1,30,37h4ZM11,35H9V15h2Zm6,0H15V15h2Zm6,0H21V15h2Zm6,0H27V15h2Z"></path><path d="M49,45a4,4,0,1,0,4,4A4,4,0,0,0,49,45Zm1,5H48V48h2Z"></path><path d="M59,48a1,1,0,0,0,1-1V46H57V44h3V42H56a2,2,0,0,1-2-2V38a2,2,0,0,1,2-2h4V34.108c0-.037-.013-.072-.015-.108H43a1,1,0,0,1-1-1V23H40V48h3.09a5.993,5.993,0,0,1,11.82,0ZM46,38H42V36h4Z"></path><rect x="56" y="38" width="4" height="2"></rect><path d="M44,23v9H59.267l-4.58-8.475a1,1,0,0,0-.88-.525Z"></path></g></svg>