<svg xmlns="http://www.w3.org/2000/svg" viewBox="0 0 64 64" x="0px" y="0px"><g data-name="Online Shopping-Shopping Cart-Shop-Browser-Payment"><circle cx="20" cy="58" r="2"></circle><circle cx="12" cy="58" r="2"></circle><polygon points="22.87 46 20 46 20 48 22.62 48 22.87 46"></polygon><rect x="16" y="46" width="2" height="2"></rect><polygon points="20 52 22.12 52 22.37 50 20 50 20 52"></polygon><rect x="42" y="52" width="6" height="8"></rect><path d="M4,12V45a1,1,0,0,0,1,1h5V43.41L8.59,42H6V40H9a1.033,1.033,0,0,1,.71.29l2,2A1.033,1.033,0,0,1,12,43v1H24a.981.981,0,0,1,.75.34.968.968,0,0,1,.24.78l-.11.88H32v-.1A5.017,5.017,0,0,1,28,41,13.012,13.012,0,0,1,41,28h5V12Zm26,4h2v2H30ZM18,36A10,10,0,1,1,28,26,10.016,10.016,0,0,1,18,36ZM40,26H30V24H40Zm0-4H30V20H40Zm0-4H34V16h6Z"></path><rect x="16" y="50" width="2" height="2"></rect><rect x="12" y="50" width="2" height="2"></rect><rect x="12" y="46" width="2" height="2"></rect><path d="M55,60a1,1,0,0,0,1-1V45.9a4.977,4.977,0,0,1-3-1.93,4.956,4.956,0,0,1-8,0,4.956,4.956,0,0,1-8,0,4.977,4.977,0,0,1-3,1.93V59a1,1,0,0,0,1,1h5V51a1,1,0,0,1,1-1h8a1,1,0,0,1,1,1v9Z"></path><path d="M60,41a11,11,0,0,0-9.16-10.83A8.972,8.972,0,0,1,54,37v4a3,3,0,0,0,6,0Z"></path><path d="M30,41a3,3,0,0,0,6,0V37a8.972,8.972,0,0,1,3.16-6.83A11,11,0,0,0,30,41Z"></path><path d="M18,18a8,8,0,1,0,8,8A8.009,8.009,0,0,0,18,18Zm-1,7h2a3,3,0,0,1,0,6v1H17V31a3,3,0,0,1-3-3h2a1,1,0,0,0,1,1h2a1,1,0,0,0,0-2H17a3,3,0,0,1,0-6V20h2v1a3,3,0,0,1,3,3H20a1,1,0,0,0-1-1H17a1,1,0,0,0,0,2Z"></path><path d="M46,5a1,1,0,0,0-1-1H5A1,1,0,0,0,4,5v5H46ZM8,8H6V6H8Zm4,0H10V6h2Zm4,0H14V6h2Z"></path><path d="M38,41a3,3,0,0,0,6,0V30.08A7,7,0,0,0,38,37Z"></path><path d="M52,41V37a7,7,0,0,0-6-6.92V41a3,3,0,0,0,6,0Z"></path><path d="M27,57H25a1,1,0,0,0-1-1H11a1,1,0,0,1-1-1V46h2v8H24A3.009,3.009,0,0,1,27,57Z"></path></g></svg>