<svg xmlns="http://www.w3.org/2000/svg" viewBox="0 0 64 64" x="0px" y="0px"><g data-name="Marketing Plan"><circle cx="21" cy="43" r="1"></circle><circle cx="43" cy="25" r="1"></circle><path d="M12,60H52a1,1,0,0,0,1-1V15H47a3,3,0,0,1-3-3V4H12a1,1,0,0,0-1,1V59A1,1,0,0,0,12,60ZM35.172,43.414,36.586,42l-1.414-1.414,1.414-1.414L38,40.586l1.414-1.414,1.414,1.414L39.414,42l1.414,1.414-1.414,1.414L38,43.414l-1.414,1.414ZM41,48v2H37V48Zm8,6H37V52H49Zm0-6v2H43V48ZM40,25a3,3,0,1,1,4,2.816V30a5.006,5.006,0,0,1-5,5H25a3,3,0,0,0-3,3v2.184a3,3,0,1,1-2,0V38a5.006,5.006,0,0,1,5-5H39a3,3,0,0,0,3-3V27.816A3,3,0,0,1,40,25ZM29,12h6v2H29Zm-4,0h2v2H25Zm0,4H37v2H25Zm-3.828,8.586,1.414-1.414L24,24.586l1.414-1.414,1.414,1.414L25.414,26l1.414,1.414-1.414,1.414L24,27.414l-1.414,1.414-1.414-1.414L22.586,26ZM18,15a2.993,2.993,0,0,1-1-5.816V8h2V9.184A3,3,0,0,1,21,12H19a1,1,0,1,0-1,1,2.993,2.993,0,0,1,1,5.816V20H17V18.816A3,3,0,0,1,15,16h2a1,1,0,1,0,1-1Z"></path><path d="M51.868,13,46,5.81V12a1,1,0,0,0,1,1Z"></path></g></svg>