<svg xmlns="http://www.w3.org/2000/svg" viewBox="0 0 64 64" x="0px" y="0px"><title>Coins</title><g><path d="M40,52H38V50h1a1,1,0,0,0,1-1V45a1,1,0,0,0-1-1H25a1,1,0,0,0-1,1v3H23a1,1,0,0,0-1,1v4a1,1,0,0,0,1,1h2v2H24a1,1,0,0,0-1,1v4a1,1,0,0,0,1,1H38a1,1,0,0,0,1-1V58h1a1,1,0,0,0,1-1V53A1,1,0,0,0,40,52ZM26,46H38v2H26Zm-2,4H36v2H24ZM37,60H25V58H37Zm2-4H27V54H39Z"></path><path d="M20,40V37a1,1,0,0,0-1-1H5a1,1,0,0,0-1,1v4a1,1,0,0,0,1,1v2a1,1,0,0,0-1,1v3H3a1,1,0,0,0-1,1v4a1,1,0,0,0,1,1H5v2H4a1,1,0,0,0-1,1v4a1,1,0,0,0,1,1H18a1,1,0,0,0,1-1V58h1a1,1,0,0,0,1-1V53a1,1,0,0,0-1-1H18V50h1a1,1,0,0,0,1-1V46a1,1,0,0,0,1-1V41A1,1,0,0,0,20,40ZM6,38H18v2H6Zm1,4H19v2H7ZM17,60H5V58H17Zm2-4H7V54H19Zm-3-4H4V50H16Zm2-4H6V46H18Z"></path><path d="M61,52H59V50h1a1,1,0,0,0,1-1V45a1,1,0,0,0-1-1V41a1,1,0,0,0-1-1H45a1,1,0,0,0-1,1v4a1,1,0,0,0,1,1v2H44a1,1,0,0,0-1,1v4a1,1,0,0,0,1,1h2v2H45a1,1,0,0,0-1,1v4a1,1,0,0,0,1,1H59a1,1,0,0,0,1-1V58h1a1,1,0,0,0,1-1V53A1,1,0,0,0,61,52ZM46,42H58v2H46Zm1,4H59v2H47Zm-2,4H57v2H45ZM58,60H46V58H58Zm2-4H48V54H60Z"></path><path d="M32,25a1,1,0,0,1,1,1h2a3,3,0,0,0-2-2.816V22H31v1.184A2.993,2.993,0,0,0,32,29a1,1,0,1,1-1,1H29a3,3,0,0,0,2,2.816V34h2V32.816A2.993,2.993,0,0,0,32,27a1,1,0,0,1,0-2Z"></path><path d="M32,19a9,9,0,1,0,9,9A9.01,9.01,0,0,0,32,19Zm0,16a7,7,0,1,1,7-7A7.008,7.008,0,0,1,32,35Z"></path><rect x="36" y="27" width="2" height="2"></rect><rect x="26" y="27" width="2" height="2"></rect><path d="M12,34a1,1,0,0,0,.707-.293l5.657-5.657L16.95,26.636,13,30.586V2H11V30.586l-3.95-3.95L5.636,28.05l5.657,5.657A1,1,0,0,0,12,34Z"></path><path d="M45.636,28.05l5.657,5.657a1,1,0,0,0,1.414,0l5.657-5.657L56.95,26.636,53,30.586V2H51V30.586l-3.95-3.95Z"></path><polygon points="23 16 23 14 25 14 25 12 23 12 23 10 21 10 21 12 19 12 19 14 21 14 21 16 23 16"></polygon><polygon points="44 21 44 19 46 19 46 17 44 17 44 15 42 15 42 17 40 17 40 19 42 19 42 21 44 21"></polygon><polygon points="35 10 37 10 37 8 39 8 39 6 37 6 37 4 35 4 35 6 33 6 33 8 35 8 35 10"></polygon></g></svg>