<svg xmlns="http://www.w3.org/2000/svg" viewBox="0 0 32 32" x="0px" y="0px"><g><path d="M29.364,27.95l-2.931-2.931A3.947,3.947,0,0,0,27,23a4,4,0,1,0-4,4,3.947,3.947,0,0,0,2.019-.567l2.931,2.931a1,1,0,0,0,1.414-1.414ZM21,23a2,2,0,1,1,2,2A2,2,0,0,1,21,23Z"></path><path d="M26,3a1,1,0,0,0-1-1H7A1,1,0,0,0,6,3V4H26Z"></path><path d="M6,6V24H17.09A5.47,5.47,0,0,1,17,23a6,6,0,0,1,6-6,5.857,5.857,0,0,1,3,.81V6Zm6,10H10V14h2Zm5,0H15V14h2Zm5,0H20V14h2Z"></path><path d="M24.55,28.79A5.848,5.848,0,0,1,23,29a5.985,5.985,0,0,1-5.19-3H6v3a1,1,0,0,0,1,1H25a1.023,1.023,0,0,0,.58-.18ZM17,29H15V27h2Z"></path></g></svg>