<svg xmlns="http://www.w3.org/2000/svg" viewBox="0 0 64 64" x="0px" y="0px"><g><path d="M42,30H40V28H39V26h2a1,1,0,0,1,1,1Z"></path><path d="M23.593,49.5A2.994,2.994,0,1,0,24,51,3,3,0,0,0,23.593,49.5ZM21.71,51.71a1,1,0,0,1-1.63-1.09,1.032,1.032,0,0,1,.21-.33,1.155,1.155,0,0,1,.33-.21.968.968,0,0,1,1.3.54.99.99,0,0,1-.21,1.09Z"></path><path d="M24.4,47.348c.056.052.114.1.168.157.1.1.2.215.288.328.04.048.082.092.12.141L25,48H40V44H4v4H6c.007-.009.015-.016.022-.025.039-.052.083-.1.124-.147.091-.111.183-.22.283-.321.055-.057.115-.109.173-.162.093-.087.187-.172.286-.251.066-.052.133-.1.2-.148.1-.072.2-.141.306-.2q.108-.066.219-.126c.108-.059.217-.112.329-.163.076-.035.152-.069.229-.1.118-.047.238-.086.36-.123.076-.024.151-.05.228-.069.134-.035.271-.06.409-.083.067-.011.133-.027.2-.036a4.686,4.686,0,0,1,1.252,0c.069.009.135.025.2.036.138.023.275.048.409.083.077.019.152.045.228.069.122.037.242.076.359.123.078.03.154.064.23.1.112.051.222.105.33.163.074.041.146.082.218.126.105.064.207.133.308.206.067.048.133.095.2.146.1.081.2.167.291.255.056.052.114.1.168.157.1.1.2.215.288.328.04.048.082.092.12.141L14,48H17c.007-.009.015-.016.022-.025.039-.052.083-.1.124-.147.091-.111.183-.22.283-.321.055-.057.115-.109.173-.162.093-.087.187-.172.286-.251.066-.052.133-.1.2-.148.1-.072.2-.141.306-.2q.108-.066.219-.126c.108-.059.217-.112.329-.163.076-.035.152-.069.229-.1.118-.047.238-.086.36-.123.076-.024.151-.05.228-.069.134-.035.271-.06.409-.083.067-.011.133-.027.2-.036a4.686,4.686,0,0,1,1.252,0c.069.009.135.025.2.036.138.023.275.048.409.083.077.019.152.045.228.069.122.037.242.076.359.123.078.03.154.064.23.1.112.051.222.105.33.163.074.041.146.082.218.126.105.064.207.133.308.206.067.048.133.095.2.146C24.209,47.174,24.3,47.26,24.4,47.348Z"></path><path d="M54.593,49.5A2.994,2.994,0,1,0,55,51,3,3,0,0,0,54.593,49.5ZM52.71,51.71a1,1,0,0,1-1.63-1.09,1.032,1.032,0,0,1,.21-.33,1.155,1.155,0,0,1,.33-.21.968.968,0,0,1,1.3.54.99.99,0,0,1-.21,1.09Z"></path><path d="M60,42V40H45a1,1,0,0,1-1-1V32H42V48h6c.007-.009.015-.016.022-.025.039-.052.083-.1.124-.147.091-.111.183-.22.283-.321.055-.057.115-.109.173-.162.093-.087.187-.172.286-.251.066-.052.133-.1.2-.148.1-.072.2-.141.306-.2q.108-.066.219-.126c.108-.059.217-.112.329-.163.076-.035.152-.069.229-.1.118-.047.238-.086.36-.123.076-.024.151-.05.228-.069.134-.035.271-.06.409-.083.067-.011.133-.027.2-.036a4.686,4.686,0,0,1,1.252,0c.069.009.135.025.2.036.138.023.275.048.409.083.077.019.152.045.228.069.122.037.242.076.359.123.078.03.154.064.23.1.112.051.222.105.33.163.074.041.146.082.218.126.105.064.207.133.308.206.067.048.133.095.2.146.1.081.2.167.291.255.056.052.114.1.168.157.1.1.2.215.288.328.04.048.082.092.12.141L56,48h4V44H58V42ZM48,43H44V41h4Z"></path><polygon points="49.117 32 46 32 46 38 49.867 38 49.117 32"></polygon><rect x="4" y="24" width="32" height="14"></rect><rect x="4" y="40" width="32" height="2"></rect><path d="M12.593,49.5A2.994,2.994,0,1,0,13,51,3,3,0,0,0,12.593,49.5ZM10.71,51.71a1,1,0,0,1-1.63-1.09,1.032,1.032,0,0,1,.21-.33,1.021,1.021,0,0,1,1.09-.21,1.032,1.032,0,0,1,.33.21,1.155,1.155,0,0,1,.21.33A.838.838,0,0,1,11,51,.99.99,0,0,1,10.71,51.71Z"></path></g></svg>