<svg xmlns="http://www.w3.org/2000/svg" viewBox="0 0 64 64" x="0px" y="0px"><title>Tag</title><g><path d="M48.708,18.337,38.686,8.293A1,1,0,0,0,37.978,8h-2.02C35.7,4.519,34.085,2,32,2s-3.7,2.519-3.958,6H25.921a1,1,0,0,0-.71.3L15.29,18.3a1,1,0,0,0-.29.7V61a1,1,0,0,0,1,1H48a1,1,0,0,0,1-1V19.043A1,1,0,0,0,48.708,18.337ZM33,16a1,1,0,0,1-2,0,.948.948,0,0,1,.039-.192,2.5,2.5,0,0,0,1.922,0A.948.948,0,0,1,33,16ZM32,4c.722,0,1.73,1.531,1.952,4h-3.9C30.27,5.531,31.278,4,32,4ZM47,60H17V19.418L26.338,10h7.613A7.306,7.306,0,0,1,33,13.184,2.966,2.966,0,0,0,32,13a3,3,0,1,0,3,3,2.969,2.969,0,0,0-.446-1.552A9.152,9.152,0,0,0,35.96,10h1.6L47,19.457Z"></path><rect x="36.025" y="12.708" width="2" height="2" transform="translate(1.137 30.165) rotate(-44.951)"></rect><rect x="43" y="49.112" width="2" height="3.925"></rect><rect x="43" y="43.224" width="2" height="3.925"></rect><path d="M43,21.111V23.6h2V20.7a1,1,0,0,0-.292-.706l-.724-.726-1.416,1.412Z"></path><rect x="39.503" y="15.231" width="2" height="3.925" transform="translate(-0.312 33.634) rotate(-44.941)"></rect><rect x="43" y="37.336" width="2" height="3.925"></rect><rect x="43" y="25.561" width="2" height="3.925"></rect><rect x="43" y="31.449" width="2" height="3.925"></rect><path d="M43,56H42v2h2a1,1,0,0,0,1-1V55H43Z"></path><rect x="24" y="56" width="4" height="2"></rect><rect x="36" y="56" width="4" height="2"></rect><rect x="30" y="56" width="4" height="2"></rect><path d="M21,55H19v2a1,1,0,0,0,1,1h2V56H21Z"></path><rect x="19" y="25.598" width="2" height="3.92"></rect><path d="M21,21.065l.369-.373-1.42-1.408-.659.665a1,1,0,0,0-.29.7v2.984h2Z"></path><rect x="19" y="31.478" width="2" height="3.92"></rect><rect x="19" y="37.358" width="2" height="3.92"></rect><rect x="19" y="43.239" width="2" height="3.92"></rect><rect x="21.459" y="16.204" width="3.92" height="2" transform="translate(-5.286 21.725) rotate(-45.252)"></rect><rect x="19" y="49.12" width="2" height="3.92"></rect><rect x="25.884" y="12.71" width="2" height="2" transform="translate(-1.782 23.144) rotate(-45.237)"></rect></g></svg>