<svg xmlns="http://www.w3.org/2000/svg" viewBox="0 0 64 64" x="0px" y="0px"><g><rect x="7" y="52" width="2" height="9"></rect><rect x="17" y="52" width="2" height="9"></rect><rect x="26" y="52" width="2" height="9"></rect><rect x="36" y="52" width="2" height="9"></rect><rect x="45" y="52" width="2" height="9"></rect><rect x="55" y="52" width="2" height="9"></rect><path d="M18.937,34.782A31.5,31.5,0,0,0,13,34a31.5,31.5,0,0,0-5.937.782L7.926,46H18.074Z"></path><rect x="8" y="48" width="10" height="2"></rect><path d="M37.937,34.782A31.5,31.5,0,0,0,32,34a31.5,31.5,0,0,0-5.937.782L26.926,46H37.074Z"></path><rect x="27" y="48" width="10" height="2"></rect><path d="M56.937,34.782A31.5,31.5,0,0,0,51,34a31.5,31.5,0,0,0-5.937.782L45.926,46H56.074Z"></path><rect x="46" y="48" width="10" height="2"></rect><path d="M35.707,10.707,34.293,9.293l.46-.46A4.961,4.961,0,0,0,33,8.1V12h3.9a4.961,4.961,0,0,0-.732-1.753Z"></path><polygon points="34 24 30 24 30 28 25 28 25 30 39 30 39 28 34 28 34 24"></polygon><path d="M31,13V8.1A5.009,5.009,0,0,0,27,13a4.94,4.94,0,0,0,.481,2.105l.812-.812,1.414,1.414-1.014,1.014A4.973,4.973,0,0,0,36.9,14H32A1,1,0,0,1,31,13Z"></path><path d="M17,4V22H47V4Zm4,16H19V18h2ZM40,8H38.414l-.816.816A6.987,6.987,0,0,1,27.27,18.145l-1.563,1.562A1,1,0,0,1,25,20H23V18h1.586L26,16.586A6.937,6.937,0,0,1,25,13,6.986,6.986,0,0,1,36.184,7.4l1.109-1.109A1,1,0,0,1,38,6h2Zm4,0H42V6h2Z"></path></g></svg>