<svg xmlns="http://www.w3.org/2000/svg" viewBox="0 0 64 64" x="0px" y="0px"><g><path d="M52,2H44a1,1,0,0,0-1,1V15a1,1,0,0,1-1,1H23c-.82,0-1.957-.68-2-1V3a1,1,0,0,0-1-1H12a1,1,0,0,0-1,1V57a5.006,5.006,0,0,0,5,5H48a5.006,5.006,0,0,0,5-5V3A1,1,0,0,0,52,2ZM51,4V7H45V4ZM19,4V7H13V4ZM48,60H16a3,3,0,0,1-3-3V9h6v6c0,1.8,2.408,3,4,3H42a3,3,0,0,0,3-3V9h6V57A3,3,0,0,1,48,60Z"></path><path d="M35.249,26.409l-.5,1.938a11,11,0,0,1-.69,21.452l1.192-1.7-1.639-1.147-2.433,3.476a1,1,0,0,0,.245,1.392L34.9,54.253l1.147-1.639-1.3-.912a13,13,0,0,0,.5-25.293Z"></path><path d="M30.386,31.049l2.433-3.476a1,1,0,0,0-.245-1.392L29.1,23.747l-1.147,1.639,1.3.912a13,13,0,0,0-.5,25.293l.5-1.938a11,11,0,0,1,.69-21.452l-1.192,1.7Z"></path></g></svg>