<svg xmlns="http://www.w3.org/2000/svg" viewBox="0 0 64 64" x="0px" y="0px"><g><path d="M61.909,60.584,52.953,40.979l-5.01-14.31a1,1,0,0,0-1.886,0L40.872,41.493,33,22.8V17h9a1,1,0,0,0,.832-1.555L41.2,13l1.63-2.445A1,1,0,0,0,42,9H33V8H31V22.8l-7.872,18.7L17.943,26.669a1,1,0,0,0-1.886,0L11.081,40.9,2.091,60.584A1,1,0,0,0,3,62H61a1,1,0,0,0,.909-1.416ZM47,30.025l3.893,11.109-.9,1.2L47.789,39.4a1,1,0,0,0-.8-.4h0a1,1,0,0,0-.8.4L44,42.33l-.887-1.188ZM36.518,36.307,35,38.334,32.789,35.4a1,1,0,0,0-.8-.4h0a1,1,0,0,0-.8.4L29,38.331l-1.517-2.024L32,25.577ZM40.132,11l-.964,1.445a1,1,0,0,0,0,1.11L40.132,15H33V11ZM17,30.026l3.887,11.116L20,42.33,17.811,39.4a1,1,0,0,0-.8-.4h0a1,1,0,0,0-.8.4L14,42.333l-.893-1.2Zm-4.8,13.23,1,1.343a.929.929,0,0,0,.8.4,1,1,0,0,0,.8-.4l2.208-2.934L19.2,44.6a1.036,1.036,0,0,0,1.6,0l.882-1.181.288.824L15.336,60H4.556ZM17.506,60l9.077-21.558L28.2,40.6a1,1,0,0,0,.8.4h0a1,1,0,0,0,.8-.4l2.192-2.932L34.2,40.6a1,1,0,0,0,.8.4h0a1,1,0,0,0,.8-.4l1.617-2.158L46.494,60Zm31.158,0L42.029,44.242l.288-.824L43.2,44.6a1,1,0,0,0,1.6,0l2.192-2.932L49.2,44.6a1,1,0,0,0,.8.4h0a1,1,0,0,0,.8-.4l1-1.339L59.444,60Z"></path><path d="M14,14h2V13a2,2,0,0,0,2-2V10a2,2,0,0,0-2-2H14V7h4V5H16V4H14V5a2,2,0,0,0-2,2V8a2,2,0,0,0,2,2h2v1H12v2h2Z"></path><path d="M22,19a2,2,0,0,0,2,2h2v1H22v2h2v1h2V24a2,2,0,0,0,2-2V21a2,2,0,0,0-2-2H24V18h4V16H26V15H24v1a2,2,0,0,0-2,2Z"></path><path d="M54,12h2V11a2,2,0,0,0,2-2V8a2,2,0,0,0-2-2H54V5h4V3H56V2H54V3a2,2,0,0,0-2,2V6a2,2,0,0,0,2,2h2V9H52v2h2Z"></path><rect x="2" y="6" width="2" height="2"></rect><rect x="6" y="6" width="4" height="2"></rect><rect x="7" y="10" width="2" height="2"></rect><rect x="3" y="10" width="2" height="2"></rect><rect x="14" y="22" width="2" height="2"></rect><rect x="11" y="18" width="2" height="2"></rect><rect x="20" y="6" width="2" height="2"></rect><rect x="23" y="9" width="2" height="2"></rect><rect x="18" y="22" width="2" height="2"></rect><rect x="15" y="18" width="4" height="2"></rect><rect x="46" y="4" width="4" height="2"></rect><rect x="42" y="4" width="2" height="2"></rect><rect x="48" y="8" width="2" height="2"></rect><rect x="38" y="4" width="2" height="2"></rect></g></svg>