<svg xmlns="http://www.w3.org/2000/svg" viewBox="0 0 64 64" x="0px" y="0px"><title>Presentaion business model</title><g data-name="Presentaion business model"><polygon points="54 40 22.414 40 27.414 35 37.414 35 49 23.414 49 27 51 27 51 20 44 20 44 22 47.586 22 36.586 33 26.586 33 21 38.586 21 15 19 15 19 42 54 42 54 40"></polygon><path d="M32,25a1,1,0,0,1-1-1H29a3,3,0,0,0,2,2.816V28h2V26.816A2.993,2.993,0,0,0,32,21a1,1,0,1,1,1-1h2a3,3,0,0,0-2-2.816V16H31v1.184A2.993,2.993,0,0,0,32,23a1,1,0,0,1,0,2Z"></path><path d="M32,31a9,9,0,1,0-9-9A9.011,9.011,0,0,0,32,31Zm0-16a7,7,0,1,1-7,7A7.008,7.008,0,0,1,32,15Z"></path><rect x="8" y="16" width="8" height="2"></rect><rect x="8" y="20" width="2" height="2"></rect><rect x="12" y="20" width="4" height="2"></rect><path d="M62,12V6H36V2H28V6H2v6H4V44H2v6H28v6H21v6H43V56H36V50H62V44H60V12ZM30,4h4V6H30ZM4,8H60v2H4ZM41,58v2H23V58Zm-7-2H30V50h4Zm26-8H4V46H60Zm-2-4H6V12H58Z"></path></g></svg>