<svg xmlns="http://www.w3.org/2000/svg" viewBox="0 0 64 64" x="0px" y="0px"><g data-name="Bell Boy-Avatar-Occupation-Man-Hotel"><circle cx="56" cy="59" r="2"></circle><circle cx="48" cy="59" r="2"></circle><path d="M26,34.5V32.57a10.244,10.244,0,0,1-2,.38V36Z"></path><path d="M42,60V45.88a6.964,6.964,0,0,0-4.91-6.68l-9.9-3.09L24,38.5V60H34V46h2V60ZM28,58H26V56h2Zm0-4H26V52h2Zm0-4H26V48h2Zm0-4H26V44h2Zm0-4H26V40h2Z"></path><path d="M32,22V14.97A4.924,4.924,0,0,1,29,16H17a4.924,4.924,0,0,1-3-1.03V22a9,9,0,0,0,18,0ZM17,19a2,2,0,1,1,2,2A2,2,0,0,1,17,19Zm6,8a4.994,4.994,0,0,1-3.307-1.25l1.323-1.5a3.076,3.076,0,0,0,3.968,0l1.323,1.5A4.994,4.994,0,0,1,23,27Zm4-6a2,2,0,1,1,2-2A2,2,0,0,1,27,21Z"></path><path d="M34,21a2.015,2.015,0,0,0,2-2,2.006,2.006,0,0,0-2-2Z"></path><path d="M49,30a1,1,0,0,0-1,1v5h2V32h4v4h2V31a1,1,0,0,0-1-1Z"></path><path d="M44,53a3.009,3.009,0,0,0,3,3H57a3.009,3.009,0,0,0,3-3V41a3.009,3.009,0,0,0-3-3H47a3.009,3.009,0,0,0-3,3ZM55,41h2V53H55Zm-4,0h2V53H51Zm-4,0h2V53H47Z"></path><path d="M29,14a3.014,3.014,0,0,0,2.83-2H14.17A3.014,3.014,0,0,0,17,14Z"></path><path d="M31,4H15a1,1,0,0,0-1,1v5H32V5A1,1,0,0,0,31,4Z"></path><path d="M22,36V32.95a10.244,10.244,0,0,1-2-.38V34.5Z"></path><path d="M4,60h6V46h2V60H22V38.5l-3.19-2.39L8.91,39.2A6.964,6.964,0,0,0,4,45.88ZM14,44h6v2H14Z"></path><path d="M10,19a2.015,2.015,0,0,0,2,2V17A2.006,2.006,0,0,0,10,19Z"></path></g></svg>