<svg xmlns="http://www.w3.org/2000/svg" viewBox="0 0 64 64" x="0px" y="0px"><g><path d="M37,28.051V25.9A5.009,5.009,0,0,0,41,21V19a3,3,0,0,0,0-6V11.9A5.009,5.009,0,0,0,45,7V3a1,1,0,0,0-1-1H30a4.982,4.982,0,0,0-3.465,1.4A3,3,0,0,0,21,5v6a2.982,2.982,0,0,0,.969,2.194A2.993,2.993,0,0,0,23,19v2a5.009,5.009,0,0,0,4,4.9v2.152A13.009,13.009,0,0,0,15,41V61a1,1,0,0,0,1,1H48a1,1,0,0,0,1-1V41A13.009,13.009,0,0,0,37,28.051Zm3.754,6.578-2.309,1.539a1,1,0,0,0-.152,1.539l1.2,1.2-4.959,3.857,4.4-10.392a1,1,0,0,0-.1-.926l-.837-1.255c.324.06.641.136.954.223Zm-15.2,1.539-2.309-1.539,1.8-4.216c.313-.087.63-.163.954-.223l-.837,1.255a1,1,0,0,0-.1.926l4.4,10.392-4.959-3.857,1.2-1.2a1,1,0,0,0-.152-1.539ZM35,26v2.648L32,32.4l-3-3.75V26Zm-6.927,4.693,2.5,3.126-2.13,1.6-1.32-3.3ZM32,35.25l2.763,2.071L32,43.538l-2.763-6.217Zm3.556.167-2.13-1.6,2.5-3.126.949,1.424ZM42,16a1,1,0,0,1-1,1V15A1,1,0,0,1,42,16ZM23,5a1,1,0,0,1,2,0V7a1,1,0,0,0,2,0,3,3,0,0,1,3-3H43V7a3,3,0,0,1-3,3H26a1,1,0,0,0-1,1,.977.977,0,0,1-.307.713A.959.959,0,0,1,24,12a1,1,0,0,1-1-1ZM22,16a1,1,0,0,1,1-1v2A1,1,0,0,1,22,16Zm3,5V13.819a2.844,2.844,0,0,0,1.107-.692A2.908,2.908,0,0,0,26.83,12H39v9a3,3,0,0,1-3,3H28A3,3,0,0,1,25,21ZM17,41a11,11,0,0,1,5.386-9.443l-1.3,3.049a1,1,0,0,0,.364,1.226l1.986,1.323-1.138,1.138a1,1,0,0,0,.093,1.5L31,46.489V60H23V41H21V60H17ZM47,60H43V41H41V60H33V46.489l8.614-6.7a1,1,0,0,0,.093-1.5l-1.138-1.138,1.986-1.323a1,1,0,0,0,.364-1.226l-1.3-3.049A11,11,0,0,1,47,41Z"></path><path d="M34.29,14.71a1.014,1.014,0,0,0,1.42,0,1.169,1.169,0,0,0,.21-.33.943.943,0,0,0,0-.76,1.032,1.032,0,0,0-.21-.33,1.712,1.712,0,0,0-.15-.12.776.776,0,0,0-.18-.09.646.646,0,0,0-.18-.06,1.009,1.009,0,0,0-.91.27,1.032,1.032,0,0,0-.21.33,1.007,1.007,0,0,0-.011.76A1.523,1.523,0,0,0,34.29,14.71Z"></path><path d="M28.29,14.71a.99.99,0,0,0,1.09.21.9.9,0,0,0,.54-.54A1,1,0,0,0,30,14a1,1,0,1,0-2,0,.838.838,0,0,0,.08.38A1.169,1.169,0,0,0,28.29,14.71Z"></path></g></svg>