<svg xmlns="http://www.w3.org/2000/svg" viewBox="0 0 64 64" x="0px" y="0px"><g data-name="Wifi-Social Network-Smartphone-Mobile-App"><path d="M32.707,36.293l1.415-1.414a3.072,3.072,0,0,0-4.244,0l1.415,1.414A1.023,1.023,0,0,1,32.707,36.293Z"></path><path d="M35.536,33.464,36.95,32.05a7.009,7.009,0,0,0-9.9,0l1.414,1.414A5.008,5.008,0,0,1,35.536,33.464Z"></path><path d="M38.364,30.636l1.414-1.414a11.012,11.012,0,0,0-15.556,0l1.414,1.414A9.01,9.01,0,0,1,38.364,30.636Z"></path><path d="M43,31A11,11,0,1,0,32,42,11.013,11.013,0,0,0,43,31ZM23,31a9,9,0,1,1,9,9A9.011,9.011,0,0,1,23,31Z"></path><path d="M44,2H20a7.008,7.008,0,0,0-7,7V31.15L6.76,41.95A16.875,16.875,0,0,0,4.59,52.33l1.08,9.78,1.99-.22L6.57,52.11a14.956,14.956,0,0,1,1.92-9.16L13,35.15V48.12l-.56.98,1.73,1,5-8.66a2,2,0,0,1,2.73-.73,1.927,1.927,0,0,1,.93,1.21,1.969,1.969,0,0,1-.2,1.52l-3.5,6.06a1.023,1.023,0,0,0-.06.87l1.29,3.21A9.149,9.149,0,0,1,21,56.93v1.3a8.937,8.937,0,0,1-.66,3.39l1.85.76c.05-.13.09-.25.13-.38H44a7.008,7.008,0,0,0,7-7V9A7.008,7.008,0,0,0,44,2Zm5,53a5,5,0,0,1-5,5H22.85A11.529,11.529,0,0,0,23,58.23v-1.3A11.075,11.075,0,0,0,22.6,54H49Zm0-3H21.88l-.77-1.92,3.26-5.64a4,4,0,0,0-4.5-5.87,3.948,3.948,0,0,0-2.43,1.87L15,44.66V12H49Zm0-42H15V9a5,5,0,0,1,5-5H44a5,5,0,0,1,5,5Z"></path><rect x="25" y="6" width="2" height="2"></rect><rect x="29" y="6" width="6" height="2"></rect><rect x="30" y="56" width="4" height="2"></rect><path d="M22,14H18a1,1,0,0,0-1,1v4h2V16h3Z"></path><rect x="17" y="21" width="2" height="2"></rect></g></svg>