<svg xmlns="http://www.w3.org/2000/svg" viewBox="0 0 64 64" x="0px" y="0px"><g><rect x="12" y="24" width="2" height="2"></rect><path d="M60,22a8.011,8.011,0,0,0-8-8,1,1,0,0,1-1-1,5,5,0,0,0-5-5,4.946,4.946,0,0,0-3.58,1.52,1.018,1.018,0,0,1-.86.29.982.982,0,0,1-.74-.52,9.992,9.992,0,0,0-18.73,3.45.975.975,0,0,1-.65.82.987.987,0,0,1-1.02-.21A5,5,0,0,0,12,17a1.1,1.1,0,0,1-.35.8,1.056,1.056,0,0,1-.81.27A4.842,4.842,0,0,0,10,18,5.992,5.992,0,0,0,6,28.46V24H8v5.65A6.049,6.049,0,0,0,10,30h2V28h2v2h5V28.53a1,1,0,0,1,.55-.9l12-6a1.017,1.017,0,0,1,.9,0l12,6a1,1,0,0,1,.55.9V30h5V28h2v2a7.979,7.979,0,0,0,4-1.08V24h2v3.27A7.954,7.954,0,0,0,60,22ZM45,14H43V12h2Zm4,0H47V12h2Zm7,8a4,4,0,0,0-4-4V16a6,6,0,0,1,6,6Z"></path><path d="M32,28.12l-7,3.5v4.73a10.94,10.94,0,0,0,5.17,9.33L32,46.82l1.83-1.14A10.927,10.927,0,0,0,39,36.35V31.62ZM31,36h2a3,3,0,0,1,0,6v1H31V42a3.009,3.009,0,0,1-3-3h2a1,1,0,0,0,1,1h2a1,1,0,0,0,0-2H31a3,3,0,0,1,0-6V31h2v1a3.009,3.009,0,0,1,3,3H34a1,1,0,0,0-1-1H31a1,1,0,0,0,0,2Z"></path><path d="M32,23.65l-11,5.5v7.2a14.933,14.933,0,0,0,7.05,12.72L32,51.54l3.95-2.47A14.933,14.933,0,0,0,43,36.35v-7.2Zm9,12.7a12.911,12.911,0,0,1-6.11,11.02l-2.36,1.48a1.011,1.011,0,0,1-1.06,0l-2.36-1.48A12.911,12.911,0,0,1,23,36.35V31a.977.977,0,0,1,.55-.89l8-4a.956.956,0,0,1,.9,0l8,4A.977.977,0,0,1,41,31Z"></path><path d="M53,38a2,2,0,0,0-1-1.721V32H50v4.279A2,2,0,1,0,53,38Z"></path><path d="M11,45a2.017,2.017,0,0,0-.512.074L8,42.586V31H6V43a1,1,0,0,0,.293.707l2.781,2.781A2,2,0,1,0,11,45Z"></path><path d="M14,36.279V32H12v4.279a2,2,0,1,0,2,0Z"></path><path d="M56,31V42.586l-2.488,2.488a2.033,2.033,0,1,0,1.414,1.414l2.781-2.781A1,1,0,0,0,58,43V31Z"></path><rect x="50" y="24" width="2" height="2"></rect><rect x="58" y="50" width="2" height="2"></rect><polygon points="47 52 45 52 45 54 43 54 43 56 45 56 45 58 47 58 47 56 49 56 49 54 47 54 47 52"></polygon><rect x="4" y="50" width="2" height="2"></rect><polygon points="19 52 17 52 17 54 15 54 15 56 17 56 17 58 19 58 19 56 21 56 21 54 19 54 19 52"></polygon><path d="M6,57.279V54H4v3.279a2,2,0,1,0,2,0Z"></path><path d="M60,57.279V54H58v3.279a2,2,0,1,0,2,0Z"></path></g></svg>