<svg xmlns="http://www.w3.org/2000/svg" viewBox="0 0 64 64" x="0px" y="0px"><g><path d="M32.77,34.36,28,28.64V21a1,1,0,0,0-1-1H15a1,1,0,0,0-1,1v7.64L9.23,34.36A1,1,0,0,0,9,35V59a3.009,3.009,0,0,0,3,3H30a3.009,3.009,0,0,0,3-3V35A1,1,0,0,0,32.77,34.36ZM16,22H26v6H16ZM31,59a1,1,0,0,1-1,1H12a1,1,0,0,1-1-1V54H31Zm0-7H11V40H31Zm0-14H11V35.36L15.47,30H26.53L31,35.36Z"></path><path d="M54,14H47V8h4a1,1,0,0,0,1-1V3a1,1,0,0,0-1-1H37a1,1,0,0,0-1,1V7a1,1,0,0,0,1,1h4v6H34a1,1,0,0,0-1,1v4a1,1,0,0,0,1,1h2V43a1,1,0,0,0,1,1h2v3a1,1,0,0,0,1,1h1V61a1.008,1.008,0,0,0,.71.96A.967.967,0,0,0,42,62a.984.984,0,0,0,.83-.45l4-6A.967.967,0,0,0,47,55V48h1a1,1,0,0,0,1-1V44h2a1,1,0,0,0,1-1V20h2a1,1,0,0,0,1-1V15A1,1,0,0,0,54,14ZM38,6V4H50V6Zm7,2v6H43V8Zm0,46.7-2,3V48h2ZM47,46H41V44h6Zm3-24H48v2h2v2H48v2h2v2H46v2h4v2H48v2h2v2H48v2h2v2H38V20H50Zm3-4H35V16H53Z"></path></g></svg>