<svg xmlns="http://www.w3.org/2000/svg" viewBox="0 0 64 64" x="0px" y="0px"><g><path d="M39.694,51.712A.978.978,0,0,0,40,51a1,1,0,0,0-1-1H25a.952.952,0,0,0-.693.288A.975.975,0,0,0,24,51a1,1,0,0,0,1,1H39A.957.957,0,0,0,39.694,51.712Z"></path><path d="M43.927,51.668a1,1,0,0,1,1.137.063l3.824,2.977,5.82-5.82L51.73,45.064a1,1,0,0,1-.063-1.136,22.662,22.662,0,0,0,2.671-6.456,1,1,0,0,1,.848-.754l4.814-.6V27.883l-4.814-.6a1,1,0,0,1-.848-.754,22.662,22.662,0,0,0-2.671-6.456,1,1,0,0,1,.063-1.136l2.978-3.824-5.82-5.82-3.824,2.977a1,1,0,0,1-1.135.064,22.726,22.726,0,0,0-6.456-2.672,1,1,0,0,1-.755-.847L36.117,4H27.883l-.6,4.814a1,1,0,0,1-.755.847,22.726,22.726,0,0,0-6.456,2.672,1,1,0,0,1-1.135-.064L15.112,9.292l-5.82,5.82,2.978,3.824a1,1,0,0,1,.063,1.136,22.662,22.662,0,0,0-2.671,6.456,1,1,0,0,1-.848.754L4,27.883v8.234l4.814.6a1,1,0,0,1,.848.754,22.662,22.662,0,0,0,2.671,6.456,1,1,0,0,1-.063,1.136L9.292,48.888l5.82,5.82,3.824-2.977a1,1,0,0,1,1.137-.063,21.845,21.845,0,0,0,2.8,1.441A2.985,2.985,0,0,1,22,51a2.935,2.935,0,0,1,.893-2.126A2.846,2.846,0,0,1,24,48.181V46a17,17,0,1,1,16,0v2.181A3,3,0,0,1,42,51a2.939,2.939,0,0,1-.883,2.115A21.838,21.838,0,0,0,43.927,51.668ZM52,31h2v2H52ZM12,33H10V31h2Zm5.15,12.435,1.414,1.414L17.15,48.263l-1.414-1.414Zm0-26.87-1.414-1.414,1.414-1.414,1.414,1.414ZM33,12H31V10h2Zm13.85,6.565-1.414-1.414,1.414-1.414,1.414,1.414Zm0,26.87,1.414,1.414L46.85,48.263l-1.414-1.414Z"></path><path d="M39,55a1,1,0,0,0-1-1H26a1,1,0,0,0,0,2H38A1,1,0,0,0,39,55Z"></path><polygon points="36.367 58 27.633 58 27.884 60 36.116 60 36.367 58"></polygon><polygon points="24.48 29 31 30.956 37.52 29 31 27.044 24.48 29"></polygon><path d="M47,31A15,15,0,1,0,25.437,44.491a1,1,0,0,1,.563.9V48H38V45.39a1,1,0,0,1,.562-.9A14.89,14.89,0,0,0,47,31Zm-9,4a3,3,0,0,1,2-2.816v-1.84l-3,.9V37a1,1,0,0,1-1,1H26a1,1,0,0,1-1-1V31.244l-4.287-1.286a1,1,0,0,1,0-1.916l10-3a1,1,0,0,1,.574,0l10,3A1,1,0,0,1,42,29v3.184A2.995,2.995,0,1,1,38,35Z"></path><path d="M31,33a1,1,0,0,1-.287-.042L27,31.844V36h8V31.844l-3.713,1.114A1,1,0,0,1,31,33Z"></path><circle cx="41" cy="35" r="1"></circle></g></svg>