<svg xmlns="http://www.w3.org/2000/svg" viewBox="0 0 48 48" x="0px" y="0px"><g><path d="M24,34a1,1,0,0,0-1,1v6a1,1,0,0,0,2,0V35A1,1,0,0,0,24,34Z"></path><path d="M24,28a6,6,0,1,0-6-6A6.006,6.006,0,0,0,24,28Zm0-10v2a2,2,0,0,0-2,2H20A4,4,0,0,1,24,18Z"></path><path d="M9,46H39a1,1,0,0,0,1-1V11H34a3,3,0,0,1-3-3V2H9A1,1,0,0,0,8,3V45A1,1,0,0,0,9,46ZM32,22a8.008,8.008,0,0,1-7,7.931v2.253A3,3,0,0,1,27,35v6a3,3,0,0,1-6,0V35a3,3,0,0,1,2-2.816V29.931A8,8,0,1,1,32,22ZM16,6h4V8H16ZM12,6h2V8H12Zm0,4h8v2H12Z"></path><path d="M38.586,9,33,3.414V8a1,1,0,0,0,1,1Z"></path></g></svg>