<svg xmlns="http://www.w3.org/2000/svg" viewBox="0 0 64 64" x="0px" y="0px"><g><path d="M12,46a4,4,0,1,0,4,4A4,4,0,0,0,12,46Zm1,5H11V49h2Z"></path><path d="M49,46a4,4,0,1,0,4,4A4,4,0,0,0,49,46Zm1,5H48V49h2Z"></path><path d="M49.923,10.219A1.007,1.007,0,0,0,49.3,10H5a1,1,0,0,0-1,1V22H5.72l-.69-2.757,1.94-.486L7.78,22h3.94l-.69-2.757,1.94-.486L13.78,22h3.94l-.69-2.757,1.94-.486L19.78,22h3.94l-.69-2.757,1.94-.486L25.78,22h3.94l-.69-2.757,1.94-.486L31.78,22h3.94l-.69-2.757,1.94-.486L37.78,22h3.94l-.69-2.757,1.94-.486L43.78,22h3.94l-.69-2.757,1.94-.486L49.78,22H54V13.961a1,1,0,0,0-.376-.781Z"></path><path d="M59,49a1,1,0,0,0,1-1V47H57V45h3V43H56a2,2,0,0,1-2-2V39a2,2,0,0,1,2-2h4V35.108c0-.037-.013-.072-.015-.108H4V49H6.09a5.993,5.993,0,0,1,11.82,0H43.09a5.993,5.993,0,0,1,11.82,0ZM52,39H48V37h4Z"></path><polygon points="48 33 59.267 33 54.403 24 48 24 48 33"></polygon><rect x="56" y="39" width="4" height="2"></rect><polygon points="43.78 33 46 33 46 24 4 24 4 33 5.72 33 5.03 30.243 6.97 29.757 7.78 33 11.72 33 11.03 30.243 12.97 29.757 13.78 33 17.72 33 17.03 30.243 18.97 29.757 19.78 33 23.72 33 23.03 30.243 24.97 29.757 25.78 33 29.72 33 29.03 30.243 30.97 29.757 31.78 33 35.72 33 35.03 30.243 36.97 29.757 37.78 33 41.72 33 41.03 30.243 42.97 29.757 43.78 33"></polygon></g></svg>