<svg xmlns="http://www.w3.org/2000/svg" viewBox="0 0 64 64" x="0px" y="0px"><g><path d="M59,9H5a3,3,0,0,0-3,3V52a3,3,0,0,0,3,3H59a3,3,0,0,0,3-3V12A3,3,0,0,0,59,9Zm1,43a1,1,0,0,1-1,1H5a1,1,0,0,1-1-1V12a1,1,0,0,1,1-1H59a1,1,0,0,1,1,1Z"></path><path d="M55,17H53a2,2,0,0,0-2,2V45a2,2,0,0,0,2,2h2a2,2,0,0,0,2-2V19A2,2,0,0,0,55,17Zm0,28H53V19h2Z"></path><path d="M42.866,36.285l-12-20.785a1,1,0,0,0-1.366-.366A7.009,7.009,0,0,0,26.937,24.7l9,15.589a1,1,0,0,0,1.367.366l.866-.5,4.5,7.793a3,3,0,1,0,5.2-3Zm-5.7,2.133L28.67,23.7a5.007,5.007,0,0,1,1.015-6.243L40.634,36.418ZM46.234,46.7a1,1,0,0,1-1.832.241l-4.5-7.794,1.732-1,4.5,7.794A.992.992,0,0,1,46.234,46.7Z"></path><path d="M22,30a6.043,6.043,0,0,0-2.011.35A6.077,6.077,0,0,0,15,30.81a6,6,0,1,0,.008,10.375A5.907,5.907,0,0,0,18,42a6.056,6.056,0,0,0,2-.346A6,6,0,1,0,22,30ZM8,36a4,4,0,1,1,4,4A4,4,0,0,1,8,36Zm8.667,3.763a5.977,5.977,0,0,0,0-7.524,4.1,4.1,0,0,1,2.927.085,4.011,4.011,0,0,1,.012,7.346A4.091,4.091,0,0,1,16.667,39.763Zm5.847.185a5.984,5.984,0,0,0,0-7.9,3.978,3.978,0,0,1,0,7.9Z"></path></g></svg>