<svg xmlns="http://www.w3.org/2000/svg" viewBox="0 0 64 64" x="0px" y="0px"><g><rect x="54" y="28" width="2" height="4"></rect><rect x="54" y="34" width="2" height="2"></rect><rect x="58" y="31" width="2" height="6"></rect><rect x="58" y="39" width="2" height="2"></rect><rect x="8" y="28" width="2" height="4"></rect><rect x="8" y="34" width="2" height="2"></rect><rect x="4" y="31" width="2" height="6"></rect><rect x="4" y="39" width="2" height="2"></rect><path d="M7,17H9a5,5,0,0,0,4,8h0a5,5,0,0,0,4,8h9a1,1,0,0,0,.707-.293l.6-.6a12.815,12.815,0,0,0,9.39,0l.6.6A1,1,0,0,0,38,33h9a5,5,0,0,0,4-8h0a5,5,0,0,0,4-8h2A5,5,0,1,0,57,7H41a1,1,0,0,0-.707.293L38.7,8.883a12.872,12.872,0,0,0-13.406,0l-1.59-1.59A1,1,0,0,0,23,7H7A5,5,0,0,0,7,17ZM41.414,9H57a3,3,0,0,1,0,6H51a1,1,0,0,0,0,2,3,3,0,1,1,0,6H47a1,1,0,0,0,0,2,3,3,0,1,1,0,6H38.9a12.966,12.966,0,0,0,1.46-20.943ZM43,20A11,11,0,1,1,32,9,11.013,11.013,0,0,1,43,20ZM4.872,9.882A3.018,3.018,0,0,1,7,9H22.586l1.057,1.057A12.966,12.966,0,0,0,25.1,31H17a3,3,0,0,1,0-6,1,1,0,0,0,0-2H13a3,3,0,0,1,0-6,1,1,0,0,0,0-2H7A3,3,0,0,1,4.872,9.882Z"></path><path d="M58,52a6.006,6.006,0,0,0-6-6c-.113,0-.226,0-.338.01A6,6,0,0,0,40,48h2a4,4,0,0,1,7.935-.707,1,1,0,0,0,1.208.8A3.848,3.848,0,0,1,52,48a4,4,0,0,1,0,8H12a4,4,0,0,1,0-8,3.848,3.848,0,0,1,.857.095,1.007,1.007,0,0,0,.776-.142,1,1,0,0,0,.432-.66A4,4,0,0,1,22,48h2a6,6,0,0,0-11.662-1.99C12.226,46,12.113,46,12,46A5.99,5.99,0,0,0,7.54,56H2v2H62V56H56.46A5.969,5.969,0,0,0,58,52Z"></path><rect x="31" y="40" width="2" height="2"></rect><path d="M32,35a6.006,6.006,0,0,0-6,6c0,4.364,5.077,9.491,5.293,9.707a1,1,0,0,0,1.414,0C32.923,50.491,38,45.364,38,41A6.006,6.006,0,0,0,32,35Zm0,13.536C30.459,46.8,28,43.5,28,41a4,4,0,0,1,8,0C36,43.5,33.541,46.8,32,48.536Z"></path><rect x="23.515" y="19" width="16.971" height="2" transform="translate(-4.77 28.485) rotate(-45)"></rect><path d="M36,21a3,3,0,1,0,3,3A3,3,0,0,0,36,21Zm0,4a1,1,0,1,1,1-1A1,1,0,0,1,36,25Z"></path><path d="M28,19a3,3,0,1,0-3-3A3,3,0,0,0,28,19Zm0-4a1,1,0,1,1-1,1A1,1,0,0,1,28,15Z"></path></g></svg>