<svg xmlns="http://www.w3.org/2000/svg" viewBox="0 0 64 64" x="0px" y="0px"><g data-name="Search"><path d="M25,6A19,19,0,1,0,44,25,19.021,19.021,0,0,0,25,6Zm0,36A17,17,0,1,1,42,25,17.019,17.019,0,0,1,25,42Z"></path><path d="M60.648,53.577,49.334,42.264a1,1,0,0,0-1.414,0l-.706.706-3.978-3.978a23.036,23.036,0,1,0-4.244,4.244l3.978,3.978-.706.706a1,1,0,0,0,0,1.414L53.577,60.648a5,5,0,1,0,7.071-7.071ZM4,25A21,21,0,1,1,25,46,21.023,21.023,0,0,1,4,25ZM41.947,40.531,45.8,44.38,44.38,45.8l-3.849-3.849Q41.269,41.271,41.947,40.531Zm17.287,18.7a3.072,3.072,0,0,1-4.243,0L44.385,48.627l4.242-4.242L59.234,54.991a3,3,0,0,1,0,4.243Z"></path><path d="M32,30H26V28h2a5.006,5.006,0,0,0,5-5V21a1,1,0,0,0-1-1H30a4.982,4.982,0,0,0-4,2.031V20.414l1.121-1.121a5.006,5.006,0,0,0,0-7.071l-1.414-1.414a1,1,0,0,0-1.414,0l-1.414,1.414a5.006,5.006,0,0,0,0,7.071L24,20.414v1.617A4.982,4.982,0,0,0,20,20H18a1,1,0,0,0-1,1v2a5.006,5.006,0,0,0,5,5h2v2H18a2.992,2.992,0,0,0-.812,5.874l.592,2.369,1.94-.486L19.281,36H30.719l-.439,1.757,1.94.486.592-2.369A2.992,2.992,0,0,0,32,30Zm-5-5a3,3,0,0,1,3-3h1v1a3,3,0,0,1-3,3H27Zm-4,1H22a3,3,0,0,1-3-3V22h1a3,3,0,0,1,3,3Zm1.293-12.364L25,12.929l.707.707a3.005,3.005,0,0,1,0,4.243L25,18.586l-.707-.707A3.005,3.005,0,0,1,24.293,13.636ZM32,34H18a1,1,0,0,1,0-2H32a1,1,0,0,1,0,2Z"></path></g></svg>