<svg xmlns="http://www.w3.org/2000/svg" viewBox="0 0 64 64" x="0px" y="0px"><g data-name="Phone Call-Contact-Phone Call-Contact-Communication-Smartphone-Application-Communication"><path d="M37.74,32.15,35.5,29.91l-1.08,1.08c0,.01,0,.01-.01.01l2.07,2.07A7.528,7.528,0,0,0,37.74,32.15Z"></path><path d="M29.01,25.58l1.08-1.08-2.24-2.23a7.066,7.066,0,0,0-.92,1.25L29,25.59C29,25.58,29,25.58,29.01,25.58Z"></path><path d="M34.43,33.85l-1.97-1.98a2.688,2.688,0,0,1-1.05-.13,4.987,4.987,0,0,1-3.15-3.15,2.688,2.688,0,0,1-.13-1.05l-1.98-1.97a7.212,7.212,0,0,0-.09,2.37,7.043,7.043,0,0,0,6,6A7.212,7.212,0,0,0,34.43,33.85Z"></path><path d="M50,54H14v2a4,4,0,0,0,4,4H46a4,4,0,0,0,4-4ZM33,58H31V56h2Z"></path><rect x="30" y="42" width="4" height="4"></rect><rect x="20" y="42" width="4.001" height="4"></rect><path d="M50,8a4,4,0,0,0-4-4H18a4,4,0,0,0-4,4v2H50ZM27,8H25V6h2Zm8,0H29V6h6Z"></path><path d="M50,12H14V52H50ZM35,16a9.01,9.01,0,0,1,9,9H42a7.008,7.008,0,0,0-7-7Zm0,4a5.006,5.006,0,0,1,5,5H38a3,3,0,0,0-3-3ZM26,46a2,2,0,0,1-2,2H20a2,2,0,0,1-2-2V42a2,2,0,0,1,2-2h4a2,2,0,0,1,2,2ZM24.08,28.19a8.989,8.989,0,0,1,3.15-8.09,1.011,1.011,0,0,1,1.35.06l3.63,3.63a1.008,1.008,0,0,1,0,1.42l-1.79,1.78a.97.97,0,0,0-.27.96,3.041,3.041,0,0,0,1.9,1.9.97.97,0,0,0,.96-.27l1.78-1.79a1.008,1.008,0,0,1,1.42,0l3.63,3.63a1.011,1.011,0,0,1,.06,1.35A8.972,8.972,0,0,1,32.99,36a9.356,9.356,0,0,1-1.18-.08A9.058,9.058,0,0,1,24.08,28.19ZM36,46a2,2,0,0,1-2,2H30a2,2,0,0,1-2-2V42a2,2,0,0,1,2-2h4a2,2,0,0,1,2,2Zm10,0a2,2,0,0,1-2,2H40a2,2,0,0,1-2-2V42a2,2,0,0,1,2-2h4a2,2,0,0,1,2,2Z"></path><rect x="40" y="42" width="4" height="4"></rect></g></svg>