<svg xmlns="http://www.w3.org/2000/svg" data-name="Layer 38" viewBox="0 0 64 64" x="0px" y="0px"><g><path d="M37,51A19,19,0,1,0,18,32,19.021,19.021,0,0,0,37,51Zm9-19a9,9,0,1,1-9-9A9.011,9.011,0,0,1,46,32ZM22,32H20a17.036,17.036,0,0,1,.536-4.25l1.936.5A15.067,15.067,0,0,0,22,32Zm-.764-6.375A16.936,16.936,0,0,1,37,15v2a14.944,14.944,0,0,0-13.91,9.375Z"></path><circle cx="37" cy="32" r="2"></circle><path d="M30,32a7,7,0,1,0,7-7A7.008,7.008,0,0,0,30,32Zm11,0a4,4,0,1,1-4-4A4,4,0,0,1,41,32Z"></path><path d="M60,55V9H14V55ZM37,11A21,21,0,1,1,16,32,21.023,21.023,0,0,1,37,11Z"></path><rect x="4" y="9" width="8" height="46"></rect></g></svg>