<svg xmlns="http://www.w3.org/2000/svg" viewBox="0 0 64 64" x="0px" y="0px"><g><path d="M32,46A21,21,0,1,0,11,25,21.023,21.023,0,0,0,32,46Zm0-4a16.843,16.843,0,0,1-7.438-1.709l.876-1.8a15.1,15.1,0,0,0,13.124,0l.876,1.8A16.843,16.843,0,0,1,32,42Zm-3.249-4.41.5-1.936a11.164,11.164,0,0,0,5.5,0l.5,1.936a13.078,13.078,0,0,1-6.5,0ZM41.563,10.943a16.888,16.888,0,0,1,7.4,13l-2,.124A14.9,14.9,0,0,0,40.437,12.6Zm-.9,4.368A12.941,12.941,0,0,1,44.59,21.75l-1.936.5A10.961,10.961,0,0,0,39.333,16.8ZM32,7a6.006,6.006,0,0,1,6,6,23.965,23.965,0,0,1-2.3,8.67,4.97,4.97,0,0,1,1.029,1.788A23.908,23.908,0,0,1,45.39,25.8a6,6,0,0,1-6,10.392,23.659,23.659,0,0,1-6.328-6.315,4.8,4.8,0,0,1-2.124,0,23.654,23.654,0,0,1-6.33,6.316,6,6,0,0,1-6-10.393,23.908,23.908,0,0,1,8.659-2.346A4.97,4.97,0,0,1,28.3,21.67,23.965,23.965,0,0,1,26,13,6.006,6.006,0,0,1,32,7ZM21.346,22.25l-1.936-.5a12.948,12.948,0,0,1,3.991-6.5l1.323,1.5A10.956,10.956,0,0,0,21.346,22.25ZM23.5,10.275l1,1.731a15.079,15.079,0,0,0-7.385,11.118l-1.984-.248A17.088,17.088,0,0,1,23.5,10.275Z"></path><path d="M32,20a4.957,4.957,0,0,1,2.065.459A22.34,22.34,0,0,0,36,13a4,4,0,0,0-8,0,22.34,22.34,0,0,0,1.935,7.459A4.957,4.957,0,0,1,32,20Z"></path><path d="M27.048,25.479a22.3,22.3,0,0,0-7.438,2.057,4,4,0,0,0,4,6.928,22.032,22.032,0,0,0,5.484-5.412A4.979,4.979,0,0,1,27.048,25.479Z"></path><circle cx="32" cy="25" r="3"></circle><path d="M34.906,29.052a22.038,22.038,0,0,0,5.482,5.411,4,4,0,1,0,4-6.927,22.3,22.3,0,0,0-7.438-2.057A4.979,4.979,0,0,1,34.906,29.052Z"></path><path d="M15,60H27V54H18a3.009,3.009,0,0,0-3,3Z"></path><rect x="29" y="54" width="6" height="2"></rect><rect x="29" y="58" width="6" height="2"></rect><path d="M49,57a3.009,3.009,0,0,0-3-3H37v6H49Z"></path><path d="M38,47.2a22.9,22.9,0,0,1-12,0V52H38Z"></path></g></svg>