<svg xmlns="http://www.w3.org/2000/svg" viewBox="0 0 64 64" x="0px" y="0px"><g><circle cx="52" cy="22" r="3"></circle><circle cx="12" cy="22" r="3"></circle><path d="M59.483,18.124A.557.557,0,0,0,60,17.57a.565.565,0,0,0-.57-.57H40.941A8.935,8.935,0,0,1,41,18a9.073,9.073,0,0,1-.173,1.748Z"></path><circle cx="32" cy="20" r="1"></circle><path d="M32,11a7,7,0,1,0,7,7A7.009,7.009,0,0,0,32,11Zm0,12a3,3,0,1,1,3-3A3,3,0,0,1,32,23Zm3.758-7.03L32,15.031l-3.758.939-.484-1.94,4-1a.968.968,0,0,1,.484,0l4,1Z"></path><path d="M4.517,18.124l18.656,1.624A9.073,9.073,0,0,1,23,18a8.935,8.935,0,0,1,.059-1H4.57a.565.565,0,0,0-.57.57A.557.557,0,0,0,4.517,18.124Z"></path><path d="M32,9a8.979,8.979,0,0,1,1.769.177l-.511-4.072a1.269,1.269,0,0,0-2.516,0l-.511,4.074A8.964,8.964,0,0,1,32,9Z"></path><rect x="15" y="38" width="2" height="2"></rect><path d="M15,48H25V42H23v1a.987.987,0,0,1-.62.92A.838.838,0,0,1,22,44a1.007,1.007,0,0,1-.71-.29L20,42.41l-1.29,1.3a1,1,0,0,1-1.09.21A.987.987,0,0,1,17,43V42H15Z"></path><path d="M27,60H37V54H35v1a.987.987,0,0,1-.62.92A.838.838,0,0,1,34,56a1.007,1.007,0,0,1-.71-.29L32,54.41l-1.29,1.3a1,1,0,0,1-1.09.21A.987.987,0,0,1,29,55V54H27Z"></path><path d="M32.71,52.29l.29.3V50H31v2.59l.29-.3a1.014,1.014,0,0,1,1.42,0Z"></path><rect x="27" y="50" width="2" height="2"></rect><rect x="39" y="50" width="2" height="2"></rect><rect x="35" y="50" width="2" height="2"></rect><path d="M39,60H49V54H47v1a.987.987,0,0,1-.62.92A.838.838,0,0,1,46,56a1.007,1.007,0,0,1-.71-.29L44,54.41l-1.29,1.3a1,1,0,0,1-1.09.21A.987.987,0,0,1,41,55V54H39Z"></path><rect x="47" y="50" width="2" height="2"></rect><path d="M43.29,52.29a1.014,1.014,0,0,1,1.42,0l.29.3V50H43v2.59Z"></path><path d="M32.71,40.29l.29.3V38H31v2.59l.29-.3a1.014,1.014,0,0,1,1.42,0Z"></path><rect x="15" y="50" width="2" height="2"></rect><path d="M19.29,52.29a1.014,1.014,0,0,1,1.42,0l.29.3V50H19v2.59Z"></path><path d="M15,60H25V54H23v1a.987.987,0,0,1-.62.92A.838.838,0,0,1,22,56a1.007,1.007,0,0,1-.71-.29L20,54.41l-1.29,1.3a1,1,0,0,1-1.09.21A.987.987,0,0,1,17,55V54H15Z"></path><rect x="23" y="50" width="2" height="2"></rect><rect x="35" y="38" width="2" height="2"></rect><path d="M37,42H35v1a.987.987,0,0,1-.62.92A.838.838,0,0,1,34,44a1.007,1.007,0,0,1-.71-.29L32,42.41l-1.29,1.3a1,1,0,0,1-1.09.21A.987.987,0,0,1,29,43V42H27v6H37Z"></path><path d="M19.29,40.29a1.014,1.014,0,0,1,1.42,0l.29.3V38H19v2.59Z"></path><rect x="27" y="38" width="2" height="2"></rect><rect x="23" y="38" width="2" height="2"></rect></g></svg>