<svg xmlns="http://www.w3.org/2000/svg" viewBox="0 0 64 64" x="0px" y="0px"><g><path d="M51,18H44V14a12,12,0,0,0-24,0v4H13a1,1,0,0,0-1,1V57a5.006,5.006,0,0,0,5,5H47a5.006,5.006,0,0,0,5-5V19A1,1,0,0,0,51,18ZM22,14a10,10,0,0,1,20,0v8H40V14a8,8,0,0,0-16,0v8H22Zm16,4H26V14a6,6,0,0,1,12,0ZM50,57a3,3,0,0,1-3,3H17a3,3,0,0,1-3-3V20h6v3a1,1,0,0,0,1,1h4a1,1,0,0,0,1-1V20H38v3a1,1,0,0,0,1,1h4a1,1,0,0,0,1-1V20h6Z"></path><path d="M36.364,35.565,30,41.929l-2.121-2.121a1,1,0,0,0-1.414,0l-2.829,2.828a1,1,0,0,0,0,1.414l4.243,4.243a3,3,0,0,0,4.242,0l8.485-8.485a1,1,0,0,0,0-1.414l-2.828-2.829A1,1,0,0,0,36.364,35.565ZM30.707,46.879a1,1,0,0,1-1.414,0l-3.536-3.536,1.415-1.414,2.121,2.121a1,1,0,0,0,1.414,0l6.364-6.363L38.485,39.1Z"></path><path d="M32,29A13,13,0,1,0,45,42,13.015,13.015,0,0,0,32,29Zm0,24A11,11,0,1,1,43,42,11.013,11.013,0,0,1,32,53Z"></path></g></svg>