<svg xmlns="http://www.w3.org/2000/svg" viewBox="0 0 64 64" x="0px" y="0px"><title>CPU_1</title><g><path d="M59,2H5A3,3,0,0,0,2,5V59a3,3,0,0,0,3,3H59a3,3,0,0,0,3-3V5A3,3,0,0,0,59,2Zm1,57a1,1,0,0,1-1,1H5a1,1,0,0,1-1-1V5A1,1,0,0,1,5,4H59a1,1,0,0,1,1,1Z"></path><path d="M42,20H22a2,2,0,0,0-2,2v3h2V22H42v3h2V22A2,2,0,0,0,42,20Z"></path><path d="M52,41h5V39H52V38a2,2,0,0,0-2-2H48V28h2a2,2,0,0,0,2-2V25h5V23H52V22a2,2,0,0,0-2-2H48V19a3,3,0,0,0-3-3H44V14a2,2,0,0,0-2-2H41V7H39v5H38a2,2,0,0,0-2,2v2H28V14a2,2,0,0,0-2-2H25V7H23v5H22a2,2,0,0,0-2,2v2H19a3,3,0,0,0-3,3v1H14a2,2,0,0,0-2,2v1H7v2h5v1a2,2,0,0,0,2,2h2v8H14a2,2,0,0,0-2,2v1H7v2h5v1a2,2,0,0,0,2,2h2v1a3,3,0,0,0,3,3h1v2a2,2,0,0,0,2,2h1v5h2V52h1a2,2,0,0,0,2-2V48h8v2a2,2,0,0,0,2,2h1v5h2V52h1a2,2,0,0,0,2-2V48h1a3,3,0,0,0,3-3V44h2a2,2,0,0,0,2-2ZM50,22l0,4H48V22ZM38,14h4v2H38ZM22,14h4v2H22ZM14,26V22h2v4Zm0,16,0-4h2v4Zm12,8H22V48h4Zm16,0H38V48h4Zm4-5a1,1,0,0,1-1,1H19a1,1,0,0,1-1-1V19a1,1,0,0,1,1-1H45a1,1,0,0,1,1,1Zm4-3H48V38h2Z"></path><path d="M55,6a3,3,0,1,0,3,3A3,3,0,0,0,55,6Zm0,4a1,1,0,1,1,1-1A1,1,0,0,1,55,10Z"></path><path d="M9,12A3,3,0,1,0,6,9,3,3,0,0,0,9,12ZM9,8A1,1,0,1,1,8,9,1,1,0,0,1,9,8Z"></path><path d="M55,52a3,3,0,1,0,3,3A3,3,0,0,0,55,52Zm0,4a1,1,0,1,1,1-1A1,1,0,0,1,55,56Z"></path><path d="M9,52a3,3,0,1,0,3,3A3,3,0,0,0,9,52Zm0,4a1,1,0,1,1,1-1A1,1,0,0,1,9,56Z"></path></g></svg>