<svg xmlns="http://www.w3.org/2000/svg" viewBox="0 0 64 64" x="0px" y="0px"><g data-name="Real Estate-Building-Smart City-Communication-Internet"><path d="M53,60V44h1a1,1,0,0,0,1-1V39a1,1,0,0,0-1-1H43V36h1a1,1,0,0,0,1-1V31a1,1,0,0,0-1-1H20a1,1,0,0,0-1,1v4a1,1,0,0,0,1,1h1v2H10a1,1,0,0,0-1,1v4a1,1,0,0,0,1,1h1V60H6v2H58V60ZM21,60H13V44h8Zm0-18H11V40H21Zm0-10H43v2H21ZM34,60H30V56h4Zm7,0H36V56h1V54H27v2h1v4H23V36H41Zm10,0H43V44h8ZM43,42V40H53v2Z"></path><rect x="25" y="38" width="2" height="2"></rect><rect x="29" y="38" width="2" height="2"></rect><rect x="33" y="38" width="2" height="2"></rect><rect x="37" y="38" width="2" height="2"></rect><rect x="25" y="42" width="2" height="2"></rect><rect x="29" y="42" width="2" height="2"></rect><rect x="33" y="42" width="2" height="2"></rect><rect x="37" y="42" width="2" height="2"></rect><rect x="25" y="46" width="2" height="2"></rect><rect x="29" y="46" width="2" height="2"></rect><rect x="33" y="46" width="2" height="2"></rect><rect x="37" y="46" width="2" height="2"></rect><rect x="25" y="50" width="2" height="2"></rect><rect x="29" y="50" width="2" height="2"></rect><rect x="33" y="50" width="2" height="2"></rect><rect x="37" y="50" width="2" height="2"></rect><rect x="45" y="46" width="4" height="2"></rect><rect x="45" y="50" width="4" height="2"></rect><rect x="45" y="54" width="4" height="2"></rect><rect x="15" y="46" width="4" height="2"></rect><rect x="15" y="50" width="4" height="2"></rect><rect x="15" y="54" width="4" height="2"></rect><rect x="60" y="60" width="2" height="2"></rect><rect x="2" y="60" width="2" height="2"></rect><rect x="31" y="15" width="2" height="2"></rect><path d="M28.464,12.465l1.414,1.414a3,3,0,0,1,4.244,0l1.414-1.414A5.008,5.008,0,0,0,28.464,12.465Z"></path><path d="M36.95,11.05l1.414-1.414a9.009,9.009,0,0,0-12.728,0L27.05,11.05A7.009,7.009,0,0,1,36.95,11.05Z"></path><path d="M32,22A10,10,0,1,0,22,12,10.011,10.011,0,0,0,32,22ZM32,4a8,8,0,1,1-8,8A8.009,8.009,0,0,1,32,4Z"></path><path d="M52,17H46a1,1,0,0,0-.707.293l-6,6A1,1,0,0,0,39,24v4h2V24.414L46.414,19H52Z"></path><path d="M57,15a3,3,0,1,0,3,3A3,3,0,0,0,57,15Zm0,4a1,1,0,1,1,1-1A1,1,0,0,1,57,19Z"></path><path d="M57,8a3,3,0,1,0-3-3A3,3,0,0,0,57,8Zm0-4a1,1,0,1,1-1,1A1,1,0,0,1,57,4Z"></path><path d="M51.707,11.707l2-2L52.293,8.293,50.586,10H44v2h7A1,1,0,0,0,51.707,11.707Z"></path><path d="M25,28V24a1,1,0,0,0-.293-.707l-6-6A1,1,0,0,0,18,17H12v2h5.586L23,24.414V28Z"></path><path d="M10,18a3,3,0,1,0-3,3A3,3,0,0,0,10,18ZM6,18a1,1,0,1,1,1,1A1,1,0,0,1,6,18Z"></path><path d="M7,8A3,3,0,1,0,4,5,3,3,0,0,0,7,8ZM7,4A1,1,0,1,1,6,5,1,1,0,0,1,7,4Z"></path><path d="M13,12h7V10H13.414L11.707,8.293,10.293,9.707l2,2A1,1,0,0,0,13,12Z"></path><rect x="29" y="24" width="2" height="2"></rect><rect x="33" y="24" width="2" height="2"></rect><rect x="50" y="34" width="2" height="2"></rect><rect x="50" y="30" width="2" height="2"></rect><rect x="50" y="24" width="2" height="4"></rect><rect x="12" y="34" width="2" height="2"></rect><rect x="12" y="30" width="2" height="2"></rect><rect x="12" y="24" width="2" height="4"></rect></g></svg>