<svg xmlns="http://www.w3.org/2000/svg" viewBox="0 0 64 64" x="0px" y="0px"><g><circle cx="19" cy="22" r="2"></circle><circle cx="27" cy="22" r="2"></circle><path d="M26.532,28.542l-1.4-1.424a3.082,3.082,0,0,1-4.256,0l-1.4,1.424a5.007,5.007,0,0,0,7.064,0Z"></path><rect x="22" y="52" width="2" height="2"></rect><rect x="22" y="56" width="2" height="2"></rect><path d="M47,36A11,11,0,1,0,58,47,11.013,11.013,0,0,0,47,36Zm8.941,12a8.956,8.956,0,0,1-1.916,4.611l-1.368-1.368-1.414,1.414,1.368,1.368A8.956,8.956,0,0,1,48,55.941V54H46v1.941a8.956,8.956,0,0,1-4.611-1.916l1.368-1.368-1.414-1.414-1.368,1.368A8.956,8.956,0,0,1,38.059,48H40V46H38.059a8.956,8.956,0,0,1,1.916-4.611l1.368,1.368,1.414-1.414-1.368-1.368A8.956,8.956,0,0,1,46,38.059V40h2V38.059a8.956,8.956,0,0,1,4.611,1.916l-1.368,1.368,1.414,1.414,1.368-1.368A8.956,8.956,0,0,1,55.941,46H54v2Z"></path><path d="M46,46.586l-1.707,1.707,1.414,1.414,2-2A1,1,0,0,0,48,47V42H46Z"></path><path d="M47,32a14.915,14.915,0,0,0-10.87,4.7A32.867,32.867,0,0,0,39,23C39,10.64,32.42,2,23,2S7,10.64,7,23a30.8,30.8,0,0,0,4.85,17.19L8.31,41.3A8.941,8.941,0,0,0,2,49.88V61a1,1,0,0,0,1,1H43a.985.985,0,0,0,.75-.36A15,15,0,1,0,47,32ZM36.94,24.69a27.562,27.562,0,0,1-4.8,14.87l-.42-.13A4.992,4.992,0,0,0,28,36.1V34.79a11.064,11.064,0,0,0,2.78-2.01A10.919,10.919,0,0,0,33.95,26H34a4,4,0,0,0,2.83-1.17A1.71,1.71,0,0,1,36.94,24.69ZM23,34a9.005,9.005,0,0,1-8.94-7.97A5,5,0,0,0,17,27h2a4.994,4.994,0,0,0,4-2.03A4.994,4.994,0,0,0,27,27h2a5,5,0,0,0,2.94-.97A9.015,9.015,0,0,1,23,34Zm3,1.58v5.18l-3,6-3-6V35.57A10.665,10.665,0,0,0,23,36,11.09,11.09,0,0,0,26,35.58ZM21.68,17a17.437,17.437,0,0,0,4.79-3.44A10.053,10.053,0,0,0,32,15.95V17ZM32,19v3a3.009,3.009,0,0,1-3,3H27a3.009,3.009,0,0,1-3-3V19ZM22,19v3a3.009,3.009,0,0,1-3,3H17a3.009,3.009,0,0,1-3-3V19Zm6,19.17A3.014,3.014,0,0,1,30,41v1.17a3.026,3.026,0,0,0-2,0ZM34,24V20a2.006,2.006,0,0,1,2,2,2.015,2.015,0,0,1-2,2Zm2.76-4.88A3.979,3.979,0,0,0,34,18V15a1,1,0,0,0-1-1,7.869,7.869,0,0,1-5.19-1.92,15.142,15.142,0,0,0,2.73-5.51C33.84,9.14,36.06,13.52,36.76,19.12ZM23,4a12.286,12.286,0,0,1,5.76,1.39A13.21,13.21,0,0,1,25.7,11.5,16.725,16.725,0,0,1,13,17a18.528,18.528,0,0,1-3.34-.31C11.36,8.9,16.29,4,23,4ZM12,20v4a2.015,2.015,0,0,1-2-2A2.006,2.006,0,0,1,12,20ZM9.3,18.66c.14.02.28.04.41.07a4.223,4.223,0,0,0-.47.39C9.26,18.96,9.28,18.81,9.3,18.66Zm-.24,6.03a1.71,1.71,0,0,1,.11.14A4,4,0,0,0,12,26h.05A11.028,11.028,0,0,0,18,34.79V36.1a4.992,4.992,0,0,0-3.72,3.33l-.42.13A27.562,27.562,0,0,1,9.06,24.69ZM18,38.17v4a3.026,3.026,0,0,0-2,0V41A3.014,3.014,0,0,1,18,38.17ZM34.83,57.63a4.759,4.759,0,0,0-.8,2.37H11.97a4.756,4.756,0,0,0-.8-2.36A6.794,6.794,0,0,1,10,54a6.609,6.609,0,0,1,1.71-4.29l-1.42-1.42A8.723,8.723,0,0,0,8,54a8.855,8.855,0,0,0,1.52,4.77A2.655,2.655,0,0,1,9.97,60H4V49.88A6.964,6.964,0,0,1,8.91,43.2L14,41.61V45a1,1,0,0,0,2,0,1,1,0,0,1,2,0,.992.992,0,0,0,1.97.17l2.14,4.28a1,1,0,0,0,1.78,0l2.14-4.28A.992.992,0,0,0,28,45a1,1,0,0,1,2,0,1,1,0,0,0,2,0V41.61l.91.29a14.889,14.889,0,0,0,2.51,14.62A6.15,6.15,0,0,1,34.83,57.63ZM36.03,60a2.673,2.673,0,0,1,.44-1.23,5.652,5.652,0,0,0,.42-.72A15.034,15.034,0,0,0,39.55,60ZM47,60A13,13,0,1,1,60,47,13.012,13.012,0,0,1,47,60Z"></path></g></svg>