<svg xmlns="http://www.w3.org/2000/svg" viewBox="0 0 32 32" x="0px" y="0px"><g><path d="M21.414,20,29.7,28.285A2.951,2.951,0,0,0,30,27V5a2.951,2.951,0,0,0-.3-1.285L21.414,12H27v2H19a1,1,0,0,1-1-1V5h2v5.586L28.285,2.3A2.951,2.951,0,0,0,27,2H5a2.951,2.951,0,0,0-1.285.3L12,10.586V5h2v8a1,1,0,0,1-1,1H5V12h5.586L2.3,3.715A2.951,2.951,0,0,0,2,5V27a2.951,2.951,0,0,0,.3,1.285L10.586,20H5V18h8a1,1,0,0,1,1,1v8H12V21.414L3.715,29.7A2.951,2.951,0,0,0,5,30H27a2.951,2.951,0,0,0,1.285-.3L20,21.414V27H18V19a1,1,0,0,1,1-1h8v2Z"></path></g></svg>