<svg xmlns="http://www.w3.org/2000/svg" viewBox="0 0 64 64" x="0px" y="0px"><g data-name="Artificial Intelligent"><circle cx="14" cy="12" r="2"></circle><circle cx="23" cy="5" r="2"></circle><circle cx="30" cy="12" r="2"></circle><circle cx="5" cy="28" r="2"></circle><path d="M54,60V47.41a1,1,0,0,1,.334-.745,16.911,16.911,0,0,0,5.613-14.024A17.161,17.161,0,0,0,44.921,17.105,17.778,17.778,0,0,0,43,17v2H41V17.125a16.815,16.815,0,0,0-3.624.837l1.331,1.331-1.414,1.414-1.9-1.9A17.036,17.036,0,0,0,32.076,21H36v2H30.065a17.065,17.065,0,0,0-2.55,4H36v2H26.767A16.973,16.973,0,0,0,26,34a1,1,0,0,1-.219.625L19.081,43H23a1,1,0,0,1,1,1v7a3,3,0,0,0,3,3h6a1,1,0,0,1,1,1v5Z"></path><path d="M28,23H24a1,1,0,0,1-.707-.293l-7-7,1.414-1.414L24.414,21H28Z"></path><path d="M43,15H41V11.414L35.586,6H28V4h8a1,1,0,0,1,.707.293l6,6A1,1,0,0,1,43,11Z"></path><rect x="10" y="27" width="15" height="2"></rect><rect x="33" y="14.586" width="2" height="2.828" transform="translate(-1.355 28.728) rotate(-45)"></rect></g></svg>