<svg xmlns="http://www.w3.org/2000/svg" viewBox="0 0 64 64" x="0px" y="0px"><g data-name="Report Files"><path d="M47,53V11H17v5H34c.02,0,.038.01.058.012a.958.958,0,0,1,.265.052c.02.007.042.006.062.014s.021.015.034.02a1.017,1.017,0,0,1,.287.194h0l8,8v0a.99.99,0,0,1,.193.285c.006.013.016.022.021.035s.007.044.014.065a.945.945,0,0,1,.051.257c0,.022.013.041.013.063V53Z"></path><path d="M53,46V4H23V9H48a1,1,0,0,1,1,1V46Z"></path><path d="M11,18V60H41V26H34a1,1,0,0,1-1-1V18Zm9,4h8v2H20Zm-4,0h2v2H16Zm0,4H28v2H16Zm6,29H18V53h4Zm12,0H24V53H34Zm3-6H17a1,1,0,0,1-1-1V32h2V47H37ZM34.293,34.293l1.414,1.414-6,6A1,1,0,0,1,29,42H24.414l-3.707,3.707-1.414-1.414,4-4A1,1,0,0,1,24,40h4.586Z"></path><polygon points="35 24 39.586 24 35 19.414 35 24"></polygon></g></svg>