<svg xmlns="http://www.w3.org/2000/svg" viewBox="0 0 64 64" x="0px" y="0px"><g><path d="M25,19.758c.268.111.518.226.758.341a5.692,5.692,0,0,0,2.9.7,5.719,5.719,0,0,0,2.908-.7A8.343,8.343,0,0,1,39,20.049V18H25Z"></path><rect x="23" y="14" width="18" height="2"></rect><path d="M45,46H19v4H45ZM29,49H27V47h2Zm4,0H31V47h2Zm4,0H35V47h2Z"></path><rect x="16" y="38" width="32" height="2"></rect><rect x="4" y="56" width="56" height="4"></rect><rect x="8" y="34" width="48" height="2"></rect><path d="M59.057,54,50.485,42H13.515L4.943,54ZM17,45a1,1,0,0,1,1-1H46a1,1,0,0,1,1,1v6a1,1,0,0,1-1,1H18a1,1,0,0,1-1-1Z"></path><path d="M38,32a1,1,0,0,0,1-1V30H37V28h2V26H37V24h2V22.242c-.267-.11-.517-.225-.757-.34a6.37,6.37,0,0,0-5.81,0,7.643,7.643,0,0,1-3.773.9A7.539,7.539,0,0,1,25,21.953V31a1,1,0,0,0,1,1Zm-6-7h2v2H32Zm-4,3h2v2H28Z"></path></g></svg>