<svg xmlns="http://www.w3.org/2000/svg" viewBox="0 0 64 64" x="0px" y="0px"><g data-name="Park"><path d="M55,22H47V5a3,3,0,0,0-3-3H20a3,3,0,0,0-3,3V16H6a3,3,0,0,0-3,3V41a3,3,0,0,0,3,3h8V56H12V55a3,3,0,0,0-3-3H7a3,3,0,0,0-3,3v1.171A3.006,3.006,0,0,0,2,59v2a1,1,0,0,0,1,1H19a1,1,0,0,0,1-1V59a3,3,0,0,0-3-3H16V44h8a3,3,0,0,0,3-3V40h4V56H30a3,3,0,0,0-3,3v1a2,2,0,0,0,2,2H51a2,2,0,0,0,2-2V59a3,3,0,0,0-3-3V44h5a3,3,0,0,0,3-3V25A3,3,0,0,0,55,22ZM18,59v1H4V59a1,1,0,0,1,1-1,1,1,0,0,0,1-1V55a1,1,0,0,1,1-1H9a1,1,0,0,1,1,1v2a1,1,0,0,0,1,1h6A1,1,0,0,1,18,59ZM48,42H43a1,1,0,0,1-1-1V40h2a3,3,0,0,0,3-3v-.586l1,1ZM6,42a1,1,0,0,1-1-1V19a1,1,0,0,1,1-1H17V32l-.707-.708L16,31.585V28H14v3.586l-2.293-2.293-1.414,1.414L14,34.414V42Zm19-1a1,1,0,0,1-1,1H16V34.411l1-1V37a3,3,0,0,0,3,3h5Zm-5-3a1,1,0,0,1-1-1V5a1,1,0,0,1,1-1H44a1,1,0,0,1,1,1V37a1,1,0,0,1-1,1H33V31.383l6.691-6.692-1.414-1.414L33,28.555V17H31v5.535l-6.267-6.268-1.414,1.414L31,25.363V38ZM51,59v1H29V59a1,1,0,0,1,1-1h7a1,1,0,0,0,1-1,5,5,0,0,1,10,0,1,1,0,0,0,1,1h1A1,1,0,0,1,51,59Zm-3-6.891A6.995,6.995,0,0,0,36.071,56H33V40h7v1a3,3,0,0,0,3,3h5ZM56,41a1,1,0,0,1-1,1H50V37.41l3.7-3.7-1.414-1.414L49,35.584l-1.291-1.291L47,35V24h8a1,1,0,0,1,1,1Z"></path></g></svg>