<svg xmlns="http://www.w3.org/2000/svg" viewBox="0 0 64 64" x="0px" y="0px"><title>Artificial Intelligence-Chip-Processor</title><g data-name="Artificial Intelligence"><path d="M58,29a2.994,2.994,0,0,0-3,2.99V32a3,3,0,1,0,3-3Z"></path><circle cx="55" cy="20" r="3"></circle><circle cx="55" cy="44" r="3"></circle><path d="M49,12a3,3,0,1,0-2.12-.88A3,3,0,0,0,49,12Z"></path><path d="M49,52a3,3,0,1,0,3,3A2.993,2.993,0,0,0,49,52Z"></path><rect x="19" y="31" width="2" height="2"></rect><path d="M25,27H15V37H25Zm-2,7a1,1,0,0,1-1,1H18a1,1,0,0,1-1-1V30a1,1,0,0,1,1-1h4a1,1,0,0,1,1,1Z"></path><path d="M20,48A16,16,0,1,0,4,32,16.019,16.019,0,0,0,20,48ZM8,33V31h5V29H11.012a1,1,0,0,1-.894-.553L9.394,27H8V25h2.012a1,1,0,0,1,.895.553L11.63,27H13V26a1,1,0,0,1,1-1h1v-.554l-1.707-1.707A1,1,0,0,1,13,22.032V20h2v1.618l1.707,1.707a1,1,0,0,1,.293.707V25h2V20h2v5h2V24a1,1,0,0,1,.293-.707L25,21.588V20h2v2a1,1,0,0,1-.293.707L25,24.417V25h1a1,1,0,0,1,1,1v1h.574l1.707-1.707A1,1,0,0,1,29.988,25H32v2H30.4L28.7,28.707a1,1,0,0,1-.707.293H27v2h5v2H27v2h.988a1,1,0,0,1,.707.293L30.4,37H32v2H29.988a1,1,0,0,1-.707-.293L27.574,37H27v1a1,1,0,0,1-1,1H25v.583l1.707,1.708A1,1,0,0,1,27,42v2H25V42.412l-1.707-1.707A1,1,0,0,1,23,40V39H21v5H19V39H17v.968a1,1,0,0,1-.293.707L15,42.382V44H13V41.968a1,1,0,0,1,.293-.707L15,39.554V39H14a1,1,0,0,1-1-1V37H11.63l-.723,1.447a1,1,0,0,1-.895.553H8V37H9.394l.724-1.447A1,1,0,0,1,11.012,35H13V33Z"></path><rect x="38.986" y="30.986" width="14.014" height="2"></rect><path d="M44,25H37V23h6.586l3.707-3.707A1,1,0,0,1,48,19h2v2H48.414l-3.707,3.707A1,1,0,0,1,44,25Z"></path><path d="M42,17H28V15H41.586l2.707-2.707,1.414,1.414-3,3A1,1,0,0,1,42,17Z"></path><path d="M50,45H48a1,1,0,0,1-.707-.293L43.586,41H37V39h7a1,1,0,0,1,.707.293L48.414,43H50Z"></path><path d="M44.293,51.707,41.586,49H28V47H42a1,1,0,0,1,.707.293l3,3Z"></path><rect x="15" y="10" width="10" height="2"></rect><rect x="27" y="10" width="2" height="2"></rect><rect x="31" y="10" width="2" height="2"></rect><rect x="20" y="5" width="10" height="2"></rect><rect x="32" y="5" width="2" height="2"></rect><rect x="8" y="57" width="10" height="2"></rect><rect x="20" y="57" width="2" height="2"></rect><rect x="24" y="57" width="2" height="2"></rect><rect x="13" y="52" width="10" height="2"></rect><rect x="25" y="52" width="2" height="2"></rect></g></svg>