<svg xmlns="http://www.w3.org/2000/svg" viewBox="0 0 64 64" x="0px" y="0px"><g><path d="M30,51a1,1,0,0,0,1-1V44a1,1,0,0,0-1-1H24a1,1,0,0,0-1,1v6a1,1,0,0,0,1,1Zm-5-6h4v4H25Z"></path><path d="M34,51h6a1,1,0,0,0,1-1V44a1,1,0,0,0-1-1H34a1,1,0,0,0-1,1v6A1,1,0,0,0,34,51Zm1-6h4v4H35Z"></path><path d="M30,40a1,1,0,0,0,1-1V33a1,1,0,0,0-1-1H24a1,1,0,0,0-1,1v6a1,1,0,0,0,1,1Zm-5-6h4v4H25Z"></path><path d="M34,40h6a1,1,0,0,0,1-1V33a1,1,0,0,0-1-1H34a1,1,0,0,0-1,1v6A1,1,0,0,0,34,40Zm1-6h4v4H35Z"></path><path d="M55,44H47a1,1,0,0,0-1,1v4a1,1,0,0,0,1,1h8a1,1,0,0,0,1-1V45A1,1,0,0,0,55,44Zm-1,4H48V46h6Z"></path><path d="M55,52H47a1,1,0,0,0-1,1v4a1,1,0,0,0,1,1h8a1,1,0,0,0,1-1V53A1,1,0,0,0,55,52Zm-1,4H48V54h6Z"></path><path d="M17,44H9a1,1,0,0,0-1,1v4a1,1,0,0,0,1,1h8a1,1,0,0,0,1-1V45A1,1,0,0,0,17,44Zm-1,4H10V46h6Z"></path><path d="M17,52H9a1,1,0,0,0-1,1v4a1,1,0,0,0,1,1h8a1,1,0,0,0,1-1V53A1,1,0,0,0,17,52Zm-1,4H10V54h6Z"></path><path d="M59,60V42h2a1,1,0,0,0,.669-1.743l-10-9a1,1,0,0,0-1.338,0L45,36.055V28h2a1,1,0,0,0,.683-1.731L45,23.765V13a1,1,0,0,0-1-1H39a1,1,0,0,0-1,1v4.231l-5.317-4.962a1,1,0,0,0-1.366,0l-15,14A1,1,0,0,0,17,28h2v8.055l-5.331-4.8a1,1,0,0,0-1.338,0l-10,9A1,1,0,0,0,3,42H5V60H2v2H62V60ZM51,33.346,58.4,40H43.605ZM40,14h3v7.9l-3-2.8Zm-8,.368L44.463,26H19.537ZM13,33.346,20.4,40H5.605ZM7,42H19V60H7Zm14,0h2a1,1,0,0,0,.669-1.743L21,37.855V28H43v9.855l-2.669,2.4A1,1,0,0,0,41,42h2V60H37V57a5,5,0,0,0-10,0v3H21Zm8,18V57a3,3,0,0,1,6,0v3Zm16,0V42H57V60Z"></path><path d="M43,8v2h2V8a1,1,0,0,1,1-1h2a3,3,0,0,0,3-3V2H49V4a1,1,0,0,1-1,1H46A3,3,0,0,0,43,8Z"></path><path d="M40,6a1,1,0,0,1,1-1h2a3,3,0,0,0,3-3H44a1,1,0,0,1-1,1H41a3,3,0,0,0-3,3v4h2Z"></path></g></svg>