<svg xmlns="http://www.w3.org/2000/svg" viewBox="0 0 64 64" x="0px" y="0px"><g data-name="Presentaion report"><rect x="52" y="21" width="2" height="20"></rect><rect x="45" y="27" width="2" height="14"></rect><rect x="38" y="31" width="2" height="10"></rect><rect x="17" y="33" width="2" height="8"></rect><rect x="4" y="8" width="56" height="2"></rect><rect x="30" y="4" width="4" height="2"></rect><rect x="30" y="50" width="4" height="6"></rect><rect x="4" y="46" width="56" height="2"></rect><rect x="23" y="58" width="18" height="2"></rect><rect x="31" y="33" width="2" height="8"></rect><rect x="10" y="37" width="2" height="4"></rect><rect x="24" y="29" width="2" height="12"></rect><path d="M6,44H58V12H6Zm15-1H15V31h6ZM50,19h6V43H50Zm-7,6h6V43H43Zm-7,4h6V43H36Zm-7,2h6V43H29ZM28,43H22V27h6ZM16,16h8v2H16Zm-6,0h4v2H10Zm0,4H24v2H10ZM8,35h6v8H8Z"></path></g></svg>