<svg xmlns="http://www.w3.org/2000/svg" viewBox="0 0 64 64" x="0px" y="0px"><g data-name="Credit card-Money"><path d="M5,40h7V25a3,3,0,0,1,3-3H50V20H4V39A1,1,0,0,0,5,40Z"></path><rect x="46" y="30" width="8" height="5"></rect><rect x="4" y="14" width="46" height="4"></rect><path d="M50,10a1,1,0,0,0-1-1H5a1,1,0,0,0-1,1v2H50Z"></path><rect x="19" y="47" width="35" height="2"></rect><path d="M15,55H59a1,1,0,0,0,1-1V25a1,1,0,0,0-1-1H15a1,1,0,0,0-1,1V54A1,1,0,0,0,15,55ZM44,29a1,1,0,0,1,1-1H55a1,1,0,0,1,1,1v7a1,1,0,0,1-1,1H45a1,1,0,0,1-1-1ZM23,28H39v2H23Zm-6,0h4v2H17Zm0,4H39v2H17Zm0,14a1,1,0,0,1,1-1H55a1,1,0,0,1,1,1v4a1,1,0,0,1-1,1H18a1,1,0,0,1-1-1Z"></path></g></svg>