<svg xmlns="http://www.w3.org/2000/svg" viewBox="0 0 64 64" x="0px" y="0px"><polygon points="61.668 23.332 59 20.663 59 15 57 15 57 20.655 54.302 23.284 55.698 24.716 57 23.448 57 25 59 25 59 23.492 60.254 24.746 61.668 23.332"></polygon><path d="M8,56H57.026a4.954,4.954,0,0,1-.925-2H12V52H56.1a4.954,4.954,0,0,1,.925-2H8Z"></path><rect x="8" y="46" width="52" height="2"></rect><rect x="8" y="58" width="52" height="2"></rect><path d="M5,60H6V46H5a1,1,0,0,0-1,1V59A1,1,0,0,0,5,60Z"></path><polygon points="32 5.059 9.215 12.945 32 20.938 54.786 12.945 32 5.059"></polygon><path d="M31.661,22.94,14,16.583V38H50V16.583L32.339,22.94A.976.976,0,0,1,31.661,22.94Z"></path></svg>