<svg xmlns="http://www.w3.org/2000/svg" viewBox="0 0 64 64" x="0px" y="0px"><g data-name="Radio Antena-Smartphone-Wifi Signal-Internet of Things-Technology"><path d="M58,46V32H39V46h2V37a1,1,0,0,1,1-1h5a1,1,0,0,1,1,1v9Zm-8-9a1,1,0,0,1,1-1h4a1,1,0,0,1,1,1v6a1,1,0,0,1-1,1H51a1,1,0,0,1-1-1Z"></path><rect x="43" y="38" width="3" height="8"></rect><rect x="52" y="38" width="2" height="4"></rect><rect x="37" y="28" width="23" height="2"></rect><path d="M46.05,14.949l1.414-1.414a5,5,0,0,1,0-7.07L46.05,5.051a7,7,0,0,0,0,9.9Z"></path><path d="M55.95,14.949a7,7,0,0,0,0-9.9L54.536,6.465a5,5,0,0,1,0,7.07Z"></path><path d="M44.636,16.364a9.01,9.01,0,0,1,0-12.728L43.222,2.222a11.012,11.012,0,0,0,0,15.556Z"></path><path d="M57.364,16.364l1.414,1.414a11.012,11.012,0,0,0,0-15.556L57.364,3.636A9.01,9.01,0,0,1,57.364,16.364Z"></path><path d="M11,28H31V27a3.009,3.009,0,0,0-3-3H14a3.009,3.009,0,0,0-3,3Z"></path><path d="M11,30V48h.89a2.933,2.933,0,0,1,1.6-1.09,2.975,2.975,0,0,1,2.28.3,2.931,2.931,0,0,1,.89.79H31V30ZM21,44l-1.41-1.41a1.992,1.992,0,0,1,2.82,0Zm2.12-3.12a3,3,0,0,0-4.24,0l-1.42-1.42a5.034,5.034,0,0,1,7.08,0Zm2.83-2.83a7.007,7.007,0,0,0-9.9,0l-1.41-1.41a9,9,0,0,1,12.72,0Z"></path><path d="M12.13,55.5a.994.994,0,0,0,.04,1.05l.89,1.34A5.6,5.6,0,0,1,13.9,60H4.63l-.37-5.9a9.055,9.055,0,0,1,2.26-6.55L9,44.76v8.17l-.33.57,1.73,1,3-5.2a1.01,1.01,0,0,1,1.37-.36,1,1,0,0,1,.36,1.36Z"></path><path d="M17.25,50a3.007,3.007,0,0,1-.38,1.3l-2.69,4.66.02.04H28a3.009,3.009,0,0,0,3-3V50ZM22,54H20V52h2Z"></path><path d="M24.536,15.465a5.008,5.008,0,0,0-7.072,0l1.414,1.414a3,3,0,0,1,4.244,0Z"></path><path d="M25.95,14.05l1.414-1.414a9.009,9.009,0,0,0-12.728,0L16.05,14.05A7.009,7.009,0,0,1,25.95,14.05Z"></path><path d="M19.586,18.586,21,20l1.414-1.414A2,2,0,0,0,19.586,18.586Z"></path><path d="M50.03,11.74,46.23,26H48.3l.53-2h4.34l.53,2h2.07l-3.8-14.26a2,2,0,1,0-1.94,0ZM52.1,20l.53,2H49.37l.53-2ZM51,15.88,51.57,18H50.43Z"></path></g></svg>