<svg xmlns="http://www.w3.org/2000/svg" viewBox="0 0 64 64" x="0px" y="0px"><g><path d="M32,42H28a1,1,0,0,0-1,1v4a1,1,0,0,0,1,1h4a1,1,0,0,0,1-1V43A1,1,0,0,0,32,42Zm-1,4H29V44h2Z"></path><rect x="27" y="38" width="2" height="2"></rect><rect x="27" y="34" width="2" height="2"></rect><rect x="31" y="34" width="2" height="6"></rect><path d="M54,44H42a1,1,0,0,0-1,1V57a1,1,0,0,0,1,1H54a1,1,0,0,0,1-1V45A1,1,0,0,0,54,44Zm-1,4H51V46h2Zm-6,4V50h2v2Zm2,2v2H47V54Zm-4-2H43V50h2Zm2-4V46h2v2Zm4,2h2v2H51Zm-6-4v2H43V46Zm-2,8h2v2H43Zm8,2V54h2v2Z"></path><path d="M58,28H57V13a1,1,0,0,0-1.6-.8L53.338,13.75,51.273,12.2a1,1,0,0,0-1.2,0l-2.066,1.55L45.94,12.2a1,1,0,0,0-1.2,0l-2.07,1.55L40.6,12.2A1,1,0,0,0,39,13v3H37V11A8.985,8.985,0,0,0,22.5,3.892,8.985,8.985,0,0,0,8,11v5H4a1,1,0,0,0-1,1V55a1,1,0,0,0,1,1H37v4a2,2,0,0,0,2,2H57a2,2,0,0,0,2-2V43.123l.97-3.88A1,1,0,0,0,60,39V30A2,2,0,0,0,58,28ZM42.071,15.8a1,1,0,0,0,1.2,0l2.07-1.55,2.066,1.55a1,1,0,0,0,1.2,0l2.067-1.55,2.064,1.55a1,1,0,0,0,1.2,0L55,15V28H41V15ZM35,11v5H26V11a8.958,8.958,0,0,0-2.044-5.7A6.989,6.989,0,0,1,35,11ZM22.5,6.684A6.961,6.961,0,0,1,24,11v5H21V11A6.961,6.961,0,0,1,22.5,6.684ZM10,11A6.989,6.989,0,0,1,21.044,5.3,8.958,8.958,0,0,0,19,11v5H10ZM9.769,48.36a1.036,1.036,0,0,0-1.538,0L5,52.238V19.762L8.231,23.64a1,1,0,0,0,1.538,0L13,19.762V52.238Zm2.1,5.64H6.135L9,50.562ZM6.135,18h5.73L9,21.438ZM15,54V18h4v2.184a3,3,0,1,0,2,0V18H35v2.184a3,3,0,1,0,2,0V18h2V28H38a2,2,0,0,0-2,2H25a2,2,0,0,0-2,2V50a2,2,0,0,0,2,2H37v2Zm6-31a1,1,0,1,1-1-1A1,1,0,0,1,21,23Zm16,0a1,1,0,1,1-1-1A1,1,0,0,1,37,23Zm-.97,16.243.97,3.88V50H25V32H36v7A1,1,0,0,0,36.03,39.243ZM58,38.877l-.97,3.88A1,1,0,0,0,57,43V60H39V43a1,1,0,0,0-.03-.243L38,38.877V30H58Z"></path><path d="M41,42H55a1,1,0,0,0,1-1V33a1,1,0,0,0-1-1H41a1,1,0,0,0-1,1v8A1,1,0,0,0,41,42Zm1-8H54v6H42Z"></path><rect x="43" y="19" width="6" height="2"></rect><rect x="51" y="19" width="2" height="2"></rect><rect x="43" y="23" width="6" height="2"></rect><rect x="51" y="23" width="2" height="2"></rect><rect x="45" y="36" width="2" height="2"></rect><rect x="49" y="36" width="2" height="2"></rect></g></svg>