<svg xmlns="http://www.w3.org/2000/svg" viewBox="0 0 64 64" x="0px" y="0px"><g data-name="Online Gaming-Global-Internet-Online-Game"><path d="M32,2A30,30,0,1,0,62,32,30.034,30.034,0,0,0,32,2ZM59.975,31h-9.99a45,45,0,0,0-2.814-15.114,29.91,29.91,0,0,0,4.785-3.5A27.906,27.906,0,0,1,59.975,31ZM31,59.94c-4.754-.516-8.951-4.68-11.687-10.909A27.843,27.843,0,0,1,31,46.024Zm2,0V46.024a27.843,27.843,0,0,1,11.687,3.007C41.951,55.26,37.754,59.424,33,59.94ZM32,44a29.9,29.9,0,0,0-13.437,3.171A44.121,44.121,0,0,1,16,32a44.121,44.121,0,0,1,2.563-15.171A29.9,29.9,0,0,0,32,20a29.9,29.9,0,0,0,13.437-3.171A44.121,44.121,0,0,1,48,32a44.121,44.121,0,0,1-2.563,15.171A29.9,29.9,0,0,0,32,44ZM33,4.06c4.754.516,8.951,4.68,11.687,10.909A27.843,27.843,0,0,1,33,17.976Zm-2,0V17.976a27.843,27.843,0,0,1-11.687-3.007C22.049,8.74,26.246,4.576,31,4.06Zm19.5,6.946a27.817,27.817,0,0,1-4.1,3.009A24.664,24.664,0,0,0,40.06,5.188,27.979,27.979,0,0,1,50.5,11.006ZM17.6,14.015a27.817,27.817,0,0,1-4.1-3.009A27.979,27.979,0,0,1,23.94,5.188,24.664,24.664,0,0,0,17.6,14.015Zm-5.559-1.631a29.91,29.91,0,0,0,4.785,3.5A45,45,0,0,0,14.015,31H4.025A27.906,27.906,0,0,1,12.044,12.384ZM4.025,33h9.99a45,45,0,0,0,2.814,15.114,29.91,29.91,0,0,0-4.785,3.5A27.906,27.906,0,0,1,4.025,33ZM13.5,52.994a27.817,27.817,0,0,1,4.1-3.009,24.664,24.664,0,0,0,6.337,8.827A27.979,27.979,0,0,1,13.5,52.994ZM46.4,49.985a27.817,27.817,0,0,1,4.1,3.009A27.979,27.979,0,0,1,40.06,58.812,24.664,24.664,0,0,0,46.4,49.985Zm5.559,1.631a29.91,29.91,0,0,0-4.785-3.5A45,45,0,0,0,49.985,33h9.99A27.906,27.906,0,0,1,51.956,51.616Z"></path><polygon points="24 32 26 32 26 30 28 30 28 28 26 28 26 26 24 26 24 28 22 28 22 30 24 30 24 32"></polygon><rect x="38" y="26" width="2" height="2"></rect><rect x="40" y="28" width="2" height="2"></rect><rect x="38" y="30" width="2" height="2"></rect><rect x="36" y="28" width="2" height="2"></rect><rect x="31" y="26" width="2" height="2"></rect><path d="M46,28.929h0A7.006,7.006,0,0,0,39,22H25a7.006,7.006,0,0,0-7,6.929h0l-.766,10.722a4.062,4.062,0,0,0,7.511,2.417l2.21-3.592A1,1,0,0,1,27.81,38h8.38a1,1,0,0,1,.852.476l2.21,3.593a4.062,4.062,0,0,0,7.511-2.418ZM25,24H39a5,5,0,0,1,0,10h-.7l-2.748-1.832A1.006,1.006,0,0,0,35,32H29a1.006,1.006,0,0,0-.555.168L25.7,34H25a5,5,0,0,1,0-10ZM44.222,41.344a2.065,2.065,0,0,1-3.267-.324l-2.21-3.593A2.984,2.984,0,0,0,36.19,36H27.81a2.982,2.982,0,0,0-2.555,1.428l-2.21,3.591a2.062,2.062,0,0,1-3.814-1.226l.447-6.257A6.985,6.985,0,0,0,25,36h1a1.006,1.006,0,0,0,.555-.168L29.3,34H34.7l2.748,1.832A1.006,1.006,0,0,0,38,36h1a6.985,6.985,0,0,0,5.322-2.464l.447,6.257A2.046,2.046,0,0,1,44.222,41.344Z"></path></g></svg>