<svg xmlns="http://www.w3.org/2000/svg" viewBox="0 0 64 64" x="0px" y="0px"><g><path d="M43,2H21a1,1,0,0,0-1,1V9a1,1,0,0,0,.76.97l3.24.81V11a5,5,0,0,0,5,5v6H26a1,1,0,0,0-1,1v4a1,1,0,0,0,1,1H38a1,1,0,0,0,1-1V23a1,1,0,0,0-1-1H35V16a5,5,0,0,0,5-5v-.22l3.24-.81A1,1,0,0,0,44,9V3A1,1,0,0,0,43,2ZM24,8.72l-2-.5V4h2ZM37,24v2H27V24Zm-6-2V16h2v6Zm7-11a3.009,3.009,0,0,1-3,3H29a3.009,3.009,0,0,1-3-3V4H38Zm4-2.78-2,.5V4h2Z"></path><path d="M26,30H8a3.009,3.009,0,0,0-3,3V43a1,1,0,0,0,1,1h5a.937.937,0,0,0,.37-.07L16.26,42h1.48l4.89,1.93A.937.937,0,0,0,23,44h5a1,1,0,0,0,1-1V33A3.009,3.009,0,0,0,26,30Zm1,12H23.19L18.3,40.07a.937.937,0,0,0-.37-.07H16.07a.937.937,0,0,0-.37.07L10.81,42H7V33a1,1,0,0,1,1-1H26a1,1,0,0,1,1,1Z"></path><polygon points="11 40 13 40 13 38 15 38 15 36 13 36 13 34 11 34 11 36 9 36 9 38 11 38 11 40"></polygon><rect x="23" y="36" width="2" height="2"></rect><rect x="19" y="36" width="2" height="2"></rect><path d="M56,30H38a3.009,3.009,0,0,0-3,3V43a1,1,0,0,0,1,1h5a.937.937,0,0,0,.37-.07L46.26,42h1.48l4.89,1.93A.937.937,0,0,0,53,44h5a1,1,0,0,0,1-1V33A3.009,3.009,0,0,0,56,30Zm1,12H53.19L48.3,40.07a.937.937,0,0,0-.37-.07H46.07a.937.937,0,0,0-.37.07L40.81,42H37V33a1,1,0,0,1,1-1H56a1,1,0,0,1,1,1Z"></path><polygon points="43 34 41 34 41 36 39 36 39 38 41 38 41 40 43 40 43 38 45 38 45 36 43 36 43 34"></polygon><rect x="53" y="36" width="2" height="2"></rect><rect x="49" y="36" width="2" height="2"></rect><path d="M13,52H5a1,1,0,0,0-1,1v8a1,1,0,0,0,1,1h8a1,1,0,0,0,1-1V53A1,1,0,0,0,13,52Zm-1,8H6V54h6Z"></path><path d="M29,52H21a1,1,0,0,0-1,1v8a1,1,0,0,0,1,1h8a1,1,0,0,0,1-1V53A1,1,0,0,0,29,52Zm-1,8H22V54h6Z"></path><path d="M59,52H51a1,1,0,0,0-1,1v8a1,1,0,0,0,1,1h8a1,1,0,0,0,1-1V53A1,1,0,0,0,59,52Zm-1,8H52V54h6Z"></path><path d="M43,52H35a1,1,0,0,0-1,1v8a1,1,0,0,0,1,1h8a1,1,0,0,0,1-1V53A1,1,0,0,0,43,52Zm-1,8H36V54h6Z"></path><path d="M56,50V47a1,1,0,0,0-1-1H48V44H46v2H39a1,1,0,0,0-1,1v3h2V48H54v2Z"></path><path d="M26,50V47a1,1,0,0,0-1-1H18V44H16v2H9a1,1,0,0,0-1,1v3h2V48H24v2Z"></path><polygon points="47 22 49 22 49 20 51 20 51 18 49 18 49 16 47 16 47 18 45 18 45 20 47 20 47 22"></polygon><polygon points="55 8 57 8 57 6 59 6 59 4 57 4 57 2 55 2 55 4 53 4 53 6 55 6 55 8"></polygon><rect x="53" y="13" width="2" height="2"></rect><rect x="57" y="23" width="2" height="2"></rect><polygon points="15 22 17 22 17 20 19 20 19 18 17 18 17 16 15 16 15 18 13 18 13 20 15 20 15 22"></polygon><polygon points="7 8 9 8 9 6 11 6 11 4 9 4 9 2 7 2 7 4 5 4 5 6 7 6 7 8"></polygon><rect x="9" y="13" width="2" height="2"></rect><rect x="5" y="23" width="2" height="2"></rect></g></svg>