<svg xmlns="http://www.w3.org/2000/svg" viewBox="0 0 64 64" x="0px" y="0px"><g data-name="Teacher-Online Learning-Tablet-Time-Timatable"><path d="M23,22a5,5,0,0,0,10,0V18a1,1,0,0,0-1-1H24a1,1,0,0,0-1,1Zm3.5.6a3.06,3.06,0,0,0,3,0l1,1.73a5,5,0,0,1-5,0Z"></path><path d="M32,15a1,1,0,0,0,1-1V12H25a2.006,2.006,0,0,0-2,2v1.18A3,3,0,0,1,24,15Z"></path><path d="M32.05,46A14.983,14.983,0,0,1,38.9,34.39a2.948,2.948,0,0,0-.78-.47L33.81,32.2l-.82,4.96a1,1,0,0,1-.62.77A.937.937,0,0,1,32,38a1.029,1.029,0,0,1-.6-.2L28,35.25,24.6,37.8a1.029,1.029,0,0,1-.6.2.937.937,0,0,1-.37-.07,1,1,0,0,1-.62-.77l-.82-4.96-4.31,1.72A3,3,0,0,0,16,36.71V46h3V39h2v7Z"></path><path d="M54,46h1.941a8.956,8.956,0,0,0-1.916-4.611l-1.368,1.368-1.414-1.414,1.368-1.368A8.956,8.956,0,0,0,48,38.059V40H46V38.059a8.956,8.956,0,0,0-4.611,1.916l1.368,1.368-1.414,1.414-1.368-1.368A8.956,8.956,0,0,0,38.059,46H40v2H38.059a8.956,8.956,0,0,0,1.916,4.611l1.368-1.368,1.414,1.414-1.368,1.368A8.956,8.956,0,0,0,46,55.941V54h2v1.941a8.956,8.956,0,0,0,4.611-1.916l-1.368-1.368,1.414-1.414,1.368,1.368A8.956,8.956,0,0,0,55.941,48H54Zm-6,1a1,1,0,0,1-.293.707l-2,2-1.414-1.414L46,46.586V42h2Z"></path><polygon points="31.93 31.34 31.2 30.61 29.32 33.74 31.28 35.21 31.93 31.34"></polygon><path d="M47,34A13,13,0,1,0,60,47,13.012,13.012,0,0,0,47,34Zm0,24A11,11,0,1,1,58,47,11.013,11.013,0,0,1,47,58Z"></path><path d="M4,56a4,4,0,0,0,4,4H39.55a14.823,14.823,0,0,1-2.71-2H8a2.006,2.006,0,0,1-2-2V8A2.006,2.006,0,0,1,8,6H48a2.006,2.006,0,0,1,2,2V32.3a13.506,13.506,0,0,1,2,.58V8a4,4,0,0,0-4-4H8A4,4,0,0,0,4,8Z"></path><path d="M35,20v2a1,1,0,0,0,0-2Z"></path><path d="M40.73,33.39A14.945,14.945,0,0,1,47,32c.34,0,.67.03,1,.05V8H8V56H35.03a14.939,14.939,0,0,1-2.98-8H15a1,1,0,0,1-1-1V36.71a5,5,0,0,1,3.14-4.65l5.64-2.25L24,28.59v-.85A7.073,7.073,0,0,1,21.29,24H21a3,3,0,0,1,0-6V14a4,4,0,0,1,4-4h9a1,1,0,0,1,1,1v3a2.974,2.974,0,0,1-.78,2A2.974,2.974,0,0,1,35,18a3,3,0,0,1,0,6h-.29A7.073,7.073,0,0,1,32,27.74v.85l1.22,1.22,5.64,2.25A4.893,4.893,0,0,1,40.73,33.39ZM27,52h2v2H27Z"></path><polygon points="26.68 33.74 24.8 30.61 24.07 31.34 24.72 35.21 26.68 33.74"></polygon><path d="M28,29a7.268,7.268,0,0,1-2-.29v.01l2,3.34,2-3.34v-.01A7.268,7.268,0,0,1,28,29Z"></path><path d="M21,22V20a1,1,0,0,0,0,2Z"></path></g></svg>