<svg xmlns="http://www.w3.org/2000/svg" viewBox="0 0 64 64" x="0px" y="0px"><g><path d="M57,2H7A5,5,0,0,0,2,7V53a5,5,0,0,0,5,5v3a1,1,0,0,0,1,1h6a.988.988,0,0,0,.89-.55L16.62,58H47.38l1.73,3.45A.988.988,0,0,0,50,62h6a1,1,0,0,0,1-1V58a5,5,0,0,0,5-5V7A5,5,0,0,0,57,2ZM13.38,60H9V58h5.38ZM55,60H50.62l-1-2H55Zm5-7a3.009,3.009,0,0,1-3,3H7a3.009,3.009,0,0,1-3-3V7A3.009,3.009,0,0,1,7,4H57a3.009,3.009,0,0,1,3,3Z"></path><path d="M55,6H9A3,3,0,0,0,6,9V51a3,3,0,0,0,3,3H55a3,3,0,0,0,3-3V9A3,3,0,0,0,55,6Zm1,45a1,1,0,0,1-1,1H9a1,1,0,0,1-1-1V9A1,1,0,0,1,9,8H55a1,1,0,0,1,1,1Z"></path><path d="M31,27h2a1,1,0,0,1,1,1h2a3,3,0,0,0-3-3V24H31v1a3,3,0,0,0,0,6h2a1,1,0,0,1,0,2H31a1,1,0,0,1-1-1H28a3,3,0,0,0,3,3v1h2V35a3,3,0,0,0,0-6H31a1,1,0,0,1,0-2Z"></path><path d="M32,20A10,10,0,1,0,42,30,10.011,10.011,0,0,0,32,20Zm0,18a8,8,0,1,1,8-8A8.009,8.009,0,0,1,32,38Z"></path><rect x="31" y="12" width="2" height="6"></rect><rect x="44" y="29" width="6" height="2"></rect><rect x="31" y="42" width="2" height="6"></rect><rect x="14" y="29" width="6" height="2"></rect><rect x="20.394" y="16.393" width="2" height="6" transform="translate(-7.447 20.806) rotate(-44.997)"></rect><rect x="16.15" y="14.151" width="2" height="2" transform="translate(-5.69 16.565) rotate(-45)"></rect><rect x="18.394" y="39.607" width="6" height="2" transform="translate(-22.447 27.021) rotate(-45)"></rect><rect x="16.15" y="43.849" width="2" height="2" transform="translate(-26.69 25.263) rotate(-45)"></rect><rect x="41.607" y="37.607" width="2" height="6" transform="translate(-16.234 42.017) rotate(-44.997)"></rect><rect x="45.85" y="43.849" width="2" height="2" transform="translate(-17.991 46.264) rotate(-45)"></rect><rect x="39.607" y="18.393" width="6" height="2" transform="translate(-1.234 35.807) rotate(-45)"></rect><rect x="45.85" y="14.151" width="2" height="2" transform="translate(3.009 37.565) rotate(-45)"></rect></g></svg>