<svg xmlns="http://www.w3.org/2000/svg" viewBox="0 0 64 64" x="0px" y="0px"><g data-name="Smart Watch-Internet of Things-Wristwatch-Phone-Call"><path d="M28.006,30.58l1.08-1.08-2.235-2.235a6.924,6.924,0,0,0-.919,1.252L28,30.586Z"></path><path d="M33.42,35.994,33.413,36l2.069,2.068a6.93,6.93,0,0,0,1.253-.919L34.5,34.914Z"></path><path d="M24,60H40a1,1,0,0,0,1-1V52.231a10.97,10.97,0,0,1,.329-2.668L41.72,48H22.281l.391,1.563A11.006,11.006,0,0,1,23,52.231V59A1,1,0,0,0,24,60Z"></path><path d="M30.415,36.744a5.027,5.027,0,0,1-3.158-3.158,2.775,2.775,0,0,1-.13-1.046l-1.974-1.973a7.115,7.115,0,0,0-.092,2.37,6.983,6.983,0,0,0,8.371,5.91l-1.973-1.974A2.764,2.764,0,0,1,30.415,36.744Z"></path><path d="M40,4H24a1,1,0,0,0-1,1v6.769a11.006,11.006,0,0,1-.328,2.668L22.281,16H41.72l-.391-1.563A10.97,10.97,0,0,1,41,11.769V5A1,1,0,0,0,40,4Z"></path><path d="M46,43V21a3,3,0,0,0-3-3H21a3,3,0,0,0-3,3V43a3,3,0,0,0,3,3H43A3,3,0,0,0,46,43ZM33,28a3,3,0,0,1,3,3H34a1,1,0,0,0-1-1Zm5.9,9.771A8.96,8.96,0,0,1,31.991,41a9.287,9.287,0,0,1-1.184-.076A8.994,8.994,0,0,1,26.229,25.1a1,1,0,0,1,1.348.06l3.63,3.63a1,1,0,0,1,0,1.414L29.42,31.994a.954.954,0,0,0-.266.958,3.015,3.015,0,0,0,1.894,1.9.963.963,0,0,0,.958-.267l1.787-1.787a1,1,0,0,1,1.414,0l3.63,3.63A1,1,0,0,1,38.9,37.771ZM38,31a5.006,5.006,0,0,0-5-5V24a7.009,7.009,0,0,1,7,7Z"></path></g></svg>