<svg xmlns="http://www.w3.org/2000/svg" viewBox="0 0 64 64" x="0px" y="0px"><g><path d="M57,2H7A5.006,5.006,0,0,0,2,7V57a5.006,5.006,0,0,0,5,5H57a5.006,5.006,0,0,0,5-5V7A5.006,5.006,0,0,0,57,2ZM7,4H57a3,3,0,0,1,3,3V9.96H4V7A3,3,0,0,1,7,4ZM57,60H7a3,3,0,0,1-3-3V11.96H60V57A3,3,0,0,1,57,60Z"></path><rect x="8" y="6" width="2" height="2"></rect><rect x="12" y="6" width="2" height="2"></rect><rect x="16" y="6" width="2" height="2"></rect><rect x="46" y="18" width="10" height="2"></rect><rect x="42" y="18" width="2" height="2"></rect><rect x="42" y="23" width="14" height="2"></rect><rect x="42" y="28" width="14" height="2"></rect><rect x="42" y="33" width="14" height="2"></rect><path d="M31.707,45.293l-1.414,1.414,4,4A1,1,0,0,0,35,51h5V49H35.414Z"></path><rect x="46" y="49" width="10" height="2"></rect><rect x="42" y="54" width="14" height="2"></rect><rect x="42" y="49" width="2" height="2"></rect><path d="M23,20A11,11,0,1,0,34,31,11.013,11.013,0,0,0,23,20Zm8.941,12a8.956,8.956,0,0,1-1.916,4.611l-1.368-1.368-1.414,1.414,1.368,1.368A8.956,8.956,0,0,1,24,39.941V38H22v1.941a8.956,8.956,0,0,1-4.611-1.916l1.368-1.368-1.414-1.414-1.368,1.368A8.956,8.956,0,0,1,14.059,32H16V30H14.059a8.956,8.956,0,0,1,1.916-4.611l1.368,1.368,1.414-1.414-1.368-1.368A8.956,8.956,0,0,1,22,22.059V24h2V22.059a8.956,8.956,0,0,1,4.611,1.916l-1.368,1.368,1.414,1.414,1.368-1.368A8.956,8.956,0,0,1,31.941,30H30v2Z"></path><path d="M22,30.586l-1.707,1.707,1.414,1.414,2-2A1,1,0,0,0,24,31V26H22Z"></path><path d="M38,31A15,15,0,1,0,23,46,15.017,15.017,0,0,0,38,31ZM23,44A13,13,0,1,1,36,31,13.015,13.015,0,0,1,23,44Z"></path></g></svg>