<svg xmlns="http://www.w3.org/2000/svg" viewBox="0 0 64 64" x="0px" y="0px"><g data-name="Game Console"><rect x="16" y="18" width="32" height="28"></rect><rect x="8" y="38" width="2" height="2"></rect><circle cx="9" cy="29" r="1"></circle><rect x="54" y="38" width="2" height="2"></rect><path d="M5,46h9V18H5a1,1,0,0,0-1,1V45A1,1,0,0,0,5,46ZM8,22h2v2H8Zm1,4a3,3,0,1,1-3,3A3,3,0,0,1,9,26ZM6,38H8V36h2v2h2v2H10v2H8V40H6Z"></path><path d="M60,45V19a1,1,0,0,0-1-1H50V46h9A1,1,0,0,0,60,45ZM54,22h2v2H54Zm4,18H56v2H54V40H52V38h2V36h2v2h2Zm-3-8a3,3,0,1,1,3-3A3,3,0,0,1,55,32Z"></path><circle cx="55" cy="29" r="1"></circle></g></svg>