<svg xmlns="http://www.w3.org/2000/svg" viewBox="0 0 64 64" x="0px" y="0px"><g><path d="M34,54H30a1,1,0,0,0,0,2h4a1,1,0,0,0,0-2Z"></path><path d="M50,8a4,4,0,0,0-4-4H18a4,4,0,0,0-4,4V56a4,4,0,0,0,4,4H46a4,4,0,0,0,4-4ZM29,6h6V8H29Zm0,13h6v2H29Zm5,4v2H30V23ZM25,6h2V8H25Zm9,52H30a3,3,0,0,1,0-6h4a3,3,0,0,1,0,6Zm1-19v2H29V39Zm-5-2V35h4v2Zm9,4H37c0-4.667-2.346-7.178-5-9.64-2.654,2.462-5,4.973-5,9.64H25c0-5.431,2.688-8.359,5.526-11C27.688,27.359,25,24.431,25,19h2c0,4.667,2.346,7.178,5,9.64,2.654-2.462,5-4.973,5-9.64h2c0,5.431-2.688,8.359-5.526,11C36.312,32.641,39,35.569,39,41Z"></path></g></svg>