<svg xmlns="http://www.w3.org/2000/svg" viewBox="0 0 64 64" x="0px" y="0px"><g data-name="Room Service"><path d="M43.384,13.029l-.739,1.858A15.168,15.168,0,0,1,49.2,19.62L50.781,18.4A17.14,17.14,0,0,0,43.384,13.029Z"></path><path d="M52.175,20.566l-1.77.933a13.432,13.432,0,0,1,.829,1.926l1.893-.647A15.665,15.665,0,0,0,52.175,20.566Z"></path><path d="M8.8,32.4A9.044,9.044,0,0,0,16,36H48a9.044,9.044,0,0,0,7.2-3.6L58.5,28H62V26H57.975C57.492,15.241,49.188,8.258,35.812,7.158a4,4,0,1,0-7.624,0C14.812,8.258,6.508,15.241,6.025,26H2v2H5.5Zm44.8-1.2A7.035,7.035,0,0,1,48,34H16a7.035,7.035,0,0,1-5.6-2.8L8,28H56ZM30,6a2,2,0,0,1,4,0,1.96,1.96,0,0,1-.293,1.033C33.145,7.013,32.578,7,32,7s-1.145.013-1.707.033A1.96,1.96,0,0,1,30,6Zm2,3c11.305,0,23.36,4.493,23.971,17H8.029C8.64,13.493,20.7,9,32,9Z"></path><polygon points="6 15 8 15 8 13 10 13 10 11 8 11 8 9 6 9 6 11 4 11 4 13 6 13 6 15"></polygon><polygon points="55 9 57 9 57 7 59 7 59 5 57 5 57 3 55 3 55 5 53 5 53 7 55 7 55 9"></polygon><path d="M61.615,37.9a4.026,4.026,0,0,0-5.465-1.464L47.616,41.36a3.818,3.818,0,0,0-.789-1.187A3.973,3.973,0,0,0,44,39H29a1,1,0,0,0-.486.126L21.9,42.806l-1.115-3.062a1,1,0,0,0-1.281-.6l-9.4,3.42a1,1,0,0,0-.6,1.282l.342.939L3.271,47.181a1,1,0,0,0-.6,1.282L7.462,61.619a1,1,0,0,0,1.281.6l6.579-2.394.342.939a1,1,0,0,0,1.281.6l9.4-3.421a1,1,0,0,0,.6-1.281L26.7,56H38a1,1,0,0,0,.5-.134l21.65-12.5a3.962,3.962,0,0,0,2-3.466A4.021,4.021,0,0,0,61.615,37.9ZM9,60l-4.1-11.276,5.638-2.052,4.105,11.276Zm8.2-.856L11.729,44.1l7.517-2.737L24.718,56.4ZM59.15,41.634,37.732,54H25.972l-3.381-9.29L29.259,41H44a1.983,1.983,0,0,1,1.413.587,1.915,1.915,0,0,1,.471.769A1.691,1.691,0,0,1,46,43a2,2,0,0,1-2,2H33v2H44a3.992,3.992,0,0,0,3.952-3.525l9.193-5.306a2,2,0,0,1,3,1.731A1.983,1.983,0,0,1,59.15,41.634Z"></path></g></svg>