<svg xmlns="http://www.w3.org/2000/svg" viewBox="0 0 48 48" x="0px" y="0px"><g data-name="Hot Coffee"><path d="M8,15h2c0-.561.217-.8.707-1.291a3.48,3.48,0,0,0,0-5.413C10.217,7.806,10,7.565,10,7s.217-.8.708-1.294A3.568,3.568,0,0,0,12,3H10c0,.562-.217.8-.708,1.294A3.568,3.568,0,0,0,8,7,3.563,3.563,0,0,0,9.293,9.71c.49.491.707.732.707,1.294s-.217.8-.707,1.29A3.565,3.565,0,0,0,8,15Z"></path><path d="M28,15h2c0-.561.217-.8.707-1.291a3.479,3.479,0,0,0,0-5.413C30.217,7.806,30,7.565,30,7s.217-.8.707-1.294A3.565,3.565,0,0,0,32,3H30c0,.562-.217.8-.707,1.294A3.565,3.565,0,0,0,28,7,3.563,3.563,0,0,0,29.293,9.71c.49.491.707.732.707,1.294s-.217.8-.707,1.29A3.562,3.562,0,0,0,28,15Z"></path><path d="M18,15h2c0-.561.217-.8.707-1.291a3.48,3.48,0,0,0,0-5.413C20.217,7.806,20,7.565,20,7s.217-.8.708-1.294A3.568,3.568,0,0,0,22,3H20c0,.562-.217.8-.708,1.294A3.568,3.568,0,0,0,18,7,3.563,3.563,0,0,0,19.293,9.71c.49.491.707.732.707,1.294s-.217.8-.707,1.29A3.565,3.565,0,0,0,18,15Z"></path><path d="M38.791,20h-2.8c0-.358,0-.7,0-1H4.011C4.005,20.356,4,22.67,4,23c0,8.156,3.383,16.139,8.447,20H27.554c3.364-2.565,5.978-6.954,7.36-12h3.877A5.215,5.215,0,0,0,44,25.791v-.582A5.215,5.215,0,0,0,38.791,20ZM42,25.791A3.213,3.213,0,0,1,38.791,29H35.4a30.361,30.361,0,0,0,.6-6c0-.119,0-.5,0-1h2.793A3.213,3.213,0,0,1,42,25.209Z"></path><rect x="2" y="43" width="36" height="2"></rect></g></svg>