<svg xmlns="http://www.w3.org/2000/svg" viewBox="0 0 64 64" x="0px" y="0px"><g data-name="World Wide"><path d="M16,37H11.025a24.411,24.411,0,0,0,.667,4.982A14.937,14.937,0,0,1,16,41.048Z"></path><path d="M16,23.21c-1.413.567-2.78,2.3-3.728,4.893A12.936,12.936,0,0,0,16,28.952Z"></path><path d="M18,35h4.975a24.411,24.411,0,0,0-.667-4.982A14.937,14.937,0,0,1,18,30.952Z"></path><rect x="37" y="34" width="16" height="10"></rect><path d="M14,12v9.31A14.82,14.82,0,0,1,17,21a15,15,0,0,1,0,30,14.82,14.82,0,0,1-3-.31V59a1,1,0,0,0,1,1H59a1,1,0,0,0,1-1V12ZM55,56H31V54H55Zm0-4H31V50H55Zm0-7a1,1,0,0,1-1,1H36a1,1,0,0,1-1-1V33a1,1,0,0,1,1-1H54a1,1,0,0,1,1,1Zm0-18a1,1,0,0,1-1,1H32V26H53V18H21v1H19V17a1,1,0,0,1,1-1H54a1,1,0,0,1,1,1Z"></path><path d="M16,30.952a14.937,14.937,0,0,1-4.308-.934A24.411,24.411,0,0,0,11.025,35H16Z"></path><path d="M12.213,23.925A12.992,12.992,0,0,0,8.71,26a13.133,13.133,0,0,0,1.77,1.232A14.3,14.3,0,0,1,12.213,23.925Z"></path><path d="M4.051,35H9.026a26.1,26.1,0,0,1,.829-5.822A15.011,15.011,0,0,1,7.28,27.4,12.932,12.932,0,0,0,4.051,35Z"></path><path d="M16,48.79V43.048a12.936,12.936,0,0,0-3.728.849C13.22,46.488,14.587,48.223,16,48.79Z"></path><path d="M7.28,44.6a15.011,15.011,0,0,1,2.575-1.781A26.1,26.1,0,0,1,9.026,37H4.051A12.932,12.932,0,0,0,7.28,44.6Z"></path><path d="M10.48,44.773a13.133,13.133,0,0,0-1.77,1.232,12.992,12.992,0,0,0,3.5,2.07A14.3,14.3,0,0,1,10.48,44.773Z"></path><path d="M26.72,27.4a15.011,15.011,0,0,1-2.575,1.781A26.1,26.1,0,0,1,24.974,35h4.975A12.932,12.932,0,0,0,26.72,27.4Z"></path><path d="M23.52,27.227A13.133,13.133,0,0,0,25.29,26a12.992,12.992,0,0,0-3.5-2.07A14.3,14.3,0,0,1,23.52,27.227Z"></path><path d="M18,48.79c1.413-.567,2.78-2.3,3.728-4.893A12.936,12.936,0,0,0,18,43.048Z"></path><path d="M21.787,48.075a12.992,12.992,0,0,0,3.5-2.07,13.133,13.133,0,0,0-1.77-1.232A14.3,14.3,0,0,1,21.787,48.075Z"></path><path d="M29.949,37H24.974a26.1,26.1,0,0,1-.829,5.822A15.011,15.011,0,0,1,26.72,44.6,12.932,12.932,0,0,0,29.949,37Z"></path><path d="M18,41.048a14.937,14.937,0,0,1,4.308.934A24.411,24.411,0,0,0,22.975,37H18Z"></path><path d="M60,5a1,1,0,0,0-1-1H15a1,1,0,0,0-1,1v5H60ZM20,8H18V6h2Zm4,0H22V6h2Zm4,0H26V6h2Z"></path><path d="M18,23.21v5.742a12.936,12.936,0,0,0,3.728-.849C20.78,25.512,19.413,23.777,18,23.21Z"></path></g></svg>