<svg xmlns="http://www.w3.org/2000/svg" viewBox="0 0 64 64" x="0px" y="0px"><g data-name="Online Order-Smartphone"><circle cx="15" cy="21" r="2"></circle><polygon points="35.378 24 36.365 22 27.618 22 28.618 24 35.378 24"></polygon><path d="M23,39a2,2,0,0,0-2-2H15a2,2,0,0,0,0,4h6A2,2,0,0,0,23,39Z"></path><path d="M32,17a4,4,0,0,0-3.858,3h7.716A4,4,0,0,0,32,17Z"></path><path d="M21,35a2,2,0,0,0,0-4H15a2,2,0,0,0,0,4Z"></path><path d="M21,25H15a2,2,0,0,0,0,4h6a2,2,0,0,0,0-4Z"></path><path d="M41,28a3,3,0,0,0,3,3h2a1,1,0,0,1,1,1V45a5.006,5.006,0,0,1-5,5H25.388l1.333,4H50.153L51,48.917V28a3,3,0,0,0-3-3H44A3,3,0,0,0,41,28Z"></path><rect x="23" y="56" width="30" height="4"></rect><path d="M27,6H37a1,1,0,0,0,1-1V4H26V5A1,1,0,0,0,27,6Z"></path><path d="M22,48H42a3,3,0,0,0,3-3V33H44a5,5,0,0,1,0-10h1V7a3,3,0,0,0-3-3H40V5a3,3,0,0,1-3,3H27a3,3,0,0,1-3-3V4H22a3,3,0,0,0-3,3V23h2a3.983,3.983,0,0,1,2.618,7,3.947,3.947,0,0,1,0,6A3.983,3.983,0,0,1,21,43H19v2A3,3,0,0,0,22,48Zm7-14H27V32h2Zm4,0H31V32h2Zm4,0H35V32h2ZM24,22V20h2.09A6.008,6.008,0,0,1,31,15.09V14h2v1.09A6.008,6.008,0,0,1,37.91,20H40v2H38.6l-1.7,3.442A1,1,0,0,1,36,26H28a1,1,0,0,1-.895-.553L25.382,22Z"></path></g></svg>