<svg xmlns="http://www.w3.org/2000/svg" viewBox="0 0 64 64" x="0px" y="0px"><g><path d="M52,44H50V39a3,3,0,0,1,3-3h4a1,1,0,0,0,1-1V25a1,1,0,0,0-1-1H46V22H57a3,3,0,0,1,3,3V35a3,3,0,0,1-3,3H53a1,1,0,0,0-1,1Z"></path><path d="M9,6h5V4H6V57H16V55H9a1,1,0,0,1-1-1V7A1,1,0,0,1,9,6Z"></path><path d="M44,44V4H36V6h5a1,1,0,0,1,1,1V44Z"></path><rect x="16" y="8" width="18" height="2"></rect><rect x="16" y="4" width="18" height="2"></rect><path d="M19,60H59a1,1,0,0,0,1-1V47a1,1,0,0,0-1-1H19a1,1,0,0,0-1,1V59A1,1,0,0,0,19,60ZM56,48h2v2H56Zm0,4h2v6H56Zm-4-4h2v2H52Zm0,4h2v2H52Zm0,4h2v2H52Zm-4-8h2v2H48Zm0,4h2v2H48Zm-4-4h2v2H44Zm0,4h2v2H44Zm-4-4h2v2H40Zm0,4h2v2H40Zm-4-4h2v2H36Zm0,4h2v2H36Zm-4-4h2v2H32Zm0,4h2v2H32Zm-4-4h2v2H28Zm0,4h2v2H28Zm0,4H50v2H28Zm-4-8h2v2H24Zm0,4h2v2H24Zm0,4h2v2H24Zm-4-8h2v2H20Zm0,4h2v2H20Zm0,4h2v2H20Z"></path><path d="M16,47a3,3,0,0,1,3-3H40V8H36v3a1,1,0,0,1-1,1H15a1,1,0,0,1-1-1V8H10V53h6Zm0-31H38v2H16Zm-4,0h2v2H12Zm0,6H38v2H12Zm0,6H38v2H12Zm0,6H38v2H12Zm0,6H38v2H12Z"></path></g></svg>