<svg xmlns="http://www.w3.org/2000/svg" viewBox="0 0 64 64" x="0px" y="0px"><title>Rose</title><g><path d="M52,26.458c0-.014,0-.027,0-.041a11.073,11.073,0,0,0-.369-2.925A10.924,10.924,0,0,0,46.5,16.813a11.035,11.035,0,0,0-1.01-.515,10.927,10.927,0,0,0-.9-8.672.731.731,0,0,0-.046-.076,10.983,10.983,0,0,0-20.506,4.743,1.007,1.007,0,0,0-.01.191c-.008.172-.026.342-.026.516,0,.041,0,.079,0,.12A10.97,10.97,0,0,0,10.151,28.21a.986.986,0,0,0,.086.168c.08.154.149.31.237.462a10.935,10.935,0,0,0,4.105,4.069l15.39,19.159L29.9,52.1a2.674,2.674,0,0,1-2.465,0,4.67,4.67,0,0,0-4.2,0A2.364,2.364,0,0,1,22,52.4a1,1,0,0,0,0,2,4.3,4.3,0,0,0,2.1-.5,2.682,2.682,0,0,1,2.469,0,4.292,4.292,0,0,0,2.1.5,4.494,4.494,0,0,0,1.132-.136L26.4,58.8A2,2,0,0,0,28,62h8a2,2,0,0,0,1.6-3.2l-3.4-4.537a4.494,4.494,0,0,0,1.132.136,4.292,4.292,0,0,0,2.1-.5,2.682,2.682,0,0,1,2.469,0,4.3,4.3,0,0,0,2.1.5,1,1,0,0,0,0-2,2.364,2.364,0,0,1-1.235-.3,4.67,4.67,0,0,0-4.2,0,2.674,2.674,0,0,1-2.465,0l-.16-.074L45.155,36.519A10.971,10.971,0,0,0,52,26.458Zm-2.3-2.448a8.876,8.876,0,0,1,.205,1.011,10.918,10.918,0,0,0-5.153-.079,3.978,3.978,0,0,0-6.2-1.736,10.805,10.805,0,0,0-4.225-2.863A8.984,8.984,0,0,1,49.693,24.01Zm-31.656-.351a1.97,1.97,0,0,1,2.2-2.295,10.93,10.93,0,0,0-.014,2.433A11.125,11.125,0,0,0,18.037,23.659Zm4.314.705A8.913,8.913,0,0,1,24.6,16.529a10.924,10.924,0,0,0,4.316,5.61,9.009,9.009,0,0,1-1.448,6.215A10.97,10.97,0,0,0,22.351,24.364ZM34.964,13.507A11.126,11.126,0,0,0,33.14,12.3a1.972,1.972,0,0,1,3.052-.889A10.977,10.977,0,0,0,34.964,13.507Zm-.317,2.423a9.22,9.22,0,0,1,.751.954,10.919,10.919,0,0,0-3.538,3.359.986.986,0,0,0-.108.166c-.092.144-.192.281-.278.431-.068.117-.12.239-.183.357a8.321,8.321,0,0,1-.937-.5,8.963,8.963,0,0,1-4.212-6.111,8.226,8.226,0,0,1-.131-1.34A8.851,8.851,0,0,1,28,13,9.064,9.064,0,0,1,34.647,15.93ZM28.105,30.768c.007-.008.015-.014.021-.022A11.055,11.055,0,0,0,30.1,27.667a10.916,10.916,0,0,0,8.289,9.348L32,50.644,24,33.576a10.644,10.644,0,0,0,4.106-2.808Zm8.4,3.366a9,9,0,0,1-3.407-12.072,8.834,8.834,0,0,1,1.844.778,8.978,8.978,0,0,1,3.4,12.09A8.928,8.928,0,0,1,36.5,34.134Zm4.215-7.372a11.076,11.076,0,0,0-.974-1.963,1.971,1.971,0,0,1,3.088.758A10.858,10.858,0,0,0,40.715,26.762Zm-3.5-10.74a11.326,11.326,0,0,0-.694-.949,8.909,8.909,0,0,1,6.639-5.852,8.922,8.922,0,0,1,.44,6.437A11.015,11.015,0,0,0,37.212,16.022ZM35,4a8.985,8.985,0,0,1,7.041,3.41,10.913,10.913,0,0,0-4.5,2.506,3.98,3.98,0,0,0-6.241,1.6,10.8,10.8,0,0,0-5.111-.363A9.015,9.015,0,0,1,35,4ZM15.5,15.546a9,9,0,0,1,7.794-.56A10.934,10.934,0,0,0,20.661,19.4a3.978,3.978,0,0,0-4.6,4.505,10.651,10.651,0,0,0-4.606,2.247A9.015,9.015,0,0,1,15.5,15.546Zm-3.159,12.5a8.886,8.886,0,0,1,1.6-1.209,9.078,9.078,0,0,1,7.227-.785,8.979,8.979,0,0,1,4.944,3.887,8.945,8.945,0,0,1-8.437,2.089,9.059,9.059,0,0,1-1.962-.789l-.032-.018A8.9,8.9,0,0,1,12.341,28.049Zm7.678,6.289a11,11,0,0,0,2.029-.213l5.5,11.741-9.4-11.708A11.053,11.053,0,0,0,20.019,34.338ZM28,60l4-5.333L36,60Zm9.407-16.183L40.459,37.3c.174.009.349.034.522.034a11.079,11.079,0,0,0,1.167-.075Zm2.984-8.509a10.973,10.973,0,0,0,.9-6.42,8.9,8.9,0,0,1,8.67-1.742,8.969,8.969,0,0,1-9.567,8.162Z"></path></g></svg>