<svg xmlns="http://www.w3.org/2000/svg" viewBox="0 0 64 64" x="0px" y="0px"><title>Camera-Photo-Book</title><g><path d="M15,12H53V38h2V3a1,1,0,0,0-1-1H14A5.006,5.006,0,0,0,9,7V57a5.006,5.006,0,0,0,5,5H36V60H15ZM14,4H53V6H15V8H53v2H14a3,3,0,0,1,0-6ZM11,57V10.974a4.954,4.954,0,0,0,2,.925V59.816A3,3,0,0,1,11,57Z"></path><path d="M20,16a1,1,0,0,0-1,1V27a1,1,0,0,0,1,1H48a1,1,0,0,0,1-1V17a1,1,0,0,0-1-1ZM47,26H21V18H47Z"></path><path d="M49,47a6,6,0,1,0,6,6A6.006,6.006,0,0,0,49,47Zm0,10a4,4,0,1,1,4-4A4,4,0,0,1,49,57Z"></path><path d="M58,46H55.618L53.9,42.553A1,1,0,0,0,53,42H45a1,1,0,0,0-.9.553L42.382,46H40a2,2,0,0,0-2,2V60a2,2,0,0,0,2,2H58a2,2,0,0,0,2-2V48A2,2,0,0,0,58,46Zm0,14H40V48h3a1,1,0,0,0,.9-.553L45.618,44h6.764l1.723,3.447A1,1,0,0,0,55,48h3Z"></path></g></svg>