<svg xmlns="http://www.w3.org/2000/svg" viewBox="0 0 64 64" x="0px" y="0px"><g><path d="M61,22H38.616a11.943,11.943,0,0,0-13.232,0H3a1,1,0,0,0-1,1V41a1,1,0,0,0,1,1H5v3a1,1,0,0,0,1,1h6a1,1,0,0,0,1-1V42H25.384a11.943,11.943,0,0,0,13.232,0H51v3a1,1,0,0,0,1,1h6a1,1,0,0,0,1-1V42h2a1,1,0,0,0,1-1V23A1,1,0,0,0,61,22ZM11,44H7V42h4ZM4,40V24H23.061c-.021.023-.038.048-.058.071-.062.07-.117.145-.177.217q-.331.393-.626.81-.117.168-.228.339-.263.4-.491.821c-.057.1-.117.206-.171.311a11.961,11.961,0,0,0-.524,1.174c-.023.058-.038.119-.06.178-.126.346-.235.7-.328,1.056-.035.131-.063.263-.093.395-.069.307-.126.616-.171.929-.018.129-.04.258-.054.388a10.782,10.782,0,0,0,0,2.622c.014.13.036.259.054.388.045.313.1.622.171.929.03.132.058.264.093.394q.14.535.327,1.054c.022.06.038.122.061.182a11.9,11.9,0,0,0,.523,1.171c.055.107.116.211.174.316.152.278.313.549.486.814.076.117.153.231.233.345q.291.413.618.8c.062.074.119.152.184.225.019.023.037.048.057.07Zm22.255.182A10.016,10.016,0,0,1,22,32a9.359,9.359,0,0,1,.4-2.74,10.023,10.023,0,0,1,3.857-5.444,9.988,9.988,0,0,1,11.488,0A10.016,10.016,0,0,1,42,32a9.9,9.9,0,0,1-.074,1.208,10.023,10.023,0,0,1-4.183,6.976,9.988,9.988,0,0,1-11.488,0ZM57,44H53V42h4Zm3-4H40.939c.021-.023.038-.048.059-.071.061-.07.116-.145.176-.216q.33-.393.626-.811.117-.168.228-.339.263-.4.491-.821c.057-.1.117-.206.171-.311a11.961,11.961,0,0,0,.524-1.174c.023-.058.038-.119.06-.178q.189-.519.328-1.057c.035-.131.063-.262.093-.394.069-.307.126-.616.171-.929.018-.129.04-.258.054-.388a10.782,10.782,0,0,0,0-2.622c-.014-.13-.036-.259-.054-.388-.045-.313-.1-.622-.171-.929-.03-.132-.058-.264-.093-.394q-.139-.536-.327-1.054c-.022-.06-.038-.122-.061-.182a11.9,11.9,0,0,0-.523-1.171c-.055-.107-.116-.211-.174-.316-.152-.278-.313-.549-.486-.814-.076-.117-.153-.231-.233-.345q-.291-.412-.618-.8c-.062-.074-.119-.152-.184-.225-.019-.023-.037-.048-.057-.07H60Z"></path><path d="M32,24a8,8,0,1,0,8,8A8.009,8.009,0,0,0,32,24Zm0,14a6,6,0,1,1,6-6A6.006,6.006,0,0,1,32,38Z"></path><rect x="48" y="27" width="2" height="2"></rect><rect x="52" y="27" width="2" height="2"></rect><rect x="56" y="27" width="2" height="2"></rect><rect x="48" y="31" width="2" height="2"></rect><rect x="52" y="31" width="2" height="2"></rect><rect x="56" y="31" width="2" height="2"></rect><rect x="48" y="35" width="2" height="2"></rect><rect x="52" y="35" width="2" height="2"></rect><rect x="56" y="35" width="2" height="2"></rect><rect x="14" y="27" width="2" height="2"></rect><rect x="10" y="27" width="2" height="2"></rect><rect x="6" y="27" width="2" height="2"></rect><rect x="14" y="31" width="2" height="2"></rect><rect x="10" y="31" width="2" height="2"></rect><rect x="6" y="31" width="2" height="2"></rect><rect x="14" y="35" width="2" height="2"></rect><rect x="10" y="35" width="2" height="2"></rect><rect x="6" y="35" width="2" height="2"></rect></g></svg>