<svg xmlns="http://www.w3.org/2000/svg" viewBox="0 0 64 64" x="0px" y="0px"><g><path d="M8,54v3a3.009,3.009,0,0,0,3,3H39a3.009,3.009,0,0,0,3-3V54Zm20,4H22V56h6Z"></path><path d="M20.757,33.414a2,2,0,1,0,2.829,2.829l2.121-2.122-2.828-2.828Z"></path><path d="M27.829,27.173a2,2,0,0,0-1.415.584l-2.121,2.122,2.828,2.828,2.122-2.121a2,2,0,0,0-1.414-3.413Z"></path><path d="M39,4H11A3.009,3.009,0,0,0,8,7v3H42V7A3.009,3.009,0,0,0,39,4ZM14,8H12V6h2Zm6,0H16V6h4Z"></path><path d="M55,16H41a1,1,0,0,0-1,1v8a1,1,0,0,0,1,1h4a1,1,0,0,1,1,1v2.15l2.22-2.77A1,1,0,0,1,49,26h6a1,1,0,0,0,1-1V17A1,1,0,0,0,55,16ZM45,22H43V20h2Zm4,0H47V20h2Zm4,0H51V20h2Z"></path><path d="M25,21A11,11,0,1,0,36,32,11.007,11.007,0,0,0,25,21Zm5.66,11L25,37.66A4,4,0,0,1,19.34,32L25,26.34A4,4,0,0,1,30.66,32Z"></path><path d="M41,14h1V12H8V52H42V28H41a3.009,3.009,0,0,1-3-3V17A3.009,3.009,0,0,1,41,14ZM25,45A13,13,0,1,1,38,32,13.012,13.012,0,0,1,25,45Z"></path></g></svg>