<svg xmlns="http://www.w3.org/2000/svg" viewBox="0 0 64 64" x="0px" y="0px"><g><rect x="10" y="50" width="2" height="2"></rect><rect x="14" y="50" width="2" height="2"></rect><rect x="18" y="50" width="20" height="2"></rect><rect x="40" y="50" width="2" height="2"></rect><rect x="44" y="50" width="2" height="2"></rect><rect x="15" y="46" width="2" height="2"></rect><rect x="11" y="46" width="2" height="2"></rect><rect x="19" y="46" width="2" height="2"></rect><rect x="23" y="46" width="2" height="2"></rect><rect x="27" y="46" width="2" height="2"></rect><rect x="31" y="46" width="2" height="2"></rect><rect x="35" y="46" width="2" height="2"></rect><rect x="39" y="46" width="2" height="2"></rect><rect x="43" y="46" width="2" height="2"></rect><path d="M59,2H31a3,3,0,0,0-3,3v7H24V7A5,5,0,0,0,14,7v5H11a3,3,0,0,0-3,3V42.764L2.105,54.553A1,1,0,0,0,2,55v5a2,2,0,0,0,2,2H52a2,2,0,0,0,2-2V55a1,1,0,0,0-.1-.447L48,42.764V38H59a3,3,0,0,0,3-3V5A3,3,0,0,0,59,2ZM31,4H59a1,1,0,0,1,1,1v5H30V5A1,1,0,0,1,31,4Zm0,32a1,1,0,0,1-1-1V12h4V36ZM22,11H16V10h6Zm0,2V27.184a2.846,2.846,0,0,0-2-.005V15H18V27.179a2.846,2.846,0,0,0-2,.005V13ZM18,35h2v2a1,1,0,0,1-2,0Zm2.382-2H17.618l-1.584-3.168A.988.988,0,0,1,17,29a1,1,0,0,1,1,1,1,1,0,0,0,2,0,1,1,0,0,1,1-1,.988.988,0,0,1,.966.832ZM19,4a3,3,0,0,1,3,3V8H16V7A3,3,0,0,1,19,4ZM51.382,54H4.618l5-10H46.382ZM25,56h6v1H25ZM4,60V56H23v1a2,2,0,0,0,2,2h6a2,2,0,0,0,2-2V56H52v4ZM46,42H10V15a1,1,0,0,1,1-1h3V30a1,1,0,0,0,.105.447L16,34.236V37a3,3,0,0,0,6,0V34.236L23.9,30.447A1,1,0,0,0,24,30V14h4V35a3,3,0,0,0,3,3H46Zm13-6H36V12H60V35A1,1,0,0,1,59,36Z"></path><rect x="32" y="6" width="2" height="2"></rect><rect x="36" y="6" width="2" height="2"></rect><rect x="40" y="6" width="2" height="2"></rect><rect x="40" y="16" width="2" height="2"></rect><rect x="44" y="16" width="12" height="2"></rect><rect x="40" y="20" width="2" height="2"></rect><rect x="44" y="20" width="12" height="2"></rect><rect x="40" y="24" width="16" height="2"></rect><rect x="40" y="28" width="16" height="2"></rect></g></svg>