<svg xmlns="http://www.w3.org/2000/svg" viewBox="0 0 64 64" x="0px" y="0px"><g><rect x="31" y="47" width="2" height="2"></rect><rect x="38" y="54" width="2" height="2"></rect><rect x="10" y="54" width="2" height="2"></rect><rect x="17" y="54" width="2" height="2"></rect><rect x="31" y="54" width="2" height="2"></rect><rect x="24" y="47" width="2" height="2"></rect><rect x="38" y="47" width="2" height="2"></rect><rect x="17" y="47" width="2" height="2"></rect><rect x="45" y="54" width="2" height="2"></rect><rect x="4" y="34" width="2" height="8"></rect><rect x="52" y="54" width="2" height="2"></rect><path d="M60,52.357h0L51.526,42H12.474L4,52.356V60H60ZM14,57a1,1,0,0,1-1,1H9a1,1,0,0,1-1-1V53a1,1,0,0,1,1-1h4a1,1,0,0,1,1,1Zm7,0a1,1,0,0,1-1,1H16a1,1,0,0,1-1-1V53a1,1,0,0,1,1-1h4a1,1,0,0,1,1,1Zm0-7a1,1,0,0,1-1,1H16a1,1,0,0,1-1-1V46a1,1,0,0,1,1-1h4a1,1,0,0,1,1,1Zm7,7a1,1,0,0,1-1,1H23a1,1,0,0,1-1-1V53a1,1,0,0,1,1-1h4a1,1,0,0,1,1,1Zm0-7a1,1,0,0,1-1,1H23a1,1,0,0,1-1-1V46a1,1,0,0,1,1-1h4a1,1,0,0,1,1,1Zm7,7a1,1,0,0,1-1,1H30a1,1,0,0,1-1-1V53a1,1,0,0,1,1-1h4a1,1,0,0,1,1,1Zm0-7a1,1,0,0,1-1,1H30a1,1,0,0,1-1-1V46a1,1,0,0,1,1-1h4a1,1,0,0,1,1,1Zm7,7a1,1,0,0,1-1,1H37a1,1,0,0,1-1-1V53a1,1,0,0,1,1-1h4a1,1,0,0,1,1,1Zm0-7a1,1,0,0,1-1,1H37a1,1,0,0,1-1-1V46a1,1,0,0,1,1-1h4a1,1,0,0,1,1,1Zm7,7a1,1,0,0,1-1,1H44a1,1,0,0,1-1-1V53a1,1,0,0,1,1-1h4a1,1,0,0,1,1,1Zm0-7a1,1,0,0,1-1,1H44a1,1,0,0,1-1-1V46a1,1,0,0,1,1-1h4a1,1,0,0,1,1,1Zm7,7a1,1,0,0,1-1,1H51a1,1,0,0,1-1-1V53a1,1,0,0,1,1-1h4a1,1,0,0,1,1,1Z"></path><path d="M16,34H48V7a4.948,4.948,0,0,1,1.026-3H19a3,3,0,0,0-3,3Zm28-8H37V24h7Zm0-4H38V20h6Zm0-8H34V12H44ZM36,8h8v2H36ZM30,8h4v2H30ZM20,8h8v2H20Zm0,4H32v2H20Zm0,4H44v2H20Zm16,4v2H32V20ZM20,20H30v2H20Zm0,4H35v2H20Zm0,4H44v2H20Z"></path><rect x="8" y="36" width="48" height="4"></rect><rect x="24" y="54" width="2" height="2"></rect><rect x="45" y="47" width="2" height="2"></rect><path d="M53,4a3,3,0,0,0-3,3v3h6V7A3,3,0,0,0,53,4Z"></path></g></svg>