<svg xmlns="http://www.w3.org/2000/svg" viewBox="0 0 64 64" x="0px" y="0px"><g><rect x="23" y="54" width="6" height="2"></rect><path d="M21,60H31a1,1,0,0,0,0-2H21a1,1,0,0,0,0,2Z"></path><path d="M18.47,20l3.259,21.147A1,1,0,0,0,22.72,42h6.56a1,1,0,0,0,.991-.851L33.53,20H33v3a3,3,0,0,1-3,3,3.015,3.015,0,0,1-3-3V20a.989.989,0,0,0-.133-.5.876.876,0,0,0-.136-.181A1,1,0,0,0,25,20v1a3,3,0,0,1-3,3,3.015,3.015,0,0,1-3-3V20Zm9.535,6.9,1.99.2-1,10-1.99-.2ZM24,26.9l1,10-1.99.2-1-10Z"></path><rect x="25" y="44" width="2" height="8"></rect><path d="M26,11a6.146,6.146,0,0,1-.09,1h8.061A4.923,4.923,0,0,0,35,9a4.988,4.988,0,0,0-9.864-1.065A5.915,5.915,0,0,1,26,11Z"></path><path d="M36,16a1.983,1.983,0,0,0-.587-1.413,1.944,1.944,0,0,0-1.118-.556A1.325,1.325,0,0,0,34,14H18a1.988,1.988,0,0,0-1.4.574A1.954,1.954,0,0,0,16,16a1.983,1.983,0,0,0,.587,1.413,2.006,2.006,0,0,0,.937.525A1.842,1.842,0,0,0,18,18h2a1,1,0,0,1,1,1v2a.965.965,0,0,0,.287.694A.978.978,0,0,0,22,22a1,1,0,0,0,1-1V20a3,3,0,0,1,3-3,2.944,2.944,0,0,1,2.126.892,2.751,2.751,0,0,1,.46.59A3,3,0,0,1,29,20v3a.965.965,0,0,0,.287.694A.978.978,0,0,0,30,24a1,1,0,0,0,1-1V19a1,1,0,0,1,1-1h2a1.805,1.805,0,0,0,.457-.057A1.982,1.982,0,0,0,36,16Z"></path><path d="M16.267,12.412A3.974,3.974,0,0,1,18,12h5.868c.009-.035.028-.076.036-.111A4.057,4.057,0,0,0,24,11a3.946,3.946,0,0,0-.741-2.316,3.992,3.992,0,0,0-6.992,3.728Z"></path><path d="M46.344,39.564A1,1,0,0,1,46,38.809V16a1,1,0,0,0-2,0V38.809a1,1,0,0,1-.344.755A5.985,5.985,0,0,0,42,44c0,2.71,1.374,5,3,5s3-2.29,3-5A5.985,5.985,0,0,0,46.344,39.564Z"></path></g></svg>