<svg xmlns="http://www.w3.org/2000/svg" viewBox="0 0 64 64" x="0px" y="0px"><g><path d="M21.073,58.8l1.813.846a1,1,0,0,0,1.328-.484l6.34-13.6-2.355-1.1-1.27-.592-6.34,13.6a1,1,0,0,0,.484,1.328Z"></path><polygon points="29.79 40.098 28.679 42.485 28.961 42.617 30.496 43.331 30.896 42.471 29.79 40.098"></polygon><path d="M34.759,42.747l.561-.261-1.731-3.7c-.03.008-.062.009-.092.017a6.082,6.082,0,0,1-.9.166c-.055.006-.112.005-.167.009-.143.011-.286.024-.429.024s-.284-.013-.425-.023c-.034,0-.066,0-.1,0l1.431,3.069v0l.6,1.282Z"></path><path d="M28.6,28.061,17.61,4.513a5.017,5.017,0,0,0-1.553,6.137l10.01,21.457a5.925,5.925,0,0,1,.162-.727c.019-.066.041-.13.062-.2q.09-.282.207-.553c.025-.06.049-.12.077-.179a6.005,6.005,0,0,1,.359-.66c.02-.031.043-.06.063-.09a6.111,6.111,0,0,1,.386-.522c.047-.056.094-.111.143-.165a5.8,5.8,0,0,1,.433-.44c.037-.034.071-.07.109-.1A5.882,5.882,0,0,1,28.6,28.061Z"></path><path d="M47.944,10.647A5.016,5.016,0,0,0,46.39,4.513L35.4,28.061a5.658,5.658,0,0,1,.526.41c.043.037.082.078.124.117a5.926,5.926,0,0,1,.416.423c.052.058.1.116.151.176a5.83,5.83,0,0,1,.376.507c.023.034.049.066.071.1a6.018,6.018,0,0,1,.356.656c.029.061.053.123.08.184q.116.268.205.549c.021.065.043.13.062.2a5.967,5.967,0,0,1,.162.727Z"></path><path d="M40.35,59.678a1,1,0,0,0,.764-.033l1.813-.846a1,1,0,0,0,.484-1.328l-6.34-13.595-1.27.592-2.355,1.1,6.34,13.6A.991.991,0,0,0,40.35,59.678Z"></path><path d="M31.128,36.9a4.081,4.081,0,0,0,1.712,0l.016,0a3.889,3.889,0,0,0,.83-.276,1.364,1.364,0,0,0,.144-.072,3.99,3.99,0,0,0,2.056-2.62l0-.013A3.931,3.931,0,0,0,36,33a4,4,0,0,0-5.686-3.625l0,0h0a3.907,3.907,0,0,0-.5.276,4.006,4.006,0,0,0-1.768,2.771,3.9,3.9,0,0,0,.07,1.5,3.969,3.969,0,0,0,2,2.595l.117.061a.671.671,0,0,1,.11.046,3.439,3.439,0,0,0,.771.272ZM30,33a2,2,0,1,1,2,2A2,2,0,0,1,30,33Z"></path></g></svg>