<svg xmlns="http://www.w3.org/2000/svg" viewBox="0 0 64 64" x="0px" y="0px"><g data-name="Calendar-Passive-Date and Time-Schedule-Money"><path d="M40.18,31.18c-.01,0-.01,0-.02.01v-.01Z"></path><rect x="8" y="22" width="5.001" height="5"></rect><rect x="30" y="33" width="5.001" height="5"></rect><rect x="8" y="33" width="5.001" height="5"></rect><rect x="19" y="22" width="5.001" height="5"></rect><path d="M42,56H41v2H39V56H37v2H35V56H33v2H31V56H30a1,1,0,0,0-1,1v2a1,1,0,0,0,1,1H42a1,1,0,0,0,1-1V57A1,1,0,0,0,42,56Z"></path><rect x="19" y="33" width="5.001" height="5"></rect><path d="M46,44a1,1,0,0,0-1,1v2a1,1,0,0,0,1,1H58a1,1,0,0,0,1-1V45a1,1,0,0,0-1-1H57v2H55V44H53v2H51V44H49v2H47V44Z"></path><path d="M30,50a1,1,0,0,0-1,1v2a1,1,0,0,0,1,1H42a1,1,0,0,0,1-1V51a1,1,0,0,0-1-1H41v2H39V50H37v2H35V50H33v2H31V50Z"></path><path d="M45,53a1,1,0,0,0,1,1H58a1,1,0,0,0,1-1V51a1,1,0,0,0-1-1H57v2H55V50H53v2H51V50H49v2H47V50H46a1,1,0,0,0-1,1Z"></path><path d="M46,60H58a1,1,0,0,0,1-1V57a1,1,0,0,0-1-1H57v2H55V56H53v2H51V56H49v2H47V56H46a1,1,0,0,0-1,1v2A1,1,0,0,0,46,60Z"></path><rect x="8" y="44" width="5.001" height="5"></rect><rect x="19" y="44" width="5.001" height="5"></rect><path d="M41.73,35.23,41,33.35V38h2.54A7.879,7.879,0,0,1,41.73,35.23ZM43,47V45a2.772,2.772,0,0,1,.18-1H41v4h1a2.923,2.923,0,0,1,1.32.32A2.923,2.923,0,0,1,43,47ZM30,44v4h5V44ZM40.16,31.19c.01-.01.01-.01.02-.01h.01A1.847,1.847,0,0,1,41,31h.31l3.16-.51a7.645,7.645,0,0,1,1.26-.1A8.006,8.006,0,0,1,50,31.63V18H4V52a1,1,0,0,0,1,1H27V51a3.008,3.008,0,0,1,1-2.23V44a2.006,2.006,0,0,1,2-2h5a2.006,2.006,0,0,1,2,2v4h2V44a2.006,2.006,0,0,1,2-2h8V40.36A7.676,7.676,0,0,1,46.8,40H41a2.006,2.006,0,0,1-2-2V33A2,2,0,0,1,40.16,31.19ZM39,22a2.006,2.006,0,0,1,2-2h5a2.006,2.006,0,0,1,2,2v5a2.006,2.006,0,0,1-2,2H41a2.006,2.006,0,0,1-2-2ZM15,49a2.006,2.006,0,0,1-2,2H8a2.006,2.006,0,0,1-2-2V44a2.006,2.006,0,0,1,2-2h5a2.006,2.006,0,0,1,2,2Zm0-11a2.006,2.006,0,0,1-2,2H8a2.006,2.006,0,0,1-2-2V33a2.006,2.006,0,0,1,2-2h5a2.006,2.006,0,0,1,2,2Zm0-11a2.006,2.006,0,0,1-2,2H8a2.006,2.006,0,0,1-2-2V22a2.006,2.006,0,0,1,2-2h5a2.006,2.006,0,0,1,2,2ZM26,49a2.006,2.006,0,0,1-2,2H19a2.006,2.006,0,0,1-2-2V44a2.006,2.006,0,0,1,2-2h5a2.006,2.006,0,0,1,2,2Zm0-11a2.006,2.006,0,0,1-2,2H19a2.006,2.006,0,0,1-2-2V33a2.006,2.006,0,0,1,2-2h5a2.006,2.006,0,0,1,2,2Zm0-11a2.006,2.006,0,0,1-2,2H19a2.006,2.006,0,0,1-2-2V22a2.006,2.006,0,0,1,2-2h5a2.006,2.006,0,0,1,2,2ZM37,38a2.006,2.006,0,0,1-2,2H30a2.006,2.006,0,0,1-2-2V33a2.006,2.006,0,0,1,2-2h5a2.006,2.006,0,0,1,2,2Zm0-11a2.006,2.006,0,0,1-2,2H30a2.006,2.006,0,0,1-2-2V22a2.006,2.006,0,0,1,2-2h5a2.006,2.006,0,0,1,2,2Z"></path><path d="M5,9a1,1,0,0,0-1,1v6H50V10a1,1,0,0,0-1-1H41v2a3,3,0,0,1-6,0V9H19v2a3,3,0,0,1-6,0V9Z"></path><path d="M15,11a1,1,0,0,0,2,0V5a1,1,0,0,0-2,0Z"></path><rect x="41" y="22" width="5.001" height="5"></rect><rect x="30" y="22" width="5.001" height="5"></rect><path d="M37,11a1,1,0,0,0,2,0V5a1,1,0,0,0-2,0Z"></path><path d="M59.21,32.46a5.99,5.99,0,0,0-6.53,3.78L52,38l-.68-1.76a5.99,5.99,0,0,0-6.53-3.78l-1.87.3.68,1.76a5.983,5.983,0,0,0,6.53,3.77l.87-.135V42h2V38.155l.87.135a5.983,5.983,0,0,0,6.53-3.77l.68-1.76Z"></path></g></svg>