<svg xmlns="http://www.w3.org/2000/svg" viewBox="0 0 64 64" x="0px" y="0px"><g data-name="Cash-Bill"><path d="M24,17v1.184A2.966,2.966,0,0,1,25,18H59a2.966,2.966,0,0,1,1,.184V17a1,1,0,0,0-1-1H25A1,1,0,0,0,24,17Z"></path><path d="M41.2,7.6,39,4.667,36.8,7.6a1.036,1.036,0,0,1-1.6,0L33,4.667,30.8,7.6a1.036,1.036,0,0,1-1.6,0L27,4.667,24.8,7.6a1.036,1.036,0,0,1-1.6,0L21,4.667,18.8,7.6a1.036,1.036,0,0,1-1.6,0L15,4.667,12.8,7.6a1.036,1.036,0,0,1-1.6,0L9,4.667,6.8,7.6a1.036,1.036,0,0,1-1.6,0L4,6V58l1.2-1.6a1.036,1.036,0,0,1,1.6,0L9,59.333,11.2,56.4a1.036,1.036,0,0,1,1.6,0L15,59.333,17.2,56.4a1.036,1.036,0,0,1,1.6,0L21,59.333,23.2,56.4a1.036,1.036,0,0,1,1.6,0L27,59.333,29.2,56.4a1.036,1.036,0,0,1,1.6,0L33,59.333,35.2,56.4a1.036,1.036,0,0,1,1.6,0L39,59.333,41.2,56.4a1.036,1.036,0,0,1,1.6,0L44,58V40H25a3,3,0,0,1-3-3V17a3,3,0,0,1,3-3H44V6L42.8,7.6A1.036,1.036,0,0,1,41.2,7.6ZM20,30v2H16V30Zm-4,6V34h4v2Zm4,2v2H16V38ZM14,52H8V50h6Zm0-4H8V46h6Zm0-4H8V42h6Zm0-4H8V38h6Zm0-4H8V34h6Zm0-4H8V30h6Zm-1-8v2H11V24a3,3,0,0,1-3-3h2a1,1,0,0,0,1,1h2a1,1,0,0,0,0-2H11a3,3,0,0,1,0-6V12h2v2a3,3,0,0,1,3,3H14a1,1,0,0,0-1-1H11a1,1,0,0,0,0,2h2a3,3,0,0,1,0,6ZM40,52H16V50H40Zm0-4H16V46H40Zm0-6v2H16V42Z"></path><circle cx="42" cy="29" r="5"></circle><path d="M60,37V21a1,1,0,0,0-1-1H25a1,1,0,0,0-1,1V37a1,1,0,0,0,1,1H59A1,1,0,0,0,60,37ZM26,23a1,1,0,0,1,1-1h4v2H28v3H26Zm5,13H27a1,1,0,0,1-1-1V31h2v3h3Zm2-6H31V28h2Zm9,6a7,7,0,1,1,7-7A7.008,7.008,0,0,1,42,36Zm9-8h2v2H51Zm7,7a1,1,0,0,1-1,1H53V34h3V31h2Zm0-8H56V24H53V22h4a1,1,0,0,1,1,1Z"></path></g></svg>