<svg xmlns="http://www.w3.org/2000/svg" viewBox="0 0 48 48" x="0px" y="0px"><g data-name="E mail"><rect x="6" y="16" width="2" height="2"></rect><rect x="3" y="20" width="5" height="2"></rect><rect x="1" y="24" width="7" height="2"></rect><path d="M40,8H10a3.009,3.009,0,0,0-3,3v4H28a1.048,1.048,0,0,1,.36.07.879.879,0,0,1,.1.06.986.986,0,0,1,.2.13.812.812,0,0,1,.09.1,2.028,2.028,0,0,1,.13.18,1.122,1.122,0,0,1,.05.13c.01.03.03.05.04.08a.86.86,0,0,1,.01.16c0,.03.02.06.02.09V26a1,1,0,0,1-1,1H7v7H43V11A3.009,3.009,0,0,0,40,8Zm1,23a1,1,0,0,1-1,1H10a1,1,0,0,1-1-1V29h2v1H39V12H11v1H9V11a1,1,0,0,1,1-1H40a1,1,0,0,1,1,1ZM31,22V20h2v2Z"></path><path d="M27,17.7V25H11V17.7l7.51,4.17a.988.988,0,0,0,.98,0Z"></path><path d="M29,36a1,1,0,0,1-1,1H22a1,1,0,0,1-1-1H5v2H45V36H29Z"></path><polygon points="24.141 17 13.859 17 19 19.856 24.141 17"></polygon></g></svg>