<svg xmlns="http://www.w3.org/2000/svg" viewBox="0 0 64 64" x="0px" y="0px"><g data-name="Movie Recorder"><path d="M40,50H32a1,1,0,0,1-1-1V46H27a1,1,0,0,1-1-1V27a1,1,0,0,1,1-1h2.026A4.948,4.948,0,0,1,28,23a5,5,0,0,1,10,0,4.948,4.948,0,0,1-1.026,3H40v-.111a6.976,6.976,0,0,1,0-9.778V7a3,3,0,0,0-3-3H32V5a3,3,0,0,1-3,3H17a3,3,0,0,1-3-3V4H9A3,3,0,0,0,6,7V57a3,3,0,0,0,3,3H37a3,3,0,0,0,3-3ZM8,30h4v2H8Zm2,14H8V42h2Zm4,0H12V42h2Zm8,0H16V42h6Zm0-4H8V38H22Zm0-4H8V34H22Zm0-4H14V30h8Zm-6-6a8,8,0,1,1,8-8A8.009,8.009,0,0,1,16,26Z"></path><path d="M17,6H29a1,1,0,0,0,1-1V4H16V5A1,1,0,0,0,17,6Z"></path><path d="M16,12a6,6,0,1,0,6,6A6.006,6.006,0,0,0,16,12Zm3.307,7.664-3.2,2.132A2,2,0,0,1,13,20.132V15.868A2,2,0,0,1,16.109,14.2l3.2,2.132a2,2,0,0,1,0,3.328Z"></path><rect x="58" y="30" width="2" height="12"></rect><path d="M45,26a5,5,0,1,0-5-5A5.006,5.006,0,0,0,45,26Zm2-6h2v2H47Zm-3-3h2v2H44Zm0,6h2v2H44Zm-1-3v2H41V20Z"></path><polygon points="15 20.138 18.197 18 15 15.868 15 20.138"></polygon><path d="M50,28H28V44H50ZM48,40a2,2,0,0,1-2,2H32a2,2,0,0,1-2-2V32a2,2,0,0,1,2-2H46a2,2,0,0,1,2,2Z"></path><rect x="32" y="32" width="4" height="8"></rect><rect x="38" y="32" width="8.001" height="8"></rect><rect x="33" y="46" width="12" height="2"></rect><path d="M30,23a3,3,0,1,0,3-3A3,3,0,0,0,30,23Zm4,1H32V22h2Z"></path><path d="M55.293,39.879l.707.707V31.414l-.707.707A2.978,2.978,0,0,1,53.172,33H52v6h1.172A2.978,2.978,0,0,1,55.293,39.879Z"></path></g></svg>