<svg xmlns="http://www.w3.org/2000/svg" viewBox="0 0 64 64" x="0px" y="0px"><g><path d="M33,22a3.009,3.009,0,0,0,3,3h2a3.009,3.009,0,0,0,3-3V19H37a2,2,0,1,1-2,2,2,2,0,0,1,2-2H33Z"></path><path d="M42,13a1,1,0,0,1,1,1v3a3.957,3.957,0,0,1,2.98,1.36c.01-.12.02-.24.02-.36A13.968,13.968,0,0,0,39.38,6.13a14.916,14.916,0,0,1-2.57,4.95A7.888,7.888,0,0,0,42,13Z"></path><path d="M41,14.95a10.051,10.051,0,0,1-5.52-2.38A18.2,18.2,0,0,1,28.25,17H41Z"></path><path d="M43,25h-.05a10.919,10.919,0,0,1-3.17,6.78A11.5,11.5,0,0,1,38,33.21,2.973,2.973,0,0,0,40,34a3.007,3.007,0,0,0,2.83-2.01,1,1,0,0,1,1.5-.5A2.889,2.889,0,0,0,46,32a3.009,3.009,0,0,0,3-3,2.964,2.964,0,0,0-.51-1.67.99.99,0,0,1-.13-.88,1.035,1.035,0,0,1,.62-.64A2.968,2.968,0,0,0,51,23a2.935,2.935,0,0,0-3.8-2.87.968.968,0,0,1-.29.02A4,4,0,0,1,43,25Z"></path><path d="M18.02,18.36A3.957,3.957,0,0,1,21,17a1,1,0,0,1,1-1,16.725,16.725,0,0,0,12.7-5.5,13.117,13.117,0,0,0,2.88-5.33A13.87,13.87,0,0,0,32,4,14.015,14.015,0,0,0,18,18C18,18.12,18.01,18.24,18.02,18.36Z"></path><path d="M15.02,25.81a1.035,1.035,0,0,1,.62.64.99.99,0,0,1-.13.88A2.964,2.964,0,0,0,15,29a3.009,3.009,0,0,0,3,3,2.889,2.889,0,0,0,1.67-.51,1,1,0,0,1,1.5.5A3.007,3.007,0,0,0,24,34a2.96,2.96,0,0,0,2.01-.8A10.9,10.9,0,0,1,21.07,25H21a4.006,4.006,0,0,1-3.91-4.85.968.968,0,0,1-.29-.02,2.977,2.977,0,0,0-1.78,5.68Z"></path><path d="M45.03,60H51V50.88a6.964,6.964,0,0,0-4.91-6.68l-5.88-1.83A4,4,0,0,1,37,44H27a4,4,0,0,1-3.21-1.63L17.91,44.2A6.964,6.964,0,0,0,13,50.88V60h5.97a2.655,2.655,0,0,0-.45-1.23A8.855,8.855,0,0,1,17,54a8.723,8.723,0,0,1,2.29-5.71l1.42,1.42A6.609,6.609,0,0,0,19,54a6.723,6.723,0,0,0,1.18,3.64A4.846,4.846,0,0,1,20.97,60H43.03a4.846,4.846,0,0,1,.79-2.36A6.723,6.723,0,0,0,45,54a6.609,6.609,0,0,0-1.71-4.29l1.42-1.42A8.723,8.723,0,0,1,47,54a8.855,8.855,0,0,1-1.52,4.77A2.615,2.615,0,0,0,45.03,60Z"></path><path d="M29,34.56V36h6V34.56a10.447,10.447,0,0,1-6,0Z"></path><path d="M27.95,32.04a9.086,9.086,0,0,0,8.1,0,8.823,8.823,0,0,0,2.31-1.68,8.933,8.933,0,0,0,2.36-4.18A4.872,4.872,0,0,1,38,27H36a4.994,4.994,0,0,1-4-2.03A4.994,4.994,0,0,1,28,27H26a5,5,0,0,1-2.72-.81A9,9,0,0,0,27.95,32.04Zm1.922-4.922a3.082,3.082,0,0,0,4.256,0l1.4,1.424a5.007,5.007,0,0,1-7.064,0Z"></path><path d="M43,19v4a2.015,2.015,0,0,0,2-2A2.006,2.006,0,0,0,43,19Z"></path><path d="M27,42H37a2,2,0,0,0,0-4H27a2,2,0,0,0,0,4Z"></path><path d="M19.59,22.41A1.983,1.983,0,0,0,21,23V19a2.006,2.006,0,0,0-2,2A1.983,1.983,0,0,0,19.59,22.41Z"></path><path d="M29,21a2,2,0,1,1-2-2H23v3a3.009,3.009,0,0,0,3,3h2a3.009,3.009,0,0,0,3-3V19H27A2,2,0,0,1,29,21Z"></path></g></svg>