<svg xmlns="http://www.w3.org/2000/svg" viewBox="0 0 64 64" x="0px" y="0px"><g data-name="Profit-Dollar Tree-Growth-Plant-Dollar"><path d="M48,44H43.18L33,40.3V38.17l.71.11a6.559,6.559,0,0,0,1.08.09,7.057,7.057,0,0,0,6.55-4.49l.67-1.76a1,1,0,0,0-.06-.86,1.03,1.03,0,0,0-.71-.49l-1.87-.29A7.019,7.019,0,0,0,33,32.8V29.95a10,10,0,1,0-2,0V32.8a7.019,7.019,0,0,0-6.37-2.32l-1.87.29a1.03,1.03,0,0,0-.71.49,1,1,0,0,0-.06.86l.67,1.76a7.057,7.057,0,0,0,6.55,4.49,6.559,6.559,0,0,0,1.08-.09l.71-.11V40.3L20.82,44H16a1,1,0,0,0-1,1v6a1,1,0,0,0,1,1h1.18l1.84,9.2A1,1,0,0,0,20,62H44a1,1,0,0,0,.98-.8L46.82,52H48a1,1,0,0,0,1-1V45A1,1,0,0,0,48,44ZM33.61,35.6a5.039,5.039,0,0,1,5.45-3.15l.64.1-.23.61a5.033,5.033,0,0,1-5.45,3.15l-.64-.1Zm-3.63.71a5.033,5.033,0,0,1-5.45-3.15l-.23-.61.64-.1a5.033,5.033,0,0,1,5.45,3.15l.23.61ZM24,20a8,8,0,1,1,8,8A8.011,8.011,0,0,1,24,20Zm8,22.06L37.32,44H26.68ZM43.18,60H20.82l-1.6-8H44.78ZM47,50H17V46H47Z"></path><path d="M33,26V25a3,3,0,0,0,0-6H31a1,1,0,0,1,0-2h2a1,1,0,0,1,1,1h2a3,3,0,0,0-3-3V14H31v1a3,3,0,0,0,0,6h2a1,1,0,0,1,0,2H31a1,1,0,0,1-1-1H28a3,3,0,0,0,3,3v1Z"></path><rect x="52" y="19" width="2" height="2"></rect><rect x="31" y="2" width="2" height="6"></rect><rect x="23.5" y="4.009" width="2" height="6" transform="translate(-0.222 13.189) rotate(-29.999)"></rect><rect x="18.01" y="9.5" width="2" height="6" transform="translate(-1.32 22.713) rotate(-60.001)"></rect><rect x="12.813" y="8.5" width="2" height="2" transform="translate(-1.32 16.714) rotate(-60.005)"></rect><rect x="14" y="19" width="6" height="2"></rect><rect x="10" y="19" width="2" height="2"></rect><rect x="16.01" y="26.5" width="6" height="2" transform="translate(-11.202 13.186) rotate(-29.995)"></rect><rect x="12.813" y="29.5" width="2" height="2" transform="translate(-13.398 10.99) rotate(-29.995)"></rect><rect x="43.99" y="24.5" width="2" height="6" transform="translate(-1.32 52.713) rotate(-60.001)"></rect><rect x="49.186" y="29.5" width="2" height="2" transform="translate(-1.318 58.718) rotate(-60.005)"></rect><rect x="44" y="19" width="6" height="2"></rect><rect x="41.99" y="11.5" width="6" height="2" transform="translate(-0.224 24.166) rotate(-29.995)"></rect><rect x="49.186" y="8.5" width="2" height="2" transform="translate(1.972 26.362) rotate(-29.995)"></rect><rect x="36.5" y="6.009" width="6" height="2" transform="translate(13.683 37.715) rotate(-60.005)"></rect></g></svg>