<svg xmlns="http://www.w3.org/2000/svg" viewBox="0 0 64 64" x="0px" y="0px"><g><path d="M32,29a3,3,0,1,0-3-3A3,3,0,0,0,32,29Zm0-4a1,1,0,1,1-1,1A1,1,0,0,1,32,25Z"></path><rect x="28" y="37" width="8" height="2"></rect><rect x="28" y="33" width="8" height="2"></rect><path d="M59,25a3,3,0,0,0,3-3V5a3,3,0,0,0-3-3H49a3,3,0,0,0-3,3V9H34.816a2.982,2.982,0,0,0-5.632,0H18V5a3,3,0,0,0-3-3H5A3,3,0,0,0,2,5V22a3,3,0,0,0,3,3H9v4.184a2.982,2.982,0,0,0,0,5.632V39H5a3,3,0,0,0-3,3V59a3,3,0,0,0,3,3H15a3,3,0,0,0,3-3V55H29.184a2.982,2.982,0,0,0,5.632,0H46v4a3,3,0,0,0,3,3H59a3,3,0,0,0,3-3V42a3,3,0,0,0-3-3H55V34.816a2.982,2.982,0,0,0,0-5.632V25ZM52,4h4V5H52ZM48,5a1,1,0,0,1,1-1h1V6a1,1,0,0,0,1,1h6a1,1,0,0,0,1-1V4h1a1,1,0,0,1,1,1V22a1,1,0,0,1-1,1H49a1,1,0,0,1-1-1ZM32,9a1,1,0,1,1-1,1A1,1,0,0,1,32,9ZM25,43V21H39V43ZM8,4h4V5H8ZM4,22V5A1,1,0,0,1,5,4H6V6A1,1,0,0,0,7,7h6a1,1,0,0,0,1-1V4h1a1,1,0,0,1,1,1V22a1,1,0,0,1-1,1H5A1,1,0,0,1,4,22Zm11,3a3,3,0,0,0,3-3V11H29.184A3,3,0,0,0,31,12.816V19H25a2,2,0,0,0-2,2V31H12.816A3,3,0,0,0,11,29.184V25Zm-5,6a1,1,0,1,1-1,1A1,1,0,0,1,10,31ZM8,41h4v1H8Zm8,18a1,1,0,0,1-1,1H5a1,1,0,0,1-1-1V42a1,1,0,0,1,1-1H6v2a1,1,0,0,0,1,1h6a1,1,0,0,0,1-1V41h1a1,1,0,0,1,1,1ZM15,39H11V34.816A3,3,0,0,0,12.816,33H23V43a2,2,0,0,0,2,2h6v6.184A3,3,0,0,0,29.184,53H18V42A3,3,0,0,0,15,39ZM32,55a1,1,0,1,1,1-1A1,1,0,0,1,32,55ZM60,42V59a1,1,0,0,1-1,1H49a1,1,0,0,1-1-1V42a1,1,0,0,1,1-1h1v2a1,1,0,0,0,1,1h6a1,1,0,0,0,1-1V41h1A1,1,0,0,1,60,42Zm-8-1h4v1H52Zm-3-2a3,3,0,0,0-3,3V53H34.816A3,3,0,0,0,33,51.184V45h6a2,2,0,0,0,2-2V33H51.184A3,3,0,0,0,53,34.816V39Zm5-6a1,1,0,1,1,1-1A1,1,0,0,1,54,33Zm-1-3.816A3,3,0,0,0,51.184,31H41V21a2,2,0,0,0-2-2H33V12.816A3,3,0,0,0,34.816,11H46V22a3,3,0,0,0,3,3h4Z"></path><rect x="7" y="13" width="2" height="2"></rect><rect x="11" y="13" width="2" height="2"></rect><rect x="51" y="13" width="2" height="2"></rect><rect x="55" y="13" width="2" height="2"></rect><rect x="11" y="50" width="2" height="2"></rect><rect x="7" y="50" width="2" height="2"></rect><rect x="55" y="50" width="2" height="2"></rect><rect x="51" y="50" width="2" height="2"></rect></g></svg>