<svg xmlns="http://www.w3.org/2000/svg" viewBox="0 0 64 64" x="0px" y="0px"><g data-name="Business growth up"><path d="M32,23a7,7,0,1,0-7-7A7.008,7.008,0,0,0,32,23Zm4-8h2v2H36Zm-4,2a2.993,2.993,0,0,1-1-5.816V10h2v1.184A3,3,0,0,1,35,14H33a1,1,0,1,0-1,1,2.993,2.993,0,0,1,1,5.816V22H31V20.816A3,3,0,0,1,29,18h2a1,1,0,1,0,1-1Zm-4-2v2H26V15Z"></path><path d="M49,45a7,7,0,1,0-7-7A7.008,7.008,0,0,0,49,45Zm4-8h2v2H53Zm-4,2a2.993,2.993,0,0,1-1-5.816V32h2v1.184A3,3,0,0,1,52,36H50a1,1,0,1,0-1,1,2.993,2.993,0,0,1,1,5.816V44H48V42.816A3,3,0,0,1,46,40h2a1,1,0,1,0,1-1Zm-4-2v2H43V37Z"></path><path d="M15,39a7,7,0,1,0-7-7A7.008,7.008,0,0,0,15,39Zm4-8h2v2H19Zm-4,2a2.993,2.993,0,0,1-1-5.816V26h2v1.184A3,3,0,0,1,18,30H16a1,1,0,1,0-1,1,2.993,2.993,0,0,1,1,5.816V38H14V36.816A3,3,0,0,1,12,34h2a1,1,0,1,0,1-1Zm-4-2v2H9V31Z"></path><rect x="52" y="8" width="2" height="2"></rect><rect x="54" y="10" width="2" height="2"></rect><rect x="52" y="12" width="2" height="2"></rect><rect x="50" y="10" width="2" height="2"></rect><rect x="47" y="20" width="2" height="2"></rect><rect x="49" y="22" width="2" height="2"></rect><rect x="47" y="24" width="2" height="2"></rect><rect x="45" y="22" width="2" height="2"></rect><rect x="11" y="14" width="2" height="2"></rect><rect x="13" y="16" width="2" height="2"></rect><rect x="11" y="18" width="2" height="2"></rect><rect x="9" y="16" width="2" height="2"></rect><path d="M33,60V53H45a5.006,5.006,0,0,0,5-5V47H48v1a3,3,0,0,1-3,3H33V44h1a3,3,0,0,0,3-3V40H36a3,3,0,0,0-3,3V34h1a3,3,0,0,0,3-3V30H36a3,3,0,0,0-3,3V25H31v6a3,3,0,0,0-3-3H27v1a3,3,0,0,0,3,3h1v9a3,3,0,0,0-3-3H27v1a3,3,0,0,0,3,3h1v9H17a1,1,0,0,1-1-1V48h1a3,3,0,0,0,3-3V44H19a3,3,0,0,0-3,3V40.921H14V46a3,3,0,0,0-3-3H10v1a3,3,0,0,0,3,3h1v3a3,3,0,0,0,3,3H31v7H9v2H55V60Z"></path></g></svg>