<svg xmlns="http://www.w3.org/2000/svg" viewBox="0 0 64 64" x="0px" y="0px"><g data-name="Profit Website"><path d="M4,10H60V5a1,1,0,0,0-1-1H5A1,1,0,0,0,4,5ZM24,6H46V8H24ZM16,6h2V8H16ZM12,6h2V8H12ZM8,6h2V8H8Z"></path><path d="M33.732,51,55.15,38.634a1.983,1.983,0,0,0,1-1.734,2,2,0,0,0-3-1.731l-9.194,5.306A3.992,3.992,0,0,1,40,44H29V42H40a2,2,0,0,0,2-2,1.661,1.661,0,0,0-.116-.641,1.919,1.919,0,0,0-.472-.773A1.985,1.985,0,0,0,40,38H25.26l-6.669,3.71L21.972,51Z"></path><rect x="10.224" y="39.253" width="8" height="16" transform="translate(-15.304 7.715) rotate(-20.001)"></rect><path d="M5,60H59a1,1,0,0,0,1-1V12H4V59A1,1,0,0,0,5,60ZM42.759,16.634l1,1.732-1.733,1-1-1.732ZM45,23v2H43V23Zm-2.974,5.634,1.733,1-1,1.732-1.733-1ZM32,15a9,9,0,1,1-9,9A9.01,9.01,0,0,1,32,15ZM21.241,16.634l1.733,1-1,1.732-1.733-1Zm1.733,13.732-1.733,1-1-1.732,1.733-1ZM19,23h2v2H19ZM5.54,40.083a1,1,0,0,1,.564-.517l9.4-3.42a1,1,0,0,1,1.281.6L17.9,39.806l6.616-3.68A1,1,0,0,1,25,36H40a3.975,3.975,0,0,1,2.827,1.173,3.8,3.8,0,0,1,.788,1.187l8.535-4.926a4,4,0,0,1,6,3.466,3.962,3.962,0,0,1-2,3.466L34.5,52.866A1,1,0,0,1,34,53H22.7l.239.658a1,1,0,0,1-.6,1.281l-9.4,3.421a1,1,0,0,1-1.281-.6L5.507,40.848A1,1,0,0,1,5.54,40.083Z"></path><path d="M32,31a7,7,0,1,0-7-7A7.008,7.008,0,0,0,32,31Zm0-6a2.993,2.993,0,0,1-1-5.816V18h2v1.184A3,3,0,0,1,35,22H33a1,1,0,1,0-1,1,2.993,2.993,0,0,1,1,5.816V30H31V28.816A3,3,0,0,1,29,26h2a1,1,0,1,0,1-1Z"></path></g></svg>