<svg xmlns="http://www.w3.org/2000/svg" viewBox="0 0 64 64" x="0px" y="0px"><g><path d="M53.06,44H53a9,9,0,0,0-.06,18H53a9,9,0,0,0,.06-18ZM52,52h2a3,3,0,0,1,0,6v1H52V58a3.009,3.009,0,0,1-3-3h2a1,1,0,0,0,1,1h2a1,1,0,0,0,0-2H52a3,3,0,0,1,0-6V47h2v1a3.009,3.009,0,0,1,3,3H55a1,1,0,0,0-1-1H52a1,1,0,0,0,0,2Z"></path><path d="M32.06,44H32a9,9,0,0,0-.06,18H32a9,9,0,0,0,.06-18ZM31,52h2a3,3,0,0,1,0,6v1H31V58a3.009,3.009,0,0,1-3-3h2a1,1,0,0,0,1,1h2a1,1,0,0,0,0-2H31a3,3,0,0,1,0-6V47h2v1a3.009,3.009,0,0,1,3,3H34a1,1,0,0,0-1-1H31a1,1,0,0,0,0,2Z"></path><path d="M11.06,44H11a9,9,0,0,0-.06,18H11a9,9,0,0,0,.06-18ZM10,52h2a3,3,0,0,1,0,6v1H10V58a3.009,3.009,0,0,1-3-3H9a1,1,0,0,0,1,1h2a1,1,0,0,0,0-2H10a3,3,0,0,1,0-6V47h2v1a3.009,3.009,0,0,1,3,3H13a1,1,0,0,0-1-1H10a1,1,0,0,0,0,2Z"></path><path d="M15,4V8.91A5.992,5.992,0,0,0,19.91,4Z"></path><rect x="38" y="26" width="11" height="2"></rect><path d="M49,15.09A5.992,5.992,0,0,0,44.09,20H49Z"></path><rect x="38" y="22" width="11" height="2"></rect><circle cx="32" cy="12" r="3"></circle><path d="M15,13.07A8,8,0,0,1,21.93,20H42.07A8,8,0,0,1,49,13.07V10.93A8,8,0,0,1,42.07,4H21.93A8,8,0,0,1,15,10.93ZM32,7a5,5,0,1,1-5,5A5.006,5.006,0,0,1,32,7Z"></path><rect x="15" y="30" width="11" height="2"></rect><rect x="15" y="22" width="11" height="2"></rect><rect x="15" y="26" width="11" height="2"></rect><path d="M15,20h4.91A5.992,5.992,0,0,0,15,15.09Z"></path><rect x="28" y="22" width="8" height="10"></rect><rect x="38" y="30" width="11" height="2"></rect><path d="M49,8.91V4H44.09A5.992,5.992,0,0,0,49,8.91Z"></path><path d="M53,38H33V34H31v4H11a1,1,0,0,0-1,1v3h2V40H31v2h2V40H52v2h2V39A1,1,0,0,0,53,38Z"></path></g></svg>