<svg xmlns="http://www.w3.org/2000/svg" viewBox="0 0 64 64" x="0px" y="0px"><g data-name="Share File"><path d="M50,59a1,1,0,0,1-1,1H9a1,1,0,0,1-1-1V5A1,1,0,0,1,9,4H40v9a1,1,0,0,0,1.707.707L44,11.414l2.293,2.293A1,1,0,0,0,47,14a.987.987,0,0,0,.383-.076A1,1,0,0,0,48,13V4h1a1,1,0,0,1,1,1v9h2V5a3,3,0,0,0-3-3H9A3,3,0,0,0,6,5V59a3,3,0,0,0,3,3H49a3,3,0,0,0,3-3V50H50ZM46,4v6.586L44.707,9.293a1,1,0,0,0-1.414,0L42,10.586V4Z"></path><rect x="50" y="28" width="2" height="8"></rect><path d="M53,38a4.969,4.969,0,0,0-2.753.833l-4.08-4.08a4.966,4.966,0,0,0,0-5.506l4.08-4.08a5.015,5.015,0,1,0-1.414-1.414l-4.08,4.08a5,5,0,1,0,0,8.334l4.08,4.08A5,5,0,1,0,53,38Zm0-20a3,3,0,1,1-3,3A3,3,0,0,1,53,18ZM42,35a3,3,0,1,1,3-3A3,3,0,0,1,42,35ZM53,46a3,3,0,1,1,3-3A3,3,0,0,1,53,46Z"></path><path d="M40,25V19a1,1,0,0,0-1-1H13a1,1,0,0,0-1,1v6a1,1,0,0,0,1,1H39A1,1,0,0,0,40,25Zm-2-1H14V20H38Z"></path><rect x="12" y="8" width="4" height="2"></rect><rect x="18" y="8" width="10" height="2"></rect><rect x="12" y="12" width="16" height="2"></rect><rect x="12" y="30" width="4" height="2"></rect><rect x="18" y="30" width="14" height="2"></rect><rect x="12" y="34" width="12" height="2"></rect><rect x="26" y="34" width="6" height="2"></rect><path d="M12,49a1,1,0,0,0,1,1H39a1,1,0,0,0,1-1V41a1,1,0,0,0-1-1H13a1,1,0,0,0-1,1Zm2-7H38v6H14Z"></path></g></svg>