<svg xmlns="http://www.w3.org/2000/svg" viewBox="0 0 64 64" x="0px" y="0px"><g><rect x="27" y="16" width="2" height="2"></rect><rect x="35" y="16" width="2" height="2"></rect><rect x="27" y="20" width="10" height="2"></rect><rect x="31" y="16" width="2" height="2"></rect><path d="M20,29V27H12.858a3.592,3.592,0,0,1,0,2Z"></path><path d="M10,24.142V18a1,1,0,0,0-2,0v6.142A3.939,3.939,0,0,1,9,24,3.939,3.939,0,0,1,10,24.142Z"></path><circle cx="9" cy="28" r="2"></circle><path d="M25,33a3,3,0,0,1,3-3h8a3,3,0,0,1,3,3v7h3V24H22V40h3Zm3-7h8v2H28Z"></path><path d="M44,27v2h7.142a3.592,3.592,0,0,1,0-2Z"></path><circle cx="28" cy="9" r="1"></circle><circle cx="36" cy="9" r="1"></circle><path d="M41,4H23a1,1,0,0,0-1,1V17a1,1,0,0,0,1,1h2V15a1,1,0,0,1,1-1H38a1,1,0,0,1,1,1v3h2a1,1,0,0,0,1-1V5A1,1,0,0,0,41,4ZM28,12a3,3,0,1,1,3-3A3,3,0,0,1,28,12Zm8,0a3,3,0,1,1,3-3A3,3,0,0,1,36,12Z"></path><path d="M54,18v6.142a3.592,3.592,0,0,1,2,0V18a1,1,0,0,0-2,0Z"></path><circle cx="55" cy="28" r="2"></circle><rect x="44" y="36" width="1" height="2"></rect><path d="M37,33a1,1,0,0,0-1-1H28a1,1,0,0,0-1,1v7H37Z"></path><path d="M51,50H13V60H51Zm-6,2h2v2H45Zm-8,0h2v2H37Zm-4,0h2v2H33Zm-4,0h2v2H29Zm-4,0h2v2H25Zm-4,0h2v2H21Zm-4,6H15V56h2Zm0-6h2v2H17Zm26,6H19V56H43Zm0-4H41V52h2Zm6,4H45V56h4Z"></path><path d="M33,48H31V47a3,3,0,0,1,3-3H59a1,1,0,0,0,1-1V39a1,1,0,0,0-1-1H47V36H59a3,3,0,0,1,3,3v4a3,3,0,0,1-3,3H34a1,1,0,0,0-1,1Z"></path><path d="M55,13a1,1,0,0,1-.707-.293l-3-3A1,1,0,0,1,51,9V5h2V8.586l2,2,2-2V5h2V9a1,1,0,0,1-.293.707l-3,3A1,1,0,0,1,55,13Z"></path><path d="M9,13a1,1,0,0,1-.707-.293l-3-3A1,1,0,0,1,5,9V5H7V8.586l2,2,2-2V5h2V9a1,1,0,0,1-.293.707l-3,3A1,1,0,0,1,9,13Z"></path><circle cx="55" cy="14" r="1"></circle><circle cx="9" cy="14" r="1"></circle></g></svg>