<svg xmlns="http://www.w3.org/2000/svg" viewBox="0 0 64 64" x="0px" y="0px"><g><path d="M55,8a1,1,0,0,0,1-1V3a1,1,0,0,0-1-1H9A1,1,0,0,0,8,3V7A1,1,0,0,0,9,8h1V42H9a1,1,0,0,0-1,1v4a1,1,0,0,0,1,1H22.523L17.071,61.629l1.858.742L20.677,58H43.323l1.748,4.371,1.858-.742L41.477,48H55a1,1,0,0,0,1-1V43a1,1,0,0,0-1-1H54V8ZM10,4H54V6H10ZM42.523,56H21.477l3.2-8H39.323ZM54,46H10V44H54Zm-2-4H12V8H52Z"></path><path d="M16,28a8.994,8.994,0,0,0,17.475,3H36v5a1,1,0,0,0,1,1H47a1,1,0,0,0,.768-1.641l-3.652-4.382A.989.989,0,0,0,45,30V14a1,1,0,0,0-1-1H28a1,1,0,0,0-1,1v5.232A8.973,8.973,0,0,0,16,28Zm22,7V31h3.532l3.333,4Zm0-6V26.762L39.865,29ZM29,15H43V29h-.531l-4.7-5.641A1,1,0,0,0,36,24v5H33.941A8.939,8.939,0,0,0,29,19.95Zm0,7.264A6.892,6.892,0,0,1,31.92,29H29ZM28,31h3.315A7,7,0,1,1,27,21.3V30A1,1,0,0,0,28,31Z"></path><rect x="16" y="12" width="6" height="2"></rect><rect x="16" y="15" width="6" height="2"></rect></g></svg>