<svg xmlns="http://www.w3.org/2000/svg" viewBox="0 0 64 64" x="0px" y="0px"><g><path d="M59.707,19.293,56,15.586V14H52v4h3.586L58,20.414V28h2V20A1,1,0,0,0,59.707,19.293Z"></path><path d="M8,44V34a1,1,0,0,1,1-1H46V7a3,3,0,0,0-3-3H42v9a1,1,0,0,1-1.707.707L38,11.414l-2.293,2.293A1,1,0,0,1,34,13V4H7A3,3,0,0,0,4,7V57a3,3,0,0,0,3,3H43a3,3,0,0,0,3-3V45H9A1,1,0,0,1,8,44Z"></path><polygon points="54 37 52 37 52 35 48 35 48 37 46 37 46 35 42 35 42 37 40 37 40 35 36 35 36 37 34 37 34 35 30 35 30 37 28 37 28 35 24 35 24 37 22 37 22 35 18 35 18 37 16 37 16 35 10 35 10 43 60 43 60 35 54 35 54 37"></polygon><polygon points="53 52.764 53 57 55 57 55 52.764 55.882 51 52.118 51 53 52.764"></polygon><rect x="52" y="45" width="4" height="4"></rect><rect x="53" y="8" width="2" height="4"></rect><path d="M38,9a1,1,0,0,1,.707.293L40,10.586V4H36v6.586l1.293-1.293A1,1,0,0,1,38,9Z"></path><rect x="52" y="20" width="4" height="13"></rect></g></svg>