<svg xmlns="http://www.w3.org/2000/svg" viewBox="0 0 64 64" x="0px" y="0px"><g data-name="Parking-Car Parking-Building-Car-Vehicle"><path d="M7,11v6H9.77A10.943,10.943,0,0,1,9,13a11.2,11.2,0,0,1,.19-2Z"></path><path d="M28,53H14a1,1,0,0,0-1,1v6H29V54A1,1,0,0,0,28,53Z"></path><path d="M11,13a9,9,0,0,0,16.15,5.47.351.351,0,0,1,.05-.08A8.852,8.852,0,0,0,29,13a9.11,9.11,0,0,0-.41-2.7,9.006,9.006,0,0,0-17.18,0A9.11,9.11,0,0,0,11,13Zm5,1V9a2,2,0,0,1,2-2h4a3.969,3.969,0,0,1,2.827,1.173,3.856,3.856,0,0,1,.944,1.517A3.657,3.657,0,0,1,26,11a4,4,0,0,1-4,4H18v4H16Z"></path><path d="M44.193,18.336A2,2,0,0,1,45.3,18H49V15H45.3l-5.5,3.664A2,2,0,0,1,38.7,19H35v3h3.7Z"></path><path d="M24,11a1.805,1.805,0,0,0-.112-.639,1.938,1.938,0,0,0-.475-.774A1.983,1.983,0,0,0,22,9H18v4h4A2,2,0,0,0,24,11Z"></path><path d="M53,60V45H7V60h4V54a3.009,3.009,0,0,1,3-3H28a3.009,3.009,0,0,1,3,3v6ZM33,53a2,2,0,0,1,2-2h3.7l5.5-3.664A2,2,0,0,1,45.3,47H49a2,2,0,0,1,2,2v3a2,2,0,0,1-2,2H45.3l-5.5,3.664A2,2,0,0,1,38.7,58H35a2,2,0,0,1-2-2Z"></path><polygon points="56.59 54 60 50.59 60 48 55 48 55 54 56.59 54"></polygon><path d="M44.193,52.336A2,2,0,0,1,45.3,52H49V49H45.3l-5.5,3.664A2,2,0,0,1,38.7,53H35v3h3.7Z"></path><path d="M7,19v3h6.72a11.086,11.086,0,0,1-2.91-3Z"></path><polygon points="56.59 37 60 33.59 60 31 55 31 55 37 56.59 37"></polygon><rect x="7" y="36" width="20" height="3"></rect><polygon points="55 20 56.59 20 60 16.59 60 14 55 14 55 20"></polygon><path d="M7,43H53V28H7v6H27a2.006,2.006,0,0,1,2,2v3a2.006,2.006,0,0,1-2,2H7Zm26-7a2,2,0,0,1,2-2h3.7l5.5-3.664A2,2,0,0,1,45.3,30H49a2,2,0,0,1,2,2v3a2,2,0,0,1-2,2H45.3l-5.5,3.664A2,2,0,0,1,38.7,41H35a2,2,0,0,1-2-2Z"></path><path d="M27,21.49c-.22.18-.46.34-.69.51H27Z"></path><path d="M29,22a2.006,2.006,0,0,1-2,2H7v2H53V11H30.81A11.2,11.2,0,0,1,31,13a10.776,10.776,0,0,1-2,6.3Zm4-3a2,2,0,0,1,2-2h3.7l5.5-3.664A2,2,0,0,1,45.3,13H49a2,2,0,0,1,2,2v3a2,2,0,0,1-2,2H45.3l-5.5,3.664A2,2,0,0,1,38.7,24H35a2,2,0,0,1-2-2Z"></path><path d="M44.193,35.336A2,2,0,0,1,45.3,35H49V32H45.3l-5.5,3.664A2,2,0,0,1,38.7,36H35v3h3.7Z"></path></g></svg>