<svg xmlns="http://www.w3.org/2000/svg" viewBox="0 0 64 64" x="0px" y="0px"><g data-name="File Circle Chart"><path d="M31,45a9.011,9.011,0,0,1-8.941-8H20.051a10.971,10.971,0,0,0,3.481,7.054l.761-.761,1.414,1.414-.579.579a10.917,10.917,0,0,0,12.351-.416l-1.427-1.427A8.944,8.944,0,0,1,31,45Z"></path><path d="M38,29V27.521a10.943,10.943,0,0,0-6-2.47v2.008A9.013,9.013,0,0,1,39.941,35h2.008a10.943,10.943,0,0,0-2.47-6Z"></path><circle cx="31" cy="36" r="7"></circle><path d="M37.569,42.132l1.414,1.414a11.089,11.089,0,0,0,.97-1.179l-.66-.66,1.414-1.414.283.283A10.881,10.881,0,0,0,41.949,37H39.941A8.967,8.967,0,0,1,37.569,42.132Z"></path><path d="M12,60H52a1,1,0,0,0,1-1V12.846a.992.992,0,0,0-.292-.706L46,5.418V11a1,1,0,0,0,1,1h4v2H47a3,3,0,0,1-3-3V4H12a1,1,0,0,0-1,1V59A1,1,0,0,0,12,60ZM52,47H48V45h4Zm0-4H48V41h4ZM48,22h4v2H48Zm-4,0h2v2H44Zm0,3h8v2H44Zm0,11a12.911,12.911,0,0,1-1.514,6.072l.928.928H47v2H43a1,1,0,0,1-.707-.293l-.913-.913a12.953,12.953,0,0,1-17.7,2.94l-1.973,1.973A1,1,0,0,1,21,49H17V47h3.586l1.533-1.533A12.98,12.98,0,0,1,38,25.063V24a1,1,0,0,1,1-1h4v2H40v1.641A12.955,12.955,0,0,1,44,36ZM19,8H39v2H19ZM15,8h2v2H15Zm0,4H39v2H15ZM12,44h4v2H12Z"></path><path d="M30,27.059V25.051A11.01,11.01,0,0,0,20.051,35h2.008A9.013,9.013,0,0,1,30,27.059Z"></path></g></svg>