<svg xmlns="http://www.w3.org/2000/svg" viewBox="0 0 64 64" x="0px" y="0px"><g data-name="Book"><path d="M56,2H18a7.008,7.008,0,0,0-7,7V53a7.008,7.008,0,0,0,7,7h4v1a1,1,0,0,0,1.8.6L26,58.667,28.2,61.6a1,1,0,0,0,.8.4,1.019,1.019,0,0,0,.316-.051A1,1,0,0,0,30,61V60H56a1,1,0,0,0,1-1V3A1,1,0,0,0,56,2ZM55,46H21V4H55ZM13,9a5.006,5.006,0,0,1,5-5h1V46H18a6.977,6.977,0,0,0-5,2.11Zm5,49a5.009,5.009,0,0,1-5-5,5.006,5.006,0,0,1,5-5H55v4H18v2h4v4Zm8.8-1.6a1.036,1.036,0,0,0-1.6,0L24,58V54h4v4ZM30,58V54H55v4Z"></path><path d="M38,24a8,8,0,1,0-8-8A8.009,8.009,0,0,0,38,24Zm0-14a6,6,0,1,1-6,6A6.006,6.006,0,0,1,38,10Z"></path><path d="M26,42H50a1,1,0,0,0,1-1V29a1,1,0,0,0-1-1H26a1,1,0,0,0-1,1V41A1,1,0,0,0,26,42Zm1-12H49V40H27Z"></path></g></svg>