<svg xmlns="http://www.w3.org/2000/svg" viewBox="0 0 64 64" x="0px" y="0px"><g><path d="M4.95,24.741a28.208,28.208,0,0,0,0,14.518l1.932-.518a26.2,26.2,0,0,1,0-13.482Z"></path><path d="M32,58a25.944,25.944,0,0,1-13.48-3.763l-1.04,1.709a28.03,28.03,0,0,0,29.04,0l-1.04-1.709A25.944,25.944,0,0,1,32,58Z"></path><path d="M59.05,39.259a28.208,28.208,0,0,0,0-14.518l-1.932.518a26.2,26.2,0,0,1,0,13.482Z"></path><path d="M32,6A25.944,25.944,0,0,1,45.48,9.763l1.04-1.709a28.03,28.03,0,0,0-29.04,0l1.04,1.709A25.944,25.944,0,0,1,32,6Z"></path><rect x="23.515" y="31" width="16.971" height="2" transform="translate(-13.255 32) rotate(-45)"></rect><path d="M36,33a3,3,0,1,0,3,3A3,3,0,0,0,36,33Zm0,4a1,1,0,1,1,1-1A1,1,0,0,1,36,37Z"></path><path d="M28,31a3,3,0,1,0-3-3A3,3,0,0,0,28,31Zm0-4a1,1,0,1,1-1,1A1,1,0,0,1,28,27Z"></path><path d="M32,19A13,13,0,1,0,45,32,13.015,13.015,0,0,0,32,19Zm0,24A11,11,0,1,1,43,32,11.013,11.013,0,0,1,32,43Z"></path><path d="M61,7H59V5a3,3,0,0,0-3-3H54a3,3,0,0,0-3,3V7H49a1,1,0,0,0-1,1V21a2,2,0,0,0,2,2H60a2,2,0,0,0,2-2V8A1,1,0,0,0,61,7ZM53,5a1,1,0,0,1,1-1h2a1,1,0,0,1,1,1V7H53ZM50,21V9h1v2h2V9h4v2h2V9h1V21Z"></path><path d="M61,46H59V44a3,3,0,0,0-3-3H54a3,3,0,0,0-3,3v2H49a1,1,0,0,0-1,1V60a2,2,0,0,0,2,2H60a2,2,0,0,0,2-2V47A1,1,0,0,0,61,46Zm-8-2a1,1,0,0,1,1-1h2a1,1,0,0,1,1,1v2H53ZM50,60V48h1v2h2V48h4v2h2V48h1V60Z"></path><path d="M4,23H14a2,2,0,0,0,2-2V8a1,1,0,0,0-1-1H13V5a3,3,0,0,0-3-3H8A3,3,0,0,0,5,5V7H3A1,1,0,0,0,2,8V21A2,2,0,0,0,4,23ZM7,5A1,1,0,0,1,8,4h2a1,1,0,0,1,1,1V7H7ZM4,9H5v2H7V9h4v2h2V9h1V21H4Z"></path><path d="M15,46H13V44a3,3,0,0,0-3-3H8a3,3,0,0,0-3,3v2H3a1,1,0,0,0-1,1V60a2,2,0,0,0,2,2H14a2,2,0,0,0,2-2V47A1,1,0,0,0,15,46ZM7,44a1,1,0,0,1,1-1h2a1,1,0,0,1,1,1v2H7ZM4,60V48H5v2H7V48h4v2h2V48h1V60Z"></path><path d="M32,15A17,17,0,1,0,49,32,17.019,17.019,0,0,0,32,15Zm0,32A15,15,0,1,1,47,32,15.017,15.017,0,0,1,32,47Z"></path></g></svg>