<svg xmlns="http://www.w3.org/2000/svg" viewBox="0 0 64 64" x="0px" y="0px"><g data-name="Emergency Call-Ambulance-Smartphone-Medical-Hospital"><path d="M47,3H35a2.006,2.006,0,0,0-2,2v8a2.006,2.006,0,0,0,2,2h2v4l4-4h6a2.006,2.006,0,0,0,2-2V5A2.006,2.006,0,0,0,47,3ZM36,6h2V8H36Zm10,6H36V10H46Zm0-4H40V6h6Z"></path><rect x="2" y="56" width="2" height="2"></rect><rect x="6" y="56" width="6" height="2"></rect><rect x="4" y="52" width="10" height="2"></rect><rect x="10" y="48" width="4" height="2"></rect><rect x="6" y="48" width="2" height="2"></rect><path d="M27,54a3,3,0,1,0,3,3A3.009,3.009,0,0,0,27,54Zm1,4H26V56h2Z"></path><path d="M23,4H9A3.009,3.009,0,0,0,6,7V33a3.009,3.009,0,0,0,3,3H23a3.009,3.009,0,0,0,3-3V7A3.009,3.009,0,0,0,23,4ZM16,6h4V8H16ZM12,6h2V8H12Zm6,28H14V32h4Zm5-13H20.9a5.038,5.038,0,0,1-.73,1.75l1.49,1.49-1.42,1.42-1.49-1.49A5.038,5.038,0,0,1,17,24.9V27H15V24.9a5.038,5.038,0,0,1-1.75-.73l-1.49,1.49-1.42-1.42,1.49-1.49A5.038,5.038,0,0,1,11.1,21H9V19h2.1a5.038,5.038,0,0,1,.73-1.75l-1.49-1.49,1.42-1.42,1.49,1.49A5.038,5.038,0,0,1,15,15.1V13h2v2.1a5.038,5.038,0,0,1,1.75.73l1.49-1.49,1.42,1.42-1.49,1.49A5.038,5.038,0,0,1,20.9,19H23Z"></path><path d="M16,17a3,3,0,1,0,3,3A3.009,3.009,0,0,0,16,17Zm1,4H15V19h2Z"></path><path d="M53,54a3,3,0,1,0,3,3A3.009,3.009,0,0,0,53,54Zm1,4H52V56h2Z"></path><path d="M29,45h2a1,1,0,0,1,1,1v2h2V46a1,1,0,0,1,1-1h2V43H35a1,1,0,0,1-1-1V40H32v2a1,1,0,0,1-1,1H29Z"></path><path d="M47,49a2.006,2.006,0,0,1-2-2V40a2.006,2.006,0,0,1,2-2h3l-2.09-1.77a1.042,1.042,0,0,0-.64-.23H26.99A4.99,4.99,0,0,1,23,38H18V55a1,1,0,0,0,1,1h3.1a5,5,0,0,1,9.8,0H48.1a5,5,0,0,1,9.8,0H59a1,1,0,0,0,1-1V49Zm-8-3a1,1,0,0,1-1,1H36v2a1,1,0,0,1-1,1H31a1,1,0,0,1-1-1V47H28a1,1,0,0,1-1-1V42a1,1,0,0,1,1-1h2V39a1,1,0,0,1,1-1h4a1,1,0,0,1,1,1v2h2a1,1,0,0,1,1,1Z"></path><path d="M47,40v7H60v-.07a.98.98,0,0,0-.35-.76L52.36,40Z"></path><rect x="2" y="60" width="58" height="2"></rect></g></svg>