<svg xmlns="http://www.w3.org/2000/svg" viewBox="0 0 64 64" x="0px" y="0px"><g data-name="Award-Certificate-Coffee Beans-Winner-Coffee"><path d="M21.341,28.247C19.307,30.028,17,32.046,17,36h2c0-3.046,1.7-4.529,3.659-6.247C24.693,27.972,27,25.954,27,22H25C25,25.046,23.305,26.529,21.341,28.247Z"></path><path d="M61.74,12.33l-9-10A1,1,0,0,0,52,2H19a5,5,0,0,0-5,5V27.67c-.22.19-.43.38-.66.58C11.31,30.03,9,32.05,9,36h2c0-2.7,1.33-4.17,3-5.67V40H3a1,1,0,0,0-1,1V53a9.014,9.014,0,0,0,9,9H57a5,5,0,0,0,5-5V13A.971.971,0,0,0,61.74,12.33ZM53,5.61,58.75,12H54a1,1,0,0,1-1-1ZM17,60H11a7.008,7.008,0,0,1-7-7V42H24V53A7.008,7.008,0,0,1,17,60Zm43-3a3.009,3.009,0,0,1-3,3H22.64a8.982,8.982,0,0,0,3.3-6H27a7,7,0,0,0,0-14H16V28.53A8.576,8.576,0,0,0,19,22H17a6.111,6.111,0,0,1-1,3.47V7a3.009,3.009,0,0,1,3-3H51v7a3.009,3.009,0,0,0,3,3h6ZM27,50a3,3,0,0,0,0-6H26V42h1a5,5,0,0,1,0,10H26V50Zm-1-2V46h1a1,1,0,0,1,0,2Z"></path><rect x="34" y="17" width="14" height="2"></rect><rect x="34" y="13" width="2" height="2"></rect><rect x="38" y="13" width="10" height="2"></rect><rect x="30" y="25" width="22" height="2"></rect><rect x="54" y="25" width="2" height="2"></rect><rect x="30" y="29" width="26" height="2"></rect><rect x="30" y="33" width="4" height="2"></rect><rect x="36" y="33" width="20" height="2"></rect><rect x="30" y="37" width="26" height="2"></rect><rect x="36" y="41" width="20" height="2"></rect><rect x="36" y="45" width="20" height="2"></rect><rect x="46" y="52" width="10" height="2"></rect><path d="M30.243,8.758A4.623,4.623,0,0,0,26.39,7.506a6.918,6.918,0,0,0-5.884,5.884,4.6,4.6,0,0,0,1.251,3.852,4.487,4.487,0,0,0,3.236,1.286,5.627,5.627,0,0,0,.617-.034,6.663,6.663,0,0,0,3.926-1.959,6.662,6.662,0,0,0,1.958-3.925A4.6,4.6,0,0,0,30.243,8.758ZM22.494,13.61A4.923,4.923,0,0,1,26.61,9.494l.068,0a5.734,5.734,0,0,0-1.659,3.316,3.771,3.771,0,0,1-1.136,2.317,3.48,3.48,0,0,1-.79.6A2.667,2.667,0,0,1,22.494,13.61Zm7.012-1.22a4.923,4.923,0,0,1-4.116,4.116c-.023,0-.043,0-.066,0a5.732,5.732,0,0,0,1.657-3.313,3.771,3.771,0,0,1,1.136-2.317,3.51,3.51,0,0,1,.789-.606A2.67,2.67,0,0,1,29.506,12.39Z"></path></g></svg>