<svg xmlns="http://www.w3.org/2000/svg" viewBox="0 0 64 64" x="0px" y="0px"><g><path d="M48,6H36.665l-.349-1.628A3.015,3.015,0,0,0,33.383,2H30.617a3.015,3.015,0,0,0-2.933,2.372L25.192,16H21a2,2,0,0,0-2,2v6a2,2,0,0,0,2,2v2H20a5.006,5.006,0,0,0-5,5V59a3,3,0,0,0,3,3H46a3,3,0,0,0,3-3V33a5.006,5.006,0,0,0-5-5H43V26a2,2,0,0,0,2-2V22h3a7.008,7.008,0,0,0,7-7V13A7.008,7.008,0,0,0,48,6ZM30.617,4h2.766a1,1,0,0,1,.978.791L35.478,10H28.522l1.117-5.21A1,1,0,0,1,30.617,4Zm-2.523,8h7.812l.857,4H27.237ZM37,24V18h2v6ZM27,18v6H25V18Zm2,0h2v6H29Zm4,0h2v6H33ZM21,18h2v6H21ZM47,33V59a1,1,0,0,1-1,1H18a1,1,0,0,1-1-1V33a3,3,0,0,1,3-3H44A3,3,0,0,1,47,33Zm-6-5H23V26H41Zm2-4H41V18h2Zm10-9a5.006,5.006,0,0,1-5,5H45V18a2,2,0,0,0-2-2H38.808L37.094,8H48a5.006,5.006,0,0,1,5,5Z"></path><path d="M23,34a2,2,0,0,0-2,2V54a2,2,0,0,0,2,2H41a2,2,0,0,0,2-2V36a2,2,0,0,0-2-2Zm0,20V36H41V54Z"></path></g></svg>