<svg xmlns="http://www.w3.org/2000/svg" viewBox="0 0 64 64" x="0px" y="0px"><g><path d="M10,39H54V8a1,1,0,0,0-1-1H11a1,1,0,0,0-1,1Zm2-26a2,2,0,0,1,2-2h6a1.978,1.978,0,0,1,1,.278A1.978,1.978,0,0,1,22,11h6a1.978,1.978,0,0,1,1,.278A1.978,1.978,0,0,1,30,11h6a1.989,1.989,0,0,1,1.534.732,1.966,1.966,0,0,1,.479-.207l5.8-1.553a2,2,0,0,1,2.449,1.415l5.177,19.318a2,2,0,0,1-1.414,2.449h0l-5.8,1.553a2,2,0,0,1-2.45-1.414L38,19.2V33a2,2,0,0,1-2,2H30a1.978,1.978,0,0,1-1-.278A1.978,1.978,0,0,1,28,35H22a1.978,1.978,0,0,1-1-.278A1.978,1.978,0,0,1,20,35H14a2,2,0,0,1-2-2Z"></path><rect x="14" y="13" width="6" height="13"></rect><rect x="14" y="28" width="6" height="1"></rect><rect x="30" y="29" width="6.001" height="4"></rect><rect x="14" y="31" width="6" height="2"></rect><path d="M28,13H22V33h6ZM25,31a2,2,0,1,1,2-2A2,2,0,0,1,25,31Z"></path><rect x="40.111" y="12.459" width="6" height="13" transform="matrix(0.966, -0.259, 0.259, 0.966, -3.438, 11.807)"></rect><rect x="43.346" y="30.033" width="6.001" height="2" transform="translate(-6.453 13.052) rotate(-15)"></rect><rect x="30" y="26" width="6.001" height="1"></rect><rect x="30" y="13" width="6" height="11"></rect><rect x="42.44" y="27.152" width="6.001" height="1" transform="translate(-5.608 12.702) rotate(-14.999)"></rect><path d="M23.382,51l1.723-3.447A1,1,0,0,1,26,47H38a1,1,0,0,1,.9.553L40.618,51H59.382l-5-10H9.618l-5,10ZM54,49H52V47h2Zm-3-6h2v2H51Zm-1,6H48V47h2Zm-3-6h2v2H47Zm-4,0h2v2H43Zm-1,4h4v2H42Zm-3-4h2v2H39Zm-4,0h2v2H35Zm-4,0h2v2H31Zm-4,0h2v2H27Zm-4,0h2v2H23Zm-4,0h2v2H19Zm-1,4h4v2H18Zm-3-4h2v2H15Zm-1,4h2v2H14Zm-3-4h2v2H11Zm-1,4h2v2H10Z"></path><polygon points="26.618 49 25.618 51 38.382 51 37.382 49 26.618 49"></polygon><path d="M4,56a1,1,0,0,0,1,1H59a1,1,0,0,0,1-1V53H4Z"></path></g></svg>