<svg xmlns="http://www.w3.org/2000/svg" viewBox="0 0 64 64" x="0px" y="0px"><g><path d="M47,11H36.588L34.956,5.705A1,1,0,0,0,34,5H26a1,1,0,0,0-1,1v5H17.721L14.949,2.684A1,1,0,0,0,14,2H7A1,1,0,0,0,6,3V20a5.006,5.006,0,0,0,5,5h.294l5.738,22.25A1,1,0,0,0,18,48h1V60a2,2,0,0,0,2,2H39a2,2,0,0,0,2-2V48h1a1,1,0,0,0,.968-.75L48.706,25H53a3,3,0,0,0,3-3V20A9.01,9.01,0,0,0,47,11ZM27,7h6.262l1.233,4H27ZM18.775,46,13.359,25H19V46ZM26,33h8a1,1,0,0,0,.956-.706L37.2,25H39V42H21V25h4v7A1,1,0,0,0,26,33ZM39,46H33V44h6ZM27,46H21V44h6Zm2-2h2v6H29ZM21,60V48h6v3a1,1,0,0,0,1,1h4a1,1,0,0,0,1-1V48h6V60ZM41.225,46H41V25h5.641ZM54,22a1,1,0,0,1-1,1H37.815l1.141-3.706-1.912-.588L33.261,31H27V19H25v4H11a3,3,0,0,1-3-3V4h5.279l2.772,8.316A1,1,0,0,0,17,13H47a7.008,7.008,0,0,1,7,7Z"></path><rect x="46" y="15" width="4" height="2"></rect><rect x="40" y="15" width="2" height="2"></rect><rect x="36" y="15" width="2" height="2"></rect><rect x="32" y="15" width="2" height="2"></rect><rect x="28" y="15" width="2" height="2"></rect><rect x="24" y="15" width="2" height="2"></rect><rect x="20" y="15" width="2" height="2"></rect><rect x="33" y="56" width="4" height="2"></rect><rect x="29" y="56" width="2" height="2"></rect></g></svg>