<svg xmlns="http://www.w3.org/2000/svg" viewBox="0 0 64 64" x="0px" y="0px"><g data-name="Money Bag-Saving-Banking-Hand-Money"><path d="M57.15,45.9a4.025,4.025,0,0,0-2.31-1.82A4.338,4.338,0,0,0,55,43v-.39a3.988,3.988,0,0,0-1.77-3.32l-.34-.23A2.011,2.011,0,0,1,52,37.39V24a11.009,11.009,0,0,0-9.23-10.84,2.986,2.986,0,0,0-1.4-3.81l2.55-5.96A1,1,0,0,0,43,2H29a1,1,0,0,0-.92,1.39l2.55,5.96a2.986,2.986,0,0,0-1.4,3.81A11.009,11.009,0,0,0,20,24V37.39a2.012,2.012,0,0,1-.91,1.68l-.3.21A3.988,3.988,0,0,0,17,42.61V43a3.863,3.863,0,0,0,.52,1.92L15.72,46H2v2H16a1,1,0,0,0,.51-.14l2.63-1.58A9,9,0,0,1,23.77,45h1.3a9.149,9.149,0,0,1,3.35.64l3.21,1.29A.937.937,0,0,0,32,47h7a2,2,0,0,1,0,4H29v2H39.51a5.009,5.009,0,0,0,2.5-.67l10.67-6.16a2,2,0,1,1,2,3.46L41.05,57.51a14.956,14.956,0,0,1-9.16,1.92L19.11,58.01a.884.884,0,0,0-.23,0l-17,2,.24,1.98L19,60.01l12.67,1.4a16.807,16.807,0,0,0,10.38-2.17l13.63-7.87A4.018,4.018,0,0,0,57.15,45.9ZM30.52,4H41.48L39.34,9H32.66ZM41,12a1,1,0,0,1-1,1H32a1,1,0,0,1,0-2h8A1,1,0,0,1,41,12Zm1.95,37.48A3.441,3.441,0,0,0,42.44,47h4.8ZM53,43a1.885,1.885,0,0,1-.3,1.04,3.865,3.865,0,0,0-1.02.4L50.7,45H32.19l-3.03-1.21A10.825,10.825,0,0,0,25.07,43h-1.3a10.88,10.88,0,0,0-4.5.98A1.977,1.977,0,0,1,19,43v-.39a2.012,2.012,0,0,1,.91-1.68l.3-.21A3.988,3.988,0,0,0,22,37.39V24a9.014,9.014,0,0,1,9-9H41a9.014,9.014,0,0,1,9,9V37.39a3.988,3.988,0,0,0,1.77,3.32l.34.23A2.011,2.011,0,0,1,53,42.61Z"></path><path d="M35,27h2a1,1,0,0,1,1,1h2a3,3,0,0,0-3-3V24H35v1a3,3,0,0,0,0,6h2a1,1,0,0,1,0,2H35a1,1,0,0,1-1-1H32a3,3,0,0,0,3,3v1h2V35a3,3,0,0,0,0-6H35a1,1,0,0,1,0-2Z"></path><path d="M36,20A10,10,0,1,0,46,30,10.011,10.011,0,0,0,36,20Zm0,18a8,8,0,1,1,8-8A8.009,8.009,0,0,1,36,38Z"></path></g></svg>