<svg xmlns="http://www.w3.org/2000/svg" viewBox="0 0 64 64" x="0px" y="0px"><g><path d="M28.586,10,24,5.414V9a1,1,0,0,0,1,1Z"></path><path d="M30,35V12H25a3,3,0,0,1-3-3V4H5A1,1,0,0,0,4,5V35a1,1,0,0,0,1,1H29A1,1,0,0,0,30,35ZM10,6h4V8H10ZM6,6H8V8H6Zm0,4h8v2H6ZM26,20H24v2h2v2H24v2h2v2H24v1a1,1,0,0,1-1,1H22v2H20V30H18v2H16V30H14v2H12V30H11a1,1,0,0,1-1-1V28H8V26h2V24H8V22h2V20H8V18h2V17a1,1,0,0,1,1-1h1V14h2v2h2V14h2v2h2V14h2v2h1a1,1,0,0,1,1,1v1h2Z"></path><path d="M12,28H22V18H12Zm2-7a1,1,0,0,1,1-1h4a1,1,0,0,1,1,1v3a1,1,0,0,1-.292.706l-1,1A1,1,0,0,1,18,26H15a1,1,0,0,1-1-1Z"></path><circle cx="48" cy="16" r="4"></circle><path d="M9.618,44l-5,10H59.382l-5-10ZM43,46h2v2H43Zm-8,0h2v2H35Zm-4,0h2v2H31Zm-4,0h2v2H27Zm-8,0h2v2H19Zm-7,6H10V50h2Zm1-4H11V46h2Zm3,4H14V50h2Zm1-4H15V46h2Zm5,4H18V50h4Zm1-6h2v2H23Zm17,6H24V50H40Zm1-4H39V46h2Zm5,4H42V50h4Zm1-6h2v2H47Zm3,6H48V50h2Zm1-6h2v2H51Zm3,6H52V50h2Z"></path><polygon points="18 23.587 18 22 16 22 16 24 17.588 24 18 23.587"></polygon><path d="M5,60H59a1,1,0,0,0,1-1V56H4v3A1,1,0,0,0,5,60Z"></path><path d="M38.714,23.685l1.6,1.6,1.99-1.492a1,1,0,0,1,1.111-.061,8.923,8.923,0,0,0,2.357.977,1,1,0,0,1,.742.827L46.867,28h2.266l.352-2.463a1,1,0,0,1,.742-.827,8.923,8.923,0,0,0,2.357-.977,1,1,0,0,1,1.111.061l1.99,1.492,1.6-1.6-1.492-1.991a1,1,0,0,1-.06-1.11,8.859,8.859,0,0,0,.975-2.356,1,1,0,0,1,.828-.744L60,17.133V14.867l-2.463-.351a1,1,0,0,1-.828-.744,8.859,8.859,0,0,0-.975-2.356,1,1,0,0,1,.06-1.11l1.492-1.991-1.6-1.6L53.7,8.206a1,1,0,0,1-1.111.061,8.923,8.923,0,0,0-2.357-.977,1,1,0,0,1-.742-.827L49.133,4H46.867l-.352,2.463a1,1,0,0,1-.742.827,8.923,8.923,0,0,0-2.357.977,1,1,0,0,1-1.111-.061l-1.99-1.492-1.6,1.6,1.492,1.991a1,1,0,0,1,.06,1.11,8.859,8.859,0,0,0-.975,2.356,1,1,0,0,1-.828.744L36,14.867v2.266l2.463.351a1,1,0,0,1,.828.744,8.859,8.859,0,0,0,.975,2.356,1,1,0,0,1-.06,1.11ZM48,10a6,6,0,1,1-6,6A6.006,6.006,0,0,1,48,10Z"></path><path d="M53.01,25.78a10.291,10.291,0,0,1-1.64.68l-.38,2.68A1,1,0,0,1,50,30H46a1,1,0,0,1-.99-.86l-.38-2.68a10.291,10.291,0,0,1-1.64-.68l-2.17,1.63a.994.994,0,0,1-1.31-.1l-2.82-2.82a.994.994,0,0,1-.1-1.31l1.63-2.17a10.291,10.291,0,0,1-.68-1.64l-2.68-.38A1,1,0,0,1,34,18V14a1,1,0,0,1,.86-.99l2.68-.38c.07-.21.14-.42.23-.63H32V35a3.009,3.009,0,0,1-3,3H10v4H54V26.52ZM42,38H36V36h6Zm0-4H36V32h6Zm8,4H44V36h6Zm0-4H44V32h6Z"></path></g></svg>