<svg xmlns="http://www.w3.org/2000/svg" viewBox="0 0 64 64" x="0px" y="0px"><title>Speech Bubble_26</title><g data-name="Speech Bubble"><path d="M32,2A30,30,0,1,0,62,32,30.034,30.034,0,0,0,32,2Zm0,58A28,28,0,1,1,60,32,28.032,28.032,0,0,1,32,60Z"></path><path d="M53.53,42.152,46,37.446V23a3,3,0,0,0-3-3H13a3,3,0,0,0-3,3V41a3,3,0,0,0,3,3H53a1,1,0,0,0,.53-1.848ZM13,42a1,1,0,0,1-1-1V23a1,1,0,0,1,1-1H43a1,1,0,0,1,1,1V38a1,1,0,0,0,.47.848L49.513,42Z"></path><path d="M39,28H17a1,1,0,0,0,0,2H39a1,1,0,0,0,0-2Z"></path><path d="M39,34H17a1,1,0,0,0,0,2H39a1,1,0,0,0,0-2Z"></path></g></svg>