<svg xmlns="http://www.w3.org/2000/svg" viewBox="0 0 64 64" x="0px" y="0px"><g data-name="Apartment-Real Estate-Residental-Property-Building"><path d="M60.34,23.55l-2.23-1.11a3.022,3.022,0,0,0-2.07-.23L50,23.72V20.35a3.011,3.011,0,0,0-1.89-2.78l-3.22-1.29a3.019,3.019,0,0,0-1.6-.18L34,17.6V14.44a2.978,2.978,0,0,0-2.05-2.84l-4.16-1.39a2.819,2.819,0,0,0-1.44-.11L4.51,13.74A2.978,2.978,0,0,0,2,16.69V59a3.009,3.009,0,0,0,3,3H59a3.009,3.009,0,0,0,3-3V26.24A2.992,2.992,0,0,0,60.34,23.55ZM6,60H5a1,1,0,0,1-1-1V51.81l2-.34Zm4,0H8V51.13l2-.34Zm4,0H12V50.45l2-.34Zm4,0H16V49.77l2-.34Zm4,0H20V49.09l2-.34Zm4,0H24V48.42l2-.34Zm0-13.95L4,49.78V45.81l22-3.73Zm0-6L4,43.78V39.81l22-3.73Zm0-6L4,37.78V33.81l22-3.73Zm0-6L4,31.78V27.81l22-3.73Zm0-6L4,25.78V21.81l22-3.73Zm0-6L4,19.78V16.69a.989.989,0,0,1,.84-.98L26,12.18ZM32,60H28V12.39l3.32,1.1a1,1,0,0,1,.68.95Zm3,0H34V49.59l1-.17Zm4,0H37V49.08l2-.33Zm4,0H41V48.41l2-.34Zm0-13.96-9,1.52V43.59l9-1.52Zm0-6-9,1.52V37.59l9-1.52Zm0-6-9,1.52V31.59l9-1.52Zm0-6-9,1.52V25.59l9-1.52Zm0-6-9,1.52V19.62l9-1.45ZM48,60H45V18.48l2.37.95a1,1,0,0,1,.63.92Zm4,0H50V49.2l2-.37Zm4,0H54V48.46l2-.37Zm0-13.94-6,1.11V43.2l6-1.11Zm0-6-6,1.11V37.2l6-1.11Zm0-6-6,1.11V31.2l6-1.11Zm0-6-6,1.11V25.78l6-1.5ZM60,59a1,1,0,0,1-1,1H58V24.62l1.45.72a.992.992,0,0,1,.55.9Z"></path></g></svg>