<svg xmlns="http://www.w3.org/2000/svg" viewBox="0 0 64 64" x="0px" y="0px"><g><rect x="48" y="37" width="4" height="2"></rect><rect x="11" y="49" width="2" height="2"></rect><rect x="48" y="49" width="2" height="2"></rect><path d="M61.31,32.575,56,22.747V13.961a2.983,2.983,0,0,0-1.126-2.342l-3.7-2.961A3,3,0,0,0,49.3,8H5a3,3,0,0,0-3,3V49a2,2,0,0,0,2,2H6.09a5.993,5.993,0,0,0,11.82,0H43.09a5.993,5.993,0,0,0,11.82,0H59a3,3,0,0,0,3-3V35.108A4.947,4.947,0,0,0,61.31,32.575ZM46,33H43.78l-.81-3.243-1.94.486L41.72,33H37.78l-.81-3.243-1.94.486L35.72,33H31.78l-.81-3.243-1.94.486L29.72,33H25.78l-.81-3.243-1.94.486L23.72,33H19.78l-.81-3.243-1.94.486L17.72,33H13.78l-.81-3.243-1.94.486L11.72,33H7.78l-.81-3.243-1.94.486L5.72,33H4V24H46Zm2-9h6.4l4.864,9H48ZM5,10H49.3a1.007,1.007,0,0,1,.624.219l3.7,2.961a1,1,0,0,1,.376.781V22H49.78l-.81-3.243-1.94.486L47.72,22H43.78l-.81-3.243-1.94.486L41.72,22H37.78l-.81-3.243-1.94.486L35.72,22H31.78l-.81-3.243-1.94.486L29.72,22H25.78l-.81-3.243-1.94.486L23.72,22H19.78l-.81-3.243-1.94.486L17.72,22H13.78l-.81-3.243-1.94.486L11.72,22H7.78l-.81-3.243-1.94.486L5.72,22H4V11A1,1,0,0,1,5,10Zm7,44a4,4,0,1,1,4-4A4,4,0,0,1,12,54Zm37,0a4,4,0,1,1,4-4A4,4,0,0,1,49,54Zm10-5H54.91a5.993,5.993,0,0,0-11.82,0H17.91A5.993,5.993,0,0,0,6.09,49H4V35H59.985c0,.036.015.071.015.108V37H56a2,2,0,0,0-2,2v2a2,2,0,0,0,2,2h4v2H57v2h3v1A1,1,0,0,1,59,49Zm1-10v2H56V39Z"></path></g></svg>