<svg xmlns="http://www.w3.org/2000/svg" viewBox="0 0 64 64" x="0px" y="0px"><g><path d="M43.118,33.135A7.959,7.959,0,0,0,45,28a8.06,8.06,0,0,0-.168-1.633A7.946,7.946,0,0,0,48,20a8.037,8.037,0,0,0-4-6.924V10.35A8.36,8.36,0,0,0,35.65,2,6.672,6.672,0,0,0,32,3.1,6.672,6.672,0,0,0,28.35,2,8.341,8.341,0,0,0,20,10.35v2.726A8.037,8.037,0,0,0,16,20a7.946,7.946,0,0,0,3.168,6.367A8.06,8.06,0,0,0,19,28a7.959,7.959,0,0,0,1.882,5.135A12.991,12.991,0,0,0,15,44V61a1,1,0,0,0,1,1H48a1,1,0,0,0,1-1V44A12.991,12.991,0,0,0,43.118,33.135Zm-2.365,4.494-2.308,1.539a1,1,0,0,0-.152,1.539l1.2,1.2-4.959,3.857,4.4-10.391a1,1,0,0,0-.1-.927l-.837-1.255c.324.06.641.136.954.223Zm-15.2,1.539-2.308-1.539,1.8-4.216c.313-.087.63-.163.954-.223l-.837,1.255a1,1,0,0,0-.1.927l4.4,10.391-4.959-3.857,1.2-1.2a1,1,0,0,0-.152-1.539ZM32,7a7.008,7.008,0,0,1,7,7v.579A7.519,7.519,0,0,0,36,14a6.471,6.471,0,0,0-4,1.175A6.471,6.471,0,0,0,28,14a7.519,7.519,0,0,0-3,.579V14A7.008,7.008,0,0,1,32,7Zm9,11a1,1,0,0,1,0,2Zm-2-1c0,.249-1.064,1-3,1s-3-.751-3-1,1.064-1,3-1S39,16.751,39,17Zm-8,0c0,.249-1.064,1-3,1s-3-.751-3-1,1.064-1,3-1S31,16.751,31,17Zm-8,3a1,1,0,0,1,0-2Zm2,1V19.421A7.519,7.519,0,0,0,28,20a6.471,6.471,0,0,0,4-1.175A6.471,6.471,0,0,0,36,20a7.519,7.519,0,0,0,3-.579V24a3,3,0,0,1-3,3H28a3,3,0,0,1-3-3Zm10,8v2.65L32,35.4,29,31.65V29Zm-6.927,4.692,2.5,3.127-2.131,1.6-1.32-3.3ZM32,38.25l2.763,2.072L32,46.538l-2.763-6.216Zm3.556.167-2.131-1.6,2.5-3.127.949,1.425ZM42,10.35V13a3.688,3.688,0,0,1-.03.518,1,1,0,0,0,.566,1.048,5.99,5.99,0,0,1,.625,10.525,1,1,0,0,0-.427,1.143,5.989,5.989,0,0,1-1.409,5.919A12.876,12.876,0,0,0,37,31.051V28.9A5.009,5.009,0,0,0,41,24V22a3,3,0,0,0,0-6V14a9.007,9.007,0,0,0-8.259-8.962A4.685,4.685,0,0,1,35.65,4,6.358,6.358,0,0,1,42,10.35ZM21,28a5.976,5.976,0,0,1,.266-1.766,1,1,0,0,0-.427-1.143,5.99,5.99,0,0,1,.625-10.525,1,1,0,0,0,.566-1.048A3.688,3.688,0,0,1,22,13V10.35A6.34,6.34,0,0,1,28.35,4a4.685,4.685,0,0,1,2.909,1.038A9.007,9.007,0,0,0,23,14v2a3,3,0,0,0,0,6v2a5.009,5.009,0,0,0,4,4.9v2.152a12.876,12.876,0,0,0-4.325,1.1A5.966,5.966,0,0,1,21,28ZM17,44a10.994,10.994,0,0,1,5.385-9.442l-1.3,3.048a1,1,0,0,0,.364,1.226l1.985,1.323-1.137,1.138a1,1,0,0,0,.093,1.5L31,49.489V60H23V44H21V60H17ZM47,60H43V44H41V60H33V49.489l8.614-6.7a1,1,0,0,0,.093-1.5L40.57,40.155l1.985-1.323a1,1,0,0,0,.364-1.226l-1.3-3.048A10.994,10.994,0,0,1,47,44Z"></path></g></svg>