<svg xmlns="http://www.w3.org/2000/svg" viewBox="0 0 64 64" x="0px" y="0px"><title>Rocket-Science-Idea</title><g><path d="M49,60H17V36a1,1,0,0,0-1-1H7.271L14.787,4H49V8h2V3a1,1,0,0,0-1-1H14a1,1,0,0,0-.972.765l-8,33A1,1,0,0,0,6,37h9V61a1,1,0,0,0,1,1H50a1,1,0,0,0,1-1V35H49Z"></path><path d="M21,15a2,2,0,0,1-4,0,1,1,0,0,0-2,0,4,4,0,0,0,8,0,1,1,0,0,0-2,0Z"></path><path d="M58.447,24.105,55,22.382V15a1,1,0,0,0-.293-.707l-4-4a1,1,0,0,0-1.414,0l-4,4A1,1,0,0,0,45,15v7.382l-3.447,1.723A1,1,0,0,0,41,25v4a1,1,0,0,0,1,1h3.279l.772,2.316A1,1,0,0,0,47,33h6a1,1,0,0,0,.949-.684L54.721,30H58a1,1,0,0,0,1-1V25A1,1,0,0,0,58.447,24.105ZM47,15.414l3-3,3,3V28H51V25H49v3H47V15.414Zm-4,10.2,2-1V28H43ZM52.279,31H47.721l-.334-1h5.226ZM57,28H55V24.618l2,1Z"></path><rect x="49" y="15" width="2" height="2"></rect></g></svg>