<svg xmlns="http://www.w3.org/2000/svg" viewBox="0 0 64 64" x="0px" y="0px"><g><rect x="13" y="4" width="6" height="3"></rect><path d="M51,9H45v6a3,3,0,0,1-3,3H23c-1.592,0-4-1.2-4-3V9H13V57a3,3,0,0,0,3,3H48a3,3,0,0,0,3-3ZM21,39a10.993,10.993,0,0,0,8.249,10.653l-.5,1.938a13,13,0,0,1,.5-25.293l-1.3-.912L29.1,23.747l3.476,2.434a1,1,0,0,1,.245,1.392l-2.433,3.476L28.747,29.9l1.192-1.7A11.013,11.013,0,0,0,21,39ZM34.746,51.7l1.3.912L34.9,54.253l-3.476-2.434a1,1,0,0,1-.245-1.392l2.433-3.476L35.253,48.1l-1.192,1.7a11,11,0,0,0,.69-21.452l.5-1.938a13,13,0,0,1-.5,25.293Z"></path><rect x="45" y="4" width="6" height="3"></rect></g></svg>