<svg xmlns="http://www.w3.org/2000/svg" viewBox="0 0 64 64" x="0px" y="0px"><g data-name="Santa Claus-Xmas-Christmas-Sleigh-Transportation"><path d="M61,48H59V47a1,1,0,0,0,1-1V42a1,1,0,0,0-1-1H56V37a1,1,0,0,0-1-1H50.3a6.947,6.947,0,0,0-4.57-3.76A3.034,3.034,0,0,0,46,31a3,3,0,0,0-1.33-2.49l3.11-3.89a.981.981,0,0,0,.12-1.05A1,1,0,0,0,47,23c-.59,0-.66-.07-.79-.21A2.7,2.7,0,0,0,44,22a2.7,2.7,0,0,0-2.21.79c-.13.14-.2.21-.79.21s-.66-.07-.79-.21A2.7,2.7,0,0,0,38,22a2.7,2.7,0,0,0-2.21.79c-.13.14-.2.21-.79.21a1,1,0,0,0-.9.57.981.981,0,0,0,.12,1.05l3.11,3.89A3,3,0,0,0,36,31a2.888,2.888,0,0,0,.28,1.24c-.02.01-.05.01-.07.02A2.888,2.888,0,0,0,35,32h-.37A18.808,18.808,0,0,0,27,22.05V20a2.986,2.986,0,0,0-1-2.22V15c0-.06-.01-.12-.01-.18a2.982,2.982,0,0,0,.81-5.21l.76-.76L30.6,7.64A3,3,0,1,0,29.78,3H20.47A5.038,5.038,0,0,0,16,5.76L14.34,9.08a2.988,2.988,0,0,0-.33,5.74c0,.06-.01.12-.01.18v2.78A2.986,2.986,0,0,0,13,20v2.05A18.856,18.856,0,0,0,5.37,32H5a3.009,3.009,0,0,0-3,3,2.954,2.954,0,0,0,.87,2.11,3.054,3.054,0,0,0,1.23.74c-.02.28-.04.56-.06.85a3.067,3.067,0,0,0,.85,2.32A3.163,3.163,0,0,0,7.17,42H8.24a10.144,10.144,0,0,0,.34,1.31A14.261,14.261,0,0,0,12.13,49,2.976,2.976,0,0,1,13,51.17v5.86A4.952,4.952,0,0,0,11,61a1,1,0,0,0,1,1H28a1,1,0,0,0,1-1,4.952,4.952,0,0,0-2-3.97V55.97A4.924,4.924,0,0,0,30,57h4v3H32a1,1,0,0,1-1-1H29a3.009,3.009,0,0,0,3,3H55a3.009,3.009,0,0,0,3-3H56a1,1,0,0,1-1,1H53V57h4a5,5,0,0,0,5-5V49A1,1,0,0,0,61,48ZM32,4a1,1,0,1,1-1,1A1,1,0,0,1,32,4ZM58,43v2H50V43Zm-1,4v1.84L56.28,51H51V47Zm-3-9v2H42V38Zm-5,9v4H43V42h5v4A1,1,0,0,0,49,47ZM36.75,24.59a3.579,3.579,0,0,0,.46-.38c.13-.14.2-.21.79-.21s.66.07.79.21A2.7,2.7,0,0,0,41,25a2.7,2.7,0,0,0,2.21-.79c.13-.14.2-.21.79-.21s.66.07.79.21a3.579,3.579,0,0,0,.46.38L42.52,28H39.48ZM44,31a1,1,0,0,1-1,1H39a1,1,0,0,1,0-2h4A1,1,0,0,1,44,31Zm-6.89,6.13a2.877,2.877,0,0,0,.7-3.11A1.225,1.225,0,0,1,38,34h6a5.01,5.01,0,0,1,4,2H41a1,1,0,0,0-1,1v4a1,1,0,0,0,1,1v7.46l-2.08-4.85A1,1,0,0,0,38,44H33V41.98a3.122,3.122,0,0,0,2.11-.96,3.081,3.081,0,0,0,.85-2.32c-.02-.3-.04-.58-.06-.85A2.817,2.817,0,0,0,37.11,37.13ZM30.21,46h7.13l.86,2H28.81A13,13,0,0,0,30.21,46ZM23,44V42h6.71c-.06.23-.11.45-.19.69A13.733,13.733,0,0,1,29,44Zm8.9-6h2c.03.26.05.53.06.82a1.089,1.089,0,0,1-.3.82,1.135,1.135,0,0,1-.83.36H32c0-.35-.01-.71-.03-1.04S31.93,38.32,31.9,38ZM35,34a.949.949,0,0,1,.54.16A.985.985,0,0,1,36,35a.949.949,0,0,1-.31.71A.928.928,0,0,1,35,36H31.6c-.14-.69-.31-1.35-.51-2Zm-8.19-9.7a17.12,17.12,0,0,1,5.7,7.7H30.33a15.007,15.007,0,0,0-4.41-5.87A5.467,5.467,0,0,0,26.81,24.3ZM17.78,6.66A3.044,3.044,0,0,1,20.47,5H29a3.061,3.061,0,0,0,.2,1.05L26.63,7.07a1.105,1.105,0,0,0-.34.22L25.16,8.43,23.83,6.45l-1.66,1.1L23.13,9H16.62ZM14,12a1,1,0,0,1,1-1H25a1,1,0,0,1,0,2H15A1,1,0,0,1,14,12Zm10,7a1,1,0,0,1,1,1v3c0,2.5-3.34,4.3-4.99,4.93C18.87,27.48,15,25.74,15,23V20a1,1,0,0,1,1-1Zm-8-2V15h8v2ZM8.03,38.94C8.01,39.29,8,39.65,8,40H7.17a1.135,1.135,0,0,1-.83-.36,1.107,1.107,0,0,1-.3-.84c.01-.28.03-.54.05-.8H8.1C8.07,38.32,8.05,38.63,8.03,38.94ZM8.4,36H5a.949.949,0,0,1-.71-.31A.928.928,0,0,1,4,35a1,1,0,0,1,1-1H8.91C8.71,34.65,8.54,35.31,8.4,36Zm-.91-4a17.12,17.12,0,0,1,5.7-7.7,5.467,5.467,0,0,0,.89,1.83A14.912,14.912,0,0,0,9.67,32Zm2.54,7.04a18.142,18.142,0,0,1,.19-1.88,17.061,17.061,0,0,1,1.04-3.79,13.076,13.076,0,0,1,4.21-5.78,14.594,14.594,0,0,0,4.21,2.36,1.049,1.049,0,0,0,.64,0,14.594,14.594,0,0,0,4.21-2.36,13.052,13.052,0,0,1,4.21,5.79,16.888,16.888,0,0,1,1.04,3.77,18.424,18.424,0,0,1,.19,1.91c.02.31.03.63.03.94H10Q10,39.535,10.03,39.04ZM21,42v2H19V42Zm-9.99,2a10.86,10.86,0,0,1-.53-1.31c-.08-.24-.13-.46-.19-.69H17v2Zm2.16,16a3,3,0,0,1,5.66,0Zm8,0a3,3,0,0,1,5.66,0ZM26.5,47.55a4.738,4.738,0,0,0-.75.92,5.1,5.1,0,0,0-.75,2.7V56.1a5.468,5.468,0,0,0-1-.1,4.924,4.924,0,0,0-3,1.03V48H19v9.03A4.924,4.924,0,0,0,16,56a5.468,5.468,0,0,0-1,.1V51.17a4.962,4.962,0,0,0-1.51-3.63A10.524,10.524,0,0,1,12.16,46H27.84A10.669,10.669,0,0,1,26.5,47.55ZM51,60H36V57H51Zm9-8a3.009,3.009,0,0,1-3,3H30a3.009,3.009,0,0,1-3-3v-.83A3.244,3.244,0,0,1,27.22,50H39.06l1.02,2.39A1,1,0,0,0,41,53H57a1.014,1.014,0,0,0,.95-.68L58.72,50H60Z"></path><rect x="19" y="32" width="2" height="2"></rect><rect x="19" y="36" width="2" height="2"></rect><path d="M20,23a1,1,0,0,1-1-1H17a3,3,0,0,0,6,0H21A1,1,0,0,1,20,23Z"></path></g></svg>