<svg xmlns="http://www.w3.org/2000/svg" viewBox="0 0 64 64" x="0px" y="0px"><g><path d="M41,10h3.586L40,5.414V9A1,1,0,0,0,41,10Z"></path><rect x="54.359" y="32.14" width="1" height="6.001" transform="translate(-8.779 49.087) rotate(-45.003)"></rect><rect x="39.996" y="43.333" width="17" height="2" transform="translate(-17.144 47.274) rotate(-44.998)"></rect><path d="M59.456,30.544a3.005,3.005,0,0,0-4.243,0l-.707.707,4.243,4.243.707-.707A3.005,3.005,0,0,0,59.456,30.544Z"></path><path d="M34.96,38.03a1.024,1.024,0,0,0-.71-.29,1.007,1.007,0,0,0-1,1,.96.96,0,0,0,.3.7l1.41,1.42a1.014,1.014,0,0,0,1.41,0,1,1,0,0,0,0-1.41Z"></path><polygon points="41.635 52.321 37.678 48.364 37.207 50.722 39.278 52.793 41.635 52.321"></polygon><rect x="37.167" y="40.504" width="17" height="2.001" transform="translate(-15.972 44.448) rotate(-45)"></rect><path d="M34.707,53.878a1,1,0,0,0,0,1.415,1.023,1.023,0,0,0,1.413,0l1.416-1.414-1.415-1.415Z"></path><path d="M33.84,42.98a.99.99,0,0,0-.29-.71l-1.42-1.41a1,1,0,1,0-1.41,1.41l1.41,1.42a1.008,1.008,0,0,0,1.42,0A.99.99,0,0,0,33.84,42.98Z"></path><polygon points="16.93 18.59 8.44 27.07 9.86 28.49 18.34 20 16.93 18.59"></polygon><path d="M37.79,35.2a1.024,1.024,0,0,0-.71-.29,1.042,1.042,0,0,0-.71.29,1.008,1.008,0,0,0,0,1.42l1.42,1.41a1,1,0,1,0,1.41-1.41Z"></path><path d="M18.7,27.42l1.41-1.41a3.066,3.066,0,0,0,4.24,0,1.037,1.037,0,0,1,1.42,0l4.24,4.24a1.014,1.014,0,0,0,1.41,0,.978.978,0,0,0,0-1.41L23.59,21H20.17l-8.9,8.9,3.54,3.54,5.12-5.13A5.076,5.076,0,0,1,18.7,27.42Z"></path><path d="M41,12a3.009,3.009,0,0,1-3-3V4H7A3.009,3.009,0,0,0,4,7V57a3.009,3.009,0,0,0,3,3H43a3.009,3.009,0,0,0,3-3V51.07l-2.81,2.81a.975.975,0,0,1-.51.27l-3.24.65-1.9,1.91a3.005,3.005,0,0,1-4.25-4.25l1.91-1.9.65-3.24a.975.975,0,0,1,.27-.51L46,36.93V12ZM12,8h6v2H12ZM8,8h2v2H8Zm0,4H18v2H8ZM18,50H8V48H18Zm-2-6v2H8V44ZM8,42V40h6v2ZM31,56H21V54H31ZM43.09,30.61l-3.53,3.53,1.06,1.06a2.988,2.988,0,0,1-1.97,5.11,2.963,2.963,0,0,1-2.83,2.83,2.944,2.944,0,0,1-2.83,2.82,2.91,2.91,0,0,1-.86,1.97,2.994,2.994,0,0,1-4.24,0l-1.06-1.06a2.988,2.988,0,0,1-5.11-1.96,2.983,2.983,0,0,1-2.83-2.83,2.964,2.964,0,0,1-1.96-.87,2.906,2.906,0,0,1-.86-1.96,2.973,2.973,0,0,1-2.55-4.27l-7.2-7.2a1.008,1.008,0,0,1,0-1.42l9.9-9.9a1.008,1.008,0,0,1,1.42,0L20.17,19H24a1.033,1.033,0,0,1,.71.29l2.92,2.92,1.53-.3,2.62-2.62a1.034,1.034,0,0,1,1.41,0l9.9,9.9A1.008,1.008,0,0,1,43.09,30.61Z"></path><path d="M29.3,39.45a2.988,2.988,0,0,1,1.97-.84,2.961,2.961,0,0,1,2.83-2.86,2.906,2.906,0,0,1,.86-1.96,3.007,3.007,0,0,1,2.89-.77l.3-.29L32.9,27.49a3,3,0,0,1-.06,4.18,3.075,3.075,0,0,1-4.24,0l-3.61-3.61a4.949,4.949,0,0,1-2.76.83c-.02,0-.03-.01-.05-.01l-6.67,6.68a1,1,0,0,0,0,1.41,1.027,1.027,0,0,0,1.42,0l2.83-2.83,1.41,1.42-2.83,2.82a1,1,0,1,0,1.42,1.42l2.83-2.83L24,38.38l-2.83,2.83a1.014,1.014,0,0,0,0,1.42,1.032,1.032,0,0,0,1.4.01c0-.01,0-.01.01-.01l2.83-2.83,1.42,1.41v.01L24,44.04a.01.01,0,0,1-.01.01.993.993,0,0,0,.01,1.4.951.951,0,0,0,.7.29.972.972,0,0,0,.71-.29l.3-.29a3.008,3.008,0,0,1,.76-2.89,3.046,3.046,0,0,1,1.97-.86A3,3,0,0,1,29.3,39.45Z"></path><polygon points="40.97 29.9 32.49 21.41 31.07 22.83 39.56 31.31 40.97 29.9"></polygon><path d="M29.3,43.69a1,1,0,1,0-1.41,1.41l1.41,1.42a1.037,1.037,0,0,0,1.42,0,1.008,1.008,0,0,0,0-1.42Z"></path></g></svg>