<svg xmlns="http://www.w3.org/2000/svg" viewBox="0 0 64 64" x="0px" y="0px"><g><path d="M59,12H53V5a3,3,0,0,0-3-3H20a3,3,0,0,0-3,3V16H5a3,3,0,0,0-3,3V59a3,3,0,0,0,3,3H35a3,3,0,0,0,3-3V58H59a3,3,0,0,0,3-3V15A3,3,0,0,0,59,12Zm-7,2h2v2.764l-.1-.211a1.042,1.042,0,0,0-1.79,0l-.1.211ZM43,4h2V5.7l-.168-.252a1.039,1.039,0,0,0-1.664,0L43,5.7ZM19,5a1,1,0,0,1,1-1H41V9a1,1,0,0,0,1.832.555L44,7.8l1.168,1.752A1,1,0,0,0,47,9V4h3a1,1,0,0,1,1,1v7H29a3,3,0,0,0-3,3v1H19Zm9,13h2v2.764l-.105-.211a1.042,1.042,0,0,0-1.79,0L28,20.764Zm8,41a1,1,0,0,1-1,1H5a1,1,0,0,1-1-1V19a1,1,0,0,1,1-1H26v7a1,1,0,0,0,1.895.447L29,23.236l1.105,2.211A1,1,0,0,0,32,25V18h3a1,1,0,0,1,1,1Zm24-4a1,1,0,0,1-1,1H38V19a3,3,0,0,0-3-3H28V15a1,1,0,0,1,1-1H50v7a1,1,0,0,0,1.9.447L53,19.236l1.1,2.211A1,1,0,0,0,56,21V14h3a1,1,0,0,1,1,1Z"></path><rect x="40" y="24" width="16" height="2"></rect><rect x="40" y="28" width="16" height="2"></rect><rect x="52" y="32" width="4" height="2"></rect><rect x="40" y="32" width="10" height="2"></rect><rect x="48" y="36" width="8" height="2"></rect><rect x="40" y="36" width="6" height="2"></rect><rect x="40" y="40" width="10" height="2"></rect><rect x="52" y="40" width="4" height="2"></rect><rect x="40" y="44" width="4" height="2"></rect><rect x="46" y="44" width="10" height="2"></rect><rect x="40" y="48" width="8" height="2"></rect><rect x="50" y="48" width="2" height="2"></rect><rect x="54" y="48" width="2" height="2"></rect><rect x="8" y="30" width="6" height="2"></rect><rect x="16" y="30" width="16" height="2"></rect><rect x="8" y="46" width="6" height="2"></rect><rect x="16" y="46" width="16" height="2"></rect><rect x="8" y="50" width="8" height="2"></rect><rect x="18" y="50" width="10" height="2"></rect><rect x="30" y="50" width="2" height="2"></rect><rect x="8" y="34" width="2" height="2"></rect><rect x="12" y="34" width="10" height="2"></rect><rect x="24" y="34" width="8" height="2"></rect><rect x="8" y="38" width="24" height="2"></rect><rect x="8" y="42" width="24" height="2"></rect></g></svg>