<svg xmlns="http://www.w3.org/2000/svg" data-name="Knowledge Tree" viewBox="0 0 64 64" x="0px" y="0px"><path d="M32,4.163C31.066,4.774,29,6.42,29,9s2.065,4.225,3,4.837c.934-.611,3-2.257,3-4.837S32.935,4.775,32,4.163Z"></path><path d="M21.754,20.534a5.011,5.011,0,0,0,6.124,3.535l2.9-.776L30,20.4a5.012,5.012,0,0,0-6.124-3.537l-2.9.777Z"></path><path d="M34,20.4l-.776,2.9,2.9.776a5.01,5.01,0,0,0,6.124-3.535l.776-2.9-2.9-.777A5,5,0,0,0,34,20.4Z"></path><path d="M29,58v1H10V31.03h1V57a1,1,0,0,0,1,1Z"></path><path d="M54,31.03V59H35V58H52a1,1,0,0,0,1-1V31.03Z"></path><path d="M34,30v1H33v9H31V31H30V30H13V56H29V42h2V59a1,1,0,0,0,2,0V42h2V56H51V30ZM15,34h2v2H15ZM27,52H15V50H27Zm0-4H15V46H27Zm0-4H15V42H27Zm0-4H15V38H27Zm0-4H19V34h8Zm10-2h4v2H37ZM49,52H37V50H49Zm0-4H37V46H49Zm0-4H37V42H49Zm0-4H37V38H49Zm0-4H43V34h6Z"></path><rect x="48" y="15" width="4" height="2"></rect><rect x="47.387" y="10.341" width="4" height="2" transform="translate(-1.252 13.181) rotate(-15.013)"></rect><rect x="45.588" y="6" width="4" height="2" transform="translate(2.876 24.733) rotate(-30.002)"></rect><rect x="42.728" y="2.272" width="4.001" height="2" transform="translate(10.787 32.586) rotate(-45)"></rect><rect x="18.272" y="1.271" width="2" height="4.001" transform="translate(3.331 14.586) rotate(-45)"></rect><rect x="15.411" y="5" width="2" height="4" transform="translate(2.143 17.712) rotate(-59.998)"></rect><rect x="13.613" y="9.341" width="2" height="4" transform="translate(-0.126 22.518) rotate(-74.987)"></rect><rect x="12" y="15" width="4" height="2"></rect><rect x="12.613" y="19.659" width="4" height="2" transform="translate(-4.849 4.486) rotate(-15)"></rect><rect x="14.412" y="24" width="4" height="2" transform="translate(-10.3 11.553) rotate(-29.995)"></rect><rect x="46.588" y="23" width="2" height="4" transform="translate(2.143 53.711) rotate(-59.998)"></rect><rect x="48.387" y="18.659" width="2" height="4" transform="translate(16.64 63.008) rotate(-74.987)"></rect><rect x="31" y="16" width="2" height="12"></rect></svg>