<svg xmlns="http://www.w3.org/2000/svg" viewBox="0 0 64 64" x="0px" y="0px"><g data-name="Playground"><path d="M20,44v2H14V44H12V60H22V44Zm-6,8h6v2H14Zm6-4v2H14V48Zm0,10H14V56h6Z"></path><rect x="38" y="46" width="6" height="4"></rect><rect x="50" y="54" width="4" height="6"></rect><path d="M43,60h5V54H47a3,3,0,0,1-2.816-2H38v3A5.006,5.006,0,0,0,43,60Z"></path><rect x="56" y="54" width="4" height="6"></rect><path d="M37.816,44H44V41a5.006,5.006,0,0,0-5-5H30v6h5A3,3,0,0,1,37.816,44Z"></path><rect x="6" y="44" width="2" height="16"></rect><path d="M28,35V24H6V42H9V36a8,8,0,0,1,16,0v6h3Z"></path><polygon points="17 6.629 5.045 22 28.955 22 17 6.629"></polygon><path d="M17,30a6.006,6.006,0,0,0-6,6v6H23V36A6.006,6.006,0,0,0,17,30Z"></path><rect x="26" y="44" width="2" height="16"></rect></g></svg>