<svg xmlns="http://www.w3.org/2000/svg" viewBox="0 0 64 64" x="0px" y="0px"><g><rect x="42" y="8" width="2" height="4"></rect><rect x="42" y="14" width="2" height="2"></rect><rect x="20" y="8" width="2" height="4"></rect><rect x="20" y="14" width="2" height="2"></rect><path d="M15,28.013v.008C15.308,29.04,21.406,31,32,31c10.551,0,16.637-1.943,16.992-3a.792.792,0,0,0-.275-.32l-.015-.012a2.706,2.706,0,0,0-.265-.176c-.024-.015-.051-.03-.078-.045a17.68,17.68,0,0,0-5.12-1.553l-.178-.033c-.907-.163-1.933-.31-3.061-.437V29H38V25.234c-.936-.074-1.939-.13-3-.17-.03,1.23-.966,4.936-3,4.936s-2.967-3.706-3-4.935c-1.064.039-2.067.095-3,.169V29H24V25.424c-1.109.124-2.118.269-3.014.428L20.7,25.9a23.532,23.532,0,0,0-4.037,1.067C15.487,27.435,15.053,27.839,15,28.013Z"></path><path d="M26.449,15.649,24.443,21h2.939l.087-.174A.982.982,0,0,1,27,20V15.089A1,1,0,0,0,26.449,15.649Z"></path><path d="M49,30.458C45.3,32.41,37.282,33,32,33s-13.3-.59-17-2.542V38c0,.447.033.887.067,1.325q.031.4.081.806c.035.277.078.55.126.823s.094.52.152.778c.062.276.135.547.211.817.067.243.133.486.211.726.1.291.205.576.316.861.079.206.154.413.242.616.148.341.313.672.483,1,.069.136.132.275.205.409.249.453.516.9.8,1.323l.01.016a17.158,17.158,0,0,0,3.254,3.586c.053.044.11.083.163.127q.488.393,1,.751c.166.114.336.223.507.332q.345.222.7.427c.239.137.48.271.726.4A16.872,16.872,0,0,0,39.9,53.042c.122-.063.242-.128.362-.194a17.083,17.083,0,0,0,2.488-1.688l.129-.107a17.126,17.126,0,0,0,2.2-2.2c.032-.039.062-.078.094-.116q.469-.576.891-1.191c.015-.022.032-.044.046-.066.282-.417.542-.849.786-1.291.046-.085.09-.171.135-.256q.294-.555.547-1.135c.04-.091.083-.179.121-.27q.273-.657.491-1.34c.041-.127.076-.256.114-.384q.163-.555.29-1.125c.027-.123.059-.245.083-.369.092-.463.162-.932.216-1.407.017-.152.027-.3.04-.456.04-.478.073-.958.073-1.446ZM29,37h2v6a1,1,0,0,0,2,0V37h2v6a3,3,0,0,1-6,0Zm-6,0a1,1,0,0,0-1,1H20a3,3,0,0,1,6,0H24A1,1,0,0,0,23,37Zm9,14c-3.925,0-7-2.2-7-5h2c0,1.626,2.29,3,5,3s5-1.374,5-3h2C39,48.8,35.925,51,32,51ZM42,38a1,1,0,0,0-2,0H38a3,3,0,0,1,6,0Z"></path><path d="M12.608,32.358l-.056.031a3.142,3.142,0,0,0-.347.222l-.036.03a3.021,3.021,0,0,0-.53.53c-.025.033-.056.063-.08.1-.05.07-.091.146-.135.22s-.095.163-.136.249c-.031.067-.059.136-.086.206a2.885,2.885,0,0,0-.1.331c-.015.06-.032.118-.044.178a2.758,2.758,0,0,0,0,1.1c.012.06.029.117.043.176a3.121,3.121,0,0,0,.1.336c.026.067.053.133.083.2a3,3,0,0,0,.149.273c.039.065.075.132.119.193a3.472,3.472,0,0,0,.526.558c.051.043.1.087.154.127a2.944,2.944,0,0,0,.267.17c.055.032.11.062.167.09a2.861,2.861,0,0,0,.3.133l.033.01V32.184A3.133,3.133,0,0,0,12.608,32.358Z"></path><path d="M39,60V55.647a18.784,18.784,0,0,1-14,0V60Z"></path><path d="M33,25a1,1,0,0,0-2,0,6.2,6.2,0,0,0,1,2.916A6.2,6.2,0,0,0,33,25Z"></path><path d="M37,20a.982.982,0,0,1-.469.826l.087.174h2.939L37.55,15.649a.993.993,0,0,0-.55-.56Z"></path><path d="M51.392,37.642l.056-.031a3.051,3.051,0,0,0,.347-.222l.036-.03a3.021,3.021,0,0,0,.53-.53c.025-.033.056-.063.08-.1.05-.07.091-.146.135-.22s.095-.163.136-.249c.031-.067.059-.137.086-.206a2.885,2.885,0,0,0,.1-.331c.015-.059.032-.118.044-.178a2.758,2.758,0,0,0,0-1.1c-.012-.06-.029-.119-.044-.178a2.809,2.809,0,0,0-.1-.33c-.027-.07-.055-.14-.086-.207-.041-.086-.088-.168-.136-.249s-.085-.15-.135-.22c-.024-.034-.055-.064-.08-.1a3.021,3.021,0,0,0-.53-.53l-.036-.03a3.142,3.142,0,0,0-.347-.222l-.056-.03A3,3,0,0,0,51,32.184v5.632h0A3.133,3.133,0,0,0,51.392,37.642Z"></path><polygon points="32.613 21 31.387 21 31.721 22 32.279 22 32.613 21"></polygon><path d="M33,19h2V10.379a8.734,8.734,0,0,0-1.518-5C32.73,4.29,32.2,4,32,4s-.73.29-1.482,1.376a8.734,8.734,0,0,0-1.518,5V19h2V13h2ZM32,9.118,30.447,9.9l-.894-1.79,2-1a1,1,0,0,1,.894,0l2,1L33.553,9.9Z"></path><rect x="49" y="11" width="2" height="5"></rect><rect x="49" y="18" width="2" height="2"></rect><rect x="13" y="11" width="2" height="5"></rect><rect x="13" y="18" width="2" height="2"></rect></g></svg>