<svg xmlns="http://www.w3.org/2000/svg" viewBox="0 0 32 32" x="0px" y="0px"><title>File Plus_6</title><g data-name="File Plus"><path d="M27.99,7.945a.941.941,0,0,0-.04-.223.775.775,0,0,0-.027-.094,1,1,0,0,0-.164-.279l-6-7a.978.978,0,0,0-.306-.231c-.03-.015-.059-.026-.09-.038a.965.965,0,0,0-.319-.07C21.029.009,21.015,0,21,0H5A1,1,0,0,0,4,1V31a1,1,0,0,0,1,1H27a1,1,0,0,0,1-1V8C28,7.981,27.991,7.964,27.99,7.945ZM22,3.7,24.826,7H22ZM6,30V2H20V8a1,1,0,0,0,1,1h5V30Z"></path><polygon points="17.838 12.748 16 14.586 14.162 12.748 12.748 14.162 14.586 16 12.748 17.838 14.162 19.252 16 17.414 17.838 19.252 19.252 17.838 17.414 16 19.252 14.162 17.838 12.748"></polygon></g></svg>