<svg xmlns="http://www.w3.org/2000/svg" viewBox="0 0 64 64" x="0px" y="0px"><g data-name="Lamp"><path d="M52,2H20A13.015,13.015,0,0,0,7,15V54H3a1,1,0,0,0-1,1v6a1,1,0,0,0,1,1H35a1,1,0,0,0,1-1V55a1,1,0,0,0-1-1H28V52a1,1,0,0,0-1-1H24a1,1,0,0,0-1,1v2H13V13a3,3,0,0,1,3-3H58a1,1,0,0,0,1-1A7.009,7.009,0,0,0,52,2ZM34,60H4V56H34Zm-9-7h1v1H25ZM16,8a5.006,5.006,0,0,0-5,5V54H9V15A11.013,11.013,0,0,1,20,4H52a5.008,5.008,0,0,1,4.9,4Z"></path><rect x="41" y="12" width="2" height="6"></rect><rect x="50" y="11.838" width="1.999" height="6.325" transform="translate(-2.126 16.897) rotate(-18.435)"></rect><rect x="29.838" y="14" width="6.325" height="1.999" transform="translate(8.334 41.563) rotate(-71.565)"></rect></g></svg>