<svg xmlns="http://www.w3.org/2000/svg" viewBox="0 0 64 64" x="0px" y="0px"><g><rect x="10" y="47" width="2" height="2"></rect><rect x="14" y="47" width="10" height="2"></rect><path d="M47,29A13,13,0,1,0,60,42,13.015,13.015,0,0,0,47,29Zm5,22a2,2,0,0,1-2,2H44a2,2,0,0,1-2-2V43a2,2,0,0,1,2-2h2V37H45a1,1,0,0,1-.97-1.243l1-4A1,1,0,0,1,46,31h2a1,1,0,0,1,.97.757l1,4A1,1,0,0,1,49,37H48v4h2a2,2,0,0,1,2,2Z"></path><polygon points="47.219 33 46.781 33 46.281 35 47.719 35 47.219 33"></polygon><path d="M4,12.371,25.836,22.853a4.985,4.985,0,0,0,4.328,0L52,12.371V10a1,1,0,0,0-1-1H5a1,1,0,0,0-1,1Z"></path><polygon points="44 43 44 51 46 51 46 45 48 45 48 51 50.001 51 50 43 44 43"></polygon><path d="M5,41H32.051A14.941,14.941,0,0,1,52,27.875V14.589L31.029,24.655a6.966,6.966,0,0,1-6.058,0L4,14.589V40A1,1,0,0,0,5,41ZM6,30H8v2H6Zm0,4H8v2a1,1,0,0,0,1,1h2v2H9a3,3,0,0,1-3-3Z"></path></g></svg>