<svg xmlns="http://www.w3.org/2000/svg" viewBox="0 0 64 64" x="0px" y="0px"><g data-name="Cloud Data"><path d="M61,28a12.978,12.978,0,0,1-6,10.95V26H9V40.16a9.994,9.994,0,0,1,1.11-18.73A12,12,0,0,1,22,11c.24,0,.48.02.72.04A14.984,14.984,0,0,1,50.74,15.3,13,13,0,0,1,61,28Z"></path><polygon points="7 60 57 60 57 58 35 58 35 59 29 59 29 58 7 58 7 60"></polygon><path d="M49,32H15V52H49ZM19.105,43.553l4-8,1.79.894-4,8Zm5.79.894-1.79-.894,4-8,1.79.894Z"></path><path d="M53,28H11V56H53ZM51,54H13V30H51Z"></path></g></svg>