<svg xmlns="http://www.w3.org/2000/svg" viewBox="0 0 64 64" x="0px" y="0px"><g><rect x="26" y="22" width="4" height="8"></rect><circle cx="28" cy="10" r="2"></circle><path d="M52,11.73,28,4.05,4,11.73V16H52ZM28,14a4,4,0,1,1,4-4A4,4,0,0,1,28,14Z"></path><rect x="41" y="18" width="8" height="2"></rect><path d="M26,36.91A5.992,5.992,0,0,0,30.91,32H26Z"></path><path d="M34,18v3a1,1,0,0,1-1,1H32v8h9V22H40a1,1,0,0,1-1-1V18Z"></path><rect x="43" y="22" width="4" height="8"></rect><rect x="7" y="18" width="8" height="2"></rect><path d="M24,22H23a1,1,0,0,1-1-1V18H17v3a1,1,0,0,1-1,1H15V42h1a1,1,0,0,1,1,1v3h7Z"></path><rect x="7" y="44" width="8" height="2"></rect><rect x="9" y="22" width="4" height="20"></rect><rect x="6" y="48" width="18" height="2"></rect><rect x="4" y="52" width="20" height="4"></rect><rect x="24" y="18" width="8" height="2"></rect><path d="M60,43.09A5.992,5.992,0,0,0,55.09,48H60Z"></path><rect x="49" y="58" width="11" height="2"></rect><rect x="49" y="50" width="11" height="2"></rect><circle cx="43" cy="40" r="3"></circle><path d="M60,32H55.09A5.992,5.992,0,0,0,60,36.91Z"></path><path d="M60,38.93A8,8,0,0,1,53.07,32H32.93A8,8,0,0,1,26,38.93v2.14A8,8,0,0,1,32.93,48H53.07A8,8,0,0,1,60,41.07ZM43,45a5,5,0,1,1,5-5A5.006,5.006,0,0,1,43,45Z"></path><path d="M26,43.09V48h4.91A5.992,5.992,0,0,0,26,43.09Z"></path><rect x="26" y="58" width="11" height="2"></rect><rect x="26" y="54" width="11" height="2"></rect><rect x="26" y="50" width="11" height="2"></rect><rect x="39" y="50" width="8" height="10"></rect><rect x="49" y="54" width="11" height="2"></rect></g></svg>