<svg xmlns="http://www.w3.org/2000/svg" viewBox="0 0 64 64" x="0px" y="0px"><g data-name="Law Book"><path d="M60.615,44.9a4.026,4.026,0,0,0-5.465-1.464L52,45.252V3a1,1,0,0,0-1-1H22a4,4,0,0,0-4,4V44.514a14.974,14.974,0,0,0-3.84,1.624L12.723,47H12a1,1,0,0,0-1-1H3a1,1,0,0,0-1,1V61a1,1,0,0,0,1,1h8a1,1,0,0,0,1-1h7.531a7,7,0,0,1,.818.048l11.921,1.4a14.7,14.7,0,0,0,1.729.1,15.1,15.1,0,0,0,7.523-2.008L59.15,50.366a3.962,3.962,0,0,0,2-3.466A4.021,4.021,0,0,0,60.615,44.9ZM10,60H4V48h6ZM46.634,48.35c-.056-.122-.124-.235-.19-.35h.795ZM22,4H50V8H22a2,2,0,0,1,0-4ZM20,9.444A3.959,3.959,0,0,0,22,10H50V46H31.162l-3.691-1.23A14.968,14.968,0,0,0,22.728,44h-.85A15.069,15.069,0,0,0,20,44.122Zm38.15,39.19L40.522,58.812A13.092,13.092,0,0,1,32.5,60.464l-11.92-1.4A9.026,9.026,0,0,0,19.531,59H12V49h1a1,1,0,0,0,.515-.143l1.674-1A13,13,0,0,1,21.878,46h.85a13,13,0,0,1,4.111.667l3.845,1.282A1,1,0,0,0,31,48H43a2,2,0,0,1,0,4H28v2H43a3.992,3.992,0,0,0,3.952-3.525l4.426-2.554c.017-.008.031-.02.047-.028l4.72-2.724a2,2,0,0,1,3,1.731A1.981,1.981,0,0,1,58.15,48.634Z"></path><rect x="30" y="14" width="10" height="2"></rect><path d="M27,36a5.006,5.006,0,0,0,5-5,1,1,0,0,0-.105-.447L28.618,24h3.566A3,3,0,0,0,34,25.816V38H29v2H41V38H36V25.816A3,3,0,0,0,37.816,24h3.566L38.1,30.553A1,1,0,0,0,38,31a5,5,0,0,0,10,0,1,1,0,0,0-.1-.447L44.618,24H46V22H37.816A3,3,0,0,0,36,20.184V19H34v1.184A3,3,0,0,0,32.184,22H24v2h1.382l-3.277,6.553A1,1,0,0,0,22,31,5.006,5.006,0,0,0,27,36ZM43,25.236,45.382,30H40.618ZM43,34a3,3,0,0,1-2.815-2h5.63A3,3,0,0,1,43,34ZM35,22a1,1,0,1,1-1,1A1,1,0,0,1,35,22ZM27,34a3,3,0,0,1-2.815-2h5.63A3,3,0,0,1,27,34Zm-2.382-4L27,25.236,29.382,30Z"></path><rect x="25" y="38" width="2" height="2"></rect><rect x="43" y="38" width="2" height="2"></rect></g></svg>