<svg xmlns="http://www.w3.org/2000/svg" viewBox="0 0 64 64" x="0px" y="0px"><g><path d="M41.709,27.294l-1.991-2A1,1,0,0,0,39.009,25H37.535l-3.109-4.664A3,3,0,0,0,31.93,19H21.236a2.983,2.983,0,0,0-2.683,1.658L16.382,25H14a2,2,0,0,0-2,2v5a1,1,0,0,0,1,1h2.184a2.982,2.982,0,0,0,5.632,0H33.184a2.982,2.982,0,0,0,5.632,0H41a1,1,0,0,0,1-1V28A1,1,0,0,0,41.709,27.294Zm-8.947-5.849L35.132,25H27V21h4.93A1,1,0,0,1,32.762,21.445Zm-12.42.108A.994.994,0,0,1,21.236,21H25v4H18.618ZM18,33a1,1,0,1,1,1-1A1,1,0,0,1,18,33Zm18,0a1,1,0,1,1,1-1A1,1,0,0,1,36,33Zm4-2H38.816a2.982,2.982,0,0,0-5.632,0H20.816a2.982,2.982,0,0,0-5.632,0H14V27H38.594L40,28.413Z"></path><path d="M27,7A20,20,0,1,0,47,27,20.023,20.023,0,0,0,27,7Zm0,38A18,18,0,1,1,45,27,18.021,18.021,0,0,1,27,45Z"></path><path d="M59.527,49.623l-10.613-10.6a25.018,25.018,0,1,0-9.9,9.9L49.625,59.528a7,7,0,0,0,9.9-9.905ZM4,27A23,23,0,1,1,27,50,23.026,23.026,0,0,1,4,27ZM47.846,40.779l1.78,1.779-7.068,7.068-1.779-1.78A25.216,25.216,0,0,0,47.846,40.779ZM58.113,58.113a5.016,5.016,0,0,1-7.075,0L43.971,51.04l7.069-7.069,7.071,7.065A5.016,5.016,0,0,1,58.113,58.113Z"></path><rect x="20" y="13" width="2" height="2"></rect><rect x="27" y="15" width="2" height="2"></rect><rect x="27" y="37" width="2" height="2"></rect><rect x="20" y="38" width="2" height="2"></rect><rect x="34" y="13" width="2" height="2"></rect><polygon points="50 8 52 8 52 6 54 6 54 4 52 4 52 2 50 2 50 4 48 4 48 6 50 6 50 8"></polygon><polygon points="57 27 59 27 59 25 61 25 61 23 59 23 59 21 57 21 57 23 55 23 55 25 57 25 57 27"></polygon><polygon points="35 56 33 56 33 58 31 58 31 60 33 60 33 62 35 62 35 60 37 60 37 58 35 58 35 56"></polygon><polygon points="9 48 7 48 7 50 5 50 5 52 7 52 7 54 9 54 9 52 11 52 11 50 9 50 9 48"></polygon></g></svg>