<svg xmlns="http://www.w3.org/2000/svg" viewBox="0 0 64 64" x="0px" y="0px"><g data-name="Video Player-Smartphone-Streaming-Technology-Recording"><rect x="27" y="40" width="2" height="4"></rect><path d="M32,34a3,3,0,1,0-3-3A3,3,0,0,0,32,34Zm-1-4h2v2H31Z"></path><rect x="23" y="40" width="2" height="4"></rect><rect x="31" y="40" width="2" height="4"></rect><circle cx="25" cy="32" r="2"></circle><path d="M25,24a6,6,0,1,0-6-6A6.006,6.006,0,0,0,25,24Zm-3-8.132A2,2,0,0,1,25.109,14.2l3.2,2.132a2,2,0,0,1,0,3.328l-3.2,2.132A2,2,0,0,1,22,20.132Z"></path><path d="M34,54H30a1,1,0,0,0,0,2h4a1,1,0,0,0,0-2Z"></path><path d="M19,48H37V36H19Zm2-9a1,1,0,0,1,1-1H34a1,1,0,0,1,1,1v6a1,1,0,0,1-1,1H22a1,1,0,0,1-1-1Z"></path><polygon points="24 15.868 24 20.138 27.197 18 24 15.868"></polygon><path d="M50,8a4,4,0,0,0-4-4H18a4,4,0,0,0-4,4V56a4,4,0,0,0,4,4H46a4,4,0,0,0,4-4ZM29,6h6V8H29ZM25,6h2V8H25Zm0,4a8,8,0,1,1-8,8A8.009,8.009,0,0,1,25,10Zm9,48H30a3,3,0,0,1,0-6h4a3,3,0,0,1,0,6ZM47,46a1,1,0,0,1-1,1H42a1,1,0,0,1-.708-.294L39.586,45H39v3a2,2,0,0,1-2,2H19a2,2,0,0,1-2-2V36a2,2,0,0,1,2-2h2.556A3.959,3.959,0,0,1,21,32a3.978,3.978,0,0,1,6.484-3.111A4.986,4.986,0,1,1,35.974,34H37a2,2,0,0,1,2,2v3h.586l1.706-1.706A1,1,0,0,1,42,37h4a1,1,0,0,1,1,1Zm0-28H42.816a2.982,2.982,0,0,1-5.632,0H35V16h2.184a2.982,2.982,0,0,1,5.632,0H47Z"></path><circle cx="40" cy="17" r="1"></circle><rect x="43" y="39" width="2" height="6"></rect><path d="M40,41H39v2h1a1,1,0,0,1,.707.293l.293.293V40.414l-.293.293A1,1,0,0,1,40,41Z"></path></g></svg>