<svg xmlns="http://www.w3.org/2000/svg" viewBox="0 0 64 64" x="0px" y="0px"><title>Email-Marketing</title><g><path d="M59.019,6H10.981A2.985,2.985,0,0,0,8,8.981V16h2V8.981A.982.982,0,0,1,10.981,8H59.02a.98.98,0,0,1,.98.98V43.019a.982.982,0,0,1-.981.981H10.981A.982.982,0,0,1,10,43.019V34H8v9.019A2.985,2.985,0,0,0,10.981,46H27v6H26a1,1,0,0,0-1,1v3H21v2H49V56H45V53a1,1,0,0,0-1-1H43V46H59.019A2.985,2.985,0,0,0,62,43.019V8.98A2.984,2.984,0,0,0,59.019,6ZM27,56V54H43v2Zm14-4H29V46H41Z"></path><rect x="12" y="36" width="46" height="2"></rect><path d="M58,32V12a1,1,0,0,0-1-1H13a1,1,0,0,0-1,1v3h2V13H56V32Z"></path><path d="M41.935,17.676a.912.912,0,0,0-.058-.131.961.961,0,0,0-.123-.183.975.975,0,0,0-.093-.1.944.944,0,0,0-.194-.131.849.849,0,0,0-.107-.058A.988.988,0,0,0,41,17H15a.988.988,0,0,0-.36.073.836.836,0,0,0-.106.058.951.951,0,0,0-.2.131.975.975,0,0,0-.093.1.961.961,0,0,0-.123.183,1.091,1.091,0,0,0-.058.13c-.009.028-.027.051-.035.08a.934.934,0,0,0-.012.158A.838.838,0,0,0,14,18V32a1,1,0,0,0,1,1H41a1,1,0,0,0,1-1V18c0-.031-.015-.057-.018-.088a.93.93,0,0,0-.012-.157C41.962,17.726,41.944,17.7,41.935,17.676ZM37.033,19,28,23.864,18.967,19ZM16,31V19.674L27.526,25.88a1,1,0,0,0,.948,0L40,19.674V31Z"></path><rect x="7" y="20" width="5" height="2"></rect><rect x="2" y="24" width="2" height="2"></rect><rect x="6" y="24" width="6" height="2"></rect><rect x="2" y="28" width="10" height="2"></rect><path d="M54,20V16a1,1,0,0,0-1-1H49v2h3v3Z"></path></g></svg>