<svg xmlns="http://www.w3.org/2000/svg" viewBox="0 0 64 64" x="0px" y="0px"><g data-name="Bottle"><path d="M45.707,26.707A1,1,0,0,0,46,26V18a1,1,0,0,0-.553-.895L38,13.382V10a2,2,0,0,0,2-2V4a2,2,0,0,0-2-2H26a2,2,0,0,0-2,2V8a2,2,0,0,0,2,2v3.382l-7.447,3.723A1,1,0,0,0,18,18v8a1,1,0,0,0,.293.707L20,28.414V39.586l-1.707,1.707A1,1,0,0,0,18,42V59a3,3,0,0,0,3,3H43a3,3,0,0,0,3-3V42a1,1,0,0,0-.293-.707L44,39.586V28.414ZM26,4H38V8H26ZM44,59a1,1,0,0,1-1,1H21a1,1,0,0,1-1-1V42.414L21.414,41H42.586L44,42.414ZM22,29H42V39H22Zm20.586-2H21.414L20,25.586V18.618L27.447,14.9A1,1,0,0,0,28,14V10h8v4a1,1,0,0,0,.553.895L44,18.618v6.968Z"></path></g></svg>