<svg xmlns="http://www.w3.org/2000/svg" viewBox="0 0 64 64" x="0px" y="0px"><g><path d="M61,23H60V8a1,1,0,0,0-1-1H53a1,1,0,0,0-1,1v3H50V10a1,1,0,0,0-1-1H45a1,1,0,0,0-1,1V23H42V15a1,1,0,0,0-1-1H23a1,1,0,0,0-1,1v8H19.82A2.964,2.964,0,0,0,18,19.18V16.82A3,3,0,0,0,17,11H7a1,1,0,0,0-1,1v3H5a3,3,0,0,0-1,5.82V23H3a1,1,0,0,0-1,1v4a1,1,0,0,0,1,1H4V56a1,1,0,0,0,1,1H8a1,1,0,0,0,1-.96L9.97,29H22v2a1,1,0,0,0,1,1h1v3H23a1,1,0,0,0-1,1V56a1,1,0,0,0,1,1h3a1,1,0,0,0,1-.94L27.94,41h8.12L37,56.06A1,1,0,0,0,38,57h3a1,1,0,0,0,1-1V36a1,1,0,0,0-1-1H39V32h2a1,1,0,0,0,1-1V29H54.03L55,56.04A1,1,0,0,0,56,57h3a1,1,0,0,0,1-1V29h1a1,1,0,0,0,1-1V24A1,1,0,0,0,61,23ZM54,9h4V23H54Zm-4,4h2V23H50Zm-4-2h2V23H46ZM24,16H40v7H24ZM8,13h9a1,1,0,0,1,0,2H8Zm10,9a1,1,0,0,1-1,1H6V21H17A1,1,0,0,1,18,22ZM5,17H16v2H5a1,1,0,0,1,0-2ZM7.04,55H6V29H7.96Zm18.02,0H24V41h1.94ZM40,55H38.94l-.88-14H40Zm0-18v2H24V37ZM26,35V32h2v3Zm4,0V32h3v3Zm5,0V32h2v3Zm5-5H24V29H40ZM58,55H56.96l-.92-26H58Zm2-28H4V25H60Z"></path></g></svg>