<svg xmlns="http://www.w3.org/2000/svg" viewBox="0 0 64 64" x="0px" y="0px"><g><path d="M42.707,9.293,44,10.586V4H40v6.586l1.293-1.293A1,1,0,0,1,42.707,9.293Z"></path><path d="M44,58a2.993,2.993,0,0,1-1-5.816V50a3.015,3.015,0,0,1,1.2-2.4l2.4-1.8a1,1,0,0,0,0-1.6l-2.4-1.8A3.017,3.017,0,0,1,43,40V37.816A2.993,2.993,0,0,1,44,32h5V7a3,3,0,0,0-3-3v9a1,1,0,0,1-1.707.707L42,11.414l-2.293,2.293A1,1,0,0,1,38,13V4H10A3,3,0,0,0,7,7V57a3,3,0,0,0,3,3H46a3.009,3.009,0,0,0,.573-.058c.066-.013.129-.037.194-.054a2.734,2.734,0,0,0,.35-.109c.068-.027.131-.063.2-.1a3.053,3.053,0,0,0,.3-.165c.063-.04.121-.087.181-.133A3,3,0,0,0,48.816,58ZM39,20h6v2H39ZM17,8H27v2H17ZM11,8h4v2H11Zm0,4H27v2H11Zm0,8H37v2H11Zm0,6H45v2H11ZM21,54H11V52H21Zm0-4H11V48H21Zm4-10H11V38H25Zm2-6H11V32H27Zm8,0H29V32h6Z"></path><path d="M43,35a1,1,0,0,0,1,1H56a1,1,0,0,0,0-2H44A1,1,0,0,0,43,35Z"></path><path d="M47.8,47.4l-2.4,1.8a1.006,1.006,0,0,0-.4.8v2H55V50a1.007,1.007,0,0,0-.4-.8l-2.4-1.8a3,3,0,0,1,0-4.8l2.4-1.8A1.006,1.006,0,0,0,55,40V38H45v2a1.007,1.007,0,0,0,.4.8l2.4,1.8a3,3,0,0,1,0,4.8Z"></path><path d="M43,55a1,1,0,0,0,1,1H56a1,1,0,0,0,0-2H44A1,1,0,0,0,43,55Z"></path></g></svg>