<svg xmlns="http://www.w3.org/2000/svg" viewBox="0 0 64 64" x="0px" y="0px"><g><path d="M4,50a1,1,0,0,0,1,1H28V40H4Zm14-8h4v2H18Zm-6,0h4v2H12Z"></path><path d="M54,31V19a1,1,0,0,0-1-1H11a1,1,0,0,0-1,1V31a1,1,0,0,0,1,1H53A1,1,0,0,0,54,31ZM14,29H12V27h2Zm3-7H14v3H12V22a2,2,0,0,1,2-2h3Z"></path><path d="M39,40a3,3,0,0,0,0,6h.465L41,43.7V42.3L39.465,40Z"></path><path d="M51,40h-.465L49,42.3V43.7L50.535,46H51a3,3,0,0,0,0-6Z"></path><path d="M42.832,41.445A1.006,1.006,0,0,1,43,42h4a1.006,1.006,0,0,1,.168-.555L48.132,40H41.868Z"></path><path d="M47,44H43a1.006,1.006,0,0,1-.168.555L41.868,46h6.264l-.964-1.445A1.006,1.006,0,0,1,47,44Z"></path><path d="M59,51a1,1,0,0,0,1-1V14a1,1,0,0,0-1-1H5a1,1,0,0,0-1,1V38H29a1,1,0,0,1,1,1V51Zm-8-3H39a5,5,0,0,1,0-10H51a5,5,0,0,1,0,10ZM11,34a3,3,0,0,1-3-3V19a3,3,0,0,1,3-3H53a3,3,0,0,1,3,3V31a3,3,0,0,1-3,3Z"></path></g></svg>