<svg xmlns="http://www.w3.org/2000/svg" viewBox="0 0 64 64" x="0px" y="0px"><g><rect x="28" y="14" width="2" height="6"></rect><path d="M26,51v9H48V50a1,1,0,0,1,1-1,9.01,9.01,0,0,0,9-9V22H10.721L6.388,35H11a1,1,0,0,1,1,1v8a5.006,5.006,0,0,0,5,5H31v2ZM16.5,29A4.505,4.505,0,0,1,12,24.5h2a2.5,2.5,0,0,0,5,0h2A4.505,4.505,0,0,1,16.5,29Z"></path><rect x="28" y="7" width="2" height="5"></rect><polygon points="38 5.236 37 7.236 37 20 39 20 39 7.236 38 5.236"></polygon><polygon points="46 15 46 19 49 19 49 20 52 20 52 4 46 4 46 7 47 7 47 9 46 9 46 13 47 13 47 15 46 15"></polygon><rect x="16" y="3" width="2" height="2"></rect><rect x="18" y="5" width="2" height="2"></rect><rect x="16" y="7" width="2" height="2"></rect><rect x="14" y="5" width="2" height="2"></rect><rect x="8" y="11" width="2" height="2"></rect><rect x="10" y="13" width="2" height="2"></rect><rect x="8" y="15" width="2" height="2"></rect><rect x="6" y="13" width="2" height="2"></rect><rect x="58" y="6" width="2" height="2"></rect><rect x="60" y="8" width="2" height="2"></rect><rect x="58" y="10" width="2" height="2"></rect><rect x="56" y="8" width="2" height="2"></rect><path d="M25,15H23V9a1,1,0,0,1,1-1h2v2H25Z"></path></g></svg>