<svg xmlns="http://www.w3.org/2000/svg" viewBox="0 0 64 64" x="0px" y="0px"><g data-name="Online Report"><path d="M4,42H15V12H5a1,1,0,0,0-1,1Z"></path><rect x="25" y="26" width="2" height="6"></rect><path d="M60,48V44H4v4a1,1,0,0,0,1,1H59A1,1,0,0,0,60,48Z"></path><rect x="27" y="51" width="10" height="5"></rect><rect x="24" y="58" width="16" height="2"></rect><polygon points="41 10 45.586 10 41 5.414 41 10"></polygon><rect x="32" y="22" width="2" height="10"></rect><path d="M17,4V42H47V12H40a1,1,0,0,1-1-1V4Zm6,4H35v2H23ZM19,8h2v2H19Zm9,30H24V36h4Zm7,0H31V36h4Zm7,0H38V36h4Zm0-22a1,1,0,0,1,1,1V32h2v2H20a1,1,0,0,1-1-1V13h2V32h2V25a1,1,0,0,1,1-1h4a1,1,0,0,1,1,1v7h1V21a1,1,0,0,1,1-1h4a1,1,0,0,1,1,1V32h1V17a1,1,0,0,1,1-1Z"></path><path d="M60,13a1,1,0,0,0-1-1H49V42H60Z"></path><rect x="39" y="18" width="2" height="14"></rect></g></svg>