<svg xmlns="http://www.w3.org/2000/svg" viewBox="0 0 64 64" x="0px" y="0px"><g><path d="M61.91,45.59,58.54,38H60V36H49.82a2.988,2.988,0,0,0-5.64,0H34v2h1.46l-2.69,6.06-1.01-3.52.94.29.6-1.91L28,37.26v-.68a4.991,4.991,0,0,0,6.22-1.9A5.058,5.058,0,0,0,36,35a5,5,0,0,0,5-5,4.9,4.9,0,0,0-.33-1.79A4.989,4.989,0,0,0,38,19V17A15,15,0,1,0,8,17v2a4.989,4.989,0,0,0-2.67,9.21A4.9,4.9,0,0,0,5,30a5,5,0,0,0,5,5,5.058,5.058,0,0,0,1.78-.32A4.991,4.991,0,0,0,18,36.58v.68L8.32,40.29A8.959,8.959,0,0,0,2,48.88V61a1,1,0,0,0,1,1H55a1,1,0,0,0,1-1V59a3.009,3.009,0,0,0-3-3H50V38h5.46l-3.37,7.59A.978.978,0,0,0,52,46a5,5,0,0,0,10,0A.978.978,0,0,0,61.91,45.59ZM47,36a1,1,0,1,1-1,1A1,1,0,0,1,47,36Zm-1,3.82a2.868,2.868,0,0,0,2,0V56H46Zm-9-.36L39.46,45H34.54ZM39.81,47a2.974,2.974,0,0,1-5.62,0Zm-8.93-2.29-1.59,1.58a1.007,1.007,0,0,0-.24,1.03l.84,2.51-4.2,5.77,4.28-14.06Zm-5.41,4.74-.44-3.28.92-1.83.89.63ZM23,33a9.014,9.014,0,0,1-9-9V17.98a19.236,19.236,0,0,0,11.31-4.32A9.468,9.468,0,0,0,32,16.96V24A9.014,9.014,0,0,1,23,33Zm3,1.57V37.5l-3,2.25L20,37.5V34.57a10.68,10.68,0,0,0,6,0ZM36,17v3.15a1.014,1.014,0,0,0,.4.8.97.97,0,0,0,.87.16A2.942,2.942,0,0,1,38,21a3.009,3.009,0,0,1,3,3,2.968,2.968,0,0,1-2.02,2.81,1.035,1.035,0,0,0-.62.64.99.99,0,0,0,.13.88A2.964,2.964,0,0,1,39,30a3.009,3.009,0,0,1-3,3,2.889,2.889,0,0,1-1.67-.51,1,1,0,0,0-1.5.5A3.007,3.007,0,0,1,30,35a2.963,2.963,0,0,1-2-.79v-.42A11.014,11.014,0,0,0,34,24V16a1,1,0,0,0-1-1,7.726,7.726,0,0,1-6.22-2.72,6.016,6.016,0,0,0,.42-.46,15.167,15.167,0,0,0,3.13-5.54A12.975,12.975,0,0,1,36,17ZM16,35a3.007,3.007,0,0,1-2.83-2.01,1,1,0,0,0-1.5-.5A2.889,2.889,0,0,1,10,33a3.009,3.009,0,0,1-3-3,2.964,2.964,0,0,1,.51-1.67.99.99,0,0,0,.13-.88,1.035,1.035,0,0,0-.62-.64A2.968,2.968,0,0,1,5,24a3.009,3.009,0,0,1,3-3,2.942,2.942,0,0,1,.73.11.97.97,0,0,0,.87-.16,1.014,1.014,0,0,0,.4-.8V17A12.973,12.973,0,0,1,28.55,5.26a13.216,13.216,0,0,1-2.86,5.25,10.137,10.137,0,0,1-.86.9A17.117,17.117,0,0,1,13,16a1,1,0,0,0-1,1v7a11.014,11.014,0,0,0,6,9.79v.42A2.963,2.963,0,0,1,16,35Zm.03,6.54L20.31,55.6l-4.2-5.77.84-2.51a1.007,1.007,0,0,0-.24-1.03l-1.59-1.58Zm3.13,3.43.89-.63.92,1.83-.44,3.28ZM11.97,60a4.846,4.846,0,0,0-.79-2.36A6.723,6.723,0,0,1,10,54a6.609,6.609,0,0,1,1.71-4.29l-1.42-1.42A8.723,8.723,0,0,0,8,54a8.855,8.855,0,0,0,1.52,4.77A2.655,2.655,0,0,1,9.97,60H4V48.88A6.964,6.964,0,0,1,8.91,42.2l5.33-1.66-1.2,4.18a1.029,1.029,0,0,0,.25.99l1.57,1.56-.81,2.41a1.016,1.016,0,0,0,.14.91L21.04,60Zm6.58-17.05L17.5,39.52l1.31-.41,2.5,1.87ZM23,57.57l-1.07-3.52L22.88,47h.24l.95,7.05ZM23.38,45h-.76l-.92-1.84,1.3-.93,1.3.93Zm3.81-5.89,1.31.41-1.05,3.43-2.76-1.97ZM38,59v1H36.03a2.615,2.615,0,0,1,.45-1.23A8.855,8.855,0,0,0,38,54a8.12,8.12,0,0,0-.35-2.29l-1.92.58A5.85,5.85,0,0,1,36,54a6.723,6.723,0,0,1-1.18,3.64A4.846,4.846,0,0,0,34.03,60H24.96l6.85-9.41a1.016,1.016,0,0,0,.14-.91l-.81-2.41.9-.89A4.987,4.987,0,0,0,42,46a.978.978,0,0,0-.09-.41L38.54,38H44V56H41A3.009,3.009,0,0,0,38,59Zm15-1a1,1,0,0,1,1,1v1H40V59a1,1,0,0,1,1-1Zm4-18.54L59.46,45H54.54ZM57,49a2.988,2.988,0,0,1-2.81-2h5.62A2.988,2.988,0,0,1,57,49Z"></path><circle cx="19" cy="21" r="2"></circle><circle cx="27" cy="21" r="2"></circle><path d="M20.872,26.118l-1.4,1.424a5.007,5.007,0,0,0,7.064,0l-1.4-1.424A3.082,3.082,0,0,1,20.872,26.118Z"></path></g></svg>