<svg xmlns="http://www.w3.org/2000/svg" viewBox="0 0 64 64" x="0px" y="0px"><g data-name="Check list-Calculator"><path d="M57,26V5a3,3,0,0,0-3-3H10A3,3,0,0,0,7,5V59a3,3,0,0,0,3,3H57a5.006,5.006,0,0,0,5-5V31A5.006,5.006,0,0,0,57,26ZM55,5V26H52V8a2,2,0,0,0-2-2H41V4H54A1,1,0,0,1,55,5ZM39,26a5.006,5.006,0,0,0-5,5V54H14V8h9V9a1,1,0,0,0,1,1H40a1,1,0,0,0,1-1V8h9V26ZM39,4V8H25V4ZM9,59V5a1,1,0,0,1,1-1H23V6H14a2,2,0,0,0-2,2V54a2,2,0,0,0,2,2H34v1a4.948,4.948,0,0,0,1.026,3H10A1,1,0,0,1,9,59Zm51-2a3,3,0,0,1-3,3H39a3,3,0,0,1-3-3V31a3,3,0,0,1,3-3H57a3,3,0,0,1,3,3Z"></path><path d="M55,30H41a3,3,0,0,0-3,3v6a3,3,0,0,0,3,3H55a3,3,0,0,0,3-3V33A3,3,0,0,0,55,30Zm1,9a1,1,0,0,1-1,1H41a1,1,0,0,1-1-1V33a1,1,0,0,1,1-1H55a1,1,0,0,1,1,1Z"></path><path d="M41,44a3,3,0,1,0,3,3A3,3,0,0,0,41,44Zm0,4a1,1,0,1,1,1-1A1,1,0,0,1,41,48Z"></path><path d="M48,44a3,3,0,1,0,3,3A3,3,0,0,0,48,44Zm0,4a1,1,0,1,1,1-1A1,1,0,0,1,48,48Z"></path><path d="M41,52a3,3,0,1,0,3,3A3,3,0,0,0,41,52Zm0,4a1,1,0,1,1,1-1A1,1,0,0,1,41,56Z"></path><path d="M48,52a3,3,0,1,0,3,3A3,3,0,0,0,48,52Zm0,4a1,1,0,1,1,1-1A1,1,0,0,1,48,56Z"></path><path d="M55,44a3,3,0,0,0-3,3v8a3,3,0,0,0,6,0V47A3,3,0,0,0,55,44Zm1,11a1,1,0,0,1-2,0V47a1,1,0,0,1,2,0Z"></path><path d="M28.293,17.293l-1.362,1.362A.994.994,0,0,0,26,18H18a1,1,0,0,0-1,1v8a1,1,0,0,0,1,1h8a1,1,0,0,0,1-1V21.414l2.707-2.707a1,1,0,0,0-1.414-1.414ZM25,26H19V20h6v.586l-2,2-1.293-1.293a1,1,0,0,0-1.414,1.414l2,2a1,1,0,0,0,1.414,0L25,23.414Z"></path><path d="M28.293,33.293l-1.362,1.362A.994.994,0,0,0,26,34H18a1,1,0,0,0-1,1v8a1,1,0,0,0,1,1h8a1,1,0,0,0,1-1V37.414l2.707-2.707a1,1,0,0,0-1.414-1.414ZM25,42H19V36h6v.586l-2,2-1.293-1.293a1,1,0,0,0-1.414,1.414l2,2a1,1,0,0,0,1.414,0L25,39.414Z"></path><path d="M32,21h6a1,1,0,0,0,0-2H32a1,1,0,0,0,0,2Z"></path><path d="M40,23H32a1,1,0,0,0,0,2h8a1,1,0,0,0,0-2Z"></path></g></svg>