<svg xmlns="http://www.w3.org/2000/svg" viewBox="0 0 64 64" x="0px" y="0px"><g data-name="Shop-Online Shopping-Ecommerce-Basket-Buy"><path d="M34.14,34a3.641,3.641,0,0,1,0-2H29.86a3.641,3.641,0,0,1,0,2Z"></path><path d="M19.63,40.78l4.35-4.35a3.969,3.969,0,0,1-1.41-1.41l-4.35,4.35a1,1,0,1,0,1.41,1.41Z"></path><path d="M22.03,32.74a3.673,3.673,0,0,1,.11-.74H20v2h.76Z"></path><circle cx="26" cy="33" r="2"></circle><path d="M9,56a4,4,0,0,0,4,4H51a4,4,0,0,0,4-4V54H9Zm20,0h6v2H29Z"></path><circle cx="38" cy="33" r="2"></circle><path d="M43.24,34H44V32H41.86a3.673,3.673,0,0,1,.11.74Z"></path><path d="M45.79,40.78a1,1,0,0,0-.01-1.41l-4.35-4.35a3.969,3.969,0,0,1-1.41,1.41l4.35,4.35A.99.99,0,0,0,45.79,40.78Z"></path><path d="M22.79,40.45l.95,6.69a1,1,0,0,0,.99.86H39.27a1.009,1.009,0,0,0,.99-.87l.95-6.68-3.47-3.48A3.971,3.971,0,0,1,35.38,36H28.62a3.971,3.971,0,0,1-2.36.97Zm13.218-2.574,1.984.248-1,8-1.984-.248ZM31,38h2v8H31Zm-2.008,7.876-1.984.248-1-8,1.984-.248Z"></path><path d="M9,52H55V12H9ZM33.076,21.617A1,1,0,0,1,34,21h1V14h2v8a1,1,0,0,1-.649.937L38,24.586l1.649-1.649A1,1,0,0,1,39,22V14h2v7h1a1,1,0,0,1,.707,1.707l-4,4a1,1,0,0,1-1.414,0l-4-4A1,1,0,0,1,33.076,21.617Zm-12,0A1,1,0,0,1,22,21h1V14h2v8a1,1,0,0,1-.649.937L26,24.586l1.649-1.649A1,1,0,0,1,27,22V14h2v7h1a1,1,0,0,1,.707,1.707l-4,4a1,1,0,0,1-1.414,0l-4-4A1,1,0,0,1,21.076,21.617ZM16.8,37.95l2.22-2.21A2.018,2.018,0,0,1,18,34V32a2.006,2.006,0,0,1,2-2h3.38a3.932,3.932,0,0,1,5.24,0h6.76a3.932,3.932,0,0,1,5.24,0H44a2.006,2.006,0,0,1,2,2v2a2.018,2.018,0,0,1-1.02,1.74l2.22,2.21a3,3,0,0,1-4.22,4.27l-.74,5.2A3,3,0,0,1,39.27,50H24.73a3,3,0,0,1-2.97-2.57l-.74-5.21a3,3,0,0,1-4.22-4.27Z"></path><path d="M51,4H13A4,4,0,0,0,9,8v2H55V8A4,4,0,0,0,51,4ZM27,8H25V6h2Zm8,0H29V6h6Z"></path></g></svg>