<svg xmlns="http://www.w3.org/2000/svg" viewBox="0 0 64 64" x="0px" y="0px"><g data-name="Solar Energy"><path d="M49,55H22V54a1,1,0,0,0-1-1H19V52H29.014a1,1,0,0,0,.977-1.21l-3.222-15a1,1,0,0,0-.977-.79H6.208a1,1,0,0,0-.977.79l-3.222,15A1,1,0,0,0,2.986,52H13v1H11a1,1,0,0,0-1,1v1H8v2h2v1a1,1,0,0,0,1,1h2v1H9v2H23V60H19V59h2a1,1,0,0,0,1-1V57H50a1,1,0,0,0,1-1V52H49ZM11.209,42H15v3H10.809ZM8.791,45H5.3l.645-3H9.191ZM26.7,45H23.209l-.4-3h3.248Zm-5.511,0H17V42h3.791Zm.267,2,.4,3H17V47ZM17,40V37h3.124l.4,3Zm-2,0H11.476l.4-3H15Zm0,7v3H10.142l.4-3Zm8.876,3-.4-3h3.655l.645,3Zm1.752-10H22.542l-.4-3h2.841ZM9.858,37l-.4,3H6.372l.645-3ZM4.869,47H8.524l-.4,3h-3.9ZM12,57V55h1v2Zm3,3V52h2v8Zm5-3H19V55h1Z"></path><path d="M16,18a6,6,0,1,0-6-6A6.006,6.006,0,0,0,16,18ZM16,8a4,4,0,1,1-4,4A4,4,0,0,1,16,8Z"></path><rect x="15" y="2" width="2" height="2"></rect><rect x="8.636" y="4.636" width="2" height="2" transform="translate(-1.163 8.464) rotate(-45)"></rect><rect x="6" y="11" width="2" height="2"></rect><rect x="8.636" y="17.364" width="2" height="2" transform="translate(-10.163 12.192) rotate(-45)"></rect><rect x="15" y="20" width="2" height="2"></rect><rect x="21.364" y="17.364" width="2" height="2" transform="translate(-6.435 21.192) rotate(-45)"></rect><rect x="24" y="11" width="2" height="2"></rect><rect x="21.364" y="4.636" width="2" height="2" transform="translate(2.565 17.464) rotate(-45)"></rect><path d="M38,15h9a4,4,0,1,0-1.091-7.85A4,4,0,0,0,38.126,7,4,4,0,1,0,38,15Zm0-6a1.977,1.977,0,0,1,.678.129,1,1,0,0,0,1.339-1C40.016,8.1,40,8.025,40,8a2,2,0,1,1,3.889.615,1,1,0,0,0,1.672,1A1.979,1.979,0,0,1,47,9a2,2,0,0,1,0,4H38a2,2,0,0,1,0-4Z"></path><rect x="10" y="24" width="2" height="4"></rect><path d="M7.293,29.707l3,3a1,1,0,0,0,1.414,0l3-3-1.414-1.414L11,30.586,8.707,28.293Z"></path><rect x="20" y="24" width="2" height="4"></rect><path d="M17.293,29.707l3,3a1,1,0,0,0,1.414,0l3-3-1.414-1.414L21,30.586l-2.293-2.293Z"></path><path d="M49.293,47.293l-3,3,1.414,1.414L50,49.414l2.293,2.293,1.414-1.414-3-3A1,1,0,0,0,49.293,47.293Z"></path><path d="M61.9,31.553l-4-8A1,1,0,0,0,57,23H43a1,1,0,0,0-.9.553l-4,8A1,1,0,0,0,39,33h1V44a1,1,0,0,0,1,1H59a1,1,0,0,0,1-1V33h1a1,1,0,0,0,.9-1.447ZM43.618,25H56.382l3,6H40.618ZM52,43H48V39h4Zm6,0H54V38a1,1,0,0,0-1-1H47a1,1,0,0,0-1,1v5H42V33H58Z"></path></g></svg>