<svg xmlns="http://www.w3.org/2000/svg" viewBox="0 0 64 64" x="0px" y="0px"><g><circle cx="28" cy="23" r="1"></circle><polygon points="31 50 5.999 50 6 54 14 54 14 51 16 51 16 54 31 54 31 50"></polygon><rect x="50" y="56" width="8" height="4"></rect><circle cx="36" cy="23" r="1"></circle><rect x="16" y="56" width="15" height="4"></rect><rect x="6" y="56" width="8" height="4"></rect><path d="M27,31v3h2V30h2v4h2V30h2v4h2V31a1,1,0,0,1,1-1h3a1,1,0,0,0,1-1l0-7h0a9.676,9.676,0,0,0-1.294-4.985A10.026,10.026,0,0,0,22,22l0,7a1,1,0,0,0,1,1h3A1,1,0,0,1,27,31Zm9-11a3,3,0,1,1-3,3A3,3,0,0,1,36,20ZM25,23a3,3,0,1,1,3,3A3,3,0,0,1,25,23Z"></path><path d="M31,47.58,26.485,45H6.827A4.269,4.269,0,0,0,6,46.062V48H31Z"></path><polygon points="58 50 33 50 33 54 48 54 48 51 50 51 50 54 58 54 58 50"></polygon><polygon points="38 42.42 38 40 26 40 26 42.42 32 45.848 38 42.42"></polygon><rect x="33" y="56" width="15" height="4"></rect><path d="M58,46.1a4.85,4.85,0,0,0-1-1.137V45H37.515L33,47.58V48H58Z"></path><path d="M30.358,4.076c-9.156.815-16.339,8.87-16.353,18.339L14,25.974A17.866,17.866,0,0,0,18.619,38l2.818,0A16.045,16.045,0,0,1,16,25.967l.006-4A16.016,16.016,0,0,1,33.881,6.1,16.2,16.2,0,0,1,48,22.418l-.006,3.594a16.041,16.041,0,0,1-5.438,11.983l2.825,0a17.863,17.863,0,0,0,4.613-11.965l.006-4A18.047,18.047,0,0,0,44.151,8.73,17.855,17.855,0,0,0,30.358,4.076Z"></path><path d="M46,39.989,40,40v3H54.417C52.05,41.464,48.88,39.989,46,39.989Z"></path><path d="M39.176,38a14.045,14.045,0,0,0,6.818-11.991L46,22.415A14.2,14.2,0,0,0,33.653,8.084a13.876,13.876,0,0,0-10.946,3.449,14.018,14.018,0,0,0-4.7,10.437l-.006,4a14.04,14.04,0,0,0,6.784,12.009Zm-18.3-6.88A2.98,2.98,0,0,1,20,29l0-7a12,12,0,1,1,24,0l0,7a3.006,3.006,0,0,1-3,3H39v3a1,1,0,0,1-1,1H26a1,1,0,0,1-1-1V32H23A2.979,2.979,0,0,1,20.88,31.12Z"></path><path d="M9.229,43H24V39.991L18,40A15.782,15.782,0,0,0,9.229,43Z"></path></g></svg>