<svg xmlns="http://www.w3.org/2000/svg" viewBox="0 0 64 64" x="0px" y="0px"><g data-name="Game Network-Server-Gaming-Networking-Joystick"><path d="M32,36c5.724,0,10-2.112,10-4V28.406C39.886,29.994,36.271,31,32,31s-7.886-1.006-10-2.594V32C22,33.888,26.276,36,32,36Zm-5-4h2v2H27Zm-4-1h2v2H23Z"></path><path d="M32,43c5.724,0,10-2.112,10-4V35.406C39.886,36.994,36.271,38,32,38s-7.886-1.006-10-2.594V39C22,40.888,26.276,43,32,43Zm-5-4h2v2H27Zm-4-1h2v2H23Z"></path><path d="M32,21c-5.724,0-10,2.112-10,4s4.276,4,10,4,10-2.112,10-4S37.724,21,32,21Zm6,5H26V24H38Z"></path><path d="M49,44H47V39H44V37h4a1,1,0,0,1,1,1Z"></path><path d="M17,44H15V38a1,1,0,0,1,1-1h4v2H17Z"></path><path d="M48,27H44V25h3V20h2v6A1,1,0,0,1,48,27Z"></path><path d="M20,27H16a1,1,0,0,1-1-1V20h2v5h3Z"></path><rect x="23" y="52" width="2" height="2"></rect><path d="M5,59a1,1,0,0,0,1,1H8.652L12.9,56.646A3.016,3.016,0,0,1,14.761,56h4.478a3.016,3.016,0,0,1,1.859.645L25.348,60H28a1,1,0,0,0,1-1V54a6.006,6.006,0,0,0-6-6H11a6.006,6.006,0,0,0-6,6Zm16-7h2V50h2v2h2v2H25v2H23V54H21Zm-3-2h2v2H18Zm-4,0h2v2H14ZM7,52H9V50h2v2h2v2H11v2H9V54H7Z"></path><rect x="54" y="52" width="2" height="2"></rect><path d="M36,59a1,1,0,0,0,1,1h2.652L43.9,56.646A3.016,3.016,0,0,1,45.761,56h4.478a3.016,3.016,0,0,1,1.859.645L56.348,60H59a1,1,0,0,0,1-1V54a6.006,6.006,0,0,0-6-6H42a6.006,6.006,0,0,0-6,6Zm16-7h2V50h2v2h2v2H56v2H54V54H52Zm-3-2h2v2H49Zm-4,0h2v2H45Zm-7,2h2V50h2v2h2v2H42v2H40V54H38Z"></path><rect x="23" y="8" width="2" height="2"></rect><path d="M5,15a1,1,0,0,0,1,1H8.652L12.9,12.646A3.016,3.016,0,0,1,14.761,12h4.478a3.016,3.016,0,0,1,1.859.645L25.348,16H28a1,1,0,0,0,1-1V10a6.006,6.006,0,0,0-6-6H11a6.006,6.006,0,0,0-6,6ZM21,8h2V6h2V8h2v2H25v2H23V10H21ZM18,6h2V8H18ZM14,6h2V8H14ZM7,8H9V6h2V8h2v2H11v2H9V10H7Z"></path><rect x="54" y="8" width="2" height="2"></rect><path d="M36,15a1,1,0,0,0,1,1h2.652L43.9,12.646A3.016,3.016,0,0,1,45.761,12h4.478a3.016,3.016,0,0,1,1.859.645L56.348,16H59a1,1,0,0,0,1-1V10a6.006,6.006,0,0,0-6-6H42a6.006,6.006,0,0,0-6,6ZM52,8h2V6h2V8h2v2H56v2H54V10H52ZM49,6h2V8H49ZM45,6h2V8H45ZM38,8h2V6h2V8h2v2H42v2H40V10H38Z"></path><rect x="51" y="20" width="2" height="2"></rect><rect x="51" y="24" width="2" height="2"></rect><rect x="51" y="38" width="2" height="2"></rect><rect x="51" y="42" width="2" height="2"></rect><rect x="11" y="20" width="2" height="2"></rect><rect x="11" y="24" width="2" height="2"></rect><rect x="11" y="38" width="2" height="2"></rect><rect x="11" y="42" width="2" height="2"></rect></g></svg>