<svg xmlns="http://www.w3.org/2000/svg" viewBox="0 0 64 64" x="0px" y="0px"><g><rect x="7" y="55" width="2" height="2"></rect><rect x="11" y="55" width="6" height="2"></rect><rect x="28" y="55" width="4" height="2"></rect><rect x="38" y="55" width="2" height="2"></rect><rect x="47" y="55" width="6" height="2"></rect><rect x="53" y="59" width="6" height="2"></rect><rect x="49" y="59" width="2" height="2"></rect><rect x="39" y="59" width="4" height="2"></rect><rect x="18" y="59" width="6" height="2"></rect><rect x="14" y="59" width="2" height="2"></rect><path d="M48.5,27.95a3.005,3.005,0,0,0,1.89-1.15l5.21,5.22a1.024,1.024,0,0,0,.71.29,1,1,0,0,0,.7-.29,3.477,3.477,0,0,0,.97-2.56c.01-2.19-1.44-5-3.78-7.34-.41-.4-.83-.77-1.25-1.12H61a1,1,0,0,0,1-1c0-2.85-3.87-5-9-5a15.162,15.162,0,0,0-1.67.09L57.02,9.4a1,1,0,0,0,0-1.41,3.477,3.477,0,0,0-2.56-.97h-.01c-2.18,0-4.99,1.45-7.33,3.78A16.409,16.409,0,0,0,46,12.05a16.409,16.409,0,0,0-1.12-1.25c-2.34-2.33-5.15-3.78-7.33-3.78h-.01a3.477,3.477,0,0,0-2.56.97,1,1,0,0,0,0,1.41l5.7,5.69C40.13,15.04,39.57,15,39,15a12.7,12.7,0,0,0-7.01,1.79A15.033,15.033,0,1,0,31.44,21h7.61c-.42.35-.84.72-1.25,1.12-2.34,2.34-3.79,5.15-3.78,7.34a3.477,3.477,0,0,0,.97,2.56,1,1,0,0,0,.7.29,1.024,1.024,0,0,0,.71-.29l5.21-5.22a3.005,3.005,0,0,0,1.89,1.15L42.06,51H28.62A16.746,16.746,0,0,0,30,44c0-5.7-2.15-10-5-10-2.03,0-3.73,2.2-4.52,5.61a9.3,9.3,0,0,0-3.42-3.26,3.359,3.359,0,0,0-2.56-.2,3.252,3.252,0,0,0-1.82,1.79c-.99,2.11-.78,5.68.54,9.31A19.507,19.507,0,0,0,15.05,51H2v2H62V51H49.94ZM17,30A13,13,0,1,1,30,17,13.012,13.012,0,0,1,17,30Zm8,6c.59,0,1.3.72,1.88,2H23.11C23.67,36.73,24.37,36,25,36ZM14.49,38.79a1.343,1.343,0,0,1,.69-.76,1.322,1.322,0,0,1,1.03.14,5.017,5.017,0,0,1,1.43,1.09L14.1,40.55A5.348,5.348,0,0,1,14.49,38.79ZM21.7,51h-.73l-2.79-7.68L16.3,44l2.54,7H17.5a16.478,16.478,0,0,1-2.4-4.43,17.647,17.647,0,0,1-.95-3.91l4.8-1.75a17,17,0,0,1,1.79,3.6A14.515,14.515,0,0,1,21.7,51Zm4.62,0H26V42H24v9h-.29a16.717,16.717,0,0,0-1.09-7.17c-.17-.47-.36-.92-.55-1.37A17.016,17.016,0,0,1,22.44,40h5.11A16.83,16.83,0,0,1,28,44C28,46.88,27.35,49.55,26.32,51ZM55.98,29.46v.11l-5.03-5.03a2.963,2.963,0,0,0-2.17-2.42A3.02,3.02,0,0,0,49,21h.28a12.735,12.735,0,0,1,3.5,2.54C54.73,25.48,55.99,27.81,55.98,29.46ZM53,17c3.07,0,5.54.93,6.53,2H48.22a3.066,3.066,0,0,0-.88-.67A11.282,11.282,0,0,1,53,17Zm-6.17-2.73a14.086,14.086,0,0,1,1.71-2.05c1.94-1.95,4.26-3.2,5.91-3.2h.12l-6.95,6.95a8.024,8.024,0,0,0-1.6.84c-.12-.08-.26-.15-.38-.23A9.981,9.981,0,0,1,46.83,14.27ZM46,20a1,1,0,1,1-1,1A1,1,0,0,1,46,20ZM37.43,9.02h.12c1.65,0,3.97,1.25,5.91,3.2a12.84,12.84,0,0,1,1.33,1.55,11.209,11.209,0,0,0-.87,1.73ZM32.47,19c.99-1.07,3.46-2,6.53-2a11.489,11.489,0,0,1,5.54,1.26c-.04.07-.08.13-.12.2a3.007,3.007,0,0,0-.64.54Zm8.58,5.54-5.03,5.03v-.11c-.01-1.65,1.25-3.98,3.2-5.92A12.735,12.735,0,0,1,42.72,21H43a3.02,3.02,0,0,0,.22,1.12A2.963,2.963,0,0,0,41.05,24.54ZM43,25a1,1,0,1,1,1,1A1,1,0,0,1,43,25Zm1.06,26,1.47-23.43a2.734,2.734,0,0,0,.47-.35,2.734,2.734,0,0,0,.47.35L47.94,51ZM47,25a1,1,0,1,1,1,1A1,1,0,0,1,47,25Z"></path><path d="M17,6A11,11,0,1,0,28,17,11.013,11.013,0,0,0,17,6Zm8.941,12a8.956,8.956,0,0,1-1.916,4.611l-1.368-1.368-1.414,1.414,1.368,1.368A8.956,8.956,0,0,1,18,25.941V24H16v1.941a8.956,8.956,0,0,1-4.611-1.916l1.368-1.368-1.414-1.414L9.975,22.611A8.956,8.956,0,0,1,8.059,18H10V16H8.059a8.956,8.956,0,0,1,1.916-4.611l1.368,1.368,1.414-1.414L11.389,9.975A8.956,8.956,0,0,1,16,8.059V10h2V8.059a8.956,8.956,0,0,1,4.611,1.916l-1.368,1.368,1.414,1.414,1.368-1.368A8.956,8.956,0,0,1,25.941,16H24v2Z"></path><path d="M16,16.586l-1.707,1.707,1.414,1.414,2-2A1,1,0,0,0,18,17V12H16Z"></path></g></svg>