<svg xmlns="http://www.w3.org/2000/svg" viewBox="0 0 64 64" x="0px" y="0px"><g data-name="Report Paper"><path d="M31.707,27.707l-1.414-1.414,2.031-2.031A9.945,9.945,0,0,0,27,22.051v9.535l6.738,6.738a9.971,9.971,0,0,0,0-12.648Z"></path><path d="M44.586,14,36,5.414V13a1,1,0,0,0,1,1Z"></path><path d="M25,32V22.051a9.945,9.945,0,0,0-5.324,2.211l2.031,2.031-1.414,1.414-2.031-2.031A9.992,9.992,0,0,0,32.324,39.738l-7.031-7.031A1,1,0,0,1,25,32Z"></path><path d="M6,4V60H46V16H37a3,3,0,0,1-3-3V4Zm8,4H30v2H14ZM10,8h2v2H10Zm0,4H30v2H10ZM8,20h4v2H8Zm6,27v2H10V47ZM8,24h4v2H8ZM34,54H10V52H34ZM16,49V47H26v2Zm24,5H36V52h4Zm0-34h4v2H40Zm0,4h4v2H40Zm0,25H28V47H40ZM35.293,21.293A1,1,0,0,1,36,21h2v2H36.414l-1.259,1.259a12,12,0,1,1-18.31,0L16.586,24H14V22h3a1,1,0,0,1,.707.293l.552.552a11.954,11.954,0,0,1,15.482,0Z"></path><path d="M58,17a3,3,0,0,0-6,0v3h6Z"></path><polygon points="58 22 52 22 52 49 54 49 54 24 56 24 56 49 58 49 58 22"></polygon><polygon points="55 53.399 56.92 51 53.08 51 55 53.399"></polygon></g></svg>