<svg xmlns="http://www.w3.org/2000/svg" viewBox="0 0 64 64" x="0px" y="0px"><g><path d="M45,22.78V23a1.024,1.024,0,0,1-1,1h-.68l-3.25-2.65-1.36,1.36a1.014,1.014,0,0,1-1.42,0,1.008,1.008,0,0,1,0-1.42l4-4a1,1,0,0,1,1.42,1.42l-1.22,1.21Z"></path><path d="M29,38a1,1,0,0,0,0,2h6a1,1,0,0,0,0-2Z"></path><path d="M35,52a1,1,0,0,0,0-2H29a1,1,0,0,0,0,2Z"></path><path d="M29,42a1,1,0,0,0,0,2h6a1,1,0,0,0,0-2Z"></path><rect x="26" y="54" width="12" height="2"></rect><path d="M35,46H29a1,1,0,0,0,0,2h6a1,1,0,0,0,0-2Z"></path><path d="M60,31A11.013,11.013,0,0,0,49,20H47v3a3.023,3.023,0,0,1-3,3H28a5.006,5.006,0,0,1-5-5,.952.952,0,0,0-.288-.693A.975.975,0,0,0,22,20H19.693a2.009,2.009,0,0,1-1.873-1.3L15.307,12H8V25h4a2.991,2.991,0,0,1,2.649,1.622l.039.071a3.009,3.009,0,0,1,.142.352c.027.078.053.156.074.237s.037.182.051.276c.01.061.029.118.034.18,0,.043-.005.083,0,.125S15,27.953,15,28c0,.08-.017.155-.023.234s-.011.169-.025.253a2.894,2.894,0,0,1-.1.393c-.021.069-.036.138-.062.2a2.9,2.9,0,0,1-.2.406c-.028.049-.05.1-.081.149A3.023,3.023,0,0,1,12,31H8a5.006,5.006,0,0,0,5,5H57a3,3,0,0,0,3-3ZM44,34H24a3,3,0,0,1,0-6H44a3,3,0,0,1,0,6Z"></path><rect x="4" y="58" width="56" height="2"></rect><path d="M4.306,27.287A.976.976,0,0,0,4,28a1,1,0,0,0,1,1h7a.965.965,0,0,0,.694-.287,1.02,1.02,0,0,0,.234-.355.965.965,0,0,0,.027-.132,1,1,0,0,0,.035-.274.958.958,0,0,0-.036-.177.881.881,0,0,0-.067-.215l-.011-.016A1.153,1.153,0,0,0,11.888,27H5A.965.965,0,0,0,4.306,27.287Z"></path><path d="M44,30H24a1,1,0,0,0,0,2H44a1,1,0,0,0,0-2Z"></path></g></svg>