<svg xmlns="http://www.w3.org/2000/svg" viewBox="0 0 64 64" x="0px" y="0px"><path d="M52,34a9.953,9.953,0,0,0-4.6,1.15l-1.74-1.73.5-.42h10.3a2,2,0,0,0,1.67-.89l2.67-4a1.988,1.988,0,0,0,.09-2.05A1.968,1.968,0,0,0,59.13,25H52a2.006,2.006,0,0,0-2,2H40.74A7.01,7.01,0,0,0,35,24H30V22a2.005,2.005,0,0,0-.88-1.66L30.47,18H37a3,3,0,0,0,3-3,3.009,3.009,0,0,0-3-3H32.44A3.985,3.985,0,0,0,25,14a4.192,4.192,0,0,0,.16,1.07l-1.42,2.47-.52-.71A2,2,0,0,0,21.6,16H20a2.006,2.006,0,0,0-2,2v2H17a3,3,0,0,0-2.74,1.79,5.985,5.985,0,0,0-2.76-1.6,2,2,0,0,0-1.72.36A1.97,1.97,0,0,0,9,22.13V23a3,3,0,0,0,0,6v.87a1.97,1.97,0,0,0,.78,1.58,1.942,1.942,0,0,0,1.22.42,2.136,2.136,0,0,0,.5-.06,5.985,5.985,0,0,0,2.76-1.6,3.046,3.046,0,0,0,1.34,1.43l-1.51,2.61A9.713,9.713,0,0,0,12,34a10.016,10.016,0,1,0,7.36,3.24l.2-.35L24,40.48V44a2.006,2.006,0,0,0,2,2h5.7a2.014,2.014,0,0,0,1.11-.34l2.3-1.53A2,2,0,0,0,36,42.46V42h1.43a2.014,2.014,0,0,0,1.72-.97l2.11-3.52,1.89,1.89A9.982,9.982,0,1,0,52,34Zm0-7h7.13l-2.67,4H52ZM33,14h4a1,1,0,0,1,1,1,.949.949,0,0,1-.31.71A.928.928,0,0,1,37,16H32.44A3.906,3.906,0,0,0,33,14ZM9,27a1,1,0,0,1,0-2Zm2,2.87V22.13a4,4,0,0,1,0,7.74ZM50,29v2H42a7.268,7.268,0,0,0-.29-2ZM35,26a5,5,0,0,1,5,5,1,1,0,0,1-1,1H28V27a1,1,0,0,1,1-1Zm-9,1v3H23.54L28,22.27v1.91A3.01,3.01,0,0,0,26,27Zm3-15a2,2,0,1,1-2,2A2.006,2.006,0,0,1,29,12Zm-9,6h1.6l1.04,1.44-.32.56H20Zm-4,5a1,1,0,0,1,1-1h4.16l-1.45,2.5h.01l-3.13,5.41A.993.993,0,0,1,16,29Zm4,21a8,8,0,1,1-8-8,8.761,8.761,0,0,1,1.03.07l-2.42,4.19a3.683,3.683,0,0,0-.63.31L8.46,39.05,7.05,40.46l1.52,1.52A4.166,4.166,0,0,0,8.14,43H6v2H8.14a4.166,4.166,0,0,0,.43,1.02L7.05,47.54l1.41,1.41,1.52-1.52a4.166,4.166,0,0,0,1.02.43V50h2V47.86a4.166,4.166,0,0,0,1.02-.43l1.52,1.52,1.41-1.41-1.52-1.52A4.166,4.166,0,0,0,15.86,45H18V43H16.03l2.27-3.92A8.039,8.039,0,0,1,20,44Zm-8-2a2,2,0,1,1-2,2A2.006,2.006,0,0,1,12,42Zm2.79-.85a3.925,3.925,0,0,0-1.8-1.01L26.37,16.99a3.991,3.991,0,0,0,1.83.93Zm9.22-3.24-3.43-2.78L22.38,32H26a2.006,2.006,0,0,0,2,2v2H26A2,2,0,0,0,24.01,37.91ZM34,42.46,31.7,44H26V38h5.79L34,39.53Zm6.23-7.12L37.43,40H36v-.47a2,2,0,0,0-.86-1.65l-2.22-1.53A1.962,1.962,0,0,0,31.79,36H30V34h9a2.986,2.986,0,0,0,2.22-1h1.82Zm2.34.65,1.55-1.29,5.86,5.87a3.969,3.969,0,0,0-1.41,1.41ZM52,52a7.979,7.979,0,0,1-7.36-11.11L46.76,43H46v2h2.14a4.166,4.166,0,0,0,.43,1.02l-1.52,1.52,1.41,1.41,1.52-1.52a4.166,4.166,0,0,0,1.02.43V50h2V47.86a4.166,4.166,0,0,0,1.02-.43l1.52,1.52,1.41-1.41-1.52-1.52A4.166,4.166,0,0,0,55.86,45H58V43H55.86a4.166,4.166,0,0,0-.43-1.02l1.52-1.52-1.41-1.41-1.52,1.52A4.166,4.166,0,0,0,53,40.14V38H51v.76l-2.11-2.12A8,8,0,1,1,52,52Zm-2-8a2,2,0,1,1,2,2A2.006,2.006,0,0,1,50,44Z"></path><rect x="28" y="40" width="4" height="2"></rect></svg>