<svg xmlns="http://www.w3.org/2000/svg" viewBox="0 0 64 64" x="0px" y="0px"><g><rect x="31" y="4" width="2" height="4"></rect><rect x="31" y="56" width="2" height="4"></rect><rect x="56" y="31" width="4" height="2"></rect><rect x="4" y="31" width="4" height="2"></rect><path d="M32,16A16,16,0,1,0,48,32,16.019,16.019,0,0,0,32,16Zm0,26A10,10,0,1,1,42,32,10.011,10.011,0,0,1,32,42Z"></path><path d="M32,24a8,8,0,1,0,8,8A8.009,8.009,0,0,0,32,24Zm-4,9H26V31h2Zm4-2a2.993,2.993,0,0,1,1,5.816V38H31V36.816A3,3,0,0,1,29,34h2a1,1,0,1,0,1-1,2.993,2.993,0,0,1-1-5.816V26h2v1.184A3,3,0,0,1,35,30H33a1,1,0,1,0-1,1Zm6,2H36V31h2Z"></path><path d="M55.975,31A24.027,24.027,0,0,0,33,8.025V10H31V8.025A24.027,24.027,0,0,0,8.025,31H10v2H8.025A24.027,24.027,0,0,0,31,55.975V54h2v1.975A24.027,24.027,0,0,0,55.975,33H54V31ZM32,50A18,18,0,1,1,50,32,18.021,18.021,0,0,1,32,50Z"></path></g></svg>