<svg xmlns="http://www.w3.org/2000/svg" viewBox="0 0 64 64" x="0px" y="0px"><g data-name="Hand shake-hands-deal-team-Collaborate"><path d="M4,53a3.009,3.009,0,0,0,3,3h4.47L9.39,53.8l-.72-.26L4,51.84Z"></path><path d="M60,45.92l-2.54-6.99-5.64,2.05,3.77,10.34L60,49.71Zm-3.22,2.834-.683-1.88,1.879-.684.683,1.88Z"></path><path d="M36.19,59.45a1.02,1.02,0,0,0,1.29.59l12.93-4.71,2.91-3.08a1.006,1.006,0,0,1,.39-.25L49.94,41.67l-.25.09a.989.989,0,0,1-.51.04L36.45,39.55a1.012,1.012,0,0,0-1.17.81c0,.06-.01.12-.01.18a1.016,1.016,0,0,0,.82.99l3.95.7a1.014,1.014,0,0,1,.76.63,3.037,3.037,0,0,0,3.86,1.8l.92-.35.7,1.88-.94.35a5.136,5.136,0,0,1-1.71.3,5.038,5.038,0,0,1-4.26-2.39l-4.44,1.62.82.3a3,3,0,0,1,1.38,1.02l.94-.34a1,1,0,1,1,.68,1.88l-1.03.38a2.866,2.866,0,0,1-.68,1.79l.81.29,1.59-.58a1,1,0,1,1,.68,1.88l-.4.15a2.116,2.116,0,0,0,.12.2,3.02,3.02,0,0,1,.23,1.8l.74-.27a1,1,0,0,1,1.28.6,1.016,1.016,0,0,1,.06.34,1,1,0,0,1-.66.94l-4.7,1.72A1,1,0,0,0,36.19,59.45Z"></path><polygon points="4 40.06 4.66 38.25 4 38.01 4 40.06"></polygon><path d="M60,51.84l-4.67,1.7-.72.26L52.53,56H57a3.009,3.009,0,0,0,3-3Z"></path><path d="M4,49.71l4.41,1.61,3.77-10.34L6.54,38.93,4,45.92Zm2.024-3.52,1.879.684-.683,1.88L5.341,48.07Z"></path><polygon points="60 38.01 59.34 38.25 60 40.06 60 38.01"></polygon><path d="M24.56,50.81l12.22,4.45a1.006,1.006,0,0,0,1.28-.6.983.983,0,0,0-.6-1.28L25.25,48.93a1,1,0,0,1-.66-.94,1.016,1.016,0,0,1,.06-.34,1,1,0,0,1,1.28-.6l8.46,3.08a1.028,1.028,0,0,0,1.28-.61.951.951,0,0,0-.03-.74.99.99,0,0,0-.57-.53L23.8,44.15a1,1,0,0,1-.66-1.03.988.988,0,0,1,.82-.89l3.95-.7a1.016,1.016,0,0,0,.82-.99,1.366,1.366,0,0,0-.02-.19.983.983,0,0,0-1.16-.79L14.82,41.8a.981.981,0,0,1-.51-.04l-.25-.09L10.29,52a1.006,1.006,0,0,1,.39.25l2.91,3.08,12.93,4.71a1.03,1.03,0,0,0,1.29-.6,1,1,0,0,0-.6-1.27l-4.7-1.72a1,1,0,0,1-.66-.94,1.016,1.016,0,0,1,.06-.34,1,1,0,0,1,1.28-.6l8.46,3.08a1.018,1.018,0,0,0,1.28-.59.783.783,0,0,0,.03-.14,1,1,0,0,0-.62-1.15l-8.46-3.08a1,1,0,0,1-.66-.94,1.016,1.016,0,0,1,.06-.34A1,1,0,0,1,24.56,50.81Z"></path><path d="M39,4.17V12h2V7A3.014,3.014,0,0,0,39,4.17Z"></path><path d="M23,12h2V4.17A3.014,3.014,0,0,0,23,7Z"></path><path d="M60,27.89A6.97,6.97,0,0,1,55,30H37v2a1,1,0,0,1-1,1H28a1,1,0,0,1-1-1V30H9a6.97,6.97,0,0,1-5-2.11v7.99l9.8,3.56c.04.02.08.03.12.05l.82.3,12.47-2.2a2.989,2.989,0,0,1,3.47,2.43,2.292,2.292,0,0,1,.05.52,2.985,2.985,0,0,1-2.48,2.95l-.27.05L32,45.01l4.02-1.47-.27-.05a2.985,2.985,0,0,1-2.48-2.95,2.848,2.848,0,0,1,.04-.51,3.018,3.018,0,0,1,3.48-2.45l12.47,2.21.82-.3c.04-.02.08-.03.12-.05L60,35.88Z"></path><rect x="29" y="27" width="6" height="4"></rect><path d="M60,17a3.009,3.009,0,0,0-3-3H7a3.009,3.009,0,0,0-3,3v6a5,5,0,0,0,5,5H27V26a1,1,0,0,1,1-1h8a1,1,0,0,1,1,1v2H55a5,5,0,0,0,5-5Z"></path><rect x="27" y="4" width="10" height="2"></rect></g></svg>