<svg xmlns="http://www.w3.org/2000/svg" viewBox="0 0 64 64" x="0px" y="0px"><title>Document-Writing-Inkwell-File-Interface</title><g data-name="Writing"><path d="M59.707,52.293,54,46.586V43a1,1,0,0,0-1-1H49V37.618L54.447,34.9A1,1,0,0,0,55,34V15a1,1,0,0,0-1-1,12.927,12.927,0,0,0-8,2.774V9h5a1,1,0,0,0,1-1V6a4,4,0,0,0-4-4H14a3,3,0,0,0-3,3v5H7a3,3,0,0,0-3,3V52a4,4,0,0,0,4,4H36v1a1,1,0,0,0,1,1h.1A5.009,5.009,0,0,0,42,62H54a5.009,5.009,0,0,0,4.9-4H59a1,1,0,0,0,1-1V53A1,1,0,0,0,59.707,52.293ZM38,56V54H58v2Zm1.414-4,4-4h9.172l4,4ZM52,46H44V44h8Zm-6-4V37.118l1,.5V42Zm7-13.618-4,2V27.618l4-2Zm-9.909-2.719L47,27.618v2.764l-4-2V27A10.942,10.942,0,0,1,43.091,25.663ZM53,23.382l-4.008,2c-.008-.966-.013-1.894.009-2.768l4-2Zm0-5L49.164,20.3a5.461,5.461,0,0,1,1.252-3.182A4.143,4.143,0,0,1,53,16.059ZM47.138,20.45l-1.394-.7a11.007,11.007,0,0,1,1.893-1.707A11.415,11.415,0,0,0,47.138,20.45Zm-2.586.939L47,22.617c-.021.883-.016,1.8-.009,2.761l-3.459-1.73A10.985,10.985,0,0,1,44.552,21.389ZM43,30.618l4,2v2.764l-4-2Zm6,4.764V32.618l4-2v2.764Zm.413-30.795A1.986,1.986,0,0,1,50,6V7H46V6a2,2,0,0,1,3.413-1.413ZM13,5a1,1,0,0,1,1-1H44.556A3.959,3.959,0,0,0,44,6V18.7A12.938,12.938,0,0,0,41,27v7a1,1,0,0,0,.553.9L44,36.118V42H43a1,1,0,0,0-1,1v3.586l-2,2V13a3,3,0,0,0-3-3H13Zm19,7h2v3.7l-.168-.252a1.039,1.039,0,0,0-1.664,0L32,15.7ZM8,54a2,2,0,0,1-2-2V13a1,1,0,0,1,1-1H30v7a1,1,0,0,0,1.832.555L33,17.8l1.168,1.752A1,1,0,0,0,36,19V12h1a1,1,0,0,1,1,1V50.586l-1.707,1.707A1,1,0,0,0,36,53v1Zm46,6H42a3,3,0,0,1-2.816-2H56.816A3,3,0,0,1,54,60Z"></path><rect x="10" y="20" width="16" height="2"></rect><rect x="10" y="16" width="2" height="2"></rect><rect x="14" y="16" width="12" height="2"></rect><rect x="10" y="24" width="10" height="2"></rect><rect x="22" y="24" width="4" height="2"></rect><rect x="28" y="24" width="6" height="2"></rect><rect x="10" y="28" width="24" height="2"></rect><rect x="10" y="32" width="6" height="2"></rect><rect x="18" y="32" width="2" height="2"></rect><rect x="22" y="32" width="12" height="2"></rect><rect x="10" y="36" width="24" height="2"></rect><rect x="10" y="40" width="24" height="2"></rect></g></svg>