<svg xmlns="http://www.w3.org/2000/svg" viewBox="0 0 64 64" x="0px" y="0px"><g data-name="Laptop-Home-Work From Home-Working-Online"><path d="M61.89,54.55,56,42.76V11a3.009,3.009,0,0,0-3-3H44.47A15.958,15.958,0,0,0,19.53,8H11a3.009,3.009,0,0,0-3,3V42.76L2.11,54.55A1,1,0,0,0,2,55v4a3.009,3.009,0,0,0,3,3H59a3.009,3.009,0,0,0,3-3V55A1,1,0,0,0,61.89,54.55ZM32,4A14,14,0,1,1,18,18,14.015,14.015,0,0,1,32,4ZM47.47,14H50V38H14V14h2.53A15.561,15.561,0,0,0,16,18a16,16,0,0,0,32,0A15.561,15.561,0,0,0,47.47,14ZM10,11a1,1,0,0,1,1-1h7.16a16.1,16.1,0,0,0-.98,2H13a1,1,0,0,0-1,1V39a1,1,0,0,0,1,1H51a1,1,0,0,0,1-1V13a1,1,0,0,0-1-1H46.82a16.1,16.1,0,0,0-.98-2H53a1,1,0,0,1,1,1V42H10ZM9.62,44H54.38l5,10H40.62l-1.73-3.45A.988.988,0,0,0,38,50H26a.988.988,0,0,0-.89.55L23.38,54H4.62ZM38.38,54H25.62l1-2H37.38ZM60,59a1,1,0,0,1-1,1H5a1,1,0,0,1-1-1V56H60Z"></path><rect x="10" y="50" width="2" height="2"></rect><rect x="14" y="50" width="2" height="2"></rect><rect x="48" y="50" width="2" height="2"></rect><rect x="52" y="50" width="2" height="2"></rect><rect x="15" y="46" width="2" height="2"></rect><rect x="11" y="46" width="2" height="2"></rect><rect x="19" y="46" width="2" height="2"></rect><rect x="23" y="46" width="2" height="2"></rect><rect x="27" y="46" width="2" height="2"></rect><rect x="31" y="46" width="2" height="2"></rect><rect x="35" y="46" width="2" height="2"></rect><rect x="39" y="46" width="2" height="2"></rect><rect x="43" y="46" width="2" height="2"></rect><rect x="47" y="46" width="2" height="2"></rect><rect x="51" y="46" width="2" height="2"></rect><rect x="18" y="50" width="4" height="2"></rect><rect x="42" y="50" width="4" height="2"></rect><path d="M43.43,16.02,34.12,6.71a3,3,0,0,0-4.24,0l-9.31,9.31a3,3,0,1,0,4.24,4.24l.19-.19V28a1,1,0,0,0,1,1H38a1,1,0,0,0,1-1V20.07l.19.19a2.992,2.992,0,0,0,2.12.88,2.958,2.958,0,0,0,2.12-.88A3,3,0,0,0,43.43,16.02ZM33,27H31V23h2Zm4,0H35V22a1,1,0,0,0-1-1H30a1,1,0,0,0-1,1v5H27V18.07l5-5,5,5Zm5.02-8.15a1,1,0,0,1-1.41,0l-7.9-7.9a1.014,1.014,0,0,0-1.42,0l-7.9,7.9a1,1,0,0,1-1.41,0,1.008,1.008,0,0,1,0-1.42l9.31-9.31a1.008,1.008,0,0,1,1.42,0l9.31,9.31A1.008,1.008,0,0,1,42.02,18.85Z"></path><rect x="31" y="17" width="2" height="2"></rect></g></svg>