<svg xmlns="http://www.w3.org/2000/svg" viewBox="0 0 64 64" x="0px" y="0px"><g data-name="Full Battery"><path d="M37,24H27V42H37ZM35,40H29V38h6Zm0-4H29V34h6Zm0-4H29V30h6Zm0-4H29V26h6Z"></path><path d="M47,50V7a3,3,0,0,0-3-3H20a3,3,0,0,0-3,3v3H43v2H17V57a3,3,0,0,0,3,3H44a3,3,0,0,0,3-3V52H21V50ZM26,8H24V6h2Zm4,0H28V6h2Zm1,47h2v2H31ZM25,23a1,1,0,0,1,1-1h3V20a1,1,0,0,1,1-1h4a1,1,0,0,1,1,1v2h3a1,1,0,0,1,1,1V43a1,1,0,0,1-1,1H26a1,1,0,0,1-1-1Zm-6-4V15a1,1,0,0,1,1-1h4v2H21v3Z"></path><rect x="31" y="21" width="2" height="1"></rect></g></svg>