<svg xmlns="http://www.w3.org/2000/svg" viewBox="0 0 64 64" x="0px" y="0px"><g><circle cx="45" cy="15" r="1"></circle><circle cx="42" cy="34" r="1"></circle><path d="M49,23h2a1,1,0,0,1,.707.293l1.42,1.42L55,23.465V14.677L51.382,13.23l-1.55,2.325A1,1,0,0,1,49,16H47.816a3,3,0,1,1,0-2h.649L50,11.7V8.351L46.52,4H46V6.586l.707.707L45.293,8.707l-1-1A1,1,0,0,1,44,7V4H41.333L38.667,6,41.6,8.2A1,1,0,0,1,42,9v2H40V9.5L38,8V26h1.614L41,24.614V21.057a1,1,0,0,1,.293-.707l1.014-1.015,1.414,1.415L43,21.471v3.557a1,1,0,0,1-.293.707l-1.972,1.972a1,1,0,0,1-.707.293H38V39.5L41.333,42h3.334L48,39.5V37.414L45.586,35h-.77a3,3,0,1,1,0-2H46a1,1,0,0,1,.707.293l2.49,2.49,2.8-1.4V26.414L50.586,25h-.968l-.462.923A2.994,2.994,0,1,1,47,25a2.9,2.9,0,0,1,.363.037l.742-1.484A1,1,0,0,1,49,23Z"></path><circle cx="47" cy="28" r="1"></circle><circle cx="29" cy="17" r="1"></circle><path d="M53.3,43.24l-.01-.01a22.739,22.739,0,0,1-4.67,3.62l1.01,1.73A24.761,24.761,0,0,0,53,46.19V60H27V52a2.006,2.006,0,0,0-2-2H17a5,5,0,0,1-5-5V38a1,1,0,0,0-1-1H5.13l8.5-9.36a.971.971,0,0,0,.26-.67c0-.32.01-.65.02-.97H20v9a.977.977,0,0,0,.55.89L24,37.62V40a1.014,1.014,0,0,0,.4.8l4,3a.984.984,0,0,0,.6.2h4a.984.984,0,0,0,.6-.2L37,41.25l3.4,2.55a.984.984,0,0,0,.6.2h4a.984.984,0,0,0,.6-.2l4-3A1.014,1.014,0,0,0,50,40V37.62l3.45-1.73A.977.977,0,0,0,54,35V26.54l.81-.54H60A23.088,23.088,0,0,1,53.3,43.24Z"></path><circle cx="27" cy="27" r="1"></circle><path d="M32.4,11.2,36,8.5v-2L32.667,4H31V7a1,1,0,0,1-.293.707l-1,1L28.293,7.293,29,6.586V4H27.48L24,8.351v3.413L24.618,13H26v2H24a1,1,0,0,1-.895-.553l-.588-1.176L19,14.677v6.909l2,2,1.293-1.293A1,1,0,0,1,23,22h2a1,1,0,0,1,.895.553l.742,1.484A2.9,2.9,0,0,1,27,24a3.015,3.015,0,1,1-2.156.923L24.382,24h-.968L22,25.414v8.968l2.8,1.4,2.49-2.49A1,1,0,0,1,28,33h1.184a3,3,0,1,1,0,2h-.77L26,37.414V39.5L29.333,42h3.334L36,39.5V26H33.972a1,1,0,0,1-.707-.293l-1.972-1.972A1,1,0,0,1,31,23.028V19.471l-.138-.138A2.967,2.967,0,0,1,29,20a3,3,0,1,1,3-3,3.036,3.036,0,0,1-.059.584l.766.766a1,1,0,0,1,.293.707v3.557L34.386,24H36V11l-2,1.5V14H32V12A1,1,0,0,1,32.4,11.2Z"></path><circle cx="32" cy="34" r="1"></circle></g></svg>