<svg xmlns="http://www.w3.org/2000/svg" data-name="World-Internet of Things-Smartphone-Networking-Communications" viewBox="0 0 64 64" x="0px" y="0px"><path d="M37,2A25.019,25.019,0,0,0,12.03,26H7a5,5,0,0,0-5,5V57a5,5,0,0,0,5,5H21a5,5,0,0,0,5-5V49.44A25,25,0,1,0,37,2ZM27.6,6.02,30,8.41v3.18l-3.71,3.7A1.033,1.033,0,0,0,26,16v3.59L22.59,23H20a1,1,0,0,0-1,1v2H14.03A23.011,23.011,0,0,1,27.6,6.02ZM24,57a3.009,3.009,0,0,1-3,3H7a3.009,3.009,0,0,1-3-3V54H24Zm0-5H4V34H24Zm0-20H4V31a3.009,3.009,0,0,1,3-3H21a3.009,3.009,0,0,1,3,3ZM39.02,49.91c-.67.05-1.34.09-2.02.09V47a1.033,1.033,0,0,0-.29-.71L35,44.59V41a1,1,0,0,0-1-1H30.41L29,38.59V36.41L32.41,33h7.18L44,37.41v3.18l-1.71,1.7A1.033,1.033,0,0,0,42,43v3.59l-2.71,2.7A1.029,1.029,0,0,0,39.02,49.91Zm2.94-.45,1.75-1.75A1.033,1.033,0,0,0,44,47V43.41l1.71-1.7A1.033,1.033,0,0,0,46,41V37a1.033,1.033,0,0,0-.29-.71l-5-5A1.033,1.033,0,0,0,40,31H32a1.033,1.033,0,0,0-.71.29l-4,4A1.033,1.033,0,0,0,27,36v3a1.033,1.033,0,0,0,.29.71l2,2A1.033,1.033,0,0,0,30,42h3v3a1.033,1.033,0,0,0,.29.71L35,47.41V49.9a22.6,22.6,0,0,1-9-2.73V31a5,5,0,0,0-5-5V25h2a1.033,1.033,0,0,0,.71-.29l4-4A1.033,1.033,0,0,0,28,20V16.41l3.71-3.7A1.033,1.033,0,0,0,32,12V8a1.033,1.033,0,0,0-.29-.71L29.63,5.22A22.8,22.8,0,0,1,35,4.09V9a1.033,1.033,0,0,0,.29.71l4,4A1.033,1.033,0,0,0,40,14h4.59L49,18.41v5.18l-1.71,1.7A1.033,1.033,0,0,0,47,26v4a1.033,1.033,0,0,0,.29.71L51,34.41V39a1.033,1.033,0,0,0,.29.71l2.74,2.73A23.056,23.056,0,0,1,41.96,49.46ZM53,38.59V34a1.033,1.033,0,0,0-.29-.71L49,29.59V26.41l1.71-1.7A1.033,1.033,0,0,0,51,24V18a1.033,1.033,0,0,0-.29-.71l-5-5A1.033,1.033,0,0,0,45,12H40.41L37,8.59V4A22.986,22.986,0,0,1,55.31,40.9Z"></path><path d="M43,17H37a1,1,0,0,0-1,1v2a1,1,0,0,0,.293.707L38,22.414V26a1,1,0,0,0,1,1h2a1,1,0,0,0,.707-.293l2-2A1,1,0,0,0,44,24V18A1,1,0,0,0,43,17Zm-1,6.586L40.586,25H40V22a1,1,0,0,0-.293-.707L38,19.586V19h4Z"></path><path d="M10.465,43.465l1.414,1.414a3.072,3.072,0,0,1,4.242,0l1.414-1.414a5,5,0,0,0-7.07,0Z"></path><path d="M9.05,42.05a7.009,7.009,0,0,1,9.9,0l1.414-1.414a9.012,9.012,0,0,0-12.728,0Z"></path><path d="M12.586,46.586,14,48l1.414-1.414A2,2,0,0,0,12.586,46.586Z"></path><rect x="13" y="56" width="2" height="2"></rect></svg>