<svg xmlns="http://www.w3.org/2000/svg" viewBox="0 0 64 64" x="0px" y="0px"><g><rect x="13" y="46" width="16" height="14"></rect><path d="M29,21.122a1.1,1.1,0,0,0-.824-1.107A1,1,0,0,0,27,21v5H25V17.122a1.1,1.1,0,0,0-.824-1.107A1,1,0,0,0,23,17v8H21V12a1,1,0,0,0-.357-.763.988.988,0,0,0-.819-.222A1.1,1.1,0,0,0,19,12.122V25H17V16a1,1,0,0,0-.357-.763.986.986,0,0,0-.819-.222A1.1,1.1,0,0,0,15,16.122V31H13V25a1,1,0,0,0-1-1H11v9.343a3.02,3.02,0,0,0,.878,2.121l1.829,1.829A1,1,0,0,1,14,38v6H28V41a1,1,0,0,1,.105-.447l.578-1.156A3,3,0,0,0,29,38.056Z"></path><path d="M53,17H52a1,1,0,0,0-1,1v6H49V9.122a1.1,1.1,0,0,0-.824-1.107A1,1,0,0,0,47,9v9H45V5.122a1.1,1.1,0,0,0-.824-1.107A1,1,0,0,0,43,5V18H41V10a1,1,0,0,0-1.176-.985A1.1,1.1,0,0,0,39,10.122V19H37V14a1,1,0,0,0-1.176-.985A1.1,1.1,0,0,0,35,14.122V31.056a3,3,0,0,0,.317,1.341l.578,1.156A1,1,0,0,1,36,34v3H50V31a1,1,0,0,1,.293-.707l1.829-1.829A3.02,3.02,0,0,0,53,26.343Z"></path><rect x="35" y="39" width="16" height="21"></rect></g></svg>