<svg xmlns="http://www.w3.org/2000/svg" viewBox="0 0 64 64" x="0px" y="0px"><g data-name="Health Education-Article-Smartphone-Knowledge-Blog"><rect x="56" y="14" width="6" height="2"></rect><rect x="56" y="18" width="6" height="2"></rect><rect x="56" y="36" width="6" height="2"></rect><rect x="56" y="40" width="6" height="2"></rect><rect x="2" y="14" width="6" height="2"></rect><rect x="2" y="18" width="6" height="2"></rect><path d="M34,54H30a1,1,0,0,0,0,2h4a1,1,0,0,0,0-2Z"></path><path d="M35.43,27.98l-.72.73-1.42-1.42.73-.72a3.864,3.864,0,0,0-4.04,0l.73.72-1.42,1.42-.72-.73a3.864,3.864,0,0,0,0,4.04l.72-.73,1.42,1.42-.73.72a3.864,3.864,0,0,0,4.04,0l-.73-.72,1.42-1.42.72.73a3.864,3.864,0,0,0,0-4.04ZM33,31H31V29h2Z"></path><path d="M47,14h3V8a4,4,0,0,0-4-4H18a4,4,0,0,0-4,4v6h3a1.033,1.033,0,0,1,.71.29l4,4-1.42,1.42L16.59,16H14V36h5v2H14V56a4,4,0,0,0,4,4H46a4,4,0,0,0,4-4V38H45V36h5V16H47.41l-3.7,3.71-1.42-1.42,4-4A1.033,1.033,0,0,1,47,14ZM29,6h6V8H29ZM25,6h2V8H25Zm9,52H30a3,3,0,0,1,0-6h4a3,3,0,0,1,0,6ZM44,30a1.992,1.992,0,0,1-3.72,1H37.91a5.949,5.949,0,0,1-1.02,2.47l1.67,1.68a2,2,0,1,1-1.41,1.41l-1.68-1.67A5.949,5.949,0,0,1,33,35.91v2.37a2,2,0,1,1-2,0V35.91a5.949,5.949,0,0,1-2.47-1.02l-1.68,1.67a2,2,0,1,1-1.41-1.41l1.67-1.68A5.949,5.949,0,0,1,26.09,31H23.72a2,2,0,1,1,0-2h2.37a5.949,5.949,0,0,1,1.02-2.47l-1.67-1.68a1.807,1.807,0,0,1-.51.08,2.01,2.01,0,1,1,1.92-1.49l1.68,1.67A5.949,5.949,0,0,1,31,24.09V21.72a2,2,0,1,1,2,0v2.37a5.949,5.949,0,0,1,2.47,1.02l1.68-1.67a2,2,0,0,1,.51-1.93,2,2,0,1,1,1.41,3.42,1.807,1.807,0,0,1-.51-.08l-1.67,1.68A5.949,5.949,0,0,1,37.91,29h2.37A1.992,1.992,0,0,1,44,30Z"></path><rect x="2" y="36" width="6" height="2"></rect><rect x="2" y="40" width="6" height="2"></rect><rect x="50" y="14" width="4" height="2"></rect><rect x="50" y="36" width="4" height="2"></rect><rect x="10" y="14" width="4" height="2"></rect><rect x="10" y="36" width="4" height="2"></rect></g></svg>