<svg xmlns="http://www.w3.org/2000/svg" viewBox="0 0 64 64" x="0px" y="0px"><g><path d="M15,24H31a1,1,0,0,0,1-1V13a1,1,0,0,0-1-1H15a1,1,0,0,0-1,1V23A1,1,0,0,0,15,24Zm1-10H30v8H16Z"></path><rect x="40" y="13" width="6" height="2"></rect><rect x="36" y="17" width="10" height="2"></rect><rect x="36" y="21" width="6" height="2"></rect><rect x="18" y="28" width="22" height="2"></rect><rect x="14" y="32" width="22" height="2"></rect><rect x="14" y="36" width="18" height="2"></rect><rect x="14" y="40" width="14" height="2"></rect><rect x="14" y="44" width="14" height="2"></rect><rect x="14" y="48" width="14" height="2"></rect><path d="M59.58,27.08,56,23.5V8a6,6,0,0,0-6-6H10A6,6,0,0,0,4,8V56a6,6,0,0,0,6,6H50a6,6,0,0,0,6-6V32.07l3.58-3.58a1.009,1.009,0,0,0,.29-.7A1.033,1.033,0,0,0,59.58,27.08ZM54,56a4,4,0,0,1-4,4H10a4,4,0,0,1-4-4V8a4,4,0,0,1,4-4H50a4,4,0,0,1,4,4V21.5l-.08-.08a1,1,0,0,0-1.41,0l-.51.51V8a2.006,2.006,0,0,0-2-2H10A2.006,2.006,0,0,0,8,8V56a2.006,2.006,0,0,0,2,2H50a2.006,2.006,0,0,0,2-2V36.07l2-2ZM35.13,43.65l.79-2.05,3.48,3.48-2.05.79Zm.18,3-1.57.61.61-1.57Zm-.48-7.55a1.014,1.014,0,0,0-.23.35l-3.53,9.19a.988.988,0,0,0,.22,1.07A1.007,1.007,0,0,0,32,50a.922.922,0,0,0,.36-.07l9.19-3.53a1.014,1.014,0,0,0,.35-.23l8.1-8.1V56H10V8H50V23.93Zm6.36,4.95-1.41-1.41L51.8,30.62l1.41,1.41Zm-2.83-2.83-1.41-1.41L48.97,27.79l1.41,1.41Zm16.27-10.6-4.25-4.25,2.83-2.83,4.25,4.25Z"></path><rect x="36" y="13" width="2" height="2"></rect><rect x="44" y="21" width="2" height="2"></rect><rect x="14" y="28" width="2" height="2"></rect></g></svg>