<svg xmlns="http://www.w3.org/2000/svg" viewBox="0 0 64 64" x="0px" y="0px"><g><path d="M47.909,56.634a1,1,0,0,1,.6.286l2.828,2.829,8.486-8.485-2.829-2.829a1,1,0,0,1-.212-.313l-2.045-4.773-7.642-7.642a1.023,1.023,0,0,0-1.414,0,1,1,0,0,0,0,1.413l1.416,1.416L45.678,39.95l-1.414-1.414,0,0-.7-.706a1,1,0,0,0-1.415,1.415l1.414,1.414h0l.707.707-1.414,1.414-2.121-2.121-.707-.707A1,1,0,0,0,38.6,41.36l2.833,2.833-1.414,1.414-.708-.708h0l-9.191-9.192a1.022,1.022,0,0,0-1.416,0,1,1,0,0,0,0,1.416l12.729,12.73-1.414,1.414-4.249-4.249a1,1,0,0,0-1.41,1.417l7.53,7.53Z"></path><path d="M15.694,28H26.306a1,1,0,0,0,.986-.836L28.819,18H13.181l1.527,9.164A1,1,0,0,0,15.694,28ZM24,20h2v6H24Zm-4,0h2v6H20Zm-4,0h2v6H16Z"></path><path d="M38,54.9l-5.05-5.05a2.968,2.968,0,0,1,.836-4.819l-4.375-4.375a5,5,0,1,1,.081-7.228,2.965,2.965,0,0,1,2.045.866l5.079,5.079A2.794,2.794,0,0,1,38,37.974V7a3,3,0,0,0-3-3H30V6a2,2,0,0,1-2,2H14a2,2,0,0,1-2-2V4H7A3,3,0,0,0,4,7V57a3,3,0,0,0,3,3H35a3,3,0,0,0,3-3ZM22,46h2v2H22ZM11.237,16.354A1,1,0,0,1,12,16h2.82l-.806-4.835,1.972-.33L16.847,16h8.306l.861-5.165,1.972.33L27.18,16H30a1,1,0,0,1,.986,1.165L29.265,27.493A2.991,2.991,0,0,1,26.306,30H15.694a2.991,2.991,0,0,1-2.959-2.507L11.014,17.165A1,1,0,0,1,11.237,16.354ZM18,32v2H12V32ZM8,32h2v2H8Zm0,4H18v2H8Zm0,4H18v2H8Zm0,6H20v2H8Zm20,6H8V50H28Zm0-4H26V46h2Z"></path><rect x="14" y="4" width="14" height="2"></rect><path d="M26,34a3,3,0,1,0,1.992,5.237l-.7-.7a3,3,0,0,1,0-4.242A2.986,2.986,0,0,0,26,34Z"></path></g></svg>