<svg xmlns="http://www.w3.org/2000/svg" viewBox="0 0 64 64" x="0px" y="0px"><g data-name="Business Bag"><path d="M57,27H46V18a1,1,0,0,0-1-1H42V11a1,1,0,0,0-.1-.447L40,6.764V3a1,1,0,0,0-1-1H23a1,1,0,0,0-1,1V17H19a1,1,0,0,0-1,1v9H7a2,2,0,0,0-2,2V40a1,1,0,0,0,.5.869l1.5.854V59a3,3,0,0,0,3,3H54a3,3,0,0,0,3-3V41.723l1.495-.854A1,1,0,0,0,59,40V29A2,2,0,0,0,57,27ZM44,19v2H41.816A2.966,2.966,0,0,0,42,20V19ZM28,19a1,1,0,0,1,2,0v5H28Zm1-3a2.981,2.981,0,0,0-2,.78,2.908,2.908,0,0,0-3-.6V8H38.382L40,11.236V20a1,1,0,0,1-2,0V16a1,1,0,0,0-1-1,5.006,5.006,0,0,1-5-5H30a7,7,0,0,0,3.492,6.05A2.849,2.849,0,0,0,31,16.78,2.981,2.981,0,0,0,29,16Zm-5,4V19a1,1,0,0,1,2,0v5H25a1,1,0,0,1-1-1Zm8-1a1,1,0,0,1,2,0v5H32Zm2.854-2.34c.071.023.144.041.216.062L35,16.78C34.953,16.738,34.9,16.7,34.854,16.66ZM36,20a3,3,0,0,0,2,2.816V23a1,1,0,0,1-1,1H36ZM38,4V6H24V4ZM22,19v2H20V19Zm-2,4h2a3,3,0,0,0,3,3H37a3,3,0,0,0,3-3h4v4H20ZM55,59a1,1,0,0,1-1,1H10a1,1,0,0,1-1-1V42.866l3.5,2A1.01,1.01,0,0,0,13,45h3v2a1,1,0,0,0,1,1h4a1,1,0,0,0,1-1V45H42v2a1,1,0,0,0,1,1h4a1,1,0,0,0,1-1V45h3a1.01,1.01,0,0,0,.5-.132l3.5-2ZM18,46V42h2v4Zm26,0V42h2v4Zm13-6.581L50.734,43H48V41a1,1,0,0,0-1-1H43a1,1,0,0,0-1,1v2H22V41a1,1,0,0,0-1-1H17a1,1,0,0,0-1,1v2H13.266L7,39.419V29H57Z"></path><rect x="31" y="31" width="2" height="2"></rect><rect x="35" y="31" width="2" height="2"></rect><rect x="27" y="31" width="2" height="2"></rect><path d="M11,33h3V31H10a1,1,0,0,0-1,1v4h2Z"></path><path d="M53,36h2V32a1,1,0,0,0-1-1H50v2h3Z"></path></g></svg>