<svg xmlns="http://www.w3.org/2000/svg" viewBox="0 0 64 64" x="0px" y="0px"><g data-name="Game Console-Gaming-Gamer-Portable-Device"><path d="M42,12H22a1,1,0,0,0-1,1V27a1,1,0,0,0,1,1H42a1,1,0,0,0,1-1V13A1,1,0,0,0,42,12ZM33.707,22.293A1,1,0,0,1,33.8,23.6a6,6,0,1,1,0-7.2,1,1,0,0,1-.092,1.308L31.414,20ZM37,21H35V19h2Zm4,0H39V19h2Z"></path><path d="M25,20a4,4,0,0,0,6.612,3.026l-2.319-2.319a1,1,0,0,1,0-1.414l2.319-2.319A4,4,0,0,0,25,20Z"></path><path d="M47,8H17V32H47ZM45,27a3,3,0,0,1-3,3H22a3,3,0,0,1-3-3V13a3,3,0,0,1,3-3H42a3,3,0,0,1,3,3Z"></path><path d="M13,40H51V4H13Zm22-2H33V36h2Zm4,0H37V36h2Zm4,0H41V36h2Zm4,0H45V36h2ZM15,7a1,1,0,0,1,1-1H48a1,1,0,0,1,1,1V33a1,1,0,0,1-1,1H16a1,1,0,0,1-1-1Z"></path><rect x="24" y="52" width="2" height="2"></rect><rect x="16" y="56" width="14" height="4"></rect><path d="M21,47a2,2,0,1,0-3,1.721V54h2V48.721A2,2,0,0,0,21,47Z"></path><path d="M14,60H6a4,4,0,0,1,0-8H8a3,3,0,0,0,0-6H7A5,5,0,0,1,7,36h4v2H7a3,3,0,0,0,0,6H8A5,5,0,0,1,8,54H6a2,2,0,0,0,0,4h8Z"></path><path d="M43,60H37a4,4,0,0,1,0-8h2a1,1,0,0,0,1-1V42h2v9a3,3,0,0,1-3,3H37a2,2,0,0,0,0,4h6Z"></path><rect x="53" y="52" width="2" height="2"></rect><rect x="45" y="56" width="14" height="4"></rect><path d="M50,47a2,2,0,1,0-3,1.721V54h2V48.721A2,2,0,0,0,50,47Z"></path></g></svg>