<svg xmlns="http://www.w3.org/2000/svg" viewBox="0 0 64 64" x="0px" y="0px"><g data-name="skyscraper-building-tower-city-real estate"><path d="M39,60V54h2V52H39V50h2V48H39V46h2V44H39V42h2V40H39V38h2V36H39V34h2V32H39V30h2V28H39V26h2V24H39V22h2V20H39V18h2V16H39V14h2V12H39V10h2V8H37v2H35V8h1.39L29.72,4H25V8H23v2h2v2H23v2h2v2H23v2h2v2H23v2h2v2H23v2h2v2H23v2h2v2H23v2h2v2H23v2h2v2H23v2h2v2H23v2h2v2H23v2h2v2H23v2h2v6H19v2H45V60ZM35,12h2v2H35Zm0,4h2v2H35Zm0,4h2v2H35Zm0,4h2v2H35Zm0,4h2v2H35Zm0,4h2v2H35Zm0,4h2v2H35Zm0,4h2v2H35Zm0,4h2v2H35Zm0,4h2v2H35Zm0,4h2v2H35ZM31,8h2v2H31Zm0,4h2v2H31Zm0,4h2v2H31Zm0,4h2v2H31Zm0,4h2v2H31Zm0,4h2v2H31Zm0,4h2v2H31Zm0,4h2v2H31Zm0,4h2v2H31Zm0,4h2v2H31Zm0,4h2v2H31Zm0,4h2v2H31ZM27,8h2v2H27Zm0,4h2v2H27Zm0,4h2v2H27Zm0,4h2v2H27Zm0,4h2v2H27Zm0,4h2v2H27Zm0,4h2v2H27Zm0,4h2v2H27Zm0,4h2v2H27Zm0,4h2v2H27Zm0,4h2v2H27Zm0,4h2v2H27Zm8,8V58H29v2H27V57a1,1,0,0,1,1-1h8a1,1,0,0,1,1,1v3Z"></path></g></svg>