<svg xmlns="http://www.w3.org/2000/svg" viewBox="0 0 64 64" x="0px" y="0px"><g><path d="M27,54H37V42H27Zm6-2H31V50h2Zm-2-8h2v2H31Zm-2,3h6v2H29Z"></path><path d="M39,28V54H49V28Zm8,16H41V42h6Zm0-4H41V38h6Z"></path><path d="M15,54H25V42H15Zm2-7h6v2H17Z"></path><path d="M53,22H11V57a3,3,0,0,0,3,3H50a3,3,0,0,0,3-3ZM51,54a2,2,0,0,1-2,2H15a2,2,0,0,1-2-2V28a2,2,0,0,1,2-2H49a2,2,0,0,1,2,2Z"></path><path d="M15,40H25V28H15Zm2-7h2V31h2v2h2v2H21v2H19V35H17Z"></path><path d="M27,40H37V28H27Zm2.172-7.414,1.414-1.414L32,32.586l1.414-1.414,1.414,1.414L33.414,34l1.414,1.414-1.414,1.414L32,35.414l-1.414,1.414-1.414-1.414L30.586,34Z"></path><path d="M53,7a3,3,0,0,0-3-3H14a3,3,0,0,0-3,3V20H53Zm-2,9a2,2,0,0,1-2,2H15a2,2,0,0,1-2-2V8a2,2,0,0,1,2-2H49a2,2,0,0,1,2,2Z"></path><path d="M15,8v8H49V8Zm14,5H27V11h2Zm4,0H31V11h2Zm4,0H35V11h2Z"></path></g></svg>