<svg xmlns="http://www.w3.org/2000/svg" viewBox="0 0 64 64" x="0px" y="0px"><g data-name="Breakdown"><rect x="38" y="36" width="4" height="2"></rect><path d="M26.618,50.912l.944-.546-1-1.732-.941.543a6.139,6.139,0,0,0-.8-.8l.543-.941-1.732-1-.546.944A5.992,5.992,0,0,0,22,47.09V46H20v1.09a5.992,5.992,0,0,0-1.088.292l-.546-.944-1.732,1,.543.941a6.139,6.139,0,0,0-.8.8l-.942-.543-1,1.732.945.546A5.992,5.992,0,0,0,15.09,52H14v2h1.09a5.992,5.992,0,0,0,.292,1.088l-.945.546,1,1.732.942-.543a6.139,6.139,0,0,0,.8.8l-.543.941,1.732,1,.546-.944A5.992,5.992,0,0,0,20,58.91V60h2V58.91a5.992,5.992,0,0,0,1.088-.292l.546.944,1.732-1-.543-.941a6.139,6.139,0,0,0,.8-.8l.941.543,1-1.732-.944-.546A5.992,5.992,0,0,0,26.91,54H28V52H26.91A5.992,5.992,0,0,0,26.618,50.912ZM25,53a4,4,0,1,1-4-4A4,4,0,0,1,25,53Z"></path><rect x="20" y="52" width="2" height="2"></rect><path d="M54.618,50.912l.944-.546-1-1.732-.941.543a6.139,6.139,0,0,0-.8-.8l.543-.941-1.732-1-.546.944A5.992,5.992,0,0,0,50,47.09V46H48v1.09a5.992,5.992,0,0,0-1.088.292l-.546-.944-1.732,1,.543.941a6.139,6.139,0,0,0-.8.8l-.942-.543-1,1.732.945.546A5.992,5.992,0,0,0,43.09,52H42v2h1.09a5.992,5.992,0,0,0,.292,1.088l-.945.546,1,1.732.942-.543a6.139,6.139,0,0,0,.8.8l-.543.941,1.732,1,.546-.944A5.992,5.992,0,0,0,48,58.91V60h2V58.91a5.992,5.992,0,0,0,1.088-.292l.546.944,1.732-1-.543-.941a6.139,6.139,0,0,0,.8-.8l.941.543,1-1.732-.944-.546A5.992,5.992,0,0,0,54.91,54H56V52H54.91A5.992,5.992,0,0,0,54.618,50.912ZM53,53a4,4,0,1,1-4-4A4,4,0,0,1,53,53Z"></path><rect x="48" y="52" width="2" height="2"></rect><path d="M55,32H53.85l-1.88-4.749,2.066-6.2A3,3,0,0,1,56.883,19H60V17H56.883a4.993,4.993,0,0,0-4.743,3.418L48.787,30.477l-5.774-10.83A4.993,4.993,0,0,0,38.6,17H13a5.006,5.006,0,0,0-5,5v2H4a2,2,0,0,0-2,2V36a2,2,0,0,0,2,2H8v9a3,3,0,0,0,3,3h.84a1,1,0,0,0,.917-.6,8.991,8.991,0,0,1,16.486,0,1,1,0,0,0,.917.6h9.68a1,1,0,0,0,.917-.6,8.991,8.991,0,0,1,16.486,0,1,1,0,0,0,.917.6H59a3,3,0,0,0,3-3V39A7.008,7.008,0,0,0,55,32Zm5,7v1H56V38h3.9A5,5,0,0,1,60,39Zm-8.3-7H50.387l.6-1.8ZM41.247,20.588,47.333,32H36V19h2.6A2.993,2.993,0,0,1,41.247,20.588ZM10,22a3,3,0,0,1,3-3H34V32H10V22Zm1,16v2H10V38ZM4,36V33H5V31H4V29H5V27H4V26H8v3H7v2H8v2H7v2H8v1Zm7.207,12H11a1,1,0,0,1-1-1V46h2.551A10.967,10.967,0,0,0,11.207,48ZM21,42a10.985,10.985,0,0,0-8,3.462V44H10V42h1a2,2,0,0,0,2-2V38a2,2,0,0,0-2-2H10V34H34V48H30.793A10.994,10.994,0,0,0,21,42Zm28,0a10.994,10.994,0,0,0-9.793,6H36V34H55a4.977,4.977,0,0,1,3.974,2H56a2,2,0,0,0-2,2v2a2,2,0,0,0,2,2h4v2H57v1.462A10.985,10.985,0,0,0,49,42Zm10,6h-.207a10.967,10.967,0,0,0-1.344-2H60v1A1,1,0,0,1,59,48Z"></path><path d="M47.3,16h2a1.354,1.354,0,0,1,.466-1.021,3.324,3.324,0,0,0,0-4.62,1.358,1.358,0,0,1,0-2.048A3.29,3.29,0,0,0,50.7,6h-2a1.359,1.359,0,0,1-.466,1.024,3.326,3.326,0,0,0,0,4.622,1.355,1.355,0,0,1,0,2.045A3.284,3.284,0,0,0,47.3,16Z"></path><path d="M53.3,14h2a1.354,1.354,0,0,1,.466-1.021,3.324,3.324,0,0,0,0-4.62,1.358,1.358,0,0,1,0-2.048A3.29,3.29,0,0,0,56.7,4h-2a1.359,1.359,0,0,1-.466,1.024,3.326,3.326,0,0,0,0,4.622,1.355,1.355,0,0,1,0,2.045A3.284,3.284,0,0,0,53.3,14Z"></path></g></svg>