<svg xmlns="http://www.w3.org/2000/svg" viewBox="0 0 64 64" x="0px" y="0px"><g data-name="Partnership"><path d="M52,19a19.082,19.082,0,0,1-.6,4.751l1.936.5A21.031,21.031,0,0,0,46.65,3.041l-1.3,1.52A18.987,18.987,0,0,1,52,19Z"></path><path d="M55.006,25.708l1.913.584A25.039,25.039,0,0,0,51.634,2.333l-1.49,1.334a23.038,23.038,0,0,1,4.862,22.041Z"></path><path d="M52,19a19.082,19.082,0,0,1-.6,4.751l1.936.5A21.031,21.031,0,0,0,46.65,3.041l-1.3,1.52A18.987,18.987,0,0,1,52,19Z"></path><path d="M55.006,25.708l1.913.584A25.039,25.039,0,0,0,51.634,2.333l-1.49,1.334a23.038,23.038,0,0,1,4.862,22.041Z"></path><path d="M12.662,24.249l1.936-.5A19.037,19.037,0,0,1,20.65,4.561l-1.3-1.519a21.029,21.029,0,0,0-6.688,21.207Z"></path><path d="M10.994,25.708A23.038,23.038,0,0,1,15.856,3.667l-1.49-1.334A25.039,25.039,0,0,0,9.081,26.292Z"></path><path d="M33,12a7,7,0,1,0,7,7A7.008,7.008,0,0,0,33,12Zm0,6a2.993,2.993,0,0,1,1,5.816V25H32V23.816A3,3,0,0,1,30,21h2a1,1,0,1,0,1-1,2.993,2.993,0,0,1-1-5.816V13h2v1.184A3,3,0,0,1,36,17H34a1,1,0,1,0-1,1Z"></path><rect x="9.151" y="29.293" width="14" height="6" transform="translate(-18.105 20.881) rotate(-45.003)"></rect><path d="M39.911,9.634a1,1,0,0,1-1.106.036,11.029,11.029,0,0,0-3.31-1.376,1,1,0,0,1-.761-.81L34.153,4H31.847l-.581,3.484a1,1,0,0,1-.761.81A11.029,11.029,0,0,0,27.2,9.67a1,1,0,0,1-1.106-.036L23.208,7.576,21.576,9.208l2.058,2.881A1,1,0,0,1,23.67,13.2a11.029,11.029,0,0,0-1.376,3.31,1,1,0,0,1-.81.761L18,17.847v2.306l3.484.581a1,1,0,0,1,.81.761,11.029,11.029,0,0,0,1.376,3.31,1,1,0,0,1-.035,1.105l-.474.666,2.182,2.181a.977.977,0,0,1,.063.095l.684-.487A1,1,0,0,1,27.2,28.33a11.029,11.029,0,0,0,3.31,1.376,1,1,0,0,1,.761.808l.281,1.672a.97.97,0,0,1,.16.107L33.414,34h.739l.581-3.484a1,1,0,0,1,.761-.81,11.029,11.029,0,0,0,3.31-1.376.994.994,0,0,1,1.083.025l2.467-2.467a.994.994,0,0,1-.025-1.083,11.029,11.029,0,0,0,1.376-3.31,1,1,0,0,1,.81-.761L48,20.153V17.847l-3.484-.581a1,1,0,0,1-.81-.761A11.029,11.029,0,0,0,42.33,13.2a1,1,0,0,1,.036-1.106l2.058-2.881L42.792,7.576ZM33,28a9,9,0,1,1,9-9A9.011,9.011,0,0,1,33,28Z"></path><rect x="14.393" y="35.536" width="12" height="2" transform="translate(-19.861 25.121) rotate(-45)"></rect><path d="M37.717,58.1,36.3,56.688h0A1,1,0,0,0,34.889,58.1L36.3,59.517A1,1,0,1,0,37.717,58.1Z"></path><path d="M35.438,54.438a2.955,2.955,0,0,1,2.83-2.855,2.957,2.957,0,0,1,2.83-2.829,2.966,2.966,0,0,1,3.754-2.73l.294-.294-8.815-8.815h0l3.51,3.51A3,3,0,1,1,35.6,44.667L31.99,41.062a4.968,4.968,0,0,1-2.758.827c-.018,0-.034-.005-.052-.005l-6.665,6.672a1,1,0,1,0,1.414,1.414l2.828-2.828,1.414,1.414-2.828,2.829a1,1,0,0,0,0,1.413,1.022,1.022,0,0,0,1.414,0l2.829-2.828L31,51.385l-2.829,2.828a1,1,0,0,0,1.4,1.425l.009-.011,2.126-2.119.709-.709,1.414,1.414,0,0h0l-.943.94L31,57.042l-.013.01a1,1,0,0,0,1.427,1.4l.294-.3a2.926,2.926,0,0,1,2.73-3.72Z"></path><path d="M26.932,41.305a4.961,4.961,0,0,1-1.235-.881l1.414-1.414a3.07,3.07,0,0,0,4.243,0,1.029,1.029,0,0,1,1.414,0l4.242,4.243a1,1,0,1,0,1.415-1.414L30.586,34H27.171l-8.9,8.9,3.535,3.536Z"></path><path d="M46.2,51.031a1,1,0,0,0,0-1.414L44.789,48.2a1,1,0,1,0-1.414,1.414l1.414,1.414A1.022,1.022,0,0,0,46.2,51.031Z"></path><rect x="42.022" y="33.363" width="1.999" height="12" transform="translate(-15.234 41.95) rotate(-45)"></rect><rect x="44.263" y="27.121" width="6" height="16" transform="translate(-10.991 43.707) rotate(-45)"></rect><path d="M43.375,53.859a1,1,0,0,0,0-1.414L41.96,51.031a1,1,0,1,0-1.414,1.414L41.96,53.86A1,1,0,0,0,43.375,53.859Z"></path><path d="M40.545,56.688a1,1,0,0,0,0-1.414l-1.414-1.415a1,1,0,1,0-1.414,1.415l1.414,1.414A1.022,1.022,0,0,0,40.545,56.688Z"></path></g></svg>