<svg xmlns="http://www.w3.org/2000/svg" viewBox="0 0 64 64" x="0px" y="0px"><g><rect x="5" y="51" width="20" height="2"></rect><rect x="7" y="39" width="2" height="10"></rect><circle cx="22" cy="24" r="2"></circle><rect x="11" y="39" width="8" height="10"></rect><path d="M53,54a1,1,0,0,0,1-1V11a1,1,0,0,0-1-1H23a1,1,0,0,0-1,1v3H47a3,3,0,0,1,3,3V54Z"></path><polygon points="5 35.7 5 37 25 37 25 35.7 15 32.064 5 35.7"></polygon><rect x="21" y="39" width="2" height="10"></rect><path d="M59,48a1,1,0,0,0,1-1V5a1,1,0,0,0-1-1H29a1,1,0,0,0-1,1V8H53a3,3,0,0,1,3,3V48Z"></path><path d="M17,60H47a1,1,0,0,0,1-1V17a1,1,0,0,0-1-1H46v9a1,1,0,0,1-1.555.832L42,24.2l-2.445,1.63A1,1,0,0,1,38,25V16H17a1,1,0,0,0-1,1V30.3L26.342,34.06A1,1,0,0,1,27,35v3a1,1,0,0,1-1,1H25V49h1a1,1,0,0,1,1,1v4a1,1,0,0,1-1,1H16v4A1,1,0,0,0,17,60Zm5-32a4,4,0,1,1,4-4A4,4,0,0,1,22,28ZM44,54.36a3.97,3.97,0,0,1-1.934-.458,2.308,2.308,0,0,0-2.136,0,4.3,4.3,0,0,1-3.865,0A2.034,2.034,0,0,0,35,53.64v-2a3.962,3.962,0,0,1,1.932.459,2.306,2.306,0,0,0,2.133,0,4.31,4.31,0,0,1,3.867,0A2.033,2.033,0,0,0,44,52.36ZM44,48H29V46H44Zm0-6H29V40H44Zm0-8v2H29V34ZM32,22h4v2H32Zm-4,0h2v2H28Zm0,4h8v2H28Z"></path><path d="M42.555,22.168,44,23.131V16H40v7.131l1.445-.963a1,1,0,0,1,1.11,0Z"></path></g></svg>