<svg xmlns="http://www.w3.org/2000/svg" viewBox="0 0 64 64" x="0px" y="0px"><g data-name="Real Estate"><path d="M56,5a1,1,0,0,0-1-1H5A1,1,0,0,0,4,5v5H56ZM10,8H8V6h2Zm4,0H12V6h2Zm4,0H16V6h2ZM48,8H26V6H48Z"></path><path d="M14,40V60H28V40Zm4,16H16V54h2Zm0-4H16V50h2Zm0-4H16V46h2Zm0-4H16V42h2Zm4,12H20V54h2Zm0-4H20V50h2Zm0-4H20V46h2Zm0-4H20V42h2Zm4,12H24V54h2Zm0-4H24V50h2Zm0-4H24V46h2Zm0-4H24V42h2Z"></path><path d="M30,60h3V53a1,1,0,0,1,1-1h6a1,1,0,0,1,1,1v7h3V34H30ZM40,36h2v2H40Zm0,4h2v2H40Zm0,4h2v2H40Zm0,4h2v2H40ZM36,36h2v2H36Zm0,4h2v2H36Zm0,4h2v2H36Zm0,4h2v2H36ZM32,36h2v2H32Zm0,4h2v2H32Zm0,4h2v2H32Zm0,4h2v2H32Z"></path><rect x="35" y="54" width="4" height="6"></rect><rect x="28" y="30" width="18" height="2"></rect><path d="M46,60H60V40H46ZM56,42h2v2H56Zm0,4h2v2H56Zm0,4h2v2H56Zm0,4h2v2H56ZM52,42h2v2H52Zm0,4h2v2H52Zm0,4h2v2H52Zm0,4h2v2H52ZM48,42h2v2H48Zm0,4h2v2H48Zm0,4h2v2H48Zm0,4h2v2H48Z"></path><path d="M12,39a1,1,0,0,1,1-1H28V34H27a1,1,0,0,1-1-1V29a1,1,0,0,1,1-1H47a1,1,0,0,1,1,1v4a1,1,0,0,1-1,1H46v4H56V12H4V53a1,1,0,0,0,1,1h7ZM8,24V16a1,1,0,0,1,1-1H51a1,1,0,0,1,1,1v8a1,1,0,0,1-1,1H9A1,1,0,0,1,8,24Z"></path><path d="M10,23H50V17H10Zm25-4h2v2H35Zm-4,0h2v2H31Zm-4,0h2v2H27Zm-4,0h2v2H23Z"></path></g></svg>