<svg xmlns="http://www.w3.org/2000/svg" viewBox="0 0 64 64" x="0px" y="0px"><g data-name="Candle Light"><path d="M52,32H49V29.858A4,4,0,0,0,52,26c0-1.941-2.712-5.062-3.256-5.668a1.031,1.031,0,0,0-1.488,0C46.712,20.938,44,24.059,44,26a4,4,0,0,0,3,3.858V32H44a1,1,0,0,0-1,1V45a1,1,0,0,0,1,1h3v3a1,1,0,0,1-1,1H33V28h3a1,1,0,0,0,1-1V15a1,1,0,0,0-1-1H33V11.858A4,4,0,0,0,36,8c0-1.941-2.712-5.062-3.256-5.668a1.031,1.031,0,0,0-1.488,0C30.712,2.938,28,6.059,28,8a4,4,0,0,0,3,3.858V14H28a1,1,0,0,0-1,1V27a1,1,0,0,0,1,1h3V50H18a1,1,0,0,1-1-1V36h3a1,1,0,0,0,1-1V23a1,1,0,0,0-1-1H17V19.858A4,4,0,0,0,20,16c0-1.941-2.712-5.062-3.256-5.668a1.031,1.031,0,0,0-1.488,0C14.712,10.938,12,14.059,12,16a4,4,0,0,0,3,3.858V22H12a1,1,0,0,0-1,1V35a1,1,0,0,0,1,1h3V49a3,3,0,0,0,3,3H31v4H23a1,1,0,0,0-1,1v4a1,1,0,0,0,1,1H41a1,1,0,0,0,1-1V57a1,1,0,0,0-1-1H33V52H46a3,3,0,0,0,3-3V46h3a1,1,0,0,0,1-1V33A1,1,0,0,0,52,32Zm-6-6c0-.637.939-2.125,2-3.451,1.062,1.332,2,2.831,2,3.451a2,2,0,0,1-4,0ZM30,8c0-.637.939-2.125,2-3.451C33.062,5.881,34,7.38,34,8a2,2,0,0,1-4,0Zm-1,8h6V26H29ZM14,16c0-.637.939-2.125,2-3.451,1.062,1.332,2,2.831,2,3.451a2,2,0,0,1-4,0Zm-1,8h6V34H13ZM40,60H24V58H40ZM51,44H45V34h6Z"></path></g></svg>