<svg xmlns="http://www.w3.org/2000/svg" viewBox="0 0 64 64" x="0px" y="0px"><path d="M55,60V53.755A4.078,4.078,0,0,0,57,50c0-2.209-1.343-4-3-4s-3,1.791-3,4a4.078,4.078,0,0,0,2,3.755V60H42V23.414l-13-13-13,13V60H2v2H62V60ZM30,53V47a1,1,0,0,1,1-1h8a1,1,0,0,1,1,1v6a1,1,0,0,1-1,1H31A1,1,0,0,1,30,53ZM40,33V43a1,1,0,0,1-1,1H31a1,1,0,0,1-1-1V33a1,1,0,0,1,1-1h8A1,1,0,0,1,40,33ZM29,16a6,6,0,1,1-6,6A6.006,6.006,0,0,1,29,16ZM18,33a1,1,0,0,1,1-1h8a1,1,0,0,1,1,1V43a1,1,0,0,1-1,1H19a1,1,0,0,1-1-1Zm8,27V48H20V60H18V47a1,1,0,0,1,1-1h8a1,1,0,0,1,1,1V60Z"></path><rect x="36" y="34" width="2" height="3"></rect><rect x="32" y="34" width="2" height="3"></rect><rect x="36" y="48" width="2" height="1"></rect><rect x="36" y="39" width="2" height="3"></rect><rect x="32" y="39" width="2" height="3"></rect><rect x="36" y="51" width="2" height="1"></rect><path d="M28.293,8.293a1,1,0,0,1,1.414,0L50,28.586,51.586,27,29,4.414,6.414,27,8,28.586Z"></path><rect x="32" y="51" width="2" height="1"></rect><rect x="32" y="48" width="2" height="1"></rect><rect x="24" y="34" width="2" height="3"></rect><rect x="20" y="34" width="2" height="3"></rect><rect x="24" y="39" width="2" height="3"></rect><circle cx="29" cy="22" r="4"></circle><rect x="20" y="39" width="2" height="3"></rect></svg>