<svg xmlns="http://www.w3.org/2000/svg" viewBox="0 0 64 64" x="0px" y="0px"><g><path d="M59.589,39.705l-1.41-1.42,0,0a5.016,5.016,0,0,0-7.08.007l-9.263,9.433A5.007,5.007,0,0,0,37,44H30.321A6.986,6.986,0,0,0,24,40H19a6.973,6.973,0,0,0-5,2.111V39a1,1,0,0,0-1-1H5a1,1,0,0,0-1,1V61a1,1,0,0,0,1,1h8a1,1,0,0,0,1-1V59l27.27.019h0a1,1,0,0,0,.707-.293l17.61-17.61A1,1,0,0,0,59.589,39.705ZM12,60H6V40h6Zm28.856-2.98L14,57V47a5.006,5.006,0,0,1,5-5h5a4.98,4.98,0,0,1,4.706,3.328A1,1,0,0,0,29.65,46H37a3,3,0,0,1,3,3H25v2H41v-.01a.989.989,0,0,0,.713-.29l10.8-11a3.011,3.011,0,0,1,4.245,0l.708.712Z"></path><rect x="7" y="42" width="2" height="2"></rect><path d="M28,21h1v1a7,7,0,0,0,6,6.92V37H31a1,1,0,0,0-1,1v3a1,1,0,0,0,1,1H45a1,1,0,0,0,1-1V38a1,1,0,0,0-1-1H41V28.92A7,7,0,0,0,47,22V21h1a3,3,0,0,0,3-3V12a1,1,0,0,0-1-1H26a1,1,0,0,0-1,1v6A3,3,0,0,0,28,21ZM44,40H32V39H44Zm-7-3V29h2v8ZM49,18a1,1,0,0,1-1,1H47V13h2Zm-4,2v2a5.006,5.006,0,0,1-5,5H36a5.006,5.006,0,0,1-5-5V13H45ZM27,13h2v6H28a1,1,0,0,1-1-1Z"></path><path d="M35.648,19.764l-.5,1.546a1,1,0,0,0,1.54,1.118L38,21.473l1.314.955a1,1,0,0,0,1.54-1.118l-.5-1.546,1.314-.955A1,1,0,0,0,41.078,17H39.453l-.5-1.545a1,1,0,0,0-1.9,0L36.547,17H34.922a1,1,0,0,0-.588,1.809ZM38,18.688a.991.991,0,0,0,.3.215.993.993,0,0,0-.114.35,1,1,0,0,0-.368,0,.993.993,0,0,0-.114-.35A.991.991,0,0,0,38,18.688Z"></path><rect x="37" y="2" width="2" height="2"></rect><rect x="39" y="4" width="2" height="2"></rect><rect x="35" y="4" width="2" height="2"></rect><rect x="37" y="6" width="2" height="2"></rect><rect x="29" y="4" width="2" height="2"></rect><rect x="31" y="6" width="2" height="2"></rect><rect x="27" y="6" width="2" height="2"></rect><rect x="29" y="8" width="2" height="2"></rect><rect x="45" y="4" width="2" height="2"></rect><rect x="47" y="6" width="2" height="2"></rect><rect x="43" y="6" width="2" height="2"></rect><rect x="45" y="8" width="2" height="2"></rect></g></svg>