<svg xmlns="http://www.w3.org/2000/svg" viewBox="0 0 64 64" x="0px" y="0px"><g data-name="File"><path d="M44,59a1,1,0,0,1-1,1H5a1,1,0,0,1-1-1V5A1,1,0,0,1,5,4H34v7a3,3,0,0,0,3,3h7v1h2V13a1,1,0,0,0-.293-.707l-10-10A1,1,0,0,0,35,2H5A3,3,0,0,0,2,5V59a3,3,0,0,0,3,3H43a3,3,0,0,0,3-3V57H44ZM36,5.414,42.586,12H37a1,1,0,0,1-1-1Z"></path><path d="M59,41H50V24a1,1,0,0,0-.293-.707l-6-6A1,1,0,0,0,43,17H26a2,2,0,0,0-2,2V52a3,3,0,0,0,3,3H53a3,3,0,0,0,3-3V51h5a1,1,0,0,0,1-1V44A3,3,0,0,0,59,41ZM44,20.414,46.586,23H44ZM26,52V19H42v4a2,2,0,0,0,2,2h4V52a2.966,2.966,0,0,0,.184,1H27A1,1,0,0,1,26,52Zm28,0a1,1,0,0,1-1,1H51a1,1,0,0,1-1-1V43h4.184A2.966,2.966,0,0,0,54,44Zm6-3H56V44a1,1,0,0,1,1-1h2a1,1,0,0,1,1,1Z"></path><rect x="30" y="33" width="14" height="2"></rect><rect x="30" y="39" width="14" height="2"></rect><rect x="30" y="45" width="14" height="2"></rect><path d="M31,29h8a1,1,0,0,0,1-1V24a1,1,0,0,0-1-1H31a1,1,0,0,0-1,1v4A1,1,0,0,0,31,29Zm1-4h6v2H32Z"></path></g></svg>