<svg xmlns="http://www.w3.org/2000/svg" viewBox="0 0 64 64" x="0px" y="0px"><g data-name="Smartphone-Mobile Store-Ecommerce-Shopping Bag-Buy"><rect x="11" y="6" width="2" height="2"></rect><rect x="15" y="6" width="8" height="2"></rect><path d="M21,42H17a3,3,0,0,0,0,6h4a3,3,0,0,0,0-6Zm0,4H17a1,1,0,0,1,0-2h4a1,1,0,0,1,0,2Z"></path><path d="M26,18H23V16a4,4,0,0,0-8,0v2H12a1,1,0,0,0-1,.929l-.847,11.857A3,3,0,0,0,13.148,34h11.7a3,3,0,0,0,2.993-3.214L27,18.929A1,1,0,0,0,26,18Zm-9-2a2,2,0,0,1,4,0v2H17Zm8.584,15.682a.99.99,0,0,1-.732.318h-11.7a1,1,0,0,1-1-1.071L12.931,20H15v2h2V20h4v2h2V20h2.069l.781,10.929A.994.994,0,0,1,25.584,31.682Z"></path><path d="M46,46a3.94,3.94,0,0,0-2.57.94A4.012,4.012,0,0,0,40,45a3.94,3.94,0,0,0-2.57.94A4,4,0,0,0,36,44.54V29h6v1a.987.987,0,0,0,.62.92A.838.838,0,0,0,43,31a1.007,1.007,0,0,0,.71-.29l4-4a1.008,1.008,0,0,0,0-1.42l-4-4a1,1,0,0,0-1.09-.21A.987.987,0,0,0,42,22v1H36V9a7.008,7.008,0,0,0-7-7H9A7.008,7.008,0,0,0,2,9V45a7.008,7.008,0,0,0,7,7h7.54a3.988,3.988,0,0,0,.4,3.04l4.31,7.46,1.73-1-4.31-7.46a2,2,0,1,1,3.46-2l2,3.46a1.022,1.022,0,0,0,1.13.47A1,1,0,0,0,26,55V38a2,2,0,0,1,4,0V52a1,1,0,0,0,2,0V48a2,2,0,0,1,4,0v4a1,1,0,0,0,2,0V49a2,2,0,0,1,4,0v3a1,1,0,0,0,2,0V50a2,2,0,0,1,4,0V62h2V50A4,4,0,0,0,46,46ZM31,27v2h3V44a3.989,3.989,0,0,0-2,.54V38a4,4,0,0,0-8,0V50H22.98a4.008,4.008,0,0,0-4.58-.43,4.247,4.247,0,0,0-.59.43H9a5,5,0,0,1-5-5V9A5,5,0,0,1,9,4H29a5,5,0,0,1,5,5V23H31v2H43a1.011,1.011,0,0,0,.94-.65L45.59,26l-1.65,1.65A1.011,1.011,0,0,0,43,27Z"></path><path d="M55,25H53a1,1,0,0,1,0-2h2a1,1,0,0,1,1,1h2a3,3,0,0,0-3-3V20H53v1a3,3,0,0,0,0,6h2a1,1,0,0,1,0,2H53a1,1,0,0,1-1-1H50a3,3,0,0,0,3,3v1h2V31a3,3,0,0,0,0-6Z"></path></g></svg>