<svg xmlns="http://www.w3.org/2000/svg" viewBox="0 0 48 48" x="0px" y="0px"><title>Online-Research</title><g><path d="M45,34H44V11a5.006,5.006,0,0,0-5-5H9a5.006,5.006,0,0,0-5,5V34H3a1,1,0,0,0-1,1v3a2,2,0,0,0,2,2H44a2,2,0,0,0,2-2V35A1,1,0,0,0,45,34ZM6,11A3,3,0,0,1,9,8H39a3,3,0,0,1,3,3V34H6ZM4,38V36H20a1,1,0,0,0,1,1h6a1,1,0,0,0,1-1H44v2Z"></path><path d="M40,31V11a1,1,0,0,0-1-1H9a1,1,0,0,0-1,1V31a1,1,0,0,0,1,1H39A1,1,0,0,0,40,31Zm-2-1H10V12H38Z"></path><rect x="18" y="20" width="2" height="2"></rect><rect x="23" y="20" width="2" height="2"></rect><rect x="28" y="20" width="2" height="2"></rect></g></svg>