<svg xmlns="http://www.w3.org/2000/svg" viewBox="0 0 64 64" x="0px" y="0px"><g><path d="M61,6H35V3a1,1,0,0,0-1-1H30a1,1,0,0,0-1,1V6H3A1,1,0,0,0,2,7v4a1,1,0,0,0,1,1H4V49a1,1,0,0,0,1,1H29v6H25a1,1,0,0,0-1,1v3H22v2H42V60H40V57a1,1,0,0,0-1-1H35V50H59a1,1,0,0,0,1-1V12h1a1,1,0,0,0,1-1V7A1,1,0,0,0,61,6ZM31,4h2V6H31Zm7,56H26V58H38Zm-5-4H31V50h2Zm25-8H6V12H58Zm2-38H4V8H60Z"></path><path d="M20.594,22.821l1.625,2.167a10.86,10.86,0,0,0-.679,1.639l-2.682.383A1,1,0,0,0,18,28v4a1,1,0,0,0,.858.99l2.682.383a10.86,10.86,0,0,0,.679,1.639l-1.625,2.167a1,1,0,0,0,.093,1.306l2.828,2.828a1,1,0,0,0,1.306.093l2.167-1.625a10.86,10.86,0,0,0,1.639.679l.383,2.682A1,1,0,0,0,30,44h4a1,1,0,0,0,.99-.858l.383-2.682a10.9,10.9,0,0,0,1.639-.679l2.167,1.625a1,1,0,0,0,1.306-.093l2.828-2.828a1,1,0,0,0,.093-1.306l-1.625-2.167a10.86,10.86,0,0,0,.679-1.639l2.682-.383A1,1,0,0,0,46,32V28a1,1,0,0,0-.858-.99l-2.682-.383a10.86,10.86,0,0,0-.679-1.639l1.625-2.167a1,1,0,0,0-.093-1.306l-2.828-2.828a1,1,0,0,0-1.306-.093l-2.167,1.625a10.9,10.9,0,0,0-1.639-.679l-.383-2.682A1,1,0,0,0,34,16H30a1,1,0,0,0-.99.858l-.383,2.682a10.86,10.86,0,0,0-1.639.679l-2.167-1.625a1,1,0,0,0-1.306.093l-2.828,2.828A1,1,0,0,0,20.594,22.821Zm3.612,1.485-1.492-1.991,1.6-1.6,1.991,1.492a1,1,0,0,0,1.11.061,8.9,8.9,0,0,1,2.356-.977,1,1,0,0,0,.744-.827L30.867,18h2.266l.351,2.463a1,1,0,0,0,.744.827,8.9,8.9,0,0,1,2.356.977,1,1,0,0,0,1.11-.061l1.991-1.492,1.6,1.6-1.492,1.991a1,1,0,0,0-.061,1.11,8.9,8.9,0,0,1,.977,2.356,1,1,0,0,0,.827.744L44,28.867v2.266l-2.463.351a1,1,0,0,0-.827.744,8.9,8.9,0,0,1-.977,2.356,1,1,0,0,0,.061,1.11l1.492,1.991-1.6,1.6-1.991-1.492a1,1,0,0,0-1.11-.061,8.9,8.9,0,0,1-2.356.977,1,1,0,0,0-.744.827L33.133,42H30.867l-.351-2.463a1,1,0,0,0-.744-.827,8.9,8.9,0,0,1-2.356-.977,1,1,0,0,0-1.11.061l-1.991,1.492-1.6-1.6,1.492-1.991a1,1,0,0,0,.061-1.11,8.9,8.9,0,0,1-.977-2.356,1,1,0,0,0-.827-.744L20,31.133V28.867l2.463-.351a1,1,0,0,0,.827-.744,8.9,8.9,0,0,1,.977-2.356A1,1,0,0,0,24.206,24.306Z"></path><path d="M32,36a6,6,0,1,0-6-6A6.006,6.006,0,0,0,32,36Zm0-10a4,4,0,1,1-4,4A4,4,0,0,1,32,26Z"></path><rect x="31" y="20" width="2" height="2"></rect><rect x="24.636" y="22.636" width="2" height="2" transform="translate(-9.204 25.05) rotate(-45)"></rect><rect x="22" y="29" width="2" height="2"></rect><rect x="24.636" y="35.364" width="2" height="2" transform="translate(-18.205 28.778) rotate(-45)"></rect><rect x="31" y="38" width="2" height="2"></rect><rect x="37.364" y="35.364" width="2" height="2" transform="translate(-14.477 37.778) rotate(-45)"></rect><rect x="40" y="29" width="2" height="2"></rect><rect x="37.364" y="22.636" width="2" height="2" transform="translate(-5.476 34.05) rotate(-45)"></rect><rect x="10" y="14" width="4" height="2"></rect><rect x="10" y="18" width="4" height="2"></rect><path d="M20.293,19.707l1.414-1.414-2-2A1,1,0,0,0,19,16H16v2h2.586Z"></path><path d="M43.707,40.293l-1.414,1.414,2,2A1,1,0,0,0,45,44h3V42H45.414Z"></path><rect x="50" y="44" width="4" height="2"></rect><rect x="50" y="40" width="4" height="2"></rect></g></svg>