<svg xmlns="http://www.w3.org/2000/svg" viewBox="0 0 64 64" x="0px" y="0px"><g data-name="Payment Method-Payment-Money-Smartphone-Application"><rect x="15" y="6" width="2" height="2"></rect><rect x="19" y="6" width="6" height="2"></rect><rect x="21" y="56" width="2" height="2"></rect><path d="M39,46h6a1,1,0,0,0,1-1V41a1,1,0,0,0-1-1H39a1,1,0,0,0-1,1v4A1,1,0,0,0,39,46Zm1-4h4v2H40Z"></path><path d="M53,50h2a3,3,0,0,0,0-6H53a3,3,0,0,0,0,6Zm0-4h2a1,1,0,0,1,0,2H53a1,1,0,0,1,0-2Z"></path><rect x="56" y="40" width="2" height="2"></rect><rect x="52" y="40" width="2" height="2"></rect><rect x="48" y="40" width="2" height="2"></rect><rect x="38" y="48" width="2" height="2"></rect><rect x="42" y="48" width="2" height="2"></rect><rect x="46" y="48" width="2" height="2"></rect><path d="M21,29h2a1,1,0,0,1,1,1h2a3,3,0,0,0-3-3V26H21v1a3,3,0,0,0,0,6h2a1,1,0,0,1,0,2H21a1,1,0,0,1-1-1H18a3,3,0,0,0,3,3v1h2V37a3,3,0,0,0,0-6H21a1,1,0,0,1,0-2Z"></path><path d="M59,28a3.009,3.009,0,0,0,3-3V13a3.009,3.009,0,0,0-3-3H42V8a6,6,0,0,0-6-6H8A6,6,0,0,0,2,8V56a6,6,0,0,0,6,6H36a6,6,0,0,0,6-6V54H59a3.009,3.009,0,0,0,3-3V39a3.009,3.009,0,0,0-3-3H42V28Zm1-3a1,1,0,0,1-1,1H57.14A4.017,4.017,0,0,1,60,23.14ZM59,12a1,1,0,0,1,1,1v1.86A4.017,4.017,0,0,1,57.14,12ZM4,8A4,4,0,0,1,8,4H36a4,4,0,0,1,4,4v2H4Zm34.86,4A4.017,4.017,0,0,1,36,14.86V13a1,1,0,0,1,1-1ZM23,41.95a10,10,0,0,0,0-19.9V21a1,1,0,0,1,1-1H34v5a3.009,3.009,0,0,0,3,3h3v8H37a3.009,3.009,0,0,0-3,3v5H24a1,1,0,0,1-1-1ZM22,40a8,8,0,1,1,8-8A8.011,8.011,0,0,1,22,40ZM37,26a1,1,0,0,1-1-1V23.14A4.017,4.017,0,0,1,38.86,26ZM4,12H34.18A3,3,0,0,0,34,13v5H24a3.009,3.009,0,0,0-3,3v1.05a10,10,0,0,0,0,19.9V43a3.009,3.009,0,0,0,3,3H34v5a3,3,0,0,0,.18,1H4ZM40,56a4,4,0,0,1-4,4H8a4,4,0,0,1-4-4V54H40ZM59,38a1,1,0,0,1,1,1V51a1,1,0,0,1-1,1H37a1,1,0,0,1-1-1V39a1,1,0,0,1,1-1ZM40.91,26A5.992,5.992,0,0,0,36,21.09V16.91A5.992,5.992,0,0,0,40.91,12H55.09A5.992,5.992,0,0,0,60,16.91v4.18A5.992,5.992,0,0,0,55.09,26Z"></path><path d="M48,23a4,4,0,1,0-4-4A4,4,0,0,0,48,23Zm0-6a2,2,0,1,1-2,2A2,2,0,0,1,48,17Z"></path></g></svg>