<svg xmlns="http://www.w3.org/2000/svg" viewBox="0 0 64 64" x="0px" y="0px"><g><path d="M57,2H7A5.006,5.006,0,0,0,2,7V43a5.006,5.006,0,0,0,5,5H23.9l-.8,8H21a3,3,0,0,0,0,6H43a3,3,0,0,0,0-6H40.905l-.8-8H57a5.006,5.006,0,0,0,5-5V7A5.006,5.006,0,0,0,57,2ZM7,4H57a3,3,0,0,1,3,3V38H4V7A3,3,0,0,1,7,4ZM44,59a1,1,0,0,1-1,1H21a1,1,0,0,1,0-2H43A1,1,0,0,1,44,59Zm-5.1-3H25.105l.8-8H38.1ZM57,46H7a3,3,0,0,1-3-3V40H60v3A3,3,0,0,1,57,46Z"></path><rect x="54" y="42" width="2" height="2"></rect><path d="M31,32A10.011,10.011,0,0,0,41,22a1,1,0,0,0-1-1H32V13a1,1,0,0,0-1-1,10,10,0,0,0,0,20ZM30,14.062V22a1,1,0,0,0,1,1h7.938A8,8,0,1,1,30,14.062Z"></path><path d="M34,20h9a1,1,0,0,0,1-1A10.011,10.011,0,0,0,34,9a1,1,0,0,0-1,1v9A1,1,0,0,0,34,20Zm1-8.938A8.019,8.019,0,0,1,41.938,18H35Z"></path><rect x="44" y="10" width="6" height="2"></rect><rect x="52" y="10" width="4" height="2"></rect><rect x="52" y="14" width="4" height="2"></rect><rect x="8" y="26" width="4" height="2"></rect><rect x="8" y="30" width="4" height="2"></rect><rect x="14" y="26" width="6" height="2"></rect><rect x="46" y="32" width="8" height="2"></rect><rect x="46" y="28" width="2" height="2"></rect><rect x="50" y="28" width="4" height="2"></rect></g></svg>