<svg xmlns="http://www.w3.org/2000/svg" viewBox="0 0 64 64" x="0px" y="0px"><g><rect x="14" y="54" width="8" height="2"></rect><rect x="16" y="58" width="8" height="2"></rect><rect x="32" y="20" width="2" height="8"></rect><rect x="24" y="22" width="2" height="6"></rect><rect x="4" y="54" width="8" height="2"></rect><path d="M4,35a5,5,0,1,0,5-5A5.006,5.006,0,0,0,4,35Zm3,0H5a4,4,0,0,1,4-4v2A2,2,0,0,0,7,35Zm4,0h2a4,4,0,0,1-4,4V37A2,2,0,0,0,11,35Z"></path><rect x="6" y="50" width="8" height="2"></rect><rect x="5" y="46" width="8" height="2"></rect><rect x="6" y="58" width="8" height="2"></rect><rect x="40" y="17" width="2" height="11"></rect><rect x="16" y="50" width="8" height="2"></rect><path d="M30.307,42.287A.977.977,0,0,0,30,43a1,1,0,0,0,1,1h3.808l-.353-2H31A.959.959,0,0,0,30.307,42.287Z"></path><path d="M37,60H53.216a3,3,0,0,0,3-2.834L56.933,46H33.067l.721,11.157a3,3,0,0,0,3,2.843ZM50,48h2V58H50Zm-6,0h2V58H44Zm-6,0h2V58H38Z"></path><path d="M59.693,43.713A.977.977,0,0,0,60,43a1,1,0,0,0-1-1H55.545l-.353,2H59A.959.959,0,0,0,59.693,43.713Z"></path><path d="M36.8,33.982a.966.966,0,0,0-.729-.159,1,1,0,0,0-.842.977,1.109,1.109,0,0,0,.017.19L36.839,44h2.029l-1.653-9.367A1,1,0,0,0,36.8,33.982Z"></path><path d="M53.938,33.825a.97.97,0,0,0-.739.157,1,1,0,0,0-.414.65L51.132,44h2.029l1.595-9.023a1.166,1.166,0,0,0,.014-.177A.994.994,0,0,0,53.938,33.825Z"></path><path d="M41.293,8.293a1,1,0,0,1,1.414,0L43,8.586V4H41V8.586Z"></path><polygon points="49.102 44 49.454 42 40.546 42 40.898 44 49.102 44"></polygon><path d="M26,57v3h6.794a4.97,4.97,0,0,1-1-2.723L31.062,46H31a3,3,0,0,1-3-3,3.015,3.015,0,0,1,3-3h3.1l-.826-4.676a3.1,3.1,0,0,1-.045-.524,2.993,2.993,0,0,1,2.487-2.946,2.992,2.992,0,0,1,3.469,2.434L40.193,40h9.614L50,38.905V5a1,1,0,0,0-1-1H45v7a1,1,0,0,1-.617.924A.987.987,0,0,1,44,12a1,1,0,0,1-.707-.293L42,10.414l-1.293,1.293A1,1,0,0,1,39,11V4H11a1,1,0,0,0-1,1V28.08a6.991,6.991,0,0,1,0,13.84V44h4a1,1,0,0,1,1,1v3H25a1,1,0,0,1,1,1v4a1,1,0,0,1-1,1H24v2h1A1,1,0,0,1,26,57ZM19,18H17V17a3,3,0,0,1-3-3h2a1,1,0,0,0,1,1h2a1,1,0,0,0,0-2H17a3,3,0,0,1,0-6V6h2V7a3,3,0,0,1,3,3H20a1,1,0,0,0-1-1H17a1,1,0,0,0,0,2h2a3,3,0,0,1,0,6Zm1,12V28h2V21a1,1,0,0,1,1-1h4a1,1,0,0,1,1,1v7h2V19a1,1,0,0,1,1-1h4a1,1,0,0,1,1,1v9h2V16a1,1,0,0,1,1-1h4a1,1,0,0,1,1,1V28h2v2Z"></path></g></svg>