<svg xmlns="http://www.w3.org/2000/svg" viewBox="0 0 64 64" x="0px" y="0px"><g data-name="Web Development"><path d="M61,47H59V14a5.006,5.006,0,0,0-5-5H10a5.006,5.006,0,0,0-5,5V47H3a1,1,0,0,0-1,1v4a3,3,0,0,0,3,3H59a3,3,0,0,0,3-3V48A1,1,0,0,0,61,47ZM7,19H29V17H7V14a3,3,0,0,1,3-3H54a3,3,0,0,1,3,3v3H51v2h6V47H7ZM28,49h8v1H28Zm32,3a1,1,0,0,1-1,1H5a1,1,0,0,1-1-1V49H26v1a2,2,0,0,0,2,2h8a2,2,0,0,0,2-2V49H60Z"></path><rect x="11" y="13" width="2" height="2"></rect><rect x="15" y="13" width="2" height="2"></rect><rect x="19" y="13" width="2" height="2"></rect><path d="M24,27a6,6,0,1,0,6,6A6.006,6.006,0,0,0,24,27Zm0,10a4,4,0,1,1,4-4A4,4,0,0,1,24,37Z"></path><path d="M35.2,30.02l-1.774-.355a9.7,9.7,0,0,0-.4-.971l1-1.5a1,1,0,0,0-.125-1.262L31.071,23.1a1,1,0,0,0-1.261-.125l-1.5,1a10.076,10.076,0,0,0-.97-.4L26.98,21.8A1,1,0,0,0,26,21H22a1,1,0,0,0-.98.8l-.356,1.774a10.076,10.076,0,0,0-.97.4l-1.5-1a1,1,0,0,0-1.261.125L14.1,25.929a1,1,0,0,0-.125,1.262l1,1.5a9.7,9.7,0,0,0-.4.971L12.8,30.02A1,1,0,0,0,12,31v4a1,1,0,0,0,.8.98l1.774.355a9.7,9.7,0,0,0,.4.971l-1,1.5a1,1,0,0,0,.125,1.262L16.929,42.9a1,1,0,0,0,1.261.125l1.5-1a10.076,10.076,0,0,0,.97.4L21.02,44.2A1,1,0,0,0,22,45h4a1,1,0,0,0,.98-.8l.356-1.774a10.076,10.076,0,0,0,.97-.4l1.5,1a1,1,0,0,0,1.261-.125L33.9,40.071a1,1,0,0,0,.125-1.262l-1-1.5a9.7,9.7,0,0,0,.4-.971L35.2,35.98A1,1,0,0,0,36,35V31A1,1,0,0,0,35.2,30.02ZM34,34.18l-1.548.31a1,1,0,0,0-.765.706,7.951,7.951,0,0,1-.7,1.69,1,1,0,0,0,.042,1.04l.873,1.31-1.669,1.67-1.31-.874a1,1,0,0,0-1.042-.041,7.946,7.946,0,0,1-1.688.7,1,1,0,0,0-.706.765L25.181,43H22.819l-.309-1.548a1,1,0,0,0-.706-.765,7.946,7.946,0,0,1-1.688-.7,1,1,0,0,0-1.042.041l-1.31.874L16.1,39.236l.873-1.31a1,1,0,0,0,.042-1.04,7.951,7.951,0,0,1-.7-1.69,1,1,0,0,0-.765-.706L14,34.18V31.82l1.548-.31a1,1,0,0,0,.765-.706,7.951,7.951,0,0,1,.7-1.69,1,1,0,0,0-.042-1.04l-.873-1.31,1.669-1.67,1.31.874a1,1,0,0,0,1.042.041,7.946,7.946,0,0,1,1.688-.7,1,1,0,0,0,.706-.765L22.819,23h2.362l.309,1.548a1,1,0,0,0,.706.765,7.946,7.946,0,0,1,1.688.7,1,1,0,0,0,1.042-.041l1.31-.874,1.669,1.67-.873,1.31a1,1,0,0,0-.042,1.04,7.951,7.951,0,0,1,.7,1.69,1,1,0,0,0,.765.706L34,31.82Z"></path><path d="M40,23a4,4,0,1,1-1.6,7.667L37.6,32.5a6,6,0,1,0-3.1-7.9l1.832.8A4,4,0,0,1,40,23Z"></path><path d="M51.2,24.02l-1.774-.355a9.7,9.7,0,0,0-.4-.971l1-1.5a1,1,0,0,0-.125-1.262L47.071,17.1a1,1,0,0,0-1.261-.125l-1.5,1a10.076,10.076,0,0,0-.97-.4L42.98,15.8A1,1,0,0,0,42,15H38a1,1,0,0,0-.98.8l-.356,1.774a10.076,10.076,0,0,0-.97.4l-1.5-1a1,1,0,0,0-1.261.125L30.1,19.929l1.414,1.414,2.249-2.249,1.31.874a1,1,0,0,0,1.042.041,7.946,7.946,0,0,1,1.688-.7,1,1,0,0,0,.706-.765L38.819,17h2.362l.309,1.548a1,1,0,0,0,.706.765,7.946,7.946,0,0,1,1.688.7,1,1,0,0,0,1.042-.041l1.31-.874,1.669,1.67-.873,1.31a1,1,0,0,0-.042,1.04,7.951,7.951,0,0,1,.7,1.69,1,1,0,0,0,.765.706L50,25.82v2.36l-1.548.31a1,1,0,0,0-.765.706,7.951,7.951,0,0,1-.7,1.69,1,1,0,0,0,.042,1.04l.873,1.31-1.669,1.67-1.31-.874a1,1,0,0,0-1.042-.041,7.946,7.946,0,0,1-1.688.7,1,1,0,0,0-.706.765L41.181,37H38.819l-.309-1.548-1.961.393L37.02,38.2A1,1,0,0,0,38,39h4a1,1,0,0,0,.98-.8l.356-1.774a10.076,10.076,0,0,0,.97-.4l1.5,1a1,1,0,0,0,1.261-.125L49.9,34.071a1,1,0,0,0,.125-1.262l-1-1.5a9.7,9.7,0,0,0,.4-.971L51.2,29.98A1,1,0,0,0,52,29V25A1,1,0,0,0,51.2,24.02Z"></path></g></svg>