<svg xmlns="http://www.w3.org/2000/svg" viewBox="0 0 64 64" x="0px" y="0px"><g data-name="Online Course"><polygon points="21.786 22 32 25.929 42.214 22 32 18.071 21.786 22"></polygon><path d="M49,12H15V52H49ZM21,43a3,3,0,1,1,3-3A3,3,0,0,1,21,43Zm8,5H27V46h2Zm1-8a1,1,0,0,1-1,1H26V39h2V36h2Zm3,8H31V46h2Zm4,0H35V46h2Zm1-5H35a1,1,0,0,1-1-1V36h2v5h2Zm6,0H40V41h4Zm0-3H40V38h4Zm1.359-17.066L40,25v6a1,1,0,0,1-.553.895C39.275,31.98,35.2,34,32,34s-7.275-2.02-7.447-2.105A1,1,0,0,1,24,31V25l-4-1.539v3.13l2.707,2.707-1.414,1.414L20,29.414V31H18V29.414l-1.293,1.293-1.414-1.414L18,26.586V22a1,1,0,0,1,.641-.934l13-5a1.02,1.02,0,0,1,.718,0l13,5a1,1,0,0,1,0,1.868Z"></path><path d="M32,28a1,1,0,0,1-.359-.066L26,25.764v4.6A17.178,17.178,0,0,0,32,32a17.14,17.14,0,0,0,6-1.637v-4.6l-5.641,2.17A1,1,0,0,1,32,28Z"></path><path d="M49,54H15v3a3,3,0,0,0,3,3H46a3,3,0,0,0,3-3ZM35,58H29V56h6Z"></path><path d="M49,7a3,3,0,0,0-3-3H18a3,3,0,0,0-3,3v3H49ZM21,8H19V6h2Zm8,0H23V6h6Z"></path><circle cx="21" cy="40" r="1"></circle></g></svg>