<svg xmlns="http://www.w3.org/2000/svg" viewBox="0 0 64 64" x="0px" y="0px"><g><path d="M61.9,56.553,56,44.764V17a3,3,0,0,0-3-3H47.9A5,5,0,0,0,43,8H42V7.816A2.993,2.993,0,0,0,41,2H23a2.993,2.993,0,0,0-1,5.816V8H21a5,5,0,0,0-4.9,6H11a3,3,0,0,0-3,3V44.764L2.105,56.553A1,1,0,0,0,2,57v3a2,2,0,0,0,2,2H60a2,2,0,0,0,2-2V57A1,1,0,0,0,61.9,56.553ZM40.618,56,38.9,52.553A1,1,0,0,0,38,52H26a1,1,0,0,0-.895.553L23.382,56H4.618l5-10H54.382l5,10Zm-2.236,0H25.618l1-2H37.382ZM43,10a3,3,0,0,1,0,6H42V10ZM37,34v4H27V34Zm-6-2V24h2v8ZM29,22a5.006,5.006,0,0,1-5-5V8H40v9a5.006,5.006,0,0,1-5,5ZM23,4H41a1,1,0,0,1,0,2H23a1,1,0,0,1,0-2Zm-2,6h1v6H21a3,3,0,0,1,0-6ZM10,17a1,1,0,0,1,1-1h6.026A4.977,4.977,0,0,0,21,18h1.08A7.006,7.006,0,0,0,29,24v8H26a1,1,0,0,0-1,1v6a1,1,0,0,0,1,1H38a1,1,0,0,0,1-1V33a1,1,0,0,0-1-1H35V24a7.006,7.006,0,0,0,6.92-6H43a4.977,4.977,0,0,0,3.974-2H53a1,1,0,0,1,1,1V44H10ZM4,60V58H60v2Z"></path><rect x="10" y="52" width="2" height="2"></rect><rect x="14" y="52" width="2" height="2"></rect><rect x="48" y="52" width="2" height="2"></rect><rect x="52" y="52" width="2" height="2"></rect><rect x="15" y="48" width="2" height="2"></rect><rect x="11" y="48" width="2" height="2"></rect><rect x="19" y="48" width="2" height="2"></rect><rect x="23" y="48" width="2" height="2"></rect><rect x="27" y="48" width="2" height="2"></rect><rect x="31" y="48" width="2" height="2"></rect><rect x="35" y="48" width="2" height="2"></rect><rect x="39" y="48" width="2" height="2"></rect><rect x="43" y="48" width="2" height="2"></rect><rect x="47" y="48" width="2" height="2"></rect><rect x="51" y="48" width="2" height="2"></rect><rect x="18" y="52" width="4" height="2"></rect><rect x="42" y="52" width="4" height="2"></rect><path d="M52.155,26H48.18l-1.229-3.78a1,1,0,0,0-1.9,0L43.82,26H39.845a1,1,0,0,0-.588,1.809l3.216,2.337-1.228,3.782a1,1,0,0,0,1.539,1.117L46,32.708l3.216,2.337a1,1,0,0,0,1.539-1.117l-1.228-3.782,3.216-2.337A1,1,0,0,0,52.155,26ZM47.4,30.072l.5,1.546-1.314-.955a1,1,0,0,0-1.176,0l-1.314.955.5-1.546a1,1,0,0,0-.363-1.117L42.923,28h1.624a1,1,0,0,0,.951-.691l.5-1.545.5,1.545a1,1,0,0,0,.951.691h1.624l-1.314.955A1,1,0,0,0,47.4,30.072Z"></path><path d="M25.106,26.691A1,1,0,0,0,24.155,26H20.18l-1.229-3.78a1,1,0,0,0-1.9,0L15.82,26H11.845a1,1,0,0,0-.588,1.809l3.216,2.337-1.228,3.782a1,1,0,0,0,1.539,1.117L18,32.708l3.216,2.337a1,1,0,0,0,1.539-1.117l-1.228-3.782,3.216-2.337A1,1,0,0,0,25.106,26.691ZM19.4,30.072l.5,1.546-1.314-.955a1,1,0,0,0-1.176,0l-1.314.955.5-1.546a1,1,0,0,0-.363-1.117L14.923,28h1.624a1,1,0,0,0,.951-.691l.5-1.545.5,1.545a1,1,0,0,0,.951.691h1.624l-1.314.955A1,1,0,0,0,19.4,30.072Z"></path></g></svg>