<svg xmlns="http://www.w3.org/2000/svg" viewBox="0 0 64 64" x="0px" y="0px"><g data-name="Point Of Sale"><path d="M16,50.184V41a1,1,0,0,0-1.624-.781L12.5,41.72l-1.878-1.5a1,1,0,0,0-1.249,0L7.5,41.719l-1.872-1.5A1,1,0,0,0,4,41v9.184A3,3,0,0,0,2,53v8a1,1,0,0,0,1,1H17a1,1,0,0,0,1-1V53A3,3,0,0,0,16,50.184Zm-9.128-6.4a1,1,0,0,0,1.25,0L10,42.281l1.878,1.5a1,1,0,0,0,1.248,0l.878-.7V50H6V43.082ZM16,60H4V53a1,1,0,0,1,1-1H15a1,1,0,0,1,1,1Z"></path><rect x="6" y="55" width="8" height="2"></rect><path d="M61,40a1,1,0,0,0,1-1V13a1,1,0,0,0-1-1H21a1,1,0,0,0-1,1V39a1,1,0,0,0,1,1H35v4H33a1,1,0,0,0-1,1v3H21a1,1,0,0,0-1,1V61a1,1,0,0,0,1,1H61a1,1,0,0,0,1-1V49a1,1,0,0,0-1-1H50V45a1,1,0,0,0-1-1H47V40ZM40,28h4v4H40Zm-2,4H34V28h4Zm6-6H40V22h4Zm-6,0H34V22h4Zm-6,0H28V22h4Zm-6,0H22V22h4Zm0,2v4H22V28Zm2,0h4v4H28Zm4,6v4H28V34Zm2,0h4v4H34Zm6,0h4v4H40Zm20,4H46V14H60ZM44,14v6H22V14ZM22,34h4v4H22ZM56,50v6H47V53a1,1,0,0,0-1-1H36a1,1,0,0,0-1,1v3H26V50ZM45,56H37V54h8Zm15,4H22V50h2v7a1,1,0,0,0,1,1H57a1,1,0,0,0,1-1V50h2ZM48,48H34V46H48Zm-3-4H37V40h8Z"></path><rect x="48" y="20" width="6" height="2"></rect><rect x="56" y="20" width="2" height="2"></rect><rect x="48" y="24" width="6" height="2"></rect><rect x="56" y="24" width="2" height="2"></rect><rect x="48" y="28" width="6" height="2"></rect><rect x="56" y="28" width="2" height="2"></rect><rect x="48" y="32" width="6" height="2"></rect><rect x="56" y="32" width="2" height="2"></rect><rect x="40" y="16" width="2" height="2"></rect><rect x="36" y="16" width="2" height="2"></rect><rect x="32" y="16" width="2" height="2"></rect><rect x="8" y="46" width="4" height="2"></rect></g></svg>