<svg xmlns="http://www.w3.org/2000/svg" viewBox="0 0 64 64" x="0px" y="0px"><g><path d="M59,33V28H5v5a3,3,0,0,0,6,0h2a3,3,0,0,0,6,0h2a3,3,0,0,0,6,0h2a3,3,0,0,0,6,0h2a3,3,0,0,0,6,0h2a3,3,0,0,0,6,0h2a3,3,0,0,0,6,0Z"></path><rect x="22" y="18" width="20" height="2"></rect><path d="M55,37.9a4.994,4.994,0,0,1-3-1.93,4.954,4.954,0,0,1-8,0,4.954,4.954,0,0,1-8,0A4.982,4.982,0,0,1,32,38,10,10,0,1,1,22,48,10.011,10.011,0,0,1,32,38a4.982,4.982,0,0,1-4-2.031,4.954,4.954,0,0,1-8,0,4.954,4.954,0,0,1-8,0A4.994,4.994,0,0,1,9,37.9V59a1,1,0,0,0,1,1H54a1,1,0,0,0,1-1Z"></path><path d="M32,56a8,8,0,1,0-8-8A8.009,8.009,0,0,0,32,56Zm1-7H31a3,3,0,0,1,0-6V42h2v1a3,3,0,0,1,3,3H34a1,1,0,0,0-1-1H31a1,1,0,0,0,0,2h2a3,3,0,0,1,0,6v1H31V53a3,3,0,0,1-3-3h2a1,1,0,0,0,1,1h2a1,1,0,0,0,0-2Z"></path><path d="M43.565,10.608l-6.214,2.329A1.02,1.02,0,0,1,37,13a1,1,0,0,1-.769-.36L32.339,7.966a1.7,1.7,0,0,1-.676,0L27.8,12.638a1,1,0,0,1-.77.362,1.015,1.015,0,0,1-.35-.063l-6.246-2.331L21.781,16H42.219Z"></path><path d="M58.08,26H5.92l5.6-8H20v3a1,1,0,0,0,1,1H43a1,1,0,0,0,1-1V18h8.48Z"></path><circle cx="46" cy="8" r="1"></circle><circle cx="18" cy="8" r="1"></circle><circle cx="32" cy="5" r="1"></circle></g></svg>