<svg xmlns="http://www.w3.org/2000/svg" viewBox="0 0 64 64" x="0px" y="0px"><title>Gift</title><g><path d="M21,21V34a1,1,0,0,0,1,1H42a1,1,0,0,0,1-1V21a1,1,0,0,0,1-1V16a1,1,0,0,0-1-1H33.171A3.006,3.006,0,0,1,36,13h2V11H36a4.982,4.982,0,0,0-4,2.031A4.982,4.982,0,0,0,28,11H26v2h2a3.006,3.006,0,0,1,2.829,2H21a1,1,0,0,0-1,1v4A1,1,0,0,0,21,21Zm2,0h5V33H23Zm7,12V21h4V33Zm11,0H36V21h5ZM22,17H42v2H22Z"></path><path d="M59,2H5A3,3,0,0,0,2,5V45a3,3,0,0,0,3,3H22.9l-.8,8H19a1,1,0,0,0-1,1v3H16v2H48V60H46V57a1,1,0,0,0-1-1H41.905l-.8-8H59a3,3,0,0,0,3-3V5A3,3,0,0,0,59,2ZM44,58v2H20V58ZM24.105,56l.8-8H39.1l.8,8ZM60,45a1,1,0,0,1-1,1H5a1,1,0,0,1-1-1V5A1,1,0,0,1,5,4H59a1,1,0,0,1,1,1Z"></path><path d="M56,6H8A2,2,0,0,0,6,8V39a1,1,0,0,0,1,1H57a1,1,0,0,0,1-1V8A2,2,0,0,0,56,6Zm0,32H8V8H56Z"></path><rect x="31" y="42" width="2" height="2"></rect></g></svg>