<svg xmlns="http://www.w3.org/2000/svg" viewBox="0 0 64 64" x="0px" y="0px"><g data-name="skyscraper-building-tower-city-real estate"><path d="M41,60V57a1,1,0,0,0-1-1H39V13a1,1,0,0,0-1-1H37V9a1,1,0,0,0-1-1H35V2H33V8H31V4H29V8H28a1,1,0,0,0-1,1v3H26a1,1,0,0,0-1,1V56H24a1,1,0,0,0-1,1v3H19v2H45V60ZM29,10h6v2H29Zm-2,4H37V24H27Zm0,12H37v2H27Zm0,4H37V40H27Zm0,12H37v2H27Zm0,4H37V56H27ZM39,60H25V58H39Z"></path><rect x="29" y="16" width="2" height="6"></rect><rect x="33" y="16" width="2" height="6"></rect><rect x="29" y="32" width="2" height="6"></rect><rect x="33" y="32" width="2" height="6"></rect><rect x="29" y="48" width="2" height="6"></rect><rect x="33" y="48" width="2" height="6"></rect></g></svg>