<svg xmlns="http://www.w3.org/2000/svg" viewBox="0 0 64 64" x="0px" y="0px"><g data-name="Phone Call"><polygon points="47.9 33.244 48.606 32.536 44.364 28.293 43.657 29 47.899 33.243 47.9 33.244"></polygon><polygon points="38.001 23.344 38.707 22.637 34.465 18.393 33.757 19.101 38 23.343 38.001 23.344"></polygon><path d="M20,6H32a1,1,0,0,0,1-1V4H19V5A1,1,0,0,0,20,6Z"></path><path d="M52.124,34a14,14,0,1,0-24.5-.489,1,1,0,0,1,.025.878l-1.855,4.085L29.9,37.351a1.035,1.035,0,0,1,.264-.035,1,1,0,0,1,.655.245A14.13,14.13,0,0,0,33,39.124,14,14,0,0,0,52.124,34ZM38,34.657,32.343,29a6.007,6.007,0,0,1,0-8.485,2,2,0,0,1,0-2.828l1.416-1.415a1,1,0,0,1,1.414,0l5.656,5.657a1,1,0,0,1,0,1.414l-1.414,1.414a2,2,0,0,1-2.828,0,1,1,0,0,0,0,1.415l4.242,4.242a1,1,0,0,0,1.415,0,2,2,0,0,1,0-2.828l1.414-1.414a1.029,1.029,0,0,1,1.414,0l5.657,5.657a1,1,0,0,1,0,1.414l-1.415,1.414a2,2,0,0,1-2.828,0,6.008,6.008,0,0,1-8.485,0Z"></path><path d="M41.535,32.706a2.992,2.992,0,0,1-2.121-.878l-4.242-4.242a3,3,0,0,1,0-4.243l-1.415-1.414h0a4,4,0,0,0,0,5.657l5.657,5.657a4.006,4.006,0,0,0,5.657,0h0l-1.414-1.415A2.991,2.991,0,0,1,41.535,32.706Z"></path><path d="M43,42.714a15.925,15.925,0,0,1-13.081-3.3l-5.655,1.547a1,1,0,0,1-1.174-1.379L25.627,34A15.974,15.974,0,0,1,43,11.294V7a3,3,0,0,0-3-3H35V5a3,3,0,0,1-3,3H20a3,3,0,0,1-3-3V4H12A3,3,0,0,0,9,7V57a3,3,0,0,0,3,3H40a3,3,0,0,0,3-3ZM13,16H23v2H13Zm0,4H23v2H13Zm0,4h8v2H13Zm0,4h8v2H13Zm0,4h8v2H13Zm0,4h8v2H13Zm0,8H35v2H13ZM39,54H13V52H39Zm0-4H13V48H39Z"></path></g></svg>