<svg xmlns="http://www.w3.org/2000/svg" viewBox="0 0 64 64" x="0px" y="0px"><g><path d="M57,55V28H51V55H49V24a1,1,0,0,1,1-1h7V19H33V55H31V19H7v4h7a1,1,0,0,1,1,1V55H13V28H7V55H2v2H62V55ZM39.051,41.684l2-6a.993.993,0,0,1,.158-.292,3,3,0,1,1,3.582,0,.993.993,0,0,1,.158.292l2,6A1,1,0,0,1,46,43H40a1,1,0,0,1-.949-1.316ZM17,39a3.991,3.991,0,0,1,2.246-3.577,3,3,0,1,1,3.508,0A3.991,3.991,0,0,1,25,39v3a1,1,0,0,1-1,1H18a1,1,0,0,1-1-1Z"></path><polygon points="43.279 37 42.721 37 41.387 41 44.613 41 43.279 37"></polygon><rect x="51" y="25" width="6" height="1"></rect><circle cx="43" cy="33" r="1"></circle><rect x="7" y="9" width="50" height="2"></rect><rect x="4" y="13" width="56" height="4"></rect><path d="M23,39a2,2,0,0,0-4,0v2h4Z"></path><rect x="7" y="25" width="6" height="1"></rect><circle cx="21" cy="33" r="1"></circle></g></svg>