<svg xmlns="http://www.w3.org/2000/svg" viewBox="0 0 64 64" x="0px" y="0px"><g data-name="Artificial Intelligence"><path d="M55,8H51v2h4a3,3,0,0,1,3,3V42H48v2H58v3a3,3,0,0,1-3,3H9a3,3,0,0,1-3-3V44H16V42H6V13a3,3,0,0,1,3-3h4V8H9a5.006,5.006,0,0,0-5,5V47a5.006,5.006,0,0,0,5,5H23.82l-.667,4H22a1,1,0,0,0-1,1v3H17v2H47V60H43V57a1,1,0,0,0-1-1H40.847l-.667-4H55a5.006,5.006,0,0,0,5-5V13A5.006,5.006,0,0,0,55,8ZM41,60H23V58H41Zm-2.18-4H25.18l.667-4H38.153Z"></path><rect x="39" y="42" width="3" height="2"></rect><rect x="22" y="42" width="3" height="2"></rect><rect x="54" y="46" width="2" height="2"></rect><path d="M18,25a4,4,0,0,0,3.113,3.893,3.965,3.965,0,0,0,1.935,2.584A3.99,3.99,0,0,0,31,31V18a3.994,3.994,0,0,0-7.889-.892,3.84,3.84,0,0,0-3.058,4.418A3.985,3.985,0,0,0,18,25Zm2.818-1.6A3.984,3.984,0,0,0,24,25V23a2,2,0,1,1,2-2h2a3.991,3.991,0,0,0-2.825-3.8A2,2,0,0,1,29,18V31a2,2,0,1,1-3.415-1.414l-1.413-1.415a3.977,3.977,0,0,0-.737,1.051,1.96,1.96,0,0,1,.076-2.551l-1.482-1.342a3.957,3.957,0,0,0-.837,1.5,1.988,1.988,0,0,1-.374-3.429Z"></path><path d="M37,35a3.992,3.992,0,0,0,3.952-3.523,3.965,3.965,0,0,0,1.935-2.584,3.98,3.98,0,0,0,1.06-7.367,3.84,3.84,0,0,0-3.058-4.418A3.994,3.994,0,0,0,33,18V31A4,4,0,0,0,37,35ZM35,18a2,2,0,0,1,3.825-.8A3.991,3.991,0,0,0,36,21h2a2,2,0,1,1,2,2v2a3.983,3.983,0,0,0,3.182-1.6,1.988,1.988,0,0,1-.374,3.429,3.968,3.968,0,0,0-.836-1.5l-1.483,1.342a1.958,1.958,0,0,1,.076,2.55,3.988,3.988,0,0,0-.737-1.05l-1.414,1.415A2,2,0,1,1,35,31Z"></path><path d="M17.086,15.872a16.868,16.868,0,0,0-1.379,3.33l-4.872.812A1,1,0,0,0,10,21v6a1,1,0,0,0,.835.986l4.872.812a16.868,16.868,0,0,0,1.379,3.33l-2.87,4.019a1,1,0,0,0,.106,1.288l4.243,4.243a1,1,0,0,0,1.288.106l4.019-2.87a16.868,16.868,0,0,0,3.33,1.379l.812,4.872A1,1,0,0,0,29,46h6a1,1,0,0,0,.986-.835l.812-4.872a16.893,16.893,0,0,0,3.33-1.379l4.018,2.87a1,1,0,0,0,1.289-.106l4.243-4.243a1,1,0,0,0,.106-1.288l-2.87-4.019a16.9,16.9,0,0,0,1.379-3.33l4.871-.812A1,1,0,0,0,54,27V21a1,1,0,0,0-.836-.986L48.293,19.2a16.9,16.9,0,0,0-1.379-3.33l2.87-4.019a1,1,0,0,0-.106-1.288L45.435,6.322a1,1,0,0,0-1.289-.106l-4.018,2.87A16.868,16.868,0,0,0,36.8,7.707l-.812-4.872A1,1,0,0,0,35,2H29a1,1,0,0,0-.986.835L27.2,7.707a16.868,16.868,0,0,0-3.33,1.379l-4.019-2.87a1,1,0,0,0-1.288.106l-4.243,4.243a1,1,0,0,0-.106,1.288ZM19.38,8.335l3.851,2.751a1,1,0,0,0,1.094.044,14.911,14.911,0,0,1,4-1.657,1,1,0,0,0,.741-.806L29.847,4h4.306l.778,4.667a1,1,0,0,0,.742.806,14.885,14.885,0,0,1,4,1.657,1,1,0,0,0,1.095-.044l3.85-2.751,3.045,3.045-2.75,3.851a1,1,0,0,0-.045,1.094,14.873,14.873,0,0,1,1.658,4,1,1,0,0,0,.806.741L52,21.847v4.306l-4.667.778a1,1,0,0,0-.806.741,14.873,14.873,0,0,1-1.658,4,1,1,0,0,0,.045,1.094l2.75,3.851-3.045,3.045L40.77,36.914a1,1,0,0,0-1.1-.045,14.888,14.888,0,0,1-4,1.658,1,1,0,0,0-.742.806L34.153,44H29.847l-.778-4.667a1,1,0,0,0-.741-.806,14.911,14.911,0,0,1-4-1.657,1,1,0,0,0-1.094.044L19.38,39.665,16.335,36.62l2.751-3.851a1,1,0,0,0,.044-1.094,14.911,14.911,0,0,1-1.657-4,1,1,0,0,0-.806-.741L12,26.153V21.847l4.667-.778a1,1,0,0,0,.806-.741,14.911,14.911,0,0,1,1.657-4,1,1,0,0,0-.044-1.094L16.335,11.38Z"></path></g></svg>