<svg xmlns="http://www.w3.org/2000/svg" viewBox="0 0 64 64" x="0px" y="0px"><g data-name="Joystick"><circle cx="32" cy="34" r="2"></circle><path d="M40,60a1,1,0,0,0,1-1V5a1,1,0,0,0-1-1H24a1,1,0,0,0-1,1V59a1,1,0,0,0,1,1h5V55h2v5h2V55h2v5ZM37,48H35V46h2ZM25,17V13a1,1,0,0,1,1-1h3V9a1,1,0,0,1,1-1h4a1,1,0,0,1,1,1v3h3a1,1,0,0,1,1,1v4a1,1,0,0,1-1,1H35v3a1,1,0,0,1-1,1H30a1,1,0,0,1-1-1V18H26A1,1,0,0,1,25,17Zm4,31H27V46h2Zm4,0H31V46h2ZM32,38a4,4,0,1,1,4-4A4,4,0,0,1,32,38Z"></path><path d="M31,17v3h2V17a1,1,0,0,1,1-1h3V14H34a1,1,0,0,1-1-1V10H31v3a1,1,0,0,1-1,1H27v2h3A1,1,0,0,1,31,17Z"></path><path d="M46.707,31.293a1,1,0,0,1,0,1.414l1.414,1.415a3,3,0,0,0,0-4.244Z"></path><path d="M50.949,27.05l-1.414,1.414a5,5,0,0,1,0,7.072l1.414,1.414a7,7,0,0,0,0-9.9Z"></path><path d="M53.778,24.222l-1.414,1.414a9.01,9.01,0,0,1,0,12.728l1.414,1.414A11.012,11.012,0,0,0,53.778,24.222Z"></path><path d="M15.879,29.878a3,3,0,0,0,0,4.244l1.414-1.415a1,1,0,0,1,0-1.414Z"></path><path d="M13.051,27.05a7,7,0,0,0,0,9.9l1.414-1.414a5,5,0,0,1,0-7.072Z"></path><path d="M11.636,25.636l-1.414-1.414a11.012,11.012,0,0,0,0,15.556l1.414-1.414A9.01,9.01,0,0,1,11.636,25.636Z"></path></g></svg>