<svg xmlns="http://www.w3.org/2000/svg" viewBox="0 0 64 64" x="0px" y="0px"><g data-name="Business Man"><path d="M48.305,41.683,39,39.229V36.106A14.029,14.029,0,0,0,45.668,27H46a3.995,3.995,0,0,0,.123-7.988L47.73,5.351A3,3,0,0,0,44.751,2h-25.5A3,3,0,0,0,16.27,5.351l1.607,13.661A3.995,3.995,0,0,0,18,27h.332A14.029,14.029,0,0,0,25,36.106v3.123l-9.3,2.454A12.988,12.988,0,0,0,6,54.25V61a1,1,0,0,0,1,1H57a1,1,0,0,0,1-1V54.25A12.988,12.988,0,0,0,48.305,41.683Zm-10.847.273,1.168,4.669-4.67-1.167ZM48,23a2,2,0,0,1-2,2V21A2,2,0,0,1,48,23ZM18.5,4.335A.988.988,0,0,1,19.249,4h25.5a1,1,0,0,1,.993,1.117l-1.071,9.1-.3-1.041A3.013,3.013,0,0,0,41.491,11H22.509a3.013,3.013,0,0,0-2.885,2.176l-.3,1.041-1.07-9.1A.991.991,0,0,1,18.5,4.335ZM18,25a2,2,0,0,1,0-4v4Zm2-1V20a.9.9,0,0,0-.023-.115l.016,0-.073-.62.042.012,1.586-5.55A1,1,0,0,1,22.509,13H41.491a1,1,0,0,1,.961.726l1.586,5.549.042-.012-.073.62.016,0A.9.9,0,0,0,44,20v4a12,12,0,0,1-24,0ZM32,38a13.894,13.894,0,0,0,5-.939v2.525l-5,5-5-5V37.061A13.894,13.894,0,0,0,32,38Zm-5.458,3.956,3.5,3.5-4.67,1.167ZM8,54.25a10.99,10.99,0,0,1,8.2-10.633L24.62,41.4l-1.59,6.359a1,1,0,0,0,1.212,1.213L31,47.281V60H19V53H17v7H8ZM56,60H47V53H45v7H33V47.281l6.758,1.689a1,1,0,0,0,1.212-1.213L39.38,41.4,47.8,43.617A10.99,10.99,0,0,1,56,54.25Z"></path><path d="M32,27a3,3,0,0,0,3-3V20H33v4a1,1,0,0,1-2,0V20H29v4A3,3,0,0,0,32,27Z"></path><path d="M37.439,20.83a.782.782,0,0,0,.181.09.636.636,0,0,0,.18.06A1.487,1.487,0,0,0,38,21a.99.99,0,0,0,1-1,1,1,0,0,0-.08-.38.933.933,0,0,0-.21-.33,1.01,1.01,0,0,0-.91-.27.636.636,0,0,0-.18.06.782.782,0,0,0-.181.09,1.7,1.7,0,0,0-.149.12.933.933,0,0,0-.21.33A1,1,0,0,0,37,20a1.028,1.028,0,0,0,.29.71Z"></path><path d="M26.83,20.56a.8.8,0,0,0,.09-.18.6.6,0,0,0,.059-.18A1.362,1.362,0,0,0,27,20a1,1,0,0,0-.08-.38,1.155,1.155,0,0,0-.21-.33,1.047,1.047,0,0,0-1.42,0,1.155,1.155,0,0,0-.21.33A1,1,0,0,0,25,20a1.5,1.5,0,0,0,.02.2.636.636,0,0,0,.06.18.757.757,0,0,0,.09.18,1.576,1.576,0,0,0,.12.15,1.014,1.014,0,0,0,1.42,0Z"></path><path d="M37.953,29.655l-1.512-1.31A5.982,5.982,0,0,1,32,30a5.982,5.982,0,0,1-4.441-1.655l-1.512,1.31A7.89,7.89,0,0,0,32,32,7.89,7.89,0,0,0,37.953,29.655Z"></path></g></svg>