<svg xmlns="http://www.w3.org/2000/svg" viewBox="0 0 64 64" x="0px" y="0px"><title>Bath_1</title><g data-name="Bath"><rect x="38" y="14" width="2" height="2"></rect><rect x="42" y="14" width="2" height="2"></rect><rect x="46" y="14" width="2" height="2"></rect><rect x="38" y="18" width="2" height="2"></rect><rect x="42" y="18" width="2" height="2"></rect><rect x="46" y="18" width="2" height="2"></rect><path d="M62,33a3,3,0,0,0-3-3H58V7a1,1,0,0,0-1-1H43a1,1,0,0,0-1,1v3H38v2H48V10H44V8H56V30H5a2.993,2.993,0,0,0-1,5.816V44a9.01,9.01,0,0,0,7,8.768V58a1,1,0,0,0,1,1h4a1,1,0,0,0,1-1V53H47v5a1,1,0,0,0,1,1h4a1,1,0,0,0,1-1V52.768A9.01,9.01,0,0,0,60,44V35.816A3,3,0,0,0,62,33ZM11,41H23v2H11Zm12-2H11V32H23ZM5,32H9v2H5a1,1,0,0,1,0-2ZM15,57H13V53h2Zm36,0H49V53h2Zm7-13a7.009,7.009,0,0,1-7,7H13a7.009,7.009,0,0,1-7-7V36H9v8a1,1,0,0,0,1,1H24a1,1,0,0,0,1-1V36H58Zm1-10H25V32H59a1,1,0,0,1,0,2Z"></path></g></svg>