<svg xmlns="http://www.w3.org/2000/svg" viewBox="0 0 64 64" x="0px" y="0px"><g data-name="Dressing Table-Dresser-Mirror-Table-Furniture"><circle cx="32" cy="41" r="1"></circle><polygon points="17.18 60 18.78 52 15 52 15 60 17.18 60"></polygon><polygon points="49 60 49 52 45.22 52 46.82 60 49 60"></polygon><path d="M51,49V36H49V47a1,1,0,0,1-1,1H16a1,1,0,0,1-1-1V36H13V49a1,1,0,0,0,1,1H50A1,1,0,0,0,51,49Z"></path><path d="M17,36V46H47V36Zm15,8a3,3,0,1,1,3-3A3,3,0,0,1,32,44Z"></path><path d="M32,8A16.021,16.021,0,0,0,16,24a15.7,15.7,0,0,0,1.19,6H46.81A15.7,15.7,0,0,0,48,24,16.021,16.021,0,0,0,32,8ZM24.293,24.293l10-10,1.414,1.414-10,10Zm7.414,1.414-1.414-1.414,10-10,1.414,1.414Z"></path><rect x="10" y="32" width="44" height="2"></rect><path d="M12.94,30h2.1a18,18,0,1,1,33.92,0h2.1a20,20,0,1,0-38.12,0Z"></path></g></svg>