<svg xmlns="http://www.w3.org/2000/svg" viewBox="0 0 64 64" x="0px" y="0px"><g data-name="Smart Data"><path d="M49,57a3,3,0,0,1-3,3H18a3,3,0,0,1-3-3V36H13V57a5.006,5.006,0,0,0,5,5H46a5.006,5.006,0,0,0,5-5V36H49Z"></path><path d="M15,7a3,3,0,0,1,3-3H46a3,3,0,0,1,3,3V30h2V7a5.006,5.006,0,0,0-5-5H18a5.006,5.006,0,0,0-5,5V30h2Z"></path><path d="M48,52V36H46V52H18V36H16V52a2,2,0,0,0,2,2H46A2,2,0,0,0,48,52Z"></path><path d="M48,30V7a2,2,0,0,0-2-2H40a1,1,0,0,0-.707.293L37.586,7H26.414L24.707,5.293A1,1,0,0,0,24,5H18a2,2,0,0,0-2,2V30h2V7h5.586l1.707,1.707A1,1,0,0,0,26,9H38a1,1,0,0,0,.707-.293L40.414,7H46V30Z"></path><rect x="29" y="56" width="6" height="2"></rect><rect x="31" y="45" width="2" height="2"></rect><rect x="35" y="45" width="2" height="2"></rect><rect x="27" y="45" width="2" height="2"></rect><path d="M32,37a4,4,0,1,0-4-4A4,4,0,0,0,32,37Zm0-6a2,2,0,1,1-2,2A2,2,0,0,1,32,31Z"></path><path d="M58,13a4,4,0,1,0,4,4A4,4,0,0,0,58,13Zm0,6a2,2,0,1,1,2-2A2,2,0,0,1,58,19Z"></path><path d="M10,17a4,4,0,1,0-4,4A4,4,0,0,0,10,17ZM4,17a2,2,0,1,1,2,2A2,2,0,0,1,4,17Z"></path><rect x="31" y="25" width="2" height="2"></rect><rect x="31" y="21" width="2" height="2"></rect><path d="M36,15a4,4,0,1,0-4,4A4,4,0,0,0,36,15Zm-4,2a2,2,0,1,1,2-2A2,2,0,0,1,32,17Z"></path><path d="M57,32H38v2H58a1,1,0,0,0,1-1V27H57Z"></path><rect x="57" y="23" width="2" height="2"></rect><path d="M26,32H7V27H5v6a1,1,0,0,0,1,1H26Z"></path><rect x="5" y="23" width="2" height="2"></rect></g></svg>