<svg xmlns="http://www.w3.org/2000/svg" viewBox="0 0 32 32" x="0px" y="0px"><g data-name="Smartphone"><path d="M23,20H21.414l1.121-1.122-1.414-1.414-2.828,2.829a1,1,0,0,0,0,1.414l2.828,2.829,1.414-1.414L21.414,22H23a1,1,0,0,1,1,1v7h2V23A3,3,0,0,0,23,20Z"></path><path d="M23,3a1,1,0,0,0-1-1H10A1,1,0,0,0,9,3V4H23Z"></path><path d="M9,6V24h8.76l-.8-.8a3.121,3.121,0,0,1-.91-1.64,3,3,0,0,1,.83-2.68l3.53-3.54a1.008,1.008,0,0,1,1.42,0L23,16.51V6Zm4,10H11V14h2Zm4,0H15V14h2Z"></path><path d="M21.12,27.36,19.76,26H9v3a1,1,0,0,0,1,1H22V26.49ZM17,29H15V27h2Z"></path></g></svg>