<svg xmlns="http://www.w3.org/2000/svg" viewBox="0 0 64 64" x="0px" y="0px"><g data-name="Online Education-Book-Home-Smartphone-Online"><path d="M57,25H47a5.006,5.006,0,0,0-5,5V50a5.006,5.006,0,0,0,5,5H57a5.006,5.006,0,0,0,5-5V30A5.006,5.006,0,0,0,57,25Zm3,25a3,3,0,0,1-3,3H47a3,3,0,0,1-3-3V30a3,3,0,0,1,3-3H57a3,3,0,0,1,3,3Z"></path><rect x="50" y="29" width="4" height="2"></rect><rect x="46" y="29" width="2" height="2"></rect><rect x="50" y="49" width="4" height="2"></rect><rect x="51" y="43" width="2" height="2"></rect><path d="M48.464,40.465l1.414,1.414a3,3,0,0,1,4.244,0l1.414-1.414A5.008,5.008,0,0,0,48.464,40.465Z"></path><path d="M45.636,37.636,47.05,39.05a7.009,7.009,0,0,1,9.9,0l1.414-1.414A9.009,9.009,0,0,0,45.636,37.636Z"></path><path d="M31,32a2.951,2.951,0,0,0,1.285-.3l2.008,2.008A1,1,0,0,0,35,34h5V32H35.414L33.7,30.285A2.951,2.951,0,0,0,34,29a3,3,0,1,0-3,3Zm0-4a1,1,0,1,1-1,1A1,1,0,0,1,31,28Z"></path><path d="M35,11a3,3,0,0,0,2.816-2h3.77L51,18.414V23h2V18a1,1,0,0,0-.293-.707l-10-10A1,1,0,0,0,42,7H37.816A2.995,2.995,0,1,0,35,11Zm0-4a1,1,0,1,1-1,1A1,1,0,0,1,35,7Z"></path><path d="M51,58H32v2H52a1,1,0,0,0,1-1V57H51Z"></path><rect x="32" y="54" width="2" height="2"></rect><rect x="36" y="54" width="2" height="2"></rect><rect x="40" y="54" width="2" height="2"></rect><path d="M27,2H19a4.994,4.994,0,0,0-4,2.03A4.994,4.994,0,0,0,11,2H3A1,1,0,0,0,2,3V23a1,1,0,0,0,1,1H27a1,1,0,0,0,1-1V3A1,1,0,0,0,27,2ZM4,22V20h7a3.014,3.014,0,0,1,2.83,2Zm10-2.97A4.924,4.924,0,0,0,11,18H4V4h7a3.009,3.009,0,0,1,3,3ZM26,22H16.17A3.014,3.014,0,0,1,19,20h7Zm0-4H19a4.924,4.924,0,0,0-3,1.03V7a3.009,3.009,0,0,1,3-3h7Z"></path><rect x="6" y="6" width="6" height="2"></rect><rect x="6" y="10" width="6" height="2"></rect><rect x="6" y="14" width="6" height="2"></rect><rect x="18" y="6" width="6" height="2"></rect><rect x="18" y="10" width="6" height="2"></rect><rect x="18" y="14" width="6" height="2"></rect><path d="M15,48a4,4,0,1,0,4-4A4,4,0,0,0,15,48Zm6,0a2,2,0,1,1-2-2A2,2,0,0,1,21,48Z"></path><path d="M35.55,46.44a3.009,3.009,0,0,0-1.23-1.94L30,41.48V35a1,1,0,0,0-1-1H25a1,1,0,0,0-1,1v2.28l-4.43-3.1a.993.993,0,0,0-1.14,0L3.68,44.5a3.005,3.005,0,0,0,1.2,5.42,3.153,3.153,0,0,0,.53.04,2.941,2.941,0,0,0,1.71-.54L9,48.11V61a1,1,0,0,0,1,1H28a1,1,0,0,0,1-1V48.11l1.88,1.31a3,3,0,0,0,4.67-2.98ZM26,36h2v4.08l-2-1.4ZM21,60H17V56h4Zm6,0H23V55a1,1,0,0,0-1-1H16a1,1,0,0,0-1,1v5H11V46.71l8-5.61,8,5.61Zm6.42-12.46a1.079,1.079,0,0,1-.65.41,1,1,0,0,1-.75-.17L19.57,39.06a.992.992,0,0,0-1.14,0L5.98,47.78a1,1,0,0,1-.75.17,1.079,1.079,0,0,1-.65-.41,1.018,1.018,0,0,1,.25-1.4L19,36.22l14.17,9.92a1.018,1.018,0,0,1,.25,1.4Z"></path></g></svg>