<svg xmlns="http://www.w3.org/2000/svg" viewBox="0 0 64 64" x="0px" y="0px"><g><path d="M61,24H45V8h2a1,1,0,0,0,1-1V3a1,1,0,0,0-1-1H17a1,1,0,0,0-1,1V7a1,1,0,0,0,1,1h2V24H3a1,1,0,0,0-1,1v4a1,1,0,0,0,1,1V61a1,1,0,0,0,1,1H60a1,1,0,0,0,1-1V30a1,1,0,0,0,1-1V25A1,1,0,0,0,61,24Zm-1,2v2H45V26ZM18,4H46V6H18ZM4,26H19v2H4Zm1,4H19V60H5ZM21,8H43V60H40V50h1V48H23v2h1V60H21Zm5,42h5V60H26Zm7,10V50h5V60Zm26,0H45V30H59Z"></path><path d="M26,20h3v3a1,1,0,0,0,1,1h4a1,1,0,0,0,1-1V20h3a1,1,0,0,0,1-1V15a1,1,0,0,0-1-1H35V11a1,1,0,0,0-1-1H30a1,1,0,0,0-1,1v3H26a1,1,0,0,0-1,1v4A1,1,0,0,0,26,20Zm1-4h3a1,1,0,0,0,1-1V12h2v3a1,1,0,0,0,1,1h3v2H34a1,1,0,0,0-1,1v3H31V19a1,1,0,0,0-1-1H27Z"></path><rect x="23" y="28" width="18" height="2"></rect><rect x="23" y="32" width="18" height="2"></rect><rect x="23" y="36" width="18" height="2"></rect><rect x="23" y="40" width="18" height="2"></rect><rect x="7" y="32" width="2" height="2"></rect><rect x="11" y="32" width="2" height="2"></rect><rect x="15" y="32" width="2" height="2"></rect><rect x="7" y="36" width="2" height="2"></rect><rect x="11" y="36" width="2" height="2"></rect><rect x="15" y="36" width="2" height="2"></rect><rect x="7" y="40" width="2" height="2"></rect><rect x="11" y="40" width="2" height="2"></rect><rect x="15" y="40" width="2" height="2"></rect><rect x="7" y="44" width="2" height="2"></rect><rect x="11" y="44" width="2" height="2"></rect><rect x="15" y="44" width="2" height="2"></rect><rect x="7" y="48" width="2" height="2"></rect><rect x="11" y="48" width="2" height="2"></rect><rect x="15" y="48" width="2" height="2"></rect><rect x="7" y="52" width="2" height="2"></rect><rect x="11" y="52" width="2" height="2"></rect><rect x="15" y="52" width="2" height="2"></rect><rect x="47" y="32" width="2" height="2"></rect><rect x="51" y="32" width="2" height="2"></rect><rect x="55" y="32" width="2" height="2"></rect><rect x="47" y="36" width="2" height="2"></rect><rect x="51" y="36" width="2" height="2"></rect><rect x="55" y="36" width="2" height="2"></rect><rect x="47" y="40" width="2" height="2"></rect><rect x="51" y="40" width="2" height="2"></rect><rect x="55" y="40" width="2" height="2"></rect><rect x="47" y="44" width="2" height="2"></rect><rect x="51" y="44" width="2" height="2"></rect><rect x="55" y="44" width="2" height="2"></rect><rect x="47" y="48" width="2" height="2"></rect><rect x="51" y="48" width="2" height="2"></rect><rect x="55" y="48" width="2" height="2"></rect><rect x="47" y="52" width="2" height="2"></rect><rect x="51" y="52" width="2" height="2"></rect><rect x="55" y="52" width="2" height="2"></rect></g></svg>