<svg xmlns="http://www.w3.org/2000/svg" viewBox="0 0 64 64" x="0px" y="0px"><g data-name="avatar-man-young-account-profile"><path d="M46.92,35.31l-8.05-1.07a1,1,0,0,1-.87-.99V30.21A11.049,11.049,0,0,0,42.57,24H43a4,4,0,0,0,0-8V10a8.011,8.011,0,0,0-8-8H29a8.011,8.011,0,0,0-8,8v6a4,4,0,1,0,0,8h.43A11.049,11.049,0,0,0,26,30.21v3.04a1,1,0,0,1-.87.99l-8.05,1.07A7.031,7.031,0,0,0,11,42.25V61a1,1,0,0,0,1,1H52a1,1,0,0,0,1-1V42.25A7.031,7.031,0,0,0,46.92,35.31ZM43,21V18a2.006,2.006,0,0,1,2,2,2.015,2.015,0,0,1-2,2h-.05C42.98,21.67,43,21.34,43,21ZM21,22a2.015,2.015,0,0,1-2-2,2.006,2.006,0,0,1,2-2v3c0,.34.02.67.05,1ZM39.63,36.36l2.01.27a9.26,9.26,0,0,1-.52,1.48L39.37,37.1A6.492,6.492,0,0,0,39.63,36.36Zm-1.26,2.47,1.76,1.01a9.912,9.912,0,0,1-2.28,2.29l-1.02-1.76A8.023,8.023,0,0,0,38.37,38.83ZM32,40a5.954,5.954,0,0,1-5.66-4.07A3.008,3.008,0,0,0,28,33.25V31.24a10.906,10.906,0,0,0,8,0v2.01a3.008,3.008,0,0,0,1.66,2.68A5.954,5.954,0,0,1,32,40Zm4.11,3.12a10.141,10.141,0,0,1-3.11.83V41.93a7.847,7.847,0,0,0,2.1-.56ZM31,41.93v2.02a10.141,10.141,0,0,1-3.11-.83l1.01-1.75A7.847,7.847,0,0,0,31,41.93ZM23,10a6,6,0,0,1,6-6h6a6,6,0,0,1,6,6v3.03A4.924,4.924,0,0,0,38,12H26a4.924,4.924,0,0,0-3,1.03Zm0,11V17a3.009,3.009,0,0,1,3-3H38a3.009,3.009,0,0,1,3,3v4a9,9,0,0,1-18,0Zm2.63,17.83a8.023,8.023,0,0,0,1.54,1.54l-1.02,1.76a9.912,9.912,0,0,1-2.28-2.29Zm-1.26-2.47a6.492,6.492,0,0,0,.26.74l-1.75,1.01a9.26,9.26,0,0,1-.52-1.48ZM19,60H13V55h6Zm32,0H45V55h6Zm0-7H45V48H43V60H21V48H19v5H13V42.25a5.018,5.018,0,0,1,4.34-4.95l3.02-.41a11.991,11.991,0,0,0,23.28,0l3.02.41A5.018,5.018,0,0,1,51,42.25Z"></path><path d="M29,19h2a3,3,0,0,0-6,0h2a1,1,0,0,1,2,0Z"></path><path d="M36,18a1,1,0,0,1,1,1h2a3,3,0,0,0-6,0h2A1,1,0,0,1,36,18Z"></path><path d="M36.33,24.5l-1.73-1a3,3,0,0,1-5.2,0l-1.73,1a5,5,0,0,0,8.66,0Z"></path></g></svg>