<svg xmlns="http://www.w3.org/2000/svg" viewBox="0 0 64 64" x="0px" y="0px"><g data-name="Layer 33"><rect x="23" y="28" width="24" height="20"></rect><path d="M47,20H17v6H47ZM21,24H19V22h2Zm4,0H23V22h2Zm4,0H27V22h2Z"></path><rect x="17" y="28" width="4" height="20"></rect><rect x="17" y="50" width="30" height="4"></rect><path d="M12,60H52a1,1,0,0,0,1-1V12.846a.992.992,0,0,0-.292-.706L46,5.418V11a1,1,0,0,0,1,1h4v2H47a3,3,0,0,1-3-3V4H12a1,1,0,0,0-1,1V59A1,1,0,0,0,12,60ZM19,8H39v2H19ZM15,8h2v2H15Zm0,4H39v2H15Zm0,7a1,1,0,0,1,1-1H48a1,1,0,0,1,1,1V55a1,1,0,0,1-1,1H16a1,1,0,0,1-1-1Z"></path></g></svg>