<svg xmlns="http://www.w3.org/2000/svg" viewBox="0 0 64 64" x="0px" y="0px"><title>Cotton swab</title><g data-name="Cotton swab"><path d="M49,14.432A75.581,75.581,0,0,0,50,6a4,4,0,0,0-8,0,75.581,75.581,0,0,0,1,8.432V49.568A75.581,75.581,0,0,0,42,58a4,4,0,0,0,8,0,75.581,75.581,0,0,0-1-8.432ZM45,15h2V49H45ZM46,4a2,2,0,0,1,2,2c0,.69-.294,3.845-.79,7H44.79c-.5-3.155-.79-6.31-.79-7A2,2,0,0,1,46,4Zm0,56a2,2,0,0,1-2-2c0-.69.294-3.845.79-7h2.42c.5,3.155.79,6.31.79,7A2,2,0,0,1,46,60Z"></path><path d="M34.907,49.227,22.893,16.219a75.485,75.485,0,0,0-1.945-8.27,4,4,0,1,0-7.518,2.736,75.468,75.468,0,0,0,3.826,7.586L29.271,51.282a75.629,75.629,0,0,0,1.944,8.267,4.008,4.008,0,0,0,3.764,2.632,4,4,0,0,0,3.754-5.368A75.782,75.782,0,0,0,34.907,49.227ZM15.375,8.471a2,2,0,0,1,3.693.163c.236.646,1.038,3.71,1.652,6.846l-2.274.829c-1.545-2.8-2.9-5.66-3.136-6.308A1.981,1.981,0,0,1,15.375,8.471Zm5.832,8.962L32.835,49.382l-.074.027-1.805.657L19.328,18.116ZM36.788,59.027a1.986,1.986,0,0,1-1.13,1.034,2.008,2.008,0,0,1-2.563-1.2c-.237-.648-1.039-3.713-1.652-6.847l2.274-.829c1.547,2.8,2.9,5.662,3.136,6.308h0A1.986,1.986,0,0,1,36.788,59.027Z"></path></g></svg>