<svg xmlns="http://www.w3.org/2000/svg" viewBox="0 0 64 64" x="0px" y="0px"><g data-name="Hand Washing-Washing-Hands-Hygiene-Water"><path d="M44,44H42.82A3.051,3.051,0,0,0,43,43a3.009,3.009,0,0,0-3-3H38.82A3.051,3.051,0,0,0,39,39a3,3,0,0,0-.18-1H40a3,3,0,0,0,3-3,3.009,3.009,0,0,0-3-3H38.83A3.044,3.044,0,0,0,39,31a3.009,3.009,0,0,0-3-3H27.73l.22-.13a3,3,0,0,0,1.52-2.61,2.933,2.933,0,0,0-.41-1.49,3,3,0,0,0-4.1-1.1L14,29H2v2H14.27a1.063,1.063,0,0,0,.5-.13L25.96,24.4a1.013,1.013,0,0,1,.76-.1,1,1,0,0,1,.61.47.974.974,0,0,1-.37,1.36l-3.46,2a1.022,1.022,0,0,0-.47,1.13A1,1,0,0,0,24,30H36a1,1,0,0,1,1,1,.949.949,0,0,1-.31.71A.928.928,0,0,1,36,32H27a1,1,0,0,0,0,2H40a1,1,0,0,1,1,1,.949.949,0,0,1-.31.71A.928.928,0,0,1,40,36H33.16a.943.943,0,0,0-.1-.23,3,3,0,0,0-4.1-1.1L18,41H2v2H18.27a1.063,1.063,0,0,0,.5-.13L29.96,36.4a1.013,1.013,0,0,1,.76-.1,1,1,0,0,1,.61.47.974.974,0,0,1-.37,1.36l-3.46,2a1.022,1.022,0,0,0-.47,1.13A1,1,0,0,0,28,42h2a3.01,3.01,0,0,1,2.82,2H31a1,1,0,0,0,0,2h2v2H31a1,1,0,0,0,0,2h2v2H31a1,1,0,0,0,0,2h2v2H22.24l-3.79-1.89A1,1,0,0,0,18,54H2v2H17.76L20,57.12V62h2V58h3v4h2V58h6v4h2V45a4.924,4.924,0,0,0-1.03-3H35a3.009,3.009,0,0,1,3,3V62h2V54a3,3,0,0,0,3-3,3,3,0,0,0-.18-1H44a3,3,0,0,0,3-3A3.009,3.009,0,0,0,44,44Zm-7.31-4.29A.928.928,0,0,1,36,40H31.73l.22-.13A3,3,0,0,0,33.37,38H36a1,1,0,0,1,1,1A.949.949,0,0,1,36.69,39.71ZM39.9,44a4.84,4.84,0,0,0-.93-2H40a1,1,0,0,1,1,1,.949.949,0,0,1-.31.71A.928.928,0,0,1,40,44Zm.79,7.71A.928.928,0,0,1,40,52V50a1,1,0,0,1,1,1A.949.949,0,0,1,40.69,51.71Zm4-4A.928.928,0,0,1,44,48H40V46h4a1,1,0,0,1,1,1A.949.949,0,0,1,44.69,47.71Z"></path><path d="M61,2H55a1,1,0,0,0-1,1V4.05l-15.25.76a5,5,0,0,0-4.75,5V16a1,1,0,0,0,1,1h8a1,1,0,0,0,1-1V13H54a1,1,0,0,0,1,1h6a1,1,0,0,0,1-1V3A1,1,0,0,0,61,2ZM42,15H36V13h6Zm12-4H36V9.81a3,3,0,0,1,2.85-3L54,6.05Zm6,1H56V4h4Z"></path><path d="M41,28a4,4,0,0,0,8,0H47a2,2,0,0,1-4,0V23H41Z"></path><path d="M34,26a3,3,0,0,0,3-3V19H35v4a1,1,0,0,1-2,0H31A3,3,0,0,0,34,26Z"></path><rect x="41" y="19" width="2" height="2"></rect><rect x="48" y="41" width="6" height="2"></rect><rect x="47.172" y="35" width="5.657" height="2" transform="translate(-10.811 45.899) rotate(-45)"></rect><rect x="26" y="14" width="2" height="6"></rect><rect x="20" y="16.172" width="2" height="5.657" transform="translate(-7.284 20.414) rotate(-45)"></rect></g></svg>