<svg xmlns="http://www.w3.org/2000/svg" viewBox="0 0 64 64" x="0px" y="0px"><g><rect x="34" y="46" width="12.001" height="6"></rect><path d="M51,60a1,1,0,0,0,1-1V40a4.982,4.982,0,0,1-4-2.031,4.954,4.954,0,0,1-8,0,4.954,4.954,0,0,1-8,0,4.954,4.954,0,0,1-8,0,4.954,4.954,0,0,1-8,0A4.982,4.982,0,0,1,12,40V59a1,1,0,0,0,1,1h3V47a3,3,0,0,1,3-3h6a3,3,0,0,1,3,3V60ZM32,46a2,2,0,0,1,2-2H46a2,2,0,0,1,2,2v6a2,2,0,0,1-2,2H34a2,2,0,0,1-2-2Z"></path><path d="M47.87,19.939A15.8,15.8,0,0,1,47,23.53,14.939,14.939,0,0,1,49,31v4a3,3,0,0,0,3,3,2.634,2.634,0,0,0,.729-.093A2.994,2.994,0,0,0,55,35a1,1,0,0,1,1-1h.971a16.934,16.934,0,0,0-9.1-14.061Z"></path><path d="M41,14H23v8H41ZM27,21a3,3,0,1,1,3-3A3,3,0,0,1,27,21Zm13-2H38v2H36V19H34V17h2V15h2v2h2Z"></path><rect x="36" y="17" width="2" height="2"></rect><path d="M32,32A14,14,0,1,0,18,18,14.015,14.015,0,0,0,32,32ZM23,12H41a2,2,0,0,1,2,2v8a2,2,0,0,1-2,2H23a2,2,0,0,1-2-2V14A2,2,0,0,1,23,12Z"></path><circle cx="27" cy="18" r="1"></circle><path d="M39,35V32.365a15.852,15.852,0,0,1-6,1.584V35a3,3,0,0,0,6,0Z"></path><path d="M41,31.218V35a3,3,0,0,0,6,0V31a12.953,12.953,0,0,0-1.07-5.156A16.1,16.1,0,0,1,41,31.218Z"></path><path d="M17,35a3,3,0,0,0,6,0V31.218a16.1,16.1,0,0,1-4.93-5.374A12.953,12.953,0,0,0,17,31Z"></path><path d="M7.029,34H8a1,1,0,0,1,1,1,2.987,2.987,0,0,0,2.247,2.9A2.7,2.7,0,0,0,12,38a3,3,0,0,0,3-3V31a14.939,14.939,0,0,1,2-7.47,15.847,15.847,0,0,1-.876-3.6A16.941,16.941,0,0,0,7.029,34Z"></path><path d="M31,35V33.949a15.852,15.852,0,0,1-6-1.584V35a3,3,0,0,0,6,0Z"></path><path d="M19,46a1,1,0,0,0-1,1V60h8V47a1,1,0,0,0-1-1Zm6,9H23V51h2Z"></path></g></svg>