<svg xmlns="http://www.w3.org/2000/svg" viewBox="0 0 64 64" x="0px" y="0px"><g><path d="M46,8H16V28H46ZM31,22a4,4,0,1,1,4-4A4,4,0,0,1,31,22Z"></path><circle cx="31" cy="18" r="2"></circle><rect x="55" y="38" width="6" height="2"></rect><path d="M57,36V14a1,1,0,0,0-1-1H52v2h2a1,1,0,0,1,1,1V36Z"></path><path d="M13,60H49a1,1,0,0,0,1-1V5a1,1,0,0,0-1-1H13a1,1,0,0,0-1,1V59A1,1,0,0,0,13,60ZM14,7a1,1,0,0,1,1-1H47a1,1,0,0,1,1,1V29a1,1,0,0,1-1,1H15a1,1,0,0,1-1-1Zm0,28a1,1,0,0,1,1-1H47a1,1,0,0,1,1,1V53a3,3,0,0,1-3,3H17a3,3,0,0,1-3-3Z"></path><rect x="4" y="11" width="2" height="6"></rect><rect x="8" y="13" width="2" height="2"></rect><path d="M17,54H45a1,1,0,0,0,1-1V36H16V53A1,1,0,0,0,17,54Z"></path></g></svg>