<svg xmlns="http://www.w3.org/2000/svg" viewBox="0 0 32 32" x="0px" y="0px"><g data-name="Tablet-Exchange"><path d="M26.879,14.465l-1.414,1.414L26.586,17H18v2h8.586l-1.121,1.121,1.414,1.414,2.828-2.828a1,1,0,0,0,0-1.414Z"></path><path d="M21.414,11l1.121-1.121L21.121,8.465l-2.828,2.828a1,1,0,0,0,0,1.414l2.828,2.828,1.414-1.414L21.414,13H30V11Z"></path><path d="M26,3a1,1,0,0,0-1-1H7A1,1,0,0,0,6,3V4H26Z"></path><path d="M16,20V16a1,1,0,0,1,1-1h.76l-.819-.819a3.1,3.1,0,0,1-.892-1.63A2.992,2.992,0,0,1,16.88,9.88L20.76,6H6V24H26v-.52L23.52,21H17A1,1,0,0,1,16,20Zm-4-4H10V14h2ZM21.48,6l3,3H26V6Z"></path><path d="M6,26v3a1,1,0,0,0,1,1H25a1,1,0,0,0,1-1V26Zm11,3H15V27h2Z"></path></g></svg>