<svg xmlns="http://www.w3.org/2000/svg" viewBox="0 0 64 64" x="0px" y="0px"><title>Smartphone-Love</title><g><path d="M55.989,2A5.885,5.885,0,0,0,52,3.544,5.9,5.9,0,0,0,48.021,2H48a5.976,5.976,0,0,0-6,5.993c0,2.377,1.2,4.831,3.566,7.3a28.545,28.545,0,0,0,5.947,4.585A1.007,1.007,0,0,0,52,20a.994.994,0,0,0,.485-.126C52.874,19.658,62,14.515,62,8h0A5.994,5.994,0,0,0,55.989,2ZM60,8c0,4.585-6.195,8.729-8,9.836a26.653,26.653,0,0,1-4.99-3.936C45.012,11.825,44,9.838,44,8a3.976,3.976,0,0,1,4-4h.014A3.969,3.969,0,0,1,51.2,5.627a1,1,0,0,0,.8.4h0a1,1,0,0,0,.8-.4A3.935,3.935,0,0,1,55.992,4H56A4,4,0,0,1,60,8Z"></path><path d="M26.006,23h-.017A5.885,5.885,0,0,0,22,24.544,5.9,5.9,0,0,0,18.021,23H18a5.976,5.976,0,0,0-6,5.993c0,2.377,1.2,4.831,3.566,7.3a28.545,28.545,0,0,0,5.947,4.585A1.007,1.007,0,0,0,22,41a.994.994,0,0,0,.485-.126C22.874,40.658,32,35.515,32,29h0A6,6,0,0,0,26.006,23ZM30,29c0,4.585-6.195,8.729-8,9.836a26.653,26.653,0,0,1-4.99-3.936C15.012,32.825,14,30.838,14,29a3.976,3.976,0,0,1,4-4h.014A3.969,3.969,0,0,1,21.2,26.627a1,1,0,0,0,.8.4.918.918,0,0,0,.8-.4A3.935,3.935,0,0,1,25.992,25H26A4,4,0,0,1,30,29Z"></path><path d="M49.706,22.5a3.5,3.5,0,0,0-2.094.358,3.487,3.487,0,0,0-1.845-1.052,4,4,0,0,0-4.633,3.244c-.6,3.413,3.716,7.277,4.211,7.706a1,1,0,0,0,1.012.179c.613-.234,5.993-2.388,6.593-5.8A4,4,0,0,0,49.706,22.5Zm1.275,4.287h0c-.3,1.712-3.208,3.34-4.775,4.044-1.233-1.2-3.406-3.715-3.1-5.434a2,2,0,0,1,1.964-1.652,2.1,2.1,0,0,1,.352.03c.5.088,1.013.747,1.182.963a1,1,0,0,0,1.318.232,2.544,2.544,0,0,1,1.438-.5,2,2,0,0,1,1.623,2.317Z"></path><path d="M32,2H12A7.008,7.008,0,0,0,5,9V55a7.008,7.008,0,0,0,7,7H32a7.008,7.008,0,0,0,7-7V9A7.008,7.008,0,0,0,32,2ZM12,4H32a5.006,5.006,0,0,1,5,5v1H7V9A5.006,5.006,0,0,1,12,4Zm25,8V52H7V12ZM32,60H12a5.006,5.006,0,0,1-5-5V54H37v1A5.006,5.006,0,0,1,32,60Z"></path><path d="M14,8h2a1,1,0,0,0,0-2H14a1,1,0,0,0,0,2Z"></path><path d="M20,8h6a1,1,0,0,0,0-2H20a1,1,0,0,0,0,2Z"></path><path d="M23,56H21a1,1,0,0,0,0,2h2a1,1,0,0,0,0-2Z"></path></g></svg>