<svg xmlns="http://www.w3.org/2000/svg" viewBox="0 0 64 64" x="0px" y="0px"><g data-name="Pencil Case-Design Tools-Art-Design-Editor"><path d="M42,50H22a3,3,0,0,0,0,6H42a3,3,0,0,0,0-6Zm0,4H22a1,1,0,0,1,0-2H42a1,1,0,0,1,0,2Z"></path><path d="M61.66,42.25,57,38.11V7a1,1,0,0,0-1-1H48a1,1,0,0,0-1,1V34H45V17a1,1,0,0,0-1-1H41.97A4.924,4.924,0,0,0,43,13a5.017,5.017,0,0,0-4-4.9V6H37V8.1A5.017,5.017,0,0,0,33,13a4.924,4.924,0,0,0,1.03,3H32a1,1,0,0,0-1,1V34H28V22.82a2.98,2.98,0,0,0,.43-5.44l1.46-2.93a.983.983,0,0,0-.08-1.03l-5-7a1.024,1.024,0,0,0-1.62,0l-5,7a.983.983,0,0,0-.08,1.03l1.46,2.93A2.98,2.98,0,0,0,20,22.82V34H17V16a.978.978,0,0,0-.09-.41l-4-9a1,1,0,0,0-1.82,0l-4,9A.978.978,0,0,0,7,16V38.11L2.34,42.25A.981.981,0,0,0,2,43V59a3.009,3.009,0,0,0,3,3H59a3.009,3.009,0,0,0,3-3V43A.981.981,0,0,0,61.66,42.25ZM57,40.79,58.37,42H57ZM49,38h4V36H49V34h2V32H49V30h2V28H49V26h4V24H49V22h2V20H49V18h2V16H49V14h4V12H49V8h6V42H49Zm-4.4-.2A1.014,1.014,0,0,0,45,37V36h2v6H42a.988.988,0,0,0-.89.55l-.11.21V40.5ZM41,38V22h2V36.5ZM38,10a3,3,0,1,1-3,3A3.009,3.009,0,0,1,38,10Zm-5,8H43v2H33Zm4,16V22h2V34Zm2,2v8H37V36ZM33,22h2V38l-2-1.5ZM31,36v1a1.014,1.014,0,0,0,.4.8L35,40.5V44H28V36ZM23,10.12V14h2V10.12l2.84,3.97L26.38,17H21.62l-1.46-2.91ZM21,19h6a1,1,0,0,1,0,2H21a1,1,0,0,1,0-2Zm5,4V44H23.62l-.73-1.45A.988.988,0,0,0,22,42V23ZM17,36h3v6H17ZM12,9.46,12.68,11H11.32ZM10.43,13h3.14l.89,2H9.54ZM15,17V36H13V17ZM9,17h2V36H9ZM9,38h6v4H9ZM7,40.79V42H5.63ZM60,59a1,1,0,0,1-1,1H5a1,1,0,0,1-1-1V44H21.38l.73,1.45A.988.988,0,0,0,23,46H41a.988.988,0,0,0,.89-.55L42.62,44H60Z"></path><rect x="37" y="12" width="2" height="2"></rect></g></svg>