<svg xmlns="http://www.w3.org/2000/svg" viewBox="0 0 64 64" x="0px" y="0px"><g data-name="skyscraper-building-tower-city-real estate"><path d="M47,60V13a1,1,0,0,0-1-1H39V3a1,1,0,0,0-1-1H26a1,1,0,0,0-1,1v9H18a1,1,0,0,0-1,1V60H13v2H51V60ZM23,55v5H19V14h6V54H24A1,1,0,0,0,23,55Zm5,5H25V56h3Zm6,0H30V56h4Zm-7-6V4H37V54Zm12,6H36V56h3Zm6,0H41V55a1,1,0,0,0-1-1H39V14h6Z"></path><rect x="29" y="6" width="2" height="46"></rect><rect x="33" y="6" width="2" height="46"></rect><rect x="41" y="16" width="2" height="2"></rect><rect x="41" y="20" width="2" height="2"></rect><rect x="41" y="24" width="2" height="2"></rect><rect x="41" y="28" width="2" height="2"></rect><rect x="41" y="32" width="2" height="2"></rect><rect x="41" y="36" width="2" height="2"></rect><rect x="41" y="40" width="2" height="2"></rect><rect x="41" y="44" width="2" height="2"></rect><rect x="41" y="48" width="2" height="2"></rect><rect x="41" y="52" width="2" height="2"></rect><rect x="21" y="16" width="2" height="2"></rect><rect x="21" y="20" width="2" height="2"></rect><rect x="21" y="24" width="2" height="2"></rect><rect x="21" y="28" width="2" height="2"></rect><rect x="21" y="32" width="2" height="2"></rect><rect x="21" y="36" width="2" height="2"></rect><rect x="21" y="40" width="2" height="2"></rect><rect x="21" y="44" width="2" height="2"></rect><rect x="21" y="48" width="2" height="2"></rect><rect x="21" y="52" width="2" height="2"></rect></g></svg>