<svg xmlns="http://www.w3.org/2000/svg" viewBox="0 0 64 64" x="0px" y="0px"><g><path d="M13,20H8a2,2,0,0,0-2,2v5a2,2,0,0,0,2,2h5a2,2,0,0,0,2-2V22A2,2,0,0,0,13,20ZM8,27V22h5v5Z"></path><path d="M24,20H19a2,2,0,0,0-2,2v5a2,2,0,0,0,2,2h5a2,2,0,0,0,2-2V22A2,2,0,0,0,24,20Zm-5,7V22h5v5Z"></path><path d="M13,31H8a2,2,0,0,0-2,2v5a2,2,0,0,0,2,2h5a2,2,0,0,0,2-2V33A2,2,0,0,0,13,31ZM8,38V33h5v5Z"></path><path d="M24,31H19a2,2,0,0,0-2,2v5a2,2,0,0,0,2,2h5a2,2,0,0,0,2-2V33A2,2,0,0,0,24,31Zm-5,7V33h5v5Z"></path><path d="M13,42H8a2,2,0,0,0-2,2v5a2,2,0,0,0,2,2h5a2,2,0,0,0,2-2V44A2,2,0,0,0,13,42ZM8,49V44h5v5Z"></path><path d="M24,42H19a2,2,0,0,0-2,2v5a2,2,0,0,0,2,2h5a2,2,0,0,0,2-2V44A2,2,0,0,0,24,42Zm-5,7V44h5v5Z"></path><path d="M56,38H40a2,2,0,0,0-2,2V56a2,2,0,0,0,2,2H56a2,2,0,0,0,2-2V40A2,2,0,0,0,56,38Zm0,6H52V40h4ZM46,50V46h4v4Zm4,2v4H46V52Zm-6-2H40V46h4Zm2-6V40h4v4Zm6,2h4v4H52Zm-8-6v4H40V40ZM40,52h4v4H40Zm12,4V52h4v4Z"></path><path d="M59,22H52V10a3.009,3.009,0,0,0-3-3H41V5a3,3,0,0,0-6,0V7H19V5a3,3,0,0,0-6,0V7H5a3.009,3.009,0,0,0-3,3V52a3.009,3.009,0,0,0,3,3H34v4a3.009,3.009,0,0,0,3,3H59a3.009,3.009,0,0,0,3-3V25A3.009,3.009,0,0,0,59,22ZM37,5a1,1,0,0,1,2,0v6a1,1,0,0,1-2,0ZM15,5a1,1,0,0,1,2,0v6a1,1,0,0,1-2,0ZM4,10A1,1,0,0,1,5,9h8v2a3,3,0,0,0,6,0V9H35v2a3,3,0,0,0,6,0V9h8a1,1,0,0,1,1,1v6H4ZM34,49H30V44h4Zm0-11H30V33h4Zm1-15.22A2.986,2.986,0,0,0,34,25v2H30V22h5ZM30,20a2.006,2.006,0,0,0-2,2v5a2.006,2.006,0,0,0,2,2h4v2H30a2.006,2.006,0,0,0-2,2v5a2.006,2.006,0,0,0,2,2h4v2H30a2.006,2.006,0,0,0-2,2v5a2.006,2.006,0,0,0,2,2h4v2H5a1,1,0,0,1-1-1V18H50v4H48a2.006,2.006,0,0,0-2-2H41a2.006,2.006,0,0,0-2,2H37a2.006,2.006,0,0,0-2-2ZM60,59a1,1,0,0,1-1,1H37a1,1,0,0,1-1-1V25a1,1,0,0,1,1-1H59a1,1,0,0,1,1,1Z"></path><path d="M56,26H40a2,2,0,0,0-2,2v6a2,2,0,0,0,2,2H56a2,2,0,0,0,2-2V28A2,2,0,0,0,56,26Zm0,8H40V28H56Z"></path><rect x="51" y="30" width="2" height="2"></rect><rect x="47" y="30" width="2" height="2"></rect><rect x="43" y="30" width="2" height="2"></rect></g></svg>