<svg xmlns="http://www.w3.org/2000/svg" viewBox="0 0 64 64" x="0px" y="0px"><g><path d="M56,48.1V40a5.006,5.006,0,0,0-5-5H38.347l-.167-1H50a5.006,5.006,0,0,0,5-5V7a5.006,5.006,0,0,0-5-5H14A5.006,5.006,0,0,0,9,7V29a5.006,5.006,0,0,0,5,5H25.82l-.667,4H24a3,3,0,0,0-2.816,2H16a5.006,5.006,0,0,0-5,5v3H5a3,3,0,0,0-3,3v8a3,3,0,0,0,3,3H45a3,3,0,0,0,3-3V51a3,3,0,0,0-3-3H13V45a3,3,0,0,1,3-3h5.184A3,3,0,0,0,24,44H40a3,3,0,0,0,0-6H38.847l-.167-1H51a3,3,0,0,1,3,3v8.1A5.009,5.009,0,0,0,50,53v4a5,5,0,0,0,10,0V53A5.009,5.009,0,0,0,56,48.1ZM46,51v8a1,1,0,0,1-1,1H5a1,1,0,0,1-1-1V51a1,1,0,0,1,1-1H45A1,1,0,0,1,46,51ZM14,4H50a3,3,0,0,1,3,3V26H11V7A3,3,0,0,1,14,4ZM11,29V28H53v1a3,3,0,0,1-3,3H14A3,3,0,0,1,11,29ZM41,41a1,1,0,0,1-1,1H24a1,1,0,0,1,0-2H40A1,1,0,0,1,41,41ZM27.181,38l.666-4h8.306l.666,4ZM57.816,52H56V50.184A3,3,0,0,1,57.816,52ZM54,50.184V52H52.184A3,3,0,0,1,54,50.184ZM55,60a3,3,0,0,1-3-3V54h6v3A3,3,0,0,1,55,60Z"></path><rect x="10" y="56" width="28" height="2"></rect><path d="M40,58h3a1,1,0,0,0,1-1V52H42v4H40Z"></path><rect x="6" y="56" width="2" height="2"></rect><rect x="6" y="52" width="2" height="2"></rect><rect x="10" y="52" width="2" height="2"></rect><rect x="14" y="52" width="2" height="2"></rect><rect x="18" y="52" width="2" height="2"></rect><rect x="22" y="52" width="2" height="2"></rect><rect x="26" y="52" width="2" height="2"></rect><rect x="30" y="52" width="2" height="2"></rect><rect x="34" y="52" width="2" height="2"></rect><rect x="38" y="52" width="2" height="2"></rect><path d="M47,31h2a1,1,0,0,0,0-2H47a1,1,0,0,0,0,2Z"></path></g></svg>