<svg xmlns="http://www.w3.org/2000/svg" viewBox="0 0 64 64" x="0px" y="0px"><g><path d="M61,4H55a1,1,0,0,0-1,1V7h-.985L46.2,4.081A.989.989,0,0,0,45.81,4H35.29a7.014,7.014,0,0,0-4.947,2.052L22.2,14.183a3.951,3.951,0,0,0-.619,4.887,4.091,4.091,0,0,0,.533.636A8.885,8.885,0,0,0,21,24a9,9,0,1,0,16.469-5h2.483c.715,2.4,3.931,4,6.853,4s6.138-1.6,6.854-4H54v2a1,1,0,0,0,1,1h6a1,1,0,0,0,1-1V5A1,1,0,0,0,61,4ZM37,24a7,7,0,0,1-14,0,6.9,6.9,0,0,1,1.245-3.974A6.976,6.976,0,0,1,29.81,17H30c.125,0,.247.016.372.022A3.9,3.9,0,0,0,33.805,19h1.079A6.984,6.984,0,0,1,37,24Zm15.805-7a1,1,0,0,0-1,1c0,1.514-2.476,3-5,3s-5-1.486-5-3a1,1,0,0,0-1-1h-7a2.006,2.006,0,0,1-2-2,2,2,0,0,1,2-2h11V11h-11a4,4,0,0,0-4,4h-.017a9,9,0,0,0-6.5,3.012c-.008-.011-.018-.019-.026-.031a1.963,1.963,0,0,1,.355-2.383L31.76,7.464A5,5,0,0,1,35.29,6H45.605l6.811,2.919A.993.993,0,0,0,52.81,9H54v8ZM60,20H56V6h4Z"></path><path d="M29,21h2a1,1,0,0,1,1,1h2a3,3,0,0,0-3-3V18H29v1a3,3,0,0,0,0,6h2a1,1,0,0,1,0,2H29a1,1,0,0,1-1-1H26a3,3,0,0,0,3,3v1h2V29a3,3,0,0,0,0-6H29a1,1,0,0,1,0-2Z"></path><path d="M51.764,40.141a3.967,3.967,0,0,0-3.057-.135l-6.234,2.269a4.011,4.011,0,0,0-2.862-2.115l-13.591-2.4a.977.977,0,0,0-.514.045l-6.532,2.377-.342-.94a1,1,0,0,0-1.281-.6L9.833,41.385a1,1,0,0,0-.6,1.281h0l-6.578,2.4a1,1,0,0,0-.6,1.281L6.849,59.5a1,1,0,0,0,.939.658A.979.979,0,0,0,8.13,60.1L14.708,57.7h0a1,1,0,0,0,1.282.6l7.517-2.737a1,1,0,0,0,.6-1.281l-.342-.94.61-.222,5.734,1.937a1.011,1.011,0,0,0,.663-.008l2.818-1.026h0l17.855-6.5a4,4,0,0,0,.321-7.382ZM14.024,55.822,8.386,57.874,4.282,46.6,9.92,44.545Zm2.222.256L11.457,42.922,17.1,40.87l4.789,13.155ZM50.759,45.645l-20.344,7.4-5.734-1.937a1,1,0,0,0-.662.008l-.94.342-3.42-9.4,6.279-2.285,13.326,2.35A1.982,1.982,0,0,1,40.8,43.417a3.028,3.028,0,0,1,.085.351,1.833,1.833,0,0,1,.008.678,2.009,2.009,0,0,1-2.319,1.627L27.312,44.087l-.347,1.97,11.259,1.985a4.011,4.011,0,0,0,4.636-3.258,4.113,4.113,0,0,0,.042-.537l6.489-2.362a2,2,0,0,1,1.368,3.76Z"></path></g></svg>