<svg xmlns="http://www.w3.org/2000/svg" viewBox="0 0 64 64" x="0px" y="0px"><g data-name="Business-Profit-Growth-Money Tree-Marketing"><path d="M53.68,54.12,53,56l1.88.68a4,4,0,0,0,5.13-2.39l.68-1.88-1.88-.68A4,4,0,0,0,53.68,54.12Z"></path><path d="M47.19,51.73l-1.88.68.68,1.88a4,4,0,0,0,5.13,2.39L53,56l-.68-1.88A4,4,0,0,0,47.19,51.73Z"></path><path d="M33,49l1.41-1.41a3.99,3.99,0,0,0,0-5.66L33,40.51l-1.41,1.42a3.99,3.99,0,0,0,0,5.66Z"></path><path d="M12,48a8,8,0,1,0-8-8A8.009,8.009,0,0,0,12,48Zm1-7H11a3,3,0,0,1,0-6V34h2v1a3,3,0,0,1,3,3H14a1,1,0,0,0-1-1H11a1,1,0,0,0,0,2h2a3,3,0,0,1,0,6v1H11V45a3,3,0,0,1-3-3h2a1,1,0,0,0,1,1h2a1,1,0,0,0,0-2Z"></path><rect x="35.836" y="10.653" width="14.001" height="1.737" transform="translate(4.398 33.662) rotate(-44.997)"></rect><path d="M34.586,23H33v6h1.586L35,28.586V28a1,1,0,0,1,1-1h9.586L56.9,15.686,49.814,8.6l-9.9,9.9,4.793,4.793A1,1,0,0,1,44,25H36a1,1,0,0,1-1-1v-.586Z"></path><polygon points="52.996 4.41 50.712 6.67 56 11.959 56 7.414 52.996 4.41"></polygon><path d="M50,28.586l9.9-9.9L58.314,17.1l-9.969,9.968a.982.982,0,0,1,.362.224Z"></path><rect x="27" y="27" width="2" height="2"></rect><rect x="26" y="23" width="2" height="2"></rect><rect x="23" y="26" width="2" height="2"></rect><rect x="19" y="28" width="2" height="2"></rect><rect x="27" y="31" width="2" height="2"></rect><rect x="24" y="34" width="2" height="2"></rect><rect x="23" y="30" width="2" height="2"></rect><path d="M15.707,21.707,17,20.414V26h2V20.414l1.293,1.293,1.414-1.414-3-3a1,1,0,0,0-1.414,0l-3,3Z"></path><path d="M11,12.414V18h2V12.414l1.293,1.293,1.414-1.414-3-3a1,1,0,0,0-1.414,0l-3,3,1.414,1.414Z"></path><path d="M5,22.414V28H7V22.414l1.293,1.293,1.414-1.414-3-3a1,1,0,0,0-1.414,0l-3,3,1.414,1.414Z"></path><rect x="2" y="60" width="2" height="2"></rect><rect x="60" y="60" width="2" height="2"></rect><path d="M54,60V56H52v4H34V54.362l.88.318a4,4,0,0,0,5.13-2.39l.68-1.88-1.88-.68A3.988,3.988,0,0,0,34,51.458V51H32v.458a3.988,3.988,0,0,0-4.81-1.728l-1.88.68.68,1.88a4,4,0,0,0,5.13,2.39l.88-.318V60H13V56.362l.88.318a4,4,0,0,0,5.13-2.39l.68-1.88-1.88-.68A3.988,3.988,0,0,0,13,53.458V50H11v3.458A3.988,3.988,0,0,0,6.19,51.73l-1.88.68.68,1.88a4,4,0,0,0,5.13,2.39l.88-.318V60H6v2H58V60Z"></path></g></svg>