<svg xmlns="http://www.w3.org/2000/svg" viewBox="0 0 64 64" x="0px" y="0px"><title>Lecture</title><g data-name="Lecture"><path d="M54,2H26a1,1,0,0,0-1,1V18H14a5.006,5.006,0,0,0-5,5V61a1,1,0,0,0,1,1H38a1,1,0,0,0,1-1V46H50a5.006,5.006,0,0,0,5-5V3A1,1,0,0,0,54,2ZM37,60H11V23a3,3,0,0,1,3-3H38.026A4.948,4.948,0,0,0,37,23V60Zm2-16V23a3,3,0,1,1,6,0V41a4.948,4.948,0,0,0,1.026,3H39Zm14-3a3,3,0,0,1-6,0V23a4.995,4.995,0,0,0-5-5H27V4H53Z"></path><rect x="13" y="26" width="22" height="2"></rect><rect x="13" y="32" width="22" height="2"></rect><rect x="13" y="38" width="16" height="2"></rect><rect x="31" y="38" width="4" height="2"></rect><path d="M34,44H14a1,1,0,0,0-1,1V55a1,1,0,0,0,1,1H34a1,1,0,0,0,1-1V45A1,1,0,0,0,34,44ZM33,54H15V46H33Z"></path></g></svg>