<svg xmlns="http://www.w3.org/2000/svg" viewBox="0 0 64 64" x="0px" y="0px"><g data-name="Home-Smart Home-Communication-Wifi-Technology"><path d="M61.86,18.49l-6-10A.99.99,0,0,0,55,8H37.35L32.78,2.37a1.039,1.039,0,0,0-1.56,0L26.65,8H9a.99.99,0,0,0-.86.49l-6,10A1,1,0,0,0,3,20H6V61a1,1,0,0,0,1,1H57a1,1,0,0,0,1-1V20h3a1,1,0,0,0,.86-1.51ZM32,4.59,42.9,18H21.1ZM4.77,18l4.8-8H25.02l-6.5,8ZM56,38H40v2H56V60H8V40H22V38H8V20H56ZM45.48,18l-6.5-8H54.43l4.8,8Z"></path><rect x="18" y="32" width="2" height="2"></rect><path d="M15.464,29.464l1.414,1.414a3.006,3.006,0,0,1,4.244,0l1.414-1.414A5.008,5.008,0,0,0,15.464,29.464Z"></path><path d="M19,24a8.941,8.941,0,0,0-6.364,2.636L14.05,28.05a7,7,0,0,1,9.9,0l1.414-1.414A8.941,8.941,0,0,0,19,24Z"></path><path d="M19,42H13a3,3,0,0,0-3,3V55a3,3,0,0,0,3,3h6a3,3,0,0,0,3-3V45A3,3,0,0,0,19,42Zm1,13a1,1,0,0,1-1,1H13a1,1,0,0,1-1-1V45a1,1,0,0,1,1-1h6a1,1,0,0,1,1,1Z"></path><rect x="15" y="52" width="2" height="2"></rect><path d="M38,24v6a2,2,0,0,0,2,2h2v2H41v2h8V34H48V32h2a2,2,0,0,0,2-2V24a2,2,0,0,0-2-2H40A2,2,0,0,0,38,24Zm8,10H44V32h2Zm4-4H40V24H50Z"></path><path d="M40,56a2,2,0,0,0,2,2H52a2,2,0,0,0,2-2V44a2,2,0,0,0-2-2H42a2,2,0,0,0-2,2Zm2-12H52V56H42Z"></path><path d="M47,49a3,3,0,1,0,3,3A3,3,0,0,0,47,49Zm0,4a1,1,0,1,1,1-1A1,1,0,0,1,47,53Z"></path><rect x="44" y="45" width="2" height="2"></rect><path d="M34,28h2V26H33a1,1,0,0,0-1,1V48H30V31a1,1,0,0,0-1-1H25v2h3V49a1,1,0,0,0,1,1h3v2H24v2h9a1,1,0,0,0,1-1V50h4V48H34Z"></path><rect x="36" y="34" width="2" height="2"></rect><rect x="36" y="38" width="2" height="2"></rect><rect x="24" y="35" width="2" height="2"></rect><rect x="24" y="39" width="2" height="2"></rect><path d="M32,16a3,3,0,1,0-3-3A3,3,0,0,0,32,16Zm0-4a1,1,0,1,1-1,1A1,1,0,0,1,32,12Z"></path></g></svg>