<svg xmlns="http://www.w3.org/2000/svg" viewBox="0 0 64 64" x="0px" y="0px"><g><path d="M22.92,4H17V9.92A7,7,0,0,0,22.92,4Z"></path><rect x="13" y="4" width="2" height="44"></rect><path d="M31.67,25.231a5.367,5.367,0,0,0,4.225.128,5.35,5.35,0,0,0-2.225-3.59,5.378,5.378,0,0,0-4.224-.128A5.342,5.342,0,0,0,31.67,25.231Z"></path><path d="M35.9,17.359a5.35,5.35,0,0,0-2.225-3.59,5.378,5.378,0,0,0-4.224-.128,5.342,5.342,0,0,0,2.224,3.59A5.367,5.367,0,0,0,35.9,17.359Z"></path><path d="M57,42.08A7,7,0,0,0,51.08,48H57Z"></path><path d="M17,42.08V48h5.92A7,7,0,0,0,17,42.08Z"></path><path d="M12,55a1,1,0,0,0,1,1H57V54H13A1,1,0,0,0,12,55Z"></path><path d="M57,50H12a5,5,0,0,0,0,10H57V58H13a3,3,0,0,1,0-6H57Z"></path><path d="M7,50.105a6.988,6.988,0,0,1,4-2.025V36.1A5.009,5.009,0,0,0,7,41Z"></path><path d="M7,36.111a6.975,6.975,0,0,1,4-2.031V19.1A5.009,5.009,0,0,0,7,24Z"></path><path d="M7,19.111a6.975,6.975,0,0,1,4-2.031V4.1A5.009,5.009,0,0,0,7,9Z"></path><path d="M57,11.941A9.012,9.012,0,0,1,49.059,4H24.941A9.012,9.012,0,0,1,17,11.941V40.059A9.012,9.012,0,0,1,24.941,48H49.059A9.012,9.012,0,0,1,57,40.059ZM46.1,20.1a1,1,0,0,1,.554.96,8.3,8.3,0,0,1-2.588,5.377A9.276,9.276,0,0,1,46.1,27.1a1,1,0,0,1,.554.96c-.011.169-.3,4.152-3.328,5.9a6.04,6.04,0,0,1-3.055.775A8.669,8.669,0,0,1,38,34.416V40H36V34.416a8.676,8.676,0,0,1-2.275.323,6.043,6.043,0,0,1-3.055-.775c-3.027-1.748-3.317-5.731-3.328-5.9a1,1,0,0,1,.554-.96,9.244,9.244,0,0,1,2.034-.662,8.3,8.3,0,0,1-2.588-5.378,1,1,0,0,1,.554-.96,9.317,9.317,0,0,1,3.41-.835,5.352,5.352,0,0,1-.636-.3c-3.027-1.748-3.317-5.731-3.328-5.9a1,1,0,0,1,.554-.96c.152-.075,3.746-1.816,6.774-.068a6.129,6.129,0,0,1,2.33,2.5,6.129,6.129,0,0,1,2.33-2.5c3.025-1.748,6.621-.008,6.774.068a1,1,0,0,1,.554.96c-.011.169-.3,4.152-3.328,5.9a5.579,5.579,0,0,1-.635.3A9.3,9.3,0,0,1,46.1,20.1Z"></path><path d="M40.33,28.769A5.352,5.352,0,0,0,38.1,32.362a5.356,5.356,0,0,0,4.225-.131,5.348,5.348,0,0,0,2.225-3.592A5.342,5.342,0,0,0,40.33,28.769Z"></path><path d="M40.33,13.769A5.352,5.352,0,0,0,38.1,17.362a5.356,5.356,0,0,0,4.225-.131,5.348,5.348,0,0,0,2.225-3.592A5.338,5.338,0,0,0,40.33,13.769Z"></path><path d="M40.33,21.769A5.352,5.352,0,0,0,38.1,25.362a5.351,5.351,0,0,0,4.225-.131,5.348,5.348,0,0,0,2.225-3.592A5.342,5.342,0,0,0,40.33,21.769Z"></path><path d="M57,4H51.08A7,7,0,0,0,57,9.92Z"></path><path d="M39.966,19.725A8.988,8.988,0,0,1,38,19.416v1.7a5.673,5.673,0,0,1,1.33-1.076A5.482,5.482,0,0,1,39.966,19.725Z"></path><path d="M34.67,20.036A5.673,5.673,0,0,1,36,21.112v-1.7a8.987,8.987,0,0,1-1.967.309A5.5,5.5,0,0,1,34.67,20.036Z"></path><path d="M38,27.416v.7a5.827,5.827,0,0,1,.593-.556C38.382,27.513,38.185,27.466,38,27.416Z"></path><path d="M36,28.112v-.7c-.185.05-.382.1-.593.14A5.827,5.827,0,0,1,36,28.112Z"></path><path d="M33.67,28.769a5.378,5.378,0,0,0-4.224-.128,5.342,5.342,0,0,0,2.224,3.59,5.372,5.372,0,0,0,4.225.128A5.35,5.35,0,0,0,33.67,28.769Z"></path></g></svg>