<svg xmlns="http://www.w3.org/2000/svg" viewBox="0 0 64 64" x="0px" y="0px"><g data-name="Lesson-Online Learning-Education-Elearning-Mouse"><path d="M55,40.07V28a7.008,7.008,0,0,0-7-7V7a5,5,0,0,0-5-5H7A5,5,0,0,0,2,7V37a4.993,4.993,0,0,0,1.25,3.31l1.5-1.33A2.992,2.992,0,0,1,4,37V11.96H46V21H43a7.008,7.008,0,0,0-7,7V40H18v2H36v6a5,5,0,0,1-5,5H16V30a.978.978,0,0,0-.09-.41l-4-9a1,1,0,0,0-1.82,0l-4,9A.978.978,0,0,0,6,30V57a1,1,0,0,0,1,1h8a1,1,0,0,0,1-1V55H31a7.008,7.008,0,0,0,7-7V42h5a5,5,0,0,0,5-5V23a5,5,0,0,1,5,5V40.07A8,8,0,0,0,46,48v6a8,8,0,0,0,16,0V48A8,8,0,0,0,55,40.07ZM11,23.46,11.68,25H10.32ZM9.43,27h3.14l.89,2H8.54ZM8,31h2V50H8Zm6,25H8V52h6Zm0-6H12V31h2ZM46,37a3.009,3.009,0,0,1-3,3H38V28a5,5,0,0,1,5-5h3ZM46,9.96H4V7A3.009,3.009,0,0,1,7,4H43a3.009,3.009,0,0,1,3,3ZM54,42a6.007,6.007,0,0,1,5.91,5H57a3,3,0,0,0-6,0H48.09A6.007,6.007,0,0,1,54,42Zm1,5v2a1,1,0,0,1-2,0V47a1,1,0,0,1,2,0Zm5,7a6,6,0,0,1-12,0V49h3a3,3,0,0,0,6,0h3Z"></path><rect x="8" y="6" width="2" height="2"></rect><rect x="12" y="6" width="2" height="2"></rect><rect x="16" y="6" width="2" height="2"></rect><path d="M18,36h2.184a2.982,2.982,0,0,0,5.632,0H34V34H25.816a2.982,2.982,0,0,0-5.632,0H18Zm5-2a1,1,0,1,1-1,1A1,1,0,0,1,23,34Z"></path><path d="M29.306,23.664a2,2,0,0,0,0-3.328l-3.2-2.132A2,2,0,0,0,23,19.868v4.264A2,2,0,0,0,26.109,25.8ZM25,19.868,28.2,22,25,24.138Z"></path><path d="M34,22a8,8,0,1,0-8,8A8.009,8.009,0,0,0,34,22ZM20,22a6,6,0,1,1,6,6A6.006,6.006,0,0,1,20,22Z"></path></g></svg>