<svg xmlns="http://www.w3.org/2000/svg" viewBox="0 0 64 64" x="0px" y="0px"><g><path d="M32,16a5,5,0,1,0-5-5A5.006,5.006,0,0,0,32,16Zm0-8a3,3,0,1,1-3,3A3,3,0,0,1,32,8Z"></path><path d="M61.923,54.615,57,42.8V13a3,3,0,0,0-3-3H48V4a2,2,0,0,0-2-2H18a2,2,0,0,0-2,2v6H10a3,3,0,0,0-3,3V42.8L2.077,54.615A1,1,0,0,0,2,55v4a3,3,0,0,0,3,3H59a3,3,0,0,0,3-3V55A1,1,0,0,0,61.923,54.615ZM40.618,54,38.9,50.553A1,1,0,0,0,38,50H26a1,1,0,0,0-.895.553L23.382,54H4.5L8.667,44H55.333L59.5,54Zm-2.236,0H25.618l1-2H37.382ZM22,24H18V23h4Zm-4-8.874A4.007,4.007,0,0,1,20.859,18H18ZM22,21H18V20h4Zm.877-4.121a2.946,2.946,0,0,0-.188.23A6.011,6.011,0,0,0,18,13.09V8.91A6.008,6.008,0,0,0,22.91,4H41.09A6.008,6.008,0,0,0,46,8.91v4.18A6.008,6.008,0,0,0,41.09,18H27.819a2.894,2.894,0,0,0-.7-1.111A2.973,2.973,0,0,0,25,16h0A2.971,2.971,0,0,0,22.878,16.879ZM28,21l0-1H46v1Zm-4-2a.991.991,0,0,1,.293-.709.978.978,0,0,1,.7-.293.9.9,0,0,1,.722.306.988.988,0,0,1,.3.7l0,3,0,1a1,1,0,0,0,1,1,4.88,4.88,0,0,1,2.326.584,4.4,4.4,0,0,1,.43.253,5.051,5.051,0,0,1,1.873,2.258A4.862,4.862,0,0,1,32,29l2,.013a6.838,6.838,0,0,0-.525-2.689c-.047-.112-.112-.213-.164-.322H40V36L26,36l0-4a1,1,0,0,0-.105-.446L24,27.765Zm7.872,5a6.973,6.973,0,0,0-1.015-.834c-.093-.061-.186-.109-.28-.166H46v1Zm11.269-6A4,4,0,0,1,46,15.142V18ZM46,6.858A4,4,0,0,1,43.142,4H46ZM20.858,4A4,4,0,0,1,18,6.858V4ZM9,13a1,1,0,0,1,1-1h6V24a2,2,0,0,0,2,2h4v2a1,1,0,0,0,.105.447L24,32.234,24,37a1,1,0,0,0,1,1l16,0a1,1,0,0,0,1-1V26h4a2,2,0,0,0,2-2V12h6a1,1,0,0,1,1,1V42H9ZM59,60H5a1,1,0,0,1-1-1V56H60v3A1,1,0,0,1,59,60Z"></path><rect x="10" y="50" width="2" height="2"></rect><rect x="14" y="50" width="2" height="2"></rect><rect x="48" y="50" width="2" height="2"></rect><rect x="52" y="50" width="2" height="2"></rect><rect x="15" y="46" width="2" height="2"></rect><rect x="11" y="46" width="2" height="2"></rect><rect x="19" y="46" width="2" height="2"></rect><rect x="23" y="46" width="2" height="2"></rect><rect x="27" y="46" width="2" height="2"></rect><rect x="31" y="46" width="2" height="2"></rect><rect x="35" y="46" width="2" height="2"></rect><rect x="39" y="46" width="2" height="2"></rect><rect x="43" y="46" width="2" height="2"></rect><rect x="47" y="46" width="2" height="2"></rect><rect x="51" y="46" width="2" height="2"></rect><rect x="18" y="50" width="4" height="2"></rect><rect x="42" y="50" width="4" height="2"></rect><rect x="11" y="32" width="8" height="2"></rect><rect x="11" y="36" width="8" height="2"></rect><rect x="15" y="28" width="4" height="2"></rect><rect x="45" y="36" width="8" height="2"></rect><rect x="45" y="32" width="8" height="2"></rect><rect x="45" y="28" width="8" height="2"></rect><rect x="11" y="28" width="2" height="2"></rect></g></svg>