<svg xmlns="http://www.w3.org/2000/svg" viewBox="0 0 64 64" x="0px" y="0px"><g><rect x="54" y="10" width="2" height="2"></rect><rect x="58" y="10" width="4" height="2"></rect><rect x="54" y="14" width="8" height="2"></rect><path d="M45.8,53.387a22.976,22.976,0,0,0,0-36.774L48.414,14H52V12H48a1,1,0,0,0-.707.293l-3.172,3.172a22.931,22.931,0,0,0-27.092,2.1l-1.092-2.913A1,1,0,0,0,15,14H12v2h2.307l1.144,3.051a22.984,22.984,0,0,0,28.67,35.484l3.172,3.172A1,1,0,0,0,48,58h4V56H48.414Zm-3.094-33.68,1.649-1.649A20.958,20.958,0,0,1,52.949,34h-4A16.994,16.994,0,0,0,33,18.051v-4a20.818,20.818,0,0,1,9.652,2.883l-1.359,1.359ZM17,35a14.98,14.98,0,1,1,4.389,10.614A15.017,15.017,0,0,1,17,35Zm-6,0a20.886,20.886,0,0,1,5.243-13.836l.82,2.187,1.874-.7-1.149-3.064A20.885,20.885,0,0,1,31,14.051v4A16.97,16.97,0,0,0,19.3,46.284l-2.827,2.828A20.839,20.839,0,0,1,11,35ZM32,56a20.839,20.839,0,0,1-14.112-5.474L20.715,47.7A16.971,16.971,0,0,0,48.949,36h4a20.958,20.958,0,0,1-8.593,15.942l-1.649-1.649-1.414,1.414,1.359,1.359A20.837,20.837,0,0,1,32,56Z"></path><rect x="54" y="54" width="8" height="2"></rect><rect x="54" y="58" width="8" height="2"></rect><rect x="2" y="12" width="4" height="2"></rect><rect x="8" y="12" width="2" height="2"></rect><rect x="2" y="16" width="8" height="2"></rect><rect x="15" y="4" width="4" height="2"></rect><rect x="21" y="4" width="4" height="2"></rect><rect x="27" y="4" width="4" height="2"></rect><rect x="33" y="4" width="4" height="2"></rect><rect x="39" y="4" width="4" height="2"></rect><rect x="45" y="4" width="4" height="2"></rect></g></svg>