<svg xmlns="http://www.w3.org/2000/svg" viewBox="0 0 64 64" x="0px" y="0px"><g data-name="Flash Light"><path d="M47.678,26.222l-9.9-9.9-31.7,31.7,9.9,9.9ZM11.029,47.314,23.343,35l1.414,1.414L12.443,48.728Zm16.557-8.071L29,40.657,16.687,52.971l-1.415-1.414Z"></path><polygon points="4.665 52.263 11.736 59.334 11.737 59.335 13.151 57.92 6.08 50.849 4.665 52.263"></polygon><rect x="46.384" y="7.615" width="4.001" height="16" transform="translate(3.129 38.786) rotate(-44.999)"></rect><polygon points="51.014 23.902 40.098 12.985 39.037 14.753 49.247 24.962 51.014 23.902"></polygon><rect x="51.748" y="8.251" width="6" height="2" transform="translate(9.494 41.423) rotate(-45)"></rect><rect x="56.076" y="13.201" width="5.83" height="2" transform="translate(-1.683 14.731) rotate(-14.036)"></rect><rect x="46.883" y="4.009" width="5.831" height="1.999" transform="translate(32.851 52.102) rotate(-75.95)"></rect></g></svg>