<svg xmlns="http://www.w3.org/2000/svg" viewBox="0 0 64 64" x="0px" y="0px"><g><path d="M60,4H4v7H60ZM8,9H6V7H8Zm4,0H10V7h2Zm4,0H14V7h2Z"></path><rect x="4" y="13" width="6" height="47"></rect><path d="M30,47A12,12,0,1,0,18,35,12.013,12.013,0,0,0,30,47Zm5-13h2v2H35Zm-5,2a2.993,2.993,0,0,1-1-5.816V29h2v1.184A3,3,0,0,1,33,33H31a1,1,0,1,0-1,1,2.993,2.993,0,0,1,1,5.816V41H29V39.816A3,3,0,0,1,27,37h2a1,1,0,1,0,1-1Zm-7-2h2v2H23Z"></path><path d="M60,60V13H12V60ZM50,49H48V47h2Zm4,0H52V47h2Zm-3-6V41h2v2Zm3-6H46V35h8Zm4,12H56V47h2ZM56,35h2v2H56Zm-1,6h2v2H55ZM52,29h2v2H52ZM30,21a14,14,0,0,1,12.63,8H50v2H43.41a13.836,13.836,0,0,1-.78,10H49v2H41.473a14.09,14.09,0,0,1-4.3,4H46v2H30a14,14,0,0,1,0-28Z"></path></g></svg>