<svg xmlns="http://www.w3.org/2000/svg" viewBox="0 0 64 64" x="0px" y="0px"><g><path d="M48.305,39.683l-5.656-1.492A5.01,5.01,0,0,0,39,35.1v-.995A14.029,14.029,0,0,0,45.668,25H46a4,4,0,0,0,0-8V16a14,14,0,0,0-28,0v1a4,4,0,0,0,0,8h.332A14.029,14.029,0,0,0,25,34.106V35.1a5.01,5.01,0,0,0-3.649,3.09L15.7,39.683A12.988,12.988,0,0,0,6,52.25V61a1,1,0,0,0,1,1H57a1,1,0,0,0,1-1V52.25A12.988,12.988,0,0,0,48.305,39.683ZM41,40v1.171a3.009,3.009,0,0,0-2,0v-4A3.006,3.006,0,0,1,41,40Zm7-19a2,2,0,0,1-2,2V19A2,2,0,0,1,48,21ZM20,16a12,12,0,0,1,24,0v6c0,.338-.023.669-.051,1H39.828a1.009,1.009,0,0,1-.707-.293l-.828-.828A2.978,2.978,0,0,0,36.172,21H35V18H33v4a1,1,0,0,1-2,0V18H29v3H27.828a2.978,2.978,0,0,0-2.121.879l-.828.828a1.009,1.009,0,0,1-.707.293H20.051c-.028-.331-.051-.662-.051-1V16Zm-2,7a2,2,0,0,1,0-4v4ZM20.4,25h3.777a2.978,2.978,0,0,0,2.121-.879l.828-.828A1.009,1.009,0,0,1,27.828,23h1.356a2.982,2.982,0,0,0,5.632,0h1.356a1.009,1.009,0,0,1,.707.293l.828.828A2.978,2.978,0,0,0,39.828,25h3.777A11.982,11.982,0,0,1,20.4,25ZM32,36a13.894,13.894,0,0,0,5-.939v5.525l-5,5-5-5V35.061A13.894,13.894,0,0,0,32,36Zm-9,4a3.006,3.006,0,0,1,2-2.829v4a3.009,3.009,0,0,0-2,0ZM8,52.25a10.99,10.99,0,0,1,8.2-10.633L21,40.352V44a1,1,0,0,0,2,0,1,1,0,0,1,2,0,1,1,0,0,0,2,0v-.586l4,4V60H19V53H17v7H8ZM56,60H47V53H45v7H33V47.414l4-4V44a1,1,0,0,0,2,0,1,1,0,0,1,2,0,1,1,0,0,0,2,0V40.352l4.8,1.265A10.99,10.99,0,0,1,56,52.25Z"></path><path d="M38.71,17.29a1.017,1.017,0,0,0-1.09-.21,1.032,1.032,0,0,0-.33.21,1.155,1.155,0,0,0-.21.33A.838.838,0,0,0,37,18a1,1,0,1,0,2,0,1,1,0,0,0-.08-.38A1.155,1.155,0,0,0,38.71,17.29Z"></path><path d="M26.56,17.17a.776.776,0,0,0-.18-.09.609.609,0,0,0-.191-.06,1,1,0,0,0-.9.27A1.047,1.047,0,0,0,25,18a1.028,1.028,0,0,0,.29.71A1.05,1.05,0,0,0,26,19a1.2,1.2,0,0,0,.189-.02.609.609,0,0,0,.191-.06.776.776,0,0,0,.18-.09,1.712,1.712,0,0,0,.15-.12l.12-.15a.8.8,0,0,0,.09-.18.6.6,0,0,0,.059-.18A1.234,1.234,0,0,0,27,18a1.052,1.052,0,0,0-.29-.71A1.712,1.712,0,0,0,26.56,17.17Z"></path><rect x="24" y="13" width="16" height="2"></rect><rect x="28" y="10" width="8" height="2"></rect><path d="M37.953,27.655l-1.512-1.31A5.982,5.982,0,0,1,32,28a5.982,5.982,0,0,1-4.441-1.655l-1.512,1.31A7.89,7.89,0,0,0,32,30,7.89,7.89,0,0,0,37.953,27.655Z"></path></g></svg>