<svg xmlns="http://www.w3.org/2000/svg" viewBox="0 0 64 64" x="0px" y="0px"><g><path d="M60,12H4V57a3,3,0,0,0,3,3H57a3,3,0,0,0,3-3ZM24.727,41.863l-1.454,1.373a12,12,0,0,1,0-16.472l1.454,1.373a10,10,0,0,0,0,13.726ZM23.72,22.913l-3.658-2.846-2.994,3,2.845,3.658a1,1,0,0,1,.07,1.127,13.871,13.871,0,0,0-1.539,3.714,1,1,0,0,1-.845.747l-4.6.575v4.234l4.6.575a1,1,0,0,1,.845.747,13.871,13.871,0,0,0,1.539,3.714,1,1,0,0,1-.07,1.127l-2.845,3.658,2.994,2.995,3.658-2.846,1.228,1.578-4.355,3.388a1,1,0,0,1-1.321-.082l-4.243-4.243a1,1,0,0,1-.082-1.322l2.978-3.827a15.933,15.933,0,0,1-1.237-2.985l-4.812-.6A1,1,0,0,1,11,38V32a1,1,0,0,1,.876-.992l4.812-.6a15.933,15.933,0,0,1,1.237-2.985l-2.978-3.827a1,1,0,0,1,.082-1.322l4.243-4.243a1,1,0,0,1,1.321-.082l4.355,3.388ZM38,24V44a1,1,0,0,1-.1.447L35,50.236V54a3,3,0,0,1-6,0V50.236l-2.895-5.789A1,1,0,0,1,26,44V20a5.006,5.006,0,0,1,5-5h2a5.006,5.006,0,0,1,5,5ZM53,38a1,1,0,0,1-.876.992l-4.812.6a15.933,15.933,0,0,1-1.237,2.985l2.978,3.827a1,1,0,0,1-.082,1.322l-4.243,4.243a1,1,0,0,1-1.321.082l-4.355-3.388,1.228-1.578,3.658,2.846,2.994-2.995L44.087,43.28a1,1,0,0,1-.07-1.127,13.871,13.871,0,0,0,1.539-3.714,1,1,0,0,1,.845-.747l4.6-.575V32.883l-4.6-.575a1,1,0,0,1-.845-.747,13.871,13.871,0,0,0-1.539-3.714,1,1,0,0,1,.07-1.127l2.845-3.658-2.994-3L40.28,22.913l-1.228-1.578,4.355-3.388a1,1,0,0,1,1.321.082l4.243,4.243a1,1,0,0,1,.082,1.322l-2.978,3.827a15.933,15.933,0,0,1,1.237,2.985l4.812.6A1,1,0,0,1,53,32ZM39.273,28.137l1.454-1.373a12,12,0,0,1,0,16.472l-1.454-1.373a10,10,0,0,0,0-13.726Z"></path><rect x="28" y="25" width="8" height="2"></rect><polygon points="28.381 44.525 30.618 49 33.382 49 35.619 44.525 32 43.077 28.381 44.525"></polygon><polygon points="33 41.323 36 42.523 36 29 33 29 33 41.323"></polygon><path d="M31,54a1,1,0,0,0,2,0V51H31Z"></path><path d="M33,17H31a3,3,0,0,0-3,3v3h8V20A3,3,0,0,0,33,17Z"></path><path d="M60,7a3,3,0,0,0-3-3H7A3,3,0,0,0,4,7v3H60ZM9.71,7.71a1.155,1.155,0,0,1-.33.21.943.943,0,0,1-.76,0,1.155,1.155,0,0,1-.33-.21.99.99,0,0,1-.21-1.09,1.032,1.032,0,0,1,.21-.33.955.955,0,0,1,.16-.12.556.556,0,0,1,.17-.09.636.636,0,0,1,.18-.06.949.949,0,0,1,.58.06,1.155,1.155,0,0,1,.33.21,1.032,1.032,0,0,1,.21.33.99.99,0,0,1-.21,1.09Zm4,0a1.155,1.155,0,0,1-.33.21.942.942,0,0,1-.76,0,1.155,1.155,0,0,1-.33-.21.99.99,0,0,1-.21-1.09,1.032,1.032,0,0,1,.21-.33,1.155,1.155,0,0,1,.33-.21.949.949,0,0,1,.58-.06.636.636,0,0,1,.18.06.757.757,0,0,1,.18.09,1.576,1.576,0,0,1,.15.12,1.155,1.155,0,0,1,.21.33A.838.838,0,0,1,14,7,.99.99,0,0,1,13.71,7.71Zm4,0a1.155,1.155,0,0,1-.33.21.942.942,0,0,1-.76,0,1.155,1.155,0,0,1-.33-.21,1.169,1.169,0,0,1-.21-.33A.838.838,0,0,1,16,7a1,1,0,0,1,.08-.38,1.032,1.032,0,0,1,.21-.33.955.955,0,0,1,.16-.12.556.556,0,0,1,.17-.09.636.636,0,0,1,.18-.06.949.949,0,0,1,.58.06,1.155,1.155,0,0,1,.33.21,1.032,1.032,0,0,1,.21.33.99.99,0,0,1-.21,1.09Z"></path><polygon points="31 29 28 29 28 42.523 31 41.323 31 29"></polygon></g></svg>