<svg xmlns="http://www.w3.org/2000/svg" viewBox="0 0 64 64" x="0px" y="0px"><g><rect x="23" y="23" width="2" height="2"></rect><rect x="31" y="23" width="2" height="2"></rect><rect x="23" y="31" width="2" height="2"></rect><rect x="47" y="31" width="2" height="2"></rect><rect x="31" y="39" width="2" height="2"></rect><rect x="31" y="47" width="2" height="2"></rect><rect x="31" y="31" width="2" height="2"></rect><rect x="39" y="31" width="2" height="2"></rect><path d="M60,55V9H4V55Zm-2-3a1,1,0,0,1-1,1H47V51h9V42h2ZM47,11H57a1,1,0,0,1,1,1V22H56V13H47ZM45,30a1,1,0,0,1,1-1h4a1,1,0,0,1,1,1v4a1,1,0,0,1-1,1H46a1,1,0,0,1-1-1Zm-8-8a1,1,0,0,1,1-1h4a1,1,0,0,1,1,1v4a1,1,0,0,1-1,1H38a1,1,0,0,1-1-1Zm0,8a1,1,0,0,1,1-1h4a1,1,0,0,1,1,1v4a1,1,0,0,1-1,1H38a1,1,0,0,1-1-1Zm0,8a1,1,0,0,1,1-1h4a1,1,0,0,1,1,1v4a1,1,0,0,1-1,1H38a1,1,0,0,1-1-1ZM29,14a1,1,0,0,1,1-1h4a1,1,0,0,1,1,1v4a1,1,0,0,1-1,1H30a1,1,0,0,1-1-1Zm0,8a1,1,0,0,1,1-1h4a1,1,0,0,1,1,1v4a1,1,0,0,1-1,1H30a1,1,0,0,1-1-1Zm0,8a1,1,0,0,1,1-1h4a1,1,0,0,1,1,1v4a1,1,0,0,1-1,1H30a1,1,0,0,1-1-1Zm0,8a1,1,0,0,1,1-1h4a1,1,0,0,1,1,1v4a1,1,0,0,1-1,1H30a1,1,0,0,1-1-1Zm0,8a1,1,0,0,1,1-1h4a1,1,0,0,1,1,1v4a1,1,0,0,1-1,1H30a1,1,0,0,1-1-1ZM21,22a1,1,0,0,1,1-1h4a1,1,0,0,1,1,1v4a1,1,0,0,1-1,1H22a1,1,0,0,1-1-1Zm0,8a1,1,0,0,1,1-1h4a1,1,0,0,1,1,1v4a1,1,0,0,1-1,1H22a1,1,0,0,1-1-1Zm0,8a1,1,0,0,1,1-1h4a1,1,0,0,1,1,1v4a1,1,0,0,1-1,1H22a1,1,0,0,1-1-1Zm-2-8v4a1,1,0,0,1-1,1H14a1,1,0,0,1-1-1V30a1,1,0,0,1,1-1h4A1,1,0,0,1,19,30ZM6,12a1,1,0,0,1,1-1H17v2H8v9H6ZM6,42H8v9h9v2H7a1,1,0,0,1-1-1Z"></path><rect x="23" y="39" width="2" height="2"></rect><rect x="39" y="23" width="2" height="2"></rect><rect x="39" y="39" width="2" height="2"></rect><rect x="31" y="15" width="2" height="2"></rect><rect x="15" y="31" width="2" height="2"></rect></g></svg>