<svg xmlns="http://www.w3.org/2000/svg" viewBox="0 0 64 64" x="0px" y="0px"><g><path d="M33.293,30.707c-.139-.139-.72-.312-2.022-.075a8.733,8.733,0,0,0-4.61,2.465l-6.1,6.095,1.414,1.415,4.243-4.243,1.414,1.414-4.243,4.243,1.415,1.414,6.095-6.1a8.732,8.732,0,0,0,2.465-4.611C33.6,31.429,33.432,30.846,33.293,30.707Zm-3.07,5.266-.549-1.647-1.647-.549.633-1.9,2.121.707a1,1,0,0,1,.632.632l.707,2.121Z"></path><path d="M25.515,45.556a1,1,0,0,1-.707.293,1.014,1.014,0,0,1-.209-.04l-.061.185,2.078,2.078,2.365-5.2a1,1,0,0,0,.006-.785Z"></path><polygon points="20.565 43.435 20.567 43.437 20.762 43.632 21.705 43.161 20.839 42.295 20.368 43.238 20.562 43.432 20.565 43.435"></polygon><path d="M21.131,35.02l-5.2,2.364,2.077,2.078.185-.061a.983.983,0,0,1,.253-.916l3.473-3.472A.99.99,0,0,0,21.131,35.02Z"></path><rect x="19.979" y="50.92" width="4" height="2" transform="translate(-30.276 30.749) rotate(-45)"></rect><rect x="10.08" y="41.021" width="4" height="2" transform="translate(-26.175 20.849) rotate(-45)"></rect><rect x="34.828" y="41.728" width="4" height="2" transform="translate(-19.426 38.556) rotate(-45)"></rect><rect x="32.293" y="45.264" width="2" height="2" transform="translate(-22.963 37.102) rotate(-45.01)"></rect><rect x="19.272" y="26.172" width="4" height="2" transform="translate(-12.983 23) rotate(-45)"></rect><rect x="16.737" y="29.707" width="2" height="2" transform="translate(-16.518 21.536) rotate(-45)"></rect><path d="M40,18v1a1,1,0,0,1-.293.707L39,20.414v1.354a8.965,8.965,0,0,0,3.888-1.977L40.649,18Z"></path><path d="M43,15a1,1,0,0,1-.316-.051l-3-1A1,1,0,0,1,39,13V10a1,1,0,0,1,.553-.895L41,8.382V7a1,1,0,0,1,.1-.447l.6-1.208a8.856,8.856,0,0,0-6.773-1.1L35.8,5.4A1,1,0,0,1,36,6V8.586l.707.707A1,1,0,0,1,37,10v2a1,1,0,0,1-.445.832L34,14.535v.847l1.447.723A1,1,0,0,1,36,17v2a1,1,0,0,1-1,1H32a.993.993,0,0,1-.394-.081l-.667-.285A8.957,8.957,0,0,0,37,22V20a1,1,0,0,1,.293-.707L38,18.586V17a1,1,0,0,1,1-1h2a1,1,0,0,1,.625.219l2.62,2.1A8.948,8.948,0,0,0,45.768,15Z"></path><path d="M43.318,6.6,43,7.236V9a1,1,0,0,1-.553.895L41,10.618v1.661L43.162,13H46A8.97,8.97,0,0,0,43.318,6.6Z"></path><path d="M28.71,16.5,32.205,18H34v-.382L32.553,16.9A1,1,0,0,1,32,16V14a1,1,0,0,1,.445-.832L35,11.465V10.414l-.707-.707A1,1,0,0,1,34,9V6.333l-1.028-1.37A8.985,8.985,0,0,0,28.71,16.5Z"></path><path d="M53,29a4,4,0,1,0,4,4A4,4,0,0,0,53,29Zm-1,4V31h2v2Zm3,3H53V34h2Z"></path><path d="M50.279,57.215l1.6.254L50.735,56.32a1,1,0,0,1-.184-1.16l.737-1.448h0l.005-.012-1.453.75a1,1,0,0,1-1.16-.184l-1.149-1.148.254,1.6a1,1,0,0,1-.534,1.048l-1.447.737,1.6.254a1,1,0,0,1,.832.832l.254,1.6.737-1.447A1.008,1.008,0,0,1,50.279,57.215Z"></path><path d="M9.749,12.769a1,1,0,0,1-.534-1.048l.254-1.605L8.32,11.265a1,1,0,0,1-1.16.184l-1.448-.737h0l-.012,0,.75,1.453a1,1,0,0,1-.184,1.16L5.117,14.469l1.6-.254a1.038,1.038,0,0,1,.157-.012,1,1,0,0,1,.891.546L8.506,16.2l.254-1.6a1,1,0,0,1,.832-.832l1.6-.254Z"></path><rect x="29.757" y="53" width="8.485" height="2" transform="translate(-28.225 39.858) rotate(-45)"></rect><rect x="26.586" y="59" width="2.828" height="2" transform="translate(-34.225 37.373) rotate(-45)"></rect><rect x="5.964" y="28.5" width="7.071" height="2" transform="translate(-18.077 15.358) rotate(-45)"></rect><rect x="3.189" y="33.75" width="2.121" height="2" transform="translate(-23.327 13.183) rotate(-45)"></rect><rect x="16.586" y="55" width="2.828" height="2" transform="translate(-34.326 29.13) rotate(-45)"></rect><rect x="6.586" y="45" width="2.828" height="2" transform="translate(-30.184 19.13) rotate(-45)"></rect><rect x="53" y="10" width="2" height="2"></rect><rect x="58" y="16" width="2" height="2"></rect><rect x="18" y="4" width="2" height="2"></rect><rect x="19" y="15" width="2" height="2"></rect><path d="M19.15,44.849a1,1,0,0,0-1.414,0,6.2,6.2,0,0,0-1.354,2.768,6.206,6.206,0,0,0,2.769-1.354A1,1,0,0,0,19.15,44.849Z"></path></g></svg>