<svg xmlns="http://www.w3.org/2000/svg" viewBox="0 0 64 64" x="0px" y="0px"><g data-name="coffee cup-coffee mug-espresso-drink-coffee"><path d="M22,19h2a2.258,2.258,0,0,1,.759-1.681,4.207,4.207,0,0,0,0-5.967,2.248,2.248,0,0,1,0-3.368A4.163,4.163,0,0,0,26,5H24a2.267,2.267,0,0,1-.759,1.684,4.208,4.208,0,0,0,0,5.968,2.244,2.244,0,0,1,0,3.365A4.162,4.162,0,0,0,22,19Z"></path><path d="M30,19h2a2.258,2.258,0,0,1,.759-1.681,4.207,4.207,0,0,0,0-5.967,2.248,2.248,0,0,1,0-3.368A4.163,4.163,0,0,0,34,5H32a2.267,2.267,0,0,1-.759,1.684,4.208,4.208,0,0,0,0,5.968,2.244,2.244,0,0,1,0,3.365A4.162,4.162,0,0,0,30,19Z"></path><path d="M10,58H47a3.014,3.014,0,0,0,2.83-2H7.17A3.014,3.014,0,0,0,10,58Z"></path><path d="M54.79,30.11a5.838,5.838,0,0,0-3.338-1.332c.287-1.236.54-2.5.748-3.778H4.8c1.53,9.42,5.26,17.73,10.31,22.95A10.119,10.119,0,0,1,17.95,54h21.1a10.119,10.119,0,0,1,2.84-6.05,28.793,28.793,0,0,0,2.686-3.237c2.98,1.324,7.018.078,9.784-3.213C57.61,37.63,57.79,32.63,54.79,30.11Zm-1.96,10.1a7.84,7.84,0,0,1-5.7,3.07,4.264,4.264,0,0,1-1.432-.245,45.473,45.473,0,0,0,5.254-12.287,3.952,3.952,0,0,1,2.548.882C55.65,33.44,55.35,37.2,52.83,40.21Z"></path></g></svg>