<svg xmlns="http://www.w3.org/2000/svg" viewBox="0 0 64 64" x="0px" y="0px"><title>Download</title><g><path d="M59,2H5A3,3,0,0,0,2,5V45a3,3,0,0,0,3,3H22.9l-.8,8H19a1,1,0,0,0-1,1v3H16v2H48V60H46V57a1,1,0,0,0-1-1H41.905l-.8-8H59a3,3,0,0,0,3-3V5A3,3,0,0,0,59,2ZM44,60H20V58H44Zm-4.1-4H24.105l.8-8H39.1ZM60,45a1,1,0,0,1-1,1H5a1,1,0,0,1-1-1V5A1,1,0,0,1,5,4H59a1,1,0,0,1,1,1Z"></path><path d="M56,6H8A2,2,0,0,0,6,8V39a1,1,0,0,0,1,1H57a1,1,0,0,0,1-1V8A2,2,0,0,0,56,6Zm0,32H8V8H56Z"></path><rect x="31" y="42" width="2" height="2"></rect><path d="M32,30a1,1,0,0,0,.707-.293l6-6-1.414-1.414L33,26.586V12H31V26.586l-4.293-4.293-1.414,1.414,6,6A1,1,0,0,0,32,30Z"></path><path d="M23,34H41a1,1,0,0,0,1-1V31H40v1H24V31H22v2A1,1,0,0,0,23,34Z"></path></g></svg>