<svg xmlns="http://www.w3.org/2000/svg" viewBox="0 0 64 64" x="0px" y="0px"><g data-name="Door Hanger"><path d="M37,45a5.018,5.018,0,0,0-.05-.707l-5.656,5.658A5.146,5.146,0,0,0,32,50,5.006,5.006,0,0,0,37,45Z"></path><path d="M32,54a9,9,0,1,0-9-9A9.01,9.01,0,0,0,32,54Zm5.575-12.566a1,1,0,0,1,.735.548A6.843,6.843,0,0,1,39,45a7.008,7.008,0,0,1-7,7,6.827,6.827,0,0,1-3.018-.691,1,1,0,0,1-.269-1.606l7.99-7.99A1,1,0,0,1,37.575,41.434ZM32,38a6.827,6.827,0,0,1,3.018.691,1,1,0,0,1,.269,1.606l-7.99,7.99a1,1,0,0,1-.707.293.911.911,0,0,1-.165-.014,1,1,0,0,1-.735-.548A6.843,6.843,0,0,1,25,45,7.008,7.008,0,0,1,32,38Z"></path><path d="M32.706,40.049A5.146,5.146,0,0,0,32,40a5,5,0,0,0-4.95,5.707Z"></path><path d="M19,59a1,1,0,0,0,1,1H44a1,1,0,0,0,1-1V15a11,11,0,0,0-22,0v1a1,1,0,0,0,2,0V15a9.033,9.033,0,0,1,2.856-6.572,8.933,8.933,0,0,1,6.758-2.407A9.173,9.173,0,0,1,43,15.283V16A11.013,11.013,0,0,1,32,27H26a7.008,7.008,0,0,0-7,7ZM32,34A11,11,0,1,1,21,45,11.013,11.013,0,0,1,32,34Z"></path></g></svg>