<svg xmlns="http://www.w3.org/2000/svg" viewBox="0 0 64 64" x="0px" y="0px"><g><circle cx="21" cy="38" r="2"></circle><path d="M51,39H34.858a3.981,3.981,0,0,1-7.716,0H24.858a3.981,3.981,0,0,1-7.716,0H13V49H38.142a3.981,3.981,0,0,1,7.716,0H51Z"></path><circle cx="42" cy="50" r="2"></circle><path d="M38.142,51H13v9H51V51H45.858a3.981,3.981,0,0,1-7.716,0Z"></path><circle cx="31" cy="38" r="2"></circle><path d="M51,15H34.858a3.981,3.981,0,0,1-7.716,0H24.858a3.981,3.981,0,0,1-7.716,0H13V25H34.142a3.981,3.981,0,0,1,7.716,0H51Z"></path><circle cx="21" cy="14" r="2"></circle><circle cx="31" cy="14" r="2"></circle><path d="M51,27H41.858a3.981,3.981,0,0,1-7.716,0H13V37h4.142a3.981,3.981,0,0,1,7.716,0h2.284a3.981,3.981,0,0,1,7.716,0H51Z"></path><circle cx="38" cy="26" r="2"></circle><path d="M51,4H13v9h4.142a3.981,3.981,0,0,1,7.716,0h2.284a3.981,3.981,0,0,1,7.716,0H51Z"></path></g></svg>