<svg xmlns="http://www.w3.org/2000/svg" viewBox="0 0 64 64" x="0px" y="0px"><g data-name="Payment-Money"><path d="M56,56.171V50a10.011,10.011,0,0,0-8.236-9.835,2.991,2.991,0,0,0-1.131-3.676L48.8,33.6A1,1,0,0,0,48,32H40a1,1,0,0,0-.8,1.6l2.167,2.889a2.991,2.991,0,0,0-1.131,3.676A9.927,9.927,0,0,0,38,40.841V38a3,3,0,0,0-3-3H33V26H52a1,1,0,0,0,1-1A21.008,21.008,0,0,0,33,4.051V2H31V4.051A21.008,21.008,0,0,0,11,25a1,1,0,0,0,1,1H31v9H9a3,3,0,0,0-3,3V56a3,3,0,0,0,3,3H30a3,3,0,0,0,3,3H55a3,3,0,0,0,1-5.829ZM33,6.1c4.8.954,8.7,8.68,8.972,17.9H33ZM50.974,24h-7c-.186-7.228-2.362-13.384-5.623-16.886A19.023,19.023,0,0,1,50.974,24ZM25.651,7.114c-3.261,3.5-5.437,9.658-5.623,16.886h-7A19.023,19.023,0,0,1,25.651,7.114ZM22.028,24C22.3,14.78,26.2,7.054,31,6.1V24ZM42,39a1,1,0,0,1,1-1h2a1,1,0,0,1,0,2H43A1,1,0,0,1,42,39Zm4-5-1.5,2h-1L42,34ZM9,37H35a1,1,0,0,1,1,1v1.184A2.966,2.966,0,0,0,35,39H9a2.966,2.966,0,0,0-1,.184V38A1,1,0,0,1,9,37Zm0,4H35a1,1,0,0,1,1,1v.019A10.048,10.048,0,0,0,34.871,43H9a2.966,2.966,0,0,0-1,.184V42A1,1,0,0,1,9,41ZM9,57a1,1,0,0,1-1-1V46a1,1,0,0,1,1-1H33.353A9.928,9.928,0,0,0,32,50v6.171A3,3,0,0,0,30.775,57Zm46,3H33a1,1,0,0,1,0-2,1,1,0,0,0,1-1V50a8.009,8.009,0,0,1,8-8h4a8.009,8.009,0,0,1,8,8v7a1,1,0,0,0,1,1,1,1,0,0,1,0,2Z"></path><path d="M44,48a1,1,0,0,1,1,1h2a3,3,0,0,0-2-2.816V44H43v2.184A2.993,2.993,0,0,0,44,52a1,1,0,1,1-1,1H41a3,3,0,0,0,2,2.816V58h2V55.816A2.993,2.993,0,0,0,44,50a1,1,0,0,1,0-2Z"></path><rect x="49" y="51" width="2" height="2"></rect><rect x="37" y="51" width="2" height="2"></rect><path d="M22,47a4,4,0,1,0,4,4A4,4,0,0,0,22,47Zm0,6a2,2,0,1,1,2-2A2,2,0,0,1,22,53Z"></path><rect x="28" y="50" width="2" height="2"></rect><rect x="14" y="50" width="2" height="2"></rect><path d="M55,25h2c0-.7-.028-1.4-.085-2.083l-1.994.166C54.974,23.712,55,24.357,55,25Z"></path><path d="M56.654,20.834a24.763,24.763,0,0,0-3-8.335l-1.73,1a22.787,22.787,0,0,1,2.758,7.665Z"></path><path d="M15.737,8.736,14.321,7.323a26,26,0,0,0-1.838,2.051l1.561,1.252A23.411,23.411,0,0,1,15.737,8.736Z"></path><path d="M12.833,12.283l-1.666-1.108A24.987,24.987,0,0,0,7.085,22.918l1.994.164A22.951,22.951,0,0,1,12.833,12.283Z"></path></g></svg>