<svg xmlns="http://www.w3.org/2000/svg" viewBox="0 0 64 64" x="0px" y="0px"><g data-name="Money bag-Time is money-Money-Coins-Clock"><path d="M11,47a1,1,0,0,0,1,1H24a1,1,0,0,0,1-1V45a1,1,0,0,0-1-1H23v2H21V44H19v2H17V44H15v2H13V44H12a1,1,0,0,0-1,1Z"></path><path d="M11,41a1,1,0,0,0,1,1H24a1,1,0,0,0,1-1V39a1,1,0,0,0-1-1H23v2H21V38H19v2H17V38H15v2H13V38H12a1,1,0,0,0-1,1Z"></path><path d="M11,53a1,1,0,0,0,1,1H24a1,1,0,0,0,1-1V51a1,1,0,0,0-1-1H23v2H21V50H19v2H17V50H15v2H13V50H12a1,1,0,0,0-1,1Z"></path><path d="M47,34A13,13,0,1,0,60,47,13.012,13.012,0,0,0,47,34Zm0,24A11,11,0,1,1,58,47,11.013,11.013,0,0,1,47,58Z"></path><path d="M33.74,54a15.147,15.147,0,0,1-1.44-4H31v2H29V50H28a1,1,0,0,0-1,1v2a1,1,0,0,0,1,1Z"></path><path d="M12,32a1,1,0,0,0-1,1v2a1,1,0,0,0,1,1H24a1,1,0,0,0,1-1V33a1,1,0,0,0-1-1H23v2H21V32H19v2H17V32H15v2H13V32Z"></path><path d="M54,46h1.941a8.956,8.956,0,0,0-1.916-4.611l-1.368,1.368-1.414-1.414,1.368-1.368A8.956,8.956,0,0,0,48,38.059V40H46V38.059a8.956,8.956,0,0,0-4.611,1.916l1.368,1.368-1.414,1.414-1.368-1.368A8.956,8.956,0,0,0,38.059,46H40v2H38.059a8.956,8.956,0,0,0,1.916,4.611l1.368-1.368,1.414,1.414-1.368,1.368A8.956,8.956,0,0,0,46,55.941V54h2v1.941a8.956,8.956,0,0,0,4.611-1.916l-1.368-1.368,1.414-1.414,1.368,1.368A8.956,8.956,0,0,0,55.941,48H54Zm-6,1a1,1,0,0,1-.293.707l-2,2-1.414-1.414L46,46.586V42h2Z"></path><path d="M31,4a2.591,2.591,0,0,0-1.87.78,4.612,4.612,0,0,1-6.25,0A2.6,2.6,0,0,0,21,4a2.557,2.557,0,0,0-1.87.78,5.568,5.568,0,0,1-1.53.95L22.57,14h6.86L34.4,5.72a5.132,5.132,0,0,1-1.52-.94A2.6,2.6,0,0,0,31,4Z"></path><path d="M30,18a1,1,0,0,0,0-2H22a1,1,0,0,0,0,2Z"></path><path d="M35.03,38H35v.04C35.01,38.03,35.02,38.01,35.03,38Z"></path><path d="M44.96,32.16A13.018,13.018,0,0,0,32,20H30.46A5.979,5.979,0,0,1,32,24v1H30V24a4,4,0,0,0-8,0v1H20V24a5.979,5.979,0,0,1,1.54-4H20A13.012,13.012,0,0,0,7,33V46.38a5,5,0,0,1-2.16,4A2,2,0,0,0,4,52.11,2.127,2.127,0,0,0,6.17,54H9.18A3,3,0,0,1,9,53V51a2.974,2.974,0,0,1,.78-2A2.974,2.974,0,0,1,9,47V45a2.974,2.974,0,0,1,.78-2A2.974,2.974,0,0,1,9,41V39a2.974,2.974,0,0,1,.78-2A2.974,2.974,0,0,1,9,35V33a3.009,3.009,0,0,1,3-3H24a3.009,3.009,0,0,1,3,3v2a2.923,2.923,0,0,1-.32,1.32A2.923,2.923,0,0,1,28,36h8.84A14.822,14.822,0,0,1,44.96,32.16Z"></path><path d="M33,40V38H31v2H29V38H28a1,1,0,0,0-1,1v2a1,1,0,0,0,1,1h4.88a14.175,14.175,0,0,1,.86-2Z"></path><path d="M28,44a1,1,0,0,0-1,1v2a1,1,0,0,0,1,1h4.05c-.02-.33-.05-.66-.05-1a14.819,14.819,0,0,1,.3-3H31v2H29V44Z"></path></g></svg>