<svg xmlns="http://www.w3.org/2000/svg" viewBox="0 0 32 32" x="0px" y="0px"><title>File Location</title><g data-name="File Location"><path d="M28,1a1,1,0,0,0-1-1H5A1,1,0,0,0,4,1V31a1,1,0,0,0,1,1H21a1.008,1.008,0,0,0,.416-.091,1,1,0,0,0,.343-.259l6-7a.994.994,0,0,0,.164-.278c.013-.031.018-.064.028-.1a.977.977,0,0,0,.039-.22c0-.019.01-.037.01-.056ZM6,2H26V23H21a1,1,0,0,0-1,1v6H6ZM22,25h2.826L22,28.3Z"></path><path d="M16,10a3,3,0,1,0,3,3A3,3,0,0,0,16,10Zm0,4a1,1,0,1,1,1-1A1,1,0,0,1,16,14Z"></path><path d="M22,12.875a6,6,0,0,0-12,0c0,4.487,5.15,8.723,5.37,8.9a1,1,0,0,0,1.26,0C16.85,21.6,22,17.362,22,12.875Zm-6,6.792c-1.511-1.407-4-4.255-4-6.792a4,4,0,0,1,8,0C20,15.606,17.261,18.483,16,19.667Z"></path></g></svg>