<svg xmlns="http://www.w3.org/2000/svg" viewBox="0 0 64 64" x="0px" y="0px"><g><path d="M27.6,48.95a1.024,1.024,0,0,0-.42-.65.966.966,0,0,0-.74-.16l-.99.17L24.41,42.4a1.07,1.07,0,0,0-.22-.47l-4.97-5.92L17.35,25.37a3.009,3.009,0,0,0-1.24-1.94,2.97,2.97,0,0,0-2.24-.49,3.016,3.016,0,0,0-2.95-2.49,3.151,3.151,0,0,0-.52.05,4,4,0,1,0-7.88,1.39L6.68,45.53a1.007,1.007,0,0,0,.33.57l4.54,4,.12.64-.99.18a.99.99,0,0,0-.81,1.15l1.39,7.88a1,1,0,0,0,.98.83,1.1,1.1,0,0,0,.18-.02l15.75-2.78a.982.982,0,0,0,.81-1.15ZM14.96,25.07a1.05,1.05,0,0,1,.42.65l1.27,7.23-1.29-1.54-1.14-6.5A.975.975,0,0,1,14.96,25.07ZM11.9,23.28l1.17,6.63a3.646,3.646,0,0,0-1.04-.11l-1.29-7.33A1,1,0,0,1,11.9,23.28ZM8.59,44.83,4.49,21.54a1.993,1.993,0,0,1,1.62-2.31,1.937,1.937,0,0,1,1.49.33,2.038,2.038,0,0,1,.83,1.29l1.67,9.5a3.9,3.9,0,0,0-.54.36,4,4,0,0,0-.5,5.64l6.04,7.19,1.53-1.28-6.03-7.2a2,2,0,0,1,.24-2.81,2.007,2.007,0,0,1,2.82.24l8.83,10.52.99,5.65-9.85,1.73-.17-.98a1.018,1.018,0,0,0-.32-.58Zm4.46,13.79-1.04-5.91L25.8,50.28l1.04,5.91Z"></path><path d="M60.82,18.9a4,4,0,0,0-7.21,1.6H53.6a3.008,3.008,0,0,0-3.47,2.44,3.287,3.287,0,0,0-.54-.05,2.933,2.933,0,0,0-1.7.54,3.009,3.009,0,0,0-1.24,1.94L44.78,36.01l-4.97,5.92a1.279,1.279,0,0,0-.23.52l-1.03,5.86-.99-.17a.966.966,0,0,0-.74.16,1.024,1.024,0,0,0-.42.65l-1.38,7.88a.982.982,0,0,0,.81,1.15l15.75,2.78a1.1,1.1,0,0,0,.18.02,1,1,0,0,0,.98-.83l1.39-7.88a.99.99,0,0,0-.81-1.15l-.99-.18.12-.64,4.54-4a1.007,1.007,0,0,0,.33-.57l4.16-23.64A3.975,3.975,0,0,0,60.82,18.9ZM52.1,23.28a1.012,1.012,0,0,1,1.16-.81L51.97,29.8a3.646,3.646,0,0,0-1.04.11Zm-3.48,2.44a1.05,1.05,0,0,1,.42-.65.975.975,0,0,1,.74-.16l-1.14,6.5-1.29,1.54Zm2.33,32.9L37.16,56.19l1.04-5.91,13.79,2.43Zm8.56-37.08-4.1,23.29-4.55,4a1.018,1.018,0,0,0-.32.58l-.17.98-9.85-1.73.99-5.65,8.83-10.52a2.007,2.007,0,0,1,2.82-.24,2,2,0,0,1,.24,2.81l-6.03,7.2,1.53,1.28,6.04-7.19a4,4,0,0,0-.5-5.64,3.9,3.9,0,0,0-.54-.36l1.67-9.5a2.038,2.038,0,0,1,.83-1.29,2,2,0,0,1,3.11,1.98Z"></path><path d="M33,16.05V14h1a5,5,0,0,0,5-5V7a1,1,0,0,0-1-1H36a4.962,4.962,0,0,0-3.32,1.29A5,5,0,0,0,28,4H26a1,1,0,0,0-1,1V7a5,5,0,0,0,5,5h1v4.05a11,11,0,1,0,2,0ZM33,11a3.009,3.009,0,0,1,3-3h1V9a3.009,3.009,0,0,1-3,3H33Zm5,12V21.24l.32-.64A8.983,8.983,0,0,1,41,27H38.16L36,26.28V24.62l1.45-.73A.988.988,0,0,0,38,23ZM30,10a3.009,3.009,0,0,1-3-3V6h1a3.009,3.009,0,0,1,3,3v1ZM23.71,30.5A8.861,8.861,0,0,1,23,27a9.014,9.014,0,0,1,4.97-8.04L29,20.33V23a1.033,1.033,0,0,0,.29.71l.71.7v1.05l-2.55,1.71A1,1,0,0,0,27,28v2a.988.988,0,0,0,.55.89l1.45.73V32H27.21ZM34,35.77V34.41l.71-.7A1.033,1.033,0,0,0,35,33V32h.65l2.24,1.79A9.116,9.116,0,0,1,34,35.77Zm5.25-3.45-2.63-2.1A.977.977,0,0,0,36,30H34a1,1,0,0,0-1,1v1.59l-.71.7A1.033,1.033,0,0,0,32,34v2a8.918,8.918,0,0,1-6.06-2.37l.67.29A1.006,1.006,0,0,0,27,34h3a1,1,0,0,0,1-1V31a.988.988,0,0,0-.55-.89L29,29.38v-.84l2.55-1.71A1,1,0,0,0,32,26V24a1.033,1.033,0,0,0-.29-.71l-.71-.7V20a.984.984,0,0,0-.2-.6l-.86-1.15A8.737,8.737,0,0,1,32,18a8.9,8.9,0,0,1,4.71,1.35l-.6,1.2A1,1,0,0,0,36,21v1.38l-1.45.73A.988.988,0,0,0,34,24v3a1.014,1.014,0,0,0,.68.95l3,1A1.185,1.185,0,0,0,38,29h2.77A9.145,9.145,0,0,1,39.25,32.32Z"></path></g></svg>