<svg xmlns="http://www.w3.org/2000/svg" viewBox="0 0 64 64" x="0px" y="0px"><g><rect x="25" y="44" width="16" height="6"></rect><rect x="26" y="52" width="14" height="9"></rect><path d="M42,14.5a1.5,1.5,0,0,0-3,0V22a1,1,0,0,1-2,0V9.5a1.5,1.5,0,0,0-3,0V22a1,1,0,0,1-2,0V5.5a1.5,1.5,0,0,0-3,0V22a1,1,0,0,1-2,0V9.5a1.5,1.5,0,0,0-3,0V25a7.008,7.008,0,0,1,7,7v2H29V32a5,5,0,0,0-5-5H23a1,1,0,0,1-.87-.5l-2.75-4.76a1.5,1.5,0,1,0-2.59,1.5l9.08,15.72a1.128,1.128,0,0,1,.13.5V42H40V39a1.185,1.185,0,0,1,.05-.32L42,32.84Z"></path><rect x="52" y="8" width="2" height="2"></rect><path d="M57.9,8a4.961,4.961,0,0,0-.732-1.753l1.49-1.49L57.243,3.343l-1.49,1.49A4.961,4.961,0,0,0,54,4.1V2H52V4.1a4.961,4.961,0,0,0-1.753.732l-1.49-1.49L47.343,4.757l1.49,1.49A4.961,4.961,0,0,0,48.1,8H46v2h2.1a4.961,4.961,0,0,0,.732,1.753l-1.49,1.49,1.414,1.414,1.49-1.49A4.961,4.961,0,0,0,52,13.9V16h2V13.9a4.961,4.961,0,0,0,1.753-.732l1.49,1.49,1.414-1.414-1.49-1.49A4.961,4.961,0,0,0,57.9,10H60V8ZM53,12a3,3,0,1,1,3-3A3,3,0,0,1,53,12Z"></path><path d="M15.167,41.247l1.49-1.49-1.414-1.414-1.49,1.49A4.961,4.961,0,0,0,12,39.1V37H10v2.1a4.961,4.961,0,0,0-1.753.732l-1.49-1.49L5.343,39.757l1.49,1.49A4.961,4.961,0,0,0,6.1,43H4v2H6.1a4.961,4.961,0,0,0,.732,1.753l-1.49,1.49,1.414,1.414,1.49-1.49A4.961,4.961,0,0,0,10,48.9V51h2V48.9a4.961,4.961,0,0,0,1.753-.732l1.49,1.49,1.414-1.414-1.49-1.49A4.961,4.961,0,0,0,15.9,45H18V43H15.9A4.961,4.961,0,0,0,15.167,41.247ZM11,47a3,3,0,1,1,3-3A3,3,0,0,1,11,47Z"></path><rect x="10" y="43" width="2" height="2"></rect><path d="M7.567,14.019,6.05,15.535l1.414,1.414,1.517-1.516A3.915,3.915,0,0,0,10,15.858V18h2V15.858a3.915,3.915,0,0,0,1.019-.425l1.517,1.516,1.414-1.414-1.517-1.516A3.915,3.915,0,0,0,14.858,13H17V11H14.858a3.915,3.915,0,0,0-.425-1.019L15.95,8.465,14.536,7.051,13.019,8.567A3.915,3.915,0,0,0,12,8.142V6H10V8.142a3.915,3.915,0,0,0-1.019.425L7.464,7.051,6.05,8.465,7.567,9.981A3.915,3.915,0,0,0,7.142,11H5v2H7.142A3.915,3.915,0,0,0,7.567,14.019ZM11,10a2,2,0,1,1-2,2A2,2,0,0,1,11,10Z"></path><path d="M49.567,42.019,48.05,43.535l1.414,1.414,1.517-1.516A3.915,3.915,0,0,0,52,43.858V46h2V43.858a3.915,3.915,0,0,0,1.019-.425l1.517,1.516,1.414-1.414-1.517-1.516A3.915,3.915,0,0,0,56.858,41H59V39H56.858a3.915,3.915,0,0,0-.425-1.019l1.517-1.516-1.414-1.414-1.517,1.516A3.915,3.915,0,0,0,54,36.142V34H52v2.142a3.915,3.915,0,0,0-1.019.425l-1.517-1.516L48.05,36.465l1.517,1.516A3.915,3.915,0,0,0,49.142,39H47v2h2.142A3.915,3.915,0,0,0,49.567,42.019ZM53,38a2,2,0,1,1-2,2A2,2,0,0,1,53,38Z"></path></g></svg>