<svg xmlns="http://www.w3.org/2000/svg" viewBox="0 0 64 64" x="0px" y="0px"><g><path d="M53,20.849l-2.017-.734-1.71,4.7a1,1,0,0,1-1.282.6l-4.7-1.711a1,1,0,0,1-.641-1.122l.958-5.146-1.862-.679a66.056,66.056,0,0,1-1.957,7.8,66.135,66.135,0,0,1-3.516,7.234l11.253,4.1a67.465,67.465,0,0,0,3.539-7.226A67.415,67.415,0,0,0,53,20.849Z"></path><path d="M22,20v5a1,1,0,0,1-1,1H16a1,1,0,0,1-.986-.836L14.153,20H12.171A65.9,65.9,0,0,1,13,28a65.9,65.9,0,0,1-.829,8H24.146A67.261,67.261,0,0,0,25,28a67.261,67.261,0,0,0-.854-8Z"></path><circle cx="42" cy="9" r="1"></circle><circle cx="9" cy="45" r="1"></circle><path d="M32.711,47.7l-4.7,1.711a1,1,0,0,1-1.282-.6l-1.71-4.7L23,44.849a67.57,67.57,0,0,0,1.934,7.809,67.371,67.371,0,0,0,3.539,7.226l11.253-4.1a66.135,66.135,0,0,1-3.516-7.234,66.056,66.056,0,0,1-1.957-7.8l-1.862.679.958,5.146A1,1,0,0,1,32.711,47.7Z"></path><path d="M55.232,45.1a.987.987,0,0,1-.315.334l-1.669,1.1-3.882,6.724,3.464,2,3.882-6.724.12-2a.989.989,0,0,1,.132-.44l1-1.732-1.732-1Z"></path><path d="M57.85,4.9a7.08,7.08,0,0,0-3.3-.9,4.4,4.4,0,0,0-2.7.85A6.272,6.272,0,0,1,48.1,6a6.272,6.272,0,0,1-3.75-1.15,4.7,4.7,0,0,0-5.39,0A6.272,6.272,0,0,1,35.21,6a6.3,6.3,0,0,1-3.75-1.15,4.7,4.7,0,0,0-5.39,0A6.247,6.247,0,0,1,22.32,6a6.237,6.237,0,0,1-3.74-1.15A4.4,4.4,0,0,0,15.88,4a4.372,4.372,0,0,0-2.69.85A6.272,6.272,0,0,1,9.44,6,8.882,8.882,0,0,1,5.29,4.9,8.792,8.792,0,0,0,3,4.08V61H26.81a67.051,67.051,0,0,1-3.75-7.66,75.937,75.937,0,0,1-2.18-8.96,1,1,0,0,1,.64-1.12l3.76-1.37a.96.96,0,0,1,.76.04.987.987,0,0,1,.52.56l1.71,4.7,2.96-1.08-.96-5.15a1,1,0,0,1,.64-1.12l3.76-1.37a1,1,0,0,1,1.33.76,77.832,77.832,0,0,0,2.09,8.64,77.106,77.106,0,0,0,3.95,7.96,1.005,1.005,0,0,1-.53,1.44L31.26,61H61V5.93A9.328,9.328,0,0,1,57.85,4.9ZM19,8h2v2H19ZM8,8h8v2H8ZM5.29,23.29l1.42,1.42-2,2L3.29,25.29ZM6,60H4V58H6ZM9,48a3,3,0,1,1,3-3A3.009,3.009,0,0,1,9,48Zm3.71,8.71-1.42-1.42,2-2,1.42,1.42ZM25.99,37.16A1,1,0,0,1,25,38H11a1.011,1.011,0,0,1-.76-.35,1.039,1.039,0,0,1-.23-.81A76.981,76.981,0,0,0,11,28a76.981,76.981,0,0,0-.99-8.84,1.039,1.039,0,0,1,.23-.81A1.011,1.011,0,0,1,11,18h4a1,1,0,0,1,.99.84L16.85,24H20V19a1,1,0,0,1,1-1h4a1,1,0,0,1,.99.84A77.289,77.289,0,0,1,27,28,77.289,77.289,0,0,1,25.99,37.16ZM56,13h2v2H56ZM42,6a3,3,0,1,1-3,3A3.009,3.009,0,0,1,42,6ZM30.29,15.71l-2-2,1.42-1.42,2,2Zm4.2,17.56a1.005,1.005,0,0,1-.53-1.44,77.106,77.106,0,0,0,3.95-7.96A77.832,77.832,0,0,0,40,15.23a1,1,0,0,1,1.33-.76l3.76,1.37a1,1,0,0,1,.64,1.12l-.96,5.15,2.96,1.08,1.71-4.7a.987.987,0,0,1,.52-.56.96.96,0,0,1,.76-.04l3.76,1.37a1,1,0,0,1,.64,1.12,75.937,75.937,0,0,1-2.18,8.96,75.063,75.063,0,0,1-4.09,8.27.992.992,0,0,1-.87.51.829.829,0,0,1-.34-.07Zm9.8,12.44-4-4,1.42-1.42,4,4ZM60.2,44.5l-1.39,2.39-.12,2a.867.867,0,0,1-.13.44l-4.5,7.79a.97.97,0,0,1-.86.5.983.983,0,0,1-.5-.13l-5.2-3a1,1,0,0,1-.47-.61,1.061,1.061,0,0,1,.1-.76l4.5-7.79a1.009,1.009,0,0,1,.32-.33l1.67-1.11L55,41.5a1.01,1.01,0,0,1,1.37-.37l3.46,2a1,1,0,0,1,.37,1.37Z"></path></g></svg>