<svg xmlns="http://www.w3.org/2000/svg" viewBox="0 0 64 64" x="0px" y="0px"><g><path d="M31,29h2a1,1,0,0,1,1,1h2a3,3,0,0,0-3-3V26H31v1a3,3,0,0,0,0,6h2a1,1,0,0,1,0,2H31a1,1,0,0,1-1-1H28a3,3,0,0,0,3,3v1h2V37a3,3,0,0,0,0-6H31a1,1,0,0,1,0-2Z"></path><path d="M50.707,37.293A1,1,0,0,0,50,37H42.886A14.975,14.975,0,0,0,43.9,33H54V31H44V27h6a1,1,0,0,0,.707-.293l3-3-1.414-1.414L49.586,25H44V24a1,1,0,0,0-.521-.878L33,17.406V14h2.977a1,1,0,0,0,.707-.293L40.7,9.7,39.281,8.281,35.563,12H33V10H31v2H28.437L24.719,8.281,23.305,9.7l4.011,4.012a1,1,0,0,0,.707.293H31v3.406L20.521,23.122A1,1,0,0,0,20,24v1H14.414l-2.707-2.707-1.414,1.414,3,3A1,1,0,0,0,14,27h6v4H10v2H20.1a14.975,14.975,0,0,0,1.015,4H14a1,1,0,0,0-.707.293l-3,3,1.414,1.414L14.414,39h7.7a14.978,14.978,0,0,0,4.832,4.97L31,46.549V50H28.023a1,1,0,0,0-.707.293l-4.011,4.012,1.414,1.414L28.437,52H31v2h2V52h2.563l3.718,3.719L40.7,54.305l-4.011-4.012A1,1,0,0,0,35.977,50H33V46.549l4.053-2.579h0A14.978,14.978,0,0,0,41.885,39h7.7l2.707,2.707,1.414-1.414ZM35.979,42.282h0L32,44.814l-3.979-2.532A12.935,12.935,0,0,1,22,31.314v-6.72l10-5.455,10,5.455v6.72A12.935,12.935,0,0,1,35.979,42.282Z"></path><path d="M56,23a3,3,0,1,0-3-3A3,3,0,0,0,56,23Zm0-4a1,1,0,1,1-1,1A1,1,0,0,1,56,19Z"></path><path d="M56,41a3,3,0,1,0,3,3A3,3,0,0,0,56,41Zm0,4a1,1,0,1,1,1-1A1,1,0,0,1,56,45Z"></path><path d="M59,29a3,3,0,1,0,3,3A3,3,0,0,0,59,29Zm0,4a1,1,0,1,1,1-1A1,1,0,0,1,59,33Z"></path><path d="M8,23a3,3,0,1,0-3-3A3,3,0,0,0,8,23Zm0-4a1,1,0,1,1-1,1A1,1,0,0,1,8,19Z"></path><path d="M8,32a3,3,0,1,0-3,3A3,3,0,0,0,8,32ZM4,32a1,1,0,1,1,1,1A1,1,0,0,1,4,32Z"></path><path d="M8,41a3,3,0,1,0,3,3A3,3,0,0,0,8,41Zm0,4a1,1,0,1,1,1-1A1,1,0,0,1,8,45Z"></path><path d="M32,8a3,3,0,1,0-3-3A3,3,0,0,0,32,8Zm0-4a1,1,0,1,1-1,1A1,1,0,0,1,32,4Z"></path><path d="M44,8a3,3,0,1,0-3-3A3,3,0,0,0,44,8Zm0-4a1,1,0,1,1-1,1A1,1,0,0,1,44,4Z"></path><path d="M20,8a3,3,0,1,0-3-3A3,3,0,0,0,20,8Zm0-4a1,1,0,1,1-1,1A1,1,0,0,1,20,4Z"></path><path d="M32,56a3,3,0,1,0,3,3A3,3,0,0,0,32,56Zm0,4a1,1,0,1,1,1-1A1,1,0,0,1,32,60Z"></path><path d="M44,56a3,3,0,1,0,3,3A3,3,0,0,0,44,56Zm0,4a1,1,0,1,1,1-1A1,1,0,0,1,44,60Z"></path><path d="M20,56a3,3,0,1,0,3,3A3,3,0,0,0,20,56Zm0,4a1,1,0,1,1,1-1A1,1,0,0,1,20,60Z"></path><rect x="38" y="31" width="2" height="2"></rect><rect x="24" y="31" width="2" height="2"></rect></g></svg>