<svg xmlns="http://www.w3.org/2000/svg" viewBox="0 0 64 64" x="0px" y="0px"><g data-name="Order-Shopping-Shopping Bag-Smartphone-Laptop"><polygon points="26.62 52 25.62 54 38.38 54 37.38 52 26.62 52"></polygon><path d="M5,60H59a1,1,0,0,0,1-1V56H4v3A1,1,0,0,0,5,60Z"></path><path d="M46,35a1,1,0,0,0,1,1H59a1,1,0,0,0,1-1V34H46Z"></path><path d="M45,19h9V11a1,1,0,0,0-1-1H43.88A6.921,6.921,0,0,1,46,15v1h3v2H34v3H32V18H30V32H42v2H30v1a1,1,0,0,0,1,1H43v2H31a3.009,3.009,0,0,1-3-3V17a1,1,0,0,1,1-1h3V15a6.921,6.921,0,0,1,2.12-5H26V24a5,5,0,0,1-5,5H19.29L19,30.13v1.54a5.075,5.075,0,0,1-1,3l-1.4,1.86A3.027,3.027,0,0,0,16.03,38H17a1,1,0,0,1,1,1v3H54V38H47a3.009,3.009,0,0,1-3-3V20A1,1,0,0,1,45,19Zm9.38,25H18v3a1,1,0,0,1-1,1H7.62l-3,6H23.38l1.73-3.45A.988.988,0,0,1,26,50H38a.988.988,0,0,1,.89.55L40.62,54H59.38ZM12,52H10V50h2Zm4,0H14V50h2Zm3-6h2v2H19Zm3,6H18V50h4Zm3-4H23V46h2Zm4,0H27V46h2Zm4,0H31V46h2Zm4,0H35V46h2Zm6-2h2v2H43Zm-2,2H39V46h2Zm5,4H42V50h4Zm1-6h2v2H47Zm3,6H48V50h2Zm1-6h2v2H51Zm3,6H52V50h2Z"></path><path d="M34,16H44V15a5,5,0,0,0-10,0Z"></path><path d="M46,32H60V21H46Zm2-9h2v2a3,3,0,0,0,6,0V23h2v2a5,5,0,0,1-10,0Z"></path><path d="M10,21.72l2.29,3.81a.953.953,0,0,0,.83.48h.01a.955.955,0,0,0,.94-.72l.53-2.06a3,3,0,0,1,3.68-2.15,3.01,3.01,0,0,1,2.12,3.65L19.81,27H21a3.009,3.009,0,0,0,3-3V6a3.009,3.009,0,0,0-3-3H13a3.009,3.009,0,0,0-3,3ZM15,5h4V7H15Zm-3,6H22v2H12Zm0,4H22v2H12Z"></path><path d="M4,21v9.06a3,3,0,0,0,.32,1.34l1.15,2.31A4.945,4.945,0,0,1,6,35.94V38h8.01A5.069,5.069,0,0,1,15,35.33l1.4-1.86a3.018,3.018,0,0,0,.6-1.8V30a1.068,1.068,0,0,1,.03-.25l1.44-5.52a1.01,1.01,0,0,0-.71-1.22.966.966,0,0,0-.76.11.949.949,0,0,0-.46.61l-.53,2.06a2.981,2.981,0,0,1-5.44.77L8.14,22.51A1,1,0,0,1,8,22V16.1A5.009,5.009,0,0,0,4,21Z"></path><rect x="4" y="40" width="12" height="6"></rect></g></svg>