<svg xmlns="http://www.w3.org/2000/svg" viewBox="0 0 64 64" x="0px" y="0px"><g><path d="M60.875,48.459,59.84,44.6a1,1,0,0,0-1.225-.707l-2.9.776L50.8,26.312a1,1,0,0,0-1.225-.707L26.394,31.816a1,1,0,0,0-.707,1.225L30.6,51.394l-1.932.518L16.766,7.479a1,1,0,0,0-1.225-.708l-2.109.566a3,3,0,0,0-3.238-1.2L4.4,7.688a3,3,0,1,0,1.553,5.794l5.8-1.552a2.97,2.97,0,0,0,2.205-2.662l1.141-.306L27,53.4l1.035,3.863A1,1,0,0,0,29,58a1.035,1.035,0,0,0,.259-.034l2.686-.72A2.984,2.984,0,0,0,34.606,61.6a3.023,3.023,0,0,0,.777-.1,2.987,2.987,0,0,0,.85-5.4L53.2,51.552a2.985,2.985,0,0,0,2.663,4.358A2.99,2.99,0,0,0,57.483,50.4l2.685-.719A1,1,0,0,0,60.875,48.459Zm-28.34,2.417-3.1-11.591,3.466-.929A8,8,0,1,0,47.213,34.52l3.467-.929,3.106,11.592ZM46.627,37.783a6,6,0,1,1-5.8-4.448A6.008,6.008,0,0,1,46.627,37.783Zm2.5-9.987,1.035,3.863-4.6,1.234A7.978,7.978,0,0,0,33.514,36.12l-4.6,1.234-1.035-3.865ZM11.837,9.532a.993.993,0,0,1-.608.466L5.434,11.551a1,1,0,0,1-.518-1.932l5.8-1.554a1.039,1.039,0,0,1,.258-.034,1,1,0,0,1,.867,1.5ZM35.473,59.1a1,1,0,1,1-1.125-1.466.963.963,0,0,1,.258-.034,1,1,0,0,1,.867,1.5Zm21.25-5.694a.993.993,0,0,1-.608.466,1,1,0,0,1-1.224-.707.99.99,0,0,1,.1-.76,1,1,0,0,1,.608-.466,1.043,1.043,0,0,1,.257-.034,1,1,0,0,1,.868,1.5ZM29.707,55.775l-.518-1.931,28.978-7.765.518,1.932Z"></path><path d="M40.5,34.247l-1.932.518.259.966h0a2,2,0,0,0-1.414,2.45l.259.965a2,2,0,0,0,2.449,1.415l1.933-.518.257.966-3.863,1.035.518,1.932,1.931-.518.259.967,1.932-.518-.259-.967a2,2,0,0,0,1.415-2.449l-.259-.967a2.007,2.007,0,0,0-2.45-1.413l-1.932.518-.258-.966,3.864-1.035L42.694,34.7l-1.932.518Z"></path><path d="M38.294,18.274a2,2,0,0,0-2.449-1.413l-1.933.518-.259-.967,3.865-1.035L37,13.445l-1.932.518L34.809,13l-1.932.518.259.965h0a2,2,0,0,0-1.413,2.45l.258.967a2.008,2.008,0,0,0,2.451,1.414l1.931-.518.259.966-3.864,1.035.517,1.932,1.933-.518.259.966,1.931-.518-.258-.966a2,2,0,0,0,1.414-2.449Z"></path><path d="M50.282,24.38,45.106,5.062a1,1,0,0,0-.465-.608,1.013,1.013,0,0,0-.759-.1L20.7,10.566a1,1,0,0,0-.707,1.225l5.177,19.318a1,1,0,0,0,.965.742.974.974,0,0,0,.26-.035L49.575,25.6A1,1,0,0,0,50.282,24.38ZM43.434,6.545l1.035,3.864-4.6,1.232a7.974,7.974,0,0,0-12.057,3.23l-4.6,1.232-1.035-3.864Zm-3.1,14.541a6,6,0,1,1,.6-4.554A5.964,5.964,0,0,1,40.334,21.086Zm-13.492,8.54L23.736,18.035l3.46-.928a8,8,0,1,0,14.33-3.839l3.46-.927,3.106,11.591Z"></path></g></svg>