<svg xmlns="http://www.w3.org/2000/svg" viewBox="0 0 64 64" x="0px" y="0px"><g data-name="Time To Work"><path d="M33,38.184V31H31v7.184A3,3,0,0,0,29.184,40H24v2h5.184A2.993,2.993,0,1,0,33,38.184ZM32,42a1,1,0,1,1,1-1A1,1,0,0,1,32,42Z"></path><rect x="18" y="40" width="2" height="2"></rect><rect x="31" y="53" width="2" height="2"></rect><rect x="44" y="40" width="2" height="2"></rect><rect x="31" y="27" width="2" height="2"></rect><path d="M48.267,28.977a1,1,0,0,0,0-1.415l-2.83-2.829a1,1,0,0,0-1.414,0l-1.611,1.611A17.893,17.893,0,0,0,35,23.271V22a2,2,0,0,0,2-2V18a2,2,0,0,0-2-2H29a2,2,0,0,0-2,2v2a2,2,0,0,0,2,2v1.271a17.879,17.879,0,0,0-7.412,3.073l-1.611-1.611a1,1,0,0,0-1.414,0l-2.83,2.829a1,1,0,0,0,0,1.415l1.611,1.611a18,18,0,1,0,29.312,0ZM44.73,26.854l1.416,1.416-.75.75A18.191,18.191,0,0,0,43.98,27.6ZM29,18h6v2H29Zm2,4h2v1.051c-.333-.019-.662-.051-1-.051s-.667.032-1,.051ZM17.854,28.27l1.416-1.416.75.75A18.191,18.191,0,0,0,18.6,29.02ZM32,57A16,16,0,1,1,48,41,16.019,16.019,0,0,1,32,57Z"></path><path d="M54.774,13.4l-9-11.03A1,1,0,0,0,45,2H12A3,3,0,0,0,9,5V59a3,3,0,0,0,3,3H52a3,3,0,0,0,3-3V14.03A.992.992,0,0,0,54.774,13.4ZM46,5.81,51.868,13H47a1,1,0,0,1-1-1ZM52,60H12a1,1,0,0,1-1-1V5a1,1,0,0,1,1-1H44v8a3,3,0,0,0,3,3h6V59A1,1,0,0,1,52,60Z"></path><rect x="16" y="8" width="4" height="2"></rect><rect x="22" y="8" width="10" height="2"></rect><rect x="16" y="12" width="20" height="2"></rect></g></svg>