<svg xmlns="http://www.w3.org/2000/svg" viewBox="0 0 64 64" x="0px" y="0px"><g><path d="M7.6,23A26.248,26.248,0,0,1,31.037,6.019L32,5.983V3l6,5-6,5V9.97l-1.049.051A21.939,21.939,0,0,0,11.918,23H7.6Z"></path><path d="M26,56l6-5V54.03l1.049-.051A21.939,21.939,0,0,0,52.082,41H56.4A26.248,26.248,0,0,1,32.963,57.981L32,58.017V61Z"></path><path d="M51,32H54.03l-.051-1.049A21.939,21.939,0,0,0,41,11.918V7.6A26.269,26.269,0,0,1,57.981,31.037l.036.963H61l-5,6Z"></path><path d="M22,56A26.065,26.065,0,0,1,6.019,32.964L5.984,32H3l5-6,5,6H9.971l.05,1.048A22.073,22.073,0,0,0,22.005,51.6Z"></path><path d="M22.05,33h-2a11.9,11.9,0,0,0,2.8,6.74l1.41-1.42A9.949,9.949,0,0,1,22.05,33Z"></path><path d="M24.26,41.15A11.9,11.9,0,0,0,31,43.95v-2a9.949,9.949,0,0,1-5.32-2.21Z"></path><path d="M33,41.95v2a11.9,11.9,0,0,0,6.74-2.8l-1.42-1.41A9.949,9.949,0,0,1,33,41.95Z"></path><path d="M24.26,25.68l-1.41-1.42A11.9,11.9,0,0,0,20.05,31h2A9.949,9.949,0,0,1,24.26,25.68Z"></path><path d="M39.74,22.85A11.9,11.9,0,0,0,33,20.05v2a9.949,9.949,0,0,1,5.32,2.21Z"></path><path d="M31,22.05v-2a11.9,11.9,0,0,0-6.74,2.8l1.42,1.41A9.949,9.949,0,0,1,31,22.05Z"></path><path d="M40,32a8,8,0,1,0-8,8A8.011,8.011,0,0,0,40,32Zm-9-1h2a3,3,0,0,1,0,6v1H31V37a3,3,0,0,1-3-3h2a1,1,0,0,0,1,1h2a1,1,0,0,0,0-2H31a3,3,0,0,1,0-6V26h2v1a3,3,0,0,1,3,3H34a1,1,0,0,0-1-1H31a1,1,0,0,0,0,2Z"></path><path d="M39.74,25.68A9.949,9.949,0,0,1,41.95,31h2a11.9,11.9,0,0,0-2.8-6.74Z"></path><path d="M39.74,38.32l1.41,1.42A11.9,11.9,0,0,0,43.95,33h-2A9.949,9.949,0,0,1,39.74,38.32Z"></path></g></svg>