<svg xmlns="http://www.w3.org/2000/svg" viewBox="0 0 64 64" x="0px" y="0px"><g><path d="M22.563,34a5.009,5.009,0,0,0,1.976,1.66L37.55,41.725a5,5,0,0,1,.936-2.992L38.4,37.7,21.788,29.958A5.026,5.026,0,0,0,22.563,34Z"></path><path d="M42.223,20.236a5.029,5.029,0,0,0-3.535-2.111l1.666,19.019a5,5,0,0,1,4-.183l-1.25-14.3A5,5,0,0,0,42.223,20.236Z"></path><path d="M42.541,38.619A3,3,0,1,0,45,39.9,2.976,2.976,0,0,0,42.541,38.619Z"></path><path d="M48.82,42.56a7.949,7.949,0,0,0-1.57,3.69l-.08-.04-.2-2.31a5.119,5.119,0,0,0,.54-1.95Z"></path><path d="M45.29,47.63a7.824,7.824,0,0,0-1.6-.16,8.191,8.191,0,0,0-2.41.37l-.12-1.43a5.033,5.033,0,0,0,1.39.21,4.935,4.935,0,0,0,2.58-.74Z"></path><path d="M20.308,28.163a1,1,0,0,1,1.328-.482l6.632,3.092A14.94,14.94,0,0,0,30.2,28.955q.191-.214.374-.435c.273-.334.533-.677.776-1.032.053-.078.111-.152.163-.23a15.165,15.165,0,0,0,1.534-3.021c.017-.044.03-.089.046-.133.169-.465.312-.941.435-1.422.028-.114.056-.228.082-.342.1-.425.173-.857.233-1.291.018-.132.042-.263.057-.395A15,15,0,1,0,19,34c.42,0,.841-.025,1.26-.064A6.993,6.993,0,0,1,20.308,28.163ZM27,24a3,3,0,1,1-3-3A3,3,0,0,1,27,24ZM11,14a3,3,0,1,1,3,3A3,3,0,0,1,11,14Zm2.707,11.707-1.414-1.414,12-12,1.414,1.414Z"></path><circle cx="24" cy="24" r="1"></circle><circle cx="14" cy="14" r="1"></circle><path d="M56.88,49.89a3,3,0,1,0-4.18-.74A3,3,0,0,0,56.88,49.89Zm3.2-5.9a6,6,0,1,1-8.6-1.29l.24-.18A6.007,6.007,0,0,1,60.08,43.99Z"></path><path d="M45.41,57.92a3,3,0,1,0-4.17-.74A3,3,0,0,0,45.41,57.92Zm-6.63.98a6,6,0,0,1,1.47-8.35c.08-.06.16-.11.25-.17a6.034,6.034,0,0,1,6.02-.21,5.947,5.947,0,0,1,2.09,1.85,6,6,0,1,1-9.83,6.88Z"></path></g></svg>