<svg xmlns="http://www.w3.org/2000/svg" viewBox="0 0 64 64" x="0px" y="0px"><g><path d="M50,15V52H14V15H12V59a3,3,0,0,0,3,3H49a3,3,0,0,0,3-3V15ZM49,60H15a1,1,0,0,1-1-1V54H50v5A1,1,0,0,1,49,60Z"></path><path d="M18,50H46a2,2,0,0,0,2-2V2.8a1,1,0,0,0-1.693-.721L44.5,3.813,42.7,2.078a1,1,0,0,0-1.386,0l-1.8,1.734L37.7,2.079a1,1,0,0,0-1.386,0L34.509,3.813l-1.8-1.734a1,1,0,0,0-1.387,0l-1.8,1.734L27.707,2.078a1,1,0,0,0-1.385,0L24.513,3.814,22.7,2.078a1,1,0,0,0-1.384,0L19.506,3.815,17.692,2.078A1,1,0,0,0,16,2.8V48A2,2,0,0,0,18,50ZM18,5.143l.814.779a1,1,0,0,0,1.384,0l1.813-1.736,1.81,1.736a1,1,0,0,0,1.385,0l1.808-1.736,1.809,1.736a1,1,0,0,0,1.385,0l1.8-1.733,1.8,1.733a1,1,0,0,0,1.386,0l1.808-1.735,1.8,1.734a1,1,0,0,0,1.386,0L42,4.187l1.807,1.735a1,1,0,0,0,1.385,0l.8-.773V48H18Z"></path><rect x="29" y="56" width="6" height="2"></rect><path d="M43,10H21a1,1,0,0,0-1,1V27a1,1,0,0,0,1,1H43a1,1,0,0,0,1-1V11A1,1,0,0,0,43,10ZM42,26H22V12H42Z"></path><path d="M29.507,22.87a1,1,0,0,0,1.008-.013l5-3a1,1,0,0,0,0-1.714l-5-3A1,1,0,0,0,29,16v6A1,1,0,0,0,29.507,22.87ZM31,17.767,33.056,19,31,20.233Z"></path><rect x="20" y="30" width="24" height="2"></rect><rect x="20" y="34" width="4" height="2"></rect><rect x="26" y="34" width="18" height="2"></rect><rect x="20" y="38" width="24" height="2"></rect><rect x="20" y="42" width="18" height="2"></rect><rect x="40" y="42" width="4" height="2"></rect></g></svg>