<svg xmlns="http://www.w3.org/2000/svg" viewBox="0 0 64 64" x="0px" y="0px"><g><path d="M14,21a9,9,0,0,0,18,0V13a1,1,0,0,0-1-1H15a1,1,0,0,0-1,1Zm13-5a2,2,0,1,1-2,2A2,2,0,0,1,27,16Zm-2.016,7.25,1.323,1.5a5,5,0,0,1-6.614,0l1.323-1.5A3.076,3.076,0,0,0,24.984,23.25ZM19,16a2,2,0,1,1-2,2A2,2,0,0,1,19,16Z"></path><path d="M10,18a2.015,2.015,0,0,0,2,2V16A2.006,2.006,0,0,0,10,18Z"></path><rect x="4" y="52" width="6" height="2"></rect><path d="M4,50h6V46h2V60H34V53.82A3.01,3.01,0,0,1,32,51V37.61l-.36-.11a8.992,8.992,0,0,1-17.28,0L8.91,39.2A6.964,6.964,0,0,0,4,45.88Z"></path><path d="M14,10.18A3,3,0,0,1,15,10h8a5,5,0,0,0,5-5V4H19a5,5,0,0,0-5,5Z"></path><rect x="4" y="56" width="6" height="4"></rect><path d="M34,20a2.015,2.015,0,0,0,2-2,2.006,2.006,0,0,0-2-2Z"></path><path d="M27.89,10H31a3,3,0,0,1,1,.18V7H29.71A7.065,7.065,0,0,1,27.89,10Z"></path><path d="M23,42a6.964,6.964,0,0,0,6.74-5.1l-1.93-.6a4.976,4.976,0,0,1-9.62,0l-1.93.6A6.964,6.964,0,0,0,23,42Z"></path><path d="M26,35V31.57a10.68,10.68,0,0,1-6,0V35a3,3,0,0,0,6,0Z"></path><path d="M36,60h3.18A2.98,2.98,0,0,1,42,56h1V54H36Z"></path><path d="M51,36H43a5.006,5.006,0,0,0-5,5v6a1,1,0,0,0,1,1h2.517a1,1,0,0,0,.957-.709l.5-1.649A2.006,2.006,0,0,1,44.942,44h4.116a2.006,2.006,0,0,1,1.967,1.642l.5,1.648a1,1,0,0,0,.957.71H55a1,1,0,0,0,1-1V41A5.006,5.006,0,0,0,51,36Zm-9,6a2,2,0,1,1,2-2A2,2,0,0,1,42,42Zm6-1H46V39h2Zm6,0H53v1H51V41H50V39h1V38h2v1h1Z"></path><path d="M60,51V33a1,1,0,0,0-1-1H35a1,1,0,0,0-1,1V51a1,1,0,0,0,1,1H59A1,1,0,0,0,60,51Zm-2-4a3,3,0,0,1-3,3H52.483a2.983,2.983,0,0,1-2.871-2.129l-.52-1.712A.856.856,0,0,1,49.058,46H44.942a.866.866,0,0,1-.034.159l-.52,1.713A2.983,2.983,0,0,1,41.517,50H39a3,3,0,0,1-3-3V41a7.009,7.009,0,0,1,7-7h8a7.009,7.009,0,0,1,7,7Z"></path><path d="M53,59a1,1,0,0,0-1-1H42a1,1,0,0,0,0,2H52A1,1,0,0,0,53,59Z"></path><rect x="45" y="54" width="4" height="2"></rect></g></svg>