<svg xmlns="http://www.w3.org/2000/svg" viewBox="0 0 64 64" x="0px" y="0px"><defs><style>.cls-1{fill:#231f20;}</style></defs><title>Trophy_13</title><g data-name="Trophy"><path class="cls-1" d="M62,9.931A1,1,0,0,0,61,9H52V3a1,1,0,0,0-1-1H13a1,1,0,0,0-1,1V9H3a1,1,0,0,0-1,.931c-.035.514-.778,12.7,7.252,21.481,4.664,5.1,11.3,7.949,19.746,8.483V53a3,3,0,0,1-3,3H20a2,2,0,0,0-2,2v3a1,1,0,0,0,1,1H45a1,1,0,0,0,1-1V58a2,2,0,0,0-2-2H38a3,3,0,0,1-3-3V39.9c8.444-.534,15.082-3.381,19.746-8.483C62.776,22.627,62.033,10.445,62,9.931ZM50,19a7.658,7.658,0,0,1-.048.84c-.011.094-.031.188-.045.283-.027.186-.053.372-.093.558-.024.112-.058.223-.086.335-.043.169-.084.338-.137.507-.037.119-.082.238-.123.356-.057.162-.113.323-.177.485-.05.122-.1.243-.159.365-.069.157-.138.315-.215.471-.06.124-.125.246-.19.369-.081.155-.163.31-.251.465-.07.122-.143.244-.216.365q-.139.231-.286.461c-.078.121-.159.241-.241.362-.1.153-.209.3-.318.457q-.128.177-.26.353c-.114.153-.23.3-.349.455q-.136.174-.276.346c-.124.152-.251.3-.379.453-.1.111-.19.222-.287.333-.133.151-.27.3-.407.452-.1.107-.194.213-.294.319q-.216.229-.437.456c-.1.1-.194.2-.292.3-.156.156-.314.31-.472.464-.094.091-.187.182-.282.272-.17.162-.341.32-.513.479-.087.079-.172.16-.259.238-.2.177-.392.35-.589.523-.064.056-.128.114-.193.17-.8.691-1.6,1.346-2.392,1.956-.06.047-.119.091-.179.137-.2.154-.4.306-.6.454-.081.061-.161.119-.242.179-.174.129-.347.258-.518.382l-.253.182c-.164.118-.328.236-.488.349l-.258.182-.439.3-.28.192-.393.267-.269.18-.363.24-.255.167-.323.209-.256.164L34.358,37l-.255.16-.206.128-.248.153-.14.085-.259.158-.03.017c-.2.121-.363.216-.477.283-.183.006-.367.011-.553.011L32,38l-.19,0c-.186,0-.37,0-.553-.011-.114-.067-.275-.162-.477-.283l-.03-.017-.259-.158-.14-.085-.248-.153-.206-.128L29.642,37l-.264-.168-.256-.164-.323-.209-.255-.167-.363-.24-.269-.18-.393-.267-.28-.192-.439-.3-.258-.182c-.16-.113-.324-.231-.488-.349L25.8,34.4c-.171-.124-.344-.253-.518-.382-.081-.06-.161-.118-.242-.179-.2-.148-.4-.3-.6-.454-.06-.046-.119-.09-.179-.137-.789-.61-1.595-1.265-2.392-1.956-.065-.056-.129-.114-.193-.17-.2-.173-.394-.346-.589-.523-.087-.078-.172-.159-.259-.238-.172-.159-.343-.317-.513-.479-.095-.09-.188-.181-.282-.272-.158-.154-.316-.308-.472-.464-.1-.1-.194-.2-.292-.3q-.221-.226-.437-.456c-.1-.106-.2-.212-.294-.319-.137-.15-.274-.3-.407-.452-.1-.111-.192-.222-.287-.333-.128-.15-.255-.3-.379-.453q-.139-.172-.276-.346c-.119-.151-.235-.3-.349-.455q-.132-.176-.26-.353c-.109-.152-.214-.3-.318-.457-.082-.121-.163-.241-.241-.362q-.147-.229-.286-.461c-.073-.121-.146-.243-.216-.365-.088-.155-.17-.31-.251-.465-.065-.123-.13-.245-.19-.369-.077-.156-.146-.314-.215-.471-.054-.122-.109-.243-.159-.365-.064-.162-.12-.323-.177-.485-.041-.118-.086-.237-.123-.356-.053-.169-.094-.338-.137-.507-.028-.112-.062-.223-.086-.335-.04-.186-.066-.372-.093-.558-.014-.1-.034-.189-.045-.283A7.658,7.658,0,0,1,14,19V8H50ZM50,4V6H14V4ZM10.743,30.076C4.514,23.272,3.979,13.948,3.977,11H12v8c0,.294.019.588.047.882.008.084.019.169.029.253q.042.339.106.677c.014.075.026.15.042.224q.093.435.22.867c.016.053.035.106.052.159.075.241.158.48.248.719.033.085.066.171.1.256.1.235.2.47.3.7.025.054.048.109.073.163q.2.425.435.844c.04.072.083.144.124.216q.184.326.384.648c.05.08.1.16.151.24.174.273.354.544.543.812l.007.011c.193.274.4.545.6.815.059.077.119.152.179.228q.241.309.5.614c.057.068.113.137.171.2q.329.39.672.771l.13.141q.291.318.59.63c.07.074.141.147.212.22q.3.306.6.605l.143.142c.246.24.5.477.747.711l.2.18c.2.179.389.355.585.529.078.069.154.138.232.206.239.209.478.417.718.62l.049.042c.257.217.512.428.768.636l.23.186q.287.231.572.455l.215.17q.372.288.736.565l.165.123c.194.145.385.288.575.427l.248.181c.176.128.349.252.521.375l.2.139q.333.235.653.456l.216.148.439.3.238.159.1.065C20.137,36.917,14.661,34.355,10.743,30.076ZM38,58h6v2H20V58h6a5.006,5.006,0,0,0,5-5V40h2V53A5.006,5.006,0,0,0,38,58ZM53.257,30.076c-3.918,4.279-9.394,6.841-16.313,7.642l.1-.065.238-.159.439-.3.216-.148q.319-.221.653-.456l.2-.139c.172-.123.345-.247.521-.375l.248-.181c.19-.139.381-.282.575-.427l.165-.123q.364-.276.736-.565l.215-.17q.285-.223.572-.455l.23-.186c.256-.208.511-.419.768-.636l.049-.042c.24-.2.479-.411.718-.62.078-.068.154-.137.232-.206.2-.174.39-.35.585-.529l.2-.18c.251-.234.5-.471.747-.711l.143-.142q.3-.3.6-.605c.071-.073.142-.146.212-.22q.3-.312.59-.63l.13-.141q.343-.381.672-.771c.058-.068.114-.137.171-.2q.254-.3.495-.614c.06-.076.12-.151.179-.228.207-.27.41-.541.6-.815l.007-.011c.189-.268.369-.539.543-.812.051-.08.1-.16.151-.24q.2-.323.384-.648c.041-.072.084-.144.124-.216q.231-.42.435-.844c.025-.054.048-.109.073-.163.109-.234.21-.469.3-.7.034-.085.067-.171.1-.256.09-.239.173-.478.248-.719.017-.053.036-.106.052-.159q.127-.432.22-.867c.016-.074.028-.149.042-.224q.064-.338.106-.677c.01-.084.021-.169.029-.253.028-.294.047-.588.047-.882V11h8.023C60.021,13.948,59.486,23.272,53.257,30.076Z"></path><path class="cls-1" d="M32,12a8,8,0,1,0,8,8A8.009,8.009,0,0,0,32,12Zm0,14a6,6,0,1,1,6-6A6.006,6.006,0,0,1,32,26Z"></path></g></svg>