<svg xmlns="http://www.w3.org/2000/svg" viewBox="0 0 64 64" x="0px" y="0px"><g data-name="Budget-Credit Card-Calculator-Money-Payment"><rect x="30" y="30" width="3" height="2"></rect><path d="M29.82,24H52.06A9.013,9.013,0,0,1,60,16.06V11.94A9.013,9.013,0,0,1,52.06,4H27.94A9.013,9.013,0,0,1,20,11.94v4.12a9,9,0,0,1,7.51,5.99A3.012,3.012,0,0,1,29.82,24ZM40,8a6,6,0,1,1-6,6A6.006,6.006,0,0,1,40,8Z"></path><rect x="47" y="30" width="13" height="2"></rect><rect x="47" y="26" width="13" height="2"></rect><path d="M20,18.08V22h5.32A7.007,7.007,0,0,0,20,18.08Z"></path><path d="M60,18.08A7,7,0,0,0,54.08,24H60Z"></path><rect x="35" y="26" width="10" height="6"></rect><rect x="30" y="26" width="3" height="2"></rect><circle cx="40" cy="14" r="4"></circle><rect x="14" y="52" width="4" height="4"></rect><path d="M27,24H5a1,1,0,0,0-1,1V59a1,1,0,0,0,1,1H27a1,1,0,0,0,1-1V25A1,1,0,0,0,27,24ZM26,56a2,2,0,0,1-2,2H8a2,2,0,0,1-2-2V40a2,2,0,0,1,2-2H24a2,2,0,0,1,2,2Zm0-22a2,2,0,0,1-2,2H8a2,2,0,0,1-2-2V28a2,2,0,0,1,2-2H24a2,2,0,0,1,2,2Z"></path><rect x="8" y="46" width="4" height="4"></rect><rect x="8" y="52" width="4" height="4"></rect><rect x="8" y="40" width="4" height="4"></rect><rect x="20" y="52" width="4.001" height="4"></rect><path d="M8,34H24V28H8Zm11-4h2v2H19Zm-4,0h2v2H15Zm-4,0h2v2H11Z"></path><rect x="14" y="40" width="4" height="4"></rect><rect x="14" y="46" width="4" height="4"></rect><rect x="20" y="40" width="4" height="4"></rect><path d="M60,9.92V4H54.08A7,7,0,0,0,60,9.92Z"></path><rect x="20" y="46" width="4.001" height="4"></rect><rect x="38" y="44" width="2" height="4"></rect><path d="M31,60H59a1,1,0,0,0,1-1V41a1,1,0,0,0-1-1H31a1,1,0,0,0-1,1V59A1,1,0,0,0,31,60Zm24-2H51a3,3,0,0,1,0-6h4a3,3,0,0,1,0,6Zm1-15h2v2H56Zm-4,0h2v2H52Zm-4,0h2v2H48Zm-4,0h2v2H44Zm0,4H58v2H44Zm0,5h2v2H44ZM32,44a2,2,0,0,1,2-2h6a2,2,0,0,1,2,2v4a2,2,0,0,1-2,2H34a2,2,0,0,1-2-2Zm10,8v2H40V52Zm-4,0v2H36V52Zm-6,0h2v2H32Zm0,4H46v2H32Z"></path><rect x="34" y="44" width="2" height="4"></rect><path d="M55,54H51a1,1,0,0,0,0,2h4a1,1,0,0,0,0-2Z"></path><path d="M20,4V9.92A7,7,0,0,0,25.92,4Z"></path></g></svg>