<svg xmlns="http://www.w3.org/2000/svg" viewBox="0 0 64 64" x="0px" y="0px"><g data-name="Alarm Clock"><polygon points="9.63 56 12.586 56 18.586 50 16.38 50 9.63 56"></polygon><polygon points="54.37 56 47.62 50 21.414 50 15.414 56 54.37 56"></polygon><rect x="8" y="58" width="48" height="2"></rect><path d="M32,11A16,16,0,1,0,48,27,16.019,16.019,0,0,0,32,11Zm0,30A14,14,0,1,1,46,27,14.015,14.015,0,0,1,32,41Z"></path><path d="M32,15A12,12,0,1,0,44,27,12.013,12.013,0,0,0,32,15ZM23,28H21V26h2Zm8-12h2v2H31Zm2,22H31V36h2Zm-.293-9.293a1,1,0,0,1-1.414,0l-5-5,1.414-1.414L32,26.586l6.293-6.293,1.414,1.414ZM41,28V26h2v2Z"></path><path d="M22,44.326a1,1,0,0,0,1.359-.373l.525-.907a17.853,17.853,0,0,1-1.732-.995l-.521.9A1,1,0,0,0,22,44.326Z"></path><path d="M42,44.322a1,1,0,0,0,.359-1.375l-.519-.9a17.917,17.917,0,0,1-1.731.994l.523.9A1,1,0,0,0,42,44.322Z"></path><path d="M43.98,13.6A18.191,18.191,0,0,1,45.4,15.02l.747-.747-1.416-1.416Z"></path><path d="M53.264,14.979A4.972,4.972,0,0,0,51.8,11.443L47.557,7.2a5.007,5.007,0,0,0-6.294-.637L52.436,17.737A4.961,4.961,0,0,0,53.264,14.979Z"></path><path d="M16.443,7.2,12.2,11.443a5,5,0,0,0-.637,6.294L22.737,6.564a5.007,5.007,0,0,0-6.294.637Z"></path><path d="M20.02,13.6l-.747-.747-1.416,1.416.747.747A18.191,18.191,0,0,1,20.02,13.6Z"></path><path d="M57.455,5.787,56.041,7.2a10.984,10.984,0,0,1,1.744,13.3L59.514,21.5A13.011,13.011,0,0,0,57.455,5.787Z"></path><path d="M54.906,19.44l1.658,1.12a10,10,0,0,0-1.23-12.652L53.92,9.322a8,8,0,0,1,.986,10.118Z"></path><path d="M7.959,7.2,6.545,5.787A13.027,13.027,0,0,0,3.481,19.334l1.885-.668A11.028,11.028,0,0,1,7.959,7.2Z"></path><path d="M9.094,19.44A8,8,0,0,1,10.08,9.322L8.666,7.908A10,10,0,0,0,7.436,20.56Z"></path><path d="M29.5,6h5a1.5,1.5,0,0,0,0-3h-5a1.5,1.5,0,0,0,0,3Z"></path><rect x="31" y="8" width="2" height="1"></rect></g></svg>