<svg xmlns="http://www.w3.org/2000/svg" viewBox="0 0 64 64" x="0px" y="0px"><g><rect x="48" y="26" width="4" height="1"></rect><rect x="12" y="26" width="4" height="1"></rect><path d="M7.749,60h48.5a3,3,0,0,0,2.957-3.51L55.654,35.879A8.347,8.347,0,0,1,49,39a8.193,8.193,0,0,1-7.141-3.845A9.608,9.608,0,0,1,37.44,38.1l4.382,6.335-1.644,1.138L35.4,38.661a17.025,17.025,0,0,1-2.4.3V49H31V38.956a17.025,17.025,0,0,1-2.4-.3l-4.779,6.908-1.644-1.138L26.56,38.1a9.608,9.608,0,0,1-4.419-2.941A8.193,8.193,0,0,1,15,39a8.347,8.347,0,0,1-6.654-3.121L4.792,56.49A3,3,0,0,0,7.749,60Z"></path><path d="M13,24h2V23a17,17,0,0,1,34,0v1h2V23a19,19,0,0,0-38,0Z"></path><path d="M15,37c2.9,0,5.321-1.721,5.879-4H9.121C9.679,35.279,12.1,37,15,37Z"></path><path d="M32,37c4.264,0,7.949-1.75,8.81-4H23.19C24.051,35.25,27.736,37,32,37Z"></path><rect x="8" y="29" width="48" height="2"></rect><path d="M49,37c2.9,0,5.321-1.721,5.879-4H43.121C43.679,35.279,46.1,37,49,37Z"></path></g></svg>