<svg xmlns="http://www.w3.org/2000/svg" viewBox="0 0 64 64" x="0px" y="0px"><g data-name="House"><path d="M48.157,43.181l-15.58-11a1,1,0,0,0-1.154,0l-15.58,11A2.786,2.786,0,1,0,19.1,47.7l1.9-1.4V60a2,2,0,0,0,2,2H41a2,2,0,0,0,2-2V46.307l1.9,1.4a2.768,2.768,0,0,0,1.64.54,2.85,2.85,0,0,0,.493-.044,2.785,2.785,0,0,0,1.122-5.018ZM27,60V54h4v6Zm14,0H33V53a1,1,0,0,0-1-1H26a1,1,0,0,0-1,1v7H23V44.841l9-6.6,9,6.6Zm6.2-14.108a.788.788,0,0,1-1.118.2l-13.494-9.9a1,1,0,0,0-1.184,0l-13.494,9.9a.786.786,0,0,1-1.118-.2.782.782,0,0,1,.2-1.078l15-10.59,15,10.59A.782.782,0,0,1,47.2,45.892Z"></path><path d="M34,53v4a1,1,0,0,0,1,1h4a1,1,0,0,0,1-1V53a1,1,0,0,0-1-1H35A1,1,0,0,0,34,53Zm2,1h2v2H36Z"></path><path d="M28,46a4,4,0,1,0,4-4A4,4,0,0,0,28,46Zm6,0a2,2,0,1,1-2-2A2,2,0,0,1,34,46Z"></path><path d="M21,36a3,3,0,0,0,3-3V27a7.025,7.025,0,0,1,2.658-5.487,6.981,6.981,0,0,0,10.684,0A7.025,7.025,0,0,1,40,27v6a3.015,3.015,0,0,0,3,3,3,3,0,0,0,3-3V27a13.011,13.011,0,0,0-7.2-11.63,6.978,6.978,0,0,0-.8-1.957V4a2,2,0,0,0-2-2H28a2,2,0,0,0-2,2v9.413a6.947,6.947,0,0,0-.8,1.957A13.01,13.01,0,0,0,18,27v6a3.015,3.015,0,0,0,3,3ZM32,22a5,5,0,1,1,5-5A5.006,5.006,0,0,1,32,22Zm12,5v6a1,1,0,0,1-1,1,.978.978,0,0,1-.713-.306A.965.965,0,0,1,42,33V27a9.027,9.027,0,0,0-3.6-7.181,6.91,6.91,0,0,0,.556-2.07A11.018,11.018,0,0,1,44,27ZM36,4v7.264a6.961,6.961,0,0,0-8,0V4ZM20,27a11.018,11.018,0,0,1,5.042-9.251,6.91,6.91,0,0,0,.556,2.07A9.027,9.027,0,0,0,22,27v6a1,1,0,0,1-1,1,.978.978,0,0,1-.713-.306A.965.965,0,0,1,20,33Z"></path><path d="M32,14a3,3,0,1,0,3,3A3,3,0,0,0,32,14Zm0,4a1,1,0,1,1,1-1A1,1,0,0,1,32,18Z"></path></g></svg>