<svg xmlns="http://www.w3.org/2000/svg" viewBox="0 0 64 64" x="0px" y="0px"><g data-name="Money-Cash-Saving-Budget-Money Bag"><rect x="26" y="54" width="11" height="2"></rect><rect x="26" y="58" width="11" height="2"></rect><path d="M30.91,32H26v4.91A5.992,5.992,0,0,0,30.91,32Z"></path><rect x="26" y="50" width="11" height="2"></rect><path d="M30,18a1,1,0,0,0,0-2H22a1,1,0,0,0,0,2Z"></path><path d="M26,43.09V48h4.91A5.992,5.992,0,0,0,26,43.09Z"></path><path d="M7,34.03a9.968,9.968,0,0,1,17,1.64V31a1,1,0,0,1,1-1H44.65A13.058,13.058,0,0,0,32,20H20A13.012,13.012,0,0,0,7,33Z"></path><path d="M6.17,60H24V44.33A9.968,9.968,0,0,1,7,45.97v6.41a5,5,0,0,1-2.16,4A2,2,0,0,0,4,58.11,2.127,2.127,0,0,0,6.17,60Z"></path><path d="M31,4a2.591,2.591,0,0,0-1.87.78,4.612,4.612,0,0,1-6.25,0A2.6,2.6,0,0,0,21,4a2.557,2.557,0,0,0-1.87.78,5.568,5.568,0,0,1-1.53.95L22.57,14h6.86L34.4,5.72a5.132,5.132,0,0,1-1.52-.94A2.6,2.6,0,0,0,31,4Z"></path><path d="M60,32H55.09A5.992,5.992,0,0,0,60,36.91Z"></path><path d="M60,43.09A5.992,5.992,0,0,0,55.09,48H60Z"></path><rect x="49" y="50" width="11" height="2"></rect><path d="M60,38.93A8,8,0,0,1,53.07,32H32.93A8,8,0,0,1,26,38.93v2.14A8,8,0,0,1,32.93,48H53.07A8,8,0,0,1,60,41.07ZM43,45a5,5,0,1,1,5-5A5.006,5.006,0,0,1,43,45Z"></path><rect x="49" y="58" width="11" height="2"></rect><circle cx="43" cy="40" r="3"></circle><path d="M15,48a8,8,0,1,0-8-8A8.011,8.011,0,0,0,15,48Zm1-7H14a3,3,0,0,1,0-6V34h2v1a3,3,0,0,1,3,3H17a1,1,0,0,0-1-1H14a1,1,0,0,0,0,2h2a3,3,0,0,1,0,6v1H14V45a3,3,0,0,1-3-3h2a1,1,0,0,0,1,1h2a1,1,0,0,0,0-2Z"></path><rect x="39" y="50" width="8" height="10"></rect><rect x="49" y="54" width="11" height="2"></rect></g></svg>