<svg xmlns="http://www.w3.org/2000/svg" viewBox="0 0 32 32" x="0px" y="0px"><title>Browser_10</title><g data-name="Browser"><path d="M31,0H1A1,1,0,0,0,0,1V31a1,1,0,0,0,1,1H31a1,1,0,0,0,1-1V1A1,1,0,0,0,31,0ZM30,6H14V2H30ZM12,2V6H2V2ZM2,8H4V30H2ZM6,30V8H30V30Z"></path><rect x="3" y="3" width="2" height="2"></rect><rect x="6" y="3" width="2" height="2"></rect><rect x="9" y="3" width="2" height="2"></rect><rect x="11" y="20" width="2" height="5"></rect><rect x="15" y="19" width="2" height="6"></rect><rect x="19" y="16" width="2" height="9"></rect><rect x="23" y="13" width="2" height="12"></rect></g></svg>