<svg xmlns="http://www.w3.org/2000/svg" viewBox="0 0 64 64" x="0px" y="0px"><g><path d="M47.719,29H16.281l.5-2H27V25H16a1,1,0,0,0-.97.757l-1,4A1,1,0,0,0,15,31H49a1,1,0,0,0,.97-1.243l-1-4A1,1,0,0,0,48,25H37v2H47.219Z"></path><path d="M57.967,35.835a1,1,0,0,0-.006-.11l-4-14A1,1,0,0,0,53,21H37v2H52.246l3.428,12H8.326l3.428-12H27V21H11a1,1,0,0,0-.961.725l-4,14A.975.975,0,0,1,6,36V52a1,1,0,0,0,1,1h7v8a1,1,0,0,0,1,1H49a1,1,0,0,0,1-1V53h7a1,1,0,0,0,1-1V36A1,1,0,0,0,57.967,35.835ZM49,44H15a1,1,0,0,0-1,1v2H12V43H52v4H50V45A1,1,0,0,0,49,44ZM48,60H16V46H48Zm8-9H50V49h3a1,1,0,0,0,1-1V42a1,1,0,0,0-1-1H11a1,1,0,0,0-1,1v6a1,1,0,0,0,1,1h3v2H8V37H56Z"></path><path d="M32,48a5,5,0,1,0,5,5A5.006,5.006,0,0,0,32,48Zm0,8a3,3,0,1,1,3-3A3,3,0,0,1,32,56Z"></path><path d="M18,49v8a1,1,0,0,0,1,1h6V56H20V50h5V48H19A1,1,0,0,0,18,49Z"></path><path d="M45,48H39v2h5v6H39v2h6a1,1,0,0,0,1-1V49A1,1,0,0,0,45,48Z"></path><path d="M29,25v2h2v1h2V27a2,2,0,0,0,2-2V24a2,2,0,0,0-2-2H31V21h4V19H33V18H31v1a2,2,0,0,0-2,2v1a2,2,0,0,0,2,2h2v1Z"></path><path d="M16,13v2h1.1A5.009,5.009,0,0,0,22,19h1V17H22a3,3,0,0,1-2.816-2H23V13H19.184A3,3,0,0,1,22,11h1V9H22a5.009,5.009,0,0,0-4.9,4Z"></path><polygon points="41 6 41 8 43 8 43 9 41 9 41 11 43 11 43 12 45 12 45 11 47 11 47 9 45 9 45 8 47 8 47 6 45.414 6 47.707 3.707 46.293 2.293 44 4.586 41.707 2.293 40.293 3.707 42.586 6 41 6"></polygon><path d="M32,13a1,1,0,0,0,.707-.293l3-3L34.293,8.293,33,9.586V6H31V9.586L29.707,8.293,28.293,9.707l3,3A1,1,0,0,0,32,13Z"></path><path d="M13,9a1,1,0,0,0,.707-.293l3-3L15.293,4.293,14,5.586V2H12V5.586L10.707,4.293,9.293,5.707l3,3A1,1,0,0,0,13,9Z"></path><rect x="31" y="2" width="2" height="2"></rect><rect x="38" y="13" width="2" height="2"></rect><rect x="25" y="13" width="2" height="2"></rect><rect x="25" y="5" width="2" height="2"></rect><rect x="38" y="17" width="2" height="2"></rect><rect x="12" y="11" width="2" height="2"></rect><rect x="12" y="15" width="2" height="2"></rect><path d="M47.293,15.707l3,3a1,1,0,0,0,1.414,0l3-3-1.414-1.414L52,15.586V12H50v3.586l-1.293-1.293Z"></path><rect x="50" y="8" width="2" height="2"></rect><rect x="50" y="4" width="2" height="2"></rect></g></svg>