<svg xmlns="http://www.w3.org/2000/svg" viewBox="0 0 64 64" x="0px" y="0px"><g data-name="Music Video"><path d="M32,42A10,10,0,1,0,22,32,10.011,10.011,0,0,0,32,42ZM29,27.757a1,1,0,0,1,1.506-.862l7.242,4.242a1,1,0,0,1,0,1.726L30.506,37.1A1,1,0,0,1,29,36.243Z"></path><polygon points="31 29.502 31 34.498 35.264 32 31 29.502"></polygon><path d="M47,50V7a3,3,0,0,0-3-3H20a3,3,0,0,0-3,3v3H43v2H17V57a3,3,0,0,0,3,3H44a3,3,0,0,0,3-3V52H21V50ZM26,8H24V6h2Zm4,0H28V6h2Zm1,47h2v2H31ZM19,19V15a1,1,0,0,1,1-1h4v2H21v3Zm1,13A12,12,0,1,1,32,44,12.013,12.013,0,0,1,20,32Z"></path></g></svg>