<svg xmlns="http://www.w3.org/2000/svg" viewBox="0 0 64 64" x="0px" y="0px"><circle cx="27" cy="22" r="2"></circle><circle cx="37" cy="22" r="2"></circle><path d="M29.872,28.118l-1.4,1.424a5.007,5.007,0,0,0,7.064,0l-1.4-1.424A3.082,3.082,0,0,1,29.872,28.118Z"></path><path d="M53.39,11.08l-21-9a.963.963,0,0,0-.78,0l-21,9a1,1,0,0,0,0,1.84l1.39.6v2.66A3.01,3.01,0,0,0,10,19a2.954,2.954,0,0,0,1.03,2.24l-.96,2.39,1.86.74.95-2.38c.04,0,.08.01.12.01s.08-.01.12-.01l.95,2.38,1.86-.74-.96-2.39A2.954,2.954,0,0,0,16,19a3.01,3.01,0,0,0-2-2.82V14.37l4.52,1.94c-.15.92-.28,1.88-.36,2.87A4.035,4.035,0,0,0,17,22a3.931,3.931,0,0,0,1.03,2.65,35.677,35.677,0,0,0,3.16,14.43l-3.87,1.21A8.959,8.959,0,0,0,11,48.88V61a1,1,0,0,0,1,1H52a1,1,0,0,0,1-1V48.88a8.959,8.959,0,0,0-6.32-8.59l-3.87-1.21a35.677,35.677,0,0,0,3.16-14.43A3.931,3.931,0,0,0,47,22a4.035,4.035,0,0,0-1.16-2.82c-.08-.99-.21-1.95-.36-2.87l7.91-3.39a1,1,0,0,0,0-1.84Zm-9.67,6.99A4.285,4.285,0,0,0,43,18V17h.57C43.62,17.35,43.67,17.71,43.72,18.07ZM38,41.11a.968.968,0,0,1-.54.89.978.978,0,0,1-1.04-.07l-2.49-1.78,2.16-1.08,1.91.6Zm.37,2.67A2.986,2.986,0,0,0,40,41.11V40.3l1.67.52-6.28,9.96c-.04.05-.08.11-.12.16l-1.21-4.82,1.26-2.53a2.957,2.957,0,0,0,1.68.53A3.018,3.018,0,0,0,38.37,43.78ZM32.38,45h-.76l-1.29-2.58L32,41.23l1.67,1.19Zm1.17,7.32a4.03,4.03,0,0,1-3.1,0L31.78,47h.44ZM32,38.88l-3-1.5V35.57A10.665,10.665,0,0,0,32,36a11.09,11.09,0,0,0,3-.42v1.8Zm-6.37,4.9a3.018,3.018,0,0,0,1.37.34,2.957,2.957,0,0,0,1.68-.53l1.26,2.53-1.21,4.82c-.03-.06-.08-.11-.11-.16l-6.29-9.96L24,40.3v.81A2.986,2.986,0,0,0,25.63,43.78Zm1.95-1.85a.978.978,0,0,1-1.04.07.968.968,0,0,1-.54-.89V39.67l1.91-.6,2.16,1.08ZM32,34a9.008,9.008,0,0,1-8.72-6.82A4.9,4.9,0,0,0,26,28h2a4.994,4.994,0,0,0,4-2.03A4.994,4.994,0,0,0,36,28h2a4.872,4.872,0,0,0,2.72-.82,8.848,8.848,0,0,1-2.36,4.18A8.942,8.942,0,0,1,32,34ZM23,23V20h8v3a3.009,3.009,0,0,1-3,3H26A3.009,3.009,0,0,1,23,23Zm15,3H36a3.009,3.009,0,0,1-3-3V20h8v3A3.009,3.009,0,0,1,38,26ZM23,18V17H41v1Zm-2-3V11H43v4ZM32,4.09,43.46,9H20.54ZM20.43,17H21v1a4.285,4.285,0,0,0-.72.07C20.33,17.71,20.38,17.35,20.43,17ZM13,20a1,1,0,1,1,1-1A1,1,0,0,1,13,20Zm.54-8,5.54-2.37A.909.909,0,0,0,19,10v4.34ZM19,22a2.006,2.006,0,0,1,2-2v4a2.015,2.015,0,0,1-2-2Zm1.09,3.89A4.62,4.62,0,0,0,21,26h.05A11.028,11.028,0,0,0,27,34.79v2.47l-3.87,1.21A32.766,32.766,0,0,1,20.09,25.89ZM43.64,41.44l2.45.76A6.964,6.964,0,0,1,51,48.88V60H13V48.88a6.964,6.964,0,0,1,4.91-6.68l2.45-.76,6.56,10.4a6.02,6.02,0,0,0,10.16,0Zm-2.77-2.97L37,37.26V34.79a11.064,11.064,0,0,0,2.78-2.01A10.919,10.919,0,0,0,42.95,26H43a4.62,4.62,0,0,0,.91-.11A32.766,32.766,0,0,1,40.87,38.47Zm3.54-15.06A1.983,1.983,0,0,1,43,24V20a2.006,2.006,0,0,1,2,2A1.983,1.983,0,0,1,44.41,23.41ZM45,14.34V10a.909.909,0,0,0-.08-.37L50.46,12Z"></path></svg>