<svg xmlns="http://www.w3.org/2000/svg" viewBox="0 0 64 64" x="0px" y="0px"><g><path d="M59.48,18.12a.549.549,0,0,0,.52-.55.563.563,0,0,0-.57-.57H40.94A8.262,8.262,0,0,1,41,18a9.19,9.19,0,0,1-.17,1.75Z"></path><circle cx="32" cy="20" r="1"></circle><path d="M32,9a8.57,8.57,0,0,1,1.77.18L33.26,5.1a1.272,1.272,0,0,0-2.52,0l-.51,4.08A8.57,8.57,0,0,1,32,9Z"></path><path d="M32,11a7,7,0,1,0,7,7A7.008,7.008,0,0,0,32,11Zm0,12a3,3,0,1,1,3-3A3,3,0,0,1,32,23Zm3.758-7.03L32,15.031l-3.758.939-.484-1.94,4-1a.991.991,0,0,1,.484,0l4,1Z"></path><path d="M4.52,18.12l18.65,1.63A9.19,9.19,0,0,1,23,18a8.262,8.262,0,0,1,.06-1H4.57a.563.563,0,0,0-.57.57A.549.549,0,0,0,4.52,18.12Z"></path><path d="M52,27a4,4,0,1,1,4-4A4,4,0,0,1,52,27Zm0-6a2,2,0,1,0,2,2A2,2,0,0,0,52,21Z"></path><path d="M12,27a4,4,0,1,1,4-4A4,4,0,0,1,12,27Zm0-6a2,2,0,1,0,2,2A2,2,0,0,0,12,21Z"></path><path d="M33,52.59l1.71,1.7A1.033,1.033,0,0,1,35,55v3h.59L37,56.59V52H33Z"></path><path d="M19.59,39H16.38A26.976,26.976,0,0,0,5,61h6.58l-.29-.29A1.033,1.033,0,0,1,11,60V57a1,1,0,0,1,1-1h2.59L18,52.59V49a1.033,1.033,0,0,1,.29-.71L22,44.59V41.41Zm18,7H33a1.033,1.033,0,0,1-.71-.29l-4-4A1.033,1.033,0,0,1,28,41V34.3A26.731,26.731,0,0,0,19.65,37H20a1.033,1.033,0,0,1,.71.29l3,3A1.033,1.033,0,0,1,24,41v4a1.033,1.033,0,0,1-.29.71L20,49.41V53a1.033,1.033,0,0,1-.29.71l-4,4A1.033,1.033,0,0,1,15,58H13v1.59l.71.7L13,61H40V58a1.033,1.033,0,0,1,.29-.71L42,55.59V50.41ZM39,57a1.033,1.033,0,0,1-.29.71l-2,2A1.033,1.033,0,0,1,36,60H34a1,1,0,0,1-1-1V55.41l-1.71-1.7A1.033,1.033,0,0,1,31,53V51a1,1,0,0,1,1-1h6a1,1,0,0,1,1,1Zm4.71-.29L42,58.41V61H59A27.028,27.028,0,0,0,32,34c-.67,0-1.34.03-2,.08v6.51L33.41,44H38a1.033,1.033,0,0,1,.71.29l5,5A1.033,1.033,0,0,1,44,50v6A1.033,1.033,0,0,1,43.71,56.71Z"></path></g></svg>