<svg xmlns="http://www.w3.org/2000/svg" viewBox="0 0 64 64" x="0px" y="0px"><g><circle cx="50" cy="16" r="1"></circle><circle cx="51" cy="32" r="1"></circle><circle cx="14" cy="16" r="1"></circle><path d="M36.279,44l.577-1.73-1.563-1.563A1,1,0,0,1,35,40V39h2v.586l1.307,1.307L41,40.219V35h2v1.586l1-1V31.3L42.845,29.57,42,30.414V31H40V30a1,1,0,0,1,.293-.707L42,27.586V24.414L40.586,23H38.414L37,24.414V25H35V24a1,1,0,0,1,.293-.707l1.563-1.563L36.279,20H34.414L33,21.414V42.586L34.414,44ZM39,38H37V36.414l-.707-.707,1.414-1.414,1,1A1,1,0,0,1,39,36ZM35,27h2v2.586l1.707,1.707-1.414,1.414-2-2A1,1,0,0,1,35,30Z"></path><path d="M21,35h2v5.219l2.693.674L27,39.586V39h2v1a1,1,0,0,1-.293.707L27.144,42.27,27.721,44h1.865L31,42.586V21.414L29.586,20H27.721l-.577,1.73,1.563,1.563A1,1,0,0,1,29,24v1H27v-.586L25.586,23H23.414L22,24.414v3.172l1.707,1.707A1,1,0,0,1,24,30v1H22v-.586l-.845-.844L20,31.3v4.283l1,1Zm6-5.414V27h2v3a1,1,0,0,1-.293.707l-2,2-1.414-1.414ZM25,36a1,1,0,0,1,.293-.707l1-1,1.414,1.414L27,36.414V38H25Z"></path><path d="M32,56.863C35.673,54.836,60,40.676,60,21.5,60,13.243,53.224,6,45.5,6a14.53,14.53,0,0,0-12.629,7.391,1.041,1.041,0,0,1-1.742,0A14.53,14.53,0,0,0,18.5,6C10.776,6,4,13.243,4,21.5,4,40.676,28.327,54.836,32,56.863ZM13,29a3,3,0,0,1,2.816,2H18a1.006,1.006,0,0,1,.168-.555L20,27.7V25H16a1,1,0,0,1-.707-.293l-2-2A1,1,0,0,1,13,22V18.816a3,3,0,1,1,2,0v2.77L16.414,23h4.172l1.707-1.707A1,1,0,0,1,23,21h2.279l.772-2.316A1,1,0,0,1,27,18h3a1,1,0,0,1,.707.293L32,19.586l1.293-1.293A1,1,0,0,1,34,18h3a1,1,0,0,1,.949.684L38.721,21H41a1,1,0,0,1,.707.293L43.414,23h4.172L49,21.586v-2.77a3,3,0,1,1,2,0V22a1,1,0,0,1-.293.707l-2,2A1,1,0,0,1,48,25H44v2.7l1.832,2.748A1.006,1.006,0,0,1,46,31h2.184a3,3,0,1,1,0,2H46v3a1,1,0,0,1-.293.707L43,39.414V41a1,1,0,0,1-.757.97l-3.468.867-.826,2.479A1,1,0,0,1,37,46H34a1,1,0,0,1-.707-.293L32,44.414l-1.293,1.293A1,1,0,0,1,30,46H27a1,1,0,0,1-.949-.684l-.826-2.479-3.468-.867A1,1,0,0,1,21,41V39.414l-2.707-2.707A1,1,0,0,1,18,36V33H15.816A2.995,2.995,0,1,1,13,29Z"></path><circle cx="13" cy="32" r="1"></circle></g></svg>