<svg xmlns="http://www.w3.org/2000/svg" viewBox="0 0 64 64" x="0px" y="0px"><g data-name="Smartphone-Transfer-Data Transfer-Hand-Database"><path d="M56,46a3.94,3.94,0,0,0-2.57.94A4.012,4.012,0,0,0,50,45a3.94,3.94,0,0,0-2.57.94A4,4,0,0,0,46,44.54V9a7.008,7.008,0,0,0-7-7H17a7.008,7.008,0,0,0-7,7V47a7.008,7.008,0,0,0,7,7h9.54a4.287,4.287,0,0,0,.4,1.04l4.31,7.46,1.73-1-4.31-7.46a2.018,2.018,0,0,1,.73-2.74,2.06,2.06,0,0,1,1.52-.2,1.942,1.942,0,0,1,1.21.94l2,3.46a1.022,1.022,0,0,0,1.13.47A1,1,0,0,0,36,55V40a2,2,0,0,1,4,0V52a1,1,0,0,0,2,0V48a2,2,0,0,1,4,0v4a1,1,0,0,0,2,0V49a2,2,0,0,1,4,0v3a1,1,0,0,0,2,0V50a2,2,0,0,1,4,0V62h2V50A4,4,0,0,0,56,46ZM34,51.27l-.13-.23a4,4,0,0,0-2.43-1.87A3.354,3.354,0,0,0,31,49.1V48H25v2h2.81a4.048,4.048,0,0,0-1.27,2H17a5,5,0,0,1-5-5V46H34ZM35,35c0,.58-2.45,2-7,2s-7-1.42-7-2V30.6A15.9,15.9,0,0,0,28,32a15.9,15.9,0,0,0,7-1.4Zm0-7c0,.58-2.45,2-7,2s-7-1.42-7-2V23.6A15.9,15.9,0,0,0,28,25a15.9,15.9,0,0,0,7-1.4Zm-7-5c-4.55,0-7-1.42-7-2s2.45-2,7-2,7,1.42,7,2S32.55,23,28,23ZM44,44a3.989,3.989,0,0,0-2,.54V40a4,4,0,0,0-4-4,3.834,3.834,0,0,0-1.4.27A2.326,2.326,0,0,0,37,35V21c0-2.63-4.53-4-9-4s-9,1.37-9,4V35c0,2.63,4.53,4,9,4a16.508,16.508,0,0,0,6.69-1.24A3.932,3.932,0,0,0,34,40v4H12V12H44Zm0-34H12V9a5,5,0,0,1,5-5H39a5,5,0,0,1,5,5Z"></path><rect x="23" y="26" width="2" height="2"></rect><rect x="27" y="27" width="2" height="2"></rect><rect x="23" y="33" width="2" height="2"></rect><rect x="27" y="34" width="2" height="2"></rect><rect x="20" y="6" width="2" height="2"></rect><rect x="24" y="6" width="8" height="2"></rect></g></svg>