<svg xmlns="http://www.w3.org/2000/svg" viewBox="0 0 64 64" x="0px" y="0px"><g><path d="M57,28H51V5a3,3,0,0,0-3-3H16a3,3,0,0,0-3,3V28H7a1,1,0,0,0-1,1V59a3,3,0,0,0,3,3H55a3,3,0,0,0,3-3V29A1,1,0,0,0,57,28ZM43.414,44,56,31.414V56.586ZM54.586,30,51,33.586V30ZM43,4h2V8.586l-.293-.293a1,1,0,0,0-1.414,0L43,8.586ZM16,4H41v7a1,1,0,0,0,1.707.707L44,10.414l1.293,1.293A1,1,0,0,0,47,11V4h1a1,1,0,0,1,1,1V35.586L39.586,45H24.414L15,35.586V5A1,1,0,0,1,16,4Zm4.586,40L8,56.586V31.414ZM13,33.586,9.414,30H13ZM55,60H9a.994.994,0,0,1-.93-.656L22,45.414l1.293,1.293A1,1,0,0,0,24,47H40a1,1,0,0,0,.707-.293L42,45.414l13.93,13.93A.994.994,0,0,1,55,60Z"></path><rect x="19" y="8" width="6" height="2"></rect><rect x="19" y="12" width="6" height="2"></rect><path d="M24.577,25.947,22.57,31.3A2,2,0,0,0,24.443,34H28a1,1,0,0,0,.895-.553l.52-1.04.636,1.909A1,1,0,0,0,31,35h2a1,1,0,0,0,.949-.684l.636-1.909.52,1.04A1,1,0,0,0,36,34h3.557a2,2,0,0,0,1.873-2.7l-2.007-5.351A3.012,3.012,0,0,0,37,24.03V21.379a10.724,10.724,0,0,0-1.873-6.142q-3.128-4.515-6.254,0A10.719,10.719,0,0,0,27,21.379V24.03A3.012,3.012,0,0,0,24.577,25.947ZM31.721,33l-.334-1h1.226l-.334,1Zm5.829-6.351L39.557,32H36.618l-.087-.174A.982.982,0,0,0,37,31V26.089A.993.993,0,0,1,37.55,26.649ZM29,21.379a8.734,8.734,0,0,1,1.518-5C31.27,15.29,31.8,15,32,15s.73.29,1.482,1.376a8.734,8.734,0,0,1,1.518,5V30H33V24H31v6H29Zm-2,4.71V31a.982.982,0,0,0,.469.826L27.382,32H24.443l2.006-5.351A1,1,0,0,1,27,26.089Z"></path><path d="M32,20.118l1.553.777.894-1.79-2-1a1,1,0,0,0-.894,0l-2,1,.894,1.79Z"></path><rect x="31" y="37" width="2" height="2"></rect><rect x="37" y="36" width="2" height="2"></rect><rect x="25" y="36" width="2" height="2"></rect></g></svg>