<svg xmlns="http://www.w3.org/2000/svg" viewBox="0 0 64 64" x="0px" y="0px"><g><circle cx="52" cy="54" r="2"></circle><circle cx="42" cy="54" r="2"></circle><path d="M54,48H10a6,6,0,0,0,0,12H54a6,6,0,0,0,0-12ZM12,58a4,4,0,1,1,4-4A4,4,0,0,1,12,58Zm10,0a4,4,0,1,1,4-4A4,4,0,0,1,22,58Zm10,0a4,4,0,1,1,4-4A4,4,0,0,1,32,58Zm10,0a4,4,0,1,1,4-4A4,4,0,0,1,42,58Zm10,0a4,4,0,1,1,4-4A4,4,0,0,1,52,58Z"></path><circle cx="12" cy="54" r="2"></circle><circle cx="32" cy="54" r="2"></circle><circle cx="22" cy="54" r="2"></circle><path d="M19,46V19a3.009,3.009,0,0,1,3-3H42a3.009,3.009,0,0,1,3,3V46h1a1,1,0,0,0,1-1V15a1,1,0,0,0-1-1H18a1,1,0,0,0-1,1V45a1,1,0,0,0,1,1Z"></path><path d="M38,5a1,1,0,0,0-1-1H27a1,1,0,0,0-1,1V6H38Z"></path><polygon points="37.78 28 37.28 30 38.72 30 38.22 28 37.78 28"></polygon><rect x="26" y="8" width="2" height="4"></rect><path d="M43,19a1,1,0,0,0-1-1H22a1,1,0,0,0-1,1v3H43Z"></path><path d="M36.03,26.76A1,1,0,0,1,37,26V24H21V46H43V24H39v2a1,1,0,0,1,.97.76l1,4a1.022,1.022,0,0,1-.18.86A1,1,0,0,1,40,32H36a1,1,0,0,1-.79-.38,1.022,1.022,0,0,1-.18-.86Z"></path><rect x="36" y="8" width="2" height="4"></rect></g></svg>