<svg xmlns="http://www.w3.org/2000/svg" viewBox="0 0 64 64" x="0px" y="0px"><g data-name="Cloud-Real Estate"><path d="M52.935,12.043A7.011,7.011,0,0,0,46,6a6.928,6.928,0,0,0-4.051,1.292,11.994,11.994,0,0,0-21.533,3.6A6.984,6.984,0,0,0,10.083,16H10a8,8,0,0,0,0,16h2v6a1,1,0,0,0,.293.707L15.3,41.715A2.951,2.951,0,0,0,15,43a3,3,0,1,0,3-3,2.951,2.951,0,0,0-1.285.3L14,37.586V32H24v1.184a3,3,0,1,0,2,0V32H38v1.184a3,3,0,1,0,2,0V32H50v5.586L47.285,40.3A2.951,2.951,0,0,0,46,40a3,3,0,1,0,3,3,2.951,2.951,0,0,0-.3-1.285l3.008-3.008A1,1,0,0,0,52,38V32a10,10,0,0,0,.935-19.957ZM19,43a1,1,0,1,1-1-1A1,1,0,0,1,19,43Zm6-6a1,1,0,1,1,1-1A1,1,0,0,1,25,37Zm14,0a1,1,0,1,1,1-1A1,1,0,0,1,39,37Zm7,7a1,1,0,1,1,1-1A1,1,0,0,1,46,44Zm6-14V24H50v6H40V28H38v2H26V28H24v2H14V24H12v6H10a6,6,0,0,1,0-12,5.9,5.9,0,0,1,.861.07,1.025,1.025,0,0,0,.8-.274A1.083,1.083,0,0,0,12,17a4.993,4.993,0,0,1,8.412-3.646,1,1,0,0,0,1.676-.606A9.993,9.993,0,0,1,40.82,9.29a1,1,0,0,0,1.6.226A5,5,0,0,1,51,13a1,1,0,0,0,1,1,8,8,0,0,1,0,16Z"></path><rect x="47" y="12" width="2" height="2"></rect><rect x="43" y="12" width="2" height="2"></rect><rect x="29" y="44" width="2" height="2"></rect><rect x="33" y="44" width="2" height="2"></rect><rect x="29" y="48" width="2" height="2"></rect><rect x="33" y="48" width="2" height="2"></rect><rect x="29" y="52" width="2" height="2"></rect><rect x="33" y="52" width="2" height="2"></rect><rect x="41" y="52" width="2" height="2"></rect><rect x="45" y="52" width="2" height="2"></rect><rect x="41" y="56" width="2" height="2"></rect><rect x="45" y="56" width="2" height="2"></rect><rect x="29" y="56" width="2" height="2"></rect><rect x="33" y="56" width="2" height="2"></rect><path d="M51,50a1,1,0,0,0-.758-.97L39,46.219V42h2V40H33V38H31v2H23v2h2v4.219L13.758,49.03A1,1,0,0,0,13,50V60H11v2H53V60H51Zm-2,.781V60H39V48.281ZM37,42V60H27V42ZM15,50.781l10-2.5V60H15Z"></path><rect x="21" y="52" width="2" height="2"></rect><rect x="17" y="52" width="2" height="2"></rect><rect x="21" y="56" width="2" height="2"></rect><rect x="17" y="56" width="2" height="2"></rect><rect x="38" y="24" width="2" height="2"></rect><rect x="24" y="24" width="2" height="2"></rect><path d="M31,13h2a1,1,0,0,1,1,1h2a3,3,0,0,0-3-3V10H31v1a3,3,0,0,0,0,6h2a1,1,0,0,1,0,2H31a1,1,0,0,1-1-1H28a3,3,0,0,0,3,3v1h2V21a3,3,0,0,0,0-6H31a1,1,0,0,1,0-2Z"></path><path d="M52,16v2a4,4,0,0,1,4,4h2A6.006,6.006,0,0,0,52,16Z"></path></g></svg>