<svg xmlns="http://www.w3.org/2000/svg" viewBox="0 0 64 64" x="0px" y="0px"><title>Bath</title><g><path d="M62,39a3,3,0,0,0-2-2.816V34a2,2,0,0,0-2-2H57V17a6.006,6.006,0,0,0-6-6h-.355a3.987,3.987,0,0,0-5.6.051,1,1,0,0,0,0,1.414l4.243,4.242a1,1,0,0,0,1.414,0,3.976,3.976,0,0,0,1.171-2.828,4.068,4.068,0,0,0-.08-.8A4.006,4.006,0,0,1,55,17V32H54a2,2,0,0,0-2,2v2H28.957c.015-.167.043-.331.043-.5a5.506,5.506,0,0,0-8.733-4.455,2.984,2.984,0,0,0-4.4-.144A5,5,0,0,0,8.4,33.027,3,3,0,0,0,5,36a3.013,3.013,0,0,0-3,3,3,3,0,0,0,2,2.816V43a11.012,11.012,0,0,0,9,10.809V57a3,3,0,0,0,6,0V54H45v3a3,3,0,0,0,6,0V53.809A11.012,11.012,0,0,0,60,43V41.819a2.848,2.848,0,0,0,1.108-.692A2.944,2.944,0,0,0,62,39ZM49.811,14.4l-2.451-2.45a2.041,2.041,0,0,1,1.933.519,1.99,1.99,0,0,1,.585,1.414A2.025,2.025,0,0,1,49.811,14.4ZM54,34h4v2H54ZM8,35a.873.873,0,0,1,.5.148,1,1,0,0,0,1.546-.661,3,3,0,0,1,5.265-1.4,1,1,0,0,0,1.731-.365.993.993,0,0,1,1.938.119,1,1,0,0,0,1.771.48A3.505,3.505,0,0,1,27,35.5a3.523,3.523,0,0,1-.967,2.413c-.055.055-.118.115-.2.187l0,0c-.076.068-.153.136-.191.168-.086.061-.172.123-.267.182a1,1,0,0,0-.434,1.1A1.781,1.781,0,0,1,25,40a1.867,1.867,0,0,1-.126.677,2.032,2.032,0,0,1-2.88,1.053,1.054,1.054,0,0,0-.994.007l-.147.07c-.061.026-.121.055-.249.1a.6.6,0,0,1-.136.031.864.864,0,0,0-.135.022A1.835,1.835,0,0,1,19.98,42a1,1,0,0,0-1.106.664,1.988,1.988,0,0,1-3.8-.144.99.99,0,0,0-.948-.739c-.006,0-.012,0-.018,0a1.021,1.021,0,0,0-.38.075,1.925,1.925,0,0,1-1.4,0,2.027,2.027,0,0,1-1.219-1.232.75.75,0,0,1-.044-.126,1,1,0,0,0-1.544-.649A.915.915,0,0,1,9,40a1,1,0,0,1-1-1,.975.975,0,0,1,.165-.555,1,1,0,0,0-.51-1.514A.992.992,0,0,1,7,36,1,1,0,0,1,8,35ZM4.306,38.287A.965.965,0,0,1,5,38h.767a3.185,3.185,0,0,0,.313.3A3.049,3.049,0,0,0,6,39a2.986,2.986,0,0,0,.057.563c.011.06.031.116.046.174.022.088.038.179.068.263H5a1,1,0,0,1-1-1A.976.976,0,0,1,4.306,38.287ZM17,57a1,1,0,0,1-2,0V54h2Zm32,0a1,1,0,0,1-2,0V54h2Zm9-14a9.01,9.01,0,0,1-9,9H15a9.01,9.01,0,0,1-9-9V42H9.539c.048.083.107.158.16.237s.1.158.156.23c.07.09.15.17.227.253.056.059.106.123.164.179.094.089.2.166.3.246.052.04.1.085.152.123a4.079,4.079,0,0,0,.382.231c.04.022.076.049.117.069a3.9,3.9,0,0,0,.48.2c.021.007.039.018.06.025a3.936,3.936,0,0,0,1.786.17,3.989,3.989,0,0,0,6.953,0c.077-.01.153-.024.231-.039a2.749,2.749,0,0,0,.549-.127l.1-.04c.047-.018.1-.036.144-.057A4.018,4.018,0,0,0,23,44a4.077,4.077,0,0,0,.587-.046c.065-.01.127-.026.192-.039a3.518,3.518,0,0,0,.368-.088c.077-.022.151-.05.226-.077.1-.037.2-.077.3-.122.081-.037.16-.077.238-.119s.162-.093.241-.144.166-.106.246-.165c.06-.045.116-.1.173-.143.088-.074.177-.146.258-.228.012-.011.022-.025.033-.037a3.858,3.858,0,0,0,.525-.679c.024-.039.052-.074.075-.113H58Zm1.694-3.287A.965.965,0,0,1,59,40H27c0-.082,0-.163-.008-.244a2.229,2.229,0,0,0,.174-.16l.01-.011a3.141,3.141,0,0,0,.317-.3,5.307,5.307,0,0,0,.621-.806c.049-.075.094-.152.139-.23s.1-.159.146-.244H59a1,1,0,0,1,1,1A.976.976,0,0,1,59.694,39.713Z"></path><path d="M44,28a3,3,0,1,0-3-3A3,3,0,0,0,44,28Zm0-4a1,1,0,1,1-1,1A1,1,0,0,1,44,24Z"></path><path d="M33,24a3,3,0,1,0-3-3A3,3,0,0,0,33,24Zm0-4a1,1,0,1,1-1,1A1,1,0,0,1,33,20Z"></path></g></svg>