<svg xmlns="http://www.w3.org/2000/svg" viewBox="0 0 64 64" x="0px" y="0px"><g><path d="M34,18v2a1,1,0,0,0,0-2Z"></path><path d="M36.205,21.018A2.984,2.984,0,0,1,34,22v1a10.949,10.949,0,0,1-2.521,7H34V28a3,3,0,0,1,2.918-2.992Z"></path><path d="M23.95,4h-1.9a11,11,0,0,0-10.835,9.066l-.585,3.281A2.964,2.964,0,0,1,12,16V15a1,1,0,0,1,1-1H24V10h2v4h2V12h2v2h3a1,1,0,0,1,1,1v1a2.965,2.965,0,0,1,1.371.347l-.586-3.282A11,11,0,0,0,23.95,4Z"></path><path d="M8.824,26.476A3,3,0,0,0,11.78,30h2.741A10.949,10.949,0,0,1,12,23V22a2.983,2.983,0,0,1-2.2-.98Z"></path><path d="M4,60H8.791A10.752,10.752,0,0,1,7,54a10.234,10.234,0,0,1,2.45-6.814A6.955,6.955,0,0,0,11.4,43.011l.268-2.668-1.345.421A8.95,8.95,0,0,0,4,49.35Z"></path><path d="M9,54a8.1,8.1,0,0,0,1.967,5.494,5.456,5.456,0,0,1,.476.506H34.184A2.966,2.966,0,0,1,34,59V40.235l-3.4-1.063A7.892,7.892,0,0,1,23,44a7.9,7.9,0,0,1-7.6-4.827l-1.663.521-.354,3.517a8.963,8.963,0,0,1-2.512,5.38A8.268,8.268,0,0,0,9,54Z"></path><path d="M12,20V18a1,1,0,0,0,0,2Z"></path><path d="M23,34a10.966,10.966,0,0,1-3-.426V37a1,1,0,0,1-.7.954l-1.982.62A6.021,6.021,0,0,0,23,42a6.023,6.023,0,0,0,5.684-3.427L26.7,37.954A1,1,0,0,1,26,37V33.574A10.966,10.966,0,0,1,23,34Z"></path><path d="M32,20V16H28A4,4,0,0,1,32,20Z"></path><path d="M32,20a4,4,0,0,1-8,0,1,1,0,0,0-2,0,4,4,0,0,1-8,0v3a9,9,0,0,0,18,0Zm-9,9a4,4,0,0,1-4-4h2a2,2,0,0,0,4,0h2A4,4,0,0,1,23,29Z"></path><rect x="40" y="53" width="4" height="3"></rect><path d="M21.2,17.619a2.941,2.941,0,0,1,3.61,0A3.981,3.981,0,0,1,28,16H18A3.981,3.981,0,0,1,21.2,17.619Z"></path><path d="M18,22a2,2,0,1,0-2-2A2,2,0,0,0,18,22Zm-1-3h2v2H17Z"></path><path d="M28,22a2,2,0,1,0-2-2A2,2,0,0,0,28,22Zm-1-3h2v2H27Z"></path><path d="M18,16H14v4A4,4,0,0,1,18,16Z"></path><rect x="52" y="48" width="4" height="3"></rect><path d="M40,37H56V31H40Zm11-4h2v2H51Zm-4,0h2v2H47Zm-4,0h2v2H43Z"></path><rect x="40" y="48" width="4" height="3"></rect><rect x="52" y="43" width="4" height="3"></rect><path d="M60,59V28a1,1,0,0,0-1-1H37a1,1,0,0,0-1,1V59a1,1,0,0,0,1,1H59A1,1,0,0,0,60,59Zm-2-2a1,1,0,0,1-1,1H39a1,1,0,0,1-1-1V42a1,1,0,0,1,1-1H57a1,1,0,0,1,1,1Zm0-19a1,1,0,0,1-1,1H39a1,1,0,0,1-1-1V30a1,1,0,0,1,1-1H57a1,1,0,0,1,1,1Z"></path><rect x="52" y="53" width="4" height="3"></rect><rect x="46" y="43" width="4" height="3"></rect><rect x="46" y="53" width="4" height="3"></rect><rect x="46" y="48" width="4" height="3"></rect><rect x="40" y="43" width="4" height="3"></rect></g></svg>