<svg xmlns="http://www.w3.org/2000/svg" viewBox="0 0 64 64" x="0px" y="0px"><g data-name="Computer Game"><path d="M27,36H37a1,1,0,0,0,0-2H27a1,1,0,0,0,0,2Z"></path><rect x="29" y="28" width="6" height="4"></rect><rect x="19" y="8" width="26" height="14"></rect><path d="M15,4V26H49V4ZM47,23a1,1,0,0,1-1,1H18a1,1,0,0,1-1-1V7a1,1,0,0,1,1-1H46a1,1,0,0,1,1,1Z"></path><path d="M27,60a1,1,0,0,0,1-1V48a6.006,6.006,0,0,0-6-6H10a6.006,6.006,0,0,0-6,6V59a1,1,0,0,0,1,1H7.249a1,1,0,0,0,.991-.868l.72-5.4A2.005,2.005,0,0,1,10.942,52H21.058a2.005,2.005,0,0,1,1.982,1.736l.72,5.4a1,1,0,0,0,.991.868ZM12,48H10v2H8V48H6V46H8V44h2v2h2Zm3-2H13V44h2Zm4,0H17V44h2Zm5,2v2H22V48H20V46h2V44h2v2h2v2Z"></path><rect x="22" y="46" width="2" height="2"></rect><path d="M49,40H47V37a1,1,0,0,1,1-1H59V34H44a1,1,0,0,1-1-1V28h2v4H60a1,1,0,0,1,1,1v4a1,1,0,0,1-1,1H49Z"></path><path d="M17,40H15V36H6a1,1,0,0,1-1-1V31a1,1,0,0,1,1-1H19V28h2v3a1,1,0,0,1-1,1H7v2h9a1,1,0,0,1,1,1Z"></path><rect x="54" y="46" width="2" height="2"></rect><path d="M59,60a1,1,0,0,0,1-1V48a6.006,6.006,0,0,0-6-6H42a6.006,6.006,0,0,0-6,6V59a1,1,0,0,0,1,1h2.249a1,1,0,0,0,.991-.868l.72-5.4A2.005,2.005,0,0,1,42.942,52H53.058a2.005,2.005,0,0,1,1.982,1.736l.72,5.4a1,1,0,0,0,.991.868ZM44,48H42v2H40V48H38V46h2V44h2v2h2Zm3-2H45V44h2Zm4,0H49V44h2Zm5,2v2H54V48H52V46h2V44h2v2h2v2Z"></path></g></svg>