<svg xmlns="http://www.w3.org/2000/svg" viewBox="0 0 64 64" x="0px" y="0px"><g data-name="Smartphone-Online Learning"><polygon points="43 19.618 41 20.618 41 23.382 43 24.382 43 19.618"></polygon><rect x="38" y="21" width="1" height="2"></rect><path d="M30,39a1,1,0,0,1,1-1h8a3,3,0,0,0,0-6H23.236l-3.789,1.9A1,1,0,0,1,19,34H16V56H26V47.477A8.96,8.96,0,0,1,23,48V46A7.008,7.008,0,0,0,30,39Z"></path><path d="M60,7a3,3,0,0,0-3-3H52V6a2,2,0,0,1-2,2H38a2,2,0,0,1-2-2V4H31a3,3,0,0,0-3,3V30h7.072A11.989,11.989,0,1,1,44,34c-.034,0-.067,0-.1,0A5,5,0,0,1,39,40H31.944A9,9,0,0,1,28,46.47V57a3,3,0,0,0,3,3H57a3,3,0,0,0,3-3ZM56,54a2,2,0,0,1-2,2H38a2,2,0,0,1-2-2V51.618L32.553,49.9a1,1,0,0,1,0-1.79L36,46.382V44a2,2,0,0,1,2-2H54a2,2,0,0,1,2,2Z"></path><path d="M38,47a1,1,0,0,1-.553.9L35.236,49l2.211,1.1A1,1,0,0,1,38,51v3H54V44H38Zm2-1H52v2H40Zm0,4H52v2H40Z"></path><path d="M14,58V32H4V58ZM10,34h2v2H10Z"></path><rect x="38" y="4" width="12" height="2"></rect><path d="M42.907,31.919A9.844,9.844,0,0,0,44,32a10.041,10.041,0,1,0-5.973-2H39A4.97,4.97,0,0,1,42.907,31.919Zm7.335-14.162a6,6,0,0,1,0,8.486l-1.414-1.414a4,4,0,0,0,0-5.658Zm-3.535,3.536,1.414-1.415a3,3,0,0,1,0,4.244l-1.414-1.415a1,1,0,0,0,0-1.414ZM37,25a1,1,0,0,1-1-1V20a1,1,0,0,1,1-1h2.764l3.789-1.895A1,1,0,0,1,45,18v8a1,1,0,0,1-1.447.895L39.764,25Z"></path></g></svg>