<svg xmlns="http://www.w3.org/2000/svg" viewBox="0 0 64 64" x="0px" y="0px"><g data-name="Blood Bank"><path d="M4,45H31V14H4ZM17.139,22.492a1.04,1.04,0,0,1,1.722,0C19.553,23.666,23,29.638,23,32a5,5,0,0,1-10,0C13,29.638,16.447,23.666,17.139,22.492Z"></path><path d="M8,47.83A3.174,3.174,0,0,0,11.17,51H52.83A3.174,3.174,0,0,0,56,47.83V47H8Z"></path><path d="M60,47H58v.83A5.176,5.176,0,0,1,52.83,53H11.17A5.176,5.176,0,0,1,6,47.83V47H4v5a3,3,0,0,0,3,3h7a1,1,0,0,1,1,1v3a1,1,0,0,0,2,0V56a1,1,0,0,1,1-1H30a1,1,0,0,1,1,1v3a1,1,0,0,0,2,0V56a1,1,0,0,1,1-1H46a1,1,0,0,1,1,1v3a1,1,0,0,0,2,0V56a1,1,0,0,1,1-1h7a3,3,0,0,0,3-3Z"></path><path d="M18,35a3,3,0,0,0,3-3c0-1.159-1.6-4.438-3-6.978-1.4,2.54-3,5.819-3,6.978A3,3,0,0,0,18,35Z"></path><path d="M56,11.17A3.174,3.174,0,0,0,52.83,8H11.17A3.174,3.174,0,0,0,8,11.17V12H56Z"></path><path d="M60,14H33V45H60ZM39,19h2v2H39ZM53,39H39V37H53Zm0-6H39V31H53Zm0-6H39V25H53Zm0-6H43V19H53Z"></path><path d="M60,7a3,3,0,0,0-3-3H7A3,3,0,0,0,4,7v5H6v-.83A5.176,5.176,0,0,1,11.17,6H52.83A5.176,5.176,0,0,1,58,11.17V12h2Z"></path></g></svg>