<svg xmlns="http://www.w3.org/2000/svg" viewBox="0 0 64 64" x="0px" y="0px"><g><polygon points="49 28 51 28 51 24 55 24 55 22 51 22 51 18 49 18 49 22 45 22 45 24 49 24 49 28"></polygon><path d="M59,23a9,9,0,0,0-17.05-4.01,13.23,13.23,0,0,0-3.18-.86A2.853,2.853,0,0,0,39,17a3,3,0,0,0-2.17-2.87l5.99-8.56a1,1,0,0,0,.07-1.03A1.02,1.02,0,0,0,42,4c-.5,0-.8-.25-1.32-.73a3.463,3.463,0,0,0-5.36,0C34.8,3.75,34.5,4,34,4s-.8-.25-1.32-.73a3.463,3.463,0,0,0-5.36,0C26.8,3.75,26.5,4,26,4s-.8-.25-1.32-.73A3.773,3.773,0,0,0,22,2a3.773,3.773,0,0,0-2.68,1.27C18.8,3.75,18.5,4,18,4a1.02,1.02,0,0,0-.89.54,1,1,0,0,0,.07,1.03l5.99,8.56A3,3,0,0,0,21,17a2.939,2.939,0,0,0,.23,1.14A13,13,0,0,0,10,31V43.22a5.2,5.2,0,0,1-.79,2.76L6.09,50.97A7.211,7.211,0,0,0,12.22,62H47.78A7.23,7.23,0,0,0,55,54.78a7.322,7.322,0,0,0-1.09-3.82l-3.12-4.98A5.2,5.2,0,0,1,50,43.22V32A9.014,9.014,0,0,0,59,23ZM19.62,5.57a5.943,5.943,0,0,0,1.06-.84C21.2,4.25,21.5,4,22,4s.8.25,1.32.73A3.773,3.773,0,0,0,26,6a3.773,3.773,0,0,0,2.68-1.27C29.2,4.25,29.5,4,30,4s.8.25,1.32.73a3.463,3.463,0,0,0,5.36,0C37.2,4.25,37.5,4,38,4s.8.25,1.32.73a5.943,5.943,0,0,0,1.06.84L34.48,14H25.52ZM24,16H36a1,1,0,0,1,0,2H24a1,1,0,0,1,0-2ZM52.21,52.02A5.219,5.219,0,0,1,47.78,60H12.22A5.224,5.224,0,0,1,7,54.78a5.2,5.2,0,0,1,.79-2.76l3.12-4.99A7.261,7.261,0,0,0,12,43.22V31A11.007,11.007,0,0,1,23,20H37a10.9,10.9,0,0,1,4.27.87A8.816,8.816,0,0,0,41,23a9.016,9.016,0,0,0,7,8.77V43.22a7.322,7.322,0,0,0,1.09,3.82ZM43,23a7,7,0,1,1,7,7A7.008,7.008,0,0,1,43,23Z"></path><path d="M32,38h2a3,3,0,0,0-3-3V33H29v2a3,3,0,0,0,0,6v2a1,1,0,0,1-1-1H26a3,3,0,0,0,3,3v2h2V45a3,3,0,0,0,0-6V37A1,1,0,0,1,32,38Zm0,4a1,1,0,0,1-1,1V41A1,1,0,0,1,32,42Zm-3-3a1,1,0,0,1,0-2Z"></path><path d="M30,29A11,11,0,1,0,41,40,11.013,11.013,0,0,0,30,29Zm0,20a9,9,0,1,1,9-9A9.01,9.01,0,0,1,30,49Z"></path><path d="M30,25A15,15,0,1,0,45,40,15.017,15.017,0,0,0,30,25Zm0,28A13,13,0,1,1,43,40,13.015,13.015,0,0,1,30,53Z"></path></g></svg>