<svg xmlns="http://www.w3.org/2000/svg" viewBox="0 0 64 64" x="0px" y="0px"><g><path d="M32,16A16,16,0,1,0,48,32,16.019,16.019,0,0,0,32,16Zm0,30A14,14,0,1,1,46,32,14.015,14.015,0,0,1,32,46Z"></path><path d="M52.552,40.405l-1.943-1.127a19.736,19.736,0,0,0,0-14.556L52.552,23.6a1,1,0,0,0,.364-1.366l-2-3.459a1,1,0,0,0-.608-.466.994.994,0,0,0-.76.1L47.61,19.529A20.364,20.364,0,0,0,46,17.741V10a1,1,0,0,0-1-1H43V3a1,1,0,0,0-1-1H22a1,1,0,0,0-1,1V9H19a1,1,0,0,0-1,1v7.741a20.364,20.364,0,0,0-1.61,1.788l-1.938-1.124a1,1,0,0,0-1.368.365l-2,3.459a1,1,0,0,0,.364,1.366l1.943,1.127A19.8,19.8,0,0,0,12.25,29H10a1,1,0,0,0-1,1v4a1,1,0,0,0,1,1h2.25a19.8,19.8,0,0,0,1.141,4.278l-1.943,1.127a1,1,0,0,0-.364,1.366l2,3.459a1,1,0,0,0,.608.466.989.989,0,0,0,.258.034,1,1,0,0,0,.5-.135l1.938-1.124A20.364,20.364,0,0,0,18,46.259V54a1,1,0,0,0,1,1h2v6a1,1,0,0,0,1,1H42a1,1,0,0,0,1-1V55h2a1,1,0,0,0,1-1V46.259a20.364,20.364,0,0,0,1.61-1.788L49.548,45.6a1,1,0,0,0,.5.135.989.989,0,0,0,.258-.034,1,1,0,0,0,.608-.466l2-3.459A1,1,0,0,0,52.552,40.405ZM49.686,20.638l1,1.728-.9.523q-.457-.891-1-1.728ZM44,16.038a20.075,20.075,0,0,0-2-1.332V11h2ZM23,4H41V9a1,1,0,0,0-1,1v3.682a19.866,19.866,0,0,0-16,0V10a1,1,0,0,0-1-1Zm-3,7h2v3.706a20.075,20.075,0,0,0-2,1.332ZM13.315,22.366l1-1.728.9.523q-.541.837-1,1.728ZM11,33V31h1.051c-.017.333-.051.662-.051,1s.034.667.051,1Zm3.314,10.362-1-1.728.9-.523q.457.891,1,1.728ZM20,47.962a20.075,20.075,0,0,0,2,1.332V53H20ZM41,60H23V55a1,1,0,0,0,1-1V50.318a19.866,19.866,0,0,0,16,0V54a1,1,0,0,0,1,1Zm3-7H42V49.294a20.075,20.075,0,0,0,2-1.332ZM32,50A18,18,0,1,1,50,32,18.021,18.021,0,0,1,32,50Zm17.686-6.638-.9-.523q.542-.837,1-1.728l.9.523Z"></path><rect x="27" y="7" width="10" height="2"></rect><rect x="27" y="55" width="10" height="2"></rect><path d="M40,31a1,1,0,0,0-.929.628L38,34.308l-3.071-7.68a1.011,1.011,0,0,0-.97-.627,1,1,0,0,0-.915.7l-2.838,9.225L27.98,24.8a1,1,0,0,0-1.9-.2L23.341,31H20v2h4a1,1,0,0,0,.919-.606l1.731-4.04L29.02,40.2a1,1,0,0,0,.929.8H30a1,1,0,0,0,.956-.706L34.123,30l2.948,7.372a1,1,0,0,0,1.858,0L40.677,33H44V31Z"></path></g></svg>