<svg xmlns="http://www.w3.org/2000/svg" viewBox="0 0 64 64" x="0px" y="0px"><g><path d="M25.437,50.137l-.985.173-1.207-6.844A.986.986,0,0,0,23.027,43L14.156,32.427A4.006,4.006,0,0,0,10.894,31L9.742,24.472a4,4,0,1,0-7.878,1.39L5.685,47.527a.993.993,0,0,0,.324.577l4.544,4,.112.639-.985.174a1,1,0,0,0-.811,1.159l1.39,7.878a1,1,0,0,0,.983.826,1.043,1.043,0,0,0,.175-.015l15.757-2.778a1,1,0,0,0,.81-1.159L26.6,50.948A1,1,0,0,0,25.437,50.137ZM12.461,51.41a1,1,0,0,0-.324-.578l-4.544-4L3.833,25.515a2,2,0,0,1,3.94-.7l1.2,6.788a3.988,3.988,0,0,0-.946,5.962l7.349,8.757L16.9,45.041,9.557,36.285a2.007,2.007,0,0,1,.24-2.814,1.831,1.831,0,0,1,.6-.341c.034-.011.3-.094.347-.1a2.008,2.008,0,0,1,1.882.684l8.7,10.365,1.161,6.58-9.848,1.737Zm-.406,9.21-1.043-5.909L24.8,52.28l1.043,5.909Z"></path><path d="M58.892,21.228a4,4,0,0,0-4.634,3.244L53.106,31a4.024,4.024,0,0,0-3.262,1.423L40.973,43a.986.986,0,0,0-.218.468L39.548,50.31l-.985-.173a1,1,0,0,0-1.158.811l-1.389,7.878a1,1,0,0,0,.81,1.159l15.757,2.778a1.043,1.043,0,0,0,.175.015,1,1,0,0,0,.983-.826l1.39-7.878a1,1,0,0,0-.811-1.159l-.985-.174.112-.639,4.544-4a.993.993,0,0,0,.324-.577l3.821-21.666A4,4,0,0,0,58.892,21.228ZM51.945,60.62,38.158,58.189,39.2,52.28l13.787,2.431Zm8.222-35.106-3.76,21.32-4.544,4a1,1,0,0,0-.324.578l-.174.984-9.848-1.737,1.161-6.58,8.7-10.365a2.021,2.021,0,0,1,1.88-.684c.044.008.315.091.349.1a1.806,1.806,0,0,1,.589.333,2.01,2.01,0,0,1,.251,2.821L47.1,45.041l1.531,1.286,7.35-8.758a4.015,4.015,0,0,0-.5-5.643,4.058,4.058,0,0,0-.443-.319l1.2-6.787a2,2,0,1,1,3.94.694Z"></path><path d="M37.012,29.782l2.167,1.624a1,1,0,0,0,1.306-.093l2.828-2.828a1,1,0,0,0,.093-1.307l-1.625-2.166a10.86,10.86,0,0,0,.679-1.639l2.682-.383A1,1,0,0,0,46,22V18a1,1,0,0,0-.858-.99l-2.682-.383a10.86,10.86,0,0,0-.679-1.639l1.625-2.166a1,1,0,0,0-.093-1.307L40.485,8.687a1,1,0,0,0-1.306-.093l-2.167,1.624a10.9,10.9,0,0,0-1.639-.678L34.99,6.858A1,1,0,0,0,34,6H30a1,1,0,0,0-.99.858L28.627,9.54a10.855,10.855,0,0,0-1.639.678L24.821,8.594a1,1,0,0,0-1.306.093l-2.828,2.828a1,1,0,0,0-.093,1.307l1.625,2.166a10.86,10.86,0,0,0-.679,1.639l-2.682.383A1,1,0,0,0,18,18v4a1,1,0,0,0,.858.99l2.682.383a10.86,10.86,0,0,0,.679,1.639l-1.625,2.166a1,1,0,0,0,.093,1.307l2.828,2.828a1,1,0,0,0,1.306.093l2.167-1.624a10.855,10.855,0,0,0,1.639.678l.383,2.682A1,1,0,0,0,30,34h4a1,1,0,0,0,.99-.858l.383-2.682A10.9,10.9,0,0,0,37.012,29.782Zm-2.784-1.073a1,1,0,0,0-.744.828L33.133,32H30.867l-.351-2.463a1,1,0,0,0-.744-.828,8.859,8.859,0,0,1-2.356-.975,1,1,0,0,0-1.11.06l-1.991,1.492-1.6-1.6,1.492-1.99a1,1,0,0,0,.061-1.111,8.923,8.923,0,0,1-.977-2.357,1,1,0,0,0-.827-.742L20,21.133V18.867l2.463-.352a1,1,0,0,0,.827-.742,8.923,8.923,0,0,1,.977-2.357,1,1,0,0,0-.061-1.111l-1.492-1.99,1.6-1.6,1.991,1.492a1,1,0,0,0,1.11.06,8.859,8.859,0,0,1,2.356-.975,1,1,0,0,0,.744-.828L30.867,8h2.266l.351,2.463a1,1,0,0,0,.744.828,8.859,8.859,0,0,1,2.356.975,1,1,0,0,0,1.11-.06l1.991-1.492,1.6,1.6-1.492,1.99a1,1,0,0,0-.061,1.111,8.923,8.923,0,0,1,.977,2.357,1,1,0,0,0,.827.742L44,18.867v2.266l-2.463.352a1,1,0,0,0-.827.742,8.923,8.923,0,0,1-.977,2.357,1,1,0,0,0,.061,1.111l1.492,1.99-1.6,1.6-1.991-1.492a1,1,0,0,0-1.11-.06A8.859,8.859,0,0,1,34.228,28.709Z"></path><path d="M32,14a6,6,0,1,0,6,6A6.006,6.006,0,0,0,32,14Zm0,10a4,4,0,1,1,4-4A4,4,0,0,1,32,24Z"></path><rect x="31" y="10" width="2" height="2"></rect><rect x="24.636" y="12.636" width="2" height="2" transform="translate(-2.135 22.116) rotate(-44.99)"></rect><rect x="22" y="19" width="2" height="2"></rect><rect x="24.636" y="25.364" width="2" height="2" transform="translate(-11.134 25.849) rotate(-45)"></rect><rect x="31" y="28" width="2" height="2"></rect><rect x="37.364" y="25.364" width="2" height="2" transform="translate(-7.407 34.842) rotate(-44.99)"></rect><rect x="40" y="19" width="2" height="2"></rect><rect x="37.364" y="12.636" width="2" height="2" transform="translate(1.595 31.122) rotate(-45)"></rect><rect x="31" y="2" width="2" height="2"></rect><rect x="26.6" y="2.579" width="2" height="2.001" transform="translate(0.016 7.277) rotate(-15.023)"></rect><rect x="22.5" y="4.278" width="2" height="2" transform="translate(0.51 12.458) rotate(-30.002)"></rect><rect x="18.98" y="6.979" width="2" height="2" transform="translate(0.208 16.461) rotate(-44.99)"></rect><rect x="16.277" y="10.5" width="2" height="2" transform="translate(-1.32 20.714) rotate(-60.005)"></rect><rect x="14.579" y="14.6" width="2" height="2" transform="translate(-3.522 26.611) rotate(-75)"></rect><rect x="14" y="19" width="2" height="2"></rect><rect x="14.579" y="23.4" width="2" height="2" transform="translate(-5.784 4.864) rotate(-15)"></rect><rect x="16.277" y="27.5" width="2" height="2" transform="translate(-11.934 12.454) rotate(-29.995)"></rect><rect x="18.979" y="31.021" width="2" height="2" transform="translate(-16.79 23.506) rotate(-45)"></rect><rect x="22.5" y="33.722" width="2" height="2" transform="translate(-18.32 37.717) rotate(-60.005)"></rect><rect x="26.6" y="35.421" width="2.001" height="2" transform="translate(-14.731 53.634) rotate(-74.973)"></rect><rect x="31" y="36" width="2" height="2"></rect><rect x="35.4" y="35.42" width="2" height="2.001" transform="translate(-8.198 10.683) rotate(-15.027)"></rect><rect x="39.5" y="33.722" width="2" height="2" transform="translate(-11.934 24.897) rotate(-29.995)"></rect><rect x="43.021" y="31.021" width="2" height="2" transform="translate(-9.75 40.497) rotate(-44.99)"></rect><rect x="45.722" y="27.5" width="2" height="2" transform="translate(-1.318 54.717) rotate(-60.005)"></rect><rect x="47.421" y="23.4" width="2" height="2" transform="translate(12.32 64.856) rotate(-75)"></rect><rect x="48" y="19" width="2" height="2"></rect><rect x="47.421" y="14.6" width="2" height="2" transform="translate(-2.388 13.064) rotate(-15)"></rect><rect x="45.722" y="10.5" width="2" height="2" transform="translate(0.508 24.898) rotate(-29.995)"></rect><rect x="43.02" y="6.979" width="2" height="2" transform="translate(7.251 33.464) rotate(-45)"></rect><rect x="39.5" y="4.277" width="2" height="2" transform="translate(15.682 37.715) rotate(-60.005)"></rect><rect x="35.4" y="2.579" width="2.001" height="2" transform="translate(23.505 37.806) rotate(-74.973)"></rect></g></svg>