<svg xmlns="http://www.w3.org/2000/svg" viewBox="0 0 64 64" x="0px" y="0px"><g><path d="M61.95,3.26a1.03,1.03,0,0,0-.71-.49l-1.87-.3A7.033,7.033,0,0,0,52,6.35a7.033,7.033,0,0,0-7.37-3.88l-1.87.3a1.03,1.03,0,0,0-.71.49,1,1,0,0,0-.06.86l.67,1.76a7.057,7.057,0,0,0,6.55,4.49,6.559,6.559,0,0,0,1.08-.09l.71-.11V12H46a3.009,3.009,0,0,0-3,3v2a2.974,2.974,0,0,0,.78,2A2.974,2.974,0,0,0,43,21v2a2.974,2.974,0,0,0,.78,2A2.974,2.974,0,0,0,43,27v2a2.974,2.974,0,0,0,.78,2A2.974,2.974,0,0,0,43,33v2a2.974,2.974,0,0,0,.78,2A2.974,2.974,0,0,0,43,39v2a2.974,2.974,0,0,0,.78,2A2.974,2.974,0,0,0,43,45v2a2.974,2.974,0,0,0,.78,2A2.974,2.974,0,0,0,43,51v2a2.974,2.974,0,0,0,.78,2A2.974,2.974,0,0,0,43,57v2a3.009,3.009,0,0,0,3,3H58a3.009,3.009,0,0,0,3-3V57a2.974,2.974,0,0,0-.78-2A2.974,2.974,0,0,0,61,53V51a2.974,2.974,0,0,0-.78-2A2.974,2.974,0,0,0,61,47V45a2.974,2.974,0,0,0-.78-2A2.974,2.974,0,0,0,61,41V39a2.974,2.974,0,0,0-.78-2A2.974,2.974,0,0,0,61,35V33a2.974,2.974,0,0,0-.78-2A2.974,2.974,0,0,0,61,29V27a2.974,2.974,0,0,0-.78-2A2.974,2.974,0,0,0,61,23V21a2.974,2.974,0,0,0-.78-2A2.974,2.974,0,0,0,61,17V15a3.009,3.009,0,0,0-3-3H53V10.17l.71.11a6.559,6.559,0,0,0,1.08.09,7.057,7.057,0,0,0,6.55-4.49l.67-1.76A1,1,0,0,0,61.95,3.26ZM49.98,8.31a5.033,5.033,0,0,1-5.45-3.15l-.23-.61.64-.1A5.028,5.028,0,0,1,50.39,7.6l.23.61ZM59,59a1,1,0,0,1-1,1H46a1,1,0,0,1-1-1V57a1,1,0,0,1,1-1h1v2h2V56h2v2h2V56h2v2h2V56h1a1,1,0,0,1,1,1Zm0-6a1,1,0,0,1-1,1H46a1,1,0,0,1-1-1V51a1,1,0,0,1,1-1h1v2h2V50h2v2h2V50h2v2h2V50h1a1,1,0,0,1,1,1Zm0-6a1,1,0,0,1-1,1H46a1,1,0,0,1-1-1V45a1,1,0,0,1,1-1h1v2h2V44h2v2h2V44h2v2h2V44h1a1,1,0,0,1,1,1Zm0-6a1,1,0,0,1-1,1H46a1,1,0,0,1-1-1V39a1,1,0,0,1,1-1h1v2h2V38h2v2h2V38h2v2h2V38h1a1,1,0,0,1,1,1Zm0-6a1,1,0,0,1-1,1H46a1,1,0,0,1-1-1V33a1,1,0,0,1,1-1h1v2h2V32h2v2h2V32h2v2h2V32h1a1,1,0,0,1,1,1Zm0-6a1,1,0,0,1-1,1H46a1,1,0,0,1-1-1V27a1,1,0,0,1,1-1h1v2h2V26h2v2h2V26h2v2h2V26h1a1,1,0,0,1,1,1Zm0-6a1,1,0,0,1-1,1H46a1,1,0,0,1-1-1V21a1,1,0,0,1,1-1h1v2h2V20h2v2h2V20h2v2h2V20h1a1,1,0,0,1,1,1Zm-4-9v2h2V14h1a1,1,0,0,1,1,1v2a1,1,0,0,1-1,1H46a1,1,0,0,1-1-1V15a1,1,0,0,1,1-1h1v2h2V14h2v2h2V14Zm4.47-8.84a5.021,5.021,0,0,1-5.45,3.15l-.64-.1.23-.61a5.021,5.021,0,0,1,5.45-3.15l.64.1Z"></path><path d="M21.95,3.26a1.03,1.03,0,0,0-.71-.49l-1.87-.3A7.033,7.033,0,0,0,12,6.35,7.04,7.04,0,0,0,4.63,2.47l-1.87.3a1.03,1.03,0,0,0-.71.49,1,1,0,0,0-.06.86l.67,1.76a7.057,7.057,0,0,0,6.55,4.49,6.559,6.559,0,0,0,1.08-.09l.71-.11V12H6a3.009,3.009,0,0,0-3,3v2a2.974,2.974,0,0,0,.78,2A2.974,2.974,0,0,0,3,21v2a2.974,2.974,0,0,0,.78,2A2.974,2.974,0,0,0,3,27v2a2.974,2.974,0,0,0,.78,2A2.974,2.974,0,0,0,3,33v2a2.974,2.974,0,0,0,.78,2A2.974,2.974,0,0,0,3,39v2a2.974,2.974,0,0,0,.78,2A2.974,2.974,0,0,0,3,45v2a2.974,2.974,0,0,0,.78,2A2.974,2.974,0,0,0,3,51v2a2.974,2.974,0,0,0,.78,2A2.974,2.974,0,0,0,3,57v2a3.009,3.009,0,0,0,3,3H18a3.009,3.009,0,0,0,3-3V57a2.974,2.974,0,0,0-.78-2A2.974,2.974,0,0,0,21,53V51a2.974,2.974,0,0,0-.78-2A2.974,2.974,0,0,0,21,47V45a2.974,2.974,0,0,0-.78-2A2.974,2.974,0,0,0,21,41V39a2.974,2.974,0,0,0-.78-2A2.974,2.974,0,0,0,21,35V33a2.974,2.974,0,0,0-.78-2A2.974,2.974,0,0,0,21,29V27a2.974,2.974,0,0,0-.78-2A2.974,2.974,0,0,0,21,23V21a2.974,2.974,0,0,0-.78-2A2.974,2.974,0,0,0,21,17V15a3.009,3.009,0,0,0-3-3H13V10.17l.71.11a6.559,6.559,0,0,0,1.08.09,7.057,7.057,0,0,0,6.55-4.49l.67-1.76A1,1,0,0,0,21.95,3.26ZM9.98,8.31A5.033,5.033,0,0,1,4.53,5.16L4.3,4.55l.64-.1A5.028,5.028,0,0,1,10.39,7.6l.23.61ZM19,59a1,1,0,0,1-1,1H6a1,1,0,0,1-1-1V57a1,1,0,0,1,1-1H7v2H9V56h2v2h2V56h2v2h2V56h1a1,1,0,0,1,1,1Zm0-6a1,1,0,0,1-1,1H6a1,1,0,0,1-1-1V51a1,1,0,0,1,1-1H7v2H9V50h2v2h2V50h2v2h2V50h1a1,1,0,0,1,1,1Zm0-6a1,1,0,0,1-1,1H6a1,1,0,0,1-1-1V45a1,1,0,0,1,1-1H7v2H9V44h2v2h2V44h2v2h2V44h1a1,1,0,0,1,1,1Zm0-6a1,1,0,0,1-1,1H6a1,1,0,0,1-1-1V39a1,1,0,0,1,1-1H7v2H9V38h2v2h2V38h2v2h2V38h1a1,1,0,0,1,1,1Zm0-6a1,1,0,0,1-1,1H6a1,1,0,0,1-1-1V33a1,1,0,0,1,1-1H7v2H9V32h2v2h2V32h2v2h2V32h1a1,1,0,0,1,1,1Zm0-6a1,1,0,0,1-1,1H6a1,1,0,0,1-1-1V27a1,1,0,0,1,1-1H7v2H9V26h2v2h2V26h2v2h2V26h1a1,1,0,0,1,1,1Zm0-6a1,1,0,0,1-1,1H6a1,1,0,0,1-1-1V21a1,1,0,0,1,1-1H7v2H9V20h2v2h2V20h2v2h2V20h1a1,1,0,0,1,1,1Zm-4-9v2h2V14h1a1,1,0,0,1,1,1v2a1,1,0,0,1-1,1H6a1,1,0,0,1-1-1V15a1,1,0,0,1,1-1H7v2H9V14h2v2h2V14Zm4.47-8.84a5.021,5.021,0,0,1-5.45,3.15l-.64-.1.23-.61a5.021,5.021,0,0,1,5.45-3.15l.64.1Z"></path><path d="M31,17a1,1,0,0,0-1.64-.768l-6,5a1,1,0,0,0,0,1.536l6,5A1,1,0,0,0,31,27V25H41V23H30a1,1,0,0,0-1,1v.865L25.562,22,29,19.135V20a1,1,0,0,0,1,1H41V19H31Z"></path><path d="M34.64,35.232A1,1,0,0,0,33,36v2H23v2H34a1,1,0,0,0,1-1v-.865L38.438,41,35,43.865V43a1,1,0,0,0-1-1H23v2H33v2a1,1,0,0,0,1.64.768l6-5a1,1,0,0,0,0-1.536Z"></path></g></svg>