<svg xmlns="http://www.w3.org/2000/svg" viewBox="0 0 64 64" x="0px" y="0px"><title>Cloud-Lesson</title><g><path d="M51.594,20.477A15.985,15.985,0,0,0,22.15,16L22,16A13.039,13.039,0,0,0,9.217,26.673,11,11,0,0,0,13,48v5a3,3,0,0,0,3,3H44a3,3,0,0,0,3-3V48h1a14,14,0,0,0,3.594-27.523ZM45,53a1,1,0,0,1-1,1H16a1,1,0,0,1-1-1V45a1,1,0,0,1,1-1H44a1,1,0,0,1,1,1Zm3-7H47V45a3,3,0,0,0-3-3H16a3,3,0,0,0-3,3v1a9,9,0,0,1-2.6-17.613,1,1,0,0,0,.7-.826A11.032,11.032,0,0,1,22,18c.212,0,.423.019.635.036a.988.988,0,0,0,.97-.531,13.984,13.984,0,0,1,26.151,3.974,1,1,0,0,0,.774.8A12,12,0,0,1,48,46Z"></path><rect x="17" y="50" width="2" height="2"></rect><rect x="17" y="46" width="2" height="2"></rect><rect x="21" y="46" width="2" height="2"></rect><rect x="25" y="46" width="2" height="2"></rect><rect x="29" y="46" width="2" height="2"></rect><rect x="33" y="46" width="2" height="2"></rect><rect x="37" y="46" width="2" height="2"></rect><rect x="41" y="46" width="2" height="2"></rect><rect x="21" y="50" width="18" height="2"></rect><rect x="41" y="50" width="2" height="2"></rect></g></svg>