<svg xmlns="http://www.w3.org/2000/svg" viewBox="0 0 64 64" x="0px" y="0px"><g><path d="M59.68,45.37,46.05,53.24a16.807,16.807,0,0,1-10.38,2.17l-12.68-1.4L2.09,56l-.18-2,21-2a1.408,1.408,0,0,1,.2.01l12.78,1.42a14.956,14.956,0,0,0,9.16-1.92l13.63-7.88a1.986,1.986,0,0,0,.73-2.73,2,2,0,0,0-2.73-.73L46.01,46.33a5.009,5.009,0,0,1-2.5.67H33V45H43a2,2,0,0,0,0-4H36a.937.937,0,0,1-.37-.07l-3.21-1.29A9.149,9.149,0,0,0,29.07,39h-1.3a9,9,0,0,0-4.63,1.28l-2.63,1.58A1,1,0,0,1,20,42H2V40H19.72l2.39-1.43A10.974,10.974,0,0,1,27.77,37h1.3a10.825,10.825,0,0,1,4.09.79L36.19,39H43a4,4,0,0,1,4,4,3.906,3.906,0,0,1-.05.48l8.73-5.04a3.943,3.943,0,0,1,3.04-.4,4,4,0,0,1,.96,7.33Z"></path><path d="M43,26H41a1,1,0,0,1-1-1H38a3,3,0,0,0,3,3v1h2V28a3,3,0,0,0,0-6H41a1,1,0,0,1,0-2h2a1,1,0,0,1,1,1h2a3,3,0,0,0-3-3V17H41v1a3,3,0,0,0,0,6h2a1,1,0,0,1,0,2Z"></path><path d="M42,9A14,14,0,1,0,56,23,14.015,14.015,0,0,0,42,9Zm10.84,8.89A11.873,11.873,0,0,1,53.95,22h-2a9.748,9.748,0,0,0-.84-3.1Zm-4-4.74a12.3,12.3,0,0,1,3.01,3.01l-1.74,1.01a10.274,10.274,0,0,0-2.28-2.28ZM43,11.05a11.873,11.873,0,0,1,4.11,1.11L46.1,13.89a9.748,9.748,0,0,0-3.1-.84Zm-2,0v2a9.748,9.748,0,0,0-3.1.84l-1.01-1.73A11.873,11.873,0,0,1,41,11.05Zm-5.84,2.1,1.01,1.74a10.274,10.274,0,0,0-2.28,2.28l-1.74-1.01A12.3,12.3,0,0,1,35.16,13.15Zm-4,4.74,1.73,1.01a9.748,9.748,0,0,0-.84,3.1h-2A11.873,11.873,0,0,1,31.16,17.89Zm0,10.22A11.873,11.873,0,0,1,30.05,24h2a9.748,9.748,0,0,0,.84,3.1Zm4,4.74a12.3,12.3,0,0,1-3.01-3.01l1.74-1.01a10.274,10.274,0,0,0,2.28,2.28ZM41,34.95a11.873,11.873,0,0,1-4.11-1.11l1.01-1.73a9.748,9.748,0,0,0,3.1.84Zm2,0v-2a9.748,9.748,0,0,0,3.1-.84l1.01,1.73A11.873,11.873,0,0,1,43,34.95ZM42,31a8,8,0,1,1,8-8A8.011,8.011,0,0,1,42,31Zm6.84,1.85-1.01-1.74a10.274,10.274,0,0,0,2.28-2.28l1.74,1.01A12.3,12.3,0,0,1,48.84,32.85Zm4-4.74L51.11,27.1a9.748,9.748,0,0,0,.84-3.1h2A11.873,11.873,0,0,1,52.84,28.11Z"></path><path d="M57.6,27.029l1.931.517A18.02,18.02,0,0,0,46.805,5.5l-.517,1.932A16.019,16.019,0,0,1,57.6,27.029Z"></path><path d="M56.2,30.55l1.757.957a17.922,17.922,0,0,0,.913-1.948l-1.858-.739A15.878,15.878,0,0,1,56.2,30.55Z"></path></g></svg>