<svg xmlns="http://www.w3.org/2000/svg" viewBox="0 0 64 64" x="0px" y="0px"><title>Bar chart-Report</title><g data-name="Bar chart-Report"><path d="M20,39v7H18V20H16V47a1,1,0,0,0,1,1H49V46H47V29a1,1,0,0,0-1-1H42a1,1,0,0,0-1,1V46H40V35a1,1,0,0,0-1-1H35a1,1,0,0,0-1,1V46H33V33a1,1,0,0,0-1-1H28a1,1,0,0,0-1,1V46H26V39a1,1,0,0,0-1-1H21A1,1,0,0,0,20,39Zm23-9h2V46H43Zm-7,6h2V46H36Zm-7-2h2V46H29Zm-7,6h2v6H22Z"></path><path d="M55,2H9A2,2,0,0,0,7,4V60a2,2,0,0,0,2,2H55a2,2,0,0,0,2-2V4A2,2,0,0,0,55,2ZM40,4V6H24V4ZM23,12H41a1,1,0,0,0,1-1V8h9V56H13V8h9v3A1,1,0,0,0,23,12Zm17-2H24V8H40ZM9,60V4H22V6H12a1,1,0,0,0-1,1V57a1,1,0,0,0,1,1H52a1,1,0,0,0,1-1V7a1,1,0,0,0-1-1H42V4H55V60Z"></path></g></svg>