<svg xmlns="http://www.w3.org/2000/svg" viewBox="0 0 64 64" x="0px" y="0px"><g data-name="Floor Mop"><path d="M59.147,47.58A2.009,2.009,0,0,0,57.192,46H51V43a1,1,0,0,0-1-1V5a3,3,0,0,0-6,0V42a1,1,0,0,0-1,1v3H36.808a2.009,2.009,0,0,0-1.955,1.58L32.022,60.791A1,1,0,0,0,33,62H61a1,1,0,0,0,.978-1.209ZM46,16h2v2H46Zm0-4h2v2H46Zm2-2H46V8h2ZM46,20h2v2H46ZM46,5a1,1,0,0,1,2,0V6H46Zm0,19h2V42H46ZM45,44h4v2H45Zm12.192,4,.429,2H36.379l.429-2ZM58,60V58a1,1,0,0,0-2,0v2H54V58a1,1,0,0,0-2,0v2H50V58a1,1,0,0,0-2,0v2H46V58a1,1,0,0,0-2,0v2H42V58a1,1,0,0,0-2,0v2H38V58a1,1,0,0,0-2,0v2H34.237l1.714-8h22.1l1.714,8Z"></path><path d="M31,32H3a1,1,0,0,0-1,1v4a1,1,0,0,0,1,1H4V59a3,3,0,0,0,3,3H27a3,3,0,0,0,3-3V38h1a1,1,0,0,0,1-1V33A1,1,0,0,0,31,32ZM28,59a1,1,0,0,1-1,1H7a1,1,0,0,1-1-1V48.643a8.959,8.959,0,0,0,5.123,3.16A3,3,0,0,0,14,54h6a3,3,0,0,0,2.877-2.2A8.959,8.959,0,0,0,28,48.643ZM13,51a1,1,0,0,1,1-1h6a1,1,0,0,1,0,2H14A1,1,0,0,1,13,51Zm15-8a7,7,0,0,1-5.265,6.78A3,3,0,0,0,20,48H14a3,3,0,0,0-2.735,1.78A7,7,0,0,1,6,43V38H28Zm2-7H4V34H30Z"></path><path d="M25,26a3,3,0,1,0-3-3A3,3,0,0,0,25,26Zm0-4a1,1,0,1,1-1,1A1,1,0,0,1,25,22Z"></path><path d="M16,25a1,1,0,0,0,1-1V23a1,1,0,0,0-2,0v1A1,1,0,0,0,16,25Z"></path><path d="M13,27h1a1,1,0,0,0,0-2H13a1,1,0,0,0,0,2Z"></path><path d="M16,27a1,1,0,0,0-1,1v1a1,1,0,0,0,2,0V28A1,1,0,0,0,16,27Z"></path><path d="M18,27h1a1,1,0,0,0,0-2H18a1,1,0,0,0,0,2Z"></path><path d="M7,16a1,1,0,0,0,1-1V14a1,1,0,0,0-2,0v1A1,1,0,0,0,7,16Z"></path><path d="M4.172,16.586a1,1,0,0,0,1.414-1.414l-.708-.707a1,1,0,0,0-1.414,1.414Z"></path><path d="M3,19H4a1,1,0,0,0,0-2H3a1,1,0,0,0,0,2Z"></path><path d="M4.172,19.414l-.708.707a1,1,0,1,0,1.414,1.414l.708-.707a1,1,0,0,0-1.414-1.414Z"></path><path d="M7,23a1,1,0,0,0,1-1V21a1,1,0,0,0-2,0v1A1,1,0,0,0,7,23Z"></path><path d="M9.122,21.535a1,1,0,1,0,1.414-1.414l-.708-.707a1,1,0,0,0-1.414,1.414Z"></path><path d="M9,18a1,1,0,0,0,1,1h1a1,1,0,0,0,0-2H10A1,1,0,0,0,9,18Z"></path><path d="M9.121,16.879a1,1,0,0,0,.707-.293l.708-.707a1,1,0,0,0-1.414-1.414l-.708.707a1,1,0,0,0,.707,1.707Z"></path></g></svg>