<svg xmlns="http://www.w3.org/2000/svg" viewBox="0 0 64 64" x="0px" y="0px"><g data-name="Data Center-Server-Cloud-Network-Technology"><circle cx="59" cy="37" r="2"></circle><circle cx="56" cy="49" r="2"></circle><circle cx="44" cy="56" r="2"></circle><circle cx="32" cy="59" r="2"></circle><circle cx="20" cy="56" r="2"></circle><circle cx="8" cy="49" r="2"></circle><circle cx="5" cy="37" r="2"></circle><path d="M32,24c-5.72,0-10,2.11-10,4s4.28,4,10,4,10-2.11,10-4S37.72,24,32,24Zm6,5H26V27H38Z"></path><path d="M22,31.41V35c0,1.89,4.28,4,10,4s10-2.11,10-4V31.41C39.89,32.99,36.27,34,32,34S24.11,32.99,22,31.41ZM25,36H23V34h2Zm4,1H27V35h2Z"></path><path d="M10,30H20V28c0-3.42,5.16-6,12-6s12,2.58,12,6v2h8a8,8,0,0,0,0-16,1,1,0,0,1-1-1,5,5,0,0,0-5-5,4.946,4.946,0,0,0-3.58,1.52,1.028,1.028,0,0,1-.86.29.982.982,0,0,1-.74-.52,9.992,9.992,0,0,0-18.73,3.45,1,1,0,0,1-1.67.61A5,5,0,0,0,12,17a1.1,1.1,0,0,1-.35.8,1.056,1.056,0,0,1-.81.27A4.842,4.842,0,0,0,10,18a6,6,0,0,0,0,12Zm42-4a4,4,0,0,0,4-4h2a6.006,6.006,0,0,1-6,6ZM47,12h2v2H47Zm-4,0h2v2H43Z"></path><path d="M42,42V38.41C39.89,39.99,36.27,41,32,41s-7.89-1.01-10-2.59V42c0,1.89,4.28,4,10,4S42,43.89,42,42ZM25,43H23V41h2Zm4,1H27V42h2Z"></path><path d="M11.707,46.707l-1.414-1.414,3-3A1,1,0,0,1,14,42h6.22v2H14.414Z"></path><rect x="10" y="36" width="10" height="2"></rect><path d="M52.293,46.707,49.586,44H43.78V42H50a1,1,0,0,1,.707.293l3,3Z"></path><rect x="44" y="36" width="10" height="2"></rect><path d="M40.293,53.707l-3-3A1,1,0,0,1,37,50V47.19h2v2.4l2.707,2.707Z"></path><path d="M23.707,53.707l-1.414-1.414L25,49.586v-2.4h2V50a1,1,0,0,1-.293.707Z"></path><rect x="31" y="48" width="2" height="6"></rect></g></svg>