<svg xmlns="http://www.w3.org/2000/svg" viewBox="0 0 64 64" x="0px" y="0px"><g data-name="Smarthome-Router-Internet of Things-Wifi-Technology"><path d="M60.99,24.89h-.01L33.93,2.3a2.993,2.993,0,0,0-3.85.01L3.1,24.95a3.071,3.071,0,0,0-.74,3.89,2.976,2.976,0,0,0,2.08,1.43,2.921,2.921,0,0,0,.5.05,2.986,2.986,0,0,0,1.93-.71L11,26.11V61a1,1,0,0,0,1,1H52a1,1,0,0,0,1-1V26.01l4.13,3.48a3,3,0,0,0,3.86-4.6ZM51,60H13V24.42L32,8.31,51,24.32Zm8.82-32.17a.988.988,0,0,1-1.4.13L32.64,6.24a.987.987,0,0,0-1.29,0L5.58,28.08a.977.977,0,0,1-.81.22,1.02,1.02,0,0,1-.7-.48,1.094,1.094,0,0,1,.31-1.34L31.36,3.84A1.047,1.047,0,0,1,32,3.61a1,1,0,0,1,.64.23L59.7,26.43a.948.948,0,0,1,.35.68A.913.913,0,0,1,59.82,27.83Z"></path><path d="M26,23a6,6,0,1,0,6-6A6.006,6.006,0,0,0,26,23Zm5-3.858V22H28.142A4,4,0,0,1,31,19.142ZM28.142,24H31v2.858A4,4,0,0,1,28.142,24ZM33,26.858V24h2.858A3.991,3.991,0,0,1,33,26.858ZM35.858,22H33V19.142A3.991,3.991,0,0,1,35.858,22Z"></path><path d="M44,46H43V41a3,3,0,0,0-6,0v5H27V41a3,3,0,0,0-6,0v5H20a2.006,2.006,0,0,0-2,2v6a2.006,2.006,0,0,0,2,2H44a2.006,2.006,0,0,0,2-2V48A2.006,2.006,0,0,0,44,46Zm-5-5a1,1,0,0,1,2,0v5H39ZM23,41a1,1,0,0,1,2,0v5H23ZM44,54H20V48H44Z"></path><path d="M37.879,32.879a3.072,3.072,0,0,1,4.242,0l1.414-1.414a5,5,0,0,0-7.07,0Z"></path><path d="M41.414,34.586a2,2,0,0,0-2.828,0L40,36Z"></path><path d="M26.122,32.879l1.414-1.414a5.008,5.008,0,0,0-7.072,0l1.414,1.414A3,3,0,0,1,26.122,32.879Z"></path><path d="M22.586,34.586,24,36l1.414-1.414A2,2,0,0,0,22.586,34.586Z"></path><rect x="24" y="50" width="2" height="2"></rect><rect x="28" y="50" width="2" height="2"></rect><rect x="38" y="50" width="2" height="2"></rect><rect x="34" y="50" width="2" height="2"></rect></g></svg>