<svg xmlns="http://www.w3.org/2000/svg" viewBox="0 0 64 64" x="0px" y="0px"><title>Lemon</title><g><path d="M51,38H5a1,1,0,0,0-1,1c0,14.187,9.2,23,24,23s24-8.813,24-23A1,1,0,0,0,51,38Zm-5.523,2C43.649,48.166,37.2,53,28,53S12.351,48.166,10.523,40ZM28,60C14.783,60,6.441,52.366,6.017,40H8.5c1.9,9.405,9.122,15,19.5,15s17.6-5.595,19.5-15h2.48C49.559,52.366,41.217,60,28,60Z"></path><path d="M59,15h-.354C56.962,7.531,49.118,2,40,2S23.038,7.531,21.354,15H21a3,3,0,0,0,0,6h.354C23.038,28.469,30.882,34,40,34s16.962-5.531,18.646-13H59a3,3,0,0,0,0-6Zm0,4H57.821a1,1,0,0,0-.987.842C55.723,26.773,48.486,32,40,32S24.277,26.773,23.166,19.842A1,1,0,0,0,22.179,19H21a1,1,0,0,1,0-2h1.179a1,1,0,0,0,.987-.842C24.277,9.227,31.514,4,40,4S55.723,9.227,56.834,16.158a1,1,0,0,0,.987.842H59a1,1,0,0,1,0,2Z"></path><path d="M28,48a1,1,0,0,0,1-1V43a1,1,0,0,0-2,0v4A1,1,0,0,0,28,48Z"></path><path d="M34.1,47.447a1,1,0,0,0,1.79-.894l-2-4a1,1,0,1,0-1.79.894Z"></path><path d="M20.553,47.9a1,1,0,0,0,1.342-.448l2-4a1,1,0,0,0-1.79-.894l-2,4A1,1,0,0,0,20.553,47.9Z"></path><path d="M34.71,27.29a1.047,1.047,0,0,0-1.42,0,1.155,1.155,0,0,0-.21.33A1,1,0,0,0,33,28a.838.838,0,0,0,.08.38,1.169,1.169,0,0,0,.21.33,1.014,1.014,0,0,0,1.42,0,1.169,1.169,0,0,0,.21-.33.943.943,0,0,0,0-.76A1.155,1.155,0,0,0,34.71,27.29Z"></path><path d="M38.71,28.29a1,1,0,0,0-.16-.12.568.568,0,0,0-.17-.09.609.609,0,0,0-.191-.06.852.852,0,0,0-.389,0,.636.636,0,0,0-.18.06.782.782,0,0,0-.181.09,1.7,1.7,0,0,0-.149.12,1.155,1.155,0,0,0-.21.33.942.942,0,0,0,0,.76,1.169,1.169,0,0,0,.21.33,1.014,1.014,0,0,0,1.42,0,1.169,1.169,0,0,0,.21-.33.943.943,0,0,0,0-.76A1.155,1.155,0,0,0,38.71,28.29Z"></path><path d="M36.71,24.29a1.038,1.038,0,0,0-.91-.27.636.636,0,0,0-.18.06.782.782,0,0,0-.181.09,1.7,1.7,0,0,0-.149.12A1.025,1.025,0,0,0,35,25a1,1,0,1,0,2,0A1.029,1.029,0,0,0,36.71,24.29Z"></path><path d="M39.29,25.29A1.045,1.045,0,0,0,39,26a.838.838,0,0,0,.08.38,1.169,1.169,0,0,0,.21.33,1.014,1.014,0,0,0,1.42,0,1.169,1.169,0,0,0,.21-.33A1,1,0,0,0,41,26a1,1,0,0,0-1.71-.71Z"></path></g></svg>