<svg xmlns="http://www.w3.org/2000/svg" viewBox="0 0 64 64" x="0px" y="0px"><g><path d="M55,14H53A11.992,11.992,0,0,0,30.442,8.319a11.956,11.956,0,0,0-16.391,5.8A4.889,4.889,0,0,0,13,14a5.006,5.006,0,0,0-5,5c0,.024,0,.047,0,.071A7,7,0,0,0,9,33H39a7.01,7.01,0,0,0,6.7-5H55a7,7,0,0,0,0-14ZM39,31H9A5,5,0,0,1,9,21h.142a1,1,0,0,0,.967-1.25A2.954,2.954,0,0,1,13,16a2.973,2.973,0,0,1,1.222.267,1,1,0,0,0,1.353-.58A9.994,9.994,0,0,1,35,19c0,.307-.02.609-.047.909a1,1,0,0,0,1,1.091H39a5,5,0,0,1,0,10Zm16-5H46a7.008,7.008,0,0,0-7-7H37a11.979,11.979,0,0,0-4.839-9.607A9.977,9.977,0,0,1,51,14c0,.309-.019.609-.046.909a1,1,0,0,0,1,1.091H55a5,5,0,0,1,0,10Z"></path><path d="M20.447,45.105l-5.156-2.578,2.628-6.133a1,1,0,0,0-1.583-1.142l-9,8A1,1,0,0,0,7.553,44.9l5.3,2.65-1.831,8.238a1,1,0,0,0,1.758.842l8-10a1,1,0,0,0-.334-1.52Zm-6.536,6.906,1.066-4.794a1,1,0,0,0-.53-1.112L9.769,43.766l4.547-4.042-1.235,2.882a1,1,0,0,0,.472,1.289l4.893,2.446Z"></path><path d="M56.447,45.105l-5.156-2.578,2.628-6.133a1,1,0,0,0-1.583-1.142l-9,8a1,1,0,0,0,.217,1.643l5.3,2.65-1.831,8.238a1,1,0,0,0,1.758.842l8-10a1,1,0,0,0-.334-1.52Zm-6.536,6.906,1.066-4.794a1,1,0,0,0-.53-1.112l-4.678-2.339,4.547-4.042-1.235,2.882a1,1,0,0,0,.472,1.289l4.893,2.446Z"></path><path d="M38.447,50.105l-5.266-2.633,2.784-10.209A1,1,0,0,0,34.2,36.4l-9,12a1,1,0,0,0,.353,1.5l5.3,2.65-1.831,8.238a1,1,0,0,0,1.758.842l8-10a1,1,0,0,0-.334-1.52Zm-6.536,6.906,1.066-4.794a1,1,0,0,0-.53-1.112l-4.928-2.463,5.138-6.851-1.622,5.946a1,1,0,0,0,.518,1.158l4.893,2.446Z"></path></g></svg>