<svg xmlns="http://www.w3.org/2000/svg" viewBox="0 0 64 64" x="0px" y="0px"><g><path d="M47.241,40.765a3,3,0,0,0-1.991-.76L39,40V38h2a1,1,0,0,0,1-1V33a1,1,0,0,0-1-1H27a1,1,0,0,0-1,1v4a1,1,0,0,0,1,1h2v1.992l-3.99,0h0a3,3,0,0,0-3,3l-.01,12a3,3,0,0,0,3,3h1.1a5,5,0,0,0,4.895,4.005H31a5.007,5.007,0,0,0,4.9-4l6.2,0a5.006,5.006,0,0,0,4.894,4h0a5.008,5.008,0,0,0,4.9-3.995H53a3.006,3.006,0,0,0,3-3l.006-6a1,1,0,0,0-.335-.748Zm-.233,4.245H49l3.369,3H47ZM28,34H40v2H28Zm3,4h6v2l-6,0Zm-5.993,3.988h0L41,42v6H24l0-5.013A1,1,0,0,1,25.007,41.988Zm1.09,14H25a1.006,1.006,0,0,1-1-1L24,50H41v6l-5.1,0a5.009,5.009,0,0,0-4.9-4h0A5.008,5.008,0,0,0,26.1,55.989Zm7.017,3.128A2.981,2.981,0,0,1,31,59.994h0a3,3,0,0,1,0-6h0a3,3,0,0,1,2.117,5.123Zm16,.012A2.977,2.977,0,0,1,47,60.006h0a3,3,0,0,1,0-6h0a3,3,0,0,1,2.117,5.123ZM53.7,55.718a.994.994,0,0,1-.7.294H51.9A5.01,5.01,0,0,0,47,52.006h-.005A4.981,4.981,0,0,0,43,54.031V42l2.248,0a1,1,0,0,1,.664.254l.869.774a2,2,0,0,0-1.773,1.972l-.008,3a2,2,0,0,0,2,2h7l0,5A.994.994,0,0,1,53.7,55.718Z"></path><rect x="45.995" y="56.006" width="2" height="2"></rect><rect x="29.995" y="55.994" width="2" height="2"></rect><rect x="14" y="56" width="6" height="2"></rect><rect x="10" y="56" width="2" height="2"></rect><rect x="16" y="52" width="4" height="2"></rect><rect x="12" y="52" width="2" height="2"></rect><rect x="6" y="56" width="2" height="2"></rect><rect x="14" y="48" width="6" height="2"></rect><path d="M44,8a3,3,0,1,0-3-3A3,3,0,0,0,44,8Zm0-4a1,1,0,1,1-1,1A1,1,0,0,1,44,4Z"></path><path d="M34,8a1,1,0,0,1,0,2H28v2h6a3,3,0,1,0-3-3h2A1,1,0,0,1,34,8Z"></path><path d="M54,13h5a3,3,0,0,0,.871-5.871A3,3,0,0,0,54.171,7H54a3,3,0,0,0,0,6Zm0-4h1a1,1,0,0,0,1-1,1,1,0,0,1,2,0,1,1,0,0,0,1,1,1,1,0,0,1,0,2H54a1,1,0,0,1,0-2Z"></path><path d="M5,10h5a3,3,0,0,0,.871-5.871A3,3,0,0,0,5.171,4H5a3,3,0,0,0,0,6ZM5,6H6A1,1,0,0,0,7,5,1,1,0,0,1,9,5a1,1,0,0,0,1,1,1,1,0,0,1,0,2H5A1,1,0,0,1,5,6Z"></path><path d="M53.809,17.412a1,1,0,0,0-1.549-.084l-5,5.513-.548-.548A1,1,0,0,0,46,22H40.414l-2.707-2.707A1,1,0,0,0,37,19H32.362L26.64,14.232a1,1,0,0,0-1.4.117l-8.473,9.885-4.959-6.822a1,1,0,0,0-1.618,0l-8,11A1,1,0,0,0,3,30H61a1,1,0,0,0,.809-1.588ZM11,19.7l4.431,6.094L13.54,28H4.964ZM16.174,28l9.944-11.6,5.242,4.369A1,1,0,0,0,32,21h4.586l2.707,2.707A1,1,0,0,0,40,24h5.586l4,4Zm36.24,0-3.743-3.743,4.243-4.675L59.036,28Z"></path><rect x="24" y="10" width="2" height="2"></rect><path d="M29,5a3,3,0,0,0-6,0h2a1,1,0,1,1,1,1H20V8h6A3,3,0,0,0,29,5Z"></path><rect x="16" y="6" width="2" height="2"></rect></g></svg>