<svg xmlns="http://www.w3.org/2000/svg" viewBox="0 0 64 64" x="0px" y="0px"><g><path d="M31,25a3,3,0,1,0,3,3A3,3,0,0,0,31,25Zm0,4a1,1,0,1,1,1-1A1,1,0,0,1,31,29Z"></path><path d="M31,33a3,3,0,1,0,3,3A3,3,0,0,0,31,33Zm0,4a1,1,0,1,1,1-1A1,1,0,0,1,31,37Z"></path><path d="M30,11a3,3,0,1,0-3,3A3,3,0,0,0,30,11Zm-4,0a1,1,0,1,1,1,1A1,1,0,0,1,26,11Z"></path><path d="M35,8a3,3,0,1,0,3,3A3,3,0,0,0,35,8Zm0,4a1,1,0,1,1,1-1A1,1,0,0,1,35,12Z"></path><path d="M31,18a3,3,0,0,1-2.906-2.25l-1.936.5a5,5,0,0,0,9.684,0l-1.936-.5A3,3,0,0,1,31,18Z"></path><path d="M53,6a7.008,7.008,0,0,0-7,7v7l-6.54.02a10.923,10.923,0,0,0,2.43-8.57A11,11,0,0,0,20,13a10.9,10.9,0,0,0,2.53,7H9A5,5,0,0,0,9,30H21a1,1,0,0,1,1,1v9.22a3.022,3.022,0,0,1-.54,1.72L13.3,53.59a4.995,4.995,0,1,0,8.19,5.72l8.69-12.4a1.033,1.033,0,0,1,1.64,0l8.69,12.4a4.9,4.9,0,0,0,3.22,2.06,5,5,0,0,0,5.87-4.93,4.852,4.852,0,0,0-.9-2.85L40.54,41.94A3.022,3.022,0,0,1,40,40.22V31a1,1,0,0,1,1-1h5V41a3,3,0,0,0,6,0V30h.91a5.021,5.021,0,0,0,5-4.9v-.11a5,5,0,0,0-5-4.99H52V13a1,1,0,0,1,2,0v2a3,3,0,0,0,6,0V13A7.008,7.008,0,0,0,53,6ZM11,28H9a3,3,0,0,1,0-6h2Zm4,0H13V22h2Zm4.85,30.17a3.057,3.057,0,0,1-4.18.73,3.013,3.013,0,0,1-.73-4.17l1.15-1.64L21,56.53Zm2.3-3.28-4.91-3.44,1.14-1.63,4.91,3.43Zm24.91-.15a2.845,2.845,0,0,1,.54,1.7,3,3,0,0,1-5.45,1.73L41,56.53l4.91-3.44Zm-2.3-3.29-4.91,3.44-1.14-1.64,4.91-3.43ZM46,28H41a3.009,3.009,0,0,0-3,3v9.22a4.951,4.951,0,0,0,.9,2.86l3.57,5.1-4.91,3.44-4.1-5.85a3,3,0,0,0-4.92,0l-4.1,5.85-4.91-3.44,3.57-5.1a4.951,4.951,0,0,0,.9-2.86V31a3.009,3.009,0,0,0-3-3H17V22h5.53a2,2,0,0,0,1.82-1.17,1.942,1.942,0,0,0-.27-2.09,9,9,0,1,1,13.85-.01,1.961,1.961,0,0,0-.28,2.11A1.994,1.994,0,0,0,39.47,22H46Zm4,13a1,1,0,0,1-2,0V38.62l2-1Zm0-5.62-2,1V32.62l2-1Zm0-6-2,1V26.62l2-1Zm0-6-2,1V20.62l2-1Zm0-6-2,1V14h2ZM50.18,12H48.1a4.922,4.922,0,0,1,1.6-2.72l1.03,1.78A3.059,3.059,0,0,0,50.18,12Zm2.73,10a3,3,0,1,1,0,6H52V22Zm.64-11.94a2.551,2.551,0,0,0-1.1,0L51.43,8.28a4.542,4.542,0,0,1,3.14,0Zm1.72,1L56.3,9.28A4.922,4.922,0,0,1,57.9,12H55.82A3.059,3.059,0,0,0,55.27,11.06ZM58,15a1,1,0,0,1-2,0V14h2Z"></path></g></svg>