<svg xmlns="http://www.w3.org/2000/svg" viewBox="0 0 64 64" x="0px" y="0px"><g data-name="Clock"><rect x="14.224" y="42.253" width="8" height="16" transform="translate(-16.089 9.264) rotate(-20.001)"></rect><rect x="6.766" y="47.331" width="6" height="12" transform="translate(-17.652 6.557) rotate(-20.001)"></rect><path d="M37.732,54,59.15,41.634a1.983,1.983,0,0,0,1-1.734,2,2,0,0,0-3-1.731l-9.194,5.306A3.992,3.992,0,0,1,44,47H33V45H44a2,2,0,0,0,2-2,1.661,1.661,0,0,0-.116-.641,1.919,1.919,0,0,0-.472-.773A1.985,1.985,0,0,0,44,41H29.26l-6.669,3.71L25.972,54Z"></path><circle cx="32" cy="19" r="1"></circle><path d="M32,4A15,15,0,1,0,47,19,15.017,15.017,0,0,0,32,4ZM21,20H19V18h2ZM31,6h2V8H31Zm2,26H31V30h2ZM32,22a3,3,0,0,1-2.816-2H25V18h4.184A3,3,0,0,1,31,16.184V10h2v6.184A2.993,2.993,0,0,1,32,22Zm11-2V18h2v2Z"></path></g></svg>