<svg xmlns="http://www.w3.org/2000/svg" viewBox="0 0 64 64" x="0px" y="0px"><g data-name="Perfume-Bottle"><rect x="28" y="16" width="8" height="2"></rect><rect x="29" y="12" width="6" height="2"></rect><polygon points="26.303 4 24 5.535 24 8.465 26.303 10 37.697 10 40 8.465 40 5.535 37.697 4 26.303 4"></polygon><ellipse cx="32" cy="42" rx="9" ry="7"></ellipse><path d="M13,38.156V49.03a3.017,3.017,0,0,0,1.171,2.378l10.36,7.97A3.017,3.017,0,0,0,26.36,60H37.64a3.012,3.012,0,0,0,1.828-.622l10.361-7.97A3.02,3.02,0,0,0,51,49.03V38.156a13,13,0,0,0-7.789-11.91L35.6,22.916A1,1,0,0,1,35,22V20H29v2a1,1,0,0,1-.6.916l-7.611,3.33A13,13,0,0,0,13,38.156ZM32,33c6.065,0,11,4.038,11,9s-4.935,9-11,9-11-4.038-11-9S25.935,33,32,33Z"></path></g></svg>