<svg xmlns="http://www.w3.org/2000/svg" viewBox="0 0 64 64" x="0px" y="0px"><g><path d="M12.03,29.8a3.646,3.646,0,0,1,1.04.11L11.9,23.28a1,1,0,0,0-1.16-.81Z"></path><path d="M4.82,20.05a1.937,1.937,0,0,0-.33,1.49l4.1,23.29,4.55,4a1.018,1.018,0,0,1,.32.58l.17.98,9.85-1.73-.99-5.65L13.66,32.49a2.007,2.007,0,0,0-2.82-.24,2,2,0,0,0-.24,2.81l6.03,7.2L15.1,43.54,9.06,36.35a4,4,0,0,1,.5-5.64,3.9,3.9,0,0,1,.54-.36l-1.67-9.5a2.038,2.038,0,0,0-.83-1.29,2,2,0,0,0-2.78.49Z"></path><path d="M15.38,25.72a1.05,1.05,0,0,0-.42-.65.975.975,0,0,0-.74-.16l1.14,6.5,1.29,1.54Z"></path><rect x="12.424" y="51.45" width="14.002" height="6.001" transform="translate(-9.143 4.191) rotate(-9.981)"></rect><path d="M59.18,20.05a2,2,0,0,0-2.78-.49,2.038,2.038,0,0,0-.83,1.29l-1.67,9.5a3.9,3.9,0,0,1,.54.36,4,4,0,0,1,.5,5.64L48.9,43.54l-1.53-1.28,6.03-7.2a2,2,0,0,0-.24-2.81,2.007,2.007,0,0,0-2.82.24L41.51,43.01l-.99,5.65,9.85,1.73.17-.98a1.018,1.018,0,0,1,.32-.58l4.55-4,4.1-23.29A1.937,1.937,0,0,0,59.18,20.05Z"></path><rect x="41.575" y="47.449" width="6.001" height="14.002" transform="translate(-16.784 88.899) rotate(-80.006)"></rect><path d="M53.26,22.47a1.012,1.012,0,0,0-1.16.81l-1.17,6.63a3.646,3.646,0,0,1,1.04-.11Z"></path><path d="M48.64,31.41l1.14-6.5a.975.975,0,0,0-.74.16,1.05,1.05,0,0,0-.42.65l-1.27,7.23Z"></path><path d="M38,29a1.185,1.185,0,0,1-.32-.05l-3-1A1.014,1.014,0,0,1,34,27V24a.988.988,0,0,1,.55-.89L36,22.38V21a1,1,0,0,1,.11-.45l.6-1.2A8.9,8.9,0,0,0,32,18a8.737,8.737,0,0,0-2.06.25l.86,1.15a.984.984,0,0,1,.2.6v2.59l.71.7A1.033,1.033,0,0,1,32,24v2a1,1,0,0,1-.45.83L29,28.54v.84l1.45.73A.988.988,0,0,1,31,31v2a1,1,0,0,1-1,1H27a1.006,1.006,0,0,1-.39-.08l-.67-.29A8.918,8.918,0,0,0,32,36V34a1.033,1.033,0,0,1,.29-.71l.71-.7V31a1,1,0,0,1,1-1h2a.977.977,0,0,1,.62.22l2.63,2.1A9.145,9.145,0,0,0,40.77,29Z"></path><path d="M35,32v1a1.033,1.033,0,0,1-.29.71l-.71.7v1.36a9.116,9.116,0,0,0,3.89-1.98L35.65,32Z"></path><path d="M38.32,20.6l-.32.64V23a.988.988,0,0,1-.55.89L36,24.62v1.66l2.16.72H41A8.983,8.983,0,0,0,38.32,20.6Z"></path><path d="M23.71,30.5l3.5,1.5H29v-.38l-1.45-.73A.988.988,0,0,1,27,30V28a1,1,0,0,1,.45-.83L30,25.46V24.41l-.71-.7A1.033,1.033,0,0,1,29,23V20.33l-1.03-1.37A9.014,9.014,0,0,0,23,27,8.861,8.861,0,0,0,23.71,30.5Z"></path><path d="M36,7a4,4,0,0,0-4,4V9a4,4,0,0,0-4-4H26V7a4,4,0,0,0,4,4h1v5h2V13h1a4,4,0,0,0,4-4V7Z"></path></g></svg>