<svg xmlns="http://www.w3.org/2000/svg" viewBox="0 0 64 64" x="0px" y="0px"><g><polygon points="30 6.42 36.266 10 38 10 38 4 30 4 30 6.42"></polygon><rect x="31" y="56" width="4" height="4"></rect><polygon points="12 10 13.734 10 20 6.42 20 4 12 4 12 10"></polygon><path d="M21.265,8,18,9.866v9.828a14,14,0,0,1,4-1.406V18a3,3,0,0,1,6,0v.288a14,14,0,0,1,4,1.406V9.866L28.735,8ZM22,15H20V13h2Zm8,0H28V13h2Z"></path><rect x="42" y="50" width="3" height="6"></rect><path d="M31,39a1,1,0,0,0-1,1,2,2,0,0,1-2,2H26a2,2,0,0,1-2-2,1,1,0,0,0-2,0v1a3,3,0,0,0,3,3h4a3,3,0,0,0,3-3V40A1,1,0,0,0,31,39Z"></path><path d="M49.829,48.44l1.035,1.533L49.117,36H32a1,1,0,0,1-1-1v-.218A15.05,15.05,0,0,1,25,36a14.75,14.75,0,0,1-7-1.7V54h4V49a1,1,0,0,1,1-1h7a1,1,0,0,1,1,1v5h4V49a1,1,0,0,1,1-1H49A1,1,0,0,1,49.829,48.44ZM34,41a5.006,5.006,0,0,1-5,5H25a5.006,5.006,0,0,1-5-5V40a3,3,0,0,1,6,0h2a3,3,0,0,1,6,0Z"></path><polygon points="51.412 54.362 48.469 50 47 50 47 58 51.867 58 51.412 54.362"></polygon><path d="M24.113,29.92a4.957,4.957,0,0,0,1.774,0A4.94,4.94,0,0,1,25,29.242,4.94,4.94,0,0,1,24.113,29.92Z"></path><rect x="18" y="56" width="4" height="4"></rect><path d="M47,28.171V34h2V31A3.006,3.006,0,0,0,47,28.171Z"></path><path d="M25,34c5.514,0,10-3.14,10-7,0-3.351-3.42-6.24-8.133-6.87A1,1,0,0,1,26,19.139V18a1,1,0,0,0-2,0v1.139a1,1,0,0,1-.867.991C18.42,20.76,15,23.649,15,27,15,30.86,19.486,34,25,34Zm-4-7a2.526,2.526,0,0,0,.784,1.767C23.073,28.418,24,27.7,24,27a.757.757,0,0,1,.02-.1C22.268,26.581,21,25.426,21,24c0-1.682,1.757-3,4-3s4,1.318,4,3c0,1.426-1.268,2.581-3.02,2.9A.757.757,0,0,1,26,27c0,.7.927,1.418,2.216,1.767A2.526,2.526,0,0,0,29,27h2c0,2.757-2.691,5-6,5s-6-2.243-6-5Z"></path><ellipse cx="25" cy="24" rx="2" ry="1"></ellipse></g></svg>