<svg xmlns="http://www.w3.org/2000/svg" viewBox="0 0 64 64" x="0px" y="0px"><g data-name="coffee cup-coffee mug-espresso-drink-coffee"><path d="M60.84,30.08A6.964,6.964,0,0,0,55.05,27H52.87c.18-.94.34-1.89.48-2.86a1.006,1.006,0,0,0-.23-.8,1.037,1.037,0,0,0-.76-.34H3.64a1.037,1.037,0,0,0-.76.34,1.006,1.006,0,0,0-.23.8c1.49,10.44,5.4,19.39,11.02,25.2A8.169,8.169,0,0,1,15.93,54H6a1,1,0,0,0-1,1,5,5,0,0,0,5,5H46a5,5,0,0,0,5-5,1,1,0,0,0-1-1H40.07a8.169,8.169,0,0,1,2.26-4.66q1.05-1.1,2.04-2.34h8.28a6.992,6.992,0,0,0,6.5-4.4l2.4-6A6.98,6.98,0,0,0,60.84,30.08ZM48.83,56A3.014,3.014,0,0,1,46,58H10a3.014,3.014,0,0,1-2.83-2Zm-7.94-8.05A10.119,10.119,0,0,0,38.05,54H17.95a10.119,10.119,0,0,0-2.84-6.05C10.06,42.73,6.33,34.42,4.8,25H51.2C49.67,34.42,45.94,42.73,40.89,47.95ZM51.4,33h3.65a.989.989,0,0,1,.92,1.37l-2.4,6a1,1,0,0,1-.92.63H48.18A47.038,47.038,0,0,0,51.4,33Zm8.29,2.86-2.4,6A4.982,4.982,0,0,1,52.65,45H45.82c.43-.65.86-1.31,1.27-2h5.56a3.011,3.011,0,0,0,2.78-1.89l2.4-5.99a3,3,0,0,0-.3-2.8A2.964,2.964,0,0,0,55.05,31H51.96c.18-.66.34-1.33.49-2h2.6a5.012,5.012,0,0,1,4.64,6.86Z"></path><path d="M22,19h2a2.258,2.258,0,0,1,.759-1.681,4.208,4.208,0,0,0,0-5.968,2.245,2.245,0,0,1,0-3.366A4.168,4.168,0,0,0,26,5H24a2.261,2.261,0,0,1-.759,1.683,4.209,4.209,0,0,0,0,5.969,2.244,2.244,0,0,1,0,3.365A4.164,4.164,0,0,0,22,19Z"></path><path d="M30,19h2a2.258,2.258,0,0,1,.759-1.681,4.208,4.208,0,0,0,0-5.968,2.245,2.245,0,0,1,0-3.366A4.168,4.168,0,0,0,34,5H32a2.261,2.261,0,0,1-.759,1.683,4.209,4.209,0,0,0,0,5.969,2.244,2.244,0,0,1,0,3.365A4.164,4.164,0,0,0,30,19Z"></path></g></svg>