<svg xmlns="http://www.w3.org/2000/svg" viewBox="0 0 64 64" x="0px" y="0px"><g><path d="M11,40H9V56a2,2,0,0,0,2,2H32V56H11Z"></path><path d="M11,5.232c.035.07.072.142.108.215C11.648,6.524,12.387,8,14.006,8s2.358-1.476,2.9-2.553C17.328,4.6,17.656,4,18.013,4s.681.6,1.1,1.447C19.657,6.524,20.4,8,22.012,8s2.355-1.476,2.894-2.554C25.33,4.6,25.657,4,26.011,4s.68.6,1.1,1.447C27.653,6.524,28.391,8,30.009,8S32.364,6.524,32.9,5.447C33.327,4.6,33.654,4,34.009,4s.68.6,1.1,1.446C35.652,6.524,36.39,8,38.008,8S40.362,6.524,40.9,5.447C41.325,4.6,41.652,4,42.007,4s.68.6,1.1,1.447C43.649,6.524,44.387,8,46.005,8S48.358,6.524,48.9,5.447c.036-.07.07-.138.1-.206V26h2V3a1,1,0,0,0-1-1c-1.617,0-2.354,1.476-2.893,2.554C46.685,5.4,46.357,6,46.005,6s-.681-.6-1.105-1.447C44.362,3.476,43.625,2,42.007,2s-2.356,1.476-2.895,2.554C38.688,5.4,38.361,6,38.008,6s-.682-.6-1.106-1.447C36.363,3.476,35.626,2,34.009,2s-2.356,1.476-2.895,2.553C30.69,5.4,30.363,6,30.009,6s-.681-.6-1.105-1.447C28.366,3.476,27.629,2,26.011,2s-2.355,1.476-2.894,2.553C22.693,5.4,22.366,6,22.012,6s-.681-.6-1.105-1.446C20.368,3.476,19.631,2,18.013,2s-2.358,1.475-2.9,2.552C14.691,5.4,14.362,6,14.006,6s-.685-.6-1.109-1.447C12.357,3.476,11.619,2,10,2A1,1,0,0,0,9,3V16h2Z"></path><path d="M26,36V20a2,2,0,0,0-2-2H6a2,2,0,0,0-2,2V36a2,2,0,0,0,2,2H24A2,2,0,0,0,26,36ZM24,22H18V20h6Zm-8-2v6H14V20Zm-4,0v2H6V20ZM6,24h6v3a1,1,0,0,0,1,1h4a1,1,0,0,0,1-1V24h6l0,12H6Z"></path><rect x="18" y="32" width="4" height="2"></rect><rect x="14" y="32" width="2" height="2"></rect><path d="M57,28H37a3,3,0,0,0-3,3V59a3,3,0,0,0,3,3H57a3,3,0,0,0,3-3V31A3,3,0,0,0,57,28Zm1,31a1,1,0,0,1-1,1H37a1,1,0,0,1-1-1V31a1,1,0,0,1,1-1H57a1,1,0,0,1,1,1Z"></path><path d="M55,32H39a1,1,0,0,0-1,1v4a1,1,0,0,0,1,1H55a1,1,0,0,0,1-1V33A1,1,0,0,0,55,32Zm-1,4H40V34H54Z"></path><path d="M55,40H39a1,1,0,0,0-1,1V57a1,1,0,0,0,1,1H55a1,1,0,0,0,1-1V41A1,1,0,0,0,55,40ZM48,56H45V50h3Zm0-8H45V42h3Zm-5-6v6H40V42Zm-3,8h3v6H40Zm14,6H50V42h4Z"></path><rect x="31" y="15" width="12" height="2"></rect><rect x="31" y="19" width="12" height="2"></rect><rect x="17" y="44" width="12" height="2"></rect><rect x="17" y="48" width="12" height="2"></rect></g></svg>