<svg xmlns="http://www.w3.org/2000/svg" viewBox="0 0 64 64" x="0px" y="0px"><g data-name="Hosting-Server-Files and Folder-Network-Technology"><rect x="46" y="42" width="8" height="2"></rect><rect x="50" y="46" width="4" height="2"></rect><path d="M60,9H58V4a2.006,2.006,0,0,0-2-2H44a2.006,2.006,0,0,0-2,2H41a3.009,3.009,0,0,0-3,3v6H32a1,1,0,0,0-1,1V31H26V25c0-3.42-5.16-6-12-6S2,21.58,2,25V39c0,3.42,5.16,6,12,6s12-2.58,12-6V33h5V50a1,1,0,0,0,1,1h6v8a3.009,3.009,0,0,0,3,3H59a3.009,3.009,0,0,0,3-3V47a2.006,2.006,0,0,0-2-2H58V40a2.006,2.006,0,0,0-2-2H44a2.006,2.006,0,0,0-2,2H41a3.009,3.009,0,0,0-3,3v6H33V15h5v8a3.009,3.009,0,0,0,3,3H59a3.009,3.009,0,0,0,3-3V11A2.006,2.006,0,0,0,60,9ZM24,39c0,1.89-4.28,4-10,4S4,40.89,4,39V35.41C6.11,36.99,9.73,38,14,38s7.89-1.01,10-2.59Zm0-7c0,1.89-4.28,4-10,4S4,33.89,4,32V28.41C6.11,29.99,9.73,31,14,31s7.89-1.01,10-2.59ZM14,29C8.28,29,4,26.89,4,25s4.28-4,10-4,10,2.11,10,4S19.72,29,14,29ZM58,47h2v3H58ZM44,40H56V50H50.41l-4.7-4.71A1.033,1.033,0,0,0,45,45H44Zm-4,3a1,1,0,0,1,1-1h1v3H40Zm0,4h4.59l4.7,4.71A1.033,1.033,0,0,0,50,52H60v7a1,1,0,0,1-1,1H41a1,1,0,0,1-1-1ZM44,4H56V14H50.41l-4.7-4.71A1.033,1.033,0,0,0,45,9H44ZM40,7a1,1,0,0,1,1-1h1V9H40ZM60,23a1,1,0,0,1-1,1H41a1,1,0,0,1-1-1V11h4.59l4.7,4.71A1.033,1.033,0,0,0,50,16H60Zm0-9H58V11h2Z"></path><rect x="46" y="6" width="8" height="2"></rect><rect x="50" y="10" width="4" height="2"></rect><rect x="5" y="31" width="2" height="2"></rect><rect x="9" y="32" width="2" height="2"></rect><rect x="5" y="38" width="2" height="2"></rect><rect x="9" y="39" width="2" height="2"></rect><rect x="8" y="24" width="12" height="2"></rect><rect x="27" y="13" width="2" height="2"></rect><rect x="27" y="17" width="2" height="2"></rect><rect x="27" y="49" width="2" height="2"></rect><rect x="27" y="45" width="2" height="2"></rect></g></svg>