<svg xmlns="http://www.w3.org/2000/svg" viewBox="0 0 64 64" x="0px" y="0px"><g><path d="M31.293,29.707a1,1,0,0,0,1.414,0l4.243-4.243a3,3,0,0,0,0-4.242h0a3,3,0,0,0-4.243,0L32,21.929l-.707-.708a3,3,0,0,0-4.243,4.243Zm-2.829-7.071a1,1,0,0,1,1.415,0l1.414,1.414a1.029,1.029,0,0,0,1.414,0l1.414-1.414a1,1,0,1,1,1.415,1.414L32,27.586,28.464,24.05A1,1,0,0,1,28.464,22.636Z"></path><path d="M22.56,30.638l-1.53,6.119A1,1,0,0,0,22.5,37.868l4.982-2.847A10.843,10.843,0,0,0,32,36a11.012,11.012,0,1,0-9.44-5.362ZM32,16a9,9,0,0,1,0,18,8.894,8.894,0,0,1-4.1-1,1,1,0,0,0-.953.021l-3.4,1.945L24.6,30.71a1,1,0,0,0-.134-.79A8.994,8.994,0,0,1,32,16Z"></path><path d="M57,2H7A5.006,5.006,0,0,0,2,7V45a5.006,5.006,0,0,0,5,5H23.867l-.75,6H21a3,3,0,0,0,0,6H43a3,3,0,0,0,0-6H40.883l-.75-6H57a5.006,5.006,0,0,0,5-5V7A5.006,5.006,0,0,0,57,2ZM7,4H57a3,3,0,0,1,3,3v3H4V7A3,3,0,0,1,7,4Zm53,8V40H4V12ZM44,59a1,1,0,0,1-1,1H21a1,1,0,0,1,0-2H43A1,1,0,0,1,44,59Zm-5.133-3H25.133l.75-6H38.117ZM57,48H7a3,3,0,0,1-3-3V42H60v3A3,3,0,0,1,57,48Z"></path><rect x="54" y="44" width="2" height="2"></rect><rect x="8" y="6" width="2" height="2"></rect><rect x="12" y="6" width="2" height="2"></rect><rect x="16" y="6" width="2" height="2"></rect></g></svg>