<svg xmlns="http://www.w3.org/2000/svg" viewBox="0 0 64 64" x="0px" y="0px"><title>Headphone</title><g><path d="M61,38.278V31a28.89,28.89,0,0,0-7.522-19.465c-.024-.03-.035-.066-.062-.094s-.046-.026-.067-.044a28.948,28.948,0,0,0-42.68-.018c-.02.017-.046.023-.065.042s-.033.057-.055.083A28.889,28.889,0,0,0,3,31v7.278A1.993,1.993,0,0,0,2,40v6a2,2,0,0,0,2,2H6a3,3,0,0,0,3,3h4a3,3,0,0,0,3-3V38a3,3,0,0,0-3-3H9a3,3,0,0,0-3,3H5V31a26.875,26.875,0,0,1,6.371-17.393l1.343,1.349a1.871,1.871,0,0,0,1.417.584,2.014,2.014,0,0,0,1.439-.615,22.954,22.954,0,0,1,32.88.02,2.014,2.014,0,0,0,1.439.615H49.9a1.971,1.971,0,0,0,1.407-.585l1.341-1.346A26.878,26.878,0,0,1,59,31v7H58a3,3,0,0,0-3-3H51a3,3,0,0,0-3,3V48a3,3,0,0,0,3,3h4a3,3,0,0,0,3-3h1v5a5.006,5.006,0,0,1-5,5H39a2,2,0,0,0-2-2H27a2,2,0,0,0-2,2v1a3,3,0,0,0,3,3h8a3,3,0,0,0,2.816-2H54a7.008,7.008,0,0,0,7-7V47.722A1.993,1.993,0,0,0,62,46V40A1.993,1.993,0,0,0,61,38.278ZM8,38a1,1,0,0,1,1-1h4a1,1,0,0,1,1,1V48a1,1,0,0,1-1,1H9a1,1,0,0,1-1-1ZM6,46H4V40H6ZM49.881,13.548a24.945,24.945,0,0,0-35.751,0l-1.412-1.418a26.939,26.939,0,0,1,38.58.017ZM36,60H28a1,1,0,0,1-1-1V58H37v1A1,1,0,0,1,36,60ZM56,48a1,1,0,0,1-1,1H51a1,1,0,0,1-1-1V38a1,1,0,0,1,1-1h4a1,1,0,0,1,1,1Zm2-8h2v6H58Z"></path></g></svg>