<svg xmlns="http://www.w3.org/2000/svg" viewBox="0 0 64 64" x="0px" y="0px"><g data-name="Shopper-Man-Ecommerce-Shopping Bag-Payment"><path d="M59,22H37a3.009,3.009,0,0,0-3,3v7.78A2.993,2.993,0,0,0,29,35H22.96a9.014,9.014,0,0,0-4.49-7.17L16,26.42V23.93A8,8,0,0,0,23,16V12a4.028,4.028,0,0,0-1.68-3.26A5,5,0,0,0,23,5V3a1,1,0,0,0-1-1H12A7.008,7.008,0,0,0,5,9v2.54a3.87,3.87,0,0,0-.83.63A4,4,0,0,0,7,19h.58a8.064,8.064,0,0,0,.42.83v5.69l-2.38,1.9a6.97,6.97,0,0,0-2.16,2.99A6.647,6.647,0,0,0,3,32.88V61a1,1,0,0,0,1,1H22a1,1,0,0,0,1-1V43h7v2H27a1.011,1.011,0,0,0-1,.93l-1,14a.985.985,0,0,0,.27.75A1.007,1.007,0,0,0,26,61H42a1.007,1.007,0,0,0,.73-.32.985.985,0,0,0,.27-.75l-1-14A1.011,1.011,0,0,0,41,45H38V42.22A2.97,2.97,0,0,0,39,40H59a3.009,3.009,0,0,0,3-3V25A3.009,3.009,0,0,0,59,22ZM7,9a5,5,0,0,1,5-5h9V5a3.009,3.009,0,0,1-3,3H11a2.006,2.006,0,0,0-2,2,1,1,0,0,1-1,1H7Zm0,8a2.006,2.006,0,0,1-2-2,2.015,2.015,0,0,1,2-2H8a3.009,3.009,0,0,0,3-3h8a2.006,2.006,0,0,1,2,2v4a6.049,6.049,0,0,1-.35,2H18.24a1,1,0,0,1-.9-.56l-.45-.89-1.78.9.45.89A2.988,2.988,0,0,0,18.24,20h1.22A6,6,0,0,1,15,22a5.928,5.928,0,0,1-4.24-1.76,5.682,5.682,0,0,1-.91-1.16,5.811,5.811,0,0,1-.6-1.37A1.008,1.008,0,0,0,8.29,17Zm7,6.93v1.89l-4-.67V22.24A7.9,7.9,0,0,0,14,23.93ZM6.88,28.98l2.4-1.92,5.38.9,2.81,1.61A7,7,0,0,1,20.96,35H14.62l-2.73-5.45-1.78.9,1.61,3.23L7.99,35.75l-2.5-5A5.09,5.09,0,0,1,6.88,28.98ZM21,60H18V54.41l1.7-1.69L18.28,51.3l-1.99,1.99A1.033,1.033,0,0,0,16,54v6H5V50H21Zm0-12H5V34.24l4.11,8.21A.988.988,0,0,0,10,43H21ZM10.62,41,8.89,37.54l3.73-2.07.16.33-1.49,1.49,1.42,1.42L14.41,37H30a1,1,0,0,0,1-1V35a.949.949,0,0,1,.31-.71A.928.928,0,0,1,32,34a1,1,0,0,1,1,1v1a1,1,0,0,0,.29.71l.66.66A6.862,6.862,0,0,1,35.86,41ZM36,43v2H32V43Zm4.07,4,.86,12H27.07l.86-12H30v2h2V47h4v2h2V47ZM36.3,37.06A1,1,0,0,1,37,38v.21A8.027,8.027,0,0,0,36.3,37.06ZM60,37a1,1,0,0,1-1,1H39a2.974,2.974,0,0,0-.78-2H40V34H38v1.78A2.974,2.974,0,0,0,36,35V25a1,1,0,0,1,1-1H59a1,1,0,0,1,1,1Z"></path><path d="M46,27a1,1,0,0,0-1-1H39a1,1,0,0,0-1,1v4a1,1,0,0,0,1,1h6a1,1,0,0,0,1-1Zm-2,3H40V28h4Z"></path><path d="M55,30H53a3,3,0,0,0,0,6h2a3,3,0,0,0,0-6Zm0,4H53a1,1,0,0,1,0-2h2a1,1,0,0,1,0,2Z"></path><rect x="56" y="26" width="2" height="2"></rect><rect x="52" y="26" width="2" height="2"></rect><rect x="48" y="26" width="2" height="2"></rect><rect x="42" y="34" width="2" height="2"></rect><rect x="46" y="34" width="2" height="2"></rect><path d="M59,2H37a3.009,3.009,0,0,0-3,3V17a3.009,3.009,0,0,0,3,3H59a3.009,3.009,0,0,0,3-3V5A3.009,3.009,0,0,0,59,2ZM36,5a1,1,0,0,1,1-1h1.86A4.017,4.017,0,0,1,36,6.86Zm1,13a1,1,0,0,1-1-1V15.14A4.017,4.017,0,0,1,38.86,18Zm23-1a1,1,0,0,1-1,1H57.14A4.017,4.017,0,0,1,60,15.14Zm0-3.91A5.992,5.992,0,0,0,55.09,18H40.91A5.992,5.992,0,0,0,36,13.09V8.91A5.992,5.992,0,0,0,40.91,4H55.09A5.992,5.992,0,0,0,60,8.91Zm0-6.23A4.017,4.017,0,0,1,57.14,4H59a1,1,0,0,1,1,1Z"></path><path d="M48,7a4,4,0,1,0,4,4A4,4,0,0,0,48,7Zm0,6a2,2,0,1,1,2-2A2,2,0,0,1,48,13Z"></path><rect x="17" y="12" width="2" height="2"></rect></g></svg>