<svg xmlns="http://www.w3.org/2000/svg" viewBox="0 0 64 64" x="0px" y="0px"><title>Christmas Tree</title><g data-name="Christmas Tree"><path d="M41.936,39H47.57a2,2,0,0,0,1.414-3.42L39.319,26H44.78A2.989,2.989,0,1,0,47,25h-.009a.992.992,0,0,0-.2-.615L33.655,7.5a3,3,0,1,0-3.309,0L18.479,22.766A1.993,1.993,0,0,0,20.04,26h4.643l-3.4,3.371a1.145,1.145,0,0,0-.091.079l-7.9,7.84a.994.994,0,0,0-.27.887A3,3,0,1,0,16.22,39h5.846l-7.587,9.766A1.993,1.993,0,0,0,16.04,52H27.78l-1.76,8.8A1,1,0,0,0,27,62H37a1,1,0,0,0,.98-1.2L36.22,52H47.96a1.993,1.993,0,0,0,1.57-3.223ZM48,28a1,1,0,1,1-1-1A1,1,0,0,1,48,28ZM30,17a3,3,0,0,0-2.748,1.8q-1.64.141-3.295.171L32,8.629l5.907,7.6a23.385,23.385,0,0,1-5.619,1.858A2.983,2.983,0,0,0,30,17Zm1,3a1,1,0,1,1-1-1A1,1,0,0,1,31,20ZM32,4a1,1,0,1,1-1,1A1,1,0,0,1,32,4ZM22.524,30.949a.972.972,0,0,0,.091-.079l5.2-5.16a1,1,0,0,0-.7-1.71l-7.061,0,2.34-3.01c.2,0,.4.006.611.006,1.376,0,2.757-.071,4.128-.181A2.992,2.992,0,0,0,33,20l0-.024a24.322,24.322,0,0,0,6.16-2.144L43.956,24H36.89a1,1,0,0,0-.7,1.71L40.8,30.285A20.276,20.276,0,0,1,37.584,31.5a2.98,2.98,0,0,0-5.546,1.119,49.879,49.879,0,0,1-11.295.095ZM36,33a1,1,0,1,1-1-1A1,1,0,0,1,36,33ZM14,42a1,1,0,1,1,1-1A1,1,0,0,1,14,42Zm11.008-4.439a1,1,0,0,0-.9-.561H16.427l2.514-2.495A50.254,50.254,0,0,0,26,35a50.575,50.575,0,0,0,6.463-.415,2.986,2.986,0,0,0,5.489-1.108,20.617,20.617,0,0,0,4.326-1.725L47.57,37H39.89a1,1,0,0,0-.789,1.614l1.4,1.8a30.865,30.865,0,0,1-9.778,2.348,2.986,2.986,0,0,0-5.534.211c-1.192-.019-2.369-.085-3.535-.189L24.9,38.614A1,1,0,0,0,25.008,37.561ZM29,44a1,1,0,1,1-1-1A1,1,0,0,1,29,44Zm6.78,16H28.22l1.6-8h4.36ZM16.049,50,20.2,44.657c1.626.187,3.291.291,4.972.317a2.983,2.983,0,0,0,5.715-.217,31.4,31.4,0,0,0,10.863-2.736L47.966,50Z"></path></g></svg>