<svg xmlns="http://www.w3.org/2000/svg" viewBox="0 0 64 64" x="0px" y="0px"><g data-name="Manufacturing-Communicate-App-Internet of Things-Smartphone"><path d="M9,53h2a10.983,10.983,0,0,1,2.75-7.268l-1.5-1.322A12.974,12.974,0,0,0,9,53Z"></path><path d="M9.181,55.166a12.983,12.983,0,0,0,.562,2.168l1.885-.668a10.964,10.964,0,0,1-.476-1.832Z"></path><path d="M43.81,26,49.6,15.98a6.985,6.985,0,0,1-5.26-2.88L34.56,30.03A7.11,7.11,0,0,1,38,31.26V31a5,5,0,0,1,5-5Z"></path><path d="M38,39.98V34.02A4.988,4.988,0,1,0,31.029,41H31v3h6V41h-.023A4.994,4.994,0,0,0,38,39.98ZM34,40a3,3,0,1,1,3-3A3,3,0,0,1,34,40Z"></path><circle cx="34" cy="37" r="1"></circle><path d="M12.91,15.36a6.936,6.936,0,0,1-5.82,0A2.745,2.745,0,0,0,7,16v2h6V16A2.745,2.745,0,0,0,12.91,15.36Z"></path><path d="M40,57a3.009,3.009,0,0,0,3,3H57a3.009,3.009,0,0,0,3-3V54H40Zm9-1h2v2H49Z"></path><path d="M50,14a5,5,0,1,0-5-5A5,5,0,0,0,50,14Zm0-8a3,3,0,1,1-3,3A3,3,0,0,1,50,6Z"></path><path d="M10,14A5,5,0,1,0,5,9,5,5,0,0,0,10,14Zm0-8A3,3,0,1,1,7,9,3,3,0,0,1,10,6Z"></path><circle cx="10" cy="9" r="1"></circle><circle cx="50" cy="9" r="1"></circle><path d="M43,9a6.844,6.844,0,0,0,.68,3H16.31a6.867,6.867,0,0,0,0-6H43.68A6.844,6.844,0,0,0,43,9Z"></path><rect x="6" y="20" width="8" height="2"></rect><path d="M31,53a3,3,0,1,0,3-3A3.009,3.009,0,0,0,31,53Zm4,1H33V52h2Z"></path><rect x="4" y="24" width="12" height="4"></rect><path d="M7.293,37.707l-3-3A1,1,0,0,1,4,34V30H6v3.586l2.707,2.707Z"></path><path d="M12.707,37.707l-1.414-1.414L14,33.586V30h2v4a1,1,0,0,1-.293.707Z"></path><path d="M38,55.97a5,5,0,1,1,0-5.94V46H22a7,7,0,1,0,0,14H39.03A4.924,4.924,0,0,1,38,57ZM22,58a5,5,0,1,1,5-5A5.006,5.006,0,0,1,22,58Z"></path><path d="M40,52H60V34H40Zm10-4-1.414-1.414a2,2,0,0,1,2.828,0Zm2.121-3.121a3.072,3.072,0,0,0-4.242,0l-1.414-1.414a5,5,0,0,1,7.07,0Zm4.243-4.243L54.95,42.05a7.009,7.009,0,0,0-9.9,0l-1.414-1.414A9.012,9.012,0,0,1,56.364,40.636Z"></path><path d="M57,28H43a3.009,3.009,0,0,0-3,3v1H60V31A3.009,3.009,0,0,0,57,28Z"></path><path d="M22,50a3,3,0,1,0,3,3A3,3,0,0,0,22,50Zm1,4H21V52h2Z"></path></g></svg>