<svg xmlns="http://www.w3.org/2000/svg" viewBox="0 0 64 64" x="0px" y="0px"><g data-name="Speech Bubble"><path d="M52.989,21.387C53,21.256,53,21.128,53,21a8.009,8.009,0,0,0-8-8c-.167,0-.336.006-.509.019A16.994,16.994,0,0,0,12,20c0,.375.016.759.048,1.169A12,12,0,0,0,14,45h4v9a1,1,0,0,0,1.707.707L29.414,45H50a12,12,0,0,0,2.989-23.613ZM50,43H29a1,1,0,0,0-.707.293L20,51.586V44a1,1,0,0,0-1-1H14a9.995,9.995,0,0,1-.778-19.96,1,1,0,0,0,.915-1.123A14.83,14.83,0,0,1,14,20a14.994,14.994,0,0,1,28.934-5.53,1,1,0,0,0,1.092.617A5.924,5.924,0,0,1,45,15a6.006,6.006,0,0,1,6,6,5.94,5.94,0,0,1-.092,1.006,1,1,0,0,0,.815,1.154A9.994,9.994,0,0,1,50,43Z"></path><rect x="17" y="24" width="2" height="2"></rect><rect x="21" y="24" width="2" height="2"></rect><rect x="25" y="24" width="22" height="2"></rect><rect x="17" y="30" width="22" height="2"></rect><rect x="41" y="30" width="2" height="2"></rect><rect x="45" y="30" width="2" height="2"></rect><rect x="17" y="36" width="30" height="2"></rect><path d="M29,9V7A13.015,13.015,0,0,0,16,20h2A11.013,11.013,0,0,1,29,9Z"></path></g></svg>