<svg xmlns="http://www.w3.org/2000/svg" viewBox="0 0 64 64" x="0px" y="0px"><g><rect x="17" y="19" width="2" height="2"></rect><rect x="27" y="19" width="2" height="2"></rect><path d="M23,29a4,4,0,0,0,4-4H25a2,2,0,0,1-4,0H19A4,4,0,0,0,23,29Z"></path><path d="M60,28H40a2,2,0,0,0-2,2V17A15,15,0,0,0,8,17V31a10.891,10.891,0,0,0,2.951,7.47l-1.228.384A10.943,10.943,0,0,0,2,49.35V61a1,1,0,0,0,1,1H43a1,1,0,0,0,1-1V58H60a2,2,0,0,0,2-2V30A2,2,0,0,0,60,28Zm0,2v9H59V30ZM49.09,56H44.91A6.008,6.008,0,0,0,40,51.09V34.91A6.007,6.007,0,0,0,44.91,30h4.181A6.006,6.006,0,0,0,54,34.91V51.09A6.008,6.008,0,0,0,49.09,56ZM40,56V53.142A3.991,3.991,0,0,1,42.858,56Zm-3.447-8.812A6.952,6.952,0,0,1,34.6,43.01l-.268-2.667,1.342.42A8.9,8.9,0,0,1,38,41.907V49.38A7.577,7.577,0,0,0,36.553,47.188ZM35.034,59.494a5.2,5.2,0,0,0-.476.506H11.443a5.456,5.456,0,0,0-.476-.506A8.1,8.1,0,0,1,9,54a8.268,8.268,0,0,1,1.873-5.409,8.963,8.963,0,0,0,2.512-5.38l.354-3.517,1.813-.568,6.7,7.538a1,1,0,0,0,1.494,0l6.7-7.538,1.813.567.354,3.517a8.966,8.966,0,0,0,2.515,5.384A8.268,8.268,0,0,1,37,54,8.1,8.1,0,0,1,35.034,59.494ZM32,16v7a9,9,0,0,1-18,0V16ZM20,37V33.574a10.776,10.776,0,0,0,6,0V37a1,1,0,0,0,.7.954l1.655.518L23,44.5l-5.356-6.023,1.655-.518A1,1,0,0,0,20,37Zm36,4h1v4H56Zm3,0h1v4H59ZM57,30v9H56V30Zm-3,2.858A3.993,3.993,0,0,1,51.143,30H54ZM42.858,30A3.993,3.993,0,0,1,40,32.858V30ZM38,39.559a11.324,11.324,0,0,0-1.721-.7l-1.23-.384A10.9,10.9,0,0,0,38,31ZM31.5,32.8l1,1.73a10.958,10.958,0,0,0,3.482-3.221,8.909,8.909,0,0,1-3.106,6.485L28,36.265V32.786A11,11,0,0,0,34,23V22a2.981,2.981,0,0,0,2-.78V25A9.038,9.038,0,0,1,31.5,32.8ZM34,18a1,1,0,0,1,0,2ZM23,4A13.009,13.009,0,0,1,35.988,16.771,2.972,2.972,0,0,0,34,16V15a1,1,0,0,0-1-1H30V12H28v2H26V10H24v4H13a1,1,0,0,0-1,1v1a2.972,2.972,0,0,0-1.988.771A13.009,13.009,0,0,1,23,4ZM12,20a1,1,0,0,1,0-2ZM10.017,31.306A10.958,10.958,0,0,0,13.5,34.527l1-1.73A9.038,9.038,0,0,1,10,25V21.22A2.981,2.981,0,0,0,12,22v1a11,11,0,0,0,6,9.786v3.479l-4.877,1.526A8.909,8.909,0,0,1,10.017,31.306ZM4,49.35a8.95,8.95,0,0,1,6.318-8.586l1.345-.421L11.4,43.011A6.955,6.955,0,0,1,9.45,47.186,10.234,10.234,0,0,0,7,54a10.752,10.752,0,0,0,1.791,6H4ZM42,60H37.21a9.426,9.426,0,0,0,1.285-2.7A1.988,1.988,0,0,0,40,58h2Zm9.127-4A4,4,0,0,1,54,53.141V56ZM56,56V47h1v9Zm3,0V47h1v9Z"></path><path d="M47,38a5,5,0,1,0,5,5A5.006,5.006,0,0,0,47,38Zm0,8a3,3,0,1,1,3-3A3,3,0,0,1,47,46Z"></path></g></svg>