<svg xmlns="http://www.w3.org/2000/svg" viewBox="0 0 64 64" x="0px" y="0px"><g><path d="M32,2A30,30,0,1,0,62,32,30.034,30.034,0,0,0,32,2Zm0,58A28,28,0,1,1,60,32,28.032,28.032,0,0,1,32,60Z"></path><path d="M36.972,41.242C40.516,36.334,45,29.115,45,24a13,13,0,0,0-26,0c0,5.115,4.484,12.334,8.028,17.242C21.127,41.837,15,43.614,15,47c0,3.939,8.552,6,17,6s17-2.061,17-6C49,43.614,42.873,41.837,36.972,41.242ZM32,13A11.013,11.013,0,0,1,43,24c0,6.4-8.4,17.23-11,20.432C29.4,41.23,21,30.406,21,24A11.013,11.013,0,0,1,32,13Zm0,38c-9.156,0-15-2.369-15-4,0-1.3,3.974-3.331,11.426-3.871,1.526,2.008,2.667,3.349,2.815,3.522a1,1,0,0,0,1.518,0c.148-.173,1.289-1.514,2.815-3.522C43.026,43.669,47,45.7,47,47,47,48.631,41.156,51,32,51Z"></path><path d="M36.9,28.442,38.6,25H40V23H37.91A6.008,6.008,0,0,0,33,18.09V17H31v1.09A6.008,6.008,0,0,0,26.09,23H24v2h1.382l1.723,3.447A1,1,0,0,0,28,29h8A1,1,0,0,0,36.9,28.442ZM32,20a4,4,0,0,1,3.858,3H28.142A4,4,0,0,1,32,20Zm-3.382,7-1-2h8.747l-.987,2Z"></path></g></svg>