<svg xmlns="http://www.w3.org/2000/svg" viewBox="0 0 64 64" x="0px" y="0px"><g data-name="Smartphone-Online Consult"><rect x="26" y="4" width="8" height="2"></rect><path d="M22.633,27.24a2,2,0,0,0-3.467-2l-4.814,8.34-1.732-1L16,26.723V19.01H14.81a3.008,3.008,0,0,0-2.6,1.5l-5,8.67A9.006,9.006,0,0,0,6,33.68V52H16V51a1,1,0,0,1,.143-.515l1.43-2.38A10,10,0,0,0,19,42.958V40.78a9.943,9.943,0,0,0-.518-3.171l-.53-1.581a1,1,0,0,1,.082-.818Z"></path><rect x="5" y="54" width="12" height="6"></rect><circle cx="48" cy="48" r="4"></circle><path d="M42.305,55.794a1,1,0,0,1,1.111-.06,8.892,8.892,0,0,0,2.356.975,1,1,0,0,1,.743.828L46.867,60h2.266l.352-2.463a1,1,0,0,1,.743-.828,8.892,8.892,0,0,0,2.356-.975,1,1,0,0,1,1.111.06l1.99,1.492,1.6-1.6L55.794,53.7a1,1,0,0,1-.06-1.111,8.892,8.892,0,0,0,.975-2.356,1,1,0,0,1,.828-.743L60,49.133V46.867l-2.463-.352a1,1,0,0,1-.828-.743,8.892,8.892,0,0,0-.975-2.356,1,1,0,0,1,.06-1.111l1.492-1.99-1.6-1.6L53.7,40.206a1,1,0,0,1-1.111.06,8.892,8.892,0,0,0-2.356-.975,1,1,0,0,1-.743-.828L49.133,36H46.867l-.352,2.463a1,1,0,0,1-.743.828,8.892,8.892,0,0,0-2.356.975,1,1,0,0,1-1.111-.06l-1.99-1.492-1.6,1.6,1.492,1.99a1,1,0,0,1,.06,1.111,8.892,8.892,0,0,0-.975,2.356,1,1,0,0,1-.828.743L36,46.867v2.266l2.463.352a1,1,0,0,1,.828.743,8.892,8.892,0,0,0,.975,2.356,1,1,0,0,1-.06,1.111l-1.492,1.99,1.6,1.6ZM56,47h2v2H56ZM40,49H38V47h2Zm9,9H47V56h2Zm6.778-3.636-1.414,1.414L52.95,54.364l1.414-1.414ZM54.364,40.222l1.414,1.414L54.364,43.05,52.95,41.636ZM47,38h2v2H47Zm1,4a6,6,0,1,1-6,6A6.006,6.006,0,0,1,48,42Zm-7.778-.364,1.414-1.414,1.414,1.414L41.636,43.05ZM41.636,52.95l1.414,1.414-1.414,1.414-1.414-1.414Z"></path><path d="M19.966,47.81A2.963,2.963,0,0,0,21,48H34V46a1,1,0,0,1,.858-.99l2.682-.383a10.96,10.96,0,0,1,.678-1.639l-1.624-2.166a1,1,0,0,1,.093-1.307l2.828-2.828a1,1,0,0,1,1.307-.093L42,37.477V7a3,3,0,0,0-3-3H36V6a2,2,0,0,1-2,2H26a2,2,0,0,1-2-2V4H21a3,3,0,0,0-3,3V23.5a4,4,0,0,1,6.366,4.743l-4.375,7.579.388,1.154A11.965,11.965,0,0,1,21,40.78v2.178A12,12,0,0,1,19.966,47.81ZM26,26a2,2,0,0,1,2-2h2V18H29a1,1,0,0,1-1-1V15a1,1,0,0,1,.03-.243l1-4A1,1,0,0,1,30,10h2a1,1,0,0,1,.97.757l1,4A1,1,0,0,1,34,15v2a1,1,0,0,1-1,1H32v6h2a2,2,0,0,1,2,2V40a2,2,0,0,1-2,2H28a2,2,0,0,1-2-2Z"></path><polygon points="32 15.123 31.219 12 30.781 12 30 15.123 30 16 32 16 32 15.123"></polygon><polygon points="30 29 32 29 32 40 34.001 40 34 26 28 26 28 40 30 40 30 29"></polygon></g></svg>