<svg xmlns="http://www.w3.org/2000/svg" viewBox="0 0 64 64" x="0px" y="0px"><g><path d="M61,14H33V9.858a4,4,0,1,0-2,0V14H3a1,1,0,0,0-1,1v6a1,1,0,0,0,1,1H4V58a2,2,0,0,0,2,2H58a2,2,0,0,0,2-2V22h1a1,1,0,0,0,1-1V15A1,1,0,0,0,61,14ZM30,6a2,2,0,1,1,2,2A2,2,0,0,1,30,6ZM58,58H6V22H58Zm2-38H4V16H60Z"></path><rect x="45" y="32" width="4" height="2"></rect><rect x="45" y="36" width="4" height="2"></rect><rect x="45" y="52" width="4" height="2"></rect><rect x="45" y="48" width="4" height="2"></rect><path d="M23.707,34.293A1,1,0,0,0,23,34H21v2h1.586l.855.855A9.988,9.988,0,0,0,38.324,49.738l1.969,1.969A1,1,0,0,0,41,52h2V50H41.414l-1.676-1.676a9.971,9.971,0,0,0,0-12.648L41.414,34H43V32H41a1,1,0,0,0-.707.293l-1.969,1.969a9.961,9.961,0,0,0-13.671.977Zm14,12-1.414,1.414.605.6a7.949,7.949,0,0,1-9.8,0l1.426-1.427A5.984,5.984,0,0,0,37.91,43h2.021a7.953,7.953,0,0,1-1.619,3.9ZM32,38a4,4,0,1,1-4,4A4,4,0,0,1,32,38Zm5.707-.293.6-.605A7.953,7.953,0,0,1,39.931,41H37.91A6.008,6.008,0,0,0,33,36.09V34.069a7.953,7.953,0,0,1,3.9,1.619l-.605.6ZM31,34.069V36.09a5.984,5.984,0,0,0-3.885,9.381L25.688,46.9a7.945,7.945,0,0,1-.783-8.579l.388.388,1.414-1.414-.64-.64A7.98,7.98,0,0,1,31,34.069Z"></path><rect x="15" y="34" width="4" height="2"></rect><rect x="15" y="38" width="4" height="2"></rect><rect x="12" y="24" width="12" height="2"></rect><rect x="12" y="28" width="12" height="2"></rect><rect x="44" y="24" width="8" height="2"></rect><rect x="40" y="28" width="12" height="2"></rect><rect x="40" y="24" width="2" height="2"></rect><rect x="12" y="52" width="2" height="2"></rect><rect x="16" y="52" width="4" height="2"></rect><rect x="12" y="48" width="8" height="2"></rect></g></svg>