<svg xmlns="http://www.w3.org/2000/svg" viewBox="0 0 64 64" x="0px" y="0px"><g data-name="Book-Time-Time Management-Study"><path d="M61,7H56V4a1,1,0,0,0-1-1H38a6.986,6.986,0,0,0-6,3.41A6.986,6.986,0,0,0,26,3H9A1,1,0,0,0,8,4V7H3A1,1,0,0,0,2,8V46a1,1,0,0,0,1,1H17.05a14.982,14.982,0,0,0,29.9,0H61a1,1,0,0,0,1-1V8A1,1,0,0,0,61,7ZM8,45H4V9H8Zm9.05,0H10V41h7.88A14.831,14.831,0,0,0,17.05,45ZM10,39V5H26a5,5,0,0,1,5,5V31.05A15.007,15.007,0,0,0,18.74,39ZM32,59A13,13,0,1,1,45,46,13.012,13.012,0,0,1,32,59ZM54,45H46.95a14.831,14.831,0,0,0-.83-4H54Zm0-6H45.26A15.007,15.007,0,0,0,33,31.05V10a5,5,0,0,1,5-5H54Zm6,6H56V9h4Z"></path><rect x="14" y="21" width="13" height="2"></rect><rect x="37" y="9" width="13" height="2"></rect><rect x="37" y="13" width="13" height="2"></rect><rect x="37" y="17" width="13" height="2"></rect><rect x="37" y="21" width="13" height="2"></rect><rect x="14" y="25" width="13" height="2"></rect><rect x="37" y="25" width="13" height="2"></rect><rect x="14" y="29" width="10" height="2"></rect><rect x="40" y="29" width="10" height="2"></rect><rect x="14" y="33" width="6" height="2"></rect><rect x="44" y="33" width="6" height="2"></rect><path d="M15,19H26a1,1,0,0,0,1-1V10a1,1,0,0,0-1-1H15a1,1,0,0,0-1,1v8A1,1,0,0,0,15,19Zm1-8h9v6H16Z"></path><path d="M32,35A11,11,0,1,0,43,46,11.013,11.013,0,0,0,32,35Zm8.941,12a8.956,8.956,0,0,1-1.916,4.611l-1.368-1.368-1.414,1.414,1.368,1.368A8.956,8.956,0,0,1,33,54.941V53H31v1.941a8.956,8.956,0,0,1-4.611-1.916l1.368-1.368-1.414-1.414-1.368,1.368A8.956,8.956,0,0,1,23.059,47H25V45H23.059a8.956,8.956,0,0,1,1.916-4.611l1.368,1.368,1.414-1.414-1.368-1.368A8.956,8.956,0,0,1,31,37.059V39h2V37.059a8.956,8.956,0,0,1,4.611,1.916l-1.368,1.368,1.414,1.414,1.368-1.368A8.956,8.956,0,0,1,40.941,45H39v2Z"></path><path d="M31,44v1.586l-1.707,1.707,1.414,1.414,2-2A1,1,0,0,0,33,46V41H31Z"></path></g></svg>