<svg xmlns="http://www.w3.org/2000/svg" viewBox="0 0 64 64" x="0px" y="0px"><g data-name="Online Book"><polygon points="25.883 50 25.133 56 38.867 56 38.117 50 25.883 50"></polygon><path d="M60,13V40H4V13a3.009,3.009,0,0,1,3-3H8V34a1,1,0,0,0,1,1H28V33H10V5.03h1V31a1,1,0,0,0,1,1H29v1a3,3,0,0,0,6,0V32H52a1,1,0,0,0,1-1V5.03h1V33H36v2H55a1,1,0,0,0,1-1V10h1A3.009,3.009,0,0,1,60,13Z"></path><path d="M29,4H13V30H29ZM15,8h2v2H15ZM27,26H15V24H27Zm0-4H15V20H27Zm0-4H15V16H27Zm0-4H15V12H27Zm0-4H19V8h8Z"></path><path d="M51,4H35V30H51ZM37,8h6v2H37ZM49,26H37V24H49Zm0-4H37V20H49Zm0-4H37V16H49Zm0-4H37V12H49Zm0-4H45V8h4Z"></path><path d="M4,45a3,3,0,0,0,3,3H57a3,3,0,0,0,3-3V42H4Zm52-1h2v2H56Z"></path><polygon points="41 58 23 58 23 60 17 60 17 62 47 62 47 60 41 60 41 58"></polygon><path d="M32,34a1,1,0,0,0,1-1V6H31V33A1,1,0,0,0,32,34Z"></path></g></svg>