<svg xmlns="http://www.w3.org/2000/svg" viewBox="0 0 64 64" x="0px" y="0px"><g><polygon points="2 52 2 54 62 54 62 52 51 52 15 52 2 52"></polygon><rect x="8" y="22" width="6" height="6"></rect><path d="M15,44a4,4,0,1,0,4,4A4,4,0,0,0,15,44Zm0,6a2,2,0,1,1,2-2A2,2,0,0,1,15,50Z"></path><path d="M49,30h6V23a1,1,0,0,0-1-1H49Z"></path><rect x="58" y="37" width="2" height="2"></rect><path d="M56.65,46H60V41H57a1,1,0,0,1-1-1V36a1,1,0,0,1,1-1h2.98a.984.984,0,0,0-.47-.73L55.72,32H48a1,1,0,0,1-1-1V22H42V46h3.35a5.99,5.99,0,0,1,11.3,0ZM52,36H48V34h4Z"></path><rect x="46" y="18" width="4" height="2"></rect><path d="M47,16h2V15a1,1,0,0,0-2,0Z"></path><path d="M51,44a4,4,0,1,0,4,4A4,4,0,0,0,51,44Zm0,6a2,2,0,1,1,2-2A2,2,0,0,1,51,50Z"></path><path d="M20.65,46H26V22a2.006,2.006,0,0,1,2-2h8a2.006,2.006,0,0,1,2,2V46h2V17a1,1,0,0,0-1-1H5a1,1,0,0,0-1,1V46H9.35a5.99,5.99,0,0,1,11.3,0ZM24,36H21V34h3ZM9,36H6V34H9ZM8,30a2,2,0,0,1-2-2V22a2,2,0,0,1,2-2H22a2,2,0,0,1,2,2v6a2,2,0,0,1-2,2Zm10.9,7.34L17.81,39.018,16,37.842V40H14V37.842l-1.81,1.176L11.1,37.34,13.164,36,11.1,34.66l1.089-1.678L14,34.158V32h2v2.158l1.81-1.176L18.9,34.66,16.836,36Z"></path><path d="M36,30H28V46h8Zm-2,6H30V34h4Z"></path><rect x="28" y="22" width="8" height="6"></rect><rect x="16" y="22" width="6" height="6"></rect><rect x="47" y="10" width="2" height="2"></rect><rect x="43.25" y="11.189" width="2" height="2.121" transform="translate(4.298 34.877) rotate(-45)"></rect><rect x="50.689" y="11.25" width="2.121" height="2" transform="translate(6.495 40.181) rotate(-45)"></rect></g></svg>