<svg xmlns="http://www.w3.org/2000/svg" viewBox="0 0 64 64" x="0px" y="0px"><g data-name="Clipboard-Shopping List-Checklist-Shopping Cart-Commerce"><path d="M42,9v3.93l2-2V7a1,1,0,0,0-1-1H34V8h7A1,1,0,0,1,42,9Z"></path><path d="M54.75,11.49a3,3,0,0,0-4.24-4.24l-.71.71,4.24,4.24Z"></path><polygon points="36.36 24.22 49.8 10.79 48.38 9.37 34.95 22.81 36.36 24.22"></polygon><polygon points="31.74 30.26 33.31 29.65 32.35 28.69 31.74 30.26"></polygon><polygon points="37.4 28.08 33.92 24.6 33.13 26.65 35.35 28.87 37.4 28.08"></polygon><path d="M16,4v6H32V4Zm4,4H18V6h2Zm6,0H22V6h4Zm4,0H28V6h2Z"></path><circle cx="17" cy="45" r="3"></circle><polygon points="51.21 12.2 37.78 25.64 39.19 27.05 52.63 13.62 51.21 12.2"></polygon><path d="M17.707,34.707l-1.414-1.414,2.6-2.6A2.972,2.972,0,0,0,17,30a3.04,3.04,0,1,0,2.946,2.468Z"></path><path d="M29.31,31l3.29-8.55a1.014,1.014,0,0,1,.23-.35L40,14.93V10H34a2.006,2.006,0,0,1-2,2H16a2.006,2.006,0,0,1-2-2H8V56H40V42.99A5,5,0,0,1,37,44H35a5,5,0,0,1,0-10h2a4.865,4.865,0,0,1,3,1.03V29.07l-.1.1a1.014,1.014,0,0,1-.35.23l-9.19,3.53A.922.922,0,0,1,30,33H24V31ZM24,19h6v2H24Zm0,4h6v2H24ZM17,50a5,5,0,1,1,5-5A5,5,0,0,1,17,50Zm5-17a5.051,5.051,0,1,1-1.69-3.72l1.98-1.99,1.42,1.42L21.52,30.9A4.938,4.938,0,0,1,22,33Zm-.48-14.1A4.938,4.938,0,0,1,22,21a5.051,5.051,0,1,1-1.69-3.72l1.98-1.99,1.42,1.42ZM30,49H24V47h6Zm0-4H24V43h6Zm0-10v2H24V35Z"></path><path d="M42.1,60H5a1,1,0,0,1-1-1V7A1,1,0,0,1,5,6h9V8H7A1,1,0,0,0,6,9V57a1,1,0,0,0,1,1H40.18a2.973,2.973,0,0,0,1.89,1.85Z"></path><path d="M17,24a2.968,2.968,0,0,0,2.946-3.532l-2.239,2.239-1.414-1.414,2.6-2.6A2.972,2.972,0,0,0,17,18a3,3,0,0,0,0,6Z"></path><path d="M59,56H44V54H59a1.01,1.01,0,0,0,1-.92l1-12a1.055,1.055,0,0,0-.26-.76A1.029,1.029,0,0,0,60,40H43.41l-1.7-1.71A1.033,1.033,0,0,0,41,38H39.82A3.01,3.01,0,0,0,37,36H35a3,3,0,0,0,0,6h2a3.01,3.01,0,0,0,2.82-2h.77L42,41.41V57a1,1,0,0,0,1,1h1.18a3,3,0,1,0,5.64,0h2.36a3,3,0,1,0,5.64,0H59a1,1,0,0,1,1,1h2A3.009,3.009,0,0,0,59,56ZM56,42h2.91l-.16,2H56Zm0,4h2.58l-.17,2H56Zm0,4h2.25l-.17,2H56Zm-4-8h2v2H52Zm0,4h2v2H52Zm0,4h2v2H52Zm-4-8h2v2H48Zm0,4h2v2H48Zm0,4h2v2H48Zm-4-8h2v2H44Zm0,4h2v2H44Zm0,4h2v2H44ZM37,40H35a1,1,0,0,1,0-2h2a1,1,0,0,1,0,2ZM47,60a1,1,0,1,1,1-1A1,1,0,0,1,47,60Zm8,0a1,1,0,1,1,1-1A1,1,0,0,1,55,60Z"></path><path d="M44,25.07V37.76l-.92-.93A3.09,3.09,0,0,0,42,36.18V27.07Z"></path></g></svg>