<svg xmlns="http://www.w3.org/2000/svg" viewBox="0 0 64 64" x="0px" y="0px"><g data-name="Wind Mill"><path d="M54.375,34.609a1,1,0,0,0-.52-.606L41.231,27.868a1,1,0,0,0-1.3.4l-.5.866-3.589-2.073A3.915,3.915,0,0,0,33,22.142V18h1a1,1,0,0,0,1-.929l1-14A1,1,0,0,0,35,2H29a1,1,0,0,0-1,1.071l1,14A1,1,0,0,0,30,18h1v4.142a3.915,3.915,0,0,0-2.839,4.919l-3.589,2.073-.5-.866a1,1,0,0,0-1.3-.4L10.145,34a1,1,0,0,0-.43,1.4l3,5.2a1,1,0,0,0,.642.474,1.016,1.016,0,0,0,.225.026,1,1,0,0,0,.56-.172l11.624-7.865a1,1,0,0,0,.306-1.329l-.5-.866L29.15,28.8a3.984,3.984,0,0,0,5.7,0l3.578,2.066-.5.866a1,1,0,0,0,.306,1.329l11.624,7.865a1,1,0,0,0,.56.172,1.016,1.016,0,0,0,.225-.026,1,1,0,0,0,.642-.474l3-5.2A1,1,0,0,0,54.375,34.609ZM30.074,4h3.852l-.857,12H30.931ZM13.911,38.668l-1.927-3.336,10.821-5.258,1.069,1.852ZM32,28a2,2,0,1,1,2-2A2,2,0,0,1,32,28ZM50.089,38.668l-9.963-6.742L41.2,30.074l10.821,5.258Z"></path><path d="M36.724,45H39V43H36.439L34.99,32.858A1,1,0,0,0,34,32H30a1,1,0,0,0-.99.858L27.561,43H25v2h2.276l-1,7H24v2h1.99l-.98,6.858A1,1,0,0,0,26,62H38a1,1,0,0,0,.99-1.142L38.01,54H40V52H37.724ZM30.867,34h2.266l1.286,9H29.581ZM29.3,45H34.7l1,7H28.3Zm7.551,15H27.153l.857-6h7.98Z"></path><path d="M40.539,42.979l.9,1.785a21.123,21.123,0,0,0,4.436-3l-1.322-1.5A19.114,19.114,0,0,1,40.539,42.979Z"></path><path d="M51,26a19.194,19.194,0,0,1-.388,3.842l1.959.4A21.2,21.2,0,0,0,53,26,20.9,20.9,0,0,0,38.244,5.944l-.594,1.91A18.913,18.913,0,0,1,51,26Z"></path><path d="M26.285,7.875l-.6-1.908A20.914,20.914,0,0,0,11,26h2A18.922,18.922,0,0,1,26.285,7.875Z"></path><path d="M41.893,37.275A14.989,14.989,0,0,1,39.485,39l1,1.732a17.008,17.008,0,0,0,2.729-1.957Z"></path><path d="M47,26a15.4,15.4,0,0,1-.117,1.884l1.985.248A17.248,17.248,0,0,0,49,26,16.939,16.939,0,0,0,38.394,10.243L37.641,12.1A14.944,14.944,0,0,1,47,26Z"></path><path d="M15,26h2a14.944,14.944,0,0,1,9.361-13.9l-.753-1.854A16.941,16.941,0,0,0,15,26Z"></path></g></svg>