<svg xmlns="http://www.w3.org/2000/svg" viewBox="0 0 64 64" x="0px" y="0px"><title>Chilli</title><g><path d="M38.557,12.452l.981-.955a1,1,0,0,0-.554-1.706L35,9.209V4a2,2,0,0,0-2-2H31a2,2,0,0,0-2,2V9.209l-3.984.582a1,1,0,0,0-.554,1.706l.981.955A9.967,9.967,0,0,0,22,20a203.427,203.427,0,0,0,2.65,22.53C27.943,62,30.786,62,32,62s4.057,0,7.35-19.47A203.427,203.427,0,0,0,42,20,9.967,9.967,0,0,0,38.557,12.452ZM31,4h2v8H31V4Zm-2,7.23V12a2,2,0,0,0,2,2h2a2,2,0,0,0,2-2v-.77l1.691.248-1.969,1.916a1,1,0,0,0-.287.886l.466,2.713-2.436-1.279a1.005,1.005,0,0,0-.93,0L29.1,16.993l.466-2.713a1,1,0,0,0-.287-.886l-1.969-1.916ZM37.378,42.2C34.4,59.8,32.023,60,32,60s-2.4-.2-5.378-17.8A204.842,204.842,0,0,1,24,20a7.964,7.964,0,0,1,2.888-6.141l.617.6-.72,4.19a1,1,0,0,0,1.45,1.056L32,17.729l3.765,1.977a1.008,1.008,0,0,0,.465.114,1,1,0,0,0,.985-1.17l-.72-4.19.617-.6A7.964,7.964,0,0,1,40,20,204.842,204.842,0,0,1,37.378,42.2Z"></path><path d="M36.182,36.985a1,1,0,0,0-1.14.838c-.777,5.1-1.617,9.593-2.427,13a1,1,0,0,0,.742,1.2.975.975,0,0,0,.232.028,1,1,0,0,0,.972-.769c1.039-4.375,1.91-9.574,2.459-13.165A1,1,0,0,0,36.182,36.985Z"></path><path d="M33.71,53.29a1.032,1.032,0,0,0-.33-.21,1,1,0,0,0-1.09.21,1.155,1.155,0,0,0-.21.33,1,1,0,1,0,1.84,0A1.155,1.155,0,0,0,33.71,53.29Z"></path></g></svg>