<svg xmlns="http://www.w3.org/2000/svg" viewBox="0 0 64 64" x="0px" y="0px"><g data-name="Gaming-Control-Internet-Internet of Things-Smartphone"><path d="M24,31a3.009,3.009,0,0,0-3-3H7a3.009,3.009,0,0,0-3,3v1H24Z"></path><path d="M46,31H43a1.076,1.076,0,0,1-.62-.21l-4.52-3.58a1.03,1.03,0,0,0-.62-.21H32.76a1.03,1.03,0,0,0-.62.21l-4.52,3.58A1.052,1.052,0,0,1,27,31H26v7H56V8H14V26h7V23a8.011,8.011,0,0,1,8-8H41a8.011,8.011,0,0,1,8,8v5A3.009,3.009,0,0,1,46,31Z"></path><path d="M60,7a3.009,3.009,0,0,0-3-3H13a3.009,3.009,0,0,0-3,3V26h2V7a1,1,0,0,1,1-1H57a1,1,0,0,1,1,1V39a1,1,0,0,1-1,1H26v2H57a3.009,3.009,0,0,0,3-3Z"></path><rect x="41" y="21" width="2" height="2"></rect><path d="M24,54H4v3a3.009,3.009,0,0,0,3,3H21a3.009,3.009,0,0,0,3-3Zm-9,4H13V56h2Z"></path><path d="M24,34H4V52H24ZM14,48l-1.414-1.414a2,2,0,0,1,2.828,0Zm2.122-3.121a3,3,0,0,0-4.244,0l-1.414-1.414a5.008,5.008,0,0,1,7.072,0ZM18.95,42.05a7.009,7.009,0,0,0-9.9,0L7.636,40.636a9.009,9.009,0,0,1,12.728,0Z"></path><path d="M48.69,53.71A.949.949,0,0,0,49,53a1,1,0,0,0-1-1H26v2H48A.928.928,0,0,0,48.69,53.71Z"></path><rect x="33" y="44" width="4" height="6"></rect><path d="M25.58,29h1.07l4.25-3.36A3.015,3.015,0,0,1,32.76,25h4.48a2.964,2.964,0,0,1,1.86.65L43.35,29H46a1,1,0,0,0,1-1V23a6,6,0,0,0-6-6H29a6,6,0,0,0-6,6v3.42A5.073,5.073,0,0,1,25.58,29ZM39,21h2V19h2v2h2v2H43v2H41V23H39Zm-3-2h2v2H36Zm-4,0h2v2H32Zm-7,2h2V19h2v2h2v2H29v2H27V23H25Z"></path></g></svg>