<svg xmlns="http://www.w3.org/2000/svg" viewBox="0 0 64 64" x="0px" y="0px"><g><path d="M36.194,33.608l-9.8-9.8a7,7,0,0,0,9.8,9.8Z"></path><path d="M34,28a2,2,0,0,0-2-2,2.033,2.033,0,0,0-.518.067l2.45,2.451A1.99,1.99,0,0,0,34,28Z"></path><path d="M26.328,34.991,24.21,46h8.483L30.2,36.81A8.944,8.944,0,0,1,26.328,34.991Z"></path><path d="M47,50V7a3,3,0,0,0-3-3H20a3,3,0,0,0-3,3v3H43v2H17V57a3,3,0,0,0,3,3H44a3,3,0,0,0,3-3V52H21V50ZM26,8H24V6h2Zm4,0H28V6h2Zm1,47h2v2H31Zm2-40A12.013,12.013,0,0,1,45,27H43A10.011,10.011,0,0,0,33,17Zm-1,5a8.009,8.009,0,0,1,8,8H38a6.006,6.006,0,0,0-6-6Zm-5.661,1.34h0a1,1,0,0,1,.707.293l2.932,2.932a3.977,3.977,0,0,1,5.456,5.455l2.932,2.933a1,1,0,0,1,0,1.415,8.973,8.973,0,0,1-6.047,2.61l2.646,9.76A1,1,0,0,1,34,48H23a1,1,0,0,1-.982-1.188L24.642,33.17a9.03,9.03,0,0,1,.99-11.536A1,1,0,0,1,26.339,21.34ZM19,19V15a1,1,0,0,1,1-1h4v2H21v3Z"></path></g></svg>