<svg xmlns="http://www.w3.org/2000/svg" viewBox="0 0 64 64" x="0px" y="0px"><g data-name="Camera-Internet of Things-Wireless-Smartphone-Control"><path d="M59,8H48.62L47.17,5.1A1.98,1.98,0,0,0,45.38,4H32.62a1.98,1.98,0,0,0-1.79,1.1L29.38,8H26V6a2.006,2.006,0,0,0-2-2H20a2.006,2.006,0,0,0-2,2V8H17a3.009,3.009,0,0,0-3,3V25H7a5,5,0,0,0-5,5V56a5,5,0,0,0,5,5H21a5,5,0,0,0,5-5V36H59a3.009,3.009,0,0,0,3-3V11A3.009,3.009,0,0,0,59,8ZM20,6h4V8H20Zm-4,5a1,1,0,0,1,1-1h5V25.1a5.468,5.468,0,0,0-1-.1H16Zm8,45a3.009,3.009,0,0,1-3,3H7a3.009,3.009,0,0,1-3-3V53H24Zm0-5H4V33H24Zm0-20H4V30a3.009,3.009,0,0,1,3-3H21a3.009,3.009,0,0,1,3,3Zm36,2a1,1,0,0,1-1,1H26V30a4.952,4.952,0,0,0-2-3.97V10h6a1,1,0,0,0,.9-.55L32.62,6H45.38L47.1,9.45A1,1,0,0,0,48,10H59a1,1,0,0,1,1,1Z"></path><path d="M39,10A11,11,0,1,0,50,21,11.013,11.013,0,0,0,39,10Zm0,20a9,9,0,1,1,9-9A9.01,9.01,0,0,1,39,30Z"></path><path d="M39,14a7,7,0,1,0,7,7A7.008,7.008,0,0,0,39,14Zm0,12a5,5,0,1,1,5-5A5.006,5.006,0,0,1,39,26Z"></path><rect x="51" y="12" width="2" height="2"></rect><rect x="53" y="17" width="5" height="2"></rect><rect x="53" y="21" width="5" height="2"></rect><rect x="53" y="25" width="5" height="2"></rect><rect x="53" y="29" width="5" height="2"></rect><path d="M10.464,42.465l1.414,1.414a3,3,0,0,1,4.244,0l1.414-1.414A5.008,5.008,0,0,0,10.464,42.465Z"></path><path d="M9.05,41.05a7.009,7.009,0,0,1,9.9,0l1.414-1.414a9.009,9.009,0,0,0-12.728,0Z"></path><path d="M12.586,45.586,14,47l1.414-1.414A2,2,0,0,0,12.586,45.586Z"></path><rect x="13" y="55" width="2" height="2"></rect><path d="M40,45H28v2H41a1,1,0,0,0,1-1V38H40Z"></path><rect x="28" y="41" width="2" height="2"></rect><rect x="32" y="41" width="2" height="2"></rect><rect x="36" y="41" width="2" height="2"></rect></g></svg>