<svg xmlns="http://www.w3.org/2000/svg" viewBox="0 0 64 64" x="0px" y="0px"><g><path d="M61.9,54.553,56,42.764V11a3,3,0,0,0-3-3H44.47A15.958,15.958,0,0,0,19.53,8H11a3,3,0,0,0-3,3V42.764L2.105,54.553A1,1,0,0,0,2,55v5a2,2,0,0,0,2,2H60a2,2,0,0,0,2-2V55A1,1,0,0,0,61.9,54.553ZM29,56h6v1H29ZM4.618,54l5-10H54.382l5,10ZM32,4A14,14,0,1,1,18,18,14.015,14.015,0,0,1,32,4ZM47.473,14H50V38H14V14h2.527a16,16,0,1,0,30.946,0ZM10,11a1,1,0,0,1,1-1h7.165a16.005,16.005,0,0,0-.987,2H13a1,1,0,0,0-1,1V39a1,1,0,0,0,1,1H51a1,1,0,0,0,1-1V13a1,1,0,0,0-1-1H46.822a16.005,16.005,0,0,0-.987-2H53a1,1,0,0,1,1,1V42H10ZM4,60V56H27v1a2,2,0,0,0,2,2h6a2,2,0,0,0,2-2V56H60v4Z"></path><rect x="10" y="50" width="2" height="2"></rect><rect x="14" y="50" width="2" height="2"></rect><rect x="18" y="50" width="28" height="2"></rect><rect x="48" y="50" width="2" height="2"></rect><rect x="52" y="50" width="2" height="2"></rect><rect x="15" y="46" width="2" height="2"></rect><rect x="11" y="46" width="2" height="2"></rect><rect x="19" y="46" width="2" height="2"></rect><rect x="23" y="46" width="2" height="2"></rect><rect x="27" y="46" width="2" height="2"></rect><rect x="31" y="46" width="2" height="2"></rect><rect x="35" y="46" width="2" height="2"></rect><rect x="39" y="46" width="2" height="2"></rect><rect x="43" y="46" width="2" height="2"></rect><rect x="47" y="46" width="2" height="2"></rect><rect x="51" y="46" width="2" height="2"></rect><path d="M32,22a4,4,0,1,0-4-4A4,4,0,0,0,32,22Zm0-6a2,2,0,1,1-2,2A2,2,0,0,1,32,16Z"></path><path d="M32,26a8,8,0,1,0-8-8A8.009,8.009,0,0,0,32,26Zm0-14a6,6,0,1,1-6,6A6.006,6.006,0,0,1,32,12Z"></path><path d="M32,28v2a12.029,12.029,0,0,0,2.181-.2l-.362-1.967A10.023,10.023,0,0,1,32,28Z"></path><path d="M35.636,27.318l.728,1.864a12.124,12.124,0,0,0,5.7-4.636l-1.676-1.092A10.107,10.107,0,0,1,35.636,27.318Z"></path><rect x="58" y="30" width="2" height="2"></rect><rect x="4" y="30" width="2" height="2"></rect><rect x="4" y="24" width="2" height="2"></rect><rect x="4" y="18" width="2" height="2"></rect><rect x="58" y="24" width="2" height="2"></rect><rect x="58" y="18" width="2" height="2"></rect><rect x="57" y="5" width="2" height="2"></rect><rect x="5" y="5" width="2" height="2"></rect></g></svg>