<svg xmlns="http://www.w3.org/2000/svg" viewBox="0 0 64 64" x="0px" y="0px"><defs><style>.cls-1{fill:#231f20;}</style></defs><title>Brainstrom</title><g><path class="cls-1" d="M23,32H20V31a3,3,0,0,0,3-3V18a2.993,2.993,0,0,0-2.085-2.842A5,5,0,0,0,16,11H8a1,1,0,0,0-1,1v2a4.989,4.989,0,0,0,2,4V28a3,3,0,0,0,3,3v1H9a7.009,7.009,0,0,0-7,7V61a1,1,0,0,0,1,1H29a1,1,0,0,0,1-1V39A7.009,7.009,0,0,0,23,32ZM9,13h7a3,3,0,0,1,3,3v1H12a2.951,2.951,0,0,1-1.449-.377A2.99,2.99,0,0,1,9,14Zm2,15V18.9c.037.008.075,0,.112.012A4.969,4.969,0,0,0,12,19h8a1,1,0,0,0,1-1V28a1,1,0,0,1-1,1H12A1,1,0,0,1,11,28Zm7,3v2.586l-1.293-1.293a1,1,0,0,0-1.414,0L14,33.586V31ZM28,60H26V40H24V60H8V40H6V60H4V39a5.006,5.006,0,0,1,5-5h3v2a1,1,0,0,0,1.707.707L16,34.414l2.293,2.293a.994.994,0,0,0,.3.2c.029.013.057.021.087.032a.972.972,0,0,0,.266.052c.019,0,.037.011.056.011s.022-.006.033-.007a.953.953,0,0,0,.35-.069A1,1,0,0,0,20,36V34h3a5.006,5.006,0,0,1,5,5Z"></path><path class="cls-1" d="M17,37H15a1,1,0,0,0-1,.938l-1,16a1,1,0,0,0,.291.769l2,2a1,1,0,0,0,1.414,0l2-2A1,1,0,0,0,19,53.938l-1-16A1,1,0,0,0,17,37ZM16,54.586l-.974-.974L15.939,39h.122l.913,14.612Z"></path><path class="cls-1" d="M55,32H52V31a3,3,0,0,0,3-3V18a4.992,4.992,0,0,0,2-4V12a1,1,0,0,0-1-1H48a5,5,0,0,0-4.915,4.158A2.993,2.993,0,0,0,41,18V28a3,3,0,0,0,3,3v1H41a7.009,7.009,0,0,0-7,7V61a1,1,0,0,0,1,1H61a1,1,0,0,0,1-1V39A7.009,7.009,0,0,0,55,32ZM48,13h7v1a3,3,0,0,1-1.561,2.629A2.945,2.945,0,0,1,52,17H45V16A3,3,0,0,1,48,13ZM43,28V18a1,1,0,0,0,1,1h8a5,5,0,0,0,.891-.09c.036-.006.073,0,.109-.011V28a1,1,0,0,1-1,1H44A1,1,0,0,1,43,28Zm7,3v2.586l-1.293-1.293a1,1,0,0,0-1.414,0L46,33.586V31ZM60,60H58V40H56V60H40V40H38V60H36V39a5.006,5.006,0,0,1,5-5h3v2a1,1,0,0,0,1.707.707L48,34.414l2.293,2.293a.994.994,0,0,0,.3.2c.029.013.058.021.088.032a.958.958,0,0,0,.265.052c.019,0,.037.011.056.011s.022-.006.033-.007a.953.953,0,0,0,.35-.069A1,1,0,0,0,52,36V34h3a5.006,5.006,0,0,1,5,5Z"></path><path class="cls-1" d="M49,37H47a1,1,0,0,0-1,.938l-1,16a1,1,0,0,0,.291.769l2,2a1,1,0,0,0,1.414,0l2-2A1,1,0,0,0,51,53.938l-1-16A1,1,0,0,0,49,37ZM48,54.586l-.974-.974L47.939,39h.122l.913,14.612Z"></path><path class="cls-1" d="M35,21V19.42l.124-.051,1.119,1.118a1,1,0,0,0,1.414,0l2.83-2.83a1,1,0,0,0,0-1.414l-1.118-1.119L39.42,15H41a1,1,0,0,0,1-1V10a1,1,0,0,0-1-1H39.415c-.017-.04-.033-.08-.05-.121l1.122-1.122a1,1,0,0,0,0-1.414l-2.83-2.83a1,1,0,0,0-1.414,0L35.121,4.635,35,4.584V3a1,1,0,0,0-1-1H30a1,1,0,0,0-1,1V4.584l-.121.051L27.757,3.513a1,1,0,0,0-1.414,0l-2.83,2.83a1,1,0,0,0,0,1.414l1.122,1.122c-.017.041-.033.081-.05.121H23a1,1,0,0,0-1,1v4a1,1,0,0,0,1,1h1.58l.051.124-1.118,1.119a1,1,0,0,0,0,1.414l2.83,2.83a1,1,0,0,0,1.414,0l1.119-1.118L29,19.42V21a1,1,0,0,0,1,1h4A1,1,0,0,0,35,21Zm-2-2.29V20H31V18.71a1,1,0,0,0-.715-.959,5.648,5.648,0,0,1-1.136-.469,1,1,0,0,0-1.186.171l-.913.913L25.634,16.95l.913-.913a1,1,0,0,0,.171-1.186,5.648,5.648,0,0,1-.469-1.136A1,1,0,0,0,25.29,13H24V11h1.3a1,1,0,0,0,.964-.733,5.732,5.732,0,0,1,.462-1.133,1,1,0,0,0-.179-1.171l-.913-.913L27.05,5.634l.923.923a1,1,0,0,0,1.2.162,5.349,5.349,0,0,1,1.115-.472A1,1,0,0,0,31,5.29V4h2V5.29a1,1,0,0,0,.71.957,5.349,5.349,0,0,1,1.115.472,1,1,0,0,0,1.2-.162l.923-.923L38.366,7.05l-.913.913a1,1,0,0,0-.179,1.171,5.732,5.732,0,0,1,.462,1.133A1,1,0,0,0,38.7,11H40v2H38.71a1,1,0,0,0-.959.715,5.648,5.648,0,0,1-.469,1.136,1,1,0,0,0,.171,1.186l.913.913L36.95,18.366l-.913-.913a1,1,0,0,0-1.186-.171,5.648,5.648,0,0,1-1.136.469A1,1,0,0,0,33,18.71Z"></path><path class="cls-1" d="M32,8a4,4,0,1,0,4,4A4,4,0,0,0,32,8Zm0,6a2,2,0,1,1,2-2A2,2,0,0,1,32,14Z"></path></g></svg>