<svg xmlns="http://www.w3.org/2000/svg" viewBox="0 0 64 64" x="0px" y="0px"><g data-name="Swimming Pool"><rect x="12" y="27" width="8" height="2"></rect><path d="M5,60H59a1,1,0,0,0,1-1V5a1,1,0,0,0-1-1H34a1,1,0,0,0-1,1V21a5.006,5.006,0,0,1-5,5H22v7H20V31H12v2H10V26H5a1,1,0,0,0-1,1V59A1,1,0,0,0,5,60Zm51-5.72a2.7,2.7,0,0,0-1.712.562,4.873,4.873,0,0,1-5.581,0,2.887,2.887,0,0,0-3.423,0,4.864,4.864,0,0,1-5.575,0A2.691,2.691,0,0,0,38,54.28v-2a4.623,4.623,0,0,1,2.788.878,2.879,2.879,0,0,0,3.418,0,4.87,4.87,0,0,1,5.579,0,2.89,2.89,0,0,0,3.425,0A4.627,4.627,0,0,1,56,52.28Zm-19-5v-2a4.623,4.623,0,0,1,2.788.878,2.879,2.879,0,0,0,3.418,0,4.87,4.87,0,0,1,5.579,0,2.89,2.89,0,0,0,3.425,0A4.627,4.627,0,0,1,55,47.28v2a2.7,2.7,0,0,0-1.712.562,4.873,4.873,0,0,1-5.581,0,2.887,2.887,0,0,0-3.423,0,4.864,4.864,0,0,1-5.575,0A2.691,2.691,0,0,0,37,49.28Zm0-40a4.623,4.623,0,0,1,2.788.878,2.879,2.879,0,0,0,3.418,0,4.87,4.87,0,0,1,5.579,0,2.89,2.89,0,0,0,3.425,0A4.627,4.627,0,0,1,55,9.28v2a2.7,2.7,0,0,0-1.712.562,4.873,4.873,0,0,1-5.581,0,2.887,2.887,0,0,0-3.423,0,4.864,4.864,0,0,1-5.575,0A2.691,2.691,0,0,0,37,11.28Zm19,5v2a2.7,2.7,0,0,0-1.712.562,4.873,4.873,0,0,1-5.581,0,2.887,2.887,0,0,0-3.423,0,4.864,4.864,0,0,1-5.575,0A2.691,2.691,0,0,0,38,16.28v-2a4.623,4.623,0,0,1,2.788.878,2.879,2.879,0,0,0,3.418,0,4.87,4.87,0,0,1,5.579,0,2.89,2.89,0,0,0,3.425,0A4.627,4.627,0,0,1,56,14.28ZM34,24H58v2H34ZM33,44.28a2.7,2.7,0,0,0-1.712.562,4.873,4.873,0,0,1-5.581,0,2.887,2.887,0,0,0-3.423,0,4.864,4.864,0,0,1-5.575,0A2.691,2.691,0,0,0,15,44.28v-2a4.623,4.623,0,0,1,2.788.878,2.879,2.879,0,0,0,3.418,0,4.87,4.87,0,0,1,5.579,0,2.89,2.89,0,0,0,3.425,0A4.627,4.627,0,0,1,33,42.28Zm-19-7a4.623,4.623,0,0,1,2.788.878,2.879,2.879,0,0,0,3.418,0,4.87,4.87,0,0,1,5.579,0,2.89,2.89,0,0,0,3.425,0A4.627,4.627,0,0,1,32,37.28v2a2.7,2.7,0,0,0-1.712.562,4.873,4.873,0,0,1-5.581,0,2.887,2.887,0,0,0-3.423,0,4.864,4.864,0,0,1-5.575,0A2.691,2.691,0,0,0,14,39.28Z"></path><path d="M18,14a4,4,0,0,0-4,4h2a2,2,0,0,1,4,0v3H12V18a4,4,0,0,0-8,0H6a2,2,0,0,1,4,0v7h2V23h8v2h2V18A4,4,0,0,0,18,14Z"></path></g></svg>