<svg xmlns="http://www.w3.org/2000/svg" viewBox="0 0 64 64" x="0px" y="0px"><g><path d="M46.68,37.29,37,34.26V30.79A11.028,11.028,0,0,0,42.95,22H43a4,4,0,0,0,0-8V11a9.014,9.014,0,0,0-9-9H30a9.014,9.014,0,0,0-9,9v3a4,4,0,1,0,0,8h.05A11.028,11.028,0,0,0,27,30.79v3.47l-9.68,3.03A8.959,8.959,0,0,0,11,45.88V61a1,1,0,0,0,1,1H52a1,1,0,0,0,1-1V45.88A8.959,8.959,0,0,0,46.68,37.29ZM43,16a2.006,2.006,0,0,1,2,2,2.015,2.015,0,0,1-2,2ZM21,20a2.015,2.015,0,0,1-2-2,2.006,2.006,0,0,1,2-2Zm2-9a7.008,7.008,0,0,1,7-7h4a7.008,7.008,0,0,1,7,7v2H36.38A11.947,11.947,0,0,1,27.9,9.49l-.19-.2a1.011,1.011,0,0,0-.98-.25,1,1,0,0,0-.7.72l-.05.21A3.981,3.981,0,0,1,23,12.87Zm0,10V14.93a5.992,5.992,0,0,0,4.43-3.17A13.862,13.862,0,0,0,36.38,15H41v6c0,.26-.02.52-.04.77l-6.8-1.36a11.021,11.021,0,0,0-4.32,0l-6.8,1.36C23.02,21.52,23,21.26,23,21Zm2.77,6.48,4.34-.49-.22-1.98-5.6.62a9.3,9.3,0,0,1-.86-1.9l6.81-1.36a9.065,9.065,0,0,1,3.52,0l6.81,1.36a9.3,9.3,0,0,1-.86,1.9l-5.6-.62-.22,1.98,4.34.49a8.961,8.961,0,0,1-12.46,0ZM35,31.57V35a3,3,0,0,1-6,0V31.57a10.68,10.68,0,0,0,6,0ZM27.19,36.3a4.977,4.977,0,0,0,9.62,0l1.93.6a7,7,0,0,1-13.48,0ZM19,60H13V56h6Zm0-6H13V52h6Zm32,6H45V56h6Zm0-6H45V52h6Zm0-4H45V46H43V60H21V46H19v4H13V45.88a6.964,6.964,0,0,1,4.91-6.68l5.45-1.7a8.992,8.992,0,0,0,17.28,0l5.45,1.7A6.964,6.964,0,0,1,51,45.88Z"></path><circle cx="27" cy="18" r="2"></circle><circle cx="37" cy="18" r="2"></circle></g></svg>