<svg xmlns="http://www.w3.org/2000/svg" viewBox="0 0 64 64" x="0px" y="0px"><g data-name="Bomb"><rect x="44" y="17" width="2" height="2"></rect><polygon points="18 5.618 18 6 20 6 20 4.618 18 5.618"></polygon><rect x="22" y="26" width="6" height="1"></rect><path d="M30,36.858V41h4V30.721l-4-1.333v5.334A1.993,1.993,0,0,0,31,33h2A4,4,0,0,1,30,36.858Z"></path><polygon points="20.414 56 29.586 56 28.586 55 21.414 55 20.414 56"></polygon><rect x="22" y="4" width="6" height="20"></rect><rect x="19" y="58" width="12" height="2"></rect><rect x="22" y="29" width="6" height="24"></rect><path d="M44,21a1,1,0,0,0-1,1v1h4V22a1,1,0,0,0-1-1Z"></path><polygon points="48 45 48 41.303 46.465 39 43.535 39 42 41.303 42 45 44 45 44 42 46 42 46 45 48 45"></polygon><path d="M46.494,28.867A1,1,0,0,0,47,28V25H43v3a1,1,0,0,0,.5.866h0A.983.983,0,0,0,44,29h2A.983.983,0,0,0,46.494,28.867Z"></path><rect x="44" y="31" width="2" height="6"></rect></g></svg>