<svg xmlns="http://www.w3.org/2000/svg" viewBox="0 0 64 64" x="0px" y="0px"><g data-name="Share File"><path d="M57,54V8a2,2,0,0,0-2-2H19a2,2,0,0,0-2,2V28h2V8H55V54H19V46H17v8a2,2,0,0,0,2,2H55A2,2,0,0,0,57,54Z"></path><path d="M58,2H16a3,3,0,0,0-3,3V28h2V5a1,1,0,0,1,1-1H58a1,1,0,0,1,1,1V59a1,1,0,0,1-1,1H16a1,1,0,0,1-1-1V46H13V59a3,3,0,0,0,3,3H58a3,3,0,0,0,3-3V5A3,3,0,0,0,58,2Z"></path><rect x="36" y="57" width="2" height="2"></rect><path d="M48,50a2,2,0,0,0,2-2V18a1,1,0,0,0-.294-.708l-5.009-5A1,1,0,0,0,43.991,12H26a2,2,0,0,0-2,2V48a2,2,0,0,0,2,2ZM45,15.42,46.583,17H45ZM26,14H43v3a2,2,0,0,0,2,2h3V48H26Z"></path><rect x="30" y="17" width="4" height="2"></rect><rect x="30" y="21" width="8" height="2"></rect><rect x="30" y="27" width="14" height="2"></rect><rect x="30" y="31" width="14" height="2"></rect><rect x="30" y="35" width="14" height="2"></rect><rect x="30" y="39" width="14" height="2"></rect><rect x="7" y="30" width="14" height="2"></rect><rect x="3" y="30" width="2" height="2"></rect><rect x="14" y="36" width="8" height="2"></rect><rect x="10" y="36" width="2" height="2"></rect><rect x="12" y="42" width="8" height="2"></rect><rect x="8" y="42" width="2" height="2"></rect><rect x="4" y="42" width="2" height="2"></rect></g></svg>