<svg xmlns="http://www.w3.org/2000/svg" viewBox="0 0 64 64" x="0px" y="0px"><g data-name="Money Tree"><path d="M32,20a8,8,0,1,0-8-8A8.009,8.009,0,0,0,32,20Zm1-7H31a3,3,0,0,1,0-6V6h2V7a3,3,0,0,1,3,3H34a1,1,0,0,0-1-1H31a1,1,0,0,0,0,2h2a3,3,0,0,1,0,6v1H31V17a3,3,0,0,1-3-3h2a1,1,0,0,0,1,1h2a1,1,0,0,0,0-2Z"></path><path d="M23.072,31.464c3,1.729,6.525.515,7.877-.07-.167-1.465-.882-5.128-3.877-6.858s-6.53-.522-7.879.068C19.361,26.067,20.074,29.733,23.072,31.464Z"></path><path d="M36.928,24.536c-3.012,1.738-3.716,5.394-3.88,6.857,1.35.586,4.882,1.8,7.88.071s3.71-5.392,3.878-6.858C43.454,24.019,39.923,22.807,36.928,24.536Z"></path><path d="M47,52V38H17V52H47ZM23,50H20a1,1,0,0,1-1-1V46h2v2h2Zm0-8H21v2H19V41a1,1,0,0,1,1-1h3Zm9,8a5,5,0,1,1,5-5A5.006,5.006,0,0,1,32,50Zm14-1a1,1,0,0,1-1,1H42V48h2V46h2Zm0-5H44V42H42V40h3a1,1,0,0,1,1,1Z"></path><circle cx="32" cy="45" r="3"></circle><rect x="17" y="54" width="30" height="2"></rect><rect x="17" y="58" width="30" height="2"></rect><rect x="31" y="22" width="2" height="14"></rect></g></svg>