<svg xmlns="http://www.w3.org/2000/svg" viewBox="0 0 64 64" x="0px" y="0px"><title>Coffee Beans Plant</title><g data-name="Coffee Beans Plant"><path d="M58,2H46A15.01,15.01,0,0,0,31.174,14.835,15.012,15.012,0,0,0,18,7H6A1,1,0,0,0,5,8v2A15.017,15.017,0,0,0,20,25H31v2.184A2.966,2.966,0,0,0,30,27a2.993,2.993,0,0,0-2.068,5.163,3.957,3.957,0,0,0-2.043,6.321,4.974,4.974,0,0,0,0,9.032A3.933,3.933,0,0,0,26.382,53a3.98,3.98,0,0,0,4.66,6.421A2.993,2.993,0,0,0,37,59a2.955,2.955,0,0,0-.346-1.368,3.98,3.98,0,0,0-.586-7.469,2.951,2.951,0,0,0,.723-3.243,4.979,4.979,0,0,0,3.3-7.787A5.993,5.993,0,1,0,33,29.54V20H44A15.017,15.017,0,0,0,59,5V3A1,1,0,0,0,58,2ZM20,23A13.015,13.015,0,0,1,7,10V9H18A13.015,13.015,0,0,1,31,22v1ZM34,49a1,1,0,1,1,1-1A1,1,0,0,1,34,49ZM30,29a1,1,0,1,1-1,1A1,1,0,0,1,30,29Zm-1,5a2,2,0,1,1-2,2A2,2,0,0,1,29,34Zm-4,9a3,3,0,1,1,3,3A3,3,0,0,1,25,43Zm2,7a2,2,0,1,1,2,2A2,2,0,0,1,27,50Zm2,8a2,2,0,1,1,2-2A2,2,0,0,1,29,58Zm5,2a1,1,0,1,1,1-1A1,1,0,0,1,34,60Zm3-6a2,2,0,1,1-2-2A2,2,0,0,1,37,54Zm2-12a3,3,0,1,1-4.537-2.57,5.892,5.892,0,0,0,3.646.463A2.961,2.961,0,0,1,39,42ZM37,30a4,4,0,1,1-4,4A4,4,0,0,1,37,30ZM57,5A13.015,13.015,0,0,1,44,18H33V17A13.015,13.015,0,0,1,46,4H57Z"></path></g></svg>