<svg xmlns="http://www.w3.org/2000/svg" viewBox="0 0 64 64" x="0px" y="0px"><g><rect x="29" y="30" width="6" height="2"></rect><path d="M45,34H35v4a1,1,0,0,1,1,1v1h9Z"></path><path d="M36,43a1,1,0,0,1-1,1v8h9V42H36Z"></path><path d="M20,42V52h9V44a1,1,0,0,1-1-1V42Z"></path><path d="M29,34H19v6h9V39a1,1,0,0,1,1-1Z"></path><rect x="31" y="44" width="2" height="8"></rect><rect x="31" y="34" width="2" height="4"></rect><path d="M60,32A12.01,12.01,0,0,1,48,44H46V42a1,1,0,0,0,1-1V33a1,1,0,0,0-1-1H37V29a1,1,0,0,0-1-1H28a1,1,0,0,0-1,1v3H18a1,1,0,0,0-1,1v8a1,1,0,0,0,1,1v2H13a9,9,0,0,1-2.6-17.62.987.987,0,0,0,.71-.82A11.007,11.007,0,0,1,22,16c.16,0,.31.01.46.02l.2.01a.99.99,0,0,0,.95-.53,13.985,13.985,0,0,1,26.15,3.98.994.994,0,0,0,.77.79A12.053,12.053,0,0,1,60,32Z"></path><polygon points="34 41 34 40 30 40 30 41 30 42 34 42 34 41"></polygon></g></svg>