<svg xmlns="http://www.w3.org/2000/svg" viewBox="0 0 64 64" x="0px" y="0px"><title>Cactus_12</title><g data-name="Cactus"><rect x="39" y="50" width="2" height="2"></rect><rect x="39" y="47" width="2" height="2"></rect><rect x="36" y="47" width="2" height="2"></rect><path d="M49.728,30.338l.451-1.948-2.925-.676a4.958,4.958,0,0,0-.184-2.873L49.7,23.2l-1.059-1.7-2.629,1.641a4.951,4.951,0,0,0-1.549-1.106l.7-3.019-1.948-.45-.7,3.033a4.808,4.808,0,0,0-.537.008,34.477,34.477,0,0,0-1.619-10.294L42.9,9.941,41.956,8.18,39.581,9.46C38.409,7.062,36.852,5.549,35,5.131V2H33V5.091c-1.9.367-3.494,1.884-4.693,4.308L26.044,8.18,25.1,9.941l2.427,1.308a29.743,29.743,0,0,0-1.417,6.824l-.951-.558L23.45,20.421a5.533,5.533,0,0,0-3.273-.737L19.4,16.717l-1.936.5.763,2.928a5.523,5.523,0,0,0-2.65,2.184l-2.744-1.609-1.011,1.725,2.944,1.727a12.208,12.208,0,0,0-.329,4.013l-3.031.223.146,1.994,3.1-.228a31.356,31.356,0,0,0,.644,3.074c.164.631.361,1.287.572,1.952l-2.829.737.505,1.936,2.982-.777a27.838,27.838,0,0,0,3.077,5.98A1,1,0,0,0,19,44v9a9.011,9.011,0,0,0,9,9h8a9.011,9.011,0,0,0,9-9V44a1,1,0,0,0-1-1h-.282l.381-1.647,2.924.677.452-1.948-2.926-.677.9-3.9,2.924.676.452-1.948L45.9,33.559l.9-3.9ZM33.93,7c2.9,0,6.04,4.956,6.07,15.84V23c0,8.542-1.911,16.978-4.488,20H34V30a5.006,5.006,0,0,0-5-5,4.884,4.884,0,0,0-.618.042c-.066.008-.129.022-.194.033-.1.015-.193.027-.287.048-.027-.728-.041-1.438-.041-2.123C27.86,12.007,31.006,7,33.93,7ZM26,43V30a2.974,2.974,0,0,1,1.362-2.51l0,0,.075-.048,0,0c.015-.008.031-.011.046-.02h0A2.91,2.91,0,0,1,29,27a3,3,0,0,1,3,3V43Zm-.053-22.884c-.047.841-.077,1.7-.082,2.6a9.7,9.7,0,0,0-.842-1.023ZM17.238,32.748c-1.15-4.412-1.681-9.891,2.316-10.941l.109-.024c2.385-.571,4.382.957,5.942,4.546-.026.024-.044.055-.07.08a4.926,4.926,0,0,0-.607.686l-.009.014a4.959,4.959,0,0,0-.447.786c-.024.051-.049.1-.071.153a5,5,0,0,0-.272.846c-.012.056-.021.113-.032.169A5.022,5.022,0,0,0,24,30V43H22.069A24.076,24.076,0,0,1,18.1,35.575C17.762,34.6,17.474,33.654,17.238,32.748ZM43,53a7.008,7.008,0,0,1-7,7H28a7.008,7.008,0,0,1-7-7V45H43ZM37.93,43c2.357-3.941,3.979-11.495,4.061-19.378a3.009,3.009,0,0,1,1.073.042,3,3,0,0,1,2.241,3.6L41.665,43Z"></path></g></svg>