<svg xmlns="http://www.w3.org/2000/svg" viewBox="0 0 64 64" x="0px" y="0px"><g><rect x="47.021" y="39.021" width="4" height="2" transform="translate(-13.941 46.385) rotate(-45)"></rect><path d="M45.485,36.485c-.238.239-.489.457-.743.672l1.45,1.45,1.415-1.415-1.45-1.45C45.942,36,45.724,36.247,45.485,36.485Z"></path><path d="M37,22a6,6,0,1,0,4.243,1.757A5.963,5.963,0,0,0,37,22Z"></path><rect x="51.97" y="40.97" width="4.001" height="8.001" transform="translate(-15.99 51.343) rotate(-45.007)"></rect><path d="M49.021,35.778h0a1,1,0,0,1,1.414,0L54,39.343V13a1,1,0,0,0-1-1H48V23.23a12.035,12.035,0,0,1-.673,10.855Z"></path><path d="M11,12a1,1,0,0,0-1,1V44H47.343l-2.565-2.565a1,1,0,0,1,0-1.414h0l-1.693-1.694A12,12,0,0,1,37,39.994V40H19a3,3,0,0,1-3-3V12Z"></path><polygon points="42 10 45 10 42 6 42 10"></polygon><path d="M37,18.005a10,10,0,1,0,7.071,2.924A9.965,9.965,0,0,0,37,18.005Zm5.657,15.652A8,8,0,1,1,45,28,7.948,7.948,0,0,1,42.657,33.657Z"></path><path d="M19,4a1,1,0,0,0-1,1V37a1,1,0,0,0,1,1H30.367A12,12,0,1,1,45.485,19.515c.183.183.346.378.515.569V12H42a2,2,0,0,1-2-2V4Zm3,4h4v2H22Zm2,14H22V20h2Zm4-4H22V16h6Zm2-5H22V11h8Zm0-3H28V8h2Z"></path><polygon points="26.618 54 25.618 56 38.382 56 37.382 54 26.618 54"></polygon><rect x="4" y="58" width="56" height="2"></rect><path d="M23.382,56l1.723-3.447A1,1,0,0,1,26,52H38a1,1,0,0,1,.9.553L40.618,56H59.381l-2.658-5.31a1.989,1.989,0,0,1-2.752-.063L49.343,46H9.618l-5,10ZM52,52h2v2H52Zm-2,0v2H48V52Zm-3-4h2v2H47Zm-4,0h2v2H43Zm-1,4h4v2H42Zm-3-4h2v2H39Zm-4,0h2v2H35Zm-4,0h2v2H31Zm-4,0h2v2H27Zm-4,0h2v2H23Zm-4,0h2v2H19Zm-1,4h4v2H18Zm-3-4h2v2H15Zm-1,4h2v2H14Zm-3-4h2v2H11Zm-1,4h2v2H10Z"></path></g></svg>