<svg xmlns="http://www.w3.org/2000/svg" viewBox="0 0 64 64" x="0px" y="0px"><g data-name="Speech Bubble"><path d="M3,62a1,1,0,0,1-.96-1.281c.043-.146,4.072-13.942,5.033-18.422A12.986,12.986,0,0,1,7.1,21.685,12.987,12.987,0,0,1,21.685,7.1a12.986,12.986,0,0,1,20.63,0A12.987,12.987,0,0,1,56.9,21.685a12.986,12.986,0,0,1,0,20.63A12.987,12.987,0,0,1,42.315,56.9a12.986,12.986,0,0,1-20.612.024c-4.48.961-18.276,4.99-18.422,5.033A1,1,0,0,1,3,62Zm19.133-7.179a1,1,0,0,1,.822.431,10.989,10.989,0,0,0,18.09,0,1.007,1.007,0,0,1,1-.415A10.988,10.988,0,0,0,54.837,42.046a1,1,0,0,1,.415-1,10.989,10.989,0,0,0,0-18.09,1,1,0,0,1-.415-1A10.988,10.988,0,0,0,42.046,9.163a1.009,1.009,0,0,1-1-.415,10.989,10.989,0,0,0-18.09,0,1.01,1.01,0,0,1-1,.415A10.988,10.988,0,0,0,9.163,21.954a1,1,0,0,1-.415,1,10.989,10.989,0,0,0,0,18.09,1,1,0,0,1,.415,1c-.551,3.033-3.492,13.325-4.7,17.487,4.162-1.2,14.454-4.145,17.487-4.7A1.092,1.092,0,0,1,22.133,54.821Z"></path><rect x="21" y="22" width="2" height="2"></rect><rect x="25" y="22" width="2" height="2"></rect><rect x="29" y="22" width="14" height="2"></rect><rect x="21" y="28" width="14" height="2"></rect><rect x="37" y="28" width="2" height="2"></rect><rect x="41" y="28" width="2" height="2"></rect><rect x="21" y="34" width="22" height="2"></rect><rect x="21" y="40" width="8" height="2"></rect><rect x="31" y="40" width="2" height="2"></rect><rect x="35" y="40" width="2" height="2"></rect><rect x="39" y="40" width="4" height="2"></rect></g></svg>