<svg xmlns="http://www.w3.org/2000/svg" viewBox="0 0 64 64" x="0px" y="0px"><g data-name="Online Shopping"><circle cx="37" cy="32" r="1"></circle><path d="M37.1,24l.778-7H26.117l.778,7ZM34,18h2v5H34Zm-3,0h2v5H31Zm-3,0h2v5H28Z"></path><circle cx="27" cy="32" r="1"></circle><rect x="26" y="47" width="12" height="6"></rect><path d="M60,44.02V7.98A.982.982,0,0,0,59.02,7H4.98A.98.98,0,0,0,4,7.98V44.02a.98.98,0,0,0,.98.98H59.02A.98.98,0,0,0,60,44.02ZM24.952,15H39a1,1,0,0,1,.994,1.11l-1,9A1,1,0,0,1,38,26H26a1,1,0,0,1-.994-.89l-.967-8.7A1,1,0,0,1,24.952,15Zm-10.5-2.58A2.981,2.981,0,0,1,17,11h2.21a3,3,0,0,1,2.981,2.669L23.881,27H41v2H37a3,3,0,1,1-3,3,3,3,0,0,1,3-3H27a3,3,0,1,1-3,3,3,3,0,0,1,3-3H23a1,1,0,0,1-.992-.874l-1.8-14.221a1,1,0,0,0-1-.9H17a1,1,0,0,0-.851.475,1.069,1.069,0,0,0-.009,1.081.931.931,0,0,0,.839.444H19v2H16.979a2.92,2.92,0,0,1-2.631-1.556A3.053,3.053,0,0,1,14.45,12.42ZM34,43H30V41h4Zm22-4H8V37H56Z"></path><rect x="23" y="55" width="18" height="2"></rect></g></svg>