<svg xmlns="http://www.w3.org/2000/svg" viewBox="0 0 64 64" x="0px" y="0px"><title>Support-Headphone-Package-Call Center-Chat</title><g><path d="M38.8,38.4A1,1,0,0,0,38,38H26a1,1,0,0,0-.8.4l-3,4a1,1,0,0,0-.2.6V58a2,2,0,0,0,2,2H40a2,2,0,0,0,2-2V43a1,1,0,0,0-.2-.6ZM26.5,40h11L39,42H25ZM29,46H24V44h5Zm2-2h2v4.586l-.293-.293a1,1,0,0,0-1.414,0L31,48.586Zm4,0h5v2H35ZM24,58V48h5v3a1,1,0,0,0,1.707.707L32,50.414l1.293,1.293A1,1,0,0,0,35,51V48h5V58Z"></path><path d="M62,23V7a5.006,5.006,0,0,0-5-5H33a5.006,5.006,0,0,0-5,5v4H25A19.021,19.021,0,0,0,6,30V41.1A5.009,5.009,0,0,0,2,46v6a5.006,5.006,0,0,0,5,5H8.09A6,6,0,0,0,20,56V42a5.984,5.984,0,0,0-8-5.65V30A13.015,13.015,0,0,1,25,17h3v6a5.006,5.006,0,0,0,5,5h5v7a1,1,0,0,0,.684.949A1.019,1.019,0,0,0,39,36a1,1,0,0,0,.8-.4L45.5,28h6.329A13.136,13.136,0,0,1,52,30v6.35A5.984,5.984,0,0,0,44,42V56a6,6,0,0,0,11.91,1H57a5.006,5.006,0,0,0,5-5V46a5.009,5.009,0,0,0-4-4.9V30a18.584,18.584,0,0,0-.134-2.088A5,5,0,0,0,62,23ZM4,52V46a3,3,0,0,1,3-3H8V55H7A3,3,0,0,1,4,52ZM18,42V56a4,4,0,0,1-8,0V42a4,4,0,0,1,8,0Zm7-27A15.017,15.017,0,0,0,10,30v7.54A6,6,0,0,0,8.09,41H8V30A17.019,17.019,0,0,1,25,13h3v2ZM54,56a4,4,0,0,1-8,0V42a4,4,0,0,1,8,0Zm0-18.46V30a15.2,15.2,0,0,0-.148-2h2.011A16.634,16.634,0,0,1,56,30V41h-.09A6,6,0,0,0,54,37.54ZM60,46v6a3,3,0,0,1-3,3H56V43h1A3,3,0,0,1,60,46Zm0-23a3,3,0,0,1-3,3H45a1,1,0,0,0-.8.4L40,32V27a1,1,0,0,0-1-1H33a3,3,0,0,1-3-3V7a3,3,0,0,1,3-3H57a3,3,0,0,1,3,3Z"></path><rect x="34" y="8" width="2" height="2"></rect><rect x="38" y="8" width="2" height="2"></rect><rect x="42" y="8" width="14" height="2"></rect><rect x="34" y="12" width="14" height="2"></rect><rect x="50" y="12" width="2" height="2"></rect><rect x="54" y="12" width="2" height="2"></rect><rect x="34" y="16" width="22" height="2"></rect><rect x="34" y="20" width="8" height="2"></rect><rect x="44" y="20" width="2" height="2"></rect><rect x="48" y="20" width="2" height="2"></rect><rect x="52" y="20" width="4" height="2"></rect></g></svg>