<svg xmlns="http://www.w3.org/2000/svg" viewBox="0 0 64 64" x="0px" y="0px"><g><path d="M46,2H18a6.006,6.006,0,0,0-6,6V56a6.006,6.006,0,0,0,6,6H46a6.006,6.006,0,0,0,6-6V8A6.006,6.006,0,0,0,46,2Zm4,54a4,4,0,0,1-4,4H18a4,4,0,0,1-4-4V8a4,4,0,0,1,4-4H46a4,4,0,0,1,4,4Z"></path><path d="M34,52H30a3,3,0,0,0,0,6h4a3,3,0,0,0,0-6Zm0,4H30a1,1,0,0,1,0-2h4a1,1,0,0,1,0,2Z"></path><rect x="25" y="6" width="2" height="2"></rect><rect x="29" y="6" width="6" height="2"></rect><path d="M45,23H40V16a1,1,0,0,0-1-1H25a1,1,0,0,0-1,1v7H19a1,1,0,0,0-1,1V36a1,1,0,0,0,1,1h5v7a1,1,0,0,0,1,1H39a1,1,0,0,0,1-1V37h5a1,1,0,0,0,1-1V24A1,1,0,0,0,45,23ZM26,17H38v6H26Zm0,26V33H38V43Zm18-8H40V33h2V31H22v2h2v2H20V25H44Z"></path><rect x="28" y="39" width="8" height="2"></rect><rect x="28" y="35" width="8" height="2"></rect><rect x="38" y="27" width="2" height="2"></rect><rect x="34" y="27" width="2" height="2"></rect></g></svg>