<svg xmlns="http://www.w3.org/2000/svg" viewBox="0 0 64 64" x="0px" y="0px"><g><path d="M39,29H31a1,1,0,0,0-1,1V40a1,1,0,0,0,1,1h8a1,1,0,0,0,1-1V30A1,1,0,0,0,39,29ZM38,39H32V31h6Z"></path><path d="M58,45.816V10a1,1,0,0,0-1-1H13a1,1,0,0,0-1,1v3a8.009,8.009,0,0,0-8,8v4a1,1,0,0,0,1,1h7V46.851A3.273,3.273,0,0,1,9.5,48c-1.441,0-2.138-.743-3.019-1.684A5.758,5.758,0,0,0,2,44v2c1.44,0,2.137.743,3.019,1.684A5.757,5.757,0,0,0,9.5,50a5.758,5.758,0,0,0,4.478-2.316C14.856,46.743,15.553,46,16.994,46s2.137.743,3.019,1.684A5.758,5.758,0,0,0,24.491,50a5.76,5.76,0,0,0,4.479-2.316C29.852,46.743,30.549,46,31.99,46s2.14.743,3.022,1.684a5.49,5.49,0,0,0,8.959,0C44.853,46.743,45.55,46,46.991,46s2.14.743,3.023,1.684a5.495,5.495,0,0,0,8.964,0C59.86,46.743,60.558,46,62,46V44A5.308,5.308,0,0,0,58,45.816ZM36,21a6.006,6.006,0,0,1,6-6v9H36ZM14,11H42v2H14Zm-2,4H36.714a8,8,0,0,0-2.652,5H6.083A6.01,6.01,0,0,1,12,15ZM6,22H34v2H6ZM21.472,46.316A6.222,6.222,0,0,0,18,44.1V31h8V47.629A3.02,3.02,0,0,1,24.491,48C23.05,48,22.354,47.257,21.472,46.316ZM39.492,48c-1.442,0-2.139-.743-3.021-1.684A5.765,5.765,0,0,0,31.99,44,5.3,5.3,0,0,0,28,45.808V30a1,1,0,0,0-1-1H17a1,1,0,0,0-1,1V44.1a4.88,4.88,0,0,0-2,.854V26H42V46.847A3.278,3.278,0,0,1,39.492,48Zm11.981-1.684A5.767,5.767,0,0,0,46.991,44,4.939,4.939,0,0,0,44,44.948V11H56V47.633A3.028,3.028,0,0,1,54.5,48C53.052,48,52.355,47.257,51.473,46.316Z"></path><path d="M57.519,52.315C56.636,53.257,55.938,54,54.5,54s-2.14-.743-3.022-1.684a5.492,5.492,0,0,0-8.961,0C41.63,53.257,40.934,54,39.492,54s-2.139-.743-3.021-1.684a5.491,5.491,0,0,0-8.96,0c-.882.941-1.578,1.684-3.02,1.684s-2.137-.743-3.019-1.684A5.758,5.758,0,0,0,16.994,50a5.758,5.758,0,0,0-4.478,2.316C11.634,53.257,10.937,54,9.5,54s-2.138-.743-3.019-1.684A5.758,5.758,0,0,0,2,50v2c1.44,0,2.137.743,3.019,1.684A5.757,5.757,0,0,0,9.5,56a5.758,5.758,0,0,0,4.478-2.316C14.856,52.743,15.553,52,16.994,52s2.137.743,3.019,1.684A5.758,5.758,0,0,0,24.491,56a5.76,5.76,0,0,0,4.479-2.316C29.852,52.743,30.549,52,31.99,52s2.14.743,3.022,1.684a5.49,5.49,0,0,0,8.959,0C44.853,52.743,45.55,52,46.991,52s2.14.743,3.023,1.684a5.495,5.495,0,0,0,8.964,0C59.86,52.743,60.558,52,62,52V50A5.765,5.765,0,0,0,57.519,52.315Z"></path><path d="M57.519,58.315C56.636,59.257,55.938,60,54.5,60s-2.14-.743-3.022-1.684a5.492,5.492,0,0,0-8.961,0C41.63,59.257,40.934,60,39.492,60s-2.139-.743-3.021-1.684a5.491,5.491,0,0,0-8.96,0c-.882.941-1.578,1.684-3.02,1.684s-2.137-.743-3.019-1.684A5.758,5.758,0,0,0,16.994,56a5.758,5.758,0,0,0-4.478,2.316C11.634,59.257,10.937,60,9.5,60s-2.138-.743-3.019-1.684A5.758,5.758,0,0,0,2,56v2c1.44,0,2.137.743,3.019,1.684A5.757,5.757,0,0,0,9.5,62a5.758,5.758,0,0,0,4.478-2.316C14.856,58.743,15.553,58,16.994,58s2.137.743,3.019,1.684A5.758,5.758,0,0,0,24.491,62a5.76,5.76,0,0,0,4.479-2.316C29.852,58.743,30.549,58,31.99,58s2.14.743,3.022,1.684a5.49,5.49,0,0,0,8.959,0C44.853,58.743,45.55,58,46.991,58s2.14.743,3.023,1.684a5.495,5.495,0,0,0,8.964,0C59.86,58.743,60.558,58,62,58V56A5.765,5.765,0,0,0,57.519,58.315Z"></path></g></svg>