<svg xmlns="http://www.w3.org/2000/svg" viewBox="0 0 64 64" x="0px" y="0px"><g><path d="M55,8.277,54.234,7H50V5h3.034l-.6-1H43.566l-.6,1H46V7H41.766L41,8.277v2.39L43.8,14.4a1,1,0,0,1,.2.6v5.586l.414.414h1.172L47,19.586v-1.77A3,3,0,0,1,45,15h2a1,1,0,0,0,2,0h2a3,3,0,0,1-2,2.816v1.77L50.414,21h1.172L52,20.586V15a1,1,0,0,1,.2-.6L55,10.667ZM46,11H44V9h2Zm6,0H50V9h2Z"></path><path d="M57.434,20,60,15.723V8.414L57.586,6h-1.62l.891,1.485A1,1,0,0,1,57,8v3a1,1,0,0,1-.2.6l-2.366,3.154,2.121,1.414A1,1,0,0,1,57,17v3Z"></path><path d="M52,60V23H50.816a2.982,2.982,0,0,1-5.632,0H44v5a3,3,0,0,1-3,3H21.48L18,35.351V46a1,1,0,0,1-.071.371L16,51.192V60h2V51a1,1,0,0,1,.143-.515l3-5A1,1,0,0,1,22,45h1a1,1,0,0,0,1-1V40h2v2h6a1.02,1.02,0,0,1,.275.038l7,2A1,1,0,0,1,40,45V60h2V45a1,1,0,0,1,1-1h6a1,1,0,0,1,1,1V60Z"></path><path d="M24,46.816V59h2V50a1.006,1.006,0,0,1,.168-.555L28,46.7V44H26A3,3,0,0,1,24,46.816Z"></path><path d="M48.93,22.344l-.93-.93-.93.93a.987.987,0,0,0,1.86,0Z"></path><path d="M39.143,7.485,40.034,6h-1.62L36,8.414v7.309L38.566,20H39V18a1,1,0,0,1,.293-.707l2.387-2.387L39.2,11.6A1,1,0,0,1,39,11V8A1,1,0,0,1,39.143,7.485Z"></path><path d="M4,30.171V37a1,1,0,0,0,1,1H16V36H7a1,1,0,0,1-1-1V33A3.006,3.006,0,0,0,4,30.171Z"></path></g></svg>