<svg xmlns="http://www.w3.org/2000/svg" viewBox="0 0 64 64" x="0px" y="0px"><title>Stud-Football-Kick</title><g><path d="M61,2H41a1,1,0,0,0-1,1V42H35A13.015,13.015,0,0,0,22,55v4a1,1,0,0,0,1,1h1v2h2V60h4v2h2V60h4v2h2V60H54v2h2V60h2v2h2V60h1a1,1,0,0,0,1-1V45a2.954,2.954,0,0,0-.189-.985A2.95,2.95,0,0,0,62,43V3A1,1,0,0,0,61,2ZM59.692,43.717a1,1,0,0,1-.267.18c-.026.012-.052.023-.079.033A.975.975,0,0,1,59,44H43a1,1,0,0,1-1-1V16H60V43a.992.992,0,0,1-.276.681C59.713,43.693,59.7,43.706,59.692,43.717ZM42,10H60v4H42ZM60,4V8H42V4ZM28,46.535V47h2v-1.8a10.893,10.893,0,0,1,2-.785V47h2V44.048c.33-.03.663-.048,1-.048h1v3h2V44h2.171c.012.034.03.064.044.1.021.056.046.109.071.162a3.142,3.142,0,0,0,.176.323c.03.049.06.1.093.145a3.05,3.05,0,0,0,.276.335c.021.022.039.047.06.068a3.059,3.059,0,0,0,.4.333c.04.027.084.05.125.076a2.991,2.991,0,0,0,.339.184c.055.025.11.047.166.069a3.15,3.15,0,0,0,.361.113c.055.013.108.029.164.039A2.941,2.941,0,0,0,43,46H59a3.047,3.047,0,0,0,.568-.057c.049-.01.095-.026.143-.037.1-.024.2-.042.289-.075V54H24.045A10.978,10.978,0,0,1,28,46.535ZM60,58H24V56H60Z"></path><path d="M34,28A16,16,0,1,0,18,44,16.019,16.019,0,0,0,34,28Zm-4.527,8H25.479c-1.826-2.273-2.811-3.5-3.373-4.156l1.7-5.087,4.252-1.7,3.808,1.086A13.67,13.67,0,0,1,29.473,36Zm-1.694,2A14.039,14.039,0,0,1,26,39.473V38ZM15.721,31l-1.552-4.654L18,23.28l3.831,3.066L20.279,31ZM29.964,20.766a13.921,13.921,0,0,1,1.428,3.161l-2.156-.615Zm-1.5-2.034-1.291,4.521-4,1.6L19,21.519v-4.1l2.86-2.86A14.007,14.007,0,0,1,28.465,18.732ZM19.5,14.083l-1.5,1.5-1.5-1.5a13.632,13.632,0,0,1,3,0Zm-5.362.471L17,17.414v4.1l-4.17,3.336-4-1.6L7.535,18.732A14.007,14.007,0,0,1,14.14,14.554ZM6.764,23.312l-2.156.615a13.921,13.921,0,0,1,1.428-3.161Zm-2.626,2.83,3.808-1.086,4.252,1.7,1.691,5.072c-.552.652-1.533,1.876-3.37,4.171H6.527a13.67,13.67,0,0,1-2.389-9.858Zm6.406,13.686A13.99,13.99,0,0,1,8.221,38H10.18Zm2.271,1.165-.743-3.732c1.215-1.519,2.782-3.474,3.418-4.261H20.5c.644.794,2.272,2.817,3.5,4.352V40.63a13.837,13.837,0,0,1-11.185.363Z"></path><rect x="29" y="4" width="2" height="2"></rect><rect x="31" y="6" width="2" height="2"></rect><rect x="29" y="8" width="2" height="2"></rect><rect x="27" y="6" width="2" height="2"></rect><rect x="6" y="6" width="2" height="2"></rect><rect x="8" y="8" width="2" height="2"></rect><rect x="6" y="10" width="2" height="2"></rect><rect x="4" y="8" width="2" height="2"></rect><rect x="7" y="48" width="2" height="2"></rect><rect x="9" y="50" width="2" height="2"></rect><rect x="7" y="52" width="2" height="2"></rect><rect x="5" y="50" width="2" height="2"></rect></g></svg>