<svg xmlns="http://www.w3.org/2000/svg" viewBox="0 0 64 64" x="0px" y="0px"><g><polygon points="14 34 15 34 15 36 17 36 17 34 18 34 18 32 14 32 14 34"></polygon><path d="M53.985,35.34,53.118,29.7A1.986,1.986,0,0,0,51.142,28h-.326A2.947,2.947,0,0,0,49,24.184v-.465a6.98,6.98,0,0,0-5.351-6.8l-7.712-1.871,9.275-2.318A4.994,4.994,0,0,0,49,7.877V7a5.006,5.006,0,0,0-5-5H19a5.006,5.006,0,0,0-5,5v.854a4.987,4.987,0,0,0,3.822,4.859l9.749,2.364L20.3,16.894A6.99,6.99,0,0,0,15,23.685v.5A2.947,2.947,0,0,0,13.184,28h-.326a1.986,1.986,0,0,0-1.976,1.7l-.867,5.644a14.005,14.005,0,1,0,11.971,0L21.118,29.7A1.986,1.986,0,0,0,19.142,28h-.326A2.947,2.947,0,0,0,17,24.184v-.5a4.994,4.994,0,0,1,3.787-4.851l10.971-2.743L43.179,18.86A4.987,4.987,0,0,1,47,23.719v.465A2.947,2.947,0,0,0,45.184,28h-.326a1.986,1.986,0,0,0-1.976,1.7l-.868,5.645a14,14,0,1,0,11.971,0ZM8,48a8,8,0,1,1,8,8A8.009,8.009,0,0,1,8,48ZM4,48A11.984,11.984,0,0,1,9.63,37.826L9.183,40.7a9.961,9.961,0,0,0-.921,13.62L6.848,55.738A12.008,12.008,0,0,1,4,48ZM20.092,36.182a1,1,0,0,0,.6.768,12,12,0,0,1-3.279,22.97,11.911,11.911,0,0,1-9.15-2.766l1.416-1.416A10,10,0,1,0,11.454,39.1l1.4-9.1h6.284ZM15,27a1,1,0,1,1,1,1A1,1,0,0,1,15,27ZM31.75,14.032,18.293,10.77A2.993,2.993,0,0,1,16,7.854V7a3,3,0,0,1,3-3H44a3,3,0,0,1,3,3v.877a3,3,0,0,1-2.272,2.91ZM48,56a8,8,0,1,1,8-8A8.009,8.009,0,0,1,48,56ZM47,27a1,1,0,1,1,1,1A1,1,0,0,1,47,27Zm-.409,32.92a12,12,0,0,1-3.279-22.97,1,1,0,0,0,.6-.768L44.858,30h6.284l1.4,9.1a10,10,0,1,0,1.779,16.634l1.416,1.416A11.909,11.909,0,0,1,46.591,59.92Zm10.561-4.182-1.414-1.414a9.961,9.961,0,0,0-.921-13.62l-.447-2.878a11.979,11.979,0,0,1,2.782,17.912Z"></path><polygon points="47 36 49 36 49 34 50 34 50 32 46 32 46 34 47 34 47 36"></polygon></g></svg>