<svg xmlns="http://www.w3.org/2000/svg" viewBox="0 0 64 64" x="0px" y="0px"><g data-name="Dashboard-Smartphone-Speed-Meter-Internet Speed"><path d="M46,2H18a6.006,6.006,0,0,0-6,6V56a6.006,6.006,0,0,0,6,6H46a6.006,6.006,0,0,0,6-6V8A6.006,6.006,0,0,0,46,2Zm4,54a4,4,0,0,1-4,4H18a4,4,0,0,1-4-4V8a4,4,0,0,1,4-4H46a4,4,0,0,1,4,4Z"></path><path d="M34,52H30a3,3,0,0,0,0,6h4a3,3,0,0,0,0-6Zm0,4H30a1,1,0,0,1,0-2h4a1,1,0,0,1,0,2Z"></path><rect x="25" y="6" width="2" height="2"></rect><rect x="29" y="6" width="6" height="2"></rect><path d="M32,12A16.019,16.019,0,0,0,16,28a1,1,0,0,0,1,1h8a1,1,0,0,0,1-1,5.984,5.984,0,0,1,8.088-5.618L31.134,27.5l1.732,1,2.957-5.121A5.991,5.991,0,0,1,38,28a1,1,0,0,0,1,1h8a1,1,0,0,0,1-1A16.019,16.019,0,0,0,32,12Zm7.938,15a8,8,0,0,0-3.107-5.368l2.035-3.524-1.732-1L35.1,20.632A7.985,7.985,0,0,0,24.062,27H18.035a13.94,13.94,0,0,1,3.393-8.157l1.38,1.379,1.414-1.414-1.375-1.375A13.929,13.929,0,0,1,31,14.048V16h2V14.048a13.929,13.929,0,0,1,8.153,3.385l-1.375,1.375,1.414,1.414,1.38-1.379A13.94,13.94,0,0,1,45.965,27Z"></path><path d="M46.707,35.707l-1.414-1.414L43.586,36H36.414l-1.707-1.707-1.414,1.414L35,37.414v7.172l-1.707,1.707,1.414,1.414L36.414,46h7.172l1.707,1.707,1.414-1.414L45,44.586V37.414ZM41.586,38,40,39.586,38.414,38ZM37,39.414,38.586,41,37,42.586ZM38.414,44,40,42.414,41.586,44ZM43,42.586,41.414,41,43,39.414Z"></path><rect x="22" y="38" width="8" height="2"></rect><rect x="18" y="42" width="12" height="2"></rect><rect x="18" y="38" width="2" height="2"></rect></g></svg>