<svg xmlns="http://www.w3.org/2000/svg" viewBox="0 0 64 64" x="0px" y="0px"><g><path d="M36,16a6,6,0,1,0,6,6A6.006,6.006,0,0,0,36,16Zm4,6a3.947,3.947,0,0,1-.567,2.019L37,21.586V18.142A4,4,0,0,1,40,22Zm-8,0a4,4,0,0,1,3-3.858V22a1,1,0,0,0,.293.707l2.726,2.726A3.947,3.947,0,0,1,36,26,4,4,0,0,1,32,22Z"></path><path d="M62.181,39.1a4.007,4.007,0,0,0-5.122-2.39l-9.266,3.371a3.746,3.746,0,0,0-.564-1.3,4.006,4.006,0,0,0-2.585-1.652l-1.051-.185A3,3,0,0,0,46,34V32h9a3,3,0,0,0,3-3V15.243l1.851-1.85a2.987,2.987,0,0,0-1.945-5.1A3,3,0,0,0,55,6H52V5a3,3,0,0,0-3-3H23a3,3,0,0,0-3,3v6H17a3,3,0,0,0-3,3V34a3,3,0,0,0,3,3h5.064a20.671,20.671,0,0,0-3.307,1.881l-3.138,2.2-1.147-1.639a1,1,0,0,0-1.393-.246L3.25,46.074A1,1,0,0,0,3,47.467L13.328,62.212a1,1,0,0,0,1.393.246l9.829-6.883a1,1,0,0,0,.246-1.393l-.568-.812a8.913,8.913,0,0,1,6.6-1.414l1.785.308a12.977,12.977,0,0,0,6.707-.584L59.79,44.23a4,4,0,0,0,2.391-5.13ZM56,29a1,1,0,0,1-1,1H29a1,1,0,0,1-1-1V14H50.757l-5.05,5.05a1.011,1.011,0,0,0-.241.391l-1.414,4.243A1,1,0,0,0,45,25a1.014,1.014,0,0,0,.316-.051l4.243-1.414a1,1,0,0,0,.39-.242L56,17.243Zm2.436-17.021L48.7,21.712l-2.121.707.707-2.122,9.733-9.732a1,1,0,0,1,1.415,1.414ZM55.97,8.854a3.07,3.07,0,0,0-.364.3L52.757,12H28V9a1,1,0,0,1,1-1H55A.988.988,0,0,1,55.97,8.854ZM22,5a1,1,0,0,1,1-1H49a1,1,0,0,1,1,1V6H29a3,3,0,0,0-3,3v2H22Zm-5,8h9v4H16V14A1,1,0,0,1,17,13ZM16,34V19H26V29a3,3,0,0,0,3,3H44v2a1,1,0,0,1-1,1H17A1,1,0,0,1,16,34ZM14.393,60.246,5.216,47.139,13.407,41.4,22.584,54.51Zm46-19.428a1.97,1.97,0,0,1-1.287,1.532L38.639,49.8a10.994,10.994,0,0,1-5.678.494l-1.787-.309a10.913,10.913,0,0,0-8.093,1.747l-6.315-9.018,3.139-2.2a18.93,18.93,0,0,1,5.312-2.6l.184-.05a19.041,19.041,0,0,1,8.845-.542L44.29,39.094a2.017,2.017,0,0,1,1.3.826,1.889,1.889,0,0,1,.327.857,1.719,1.719,0,0,1-.042.844,2,2,0,0,1-2.29,1.414l-10.811-1.91-.347,1.97L43.235,45a4.011,4.011,0,0,0,4.542-2.788l9.961-3.625a2,2,0,0,1,2.565,1.2A1.964,1.964,0,0,1,60.4,40.818Z"></path></g></svg>