<svg xmlns="http://www.w3.org/2000/svg" viewBox="0 0 64 64" x="0px" y="0px"><g data-name="Coffee Cup-Coffee-Take Away-Drink-Hand"><path d="M53.62,30A3.985,3.985,0,0,0,51,23H49.81l.17-7H50a2.006,2.006,0,0,0,2-2V10a2.006,2.006,0,0,0-2-2h-.15l-.72-4.33A2.007,2.007,0,0,0,47.15,2H16.85a2.007,2.007,0,0,0-1.98,1.67L14.15,8H14a2.006,2.006,0,0,0-2,2v4a2.006,2.006,0,0,0,2,2h.02l.06,2.6A3.954,3.954,0,0,0,12,18H9a1,1,0,0,0-1,1V50.59l-6.71,6.7,1.42,1.42,7-7A1.033,1.033,0,0,0,10,51V20h2a2.006,2.006,0,0,1,2,2v8a1,1,0,0,0,.14.51l.51.84A16.54,16.54,0,0,1,17,39.85a16.632,16.632,0,0,1-3.62,10.33l-.16.2,1.56,1.24.09-.1.08,3.56a3.026,3.026,0,0,0,3,2.92H33.59l-3.3,3.29,1.42,1.42L36.41,58h9.64a3.028,3.028,0,0,0,3-2.93L49.2,49H51a3.985,3.985,0,0,0,2.62-7,3.951,3.951,0,0,0,0-6,3.951,3.951,0,0,0,0-6ZM16.85,4h30.3l.67,4H16.18ZM14,14V10H50v4ZM47.05,55.02a1.006,1.006,0,0,1-1,.98H17.95a1,1,0,0,1-1-.97l-.15-6.44A18.548,18.548,0,0,0,19,39.85a18.484,18.484,0,0,0-2.64-9.52L16.02,16H47.98l-.17,7H47a3.985,3.985,0,0,0-2.62,7,3.951,3.951,0,0,0,0,6,3.951,3.951,0,0,0,0,6A3.985,3.985,0,0,0,47,49h.2ZM51,47H47a2,2,0,0,1,0-4h4a2,2,0,0,1,0,4Zm0-6H47a2,2,0,0,1,0-4h4a2,2,0,0,1,0,4Zm0-6H47a2,2,0,0,1,0-4h4a2,2,0,0,1,0,4Zm0-6H47a2,2,0,0,1,0-4h4a2,2,0,0,1,0,4Z"></path><path d="M32,24c-4.963,0-9,4.486-9,10s4.037,10,9,10,9-4.486,9-10S36.963,24,32,24ZM25,34c0-3.794,2.325-6.972,5.43-7.79A5.534,5.534,0,0,0,29,30a6.192,6.192,0,0,0,2.293,4.707C32.247,35.661,33,36.414,33,38s-.749,2.332-1.7,3.282c-.188.189-.364.39-.546.584C27.49,41.193,25,37.926,25,34Zm8.57,7.79A5.534,5.534,0,0,0,35,38a6.192,6.192,0,0,0-2.293-4.707C31.753,32.339,31,31.586,31,30s.749-2.332,1.7-3.282c.188-.189.364-.39.546-.584C36.51,26.807,39,30.074,39,34,39,37.794,36.675,40.972,33.57,41.79Z"></path></g></svg>