<svg xmlns="http://www.w3.org/2000/svg" viewBox="0 0 64 64" x="0px" y="0px"><g><path d="M3.84,14.37l2.59,9.66,15.45-4.15-.52-1.93-4.83,1.3a1,1,0,0,1-1.22-.71l-1.04-3.86a1.008,1.008,0,0,1,.71-1.23l4.83-1.29-.52-1.94Z"></path><polygon points="20 25 20 22.46 18 22.99 18 25 20 25"></polygon><polygon points="21 40.87 21 37 15 37 15 40.12 21 40.87"></polygon><path d="M40,47a5,5,0,0,0,5-5V38a3.009,3.009,0,0,0-3-3H26a3.009,3.009,0,0,0-3,3v4a5,5,0,0,0,5,5Zm-1-5h2v2H39Zm-4,1h2v2H35Zm-4,0h2v2H31Zm-4-1h2v2H27Z"></path><path d="M45,38v4a5,5,0,0,1-5,5H28a5,5,0,0,1-5-5V38a3.009,3.009,0,0,1,3-3H42A3.009,3.009,0,0,1,45,38Z"></path><path d="M26.28,18.85,22.73,25H25c.01,0,.02.01.03.01l1.56-2.71a2.959,2.959,0,0,0,.31-2.27A3.043,3.043,0,0,0,26.28,18.85Z"></path><path d="M18.17,31A3.014,3.014,0,0,0,21,33h4.83A3.014,3.014,0,0,0,23,31Z"></path><polygon points="53 40.12 53 37 47 37 47 40.87 53 40.12"></polygon><path d="M47,33a3.014,3.014,0,0,0,2.83-2H45a3.014,3.014,0,0,0-2.83,2Z"></path><path d="M44.71,10.22l-.52,1.94,4.83,1.29a1.026,1.026,0,0,1,.61.47,1.055,1.055,0,0,1,.1.76l-1.04,3.86a1,1,0,0,1-1.22.71l-4.83-1.3-.52,1.93,15.45,4.15,2.59-9.66Z"></path><path d="M44,28a1,1,0,0,0,1,1h5V27H44Z"></path><path d="M41.15,21.69a2.49,2.49,0,0,0,.26.61l1.56,2.71c.01,0,.02-.01.03-.01h2.27l-1.51-2.61Z"></path><polygon points="48 25 50 25 50 24.07 48 23.53 48 25"></polygon><path d="M24,28V27H18v2h5A1,1,0,0,0,24,28Z"></path><circle cx="37" cy="28" r="1"></circle><circle cx="31" cy="28" r="1"></circle><rect x="30" y="31" width="2" height="2"></rect><rect x="36" y="31" width="2" height="2"></rect><path d="M59,42v4H57V42.41l-2-1.99V37.58l3.71,3.71A1.033,1.033,0,0,1,59,42Z"></path><path d="M55,48v3H53V48.41L50.59,46H45.74a6.87,6.87,0,0,0,.97-2H51a1.033,1.033,0,0,1,.71.29l3,3A1.033,1.033,0,0,1,55,48Z"></path><path d="M51,52v3H49V52.3l-1.58-2.36L40,49a6.908,6.908,0,0,0,4.28-1.47l3.84.48a.958.958,0,0,1,.71.44l2,3A.967.967,0,0,1,51,52Z"></path><path d="M13,37.58v2.84l-2,1.99V46H9V42a1.033,1.033,0,0,1,.29-.71Z"></path><path d="M22.26,46H17.41L15,48.41V51H13V48a1.033,1.033,0,0,1,.29-.71l3-3A1.033,1.033,0,0,1,17,44h4.29A6.87,6.87,0,0,0,22.26,46Z"></path><path d="M28,49l-7.42.94L19,52.3V55H17V52a.967.967,0,0,1,.17-.55l2-3a.958.958,0,0,1,.71-.44l3.84-.48A6.908,6.908,0,0,0,28,49Z"></path></g></svg>