<svg xmlns="http://www.w3.org/2000/svg" viewBox="0 0 64 64" x="0px" y="0px"><g><rect x="28" y="18" width="2" height="2"></rect><rect x="32" y="18" width="2" height="2"></rect><rect x="24" y="18" width="2" height="2"></rect><path d="M21.105,53.447a1,1,0,0,0,1.79,0l2-4A1,1,0,0,0,25,49V24a2,2,0,0,0-2-2H21a2,2,0,0,0-2,2V49a1,1,0,0,0,.105.447ZM22,50.764l-1-2V30h2V48.764ZM23,24v4H21V24Z"></path><path d="M51,38H35a2,2,0,0,0-2,2V56a2,2,0,0,0,2,2H51a2,2,0,0,0,2-2V40A2,2,0,0,0,51,38Zm0,6H47V40h4ZM41,50V46h4v4Zm4,2v4H41V52Zm-6-2H35V46h4Zm2-6V40h4v4Zm6,2h4v4H47Zm-8-6v4H35V40ZM35,52h4v4H35Zm12,4V52h4v4Z"></path><path d="M54,24H51V13a5.006,5.006,0,0,0-5-5H42V7a1,1,0,0,0-1-1H31.816A2.966,2.966,0,0,0,32,5a3,3,0,0,0-6,0,2.966,2.966,0,0,0,.184,1H17a1,1,0,0,0-1,1V8H12a5.006,5.006,0,0,0-5,5V57a5.006,5.006,0,0,0,5,5H54a3,3,0,0,0,3-3V27A3,3,0,0,0,54,24ZM46,10a3,3,0,0,1,3,3V24H47V15a3,3,0,0,0-3-3H42V10ZM28,5a1,1,0,1,1,1,1A1,1,0,0,1,28,5ZM18,8H40v5a1,1,0,0,1-1,1H19a1,1,0,0,1-1-1Zm1,8H39a3,3,0,0,0,2.816-2H44a1,1,0,0,1,1,1v9H32a3,3,0,0,0-3,3V56H14a1,1,0,0,1-1-1V15a1,1,0,0,1,1-1h2.184A3,3,0,0,0,19,16ZM9,57V13a3,3,0,0,1,3-3h4v2H14a3,3,0,0,0-3,3V55a3,3,0,0,0,3,3H29v1a2.966,2.966,0,0,0,.184,1H12A3,3,0,0,1,9,57Zm46,2a1,1,0,0,1-1,1H32a1,1,0,0,1-1-1V27a1,1,0,0,1,1-1H54a1,1,0,0,1,1,1Z"></path><path d="M52,28H34a1,1,0,0,0-1,1v6a1,1,0,0,0,1,1H52a1,1,0,0,0,1-1V29A1,1,0,0,0,52,28Zm-1,6H35V30H51Z"></path></g></svg>