<svg xmlns="http://www.w3.org/2000/svg" viewBox="0 0 64 64" x="0px" y="0px"><g data-name="Washing Hands-Hygiene-Hand Sanitizer-Finger-Cleaning"><circle cx="28" cy="52" r="2"></circle><circle cx="5" cy="18" r="2"></circle><circle cx="10" cy="5" r="2"></circle><circle cx="54" cy="15" r="2"></circle><polygon points="61 42.52 61 56.67 56.85 60.82 49.78 53.75 61 42.52"></polygon><path d="M24,32a1.924,1.924,0,0,0,.95-.25l-.98-.98a3.489,3.489,0,0,1,0-4.95,3.445,3.445,0,0,1,1.3-.83l-.59-.59a3.5,3.5,0,0,1,0-4.95,3.6,3.6,0,0,1,1.2-.78,2.931,2.931,0,0,0-1.75-.66.875.875,0,0,1-.16-.02A3.018,3.018,0,0,0,21,21a2.949,2.949,0,0,0,.11.74.97.97,0,0,1-.16.87,1.014,1.014,0,0,1-.8.4c-.03,0-.14-.01-.17-.01a3,3,0,1,0,.76,5.89.97.97,0,0,1,.87.16,1.014,1.014,0,0,1,.4.8c0,.03-.01.14-.01.17A2,2,0,0,0,24,32Z"></path><path d="M33.79,15.86a5.049,5.049,0,0,1,1.88,2.37l6.24-6.24a1.5,1.5,0,1,0-2.12-2.12L36.96,12.7Z"></path><path d="M59.68,41.02,57.56,38.9a.883.883,0,0,1-.24-.39l-1.34-4.02L41.65,20.16a1.528,1.528,0,0,0-2.12,0,1.5,1.5,0,0,0,0,2.12l5.3,5.31a1,1,0,0,1,0,1.41,1.008,1.008,0,0,1-1.42,0l-8.83-8.84a1.54,1.54,0,0,0-2.13,0,1.5,1.5,0,0,0-.02,2.1l8.86,8.86a1.008,1.008,0,0,1,0,1.42,1,1,0,0,1-1.41,0L31.04,23.7l-.03-.03-2.8-2.8a1.5,1.5,0,1,0-2.12,2.12L37.76,34.66a1,1,0,0,1-1.42,1.41L27.5,27.23a1.538,1.538,0,0,0-2.12,0,1.516,1.516,0,0,0-.44,1.06,1.5,1.5,0,0,0,.44,1.06L37.05,41.02a1,1,0,0,1-.97,1.67l-5.31-1.42a1.5,1.5,0,1,0-.77,2.9l17.54,4.7a.937.937,0,0,1,.45.26l1.79,1.79Z"></path><path d="M26.11,16.48a4.336,4.336,0,0,1,.9.53A5,5,0,0,1,31,15a4.772,4.772,0,0,1,.76.06l3.78-3.78a1.473,1.473,0,0,0,0-2.12,1.535,1.535,0,0,0-2.11-.01Z"></path><path d="M20.01,38.12a1.132,1.132,0,0,1,.45-.26l8.36-2.24-2.43-2.43A3.959,3.959,0,0,1,24,34a4,4,0,0,1-3.87-3A5,5,0,0,1,19,21.1V21a4.991,4.991,0,0,1,4.73-4.97l4.74-4.75a1.473,1.473,0,0,0,0-2.12,1.516,1.516,0,0,0-2.11,0L12.02,23.49l-1.33,4.02a1.058,1.058,0,0,1-.24.39L8.32,30.02l9.9,9.9Z"></path><path d="M37.29,20.05a3.421,3.421,0,0,1,.82-1.3,3.594,3.594,0,0,1,4.48-.38l.02-.02a1.42,1.42,0,0,0,.44-1.06,1.466,1.466,0,0,0-.43-1.05,1.528,1.528,0,0,0-2.12,0l-3.52,3.5Z"></path><path d="M28.34,18.65a3.573,3.573,0,0,1,1.29.8l.59.59a3.462,3.462,0,0,1,.82-1.29,3.419,3.419,0,0,1,1.97-.95,2.962,2.962,0,0,0-1.19-.69A3.181,3.181,0,0,0,31,17,3,3,0,0,0,28.34,18.65Z"></path><polygon points="18.22 42.75 3 57.97 3 32.51 5.49 30.02 18.22 42.75"></polygon></g></svg>