<svg xmlns="http://www.w3.org/2000/svg" viewBox="0 0 64 64" x="0px" y="0px"><g><path d="M46,24v1a2,2,0,0,0,0-4Z"></path><path d="M43.8,4H17.041a11.916,11.916,0,0,0,3.476,7.483A11.92,11.92,0,0,0,29,15c.1,0,9.635-.049,13.293-3.707a1,1,0,0,1,1.546.162A14.023,14.023,0,0,1,46,17.991v0h0V19c.068,0,.132.017.2.02l.593-11.87A3.008,3.008,0,0,0,43.8,4Z"></path><path d="M18,25V21a2,2,0,0,0,0,4Z"></path><path d="M37,37.061a13.782,13.782,0,0,1-10,0V40a5,5,0,0,0,10,0Z"></path><path d="M27,44.889V60H37V44.889a6.977,6.977,0,0,1-10,0Z"></path><path d="M44,24V18.006a10.579,10.579,0,0,0-1.276-4.459C38.09,16.958,29.4,17,29,17a13.882,13.882,0,0,1-8.387-2.791A11.963,11.963,0,0,0,20,18v6a12,12,0,0,0,24,0ZM29,20h2v4a1,1,0,0,0,2,0V20h2v4a3,3,0,0,1-6,0Zm-4,1a1,1,0,0,0-1,1H22a3,3,0,0,1,6,0H26A1,1,0,0,0,25,21Zm7,11a7.9,7.9,0,0,1-5.953-2.345l1.511-1.31A5.992,5.992,0,0,0,32,30a5.992,5.992,0,0,0,4.442-1.655l1.511,1.31A7.9,7.9,0,0,1,32,32Zm7-11a1,1,0,0,0-1,1H36a3,3,0,0,1,6,0H40A1,1,0,0,0,39,21Z"></path><path d="M17.36,11a1,1,0,0,0-.765.357.978.978,0,0,0-.22.8l1.152,6.888A3.886,3.886,0,0,1,18,19V18a13.948,13.948,0,0,1,1-5.2A14.17,14.17,0,0,1,17.527,11Z"></path><path d="M56,54.25a10.989,10.989,0,0,0-8.2-10.632l-4.455-1.175L44.9,45.554a1,1,0,0,1-.188,1.153L42.57,48.845l1.985,1.323a1,1,0,0,1,.4,1.119L42.344,60H56Z"></path><path d="M42.83,51.422l-2.385-1.59a1,1,0,0,1-.152-1.539L42.784,45.8l-2.015-4.038L39,41.3V60h1.256Z"></path><path d="M8,60H21.656l-2.614-8.713a1,1,0,0,1,.4-1.119l1.985-1.323-2.137-2.138a1,1,0,0,1-.188-1.153l1.553-3.111L16.2,43.617A10.99,10.99,0,0,0,8,54.25Z"></path><path d="M25,60V41.3l-1.769.466L21.216,45.8l2.491,2.491a1,1,0,0,1-.152,1.539l-2.385,1.59L23.744,60Z"></path></g></svg>