<svg xmlns="http://www.w3.org/2000/svg" viewBox="0 0 64 64" x="0px" y="0px"><title>Toilet_1</title><g data-name="Toilet"><path d="M52,11V5H35V2H29V5H12v6h2V31H12v6h5v3a14.967,14.967,0,0,0,5.9,11.9L22.1,60H18v2H46V60H41.905L41.1,51.9A14.967,14.967,0,0,0,47,40V37h5V31H50V11ZM31,4h2V5H31ZM14,7H50V9H14ZM39.9,60H24.1l.682-6.855a14.955,14.955,0,0,0,14.428,0ZM45,40a13,13,0,0,1-26,0V37H45Zm5-5H14V33H50Zm-5-4H44V26a12,12,0,0,0-24,0v5H19V26a13,13,0,0,1,26,0Zm-3,0H22V26a10,10,0,0,1,20,0Zm6,0H47V26a15,15,0,0,0-30,0v5H16V11H48Z"></path><rect x="41" y="39" width="2" height="2"></rect><rect x="41" y="42" width="2" height="2"></rect><rect x="38" y="39" width="2" height="2"></rect></g></svg>