<svg xmlns="http://www.w3.org/2000/svg" viewBox="0 0 64 64" x="0px" y="0px"><g><rect x="31" y="50" width="2" height="2"></rect><rect x="31" y="42" width="2" height="2"></rect><rect x="31" y="46" width="2" height="2"></rect><rect x="31" y="20" width="2" height="20"></rect><rect x="30" y="16" width="4" height="2"></rect><rect x="31" y="54" width="2" height="2"></rect><path d="M46,13V12H18v1a1,1,0,0,0,1,1H45A1,1,0,0,0,46,13Z"></path><rect x="18" y="9" width="28" height="1"></rect><path d="M31,59a1,1,0,0,0,2,0V58H31Z"></path><rect x="31" y="3" width="2" height="4"></rect><rect x="36" y="3" width="2" height="4"></rect><rect x="41" y="3" width="2" height="4"></rect><rect x="46" y="3" width="2" height="4"></rect><rect x="31" y="3" width="2" height="4"></rect><rect x="26" y="3" width="2" height="4"></rect><rect x="21" y="3" width="2" height="4"></rect><rect x="16" y="3" width="2" height="4"></rect></g></svg>