<svg xmlns="http://www.w3.org/2000/svg" viewBox="0 0 64 64" x="0px" y="0px"><g><path d="M4,56a4,4,0,0,0,4,4H24V58H20a3,3,0,0,1-3-3,3.009,3.009,0,0,1,3-3h4V47a2.942,2.942,0,0,1,.4-1.47A3,3,0,0,1,26,40a2.918,2.918,0,0,1,1.62.49l1.42-3.79.8-3.18A1.99,1.99,0,0,1,31.78,32H37V29a1,1,0,0,1,1-1h2V8a4,4,0,0,0-4-4H8A4,4,0,0,0,4,8ZM19,6h6V8H19ZM15,6h2V8H15Zm4,4A13,13,0,1,1,6,23,13.015,13.015,0,0,1,19,10Z"></path><rect x="39" y="30" width="8" height="2"></rect><path d="M32,60h4a4.017,4.017,0,0,0,3.46-2H32Z"></path><path d="M19,34A11,11,0,1,0,8,23,11.013,11.013,0,0,0,19,34ZM18,15a1.994,1.994,0,0,1,1,3.722v1.234h3v2H19V24h4a1,1,0,0,1,.707.293l3,3-1.414,1.414L22.586,26H18a1,1,0,0,1-1-1V18.722A1.994,1.994,0,0,1,18,15Zm-3.6,6.2,1.2,1.6a4,4,0,1,0,6.066,4.8l1.833.8a6,6,0,1,1-9.1-7.2Z"></path><circle cx="31" cy="51" r="1"></circle><path d="M60,55V47a1,1,0,0,0-1-1H27a1,1,0,0,0-1,1v8a.884.884,0,0,0,.24.63A.951.951,0,0,0,27,56H59A1,1,0,0,0,60,55ZM31,54a3,3,0,1,1,3-3A3,3,0,0,1,31,54Zm17,0H38V52H48Zm0-4H38V48H48Zm7,4a3,3,0,1,1,3-3A3,3,0,0,1,55,54Z"></path><path d="M39.86,44h17.7l-2.25-6H30.69l-2.25,6h3.7a3.983,3.983,0,0,1,7.72,0Z"></path><circle cx="55" cy="51" r="1"></circle><path d="M34.28,44h3.44a1.979,1.979,0,0,0-3.44,0Z"></path><path d="M60,57.82A3,3,0,0,1,59,58H56v2h4Z"></path><path d="M19,55a.928.928,0,0,0,.29.69A.949.949,0,0,0,20,56h4V54H20A1,1,0,0,0,19,55Z"></path><path d="M30,58H27a3.06,3.06,0,0,1-1-.19V60h4Z"></path><polygon points="31.78 34 31.28 36 54.72 36 54.22 34 31.78 34"></polygon><path d="M61,43a1,1,0,0,0-1-1,.973.973,0,0,0-.86.51l.53,1.43A.96.96,0,0,0,60,44,1,1,0,0,0,61,43Z"></path><path d="M25,43a1,1,0,0,0,1,1,.96.96,0,0,0,.33-.06l.53-1.43A.973.973,0,0,0,26,42,1,1,0,0,0,25,43Z"></path></g></svg>