<svg xmlns="http://www.w3.org/2000/svg" viewBox="0 0 64 64" x="0px" y="0px"><g><path d="M59,9a5.006,5.006,0,0,0-5-5H30a5.006,5.006,0,0,0-5,5V33.892a2.99,2.99,0,0,1,1.625,5.582l2.5,4.33a3.005,3.005,0,0,1-1.1,4.1h0a2.979,2.979,0,0,1-1.494.4A3.01,3.01,0,0,1,25,47.877V55a5.006,5.006,0,0,0,5,5H54a5.006,5.006,0,0,0,5-5ZM37,6H47V8H37ZM33,6h2V8H33ZM29,6h2V8H29ZM27.554,31.67l-1.931-.517,1.1-4.1,1.931.517Zm2.4,3.572-1-1.733,3.463-2,1,1.733ZM34.428,40.4l-4.1-1.1.517-1.932,4.1,1.1ZM44,58H40a3,3,0,0,1,0-6h4a3,3,0,0,1,0,6ZM42,37A10,10,0,1,1,52,27,10.011,10.011,0,0,1,42,37Z"></path><path d="M42,19a8,8,0,1,0,8,8A8.009,8.009,0,0,0,42,19Zm-1,7h2a3,3,0,0,1,0,6v1H41V32a3,3,0,0,1-3-3h2a1,1,0,0,0,1,1h2a1,1,0,0,0,0-2H41a3,3,0,0,1,0-6V21h2v1a3,3,0,0,1,3,3H44a1,1,0,0,0-1-1H41a1,1,0,0,0,0,2Z"></path><path d="M44,54H40a1,1,0,0,0,0,2h4a1,1,0,0,0,0-2Z"></path><path d="M16.036,57.134l1.732-1a1,1,0,0,0,.366-1.366l-3.461-5.995-.205.029-3.3,1.9,3.5,6.062A1,1,0,0,0,16.036,57.134Z"></path><rect x="9.402" y="42.376" width="1.999" height="6" transform="translate(-21.294 11.28) rotate(-30)"></rect><path d="M27.026,46.17a1,1,0,0,0,.366-1.366l-8-13.857a1,1,0,0,0-1.731,1l8,13.857A1,1,0,0,0,27.026,46.17Z"></path><polygon points="23.19 45.525 16.667 34.226 11.338 40.998 14.661 46.753 23.19 45.525"></polygon><path d="M8.438,49.974l.866-.5-3-5.2-.866.5a1,1,0,0,0-.366,1.366l2,3.464A1,1,0,0,0,8.438,49.974Z"></path><path d="M25.99,36.375a1,1,0,0,0-1.365-.365l1,1.732h0A1,1,0,0,0,25.99,36.375Z"></path></g></svg>