<svg xmlns="http://www.w3.org/2000/svg" viewBox="0 0 64 64" x="0px" y="0px"><title>Coffee Pot_2</title><g data-name="Coffee Pot"><rect x="31" y="24" width="2" height="2"></rect><rect x="35" y="24" width="2" height="2"></rect><rect x="27" y="24" width="2" height="2"></rect><rect x="31" y="28" width="2" height="2"></rect><rect x="35" y="28" width="2" height="2"></rect><rect x="27" y="28" width="2" height="2"></rect><rect x="31" y="32" width="2" height="2"></rect><rect x="35" y="32" width="2" height="2"></rect><rect x="27" y="32" width="2" height="2"></rect><rect x="31" y="36" width="2" height="2"></rect><rect x="35" y="36" width="2" height="2"></rect><rect x="27" y="36" width="2" height="2"></rect><path d="M56,20H49V15a9.01,9.01,0,0,0-9-9H36V3a1,1,0,0,0-1-1H29a1,1,0,0,0-1,1V6H24a9.01,9.01,0,0,0-9,9v5H8a1,1,0,0,0-.832,1.555L15,33.3V61a1,1,0,0,0,1,1H48a1,1,0,0,0,1-1V38h7a1,1,0,0,0,1-1V21A1,1,0,0,0,56,20ZM47,47.584a6.554,6.554,0,0,1-1.831-.513,9.336,9.336,0,0,0-7.147,0,7.326,7.326,0,0,1-5.659,0,8.4,8.4,0,0,0-3.571-.712,8.4,8.4,0,0,0-3.569.712,6.453,6.453,0,0,1-2.826.568,6.457,6.457,0,0,1-2.826-.568A8.368,8.368,0,0,0,17,46.408V22h6V41a1,1,0,0,0,1,1H40a1,1,0,0,0,1-1V22h6ZM47,20H17V16H47ZM25,22H39V40H25ZM30,4h4V6H30ZM24,8H40a7.011,7.011,0,0,1,6.929,6H17.071A7.011,7.011,0,0,1,24,8ZM9.868,22H15v7.7ZM17,60V48.416a6.576,6.576,0,0,1,1.828.513,8.412,8.412,0,0,0,3.569.711,8.407,8.407,0,0,0,3.57-.712,6.452,6.452,0,0,1,2.825-.568,6.456,6.456,0,0,1,2.829.569,8.418,8.418,0,0,0,3.57.711,8.435,8.435,0,0,0,3.574-.711,7.327,7.327,0,0,1,5.662,0A8.432,8.432,0,0,0,47,49.593V60ZM55,36H49V22h6Z"></path></g></svg>