<svg xmlns="http://www.w3.org/2000/svg" viewBox="0 0 64 64" x="0px" y="0px"><g><path d="M18,47.083V52h4.917A6.017,6.017,0,0,0,18,47.083Z"></path><path d="M40,30V13a3,3,0,0,0-3-3H29v1.018c1.8.079,4.651.523,5.644,2.982H36a2,2,0,0,1,2,2V30Z"></path><path d="M22.917,32H18v4.917A6.017,6.017,0,0,0,22.917,32Z"></path><path d="M19,12a1,1,0,0,1-1,1c-4.149,0-5,1.2-5,3v1H33V16c0-1.8-.851-3-5-3a1,1,0,0,1-1-1V7a3,3,0,0,0-3-3H22a3,3,0,0,0-3,3Zm4-7a3,3,0,1,1-3,3A3,3,0,0,1,23,5Z"></path><circle cx="23" cy="8" r="1"></circle><path d="M6,51a3,3,0,0,0,3,3h7V52H10a2,2,0,0,1-2-2V16a2,2,0,0,1,2-2h1.356c.993-2.459,3.845-2.9,5.644-2.982V10H9a3,3,0,0,0-3,3Z"></path><path d="M16,31a1,1,0,0,1,1-1H36V16H35v2a1,1,0,0,1-1,1H12a1,1,0,0,1-1-1V16H10V50h6Zm4-9h8v2H20Zm-6,0h4v2H14Zm0,4H32v2H14Z"></path><circle cx="38" cy="42" r="4"></circle><rect x="18" y="58" width="40" height="2"></rect><path d="M58,38.931A8.008,8.008,0,0,1,51.069,32H24.931A8.008,8.008,0,0,1,18,38.931v6.138A8.008,8.008,0,0,1,24.931,52H51.069A8.008,8.008,0,0,1,58,45.069ZM38,48a6,6,0,1,1,6-6A6.006,6.006,0,0,1,38,48Z"></path><path d="M58,47.083A6.017,6.017,0,0,0,53.083,52H58Z"></path><rect x="18" y="54" width="40" height="2"></rect><path d="M58,32H53.083A6.017,6.017,0,0,0,58,36.917Z"></path></g></svg>