<svg xmlns="http://www.w3.org/2000/svg" viewBox="0 0 64 64" x="0px" y="0px"><g><path d="M16,23V14H14V38H50V14H48v9a3,3,0,0,1-3,3H37v4h1a3,3,0,0,1,0,6H26a3,3,0,0,1,0-6h1V26H19A3,3,0,0,1,16,23Z"></path><path d="M46,5a1,1,0,0,0-1-1H19a1,1,0,0,0-1,1V20H46ZM29,14H27V12h2Zm4,0H31V12h2Zm4,0H35V12h2Z"></path><path d="M10,11V42H54V11a1,1,0,0,0-1-1H48v2h3a1,1,0,0,1,1,1V39a1,1,0,0,1-1,1H13a1,1,0,0,1-1-1V13a1,1,0,0,1,1-1h3V10H11A1,1,0,0,0,10,11Z"></path><path d="M46,23V22H18v1a1,1,0,0,0,1,1H45A1,1,0,0,0,46,23Z"></path><path d="M25,33a1,1,0,0,0,1,1H38a1,1,0,0,0,0-2H26A1,1,0,0,0,25,33Z"></path><rect x="29" y="26" width="6" height="4"></rect><rect x="29" y="56" width="6" height="1"></rect><path d="M59.382,54l-5-10H9.618l-5,10ZM54,52H52V50h2Zm-3-6h2v2H51Zm-1,6H48V50h2Zm-3-6h2v2H47Zm-4,0h2v2H43Zm-4,0h2v2H39Zm-4,0h2v2H35Zm-4,0h2v2H31Zm-4,0h2v2H27Zm-4,0h2v2H23Zm-4,0h2v2H19Zm-1,4H46v2H18Zm-3-4h2v2H15Zm-1,4h2v2H14Zm-3-4h2v2H11Zm-1,4h2v2H10Z"></path><path d="M4,60H60V56H37v1a2,2,0,0,1-2,2H29a2,2,0,0,1-2-2V56H4Z"></path><rect x="58" y="30" width="2" height="2"></rect><rect x="4" y="30" width="2" height="2"></rect><rect x="4" y="24" width="2" height="2"></rect><rect x="4" y="18" width="2" height="2"></rect><rect x="58" y="24" width="2" height="2"></rect><rect x="58" y="18" width="2" height="2"></rect><rect x="57" y="5" width="2" height="2"></rect><rect x="5" y="5" width="2" height="2"></rect></g></svg>