<svg xmlns="http://www.w3.org/2000/svg" viewBox="0 0 64 64" x="0px" y="0px"><g><path d="M57,28H46V19a1,1,0,0,0-1-1H43V13a1,1,0,0,0-.2-.6L40,8.667V3a1,1,0,0,0-1-1H24a1,1,0,0,0-1,1V8.764l-1.895,3.789A1,1,0,0,0,21,13v5H19a1,1,0,0,0-1,1v9H7a1,1,0,0,0-1,1V59a3,3,0,0,0,3,3H55a3,3,0,0,0,3-3V29A1,1,0,0,0,57,28ZM44,22H39v-.171A2.988,2.988,0,0,0,42.816,20H44ZM25,4H38V8H25Zm-2,9.236L24.618,10H38.5L41,13.333V19a1,1,0,0,1-2,0V17a1,1,0,0,0-2,0v6a1,1,0,0,1-2,0V20a1,1,0,0,0-2,0v3a1,1,0,0,1-2,0V20a1,1,0,0,0-2,0v3a1,1,0,0,1-2,0V20a1,1,0,0,0-2,0v3a1,1,0,0,1-2,0ZM20,20h1v2H20Zm0,4h1.184A2.986,2.986,0,0,0,26,25.234a2.994,2.994,0,0,0,4,0,2.994,2.994,0,0,0,4,0A2.986,2.986,0,0,0,38.816,24H44v4H20ZM8,30H56V40.586L52.586,44H11.414L8,40.586ZM55,60H9a1,1,0,0,1-1-1V43.414l2.293,2.293A1,1,0,0,0,11,46H53a1,1,0,0,0,.707-.293L56,43.414V59A1,1,0,0,1,55,60Z"></path><rect x="29" y="40" width="6" height="2"></rect></g></svg>