<svg xmlns="http://www.w3.org/2000/svg" viewBox="0 0 64 64" x="0px" y="0px"><g data-name="Business-Man-Avatar-Hat"><path d="M37,31.051V28.9A5.009,5.009,0,0,0,41,24a3,3,0,0,0,0-6h1a2,2,0,0,0,2-2V15a1.993,1.993,0,0,0-1-1.722V13a11,11,0,0,0-22,0v.278A1.993,1.993,0,0,0,20,15v1a2,2,0,0,0,2,2h1a3,3,0,0,0,0,6,5.009,5.009,0,0,0,4,4.9v2.152A13.009,13.009,0,0,0,15,44V61a1,1,0,0,0,1,1H48a1,1,0,0,0,1-1V44A13.009,13.009,0,0,0,37,31.051Zm3.753,6.578-2.308,1.539a1,1,0,0,0-.152,1.539l1.2,1.2-4.96,3.858,4.4-10.393a1,1,0,0,0-.1-.926l-.837-1.255c.324.06.641.136.954.223Zm-15.2,1.539-2.308-1.539,1.8-4.216c.313-.087.63-.163.954-.223l-.837,1.255a1,1,0,0,0-.1.926l4.4,10.393-4.96-3.858,1.2-1.2a1,1,0,0,0-.152-1.539ZM35,29v2.649L32,35.4l-3-3.75V29Zm-6.927,4.692,2.5,3.127-2.131,1.6-1.32-3.3ZM32,38.25l2.763,2.072L32,46.538l-2.763-6.216Zm3.556.167-2.131-1.6,2.5-3.127.949,1.425ZM42,21a1,1,0,0,1-1,1V20A1,1,0,0,1,42,21ZM32,4a9.01,9.01,0,0,1,9,9H23A9.01,9.01,0,0,1,32,4ZM22,16V15H42v1Zm0,5a1,1,0,0,1,1-1v2A1,1,0,0,1,22,21Zm3,3V18H39v6a3,3,0,0,1-3,3H28A3,3,0,0,1,25,24ZM17,44a10.994,10.994,0,0,1,5.385-9.442l-1.3,3.048a1,1,0,0,0,.364,1.226l1.985,1.323-1.137,1.138a1,1,0,0,0,.093,1.5L31,49.489V60H23V44H21V60H17ZM47,60H43V44H41V60H33V49.489l8.614-6.7a1,1,0,0,0,.093-1.5L40.57,40.155l1.985-1.323a1,1,0,0,0,.364-1.226l-1.3-3.048A10.994,10.994,0,0,1,47,44Z"></path><path d="M34.29,19.71a1.155,1.155,0,0,0,.33.21.942.942,0,0,0,.76,0,1.155,1.155,0,0,0,.33-.21,1.169,1.169,0,0,0,.21-.33A1,1,0,0,0,36,19a1.029,1.029,0,0,0-.29-.71,1.155,1.155,0,0,0-.33-.21.991.991,0,0,0-.76,0,1.155,1.155,0,0,0-.33.21A1.029,1.029,0,0,0,34,19a1,1,0,0,0,.08.38A1.169,1.169,0,0,0,34.29,19.71Z"></path><path d="M28.29,19.71a1.155,1.155,0,0,0,.33.21.99.99,0,0,0,1.09-.21,1.169,1.169,0,0,0,.21-.33A1,1,0,0,0,30,19a1.355,1.355,0,0,0-.02-.2.636.636,0,0,0-.06-.18.782.782,0,0,0-.09-.181l-.12-.149-.15-.12a.757.757,0,0,0-.18-.09.636.636,0,0,0-.18-.06,1.018,1.018,0,0,0-.91.27l-.12.149a.782.782,0,0,0-.09.181.636.636,0,0,0-.06.18A1.355,1.355,0,0,0,28,19a1,1,0,0,0,.08.38A1.169,1.169,0,0,0,28.29,19.71Z"></path></g></svg>