<svg xmlns="http://www.w3.org/2000/svg" viewBox="0 0 64 64" x="0px" y="0px"><g data-name="Video Player-Smartphone-Headphone-Online-Lesson"><circle cx="30" cy="47" r="1"></circle><path d="M44,23a3.009,3.009,0,0,0-3-3H23a3.009,3.009,0,0,0-3,3V57a3.009,3.009,0,0,0,3,3H41a3.009,3.009,0,0,0,3-3ZM29,22h6v2H29Zm-4,0h2v2H25Zm7,4a8,8,0,1,1-8,8A8.009,8.009,0,0,1,32,26Zm2,32H30a3,3,0,0,1,0-6h4a3,3,0,0,1,0,6Zm7-10H32.816a2.982,2.982,0,0,1-5.632,0H23V46h4.184a2.982,2.982,0,0,1,5.632,0H41Z"></path><path d="M34,54H30a1,1,0,0,0,0,2h4a1,1,0,0,0,0-2Z"></path><path d="M32,40a6,6,0,1,0-6-6A6.006,6.006,0,0,0,32,40Zm-3-8.131a2,2,0,0,1,3.11-1.664l3.2,2.131a2,2,0,0,1,0,3.328l-3.2,2.131A2,2,0,0,1,29,36.131Z"></path><polygon points="34.197 34 31 31.869 31 36.138 34.197 34"></polygon><path d="M56,30v4h2V30a25.913,25.913,0,0,0-8.44-19.15l-1.41,1.41A23.961,23.961,0,0,1,56,30Z"></path><rect x="46" y="34" width="2" height="14"></rect><path d="M15.97,9.55l1.42,1.43a23.921,23.921,0,0,1,29.22,0l1.42-1.43a25.925,25.925,0,0,0-32.06,0Z"></path><path d="M13,48h1V34H13a1,1,0,0,0-1,1V47A1,1,0,0,0,13,48Z"></path><rect x="16" y="34" width="2" height="14"></rect><path d="M4,37v8a1,1,0,0,0,1,1h5V36H5A1,1,0,0,0,4,37Z"></path><path d="M6,34H8V30a23.961,23.961,0,0,1,7.85-17.74l-1.41-1.41A25.913,25.913,0,0,0,6,30Z"></path><path d="M52,47V35a1,1,0,0,0-1-1H50V48h1A1,1,0,0,0,52,47Z"></path><path d="M60,45V37a1,1,0,0,0-1-1H54V46h5A1,1,0,0,0,60,45Z"></path></g></svg>