<svg xmlns="http://www.w3.org/2000/svg" viewBox="0 0 64 64" x="0px" y="0px"><g><path d="M40.753,37.629l-1.8-4.216c-.313-.087-.63-.163-.954-.223l.837,1.255a1,1,0,0,1,.1.927l-4.4,10.391,4.959-3.857-1.2-1.2a1,1,0,0,1,.152-1.539Z"></path><polygon points="28.073 33.692 27.124 35.117 28.444 38.417 30.575 36.819 28.073 33.692"></polygon><path d="M42,10.35A6.358,6.358,0,0,0,35.65,4a4.685,4.685,0,0,0-2.909,1.038A9.007,9.007,0,0,1,41,14v2a3,3,0,0,1,0,6v2a5.009,5.009,0,0,1-4,4.9v2.152a12.876,12.876,0,0,1,4.325,1.1,5.989,5.989,0,0,0,1.409-5.919,1,1,0,0,1,.427-1.143,5.99,5.99,0,0,0-.625-10.525,1,1,0,0,1-.566-1.048A3.688,3.688,0,0,0,42,13Z"></path><path d="M24.508,41.906l4.959,3.857-4.4-10.391a1,1,0,0,1,.1-.927l.837-1.255c-.324.06-.641.136-.954.223l-1.8,4.216,2.308,1.539a1,1,0,0,1,.152,1.539Z"></path><path d="M20.839,25.091a1,1,0,0,1,.427,1.143,5.989,5.989,0,0,0,1.409,5.919A12.876,12.876,0,0,1,27,31.051V28.9A5.009,5.009,0,0,1,23,24V22a3,3,0,0,1,0-6V14a9.007,9.007,0,0,1,8.259-8.962A4.685,4.685,0,0,0,28.35,4,6.34,6.34,0,0,0,22,10.35V13a3.688,3.688,0,0,0,.03.518,1,1,0,0,1-.566,1.048,5.99,5.99,0,0,0-.625,10.525Z"></path><path d="M47,60V44a10.994,10.994,0,0,0-5.385-9.442l1.3,3.048a1,1,0,0,1-.364,1.226L40.57,40.155l1.137,1.138a1,1,0,0,1-.093,1.5L33,49.489V60h8V44h2V60Z"></path><path d="M31,60V49.489l-8.614-6.7a1,1,0,0,1-.093-1.5l1.137-1.138-1.985-1.323a1,1,0,0,1-.364-1.226l1.3-3.048A10.994,10.994,0,0,0,17,44V60h4V44h2V60Z"></path><path d="M25,21v3a3,3,0,0,0,3,3h8a3,3,0,0,0,3-3V19.421A7.519,7.519,0,0,1,36,20a6.471,6.471,0,0,1-4-1.175A6.471,6.471,0,0,1,28,20a7.519,7.519,0,0,1-3-.579Z"></path><path d="M41,18v2a1,1,0,0,0,0-2Z"></path><path d="M23,20V18a1,1,0,0,0,0,2Z"></path><path d="M25,14v.579A7.519,7.519,0,0,1,28,14a6.471,6.471,0,0,1,4,1.175A6.471,6.471,0,0,1,36,14a7.519,7.519,0,0,1,3,.579V14a7,7,0,0,0-14,0Z"></path><ellipse cx="28" cy="17" rx="3" ry="1"></ellipse><polygon points="34.763 40.322 32 38.25 29.237 40.322 32 46.538 34.763 40.322"></polygon><polygon points="36.876 35.117 35.927 33.692 33.425 36.819 35.556 38.417 36.876 35.117"></polygon><ellipse cx="36" cy="17" rx="3" ry="1"></ellipse><polygon points="35 31.65 35 29 29 29 29 31.65 32 35.399 35 31.65"></polygon></g></svg>