<svg xmlns="http://www.w3.org/2000/svg" viewBox="0 0 64 64" x="0px" y="0px"><g data-name="Certificate"><path d="M23,5A11,11,0,1,0,34,16,11.007,11.007,0,0,0,23,5Zm0,20a9,9,0,1,1,9-9A9.014,9.014,0,0,1,23,25Z"></path><circle cx="48" cy="45" r="3"></circle><path d="M23,9a7,7,0,1,0,7,7A7.008,7.008,0,0,0,23,9Zm-4,8H17V15h2Zm4-2a3,3,0,0,1,1,5.82V22H22V20.82A3.01,3.01,0,0,1,20,18h2a1,1,0,1,0,1-1,3,3,0,0,1-1-5.82V10h2v1.18A3.01,3.01,0,0,1,26,14H24a1,1,0,1,0-1,1Zm4,2V15h2v2Z"></path><path d="M59,17H35.96a12.993,12.993,0,0,1-25.91,0H5a1,1,0,0,0-1,1V50a1,1,0,0,0,1,1H40.52a1.676,1.676,0,0,1-.32-.33,2.879,2.879,0,0,1-.24-2.28,2.879,2.879,0,0,0,.09-.81,3.526,3.526,0,0,0-.52-.56A2.871,2.871,0,0,1,38.36,45a2.871,2.871,0,0,1,1.17-2.02,3.148,3.148,0,0,0,.52-.57,2.95,2.95,0,0,0-.09-.81,2.859,2.859,0,0,1,.24-2.27,2.845,2.845,0,0,1,2.1-.93,3.2,3.2,0,0,0,.79-.16,3.034,3.034,0,0,0,.38-.69,2.87,2.87,0,0,1,1.55-1.72,2.839,2.839,0,0,1,2.22.47,2.8,2.8,0,0,0,.76.34,2.8,2.8,0,0,0,.76-.34,2.839,2.839,0,0,1,2.22-.47,2.87,2.87,0,0,1,1.55,1.72,2.681,2.681,0,0,0,.39.69,3.01,3.01,0,0,0,.78.16,2.845,2.845,0,0,1,2.1.93,2.879,2.879,0,0,1,.24,2.28,2.879,2.879,0,0,0-.09.81,3.526,3.526,0,0,0,.52.56A2.871,2.871,0,0,1,57.64,45a2.871,2.871,0,0,1-1.17,2.02,3.148,3.148,0,0,0-.52.57,2.95,2.95,0,0,0,.09.81,2.859,2.859,0,0,1-.24,2.27,1.676,1.676,0,0,1-.32.33H59a1,1,0,0,0,1-1V18A1,1,0,0,0,59,17ZM13,31h2v2H13Zm2,18H9a3.009,3.009,0,0,1-3-3V40H8v6a1,1,0,0,0,1,1h6Zm18-4H13V43H33Zm0-4H13V39H33Zm0-4H13V35H33Zm0-4H17V31H33Zm5-7h2v2H38Zm14,6H38V30H52Zm0-4H42V26H52Zm6,0H56V22a1,1,0,0,0-1-1H49V19h6a3.009,3.009,0,0,1,3,3Z"></path><path d="M48.765,53.7A2.97,2.97,0,0,0,48,53.36a2.97,2.97,0,0,0-.765.336,3.6,3.6,0,0,1-1.661.562,1.782,1.782,0,0,1-.553-.088c-.008,0-.013-.008-.021-.01V59l2.4-1.8a1,1,0,0,1,1.2,0L51,59V54.16a.124.124,0,0,1-.02.01A2.821,2.821,0,0,1,48.765,53.7Z"></path><path d="M55.09,44.43a3.5,3.5,0,0,1-1.04-1.4,3.57,3.57,0,0,1,.02-1.78,4.14,4.14,0,0,0,.09-.73,4.513,4.513,0,0,0-.73-.14,3.561,3.561,0,0,1-1.69-.53,3.471,3.471,0,0,1-1.02-1.43,3.993,3.993,0,0,0-.36-.66,4.072,4.072,0,0,0-.65.3,3.67,3.67,0,0,1-1.71.58,3.67,3.67,0,0,1-1.71-.58,4.072,4.072,0,0,0-.65-.3,3.993,3.993,0,0,0-.36.66,3.471,3.471,0,0,1-1.02,1.43,3.561,3.561,0,0,1-1.69.53,4.513,4.513,0,0,0-.73.14,4.14,4.14,0,0,0,.09.73,3.57,3.57,0,0,1,.02,1.78,3.5,3.5,0,0,1-1.04,1.4,2.855,2.855,0,0,0-.55.61c.04.05.36.35.55.53a3.5,3.5,0,0,1,1.04,1.4,3.57,3.57,0,0,1-.02,1.78,4.14,4.14,0,0,0-.09.73,4.513,4.513,0,0,0,.73.14,3.561,3.561,0,0,1,1.69.53,3.471,3.471,0,0,1,1.02,1.43,3.993,3.993,0,0,0,.36.66,4.072,4.072,0,0,0,.65-.3A3.67,3.67,0,0,1,48,51.36a3.67,3.67,0,0,1,1.71.58,4.072,4.072,0,0,0,.65.3,3.993,3.993,0,0,0,.36-.66,3.471,3.471,0,0,1,1.02-1.43,3.561,3.561,0,0,1,1.69-.53,4.513,4.513,0,0,0,.73-.14,4.14,4.14,0,0,0-.09-.73,3.57,3.57,0,0,1-.02-1.78,3.5,3.5,0,0,1,1.04-1.4,3.511,3.511,0,0,0,.54-.57A3.511,3.511,0,0,0,55.09,44.43ZM48,50a5,5,0,1,1,5-5A5,5,0,0,1,48,50Z"></path></g></svg>