<svg xmlns="http://www.w3.org/2000/svg" viewBox="0 0 64 64" x="0px" y="0px"><g><path d="M19,56A11,11,0,1,0,8,45,11.013,11.013,0,0,0,19,56ZM18,42.184V38h2v4.184a3,3,0,1,1-2,0Z"></path><path d="M7.73,32.31,6.27,30.85,4.85,32.27l1.46,1.46A15.858,15.858,0,0,1,7.73,32.31Z"></path><path d="M19,60A15,15,0,1,0,4,45,15.018,15.018,0,0,0,19,60Zm0-28A13,13,0,1,1,6,45,13.015,13.015,0,0,1,19,32Z"></path><circle cx="19" cy="45" r="1"></circle><path d="M33.2,56.4a1.041,1.041,0,0,1,1.6,0L37,59.33l2.2-2.93a1.041,1.041,0,0,1,1.6,0L43,59.33l2.2-2.93a1.041,1.041,0,0,1,1.6,0L49,59.33l2.2-2.93a1.041,1.041,0,0,1,1.6,0L55,59.33l2.2-2.93a1.041,1.041,0,0,1,1.6,0L60,58V6L58.8,7.6a1.041,1.041,0,0,1-1.6,0L55,4.67,52.8,7.6a1.041,1.041,0,0,1-1.6,0L49,4.67,46.8,7.6a1.041,1.041,0,0,1-1.6,0L43,4.67,40.8,7.6a1.041,1.041,0,0,1-1.6,0L37,4.67,34.8,7.6a1.041,1.041,0,0,1-1.6,0L31,4.67,28.8,7.6a1.041,1.041,0,0,1-1.6,0L25,4.67,22.8,7.6a1.041,1.041,0,0,1-1.6,0L20,6V24h1a1,1,0,0,1,1,1v3.28a16.806,16.806,0,0,1,6.7,2.78l2.32-2.33a1.008,1.008,0,0,1,1.42,0l2.83,2.83a1.008,1.008,0,0,1,0,1.42L32.94,35.3a16.927,16.927,0,0,1-2.97,22.66L31,59.33ZM27,18h2a3,3,0,0,1,0,6v1H27V24a3,3,0,0,1-3-3h2a1,1,0,0,0,1,1h2a1,1,0,0,0,0-2H27a3,3,0,0,1,0-6V13h2v1a3,3,0,0,1,3,3H30a1,1,0,0,0-1-1H27a1,1,0,0,0,0,2ZM50,52H38V50H50Zm0-4H38V46H50Zm0-4H38V42H50Zm0-4H38V38H50Zm0-4H38V34H50Zm0-4H38V30H50Zm6,20H52V50h4Zm0-4H52V46h4Zm0-4H52V42h4Zm0-4H52V38h4Zm0-4H52V34h4Zm0-6v2H52V30ZM42,18H52v2H42Zm-6,0h4v2H36Zm0,4H52v2H36Z"></path><path d="M33.15,32.27l-1.42-1.42-1.46,1.46a15.858,15.858,0,0,1,1.42,1.42Z"></path><path d="M20,28.05V26H18v2.05c.33-.02.66-.05,1-.05S19.67,28.03,20,28.05Z"></path></g></svg>