<svg xmlns="http://www.w3.org/2000/svg" viewBox="0 0 64 64" x="0px" y="0px"><g data-name="Metal Detector"><path d="M53,16H39V13a1,1,0,0,0-1-1H35V11a3,3,0,0,0-6,0v1H26a1,1,0,0,0-1,1v3H11a1,1,0,0,0-1,1V61a1,1,0,0,0,1,1h4a1,1,0,0,0,1-1V28H48V61a1,1,0,0,0,1,1h4a1,1,0,0,0,1-1V17A1,1,0,0,0,53,16ZM31,11a1,1,0,0,1,2,0v1H31Zm-4,3H37v2H27ZM12,18H52v8H12Zm2,42H12V28h2Zm38,0H50V28h2Z"></path><rect x="2" y="43" width="6" height="2"></rect><rect x="4" y="31.146" width="2" height="6.708" transform="translate(-28.094 23.543) rotate(-63.435)"></rect><rect x="1.646" y="52.5" width="6.708" height="2" transform="translate(-23.398 7.884) rotate(-26.565)"></rect><rect x="56" y="43" width="6" height="2"></rect><rect x="55.646" y="33.5" width="6.708" height="2" transform="translate(-9.2 30.028) rotate(-26.565)"></rect><rect x="58" y="50.146" width="2" height="6.708" transform="translate(-15.237 82.345) rotate(-63.435)"></rect><rect x="30" y="21" width="4" height="2"></rect><rect x="36" y="21" width="4" height="2"></rect><rect x="24" y="21" width="4" height="2"></rect><rect x="31" y="2" width="2" height="4"></rect><rect x="26.05" y="4.05" width="2" height="4" transform="translate(3.647 20.904) rotate(-45.01)"></rect><rect x="34.95" y="5.05" width="4" height="2" transform="translate(6.544 27.899) rotate(-45)"></rect></g></svg>