<svg xmlns="http://www.w3.org/2000/svg" viewBox="0 0 64 64" x="0px" y="0px"><g data-name="Plane"><polygon points="56 15 50 15 50 17 52 17 52 18 54 18 54 17 56 17 56 15"></polygon><polygon points="8 17 10 17 10 18 12 18 12 17 14 17 14 15 8 15 8 17"></polygon><polygon points="12 20.382 12 20 10 20 10 21.382 12 20.382"></polygon><path d="M35,52v3a1,1,0,0,1-1,1H30a1,1,0,0,1-1-1V52H24a8,8,0,0,0,16,0Z"></path><polygon points="4 29 22 29 22 17.618 4 26.618 4 29"></polygon><rect x="10" y="31" width="2" height="1"></rect><polygon points="29 42 28.236 42 15 48.618 15 50 29 50 29 42"></polygon><polygon points="36 12.535 33.697 11 30.303 11 28 12.535 28 13 36 13 36 12.535"></polygon><polygon points="31 51 31 54 33 54 33 51 33 41 33 38 31 38 31 41 31 51"></polygon><path d="M24,41.882,27.553,40.1A1,1,0,0,1,28,40h1V37a1,1,0,0,1,1-1h4a1,1,0,0,1,1,1v3h1a1,1,0,0,1,.447.1L40,41.882V12a8.015,8.015,0,0,0-8-8,8.009,8.009,0,0,0-8,8ZM38,35H36V33h2Zm0-4H36V29h2Zm0-4H36V25h2Zm0-4H36V21h2Zm0-4H36V17h2ZM26,12a1,1,0,0,1,.445-.832l3-2A1.006,1.006,0,0,1,30,9h4a1.006,1.006,0,0,1,.555.168l3,2A1,1,0,0,1,38,12v2a1,1,0,0,1-1,1H27a1,1,0,0,1-1-1Zm0,5h2v2H26Zm0,4h2v2H26Zm0,4h2v2H26Zm0,4h2v2H26Zm0,4h2v2H26Z"></path><polygon points="49 48.618 35.764 42 35 42 35 50 49 50 49 48.618"></polygon><rect x="52" y="31" width="2" height="1"></rect><polygon points="60 26.618 42 17.618 42 29 60 29 60 26.618"></polygon><polygon points="54 21.382 54 20 52 20 52 20.382 54 21.382"></polygon></g></svg>