<svg xmlns="http://www.w3.org/2000/svg" viewBox="0 0 64 64" x="0px" y="0px"><g data-name="Back Photo Camera"><circle cx="50" cy="39" r="4"></circle><path d="M40,19H8V45H40ZM17,43H11a1,1,0,0,1-1-1V36h2v5h5Zm0-20H12v5H10V22a1,1,0,0,1,1-1h6ZM38,42a1,1,0,0,1-1,1H31V41h5V36h2Zm0-14H36V23H31V21h6a1,1,0,0,1,1,1Z"></path><rect x="47" y="11" width="6" height="2"></rect><circle cx="50" cy="26" r="1"></circle><path d="M5,49H59a1,1,0,0,0,1-1V16a1,1,0,0,0-1-1H5a1,1,0,0,0-1,1V48A1,1,0,0,0,5,49ZM46,17h8v2H46Zm7,9a3,3,0,1,1-3-3A3,3,0,0,1,53,26Zm-3,7a6,6,0,1,1-6,6A6.006,6.006,0,0,1,50,33ZM6,18a1,1,0,0,1,1-1H41a1,1,0,0,1,1,1V46a1,1,0,0,1-1,1H7a1,1,0,0,1-1-1Z"></path></g></svg>