<svg xmlns="http://www.w3.org/2000/svg" viewBox="0 0 64 64" x="0px" y="0px"><title>File-Document-Love</title><g><path d="M54.988,12.939a1,1,0,0,0-.052-.26c-.011-.032-.019-.062-.033-.093a1,1,0,0,0-.2-.293l-10-10a.97.97,0,0,0-.292-.2c-.032-.015-.063-.023-.1-.035a1,1,0,0,0-.254-.05C44.043,2.011,44.023,2,44,2H14A5.006,5.006,0,0,0,9,7V57a5.006,5.006,0,0,0,5,5H50a5.006,5.006,0,0,0,5-5V13C55,12.979,54.989,12.96,54.988,12.939ZM51.586,12H46a1,1,0,0,1-1-1V5.414ZM50,60H14a3,3,0,0,1-3-3V7a3,3,0,0,1,3-3H43v7a3,3,0,0,0,3,3h7V57A3,3,0,0,1,50,60Z"></path><path d="M17,38H29a1,1,0,0,0,0-2H17a1,1,0,0,0,0,2Z"></path><path d="M35,36H33a1,1,0,0,0,0,2h2a1,1,0,0,0,0-2Z"></path><path d="M47,36H39a1,1,0,0,0,0,2h8a1,1,0,0,0,0-2Z"></path><path d="M17,44h8a1,1,0,0,0,0-2H17a1,1,0,0,0,0,2Z"></path><path d="M34,43a1,1,0,0,0-1-1H29a1,1,0,0,0,0,2h4A1,1,0,0,0,34,43Z"></path><path d="M38,44a1,1,0,0,0,0-2H37a1,1,0,0,0,0,2Z"></path><path d="M46,42H42a1,1,0,0,0,0,2h4a1,1,0,0,0,0-2Z"></path><path d="M28,48H17a1,1,0,0,0,0,2H28a1,1,0,0,0,0-2Z"></path><path d="M34,48H32a1,1,0,0,0,0,2h2a1,1,0,0,0,0-2Z"></path><path d="M46,48H38a1,1,0,0,0,0,2h8a1,1,0,0,0,0-2Z"></path><path d="M31.515,29.875A1.007,1.007,0,0,0,32,30a.994.994,0,0,0,.485-.126C32.874,29.658,42,24.515,42,18h0a6,6,0,0,0-5.991-6h-.017A5.885,5.885,0,0,0,32,13.544,5.9,5.9,0,0,0,28.021,12H28a5.976,5.976,0,0,0-6,5.993c0,2.377,1.2,4.831,3.566,7.3A28.545,28.545,0,0,0,31.515,29.875ZM25.141,15.191A4.034,4.034,0,0,1,28.005,14h.014A3.969,3.969,0,0,1,31.2,15.627a1,1,0,0,0,.8.4h0a1,1,0,0,0,.8-.4A3.935,3.935,0,0,1,35.992,14H36A4,4,0,0,1,40,18h0c0,4.585-6.195,8.729-8,9.836a26.653,26.653,0,0,1-4.99-3.936C25.012,21.825,24,19.838,24,18A4.011,4.011,0,0,1,25.141,15.191Z"></path></g></svg>