<svg xmlns="http://www.w3.org/2000/svg" viewBox="0 0 64 64" x="0px" y="0px"><g><circle cx="29" cy="43" r="4"></circle><path d="M52.478,18.007l1.191-4.445-6.011.636a.924.924,0,0,1-.105.006,1,1,0,0,1-.589-.191l-4.887-3.556L40.887,14.9a17.209,17.209,0,0,0,5.372,3.134A17.215,17.215,0,0,0,52.478,18.007Z"></path><path d="M20,43a9,9,0,0,1,18,0,8.882,8.882,0,0,1-.525,3H53a1,1,0,0,0,1-1V19.564a.988.988,0,0,1-.52.3,25.552,25.552,0,0,1-4.6.456,12.428,12.428,0,0,1-3.141-.349c-3.09-.828-6.5-3.833-6.648-3.961a1,1,0,0,1-.3-1.007l.267-1H36.275l-.024.014L36.243,14H5a1,1,0,0,0-1,1V45a1,1,0,0,0,1,1H20.525A8.882,8.882,0,0,1,20,43Zm27-1h3V39h2v4a1,1,0,0,1-1,1H47ZM20,22H38v2H20ZM11,44H7a1,1,0,0,1-1-1V39H8v3h3Zm1-26H9v3H7V17a1,1,0,0,1,1-1h4Zm3,11V27H43v2Z"></path><polygon points="49.864 4.58 38.981 5.73 47.83 12.169 58.713 11.019 49.864 4.58"></polygon><path d="M36,43a7,7,0,1,0-7,7A7.008,7.008,0,0,0,36,43Zm-7,6a6,6,0,1,1,6-6A6.006,6.006,0,0,1,29,49Z"></path><path d="M25,51.05v8.183l3.485-2.09a1,1,0,0,1,1.03,0L33,59.233V51.05a8.9,8.9,0,0,1-8,0Z"></path><polygon points="38.983 13.014 37.069 9.698 37.741 7.361 35.81 6.843 35.137 9.181 31.822 11.095 32.822 12.827 34.405 11.913 33.995 13.444 35.926 13.962 36.337 12.43 37.251 14.014 38.983 13.014"></polygon></g></svg>