<svg xmlns="http://www.w3.org/2000/svg" viewBox="0 0 64 64" x="0px" y="0px"><g><path d="M4,53a3.009,3.009,0,0,0,3,3H34V25a3.009,3.009,0,0,1,3-3H52V11.96H4Zm28-9H14V42H32Zm0-6H28V36h4Zm0-4H28V32h4ZM28,16h4v2H28Zm0,4h4v2H28ZM8,16h4v2H8Zm10,1A10,10,0,1,1,8,27,10.011,10.011,0,0,1,18,17ZM8,42h4v2H8Zm0,4H32v2H8Zm0,4H32v2H8Z"></path><path d="M56,28H40v6H56ZM45,32H43V30h2Zm4,0H47V30h2Zm4,0H51V30h2Z"></path><rect x="52" y="46" width="4.001" height="4"></rect><rect x="52" y="40" width="4" height="4"></rect><circle cx="18" cy="27" r="4"></circle><path d="M18,33a5.961,5.961,0,0,1-3.471-1.115L13.1,33.312A7.981,7.981,0,0,0,25.931,28H23.91A6.006,6.006,0,0,1,18,33Z"></path><path d="M4,9.96H52V7a3.009,3.009,0,0,0-3-3H7A3.009,3.009,0,0,0,4,7ZM16,6h2V8H16ZM12,6h2V8H12ZM8,6h2V8H8Z"></path><path d="M23.91,26h2.021A8.008,8.008,0,0,0,19,19.069V21.09A6.008,6.008,0,0,1,23.91,26Z"></path><path d="M13.115,30.471A5.984,5.984,0,0,1,17,21.09V19.069A7.981,7.981,0,0,0,11.688,31.9Z"></path><rect x="46" y="52" width="4" height="4"></rect><rect x="40" y="46" width="4" height="4"></rect><rect x="40" y="40" width="4" height="4"></rect><rect x="40" y="52" width="4" height="4"></rect><path d="M37,60H59a1,1,0,0,0,1-1V25a1,1,0,0,0-1-1H37a1,1,0,0,0-1,1V59A1,1,0,0,0,37,60Zm1-32a2,2,0,0,1,2-2H56a2,2,0,0,1,2,2v6a2,2,0,0,1-2,2H40a2,2,0,0,1-2-2Zm0,12a2,2,0,0,1,2-2H56a2,2,0,0,1,2,2V56a2,2,0,0,1-2,2H40a2,2,0,0,1-2-2Z"></path><rect x="46" y="46" width="4" height="4"></rect><rect x="46" y="40" width="4" height="4"></rect><rect x="52" y="52" width="4.001" height="4"></rect></g></svg>