<svg xmlns="http://www.w3.org/2000/svg" viewBox="0 0 64 64" x="0px" y="0px"><g data-name="Cabinet"><path d="M10,39H30a1,1,0,0,0,1-1V24a1,1,0,0,0-1-1H10a1,1,0,0,0-1,1V38A1,1,0,0,0,10,39Zm1-14H29V37H11Z"></path><path d="M34,39H54a1,1,0,0,0,1-1V24a1,1,0,0,0-1-1H34a1,1,0,0,0-1,1V38A1,1,0,0,0,34,39Zm1-14H53V37H35Z"></path><rect x="25" y="30" width="2" height="2"></rect><rect x="37" y="30" width="2" height="2"></rect><path d="M61,15H3a1,1,0,0,0-1,1v2a1,1,0,0,0,.293.707l2,2A1,1,0,0,0,5,21V48a1,1,0,0,0,1,1H9a1,1,0,0,0,.768-.36l4.7-5.64H49.532l4.7,5.64A1,1,0,0,0,55,49h3a1,1,0,0,0,1-1V21a1,1,0,0,0,.707-.293l2-2A1,1,0,0,0,62,18V16A1,1,0,0,0,61,15ZM8.532,47H7V43h4.865Zm46.936,0-3.333-4H57v4ZM57,41H7V21H57Zm3-23.414L58.586,19H5.414L4,17.586V17H60Z"></path></g></svg>