<svg xmlns="http://www.w3.org/2000/svg" viewBox="0 0 64 64" x="0px" y="0px"><g><path d="M59,2H5A3,3,0,0,0,2,5V59a3,3,0,0,0,3,3H59a3,3,0,0,0,3-3V5A3,3,0,0,0,59,2ZM5,4H59a1,1,0,0,1,1,1v5H4V5A1,1,0,0,1,5,4ZM59,60H5a1,1,0,0,1-1-1V12H60V59A1,1,0,0,1,59,60Z"></path><rect x="8" y="6" width="2" height="2"></rect><rect x="12" y="6" width="2" height="2"></rect><rect x="16" y="6" width="2" height="2"></rect><path d="M11.113,30.893a3.969,3.969,0,0,0,1.935,2.585A3.99,3.99,0,0,0,21,33V20a3.994,3.994,0,0,0-7.889-.892,3.84,3.84,0,0,0-3.058,4.418,3.98,3.98,0,0,0,1.06,7.367Zm-.295-5.5A3.981,3.981,0,0,0,14,27V25a2,2,0,1,1,2-2h2a3.991,3.991,0,0,0-2.825-3.8A2,2,0,0,1,19,20V33a2,2,0,1,1-3.414-1.414l-1.414-1.414a3.972,3.972,0,0,0-.737,1.05,1.96,1.96,0,0,1,.076-2.551l-1.482-1.342a3.941,3.941,0,0,0-.836,1.5,1.988,1.988,0,0,1-.375-3.429Z"></path><path d="M27,37a3.992,3.992,0,0,0,3.952-3.522,3.969,3.969,0,0,0,1.935-2.585,3.98,3.98,0,0,0,1.06-7.367,3.84,3.84,0,0,0-3.058-4.418A3.994,3.994,0,0,0,23,20V33A4,4,0,0,0,27,37ZM25,20a2,2,0,0,1,3.825-.8A3.991,3.991,0,0,0,26,23h2a2,2,0,1,1,2,2v2a3.981,3.981,0,0,0,3.182-1.6,1.988,1.988,0,0,1-.375,3.429,3.941,3.941,0,0,0-.836-1.5l-1.482,1.342a1.96,1.96,0,0,1,.076,2.551,3.972,3.972,0,0,0-.737-1.05l-1.414,1.414A2,2,0,1,1,25,33Z"></path><rect x="40" y="16" width="4" height="2"></rect><rect x="46" y="16" width="10" height="2"></rect><rect x="40" y="20" width="16" height="2"></rect><rect x="40" y="24" width="16" height="2"></rect><rect x="40" y="28" width="16" height="2"></rect><rect x="40" y="32" width="10" height="2"></rect><rect x="52" y="32" width="4" height="2"></rect><rect x="40" y="36" width="16" height="2"></rect><path d="M54,42H10a2,2,0,0,0-2,2V54a2,2,0,0,0,2,2H54a2,2,0,0,0,2-2V44A2,2,0,0,0,54,42Zm0,12H10V44H54Z"></path><rect x="30" y="48" width="4" height="2"></rect><rect x="38" y="48" width="4" height="2"></rect><rect x="22" y="48" width="4" height="2"></rect></g></svg>