<svg xmlns="http://www.w3.org/2000/svg" viewBox="0 0 64 64" x="0px" y="0px"><g><rect x="13" y="16" width="3" height="3"></rect><rect x="8" y="8" width="8" height="2"></rect><path d="M60,17a3,3,0,0,0-3-3H56V35a3,3,0,0,1-3,3H29a3,3,0,0,1-3-3V14H22V27a3,3,0,0,1-3,3H14V40H60Z"></path><rect x="13" y="21" width="3" height="3"></rect><path d="M20,27V5a1,1,0,0,0-1-1H5A1,1,0,0,0,4,5V27a1,1,0,0,0,1,1H19A1,1,0,0,0,20,27Zm-2-2a1,1,0,0,1-1,1H7a1,1,0,0,1-1-1V15a1,1,0,0,1,1-1H17a1,1,0,0,1,1,1Zm0-14a1,1,0,0,1-1,1H7a1,1,0,0,1-1-1V7A1,1,0,0,1,7,6H17a1,1,0,0,1,1,1Z"></path><polygon points="30.883 50 30.133 56 43.867 56 43.117 50 30.883 50"></polygon><rect x="8" y="16" width="3" height="3"></rect><path d="M26,59a1,1,0,0,0,1,1H47a1,1,0,0,0,0-2H27A1,1,0,0,0,26,59Z"></path><rect x="8" y="21" width="3" height="3"></rect><path d="M60,42H14v3a3,3,0,0,0,3,3H57a3,3,0,0,0,3-3Zm-4,4H54V44h2Z"></path><path d="M29,4a1,1,0,0,0-1,1V35a1,1,0,0,0,1,1H53a1,1,0,0,0,1-1V12H49a3,3,0,0,1-3-3V4Zm5,2h6V8H34ZM30,6h2V8H30Zm0,4H40v2H30Zm5,9v2H33V19Zm5,15H30V32H40Zm0-4H30V28H40Zm-3-8h2a1,1,0,0,0,1,1h2a1,1,0,0,0,0-2H40a3,3,0,0,1,0-6V14h2v1a3,3,0,0,1,3,3H43a1,1,0,0,0-1-1H40a1,1,0,0,0,0,2h2a3,3,0,0,1,0,6v1H40V25A3,3,0,0,1,37,22ZM52,34H42V32H52ZM47,19h2v2H47Zm5,9v2H42V28Z"></path><path d="M52.586,10,48,5.414V9a1,1,0,0,0,1,1Z"></path></g></svg>