<svg xmlns="http://www.w3.org/2000/svg" viewBox="0 0 64 64" x="0px" y="0px"><g><path d="M61,38H51.883l-.891-7.124A1,1,0,0,0,50,30H41a1,1,0,0,0-1,1V42H31V27.456l9.68-5.59a1,1,0,0,0,.367-1.364l0-.006,1.727-1a1,1,0,0,0,.464-.6l.74-2.73a1,1,0,0,0-.708-1.228l-2.74-.73a.99.99,0,0,0-.758.1l-1.723,1-.5-.868,1.726-1a1,1,0,0,0,.464-.6l.74-2.73a1,1,0,0,0-.708-1.228l-2.74-.73a.99.99,0,0,0-.758.1l-1.722,1h0a1,1,0,0,0-1.367-.368L2,26.874a1,1,0,0,0-.366,1.366l3.328,5.768A1,1,0,0,0,4,35v7H3a1,1,0,0,0-1,1v6a1,1,0,0,0,1,1H5.114A4.874,4.874,0,0,0,5,51a5,5,0,0,0,10,0,4.943,4.943,0,0,0-.113-1h1.227A4.874,4.874,0,0,0,16,51a5,5,0,0,0,10,0,4.943,4.943,0,0,0-.113-1H47.114A4.874,4.874,0,0,0,47,51a5,5,0,0,0,10,0,4.943,4.943,0,0,0-.113-1H61a1,1,0,0,0,1-1V39A1,1,0,0,0,61,38ZM40.413,16.243l1.369.364-.369,1.364-1.368.792-1-1.728ZM49.117,32l.75,6H46V32ZM29,42H27V29.767l2-1.155Zm-4,0H16V36.117l9-5.2ZM36.913,10.183l1.369.364-.369,1.364-1.368.792-.045-.078-.953-1.651Zm-3.6.924,0,0h0l.039.068,5.363,9.282.1.168,0,0L15.467,34.116c-.016-.009-.036-.013-.053-.021s-.042-.016-.064-.024A.976.976,0,0,0,15,34H7.268l-3.4-5.894ZM6,36h8v6H6ZM4,44H40v4H25l-.021-.024c-.04-.053-.086-.1-.129-.153-.09-.109-.18-.216-.278-.316-.056-.057-.116-.109-.174-.163-.093-.086-.187-.171-.286-.25-.066-.052-.133-.1-.2-.149-.1-.071-.2-.14-.306-.2-.072-.044-.144-.086-.219-.126-.107-.059-.217-.113-.329-.163-.076-.035-.152-.069-.229-.1-.118-.047-.239-.086-.36-.124-.076-.023-.151-.049-.228-.068-.135-.035-.272-.06-.411-.083-.066-.012-.132-.027-.2-.036a4.7,4.7,0,0,0-1.254,0c-.067.009-.133.024-.2.036-.139.023-.276.048-.411.083-.077.019-.152.045-.228.068-.121.038-.242.077-.36.124-.077.03-.153.064-.228.1-.112.05-.222.1-.33.163-.075.04-.147.082-.22.126-.1.064-.2.132-.3.2-.068.049-.135.1-.2.149-.1.079-.193.163-.286.25-.058.054-.118.106-.174.163-.1.1-.189.208-.279.317-.042.051-.088.1-.128.151L17,48H14l-.021-.024c-.04-.053-.086-.1-.129-.153-.09-.109-.18-.216-.278-.316-.056-.057-.116-.109-.174-.163-.093-.086-.187-.171-.286-.25-.066-.052-.133-.1-.2-.149-.1-.071-.2-.14-.306-.2-.072-.044-.144-.086-.219-.126-.107-.059-.217-.113-.329-.163-.076-.035-.152-.069-.229-.1-.118-.047-.239-.086-.36-.124-.076-.023-.151-.049-.228-.068-.135-.035-.272-.06-.411-.083-.066-.012-.132-.027-.2-.036a4.7,4.7,0,0,0-1.254,0c-.067.009-.133.024-.2.036-.139.023-.276.048-.411.083-.077.019-.152.045-.228.068-.121.038-.242.077-.36.124-.077.03-.153.064-.228.1-.112.05-.222.1-.33.163-.075.04-.147.082-.22.126-.1.064-.205.132-.305.2-.068.049-.135.1-.2.149-.1.079-.193.163-.286.25-.058.054-.118.106-.174.163-.1.1-.189.208-.279.317-.042.051-.088.1-.128.151L6,48H4Zm6,10a3,3,0,0,1-3-3,3,3,0,0,1,3.781-2.9,3.01,3.01,0,0,1,1.333.771,2.973,2.973,0,0,1,.479.624h0A2.97,2.97,0,0,1,13,51,3,3,0,0,1,10,54Zm11,0a3,3,0,0,1-3-3,3,3,0,0,1,3.781-2.9,3.01,3.01,0,0,1,1.333.771,2.973,2.973,0,0,1,.479.624h0A2.97,2.97,0,0,1,24,51,3,3,0,0,1,21,54Zm31,0a3,3,0,0,1-3-3,3,3,0,0,1,3.781-2.9,3.01,3.01,0,0,1,1.333.771,2.973,2.973,0,0,1,.479.624h0A2.97,2.97,0,0,1,55,51,3,3,0,0,1,52,54Zm4-6-.021-.024c-.04-.053-.086-.1-.129-.153-.09-.109-.18-.216-.278-.316-.056-.057-.116-.109-.174-.163-.093-.086-.187-.171-.286-.25-.066-.052-.133-.1-.2-.149-.1-.071-.2-.14-.306-.2-.072-.044-.144-.086-.219-.126-.107-.059-.217-.113-.329-.163-.076-.035-.152-.069-.229-.1-.118-.047-.239-.086-.36-.124-.076-.023-.151-.049-.228-.068-.135-.035-.272-.06-.411-.083-.066-.012-.132-.027-.2-.036a4.7,4.7,0,0,0-1.254,0c-.067.009-.133.024-.2.036-.139.023-.276.048-.411.083-.077.019-.152.045-.228.068-.121.038-.242.077-.36.124-.077.03-.153.064-.228.1-.112.05-.222.1-.33.163-.075.04-.147.082-.22.126-.1.064-.2.132-.3.2-.068.049-.135.1-.2.149-.1.079-.193.163-.286.25-.058.054-.118.106-.174.163-.1.1-.189.208-.279.317-.042.051-.088.1-.128.151L48,48H42V32h2v7a1,1,0,0,0,1,1H60v2H58v2h2v4Z"></path><rect x="44" y="41" width="4" height="2"></rect><path d="M52.38,50.08a1.021,1.021,0,0,0-1.09.21A1.052,1.052,0,0,0,51,51a1.355,1.355,0,0,0,.02.2.636.636,0,0,0,.06.18.757.757,0,0,0,.09.18l.12.15A1.052,1.052,0,0,0,52,52a1,1,0,0,0,.38-.08,1.155,1.155,0,0,0,.33-.21l.12-.15a.757.757,0,0,0,.09-.18.636.636,0,0,0,.06-.18A1.355,1.355,0,0,0,53,51a1.052,1.052,0,0,0-.29-.71A1.155,1.155,0,0,0,52.38,50.08Z"></path><path d="M21.56,50.17a.757.757,0,0,0-.18-.09.636.636,0,0,0-.18-.06.956.956,0,0,0-.58.06,1.155,1.155,0,0,0-.33.21A1.052,1.052,0,0,0,20,51a1.355,1.355,0,0,0,.02.2.636.636,0,0,0,.06.18.757.757,0,0,0,.09.18l.12.15a1.155,1.155,0,0,0,.33.21A1,1,0,0,0,21,52a1.355,1.355,0,0,0,.2-.02.636.636,0,0,0,.18-.06.757.757,0,0,0,.18-.09l.15-.12.12-.15a.757.757,0,0,0,.09-.18.636.636,0,0,0,.06-.18A1.355,1.355,0,0,0,22,51a1.052,1.052,0,0,0-.29-.71Z"></path><path d="M10.92,50.62a.757.757,0,0,0-.09-.18,1.576,1.576,0,0,0-.12-.15,1.021,1.021,0,0,0-1.09-.21,1.032,1.032,0,0,0-.33.21A1.052,1.052,0,0,0,9,51a1.355,1.355,0,0,0,.02.2.636.636,0,0,0,.06.18.757.757,0,0,0,.09.18,1.576,1.576,0,0,0,.12.15,1.032,1.032,0,0,0,.33.21A1,1,0,0,0,10,52a1.052,1.052,0,0,0,.71-.29,1.576,1.576,0,0,0,.12-.15.757.757,0,0,0,.09-.18.636.636,0,0,0,.06-.18A1.355,1.355,0,0,0,11,51a1.5,1.5,0,0,0-.02-.2A.636.636,0,0,0,10.92,50.62Z"></path></g></svg>