<svg xmlns="http://www.w3.org/2000/svg" viewBox="0 0 64 64" x="0px" y="0px"><g><polygon points="53 10 55 10 55 8 57 8 57 6 55 6 55 4 53 4 53 6 51 6 51 8 53 8 53 10"></polygon><rect x="46" y="12" width="6" height="2"></rect><rect x="51" y="16" width="6" height="2"></rect><polygon points="53 54 51 54 51 56 49 56 49 58 51 58 51 60 53 60 53 58 55 58 55 56 53 56 53 54"></polygon><circle cx="38" cy="33" r="1"></circle><path d="M19,7H31a1,1,0,0,0,1-1V4H18V6A1,1,0,0,0,19,7Z"></path><path d="M42,55.6A20,20,0,1,1,42,16.4V7a3,3,0,0,0-3-3H34V6a3,3,0,0,1-3,3H19a3,3,0,0,1-3-3V4H11A3,3,0,0,0,8,7V57a3,3,0,0,0,3,3H39a3,3,0,0,0,3-3ZM30,11h2v2H30Zm-4,0h2v2H26Zm-4,0h2v2H22Zm1.339,5.972L24.625,18.5,23.093,19.79l-1.286-1.533ZM21.79,21.093,20.5,22.625l-1.532-1.286,1.285-1.532ZM18,11h2v2H18Zm-.285,12.134,1.732,1-1,1.732-1.732-1Zm-1.926,3.718,1.879.684-.684,1.879-1.879-.684Zm-1.251,4,1.97.347-.347,1.97-1.97-.348ZM14,35h2v2H14Zm.191,4.183,1.97-.348.347,1.97-1.97.347Zm.914,4.086,1.879-.684.684,1.879-1.879.684Zm1.61,3.865,1.732-1,1,1.732-1.732,1Zm3.542,5.059-1.285-1.532L20.5,49.375l1.286,1.532Zm3.082,2.835-1.532-1.285,1.286-1.533L24.625,53.5Zm3.527,2.257-1.732-1,1-1.732,1.732,1Z"></path><path d="M56,36A18,18,0,1,0,38,54,18.021,18.021,0,0,0,56,36ZM38.8,45.6a1,1,0,0,1-1.6,0C36.565,44.754,31,37.212,31,33a7,7,0,0,1,14,0C45,37.212,39.435,44.754,38.8,45.6Z"></path><path d="M38,28a5.006,5.006,0,0,0-5,5c0,2.591,3.107,7.583,5,10.291,1.892-2.709,5-7.7,5-10.291A5.006,5.006,0,0,0,38,28Zm0,8a3,3,0,1,1,3-3A3,3,0,0,1,38,36Z"></path></g></svg>