<svg xmlns="http://www.w3.org/2000/svg" viewBox="0 0 64 64" x="0px" y="0px"><g data-name="Cloud-Cloud Computing-Processor-Chip-Cpu"><path d="M12,22a7.008,7.008,0,0,0,7,7h4V26.82a3,3,0,1,1,2,0V29h6V26.82a3,3,0,1,1,2,0V29h6V26.82a3,3,0,1,1,2,0V29h4a7,7,0,0,0,.79-13.95,1.029,1.029,0,0,1-.69-.4,1.006,1.006,0,0,1-.18-.77A5.532,5.532,0,0,0,45,13a5,5,0,0,0-5-5,4.921,4.921,0,0,0-2.16.5,1.022,1.022,0,0,1-1.28-.36A8.99,8.99,0,0,0,20,13c0,.3.02.6.05.9a1.036,1.036,0,0,1-.26.77,1,1,0,0,1-.74.33A7.019,7.019,0,0,0,12,22Zm33,3a3,3,0,0,0,3-3h2a5.006,5.006,0,0,1-5,5ZM29,6V8a5.006,5.006,0,0,0-5,5H22A7.008,7.008,0,0,1,29,6Z"></path><circle cx="40" cy="24" r="1"></circle><circle cx="32" cy="24" r="1"></circle><circle cx="24" cy="24" r="1"></circle><polygon points="28 48 33.588 48 36 45.586 36 40 28 40 28 48"></polygon><path d="M49.184,45a3,3,0,1,0,0-2H40V41h6a1,1,0,0,0,.707-.293L48.715,38.7A2.965,2.965,0,0,0,50,39a3,3,0,1,0-3-3,2.951,2.951,0,0,0,.3,1.285L45.586,39H40V36H38V33.414l2.707-2.707A1,1,0,0,0,41,30V29H39v.586l-2.707,2.707A1,1,0,0,0,36,33v3H33V29H31v7H28V33a1,1,0,0,0-.293-.707L25,29.586V29H23v1a1,1,0,0,0,.293.707L26,33.414V36H24v3H18.414L16.7,37.285A2.951,2.951,0,0,0,17,36a3,3,0,1,0-3,3,2.965,2.965,0,0,0,1.285-.3l2.008,2.008A1,1,0,0,0,18,41h6v2H14.816a3,3,0,1,0,0,2H24v2H18a1,1,0,0,0-.707.293L15.285,49.3A2.965,2.965,0,0,0,14,49a3,3,0,1,0,3,3,2.951,2.951,0,0,0-.3-1.285L18.414,49H24v3h2v2.586l-2.707,2.707A1,1,0,0,0,23,58v3h2V58.414l2.707-2.707A1,1,0,0,0,28,55V52h3v9h2V52h3v3a1,1,0,0,0,.293.707L39,58.414V61h2V58a1,1,0,0,0-.293-.707L38,54.586V52h2V49h5.586L47.3,50.715A2.951,2.951,0,0,0,47,52a3,3,0,1,0,3-3,2.965,2.965,0,0,0-1.285.3l-2.008-2.008A1,1,0,0,0,46,47H40V45ZM52,43a1,1,0,1,1-1,1A1,1,0,0,1,52,43Zm-2-8a1,1,0,1,1-1,1A1,1,0,0,1,50,35ZM14,37a1,1,0,1,1,1-1A1,1,0,0,1,14,37Zm-2,8a1,1,0,1,1,1-1A1,1,0,0,1,12,45Zm2,8a1,1,0,1,1,1-1A1,1,0,0,1,14,53Zm24-7a1,1,0,0,1-.292.707l-3,3A1,1,0,0,1,34,50H27a1,1,0,0,1-1-1V39a1,1,0,0,1,1-1H37a1,1,0,0,1,1,1Zm12,5a1,1,0,1,1-1,1A1,1,0,0,1,50,51Z"></path></g></svg>