<svg xmlns="http://www.w3.org/2000/svg" viewBox="0 0 64 64" x="0px" y="0px"><g data-name="Qr Code-Smartphone-Technology-Commerce-Payment"><path d="M19,61V60a.984.984,0,0,1,.2-.6L22,55.67V53.79a6.922,6.922,0,0,1,.24-1.81l1.86-6.97a.974.974,0,0,0-.1-.76.963.963,0,0,0-.6-.46,1.006,1.006,0,0,0-1.23.71l-1.15,4.3a3,3,0,0,1-2.92,2.21,2.956,2.956,0,0,1-2.53-1.45l-2.43-4.05A1,1,0,0,1,13,45V37.1A5.009,5.009,0,0,0,9,42V52.77a8.916,8.916,0,0,0,.27,2.18l.7,2.81A.986.986,0,0,1,10,58v3Z"></path><path d="M30,20H18a3.009,3.009,0,0,0-3,3V44.72l2.29,3.81a.987.987,0,0,0,1.8-.25l1.15-4.3a3.007,3.007,0,0,1,5.5-.73,3.032,3.032,0,0,1,.3,2.28l-.13.47H27v2H25.37l-.53,2H30a3.009,3.009,0,0,0,3-3V23A3.009,3.009,0,0,0,30,20ZM17,22h2v2H17Zm0,6a1,1,0,0,1,1-1h2a1,1,0,0,1,1,1v2a1,1,0,0,1-1,1H18a1,1,0,0,1-1-1Zm0,5h2v2H17Zm4,7a1,1,0,0,1-1,1H18a1,1,0,0,1-1-1V38a1,1,0,0,1,1-1h2a1,1,0,0,1,1,1Zm4,1H23V37h2Zm0-6H21V33h4Zm0-4H23V27h2Zm-4-7V22h6v2ZM31,40a1,1,0,0,1-1,1H27V39h2V37h2Zm0-5H27V33h4Zm0-5a1,1,0,0,1-1,1H28a1,1,0,0,1-1-1V28a1,1,0,0,1,1-1h2a1,1,0,0,1,1,1Z"></path><path d="M9,12V37.12a6.98,6.98,0,0,1,4-2.04V23a5,5,0,0,1,5-5H30a5,5,0,0,1,5,5V47a4.894,4.894,0,0,1-1.02,3H54a1,1,0,0,0,1-1V12Zm34,5h2v4H43Zm-2,8V23h4v2Zm4,2v4H43V27Zm-8-9a1,1,0,0,1,1-1h2a1,1,0,0,1,1,1v2a1,1,0,0,1-1,1H38a1,1,0,0,1-1-1Zm0,5h2v2H37Zm3,8H38a1,1,0,0,1-1-1V28a1,1,0,0,1,1-1h2a1,1,0,0,1,1,1v2A1,1,0,0,1,40,31ZM51,44H41V42H51Zm0-4H41V38H51Zm0-10a1,1,0,0,1-1,1H47V29h2V27h2Zm0-5H47V23h4Zm0-5a1,1,0,0,1-1,1H48a1,1,0,0,1-1-1V18a1,1,0,0,1,1-1h2a1,1,0,0,1,1,1Z"></path><path d="M54,4H10A1,1,0,0,0,9,5v5H55V5A1,1,0,0,0,54,4ZM13,8H11V6h2Zm4,0H15V6h2Zm4,0H19V6h2Z"></path></g></svg>