<svg xmlns="http://www.w3.org/2000/svg" viewBox="0 0 64 64" x="0px" y="0px"><g><rect x="29" y="25" width="6" height="2"></rect><rect x="24" y="21" width="16" height="2"></rect><path d="M33,29H31V59a1,1,0,0,0,2,0Z"></path><polygon points="30.165 18.977 30.573 16.664 28.409 4.4 26.474 4.744 29.51 19 30.165 18.977"></polygon><polygon points="20.983 7.701 19.16 8.516 23.83 19 26.01 19 20.983 7.701"></polygon><polygon points="43.016 6.701 37.54 19 39.73 19 44.84 7.516 43.016 6.701"></polygon><polygon points="32.193 19 34.221 19 36.561 5.75 34.591 5.4 32.193 19"></polygon><path d="M11,14a1,1,0,0,0,1-1V12a1,1,0,0,0-2,0v1A1,1,0,0,0,11,14Z"></path><path d="M9,14H8a1,1,0,0,0,0,2H9a1,1,0,0,0,0-2Z"></path><path d="M11,16a1,1,0,0,0-1,1v1a1,1,0,0,0,2,0V17A1,1,0,0,0,11,16Z"></path><path d="M14,14H13a1,1,0,0,0,0,2h1a1,1,0,0,0,0-2Z"></path><path d="M55,5a1,1,0,0,0,1-1V3a1,1,0,0,0-2,0V4A1,1,0,0,0,55,5Z"></path><path d="M53,7a1,1,0,0,0,0-2H52a1,1,0,0,0,0,2Z"></path><path d="M55,7a1,1,0,0,0-1,1V9a1,1,0,0,0,2,0V8A1,1,0,0,0,55,7Z"></path><path d="M58,5H57a1,1,0,0,0,0,2h1a1,1,0,0,0,0-2Z"></path><path d="M50.71,14.29a1,1,0,0,0-1.09-.21,1.155,1.155,0,0,0-.33.21,1.032,1.032,0,0,0-.21.33A1,1,0,0,0,49,15a.838.838,0,0,0,.08.38,1.169,1.169,0,0,0,.21.33,1.155,1.155,0,0,0,.33.21.942.942,0,0,0,.76,0,1.155,1.155,0,0,0,.33-.21,1.169,1.169,0,0,0,.21-.33.943.943,0,0,0,0-.76A1.032,1.032,0,0,0,50.71,14.29Z"></path><path d="M16.71,22.29a1.032,1.032,0,0,0-.33-.21,1,1,0,0,0-1.09.21,1.155,1.155,0,0,0-.21.33.942.942,0,0,0,0,.76,1.169,1.169,0,0,0,.21.33.99.99,0,0,0,1.09.21,1.155,1.155,0,0,0,.33-.21.99.99,0,0,0,.21-1.09A1.032,1.032,0,0,0,16.71,22.29Z"></path><path d="M12.29,5.71a1.155,1.155,0,0,0,.33.21.99.99,0,0,0,1.09-.21,1.169,1.169,0,0,0,.21-.33.943.943,0,0,0,0-.76,1.032,1.032,0,0,0-.21-.33,1.155,1.155,0,0,0-.33-.21.949.949,0,0,0-.58-.06.636.636,0,0,0-.18.06.757.757,0,0,0-.18.09,1.576,1.576,0,0,0-.15.12,1.032,1.032,0,0,0-.21.33A1,1,0,0,0,12,5a.838.838,0,0,0,.08.38A1.169,1.169,0,0,0,12.29,5.71Z"></path><path d="M53.38,19.08a.916.916,0,0,0-.76,0,1.155,1.155,0,0,0-.33.21,1.032,1.032,0,0,0-.21.33.99.99,0,0,0,1.3,1.3,1.155,1.155,0,0,0,.33-.21A.99.99,0,0,0,54,20a1.05,1.05,0,0,0-.29-.71A1.032,1.032,0,0,0,53.38,19.08Z"></path><path d="M46.71,21.29a1.047,1.047,0,0,0-1.42,0,1.032,1.032,0,0,0-.21.33.99.99,0,0,0,.21,1.09,1.155,1.155,0,0,0,.33.21.99.99,0,0,0,1.3-1.3A1.032,1.032,0,0,0,46.71,21.29Z"></path></g></svg>