<svg xmlns="http://www.w3.org/2000/svg" viewBox="0 0 64 64" x="0px" y="0px"><g><path d="M61.553,6.167a1,1,0,0,0-.941-.089L41.99,13.919,22.371,6.071a1.007,1.007,0,0,0-.759.007l-19,8A1,1,0,0,0,2,15V57a1,1,0,0,0,1.388.922L22.01,50.081l19.619,7.848a1.012,1.012,0,0,0,.759-.007l19-8A1,1,0,0,0,62,49V7A1,1,0,0,0,61.553,6.167ZM60,48.336,43,55.494V36H41V55.523l-18-7.2V44H21v4.336L4,55.494V15.664L21,8.506V38h2V8.477l18,7.2V30h2V15.664L60,8.506Z"></path><path d="M51,22.857V27h2V22.871a4.006,4.006,0,0,0,3-4.051h0a4,4,0,1,0-5,4.038ZM51.91,17c.031,0,.062,0,.092,0a2,2,0,0,1,.088,4A1.983,1.983,0,0,1,50,19.09,2,2,0,0,1,51.91,17Z"></path><path d="M13,44V37.871a4.006,4.006,0,0,0,3-4.051h0a4,4,0,1,0-5,4.038V44Zm-3-9.91A2,2,0,0,1,11.91,32c.031,0,.062,0,.092,0a2,2,0,1,1-2,2.09Z"></path><rect x="35.472" y="30.237" width="2" height="1.999" transform="translate(-7.777 49.889) rotate(-63.435)"></rect><rect x="31.894" y="28.447" width="2" height="2" transform="translate(-8.155 45.7) rotate(-63.435)"></rect><rect x="39.05" y="32.025" width="2" height="2" transform="translate(-7.399 54.077) rotate(-63.435)"></rect><rect x="42.689" y="32.325" width="2.001" height="1.999" transform="translate(-9.249 18.6) rotate(-21.791)"></rect><rect x="46.403" y="30.839" width="2" height="2" transform="translate(-8.43 19.862) rotate(-21.781)"></rect><rect x="50.119" y="29.362" width="1.951" height="2" transform="translate(-7.619 21.126) rotate(-21.781)"></rect><rect x="15.287" y="43.427" width="2" height="2" transform="translate(-20.542 14.717) rotate(-30.973)"></rect><rect x="18.718" y="41.37" width="2" height="2" transform="translate(-18.993 16.189) rotate(-30.973)"></rect><rect x="11.858" y="45.486" width="2" height="2" transform="translate(-22.09 13.245) rotate(-30.973)"></rect><rect x="29.671" y="43.468" width="1.999" height="1.999" transform="translate(-22.008 56.427) rotate(-68.196)"></rect><rect x="25.956" y="41.982" width="2" height="2" transform="translate(-22.962 52.054) rotate(-68.206)"></rect><rect x="22.242" y="40.497" width="2" height="2" transform="translate(-23.918 47.672) rotate(-68.206)"></rect><rect x="31" y="40" width="2" height="2"></rect><rect x="31" y="36" width="2" height="2"></rect><rect x="31" y="32" width="2" height="2"></rect></g></svg>