<svg xmlns="http://www.w3.org/2000/svg" viewBox="0 0 64 64" x="0px" y="0px"><g data-name="Online Payment"><path d="M55,40H53V38H51v2H49V38H44.779a14.068,14.068,0,0,1,2.851,4H56V38H55Z"></path><path d="M48.41,44A13.917,13.917,0,0,1,49,48h7V44H55v2H53V44H51v2H49V44Z"></path><path d="M56,56H55v2H53V56H51v2H49V56H46.473a14.09,14.09,0,0,1-4.3,4H56Z"></path><path d="M56,54V50H55v2H53V50H51v2H49V50h-.16a13.844,13.844,0,0,1-1.21,4Z"></path><path d="M35,36A12,12,0,1,0,47,48,12.01,12.01,0,0,0,35,36ZM33,47h4a3.009,3.009,0,0,1,3,3v2a3.009,3.009,0,0,1-3,3H36v2H34V55H33a3.009,3.009,0,0,1-3-3h2a1,1,0,0,0,1,1h4a1,1,0,0,0,1-1V50a1,1,0,0,0-1-1H33a3.009,3.009,0,0,1-3-3V44a3.009,3.009,0,0,1,3-3h1V39h2v2h1a3.009,3.009,0,0,1,3,3H38a1,1,0,0,0-1-1H33a1,1,0,0,0-1,1v2A1,1,0,0,0,33,47Z"></path><path d="M39,4H11A3.009,3.009,0,0,0,8,7V57a3.009,3.009,0,0,0,3,3H27.83A13.979,13.979,0,0,1,42,35.9V7A3.009,3.009,0,0,0,39,4ZM22,33H20V31h2Zm4,0H24V31h2Zm4,0H28V31h2Zm11-1H39V7H33.54a.934.934,0,0,1-.16.18L31.67,8.74A.971.971,0,0,1,31,9H19a.971.971,0,0,1-.67-.26L16.62,7.18A.934.934,0,0,1,16.46,7H11V57H22v2H11a2.006,2.006,0,0,1-2-2V7a2.006,2.006,0,0,1,2-2h5.46a2.024,2.024,0,0,1,1.59.77L19.39,7H30.61l1.34-1.23A2.024,2.024,0,0,1,33.54,5H39a2.006,2.006,0,0,1,2,2Z"></path></g></svg>