<svg xmlns="http://www.w3.org/2000/svg" viewBox="0 0 64 64" x="0px" y="0px"><g data-name="Goal"><path d="M39.618,56H32a1,1,0,0,1-.832-.445l-11.2-16.809L12,50h3a1,1,0,0,1,.707.293l2.979,2.979-1.414,1.414L14.586,52h-4L4.918,60h38.7Z"></path><path d="M59.127,60,36.951,24.855,28.327,37H38a1,1,0,0,1,.707.293l4.115,4.115-1.414,1.414L37.586,39H27v-.131l-2.347,3.305L32.532,54h7.5a1,1,0,0,1,.707.293L46.446,60Z"></path><rect x="36" y="20" width="2" height="2"></rect><path d="M15.5,31H21a1,1,0,0,0,.79-.386L27.4,23.4l.3,1.717,1.97-.344-.69-3.94a1,1,0,0,0-1.157-.813l-3.94.69.344,1.97,1.387-.243L20.511,29H15a1,1,0,0,0-.8.4l-9,12,1.6,1.2Z"></path><path d="M37,18a7,7,0,1,0-7-7A7.008,7.008,0,0,0,37,18Zm4-8h2v2H41Zm-4,2a2.993,2.993,0,0,1-1-5.816V5h2V6.184A3,3,0,0,1,40,9H38a1,1,0,1,0-1,1,2.993,2.993,0,0,1,1,5.816V17H36V15.816A3,3,0,0,1,34,13h2a1,1,0,1,0,1-1Zm-4-2v2H31V10Z"></path><path d="M54.941,15l-2.36-3H49V10h3.456L54.9,7H45.05a8.9,8.9,0,0,1,0,8Z"></path></g></svg>