<svg xmlns="http://www.w3.org/2000/svg" viewBox="0 0 64 64" x="0px" y="0px"><g><path d="M59,7H5a3,3,0,0,0-3,3V50a3,3,0,0,0,3,3H8v3a1,1,0,0,0,1,1h6a1,1,0,0,0,1-1V53H48v3a1,1,0,0,0,1,1h6a1,1,0,0,0,1-1V53h3a3,3,0,0,0,3-3V10A3,3,0,0,0,59,7ZM14,55H10V53h4Zm40,0H50V53h4Zm6-5a1,1,0,0,1-1,1H5a1,1,0,0,1-1-1V10A1,1,0,0,1,5,9H59a1,1,0,0,1,1,1Z"></path><path d="M47,13H11a3,3,0,0,0-3,3V44a3,3,0,0,0,3,3H47a3,3,0,0,0,3-3V16A3,3,0,0,0,47,13Zm1,31a1,1,0,0,1-1,1H11a1,1,0,0,1-1-1V16a1,1,0,0,1,1-1H47a1,1,0,0,1,1,1Z"></path><path d="M55,19a3,3,0,1,0,3,3A3,3,0,0,0,55,19Zm0,4a1,1,0,1,1,1-1A1,1,0,0,1,55,23Z"></path><path d="M55,27a3,3,0,1,0,3,3A3,3,0,0,0,55,27Zm0,4a1,1,0,1,1,1-1A1,1,0,0,1,55,31Z"></path><path d="M55,35a3,3,0,1,0,3,3A3,3,0,0,0,55,35Zm0,4a1,1,0,1,1,1-1A1,1,0,0,1,55,39Z"></path><rect x="52" y="15" width="6" height="2"></rect><path d="M45,17H41v2h3v3h2V18A1,1,0,0,0,45,17Z"></path><rect x="44" y="24" width="2" height="2"></rect><path d="M14,35h2.382l1.723,3.447A1,1,0,0,0,19,39H39a1,1,0,0,0,.9-.553L41.618,35H44V33H14Zm24.382,2H19.618l-1-2H39.382Z"></path><path d="M27.4,31h2a1.548,1.548,0,0,1,.411-1.08,3.607,3.607,0,0,0,0-4.5,1.631,1.631,0,0,1,0-2.167A3.491,3.491,0,0,0,30.6,21h-2a1.552,1.552,0,0,1-.412,1.083,3.611,3.611,0,0,0,0,4.5,1.628,1.628,0,0,1,0,2.164A3.492,3.492,0,0,0,27.4,31Z"></path><path d="M33.4,31h2a1.548,1.548,0,0,1,.411-1.08,3.607,3.607,0,0,0,0-4.5,1.631,1.631,0,0,1,0-2.167A3.491,3.491,0,0,0,36.6,21h-2a1.552,1.552,0,0,1-.412,1.083,3.611,3.611,0,0,0,0,4.5,1.628,1.628,0,0,1,0,2.164A3.492,3.492,0,0,0,33.4,31Z"></path><path d="M21.4,31h2a1.548,1.548,0,0,1,.411-1.08,3.607,3.607,0,0,0,0-4.5,1.631,1.631,0,0,1,0-2.167A3.491,3.491,0,0,0,24.6,21h-2a1.552,1.552,0,0,1-.412,1.083,3.611,3.611,0,0,0,0,4.5,1.628,1.628,0,0,1,0,2.164A3.492,3.492,0,0,0,21.4,31Z"></path></g></svg>