<svg xmlns="http://www.w3.org/2000/svg" viewBox="0 0 64 64" x="0px" y="0px"><g data-name="skyscraper-building-tower-city-real estate"><rect x="44" y="4" width="14" height="4"></rect><rect x="6" y="4" width="14" height="4"></rect><path d="M58,60V10H44V28h3a1,1,0,0,1,1,1V60H46V30H18V60H16V29a1,1,0,0,1,1-1h3V10H6V60H2v2H62V60ZM54,12h2v2H54Zm0,4h2v2H54Zm0,4h2v2H54Zm0,4h2v2H54Zm0,4h2v2H54Zm0,4h2v2H54Zm0,4h2v2H54Zm0,4h2v2H54Zm0,4h2v2H54Zm0,4h2v2H54Zm0,4h2v2H54Zm0,4h2v2H54ZM50,12h2v2H50Zm0,4h2v2H50Zm0,4h2v2H50Zm0,4h2v2H50Zm0,4h2v2H50Zm0,4h2v2H50Zm0,4h2v2H50Zm0,4h2v2H50Zm0,4h2v2H50Zm0,4h2v2H50Zm0,4h2v2H50Zm0,4h2v2H50ZM46,12h2v2H46Zm0,4h2v2H46Zm0,4h2v2H46Zm0,6V24h2v2ZM16,12h2v2H16Zm0,4h2v2H16Zm0,4h2v2H16Zm0,4h2v2H16ZM12,12h2v2H12Zm0,4h2v2H12Zm0,4h2v2H12Zm0,4h2v2H12Zm0,4h2v2H12Zm0,4h2v2H12Zm0,4h2v2H12Zm0,4h2v2H12Zm0,4h2v2H12Zm0,4h2v2H12Zm0,4h2v2H12Zm0,4h2v2H12ZM8,12h2v2H8Zm0,4h2v2H8Zm0,4h2v2H8Zm0,4h2v2H8Zm0,4h2v2H8Zm0,4h2v2H8Zm0,4h2v2H8Zm0,4h2v2H8Zm0,4h2v2H8Zm0,4h2v2H8Zm0,4h2v2H8Zm0,4h2v2H8ZM20,32H44v2H20Zm0,4H44v2H20Zm0,4H44v2H20Zm0,4H44v2H20Zm0,4H44v2H20ZM37,60V54H33v6H31V54H27v6H25V53a1,1,0,0,1,1-1H38a1,1,0,0,1,1,1v7Z"></path></g></svg>