<svg xmlns="http://www.w3.org/2000/svg" viewBox="0 0 64 64" x="0px" y="0px"><g><path d="M42,51v2a1,1,0,0,1-1,1H34.723A1.994,1.994,0,0,0,33,53H31a2,2,0,0,0,0,4h2a1.994,1.994,0,0,0,1.723-1H41a3,3,0,0,0,3-3V51Z"></path><path d="M21,49h1V43H21a3,3,0,0,0,0,6Z"></path><path d="M40,44.892V42a1,1,0,0,1,1-1h1V36a9.01,9.01,0,0,0-9-9H31a9.01,9.01,0,0,0-9,9v5h1a1,1,0,0,1,1,1v2.958Z"></path><path d="M42,49h1a3,3,0,0,0,0-6H42Z"></path><path d="M49.83,43.86,47.56,44A4.958,4.958,0,0,0,44,41.1V36A11.007,11.007,0,0,0,33,25H31A11.007,11.007,0,0,0,20,36v5.1A4.993,4.993,0,0,0,16.43,44H13a9,9,0,0,1-2.6-17.62.987.987,0,0,0,.71-.82A11.007,11.007,0,0,1,22,16c.15,0,.3.01.45.02l.21.01a1.015,1.015,0,0,0,.95-.53,13.985,13.985,0,0,1,26.15,3.98.994.994,0,0,0,.77.79,12,12,0,0,1-.7,23.59Z"></path></g></svg>