<svg xmlns="http://www.w3.org/2000/svg" viewBox="0 0 64 64" x="0px" y="0px"><g><path d="M47,47.71V50a2,2,0,0,0,4,0V47.71a7.042,7.042,0,0,1-4,0Z"></path><path d="M39.01,56H58.99a8.034,8.034,0,0,0-3.74-3.47l-2.52-1.11a3.986,3.986,0,0,1-7.46,0l-2.53,1.11A8.058,8.058,0,0,0,39.01,56Z"></path><path d="M46,40h6a2,2,0,0,0,0-4H46a2,2,0,0,0,0,4Zm4-3h2v2H50Zm-4,0h2v2H46Z"></path><path d="M51,28.29V28a2.85,2.85,0,0,1-.03.29Z"></path><path d="M4.07,27.81a1,1,0,0,0,.7.49.986.986,0,0,0,.81-.22L31.35,6.24a.987.987,0,0,1,1.29,0L58.42,27.96a1,1,0,0,0,1.28-1.53L32.64,3.84A1,1,0,0,0,32,3.61a1.025,1.025,0,0,0-.64.23L4.38,26.48A1.083,1.083,0,0,0,4.07,27.81Z"></path><path d="M44.05,34.53A3.926,3.926,0,0,1,46,34h6a3.926,3.926,0,0,1,1.95.53,4.969,4.969,0,0,0-9.9,0Z"></path><path d="M49,46a4.987,4.987,0,0,0,4.95-4.53A3.926,3.926,0,0,1,52,42H46a3.926,3.926,0,0,1-1.95-.53A4.987,4.987,0,0,0,49,46Z"></path><path d="M23,35a3,3,0,0,1,6,0v3h2V35a5,5,0,0,0-10,0v3h2Z"></path><path d="M14,60H36v-.15a10.01,10.01,0,0,1,5.93-9.14L45,49.35V46.74A7.01,7.01,0,0,1,42,41V35a7,7,0,0,1,5.03-6.71A2.85,2.85,0,0,1,47,28a2,2,0,0,1,4,0V24.32L32,8.31,13,24.42V59A1,1,0,0,0,14,60Zm3-20a2.006,2.006,0,0,1,2-2V35a7,7,0,0,1,14,0v3a2.006,2.006,0,0,1,2,2V50a2.006,2.006,0,0,1-2,2H19a2.006,2.006,0,0,1-2-2Z"></path><path d="M33,40H19V50H33Zm-6,5.722V48H25V45.722a2,2,0,1,1,2,0Z"></path><path d="M60,59.85A7.63,7.63,0,0,0,59.76,58H38.24A7.63,7.63,0,0,0,38,59.85V60H60Z"></path><path d="M25,35v3h2V35a1,1,0,0,0-2,0Z"></path></g></svg>