<svg xmlns="http://www.w3.org/2000/svg" viewBox="0 0 64 64" x="0px" y="0px"><g data-name="Television-TV Monitor-Antique-Vintage-Retro"><path d="M53,2H11A7.008,7.008,0,0,0,4,9V55a7.008,7.008,0,0,0,7,7H53a7.008,7.008,0,0,0,7-7V9A7.008,7.008,0,0,0,53,2Zm5,53a5.006,5.006,0,0,1-5,5H11a5.006,5.006,0,0,1-5-5V9a5.006,5.006,0,0,1,5-5H53a5.006,5.006,0,0,1,5,5Z"></path><path d="M53,6H11A3,3,0,0,0,8,9V47a3,3,0,0,0,3,3H53a3,3,0,0,0,3-3V9A3,3,0,0,0,53,6Zm1,41a1,1,0,0,1-1,1H11a1,1,0,0,1-1-1V9a1,1,0,0,1,1-1H53a1,1,0,0,1,1,1Z"></path><path d="M42,52a3,3,0,1,0,3,3A3,3,0,0,0,42,52Zm0,4a1,1,0,1,1,1-1A1,1,0,0,1,42,56Z"></path><path d="M50,52a3,3,0,1,0,3,3A3,3,0,0,0,50,52Zm0,4a1,1,0,1,1,1-1A1,1,0,0,1,50,56Z"></path><path d="M22,52a3,3,0,1,0,3,3A3,3,0,0,0,22,52Zm0,4a1,1,0,1,1,1-1A1,1,0,0,1,22,56Z"></path><path d="M14,52a3,3,0,1,0,3,3A3,3,0,0,0,14,52Zm0,4a1,1,0,1,1,1-1A1,1,0,0,1,14,56Z"></path><rect x="29" y="54" width="2" height="2"></rect><rect x="33" y="54" width="2" height="2"></rect><path d="M47,13H17a5.006,5.006,0,0,0-5,5V38a5.006,5.006,0,0,0,5,5H47a5.006,5.006,0,0,0,5-5V18A5.006,5.006,0,0,0,47,13Zm3,25a3,3,0,0,1-3,3H17a3,3,0,0,1-3-3V18a3,3,0,0,1,3-3H47a3,3,0,0,1,3,3Z"></path><rect x="12" y="10" width="2" height="2"></rect><rect x="50" y="10" width="2" height="2"></rect><rect x="12" y="44" width="2" height="2"></rect><rect x="50" y="44" width="2" height="2"></rect><path d="M16,20v2h2V20a1,1,0,0,1,1-1h2V17H19A3,3,0,0,0,16,20Z"></path><rect x="16" y="24" width="2" height="2"></rect></g></svg>