<svg xmlns="http://www.w3.org/2000/svg" viewBox="0 0 64 64" x="0px" y="0px"><g data-name="Air Conditioner-Air Conditioning-Cold-Cooling-Refreshing"><polygon points="26.293 47.293 24.586 49 23 49 23 47.414 24.707 45.707 23.293 44.293 22 45.586 20.707 44.293 19.293 45.707 21 47.414 21 49 19.414 49 17.707 47.293 16.293 48.707 17.586 50 16.293 51.293 17.707 52.707 19.414 51 21 51 21 52.586 19.293 54.293 20.707 55.707 22 54.414 23.293 55.707 24.707 54.293 23 52.586 23 51 24.586 51 26.293 52.707 27.707 51.293 26.414 50 27.707 48.707 26.293 47.293"></polygon><polygon points="46.293 47.293 44.586 49 43 49 43 47.414 44.707 45.707 43.293 44.293 42 45.586 40.707 44.293 39.293 45.707 41 47.414 41 49 39.414 49 37.707 47.293 36.293 48.707 37.586 50 36.293 51.293 37.707 52.707 39.414 51 41 51 41 52.586 39.293 54.293 40.707 55.707 42 54.414 43.293 55.707 44.707 54.293 43 52.586 43 51 44.586 51 46.293 52.707 47.707 51.293 46.414 50 47.707 48.707 46.293 47.293"></polygon><path d="M57,8H7a5,5,0,0,0-5,5V27a5,5,0,0,0,5,5H8v3a1,1,0,0,0,1,1H55a1,1,0,0,0,1-1V32h1a5,5,0,0,0,5-5V13A5,5,0,0,0,57,8ZM54,34H10V32H54Zm0-4H10V27a1,1,0,0,1,1-1H53a1,1,0,0,1,1,1Zm6-3a3.009,3.009,0,0,1-3,3H56V27a3.009,3.009,0,0,0-3-3H11a3.009,3.009,0,0,0-3,3v3H7a3.009,3.009,0,0,1-3-3V13a3.009,3.009,0,0,1,3-3H57a3.009,3.009,0,0,1,3,3Z"></path><rect x="31" y="38" width="2" height="4"></rect><rect x="41" y="38" width="2" height="4"></rect><rect x="21" y="38" width="2" height="4"></rect><rect x="36" y="38" width="2" height="2"></rect><rect x="51" y="38" width="2" height="4"></rect><rect x="46" y="38" width="2" height="2"></rect><rect x="26" y="38" width="2" height="2"></rect><rect x="11" y="38" width="2" height="4"></rect><rect x="16" y="38" width="2" height="2"></rect><rect x="54" y="20" width="2" height="2"></rect><rect x="49" y="20" width="2" height="2"></rect><rect x="44" y="20" width="2" height="2"></rect></g></svg>