<svg xmlns="http://www.w3.org/2000/svg" viewBox="0 0 64 64" x="0px" y="0px"><g data-name="Bill"><path d="M18,36h2a1,1,0,0,1,1,1h2a3,3,0,0,0-3-3V32H18v2a3,3,0,0,0,0,6h2a1,1,0,0,1,0,2H18a1,1,0,0,1-1-1H15a3,3,0,0,0,3,3v2h2V44a3,3,0,0,0,0-6H18a1,1,0,0,1,0-2Z"></path><path d="M61.316,2.051A1,1,0,0,0,60.2,2.4L58,5.333,55.8,2.4a1.036,1.036,0,0,0-1.6,0L52,5.333,49.8,2.4a1.036,1.036,0,0,0-1.6,0L46,5.333,43.8,2.4a1.036,1.036,0,0,0-1.6,0L40,5.333,37.8,2.4a1.036,1.036,0,0,0-1.6,0L34,5.333,31.8,2.4a1.036,1.036,0,0,0-1.6,0L28,5.333,25.8,2.4a1.036,1.036,0,0,0-1.6,0L22,5.333,19.8,2.4A1,1,0,0,0,18,3V15H13a1,1,0,0,0-.868,1.5l3.38,5.915A2.941,2.941,0,0,0,14.2,26.04C8.823,26.449,5,30.926,5,37V48a3,3,0,0,0,0,6H18v7a1,1,0,0,0,1.8.6L22,58.667,24.2,61.6a1.036,1.036,0,0,0,1.6,0L28,58.667,30.2,61.6a1.036,1.036,0,0,0,1.6,0L34,58.667,36.2,61.6a1.036,1.036,0,0,0,1.6,0L40,58.667,42.2,61.6a1.036,1.036,0,0,0,1.6,0L46,58.667,48.2,61.6a1.036,1.036,0,0,0,1.6,0L52,58.667,54.2,61.6a1.036,1.036,0,0,0,1.6,0L58,58.667,60.2,61.6a1,1,0,0,0,.8.4,1.019,1.019,0,0,0,.316-.051A1,1,0,0,0,62,61V3A1,1,0,0,0,61.316,2.051ZM23.277,17,20.42,22H17.58l-2.857-5ZM21,26H17a1,1,0,0,1,0-2h4a1,1,0,0,1,0,2ZM4,51a1,1,0,0,1,1-1,2,2,0,0,0,2-2V37c0-5.3,3.29-9,8-9h8a9.011,9.011,0,0,1,9,9V48a2,2,0,0,0,2,2,1,1,0,0,1,0,2H5A1,1,0,0,1,4,51Zm56,7-1.2-1.6a1.036,1.036,0,0,0-1.6,0L55,59.333,52.8,56.4a1.036,1.036,0,0,0-1.6,0L49,59.333,46.8,56.4a1.036,1.036,0,0,0-1.6,0L43,59.333,40.8,56.4a1.036,1.036,0,0,0-1.6,0L37,59.333,34.8,56.4a1.036,1.036,0,0,0-1.6,0L31,59.333,28.8,56.4a1.036,1.036,0,0,0-1.6,0L25,59.333,22.8,56.4a1.036,1.036,0,0,0-1.6,0L20,58V54H34a3,3,0,0,0,0-6h0V37A11.006,11.006,0,0,0,23.8,26.041a2.942,2.942,0,0,0-1.315-3.63l3.38-5.915A1,1,0,0,0,25,15H20V6l1.2,1.6a1.036,1.036,0,0,0,1.6,0L25,4.667,27.2,7.6a1.036,1.036,0,0,0,1.6,0L31,4.667,33.2,7.6a1.036,1.036,0,0,0,1.6,0L37,4.667,39.2,7.6a1.036,1.036,0,0,0,1.6,0L43,4.667,45.2,7.6a1.036,1.036,0,0,0,1.6,0L49,4.667,51.2,7.6a1.036,1.036,0,0,0,1.6,0L55,4.667,57.2,7.6a1.036,1.036,0,0,0,1.6,0L60,6Z"></path><rect x="31" y="12" width="4" height="2"></rect><rect x="37" y="12" width="10" height="2"></rect><rect x="31" y="16" width="16" height="2"></rect><rect x="36" y="28" width="14" height="2"></rect><rect x="52" y="28" width="4" height="2"></rect><rect x="36" y="24" width="14" height="2"></rect><rect x="52" y="24" width="4" height="2"></rect><rect x="36" y="32" width="14" height="2"></rect><rect x="52" y="32" width="4" height="2"></rect><rect x="36" y="36" width="14" height="2"></rect><rect x="52" y="36" width="4" height="2"></rect><rect x="36" y="40" width="14" height="2"></rect><rect x="52" y="40" width="4" height="2"></rect><rect x="36" y="44" width="14" height="2"></rect><rect x="52" y="44" width="4" height="2"></rect><rect x="38" y="48" width="12" height="2"></rect><rect x="52" y="48" width="4" height="2"></rect></g></svg>