<svg xmlns="http://www.w3.org/2000/svg" viewBox="0 0 64 64" x="0px" y="0px"><g><path d="M26,34.5V31.57a10.68,10.68,0,0,1-6,0V34.5l3,2.25Z"></path><path d="M44,30H37V44h7a4.924,4.924,0,0,1,3,1.03V33A3.009,3.009,0,0,0,44,30Zm1,12H39V40h6Zm0-4H39V36h6Zm0-4H39V32h6Z"></path><path d="M14,10.18A3,3,0,0,1,15,10h8a5,5,0,0,0,5-5V4H19a5,5,0,0,0-5,5Z"></path><polygon points="28.77 36.6 27.19 36.11 24.52 38.11 27.5 41.09 28.77 36.6"></polygon><path d="M49,45.03A4.924,4.924,0,0,1,52,44h7V30H52a3.009,3.009,0,0,0-3,3ZM51,32h6v2H51Zm0,4h6v2H51Zm0,4h6v2H51Z"></path><path d="M49.17,48H59V46H52A3.014,3.014,0,0,0,49.17,48Z"></path><path d="M27.89,10H31a3,3,0,0,1,1,.18V7H29.71A7.065,7.065,0,0,1,27.89,10Z"></path><path d="M34,20a2.015,2.015,0,0,0,2-2,2.006,2.006,0,0,0-2-2Z"></path><path d="M44,46H37v2h9.83A3.014,3.014,0,0,0,44,46Z"></path><polygon points="21.48 38.11 18.81 36.11 17.23 36.6 18.5 41.09 21.48 38.11"></polygon><rect x="41" y="58" width="18" height="2"></rect><path d="M37,59a1,1,0,0,0,1,1h1V58H38A1,1,0,0,0,37,59Z"></path><rect x="41" y="54" width="18" height="2"></rect><path d="M4,60h6V46h2V60H35.18A3,3,0,0,1,35,59a2.974,2.974,0,0,1,.78-2A2.974,2.974,0,0,1,35,55a3.009,3.009,0,0,1,3-3h4V50H36a1,1,0,0,1-1-1V38.55L30.68,37.2l-1.72,6.07a1,1,0,0,1-.71.7A1.068,1.068,0,0,1,28,44a1.007,1.007,0,0,1-.71-.29L23,39.41l-4.29,4.3A1.007,1.007,0,0,1,18,44a1.068,1.068,0,0,1-.25-.03,1,1,0,0,1-.71-.7L15.32,37.2l-6.41,2A6.964,6.964,0,0,0,4,45.88ZM22,42h2v2H22Zm0,4h2v2H22Zm0,4h2v2H22Z"></path><path d="M10,18a2.015,2.015,0,0,0,2,2V16A2.006,2.006,0,0,0,10,18Z"></path><path d="M39,54H38a1,1,0,0,0,0,2h1Z"></path><path d="M14,21a9,9,0,0,0,18,0V13a1,1,0,0,0-1-1H15a1,1,0,0,0-1,1Zm13-5a2,2,0,1,1-2,2A2,2,0,0,1,27,16Zm-2.016,7.25,1.323,1.5a5,5,0,0,1-6.614,0l1.323-1.5A3.076,3.076,0,0,0,24.984,23.25ZM19,16a2,2,0,1,1-2,2A2,2,0,0,1,19,16Z"></path></g></svg>