<svg xmlns="http://www.w3.org/2000/svg" viewBox="0 0 64 64" x="0px" y="0px"><g data-name="Mobile Game Console"><rect x="18" y="4" width="26" height="24"></rect><circle cx="41" cy="47" r="1"></circle><circle cx="46" cy="52" r="1"></circle><path d="M51,28a1,1,0,0,0,1-1V5a1,1,0,0,0-1-1H46V28ZM48,13h2v6H48Z"></path><circle cx="46" cy="42" r="1"></circle><path d="M7,8A1,1,0,0,0,6,9V32H58V9a1,1,0,0,0-1-1H54V27a3,3,0,0,1-3,3H13a3,3,0,0,1-3-3V8Z"></path><path d="M17,49v4h2V49a1,1,0,0,1,1-1h4V46H20a1,1,0,0,1-1-1V41H17v4a1,1,0,0,1-1,1H12v2h4A1,1,0,0,1,17,49Z"></path><path d="M12,27a1,1,0,0,0,1,1h3V4H13a1,1,0,0,0-1,1Z"></path><path d="M7,60H57a1,1,0,0,0,1-1V34H6V59A1,1,0,0,0,7,60Zm39-5a3,3,0,1,1,3-3A3,3,0,0,1,46,55Zm8-8a3,3,0,1,1-3-3A3,3,0,0,1,54,47Zm-8-8a3,3,0,1,1-3,3A3,3,0,0,1,46,39Zm-5,5a3,3,0,1,1-3,3A3,3,0,0,1,41,44Zm-6-5h2v2H35Zm-4,0h2v2H31Zm-4,0h2v2H27ZM10,45a1,1,0,0,1,1-1h4V40a1,1,0,0,1,1-1h4a1,1,0,0,1,1,1v4h4a1,1,0,0,1,1,1v4a1,1,0,0,1-1,1H21v4a1,1,0,0,1-1,1H16a1,1,0,0,1-1-1V50H11a1,1,0,0,1-1-1Z"></path><circle cx="51" cy="47" r="1"></circle></g></svg>