<svg xmlns="http://www.w3.org/2000/svg" viewBox="0 0 64 64" x="0px" y="0px"><g><path d="M61,16H54a1,1,0,0,0-1-1H45a1,1,0,0,0-1,1v1H42.657a2.983,2.983,0,0,1-2.122-.878L38.217,13.8A12.912,12.912,0,0,0,29.037,10l-10.718-.01H18.31a8.937,8.937,0,0,0-6.363,2.636L6.289,18.28a3.837,3.837,0,0,0,0,5.423,3.927,3.927,0,0,0,5.422,0l4.825-4.825A3.02,3.02,0,0,1,18.657,18H25a2,2,0,0,1,0,4H21a3.986,3.986,0,0,0-3.512,2.127A9.992,9.992,0,1,0,26,34a9.933,9.933,0,0,0-.854-4H44a1,1,0,0,0,1,1h8a1,1,0,0,0,1-1h7a1,1,0,0,0,1-1V17A1,1,0,0,0,61,16ZM24,34a8.046,8.046,0,1,1-6.993-7.931A4,4,0,0,0,21,30h1.9A7.933,7.933,0,0,1,24,34Zm-3-6a2,2,0,0,1,0-4h4a4,4,0,0,0,0-8H18.657a4.966,4.966,0,0,0-3.535,1.464L10.3,22.289a1.835,1.835,0,1,1-2.594-2.6l5.658-5.658a6.953,6.953,0,0,1,4.95-2.05h.006L29.035,12A10.93,10.93,0,0,1,36.8,15.217l2.318,2.319A4.968,4.968,0,0,0,42.657,19H44v9Zm31,1H46V17h6Zm8-1H54V18h6Z"></path><path d="M15,31h2a1,1,0,0,1,1,1h2a3,3,0,0,0-3-3V28H15v1a3,3,0,0,0,0,6h2a1,1,0,0,1,0,2H15a1,1,0,0,1-1-1H12a3,3,0,0,0,3,3v1h2V39a3,3,0,0,0,0-6H15a1,1,0,0,1,0-2Z"></path><path d="M47.973,48.264A1.92,1.92,0,0,0,48,48V44a2,2,0,0,0-2-2H32a2,2,0,0,0-2,2v4a1.991,1.991,0,0,0,1.027,1.736A1.936,1.936,0,0,0,31,50v4a2,2,0,0,0-2,2v4a2,2,0,0,0,2,2H45a2,2,0,0,0,2-2V56a2,2,0,0,0,2-2V50A1.991,1.991,0,0,0,47.973,48.264ZM32,44h2v2h2V44h2v2h2V44h2v2h2V44h2v4H32ZM45,60H31V56h2v2h2V56h2v2h2V56h2v2h2V56h2Zm2-6H33V50h2v2h2V50h2v2h2V50h2v2h2V50h2Z"></path><path d="M26,54V50a2,2,0,0,0-2-2H10a2,2,0,0,0-2,2v4a2,2,0,0,0,2,2v4a2,2,0,0,0,2,2H26a2,2,0,0,0,2-2V56A2,2,0,0,0,26,54ZM10,50h2v2h2V50h2v2h2V50h2v2h2V50h2v4H10ZM26,60H12V56h2v2h2V56h2v2h2V56h2v2h2V56h2Z"></path></g></svg>