<svg xmlns="http://www.w3.org/2000/svg" viewBox="0 0 64 64" x="0px" y="0px"><g><rect x="8" y="6" width="2" height="2"></rect><rect x="12" y="6" width="2" height="2"></rect><rect x="16" y="6" width="2" height="2"></rect><rect x="24" y="6" width="22" height="2"></rect><rect x="15" y="40" width="2" height="2"></rect><rect x="8.636" y="42.636" width="2" height="2" transform="translate(-28.029 19.588) rotate(-44.99)"></rect><rect x="6" y="49" width="2" height="2"></rect><rect x="24" y="49" width="2" height="2"></rect><rect x="21.364" y="42.636" width="2" height="2" transform="translate(-24.305 28.595) rotate(-45)"></rect><path d="M12.293,16.293l-3,3a1,1,0,0,0,0,1.414l3,3,1.414-1.414L11.414,20l2.293-2.293Z"></path><rect x="13.228" y="19" width="8.544" height="2" transform="translate(-7.371 29.363) rotate(-69.444)"></rect><path d="M25.707,19.293l-3-3-1.414,1.414L23.586,20l-2.293,2.293,1.414,1.414,3-3A1,1,0,0,0,25.707,19.293Z"></path><rect x="8" y="26" width="4" height="2"></rect><rect x="14" y="26" width="8" height="2"></rect><rect x="10" y="30" width="4" height="2"></rect><rect x="16" y="30" width="8" height="2"></rect><path d="M44,32a3,3,0,1,0,3,3A3,3,0,0,0,44,32Zm0,4a1,1,0,1,1,1-1A1,1,0,0,1,44,36Z"></path><rect x="43" y="40" width="2" height="2"></rect><rect x="39" y="25" width="2" height="2"></rect><rect x="47" y="25" width="2" height="2"></rect><path d="M62,25H60a2,2,0,0,1-4,0H54a3.982,3.982,0,0,0,1.619,3.2A2.972,2.972,0,0,0,55,30v3H51a1,1,0,0,0-.1-.447L49.618,30H50a3,3,0,0,0,3-3V25a3,3,0,0,0-2-2.816V18.5a2.5,2.5,0,0,0-5,0V22H42V18.5a2.5,2.5,0,0,0-5,0v3.684A3,3,0,0,0,35,25v2a3,3,0,0,0,3,3h.382L37.1,32.553A1,1,0,0,0,37,33H33V30a2.972,2.972,0,0,0-.619-1.8A3.982,3.982,0,0,0,34,25H32a2,2,0,0,1-4,0H26a3.982,3.982,0,0,0,1.619,3.2A2.972,2.972,0,0,0,27,30v6a3,3,0,0,0,3,3h7v1.586l-.707.707A1,1,0,0,0,36,42v2a1,1,0,0,0,.293.707l1,1A1,1,0,0,0,38,46h1v7a2.966,2.966,0,0,0,.184,1H26.22c.083-.209.173-.415.242-.631l2.679-.379A1,1,0,0,0,30,52V48a1,1,0,0,0-.859-.99l-2.68-.38a10.788,10.788,0,0,0-.682-1.639l1.631-2.17a1,1,0,0,0-.093-1.308l-2.83-2.83a1,1,0,0,0-1.307-.093l-2.171,1.631a10.859,10.859,0,0,0-1.64-.682L18.99,36.86A1,1,0,0,0,18,36H14a1,1,0,0,0-.99.86l-.379,2.679a10.859,10.859,0,0,0-1.64.682L8.82,38.59a1,1,0,0,0-1.307.093l-2.83,2.83a1,1,0,0,0-.093,1.308l1.631,2.17a10.788,10.788,0,0,0-.682,1.639L4,46.848V12H54V23h2V5a3,3,0,0,0-3-3H5A3,3,0,0,0,2,5V53a3,3,0,0,0,3,3H53a3,3,0,0,0,3-3V41H54V53a1,1,0,0,1-1,1H48.816A2.966,2.966,0,0,0,49,53V46h1a1,1,0,0,0,.707-.293l1-1A1,1,0,0,0,52,44V42a1,1,0,0,0-.293-.707L51,40.586V39h7a3,3,0,0,0,3-3V30a2.972,2.972,0,0,0-.619-1.8A3.982,3.982,0,0,0,62,25ZM48,18.5a.5.5,0,0,1,1,0V22H48ZM39.5,18a.5.5,0,0,1,.5.5V22H39V18.5A.5.5,0,0,1,39.5,18ZM37,27V25a1,1,0,0,1,1-1H50a1,1,0,0,1,1,1v2a1,1,0,0,1-1,1H38A1,1,0,0,1,37,27Zm-6,3v3.184a2.809,2.809,0,0,0-2,0V30a1,1,0,0,1,2,0Zm-2,6a1,1,0,1,1,1,1A1,1,0,0,1,29,36Zm3.816,1a2.809,2.809,0,0,0,0-2H37v2ZM6.461,48.52a1,1,0,0,0,.828-.744,8.716,8.716,0,0,1,.979-2.351A1,1,0,0,0,8.21,44.31l-1.5-2,1.6-1.6,2,1.5a1,1,0,0,0,1.115.058,8.773,8.773,0,0,1,2.352-.979,1,1,0,0,0,.744-.829L14.868,38h2.264l.347,2.46a1,1,0,0,0,.744.829,8.773,8.773,0,0,1,2.352.979,1,1,0,0,0,1.115-.058l2-1.5,1.6,1.6-1.5,2a1,1,0,0,0-.058,1.115,8.716,8.716,0,0,1,.979,2.351,1,1,0,0,0,.828.744L28,48.868v2.264l-2.461.348a1,1,0,0,0-.829.746A8.473,8.473,0,0,1,24.024,54H20.46a6,6,0,1,0-8.92,0H7.976a8.473,8.473,0,0,1-.686-1.774,1,1,0,0,0-.829-.746L4,51.132V48.868ZM12,50a4,4,0,1,1,4,4A4,4,0,0,1,12,50ZM5,4H53a1,1,0,0,1,1,1v5H4V5A1,1,0,0,1,5,4ZM4.032,53.156l1.506.213c.069.216.159.422.242.631H5A.988.988,0,0,1,4.032,53.156ZM47,47H45v2h2v2H45v2h2a1,1,0,0,1-1,1H42a1,1,0,0,1-1-1h2V51H41V49h2V47H41V46h6Zm3-3.414L49.586,44H38.414L38,43.586V42.414l.707-.707A1,1,0,0,0,39,41V33.236L40.618,30h6.764L49,33.236V41a1,1,0,0,0,.293.707l.707.707ZM51,35h4.184a2.809,2.809,0,0,0,0,2H51Zm7,2a1,1,0,1,1,1-1A1,1,0,0,1,58,37Zm1-7v3.184a2.809,2.809,0,0,0-2,0V30a1,1,0,0,1,2,0Z"></path></g></svg>