<svg xmlns="http://www.w3.org/2000/svg" viewBox="0 0 64 64" x="0px" y="0px"><g><path d="M32,34H4v3a3.009,3.009,0,0,0,3,3H32Z"></path><path d="M19,52H32V50H19a1,1,0,0,0-1,1,.928.928,0,0,0,.29.69A.949.949,0,0,0,19,52Z"></path><polygon points="32 42 22.88 42 22.13 48 32 48 32 42"></polygon><path d="M59,55a1,1,0,0,0,1-1V24a1,1,0,0,0-1-1H35a1,1,0,0,0-1,1V54a1,1,0,0,0,1,1h1.94l1.36-1.36a5,5,0,1,1,9.4,0L49.06,55Zm-3-6H50V47h6ZM38,27H56v2H38Zm14,5v2H42V32ZM38,37H56v2H38Zm0,7V42H56v2Z"></path><circle cx="43" cy="52" r="3"></circle><path d="M32,24a3.009,3.009,0,0,1,3-3H54V7a3.009,3.009,0,0,0-3-3H7A3.009,3.009,0,0,0,4,7V32H32Zm6-13H50v2H38Zm-4,0h2v2H34Zm0,4H50v2H34ZM26,29H10V27H26ZM10,25V23h2v2Zm16,0H14V23H26Zm4-7H28V13.309l-2,.546V19a1,1,0,0,1-1,1H11a1,1,0,0,1-1-1V13.855l-3.263-.89a1,1,0,0,1,0-1.93l11-3a1,1,0,0,1,.526,0l11,3A1,1,0,0,1,30,12Z"></path><polygon points="10.801 12 18 13.964 25.199 12 18 10.036 10.801 12"></polygon><path d="M18,16a1.022,1.022,0,0,1-.263-.035L12,14.4V18H24V14.4l-5.737,1.565A1.022,1.022,0,0,1,18,16Z"></path><path d="M38.64,61.36V58.54H35.81L37.35,57l1.8-1.8a4.979,4.979,0,0,0,2.79,1.66c.17.03.33.08.5.1A3.435,3.435,0,0,0,43,57Z"></path><path d="M50.19,58.54H47.36v2.82L43,57a3.435,3.435,0,0,0,.56-.04c.17-.02.33-.07.5-.1a4.979,4.979,0,0,0,2.79-1.66l1.8,1.8Z"></path></g></svg>