<svg xmlns="http://www.w3.org/2000/svg" viewBox="0 0 64 64" x="0px" y="0px"><g><rect x="59" y="19" width="1" height="9"></rect><circle cx="47" cy="32" r="3"></circle><path d="M54,45V42.141A4.007,4.007,0,0,0,51.126,45Z"></path><path d="M40,45h2.858A4,4,0,0,0,40,42.142Z"></path><rect x="56" y="19" width="1" height="9"></rect><path d="M54,23.91A6.006,6.006,0,0,1,49.091,19H44.91A6.007,6.007,0,0,1,40,23.91V40.09A6.008,6.008,0,0,1,44.91,45h4.18A6.008,6.008,0,0,1,54,40.09ZM47,37a5,5,0,1,1,5-5A5.006,5.006,0,0,1,47,37Z"></path><path d="M38,19V45a2.006,2.006,0,0,0,2,2H60v8H34.82A3,3,0,0,0,35,54V53H58a1,1,0,0,0,1-1V49H57v2H35V13H57v2h3v2H40A2.006,2.006,0,0,0,38,19Z"></path><rect x="56" y="30" width="4" height="4"></rect><rect x="56" y="36" width="1" height="9"></rect><rect x="59" y="36" width="1" height="9"></rect><path d="M29,14V13H7V51H29ZM15,45H13V43h2Zm4,0H17V43h2Zm4,0H21V43h2Zm-5-4a9,9,0,1,1,9-9A9.011,9.011,0,0,1,18,41Z"></path><path d="M18,25a7,7,0,1,0,7,7A7.008,7.008,0,0,0,18,25Zm-1,6h2a3,3,0,0,1,0,6v1H17V37a3,3,0,0,1-3-3h2a1,1,0,0,0,1,1h2a1,1,0,0,0,0-2H17a3,3,0,0,1,0-6V26h2v1a3,3,0,0,1,3,3H20a1,1,0,0,0-1-1H17a1,1,0,0,0,0,2Z"></path><path d="M33,54V15H31V54a1,1,0,0,0,2,0Z"></path><path d="M54,19H51.143A3.993,3.993,0,0,0,54,21.858Z"></path><path d="M4,16V55H29.184A2.966,2.966,0,0,1,29,54V53H6a1,1,0,0,1-1-1V16Z"></path><path d="M40,19v2.858A4,4,0,0,0,42.858,19Z"></path></g></svg>