<svg xmlns="http://www.w3.org/2000/svg" viewBox="0 0 64 64" x="0px" y="0px"><g data-name="Delivery Truck"><path d="M48.05,27.464A4.967,4.967,0,0,0,44.515,26H13.924a5,5,0,0,0-4.581,3L5.257,38.334A14.924,14.924,0,0,0,4,44.347V50H7v2H4.184A3,3,0,0,0,7,54H8.08a6.991,6.991,0,0,1,13.84,0H38V40H9.477A2,2,0,0,1,7.62,37.257l3.2-8A1.99,1.99,0,0,1,12.677,28H48.586ZM24,42h4v2H24Zm-6,0h4v2H18Zm-6,0h4v2H12Z"></path><path d="M15,50a5,5,0,1,0,5,5A5.006,5.006,0,0,0,15,50Zm1,6H14V54h2Z"></path><path d="M55.92,54H59a1,1,0,0,0,1-1V52H57V50h3V48H57a3,3,0,0,1,0-6h3v-.515A5,5,0,0,0,59.752,40H40V54h2.08a6.991,6.991,0,0,1,13.84,0ZM46,44H42V42h4Z"></path><path d="M38,38V30H12.677l-3.2,8H13V35a3,3,0,0,1,3-3h8a3,3,0,0,1,3,3v3h3V35a1,1,0,0,1,1-1h4a1,1,0,0,1,1,1v3Z"></path><rect x="15" y="37" width="10" height="1"></rect><rect x="32" y="36" width="2" height="2"></rect><path d="M56,45a1,1,0,0,0,1,1h3V44H57A1,1,0,0,0,56,45Z"></path><path d="M40,30v8H58.577c-.015-.016-.026-.035-.041-.05L50.586,30Z"></path><rect x="17" y="22" width="22" height="2"></rect><path d="M24,34H16a1,1,0,0,0-1,1H25A1,1,0,0,0,24,34Z"></path><polygon points="31.378 16 32.365 14 23.618 14 24.618 16 31.378 16"></polygon><path d="M28,9a4,4,0,0,0-3.858,3h7.716A4,4,0,0,0,28,9Z"></path><path d="M49,50a5,5,0,1,0,5,5A5.006,5.006,0,0,0,49,50Zm1,6H48V54h2Z"></path><path d="M13,20H43V4H13Zm7-8h2.09A6.008,6.008,0,0,1,27,7.09V6h2V7.09A6.008,6.008,0,0,1,33.91,12H36v2H34.6l-1.7,3.442A1,1,0,0,1,32,18H24a1,1,0,0,1-.895-.553L21.382,14H20Z"></path></g></svg>