<svg xmlns="http://www.w3.org/2000/svg" viewBox="0 0 64 64" x="0px" y="0px"><title>Logistic-Delivery-Shipping-International-Package</title><g><circle cx="59" cy="32" r="2"></circle><circle cx="56" cy="13" r="2"></circle><circle cx="56" cy="51" r="2"></circle><circle cx="46" cy="7" r="2"></circle><circle cx="46" cy="57" r="2"></circle><circle cx="18" cy="5" r="2"></circle><circle cx="18" cy="59" r="2"></circle><circle cx="8" cy="13" r="2"></circle><circle cx="8" cy="51" r="2"></circle><circle cx="5" cy="32" r="2"></circle><rect x="23" y="25" width="5" height="2"></rect><path d="M31.445,29.168a1,1,0,0,1,1.11,0L34,30.132V25H30v5.132Z"></path><polygon points="38.5 21 25.5 21 24 23 40 23 38.5 21"></polygon><rect x="36" y="25" width="5" height="2"></rect><path d="M41,29H36v3a1,1,0,0,1-1.555.832L32,31.2l-2.445,1.63A1,1,0,0,1,28,32V29H23V41H41Z"></path><path d="M32,49A17,17,0,1,0,15,32,17.019,17.019,0,0,0,32,49ZM21,24a1,1,0,0,1,.2-.6l3-4A1,1,0,0,1,25,19H39a1,1,0,0,1,.8.4l3,4a1,1,0,0,1,.2.6V41a2,2,0,0,1-2,2H23a2,2,0,0,1-2-2Z"></path><rect x="51" y="31" width="4" height="2"></rect><rect x="9" y="31" width="4" height="2"></rect><path d="M47,18.69H45V13a1,1,0,0,1,1-1h6v2H47Z"></path><path d="M37,12.46H35V7a1,1,0,0,1,1-1h6V8H37Z"></path><path d="M29,12.46H27V6H22V4h6a1,1,0,0,1,1,1Z"></path><path d="M19,18.69H17V14H12V12h6a1,1,0,0,1,1,1Z"></path><path d="M52,52H46a1,1,0,0,1-1-1V45.31h2V50h5Z"></path><path d="M42,58H36a1,1,0,0,1-1-1V51.54h2V56h5Z"></path><path d="M28,60H22V58h5V51.54h2V59A1,1,0,0,1,28,60Z"></path><path d="M18,52H12V50h5V45.31h2V51A1,1,0,0,1,18,52Z"></path></g></svg>