<svg xmlns="http://www.w3.org/2000/svg" viewBox="0 0 64 64" x="0px" y="0px"><g data-name="Smart Watch-Internet of Things-Wristwatch-Phone-Call"><path d="M43.8,16.081l-.532-2.129A9.037,9.037,0,0,1,43,11.769V5a3,3,0,0,0-3-3H24a3,3,0,0,0-3,3v6.769a8.97,8.97,0,0,1-.269,2.183L20.2,16.081A5,5,0,0,0,16,21V43a5,5,0,0,0,4.2,4.919l.532,2.129A8.97,8.97,0,0,1,21,52.231V59a3,3,0,0,0,3,3H40a3,3,0,0,0,3-3V52.231a9.037,9.037,0,0,1,.269-2.183l.532-2.129A5,5,0,0,0,48,43V21A5,5,0,0,0,43.8,16.081ZM22.672,14.437A11.006,11.006,0,0,0,23,11.769V5a1,1,0,0,1,1-1H40a1,1,0,0,1,1,1v6.769a10.97,10.97,0,0,0,.329,2.668L41.72,16H22.281ZM41.329,49.563A10.97,10.97,0,0,0,41,52.231V59a1,1,0,0,1-1,1H24a1,1,0,0,1-1-1V52.231a11.006,11.006,0,0,0-.328-2.668L22.281,48H41.72ZM46,43a3,3,0,0,1-3,3H21a3,3,0,0,1-3-3V21a3,3,0,0,1,3-3H43a3,3,0,0,1,3,3Z"></path><path d="M35.207,32.793a1,1,0,0,0-1.414,0L32.006,34.58a.963.963,0,0,1-.958.267,3.015,3.015,0,0,1-1.894-1.9.954.954,0,0,1,.266-.958l1.787-1.787a1,1,0,0,0,0-1.414l-3.63-3.63a1,1,0,0,0-1.348-.06,8.994,8.994,0,0,0,4.578,15.82A9.287,9.287,0,0,0,31.991,41,8.96,8.96,0,0,0,38.9,37.771a1,1,0,0,0-.06-1.348Zm-8.356-5.528L29.086,29.5l-1.08,1.08,0,.006-2.069-2.069A6.924,6.924,0,0,1,26.851,27.265Zm4.212,11.673a7.037,7.037,0,0,1-6-6,7.115,7.115,0,0,1,.092-2.37l1.974,1.973a2.775,2.775,0,0,0,.13,1.046,5.027,5.027,0,0,0,3.158,3.158,2.764,2.764,0,0,0,1.044.129l1.973,1.974A7.083,7.083,0,0,1,31.063,38.938Zm4.419-.87L33.413,36l.007-.006,1.08-1.08,2.235,2.235A6.93,6.93,0,0,1,35.482,38.068Z"></path><path d="M34,31h2a3,3,0,0,0-3-3v2A1,1,0,0,1,34,31Z"></path><path d="M33,24v2a5.006,5.006,0,0,1,5,5h2A7.009,7.009,0,0,0,33,24Z"></path></g></svg>