<svg xmlns="http://www.w3.org/2000/svg" viewBox="0 0 64 64" x="0px" y="0px"><g><rect x="46" y="16" width="2" height="2"></rect><path d="M57,8H38.92a4.952,4.952,0,0,0-3.9,1.88l-1.6,1.99v.01A3,3,0,0,1,31.08,13H3a1,1,0,0,0-1,1v6a1,1,0,0,0,1,1H14v7.16L6.53,32.12A.984.984,0,0,0,6,33v2a1,1,0,0,0,1,1h7v2H3a1,1,0,0,0-1,1v6a1,1,0,0,0,1,1H18.79l-.7,1.59a.988.988,0,0,0,.06.93,1,1,0,0,0,.79.48l7.14.39L29.61,60H27v2H37V60H31.72L28.23,49.51l5.77.33L34.01,52H32v2h2.02v1.59l-1.7,1.7,1.41,1.42,2-2a1.007,1.007,0,0,0,.29-.71L36,49.95l.56.03L39,52.41v3.18l-1.71,1.7,1.42,1.42,2-2A1.033,1.033,0,0,0,41,56V52a1.033,1.033,0,0,0-.29-.71l-3-3a1.076,1.076,0,0,0-.65-.29l-8.91-.49L28.3,46h5.76a4.945,4.945,0,0,0,2.23-.53l8.31-4.15A3,3,0,0,1,45.94,41H57a5,5,0,0,0,5-5V13A5,5,0,0,0,57,8ZM6,19H4V15H6ZM8,34v-.4l6-3.17V34ZM6,44H4V40H6Zm2,0V40h7a1,1,0,0,0,1-1V36h.59l3.7,3.71A1.033,1.033,0,0,0,21,40h.45l-1.77,4ZM32.2,30.4,29.5,34H27l1.8-2.4-1.6-1.2L24.5,34H22l1.8-2.4-1.6-1.2L19.5,34H17l1.8-2.4-1.6-1.2L16,32V29.37L24.25,25H32a5,5,0,0,1,5,5v2.28l-4.95,1.65L33.8,31.6Zm-6.04,17-5.66-.32L20.98,46h5.31Zm.33-3.4H21.87l1.77-4h3.25Zm-5.08-6-2-2H32a1.185,1.185,0,0,0,.32-.05l6-2A1.014,1.014,0,0,0,39,33V30h2a1,1,0,0,0,1-1V18a4,4,0,0,1,8,0v2H45a1,1,0,0,0-1,1V31.25a3,3,0,0,1-1.92,2.81L31.81,38ZM50.38,22l.97,1.94L49.41,22ZM60,36a3.009,3.009,0,0,1-3,3H45.94a4.945,4.945,0,0,0-2.23.53L35.4,43.68a3,3,0,0,1-1.34.32H28.5l.41-4H32a.922.922,0,0,0,.36-.07L42.8,35.92A4.969,4.969,0,0,0,46,31.25V22h.59l7.7,7.71A1.024,1.024,0,0,0,55,30a.959.959,0,0,0,.58-.19,1,1,0,0,0,.31-1.26L52,20.76V18a6,6,0,0,0-12,0V28H38.71A7.024,7.024,0,0,0,32,23H24a1,1,0,0,0-.47.12L16,27.1V20a1,1,0,0,0-1-1H8V15H31.08a4.952,4.952,0,0,0,3.9-1.88l1.6-1.99A2.976,2.976,0,0,1,38.92,10H57a3.009,3.009,0,0,1,3,3Z"></path></g></svg>