<svg xmlns="http://www.w3.org/2000/svg" viewBox="0 0 64 64" x="0px" y="0px"><g><path d="M50,31a2,2,0,0,1-2-2V7a1.993,1.993,0,0,1,1.006-1.725A14.817,14.817,0,0,0,43,4H29.391q-.672,0-1.336.051a17.954,17.954,0,0,0-15.121,11.18L6.385,35H12v9a5.006,5.006,0,0,0,5,5H31v2H26v9H48V49h1a9.011,9.011,0,0,0,9-9V31ZM17.5,26A4.505,4.505,0,0,1,13,21.5h2a2.5,2.5,0,0,0,5,0h2A4.505,4.505,0,0,1,17.5,26Z"></path><rect x="54" y="4" width="2" height="1"></rect><rect x="50" y="7" width="10.001" height="22"></rect></g></svg>