<svg xmlns="http://www.w3.org/2000/svg" viewBox="0 0 64 64" x="0px" y="0px"><g data-name="Ticket-Airplane-Flight-Travel-Boarding Pass"><rect x="38" y="25" width="2" height="2"></rect><rect x="38" y="29" width="2" height="2"></rect><rect x="38" y="33" width="2" height="2"></rect><rect x="38" y="37" width="2" height="2"></rect><path d="M59,23H58V20a3.009,3.009,0,0,0-3-3H43a3.012,3.012,0,0,0-2.4,1.2L39,20.33,37.4,18.2A3.012,3.012,0,0,0,35,17H5a3.009,3.009,0,0,0-3,3V44a3.009,3.009,0,0,0,3,3H6v3a3.009,3.009,0,0,0,3,3H39a3.041,3.041,0,0,0,2.4-1.2L43,49.67l1.6,2.13A3.041,3.041,0,0,0,47,53H59a3.009,3.009,0,0,0,3-3V26A3.009,3.009,0,0,0,59,23ZM42.2,19.4A1.014,1.014,0,0,1,43,19H55a1,1,0,0,1,1,1v1H41ZM4,20a1,1,0,0,1,1-1H35a1.014,1.014,0,0,1,.8.4L37,21H4ZM5,45a1,1,0,0,1-1-1V23H56V44a1,1,0,0,1-1,1H43a1.014,1.014,0,0,1-.8-.4l-2.4-3.2a1,1,0,0,0-1.6,0l-2.4,3.2a1.014,1.014,0,0,1-.8.4Zm55,5a1,1,0,0,1-1,1H47a1.014,1.014,0,0,1-.8-.4l-2.4-3.2a1.041,1.041,0,0,0-1.6,0l-2.4,3.2a1.014,1.014,0,0,1-.8.4H9a1,1,0,0,1-1-1V47H35a3.012,3.012,0,0,0,2.4-1.2L39,43.67l1.6,2.13A3.012,3.012,0,0,0,43,47H55a3.009,3.009,0,0,0,3-3V29h2Zm0-23H58V25h1a1,1,0,0,1,1,1Z"></path><path d="M33.71,33.29l-2-2A1.033,1.033,0,0,0,31,31H27.54l-3.71-5.55A1,1,0,0,0,23,25H21a.983.983,0,0,0-.81.42,1,1,0,0,0-.14.9L21.61,31h-.2l-1.7-1.71A1.033,1.033,0,0,0,19,29H17a1,1,0,0,0-1,1v6a1,1,0,0,0,1,1h4.61l-1.56,4.68a1,1,0,0,0,.14.9A.983.983,0,0,0,21,43h2a1,1,0,0,0,.83-.45L27.54,37H33a1,1,0,0,0,1-1V34A1.033,1.033,0,0,0,33.71,33.29ZM22.46,27l2.67,4H23.72l-1.33-4Zm0,14h-.07l1.33-4h1.41ZM32,35H18V31h.59l1.7,1.71A1.033,1.033,0,0,0,21,33h9.59L32,34.41Z"></path><rect x="6" y="31" width="8" height="2"></rect><rect x="6" y="27" width="8" height="2"></rect><rect x="6" y="35" width="8" height="2"></rect><rect x="6" y="39" width="8" height="2"></rect><rect x="44" y="27" width="10" height="2"></rect><rect x="44" y="31" width="6" height="2"></rect><rect x="44" y="35" width="8" height="2"></rect><rect x="44" y="39" width="6" height="2"></rect></g></svg>