<svg xmlns="http://www.w3.org/2000/svg" viewBox="0 0 64 64" x="0px" y="0px"><g data-name="Game Computer"><path d="M61,52H58V19a3,3,0,0,0-3-3H9a3,3,0,0,0-3,3V52H3a1,1,0,0,0-1,1v6a3,3,0,0,0,3,3H59a3,3,0,0,0,3-3V53A1,1,0,0,0,61,52ZM8,19a1,1,0,0,1,1-1H55a1,1,0,0,1,1,1V52H8ZM28,54h8v2H28Zm32,5a1,1,0,0,1-1,1H5a1,1,0,0,1-1-1V54H26v2a2,2,0,0,0,2,2h8a2,2,0,0,0,2-2V54H60Z"></path><path d="M27,32H24V29a1,1,0,0,0-1-1H19a1,1,0,0,0-1,1v3H15a1,1,0,0,0-1,1v4a1,1,0,0,0,1,1h3v3a1,1,0,0,0,1,1h4a1,1,0,0,0,1-1V38h3a1,1,0,0,0,1-1V33A1,1,0,0,0,27,32Zm-1,4H23a1,1,0,0,0-1,1v3H20V37a1,1,0,0,0-1-1H16V34h3a1,1,0,0,0,1-1V30h2v3a1,1,0,0,0,1,1h3Z"></path><rect x="29" y="28" width="2" height="2"></rect><rect x="33" y="28" width="2" height="2"></rect><path d="M43,28a7,7,0,1,0,7,7A7.008,7.008,0,0,0,43,28Zm1,11.9V38H42v1.9A5.016,5.016,0,0,1,38.1,36H40V34H38.1A5.016,5.016,0,0,1,42,30.1V32h2V30.1A5.016,5.016,0,0,1,47.9,34H46v2h1.9A5.016,5.016,0,0,1,44,39.9Z"></path><rect x="42" y="34" width="2" height="2"></rect><path d="M51,20H13a3,3,0,0,0-3,3V47a3,3,0,0,0,3,3H51a3,3,0,0,0,3-3V23A3,3,0,0,0,51,20ZM13,22H51a1,1,0,0,1,1,1v1.184A2.966,2.966,0,0,0,51,24H13a2.966,2.966,0,0,0-1,.184V23A1,1,0,0,1,13,22ZM52,43a1,1,0,0,1-1,1H13a1,1,0,0,1-1-1V27a1,1,0,0,1,1-1H51a1,1,0,0,1,1,1Zm-1,5H13a1,1,0,0,1-1-1V45.816A2.966,2.966,0,0,0,13,46H51a2.966,2.966,0,0,0,1-.184V47A1,1,0,0,1,51,48Z"></path><path d="M24,14a6,6,0,0,0,4.243-1.749,1,1,0,0,0,0-1.418L25.414,8l2.833-2.833a1,1,0,0,0,0-1.418A6,6,0,1,0,24,14ZM24,4a3.991,3.991,0,0,1,2.033.552l-2.74,2.741a1,1,0,0,0,0,1.414l2.74,2.741A4,4,0,1,1,24,4Z"></path><rect x="30" y="7" width="2" height="2"></rect><rect x="34" y="7" width="2" height="2"></rect><rect x="38" y="7" width="2" height="2"></rect><rect x="42" y="7" width="2" height="2"></rect></g></svg>