<svg xmlns="http://www.w3.org/2000/svg" viewBox="0 0 64 64" x="0px" y="0px"><g><path d="M56,40.764V10h3a3,3,0,0,0,0-6H55a3,3,0,0,0-2.816,2H11A3,3,0,0,0,8,9V40.764L2.105,52.553A1,1,0,0,0,2,53v4a3,3,0,0,0,3,3H59a3,3,0,0,0,3-3V53a1,1,0,0,0-.1-.447ZM40.618,52,38.9,48.553A1,1,0,0,0,38,48H26a1,1,0,0,0-.895.553L23.382,52H4.618l5-10H54.382l5,10Zm-2.236,0H25.618l1-2H37.382ZM55,6h4a1,1,0,0,1,0,2H55a1,1,0,0,1,0-2ZM48,22H46V20h2ZM32.181,12H36v2H32.514ZM42,16h2v2H42Zm-2,2H38V16h2Zm2-4V12h2v2Zm-2,0H38V12h2Zm-4,2v2H33.18l-.333-2Zm0,4v2H33.847l-.334-2Zm2,0h2v2H38Zm4,0h2v2H42Zm6-2H46V16h2Zm0-4H46V12h2ZM10,9a1,1,0,0,1,1-1H48.382l-.277.553A1,1,0,0,0,48,9v1H31a1,1,0,0,0-.986,1.165l2,12A1,1,0,0,0,33,24H48v2H33a3,3,0,0,0,0,6h.184A2.966,2.966,0,0,0,33,33a3,3,0,0,0,6,0,2.966,2.966,0,0,0-.184-1h2.368A2.966,2.966,0,0,0,41,33a3,3,0,0,0,6,0,2.966,2.966,0,0,0-.184-1H49V30H33a1,1,0,0,1,0-2H49a1,1,0,0,0,1-1V9.236L50.618,8h1.566A3,3,0,0,0,54,9.816V40H10ZM37,33a1,1,0,1,1-1-1A1,1,0,0,1,37,33Zm8,0a1,1,0,1,1-1-1A1,1,0,0,1,45,33ZM59,58H5a1,1,0,0,1-1-1V54H60v3A1,1,0,0,1,59,58Z"></path><rect x="10" y="48" width="2" height="2"></rect><rect x="14" y="48" width="2" height="2"></rect><rect x="48" y="48" width="2" height="2"></rect><rect x="52" y="48" width="2" height="2"></rect><rect x="15" y="44" width="2" height="2"></rect><rect x="11" y="44" width="2" height="2"></rect><rect x="19" y="44" width="2" height="2"></rect><rect x="23" y="44" width="2" height="2"></rect><rect x="27" y="44" width="2" height="2"></rect><rect x="31" y="44" width="2" height="2"></rect><rect x="35" y="44" width="2" height="2"></rect><rect x="39" y="44" width="2" height="2"></rect><rect x="43" y="44" width="2" height="2"></rect><rect x="47" y="44" width="2" height="2"></rect><rect x="51" y="44" width="2" height="2"></rect><rect x="18" y="48" width="4" height="2"></rect><rect x="42" y="48" width="4" height="2"></rect><rect x="16" y="18" width="10" height="2" transform="translate(-7.284 20.414) rotate(-45)"></rect><rect x="22.828" y="20.828" width="2" height="2" transform="translate(-8.456 23.243) rotate(-45)"></rect><rect x="17.172" y="15.171" width="2" height="2" transform="translate(-6.113 17.586) rotate(-45)"></rect><path d="M21,10a9,9,0,1,0,9,9A9.011,9.011,0,0,0,21,10Zm0,16a7,7,0,1,1,7-7A7.008,7.008,0,0,1,21,26Z"></path><rect x="14" y="30" width="2" height="2"></rect><rect x="18" y="30" width="6" height="2"></rect><rect x="14" y="34" width="10" height="2"></rect></g></svg>