<svg xmlns="http://www.w3.org/2000/svg" viewBox="0 0 64 64" x="0px" y="0px"><g data-name="Freppe-Coffee-Hand-Cold-Coffee Shop"><path d="M34.39,37.506a4.923,4.923,0,0,0,4.116-4.116,2.67,2.67,0,0,0-.6-2.119,3.51,3.51,0,0,0-.789.606,3.771,3.771,0,0,0-1.136,2.317,5.732,5.732,0,0,1-1.657,3.313C34.347,37.505,34.367,37.508,34.39,37.506Z"></path><path d="M44.9,17A5.009,5.009,0,0,0,40,13H30a5.009,5.009,0,0,0-4.9,4Z"></path><path d="M32.883,36.123a3.771,3.771,0,0,0,1.136-2.317,5.734,5.734,0,0,1,1.659-3.316l-.068,0a4.923,4.923,0,0,0-4.116,4.116,2.667,2.667,0,0,0,.6,2.116A3.48,3.48,0,0,0,32.883,36.123Z"></path><rect x="23" y="19" width="24" height="4" rx="1"></rect><path d="M54.68,49.63,41.05,57.51a14.956,14.956,0,0,1-9.16,1.92L19.11,58.01a.884.884,0,0,0-.23,0L3,59.88V48H16a1,1,0,0,0,.51-.14l2.63-1.58A9,9,0,0,1,23.77,45h1.3a9.149,9.149,0,0,1,3.35.64l3.21,1.29A.937.937,0,0,0,32,47h7a2,2,0,0,1,0,4H29v2H39.51a4.982,4.982,0,0,0,2.5-.67l10.67-6.16a2,2,0,1,1,2,3.46Z"></path><path d="M25.1,25l1.64,18.14a10.69,10.69,0,0,1,2.42.65L32.19,45h9.98a1,1,0,0,0,1-.92L44.91,25Zm15.39,8.61a6.874,6.874,0,0,1-5.88,5.88,4.3,4.3,0,0,1-.62.04,4.483,4.483,0,0,1-3.23-1.29,4.566,4.566,0,0,1-1.25-3.85,6.874,6.874,0,0,1,5.88-5.88,4.456,4.456,0,0,1,5.1,5.1Z"></path><path d="M42,2V4H37.8l-1.55,7H34.19l1.83-8.22A1.015,1.015,0,0,1,37,2Z"></path></g></svg>