<svg xmlns="http://www.w3.org/2000/svg" viewBox="0 0 64 64" x="0px" y="0px"><g data-name="Tooth Protection"><path d="M33.589,21.307l-1.178-1.616a8.088,8.088,0,0,1-8.823,0L22.41,21.307A9.527,9.527,0,0,0,28,23,9.522,9.522,0,0,0,33.589,21.307Z"></path><path d="M61,41H50.96a5,5,0,0,1-3.846-1.8l-.546-.667A6.989,6.989,0,0,0,41.18,36h-.193a20.581,20.581,0,0,1,2.053-3.747,10.861,10.861,0,0,0,1.682-3.819l.793.44a1,1,0,0,0,.97,0L49.313,27.3A13.006,13.006,0,0,0,56,15.939V10a1,1,0,0,0-.594-.914l-9-4a1,1,0,0,0-.812,0l-9,4A1,1,0,0,0,36,10v5.193a9.445,9.445,0,0,0-.943-.138,10.886,10.886,0,0,0-5.669.968,3.235,3.235,0,0,1-2.774,0A10.986,10.986,0,0,0,12.957,32.249,20.568,20.568,0,0,1,15.013,36H14.82a6.994,6.994,0,0,0-5.394,2.537l-.534.653A5,5,0,0,1,5.04,41H3a1,1,0,0,0-1,1V58a1,1,0,0,0,1,1H61a1,1,0,0,0,1-1V42A1,1,0,0,0,61,41ZM38,10.65l8-3.556,8,3.556v5.289a11.007,11.007,0,0,1-5.657,9.616L46,26.856l-2.343-1.3A11.007,11.007,0,0,1,38,15.939ZM13.072,24.833a8.993,8.993,0,0,1,12.7-7,5.284,5.284,0,0,0,4.466,0,8.914,8.914,0,0,1,4.642-.79,7.762,7.762,0,0,1,1.2.212A13,13,0,0,0,42.687,27.3l.183.1A8.852,8.852,0,0,1,41.4,31.112a22.517,22.517,0,0,0-2.8,5.566,23.659,23.659,0,0,0-.9,3.5l-1.388,7.994A1,1,0,0,1,35.32,49H33.76a1.006,1.006,0,0,1-1-.868l-1.1-8.522A3.008,3.008,0,0,0,28.69,37H27.31a3.008,3.008,0,0,0-2.972,2.612l-1.1,8.518a1.006,1.006,0,0,1-1,.87H20.68a1,1,0,0,1-.985-.821l-1.39-8a23.59,23.59,0,0,0-.9-3.5A22.5,22.5,0,0,0,14.6,31.107,9,9,0,0,1,13.072,24.833ZM60,57H4V43H5.04a7,7,0,0,0,5.394-2.537l.535-.653A5,5,0,0,1,14.82,38h.895a21.39,21.39,0,0,1,.619,2.521l1.392,8.005A3,3,0,0,0,20.68,51h1.56a3.013,3.013,0,0,0,2.982-2.612l1.1-8.518A1,1,0,0,1,27.31,39h1.38a1,1,0,0,1,.988.868l1.1,8.522A3.013,3.013,0,0,0,33.76,51h1.56a3,3,0,0,0,2.955-2.479l1.39-8A21.528,21.528,0,0,1,40.285,38h.9a4.993,4.993,0,0,1,3.845,1.8l.546.667A7,7,0,0,0,50.96,43H60Z"></path></g></svg>