<svg xmlns="http://www.w3.org/2000/svg" viewBox="0 0 64 64" x="0px" y="0px"><g data-name="avatar-man-young-account-profile"><path d="M46.92,35.31l-8.05-1.07a1,1,0,0,1-.87-.99V30.21A11.029,11.029,0,0,0,42.95,22H43a4,4,0,0,0,0-8V11a9.014,9.014,0,0,0-9-9H30a9.014,9.014,0,0,0-9,9v3a4,4,0,1,0,0,8h.05A11.029,11.029,0,0,0,26,30.21v3.04a1,1,0,0,1-.87.99l-8.06,1.07A7.031,7.031,0,0,0,11,42.25V61a1,1,0,0,0,1,1H52a1,1,0,0,0,1-1V42.25A7.031,7.031,0,0,0,46.92,35.31ZM43,16a2.006,2.006,0,0,1,2,2,2.015,2.015,0,0,1-2,2ZM21,20a2.015,2.015,0,0,1-2-2,2.006,2.006,0,0,1,2-2ZM19,60H13V55h6Zm7,0H21V48H19v5H13V42.25a5.018,5.018,0,0,1,4.34-4.95l8.06-1.08a2.928,2.928,0,0,0,.6-.15ZM23,11a7.008,7.008,0,0,1,7-7h4a7.008,7.008,0,0,1,7,7v2.82A3.01,3.01,0,0,1,39,11v-.76a1.98,1.98,0,0,0-.81-1.6,2.014,2.014,0,0,0-1.81-.29,15.365,15.365,0,0,1-8.76,0,2.014,2.014,0,0,0-1.81.29,1.98,1.98,0,0,0-.81,1.6V11a3.01,3.01,0,0,1-2,2.82Zm0,10V15.9A5.017,5.017,0,0,0,27,11l.01-.75A17.173,17.173,0,0,0,37,10.24V11a5.017,5.017,0,0,0,4,4.9V21a9,9,0,0,1-18,0ZM36,60H28V43.06a8.981,8.981,0,0,0,8,0Zm0-19.31a6.762,6.762,0,0,1-8,0V31.24a10.906,10.906,0,0,0,8,0ZM51,60H45V55h6Zm0-7H45V48H43V60H38V36.07a2.928,2.928,0,0,0,.6.15l8.06,1.08A5.018,5.018,0,0,1,51,42.25Z"></path><path d="M29,19h2a3,3,0,0,0-6,0h2a1,1,0,0,1,2,0Z"></path><path d="M36,18a1,1,0,0,1,1,1h2a3,3,0,0,0-6,0h2A1,1,0,0,1,36,18Z"></path><path d="M36.33,24.5l-1.73-1a3,3,0,0,1-5.2,0l-1.732,1a5,5,0,0,0,8.661,0Z"></path></g></svg>