<svg xmlns="http://www.w3.org/2000/svg" viewBox="0 0 64 64" x="0px" y="0px"><g data-name="skyscraper-building-tower-city-real estate"><rect x="19" y="26" width="2" height="2"></rect><rect x="19" y="30" width="2" height="2"></rect><rect x="19" y="34" width="2" height="2"></rect><rect x="19" y="38" width="2" height="2"></rect><rect x="19" y="42" width="2" height="2"></rect><rect x="19" y="46" width="2" height="2"></rect><rect x="15" y="26" width="2" height="2"></rect><rect x="31" y="26" width="2" height="2"></rect><rect x="27" y="26" width="2" height="2"></rect><rect x="39" y="26" width="2" height="2"></rect><rect x="35" y="26" width="2" height="2"></rect><rect x="31" y="30" width="2" height="2"></rect><rect x="27" y="30" width="2" height="2"></rect><rect x="39" y="30" width="2" height="2"></rect><rect x="35" y="30" width="2" height="2"></rect><rect x="31" y="34" width="2" height="2"></rect><rect x="27" y="34" width="2" height="2"></rect><rect x="39" y="34" width="2" height="2"></rect><rect x="35" y="34" width="2" height="2"></rect><rect x="31" y="38" width="2" height="2"></rect><rect x="27" y="38" width="2" height="2"></rect><rect x="39" y="38" width="2" height="2"></rect><rect x="35" y="38" width="2" height="2"></rect><rect x="31" y="42" width="2" height="2"></rect><rect x="27" y="42" width="2" height="2"></rect><rect x="39" y="42" width="2" height="2"></rect><rect x="35" y="42" width="2" height="2"></rect><rect x="31" y="46" width="2" height="2"></rect><rect x="27" y="46" width="2" height="2"></rect><rect x="39" y="46" width="2" height="2"></rect><rect x="35" y="46" width="2" height="2"></rect><rect x="31" y="50" width="2" height="2"></rect><rect x="27" y="50" width="2" height="2"></rect><rect x="39" y="50" width="2" height="2"></rect><rect x="35" y="50" width="2" height="2"></rect><rect x="19" y="22" width="2" height="2"></rect><rect x="15" y="22" width="2" height="2"></rect><rect x="19" y="18" width="2" height="2"></rect><rect x="15" y="18" width="2" height="2"></rect><rect x="15" y="30" width="2" height="2"></rect><rect x="15" y="34" width="2" height="2"></rect><rect x="15" y="38" width="2" height="2"></rect><rect x="15" y="42" width="2" height="2"></rect><rect x="15" y="46" width="2" height="2"></rect><rect x="19" y="50" width="2" height="2"></rect><rect x="19" y="54" width="2" height="2"></rect><rect x="15" y="50" width="2" height="2"></rect><rect x="15" y="54" width="2" height="2"></rect><path d="M53,60V7a1,1,0,0,0-1-1H49V2H47V6H45V4H43V6H40a1,1,0,0,0-1,1V22H25V15a1,1,0,0,0-1-1H21V12H19v2H17V8H15v6H12a1,1,0,0,0-1,1V60H7v2H57V60ZM23,60H13V16H23Zm10,0H31V56h2Zm4,0H35V56h2Zm6,0H39V55a1,1,0,0,0-1-1H30a1,1,0,0,0-1,1v5H25V24H43Zm8,0H45V23a1,1,0,0,0-1-1H41V8H51Z"></path><rect x="47" y="22" width="2" height="2"></rect><rect x="47" y="26" width="2" height="2"></rect><rect x="47" y="30" width="2" height="2"></rect><rect x="47" y="34" width="2" height="2"></rect><rect x="47" y="38" width="2" height="2"></rect><rect x="47" y="42" width="2" height="2"></rect><rect x="47" y="46" width="2" height="2"></rect><rect x="47" y="50" width="2" height="2"></rect><rect x="47" y="54" width="2" height="2"></rect><rect x="47" y="18" width="2" height="2"></rect><rect x="43" y="18" width="2" height="2"></rect><rect x="47" y="14" width="2" height="2"></rect><rect x="43" y="14" width="2" height="2"></rect><rect x="47" y="10" width="2" height="2"></rect><rect x="43" y="10" width="2" height="2"></rect></g></svg>