<svg xmlns="http://www.w3.org/2000/svg" viewBox="0 0 64 64" x="0px" y="0px"><g><path d="M43,37.949V53a1,1,0,0,0,2,0V37.949c-.331.028-.662.051-1,.051S43.331,37.977,43,37.949Z"></path><circle cx="44" cy="26" r="7"></circle><path d="M44,16A10,10,0,1,0,54,26,10.016,10.016,0,0,0,44,16Zm0,19a9,9,0,1,1,9-9A9.014,9.014,0,0,1,44,35Z"></path><path d="M52,34.9V40H47V37.61A11.961,11.961,0,0,0,52,34.9Z"></path><path d="M52,42v3a3.009,3.009,0,0,1-3,3H47V42Z"></path><polygon points="38 58 18 58 18 60 14 60 14 62 42 62 42 60 38 60 38 58"></polygon><polygon points="35 5.414 35 8 37.586 8 35 5.414"></polygon><polygon points="21.133 56 34.867 56 34.117 50 21.883 50 21.133 56"></polygon><path d="M13,38a2.006,2.006,0,0,1-2-2V12H7a3.009,3.009,0,0,0-3,3V40H41V38Zm24.38-2A11.994,11.994,0,0,1,39,15.09V10H35a2.006,2.006,0,0,1-2-2V4H13V36ZM16,8h4v2H16Zm0,12h2v2H16Zm13,8H16V26H29Zm1-6H20V20H30Zm0-6H16V14H30Zm0-6H22V8h8ZM4,42v3a3.009,3.009,0,0,0,3,3H41V42ZM49,12H41v2.38a11.955,11.955,0,0,1,11,2.7V15A3.009,3.009,0,0,0,49,12Z"></path></g></svg>