<svg xmlns="http://www.w3.org/2000/svg" viewBox="0 0 64 64" x="0px" y="0px"><g><path d="M41,10H35a1,1,0,0,0,0,2h6a1,1,0,0,0,0-2Z"></path><path d="M28,10H22a1,1,0,0,0,0,2h6a1,1,0,0,0,0-2Z"></path><path d="M17.9,24.358a8.369,8.369,0,0,0,2.435.3,8.326,8.326,0,0,0,3.332-.6,10.313,10.313,0,0,1,4-.719,10.345,10.345,0,0,1,4.019.724c.115.042.229.08.343.12a8.012,8.012,0,0,0-4.356-3.722A1,1,0,0,1,27,19.52V14H23v5.52a1,1,0,0,1-.666.942A8.063,8.063,0,0,0,17.9,24.358ZM23,21h2v2H23Z"></path><path d="M31.349,26.066c-.116-.04-.238-.08-.35-.121a8.3,8.3,0,0,0-3.339-.605,8.294,8.294,0,0,0-3.321.6,10.327,10.327,0,0,1-4.009.72,10.333,10.333,0,0,1-3.122-.42A7.75,7.75,0,0,0,17,28a8.009,8.009,0,0,0,8,8,7.882,7.882,0,0,0,2.325-.353,2.968,2.968,0,0,1,.228-1.989ZM22,31H20V29h2Zm5,3H25V32h2Zm-1-5V27h2v2Z"></path><path d="M30.236,36H45.764a1,1,0,0,0,.894-1.447L43.882,29H32.118l-2.776,5.553A1,1,0,0,0,30.236,36ZM40,31h2v2H40Zm-4,1h2v2H36Z"></path><path d="M34,20.764V16H29v2.841a10.029,10.029,0,0,1,4.221,3.481Z"></path><path d="M40,21V14H36v7a1,1,0,0,1-.1.447L33.118,27h9.764L40.1,21.447A1,1,0,0,1,40,21Zm0,4H38V23h2Z"></path><path d="M12,17V42H52V17a1,1,0,0,0-1-1H42v4.764l6.447,12.894A3,3,0,0,1,45.764,38H30.236a2.965,2.965,0,0,1-1.8-.626A9.81,9.81,0,0,1,25,38,10.011,10.011,0,0,1,15,28a9.771,9.771,0,0,1,.6-3.386A10.057,10.057,0,0,1,21,18.841V16H13A1,1,0,0,0,12,17Z"></path><rect x="29" y="56" width="6" height="1"></rect><path d="M6,59a1,1,0,0,0,1,1H57a1,1,0,0,0,1-1V56H37v1a2,2,0,0,1-2,2H29a2,2,0,0,1-2-2V56H6Z"></path><path d="M57.382,54l-5-10H11.618l-5,10ZM52,52H50V50h2Zm-3-6h2v2H49Zm-4,0h2v2H45Zm-6,0h2v2H39Zm-4,0h2v2H35Zm-4,0h2v2H31Zm-4,0h2v2H27Zm-4,0h2v2H23Zm-6,0h4v2H17Zm-1,4H48v2H16Zm-3-4h2v2H13Zm-1,4h2v2H12Z"></path><path d="M39,5h4a2,2,0,0,0,2-2V2H43V3H39a2,2,0,0,0-2,2V6h2Z"></path><rect x="26" y="4" width="2" height="2"></rect><rect x="22" y="3" width="2" height="2"></rect></g></svg>