<svg xmlns="http://www.w3.org/2000/svg" viewBox="0 0 64 64" x="0px" y="0px"><g data-name="Qr Code-Smartphone-Technology-Commerce-Payment"><path d="M30,18H18a5,5,0,0,0-5,5V35.08A7,7,0,0,0,7,42V52.77a10.908,10.908,0,0,0,.33,2.67L8,58.12V62h2V58a.986.986,0,0,0-.03-.24l-.7-2.81A8.916,8.916,0,0,1,9,52.77V42a5.009,5.009,0,0,1,4-4.9V45a1,1,0,0,0,.14.51l2.43,4.05a2.956,2.956,0,0,0,2.53,1.45,3,3,0,0,0,2.92-2.21l1.15-4.3a1.006,1.006,0,0,1,1.23-.71.963.963,0,0,1,.6.46.974.974,0,0,1,.1.76l-1.86,6.97A6.922,6.922,0,0,0,22,53.79v1.88L19.2,59.4a.984.984,0,0,0-.2.6v2h2V60.33l2.8-3.73A.984.984,0,0,0,24,56V53.79a5.074,5.074,0,0,1,.17-1.29l.13-.5H30a5,5,0,0,0,5-5V23A5,5,0,0,0,30,18Zm3,29a3.009,3.009,0,0,1-3,3H24.84l.53-2H27V46H25.91l.13-.47a3.032,3.032,0,0,0-.3-2.28,3.007,3.007,0,0,0-5.5.73l-1.15,4.3a.987.987,0,0,1-1.8.25L15,44.72V23a3.009,3.009,0,0,1,3-3H30a3.009,3.009,0,0,1,3,3Z"></path><rect x="21" y="22" width="6" height="2"></rect><rect x="17" y="22" width="2" height="2"></rect><rect x="17" y="27" width="4" height="4" rx="1"></rect><rect x="27" y="27" width="4" height="4" rx="1"></rect><rect x="17" y="37" width="4" height="4" rx="1"></rect><path d="M29,39H27v2h3a1,1,0,0,0,1-1V37H29Z"></path><rect x="23" y="27" width="2" height="4"></rect><rect x="27" y="33" width="4" height="2"></rect><rect x="21" y="33" width="4" height="2"></rect><rect x="23" y="37" width="2" height="4"></rect><rect x="17" y="33" width="2" height="2"></rect><path d="M54,2H10A3.009,3.009,0,0,0,7,5V35H9V12H55V49a1,1,0,0,1-1,1H36v2H54a3.009,3.009,0,0,0,3-3V5A3.009,3.009,0,0,0,54,2Zm1,8H9V5a1,1,0,0,1,1-1H54a1,1,0,0,1,1,1Z"></path><rect x="11" y="6" width="2" height="2"></rect><rect x="15" y="6" width="2" height="2"></rect><rect x="19" y="6" width="2" height="2"></rect><rect x="37" y="17" width="4" height="4" rx="1"></rect><rect x="47" y="17" width="4" height="4" rx="1"></rect><rect x="37" y="27" width="4" height="4" rx="1"></rect><path d="M47,31h3a1,1,0,0,0,1-1V27H49v2H47Z"></path><rect x="43" y="17" width="2" height="4"></rect><rect x="47" y="23" width="4" height="2"></rect><rect x="41" y="23" width="4" height="2"></rect><rect x="43" y="27" width="2" height="4"></rect><rect x="37" y="23" width="2" height="2"></rect><rect x="41" y="38" width="10" height="2"></rect><rect x="41" y="42" width="10" height="2"></rect></g></svg>