<svg xmlns="http://www.w3.org/2000/svg" viewBox="0 0 64 64" x="0px" y="0px"><g data-name="Light"><path d="M44,2H20a1,1,0,0,0-1,1V7a1,1,0,0,0,1,1H31V24H30a2,2,0,0,0-2,2v2a2,2,0,0,0-2,2v3a.984.984,0,0,0,.022.108A29.606,29.606,0,0,0,25,41c0,8.551,3.01,15,7,15s7-6.449,7-15a29.606,29.606,0,0,0-1.022-7.892A.984.984,0,0,0,38,33V30a2,2,0,0,0-2-2V26a2,2,0,0,0-2-2H33V8H44a1,1,0,0,0,1-1V3A1,1,0,0,0,44,2ZM28,30h8v2H28Zm4,24c-2.365,0-5-5.339-5-13a28.059,28.059,0,0,1,.839-7H31.13l-.962,1.442a1,1,0,0,0,0,1.11l1.63,2.443-1.63,2.448a1,1,0,0,0,0,1.109l2,3,1.664-1.108L32.2,42l1.631-2.449a1,1,0,0,0,0-1.11L32.2,36l1.333-2h2.626A28.059,28.059,0,0,1,37,41C37,48.661,34.365,54,32,54Zm2-26H30V26h4ZM43,6H21V4H43Z"></path><rect x="31" y="58" width="2" height="4"></rect><rect x="41" y="42" width="4" height="2"></rect><rect x="40" y="50.764" width="2" height="4.472" transform="translate(-24.74 65.969) rotate(-63.435)"></rect><rect x="19" y="42" width="4" height="2"></rect><rect x="20.764" y="52" width="4.472" height="2" transform="translate(-21.274 15.881) rotate(-26.565)"></rect></g></svg>