<svg xmlns="http://www.w3.org/2000/svg" viewBox="0 0 64 64" x="0px" y="0px"><g data-name="Report-Check List"><path d="M50,8H40V7a5.006,5.006,0,0,0-5-5H29a5.006,5.006,0,0,0-5,5V8H14a7.008,7.008,0,0,0-7,7V55a7.008,7.008,0,0,0,7,7H50a7.008,7.008,0,0,0,7-7V15A7.008,7.008,0,0,0,50,8ZM26,13V7a3,3,0,0,1,3-3h6a3,3,0,0,1,3,3v6a1,1,0,0,0,1,1,5.006,5.006,0,0,1,5,5v1H20V19a5.006,5.006,0,0,1,5-5A1,1,0,0,0,26,13Zm19,9a1,1,0,0,0,1-1V19a6.956,6.956,0,0,0-.3-2H48V54a1,1,0,0,1-1,1,2.994,2.994,0,0,1-.595-.06c-.078-.016-.455-.128-.562-.173-.064-.027-.412-.208-.517-.279-.017-.011-.031-.027-.048-.038a3.053,3.053,0,0,1-.65-.634c-.038-.05-.084-.094-.118-.146s-.231-.405-.278-.516c-.034-.083-.151-.457-.172-.56A2.984,2.984,0,0,1,44,52V49a2,2,0,0,0-2-2H16V17h2.3a6.956,6.956,0,0,0-.3,2v2a1,1,0,0,0,1,1ZM43,55H16a3,3,0,0,1-3-3V49H42v3a4.958,4.958,0,0,0,.089.909c.017.091.046.179.068.269a5.086,5.086,0,0,0,.182.6c.038.1.082.194.126.29a4.9,4.9,0,0,0,.283.531c.055.089.108.179.169.265C42.947,54.909,42.97,54.957,43,55Zm12,0a5.006,5.006,0,0,1-5,5H14a5.006,5.006,0,0,1-5-5V15a5.006,5.006,0,0,1,5-5H24v2.071A7.006,7.006,0,0,0,19.264,15H16a2,2,0,0,0-2,2V47H13a2,2,0,0,0-2,2v3a5.006,5.006,0,0,0,5,5H47a3,3,0,0,0,3-3V17a2,2,0,0,0-2-2H44.736A7.006,7.006,0,0,0,40,12.071V10H50a5.006,5.006,0,0,1,5,5Z"></path><path d="M32,12a3,3,0,1,0-3-3A3,3,0,0,0,32,12Zm0-4a1,1,0,1,1-1,1A1,1,0,0,1,32,8Z"></path><path d="M18,26v6a1,1,0,0,0,1,1h6a1,1,0,0,0,1-1V26a1,1,0,0,0-1-1H19A1,1,0,0,0,18,26Zm2,1h4v4H20Z"></path><path d="M25,36H19a1,1,0,0,0-1,1v6a1,1,0,0,0,1,1h6a1,1,0,0,0,1-1V37A1,1,0,0,0,25,36Zm-1,6H20V38h4Z"></path><rect x="30" y="31" width="12" height="2"></rect><rect x="30" y="27" width="2" height="2"></rect><rect x="34" y="27" width="8" height="2"></rect><rect x="30" y="42" width="12" height="2"></rect><rect x="30" y="38" width="6" height="2"></rect></g></svg>