<svg xmlns="http://www.w3.org/2000/svg" viewBox="0 0 64 64" x="0px" y="0px"><g><path d="M15,7a3,3,0,0,1,3-3H46a3,3,0,0,1,3,3V9h2V7a5.006,5.006,0,0,0-5-5H18a5.006,5.006,0,0,0-5,5v9h2Z"></path><path d="M49,57a3,3,0,0,1-3,3H18a3,3,0,0,1-3-3V44H13V57a5.006,5.006,0,0,0,5,5H46a5.006,5.006,0,0,0,5-5V37H49Z"></path><path d="M48,9V7a2,2,0,0,0-2-2H40a1,1,0,0,0-.707.293L37.586,7H26.414L24.707,5.293A1,1,0,0,0,24,5H18a2,2,0,0,0-2,2v9h2V7h5.586l1.707,1.707A1,1,0,0,0,26,9H38a1,1,0,0,0,.707-.293L40.414,7H46V9Z"></path><path d="M18,44H16v8a2,2,0,0,0,2,2H46a2,2,0,0,0,2-2V37H46V52H18Z"></path><rect x="29" y="56" width="6" height="2"></rect><rect x="31" y="46" width="2" height="2"></rect><rect x="35" y="46" width="2" height="2"></rect><rect x="27" y="46" width="2" height="2"></rect><path d="M58,11H38a2,2,0,0,0-2,2v6.5l-3.6,2.7a1,1,0,0,0,0,1.6L36,26.5V33a2,2,0,0,0,2,2H58a2,2,0,0,0,2-2V13A2,2,0,0,0,58,11Zm0,22H38V26a1,1,0,0,0-.4-.8L34.667,23,37.6,20.8A1,1,0,0,0,38,20V13H58Z"></path><path d="M28,40V33.5l3.6-2.7a1,1,0,0,0,0-1.6L28,26.5V20a2,2,0,0,0-2-2H6a2,2,0,0,0-2,2V40a2,2,0,0,0,2,2H26A2,2,0,0,0,28,40ZM6,20H26v7a1,1,0,0,0,.4.8L29.333,30,26.4,32.2a1,1,0,0,0-.4.8v7H6Z"></path><path d="M18.9,24.34a4.026,4.026,0,0,0-2.827,1.173L16,25.586l-.073-.073A4.026,4.026,0,0,0,13.1,24.34a4,4,0,0,0-2.827,6.827l5.02,5.021a1,1,0,0,0,1.414,0l5.02-5.021A4,4,0,0,0,18.9,24.34Zm1.413,5.413L16,34.066l-4.313-4.313a2,2,0,1,1,2.826-2.826l.78.78a1,1,0,0,0,1.414,0l.781-.78a2.063,2.063,0,0,1,2.825,0A2,2,0,0,1,20.313,29.753Z"></path><path d="M47.293,29.188a1,1,0,0,0,1.414,0l5.02-5.021a4,4,0,0,0,0-5.653A4.027,4.027,0,0,0,50.9,17.34a3.971,3.971,0,0,0-2.827,1.173L48,18.586l-.073-.073A3.971,3.971,0,0,0,45.1,17.34a4.026,4.026,0,0,0-2.827,1.173,4,4,0,0,0,0,5.654Zm-3.6-9.262A2.012,2.012,0,0,1,45.1,19.34a1.986,1.986,0,0,1,1.413.587l.78.78a1,1,0,0,0,1.414,0l.78-.78a2.051,2.051,0,0,1,2.825,0,2,2,0,0,1,0,2.826L48,27.066l-4.313-4.313a2,2,0,0,1,0-2.827Z"></path></g></svg>