<svg xmlns="http://www.w3.org/2000/svg" viewBox="0 0 64 64" x="0px" y="0px"><g data-name="Intelligence-App-Smartphone-Internet of Things-Data"><path d="M29,35H27v3a1,1,0,0,0,.293.707l1,1,1.414-1.414L29,37.586Z"></path><path d="M27.293,25.293A1,1,0,0,0,27,26v3h2V26.414l.707-.707-1.414-1.414Z"></path><path d="M35,37.586l-.707.707,1.414,1.414,1-1A1,1,0,0,0,37,38V35H35Z"></path><path d="M35.707,24.293l-1.414,1.414.707.707V29h2V26a1,1,0,0,0-.293-.707Z"></path><rect x="9" y="56" width="2" height="2"></rect><rect x="9" y="18" width="2" height="2"></rect><path d="M62,19V7a5,5,0,0,0-5-5H51a5,5,0,0,0-5,5v6.75a23.007,23.007,0,0,0-28,0V7a5,5,0,0,0-5-5H7A5,5,0,0,0,2,7V19a5,5,0,0,0,5,5h3.44a22.942,22.942,0,0,0,0,16H7a5,5,0,0,0-5,5V57a5,5,0,0,0,5,5h6a5,5,0,0,0,5-5V50.25a23.007,23.007,0,0,0,28,0V57a5,5,0,0,0,5,5h6a5,5,0,0,0,5-5V45a5,5,0,0,0-5-5H53.56a22.942,22.942,0,0,0,0-16H57A5,5,0,0,0,62,19ZM7,22a3.009,3.009,0,0,1-3-3V7A3.009,3.009,0,0,1,7,4h6a3.009,3.009,0,0,1,3,3V19a3.009,3.009,0,0,1-3,3Zm9,35a3.009,3.009,0,0,1-3,3H7a3.009,3.009,0,0,1-3-3V45a3.009,3.009,0,0,1,3-3h6a3.009,3.009,0,0,1,3,3ZM46,45v2.64a20.964,20.964,0,0,1-28,0V45a5,5,0,0,0-5-5h-.41a20.921,20.921,0,0,1,0-16H13a5,5,0,0,0,5-5V16.36a20.964,20.964,0,0,1,28,0V19a5,5,0,0,0,5,5h.41a20.921,20.921,0,0,1,0,16H51A5,5,0,0,0,46,45Zm11-3a3.009,3.009,0,0,1,3,3V57a3.009,3.009,0,0,1-3,3H51a3.009,3.009,0,0,1-3-3V45a3.009,3.009,0,0,1,3-3ZM51,22a3.009,3.009,0,0,1-3-3V7a3.009,3.009,0,0,1,3-3h6a3.009,3.009,0,0,1,3,3V19a3.009,3.009,0,0,1-3,3Z"></path><path d="M44.32,27.05,42,26.28V24a1.033,1.033,0,0,0-.29-.71l-1-1A1.033,1.033,0,0,0,40,22H38.54l-1.71-2.55A1,1,0,0,0,36,19H34a1.033,1.033,0,0,0-.71.29L32,20.59l-1.29-1.3A1.033,1.033,0,0,0,30,19H28a1,1,0,0,0-.83.45L25.46,22H24a1.033,1.033,0,0,0-.71.29l-1,1A1.033,1.033,0,0,0,22,24v2.28l-2.32.77A1.014,1.014,0,0,0,19,28v8a1.014,1.014,0,0,0,.68.95l2.32.77V40a1.033,1.033,0,0,0,.29.71l1,1A1.033,1.033,0,0,0,24,42h1.46l1.71,2.55A1,1,0,0,0,28,45h2a1.033,1.033,0,0,0,.71-.29L32,43.41l1.29,1.3A1.033,1.033,0,0,0,34,45h2a1,1,0,0,0,.83-.45L38.54,42H40a1.033,1.033,0,0,0,.71-.29l1-1A1.033,1.033,0,0,0,42,40V37.72l2.32-.77A1.014,1.014,0,0,0,45,36V28A1.014,1.014,0,0,0,44.32,27.05ZM31,41.59,29.59,43H28.54l-1.71-2.55A1,1,0,0,0,26,40H24.41L24,39.59V37.41l1.71-1.7A1.033,1.033,0,0,0,26,35V33H24v1.59l-1.27,1.27L21,35.28V28.72l1.73-.58L24,29.41V31h2V29a1.033,1.033,0,0,0-.29-.71L24,26.59V24.41l.41-.41H26a1,1,0,0,0,.83-.45L28.54,21h1.05L31,22.41Zm12-6.31-1.73.58L40,34.59V33H38v2a1.033,1.033,0,0,0,.29.71L40,37.41v2.18l-.41.41H38a1,1,0,0,0-.83.45L35.46,43H34.41L33,41.59V22.41L34.41,21h1.05l1.71,2.55A1,1,0,0,0,38,24h1.59l.41.41v2.18l-1.71,1.7A1.033,1.033,0,0,0,38,29v2h2V29.41l1.27-1.27,1.73.58Z"></path><rect x="53" y="18" width="2" height="2"></rect><rect x="53" y="56" width="2" height="2"></rect><path d="M8.586,12.586,10,14l1.414-1.414A2,2,0,0,0,8.586,12.586Z"></path><path d="M10,9a4.966,4.966,0,0,0-3.535,1.464l1.414,1.414a3.074,3.074,0,0,1,4.242,0l1.414-1.414A4.966,4.966,0,0,0,10,9Z"></path><path d="M52.586,12.586,54,14l1.414-1.414A2,2,0,0,0,52.586,12.586Z"></path><path d="M56.121,11.878l1.414-1.414a5,5,0,0,0-7.07,0l1.414,1.414A3.074,3.074,0,0,1,56.121,11.878Z"></path><path d="M8.586,50.586,10,52l1.414-1.414A2,2,0,0,0,8.586,50.586Z"></path><path d="M6.465,48.464l1.414,1.414a3.074,3.074,0,0,1,4.242,0l1.414-1.414a5,5,0,0,0-7.07,0Z"></path><path d="M52.586,50.586,54,52l1.414-1.414A2,2,0,0,0,52.586,50.586Z"></path><path d="M51.879,49.878a3.074,3.074,0,0,1,4.242,0l1.414-1.414a5,5,0,0,0-7.07,0Z"></path></g></svg>