<svg xmlns="http://www.w3.org/2000/svg" viewBox="0 0 64 64" x="0px" y="0px"><g><path d="M58.23,26.88,33.41,2.06a1.992,1.992,0,0,0-2.82,0L5.77,26.88A2.992,2.992,0,0,0,9,31.78v24.4A3,3,0,0,0,10,62H54a3,3,0,0,0,1-5.82V31.78a3,3,0,0,0,3.23-.66h.01A3.009,3.009,0,0,0,58.23,26.88ZM54,60H10a1,1,0,0,1,0-2H54a1,1,0,0,1,0,2ZM53,32V56H39V38a2.006,2.006,0,0,0-2-2H27a2.006,2.006,0,0,0-2,2V56H11V32ZM11.13,30,32,9.13,52.87,30ZM37,38V56H27V38Zm19.82-8.29a1,1,0,0,1-1.41,0l-22-21.99a1.992,1.992,0,0,0-2.82,0l-22,21.99a1,1,0,0,1-1.41-1.42L32,3.47,56.82,28.29A1.008,1.008,0,0,1,56.82,29.71Z"></path><path d="M30.586,15,25,20.586A2,2,0,0,0,26.414,24H37.586A2,2,0,0,0,39,20.586L33.414,15A2,2,0,0,0,30.586,15ZM31,17.414V22H26.414ZM37.6,22H33V17.412Z"></path><path d="M21,36H15a2,2,0,0,0-2,2V48a2,2,0,0,0,2,2h6a2,2,0,0,0,2-2V38A2,2,0,0,0,21,36Zm0,6H19V38h2Zm-4-4v4H15V38Zm-2,6h2v4H15Zm4,4V44h2v4Z"></path><path d="M49,36H43a2,2,0,0,0-2,2V48a2,2,0,0,0,2,2h6a2,2,0,0,0,2-2V38A2,2,0,0,0,49,36Zm0,6H47V38h2Zm-4-4v4H43V38Zm-2,6h2v4H43Zm4,4V44h2v4Z"></path><rect x="29" y="46" width="2" height="2"></rect></g></svg>