<svg xmlns="http://www.w3.org/2000/svg" viewBox="0 0 64 64" x="0px" y="0px"><g data-name="Esport-Gaming-Fightinng Game-Smartphone-Online"><polygon points="28.17 31.58 27.31 30.79 25.33 32.95 26.07 33.69 28.17 31.58"></polygon><rect x="23.655" y="31.514" width="2.005" height="10.002" transform="translate(-18.604 28.161) rotate(-45.041)"></rect><path d="M34,54H30a1,1,0,0,0,0,2h4a1,1,0,0,0,0-2Z"></path><polygon points="27.48 35.1 28.22 35.84 30.52 33.73 29.65 32.93 27.48 35.1"></polygon><polygon points="41.62 18.13 43.04 19.55 35.76 26.82 36.81 27.97 44.21 21.19 44.74 16.43 39.99 16.96 33.36 24.2 34.41 25.35 41.62 18.13"></polygon><rect x="17.415" y="39.759" width="6" height="1.998" transform="translate(-22.789 26.22) rotate(-44.797)"></rect><rect x="42.586" y="37.758" width="1.998" height="6" transform="translate(-16.056 42.687) rotate(-44.932)"></rect><path d="M50,8a4,4,0,0,0-4-4H18a4,4,0,0,0-4,4V56a4,4,0,0,0,4,4H46a4,4,0,0,0,4-4ZM29,6h6V8H29ZM25,6h2V8H25Zm9,52H30a3,3,0,0,1,0-6h4a3,3,0,0,1,0,6ZM48.54,42.88l-2.83,2.83a1.014,1.014,0,0,1-1.42,0l-4.95-4.95-2.12,2.12a1,1,0,0,1-1.41,0l-2.83-2.83a1,1,0,0,1,0-1.41l1.38-1.39L32,35.09l-2.36,2.16,1.38,1.39a1,1,0,0,1,0,1.41l-2.83,2.83a1,1,0,0,1-1.41,0l-2.12-2.12-4.95,4.95a1.014,1.014,0,0,1-1.42,0l-2.83-2.83a1.008,1.008,0,0,1,0-1.42l4.95-4.95-2.12-2.12a1,1,0,0,1,0-1.41l2.83-2.83a1.047,1.047,0,0,1,1.42,0l1.38,1.38,1.92-2.09L18.16,22.4a.986.986,0,0,1-.32-.62l-.7-6.37a.983.983,0,0,1,1.1-1.1l6.36.71a.952.952,0,0,1,.63.31L32,22.72l6.77-7.39a1.024,1.024,0,0,1,.63-.31l6.36-.71a.983.983,0,0,1,1.1,1.1l-.71,6.37a1.024,1.024,0,0,1-.31.63l-7.68,7.03,1.92,2.09,1.38-1.38a1.007,1.007,0,0,1,.71-.29.99.99,0,0,1,.71.29l2.83,2.83a1,1,0,0,1,0,1.41l-2.12,2.12,4.95,4.95A1.008,1.008,0,0,1,48.54,42.88Z"></path><polygon points="36.51 35.1 20.96 19.54 22.37 18.13 37.93 33.69 38.67 32.95 24.01 16.96 19.26 16.43 19.79 21.18 35.78 35.84 36.51 35.1"></polygon><rect x="34.341" y="35.513" width="10.002" height="2.005" transform="translate(-14.297 38.514) rotate(-45)"></rect></g></svg>