<svg xmlns="http://www.w3.org/2000/svg" viewBox="0 0 64 64" x="0px" y="0px"><g><path d="M49,2H15a3,3,0,0,0-3,3V59a3,3,0,0,0,3,3H49a3,3,0,0,0,3-3V5A3,3,0,0,0,49,2Zm1,57a1,1,0,0,1-1,1H15a1,1,0,0,1-1-1V5a1,1,0,0,1,1-1H49a1,1,0,0,1,1,1Z"></path><path d="M46,6H18a2,2,0,0,0-2,2V18a2,2,0,0,0,2,2H46a2,2,0,0,0,2-2V8A2,2,0,0,0,46,6ZM18,18V8H46V18Z"></path><path d="M22,30H18a2,2,0,0,0-2,2v4a2,2,0,0,0,2,2h4a2,2,0,0,0,2-2V32A2,2,0,0,0,22,30Zm-4,6V32h4v4Z"></path><path d="M34,30H30a2,2,0,0,0-2,2v4a2,2,0,0,0,2,2h4a2,2,0,0,0,2-2V32A2,2,0,0,0,34,30Zm-4,6V32h4v4Z"></path><path d="M46,30H42a2,2,0,0,0-2,2v4a2,2,0,0,0,2,2h4a2,2,0,0,0,2-2V32A2,2,0,0,0,46,30Zm-4,6V32h4v4Z"></path><path d="M22,40H18a2,2,0,0,0-2,2v4a2,2,0,0,0,2,2h4a2,2,0,0,0,2-2V42A2,2,0,0,0,22,40Zm-4,6V42h4v4Z"></path><path d="M34,40H30a2,2,0,0,0-2,2v4a2,2,0,0,0,2,2h4a2,2,0,0,0,2-2V42A2,2,0,0,0,34,40Zm-4,6V42h4v4Z"></path><path d="M46,40H42a2,2,0,0,0-2,2v4a2,2,0,0,0,2,2h4a2,2,0,0,0,2-2V42A2,2,0,0,0,46,40Zm-4,6V42h4v4Z"></path><path d="M22,50H18a2,2,0,0,0-2,2v4a2,2,0,0,0,2,2h4a2,2,0,0,0,2-2V52A2,2,0,0,0,22,50Zm-4,6V52h4v4Z"></path><path d="M34,50H30a2,2,0,0,0-2,2v4a2,2,0,0,0,2,2h4a2,2,0,0,0,2-2V52A2,2,0,0,0,34,50Zm-4,6V52h4v4Z"></path><path d="M46,50H42a2,2,0,0,0-2,2v4a2,2,0,0,0,2,2h4a2,2,0,0,0,2-2V52A2,2,0,0,0,46,50Zm-4,6V52h4v4Z"></path><rect x="23" y="22" width="4" height="2"></rect><rect x="37" y="22" width="4" height="2"></rect><rect x="23" y="26" width="4" height="2"></rect><rect x="17" y="22" width="4" height="2"></rect><rect x="17" y="26" width="4" height="2"></rect><rect x="37" y="26" width="4" height="2"></rect><rect x="43" y="22" width="4" height="2"></rect><rect x="43" y="26" width="4" height="2"></rect><path d="M35,25a3,3,0,1,0-3,3A3,3,0,0,0,35,25Zm-4,0a1,1,0,1,1,1,1A1,1,0,0,1,31,25Z"></path></g></svg>