<svg xmlns="http://www.w3.org/2000/svg" viewBox="0 0 64 64" x="0px" y="0px"><title>DNA-Artificial Intelligence-Robotics-Engineering</title><g data-name="DNA Artificial Intelligence"><path d="M50.684,47.062C56.247,43.458,62,39.732,62,32c0-7.774-5.558-11.612-10.932-15.323C45.891,13.1,41,9.726,41,3V2H39V3c0,7.774,5.558,11.612,10.932,15.323C55.109,21.9,60,25.274,60,32c0,6.645-5.054,9.918-10.4,13.383C43.9,49.075,38,52.893,38,61v1h2V61C40,53.98,45.189,50.619,50.684,47.062Z"></path><path d="M53.12,47.175l-1.13,1.65C56.8,52.118,60,55.449,60,61v1h2V61C62,54.2,57.732,50.334,53.12,47.175Z"></path><path d="M52.392,14.206l1.214,1.588C57.263,13,61,9.291,61,3V2H59V3C59,8.406,55.824,11.58,52.392,14.206Z"></path><rect x="43" y="4" width="14" height="2"></rect><rect x="46" y="9" width="8" height="2"></rect><rect x="43" y="58" width="14" height="2"></rect><rect x="46" y="53" width="8" height="2"></rect><path d="M17.12,47.175l-1.13,1.65C20.8,52.118,24,55.449,24,61v1h2V61C26,54.2,21.732,50.334,17.12,47.175Z"></path><path d="M10.431,45.153l1.137-1.646C7.025,40.371,4,37.214,4,32c0-5.411,3.037-8.675,7.937-12.188l-1.165-1.624C6.528,21.229,2,25.057,2,32,2,38.443,6.052,42.13,10.431,45.153Z"></path><path d="M16.392,14.206l1.214,1.588C21.263,13,25,9.291,25,3V2H23V3C23,8.406,19.824,11.58,16.392,14.206Z"></path><rect x="7" y="4" width="14" height="2"></rect><rect x="10" y="9" width="8" height="2"></rect><rect x="7" y="58" width="14" height="2"></rect><rect x="10" y="53" width="8" height="2"></rect><path d="M28,37h8a1,1,0,0,0,1-1V31a1,1,0,0,0-.293-.707l-3-3A1,1,0,0,0,33,27H28a1,1,0,0,0-1,1v8A1,1,0,0,0,28,37Zm1-8h3.586L35,31.411V35H29Z"></path><path d="M43,29a1,1,0,0,0,.707-.293L45.414,27H47V25H45a1,1,0,0,0-.707.293L42.586,27H41V24a1,1,0,0,0-1-1H37V21.414l1.707-1.707A1,1,0,0,0,39,19V17H37v1.586l-1.707,1.707A1,1,0,0,0,35,21v2H33V17H31v6H29V21a1,1,0,0,0-.293-.707L27,18.586V17H25v2a1,1,0,0,0,.293.707L27,21.414V23H24a1,1,0,0,0-1,1v3H21.414l-1.707-1.707A1,1,0,0,0,19,25H17v2h1.586l1.707,1.707A1,1,0,0,0,21,29h2v2H17v2h6v2H21a1,1,0,0,0-.707.293L18.586,37H17v2h2a1,1,0,0,0,.707-.293L21.414,37H23v3a1,1,0,0,0,1,1h3v1.586l-1.707,1.707A1,1,0,0,0,25,45v2h2V45.414l1.707-1.707A1,1,0,0,0,29,43V41h2v6h2V41h2v2a1,1,0,0,0,.293.707L37,45.414V47h2V45a1,1,0,0,0-.293-.707L37,42.586V41h3a1,1,0,0,0,1-1V37h1.586l1.707,1.707A1,1,0,0,0,45,39h2V37H45.414l-1.707-1.707A1,1,0,0,0,43,35H41V33h6V31H41V29ZM39,39H25V25H39Z"></path><path d="M48.686,43H52V41H49.836a19.891,19.891,0,0,0,1.242-3H56V36H51.6a19.99,19.99,0,0,0,.352-3H58V31H51.949a19.99,19.99,0,0,0-.352-3H56V26H51.078a19.891,19.891,0,0,0-1.242-3H52V21H48.686A19.941,19.941,0,0,0,17.43,18.342c-.786-.568-1.585-1.127-2.369-1.669C9.887,13.1,5,9.725,5,3V2H3V3c0,7.773,5.554,11.609,10.924,15.318.734.507,1.478,1.028,2.209,1.555-.282.369-.562.739-.819,1.127H12v2h2.164a19.891,19.891,0,0,0-1.242,3H8v2h4.4a19.99,19.99,0,0,0-.352,3H6v2h6.051a19.99,19.99,0,0,0,.352,3H8v2h4.922a19.891,19.891,0,0,0,1.242,3H12v2h3.314c.193.291.4.568.611.849-.771.521-1.556,1.037-2.33,1.539C7.9,49.079,2,52.9,2,61v1H4V61c0-7.016,5.188-10.376,10.682-13.934.833-.539,1.682-1.1,2.516-1.664A19.938,19.938,0,0,0,48.686,43ZM32,50A18,18,0,1,1,50,32,18.021,18.021,0,0,1,32,50Z"></path></g></svg>