<svg xmlns="http://www.w3.org/2000/svg" viewBox="0 0 64 64" x="0px" y="0px"><g data-name="Payment Method-Payment-Money-Smartphone-Application"><path d="M37,12a1,1,0,0,0-1,1v1.86A4.017,4.017,0,0,0,38.86,12Z"></path><path d="M24,44H34V39a3.009,3.009,0,0,1,3-3h3V28H37a3.009,3.009,0,0,1-3-3V20H24a1,1,0,0,0-1,1v1.05a10,10,0,0,1,0,19.9V43A1,1,0,0,0,24,44Z"></path><path d="M36,16.91v4.18A5.992,5.992,0,0,1,40.91,26H55.09A5.992,5.992,0,0,1,60,21.09V16.91A5.992,5.992,0,0,1,55.09,12H40.91A5.992,5.992,0,0,1,36,16.91ZM48,15a4,4,0,1,1-4,4A4,4,0,0,1,48,15Z"></path><path d="M4,52H34.18A3,3,0,0,1,34,51V46H24a3.009,3.009,0,0,1-3-3V41.95a10,10,0,0,1,0-19.9V21a3.009,3.009,0,0,1,3-3H34V13a3,3,0,0,1,.18-1H4Z"></path><path d="M38.86,26A4.017,4.017,0,0,0,36,23.14V25a1,1,0,0,0,1,1Z"></path><path d="M30,32a8,8,0,1,0-8,8A8.011,8.011,0,0,0,30,32Zm-9-1h2a3,3,0,0,1,0,6v1H21V37a3,3,0,0,1-3-3h2a1,1,0,0,0,1,1h2a1,1,0,0,0,0-2H21a3,3,0,0,1,0-6V26h2v1a3,3,0,0,1,3,3H24a1,1,0,0,0-1-1H21a1,1,0,0,0,0,2Z"></path><path d="M60,25V23.14A4.017,4.017,0,0,0,57.14,26H59A1,1,0,0,0,60,25Z"></path><path d="M4,10H40V8a4,4,0,0,0-4-4H8A4,4,0,0,0,4,8ZM19,6h6V8H19ZM15,6h2V8H15Z"></path><circle cx="48" cy="19" r="2"></circle><path d="M59,12H57.14A4.017,4.017,0,0,0,60,14.86V13A1,1,0,0,0,59,12Z"></path><path d="M40,54H4v2a4,4,0,0,0,4,4H36a4,4,0,0,0,4-4ZM23,58H21V56h2Z"></path><path d="M60,51V39a1,1,0,0,0-1-1H37a1,1,0,0,0-1,1V51a1,1,0,0,0,1,1H59A1,1,0,0,0,60,51ZM52,40h2v2H52ZM40,50H38V48h2Zm4,0H42V48h2Zm1-4H39a1,1,0,0,1-1-1V41a1,1,0,0,1,1-1h6a1,1,0,0,1,1,1v4A1,1,0,0,1,45,46Zm3,4H46V48h2Zm0-10h2v2H48Zm7,10H53a3,3,0,0,1,0-6h2a3,3,0,0,1,0,6Zm3-8H56V40h2Z"></path><path d="M55,46H53a1,1,0,0,0,0,2h2a1,1,0,0,0,0-2Z"></path><rect x="40" y="42" width="4" height="2"></rect></g></svg>