<svg xmlns="http://www.w3.org/2000/svg" viewBox="0 0 64 64" x="0px" y="0px"><g data-name="Lesson-Online-Audio Book-Headphone-Device"><path d="M46,30a5,5,0,1,0,5,5A5.006,5.006,0,0,0,46,30Zm0,8a3,3,0,1,1,3-3A3,3,0,0,1,46,38Z"></path><path d="M51,20H41a1,1,0,0,0-1,1v6a1,1,0,0,0,1,1H51a1,1,0,0,0,1-1V21A1,1,0,0,0,51,20Zm-1,6H42V22h8Z"></path><path d="M60,24.18V22A14.015,14.015,0,0,0,46,8a13.869,13.869,0,0,0-6,1.37V7a5,5,0,0,0-5-5H7A5,5,0,0,0,2,7V37a5.017,5.017,0,0,0,4,4.9V61a1,1,0,0,0,1,1H51a1,1,0,0,0,1-1V44h1a3.009,3.009,0,0,0,3-3V36h3a3.009,3.009,0,0,0,3-3V27A3.01,3.01,0,0,0,60,24.18ZM4,7A3.009,3.009,0,0,1,7,4H35a3.009,3.009,0,0,1,3,3v3H4ZM34,24V22a11.962,11.962,0,0,1,4-8.92v3.1A3.01,3.01,0,0,0,36,19v5Zm2,2v8H33a1,1,0,0,1-1-1V27a1,1,0,0,1,1-1ZM10,60H8V34h2Zm2,0V58H25a3.014,3.014,0,0,1,2.83,2Zm16-2.97A4.924,4.924,0,0,0,25,56H12V30H25a3.009,3.009,0,0,1,3,3Zm.99-27.01A4.966,4.966,0,0,0,25,28H11a1,1,0,0,0-1,1v3H7a1,1,0,0,0-1,1v6.82A3.01,3.01,0,0,1,4,37V12H36.22A13.939,13.939,0,0,0,32,22v2.18A3.01,3.01,0,0,0,30,27v2.01A5.087,5.087,0,0,0,28.99,30.02ZM46,60H30.17A3.014,3.014,0,0,1,33,58H46Zm0-4H33a4.924,4.924,0,0,0-3,1.03V33a3.009,3.009,0,0,0,3,3h3v5a3.009,3.009,0,0,0,3,3h7Zm4,4H48V44h2Zm4-19a1,1,0,0,1-1,1H39a1,1,0,0,1-1-1V19a1,1,0,0,1,1-1H53a1,1,0,0,1,1,1ZM53,16H40V11.62A11.983,11.983,0,0,1,58,22v2H56V19A3.009,3.009,0,0,0,53,16Zm7,17a1,1,0,0,1-1,1H56V26h3a1,1,0,0,1,1,1Z"></path><rect x="14" y="42" width="12" height="2"></rect><rect x="14" y="46" width="12" height="2"></rect><rect x="32" y="46" width="12" height="2"></rect><rect x="14" y="50" width="12" height="2"></rect><rect x="32" y="50" width="12" height="2"></rect><path d="M15,40H25a1,1,0,0,0,1-1V33a1,1,0,0,0-1-1H15a1,1,0,0,0-1,1v6A1,1,0,0,0,15,40Zm1-6h8v4H16Z"></path><rect x="8" y="6" width="2" height="2"></rect><rect x="12" y="6" width="2" height="2"></rect><rect x="16" y="6" width="2" height="2"></rect><rect x="8" y="14" width="2" height="2"></rect><rect x="12" y="14" width="10" height="2"></rect><rect x="8" y="18" width="14" height="2"></rect><rect x="8" y="22" width="14" height="2"></rect></g></svg>