<svg xmlns="http://www.w3.org/2000/svg" viewBox="0 0 64 64" x="0px" y="0px"><g data-name="Business Thinking"><path d="M49,28A12.987,12.987,0,0,1,42.1,4H29.391q-.672,0-1.336.051a17.954,17.954,0,0,0-15.121,11.18L6.385,35H12v9a5.006,5.006,0,0,0,5,5H31v2H26v9H48V49h1a9.011,9.011,0,0,0,9-9V24.359A12.946,12.946,0,0,1,49,28ZM17.5,26A4.505,4.505,0,0,1,13,21.5h2a2.5,2.5,0,0,0,5,0h2A4.505,4.505,0,0,1,17.5,26Z"></path><path d="M38,15A11,11,0,1,0,49,4,11.013,11.013,0,0,0,38,15Zm17-1h2v2H55Zm-5,2H48a3,3,0,0,1-3-3V11a3,3,0,0,1,3-3V6h2V8a3,3,0,0,1,3,3H51a1,1,0,0,0-1-1H48a1,1,0,0,0-1,1v2a1,1,0,0,0,1,1h2a3,3,0,0,1,3,3v2a3,3,0,0,1-3,3v2H48V22a3,3,0,0,1-3-3h2a1,1,0,0,0,1,1h2a1,1,0,0,0,1-1V17A1,1,0,0,0,50,16Zm-7,0H41V14h2Z"></path></g></svg>