<svg xmlns="http://www.w3.org/2000/svg" viewBox="0 0 64 64" x="0px" y="0px"><g><path d="M13.381,41.305l.5,1.562h0l.186.581,20.1-20.1a1,1,0,0,1,0-1.414l7.071-7.072a1,1,0,0,1,1.414,0l2.122-2.121-1.415-1.414Z"></path><rect x="43.977" y="15.073" width="3" height="1" transform="translate(2.308 36.718) rotate(-45)"></rect><path d="M14.271,50.314l2.421-2.421-.639-.326h0L16,47.538l-.007,0-2.864-1.453a1,1,0,0,1-.505-.591l-.145-.452L7.657,49.857l1.01,6.062,1.076-1.076-.6-3.011,1.961-.393.34,1.7,1.13-1.129L11.97,49l1.961-.393Z"></path><path d="M36.284,22.645,38.4,24.762l.006,0,5.656-5.656-2.121-2.122Z"></path><path d="M56.79,14.866a1,1,0,0,0,0-1.414L49.72,6.381a1,1,0,0,0-1.415,0L44.77,9.917,53.255,18.4Z"></path><path d="M38.405,27.6a1,1,0,0,1,.849-.283l2.97.423a2.979,2.979,0,0,0,2.546-.847l7.071-7.072L48.305,16.28,46.184,18.4a1,1,0,0,1,0,1.414l-7.072,7.072a1,1,0,0,1-1.414,0L18.18,46.406l.937.476Z"></path><polygon points="35.577 24.766 15.367 44.976 16.305 45.452 36.284 25.473 35.577 24.766"></polygon></g></svg>