<svg xmlns="http://www.w3.org/2000/svg" viewBox="0 0 64 64" x="0px" y="0px"><g><rect x="46" y="10" width="14" height="2"></rect><rect x="46" y="4" width="14" height="4"></rect><path d="M60,43.041A12.02,12.02,0,0,0,49.042,54H53a7.008,7.008,0,0,0,7-7Z"></path><path d="M60,14H46V38a2,2,0,0,1-2,2H40V53a8.935,8.935,0,0,1-.059,1h7.11A14,14,0,0,1,60,41.051Z"></path><path d="M38,49.041A12.02,12.02,0,0,0,27.042,60H31a7.008,7.008,0,0,0,7-7Z"></path><rect x="24" y="10" width="14" height="4"></rect><path d="M38,20H24V44a2,2,0,0,1-2,2H18V60h7.051A14,14,0,0,1,38,47.051Z"></path><rect x="24" y="16" width="14" height="2"></rect><rect x="14" y="46" width="2" height="14"></rect><path d="M4.015,53.464A7.156,7.156,0,0,0,11.272,60H12V46H11a7,7,0,0,0-6.985,7.464Z"></path></g></svg>