<svg xmlns="http://www.w3.org/2000/svg" viewBox="0 0 64 64" x="0px" y="0px"><g data-name="Sport-Table Tennis"><path d="M35.47,45.884,12.116,22.531a20.878,20.878,0,0,0,2.416,12.452l2.911-2.912a1,1,0,0,1,1.414,0l7.072,7.071a1,1,0,0,1,0,1.414l-2.912,2.912A20.883,20.883,0,0,0,35.47,45.884Z"></path><path d="M5.423,52.577a4,4,0,0,0,5.657,0L23.808,39.849,18.15,34.192,5.423,46.92a4,4,0,0,0,0,5.657Z"></path><path d="M47.853,10.146a21.016,21.016,0,0,0-35.3,10l25.3,25.3a21.016,21.016,0,0,0,10-35.3Z"></path><circle cx="55" cy="55" r="5"></circle><rect x="42" y="50" width="4" height="2"></rect><rect x="38" y="50" width="2" height="2"></rect><rect x="44" y="54" width="2" height="2"></rect><rect x="35" y="54" width="7" height="2"></rect><rect x="38" y="58" width="8" height="2"></rect><rect x="32" y="58" width="4" height="2"></rect></g></svg>