<svg xmlns="http://www.w3.org/2000/svg" viewBox="0 0 64 64" x="0px" y="0px"><g><path d="M38,29a1,1,0,0,0-1,1V54H51V43.83a1,1,0,0,1,.293-.707l7.19-7.19a1.025,1.025,0,0,0,.3-.713.985.985,0,0,0-.3-.7,1,1,0,0,0-1.419,0l-4.356,4.356A1,1,0,0,1,51,38.17V26a1,1,0,0,0-2,0V36a1,1,0,0,1-2,0V21a1,1,0,0,0-2,0V36a1,1,0,0,1-2,0V27a1,1,0,0,0-2,0V37a1,1,0,0,1-2,0V30A1,1,0,0,0,38,29Z"></path><path d="M35,57a1,1,0,0,0,1,1H54a1,1,0,0,0,0-2H36A1,1,0,0,0,35,57Z"></path><path d="M10,60H28a1,1,0,0,0,0-2H10a1,1,0,0,0,0,2Z"></path><path d="M4.22,37.22a1.037,1.037,0,0,0,.306.723l7.181,7.18A1,1,0,0,1,12,45.83V56H26V32a1,1,0,0,0-2,0v7a1,1,0,0,1-2,0V29a1,1,0,0,0-2,0v9a1,1,0,0,1-2,0V23a1,1,0,0,0-2,0V38a1,1,0,0,1-2,0V28a1,1,0,0,0-2,0V40.17a1,1,0,0,1-1.707.707l-4.36-4.36a1,1,0,0,0-1.416,0A.988.988,0,0,0,4.22,37.22Z"></path><path d="M37,15a2,2,0,0,0,4,0c0-.62-.938-2.119-2-3.451C37.939,12.875,37,14.363,37,15Z"></path><path d="M22,17a2,2,0,0,0,4,0c0-.62-.938-2.119-2-3.451C22.939,14.875,22,16.363,22,17Z"></path><path d="M32,4.854A7.457,7.457,0,0,0,31,7a1,1,0,0,0,2,0A7.462,7.462,0,0,0,32,4.854Z"></path></g></svg>