<svg xmlns="http://www.w3.org/2000/svg" viewBox="0 0 64 64" x="0px" y="0px"><title>Truck-Transport-Delivery-Cargo-Transportation</title><g><path d="M12,46a4,4,0,1,0,4,4A4,4,0,0,0,12,46Zm1,5H11V49h2Z"></path><rect x="4" y="38" width="34" height="2"></rect><rect x="56" y="39" width="4" height="2"></rect><path d="M44,24v9H59.267l-4.58-8.476A1,1,0,0,0,53.808,24Z"></path><path d="M13,18a1,1,0,0,0-1,1V31a1,1,0,0,0,2,0V19A1,1,0,0,0,13,18Z"></path><path d="M26,46a4,4,0,1,0,4,4A4,4,0,0,0,26,46Zm1,5H25V49h2Z"></path><path d="M38,49V42H4v7H6.09a5.993,5.993,0,0,1,11.82,0h2.18a5.993,5.993,0,0,1,11.82,0Z"></path><path d="M49,46a4,4,0,1,0,4,4A4,4,0,0,0,49,46Zm1,5H48V49h2Z"></path><path d="M59,49a1,1,0,0,0,1-1V47H57V45h3V43H56a2,2,0,0,1-2-2V39a2,2,0,0,1,2-2h4V35.108c0-.037-.013-.072-.015-.108H43a1,1,0,0,1-1-1V24H40V49h3.09a5.993,5.993,0,0,1,11.82,0ZM46,39H42V37h4Z"></path><rect x="4" y="10" width="34" height="2"></rect><path d="M38,14H4V36H38ZM16,31a3,3,0,0,1-6,0V19a3,3,0,0,1,6,0Zm8,0a3,3,0,0,1-6,0V19a3,3,0,0,1,6,0Zm8,0a3,3,0,0,1-6,0V19a3,3,0,0,1,6,0Z"></path><path d="M29,18a1,1,0,0,0-1,1V31a1,1,0,0,0,2,0V19A1,1,0,0,0,29,18Z"></path><path d="M21,18a1,1,0,0,0-1,1V31a1,1,0,0,0,2,0V19A1,1,0,0,0,21,18Z"></path></g></svg>