<svg xmlns="http://www.w3.org/2000/svg" viewBox="0 0 64 64" x="0px" y="0px"><title>Cactus_32</title><g data-name="Cactus"><path d="M54,32H50.5a24.166,24.166,0,0,0,3.322-8.832,18.466,18.466,0,0,0-1.731-11.114,8.8,8.8,0,0,0-6.444-4.837,6.551,6.551,0,0,0-3.235.449A12.978,12.978,0,0,0,32,2a12.271,12.271,0,0,0-8.04,3.084A6.984,6.984,0,0,0,12,10a6.911,6.911,0,0,0,1.426,4.221c-2.289,2.888-3.939,7.925-2.232,14.217A21.569,21.569,0,0,0,12.505,32H10a5.006,5.006,0,0,0-5,5v2a9.012,9.012,0,0,0,8.048,8.948A15.007,15.007,0,0,0,28,62h8A15.007,15.007,0,0,0,50.952,47.948,9.012,9.012,0,0,0,59,39V37A5.006,5.006,0,0,0,54,32ZM45.413,9.2a6.844,6.844,0,0,1,4.928,3.817c1,1.818,2.077,5.013,1.5,9.912-.4,3.358-2.146,6.445-3.55,8.924L48.206,32H41.037c.15-.155.283-.328.427-.489.181-.2.364-.4.536-.614.2-.243.377-.5.559-.753.158-.22.319-.436.467-.665.174-.269.33-.55.489-.831.133-.233.272-.462.395-.7.15-.3.281-.6.415-.906.108-.244.223-.483.321-.733.125-.32.229-.652.337-.981.082-.249.174-.492.246-.746.1-.352.176-.715.257-1.075.054-.243.121-.481.166-.728.076-.407.124-.824.175-1.24.025-.209.065-.413.084-.624.058-.63.089-1.268.089-1.912,0-.458-.018-.915-.048-1.37-.01-.151-.029-.3-.043-.45-.026-.3-.055-.606-.095-.906-.024-.177-.055-.351-.083-.527-.044-.271-.089-.542-.144-.81-.037-.184-.079-.365-.121-.547-.059-.256-.122-.51-.191-.762-.051-.184-.1-.366-.159-.548-.075-.246-.156-.489-.24-.731-.062-.178-.124-.355-.191-.531-.093-.242-.193-.479-.3-.716-.072-.166-.141-.334-.218-.5-.114-.245-.238-.483-.362-.721-.077-.146-.149-.3-.229-.439-.013-.023-.023-.047-.036-.07A4.509,4.509,0,0,1,45.413,9.2ZM26.031,32c-.051-.037-.1-.076-.151-.113-.343-.256-.673-.524-.983-.806-.03-.027-.063-.052-.092-.08-.071-.1-.137-.212-.2-.319s-.13-.2-.19-.3c-.074-.127-.139-.258-.207-.388-.054-.1-.112-.2-.162-.31-.065-.136-.122-.276-.182-.415-.044-.1-.092-.205-.133-.311-.056-.144-.1-.293-.153-.44-.035-.1-.074-.206-.106-.311-.046-.152-.083-.308-.123-.463-.026-.1-.057-.206-.081-.311-.035-.161-.062-.326-.09-.489-.018-.1-.041-.2-.056-.3-.026-.181-.042-.365-.06-.548-.008-.088-.022-.174-.028-.262Q23,25.416,23,25a10.66,10.66,0,0,1,.068-1.209,8.486,8.486,0,0,1,3.977-6.44A9.4,9.4,0,0,1,32,16a9.53,9.53,0,0,1,4.509,1.093A8.608,8.608,0,0,1,41,25q0,.416-.03.825c-.006.088-.02.174-.028.262-.018.183-.034.367-.06.548-.015.1-.038.2-.056.3-.028.163-.055.328-.09.489-.024.105-.055.207-.081.311-.04.155-.077.311-.123.463-.032.105-.071.207-.106.311-.05.147-.1.3-.153.44-.041.106-.089.207-.133.311-.06.139-.117.279-.182.415-.05.105-.108.207-.162.31-.068.13-.133.261-.207.388-.06.1-.126.2-.19.3s-.133.215-.2.319c-.029.028-.062.053-.092.08-.31.282-.64.55-.983.806-.05.037-.1.076-.151.113ZM41.256,9.462A17.433,17.433,0,0,1,44,19c0,.56-.028,1.114-.076,1.662-.016.182-.046.36-.067.54-.043.363-.087.725-.151,1.08-.037.21-.086.416-.131.624-.068.317-.139.634-.223.944-.059.215-.126.425-.192.636-.051.161-.107.318-.162.476a10.547,10.547,0,0,0-5.545-9.633A11.548,11.548,0,0,0,32,14a12.235,12.235,0,0,0-1.5.1c-.16.019-.315.054-.473.08-.331.055-.658.116-.979.2-.181.046-.356.1-.534.156-.291.089-.576.188-.857.3-.176.071-.35.144-.522.223-.1.047-.209.082-.309.132-.024-.034-.05-.064-.075-.1-.068-.09-.138-.175-.207-.262-.146-.186-.293-.366-.444-.539-.076-.088-.153-.175-.23-.259-.156-.17-.314-.332-.474-.489-.069-.069-.139-.14-.209-.206-.23-.215-.463-.42-.7-.607a9.725,9.725,0,0,0-.86-.609c-.078-.05-.156-.1-.234-.144-.252-.15-.506-.287-.762-.407-.045-.021-.09-.047-.135-.067a7.858,7.858,0,0,0-.733-.285c.032-.066.059-.135.092-.2.074-.145.154-.286.231-.428.154-.28.313-.554.481-.821q.133-.215.273-.422c.182-.269.373-.529.569-.782.087-.112.171-.228.26-.337.29-.352.591-.691.907-1A10.517,10.517,0,0,1,32,4C35.594,4,38.967,5.99,41.256,9.462ZM19,5a4.986,4.986,0,0,1,3.532,1.469c-.106.119-.2.249-.306.372s-.207.247-.308.374q-.393.5-.754,1.036c-.051.075-.105.145-.155.221-.282.434-.545.886-.792,1.351-.066.125-.125.254-.189.381-.109.218-.225.431-.325.654-.043,0-.085.007-.128.007a6.377,6.377,0,0,0-.664.034c-.076.008-.152.016-.228.027a5.964,5.964,0,0,0-.8.159,7.274,7.274,0,0,0-.939.337c-.1.041-.19.09-.285.135-.218.105-.434.221-.646.348-.1.058-.194.116-.29.179-.235.154-.465.324-.69.505-.057.046-.116.085-.172.133l-.04.031A4.943,4.943,0,0,1,14,10,5.006,5.006,0,0,1,19,5Zm-3.526,9.9a6.383,6.383,0,0,1,2.943-1.885A4.3,4.3,0,0,1,20.2,12.9h0A6.216,6.216,0,0,1,23.241,14.3a9.649,9.649,0,0,1,.858.781c.069.07.138.142.207.215a12.1,12.1,0,0,1,.81.952l0,0c-.044.034-.082.074-.125.108-.141.111-.271.231-.405.348-.192.168-.383.338-.561.52-.128.131-.248.268-.369.405-.164.186-.323.376-.473.573-.111.147-.217.3-.32.451-.139.2-.269.415-.393.631-.092.16-.181.32-.264.485-.115.226-.217.459-.316.7-.07.168-.142.334-.2.506-.09.252-.165.512-.238.774-.047.168-.1.332-.139.5-.068.294-.115.6-.16.9-.022.149-.054.294-.071.445A12.735,12.735,0,0,0,21,25q0,.487.035.968c.007.1.022.2.032.3.02.219.041.438.072.654.017.119.043.235.063.353.034.194.066.388.108.579.028.125.064.248.1.372.046.18.09.361.143.538.038.126.084.249.126.374.057.171.113.343.178.512.048.125.1.246.156.37.069.163.137.326.213.486.058.124.123.244.186.365.08.155.159.309.246.46.069.122.144.24.218.359.065.1.123.211.191.313h-8.33a19.524,19.524,0,0,1-1.607-4.082C11.49,21.891,13.263,17.244,15.474,14.9ZM7,39V37a3,3,0,0,1,3-3h3V45.929A7.011,7.011,0,0,1,7,39ZM36,60H28A13.015,13.015,0,0,1,15,47V34H49V47A13.015,13.015,0,0,1,36,60ZM57,39a7.011,7.011,0,0,1-6,6.929V34h3a3,3,0,0,1,3,3Z"></path><polygon points="28 23 30 23 30 22 31 22 31 20 30 20 30 19 28 19 28 20 27 20 27 22 28 22 28 23"></polygon><polygon points="31 26 29 26 29 27 28 27 28 29 29 29 29 30 31 30 31 29 32 29 32 27 31 27 31 26"></polygon><polygon points="37 13 39 13 39 12 40 12 40 10 39 10 39 9 37 9 37 10 36 10 36 12 37 12 37 13"></polygon><polygon points="37 27 37 26 38 26 38 24 37 24 37 23 35 23 35 24 34 24 34 26 35 26 35 27 37 27"></polygon><polygon points="29 10 31 10 31 9 32 9 32 7 31 7 31 6 29 6 29 7 28 7 28 9 29 9 29 10"></polygon><polygon points="17 28 19 28 19 27 20 27 20 25 19 25 19 24 17 24 17 25 16 25 16 27 17 27 17 28"></polygon><polygon points="18 19 20 19 20 18 21 18 21 16 20 16 20 15 18 15 18 16 17 16 17 18 18 18 18 19"></polygon><polygon points="17 10 19 10 19 9 20 9 20 7 19 7 19 6 17 6 17 7 16 7 16 9 17 9 17 10"></polygon><polygon points="46 24 46 26 47 26 47 27 49 27 49 26 50 26 50 24 49 24 49 23 47 23 47 24 46 24"></polygon><polygon points="48 19 50 19 50 18 51 18 51 16 50 16 50 15 48 15 48 16 47 16 47 18 48 18 48 19"></polygon><rect x="45" y="39" width="2" height="2"></rect><rect x="45" y="36" width="2" height="2"></rect><rect x="42" y="36" width="2" height="2"></rect></g></svg>