<svg xmlns="http://www.w3.org/2000/svg" viewBox="0 0 64 64" x="0px" y="0px"><g data-name="Server-Database-Big Data-Storage-Hosting"><path d="M10,12A3,3,0,1,0,7,9,3,3,0,0,0,10,12Zm0-4A1,1,0,1,1,9,9,1,1,0,0,1,10,8Z"></path><rect x="25" y="8" width="2" height="2"></rect><rect x="21" y="8" width="2" height="2"></rect><rect x="17" y="8" width="2" height="2"></rect><path d="M10,18a3,3,0,1,0,3,3A3,3,0,0,0,10,18Zm0,4a1,1,0,1,1,1-1A1,1,0,0,1,10,22Z"></path><rect x="25" y="20" width="2" height="2"></rect><rect x="21" y="20" width="2" height="2"></rect><rect x="17" y="20" width="2" height="2"></rect><path d="M38,12a3,3,0,1,0-3-3A3,3,0,0,0,38,12Zm0-4a1,1,0,1,1-1,1A1,1,0,0,1,38,8Z"></path><rect x="53" y="8" width="2" height="2"></rect><rect x="49" y="8" width="2" height="2"></rect><rect x="45" y="8" width="2" height="2"></rect><path d="M38,24a3,3,0,1,0-3-3A3,3,0,0,0,38,24Zm0-4a1,1,0,1,1-1,1A1,1,0,0,1,38,20Z"></path><rect x="53" y="20" width="2" height="2"></rect><rect x="49" y="20" width="2" height="2"></rect><rect x="45" y="20" width="2" height="2"></rect><path d="M10,30a3,3,0,1,0,3,3A3,3,0,0,0,10,30Zm0,4a1,1,0,1,1,1-1A1,1,0,0,1,10,34Z"></path><rect x="25" y="32" width="2" height="2"></rect><rect x="21" y="32" width="2" height="2"></rect><rect x="17" y="32" width="2" height="2"></rect><path d="M13,45a3,3,0,1,0-3,3A3,3,0,0,0,13,45Zm-3,1a1,1,0,1,1,1-1A1,1,0,0,1,10,46Z"></path><rect x="25" y="44" width="2" height="2"></rect><rect x="21" y="44" width="2" height="2"></rect><rect x="17" y="44" width="2" height="2"></rect><path d="M38,36a3,3,0,1,0-3-3A3,3,0,0,0,38,36Zm0-4a1,1,0,1,1-1,1A1,1,0,0,1,38,32Z"></path><rect x="53" y="32" width="2" height="2"></rect><rect x="49" y="32" width="2" height="2"></rect><rect x="45" y="32" width="2" height="2"></rect><path d="M38,42a3,3,0,1,0,3,3A3,3,0,0,0,38,42Zm0,4a1,1,0,1,1,1-1A1,1,0,0,1,38,46Z"></path><rect x="53" y="44" width="2" height="2"></rect><rect x="49" y="44" width="2" height="2"></rect><rect x="45" y="44" width="2" height="2"></rect><path d="M61,54H59V51.82A3.01,3.01,0,0,0,61,49V41a2.974,2.974,0,0,0-.78-2A2.974,2.974,0,0,0,61,37V29a2.974,2.974,0,0,0-.78-2A2.974,2.974,0,0,0,61,25V17a2.974,2.974,0,0,0-.78-2A2.974,2.974,0,0,0,61,13V5a3.009,3.009,0,0,0-3-3H34a2.974,2.974,0,0,0-2,.78A2.974,2.974,0,0,0,30,2H6A3.009,3.009,0,0,0,3,5v8a2.974,2.974,0,0,0,.78,2A2.974,2.974,0,0,0,3,17v8a2.974,2.974,0,0,0,.78,2A2.974,2.974,0,0,0,3,29v8a2.974,2.974,0,0,0,.78,2A2.974,2.974,0,0,0,3,41v8a3.01,3.01,0,0,0,2,2.82V54H3a1,1,0,0,0-1,1v6a1,1,0,0,0,1,1H61a1,1,0,0,0,1-1V55A1,1,0,0,0,61,54ZM33,5a1,1,0,0,1,1-1H58a1,1,0,0,1,1,1v8a1,1,0,0,1-1,1H34a1,1,0,0,1-1-1Zm0,12a1,1,0,0,1,1-1H58a1,1,0,0,1,1,1v8a1,1,0,0,1-1,1H34a1,1,0,0,1-1-1Zm0,12a1,1,0,0,1,1-1H58a1,1,0,0,1,1,1v8a1,1,0,0,1-1,1H34a1,1,0,0,1-1-1Zm0,12a1,1,0,0,1,1-1H58a1,1,0,0,1,1,1v8a1,1,0,0,1-1,1H34a1,1,0,0,1-1-1ZM57,52v2H53V52Zm-6,0v2H41V52ZM39,52v2H35V52Zm-6-.18V54H31V51.82a3.174,3.174,0,0,0,1-.6A3.174,3.174,0,0,0,33,51.82ZM5,5A1,1,0,0,1,6,4H30a1,1,0,0,1,1,1v8a1,1,0,0,1-1,1H6a1,1,0,0,1-1-1ZM5,17a1,1,0,0,1,1-1H30a1,1,0,0,1,1,1v8a1,1,0,0,1-1,1H6a1,1,0,0,1-1-1ZM5,29a1,1,0,0,1,1-1H30a1,1,0,0,1,1,1v8a1,1,0,0,1-1,1H6a1,1,0,0,1-1-1ZM5,41a1,1,0,0,1,1-1H30a1,1,0,0,1,1,1v8a1,1,0,0,1-1,1H6a1,1,0,0,1-1-1ZM29,52v2H25V52Zm-6,0v2H13V52ZM11,52v2H7V52Zm49,8H4V56H60Z"></path></g></svg>