<svg xmlns="http://www.w3.org/2000/svg" viewBox="0 0 64 64" x="0px" y="0px"><g data-name="Shopping-Hand Shake"><path d="M42.718,59.517a1,1,0,0,0,0-1.414L41.3,56.688h0A1,1,0,0,0,39.889,58.1L41.3,59.517A1,1,0,0,0,42.718,59.517Z"></path><path d="M48.375,53.859a1,1,0,0,0,0-1.414L46.96,51.031a1,1,0,0,0-1.414,1.414l1.414,1.414A1,1,0,0,0,48.375,53.859Z"></path><path d="M31.927,41.31a4.989,4.989,0,0,1-1.23-.885l1.414-1.414a3,3,0,0,0,4.243,0,1,1,0,0,1,1.414,0l4.242,4.242a1,1,0,1,0,1.414-1.414L35.586,34H32.171l-8.9,8.9,3.535,3.536Z"></path><path d="M45.546,56.688a1,1,0,0,0,0-1.415l-1.414-1.414a1,1,0,1,0-1.414,1.415l1.414,1.414A1,1,0,0,0,45.546,56.688Z"></path><path d="M40.438,54.439a2.957,2.957,0,0,1,2.831-2.857A2.955,2.955,0,0,1,46.1,48.754a2.968,2.968,0,0,1,.864-1.966,3.052,3.052,0,0,1,2.873-.746l.312-.312-8.815-8.815h0l3.51,3.51A3,3,0,1,1,40.6,44.667l-3.607-3.606a4.982,4.982,0,0,1-2.793.808l-6.681,6.688a1,1,0,0,0,1.414,1.414l2.828-2.828,1.414,1.414-2.828,2.828a1,1,0,0,0,0,1.414,1.021,1.021,0,0,0,1.414,0l2.829-2.828L36,51.385l-2.829,2.828a1,1,0,0,0,1.4,1.425l.009-.011,2.062-2.055.773-.773,1.414,1.414,0,0v0l-.771.769L36,57.042l-.014.011a1,1,0,0,0,1.428,1.4l.293-.293a2.926,2.926,0,0,1,2.731-3.72Z"></path><rect x="19.393" y="35.536" width="12" height="2" transform="translate(-18.398 28.661) rotate(-45.005)"></rect><rect x="14.151" y="29.293" width="14" height="6.001" transform="translate(-16.639 24.412) rotate(-44.997)"></rect><rect x="47.021" y="33.363" width="1.999" height="12" transform="translate(-13.769 45.484) rotate(-44.998)"></rect><path d="M51.2,51.031a1,1,0,0,0,0-1.414L49.789,48.2a1,1,0,1,0-1.414,1.414l1.414,1.414A1.02,1.02,0,0,0,51.2,51.031Z"></path><polygon points="10.132 18 5.868 18 8 21.197 10.132 18"></polygon><path d="M41,18V34.94l-1.37.27-2.92-2.92A1.033,1.033,0,0,0,36,32H32.17l-1.83-1.83a.978.978,0,0,0,0-1.41L24.69,23.1a1.008,1.008,0,0,0-1.42,0L11.96,34.41a1.008,1.008,0,0,0,0,1.42l5.66,5.66a1.009,1.009,0,0,0,.7.29,1.033,1.033,0,0,0,.71-.29l6.49,6.49a2.982,2.982,0,0,0,2.55,4.27,2.906,2.906,0,0,0,.86,1.96,2.979,2.979,0,0,0,1.97.87,2.945,2.945,0,0,0,2.82,2.82,3.025,3.025,0,0,0,.86,1.97c.05.04.09.09.14.13H13V39H11V57.7L8.83,54.45a1.03,1.03,0,0,0-1.66,0L5,57.7V20.3l2.17,3.25a.99.99,0,0,0,1.66,0L11,20.3V31h2V18h4v2.18a3,3,0,1,0,2,0V18H35v2.18a3,3,0,1,0,2,0V18Z"></path><polygon points="5.868 60 10.132 60 8 56.803 5.868 60"></polygon><circle cx="18" cy="23" r="1"></circle><rect x="49.263" y="27.121" width="6" height="16" transform="translate(-9.527 47.241) rotate(-44.999)"></rect><circle cx="36" cy="23" r="1"></circle><path d="M27,2a9.928,9.928,0,0,0-5,1.353A9.982,9.982,0,0,0,7,12v4H9V12A7.991,7.991,0,0,1,20.212,4.678,9.965,9.965,0,0,0,17,12v6h2V12a7.984,7.984,0,0,1,3-6.235A7.984,7.984,0,0,1,25,12v4h2V12a9.965,9.965,0,0,0-3.212-7.322A7.991,7.991,0,0,1,35,12v6h2V12A10.011,10.011,0,0,0,27,2Z"></path><path d="M42.293,12.707l1.414-1.414L42.414,10H55V27h2V9a1,1,0,0,0-1-1H42.414l1.293-1.293L42.293,5.293l-3,3a1,1,0,0,0,0,1.414Z"></path><rect x="59" y="25" width="2" height="2"></rect><rect x="59" y="21" width="2" height="2"></rect><rect x="59" y="17" width="2" height="2"></rect></g></svg>