<svg xmlns="http://www.w3.org/2000/svg" viewBox="0 0 64 64" x="0px" y="0px"><g><rect x="4" y="33" width="2" height="16"></rect><path d="M8,34V48H34V34Zm4,12H10V36h2Zm4,0H14V36h2Zm4,0H18V36h2Zm4,0H22V36h2Zm4,0H26V36h2Zm4,0H30V36h2Z"></path><rect x="36" y="33" width="2" height="16"></rect><polygon points="54 16 52 16 52 18.38 54 17.38 54 16"></polygon><polygon points="54 19.62 52 20.62 52 23.38 54 22.38 54 19.62"></polygon><polygon points="54 24.62 52 25.62 52 28.38 54 27.38 54 24.62"></polygon><polygon points="54 29.62 52 30.62 52 33.38 54 32.38 54 29.62"></polygon><rect x="58" y="10" width="2" height="2"></rect><rect x="50" y="8" width="6" height="6"></rect><rect x="52" y="4" width="2" height="2"></rect><polygon points="54 34.62 52 35.62 52 38.38 54 37.38 54 34.62"></polygon><polygon points="39.38 10 36.62 10 35.62 12 38.38 12 39.38 10"></polygon><polygon points="48 10 46.62 10 45.62 12 48 12 48 10"></polygon><polygon points="54 39.62 52 40.62 52 43.38 54 42.38 54 39.62"></polygon><polygon points="44.38 10 41.62 10 40.62 12 43.38 12 44.38 10"></polygon><polygon points="34.38 10 31.62 10 30.62 12 33.38 12 34.38 10"></polygon><polygon points="54 44.62 52 45.62 52 48.38 54 47.38 54 44.62"></polygon><polygon points="52 55 54 55 54 49.62 52 50.62 52 55"></polygon><polygon points="29.38 10 26.62 10 25.62 12 28.38 12 29.38 10"></polygon><polygon points="58 60 58 57 48 57 48 60 2 60 2 62 62 62 62 60 58 60"></polygon><path d="M5.49,31.871,21,23.147l15.51,8.724.98-1.742-14.328-8.06A2.984,2.984,0,0,0,24,20H22a1,1,0,1,1-1-1,1,1,0,0,0,1-1V12h1.38l1-2H22V6H20v4H19a1,1,0,0,0,0,2h1v5.171a2.991,2.991,0,0,0-1.162,4.9L4.51,30.129Z"></path></g></svg>