<svg xmlns="http://www.w3.org/2000/svg" viewBox="0 0 64 64" x="0px" y="0px"><g><path d="M60,21a1,1,0,0,0-2,0V51h2Z"></path><polygon points="59.923 53 58.077 53 59 55.308 59.923 53"></polygon><path d="M5,60H16.184A2.966,2.966,0,0,1,16,59V58H8a2,2,0,0,1-2-2V8A2,2,0,0,1,8,6H44a2,2,0,0,1,2,2v4h2V5a1,1,0,0,0-1-1H5A1,1,0,0,0,4,5V59A1,1,0,0,0,5,60Z"></path><path d="M48,18H22V56H48ZM32,38H30V36h2Zm4,0H34V36h2Zm4,0H38V36h2Z"></path><path d="M19,12H44V8H8V56h8V15A3,3,0,0,1,19,12Z"></path><path d="M19,60H51a1,1,0,0,0,1-1V15a1,1,0,0,0-1-1H19a1,1,0,0,0-1,1V59A1,1,0,0,0,19,60Zm1-42a2,2,0,0,1,2-2H48a2,2,0,0,1,2,2V56a2,2,0,0,1-2,2H22a2,2,0,0,1-2-2Z"></path></g></svg>