<svg xmlns="http://www.w3.org/2000/svg" viewBox="0 0 64 64" x="0px" y="0px"><g data-name="No plastic Bag-Pollution-Ban-Plastic-Bag"><path d="M52,2H44a1,1,0,0,0-1,1V15a1,1,0,0,1-1,1H23c-.82,0-1.957-.68-2-1V3a1,1,0,0,0-1-1H12a1,1,0,0,0-1,1V57a5.006,5.006,0,0,0,5,5H48a5.006,5.006,0,0,0,5-5V3A1,1,0,0,0,52,2ZM51,4V7H45V4ZM19,4V7H13V4ZM48,60H16a3,3,0,0,1-3-3V9h6v6c0,1.8,2.408,3,4,3H42a3,3,0,0,0,3-3V9h6V57A3,3,0,0,1,48,60Z"></path><path d="M32,24A15,15,0,1,0,47,39,15.017,15.017,0,0,0,32,24Zm0,28A13,13,0,1,1,45,39,13.015,13.015,0,0,1,32,52Z"></path><path d="M32,28a10.907,10.907,0,0,0-6.063,1.828,1,1,0,0,0-.154,1.539l13.85,13.85a1,1,0,0,0,.707.293c.033,0,.066,0,.1,0a1,1,0,0,0,.733-.442A10.993,10.993,0,0,0,32,28Zm8.121,14.877-12-12a9,9,0,0,1,12,12Z"></path><path d="M24.367,32.783a1,1,0,0,0-1.539.154A10.993,10.993,0,0,0,38.063,48.172a1,1,0,0,0,.154-1.539ZM32,48a9,9,0,0,1-8.121-12.877l12,12A8.935,8.935,0,0,1,32,48Z"></path></g></svg>