<svg xmlns="http://www.w3.org/2000/svg" data-name="Money Tree" viewBox="0 0 64 64" x="0px" y="0px"><path d="M56,49a1,1,0,0,0-1,1,1,1,0,0,1-2,0,1,1,0,0,0-1-1,.988.988,0,0,0-.966.832L52.618,53h2.764l1.584-3.168A.988.988,0,0,0,56,49Z"></path><path d="M55,57V55H53v2a1,1,0,0,0,2,0Z"></path><path d="M57,25H51V47.184a2.846,2.846,0,0,1,2,0V27h2V47.179a2.846,2.846,0,0,1,2,0Z"></path><rect x="51" y="22" width="6" height="1"></rect><path d="M57,19a3,3,0,0,0-6,0v1h6Z"></path><rect x="15" y="19" width="22" height="1"></rect><path d="M45,17a3,3,0,0,0-3-3H38.576A4.95,4.95,0,0,1,39,16h2a2,2,0,0,1,2,2V56a2,2,0,0,1-2,2H16a7.008,7.008,0,0,1-7-7V18a2,2,0,0,1,2-2h2a4.95,4.95,0,0,1,.424-2H10a3,3,0,0,0-3,3V57a3,3,0,0,0,3,3H42a3,3,0,0,0,3-3Z"></path><path d="M15,17H37V16a3,3,0,0,0-3-3H31a1,1,0,0,1-1-1V7a3,3,0,0,0-3-3H25a3,3,0,0,0-3,3v5a1,1,0,0,1-1,1H18a3,3,0,0,0-3,3ZM26,6a3,3,0,1,1-3,3A3,3,0,0,1,26,6Z"></path><path d="M13,21V18H11V49h4a3,3,0,0,1,3,3v4h7V50H20a5.006,5.006,0,0,1-5-5V43a1,1,0,0,1,1-1h6a4.948,4.948,0,0,1,3,1.026V41.941a9,9,0,1,1,2,0v3.085A4.948,4.948,0,0,1,30,44h6a1,1,0,0,1,1,1v2a5.006,5.006,0,0,1-5,5H27v4H41V18H39v3a1,1,0,0,1-1,1H14A1,1,0,0,1,13,21Z"></path><circle cx="26" cy="9" r="1"></circle><path d="M35,47V46H30a3,3,0,0,0-3,3v1h5A3,3,0,0,0,35,47Z"></path><path d="M17,44v1a3,3,0,0,0,3,3h5V47a3,3,0,0,0-3-3Z"></path><path d="M11,51a5.006,5.006,0,0,0,5,5V52a1,1,0,0,0-1-1Z"></path><path d="M33,33a7,7,0,1,0-7,7A7.008,7.008,0,0,0,33,33Zm-6.553-.9C27.524,32.644,29,33.382,29,35a3,3,0,0,1-2,2.816V39H25V37.816A3,3,0,0,1,23,35h2a1,1,0,0,0,2,0c0-.354-.6-.682-1.447-1.1C24.476,33.356,23,32.618,23,31a3,3,0,0,1,2-2.816V27h2v1.184A3,3,0,0,1,29,31H27a1,1,0,0,0-2,0C25,31.354,25.6,31.682,26.447,32.1Z"></path></svg>