<svg xmlns="http://www.w3.org/2000/svg" viewBox="0 0 64 64" x="0px" y="0px"><g data-name="World Business"><path d="M37.759,14.939a17.879,17.879,0,0,1,1.771.705l.838-1.817A19.82,19.82,0,0,0,32.042,12h0l-.015,0-.064,0h0q-.977,0-1.938.1A20.186,20.186,0,0,0,18.106,17.62h0A20,20,0,0,0,31.958,52h0c.008,0,.015,0,.023,0s.037,0,.056,0h0q.976,0,1.938-.1A19.811,19.811,0,0,0,45.894,46.38h0a20.006,20.006,0,0,0,4.239-22.818l-1.812.844A17.788,17.788,0,0,1,49.946,31h-4.98a22.1,22.1,0,0,0-2.672-9.56c.465-.247.927-.507,1.378-.789l-1.062-1.7c-.444.279-.9.532-1.36.772a22.081,22.081,0,0,0-4.827-5.162q.378.1.751.208C37.368,14.832,37.567,14.874,37.759,14.939Zm7.328,29.383a22.282,22.282,0,0,0-2.793-1.762A22.094,22.094,0,0,0,44.966,33H49.95A17.754,17.754,0,0,1,45.087,44.322Zm-1.674,1.584c-.19.156-.386.3-.581.452-.239.181-.48.36-.727.528-.212.145-.428.282-.645.417-.24.148-.481.292-.727.429s-.48.26-.725.381-.463.224-.7.328c-.27.12-.542.236-.818.342-.215.083-.433.159-.651.233-.3.1-.606.2-.915.291-.168.047-.339.087-.508.129a22.09,22.09,0,0,0,4.825-5.153,20.165,20.165,0,0,1,2.379,1.438C43.551,45.781,43.484,45.847,43.413,45.906ZM26.286,49.061c-.289-.1-.575-.2-.858-.307-.224-.088-.445-.182-.665-.279q-.417-.183-.825-.387c-.214-.108-.427-.22-.636-.336-.268-.148-.531-.3-.792-.468-.2-.126-.4-.254-.6-.388-.257-.175-.508-.361-.756-.55-.189-.143-.378-.286-.562-.437-.072-.06-.141-.127-.213-.188a20.084,20.084,0,0,1,2.379-1.438,22.114,22.114,0,0,0,4.821,5.152c-.2-.051-.406-.1-.606-.155C26.741,49.214,26.513,49.137,26.286,49.061ZM14.05,33h4.984a22.1,22.1,0,0,0,2.672,9.559,22.405,22.405,0,0,0-2.793,1.763A17.755,17.755,0,0,1,14.05,33Zm4.863-13.322a22.282,22.282,0,0,0,2.793,1.762A22.09,22.09,0,0,0,19.034,31H14.05A17.754,17.754,0,0,1,18.913,19.678Zm1.674-1.584c.19-.156.386-.3.581-.452.239-.181.48-.36.726-.528.213-.145.429-.282.647-.417.239-.149.48-.292.725-.429s.481-.26.726-.381q.345-.172.7-.328c.27-.12.542-.236.818-.342.215-.083.433-.159.651-.233.3-.1.606-.2.915-.291.168-.047.339-.087.509-.129a22.073,22.073,0,0,0-4.826,5.153,20.165,20.165,0,0,1-2.379-1.438C20.449,18.219,20.516,18.153,20.587,18.094ZM31,14.67v7.3a19.77,19.77,0,0,1-6.415-1.4A20.046,20.046,0,0,1,31,14.67Zm2,27.357a19.77,19.77,0,0,1,6.415,1.4A20.046,20.046,0,0,1,33,49.33Zm-2,7.3a20.037,20.037,0,0,1-6.415-5.9A19.8,19.8,0,0,1,31,42.027ZM40.482,41.7A21.76,21.76,0,0,0,33,40.027V33h9.966A20.08,20.08,0,0,1,40.482,41.7ZM31,40.027A21.755,21.755,0,0,0,23.518,41.7,20.1,20.1,0,0,1,21.034,33H31ZM21.034,31a20.089,20.089,0,0,1,2.483-8.7A21.771,21.771,0,0,0,31,23.973V31ZM33,31V23.973A21.755,21.755,0,0,0,40.482,22.3,20.075,20.075,0,0,1,42.966,31Zm6.415-10.422A19.8,19.8,0,0,1,33,21.973v-7.3A20.037,20.037,0,0,1,39.415,20.578Z"></path><path d="M62.536,34.122l-2.829-2.829a1,1,0,0,0-1.414,0l-2.829,2.829,1.414,1.414,1-1A26,26,0,0,1,6.619,37.668L4.667,38.1A28,28,0,0,0,59.9,34.311l1.225,1.225Z"></path><path d="M57.326,26.09l1.948-.453a27.86,27.86,0,0,0-1.217-3.905l-1.86.734A26.047,26.047,0,0,1,57.326,26.09Z"></path><path d="M5.707,32.707l2.829-2.829L7.122,28.464l-1,1A26.016,26.016,0,0,1,41.583,7.823l.737-1.86A28.012,28.012,0,0,0,4.1,29.689L2.878,28.464,1.464,29.878l2.829,2.829a1,1,0,0,0,1.414,0Z"></path><path d="M51,16a1,1,0,0,1-1-1H48a3,3,0,0,0,2,2.816V19h2V17.816A2.993,2.993,0,0,0,51,12a1,1,0,1,1,1-1h2a3,3,0,0,0-2-2.816V7H50V8.184A2.993,2.993,0,0,0,51,14a1,1,0,0,1,0,2Z"></path><path d="M51,22a9,9,0,1,0-9-9A9.011,9.011,0,0,0,51,22ZM51,6a7,7,0,1,1-7,7A7.008,7.008,0,0,1,51,6Z"></path><rect x="55" y="12" width="2" height="2"></rect><rect x="45" y="12" width="2" height="2"></rect></g></svg>