<svg xmlns="http://www.w3.org/2000/svg" viewBox="0 0 64 64" x="0px" y="0px"><g><rect x="37" y="12" width="4" height="2"></rect><rect x="33" y="12" width="2" height="2"></rect><rect x="29" y="12" width="2" height="2"></rect><rect x="25" y="12" width="2" height="2"></rect><rect x="21" y="12" width="2" height="2"></rect><rect x="17" y="12" width="2" height="2"></rect><path d="M45.87,13.64A7.024,7.024,0,0,0,39,8H31.72L29.95,2.68A1.014,1.014,0,0,0,29,2H24a1,1,0,0,0-1,1V8H17.62L14.89,2.55A.977.977,0,0,0,14,2H9A1,1,0,0,0,8,3V17a3.009,3.009,0,0,0,3,3h7.69a25,25,0,1,0,27.18-6.36ZM25,4h3.28l1.33,4H25ZM11,18a1,1,0,0,1-1-1V4h3.38l2.73,5.45A.977.977,0,0,0,17,10H39a5,5,0,0,1,5,5v2a1,1,0,0,1-1,1H32.58l.4-1.78-1.96-.44L29.2,24H25V16H23v2Zm3,19a22.965,22.965,0,0,1,7.53-17H23v5a1,1,0,0,0,1,1h2v3.59L22.59,33H20a1,1,0,0,0-1,1v3a1.033,1.033,0,0,0,.29.71L24,42.41v2.18l-2.71,2.7A1.033,1.033,0,0,0,21,48v2.59L19.59,52A22.876,22.876,0,0,1,14,37ZM39.02,59.91c-.67.05-1.34.09-2.02.09V57a1.033,1.033,0,0,0-.29-.71L35,54.59V51a1,1,0,0,0-1-1H30.41L29,48.59V46.41L32.41,43h7.18L44,47.41v3.18l-1.71,1.7A1.033,1.033,0,0,0,42,53v3.59l-2.71,2.7A1.029,1.029,0,0,0,39.02,59.91Zm2.94-.45,1.75-1.75A1.033,1.033,0,0,0,44,57V53.41l1.71-1.7A1.033,1.033,0,0,0,46,51V47a1.033,1.033,0,0,0-.29-.71l-5-5A1.033,1.033,0,0,0,40,41H32a1.033,1.033,0,0,0-.71.29l-4,4A1.033,1.033,0,0,0,27,46v3a1.033,1.033,0,0,0,.29.71l2,2A1.033,1.033,0,0,0,30,52h3v3a1.033,1.033,0,0,0,.29.71L35,57.41v2.5a22.926,22.926,0,0,1-14.04-6.45l1.75-1.75A1.033,1.033,0,0,0,23,51V48.41l2.71-2.7A1.033,1.033,0,0,0,26,45V42a1.033,1.033,0,0,0-.29-.71L21,36.59V35h2a1.033,1.033,0,0,0,.71-.29l4-4A1.033,1.033,0,0,0,28,30V26h2a1.015,1.015,0,0,0,.98-.78L32.14,20h3.45l3.7,3.71A1.033,1.033,0,0,0,40,24h4.59L49,28.41v5.18l-1.71,1.7A1.033,1.033,0,0,0,47,36v4a1.033,1.033,0,0,0,.29.71L51,44.41V49a1.033,1.033,0,0,0,.29.71l2.74,2.73A23.056,23.056,0,0,1,41.96,59.46ZM53,48.59V44a1.033,1.033,0,0,0-.29-.71L49,39.59V36.41l1.71-1.7A1.033,1.033,0,0,0,51,34V28a1.033,1.033,0,0,0-.29-.71l-5-5A1.033,1.033,0,0,0,45,22H40.41l-2-2H43a3.009,3.009,0,0,0,3-3V15.84A22.975,22.975,0,0,1,55.31,50.9Z"></path><path d="M43,27H37a1,1,0,0,0-1,1v2a1,1,0,0,0,.293.707L38,32.414V36a1,1,0,0,0,1,1h2a1,1,0,0,0,.707-.293l2-2A1,1,0,0,0,44,34V28A1,1,0,0,0,43,27Zm-1,6.586L40.586,35H40V32a1,1,0,0,0-.293-.707L38,29.586V29h4Z"></path><rect x="8" y="22" width="6" height="2"></rect><rect x="2" y="26" width="2" height="2"></rect><rect x="4" y="22" width="2" height="2"></rect><rect x="6" y="26" width="6" height="2"></rect></g></svg>