<svg xmlns="http://www.w3.org/2000/svg" viewBox="0 0 64 64" x="0px" y="0px"><title>Wireless Connection</title><g data-name="Wireless Connection"><path d="M49,15a14.936,14.936,0,0,1-4.4,10.6,1,1,0,1,0,1.416,1.412,16.982,16.982,0,0,0,0-24.032A1,1,0,1,0,44.6,4.4,14.936,14.936,0,0,1,49,15Z"></path><path d="M40.363,22.777a1,1,0,0,0,1.414,0,10.994,10.994,0,0,0,0-15.554,1,1,0,1,0-1.414,1.414,9,9,0,0,1,0,12.726A1,1,0,0,0,40.363,22.777Z"></path><path d="M18.69,27.31A1,1,0,0,0,19.4,25.6,14.983,14.983,0,0,1,19.4,4.4a1,1,0,1,0-1.416-1.412,16.982,16.982,0,0,0,0,24.032A1,1,0,0,0,18.69,27.31Z"></path><path d="M22.223,22.777a1,1,0,0,0,1.414-1.414,9,9,0,0,1,0-12.726,1,1,0,1,0-1.414-1.414,10.994,10.994,0,0,0,0,15.554Z"></path><path d="M56,54H51.663L41,28.8V25a1,1,0,0,0-1-1H33V19.9a5,5,0,1,0-2,0V24H24a1,1,0,0,0-1,1v3.8L12.337,54H8a1,1,0,0,0-1,1v6a1,1,0,0,0,1,1H56a1,1,0,0,0,1-1V55A1,1,0,0,0,56,54ZM29,15a3,3,0,1,1,3,3A3,3,0,0,1,29,15ZM24.663,30H31v5H22.547Zm16.79,5H33V30h6.337ZM31,37V47H17.47L21.7,37Zm2,0h9.3L46.53,47H33ZM47.376,49l2.115,5H33V49ZM25,26H39v2H25ZM16.624,49H31v5H14.509ZM55,60H9V56H55Z"></path></g></svg>