<svg xmlns="http://www.w3.org/2000/svg" viewBox="0 0 64 64" x="0px" y="0px"><title>Browser_26</title><g data-name="Browser"><path d="M2,2V62H62V2ZM60,4v6H4V4ZM52,37h8V48H52Zm0-2V24h8V35Zm0-13V12h8V22ZM4,12H50V60H4ZM52,60V50h8V60Z"></path><rect x="6" y="6" width="2" height="2"></rect><rect x="10" y="6" width="2" height="2"></rect><rect x="14" y="6" width="2" height="2"></rect><rect x="56" y="6" width="2" height="2"></rect><path d="M6,58H48V40H6ZM8,42H46V56H8Z"></path><rect x="6" y="14" width="2" height="2"></rect><rect x="10" y="14" width="38" height="2"></rect><rect x="6" y="18" width="42" height="2"></rect><rect x="6" y="22" width="42" height="2"></rect><rect x="6" y="26" width="42" height="2"></rect><rect x="6" y="30" width="42" height="2"></rect><rect x="6" y="34" width="42" height="2"></rect></g></svg>