<svg xmlns="http://www.w3.org/2000/svg" viewBox="0 0 48 48" x="0px" y="0px"><title>Order</title><g data-name="Order"><path d="M27.707,2.293A1,1,0,0,0,27,2H5A3,3,0,0,0,2,5V43a3,3,0,0,0,3,3H33a3,3,0,0,0,3-3V11a1,1,0,0,0-.293-.707ZM28,5.414,32.586,10H29a1,1,0,0,1-1-1ZM33,44H5a1,1,0,0,1-1-1V5A1,1,0,0,1,5,4H26V9a3,3,0,0,0,3,3h5V43A1,1,0,0,1,33,44Z"></path><path d="M45,8H43V6a2,2,0,0,0-2-2H39a2,2,0,0,0-2,2V41a1,1,0,0,0,.094.423l1.869,4a1,1,0,0,0,.88.577h.026a1,1,0,0,0,.883-.53l2.131-4A1,1,0,0,0,43,41V10h1v8h2V9A1,1,0,0,0,45,8ZM41,6v6H39V6ZM39.928,42.763,39,40.778V14h2V40.75Z"></path><rect x="8" y="8" width="2" height="2"></rect><rect x="12" y="8" width="8" height="2"></rect><rect x="18" y="26" width="2" height="2"></rect><rect x="26" y="26" width="4" height="2"></rect><rect x="8" y="16" width="18" height="2"></rect><rect x="28" y="16" width="2" height="2"></rect><rect x="8" y="21" width="22" height="2"></rect><rect x="8" y="26" width="8" height="2"></rect><rect x="22" y="26" width="2" height="2"></rect><rect x="8" y="31" width="22" height="2"></rect><rect x="8" y="36" width="18" height="2"></rect><rect x="28" y="36" width="2" height="2"></rect></g></svg>