<svg xmlns="http://www.w3.org/2000/svg" viewBox="0 0 64 64" x="0px" y="0px"><g><path d="M59,48H57.97A9.984,9.984,0,0,0,53,30.05V26.91l1.08-.09a5.034,5.034,0,0,0,4.46-4.02l.39-1.96a1,1,0,0,0-.24-.86.978.978,0,0,0-.83-.33l-2,.18A5.037,5.037,0,0,0,52,22.29a5.037,5.037,0,0,0-3.86-2.46l-2-.18a.978.978,0,0,0-.83.33,1,1,0,0,0-.24.86l.39,1.96a5.034,5.034,0,0,0,4.46,4.02l1.08.09v3.14A10.006,10.006,0,0,0,42,40a10.2,10.2,0,0,0,.2,2H40V31a1,1,0,0,0-1-1H30V14h4a1,1,0,0,0,.61-1.79l-13-10a.991.991,0,0,0-1.22,0l-13,10A1,1,0,0,0,8,14h4V30H3a1,1,0,0,0-1,1V61a1,1,0,0,0,1,1H43a2.974,2.974,0,0,0,2-.78A2.974,2.974,0,0,0,47,62H59a3.009,3.009,0,0,0,3-3V57a2.974,2.974,0,0,0-.78-2A2.974,2.974,0,0,0,62,53V51A3.009,3.009,0,0,0,59,48ZM53.37,24.23a3.006,3.006,0,0,1,2.67-2.41l.67-.06-.13.66a3.027,3.027,0,0,1-2.68,2.41l-.66.05Zm-3.27.6a3.027,3.027,0,0,1-2.68-2.41l-.13-.66.67.06a3.006,3.006,0,0,1,2.67,2.41l.13.65ZM38,32v4.91A5.992,5.992,0,0,1,33.09,32ZM10.94,12,21,4.26,31.06,12H29a1,1,0,0,0-1,1V30H14V13a1,1,0,0,0-1-1ZM4,32H8.91A5.992,5.992,0,0,1,4,36.91ZM4,43.09A5.992,5.992,0,0,1,8.91,48H4ZM15,60H4V58H15Zm0-4H4V54H15Zm0-4H4V50H15Zm10,8H17V50h8Zm3.18,0H27V50h1.18A3,3,0,0,0,28,51v2a2.974,2.974,0,0,0,.78,2A2.974,2.974,0,0,0,28,57v2A3,3,0,0,0,28.18,60ZM28,45v2a3,3,0,0,0,.18,1H10.93A8,8,0,0,0,4,41.07V38.93A8,8,0,0,0,10.93,32H31.07A8,8,0,0,0,38,38.93v2.14a7.726,7.726,0,0,0-2.84.93H31A3.009,3.009,0,0,0,28,45ZM44,59a1,1,0,0,1-1,1H31a1,1,0,0,1-1-1V57a1,1,0,0,1,1-1h1v2h2V56h2v2h2V56h2v2h2V56h1a1,1,0,0,1,1,1Zm0-6a1,1,0,0,1-1,1H31a1,1,0,0,1-1-1V51a1,1,0,0,1,1-1h1v2h2V50h2v2h2V50h2v2h2V50h1a1,1,0,0,1,1,1Zm0-6a1,1,0,0,1-1,1H31a1,1,0,0,1-1-1V45a1,1,0,0,1,1-1h1v2h2V44h2v2h2V44h2v2h2V44h.84A9.713,9.713,0,0,0,44,45.97Zm0-7a8,8,0,1,1,8,8A8.011,8.011,0,0,1,44,40Zm1.86,7.87c.11.09.22.17.33.25a2.846,2.846,0,0,0-.51.2A3.016,3.016,0,0,0,45.86,47.87ZM60,59a1,1,0,0,1-1,1H47a1,1,0,0,1-1-1V57a1,1,0,0,1,1-1h1v2h2V56h2v2h2V56h2v2h2V56h1a1,1,0,0,1,1,1Zm0-6a1,1,0,0,1-1,1H47a1,1,0,0,1-1-1V51a1,1,0,0,1,1-1h1v2h2V50h2v2h2V50h2v2h2V50h1a1,1,0,0,1,1,1Z"></path><path d="M53,43H51a1,1,0,0,1-1-1H48a3,3,0,0,0,3,3v1h2V45a3,3,0,0,0,0-6H51a1,1,0,0,1,0-2h2a1,1,0,0,1,1,1h2a3,3,0,0,0-3-3V34H51v1a3,3,0,0,0,0,6h2a1,1,0,0,1,0,2Z"></path><path d="M21,35a5,5,0,1,0,5,5A5.006,5.006,0,0,0,21,35Zm0,8a3,3,0,1,1,3-3A3,3,0,0,1,21,43Z"></path></g></svg>