<svg xmlns="http://www.w3.org/2000/svg" viewBox="0 0 64 64" x="0px" y="0px"><g><path d="M49,46a1,1,0,0,1,1,1h2a3,3,0,0,0-2-2.816V43H48v1.184A2.993,2.993,0,0,0,49,50a1,1,0,1,1-1,1H46a3,3,0,0,0,2,2.816V55h2V53.816A2.993,2.993,0,0,0,49,48a1,1,0,0,1,0-2Z"></path><path d="M49,39A10,10,0,1,0,59,49,10.011,10.011,0,0,0,49,39Zm0,18a8,8,0,1,1,8-8A8.009,8.009,0,0,1,49,57Z"></path><path d="M56.653,38.514A27.746,27.746,0,0,0,58,30,28,28,0,1,0,30,58a27.736,27.736,0,0,0,8.514-1.347A12.985,12.985,0,1,0,56.653,38.514ZM4,30A26.035,26.035,0,0,1,20.422,5.836l6.258,6.258L24.2,15.4a1,1,0,0,0-.095,1.047l2,4a1,1,0,0,0,.38.41L31,23.566v2.868l-4.515,2.709a.985.985,0,0,0-.285.257l-2.77,3.694L18.8,34.02a1,1,0,0,0-.7,1.427L19.882,39l-2.777,5.553a1,1,0,0,0,.188,1.154L22,50.414V53a1.012,1.012,0,0,0,.071.372L22.7,54.95A26.04,26.04,0,0,1,4,30ZM25.089,55.529,24,52.807V50a1,1,0,0,0-.293-.707l-4.49-4.49L21.9,39.447a1,1,0,0,0,0-.894l-1.416-2.829L24.2,34.98a1,1,0,0,0,.6-.38l2.883-3.843,4.832-2.9A1,1,0,0,0,33,27V23a1,1,0,0,0-.485-.857l-4.75-2.851-1.594-3.187L28.8,12.6a1,1,0,0,0-.093-1.307L22.517,5.1A25.915,25.915,0,0,1,42.932,7.459l-4.283,1.6a1,1,0,0,0-.619.694l-1,4a1,1,0,0,0,.075.69l1.847,3.693L38.02,22.8a1,1,0,0,0,.18.8l2.863,3.818.83,4.144-6.474,4.624A1,1,0,0,0,35,37v4.586l-3.707,3.707a1,1,0,0,0-.241,1.023L32.946,52l-1.31,3.932C31.092,55.966,30.549,56,30,56A26.06,26.06,0,0,1,25.089,55.529Zm8.73.175,1.129-3.388a.977.977,0,0,0,0-.632l-1.8-5.414,3.562-3.563A1,1,0,0,0,37,42V37.515l6.581-4.7a1,1,0,0,0,.4-1.01l-1-5a.99.99,0,0,0-.18-.4l-2.732-3.642L40.98,18.2a1,1,0,0,0-.085-.643L39.06,13.884l.783-3.132,5.19-1.945a25.857,25.857,0,0,1,9.861,28.621A12.977,12.977,0,0,0,37.428,54.9,25.449,25.449,0,0,1,33.819,55.7ZM49,60A11,11,0,1,1,60,49,11.013,11.013,0,0,1,49,60Z"></path><rect x="54" y="48" width="2" height="2"></rect><rect x="42" y="48" width="2" height="2"></rect></g></svg>