<svg xmlns="http://www.w3.org/2000/svg" viewBox="0 0 64 64" x="0px" y="0px"><title>Wrench-Construction</title><g><path d="M51,18A18.959,18.959,0,0,0,42.556,2.208,1,1,0,0,0,41,3.04V14.323l-9,3.6-9-3.6V3.04a1,1,0,0,0-1.556-.832A18.989,18.989,0,0,0,23,34.727V59a3,3,0,0,0,3,3H38a3,3,0,0,0,3-3V34.727A19.015,19.015,0,0,0,51,18ZM39,35.663V59a1,1,0,0,1-1,1H26a1,1,0,0,1-1-1V35.663c.22.087.449.151.672.23.289.1.575.21.87.3s.575.151.863.223c.312.078.621.162.939.224.254.05.511.078.767.117.358.055.713.118,1.077.152.186.018.373.016.559.029.416.027.83.063,1.253.063s.837-.036,1.253-.063c.186-.013.373-.011.559-.029.364-.034.719-.1,1.077-.152.256-.039.513-.067.767-.117.318-.062.627-.146.939-.224.288-.072.578-.137.863-.223s.581-.2.87-.3C38.551,35.814,38.78,35.75,39,35.663Zm.216-2.293q-.559.264-1.132.485c-.211.081-.422.161-.636.234-.36.122-.725.226-1.091.324-.233.062-.464.128-.7.181-.383.084-.772.144-1.161.2-.216.032-.429.075-.647.1a16.315,16.315,0,0,1-3.7,0c-.218-.024-.43-.067-.646-.1-.39-.058-.779-.118-1.162-.2-.237-.053-.468-.119-.7-.181-.366-.1-.731-.2-1.091-.324-.214-.073-.425-.153-.635-.234q-.573-.22-1.133-.485A16.975,16.975,0,0,1,21,5.044V15a1,1,0,0,0,.628.929l10,4a1.017,1.017,0,0,0,.744,0l10-4A1,1,0,0,0,43,15V5.044A16.975,16.975,0,0,1,39.216,33.37Z"></path><path d="M32,39a3,3,0,0,0-3,3V55a3,3,0,0,0,6,0V42A3,3,0,0,0,32,39Zm1,16a1,1,0,0,1-2,0V42a1,1,0,0,1,2,0Z"></path></g></svg>