<svg xmlns="http://www.w3.org/2000/svg" viewBox="0 0 64 64" x="0px" y="0px"><g><path d="M23.23,46.38,27,55.81V37.41L23.41,41l2.3,2.29a1.046,1.046,0,0,1,.29.81.989.989,0,0,1-.45.73Z"></path><path d="M33.37,19.29a4.966,4.966,0,0,1-1.1-2.08L32,16.13l-.27,1.08a4.966,4.966,0,0,1-1.1,2.08A11.416,11.416,0,0,1,33.37,19.29Z"></path><path d="M41,19.97a4.866,4.866,0,0,1-1,.61l1,.2Z"></path><path d="M29,41.65V60h6V41.65a13.032,13.032,0,0,1-6,0Z"></path><path d="M40.59,41,37,37.41v18.4l3.77-9.43-2.32-1.55A.989.989,0,0,1,38,44.1a1.046,1.046,0,0,1,.29-.81Z"></path><path d="M35,31.57a10.68,10.68,0,0,1-6,0v8.02a11.733,11.733,0,0,0,6,0Z"></path><path d="M39.05,26.57l-5.16-.58.22-1.98,6.09.68a8.89,8.89,0,0,0,.62-1.91l-7.06-1.41a9.065,9.065,0,0,0-3.52,0l-7.06,1.41a8.89,8.89,0,0,0,.62,1.91l6.09-.68.22,1.98-5.16.58a8.96,8.96,0,0,0,14.1,0Z"></path><path d="M40.77,11a8.994,8.994,0,0,0-17.54,0Z"></path><path d="M19,17a2.015,2.015,0,0,0,2,2V15A2.006,2.006,0,0,0,19,17Z"></path><path d="M13,60h6V48h2V60h5.52L21.07,46.37a1,1,0,0,1,.38-1.2l1.98-1.33-2.14-2.13a1.008,1.008,0,0,1,0-1.42l3.13-3.12L17.91,39.2A6.964,6.964,0,0,0,13,45.88Z"></path><path d="M23,20.78l1-.2a4.866,4.866,0,0,1-1-.61Z"></path><path d="M34.21,16.73A3.014,3.014,0,0,0,37.12,19H38a3.009,3.009,0,0,0,3-3V13H33.28ZM37,14a2,2,0,1,1-2,2A2,2,0,0,1,37,14Z"></path><path d="M51,60V45.88a6.964,6.964,0,0,0-4.91-6.68l-6.51-2.03,3.13,3.12a1.008,1.008,0,0,1,0,1.42l-2.14,2.13,1.98,1.33a1,1,0,0,1,.38,1.2L37.48,60H43V48h2V60Z"></path><path d="M23,16a3.009,3.009,0,0,0,3,3h.88a3.012,3.012,0,0,0,2.91-2.28L30.72,13H23Zm4-2a2,2,0,1,1-2,2A2,2,0,0,1,27,14Z"></path><path d="M43,15v4a2.015,2.015,0,0,0,2-2A2.006,2.006,0,0,0,43,15Z"></path></g></svg>