<svg xmlns="http://www.w3.org/2000/svg" viewBox="0 0 64 64" x="0px" y="0px"><g data-name="Stationery-Office Supplies-Planning-Management-Business"><path d="M50,60H32v2H50a5,5,0,0,0,4.843-3.75l-1.938-.5A3,3,0,0,1,50,60Z"></path><path d="M11,7a3,3,0,0,1,3-3H45V9a3,3,0,0,0,3,3h5V32h2V11a1,1,0,0,0-.293-.707l-8-8A1,1,0,0,0,46,2H14A5.006,5.006,0,0,0,9,7V37h2ZM47,9V5.414L51.586,10H48A1,1,0,0,1,47,9Z"></path><rect x="15" y="8" width="2" height="2"></rect><rect x="19" y="8" width="6" height="2"></rect><rect x="15" y="12" width="10" height="2"></rect><path d="M57,46H32a1.006,1.006,0,0,0-.555.168L28.7,48H27a3,3,0,0,0,0,6h1.7l2.748,1.832A1.006,1.006,0,0,0,32,56H57a5,5,0,0,0,0-10Zm-6,4H34V48H51ZM34,52H51v2H34Zm19-4h1v6H53ZM26,51a1,1,0,0,1,1-1h1v2H27A1,1,0,0,1,26,51Zm4,1.465v-2.93L32,48.2v5.6ZM57,54H56V48h1a3,3,0,0,1,0,6Z"></path><path d="M61,34H25a1,1,0,0,0-1,1v8a1,1,0,0,0,1,1H61a1,1,0,0,0,1-1V35A1,1,0,0,0,61,34Zm-1,8H56V38H54v4H52V40H50v2H48V40H46v2H44V38H42v4H40V40H38v2H36V40H34v2H32V38H30v4H26V36H60Z"></path><path d="M3.707,34.293A1,1,0,0,0,2,35V61a1,1,0,0,0,1,1H29a1,1,0,0,0,.707-1.707ZM4,60V37.414L26.586,60Z"></path><path d="M7,58H19.343a1,1,0,0,0,.707-1.707L7.707,43.95A1,1,0,0,0,6,44.657V57A1,1,0,0,0,7,58ZM8,47.071,16.929,56H8Z"></path><path d="M29,31V19a1,1,0,0,0-1-1H16a1,1,0,0,0-1,1V31a1,1,0,0,0,1,1H28A1,1,0,0,0,29,31Zm-2-1H17V20H27Z"></path><rect x="31" y="18" width="8" height="2"></rect><rect x="41" y="18" width="8" height="2"></rect><rect x="31" y="22" width="8" height="2"></rect><rect x="41" y="22" width="8" height="2"></rect><rect x="31" y="26" width="8" height="2"></rect><rect x="41" y="26" width="8" height="2"></rect><rect x="31" y="30" width="8" height="2"></rect><rect x="41" y="30" width="8" height="2"></rect><rect x="15" y="34" width="6" height="2"></rect><rect x="15" y="38" width="6" height="2"></rect><rect x="15" y="42" width="6" height="2"></rect></g></svg>