<svg xmlns="http://www.w3.org/2000/svg" viewBox="0 0 64 64" x="0px" y="0px"><g data-name="Syncronize File-Mobile"><rect x="18" y="56" width="6" height="2"></rect><rect x="11" y="16" width="2" height="2"></rect><rect x="15" y="16" width="4" height="2"></rect><path d="M56,26H47V4a2,2,0,0,0-2-2H23a2,2,0,0,0-2,2v8H8a3,3,0,0,0-3,3V59a3,3,0,0,0,3,3H34a3,3,0,0,0,3-3V40H50a3,3,0,0,0,3-3V36h5a1,1,0,0,0,1-1V29A3,3,0,0,0,56,26ZM23,4H45V37a2.966,2.966,0,0,0,.184,1H24a1,1,0,0,1-1-1ZM8,14H21v6H7V15A1,1,0,0,1,8,14ZM34,60H8a1,1,0,0,1-1-1V54H35v5A1,1,0,0,1,34,60Zm1-8H7V22H21V37a3,3,0,0,0,3,3H35ZM51,37a1,1,0,0,1-1,1H48a1,1,0,0,1-1-1V28h4.184A2.966,2.966,0,0,0,51,29Zm6-3H53V29a1,1,0,0,1,1-1h2a1,1,0,0,1,1,1Z"></path><rect x="27" y="10" width="14" height="2"></rect><rect x="27" y="16" width="14" height="2"></rect><rect x="27" y="22" width="14" height="2"></rect><rect x="27" y="28" width="14" height="2"></rect></g></svg>