<svg xmlns="http://www.w3.org/2000/svg" viewBox="0 0 64 64" x="0px" y="0px"><g data-name="Surfer"><rect x="19" y="19" width="2" height="2"></rect><rect x="29" y="19" width="2" height="2"></rect><path d="M29,25H27a2,2,0,0,1-4,0H21a4,4,0,0,0,8,0Z"></path><path d="M36.09,44,35.91,42,25,43,14.09,42,13.91,44,24,44.913V52a1,1,0,0,1-1,1H17v2h6a2.981,2.981,0,0,0,2-.78A2.981,2.981,0,0,0,27,55h6V53H27a1,1,0,0,1-1-1V44.913Z"></path><path d="M53.691,13.574,51.48,11.142a2.065,2.065,0,0,0-2.959,0l-2.212,2.433A25.077,25.077,0,0,0,39.9,32.526l.628,7.32a10.862,10.862,0,0,0-2.247-.991L30,36.265V32.786A11,11,0,0,0,36,23V22a3,3,0,0,0,0-6V13a11,11,0,0,0-22,0v3a3,3,0,0,0,0,6v1a11,11,0,0,0,6,9.786v3.479l-8.277,2.59A10.94,10.94,0,0,0,4,49.35V61a1,1,0,0,0,1,1H45a1,1,0,0,0,1-1V56.8l4-1.714,6.606,2.831A1,1,0,0,0,58,57.085l2.1-24.559A25.077,25.077,0,0,0,53.691,13.574ZM56.966,23c.223.657.411,1.325.575,2H42.459c.164-.675.352-1.343.575-2Zm-4.755-8.081A22.939,22.939,0,0,1,56.178,21H51V13.587Zm-4.422,0L49,13.587V21H43.822A22.939,22.939,0,0,1,47.789,14.919ZM34,15H16V13H34Zm3,4a1,1,0,0,1-1,1V18A1,1,0,0,1,37,19ZM25,4a9.01,9.01,0,0,1,8.768,7H16.232A9.01,9.01,0,0,1,25,4ZM13,19a1,1,0,0,1,1-1v2A1,1,0,0,1,13,19Zm3,4V17H34v6a9,9,0,0,1-18,0ZM44,60H39V48H37V60H13V48H11V60H6V49.35a8.948,8.948,0,0,1,6.319-8.585l8.98-2.81A1,1,0,0,0,22,37V33.574a10.776,10.776,0,0,0,6,0V37a1,1,0,0,0,.7.955l8.983,2.81a8.765,8.765,0,0,1,3.065,1.689L42,57.085a1,1,0,0,0,1.391.834l.606-.26ZM58.108,32.355,56.122,55.536l-5.728-2.455a1,1,0,0,0-.788,0l-5.728,2.455L41.892,32.355A22.863,22.863,0,0,1,42.07,27H57.93A22.863,22.863,0,0,1,58.108,32.355Z"></path><rect x="53" y="48" width="2" height="4"></rect><rect x="49" y="45" width="2" height="4"></rect><rect x="45" y="48" width="2" height="4"></rect></g></svg>