<svg xmlns="http://www.w3.org/2000/svg" viewBox="0 0 64 64" x="0px" y="0px"><title>Process_1</title><g data-name="Process"><path d="M17.5,24A2.5,2.5,0,0,1,15,21.5H13a4.5,4.5,0,0,0,9,0H20A2.5,2.5,0,0,1,17.5,24Z"></path><path d="M58,40a9.01,9.01,0,0,1-9,9,1,1,0,0,0-1,1V60H26V51h5V49H17a5.006,5.006,0,0,1-5-5V36a1,1,0,0,0-1-1H6.385l6.539-19.748A17.9,17.9,0,0,1,29.392,4H38V2H29.392A19.914,19.914,0,0,0,11.051,14.555l-7,21.131A1,1,0,0,0,5,37h5v7a7.009,7.009,0,0,0,7,7h7V61a1,1,0,0,0,1,1H49a1,1,0,0,0,1-1V50.955A11.015,11.015,0,0,0,60,40V32H58Z"></path><path d="M59,2H43a3,3,0,0,0-3,3V27a3,3,0,0,0,3,3H59a3,3,0,0,0,3-3V5A3,3,0,0,0,59,2Zm1,25a1,1,0,0,1-1,1H43a1,1,0,0,1-1-1V5a1,1,0,0,1,1-1H59a1,1,0,0,1,1,1Z"></path><path d="M58,5H44a1,1,0,0,0-1,1v4a1,1,0,0,0,1,1H58a1,1,0,0,0,1-1V6A1,1,0,0,0,58,5ZM57,9H45V7H57Z"></path><polygon points="48 12 46 12 46 14 44 14 44 16 46 16 46 18 48 18 48 16 50 16 50 14 48 14 48 12"></polygon><polygon points="53.586 17.828 55 16.414 56.414 17.828 57.828 16.414 56.414 15 57.828 13.586 56.414 12.172 55 13.586 53.586 12.172 52.172 13.586 53.586 15 52.172 16.414 53.586 17.828"></polygon><rect x="44" y="22" width="6" height="2"></rect><rect x="52" y="22" width="6" height="2"></rect><rect x="54" y="19" width="2" height="2"></rect><rect x="54" y="25" width="2" height="2"></rect></g></svg>