<svg xmlns="http://www.w3.org/2000/svg" viewBox="0 0 64 64" x="0px" y="0px"><g><path d="M4,26V52H47.382l-1.277-2.553A1,1,0,0,1,46,49V26Zm6,24H8V48h2Zm0-4H8V44h2Zm0-4H8V40h2Zm0-4H8V36h2Zm0-4H8V32h2Zm0-4H8V28h2Zm6,3h2a3,3,0,0,1,0,6v1H16V39a3,3,0,0,1-3-3h2a1,1,0,0,0,1,1h2a1,1,0,0,0,0-2H16a3,3,0,0,1,0-6V28h2v1a3,3,0,0,1,3,3H19a1,1,0,0,0-1-1H16a1,1,0,0,0,0,2Zm9,7H23V38h2Zm4,0H27V38h2Zm14,7a3.069,3.069,0,0,1-2.1-.7A1.161,1.161,0,0,0,40,46c-.441,0-.8.288-1.349.759A3.992,3.992,0,0,1,36,48a3.079,3.079,0,0,1-2.1-.7A1.158,1.158,0,0,0,33,47V45a3.079,3.079,0,0,1,2.1.7,1.158,1.158,0,0,0,.9.3c.441,0,.8-.288,1.349-.759A3.992,3.992,0,0,1,40,44a3.069,3.069,0,0,1,2.1.7,1.161,1.161,0,0,0,.9.3ZM31,40V38h2v2Zm4,0V38h2v2Zm4,0V38h2v2Zm4-4H23V34H43Z"></path><rect x="48" y="26" width="8" height="2"></rect><path d="M47.556,18.649h0a8.114,8.114,0,0,0,8.886,0h0a8,8,0,1,0-8.888,0ZM53,13H51a3,3,0,0,1,0-6V6h2V7a3,3,0,0,1,3,3H54a1,1,0,0,0-1-1H51a1,1,0,0,0,0,2h2a3,3,0,0,1,0,6v1H51V17a3,3,0,0,1-3-3h2a1,1,0,0,0,1,1h2a1,1,0,0,0,0-2Z"></path><path d="M53,56H51v3a1,1,0,0,0,2,0Z"></path><polygon points="52 48.077 48.381 49.525 50.618 54 53.382 54 55.619 49.525 52 48.077"></polygon><path d="M60,26H58V49a1,1,0,0,1-.1.447L56.618,52H60Z"></path><polygon points="56 47.523 56 30 53 30 53 46.323 56 47.523"></polygon><path d="M56,21.166a10.126,10.126,0,0,1-8,0V24h8Z"></path><polygon points="60 54 55.618 54 55 55.236 55 56 60 56 60 54"></polygon><polygon points="4 56 49 56 49 55.236 48.382 54 4 54 4 56"></polygon><polygon points="48 47.523 51 46.323 51 30 48 30 48 47.523"></polygon></g></svg>