<svg xmlns="http://www.w3.org/2000/svg" viewBox="0 0 48 48" x="0px" y="0px"><g data-name="Delivery"><rect x="30" y="18" width="9" height="2"></rect><rect x="36" y="22" width="2" height="2"></rect><rect x="39" y="22" width="2" height="2"></rect><rect x="40" y="18" width="2" height="2"></rect><rect x="35" y="26" width="4" height="2"></rect><rect x="40" y="26" width="2" height="2"></rect><path d="M37,34V32H4v2h.78a2.964,2.964,0,0,1,4.44,0H25.78a2.964,2.964,0,0,1,4.44,0h1.56a2.964,2.964,0,0,1,4.44,0Z"></path><polygon points="13 21 8.351 21 4 24.48 4 27 13 27 13 21"></polygon><rect x="4" y="29" width="9" height="1"></rect><circle cx="7" cy="36" r="2"></circle><circle cx="28" cy="36" r="2"></circle><circle cx="34" cy="36" r="2"></circle><path d="M20,16v6h8V16Zm1,1h2v1H21Zm6,4H21V20h6Zm0-3H25V17h2Z"></path><path d="M15,24v6h8V24Zm1,1h2v1H16Zm6,4H16V28h6Zm0-3H20V25h2Z"></path><path d="M25,24v6h8V24Zm1,1h2v1H26Zm6,4H26V28h6Zm0-3H30V25h2Z"></path></g></svg>