<svg xmlns="http://www.w3.org/2000/svg" viewBox="0 0 64 64" x="0px" y="0px"><g><path d="M49,12H15V44.659l2.438-4.221a4,4,0,0,1,3.939-1.969,12.992,12.992,0,1,1,3.461,3.37,3.951,3.951,0,0,1-.472,2.6l-3.257,5.641L21.877,52H49ZM19,23H17V21h2Zm3-7H19v3H17V15a1,1,0,0,1,1-1h4Z"></path><path d="M43,31A11,11,0,1,0,32,42,11.013,11.013,0,0,0,43,31ZM31,23a1.994,1.994,0,0,1,1,3.722v1.234h3v2H32V32h4a1,1,0,0,1,.707.293l3,3-1.414,1.414L35.586,34H31a1,1,0,0,1-1-1V26.722A1.994,1.994,0,0,1,31,23ZM25,34a5.957,5.957,0,0,1,2.4-4.8l1.2,1.6a4,4,0,1,0,6.066,4.8l1.833.8A6,6,0,0,1,25,34Z"></path><path d="M49,54H22.6a10.954,10.954,0,0,1,.4,2.926v1.3A10.985,10.985,0,0,1,22.846,60H44a5.006,5.006,0,0,0,5-5ZM34,58H30V56h4Z"></path><path d="M49,9a5.006,5.006,0,0,0-5-5H20a5.006,5.006,0,0,0-5,5v1H49ZM27,8H25V6h2Zm8,0H29V6h6Z"></path><path d="M21,58.23v-1.3a8.967,8.967,0,0,0-.644-3.343l-1.285-3.212a1,1,0,0,1,.063-.871l3.5-6.062a2,2,0,0,0-3.465-2l-5,8.66-1.732-1L13,48.123V35.15l-4.506,7.8a14.9,14.9,0,0,0-1.92,9.16L7.561,61H20.555A8.923,8.923,0,0,0,21,58.23Z"></path></g></svg>