<svg xmlns="http://www.w3.org/2000/svg" viewBox="0 0 64 64" x="0px" y="0px"><g data-name="Credit Card-Wallet"><rect x="28" y="12" width="6.001" height="4"></rect><path d="M52,26a2,2,0,0,0,0-4,1.968,1.968,0,0,0-1.3.486,3.946,3.946,0,0,1,0,3.028A1.968,1.968,0,0,0,52,26Z"></path><path d="M57,6H25a3.009,3.009,0,0,0-3,3V28H33a5,5,0,0,1,5,5V55a3.01,3.01,0,0,0,2,2.82V37h2V57.82A3.01,3.01,0,0,0,44,55V34H40V32H57a3.009,3.009,0,0,0,3-3V9A3.009,3.009,0,0,0,57,6ZM28,24H26V22h2Zm4,0H30V22h2Zm-4-6a2.006,2.006,0,0,1-2-2V12a2.006,2.006,0,0,1,2-2h6a2.006,2.006,0,0,1,2,2v4a2.006,2.006,0,0,1-2,2Zm10,6H34V22h4ZM50,11h2v4H50Zm-4,0h2v4H46Zm-4,0h2v4H42ZM52,28a4.023,4.023,0,0,1-2.51-.89,4,4,0,1,1,0-6.22A4,4,0,1,1,52,28Zm4-13H54V11h2Z"></path><circle cx="47" cy="24" r="2"></circle><path d="M20,36a8,8,0,1,0,8,8A8.011,8.011,0,0,0,20,36Zm0,7a3,3,0,0,1,1,5.82V50H19V48.82A3.01,3.01,0,0,1,17,46h2a1,1,0,1,0,1-1,3,3,0,0,1-1-5.82V38h2v1.18A3.01,3.01,0,0,1,23,42H21a1,1,0,1,0-1,1Z"></path><path d="M36,55V33a3.009,3.009,0,0,0-3-3H7a3.009,3.009,0,0,0-3,3V55a3.009,3.009,0,0,0,3,3H37A4.985,4.985,0,0,1,36,55ZM20,54A10,10,0,1,1,30,44,10.016,10.016,0,0,1,20,54Z"></path><rect x="12" y="10" width="6" height="2"></rect><rect x="6" y="14" width="8" height="2"></rect><rect x="2" y="14" width="2" height="2"></rect><rect x="12" y="18" width="4" height="2"></rect><rect x="8" y="18" width="2" height="2"></rect><rect x="10" y="22" width="4" height="2"></rect><rect x="6" y="22" width="2" height="2"></rect><rect x="2" y="22" width="2" height="2"></rect></g></svg>