<svg xmlns="http://www.w3.org/2000/svg" viewBox="0 0 64 64" x="0px" y="0px"><g data-name="Air Filter-Internet of Things-Air Pollution-Household-Smartphone"><path d="M56,2H22a3.009,3.009,0,0,0-3,3V26H10a5,5,0,0,0-5,5V57a5,5,0,0,0,5,5H55a2.006,2.006,0,0,0,2-2V57.82A3.01,3.01,0,0,0,59,55V5A3.009,3.009,0,0,0,56,2ZM27,57a3.009,3.009,0,0,1-3,3H10a3.009,3.009,0,0,1-3-3V54H27Zm0-5H7V34H27Zm0-20H7V31a3.009,3.009,0,0,1,3-3H24a3.009,3.009,0,0,1,3,3ZM55,60H27.97a4.84,4.84,0,0,0,.93-2H55Zm2-5a1,1,0,0,1-1,1H29V54H55V52H29V50H55V48H29V46H55V44H29V42H55V40H29V38H55V36H29V34H55V32H29V31a5.468,5.468,0,0,0-.1-1H55V28H27.97A4.952,4.952,0,0,0,24,26H21V5a1,1,0,0,1,1-1H56a1,1,0,0,1,1,1Z"></path><path d="M39,7a9,9,0,1,0,9,9A9.01,9.01,0,0,0,39,7Zm0,16a7,7,0,1,1,7-7A7.009,7.009,0,0,1,39,23Z"></path><rect x="34" y="14" width="2" height="2"></rect><rect x="38" y="14" width="2" height="2"></rect><rect x="42" y="14" width="2" height="2"></rect><rect x="36" y="18" width="6" height="2"></rect><path d="M13.465,43.465l1.414,1.414a3.072,3.072,0,0,1,4.242,0l1.414-1.414a5,5,0,0,0-7.07,0Z"></path><path d="M12.05,42.05a7.009,7.009,0,0,1,9.9,0l1.414-1.414a9.012,9.012,0,0,0-12.728,0Z"></path><path d="M15.586,46.586,17,48l1.414-1.414A2,2,0,0,0,15.586,46.586Z"></path><rect x="16" y="56" width="2" height="2"></rect></g></svg>