<svg xmlns="http://www.w3.org/2000/svg" viewBox="0 0 64 64" x="0px" y="0px"><g data-name="Video Call-Webcam-Chat-Computer-Video"><path d="M32,22a4,4,0,1,0,4,4A4,4,0,0,0,32,22Zm0,6a2,2,0,1,1,2-2A2.006,2.006,0,0,1,32,28Z"></path><path d="M32,32a6.078,6.078,0,0,1-.61-.03,9,9,0,0,1-2.39-.5V34h6V31.47a9,9,0,0,1-2.39.5A6.078,6.078,0,0,1,32,32Z"></path><path d="M24,39v1H40V39a3.009,3.009,0,0,0-3-3H27A3.009,3.009,0,0,0,24,39Z"></path><path d="M8,42v3a3.009,3.009,0,0,0,3,3H53a3.009,3.009,0,0,0,3-3V42Zm44,4H50V44h2Z"></path><path d="M19,4H5A1,1,0,0,0,4,5v8a1,1,0,0,0,1,1h6a1.033,1.033,0,0,1,.71.29L14,16.59V15a1,1,0,0,1,1-1h4a1,1,0,0,0,1-1V5A1,1,0,0,0,19,4Zm-2,8H7V10H17Zm0-4H7V6H17Z"></path><path d="M32,20a6,6,0,0,1,6,6,4.727,4.727,0,0,1-.04.65A6.906,6.906,0,0,0,39,23a7,7,0,0,0-14,0,6.906,6.906,0,0,0,1.04,3.65A4.727,4.727,0,0,1,26,26,6,6,0,0,1,32,20Z"></path><path d="M59,4H45a1,1,0,0,0-1,1v8a1,1,0,0,0,1,1h4a1,1,0,0,1,1,1v1.59l2.29-2.3A1.033,1.033,0,0,1,53,14h6a1,1,0,0,0,1-1V5A1,1,0,0,0,59,4Zm-2,8H47V10H57Zm0-4H47V6H57Z"></path><path d="M56,16V40H42V39a5,5,0,0,0-5-5V30.48a9,9,0,1,0-10,0V34a5,5,0,0,0-5,5v1H8V16h2.59l3.7,3.71A1.007,1.007,0,0,0,15,20a.838.838,0,0,0,.38-.08A.987.987,0,0,0,16,19V16h3a3.009,3.009,0,0,0,3-3V12H42v1a3.009,3.009,0,0,0,3,3h3v3a.987.987,0,0,0,.62.92A.838.838,0,0,0,49,20a1.007,1.007,0,0,0,.71-.29L53.41,16Z"></path><polygon points="25.88 50 25.13 56 38.87 56 38.12 50 25.88 50"></polygon><path d="M21,59a1,1,0,0,0,1,1H42a1,1,0,0,0,0-2H22A1,1,0,0,0,21,59Z"></path></g></svg>