<svg xmlns="http://www.w3.org/2000/svg" viewBox="0 0 64 64" x="0px" y="0px"><g data-name="Handbag"><polygon points="54 22 10 22 10 26 12 26 12 25 14 25 14 26 16 26 16 25 18 25 18 26 20 26 20 25 22 25 22 26 24 26 24 25 26 25 26 26 28 26 28 25 30 25 30 26 32 26 32 25 34 25 34 26 36 26 36 25 38 25 38 26 40 26 40 25 42 25 42 26 44 26 44 25 46 25 46 26 48 26 48 25 50 25 50 26 54 26 54 22"></polygon><path d="M54,34H51.514l.472,2.835A1,1,0,0,1,51,38H47a1,1,0,0,1-.986-1.165L46.486,34H10V57a3,3,0,0,0,3,3H51a3,3,0,0,0,3-3Z"></path><path d="M54,28H50v2a1,1,0,0,1,.986.835L51.18,32H54Z"></path><polygon points="48.847 32 48.181 36 49.819 36 49.153 32 48.847 32"></polygon><path d="M51,18H13a3,3,0,0,0-2.816,2H53.816A3,3,0,0,0,51,18Z"></path><path d="M10,28v4H46.82l.194-1.165A1,1,0,0,1,48,30V28H46v1H44V28H42v1H40V28H38v1H36V28H34v1H32V28H30v1H28V28H26v1H24V28H22v1H20V28H18v1H16V28H14v1H12V28Z"></path><rect x="42" y="14" width="4" height="2"></rect><path d="M46,9a5.008,5.008,0,0,0-4-4.9V12h4Z"></path><rect x="18" y="14" width="4" height="2"></rect><rect x="24" y="4" width="16" height="4"></rect><path d="M18,12h4V4.1A5.008,5.008,0,0,0,18,9Z"></path></g></svg>