<svg xmlns="http://www.w3.org/2000/svg" viewBox="0 0 64 64" x="0px" y="0px"><title>Clipboard_23</title><g data-name="Clipboard"><path d="M48,30H16a1,1,0,0,0-1,1V51a1,1,0,0,0,1,1H48a1,1,0,0,0,1-1V31A1,1,0,0,0,48,30ZM47,50H17V32H47Z"></path><path d="M15,17v8a1,1,0,0,0,1,1H48a1,1,0,0,0,1-1V17a1,1,0,0,0-1-1H16A1,1,0,0,0,15,17Zm2,1H47v6H17Z"></path><path d="M55,2H9A2,2,0,0,0,7,4V60a2,2,0,0,0,2,2H55a2,2,0,0,0,2-2V4A2,2,0,0,0,55,2ZM40,4V6H24V4ZM23,12H41a1,1,0,0,0,1-1V8h9V56H13V8h9v3A1,1,0,0,0,23,12Zm17-2H24V8H40ZM9,60V4H22V6H12a1,1,0,0,0-1,1V57a1,1,0,0,0,1,1H52a1,1,0,0,0,1-1V7a1,1,0,0,0-1-1H42V4H55V60Z"></path></g></svg>