<svg xmlns="http://www.w3.org/2000/svg" viewBox="0 0 64 64" x="0px" y="0px"><g><path d="M39,13V43H57V13Zm2,6h6v2H41ZM55,37H41V35H55Zm0-4H41V31H55Zm0-4H41V27H55Zm0-4H41V23H55Zm0-4H49V19h6Z"></path><path d="M60,14.03V46H39V45H58a1,1,0,0,0,1-1V14.03Z"></path><path d="M35,4H7A3.009,3.009,0,0,0,4,7V57a3.009,3.009,0,0,0,3,3H35a3.009,3.009,0,0,0,3-3V48.22A2.974,2.974,0,0,1,36,49a3.009,3.009,0,0,1-3-3V45H14a1,1,0,0,1-1-1V12a1,1,0,0,1,1-1H34a1,1,0,0,1,1,1v1h2V12a1,1,0,0,1,1-1V7A3.009,3.009,0,0,0,35,4ZM32,46v2H11a1,1,0,0,1-1-1V14.03h2V46Zm-6,5v2H24V51Zm-4,0v2H20V51Zm-4,0v2H16V51ZM37,9H35V7H29.41l-1.7,1.71A1.033,1.033,0,0,1,27,9H15a1.033,1.033,0,0,1-.71-.29L12.59,7H7V57H35V51h2v6a2.006,2.006,0,0,1-2,2H7a2.006,2.006,0,0,1-2-2V7A2.006,2.006,0,0,1,7,5h6a1.033,1.033,0,0,1,.71.29L15.41,7H26.59l1.7-1.71A1.033,1.033,0,0,1,29,5h6a2.006,2.006,0,0,1,2,2Z"></path><path d="M35,46a1,1,0,0,0,2,0V15H35Z"></path><path d="M15,13V43H33V13Zm2,6h4v2H17ZM31,37H17V35H31Zm0-4H17V31H31Zm0-4H17V27H31Zm0-4H17V23H31Zm0-4H23V19h8Z"></path></g></svg>