<svg xmlns="http://www.w3.org/2000/svg" viewBox="0 0 64 64" x="0px" y="0px"><g><path d="M61.967,43.809a4.987,4.987,0,0,0-6.639-2.416L42.371,47.426A5,5,0,0,0,38,40H23a6.986,6.986,0,0,0-6.321,4H14V41a1,1,0,0,0-1-1H3a1,1,0,0,0-1,1V61a1,1,0,0,0,1,1H13a1,1,0,0,0,1-1V59H40.113a5.051,5.051,0,0,0,2.114-.468l17.328-8.077a5.022,5.022,0,0,0,2.412-6.646ZM12,60H4V42h8ZM58.707,48.644,41.382,56.719A3.022,3.022,0,0,1,40.113,57H14V46h3.35a1,1,0,0,0,.944-.671A4.977,4.977,0,0,1,23,42H38a3,3,0,0,1,0,6H29v2H40.475a5.04,5.04,0,0,0,2.11-.467l13.591-6.328a2.986,2.986,0,0,1,3.973,1.439,3.064,3.064,0,0,1,.281,1.276A3.017,3.017,0,0,1,58.707,48.644Z"></path><path d="M18,19.9V37a1,1,0,0,0,1,1H51a1,1,0,0,0,1-1V19.9A5.009,5.009,0,0,0,56,15V11a3,3,0,0,0-3-3h-.382L49.9,2.553A1,1,0,0,0,49,2H21a1,1,0,0,0-.895.553L17.382,8H17a3,3,0,0,0-3,3v4A5.009,5.009,0,0,0,18,19.9ZM20,36V19.9a4.994,4.994,0,0,0,3-1.93,4.954,4.954,0,0,0,8,0,4.954,4.954,0,0,0,8,0,4.954,4.954,0,0,0,8,0,4.994,4.994,0,0,0,3,1.93V36Zm4-26h6v5a3,3,0,0,1-6,0Zm14,0v5a3,3,0,0,1-6,0V10Zm8,0v5a3,3,0,0,1-6,0V10Zm8,1v4a3,3,0,0,1-6,0V10h5A1,1,0,0,1,54,11ZM21.618,4H48.382l2,4H19.618ZM16,11a1,1,0,0,1,1-1h5v5a3,3,0,0,1-6,0Z"></path><path d="M35,25a3,3,0,1,0,3,3A3,3,0,0,0,35,25Zm0,4a1,1,0,1,1,1-1A1,1,0,0,1,35,29Z"></path><path d="M46,22H24a1,1,0,0,0-1,1V33a1,1,0,0,0,1,1H46a1,1,0,0,0,1-1V23A1,1,0,0,0,46,22Zm-1,2v1.829A3.016,3.016,0,0,1,43.171,24Zm-3.9,8H28.9A5.016,5.016,0,0,0,25,28.1v-.2A5.016,5.016,0,0,0,28.9,24H41.1A5.016,5.016,0,0,0,45,27.9v.2A5.016,5.016,0,0,0,41.1,32ZM25,24h1.829A3.016,3.016,0,0,1,25,25.829Zm0,8V30.171A3.016,3.016,0,0,1,26.829,32Zm20,0H43.171A3.016,3.016,0,0,1,45,30.171Z"></path></g></svg>