<svg xmlns="http://www.w3.org/2000/svg" viewBox="0 0 64 64" x="0px" y="0px"><g data-name="Battle-Game-Esport-Multiplayer-Video Game"><path d="M46,21V7a1,1,0,0,0-1-1H19a1,1,0,0,0-1,1V21a1,1,0,0,0,1,1H45A1,1,0,0,0,46,21Zm-2-5H42V12h2ZM20,12h2v4H20Zm0,8V18h3a1,1,0,0,0,1-1V11a1,1,0,0,0-1-1H20V8H31v3.184a2.982,2.982,0,0,0,0,5.632V20Zm12-5a1,1,0,1,1,1-1A1,1,0,0,1,32,15Zm1,5V16.816a2.982,2.982,0,0,0,0-5.632V8H44v2H41a1,1,0,0,0-1,1v6a1,1,0,0,0,1,1h3v2Z"></path><polygon points="8 44 8 46 6 46 6 48 8 48 8 50 10 50 10 48 12 48 12 46 10 46 10 44 8 44"></polygon><rect x="22" y="44" width="2" height="2"></rect><rect x="24" y="46" width="2" height="2"></rect><rect x="22" y="48" width="2" height="2"></rect><rect x="20" y="46" width="2" height="2"></rect><rect x="15" y="44" width="2" height="2"></rect><polygon points="40 50 42 50 42 48 44 48 44 46 42 46 42 44 40 44 40 46 38 46 38 48 40 48 40 50"></polygon><rect x="54" y="44" width="2" height="2"></rect><rect x="56" y="46" width="2" height="2"></rect><rect x="54" y="48" width="2" height="2"></rect><rect x="52" y="46" width="2" height="2"></rect><rect x="47" y="44" width="2" height="2"></rect><path d="M62,46.93A7.006,7.006,0,0,0,55,40H49a2.006,2.006,0,0,1,2-2h3a4,4,0,0,0,0-8H46a2.006,2.006,0,0,1-2-2V26h3a3.009,3.009,0,0,0,3-3V5a3.009,3.009,0,0,0-3-3H17a3.009,3.009,0,0,0-3,3V23a3.009,3.009,0,0,0,3,3h3v2a2.006,2.006,0,0,1-2,2H10a4,4,0,0,0,0,8h3a2.006,2.006,0,0,1,2,2H9a7.006,7.006,0,0,0-7,6.93L1.24,57.65A4.042,4.042,0,0,0,5.29,62a4.1,4.1,0,0,0,3.46-1.93l2.21-3.59a.986.986,0,0,1,.85-.48h8.38a.986.986,0,0,1,.85.48l2.21,3.59a4.059,4.059,0,0,0,7.51-2.42L30,46.93A7.017,7.017,0,0,0,23,40H17a4,4,0,0,0-4-4H10a2,2,0,0,1,0-4h8a4,4,0,0,0,4-4V26h6v4H25a1,1,0,0,0-1,1v4a1,1,0,0,0,1,1H39a1,1,0,0,0,1-1V31a1,1,0,0,0-1-1H36V26h6v2a4,4,0,0,0,4,4h8a2,2,0,0,1,0,4H51a4,4,0,0,0-4,4H41a7.006,7.006,0,0,0-7,6.93l-.76,10.72A4.042,4.042,0,0,0,37.29,62a4.042,4.042,0,0,0,3.46-1.93l2.21-3.59a.986.986,0,0,1,.85-.48h8.38a.986.986,0,0,1,.85.48l2.21,3.59A4.042,4.042,0,0,0,58.71,62a4.042,4.042,0,0,0,4.05-4.35ZM28.77,57.79A2.07,2.07,0,0,1,26.71,60a2.074,2.074,0,0,1-1.75-.98l-2.21-3.59A2.989,2.989,0,0,0,20.19,54H11.81a2.989,2.989,0,0,0-2.56,1.43L7.04,59.02A2.074,2.074,0,0,1,5.29,60a2.07,2.07,0,0,1-2.06-2.21l.45-6.25A6.985,6.985,0,0,0,9,54h1a.967.967,0,0,0,.55-.17L13.3,52h5.4l2.75,1.83A.967.967,0,0,0,22,54h1a6.985,6.985,0,0,0,5.32-2.46ZM23,42a5,5,0,0,1,0,10h-.7l-2.75-1.83A.967.967,0,0,0,19,50H13a.967.967,0,0,0-.55.17L9.7,52H9A5,5,0,0,1,9,42ZM38,32v2H26V32Zm-8-2V26h4v4ZM17,24a1,1,0,0,1-1-1V5a1,1,0,0,1,1-1H47a1,1,0,0,1,1,1V23a1,1,0,0,1-1,1ZM41,42H55a5,5,0,0,1,0,10h-.7l-2.75-1.83A.967.967,0,0,0,51,50H45a.967.967,0,0,0-.55.17L41.7,52H41a5,5,0,0,1,0-10ZM60.22,59.34a2.014,2.014,0,0,1-1.51.66,2.039,2.039,0,0,1-1.75-.98l-2.21-3.59A2.989,2.989,0,0,0,52.19,54H43.81a2.989,2.989,0,0,0-2.56,1.43l-2.21,3.59a2.039,2.039,0,0,1-1.75.98,2.07,2.07,0,0,1-2.06-2.21l.45-6.25A6.985,6.985,0,0,0,41,54h1a.967.967,0,0,0,.55-.17L45.3,52h5.4l2.75,1.83A.967.967,0,0,0,54,54h1a6.985,6.985,0,0,0,5.32-2.46l.45,6.25A2.014,2.014,0,0,1,60.22,59.34Z"></path></g></svg>