<svg xmlns="http://www.w3.org/2000/svg" viewBox="0 0 64 64" x="0px" y="0px"><g data-name="Virtual Reality-VR-Simulation-Gaming-VR Glasses"><path d="M38.49,38.83l-1.91-.6C35.83,39.29,34.11,40,32,40h5.56A4.838,4.838,0,0,0,38.49,38.83Z"></path><path d="M35,37V35.57a10.68,10.68,0,0,1-6,0V37c0,.25,1.06,1,3,1S35,37.25,35,37Z"></path><path d="M27.42,38.23l-1.91.6A4.838,4.838,0,0,0,26.44,40H32C29.89,40,28.17,39.29,27.42,38.23Z"></path><path d="M28.4,33.24A8.987,8.987,0,0,0,40.77,27H23.23A8.959,8.959,0,0,0,28.4,33.24Zm1.713-4.573a2,2,0,0,0,3.774,0l1.884.666a4,4,0,0,1-7.542,0Z"></path><path d="M34,6a1.665,1.665,0,0,0-.04-.39,1.992,1.992,0,0,0-3.37-1.02,2.116,2.116,0,0,0-.56,1.04A2.218,2.218,0,0,0,30,6v7h4Z"></path><path d="M51,60V49.35a8.959,8.959,0,0,0-6.32-8.59l-4.24-1.32a6.017,6.017,0,0,1-.37.65A7.021,7.021,0,0,1,46,46.93l.76,10.72A4.076,4.076,0,0,1,46.21,60Z"></path><path d="M20,20.81,21.68,25H42.32L44,20.81V15H20ZM22,18a1,1,0,0,1,1-1H41a1,1,0,0,1,1,1v3a1,1,0,0,1-.1.447l-1,2-1.79-.894.9-1.789V19H24v1.764l.895,1.789-1.79.894-1-2A1,1,0,0,1,22,21Z"></path><path d="M23.23,13H28V6.93A8.968,8.968,0,0,0,23.23,13Z"></path><path d="M36,6.93V13h4.77a8.9,8.9,0,0,0-2.41-4.36A8.733,8.733,0,0,0,36,6.93Z"></path><path d="M36.19,56H27.81a.986.986,0,0,0-.85.48L24.79,60H39.21l-2.17-3.52A.986.986,0,0,0,36.19,56Z"></path><path d="M20,47a5,5,0,0,0,5,5h.7l2.75-1.83A.967.967,0,0,1,29,50h6a.967.967,0,0,1,.55.17L38.3,52H39a5,5,0,0,0,0-10H25A5,5,0,0,0,20,47Zm16-1h2V44h2v2h2v2H40v2H38V48H36Zm-5-2h2v2H31Zm-9,2h2V44h2v2h2v2H26v2H24V48H22Z"></path><path d="M13,60h4.79a4.076,4.076,0,0,1-.55-2.35L18,46.93a7.019,7.019,0,0,1,5.93-6.84,6.017,6.017,0,0,1-.37-.65l-4.24,1.32A8.959,8.959,0,0,0,13,49.35Z"></path><rect x="38" y="46" width="2" height="2"></rect><path d="M44.22,59.34a2.014,2.014,0,0,0,.55-1.55l-.45-6.25A6.985,6.985,0,0,1,39,54H38a.967.967,0,0,1-.55-.17L34.7,52H29.3l-2.75,1.83A.967.967,0,0,1,26,54H25a6.985,6.985,0,0,1-5.32-2.46l-.45,6.25A2.07,2.07,0,0,0,21.29,60a2.074,2.074,0,0,0,1.75-.98l2.21-3.59A2.989,2.989,0,0,1,27.81,54h8.38a2.989,2.989,0,0,1,2.56,1.43l2.21,3.59a2.074,2.074,0,0,0,1.75.98A2.014,2.014,0,0,0,44.22,59.34Z"></path></g></svg>