<svg xmlns="http://www.w3.org/2000/svg" viewBox="0 0 64 64" x="0px" y="0px"><g data-name="Chair-Furniture-Desk Chair-Sitting-Seat"><rect x="28" y="14" width="8" height="2"></rect><rect x="28" y="19" width="8" height="2"></rect><rect x="28" y="24" width="8" height="2"></rect><path d="M53,20H48a2.006,2.006,0,0,0-2,2v2.93l-1.09,7.63c-.23-.05-.48-.1-.73-.14L45.79,9.15a5,5,0,0,0-3.5-5.12A39.046,39.046,0,0,0,32,2,39.046,39.046,0,0,0,21.71,4.03a5,5,0,0,0-3.5,5.12l1.61,23.27c-.25.04-.5.09-.73.14L18,24.93V22a2.006,2.006,0,0,0-2-2H11a2.006,2.006,0,0,0-2,2v3a1,1,0,0,0,1,1h2.13l1.88,13.14A1,1,0,0,0,15,40H29v4a1,1,0,0,0-1,1v7.14L15.85,54.01A1.008,1.008,0,0,0,15,55v1.18A3.013,3.013,0,1,0,18.82,58H29.18a3,3,0,1,0,5.64,0H45.18A3,3,0,1,0,49,56.18V55a1.008,1.008,0,0,0-.85-.99L36,52.14V45a1,1,0,0,0-1-1V40H49a1,1,0,0,0,.99-.86L51.87,26H54a1,1,0,0,0,1-1V22A2.006,2.006,0,0,0,53,20ZM11,24V22h5v2Zm4.87,14L14.15,26h1.98l1.72,12ZM22.31,5.94A37.05,37.05,0,0,1,32,4a37.443,37.443,0,0,1,9.69,1.93,3.012,3.012,0,0,1,2.1,3.08L42.2,32.06c-.56-.09-1.14-.19-1.74-.28L41.8,8.86a1.015,1.015,0,0,0-.7-1.02A34.913,34.913,0,0,0,32,6a34.913,34.913,0,0,0-9.1,1.84,1.015,1.015,0,0,0-.7,1.02l1.34,22.92c-.6.09-1.18.19-1.74.28L20.21,9.01A2.993,2.993,0,0,1,22.31,5.94ZM39.76,9.53,38.47,31.5A51.725,51.725,0,0,0,32,31a51.725,51.725,0,0,0-6.47.5L24.24,9.53A30.525,30.525,0,0,1,32,8,30.525,30.525,0,0,1,39.76,9.53ZM16,60a1,1,0,1,1,1-1A1,1,0,0,1,16,60Zm16,0a1,1,0,1,1,1-1A1,1,0,0,1,32,60Zm16-2a1,1,0,1,1-1,1A1,1,0,0,1,48,58Zm-1-2.14V56H17v-.14L29.08,54h5.84ZM34,46v6H30V46Zm-3-2V40h2v4Zm13.13-6H19.87l-.5-3.46A74.725,74.725,0,0,1,32,33a74.725,74.725,0,0,1,12.63,1.54Zm4,0H46.15l1.72-12h1.98ZM53,24H48V22h5Z"></path></g></svg>