<svg xmlns="http://www.w3.org/2000/svg" viewBox="0 0 64 64" x="0px" y="0px"><g data-name="Tokyo Tower-Tokyo-Japan-Landmark-Asia"><path d="M49.53,60,36.94,41.31A1.066,1.066,0,0,0,37,41V35a1,1,0,0,0-1-1h-.04l-.91-20.01A.984.984,0,0,0,36,13V9a1,1,0,0,0-1-1H33V2H31V8H29a1,1,0,0,0-1,1v4a.984.984,0,0,0,.95.99L28.04,34H28a1,1,0,0,0-1,1v6a1.066,1.066,0,0,0,.06.31L14.47,60H2v2H62V60Zm-7.86-8.08-2.54,2.54-.56-1.23A7.2,7.2,0,0,0,36.96,51h4.09Zm-5.91-8.78L39.71,49H33.47ZM32,47.25,29.95,42h4.1ZM30,10h4v2H30Zm3.32,10,.27,6H30.41l.27-6Zm-2.55-2,.19-4h2.08l.19,4Zm2.91,10,.27,6h-3.9l.27-6ZM29,36h6v4H29Zm-.76,7.14L30.53,49H24.29ZM22.95,51h4.09a7.2,7.2,0,0,0-1.61,2.23l-.56,1.23-2.54-2.54Zm-.59,9H16.88l1.35-2h5.04Zm-2.78-4,1.61-2.4,2.4,2.4Zm4.97,4,2.7-5.94a5.217,5.217,0,0,1,9.5,0L39.45,60Zm18.26-6.4L44.42,56H40.41ZM41.64,60l-.91-2h5.04l1.35,2Z"></path></g></svg>