<svg xmlns="http://www.w3.org/2000/svg" viewBox="0 0 64 64" x="0px" y="0px"><g data-name="Valve-Pipes-Industry-Gas Pipe-Water Pipe"><path d="M61,36H51V34a1,1,0,0,0-1-1H44a1,1,0,0,0-1,1v2H41V32.86A3.993,3.993,0,0,0,40,25H38V21h9a1,1,0,0,0,1-1V10a1,1,0,0,0-1-1H39a1,1,0,0,0-1,1v3H26V10a1,1,0,0,0-1-1H17a1,1,0,0,0-1,1V20a1,1,0,0,0,1,1h9v4H24a3.993,3.993,0,0,0-1,7.86V36H21V34a1,1,0,0,0-1-1H14a1,1,0,0,0-1,1v2H3a1,1,0,0,0-1,1V51a1,1,0,0,0,1,1H13v2a1,1,0,0,0,1,1h6a1,1,0,0,0,1-1V52H43v2a1,1,0,0,0,1,1h6a1,1,0,0,0,1-1V52H61a1,1,0,0,0,1-1V37A1,1,0,0,0,61,36ZM13,50H4V38h9Zm6,3H15V35h4Zm4-3H21V38h2ZM18,19V11h6v3a1,1,0,0,0,1,1H39a1,1,0,0,0,1-1V11h6v8Zm18,2v4H28V21Zm3,29H25V33H39ZM24,31a2,2,0,0,1,0-4H40a2,2,0,0,1,0,4ZM43,50H41V38h2Zm6,3H45V35h4Zm11-3H51V38h9Z"></path><rect x="6" y="40" width="2" height="2"></rect><rect x="54" y="40" width="4" height="2"></rect><rect x="27" y="46" width="2" height="2"></rect><rect x="31" y="46" width="4" height="2"></rect></g></svg>