<svg xmlns="http://www.w3.org/2000/svg" viewBox="0 0 64 64" x="0px" y="0px"><path d="M13,51v1H23V45.317L16.233,33.6c-.02-.027-.053-.078-.072-.106a1.9,1.9,0,0,0-.654-.614A1.937,1.937,0,0,0,14.5,32.6a2.992,2.992,0,0,0-.359.041,1.856,1.856,0,0,0-.652.231,2.007,2.007,0,0,0-.722,2.728l5.719,9.9-1.732,1-5.72-9.9A4.014,4.014,0,0,1,12.5,31.135a4.229,4.229,0,0,1,.5-.23V22a2,2,0,0,0-4,0V45.649l3.781,4.726A1,1,0,0,1,13,51Z"></path><path d="M25,54H11v6H25Zm-2,4H21V56h2Z"></path><path d="M48.514,32.868a1.923,1.923,0,0,0-.675.626.971.971,0,0,1-.06.083L41,45.317V52H51V51a1,1,0,0,1,.219-.625L55,45.649V22a2,2,0,0,0-4,0v8.905a4.1,4.1,0,0,1,.489.223A4.017,4.017,0,0,1,52.966,36.6l-5.72,9.9-1.732-1,5.719-9.9a2.009,2.009,0,0,0-.735-2.735,1.826,1.826,0,0,0-.639-.224A2.992,2.992,0,0,0,49.5,32.6,1.91,1.91,0,0,0,48.514,32.868Z"></path><path d="M39,60H53V54H39Zm2-4h2v2H41Z"></path><circle cx="24" cy="5" r="1"></circle><circle cx="32" cy="5" r="1"></circle><circle cx="40" cy="5" r="1"></circle><path d="M39,17a1,1,0,0,0-1-1H26a1,1,0,0,0,0,2H38A1,1,0,0,0,39,17Z"></path><path d="M28,20v5a1,1,0,0,1-.2.6L26,28H38l-1.8-2.4A1,1,0,0,1,36,25V20Z"></path><rect x="25" y="30" width="14" height="4"></rect><path d="M32.008,8.24,28.565,10.8a1,1,0,0,1-1.2,0L25,9.01v1.754L26.618,14H37.382L39,10.764V9.045l-2.243,1.744a1,1,0,0,1-1.2.021Z"></path><path d="M47,10a1,1,0,0,1,1-1h5.586l-1.293,1.293,1.414,1.414,3-3a1,1,0,0,0,0-1.414l-3-3L52.293,5.707,53.586,7H48a3,3,0,0,0-3,3V20h2Z"></path><rect x="45" y="22" width="2" height="2"></rect><rect x="45" y="26" width="2" height="2"></rect><rect x="49" y="11" width="2" height="2"></rect><rect x="49" y="15" width="2" height="2"></rect><path d="M11.293,11.707l1.414-1.414L11.414,9H17a1,1,0,0,1,1,1V20h2V10a3,3,0,0,0-3-3H11.414l1.293-1.293L11.293,4.293l-3,3a1,1,0,0,0,0,1.414Z"></path><rect x="18" y="22" width="2" height="2"></rect><rect x="18" y="26" width="2" height="2"></rect><rect x="14" y="11" width="2" height="2"></rect><rect x="14" y="15" width="2" height="2"></rect></svg>