<svg xmlns="http://www.w3.org/2000/svg" viewBox="0 0 64 64" x="0px" y="0px"><g data-name="Music Player-Smartphone-Music-Entertainment-Song"><path d="M46,2H18a6.006,6.006,0,0,0-6,6V56a6.006,6.006,0,0,0,6,6H46a6.006,6.006,0,0,0,6-6V8A6.006,6.006,0,0,0,46,2Zm4,54a4,4,0,0,1-4,4H18a4,4,0,0,1-4-4V8a4,4,0,0,1,4-4H46a4,4,0,0,1,4,4Z"></path><path d="M34,52H30a3,3,0,0,0,0,6h4a3,3,0,0,0,0-6Zm0,4H30a1,1,0,0,1,0-2h4a1,1,0,0,1,0,2Z"></path><rect x="25" y="6" width="2" height="2"></rect><rect x="29" y="6" width="6" height="2"></rect><path d="M32,34a5,5,0,1,0,5,5A5.006,5.006,0,0,0,32,34Zm0,8a3,3,0,1,1,3-3A3,3,0,0,1,32,42Z"></path><path d="M37,24H27a1,1,0,0,0-1,1v6a1,1,0,0,0,1,1H37a1,1,0,0,0,1-1V25A1,1,0,0,0,37,24Zm-1,6H28V26h8Z"></path><path d="M46,28.184V26a14,14,0,0,0-28,0v2.184A3,3,0,0,0,16,31v6a3,3,0,0,0,3,3h3v5a3,3,0,0,0,3,3H39a3,3,0,0,0,3-3V40h3a3,3,0,0,0,3-3V31A3,3,0,0,0,46,28.184ZM32,14A12.013,12.013,0,0,1,44,26v2H42V23a3,3,0,0,0-3-3H25a3,3,0,0,0-3,3v5H20V26A12.013,12.013,0,0,1,32,14ZM19,38a1,1,0,0,1-1-1V31a1,1,0,0,1,1-1h3v8Zm21,7a1,1,0,0,1-1,1H25a1,1,0,0,1-1-1V23a1,1,0,0,1,1-1H39a1,1,0,0,1,1,1Zm6-8a1,1,0,0,1-1,1H42V30h3a1,1,0,0,1,1,1Z"></path></g></svg>