<svg xmlns="http://www.w3.org/2000/svg" viewBox="0 0 64 64" x="0px" y="0px"><g data-name="skyscraper-building-tower-city-real estate"><path d="M48,60V9a1,1,0,0,0-1-1H45V3a1,1,0,0,0-1-1H20a1,1,0,0,0-1,1V8H17a1,1,0,0,0-1,1V60H12v2H52V60ZM21,4H43V8H41V6H39V8H37V6H35V8H33V6H31V8H29V6H27V8H25V6H23V8H21Zm4,56H23V58h2Zm4,0H27V58h2Zm8,0H35V58h2Zm4,0H39V58h2Zm5,0H43V57a1,1,0,0,0-1-1H34a1,1,0,0,0-1,1v3H31V57a1,1,0,0,0-1-1H22a1,1,0,0,0-1,1v3H18V10H46Z"></path><path d="M42,12H22a1,1,0,0,0-1,1V53a1,1,0,0,0,1,1H42a1,1,0,0,0,1-1V13A1,1,0,0,0,42,12Zm-1,5H38V14h3ZM31,29v3H28V29Zm-3-2V24h3v3Zm3,7v3H28V34Zm0,5v3H28V39Zm2,0h3v3H33Zm0-2V34h3v3Zm0-5V29h3v3Zm0-5V24h3v3Zm0-5V19h3v3Zm0-5V14h3v3Zm-2,0H28V14h3Zm0,2v3H28V19Zm-5,3H23V19h3Zm0,2v3H23V24Zm0,5v3H23V29Zm0,5v3H23V34Zm0,5v3H23V39Zm0,5v3H23V44Zm2,0h3v3H28Zm3,5v3H28V49Zm2,0h3v3H33Zm0-2V44h3v3Zm5-3h3v3H38Zm0-2V39h3v3Zm0-5V34h3v3Zm0-5V29h3v3Zm0-5V24h3v3Zm0-5V19h3v3ZM26,14v3H23V14ZM23,49h3v3H23Zm15,3V49h3v3Z"></path></g></svg>