<svg xmlns="http://www.w3.org/2000/svg" viewBox="0 0 32 32" x="0px" y="0px"><title>File Text_27</title><g data-name="File Text"><path d="M28,1a1,1,0,0,0-1-1H5A1,1,0,0,0,4,1V31a1,1,0,0,0,1,1H21a1.008,1.008,0,0,0,.416-.091,1,1,0,0,0,.343-.259l6-7a.994.994,0,0,0,.164-.278.83.83,0,0,0,.027-.094.95.95,0,0,0,.04-.223c0-.019.01-.036.01-.055ZM6,2H26V23H21a1,1,0,0,0-1,1v6H6ZM22,25h2.826L22,28.3Z"></path><rect x="9" y="17" width="14" height="2"></rect><rect x="9" y="13" width="14" height="2"></rect><rect x="9" y="9" width="14" height="2"></rect><rect x="9" y="5" width="14" height="2"></rect><rect x="9" y="25" width="2" height="2"></rect><rect x="13" y="25" width="2" height="2"></rect></g></svg>