<svg xmlns="http://www.w3.org/2000/svg" viewBox="0 0 64 64" x="0px" y="0px"><g data-name="Color Pencils"><path d="M6,59a1,1,0,0,0,1,1H57a1,1,0,0,0,1-1V28H6Zm6-13a2,2,0,0,1,2-2H50a2,2,0,0,1,2,2v8a2,2,0,0,1-2,2H14a2,2,0,0,1-2-2Z"></path><polygon points="16.848 9 14 4.016 11.152 9 16.848 9"></polygon><path d="M58,26V13a3,3,0,0,0-3-3H19V26h2V19.531a3,3,0,0,1,.4-1.489l2.868-5.019a2,2,0,0,1,3.472,0l2.868,5.02a2.993,2.993,0,0,1,.4,1.488V26h2V19.531a3,3,0,0,1,.4-1.489l2.868-5.019a2,2,0,0,1,3.472,0l2.868,5.02a2.993,2.993,0,0,1,.4,1.488V26h2V21.531a3,3,0,0,1,.4-1.489l2.868-5.019a2,2,0,0,1,3.472,0l2.868,5.02a2.993,2.993,0,0,1,.4,1.488V26Z"></path><rect x="11" y="11" width="6" height="15"></rect><path d="M6,26H9V10a3,3,0,0,0-3,3Z"></path><rect x="14" y="46" width="36" height="8"></rect><polygon points="35.152 19 40.848 19 38 14.016 35.152 19"></polygon><rect x="23" y="21" width="6" height="5"></rect><polygon points="23.152 19 28.848 19 26 14.016 23.152 19"></polygon><rect x="35" y="21" width="6" height="5"></rect><polygon points="47.152 21 52.848 21 50 16.016 47.152 21"></polygon><rect x="47" y="23" width="6" height="3"></rect></g></svg>