<svg xmlns="http://www.w3.org/2000/svg" viewBox="0 0 64 64" x="0px" y="0px"><g data-name="Multi Function"><path d="M21.293,16.707l1.414-1.414L21,13.586V11H19v3a1,1,0,0,0,.293.707Z"></path><path d="M21.707,18.293l-1.414,1.414.707.707V22h2V20a1,1,0,0,0-.293-.707Z"></path><path d="M5,25a1,1,0,0,0,.758.97l3.467.867.827,2.479A1,1,0,0,0,11,30h3a1,1,0,0,0,.707-.293L16,28.414l1.293,1.293A1,1,0,0,0,18,30h3a1,1,0,0,0,.948-.684l.827-2.479,3.467-.867A1,1,0,0,0,27,25V23.414l2.707-2.707A1,1,0,0,0,30,20V15a1.006,1.006,0,0,0-.168-.555L28,11.7V8a1,1,0,0,0-.293-.707l-2-2A1,1,0,0,0,25,5H22.721l-.773-2.316A1,1,0,0,0,21,2H18a1,1,0,0,0-.707.293L16,3.586,14.707,2.293A1,1,0,0,0,14,2H11a1,1,0,0,0-.948.684L9.279,5H7a1,1,0,0,0-.707.293l-2,2A1,1,0,0,0,4,8v3.7L2.168,14.445A1.006,1.006,0,0,0,2,15v5a1,1,0,0,0,.293.707L5,23.414ZM18.414,4h1.865l.577,1.73L19.293,7.293A1,1,0,0,0,19,8V9h2V8.414L22.414,7h2.172L26,8.414v3.172l-1.707,1.707A1,1,0,0,0,24,14v1h2v-.586l.845-.844L28,15.3v4.283l-1,1V19H25v5.219l-2.693.674L21,23.586V23H19v1a1,1,0,0,0,.293.707l1.563,1.563L20.279,28H18.414L17,26.586V5.414ZM4,19.586V15.3L5.155,13.57,6,14.414V15H8V14a1,1,0,0,0-.293-.707L6,11.586V8.414L7.414,7H9.586L11,8.414V9h2V8a1,1,0,0,0-.293-.707L11.144,5.73,11.721,4h1.865L15,5.414V26.586L13.586,28H11.721l-.577-1.73,1.563-1.563A1,1,0,0,0,13,24V23H11v.586L9.693,24.893,7,24.219V19H5v1.586Z"></path><path d="M12.707,14.707A1,1,0,0,0,13,14V11H11v2.586L9.293,15.293l1.414,1.414Z"></path><path d="M11,20.414l.707-.707-1.414-1.414-1,1A1,1,0,0,0,9,20v2h2Z"></path><path d="M61.832,46.445,60,43.7V40a1,1,0,0,0-.293-.707l-2-2A1,1,0,0,0,57,37H54.721l-.773-2.316A1,1,0,0,0,53,34H50a1,1,0,0,0-.707.293L48,35.586l-1.293-1.293A1,1,0,0,0,46,34H43a1,1,0,0,0-.948.684L41.279,37H39a1,1,0,0,0-.707.293l-2,2A1,1,0,0,0,36,40v3.7l-1.832,2.748A1.006,1.006,0,0,0,34,47v5a1,1,0,0,0,.293.707L37,55.414V57a1,1,0,0,0,.758.97l3.467.867.827,2.479A1,1,0,0,0,43,62h3a1,1,0,0,0,.707-.293L48,60.414l1.293,1.293A1,1,0,0,0,50,62h3a1,1,0,0,0,.948-.684l.827-2.479,3.467-.867A1,1,0,0,0,59,57V55.414l2.707-2.707A1,1,0,0,0,62,52V47A1.006,1.006,0,0,0,61.832,46.445ZM45.586,60H43.721l-.577-1.73,1.563-1.563A1,1,0,0,0,45,56V55H43v.586l-1.307,1.307L39,56.219V51H37v1.586l-1-1V47.3l1.155-1.733.845.844V47h2V46a1,1,0,0,0-.293-.707L38,43.586V40.414L39.414,39h2.172L43,40.414V41h2V40a1,1,0,0,0-.293-.707L43.144,37.73,43.721,36h1.865L47,37.414V58.586ZM60,51.586l-1,1V51H57v5.219l-2.693.674L53,55.586V55H51v1a1,1,0,0,0,.293.707l1.563,1.563L52.279,60H50.414L49,58.586V37.414L50.414,36h1.865l.577,1.73-1.563,1.563A1,1,0,0,0,51,40v1h2v-.586L54.414,39h2.172L58,40.414v3.172l-1.707,1.707A1,1,0,0,0,56,46v1h2v-.586l.845-.844L60,47.3Z"></path><path d="M54.707,47.293,53,45.586V43H51v3a1,1,0,0,0,.293.707l2,2Z"></path><path d="M53.707,50.293l-1.414,1.414.707.707V54h2V52a1,1,0,0,0-.293-.707Z"></path><path d="M43,45.586l-1.707,1.707,1.414,1.414,2-2A1,1,0,0,0,45,46V43H43Z"></path><path d="M41.293,51.293A1,1,0,0,0,41,52v2h2V52.414l.707-.707-1.414-1.414Z"></path><path d="M15,32V44a5.006,5.006,0,0,0,5,5H32V47H20a3,3,0,0,1-3-3V32Z"></path><path d="M49,32V20a5.006,5.006,0,0,0-5-5H32v2H44a3,3,0,0,1,3,3V32Z"></path><path d="M9,52V36.816a3,3,0,1,0-2,0V52a5.006,5.006,0,0,0,5,5H34V55H12A3,3,0,0,1,9,52ZM8,33a1,1,0,1,1-1,1A1,1,0,0,1,8,33Z"></path><path d="M55,12V27.184a3,3,0,1,0,2,0V12a5.006,5.006,0,0,0-5-5H30V9H52A3,3,0,0,1,55,12Zm1,19a1,1,0,1,1,1-1A1,1,0,0,1,56,31Z"></path></g></svg>