<svg xmlns="http://www.w3.org/2000/svg" viewBox="0 0 64 64" x="0px" y="0px"><g data-name="avatar-man-young-account-profile"><path d="M29,21h2a3,3,0,0,0-6,0h2a1,1,0,0,1,2,0Z"></path><path d="M36,20a1,1,0,0,1,1,1h2a3,3,0,0,0-6,0h2A1,1,0,0,1,36,20Z"></path><path d="M36.33,26.5l-1.73-1a3,3,0,0,1-5.2,0l-1.73,1a5,5,0,0,0,8.66,0Z"></path><path d="M46.92,37.32l-3.95-.53a.961.961,0,0,0-.42-.62l-3-2a1,1,0,0,0-1.52.59l-.03.12V32.21A11.029,11.029,0,0,0,42.95,24H43a3.995,3.995,0,0,0,4-4,3.89,3.89,0,0,0-.19-1.14l-1.08-6.12A12.975,12.975,0,0,0,32.93,2H31.07a12.975,12.975,0,0,0-12.8,10.74l-1.08,6.12A3.89,3.89,0,0,0,17,20a3.995,3.995,0,0,0,4,4h.05A11.029,11.029,0,0,0,26,32.21v2.67l-.03-.12a1,1,0,0,0-1.52-.59l-3,2a.961.961,0,0,0-.42.62l-3.95.53A7,7,0,0,0,11,44.25V61a1,1,0,0,0,1,1H52a1,1,0,0,0,1-1V44.25A7,7,0,0,0,46.92,37.32Zm-22.55-.7,1.5,5.98L23.8,44.15l-.74-6.66ZM26,60H21V48H19V60H13V44.25a5,5,0,0,1,4.34-4.95l3.85-.51.82,7.32a.988.988,0,0,0,.59.81,1,1,0,0,0,1-.12L26,45ZM39.63,36.62l1.31.87-.74,6.66L38.13,42.6ZM45,20a2.015,2.015,0,0,1-2,2V18A2.006,2.006,0,0,1,45,20ZM21,22a2.015,2.015,0,0,1-2-2,2.006,2.006,0,0,1,2-2Zm0-6a4.067,4.067,0,0,0-1.32.24l.55-3.15A11,11,0,0,1,31.07,4h1.86a11,11,0,0,1,10.84,9.09l.55,3.15A4.067,4.067,0,0,0,43,16a1,1,0,0,0-1-1H39.62L36.89,9.55a1,1,0,0,0-1.88.29L34.15,15H22A1,1,0,0,0,21,16Zm2,7V17H35a1,1,0,0,0,.99-.84l.49-2.96,1.63,3.25A.988.988,0,0,0,39,17h2v6a9,9,0,0,1-18,0ZM36,60H28V49.05a8.9,8.9,0,0,0,8,0Zm.03-17.24A.986.986,0,0,0,36,43v3.71a6.847,6.847,0,0,1-8,0V43a.986.986,0,0,0-.03-.24l-1.26-5.05A3,3,0,0,0,28,35.25V33.24a10.906,10.906,0,0,0,8,0v2.01a3,3,0,0,0,1.29,2.46ZM51,60H45V48H43V60H38V45l2.4,1.8a1.026,1.026,0,0,0,1,.12.988.988,0,0,0,.59-.81l.82-7.32,3.85.51A5,5,0,0,1,51,44.25Z"></path></g></svg>