<svg xmlns="http://www.w3.org/2000/svg" viewBox="0 0 64 64" x="0px" y="0px"><title>Arrow Graph</title><g data-name="Arrow Graph"><path d="M7,60V2H5V4H2V6H5V18H2v2H5V32H2v2H5V46H2v2H5V61a1,1,0,0,0,1,1H62V60Z"></path><path d="M10,36h2V57a1,1,0,0,0,1,1h8a1,1,0,0,0,1-1V36h2a1,1,0,0,0,.752-1.658l-7-8a1.028,1.028,0,0,0-1.5,0l-7,8A1,1,0,0,0,10,36Zm7-7.481L21.8,34H21a1,1,0,0,0-1,1V56H14V35a1,1,0,0,0-1-1h-.8Z"></path><path d="M26.089,25.413A1,1,0,0,0,27,26h2V57a1,1,0,0,0,1,1h8a1,1,0,0,0,1-1V26h2a1,1,0,0,0,.752-1.658l-7-8a1.028,1.028,0,0,0-1.5,0l-7,8A1,1,0,0,0,26.089,25.413ZM34,18.519,38.8,24H38a1,1,0,0,0-1,1V56H31V25a1,1,0,0,0-1-1h-.8Z"></path><path d="M44,16h2V57a1,1,0,0,0,1,1h8a1,1,0,0,0,1-1V16h2a1,1,0,0,0,.752-1.658l-7-8a1.028,1.028,0,0,0-1.5,0l-7,8A1,1,0,0,0,44,16Zm7-7.481L55.8,14H55a1,1,0,0,0-1,1V56H48V15a1,1,0,0,0-1-1h-.8Z"></path><rect x="11" y="4" width="2" height="2"></rect><rect x="15" y="4" width="12" height="2"></rect><rect x="11" y="8" width="16" height="2"></rect><rect x="11" y="12" width="16" height="2"></rect></g></svg>