<svg xmlns="http://www.w3.org/2000/svg" viewBox="0 0 64 64" x="0px" y="0px"><g data-name="Mobile Game Console"><path d="M56,37H49V35H60a1,1,0,0,0,1-1V30a1,1,0,0,0-1-1H40V7a5.006,5.006,0,0,0-5-5H7A5.006,5.006,0,0,0,2,7V57a5.006,5.006,0,0,0,5,5H35a5.006,5.006,0,0,0,5-5v-.086a2.986,2.986,0,0,0,2.277-2.389l.481-2.7A1,1,0,0,1,43.742,51h8.516a1,1,0,0,1,.984.825l.481,2.7A3,3,0,0,0,56.676,57H59a3,3,0,0,0,3-3V43A6.006,6.006,0,0,0,56,37Zm3-6v2H48a1,1,0,0,0-1,1v3H40V31ZM15,4H27V6H15ZM35,60H7a3,3,0,0,1-3-3V7A3,3,0,0,1,7,4h6V6a2,2,0,0,0,2,2H27a2,2,0,0,0,2-2V4h6a3,3,0,0,1,3,3V29H34v2h4v6.35A6,6,0,0,0,34,43V54a3,3,0,0,0,3,3h1A3,3,0,0,1,35,60Zm25-6a1,1,0,0,1-1,1H56.676a1,1,0,0,1-.985-.825l-.48-2.7A3,3,0,0,0,52.258,49H43.742a3,3,0,0,0-2.953,2.475l-.48,2.7a1,1,0,0,1-.985.824H37a1,1,0,0,1-1-1V43a4,4,0,0,1,4-4H56a4,4,0,0,1,4,4Z"></path><polygon points="42 41 40 41 40 43 38 43 38 45 40 45 40 47 42 47 42 45 44 45 44 43 42 43 42 41"></polygon><rect x="54" y="41" width="2" height="2"></rect><rect x="56" y="43" width="2" height="2"></rect><rect x="54" y="45" width="2" height="2"></rect><rect x="52" y="43" width="2" height="2"></rect><rect x="45" y="41" width="2" height="2"></rect><rect x="49" y="41" width="2" height="2"></rect><path d="M31.07,22.93a1,1,0,0,0-.293-.707,11,11,0,1,0,0,15.554,1,1,0,0,0,0-1.414L24.414,30l6.363-6.363A1,1,0,0,0,31.07,22.93Zm-8.777,6.363a1,1,0,0,0,0,1.414l6.324,6.324a9,9,0,1,1,0-14.062Z"></path><rect x="21" y="23" width="2" height="2"></rect></g></svg>