<svg xmlns="http://www.w3.org/2000/svg" viewBox="0 0 64 64" x="0px" y="0px"><g><path d="M19.01,17.85a1.941,1.941,0,0,0,.58,1.56A1.983,1.983,0,0,0,21,20h.04c-.02-.22-.04-.44-.04-.66V16.02A2.077,2.077,0,0,0,19.01,17.85Z"></path><path d="M23.1,12H25V8a1,1,0,0,1,1-1H38a1,1,0,0,1,1,1v4h1.94A8.994,8.994,0,0,0,31.4,4.02,9.141,9.141,0,0,0,23.1,12Z"></path><path d="M23,19.34a5.074,5.074,0,0,0,.71,2.57l.1.17A14.82,14.82,0,0,1,32,20a14.82,14.82,0,0,1,8.19,2.08l.1-.17A5.074,5.074,0,0,0,41,19.34V14H38a1,1,0,0,1-1-1V9H27v4a1,1,0,0,1-1,1H23ZM36,15a2,2,0,1,1-2,2A2,2,0,0,1,36,15Zm-8,0a2,2,0,1,1-2,2A2,2,0,0,1,28,15Z"></path><polygon points="13 52.13 13 60 19 60 19 52.88 13 52.13"></polygon><path d="M43,16v3.34c0,.22-.02.44-.04.66H43a2.015,2.015,0,0,0,2-2A2.006,2.006,0,0,0,43,16Z"></path><path d="M51,47.88a6.964,6.964,0,0,0-4.91-6.68l-5.13-1.6c.01.13.04.26.04.4v4a1,1,0,0,1-2,0,1,1,0,0,0-2,0,.992.992,0,0,1-1.97.17l-2.14,4.28a1,1,0,0,1-1.78,0l-2.14-4.28A.992.992,0,0,1,27,44a1,1,0,0,0-2,0,1,1,0,0,1-2,0V40c0-.14.03-.27.04-.4l-5.13,1.6A6.964,6.964,0,0,0,13,47.88v2.24l6,.75V47h2V60H43V47h2v3.87l6-.75ZM33,57H31V55h2Zm0-4H31V51h2Z"></path><polygon points="45 60 51 60 51 52.13 45 52.88 45 60"></polygon><path d="M39,41.17V40a3.014,3.014,0,0,0-2-2.83v4a3.026,3.026,0,0,1,2,0Z"></path><path d="M35,29h2v1.62A4,4,0,0,0,38,28v-.34a6.93,6.93,0,0,1,1-3.6l.16-.27C37.94,22.86,35.42,22,32,22s-5.94.86-7.16,1.79l.16.27a6.93,6.93,0,0,1,1,3.6V28a4,4,0,0,0,1,2.62V29h2v2.86A4.091,4.091,0,0,0,30,32h1V29h2v3h1a4.091,4.091,0,0,0,1-.14Zm-3-2a5.017,5.017,0,0,1-4.33-2.5l1.73-1a3,3,0,0,0,5.2,0l1.73,1A5.017,5.017,0,0,1,32,27Z"></path><path d="M29.87,41.51,32,45.76l2.13-4.25a4.874,4.874,0,0,1-4.26,0Z"></path><path d="M27,41.17v-4A3.014,3.014,0,0,0,25,40v1.17a3.026,3.026,0,0,1,2,0Z"></path><path d="M35,33.91A6.638,6.638,0,0,1,34,34H30a6.638,6.638,0,0,1-1-.09V37a3,3,0,0,0,6,0Z"></path></g></svg>