<svg xmlns="http://www.w3.org/2000/svg" viewBox="0 0 64 64" x="0px" y="0px"><g data-name="Truck-Gift Box-Delivery-Transport-Clock"><polygon points="14 55 2 55 2 57 62 57 62 55 53 55 23 55 14 55"></polygon><path d="M14,47a3,3,0,1,0,3,3A3.009,3.009,0,0,0,14,47Zm1,4H13V49h2Z"></path><rect x="4" y="11" width="15" height="4"></rect><path d="M27.9,49H42V43H6v6H9.1a4.988,4.988,0,0,1,9.4-1.14A4.988,4.988,0,0,1,27.9,49Z"></path><path d="M53,47a3,3,0,1,0,3,3A3.009,3.009,0,0,0,53,47Zm1,4H52V49h2Z"></path><path d="M23,47a3,3,0,1,0,3,3A3.009,3.009,0,0,0,23,47Zm1,4H22V49h2Z"></path><path d="M60,39.58l-4.5-2.57a.01.01,0,0,0-.01-.01H50a1,1,0,0,1-1-1V27H44V49h4.1a5,5,0,0,1,9.8,0H60V46H57a1,1,0,0,1-1-1V41a1,1,0,0,1,1-1h3ZM54,41H50V39h4Z"></path><path d="M24,21a8,8,0,1,0,8,8A8.009,8.009,0,0,0,24,21Zm3.553,10.9-4-2A1,1,0,0,1,23,29V23h2v5.382l3.447,1.723Z"></path><rect x="58" y="42" width="2" height="2"></rect><path d="M25,9h3a3.009,3.009,0,0,0,3-3V5H28a3.009,3.009,0,0,0-3,3Z"></path><path d="M23,9V8a3.009,3.009,0,0,0-3-3H17V6a3.009,3.009,0,0,0,3,3Z"></path><rect x="21" y="11" width="6" height="4"></rect><path d="M55,35V28a1,1,0,0,0-1-1H51v8Z"></path><path d="M42,17H6V41H42ZM24,39A10,10,0,1,1,34,29,10.011,10.011,0,0,1,24,39Z"></path><rect x="29" y="11" width="15" height="4"></rect></g></svg>