<svg xmlns="http://www.w3.org/2000/svg" viewBox="0 0 64 64" x="0px" y="0px"><g><rect x="5.622" y="19.472" width="2" height="2" transform="translate(-14.881 19.699) rotate(-70.017)"></rect><path d="M62.34,23.99l-.68-1.88-6.08,2.21L51.82,13.98l5.64-2.05,3.43,9.41,1.88-.68-3.43-9.42,3-1.09-.68-1.88-12.4,4.52-9.73-1.72,3.33-5.56A1,1,0,0,0,42,4a2.6,2.6,0,0,1-1.88-.78,4.6,4.6,0,0,0-6.24,0A2.557,2.557,0,0,1,32.01,4a2.65,2.65,0,0,1-1.89-.78,4.6,4.6,0,0,0-6.24,0A2.6,2.6,0,0,1,22,4a1,1,0,0,0-.86,1.51l3.34,5.56-9.74,1.72L2.34,8.27l-.68,1.88,3,1.09L1.23,20.66l1.88.68,3.43-9.41,5.64,2.05L8.42,24.32,2.21,22.06l-.68,1.88L9.39,26.8l2.15,2.27A14.9,14.9,0,0,0,11,33v9H5a3.009,3.009,0,0,0-3,3v2a2.974,2.974,0,0,0,.78,2A2.974,2.974,0,0,0,2,51v2a2.974,2.974,0,0,0,.78,2A2.974,2.974,0,0,0,2,57v2a3.009,3.009,0,0,0,3,3H59a3.009,3.009,0,0,0,3-3V57a2.974,2.974,0,0,0-.78-2A2.974,2.974,0,0,0,62,53V51a2.974,2.974,0,0,0-.78-2A2.974,2.974,0,0,0,62,47V45a2.974,2.974,0,0,0-.78-2A2.974,2.974,0,0,0,62,41V39a3.009,3.009,0,0,0-3-3H53V33a14.9,14.9,0,0,0-.54-3.93l2.15-2.27ZM23.6,5.73a5.357,5.357,0,0,0,1.52-.95,2.656,2.656,0,0,1,3.76,0A4.538,4.538,0,0,0,32.01,6a4.559,4.559,0,0,0,3.13-1.22A2.551,2.551,0,0,1,37,4a2.6,2.6,0,0,1,1.88.78,5.357,5.357,0,0,0,1.52.95L37.42,10.7l-.63-.11a2.981,2.981,0,0,0-3.47,2.43,2.931,2.931,0,0,0,0,.98H30.68a2.931,2.931,0,0,0,0-.98,2.989,2.989,0,0,0-3.47-2.43l-.63.11ZM34.56,16a3.145,3.145,0,0,0,1.19.5l.27.04L32,18l-4.01-1.46.26-.04a3.213,3.213,0,0,0,1.19-.5ZM10.68,25.25a1.006,1.006,0,0,0-.39-.25l3.77-10.34.25.1a.981.981,0,0,0,.51.04l12.74-2.24a.988.988,0,0,1,1.15.81,1,1,0,0,1-.16.75,1.025,1.025,0,0,1-.65.41l-3.94.69a1.009,1.009,0,0,0-.82.9.987.987,0,0,0,.66,1.02l11.27,4.11a.993.993,0,0,1,.6,1.28,1.037,1.037,0,0,1-.52.57,1,1,0,0,1-.76.03l-8.46-3.08a1,1,0,0,0-.68,1.88l12.21,4.45a1,1,0,0,1,.66.94,1.016,1.016,0,0,1-.06.34.956.956,0,0,1-.52.56,1.05,1.05,0,0,1-.76.04L24.56,23.81a1,1,0,1,0-.68,1.88l8.46,3.08a.971.971,0,0,1,.56.51,1.028,1.028,0,0,1,.03.77.971.971,0,0,1-.51.56.984.984,0,0,1-.77.04l-8.46-3.08a1,1,0,0,0-.68,1.88l4.71,1.71a1.009,1.009,0,0,1,.59,1.28,1.021,1.021,0,0,1-.52.56.98.98,0,0,1-.77.04L13.59,28.33ZM18,59a1,1,0,0,1-1,1H5a1,1,0,0,1-1-1V57a1,1,0,0,1,1-1H6v2H8V56h2v2h2V56h2v2h2V56h1a1,1,0,0,1,1,1Zm0-6a1,1,0,0,1-1,1H5a1,1,0,0,1-1-1V51a1,1,0,0,1,1-1H6v2H8V50h2v2h2V50h2v2h2V50h1a1,1,0,0,1,1,1Zm0-6a1,1,0,0,1-1,1H5a1,1,0,0,1-1-1V45a1,1,0,0,1,1-1H6v2H8V44h2v2h2V44h2v2h2V44h1a1,1,0,0,1,1,1Zm26.78-4A2.974,2.974,0,0,0,44,45v2a2.974,2.974,0,0,0,.78,2A2.974,2.974,0,0,0,44,51v2a2.974,2.974,0,0,0,.78,2A2.974,2.974,0,0,0,44,57v2a3,3,0,0,0,.18,1H19.82A3,3,0,0,0,20,59V57a2.974,2.974,0,0,0-.78-2A2.974,2.974,0,0,0,20,53V51a2.974,2.974,0,0,0-.78-2A2.974,2.974,0,0,0,20,47V45a3.009,3.009,0,0,0-3-3H13V33a13.1,13.1,0,0,1,.28-2.65l12.56,4.57a3,3,0,0,0,2.29-.1,3,3,0,0,0,1.56-1.7,3.148,3.148,0,0,0,.18-1l1.1.41a2.969,2.969,0,0,0,1.93.02c.04-.01,1.25-.43,1.25-.43a2.87,2.87,0,0,0,.16,1,3.013,3.013,0,0,0,2.83,1.98,2.962,2.962,0,0,0,1.02-.18l12.56-4.57A13.1,13.1,0,0,1,51,33v3H47a3.009,3.009,0,0,0-3,3v2A2.974,2.974,0,0,0,44.78,43ZM60,59a1,1,0,0,1-1,1H47a1,1,0,0,1-1-1V57a1,1,0,0,1,1-1h1v2h2V56h2v2h2V56h2v2h2V56h1a1,1,0,0,1,1,1Zm0-6a1,1,0,0,1-1,1H47a1,1,0,0,1-1-1V51a1,1,0,0,1,1-1h1v2h2V50h2v2h2V50h2v2h2V50h1a1,1,0,0,1,1,1Zm0-6a1,1,0,0,1-1,1H47a1,1,0,0,1-1-1V45a1,1,0,0,1,1-1h1v2h2V44h2v2h2V44h2v2h2V44h1a1,1,0,0,1,1,1Zm-6-7V38h2v2h2V38h1a1,1,0,0,1,1,1v2a1,1,0,0,1-1,1H47a1,1,0,0,1-1-1V39a1,1,0,0,1,1-1h1v2h2V38h2v2Zm-.68-14.75-2.91,3.08L37.48,33.04a1.02,1.02,0,0,1-1.29-.59,1,1,0,0,1,.6-1.28l-.01-.01,4.71-1.71a1,1,0,1,0-.68-1.88l-.74.27a3,3,0,0,0-.23-1.79,1.432,1.432,0,0,0-.12-.21l.4-.15a1,1,0,1,0-.68-1.88l-1.59.58-.8-.29a3.1,3.1,0,0,0,.5-.89,2.8,2.8,0,0,0,.16-.9l1.04-.38a1,1,0,1,0-.68-1.88l-.94.34a3.063,3.063,0,0,0-1.37-1.02l-.83-.3,4.45-1.62a4.9,4.9,0,0,0,2.13,1.92,5.028,5.028,0,0,0,2.11.47,5.093,5.093,0,0,0,1.71-.3l.94-.35-.68-1.88-.94.35a3,3,0,0,1-3.85-1.8.994.994,0,0,0-.76-.64l-3.94-.69a1.025,1.025,0,0,1-.65-.41,1,1,0,0,1-.16-.75.982.982,0,0,1,1.15-.81L49.18,14.8a.981.981,0,0,0,.51-.04l.25-.1L53.71,25A1.006,1.006,0,0,0,53.32,25.25Z"></path><rect x="56.378" y="19.472" width="1.999" height="2" transform="translate(-3.542 20.851) rotate(-19.993)"></rect><path d="M31,43h2a1,1,0,0,1,1,1h2a3,3,0,0,0-3-3V40H31v1a3,3,0,0,0,0,6h2a1,1,0,0,1,0,2H31a1,1,0,0,1-1-1H28a3,3,0,0,0,3,3v1h2V51a3,3,0,0,0,0-6H31a1,1,0,0,1,0-2Z"></path><path d="M32,36A10,10,0,1,0,42,46,10.011,10.011,0,0,0,32,36Zm0,18a8,8,0,1,1,8-8A8.009,8.009,0,0,1,32,54Z"></path></g></svg>