<svg xmlns="http://www.w3.org/2000/svg" viewBox="0 0 64 64" x="0px" y="0px"><title>Goal-Target-Book</title><g><path d="M15,12H53V38h2V3a1,1,0,0,0-1-1H14A5.006,5.006,0,0,0,9,7V57a5.006,5.006,0,0,0,5,5H40V60H15ZM14,4H53V6H15V8H53v2H14a3,3,0,0,1,0-6ZM11,57V10.974a4.954,4.954,0,0,0,2,.925V59.816A3,3,0,0,1,11,57Z"></path><path d="M20,16a1,1,0,0,0-1,1V27a1,1,0,0,0,1,1H48a1,1,0,0,0,1-1V17a1,1,0,0,0-1-1ZM47,26H21V18H47Z"></path><path d="M48,47a3,3,0,1,0,3,3A3,3,0,0,0,48,47Zm0,4a1,1,0,1,1,1-1A1,1,0,0,1,48,51Z"></path><path d="M60,49H57.949A10.015,10.015,0,0,0,49,40.051V38H47v2.051A10.015,10.015,0,0,0,38.051,49H36v2h2.051A10.015,10.015,0,0,0,47,59.949V62h2V59.949A10.015,10.015,0,0,0,57.949,51H60ZM49,57.931V56H47v1.931A8.008,8.008,0,0,1,40.069,51H42V49H40.069A8.008,8.008,0,0,1,47,42.069V44h2V42.069A8.008,8.008,0,0,1,55.931,49H54v2h1.931A8.008,8.008,0,0,1,49,57.931Z"></path></g></svg>