<svg xmlns="http://www.w3.org/2000/svg" viewBox="0 0 64 64" x="0px" y="0px"><g data-name="avatar-man-young-account-profile"><path d="M46.92,39.31l-8.05-1.07a.929.929,0,0,1-.41-.16,5.08,5.08,0,0,0,3.04-.62,4.982,4.982,0,0,0,2.49-4.47,5.054,5.054,0,0,0,4.47-2.49,4.957,4.957,0,0,0-.08-5.11,4.988,4.988,0,0,0,0-8.78,4.981,4.981,0,0,0-4.39-7.6,4.989,4.989,0,0,0-7.6-4.4,5,5,0,0,0-8.78,0,4.989,4.989,0,0,0-7.6,4.4,5.013,5.013,0,0,0-4.47,2.49,4.958,4.958,0,0,0,.08,5.11,4.988,4.988,0,0,0,0,8.78,4.957,4.957,0,0,0-.08,5.11,5.018,5.018,0,0,0,4.47,2.49,4.944,4.944,0,0,0,4.97,5.12,5.253,5.253,0,0,0,.56-.03.979.979,0,0,1-.41.16l-8.06,1.07A7.031,7.031,0,0,0,11,46.25V61a1,1,0,0,0,1,1H52a1,1,0,0,0,1-1V46.25A7.031,7.031,0,0,0,46.92,39.31Zm-.2-9.81a2.991,2.991,0,0,1-3.64,1.3,1.021,1.021,0,0,0-1.05.23,1.033,1.033,0,0,0-.23,1.06A2.95,2.95,0,0,1,38,35.91v-1.7A11.029,11.029,0,0,0,42.95,26H43a3.991,3.991,0,0,0,2.67-1.04,1.032,1.032,0,0,0,.36.74A2.963,2.963,0,0,1,46.72,29.5ZM32,34a9.014,9.014,0,0,1-9-9V18.22a5.567,5.567,0,0,0,.59-.61c.47-.54.65-.71,1.08-.71s.61.19,1.07.74a3.045,3.045,0,0,0,5.2,0c.46-.55.65-.74,1.07-.74s.61.19,1.06.74a3.045,3.045,0,0,0,5.2,0c.46-.55.65-.74,1.07-.74s.61.17,1.08.7a5.481,5.481,0,0,0,.58.61V25A9.014,9.014,0,0,1,32,34ZM43,24V20a2.006,2.006,0,0,1,2,2,2.015,2.015,0,0,1-2,2ZM15,21a2.975,2.975,0,0,1,2.5-2.94,1.028,1.028,0,0,0,.8-.73,1.006,1.006,0,0,0-.33-1.03,2.984,2.984,0,0,1,2.94-5.1A1,1,0,0,0,22.2,9.91a2.987,2.987,0,0,1,5.1-2.95,1.006,1.006,0,0,0,1.03.33,1.028,1.028,0,0,0,.73-.8,2.981,2.981,0,0,1,5.88,0,1.028,1.028,0,0,0,.73.8,1.006,1.006,0,0,0,1.03-.33,2.987,2.987,0,0,1,5.1,2.95,1,1,0,0,0,1.29,1.29,2.984,2.984,0,0,1,2.94,5.1,1.006,1.006,0,0,0-.33,1.03,1.028,1.028,0,0,0,.8.73,2.979,2.979,0,0,1,0,5.88c-.01.01-.02.01-.03.02A3.945,3.945,0,0,0,47,22a4,4,0,0,0-4-4v-.28a.986.986,0,0,0-.48-.85,3.529,3.529,0,0,1-.6-.58,3.076,3.076,0,0,0-5.19.07c-.45.55-.65.74-1.06.74s-.61-.19-1.06-.74a3.054,3.054,0,0,0-5.21,0c-.45.55-.65.74-1.06.74s-.61-.19-1.06-.74a3.085,3.085,0,0,0-5.2-.07,3,3,0,0,1-.6.59.986.986,0,0,0-.48.85V18a4,4,0,0,0-4,4,3.945,3.945,0,0,0,.53,1.96c-.01-.01-.02-.01-.03-.02A2.975,2.975,0,0,1,15,21Zm6-1v4a2.015,2.015,0,0,1-2-2A2.006,2.006,0,0,1,21,20Zm2.5,15.72a2.975,2.975,0,0,1-1.3-3.63,1.033,1.033,0,0,0-.23-1.06,1.021,1.021,0,0,0-1.05-.23,2.986,2.986,0,0,1-2.95-5.1,1.032,1.032,0,0,0,.36-.74A3.991,3.991,0,0,0,21,26h.05a10.919,10.919,0,0,0,3.17,6.78A12.194,12.194,0,0,0,26,34.22v1.69A2.964,2.964,0,0,1,23.5,35.72Zm1.9,4.5A3.006,3.006,0,0,0,28,37.25V35.24a10.906,10.906,0,0,0,8,0v2.01a3.006,3.006,0,0,0,2.6,2.97l.06.01C37.17,44.38,34.63,47,32,47s-5.17-2.62-6.66-6.77ZM19,60H13V55h6Zm32,0H45V55h6Zm0-7H45V48H43V60H21V48H19v5H13V46.25a5.018,5.018,0,0,1,4.34-4.95l5.98-.8C25.08,45.76,28.36,49,32,49s6.92-3.24,8.68-8.5l5.98.8A5.018,5.018,0,0,1,51,46.25Z"></path><path d="M29,23h2a3,3,0,0,0-6,0h2a1,1,0,0,1,2,0Z"></path><path d="M36,22a1,1,0,0,1,1,1h2a3,3,0,0,0-6,0h2A1,1,0,0,1,36,22Z"></path><path d="M36.33,28.5l-1.73-1a3,3,0,0,1-5.2,0l-1.732,1a5,5,0,0,0,8.661,0Z"></path></g></svg>