<svg xmlns="http://www.w3.org/2000/svg" viewBox="0 0 64 64" x="0px" y="0px"><g data-name="Smart home-Internet of Things-Key lock-Door-Smartphone"><path d="M59,2H31a3.009,3.009,0,0,0-3,3V21H14a5,5,0,0,0-5,5v9.75L5.02,40.23a11.059,11.059,0,0,0-2.76,7.99l.73,11.57-.88,1.76,1.78.9,1-2A1.024,1.024,0,0,0,5,59.94L4.26,48.1a9.055,9.055,0,0,1,2.26-6.55L9,38.76v8.17l-.33.57,1.73,1,3-5.2a1.01,1.01,0,0,1,1.37-.36,1,1,0,0,1,.36,1.36l-3,5.2a.994.994,0,0,0,.04,1.05l.89,1.34a5.615,5.615,0,0,1,0,6.22l-.89,1.34A.967.967,0,0,0,12,60v2h2V60.3l.72-1.08a7.509,7.509,0,0,0,1-2.22H28a5.508,5.508,0,0,0,.71-.07A2.977,2.977,0,0,0,31,58H59a3.009,3.009,0,0,0,3-3V5A3.009,3.009,0,0,0,59,2ZM11,26a3.009,3.009,0,0,1,3-3H28a3.009,3.009,0,0,1,3,3v1H11Zm2.49,14.91a2.962,2.962,0,0,0-1.82,1.39L11,43.46V29H31V47H15.89l.98-1.7a3,3,0,0,0-3.38-4.39ZM28,55H16a7.537,7.537,0,0,0-1.28-4.22l-.54-.82.55-.96H31v3A3.009,3.009,0,0,1,28,55Zm32,0a1,1,0,0,1-1,1H30.97a4.987,4.987,0,0,0,1.61-2H60Zm0-3H33V26a5.014,5.014,0,0,0-3-4.58V5a1,1,0,0,1,1-1H59a1,1,0,0,1,1,1Z"></path><path d="M33,22H57a1,1,0,0,0,1-1V9a1,1,0,0,0-1-1H33a1,1,0,0,0-1,1V21A1,1,0,0,0,33,22Zm1-6H44v4H34Zm12,4V16H56v4Zm10-6H46V10H56ZM44,10v4H34V10Z"></path><path d="M41,28a3,3,0,0,0-6,0v6a3,3,0,0,0,6,0V31h3V29H41Zm-2,6a1,1,0,0,1-2,0V28a1,1,0,0,1,2,0v1H38v2h1Z"></path><rect x="20" y="51" width="2" height="2"></rect><rect x="14" y="37" width="2" height="2"></rect><rect x="18" y="37" width="2" height="2"></rect><rect x="22" y="37" width="2" height="2"></rect><rect x="26" y="37" width="2" height="2"></rect><path d="M22.535,14.465a5,5,0,0,0-7.07,0l1.414,1.414a3.072,3.072,0,0,1,4.242,0Z"></path><path d="M23.95,13.05l1.414-1.414a9.012,9.012,0,0,0-12.728,0L14.05,13.05A7.009,7.009,0,0,1,23.95,13.05Z"></path><path d="M17.586,17.586,19,19l1.414-1.414A2,2,0,0,0,17.586,17.586Z"></path></g></svg>