<svg xmlns="http://www.w3.org/2000/svg" viewBox="0 0 64 64" x="0px" y="0px"><g><path d="M59,13H50V11a3,3,0,0,0-3-3H17a3,3,0,0,0-3,3v2H5a3,3,0,0,0-3,3V48a3,3,0,0,0,3,3h9v2a3,3,0,0,0,3,3H47a3,3,0,0,0,3-3V51h9a3,3,0,0,0,3-3V16A3,3,0,0,0,59,13ZM43,10v4.586l-.293-.293a1,1,0,0,0-1.414,0L41,14.586V10ZM5,49a1,1,0,0,1-1-1V16a1,1,0,0,1,1-1h9V49Zm43,4a1,1,0,0,1-1,1H17a1,1,0,0,1-1-1V11a1,1,0,0,1,1-1H39v7a1,1,0,0,0,1.707.707L42,16.414l1.293,1.293A1,1,0,0,0,44,18a.987.987,0,0,0,.383-.076A1,1,0,0,0,45,17V10h2a1,1,0,0,1,1,1Zm12-5a1,1,0,0,1-1,1H50V15h9a1,1,0,0,1,1,1Z"></path><path d="M43,24H21a1,1,0,0,0-1,1v8a1,1,0,0,0,1,1H43a1,1,0,0,0,1-1V25A1,1,0,0,0,43,24Zm-1,8H22V26H42Z"></path><rect x="20" y="14" width="4" height="2"></rect><rect x="26" y="14" width="8" height="2"></rect><rect x="20" y="18" width="10" height="2"></rect><rect x="20" y="38" width="2" height="2"></rect><rect x="24" y="38" width="20" height="2"></rect><rect x="20" y="42" width="24" height="2"></rect><rect x="20" y="46" width="10" height="2"></rect><rect x="32" y="46" width="8" height="2"></rect><rect x="42" y="46" width="2" height="2"></rect><rect x="6" y="19" width="2" height="2"></rect><rect x="10" y="19" width="2" height="2"></rect><rect x="6" y="23" width="6" height="2"></rect><rect x="6" y="29" width="6" height="2"></rect><rect x="6" y="33" width="4" height="2"></rect><rect x="6" y="37" width="6" height="2"></rect><rect x="6" y="41" width="6" height="2"></rect><rect x="52" y="19" width="2" height="2"></rect><rect x="52" y="23" width="6" height="2"></rect><rect x="52" y="29" width="6" height="2"></rect><rect x="52" y="33" width="4" height="2"></rect><rect x="52" y="37" width="6" height="2"></rect><rect x="52" y="41" width="6" height="2"></rect></g></svg>