<svg xmlns="http://www.w3.org/2000/svg" viewBox="0 0 64 64" x="0px" y="0px"><g data-name="Bloger-Working At Home-Writer-Smartphone-Home Office"><path d="M19,51a3.009,3.009,0,0,0,3,3H34a3.009,3.009,0,0,0,3-3V48H19Zm8-1h2v2H27Z"></path><path d="M34,26H22a3.01,3.01,0,0,0-2.82,2H36.82A3.01,3.01,0,0,0,34,26Z"></path><path d="M59.7,26.43,32.64,3.84A1,1,0,0,0,32,3.61a1.025,1.025,0,0,0-.64.23L4.38,26.48a1.083,1.083,0,0,0-.31,1.33,1,1,0,0,0,.7.49.986.986,0,0,0,.81-.22L31.35,6.24a.987.987,0,0,1,1.29,0L58.42,27.96a1,1,0,0,0,1.28-1.53Z"></path><path d="M19,46H37V30H19Zm3-13h5v2H22Zm0,4H34v2H22Zm0,4H34v2H22Z"></path><path d="M54,59V26.85L32,8.31,10,26.96V59a1,1,0,0,0,1,1H53A1,1,0,0,0,54,59ZM39,51a5,5,0,0,1-5,5H22a5,5,0,0,1-5-5V29a5,5,0,0,1,5-5H34a5,5,0,0,1,5,5Zm8-2a1,1,0,0,1-.11.45l-2,4a1,1,0,0,1-1.78,0l-2-4A1,1,0,0,1,41,49V29a3,3,0,0,1,6,0Z"></path><polygon points="43 48.76 44 50.76 45 48.76 45 32 43 32 43 48.76"></polygon><path d="M44,28a1,1,0,0,0-1,1v1h2V29A1,1,0,0,0,44,28Z"></path></g></svg>