<svg xmlns="http://www.w3.org/2000/svg" viewBox="0 0 64 64" x="0px" y="0px"><g data-name="Handbag"><path d="M51,16H46V7a5.006,5.006,0,0,0-5-5H23a5.006,5.006,0,0,0-5,5v9H13a5.006,5.006,0,0,0-5,5V57a5.006,5.006,0,0,0,5,5H51a5.006,5.006,0,0,0,5-5V21A5.006,5.006,0,0,0,51,16Zm-9,0V14h2v2ZM40,7H24V4H40Zm0,2v7H24V9Zm4-2v5H42V4.171A3.006,3.006,0,0,1,44,7ZM22,4.171V12H20V7A3.006,3.006,0,0,1,22,4.171ZM20,14h2v2H20Zm-7,4H51a3,3,0,0,1,3,3v5H50.816A3,3,0,0,0,48,24H16a3,3,0,0,0-2.816,2H10V21A3,3,0,0,1,13,18ZM49,60H15V27a1,1,0,0,1,1-1H48a1,1,0,0,1,1,1ZM10,57V28h3V60A3,3,0,0,1,10,57Zm41,3V28h3V57A3,3,0,0,1,51,60Z"></path><path d="M41,38H23a2,2,0,0,0-2,2V51a5.006,5.006,0,0,0,5,5H38a5.006,5.006,0,0,0,5-5V40A2,2,0,0,0,41,38ZM38,54H26a3,3,0,0,1-3-3V44.974A4.948,4.948,0,0,0,26,46H38a4.948,4.948,0,0,0,3-1.026V51A3,3,0,0,1,38,54Zm0-10H26a3,3,0,0,1-3-3V40H41v1A3,3,0,0,1,38,44Z"></path></g></svg>