<svg xmlns="http://www.w3.org/2000/svg" viewBox="0 0 64 64" x="0px" y="0px"><g data-name="Smart Car-Car-Smartphone-Mobile-App"><path d="M28,40a2,2,0,0,0,2-2V36h4v2a2,2,0,0,0,2,2h2a2,2,0,0,0,2-2V35.816A3,3,0,0,0,42,33V31a2.989,2.989,0,0,0-1.571-2.621L40.618,28H42V26H40a1,1,0,0,0-.9.553l-.1.211-2.1-4.211A1,1,0,0,0,36,22H28a1,1,0,0,0-.895.553L25,26.764l-.105-.211A1,1,0,0,0,24,26H22v2h1.382l.189.379A2.989,2.989,0,0,0,22,31v2a3,3,0,0,0,2,2.816V38a2,2,0,0,0,2,2Zm0-2H26V36h2Zm8,0V36h2v2Zm4-5a1,1,0,0,1-1,1H25a1,1,0,0,1-1-1V31a1,1,0,0,1,1-1H39a1,1,0,0,1,1,1ZM28.618,24h6.764l2,4H26.618Z"></path><rect x="26" y="31" width="2" height="2"></rect><rect x="36" y="31" width="2" height="2"></rect><path d="M44,2H20a7.008,7.008,0,0,0-7,7V31.152l-6.238,10.8A16.893,16.893,0,0,0,4.586,52.332L5.673,62.11l1.987-.22L6.574,52.111a14.9,14.9,0,0,1,1.92-9.16L13,35.15V48.123l-.562.975,1.732,1,5-8.66a2,2,0,1,1,3.465,2l-3.5,6.062a1,1,0,0,0-.063.871l1.285,3.212A8.967,8.967,0,0,1,21,56.926v1.3a8.968,8.968,0,0,1-.664,3.393l1.852.754c.051-.124.087-.252.133-.377H44a7.008,7.008,0,0,0,7-7V9A7.008,7.008,0,0,0,44,2ZM20,4H44a5.006,5.006,0,0,1,5,5v1H15V9A5.006,5.006,0,0,1,20,4Zm4.366,40.438a4,4,0,0,0-6.928-4L15,44.659V12H49V52H21.877l-.768-1.921ZM44,60H22.846A10.985,10.985,0,0,0,23,58.23v-1.3A10.954,10.954,0,0,0,22.6,54H49v1A5.006,5.006,0,0,1,44,60Z"></path><rect x="25" y="6" width="2" height="2"></rect><rect x="29" y="6" width="6" height="2"></rect><rect x="30" y="56" width="4" height="2"></rect><path d="M22,14H18a1,1,0,0,0-1,1v4h2V16h3Z"></path><rect x="17" y="21" width="2" height="2"></rect></g></svg>