<svg xmlns="http://www.w3.org/2000/svg" viewBox="0 0 64 64" x="0px" y="0px"><g><path d="M55,60V50H9V60ZM22,53a1,1,0,0,1,1-1H41a1,1,0,0,1,1,1v4a1,1,0,0,1-1,1H23a1,1,0,0,1-1-1Z"></path><path d="M39,25a1,1,0,0,0-1-1H26a1,1,0,0,0,0,2H38A1,1,0,0,0,39,25Z"></path><path d="M37.382,22,39,18.764V16H37.721l-.772,2.316A1,1,0,0,1,36,19H34a1,1,0,0,1-.949-.684L32.279,16h-.558l-.772,2.316A1,1,0,0,1,30,19H28a1,1,0,0,1-.949-.684L26.279,16H25v2.764L26.618,22Z"></path><rect x="4" y="46" width="56" height="2"></rect><rect x="24" y="54" width="16" height="2"></rect><polygon points="36.434 33 27.566 33 25.766 36 38.234 36 36.434 33"></polygon><path d="M13,30V44H51V30H45V28h6V26H45V24h6V18H45V16h6V14H45V12h6V9a5,5,0,0,0-5-5H18a5,5,0,0,0-5,5v3h6v2H13v2h6v2H13v6h6v2H13v2h6v2Zm10,7a1,1,0,0,1,.143-.515l2.91-4.851L26.78,28H26a2.989,2.989,0,0,1-1.429-5.621l-1.466-2.932A1,1,0,0,1,23,19V15a1,1,0,0,1,1-1h3a1,1,0,0,1,.949.684L28.721,17h.558l.772-2.316A1,1,0,0,1,31,14h2a1,1,0,0,1,.949.684L34.721,17h.558l.772-2.316A1,1,0,0,1,37,14h3a1,1,0,0,1,1,1v4a1,1,0,0,1-.1.447l-1.466,2.932A2.989,2.989,0,0,1,38,28h-.78l.727,3.634,2.91,4.851A1,1,0,0,1,41,37v3a2,2,0,0,1-2,2H25a2,2,0,0,1-2-2Z"></path><polygon points="28.22 31 35.78 31 35.18 28 28.82 28 28.22 31"></polygon><rect x="25" y="38" width="14" height="2"></rect></g></svg>