<svg xmlns="http://www.w3.org/2000/svg" viewBox="0 0 64 64" x="0px" y="0px"><g><path d="M50.749,36.306a12.56,12.56,0,0,0-5.491,0,11.143,11.143,0,0,0-5.575,3.11c.061.356.094.7.137,1.054.026.212.063.428.083.637.061.645.1,1.279.1,1.9q0,.727-.055,1.446c-.012.159-.037.315-.053.474-.032.318-.062.637-.11.953-.028.188-.07.373-.1.56-.052.282-.1.564-.164.843-.046.2-.1.391-.155.586-.07.264-.137.529-.218.789-.063.2-.136.395-.2.593-.087.251-.173.5-.271.749-.079.2-.167.392-.252.587-.106.241-.211.482-.326.719-.1.194-.2.383-.3.573-.124.232-.248.464-.381.692-.109.187-.226.369-.341.552-.093.147-.177.3-.274.443a9.065,9.065,0,0,0,1.667,2.78,9.184,9.184,0,0,0,1.169,1.124A13.2,13.2,0,0,0,48,60c7.514,0,12-4.112,12-11C60,42.663,56.282,37.562,50.749,36.306Z"></path><path d="M37.8,45.626A17.222,17.222,0,0,0,38,43a19.763,19.763,0,0,0-.372-3.712c-1.341-6.766-5.99-12.891-11.566-15.236h0a12.759,12.759,0,0,0-10.12,0C9.244,26.866,4,35.189,4,43a17,17,0,0,0,33.8,2.626Z"></path><path d="M43.81,29.05l1.875,5.156a14.788,14.788,0,0,1,4.629,0l1.877-5.16A3.181,3.181,0,0,1,50.5,29.6a2.512,2.512,0,0,1-2.038-1.186C48.153,28.021,48.1,28,48,28s-.153.021-.464.417A2.519,2.519,0,0,1,45.5,29.6,3.17,3.17,0,0,1,43.81,29.05Z"></path><path d="M16.5,15.44c-1.556,0-2.577-1.08-3.477-2.033-.029-.031-.058-.061-.086-.092l3.2,8.519c.093-.033.188-.055.282-.086.144-.046.288-.088.432-.131q.5-.146,1-.257c.116-.025.233-.052.35-.075q.609-.12,1.225-.188l.135-.017c.481-.048.963-.08,1.447-.08s.967.032,1.448.08c.042,0,.084.012.127.016q.619.069,1.235.19c.115.022.228.048.342.073q.505.112,1.006.259c.142.042.285.084.427.13.094.031.189.053.283.086l3.2-8.519c-.028.031-.057.061-.086.092-.9.953-1.921,2.033-3.477,2.033-1.666,0-2.487-1.255-3.087-2.172C21.837,12.387,21.529,12,21,12s-.837.387-1.413,1.268C18.987,14.185,18.166,15.44,16.5,15.44Z"></path></g></svg>