<svg xmlns="http://www.w3.org/2000/svg" viewBox="0 0 64 64" x="0px" y="0px"><g data-name="Credit Card-Bill"><rect x="9" y="30" width="6" height="2"></rect><rect x="17" y="30" width="6" height="2"></rect><rect x="9" y="34" width="6" height="2"></rect><rect x="17" y="34" width="6" height="2"></rect><rect x="9" y="38" width="6" height="2"></rect><rect x="17" y="38" width="24" height="2"></rect><rect x="9" y="42" width="6" height="2"></rect><rect x="17" y="42" width="24" height="2"></rect><rect x="9" y="46" width="6" height="2"></rect><rect x="17" y="46" width="24" height="2"></rect><rect x="9" y="50" width="6" height="2"></rect><rect x="17" y="50" width="24" height="2"></rect><path d="M17,24a3,3,0,0,0,0-6H15a1,1,0,0,1,0-2h2a1,1,0,0,1,1,1h2a3,3,0,0,0-3-3V12H15v2a3,3,0,0,0,0,6h2a1,1,0,0,1,0,2H15a1,1,0,0,1-1-1H12a3,3,0,0,0,3,3v2h2Z"></path><path d="M58,10H47V3a1,1,0,0,0-1.8-.6L43,5.333,40.8,2.4a1.036,1.036,0,0,0-1.6,0L37,5.333,34.8,2.4a1.036,1.036,0,0,0-1.6,0L31,5.333,28.8,2.4a1.036,1.036,0,0,0-1.6,0L25,5.333,22.8,2.4a1.036,1.036,0,0,0-1.6,0L19,5.333,16.8,2.4a1.036,1.036,0,0,0-1.6,0L13,5.333,10.8,2.4a1.036,1.036,0,0,0-1.6,0L7,5.333,4.8,2.4A1,1,0,0,0,3,3V61a1,1,0,0,0,1.8.6L7,58.667,9.2,61.6a1.036,1.036,0,0,0,1.6,0L13,58.667,15.2,61.6a1.036,1.036,0,0,0,1.6,0L19,58.667,21.2,61.6a1.036,1.036,0,0,0,1.6,0L25,58.667,27.2,61.6a1.036,1.036,0,0,0,1.6,0L31,58.667,33.2,61.6a1.036,1.036,0,0,0,1.6,0L37,58.667,39.2,61.6a1.036,1.036,0,0,0,1.6,0L43,58.667,45.2,61.6a1,1,0,0,0,.8.4,1.019,1.019,0,0,0,.316-.051A1,1,0,0,0,47,61V36h7a3,3,0,0,0,3-3V32h1a3,3,0,0,0,3-3V13A3,3,0,0,0,58,10ZM45,58l-1.2-1.6a1.036,1.036,0,0,0-1.6,0L40,59.333,37.8,56.4a1.036,1.036,0,0,0-1.6,0L34,59.333,31.8,56.4a1.036,1.036,0,0,0-1.6,0L28,59.333,25.8,56.4a1.036,1.036,0,0,0-1.6,0L22,59.333,19.8,56.4a1.036,1.036,0,0,0-1.6,0L16,59.333,13.8,56.4a1.036,1.036,0,0,0-1.6,0L10,59.333,7.8,56.4a1.036,1.036,0,0,0-1.6,0L5,58V6L6.2,7.6a1.036,1.036,0,0,0,1.6,0L10,4.667,12.2,7.6a1.036,1.036,0,0,0,1.6,0L16,4.667,18.2,7.6a1.036,1.036,0,0,0,1.6,0L22,4.667,24.2,7.6a1.036,1.036,0,0,0,1.6,0L28,4.667,30.2,7.6a1.036,1.036,0,0,0,1.6,0L34,4.667,36.2,7.6a1.036,1.036,0,0,0,1.6,0L40,4.667,42.2,7.6a1.036,1.036,0,0,0,1.6,0L45,6v4H32a3,3,0,0,0-3,3v1H28a3,3,0,0,0-3,3V33a3,3,0,0,0,3,3H45ZM55,33a1,1,0,0,1-1,1H28a1,1,0,0,1-1-1V17a1,1,0,0,1,1-1H54a1,1,0,0,1,1,1Zm4-4a1,1,0,0,1-1,1H57V17a3,3,0,0,0-3-3H31V13a1,1,0,0,1,1-1H58a1,1,0,0,1,1,1Z"></path><path d="M50,26a2.959,2.959,0,0,0-1.493.421A2.965,2.965,0,0,0,47,26a3,3,0,0,0,0,6,2.965,2.965,0,0,0,1.507-.421A2.959,2.959,0,0,0,50,32a3,3,0,0,0,0-6Zm-3,4a1,1,0,1,1,1-1A1,1,0,0,1,47,30Zm3,0a.928.928,0,0,1-.172-.038,2.776,2.776,0,0,0,0-1.924A.928.928,0,0,1,50,28a1,1,0,0,1,0,2Z"></path><path d="M30,24h6a1,1,0,0,0,1-1V19a1,1,0,0,0-1-1H30a1,1,0,0,0-1,1v4A1,1,0,0,0,30,24Zm1-4h4v2H31Z"></path><rect x="51" y="19" width="2" height="4"></rect><rect x="47" y="19" width="2" height="4"></rect><rect x="43" y="19" width="2" height="4"></rect><rect x="29" y="30" width="2" height="2"></rect><rect x="33" y="30" width="2" height="2"></rect><rect x="37" y="30" width="2" height="2"></rect><rect x="29" y="26" width="10" height="2"></rect></g></svg>