<svg xmlns="http://www.w3.org/2000/svg" viewBox="0 0 64 64" x="0px" y="0px"><g><path d="M57,2H7A5.006,5.006,0,0,0,2,7V57a5.006,5.006,0,0,0,5,5H57a5.006,5.006,0,0,0,5-5V7A5.006,5.006,0,0,0,57,2ZM7,4H57a3,3,0,0,1,3,3v3H4V7A3,3,0,0,1,7,4Zm9.641,53.434a1,1,0,0,0-.837-.716l-4.8-.6V49.883l4.8-.6a1,1,0,0,0,.838-.718,15.668,15.668,0,0,1,1.352-3.3,1,1,0,0,0-.084-1.1l-2.959-3.813,4.4-4.4,3.813,2.959a1,1,0,0,0,1.1.085,15.573,15.573,0,0,1,3.3-1.353,1,1,0,0,0,.719-.838l.6-4.8h6.234l.6,4.8a1,1,0,0,0,.719.838,15.573,15.573,0,0,1,3.3,1.353,1,1,0,0,0,1.1-.085l3.813-2.959,4.4,4.4L46.09,44.167a1,1,0,0,0-.084,1.1,15.668,15.668,0,0,1,1.352,3.3,1,1,0,0,0,.838.718l4.8.6v6.234l-4.8.6a1,1,0,0,0-.837.716,15.5,15.5,0,0,1-1,2.566H41.749A11.859,11.859,0,0,0,44,53a12,12,0,0,0-24,0,11.859,11.859,0,0,0,2.251,7H17.643A15.5,15.5,0,0,1,16.641,57.434ZM39.126,60H24.874A9.861,9.861,0,0,1,22,53a10,10,0,0,1,20,0A9.861,9.861,0,0,1,39.126,60ZM57,60H48.571c.187-.446.362-.9.516-1.378l5.037-.63A1,1,0,0,0,55,57V49a1,1,0,0,0-.876-.992l-5.036-.63a17.588,17.588,0,0,0-1.023-2.495l3.105-4a1,1,0,0,0-.083-1.32l-5.649-5.65a1,1,0,0,0-1.321-.083l-4,3.105a17.506,17.506,0,0,0-2.494-1.023l-.63-5.036A1,1,0,0,0,36,30H28a1,1,0,0,0-.992.876l-.63,5.036a17.506,17.506,0,0,0-2.494,1.023l-4-3.105a1,1,0,0,0-1.321.083l-5.649,5.65a1,1,0,0,0-.083,1.32l3.105,4a17.588,17.588,0,0,0-1.023,2.495l-5.036.63A1,1,0,0,0,9,49v8a1,1,0,0,0,.876.992l5.037.63c.154.474.329.932.516,1.378H7a3,3,0,0,1-3-3V12H60V57A3,3,0,0,1,57,60Z"></path><path d="M8.08,7.38a.757.757,0,0,0,.09.18,1.576,1.576,0,0,0,.12.15.933.933,0,0,0,.33.21A.838.838,0,0,0,9,8a1.2,1.2,0,0,0,.189-.02.609.609,0,0,0,.191-.06.776.776,0,0,0,.18-.09,1.712,1.712,0,0,0,.15-.12,1.576,1.576,0,0,0,.12-.15.8.8,0,0,0,.09-.18.6.6,0,0,0,.059-.18A1.362,1.362,0,0,0,10,7a1.052,1.052,0,0,0-.29-.71,1.712,1.712,0,0,0-.15-.12.776.776,0,0,0-.18-.09.609.609,0,0,0-.191-.06,1.054,1.054,0,0,0-.9.27A1.047,1.047,0,0,0,8,7a1.5,1.5,0,0,0,.02.2A.636.636,0,0,0,8.08,7.38Z"></path><path d="M12.08,7.38a.757.757,0,0,0,.09.18,1.576,1.576,0,0,0,.12.15,1.7,1.7,0,0,0,.149.12.782.782,0,0,0,.181.09.636.636,0,0,0,.18.06A1.487,1.487,0,0,0,13,8a1.2,1.2,0,0,0,.189-.02.609.609,0,0,0,.191-.06,1.169,1.169,0,0,0,.33-.21A1.052,1.052,0,0,0,14,7a1,1,0,0,0-.08-.38.933.933,0,0,0-.21-.33,1,1,0,0,0-.16-.12.568.568,0,0,0-.17-.09.609.609,0,0,0-.191-.06,1.025,1.025,0,0,0-.9.27.933.933,0,0,0-.21.33A.838.838,0,0,0,12,7a.68.68,0,0,0,.02.2A.636.636,0,0,0,12.08,7.38Z"></path><path d="M16.62,7.92A1,1,0,0,0,17,8a1,1,0,0,0,.71-1.71A1,1,0,0,0,16,7a1.047,1.047,0,0,0,.29.71A1.032,1.032,0,0,0,16.62,7.92Z"></path><rect x="10" y="18" width="4" height="2"></rect><rect x="16" y="18" width="2" height="2"></rect><rect x="10" y="22" width="8" height="2"></rect><path d="M15,26H13v6a1,1,0,0,0,.293.707l2,2,1.414-1.414L15,31.586Z"></path><rect x="46" y="18" width="6" height="2"></rect><rect x="42" y="22" width="10" height="2"></rect><rect x="42" y="26" width="10" height="2"></rect><rect x="42" y="18" width="2" height="2"></rect></g></svg>