<svg xmlns="http://www.w3.org/2000/svg" viewBox="0 0 64 64" x="0px" y="0px"><g><path d="M28,29V41h8V29Zm6,10H30V37h4Z"></path><path d="M42,13H39v1a3,3,0,0,1-3,3H28a3,3,0,0,1-3-3V13H22a1,1,0,0,0-1,1V50a1,1,0,0,0,1,1H42a1,1,0,0,0,1-1V14A1,1,0,0,0,42,13ZM38,41a2,2,0,0,1-2,2H28a2,2,0,0,1-2-2V29a2,2,0,0,1,2-2h1V25a1,1,0,0,1,1-1h4a1,1,0,0,1,1,1v2h1a2,2,0,0,1,2,2Z"></path><rect x="31" y="26" width="2" height="1"></rect><path d="M28,15h8a1,1,0,0,0,1-1V13H27v1A1,1,0,0,0,28,15Z"></path><path d="M32,4A28,28,0,1,0,60,32,28.032,28.032,0,0,0,32,4ZM12.1,41.9a14.014,14.014,0,0,1,0-19.8l1.414,1.414a12.013,12.013,0,0,0,0,16.97Zm5.242-4.242-1.414,1.414a10,10,0,0,1,0-14.142l1.414,1.414a8,8,0,0,0,0,11.314ZM45,50a3,3,0,0,1-3,3H22a3,3,0,0,1-3-3V14a3,3,0,0,1,3-3H42a3,3,0,0,1,3,3Zm1.657-12.343a8,8,0,0,0,0-11.314l1.414-1.414a10,10,0,0,1,0,14.142Zm3.828,2.828a12.013,12.013,0,0,0,0-16.97L51.9,22.1a14.014,14.014,0,0,1,0,19.8Z"></path></g></svg>