<svg xmlns="http://www.w3.org/2000/svg" viewBox="0 0 64 64" x="0px" y="0px"><g><path d="M40,14a2.006,2.006,0,0,1,2,2V34h2V15a3.009,3.009,0,0,0-3-3H35.58A4.941,4.941,0,0,1,36,14Z"></path><path d="M8,58a2.006,2.006,0,0,1-2-2V16a2.006,2.006,0,0,1,2-2h4a4.941,4.941,0,0,1,.42-2H7a3.009,3.009,0,0,0-3,3V57a3.009,3.009,0,0,0,3,3H42a2.006,2.006,0,0,0,2-2Zm4-39V16H8V48h5a3.009,3.009,0,0,1,3,3v5h7a3,3,0,0,1-2.94-3.6A3.086,3.086,0,0,1,23.13,50H25.7l2.76-1.84A1.032,1.032,0,0,1,29,48H40V46H21a1,1,0,0,1-1-1V35a1,1,0,0,1,1-1H40V16H36v3a1,1,0,0,1-1,1H13A1,1,0,0,1,12,19Zm12,7h8v2H24Zm-4,0h2v2H20Zm0,4H32v2H20Zm-7-8h2v1a3.009,3.009,0,0,1,3,3H16a1,1,0,0,0-1-1H13a1,1,0,0,0,0,2h2a3,3,0,0,1,0,6v1H13V33a3.009,3.009,0,0,1-3-3h2a1,1,0,0,0,1,1h2a1,1,0,0,0,0-2H13a3,3,0,0,1,0-6ZM42,46v2h2V46Z"></path><polygon points="27 54.465 29 55.798 29 50.202 27 51.535 27 54.465"></polygon><path d="M22,53a1,1,0,0,0,1,1h2V52H23A1,1,0,0,0,22,53Z"></path><rect x="31" y="54" width="17" height="2"></rect><rect x="31" y="50" width="17" height="2"></rect><rect x="50" y="50" width="1" height="6"></rect><path d="M54,50H53v6h1a3,3,0,0,0,0-6Z"></path><rect x="14" y="17" width="20" height="1"></rect><path d="M31,11H28a1,1,0,0,1-1-1V7a3,3,0,0,0-6,0v3a1,1,0,0,1-1,1H17a3.009,3.009,0,0,0-3,3v1H34V14A3.009,3.009,0,0,0,31,11ZM25,8H23V6h2Z"></path><polygon points="8 56 12.586 56 8 51.414 8 56"></polygon><path d="M14,51a1,1,0,0,0-1-1H9.414L14,54.586Z"></path><polygon points="22 36 22 44 24 44 24 42 26 42 26 44 28 44 28 40 30 40 30 44 32 44 32 42 34 42 34 44 36 44 36 42 38 42 38 44 40 44 40 40 42 40 42 44 44 44 44 42 46 42 46 44 48 44 48 42 50 42 50 44 52 44 52 40 54 40 54 44 56 44 56 42 58 42 58 44 60 44 60 36 22 36"></polygon></g></svg>