<svg xmlns="http://www.w3.org/2000/svg" data-name="Video Player-Smartphone-Streaming-Technology-CD Player" viewBox="0 0 64 64" x="0px" y="0px"><circle cx="27" cy="44" r="1"></circle><path d="M34,54H30a1,1,0,0,0,0,2h4a1,1,0,0,0,0-2Z"></path><circle cx="32" cy="26" r="1"></circle><path d="M50,8a4,4,0,0,0-4-4H18a4,4,0,0,0-4,4V56a4,4,0,0,0,4,4H46a4,4,0,0,0,4-4ZM29,6h6V8H29ZM25,6h2V8H25Zm9,52H30a3,3,0,0,1,0-6h4a3,3,0,0,1,0,6ZM45,45H29.816a2.982,2.982,0,0,1-5.632,0H19V43h5.184a2.982,2.982,0,0,1,5.632,0H45ZM32,39A13,13,0,1,1,45,26,13.015,13.015,0,0,1,32,39Z"></path><path d="M32,15A11,11,0,1,0,43,26,11.013,11.013,0,0,0,32,15Zm0,20V33a7.029,7.029,0,0,0,1.752-.221l.5,1.938A9.094,9.094,0,0,1,32,35Zm0-6a3,3,0,1,1,3-3A3,3,0,0,1,32,29Zm4.5,4.8-1-1.731a7.06,7.06,0,0,0,2.993-3.439l1.854.75A9.061,9.061,0,0,1,36.5,33.8Z"></path></svg>