<svg xmlns="http://www.w3.org/2000/svg" viewBox="0 0 64 64" x="0px" y="0px"><g><path d="M61,15H3a1,1,0,0,0-1,1v2a1,1,0,0,0,.293.707l2,2A1,1,0,0,0,5,21H7V38a1,1,0,0,0,1,1H9v9a1,1,0,0,0,1,1h3a1,1,0,0,0,.958-.713L16.744,39H47.256l2.786,9.287A1,1,0,0,0,51,49h3a1,1,0,0,0,1-1V39h1a1,1,0,0,0,1-1V21h2a1,1,0,0,0,.707-.293l2-2A1,1,0,0,0,62,18V16A1,1,0,0,0,61,15ZM12.256,47H11V39h3.656ZM53,47H51.744l-2.4-8H53Zm2-10H9V21H55Zm5-19.414L58.586,19H5.414L4,17.586V17H60Z"></path><path d="M12,33H52a1,1,0,0,0,1-1V24a1,1,0,0,0-1-1H12a1,1,0,0,0-1,1v8A1,1,0,0,0,12,33Zm1-8H51v6H13Z"></path><rect x="30" y="27" width="4" height="2"></rect></g></svg>