<svg xmlns="http://www.w3.org/2000/svg" viewBox="0 0 64 64" x="0px" y="0px"><g data-name="Circular Saw"><path d="M60.788,36.608l-4.042-1.083c.025-.174.047-.35.068-.525H57a5.006,5.006,0,0,0,5-5,1,1,0,0,0-1-1H56.814c-.021-.175-.043-.351-.068-.525l.179-.048A5,5,0,0,0,60.46,22.3a1,1,0,0,0-1.225-.707L55.2,22.678c-.066-.164-.134-.328-.2-.49l.153-.089a5.008,5.008,0,0,0,1.831-6.831,1,1,0,0,0-1.366-.367L51.99,16.994c-.105-.14-.213-.281-.322-.42l.131-.131a5,5,0,0,0,0-7.07,1,1,0,0,0-1.414,0l-2.959,2.959c-.139-.109-.28-.217-.42-.322l.093-.16a5.008,5.008,0,0,0-1.831-6.831,1.012,1.012,0,0,0-.759-.1,1,1,0,0,0-.608.466L41.812,9q-.244-.1-.49-.2l.046-.172a5,5,0,0,0-3.535-6.123,1,1,0,0,0-1.225.707L35.525,7.254c-.174-.025-.35-.047-.525-.068V7a5.006,5.006,0,0,0-5-5,1,1,0,0,0-1,1V7.186c-.175.021-.351.043-.525.068l-.048-.179A5,5,0,0,0,22.3,3.54,1,1,0,0,0,21.6,4.765L22.678,8.8c-.164.066-.328.134-.49.2L22.1,8.85a5.007,5.007,0,0,0-6.831-1.831A1,1,0,0,0,14.9,8.385l2.093,3.625c-.14.105-.281.213-.42.322l-.131-.131a5,5,0,0,0-7.07,0,1,1,0,0,0,0,1.414l2.959,2.959c-.109.139-.217.28-.322.42l-.16-.093a5.007,5.007,0,0,0-6.831,1.831A1,1,0,0,0,5.385,20.1L9,22.188q-.1.244-.2.49l-.172-.046a5,5,0,0,0-6.123,3.535,1,1,0,0,0,.707,1.225l4.042,1.083c-.025.174-.047.35-.068.525H7a5.006,5.006,0,0,0-5,5,1,1,0,0,0,1,1H7.186c.021.175.043.351.068.525l-.179.048A5,5,0,0,0,3.54,41.7a1,1,0,0,0,1.225.707L8.8,41.322c.066.164.134.328.2.49L8.85,41.9a5.007,5.007,0,0,0-1.831,6.831.992.992,0,0,0,.607.466,1.013,1.013,0,0,0,.759-.1l3.625-2.093c.105.14.213.281.322.42l-.131.131a5,5,0,0,0,0,7.07,1,1,0,0,0,1.414,0l2.959-2.959c.139.109.28.217.42.322l-.093.16a5.008,5.008,0,0,0,1.831,6.831,1.02,1.02,0,0,0,.759.1,1,1,0,0,0,.608-.466L22.188,55q.244.1.49.2l-.046.172A5,5,0,0,0,26.167,61.5a1,1,0,0,0,1.225-.707l1.083-4.042c.174.025.35.047.525.068V57a5.006,5.006,0,0,0,5,5,1,1,0,0,0,1-1V56.814c.175-.021.351-.043.525-.068l.048.179A5,5,0,0,0,41.7,60.46a1,1,0,0,0,.707-1.225L41.322,55.2c.164-.066.328-.134.49-.2l.089.153a5.008,5.008,0,0,0,6.831,1.831,1,1,0,0,0,.367-1.366L47.006,51.99c.14-.105.281-.213.42-.322l.131.131a5,5,0,0,0,7.07,0,1,1,0,0,0,0-1.414l-2.959-2.959c.109-.139.217-.28.322-.42l.16.093a5.009,5.009,0,0,0,6.831-1.831,1,1,0,0,0-.366-1.367L55,41.812q.1-.244.2-.49l.172.046A5,5,0,0,0,61.5,37.833,1,1,0,0,0,60.788,36.608Zm-2.622,2.529a2.98,2.98,0,0,1-2.276.3l-1.043-.28a1,1,0,0,0-1.2.627c-.246.683-.528,1.361-.837,2.015a1,1,0,0,0,.4,1.294L56.6,45.048a3,3,0,0,1-3.451.318l-.941-.544a1,1,0,0,0-1.321.3c-.413.594-.861,1.177-1.329,1.73a1,1,0,0,0,.056,1.353l2.771,2.771a3.064,3.064,0,0,1-3.415-.587l-.77-.77a1,1,0,0,0-1.353-.056c-.553.468-1.136.916-1.73,1.329a1,1,0,0,0-.3,1.321L46.781,55.6a2.945,2.945,0,0,1-1.325-.053,2.98,2.98,0,0,1-1.822-1.4l-.541-.936a1,1,0,0,0-1.294-.4c-.654.309-1.332.591-2.015.837a1,1,0,0,0-.627,1.2l1.012,3.776a3,3,0,0,1-2.664-2.216l-.281-1.05a1,1,0,0,0-1.142-.725c-.715.128-1.443.222-2.164.281a1,1,0,0,0-.918,1v3.919A3.006,3.006,0,0,1,31,57V55.91a1,1,0,0,0-.918-1c-.721-.059-1.449-.153-2.164-.281a.963.963,0,0,0-.177-.016,1,1,0,0,0-.965.741l-1.013,3.784a3.006,3.006,0,0,1-1.2-3.251l.28-1.043a1,1,0,0,0-.627-1.2c-.683-.246-1.361-.528-2.015-.837a1,1,0,0,0-1.294.4L18.952,56.6a3.005,3.005,0,0,1-.318-3.451l.544-.941a1,1,0,0,0-.3-1.321c-.594-.413-1.177-.861-1.73-1.329a1,1,0,0,0-1.353.056l-2.771,2.771a3,3,0,0,1,.587-3.415l.77-.77a1,1,0,0,0,.056-1.353c-.468-.553-.916-1.136-1.329-1.73a1,1,0,0,0-1.321-.3L8.4,46.78A3.006,3.006,0,0,1,9.85,43.634l.936-.541a1,1,0,0,0,.4-1.294c-.309-.654-.591-1.332-.837-2.015a1,1,0,0,0-1.2-.627L5.377,40.169a3,3,0,0,1,2.216-2.664l1.05-.281a1,1,0,0,0,.725-1.142c-.128-.715-.222-1.443-.281-2.164a1,1,0,0,0-1-.918H4.171A3.006,3.006,0,0,1,7,31H8.09a1,1,0,0,0,1-.918c.059-.721.153-1.449.281-2.164a1,1,0,0,0-.725-1.142L4.859,25.763a3.006,3.006,0,0,1,3.251-1.2l1.043.28a.993.993,0,0,0,1.2-.627c.246-.683.528-1.361.837-2.015a1,1,0,0,0-.4-1.294L7.4,18.952a3,3,0,0,1,3.451-.318l.941.544a1,1,0,0,0,1.321-.3c.413-.594.861-1.177,1.329-1.73a1,1,0,0,0-.056-1.353l-2.771-2.771a3.066,3.066,0,0,1,3.415.587l.77.77a1,1,0,0,0,1.353.056c.553-.468,1.136-.916,1.73-1.329a1,1,0,0,0,.3-1.321L17.219,8.4A3,3,0,0,1,20.366,9.85l.541.936a1,1,0,0,0,1.294.4c.654-.309,1.332-.591,2.015-.837a1,1,0,0,0,.627-1.2L23.831,5.377A3,3,0,0,1,26.5,7.593l.281,1.05a1,1,0,0,0,1.142.725c.715-.128,1.443-.222,2.164-.281a1,1,0,0,0,.918-1V4.171A3.006,3.006,0,0,1,33,7V8.09a1,1,0,0,0,.918,1c.721.059,1.449.153,2.164.281a1,1,0,0,0,1.142-.725l1.013-3.784a3.006,3.006,0,0,1,1.2,3.251l-.28,1.043a1,1,0,0,0,.627,1.2c.683.246,1.361.528,2.015.837a1,1,0,0,0,1.294-.4L45.048,7.4a3.005,3.005,0,0,1,.318,3.451l-.544.941a1,1,0,0,0,.3,1.321c.594.413,1.177.861,1.73,1.329a1,1,0,0,0,1.353-.056l2.771-2.771a3,3,0,0,1-.587,3.415l-.77.77a1,1,0,0,0-.056,1.353c.468.553.916,1.136,1.329,1.73a1,1,0,0,0,1.321.3L55.6,17.22a3.007,3.007,0,0,1-1.451,3.146l-.936.541a1,1,0,0,0-.4,1.294c.309.654.591,1.332.837,2.015a1,1,0,0,0,1.2.627l3.776-1.012A3,3,0,0,1,56.407,26.5l-1.05.281a1,1,0,0,0-.725,1.142c.128.715.222,1.443.281,2.164a1,1,0,0,0,1,.918h3.919A3.006,3.006,0,0,1,57,33H55.91a1,1,0,0,0-1,.918c-.059.721-.153,1.449-.281,2.164a1,1,0,0,0,.725,1.142l3.784,1.013A2.986,2.986,0,0,1,58.166,39.137Z"></path><path d="M32,18A14,14,0,1,0,46,32,14.015,14.015,0,0,0,32,18Zm0,26A12,12,0,1,1,44,32,12.013,12.013,0,0,1,32,44Z"></path><path d="M32,28a4,4,0,1,0,4,4A4,4,0,0,0,32,28Zm0,6a2,2,0,1,1,2-2A2,2,0,0,1,32,34Z"></path></g></svg>