<svg xmlns="http://www.w3.org/2000/svg" viewBox="0 0 64 64" x="0px" y="0px"><g><path d="M62,39a3,3,0,0,0-3-3V25A21.124,21.124,0,0,0,41.937,4.389,3,3,0,0,0,39,2H25a2.926,2.926,0,0,0-2.108.874,2.938,2.938,0,0,0-.829,1.515A21.124,21.124,0,0,0,5,25V36a2.992,2.992,0,0,0-.846,5.864L7.717,59.537A3,3,0,0,0,10.669,62H53.331a3,3,0,0,0,2.948-2.445l3.567-17.691A2.994,2.994,0,0,0,62,39ZM24.306,4.287A.965.965,0,0,1,25,4H39a1.023,1.023,0,0,1,1,1.09h0C40,5.1,40,5.1,40,5.111a.979.979,0,0,1-.3.6A.965.965,0,0,1,39,6H25a1.013,1.013,0,0,1-1-.89,1.068,1.068,0,0,0-.034-.105L24,5A.978.978,0,0,1,24.306,4.287ZM7,25A19.128,19.128,0,0,1,22.32,6.354,3,3,0,0,0,25,8H39a2.925,2.925,0,0,0,2.107-.872,2.952,2.952,0,0,0,.57-.774A19.128,19.128,0,0,1,57,25V36H50.816A2.966,2.966,0,0,0,51,35a3,3,0,0,0-1.4-2.535A5,5,0,0,0,46,24H44.889A6.993,6.993,0,0,0,40,12H22a5,5,0,0,0-3.6,8.465A3,3,0,0,0,17,23a2.968,2.968,0,0,0,.417,1.5A6.986,6.986,0,0,0,15.111,36H7Zm8,6a5.006,5.006,0,0,1,5-5H46a3,3,0,0,1,0,6H22a1,1,0,0,1,0-2H42a1,1,0,0,0,0-2H22a3,3,0,0,0,0,6H48a1,1,0,0,1,0,2H20A5.006,5.006,0,0,1,15,31Zm4-8a1,1,0,0,1,1-1H40a3,3,0,0,0,0-6H23a1,1,0,0,0,0,2H40a1,1,0,0,1,0,2H22a3,3,0,0,1,0-6H40a5,5,0,0,1,0,10H20A1,1,0,0,1,19,23ZM54.315,59.178a1,1,0,0,1-.984.822H10.669a1.006,1.006,0,0,1-.987-.84L6.222,42H57.778ZM59,40H5a1,1,0,0,1,0-2H59a1,1,0,0,1,0,2Z"></path><path d="M32,56a3,3,0,0,0,3-3V49a3,3,0,0,0-6,0v4A3,3,0,0,0,32,56Zm-1-7a1,1,0,0,1,2,0v4a1,1,0,0,1-2,0Z"></path><path d="M44,56a3,3,0,0,0,3-3V49a3,3,0,0,0-6,0v4A3,3,0,0,0,44,56Zm-1-7a1,1,0,0,1,2,0v4a1,1,0,0,1-2,0Z"></path><path d="M20,56a3,3,0,0,0,3-3V49a3,3,0,0,0-6,0v4A3,3,0,0,0,20,56Zm-1-7a1,1,0,0,1,2,0v4a1,1,0,0,1-2,0Z"></path></g></svg>