<svg xmlns="http://www.w3.org/2000/svg" viewBox="0 0 64 64" x="0px" y="0px"><g><path d="M61,51H57V25H55V51H9V44H7v7H3a1,1,0,0,0-1,1v4a3,3,0,0,0,3,3H59a3,3,0,0,0,3-3V52A1,1,0,0,0,61,51ZM28,53h8v1H28Zm32,3a1,1,0,0,1-1,1H5a1,1,0,0,1-1-1V53H26v1a2,2,0,0,0,2,2h8a2,2,0,0,0,2-2V53H60Z"></path><path d="M9,18a3,3,0,0,1,3-3H29V13H12a5.006,5.006,0,0,0-5,5v6H9Z"></path><path d="M31.4,14.392a12.073,12.073,0,0,0-.861,2.08L27.8,17.02A1,1,0,0,0,27,18v4a1,1,0,0,0,.8.98l2.737.548a12.073,12.073,0,0,0,.861,2.08l-1.548,2.323a1,1,0,0,0,.125,1.261l2.829,2.829a1,1,0,0,0,1.261.125L36.393,30.6a11.879,11.879,0,0,0,2.079.862L39.02,34.2A1,1,0,0,0,40,35h4a1,1,0,0,0,.98-.8l.548-2.737a11.879,11.879,0,0,0,2.079-.862l2.324,1.549a1,1,0,0,0,1.261-.125l2.829-2.829a1,1,0,0,0,.125-1.261L52.6,25.608a12.073,12.073,0,0,0,.861-2.08L56.2,22.98A1,1,0,0,0,57,22V18a1,1,0,0,0-.8-.98l-2.737-.548a12.073,12.073,0,0,0-.861-2.08l1.548-2.323a1,1,0,0,0-.125-1.261L51.192,7.979a1,1,0,0,0-1.261-.125L47.607,9.4a11.879,11.879,0,0,0-2.079-.862L44.98,5.8A1,1,0,0,0,44,5H40a1,1,0,0,0-.98.8l-.548,2.737a11.879,11.879,0,0,0-2.079.862L34.069,7.854a1,1,0,0,0-1.261.125l-2.829,2.829a1,1,0,0,0-.125,1.261Zm2-.6-1.433-2.152,1.669-1.669,2.151,1.435a1,1,0,0,0,1.07.025,9.873,9.873,0,0,1,2.71-1.123,1,1,0,0,0,.738-.774L40.819,7h2.362l.506,2.536a1,1,0,0,0,.739.774,9.873,9.873,0,0,1,2.71,1.123,1,1,0,0,0,1.07-.025l2.151-1.435,1.669,1.669-1.433,2.152a1,1,0,0,0-.026,1.07,9.9,9.9,0,0,1,1.122,2.71,1,1,0,0,0,.775.738L55,18.82v2.36l-2.536.508a1,1,0,0,0-.775.738,9.9,9.9,0,0,1-1.122,2.71,1,1,0,0,0,.026,1.07l1.433,2.152-1.669,1.669-2.151-1.435a1,1,0,0,0-1.07-.025,9.873,9.873,0,0,1-2.71,1.123,1,1,0,0,0-.739.774L43.181,33H40.819l-.507-2.536a1,1,0,0,0-.738-.774,9.873,9.873,0,0,1-2.71-1.123,1,1,0,0,0-1.07.025l-2.151,1.435-1.669-1.669,1.433-2.152a1,1,0,0,0,.026-1.07,9.9,9.9,0,0,1-1.122-2.71,1,1,0,0,0-.775-.738L29,21.18V18.82l2.536-.508a1,1,0,0,0,.775-.738,9.9,9.9,0,0,1,1.122-2.71A1,1,0,0,0,33.407,13.794Z"></path><path d="M42,29a9,9,0,1,0-9-9A9.01,9.01,0,0,0,42,29Zm0-16a7,7,0,1,1-7,7A7.008,7.008,0,0,1,42,13Z"></path><path d="M42,23a1,1,0,0,1-1-1H39a3,3,0,0,0,2,2.816V26h2V24.816A2.993,2.993,0,0,0,42,19a1,1,0,1,1,1-1h2a3,3,0,0,0-2-2.816V14H41v1.184A2.993,2.993,0,0,0,42,21a1,1,0,0,1,0,2Z"></path><path d="M6.8,36.98l2.7.54L7.976,39.809A1,1,0,0,0,8.1,41.071L10.929,43.9a1,1,0,0,0,1.261.125L14.479,42.5l.541,2.7A1,1,0,0,0,16,46h4a1,1,0,0,0,.98-.8l.541-2.7,2.289,1.525a1,1,0,0,0,1.261-.125L27.9,41.071a1,1,0,0,0,.125-1.262L26.5,37.52l2.7-.54A1,1,0,0,0,30,36V32a1,1,0,0,0-.8-.98l-2.7-.54,1.525-2.289a1,1,0,0,0-.125-1.262L25.071,24.1a1,1,0,0,0-1.261-.125L21.521,25.5l-.541-2.7A1,1,0,0,0,20,22H16a1,1,0,0,0-.98.8l-.541,2.7L12.19,23.976a1,1,0,0,0-1.261.125L8.1,26.929a1,1,0,0,0-.125,1.262L9.5,30.48l-2.7.54A1,1,0,0,0,6,32v4A1,1,0,0,0,6.8,36.98ZM8,32.82l2.672-.535a1,1,0,0,0,.745-.643q.115-.324.261-.631a1,1,0,0,0-.073-.981L10.1,27.764l1.669-1.67,2.266,1.511a1,1,0,0,0,.981.073c.205-.1.415-.184.63-.261a1,1,0,0,0,.644-.745L16.819,24h2.362l.534,2.672a1,1,0,0,0,.644.745c.215.077.425.165.63.261a1,1,0,0,0,.981-.073l2.266-1.511,1.669,1.67L24.4,30.03a1,1,0,0,0-.073.981q.146.308.261.631a1,1,0,0,0,.745.643L28,32.82v2.36l-2.672.535a1,1,0,0,0-.745.643q-.115.324-.261.631a1,1,0,0,0,.073.981l1.51,2.266-1.669,1.67L21.97,40.4a1,1,0,0,0-.981-.073c-.205.1-.415.184-.63.261a1,1,0,0,0-.644.745L19.181,44H16.819l-.534-2.672a1,1,0,0,0-.644-.745c-.215-.077-.425-.165-.63-.261a1,1,0,0,0-.981.073l-2.266,1.511L10.1,40.236l1.51-2.266a1,1,0,0,0,.073-.981q-.146-.307-.261-.631a1,1,0,0,0-.745-.643L8,35.18Z"></path><path d="M18,40a6,6,0,1,0-6-6A6.006,6.006,0,0,0,18,40Zm0-10a4,4,0,1,1-4,4A4,4,0,0,1,18,30Z"></path><rect x="47" y="39" width="4" height="2"></rect><rect x="43" y="39" width="2" height="2"></rect><rect x="39" y="39" width="2" height="2"></rect><rect x="35" y="39" width="2" height="2"></rect><rect x="35" y="43" width="16" height="2"></rect></g></svg>