<svg xmlns="http://www.w3.org/2000/svg" viewBox="0 0 64 64" x="0px" y="0px"><g><path d="M52,2H12A3,3,0,0,0,9,5V59a3,3,0,0,0,3,3H52a3,3,0,0,0,3-3V5A3,3,0,0,0,52,2ZM11,9.855l1.984,3.568A4.985,4.985,0,0,0,17.35,16H22v4.939A13.006,13.006,0,0,0,28.687,32.3l2.827,1.571a1,1,0,0,0,.972,0L35.313,32.3A13.006,13.006,0,0,0,42,20.939V16h4.65a4.983,4.983,0,0,0,4.364-2.574L53,9.855V54H11ZM24,20.939V15.65l8-3.556,8,3.556v5.289a11.007,11.007,0,0,1-5.658,9.616L32,31.856l-2.342-1.3A11.007,11.007,0,0,1,24,20.939ZM12,4H52a1,1,0,0,1,1,1v.741l-3.735,6.716A2.986,2.986,0,0,1,46.65,14H41.212l-8.806-3.914a1,1,0,0,0-.812,0L22.788,14H17.35a2.985,2.985,0,0,1-2.616-1.546L11,5.741V5A1,1,0,0,1,12,4ZM52,60H12a1,1,0,0,1-1-1V56H53v3A1,1,0,0,1,52,60Z"></path><path d="M31,25a1,1,0,0,0,.707-.293l5-5-1.414-1.414L31,22.586l-2.293-2.293-1.414,1.414,3,3A1,1,0,0,0,31,25Z"></path><path d="M44,36H20a1,1,0,0,0-1,1V49a1,1,0,0,0,1,1H44a1,1,0,0,0,1-1V37A1,1,0,0,0,44,36ZM43,48H21V38H43Z"></path><rect x="25" y="40" width="14" height="2"></rect><rect x="25" y="44" width="14" height="2"></rect></g></svg>