<svg xmlns="http://www.w3.org/2000/svg" viewBox="0 0 64 64" x="0px" y="0px"><title>Cloud-Computing-Communication_2</title><g data-name="Cloud-Computing-Communication"><path d="M56.019,11H49v2h7.02a.98.98,0,0,1,.98.98V48.019a.982.982,0,0,1-.981.981H7.981A.982.982,0,0,1,7,48.019V13.981A.982.982,0,0,1,7.981,13H15V11H7.981A2.985,2.985,0,0,0,5,13.981V48.019A2.985,2.985,0,0,0,7.981,51H24v6H23a1,1,0,0,0-1,1v3H18v2H46V61H42V58a1,1,0,0,0-1-1H40V51H56.019A2.985,2.985,0,0,0,59,48.019V13.98A2.984,2.984,0,0,0,56.019,11ZM24,61V59H40v2Zm14-4H26V51H38Z"></path><rect x="9" y="41" width="46" height="2"></rect><path d="M13,18V16H10a1,1,0,0,0-1,1V38h2V18Z"></path><path d="M55,38V17a1,1,0,0,0-1-1H51v2h2V38Z"></path><path d="M21.19,24H22V22h-.81a4.107,4.107,0,0,1-4.105-3.159A4.007,4.007,0,0,1,20.962,14a1,1,0,0,0,1.122-1.169A4.591,4.591,0,0,1,22,12a4,4,0,0,1,4-4,4.61,4.61,0,0,1,.832.084A1,1,0,0,0,28,6.961a4,4,0,0,1,8,0,1,1,0,0,0,1.168,1.122A4.61,4.61,0,0,1,38,8a4,4,0,0,1,4,4,4.591,4.591,0,0,1-.084.831A1,1,0,0,0,43.038,14a4.007,4.007,0,0,1,3.877,4.841A4.107,4.107,0,0,1,42.81,22H42v2h.81a6.111,6.111,0,0,0,6.066-4.765A6.01,6.01,0,0,0,44,12.083V12a6.006,6.006,0,0,0-6-6h-.083A6,6,0,0,0,26.083,6H26a6.006,6.006,0,0,0-6,6v.083a6.01,6.01,0,0,0-4.876,7.152A6.111,6.111,0,0,0,21.19,24Z"></path><path d="M28,28V20.414l1.122,1.121,1.414-1.414-2.829-2.828a1,1,0,0,0-1.414,0l-2.829,2.828,1.414,1.414L26,20.414V28Z"></path><path d="M36,17v7.586l-1.122-1.121-1.414,1.414,2.829,2.828a1,1,0,0,0,1.414,0l2.829-2.828-1.414-1.414L38,24.586V17Z"></path></g></svg>