<svg xmlns="http://www.w3.org/2000/svg" viewBox="0 0 64 64" x="0px" y="0px"><title>Speech Bubble_40</title><g data-name="Speech Bubble"><path d="M32,2A30,30,0,1,0,62,32,30.034,30.034,0,0,0,32,2Zm0,58A28,28,0,1,1,60,32,28.032,28.032,0,0,1,32,60Z"></path><path d="M47,28h-.08A7.006,7.006,0,0,0,40,22H16a7.009,7.009,0,0,0-7,7v2a7.009,7.009,0,0,0,7,7h.08A7.006,7.006,0,0,0,23,44H39v6a1,1,0,0,0,.694.952A1.013,1.013,0,0,0,40,51a1,1,0,0,0,.813-.419L45.515,44H47a7.009,7.009,0,0,0,7-7V35A7.009,7.009,0,0,0,47,28ZM11,31V29a5.006,5.006,0,0,1,5-5H40a5.009,5.009,0,0,1,4.9,4H23a7.009,7.009,0,0,0-7,7v1A5.006,5.006,0,0,1,11,31Zm41,6a5.006,5.006,0,0,1-5,5H45a1,1,0,0,0-.813.419L41,46.88V43a1,1,0,0,0-1-1H23a5.006,5.006,0,0,1-5-5V35a5.006,5.006,0,0,1,5-5H47a5.006,5.006,0,0,1,5,5Z"></path></g></svg>