<svg xmlns="http://www.w3.org/2000/svg" viewBox="0 0 64 64" x="0px" y="0px"><g><rect x="16" y="7" width="32" height="2"></rect><path d="M58,57V26H46V57H44V11H20V57H18V26H6V57H2v2H62V57ZM48,28h8v2H48Zm0,4h8v2H48Zm0,4h8v2H48Zm0,4h8v2H48Zm0,4h8v2H48Zm0,4h8v2H48Zm0,4h8v2H48ZM8,28h8v2H8Zm0,4h8v2H8Zm0,4h8v2H8Zm0,4h8v2H8Zm0,4h8v2H8Zm0,4h8v2H8Zm0,4h8v2H8ZM40,13h2v2H40Zm0,4h2v2H40Zm0,4h2v2H40Zm0,4h2v2H40Zm0,4h2v2H40Zm0,4h2v2H40Zm0,4h2v2H40Zm0,4h2v2H40ZM37,13h2v2H37Zm0,4h2v2H37Zm0,4h2v2H37Zm0,4h2v2H37Zm0,4h2v2H37Zm0,4h2v2H37Zm0,4h2v2H37Zm0,4h2v2H37ZM34,13h2v2H34Zm0,4h2v2H34Zm0,4h2v2H34Zm0,4h2v2H34Zm0,4h2v2H34Zm0,4h2v2H34Zm0,4h2v2H34Zm0,4h2v2H34ZM31,13h2v2H31Zm0,4h2v2H31Zm0,4h2v2H31Zm0,4h2v2H31Zm0,4h2v2H31Zm0,4h2v2H31Zm0,4h2v2H31Zm0,4h2v2H31ZM28,13h2v2H28Zm0,4h2v2H28Zm0,4h2v2H28Zm0,4h2v2H28Zm0,4h2v2H28Zm0,4h2v2H28Zm0,4h2v2H28Zm0,4h2v2H28ZM25,13h2v2H25Zm0,4h2v2H25Zm0,4h2v2H25Zm0,4h2v2H25Zm0,4h2v2H25Zm0,4h2v2H25Zm0,4h2v2H25Zm0,4h2v2H25ZM22,13h2v2H22Zm0,4h2v2H22Zm0,4h2v2H22Zm0,4h2v2H22Zm0,4h2v2H22Zm0,4h2v2H22Zm0,4h2v2H22Zm0,4h2v2H22ZM35,57V47H33V57H31V47H29V57H27V46a1,1,0,0,1,1-1h8a1,1,0,0,1,1,1V57Z"></path></g></svg>