<svg xmlns="http://www.w3.org/2000/svg" viewBox="0 0 64 64" x="0px" y="0px"><g data-name="Envelope"><path d="M59,2H15a3,3,0,0,0-3,3v8.371a4.908,4.908,0,0,0-2.516,2.138l-5.009,8.67A10.992,10.992,0,0,0,3,29.68V52a1,1,0,0,0-1,1v8a1,1,0,0,0,1,1H17a1,1,0,0,0,1-1V53a1,1,0,0,0-1-1v-.724l.857-1.431A15,15,0,0,0,20,42.12v-.85a14.9,14.9,0,0,0-.772-4.748L19.053,36H59a3,3,0,0,0,3-3V5A3,3,0,0,0,59,2ZM15,4H59a1,1,0,0,1,1,1V6.586L53.586,13H40.858a3.981,3.981,0,0,0-7.716,0H20.414L14,6.586V5A1,1,0,0,1,15,4ZM39,14a2,2,0,1,1-2-2A2,2,0,0,1,39,14ZM16,60H4V54H16Zm2-17.88a13,13,0,0,1-1.858,6.7l-1,1.67A1,1,0,0,0,15,51v1H5V29.68a8.986,8.986,0,0,1,1.206-4.5l5.013-8.676A2.925,2.925,0,0,1,12,15.624V30.653L10.934,32.5l1.732,1,7.5-12.991a2,2,0,0,1,3.468,2L16.764,34.4a1.058,1.058,0,0,0-.133.454v.057a1.007,1.007,0,0,0,.08.393l.622,1.855A12.91,12.91,0,0,1,18,41.27ZM59,34H19.305l6.062-10.492a4.011,4.011,0,0,0,.533-2,4,4,0,0,0-7.466-2L14,27.189V9.414l5.293,5.293A1,1,0,0,0,20,15H33.142a3.981,3.981,0,0,0,7.716,0H54a1,1,0,0,0,.707-.293L60,9.414V33A1,1,0,0,1,59,34Z"></path><path d="M56,22H44a2,2,0,0,0-2,2v6a2,2,0,0,0,2,2H56a2,2,0,0,0,2-2V24A2,2,0,0,0,56,22Zm0,8H44V24H56Z"></path><rect x="47" y="26" width="6" height="2"></rect></g></svg>