<svg xmlns="http://www.w3.org/2000/svg" viewBox="0 0 64 64" x="0px" y="0px"><path d="M51,25.949v6.235A3,3,0,0,1,53,35V47a3,3,0,0,1-.235,1.165A9.006,9.006,0,0,0,58,40V22.928A11.961,11.961,0,0,1,51,25.949Z"></path><path d="M60,14A10,10,0,1,0,50,24,10.011,10.011,0,0,0,60,14ZM50,8a6.006,6.006,0,0,0-6,6,1,1,0,0,1-2,0,8.009,8.009,0,0,1,8-8,1,1,0,0,1,0,2Z"></path><path d="M50,34a1,1,0,0,0-1,1V47a1,1,0,0,0,2,0V35A1,1,0,0,0,50,34Z"></path><path d="M29.391,4q-.672,0-1.336.051a17.954,17.954,0,0,0-15.121,11.18L6.385,35H12v9a5.006,5.006,0,0,0,5,5H31v2H26v9H48V49.22A2.985,2.985,0,0,1,47,47V35a3,3,0,0,1,2-2.816V25.949A11.988,11.988,0,0,1,43.356,4.015C43.237,4.012,43.12,4,43,4H29.391ZM17.5,26A4.505,4.505,0,0,1,13,21.5h2a2.5,2.5,0,0,0,5,0h2A4.505,4.505,0,0,1,17.5,26Z"></path></svg>