<svg xmlns="http://www.w3.org/2000/svg" viewBox="0 0 64 64" x="0px" y="0px"><g data-name="Sent-Email"><path d="M53,23a21,21,0,0,0-42,0v1a.981.981,0,0,0,.22.6L21.509,38H20a3,3,0,0,0-3,3V59a3,3,0,0,0,3,3H44a3,3,0,0,0,3-3V41a3,3,0,0,0-3-3H42.491L52.78,24.6A.981.981,0,0,0,53,24Zm-2.378-3.78a5.971,5.971,0,0,0-7.843.533c-.88-8.3-4.258-12.928-6.935-15.347A19.047,19.047,0,0,1,50.622,19.22ZM33,38V24a3.994,3.994,0,0,1,7.985-.146L35.544,38Zm-4.544,0L23.015,23.854A3.994,3.994,0,0,1,31,24V38ZM32,4.1c1.555.8,7.361,4.47,8.714,15.2A5.974,5.974,0,0,0,32,20.687,5.974,5.974,0,0,0,23.286,19.3C24.64,8.568,30.452,4.9,32,4.1Zm-3.844.3c-2.677,2.419-6.055,7.05-6.935,15.347a5.971,5.971,0,0,0-7.843-.533A19.047,19.047,0,0,1,28.156,4.406ZM13.03,23.7A3.99,3.99,0,0,1,21,24a1,1,0,0,0,.066.359L26.313,38h-2.28ZM19,43.618l8.645,4.323L19,56.586ZM44,60H20a.993.993,0,0,1-.93-.656L29.531,48.883l1.127.564a3.016,3.016,0,0,0,2.684,0l1.127-.564L44.93,59.344A.993.993,0,0,1,44,60ZM36.355,47.941,45,43.618V56.586ZM45,41v.382L32.447,47.658a1,1,0,0,1-.894,0L19,41.382V41a1,1,0,0,1,1-1H44A1,1,0,0,1,45,41Zm-7.313-3,5.247-13.641A1,1,0,0,0,43,24a3.99,3.99,0,0,1,7.97-.3l-11,14.3Z"></path></g></svg>