<svg xmlns="http://www.w3.org/2000/svg" viewBox="0 0 64 64" x="0px" y="0px"><g data-name="Digital Graphic-Graphic Editor-Tool-Edit Tools-Art"><path d="M61,17H60V55H8a4,4,0,1,1,4-4,1,1,0,0,0,2,0V19h4V17H13.91A6,6,0,0,0,2,18V51a6.006,6.006,0,0,0,6,6H61a1,1,0,0,0,1-1V18A1,1,0,0,0,61,17ZM8,14a4,4,0,0,1,4,4V46.532a5.976,5.976,0,0,0-8,.008V18A4,4,0,0,1,8,14Z"></path><path d="M33,17H30.97A4.924,4.924,0,0,0,32,14a5.017,5.017,0,0,0-4-4.9V7H26V9.1A5.017,5.017,0,0,0,22,14a4.924,4.924,0,0,0,1.03,3H21a1,1,0,0,0-1,1V42a1.014,1.014,0,0,0,.4.8L24,45.5V49h2V23h2V49h2V45.5l3.6-2.7A1.014,1.014,0,0,0,34,42V18A1,1,0,0,0,33,17Zm-6-6a3,3,0,1,1-3,3A3.009,3.009,0,0,1,27,11ZM24,43l-2-1.5V23h2Zm8-1.5L30,43V23h2ZM32,21H22V19H32Z"></path><rect x="26" y="13" width="2" height="2"></rect><path d="M39.1,48.447a1,1,0,0,0,1.79,0l3-6A1,1,0,0,0,44,42V12a1,1,0,0,0-1-1V10a3,3,0,0,0-6,0v1a1,1,0,0,0-1,1V42a1,1,0,0,0,.1.447Zm.9-2.683L38.618,43h2.764ZM38,13h4V41H38Zm1-3a1,1,0,0,1,2,0v1H39Z"></path><path d="M57,11H54V8a1,1,0,0,0-1-1H47a1,1,0,0,0-1,1V42a1,1,0,0,0,.11.45l3,6a1,1,0,0,0,1.78,0l3-6A1,1,0,0,0,54,42V13h2v9h2V12A1,1,0,0,0,57,11ZM50,45.76,48.62,43h2.76ZM52,41H48V15h4Zm0-28H48V9h4Z"></path></g></svg>