<svg xmlns="http://www.w3.org/2000/svg" viewBox="0 0 64 64" x="0px" y="0px"><g><circle cx="20" cy="18" r="2"></circle><circle cx="28" cy="18" r="2"></circle><path d="M27.307,24.75l-1.323-1.5a3.076,3.076,0,0,1-3.968,0l-1.323,1.5a5,5,0,0,0,6.614,0Z"></path><path d="M61.91,45.59,58.54,38H60V36H49.82a2.988,2.988,0,0,0-5.64,0H34v2h1.46l-3.37,7.59A.978.978,0,0,0,32,46a5,5,0,0,0,10,0,.978.978,0,0,0-.09-.41L38.54,38H44V56H41a3.009,3.009,0,0,0-3,3v1H37V53H35v7H27.9L26.03,43.18l1.29-2.58,3.1,2.21A.959.959,0,0,0,31,43a1.072,1.072,0,0,0,.46-.11A1.008,1.008,0,0,0,32,42V36.25l.3-.95L29,34.26V30.79A11.028,11.028,0,0,0,34.95,22H35a4,4,0,0,0,0-8V6a1,1,0,0,0-1-1H31V3a1,1,0,0,0-1-1H20a7.008,7.008,0,0,0-7,7v5a4,4,0,1,0,0,8h.05A11.028,11.028,0,0,0,19,30.79v3.47L9.31,37.29A8.963,8.963,0,0,0,3,45.88V61a1,1,0,0,0,1,1H55a1,1,0,0,0,1-1V59a3.009,3.009,0,0,0-3-3H50V38h5.46l-3.37,7.59A.978.978,0,0,0,52,46a5,5,0,0,0,10,0A.978.978,0,0,0,61.91,45.59ZM37,49a2.988,2.988,0,0,1-2.81-2h5.62A2.988,2.988,0,0,1,37,49Zm2.46-4H34.54L37,39.46ZM35,16a2.006,2.006,0,0,1,2,2,2.015,2.015,0,0,1-2,2ZM13,20a2.015,2.015,0,0,1-2-2,2.006,2.006,0,0,1,2-2ZM30.71,7H33v3.18A3,3,0,0,0,32,10H28.89A7.065,7.065,0,0,0,30.71,7ZM15,9a5,5,0,0,1,5-5h9V5a5,5,0,0,1-5,5H16a3,3,0,0,0-1,.18Zm0,12V13a1,1,0,0,1,1-1H32a1,1,0,0,1,1,1v8a9,9,0,0,1-18,0Zm9,14.88-3-1.5V31.57a10.68,10.68,0,0,0,6,0v2.81Zm1.67,3.55L24.38,42h-.76l-1.29-2.57L24,38.23ZM20.1,60H13V45H11V60H5V45.88A6.964,6.964,0,0,1,9.91,39.2L16,37.3V42a1.008,1.008,0,0,0,.54.89A1.072,1.072,0,0,0,17,43a.959.959,0,0,0,.58-.19l3.1-2.21,1.29,2.58ZM18,40.06V36.67l1.91-.6,2.16,1.08ZM22.12,60,23.9,44h.2l1.78,16Zm5.97-23.93,1.91.6v3.39l-4.07-2.91ZM47,36a1,1,0,1,1-1,1A1,1,0,0,1,47,36Zm-1,3.82a2.868,2.868,0,0,0,2,0V56H46ZM53,58a1,1,0,0,1,1,1v1H40V59a1,1,0,0,1,1-1Zm4-18.54L59.46,45H54.54ZM57,49a2.988,2.988,0,0,1-2.81-2h5.62A2.988,2.988,0,0,1,57,49Z"></path></g></svg>