<svg xmlns="http://www.w3.org/2000/svg" viewBox="0 0 64 64" x="0px" y="0px"><g><path d="M61,28H60V11a5.006,5.006,0,0,0-5-5H33a5.006,5.006,0,0,0-5,5v5H7a5.006,5.006,0,0,0-5,5V45a5.006,5.006,0,0,0,5,5H19v6H17a1,1,0,0,0-1,1v3H14v2H38V60H36V57a1,1,0,0,0-1-1H33V50h9v8a3,3,0,0,0,3,3H55a3,3,0,0,0,3-3V40a3,3,0,0,0-3-3H50V34h9a3,3,0,0,0,3-3V29A1,1,0,0,0,61,28ZM30,11a3,3,0,0,1,3-3H55a3,3,0,0,1,3,3V28H30Zm4,49H18V58H34Zm-3-4H21V50H31ZM7,48a3,3,0,0,1-3-3V44H42v4ZM55,59H45a1,1,0,0,1-1-1V57H56v1A1,1,0,0,1,55,59Zm1-19V55H44V40a1,1,0,0,1,1-1H55A1,1,0,0,1,56,40Zm-8-3H45a3,3,0,0,0-3,3v2H4V21a3,3,0,0,1,3-3H28V28H27a1,1,0,0,0-1,1v2a3,3,0,0,0,3,3H48Zm12-6a1,1,0,0,1-1,1H29a1,1,0,0,1-1-1V30H60Z"></path><circle cx="44" cy="21" r="1"></circle><path d="M44,17a4,4,0,0,0-4,4h2a2,2,0,0,1,4,0h2A4,4,0,0,0,44,17Z"></path><circle cx="50" cy="50" r="1"></circle><path d="M47.172,47.172l1.414,1.414a2.047,2.047,0,0,1,2.828,0l1.414-1.414A4.093,4.093,0,0,0,47.172,47.172Z"></path><path d="M44,14a7.008,7.008,0,0,0-7,7h2a5,5,0,0,1,10,0h2A7.008,7.008,0,0,0,44,14Z"></path><path d="M50,45a4.972,4.972,0,0,1,3.536,1.465l1.414-1.414a7,7,0,0,0-9.9,0l1.414,1.414A4.972,4.972,0,0,1,50,45Z"></path></g></svg>