<svg xmlns="http://www.w3.org/2000/svg" viewBox="0 0 64 64" x="0px" y="0px"><g><rect x="14" y="22" width="8" height="2"></rect><circle cx="43" cy="12" r="1"></circle><path d="M28,22H24v2a2,2,0,0,1-2,2H14a2,2,0,0,1-2-2V22H8a1,1,0,0,0-1,1V59a1,1,0,0,0,1,1H28a1,1,0,0,0,1-1V23A1,1,0,0,0,28,22ZM15,42H13V40h2Zm4,0H17V40h2Zm4,0H21V40h2Z"></path><circle cx="51" cy="20" r="1"></circle><path d="M56.35,4.95a4.023,4.023,0,0,1-3.1,1.57,3.911,3.911,0,0,1-3.17-1.9c-.58-.75-.92-1.14-1.59-1.14s-1.01.39-1.59,1.14a3.582,3.582,0,0,1-6.33-.01c-.58-.74-.91-1.13-1.58-1.13s-1,.39-1.58,1.13a3.9,3.9,0,0,1-3.17,1.91,3.892,3.892,0,0,1-3.16-1.91c-.58-.74-.91-1.13-1.58-1.13s-1.01.39-1.59,1.14a3.908,3.908,0,0,1-3.16,1.9,4.021,4.021,0,0,1-3.11-1.58A5.786,5.786,0,0,0,21,4.33V20h7a3.009,3.009,0,0,1,3,3V56H57V4.33A4.548,4.548,0,0,0,56.35,4.95ZM52.29,9.29l1.42,1.42-12,12-1.42-1.42ZM48,44h2v2H48ZM43,9a3,3,0,1,1-3,3A3.009,3.009,0,0,1,43,9ZM38,46H34V44h4Zm4,0H40V44h2Zm4,0H44V44h2Zm0-4H34V40H46Zm0-4H34V36H46Zm0-4H34V32H46Zm0-4H34V28H46Zm8,22H48V50h6Zm0-6H52V44h2Zm0-4H48V40h6Zm0-4H48V36h6Zm0-4H48V32h6Zm0-4H48V28h6Zm-3-7a3,3,0,1,1,3-3A3.009,3.009,0,0,1,51,23Z"></path></g></svg>