<svg xmlns="http://www.w3.org/2000/svg" viewBox="0 0 64 64" x="0px" y="0px"><g><rect x="13" y="56" width="28" height="2"></rect><rect x="43" y="56" width="4" height="2"></rect><rect x="9" y="56" width="2" height="2"></rect><rect x="13" y="52" width="2" height="2"></rect><rect x="9" y="52" width="2" height="2"></rect><rect x="17" y="52" width="2" height="2"></rect><rect x="21" y="52" width="2" height="2"></rect><rect x="25" y="52" width="2" height="2"></rect><rect x="29" y="52" width="2" height="2"></rect><rect x="33" y="52" width="2" height="2"></rect><rect x="37" y="52" width="2" height="2"></rect><rect x="41" y="52" width="2" height="2"></rect><rect x="45" y="52" width="2" height="2"></rect><rect x="13" y="48" width="2" height="2"></rect><rect x="9" y="48" width="2" height="2"></rect><rect x="17" y="48" width="2" height="2"></rect><rect x="21" y="48" width="2" height="2"></rect><rect x="25" y="48" width="2" height="2"></rect><rect x="29" y="48" width="2" height="2"></rect><rect x="33" y="48" width="2" height="2"></rect><rect x="37" y="48" width="2" height="2"></rect><rect x="41" y="48" width="2" height="2"></rect><rect x="45" y="48" width="2" height="2"></rect><path d="M57,32H54V30a1,1,0,0,0-1-1H51V22h7a1,1,0,0,0,1-1V7a5.006,5.006,0,0,0-5-5H16a3,3,0,0,0-3,3V42h2V5a1,1,0,0,1,1-1H50.026A4.948,4.948,0,0,0,49,7V42h2V37h2a1,1,0,0,0,1-1V34h3a3,3,0,0,1,3,3V49a3,3,0,0,1-3,3H54V51a1,1,0,0,0-1-1H51V46a2,2,0,0,0-2-2H7a2,2,0,0,0-2,2V60a2,2,0,0,0,2,2H49a2,2,0,0,0,2-2V56h2a1,1,0,0,0,1-1V54h3a5.006,5.006,0,0,0,5-5V37A5.006,5.006,0,0,0,57,32ZM57,7V20H51V7a3,3,0,0,1,6,0ZM52,35H51V31h1ZM49,60H7V46H49Zm3-6H51V52h1Z"></path><rect x="19" y="8" width="2" height="2"></rect><rect x="23" y="8" width="8" height="2"></rect><rect x="19" y="12" width="12" height="2"></rect><rect x="19" y="20" width="4" height="2"></rect><rect x="25" y="20" width="20" height="2"></rect><rect x="19" y="26" width="26" height="2"></rect><rect x="19" y="32" width="26" height="2"></rect><rect x="19" y="38" width="26" height="2"></rect></g></svg>