<svg xmlns="http://www.w3.org/2000/svg" viewBox="0 0 64 64" x="0px" y="0px"><g><path d="M35,35.57a10.68,10.68,0,0,1-6,0v6.02a11.733,11.733,0,0,0,6,0Z"></path><path d="M29,43.65V60h6V43.65a13.032,13.032,0,0,1-6,0Z"></path><path d="M41.53,43.06,37,39.17V56.45l3.8-8.24-1.51-1.5a1.008,1.008,0,0,1,0-1.42Z"></path><path d="M36,26H33v1a1,1,0,0,0,1,1h3V27A1,1,0,0,0,36,26Z"></path><path d="M51,60V48.88a6.964,6.964,0,0,0-4.91-6.68l-3.91-1.22,1.47,1.26a1,1,0,0,1,.35.72,1.041,1.041,0,0,1-.29.75L41.41,46l1.3,1.29a1.028,1.028,0,0,1,.2,1.13L37.56,60H43V51h2v9Z"></path><path d="M19.09,18.51A3.893,3.893,0,0,1,21,18V17a3.009,3.009,0,0,1,3-3H40a3.009,3.009,0,0,1,3,3v1a3.893,3.893,0,0,1,1.91.51A15.111,15.111,0,0,0,45,17a13,13,0,0,0-26,0A15.111,15.111,0,0,0,19.09,18.51Z"></path><path d="M27,27v1h3a1,1,0,0,0,1-1V26H28A1,1,0,0,0,27,27Z"></path><path d="M23.2,48.21,27,56.45V39.17l-4.53,3.89,2.24,2.23a1.008,1.008,0,0,1,0,1.42Z"></path><path d="M45,22a2.006,2.006,0,0,0-2-2v4a2.015,2.015,0,0,0,2-2Z"></path><path d="M13,60h6V51h2v9h5.44L21.09,48.42a1.028,1.028,0,0,1,.2-1.13L22.59,46l-2.3-2.29a1.041,1.041,0,0,1-.29-.75,1,1,0,0,1,.35-.72l1.47-1.26L17.91,42.2A6.964,6.964,0,0,0,13,48.88Z"></path><path d="M19.59,23.41A1.983,1.983,0,0,0,21,24V20a2.006,2.006,0,0,0-2,2A1.983,1.983,0,0,0,19.59,23.41Z"></path><path d="M41,25V17a1,1,0,0,0-1-1H24a1,1,0,0,0-1,1v8a9,9,0,0,0,18,0Zm-5-7a2,2,0,1,1-2,2A2,2,0,0,1,36,18Zm-8,0a2,2,0,1,1-2,2A2,2,0,0,1,28,18Zm6,12a2.974,2.974,0,0,1-2-.78A2.974,2.974,0,0,1,30,30H26a1,1,0,0,1-1-1V27a3.009,3.009,0,0,1,3-3h8a3.009,3.009,0,0,1,3,3v2a1,1,0,0,1-1,1Z"></path></g></svg>