<svg xmlns="http://www.w3.org/2000/svg" viewBox="0 0 64 64" x="0px" y="0px"><title>Communication_1</title><g data-name="Communication"><path d="M17.5,24A2.5,2.5,0,0,1,15,21.5H13a4.5,4.5,0,0,0,9,0H20A2.5,2.5,0,0,1,17.5,24Z"></path><path d="M58,40a9.01,9.01,0,0,1-9,9,1,1,0,0,0-1,1V60H26V51h5V49H17a5.006,5.006,0,0,1-5-5V36a1,1,0,0,0-1-1H6.385l6.539-19.748A17.9,17.9,0,0,1,29.392,4H42V2H29.392A19.914,19.914,0,0,0,11.051,14.555l-7,21.131A1,1,0,0,0,5,37h5v7a7.009,7.009,0,0,0,7,7h7V61a1,1,0,0,0,1,1H49a1,1,0,0,0,1-1V50.955A11.015,11.015,0,0,0,60,40V24H58Z"></path><path d="M61,6H37a1,1,0,0,0-1,1V21a1,1,0,0,0,1,1H61a1,1,0,0,0,1-1V7A1,1,0,0,0,61,6ZM38,8.285l6.332,3.969L38,18.586Zm8.07,5.059,2.4,1.5a1,1,0,0,0,1.07-.006l2.374-1.521L58.592,20H39.414Zm7.567-1.128L60,8.14V18.58ZM56.512,8l-7.518,4.816L41.312,8Z"></path><rect x="30" y="9" width="4" height="2"></rect><rect x="28" y="13" width="6" height="2"></rect><rect x="26" y="17" width="8" height="2"></rect><rect x="26" y="9" width="2" height="2"></rect><rect x="24" y="13" width="2" height="2"></rect><rect x="22" y="17" width="2" height="2"></rect></g></svg>