<svg xmlns="http://www.w3.org/2000/svg" viewBox="0 0 64 64" x="0px" y="0px"><title>Ram</title><g><path d="M28,4H26a2,2,0,0,0-2-2H6A2,2,0,0,0,4,4V60a2,2,0,0,0,2,2H24a2,2,0,0,0,2-2h2a2,2,0,0,0,2-2V6A2,2,0,0,0,28,4ZM19.719,4l-.5,2H10.781l-.5-2ZM10.281,60l.5-2h8.438l.5,2Zm11.5,0-.811-3.243A1,1,0,0,0,20,56H10a1,1,0,0,0-.97.757L8.219,60H6V4H8.219L9.03,7.243A1,1,0,0,0,10,8H20a1,1,0,0,0,.97-.757L21.781,4H24V60ZM26,58V6h2V58Z"></path><path d="M20,14H10a1,1,0,0,0-1,1v4a1,1,0,0,0,1,1H20a1,1,0,0,0,1-1V15A1,1,0,0,0,20,14Zm-1,4H11V16h8Z"></path><path d="M20,24H10a1,1,0,0,0-1,1v4a1,1,0,0,0,1,1H20a1,1,0,0,0,1-1V25A1,1,0,0,0,20,24Zm-1,4H11V26h8Z"></path><path d="M20,44H10a1,1,0,0,0-1,1v4a1,1,0,0,0,1,1H20a1,1,0,0,0,1-1V45A1,1,0,0,0,20,44Zm-1,4H11V46h8Z"></path><path d="M20,34H10a1,1,0,0,0-1,1v4a1,1,0,0,0,1,1H20a1,1,0,0,0,1-1V35A1,1,0,0,0,20,34Zm-1,4H11V36h8Z"></path><path d="M58,4H56a2,2,0,0,0-2-2H36a2,2,0,0,0-2,2V60a2,2,0,0,0,2,2H54a2,2,0,0,0,2-2h2a2,2,0,0,0,2-2V6A2,2,0,0,0,58,4ZM49.719,4l-.5,2H40.781l-.5-2ZM40.281,60l.5-2h8.438l.5,2Zm11.5,0-.811-3.243A1,1,0,0,0,50,56H40a1,1,0,0,0-.97.757L38.219,60H36V4h2.219l.811,3.243A1,1,0,0,0,40,8H50a1,1,0,0,0,.97-.757L51.781,4H54V60ZM56,58V6h2V58Z"></path><path d="M50,14H40a1,1,0,0,0-1,1v4a1,1,0,0,0,1,1H50a1,1,0,0,0,1-1V15A1,1,0,0,0,50,14Zm-1,4H41V16h8Z"></path><path d="M50,24H40a1,1,0,0,0-1,1v4a1,1,0,0,0,1,1H50a1,1,0,0,0,1-1V25A1,1,0,0,0,50,24Zm-1,4H41V26h8Z"></path><path d="M50,44H40a1,1,0,0,0-1,1v4a1,1,0,0,0,1,1H50a1,1,0,0,0,1-1V45A1,1,0,0,0,50,44Zm-1,4H41V46h8Z"></path><path d="M50,34H40a1,1,0,0,0-1,1v4a1,1,0,0,0,1,1H50a1,1,0,0,0,1-1V35A1,1,0,0,0,50,34Zm-1,4H41V36h8Z"></path></g></svg>