<svg xmlns="http://www.w3.org/2000/svg" viewBox="0 0 64 64" x="0px" y="0px"><g><rect x="29" y="2" width="2" height="2"></rect><rect x="22.012" y="2.92" width="2" height="2" transform="translate(-0.23 6.089) rotate(-15)"></rect><rect x="15.5" y="5.617" width="2" height="2" transform="translate(-1.098 9.137) rotate(-30.002)"></rect><rect x="9.908" y="9.908" width="2" height="2" transform="translate(-4.518 10.908) rotate(-45)"></rect><rect x="5.617" y="15.5" width="2" height="2" transform="translate(-10.981 13.982) rotate(-60.005)"></rect><rect x="2.92" y="22.012" width="2" height="2" transform="translate(-19.322 20.842) rotate(-75)"></rect><rect x="2" y="29" width="2" height="2"></rect><rect x="2.92" y="35.988" width="2" height="2" transform="translate(-9.44 2.275) rotate(-15)"></rect><rect x="5.617" y="42.5" width="2" height="2" transform="translate(-20.86 9.134) rotate(-29.995)"></rect><rect x="9.908" y="48.092" width="2" height="2" transform="translate(-31.518 22.092) rotate(-45)"></rect><rect x="15.5" y="52.382" width="2" height="2" transform="translate(-37.982 40.986) rotate(-60.005)"></rect><rect x="22.012" y="55.08" width="2" height="2" transform="translate(-37.113 63.793) rotate(-75)"></rect><rect x="29" y="56" width="2" height="2"></rect><rect x="35.988" y="55.08" width="2" height="2" transform="translate(-13.254 11.484) rotate(-15)"></rect><rect x="42.5" y="52.383" width="2" height="2" transform="translate(-20.864 28.904) rotate(-30.002)"></rect><rect x="52.383" y="42.5" width="2" height="2" transform="translate(-10.978 67.987) rotate(-60.005)"></rect><rect x="55.08" y="35.988" width="2" height="2" transform="translate(5.838 81.584) rotate(-75)"></rect><rect x="56" y="29" width="2" height="2"></rect><rect x="55.08" y="22.012" width="2" height="2" transform="translate(-4.045 15.299) rotate(-15)"></rect><rect x="52.383" y="15.5" width="2" height="2" transform="translate(-1.099 28.897) rotate(-29.995)"></rect><rect x="48.092" y="9.908" width="2" height="2" transform="translate(6.665 37.908) rotate(-45)"></rect><rect x="42.5" y="5.617" width="2" height="2" transform="translate(16.022 40.983) rotate(-60.005)"></rect><rect x="35.988" y="2.92" width="2" height="2" transform="translate(23.629 38.633) rotate(-75)"></rect><path d="M34.279,42l.577-1.73-1.563-1.563A1,1,0,0,1,33,38V37h2v.586l1.307,1.307L39,38.219V33h2v1.586l1-1V29.3L40.845,27.57,40,28.414V29H38V28a1,1,0,0,1,.293-.707L40,25.586V22.414L38.586,21H36.414L35,22.414V23H33V22a1,1,0,0,1,.293-.707l1.563-1.563L34.279,18H32.414L31,19.414V40.586L32.414,42ZM37,36H35V34.414l-.707-.707,1.414-1.414,1,1A1,1,0,0,1,37,34ZM33,25h2v2.586l1.707,1.707-1.414,1.414-2-2A1,1,0,0,1,33,28Z"></path><path d="M19,33h2v5.219l2.693.674L25,37.586V37h2v1a1,1,0,0,1-.293.707L25.144,40.27,25.721,42h1.865L29,40.586V19.414L27.586,18H25.721l-.577,1.73,1.563,1.563A1,1,0,0,1,27,22v1H25v-.586L23.586,21H21.414L20,22.414v3.172l1.707,1.707A1,1,0,0,1,22,28v1H20v-.586l-.845-.844L18,29.3v4.283l1,1Zm6-5.414V25h2v3a1,1,0,0,1-.293.707l-2,2-1.414-1.414ZM23,34a1,1,0,0,1,.293-.707l1-1,1.414,1.414L25,34.414V36H23Z"></path><path d="M59.483,55.247,48.948,44.7A24.158,24.158,0,0,1,44.7,48.948L55.247,59.482a3.067,3.067,0,0,0,4.236,0A3,3,0,0,0,59.483,55.247Z"></path><path d="M30,48A18,18,0,1,0,12,30,18.021,18.021,0,0,0,30,48ZM16.168,28.445,18,25.7V22a1,1,0,0,1,.293-.707l2-2A1,1,0,0,1,21,19h2.279l.773-2.316A1,1,0,0,1,25,16h3a1,1,0,0,1,.707.293L30,17.586l1.293-1.293A1,1,0,0,1,32,16h3a1,1,0,0,1,.948.684L36.721,19H39a1,1,0,0,1,.707.293l2,2A1,1,0,0,1,42,22v3.7l1.832,2.748A1.006,1.006,0,0,1,44,29v5a1,1,0,0,1-.293.707L41,37.414V39a1,1,0,0,1-.758.97l-3.467.867-.827,2.479A1,1,0,0,1,35,44H32a1,1,0,0,1-.707-.293L30,42.414l-1.293,1.293A1,1,0,0,1,28,44H25a1,1,0,0,1-.948-.684l-.827-2.479-3.467-.867A1,1,0,0,1,19,39V37.414l-2.707-2.707A1,1,0,0,1,16,34V29A1.006,1.006,0,0,1,16.168,28.445Z"></path><path d="M30,52A22,22,0,1,0,8,30,22.025,22.025,0,0,0,30,52Zm0-42A20,20,0,1,1,10,30,20.023,20.023,0,0,1,30,10Z"></path></g></svg>