<svg xmlns="http://www.w3.org/2000/svg" viewBox="0 0 64 64" x="0px" y="0px"><g><path d="M61.2,29.02l-2.737-.548a11.879,11.879,0,0,0-.862-2.079l1.549-2.324a1,1,0,0,0-.125-1.261l-2.829-2.829a1,1,0,0,0-1.261-.125L52.608,21.4a12.073,12.073,0,0,0-2.08-.861L49.98,17.8A1,1,0,0,0,49,17H45a1,1,0,0,0-.98.8l-.548,2.737a12.073,12.073,0,0,0-2.08.861l-2.323-1.548a1,1,0,0,0-1.261.125l-2.829,2.829a1,1,0,0,0-.125,1.261L36.4,26.393a11.879,11.879,0,0,0-.862,2.079L32.8,29.02A1,1,0,0,0,32,30v4a1,1,0,0,0,.8.98l2.737.548a11.879,11.879,0,0,0,.862,2.079l-1.549,2.324a1,1,0,0,0,.125,1.261l2.829,2.829a1,1,0,0,0,1.261.125L41.392,42.6a12.073,12.073,0,0,0,2.08.861L44.02,46.2A1,1,0,0,0,45,47h4a1,1,0,0,0,.98-.8l.548-2.737a12.073,12.073,0,0,0,2.08-.861l2.323,1.548a1,1,0,0,0,1.261-.125l2.829-2.829a1,1,0,0,0,.125-1.261L57.6,37.607a11.879,11.879,0,0,0,.862-2.079L61.2,34.98A1,1,0,0,0,62,34V30A1,1,0,0,0,61.2,29.02ZM60,33.181l-2.536.507a1,1,0,0,0-.774.738,9.873,9.873,0,0,1-1.123,2.71,1,1,0,0,0,.025,1.07l1.435,2.151-1.669,1.669-2.152-1.433a1,1,0,0,0-1.07-.026,9.9,9.9,0,0,1-2.71,1.122,1,1,0,0,0-.738.775L48.18,45H45.82l-.508-2.536a1,1,0,0,0-.738-.775,9.9,9.9,0,0,1-2.71-1.122,1.008,1.008,0,0,0-1.07.026l-2.152,1.433-1.669-1.669,1.435-2.151a1,1,0,0,0,.025-1.07,9.873,9.873,0,0,1-1.123-2.71,1,1,0,0,0-.774-.738L34,33.181V30.819l2.536-.507a1,1,0,0,0,.774-.738,9.873,9.873,0,0,1,1.123-2.71,1,1,0,0,0-.025-1.07l-1.435-2.151,1.669-1.669,2.152,1.433a1,1,0,0,0,1.07.026,9.9,9.9,0,0,1,2.71-1.122,1,1,0,0,0,.738-.775L45.82,19h2.36l.508,2.536a1,1,0,0,0,.738.775,9.9,9.9,0,0,1,2.71,1.122,1,1,0,0,0,1.07-.026l2.152-1.433,1.669,1.669-1.435,2.151a1,1,0,0,0-.025,1.07,9.873,9.873,0,0,1,1.123,2.71,1,1,0,0,0,.774.738L60,30.819Z"></path><path d="M47,25a7,7,0,1,0,7,7A7.008,7.008,0,0,0,47,25Zm0,12a5,5,0,1,1,5-5A5.006,5.006,0,0,1,47,37Z"></path><path d="M46,57a3,3,0,0,1-3,3H7a3,3,0,0,1-3-3V22H34V20H4V7A3,3,0,0,1,7,4H43a3,3,0,0,1,3,3v8h2V7a5.006,5.006,0,0,0-5-5H7A5.006,5.006,0,0,0,2,7V57a5.006,5.006,0,0,0,5,5H43a5.006,5.006,0,0,0,5-5V49H46Z"></path><path d="M8,6A2,2,0,0,0,6,8v8a2,2,0,0,0,2,2H42a2,2,0,0,0,2-2V8a2,2,0,0,0-2-2ZM8,16V8H42v8Z"></path><rect x="24" y="11" width="2" height="2"></rect><rect x="28" y="11" width="2" height="2"></rect><rect x="20" y="11" width="2" height="2"></rect><polygon points="12 37 14 37 14 35 16 35 16 33 14 33 14 31 12 31 12 33 10 33 10 35 12 35 12 37"></polygon><polygon points="26.414 31.172 25 32.586 23.586 31.172 22.172 32.586 23.586 34 22.172 35.414 23.586 36.828 25 35.414 26.414 36.828 27.828 35.414 26.414 34 27.828 32.586 26.414 31.172"></polygon><path d="M30,37v3H20V28H30V26H8a2,2,0,0,0-2,2V54a2,2,0,0,0,2,2H42a2,2,0,0,0,2-2V48H42v6H32V37Zm0,5V54H20V42ZM18,28V40H8V28ZM8,42H18V54H8Z"></path><rect x="10" y="47" width="6" height="2"></rect><rect x="22" y="47" width="6" height="2"></rect><rect x="24" y="44" width="2" height="2"></rect><rect x="24" y="50" width="2" height="2"></rect></g></svg>