<svg xmlns="http://www.w3.org/2000/svg" viewBox="0 0 64 64" x="0px" y="0px"><g data-name="Leak-Pipe-Plumbering-Home Repair-Construction"><path d="M37,59a2,2,0,0,0,4,0c0-1.1-2-4-2-4S37,57.9,37,59Z"></path><path d="M38,49c0-1.1-2-4-2-4s-2,2.9-2,4a2,2,0,0,0,4,0Z"></path><path d="M29,56a2,2,0,0,0,4,0c0-1.1-2-4-2-4S29,54.9,29,56Z"></path><polygon points="33 39.41 33 40 35 40 35 37.41 33 39.41"></polygon><path d="M44,40V28H39a1,1,0,0,1-1-1V22H26v5a1,1,0,0,1-1,1H20V40H31V39a1.033,1.033,0,0,1,.29-.71l4-4a1,1,0,0,1,1.09-.21A.987.987,0,0,1,37,35v5ZM24,38H22V36h2Zm6,0H26V36h4Z"></path><rect x="46" y="25" width="6" height="18" rx="1"></rect><path d="M60,40V28H54V40ZM56,30h2v2H56Z"></path><rect x="12" y="25" width="6" height="18" rx="1"></rect><path d="M10,40V28H4V40ZM6,30H8v2H6Z"></path><rect x="23" y="14" width="18" height="6" rx="1"></rect><rect x="26" y="4" width="12" height="8"></rect></g></svg>