<svg xmlns="http://www.w3.org/2000/svg" data-name="Layer 38" viewBox="0 0 64 64" x="0px" y="0px"><g><circle cx="22" cy="11" r="4"></circle><circle cx="22" cy="39" r="4"></circle><circle cx="42" cy="25" r="4"></circle><circle cx="42" cy="53" r="4"></circle><path d="M60,60V4H4V60ZM8,10h8.09a5.993,5.993,0,0,1,11.82,0H56v2H27.91a5.993,5.993,0,0,1-11.82,0H8ZM8,24H36.09a5.993,5.993,0,0,1,11.82,0H56v2H47.91a5.993,5.993,0,0,1-11.82,0H8ZM8,38h8.09a5.993,5.993,0,0,1,11.82,0H56v2H27.91a5.993,5.993,0,0,1-11.82,0H8ZM8,52H36.09a5.993,5.993,0,0,1,11.82,0H56v2H47.91a5.993,5.993,0,0,1-11.82,0H8Z"></path></g></svg>