<svg xmlns="http://www.w3.org/2000/svg" viewBox="0 0 64 64" x="0px" y="0px"><g><path d="M21,39a1.985,1.985,0,0,0,1.5-.69,1.963,1.963,0,0,0,2.5.413A1.987,1.987,0,0,0,26,39H38a1.987,1.987,0,0,0,1-.277,1.963,1.963,0,0,0,2.5-.413,2,2,0,1,0,.47-3.017A1.877,1.877,0,0,0,42,35a2,2,0,0,0-4,0,1.987,1.987,0,0,0-1.12.343,1.987,1.987,0,0,0-3.76,0,2,2,0,0,0-2.24,0,1.987,1.987,0,0,0-3.76,0A1.987,1.987,0,0,0,26,35a2,2,0,0,0-4,0,1.877,1.877,0,0,0,.03.293A2,2,0,1,0,21,39Z"></path><rect x="4" y="56" width="56" height="4"></rect><path d="M60,42H39v5a1,1,0,0,1-1,1H26a1,1,0,0,1-1-1V42H4V54H60Z"></path><rect x="27" y="42" width="10" height="4"></rect><polygon points="30.721 24 33.279 24 33.613 23 30.387 23 30.721 24"></polygon><path d="M37.618,23h2.939L38.55,17.649a.993.993,0,0,0-.55-.56V22a.982.982,0,0,1-.469.826Z"></path><circle cx="32" cy="9" r="1"></circle><path d="M25.45,17.648,23.443,23h2.939l.087-.174A.982.982,0,0,1,26,22V17.089A.994.994,0,0,0,25.45,17.648Z"></path><path d="M36,9.185a2.951,2.951,0,0,0-.511-1.676C33.59,4.733,32.376,4,32,4s-1.59.733-3.488,3.508A2.95,2.95,0,0,0,28,9.185V21h3V15h2v6h3ZM32,12a3,3,0,1,1,3-3A3,3,0,0,1,32,12Z"></path><rect x="47" y="10" width="2" height="8"></rect><rect x="47" y="20" width="2" height="2"></rect><rect x="53" y="16" width="2" height="6"></rect><rect x="53" y="24" width="2" height="2"></rect><rect x="58" y="21" width="2" height="6"></rect><rect x="58" y="29" width="2" height="2"></rect><rect x="47" y="24" width="2" height="2"></rect><rect x="15" y="10" width="2" height="8"></rect><rect x="15" y="20" width="2" height="2"></rect><rect x="9" y="16" width="2" height="6"></rect><rect x="9" y="24" width="2" height="2"></rect><rect x="4" y="21" width="2" height="6"></rect><rect x="4" y="29" width="2" height="2"></rect><rect x="15" y="24" width="2" height="2"></rect><path d="M32,26a2,2,0,0,0-2,2c0,1.5,1.252,4,2,4s2-2.5,2-4A2,2,0,0,0,32,26Z"></path></g></svg>