<svg xmlns="http://www.w3.org/2000/svg" viewBox="0 0 64 64" x="0px" y="0px"><path d="M61,36H59V25a3.009,3.009,0,0,0-3-3H44a3.009,3.009,0,0,0-3,3v1H37V24a1,1,0,0,0,1-1V20.82A3.01,3.01,0,0,0,40,18V12a3.009,3.009,0,0,0-3-3H31a3.009,3.009,0,0,0-3,3v6a3.01,3.01,0,0,0,2,2.82V23a1,1,0,0,0,1,1v2H27a6.955,6.955,0,0,0-4.55,1.69l-3.06-7.86A2.848,2.848,0,0,0,16.72,18H14V4h5V6H17a1,1,0,0,0-1,1v8a1,1,0,0,0,1,1h6a1,1,0,0,0,1-1V7a1,1,0,0,0-1-1H21V4h1V2H4V4h8V18H5.72a2.86,2.86,0,0,0-2.66,3.9L8.54,36H3a1,1,0,0,0-1,1v4a1,1,0,0,0,1,1H7V54a.967.967,0,0,0,.17.55l.25.39a4,4,0,1,0,5.16,0l.25-.39A.967.967,0,0,0,13,54V52h6v2a.967.967,0,0,0,.17.55l.25.39a4,4,0,1,0,5.16,0l.25-.39A.967.967,0,0,0,25,54V52H41v2a.967.967,0,0,0,.17.55l.25.39a4,4,0,1,0,5.16,0l.25-.39A.967.967,0,0,0,47,54V52h6v2a.967.967,0,0,0,.17.55l.25.39a4,4,0,1,0,5.16,0l.25-.39A.967.967,0,0,0,59,54V42h2a1,1,0,0,0,1-1V37A1,1,0,0,0,61,36ZM22,8v6H18V8ZM56,24a1,1,0,0,1,1,1V36H47V25a3,3,0,0,0-.18-1ZM43,25a1,1,0,0,1,2,0V36H43ZM30,12a1,1,0,0,1,1-1h6a1,1,0,0,1,1,1v3H30Zm0,6V17h8v1a1,1,0,0,1-1,1H31A1,1,0,0,1,30,18Zm2,4V21h4v1Zm3,2v2H33V24ZM22,33a5,5,0,0,1,5-5H41v8H22ZM16.72,20a.87.87,0,0,1,.81.55l3.45,8.89a7.046,7.046,0,0,0-.9,2.56H13.13L8.46,20ZM4.92,21.18a.846.846,0,0,1,.09-.8.9.9,0,0,1,1.52.17l4.98,12.81a.994.994,0,0,0,.93.64H20v2H10.68ZM10,60a1.98,1.98,0,0,1-1.44-3.36l.61.91a.99.99,0,0,0,1.66,0l.61-.91A1.98,1.98,0,0,1,10,60ZM9,53.7V42h2V53.7l-1,1.5ZM22,60a1.98,1.98,0,0,1-1.44-3.36l.61.91a.99.99,0,0,0,1.66,0l.61-.91A1.98,1.98,0,0,1,22,60Zm-1-6.3V52h2v1.7l-1,1.5ZM41,50H13V48H41ZM13,46V42h6v4Zm8,0V42h2v4Zm20,0H25V42H41Zm3,14a1.98,1.98,0,0,1-1.44-3.36l.61.91a.99.99,0,0,0,1.66,0l.61-.91A1.98,1.98,0,0,1,44,60Zm-1-6.3V42h2V53.7l-1,1.5ZM53,50H47V48h6Zm0-4H47V42h6Zm3,14a1.98,1.98,0,0,1-1.44-3.36l.61.91a.99.99,0,0,0,1.66,0l.61-.91A1.98,1.98,0,0,1,56,60Zm-1-6.3V42h2V53.7l-1,1.5ZM60,40H4V38H60Z"></path></svg>