<svg xmlns="http://www.w3.org/2000/svg" viewBox="0 0 64 64" x="0px" y="0px"><g data-name="Fishing-Money"><path d="M30.71,29.71a1.008,1.008,0,0,1-1.42,0L28,28.41V32a2.984,2.984,0,0,0,.77,2H26.41A5.106,5.106,0,0,1,26,32V26a.987.987,0,0,1,.62-.92,1,1,0,0,1,1.09.21l3,3A1.008,1.008,0,0,1,30.71,29.71Z"></path><rect x="34" y="26" width="2" height="6"></rect><rect x="34" y="3" width="2" height="9"></rect><rect x="33" y="18" width="4" height="2"></rect><path d="M33,23a1,1,0,0,0,1,1h2a1,1,0,0,0,1-1V22H33Z"></path><path d="M34,14a1,1,0,0,0-1,1v1h4V15a1,1,0,0,0-1-1Z"></path><path d="M32,55a8,8,0,1,0-8-8A8.009,8.009,0,0,0,32,55Zm0-7a2.993,2.993,0,0,1-1-5.816V41h2v1.184A3,3,0,0,1,35,45H33a1,1,0,1,0-1,1,2.993,2.993,0,0,1,1,5.816V53H31V51.816A3,3,0,0,1,29,49h2a1,1,0,1,0,1-1Z"></path><path d="M31,37a5,5,0,0,1-4.576-3H4V60H60V34H28.78A2.985,2.985,0,0,0,31,35a1,1,0,0,1,0,2ZM23,57H12a1,1,0,0,1-.979-.8A4.233,4.233,0,0,0,7.8,52.98a.977.977,0,0,1-.094-.039.956.956,0,0,1-.18-.077.921.921,0,0,1-.288-.239.99.99,0,0,1-.108-.159,1.023,1.023,0,0,1-.07-.171.95.95,0,0,1-.041-.2c0-.033-.019-.062-.019-.1V42c0-.034.016-.063.019-.1a.95.95,0,0,1,.041-.2,1.023,1.023,0,0,1,.07-.171,1,1,0,0,1,.107-.158.977.977,0,0,1,.131-.134.934.934,0,0,1,.157-.1.924.924,0,0,1,.183-.078c.033-.01.058-.032.092-.039a4.23,4.23,0,0,0,3.22-3.22.987.987,0,0,1,.98-.781V37H23v2H12.75A6.355,6.355,0,0,1,9,42.75v8.5A6.353,6.353,0,0,1,12.75,55H23ZM41,37H52v.019a.988.988,0,0,1,.98.781,4.23,4.23,0,0,0,3.22,3.22.985.985,0,0,1,.78.98H57V52h-.02a.985.985,0,0,1-.78.98,4.23,4.23,0,0,0-3.22,3.22A1,1,0,0,1,52,57H41V55H51.25A6.355,6.355,0,0,1,55,51.25v-8.5A6.355,6.355,0,0,1,51.25,39H41Zm1,10A10,10,0,1,1,32,37,10.011,10.011,0,0,1,42,47Z"></path></g></svg>