<svg xmlns="http://www.w3.org/2000/svg" viewBox="0 0 64 64" x="0px" y="0px"><g data-name="Resume"><path d="M49,14H42V11a1,1,0,0,0-1-1H35.38l-.241-1.325.81-.27A3,3,0,0,0,38,5.559V5.4a3.019,3.019,0,0,0-2.217-2.9,14.439,14.439,0,0,0-7.566,0A3.019,3.019,0,0,0,26,5.4v.156A3,3,0,0,0,28.052,8.4l.809.269L28.62,10H23a1,1,0,0,0-1,1v3H15a3,3,0,0,0-3,3V59a3,3,0,0,0,3,3H49a3,3,0,0,0,3-3V17A3,3,0,0,0,49,14Zm-9-2v6H36.834l-1.091-6Zm-5.2,6H29.2l1.091-6h3.422ZM30.316,7.051l-1.632-.544A1,1,0,0,1,28,5.559V5.4a1,1,0,0,1,.749-.969,12.393,12.393,0,0,1,6.5,0A1,1,0,0,1,36,5.4v.156a1,1,0,0,1-.684.948l-1.632.544a1,1,0,0,0-.667,1.128L33.348,10H30.653l.331-1.821A1,1,0,0,0,30.316,7.051ZM24,12h4.256l-1.091,6H24ZM50,59a1,1,0,0,1-1,1H15a1,1,0,0,1-1-1V17a1,1,0,0,1,1-1h7v3a1,1,0,0,0,1,1H41a1,1,0,0,0,1-1V16h7a1,1,0,0,1,1,1Z"></path><rect x="18" y="50" width="6" height="2"></rect><rect x="26" y="50" width="20" height="2"></rect><rect x="18" y="54" width="28" height="2"></rect><path d="M24.186,40.118A6.946,6.946,0,0,0,23,44v3a1,1,0,0,0,1,1H40a1,1,0,0,0,1-1V44a6.946,6.946,0,0,0-1.186-3.882A4.985,4.985,0,0,0,39,31.42V29a7.008,7.008,0,0,0-7-7,7.008,7.008,0,0,0-7,7v2.422a4.984,4.984,0,0,0-.814,8.7ZM39,46H25V44a4.991,4.991,0,0,1,4.624-4.962l1.669,1.669a1,1,0,0,0,1.414,0l1.669-1.669A4.991,4.991,0,0,1,39,44ZM32,35a3,3,0,0,1-3-3V31h.343a4.966,4.966,0,0,0,3.535-1.464L33,29.414l.707.707A2.981,2.981,0,0,0,35,30.885V32A3,3,0,0,1,32,35Zm0,2a5,5,0,0,0,1-.1v.687l-1,1-1-1V36.9A5,5,0,0,0,32,37Zm8-1a2.987,2.987,0,0,1-1.54,2.613A6.977,6.977,0,0,0,35,37.071v-1.1a4.992,4.992,0,0,0,1.9-2.96,2.742,2.742,0,0,1,.858.085A2.987,2.987,0,0,1,40,36ZM27,29a5.009,5.009,0,0,1,5-5,5.006,5.006,0,0,1,5,5v1a1,1,0,0,0-1-1h-.172a1.009,1.009,0,0,1-.707-.293l-1.414-1.414a1,1,0,0,0-1.414,0l-.829.829A3.02,3.02,0,0,1,29.343,29H28a1,1,0,0,0-1,1Zm-.729,4.093a2.682,2.682,0,0,1,.831-.086A4.987,4.987,0,0,0,29,35.974v1.1a6.977,6.977,0,0,0-3.46,1.542,2.992,2.992,0,0,1,.731-5.52Z"></path></g></svg>