<svg xmlns="http://www.w3.org/2000/svg" viewBox="0 0 32 32" x="0px" y="0px"><title>File Up Arrow_5</title><g data-name="File Up Arrow"><path d="M27.99,7.945a.941.941,0,0,0-.04-.223.775.775,0,0,0-.027-.094,1,1,0,0,0-.164-.279l-6-7a.978.978,0,0,0-.306-.231c-.03-.015-.059-.026-.09-.039A.99.99,0,0,0,21.045.01C21.03.009,21.016,0,21,0H5A1,1,0,0,0,4,1V31a1,1,0,0,0,1,1H27a1,1,0,0,0,1-1V8C28,7.981,27.991,7.964,27.99,7.945ZM22,3.7,24.826,7H22ZM6,30V2H20V8a1,1,0,0,0,1,1h5V30Z"></path><path d="M18.122,19.536l1.414-1.414-2.829-2.829a1,1,0,0,0-1.414,0l-2.829,2.829,1.414,1.414L15,18.414V24h2V18.414Z"></path><path d="M21,11H11a1,1,0,0,0-1,1V22a1,1,0,0,0,1,1h3V21H12V13h8v8H18v2h3a1,1,0,0,0,1-1V12A1,1,0,0,0,21,11Z"></path></g></svg>