<svg xmlns="http://www.w3.org/2000/svg" viewBox="0 0 64 64" x="0px" y="0px"><g data-name="World History"><path d="M58,2H12A7.009,7.009,0,0,0,5,9V55a7.009,7.009,0,0,0,7,7H58a1,1,0,0,0,1-1V3A1,1,0,0,0,58,2ZM57,48H17V4H57ZM13,4h2V48H13ZM7,9a5.009,5.009,0,0,1,4-4.9V17.08a6.978,6.978,0,0,0-4,2.031ZM7,24a5.009,5.009,0,0,1,4-4.9V34.08a6.978,6.978,0,0,0-4,2.031Zm4,12.1V48.08a6.988,6.988,0,0,0-4,2.025V41A5.009,5.009,0,0,1,11,36.1ZM12,60a5,5,0,0,1,0-10H57v2H13a3,3,0,0,0,0,6H57v2Zm45-6v2H13a1,1,0,0,1,0-2Z"></path><path d="M24.738,28.5l-1.73,1a14.955,14.955,0,0,0,1.7,2.373l-1.439,1.438,1.414,1.415,1.441-1.441A15.053,15.053,0,0,0,35,36.966V41H30v2H42V41H37V36.949a14.995,14.995,0,0,0,10.3-24.83l1.432-1.431L47.312,9.273,45.875,10.71A15.245,15.245,0,0,0,43.73,9.144L42.7,10.856a13.436,13.436,0,0,1,1.748,1.283l-1.413,1.413A10.992,10.992,0,0,0,27.552,29.034l-1.42,1.42A13,13,0,0,1,24.738,28.5ZM49,22a12.99,12.99,0,0,1-21.452,9.866l1.418-1.418A10.992,10.992,0,0,0,44.448,14.966l1.413-1.413A12.885,12.885,0,0,1,49,22ZM38,30.768V29.414l.707-.707A1,1,0,0,0,39,28V27h.649l2.239,1.791A8.965,8.965,0,0,1,38,30.768ZM42,18V16.236l.318-.636A8.97,8.97,0,0,1,45,22H42.162L40,21.279V19.618l1.447-.723A1,1,0,0,0,42,18Zm-1.291-3.655-.6,1.208A1,1,0,0,0,40,16v1.382l-1.447.723A1,1,0,0,0,38,19v3a1,1,0,0,0,.684.948l3,1A1,1,0,0,0,42,24h2.768a8.942,8.942,0,0,1-1.522,3.315l-2.621-2.1A1,1,0,0,0,40,25H38a1,1,0,0,0-1,1v1.586l-.707.707A1,1,0,0,0,36,29v2a8.952,8.952,0,0,1-6.063-2.368l.669.287A.985.985,0,0,0,31,29h3a1,1,0,0,0,1-1V26a1,1,0,0,0-.553-.895L33,24.382v-.847l2.555-1.7A1,1,0,0,0,36,21V19a1,1,0,0,0-.293-.707L35,17.586V15a1,1,0,0,0-.2-.6l-.864-1.152a8.856,8.856,0,0,1,6.773,1.1Zm-8.736-.382L33,15.333V18a1,1,0,0,0,.293.707l.707.707v1.051l-2.555,1.7A1,1,0,0,0,31,23v2a1,1,0,0,0,.553.895L33,26.618V27h-1.8L27.71,25.5a8.985,8.985,0,0,1,4.263-11.54Z"></path></g></svg>