<svg xmlns="http://www.w3.org/2000/svg" viewBox="0 0 64 64" x="0px" y="0px"><g><path d="M41.553,29.263A6.98,6.98,0,0,0,43,25V13a11.042,11.042,0,0,0-3.492-8.035,10.922,10.922,0,0,0-8.266-2.943A11.219,11.219,0,0,0,21,13.35V25a6.98,6.98,0,0,0,1.447,4.263A13.005,13.005,0,0,0,15,41V61a1,1,0,0,0,1,1H48a1,1,0,0,0,1-1V41A13.005,13.005,0,0,0,41.553,29.263ZM23,25V13.35a9.214,9.214,0,0,1,8.376-9.332,8.926,8.926,0,0,1,6.766,2.408A9.037,9.037,0,0,1,41,13V25a4.987,4.987,0,0,1-1.437,3.508A12.913,12.913,0,0,0,37,28.051V25.576A5,5,0,0,0,40,21V13a1,1,0,0,0-1-1H38V10H36v2H31V9H29v3H28V10H26v2H25a1,1,0,0,0-1,1v8a5,5,0,0,0,3,4.576v2.475a12.913,12.913,0,0,0-2.563.457A4.987,4.987,0,0,1,23,25ZM38,14v7a3,3,0,0,1-3,3H29a3,3,0,0,1-3-3V14ZM35,26v2.649L32,32.4l-3-3.75V26Zm-6.927,4.693,2.5,3.126-2.13,1.6-1.32-3.3ZM32,35.25l2.763,2.071L32,43.538l-2.763-6.217Zm3.556.167-2.13-1.6,2.5-3.126.949,1.424ZM47,60H43V50.447a8.417,8.417,0,0,0,0-10.894V38H41v2a1,1,0,0,0,.4.8c.9.679,1.6,2.815,1.6,4.2s-.7,3.522-1.6,4.2a1,1,0,0,0-.4.8V60H23V50a1,1,0,0,0-.4-.8c-.9-.679-1.6-2.815-1.6-4.2s.7-3.522,1.6-4.2A1,1,0,0,0,23,40V38H21v1.553a8.417,8.417,0,0,0,0,10.894V60H17V41a11.013,11.013,0,0,1,9-10.81l-.837,1.255a1,1,0,0,0-.1.927l6.015,14.034a1,1,0,0,0,1.828,0l6.015-14.034a1,1,0,0,0-.1-.927l-.837-1.255A11.013,11.013,0,0,1,47,41Z"></path><path d="M34.29,16.71l.149.12a.782.782,0,0,0,.181.09.6.6,0,0,0,.19.06A1.213,1.213,0,0,0,35,17a.99.99,0,0,0,1-1,1,1,0,0,0-.08-.38,1.155,1.155,0,0,0-.21-.33,1.035,1.035,0,0,0-.9-.27.6.6,0,0,0-.19.06.782.782,0,0,0-.181.09l-.149.12a1.155,1.155,0,0,0-.21.33.943.943,0,0,0,0,.76A1.155,1.155,0,0,0,34.29,16.71Z"></path><path d="M28.29,16.71a1.032,1.032,0,0,0,.33.21A1,1,0,0,0,29,17a1.052,1.052,0,0,0,.71-.29,1.155,1.155,0,0,0,.21-.33A1,1,0,0,0,30,16a1.234,1.234,0,0,0-.021-.2.6.6,0,0,0-.059-.18.8.8,0,0,0-.09-.18l-.12-.15a1,1,0,0,0-1.09-.21,1.032,1.032,0,0,0-.33.21,1.576,1.576,0,0,0-.12.15.757.757,0,0,0-.09.18.636.636,0,0,0-.06.18A1.355,1.355,0,0,0,28,16a.838.838,0,0,0,.08.38A1.155,1.155,0,0,0,28.29,16.71Z"></path></g></svg>