<svg xmlns="http://www.w3.org/2000/svg" viewBox="0 0 64 64" x="0px" y="0px"><g data-name="Project-Time Management-Document-Clock-Time"><path d="M60,42H31.12A14.807,14.807,0,0,1,32,47c0,.34-.03.67-.05,1H57a3.009,3.009,0,0,0,3-3Zm-4,4H54V44h2Z"></path><path d="M10,33.74a14.857,14.857,0,0,1,6-1.69V12H13a3.009,3.009,0,0,0-3,3Z"></path><path d="M10,48H8.059a8.956,8.956,0,0,0,1.916,4.611l1.368-1.368,1.414,1.414-1.368,1.368A8.956,8.956,0,0,0,16,55.941V54h2v1.941a8.956,8.956,0,0,0,4.611-1.916l-1.368-1.368,1.414-1.414,1.368,1.368A8.956,8.956,0,0,0,25.941,48H24V46h1.941a8.956,8.956,0,0,0-1.916-4.611l-1.368,1.368-1.414-1.414,1.368-1.368A8.956,8.956,0,0,0,18,38.059V40H16V38.059a8.956,8.956,0,0,0-4.611,1.916l1.368,1.368-1.414,1.414L9.975,41.389A8.956,8.956,0,0,0,8.059,46H10Zm6-1.414V42h2v5a1,1,0,0,1-.293.707l-2,2-1.414-1.414Z"></path><path d="M4,47A13,13,0,1,0,17,34,13.012,13.012,0,0,0,4,47ZM17,36A11,11,0,1,1,6,47,11.013,11.013,0,0,1,17,36Z"></path><path d="M60,15a3.009,3.009,0,0,0-3-3H54V40h6Z"></path><path d="M48,9h3.06L47.49,4H47V8A1,1,0,0,0,48,9Z"></path><path d="M24.6,59.91A.934.934,0,0,0,25,60H45a1,1,0,0,0,1-1,.928.928,0,0,0-.29-.69A.949.949,0,0,0,45,58H27.16A15.5,15.5,0,0,1,24.6,59.91Z"></path><path d="M18,32.05A15.022,15.022,0,0,1,30.26,40H52V11H48a3.009,3.009,0,0,1-3-3V4H21a3.009,3.009,0,0,0-3,3ZM48,34H28V32H48ZM26,8H38v2H26ZM22,8h2v2H22Zm0,4H38v2H22Zm0,4H48v2H22Zm0,4H48v2H22Zm0,4H48v2H22Zm0,4H48v2H22Z"></path><path d="M31.7,50a14.866,14.866,0,0,1-2.73,6h12.9l-.75-6Z"></path></g></svg>