<svg xmlns="http://www.w3.org/2000/svg" viewBox="0 0 64 64" x="0px" y="0px"><g><path d="M39.157,18.18l-15.581-11a1,1,0,0,0-1.152,0l-15.581,11A2.786,2.786,0,1,0,10.1,22.7l1.9-1.4V35a2,2,0,0,0,2,2H32a2,2,0,0,0,2-2V21.307l1.9,1.4a2.786,2.786,0,1,0,3.255-4.522ZM18,35V29h4v6Zm14,0H24V28a1,1,0,0,0-1-1H17a1,1,0,0,0-1,1v7H14V19.84l9-6.6,9,6.6Zm6.2-14.108a.786.786,0,0,1-1.118.2l-13.494-9.9a1,1,0,0,0-1.184,0l-13.494,9.9A.786.786,0,1,1,8,19.814L23,9.224,38,19.813A.784.784,0,0,1,38.2,20.892Z"></path><path d="M25,28v4a1,1,0,0,0,1,1h4a1,1,0,0,0,1-1V28a1,1,0,0,0-1-1H26A1,1,0,0,0,25,28Zm2,1h2v2H27Z"></path><path d="M19,21a4,4,0,1,0,4-4A4,4,0,0,0,19,21Zm6,0a2,2,0,1,1-2-2A2,2,0,0,1,25,21Z"></path><path d="M60.707,53.293l-9-9a5.245,5.245,0,0,0-6.636-.636L38.516,37.1A21.082,21.082,0,1,0,37.1,38.516l6.556,6.556a5.248,5.248,0,0,0,.636,6.635l9,9a5.242,5.242,0,0,0,7.414-7.414ZM23,42A19,19,0,1,1,42,23,19.021,19.021,0,0,1,23,42ZM59.293,59.293a3.247,3.247,0,0,1-4.586,0l-9-9a3.243,3.243,0,0,1,4.586-4.586l9,9A3.245,3.245,0,0,1,59.293,59.293Z"></path></g></svg>