<svg xmlns="http://www.w3.org/2000/svg" viewBox="0 0 64 64" x="0px" y="0px"><g data-name="skyscraper-building-tower-city-real estate"><path d="M37,4H27V54H37ZM31,52H29V6h2Zm4,0H33V6h2Z"></path><path d="M45,60V14H39V54h1a1,1,0,0,1,1,1v5H39V56H36v4H34V56H30v4H28V56H25v4H23V55a1,1,0,0,1,1-1h1V14H19V60H13v2H51V60ZM41,16h2v2H41Zm0,4h2v2H41Zm0,4h2v2H41Zm0,4h2v2H41Zm0,4h2v2H41Zm0,4h2v2H41Zm0,4h2v2H41Zm0,4h2v2H41Zm0,4h2v2H41Zm0,4h2v2H41ZM21,16h2v2H21Zm0,4h2v2H21Zm0,4h2v2H21Zm0,4h2v2H21Zm0,4h2v2H21Zm0,4h2v2H21Zm0,4h2v2H21Zm0,4h2v2H21Zm0,4h2v2H21Zm0,4h2v2H21Z"></path></g></svg>