<svg xmlns="http://www.w3.org/2000/svg" viewBox="0 0 64 64" x="0px" y="0px"><g data-name="Coffee Machine-Internet of Things-App-Smartphone-Application"><circle cx="50" cy="12" r="1"></circle><path d="M58,4H16a1,1,0,0,0-1,1V19a1,1,0,0,0,1,1H58a1,1,0,0,0,1-1V5A1,1,0,0,0,58,4ZM24,15a3,3,0,1,1,3-3A3,3,0,0,1,24,15Zm13,3a6,6,0,1,1,6-6A6.006,6.006,0,0,1,37,18Zm13-3a3,3,0,1,1,3-3A3,3,0,0,1,50,15Z"></path><rect x="36" y="36" width="2" height="2"></rect><path d="M41,33V30H33v3a1,1,0,0,0,1,1h6A1,1,0,0,0,41,33Z"></path><path d="M24,34H4V52H24ZM14,48l-1.414-1.414a2,2,0,0,1,2.828,0Zm2.121-3.122a3.074,3.074,0,0,0-4.242,0l-1.414-1.414a5,5,0,0,1,7.07,0ZM18.95,42.05a7.011,7.011,0,0,0-9.9,0L7.636,40.636a9.01,9.01,0,0,1,12.728,0Z"></path><path d="M24,57V54H4v3a3.009,3.009,0,0,0,3,3H21A3.009,3.009,0,0,0,24,57Zm-9,1H13V56h2Z"></path><path d="M24,31a3.009,3.009,0,0,0-3-3H7a3.009,3.009,0,0,0-3,3v1H24Z"></path><path d="M38,8.142V12H36V8.142a4,4,0,1,0,2,0Z"></path><circle cx="24" cy="12" r="1"></circle><rect x="34" y="26" width="6" height="2"></rect><path d="M26,31V56h5.03A4.924,4.924,0,0,1,30,53V45a1,1,0,0,1,1-1H44a4,4,0,0,1,0,8v1a4.924,4.924,0,0,1-1.03,3H53V34H42.82A3.01,3.01,0,0,1,40,36v2a2.006,2.006,0,0,1-2,2H36a2.006,2.006,0,0,1-2-2V36a3.009,3.009,0,0,1-3-3V29a1,1,0,0,1,1-1V26H31a1,1,0,0,1-.97-.76L29.22,22H21v4A5,5,0,0,1,26,31Z"></path><polygon points="42.72 22 31.28 22 31.78 24 42.22 24 42.72 22"></polygon><path d="M44,46v4a2,2,0,0,0,0-4Z"></path><path d="M35,56h4a3.009,3.009,0,0,0,3-3V46H32v7A3.009,3.009,0,0,0,35,56Z"></path><path d="M60,59a1,1,0,0,0-1-1H25.9a4.84,4.84,0,0,1-.93,2H60Z"></path><rect x="17" y="22" width="2" height="4"></rect><rect x="43" y="30" width="12" height="2"></rect><path d="M57,32a2.006,2.006,0,0,1-2,2V56h2Z"></path><path d="M53,22H44.78l-.81,3.24A1,1,0,0,1,43,26H42v2H53Z"></path><path d="M57,22H55v6a2.006,2.006,0,0,1,2,2Z"></path></g></svg>