<svg xmlns="http://www.w3.org/2000/svg" viewBox="0 0 64 64" x="0px" y="0px"><g data-name="Humand Mind-Percentage"><circle cx="31" cy="19" r="1"></circle><circle cx="41" cy="29" r="1"></circle><path d="M52.292,43.233A23,23,0,0,0,20.263,10.227,22.781,22.781,0,0,0,13,27a1,1,0,0,1-.26.673L4.261,37H10a1,1,0,0,1,1,1v7a5.006,5.006,0,0,0,5,5h8a2,2,0,0,1,2,2v8H52V46.194a25.134,25.134,0,0,1-3.369,2.385l-1.012-1.725a23.127,23.127,0,0,0,4.67-3.615ZM44,29a3,3,0,1,1-3-3A3,3,0,0,1,44,29ZM24,24a11.92,11.92,0,0,0,.92,4.615l-1.846.771A14.006,14.006,0,0,1,41.385,11.074l-.77,1.845A12.008,12.008,0,0,0,24,24Zm4-5a3,3,0,1,1,3,3A3,3,0,0,1,28,19Zm13.293-1.707,1.414,1.414-12,12-1.414-1.414ZM36,38a13.9,13.9,0,0,1-5.385-1.074l.77-1.845a12.007,12.007,0,0,0,15.695-15.7l1.846-.77A14.007,14.007,0,0,1,36,38Z"></path></g></svg>