<svg xmlns="http://www.w3.org/2000/svg" viewBox="0 0 64 64" x="0px" y="0px"><g><path d="M4,47H60V43H4Zm27-3h2v2H31Z"></path><path d="M14,21.08A6.995,6.995,0,1,0,18.586,34l-.293-.293,1.414-1.414.438.437A6.973,6.973,0,0,0,21.92,29H14Z"></path><path d="M19.707,23.707l-1.414-1.414L18.586,22A6.94,6.94,0,0,0,16,21.08V27h5.92a6.973,6.973,0,0,0-1.775-3.73Z"></path><rect x="24" y="58" width="16" height="2"></rect><path d="M60,13H4V41H60ZM24,21H22.414l-.856.856a8.95,8.95,0,0,1,0,12.288l.856.856H24v2H21.586l-1.547-1.547a9,9,0,1,1,0-14.906L21.586,19H24Zm6,18H26V37h4Zm0-4H26V33h4Zm0-12H26V21h4Zm0-4H26V17h4ZM58,36H37V34h2V29h2v5h1V25h2v9h1V27h2v7h1V21h2V34h1V25h2v9h1V19h2V34h2Z"></path><rect x="27" y="49" width="10" height="7"></rect></g></svg>