<svg xmlns="http://www.w3.org/2000/svg" viewBox="0 0 64 64" x="0px" y="0px"><title>Bus-Caravan</title><g><path d="M51,38V16a5.006,5.006,0,0,0-5-5H18a5.006,5.006,0,0,0-5,5V38a1,1,0,0,0,1,1H50A1,1,0,0,0,51,38ZM15,16a3,3,0,0,1,3-3H31V37H27.677l-3.748-9.371-1.858.742L25.523,37H15ZM49,37H38.477l3.452-8.629-1.858-.742L36.323,37H33V13H46a3,3,0,0,1,3,3Z"></path><path d="M45,42a4,4,0,1,0,4,4A4,4,0,0,0,45,42Zm0,6a2,2,0,1,1,2-2A2,2,0,0,1,45,48Z"></path><path d="M23,46a4,4,0,1,0-4,4A4,4,0,0,0,23,46Zm-6,0a2,2,0,1,1,2,2A2,2,0,0,1,17,46Z"></path><path d="M39,42H25a1,1,0,0,0-1,1v6a1,1,0,0,0,1,1H39a1,1,0,0,0,1-1V43A1,1,0,0,0,39,42Zm-1,2v1H26V44ZM26,48V47H38v1Z"></path><path d="M61,27H57a1,1,0,0,0-1,1v3H55V12a5.006,5.006,0,0,0-5-5H48V6a2,2,0,0,0-2-2H45a2,2,0,0,0-2,2V7H39V3a1,1,0,0,0-1-1H27a1,1,0,0,0-1,1V7H22V6a2,2,0,0,0-2-2H19a2,2,0,0,0-2,2V7H14a5.006,5.006,0,0,0-5,5V31H8V28a1,1,0,0,0-1-1H3a1,1,0,0,0-1,1v8a1,1,0,0,0,1,1H7a1,1,0,0,0,1-1V33H9V62a1,1,0,0,0,1,1h7a1,1,0,0,0,1-1V56H46v6a1,1,0,0,0,1,1h7a1,1,0,0,0,1-1V33h1v3a1,1,0,0,0,1,1h4a1,1,0,0,0,1-1V28A1,1,0,0,0,61,27ZM6,35H4V29H6ZM45,6h1V7H45ZM28,4h9V7H28ZM19,6h1V7H19Zm-8,6a3,3,0,0,1,3-3H50a3,3,0,0,1,3,3V54H11Zm5,49H11V56h5Zm37,0H48V56h5Zm7-26H58V29h2Z"></path></g></svg>