<svg xmlns="http://www.w3.org/2000/svg" viewBox="0 0 64 64" x="0px" y="0px"><g data-name="Web Optimization"><path d="M61.124,26.008l-6.09-.761a23.825,23.825,0,0,0-1.974-4.755l3.771-4.849a1,1,0,0,0-.082-1.321L49.678,7.251a1,1,0,0,0-1.322-.082L43.507,10.94a23.885,23.885,0,0,0-4.754-1.974l-.761-6.09A1,1,0,0,0,37,2H27a1,1,0,0,0-.992.876l-.761,6.09a23.894,23.894,0,0,0-4.755,1.974L15.643,7.169a1,1,0,0,0-1.321.082L7.251,14.322a1,1,0,0,0-.082,1.321l3.771,4.849a23.894,23.894,0,0,0-1.974,4.755l-6.09.761A1,1,0,0,0,2,27V37a1,1,0,0,0,.876.992l6.09.761a23.775,23.775,0,0,0,.947,2.64l1.839-.786a21.633,21.633,0,0,1-1.033-3.016,1,1,0,0,0-.844-.739L4,36.117V27.883l5.875-.735a1,1,0,0,0,.844-.738A21.9,21.9,0,0,1,13,20.91a1,1,0,0,0-.073-1.119L9.29,15.112,15.112,9.29l4.679,3.639A1,1,0,0,0,20.91,13a21.9,21.9,0,0,1,5.5-2.283,1,1,0,0,0,.738-.844L27.883,4h8.234l.735,5.875a1,1,0,0,0,.739.844A21.891,21.891,0,0,1,43.09,13a1,1,0,0,0,1.119-.073L48.888,9.29l5.823,5.822-3.64,4.679A1,1,0,0,0,51,20.91a21.857,21.857,0,0,1,2.284,5.5,1,1,0,0,0,.844.738L60,27.883v8.234l-5.875.735a1,1,0,0,0-.843.738,21.907,21.907,0,0,1-1.034,3.017l1.84.786a23.885,23.885,0,0,0,.946-2.64l6.09-.761A1,1,0,0,0,62,37V27A1,1,0,0,0,61.124,26.008Z"></path><rect x="31" y="8" width="2" height="2"></rect><rect x="14.737" y="14.736" width="2" height="2" transform="translate(-6.518 15.737) rotate(-45)"></rect><rect x="8" y="31" width="2" height="2"></rect><rect x="54" y="31" width="2" height="2"></rect><rect x="47.264" y="14.737" width="2" height="2" transform="translate(3.009 38.737) rotate(-45)"></rect><path d="M17.275,23.5l1.731,1a15.005,15.005,0,0,1,25.988,0l1.731-1a17.005,17.005,0,0,0-29.45,0Z"></path><path d="M48,26H16a3,3,0,0,0-3,3V59a3,3,0,0,0,3,3H48a3,3,0,0,0,3-3V29A3,3,0,0,0,48,26ZM16,28H48a1,1,0,0,1,1,1v3H15V29A1,1,0,0,1,16,28ZM48,60H16a1,1,0,0,1-1-1V34H49V59A1,1,0,0,1,48,60Z"></path><rect x="18" y="50" width="12" height="2"></rect><rect x="18" y="54" width="12" height="2"></rect><rect x="34" y="50" width="12" height="2"></rect><rect x="34" y="54" width="12" height="2"></rect><rect x="17" y="29" width="2" height="2"></rect><rect x="21" y="29" width="2" height="2"></rect><rect x="25" y="29" width="2" height="2"></rect><rect x="25" y="42" width="2" height="2"></rect><rect x="29" y="42" width="2" height="2"></rect><rect x="33" y="42" width="2" height="2"></rect><rect x="37" y="42" width="2" height="2"></rect><path d="M45,38H19a1,1,0,0,0-1,1v8a1,1,0,0,0,1,1H45a1,1,0,0,0,1-1V39A1,1,0,0,0,45,38Zm-1,8H20V40H44Z"></path></g></svg>