<svg xmlns="http://www.w3.org/2000/svg" viewBox="0 0 64 64" x="0px" y="0px"><g data-name="Online Shopping"><rect x="26" y="50" width="12" height="6"></rect><rect x="23" y="58" width="18" height="2"></rect><path d="M21.92,34H42.08l.833-10H21.087ZM37,26h2v6H37Zm-6,0h2v6H31Zm-6,0h2v6H25Z"></path><rect x="20" y="20" width="24" height="2"></rect><path d="M60,47.02V10.98a.982.982,0,0,0-.98-.98H4.98a.98.98,0,0,0-.98.98V47.02a.98.98,0,0,0,.98.98H59.02A.98.98,0,0,0,60,47.02ZM18,19a1,1,0,0,1,1-1h6.28l1.772-5.316,1.9.632L27.387,18h9.226l-1.561-4.684,1.9-.632L38.72,18H45a1,1,0,0,1,1,1v4a1,1,0,0,1-1,1h-.08L44,35.083A1,1,0,0,1,43,36H21a1,1,0,0,1-1-.917L19.08,24H19a1,1,0,0,1-1-1ZM34,46H30V44h4Zm22-4H8V40H56Z"></path></g></svg>