<svg xmlns="http://www.w3.org/2000/svg" viewBox="0 0 64 64" x="0px" y="0px"><g><path d="M61.43,45.02,50.12,33.71a3,3,0,0,0-4.24,0L37.39,42.2,28,39.27V36.79A11.028,11.028,0,0,0,33.95,28H34a4,4,0,0,0,0-8h1a2.006,2.006,0,0,0,2-2V16a2.006,2.006,0,0,0-2-2h-.05a10.919,10.919,0,0,0-3.17-6.78A11.422,11.422,0,0,0,29.5,5.47a11.064,11.064,0,0,0-3.63-1.3,2.983,2.983,0,0,0-5.74,0A10.9,10.9,0,0,0,11.07,14H11a2.006,2.006,0,0,0-2,2v2a2.006,2.006,0,0,0,2,2h1a4,4,0,1,0,0,8h.05A11.028,11.028,0,0,0,18,36.79v2.48L8.31,42.3A8.941,8.941,0,0,0,2,50.88V61a1,1,0,0,0,1,1H55a2.006,2.006,0,0,0,2-2V49.07l.19.19a2.973,2.973,0,0,0,2.12.88,3,3,0,0,0,3-3A2.973,2.973,0,0,0,61.43,45.02ZM12,26a2.015,2.015,0,0,1-2-2,2.006,2.006,0,0,1,2-2Zm24-2a2.015,2.015,0,0,1-2,2V22A2.006,2.006,0,0,1,36,24ZM26,6.23a9.024,9.024,0,0,1,2,.72V12h2V8.32c.12.11.25.2.36.32A8.94,8.94,0,0,1,32.95,14H26ZM22,5a1,1,0,0,1,2,0v9H22ZM16,8.31V12h2V6.95a9.209,9.209,0,0,1,2-.72V14H13.06A9,9,0,0,1,16,8.31ZM11,18V16H35v2Zm3,9V20H32v7a9,9,0,0,1-18,0ZM26,37.57V40a3,3,0,0,1-6,0V37.57a10.68,10.68,0,0,0,6,0Zm-9,4.1,1.19-.37a4.977,4.977,0,0,0,9.62,0l1.19.37V47a3.009,3.009,0,0,1-3,3H20a3.009,3.009,0,0,1-3-3ZM10,60H4V50.88A6.964,6.964,0,0,1,8.91,44.2L10,43.86Zm12,0H12V56H22Zm0-6H12V43.24l3-.94V47a5,5,0,0,0,5,5h2Zm12,6H24V56H34Zm0-14.17a2.969,2.969,0,0,0-.31,1.31A2.905,2.905,0,0,0,34,48.45V54H24V52h2a5,5,0,0,0,5-5V42.3l3,.94ZM39,60H36V50.03a3.046,3.046,0,0,0,2.81-.77l.19-.19Zm11,0H46V55h4Zm5,0H52V54a1,1,0,0,0-1-1H45a1,1,0,0,0-1,1v6H41V47.07l7-7,7,7Zm5.02-12.15a1.014,1.014,0,0,1-1.41,0l-9.9-9.9a1.014,1.014,0,0,0-1.42,0l-9.9,9.9a1.014,1.014,0,0,1-1.41,0,.99.99,0,0,1-.29-.71.967.967,0,0,1,.29-.7L47.29,35.12a1.008,1.008,0,0,1,1.42,0L60.02,46.44a.967.967,0,0,1,.29.7A.99.99,0,0,1,60.02,47.85Z"></path><path d="M45,47a3,3,0,1,0,3-3A3,3,0,0,0,45,47Zm4,0a1,1,0,1,1-1-1A1,1,0,0,1,49,47Z"></path><circle cx="19" cy="24" r="2"></circle><circle cx="27" cy="24" r="2"></circle><path d="M26.308,30.75l-1.325-1.5a3.074,3.074,0,0,1-3.966,0l-1.325,1.5a5,5,0,0,0,6.616,0Z"></path></g></svg>