<svg xmlns="http://www.w3.org/2000/svg" viewBox="0 0 64 64" x="0px" y="0px"><g><path d="M50,59a1,1,0,0,1-1,1H11a1,1,0,0,1-1-1V13a1,1,0,0,1,1-1h7.111A7,7,0,0,0,16.3,15H14a2,2,0,0,0-2,2V55a2,2,0,0,0,2,2H46a2,2,0,0,0,2-2V54H46v1H14V17h2v2a1,1,0,0,0,1,1H43a1,1,0,0,0,1-1V17h2V27h2V17a2,2,0,0,0-2-2h-2.3a7,7,0,0,0-1.816-3H49a1,1,0,0,1,1,1V30h2V13a3,3,0,0,0-3-3H35V7A5,5,0,0,0,25,7v3H11a3,3,0,0,0-3,3V59a3,3,0,0,0,3,3H49a3,3,0,0,0,3-3V54H50ZM26,12a1,1,0,0,0,1-1V7a3,3,0,0,1,6,0v4a1,1,0,0,0,1,1h3a5.006,5.006,0,0,1,5,5v1H18V17a5.006,5.006,0,0,1,5-5Z"></path><circle cx="30" cy="7" r="1"></circle><path d="M55,42H21a1,1,0,0,0-1,1v8a1,1,0,0,0,1,1H55a1,1,0,0,0,1-1V43A1,1,0,0,0,55,42Zm-1,8H22V44h3v2h2V44h4v2h2V44h4v2h2V44h4v2h2V44h4v2h2V44h3Z"></path><path d="M55,32H48V30a1,1,0,0,0-1-1H42v2h4v1H28a1,1,0,0,0-.316.052l-3,1A1,1,0,0,0,24,34H22v2h2a1,1,0,0,0,.684.948l3,1A1,1,0,0,0,28,38H55a1,1,0,0,0,1-1V33A1,1,0,0,0,55,32ZM26,35.279v-.558L28.162,34H50v2H28.162ZM54,36H52V34h2Z"></path><rect x="18" y="24" width="4" height="2"></rect><rect x="24" y="24" width="2" height="2"></rect><rect x="28" y="24" width="8" height="2"></rect><rect x="18" y="28" width="8" height="2"></rect><rect x="28" y="28" width="8" height="2"></rect></g></svg>