<svg xmlns="http://www.w3.org/2000/svg" viewBox="0 0 64 64" x="0px" y="0px"><g data-name="Business-Man-Avatar-Hat"><polygon points="28.073 31.693 27.124 33.117 28.444 36.417 30.574 34.819 28.073 31.693"></polygon><path d="M25,22a3,3,0,0,0,3,3h8a3,3,0,0,0,3-3V15.816A2.966,2.966,0,0,1,38,16H26a2.966,2.966,0,0,1-1-.184Zm9.29-5.71A1,1,0,0,1,36,17a1,1,0,0,1-.08.38,1.169,1.169,0,0,1-.21.33A1,1,0,0,1,34,17,1.045,1.045,0,0,1,34.29,16.29Zm-6,0A1,1,0,0,1,30,17a1,1,0,0,1-.08.38.9.9,0,0,1-.54.54.99.99,0,0,1-1.09-.21,1.169,1.169,0,0,1-.21-.33A.838.838,0,0,1,28,17,1.045,1.045,0,0,1,28.29,16.29Z"></path><path d="M40.754,35.629l-1.8-4.216c-.313-.087-.63-.163-.954-.223l.837,1.255a1,1,0,0,1,.1.926l-4.4,10.392,4.959-3.857-1.2-1.2a1,1,0,0,1,.152-1.539Z"></path><path d="M31,60V47.489l-8.614-6.7a1,1,0,0,1-.093-1.5l1.138-1.138-1.986-1.323a1,1,0,0,1-.364-1.226l1.3-3.049A11,11,0,0,0,17,42V60h4V42h2V60Z"></path><path d="M38,14a1,1,0,0,0,1-1V12H25v1a1,1,0,0,0,1,1Z"></path><path d="M24.508,39.906l4.959,3.857-4.4-10.392a1,1,0,0,1,.1-.926l.837-1.255c-.324.06-.641.136-.954.223l-1.8,4.216,2.309,1.539a1,1,0,0,1,.152,1.539Z"></path><polygon points="34.763 38.321 32 36.25 29.237 38.321 32 44.538 34.763 38.321"></polygon><polygon points="35 29.648 35 27 29 27 29 29.648 32 33.398 35 29.648"></polygon><path d="M22,17a1,1,0,0,0,1,1V16A1,1,0,0,0,22,17Z"></path><path d="M47,60V42a11,11,0,0,0-5.386-9.443l1.3,3.049a1,1,0,0,1-.364,1.226l-1.986,1.323,1.138,1.138a1,1,0,0,1-.093,1.5L33,47.489V60h8V42h2V60Z"></path><path d="M25,5.689V10H39V5.69A25.337,25.337,0,0,0,32,4,25.338,25.338,0,0,0,25,5.689Z"></path><polygon points="36.876 33.117 35.927 31.693 33.426 34.819 35.556 36.417 36.876 33.117"></polygon><path d="M41,18a1,1,0,0,0,0-2Z"></path></g></svg>