<svg xmlns="http://www.w3.org/2000/svg" viewBox="0 0 64 64" x="0px" y="0px"><g><path d="M56,49a1,1,0,0,0-1,1,1,1,0,0,1-2,0,1,1,0,0,0-1-1,.988.988,0,0,0-.966.832L52.618,53h2.764l1.584-3.168A.988.988,0,0,0,56,49Z"></path><path d="M55,57V55H53v2a1,1,0,0,0,2,0Z"></path><path d="M57,19a3,3,0,0,0-6,0v1h6Z"></path><rect x="51" y="22" width="6" height="1"></rect><path d="M57,25H51V47.184a2.846,2.846,0,0,1,2,0V27h2V47.179a2.846,2.846,0,0,1,2,0Z"></path><circle cx="26" cy="9" r="1"></circle><path d="M29,52a8,8,0,1,0-8-8A8.009,8.009,0,0,0,29,52Zm-.447-7.1C27.476,44.356,26,43.618,26,42a3,3,0,0,1,2-2.816V38h2v1.184A3,3,0,0,1,32,42H30a1,1,0,0,0-2,0c0,.354.6.682,1.447,1.1C30.524,43.644,32,44.382,32,46a3,3,0,0,1-2,2.816V50H28V48.816A3,3,0,0,1,26,46h2a1,1,0,0,0,2,0C30,45.646,29.4,45.318,28.553,44.9Z"></path><path d="M15,17H37V16a3,3,0,0,0-3-3H31a1,1,0,0,1-1-1V7a3,3,0,0,0-3-3H25a3,3,0,0,0-3,3v5a1,1,0,0,1-1,1H18a3,3,0,0,0-3,3ZM26,6a3,3,0,1,1-3,3A3,3,0,0,1,26,6Z"></path><polygon points="11 56 15.586 56 11 51.414 11 56"></polygon><rect x="15" y="19" width="22" height="1"></rect><path d="M17,51a1,1,0,0,0-1-1H12.414L17,54.586Z"></path><path d="M45,17a3,3,0,0,0-3-3H38.576A4.95,4.95,0,0,1,39,16h2a2,2,0,0,1,2,2V56a2,2,0,0,1-2,2H11a2,2,0,0,1-2-2V18a2,2,0,0,1,2-2h2a4.95,4.95,0,0,1,.424-2H10a3,3,0,0,0-3,3V57a3,3,0,0,0,3,3H42a3,3,0,0,0,3-3Z"></path><path d="M13,21V18H11V48h5a3,3,0,0,1,3,3v5H41V18H39v3a1,1,0,0,1-1,1H14A1,1,0,0,1,13,21Zm20,7h4v2H33Zm-4,0h2v2H29ZM39,44A10,10,0,1,1,29,34,10.011,10.011,0,0,1,39,44ZM19,24h8v2H19Zm-4,0h2v2H15Zm0,4H27v2H15Zm0,4h4v2H15Z"></path></g></svg>