<svg xmlns="http://www.w3.org/2000/svg" viewBox="0 0 64 64" x="0px" y="0px"><g><rect x="44" y="28" width="2" height="2"></rect><rect x="52" y="28" width="2" height="2"></rect><path d="M57,46a1,1,0,0,0,1-1V25a1,1,0,0,0-1-1H7a1,1,0,0,0-1,1V45a1,1,0,0,0,1,1h5V42a2,2,0,0,1,2-2H50a2,2,0,0,1,2,2v4ZM11,32a3,3,0,1,1,3-3A3,3,0,0,1,11,32Zm8,0a3,3,0,1,1,3-3A3,3,0,0,1,19,32Zm21-1a1,1,0,0,1-1,1H35a1,1,0,0,1-1-1V27a1,1,0,0,1,1-1h4a1,1,0,0,1,1,1Zm8,0a1,1,0,0,1-1,1H43a1,1,0,0,1-1-1V27a1,1,0,0,1,1-1h4a1,1,0,0,1,1,1Zm3,1a1,1,0,0,1-1-1V27a1,1,0,0,1,1-1h4a1,1,0,0,1,1,1v4a1,1,0,0,1-1,1Z"></path><circle cx="19" cy="29" r="1"></circle><circle cx="11" cy="29" r="1"></circle><rect x="36" y="28" width="2" height="2"></rect><path d="M17,44H47a1,1,0,0,1,.954.7L48.36,46H50V42H14v4h1.64l.405-1.3A1,1,0,0,1,17,44Z"></path><path d="M46.265,46H17.735L13.36,60H50.64ZM21,50H43v2H21Zm1,6H18V54h4Zm24,0H24V54H46Z"></path><rect x="18" y="4" width="28" height="18"></rect><rect x="48" y="12" width="4" height="10"></rect><rect x="12" y="12" width="4" height="10"></rect></g></svg>