<svg xmlns="http://www.w3.org/2000/svg" viewBox="0 0 64 64" x="0px" y="0px"><g><path d="M50.707,30.293l-3-3A1,1,0,0,0,47,27V26H45v1a1.006,1.006,0,0,0-.555.168l-3,2A1,1,0,0,0,41,30v4a1,1,0,0,0,.293.707l2,2,1.414-1.414L43,33.586V30.535L45.3,29h1.283L49,31.414v2.172l-1.707,1.707,1.414,1.414,2-2A1,1,0,0,0,51,34V31A1,1,0,0,0,50.707,30.293Z"></path><path d="M7,19a2,2,0,0,0,4,0c0-.013.007-.024.007-.037v0H11a2,2,0,0,0-1.883-1.95A1.009,1.009,0,0,1,9.008,17,2.008,2.008,0,0,0,7,19Zm1.08-.38a1.032,1.032,0,0,1,.21-.33,1.009,1.009,0,0,1,.91-.27.646.646,0,0,1,.18.06.776.776,0,0,1,.18.09,1.712,1.712,0,0,1,.15.12,1.032,1.032,0,0,1,.21.33.943.943,0,0,1,0,.76,1.169,1.169,0,0,1-.21.33,1.014,1.014,0,0,1-1.42,0,1.169,1.169,0,0,1-.21-.33.942.942,0,0,1,0-.76Z"></path><path d="M23.908,8.819c-.013.06-.02.122-.035.181H42.125c-.015-.06-.022-.122-.035-.182s-.021-.106-.03-.16A4.107,4.107,0,0,1,42,8a4.055,4.055,0,0,1,.06-.653c.009-.056.02-.11.032-.166s.02-.121.035-.181H23.873c.015.059.022.119.034.178s.024.114.033.171A3.921,3.921,0,0,1,24,8a4.033,4.033,0,0,1-.06.652C23.931,8.709,23.919,8.764,23.908,8.819Z"></path><path d="M6.034,48h5.932l-.854-25.6a3.542,3.542,0,0,1-.49.253,4.117,4.117,0,0,1-.469.162c-.02,0-.039.012-.059.018A3.958,3.958,0,0,1,9,23a3.958,3.958,0,0,1-1.094-.171c-.02-.006-.039-.013-.059-.018a4.117,4.117,0,0,1-.469-.162,3.542,3.542,0,0,1-.49-.253Z"></path><path d="M46.824,11.907c-.059.012-.118.024-.178.034a4.049,4.049,0,0,1-.613.056L46,12l-.033,0a4.077,4.077,0,0,1-.615-.057c-.058-.009-.116-.021-.173-.033s-.12-.019-.179-.034V24h2V11.873C46.942,11.888,46.882,11.894,46.824,11.907Z"></path><circle cx="38" cy="54" r="1"></circle><rect x="4" y="50" width="10" height="8"></rect><circle cx="54" cy="54" r="1"></circle><path d="M56,50H16v8H56a4,4,0,0,0,0-8ZM22,57a3,3,0,1,1,3-3A3,3,0,0,1,22,57Zm8,0a3,3,0,1,1,3-3A3,3,0,0,1,30,57Zm8,0a3,3,0,1,1,3-3A3,3,0,0,1,38,57Zm8,0a3,3,0,1,1,3-3A3,3,0,0,1,46,57Zm8,0a3,3,0,1,1,3-3A3,3,0,0,1,54,57Z"></path><circle cx="46" cy="54" r="1"></circle><path d="M20,6a2,2,0,0,0-2,2,.548.548,0,0,1,.009.114,1.985,1.985,0,0,0,1.877,1.877.9.9,0,0,1,.146.018,1.974,1.974,0,0,0,1.445-.666,1.983,1.983,0,0,0,.011-2.672A1.955,1.955,0,0,0,20,6Zm.92,2.38a1.169,1.169,0,0,1-.21.33,1.169,1.169,0,0,1-.33.21.942.942,0,0,1-.76,0,1.155,1.155,0,0,1-.33-.21,1.169,1.169,0,0,1-.21-.33A1,1,0,0,1,19,8a1.213,1.213,0,0,1,.02-.19.6.6,0,0,1,.06-.19.782.782,0,0,1,.09-.181,1.7,1.7,0,0,1,.12-.149,1.047,1.047,0,0,1,1.42,0l.12.149a.824.824,0,0,1,.09.181.577.577,0,0,1,.059.19A1.105,1.105,0,0,1,21,8,1,1,0,0,1,20.92,8.38Z"></path><circle cx="22" cy="54" r="1"></circle><rect x="31" y="42" width="2" height="2"></rect><path d="M16.616,10.125c-.019-.032-.048-.056-.067-.088l-5.512,5.519c.032.019.056.048.088.067a4,4,0,0,1,.7.541l.013.013a4,4,0,0,1,.541.7c.019.032.048.056.067.088l5.519-5.512c-.032-.019-.056-.048-.088-.067A3.943,3.943,0,0,1,16.616,10.125Z"></path><path d="M46,6a1.95,1.95,0,0,0-1.477.657A2,2,0,0,0,44,8a1.969,1.969,0,0,0,.5,1.329c.029.028.094.094.158.15a1.956,1.956,0,0,0,.631.381,2.039,2.039,0,0,0,2.038-.372A1.955,1.955,0,0,0,48,8,2,2,0,0,0,46,6Zm.7,2.71a.974.974,0,0,1-1.08.21,1.155,1.155,0,0,1-.33-.21,1.169,1.169,0,0,1-.21-.33A.838.838,0,0,1,45,8a1.213,1.213,0,0,1,.02-.19.6.6,0,0,1,.06-.19.782.782,0,0,1,.09-.181,1.7,1.7,0,0,1,.12-.149,1.034,1.034,0,0,1,1.41,0,1.9,1.9,0,0,1,.13.149.824.824,0,0,1,.09.181.577.577,0,0,1,.059.19A1.105,1.105,0,0,1,47,8,.964.964,0,0,1,46.7,8.71Z"></path><circle cx="30" cy="54" r="1"></circle><path d="M36,42H35v3a1,1,0,0,1-1,1H30a1,1,0,0,1-1-1V42H28v6h8Z"></path><rect x="45" y="42" width="2" height="2"></rect><path d="M50,42H49v3a1,1,0,0,1-1,1H44a1,1,0,0,1-1-1V42H42v6h8Z"></path></g></svg>