<svg xmlns="http://www.w3.org/2000/svg" viewBox="0 0 64 64" x="0px" y="0px"><g><polygon points="35 28.649 35 26 29 26 29 28.649 32 32.399 35 28.649"></polygon><polygon points="27.124 32.117 28.444 35.417 30.574 33.819 28.073 30.693 27.124 32.117"></polygon><path d="M31.376,4.018A9.214,9.214,0,0,0,23,13.35V25a4.987,4.987,0,0,0,1.437,3.508A12.913,12.913,0,0,1,27,28.051V25.576A5,5,0,0,1,24,21V13a1,1,0,0,1,1-1h1V10h2v2h1V9h2v3h5V10h2v2h1a1,1,0,0,1,1,1v8a5,5,0,0,1-3,4.576v2.475a12.913,12.913,0,0,1,2.563.457A4.987,4.987,0,0,0,41,25V13a9.037,9.037,0,0,0-2.858-6.574A8.926,8.926,0,0,0,31.376,4.018Z"></path><path d="M43,60h4V41a11.013,11.013,0,0,0-9.005-10.81l.837,1.255a1,1,0,0,1,.1.927L32.914,46.406a1,1,0,0,1-1.828,0L25.071,32.372a1,1,0,0,1,.1-.927l.837-1.255A11.013,11.013,0,0,0,17,41V60h4V50.447a8.417,8.417,0,0,1,0-10.894V38h2v2a1,1,0,0,1-.4.8c-.9.679-1.6,2.815-1.6,4.2s.7,3.522,1.6,4.2a1,1,0,0,1,.4.8V60H41V50a1,1,0,0,1,.4-.8c.9-.679,1.6-2.815,1.6-4.2s-.7-3.522-1.6-4.2A1,1,0,0,1,41,40V38h2v1.553a8.417,8.417,0,0,1,0,10.894Z"></path><polygon points="34.763 37.321 32 35.25 29.237 37.321 32 43.538 34.763 37.321"></polygon><polygon points="36.876 32.117 35.927 30.693 33.426 33.819 35.556 35.417 36.876 32.117"></polygon><path d="M38,21V14H26v7a3,3,0,0,0,3,3h6A3,3,0,0,0,38,21Zm-8.08-4.62a1.155,1.155,0,0,1-.21.33A1.052,1.052,0,0,1,29,17a1,1,0,0,1-.38-.08,1.032,1.032,0,0,1-.33-.21,1.155,1.155,0,0,1-.21-.33A.838.838,0,0,1,28,16a1.355,1.355,0,0,1,.02-.2.636.636,0,0,1,.06-.18.757.757,0,0,1,.09-.18,1.576,1.576,0,0,1,.12-.15,1.032,1.032,0,0,1,.33-.21,1,1,0,0,1,1.09.21l.12.15a.8.8,0,0,1,.09.18.6.6,0,0,1,.059.18A1.234,1.234,0,0,1,30,16,1,1,0,0,1,29.92,16.38Zm5.79.33A1.052,1.052,0,0,1,35,17a1.213,1.213,0,0,1-.19-.02.6.6,0,0,1-.19-.06.782.782,0,0,1-.181-.09l-.149-.12a1.155,1.155,0,0,1-.21-.33.943.943,0,0,1,0-.76,1.155,1.155,0,0,1,.21-.33l.149-.12a.782.782,0,0,1,.181-.09.6.6,0,0,1,.19-.06,1.035,1.035,0,0,1,.9.27,1.155,1.155,0,0,1,.21.33A1,1,0,0,1,36,16,1.052,1.052,0,0,1,35.71,16.71Z"></path></g></svg>