<svg xmlns="http://www.w3.org/2000/svg" viewBox="0 0 64 64" x="0px" y="0px"><g data-name="Mobile App-App-Smartphone-Taxi-Technology"><path d="M41,41v2h4V40.82A3,3,0,0,1,44,41Z"></path><polygon points="39.22 23 24.78 23 24.28 25 39.72 25 39.22 23"></polygon><path d="M19.44,30.88l.53-1.05A.993.993,0,1,0,19,31,.933.933,0,0,0,19.44,30.88Z"></path><path d="M19,40.82V43h4V41H20A3,3,0,0,1,19,40.82Z"></path><polygon points="40.38 27 23.62 27 21.62 31 42.38 31 40.38 27"></polygon><rect x="29" y="19" width="6" height="2"></rect><path d="M44,33H20a1,1,0,0,0-1,1v4a1,1,0,0,0,1,1H44a1,1,0,0,0,1-1V34A1,1,0,0,0,44,33ZM23,38a2,2,0,1,1,2-2A2,2,0,0,1,23,38Zm12-1H29V35h6Zm6,1a2,2,0,1,1,2-2A2,2,0,0,1,41,38Z"></path><path d="M50,8a4,4,0,0,0-4-4H18a4,4,0,0,0-4,4V56a4,4,0,0,0,4,4H46a4,4,0,0,0,4-4ZM29,6h6V8H29ZM25,6h2V8H25Zm9,52H30a3,3,0,0,1,0-6h4a3,3,0,0,1,0,6ZM46.6,32.53A2.942,2.942,0,0,1,47,34v9a2.006,2.006,0,0,1-2,2H41a2.006,2.006,0,0,1-2-2V41H25v2a2.006,2.006,0,0,1-2,2H19a2.006,2.006,0,0,1-2-2V34a2.942,2.942,0,0,1,.4-1.47A3,3,0,0,1,19,27a2.949,2.949,0,0,1,1.99.78l1.07-2.13.78-3.14A1.992,1.992,0,0,1,24.78,21H27V18a1,1,0,0,1,1-1h8a1,1,0,0,1,1,1v3h2.22a1.992,1.992,0,0,1,1.94,1.51l.78,3.14,1.07,2.13A2.949,2.949,0,0,1,45,27a3,3,0,0,1,1.6,5.53Z"></path><path d="M34,54H30a1,1,0,0,0,0,2h4a1,1,0,0,0,0-2Z"></path><path d="M45,29a1,1,0,0,0-.97.83l.53,1.05A.933.933,0,0,0,45,31a1,1,0,0,0,0-2Z"></path></g></svg>