<svg xmlns="http://www.w3.org/2000/svg" viewBox="0 0 64 64" x="0px" y="0px"><g><path d="M45,25.54v6.39a1.039,1.039,0,0,0,.35.07h3.17l-1.45-3.63.02-.01a.774.774,0,0,1-.07-.16l-.71-3.54Z"></path><path d="M40,21.43l3.97,2.39L46,22.46V21.28a12.973,12.973,0,0,0-6-2.2Z"></path><path d="M38,24v3h2.65A2.977,2.977,0,0,1,43,28.14V25.57L39.06,23.2Z"></path><path d="M52,45h4a1,1,0,0,0,1-1V43H54a1,1,0,0,1-1-1V38H49v4A3.009,3.009,0,0,0,52,45Z"></path><rect x="34" y="17" width="2" height="12"></rect><path d="M51.92,32l-.56-2.67a11.32,11.32,0,0,0-.4-1.44l-1.66.67L50.68,32Z"></path><polygon points="57.31 36 54.46 34.34 54.81 36 57.31 36"></polygon><path d="M52.35,34h-7a2.987,2.987,0,0,1-2.78-1.88l-1-2.49a.986.986,0,0,0-.92-.63h-1.4l1.03,4.65A2.987,2.987,0,0,0,43.21,36h9.56Z"></path><path d="M48.75,26.62l1.44-.57A12.7,12.7,0,0,0,48.02,23Z"></path><path d="M9,36h5V29H4v2A5,5,0,0,0,9,36ZM6,31H8v2H6Z"></path><polygon points="16 28.28 16 32 19 31.98 19 26.68 17.36 26.02 16 28.28"></polygon><path d="M32,24l-1.06-.8L27,25.57V28.1A2.976,2.976,0,0,1,29.33,27H32Z"></path><path d="M16,38v5a3.009,3.009,0,0,0,3,3h6a1,1,0,0,0,1-1V42H21a1,1,0,0,1-1-1V38Z"></path><path d="M19.76,24.83,22,22.59V21.04a13.079,13.079,0,0,0-3.53,3.27Z"></path><path d="M21,26.41v5.56l2.96-.01a2.066,2.066,0,0,0,1.04-.3V25.54l-1.87-1.25Z"></path><path d="M29.33,29a1,1,0,0,0-.93.63l-.73,1.82a3.973,3.973,0,0,1-3.7,2.51L16,34v2H26.79a2.987,2.987,0,0,0,2.93-2.35L30.75,29Z"></path><path d="M30,21.43V19H28.93a12.9,12.9,0,0,0-4.93.98v2.48l2.03,1.36Z"></path></g></svg>