<svg xmlns="http://www.w3.org/2000/svg" viewBox="0 0 64 64" x="0px" y="0px"><g><path d="M20.986,32.175a1.008,1.008,0,0,0-.486-1.042,2.84,2.84,0,0,1-1.5-2.44V26a3,3,0,0,0-6,0v2.6a2.77,2.77,0,0,1-1.454,2.511,1,1,0,0,0-.532,1.067A1.085,1.085,0,0,0,12.107,33H19.3C19.766,33,20.864,32.919,20.986,32.175Z"></path><path d="M16,21a5.047,5.047,0,0,1,.982.1A.821.821,0,0,0,17,21a1,1,0,0,0-2,0,.821.821,0,0,0,.018.1A5.047,5.047,0,0,1,16,21Z"></path><path d="M34,47a1,1,0,0,0,1,1H59a1,1,0,0,0,1-1V34.517L48.182,39.582a3.017,3.017,0,0,1-2.363,0L34,34.517Z"></path><path d="M17,35H15a1,1,0,0,0,2,0Z"></path><path d="M34.2,32.428l12.4,5.316a1.007,1.007,0,0,0,.788,0l12.4-5.315A.982.982,0,0,0,59,32H35A.982.982,0,0,0,34.2,32.428Z"></path><path d="M28,28A12,12,0,1,0,16,40,12.013,12.013,0,0,0,28,28ZM13,35h-.893a3.082,3.082,0,0,1-3.066-2.5,3,3,0,0,1,1.595-3.17A.812.812,0,0,0,11,28.6V26a4.992,4.992,0,0,1,2.15-4.1,3,3,0,1,1,5.7,0A4.992,4.992,0,0,1,21,26v2.693a.9.9,0,0,0,.5.709A2.99,2.99,0,0,1,22.959,32.5c-.2,1.211-1.262,2.5-3.66,2.5H19a3,3,0,0,1-6,0Z"></path><path d="M35,30H48V7.98A3.99,3.99,0,0,0,44.02,4H19.98A3.99,3.99,0,0,0,16,7.98V14a14,14,0,0,1,0,28V56.02A3.99,3.99,0,0,0,19.98,60H44.02A3.99,3.99,0,0,0,48,56.02V50H35a3.009,3.009,0,0,1-3-3V33A3.009,3.009,0,0,1,35,30ZM25,8H23V6h2ZM44,24H32V22H44Zm0-4H32V18H44ZM32,16V14h2v2Zm12,0H36V14h8ZM34,52a3,3,0,0,1,0,6H30a3,3,0,0,1,0-6ZM27,8V6H37V8Z"></path><path d="M34,54H30a1,1,0,0,0,0,2h4a1,1,0,0,0,0-2Z"></path></g></svg>