<svg xmlns="http://www.w3.org/2000/svg" viewBox="0 0 64 64" x="0px" y="0px"><g><path d="M8.237,24l2.4,11.209a1,1,0,0,0,.978.791H30.383a1,1,0,0,0,.978-.79L33.763,24Z"></path><path d="M53,25a1,1,0,0,0-1-1H35.808l-.428,2H52A1,1,0,0,0,53,25Z"></path><path d="M28.306,14a1,1,0,0,0,.986-.835L30.819,4H11.181l1.527,9.164a1,1,0,0,0,.986.836Z"></path><path d="M47,5a1,1,0,0,0-1-1H32.847l-.333,2H46A1,1,0,0,0,47,5Z"></path><path d="M39.829,46l-.375,2H59a.957.957,0,0,0,.694-.288A.978.978,0,0,0,60,47a1,1,0,0,0-1-1Z"></path><path d="M4.205,46,6.677,59.185A1,1,0,0,0,7.66,60H34.34a1,1,0,0,0,.982-.815L37.8,46Z"></path></g></svg>