<svg xmlns="http://www.w3.org/2000/svg" viewBox="0 0 64 64" x="0px" y="0px"><g data-name="Envelope"><path d="M19,13a3,3,0,0,1,3-3H41.13L43,5.788V5a1,1,0,0,0-1-1H8A1,1,0,0,0,7,5v.787L10.384,13.4a1,1,0,0,0,.916.6H19Z"></path><path d="M19,16H11.3a3.006,3.006,0,0,1-2.744-1.784L7,10.714V46H19Z"></path><path d="M8,52H19V48H7v3A1,1,0,0,0,8,52Z"></path><path d="M48.2,16.4a1.036,1.036,0,0,1,1.6,0L51,18V12H47v6Z"></path><path d="M22,60H56a1,1,0,0,0,1-1V13a1,1,0,0,0-1-1H53v9a1,1,0,0,1-.684.949A1.019,1.019,0,0,1,52,22a1,1,0,0,1-.8-.4L49,18.667,46.8,21.6A1,1,0,0,1,45,21V12H22a1,1,0,0,0-1,1V59A1,1,0,0,0,22,60Zm31-6H45V52h8Zm0-10H45V42h8Zm0-8H43V34H53Zm0-6v2H37V30ZM31,18h8v2H31Zm-6,0h4v2H25Zm0,4H41v2H25Zm0,8H35v2H25Zm0,4H41v2H25Zm0,4H53v2H25Zm18,4v2H37V42ZM25,42H35v2H25Zm0,4H53v2H25Z"></path></g></svg>