<svg xmlns="http://www.w3.org/2000/svg" viewBox="0 0 64 64" x="0px" y="0px"><g data-name="Hospital"><path d="M60,60V20H43a1,1,0,0,1-1-1V4H22V60h9V49a1,1,0,0,1,1-1H50a1,1,0,0,1,1,1V60ZM24,22h2v2H24Zm0,4h2v2H24Zm0,4h2v2H24Zm0,4h2v2H24Zm0,4h2v2H24Zm0,4h2v2H24Zm5,16H24V56h5Zm0-4H24V52h5Zm0-4H24V48h5Zm1-6H28V42h2Zm0-4H28V38h2Zm0-4H28V34h2Zm0-4H28V30h2Zm0-4H28V26h2Zm0-4H28V22h2Zm4,20H32V42h2Zm0-4H32V38h2Zm0-4H32V34h2Zm0-4H32V30h2Zm0-4H32V26h2Zm0-4H32V22h2Zm4,20H36V42h2Zm0-4H36V38h2Zm0-4H36V34h2Zm0-4H36V30h2Zm0-4H36V26h2Zm0-4H36V22h2Zm0-11H33v5H31V13H26V11h5V6h2v5h5Zm4,31H40V42h2Zm0-4H40V38h2Zm0-4H40V34h2Zm0-4H40V30h2Zm0-4H40V26h2Zm0-4H40V22h2Zm4,20H44V42h2Zm0-4H44V38h2Zm0-4H44V34h2Zm0-4H44V30h2Zm0-4H44V26h2Zm0-4H44V22h2Zm4,20H48V42h2Zm0-4H48V38h2Zm0-4H48V34h2Zm0-4H48V30h2Zm0-4H48V26h2Zm0-4H48V22h2Zm8,34H53V56h5Zm0-4H53V52h5Zm0-4H53V48h5ZM56,22h2v2H56Zm0,4h2v2H56Zm0,4h2v2H56Zm0,4h2v2H56Zm0,4h2v2H56Zm0,4h2v2H56ZM52,22h2v2H52Zm0,4h2v2H52Zm0,4h2v2H52Zm0,4h2v2H52Zm0,4h2v2H52Zm0,4h2v2H52Z"></path><circle cx="12" cy="12" r="4"></circle><path d="M4,4V60H20V4ZM18,56H6V54H18Zm0-4H6V50H18Zm0-4H6V46H18Zm0-4H6V42H18Zm0-4H6V38H18Zm0-4H6V34H18Zm0-4H6V30H18Zm0-4H6V26H18Zm0-4H6V22H18Zm-6-6a6,6,0,1,1,6-6A6.006,6.006,0,0,1,12,18Z"></path><rect x="33" y="50" width="16" height="10"></rect></g></svg>