<svg xmlns="http://www.w3.org/2000/svg" viewBox="0 0 64 64" x="0px" y="0px"><g data-name="Timetable"><path d="M50,26A10,10,0,1,0,40,16,10.011,10.011,0,0,0,50,26ZM44,15h3.184A3,3,0,0,1,49,13.184V9h2v4.184A2.993,2.993,0,1,1,47.184,17H44Z"></path><path d="M4,54v3a1,1,0,0,0,1,1H59a1,1,0,0,0,1-1V54H38v1a2,2,0,0,1-2,2H28a2,2,0,0,1-2-2V54Z"></path><rect x="28" y="54" width="8" height="1"></rect><circle cx="50" cy="16" r="1"></circle><path d="M11,16a3,3,0,0,0-3,3v1h2v1h6V20h2v1h4a2,2,0,0,1,2,2V37a2,2,0,0,1-2,2H8V52H56V26.376A11.978,11.978,0,0,1,38,16H11Zm21,8h2v2H32Zm-4,0h2v2H28Zm0,20h2v2H28Zm-4,0h2v2H24ZM13,41h2v3h7v2H14a1,1,0,0,1-1-1Zm39,9H12V48H52ZM47,37h2V30h2v8a1,1,0,0,1-1,1H47Zm-2,1a8,8,0,1,1-8-8A8.009,8.009,0,0,1,45,38ZM38,26H36V24h2Z"></path><polygon points="10 23 10 24 8 24 8 23 4 23 4 25 22 25 22 23 18 23 18 24 16 24 16 23 10 23"></polygon><path d="M22,27H4V37H22ZM8,35H6V33H8Zm0-4H6V29H8Zm4,4H10V33h2Zm0-4H10V29h2Zm4,4H14V33h2Zm0-4H14V29h2Zm4,4H18V33h2Zm0-4H18V29h2Z"></path><path d="M31,38a6,6,0,1,0,6-6A6.006,6.006,0,0,0,31,38Zm9.707-1.293-4,4a1,1,0,0,1-1.414,0l-2-2,1.414-1.414L36,38.586l3.293-3.293Z"></path></g></svg>