<svg xmlns="http://www.w3.org/2000/svg" viewBox="0 0 64 64" x="0px" y="0px"><g data-name="Coding Process"><path d="M43,60H7a3,3,0,0,1-3-3V7A3,3,0,0,1,7,4H34v9a1,1,0,0,0,1.707.707L38,11.414l2.293,2.293A1,1,0,0,0,41,14a.987.987,0,0,0,.383-.076A1,1,0,0,0,42,13V4h1a3,3,0,0,1,3,3V43h2V7a5.006,5.006,0,0,0-5-5H7A5.006,5.006,0,0,0,2,7V57a5.006,5.006,0,0,0,5,5H43a5.006,5.006,0,0,0,5-5H46A3,3,0,0,1,43,60ZM40,4v6.586L38.707,9.293a1,1,0,0,0-1.414,0L36,10.586V4Z"></path><path d="M61,49H56a1,1,0,0,0-1-1H51.414l-3.707-3.707A1,1,0,0,0,47,44H39v2h7.586l2,2H17a1,1,0,0,0-.447.1l-4,2A1,1,0,0,0,12,51H8v2h4a1,1,0,0,0,.553.9l4,2A1,1,0,0,0,17,56H55a1,1,0,0,0,1-1h5a1,1,0,0,0,1-1V50A1,1,0,0,0,61,49ZM19,50H48v4H19Zm-5,2.382v-.764l3-1.5v3.764ZM50,54V50h4v4Zm10-1H56V51h4Z"></path><path d="M39,31a1,1,0,0,0,1-1V26a1,1,0,0,0-1-1H36.613a11.831,11.831,0,0,0-1.277-3.093l1.685-1.685a1,1,0,0,0,0-1.414l-2.829-2.829a1,1,0,0,0-1.414,0l-1.685,1.685A11.831,11.831,0,0,0,28,16.387V14a1,1,0,0,0-1-1H23a1,1,0,0,0-1,1v2.387a11.831,11.831,0,0,0-3.093,1.277l-1.685-1.685a1,1,0,0,0-1.414,0l-2.829,2.829a1,1,0,0,0,0,1.414l1.685,1.685A11.831,11.831,0,0,0,13.387,25H11a1,1,0,0,0-1,1v4a1,1,0,0,0,1,1h2.387a11.831,11.831,0,0,0,1.277,3.093l-1.685,1.685a1,1,0,0,0,0,1.414l2.829,2.829a1,1,0,0,0,1.414,0l1.685-1.686A11.8,11.8,0,0,0,22,39.613V42a1,1,0,0,0,1,1h4a1,1,0,0,0,1-1V39.613a11.8,11.8,0,0,0,3.093-1.278l1.685,1.686a1,1,0,0,0,1.414,0l2.829-2.829a1,1,0,0,0,0-1.414l-1.685-1.685A11.831,11.831,0,0,0,36.613,31Zm-4.174-1.181a9.881,9.881,0,0,1-1.589,3.845,1,1,0,0,0,.117,1.274L34.9,36.485,33.485,37.9l-1.546-1.545a1,1,0,0,0-1.274-.117,9.892,9.892,0,0,1-3.846,1.589A1,1,0,0,0,26,38.81V41H24V38.81a1,1,0,0,0-.819-.984,9.892,9.892,0,0,1-3.846-1.589,1,1,0,0,0-1.274.117L16.515,37.9,15.1,36.485l1.545-1.547a1,1,0,0,0,.117-1.274,9.881,9.881,0,0,1-1.589-3.845A1,1,0,0,0,14.19,29H12V27h2.19a1,1,0,0,0,.984-.819,9.881,9.881,0,0,1,1.589-3.845,1,1,0,0,0-.117-1.274L15.1,19.515,16.515,18.1l1.547,1.545a1,1,0,0,0,1.274.117,9.881,9.881,0,0,1,3.845-1.589A1,1,0,0,0,24,17.19V15h2v2.19a1,1,0,0,0,.819.984,9.881,9.881,0,0,1,3.845,1.589,1,1,0,0,0,1.274-.117L33.485,18.1,34.9,19.515l-1.545,1.547a1,1,0,0,0-.117,1.274,9.881,9.881,0,0,1,1.589,3.845A1,1,0,0,0,35.81,27H38v2H35.81A1,1,0,0,0,34.826,29.819Z"></path><path d="M25,21a7,7,0,1,0,7,7A7.009,7.009,0,0,0,25,21Zm0,12a5,5,0,1,1,5-5A5.006,5.006,0,0,1,25,33Z"></path><rect x="8" y="8" width="2" height="2"></rect><rect x="12" y="8" width="2" height="2"></rect><rect x="16" y="8" width="2" height="2"></rect></g></svg>