<svg xmlns="http://www.w3.org/2000/svg" viewBox="0 0 64 64" x="0px" y="0px"><title>Credit Card-Payment_2</title><g data-name="Credit Card-Payment"><path d="M58,12H38V10a3,3,0,0,0-3-3H30V3a1,1,0,0,0-1-1H13a1,1,0,0,0-1,1V7H7a3,3,0,0,0-3,3V37a1,1,0,0,0,.293.707L7,40.414V60a2,2,0,0,0,2,2H33a2,2,0,0,0,2-2V40.414l2.707-2.707A1,1,0,0,0,38,37V36H58a2,2,0,0,0,2-2V14A2,2,0,0,0,58,12ZM14,4H28v8H14ZM9,60V41H33V60ZM36,36.586,33.586,39H8.414L6,36.586V10A1,1,0,0,1,7,9h5v3H10v2H32V12H30V9h5a1,1,0,0,1,1,1ZM38,34V14H58V34Z"></path><path d="M52,16a3.978,3.978,0,0,0-2,.546,4,4,0,1,0,0,6.909A4,4,0,1,0,52,16Zm-6,4a2,2,0,0,1,3.343-1.477,1.987,1.987,0,0,1-.014,2.965A1.975,1.975,0,0,1,48,22,2,2,0,0,1,46,20Zm6,2a1.968,1.968,0,0,1-.5-.063c.039-.071.069-.147.1-.22.02-.042.041-.083.06-.126a4.007,4.007,0,0,0,.226-.69c.01-.045.017-.091.026-.136A4.052,4.052,0,0,0,52,20a3.96,3.96,0,0,0-.081-.763c-.009-.047-.016-.093-.026-.14a4.008,4.008,0,0,0-.223-.68c-.021-.049-.045-.1-.068-.145-.034-.069-.062-.141-.1-.209A1.968,1.968,0,0,1,52,18a2,2,0,0,1,0,4Z"></path><path d="M32,19H10a1,1,0,0,0-1,1V32a1,1,0,0,0,1,1H32a1,1,0,0,0,1-1V20A1,1,0,0,0,32,19ZM31,31H11V21H31Z"></path><path d="M16,43H12a1,1,0,0,0-1,1v4a1,1,0,0,0,1,1h4a1,1,0,0,0,1-1V44A1,1,0,0,0,16,43Zm-1,4H13V45h2Z"></path><path d="M23,43H19a1,1,0,0,0-1,1v4a1,1,0,0,0,1,1h4a1,1,0,0,0,1-1V44A1,1,0,0,0,23,43Zm-1,4H20V45h2Z"></path><path d="M30,43H26a1,1,0,0,0-1,1v4a1,1,0,0,0,1,1h4a1,1,0,0,0,1-1V44A1,1,0,0,0,30,43Zm-1,4H27V45h2Z"></path><path d="M16,51H12a1,1,0,0,0-1,1v4a1,1,0,0,0,1,1h4a1,1,0,0,0,1-1V52A1,1,0,0,0,16,51Zm-1,4H13V53h2Z"></path><path d="M23,51H19a1,1,0,0,0-1,1v4a1,1,0,0,0,1,1h4a1,1,0,0,0,1-1V52A1,1,0,0,0,23,51Zm-1,4H20V53h2Z"></path><path d="M30,51H26a1,1,0,0,0-1,1v4a1,1,0,0,0,1,1h4a1,1,0,0,0,1-1V52A1,1,0,0,0,30,51Zm-1,4H27V53h2Z"></path><rect x="40" y="28" width="16" height="2"></rect><rect x="20" y="25" width="2" height="2"></rect><rect x="24" y="25" width="2" height="2"></rect><rect x="16" y="25" width="2" height="2"></rect></g></svg>