<svg xmlns="http://www.w3.org/2000/svg" viewBox="0 0 64 64" x="0px" y="0px"><g><path d="M48.305,41.684,39,39.229V36.106A14.029,14.029,0,0,0,45.668,27H46a4,4,0,0,0,0-8V18a14,14,0,0,0-.159-2H52V14H45.847L43.986,2.836A1,1,0,0,0,43,2H21a1,1,0,0,0-.986.836L18.153,14H12v2h6.159A14,14,0,0,0,18,18v1a4,4,0,0,0,0,8h.332A14.029,14.029,0,0,0,25,36.106v3.123l-9.3,2.454A12.991,12.991,0,0,0,6,54.25V61a1,1,0,0,0,1,1H57a1,1,0,0,0,1-1V54.25A12.989,12.989,0,0,0,48.305,41.684Zm-9.137,7.871,1.6,2.4L34.51,60h-.993L40.94,42.688,42.67,47.3l-2.913.728a1,1,0,0,0-.589,1.525ZM24.933,48.64a1,1,0,0,0-.69-.61L21.33,47.3l1.73-4.614L30.483,60H29.49l-6.258-8.045,1.6-2.4A1,1,0,0,0,24.933,48.64Zm14.39-7.257L32,58.463l-7.324-17.08.445-.117a6.993,6.993,0,0,0,13.758,0ZM41.858,19A3.992,3.992,0,0,0,34,20H33v4a1,1,0,0,1-2,0V20H30a3.992,3.992,0,0,0-7.858-1H20V18a11.961,11.961,0,0,1,.167-2H43.833A11.961,11.961,0,0,1,44,18v1ZM40,20a2,2,0,1,1-2-2A2,2,0,0,1,40,20ZM28,20a2,2,0,1,1-2-2A2,2,0,0,1,28,20Zm20,3a2,2,0,0,1-2,2V21A2,2,0,0,1,48,23ZM21.847,4H42.153L43.82,14H20.18ZM18,25a2,2,0,0,1,0-4v4Zm2-1V21h2.142A3.968,3.968,0,0,0,29,22.618V24a3,3,0,0,0,6,0V22.618A3.968,3.968,0,0,0,41.858,21H44v3a12,12,0,0,1-24,0ZM32,38a13.894,13.894,0,0,0,5-.939V40a5,5,0,0,1-10,0V37.061A13.894,13.894,0,0,0,32,38ZM8,54.25a10.99,10.99,0,0,1,8.2-10.633l4.85-1.279-1.992,5.31a1,1,0,0,0,.694,1.322l2.624.656-1.213,1.819a1,1,0,0,0,.042,1.169L26.955,60H19V53H17v7H8ZM56,60H47V53H45v7H37.045l5.745-7.386a1,1,0,0,0,.042-1.169l-1.213-1.819,2.624-.656a1,1,0,0,0,.694-1.322l-1.992-5.31,4.852,1.28A10.989,10.989,0,0,1,56,54.25Z"></path><path d="M37.62,19.08a.9.9,0,0,0-.54.54.943.943,0,0,0,0,.76,1.169,1.169,0,0,0,.21.33,1.155,1.155,0,0,0,.33.21.99.99,0,0,0,1.3-1.3,1.032,1.032,0,0,0-.21-.33,1.155,1.155,0,0,0-.33-.21A.916.916,0,0,0,37.62,19.08Z"></path><path d="M25.29,19.29a1.032,1.032,0,0,0-.21.33.99.99,0,0,0,.21,1.09,1.155,1.155,0,0,0,.33.21.943.943,0,0,0,.76,0,1.155,1.155,0,0,0,.33-.21.99.99,0,0,0,.21-1.09,1.032,1.032,0,0,0-.21-.33A1.047,1.047,0,0,0,25.29,19.29Z"></path><path d="M37.953,29.655l-1.511-1.31A5.992,5.992,0,0,1,32,30a5.992,5.992,0,0,1-4.442-1.655l-1.511,1.31A7.9,7.9,0,0,0,32,32,7.9,7.9,0,0,0,37.953,29.655Z"></path></g></svg>