<svg xmlns="http://www.w3.org/2000/svg" viewBox="0 0 64 64" x="0px" y="0px"><g><path d="M35,50a2.966,2.966,0,0,1-.184,1H60V16H59V48a1,1,0,0,1-1,1H35Z"></path><path d="M12,17a1,1,0,0,0-1,1v1h2V18A1,1,0,0,0,12,17Z"></path><path d="M51.293,15.293a1,1,0,0,1,1.414,0l.293.293V13H51v2.586Z"></path><polygon points="12 41.308 12.923 39 11.077 39 12 41.308"></polygon><rect x="11" y="21" width="2" height="16"></rect><path d="M4,16V51H29.184A2.966,2.966,0,0,1,29,50V49H6a1,1,0,0,1-1-1V16Z"></path><path d="M35,13V47H57V13H55v5a1,1,0,0,1-1.707.707L52,17.414l-1.293,1.293A1,1,0,0,1,49,18V13Zm6,31H39V42h2Zm6,1H45V43h2Zm6-1H51V42h2ZM49.127,21.237A10.724,10.724,0,0,1,51,27.379V30.03a3.012,3.012,0,0,1,2.423,1.917L55.43,37.3A2,2,0,0,1,53.557,40H50a1,1,0,0,1-.9-.553l-.52-1.04-.636,1.909A1,1,0,0,1,47,41H45a1,1,0,0,1-.949-.684l-.636-1.909-.52,1.04A1,1,0,0,1,42,40H38.443a2,2,0,0,1-1.873-2.7l2.007-5.351A3.012,3.012,0,0,1,41,30.03V27.379a10.719,10.719,0,0,1,1.873-6.141Q46,16.72,49.127,21.237Z"></path><path d="M46,21c-.2,0-.73.29-1.482,1.376a8.734,8.734,0,0,0-1.518,5V36h2V30h2v6h2V27.379a8.734,8.734,0,0,0-1.518-5C46.73,21.29,46.2,21,46,21Zm1.553,5.9L46,26.118l-1.553.777-.894-1.79,2-1a1,1,0,0,1,.894,0l2,1Z"></path><path d="M29,13H7V47H29ZM17,17h6v2H17ZM15,39a1.012,1.012,0,0,1-.071.372l-2,5a1,1,0,0,1-1.858,0l-2-5A1.012,1.012,0,0,1,9,39V18a3,3,0,0,1,6,0Zm12,4H17V41H27Zm0-4H17V37H27Zm0-4H17V33H27Zm0-4H17V29H27Zm0-4H17V25H27Zm0-4H17V21H27Zm0-4H25V17h2Z"></path><path d="M33,50V15H31V50a1,1,0,0,0,2,0Z"></path><path d="M41,37V32.089a1,1,0,0,0-.551.56L38.443,38h2.939l.087-.174A.982.982,0,0,1,41,37Z"></path><polygon points="45.721 39 46.279 39 46.613 38 45.387 38 45.721 39"></polygon><path d="M53.557,38,51.55,32.649a.993.993,0,0,0-.55-.56V37a.982.982,0,0,1-.469.826l.087.174Z"></path></g></svg>