<svg xmlns="http://www.w3.org/2000/svg" viewBox="0 0 64 64" x="0px" y="0px"><g><circle cx="32" cy="19" r="1"></circle><path d="M42.288,35.694A.978.978,0,0,0,43,36a1,1,0,0,0,1-1V29a11.018,11.018,0,0,0-5.042-9.251,6.91,6.91,0,0,1-.556,2.07A9.03,9.03,0,0,1,42,29v6A.957.957,0,0,0,42.288,35.694Z"></path><path d="M32,14a5,5,0,1,0,5,5A5.006,5.006,0,0,0,32,14Zm0,8a3,3,0,1,1,3-3A3,3,0,0,1,32,22Z"></path><rect x="24" y="4" width="16" height="5"></rect><path d="M25.6,21.819a6.91,6.91,0,0,1-.556-2.07A11.018,11.018,0,0,0,20,29v6a.957.957,0,0,0,.288.694A.978.978,0,0,0,21,36a1,1,0,0,0,1-1V29A9.03,9.03,0,0,1,25.6,21.819Z"></path><path d="M36,13.264V11H28v2.264a6.961,6.961,0,0,1,8,0Z"></path><path d="M32,41a8,8,0,1,0,8,8A8.009,8.009,0,0,0,32,41Zm-5,9H25V48h2Zm5-2a2.993,2.993,0,0,1,1,5.816V55H31V53.816A3,3,0,0,1,29,51h2a1,1,0,1,0,1-1,2.993,2.993,0,0,1-1-5.816V43h2v1.184A3,3,0,0,1,35,47H33a1,1,0,1,0-1,1Zm5,2V48h2v2Z"></path><path d="M32,38A11,11,0,1,0,43,49,11.013,11.013,0,0,0,32,38Zm0,21A10,10,0,1,1,42,49,10.011,10.011,0,0,1,32,59Z"></path><rect x="53" y="45" width="2" height="2"></rect><rect x="55" y="47" width="2" height="2"></rect><rect x="51" y="47" width="2" height="2"></rect><rect x="53" y="49" width="2" height="2"></rect><rect x="9" y="35" width="2" height="2"></rect><rect x="11" y="37" width="2" height="2"></rect><rect x="7" y="37" width="2" height="2"></rect><rect x="9" y="39" width="2" height="2"></rect><rect x="13" y="55" width="2" height="2"></rect><rect x="15" y="57" width="2" height="2"></rect><rect x="11" y="57" width="2" height="2"></rect><rect x="13" y="59" width="2" height="2"></rect><rect x="56" y="25" width="2" height="2"></rect><rect x="58" y="27" width="2" height="2"></rect><rect x="54" y="27" width="2" height="2"></rect><rect x="56" y="29" width="2" height="2"></rect></g></svg>