<svg xmlns="http://www.w3.org/2000/svg" viewBox="0 0 64 64" x="0px" y="0px"><g><path d="M59,39a1,1,0,0,0,1-1V29H44v4h5a1,1,0,0,1,1,1v2a1,1,0,0,0,2,0V35a3,3,0,0,1,6,0v3A1,1,0,0,0,59,39Z"></path><path d="M20,34.57V37a3,3,0,0,0,6,0V34.57a10.68,10.68,0,0,1-6,0Z"></path><path d="M11,49a1,1,0,0,0,1-1V40a1,1,0,0,0-2,0v8A1,1,0,0,0,11,49Z"></path><path d="M34,26h-.19a11.061,11.061,0,0,1-5.17,7.43A1.956,1.956,0,0,0,30,34a1.99,1.99,0,0,0,1.92-1.48,1.071,1.071,0,0,1,.52-.64,1.085,1.085,0,0,1,.83-.03A1.835,1.835,0,0,0,34,32a2.006,2.006,0,0,0,2-2,1.965,1.965,0,0,0-.63-1.45,1,1,0,0,1,.33-1.68A1.991,1.991,0,0,0,37,25a1.861,1.861,0,0,0-.04-.34,1.092,1.092,0,0,1-.13.17A4,4,0,0,1,34,26Z"></path><path d="M12.13,15.1a1.006,1.006,0,0,0-.01.91l.1.2a1.006,1.006,0,0,0,1.08.54l7.37-1.34a12.589,12.589,0,0,1,4.66,0l7.37,1.34a1.006,1.006,0,0,0,1.08-.54l.1-.21a1,1,0,0,0-.74-1.43l-7.86-1.21a15.374,15.374,0,0,0-4.56,0l-7.86,1.21A.978.978,0,0,0,12.13,15.1Z"></path><path d="M34,20v4a2.015,2.015,0,0,0,2-2A2.006,2.006,0,0,0,34,20Z"></path><path d="M32,24V18.65l-7.03-1.27a11.1,11.1,0,0,0-3.94-.01L14,18.65V24a9.022,9.022,0,0,0,5.21,8.16A8.989,8.989,0,0,0,32,24ZM19,23a2,2,0,1,1,2-2A2,2,0,0,1,19,23Zm4,6a4.994,4.994,0,0,1-3.307-1.25l1.323-1.5a3.076,3.076,0,0,0,3.968,0l1.323,1.5A4.994,4.994,0,0,1,23,29Zm4-6a2,2,0,1,1,2-2A2,2,0,0,1,27,23Z"></path><path d="M25.58,11.39l6.42.98V8.28a3.016,3.016,0,0,0-2.42-2.94L24.37,4.29a7.478,7.478,0,0,0-2.75,0L16.47,5.33A3.03,3.03,0,0,0,14,8.28v4.09l6.42-.98A16.537,16.537,0,0,1,25.58,11.39Z"></path><path d="M32,46V40a2.206,2.206,0,0,1,.04-.37L27.81,38.3a4.976,4.976,0,0,1-9.62,0l-4.23,1.33A2.206,2.206,0,0,1,14,40v6Z"></path><path d="M9.04,24.66A1.861,1.861,0,0,0,9,25a1.991,1.991,0,0,0,1.3,1.87,1,1,0,0,1,.33,1.68A1.965,1.965,0,0,0,10,30a2.006,2.006,0,0,0,2,2,1.835,1.835,0,0,0,.73-.15,1.085,1.085,0,0,1,.83.03,1.071,1.071,0,0,1,.52.64A1.99,1.99,0,0,0,16,34a1.956,1.956,0,0,0,1.36-.57,10.717,10.717,0,0,1-2.14-1.65A10.943,10.943,0,0,1,12.19,26H12a4,4,0,0,1-2.83-1.17A1.092,1.092,0,0,1,9.04,24.66Z"></path><path d="M36,40a1,1,0,0,0-2,0v8a1,1,0,0,0,2,0Z"></path><path d="M12,24V20a2.006,2.006,0,0,0-2,2,2.015,2.015,0,0,0,2,2Z"></path><path d="M42,56H37.72a8.8,8.8,0,0,1-1.24,2.76A2.652,2.652,0,0,0,36.03,60H42Z"></path><path d="M42,47.88a6.947,6.947,0,0,0-4-6.31V48a3.005,3.005,0,0,1-.97,2.2A8.64,8.64,0,0,1,38,54h4Z"></path><path d="M4,54H8a8.64,8.64,0,0,1,.97-3.8A3.005,3.005,0,0,1,8,48V41.57a6.947,6.947,0,0,0-4,6.31Z"></path><path d="M4,60H9.97a2.673,2.673,0,0,0-.44-1.23A8.778,8.778,0,0,1,8.28,56H4Z"></path><path d="M36,54a6.618,6.618,0,0,0-.82-3.02A1.1,1.1,0,0,1,35,51a3.009,3.009,0,0,1-3-3H14a3.009,3.009,0,0,1-3,3,1.1,1.1,0,0,1-.18-.02A6.618,6.618,0,0,0,10,54a4.465,4.465,0,0,0,.07.82,6.982,6.982,0,0,0,1.11,2.82A4.68,4.68,0,0,1,11.97,60H34.03a4.759,4.759,0,0,1,.8-2.37,6.891,6.891,0,0,0,1.09-2.78A4.208,4.208,0,0,0,36,54Z"></path><rect x="50" y="50" width="4" height="10"></rect><rect x="50" y="46" width="4" height="2"></rect><path d="M54,60H50V50h4Zm0-14v2H50V46Z"></path><path d="M53,44H51V42.618L39.553,36.9A1,1,0,0,1,39,36V31a1,1,0,0,1,1-1h2v2H41v3.382l11.447,5.723A1,1,0,0,1,53,42Z"></path></g></svg>