<svg xmlns="http://www.w3.org/2000/svg" viewBox="0 0 64 64" x="0px" y="0px"><g data-name="Unprotect Sex"><path d="M34.55,35.035,50.035,19.55A10.995,10.995,0,0,0,34.55,35.035Z"></path><path d="M22,16V56H42V40.947a12.984,12.984,0,0,1-.046-25.891A9.985,9.985,0,0,0,33.8,6.171a1,1,0,0,1-.817-1.077c0-.013.011-.091.013-.1A1,1,0,0,0,31,5a1.089,1.089,0,0,1-.8,1.171A9.986,9.986,0,0,0,22,16Z"></path><rect x="18" y="58" width="28" height="2"></rect><path d="M51.45,20.965,35.965,36.45A10.995,10.995,0,0,0,51.45,20.965Z"></path></g></svg>