<svg xmlns="http://www.w3.org/2000/svg" viewBox="0 0 64 64" x="0px" y="0px"><g><rect x="32" y="42" width="6" height="8"></rect><rect x="44" y="58" width="14" height="2"></rect><path d="M42,26a6.006,6.006,0,0,0-6,6v3h6Z"></path><rect x="6" y="33" width="28" height="2"></rect><rect x="18" y="42" width="8" height="14"></rect><polygon points="26 22 14 22 14 24 42 24 42 22 30 22 26 22"></polygon><path d="M34.062,31a8,8,0,0,1,2.652-5H12a6.01,6.01,0,0,0-5.917,5Z"></path><rect x="11" y="58" width="31" height="2"></rect><path d="M42,37H14V56h2V41a1,1,0,0,1,1-1H27a1,1,0,0,1,1,1V56H42ZM40,51a1,1,0,0,1-1,1H31a1,1,0,0,1-1-1V41a1,1,0,0,1,1-1h8a1,1,0,0,1,1,1Z"></path><rect x="44" y="22" width="12" height="34"></rect><rect x="50" y="4" width="2" height="8"></rect><polygon points="48 12 48 4 18 4 18 12 26 12 30 12 44 12 48 12"></polygon><rect x="45" y="14" width="2" height="6"></rect><rect x="41" y="14" width="2" height="6"></rect><rect x="23" y="14" width="2" height="6"></rect><rect x="27" y="14" width="2" height="6"></rect></g></svg>