<svg xmlns="http://www.w3.org/2000/svg" viewBox="0 0 64 64" x="0px" y="0px"><g><path d="M45,29a12.985,12.985,0,0,0-23.489-7.648l2.554,2.919A8.982,8.982,0,0,1,31,21a1,1,0,0,1,1,1v7h7a1,1,0,0,1,1,1,8.967,8.967,0,0,1-11.282,8.7L26.6,40.812A12.974,12.974,0,0,0,45,29ZM34,28a1,1,0,0,1-1-1V19a1,1,0,0,1,1-1,9.01,9.01,0,0,1,9,9,1,1,0,0,1-1,1Z"></path><path d="M20.414,23.135A12.949,12.949,0,0,0,24.782,39.8L26.689,37.9A8.965,8.965,0,0,1,22.94,26.021Z"></path><path d="M53.619,50.627a.982.982,0,0,0,.3-.707.971.971,0,0,0-.3-.7L43.275,38.861a15.24,15.24,0,0,1-1.415,1.415L52.217,50.623A1,1,0,0,0,53.619,50.627Z"></path><path d="M35,20.071V26h5.929A7.016,7.016,0,0,0,35,20.071Z"></path><path d="M31,37a7.011,7.011,0,0,0,6.929-6H31.414l-4.6,4.6a6.983,6.983,0,0,0,1.367.8l2.11-2.11,1.414,1.414-1.265,1.265C30.627,36.986,30.812,37,31,37Z"></path><rect x="27" y="48" width="10.001" height="1"></rect><path d="M58,15a3,3,0,0,0-3-3H9a3,3,0,0,0-3,3V46H44.76l-4.5-4.493a14.918,14.918,0,0,1-15.157.8l-.4.4A1,1,0,0,1,24,43H19V41h4.038a14.92,14.92,0,0,1-4.027-19.469L18.546,21H16V19h3a1,1,0,0,1,.752.342l.415.473a14.984,14.984,0,0,1,24.34,17.448L53.236,46H58ZM10,17h4v2H10Zm0,3h4v2H10Zm5,24H11V42h4Zm0-3H11V39h4ZM50,21H46V19h4Zm0-3H46V16h4Z"></path><path d="M59,52a1,1,0,0,0,1-1V48H55.2a2.937,2.937,0,0,1-.133,4Z"></path><path d="M5,48H4v3a1,1,0,0,0,1,1H50.765l-4-4H39v1a2,2,0,0,1-2,2H27a2,2,0,0,1-2-2V48Z"></path><path d="M24.4,27.688a6.928,6.928,0,0,0,1,6.5l4.6-4.6V23.071A7,7,0,0,0,25.406,25.8l1.346,1.539-1.5,1.316Z"></path></g></svg>