<svg xmlns="http://www.w3.org/2000/svg" viewBox="0 0 64 64" x="0px" y="0px"><g data-name="Flat Tyre"><rect x="39.14" y="33.688" width="2" height="4" transform="translate(-1.978 69.018) rotate(-79.997)"></rect><path d="M52.119,51.926l1.025-.373-.684-1.879-1.021.372a6,6,0,0,0-.648-.925l.7-.833L49.957,47l-.7.836a5.946,5.946,0,0,0-1.021-.477l.189-1.074-1.969-.347-.189,1.072a6.04,6.04,0,0,0-1.125.1l-.371-1.021-1.879.683.37,1.02q-.245.138-.479.3c-.155.109-.283.244-.426.365l-.851-.715L40.22,49.273l.841.707A5.9,5.9,0,0,0,40.585,51L39.5,50.807l-.348,1.97,1.075.189a5.976,5.976,0,0,0,.1,1.123l-1.024.373.683,1.879,1.021-.372a6.128,6.128,0,0,0,.648.926l-.7.832,1.531,1.286.7-.836a5.946,5.946,0,0,0,1.021.477l-.189,1.074,1.969.346L46.182,59c.018,0,.036.005.054.005a5.981,5.981,0,0,0,1.07-.107l.373,1.025,1.879-.683-.376-1.034c.162-.093.328-.179.484-.288s.283-.243.426-.364l.852.715,1.285-1.532-.841-.707a5.925,5.925,0,0,0,.475-1.017l1.081.191.348-1.97-1.074-.189A5.887,5.887,0,0,0,52.119,51.926Zm-5.9-2.92a4.081,4.081,0,0,1,.7.062,3.977,3.977,0,1,1-.7-.062Z"></path><rect x="45.224" y="52.007" width="2" height="2" transform="translate(-14.011 89.314) rotate(-79.99)"></rect><path d="M60.3,36.247a6.953,6.953,0,0,0-4.518-2.879l-3.413-.6L46.2,18.708a4.992,4.992,0,0,0-3.71-2.915L17.022,11.3a5.007,5.007,0,0,0-5.792,4.055L6.89,39.979a3,3,0,0,0,2.433,3.476l.827.145a1,1,0,0,0,1.006-.432,8.994,8.994,0,0,1,16.238,2.863,1,1,0,0,0,.8.75l3.547.626-2.657,6.2a1,1,0,0,0,0,.788L31.484,60H27v2H39V60H34.516l2.4-5.606a1,1,0,0,0,0-.788l-2.451-5.718,3.257.574a.991.991,0,0,0,1.006-.432,8.993,8.993,0,0,1,16.237,2.863,1,1,0,0,0,.8.751l.827.146a3.093,3.093,0,0,0,.522.045,3,3,0,0,0,2.953-2.479l1.389-7.878A6.951,6.951,0,0,0,60.3,36.247ZM31.516,53,33,49.539,34.484,53Zm2.968,2L33,58.461,31.516,55Zm9.883-35.488L50,32.349l-12.932-2.28,2.257-12.8,2.817.5A2.991,2.991,0,0,1,44.367,19.512ZM13.2,15.706a3,3,0,0,1,3.476-2.434l20.682,3.647L35.1,29.722,11.463,25.554ZM10.421,31.463l.985.174-.346,1.969-.986-.174ZM9.873,41.521l-.2-.036a1.007,1.007,0,0,1-.812-1.158l.174-.985,2.513.442A10.925,10.925,0,0,0,9.873,41.521ZM20.56,37.312a10.993,10.993,0,0,0-8.48,2.021l.254-1.44-2.955-.521.348-1.97.984.174a2.109,2.109,0,0,0,.352.03,2,2,0,0,0,1.966-1.653l.346-1.968a2,2,0,0,0-1.621-2.318l-.986-.174.348-1.969,23.636,4.168L32.321,45.479l-3.159-.558A11,11,0,0,0,20.56,37.312Zm27.575,4.862a10.991,10.991,0,0,0-10.687,4.209l-3.158-.557,2.431-13.787,18.712,3.3a4.967,4.967,0,0,1,3.227,2.056A5.066,5.066,0,0,1,59,38l-2.931-.517A2,2,0,0,0,53.753,39.1l-.348,1.969a2,2,0,0,0,1.622,2.317l3.94.7-.347,1.969-2.954-.521-.254,1.44A10.985,10.985,0,0,0,48.135,42.174ZM59.488,41.13l-.173.985-3.94-.7.348-1.969,3.839.677A5.065,5.065,0,0,1,59.488,41.13ZM56.94,49.82l-.2-.036a10.858,10.858,0,0,0-.976-2.2l2.513.443-.173.984A1,1,0,0,1,56.94,49.82Z"></path><path d="M17,52H5a3,3,0,0,0-3,3v4a3,3,0,0,0,3,3H17a3,3,0,0,0,3-3V55A3,3,0,0,0,17,52Zm-2.06,5.116L14.22,60H12.28l.69-2.757a1,1,0,0,0-.075-.69L11.618,54h1.764ZM8.9,56.553,7.618,54H9.382l1.558,3.116L10.22,60H8.28l.69-2.757A1,1,0,0,0,8.9,56.553ZM4,59V55a1,1,0,0,1,1-1h.382L6.94,57.116,6.22,60H5A1,1,0,0,1,4,59Zm14,0a1,1,0,0,1-1,1h-.72l.69-2.757a1,1,0,0,0-.075-.69L15.618,54H17a1,1,0,0,1,1,1Z"></path><rect x="9" y="46" width="2" height="4"></rect><rect x="12.438" y="47" width="4.123" height="1.999" transform="translate(-35.584 50.425) rotate(-75.964)"></rect><rect x="4.5" y="45.938" width="1.999" height="4.123" transform="translate(-11.477 2.767) rotate(-14.036)"></rect></g></svg>