<svg xmlns="http://www.w3.org/2000/svg" viewBox="0 0 64 64" x="0px" y="0px"><g><rect x="22.851" y="17.876" width="2" height="2" transform="translate(-1.559 2.157) rotate(-5.015)"></rect><rect x="17.397" y="24.376" width="2" height="2" transform="translate(-2.136 1.695) rotate(-4.987)"></rect><rect x="21.904" y="30.004" width="2" height="2" transform="translate(-2.608 2.108) rotate(-4.987)"></rect><rect x="17.318" y="46.379" width="4" height="2" transform="translate(-4.045 1.859) rotate(-4.987)"></rect><rect x="25.287" y="45.682" width="4" height="2" transform="translate(-3.954 2.549) rotate(-4.987)"></rect><rect x="21.652" y="50.015" width="4" height="2" transform="translate(-4.369 2.263) rotate(-5.015)"></rect><path d="M38,26A16,16,0,1,0,22,42,16.019,16.019,0,0,0,38,26Zm-2,0A13.991,13.991,0,0,1,13.148,36.836a1.122,1.122,0,0,0,.141.024c.029,0,.059,0,.088,0l17.931-1.57a1,1,0,0,0,.912-1.024L31.7,15.93A13.948,13.948,0,0,1,36,26ZM22,12a13.908,13.908,0,0,1,7.655,2.293l.087,3.063-2.99.262.175,1.992,2.871-.251.113,4.006-8.613.753.175,1.992,8.5-.743.113,4.006-4.275.374.174,1.992,4.157-.364.057,2L14.079,34.787l-.432-1.969L20,32.262l-.174-1.992-6.614.578-.863-3.94,3.144-.275-.175-1.992-3.4.3L11.056,21l9.893-.865-.174-1.992-10.151.888-.2-.9A13.992,13.992,0,0,1,22,12ZM8,26a13.906,13.906,0,0,1,.983-5.12l3.33,15.194.006.016A13.951,13.951,0,0,1,8,26Z"></path><path d="M55.94,52.875,39.211,36.137a19.936,19.936,0,0,0-9.27-28.484A11.928,11.928,0,0,0,17.1,2.044l-.893.2a10.953,10.953,0,0,0-8.64,9.946,19.939,19.939,0,0,0,5.412,31.638l.272,3.079A10,10,0,0,0,23.2,56.035c.293,0,.588-.013.883-.039a10.011,10.011,0,0,0,9.09-10.834l-.089-1L48.871,59.935A4.945,4.945,0,0,0,52.4,61.407h0a5,5,0,0,0,3.535-8.532ZM45.334,45.093l1.414,1.414-4.241,4.241-1.414-1.414ZM39.678,47.92l-1.415-1.414,4.243-4.243,1.414,1.415Zm8.483,0,1.414,1.414-4.238,4.239-1.415-1.414Zm2.828,2.829L52.4,52.165,48.166,56.4l-1.415-1.414Zm-9.9-9.9-4.243,4.244-3.011-3.01a20.1,20.1,0,0,0,4.245-4.245ZM16.637,4.2,17.53,4a9.937,9.937,0,0,1,9,2.539,19.727,19.727,0,0,0-16.491,3.471A8.976,8.976,0,0,1,16.637,4.2ZM4,26A18,18,0,1,1,22,44,18.021,18.021,0,0,1,4,26ZM23.914,54a8,8,0,0,1-8.668-7.272l-.176-2a19.735,19.735,0,0,0,15.979-.923l.135,1.523A8.01,8.01,0,0,1,23.914,54Zm30.607,4.521a2.963,2.963,0,0,1-2.116.882h0a2.964,2.964,0,0,1-2.119-.886l-.7-.7,4.236-4.236.708.709a2.979,2.979,0,0,1,0,4.236Z"></path><rect x="36" y="4" width="2" height="2"></rect><rect x="45" y="7" width="2" height="2"></rect><rect x="45" y="18" width="2" height="2"></rect><rect x="4" y="47" width="2" height="2"></rect><rect x="7" y="43" width="2" height="2"></rect><rect x="8" y="57" width="2" height="2"></rect><rect x="35" y="53" width="2" height="2"></rect><rect x="30" y="59" width="2" height="2"></rect></g></svg>