<svg xmlns="http://www.w3.org/2000/svg" viewBox="0 0 64 64" x="0px" y="0px"><g data-name="Graphic tablet-Designer"><circle cx="10" cy="27" r="2"></circle><path d="M5,44H59a1,1,0,0,0,1-1V11a1,1,0,0,0-1-1H5a1,1,0,0,0-1,1V43A1,1,0,0,0,5,44Zm7-3H8V39h4Zm0-3H8V36h4Zm0-3H8V33h4ZM50,13h3a1,1,0,0,1,1,1v3H52V15H50Zm0,26h2V37h2v3a1,1,0,0,1-1,1H50ZM16,14a1,1,0,0,1,1-1h3v2H18v2H16Zm0,23h2v2h2v2H17a1,1,0,0,1-1-1ZM8,13h4v2H8Zm0,3h4v2H8Zm0,3h4v2H8Zm2,4a4,4,0,1,1-4,4A4,4,0,0,1,10,23Z"></path><path d="M51,51H50v2h1a1,1,0,0,0,0-2Z"></path><rect x="22" y="51" width="26" height="2"></rect><path d="M17.236,51H16a1,1,0,0,0,0,2h1.236L19,53.882l1-.5V50.618l-1-.5Z"></path></g></svg>