<svg xmlns="http://www.w3.org/2000/svg" viewBox="0 0 64 64" x="0px" y="0px"><g data-name="Shopping-Sale-Discount-Shopping Cart-Ecommerce"><path d="M4,37a1,1,0,0,0,2,0V30.66a1.033,1.033,0,0,1,.29-.71l1.89-1.88L6.76,26.65,4.88,28.54A2.956,2.956,0,0,0,4,30.66Z"></path><path d="M9.59,26.66l.7-.71a1,1,0,0,1,1.09-.21.987.987,0,0,1,.62.92V34H22V22H12.66a3,3,0,0,0-2.12.88L8.17,25.24Z"></path><path d="M31.03,31.66a.98.98,0,0,0,.73.22.948.948,0,0,0,.68-.35,1.005,1.005,0,0,0-.12-1.41l-4.6-3.85L26.44,27.8Z"></path><path d="M21,49v7h2V46.37l-5.76-6.72,1.52-1.3L22,42.13V36H12v3.59l8.71,8.7A1.052,1.052,0,0,1,21,49Z"></path><path d="M27,59a1,1,0,0,0-1-1H21v2h6Z"></path><polygon points="24 23.14 24 25.75 24.9 26.51 26.19 24.98 24 23.14"></polygon><path d="M14,48a1.033,1.033,0,0,1-.29.71L8.41,54l1.14,1.14,8.2-6.98L14,44.41Z"></path><path d="M9.88,59.71a1.008,1.008,0,0,0,0-1.42L7,55.41,5.41,57,9,60.59Z"></path><path d="M47,6a7,7,0,1,0,7,7A7.008,7.008,0,0,0,47,6ZM44.171,8.758l1.415,1.414-1.414,1.414-1.415-1.414Zm.707,7.777-1.414-1.414,5.658-5.656,1.414,1.414Zm4.951.707-1.415-1.414,1.414-1.414,1.415,1.414Z"></path><rect x="32" y="12" width="4" height="2"></rect><rect x="33.5" y="6.197" width="2" height="3.606" transform="translate(8.706 32.268) rotate(-56.31)"></rect><rect x="32.697" y="17" width="3.606" height="2" transform="translate(-4.19 22.16) rotate(-33.69)"></rect><rect x="58" y="12" width="4" height="2"></rect><rect x="57.697" y="7" width="3.606" height="2" transform="translate(5.555 34.348) rotate(-33.69)"></rect><rect x="58.5" y="16.197" width="2" height="3.606" transform="translate(11.518 57.522) rotate(-56.31)"></rect><path d="M14,12V11a1,1,0,0,1,1-1h5a2,2,0,0,1-2,2Z"></path><path d="M17,20a3,3,0,0,1-3-3V14h5a1,1,0,0,1,1,1v2A3,3,0,0,1,17,20Z"></path><path d="M59,56H43V52H58a1.01,1.01,0,0,0,1-.92l1-12a1.013,1.013,0,0,0-.26-.76A1.029,1.029,0,0,0,59,38V31a1,1,0,0,0-1-1H55V27a1,1,0,0,0-1-1H46a1,1,0,0,0-1,1V38H43V35a1.033,1.033,0,0,0-.29-.71l-2-2A1.033,1.033,0,0,0,40,32H37.82A3.01,3.01,0,0,0,35,30H33a3,3,0,0,0,0,6h2a3.01,3.01,0,0,0,2.82-2h1.77L41,35.41V57a1,1,0,0,0,1,1h1.18a3,3,0,1,0,5.64,0h3.36a3,3,0,1,0,5.64,0H59a1,1,0,0,1,1,1h2A3.009,3.009,0,0,0,59,56ZM55,32h2v6H55Zm0,8h2.91l-.16,2H55Zm0,4h2.58l-.17,2H55Zm0,4h2.25l-.17,2H55Zm-2,2H51V48h2Zm0-4H51V44h2Zm0-4H51V40h2Zm0-4H51V32h2ZM47,28h6v2H50a1,1,0,0,0-1,1v7H47Zm0,12h2v2H47Zm0,4h2v2H47Zm0,4h2v2H47Zm-4-8h2v2H43Zm0,4h2v2H43Zm0,4h2v2H43ZM35,34H33a1,1,0,0,1,0-2h2a1,1,0,0,1,0,2ZM46,60a1,1,0,1,1,1-1A1,1,0,0,1,46,60Zm9,0a1,1,0,1,1,1-1A1,1,0,0,1,55,60Z"></path></g></svg>