<svg xmlns="http://www.w3.org/2000/svg" viewBox="0 0 64 64" x="0px" y="0px"><g><circle cx="54" cy="58" r="2"></circle><circle cx="46" cy="58" r="2"></circle><path d="M29,46V40.67l-1.81-.56L23.6,42.8a1,1,0,0,1-1.2,0l-3.59-2.69L17,40.67V46a3.009,3.009,0,0,0,3,3h6A3.009,3.009,0,0,0,29,46Z"></path><path d="M12,25V21a2.006,2.006,0,0,0-2,2,2.015,2.015,0,0,0,2,2Z"></path><rect x="13" y="55" width="9" height="5"></rect><path d="M22,51H20a5,5,0,0,1-5-5V41.3l-2,.62V53h9Z"></path><rect x="24" y="55" width="9" height="5"></rect><path d="M34,21v4a2.015,2.015,0,0,0,2-2A2.006,2.006,0,0,0,34,21Z"></path><circle cx="23" cy="14" r="3"></circle><path d="M13.06,13H18.1A5.013,5.013,0,0,1,20,10.03V5.23a9.209,9.209,0,0,0-2,.72V11H16V7.31A9,9,0,0,0,13.06,13Z"></path><path d="M26,5.23v4.8A5.013,5.013,0,0,1,27.9,13h5.05a8.94,8.94,0,0,0-2.59-5.36c-.11-.12-.24-.21-.36-.32V11H28V5.95A9.024,9.024,0,0,0,26,5.23Z"></path><path d="M42,60V56.58A5.014,5.014,0,0,1,39,52v8Z"></path><path d="M38,47V45a1.949,1.949,0,0,1,.43-1.22,7.636,7.636,0,0,0-1.34-.58L35,42.55v6.83l3.45,1.73A.988.988,0,0,1,39,52V48.72A2,2,0,0,1,38,47Z"></path><path d="M24,9.1V4a1,1,0,0,0-2,0V9.1a5.05,5.05,0,0,1,2,0Z"></path><path d="M26,38.5V36.57a10.68,10.68,0,0,1-6,0V38.5l3,2.25Z"></path><polygon points="35 60 37 60 37 52.62 35 51.62 35 60"></polygon><path d="M56,55a3.009,3.009,0,0,0,3-3V49H41v3a3.009,3.009,0,0,0,3,3Z"></path><path d="M33,41.92l-2-.62V46a5,5,0,0,1-5,5H24v2h9Z"></path><rect x="40" y="45" width="20" height="2"></rect><path d="M57.83,43c-.76-2.25-4.04-4-7.83-4s-7.07,1.75-7.83,4Z"></path><path d="M4,60H7V52a.988.988,0,0,1,.55-.89L11,49.38V42.55l-2.09.65A6.964,6.964,0,0,0,4,49.88Z"></path><polygon points="11 60 11 51.62 9 52.62 9 60 11 60"></polygon><path d="M11,17h8.03a4.84,4.84,0,0,1-.93-2H11Z"></path><path d="M14,26a9,9,0,0,0,18,0V19H14Zm13-5a2,2,0,1,1-2,2A2,2,0,0,1,27,21Zm-2.016,7.25,1.323,1.5a5,5,0,0,1-6.614,0l1.323-1.5A3.076,3.076,0,0,0,24.984,28.25ZM19,21a2,2,0,1,1-2,2A2,2,0,0,1,19,21Z"></path><path d="M26.97,17H35V15H27.9A4.84,4.84,0,0,1,26.97,17Z"></path><polygon points="54 36 56 36 56 34 58 34 58 32 56 32 56 30 54 30 54 32 52 32 52 34 54 34 54 36"></polygon><polygon points="44 34 46 34 46 32 48 32 48 30 46 30 46 28 44 28 44 30 42 30 42 32 44 32 44 34"></polygon></g></svg>