<svg xmlns="http://www.w3.org/2000/svg" viewBox="0 0 64 64" x="0px" y="0px"><path d="M46,2H18a6,6,0,0,0-6,6V56a6,6,0,0,0,6,6H46a6,6,0,0,0,6-6V8A6,6,0,0,0,46,2Zm4,54a4,4,0,0,1-4,4H18a4,4,0,0,1-4-4V54H50Zm0-4H14V12H50Zm0-42H14V8a4,4,0,0,1,4-4H46a4,4,0,0,1,4,4Z"></path><rect x="25" y="6" width="2" height="2"></rect><rect x="29" y="6" width="6" height="2"></rect><rect x="31" y="56" width="2" height="2"></rect><path d="M40.35,26.06l-8-3a1.051,1.051,0,0,0-.7,0l-8,3A1.007,1.007,0,0,0,23,27v9a.988.988,0,0,0,.55.89l8,4a.975.975,0,0,0,.9,0l8-4A.988.988,0,0,0,41,36V27A1.007,1.007,0,0,0,40.35,26.06ZM31,38.38l-6-3V28.44l6,2.25Zm1-9.45L26.85,27,32,25.07,37.15,27Zm7,6.45-6,3V30.69l6-2.25Z"></path><path d="M20,20h5V18H19a1,1,0,0,0-1,1v6h2Z"></path><path d="M44,25h2V19a1,1,0,0,0-1-1H39v2h5Z"></path><path d="M19,46h6V44H20V39H18v6A1,1,0,0,0,19,46Z"></path><path d="M44,44H39v2h6a1,1,0,0,0,1-1V39H44Z"></path></svg>