<svg xmlns="http://www.w3.org/2000/svg" viewBox="0 0 64 64" x="0px" y="0px"><g data-name="Pr"><path d="M62,41a4,4,0,0,0-3-3.858V33a2.995,2.995,0,0,0-5.9-.715L43.807,36H38a3,3,0,0,0-2.947,2.472L28,36.265V32.786A11,11,0,0,0,34,23V22a3,3,0,0,0,0-6V13a11,11,0,0,0-22,0v3a3,3,0,0,0,0,6v1a11,11,0,0,0,6,9.786v3.479L9.723,38.854A10.943,10.943,0,0,0,2,49.35V61a1,1,0,0,0,1,1H43a1,1,0,0,0,1-1V58h1a1,1,0,0,0,1-1V46.877l7.1,2.838A2.995,2.995,0,0,0,59,49V44.858A4,4,0,0,0,62,41ZM45,37.677l8-3.2V47.523l-8-3.2ZM41,38h2v6H41Zm-4,1a1,1,0,0,1,1-1h1v6H38a1,1,0,0,1-1-1Zm-8.7-.546.493,3.94-4.04-1.731,2.528-2.528ZM35,19a1,1,0,0,1-1,1V18A1,1,0,0,1,35,19ZM23,4a9.01,9.01,0,0,1,9,9v3.606a5.605,5.605,0,0,1-3.052-2.922A1,1,0,0,0,28,13a4.269,4.269,0,0,0-3.249,1.611,7.993,7.993,0,0,1-1.8-2.928,1,1,0,0,0-1.19-.653c-2.77.692-5.881,3.077-7.758,4.7V13A9.01,9.01,0,0,1,23,4ZM11,19a1,1,0,0,1,1-1v2A1,1,0,0,1,11,19Zm3,4V18.424c.995-.946,4.416-4.065,7.424-5.195A7.734,7.734,0,0,0,24.553,16.9a1.007,1.007,0,0,0,1.339-.442A3.034,3.034,0,0,1,27.413,15.1,8.1,8.1,0,0,0,32,18.733V23a9,9,0,0,1-18,0Zm9,11a10.928,10.928,0,0,0,3-.427v3.013l-3,3-3-3V33.573A10.928,10.928,0,0,0,23,34Zm-4.279,4.135,2.528,2.528-4.04,1.731.493-3.94ZM42,60H37V49H35V60H11V49H9V60H4V49.35a8.95,8.95,0,0,1,6.318-8.586l5.287-1.654-.6,4.766A1,1,0,0,0,16,45a.982.982,0,0,0,.394-.081L23,42.088l6.606,2.831A.982.982,0,0,0,30,45a1,1,0,0,0,.992-1.124l-.6-4.766L35,40.55V43a3,3,0,0,0,3,3V57a1,1,0,0,0,1,1h3Zm2-4H40V46h3.806l.194.078Zm13-7a1,1,0,0,1-2,0V33a1,1,0,0,1,2,0Zm2-6.278V39.278a1.983,1.983,0,0,1,0,3.444Z"></path><rect x="17" y="19" width="2" height="2"></rect><rect x="27" y="19" width="2" height="2"></rect><path d="M27,25H25a2,2,0,0,1-4,0H19a4,4,0,0,0,8,0Z"></path></g></svg>