<svg xmlns="http://www.w3.org/2000/svg" viewBox="0 0 64 64" x="0px" y="0px"><g><path d="M59,37H31a3.009,3.009,0,0,0-3,3V58a3.009,3.009,0,0,0,3,3H59a3.009,3.009,0,0,0,3-3V40A3.009,3.009,0,0,0,59,37Zm1,21a1,1,0,0,1-1,1H31a1,1,0,0,1-1-1V40a1,1,0,0,1,1-1H59a1,1,0,0,1,1,1Z"></path><path d="M40,41H34a2.006,2.006,0,0,0-2,2v4a2.006,2.006,0,0,0,2,2h6a2.006,2.006,0,0,0,2-2V43A2.006,2.006,0,0,0,40,41Zm-4,6H34V43h2Zm4,0H38V43h2Z"></path><rect x="44" y="46" width="14" height="2"></rect><rect x="32" y="51" width="2" height="2"></rect><rect x="36" y="51" width="2" height="2"></rect><rect x="40" y="51" width="2" height="2"></rect><rect x="44" y="51" width="2" height="2"></rect><rect x="32" y="54" width="14" height="2"></rect><path d="M55,51H51a3,3,0,0,0,0,6h4a3,3,0,0,0,0-6Zm0,4H51a1,1,0,0,1,0-2h4a1,1,0,0,1,0,2Z"></path><rect x="56" y="42" width="2" height="2"></rect><rect x="52" y="42" width="2" height="2"></rect><rect x="48" y="42" width="2" height="2"></rect><rect x="44" y="42" width="2" height="2"></rect><path d="M22,17H20a1,1,0,0,1-1-1H17a3,3,0,0,0,3,3v1h2V19a3,3,0,0,0,0-6H20a1,1,0,0,1,0-2h2a1,1,0,0,1,1,1h2a3,3,0,0,0-3-3V8H20V9a3,3,0,0,0,0,6h2a1,1,0,0,1,0,2Z"></path><path d="M38,3H4A2.006,2.006,0,0,0,2,5V23a2.006,2.006,0,0,0,2,2H38a2.006,2.006,0,0,0,2-2V5A2.006,2.006,0,0,0,38,3ZM13,23H4V21h9Zm0-4H4V17h9Zm0-4H4V13h9Zm0-4H4V9h9Zm0-4H4V5h9ZM27,23H15V5H27Zm11,0H29V21h9Zm0-4H29V17h9Zm0-4H29V13h9Zm0-4H29V9h9Zm0-4H29V5h9Z"></path><path d="M25.555,48.168l-6-4A1,1,0,0,0,18,45v1H12V31H10V46a2,2,0,0,0,2,2h7a1,1,0,0,0,1-1v-.132L23.2,49,20,51.132V51a1,1,0,0,0-1-1H11a3,3,0,0,1-3-3V31H6V47a5.006,5.006,0,0,0,5,5h7v1a1,1,0,0,0,1.555.832l6-4a1,1,0,0,0,0-1.664Z"></path><path d="M57,11H50V10a1,1,0,0,0-1.555-.832l-6,4a1,1,0,0,0,0,1.664l6,4A1,1,0,0,0,50,18V17h6V31h2V17a2,2,0,0,0-2-2H49a1,1,0,0,0-1,1v.132L44.8,14,48,11.868V12a1,1,0,0,0,1,1h8a3,3,0,0,1,3,3V31h2V16A5.006,5.006,0,0,0,57,11Z"></path></g></svg>