<svg xmlns="http://www.w3.org/2000/svg" viewBox="0 0 64 64" x="0px" y="0px"><g><path d="M57,41a5,5,0,0,0-4.5,2.86,4.984,4.984,0,0,0-9.39,1.12c-.1-.2-.23-.39-.34-.59a2.964,2.964,0,0,0-1.54-4.35L33.71,37.3a1,1,0,0,0-1.28.6l-.25.67L28,37.26V35.45A4.055,4.055,0,0,0,30,36a3.979,3.979,0,0,0,3.48-2.04,4,4,0,0,0,4.04-5.86A3.987,3.987,0,0,0,39,25a3.942,3.942,0,0,0-1.03-2.65c.01-.12.03-.23.03-.35a4,4,0,0,0-4-4v-.72l.11-.03A2.484,2.484,0,0,0,36,14.83V13a1,1,0,0,0-1-1h-.28l2.27-3.97a3,3,0,0,0-.8-3.89L33.6,2.2A.984.984,0,0,0,33,2H13a.984.984,0,0,0-.6.2L9.81,4.14a3,3,0,0,0-.8,3.89L11.28,12H11a1,1,0,0,0-1,1v1.83a2.484,2.484,0,0,0,1.89,2.42l.11.03V18a4,4,0,0,0-4,4c0,.12.02.23.03.35A3.942,3.942,0,0,0,7,25a3.987,3.987,0,0,0,1.48,3.1,4,4,0,0,0,4.04,5.86A3.979,3.979,0,0,0,16,36a4.055,4.055,0,0,0,2-.55v1.81l-4.18,1.31-.25-.67a1,1,0,0,0-1.28-.6L4.77,40.04a2.964,2.964,0,0,0-1.54,4.35A8.908,8.908,0,0,0,2,48.88V61a1,1,0,0,0,1,1H43a1,1,0,0,0,1-1V49a4.937,4.937,0,0,0,1,.99V52a2.006,2.006,0,0,0,2,2v2.5a5.5,5.5,0,0,0,11,0V54a2.006,2.006,0,0,0,2-2V49.99A4.993,4.993,0,0,0,57,41Zm-19.28-.11,2.82,1.03a1,1,0,0,1,.6,1.28,1.016,1.016,0,0,1-1.28.6l-2.82-1.03Zm-3.75-1.37,1.88.69-.69,1.88-1.88-.69Zm-5.24.07-1.17,3.55-2.87-2.87,2.4-1.2ZM23,38.88l-3-1.5v-2.8a10.8,10.8,0,0,0,6-.01v2.81Zm1.12,3.66L23.38,44h-.76l-.74-1.46L23,41.41ZM36.83,24.83a1.092,1.092,0,0,0,.13-.17A1.861,1.861,0,0,1,37,25a1.991,1.991,0,0,1-1.3,1.87,1,1,0,0,0-.64.75,1.012,1.012,0,0,0,.3.93A1.938,1.938,0,0,1,36,30a2,2,0,0,1-2.73,1.86,1.016,1.016,0,0,0-.82.02,1.053,1.053,0,0,0-.53.64A1.99,1.99,0,0,1,30,34a1.956,1.956,0,0,1-1.36-.57A11.02,11.02,0,0,0,33.81,26H34A4,4,0,0,0,36.83,24.83ZM36,22a2.015,2.015,0,0,1-2,2V20A2.006,2.006,0,0,1,36,22Zm-2-7.17a.483.483,0,0,1-.38.48,22.723,22.723,0,0,1-5.57.69H17.95a22.723,22.723,0,0,1-5.57-.69.483.483,0,0,1-.38-.48V14H34ZM21,9.59V8h4V9.59l-2,2ZM10.74,7.04a1.008,1.008,0,0,1,.27-1.3L13.33,4H32.67l2.32,1.74a1.008,1.008,0,0,1,.27,1.3L32.42,12H25.41l1.3-1.29A1.033,1.033,0,0,0,27,10V7a1,1,0,0,0-1-1H20a1,1,0,0,0-1,1v3a1.033,1.033,0,0,0,.29.71L20.59,12H13.58ZM12,20v4a2.015,2.015,0,0,1-2-2A2.006,2.006,0,0,1,12,20Zm4,14a1.99,1.99,0,0,1-1.92-1.48,1.053,1.053,0,0,0-.53-.64,1.017,1.017,0,0,0-.82-.02A2,2,0,0,1,10,30a1.938,1.938,0,0,1,.64-1.45,1.012,1.012,0,0,0,.3-.93,1,1,0,0,0-.64-.75A1.991,1.991,0,0,1,9,25a1.861,1.861,0,0,1,.04-.34,1.092,1.092,0,0,0,.13.17A4,4,0,0,0,12,26h.19a10.83,10.83,0,0,0,5.17,7.43A1.956,1.956,0,0,1,16,34Zm.64-3.64A8.942,8.942,0,0,1,14,24V17.67a24.966,24.966,0,0,0,3.95.33h10.1A24.966,24.966,0,0,0,32,17.67V24a8.994,8.994,0,0,1-15.36,6.36Zm2.27,8.71,2.4,1.2-2.87,2.87-1.17-3.55Zm-6.88.45.69,1.88-1.88.69-.69-1.88Zm-6.57,2.4,2.82-1.03.68,1.88L6.14,43.8a.974.974,0,0,1-.34.06.9.9,0,0,1-.42-.1.956.956,0,0,1-.52-.56A1,1,0,0,1,5.46,41.92ZM4,50.62l2,1V53.5L4,55ZM19.12,60H11.97a4.846,4.846,0,0,0-.79-2.36,6.176,6.176,0,0,1-.18-7V55a1,1,0,0,0,1,1h6a1,1,0,0,0,1-1V49a1,1,0,0,0-1-1H12a1,1,0,0,0-1,1l-.71-.71A8.723,8.723,0,0,0,8,54a8.855,8.855,0,0,0,1.52,4.77A2.655,2.655,0,0,1,9.97,60H4V57.5l3.6-2.7A1.014,1.014,0,0,0,8,54V51a.988.988,0,0,0-.55-.89L4.04,48.4a6.829,6.829,0,0,1,.75-2.73,2.874,2.874,0,0,0,1.01.19,3,3,0,0,0,1.02-.18l7.52-2.74a1,1,0,0,0,.6-1.28l-.44-1.21.86-.27,1.69,5.13a1,1,0,0,0,.72.66A.908.908,0,0,0,18,46a1.007,1.007,0,0,0,.71-.29l1.68-1.69.58,1.16ZM13,54V50h4v4Zm8.13,6,1.75-14h.24l1.75,14ZM42,60H36.03a2.655,2.655,0,0,1,.45-1.23A8.855,8.855,0,0,0,38,54a8.723,8.723,0,0,0-2.29-5.71L35,49a1,1,0,0,0-1-1H28a1,1,0,0,0-1,1v6a1,1,0,0,0,1,1h6a1,1,0,0,0,1-1V50.64a6.176,6.176,0,0,1-.18,7A4.846,4.846,0,0,0,34.03,60H26.88L25.03,45.18l.58-1.16,1.68,1.69A1.007,1.007,0,0,0,28,46a.908.908,0,0,0,.23-.03,1,1,0,0,0,.72-.66l1.69-5.13.86.27-.44,1.21a1,1,0,0,0,.6,1.28l7.52,2.74a3,3,0,0,0,1.02.18,2.874,2.874,0,0,0,1.01-.19,6.829,6.829,0,0,1,.75,2.73l-3.41,1.71A.988.988,0,0,0,38,51v3a1.014,1.014,0,0,0,.4.8L42,57.5ZM33,50v4H29V50Zm9,5-2-1.5V51.62l2-1Zm4-7a.951.951,0,0,0-.18.04,3,3,0,1,1,4.36,0A.951.951,0,0,0,50,48Zm1,4V50h2v2Zm9,4.5a3.5,3.5,0,0,1-7,0V54a2.006,2.006,0,0,0,2-2V49.99a4.867,4.867,0,0,0,1.5-1.84A4.867,4.867,0,0,0,54,49.99V52a2.006,2.006,0,0,0,2,2ZM58,52H56V50h2Zm1.18-3.96A.951.951,0,0,0,59,48H55a.951.951,0,0,0-.18.04,3,3,0,1,1,4.36,0Z"></path><circle cx="19" cy="21" r="2"></circle><circle cx="27" cy="21" r="2"></circle><path d="M23,29a4.994,4.994,0,0,0,3.307-1.25l-1.323-1.5a3.076,3.076,0,0,1-3.968,0l-1.323,1.5A4.994,4.994,0,0,0,23,29Z"></path></g></svg>