<svg xmlns="http://www.w3.org/2000/svg" viewBox="0 0 64 64" x="0px" y="0px"><g><path d="M60,27V23.069A8.008,8.008,0,0,0,53.069,30H57A3,3,0,0,0,60,27Z"></path><path d="M51.05,4H12.95A10.012,10.012,0,0,1,4,12.95v8.1A10.012,10.012,0,0,1,12.95,30h38.1A10.012,10.012,0,0,1,60,21.05v-8.1A10.012,10.012,0,0,1,51.05,4ZM20,18H18V16h2Zm12,7a8,8,0,1,1,8-8A8.011,8.011,0,0,1,32,25Zm14-7H44V16h2Z"></path><path d="M7,32a4.924,4.924,0,0,1-3-1.03V43a3.009,3.009,0,0,0,3,3h7.72a2.757,2.757,0,0,1,1.12-2.82l15.58-11A1.042,1.042,0,0,1,32,32Zm7,12H6V42h8Zm4-4H6V38H18Zm5-4H6V34H23Z"></path><path d="M17,44.814a.785.785,0,0,0,.316,1.415.771.771,0,0,0,.6-.14l13.494-9.9a1,1,0,0,1,1.184,0l13.494,9.9A.786.786,0,1,0,47,44.814L32,34.224Z"></path><path d="M57,32H32a1.042,1.042,0,0,1,.58.18L37,35.31V34a1,1,0,0,1,1-1h4a1,1,0,0,1,1,1v5.54l5.16,3.64A2.757,2.757,0,0,1,49.28,46H57a3.009,3.009,0,0,0,3-3V30.97A4.924,4.924,0,0,1,57,32Zm1,12H50V42h8Zm0-4H46V38H58Zm0-4H45V34H58Z"></path><path d="M4,10.931A8.008,8.008,0,0,0,10.931,4H7A3,3,0,0,0,4,7Z"></path><path d="M57,4H53.069A8.008,8.008,0,0,0,60,10.931V7A3,3,0,0,0,57,4Z"></path><circle cx="32" cy="17" r="6"></circle><path d="M7,30h3.931A8.008,8.008,0,0,0,4,23.069V27A3,3,0,0,0,7,30Z"></path><rect x="27" y="54" width="4" height="6"></rect><rect x="36" y="54" width="2" height="2"></rect><circle cx="32" cy="46" r="2"></circle><polygon points="39 35 39 36.717 41 38.129 41 35 39 35"></polygon><path d="M32,38.24l-9,6.6V60h2V53a1,1,0,0,1,1-1h6a1,1,0,0,1,1,1v7h8V44.84ZM32,50a4,4,0,1,1,4-4A4,4,0,0,1,32,50Zm8,7a1,1,0,0,1-1,1H35a1,1,0,0,1-1-1V53a1,1,0,0,1,1-1h4a1,1,0,0,1,1,1Z"></path></g></svg>