<svg xmlns="http://www.w3.org/2000/svg" viewBox="0 0 64 64" x="0px" y="0px"><g><path d="M30,18V29a1,1,0,0,1-.872.992L32,33.438l2.872-3.446A1,1,0,0,1,34,29V18Z"></path><path d="M45,20a1,1,0,0,0,1-1V5a1,1,0,0,0-1-1H19a1,1,0,0,0-1,1V7h2a2,2,0,0,1,2,2v6a2,2,0,0,1-2,2H18v2a1,1,0,0,0,1,1h9V17a1,1,0,0,1,1-1h6a1,1,0,0,1,1,1v3ZM29,13H27V11h2Zm4,0H31V11h2Zm2,0V11h2v2Z"></path><path d="M10,11V42H54V11a1,1,0,0,0-1-1H48v2h3a1,1,0,0,1,1,1V39a1,1,0,0,1-1,1H13a1,1,0,0,1-1-1V13a1,1,0,0,1,1-1h3V10H11A1,1,0,0,0,10,11Z"></path><path d="M16,19V14H14V38H50V14H48v5a3,3,0,0,1-3,3H36v6h1a1,1,0,0,1,.768,1.64l-5,6a1,1,0,0,1-1.536,0l-5-6A1,1,0,0,1,27,28h1V22H19A3,3,0,0,1,16,19Zm26,5h2v2H42Zm0,4h2v2H42Zm0,4h2v2H42ZM20,24h2v2H20Zm0,4h2v2H20Zm0,4h2v2H20Z"></path><path d="M59.382,54l-5-10H9.618l-5,10ZM54,52H52V50h2Zm-3-6h2v2H51Zm-1,6H48V50h2Zm-3-6h2v2H47Zm-4,0h2v2H43Zm-4,0h2v2H39Zm-4,0h2v2H35Zm-4,0h2v2H31Zm-4,0h2v2H27Zm-4,0h2v2H23Zm-4,0h2v2H19Zm-1,4H46v2H18Zm-3-4h2v2H15Zm-1,4h2v2H14Zm-3-4h2v2H11Zm-1,4h2v2H10Z"></path><rect x="18" y="9" width="2" height="6"></rect><rect x="29" y="56" width="6" height="1"></rect><path d="M4,60H60V56H37v1a2,2,0,0,1-2,2H29a2,2,0,0,1-2-2V56H4Z"></path><rect x="58" y="30" width="2" height="2"></rect><rect x="4" y="30" width="2" height="2"></rect><rect x="4" y="24" width="2" height="2"></rect><rect x="4" y="18" width="2" height="2"></rect><rect x="58" y="24" width="2" height="2"></rect><rect x="58" y="18" width="2" height="2"></rect><rect x="57" y="5" width="2" height="2"></rect><rect x="5" y="5" width="2" height="2"></rect></g></svg>