<svg xmlns="http://www.w3.org/2000/svg" viewBox="0 0 64 64" x="0px" y="0px"><g><rect x="4" y="56" width="13" height="4"></rect><rect x="12" y="50" width="12" height="4"></rect><rect x="4" y="38" width="6" height="4"></rect><rect x="4" y="44" width="13" height="4"></rect><rect x="4" y="50" width="6" height="4"></rect><path d="M52,38H42.48A9.133,9.133,0,0,1,40,39.54V42H52Z"></path><path d="M44,35a3.384,3.384,0,0,1-.17,1H45V32H44Z"></path><path d="M22,21c0,1.89,4.28,4,10,4s10-2.11,10-4-4.28-4-10-4S22,19.11,22,21Zm4-1H38v2H26Z"></path><rect x="19" y="56" width="12" height="4"></rect><rect x="26" y="50" width="12" height="4"></rect><rect x="19" y="44" width="12" height="4"></rect><path d="M42,35V31.41C39.89,32.99,36.27,34,32,34s-7.89-1.01-10-2.59V35c0,1.89,4.28,4,10,4S42,36.89,42,35ZM25,36H23V34h2Zm4,1H27V35h2Z"></path><path d="M38,40.24A22.411,22.411,0,0,1,32,41a22.411,22.411,0,0,1-6-.76V42H38Z"></path><rect x="4" y="32" width="13" height="4"></rect><path d="M42,24.41C39.89,25.99,36.27,27,32,27s-7.89-1.01-10-2.59V28c0,1.89,4.28,4,10,4s10-2.11,10-4ZM25,29H23V27h2Zm4,1H27V28h2Z"></path><path d="M24,15V11.41C21.89,12.99,18.27,14,14,14S6.11,12.99,4,11.41V15c0,1.89,4.28,4,10,4S24,16.89,24,15ZM7,16H5V14H7Zm4,1H9V15h2Z"></path><path d="M12,42H24V39.54A9.133,9.133,0,0,1,21.52,38H12Z"></path><path d="M20,35V32H19v4h1.17A3.384,3.384,0,0,1,20,35Z"></path><rect x="33" y="44" width="12" height="4"></rect><rect x="33" y="56" width="12" height="4"></rect><path d="M50,19c5.72,0,10-2.11,10-4V11.41C57.89,12.99,54.27,14,50,14s-7.89-1.01-10-2.59V15C40,16.89,44.28,19,50,19Zm-5-4h2v2H45Zm-4-1h2v2H41Z"></path><rect x="47" y="56" width="13" height="4"></rect><rect x="54" y="50" width="6" height="4"></rect><rect x="40" y="50" width="12" height="4"></rect><path d="M14,26a20.394,20.394,0,0,0,6-.87V21a3.012,3.012,0,0,1,.11-.79A22.691,22.691,0,0,1,14,21c-4.27,0-7.89-1.01-10-2.59V22C4,23.89,8.28,26,14,26ZM9,22h2v2H9ZM5,21H7v2H5Z"></path><path d="M14,4C8.28,4,4,6.11,4,8s4.28,4,10,4S24,9.89,24,8,19.72,4,14,4Zm6,5H8V7H20Z"></path><rect x="47" y="32" width="13" height="4"></rect><path d="M50,26c5.72,0,10-2.11,10-4V18.41C57.89,19.99,54.27,21,50,21a22.691,22.691,0,0,1-6.11-.79A3.012,3.012,0,0,1,44,21v4.13A20.394,20.394,0,0,0,50,26Zm-5-4h2v2H45Z"></path><rect x="47" y="44" width="13" height="4"></rect><path d="M50,12c5.72,0,10-2.11,10-4S55.72,4,50,4,40,6.11,40,8,44.28,12,50,12ZM44,7H56V9H44Z"></path><rect x="54" y="38" width="6" height="4"></rect></g></svg>