<svg xmlns="http://www.w3.org/2000/svg" viewBox="0 0 64 64" x="0px" y="0px"><g><polygon points="29.868 29 34.132 29 32 25.803 29.868 29"></polygon><polygon points="28 28.197 30.132 25 25.868 25 28 28.197"></polygon><polygon points="21.869 29 26.132 29 24 25.803 21.869 29"></polygon><polygon points="38.132 25 33.868 25 36 28.197 38.132 25"></polygon><polygon points="36.752 31 34.176 39.924 41.826 31 36.752 31"></polygon><polygon points="40 25.803 37.868 29 42.131 29 40 25.803"></polygon><polygon points="34.674 31 29.326 31 32 40.36 34.674 31"></polygon><polygon points="27.248 31 22.174 31 29.824 39.924 27.248 31"></polygon><path d="M53,4a7,7,0,1,0,7,7A7.008,7.008,0,0,0,53,4Zm0,6a2.993,2.993,0,0,1,1,5.816V17H52V15.816A3,3,0,0,1,50,13h2a1,1,0,1,0,1-1,2.993,2.993,0,0,1-1-5.816V5h2V6.184A3,3,0,0,1,56,9H54a1,1,0,1,0-1,1Z"></path><path d="M11,4a7,7,0,1,0,7,7A7.008,7.008,0,0,0,11,4Zm0,6a2.993,2.993,0,0,1,1,5.816V17H10V15.816A3,3,0,0,1,8,13h2a1,1,0,1,0,1-1,2.993,2.993,0,0,1-1-5.816V5h2V6.184A3,3,0,0,1,14,9H12a1,1,0,1,0-1,1Z"></path><path d="M53,46a7,7,0,1,0,7,7A7.008,7.008,0,0,0,53,46Zm0,6a2.993,2.993,0,0,1,1,5.816V59H52V57.816A3,3,0,0,1,50,55h2a1,1,0,1,0,1-1,2.993,2.993,0,0,1-1-5.816V47h2v1.184A3,3,0,0,1,56,51H54a1,1,0,1,0-1,1Z"></path><path d="M11,46a7,7,0,1,0,7,7A7.008,7.008,0,0,0,11,46Zm0,6a2.993,2.993,0,0,1,1,5.816V59H10V57.816A3,3,0,0,1,8,55h2a1,1,0,1,0,1-1,2.993,2.993,0,0,1-1-5.816V47h2v1.184A3,3,0,0,1,14,51H12a1,1,0,1,0-1,1Z"></path><rect x="41.379" y="19.5" width="4.243" height="2" transform="translate(-1.755 36.763) rotate(-45)"></rect><rect x="19.5" y="18.379" width="2" height="4.243" transform="translate(-8.491 20.5) rotate(-45)"></rect><rect x="17.964" y="41.5" width="7.071" height="2" transform="translate(-23.755 27.651) rotate(-45)"></rect><rect x="41.5" y="38.964" width="2" height="7.071" transform="translate(-17.604 42.5) rotate(-45)"></rect></g></svg>