<svg xmlns="http://www.w3.org/2000/svg" viewBox="0 0 64 64" x="0px" y="0px"><g><path d="M40,14.38V11a3.009,3.009,0,0,0-3-3V7A5,5,0,0,0,27,7V8a3.009,3.009,0,0,0-3,3v3.38a24,24,0,1,0,16,0ZM29,7a3,3,0,0,1,6,0V8H29Zm-3,4a1,1,0,0,1,1-1H37a1,1,0,0,1,1,1v2.76a24.064,24.064,0,0,0-12,0Zm-7,8.27V20h2V18h-.07a21.924,21.924,0,0,1,22.14,0H43v2h2v-.73a22.065,22.065,0,0,1,5.69,6.14l-.3.27-3.94-3.43a1,1,0,0,0-1.32,0l-3.94,3.42-3.94-3.42a1,1,0,0,0-1.32,0l-3.94,3.42-3.94-3.42a1,1,0,0,0-1.32,0l-3.94,3.42-3.94-3.42a1,1,0,0,0-1.32,0l-3.94,3.42-.29-.25A22.139,22.139,0,0,1,19,19.27ZM10,37q0-.765.06-1.53L11.59,37l-1.53,1.53Q10,37.765,10,37ZM45,54.73V54H43v2h.07a21.924,21.924,0,0,1-22.14,0H21V54H19v.73a21.883,21.883,0,0,1-3.93-3.7l3.12-2.7,3.94,3.42a1,1,0,0,0,1.32,0l3.94-3.42,3.94,3.42a1,1,0,0,0,1.32,0l3.94-3.42,3.94,3.42a1,1,0,0,0,1.32,0l3.94-3.42,3.13,2.71A21.749,21.749,0,0,1,45,54.73Zm5.13-5.28-3.68-3.2a1,1,0,0,0-1.32,0l-3.94,3.42-3.94-3.42a1,1,0,0,0-1.32,0l-3.94,3.42-3.94-3.42a1,1,0,0,0-1.32,0l-3.94,3.42-3.94-3.42a1,1,0,0,0-1.32,0l-3.67,3.18a21.884,21.884,0,0,1-3.62-9.19l.47.47L13.41,38H15v1.59l-2.71,2.7,1.42,1.42L16,41.41l2.29,2.3,1.42-1.42L17,39.59V38h1.59l2.7,2.71,1.42-1.42L20.41,37l2.3-2.29-1.42-1.42L18.59,36H17V34.41l2.71-2.7-1.42-1.42L16,32.59l-2.29-2.3-1.42,1.42L15,34.41V36H13.41l-2.7-2.71-.47.47a21.793,21.793,0,0,1,2.07-6.55l.62.54a1,1,0,0,0,1.32,0l3.94-3.42,3.94,3.42a1,1,0,0,0,1.32,0l3.94-3.42,3.94,3.42a1,1,0,0,0,1.32,0l3.94-3.42,3.94,3.42a1,1,0,0,0,1.32,0l3.94-3.42,3.94,3.42a1,1,0,0,0,1.31.01l.65-.56a22.049,22.049,0,0,1,2.07,6.56l-.47-.47L50.59,36H49V34.41l2.71-2.7-1.42-1.42L48,32.59l-2.29-2.3-1.42,1.42L47,34.41V36H45.41l-2.7-2.71-1.42,1.42L43.59,37l-2.3,2.29,1.42,1.42L45.41,38H47v1.59l-2.71,2.7,1.42,1.42L48,41.41l2.29,2.3,1.42-1.42L49,39.59V38h1.59l2.7,2.71.47-.47A21.85,21.85,0,0,1,50.13,49.45ZM52.41,37l1.53-1.53Q54,36.235,54,37t-.06,1.53Z"></path><polygon points="26.707 40.707 29.414 38 31 38 31 39.586 28.293 42.293 29.707 43.707 32 41.414 34.293 43.707 35.707 42.293 33 39.586 33 38 34.586 38 37.293 40.707 38.707 39.293 36.414 37 38.707 34.707 37.293 33.293 34.586 36 33 36 33 34.414 35.707 31.707 34.293 30.293 32 32.586 29.707 30.293 28.293 31.707 31 34.414 31 36 29.414 36 26.707 33.293 25.293 34.707 27.586 37 25.293 39.293 26.707 40.707"></polygon><rect x="31" y="54" width="2" height="2"></rect><rect x="35" y="54" width="2" height="2"></rect><rect x="39" y="54" width="2" height="2"></rect><rect x="27" y="54" width="2" height="2"></rect><rect x="23" y="54" width="2" height="2"></rect><rect x="31" y="18" width="2" height="2"></rect><rect x="35" y="18" width="2" height="2"></rect><rect x="39" y="18" width="2" height="2"></rect><rect x="27" y="18" width="2" height="2"></rect><rect x="23" y="18" width="2" height="2"></rect></g></svg>