<svg xmlns="http://www.w3.org/2000/svg" viewBox="0 0 64 64" x="0px" y="0px"><g data-name="English Sheepdog-Dog"><path d="M42,28.118l-1.553.777a1.022,1.022,0,0,1-.2.047,1.981,1.981,0,0,0,3.506,0,1.022,1.022,0,0,1-.2-.047Z"></path><path d="M15,45h6V44a.994.994,0,0,1,.1-.438l1.948-4a1.006,1.006,0,0,1,.278-.346L28,35.516V30.721l-9.266,3.088L15,42.212Z"></path><path d="M26.194,15H26a1,1,0,0,0-1,1v6.586L26.414,24H29V20.829a3,3,0,0,1-1.613-4.3A3,3,0,0,1,26.194,15Z"></path><path d="M29,53H23v1a3,3,0,0,0,6,0Z"></path><path d="M59,22.586V16a1,1,0,0,0-1-1H56.821a3,3,0,0,1-.587,1A3,3,0,0,1,55,20.829V24h2.586Z"></path><path d="M53,20a1,1,0,0,1,1-1,1,1,0,0,0,0-2,1,1,0,0,1,0-2,1,1,0,0,0,1-1,.973.973,0,0,0-.34-.74,1,1,0,0,1,0-1.52A.973.973,0,0,0,55,11a1,1,0,0,0-2,0H51a2.994,2.994,0,0,1,1.713-2.7A.993.993,0,0,0,52,8a.976.976,0,0,0-.506.138,1,1,0,0,1-1.508-.966A1.516,1.516,0,0,0,50,7a1,1,0,0,0-1-1,.975.975,0,0,0-.555.165,1,1,0,0,1-1.51-.5A.991.991,0,0,0,46,5a1,1,0,0,0-1,1,1,1,0,0,1-2,0V5a1,1,0,0,0-2,0V6a1,1,0,0,1-2,0,1,1,0,0,0-1-1,.991.991,0,0,0-.935.667,1,1,0,0,1-1.51.5A.975.975,0,0,0,35,6a1,1,0,0,0-1,1,1.516,1.516,0,0,0,.014.172,1,1,0,0,1-1.508.966A.976.976,0,0,0,32,8a.993.993,0,0,0-.713.3A2.994,2.994,0,0,1,33,11H31a1,1,0,0,0-2,0,.976.976,0,0,0,.164.554,1,1,0,0,1-.5,1.511A.991.991,0,0,0,28,14a1,1,0,0,0,1,1h1a1,1,0,0,1,0,2,1,1,0,0,0,0,2,1,1,0,0,1,1,1v8.465L39.3,34H44.7L53,28.465Zm-6.2,8.6a1,1,0,0,1-.8.4h-.142a3.981,3.981,0,0,1-7.716,0H38a1,1,0,0,1-.8-.4l-3-4,1.6-1.2L38.5,27h1.264L41,26.382V26a1,1,0,0,1-.707-.293l-1-1A1,1,0,0,1,39,24V22h2v1.586l.414.414h1.172L43,23.586V22h2v2a1,1,0,0,1-.293.707l-1,1A1,1,0,0,1,43,26v.382L44.236,27H45.5l2.7-3.6,1.6,1.2ZM50,22a3,3,0,0,1-2.528-1.386A3,3,0,0,1,44,20.234a2.994,2.994,0,0,1-4,0,3,3,0,0,1-3.472.38A3,3,0,0,1,31,19h2a1,1,0,0,0,2,0V18a1,1,0,0,1,2,0,1,1,0,0,0,2,0,1,1,0,0,1,2,0,1,1,0,0,0,2,0,1,1,0,0,1,2,0,1,1,0,0,0,2,0,1,1,0,0,1,2,0v1a1,1,0,0,0,2,0h2A3,3,0,0,1,50,22Z"></path><path d="M53,30.868l-7.445,4.964A1.006,1.006,0,0,1,45,36H39a1.006,1.006,0,0,1-.555-.168L30,30.2V36a1,1,0,0,1-.379.784l-4.874,3.859L23,44.23V46a1,1,0,0,1-1,1H15V57a3,3,0,0,0,6,0V52a1,1,0,0,1,1-1,3,3,0,0,0,3-3V46h2v2a4.96,4.96,0,0,1-1.02,3H34a1,1,0,0,1,1,1v5a3,3,0,0,0,6,0V51a1,1,0,0,1,1-1h4a1,1,0,0,1,1,1v6a3,3,0,0,0,6,0ZM51,40a7.008,7.008,0,0,1-7,7V45a5.006,5.006,0,0,0,5-5V38h2Z"></path><circle cx="9" cy="41" r="4"></circle></g></svg>