<svg xmlns="http://www.w3.org/2000/svg" viewBox="0 0 64 64" x="0px" y="0px"><g><path d="M41,21H39v3a1,1,0,0,0,.293.707l1,1,1.414-1.414L41,23.586Z"></path><path d="M57,22V18a1,1,0,0,0-.553-.895L55,16.382V14a1,1,0,0,0-.758-.97L51,12.219V11a1,1,0,0,0-.293-.707l-1-1A1,1,0,0,0,49,9H46a1,1,0,0,0-.707.293L44,10.586,42.707,9.293A1,1,0,0,0,42,9H39a1,1,0,0,0-.707.293l-1,1A1,1,0,0,0,37,11v1.219l-3.242.811A1,1,0,0,0,33,14v2.382l-1.447.723A1,1,0,0,0,31,18v4a1,1,0,0,0,.684.949L34,23.721V26a1,1,0,0,0,.293.707l1,1A1,1,0,0,0,36,28h1.465l1.7,2.555A1,1,0,0,0,40,31h2a1,1,0,0,0,.707-.293L44,29.414l1.293,1.293A1,1,0,0,0,46,31h2a1,1,0,0,0,.832-.445L50.535,28H52a1,1,0,0,0,.707-.293l1-1A1,1,0,0,0,54,26V23.721l2.316-.772A1,1,0,0,0,57,22ZM41.586,29H40.535l-1.7-2.555A1,1,0,0,0,38,26H36.414L36,25.586V23.414l1.707-1.707A1,1,0,0,0,38,21V20H36v.586l-1.27,1.27L33,21.279V18.618L34.236,18H36V16H35V14.781l2.693-.674L39,15.414V17h2V15a1,1,0,0,0-.293-.707L39,12.586V11.414L39.414,11h2.172L43,12.414V27.586ZM55,21.279l-1.73.577L52,20.586V20H50v1a1,1,0,0,0,.293.707L52,23.414v2.172L51.586,26H50a1,1,0,0,0-.832.445L47.465,29H46.414L45,27.586V12.414L46.414,11h2.172l.414.414v1.172l-1.707,1.707A1,1,0,0,0,47,15v2h2V15.414l1.307-1.307L53,14.781V16H52v2h1.764L55,18.618Z"></path><path d="M47,23.586l-.707.707,1.414,1.414,1-1A1,1,0,0,0,49,24V21H47Z"></path><path d="M39.334,42.665A1,1,0,0,0,39,43.41V60H19V51a1,1,0,0,0-1-1H12a3,3,0,0,1-3-3V40a1,1,0,0,0-1-1H4.081l6.7-8.375A1,1,0,0,0,11,30,16.969,16.969,0,0,1,26.11,13.1l-.22-1.988A18.966,18.966,0,0,0,9,29.645L2.519,37.751A2,2,0,0,0,4.081,41H7v6a5.006,5.006,0,0,0,5,5h5v9a1,1,0,0,0,1,1H40a1,1,0,0,0,1-1V43.85A19.059,19.059,0,0,0,43.833,40.5L42.167,39.4A17.068,17.068,0,0,1,39.334,42.665Z"></path><rect x="43" y="2" width="2" height="2"></rect><rect x="38.6" y="2.579" width="2" height="2.001" transform="translate(0.426 10.387) rotate(-15.023)"></rect><rect x="34.5" y="4.278" width="2" height="2" transform="translate(2.118 18.458) rotate(-30.002)"></rect><rect x="30.98" y="6.979" width="2" height="2" transform="translate(3.721 24.945) rotate(-44.99)"></rect><rect x="28.277" y="10.5" width="2" height="2" transform="translate(4.681 31.107) rotate(-60.005)"></rect><rect x="26.579" y="14.6" width="2" height="2" transform="translate(5.373 38.202) rotate(-75)"></rect><rect x="26" y="19" width="2" height="2"></rect><rect x="26.579" y="23.4" width="2" height="2" transform="translate(-5.375 7.969) rotate(-15)"></rect><rect x="28.277" y="27.5" width="2" height="2" transform="translate(-10.327 18.453) rotate(-29.995)"></rect><rect x="30.979" y="31.021" width="2" height="2" transform="translate(-13.276 31.992) rotate(-45)"></rect><rect x="34.5" y="33.722" width="2" height="2" transform="translate(-12.321 48.104) rotate(-59.998)"></rect><rect x="38.6" y="35.421" width="2.001" height="2" transform="translate(-5.842 65.224) rotate(-74.973)"></rect><rect x="43" y="36" width="2" height="2"></rect><rect x="47.4" y="35.42" width="2" height="2.001" transform="translate(-7.786 13.791) rotate(-15.023)"></rect><rect x="51.5" y="33.722" width="2" height="2" transform="translate(-10.328 30.904) rotate(-30.002)"></rect><rect x="55.021" y="31.021" width="2" height="2" transform="translate(-6.237 48.98) rotate(-44.99)"></rect><rect x="57.722" y="27.5" width="2" height="2" transform="translate(4.683 65.11) rotate(-60.005)"></rect><rect x="59.421" y="23.4" width="2" height="2" transform="translate(21.214 76.447) rotate(-75)"></rect><rect x="60" y="19" width="2" height="2"></rect><rect x="59.421" y="14.6" width="2" height="2" transform="translate(-1.979 16.17) rotate(-15)"></rect><rect x="57.722" y="10.5" width="2" height="2" transform="translate(2.116 30.897) rotate(-29.995)"></rect><rect x="55.02" y="6.979" width="2" height="2" transform="translate(10.766 41.95) rotate(-45)"></rect><rect x="51.5" y="4.277" width="2" height="2" transform="translate(21.683 48.108) rotate(-60.005)"></rect><rect x="47.4" y="2.579" width="2.001" height="2" transform="translate(32.394 49.396) rotate(-74.973)"></rect></g></svg>