<svg xmlns="http://www.w3.org/2000/svg" viewBox="0 0 64 64" x="0px" y="0px"><g><path d="M47,60V54H35v6Zm-4-4h2v2H43Z"></path><path d="M34,45.351,32.92,44H18V42H31.32l-1.1-1.375A1,1,0,0,1,30,40V36H9.618l-5,10H34ZM27,38h2v2H27Zm-4,0h2v2H23Zm-4,0h2v2H19Zm-7,6H10V42h2Zm1-4H11V38h2Zm3,4H14V42h2Zm1-4H15V38h2Z"></path><rect x="34" y="48" width="14" height="4"></rect><path d="M22,8a8,8,0,1,0,8,8A8.009,8.009,0,0,0,22,8Zm-1,7h2a3,3,0,0,1,0,6v1H21V21a3,3,0,0,1-3-3h2a1,1,0,0,0,1,1h2a1,1,0,0,0,0-2H21a3,3,0,0,1,0-6V10h2v1a3,3,0,0,1,3,3H24a1,1,0,0,0-1-1H21a1,1,0,0,0,0,2Z"></path><path d="M54,34V5a1,1,0,0,0-1-1H11a1,1,0,0,0-1,1V34H30V29a3,3,0,0,1,4-2.829V19a3,3,0,0,1,6,0v5.171a3,3,0,0,1,3.528,1.215A3,3,0,0,1,47.9,27.211,3,3,0,0,1,52,30v4ZM22,26A10,10,0,1,1,32,16,10.011,10.011,0,0,1,22,26ZM37,8h8v2H37Zm12,6H37V12H49Zm0-4H47V8h2Z"></path><path d="M50,30a1,1,0,0,0-2,0v5a1,1,0,0,1-2,0V28a1,1,0,0,0-2,0v6a1,1,0,0,1-2,0V27a1,1,0,0,0-2,0v6a1,1,0,0,1-2,0V19a1,1,0,0,0-2,0V34a1,1,0,0,1-2,0V29a1,1,0,0,0-2,0V39.649l3.781,4.726A1,1,0,0,1,36,45v1H47V45a1,1,0,0,1,.143-.515L50,39.723Z"></path><path d="M32,51v1H4V48H27v1a2.006,2.006,0,0,0,2,2Z"></path><path d="M52,48V46h7.38l-5-10H52v4a1,1,0,0,1-.14.51L49,45.28V46a1,1,0,0,1,1,1v5H60V48Zm0-6h2v2H52Z"></path><rect x="29" y="48" width="3" height="1"></rect></g></svg>