<svg xmlns="http://www.w3.org/2000/svg" viewBox="0 0 64 64" x="0px" y="0px"><g><path d="M42,9a2,2,0,0,0-2,2h4A2,2,0,0,0,42,9Z"></path><path d="M17,26V24H15a1,1,0,0,1-1-1V21H12v2a1,1,0,0,1-1,1H9v2h2a1,1,0,0,1,1,1v2h2V27a1,1,0,0,1,1-1Z"></path><path d="M51,51a4,4,0,1,0,4,4A4,4,0,0,0,51,51Zm1,5H50V54h2Z"></path><path d="M55.619,51.176a6.063,6.063,0,0,1,.544.782c.02.035.043.068.063.1a5.833,5.833,0,0,1,.385.833c.019.049.037.1.054.147a5.857,5.857,0,0,1,.235.895c0,.022.013.041.017.063H60V47a3,3,0,0,0-3-3H56a1,1,0,0,1-1-1V40a1,1,0,0,0-1-1H40a1,1,0,0,1-1-1V22a5.006,5.006,0,0,1,5-5h4V16a3,3,0,0,0-3-3H7a3,3,0,0,0-3,3V54H9.083c0-.022.013-.041.017-.063a5.857,5.857,0,0,1,.235-.895c.017-.05.035-.1.054-.147a5.833,5.833,0,0,1,.385-.833c.02-.036.043-.069.063-.1a6.063,6.063,0,0,1,.544-.782l.011-.013a5.931,5.931,0,0,1,.668-.677c.025-.022.048-.046.074-.068a6.039,6.039,0,0,1,.745-.533l.13-.079a6.076,6.076,0,0,1,.817-.392l.148-.055a6.03,6.03,0,0,1,.9-.249c.04-.008.08-.012.12-.019a5.617,5.617,0,0,1,2.014,0c.04.007.08.011.12.019a6.03,6.03,0,0,1,.9.249l.148.055a6.076,6.076,0,0,1,.817.392l.13.079a6.039,6.039,0,0,1,.745.533c.026.022.049.046.074.068a5.931,5.931,0,0,1,.668.677l.011.013a6.063,6.063,0,0,1,.544.782c.02.035.043.068.063.1a5.833,5.833,0,0,1,.385.833c.019.049.037.1.054.147a5.857,5.857,0,0,1,.235.895c0,.022.013.041.017.063H45.083c0-.022.013-.041.017-.063a5.857,5.857,0,0,1,.235-.895c.017-.05.035-.1.054-.147a5.833,5.833,0,0,1,.385-.833c.02-.036.043-.069.063-.1a6.063,6.063,0,0,1,.544-.782l.011-.013a5.931,5.931,0,0,1,.668-.677c.025-.022.048-.046.074-.068a6.039,6.039,0,0,1,.745-.533l.13-.079a6.076,6.076,0,0,1,.817-.392l.148-.055a6.03,6.03,0,0,1,.9-.249c.04-.008.08-.012.12-.019a5.617,5.617,0,0,1,2.014,0c.04.007.08.011.12.019a6.03,6.03,0,0,1,.9.249l.148.055a6.076,6.076,0,0,1,.817.392l.13.079a6.039,6.039,0,0,1,.745.533c.026.022.049.046.074.068a5.931,5.931,0,0,1,.668.677ZM21,18a1,1,0,0,1,1-1H36a1,1,0,0,1,1,1V38a1,1,0,0,1-1,1H22a1,1,0,0,1-1-1ZM11,44H7V42h4Zm0-13a1,1,0,0,1-1-1V28H8a1,1,0,0,1-1-1V23a1,1,0,0,1,1-1h2V20a1,1,0,0,1,1-1h4a1,1,0,0,1,1,1v2h2a1,1,0,0,1,1,1v4a1,1,0,0,1-1,1H16v2a1,1,0,0,1-1,1ZM53,44H13V42H53Z"></path><rect x="23" y="19" width="12" height="18"></rect><path d="M15,51a4,4,0,1,0,4,4A4,4,0,0,0,15,51Zm1,5H14V54h2Z"></path><path d="M41,22V37h7V19H44A3,3,0,0,0,41,22Z"></path><rect x="41" y="5" width="2" height="2"></rect><rect x="45.243" y="6.757" width="2" height="2" transform="translate(8.059 34.971) rotate(-45)"></rect><rect x="36.757" y="6.757" width="2" height="2" transform="translate(5.574 28.971) rotate(-45)"></rect></g></svg>