<svg xmlns="http://www.w3.org/2000/svg" viewBox="0 0 64 64" x="0px" y="0px"><g><path d="M33.805,19a3.9,3.9,0,0,1-3.433-1.978C30.247,17.016,30.125,17,30,17h-.19a6.976,6.976,0,0,0-5.565,3.026A6.9,6.9,0,0,0,23,24a7,7,0,1,0,11.884-5ZM29,23h2a3,3,0,0,1,0,6v1H29V29a3,3,0,0,1-3-3h2a1,1,0,0,0,1,1h2a1,1,0,0,0,0-2H29a3,3,0,0,1,0-6V18h2v1a3,3,0,0,1,3,3H32a1,1,0,0,0-1-1H29a1,1,0,0,0,0,2Z"></path><rect x="56" y="6" width="4" height="14"></rect><path d="M41.805,18c0,1.514,2.477,3,5,3s5-1.486,5-3a1,1,0,0,1,1-1H54V9H52.81a.993.993,0,0,1-.394-.081L45.605,6H35.29a5,5,0,0,0-3.53,1.464L23.617,15.6a1.963,1.963,0,0,0-.355,2.383c.008.012.018.02.026.031A9,9,0,0,1,29.788,15h.017a4,4,0,0,1,4-4h11v2h-11a2,2,0,0,0-1.412,3.413A1.98,1.98,0,0,0,33.805,17h7A1,1,0,0,1,41.805,18Z"></path><rect x="13.67" y="41.474" width="6" height="14" transform="translate(-15.574 8.626) rotate(-20.001)"></rect><rect x="6.153" y="45.21" width="6" height="12" transform="translate(-16.962 6.218) rotate(-19.999)"></rect><path d="M24.019,51.12a1,1,0,0,1,.662-.008l5.734,1.937,20.344-7.4a2,2,0,0,0-1.368-3.76L42.9,44.247a4.113,4.113,0,0,1-.042.537,4.011,4.011,0,0,1-4.636,3.258L26.965,46.057l.347-1.97L38.57,46.073a2.009,2.009,0,0,0,2.319-1.627,1.833,1.833,0,0,0-.008-.678,3.028,3.028,0,0,0-.085-.351,1.982,1.982,0,0,0-1.532-1.287L25.938,39.78l-6.279,2.285,3.42,9.4Z"></path></g></svg>