<svg xmlns="http://www.w3.org/2000/svg" viewBox="0 0 64 64" x="0px" y="0px"><g><path d="M37,37.051V34.188A6,6,0,0,0,40,29V28a3,3,0,0,0,3-3V19a10.992,10.992,0,0,0-5.238-9.352A5.926,5.926,0,0,0,38,8,6,6,0,0,0,26,8a5.926,5.926,0,0,0,.238,1.648A10.992,10.992,0,0,0,21,19v6a3,3,0,0,0,3,3v1a6,6,0,0,0,3,5.188v2.863A13.009,13.009,0,0,0,15,50V61a1,1,0,0,0,1,1H48a1,1,0,0,0,1-1V50A13.009,13.009,0,0,0,37,37.051Zm-8.927,2.642,2.5,3.126-2.13,1.6-1.32-3.3ZM32,44.25l2.763,2.071L32,52.538l-2.763-6.217Zm3.556.167-2.13-1.6,2.5-3.126.949,1.424ZM40,26V24a1,1,0,0,1,0,2ZM28,8a4,4,0,1,1,7.921.735,10.826,10.826,0,0,0-7.842,0A3.966,3.966,0,0,1,28,8Zm4,2a9.01,9.01,0,0,1,9,9v3.184A2.966,2.966,0,0,0,40,22V20a1,1,0,0,0-.553-.895c-1.327-.663-2.254-2.7-2.5-3.422A1,1,0,0,0,35.2,15.4c-2.707,3.61-10.249,4.6-10.325,4.608A1,1,0,0,0,24,21v1a2.966,2.966,0,0,0-1,.184V19A9.01,9.01,0,0,1,32,10ZM23,25a1,1,0,0,1,1-1v2A1,1,0,0,1,23,25Zm3-3.145c1.973-.347,6.776-1.427,9.7-4.064A7.866,7.866,0,0,0,38,20.566V29a4,4,0,0,1-4,4H30a4,4,0,0,1-4-4ZM30,35h4a6,6,0,0,0,1-.09v2.738L32,41.4l-3-3.75V34.91A6,6,0,0,0,30,35ZM47,60H43v-.553a8.417,8.417,0,0,0,0-10.894V47H41v2a1,1,0,0,0,.4.8c.9.679,1.6,2.815,1.6,4.2s-.7,3.522-1.6,4.2a1,1,0,0,0-.4.8v1H23V59a1,1,0,0,0-.4-.8c-.9-.679-1.6-2.815-1.6-4.2s.7-3.522,1.6-4.2A1,1,0,0,0,23,49V47H21v1.553a8.417,8.417,0,0,0,0,10.894V60H17V50a11.013,11.013,0,0,1,9-10.81l-.837,1.255a1,1,0,0,0-.1.926l6.015,14.035a1,1,0,0,0,1.828,0l6.015-14.035a1,1,0,0,0-.1-.926l-.837-1.255A11.013,11.013,0,0,1,47,50Z"></path><path d="M34.62,23.92A.99.99,0,0,0,36,23a1.05,1.05,0,0,0-.29-.71l-.15-.12a.776.776,0,0,0-.18-.09.609.609,0,0,0-.191-.06.922.922,0,0,0-.569.06.933.933,0,0,0-.33.21A1.045,1.045,0,0,0,34,23a.99.99,0,0,0,.29.71A1.155,1.155,0,0,0,34.62,23.92Z"></path><path d="M29,24a.99.99,0,0,0,1-1,1,1,0,1,0-2,0,.99.99,0,0,0,1,1Z"></path></g></svg>