<svg xmlns="http://www.w3.org/2000/svg" viewBox="0 0 64 64" x="0px" y="0px"><g data-name="Compass-Draw-Education-Drawing-School Material"><path d="M41.185,34.522a19.451,19.451,0,0,0,5.44-2.741l-1.248-1.563a17.734,17.734,0,0,1-4.546,2.3L38.26,17.93,32,17l2.966,16.843c-.627.067-1.288.106-1.966.13V32H31v1.973c-.678-.024-1.339-.063-1.966-.13L32,17l-6.26.93L23.169,32.516a17.734,17.734,0,0,1-4.546-2.3l-1.248,1.563a19.451,19.451,0,0,0,5.44,2.741L19.84,51.41l3.6,2.673L22.2,61.144l1.97.345L28.686,35.82c.734.081,1.513.127,2.314.153V38h2V35.973c.8-.026,1.58-.072,2.314-.153l4.515,25.669,1.97-.345-1.242-7.061,3.6-2.673Z"></path><path d="M35.54,8.46A5,5,0,0,0,33,7.1V2H31V7.1a4.99,4.99,0,1,0,4.54,1.36ZM33,13H31V11h2Z"></path></g></svg>