<svg xmlns="http://www.w3.org/2000/svg" viewBox="0 0 64 64" x="0px" y="0px"><g data-name="Pipe-Tree Way-Water-Gas-Oil"><rect x="26" y="11" width="12" height="10"></rect><rect x="23" y="23" width="18" height="6" rx="1"></rect><path d="M60,49V37H54V49ZM56,39h2v2H56Z"></path><rect x="46" y="34" width="6" height="18" rx="1"></rect><rect x="12" y="34" width="6" height="18" rx="1"></rect><path d="M10,49V37H4V49ZM6,39H8v2H6Z"></path><path d="M20,37V49H44V37H39a1,1,0,0,1-1-1V31H26v5a1,1,0,0,1-1,1Zm8,8h4v2H28Zm-2,0v2H24V45Z"></path></g></svg>