<svg xmlns="http://www.w3.org/2000/svg" viewBox="0 0 64 64" x="0px" y="0px"><g><path d="M57,2H7A5,5,0,0,0,2,7V57a5,5,0,0,0,5,5H57a5,5,0,0,0,5-5V7A5,5,0,0,0,57,2Zm3,55a3.009,3.009,0,0,1-3,3H7a3.009,3.009,0,0,1-3-3V12.03H60Zm0-46.97H4V7A3.009,3.009,0,0,1,7,4H57a3.009,3.009,0,0,1,3,3Z"></path><path d="M47.28,42.42l2.81-2.81a1.008,1.008,0,0,0,0-1.42l-9.9-9.9a1.034,1.034,0,0,0-1.41,0l-2.62,2.62-1.53.3-2.92-2.92A1.033,1.033,0,0,0,31,28H27.17l-2.53-2.54a1.008,1.008,0,0,0-1.42,0l-9.9,9.9a1.008,1.008,0,0,0,0,1.42l7.2,7.2a2.973,2.973,0,0,0,2.55,4.27,2.906,2.906,0,0,0,.86,1.96,2.964,2.964,0,0,0,1.96.87,2.983,2.983,0,0,0,2.83,2.83,3,3,0,0,0,5.11,1.96l1.06,1.06a2.994,2.994,0,0,0,4.24,0,2.91,2.91,0,0,0,.86-1.97,2.944,2.944,0,0,0,2.83-2.82,2.963,2.963,0,0,0,2.83-2.83,2.993,2.993,0,0,0,1.97-5.11l-1.06-1.06.71-.7C47.27,42.43,47.27,42.43,47.28,42.42ZM15.44,36.07l8.49-8.48L25.34,29l-8.48,8.49Zm2.83,2.83,8.9-8.9h3.42l7.83,7.84a.978.978,0,0,1,0,1.41,1.014,1.014,0,0,1-1.41,0l-4.24-4.24a1.037,1.037,0,0,0-1.42,0,3.075,3.075,0,0,1-4.24,0L25.7,36.42a5.076,5.076,0,0,0,1.23.89l-5.12,5.13Zm15.2,12.37a3.008,3.008,0,0,0-.76,2.89l-.3.29a.972.972,0,0,1-.71.29.951.951,0,0,1-.7-.29.993.993,0,0,1-.01-1.4.01.01,0,0,0,.01-.01l2.83-2.82v-.01L32.41,48.8l-2.83,2.83c-.01,0-.01,0-.01.01a1.032,1.032,0,0,1-1.4-.01,1.014,1.014,0,0,1,0-1.42L31,47.38l-1.41-1.41L26.76,48.8a1,1,0,1,1-1.42-1.42l2.83-2.82-1.41-1.42-2.83,2.83a1.027,1.027,0,0,1-1.42,0,1,1,0,0,1,0-1.41l6.67-6.68c.02,0,.03.01.05.01a4.949,4.949,0,0,0,2.76-.83l3.61,3.61a3.075,3.075,0,0,0,4.24,0,3,3,0,0,0,.06-4.18l5.25,5.24-.3.29a3.007,3.007,0,0,0-2.89.77,2.906,2.906,0,0,0-.86,1.96,2.961,2.961,0,0,0-2.83,2.86,2.907,2.907,0,0,0-2.83,2.8A3.046,3.046,0,0,0,33.47,51.27Zm4.25,4.25a1.027,1.027,0,0,1-1.42,0L34.89,54.1a1,1,0,1,1,1.41-1.41l1.42,1.41A1.008,1.008,0,0,1,37.72,55.52Zm2.83-2.83a1.008,1.008,0,0,1-1.42,0l-1.41-1.42a1,1,0,0,1,0-1.41,1,1,0,0,1,1.41,0l1.42,1.41a1.014,1.014,0,0,1,0,1.42Zm2.82-2.83a1.014,1.014,0,0,1-1.41,0l-1.41-1.42a.96.96,0,0,1-.3-.7,1.007,1.007,0,0,1,1-1,1.024,1.024,0,0,1,.71.29l1.41,1.42A1,1,0,0,1,43.37,49.86Zm2.83-2.83a1,1,0,0,1-1.41,0l-1.42-1.41a1.008,1.008,0,0,1,0-1.42,1.042,1.042,0,0,1,.71-.29,1.024,1.024,0,0,1,.71.29l1.41,1.42a.978.978,0,0,1,0,1.41Zm-8.13-15.2,1.42-1.42,8.48,8.49-1.41,1.41Z"></path><rect x="8" y="6" width="2" height="2"></rect><rect x="12" y="6" width="2" height="2"></rect><rect x="16" y="6" width="2" height="2"></rect><path d="M35,26a5,5,0,0,0,4.843-3.75l-1.938-.5A3,3,0,1,1,35.751,18.1l.5-1.938A5,5,0,1,0,35,26Z"></path><rect x="33.964" y="18.5" width="7.071" height="2" transform="translate(-2.805 32.228) rotate(-45)"></rect><rect x="44" y="18" width="12" height="2"></rect><rect x="44" y="22" width="12" height="2"></rect><path d="M15,27h2V26a3,3,0,0,0,0-6H15a1,1,0,0,1,0-2h2a1,1,0,0,1,1,1h2a3,3,0,0,0-3-3V15H15v1a3,3,0,0,0,0,6h2a1,1,0,0,1,0,2H15a1,1,0,0,1-1-1H12a3,3,0,0,0,3,3Z"></path><rect x="22" y="20" width="2" height="2"></rect><rect x="8" y="20" width="2" height="2"></rect></g></svg>