<svg xmlns="http://www.w3.org/2000/svg" viewBox="0 0 64 64" x="0px" y="0px"><g data-name="Air Conditioner-Remote-Control-Smartphone-Application"><polygon points="36.41 33 37.71 34.29 36.29 35.71 34.59 34 34 34 34 34.59 35.71 36.29 34.29 37.71 33 36.41 31.71 37.71 30.29 36.29 32 34.59 32 34 31.41 34 29.71 35.71 28.29 34.29 29.59 33 28.29 31.71 29.71 30.29 31.41 32 32 32 32 31.41 30.29 29.71 31.71 28.29 33 29.59 34.29 28.29 35.71 29.71 34 31.41 34 32 34.59 32 36.29 30.29 37.71 31.71 36.41 33"></polygon><polygon points="48.293 30.293 46.586 32 46 32 46 31.414 47.707 29.707 46.293 28.293 45 29.586 43.707 28.293 42.293 29.707 44 31.414 44 32 43.414 32 41.707 30.293 40.293 31.707 41.586 33 40.293 34.293 41.707 35.707 43.414 34 44 34 44 34.586 42.293 36.293 43.707 37.707 45 36.414 46.293 37.707 47.707 36.293 46 34.586 46 34 46.586 34 48.293 35.707 49.707 34.293 48.414 33 49.707 31.707 48.293 30.293"></polygon><path d="M55,2H23a3.009,3.009,0,0,0-3,3V17a3.009,3.009,0,0,0,3,3H55a3.009,3.009,0,0,0,3-3V5A3.009,3.009,0,0,0,55,2ZM52,18H26V16H52Zm4-1a1,1,0,0,1-1,1H54V15a1,1,0,0,0-1-1H25a1,1,0,0,0-1,1v3H23a1,1,0,0,1-1-1V5a1,1,0,0,1,1-1H55a1,1,0,0,1,1,1Z"></path><rect x="38" y="22" width="2" height="4"></rect><rect x="48" y="22" width="2" height="4"></rect><rect x="28" y="22" width="2" height="4"></rect><rect x="43" y="22" width="2" height="2"></rect><rect x="33" y="22" width="2" height="2"></rect><path d="M19,28H7a5,5,0,0,0-5,5V57a5,5,0,0,0,5,5H19a5,5,0,0,0,5-5V33A5,5,0,0,0,19,28Zm3,29a3.009,3.009,0,0,1-3,3H7a3.009,3.009,0,0,1-3-3V33a3.009,3.009,0,0,1,3-3H19a3.009,3.009,0,0,1,3,3Z"></path><rect x="10" y="32" width="6" height="2"></rect><rect x="12" y="56" width="2" height="2"></rect><polygon points="17.293 42.293 15.586 44 14 44 14 42.414 15.707 40.707 14.293 39.293 13 40.586 11.707 39.293 10.293 40.707 12 42.414 12 44 10.414 44 8.707 42.293 7.293 43.707 8.586 45 7.293 46.293 8.707 47.707 10.414 46 12 46 12 47.586 10.293 49.293 11.707 50.707 13 49.414 14.293 50.707 15.707 49.293 14 47.586 14 46 15.586 46 17.293 47.707 18.707 46.293 17.414 45 18.707 43.707 17.293 42.293"></polygon><path d="M35.464,50.465l1.414,1.414a3,3,0,0,1,4.244,0l1.414-1.414A5.008,5.008,0,0,0,35.464,50.465Z"></path><path d="M32.636,47.636,34.05,49.05a7.009,7.009,0,0,1,9.9,0l1.414-1.414A9.009,9.009,0,0,0,32.636,47.636Z"></path><rect x="38" y="53" width="2" height="2"></rect><path d="M39,40A10,10,0,1,0,49,50,10.011,10.011,0,0,0,39,40Zm0,18a8,8,0,1,1,8-8A8.009,8.009,0,0,1,39,58Z"></path></g></svg>