<svg xmlns="http://www.w3.org/2000/svg" viewBox="0 0 64 64" x="0px" y="0px"><title>House-Loan</title><g><path d="M32,43a2,2,0,0,1,2,2h2a4,4,0,0,0-3-3.858V40H31v1.142A3.992,3.992,0,0,0,32,49a2,2,0,1,1-2,2H28a4,4,0,0,0,3,3.858V56h2V54.858A3.992,3.992,0,0,0,32,47a2,2,0,0,1,0-4Z"></path><path d="M32,37A11,11,0,1,0,43,48,11.013,11.013,0,0,0,32,37Zm0,20a9,9,0,1,1,9-9A9.01,9.01,0,0,1,32,57Z"></path><rect x="37" y="47" width="2" height="2"></rect><rect x="25" y="47" width="2" height="2"></rect><path d="M60,29.586,33.414,3a2,2,0,0,0-2.828,0L4,29.586A2,2,0,0,0,5.414,33H7.586A1.986,1.986,0,0,0,9,32.414l3-3V56a2,2,0,0,0,2,2h8.221a13.954,13.954,0,0,0,19.558,0H50a2,2,0,0,0,2-2V29.414l3,3A1.986,1.986,0,0,0,56.414,33h2.172A2,2,0,0,0,60,29.586ZM32,60A12,12,0,1,1,44,48,12.013,12.013,0,0,1,32,60Zm11.473-4a14,14,0,1,0-22.946,0H14V28H50V56ZM15.414,26,32,9.414,48.586,26Zm41,5L32.707,7.293a1,1,0,0,0-1.414,0L7.586,31H5.414L32,4.414,58.586,31Z"></path></g></svg>