<svg xmlns="http://www.w3.org/2000/svg" viewBox="0 0 64 64" x="0px" y="0px"><g><path d="M40,6H24a7.008,7.008,0,0,0-7,7V51a7.008,7.008,0,0,0,7,7H40a7.008,7.008,0,0,0,7-7V13A7.008,7.008,0,0,0,40,6ZM19,16H45V48H19ZM40,56H24a5.006,5.006,0,0,1-5-5V50H45v1A5.006,5.006,0,0,1,40,56Zm5-42H19V13a5.006,5.006,0,0,1,5-5H40a5.006,5.006,0,0,1,5,5Z"></path><rect x="30" y="52" width="4" height="2"></rect><rect x="23" y="10" width="2" height="2"></rect><rect x="27" y="10" width="6" height="2"></rect><path d="M54,32a5.006,5.006,0,0,0-5-5v2a3,3,0,0,1,0,6v2A5.006,5.006,0,0,0,54,32Z"></path><path d="M58,32a9.01,9.01,0,0,0-9-9v2a7,7,0,0,1,0,14v2A9.01,9.01,0,0,0,58,32Z"></path><path d="M49,19v2a11,11,0,0,1,0,22v2a13,13,0,0,0,0-26Z"></path><path d="M10,32a5.006,5.006,0,0,0,5,5V35a3,3,0,0,1,0-6V27A5.006,5.006,0,0,0,10,32Z"></path><path d="M6,32a9.01,9.01,0,0,0,9,9V39a7,7,0,0,1,0-14V23A9.01,9.01,0,0,0,6,32Z"></path><path d="M2,32A13.015,13.015,0,0,0,15,45V43a11,11,0,0,1,0-22V19A13.015,13.015,0,0,0,2,32Z"></path></g></svg>