<svg xmlns="http://www.w3.org/2000/svg" viewBox="0 0 64 64" x="0px" y="0px"><g><path d="M62,22a10.015,10.015,0,0,0-9.065-9.957A7.011,7.011,0,0,0,46,6a6.937,6.937,0,0,0-4.053,1.293,11.991,11.991,0,0,0-21.53,3.6A6.986,6.986,0,0,0,10.08,16,8,8,0,1,0,10,32H24.019A9.988,9.988,0,0,0,31,35.949V37a1,1,0,0,1-1,1H12a5,5,0,0,0,0,10h4a1,1,0,0,1,1,1v4a3,3,0,0,0,3,3h3v3a3,3,0,0,0,3,3H54a3,3,0,0,0,3-3V51a3,3,0,0,0-3-3H26a3,3,0,0,0-3,3v3H20a1,1,0,0,1-1-1V49a3,3,0,0,0-3-3H12a3,3,0,0,1,0-6H30a3,3,0,0,0,3-3V35.949A9.988,9.988,0,0,0,39.981,32H52A10.011,10.011,0,0,0,62,22ZM25,51a1,1,0,0,1,1-1H54a1,1,0,0,1,1,1v8a1,1,0,0,1-1,1H26a1,1,0,0,1-1-1Zm7-17a8,8,0,1,1,8-8A8.009,8.009,0,0,1,32,34Zm0-18a9.988,9.988,0,0,0-9.159,14H10a6,6,0,0,1,0-12,5.485,5.485,0,0,1,.845.068,1.029,1.029,0,0,0,.8-.268A1.086,1.086,0,0,0,12,17a5,5,0,0,1,8.42-3.646,1,1,0,0,0,1.672-.611A9.988,9.988,0,0,1,40.818,9.292a1,1,0,0,0,1.6.226A5,5,0,0,1,51,13a1,1,0,0,0,1,1,8,8,0,0,1,0,16H41.159A9.988,9.988,0,0,0,32,16Z"></path><rect x="47" y="12" width="2" height="2"></rect><path d="M56,22h2a6.006,6.006,0,0,0-6-6v2A4,4,0,0,1,56,22Z"></path><rect x="43" y="12" width="2" height="2"></rect><path d="M31,23h2a1,1,0,0,1,1,1h2a3,3,0,0,0-3-3V20H31v1a3,3,0,0,0,0,6h2a1,1,0,0,1,0,2H31a1,1,0,0,1-1-1H28a3,3,0,0,0,3,3v1h2V31a3,3,0,0,0,0-6H31a1,1,0,0,1,0-2Z"></path><rect x="27" y="56" width="2" height="2"></rect><rect x="31" y="56" width="18" height="2"></rect><rect x="51" y="56" width="2" height="2"></rect><rect x="51" y="52" width="2" height="2"></rect><rect x="47" y="52" width="2" height="2"></rect><rect x="43" y="52" width="2" height="2"></rect><rect x="39" y="52" width="2" height="2"></rect><rect x="35" y="52" width="2" height="2"></rect><rect x="31" y="52" width="2" height="2"></rect><rect x="27" y="52" width="2" height="2"></rect><rect x="40" y="34" width="2" height="2"></rect><rect x="44" y="34" width="2" height="2"></rect><rect x="48" y="34" width="2" height="2"></rect><rect x="22" y="34" width="2" height="2"></rect><rect x="18" y="34" width="2" height="2"></rect><rect x="14" y="34" width="2" height="2"></rect></g></svg>