<svg xmlns="http://www.w3.org/2000/svg" viewBox="0 0 64 64" x="0px" y="0px"><g data-name="Global Network"><path d="M23,38H5a3,3,0,0,0-3,3V53a3,3,0,0,0,3,3h5v4H8v2H20V60H18V56h5a3,3,0,0,0,3-3V41A3,3,0,0,0,23,38ZM5,40H23a1,1,0,0,1,1,1v9H4V41A1,1,0,0,1,5,40ZM16,60H12V56h4Zm7-6H5a1,1,0,0,1-1-1V52H24v1A1,1,0,0,1,23,54Z"></path><path d="M59,38H41a3,3,0,0,0-3,3V53a3,3,0,0,0,3,3h5v4H44v2H56V60H54V56h5a3,3,0,0,0,3-3V41A3,3,0,0,0,59,38ZM41,40H59a1,1,0,0,1,1,1v9H40V41A1,1,0,0,1,41,40ZM52,60H48V56h4Zm7-6H41a1,1,0,0,1-1-1V52H60v1A1,1,0,0,1,59,54Z"></path><path d="M46,16A14,14,0,1,0,32,30,14.015,14.015,0,0,0,46,16Zm-5.759,8.7a14.016,14.016,0,0,0-1.536-.976A21.841,21.841,0,0,0,39.972,17h3.977A11.96,11.96,0,0,1,40.241,24.7ZM33,24.044a11.982,11.982,0,0,1,3.069.67A6.165,6.165,0,0,1,33,27.812Zm0-2V17h4.974a20.261,20.261,0,0,1-1.1,5.884A14.01,14.01,0,0,0,33,22.044ZM33,15V9.956a14.01,14.01,0,0,0,3.873-.84A20.261,20.261,0,0,1,37.974,15Zm0-7.044V4.188a6.165,6.165,0,0,1,3.069,3.1A11.982,11.982,0,0,1,33,7.956Zm4.12-2.793a12.051,12.051,0,0,1,1.5.835c-.239.158-.48.312-.729.452A12.384,12.384,0,0,0,37.12,5.163ZM31,4.188V7.956a11.982,11.982,0,0,1-3.069-.67A6.165,6.165,0,0,1,31,4.188ZM26.114,6.45c-.249-.141-.49-.294-.729-.452a11.979,11.979,0,0,1,1.495-.835A12.384,12.384,0,0,0,26.114,6.45ZM31,9.956V15H26.026a20.261,20.261,0,0,1,1.1-5.884A14.01,14.01,0,0,0,31,9.956ZM31,17v5.044a14.01,14.01,0,0,0-3.873.84A20.261,20.261,0,0,1,26.026,17Zm0,7.044v3.768a6.165,6.165,0,0,1-3.069-3.1A11.982,11.982,0,0,1,31,24.044Zm-4.12,2.793A11.979,11.979,0,0,1,25.385,26c.239-.158.48-.311.729-.452A12.384,12.384,0,0,0,26.88,26.837ZM37.886,25.55c.249.14.49.294.729.452a12.051,12.051,0,0,1-1.5.835A12.384,12.384,0,0,0,37.886,25.55ZM43.949,15H39.972a21.841,21.841,0,0,0-1.267-6.724A14.016,14.016,0,0,0,40.241,7.3,11.96,11.96,0,0,1,43.949,15ZM23.759,7.3a14.016,14.016,0,0,0,1.536.976A21.841,21.841,0,0,0,24.028,15H20.051A11.96,11.96,0,0,1,23.759,7.3ZM20.051,17h3.977A21.841,21.841,0,0,0,25.3,23.724a14.016,14.016,0,0,0-1.536.976A11.96,11.96,0,0,1,20.051,17Z"></path><rect x="48" y="14" width="2" height="2"></rect><rect x="52" y="18" width="2" height="2"></rect><rect x="52" y="14" width="2" height="2"></rect><rect x="52" y="22" width="2" height="2"></rect><rect x="52" y="26" width="2" height="2"></rect><rect x="52" y="30" width="2" height="2"></rect><rect x="52" y="34" width="2" height="2"></rect><rect x="14" y="14" width="2" height="2"></rect><rect x="10" y="18" width="2" height="2"></rect><rect x="10" y="14" width="2" height="2"></rect><rect x="10" y="22" width="2" height="2"></rect><rect x="10" y="26" width="2" height="2"></rect><rect x="10" y="30" width="2" height="2"></rect><rect x="10" y="34" width="2" height="2"></rect></g></svg>