<svg xmlns="http://www.w3.org/2000/svg" viewBox="0 0 64 64" x="0px" y="0px"><g data-name="Content Marketing"><path d="M61.1,26.005l-6.449-.645a.973.973,0,0,1-.834-.64,22.672,22.672,0,0,0-1.241-2.995.971.971,0,0,1,.135-1.045l4.105-5.017a1,1,0,0,0-.067-1.341L49.678,7.251a1,1,0,0,0-1.34-.066l-5.019,4.1a.97.97,0,0,1-1.045.134,22.748,22.748,0,0,0-2.994-1.242.969.969,0,0,1-.64-.833L37.995,2.9A1,1,0,0,0,37,2H27a1,1,0,0,0-1,.9L25.36,9.349a.969.969,0,0,1-.64.833,22.761,22.761,0,0,0-2.995,1.242.969.969,0,0,1-1.045-.134l-5.017-4.1a1,1,0,0,0-1.341.066L7.251,14.322a1,1,0,0,0-.066,1.341l4.1,5.017a.97.97,0,0,1,.134,1.045,22.761,22.761,0,0,0-1.242,2.995.969.969,0,0,1-.833.64L2.9,26.005A1,1,0,0,0,2,27V37a1,1,0,0,0,.9.995l6.449.645a.969.969,0,0,1,.833.64,22.692,22.692,0,0,0,1.242,2.994.972.972,0,0,1-.134,1.046l-4.1,5.017a1,1,0,0,0,.066,1.341l7.071,7.071a1,1,0,0,0,1.341.066l5.017-4.1a.97.97,0,0,1,1.045-.134,22.761,22.761,0,0,0,2.995,1.242.969.969,0,0,1,.64.833l.645,6.449a1,1,0,0,0,1,.9H37a1,1,0,0,0,.995-.9l.71-7.1a22.757,22.757,0,0,0,3.569-1.425.97.97,0,0,1,1.046.134l5.018,4.1a1,1,0,0,0,1.34-.066l7.071-7.071a1,1,0,0,0,.067-1.341L52.711,43.32a.972.972,0,0,1-.135-1.046,22.647,22.647,0,0,0,1.241-2.993.973.973,0,0,1,.834-.641l6.449-.645A1,1,0,0,0,62,37V27A1,1,0,0,0,61.1,26.005ZM60,36.1l-5.548.555a2.972,2.972,0,0,0-2.532,2,20.816,20.816,0,0,1-1.133,2.732,2.975,2.975,0,0,0,.375,3.206L54.7,48.9,48.9,54.694l-4.316-3.531a2.977,2.977,0,0,0-3.208-.375,20.854,20.854,0,0,1-3.863,1.475,1,1,0,0,0-.734.865L36.1,60h-8.19l-.555-5.547a2.973,2.973,0,0,0-2-2.533,20.814,20.814,0,0,1-2.732-1.132,2.975,2.975,0,0,0-3.207.375L15.1,54.694,9.306,48.9l3.531-4.317a2.973,2.973,0,0,0,.375-3.207,20.814,20.814,0,0,1-1.132-2.732,2.973,2.973,0,0,0-2.532-2L4,36.1v-8.19l5.547-.555a2.973,2.973,0,0,0,2.533-2,20.814,20.814,0,0,1,1.132-2.732,2.971,2.971,0,0,0-.375-3.207L9.306,15.1,15.1,9.306l4.317,3.531a2.973,2.973,0,0,0,3.207.375,20.814,20.814,0,0,1,2.732-1.132,2.973,2.973,0,0,0,2-2.532L27.905,4H36.1l.554,5.548a2.977,2.977,0,0,0,2,2.532,20.941,20.941,0,0,1,2.733,1.132,2.967,2.967,0,0,0,3.206-.375L48.9,9.306,54.7,15.1l-3.533,4.317a2.975,2.975,0,0,0-.375,3.206,20.871,20.871,0,0,1,1.134,2.734,2.971,2.971,0,0,0,2.531,2L60,27.905Z"></path><path d="M46.122,39.529A16.01,16.01,0,0,1,23.562,45.6l-1.056,1.7a18.009,18.009,0,0,0,25.38-6.823Z"></path><path d="M32,16a15.98,15.98,0,0,1,12.237,5.691l1.53-1.289a18,18,0,0,0-28.2,22.362l1.6-1.2A16,16,0,0,1,32,16Z"></path><path d="M25,45a3,3,0,0,0,3-3V35.877l7.1,2.838A2.995,2.995,0,0,0,41,38V33a3,3,0,0,0,0-6V22a2.995,2.995,0,0,0-5.9-.715L25.807,25H20a3,3,0,0,0-3,3v4a3,3,0,0,0,3,3v7a3,3,0,0,0,3,3ZM42,30a1,1,0,0,1-1,1V29A1,1,0,0,1,42,30Zm-5-8a1,1,0,0,1,2,0V38a1,1,0,0,1-2,0ZM27,26.677l8-3.2V36.523l-8-3.2ZM23,27h2v6H23Zm-4,5V28a1,1,0,0,1,1-1h1v6H20A1,1,0,0,1,19,32Zm3,10V35h3.807l.193.077V42a1,1,0,0,1-1,1H23A1,1,0,0,1,22,42Z"></path><rect x="46" y="29" width="4" height="2"></rect><rect x="44.379" y="23.5" width="4.243" height="2" transform="translate(-3.705 40.056) rotate(-45)"></rect><rect x="45.5" y="33.379" width="2" height="4.243" transform="translate(-11.483 43.278) rotate(-45)"></rect><rect x="31" y="8" width="2" height="2"></rect><rect x="14.737" y="14.736" width="2" height="2" transform="translate(-6.518 15.737) rotate(-45)"></rect><rect x="8" y="31" width="2" height="2"></rect><rect x="14.736" y="47.264" width="2" height="2" transform="translate(-29.518 25.263) rotate(-45)"></rect><rect x="31" y="54" width="2" height="2"></rect><rect x="47.264" y="47.263" width="2" height="2" transform="translate(-19.991 48.252) rotate(-44.99)"></rect><rect x="54" y="31" width="2" height="2"></rect><rect x="47.264" y="14.737" width="2" height="2" transform="translate(3.009 38.737) rotate(-45)"></rect></g></svg>