<svg xmlns="http://www.w3.org/2000/svg" viewBox="0 0 64 64" x="0px" y="0px"><title>Clipboard_16</title><g data-name="Clipboard"><path d="M15,25a8,8,0,1,0,8-8A8.009,8.009,0,0,0,15,25Zm8-6a6,6,0,1,1-6,6A6.006,6.006,0,0,1,23,19Z"></path><path d="M34,51H48a1,1,0,0,0,1-1V38a1,1,0,0,0-1-1H34a1,1,0,0,0-1,1V50A1,1,0,0,0,34,51Zm1-12H47V49H35Z"></path><rect x="33" y="18" width="2" height="2"></rect><rect x="37" y="18" width="12" height="2"></rect><rect x="33" y="22" width="16" height="2"></rect><rect x="33" y="26" width="16" height="2"></rect><rect x="33" y="30" width="16" height="2"></rect><rect x="15" y="37" width="2" height="2"></rect><rect x="19" y="37" width="12" height="2"></rect><rect x="15" y="41" width="16" height="2"></rect><rect x="15" y="45" width="16" height="2"></rect><path d="M55,2H9A2,2,0,0,0,7,4V60a2,2,0,0,0,2,2H55a2,2,0,0,0,2-2V4A2,2,0,0,0,55,2ZM40,4V6H24V4ZM23,12H41a1,1,0,0,0,1-1V8h9V56H13V8h9v3A1,1,0,0,0,23,12Zm17-2H24V8H40ZM9,60V4H22V6H12a1,1,0,0,0-1,1V57a1,1,0,0,0,1,1H52a1,1,0,0,0,1-1V7a1,1,0,0,0-1-1H42V4H55V60Z"></path></g></svg>