<svg xmlns="http://www.w3.org/2000/svg" viewBox="0 0 64 64" x="0px" y="0px"><g><path d="M45.83,30.45,44,27.7V24a1.033,1.033,0,0,0-.29-.71l-2-2A1.033,1.033,0,0,0,41,21H38.72l-.77-2.32A1.014,1.014,0,0,0,37,18H34a1.033,1.033,0,0,0-.71.29L32,19.59l-1.29-1.3A1.033,1.033,0,0,0,30,18H27a1.014,1.014,0,0,0-.95.68L25.28,21H23a1.033,1.033,0,0,0-.71.29l-2,2A1.033,1.033,0,0,0,20,24v3.7l-1.83,2.75A.967.967,0,0,0,18,31v5a1.033,1.033,0,0,0,.29.71L21,39.41V41a1,1,0,0,0,.76.97l3.46.87.83,2.48A1.014,1.014,0,0,0,27,46h3a1.033,1.033,0,0,0,.71-.29L32,44.41l1.29,1.3A1.033,1.033,0,0,0,34,46h3a1.014,1.014,0,0,0,.95-.68l.83-2.48,3.46-.87A1,1,0,0,0,43,41V39.41l2.71-2.7A1.033,1.033,0,0,0,46,36V31A.967.967,0,0,0,45.83,30.45ZM31,42.59,29.59,44H27.72l-.77-2.32a1.01,1.01,0,0,0-.71-.65L23,40.22V35H21v1.59l-1-1V31.3l1.16-1.73.84.84V31h2V30a1.033,1.033,0,0,0-.29-.71L22,27.59V24.41L23.41,23h2.18L27,24.41V25h2V24a1.033,1.033,0,0,0-.29-.71l-1.57-1.56L27.72,20h1.87L31,21.41Zm13-7-1,1V35H41v5.22l-3.24.81a1.01,1.01,0,0,0-.71.65L36.28,44H34.41L33,42.59V21.41L34.41,20h1.87l.58,1.73-1.57,1.56A1.033,1.033,0,0,0,35,24v1h2v-.59L38.41,23h2.18L42,24.41v3.18l-1.71,1.7A1.033,1.033,0,0,0,40,30v1h2v-.59l.84-.84L44,31.3Z"></path><path d="M37.293,32.707l1.414-1.414L37,29.586V27H35v3a1,1,0,0,0,.293.707Z"></path><path d="M37.707,34.293l-1.414,1.414.707.707V38h2V36a1,1,0,0,0-.293-.707Z"></path><path d="M27,29.586l-1.707,1.707,1.414,1.414,2-2A1,1,0,0,0,29,30V27H27Z"></path><path d="M25.293,35.293A1,1,0,0,0,25,36v2h2V36.414l.707-.707-1.414-1.414Z"></path><path d="M29,2H18a2.974,2.974,0,0,0-2,.78A2.974,2.974,0,0,0,14,2H3A1,1,0,0,0,2,3V23a1,1,0,0,0,1,1H18V22h-.83A3.014,3.014,0,0,1,20,20h4V18H20a4.924,4.924,0,0,0-3,1.03V5a1,1,0,0,1,1-1H28V16h2V3A1,1,0,0,0,29,2ZM4,22V20h8a3.014,3.014,0,0,1,2.83,2Zm11-2.97A4.924,4.924,0,0,0,12,18H4V4H14a1,1,0,0,1,1,1Z"></path><rect x="19" y="6" width="7" height="2"></rect><rect x="19" y="10" width="7" height="2"></rect><rect x="19" y="14" width="7" height="2"></rect><rect x="6" y="6" width="7" height="2"></rect><rect x="6" y="10" width="7" height="2"></rect><rect x="6" y="14" width="7" height="2"></rect><path d="M61,40H50a2.974,2.974,0,0,0-2,.78A2.974,2.974,0,0,0,46,40H45v2h1a1,1,0,0,1,1,1V57.03A4.924,4.924,0,0,0,44,56H36V48H34V61a1,1,0,0,0,1,1H61a1,1,0,0,0,1-1V41A1,1,0,0,0,61,40ZM36,60V58h8a3.014,3.014,0,0,1,2.83,2Zm24,0H49.17A3.014,3.014,0,0,1,52,58h8Zm0-4H52a4.924,4.924,0,0,0-3,1.03V43a1,1,0,0,1,1-1H60Z"></path><rect x="51" y="44" width="7" height="2"></rect><rect x="51" y="48" width="7" height="2"></rect><rect x="51" y="52" width="7" height="2"></rect><rect x="40" y="44" width="5" height="2"></rect><rect x="38" y="48" width="7" height="2"></rect><rect x="38" y="52" width="7" height="2"></rect><rect x="30" y="54" width="2" height="2"></rect><rect x="24.081" y="52.958" width="2.001" height="2" transform="translate(-33.529 64.219) rotate(-75)"></rect><rect x="18.634" y="50.418" width="1.999" height="2" transform="translate(-34.714 42.718) rotate(-60.005)"></rect><rect x="14.029" y="46.557" width="2" height="2" transform="translate(-29.226 24.556) rotate(-45)"></rect><rect x="10.582" y="41.634" width="1.999" height="2" transform="translate(-19.762 11.5) rotate(-29.995)"></rect><rect x="8.525" y="35.987" width="2.001" height="2" transform="matrix(0.966, -0.259, 0.259, 0.966, -9.244, 3.723)"></rect><rect x="8" y="30" width="2" height="2"></rect><rect x="32" y="8" width="2" height="2"></rect><rect x="37.919" y="9.043" width="2.001" height="2" transform="translate(19.146 45.036) rotate(-75)"></rect><rect x="43.366" y="11.581" width="1.999" height="2" transform="translate(11.29 44.716) rotate(-60.005)"></rect><rect x="47.971" y="15.443" width="2" height="2" transform="translate(2.716 39.444) rotate(-45)"></rect><rect x="51.419" y="20.366" width="1.999" height="2" transform="translate(-3.661 29.067) rotate(-29.995)"></rect><rect x="53.475" y="26.013" width="2.001" height="2" transform="matrix(0.966, -0.259, 0.259, 0.966, -5.134, 15.012)"></rect><rect x="54" y="32" width="2" height="2"></rect><path d="M50,32h2A20.023,20.023,0,0,0,32,12v2A18.021,18.021,0,0,1,50,32Z"></path><path d="M14,32H12A20.023,20.023,0,0,0,32,52V50A18.021,18.021,0,0,1,14,32Z"></path></g></svg>