<svg xmlns="http://www.w3.org/2000/svg" viewBox="0 0 64 64" x="0px" y="0px"><g data-name="Money Exchange"><path d="M32,21A11,11,0,1,0,43,32,11.013,11.013,0,0,0,32,21Zm0,10a3.992,3.992,0,0,1,1,7.858V41H31V38.858A4,4,0,0,1,28,35h2a2,2,0,1,0,2-2,3.992,3.992,0,0,1-1-7.858V23h2v2.142A4,4,0,0,1,36,29H34a2,2,0,1,0-2,2Z"></path><path d="M34.333,55,29,51v.6a1,1,0,0,1-.367.774,1.016,1.016,0,0,1-.832.206,21,21,0,0,1-5.692-39.107L19.88,10.128A24.9,24.9,0,0,0,7,32,25.152,25.152,0,0,0,28.152,56.7,1,1,0,0,1,29,57.69V59Z"></path><path d="M57,32A25.152,25.152,0,0,0,35.848,7.3,1,1,0,0,1,35,6.31V5L29.667,9,35,13v-.6a1,1,0,0,1,1.2-.98,21,21,0,0,1,5.26,39.33l2.176,3.383A24.806,24.806,0,0,0,57,32Z"></path></g></svg>