<svg xmlns="http://www.w3.org/2000/svg" viewBox="0 0 32 32" x="0px" y="0px"><g data-name="Smartphone-Mobile Data"><path d="M26.879,14.464l-1.414,1.414L26.586,17H18v2h8.586l-1.121,1.122,1.414,1.414,2.828-2.829a1,1,0,0,0,0-1.414Z"></path><path d="M21.414,11l1.121-1.122L21.121,8.464l-2.828,2.829a1,1,0,0,0,0,1.414l2.828,2.829,1.414-1.414L21.414,13H30V11Z"></path><path d="M23,3a1,1,0,0,0-1-1H10A1,1,0,0,0,9,3V4H23Z"></path><path d="M16.96,9.8l3.45-3.46a1.008,1.008,0,0,1,1.42,0L23,7.51V6H9V24H23V21H17a1,1,0,0,1-1-1V16a1,1,0,0,1,1-1h.76l-.88-.88a3,3,0,0,1-.83-2.68A3.121,3.121,0,0,1,16.96,9.8ZM13,16H11V14h2Z"></path><path d="M9,26v3a1,1,0,0,0,1,1H22a1,1,0,0,0,1-1V26Zm8,3H15V27h2Z"></path></g></svg>