<svg xmlns="http://www.w3.org/2000/svg" data-name="Online Banking-Payment-Money-Smartphone-App" viewBox="0 0 64 64" x="0px" y="0px"><circle cx="32" cy="31" r="2"></circle><path d="M24.91,38H39.09A5.992,5.992,0,0,1,44,33.09V28.91A5.992,5.992,0,0,1,39.09,24H24.91A5.992,5.992,0,0,1,20,28.91v4.18A5.992,5.992,0,0,1,24.91,38ZM32,27a4,4,0,1,1-4,4A4,4,0,0,1,32,27Z"></path><path d="M20,37a1,1,0,0,0,1,1h1.86A4.017,4.017,0,0,0,20,35.14Z"></path><path d="M49,12H15V44.66l2.44-4.22a3.832,3.832,0,0,1,1.38-1.39A2.975,2.975,0,0,1,18,37V25a3.009,3.009,0,0,1,3-3H43a3.009,3.009,0,0,1,3,3V37a3.009,3.009,0,0,1-3,3H24.07a4.005,4.005,0,0,1,.3,4.44l-3.26,5.64L21.88,52H49ZM22,16H19v3H17V15a1,1,0,0,1,1-1h4Z"></path><path d="M21,24a1,1,0,0,0-1,1v1.86A4.017,4.017,0,0,0,22.86,24Z"></path><path d="M49,54H22.6a11.075,11.075,0,0,1,.4,2.93v1.3A11.529,11.529,0,0,1,22.85,60H44a5,5,0,0,0,5-5ZM34,58H30V56h4Z"></path><path d="M49,9a5,5,0,0,0-5-5H20a5,5,0,0,0-5,5v1H49ZM27,8H25V6h2Zm8,0H29V6h6Z"></path><path d="M44,25a1,1,0,0,0-1-1H41.14A4.017,4.017,0,0,0,44,26.86Z"></path><path d="M43,38a1,1,0,0,0,1-1V35.14A4.017,4.017,0,0,0,41.14,38Z"></path><path d="M21,58.23v-1.3a9.149,9.149,0,0,0-.64-3.35l-1.29-3.21a1.023,1.023,0,0,1,.06-.87l3.5-6.06a1.974,1.974,0,0,0,.2-1.52,1.894,1.894,0,0,0-.93-1.21,1.988,1.988,0,0,0-2.73.73l-5,8.66-1.73-1,.56-.98V35.15l-4.51,7.8a14.956,14.956,0,0,0-1.92,9.16L7.561,61h13A8.945,8.945,0,0,0,21,58.23Z"></path></svg>