<svg xmlns="http://www.w3.org/2000/svg" viewBox="0 0 48 48" x="0px" y="0px"><title>Square-Gift Box</title><g data-name="Square-Gift Box"><path d="M43,0H5A5.006,5.006,0,0,0,0,5V43a5.006,5.006,0,0,0,5,5H43a5.006,5.006,0,0,0,5-5V5A5.006,5.006,0,0,0,43,0Zm3,5v9H45V12.55A5,5,0,0,0,38.423,7.8L32.761,9.7A5.83,5.83,0,0,0,31,9.113V2H43A3,3,0,0,1,46,5ZM32.133,18.386a4.078,4.078,0,0,1-4.266,0,4.012,4.012,0,0,1-.7-6.219,3.42,3.42,0,0,1,.656-.513c.018-.012.033-.024.052-.035A3.886,3.886,0,0,1,30,11a3.932,3.932,0,0,1,2.16.64,3.41,3.41,0,0,1,.669.523,4.022,4.022,0,0,1,0,5.67A3.9,3.9,0,0,1,32.133,18.386Zm-6.757.44L20.945,20.3A3,3,0,0,1,17,17.45v-4.9a3.008,3.008,0,0,1,2.991-3.007,3.021,3.021,0,0,1,.952.155l4.426,1.48-.007.01a5.992,5.992,0,0,0-.53.771c-.025.041-.051.081-.074.123a6.076,6.076,0,0,0-.373.812c-.019.051-.037.1-.055.154a5.992,5.992,0,0,0-.229.868L24.086,14H22a1,1,0,0,0,0,2h2.087c.011.068.031.133.045.2a5.86,5.86,0,0,0,.185.694c.024.073.045.148.072.22a5.876,5.876,0,0,0,.384.829c.028.05.062.1.091.145a5.955,5.955,0,0,0,.434.625C25.327,18.75,25.347,18.791,25.376,18.826Zm9.259-.01a6.094,6.094,0,0,0,.529-.768c.026-.043.052-.085.077-.128a5.924,5.924,0,0,0,.372-.81c.02-.052.038-.1.056-.156a6,6,0,0,0,.23-.868L35.914,16H38a1,1,0,0,0,0-2H35.914l-.015-.083a5.992,5.992,0,0,0-.229-.868c-.018-.052-.036-.1-.055-.154a6.147,6.147,0,0,0-.373-.813c-.023-.04-.049-.08-.073-.12a6.052,6.052,0,0,0-.534-.777l0-.006L39.055,9.7A3,3,0,0,1,43,12.55v4.9A3,3,0,0,1,39.056,20.3l-4.429-1.474ZM5,2H29V9.109a5.754,5.754,0,0,0-1.764.585L21.575,7.8A5,5,0,0,0,15,12.55V14H2V5A3,3,0,0,1,5,2ZM2,43V16H15v1.45a5.011,5.011,0,0,0,4.984,5.009,5.054,5.054,0,0,0,1.592-.26l5.663-1.885c.1.052.2.114.3.16-1.3,3.979-3.552,9.128-7.243,12.819a1,1,0,1,0,1.414,1.414A33.613,33.613,0,0,0,29,22.367V46H5A3,3,0,0,1,2,43Zm41,3H31V22.367a33.613,33.613,0,0,0,7.293,12.34,1,1,0,0,0,1.414-1.414c-3.691-3.691-5.941-8.84-7.243-12.818.1-.047.2-.109.3-.161L38.425,22.2a5.048,5.048,0,0,0,1.591.26A5.011,5.011,0,0,0,45,17.45V16h1V43A3,3,0,0,1,43,46Z"></path></g></svg>