<svg xmlns="http://www.w3.org/2000/svg" viewBox="0 0 64 64" x="0px" y="0px"><g data-name="Inovation"><path d="M61,54H59V21a5.006,5.006,0,0,0-5-5H48v2h6a3,3,0,0,1,3,3V54H7V21a3,3,0,0,1,3-3h6V16H10a5.006,5.006,0,0,0-5,5V54H3a1,1,0,0,0-1,1v4a3,3,0,0,0,3,3H59a3,3,0,0,0,3-3V55A1,1,0,0,0,61,54ZM35.613,56l-.334,1H28.721l-.334-1ZM60,59a1,1,0,0,1-1,1H5a1,1,0,0,1-1-1V56H26.28l.772,2.316A1,1,0,0,0,28,59h8a1,1,0,0,0,.948-.684L37.72,56H60Z"></path><rect x="9" y="50" width="46" height="2"></rect><rect x="31" y="2" width="2" height="4"></rect><rect x="43.435" y="8.565" width="4" height="2" transform="translate(6.544 34.929) rotate(-45)"></rect><rect x="49" y="22" width="4" height="2"></rect><rect x="44.435" y="34.435" width="2" height="4" transform="translate(-12.456 42.799) rotate(-45)"></rect><rect x="16.565" y="35.435" width="4" height="2" transform="translate(-20.326 23.799) rotate(-45)"></rect><rect x="11" y="22" width="4" height="2"></rect><rect x="17.565" y="7.565" width="2" height="4" transform="translate(-1.325 15.932) rotate(-45.01)"></rect><path d="M22.869,34.892a2.987,2.987,0,0,0,.532,4.637,2.958,2.958,0,0,0,1.684,4.313A5,5,0,0,0,30,48h4a5,5,0,0,0,4.915-4.158A2.958,2.958,0,0,0,40.6,39.529a2.987,2.987,0,0,0,.532-4.637,15,15,0,1,0-18.262,0ZM39,36a1,1,0,0,1,0,2H25a1,1,0,0,1,0-2ZM34,46H30a3,3,0,0,1-2.816-2h9.632A3,3,0,0,1,34,46Zm4-4H26a1,1,0,0,1,0-2H38a1,1,0,0,1,0,2ZM32,10a12.991,12.991,0,0,1,6.905,24H25.1A12.991,12.991,0,0,1,32,10Z"></path><path d="M33,26H31a1,1,0,0,1-1-1H28a3,3,0,0,0,3,3v1h2V28a3,3,0,0,0,0-6H31a1,1,0,0,1,0-2h2a1,1,0,0,1,1,1h2a3,3,0,0,0-3-3V17H31v1a3,3,0,0,0,0,6h2a1,1,0,0,1,0,2Z"></path><rect x="38" y="22" width="2" height="2"></rect><rect x="24" y="22" width="2" height="2"></rect></g></svg>