<svg xmlns="http://www.w3.org/2000/svg" viewBox="0 0 64 64" x="0px" y="0px"><g><path d="M27,29v6H22v2h5v3H24v2h3v1a1,1,0,0,0,1,1h2.184a2.982,2.982,0,0,0,5.632,0h8.368a2.982,2.982,0,0,0,5.632,0H52a1,1,0,0,0,1-1V37a1,1,0,0,0-.293-.707l-4-4A1,1,0,0,0,48,32H43V29a1,1,0,0,0-1-1H28A1,1,0,0,0,27,29ZM47,44a1,1,0,1,1,1-1A1,1,0,0,1,47,44Zm.586-10L51,37.414V42H49.816a2.982,2.982,0,0,0-5.632,0H43V34ZM33,44a1,1,0,1,1,1-1A1,1,0,0,1,33,44ZM29,30H41V42H35.816a2.982,2.982,0,0,0-5.632,0H29Z"></path><rect x="23" y="30" width="2" height="2"></rect><polygon points="53 10 55 10 55 8 57 8 57 6 55 6 55 4 53 4 53 6 51 6 51 8 53 8 53 10"></polygon><rect x="46" y="12" width="6" height="2"></rect><rect x="51" y="16" width="6" height="2"></rect><polygon points="53 54 51 54 51 56 49 56 49 58 51 58 51 60 53 60 53 58 55 58 55 56 53 56 53 54"></polygon><rect x="18" y="11" width="2" height="2"></rect><rect x="22" y="11" width="2" height="2"></rect><rect x="26" y="11" width="2" height="2"></rect><rect x="30" y="11" width="2" height="2"></rect><path d="M58,36A20.035,20.035,0,0,0,44,16.922V7a5.006,5.006,0,0,0-5-5H11A5.006,5.006,0,0,0,6,7V57a5.006,5.006,0,0,0,5,5H39a5.006,5.006,0,0,0,5-5V55.078A20.035,20.035,0,0,0,58,36Zm-2,0A18,18,0,1,1,38,18,18.021,18.021,0,0,1,56,36ZM18,4H32V6a1,1,0,0,1-1,1H19a1,1,0,0,1-1-1ZM42,57a3,3,0,0,1-3,3H11a3,3,0,0,1-3-3V7a3,3,0,0,1,3-3h5V6a3,3,0,0,0,3,3H31a3,3,0,0,0,3-3V4h5a3,3,0,0,1,3,3v9.4A20,20,0,1,0,42,55.6Z"></path><rect x="22.216" y="17.381" width="2.001" height="2" transform="translate(-6.384 19.217) rotate(-39.988)"></rect><rect x="19.381" y="20.216" width="2" height="2" transform="translate(-8.972 23.198) rotate(-50.012)"></rect><rect x="17.082" y="23.5" width="1.999" height="1.999" transform="translate(-12.177 27.904) rotate(-59.991)"></rect><rect x="15.387" y="27.133" width="2" height="2" transform="translate(-15.654 33.912) rotate(-70.004)"></rect><rect x="14.349" y="31.006" width="2" height="2" transform="translate(-18.835 41.567) rotate(-80.004)"></rect><rect x="14" y="35" width="2" height="2"></rect><rect x="14.349" y="38.994" width="2" height="2" transform="translate(-6.709 3.271) rotate(-9.996)"></rect><rect x="15.387" y="42.866" width="2" height="2" transform="translate(-14.013 8.248) rotate(-19.996)"></rect><rect x="17.082" y="46.5" width="1.999" height="1.999" transform="translate(-21.332 15.411) rotate(-30.009)"></rect><rect x="19.381" y="49.784" width="2" height="2" transform="translate(-27.87 24.972) rotate(-39.988)"></rect><rect x="22.216" y="52.619" width="2" height="2.001" transform="translate(-32.79 36.967) rotate(-50.03)"></rect><rect x="25.5" y="54.919" width="2" height="2" transform="translate(-35.177 50.915) rotate(-60.005)"></rect></g></svg>