<svg xmlns="http://www.w3.org/2000/svg" viewBox="0 0 64 64" x="0px" y="0px"><g><path d="M12,38a3,3,0,1,0-3-3A3,3,0,0,0,12,38Zm0-4a1,1,0,1,1-1,1A1,1,0,0,1,12,34Z"></path><path d="M35,35a3,3,0,1,0-3,3A3,3,0,0,0,35,35Zm-3,1a1,1,0,1,1,1-1A1,1,0,0,1,32,36Z"></path><path d="M52,38a3,3,0,1,0-3-3A3,3,0,0,0,52,38Zm0-4a1,1,0,1,1-1,1A1,1,0,0,1,52,34Z"></path><rect x="41" y="34" width="2" height="2"></rect><rect x="45" y="34" width="2" height="2"></rect><rect x="37" y="34" width="2" height="2"></rect><rect x="25" y="34" width="2" height="2"></rect><rect x="21" y="34" width="2" height="2"></rect><rect x="17" y="34" width="2" height="2"></rect><path d="M15,44H9a3,3,0,0,0-3,3V59a3,3,0,0,0,3,3h6a3,3,0,0,0,3-3V47A3,3,0,0,0,15,44ZM9,46h6a1,1,0,0,1,1,1v9H8V47A1,1,0,0,1,9,46Zm6,14H9a1,1,0,0,1-1-1V58h8v1A1,1,0,0,1,15,60Z"></path><path d="M57,46H47a3,3,0,0,0-3,3v6a3,3,0,0,0,3,3h2v2H47v2H57V60H55V58h2a3,3,0,0,0,3-3V49A3,3,0,0,0,57,46ZM47,48H57a1,1,0,0,1,1,1v4H46V49A1,1,0,0,1,47,48Zm6,12H51V58h2Zm4-4H47a1,1,0,0,1-1-1H58A1,1,0,0,1,57,56Z"></path><path d="M40,57V49a2,2,0,0,0-2-2H26a2,2,0,0,0-2,2v8a1,1,0,0,0-1,1v2a2,2,0,0,0,2,2H39a2,2,0,0,0,2-2V58A1,1,0,0,0,40,57ZM26,49H38v8H26ZM39,60H25V59H39Z"></path><rect x="11" y="40" width="2" height="2"></rect><rect x="31" y="40" width="2" height="2"></rect><rect x="31" y="28" width="2" height="2"></rect><rect x="51" y="40" width="2" height="2"></rect><path d="M47,24V4a2,2,0,0,0-2-2H19a2,2,0,0,0-2,2V24a2,2,0,0,0,2,2H45A2,2,0,0,0,47,24ZM36,8h9v2H36Zm9-2H36V4h9ZM34,4l0,10H30V4Zm-6,6H19V8h9Zm0-6V6H19V4Zm-9,8h9v2a2,2,0,0,0,2,2h4a2,2,0,0,0,2-2V12h9V24H19Z"></path><rect x="39" y="20" width="4" height="2"></rect><rect x="35" y="20" width="2" height="2"></rect></g></svg>