<svg xmlns="http://www.w3.org/2000/svg" viewBox="0 0 64 64" x="0px" y="0px"><g><path d="M32,37a4,4,0,1,0,4,4A4,4,0,0,0,32,37Zm0,6a2,2,0,1,1,2-2A2,2,0,0,1,32,43Z"></path><path d="M58,52.9a5,5,0,1,0-2,0V60H46V45h3a1,1,0,0,0,.543-1.84L39,36.338V30h1a1,1,0,0,0,1-1V26a1,1,0,0,0-1-1H37V23h1a1,1,0,0,0,.9-1.447L33,9.764V6h2V4H33V2H31V4H29V6h2V9.764L25.105,21.553A1,1,0,0,0,26,23h1v2H24a1,1,0,0,0-1,1v3a1,1,0,0,0,1,1h1v6.338L14.457,43.16A1,1,0,0,0,15,45h3V60H8V52.9a5,5,0,1,0-2,0V60H2v2H62V60H58ZM54,48a3,3,0,1,1,4,2.816v-1.4l1.707-1.707-1.414-1.414L57,47.586l-1.293-1.293-1.414,1.414L56,49.414v1.4A3,3,0,0,1,54,48ZM4,48a3,3,0,1,1,4,2.816v-1.4l1.707-1.707L8.293,46.293,7,47.586,5.707,46.293,4.293,47.707,6,49.414v1.4A3,3,0,0,1,4,48ZM32,12.236,36.382,21H27.618ZM29,23h6v2H29Zm-4,4H39v1H25Zm2,3H37v5.044L32.543,32.16a1,1,0,0,0-1.086,0L27,35.044ZM37,60H27V55a5,5,0,0,1,10,0Zm2,0V55a7,7,0,0,0-14,0v5H20V44a1,1,0,0,0-1-1h-.614L32,34.191,45.614,43H45a1,1,0,0,0-1,1V60Z"></path></g></svg>