<svg xmlns="http://www.w3.org/2000/svg" viewBox="0 0 64 64" x="0px" y="0px"><g><path d="M54.117,36.05a2.993,2.993,0,0,0-5.231,1.465A10.065,10.065,0,0,1,39,46c-.037,0-.073-.005-.11-.005A4.923,4.923,0,0,0,39,45a9.01,9.01,0,0,0,9-9V28a9.01,9.01,0,0,0-9-9V7a5.006,5.006,0,0,0-5-5H14A5.006,5.006,0,0,0,9,7V45a5.006,5.006,0,0,0,5,5H31.343A15.919,15.919,0,0,0,36,51.705V56H32a3,3,0,0,0,0,6H46a3,3,0,0,0,0-6H42v-4.3A16.138,16.138,0,0,0,54.807,38.492,3.033,3.033,0,0,0,54.117,36.05ZM46,36H44.5a.5.5,0,0,1,0-1H46Zm0-7H44.5a.5.5,0,0,1,0-1H46Zm-.3-3H44.5a2.5,2.5,0,0,0,0,5H46v2H44.5a2.5,2.5,0,0,0,0,5h1.2A7,7,0,0,1,32.3,38h1.2a2.5,2.5,0,0,0,0-5H32V31h1.5a2.5,2.5,0,0,0,0-5H32.3a7,7,0,0,1,13.41,0ZM32,28h1.5a.5.5,0,0,1,0,1H32Zm0,7h1.5a.5.5,0,0,1,0,1H32ZM19,4H29V6H19ZM14,48a3,3,0,0,1-3-3V7a3,3,0,0,1,3-3h3V6a2,2,0,0,0,2,2H29a2,2,0,0,0,2-2V4h3a3,3,0,0,1,3,3V19.232A9.01,9.01,0,0,0,30,28v8a9.01,9.01,0,0,0,7,8.768V45a2.921,2.921,0,0,1-.1.763,10.071,10.071,0,0,1-7.782-8.248,2.993,2.993,0,0,0-5.23-1.466,3.027,3.027,0,0,0-.69,2.443A15.945,15.945,0,0,0,28.481,48ZM47,59a1,1,0,0,1-1,1H32a1,1,0,0,1,0-2H46A1,1,0,0,1,47,59Zm-7-3H38V51.954c.332.021.664.046,1,.046s.668-.025,1-.046Zm-1-6A14.1,14.1,0,0,1,25.169,38.182a1.037,1.037,0,0,1,.235-.833.993.993,0,0,1,1.733.466,12,12,0,0,0,23.725,0,.995.995,0,0,1,1.735-.467,1.029,1.029,0,0,1,.233.833A14.1,14.1,0,0,1,39,50Z"></path><path d="M25,27V18h4V16H24a1,1,0,0,0-1,1v6.556A3.959,3.959,0,0,0,21,23a4,4,0,1,0,4,4Zm-4,2a2,2,0,1,1,2-2A2,2,0,0,1,21,29Z"></path></g></svg>