<svg xmlns="http://www.w3.org/2000/svg" viewBox="0 0 64 64" x="0px" y="0px"><g><circle cx="19" cy="22" r="2"></circle><circle cx="27" cy="22" r="2"></circle><path d="M26.307,28.75l-1.323-1.5a3.076,3.076,0,0,1-3.968,0l-1.323,1.5a5,5,0,0,0,6.614,0Z"></path><path d="M61,44V40H59v4H57V40H55v4a1,1,0,0,0-1,1v1H49a1,1,0,0,0-1,1v5H44V49.88a8.941,8.941,0,0,0-6.31-8.58L28,38.26V34.79A11.043,11.043,0,0,0,33.81,27H34a4,4,0,0,0,.77-7.92l3.34-5.24a1,1,0,0,0-.22-1.32,19.117,19.117,0,0,0-5.02-2.79C32.11,5.91,27.93,3,23,3s-9.11,2.91-9.87,6.73a19.117,19.117,0,0,0-5.02,2.79,1,1,0,0,0-.22,1.32l3.34,5.24A4,4,0,0,0,12,27h.19A11.043,11.043,0,0,0,18,34.79v3.47L8.31,41.29A8.963,8.963,0,0,0,2,49.88V61a1,1,0,0,0,1,1H61a1,1,0,0,0,1-1V45A1,1,0,0,0,61,44ZM50,48h4v4H50ZM28.91,40.64a7.063,7.063,0,0,1-3.6,2.07l2.04-2.55ZM23,42.4l-3-3.75V35.57a10.68,10.68,0,0,0,6,0v3.08ZM36,23a2.015,2.015,0,0,1-2,2V21A2.006,2.006,0,0,1,36,23ZM23,5c3.44,0,6.42,1.66,7.53,3.98a29.419,29.419,0,0,0-15.06,0C16.58,6.66,19.56,5,23,5ZM12,25a2.015,2.015,0,0,1-2-2,2.006,2.006,0,0,1,2-2ZM10.07,13.55C13.32,11.28,17.97,10,23,10s9.68,1.28,12.93,3.55l-2.81,4.4C31.33,16.02,27.07,15,23,15s-8.33,1.02-10.12,2.95ZM14,25V20c0-1.22,3.51-3,9-3s9,1.78,9,3v5a9,9,0,0,1-18,0Zm4.65,15.16,2.04,2.55a7.063,7.063,0,0,1-3.6-2.07Zm-3.59,1.12A9.62,9.62,0,0,0,23,45a9.62,9.62,0,0,0,7.94-3.72l1.96.61C31.09,44.98,27.27,47,23.01,47h-.02c-4.26,0-8.08-2.02-9.89-5.11ZM36,60V50H34V60H12V50H10V60H4V49.88A6.964,6.964,0,0,1,8.91,43.2l2.23-.69a12.56,12.56,0,0,0,8.18,6.03,10.508,10.508,0,0,0-2.47,2.13h-.01a12.2,12.2,0,0,0-2.55,6.46,1.011,1.011,0,0,0,.35.83,1.032,1.032,0,0,0,.65.23,1.953,1.953,0,0,0,.23-.02,12.232,12.232,0,0,0,5.92-3.65A10.412,10.412,0,0,0,23,51.96a10.412,10.412,0,0,0,1.56,2.56,12.232,12.232,0,0,0,5.92,3.65,2.092,2.092,0,0,0,.88-.21,1.011,1.011,0,0,0,.35-.83,12.2,12.2,0,0,0-2.55-6.46h-.01a10.508,10.508,0,0,0-2.47-2.13,12.584,12.584,0,0,0,8.18-6.03l2.23.7A6.943,6.943,0,0,1,42,49.88V52H37a1,1,0,0,0-.85.47A1.014,1.014,0,0,0,36,53a1.03,1.03,0,0,0,.11.45L39.38,60ZM21.73,49.52a9.455,9.455,0,0,1-1.82,3.72,9.422,9.422,0,0,1-3.35,2.43,9.455,9.455,0,0,1,1.82-3.72A9.336,9.336,0,0,1,21.73,49.52Zm2.55,0a9.482,9.482,0,0,1,3.34,2.43,9.392,9.392,0,0,1,1.82,3.72,9.336,9.336,0,0,1-3.35-2.43A9.495,9.495,0,0,1,24.28,49.52ZM60,60H41.62l-3-6H60Zm0-8H56V46h4Z"></path><rect x="42" y="56" width="2" height="2"></rect><rect x="46" y="56" width="2" height="2"></rect><rect x="50" y="56" width="2" height="2"></rect></g></svg>