<svg xmlns="http://www.w3.org/2000/svg" viewBox="0 0 64 64" x="0px" y="0px"><g><rect x="10" y="52" width="2" height="2"></rect><rect x="14" y="52" width="2" height="2"></rect><rect x="18" y="52" width="28" height="2"></rect><rect x="48" y="52" width="2" height="2"></rect><rect x="52" y="52" width="2" height="2"></rect><rect x="15" y="48" width="2" height="2"></rect><rect x="11" y="48" width="2" height="2"></rect><rect x="19" y="48" width="2" height="2"></rect><rect x="23" y="48" width="2" height="2"></rect><rect x="27" y="48" width="2" height="2"></rect><rect x="31" y="48" width="2" height="2"></rect><rect x="35" y="48" width="2" height="2"></rect><rect x="39" y="48" width="2" height="2"></rect><rect x="43" y="48" width="2" height="2"></rect><rect x="47" y="48" width="2" height="2"></rect><rect x="51" y="48" width="2" height="2"></rect><rect x="39" y="12" width="14" height="2"></rect><rect x="39" y="16" width="14" height="2"></rect><rect x="39" y="20" width="14" height="2"></rect><path d="M61,40a1,1,0,0,0,1-1V6a1,1,0,0,0-1-1H59V3a1,1,0,0,0-1-1H34a1,1,0,0,0-1,1V4H31V3a1,1,0,0,0-1-1H6A1,1,0,0,0,5,3V5H3A1,1,0,0,0,2,6V39a1,1,0,0,0,1,1H15v4H9a1,1,0,0,0-.895.553l-6,12A1,1,0,0,0,2,57v3a2,2,0,0,0,2,2H60a2,2,0,0,0,2-2V57a1,1,0,0,0-.1-.447l-6-12A1,1,0,0,0,55,44H49V40Zm-2-5V7h1V38H34.816A2.966,2.966,0,0,0,35,37V36H58A1,1,0,0,0,59,35ZM36,44V40h5v4Zm-8-4v4H23V40Zm2,0h4v4H30ZM53,4V6.586l-.293-.293a1,1,0,0,0-1.414,0L51,6.586V4ZM35,4H49V9a1,1,0,0,0,1.707.707L52,8.414l1.293,1.293A1,1,0,0,0,55,9V4h2V34H35V4ZM33,6V37a1,1,0,0,1-2,0V6ZM7,4H29V34H7ZM4,7H5V35a1,1,0,0,0,1,1H29v1a2.966,2.966,0,0,0,.184,1H4ZM17,40h4v4H17ZM4,60V58H60v2Zm55.382-4H4.618l5-10H54.382ZM47,44H43V40h4Z"></path><rect x="39" y="24" width="14" height="2"></rect><rect x="39" y="28" width="14" height="2"></rect><rect x="39" y="8" width="6" height="2"></rect><rect x="11" y="12" width="14" height="2"></rect><rect x="11" y="16" width="14" height="2"></rect><rect x="11" y="20" width="14" height="2"></rect><rect x="11" y="24" width="14" height="2"></rect><rect x="11" y="28" width="14" height="2"></rect><rect x="19" y="8" width="6" height="2"></rect></g></svg>