<svg xmlns="http://www.w3.org/2000/svg" viewBox="0 0 64 64" x="0px" y="0px"><path d="M23,23a3.009,3.009,0,0,0,3,3h2a3.009,3.009,0,0,0,3-3V20H27a2,2,0,1,1-2,2,2,2,0,0,1,2-2H23Z"></path><path d="M32,34a8.942,8.942,0,0,0,6.36-2.64,8.848,8.848,0,0,0,2.36-4.18A4.872,4.872,0,0,1,38,28H36a4.994,4.994,0,0,1-4-2.03A4.994,4.994,0,0,1,28,28H26a4.9,4.9,0,0,1-2.72-.82A9.008,9.008,0,0,0,32,34Zm-2.128-5.882a3.082,3.082,0,0,0,4.256,0l1.4,1.424a5.007,5.007,0,0,1-7.064,0Z"></path><path d="M33,23a3.009,3.009,0,0,0,3,3h2a3.009,3.009,0,0,0,3-3V20H37a2,2,0,1,1-2,2,2,2,0,0,1,2-2H33Z"></path><path d="M20.09,25.89a32.766,32.766,0,0,0,3.04,12.58L27,37.26V34.79A11.028,11.028,0,0,1,21.05,26H21A4.62,4.62,0,0,1,20.09,25.89Z"></path><rect x="21" y="11" width="22" height="4"></rect><path d="M43.91,25.89A4.62,4.62,0,0,1,43,26h-.05a10.919,10.919,0,0,1-3.17,6.78A11.064,11.064,0,0,1,37,34.79v2.47l3.87,1.21A32.766,32.766,0,0,0,43.91,25.89Z"></path><path d="M19.08,9.63,13.54,12,19,14.34V10A.909.909,0,0,1,19.08,9.63Z"></path><polygon points="32 41.23 30.33 42.42 31.62 45 32.38 45 33.67 42.42 32 41.23"></polygon><path d="M35,35.58A11.09,11.09,0,0,1,32,36a10.665,10.665,0,0,1-3-.43v1.81l3,1.5,3-1.5Z"></path><path d="M31.78,47l-1.33,5.32a4.03,4.03,0,0,0,3.1,0L32.22,47Z"></path><rect x="23" y="17" width="18" height="1"></rect><path d="M45,10v4.34L50.46,12,44.92,9.63A.909.909,0,0,1,45,10Z"></path><path d="M28.73,50.94l1.21-4.82-1.26-2.53a2.957,2.957,0,0,1-1.68.53,3.018,3.018,0,0,1-1.37-.34A2.986,2.986,0,0,1,24,41.11V40.3l-1.67.52,6.29,9.96C28.65,50.83,28.7,50.88,28.73,50.94Z"></path><path d="M43,20v4a2.015,2.015,0,0,0,2-2A2.006,2.006,0,0,0,43,20Z"></path><path d="M43,17v1a4.285,4.285,0,0,1,.72.07c-.05-.36-.1-.72-.15-1.07Z"></path><polygon points="20.54 9 43.46 9 32 4.09 20.54 9"></polygon><path d="M51,48.88a6.964,6.964,0,0,0-4.91-6.68l-2.45-.76-6.56,10.4a6.02,6.02,0,0,1-10.16,0l-6.56-10.4-2.45.76A6.964,6.964,0,0,0,13,48.88V60H51Z"></path><path d="M19,22a2.015,2.015,0,0,0,2,2V20A2.006,2.006,0,0,0,19,22Z"></path><path d="M20.28,18.07A4.285,4.285,0,0,1,21,18V17h-.57C20.38,17.35,20.33,17.71,20.28,18.07Z"></path><path d="M27.91,39.07l-1.91.6v1.44a.968.968,0,0,0,.54.89.978.978,0,0,0,1.04-.07l2.49-1.78Z"></path><path d="M35.39,50.78l6.28-9.96L40,40.3v.81a2.986,2.986,0,0,1-1.63,2.67,3.018,3.018,0,0,1-1.37.34,2.957,2.957,0,0,1-1.68-.53l-1.26,2.53,1.21,4.82C35.31,50.89,35.35,50.83,35.39,50.78Z"></path><path d="M37.46,42a.968.968,0,0,0,.54-.89V39.67l-1.91-.6-2.16,1.08,2.49,1.78A.978.978,0,0,0,37.46,42Z"></path><path d="M17,20a3.01,3.01,0,0,0-2-2.82V14.99l-2-.9v3.09A3.01,3.01,0,0,0,11,20a2.954,2.954,0,0,0,1.03,2.24l-.96,2.39,1.86.74.95-2.38c.04,0,.08.01.12.01s.08-.01.12-.01l.95,2.38,1.86-.74-.96-2.39A2.954,2.954,0,0,0,17,20Zm-3,1a1,1,0,1,1,1-1A1,1,0,0,1,14,21Z"></path></svg>