<svg xmlns="http://www.w3.org/2000/svg" viewBox="0 0 64 64" x="0px" y="0px"><g><path d="M49,21.7V18a1,1,0,0,0-.293-.707l-2-2A1,1,0,0,0,46,15H43.721l-.772-2.316A1,1,0,0,0,42,12H39a1,1,0,0,0-.707.293L37,13.586l-1.293-1.293A1,1,0,0,0,35,12H32a1,1,0,0,0-.949.684L30.279,15H28a1,1,0,0,0-.707.293l-2,2A1,1,0,0,0,25,18v3.7l-1.832,2.748A1.006,1.006,0,0,0,23,25v5a1,1,0,0,0,.293.707L26,33.414V35a1,1,0,0,0,.757.97l3.468.867.826,2.479A1,1,0,0,0,32,40h3a1,1,0,0,0,.707-.293L37,38.414l1.293,1.293A1,1,0,0,0,39,40h3a1,1,0,0,0,.949-.684l.826-2.479,3.468-.867A1,1,0,0,0,48,35V33.414l2.707-2.707A1,1,0,0,0,51,30V25a1.006,1.006,0,0,0-.168-.555ZM34.586,38H32.721l-.577-1.73,1.563-1.563A1,1,0,0,0,34,34V33H32v.586l-1.307,1.307L28,34.219V29H26v1.586l-1-1V25.3l1.155-1.733.845.844V25h2V24a1,1,0,0,0-.293-.707L27,21.586V18.414L28.414,17h2.172L32,18.414V19h2V18a1,1,0,0,0-.293-.707L32.144,15.73,32.721,14h1.865L36,15.414V36.586ZM49,29.586l-1,1V29H46v5.219l-2.693.674L42,33.586V33H40v1a1,1,0,0,0,.293.707l1.563,1.563L41.279,38H39.414L38,36.586V15.414L39.414,14h1.865l.577,1.73-1.563,1.563A1,1,0,0,0,40,18v1h2v-.586L43.414,17h2.172L47,18.414v3.172l-1.707,1.707A1,1,0,0,0,45,24v1h2v-.586l.845-.844L49,25.3Z"></path><path d="M43.707,25.293,42,23.586V21H40v3a1,1,0,0,0,.293.707l2,2Z"></path><path d="M42.707,28.293l-1.414,1.414.707.707V32h2V30a1,1,0,0,0-.293-.707Z"></path><path d="M32,23.586l-1.707,1.707,1.414,1.414,2-2A1,1,0,0,0,34,24V21H32Z"></path><path d="M30.293,29.293A1,1,0,0,0,30,30v2h2V30.414l.707-.707-1.414-1.414Z"></path><path d="M58,2H12A7.008,7.008,0,0,0,5,9V55a7.008,7.008,0,0,0,7,7H58a1,1,0,0,0,1-1V3A1,1,0,0,0,58,2ZM57,9.92A7,7,0,0,1,51.08,4H57ZM49.059,48H24.941A9.012,9.012,0,0,0,17,40.059V11.941A9.012,9.012,0,0,0,24.941,4H49.059A9.012,9.012,0,0,0,57,11.941V40.059A9.012,9.012,0,0,0,49.059,48ZM57,42.08V48H51.08A7,7,0,0,1,57,42.08ZM13,4h2V48H13Zm4,0h5.92A7,7,0,0,1,17,9.92Zm0,38.08A7,7,0,0,1,22.92,48H17ZM7,9a5.009,5.009,0,0,1,4-4.9V17.08a6.975,6.975,0,0,0-4,2.031ZM7,24a5.009,5.009,0,0,1,4-4.9V34.08a6.975,6.975,0,0,0-4,2.031Zm4,12.1V48.08a6.988,6.988,0,0,0-4,2.025V41A5.009,5.009,0,0,1,11,36.1ZM12,60a5,5,0,0,1,0-10H57v2H13a3,3,0,0,0,0,6H57v2Zm45-6v2H13a1,1,0,0,1,0-2Z"></path></g></svg>