<svg xmlns="http://www.w3.org/2000/svg" viewBox="0 0 48 48" x="0px" y="0px"><title>Chat Order</title><g data-name="Chat Order"><path d="M32,42a3,3,0,0,1-3,3H11a3,3,0,0,1-3-3V6a3,3,0,0,1,3-3H29a3,3,0,0,1,3,3h2a5.006,5.006,0,0,0-5-5H11A5.006,5.006,0,0,0,6,6V42a5.006,5.006,0,0,0,5,5H29a5.006,5.006,0,0,0,5-5V23H32Z"></path><rect x="10" y="9" width="10" height="2"></rect><rect x="17" y="5" width="4" height="2"></rect><path d="M10,18h2V15h3V13H11a1,1,0,0,0-1,1Z"></path><rect x="10" y="37" width="20" height="2"></rect><rect x="19" y="41" width="2" height="2"></rect><path d="M39,7H25a3,3,0,0,0-3,3v8a3,3,0,0,0,3,3h1v3a1,1,0,0,0,.684.949A1.019,1.019,0,0,0,27,25a1,1,0,0,0,.8-.4L30.5,21H39a3,3,0,0,0,3-3V10A3,3,0,0,0,39,7Zm1,11a1,1,0,0,1-1,1H30a1,1,0,0,0-.8.4L28,21V20a1,1,0,0,0-1-1H25a1,1,0,0,1-1-1V10a1,1,0,0,1,1-1H39a1,1,0,0,1,1,1Z"></path><rect x="26" y="10" width="2" height="2"></rect><rect x="30" y="10" width="8" height="2"></rect><rect x="26" y="13" width="12" height="2"></rect><rect x="26" y="16" width="6" height="2"></rect><rect x="34" y="16" width="4" height="2"></rect></g></svg>