<svg xmlns="http://www.w3.org/2000/svg" viewBox="0 0 64 64" x="0px" y="0px"><g data-name="Payment-Online Payment-Smartphone-Communication"><path d="M22.83,32.8a8.066,8.066,0,1,0-2.96-3.22,3.7,3.7,0,0,1,1.03.39,4,4,0,0,1,1.87,2.43C22.8,32.53,22.81,32.67,22.83,32.8ZM28,27H26a3,3,0,0,1,0-6V20h2v1a3,3,0,0,1,3,3H29a1,1,0,0,0-1-1H26a1,1,0,0,0,0,2h2a3,3,0,0,1,0,6v1H26V31a3,3,0,0,1-3-3h2a1,1,0,0,0,1,1h2a1,1,0,0,0,0-2Z"></path><path d="M49.29,19.3A1,1,0,0,1,50,19h9a1,1,0,0,0,1-1V4a1,1,0,0,0-1-1H39a1,1,0,0,0-1,1V18a1,1,0,0,0,1,1h7a1,1,0,0,1,1,1v1.62ZM45,6H57V8H45ZM41,6h2V8H41Zm0,4H57v2H41Zm0,6V14H57v2Z"></path><path d="M41,41V21H39a3.009,3.009,0,0,1-3-3V11H13V35.66l2.44-4.22a3.966,3.966,0,0,1,2.26-1.8,9.97,9.97,0,1,1,4.88,5.33c-.07.15-.13.32-.21.47L19.15,41Z"></path><path d="M36,9V5H18a5.017,5.017,0,0,0-4.9,4Z"></path><path d="M16.14,56.49l1.58-2.63A9,9,0,0,0,19,49.23v-1.3a9.149,9.149,0,0,0-.64-3.35l-1.29-3.21a1.023,1.023,0,0,1,.06-.87l3.5-6.06a1.974,1.974,0,0,0,.2-1.52,1.894,1.894,0,0,0-.93-1.21,1.988,1.988,0,0,0-2.73.73l-5,8.66-1.73-1,.56-.98V26.15l-4.5,7.8a14.908,14.908,0,0,0-1.93,9.16L5.99,55.89a1.075,1.075,0,0,1-.01.31L5.02,61H16V57A1,1,0,0,1,16.14,56.49Z"></path><path d="M41,43H19.88l.33.84A10.825,10.825,0,0,1,21,47.93V49H36a5,5,0,0,0,5-5ZM30,47H24V45h6Z"></path></g></svg>