<svg xmlns="http://www.w3.org/2000/svg" viewBox="0 0 64 64" x="0px" y="0px"><g><polygon points="54.15 17.104 45 14.054 35.85 17.104 45 20.917 54.15 17.104"></polygon><circle cx="34" cy="24" r="1"></circle><path d="M45,23a1.006,1.006,0,0,1-.385-.077L40,21v4.437A11.084,11.084,0,0,0,45,27a11.025,11.025,0,0,0,5-1.562V21l-4.615,1.923A1.006,1.006,0,0,1,45,23Z"></path><path d="M12.315,23.458c-.013.03-.027.059-.039.089-.179.431-.333.875-.476,1.324-.024.078-.054.154-.078.233-.123.408-.222.825-.314,1.245-.026.119-.061.235-.084.355-.08.4-.134.817-.185,1.231-.016.135-.043.267-.057.4C11.029,28.885,11,29.439,11,30v.351L9.784,31.87,4.081,39H9v8a3,3,0,0,0,3,3h7V60H39V42.963l.333-.3.014-.013a17.139,17.139,0,0,0,1.33-1.352c.128-.143.251-.289.372-.436.3-.361.583-.736.852-1.12A17.15,17.15,0,0,0,43,37.972V36h2v1.949a17.989,17.989,0,0,0,2.686-.331l-.511-1.9,1.931-.519.509,1.9a17.791,17.791,0,0,0,2.495-1.044l-.976-1.691,1.732-1,.979,1.7A18.046,18.046,0,0,0,55.981,33.4l-1.375-1.375,1.415-1.415L57.4,31.982a17.97,17.97,0,0,0,1.656-2.138l-1.7-.978,1-1.732,1.692.976a17.887,17.887,0,0,0,1.043-2.5l-1.9-.508.518-1.932,1.9.51A17.96,17.96,0,0,0,61.949,21H60V19h1.949a17.96,17.96,0,0,0-.331-2.685l-1.9.51L59.2,14.893l1.9-.508a17.887,17.887,0,0,0-1.043-2.495l-1.692.976-1-1.732,1.7-.978A17.97,17.97,0,0,0,57.4,8.018L56.021,9.394,54.606,7.979,55.981,6.6a18.046,18.046,0,0,0-2.136-1.655l-.979,1.7-1.732-1,.976-1.691a17.791,17.791,0,0,0-2.495-1.044l-.509,1.9-1.931-.519.511-1.9A17.989,17.989,0,0,0,45,2.051V4H43V2.038a17.957,17.957,0,0,0-2.684.352l.509,1.9-1.931.519-.51-1.9a17.741,17.741,0,0,0-2.5,1.04l.98,1.7-1.732,1-.98-1.7a18.277,18.277,0,0,0-2.146,1.647l1.386,1.385L31.979,9.394,30.6,8.013a18.264,18.264,0,0,0-1.648,2.144l1.693.977-1,1.732-1.7-.983q-.285.56-.532,1.142A17.039,17.039,0,0,0,12.315,23.458Zm14.039.235,1.933-.518.517,1.932-1.932.518Zm9.512,12.4-1.732-1,1-1.732,1.732,1Zm4.441,1.558-1.932-.519.519-1.932,1.931.519ZM33,21.184v-3.1l-.385-.16a1,1,0,0,1,.069-1.872l12-4a1,1,0,0,1,.632,0l12,4a1,1,0,0,1,.069,1.872L52,20.167V26a1,1,0,0,1-.445.832A13.606,13.606,0,0,1,45,29a13.606,13.606,0,0,1-6.555-2.168A1,1,0,0,1,38,26V20.167l-3-1.25v2.267a3,3,0,1,1-2,0Zm-1.021,9.422,1.415,1.415-1.415,1.414-1.414-1.414Zm-1.335-1.74-1.732,1-1-1.732,1.732-1ZM26.872,14.375l1.932.518-.517,1.932-1.933-.518ZM26,19h2v2H26Z"></path></g></svg>