<svg xmlns="http://www.w3.org/2000/svg" viewBox="0 0 64 64" x="0px" y="0px"><g><rect x="8" y="6" width="2" height="2"></rect><rect x="12" y="6" width="2" height="2"></rect><rect x="16" y="6" width="2" height="2"></rect><path d="M9,28H25a1,1,0,0,0,1-1V17a1,1,0,0,0-1-1H9a1,1,0,0,0-1,1V27A1,1,0,0,0,9,28Zm1-10H24v8H10Z"></path><rect x="34" y="17" width="16" height="2"></rect><rect x="30" y="21" width="18" height="2"></rect><rect x="30" y="25" width="14" height="2"></rect><rect x="12" y="32" width="26" height="2"></rect><rect x="8" y="36" width="26" height="2"></rect><rect x="8" y="40" width="22" height="2"></rect><rect x="8" y="44" width="22" height="2"></rect><rect x="8" y="48" width="22" height="2"></rect><rect x="8" y="32" width="2" height="2"></rect><path d="M57,8H56V7a5,5,0,0,0-5-5H7A5,5,0,0,0,2,7V51a5,5,0,0,0,5,5H8v1a5,5,0,0,0,5,5H57a5,5,0,0,0,5-5V13A5,5,0,0,0,57,8ZM55.21,23.54l4.25,4.25-2.83,2.83-4.25-4.25ZM37.13,43.65l.79-2.05,3.48,3.48-2.05.79Zm.18,3-1.57.61.61-1.57Zm3.05-5.43-1.41-1.41L50.97,27.79l1.41,1.41ZM53.8,30.62l1.41,1.41L43.19,44.05l-1.41-1.41ZM4,7A3.009,3.009,0,0,1,7,4H51a3.009,3.009,0,0,1,3,3v3H4ZM7,54a3.009,3.009,0,0,1-3-3V12H54v9.93L36.83,39.1a1.014,1.014,0,0,0-.23.35l-3.53,9.19a.988.988,0,0,0,.22,1.07A1.007,1.007,0,0,0,34,50a.922.922,0,0,0,.36-.07l9.19-3.53a1.014,1.014,0,0,0,.35-.23L54,36.07V51a3.009,3.009,0,0,1-3,3Zm53,3a3.009,3.009,0,0,1-3,3H13a3.009,3.009,0,0,1-3-3V56H51a5,5,0,0,0,5-5V34.07l4-4Zm0-31.5-4-4V18h4ZM60,16H56V10h1a3.009,3.009,0,0,1,3,3Z"></path><rect x="30" y="17" width="2" height="2"></rect></g></svg>