<svg xmlns="http://www.w3.org/2000/svg" viewBox="0 0 64 64" x="0px" y="0px"><g data-name="Skill"><path d="M38,10V7a5.006,5.006,0,0,0-5-5H31a5.006,5.006,0,0,0-5,5v3a6,6,0,0,0,12,0ZM31,4h2a3,3,0,0,1,3,3H34.236A2.6,2.6,0,0,1,31.9,5.553a1.042,1.042,0,0,0-1.79,0l-.447.894A.994.994,0,0,1,28.764,7H28A3,3,0,0,1,31,4Zm1,10a4,4,0,0,1-4-4V9h.764a2.98,2.98,0,0,0,2.385-1.179A4.594,4.594,0,0,0,34.236,9H36v1A4,4,0,0,1,32,14Z"></path><path d="M35,16H29a7.008,7.008,0,0,0-7,7V36a2,2,0,0,0,2,2h1V61a1,1,0,0,0,1,1H38a1,1,0,0,0,1-1V38h1a2,2,0,0,0,2-2V23A7.009,7.009,0,0,0,35,16Zm-1.517,2L32,21.461,30.517,18ZM24,23a4.99,4.99,0,0,1,4.368-4.936L31,24.2V36H24ZM37,60H33V43H31V60H27V38H37Zm3-24H33V24.2l2.632-6.14A4.99,4.99,0,0,1,40,23Z"></path><rect x="36" y="23" width="2" height="2"></rect><path d="M44.414,8H52V6H44a1,1,0,0,0-.707.293l-3,3,1.414,1.414Z"></path><rect x="44" y="29" width="6" height="2"></rect><path d="M22.293,10.707l1.414-1.414-3-3A1,1,0,0,0,20,6H12V8h7.586Z"></path><rect x="14" y="29" width="6" height="2"></rect><rect x="43" y="48" width="8" height="2"></rect><rect x="13" y="48" width="8" height="2"></rect><rect x="54" y="4" width="8" height="2"></rect><rect x="54" y="8" width="8" height="2"></rect><rect x="52" y="27" width="8" height="2"></rect><rect x="52" y="31" width="8" height="2"></rect><rect x="53" y="46" width="8" height="2"></rect><rect x="53" y="50" width="8" height="2"></rect><rect x="2" y="4" width="8" height="2"></rect><rect x="2" y="8" width="8" height="2"></rect><rect x="4" y="27" width="8" height="2"></rect><rect x="4" y="31" width="8" height="2"></rect><rect x="3" y="46" width="8" height="2"></rect><rect x="3" y="50" width="8" height="2"></rect></g></svg>