<svg xmlns="http://www.w3.org/2000/svg" viewBox="0 0 64 64" x="0px" y="0px"><g data-name="Financial-Credit Card-Payment"><path d="M57,2H13A5.006,5.006,0,0,0,8,7V52H3a1,1,0,0,0-1,1v4a5.006,5.006,0,0,0,5,5H49a5.006,5.006,0,0,0,5-5V41.551l5.294-1.322a3.025,3.025,0,0,0,2.186-3.641L57.12,19.125a3,3,0,0,0-1.362-1.843A2.951,2.951,0,0,0,54,16.863V12h7a1,1,0,0,0,1-1V7A5.006,5.006,0,0,0,57,2ZM7,60a3,3,0,0,1-3-3V54H44v3a4.987,4.987,0,0,0,1,3Zm42,0a2.994,2.994,0,0,1-3-3V53a1,1,0,0,0-1-1H10V7a3,3,0,0,1,3-3H53.025A4.971,4.971,0,0,0,52,7V17.311L25.168,24H21a3,3,0,0,0-3,3V45a3,3,0,0,0,3,3H51a2.966,2.966,0,0,0,1-.184V57A3,3,0,0,1,49,60Zm4.394-34.789,3-.748.968,3.878L54,29.18V27A2.974,2.974,0,0,0,53.394,25.211ZM51,26a1,1,0,0,1,1,1V45a1,1,0,0,1-1,1H21a1,1,0,0,1-1-1V27a1,1,0,0,1,1-1Zm7.808,12.29L54,39.49V31.241l3.844-.959,1.694,6.782A1.007,1.007,0,0,1,58.808,38.29Zm-4.086-19.3a1.014,1.014,0,0,1,.458.619l.726,2.91L49.987,24H33.435l20.54-5.12A.972.972,0,0,1,54.722,18.993ZM60,10H54V7a3,3,0,0,1,6,0Z"></path><path d="M43,34a2.981,2.981,0,0,0,2-.78,3,3,0,1,0,0-4.44A3,3,0,1,0,43,34Zm4-4a1,1,0,1,1-1,1A1,1,0,0,1,47,30Zm-4,0a1,1,0,1,1-1,1A1,1,0,0,1,43,30Z"></path><path d="M23,34h6a1,1,0,0,0,1-1V29a1,1,0,0,0-1-1H23a1,1,0,0,0-1,1v4A1,1,0,0,0,23,34Zm1-4h4v2H24Z"></path><rect x="22" y="42" width="8" height="2"></rect><rect x="32" y="42" width="4" height="2"></rect><rect x="38" y="42" width="6" height="2"></rect><rect x="22" y="38" width="2" height="2"></rect><rect x="26" y="38" width="2" height="2"></rect><rect x="30" y="38" width="2" height="2"></rect><rect x="34" y="38" width="2" height="2"></rect><rect x="38" y="38" width="2" height="2"></rect><rect x="42" y="38" width="2" height="2"></rect><path d="M19,20V19a3,3,0,0,0,0-6H17a1,1,0,0,1,0-2h2a1,1,0,0,1,1,1h2a3,3,0,0,0-3-3V8H17V9a3,3,0,0,0,0,6h2a1,1,0,0,1,0,2H17a1,1,0,0,1-1-1H14a3,3,0,0,0,3,3v1Z"></path><rect x="24" y="16" width="12" height="2"></rect><rect x="24" y="12" width="4" height="2"></rect><rect x="30" y="12" width="6" height="2"></rect><rect x="12" y="26" width="4" height="2"></rect><rect x="12" y="30" width="4" height="2"></rect><rect x="12" y="34" width="4" height="2"></rect><rect x="12" y="38" width="4" height="2"></rect></g></svg>