<svg xmlns="http://www.w3.org/2000/svg" viewBox="0 0 64 64" x="0px" y="0px"><g><path d="M61.9,54.568l-11-23a1,1,0,0,0-.614-.526l-7.647-2.3A15.818,15.818,0,0,0,45,21a13,13,0,0,0-26,0,15.87,15.87,0,0,0,2.4,7.81l-6.713,2.241a1,1,0,0,0-.571.487l-12,23A1,1,0,0,0,3,56a1.016,1.016,0,0,0,.3-.045l15.668-4.9,12.675,4.875a.988.988,0,0,0,.718,0l12.675-4.875,15.668,4.9a1,1,0,0,0,1.2-1.387ZM31,39.49V53.544L20.176,49.381l3.965-16.636A46.455,46.455,0,0,0,31,39.49Zm2,0a46.455,46.455,0,0,0,6.859-6.745l3.965,16.636L33,53.544ZM32,10A11.013,11.013,0,0,1,43,21c0,7.271-8.623,14.791-11,16.725C29.621,35.792,21,28.281,21,21A11.013,11.013,0,0,1,32,10ZM15.7,32.821l6.8-2.269.082.118L18.159,49.215,5,53.327ZM45.841,49.215,41.42,30.67l.116-.168,7.753,2.329,9.818,20.53Z"></path><path d="M38,21a6,6,0,1,0-6,6A6.006,6.006,0,0,0,38,21ZM28,21a4,4,0,1,1,4,4A4,4,0,0,1,28,21Z"></path></g></svg>