<svg xmlns="http://www.w3.org/2000/svg" viewBox="0 0 64 64" x="0px" y="0px"><g><path d="M61.929,44.628l-4-10A1,1,0,0,0,57,34H7a1,1,0,0,0-.929.628l-4,10A1,1,0,0,0,3,46H6V61a1,1,0,0,0,1,1H57a1,1,0,0,0,1-1V46h3a1,1,0,0,0,.929-1.372ZM4.477,44,6,40.192V44ZM8,60V36H26V60Zm48,0H28V40.193l2.071,5.179A1,1,0,0,0,31,46H56ZM31.677,44l-3.2-8H56.323l3.2,8Z"></path><path d="M43,58H53a1,1,0,0,0,1-1V52a1,1,0,0,0-1-1H43a1,1,0,0,0-1,1v5A1,1,0,0,0,43,58Zm1-5h8v3H44Z"></path><path d="M17,32H47a2,2,0,0,0,2-2V8a2,2,0,0,0-2-2H17a2,2,0,0,0-2,2V30A2,2,0,0,0,17,32Zm0-8H28v2H17Zm0-6.91V12.91A6.008,6.008,0,0,0,21.91,8H42.09A6.007,6.007,0,0,0,47,12.91v4.181A6.006,6.006,0,0,0,42.09,22H21.91A6.008,6.008,0,0,0,17,17.09ZM47,26H36V24H47Zm0-4H44.142A3.993,3.993,0,0,1,47,19.143ZM30,24h4v6H30Zm17,6H36V28H47Zm0-19.142A4,4,0,0,1,44.142,8H47ZM19.858,8A4,4,0,0,1,17,10.858V8ZM17,19.126A4.007,4.007,0,0,1,19.859,22H17ZM17,28H28v2H17Z"></path><path d="M32,10a5,5,0,1,0,5,5A5.006,5.006,0,0,0,32,10Zm0,8a3,3,0,1,1,3-3A3,3,0,0,1,32,18Z"></path><path d="M56,27a5,5,0,1,0-5-5A5.006,5.006,0,0,0,56,27Zm0-8a3,3,0,1,1-3,3A3,3,0,0,1,56,19Z"></path><path d="M7,30a5,5,0,1,0-5-5A5.006,5.006,0,0,0,7,30Zm0-8a3,3,0,1,1-3,3A3,3,0,0,1,7,22Z"></path><rect x="59" y="12" width="2" height="4"></rect><rect x="55" y="8" width="2" height="6"></rect><rect x="51" y="6" width="2" height="6"></rect><rect x="55" y="4" width="2" height="2"></rect><rect x="59" y="8" width="2" height="2"></rect><rect x="51" y="2" width="2" height="2"></rect><rect x="10" y="16" width="2" height="4"></rect><rect x="6" y="14" width="2" height="4"></rect><rect x="2" y="12" width="2" height="4"></rect><rect x="6" y="10" width="2" height="2"></rect><rect x="10" y="12" width="2" height="2"></rect><rect x="2" y="8" width="2" height="2"></rect></g></svg>