<svg xmlns="http://www.w3.org/2000/svg" viewBox="0 0 64 64" x="0px" y="0px"><g><path d="M25,14H7a5,5,0,0,0-5,5V53a5,5,0,0,0,5,5H25a5,5,0,0,0,5-5V19A5,5,0,0,0,25,14Zm3,39a3.009,3.009,0,0,1-3,3H7a3.009,3.009,0,0,1-3-3V50H28Zm0-5H4V24H28Zm0-26H4V19a3.009,3.009,0,0,1,3-3H25a3.009,3.009,0,0,1,3,3Z"></path><rect x="13" y="18" width="6" height="2"></rect><rect x="15" y="52" width="2" height="2"></rect><path d="M57,6H39a5,5,0,0,0-5,5V45a5,5,0,0,0,5,5H57a5,5,0,0,0,5-5V11A5,5,0,0,0,57,6Zm3,39a3.009,3.009,0,0,1-3,3H39a3.009,3.009,0,0,1-3-3V42H60Zm0-5H36V16H60Zm0-26H36V11a3.009,3.009,0,0,1,3-3H57a3.009,3.009,0,0,1,3,3Z"></path><rect x="45" y="10" width="6" height="2"></rect><rect x="47" y="44" width="2" height="2"></rect><path d="M47.707,52.293A1,1,0,0,0,46,53v1H33v2H47a1,1,0,0,0,.937-.649L49.586,57l-1.649,1.649A1,1,0,0,0,47,58H33v2H46v1a1,1,0,0,0,1.707.707l4-4a1,1,0,0,0,0-1.414Z"></path><path d="M16.06,5.35,14.41,7l1.65,1.65A1.011,1.011,0,0,1,17,8H31v2H18v1a.987.987,0,0,1-.62.92A.838.838,0,0,1,17,12a1.007,1.007,0,0,1-.71-.29l-4-4a1.008,1.008,0,0,1,0-1.42l4-4a1,1,0,0,1,1.09-.21A.987.987,0,0,1,18,3V4H31V6H17A1.011,1.011,0,0,1,16.06,5.35Z"></path><path d="M12.465,36.464l1.414,1.414a3.074,3.074,0,0,1,4.242,0l1.414-1.414a5,5,0,0,0-7.07,0Z"></path><path d="M20.95,35.05l1.414-1.414a9.01,9.01,0,0,0-12.728,0L11.05,35.05A7.011,7.011,0,0,1,20.95,35.05Z"></path><rect x="15" y="39" width="2" height="2"></rect><path d="M44.465,28.464l1.414,1.414a3.074,3.074,0,0,1,4.242,0l1.414-1.414a5,5,0,0,0-7.07,0Z"></path><path d="M52.95,27.05l1.414-1.414a9.01,9.01,0,0,0-12.728,0L43.05,27.05A7.011,7.011,0,0,1,52.95,27.05Z"></path><rect x="47" y="31" width="2" height="2"></rect></g></svg>