<svg xmlns="http://www.w3.org/2000/svg" viewBox="0 0 64 64" x="0px" y="0px"><g data-name="Decrease-Value-Money-Arrow Down-Investment"><path d="M31,26h2a1,1,0,0,1,1,1h2a3,3,0,0,0-3-3V23H31v1a3,3,0,0,0,0,6h2a1,1,0,0,1,0,2H31a1,1,0,0,1-1-1H28a3,3,0,0,0,3,3v1h2V34a3,3,0,0,0,0-6H31a1,1,0,0,1,0-2Z"></path><path d="M33,19.05V16.13l.87.1a3.814,3.814,0,0,0,.59.04,5.03,5.03,0,0,0,4.6-3.04l.79-1.84a1,1,0,0,0-.06-.89.964.964,0,0,0-.74-.49l-1.99-.24A5.012,5.012,0,0,0,32,12.51a5,5,0,0,0-5.06-2.74l-1.99.24a.964.964,0,0,0-.74.49,1,1,0,0,0-.06.89l.79,1.84a5.03,5.03,0,0,0,4.6,3.04,3.814,3.814,0,0,0,.59-.04l.87-.1v2.92a10,10,0,1,0,2,0Zm.7-5.5a3.039,3.039,0,0,1,3.12-1.8l.66.08-.26.62a3.018,3.018,0,0,1-3.11,1.8l-.67-.08Zm-3.81.7a3.018,3.018,0,0,1-3.11-1.8l-.26-.62.66-.08a3.039,3.039,0,0,1,3.12,1.8l.26.62ZM32,37a8,8,0,1,1,8-8A8.011,8.011,0,0,1,32,37Z"></path><path d="M11,18h2a1,1,0,0,1,1,1h2a3,3,0,0,0-3-3V15H11v1a3,3,0,0,0,0,6h2a1,1,0,0,1,0,2H11a1,1,0,0,1-1-1H8a3,3,0,0,0,3,3v1h2V26a3,3,0,0,0,0-6H11a1,1,0,0,1,0-2Z"></path><path d="M13,11.05V8.13l.87.1a3.814,3.814,0,0,0,.59.04,5.03,5.03,0,0,0,4.6-3.04l.79-1.84a1,1,0,0,0-.06-.89.964.964,0,0,0-.74-.49l-1.99-.24A5.012,5.012,0,0,0,12,4.51,5,5,0,0,0,6.94,1.77l-1.99.24a.964.964,0,0,0-.74.49,1,1,0,0,0-.06.89l.79,1.84a5.03,5.03,0,0,0,4.6,3.04,3.814,3.814,0,0,0,.59-.04l.87-.1v2.92a10,10,0,1,0,2,0Zm.7-5.5a3.039,3.039,0,0,1,3.12-1.8l.66.08-.26.62a3.018,3.018,0,0,1-3.11,1.8l-.67-.08Zm-3.81.7a3.018,3.018,0,0,1-3.11-1.8l-.26-.62.66-.08a3.039,3.039,0,0,1,3.12,1.8l.26.62ZM12,29a8,8,0,1,1,8-8A8.011,8.011,0,0,1,12,29Z"></path><path d="M51,18h2a1,1,0,0,1,1,1h2a3,3,0,0,0-3-3V15H51v1a3,3,0,0,0,0,6h2a1,1,0,0,1,0,2H51a1,1,0,0,1-1-1H48a3,3,0,0,0,3,3v1h2V26a3,3,0,0,0,0-6H51a1,1,0,0,1,0-2Z"></path><path d="M53,11.05V8.13l.87.1a3.814,3.814,0,0,0,.59.04,5.03,5.03,0,0,0,4.6-3.04l.79-1.84a1,1,0,0,0-.06-.89.964.964,0,0,0-.74-.49l-1.99-.24A5.012,5.012,0,0,0,52,4.51a5,5,0,0,0-5.06-2.74l-1.99.24a.964.964,0,0,0-.74.49,1,1,0,0,0-.06.89l.79,1.84a5.03,5.03,0,0,0,4.6,3.04,3.814,3.814,0,0,0,.59-.04l.87-.1v2.92a10,10,0,1,0,2,0Zm.7-5.5a3.039,3.039,0,0,1,3.12-1.8l.66.08-.26.62a3.018,3.018,0,0,1-3.11,1.8l-.67-.08Zm-3.81.7a3.018,3.018,0,0,1-3.11-1.8l-.26-.62.66-.08a3.039,3.039,0,0,1,3.12,1.8l.26.62ZM52,29a8,8,0,1,1,8-8A8.011,8.011,0,0,1,52,29Z"></path><path d="M57,46H55V34H53V47a1,1,0,0,0,1,1h.865L52,51.438,49.135,48H50a1,1,0,0,0,1-1V34H49V46H47a1,1,0,0,0-.769,1.641l5,6a1,1,0,0,0,1.538,0l5-6A1,1,0,0,0,57,46Z"></path><path d="M17,46H15V34H13V47a1,1,0,0,0,1,1h.865L12,51.438,9.135,48H10a1,1,0,0,0,1-1V34H9V46H7a1,1,0,0,0-.769,1.641l5,6a1,1,0,0,0,1.538,0l5-6A1,1,0,0,0,17,46Z"></path><path d="M37,54H35V42H33V55a1,1,0,0,0,1,1h.865L32,59.438,29.135,56H30a1,1,0,0,0,1-1V42H29V54H27a1,1,0,0,0-.769,1.641l5,6a1,1,0,0,0,1.538,0l5-6A1,1,0,0,0,37,54Z"></path></g></svg>