<svg xmlns="http://www.w3.org/2000/svg" viewBox="0 0 64 64" x="0px" y="0px"><g><path d="M46.69,39.3,37,36.27V32.59a5.15,5.15,0,0,0,1-1.35l4.26-8.53a6.358,6.358,0,0,0,.31-.71H43a4,4,0,0,0,0-8V7a5,5,0,0,0-5-5H20a1,1,0,0,0-1,1V5a4.952,4.952,0,0,0,2,3.97V14a4,4,0,1,0,0,8h.43a6.358,6.358,0,0,0,.31.71L26,31.24a5.15,5.15,0,0,0,1,1.35v3.68L17.31,39.3A8.941,8.941,0,0,0,11,47.88V61a1,1,0,0,0,1,1H52a1,1,0,0,0,1-1V47.88A8.941,8.941,0,0,0,46.69,39.3ZM43,16a2.006,2.006,0,0,1,2,2,2.015,2.015,0,0,1-2,2h-.02c0-.14.02-.28.02-.42V16.82a7.357,7.357,0,0,0-.06-.82ZM36.45,46.83l2.19,1.47-4.81,7.82,2.74-16.46,2.14,3.21-2.42,2.42a1.046,1.046,0,0,0-.29.81A.989.989,0,0,0,36.45,46.83Zm-1.78-7.91L32,41.59l-2.67-2.67-.33-2V33.78a5.127,5.127,0,0,0,1.47.22h3.06A5.127,5.127,0,0,0,35,33.78v3.14ZM38,4a3.009,3.009,0,0,1,3,3v4.7l-2-3V7a4.924,4.924,0,0,0-1.03-3ZM33,4h1a3.009,3.009,0,0,1,3,3V8H36a3.009,3.009,0,0,1-3-3ZM29,4h2V5a4.924,4.924,0,0,0,1.03,3H32a3.009,3.009,0,0,1-3-3ZM25,4h2V5a4.924,4.924,0,0,0,1.03,3H28a3.009,3.009,0,0,1-3-3ZM21.02,20H21a2.015,2.015,0,0,1-2-2,2.006,2.006,0,0,1,2-2h.06a7.357,7.357,0,0,0-.06.82v2.76C21,19.72,21.02,19.86,21.02,20ZM21,5V4h2V5a4.924,4.924,0,0,0,1.03,3H24A3.009,3.009,0,0,1,21,5Zm3.13,5L23,11.7V9.9a5.468,5.468,0,0,0,1,.1ZM23,19.58V16.82a5.016,5.016,0,0,1,.84-2.78L26.54,10H37.46l2.7,4.04A5.016,5.016,0,0,1,41,16.82v2.76a5.114,5.114,0,0,1-.47,2.11l-6.37-1.28a11.214,11.214,0,0,0-4.32,0l-6.37,1.28A5.114,5.114,0,0,1,23,19.58Zm3.33,7.83,3.78-.42-.22-1.98-4.52.5-.98-1.97,5.85-1.17a9.065,9.065,0,0,1,3.52,0l5.85,1.17-.98,1.97-4.52-.5-.22,1.98,3.78.42-.94,1.89-2.62-.29-.22,1.98,1.69.19a2.966,2.966,0,0,1-2.05.82H30.47a2.966,2.966,0,0,1-2.05-.82l1.69-.19-.22-1.98-2.62.29Zm1.1,12.25,2.74,16.46L25.36,48.3l2.19-1.47A.989.989,0,0,0,28,46.1a1.046,1.046,0,0,0-.29-.81l-2.42-2.42ZM21,60V49a1.033,1.033,0,0,0-.29-.71l-2-2-1.42,1.42L19,49.41V60H13V47.88a6.964,6.964,0,0,1,4.91-6.68l7.69-2.4-2.43,3.65a1,1,0,0,0,.12,1.26l2.14,2.13-1.98,1.33a1,1,0,0,0-.3,1.35L30.21,60Zm8.9-17.69,1.39,1.4a1.014,1.014,0,0,0,1.42,0l1.39-1.4L32,54.92ZM51,60H45V49.41l1.71-1.7-1.42-1.42-2,2A1.033,1.033,0,0,0,43,49V60H33.79l7.06-11.48a1,1,0,0,0-.3-1.35l-1.98-1.33,2.14-2.13a1,1,0,0,0,.12-1.26L38.4,38.8l7.69,2.4A6.964,6.964,0,0,1,51,47.88Z"></path><circle cx="28" cy="17" r="2"></circle><circle cx="36" cy="17" r="2"></circle></g></svg>