<svg xmlns="http://www.w3.org/2000/svg" viewBox="0 0 64 64" x="0px" y="0px"><g><polygon points="32.895 4 31.105 4 31.905 12 32.095 12 32.895 4"></polygon><path d="M30.005,13.1l-.561-5.609A7.033,7.033,0,0,0,25,14V24a3,3,0,0,0,3,3h8a3,3,0,0,0,3-3V14a6.94,6.94,0,0,0-4.444-6.507L33.995,13.1A1,1,0,0,1,33,14H31A1,1,0,0,1,30.005,13.1Zm-.295,4.61a.99.99,0,0,1-1.09.21,1.155,1.155,0,0,1-.33-.21,1.169,1.169,0,0,1-.21-.33A1,1,0,0,1,28,17a1.029,1.029,0,0,1,.29-.71,1.155,1.155,0,0,1,.33-.21.991.991,0,0,1,.76,0,1.155,1.155,0,0,1,.33.21A1.05,1.05,0,0,1,30,17,.99.99,0,0,1,29.71,17.71Zm4.58-1.42A1,1,0,0,1,36,17a.99.99,0,0,1-.29.71,1.155,1.155,0,0,1-.33.21.943.943,0,0,1-.76,0,1.155,1.155,0,0,1-.33-.21,1.169,1.169,0,0,1-.21-.33A1,1,0,0,1,34,17,1.029,1.029,0,0,1,34.29,16.29Z"></path><path d="M47,60V44a10.994,10.994,0,0,0-5.385-9.442l1.3,3.048a1,1,0,0,1-.364,1.226L40.57,40.155l1.137,1.138a1,1,0,0,1-.093,1.5L33,49.489V60h8V44h2V60Z"></path><path d="M40.753,37.629l-1.8-4.216c-.313-.087-.63-.163-.954-.223l.837,1.255a1,1,0,0,1,.1.926l-4.4,10.393,4.96-3.858-1.2-1.2a1,1,0,0,1,.152-1.539Z"></path><path d="M31,60V49.489l-8.614-6.7a1,1,0,0,1-.093-1.5l1.137-1.138-1.985-1.323a1,1,0,0,1-.364-1.226l1.3-3.048A10.994,10.994,0,0,0,17,44V60h4V44h2V60Z"></path><path d="M24.508,41.906l4.96,3.858-4.4-10.393a1,1,0,0,1,.1-.926l.837-1.255c-.324.06-.641.136-.954.223l-1.8,4.216,2.308,1.539a1,1,0,0,1,.152,1.539Z"></path><path d="M41,18v2a1,1,0,0,0,0-2Z"></path><path d="M22,19a1,1,0,0,0,1,1V18A1,1,0,0,0,22,19Z"></path><polygon points="34.763 40.322 32 38.25 29.237 40.322 32 46.538 34.763 40.322"></polygon><polygon points="35 31.649 35 29 29 29 29 31.649 32 35.399 35 31.649"></polygon><polygon points="36.876 35.117 35.927 33.692 33.425 36.819 35.556 38.417 36.876 35.117"></polygon><polygon points="28.073 33.692 27.124 35.117 28.444 38.417 30.575 36.819 28.073 33.692"></polygon></g></svg>