<svg xmlns="http://www.w3.org/2000/svg" viewBox="0 0 64 64" x="0px" y="0px"><g><polygon points="13 52.13 13 60 19 60 19 52.88 13 52.13"></polygon><path d="M23.1,12H25V8a1,1,0,0,1,1-1H38a1,1,0,0,1,1,1v4h1.94A8.994,8.994,0,0,0,31.4,4.02,9.141,9.141,0,0,0,23.1,12Z"></path><path d="M23,20.17a9.232,9.232,0,0,0,.12,1.48l.02.11,6.7-1.35a11.214,11.214,0,0,1,4.32,0l6.7,1.35.02-.11A9.232,9.232,0,0,0,41,20.17V14H38a1,1,0,0,1-1-1V9H27v4a1,1,0,0,1-1,1H23ZM36,15a2,2,0,1,1-2,2A2,2,0,0,1,36,15Zm-8,0a2,2,0,1,1-2,2A2,2,0,0,1,28,15Z"></path><path d="M51,47.88a6.964,6.964,0,0,0-4.91-6.68l-5.13-1.6c.01.13.04.26.04.4v4a1,1,0,0,1-2,0,1,1,0,0,0-2,0,.992.992,0,0,1-1.97.17l-2.14,4.28a1,1,0,0,1-1.78,0l-2.14-4.28A.992.992,0,0,1,27,44a1,1,0,0,0-2,0,1,1,0,0,1-2,0V40c0-.14.03-.27.04-.4l-5.13,1.6A6.964,6.964,0,0,0,13,47.88v2.24l6,.75V47h2V60H43V47h2v3.87l6-.75ZM33,57H31V55h2Zm0-4H31V51h2Z"></path><polygon points="45 60 51 60 51 52.13 45 52.88 45 60"></polygon><path d="M38.06,29.45a8.531,8.531,0,0,0,1.35-1.85l-5.52-.61.22-1.98,6.06.67a6.084,6.084,0,0,0,.16-.74l.2-1.21-6.77-1.36a9.065,9.065,0,0,0-3.52,0l-6.77,1.36.2,1.21a6.084,6.084,0,0,0,.16.74l6.06-.67.22,1.98-5.52.61a8.531,8.531,0,0,0,1.35,1.85l3.95-.44.22,1.98-1.74.2a8.539,8.539,0,0,0,7.26,0l-1.74-.2.22-1.98Z"></path><path d="M39,41.17V40a3.014,3.014,0,0,0-2-2.83v4a3.026,3.026,0,0,1,2,0Z"></path><path d="M29.87,41.51,32,45.76l2.13-4.25a4.874,4.874,0,0,1-4.26,0Z"></path><path d="M27,41.17v-4A3.014,3.014,0,0,0,25,40v1.17a3.026,3.026,0,0,1,2,0Z"></path><path d="M19.01,17.85a1.941,1.941,0,0,0,.58,1.56A1.983,1.983,0,0,0,21,20V16.02A2.077,2.077,0,0,0,19.01,17.85Z"></path><path d="M43,16v4a2.015,2.015,0,0,0,2-2A2.006,2.006,0,0,0,43,16Z"></path><path d="M35,33.56a10.447,10.447,0,0,1-6,0V37a3,3,0,0,0,6,0Z"></path></g></svg>