<svg xmlns="http://www.w3.org/2000/svg" viewBox="0 0 64 64" x="0px" y="0px"><g><path d="M17.35,46H14V57H40.114a3.031,3.031,0,0,0,1.267-.28l17.327-8.076A3.018,3.018,0,0,0,60.43,45.92a3.058,3.058,0,0,0-.28-1.275,2.99,2.99,0,0,0-3.975-1.44L42.584,49.532A5.013,5.013,0,0,1,40.475,50H29V48h9a3,3,0,1,0,0-6H23a4.98,4.98,0,0,0-4.706,3.328A1,1,0,0,1,17.35,46Z"></path><rect x="4" y="42" width="8" height="18"></rect><circle cx="34" cy="25" r="3"></circle><path d="M50,28.1A5.013,5.013,0,0,0,46.1,32H50Z"></path><path d="M18,28.1V32h3.9A5.013,5.013,0,0,0,18,28.1Z"></path><rect x="18" y="34" width="32" height="2"></rect><path d="M50,23.92A7,7,0,0,1,44.08,18H23.92A7,7,0,0,1,18,23.92v2.16A7,7,0,0,1,23.92,32H44.08A7,7,0,0,1,50,26.08ZM34,30a5,5,0,1,1,5-5A5.006,5.006,0,0,1,34,30Z"></path><path d="M50,18H46.1A5.013,5.013,0,0,0,50,21.9Z"></path><path d="M18,18v3.9A5.013,5.013,0,0,0,21.9,18Z"></path><path d="M32,14a1,1,0,0,0,.707-.293l3-3L34.293,9.293,32,11.586,29.707,9.293l-1.414,1.414,3,3A1,1,0,0,0,32,14Z"></path><path d="M20,11a1,1,0,0,0,.707-.293l3-3L22.293,6.293,20,8.586,17.707,6.293,16.293,7.707l3,3A1,1,0,0,0,20,11Z"></path><path d="M45,12a1,1,0,0,0,.707-.293l3-3L47.293,7.293,45,9.586,42.707,7.293,41.293,8.707l3,3A1,1,0,0,0,45,12Z"></path><rect x="30" y="4" width="2" height="4"></rect><rect x="33" y="5" width="2" height="2"></rect><rect x="18" y="2" width="2" height="2"></rect><rect x="21" y="3" width="2" height="2"></rect><rect x="43" y="4" width="2" height="2"></rect><rect x="46" y="2" width="2" height="2"></rect></g></svg>