<svg xmlns="http://www.w3.org/2000/svg" viewBox="0 0 64 64" x="0px" y="0px"><g><path d="M52,40H49v2h3v3a3,3,0,0,1-3,3v2a5.006,5.006,0,0,0,5-5V37H52Z"></path><path d="M40,58a2,2,0,0,0-2-2H36.883l-.75-6H39V48H7a3,3,0,0,1-3-3V42H39V40H4V15a3,3,0,0,1,3-3h4V36a2,2,0,0,0,2,2H34V36H13V4H33V8a2,2,0,0,0,2,2h4v3h2V12h8a3,3,0,0,1,3,3h2a5.006,5.006,0,0,0-5-5H41V9a1,1,0,0,0-.293-.707l-6-6A1,1,0,0,0,34,2H13a2,2,0,0,0-2,2v6H7a5.006,5.006,0,0,0-5,5V45a5.006,5.006,0,0,0,5,5H19.867l-.75,6H18a2,2,0,0,0-2,2v2H14v2H42V60H40ZM35,5.414,37.586,8H35ZM21.883,50H34.117l.75,6H21.133ZM18,60V58H38v2Z"></path><path d="M56,26A12,12,0,1,0,41,37.6V53a3,3,0,0,0,6,0V37.6A12.009,12.009,0,0,0,56,26ZM34,26A10,10,0,1,1,44,36,10.011,10.011,0,0,1,34,26ZM45,53a1,1,0,0,1-2,0V37.949c.331.028.662.051,1,.051s.669-.023,1-.051Z"></path><path d="M53,26a9,9,0,1,0-9,9A9.01,9.01,0,0,0,53,26ZM37,26a7,7,0,1,1,7,7A7.008,7.008,0,0,1,37,26Z"></path><rect x="16" y="8" width="4" height="2"></rect><rect x="22" y="8" width="8" height="2"></rect><rect x="16" y="14" width="14" height="2"></rect><rect x="16" y="20" width="2" height="2"></rect><rect x="20" y="20" width="10" height="2"></rect><rect x="16" y="26" width="13" height="2"></rect></g></svg>