<svg xmlns="http://www.w3.org/2000/svg" viewBox="0 0 64 64" x="0px" y="0px"><g><rect x="40" y="40" width="2" height="1"></rect><path d="M49,22a8,8,0,1,0-10.668,7.537A1,1,0,0,1,39,30.48V35h4V30.48a1,1,0,0,1,.668-.943A8,8,0,0,0,49,22Zm-8-4a4,4,0,0,0-4,4H35a6.006,6.006,0,0,1,6-6Z"></path><rect x="39" y="37" width="4" height="1"></rect><path d="M43,4H29.392A17.9,17.9,0,0,0,12.934,15.231L6.385,35H12v9a5.006,5.006,0,0,0,5,5H31v2H26v9H48V49h1a8.994,8.994,0,0,0,9-9V19A14.989,14.989,0,0,0,43,4Zm8.606,5.979,1.415,1.415-2.829,2.828-1.414-1.414ZM40,6h2v4H40ZM30.394,9.979l2.828,2.829-1.414,1.414-2.829-2.828ZM17.5,26A4.505,4.505,0,0,1,13,21.5h2a2.5,2.5,0,0,0,5,0h2A4.505,4.505,0,0,1,17.5,26ZM25,23V21h4v2Zm5.394,11.021-1.415-1.415,2.829-2.828,1.414,1.414ZM48,35v2H45v2a1,1,0,0,1-1,1v2a1,1,0,0,1-1,1H39a1,1,0,0,1-1-1V40a1,1,0,0,1-1-1V37H34V35h3V31.161a10,10,0,1,1,8,0V35Zm3.606-.979-2.828-2.829,1.414-1.414,2.829,2.828ZM57,23H53V21h4Z"></path></g></svg>