<svg xmlns="http://www.w3.org/2000/svg" viewBox="0 0 64 64" x="0px" y="0px"><g><path d="M29.18,30a2.868,2.868,0,0,0,0,2H14a1,1,0,0,1-1-1V28h2v2Z"></path><path d="M32,34a2.772,2.772,0,0,0,1-.18V36H31V33.82A2.772,2.772,0,0,0,32,34Z"></path><path d="M51,28v3a1,1,0,0,1-1,1H34.82a2.868,2.868,0,0,0,0-2H49V28Z"></path><path d="M14,4C8.28,4,4,6.11,4,8s4.28,4,10,4S24,9.89,24,8,19.72,4,14,4Zm6,5H8V7H20Z"></path><path d="M4,11.41V15c0,1.89,4.28,4,10,4s10-2.11,10-4V11.41C21.89,12.99,18.27,14,14,14S6.11,12.99,4,11.41ZM7,16H5V14H7Zm4,1H9V15h2Z"></path><path d="M14,26c5.72,0,10-2.11,10-4V18.41C21.89,19.99,18.27,21,14,21S6.11,19.99,4,18.41V22C4,23.89,8.28,26,14,26ZM9,22h2v2H9ZM5,21H7v2H5Z"></path><path d="M50,4C44.28,4,40,6.11,40,8s4.28,4,10,4S60,9.89,60,8,55.72,4,50,4Zm6,5H44V7H56Z"></path><path d="M40,11.41V15c0,1.89,4.28,4,10,4s10-2.11,10-4V11.41C57.89,12.99,54.27,14,50,14S42.11,12.99,40,11.41ZM43,16H41V14h2Zm4,1H45V15h2Z"></path><path d="M50,26c5.72,0,10-2.11,10-4V18.41C57.89,19.99,54.27,21,50,21s-7.89-1.01-10-2.59V22C40,23.89,44.28,26,50,26Zm-5-4h2v2H45Zm-4-1h2v2H41Z"></path><path d="M59,38H5a1,1,0,0,0-1,1V57a1,1,0,0,0,1,1H9V53a3,3,0,0,1,4-2.83V49a3.009,3.009,0,0,1,3-3,2.934,2.934,0,0,1,1.47.39,3,3,0,0,1,5.06,0A2.934,2.934,0,0,1,24,46a3.009,3.009,0,0,1,3,3v2.17A3,3,0,0,1,31,54v4h2V54a3,3,0,0,1,4-2.83V49a3.009,3.009,0,0,1,3-3,2.934,2.934,0,0,1,1.47.39,3,3,0,0,1,5.06,0A2.934,2.934,0,0,1,48,46a3.009,3.009,0,0,1,3,3v1.17A3,3,0,0,1,55,53v5h4a1,1,0,0,0,1-1V39A1,1,0,0,0,59,38ZM11,46H9V44h2Zm0-4H9V40h2Zm4,4H13V44h2Zm0-4H13V40h2Zm4,0H17V40h2Zm4,0H21V40h2Zm4,4H25V44h2Zm0-4H25V40h2Zm4,8H29V48h2Zm0-4H29V44h2Zm0-4H29V40h2Zm4,8H33V48h2Zm0-4H33V44h2Zm0-4H33V40h2Zm4,4H37V44h2Zm0-4H37V40h2Zm4,0H41V40h2Zm4,0H45V40h2Zm4,4H49V44h2Zm0-4H49V40h2Zm4,4H53V44h2Zm0-4H53V40h2Z"></path><path d="M36,53a1,1,0,0,0-1,1v6H53V53a1,1,0,0,0-2,0v2a1,1,0,0,1-2,0V49a1,1,0,0,0-2,0v6a1,1,0,0,1-2,0V48a1,1,0,0,0-2,0v7a1,1,0,0,1-2,0V49a1,1,0,0,0-2,0v7a1,1,0,0,1-2,0V54A1,1,0,0,0,36,53Z"></path><path d="M12,52a1,1,0,0,0-1,1v7H29V54a1,1,0,0,0-2,0v2a1,1,0,0,1-2,0V49a1,1,0,0,0-2,0v6a1,1,0,0,1-2,0V48a1,1,0,0,0-2,0v7a1,1,0,0,1-2,0V49a1,1,0,0,0-2,0v6a1,1,0,0,1-2,0V53A1,1,0,0,0,12,52Z"></path><circle cx="32" cy="31" r="1"></circle></g></svg>