<svg xmlns="http://www.w3.org/2000/svg" viewBox="0 0 64 64" x="0px" y="0px"><g><path d="M59.008,46l.984-7.876a1,1,0,0,0-.242-.786.987.987,0,0,0-.448-.273,9.623,9.623,0,0,0,.6-2.065H61V33H59.9a4.969,4.969,0,0,0-.732-1.753l.783-.782-1.414-1.414-.783.782A4.961,4.961,0,0,0,56,29.1V28H54v1.1a4.961,4.961,0,0,0-1.753.732l-.783-.782L50.05,30.465l.783.782A4.969,4.969,0,0,0,50.1,33H49v2h1.093a9.623,9.623,0,0,0,.6,2.065.987.987,0,0,0-.448.273,1,1,0,0,0-.242.786L50.992,46H44a3,3,0,0,0,3-3V41a1,1,0,0,0-1-1H45V19a3,3,0,0,0-3-3H10a3,3,0,0,0-3,3V40H6a1,1,0,0,0-1,1v2a3,3,0,0,0,3,3H2v2H62V46Zm-1.141-7-.75,6H52.883l-.75-6h5.734ZM55,31a3,3,0,0,1,3,3,7.1,7.1,0,0,1-.851,3h-4.3A7.1,7.1,0,0,1,52,34,3,3,0,0,1,55,31ZM9,19a1,1,0,0,1,1-1H42a1,1,0,0,1,1,1V40H9ZM7,43V42H22a1,1,0,0,0,1,1h6a1,1,0,0,0,1-1H45v1a1,1,0,0,1-1,1H8A1,1,0,0,1,7,43Z"></path><rect x="54" y="33" width="2" height="2"></rect><rect x="28" y="20" width="4" height="2"></rect><rect x="26" y="36" width="4" height="2"></rect><path d="M24,36H22.566l-1.141-1.9a6.983,6.983,0,0,0,1.94-10.585L24.5,22H26V20H24a1,1,0,0,0-.8.4l-1.329,1.773A7,7,0,1,0,19.53,34.826l1.613,2.689A1,1,0,0,0,22,38h2ZM21.8,25.6l.319-.425A4.966,4.966,0,0,1,22.9,27H19V23.1a4.954,4.954,0,0,1,1.663.683L20.2,24.4ZM18,33a5,5,0,0,1-1-9.9V28a1,1,0,0,0,1,1h4.9a5,5,0,0,1-2.513,3.366l-.529-.881-1.714,1.03.266.444C18.272,32.97,18.14,33,18,33Z"></path><rect x="30" y="25" width="2" height="2"></rect><rect x="34" y="25" width="6" height="2"></rect><rect x="30" y="29" width="8" height="2"></rect><path d="M40,37H38v2h3a1,1,0,0,0,1-1V35H40Z"></path></g></svg>