<svg xmlns="http://www.w3.org/2000/svg" viewBox="0 0 64 64" x="0px" y="0px"><g><path d="M60,18.949A12.006,12.006,0,0,1,49.051,8h-34.1A12.006,12.006,0,0,1,4,18.949v4.1A12.006,12.006,0,0,1,14.949,34H30.768a1.956,1.956,0,0,1,.143-.145A2.906,2.906,0,0,1,33,33a2.971,2.971,0,0,1,1,.192V29.766a9.065,9.065,0,1,1,5.9-4.5A3.007,3.007,0,0,1,40,26v5.184A2.966,2.966,0,0,1,41,31a2.935,2.935,0,0,1,2.126.893,2.789,2.789,0,0,1,.406.507A2.965,2.965,0,0,1,45,32a2.935,2.935,0,0,1,2.126.893,2.774,2.774,0,0,1,.4.5A2.976,2.976,0,0,1,49,33c.056,0,.107.018.163.021A12.028,12.028,0,0,1,60,23.049Z"></path><rect x="33" y="54" width="16" height="6"></rect><path d="M60,25.05a10.025,10.025,0,0,0-8.93,8.788c.052.049.093.109.142.162H60Z"></path><rect x="52" y="36" width="8" height="2"></rect><rect x="52" y="40" width="8" height="2"></rect><path d="M50,36a.983.983,0,0,0-.133-.494,1.021,1.021,0,0,0-1.561-.219.959.959,0,0,0-.178.226A.985.985,0,0,0,48,36v6H46V35a.957.957,0,0,0-.288-.694A.978.978,0,0,0,45,34a1,1,0,0,0-1,1v6H42V34a.957.957,0,0,0-.288-.694A.978.978,0,0,0,41,33a1,1,0,0,0-1,1v6H38V26a.9.9,0,0,0-.082-.388A.908.908,0,0,0,37.7,25.3.969.969,0,0,0,37,25a1,1,0,0,0-1,1V42H34V36a.983.983,0,0,0-.133-.494.946.946,0,0,0-.321-.329,1.016,1.016,0,0,0-1.24.11.959.959,0,0,0-.178.226A.985.985,0,0,0,32,36v8.764l1.9,3.789A1,1,0,0,1,34,49v3H48V49a1,1,0,0,1,.1-.447L50,44.764Z"></path><path d="M37,23a2.947,2.947,0,0,1,1.544.44A6.964,6.964,0,1,0,34,27.709V26A3,3,0,0,1,37,23Z"></path><path d="M4,8v8.95A10.018,10.018,0,0,0,12.95,8Z"></path><path d="M60,8H51.05A10.018,10.018,0,0,0,60,16.95Z"></path><path d="M4,25.05V34h8.95A10.018,10.018,0,0,0,4,25.05Z"></path><rect x="4" y="40" width="26" height="2"></rect><rect x="4" y="36" width="26" height="2"></rect></g></svg>