<svg xmlns="http://www.w3.org/2000/svg" viewBox="0 0 64 64" x="0px" y="0px"><g data-name="Payment"><path d="M32,30a2.993,2.993,0,0,0-1,5.816V41h2V35.816A2.993,2.993,0,0,0,32,30Zm0,4a1,1,0,1,1,1-1A1,1,0,0,1,32,34Z"></path><path d="M54,13H48V3a1,1,0,0,0-1.8-.6L44,5.335,41.789,2.4a1,1,0,0,0-1.6,0l-2.2,2.933L35.789,2.4a1.036,1.036,0,0,0-1.6,0l-2.2,2.933L29.8,2.4a1,1,0,0,0-1.6,0l-2.2,2.933L23.8,2.4a1.036,1.036,0,0,0-1.6,0L20,5.333,17.8,2.4A1,1,0,0,0,16,3V13H10a1,1,0,0,0-1,1V59a3,3,0,0,0,3,3H52a3,3,0,0,0,3-3V14A1,1,0,0,0,54,13ZM11,19.386l2.573,6.691A3.02,3.02,0,0,0,16.374,28H47.626a3.02,3.02,0,0,0,2.8-1.923L53,19.386V54H11ZM52.544,15,48.56,25.359a1,1,0,0,1-.56.558V15ZM19.2,7.6a1,1,0,0,0,1.6,0L23,4.667l2.2,2.933a1,1,0,0,0,1.6,0l2.2-2.933,2.2,2.933a1,1,0,0,0,1.6,0l2.2-2.933,2.2,2.933a1.036,1.036,0,0,0,1.6,0l2.2-2.934L43.2,7.6a1.037,1.037,0,0,0,1.6,0L46,6V26H18V6ZM16,25.917a1,1,0,0,1-.56-.558L11.456,15H16ZM52,60H12a1,1,0,0,1-1-1V56H53v3A1,1,0,0,1,52,60Z"></path><path d="M33,20H31a1,1,0,0,1-1-1H28a3,3,0,0,0,3,3v2h2V22a3,3,0,0,0,0-6H31a1,1,0,0,1,0-2h2a1,1,0,0,1,1,1h2a3,3,0,0,0-3-3V10H31v2a3,3,0,0,0,0,6h2a1,1,0,0,1,0,2Z"></path><rect x="38" y="16" width="2" height="2"></rect><rect x="24" y="16" width="2" height="2"></rect></g></svg>