<svg xmlns="http://www.w3.org/2000/svg" viewBox="0 0 64 64" x="0px" y="0px"><g data-name="Emergency Call-Ambulance-Smartphone-Medical-Hospital"><path d="M23,2H9A5,5,0,0,0,4,7V33a5,5,0,0,0,5,5H23a5,5,0,0,0,5-5V7A5,5,0,0,0,23,2Zm3,31a3.009,3.009,0,0,1-3,3H9a3.009,3.009,0,0,1-3-3V7A3.009,3.009,0,0,1,9,4H23a3.009,3.009,0,0,1,3,3Z"></path><rect x="16" y="6" width="4" height="2"></rect><rect x="12" y="6" width="2" height="2"></rect><rect x="14" y="32" width="4" height="2"></rect><rect x="36" y="6" width="2" height="2"></rect><rect x="40" y="6" width="6" height="2"></rect><rect x="36" y="10" width="10" height="2"></rect><path d="M47,2H35a3.009,3.009,0,0,0-3,3v8a3.009,3.009,0,0,0,3,3h1v3a.987.987,0,0,0,.62.92A.838.838,0,0,0,37,20a1.007,1.007,0,0,0,.71-.29L41.41,16H47a3.009,3.009,0,0,0,3-3V5A3.009,3.009,0,0,0,47,2Zm1,11a1,1,0,0,1-1,1H41a1.033,1.033,0,0,0-.71.29L38,16.59V15a1,1,0,0,0-1-1H35a1,1,0,0,1-1-1V5a1,1,0,0,1,1-1H47a1,1,0,0,1,1,1Z"></path><path d="M59,58a3.009,3.009,0,0,0,3-3V46.93a3,3,0,0,0-1.06-2.29L49.2,34.7a3.031,3.031,0,0,0-1.93-.7H30v2H47.27a1.042,1.042,0,0,1,.64.23L50,38H47a2.006,2.006,0,0,0-2,2v7a2.006,2.006,0,0,0,2,2H60v6a1,1,0,0,1-1,1H57.9a5,5,0,0,0-9.8,0H31.9a5,5,0,0,0-9.8,0H19a1,1,0,0,1-1-1V40H16V55a3.009,3.009,0,0,0,3,3h3.1a4.84,4.84,0,0,0,.93,2H2v2H62V60H56.97a4.84,4.84,0,0,0,.93-2ZM47,47V40h5.36l7.29,6.17a.98.98,0,0,1,.35.76V47ZM27,60a3,3,0,1,1,3-3A3.009,3.009,0,0,1,27,60Zm3.97,0a4.84,4.84,0,0,0,.93-2H48.1a4.84,4.84,0,0,0,.93,2ZM53,60a3,3,0,1,1,3-3A3.009,3.009,0,0,1,53,60Z"></path><rect x="2" y="56" width="2" height="2"></rect><rect x="6" y="56" width="6" height="2"></rect><rect x="4" y="52" width="10" height="2"></rect><rect x="10" y="48" width="4" height="2"></rect><rect x="6" y="48" width="2" height="2"></rect><path d="M11.833,22.753l-1.49,1.49,1.414,1.414,1.49-1.49A4.961,4.961,0,0,0,15,24.9V27h2V24.9a4.961,4.961,0,0,0,1.753-.732l1.49,1.49,1.414-1.414-1.49-1.49A4.969,4.969,0,0,0,20.9,21H23V19H20.9a4.969,4.969,0,0,0-.732-1.753l1.49-1.49-1.414-1.414-1.49,1.49A4.961,4.961,0,0,0,17,15.1V13H15v2.1a4.961,4.961,0,0,0-1.753.732l-1.49-1.49-1.414,1.414,1.49,1.49A4.969,4.969,0,0,0,11.1,19H9v2h2.1A4.969,4.969,0,0,0,11.833,22.753ZM16,17a3,3,0,1,1-3,3A3,3,0,0,1,16,17Z"></path><rect x="15" y="19" width="2" height="2"></rect><path d="M27,42v4a1,1,0,0,0,1,1h2v2a1,1,0,0,0,1,1h4a1,1,0,0,0,1-1V47h2a1,1,0,0,0,1-1V42a1,1,0,0,0-1-1H36V39a1,1,0,0,0-1-1H31a1,1,0,0,0-1,1v2H28A1,1,0,0,0,27,42Zm2,1h2a1,1,0,0,0,1-1V40h2v2a1,1,0,0,0,1,1h2v2H35a1,1,0,0,0-1,1v2H32V46a1,1,0,0,0-1-1H29Z"></path><rect x="26" y="56" width="2" height="2"></rect><rect x="52" y="56" width="2" height="2"></rect></g></svg>