<svg xmlns="http://www.w3.org/2000/svg" viewBox="0 0 64 64" x="0px" y="0px"><g><path d="M22.54,28.613A6.977,6.977,0,0,1,26,27.071v-1.1a4.989,4.989,0,0,1-1.895-2.958,2.681,2.681,0,0,0-.834.077,2.992,2.992,0,0,0-.731,5.52Z"></path><path d="M32,22V20.885a2.981,2.981,0,0,1-1.293-.764L30,19.415l-.121.121A4.968,4.968,0,0,1,26.343,21H26v1a3,3,0,0,0,6,0Z"></path><path d="M25,19h1.343a2.983,2.983,0,0,0,2.122-.878l.828-.829a1.029,1.029,0,0,1,1.414,0l1.414,1.414a1.009,1.009,0,0,0,.707.293H33a1,1,0,0,1,1,1V19a5.006,5.006,0,0,0-5-5,5.009,5.009,0,0,0-5,5v1A1,1,0,0,1,25,19Z"></path><path d="M28,26.9v.687l1,1,1-1V26.9a5,5,0,0,1-2,0Z"></path><path d="M32,25.974v1.1a6.977,6.977,0,0,1,3.46,1.542,2.992,2.992,0,0,0-.706-5.514,2.745,2.745,0,0,0-.858-.085A4.992,4.992,0,0,1,32,25.974Z"></path><path d="M12,60H46a1,1,0,0,0,1-1V11a1,1,0,0,0-1-1H45v7a1,1,0,0,1-1.9.447L42,15.236l-1.1,2.211A1,1,0,0,1,39,17V10H12a1,1,0,0,0-1,1V59A1,1,0,0,0,12,60ZM43,48H37V46h6Zm0-4H33V42H43Zm-8,2v2H27V46Zm8-8v2H23V38ZM22,21.422V19a7.008,7.008,0,0,1,7-7,7.008,7.008,0,0,1,7,7v2.42a4.985,4.985,0,0,1,.814,8.7A6.946,6.946,0,0,1,38,34v1a1,1,0,0,1-1,1H21a1,1,0,0,1-1-1V34a6.946,6.946,0,0,1,1.186-3.882,4.984,4.984,0,0,1,.814-8.7ZM15,38h6v2H15Zm0,4H31v2H15Zm0,4H25v2H15Zm0,4H43v2H15Zm0,4H43v2H15Z"></path><path d="M42.9,12.553l.1.211V10H41v2.764l.1-.211A1.042,1.042,0,0,1,42.9,12.553Z"></path><path d="M52,54a1,1,0,0,0,1-1V5a1,1,0,0,0-1-1H18a1,1,0,0,0-1,1V8H46a3,3,0,0,1,3,3V54Z"></path><path d="M31.376,29.038l-1.669,1.669a1,1,0,0,1-1.414,0l-1.669-1.669A4.991,4.991,0,0,0,22,34H36A4.991,4.991,0,0,0,31.376,29.038Z"></path></g></svg>