<svg xmlns="http://www.w3.org/2000/svg" viewBox="0 0 64 64" x="0px" y="0px"><g><path d="M21.15,42.09l5.15-1.61a.987.987,0,0,0,.7-.95V36.79A11.014,11.014,0,0,1,21,27V18.84a1.008,1.008,0,0,1,.84-.99,7.348,7.348,0,0,0,4.49-2.19.986.986,0,0,1,1.15-.28,23.388,23.388,0,0,0,14.24.9,1,1,0,0,1,1.25.89c.02.26.03.55.03.83v9a10.922,10.922,0,0,1-3.22,7.78A11.064,11.064,0,0,1,37,36.79v2.74a.987.987,0,0,0,.7.95l5.15,1.61A26.248,26.248,0,0,0,48,26C48,13.87,40.82,4,32,4S16,13.87,16,26A26.248,26.248,0,0,0,21.15,42.09Z"></path><path d="M51,60V51.88a6.964,6.964,0,0,0-4.91-6.68L42.2,43.99C40.57,46.98,36.54,49,32,49s-8.57-2.02-10.2-5.01L17.91,45.2A6.964,6.964,0,0,0,13,51.88V60h5.08a8.137,8.137,0,0,1,1.21-9.71l1.42,1.42A6.609,6.609,0,0,0,19,56a6.735,6.735,0,0,0,1.17,3.63,3.6,3.6,0,0,1,.22.37H43.61c.07-.12.13-.24.21-.36A6.723,6.723,0,0,0,45,56a6.609,6.609,0,0,0-1.71-4.29l1.42-1.42A8.137,8.137,0,0,1,45.92,60Z"></path><path d="M36.24,41.96A2.993,2.993,0,0,1,35,39.53V37.58a10.8,10.8,0,0,1-6-.01v1.96a2.966,2.966,0,0,1-1.24,2.43A7.947,7.947,0,0,0,32,43,7.947,7.947,0,0,0,36.24,41.96Z"></path><path d="M38.36,33.36A8.942,8.942,0,0,0,41,27V18.5a25.571,25.571,0,0,1-13.64-1.02A9.5,9.5,0,0,1,23,19.66V27a8.994,8.994,0,0,0,15.36,6.36ZM36,22a2,2,0,1,1-2,2A2,2,0,0,1,36,22ZM26,24a2,2,0,1,1,2,2A2,2,0,0,1,26,24Zm4.016,5.25a3.076,3.076,0,0,0,3.968,0l1.323,1.5a5,5,0,0,1-6.614,0Z"></path><path d="M25.69,42.77l-1.94.6C25.16,45.52,28.42,47,32,47s6.84-1.48,8.25-3.63l-1.94-.6C37.19,44.13,34.82,45,32,45S26.81,44.13,25.69,42.77Z"></path></g></svg>