<svg xmlns="http://www.w3.org/2000/svg" viewBox="0 0 64 64" x="0px" y="0px"><title>Mobile Banking</title><g data-name="Mobile Banking"><path d="M44,2H20a5.006,5.006,0,0,0-5,5V57a5.006,5.006,0,0,0,5,5H44a5.006,5.006,0,0,0,5-5V7A5.006,5.006,0,0,0,44,2Zm0,58H20a3,3,0,0,1-3-3V12H43V10H17V7a3,3,0,0,1,3-3H44a3,3,0,0,1,3,3V52H21v2H47v3A3,3,0,0,1,44,60Z"></path><rect x="21" y="6" width="2" height="2"></rect><rect x="25" y="6" width="4" height="2"></rect><rect x="30" y="56" width="4" height="2"></rect><path d="M32,42A10,10,0,1,0,22,32,10.011,10.011,0,0,0,32,42Zm0-18a8,8,0,1,1-8,8A8.009,8.009,0,0,1,32,24Z"></path><path d="M32,35a.94.94,0,0,1-.862-1h-2A2.993,2.993,0,0,0,31,36.8V38h2V36.8A2.993,2.993,0,0,0,34.862,34,2.937,2.937,0,0,0,32,31a1.011,1.011,0,1,1,.862-1h2A2.993,2.993,0,0,0,33,27.2V26H31v1.2A2.993,2.993,0,0,0,29.138,30,2.937,2.937,0,0,0,32,33a1.011,1.011,0,0,1,0,2Z"></path><rect x="36" y="31" width="2" height="2"></rect><rect x="26" y="31" width="2" height="2"></rect><polygon points="21 16 24 16 24 14 19 14 19 19 21 19 21 16"></polygon><polygon points="40 50 45 50 45 45 43 45 43 48 40 48 40 50"></polygon></g></svg>