<svg xmlns="http://www.w3.org/2000/svg" viewBox="0 0 64 64" x="0px" y="0px"><g><rect x="4" y="15" width="2" height="4"></rect><polygon points="8 33.6 8 34 14 34 14 30.43 8 33.6"></polygon><path d="M21.45,40H21a1.033,1.033,0,0,1-.71-.29L16.59,36H16v3a1,1,0,0,1-1,1H8v4H19.68Z"></path><rect x="4" y="40" width="2" height="4"></rect><polygon points="26.49 44 26.89 40 23.64 40 21.87 44 26.49 44"></polygon><path d="M32,25H24.25L16,29.37V32l1.2-1.6,1.6,1.2L17,34h2.5l2.7-3.6,1.6,1.2L22,34h2.5l2.7-3.6,1.6,1.2L27,34h2.5l2.7-3.6,1.6,1.2-1.75,2.33L37,32.28V30A5,5,0,0,0,32,25Z"></path><polygon points="51.35 23.94 50.38 22 49.41 22 51.35 23.94"></polygon><path d="M46,14a4,4,0,0,0-4,4V29a1,1,0,0,1-1,1H39v3a1.014,1.014,0,0,1-.68.95l-6,2A1.185,1.185,0,0,1,32,36H19.41l2,2h10.4l10.27-3.94A3,3,0,0,0,44,31.25V21a1,1,0,0,1,1-1h5V18A4,4,0,0,0,46,14Zm2,4H46V16h2Z"></path><path d="M60,13a3.009,3.009,0,0,0-3-3H38.92a2.976,2.976,0,0,0-2.34,1.13l-1.6,1.99A4.952,4.952,0,0,1,31.08,15H8v4h7a1,1,0,0,1,1,1v7.1l7.53-3.98A1,1,0,0,1,24,23h8a7.024,7.024,0,0,1,6.71,5H40V18a6,6,0,0,1,12,0v2.76l3.89,7.79a1,1,0,0,1-.31,1.26A.959.959,0,0,1,55,30a1.024,1.024,0,0,1-.71-.29L46.59,22H46v9.25a4.969,4.969,0,0,1-3.2,4.67L32.36,39.93A.922.922,0,0,1,32,40H28.91l-.41,4h5.56a3,3,0,0,0,1.34-.32l8.31-4.15A4.945,4.945,0,0,1,45.94,39H57a3.009,3.009,0,0,0,3-3Z"></path><path d="M41,52v4a1.033,1.033,0,0,1-.29.71l-2,2-1.42-1.42L39,55.59V52.41l-2.44-2.43L36,49.95,36.02,56a1.007,1.007,0,0,1-.29.71l-2,2-1.41-1.42,1.7-1.7V54H32V52h2.01L34,49.84l-5.77-.33L31.72,60H37v2H27V60h2.61L26.08,49.39,18.94,49a1,1,0,0,1-.79-.48.988.988,0,0,1-.06-.93l.7-1.59h2.19l-.48,1.08,5.66.32L26.3,46h2l-.15,1.51,8.91.49a1.076,1.076,0,0,1,.65.29l3,3A1.033,1.033,0,0,1,41,52Z"></path></g></svg>