<svg xmlns="http://www.w3.org/2000/svg" viewBox="0 0 64 64" x="0px" y="0px"><g data-name="Door Lock-Security-Protection-Door-Padlock"><path d="M23,27a3,3,0,0,1,6,0v3h2V27a5,5,0,0,0-10,0v3h2Z"></path><path d="M25,27v3h2V27a1,1,0,0,0-2,0Z"></path><path d="M45,30h4V28H45a5,5,0,0,0,0,10h4V36H45a3,3,0,0,1,0-6Z"></path><rect x="13" y="4" width="38" height="4"></rect><path d="M32,32H19V42H33V32Zm-5,5.722V40H25V37.722a2,2,0,1,1,2,0Z"></path><path d="M58,33a1,1,0,0,0-1-1H45a1,1,0,0,0,0,2H57A1,1,0,0,0,58,33Z"></path><path d="M49,10H15V54H49V40H45a7.016,7.016,0,0,1-7-7,7.008,7.008,0,0,1,7-7h4ZM35,42a2,2,0,0,1-2,2H19a2,2,0,0,1-2-2V32a2,2,0,0,1,2-2V27a7,7,0,0,1,14,0v3a2,2,0,0,1,2,2Zm4-18H37V22h2Zm4,0H41V22h2Zm4,0H45V22h2Z"></path><rect x="13" y="56" width="38" height="4"></rect></g></svg>