<svg xmlns="http://www.w3.org/2000/svg" viewBox="0 0 64 64" x="0px" y="0px"><g><path d="M60,4H4v6H60ZM8,8H6V6H8Zm4,0H10V6h2Zm4,0H14V6h2Z"></path><rect x="34" y="54" width="6" height="2"></rect><path d="M42,49a12.964,12.964,0,0,1-10,0v3H42Z"></path><rect x="36" y="58" width="2" height="2"></rect><rect x="4" y="12" width="8" height="40"></rect><path d="M14,12V52H30V47.94a13,13,0,1,1,14,0V52H60V12Zm5.31,13.63,1.74,1-1,1.74-1.74-1ZM22,36v2H20V36Zm-4,2H16V36h2Zm1.31,10.37-1-1.74,1.74-1,1,1.74Zm5.2-3-1.73,1-1-1.74,1.73-1Zm-1-15-1.73-1,1-1.74,1.73,1Zm2.12-11.06,1.74-1,1,1.74-1.74,1Zm3,5.2-1-1.73,1.74-1,1,1.73ZM38,22H36V20h2Zm0-4H36V16h2Zm7.37,6.51-1.74-1,1-1.73,1.74,1Zm2-3.46-1.74-1,1-1.74,1.74,1Zm2.12,7.58,1.73-1,1,1.74-1.73,1ZM54,36v2H52V36ZM51.22,46.37l-1.73-1,1-1.74,1.73,1Zm3.47,2-1.74-1,1-1.74,1.74,1Zm-.74-20-1-1.74,1.74-1,1,1.74ZM58,38H56V36h2Z"></path><path d="M48,37A11,11,0,1,0,36,47.949V40H35a3,3,0,0,1,0-6v2a1,1,0,0,0,0,2h4a1,1,0,0,0,0-2V34a3,3,0,0,1,0,6H38v7.949A11.01,11.01,0,0,0,48,37Z"></path></g></svg>