<svg xmlns="http://www.w3.org/2000/svg" viewBox="0 0 64 64" x="0px" y="0px"><g data-name="Folder-Smartphone-File And Folder-Gallery-Technology"><path d="M25.58,25.19,32.32,30H40V22H37a3.009,3.009,0,0,1-3-3V16H25a1,1,0,0,0-1,1v8h1A1,1,0,0,1,25.58,25.19ZM38,24v2H29V24ZM26,20h6v2H26Z"></path><path d="M34,54H30a1,1,0,0,0,0,2h4a1,1,0,0,0,0-2Z"></path><path d="M37,20h1.59L36,17.41V19A1,1,0,0,0,37,20Z"></path><path d="M22,22H19a1,1,0,0,0-1,1v2h4Z"></path><path d="M50,8a4,4,0,0,0-4-4H18a4,4,0,0,0-4,4V56a4,4,0,0,0,4,4H46a4,4,0,0,0,4-4ZM29,6h6V8H29ZM25,6h2V8H25Zm9,52H30a3,3,0,0,1,0-6h4a3,3,0,0,1,0,6ZM48,43a3.009,3.009,0,0,1-3,3H19a3.009,3.009,0,0,1-3-3V23a3.009,3.009,0,0,1,3-3h3V17a3.009,3.009,0,0,1,3-3H35a1.033,1.033,0,0,1,.71.29l6,6A1.033,1.033,0,0,1,42,21v4h3a3.009,3.009,0,0,1,3,3Z"></path><path d="M45,27H42v3h4V28A1,1,0,0,0,45,27Z"></path><path d="M31.42,31.81,24.68,27H18V43a1,1,0,0,0,1,1H45a1,1,0,0,0,1-1V32H32A1,1,0,0,1,31.42,31.81Z"></path></g></svg>