<svg xmlns="http://www.w3.org/2000/svg" viewBox="0 0 64 64" x="0px" y="0px"><g><polygon points="39 44.556 34.498 45.169 39 45.56 39 44.556"></polygon><polygon points="37.517 47.438 33 47.046 33 47.489 37.517 47.438"></polygon><polygon points="39 29.01 25 26.676 25 28.65 39 30.983 39 29.01"></polygon><polygon points="39 49.422 33 49.489 33 51.078 39 52.221 39 49.422"></polygon><polygon points="39 33.01 25 30.677 25 34 39 34 39 33.01"></polygon><rect x="25" y="36" width="14" height="2"></rect><polygon points="39 40 25 40 25 40.343 39 41.559 39 40"></polygon><polygon points="39 54.258 33 53.114 33 55.177 39 56.38 39 54.258"></polygon><polygon points="25 60 31 60 31 57.633 25 59.238 25 60"></polygon><polygon points="25 57.168 28.313 56.281 25 55.619 25 57.168"></polygon><path d="M41.745,21.039,21.235,23.31a6.248,6.248,0,0,0-.146.686l4.755.793L42.67,22.92A6.991,6.991,0,0,0,41.745,21.039Z"></path><polygon points="31 52.732 25 51.589 25 53.58 31 54.779 31 52.732"></polygon><polygon points="31 46.873 25.501 46.396 25 46.464 25 47.579 31 47.511 31 46.873"></polygon><polygon points="25 42.351 25 44.444 34.385 43.166 25 42.351"></polygon><polygon points="31 49.511 25.13 49.577 31 50.696 31 49.511"></polygon><polygon points="39 58.419 33 57.216 33 60 39 60 39 58.419"></polygon><polygon points="37 12.347 33.904 11.831 30.751 13 37 13 37 12.347"></polygon><polygon points="27 12.258 29.936 11.17 27 10.68 27 12.258"></polygon><rect x="41" y="36" width="2" height="2"></rect><path d="M36.491,15.157l-4.9,2.8c.138.012.27.042.411.042A4.994,4.994,0,0,0,36.491,15.157Z"></path><polygon points="39 25.34 33.088 25.997 39 26.983 39 25.34"></polygon><path d="M43,25c0-.037-.008-.067-.008-.1L41,25.118v2.2l2,.334Z"></path><polygon points="43 29.677 41 29.344 41 31.316 43 31.649 43 29.677"></polygon><polygon points="43 33.677 41 33.344 41 34 43 34 43 33.677"></polygon><path d="M39.944,19.226a6.951,6.951,0,0,0-3.116-1.17,6.966,6.966,0,0,1-9.646.009A6.922,6.922,0,0,0,22.147,21.2Z"></path><rect x="21" y="36" width="2" height="2"></rect><polygon points="23 26.343 20.998 26.009 20.999 27.983 23 28.316 23 26.343"></polygon><polygon points="23 30.344 20.998 30.01 20.999 34 23 34 23 30.344"></polygon><path d="M33.228,4.169a4.828,4.828,0,0,0-4.2.824l1.46.243Z"></path><path d="M35.495,5.433l-1.149.447,1.764.294c-.047-.068-.088-.141-.138-.207a5.183,5.183,0,0,0-.439-.5C35.521,5.455,35.507,5.445,35.495,5.433Z"></path><path d="M29.114,17.069,32.735,15H27.424A5.022,5.022,0,0,0,29.114,17.069Z"></path><path d="M27.077,8.179a4.315,4.315,0,0,0-.045.479L37,10.32V9a4.99,4.99,0,0,0-.045-.657l-9.412-1.57A4.918,4.918,0,0,0,27.077,8.179Z"></path></g></svg>