<svg xmlns="http://www.w3.org/2000/svg" viewBox="0 0 64 64" x="0px" y="0px"><g data-name="Deal-Hand Shake"><path d="M57.163,37.95,44.435,25.222a1.029,1.029,0,0,0-1.414,0l-5.657,5.657a1,1,0,0,0,0,1.414l.707.707-1.909,1.909-1.533.306-2.922-2.922A1,1,0,0,0,31,32H27.172l-1.829-1.829a1,1,0,0,0,0-1.414L19.687,23.1a1,1,0,0,0-1.415,0L6.958,34.414a1,1,0,0,0,0,1.414l5.657,5.657a1,1,0,0,0,1.414,0l6.5,6.494a2.973,2.973,0,0,0,2.543,4.269,2.952,2.952,0,0,0,2.827,2.827,2.957,2.957,0,0,0,2.83,2.83,2.994,2.994,0,0,0,5.1,1.963l1.063,1.062a2.986,2.986,0,0,0,5.1-1.965,2.955,2.955,0,0,0,2.83-2.828,2.955,2.955,0,0,0,2.827-2.829,2.991,2.991,0,0,0,1.966-5.1l-1.058-1.059.708-.707s0-.01.009-.015l2.109-2.108.707.707a1,1,0,0,0,1.414,0l5.657-5.657a1,1,0,0,0,0-1.414ZM38.425,41.839a1,1,0,0,1,0,1.414,1.023,1.023,0,0,1-1.414,0L32.768,39.01a1.029,1.029,0,0,0-1.414,0,3.071,3.071,0,0,1-4.244,0L25.7,40.424a4.971,4.971,0,0,0,1.237.881l-5.125,5.13L18.272,42.9l8.9-8.9h3.414Zm-25.1-2.475L9.079,35.121l9.9-9.9,4.243,4.242Zm10.607-7.779L25.344,33l-8.487,8.485-1.414-1.414ZM31.7,58.74a.993.993,0,0,1-.713-1.688l.013-.01,1.883-1.884.943-.94h0l0,0L32.414,52.8l-.675.675-2.161,2.153-.008.011a1.02,1.02,0,0,1-1.4-.011,1,1,0,0,1,0-1.414L31,51.385l-1.414-1.414L26.758,52.8a1,1,0,0,1-1.415-1.414l2.829-2.829-1.414-1.414-2.829,2.829a1.024,1.024,0,0,1-1.414,0,1,1,0,0,1,0-1.415l2.121-2.121,0,0,4.543-4.553c.017,0,.034.005.051.005a4.963,4.963,0,0,0,2.758-.827L35.6,44.667a3.072,3.072,0,0,0,4.243,0,3,3,0,0,0,0-4.242l-3.51-3.51h0l8.815,8.815-.294.294A2.967,2.967,0,0,0,41.1,48.755a2.959,2.959,0,0,0-2.832,2.855,2.9,2.9,0,0,0-2.824,2.8,2.966,2.966,0,0,0-2.733,3.747l-.3.3A.989.989,0,0,1,31.7,58.74Zm6.018.777a1.021,1.021,0,0,1-1.414,0L34.889,58.1A1,1,0,0,1,36.3,56.688L37.718,58.1A1,1,0,0,1,37.718,59.517Zm2.828-2.829a1,1,0,0,1-1.414,0l-1.414-1.414a1,1,0,0,1,0-1.415,1,1,0,0,1,1.414,0l1.414,1.415a1,1,0,0,1,0,1.414Zm2.828-2.828a1.025,1.025,0,0,1-1.414,0l-1.414-1.415a1,1,0,0,1,1.414-1.414l1.414,1.414A1,1,0,0,1,43.374,53.86ZM46.2,51.031a1,1,0,0,1-1.415,0l-1.414-1.414A1,1,0,0,1,44.789,48.2L46.2,49.617a1,1,0,0,1,0,1.414Zm.354-6.718-8.485-8.485,1.413-1.414L47.971,42.9ZM50.8,42.9,39.485,31.586l4.243-4.243L55.042,38.657Z"></path><path d="M21,13h2V23a1,1,0,0,0,1,1H40a1,1,0,0,0,1-1V13h2a1,1,0,0,0,.633-1.774l-11-9a1,1,0,0,0-1.266,0l-11,9A1,1,0,0,0,21,13Zm10,9V18h2v4Zm8,0H35V17a1,1,0,0,0-1-1H30a1,1,0,0,0-1,1v5H25V13H39ZM32,4.292,40.2,11H23.8Z"></path><polygon points="13 12 15 12 15 10 17 10 17 8 15 8 15 6 13 6 13 8 11 8 11 10 13 10 13 12"></polygon><polygon points="49 20 49 22 51 22 51 24 53 24 53 22 55 22 55 20 53 20 53 18 51 18 51 20 49 20"></polygon><polygon points="45 9 47 9 47 7 49 7 49 5 47 5 47 3 45 3 45 5 43 5 43 7 45 7 45 9"></polygon><polygon points="8 24 8 22 10 22 10 20 8 20 8 18 6 18 6 20 4 20 4 22 6 22 6 24 8 24"></polygon></g></svg>