<svg xmlns="http://www.w3.org/2000/svg" viewBox="0 0 64 64" x="0px" y="0px"><g data-name="Magnifying Glass-Percentage"><rect x="29" y="2" width="2" height="4"></rect><rect x="22.271" y="2.886" width="2" height="4" transform="translate(-0.472 6.189) rotate(-14.998)"></rect><rect x="16" y="5.483" width="2" height="4" transform="translate(-1.464 9.503) rotate(-30.002)"></rect><rect x="10.615" y="9.615" width="2" height="4" transform="translate(-4.811 11.615) rotate(-45)"></rect><rect x="6.483" y="15" width="2" height="4.001" transform="translate(-10.981 14.983) rotate(-60.005)"></rect><rect x="3.886" y="21.271" width="2" height="4" transform="translate(-18.856 21.964) rotate(-74.993)"></rect><rect x="2" y="29" width="4" height="2"></rect><rect x="2.886" y="35.729" width="4" height="2" transform="translate(-9.344 2.518) rotate(-15.007)"></rect><rect x="5.483" y="42" width="4.001" height="2" transform="translate(-20.494 9.5) rotate(-29.995)"></rect><rect x="9.615" y="47.385" width="4" height="2" transform="translate(-30.811 22.385) rotate(-45)"></rect><rect x="15" y="51.516" width="4" height="2" transform="translate(-36.982 40.986) rotate(-60.005)"></rect><rect x="21.27" y="54.114" width="4" height="2" transform="translate(-35.988 63.327) rotate(-75)"></rect><rect x="29" y="54" width="2" height="4"></rect><rect x="35.73" y="53.114" width="2" height="4" transform="translate(-13.012 11.383) rotate(-14.998)"></rect><rect x="54.114" y="34.729" width="2" height="4" transform="translate(5.367 80.454) rotate(-74.993)"></rect><rect x="54" y="29" width="4" height="2"></rect><rect x="53.114" y="22.271" width="4" height="2" transform="translate(-4.146 15.064) rotate(-15.007)"></rect><rect x="50.516" y="16" width="4.001" height="2" transform="translate(-1.465 28.531) rotate(-29.995)"></rect><rect x="46.385" y="10.615" width="4" height="2" transform="translate(5.958 37.615) rotate(-45)"></rect><rect x="41" y="6.483" width="4" height="2" transform="translate(15.022 40.983) rotate(-60.005)"></rect><rect x="34.729" y="3.886" width="4" height="2" transform="translate(22.504 39.099) rotate(-75)"></rect><circle cx="25" cy="25" r="1"></circle><path d="M59.483,55.247,47.525,43.28a22.2,22.2,0,0,1-4.245,4.245L55.247,59.482a3.067,3.067,0,0,0,4.236,0A3,3,0,0,0,59.483,55.247Z"></path><circle cx="35" cy="35" r="1"></circle><path d="M30,46A16,16,0,1,0,14,30,16.019,16.019,0,0,0,30,46Zm8-11a3,3,0,1,1-3-3A3,3,0,0,1,38,35ZM35.293,23.293l1.414,1.414-12,12-1.414-1.414ZM25,22a3,3,0,1,1-3,3A3,3,0,0,1,25,22Z"></path><path d="M30,50A20,20,0,1,0,10,30,20.023,20.023,0,0,0,30,50Zm0-38A18,18,0,1,1,12,30,18.021,18.021,0,0,1,30,12Z"></path></g></svg>