<svg xmlns="http://www.w3.org/2000/svg" viewBox="0 0 64 64" x="0px" y="0px"><g><path d="M22.17,48H34V46H25A3.014,3.014,0,0,0,22.17,48Z"></path><rect x="36" y="30" width="2" height="18"></rect><path d="M46.023,18h7.954a20.557,20.557,0,0,0-.453-3.522,12.156,12.156,0,0,1-7.048,0A20.557,20.557,0,0,0,46.023,18Z"></path><path d="M52.981,12.549C52.193,10.351,51.061,9,50,9s-2.193,1.351-2.981,3.549A10.221,10.221,0,0,0,52.981,12.549Z"></path><path d="M34,26H25a3.009,3.009,0,0,0-3,3V45.03A4.924,4.924,0,0,1,25,44h9ZM32,42H24V40h8Zm0-4H24V36h8Zm0-4H24V32h8Zm0-4H24V28h8Z"></path><rect x="4" y="30" width="2" height="18"></rect><path d="M20,29a3.009,3.009,0,0,0-3-3H8V44h9a4.924,4.924,0,0,1,3,1.03ZM18,42H10V40h8Zm0-4H10V36h8Zm0-4H10V32h8Zm0-4H10V28h8Z"></path><path d="M31,54H27a1,1,0,0,0,0,2h4a1,1,0,0,0,0-2Z"></path><path d="M17,46H8v2H19.83A3.014,3.014,0,0,0,17,46Z"></path><path d="M55.976,20a22.638,22.638,0,0,1-.557,4.293,11.891,11.891,0,0,1,2.059,1.323A9.946,9.946,0,0,0,59.949,20Z"></path><path d="M57.478,12.384a11.811,11.811,0,0,1-2.059,1.323A22.638,22.638,0,0,1,55.976,18h3.973A9.946,9.946,0,0,0,57.478,12.384Z"></path><path d="M47.019,25.451C47.807,27.649,48.939,29,50,29s2.193-1.351,2.981-3.549A10.221,10.221,0,0,0,47.019,25.451Z"></path><path d="M53.938,9.811a11.953,11.953,0,0,1,.9,1.941,9.976,9.976,0,0,0,1.145-.745A10,10,0,0,0,53.938,9.811Z"></path><path d="M45.161,26.248a9.976,9.976,0,0,0-1.145.745,10,10,0,0,0,2.046,1.2A11.953,11.953,0,0,1,45.161,26.248Z"></path><path d="M53.524,23.523A20.556,20.556,0,0,0,53.977,20H46.023a20.556,20.556,0,0,0,.453,3.523A12.232,12.232,0,0,1,53.524,23.523Z"></path><path d="M45.161,11.752a11.913,11.913,0,0,1,.9-1.941,10,10,0,0,0-2.046,1.2A10.023,10.023,0,0,0,45.161,11.752Z"></path><path d="M55.984,26.993a10.023,10.023,0,0,0-1.145-.745,11.913,11.913,0,0,1-.9,1.941A10,10,0,0,0,55.984,26.993Z"></path><path d="M40.051,18h3.973a22.638,22.638,0,0,1,.557-4.293,11.891,11.891,0,0,1-2.059-1.323A9.946,9.946,0,0,0,40.051,18Z"></path><path d="M42.522,25.616a11.811,11.811,0,0,1,2.059-1.323A22.638,22.638,0,0,1,44.024,20H40.051A9.946,9.946,0,0,0,42.522,25.616Z"></path><path d="M38,19A12,12,0,0,1,45.98,7.69,3.979,3.979,0,0,0,42,4H17a5,5,0,0,0-5,5V24h5a4.994,4.994,0,0,1,4,2.03A4.994,4.994,0,0,1,25,24H35a1,1,0,0,1,1,1v3h3a1,1,0,0,1,1,1V49a1,1,0,0,1-1,1H12v5a5,5,0,0,0,5,5H41a5,5,0,0,0,5-5V30.31A11.985,11.985,0,0,1,38,19ZM24,6H34V8H24ZM20,6h2V8H20ZM18,8H16V6h2ZM35,20H19V18H35Zm0-4H19V14H35ZM31,58H27a3,3,0,0,1,0-6h4a3,3,0,0,1,0,6ZM44,48H42V46h2Zm0-4H42V42h2Zm0-4H42V32h2Z"></path></g></svg>