<svg xmlns="http://www.w3.org/2000/svg" viewBox="0 0 64 64" x="0px" y="0px"><g data-name="Concept Website"><path d="M48,50H34a1,1,0,0,0,0,2H48a1,1,0,0,0,0-2Z"></path><path d="M54,5a1,1,0,0,0-1-1H5A1,1,0,0,0,4,5v5H54ZM10,8H8V6h2Zm4,0H12V6h2Zm4,0H16V6h2ZM46,8H24V6H46Z"></path><path d="M48,55a1,1,0,0,0-1-1H35a1,1,0,0,0,0,2H47A1,1,0,0,0,48,55Z"></path><path d="M54,37A13,13,0,1,0,34.1,48H40V39H37a3,3,0,1,1,3-3H38a1,1,0,1,0-1,1h8a1,1,0,1,0-1-1H42a3,3,0,1,1,3,3H42v9h5.905A12.906,12.906,0,0,0,54,37Z"></path><path d="M39,60h4a3,3,0,0,0,2.816-2H36.184A3,3,0,0,0,39,60Z"></path><path d="M52.314,49.728l1.414-1.414.272.272V44.459A14.909,14.909,0,0,1,50.133,48.9a2.986,2.986,0,0,1-.534,4.634,3.282,3.282,0,0,1,.214.471H53a1,1,0,0,0,1-1V51.414Z"></path><path d="M32.4,53.529a2.986,2.986,0,0,1-.534-4.634A14.993,14.993,0,1,1,54,29.549V25.414l-.272.272-1.414-1.414L54,22.586V12H4V53a1,1,0,0,0,1,1H32.187A3.4,3.4,0,0,1,32.4,53.529ZM40,16h2v4H40ZM26.858,21.444l2.828,2.828-1.414,1.414-2.828-2.828ZM20,16h2v2H20Zm-4,0h2v2H16Zm-4,0h2v2H12ZM8,16h2v2H8Zm0,4H22v2H8Zm0,4H22v2H8Zm0,4H22v2H8ZM24,38H20V36h4Zm2.858,14.556-1.414-1.414,2.828-2.828,1.414,1.414Z"></path><polygon points="56.56 22.86 54 25.42 54 22.58 55.14 21.44 56.56 22.86"></polygon><rect x="58" y="36" width="4" height="2"></rect><polygon points="56.56 51.14 55.14 52.56 54 51.42 54 48.58 56.56 51.14"></polygon></g></svg>