<svg xmlns="http://www.w3.org/2000/svg" viewBox="0 0 64 64" x="0px" y="0px"><g data-name="Trash Can-Trash-Garbage-Bin-Recycle"><path d="M54,8V7a5,5,0,0,0-5-5H15a5,5,0,0,0-5,5V8a3,3,0,0,0,0,6h1.04l1.88,45.12a3,3,0,0,0,3,2.88H48.08a2.992,2.992,0,0,0,3-2.88L52.96,14H54a3,3,0,0,0,0-6ZM12,7a3.009,3.009,0,0,1,3-3H49a3.009,3.009,0,0,1,3,3V8H12ZM39,60H25V56H39Zm0-6H25V52H39Zm0-4H25V49a3.009,3.009,0,0,1,3-3h8a3.009,3.009,0,0,1,3,3Zm10.08,9.04a1,1,0,0,1-1,.96H41V49a5,5,0,0,0-5-5H28a5,5,0,0,0-5,5V60H15.92a1,1,0,0,1-1-.96L13.04,14H50.96ZM54,12H10a1,1,0,0,1,0-2H54a1,1,0,0,1,0,2Z"></path><path d="M32,21.06l2.98,5.364L33.4,26l-.518,1.932,3.863,1.035A1.015,1.015,0,0,0,37,29a1,1,0,0,0,.965-.741L39,24.4l-1.932-.518-.4,1.476-3.8-6.839a1.04,1.04,0,0,0-1.748,0l-3.334,6,1.749.97Z"></path><path d="M40.3,36H34.414l1.293-1.293-1.414-1.414-3,3a1,1,0,0,0,0,1.414l3,3,1.414-1.414L34.414,38H42a1,1,0,0,0,.874-1.485l-3.333-6-1.748.97Z"></path><path d="M22,38h7V36H23.7l2.974-5.354.395,1.476L29,31.6l-1.035-3.863a1,1,0,0,0-1.225-.707l-3.864,1.035L23.4,30l1.586-.425-3.855,6.939A1,1,0,0,0,22,38Z"></path></g></svg>