<svg xmlns="http://www.w3.org/2000/svg" viewBox="0 0 64 64" x="0px" y="0px"><g data-name="Perfume-Bottle"><polygon points="47.382 60 51.382 52 12.618 52 16.618 60 47.382 60"></polygon><polygon points="47.049 28 16.951 28 12.237 50 51.763 50 47.049 28"></polygon><polygon points="46.107 23.607 37.697 18 26.303 18 17.893 23.607 17.38 26 46.62 26 46.107 23.607"></polygon><rect x="27" y="12" width="10" height="4"></rect><polygon points="25 4 25 8.586 26.414 10 37.553 10 39 8.58 39 4 37 4 37 7 35 7 35 4 33 4 33 7 31 7 31 4 29 4 29 7 27 7 27 4 25 4"></polygon></g></svg>