<svg xmlns="http://www.w3.org/2000/svg" viewBox="0 0 64 64" x="0px" y="0px"><g data-name="coffee cup-coffee mug-espresso-drink-coffee"><path d="M22,18h2a2.258,2.258,0,0,1,.759-1.681,4.207,4.207,0,0,0,0-5.967,2.248,2.248,0,0,1,0-3.368A4.163,4.163,0,0,0,26,4H24a2.267,2.267,0,0,1-.759,1.684,4.208,4.208,0,0,0,0,5.968,2.244,2.244,0,0,1,0,3.365A4.162,4.162,0,0,0,22,18Z"></path><path d="M30,18h2a2.258,2.258,0,0,1,.759-1.681,4.207,4.207,0,0,0,0-5.967,2.248,2.248,0,0,1,0-3.368A4.163,4.163,0,0,0,34,4H32a2.267,2.267,0,0,1-.759,1.684,4.208,4.208,0,0,0,0,5.968,2.244,2.244,0,0,1,0,3.365A4.162,4.162,0,0,0,30,18Z"></path><path d="M4,55a3.009,3.009,0,0,0,3,3H48a3.009,3.009,0,0,0,3-3V54H4Z"></path><path d="M56.41,25.856A4.95,4.95,0,0,0,52.53,24H7V37a20.8,20.8,0,0,0,6.32,15H42.68a20.882,20.882,0,0,0,5.1-8h.986a7.041,7.041,0,0,0,6.842-5.529l1.8-8.42A4.964,4.964,0,0,0,56.41,25.856Zm-.952,3.773-1.8,8.423A5.034,5.034,0,0,1,48.77,42h-.39A21.119,21.119,0,0,0,49,37V26h3.53a2.995,2.995,0,0,1,2.928,3.629Z"></path></g></svg>