<svg xmlns="http://www.w3.org/2000/svg" viewBox="0 0 64 64" x="0px" y="0px"><g data-name="Money Bag-Computer"><polygon points="32.5 11 34 9 30 9 31.5 11 32.5 11"></polygon><path d="M43,33a1,1,0,0,1-1-1V25a8.009,8.009,0,0,0-8-8H30a8.009,8.009,0,0,0-8,8v7a1,1,0,0,1-1,1,1,1,0,0,0,0,2H43a1,1,0,0,0,0-2ZM26,27H24V25h2Zm5-2h2a3,3,0,0,1,0,6v1H31V31a3,3,0,0,1-3-3h2a1,1,0,0,0,1,1h2a1,1,0,0,0,0-2H31a3,3,0,0,1,0-6V20h2v1a3,3,0,0,1,3,3H34a1,1,0,0,0-1-1H31a1,1,0,0,0,0,2Zm9,2H38V25h2Z"></path><path d="M60,42H4v3a3,3,0,0,0,3,3H57a3,3,0,0,0,3-3Zm-4,4H54V44h2Z"></path><path d="M60,7a3,3,0,0,0-3-3H7A3,3,0,0,0,4,7V40H60ZM10.447,30.9l-.894-1.79,6-3,.894,1.79ZM10,23V21h6v2ZM15.553,17.9l-6-3,.894-1.79,6,3ZM43,37H21a3,3,0,0,1-1-5.829V25a10.011,10.011,0,0,1,8.236-9.835,2.991,2.991,0,0,1,1.131-3.676L27.2,8.6A1,1,0,0,1,28,7h8a1,1,0,0,1,.8,1.6l-2.167,2.889a2.991,2.991,0,0,1,1.131,3.676A10.011,10.011,0,0,1,44,25v6.171A3,3,0,0,1,43,37Zm10.553-6.1-6-3,.894-1.79,6,3ZM48,23V21h6v2Zm.447-5.105-.894-1.79,6-3,.894,1.79Z"></path><path d="M31,15h2a1,1,0,0,0,0-2H31a1,1,0,0,0,0,2Z"></path><path d="M20,59a1,1,0,0,0,1,1H43a1,1,0,0,0,0-2H21A1,1,0,0,0,20,59Z"></path><polygon points="25.883 50 25.133 56 38.867 56 38.117 50 25.883 50"></polygon></g></svg>