<svg xmlns="http://www.w3.org/2000/svg" viewBox="0 0 48 48" x="0px" y="0px"><title>Research_1</title><g data-name="Research"><path d="M44.1,1H31V3H44.1a.9.9,0,0,1,.9.9V32.1a.9.9,0,0,1-.9.9H3.9a.9.9,0,0,1-.9-.9V3.9A.9.9,0,0,1,3.9,3H17V1H3.9A2.9,2.9,0,0,0,1,3.9V32.1A2.9,2.9,0,0,0,3.9,35H17v6H16a1,1,0,0,0-1,1v3H12v2H36V45H33V42a1,1,0,0,0-1-1H31V35H44.1A2.9,2.9,0,0,0,47,32.1V3.9A2.9,2.9,0,0,0,44.1,1ZM17,45V43H31v2Zm12-4H19V35H29Z"></path><rect x="29" y="26" width="15" height="2"></rect><rect x="4" y="26" width="15" height="2"></rect><path d="M43,24V5a1,1,0,0,0-1-1H33V6h8V24Z"></path><path d="M15,6V4H6A1,1,0,0,0,5,5V24H7V6Z"></path><path d="M23,16.931v2.253A3,3,0,0,0,21,22v6a3,3,0,0,0,6,0V22a3,3,0,0,0-2-2.816V16.931a8,8,0,1,0-2,0ZM25,28a1,1,0,0,1-2,0V22a1,1,0,0,1,2,0ZM24,3a6,6,0,1,1-6,6A6.006,6.006,0,0,1,24,3Z"></path><path d="M24,7V5a4,4,0,0,0-4,4h2A2,2,0,0,1,24,7Z"></path></g></svg>