<svg xmlns="http://www.w3.org/2000/svg" viewBox="0 0 64 64" x="0px" y="0px"><g><path d="M17,44H7a1,1,0,0,0-1,1v4a1,1,0,0,0,1,1H17a1,1,0,0,0,1-1V45A1,1,0,0,0,17,44Zm-1,4H8V46h8Z"></path><path d="M17,36H7a1,1,0,0,0-1,1v4a1,1,0,0,0,1,1H17a1,1,0,0,0,1-1V37A1,1,0,0,0,17,36Zm-1,4H8V38h8Z"></path><path d="M17,28H7a1,1,0,0,0-1,1v4a1,1,0,0,0,1,1H17a1,1,0,0,0,1-1V29A1,1,0,0,0,17,28Zm-1,4H8V30h8Z"></path><path d="M17,20H7a1,1,0,0,0-1,1v4a1,1,0,0,0,1,1H17a1,1,0,0,0,1-1V21A1,1,0,0,0,17,20Zm-1,4H8V22h8Z"></path><path d="M17,12H7a1,1,0,0,0-1,1v4a1,1,0,0,0,1,1H17a1,1,0,0,0,1-1V13A1,1,0,0,0,17,12Zm-1,4H8V14h8Z"></path><path d="M61,8H59.845C59.185,5.891,56.466,4.3,53,4.041V2H51V4.041C47.534,4.3,44.815,5.891,44.155,8H43a1,1,0,0,0-1,1V28H38V26h1a1,1,0,0,0,1-1V21a1,1,0,0,0-1-1H25a1,1,0,0,0-1,1v4a1,1,0,0,0,1,1h1v2H22V9a1,1,0,0,0-1-1H19.845C19.185,5.891,16.466,4.3,13,4.041V2H11V4.041C7.534,4.3,4.815,5.891,4.155,8H3A1,1,0,0,0,2,9V61a1,1,0,0,0,1,1H61a1,1,0,0,0,1-1V9A1,1,0,0,0,61,8ZM52,6c2.709,0,4.783.928,5.608,2H46.392C47.217,6.928,49.291,6,52,6ZM42,48H39V46h3ZM29,30v2H27V30Zm8,0v2H35V30ZM22,38h3v2H22Zm11,0v2H31V38Zm-2-2V34h2v2Zm-2,4H27V38h2Zm-7,2h3v2H22Zm5,0h2v2H27Zm4,0h2v2H31Zm4,0h2v2H35Zm0-2V38h2v2Zm0-4V34h2v2Zm-2-4H31V30h2Zm-4,2v2H27V34Zm-4,2H22V34h3ZM22,46h3v2H22Zm5,0h2v2H27Zm4,0h2v2H31Zm4,0h2v2H35Zm7-2H39V42h3Zm0-4H39V38h3Zm0-4H39V34h3Zm0-4H39V30h3ZM26,22H38v2H26Zm2,4h8v2H28Zm-3,4v2H22V30ZM12,6c2.709,0,4.783.928,5.608,2H6.392C7.217,6.928,9.291,6,12,6ZM4,10H20V60H4ZM22,50H42V60H38V55h2V53H24v2h2v5H22Zm6,10V55h8v5Zm32,0H44V10H60Z"></path><path d="M47,50H57a1,1,0,0,0,1-1V45a1,1,0,0,0-1-1H47a1,1,0,0,0-1,1v4A1,1,0,0,0,47,50Zm1-4h8v2H48Z"></path><path d="M47,42H57a1,1,0,0,0,1-1V37a1,1,0,0,0-1-1H47a1,1,0,0,0-1,1v4A1,1,0,0,0,47,42Zm1-4h8v2H48Z"></path><path d="M47,34H57a1,1,0,0,0,1-1V29a1,1,0,0,0-1-1H47a1,1,0,0,0-1,1v4A1,1,0,0,0,47,34Zm1-4h8v2H48Z"></path><path d="M47,26H57a1,1,0,0,0,1-1V21a1,1,0,0,0-1-1H47a1,1,0,0,0-1,1v4A1,1,0,0,0,47,26Zm1-4h8v2H48Z"></path><path d="M47,18H57a1,1,0,0,0,1-1V13a1,1,0,0,0-1-1H47a1,1,0,0,0-1,1v4A1,1,0,0,0,47,18Zm1-4h8v2H48Z"></path></g></svg>