<svg xmlns="http://www.w3.org/2000/svg" viewBox="0 0 64 64" x="0px" y="0px"><g data-name="Mobile Phone-Conversation-Communications-Retro-Telephone"><path d="M40,22.45l-3.62,1.48A1.217,1.217,0,0,1,36,24H28a1.217,1.217,0,0,1-.38-.07L24,22.45V54.59l2.29-2.3A1.033,1.033,0,0,1,27,52H37a1.033,1.033,0,0,1,.71.29L40,54.59ZM29,48H27V46h2Zm0-4H27V42h2Zm0-4H27V38h2Zm0-6H27V32h2Zm0-4H27V28h2Zm4,18H31V46h2Zm0-4H31V42h2Zm0-4H31V38h2Zm0-6H31V32h2Zm0-4H31V28h2Zm4,18H35V46h2Zm0-4H35V42h2Zm0-4H35V38h2Zm0-6H35V32h2Zm0-4H35V28h2Z"></path><path d="M27.41,54,24,57.41V60H40V57.41L36.59,54ZM35,58H29V56h6Z"></path><path d="M40,16H24v4.3L28.2,22h7.6L40,20.3Zm-6,4H30V18h4Z"></path><rect x="31" y="4" width="2" height="6"></rect><rect x="30" y="12" width="4" height="2"></rect><path d="M42,10v2a2,2,0,0,1,2,2h2A4,4,0,0,0,42,10Z"></path><path d="M42,6V8a6.006,6.006,0,0,1,6,6h2A8.009,8.009,0,0,0,42,6Z"></path><path d="M42,2V4A10.011,10.011,0,0,1,52,14h2A12.013,12.013,0,0,0,42,2Z"></path></g></svg>