<svg xmlns="http://www.w3.org/2000/svg" viewBox="0 0 64 64" x="0px" y="0px"><title>Smartphone-File-Archive-Document</title><g><path d="M44.665,27.046l4.474.269,1.382-2.395-4.464-.268C45.6,25.4,45.142,26.205,44.665,27.046Z"></path><rect x="21" y="4" width="14" height="2"></rect><path d="M52.8,20.972a4.134,4.134,0,0,0-2.767-.375,5.464,5.464,0,0,0-2.675,2.13l4.28.257Z"></path><path d="M45,37.957a.976.976,0,0,1-.3.053l-.059,0-6.08-.365L32.866,47.5l-1.732-1,5.691-9.857-3.356-5.082a1,1,0,0,1-.032-1.051l3.5-6.063a12.917,12.917,0,0,1,7.894-6.056c.056-.015.113-.023.169-.037V7a3,3,0,0,0-3-3H37V6a2,2,0,0,1-2,2H21a2,2,0,0,1-2-2V4H14a3,3,0,0,0-3,3V57a3,3,0,0,0,3,3H42a3,3,0,0,0,3-3ZM38,20H34V18h4ZM28,14H38v2H28Zm0,4h4v2H28Zm0,4h6v2H28ZM15,15a1,1,0,0,1,1-1h8a1,1,0,0,1,1,1v8a1,1,0,0,1-1,1H16a1,1,0,0,1-1-1Zm0,16h4v2H15Zm0,9h6v2H15Zm8,7H15V45h8Zm6,0H25V45h4Zm-6-5V40h2v2Zm8,0H27V40h4Zm0-5H15V35H31Zm0-4H21V31H31Z"></path><rect x="17" y="16" width="6" height="6"></rect><path d="M41.825,27.983l-2.409-3.649a10.9,10.9,0,0,0-.746,1.113l-.691,1.2,2.464,3.732Z"></path><path d="M44.325,23.651l-1.508-2.289A10.835,10.835,0,0,0,40.8,22.8l2.135,3.234C43.409,25.207,43.866,24.405,44.325,23.651Z"></path><polygon points="41.057 33.312 39.675 35.707 44.14 35.975 45.522 33.581 41.057 33.312"></polygon><path d="M44.67,20.54l.859,1.3a11.434,11.434,0,0,1,1.651-1.85,11.159,11.159,0,0,0-1.83.328C45.118,20.384,44.9,20.464,44.67,20.54Z"></path><polygon points="48.021 29.251 43.557 28.982 42.175 31.376 46.639 31.645 48.021 29.251"></polygon><polygon points="35.479 30.975 37.943 34.707 39.325 32.313 36.861 28.581 35.479 30.975"></polygon></g></svg>