<svg xmlns="http://www.w3.org/2000/svg" viewBox="0 0 64 64" x="0px" y="0px"><g><path d="M54,50H16V40H14V50H13a4.964,4.964,0,0,0-.927.094c-.1.018-.187.047-.281.07a5.008,5.008,0,0,0-.6.186c-.1.039-.2.082-.3.128a4.947,4.947,0,0,0-.522.283c-.087.054-.174.1-.257.164-.039.028-.084.049-.122.077V39H8V57a5.006,5.006,0,0,0,5,5H56V60H55V52a1,1,0,0,0,1-1V40H54ZM13,60a3,3,0,0,1-3-3V55a3,3,0,0,1,3-3H53v8Z"></path><path d="M10,7a3,3,0,0,1,3-3h1V26h2V4H54V22h2V3a1,1,0,0,0-1-1H13A5.006,5.006,0,0,0,8,7V27h2Z"></path><rect x="12" y="55" width="39" height="2"></rect><path d="M57,28H54V25a1,1,0,0,0-1-1H41v2H52v2H12a2,2,0,0,0-2,2H7a1,1,0,0,0-1,1v1H2v2H6v1a1,1,0,0,0,1,1h3a2,2,0,0,0,2,2H57a5,5,0,0,0,0-10ZM8,34V32h2v2Zm4,1V30H48v6H12Zm45,1H50V30h7a3,3,0,0,1,0,6Z"></path><path d="M19,8a1,1,0,0,0-1,1V19a1,1,0,0,0,1,1H51a1,1,0,0,0,1-1V9a1,1,0,0,0-1-1ZM50,18H20V10H50Z"></path></g></svg>