<svg xmlns="http://www.w3.org/2000/svg" viewBox="0 0 64 64" x="0px" y="0px"><g data-name="Error"><path d="M51,2H13a3,3,0,0,0-3,3V59a3,3,0,0,0,3,3H51a3,3,0,0,0,3-3V5A3,3,0,0,0,51,2ZM42,4h4v6L44.8,8.4a1.036,1.036,0,0,0-1.6,0L42,10ZM13,4H40v9a1,1,0,0,0,1.8.6L44,10.667,46.2,13.6a1,1,0,0,0,.8.4,1.019,1.019,0,0,0,.316-.051A1,1,0,0,0,48,13V4h3a1,1,0,0,1,1,1V31H49.618L47.9,27.553c-.012-.024-.031-.041-.044-.064l.006,0-2.6-4.33,1.448-1.448-1.414-1.414L43.586,22H41v2h2.434l2.472,4.12L44.279,33H42a1,1,0,0,0-.707.293L40.155,34.43l-3.323-4.985a1,1,0,0,0-.8-.445.979.979,0,0,0-.827.4l-5.152,6.869-2.865-4.3,2.674-4.457a1,1,0,0,0-.15-1.222L28.414,25l4.293-4.293-1.414-1.414L27,23.586l-1.293-1.293-1.414,1.414,3.448,3.448L25.434,31h-3.02l-2.707-2.707A1,1,0,0,0,18.4,28.2L14.667,31H12V5A1,1,0,0,1,13,4ZM51,60H13a1,1,0,0,1-1-1V33h3a1,1,0,0,0,.6-.2l3.306-2.48,2.387,2.387A1,1,0,0,0,22,33h3.465l3.248,4.873L25.586,41H22v2h4a1,1,0,0,0,.707-.293l4-4-.016-.016c.034-.034.08-.052.109-.091l5.152-6.869,3.216,4.824a.957.957,0,0,0,.142.135l-.017.017L42.586,40l-2.293,2.293,1.414,1.414,3-3a1,1,0,0,0,0-1.414L41.414,36l1-1H45a1,1,0,0,0,.948-.684l1.238-3.71.919,1.841A1,1,0,0,0,49,33h3V59A1,1,0,0,1,51,60Z"></path><rect x="22" y="19.586" width="2" height="2.828" transform="translate(-8.113 22.414) rotate(-45)"></rect><rect x="37.586" y="44" width="2.828" height="2" transform="translate(-20.397 40.757) rotate(-45)"></rect><rect x="18" y="41" width="2" height="2"></rect><rect x="37" y="22" width="2" height="2"></rect><rect x="16" y="8" width="4" height="2"></rect><rect x="22" y="8" width="8" height="2"></rect><rect x="16" y="12" width="14" height="2"></rect><rect x="16" y="50" width="4" height="2"></rect><rect x="22" y="50" width="8" height="2"></rect><rect x="32" y="50" width="16" height="2"></rect><rect x="16" y="54" width="12" height="2"></rect><rect x="30" y="54" width="10" height="2"></rect><rect x="42" y="54" width="6" height="2"></rect></g></svg>