<svg xmlns="http://www.w3.org/2000/svg" viewBox="0 0 64 64" x="0px" y="0px"><g data-name="Whiskey-Bottle"><path d="M38,18.854v-3A3.992,3.992,0,0,0,37,8V3a1,1,0,0,0-1-1H28a1,1,0,0,0-1,1V8a3.992,3.992,0,0,0-1,7.858v3a21.973,21.973,0,0,0-7,38.88V60a2,2,0,0,0,2,2H43a2,2,0,0,0,2-2V57.734a21.973,21.973,0,0,0-7-38.88ZM29,4h6V8H29Zm-4,8a2,2,0,0,1,2-2H37a2,2,0,0,1,0,4H27A2,2,0,0,1,25,12ZM43.428,56.4a1,1,0,0,0-.428.82V60H21V57.22a1,1,0,0,0-.428-.82,19.975,19.975,0,0,1,6.665-35.8A1,1,0,0,0,28,19.624V16h8v3.624a1,1,0,0,0,.763.971A19.975,19.975,0,0,1,43.428,56.4Z"></path><path d="M32,32c-6.729,0-12,3.514-12,8s5.271,8,12,8,12-3.514,12-8S38.729,32,32,32Zm0,14c-5.421,0-10-2.748-10-6s4.579-6,10-6,10,2.748,10,6S37.421,46,32,46Z"></path></g></svg>