<svg xmlns="http://www.w3.org/2000/svg" viewBox="0 0 64 64" x="0px" y="0px"><g><path d="M60,11.96H4V57a3,3,0,0,0,3,3H57a3,3,0,0,0,3-3ZM42,18h2v2H42Zm0,31h2v2H42ZM8,31A15,15,0,1,1,23,46,15.017,15.017,0,0,1,8,31ZM40,51H35a1,1,0,0,1-.707-.293l-4-4,1.414-1.414L35.414,49H40Zm16,5H42V54H56Zm0-5H46V49H56Zm0-16H42V33H56Zm0-5H42V28H56Zm0-5H42V23H56Zm0-5H46V18H56Z"></path><path d="M23,18A13,13,0,1,0,36,31,13.015,13.015,0,0,0,23,18Zm0,24A11,11,0,1,1,34,31,11.013,11.013,0,0,1,23,42Z"></path><path d="M30,30h1.941a8.956,8.956,0,0,0-1.916-4.611l-1.368,1.368-1.414-1.414,1.368-1.368A8.956,8.956,0,0,0,24,22.059V24H22V22.059a8.956,8.956,0,0,0-4.611,1.916l1.368,1.368-1.414,1.414-1.368-1.368A8.956,8.956,0,0,0,14.059,30H16v2H14.059a8.956,8.956,0,0,0,1.916,4.611l1.368-1.368,1.414,1.414-1.368,1.368A8.956,8.956,0,0,0,22,39.941V38h2v1.941a8.956,8.956,0,0,0,4.611-1.916l-1.368-1.368,1.414-1.414,1.368,1.368A8.956,8.956,0,0,0,31.941,32H30Zm-6,1a1,1,0,0,1-.293.707l-2,2-1.414-1.414L22,30.586V26h2Z"></path><path d="M60,7a3,3,0,0,0-3-3H7A3,3,0,0,0,4,7V9.96H60ZM10,8H8V6h2Zm4,0H12V6h2Zm4,0H16V6h2Z"></path></g></svg>