<svg xmlns="http://www.w3.org/2000/svg" viewBox="0 0 64 64" x="0px" y="0px"><g data-name="Smart Home-Smartphone"><path d="M19,7H31a1,1,0,0,0,1-1V4H18V6A1,1,0,0,0,19,7Z"></path><rect x="36" y="39" width="4" height="6"></rect><path d="M56,36A18,18,0,1,0,38,54,18.021,18.021,0,0,0,56,36Zm-6.707,1.707L46,34.414V46a1,1,0,0,1-1,1H31a1,1,0,0,1-1-1V34.414l-3.293,3.293-1.414-1.414,12-12a1,1,0,0,1,1.414,0l12,12Z"></path><path d="M42,55.6A20,20,0,1,1,42,16.4V7a3,3,0,0,0-3-3H34V6a3,3,0,0,1-3,3H19a3,3,0,0,1-3-3V4H11A3,3,0,0,0,8,7V57a3,3,0,0,0,3,3H39a3,3,0,0,0,3-3ZM30,11h2v2H30Zm-4,0h2v2H26Zm-4,0h2v2H22Zm1.34,5.972L24.625,18.5,23.092,19.79l-1.285-1.533Zm-1.55,4.121-1.285,1.532-1.532-1.286,1.285-1.532ZM18,11h2v2H18Zm-.284,12.134,1.731,1-1,1.732-1.731-1Zm-1.927,3.718,1.88.684-.684,1.88-1.88-.685Zm-1.251,4,1.97.347-.348,1.97-1.97-.348ZM14,35h2v2H14Zm.19,4.183,1.97-.348.348,1.97-1.97.347Zm.915,4.086,1.88-.685.684,1.88-1.88.684Zm1.611,3.865,1.731-1,1,1.732-1.731,1Zm3.542,5.059-1.285-1.532,1.532-1.286,1.285,1.532Zm3.082,2.835-1.533-1.285,1.285-1.533L24.625,53.5Zm3.526,2.257-1.732-1,1-1.732,1.732,1Z"></path><path d="M32,32.414V45h2V38a1,1,0,0,1,1-1h6a1,1,0,0,1,1,1v7h2V32.414l-6-6Z"></path><rect x="54.619" y="20.216" width="2" height="2" transform="translate(-0.629 40.703) rotate(-39.988)"></rect><rect x="56.919" y="23.5" width="2" height="2" transform="translate(-4.49 32.244) rotate(-30.002)"></rect><rect x="58.613" y="27.134" width="2" height="1.999" transform="translate(-6.028 22.092) rotate(-20.006)"></rect><rect x="59.65" y="31.006" width="2" height="2" transform="translate(-4.635 11.013) rotate(-9.996)"></rect><rect x="60" y="35" width="2" height="2"></rect><rect x="59.65" y="38.994" width="2" height="2" transform="translate(10.736 92.782) rotate(-80.004)"></rect><rect x="58.613" y="42.867" width="1.999" height="2" transform="translate(-1.997 84.88) rotate(-69.999)"></rect><rect x="56.919" y="46.5" width="2" height="2" transform="translate(-12.178 73.907) rotate(-59.998)"></rect><rect x="54.619" y="49.784" width="2" height="2" transform="matrix(0.643, -0.766, 0.766, 0.643, -19.035, 60.749)"></rect><polygon points="53 10 55 10 55 8 57 8 57 6 55 6 55 4 53 4 53 6 51 6 51 8 53 8 53 10"></polygon><rect x="46" y="12" width="6" height="2"></rect><rect x="51" y="16" width="6" height="2"></rect><polygon points="52 54 50 54 50 56 48 56 48 58 50 58 50 60 52 60 52 58 54 58 54 56 52 56 52 54"></polygon></g></svg>