<svg xmlns="http://www.w3.org/2000/svg" viewBox="0 0 64 64" x="0px" y="0px"><title>Letter_1</title><g><path d="M61.974,30.8c0-.014,0-.027,0-.04l0-.007a.959.959,0,0,0-.119-.277c-.015-.024-.034-.045-.051-.068a.9.9,0,0,0-.145-.158.773.773,0,0,0-.077-.062c-.02-.014-.035-.033-.056-.045a1,1,0,0,0-.134-.06.743.743,0,0,0-.077-.033A.994.994,0,0,0,61.014,30L61,30H53V14a1,1,0,0,0-.26-.673l-10-11A1,1,0,0,0,42,2H12a1,1,0,0,0-1,1V30H3l-.014,0a1.007,1.007,0,0,0-.3.051c-.025.008-.048.022-.072.032a.925.925,0,0,0-.137.061c-.021.012-.036.031-.056.045a.773.773,0,0,0-.077.062.941.941,0,0,0-.145.158c-.017.023-.036.044-.051.068a.994.994,0,0,0-.119.276l0,.008c0,.014,0,.027,0,.041A.983.983,0,0,0,2,31V61a1,1,0,0,0,1,1H61a1,1,0,0,0,1-1V31A.925.925,0,0,0,61.974,30.8ZM56.89,32,53,34.012V32ZM50.648,14H42V4.487ZM13,4H40V15a1,1,0,0,0,1,1H51V35.046L32,44.874,13,35.046ZM11,34.012,7.11,32H11ZM4,60V32.644l7.54,3.9h0l20,10.339a.993.993,0,0,0,.918,0l20-10.339h0l7.54-3.9V60Z"></path></g></svg>