<svg xmlns="http://www.w3.org/2000/svg" viewBox="0 0 64 64" x="0px" y="0px"><g><path d="M55,4a1,1,0,0,0-1,1v7h6V5a1,1,0,0,0-1-1Z"></path><path d="M22,4v9a.987.987,0,0,1-.62.92A.838.838,0,0,1,21,14a1.007,1.007,0,0,1-.71-.29L18,11.41l-2.29,2.3a1,1,0,0,1-1.09.21A.987.987,0,0,1,14,13V4H11a1,1,0,0,0-1,1V52H45a1,1,0,0,1,1,1v6a1,1,0,0,0,1,1h4a1,1,0,0,0,1-1V48H24a.967.967,0,0,1-.55-.17L20.7,46H18a3,3,0,0,1,0-6h2.7l2.75-1.83A.967.967,0,0,1,24,38H52V5a3,3,0,0,1,.18-1ZM14,16h4v2H14Zm0,6H38v2H14ZM24,36H14V34H24Zm24,0H26V34H48Zm0-6H14V28H48Zm0-6H40V22h8Zm0-6H20V16H48Z"></path><path d="M17.293,9.293a1,1,0,0,1,1.414,0L20,10.586V4H16v6.586Z"></path><path d="M4,54v5a1,1,0,0,0,1,1H44.171A3,3,0,0,1,44,59V54Z"></path><polygon points="22 44.465 24 45.798 24 40.202 22 41.535 22 44.465"></polygon><polygon points="26 44 26 46 49 46 49 40 26 40 26 42 47 42 47 44 26 44"></polygon><path d="M17,43a1,1,0,0,0,1,1h2V42H18A1,1,0,0,0,17,43Z"></path><path d="M55,40H54v6h1a3,3,0,0,0,0-6Z"></path><rect x="51" y="40" width="1" height="6"></rect></g></svg>