<svg xmlns="http://www.w3.org/2000/svg" viewBox="0 0 64 64" x="0px" y="0px"><g data-name="Smart Tv-App-Internet-Smartphone-Internet of Things"><path d="M10,46a3,3,0,1,0,3,3A3,3,0,0,0,10,46Zm0,4a1,1,0,1,1,1-1A1,1,0,0,1,10,50Z"></path><rect x="7" y="36" width="2" height="2"></rect><rect x="11" y="36" width="2" height="2"></rect><rect x="7" y="40" width="2" height="2"></rect><rect x="11" y="40" width="2" height="2"></rect><rect x="7" y="56" width="2" height="2"></rect><rect x="11" y="56" width="2" height="2"></rect><path d="M57,2H12A10,10,0,0,0,8,21.16V32H5a2.006,2.006,0,0,0-2,2V60a2.006,2.006,0,0,0,2,2H15a2.006,2.006,0,0,0,2-2V44H31v6H22a3,3,0,0,0,0,6H48a3,3,0,0,0,0-6H39V44H57a5,5,0,0,0,5-5V7A5,5,0,0,0,57,2ZM4,12a8,8,0,1,1,8,8A8.011,8.011,0,0,1,4,12Zm17.54,3H22v4H19.13A10.109,10.109,0,0,0,21.54,15ZM12,22V32H10V21.8A10.2,10.2,0,0,0,12,22Zm3,38H5V34H15Zm0-28H14V21.8a10.149,10.149,0,0,0,2.93-1.11A2.02,2.02,0,0,0,18,21h4a2.006,2.006,0,0,0,2-2V15a2.006,2.006,0,0,0-2-2h-.05c.03-.33.05-.66.05-1a9.917,9.917,0,0,0-.84-4H56V38H17V34A2.006,2.006,0,0,0,15,32ZM48,52a1,1,0,0,1,0,2H22a1,1,0,0,1,0-2ZM33,50V44h4v6ZM60,39a3.009,3.009,0,0,1-3,3H17V40H57a1,1,0,0,0,1-1V7a1,1,0,0,0-1-1H19.98a10.024,10.024,0,0,0-2.01-2H57a3.009,3.009,0,0,1,3,3Z"></path><path d="M28,21h4a2,2,0,0,0,2-2V15a2,2,0,0,0-2-2H28a2,2,0,0,0-2,2v4A2,2,0,0,0,28,21Zm0-6h4l0,4H28Z"></path><path d="M38,21h4a2,2,0,0,0,2-2V15a2,2,0,0,0-2-2H38a2,2,0,0,0-2,2v4A2,2,0,0,0,38,21Zm0-6h4l0,4H38Z"></path><path d="M48,21h4a2,2,0,0,0,2-2V15a2,2,0,0,0-2-2H48a2,2,0,0,0-2,2v4A2,2,0,0,0,48,21Zm0-6h4l0,4H48Z"></path><path d="M22,33a2,2,0,0,0,2-2V27a2,2,0,0,0-2-2H18a2,2,0,0,0-2,2v4a2,2,0,0,0,2,2Zm-4-6h4l0,4H18Z"></path><path d="M28,33h4a2,2,0,0,0,2-2V27a2,2,0,0,0-2-2H28a2,2,0,0,0-2,2v4A2,2,0,0,0,28,33Zm0-6h4l0,4H28Z"></path><path d="M38,33h4a2,2,0,0,0,2-2V27a2,2,0,0,0-2-2H38a2,2,0,0,0-2,2v4A2,2,0,0,0,38,33Zm0-6h4l0,4H38Z"></path><path d="M48,33h4a2,2,0,0,0,2-2V27a2,2,0,0,0-2-2H48a2,2,0,0,0-2,2v4A2,2,0,0,0,48,33Zm0-6h4l0,4H48Z"></path><path d="M14.121,13.879l1.414-1.414a5,5,0,0,0-7.07,0l1.414,1.414A3.072,3.072,0,0,1,14.121,13.879Z"></path><path d="M16.95,11.05l1.414-1.414a9.012,9.012,0,0,0-12.728,0L7.05,11.05A7.009,7.009,0,0,1,16.95,11.05Z"></path><path d="M13.414,15.586a2,2,0,0,0-2.828,0L12,17Z"></path></g></svg>