<svg xmlns="http://www.w3.org/2000/svg" viewBox="0 0 64 64" x="0px" y="0px"><g><path d="M54,28.744V10a3,3,0,0,0-3-3H5a3,3,0,0,0-3,3V40a3,3,0,0,0,3,3H32.051A14.991,14.991,0,1,0,54,28.744ZM5,9H51a1,1,0,0,1,1,1v2.371L30.164,22.853a4.985,4.985,0,0,1-4.328,0L4,12.371V10A1,1,0,0,1,5,9ZM4,40V14.589L24.971,24.655a6.966,6.966,0,0,0,6.058,0L52,14.589V27.875A14.941,14.941,0,0,0,32.051,41H5A1,1,0,0,1,4,40ZM47,55A13,13,0,1,1,60,42,13.015,13.015,0,0,1,47,55Z"></path><rect x="10" y="47" width="2" height="2"></rect><rect x="14" y="47" width="10" height="2"></rect><path d="M8,36V34H6v2a3,3,0,0,0,3,3h2V37H9A1,1,0,0,1,8,36Z"></path><rect x="6" y="30" width="2" height="2"></rect><path d="M47,32A10,10,0,1,0,57,42,10.011,10.011,0,0,0,47,32Zm7.931,9H51.976a18.986,18.986,0,0,0-.392-3.12,9.75,9.75,0,0,0,1.559-1A7.964,7.964,0,0,1,54.931,41ZM50.56,34.846a8,8,0,0,1,1.086.654q-.306.218-.633.407A10.573,10.573,0,0,0,50.56,34.846Zm-1.394,1.848a8.014,8.014,0,0,1-4.331,0C45.457,34.978,46.315,34,47,34S48.543,34.978,49.166,36.694Zm-6.18-.786q-.325-.189-.632-.408a8,8,0,0,1,1.086-.654A10.935,10.935,0,0,0,42.986,35.908Zm.454,13.246a8,8,0,0,1-1.086-.654q.306-.218.633-.407A10.573,10.573,0,0,0,43.44,49.154Zm1.394-1.848a8.014,8.014,0,0,1,4.331,0C48.543,49.022,47.685,50,47,50S45.457,49.022,44.834,47.306Zm6.18.786q.325.189.632.408a8,8,0,0,1-1.086.654A10.935,10.935,0,0,0,51.014,48.092Zm-1.325-2.714a10.061,10.061,0,0,0-5.378,0A17.137,17.137,0,0,1,44.028,43h5.944A17.119,17.119,0,0,1,49.689,45.378ZM44.028,41a17.107,17.107,0,0,1,.283-2.376,9.8,9.8,0,0,0,5.378,0A16.956,16.956,0,0,1,49.972,41Zm-3.171-4.116a9.917,9.917,0,0,0,1.559,1A18.987,18.987,0,0,0,42.024,41H39.069A7.964,7.964,0,0,1,40.857,36.884ZM39.069,43h2.955a18.986,18.986,0,0,0,.392,3.12,9.75,9.75,0,0,0-1.559,1A7.964,7.964,0,0,1,39.069,43Zm14.074,4.116a9.845,9.845,0,0,0-1.559-1A18.987,18.987,0,0,0,51.976,43h2.955A7.964,7.964,0,0,1,53.143,47.116Z"></path></g></svg>