<svg xmlns="http://www.w3.org/2000/svg" viewBox="0 0 64 64" x="0px" y="0px"><path d="M56,9V55a7.008,7.008,0,0,1-7,7H15a7.008,7.008,0,0,1-7-7V38h2V55a5,5,0,0,0,5,5H49a5,5,0,0,0,5-5V9a5,5,0,0,0-5-5H15a5,5,0,0,0-5,5V28H8V9a7.008,7.008,0,0,1,7-7H49A7.008,7.008,0,0,1,56,9Z"></path><rect x="10" y="34" width="8" height="2"></rect><rect x="6" y="34" width="2" height="2"></rect><rect x="12" y="30" width="6" height="2"></rect><rect x="14" y="26" width="4" height="2"></rect><rect x="8" y="30" width="2" height="2"></rect><rect x="25" y="6" width="2" height="2"></rect><rect x="29" y="6" width="6" height="2"></rect><path d="M30,52a3,3,0,0,0,0,6h4a3,3,0,0,0,0-6Zm5,3a1,1,0,0,1-1,1H30a1,1,0,0,1,0-2h4A1,1,0,0,1,35,55Z"></path><path d="M41,20H23a1,1,0,0,0-1,1V39a1,1,0,0,0,1,1H41a1,1,0,0,0,1-1V21A1,1,0,0,0,41,20ZM31,22h2v5.38l-.55-.27a.975.975,0,0,0-.9,0l-.55.27Zm-7,0h5v4H24ZM40,38H24V28h5v1a1,1,0,0,0,1.45.89L32,29.12l1.55.77A1.03,1.03,0,0,0,34,30a1.014,1.014,0,0,0,.53-.15A1,1,0,0,0,35,29V28h5Zm0-12H35V22h5Z"></path></svg>