<svg xmlns="http://www.w3.org/2000/svg" viewBox="0 0 64 64" x="0px" y="0px"><title>Watercolor</title><g><path d="M48,56H46.909L43.1,15.764A2,2,0,0,0,41.112,14H41V12a2,2,0,0,0,2-2V4a2,2,0,0,0-2-2H23a2,2,0,0,0-2,2v6a2,2,0,0,0,2,2v2h-.112A2,2,0,0,0,20.9,15.788L17.091,56H16a1,1,0,0,0-1,1v4a1,1,0,0,0,1,1H48a1,1,0,0,0,1-1V57A1,1,0,0,0,48,56ZM23,4h3V6h2V4h3V6h2V4h3V6h2V4h3v6H23Zm2,8H39v2H25Zm-2.112,4H41.111L44.9,56H19.1ZM47,60H17V58H47Z"></path><path d="M40,32H24a1,1,0,0,0-1,1v8a1,1,0,0,0,1,1H40a1,1,0,0,0,1-1V33A1,1,0,0,0,40,32Zm-1,8H25V34H39Z"></path></g></svg>