<svg xmlns="http://www.w3.org/2000/svg" viewBox="0 0 64 64" x="0px" y="0px"><g><polygon points="20 55 24 55 24 40 23 40 23 53 21 53 21 40 20 40 20 55"></polygon><polygon points="22 35.236 20.618 38 23.382 38 22 35.236"></polygon><path d="M20,58a2,2,0,0,0,4,0V57H20Z"></path><path d="M43.832,7.445,44,7.7V4H42V7.7l.168-.252A1.039,1.039,0,0,1,43.832,7.445Z"></path><path d="M38,49a7.009,7.009,0,0,1,7-7h2a7.026,7.026,0,0,1,1,.08V5a1,1,0,0,0-1-1H46v7a1,1,0,0,1-1.832.555L43,9.8l-1.168,1.752A1,1,0,0,1,40,11V4H13a1,1,0,0,0-1,1V51a1,1,0,0,0,1,1h5V39a1,1,0,0,1,.105-.447l3-6a1.042,1.042,0,0,1,1.79,0l3,6A1,1,0,0,1,26,39V52H38Zm6-13H30V34H44ZM16,8h8v2H16Zm0,4H28v2H16Zm0,6H44v2H16Zm0,4H44v2H16Zm0,6V26H44v2ZM30,38H44v2H30Z"></path><path d="M40,55a5.006,5.006,0,0,0,5,5h2a5.006,5.006,0,0,0,5-5V52H40Z"></path><path d="M45,44a5.006,5.006,0,0,0-5,5v1H52V49a5.006,5.006,0,0,0-5-5Zm2,4H45V46h2Z"></path></g></svg>