<svg xmlns="http://www.w3.org/2000/svg" viewBox="0 0 64 64" x="0px" y="0px"><g><rect x="2" y="49" width="5" height="2"></rect><rect x="4" y="45" width="3" height="2"></rect><rect x="5" y="41" width="2" height="2"></rect><path d="M50,48a5,5,0,1,0,5,5A5.006,5.006,0,0,0,50,48Zm1,6H49V52h2Z"></path><path d="M22,58a5,5,0,1,0-5-5A5.006,5.006,0,0,0,22,58Zm-1-6h2v2H21Z"></path><path d="M56.92,52H59a1,1,0,0,0,1-1V43H45a2,2,0,0,1-2-2V32a2,2,0,0,1,2-2h4.586L47.88,28.294A1,1,0,0,0,47.17,28H37V42a1,1,0,0,1-1,1H12v8a1,1,0,0,0,1,1h2.08a6.991,6.991,0,0,1,13.84,0H43.08a6.991,6.991,0,0,1,13.84,0ZM44,47H40V45h4Z"></path><path d="M45,41H60v-.171a1,1,0,0,0-.293-.708L51.586,32H45Z"></path><rect x="6" y="6" width="6" height="2"></rect><rect x="2" y="6" width="2" height="2"></rect><rect x="9" y="2" width="4" height="2"></rect><rect x="5" y="2" width="2" height="2"></rect><rect x="42" y="18" width="8" height="2"></rect><rect x="38" y="18" width="2" height="2"></rect><circle cx="21" cy="20" r="4"></circle><path d="M21,36.725C23.377,34.791,32,27.271,32,20a11,11,0,0,0-22,0C10,27.281,18.622,34.792,21,36.725ZM21,14a6,6,0,1,1-6,6A6.006,6.006,0,0,1,21,14Z"></path><rect x="40" y="14" width="4" height="2"></rect><rect x="36" y="14" width="2" height="2"></rect><rect x="2" y="58" width="58" height="2"></rect></g></svg>