<svg xmlns="http://www.w3.org/2000/svg" viewBox="0 0 64 64" x="0px" y="0px"><g><path d="M61,24H58V21a3.009,3.009,0,0,0-3-3H15a3.009,3.009,0,0,0-3,3v3H10V17.82A3.01,3.01,0,0,0,12,15V5A3.009,3.009,0,0,0,9,2H5A3.009,3.009,0,0,0,2,5V15a3.01,3.01,0,0,0,2,2.82V40a1,1,0,0,0-1,1v6a1,1,0,0,0,1,1h.05A15.015,15.015,0,0,0,19,62H31a7.016,7.016,0,0,0,7-7V53.31A7,7,0,0,0,42,47V45a1,1,0,0,0-1-1H37a1,1,0,0,0-1,1v2a1,1,0,0,1-2,0V45a1,1,0,0,0-1-1H29a1,1,0,0,0-1,1v2a7,7,0,0,0,4,6.31V55a.949.949,0,0,1-.31.71A.928.928,0,0,1,31,56H19a9,9,0,0,1-8.94-8.01A1,1,0,0,0,11,47V41a1,1,0,0,0-1-1V34h2v5a3.009,3.009,0,0,0,3,3H28.55a7.313,7.313,0,0,0,4.13-1.35,4.465,4.465,0,0,1,4.64,0A7.313,7.313,0,0,0,41.45,42H55a3.009,3.009,0,0,0,3-3V34h3a1,1,0,0,0,1-1V25A1,1,0,0,0,61,24ZM36,55a4.949,4.949,0,0,1-.83,2.76L33.7,56.29A2.98,2.98,0,0,0,34,55V53.92a6.29,6.29,0,0,0,2,0Zm-6-8V46h2v1a3,3,0,0,0,6,0V46h2v1a5,5,0,0,1-10,0Zm1,11a2.98,2.98,0,0,0,1.29-.3l1.47,1.47A4.949,4.949,0,0,1,31,60ZM9,42v4H5V42ZM6,40V18H8V40ZM19,58H29v2H19A13.008,13.008,0,0,1,6.05,48h2A11.011,11.011,0,0,0,19,58ZM9,16H5a1,1,0,0,1-1-1V13H6V11H4V9H6V7H4V5A1,1,0,0,1,5,4H9a1,1,0,0,1,1,1V7H8V9h2v2H8v2h2v2A1,1,0,0,1,9,16Zm3,16H10V26h2Zm26.46,7a6.486,6.486,0,0,0-6.92,0,5.431,5.431,0,0,1-2.3.94,9.286,9.286,0,0,0,2.01-2.26l2.01-3.21a1,1,0,0,1,.85-.47h1.78a1,1,0,0,1,.85.47l2.01,3.21a9.286,9.286,0,0,0,2.01,2.26A5.431,5.431,0,0,1,38.46,39ZM56,39a1,1,0,0,1-1,1H46.54a7.149,7.149,0,0,1-6.1-3.38l-2-3.21A3.011,3.011,0,0,0,35.89,32H34.11a3.011,3.011,0,0,0-2.55,1.41l-2,3.21A7.149,7.149,0,0,1,23.46,40H15a1,1,0,0,1-1-1V21a1,1,0,0,1,1-1H55a1,1,0,0,1,1,1Zm4-7H58V26h2Z"></path><path d="M53,22H17a1,1,0,0,0-1,1V37a1,1,0,0,0,1,1h6.46a5.149,5.149,0,0,0,4.4-2.44l2.01-3.21A4.969,4.969,0,0,1,34.11,30h1.78a4.969,4.969,0,0,1,4.24,2.35l2.01,3.21A5.149,5.149,0,0,0,46.54,38H53a1,1,0,0,0,1-1V23A1,1,0,0,0,53,22ZM52,36H46.54a3.149,3.149,0,0,1-2.7-1.5l-2.01-3.21A6.969,6.969,0,0,0,35.89,28H34.11a6.969,6.969,0,0,0-5.94,3.29L26.16,34.5a3.149,3.149,0,0,1-2.7,1.5H18V24H52Z"></path></g></svg>