<svg xmlns="http://www.w3.org/2000/svg" viewBox="0 0 64 64" x="0px" y="0px"><g data-name="coffee cup-coffee mug-espresso-drink-coffee"><path d="M7,58H47a3.014,3.014,0,0,0,2.83-2H4.17A3.014,3.014,0,0,0,7,58Z"></path><path d="M54.89,32.08A6.981,6.981,0,0,0,49.09,29H45.7a40.068,40.068,0,0,1,.938-4H7.36A39.792,39.792,0,0,1,9,36.32V45a9.014,9.014,0,0,0,9,9H36a9.014,9.014,0,0,0,9-9h3.29a6.961,6.961,0,0,0,6.5-4.4l.8-2A6.975,6.975,0,0,0,54.89,32.08Zm-1.15,5.78-.8,2A5,5,0,0,1,48.29,43H45V36.32A39.847,39.847,0,0,1,45.368,31H49.09a5.012,5.012,0,0,1,4.65,6.86Z"></path><path d="M21,19h2a2.258,2.258,0,0,1,.759-1.681,4.207,4.207,0,0,0,0-5.967,2.248,2.248,0,0,1,0-3.368A4.163,4.163,0,0,0,25,5H23a2.267,2.267,0,0,1-.759,1.684,4.208,4.208,0,0,0,0,5.968,2.244,2.244,0,0,1,0,3.365A4.162,4.162,0,0,0,21,19Z"></path><path d="M29,19h2a2.258,2.258,0,0,1,.759-1.681,4.207,4.207,0,0,0,0-5.967,2.248,2.248,0,0,1,0-3.368A4.163,4.163,0,0,0,33,5H31a2.267,2.267,0,0,1-.759,1.684,4.208,4.208,0,0,0,0,5.968,2.244,2.244,0,0,1,0,3.365A4.162,4.162,0,0,0,29,19Z"></path></g></svg>