<svg xmlns="http://www.w3.org/2000/svg" viewBox="0 0 64 64" x="0px" y="0px"><g data-name="Telephone-Vintage-Phone Call-Phone-Communication"><path d="M57,2H25a3,3,0,0,0-3,3V54H7a1,1,0,0,1,0-2h5a3,3,0,0,0,0-6H7a1,1,0,0,1,0-2h5a3,3,0,0,0,3-3V38.91A6.006,6.006,0,0,0,20,33a5.931,5.931,0,0,0-2-4.449v-11.1A5.931,5.931,0,0,0,20,13,6,6,0,0,0,8,13a5.931,5.931,0,0,0,2,4.449v11.1A5.931,5.931,0,0,0,8,33a6.006,6.006,0,0,0,5,5.91V41a1,1,0,0,1-1,1H7a3,3,0,0,0,0,6h5a1,1,0,0,1,0,2H7a3,3,0,0,0,0,6H22v3a3,3,0,0,0,3,3H57a3,3,0,0,0,3-3V5A3,3,0,0,0,57,2ZM10,33a3.964,3.964,0,0,1,1.6-3.18,1,1,0,0,0,.4-.8V16.978a1,1,0,0,0-.4-.8A3.964,3.964,0,0,1,10,13a4,4,0,0,1,8,0,3.964,3.964,0,0,1-1.6,3.18,1,1,0,0,0-.4.8V29.022a1,1,0,0,0,.4.8A3.964,3.964,0,0,1,18,33a4,4,0,0,1-8,0ZM58,59a1,1,0,0,1-1,1H25a1,1,0,0,1-1-1V5a1,1,0,0,1,1-1H57a1,1,0,0,1,1,1Z"></path><path d="M41,6A15,15,0,1,0,56,21,15.017,15.017,0,0,0,41,6Zm0,28A13,13,0,1,1,54,21,13.015,13.015,0,0,1,41,34Z"></path><path d="M41,10A11,11,0,1,0,52,21,11.013,11.013,0,0,0,41,10Zm0,20a9,9,0,1,1,9-9A9.01,9.01,0,0,1,41,30Z"></path><rect x="40" y="14" width="2" height="2"></rect><rect x="44.242" y="15.757" width="2" height="2" transform="translate(1.395 36.884) rotate(-44.98)"></rect><rect x="46" y="20" width="2" height="2"></rect><rect x="44.242" y="24.242" width="2" height="2" transform="translate(-4.593 39.402) rotate(-45.02)"></rect><rect x="40" y="26" width="2" height="2"></rect><rect x="35.757" y="24.242" width="2" height="2" transform="translate(-7.086 33.37) rotate(-44.98)"></rect><rect x="34" y="20" width="2" height="2"></rect><rect x="35.757" y="15.757" width="2" height="2" transform="translate(-1.078 30.913) rotate(-45.02)"></rect><path d="M41,18a3,3,0,1,0,3,3A3,3,0,0,0,41,18Zm0,4a1,1,0,1,1,1-1A1,1,0,0,1,41,22Z"></path><path d="M53,40H37a3,3,0,0,0-3,3V55a3,3,0,0,0,3,3H53a3,3,0,0,0,3-3V43A3,3,0,0,0,53,40Zm1,15a1,1,0,0,1-1,1H37a1,1,0,0,1-1-1V43a1,1,0,0,1,1-1H53a1,1,0,0,1,1,1Z"></path><path d="M45,44a4,4,0,1,0,4,4A4,4,0,0,0,45,44Zm0,6a1.994,1.994,0,0,1-1-3.722V48h2V46.278A1.994,1.994,0,0,1,45,50Z"></path><path d="M31,43H27a1,1,0,0,0-1,1v8a1,1,0,0,0,1,1h4a1,1,0,0,0,1-1V44A1,1,0,0,0,31,43Zm-1,8H28V45h2Z"></path><rect x="26" y="35" width="2" height="6"></rect></g></svg>