<svg xmlns="http://www.w3.org/2000/svg" viewBox="0 0 64 64" x="0px" y="0px"><g data-name="Taxi-Smartphone-Application-Transportation-Chat Box"><rect x="25" y="6" width="2" height="2"></rect><rect x="29" y="6" width="6" height="2"></rect><rect x="31" y="56" width="2" height="2"></rect><rect x="26" y="36" width="2" height="2"></rect><rect x="36" y="36" width="2" height="2"></rect><rect x="50" y="19" width="8" height="2"></rect><rect x="50" y="23" width="8" height="2"></rect><path d="M59,15H52V8a6,6,0,0,0-6-6H18a6,6,0,0,0-6,6v7H5a3.009,3.009,0,0,0-3,3v8a3.009,3.009,0,0,0,3,3h7V56a6,6,0,0,0,6,6H46a6,6,0,0,0,6-6V29h7a3.009,3.009,0,0,0,3-3V18A3.009,3.009,0,0,0,59,15ZM14,8a4,4,0,0,1,4-4H46a4,4,0,0,1,4,4v2H14ZM5,27a1,1,0,0,1-1-1V18a1,1,0,0,1,1-1H15a1,1,0,0,1,1,1v6a1.033,1.033,0,0,0,.29.71L18.59,27ZM50,56a4,4,0,0,1-4,4H18a4,4,0,0,1-4-4V54H50Zm0-4H14V29h7a.987.987,0,0,0,.92-.62,1,1,0,0,0-.21-1.09L18,23.59V18a3.009,3.009,0,0,0-3-3H14V12H50v3H49a3.009,3.009,0,0,0-3,3v5.59l-3.71,3.7a1,1,0,0,0-.21,1.09A.987.987,0,0,0,43,29h7ZM60,26a1,1,0,0,1-1,1H45.41l2.3-2.29A1.033,1.033,0,0,0,48,24V18a1,1,0,0,1,1-1H59a1,1,0,0,1,1,1Z"></path><path d="M42,33V31H40a.988.988,0,0,0-.89.55l-.11.21-2.11-4.21A.988.988,0,0,0,36,27V24a1,1,0,0,0-1-1H29a1,1,0,0,0-1,1v3a.988.988,0,0,0-.89.55L25,31.76l-.11-.21A.988.988,0,0,0,24,31H22v2h1.38l.19.38A2.994,2.994,0,0,0,22,36v2a3.01,3.01,0,0,0,2,2.82V43a2.006,2.006,0,0,0,2,2h2a2.006,2.006,0,0,0,2-2V41h4v2a2.006,2.006,0,0,0,2,2h2a2.006,2.006,0,0,0,2-2V40.82A3.01,3.01,0,0,0,42,38V36a2.994,2.994,0,0,0-1.57-2.62l.19-.38ZM30,25h4v2H30Zm-1.38,4h6.76l2,4H26.62ZM28,43H26V41h2Zm10,0H36V41h2Zm2-5a1,1,0,0,1-1,1H25a1,1,0,0,1-1-1V36a1,1,0,0,1,1-1H39a1,1,0,0,1,1,1Z"></path><rect x="6" y="19" width="8" height="2"></rect><rect x="6" y="23" width="8" height="2"></rect></g></svg>