<svg xmlns="http://www.w3.org/2000/svg" viewBox="0 0 64 64" x="0px" y="0px"><title>Speech Bubble_22</title><g data-name="Speech Bubble"><path d="M32,2A30,30,0,1,0,62,32,30.034,30.034,0,0,0,32,2Zm0,58A28,28,0,1,1,60,32,28.032,28.032,0,0,1,32,60Z"></path><path d="M49.909,28.24c0-.027,0-.054-.007-.081h0A17.988,17.988,0,1,0,38.729,46.7,8.372,8.372,0,0,1,33.5,52.576a1,1,0,0,0,.328,1.944.987.987,0,0,0,.246-.031C43.3,52.153,50,42.064,50,30.5V30c0-.259,0-.508-.021-.766C49.968,28.9,49.947,28.574,49.909,28.24ZM48,30.5c0,7.724-3.182,14.719-8.11,18.792a10.842,10.842,0,0,0,1.1-4.232,1,1,0,0,0-1.469-.933A16.015,16.015,0,0,1,32,46a15.826,15.826,0,0,1-9.384-3.051A16,16,0,1,1,47.91,28.311c0,.04,0,.08.007.12.037.3.055.591.064.892,0,.016,0,.032,0,.048.018.212.017.416.017.629Z"></path></g></svg>