<svg xmlns="http://www.w3.org/2000/svg" viewBox="0 0 64 64" x="0px" y="0px"><g data-name="Presentaion travel trip"><rect x="23" y="58" width="18" height="2"></rect><polygon points="31.277 30 35.414 30 37.414 32 41 32 41 34 36.586 34 34.586 32 29.277 32 27.346 33.932 28.707 35.293 27.293 36.707 19.018 28.432 12 35.45 12 38 52 38 52 35.415 38.932 22.346 31.277 30"></polygon><rect x="4" y="8" width="56" height="2"></rect><rect x="30" y="4" width="4" height="2"></rect><rect x="30" y="50" width="4" height="6"></rect><rect x="4" y="46" width="56" height="2"></rect><circle cx="27" cy="23" r="1"></circle><path d="M12,32.622,19.018,25.6l6.914,6.914,13-13L52,32.586V18H12ZM27,20a3,3,0,1,1-3,3A3,3,0,0,1,27,20Z"></path><path d="M6,44H58V12H6Zm4-28H54V40H10Z"></path></g></svg>