<svg xmlns="http://www.w3.org/2000/svg" viewBox="0 0 64 64" x="0px" y="0px"><g><rect x="36" y="32" width="2" height="4"></rect><path d="M29,54H25a1,1,0,0,0,0,2h4a1,1,0,0,0,0-2Z"></path><rect x="52" y="28" width="2" height="8"></rect><path d="M33,12H44V9a5,5,0,0,0-5-5H15a5,5,0,0,0-5,5v7.85A9.888,9.888,0,0,1,14,16a10,10,0,0,1,0,20,9.888,9.888,0,0,1-4-.85V55a5,5,0,0,0,5,5H39a5,5,0,0,0,5-5V50H33a3.009,3.009,0,0,1-3-3V15A3.009,3.009,0,0,1,33,12ZM16,8H14V6h2Zm4,0H18V6h2ZM14,38H26v2H14Zm0,4H26v2H14Zm0,6V46H26v2Zm18,7a3.009,3.009,0,0,1-3,3H25a3,3,0,0,1,0-6h4A3.009,3.009,0,0,1,32,55ZM22,8V6H32V8Z"></path><path d="M32,15V47a1,1,0,0,0,1,1H57a1,1,0,0,0,1-1V22H53a3,3,0,0,1-3-3V14H33A1,1,0,0,0,32,15ZM56,46H46V44H56Zm0-4H46V40H56ZM50,27a1,1,0,0,1,1-1h4a1,1,0,0,1,1,1V37a1,1,0,0,1-1,1H51a1,1,0,0,1-1-1Zm-2,2v8a1,1,0,0,1-1,1H43a1,1,0,0,1-1-1V29a1,1,0,0,1,1-1h4A1,1,0,0,1,48,29ZM38,18h6v2H38Zm-4,0h2v2H34Zm0,4H44v2H34Zm0,9a1,1,0,0,1,1-1h4a1,1,0,0,1,1,1v6a1,1,0,0,1-1,1H35a1,1,0,0,1-1-1Zm0,9H44v2H34Zm0,4H44v2H34Z"></path><rect x="44" y="30" width="2" height="6"></rect><path d="M56.586,20,52,15.414V19a1,1,0,0,0,1,1Z"></path><path d="M22,26a8,8,0,1,0-8,8A8.009,8.009,0,0,0,22,26ZM10,28h2a1,1,0,0,0,1,1h2a1,1,0,0,0,0-2H13a3,3,0,0,1,0-6V20h2v1a3,3,0,0,1,3,3H16a1,1,0,0,0-1-1H13a1,1,0,0,0,0,2h2a3,3,0,0,1,0,6v1H13V31A3,3,0,0,1,10,28Z"></path></g></svg>