<svg xmlns="http://www.w3.org/2000/svg" viewBox="0 0 64 64" x="0px" y="0px"><g data-name="Hand Washing-Washing-Hand-Hygiene-Water"><rect x="12" y="33" width="2" height="2"></rect><path d="M50,41H41.56a3.975,3.975,0,0,0-1.94-2.87l-12.12-7A1.063,1.063,0,0,0,27,31H18V30a1,1,0,0,0-1-1H9a1,1,0,0,0-1,1H2v2H8V44H2v2H8a1,1,0,0,0,1,1h8a1,1,0,0,0,1-1V45h2.65l4.73,3.78A.977.977,0,0,0,26,49H42v7h2V46a4.982,4.982,0,0,0-1.02-3H45a3.009,3.009,0,0,1,3,3V56h2V49a4,4,0,0,0,0-8ZM16,45H10V31h6Zm26,2H26.35l-4.73-3.78A.977.977,0,0,0,21,43H18V33h8.73l11.89,6.87a2,2,0,1,1-2,3.46l-8.66-5-1,1.73,8.66,5a3.983,3.983,0,0,0,5.36-1.3A2.958,2.958,0,0,1,42,46Zm8,0V46a4.924,4.924,0,0,0-1.03-3H50a2,2,0,0,1,0,4Z"></path><path d="M61,2H55a1,1,0,0,0-1,1V4.05l-13.28.74A5,5,0,0,0,36,9.78V16a1,1,0,0,0,1,1h8a1,1,0,0,0,1-1V13h8a1,1,0,0,0,1,1h6a1,1,0,0,0,1-1V3A1,1,0,0,0,61,2ZM44,15H38V13h6Zm10-4H38V9.78a3,3,0,0,1,2.83-2.99L54,6.06Zm6,1H56V4h4Z"></path><rect x="44" y="19" width="2" height="18"></rect><rect x="36" y="19" width="2" height="14"></rect><rect x="47.585" y="32.5" width="5.831" height="2" transform="translate(-4.208 59.568) rotate(-59.036)"></rect><rect x="51" y="37" width="6" height="2"></rect><rect x="34" y="51" width="2" height="5"></rect><rect x="28" y="51" width="2" height="5"></rect><rect x="48" y="58" width="2" height="2"></rect><rect x="42" y="58" width="2" height="4"></rect><rect x="34" y="58" width="2" height="2"></rect><rect x="28" y="58" width="2" height="4"></rect></g></svg>