<svg xmlns="http://www.w3.org/2000/svg" viewBox="0 0 64 64" x="0px" y="0px"><title>Decision</title><g><path d="M17.5,24A2.5,2.5,0,0,1,15,21.5H13a4.5,4.5,0,0,0,9,0H20A2.5,2.5,0,0,1,17.5,24Z"></path><path d="M58,40a9.01,9.01,0,0,1-9,9,1,1,0,0,0-1,1V60H26V51h5V49H17a5.006,5.006,0,0,1-5-5V36a1,1,0,0,0-1-1H6.385l6.539-19.748A17.9,17.9,0,0,1,29.392,4H38V2H29.392A19.914,19.914,0,0,0,11.051,14.555l-7,21.131A1,1,0,0,0,5,37h5v7a7.009,7.009,0,0,0,7,7h7V61a1,1,0,0,0,1,1H49a1,1,0,0,0,1-1V50.955A11.015,11.015,0,0,0,60,40V38H58Z"></path><path d="M31,8a1,1,0,0,0-.893.55L25.343,18H25a1,1,0,0,0-1,1,7,7,0,0,0,14,0,1,1,0,0,0-1-1h-.382l-4-8H40V32H37a1,1,0,0,0-1,1v2H33v2H53V35H50V33a1,1,0,0,0-1-1H46V10h7.376l-4.033,8H49a1,1,0,0,0-1,1,7,7,0,0,0,14,0,1,1,0,0,0-1-1h-.382L55.9,8.553l-.007,0c-.013-.026-.021-.055-.036-.08A1,1,0,0,0,55,8H45.816A2.966,2.966,0,0,0,46,7a3,3,0,0,0-6,0,2.966,2.966,0,0,0,.184,1ZM55,24a5.008,5.008,0,0,1-4.9-4h9.8A5.008,5.008,0,0,1,55,24Zm-3.418-6L55,11.228,58.382,18ZM31,24a5.008,5.008,0,0,1-4.9-4h9.8A5.008,5.008,0,0,1,31,24Zm-3.418-6L31,11.228,34.382,18ZM48,35H38V34H48Zm-4-3H42V10h2ZM43,6a1,1,0,1,1-1,1A1,1,0,0,1,43,6Z"></path></g></svg>