<svg xmlns="http://www.w3.org/2000/svg" viewBox="0 0 64 64" x="0px" y="0px"><g data-name="Business Bag"><path d="M41,34H37a1,1,0,0,0-1,1v7H28V35a1,1,0,0,0-1-1H23a1,1,0,0,0-1,1V45a3,3,0,0,0,3,3H39a3,3,0,0,0,3-3V35A1,1,0,0,0,41,34Zm-1,2v4H38V36ZM26,36v4H24V36ZM39,46H25a1,1,0,0,1-1-1V42h2a2,2,0,0,0,2,2h8a2,2,0,0,0,2-2h2v3A1,1,0,0,1,39,46Z"></path><rect x="19" y="12" width="18" height="2"></rect><rect x="19" y="8" width="4" height="2"></rect><rect x="25" y="8" width="12" height="2"></rect><rect x="19" y="18" width="14" height="2"></rect><rect x="35" y="18" width="10" height="2"></rect><rect x="19" y="22" width="4" height="2"></rect><rect x="25" y="22" width="20" height="2"></rect><path d="M56.924,20.617A1,1,0,0,0,56,20H51V5a3,3,0,0,0-3-3H16a3,3,0,0,0-3,3V20H8a1,1,0,0,0-.924.617.989.989,0,0,0-.076.39V57a5.006,5.006,0,0,0,5,5H52a5.006,5.006,0,0,0,5-5V21.007A.989.989,0,0,0,56.924,20.617ZM9,30H55V54H9Zm46-3.414L53.414,25,55,23.414ZM53.586,22l-2.293,2.293a1,1,0,0,0,0,1.414L53.586,28H51V22ZM41,4h2V6.764l-.1-.211a1.042,1.042,0,0,0-1.79,0l-.1.211ZM16,4H39v7a1,1,0,0,0,1.9.447L42,9.236l1.1,2.211A1,1,0,0,0,45,11V4h3a1,1,0,0,1,1,1V28H15V5A1,1,0,0,1,16,4ZM13,22v6H10.414l2.293-2.293a1,1,0,0,0,0-1.414L10.414,22ZM9,23.414,10.586,25,9,26.586ZM52,60H12a3,3,0,0,1-3-3V56H55v1A3,3,0,0,1,52,60Z"></path></g></svg>