<svg xmlns="http://www.w3.org/2000/svg" viewBox="0 0 64 64" x="0px" y="0px"><title>Pumpkin</title><g><path d="M45,13a13,13,0,0,0-5.676,1.337,13.8,13.8,0,0,0-4.052-1.885l.642-8.3A2,2,0,0,0,33.92,2H30.08a2,2,0,0,0-1.994,2.154l.642,8.3a13.783,13.783,0,0,0-4.052,1.885A13,13,0,0,0,19,13C9.626,13,2,23.317,2,36S9.626,59,19,59a13,13,0,0,0,5.676-1.337,12.645,12.645,0,0,0,14.648,0A13,13,0,0,0,45,59c9.374,0,17-10.317,17-23S54.374,13,45,13ZM30.08,4h3.839L33.3,12.078a10.789,10.789,0,0,0-2.59,0ZM4,36c0-11.579,6.729-21,15-21a10.917,10.917,0,0,1,3.89.726C17.991,20.091,15,27.674,15,36s2.992,15.911,7.89,20.274A10.917,10.917,0,0,1,19,57C10.729,57,4,47.579,4,36ZM38.642,55.711l0,0h0a10.78,10.78,0,0,1-13.281,0C20.2,51.961,17,44.408,17,36s3.2-15.961,8.361-19.713a10.78,10.78,0,0,1,13.278,0h0l0,0C43.8,20.039,47,27.592,47,36S43.8,51.961,38.642,55.711ZM45,57a10.89,10.89,0,0,1-3.886-.717C46.014,51.919,49,44.326,49,36s-2.986-15.919-7.886-20.283A10.89,10.89,0,0,1,45,15c8.271,0,15,9.421,15,21S53.271,57,45,57Z"></path></g></svg>