<svg xmlns="http://www.w3.org/2000/svg" viewBox="0 0 64 64" x="0px" y="0px"><g><path d="M30,47H10a2,2,0,0,0-2,2v7a2,2,0,0,0,2,2H30a2,2,0,0,0,2-2V49A2,2,0,0,0,30,47ZM10,49h9v7H10Zm11,7V49h9l0,7Z"></path><path d="M61.41,38,58,34.59A1.983,1.983,0,0,0,56.59,34H44V26h1a2.006,2.006,0,0,0,2-2V21.69a2.006,2.006,0,0,0-1.29-1.87l-20-7.62a1.986,1.986,0,0,0-1.42,0l-20,7.62A2.006,2.006,0,0,0,3,21.69V24a2.006,2.006,0,0,0,2,2H6V38.27l-2.46.57A2,2,0,0,0,2,40.79V43a2.006,2.006,0,0,0,2,2V61a1,1,0,0,0,1,1H60a2.006,2.006,0,0,0,2-2V39.41A1.983,1.983,0,0,0,61.41,38Zm-4.82-2,2,2H44V36ZM5,24V21.69l20-7.62,20,7.62V24ZM37.83,40H38a2.006,2.006,0,0,0,2-2V30a2.006,2.006,0,0,0-2-2H34a2.006,2.006,0,0,0-2,2v7.8l-2-.47V30a2.006,2.006,0,0,0-2-2H12a2.006,2.006,0,0,0-2,2v7.33L8,37.8V26H42V42H38V40.79A1.9,1.9,0,0,0,37.83,40ZM34,38V30h4v8Zm-6-8v6.85l-7.54-1.77a2.041,2.041,0,0,0-.92,0L12,36.85V30ZM4,43V40.79l16-3.76,16,3.76V43ZM34,60H6V45H34Zm10,0H40V53h4Zm4,0H46V53a2.006,2.006,0,0,0-2-2H40a2.006,2.006,0,0,0-2,2v7H36V45a2,2,0,0,0,1.72-1H48Zm12,0H50V44a2.006,2.006,0,0,0-2-2H44V40H60Z"></path><path d="M56,45H54a2,2,0,0,0-2,2v6a2,2,0,0,0,2,2h2a2,2,0,0,0,2-2V47A2,2,0,0,0,56,45Zm-2,8V47h2l0,6Z"></path></g></svg>