<svg xmlns="http://www.w3.org/2000/svg" viewBox="0 0 64 64" x="0px" y="0px"><g data-name="Coding-Web Admin"><path d="M49,33V10H15V33a1,1,0,0,0,1,1H48A1,1,0,0,0,49,33ZM27.707,23.293l-1.414,1.414-3-3a1,1,0,0,1,0-1.414l3-3,1.414,1.414L25.414,21Zm3.23,2.058-1.874-.7,3-8,1.874.7Zm8.77-3.644-3,3-1.414-1.414L37.586,21l-2.293-2.293,1.414-1.414,3,3A1,1,0,0,1,39.707,21.707Z"></path><rect x="51" y="24" width="1" height="2"></rect><path d="M48,4H16a1,1,0,0,0-1,1V8H49V5A1,1,0,0,0,48,4ZM19,7H17V5h2Zm4,0H21V5h2Zm4,0H25V5h2Z"></path><path d="M33,44H31V43a3,3,0,0,1,3-3H57a3,3,0,0,0,3-3V29a3,3,0,0,0-3-3H54V24h3a5.006,5.006,0,0,1,5,5v8a5.006,5.006,0,0,1-5,5H34a1,1,0,0,0-1,1Z"></path><path d="M53,46H11V60H53Zm-8,2h2v2H45Zm-4,0h2v2H41Zm0,4h2v2H41Zm-4-4h2v2H37Zm0,4h2v2H37Zm-4-4h2v2H33Zm0,4h2v2H33Zm-4-4h2v2H29Zm0,4h2v2H29Zm-4-4h2v2H25Zm0,4h2v2H25Zm-4-4h2v2H21Zm0,4h2v2H21Zm-4-4h2v2H17Zm0,4h2v2H17Zm-2,6H13V56h2Zm0-4H13V52h2Zm0-4H13V48h2Zm30,8H17V56H45Zm0-6h2v2H45Zm6,6H47V56h4Zm0-4H49V52h2Zm0-4H49V48h2Z"></path></g></svg>