<svg xmlns="http://www.w3.org/2000/svg" viewBox="0 0 64 64" x="0px" y="0px"><g><path d="M23,46H17a1,1,0,0,0-1,1v6a1,1,0,0,0,1,1h6a1,1,0,0,0,1-1V47A1,1,0,0,0,23,46Zm-1,6H18V48h4Z"></path><path d="M37,35H27a2,2,0,0,0-2,2v4a2,2,0,0,0,2,2H37a2,2,0,0,0,2-2V37A2,2,0,0,0,37,35Zm0,3H33V37h4Zm-6-1v1H27V37Zm-4,3h4v1H27Zm6,1V40h4v1Z"></path><path d="M56.913,55.069A5,5,0,0,0,51,51.1V33.414l1.793,1.793a3.121,3.121,0,0,0,4.414-4.414L51,24.586V12a2,2,0,0,0,2-2V8a2,2,0,0,0-2-2H41a2,2,0,0,0-2,2v2a2,2,0,0,0,2,2v2.586L34.117,7.7a3,3,0,0,0-4.234,0l-1.6,1.6A14,14,0,1,0,9.3,28.287L6.793,30.793a3.121,3.121,0,0,0,4.414,4.414L13,33.414V54.382A3.983,3.983,0,0,0,6,57a4,4,0,0,0-4,4,1,1,0,0,0,1,1H61a1,1,0,0,0,1-1A6.01,6.01,0,0,0,56.913,55.069Zm-8.921-2.028c0-.014.008-.026.008-.041V47a1,1,0,0,0-1-1H41a1,1,0,0,0-1,1v6a1,1,0,0,0,1,1h6a.971.971,0,0,0,.511-.161A4.938,4.938,0,0,0,47,56c0,.033,0,.067,0,.1A5.007,5.007,0,0,0,43.11,60H39V45a1,1,0,0,0-1-1H26a1,1,0,0,0-1,1V60H18.911A6.013,6.013,0,0,0,15,55.348V32H49V52.026A5,5,0,0,0,47.992,53.041ZM46,48v4H42V48ZM41,8H51v2H41Zm2,4h6V22.586l-6-6ZM31.3,9.117a1,1,0,0,1,1.406,0l23.09,23.09a1.123,1.123,0,0,1,0,1.586,1.125,1.125,0,0,1-1.586,0L34.117,13.7a3,3,0,0,0-4.234,0l-.076.076a13.964,13.964,0,0,0-.651-2.521ZM4,16A12,12,0,1,1,16,28,12.013,12.013,0,0,1,4,16ZM9.793,33.793a1.123,1.123,0,0,1-1.586,0,1.125,1.125,0,0,1,0-1.586l3.051-3.051a13.964,13.964,0,0,0,2.521.651l-.485.485,0,0Zm6.643-3.815A14,14,0,0,0,29.978,16.436L31.3,15.117a1,1,0,0,1,1.406,0L47.586,30H16.414ZM4.269,60a1.993,1.993,0,0,1,2.6-.787,1,1,0,0,0,1.34-1.338A1.972,1.972,0,0,1,8,57a1.993,1.993,0,0,1,3.878-.653.971.971,0,0,0,.984.67A.506.506,0,0,0,13,57a4.006,4.006,0,0,1,3.873,3ZM27,60V46H37V60Zm18.171,0a2.977,2.977,0,0,1,2.767-2c.034,0,.135.015.169.016a1,1,0,0,0,1.006-1.255A2.962,2.962,0,0,1,49,56a3,3,0,0,1,6,0,1,1,0,0,0,1,1,4.006,4.006,0,0,1,3.873,3Z"></path><path d="M17,25V23a3,3,0,0,0,3-3V18a3,3,0,0,0-3-3H15a1,1,0,0,1-1-1V12a1,1,0,0,1,1-1h2a1,1,0,0,1,1,1v1h2V12a3,3,0,0,0-3-3V7H15V9a3,3,0,0,0-3,3v2a3,3,0,0,0,3,3h2a1,1,0,0,1,1,1v2a1,1,0,0,1-1,1H15a1,1,0,0,1-1-1V19H12v1a3,3,0,0,0,3,3v2Z"></path><path d="M30,49H28v2h1v2H28v2h2a1,1,0,0,0,1-1V50A1,1,0,0,0,30,49Z"></path></g></svg>