<svg xmlns="http://www.w3.org/2000/svg" viewBox="0 0 64 64" x="0px" y="0px"><g><path d="M34.808,41.394a3.072,3.072,0,0,0-4.243,0l-2.83,2.828a1.023,1.023,0,0,1-1.413,0l-7.071-7.071a1,1,0,0,1,0-1.415l2.83-2.828a3,3,0,0,0,0-4.242L13.6,20.18a3.005,3.005,0,0,0-4.243,0L4.4,25.13a9.012,9.012,0,0,0,0,12.728L25.615,59.071a9,9,0,0,0,12.728,0l4.95-4.949a3,3,0,0,0,0-4.243ZM10.766,21.6a1,1,0,0,1,1.415,0l8.484,8.485a1,1,0,0,1,0,1.415l-2.122,2.121-9.9-9.9ZM36.929,57.657a7,7,0,0,1-9.9,0L5.816,36.444a7.011,7.011,0,0,1,0-9.9L7.23,25.13,17.26,35.159a3,3,0,0,0,.577,3.406l7.071,7.071a3.076,3.076,0,0,0,3.4.568L38.343,56.242Zm4.95-4.95-2.122,2.121-9.9-9.9,2.122-2.122a1.024,1.024,0,0,1,1.414,0l8.485,8.485a1,1,0,0,1,0,1.414Z"></path><path d="M48,2A14,14,0,1,0,62,16,14.015,14.015,0,0,0,48,2Zm0,26A12,12,0,1,1,60,16,12.013,12.013,0,0,1,48,28Z"></path><path d="M48,7a7.008,7.008,0,0,0-7,7c0,4.291,5.648,10.063,6.293,10.707a1,1,0,0,0,1.414,0C49.352,24.063,55,18.291,55,14A7.008,7.008,0,0,0,48,7Zm0,15.551c-1.853-2.019-5-5.985-5-8.551a5,5,0,0,1,10,0C53,16.566,49.853,20.532,48,22.551Z"></path><path d="M48,11a3,3,0,1,0,3,3A3,3,0,0,0,48,11Zm0,4a1,1,0,1,1,1-1A1,1,0,0,1,48,15Z"></path><rect x="43" y="45" width="2" height="2"></rect><rect x="47" y="45" width="2" height="2"></rect><rect x="47" y="41" width="2" height="2"></rect><rect x="47" y="37" width="2" height="2"></rect><rect x="47" y="33" width="2" height="2"></rect></g></svg>