<svg xmlns="http://www.w3.org/2000/svg" viewBox="0 0 64 64" x="0px" y="0px"><g><path d="M22.91,52a1.408,1.408,0,0,1,.2.01l12.78,1.42a14.956,14.956,0,0,0,9.16-1.92l13.63-7.88a1.986,1.986,0,0,0,.73-2.73,2,2,0,0,0-2.73-.73L46.01,46.33a5.009,5.009,0,0,1-2.5.67H33V45H43a2,2,0,0,0,0-4H36a.937.937,0,0,1-.37-.07l-3.21-1.29A9.149,9.149,0,0,0,29.07,39h-1.3a9,9,0,0,0-4.63,1.28l-2.63,1.58A1,1,0,0,1,20,42H2V53.991Z"></path><path d="M33.89,28.83l-1.74,1.01a12.3,12.3,0,0,0,3.01,3.01l1.01-1.74A10.274,10.274,0,0,1,33.89,28.83Z"></path><path d="M32.89,27.1a9.748,9.748,0,0,1-.84-3.1h-2a11.873,11.873,0,0,0,1.11,4.11Z"></path><path d="M41,13.05v-2a11.873,11.873,0,0,0-4.11,1.11l1.01,1.73A9.748,9.748,0,0,1,41,13.05Z"></path><path d="M41,34.95v-2a9.748,9.748,0,0,1-3.1-.84l-1.01,1.73A11.873,11.873,0,0,0,41,34.95Z"></path><path d="M33.89,17.17a10.274,10.274,0,0,1,2.28-2.28l-1.01-1.74a12.3,12.3,0,0,0-3.01,3.01Z"></path><path d="M50,23a8,8,0,1,0-8,8A8.011,8.011,0,0,0,50,23ZM38,25h2a1,1,0,0,0,1,1h2a1,1,0,0,0,0-2H41a3,3,0,0,1,0-6V17h2v1a3,3,0,0,1,3,3H44a1,1,0,0,0-1-1H41a1,1,0,0,0,0,2h2a3,3,0,0,1,0,6v1H41V28A3,3,0,0,1,38,25Z"></path><path d="M53.95,24h-2a9.748,9.748,0,0,1-.84,3.1l1.73,1.01A11.873,11.873,0,0,0,53.95,24Z"></path><path d="M43,34.95a11.873,11.873,0,0,0,4.11-1.11L46.1,32.11a9.748,9.748,0,0,1-3.1.84Z"></path><path d="M50.11,28.83a10.274,10.274,0,0,1-2.28,2.28l1.01,1.74a12.3,12.3,0,0,0,3.01-3.01Z"></path><path d="M51.11,18.9a9.748,9.748,0,0,1,.84,3.1h2a11.873,11.873,0,0,0-1.11-4.11Z"></path><path d="M43,11.05v2a9.748,9.748,0,0,1,3.1.84l1.01-1.73A11.873,11.873,0,0,0,43,11.05Z"></path><path d="M30.05,22h2a9.748,9.748,0,0,1,.84-3.1l-1.73-1.01A11.873,11.873,0,0,0,30.05,22Z"></path><path d="M50.11,17.17l1.74-1.01a12.3,12.3,0,0,0-3.01-3.01l-1.01,1.74A10.274,10.274,0,0,1,50.11,17.17Z"></path><path d="M57.6,27.029l1.931.517A18.02,18.02,0,0,0,46.805,5.5l-.517,1.932A16.019,16.019,0,0,1,57.6,27.029Z"></path><path d="M56.2,30.55l1.757.957a17.922,17.922,0,0,0,.913-1.948l-1.858-.739A15.878,15.878,0,0,1,56.2,30.55Z"></path></g></svg>