<svg xmlns="http://www.w3.org/2000/svg" viewBox="0 0 64 64" x="0px" y="0px"><g data-name="Tooth"><path d="M54.7,27.061a3.948,3.948,0,0,0-3,.679,2.924,2.924,0,0,1-3.405,0,3.963,3.963,0,0,0-3-.679,3.995,3.995,0,0,0-2.837,5.794,18.111,18.111,0,0,1,2.115,6.705l.238,2.449A1.1,1.1,0,0,0,47,41.9V39a3,3,0,0,1,6,0v2.9a1.1,1.1,0,0,0,2.188.106l.238-2.449a18.111,18.111,0,0,1,2.115-6.705A3.995,3.995,0,0,0,54.7,27.061ZM50,31a8.356,8.356,0,0,1-3.409-.688l.822-1.823a6.933,6.933,0,0,0,5.177,0l.82,1.823A8.364,8.364,0,0,1,50,31Z"></path><path d="M36.7,27.061a3.951,3.951,0,0,0-3,.679,2.924,2.924,0,0,1-3.405,0,3.955,3.955,0,0,0-3-.679,3.995,3.995,0,0,0-2.837,5.794,18.094,18.094,0,0,1,2.115,6.705l.238,2.449A1.1,1.1,0,0,0,29,41.9V39a3,3,0,0,1,6,0v2.9a1.1,1.1,0,0,0,2.188.106l.238-2.449a18.111,18.111,0,0,1,2.115-6.705A3.995,3.995,0,0,0,36.7,27.061ZM32,31a8.356,8.356,0,0,1-3.409-.688l.821-1.823a6.935,6.935,0,0,0,5.178,0l.82,1.823A8.364,8.364,0,0,1,32,31Z"></path><path d="M60,39a1,1,0,0,0-1-1H57.717a13.7,13.7,0,0,0-.3,1.752l-.237,2.45A3.1,3.1,0,0,1,51,41.9V39a1,1,0,0,0-2,0v2.9a3.1,3.1,0,0,1-6.179.3l-.237-2.449a13.681,13.681,0,0,0-.3-1.753H39.717a13.7,13.7,0,0,0-.3,1.752l-.237,2.45A3.1,3.1,0,0,1,33,41.9V39a1,1,0,0,0-2,0v2.9a3.1,3.1,0,0,1-6.179.3l-.237-2.449a13.853,13.853,0,0,0-.3-1.753H21.717a13.681,13.681,0,0,0-.3,1.753L21.179,42.2A3.1,3.1,0,0,1,15,41.9V39a1,1,0,0,0-2,0v2.9a3.1,3.1,0,0,1-6.179.3l-.237-2.449A13.853,13.853,0,0,0,6.284,38H5a1,1,0,0,0-1,1V50H60Z"></path><path d="M18.7,27.061a3.955,3.955,0,0,0-3,.679,2.922,2.922,0,0,1-3.4,0,3.955,3.955,0,0,0-3-.679,3.995,3.995,0,0,0-2.837,5.794A18.094,18.094,0,0,1,8.574,39.56l.238,2.449A1.1,1.1,0,0,0,11,41.9V39a3,3,0,0,1,6,0v2.9a1.1,1.1,0,0,0,2.188.106l.238-2.449a18.094,18.094,0,0,1,2.115-6.705A3.995,3.995,0,0,0,18.7,27.061ZM14,31a8.365,8.365,0,0,1-3.411-.688l.822-1.823a6.976,6.976,0,0,0,5.177,0l.821,1.823A8.356,8.356,0,0,1,14,31Z"></path></g></svg>