<svg xmlns="http://www.w3.org/2000/svg" viewBox="0 0 64 64" x="0px" y="0px"><g data-name="Perfume-Bottle"><path d="M53.978,50.791l-6-28a1,1,0,0,0-.423-.623L39,16.465V11.381l1.7-1.667A1,1,0,0,0,41,9V4a2,2,0,0,0-2-2H25a2,2,0,0,0-2,2V9a1,1,0,0,0,.293.707L25,11.414v5.051l-8.555,5.7a1,1,0,0,0-.423.623l-6,28a1,1,0,0,0,.083.656l5,10A1,1,0,0,0,16,62H48a1,1,0,0,0,.9-.553l5-10A1,1,0,0,0,53.978,50.791ZM27,12H37v4H27ZM25,4h2V7h2V4h2V7h2V4h2V7h2V4h2V8.58L37.553,10H26.414L25,8.586Zm1.3,14H37.7l8.41,5.607L46.62,26H17.38l.513-2.393ZM16.951,28h30.1l4.714,22H12.237ZM47.382,60H16.618l-4-8H51.382Z"></path></g></svg>