<svg xmlns="http://www.w3.org/2000/svg" viewBox="0 0 64 64" x="0px" y="0px"><title>Faucet</title><g><path d="M57,2H47a1,1,0,0,0-1,1V21H43a3,3,0,0,0-3,3v1H35V22a1,1,0,0,0-1-1V16a3,3,0,0,0-3-3H21a3,3,0,0,0-3,3v1a2,2,0,0,0,2,2h8v2a1,1,0,0,0-1,1v3A11.01,11.01,0,0,0,16.051,35H15a1,1,0,0,0-1,1v4a1,1,0,0,0,1,1h8a1,1,0,0,0,1-1V36a1,1,0,0,0-1-1h-.9A5.009,5.009,0,0,1,27,31H40v1a3,3,0,0,0,3,3h3V61a1,1,0,0,0,1,1H57a1,1,0,0,0,1-1V3A1,1,0,0,0,57,2ZM29,17H20V16a1,1,0,0,1,1-1H31a1,1,0,0,1,1,1v5H30V18A1,1,0,0,0,29,17Zm0,6h4v2H29ZM22,39H16V37h6Zm5-10a7,7,0,0,0-6.92,6H18.059A9.01,9.01,0,0,1,27,27H40v2Zm16,4a1,1,0,0,1-1-1V24a1,1,0,0,1,1-1h3V33ZM56,60H48V4h8Z"></path><path d="M18.177,43.432C17.646,44.2,15,48.126,15,50a4,4,0,0,0,8,0c0-1.874-2.646-5.8-3.177-6.568A1.038,1.038,0,0,0,18.177,43.432ZM19,52a2,2,0,0,1-2-2c0-.662.934-2.474,2-4.179,1.067,1.7,2,3.516,2,4.179A2,2,0,0,1,19,52Z"></path></g></svg>