<svg xmlns="http://www.w3.org/2000/svg" viewBox="0 0 64 64" x="0px" y="0px"><g><path d="M48.182,24.4A3.983,3.983,0,0,1,45,26V24a2,2,0,1,0-2-2H41a3.991,3.991,0,0,1,2.825-3.8A2,2,0,0,0,40,19V32a2,2,0,1,0,3.414-1.414l1.414-1.415a3.988,3.988,0,0,1,.737,1.05,1.958,1.958,0,0,0-.076-2.55l1.483-1.342a3.968,3.968,0,0,1,.836,1.5,1.988,1.988,0,0,0,.374-3.429Z"></path><path d="M32,17a2,2,0,0,0-1.825,1.2A3.991,3.991,0,0,1,33,22H31a2,2,0,1,0-2,2v2a3.983,3.983,0,0,1-3.182-1.6,1.988,1.988,0,0,0,.374,3.429,3.968,3.968,0,0,1,.836-1.5l1.483,1.342a1.958,1.958,0,0,0-.076,2.55,3.988,3.988,0,0,1,.737-1.05l1.414,1.415A2,2,0,1,0,34,32V19A2,2,0,0,0,32,17Z"></path><path d="M52.292,43.233A23,23,0,0,0,20.263,10.227,22.781,22.781,0,0,0,13,27a1,1,0,0,1-.26.673L4.261,37H10a1,1,0,0,1,1,1v7a5.006,5.006,0,0,0,5,5h8a2,2,0,0,1,2,2v8H52V46.194a25.134,25.134,0,0,1-3.369,2.385l-1.012-1.725a23.127,23.127,0,0,0,4.67-3.615ZM53,25h2v2H53ZM49.021,12.565l1.414,1.414-1.414,1.415-1.415-1.415ZM36,8h2v2H36ZM24.979,12.565l1.415,1.414-1.415,1.415-1.414-1.415ZM21,27H19V25h2Zm3.979,12.435-1.414-1.414,1.414-1.415,1.415,1.415ZM32,36a3.992,3.992,0,0,1-3.952-3.523,3.962,3.962,0,0,1-1.935-2.584,3.98,3.98,0,0,1-1.06-7.367,3.84,3.84,0,0,1,3.058-4.418A3.994,3.994,0,0,1,36,19V32A4,4,0,0,1,32,36Zm6,8H36V42h2Zm11.021-4.565-1.415-1.414,1.415-1.415,1.414,1.415Zm-1.134-9.542a3.965,3.965,0,0,1-1.935,2.584A3.99,3.99,0,0,1,38,32V19a3.994,3.994,0,0,1,7.889-.892,3.84,3.84,0,0,1,3.058,4.418,3.98,3.98,0,0,1-1.06,7.367Z"></path></g></svg>