<svg xmlns="http://www.w3.org/2000/svg" viewBox="0 0 64 64" x="0px" y="0px"><g data-name="Mobile Shopping"><path d="M47,50V7a3,3,0,0,0-3-3H20a3,3,0,0,0-3,3v3H43v2H17V57a3,3,0,0,0,3,3H44a3,3,0,0,0,3-3V52H21V50ZM26,8H24V6h2Zm4,0H28V6h2Zm1,47h2v2H31ZM19,19V15a1,1,0,0,1,1-1h4v2H21v3Zm1,10V27h5.219l1.811-7.243,1.94.486L27.281,27h9.438L35.03,20.243l1.94-.486L38.781,27H44v2H41.858l-1.87,12.152A1,1,0,0,1,39,42H25a1,1,0,0,1-.988-.848L22.142,29Z"></path><path d="M38.142,40l1.692-11H24.166l1.692,11ZM35,31h2v7H35Zm-4,0h2v7H31Zm-4,0h2v7H27Z"></path></g></svg>