<svg xmlns="http://www.w3.org/2000/svg" viewBox="0 0 64 64" x="0px" y="0px"><g><path d="M17.5,24A2.5,2.5,0,0,1,15,21.5H13a4.5,4.5,0,0,0,9,0H20A2.5,2.5,0,0,1,17.5,24Z"></path><path d="M43,2H29.391a19.913,19.913,0,0,0-18.34,12.555l-7,21.131A1,1,0,0,0,5,37h5v7a7.008,7.008,0,0,0,7,7h7V61a1,1,0,0,0,1,1H49a1,1,0,0,0,1-1V50.955A11.015,11.015,0,0,0,60,40V19A17.019,17.019,0,0,0,43,2ZM58,40a9.011,9.011,0,0,1-9,9,1,1,0,0,0-1,1V60H26V51h5V49H17a5.006,5.006,0,0,1-5-5V36a1,1,0,0,0-1-1H6.385l6.539-19.748A17.9,17.9,0,0,1,29.391,4H43A15.017,15.017,0,0,1,58,19Z"></path><path d="M52.271,12.555a3.673,3.673,0,0,1-.86-.665,3.658,3.658,0,0,1-.377-1.04,3.712,3.712,0,0,0-1.216-2.23,3.687,3.687,0,0,0-2.484-.47,3.684,3.684,0,0,1-1.12-.042,3.574,3.574,0,0,1-.878-.6A3.79,3.79,0,0,0,43,6.4a3.787,3.787,0,0,0-2.336,1.108,3.574,3.574,0,0,1-.878.6,3.72,3.72,0,0,1-1.12.042,3.7,3.7,0,0,0-2.483.469,3.716,3.716,0,0,0-1.217,2.231,3.65,3.65,0,0,1-.377,1.039,3.634,3.634,0,0,1-.861.666,3.773,3.773,0,0,0-1.761,1.86,3.665,3.665,0,0,0,.321,2.481A3.776,3.776,0,0,1,32.6,18a3.776,3.776,0,0,1-.312,1.1,3.665,3.665,0,0,0-.321,2.481,3.775,3.775,0,0,0,1.762,1.86,3.673,3.673,0,0,1,.86.665,3.658,3.658,0,0,1,.377,1.04,3.712,3.712,0,0,0,1.216,2.23A2.967,2.967,0,0,0,38,27.869V41a1,1,0,0,0,1.625.781L44,38.281l4.375,3.5A1,1,0,0,0,50,41V31a1,1,0,0,0-1-1H44v2h4v6.919l-3.375-2.7a1,1,0,0,0-1.25,0L40,38.919V28a6.189,6.189,0,0,1,.664.5A3.79,3.79,0,0,0,43,29.6a3.787,3.787,0,0,0,2.336-1.108,3.574,3.574,0,0,1,.878-.6,3.722,3.722,0,0,1,1.12-.042,3.691,3.691,0,0,0,2.483-.469,3.716,3.716,0,0,0,1.217-2.231,3.65,3.65,0,0,1,.377-1.039,3.634,3.634,0,0,1,.861-.666,3.773,3.773,0,0,0,1.761-1.86,3.665,3.665,0,0,0-.321-2.481A3.776,3.776,0,0,1,53.4,18a3.776,3.776,0,0,1,.312-1.1,3.665,3.665,0,0,0,.321-2.481A3.775,3.775,0,0,0,52.271,12.555Zm-.428,7.262a2.675,2.675,0,0,1,.288,1.149c-.078.239-.558.549-.944.8a4.989,4.989,0,0,0-1.393,1.169,5.023,5.023,0,0,0-.692,1.7,2.669,2.669,0,0,1-.462,1.133,2.666,2.666,0,0,1-1.2.088,5.094,5.094,0,0,0-1.841.137,4.921,4.921,0,0,0-1.521.952c-.379.308-.808.658-1.073.658s-.694-.35-1.072-.658a4.912,4.912,0,0,0-1.523-.952,3.8,3.8,0,0,0-1.181-.159c-.226,0-.447.011-.658.022a2.681,2.681,0,0,1-1.206-.089,2.658,2.658,0,0,1-.462-1.132,5.036,5.036,0,0,0-.692-1.7,4.985,4.985,0,0,0-1.393-1.168c-.386-.25-.866-.56-.944-.8a2.675,2.675,0,0,1,.288-1.149A5.178,5.178,0,0,0,34.6,18a5.178,5.178,0,0,0-.443-1.817,2.675,2.675,0,0,1-.288-1.149c.078-.239.558-.549.944-.8a4.989,4.989,0,0,0,1.393-1.169,5.023,5.023,0,0,0,.692-1.7,2.669,2.669,0,0,1,.462-1.133,2.68,2.68,0,0,1,1.2-.088,5.163,5.163,0,0,0,1.841-.137,4.921,4.921,0,0,0,1.521-.952C42.306,8.75,42.735,8.4,43,8.4s.694.35,1.072.658a4.912,4.912,0,0,0,1.523.952,5.109,5.109,0,0,0,1.839.137,2.681,2.681,0,0,1,1.206.089,2.658,2.658,0,0,1,.462,1.132,5.036,5.036,0,0,0,.692,1.7,4.985,4.985,0,0,0,1.393,1.168c.386.25.866.56.944.8a2.675,2.675,0,0,1-.288,1.149A5.178,5.178,0,0,0,51.4,18,5.178,5.178,0,0,0,51.843,19.817Z"></path><path d="M43,11a7,7,0,1,0,7,7A7.008,7.008,0,0,0,43,11Zm0,12a5,5,0,1,1,5-5A5.006,5.006,0,0,1,43,23Z"></path></g></svg>