<svg xmlns="http://www.w3.org/2000/svg" viewBox="0 0 64 64" x="0px" y="0px"><title>Contact-Call</title><g><path d="M24.293,33.707a1,1,0,0,0,1.414,0l5.657-5.657a1,1,0,0,0,0-1.414L29.95,25.222l4.242-4.243,1.414,1.415a1,1,0,0,0,1.415,0l5.657-5.658a1,1,0,0,0,0-1.414L40.556,13.2a5,5,0,0,0-7.071,0L22.172,24.515a5,5,0,0,0,0,7.071Zm-.707-7.778L34.9,14.615a3,3,0,0,1,4.243,0l1.415,1.414-4.244,4.243L34.9,18.858a1,1,0,0,0-1.414,0l-5.656,5.657a1,1,0,0,0,0,1.414l1.414,1.414L25,31.586l-1.414-1.414a3,3,0,0,1,0-4.243Z"></path><path d="M59,2H5A3,3,0,0,0,2,5V45a3,3,0,0,0,3,3H22.9l-.8,8H19a1,1,0,0,0-1,1v3H16v2H48V60H46V57a1,1,0,0,0-1-1H41.905l-.8-8H59a3,3,0,0,0,3-3V5A3,3,0,0,0,59,2ZM44,58v2H20V58ZM24.105,56l.8-8H39.1l.8,8ZM60,45a1,1,0,0,1-1,1H5a1,1,0,0,1-1-1V5A1,1,0,0,1,5,4H59a1,1,0,0,1,1,1Z"></path><path d="M56,6H8A2,2,0,0,0,6,8V39a1,1,0,0,0,1,1H57a1,1,0,0,0,1-1V8A2,2,0,0,0,56,6Zm0,32H8V8H56Z"></path><rect x="31" y="42" width="2" height="2"></rect></g></svg>