<svg xmlns="http://www.w3.org/2000/svg" viewBox="0 0 64 64" x="0px" y="0px"><g data-name="Table"><rect x="40" y="11" width="2" height="2"></rect><rect x="34" y="9" width="2" height="2"></rect><path d="M59,20a3,3,0,0,0-3,3V40H41a3,3,0,0,0,0,6h1V61a1,1,0,0,0,1,1h4a1,1,0,0,0,1-1V57h6v4a1,1,0,0,0,1,1h4a1,1,0,0,0,1-1V45.816A3,3,0,0,0,62,43V23A3,3,0,0,0,59,20ZM44,60V46h2V60Zm4-5V46h6v9Zm8,5V46h2V60Zm4-17a1,1,0,0,1-1,1H41a1,1,0,0,1,0-2H57a1,1,0,0,0,1-1V23a1,1,0,0,1,2,0Z"></path><path d="M36,56H30V36H51a1,1,0,0,0,1-1V31a1,1,0,0,0-1-1H40.816A2.966,2.966,0,0,0,41,29V26h1a2,2,0,0,0,2-2V20a2,2,0,0,0-2-2h-.051a2.5,2.5,0,0,0-2.113-2.978A3,3,0,0,0,36.3,13.083a2.993,2.993,0,0,0-5.129.922A3,3,0,0,0,28.041,17.5a2.9,2.9,0,0,0,.959,1.7V29a2.966,2.966,0,0,0,.184,1H24V15a1,1,0,0,0-.293-.707L21,11.586V3a1,1,0,0,0-1-1H16a1,1,0,0,0-1,1v8.586l-2.707,2.707A1,1,0,0,0,12,15V30H3a1,1,0,0,0-1,1v4a1,1,0,0,0,1,1H24V56H18a1,1,0,0,0-1,1v4a1,1,0,0,0,1,1H36a1,1,0,0,0,1-1V57A1,1,0,0,0,36,56Zm6-32H41V20h1ZM30.238,16.353A1,1,0,0,1,31,16a.985.985,0,0,1,.513.149,1,1,0,0,0,1.071-.029,1.008,1.008,0,0,0,.433-.987A.834.834,0,0,1,33,15a1,1,0,0,1,1.937-.327,1,1,0,0,0,1.5.5A1,1,0,0,1,38,16a1,1,0,0,0,1,1h.5a.5.5,0,0,1,0,1H36a1,1,0,0,0-1,1v2.5a.5.5,0,0,1-1,0V19a1,1,0,0,0-1-1H31.107a1.084,1.084,0,0,1-1.092-.824A1,1,0,0,1,30.238,16.353ZM31,29V20h1v1.5a2.5,2.5,0,0,0,5,0V20h2v9a1,1,0,0,1-1,1H32A1,1,0,0,1,31,29ZM19,4V5H17V4ZM14,15.414l2.707-2.707A1,1,0,0,0,17,12V7h2v5a1,1,0,0,0,.293.707L22,15.414V30H14ZM4,32H50v2H4Zm22,4h2V56H26Zm9,24H19V58H35Z"></path><path d="M18,17a3,3,0,1,0,3,3A3,3,0,0,0,18,17Zm0,4a1,1,0,1,1,1-1A1,1,0,0,1,18,21Z"></path></g></svg>