<svg xmlns="http://www.w3.org/2000/svg" viewBox="0 0 64 64" x="0px" y="0px"><g data-name="skyscraper-building-tower-city-real estate"><path d="M58,60V16H56V11H54v5H52V60H50V8H48V3H46V8H44V3H42V8H40V60H38V16H26V60H24V8H22V3H20V8H18V3H16V8H14V60H12V16H10V11H8v5H6V60H2v2H62V60ZM54,18h2v2H54Zm0,4h2v2H54Zm0,4h2v2H54Zm0,4h2v2H54Zm0,4h2v2H54Zm0,4h2v2H54Zm0,4h2v2H54Zm0,4h2v2H54Zm0,4h2v2H54Zm0,4h2v2H54ZM8,18h2v2H8Zm0,4h2v2H8Zm0,4h2v2H8Zm0,4h2v2H8Zm0,4h2v2H8Zm0,4h2v2H8Zm0,4h2v2H8Zm0,4h2v2H8Zm0,4h2v2H8Zm0,4h2v2H8ZM20,10h2v2H20Zm0,4h2v2H20Zm0,4h2v2H20Zm0,4h2v2H20Zm0,4h2v2H20Zm0,4h2v2H20Zm0,4h2v2H20Zm0,4h2v2H20Zm0,4h2v2H20Zm0,4h2v2H20Zm0,4h2v2H20ZM16,10h2v2H16Zm0,4h2v2H16Zm0,4h2v2H16Zm0,4h2v2H16Zm0,4h2v2H16Zm0,4h2v2H16Zm0,4h2v2H16Zm0,4h2v2H16Zm0,4h2v2H16Zm0,4h2v2H16Zm0,4h2v2H16Zm4,10V56H18v4H16V55a1,1,0,0,1,1-1h4a1,1,0,0,1,1,1v5Zm8-42h8v2H28Zm0,4h8v2H28Zm0,4h8v2H28Zm0,4h8v2H28Zm0,4h8v2H28Zm0,4h8v2H28Zm0,4h8v2H28Zm0,4h8v2H28Zm0,4h8v2H28Zm6,10V56H30v4H28V55a1,1,0,0,1,1-1h6a1,1,0,0,1,1,1v5ZM46,10h2v2H46Zm0,4h2v2H46Zm0,4h2v2H46Zm0,4h2v2H46Zm0,4h2v2H46Zm0,4h2v2H46Zm0,4h2v2H46Zm0,4h2v2H46Zm0,4h2v2H46Zm0,4h2v2H46Zm0,4h2v2H46ZM42,10h2v2H42Zm0,4h2v2H42Zm0,4h2v2H42Zm0,4h2v2H42Zm0,4h2v2H42Zm0,4h2v2H42Zm0,4h2v2H42Zm0,4h2v2H42Zm0,4h2v2H42Zm0,4h2v2H42Zm0,4h2v2H42Zm4,10V56H44v4H42V55a1,1,0,0,1,1-1h4a1,1,0,0,1,1,1v5Z"></path></g></svg>