<svg xmlns="http://www.w3.org/2000/svg" viewBox="0 0 64 64" x="0px" y="0px"><g><rect x="7" y="40" width="10" height="2"></rect><rect x="7" y="44" width="10" height="4"></rect><rect x="19" y="12" width="12" height="4"></rect><rect x="19" y="23" width="12" height="19"></rect><rect x="19" y="18" width="12" height="3"></rect><rect x="52" y="56" width="4" height="4"></rect><rect x="4" y="50" width="56" height="4"></rect><rect x="7" y="4" width="10" height="4"></rect><rect x="7" y="10" width="10" height="2"></rect><rect x="8" y="56" width="4" height="4"></rect><rect x="7" y="14" width="10" height="24"></rect><polygon points="47.84 36.97 48.36 38.9 54.16 37.35 53.64 35.42 47.84 36.97"></polygon><polygon points="43.96 22.48 47.32 35.04 53.12 33.48 49.76 20.93 43.96 22.48"></polygon><polygon points="41.37 12.82 42.41 16.68 48.2 15.13 47.17 11.27 41.37 12.82"></polygon><polygon points="48.72 17.06 42.92 18.62 43.44 20.55 49.24 18.99 48.74 17.15 48.72 17.06"></polygon><rect x="49.683" y="39.936" width="5.994" height="6.998" transform="matrix(0.966, -0.259, 0.259, 0.966, -9.442, 15.103)"></rect><rect x="19" y="44" width="12" height="4"></rect><rect x="33" y="10" width="6" height="4"></rect><rect x="33" y="16" width="6" height="2"></rect><rect x="33" y="37" width="6" height="2"></rect><rect x="33" y="41" width="6" height="7"></rect><rect x="33" y="20" width="6" height="15"></rect></g></svg>