<svg xmlns="http://www.w3.org/2000/svg" viewBox="0 0 64 64" x="0px" y="0px"><g><path d="M59,28H51V3a1,1,0,0,0-1-1c-1.618,0-2.355,1.476-2.9,2.553C46.682,5.4,46.354,6,46,6s-.674-.6-1.095-1.443C44.367,3.478,43.63,2,42.01,2s-2.356,1.476-2.895,2.553C38.691,5.4,38.364,6,38.01,6s-.682-.6-1.106-1.447C36.365,3.476,35.628,2,34.01,2s-2.356,1.476-2.895,2.553C30.691,5.4,30.364,6,30.01,6s-.682-.6-1.106-1.447C28.366,3.476,27.628,2,26.01,2s-2.356,1.476-2.9,2.553C22.691,5.4,22.364,6,22.01,6s-.682-.6-1.106-1.447C20.366,3.476,19.628,2,18.01,2s-2.356,1.476-2.9,2.553C14.691,5.4,14.364,6,14.01,6s-.691-.6-1.116-1.452C12.354,3.473,11.616,2,10,2A1,1,0,0,0,9,3V24H4a2,2,0,0,0-2,2V40a2,2,0,0,0,2,2H9V56a2,2,0,0,0,2,2H38v1a3,3,0,0,0,3,3H59a3,3,0,0,0,3-3V31A3,3,0,0,0,59,28ZM4,26H34V40H4Zm7,30V42H34a2,2,0,0,0,2-2V26a2,2,0,0,0-2-2H11V5.236c.035.067.07.137.105.208C11.646,6.523,12.386,8,14.01,8S16.366,6.524,16.9,5.447C17.328,4.6,17.655,4,18.01,4s.681.6,1.1,1.447C19.654,6.524,20.392,8,22.01,8S24.366,6.524,24.9,5.447C25.328,4.6,25.655,4,26.01,4s.681.6,1.1,1.447C27.654,6.524,28.392,8,30.01,8S32.366,6.524,32.9,5.447C33.328,4.6,33.655,4,34.01,4s.681.6,1.105,1.447C35.654,6.524,36.392,8,38.01,8S40.365,6.524,40.9,5.447C41.328,4.6,41.655,4,42.01,4s.682.6,1.105,1.45C43.652,6.526,44.388,8,46,8s2.355-1.476,2.9-2.553l.1-.209V28H41a3,3,0,0,0-3,3V56Zm49,3a1,1,0,0,1-1,1H41a1,1,0,0,1-1-1V31a1,1,0,0,1,1-1H59a1,1,0,0,1,1,1Z"></path><path d="M57,32H43a1,1,0,0,0-1,1v6a1,1,0,0,0,1,1H57a1,1,0,0,0,1-1V33A1,1,0,0,0,57,32Zm-1,6H44V34H56Z"></path><path d="M57,42H43a1,1,0,0,0-1,1V57a1,1,0,0,0,1,1H57a1,1,0,0,0,1-1V43A1,1,0,0,0,57,42Zm-1,7H51V44h5Zm-7-5v5H44V44Zm-5,7h5v5H44Zm7,5V51h5v5Z"></path><rect x="29" y="15" width="10" height="2"></rect><rect x="29" y="19" width="10" height="2"></rect><rect x="17" y="46" width="12" height="2"></rect><rect x="17" y="50" width="12" height="2"></rect><path d="M20,13h2a1,1,0,0,1,1,1h2a3,3,0,0,0-3-3V10H20v1a3,3,0,0,0,0,6h2a1,1,0,0,1,0,2H20a1,1,0,0,1-1-1H17a3,3,0,0,0,3,3v1h2V21a3,3,0,0,0,0-6H20a1,1,0,0,1,0-2Z"></path><path d="M19,28a5,5,0,1,0,5,5A5.006,5.006,0,0,0,19,28Zm0,8a3,3,0,1,1,3-3A3,3,0,0,1,19,36Z"></path><path d="M6,29v3H8V30h2V28H7A1,1,0,0,0,6,29Z"></path><path d="M32,28H29v2h2v2h2V29A1,1,0,0,0,32,28Z"></path><path d="M8,34H6v3a1,1,0,0,0,1,1h3V36H8Z"></path><path d="M31,36H29v2h3a1,1,0,0,0,1-1V34H31Z"></path><rect x="31" y="46" width="4" height="2"></rect><rect x="31" y="50" width="4" height="2"></rect></g></svg>