<svg xmlns="http://www.w3.org/2000/svg" viewBox="0 0 64 64" x="0px" y="0px"><g><polygon points="20 40 20 38 4 38 3.999 38 4 40 20 40"></polygon><path d="M36,42v8.02a2.915,2.915,0,0,1-1.5,2.6,3.379,3.379,0,0,1-.758.282c-.089.022-.179.019-.268.033A3.1,3.1,0,0,1,33,53c-.01,0-.019,0-.029,0a3.075,3.075,0,0,1-.54-.073c-.082-.016-.167-.015-.248-.038a2.937,2.937,0,0,1-.738-.32A3.021,3.021,0,0,1,30,50V46a.957.957,0,0,0-.288-.694,1.025,1.025,0,0,0-1.164-.216.963.963,0,0,0-.548.9,3.9,3.9,0,0,1-2.222,3.623,4.091,4.091,0,0,1-3.959-.256A3.989,3.989,0,0,1,20,46V42H6.22L9.661,59.194A1,1,0,0,0,10.64,60H53.36a1.007,1.007,0,0,0,.98-.808L57.78,42Z"></path><path d="M13.071,32A4.02,4.02,0,0,0,9,36H35.9a4.889,4.889,0,0,0,.1-1,5.006,5.006,0,0,0-5-5,6.99,6.99,0,0,0-3.5.937,1,1,0,1,1-1-1.731,8.969,8.969,0,0,1,3.383-1.133,3.995,3.995,0,0,0-7.745-.114,1,1,0,0,1-1.461.61A4.4,4.4,0,0,0,18.5,28a4.5,4.5,0,0,0-4.326,3.277A1,1,0,0,1,13.071,32Z"></path><rect x="36" y="37.999" width="24" height="2.001"></rect><path d="M32.485,50.854a1.063,1.063,0,0,0,1.086,0A.95.95,0,0,0,34,50.02V38H22v8a2,2,0,0,0,.909,1.681,2.089,2.089,0,0,0,2.055.105A1.907,1.907,0,0,0,26,46.03a2.977,2.977,0,0,1,1.811-2.8,3.384,3.384,0,0,1,.54-.159c.055-.011.109-.019.164-.027a2.982,2.982,0,0,1,.4-.039c.033,0,.067-.009.1-.009s.039.005.06.005a3.04,3.04,0,0,1,.523.052h0a2.951,2.951,0,0,1,.5.154c.047.019.092.042.139.063a2.961,2.961,0,0,1,.345.188c.044.029.088.055.131.086A3.026,3.026,0,0,1,32,46v4A1,1,0,0,0,32.485,50.854Z"></path><path d="M8,14a1,1,0,0,0,1-1V12a1,1,0,0,0-2,0v1A1,1,0,0,0,8,14Z"></path><path d="M5,16H6a1,1,0,0,0,0-2H5a1,1,0,0,0,0,2Z"></path><path d="M8,16a1,1,0,0,0-1,1v1a1,1,0,0,0,2,0V17A1,1,0,0,0,8,16Z"></path><path d="M10,16h1a1,1,0,0,0,0-2H10a1,1,0,0,0,0,2Z"></path><path d="M35,6a1,1,0,0,0,1-1V4a1,1,0,0,0-2,0V5A1,1,0,0,0,35,6Z"></path><path d="M32,8h1a1,1,0,0,0,0-2H32a1,1,0,0,0,0,2Z"></path><path d="M35,8a1,1,0,0,0-1,1v1a1,1,0,0,0,2,0V9A1,1,0,0,0,35,8Z"></path><path d="M37,8h1a1,1,0,0,0,0-2H37a1,1,0,0,0,0,2Z"></path><circle cx="17" cy="8" r="1"></circle><circle cx="26" cy="17" r="2"></circle><path d="M43.721,25h6.558l.772-2.316A1,1,0,0,1,52,22h8V21H42.387Z"></path><path d="M50.874,19a4,4,0,0,0-7.748,0Z"></path></g></svg>