<svg xmlns="http://www.w3.org/2000/svg" viewBox="0 0 48 48" x="0px" y="0px"><g data-name="Money-Saving"><path d="M5,20.414V36h8a2.634,2.634,0,0,0,.729-.093A3,3,0,0,0,16,33V29a2.988,2.988,0,0,0-2.247-2.9A1,1,0,0,1,13,25.13V19a1.015,1.015,0,0,0-.214-.612.946.946,0,0,0-.5-.338c-.012,0-.021-.011-.032-.014l0,0A1,1,0,0,0,11,19V30H9V19a2.944,2.944,0,0,1,.892-2.126,2.987,2.987,0,0,1,2.337-.857l5.794-5.794a3.013,3.013,0,0,0,.586-3.417Z"></path><path d="M3,42H17V38H3Zm10-3h2v2H13Z"></path><path d="M24,27a7,7,0,1,0-7-7A7.008,7.008,0,0,0,24,27Zm-4-5h2v1h4V21H22a2,2,0,0,1-2-2V17a2,2,0,0,1,2-2h1V14h2v1h1a2,2,0,0,1,2,2v1H26V17H22v2h4a2,2,0,0,1,2,2v2a2,2,0,0,1-2,2H25v1H23V25H22a2,2,0,0,1-2-2Z"></path><path d="M29.1,8.1a2.985,2.985,0,0,0,.877,2.123l5.794,5.794a2.991,2.991,0,0,1,2.355.876A2.924,2.924,0,0,1,39,19V30H37V19a1,1,0,0,0-1.255-.961l0,0c-.011,0-.02.01-.032.014a.943.943,0,0,0-.494.334A1.019,1.019,0,0,0,35,19v6.13a1,1,0,0,1-.753.969A2.988,2.988,0,0,0,32,29v4a2.988,2.988,0,0,0,2.247,2.9c.012,0,.024,0,.036.008A2.679,2.679,0,0,0,35,36h8V20.414L29.391,6.805A2.987,2.987,0,0,0,29.1,8.1Z"></path><path d="M45,38H31v4H45ZM35,41H33V39h2Z"></path></g></svg>