<svg xmlns="http://www.w3.org/2000/svg" viewBox="0 0 64 64" x="0px" y="0px"><g data-name="Artificial Intelligence"><path d="M31,38V25a3.994,3.994,0,0,0-7.889-.892,3.84,3.84,0,0,0-3.058,4.418,3.98,3.98,0,0,0,1.06,7.367,3.967,3.967,0,0,0,1.935,2.585A3.99,3.99,0,0,0,31,38Zm-2,0a2,2,0,1,1-3.414-1.414l-1.414-1.414a3.972,3.972,0,0,0-.737,1.05,1.958,1.958,0,0,1,.077-2.551l-1.485-1.342a3.958,3.958,0,0,0-.834,1.5,1.988,1.988,0,0,1-.375-3.429A3.98,3.98,0,0,0,24,32V30a2,2,0,1,1,2-2h2a3.991,3.991,0,0,0-2.825-3.8A2,2,0,0,1,29,25Z"></path><path d="M40.952,38.478a3.967,3.967,0,0,0,1.935-2.585,3.98,3.98,0,0,0,1.06-7.367,3.84,3.84,0,0,0-3.058-4.418A3.994,3.994,0,0,0,33,25V38a3.99,3.99,0,0,0,7.952.478ZM35,38V25a2,2,0,0,1,3.825-.8A3.991,3.991,0,0,0,36,28h2a2,2,0,1,1,2,2v2a3.98,3.98,0,0,0,3.182-1.6,1.988,1.988,0,0,1-.375,3.429,3.958,3.958,0,0,0-.834-1.5l-1.485,1.342a1.958,1.958,0,0,1,.077,2.551,3.972,3.972,0,0,0-.737-1.05l-1.414,1.414A2,2,0,1,1,35,38Z"></path><path d="M12,22a3,3,0,1,0-3-3A3,3,0,0,0,12,22Zm0-4a1,1,0,1,1-1,1A1,1,0,0,1,12,18Z"></path><path d="M21.293,22.707l1.414-1.414-3-3A1,1,0,0,0,19,18H17v2h1.586Z"></path><path d="M20.707,42.707l2-2-1.414-1.414L19.586,41H15v2h5A1,1,0,0,0,20.707,42.707Z"></path><rect x="9" y="41" width="4" height="2"></rect><rect x="9" y="38" width="4" height="2"></rect><path d="M45,43h2V41H45.414l-1.707-1.707-1.414,1.414,2,2A1,1,0,0,0,45,43Z"></path><rect x="45" y="23" width="4" height="2"></rect><rect x="51" y="23" width="4" height="2"></rect><rect x="51" y="26" width="4" height="2"></rect><path d="M52,39a3,3,0,1,0,3,3A3,3,0,0,0,52,39Zm0,4a1,1,0,1,1,1-1A1,1,0,0,1,52,43Z"></path><rect x="13" y="24" width="2" height="12"></rect><path d="M49,52H15V45H13V57a5.006,5.006,0,0,0,5,5H46a5.006,5.006,0,0,0,5-5V47H49Zm-3,8H18a3,3,0,0,1-3-3V54H49v3A3,3,0,0,1,46,60Z"></path><rect x="49" y="30" width="2" height="7"></rect><path d="M15,12H49v9h2V7a5.006,5.006,0,0,0-5-5H18a5.006,5.006,0,0,0-5,5v7h2Zm3-8H46a3,3,0,0,1,3,3v3H15V7A3,3,0,0,1,18,4Z"></path><rect x="19" y="6" width="2" height="2"></rect><rect x="23" y="6" width="6" height="2"></rect><rect x="29" y="56" width="6" height="2"></rect><rect x="31" y="46" width="2" height="2"></rect><rect x="35" y="46" width="2" height="2"></rect><rect x="27" y="46" width="2" height="2"></rect></g></svg>