<svg xmlns="http://www.w3.org/2000/svg" viewBox="0 0 64 64" x="0px" y="0px"><title>Idea make Money</title><g data-name="Idea make Money"><path d="M32,19a1,1,0,0,1,1,1h2a3,3,0,0,0-2-2.816V16H31v1.184A2.993,2.993,0,0,0,32,23a1,1,0,1,1-1,1H29a3,3,0,0,0,2,2.816V28h2V26.816A2.993,2.993,0,0,0,32,21a1,1,0,0,1,0-2Z"></path><rect x="36" y="21" width="2" height="2"></rect><rect x="26" y="21" width="2" height="2"></rect><rect x="31" y="2" width="2" height="4"></rect><rect x="18.272" y="7.271" width="2" height="4.001" transform="translate(-0.912 16.343) rotate(-45)"></rect><rect x="12" y="21" width="4" height="2"></rect><rect x="17.271" y="33.728" width="4.001" height="2" transform="translate(-18.912 23.799) rotate(-45)"></rect><rect x="42.728" y="8.272" width="4.001" height="2" transform="translate(6.544 34.343) rotate(-45)"></rect><rect x="48" y="21" width="4" height="2"></rect><rect x="43.728" y="32.728" width="2" height="4.001" transform="translate(-11.456 41.799) rotate(-45)"></rect><path d="M33,60V57h7a7.009,7.009,0,0,0,7-7V48a1,1,0,0,0-1-1H38a6.973,6.973,0,0,0-5,2.111V44h3a1,1,0,0,0,1-1V40h3V38H38V34.649a14,14,0,1,0-12,0V38H24v2h3v3a1,1,0,0,0,1,1h3v4.111A6.973,6.973,0,0,0,26,46H18a1,1,0,0,0-1,1v2a7.009,7.009,0,0,0,7,7h7v4H2v2H62V60ZM27.385,33.077a12,12,0,1,1,9.23,0A1,1,0,0,0,36,34v4H33V30.941a9,9,0,1,0-2,0V38H28V34A1,1,0,0,0,27.385,33.077ZM32,29a7,7,0,1,1,7-7A7.009,7.009,0,0,1,32,29ZM29,40h6v2H29Zm9,9h7v1a5.006,5.006,0,0,1-5,5H33V54A5.006,5.006,0,0,1,38,49ZM24,54a5.006,5.006,0,0,1-5-5V48h7a5.006,5.006,0,0,1,5,5v1Z"></path></g></svg>