<svg xmlns="http://www.w3.org/2000/svg" viewBox="0 0 64 64" x="0px" y="0px"><g><path d="M50,30a8.96,8.96,0,0,0-3-6.694V23.22A2.985,2.985,0,0,0,48,21V19a3,3,0,0,0-2-2.816V16a14,14,0,0,0-28,0v.184A3,3,0,0,0,16,19v2a2.98,2.98,0,0,0,1.056,2.266,8.967,8.967,0,0,0,.563,13.941A12.921,12.921,0,0,0,15,45V61a1,1,0,0,0,1,1H48a1,1,0,0,0,1-1V45a12.921,12.921,0,0,0-2.619-7.793A9,9,0,0,0,50,30Zm-2,0a6.993,6.993,0,0,1-2.946,5.69A12.947,12.947,0,0,0,37,32.051V29.188a6.021,6.021,0,0,0,2.747-3.471A2.966,2.966,0,0,0,43.816,24H45v5h-.184a3,3,0,1,0,0,2H45a2,2,0,0,0,2-2V26.4A6.978,6.978,0,0,1,48,30ZM40,17a1,1,0,0,1,2,0v6a1,1,0,0,1-2,0Zm-1.22-2H25.22a2.986,2.986,0,0,0-1.716-.949,9,9,0,0,1,17,0A2.986,2.986,0,0,0,38.78,15ZM22,17a1,1,0,0,1,2,0v6a1,1,0,0,1-2,0Zm4,6V17H38v7a4,4,0,0,1-4,4H30a4,4,0,0,1-4-4Zm4,7h4a6,6,0,0,0,1-.09v2.74L32,36.4,29,32.65V29.91A6,6,0,0,0,30,30Zm-1.927,4.692,2.5,3.127-2.131,1.6-1.32-3.3ZM32,39.25l2.763,2.072L32,47.538l-2.763-6.216Zm3.556.167-2.131-1.6,2.5-3.127.949,1.425ZM44,18h1a1,1,0,0,1,1,1v2a1,1,0,0,1-1,1H44ZM43,30a1,1,0,1,1-1-1A1,1,0,0,1,43,30ZM32,4A12.013,12.013,0,0,1,44,16h-.184a3.005,3.005,0,0,0-1.1-1.457,10.985,10.985,0,0,0-21.42,0A3,3,0,0,0,20.184,16H20A12.013,12.013,0,0,1,32,4ZM18,19a1,1,0,0,1,1-1h1v4H19a1,1,0,0,1-1-1ZM16,30a7.011,7.011,0,0,1,3.412-6h.772a2.966,2.966,0,0,0,4.069,1.717A6.021,6.021,0,0,0,27,29.188v2.863a12.947,12.947,0,0,0-8.054,3.639A6.993,6.993,0,0,1,16,30ZM47,60H43V54.447a8.417,8.417,0,0,0,0-10.894V42H41v2a1,1,0,0,0,.4.8c.9.679,1.6,2.815,1.6,4.2s-.7,3.522-1.6,4.2a1,1,0,0,0-.4.8v6H23V54a1,1,0,0,0-.4-.8c-.9-.679-1.6-2.815-1.6-4.2s.7-3.522,1.6-4.2A1,1,0,0,0,23,44V42H21v1.553a8.417,8.417,0,0,0,0,10.894V60H17V45a11.013,11.013,0,0,1,9-10.81l-.837,1.255a1,1,0,0,0-.1.927l6.015,14.034a1,1,0,0,0,1.828,0l6.015-14.034a1,1,0,0,0-.1-.927l-.837-1.255A11.013,11.013,0,0,1,47,45Z"></path><path d="M32,26a4,4,0,0,0,4-4H34a2,2,0,0,1-4,0H28A4,4,0,0,0,32,26Z"></path></g></svg>