<svg xmlns="http://www.w3.org/2000/svg" viewBox="0 0 64 64" x="0px" y="0px"><g><circle cx="28" cy="39" r="1"></circle><path d="M16,45V33a1,1,0,0,1,1-1H45a1,1,0,0,1,1,1V45h2V44a12,12,0,0,0,2.534-23.727,1,1,0,0,1-.773-.8A13.989,13.989,0,0,0,23.606,15.5a.982.982,0,0,1-.944.533l-.2-.013C22.311,16.011,22.157,16,22,16a11.016,11.016,0,0,0-10.894,9.557,1,1,0,0,1-.7.827A9,9,0,0,0,13,44h1v1Z"></path><path d="M44,34H18V50.586l6.293-6.293a1,1,0,0,1,1.414,0L28.5,47.086l7.793-7.793a1,1,0,0,1,1.414,0L44,45.586ZM28,42a3,3,0,1,1,3-3A3,3,0,0,1,28,42Z"></path><polygon points="29.914 48.5 35.414 54 44 54 44 48.414 37 41.414 29.914 48.5"></polygon><polygon points="18 54 22 54 32.586 54 25 46.414 18 53.414 18 54"></polygon></g></svg>