<svg xmlns="http://www.w3.org/2000/svg" viewBox="0 0 64 64" x="0px" y="0px"><g data-name="Business-Man-Avatar"><path d="M37,28.051V25.9A5.009,5.009,0,0,0,41,21V19a3,3,0,0,0,3-3V7a5.006,5.006,0,0,0-5-5H21a1,1,0,0,0-1,1,8.937,8.937,0,0,0,1.139,4.37,2.965,2.965,0,0,0-1.487,3.359l.891,3.558A2.994,2.994,0,0,0,23,19v2a5.009,5.009,0,0,0,4,4.9v2.152A13.008,13.008,0,0,0,15,41V61a1,1,0,0,0,1,1H48a1,1,0,0,0,1-1V41A13.008,13.008,0,0,0,37,28.051Zm3.753,6.578-2.308,1.539a1,1,0,0,0-.152,1.539l1.2,1.2-4.959,3.857,4.4-10.391a1,1,0,0,0-.1-.927l-.837-1.255c.324.06.641.136.954.223Zm-15.2,1.539-2.308-1.539,1.8-4.216c.313-.087.63-.163.954-.223l-.837,1.255a1,1,0,0,0-.1.927l4.4,10.391-4.959-3.857,1.2-1.2a1,1,0,0,0-.152-1.539ZM35,26v2.65L32,32.4,29,28.65V26Zm-6.927,4.692,2.5,3.127-2.131,1.6-1.32-3.3ZM32,35.25l2.763,2.072L32,43.538l-2.763-6.216Zm3.556.167-2.131-1.6,2.5-3.127.949,1.425ZM41,17V15a1,1,0,0,1,0,2ZM39,4a3,3,0,0,1,3,3v6.184A2.966,2.966,0,0,0,41,13V12a1,1,0,0,0-1-1,3.436,3.436,0,0,1-3.051-2.316,1,1,0,0,0-1.656-.391C33.9,9.688,30.277,10,29,10a7.011,7.011,0,0,1-6.929-6ZM23,9.689V13a3.007,3.007,0,0,0-.7.089l-.712-2.846a.99.99,0,0,1,.181-.858.973.973,0,0,1,.58-.337Q22.662,9.384,23,9.689ZM22,16a1,1,0,0,1,1-1v2A1,1,0,0,1,22,16Zm3,5V11.05A8.934,8.934,0,0,0,29,12c.478,0,4.2-.048,6.647-1.487A5.146,5.146,0,0,0,39,12.907V21a3,3,0,0,1-3,3H28A3,3,0,0,1,25,21ZM17,41a10.994,10.994,0,0,1,5.385-9.442l-1.3,3.048a1,1,0,0,0,.364,1.226l1.985,1.323-1.137,1.138a1,1,0,0,0,.093,1.5L31,46.489V60H23V41H21V60H17ZM47,60H43V41H41V60H33V46.489l8.614-6.7a1,1,0,0,0,.093-1.5L40.57,37.155l1.985-1.323a1,1,0,0,0,.364-1.226l-1.3-3.048A10.994,10.994,0,0,1,47,41Z"></path><path d="M34.29,14.71A1.052,1.052,0,0,0,35,15a1.355,1.355,0,0,0,.2-.02.636.636,0,0,0,.18-.06.556.556,0,0,0,.17-.09c.06-.04.11-.08.16-.12a1.155,1.155,0,0,0,.21-.33A1,1,0,0,0,36,14a1,1,0,1,0-2,0,1,1,0,0,0,.08.38A1.155,1.155,0,0,0,34.29,14.71Z"></path><path d="M29,15a.99.99,0,0,0,1-1,.838.838,0,0,0-.08-.38,1.155,1.155,0,0,0-.21-.33,1.047,1.047,0,0,0-1.42,0,1.155,1.155,0,0,0-.21.33A1,1,0,0,0,28,14a.99.99,0,0,0,1,1Z"></path></g></svg>