<svg xmlns="http://www.w3.org/2000/svg" viewBox="0 0 64 64" x="0px" y="0px"><g data-name="Smartphone-Control-Air Conditioner-Electronic-Technology"><polygon points="29.293 51.293 27.586 53 26 53 26 51.414 27.707 49.707 26.293 48.293 25 49.586 23.707 48.293 22.293 49.707 24 51.414 24 53 22.414 53 20.707 51.293 19.293 52.707 20.586 54 19.293 55.293 20.707 56.707 22.414 55 24 55 24 56.586 22.293 58.293 23.707 59.707 25 58.414 26.293 59.707 27.707 58.293 26 56.586 26 55 27.586 55 29.293 56.707 30.707 55.293 29.414 54 30.707 52.707 29.293 51.293"></polygon><polygon points="46.293 53.293 44.586 55 43 55 43 53.414 44.707 51.707 43.293 50.293 42 51.586 40.707 50.293 39.293 51.707 41 53.414 41 55 39.414 55 37.707 53.293 36.293 54.707 37.586 56 36.293 57.293 37.707 58.707 39.414 57 41 57 41 58.586 39.293 60.293 40.707 61.707 42 60.414 43.293 61.707 44.707 60.293 43 58.586 43 57 44.586 57 46.293 58.707 47.707 57.293 46.414 56 47.707 54.707 46.293 53.293"></polygon><path d="M45,38a1,1,0,0,0,1-1V31.9A5.009,5.009,0,0,1,42,27V24H34.8a10,10,0,0,1-19.6,0H5a1,1,0,0,0-1,1V37a1,1,0,0,0,1,1H9V35a1,1,0,0,1,1-1H40a1,1,0,0,1,1,1v3Z"></path><path d="M60,7a3,3,0,0,0-3-3H47a3,3,0,0,0-3,3V27a3,3,0,0,0,3,3H57a3,3,0,0,0,3-3ZM50,6h4V8H50ZM46,6h2V8H46Zm8,22H50V26h4Zm-3-6V20h2v2Zm3.121-3.121a3.072,3.072,0,0,0-4.242,0l-1.414-1.414a5,5,0,0,1,7.07,0ZM56.95,16.05a7.009,7.009,0,0,0-9.9,0l-1.414-1.414a9.012,9.012,0,0,1,12.728,0Z"></path><rect x="11" y="36" width="28" height="2"></rect><path d="M25,30a8,8,0,1,0-8-8A8.009,8.009,0,0,0,25,30Zm1-3H24V25h2Zm1.122-3.121a3,3,0,0,0-4.244,0l-1.414-1.414a5.008,5.008,0,0,1,7.072,0Zm4.242-4.243L29.95,21.05a7.009,7.009,0,0,0-9.9,0l-1.414-1.414A9.009,9.009,0,0,1,31.364,19.636Z"></path><rect x="24" y="42" width="2" height="4"></rect><path d="M34,46.586V42H32v5a1,1,0,0,0,.293.707l3,3,1.414-1.414Z"></path><polygon points="12.293 53.293 10.586 55 9 55 9 53.414 10.707 51.707 9.293 50.293 8 51.586 6.707 50.293 5.293 51.707 7 53.414 7 55 5.414 55 3.707 53.293 2.293 54.707 3.586 56 2.293 57.293 3.707 58.707 5.414 57 7 57 7 58.586 5.293 60.293 6.707 61.707 8 60.414 9.293 61.707 10.707 60.293 9 58.586 9 57 10.586 57 12.293 58.707 13.707 57.293 12.414 56 13.707 54.707 12.293 53.293"></polygon><path d="M16,46.586l-2.707,2.707,1.414,1.414,3-3A1,1,0,0,0,18,47V42H16Z"></path><rect x="36" y="42" width="2" height="2"></rect><rect x="12" y="42" width="2" height="2"></rect><rect x="20" y="42" width="2" height="2"></rect><rect x="28" y="42" width="2" height="2"></rect></g></svg>