<svg xmlns="http://www.w3.org/2000/svg" viewBox="0 0 48 48" x="0px" y="0px"><g data-name="Curency Exchange"><path d="M9,46H39a1,1,0,0,0,1-1V11H34a3,3,0,0,1-3-3V2H9A1,1,0,0,0,8,3V45A1,1,0,0,0,9,46ZM34.912,24.674l2.624-2.623,1.414,1.414-4.243,4.242a1,1,0,0,1-1.414,0L29.05,23.465l1.414-1.414,2.392,2.391A9,9,0,0,0,15,26H13a11,11,0,0,1,21.912-1.326ZM31,28v2H29V28Zm-9-2v2h4a2,2,0,0,1,2,2v2a2,2,0,0,1-2,2H25v2H23V34H22a2,2,0,0,1-2-2V31h2v1h4V30H22a2,2,0,0,1-2-2V26a2,2,0,0,1,2-2h1V22h2v2h1a2,2,0,0,1,2,2v1H26V26Zm-3,2v2H17V28ZM16,6h4V8H16ZM12,6h2V8H12Zm0,4h8v2H12Zm1.293,19.293a1,1,0,0,1,1.414,0l4.243,4.242-1.414,1.414-2.392-2.391A9,9,0,0,0,33,31h2a11,11,0,0,1-21.912,1.326l-2.624,2.623L9.05,33.535Z"></path><path d="M38.586,9,33,3.414V8a1,1,0,0,0,1,1Z"></path></g></svg>