<svg xmlns="http://www.w3.org/2000/svg" viewBox="0 0 64 64" x="0px" y="0px"><g data-name="Heart Rate-Health-Smartphone-Application-Smartwatch"><path d="M46,2H18a6,6,0,0,0-6,6V20h2V12H50v8h2V8A6,6,0,0,0,46,2Zm4,8H14V8a4,4,0,0,1,4-4H46a4,4,0,0,1,4,4Z"></path><path d="M50,37V52H14V37H12V56a6,6,0,0,0,6,6H46a6,6,0,0,0,6-6V37Zm0,19a4,4,0,0,1-4,4H18a4,4,0,0,1-4-4V54H50Z"></path><rect x="25" y="6" width="2" height="2"></rect><rect x="29" y="6" width="6" height="2"></rect><rect x="31" y="56" width="2" height="2"></rect><path d="M32,28.929a3.072,3.072,0,0,0-4.242,0,3,3,0,0,0,0,4.242l3.535,3.536a1,1,0,0,0,1.414,0l3.535-3.535a3,3,0,0,0,0-4.242A3.071,3.071,0,0,0,32,28.929Zm2.828,2.828L32,34.585l-2.828-2.828a1,1,0,1,1,1.414-1.414l.707.707a1,1,0,0,0,1.414,0l.707-.707a1.023,1.023,0,0,1,1.414,0,1,1,0,0,1,0,1.413Z"></path><path d="M57,31a1,1,0,0,0-.97.76l-1,4L51.97,22.77a1,1,0,0,0-1.94,0l-2.01,8.7-1.04-4.69a1.011,1.011,0,0,0-.9-.78.983.983,0,0,0-1.01.63L43.32,31H41V27a3,3,0,0,0-2.08-2.84L38,14.9a1.015,1.015,0,0,0-1-.9H27a1.015,1.015,0,0,0-1,.9l-.92,9.26A3,3,0,0,0,23,27v4H19a1,1,0,0,0-.97.76l-1,4L13.97,22.77a1,1,0,0,0-1.94,0l-2.01,8.7L8.98,26.78a1.011,1.011,0,0,0-.9-.78.983.983,0,0,0-1.01.63L5.32,31H2v2H6a1,1,0,0,0,.93-.63l.8-1.99,1.29,5.84A1.007,1.007,0,0,0,10,37a.987.987,0,0,0,.97-.77l2.04-8.82,3.02,12.82a.984.984,0,0,0,.96.77H17a1,1,0,0,0,.97-.76L19.78,33H23v5a2.993,2.993,0,0,0,2.09,2.84l.92,8.27A.989.989,0,0,0,27,50H37a.989.989,0,0,0,.99-.89l.92-8.27A2.993,2.993,0,0,0,41,38V33h3a1,1,0,0,0,.93-.63l.8-1.99,1.29,5.84A1.007,1.007,0,0,0,48,37a.987.987,0,0,0,.97-.77l2.04-8.82,3.02,12.82a.984.984,0,0,0,.96.77H55a1,1,0,0,0,.97-.76L57.78,33H62V31ZM27.91,16h8.18l.8,8H27.11ZM36.1,48H27.9l-.78-7h9.76ZM39,38a1,1,0,0,1-1,1H26a1,1,0,0,1-1-1V27a1,1,0,0,1,1-1H38a1,1,0,0,1,1,1Z"></path></g></svg>