<svg xmlns="http://www.w3.org/2000/svg" viewBox="0 0 64 64" x="0px" y="0px"><g><path d="M36.95,18.565a3.005,3.005,0,0,0-4.243,0L18.564,32.707a3.007,3.007,0,0,0,0,4.243l8.486,8.485a3.005,3.005,0,0,0,4.243,0L45.436,31.293a3.007,3.007,0,0,0,0-4.243ZM41.9,26.343l-1.414,1.414-1.414-1.414,1.414-1.414ZM37.657,22.1l1.414,1.414-1.414,1.414-1.414-1.414Zm0,5.656,1.414,1.415-1.414,1.414-1.414-1.415ZM32,22.1l1.414,1.414L32,24.929l-1.414-1.414Zm0,8.485-1.414-1.415L32,27.757l1.414,1.415Zm1.414,4.243L32,36.243l-1.414-1.415L32,33.414Zm-4.242-9.9,1.414,1.414-1.414,1.414-1.414-1.414Zm0,5.657L30.586,32l-1.414,1.414L27.758,32Zm0,5.657,1.414,1.414-1.414,1.414-1.414-1.414Zm-5.657-5.657L24.929,32l-1.414,1.414L22.1,32Zm-4.243,4.242,1.415-1.414L22.1,34.829l-1.414,1.414ZM22.1,37.657l1.414-1.414,1.414,1.414-1.414,1.414ZM26.343,41.9l-1.414-1.414,1.414-1.414,1.414,1.414Zm0-5.656-1.414-1.415,1.414-1.414,1.414,1.415Zm0-5.657-1.414-1.415,1.414-1.414,1.414,1.415Zm2.829,14.142-1.414-1.415L29.172,41.9l1.414,1.415ZM32,41.9l-1.414-1.414L32,39.071l1.414,1.414Zm2.828-2.828-1.414-1.414,1.414-1.414,1.414,1.414Zm0-5.657L33.414,32l1.414-1.414L36.242,32Zm0-5.657-1.414-1.414,1.414-1.414,1.414,1.414Zm0-5.656-1.414-1.415,1.414-1.414,1.414,1.415Zm2.829,14.142-1.414-1.415,1.414-1.414,1.414,1.415Zm2.828-2.829L39.071,32l1.414-1.414L41.9,32Zm2.828-2.828L41.9,29.171l1.414-1.414,1.415,1.415Z"></path><path d="M60.092,18.565A8.941,8.941,0,0,0,57.456,12.2L51.8,6.544a9.01,9.01,0,0,0-12.728,0L6.544,39.071a9,9,0,0,0,0,12.728L12.2,57.456a9.01,9.01,0,0,0,12.728,0L57.456,24.929A8.941,8.941,0,0,0,60.092,18.565ZM46.85,32.707,32.707,46.849a5.006,5.006,0,0,1-7.071,0L17.15,38.364a5.006,5.006,0,0,1,0-7.071L31.293,17.151a5.006,5.006,0,0,1,7.071,0l8.486,8.485A5.006,5.006,0,0,1,46.85,32.707Z"></path></g></svg>