<svg xmlns="http://www.w3.org/2000/svg" viewBox="0 0 64 64" x="0px" y="0px"><g data-name="Smart Car-Car-Smartphone-Mobile-App"><path d="M39,30H25a1,1,0,0,0-1,1v2a1,1,0,0,0,1,1H39a1,1,0,0,0,1-1V31A1,1,0,0,0,39,30ZM28,33H26V31h2Zm10,0H36V31h2Z"></path><path d="M49,12H15V44.659l2.438-4.221a4,4,0,1,1,6.928,4l-3.257,5.641L21.877,52H49ZM19,23H17V21h2Zm0-7v3H17V15a1,1,0,0,1,1-1h4v2ZM42,28H40.618l-.189.379A2.989,2.989,0,0,1,42,31v2a3,3,0,0,1-2,2.816V38a2,2,0,0,1-2,2H36a2,2,0,0,1-2-2V36H30v2a2,2,0,0,1-2,2H26a2,2,0,0,1-2-2V35.816A3,3,0,0,1,22,33V31a2.989,2.989,0,0,1,1.571-2.621L23.382,28H22V26h2a1,1,0,0,1,.895.553l.105.211,2.105-4.211A1,1,0,0,1,28,22h8a1,1,0,0,1,.9.553L39,26.764l.1-.211A1,1,0,0,1,40,26h2Z"></path><rect x="26" y="36" width="2" height="2"></rect><path d="M49,54H22.6a10.954,10.954,0,0,1,.4,2.926v1.3A10.985,10.985,0,0,1,22.846,60H44a5.006,5.006,0,0,0,5-5ZM34,58H30V56h4Z"></path><path d="M21,58.23v-1.3a8.967,8.967,0,0,0-.644-3.343l-1.285-3.212a1,1,0,0,1,.063-.871l3.5-6.062a2,2,0,0,0-3.465-2l-5,8.66-1.732-1L13,48.123V35.15l-4.506,7.8a14.9,14.9,0,0,0-1.92,9.16L7.561,61H20.555A8.923,8.923,0,0,0,21,58.23Z"></path><rect x="36" y="36" width="2" height="2"></rect><polygon points="35.382 24 28.618 24 26.618 28 37.382 28 35.382 24"></polygon><path d="M49,9a5.006,5.006,0,0,0-5-5H20a5.006,5.006,0,0,0-5,5v1H49ZM27,8H25V6h2Zm8,0H29V6h6Z"></path></g></svg>