<svg xmlns="http://www.w3.org/2000/svg" viewBox="0 0 32 32" x="0px" y="0px"><g><path d="M22.224,10.99A7.924,7.924,0,0,0,16.9,8.05,8.216,8.216,0,0,0,16,8a8,8,0,0,0-.9,15.95A8.216,8.216,0,0,0,16,24a7.988,7.988,0,0,0,6.224-13.01Zm-2.517,8.717a1,1,0,0,1-1.414,0l-3-3A1,1,0,0,1,15,16V11a1,1,0,0,1,2,0v4.586l2.707,2.707A1,1,0,0,1,19.707,19.707Z"></path><path d="M21.172,24.555c-.237.143-.48.276-.727.4-.09.044-.179.086-.27.128q-.359.165-.731.3c-.065.024-.128.051-.194.073a9.58,9.58,0,0,1-.943.271c-.08.019-.161.033-.241.05q-.381.079-.77.13c-.095.012-.189.025-.284.035-.335.033-.671.056-1.012.056s-.677-.023-1.012-.056c-.095-.01-.189-.023-.284-.035-.26-.034-.517-.077-.772-.131-.079-.016-.159-.03-.237-.048-.321-.076-.638-.166-.948-.272-.062-.022-.122-.048-.183-.07-.253-.093-.5-.2-.746-.308-.086-.04-.172-.08-.257-.123-.258-.128-.511-.266-.757-.417-.037-.022-.076-.042-.113-.065-.236-.149-.467-.307-.691-.476v6H22V24c-.222.168-.452.325-.687.473C21.267,24.5,21.218,24.526,21.172,24.555Z"></path><path d="M10.829,7.445c.236-.143.479-.276.726-.4.089-.045.179-.087.27-.129q.359-.165.731-.3c.065-.024.128-.051.194-.073a9.58,9.58,0,0,1,.943-.271c.08-.019.161-.033.242-.05.253-.053.51-.1.769-.13.095-.012.189-.025.284-.035C15.323,6.023,15.659,6,16,6s.677.023,1.012.056c.095.01.189.023.284.035.26.034.517.077.772.131.079.016.159.03.237.048.321.076.638.166.948.272.062.022.122.048.183.07q.38.139.746.308c.086.04.172.08.257.123.258.128.51.266.756.416.038.023.077.043.114.066.236.149.467.307.691.476V2L10,2V8c.222-.168.452-.325.687-.473C10.733,7.5,10.782,7.474,10.829,7.445Z"></path></g></svg>