<svg xmlns="http://www.w3.org/2000/svg" viewBox="0 0 64 64" x="0px" y="0px"><g data-name="Pay Per Click"><rect x="52" y="51" width="4" height="2"></rect><rect x="51.379" y="45.5" width="4.243" height="2" transform="translate(-17.211 51.45) rotate(-45)"></rect><rect x="52.5" y="55.379" width="2" height="4.243" transform="translate(-24.989 54.672) rotate(-45)"></rect><rect x="28" y="51" width="4" height="2"></rect><rect x="29.5" y="44.379" width="2" height="4.243" transform="translate(-23.947 35.186) rotate(-45)"></rect><rect x="28.379" y="56.5" width="4.243" height="2" transform="translate(-31.725 38.408) rotate(-45)"></rect><rect x="50" y="14" width="4" height="2"></rect><rect x="49.379" y="6.5" width="4.243" height="2" transform="translate(9.781 38.613) rotate(-45)"></rect><rect x="50.5" y="20.379" width="2" height="4.243" transform="translate(-0.826 43.006) rotate(-45)"></rect><rect x="10" y="14" width="4" height="2"></rect><rect x="11.5" y="5.379" width="2" height="4.243" transform="translate(-1.642 11.036) rotate(-45)"></rect><rect x="10.379" y="21.5" width="4.243" height="2" transform="translate(-12.249 15.429) rotate(-45)"></rect><path d="M21.155,13.57,20,15.3v4.283l1,1V19h2v5.219l2.693.674L27,23.586V23h2v1a1,1,0,0,1-.293.707L27.144,26.27,27.721,28h1.865L31,26.586V5.414L29.586,4H27.721l-.577,1.73,1.563,1.563A1,1,0,0,1,29,8V9H27V8.414L25.586,7H23.414L22,8.414v3.172l1.707,1.707A1,1,0,0,1,24,14v1H22v-.586ZM27,13.586V11h2v3a1,1,0,0,1-.293.707l-2,2-1.414-1.414ZM25,20a1,1,0,0,1,.293-.707l1-1,1.414,1.414L27,20.414V22H25Z"></path><path d="M35.293,7.293,36.856,5.73,36.279,4H34.414L33,5.414V26.586L34.414,28h1.865l.577-1.73-1.563-1.563A1,1,0,0,1,35,24V23h2v.586l1.307,1.307L41,24.219V19h2v1.586l1-1V15.3L42.845,13.57,42,14.414V15H40V14a1,1,0,0,1,.293-.707L42,11.586V8.414L40.586,7H38.414L37,8.414V9H35V8A1,1,0,0,1,35.293,7.293ZM39,22H37V20.414l-.707-.707,1.414-1.414,1,1A1,1,0,0,1,39,20ZM37,11v2.586l1.707,1.707-1.414,1.414-2-2A1,1,0,0,1,35,14V11Z"></path><path d="M48,49a5.006,5.006,0,0,0-5-5H41a5.006,5.006,0,0,0-5,5v1H48Zm-5-1H41V46h2Z"></path><path d="M48,52H36v3a5.006,5.006,0,0,0,5,5h2a5.006,5.006,0,0,0,5-5Z"></path><path d="M43,42H41a2,2,0,0,0-2-2H11a4,4,0,0,1,0-8H29a2,2,0,0,0,2-2V29h2v1a4,4,0,0,1-4,4H11a2,2,0,0,0,0,4H39A4,4,0,0,1,43,42Z"></path></g></svg>