<svg xmlns="http://www.w3.org/2000/svg" viewBox="0 0 64 64" x="0px" y="0px"><g><path d="M54,28.744V10a3,3,0,0,0-3-3H5a3,3,0,0,0-3,3V40a3,3,0,0,0,3,3H32.051A14.991,14.991,0,1,0,54,28.744ZM5,9H51a1,1,0,0,1,1,1v2.371L30.164,22.853a4.985,4.985,0,0,1-4.328,0L4,12.371V10A1,1,0,0,1,5,9ZM4,40V14.589L24.971,24.655a6.966,6.966,0,0,0,6.058,0L52,14.589V27.875A14.941,14.941,0,0,0,32.051,41H5A1,1,0,0,1,4,40ZM47,55A13,13,0,1,1,60,42,13.015,13.015,0,0,1,47,55Z"></path><rect x="10" y="47" width="2" height="2"></rect><rect x="14" y="47" width="10" height="2"></rect><path d="M8,36V34H6v2a3,3,0,0,0,3,3h2V37H9A1,1,0,0,1,8,36Z"></path><rect x="6" y="30" width="2" height="2"></rect><path d="M56,39H54.416l-.051-.123,1.12-1.12a1,1,0,0,0,0-1.414l-2.828-2.828a1.029,1.029,0,0,0-1.414,0l-1.12,1.12L50,34.584V33a1,1,0,0,0-1-1H45a1,1,0,0,0-1,1v1.584l-.123.051-1.12-1.12a1,1,0,0,0-1.414,0l-2.828,2.828a1,1,0,0,0,0,1.414l1.12,1.12L39.584,39H38a1,1,0,0,0-1,1v4a1,1,0,0,0,1,1h1.584l.051.123-1.12,1.12a1,1,0,0,0,0,1.414l2.828,2.828a1.029,1.029,0,0,0,1.414,0l1.12-1.12.123.051V51a1,1,0,0,0,1,1h4a1,1,0,0,0,1-1V49.416l.123-.051,1.12,1.12a1,1,0,0,0,1.414,0l2.828-2.828a1,1,0,0,0,0-1.414l-1.12-1.12L54.416,45H56a1,1,0,0,0,1-1V40A1,1,0,0,0,56,39Zm-1,4H53.706a1,1,0,0,0-.958.715,5.987,5.987,0,0,1-.469,1.139,1,1,0,0,0,.172,1.183l.913.913L51.95,48.364l-.913-.913a1,1,0,0,0-1.183-.172,5.987,5.987,0,0,1-1.139.469,1,1,0,0,0-.715.958V50H46V48.706a1,1,0,0,0-.715-.958,5.987,5.987,0,0,1-1.139-.469,1,1,0,0,0-1.183.172l-.913.913L40.636,46.95l.913-.913a1,1,0,0,0,.172-1.183,5.987,5.987,0,0,1-.469-1.139A1,1,0,0,0,40.294,43H39V41h1.294a1,1,0,0,0,.958-.715,5.987,5.987,0,0,1,.469-1.139,1,1,0,0,0-.172-1.183l-.913-.913,1.414-1.414.913.913a1,1,0,0,0,1.183.172,5.987,5.987,0,0,1,1.139-.469A1,1,0,0,0,46,35.294V34h2v1.294a1,1,0,0,0,.715.958,5.987,5.987,0,0,1,1.139.469,1,1,0,0,0,1.183-.172l.913-.913,1.414,1.414-.913.913a1,1,0,0,0-.172,1.183,5.987,5.987,0,0,1,.469,1.139,1,1,0,0,0,.958.715H55Z"></path><path d="M47,38a4,4,0,1,0,4,4A4,4,0,0,0,47,38Zm0,6a2,2,0,1,1,2-2A2,2,0,0,1,47,44Z"></path></g></svg>