<svg xmlns="http://www.w3.org/2000/svg" viewBox="0 0 64 64" x="0px" y="0px"><g><polygon points="24 39 26.5 39 28.886 35.819 27.673 32.179 24 37.32 24 39"></polygon><polygon points="33.28 35 34.613 31 29.387 31 30.72 35 33.28 35"></polygon><polygon points="33.382 29 34 27.764 34 25.414 32 23.414 30 25.414 30 27.764 30.618 29 33.382 29"></polygon><path d="M25.028,32.442,23.586,31H19.277l-3.333,2H17v2H15v2h2v2H15v1.9A5.018,5.018,0,0,0,19,36V34a1,1,0,0,1,1-1h2a1,1,0,0,1,.707.293l1,1Z"></path><polygon points="24 41 24 43.586 26.892 46.478 28.75 44 26.5 41 24 41"></polygon><polygon points="40 43.586 40 41 37.5 41 35.25 44 37.108 46.478 40 43.586"></polygon><polygon points="40 39 40 37.32 36.327 32.179 35.114 35.819 37.5 39 40 39"></polygon><path d="M22,50.414V56a3,3,0,0,0,3-3V52a1,1,0,0,1,.357-.767l1.884-1.578L25,47.414Z"></path><polygon points="33.5 43 35.75 40 33.5 37 30.5 37 28.25 40 30.5 43 33.5 43"></polygon><path d="M59.069,54.316,52.681,8H46.336L47,17.934A1,1,0,0,1,46,19H19a1,1,0,0,1-1-1.066L18.664,8H12.4L6.8,54.4A5,5,0,0,0,11.768,60H54.115a5,5,0,0,0,4.954-5.684ZM51,42a1,1,0,0,1-1,1,7.009,7.009,0,0,1-7-7V35h-.586l-.942.942.341.477A.994.994,0,0,1,42,37v7a1,1,0,0,1-.293.707L40.414,46l3.293,3.293A1,1,0,0,1,44,50v7a1,1,0,0,1-1,1H42a5.006,5.006,0,0,1-5-5v-.533l-1.661-1.392L35,51.414V53a1,1,0,0,1-.293.707l-2,2a1,1,0,0,1-1.414,0l-2-2A1,1,0,0,1,29,53V51.414l-.339-.339L27,52.467V53a5.006,5.006,0,0,1-5,5H21a1,1,0,0,1-1-1V50a1,1,0,0,1,.293-.707L23.586,46l-1.293-1.293A1,1,0,0,1,22,44V37a.994.994,0,0,1,.187-.581l.341-.477L21.586,35H21v1a7.009,7.009,0,0,1-7,7,1,1,0,0,1-1-1V33a1,1,0,0,1,.485-.857l5-3A1,1,0,0,1,19,29h5a1,1,0,0,1,.707.293l1.5,1.5.981-1.373A1,1,0,0,1,28,29h.382l-.277-.553A1,1,0,0,1,28,28V25a1,1,0,0,1,.293-.707l3-3a1,1,0,0,1,1.414,0l3,3A1,1,0,0,1,36,25v3a1,1,0,0,1-.1.447L35.618,29H36a1,1,0,0,1,.813.419l.981,1.373,1.5-1.5A1,1,0,0,1,40,29h5a1,1,0,0,1,.515.143l5,3A1,1,0,0,1,51,33Z"></path><polygon points="18.931 4 12.887 4 12.645 6 18.797 6 18.931 4"></polygon><polygon points="52.129 4 46.069 4 46.203 6 52.405 6 52.129 4"></polygon><polygon points="30.5 45 28.32 47.906 30.414 50 33.586 50 35.68 47.906 33.5 45 30.5 45"></polygon><path d="M36.759,49.655l1.884,1.578A1,1,0,0,1,39,52v1a3,3,0,0,0,3,3V50.414l-3-3Z"></path><polygon points="31 52.586 32 53.586 33 52.586 33 52 31 52 31 52.586"></polygon><path d="M47,33h1.056l-3.333-2H40.414l-1.442,1.442,1.322,1.85,1-1A1,1,0,0,1,42,33h2a1,1,0,0,1,1,1v2a5.018,5.018,0,0,0,4,4.9V39H47V37h2V35H47Z"></path></g></svg>