<svg xmlns="http://www.w3.org/2000/svg" viewBox="0 0 64 64" x="0px" y="0px"><title>Camera-Photo</title><g><path d="M55,2H9A2,2,0,0,0,7,4V60a2,2,0,0,0,2,2H55a2,2,0,0,0,2-2V4A2,2,0,0,0,55,2ZM40,4V6H24V4ZM23,12H41a1,1,0,0,0,1-1V8h9V56H13V8h9v3A1,1,0,0,0,23,12Zm17-2H24V8H40ZM9,60V4H22V6H12a1,1,0,0,0-1,1V57a1,1,0,0,0,1,1H52a1,1,0,0,0,1-1V7a1,1,0,0,0-1-1H42V4H55l0,56Z"></path><path d="M18,30V42a3,3,0,0,0,3,3H43a3,3,0,0,0,3-3V30a3,3,0,0,0-3-3H38.781l-.622-2.484A2,2,0,0,0,36.219,23H27.781a2,2,0,0,0-1.94,1.516L25.219,27H21A3,3,0,0,0,18,30Zm8-1a1,1,0,0,0,.97-.758L27.781,25H36.22l.81,3.242A1,1,0,0,0,38,29h5a1,1,0,0,1,1,1V42a1,1,0,0,1-1,1H21a1,1,0,0,1-1-1V30a1,1,0,0,1,1-1Z"></path><path d="M32,42a7,7,0,1,0-7-7A7.009,7.009,0,0,0,32,42Zm0-12a5,5,0,1,1-5,5A5.006,5.006,0,0,1,32,30Z"></path></g></svg>