<svg xmlns="http://www.w3.org/2000/svg" viewBox="0 0 64 64" x="0px" y="0px"><g data-name="Avatar-Man-Men-Profile-Waitress-Bow Tie"><path d="M38.57,38.94a1,1,0,0,0,.43-.83V35.89a1,1,0,0,0-.43-.83.974.974,0,0,0-.92-.11L33,36.69v.62l4.65,1.74A.974.974,0,0,0,38.57,38.94Z"></path><path d="M43,16v4a2.015,2.015,0,0,0,2-2A2.006,2.006,0,0,0,43,16Z"></path><path d="M41,14.52V12.74c-.47-.06-.93-.14-1.4-.24A3.032,3.032,0,0,0,41,14.52Z"></path><path d="M31,60V39.44l-3.95,1.48a2.911,2.911,0,0,1-1.05.19,3.027,3.027,0,0,1-1.71-.53A2.994,2.994,0,0,1,23,38.11v-.5L17.91,39.2a7.1,7.1,0,0,0-2.71,1.59l4.34,4.33A5.036,5.036,0,0,1,21,48.66V60Z"></path><path d="M25.66,10.06a11.375,11.375,0,0,0,5.51-4.07,1.041,1.041,0,0,1,1.66,0,11.375,11.375,0,0,0,5.51,4.07,12.535,12.535,0,0,0,2.65.66A7,7,0,0,0,34,4H30a7,7,0,0,0-6.99,6.72A12.535,12.535,0,0,0,25.66,10.06Z"></path><path d="M31,36.69l-4.65-1.74a1.09,1.09,0,0,0-.35-.07,1.067,1.067,0,0,0-.57.18,1,1,0,0,0-.43.83v2.22a1,1,0,0,0,.43.83.974.974,0,0,0,.92.11L31,37.31Z"></path><path d="M35,33.81V31.57a10.68,10.68,0,0,1-6,0v2.24l3,1.12Z"></path><path d="M23,14.52a3.009,3.009,0,0,0,1.4-2.02c-.47.1-.93.18-1.4.24Z"></path><path d="M19,18a2.015,2.015,0,0,0,2,2V16A2.006,2.006,0,0,0,19,18Z"></path><path d="M13,60h6V48.66a3,3,0,0,0-.88-2.12l-4.16-4.17A6.921,6.921,0,0,0,13,45.88Z"></path><path d="M23,21a9,9,0,0,0,18,0V16.72l-.04-.01a5.038,5.038,0,0,1-3.35-3.92l-.15-.94A13.722,13.722,0,0,1,32,8.18a13.722,13.722,0,0,1-5.46,3.67l-.15.93a5.037,5.037,0,0,1-3.35,3.93l-.04.01Zm13-6a2,2,0,1,1-2,2A2,2,0,0,1,36,15Zm-1,7h2a5,5,0,0,1-10,0h2a3,3,0,0,0,6,0Zm-7-7a2,2,0,1,1-2,2A2,2,0,0,1,28,15Z"></path><path d="M51,45.88a6.921,6.921,0,0,0-.96-3.51l-4.16,4.17A3,3,0,0,0,45,48.66V60h6Z"></path><path d="M48.8,40.79a7.1,7.1,0,0,0-2.71-1.59L41,37.61v.5a2.994,2.994,0,0,1-1.29,2.47,3.027,3.027,0,0,1-1.71.53,2.911,2.911,0,0,1-1.05-.19L33,39.44V60H43V48.66a5.036,5.036,0,0,1,1.46-3.54Z"></path></g></svg>