<svg xmlns="http://www.w3.org/2000/svg" viewBox="0 0 64 64" x="0px" y="0px"><g><path d="M59,50H56.82A3,3,0,0,0,57,49V47a3.009,3.009,0,0,0-3-3H48.82A3,3,0,0,0,49,43V41a3.009,3.009,0,0,0-3-3H40.82A3,3,0,0,0,41,37V35a3.009,3.009,0,0,0-3-3H36.33A9.991,9.991,0,0,0,33,13.05V10.17l.71.11a6.559,6.559,0,0,0,1.08.09,7.057,7.057,0,0,0,6.55-4.49l.67-1.76a1,1,0,0,0-.06-.86,1.052,1.052,0,0,0-.71-.49l-1.87-.29A7,7,0,0,0,32,6.35a7,7,0,0,0-7.37-3.87l-1.87.29a1.052,1.052,0,0,0-.71.49,1,1,0,0,0-.06.86l.67,1.76a7.057,7.057,0,0,0,6.55,4.49,6.559,6.559,0,0,0,1.08-.09l.71-.11v2.88A9.991,9.991,0,0,0,27.67,32H26a3.009,3.009,0,0,0-3,3v2a3,3,0,0,0,.18,1H18a3.009,3.009,0,0,0-3,3v2a3,3,0,0,0,.18,1H10a3.009,3.009,0,0,0-3,3v2a3,3,0,0,0,.18,1H5a1,1,0,0,0-1,1,7.008,7.008,0,0,0,7,7h1v1a3.009,3.009,0,0,0,3,3H49a3.009,3.009,0,0,0,3-3V58h1a7.008,7.008,0,0,0,7-7A1,1,0,0,0,59,50ZM33.61,7.6a5.039,5.039,0,0,1,5.45-3.15l.64.1-.23.61a5.039,5.039,0,0,1-5.45,3.15l-.64-.1Zm-3.63.71a5.039,5.039,0,0,1-5.45-3.15l-.23-.61.64-.1A5.039,5.039,0,0,1,30.39,7.6l.23.61ZM49,48V46h2v2h2V46h1a1,1,0,0,1,1,1v2a1,1,0,0,1-1,1H42a1,1,0,0,1-1-1V47a1,1,0,0,1,1-1h1v2h2V46h2v2Zm-8-6V40h2v2h2V40h1a1,1,0,0,1,1,1v2a1,1,0,0,1-1,1H34a1,1,0,0,1-1-1V41a1,1,0,0,1,1-1h1v2h2V40h2v2ZM29,48V46h2v2h2V46h2v2h2V46h1a1,1,0,0,1,1,1v2a1,1,0,0,1-1,1H26a1,1,0,0,1-1-1V47a1,1,0,0,1,1-1h1v2ZM24,23a8,8,0,1,1,8,8A8.011,8.011,0,0,1,24,23Zm1,12a1,1,0,0,1,1-1h1v2h2V34h2v2h2V34h2v2h2V34h1a1,1,0,0,1,1,1v2a1,1,0,0,1-1,1H26a1,1,0,0,1-1-1Zm-8,6a1,1,0,0,1,1-1h1v2h2V40h2v2h2V40h2v2h2V40h1a1,1,0,0,1,1,1v2a1,1,0,0,1-1,1H18a1,1,0,0,1-1-1ZM9,47a1,1,0,0,1,1-1h1v2h2V46h2v2h2V46h2v2h2V46h1a1,1,0,0,1,1,1v2a1,1,0,0,1-1,1H10a1,1,0,0,1-1-1ZM50,59a1,1,0,0,1-1,1H15a1,1,0,0,1-1-1V58H50Zm3-3H11a5.009,5.009,0,0,1-4.9-4H57.9A5.009,5.009,0,0,1,53,56Z"></path><path d="M33,29V28a3,3,0,0,0,0-6H31a1,1,0,0,1,0-2h2a1,1,0,0,1,1,1h2a3,3,0,0,0-3-3V17H31v1a3,3,0,0,0,0,6h2a1,1,0,0,1,0,2H31a1,1,0,0,1-1-1H28a3,3,0,0,0,3,3v1Z"></path><polygon points="12 28 14 28 14 26 16 26 16 24 14 24 14 22 12 22 12 24 10 24 10 26 12 26 12 28"></polygon><polygon points="50 28 52 28 52 26 54 26 54 24 52 24 52 22 50 22 50 24 48 24 48 26 50 26 50 28"></polygon></g></svg>