<svg xmlns="http://www.w3.org/2000/svg" viewBox="0 0 64 64" x="0px" y="0px"><g><path d="M57,2H7A5.006,5.006,0,0,0,2,7V43a5.006,5.006,0,0,0,5,5h6V46H7a3,3,0,0,1-3-3V30.974A4.948,4.948,0,0,0,7,32H57a4.948,4.948,0,0,0,3-1.026V43a3,3,0,0,1-3,3H51v2h6a5.006,5.006,0,0,0,5-5V7A5.006,5.006,0,0,0,57,2Zm3,5v3.931A8.008,8.008,0,0,1,53.069,4H57A3,3,0,0,1,60,7ZM7,4h3.931A8.008,8.008,0,0,1,4,10.931V7A3,3,0,0,1,7,4ZM4,27V23.069A8.008,8.008,0,0,1,10.931,30H7A3,3,0,0,1,4,27Zm8.949,3A10.015,10.015,0,0,0,4,21.051v-8.1A10.015,10.015,0,0,0,12.949,4h38.1A10.015,10.015,0,0,0,60,12.949v8.1A10.015,10.015,0,0,0,51.051,30ZM60,27a3,3,0,0,1-3,3H53.069A8.008,8.008,0,0,1,60,23.069Z"></path><path d="M32,9a8,8,0,1,0,8,8A8.009,8.009,0,0,0,32,9Zm0,14a6,6,0,1,1,6-6A6.006,6.006,0,0,1,32,23Z"></path><rect x="44" y="16" width="2" height="2"></rect><rect x="18" y="16" width="2" height="2"></rect><rect x="6" y="34" width="17" height="2"></rect><rect x="6" y="38" width="12" height="2"></rect><rect x="6" y="42" width="8" height="2"></rect><rect x="45" y="34" width="13" height="2"></rect><rect x="46" y="38" width="12" height="2"></rect><rect x="50" y="42" width="8" height="2"></rect><path d="M15.843,43.181A2.786,2.786,0,1,0,19.1,47.7l1.9-1.4V60a2,2,0,0,0,2,2H41a2,2,0,0,0,2-2V46.307l1.9,1.4a2.768,2.768,0,0,0,1.64.54,2.85,2.85,0,0,0,.493-.044,2.785,2.785,0,0,0,1.122-5.018L43,39.54V34a1,1,0,0,0-1-1H38a1,1,0,0,0-1,1v1.3l-4.423-3.122a1,1,0,0,0-1.154,0ZM27,60V54h4v6Zm14,0H33V53a1,1,0,0,0-1-1H26a1,1,0,0,0-1,1v7H23V44.841l9-6.6,9,6.6ZM39,35h2v3.129l-2-1.412Zm8,9.814a.786.786,0,1,1-.917,1.276l-13.494-9.9a1,1,0,0,0-1.184,0l-13.494,9.9a.786.786,0,0,1-1.118-.2.782.782,0,0,1,.2-1.078l15-10.59Z"></path><path d="M34,53v4a1,1,0,0,0,1,1h4a1,1,0,0,0,1-1V53a1,1,0,0,0-1-1H35A1,1,0,0,0,34,53Zm2,1h2v2H36Z"></path><path d="M28,46a4,4,0,1,0,4-4A4,4,0,0,0,28,46Zm6,0a2,2,0,1,1-2-2A2,2,0,0,1,34,46Z"></path></g></svg>