<svg xmlns="http://www.w3.org/2000/svg" viewBox="0 0 64 64" x="0px" y="0px"><g><path d="M31,2H14a2,2,0,0,0-2,2V60a2,2,0,0,0,2,2H31a2,2,0,0,0,2-2V4A2,2,0,0,0,31,2Zm0,58H14V57h4V55H14V51h2V49H14V45h4V43H14V39h2V37H14V33h4V31H14V27h2V25H14V21h4V19H14V15h2V13H14V9h4V7H14V4H31Z"></path><path d="M26,12a3,3,0,1,0-3-3A3,3,0,0,0,26,12Zm0-4a1,1,0,1,1-1,1A1,1,0,0,1,26,8Z"></path><path d="M48,2H40a3,3,0,0,0-3,3V46a1,1,0,0,0,.086.406L41,55.213V59a3,3,0,0,0,6,0V55.213l3.914-8.807A1,1,0,0,0,51,46V5A3,3,0,0,0,48,2ZM40,4h8a1,1,0,0,1,1,1V8H39V5A1,1,0,0,1,40,4Zm2.649,50-3.555-8h9.812l-3.555,8ZM39,44V14h2V25a3,3,0,0,0,6,0V14h2V44Zm4-30h2V25a1,1,0,0,1-2,0Zm-4-2V10H49v2Zm5,48a1,1,0,0,1-1-1V56h2v3A1,1,0,0,1,44,60Z"></path></g></svg>