<svg xmlns="http://www.w3.org/2000/svg" viewBox="0 0 64 64" x="0px" y="0px"><title>List</title><g><path d="M61,2H15a1,1,0,0,0-1,1V16H3a1,1,0,0,0-1,1V55a7.009,7.009,0,0,0,7,7H55a7.009,7.009,0,0,0,7-7V3A1,1,0,0,0,61,2ZM4,55V18H8V56h2V18h4V55a5.006,5.006,0,0,1-5,5,5.009,5.009,0,0,1-5-5Zm56,0a5.006,5.006,0,0,1-5,5H13.9c.009-.01.018-.021.028-.031.074-.073.143-.153.214-.23s.166-.175.244-.268.124-.164.187-.246c.074-.1.151-.194.221-.3.057-.085.108-.175.162-.262.065-.106.133-.209.193-.318.05-.091.092-.188.138-.282.054-.11.112-.218.16-.332s.077-.207.116-.311.087-.22.122-.334.063-.237.093-.355.06-.211.082-.319c.029-.14.046-.284.067-.427.013-.091.032-.179.041-.271A7.106,7.106,0,0,0,16,55V4H60Z"></path><rect x="34" y="10" width="2" height="2"></rect><rect x="38" y="10" width="18" height="2"></rect><rect x="34" y="14" width="22" height="2"></rect><rect x="34" y="18" width="22" height="2"></rect><path d="M21,20h8a1,1,0,0,0,1-1V13.414l2.707-2.707L31.293,9.293l-1.362,1.362A.994.994,0,0,0,29,10H21a1,1,0,0,0-1,1v8A1,1,0,0,0,21,20Zm1-8h6v.586l-2,2-1.293-1.293-1.414,1.414,2,2a1,1,0,0,0,1.414,0L28,15.414V18H22Z"></path><rect x="38" y="27" width="18" height="2"></rect><rect x="34" y="31" width="22" height="2"></rect><rect x="34" y="35" width="22" height="2"></rect><path d="M21,37h8a1,1,0,0,0,1-1V30.414l2.707-2.707-1.414-1.414-1.362,1.362A.994.994,0,0,0,29,27H21a1,1,0,0,0-1,1v8A1,1,0,0,0,21,37Zm1-8h6v.586l-2,2-1.293-1.293-1.414,1.414,2,2a1,1,0,0,0,1.414,0L28,32.414V35H22Z"></path><rect x="38" y="44" width="18" height="2"></rect><rect x="34" y="48" width="22" height="2"></rect><rect x="34" y="52" width="22" height="2"></rect><path d="M21,54h8a1,1,0,0,0,1-1V47.414l2.707-2.707-1.414-1.414-1.362,1.362A.994.994,0,0,0,29,44H21a1,1,0,0,0-1,1v8A1,1,0,0,0,21,54Zm1-8h6v.586l-2,2-1.293-1.293-1.414,1.414,2,2a1,1,0,0,0,1.414,0L28,49.414V52H22Z"></path></g></svg>