<svg xmlns="http://www.w3.org/2000/svg" viewBox="0 0 64 64" x="0px" y="0px"><g data-name="Business-Woman-Avatar-Long-Hair-Braid"><path d="M45.547,32.187a2.476,2.476,0,0,0-.815-1.137,2.449,2.449,0,0,0-.777-2.9,2.453,2.453,0,0,0-.776-2.9,2.468,2.468,0,0,0-1.651-3.335A8.938,8.938,0,0,0,43,17V13a11,11,0,0,0-22,0v4a8.938,8.938,0,0,0,1.472,4.918,2.468,2.468,0,0,0-1.651,3.335,2.452,2.452,0,0,0-.777,2.9,2.453,2.453,0,0,0-.776,2.9,2.468,2.468,0,0,0-.815,1.136A12.908,12.908,0,0,0,15,41V61a1,1,0,0,0,1,1H48a1,1,0,0,0,1-1V41A12.926,12.926,0,0,0,45.547,32.187ZM41.4,49.2a1,1,0,0,0-.4.8V60H23V50a1,1,0,0,0-.4-.8c-.9-.679-1.6-2.815-1.6-4.2s.7-3.522,1.6-4.2l-.925-1.228a6.441,6.441,0,0,0,1.6-2.271,2.966,2.966,0,0,0-.147-1.943,2.46,2.46,0,0,0,.947-3.02,2.4,2.4,0,0,0,.959-1.931c.322-.09.648-.167.979-.227l-.844,1.266a1,1,0,0,0-.1.927l6.015,14.034a1,1,0,0,0,1.828,0l6.015-14.034a1,1,0,0,0-.1-.927l-.844-1.266c.331.06.657.137.979.227a2.4,2.4,0,0,0,.959,1.931,2.46,2.46,0,0,0,.947,3.02,2.966,2.966,0,0,0-.147,1.943,6.441,6.441,0,0,0,1.6,2.271L41.4,40.8c.9.679,1.6,2.815,1.6,4.2S42.3,48.522,41.4,49.2ZM21.143,30.365a.494.494,0,0,1-.05-.379.5.5,0,0,1,.612-.354l.966.259a.5.5,0,1,1-.259.966l-.966-.259A.5.5,0,0,1,21.143,30.365Zm.726-3.277a.5.5,0,0,1,.611-.354h0l.966.259a.5.5,0,1,1-.259.966l-.965-.259A.5.5,0,0,1,21.869,27.088Zm.777-2.9a.505.505,0,0,1,.612-.354l.967.259a.5.5,0,0,1-.26.967L23,24.8A.5.5,0,0,1,22.646,24.19ZM26,20V12.955c1.969-.149,6.363-.788,9.076-3.519A19.107,19.107,0,0,0,38,11.6V20a4,4,0,0,1-4,4H30A4,4,0,0,1,26,20Zm15.648,6.717a.5.5,0,0,1,.129.983l-.965.259a.5.5,0,1,1-.259-.966l.967-.259A.5.5,0,0,1,41.648,26.717Zm.776,2.9a.5.5,0,0,1,.483.371.494.494,0,0,1-.05.379.5.5,0,0,1-.3.233l-.966.259a.508.508,0,0,1-.38-.05.5.5,0,0,1,.121-.916l.966-.259A.519.519,0,0,1,42.424,29.615Zm.776,2.9a.5.5,0,0,1,.129.983l-.965.259a.5.5,0,0,1-.612-.355.5.5,0,0,1,.353-.611l.966-.259A.526.526,0,0,1,43.2,32.513ZM41,24.8l-.965.259a.5.5,0,0,1-.26-.967l.967-.259a.526.526,0,0,1,.129-.017A.5.5,0,0,1,41,24.8Zm-2.629,1.744a2.477,2.477,0,0,0-.1,1.577c.007.026.019.05.027.076-.426-.075-.858-.124-1.294-.157V25.475c.172-.061.345-.118.512-.189A2.487,2.487,0,0,0,38.371,26.547Zm-8.984-.578A5.92,5.92,0,0,0,30,26h4a5.92,5.92,0,0,0,.613-.031c.129-.009.259-.014.387-.028v2.708L32,32.4l-3-3.75V25.941C29.128,25.955,29.258,25.96,29.387,25.969Zm-1.314,4.724,2.5,3.126-2.13,1.6-1.32-3.3ZM32,35.25l2.763,2.071L32,43.538l-2.763-6.217Zm3.556.167-2.13-1.6,2.5-3.126.949,1.424ZM27,25.475v2.568c-.436.033-.869.082-1.3.157.008-.026.021-.05.028-.077a2.474,2.474,0,0,0-.1-1.576,2.487,2.487,0,0,0,.859-1.261C26.655,25.357,26.828,25.414,27,25.475ZM21.9,32.789a.5.5,0,0,1,.353.612.5.5,0,0,1-.232.3.5.5,0,0,1-.38.05l-.965-.259a.5.5,0,1,1,.258-.966ZM19.41,36.263a1,1,0,0,1,1.225-.706h0a1,1,0,0,1,.707,1.223A7.429,7.429,0,0,1,19.82,38.6,7.533,7.533,0,0,1,19.41,36.263Zm23.247.518a1,1,0,0,1,.707-1.224h0a1,1,0,0,1,1.225.706,7.531,7.531,0,0,1-.411,2.334A7.465,7.465,0,0,1,42.657,36.781ZM23,13a9,9,0,0,1,18,0v4a6.942,6.942,0,0,1-1.036,3.646A5.979,5.979,0,0,0,40,20V11a1,1,0,0,0-.553-.895,17.678,17.678,0,0,1-3.74-2.813A.988.988,0,0,0,34.929,7a1,1,0,0,0-.729.4C31.54,10.946,25.064,11,25,11a1,1,0,0,0-1,1v8a5.993,5.993,0,0,0,.036.646A6.942,6.942,0,0,1,23,17ZM17,41a11.039,11.039,0,0,1,.533-3.372,21.244,21.244,0,0,0,.865,3.095,1,1,0,0,0,.684.63,1.035,1.035,0,0,0,.259.034.989.989,0,0,0,.57-.194A9.45,9.45,0,0,0,19,45a8.674,8.674,0,0,0,2,5.447V60H17ZM47,60H43V50.447A8.674,8.674,0,0,0,45,45a9.45,9.45,0,0,0-.911-3.807.989.989,0,0,0,.57.194,1.035,1.035,0,0,0,.259-.034,1,1,0,0,0,.684-.63,21.2,21.2,0,0,0,.864-3.092A11,11,0,0,1,47,41Z"></path><path d="M35,15a1.2,1.2,0,0,0,.189-.02.609.609,0,0,0,.191-.06.776.776,0,0,0,.18-.09l.15-.12a1.014,1.014,0,0,0,0-1.42,1.712,1.712,0,0,0-.15-.12.776.776,0,0,0-.18-.09.609.609,0,0,0-.191-.06,1.054,1.054,0,0,0-.9.27A1,1,0,0,0,35,15Z"></path><path d="M28.29,13.29a1,1,0,1,0,1.42,0A1.047,1.047,0,0,0,28.29,13.29Z"></path></g></svg>