<svg xmlns="http://www.w3.org/2000/svg" viewBox="0 0 64 64" x="0px" y="0px"><g data-name="Graduate"><rect x="15" y="22" width="4" height="2"></rect><rect x="17.009" y="29.5" width="4" height="2" transform="translate(-12.704 13.592) rotate(-30.002)"></rect><rect x="43.991" y="28.5" width="2" height="4" transform="translate(-3.916 54.218) rotate(-60.005)"></rect><rect x="45" y="22" width="4" height="2"></rect><rect x="42.991" y="14.5" width="4" height="2" transform="translate(-1.722 24.573) rotate(-30.002)"></rect><path d="M32,36a1.993,1.993,0,0,0,1.722-1H30.278A1.993,1.993,0,0,0,32,36Z"></path><path d="M29,31a1,1,0,0,0,0,2h6a1,1,0,0,0,0-2Z"></path><path d="M32,14a1.009,1.009,0,0,1-.359-.066L26,11.764v4.6A17.2,17.2,0,0,0,32,18a17.163,17.163,0,0,0,6-1.636v-4.6l-5.641,2.17A1.009,1.009,0,0,1,32,14Z"></path><path d="M28.511,29.043A2.953,2.953,0,0,1,29,29h6a2.953,2.953,0,0,1,.489.043,6.963,6.963,0,0,0,2.047-10.318A16.566,16.566,0,0,1,32,20a16.56,16.56,0,0,1-5.536-1.275,6.963,6.963,0,0,0,2.047,10.318Zm.321-7.6L30,23.2l1.168-1.752a1.039,1.039,0,0,1,1.664,0L34,23.2l1.168-1.752,1.664,1.11-2,3a1,1,0,0,1-1.664,0L32,23.8l-1.168,1.752a1.039,1.039,0,0,1-1.664,0l-2-3Z"></path><polygon points="21.786 8 32 11.929 42.214 8 32 4.071 21.786 8"></polygon><polygon points="23.707 15.293 21 12.586 21 10 19 10 19 12.586 16.293 15.293 17.707 16.707 19 15.414 19 17 21 17 21 15.414 22.293 16.707 23.707 15.293"></polygon><path d="M56,15.414V42H47v2H57a1,1,0,0,0,1-1V15.414l1.293,1.293,1.414-1.414-3-3a1,1,0,0,0-1.414,0l-3,3,1.414,1.414Z"></path><rect x="60" y="40" width="2" height="2"></rect><rect x="60" y="36" width="2" height="2"></rect><rect x="60" y="32" width="2" height="2"></rect><path d="M6,15.414V43a1,1,0,0,0,1,1H17V42H8V15.414l1.293,1.293,1.414-1.414-3-3a1,1,0,0,0-1.414,0l-3,3,1.414,1.414Z"></path><rect x="2" y="40" width="2" height="2"></rect><rect x="2" y="36" width="2" height="2"></rect><rect x="2" y="32" width="2" height="2"></rect><path d="M21.754,43.534a5,5,0,0,0,6.124,3.535l2.9-.776L30,43.4a5.008,5.008,0,0,0-6.124-3.536l-2.9.777Z"></path><path d="M34,43.4l-.776,2.9,2.9.776a5,5,0,0,0,6.124-3.535l.776-2.9-2.9-.777A5,5,0,0,0,34,43.4Z"></path><rect x="31" y="38" width="2" height="16"></rect><path d="M44.9,60A5.009,5.009,0,0,0,40,56H24a5.009,5.009,0,0,0-4.9,4H2v2H62V60Z"></path></g></svg>