<svg xmlns="http://www.w3.org/2000/svg" viewBox="0 0 64 64" x="0px" y="0px"><g><path d="M61,56H57V3a1,1,0,0,0-1-1H8A1,1,0,0,0,7,3V56H3a1,1,0,0,0-1,1v4a1,1,0,0,0,1,1H61a1,1,0,0,0,1-1V57A1,1,0,0,0,61,56ZM9,4H55V56H9ZM60,60H4V58H60Z"></path><path d="M26,33H20a1,1,0,0,0-1,1,4,4,0,0,0,8,0A1,1,0,0,0,26,33Zm-3,3a2,2,0,0,1-1.731-1h3.462A2,2,0,0,1,23,36Z"></path><path d="M21,44H15a1,1,0,0,0-1,1,4,4,0,0,0,8,0A1,1,0,0,0,21,44Zm-3,3a2,2,0,0,1-1.731-1h3.462A2,2,0,0,1,18,47Z"></path><path d="M49,27a1,1,0,0,0-1-1H42a1,1,0,0,0-1,1,4,4,0,0,0,8,0Zm-5.731,1h3.462a2,2,0,0,1-3.462,0Z"></path><path d="M19,14a4,4,0,0,0,4-4,1,1,0,0,0-1-1H16a1,1,0,0,0-1,1A4,4,0,0,0,19,14Zm1.731-3a2,2,0,0,1-3.462,0Z"></path><path d="M41,41H35a1,1,0,0,0-.8,1.6l3,4a1,1,0,0,0,1.6,0l3-4A1,1,0,0,0,41,41Zm-3,3.333L37,43h2Z"></path><path d="M28.2,26.6a1,1,0,0,0,1.6,0l3-4A1,1,0,0,0,32,21H26a1,1,0,0,0-.8,1.6ZM30,23l-1,1.333L28,23Z"></path><path d="M45.2,14.6a1,1,0,0,0,1.6,0l3-4A1,1,0,0,0,49,9H43a1,1,0,0,0-.8,1.6ZM47,11l-1,1.333L45,11Z"></path><path d="M33,50H29a1,1,0,0,0,0,2h4a1,1,0,0,0,0-2Z"></path><path d="M50,45H46a1,1,0,0,0,0,2h4a1,1,0,0,0,0-2Z"></path><path d="M41,34H37a1,1,0,0,0,0,2h4a1,1,0,0,0,0-2Z"></path><path d="M40,21h4a1,1,0,0,0,0-2H40a1,1,0,0,0,0,2Z"></path><path d="M15,26h4a1,1,0,0,0,0-2H15a1,1,0,0,0,0,2Z"></path><path d="M31,14h4a1,1,0,0,0,0-2H31a1,1,0,0,0,0,2Z"></path></g></svg>