<svg xmlns="http://www.w3.org/2000/svg" viewBox="0 0 512 512" x="0px" y="0px"><g><path d="M310.627,66.745a23.845,23.845,0,0,0-16.971,7.029L288,79.432l-5.656-5.658A24,24,0,0,0,248.4,107.716l33.942,33.941a8,8,0,0,0,11.314,0L327.6,107.716a24,24,0,0,0-16.972-40.971ZM316.284,96.4,288,124.687,259.716,96.4a8,8,0,1,1,11.313-11.312L282.343,96.4a8,8,0,0,0,11.314,0l11.314-11.313A8,8,0,0,1,316.284,96.4Z"></path><path d="M456,176H416V24a8,8,0,0,0-8-8H168a8,8,0,0,0-8,8V176H112V152a8,8,0,0,0-8-8H64a8,8,0,0,0-8,8v24a40.045,40.045,0,0,0-40,40V464a40.045,40.045,0,0,0,40,40H456a40.045,40.045,0,0,0,40-40V216A40.045,40.045,0,0,0,456,176ZM176,32H400V176H176ZM72,160H96v16H72ZM32,464V448h72V432H32V400h72V384H32V352h72V336H32V304h72V288H32V256h72V240H32V216a24.028,24.028,0,0,1,24-24h64V488H56A24.028,24.028,0,0,1,32,464Zm448,0a24.028,24.028,0,0,1-24,24H136V192H456a24.028,24.028,0,0,1,24,24Z"></path><path d="M288,224A112,112,0,1,0,400,336,112.127,112.127,0,0,0,288,224Zm0,208a96,96,0,1,1,96-96A96.108,96.108,0,0,1,288,432Z"></path><path d="M288,256a80,80,0,1,0,80,80A80.091,80.091,0,0,0,288,256Zm0,144a64,64,0,1,1,64-64A64.072,64.072,0,0,1,288,400Z"></path><rect x="400" y="208" width="48" height="16"></rect><rect x="432" y="440" width="16" height="16"></rect></g></svg>