<svg xmlns="http://www.w3.org/2000/svg" viewBox="0 0 64 64" x="0px" y="0px"><g data-name="Flat Tyre"><path d="M48.59,35.014c-.119,0-.237,0-.357.013A5,5,0,0,0,48.85,45h.095a5,5,0,0,0,4.624-5.334h0a5,5,0,0,0-4.978-4.652Zm-.936,6.068-.139-1.995,1.995-.14.138,1.995Z"></path><path d="M53.521,24.633,34.567,25.958l.977,13.966,6.064-.424a6.99,6.99,0,0,1,13.807-.966l3.071-.215a1,1,0,0,0,.929-1.067l-.07-1-2.992.209-.139-1.995,2.992-.209-.139-1.995-3.991.278c-.047,0-.095.005-.142.005a2,2,0,0,1-1.993-1.861L52.8,28.693a2,2,0,0,1,1.855-2.135l2.974-.208A4.953,4.953,0,0,0,53.521,24.633Zm-16.68,5.176-.139-2,3.99-.278.139,2Z"></path><path d="M58.927,30.269l-.07-1a4.962,4.962,0,0,0-.17-.99l-3.889.272.139,1.995Z"></path><polygon points="33.87 15.982 34.428 23.963 47.452 23.052 41.193 15.47 33.87 15.982"></polygon><polygon points="9.708 25.691 32.431 24.102 31.873 16.122 10.745 17.599 9.708 25.691"></polygon><path d="M14.674,37.385c-.118,0-.236,0-.355.012A5,5,0,0,0,9.678,42.73a4.85,4.85,0,0,0,.411,1.67,1.009,1.009,0,0,0,.924.6h7.3a1.025,1.025,0,0,0,.935-.624,5,5,0,0,0-4.577-6.991Zm-.938,6.069-.138-2,1.994-.139.139,1.995Z"></path><path d="M36.525,11.787,11.567,13.532A5,5,0,0,0,7.208,16.84l-3.426,9.6a14.934,14.934,0,0,0-.834,6.086l.4,5.639,2.991-.209.14,1.995-2.992.209.07,1a.973.973,0,0,0,1.067.927l3.072-.215A6.991,6.991,0,0,1,21.5,40.906l12.048-.843L32.571,26.1,9.847,27.687c-.047,0-.094,0-.141,0a2,2,0,0,1-1.982-2.254l1.038-8.092A2,2,0,0,1,10.606,15.6l29.023-2.029-.582-.7A3.02,3.02,0,0,0,36.525,11.787ZM14.755,29.348l.14,2-3.99.28-.139-2Z"></path><rect x="2" y="45" width="60" height="2"></rect><rect x="14" y="50" width="2" height="4"></rect><rect x="19" y="48.764" width="2" height="4.472" transform="translate(-20.696 14.328) rotate(-26.565)"></rect><rect x="7.764" y="50" width="4.472" height="2" transform="translate(-40.088 37.136) rotate(-63.435)"></rect></g></svg>