<svg xmlns="http://www.w3.org/2000/svg" viewBox="0 0 64 64" x="0px" y="0px"><g data-name="Solar Panel"><path d="M42.168,17.451A2.007,2.007,0,0,0,40.246,16H11.754a2.007,2.007,0,0,0-1.922,1.45L2.4,43.45A2,2,0,0,0,4.326,46H21v2H19a1,1,0,0,0-1,1v1H16v2h2v1a1,1,0,0,0,1,1h2v2H19a1,1,0,0,0-1,1v4a1,1,0,0,0,1,1H33a1,1,0,0,0,1-1V57a1,1,0,0,0-1-1H31V54h2a1,1,0,0,0,1-1V52h2V50H34V49a1,1,0,0,0-1-1H31V46H47.674A2,2,0,0,0,49.6,43.45ZM43.674,30H36.867l-.714-5h6.093Zm-8.827,0H27V25h7.133ZM27,23V18h6.133l.714,5Zm-2,0H18.153l.714-5H25Zm0,2v5H17.153l.714-5Zm-9.867,5H8.326l1.428-5h6.093Zm-.286,2-.714,5H6.326l1.428-5Zm2.02,0H25v5H16.153ZM25,39v5H15.153l.714-5Zm2,0h9.133l.714,5H27Zm0-2V32h8.133l.714,5Zm10.153-5h7.093l1.428,5H37.867Zm4.521-9H35.867l-.714-5h5.093Zm-29.92-5h5.093l-.714,5H10.326Zm-6,21h8.093l-.714,5H4.326ZM20,52V50h1v2Zm12,8H20V58H32Zm0-10v2H31V50Zm-3,6H23V46h6Zm9.867-12-.714-5h8.093l1.428,5Z"></path><path d="M52,6a6,6,0,1,0,6,6A6.006,6.006,0,0,0,52,6Zm0,10a4,4,0,1,1,4-4A4,4,0,0,1,52,16Z"></path><rect x="51" y="2" width="2" height="2"></rect><rect x="44.636" y="4.636" width="2" height="2" transform="translate(9.381 33.92) rotate(-45)"></rect><rect x="42" y="11" width="2" height="2"></rect><rect x="44.636" y="17.364" width="2" height="2" transform="translate(0.381 37.648) rotate(-45)"></rect><rect x="51" y="20" width="2" height="2"></rect><rect x="57.364" y="17.364" width="2" height="2" transform="translate(4.109 46.648) rotate(-45)"></rect><rect x="60" y="11" width="2" height="2"></rect><rect x="57.364" y="4.636" width="2" height="2" transform="translate(13.109 42.92) rotate(-45)"></rect></g></svg>