<svg xmlns="http://www.w3.org/2000/svg" viewBox="0 0 64 64" x="0px" y="0px"><title>Bell-Notification-Follow</title><g><path d="M52,45a1,1,0,0,1-1-1V26.432A19.5,19.5,0,0,0,35.732,7.4a4,4,0,1,0-7.469-.015A18.962,18.962,0,0,0,13,26V44a1,1,0,0,1-1,1,5,5,0,0,0,0,10H24.069a7.993,7.993,0,0,0,15.862,0H52a5,5,0,0,0,0-10ZM30,6a2,2,0,1,1,3.669,1.1c-.326-.03-.647-.074-.977-.086a19.381,19.381,0,0,0-2.366.077A2.007,2.007,0,0,1,30,6Zm2,54a6.01,6.01,0,0,1-5.917-5H37.917A6.01,6.01,0,0,1,32,60Zm20-7H12a3,3,0,0,1,0-6,3,3,0,0,0,3-3V26A17,17,0,0,1,31.994,9c.209,0,.418,0,.627.011C41.652,9.332,49,17.147,49,26.432V44a3,3,0,0,0,3,3,3,3,0,0,1,0,6Z"></path></g></svg>