<svg xmlns="http://www.w3.org/2000/svg" viewBox="0 0 64 64" x="0px" y="0px"><title>Bank-Currency-Book</title><g><path d="M60,55H33V54a3,3,0,0,1,3-3H57a1,1,0,0,0,1-1V36H56V49H36a4.967,4.967,0,0,0-3,1.012V18a3,3,0,0,1,3-3h2V13H36a5,5,0,0,0-4,2,5,5,0,0,0-4-2H7a1,1,0,0,0-1,1v5H3a1,1,0,0,0-1,1V56a1,1,0,0,0,1,1H61a1,1,0,0,0,1-1V34H60ZM8,15H28a3,3,0,0,1,3,3V50.012A4.967,4.967,0,0,0,28,49H8ZM4,21H6V50a1,1,0,0,0,1,1H28a3,3,0,0,1,3,3v1H4Z"></path><rect x="12" y="23" width="14" height="2"></rect><rect x="12" y="31" width="14" height="2"></rect><rect x="12" y="39" width="14" height="2"></rect><rect x="38" y="39" width="14" height="2"></rect><path d="M61.316,10.051l-9-3a1,1,0,0,0-.632,0l-9,3A1,1,0,0,0,42,11v3a1,1,0,0,0,1,1V26a1,1,0,0,0,1,1H60a1,1,0,0,0,1-1V15a1,1,0,0,0,1-1V11A1,1,0,0,0,61.316,10.051ZM44,11.721l8-2.667,8,2.667V13H44ZM55,15V25H49V15ZM45,15h2V25H45ZM59,25H57V15h2Z"></path><rect x="51" y="10" width="2" height="2"></rect><rect x="43" y="28" width="18" height="2"></rect></g></svg>