<svg xmlns="http://www.w3.org/2000/svg" viewBox="0 0 64 64" x="0px" y="0px"><g><path d="M54,41H37.914A6.931,6.931,0,0,0,38,40a7.009,7.009,0,0,0-6.073-6.938,6,6,0,0,0-11.315-1.708,6.493,6.493,0,0,0-8.119,3.667A6.008,6.008,0,0,0,7,41H4a2,2,0,0,0-2,2v2a2,2,0,0,0,2,2h.238L7.7,59.588A3.012,3.012,0,0,0,10.64,62H47.36a2.99,2.99,0,0,0,2.924-2.346L53.762,47H54a2,2,0,0,0,2-2V43A2,2,0,0,0,54,41ZM34,55.02a.95.95,0,0,1-.428.832,1.065,1.065,0,0,1-1.087,0A1,1,0,0,1,32,55V51a2.921,2.921,0,0,0-.87-2.1,2.956,2.956,0,0,0-.413-.35c-.044-.032-.089-.059-.134-.087a2.881,2.881,0,0,0-.34-.186c-.048-.022-.095-.046-.145-.065a2.957,2.957,0,0,0-.5-.153l-.02,0a3.056,3.056,0,0,0-.507-.05c-.021,0-.041-.006-.062-.006s-.069.009-.1.01a3.076,3.076,0,0,0-.392.038c-.056.008-.111.016-.167.028a3.394,3.394,0,0,0-.539.157A2.981,2.981,0,0,0,26,51.03a1.907,1.907,0,0,1-1.036,1.756,2.086,2.086,0,0,1-2.054-.105A2,2,0,0,1,22,51V43H34ZM13.071,37a1,1,0,0,0,1.1-.723A4.5,4.5,0,0,1,18.5,33a4.391,4.391,0,0,1,2.175.569,1,1,0,0,0,1.461-.61,3.995,3.995,0,0,1,7.745.114A8.974,8.974,0,0,0,26.5,34.206a1,1,0,0,0,1,1.731A6.988,6.988,0,0,1,31,35a5.006,5.006,0,0,1,5,5,4.882,4.882,0,0,1-.1,1H9A4.02,4.02,0,0,1,13.071,37ZM4,43H20v2H4ZM48.34,59.191a1.007,1.007,0,0,1-.98.809H10.64a1.031,1.031,0,0,1-1-.875L6.312,47H20v4a3.989,3.989,0,0,0,1.819,3.357,4.1,4.1,0,0,0,3.959.256A3.9,3.9,0,0,0,28,50.99a.964.964,0,0,1,.548-.9,1.031,1.031,0,0,1,1.164.217A.952.952,0,0,1,30,51v4a3.018,3.018,0,0,0,1.444,2.562,2.943,2.943,0,0,0,.737.319c.087.025.179.024.269.041a3.015,3.015,0,0,0,.518.07c.01,0,.02,0,.031,0a3.19,3.19,0,0,0,.493-.06c.083-.014.166-.011.249-.031a3.386,3.386,0,0,0,.759-.282,2.915,2.915,0,0,0,1.5-2.6V47H51.688ZM54,45H36V43H54Z"></path><path d="M61.707,14.293l-5-5,0,0a1,1,0,0,0-.285-.192.814.814,0,0,0-.087-.031.975.975,0,0,0-.277-.056C56.035,9.01,56.019,9,56,9H40V3a1,1,0,0,0-1-1H19a1,1,0,0,0-1,1V17a1,1,0,0,0,1,1h8a1,1,0,0,0,.961-.726L29,13.64l1.039,3.634A1,1,0,0,0,31,18h6V32a1,1,0,0,0,1,1H56a1,1,0,0,0,1-1V20.414l4.707-4.707A1,1,0,0,0,61.707,14.293ZM50.874,11a4,4,0,0,1-7.748,0ZM20,4H38V5H20Zm9.961,5.726a1,1,0,0,0-1.922,0L26.246,16H20V7H38v9H31.754ZM55,31H39V18a1,1,0,0,0,1-1V11h1.09a5.993,5.993,0,0,0,11.82,0H55Zm2-13.414V12.414L59.586,15Z"></path><path d="M7,27a1,1,0,0,0,1-1V25a1,1,0,0,0-2,0v1A1,1,0,0,0,7,27Z"></path><path d="M4,29H5a1,1,0,0,0,0-2H4a1,1,0,0,0,0,2Z"></path><path d="M7,29a1,1,0,0,0-1,1v1a1,1,0,0,0,2,0V30A1,1,0,0,0,7,29Z"></path><path d="M9,29h1a1,1,0,0,0,0-2H9a1,1,0,0,0,0,2Z"></path><path d="M18,29a3,3,0,1,0-3-3A3,3,0,0,0,18,29Zm0-4a1,1,0,1,1-1,1A1,1,0,0,1,18,25Z"></path></g></svg>