<svg xmlns="http://www.w3.org/2000/svg" viewBox="0 0 64 64" x="0px" y="0px"><g><path d="M61.457,23.439a1,1,0,0,0-.707-.546c-.2-.04-5.041-.924-9.042,4.252a11.733,11.733,0,0,0-1.9,9.653,1.026,1.026,0,0,0,.07.163A59.375,59.375,0,0,0,45.64,46H43a2,2,0,0,0-2,2v2a5.006,5.006,0,0,0-5,5v5a2,2,0,0,0,2,2H56a2,2,0,0,0,2-2V55a5.006,5.006,0,0,0-5-5V48a2,2,0,0,0-2-2H47.8a59.521,59.521,0,0,1,4.052-8.41,10.124,10.124,0,0,0,7.763-4.329C63.621,28.085,61.547,23.627,61.457,23.439ZM43,48h1.958q-.313.984-.591,2H43Zm-2,4h2.874a40.031,40.031,0,0,0-.756,4.587,7.323,7.323,0,0,1-2.447-.527A9.37,9.37,0,0,0,38,55.442V55A3,3,0,0,1,41,52Zm-3,8V57.446a7.462,7.462,0,0,1,1.993.5,10.557,10.557,0,0,0,7.343,0,8.566,8.566,0,0,1,5.992,0A9.417,9.417,0,0,0,56,58.558V60Zm18-5v1.554a7.5,7.5,0,0,1-2-.5,10.563,10.563,0,0,0-7.345,0,8.329,8.329,0,0,1-1.516.43A38.441,38.441,0,0,1,45.935,52H53A3,3,0,0,1,56,55Zm-5-7v2H46.457c.194-.677.4-1.344.625-2Zm7.037-15.962a8.753,8.753,0,0,1-4.859,3.37,51.335,51.335,0,0,1,3.264-4.638L54.9,29.493a51.5,51.5,0,0,0-3.417,4.8,9.182,9.182,0,0,1,1.8-5.93c2.539-3.284,5.384-3.6,6.543-3.557C60.155,25.929,60.574,28.756,58.037,32.038Z"></path><path d="M4,57V7A3,3,0,0,1,7,4H34v9a1,1,0,0,0,1.707.707L38,11.414l2.293,2.293A1,1,0,0,0,41,14a.987.987,0,0,0,.383-.076A1,1,0,0,0,42,13V4h1a3,3,0,0,1,3,3V38h2V7a5.006,5.006,0,0,0-5-5H7A5.006,5.006,0,0,0,2,7V57a5.006,5.006,0,0,0,5,5H34V60H7A3,3,0,0,1,4,57ZM40,4v6.586L38.707,9.293a1,1,0,0,0-1.414,0L36,10.586V4Z"></path><rect x="17" y="20" width="22" height="2"></rect><rect x="11" y="26" width="28" height="2"></rect><rect x="11" y="32" width="22" height="2"></rect><rect x="35" y="32" width="4" height="2"></rect><rect x="11" y="20" width="4" height="2"></rect><rect x="11" y="38" width="2" height="2"></rect><rect x="15" y="38" width="24" height="2"></rect><path d="M32,46a3.992,3.992,0,0,0-2.651,1.241C28.8,47.712,28.441,48,28,48a1.158,1.158,0,0,1-.9-.3A3.079,3.079,0,0,0,25,47v2a1.158,1.158,0,0,1,.9.3A3.079,3.079,0,0,0,28,50a3.992,3.992,0,0,0,2.651-1.241C31.2,48.288,31.559,48,32,48a1.161,1.161,0,0,1,.9.3A3.069,3.069,0,0,0,35,49V47a1.161,1.161,0,0,1-.9-.3A3.069,3.069,0,0,0,32,46Z"></path><rect x="25" y="52" width="10" height="2"></rect><rect x="11" y="8" width="4" height="2"></rect><rect x="17" y="8" width="6" height="2"></rect><rect x="11" y="12" width="12" height="2"></rect></g></svg>