<svg xmlns="http://www.w3.org/2000/svg" viewBox="0 0 64 64" x="0px" y="0px"><g><path d="M40,18a3,3,0,1,0,3,3A3,3,0,0,0,40,18Zm0,4a1,1,0,1,1,1-1A1,1,0,0,1,40,22Z"></path><path d="M24,18a3,3,0,1,0,3,3A3,3,0,0,0,24,18Zm0,4a1,1,0,1,1,1-1A1,1,0,0,1,24,22Z"></path><path d="M24,28a7.009,7.009,0,0,0,6.951-6.2,2.851,2.851,0,0,0,2.1,0,7,7,0,1,0,13.089-4.16l-2.986-9.2A3.842,3.842,0,0,0,42.067,6.59,6.054,6.054,0,0,0,41,5.821V5a3,3,0,0,0-3-3H37a3,3,0,0,0-3,3V6.527c-.049.044-.092.093-.14.138a2.934,2.934,0,0,0-3.72,0c-.048-.045-.091-.094-.14-.138V5a3,3,0,0,0-3-3H26a3,3,0,0,0-3,3v.822a6,6,0,0,0-1.067.768,3.788,3.788,0,0,0-1.071,1.8l-3,9.25A7,7,0,0,0,24,28Zm0-2a5,5,0,1,1,5-5A5.006,5.006,0,0,1,24,26Zm8-6a1,1,0,1,1,1-1A1,1,0,0,1,32,20Zm8,6a5,5,0,1,1,5-5A5.006,5.006,0,0,1,40,26Zm3.091-11.271A6.956,6.956,0,0,0,35,16.111V9a3.043,3.043,0,0,0-.058-.577,4,4,0,0,1,5.77-.362,1.925,1.925,0,0,1,.523.946ZM36,5a1,1,0,0,1,1-1h1a1,1,0,0,1,1,1v.093A6.058,6.058,0,0,0,38,5a6,6,0,0,0-2,.35ZM32,8a1,1,0,0,1,1,1v7.184a2.809,2.809,0,0,0-2,0V9A1,1,0,0,1,32,8ZM25,5a1,1,0,0,1,1-1h1a1,1,0,0,1,1,1v.35A6,6,0,0,0,26,5a6.058,6.058,0,0,0-1,.093ZM22.779,8.956a1.85,1.85,0,0,1,.509-.894,4,4,0,0,1,5.77.361A3.043,3.043,0,0,0,29,9v7.111a6.954,6.954,0,0,0-8.092-1.381Z"></path><path d="M61,54H59V19a5.006,5.006,0,0,0-5-5H48v2h6a3,3,0,0,1,3,3v3H49v2h8V54H7V24h8V22H7V19a3,3,0,0,1,3-3h6V14H10a5.006,5.006,0,0,0-5,5V54H3a1,1,0,0,0-1,1v4a3,3,0,0,0,3,3H59a3,3,0,0,0,3-3V55A1,1,0,0,0,61,54ZM28,56h8v1H28Zm32,3a1,1,0,0,1-1,1H5a1,1,0,0,1-1-1V56H26v1a2,2,0,0,0,2,2h8a2,2,0,0,0,2-2V56H60Z"></path><rect x="23.515" y="39" width="16.971" height="2" transform="translate(-18.912 34.343) rotate(-45)"></rect><path d="M36,41a3,3,0,1,0,3,3A3,3,0,0,0,36,41Zm0,4a1,1,0,1,1,1-1A1,1,0,0,1,36,45Z"></path><path d="M28,39a3,3,0,1,0-3-3A3,3,0,0,0,28,39Zm0-4a1,1,0,1,1-1,1A1,1,0,0,1,28,35Z"></path><path d="M32,27A13,13,0,1,0,45,40,13.015,13.015,0,0,0,32,27Zm0,24A11,11,0,1,1,43,40,11.013,11.013,0,0,1,32,51Z"></path></g></svg>