<svg xmlns="http://www.w3.org/2000/svg" viewBox="0 0 64 64" x="0px" y="0px"><g data-name="Global-Business"><polygon points="6 30 8 30 8 42 10.001 42 10 25 4 25 4 42 6 42 6 30"></polygon><polygon points="5 11 7 11 9 11 9 9 8 5 6 5 5 9 5 11"></polygon><path d="M48,46h4.975a24.411,24.411,0,0,0-.667-4.982A14.937,14.937,0,0,1,48,41.952Z"></path><path d="M48,52.048a14.937,14.937,0,0,1,4.308.934A24.411,24.411,0,0,0,52.975,48H48Z"></path><path d="M48,59.79c1.413-.567,2.78-2.3,3.728-4.893A12.936,12.936,0,0,0,48,54.048Z"></path><path d="M42.168,7.445a1.039,1.039,0,0,1,1.664,0L44,7.7V4H42V7.7Z"></path><path d="M54.974,46h4.975a12.932,12.932,0,0,0-3.229-7.6,15.011,15.011,0,0,1-2.575,1.781A26.1,26.1,0,0,1,54.974,46Z"></path><rect x="27" y="18" width="27" height="2"></rect><path d="M57,18H56v2h1a1,1,0,0,0,0-2Z"></path><path d="M48,39.952a12.936,12.936,0,0,0,3.728-.849C50.78,36.512,49.413,34.777,48,34.21Z"></path><path d="M51.787,59.075c.306-.121.605-.255.9-.4l.068-.033q.416-.206.814-.439c.056-.033.111-.067.166-.1.248-.15.493-.3.73-.47.045-.032.088-.068.133-.1.236-.17.469-.344.693-.529a13.133,13.133,0,0,0-1.77-1.232A14.3,14.3,0,0,1,51.787,59.075Z"></path><path d="M54.974,48a26.1,26.1,0,0,1-.829,5.822A15.011,15.011,0,0,1,56.72,55.6,12.969,12.969,0,0,0,59.6,50.162l.015-.062c.079-.319.145-.644.2-.972.007-.043.013-.087.02-.13.051-.329.093-.661.118-1Z"></path><path d="M55.22,36.942l-.019-.015q-.413-.334-.853-.635c-.058-.04-.119-.076-.178-.115-.237-.157-.479-.308-.727-.45-.1-.058-.207-.112-.311-.168-.212-.113-.427-.222-.646-.324-.121-.057-.243-.11-.366-.162-.1-.046-.213-.085-.319-.127a14.29,14.29,0,0,1,1.719,3.281A13.045,13.045,0,0,0,55.284,37C55.262,36.981,55.242,36.96,55.22,36.942Z"></path><path d="M42.213,34.925a12.992,12.992,0,0,0-3.5,2.07,13.133,13.133,0,0,0,1.77,1.232A14.3,14.3,0,0,1,42.213,34.925Z"></path><path d="M46,59.79V54.048a12.936,12.936,0,0,0-3.728.849C43.22,57.488,44.587,59.223,46,59.79Z"></path><path d="M39.026,48H34.051a12.909,12.909,0,0,0,3.012,7.338c.073.087.15.172.226.258a15.054,15.054,0,0,1,2.566-1.774A26.1,26.1,0,0,1,39.026,48Z"></path><path d="M46,48H41.025a24.411,24.411,0,0,0,.667,4.982A14.937,14.937,0,0,1,46,52.048Z"></path><polygon points="25 19.923 25 18.077 22.692 19 25 19.923"></polygon><path d="M38.716,57c.02.017.038.037.058.053s.041.03.06.046c.3.248.625.476.951.7q.181.122.367.237c.232.145.471.277.713.408q.416.222.847.414c.164.074.328.147.495.214a14.286,14.286,0,0,1-1.727-3.294A13.221,13.221,0,0,0,38.716,57Z"></path><path d="M46,41.952a14.937,14.937,0,0,1-4.308-.934A24.411,24.411,0,0,0,41.025,46H46Z"></path><path d="M46,34.21c-1.413.567-2.78,2.3-3.728,4.893A12.936,12.936,0,0,0,46,39.952Z"></path><path d="M37.28,38.4A12.932,12.932,0,0,0,34.051,46h4.975a26.1,26.1,0,0,1,.829-5.822A15.011,15.011,0,0,1,37.28,38.4Z"></path><path d="M19.63,18.07l5-2A.937.937,0,0,1,25,16H49V14H48V5a1,1,0,0,0-1-1H46v7a1.008,1.008,0,0,1-.71.96A.967.967,0,0,1,45,12a.984.984,0,0,1-.83-.45L43,9.8l-1.17,1.75a.992.992,0,0,1-1.12.41A1.008,1.008,0,0,1,40,11V4H17a1,1,0,0,0-1,1V53a1,1,0,0,0,1,1H33.76A14.771,14.771,0,0,1,32,47,15.018,15.018,0,0,1,47,32c.34,0,.67.01,1,.04V22H25a.937.937,0,0,1-.37-.07l-5-2a1,1,0,0,1,0-1.86ZM20,8h6v2H20Zm0,4h6v2H20Zm1,13a1,1,0,0,1,1-1H42a1,1,0,0,1,1,1v6H41V26H23v6H38v2H22a1,1,0,0,1-1-1Zm16,3v2H35V28Zm-4,0v2H31V28Zm-4,0v2H27V28ZM20,38H30v2H20Zm0,4H30v2H20Z"></path><rect x="6" y="46" width="2" height="2"></rect><rect x="6" y="50" width="2" height="2"></rect><path d="M8,54H6v6a1,1,0,0,0,1,1H21V59H8Z"></path><rect x="23" y="59" width="2" height="2"></rect><rect x="27" y="59" width="2" height="2"></rect><rect x="6" y="13" width="2" height="10"></rect></g></svg>