<svg xmlns="http://www.w3.org/2000/svg" viewBox="0 0 64 64" x="0px" y="0px"><g data-name="Mobile Phone-Coffee Cup-Smartphone-App-Coffee"><path d="M36.61,25h-.7l-.33,3.29,1.55-.62A1.366,1.366,0,0,0,38,26.39,1.387,1.387,0,0,0,36.61,25Z"></path><path d="M43,44.54a4.048,4.048,0,0,1,2-.51V44H43Z"></path><path d="M26.73,31.2A1.98,1.98,0,0,0,28.71,33h2.58a2,2,0,0,0,1.99-1.8L33.9,25H26.1Z"></path><path d="M15,10V34.93l1.44-2.49a4,4,0,1,1,6.93,4L20.15,42H35V40a4,4,0,1,1,8,0v2h2V10Zm18,5h2a5.738,5.738,0,0,1-1.17,3.55A3.822,3.822,0,0,0,33,21H31a5.738,5.738,0,0,1,1.17-3.55A3.822,3.822,0,0,0,33,15Zm-4.83,2.45A3.822,3.822,0,0,0,29,15h2a5.738,5.738,0,0,1-1.17,3.55A3.822,3.822,0,0,0,29,21H27A5.738,5.738,0,0,1,28.17,17.45Zm9.7,12.08-2.52,1-.08.87A3.994,3.994,0,0,1,31.29,35H28.71a3.994,3.994,0,0,1-3.98-3.6l-.62-6.2a2.025,2.025,0,0,1,.51-1.54A2,2,0,0,1,26.1,23H36.61A3.393,3.393,0,0,1,40,26.39,3.356,3.356,0,0,1,37.87,29.53Z"></path><path d="M18.13,41.5a1.023,1.023,0,0,0-.06.87l1.29,3.21A9.149,9.149,0,0,1,20,48.93v1.3a9,9,0,0,1-1.28,4.63l-1.58,2.63A1,1,0,0,0,17,58v3H6.22l.76-3.8a.81.81,0,0,0,.01-.31L5.57,44.11A14.908,14.908,0,0,1,7.5,34.95L13,25.42V38.39L11.44,41.1l1.73,1,5-8.66a1.988,1.988,0,0,1,2.73-.73,1.927,1.927,0,0,1,.93,1.21,1.974,1.974,0,0,1-.2,1.52Z"></path><path d="M44.9,8A5.017,5.017,0,0,0,40,4H20a5.017,5.017,0,0,0-4.9,4Z"></path><path d="M59,50V61H33.69l-4.02-6.96a2,2,0,0,1,.3-2.39,1.9,1.9,0,0,1,.43-.34,2.005,2.005,0,0,1,2.48.4,1.367,1.367,0,0,1,.25.33l2,3.46a1.022,1.022,0,0,0,1.13.47A1,1,0,0,0,37,55V40a2.006,2.006,0,0,1,2-2,2.015,2.015,0,0,1,2,2V52a1,1,0,0,0,2,0V48a2.006,2.006,0,0,1,2-2,2.1,2.1,0,0,1,1.41.59A1.983,1.983,0,0,1,47,48v4a1,1,0,0,0,2,0V49a2.006,2.006,0,0,1,2-2,2.015,2.015,0,0,1,2,2v3a1,1,0,0,0,2,0V50a2.006,2.006,0,0,1,2-2,2.015,2.015,0,0,1,2,2Z"></path><path d="M20.88,44l.33.84A10.825,10.825,0,0,1,22,48.93V50h6.81a4.478,4.478,0,0,1,.59-.43,4.1,4.1,0,0,1,4.57.43H35V44ZM33,48H27V46h6Z"></path></g></svg>