<svg xmlns="http://www.w3.org/2000/svg" viewBox="0 0 64 64" x="0px" y="0px"><g><path d="M17,36h6V33a1,1,0,0,1,.293-.707L25,30.586V26a1,1,0,0,1,.684-.949l6-2A1,1,0,0,1,33,24V35a1,1,0,0,1-.293.707L23,45.414V48H48V32A13.966,13.966,0,0,1,34.939,13H24a7,7,0,0,0-7,7Zm4-17a1,1,0,0,0,2,0h2a3,3,0,0,1-6,0Z"></path><rect x="18" y="54" width="35" height="6"></rect><rect x="21" y="50" width="29" height="2"></rect><path d="M35,11c.308,0,.6.01.879.025a14.1,14.1,0,0,1,5.488-5.35A12.833,12.833,0,0,0,35,4H17.062A8.012,8.012,0,0,0,25,11Z"></path><path d="M16.108,15.678,9.434,13.29l5.588,6.148A8.9,8.9,0,0,1,16.108,15.678Z"></path><path d="M48,6A12,12,0,1,0,60,18,12.013,12.013,0,0,0,48,6Zm0,22A10,10,0,1,1,58,18,10.011,10.011,0,0,1,48,28Z"></path><path d="M48,10a8,8,0,1,0,8,8A8.009,8.009,0,0,0,48,10Zm-1,7h2a3,3,0,0,1,0,6v1H47V23a3,3,0,0,1-3-3h2a1,1,0,0,0,1,1h2a1,1,0,0,0,0-2H47a3,3,0,0,1,0-6V12h2v1a3,3,0,0,1,3,3H50a1,1,0,0,0-1-1H47a1,1,0,0,0,0,2Z"></path></g></svg>