<svg xmlns="http://www.w3.org/2000/svg" viewBox="0 0 64 64" x="0px" y="0px"><g data-name="Premium Quality"><path d="M50.819,26.206A4.39,4.39,0,0,0,52,24a4.39,4.39,0,0,0-1.181-2.206,7.325,7.325,0,0,1-1.427-2.456,7.576,7.576,0,0,1,0-2.925A4.354,4.354,0,0,0,49.324,14a4.367,4.367,0,0,0-2.088-1.286,7.463,7.463,0,0,1-2.507-1.441,7.463,7.463,0,0,1-1.441-2.507A4.367,4.367,0,0,0,42,6.677a4.367,4.367,0,0,0-2.415-.07,7.523,7.523,0,0,1-2.926,0,7.331,7.331,0,0,1-2.455-1.427A4.39,4.39,0,0,0,32,4a4.39,4.39,0,0,0-2.206,1.181,7.325,7.325,0,0,1-2.456,1.427,7.518,7.518,0,0,1-2.925,0A4.364,4.364,0,0,0,22,6.676a4.367,4.367,0,0,0-1.286,2.088,7.463,7.463,0,0,1-1.441,2.507,7.463,7.463,0,0,1-2.507,1.441A4.367,4.367,0,0,0,14.677,14a4.356,4.356,0,0,0-.07,2.415,7.581,7.581,0,0,1,0,2.926,7.331,7.331,0,0,1-1.427,2.455A4.39,4.39,0,0,0,12,24a4.39,4.39,0,0,0,1.181,2.206,7.325,7.325,0,0,1,1.427,2.456,7.576,7.576,0,0,1,0,2.925A4.354,4.354,0,0,0,14.676,34a4.367,4.367,0,0,0,2.088,1.286,7.463,7.463,0,0,1,2.507,1.441,7.463,7.463,0,0,1,1.441,2.507A4.367,4.367,0,0,0,22,41.323a4.348,4.348,0,0,0,2.415.07,13.2,13.2,0,0,1,1.7-.148,4.665,4.665,0,0,1,1.221.147,7.331,7.331,0,0,1,2.455,1.427A4.39,4.39,0,0,0,32,44a4.39,4.39,0,0,0,2.206-1.181,7.325,7.325,0,0,1,2.456-1.427,7.537,7.537,0,0,1,2.925,0A4.373,4.373,0,0,0,42,41.324a4.367,4.367,0,0,0,1.286-2.088,7.463,7.463,0,0,1,1.441-2.507,7.463,7.463,0,0,1,2.507-1.441A4.367,4.367,0,0,0,49.323,34a4.356,4.356,0,0,0,.07-2.415,7.581,7.581,0,0,1,0-2.926A7.331,7.331,0,0,1,50.819,26.206ZM37.929,38.859A16,16,0,1,1,48,24,15.861,15.861,0,0,1,37.929,38.859Z"></path><path d="M32,10A14,14,0,1,0,46,24,14.015,14.015,0,0,0,32,10Zm5.613,21.665L32,27.6l-5.613,4.069,2.147-6.593L22.918,21h6.936L32,14.41,34.146,21h6.936l-5.616,4.072Z"></path><path d="M43,59.612V54H40V52h3V43.056a5.768,5.768,0,0,1-3.669.32,6.207,6.207,0,0,0-2.152-.053,5.93,5.93,0,0,0-1.754,1.083A5.85,5.85,0,0,1,32,46a5.85,5.85,0,0,1-3.425-1.594,5.94,5.94,0,0,0-1.753-1.083,6.206,6.206,0,0,0-2.152.053,5.775,5.775,0,0,1-3.67-.32V48h7v2H21v9.612L31,56.28V49h2v7.28ZM36,52h2v2H36Z"></path><polygon points="32.694 23 32 20.869 31.306 23 29.082 23 30.886 24.309 30.193 26.435 32 25.125 33.807 26.435 33.114 24.309 34.918 23 32.694 23"></polygon></g></svg>