<svg xmlns="http://www.w3.org/2000/svg" viewBox="0 0 64 64" x="0px" y="0px"><g data-name="Playground"><circle cx="32" cy="5" r="2"></circle><path d="M55.77,33.39,35.19,7.41a4,4,0,0,1-2.75,1.57c-.15.01-.29.02-.44.02s-.29-.01-.44-.02a4,4,0,0,1-2.75-1.57L8.23,33.39A.959.959,0,0,0,8,34v7h2V35h2v6h2V35h6v6h2V35h9V33H22.45L31,10.45V33h2V10.45L41.55,33H33v2h9v6h2V35h6v6h2V35h2v6h2V34A.959.959,0,0,0,55.77,33.39ZM12.46,33H11.07l8-10.09Zm7.85,0H14.85L27.81,13.21Zm23.38,0-7.5-19.79L49.15,33Zm7.85,0L44.93,22.91l8,10.09Z"></path><rect x="31" y="47" width="2" height="5"></rect><rect x="6" y="58" width="52" height="2"></rect><rect x="35" y="43" width="21" height="2"></rect><rect x="8" y="43" width="21" height="2"></rect><rect x="31" y="43" width="2" height="2"></rect><rect x="31" y="35" width="2" height="6"></rect><rect x="25" y="54" width="14" height="2"></rect></g></svg>