<svg xmlns="http://www.w3.org/2000/svg" viewBox="0 0 48 48" x="0px" y="0px"><title>Target</title><g><path d="M24,0A24,24,0,1,0,48,24,24.028,24.028,0,0,0,24,0Zm0,46A22,22,0,1,1,46,24,22.025,22.025,0,0,1,24,46Z"></path><path d="M25,13.051V10H23v3.051A11.01,11.01,0,0,0,13.051,23H10v2h3.051A11.01,11.01,0,0,0,23,34.949V38h2V34.949A11.01,11.01,0,0,0,34.949,25H38V23H34.949A11.01,11.01,0,0,0,25,13.051Zm0,19.89V32H23v.941A9.013,9.013,0,0,1,15.059,25H16V23h-.941A9.013,9.013,0,0,1,23,15.059V16h2v-.941A9.013,9.013,0,0,1,32.941,23H32v2h.941A9.013,9.013,0,0,1,25,32.941Z"></path><path d="M24,19a5,5,0,1,0,5,5A5.006,5.006,0,0,0,24,19Zm0,8a3,3,0,1,1,3-3A3,3,0,0,1,24,27Z"></path><rect x="23" y="23" width="2" height="2"></rect></g></svg>