<svg xmlns="http://www.w3.org/2000/svg" viewBox="0 0 64 64" x="0px" y="0px"><title>Password-Lock</title><g><path d="M24,37H40a1,1,0,0,0,1-1V20a1,1,0,0,0-1-1H39V16a7,7,0,0,0-14,0v3H24a1,1,0,0,0-1,1V36A1,1,0,0,0,24,37Zm3-21a5,5,0,0,1,10,0v3H27Zm-2,5H39V35H25Z"></path><path d="M32,23a2.993,2.993,0,0,0-1,5.816V33h2V28.816A2.993,2.993,0,0,0,32,23Zm0,4a1,1,0,1,1,1-1A1,1,0,0,1,32,27Z"></path><path d="M59,2H5A3,3,0,0,0,2,5V45a3,3,0,0,0,3,3H22.9l-.8,8H19a1,1,0,0,0-1,1v3H16v2H48V60H46V57a1,1,0,0,0-1-1H41.905l-.8-8H59a3,3,0,0,0,3-3V5A3,3,0,0,0,59,2ZM44,58v2H20V58ZM24.105,56l.8-8H39.1l.8,8ZM60,45a1,1,0,0,1-1,1H5a1,1,0,0,1-1-1V5A1,1,0,0,1,5,4H59a1,1,0,0,1,1,1Z"></path><path d="M56,6H8A2,2,0,0,0,6,8V39a1,1,0,0,0,1,1H57a1,1,0,0,0,1-1V8A2,2,0,0,0,56,6Zm0,32H8V8H56Z"></path><rect x="31" y="42" width="2" height="2"></rect></g></svg>