<svg xmlns="http://www.w3.org/2000/svg" viewBox="0 0 64 64" x="0px" y="0px"><g data-name="Crane Truck"><rect x="42" y="32" width="4" height="2"></rect><rect x="11" y="44" width="2" height="2"></rect><rect x="25" y="44" width="2" height="2"></rect><rect x="48" y="44" width="2" height="2"></rect><path d="M61.31,27.574l-4.863-9A3,3,0,0,0,53.807,17H39a1,1,0,0,0-1,1V38H36V14a1,1,0,0,0-1-1H3a1,1,0,0,0-1,1v4a1,1,0,0,0,1,1H4.069L5,32.071A1,1,0,0,0,6,33H16a1,1,0,0,0,1-.929L17.931,19H30V33a1,1,0,0,0-.707.293L27.586,35H3a1,1,0,0,0-1,1v8a2,2,0,0,0,2,2H6.09a5.993,5.993,0,0,0,11.82,0h2.18a5.993,5.993,0,0,0,11.82,0H43.09a5.993,5.993,0,0,0,11.82,0H59a3,3,0,0,0,3-3V30.108A4.959,4.959,0,0,0,61.31,27.574Zm-6.623-8.049L59.267,28H44V19h9.807A1,1,0,0,1,54.687,19.525ZM38,40v4H36V40ZM34,15v2H32V15ZM12,26H10V24h2Zm2-2h1.569l-.143,2H14Zm-2,4v3H10V28ZM6.431,24H8v2H6.574ZM10,22V19h2v3ZM8,22H6.288l-.214-3H8ZM6.717,28H8v3H6.931ZM14,31V28h1.283l-.214,3Zm1.712-9H14V19h1.926ZM4,17V15H30v2Zm28,2h2V33H32ZM12,49a4,4,0,1,1,4-4A4,4,0,0,1,12,49Zm14,0a4,4,0,1,1,4-4A4,4,0,0,1,26,49Zm0-10a6.006,6.006,0,0,0-5.91,5H17.91A5.993,5.993,0,0,0,6.09,44H4V37H28a1,1,0,0,0,.707-.293L30.414,35H34v9H31.91A6.006,6.006,0,0,0,26,39ZM49,49a4,4,0,1,1,4-4A4,4,0,0,1,49,49Zm10-5H54.91a5.993,5.993,0,0,0-11.82,0H40V19h2V29a1,1,0,0,0,1,1H59.985c0,.036.015.071.015.108V32H56a2,2,0,0,0-2,2v2a2,2,0,0,0,2,2h4v2H57v2h3v1A1,1,0,0,1,59,44Zm1-10v2H56V34Z"></path></g></svg>