<svg xmlns="http://www.w3.org/2000/svg" viewBox="0 0 64 64" x="0px" y="0px"><g data-name="Investment-Global-World-Online Banking-Map"><path d="M28,59.7V53.41l-1.71-1.7A1.033,1.033,0,0,1,26,51V48H23a1.033,1.033,0,0,1-.71-.29l-2-2A1.033,1.033,0,0,1,20,45V42a1.033,1.033,0,0,1,.29-.71l3.36-3.35A8.622,8.622,0,0,1,23,35a10.008,10.008,0,0,1,8.04-9.8A1.416,1.416,0,0,1,31,25V23a1,1,0,0,1,1-1h6a1,1,0,0,1,1,1v4.02a10.338,10.338,0,0,1,1.81,1.75L42,27.59V22.41L37.59,18H33a1.033,1.033,0,0,1-.71-.29l-4-4A1.033,1.033,0,0,1,28,13V6.31a27.541,27.541,0,0,0-6.73,1.91A10,10,0,0,1,25,16c0,5.2-8.31,14.61-9.26,15.67a.995.995,0,0,1-1.48,0c-.19-.21-.64-.72-1.26-1.45v1.37l4.71,4.7A1.033,1.033,0,0,1,18,37v3a1.033,1.033,0,0,1-.29.71L15,43.41V46a1.033,1.033,0,0,1-.29.71l-3.5,3.5A27.007,27.007,0,0,0,28,59.7Z"></path><path d="M13,45.59V43a1.033,1.033,0,0,1,.29-.71L16,39.59V37.41l-4.71-4.7A1.033,1.033,0,0,1,11,32V29a.975.975,0,0,1,.39-.77,51.343,51.343,0,0,1-4.14-6.01A26.934,26.934,0,0,0,9.98,48.6Z"></path><path d="M32,60V56a1.033,1.033,0,0,1,.29-.71L35,52.59V49.22c-.62.73-1.07,1.24-1.26,1.45a.995.995,0,0,1-1.48,0,59.551,59.551,0,0,1-7.74-10.78L22,42.41v2.18L23.41,46H27a1,1,0,0,1,1,1v3.59l1.71,1.7A1.033,1.033,0,0,1,30,53v6.92C30.66,59.97,31.33,60,32,60Z"></path><path d="M42.65,37.07A26.836,26.836,0,0,1,39,43.99V47a1.033,1.033,0,0,1-.29.71L37,49.41V53a1.033,1.033,0,0,1-.29.71L34,56.41v3.51a26.893,26.893,0,0,0,15-5.96V48.41l-4.71-4.7A1.033,1.033,0,0,1,44,43V38.41Z"></path><path d="M15,29.48c2.77-3.24,8-10.06,8-13.48A8,8,0,0,0,7,16C7,19.42,12.23,26.24,15,29.48ZM16,17H14a3,3,0,0,1,0-6V10h2v1a3,3,0,0,1,3,3H17a1,1,0,0,0-1-1H14a1,1,0,0,0,0,2h2a3,3,0,0,1,0,6v1H14V21a3,3,0,0,1-3-3h2a1,1,0,0,0,1,1h2a1,1,0,0,0,0-2Z"></path><path d="M59,33a26.768,26.768,0,0,0-2.1-10.46c-1.92,2.61-3.74,4.67-4.16,5.13a.995.995,0,0,1-1.48,0C50.31,26.61,42,17.2,42,12a10.051,10.051,0,0,1,.74-3.77A26.836,26.836,0,0,0,32,6c-.67,0-1.33.03-2,.08v6.51L33.41,16H38a1.033,1.033,0,0,1,.71.29l5,5A1.033,1.033,0,0,1,44,22v6a1.033,1.033,0,0,1-.29.71L42,30.41v.26a9.972,9.972,0,0,1,.98,3.89l2.73,2.73A1.033,1.033,0,0,1,46,38v4.59l4.71,4.7A1.033,1.033,0,0,1,51,48v4.16A26.9,26.9,0,0,0,59,33Z"></path><path d="M52,25.48c2.77-3.24,8-10.06,8-13.48a8,8,0,0,0-16,0C44,15.42,49.23,22.24,52,25.48ZM53,13H51a3,3,0,0,1,0-6V6h2V7a3,3,0,0,1,3,3H54a1,1,0,0,0-1-1H51a1,1,0,0,0,0,2h2a3,3,0,0,1,0,6v1H51V17a3,3,0,0,1-3-3h2a1,1,0,0,0,1,1h2a1,1,0,0,0,0-2Z"></path><path d="M37,24H33v.59l.44.43a10.074,10.074,0,0,1,3.56.82Z"></path><path d="M33,27a8.011,8.011,0,0,0-8,8c0,3.42,5.23,10.24,8,13.48,2.77-3.24,8-10.06,8-13.48A8.011,8.011,0,0,0,33,27Zm-1,7h2a3,3,0,0,1,0,6v1H32V40a3,3,0,0,1-3-3h2a1,1,0,0,0,1,1h2a1,1,0,0,0,0-2H32a3,3,0,0,1,0-6V29h2v1a3,3,0,0,1,3,3H35a1,1,0,0,0-1-1H32a1,1,0,0,0,0,2Z"></path></g></svg>