<svg xmlns="http://www.w3.org/2000/svg" viewBox="0 0 64 64" x="0px" y="0px"><g data-name="Presentaion report"><rect x="21" y="20" width="6" height="2"></rect><rect x="23" y="58" width="18" height="2"></rect><rect x="21" y="27" width="12" height="2"></rect><rect x="21" y="34" width="28" height="2"></rect><rect x="4" y="46" width="56" height="2"></rect><rect x="30" y="50" width="4" height="6"></rect><path d="M6,44H58V12H6ZM44,16h8v2H44Zm8,4v2H48V20Zm-8,0h2v2H44ZM19,16h2v2h8v6H21v1H35v6H21v1H51v6H21v1H53v2H19Zm-2,9H13V23h4ZM9,19h6v2H9Zm0,4h2v2H9Zm0,5h8v2H9Zm0,6h6v2H9Zm0,4h6v2H9Z"></path><rect x="30" y="4" width="4" height="2"></rect><rect x="4" y="8" width="56" height="2"></rect></g></svg>