<svg xmlns="http://www.w3.org/2000/svg" viewBox="0 0 64 64" x="0px" y="0px"><g><rect x="22" y="56" width="2" height="2"></rect><rect x="26" y="56" width="2" height="2"></rect><path d="M61.334,59.163l-7.777-7.778a1,1,0,0,1,0-1.414l1.415-1.414a1.021,1.021,0,0,1,1.414,0l3.908,3.908,1.414-1.414L57.8,47.143a3.072,3.072,0,0,0-4.242,0h0l-3.57-3.571A15.992,15.992,0,0,0,44,18.165V17a3,3,0,0,0-3-3H39a3.009,3.009,0,0,0-1,.171V12a3,3,0,0,0-3-3H33a3.009,3.009,0,0,0-1,.171V5a3,3,0,0,0-3-3H27a3,3,0,0,0-3,3V6.171A3.009,3.009,0,0,0,23,6H21a3,3,0,0,0-3,3V29.586l-3.728-3.728a5,5,0,0,0-7.071,0l-.706.706a3,3,0,0,0,0,4.241L18,42.412V61a1,1,0,0,0,1,1H43a1,1,0,0,0,1-1V47.835a15.894,15.894,0,0,0,4.572-2.849l3.57,3.57h0a3,3,0,0,0,0,4.242l7.778,7.778a2.987,2.987,0,0,0,2.06.878l.04-2A.991.991,0,0,1,61.334,59.163ZM39,16h2a1,1,0,0,1,1,1v.521A16.055,16.055,0,0,0,38,17,1,1,0,0,1,39,16ZM24.037,32.232A13.888,13.888,0,0,1,28.1,23.1,14.068,14.068,0,0,1,30,21.52V25h2V20.361a13.844,13.844,0,0,1,4-1.2V25h2V19a14.022,14.022,0,0,1,4,.581V46.419A13.994,13.994,0,0,1,24.1,34.591,8.991,8.991,0,0,1,28,42h2A11,11,0,0,0,24.037,32.232ZM33,11h2a1,1,0,0,1,1,1v5.138a15.888,15.888,0,0,0-4,1.027V12A1,1,0,0,1,33,11ZM26,5a1,1,0,0,1,1-1h2a1,1,0,0,1,1,1V19.156a16.033,16.033,0,0,0-3.313,2.531c-.243.242-.462.5-.687.756ZM21,8h2a1,1,0,0,1,1,1V25h.156a15.832,15.832,0,0,0-2.08,6.446,10.883,10.883,0,0,0-2.076-.4V9A1,1,0,0,1,21,8ZM42,60H20V52H42Zm0-10H20V42a1,1,0,0,0-.29-.7l-11.8-11.9a1,1,0,0,1,0-1.415l.707-.707a3.075,3.075,0,0,1,4.243,0l5.435,5.435a.991.991,0,0,0,.707.284V33a8.931,8.931,0,0,1,3.026.535A15.972,15.972,0,0,0,38,49a16.055,16.055,0,0,0,4-.521Zm2-29.639a13.978,13.978,0,0,1,0,25.278Z"></path><path d="M31.9,30.64a2.86,2.86,0,0,0,4.87,0c.4-.485.562-.641.9-.641s.5.156.9.641A3.049,3.049,0,0,0,41,32V30c-.337,0-.5-.156-.9-.641a2.863,2.863,0,0,0-4.872,0c-.4.485-.562.641-.9.641-.321,0-.471-.129-.9-.64A3.042,3.042,0,0,0,31,28v2C31.321,30,31.471,30.129,31.9,30.64Z"></path><path d="M37.907,38.142a3.046,3.046,0,0,0-2.563-1.1c-.629-.024-.85-.055-1.055-.322s-.179-.489-.041-1.1a3.047,3.047,0,0,0-.407-2.759l-1.586,1.218c.206.268.179.49.041,1.1a2.862,2.862,0,0,0,2.97,3.862c.629.024.85.055,1.056.322s.185.452.039,1.1a3.044,3.044,0,0,0,.405,2.758L38.351,42c-.2-.255-.184-.451-.039-1.1A3.039,3.039,0,0,0,37.907,38.142Z"></path></g></svg>