<svg xmlns="http://www.w3.org/2000/svg" viewBox="0 0 64 64" x="0px" y="0px"><g data-name="Robotics Arm"><path d="M39,48a5,5,0,1,0,5,5A5.006,5.006,0,0,0,39,48Zm0,8a3,3,0,1,1,3-3A3,3,0,0,1,39,56Z"></path><path d="M51,48a5,5,0,1,0,5,5A5.006,5.006,0,0,0,51,48Zm0,8a3,3,0,1,1,3-3A3,3,0,0,1,51,56Z"></path><path d="M27,48a5,5,0,1,0,5,5A5.006,5.006,0,0,0,27,48Zm0,8a3,3,0,1,1,3-3A3,3,0,0,1,27,56Z"></path><path d="M18.75,45.733l-1.5-1.323A12.976,12.976,0,0,0,14,53h2A10.98,10.98,0,0,1,18.75,45.733Z"></path><path d="M14.181,55.167a12.921,12.921,0,0,0,.562,2.167l1.885-.668a10.971,10.971,0,0,1-.476-1.833Z"></path><path d="M51,40v2a11.006,11.006,0,0,1,8.25,3.733l1.5-1.323A13.008,13.008,0,0,0,51,40Z"></path><rect x="47" y="40" width="2" height="2"></rect><path d="M51,44H44V41.89a6.927,6.927,0,0,0,1.773-6.628L57.081,15.684A7,7,0,1,0,50.11,4H19.89a6.992,6.992,0,1,0-9.549,10.21A4.923,4.923,0,0,0,10,16v2a1,1,0,0,0-1,1v3H8a1,1,0,0,0-1,1v6a1,1,0,0,0,1,1H9v4a1,1,0,0,0,.293.707l3,3,1.414-1.414L11,33.586V30h8v3.586l-2.707,2.707,1.414,1.414,3-3A1,1,0,0,0,21,34V30h1a1,1,0,0,0,1-1V23a1,1,0,0,0-1-1H21V19a1,1,0,0,0-1-1V16a4.923,4.923,0,0,0-.341-1.79c.077-.069.156-.137.231-.21H46.516l-9.4,16.264A6.987,6.987,0,0,0,34,41.89V44H27a9,9,0,0,0,0,18H51a9,9,0,0,0,0-18ZM39.565,30.029,49.339,13.1A6.991,6.991,0,0,0,54.6,15.98L44.755,33.026A7,7,0,0,0,39.565,30.029ZM55,4a5,5,0,1,1-5,5A5.006,5.006,0,0,1,55,4ZM10,9a5,5,0,1,1,5,5A5.006,5.006,0,0,1,10,9ZM21,28H9V24H21ZM11,22V20h8v2Zm7-6v2H12V16a2.991,2.991,0,0,1,.087-.643,6.92,6.92,0,0,0,5.826,0A2.991,2.991,0,0,1,18,16Zm3.315-4a6.912,6.912,0,0,0,0-6h27.37a6.9,6.9,0,0,0-.4,4.946L47.672,12ZM39,32a5,5,0,1,1-5,5A5.006,5.006,0,0,1,39,32ZM36,43.315a6.912,6.912,0,0,0,6,0V44H36ZM51,60H27a7,7,0,0,1,0-14H51a7,7,0,0,1,0,14Z"></path><rect x="26" y="52" width="2" height="2"></rect><rect x="38" y="52" width="2" height="2"></rect><rect x="50" y="52" width="2" height="2"></rect><path d="M39,40a3,3,0,1,0-3-3A3,3,0,0,0,39,40Zm0-4a1,1,0,1,1-1,1A1,1,0,0,1,39,36Z"></path><path d="M55,12a3,3,0,1,0-3-3A3,3,0,0,0,55,12Zm0-4a1,1,0,1,1-1,1A1,1,0,0,1,55,8Z"></path><path d="M15,12a3,3,0,1,0-3-3A3,3,0,0,0,15,12Zm0-4a1,1,0,1,1-1,1A1,1,0,0,1,15,8Z"></path><rect x="47" y="27.804" width="12" height="2" transform="translate(1.558 60.306) rotate(-60.005)"></rect><rect x="56.5" y="20.009" width="2" height="2" transform="translate(10.559 60.306) rotate(-60.005)"></rect></g></svg>