<svg xmlns="http://www.w3.org/2000/svg" viewBox="0 0 64 64" x="0px" y="0px"><g data-name="Mobile Marketing"><path d="M58,18a3.992,3.992,0,0,0-1,.143V5a3,3,0,0,0-3-3H10A3,3,0,0,0,7,5V18.143A3.992,3.992,0,0,0,6,18a4,4,0,0,0-4,4V46a1,1,0,0,0,.219.625L6,51.351V52H5a1,1,0,0,0-1,1v8a1,1,0,0,0,1,1H21a1,1,0,0,0,1-1V53a1,1,0,0,0-1-1H20V45.05a1,1,0,0,0-.133-.5L17.239,40H46.761l-2.628,4.551a1,1,0,0,0-.133.5V52H43a1,1,0,0,0-1,1v8a1,1,0,0,0,1,1H59a1,1,0,0,0,1-1V53a1,1,0,0,0-1-1H58v-.649l3.781-4.726A1,1,0,0,0,62,46V22A4,4,0,0,0,58,18ZM10,4H54a1,1,0,0,1,1,1V30.638a3.293,3.293,0,0,0-.5-.038,3.949,3.949,0,0,0-1.5.3V8a2,2,0,0,0-2-2H13a2,2,0,0,0-2,2V30.9a3.946,3.946,0,0,0-1.5-.3,3.293,3.293,0,0,0-.5.038V5A1,1,0,0,1,10,4ZM50.226,34H33.97c-.036-.077-.061-.154-.1-.23L30.8,28.464l7.565-1.093a2.982,2.982,0,0,0,3.659.531h0a3.006,3.006,0,0,0,1.1-4.1l-2.5-4.33h0a3,3,0,0,0-3-5.2h0l-2.5-4.331a2.994,2.994,0,0,0-5.471,2.331l-6.189,7.861-5.021,2.9a2.975,2.975,0,0,0-1.406,1.833,2.943,2.943,0,0,0,.307,2.264l2,3.472a3,3,0,0,0,4.089,1.1L24.758,34H13.775L13,32.659V8H40.467l-.844,3.152,1.931.518L42.538,8H51V32.659ZM31.77,36.134l-1.727,1a1.019,1.019,0,0,1-1.377-.362l-3.5-6.062h0l3.295-1.9.205-.03,3.459,5.989a1,1,0,0,1-.359,1.373ZM20.3,24.277l3,5.2-.861.5a1,1,0,0,1-1.367-.361l-2-3.479a.966.966,0,0,1-.1-.745.992.992,0,0,1,.47-.611Zm3.46-2,3,5.2-1.728,1-3-5.2Zm16.324-5.143a.992.992,0,0,1-.464.608l-1-1.732h0a1,1,0,0,1,1.463,1.124Zm1.3,7.67a1,1,0,1,1-1.731,1l-8-13.857a1,1,0,0,1,.865-1.5,1.049,1.049,0,0,1,.26.034,1,1,0,0,1,.607.466ZM30.666,14.224l6.522,11.3L29.062,26.7l-.4.056L25.334,21ZM20,60H6V54H20Zm-2-8H8V51a1,1,0,0,0-.219-.625L4,45.649V22a2,2,0,0,1,2-2,1.979,1.979,0,0,1,1,.274V31.5A4,4,0,0,0,6.034,36.6l5.72,9.9,1.732-1-5.72-9.9a2.005,2.005,0,0,1,.724-2.728,1.831,1.831,0,0,1,.651-.231A2.992,2.992,0,0,1,9.5,32.6a1.945,1.945,0,0,1,1.008.28,1.892,1.892,0,0,1,.653.614c.019.028.052.08.074.107L18,45.317ZM14.929,36H25.912l1.026,1.777c.05.084.12.146.176.223H16.084Zm17.61,2,.235-.136A3,3,0,0,0,34.168,36h14.9l-1.155,2ZM58,60H44V54H58Zm2-14.351-3.781,4.726A1,1,0,0,0,56,51v1H46V45.317l6.779-11.74a.971.971,0,0,0,.06-.083A2.033,2.033,0,0,1,54.5,32.6a2.992,2.992,0,0,1,.359.041,1.812,1.812,0,0,1,.639.224,2.008,2.008,0,0,1,.736,2.735l-5.72,9.9,1.732,1,5.72-9.9A4,4,0,0,0,57,31.5V20.274A1.979,1.979,0,0,1,58,20a2,2,0,0,1,2,2Z"></path><rect x="43.187" y="12.376" width="4" height="2" transform="translate(-0.634 24.387) rotate(-30.002)"></rect><rect x="45.638" y="16.767" width="2" height="4.243" transform="translate(16.322 59.048) rotate(-75)"></rect><rect x="16" y="56" width="2" height="2"></rect><rect x="46" y="56" width="2" height="2"></rect><rect x="17" y="10" width="2" height="2"></rect><rect x="21" y="10" width="4" height="2"></rect><rect x="17" y="14" width="8" height="2"></rect></g></svg>