<svg xmlns="http://www.w3.org/2000/svg" viewBox="0 0 64 64" x="0px" y="0px"><g><circle cx="23" cy="23" r="2"></circle><polygon points="25.883 50 25.133 56 38.867 56 38.117 50 25.883 50"></polygon><path d="M52,5a1,1,0,0,0-1-1H13a1,1,0,0,0-1,1V8H52ZM16,7H14V5h2Zm4,0H18V5h2Zm4,0H22V5h2Z"></path><path d="M4,45a3,3,0,0,0,3,3H57a3,3,0,0,0,3-3V42H4Zm51-1h2v2H55Z"></path><polygon points="42 58 22 58 22 60 18 60 18 62 46 62 46 60 42 60 42 58"></polygon><path d="M57,12H54V35a3,3,0,0,1-3,3H13a3,3,0,0,1-3-3V12H7a3,3,0,0,0-3,3V40H60V15A3,3,0,0,0,57,12Z"></path><circle cx="41" cy="23" r="2"></circle><path d="M13,36H51a1,1,0,0,0,1-1V10H12V35A1,1,0,0,0,13,36Zm19-3a10,10,0,0,1-9.169-6.017,4.017,4.017,0,1,1,2.011-.453,7.977,7.977,0,0,0,13.136,1.782l1.5,1.328A10,10,0,0,1,32,33Zm18,1H44V32h6Zm0-4H44V28h6ZM32,13a10,10,0,0,1,9.169,6.017,4.017,4.017,0,1,1-2.011.453,7.978,7.978,0,0,0-13.137-1.782l-1.5-1.328A10.006,10.006,0,0,1,32,13ZM19,12h4v2H19Zm-4,0h2v2H15Zm0,4h4v2H15Z"></path></g></svg>