<svg xmlns="http://www.w3.org/2000/svg" viewBox="0 0 64 64" x="0px" y="0px"><g><rect x="52" y="41" width="4" height="2"></rect><path d="M60,27a5.006,5.006,0,0,0-5-5H46v6h4v2H11V28h4V22H9a5.006,5.006,0,0,0-5,5V56H60ZM12,54H6V52h6Zm4,0H14V52h2Zm0-4H6V48H16Zm32,2H46V32h2Zm10-8a1,1,0,0,1-1,1H55v7H53V45H51a1,1,0,0,1-1-1V40a1,1,0,0,1,1-1h2V32h2v7h2a1,1,0,0,1,1,1Z"></path><path d="M16.5,17.052a1,1,0,0,1,.5.868V28H31V17.92a1,1,0,0,1,.513-.874,6.534,6.534,0,0,0,1.441-1.093A7,7,0,0,0,28,4H20a6.994,6.994,0,0,0-3.5,13.052Z"></path><path d="M41,4H33.665c.026.021.049.047.075.069a8.516,8.516,0,0,1,.661.6l.006.006c.206.208.4.429.58.655.05.061.1.123.146.186.152.2.3.4.431.611.027.042.057.082.083.124.154.248.294.5.424.768.032.065.061.132.092.2q.149.322.272.657c.026.069.053.136.076.205a8.844,8.844,0,0,1,.247.852c.013.053.021.107.033.16.053.246.1.494.127.746.011.082.022.163.03.246a8.915,8.915,0,0,1-2.578,7.285A8.661,8.661,0,0,1,33,18.482V28H44V17.92a1,1,0,0,1,.513-.874,6.534,6.534,0,0,0,1.441-1.093A7.005,7.005,0,0,0,41,4Z"></path><rect x="4" y="58" width="56" height="2"></rect></g></svg>