<svg xmlns="http://www.w3.org/2000/svg" viewBox="0 0 32 32" x="0px" y="0px"><title>Warning</title><g><path d="M29,2H25a2,2,0,0,0-2-2H21a2,2,0,0,0-2,2H13a2,2,0,0,0-2-2H9A2,2,0,0,0,7,2H3A3,3,0,0,0,0,5V29a3,3,0,0,0,3,3H14a1,1,0,0,0,0-2H3a1,1,0,0,1-1-1V10H30v8a1,1,0,0,0,2,0V5A3,3,0,0,0,29,2ZM2,8V5A1,1,0,0,1,3,4H7V5A1,1,0,0,0,9,5V2h2V5a1,1,0,0,0,2,0V4h6V5a1,1,0,0,0,2,0V2h2V5a1,1,0,0,0,2,0V4h4a1,1,0,0,1,1,1V8Z"></path><path d="M11,14a1,1,0,0,0-1-1H6a1,1,0,0,0-1,1v4a1,1,0,0,0,1,1h4a1,1,0,0,0,1-1ZM9,17H7V15H9Z"></path><path d="M14,19h4a1,1,0,0,0,1-1V14a1,1,0,0,0-1-1H14a1,1,0,0,0-1,1v4A1,1,0,0,0,14,19Zm1-4h2v2H15Z"></path><path d="M23,16V15h3a1,1,0,0,0,0-2H22a1,1,0,0,0-1,1v2a1,1,0,0,0,2,0Z"></path><path d="M10,21H6a1,1,0,0,0-1,1v4a1,1,0,0,0,1,1h4a1,1,0,0,0,1-1V22A1,1,0,0,0,10,21ZM9,25H7V23H9Z"></path><path d="M13,26a1,1,0,0,0,1,1h2a1,1,0,0,0,0-2H15V23h2a1,1,0,0,0,0-2H14a1,1,0,0,0-1,1Z"></path><path d="M24.9,16.553a1.042,1.042,0,0,0-1.79,0l-7,14A1,1,0,0,0,17,32H31a1,1,0,0,0,.895-1.447ZM18.618,30,24,19.236,29.382,30Z"></path><rect x="23" y="27" width="2" height="2"></rect><rect x="23" y="22" width="2" height="4"></rect></g></svg>