<svg xmlns="http://www.w3.org/2000/svg" viewBox="0 0 64 64" x="0px" y="0px"><g data-name="Esport-Gaming-Fightinng Game-Smartphone-Online"><path d="M46,2H18a6,6,0,0,0-6,6V56a6,6,0,0,0,6,6H46a6,6,0,0,0,6-6V8A6,6,0,0,0,46,2Zm4,54a4,4,0,0,1-4,4H18a4,4,0,0,1-4-4V8a4,4,0,0,1,4-4H46a4,4,0,0,1,4,4Z"></path><path d="M34,52H30a3,3,0,0,0,0,6h4a3,3,0,0,0,0-6Zm0,4H30a1,1,0,0,1,0-2h4a1,1,0,0,1,0,2Z"></path><rect x="25" y="6" width="2" height="2"></rect><rect x="29" y="6" width="6" height="2"></rect><path d="M48.54,41.46l-4.95-4.95,2.12-2.12a1,1,0,0,0,0-1.41l-2.83-2.83a.99.99,0,0,0-.71-.29,1.007,1.007,0,0,0-.71.29l-1.38,1.38-1.92-2.09,7.68-7.03a1.024,1.024,0,0,0,.31-.63l.71-6.37a.983.983,0,0,0-1.1-1.1l-6.36.71a1.024,1.024,0,0,0-.63.31L32,22.72l-6.77-7.39a.952.952,0,0,0-.63-.31l-6.36-.71a.983.983,0,0,0-1.1,1.1l.7,6.37a.986.986,0,0,0,.32.62l7.68,7.04-1.92,2.09-1.38-1.38a1.047,1.047,0,0,0-1.42,0l-2.83,2.83a1,1,0,0,0,0,1.41l2.12,2.12-4.95,4.95a1.008,1.008,0,0,0,0,1.42l2.83,2.83a1.014,1.014,0,0,0,1.42,0l4.95-4.95,2.12,2.12a1,1,0,0,0,1.41,0l2.83-2.83a1,1,0,0,0,0-1.41l-1.38-1.39L32,35.09l2.36,2.16-1.38,1.39a1,1,0,0,0,0,1.41l2.83,2.83a1,1,0,0,0,1.41,0l2.12-2.12,4.95,4.95a1.014,1.014,0,0,0,1.42,0l2.83-2.83A1.008,1.008,0,0,0,48.54,41.46Zm-8.55-24.5,4.75-.53-.53,4.76-7.4,6.78-1.05-1.15,7.28-7.27-1.42-1.42-7.21,7.22L33.36,24.2ZM27.31,30.79l.86.79-2.1,2.11-.74-.74ZM19,43.59l-1.41-1.42,4.24-4.24,1.41,1.41Zm8.49-2.83-7.08-7.07,1.42-1.42,7.07,7.07Zm.73-4.92-.74-.74,2.17-2.17.87.8ZM19.79,21.18l-.53-4.75,4.75.53L38.67,32.95l-.74.74L22.37,18.13l-1.41,1.41L36.51,35.1l-.73.74ZM36.51,40.76,35.1,39.34l7.07-7.07,1.42,1.42ZM45,43.59l-4.24-4.25,1.41-1.41,4.24,4.24Z"></path></g></svg>