<svg xmlns="http://www.w3.org/2000/svg" viewBox="0 0 64 64" x="0px" y="0px"><g data-name="Pants-Clothes-Long"><rect x="43" y="42" width="2" height="6"></rect><rect x="19" y="21" width="2" height="2"></rect><rect x="19" y="25" width="2" height="2"></rect><rect x="43" y="21" width="2" height="2"></rect><path d="M45,13.92A7,7,0,0,1,39.08,8H37v5a3,3,0,0,1-3,3H32a1,1,0,0,1-1-1V8H24.92A7,7,0,0,1,19,13.92V19h3a1,1,0,0,1,1,1v8a1,1,0,0,1-1,1H19V40h3a1,1,0,0,1,1,1v8a1,1,0,0,1-1,1H19V60h9.074L31,21.923a1,1,0,0,1,1.994,0L35.926,60H45V50H42a1,1,0,0,1-1-1V41a1,1,0,0,1,1-1h3V29H42a1,1,0,0,1-1-1V20a1,1,0,0,1,1-1h3Z"></path><rect x="43" y="25" width="2" height="2"></rect><rect x="19" y="42" width="2" height="6"></rect><path d="M45,8H41.1A5.016,5.016,0,0,0,45,11.9Z"></path><rect x="37" y="4" width="8" height="2"></rect><path d="M19,11.9A5.016,5.016,0,0,0,22.9,8H19Z"></path><path d="M35,13V8H33v6h1A1,1,0,0,0,35,13Z"></path><rect x="33" y="4" width="2" height="2"></rect><rect x="19" y="4" width="12" height="2"></rect></g></svg>