<svg xmlns="http://www.w3.org/2000/svg" viewBox="0 0 64 64" x="0px" y="0px"><title>Document-Writing-Inkwell-File-Interface</title><g data-name="Writing"><path d="M47,27.618l-3.909-1.955A10.942,10.942,0,0,0,43,27v1.382l4,2Z"></path><rect x="44" y="44" width="8" height="2"></rect><path d="M49.413,4.587A2,2,0,0,0,46,6V7h4V6A1.986,1.986,0,0,0,49.413,4.587Z"></path><path d="M8,54H36V53a1,1,0,0,1,.293-.707L38,50.586V13a1,1,0,0,0-1-1H36v7a1,1,0,0,1-1.832.555L33,17.8l-1.168,1.752A1,1,0,0,1,30,19V12H7a1,1,0,0,0-1,1V52A2,2,0,0,0,8,54ZM34,34H22V32H34ZM28,24h6v2H28ZM14,16H26v2H14Zm-4,0h2v2H10Zm0,4H26v2H10Zm16,4v2H22V24ZM10,24H20v2H10Zm0,4H34v2H10Zm10,4v2H18V32ZM10,32h6v2H10Zm0,4H34v2H10Zm0,4H34v2H10Z"></path><path d="M45.744,19.751l1.394.7a11.415,11.415,0,0,1,.5-2.406A11.007,11.007,0,0,0,45.744,19.751Z"></path><rect x="38" y="54" width="20" height="2"></rect><path d="M42,60H54a3,3,0,0,0,2.816-2H39.184A3,3,0,0,0,42,60Z"></path><polygon points="43 33.382 47 35.382 47 32.618 43 30.618 43 33.382"></polygon><path d="M13,5v5H37a3,3,0,0,1,3,3V48.586l2-2V43a1,1,0,0,1,1-1h1V36.118L41.553,34.9A1,1,0,0,1,41,34V27a12.938,12.938,0,0,1,3-8.3V6a3.959,3.959,0,0,1,.556-2H14A1,1,0,0,0,13,5Z"></path><polygon points="39.414 52 56.586 52 52.586 48 43.414 48 39.414 52"></polygon><path d="M43.532,23.648l3.459,1.73c-.007-.956-.012-1.878.009-2.761l-2.448-1.228A10.985,10.985,0,0,0,43.532,23.648Z"></path><path d="M32.168,15.445a1.039,1.039,0,0,1,1.664,0L34,15.7V12H32v3.7Z"></path><polygon points="49 35.382 53 33.382 53 30.618 49 32.618 49 35.382"></polygon><polygon points="53 25.618 49 27.618 49 30.382 53 28.382 53 25.618"></polygon><path d="M48.992,25.386l4.008-2V20.618l-4,2C48.979,23.492,48.984,24.42,48.992,25.386Z"></path><path d="M53,16.059a4.143,4.143,0,0,0-2.584,1.059A5.461,5.461,0,0,0,49.164,20.3L53,18.382Z"></path><rect x="47" y="37" width="2" height="5"></rect></g></svg>