<svg xmlns="http://www.w3.org/2000/svg" viewBox="0 0 64 64" x="0px" y="0px"><g><rect x="51" y="43" width="4.001" height="4"></rect><rect x="39" y="31" width="4" height="4"></rect><rect x="45" y="31" width="4" height="4"></rect><rect x="39" y="37" width="4" height="4"></rect><rect x="45" y="37" width="4" height="4"></rect><rect x="45" y="43" width="4" height="4"></rect><rect x="51" y="31" width="4" height="4"></rect><path d="M39,4H17a5,5,0,0,0-5,5V44.66l3.44-5.95a4,4,0,0,1,7.33.96,4.038,4.038,0,0,1-.4,3.04l-4.21,7.28L19.37,52H32.18A3,3,0,0,1,32,51V49.22A2.974,2.974,0,0,1,30,50H26a3,3,0,0,1,0-6h4a2.974,2.974,0,0,1,2,.78V27.97a10,10,0,1,1,0-11.94V15a3.009,3.009,0,0,1,3-3h9V9A5,5,0,0,0,39,4ZM22,8H20V6h2ZM32,8H24V6h8Z"></path><rect x="51" y="37" width="4" height="4"></rect><rect x="39" y="43" width="4" height="4"></rect><path d="M16.13,49.5a1.031,1.031,0,0,0,.01,1.02l2.14,3.56A4.987,4.987,0,0,1,19,56.65V61H4V43.2a8.863,8.863,0,0,1,.83-3.77l4.01-8.69A2.853,2.853,0,0,1,10,29.47V47a6.4,6.4,0,0,0,.08.99L9.44,49.1l1.73,1,6-10.39a2,2,0,1,1,3.46,2Z"></path><path d="M26,46a1,1,0,0,0,0,2h4a1,1,0,0,0,0-2Z"></path><path d="M59,14H35a1,1,0,0,0-1,1V51a1,1,0,0,0,1,1H59a1,1,0,0,0,1-1V15A1,1,0,0,0,59,14ZM57,47a2.006,2.006,0,0,1-2,2H39a2.006,2.006,0,0,1-2-2V31a2.006,2.006,0,0,1,2-2H55a2.006,2.006,0,0,1,2,2Zm0-22a2.006,2.006,0,0,1-2,2H39a2.006,2.006,0,0,1-2-2V19a2.006,2.006,0,0,1,2-2H55a2.006,2.006,0,0,1,2,2Z"></path><path d="M24,14a8,8,0,1,0,8,8A8.011,8.011,0,0,0,24,14Zm-1,7h2a3,3,0,0,1,0,6v1H23V27a3.009,3.009,0,0,1-3-3h2a1,1,0,0,0,1,1h2a1,1,0,0,0,0-2H23a3,3,0,0,1,0-6V16h2v1a3.009,3.009,0,0,1,3,3H26a1,1,0,0,0-1-1H23a1,1,0,0,0,0,2Z"></path><path d="M39,19v6H55V19Zm5,4H42V21h2Zm4,0H46V21h2Zm4,0H50V21h2Z"></path></g></svg>