<svg xmlns="http://www.w3.org/2000/svg" viewBox="0 0 64 64" x="0px" y="0px"><g data-name="Smart Microwave-Internet of Things-App-Internet-Smartphone"><path d="M59,2H9A3.009,3.009,0,0,0,6,5V26.1A5.017,5.017,0,0,0,2,31V57a5,5,0,0,0,5,5H21a5,5,0,0,0,5-5V38H50.38l1.73,3.45A.977.977,0,0,0,53,42h4a1,1,0,0,0,1-1V38h1a3.009,3.009,0,0,0,3-3V5A3.009,3.009,0,0,0,59,2ZM24,57a3.009,3.009,0,0,1-3,3H7a3.009,3.009,0,0,1-3-3V54H24Zm0-5H4V34H24Zm0-20H4V31a3.009,3.009,0,0,1,3-3H21a3.009,3.009,0,0,1,3,3Zm-3-6H18V24H36v4H24.97A4.952,4.952,0,0,0,21,26Zm-2.83-4A3.014,3.014,0,0,1,21,20H33a3.014,3.014,0,0,1,2.83,2Zm7.73,8H36a2.006,2.006,0,0,0,2-2V23a5,5,0,0,0-5-5H21a5,5,0,0,0-5,5v3H12V8H42V32H26V31A5.468,5.468,0,0,0,25.9,30ZM46,36H26V34H43a1,1,0,0,0,1-1V7a1,1,0,0,0-1-1H11a1,1,0,0,0-1,1V26H8V5A1,1,0,0,1,9,4H46Zm10,4H53.62l-1-2H56Zm4-5a1,1,0,0,1-1,1H48V4H59a1,1,0,0,1,1,1Z"></path><path d="M54,22a4,4,0,1,0,4,4A4,4,0,0,0,54,22Zm0,6a1.994,1.994,0,0,1-1-3.722V26h2V24.278A1.994,1.994,0,0,1,54,28Z"></path><path d="M54,10a4,4,0,1,0,4,4A4,4,0,0,0,54,10Zm0,6a1.994,1.994,0,0,1-1-3.722V14h2V12.278A1.994,1.994,0,0,1,54,16Z"></path><path d="M24.168,12.445A5.744,5.744,0,0,0,23,16h2a3.78,3.78,0,0,1,.832-2.445A5.744,5.744,0,0,0,27,10H25A3.78,3.78,0,0,1,24.168,12.445Z"></path><path d="M30.168,12.445A5.744,5.744,0,0,0,29,16h2a3.78,3.78,0,0,1,.832-2.445A5.744,5.744,0,0,0,33,10H31A3.78,3.78,0,0,1,30.168,12.445Z"></path><rect x="13" y="56" width="2" height="2"></rect><path d="M14,50a7,7,0,1,0-7-7A7.008,7.008,0,0,0,14,50Zm0-12a5,5,0,1,1-5,5A5.006,5.006,0,0,1,14,38Z"></path><path d="M15.293,45.707l1.414-1.414L15,42.586V40H13v3a1,1,0,0,0,.293.707Z"></path></g></svg>