<svg xmlns="http://www.w3.org/2000/svg" viewBox="0 0 64 64" x="0px" y="0px"><title>Presentaion idea thinking</title><g data-name="Presentaion idea thinking"><path d="M28,36.06V37H27v2h2v3h2v1h2V42h2V39h2V37H36v-.94a9,9,0,1,0-8,0ZM33,40H31V39h2ZM32,21a7,7,0,0,1,2.625,13.486L34,34.739V37H30V34.739l-.625-.253A7,7,0,0,1,32,21Z"></path><path d="M29,30h2v5h2V30h2a3,3,0,1,0-2.816-4h-.368A2.995,2.995,0,1,0,29,30Zm6-4a1,1,0,0,1,0,2H33V27h1A1,1,0,0,1,35,26Zm-6,0a1,1,0,0,1,1,1h1v1H29a1,1,0,0,1,0-2Z"></path><rect x="31" y="13" width="2" height="4"></rect><rect x="21.808" y="16.808" width="2" height="4" transform="translate(-6.619 21.636) rotate(-45)"></rect><rect x="17" y="27" width="4" height="2"></rect><rect x="20.808" y="36.192" width="4" height="2" transform="translate(-19.619 27.021) rotate(-45)"></rect><rect x="40.192" y="35.193" width="2" height="4" transform="translate(-14.234 40.021) rotate(-45)"></rect><rect x="43" y="27" width="4" height="2"></rect><rect x="39.193" y="17.808" width="4" height="2" transform="translate(-1.234 34.636) rotate(-45)"></rect><rect x="8" y="14" width="2" height="2"></rect><rect x="12" y="14" width="4" height="2"></rect><rect x="8" y="18" width="8" height="2"></rect><path d="M62,12V6H36V2H28V6H2v6H4V44H2v6H28v6H21v6H43V56H36V50H62V44H60V12ZM30,4h4V6H30ZM4,8H60v2H4ZM41,58v2H23V58Zm-7-2H30V50h4Zm26-8H4V46H60Zm-2-4H6V12H58Z"></path></g></svg>