<svg xmlns="http://www.w3.org/2000/svg" viewBox="0 0 64 64" x="0px" y="0px"><g data-name="Game Console-Joystick-Portable-Gamepad"><path d="M61.86,12.49l-6-10A.99.99,0,0,0,55,2H9a.99.99,0,0,0-.86.49l-6,10a.992.992,0,0,0-.03.96l4,8A.977.977,0,0,0,7,22H57a.977.977,0,0,0,.89-.55l4-8A.992.992,0,0,0,61.86,12.49ZM50.72,4l-.5,2H29.78l-.5-2Zm5.66,16H54V16H52v4H50V16H48v4H46V16H44v4H42V16H40v4H38V16H36v4H7.62L4.14,13.04,9.57,4H27.22l.81,3.24A1,1,0,0,0,29,8H51a1,1,0,0,0,.97-.76L52.78,4h1.65l5.43,9.04Z"></path><path d="M12,15a3,3,0,1,0-3-3A3,3,0,0,0,12,15Zm0-4a1,1,0,1,1-1,1A1,1,0,0,1,12,11Z"></path><path d="M20,15a3,3,0,1,0-3-3A3,3,0,0,0,20,15Zm0-4a1,1,0,1,1-1,1A1,1,0,0,1,20,11Z"></path><rect x="25" y="12" width="2" height="2"></rect><rect x="29" y="12" width="2" height="2"></rect><rect x="15" y="34" width="2" height="2"></rect><path d="M19.536,31.464a5.008,5.008,0,0,0-7.072,0l1.414,1.414a3.006,3.006,0,0,1,4.244,0Z"></path><path d="M22.364,28.636a9,9,0,0,0-12.728,0L11.05,30.05a7,7,0,0,1,9.9,0Z"></path><rect x="47" y="34" width="2" height="2"></rect><path d="M51.536,31.464a5.008,5.008,0,0,0-7.072,0l1.414,1.414a3.006,3.006,0,0,1,4.244,0Z"></path><path d="M54.364,28.636a9,9,0,0,0-12.728,0L43.05,30.05a7,7,0,0,1,9.9,0Z"></path><polygon points="8 50 10 50 10 48 12 48 12 46 10 46 10 44 8 44 8 46 6 46 6 48 8 48 8 50"></polygon><rect x="22" y="44" width="2" height="2"></rect><rect x="24" y="46" width="2" height="2"></rect><rect x="22" y="48" width="2" height="2"></rect><rect x="20" y="46" width="2" height="2"></rect><rect x="15" y="44" width="2" height="2"></rect><path d="M30,46.929A7.005,7.005,0,0,0,23,40H9a7.005,7.005,0,0,0-7,6.929H2L1.237,57.651a4.062,4.062,0,0,0,7.511,2.417l2.21-3.592A1,1,0,0,1,11.81,56h8.38a1,1,0,0,1,.852.476l2.21,3.592a4.062,4.062,0,0,0,7.511-2.417L30,46.929ZM9,42H23a5,5,0,0,1,0,10h-.7l-2.748-1.832A1.006,1.006,0,0,0,19,50H13a1.006,1.006,0,0,0-.555.168L9.7,52H9A5,5,0,0,1,9,42ZM28.222,59.344A2.045,2.045,0,0,1,26.71,60a2.072,2.072,0,0,1-1.754-.98l-2.211-3.593A2.984,2.984,0,0,0,20.19,54H11.81a2.982,2.982,0,0,0-2.555,1.428L7.044,59.02A2.073,2.073,0,0,1,5.286,60a2.058,2.058,0,0,1-2.054-2.207l.447-6.257A6.983,6.983,0,0,0,9,54h1a1.006,1.006,0,0,0,.555-.168L13.3,52H18.7l2.748,1.832A1.006,1.006,0,0,0,22,54h1a6.983,6.983,0,0,0,5.321-2.464l.447,6.257A2.041,2.041,0,0,1,28.222,59.344Z"></path><polygon points="40 50 42 50 42 48 44 48 44 46 42 46 42 44 40 44 40 46 38 46 38 48 40 48 40 50"></polygon><rect x="54" y="44" width="2" height="2"></rect><rect x="56" y="46" width="2" height="2"></rect><rect x="54" y="48" width="2" height="2"></rect><rect x="52" y="46" width="2" height="2"></rect><rect x="47" y="44" width="2" height="2"></rect><path d="M62,46.93A7.006,7.006,0,0,0,55,40H41a7.006,7.006,0,0,0-7,6.93l-.76,10.72a4.062,4.062,0,0,0,7.51,2.42l2.21-3.59a.986.986,0,0,1,.85-.48h8.38a.986.986,0,0,1,.85.48l2.21,3.59a4.059,4.059,0,0,0,7.51-2.42ZM41,42H55a5,5,0,0,1,0,10h-.7l-2.75-1.83A.967.967,0,0,0,51,50H45a.967.967,0,0,0-.55.17L41.7,52H41a5,5,0,0,1,0-10ZM60.22,59.34a2.014,2.014,0,0,1-1.51.66,2.074,2.074,0,0,1-1.75-.98l-2.21-3.59A2.989,2.989,0,0,0,52.19,54H43.81a2.989,2.989,0,0,0-2.56,1.43l-2.21,3.59a2.074,2.074,0,0,1-1.75.98,2.07,2.07,0,0,1-2.06-2.21l.45-6.25A6.985,6.985,0,0,0,41,54h1a.967.967,0,0,0,.55-.17L45.3,52h5.4l2.75,1.83A.967.967,0,0,0,54,54h1a6.985,6.985,0,0,0,5.32-2.46l.45,6.25A2.014,2.014,0,0,1,60.22,59.34Z"></path></g></svg>