<svg xmlns="http://www.w3.org/2000/svg" viewBox="0 0 64 64" x="0px" y="0px"><g data-name="Voice Recognition"><polygon points="25.883 50 25.133 56 38.867 56 38.117 50 25.883 50"></polygon><path d="M20,59a1,1,0,0,0,1,1H43a1,1,0,0,0,0-2H21A1,1,0,0,0,20,59Z"></path><path d="M60,42H4v3a3,3,0,0,0,3,3H57a3,3,0,0,0,3-3Zm-4,4H54V44h2Z"></path><path d="M60,12H4V40H60ZM50,28H42.677l-1.748,4.372a1,1,0,0,1-1.915-.207l-1.057-6.339-.973,5.353a1,1,0,0,1-1.954.064L34.2,27.907l-1.21,7.258a1,1,0,0,1-.981.835H32a1,1,0,0,1-.985-.826l-2.146-12.16-1.894,8.211A1,1,0,0,1,26,32h0a1,1,0,0,1-.972-.783l-1.3-5.84-.8,2A1,1,0,0,1,22,28H14V26h7.323l1.748-4.372A.99.99,0,0,1,24.081,21a1,1,0,0,1,.895.78l1.043,4.69,2.006-8.7a1,1,0,0,1,1.96.051l1.987,11.26,1.042-6.251A1,1,0,0,1,33.96,22a1.014,1.014,0,0,1,1.01.756l.876,3.5,1.17-6.438A1,1,0,0,1,38,19h.007a1,1,0,0,1,.979.835L40.4,28.311l.672-1.683A1,1,0,0,1,42,26h8Z"></path><path d="M60,7a3,3,0,0,0-3-3H7A3,3,0,0,0,4,7v3H60ZM10,8H8V6h2Zm4,0H12V6h2Zm4,0H16V6h2Z"></path></g></svg>