<svg xmlns="http://www.w3.org/2000/svg" viewBox="0 0 64 64" x="0px" y="0px"><g><path d="M59,15H56V8a1,1,0,0,0-1.8-.6l-2.308,3.078L48.707,7.293a1,1,0,0,0-1.414,0L44,10.586,40.707,7.293a1,1,0,0,0-1.4-.01L35.992,10.5,32.7,7.285a1,1,0,0,0-1.406.008L28,10.586,24.707,7.293l-5-5A1,1,0,0,0,19,2H5A3,3,0,0,0,2,5V59a3,3,0,0,0,3,3H59a3,3,0,0,0,3-3V18A3,3,0,0,0,59,15Zm0,2a1,1,0,0,1,1,1V31H56V17ZM27.293,12.707a1,1,0,0,0,1.414,0l3.3-3.3,3.284,3.209a1,1,0,0,0,1.395,0L39.99,9.4l3.3,3.3a1,1,0,0,0,1.414,0L48,9.414l3.293,3.293a1.017,1.017,0,0,0,.778.291,1,1,0,0,0,.729-.4L54,11V31H32.414L19.707,18.293A1,1,0,0,0,19,18H18V11l1.2,1.6a1,1,0,0,0,1.507.107L24,9.414ZM5,4H18.586l4,4-2.478,2.478L17.8,7.4A1,1,0,0,0,16,8V18H4V5A1,1,0,0,1,5,4ZM60,59a1,1,0,0,1-1,1H5a1,1,0,0,1-1-1V20H18.586L31.293,32.707A1,1,0,0,0,32,33H60Z"></path><path d="M23,44H7a1,1,0,0,0-1,1V57a1,1,0,0,0,1,1H23a1,1,0,0,0,1-1V45A1,1,0,0,0,23,44ZM22,56H8V46H22Z"></path><rect x="10" y="48" width="2" height="2"></rect><rect x="14" y="48" width="6" height="2"></rect><rect x="10" y="52" width="10" height="2"></rect><path d="M38,25H36a1,1,0,0,1-1-1H33a3,3,0,0,0,3,3v2h2V27a3,3,0,0,0,0-6H36a1,1,0,0,1,0-2h2a1,1,0,0,1,1,1h2a3,3,0,0,0-3-3V15H36v2a3,3,0,0,0,0,6h2a1,1,0,0,1,0,2Z"></path></g></svg>