<svg xmlns="http://www.w3.org/2000/svg" viewBox="0 0 64 64" x="0px" y="0px"><g data-name="Human Mind-Percentage"><circle cx="36" cy="19" r="1"></circle><circle cx="28" cy="11" r="1"></circle><path d="M32,52H27a5.006,5.006,0,0,1-5-5V41H19.081a2,2,0,0,1-1.562-3.25L24,29.645c.011-.588.049-1.177.113-1.755l1.988.22A17.211,17.211,0,0,0,26,30a1,1,0,0,1-.219.625L19.081,39H23a1,1,0,0,1,1,1v7a3,3,0,0,0,3,3h6a1,1,0,0,1,1,1v9H54V42.962l.334-.3.025-.024a16.924,16.924,0,0,0,5.584-14q-.058-.748-.184-1.48v0c-.082-.48-.185-.955-.309-1.422-.006-.024-.014-.048-.021-.072-.122-.455-.261-.9-.42-1.344v0a17.325,17.325,0,0,0-11.145-10.6c-.082-.025-.166-.044-.249-.068a16.361,16.361,0,0,0-2.707-.54c-.019,0-.042,0-.061-.005a12.985,12.985,0,1,1-25.816,2.475,17.276,17.276,0,0,0-1.611,1.139c-.435.347-.857.705-1.252,1.087-.046.044-.089.092-.135.137a16.979,16.979,0,0,0-1.171,1.277c-.024.029-.049.055-.072.084a16.849,16.849,0,0,0-1.029,1.416c-.05.076-.1.151-.148.228a17.024,17.024,0,0,0-.837,1.483c-.037.074-.07.151-.106.226A16.839,16.839,0,0,0,12,24.222c-.007.021-.016.04-.023.061a16.967,16.967,0,0,0-.485,1.654c-.025.1-.052.207-.076.311q-.183.819-.286,1.661c-.013.1-.021.21-.032.316A17.12,17.12,0,0,0,11,30v.351L9.784,31.87,4.081,39H9v8a3,3,0,0,0,3,3h7V60H32Z"></path><path d="M32,26A11,11,0,1,0,21,15,11.013,11.013,0,0,0,32,26Zm4-4a3,3,0,1,1,3-3A3,3,0,0,1,36,22ZM37.293,8.293l1.414,1.414-12,12-1.414-1.414ZM28,8a3,3,0,1,1-3,3A3,3,0,0,1,28,8Z"></path></g></svg>