<svg xmlns="http://www.w3.org/2000/svg" viewBox="0 0 64 64" x="0px" y="0px"><g data-name="Online Payment-Credit Card-Smartphone-Mobile-App"><path d="M30,27a1,1,0,0,0-1-1H23a1,1,0,0,0-1,1v4a1,1,0,0,0,1,1h6a1,1,0,0,0,1-1Zm-2,3H24V28h4Z"></path><path d="M39,30H37a3,3,0,0,0,0,6h2a3,3,0,0,0,0-6Zm0,4H37a1,1,0,0,1,0-2h2a1,1,0,0,1,0,2Z"></path><rect x="40" y="26" width="2" height="2"></rect><rect x="36" y="26" width="2" height="2"></rect><rect x="32" y="26" width="2" height="2"></rect><rect x="22" y="34" width="2" height="2"></rect><rect x="26" y="34" width="2" height="2"></rect><rect x="30" y="34" width="2" height="2"></rect><path d="M44,2H20a7.009,7.009,0,0,0-7,7V31.152l-6.238,10.8A16.893,16.893,0,0,0,4.586,52.332L5.673,62.11l1.988-.22L6.574,52.111a14.9,14.9,0,0,1,1.92-9.16L13,35.151V48.123l-.563.975,1.733,1,5-8.66a2,2,0,1,1,3.464,2l-3.5,6.062a1,1,0,0,0-.063.871l1.285,3.212A8.975,8.975,0,0,1,21,56.926v1.3a8.951,8.951,0,0,1-.664,3.392l1.851.756c.051-.124.088-.252.134-.378H44a7.009,7.009,0,0,0,7-7V9A7.009,7.009,0,0,0,44,2ZM20,4H44a5.006,5.006,0,0,1,5,5v1H15V9A5.006,5.006,0,0,1,20,4Zm1,34a1,1,0,0,1-1-1V25a1,1,0,0,1,1-1H43a1,1,0,0,1,1,1V37a1,1,0,0,1-1,1Zm3.366,6.438A4,4,0,0,0,24.07,40H43a3,3,0,0,0,3-3V25a3,3,0,0,0-3-3H21a3,3,0,0,0-3,3V37a2.978,2.978,0,0,0,.819,2.046,3.955,3.955,0,0,0-1.382,1.392L15,44.659V12H49V52H21.877l-.769-1.921ZM44,60H22.846A10.985,10.985,0,0,0,23,58.23v-1.3A10.965,10.965,0,0,0,22.6,54H49v1A5.006,5.006,0,0,1,44,60Z"></path><rect x="25" y="6" width="2" height="2"></rect><rect x="29" y="6" width="6" height="2"></rect><rect x="30" y="56" width="4" height="2"></rect><path d="M17,15v4h2V16h3V14H18A1,1,0,0,0,17,15Z"></path></g></svg>