<svg xmlns="http://www.w3.org/2000/svg" viewBox="0 0 64 64" x="0px" y="0px"><title>Saving Income</title><g data-name="Saving Income"><path d="M60.625,35.95l-1.418-1.407a4,4,0,0,0-5.655,0L50,38.1V37a1,1,0,0,0,1-1V32a1,1,0,0,0-1-1V28a1,1,0,0,0-1-1H33a1,1,0,0,0-1,1v4a1,1,0,0,0,1,1v2a1,1,0,0,0-1,1v3H31V36a1,1,0,0,0-1-1V33a1,1,0,0,0,1-1V29a1,1,0,0,0,1-1V24a1,1,0,0,0-1-1H30V21a1,1,0,0,0,1-1V16a1,1,0,0,0-1-1H14a1,1,0,0,0-1,1v3a1,1,0,0,0-1,1v4a1,1,0,0,0,1,1h1v2a1,1,0,0,0-1,1v3a1,1,0,0,0-1,1v4a1,1,0,0,0,1,1v3a.993.993,0,0,0,.655.93L12,42.586V41a1,1,0,0,0-1-1H3a1,1,0,0,0-1,1V61a1,1,0,0,0,1,1h8a1,1,0,0,0,1-1V59.414L16.414,55H44a1,1,0,0,0,.707-.293L60.626,38.788a2.01,2.01,0,0,0,0-2.838ZM44.816,41H47.1L45,43.1V42A2.966,2.966,0,0,0,44.816,41ZM34,29H48v2H34Zm1,4H49v2H35Zm-1,4H48v2H34Zm-6-2H14V33H28Zm0-12H14V21H28ZM15,17H29v2H15Zm1,8H30v2H16Zm-1,4H29v2H15Zm14,8v2H15V37ZM10,60H4V42h6Zm33.586-7H16a1,1,0,0,0-.707.293L12,56.586V45.414L16.414,41H42a1,1,0,0,1,1,1v3H30v2H44a1,1,0,0,0,1-1l9.967-10.043a2,2,0,0,1,2.828,0l1.418,1.413Z"></path><path d="M47,18a1,1,0,0,1-1-1H44a3,3,0,0,0,2,2.816V21h2V19.816A2.993,2.993,0,0,0,47,14a1,1,0,1,1,1-1h2a3,3,0,0,0-2-2.816V9H46v1.184A2.993,2.993,0,0,0,47,16a1,1,0,0,1,0,2Z"></path><path d="M47,24a9,9,0,1,0-9-9A9.01,9.01,0,0,0,47,24ZM47,8a7,7,0,1,1-7,7A7.008,7.008,0,0,1,47,8Z"></path></g></svg>