<svg xmlns="http://www.w3.org/2000/svg" viewBox="0 0 64 64" x="0px" y="0px"><g><path d="M60.976,17.234a3.326,3.326,0,0,0-4.622,0,1.356,1.356,0,0,1-2.045,0A3.28,3.28,0,0,0,52,16.3v2a1.36,1.36,0,0,1,1.021.465,3.322,3.322,0,0,0,4.62,0,1.358,1.358,0,0,1,2.048,0A3.29,3.29,0,0,0,62,19.7v-2A1.362,1.362,0,0,1,60.976,17.234Z"></path><path d="M58.665,22.3a3.29,3.29,0,0,0-2.311.934,1.356,1.356,0,0,1-2.045,0A3.28,3.28,0,0,0,52,22.3v2a1.36,1.36,0,0,1,1.021.465,3.322,3.322,0,0,0,4.62,0,1.358,1.358,0,0,1,2.048,0A3.29,3.29,0,0,0,62,25.7v-2a1.362,1.362,0,0,1-1.024-.466A3.29,3.29,0,0,0,58.665,22.3Z"></path><path d="M2.716,18.384l1.573,1.237a19.927,19.927,0,0,1,9.2-6.532l-.652-1.89A21.926,21.926,0,0,0,2.716,18.384Z"></path><path d="M20,52v2a21.831,21.831,0,0,0,15.714-6.6L34.286,46A19.853,19.853,0,0,1,20,52Z"></path><path d="M12.187,9.307l-.652-1.89a26.044,26.044,0,0,0-10.6,6.9L2.4,15.678A24.065,24.065,0,0,1,12.187,9.307Z"></path><path d="M20,56v2a25.786,25.786,0,0,0,18.72-7.957l-1.439-1.388A23.8,23.8,0,0,1,20,56Z"></path><path d="M21.848,43.859A12.116,12.116,0,0,1,20,44v2a14.064,14.064,0,0,0,2.153-.165Z"></path><circle cx="20" cy="32" r="1"></circle><path d="M23.471,36.885,21.285,34.7a2.956,2.956,0,0,1-1.049.277l-.8,2.995c.186.018.374.029.564.029A5.961,5.961,0,0,0,23.471,36.885Z"></path><rect x="46" y="14" width="2" height="12"></rect><path d="M19.764,29.024l.8-3C20.378,26.011,20.19,26,20,26a5.961,5.961,0,0,0-3.471,1.115L18.715,29.3A2.956,2.956,0,0,1,19.764,29.024Z"></path><rect x="42" y="15" width="2" height="10"></rect><path d="M15.115,28.529A5.961,5.961,0,0,0,14,32c0,.19.011.378.029.564l3-.8a2.956,2.956,0,0,1,.277-1.049Z"></path><path d="M17.505,37.45l.8-2.982a3.022,3.022,0,0,1-.769-.769l-2.982.8A6.034,6.034,0,0,0,17.505,37.45Z"></path><path d="M26,32c0-.19-.011-.378-.029-.564l-3,.8a2.956,2.956,0,0,1-.277,1.049l2.186,2.186A5.961,5.961,0,0,0,26,32Z"></path><path d="M22.5,26.55l-.8,2.982a3.022,3.022,0,0,1,.769.769l2.982-.8A6.034,6.034,0,0,0,22.5,26.55Z"></path><path d="M20,14h2.741l-.513-4.126a1.01,1.01,0,0,0-1-.874H18.77a1.012,1.012,0,0,0-1,.879l-.541,4.357A17.941,17.941,0,0,1,20,14Zm-1-3h2v2H19Z"></path><path d="M8.717,46l-1.71,4.044A1.01,1.01,0,0,0,7.435,51.3l2.13,1.23a1.007,1.007,0,0,0,1.3-.262l2.646-3.5A18,18,0,0,1,8.717,46Zm1.649,4.683-1.732-1,1-1.733,1.732,1Z"></path><path d="M40,16H20A16,16,0,1,0,36,32a15.8,15.8,0,0,0-1.19-6H25.274A7.987,7.987,0,1,1,20,24H40ZM30.648,37.539l1.774.924a14.1,14.1,0,0,1-8.253,6.905l-.594-1.909A12.1,12.1,0,0,0,30.648,37.539Z"></path></g></svg>