<svg xmlns="http://www.w3.org/2000/svg" viewBox="0 0 64 64" x="0px" y="0px"><g><path d="M4,49V18H20v4a2,2,0,0,0,2,2H32a2,2,0,0,0,2-2V18H50v7h2V5a3,3,0,0,0-3-3H5A3,3,0,0,0,2,5V49a3,3,0,0,0,3,3H25V50H5A1,1,0,0,1,4,49ZM4,16V12H20v4Zm30,0V12H50v4ZM50,5v5H34V4H49A1,1,0,0,1,50,5ZM32,4V22H22V4ZM5,4H20v6H4V5A1,1,0,0,1,5,4Z"></path><path d="M44,26A18,18,0,1,0,62,44,18.021,18.021,0,0,0,44,26Zm0,34A16,16,0,1,1,60,44,16.019,16.019,0,0,1,44,60Z"></path><path d="M44,30A14,14,0,1,0,58,44,14.015,14.015,0,0,0,44,30Zm0,26A12,12,0,1,1,56,44,12.013,12.013,0,0,1,44,56Z"></path><path d="M44,35a7.008,7.008,0,0,0-7,7c0,4.291,5.649,10.063,6.293,10.707a1,1,0,0,0,1.414,0C45.351,52.063,51,46.291,51,42A7.008,7.008,0,0,0,44,35Zm0,15.551c-1.853-2.019-5-5.985-5-8.551a5,5,0,0,1,10,0C49,44.566,45.853,48.532,44,50.551Z"></path><path d="M44,39a3,3,0,1,0,3,3A3,3,0,0,0,44,39Zm0,4a1,1,0,1,1,1-1A1,1,0,0,1,44,43Z"></path><rect x="10" y="44" width="8" height="2"></rect><rect x="10" y="40" width="2" height="2"></rect><rect x="14" y="40" width="4" height="2"></rect></g></svg>