<svg xmlns="http://www.w3.org/2000/svg" viewBox="0 0 64 64" x="0px" y="0px"><g><path d="M57.293,18.707,55.586,17H54V15h2a1,1,0,0,1,.707.293l2,2Z"></path><path d="M56,13H54V11h1.586l1.707-1.707,1.414,1.414-2,2A1,1,0,0,1,56,13Z"></path><path d="M49.293,25.707l-2-2A1,1,0,0,1,47,23V20h2v2.586l1.707,1.707Z"></path><path d="M49,8H47V5a1,1,0,0,1,.293-.707l2-2,1.414,1.414L49,5.414Z"></path><path d="M36.707,25.707l-1.414-1.414L37,22.586V20h2v3a1,1,0,0,1-.293.707Z"></path><path d="M39,8H37V5.414L35.293,3.707l1.414-1.414,2,2A1,1,0,0,1,39,5Z"></path><path d="M41.707,25.707l-1.414-1.414L42,22.586V20h2v3a1,1,0,0,1-.293.707Z"></path><path d="M44,8H42V5.414L40.293,3.707l1.414-1.414,2,2A1,1,0,0,1,44,5Z"></path><path d="M32,30H30V28c0-3.178-1.094-5-3-5H23a5,5,0,0,1,0-10h9v2H23a3,3,0,0,0,0,6h4c2.417,0,5,1.839,5,7Z"></path><path d="M34,15a3,3,0,0,0,3,3h9V10H37a3,3,0,0,0-3,3Z"></path><path d="M49,10H48v8h1a3,3,0,0,0,3-3V13A3,3,0,0,0,49,10Z"></path><path d="M60,33a3,3,0,0,0-3-3H54V56H52V30H32v6.059a9,9,0,1,1-2,0V30H7a3,3,0,0,0-3,3V57a3,3,0,0,0,3,3h5V34h2V60H57a3,3,0,0,0,3-3ZM9,46H7V44H9Zm49-3H56V41h2Zm0-4H56V37h2Z"></path><path d="M24,45a7,7,0,1,0,7-7A7.009,7.009,0,0,0,24,45Zm11-1h2v2H35Zm-4,2a2.993,2.993,0,0,1-1-5.816V39h2v1.184A3,3,0,0,1,34,43H32a1,1,0,1,0-1,1,2.993,2.993,0,0,1,1,5.816V51H30V49.816A3,3,0,0,1,28,47h2a1,1,0,1,0,1-1Zm-4,0H25V44h2Z"></path></g></svg>