<svg xmlns="http://www.w3.org/2000/svg" viewBox="0 0 64 64" x="0px" y="0px"><g data-name="Resume"><path d="M25.54,38.613A6.977,6.977,0,0,1,29,37.071v-1.1a4.987,4.987,0,0,1-1.9-2.967,2.682,2.682,0,0,0-.831.086,2.992,2.992,0,0,0-.731,5.52Z"></path><path d="M28,29h1.343a3.02,3.02,0,0,0,2.121-.878l.829-.829a1,1,0,0,1,1.414,0l1.414,1.414a1.009,1.009,0,0,0,.707.293H36a1,1,0,0,1,1,1V29a5.006,5.006,0,0,0-5-5,5.009,5.009,0,0,0-5,5v1A1,1,0,0,1,28,29Z"></path><path d="M31,36.9v.687l1,1,1-1V36.9a5,5,0,0,1-2,0Z"></path><path d="M35,35.974v1.1a6.977,6.977,0,0,1,3.46,1.542,2.992,2.992,0,0,0-.706-5.514,2.742,2.742,0,0,0-.858-.085A4.992,4.992,0,0,1,35,35.974Z"></path><path d="M34.376,39.038l-1.669,1.669a1,1,0,0,1-1.414,0l-1.669-1.669A4.991,4.991,0,0,0,25,44v2H39V44A4.991,4.991,0,0,0,34.376,39.038Z"></path><path d="M35,32V30.885a2.981,2.981,0,0,1-1.293-.764L33,29.414l-.122.122A4.966,4.966,0,0,1,29.343,31H29v1a3,3,0,0,0,6,0Z"></path><polygon points="34.802 18 33.711 12 30.289 12 29.198 18 34.802 18"></polygon><polygon points="40 18 40 12 35.743 12 36.834 18 40 18"></polygon><path d="M15,60H49a1,1,0,0,0,1-1V17a1,1,0,0,0-1-1H42v3a1,1,0,0,1-1,1H23a1,1,0,0,1-1-1V16H15a1,1,0,0,0-1,1V59A1,1,0,0,0,15,60ZM46,50v2H26V50ZM25,31.422V29a7.008,7.008,0,0,1,7-7,7.008,7.008,0,0,1,7,7v2.42a4.985,4.985,0,0,1,.814,8.7A6.946,6.946,0,0,1,41,44v3a1,1,0,0,1-1,1H24a1,1,0,0,1-1-1V44a6.946,6.946,0,0,1,1.186-3.882,4.984,4.984,0,0,1,.814-8.7ZM18,50h6v2H18Zm0,4H46v2H18Z"></path><polygon points="24 12 24 18 27.165 18 28.256 12 24 12"></polygon><path d="M38,5.4v.16A2.978,2.978,0,0,1,35.95,8.4l-.81.27.6,3.33H33.71l-.69-3.82a1,1,0,0,1,.66-1.13l1.64-.54A1,1,0,0,0,36,5.56V5.4a1.012,1.012,0,0,0-.75-.97,12.5,12.5,0,0,0-6.5,0A1.012,1.012,0,0,0,28,5.4v.16a1,1,0,0,0,.68.95l1.64.54a1,1,0,0,1,.66,1.13L30.29,12H28.26l.6-3.33-.81-.27A2.978,2.978,0,0,1,26,5.56V5.4a3.013,3.013,0,0,1,2.22-2.89,14.263,14.263,0,0,1,7.56,0A3.013,3.013,0,0,1,38,5.4Z"></path></g></svg>