<svg xmlns="http://www.w3.org/2000/svg" viewBox="0 0 64 64" x="0px" y="0px"><g><path d="M56,8.1V7a1,1,0,0,0-1-1H53V3a1,1,0,0,0-1-1H36a3,3,0,0,0-3,3H31a3,3,0,0,0-3-3H12a1,1,0,0,0-1,1V6H9A1,1,0,0,0,8,7V8.1A5.009,5.009,0,0,0,4,13V45a5.006,5.006,0,0,0,5,5H23.867l-.75,6H21a3,3,0,0,0,0,6H43a3,3,0,0,0,0-6H40.883l-.75-6H55a5.006,5.006,0,0,0,5-5V13A5.009,5.009,0,0,0,56,8.1ZM53,31V8h1V34H35V33a1,1,0,0,1,1-1H52A1,1,0,0,0,53,31ZM35,5a1,1,0,0,1,1-1H51V30H36a2.966,2.966,0,0,0-1,.184ZM33,7V35a1,1,0,0,1-2,0V7ZM17,4h2V6.586l-.293-.293a1,1,0,0,0-1.414,0L17,6.586ZM13,4h2V9a1,1,0,0,0,1.707.707L18,8.414l1.293,1.293A1,1,0,0,0,21,9V4h7a1,1,0,0,1,1,1V30.184A2.966,2.966,0,0,0,28,30H13ZM10,8h1V31a1,1,0,0,0,1,1H28a1,1,0,0,1,1,1v1H10ZM8,10.184V35a1,1,0,0,0,1,1H29.184a2.982,2.982,0,0,0,5.632,0H55a1,1,0,0,0,1-1V10.184A3,3,0,0,1,58,13V40H6V13A3,3,0,0,1,8,10.184ZM44,59a1,1,0,0,1-1,1H21a1,1,0,0,1,0-2H43A1,1,0,0,1,44,59Zm-5.133-3H25.133l.75-6H38.117ZM55,48H9a3,3,0,0,1-3-3V42H58v3A3,3,0,0,1,55,48Z"></path><rect x="52" y="44" width="2" height="2"></rect><rect x="15" y="12" width="12" height="2"></rect><rect x="15" y="16" width="12" height="2"></rect><rect x="15" y="20" width="12" height="2"></rect><rect x="15" y="24" width="12" height="2"></rect><rect x="37" y="8" width="12" height="2"></rect><rect x="37" y="12" width="12" height="2"></rect><rect x="37" y="16" width="12" height="2"></rect><rect x="37" y="20" width="12" height="2"></rect><rect x="37" y="24" width="12" height="2"></rect></g></svg>