<svg xmlns="http://www.w3.org/2000/svg" viewBox="0 0 64 64" x="0px" y="0px"><g data-name="Handbag"><path d="M56,37.026C49.763,40.24,41.328,42,32,42S14.237,40.24,8,37.026V57a3,3,0,0,0,3,3H53a3,3,0,0,0,3-3Z"></path><path d="M17,24V20.631a13.115,13.115,0,0,0-8.7,9.658C13.472,33.82,22.454,36,32,36s18.528-2.18,23.7-5.711A13.115,13.115,0,0,0,47,20.631V24a1,1,0,0,1,.986.835l1,6a1,1,0,0,1-.744,1.135l-4,1a.991.991,0,0,1-.484,0l-4-1a1,1,0,0,1-.744-1.135l1-6A1,1,0,0,1,41,24V20H23v4a1,1,0,0,1,.986.835l1,6a1,1,0,0,1-.744,1.135l-4,1a.991.991,0,0,1-.484,0l-4-1a1,1,0,0,1-.744-1.135l1-6A1,1,0,0,1,17,24Zm11.242,1.03L32,25.969l3.758-.939.484,1.94L33,27.781V32H31V27.781l-3.242-.811Z"></path><path d="M56,33c0-.171-.016-.338-.022-.508C50.361,35.959,41.578,38,32,38S13.639,35.959,8.022,32.492C8.016,32.662,8,32.829,8,33v1.752C14.022,38.137,22.51,40,32,40s17.978-1.863,24-5.248Z"></path><path d="M19,24h2V17a11,11,0,0,1,22,0v7h2V17a13,13,0,0,0-26,0Z"></path><polygon points="41.138 30.254 44 30.969 46.862 30.254 46.153 26 41.847 26 41.138 30.254"></polygon><polygon points="17.138 30.254 20 30.969 22.862 30.254 22.153 26 17.847 26 17.138 30.254"></polygon></g></svg>