<svg xmlns="http://www.w3.org/2000/svg" viewBox="0 0 64 64" x="0px" y="0px"><title>Line Graph_3</title><g data-name="Line Graph"><path d="M7,60V2H5V4H2V6H5V18H2v2H5V32H2v2H5V46H2v2H5V61a1,1,0,0,0,1,1H62V60Z"></path><path d="M23.69,24H43.481L53.849,38.688,50.2,38.175l-.279,1.98,5.941.835A.975.975,0,0,0,56,41a1,1,0,0,0,.989-.86l.835-5.942-1.98-.279-.484,3.44L44.817,22.423A1,1,0,0,0,44,22H23a1,1,0,0,0-.935.646l-11,29,1.87.708Z"></path><rect x="42" y="4" width="2" height="2"></rect><rect x="46" y="4" width="12" height="2"></rect><rect x="42" y="8" width="16" height="2"></rect><rect x="42" y="12" width="16" height="2"></rect></g></svg>