<svg xmlns="http://www.w3.org/2000/svg" viewBox="0 0 64 64" x="0px" y="0px"><g data-name="Saving-loan-money bag-gear-money"><path d="M61.14,40.01l-3.9-.56a14.937,14.937,0,0,0-.66-1.6l2.36-3.15a1,1,0,0,0-.09-1.31l-4.24-4.24a1,1,0,0,0-1.31-.09l-3.15,2.36a14.937,14.937,0,0,0-1.6-.66l-.56-3.9A1,1,0,0,0,47,26H43.26a15.086,15.086,0,0,0-11.48-7.88,2.974,2.974,0,0,0-1.27-3.7l5.35-8.91A1,1,0,0,0,35,4a2.557,2.557,0,0,1-1.87-.78,4.612,4.612,0,0,0-6.25,0A2.591,2.591,0,0,1,25.01,4a2.643,2.643,0,0,1-1.88-.78,4.612,4.612,0,0,0-6.25,0A2.6,2.6,0,0,1,15,4a1,1,0,0,0-.86,1.51l5.35,8.91a2.974,2.974,0,0,0-1.27,3.7A15.009,15.009,0,0,0,5,33V46.13a4.046,4.046,0,0,0-1.91,1.12A3.956,3.956,0,0,0,2,50.22,4.1,4.1,0,0,0,6.17,54h22.7a.985.985,0,0,0,.28.61l4.24,4.24a1,1,0,0,0,1.31.09l3.15-2.36a14.937,14.937,0,0,0,1.6.66l.56,3.9A1,1,0,0,0,41,62h6a1,1,0,0,0,.99-.86l.56-3.9a14.937,14.937,0,0,0,1.6-.66l3.15,2.36a1,1,0,0,0,1.31-.09l4.24-4.24a1,1,0,0,0,.09-1.31l-2.36-3.15a14.937,14.937,0,0,0,.66-1.6l3.9-.56A1,1,0,0,0,62,47V41A1,1,0,0,0,61.14,40.01ZM16.6,5.73a5.357,5.357,0,0,0,1.52-.95A2.643,2.643,0,0,1,20,4a2.6,2.6,0,0,1,1.88.78,4.612,4.612,0,0,0,6.25,0,2.644,2.644,0,0,1,3.75,0,5.132,5.132,0,0,0,1.52.94L28.43,14H21.57ZM30,17a1,1,0,0,1-1,1H21a1,1,0,0,1,0-2h8A1,1,0,0,1,30,17ZM6.17,52A2.127,2.127,0,0,1,4,50.11,1.985,1.985,0,0,1,6,48a1,1,0,0,0,1-1V33A13.012,13.012,0,0,1,20,20h.54A5.979,5.979,0,0,0,19,24v1h2V24a4,4,0,0,1,8,0v1h2V24a5.979,5.979,0,0,0-1.54-4H30a13.086,13.086,0,0,1,10.95,6.01.993.993,0,0,0-.94.85l-.56,3.9a14.937,14.937,0,0,0-1.6.66L34.7,29.06a1,1,0,0,0-1.31.09l-4.24,4.24a1,1,0,0,0-.09,1.31l2.36,3.15a14.937,14.937,0,0,0-.66,1.6l-3.9.56A1,1,0,0,0,26,41v6a1,1,0,0,0,.86.99l3.9.56a14.937,14.937,0,0,0,.66,1.6L30.03,52ZM60,46.13l-3.67.53a.987.987,0,0,0-.82.71,12.353,12.353,0,0,1-.98,2.39,1,1,0,0,0,.07,1.08l2.22,2.97-3.01,3.01L50.84,54.6a1,1,0,0,0-1.08-.07,12.353,12.353,0,0,1-2.39.98.987.987,0,0,0-.71.82L46.13,60H41.87l-.53-3.67a.987.987,0,0,0-.71-.82,12.353,12.353,0,0,1-2.39-.98,1,1,0,0,0-1.08.07l-2.97,2.22-3.01-3.01,2.22-2.97a1,1,0,0,0,.07-1.08,12.353,12.353,0,0,1-.98-2.39.987.987,0,0,0-.82-.71L28,46.13V41.87l3.67-.53a.987.987,0,0,0,.82-.71,12.021,12.021,0,0,1,.99-2.39,1.026,1.026,0,0,0-.08-1.08l-2.22-2.97,3.01-3.01,2.97,2.22a1.026,1.026,0,0,0,1.08.08,12.021,12.021,0,0,1,2.39-.99.987.987,0,0,0,.71-.82L41.87,28h4.26l.53,3.67a.987.987,0,0,0,.71.82,12.021,12.021,0,0,1,2.39.99,1.026,1.026,0,0,0,1.08-.08l2.97-2.22,3.01,3.01L54.6,37.16a1.026,1.026,0,0,0-.08,1.08,12.021,12.021,0,0,1,.99,2.39.987.987,0,0,0,.82.71l3.67.53Z"></path><rect x="43" y="30" width="2" height="2"></rect><rect x="33.808" y="33.808" width="2" height="2" transform="translate(-14.418 34.808) rotate(-45)"></rect><rect x="30" y="43" width="2" height="2"></rect><rect x="33.808" y="52.192" width="2" height="2" transform="translate(-27.418 40.192) rotate(-45)"></rect><rect x="43" y="56" width="2" height="2"></rect><rect x="52.192" y="52.192" width="2" height="2" transform="translate(-22.033 53.192) rotate(-45)"></rect><rect x="56" y="43" width="2" height="2"></rect><rect x="52.192" y="33.808" width="2" height="2" transform="translate(-9.033 47.808) rotate(-45)"></rect><path d="M43,41h2a1,1,0,0,1,1,1h2a3,3,0,0,0-3-3V38H43v1a3,3,0,0,0,0,6h2a1,1,0,0,1,0,2H43a1,1,0,0,1-1-1H40a3,3,0,0,0,3,3v1h2V49a3,3,0,0,0,0-6H43a1,1,0,0,1,0-2Z"></path><path d="M44,34A10,10,0,1,0,54,44,10.011,10.011,0,0,0,44,34Zm0,18a8,8,0,1,1,8-8A8.009,8.009,0,0,1,44,52Z"></path><path d="M16,32h2a1,1,0,0,1,1,1h2a3,3,0,0,0-3-3V29H16v1a3,3,0,0,0,0,6h2a1,1,0,0,1,0,2H16a1,1,0,0,1-1-1H13a3,3,0,0,0,3,3v1h2V40a3,3,0,0,0,0-6H16a1,1,0,0,1,0-2Z"></path><rect x="23" y="34" width="2" height="2"></rect><rect x="9" y="34" width="2" height="2"></rect></g></svg>