<svg xmlns="http://www.w3.org/2000/svg" viewBox="0 0 64 64" x="0px" y="0px"><g><path d="M50,27H4V49H50ZM26,33H44v2H26Zm18,4v2H42V37Zm-4,0v2H38V37ZM10,47H8V45h2Zm0-4H8V41h2Zm0-4H8V37h2Zm0-4H8V33h2Zm0-4H8V29h2Zm7,3h2a3,3,0,0,1,0,6v1H17V40a3,3,0,0,1-3-3h2a1,1,0,0,0,1,1h2a1,1,0,0,0,0-2H17a3,3,0,0,1,0-6V29h2v1a3,3,0,0,1,3,3H20a1,1,0,0,0-1-1H17a1,1,0,0,0,0,2Zm11,5H26V37h2Zm4,0H30V37h2Zm2-2h2v2H34Zm11,9a3.072,3.072,0,0,1-2.1-.7A1.156,1.156,0,0,0,42,45c-.441,0-.8.288-1.349.759A3.989,3.989,0,0,1,38,47a3.081,3.081,0,0,1-2.1-.7A1.159,1.159,0,0,0,35,46V44a3.081,3.081,0,0,1,2.1.7,1.159,1.159,0,0,0,.9.3c.441,0,.8-.288,1.349-.759A3.989,3.989,0,0,1,42,43a3.072,3.072,0,0,1,2.1.7,1.156,1.156,0,0,0,.9.3Z"></path><rect x="52" y="32" width="8" height="2"></rect><rect x="52" y="36" width="8" height="2"></rect><path d="M60,17.941A9.011,9.011,0,0,1,52.059,10H27.941A9.011,9.011,0,0,1,20,17.941v4.115A8.906,8.906,0,0,1,25.685,25h9.426a7,7,0,1,1,9.778,0H51a1,1,0,0,1,1,1v4h.059A9.011,9.011,0,0,1,60,22.059Z"></path><path d="M60,24.071A7.015,7.015,0,0,0,54.071,30H60Z"></path><rect x="4" y="51" width="46" height="2"></rect><path d="M20,25h2.6a6.919,6.919,0,0,0-2.6-.93Z"></path><circle cx="40" cy="20" r="5"></circle><path d="M60,10H54.071A7.015,7.015,0,0,0,60,15.929Z"></path><path d="M20,10v5.929A7.015,7.015,0,0,0,25.929,10Z"></path></g></svg>