<svg xmlns="http://www.w3.org/2000/svg" viewBox="0 0 64 64" x="0px" y="0px"><g data-name="Order-Shopping-Shopping Bag-Smartphone-Laptop"><rect x="15" y="5" width="4" height="2"></rect><path d="M21,1H13A5,5,0,0,0,8,6v8.08A7,7,0,0,0,2,21v9.06a4.945,4.945,0,0,0,.53,2.23L3.68,34.6A3,3,0,0,1,4,35.94V38H3a1,1,0,0,0-1,1v8a1,1,0,0,0,1,1H17a1,1,0,0,0,1-1V39a1,1,0,0,0-1-1h-.97a3.027,3.027,0,0,1,.57-1.47L18,34.67a5.075,5.075,0,0,0,1-3V30.13L19.29,29H21a5,5,0,0,0,5-5V6A5,5,0,0,0,21,1ZM16,46H4V40H16Zm2.47-21.77-1.44,5.52A1.068,1.068,0,0,0,17,30v1.67a3.018,3.018,0,0,1-.6,1.8L15,35.33A5.069,5.069,0,0,0,14.01,38H6V35.94a4.945,4.945,0,0,0-.53-2.23L4.32,31.4A3,3,0,0,1,4,30.06V21a5.009,5.009,0,0,1,4-4.9V22a1,1,0,0,0,.14.51l2.43,4.05a2.981,2.981,0,0,0,5.44-.77l.53-2.06a.949.949,0,0,1,.46-.61.966.966,0,0,1,.76-.11A1.01,1.01,0,0,1,18.47,24.23ZM24,24a3.009,3.009,0,0,1-3,3H19.81l.59-2.27a3.01,3.01,0,0,0-2.12-3.65,3,3,0,0,0-3.68,2.15l-.53,2.06a.955.955,0,0,1-.94.72h-.01a.953.953,0,0,1-.83-.48L10,21.72V6a3.009,3.009,0,0,1,3-3h8a3.009,3.009,0,0,1,3,3Z"></path><rect x="12" y="11" width="10" height="2"></rect><rect x="12" y="15" width="10" height="2"></rect><path d="M61.89,54.55,56,42.76V40H54v2H20v2H54.38l5,10H40.62l-1.73-3.45A.988.988,0,0,0,38,50H26a.988.988,0,0,0-.89.55L23.38,54H4.62l1.77-3.55-1.78-.9-2.5,5A1,1,0,0,0,2,55v4a3.009,3.009,0,0,0,3,3H59a3.009,3.009,0,0,0,3-3V55A1,1,0,0,0,61.89,54.55ZM26.62,52H37.38l1,2H25.62ZM60,59a1,1,0,0,1-1,1H5a1,1,0,0,1-1-1V56H60Z"></path><rect x="10" y="50" width="2" height="2"></rect><rect x="14" y="50" width="2" height="2"></rect><rect x="48" y="50" width="2" height="2"></rect><rect x="52" y="50" width="2" height="2"></rect><rect x="19" y="46" width="2" height="2"></rect><rect x="23" y="46" width="2" height="2"></rect><rect x="27" y="46" width="2" height="2"></rect><rect x="31" y="46" width="2" height="2"></rect><rect x="35" y="46" width="2" height="2"></rect><rect x="39" y="46" width="2" height="2"></rect><rect x="43" y="46" width="2" height="2"></rect><rect x="47" y="46" width="2" height="2"></rect><rect x="51" y="46" width="2" height="2"></rect><rect x="28" y="8" width="4" height="2"></rect><path d="M53,10a1,1,0,0,1,1,1v6h2V11a3,3,0,0,0-3-3H47v2h6Z"></path><rect x="18" y="50" width="4" height="2"></rect><rect x="42" y="50" width="4" height="2"></rect><path d="M34,21V18H49V16H46V15a7,7,0,0,0-14,0v1H29a1,1,0,0,0-1,1V35a3.009,3.009,0,0,0,3,3H43V36H31a1,1,0,0,1-1-1V34H42V32H30V18h2v3Zm0-6a5,5,0,0,1,10,0v1H34Z"></path><path d="M61,19H45a1,1,0,0,0-1,1V35a3.009,3.009,0,0,0,3,3H59a3.009,3.009,0,0,0,3-3V20A1,1,0,0,0,61,19ZM60,35a1,1,0,0,1-1,1H47a1,1,0,0,1-1-1V34H60Zm0-3H46V21H60Z"></path><path d="M53,30a5.006,5.006,0,0,0,5-5V23H56v2a3,3,0,0,1-6,0V23H48v2A5.006,5.006,0,0,0,53,30Z"></path></g></svg>