<svg xmlns="http://www.w3.org/2000/svg" viewBox="0 0 32 32" x="0px" y="0px"><title>Browser_37</title><g data-name="Browser"><path d="M31,0H1A1,1,0,0,0,0,1V31a1,1,0,0,0,1,1H17V30H6V8H30v8h2V1A1,1,0,0,0,31,0ZM12,2V6H2V2ZM4,30H2V8H4ZM14,6V2H30V6Z"></path><rect x="3" y="3" width="2" height="2"></rect><rect x="6" y="3" width="2" height="2"></rect><rect x="9" y="3" width="2" height="2"></rect><path d="M25,17a7,7,0,1,0,7,7A7.008,7.008,0,0,0,25,17Zm0,12a5,5,0,1,1,5-5A5.006,5.006,0,0,1,25,29Z"></path><path d="M24.293,20.293l-2.828,2.829,1.414,1.414L24,23.415V28h2V23.415l1.121,1.121,1.414-1.414-2.828-2.829A1.029,1.029,0,0,0,24.293,20.293Z"></path></g></svg>