<svg xmlns="http://www.w3.org/2000/svg" viewBox="0 0 64 64" x="0px" y="0px"><g data-name="DJ"><rect x="17" y="23" width="2" height="2"></rect><rect x="27" y="23" width="2" height="2"></rect><path d="M23,33a4,4,0,0,0,4-4H25a2,2,0,0,1-4,0H19A4,4,0,0,0,23,33Z"></path><path d="M59,36H38.933l-.972-7.172A3,3,0,0,0,40,26V22a3,3,0,0,0-3-3V15A13.015,13.015,0,0,0,24,2H22A13.015,13.015,0,0,0,9,15v4a3,3,0,0,0-3,3v4a2.994,2.994,0,0,0,2.039,2.828l-1.42,10.5a5.005,5.005,0,0,0,1.442,4.2A10.933,10.933,0,0,0,2,53.35V61a1,1,0,0,0,1,1H59a3,3,0,0,0,3-3V39A3,3,0,0,0,59,36ZM30,39v1.89l-2-.625V36.786a11.024,11.024,0,0,0,5.812-7.8c.063.006.124.019.188.019h1.966l.949,7H33A3,3,0,0,0,30,39Zm-4,2a3,3,0,0,1-6,0V37.574a10.776,10.776,0,0,0,6,0ZM15.651,41H15a2,2,0,0,1-2-2H11a3.977,3.977,0,0,0,1.4,3.017l-2.132.667A3,3,0,0,1,8.6,39.594L10.034,29H12c.064,0,.125-.013.188-.019A11.024,11.024,0,0,0,18,36.786v3.479ZM33.417,19.1A.99.99,0,0,0,33,19H31a5.025,5.025,0,0,1-4-2l-1.2-1.6a1,1,0,0,0-.729-.4.991.991,0,0,0-.778.291l-2.242,2.242A4.97,4.97,0,0,1,18.515,19H13a.99.99,0,0,0-.417.1A1.973,1.973,0,0,0,12,19h-.607l.2-1.477A11.03,11.03,0,0,1,22.49,8h1.02a11.03,11.03,0,0,1,10.9,9.523l.2,1.477H34A1.973,1.973,0,0,0,33.417,19.1ZM14,21h4.515a6.958,6.958,0,0,0,4.95-2.05l1.427-1.428.508.678A7.035,7.035,0,0,0,31,21h1v6a9,9,0,0,1-18,0Zm24,1v4a1,1,0,0,1-1,1H34V21h3A1,1,0,0,1,38,22ZM22,4h2a11.01,11.01,0,0,1,10.668,8.366A13.036,13.036,0,0,0,23.51,6H22.49a13.035,13.035,0,0,0-11.158,6.366A11.01,11.01,0,0,1,22,4ZM8,22a1,1,0,0,1,1-1h3v6H9a1,1,0,0,1-1-1ZM4,53.35a8.947,8.947,0,0,1,6.318-8.585L18.193,42.3a4.973,4.973,0,0,0,9.614,0L30,42.985V59a2.966,2.966,0,0,0,.184,1H12V52H10v8H4ZM60,59a1,1,0,0,1-1,1H33a1,1,0,0,1-1-1V39a1,1,0,0,1,1-1H59a1,1,0,0,1,1,1Z"></path><path d="M42,41a8,8,0,1,0,8,8A8.009,8.009,0,0,0,42,41Zm0,14a6,6,0,1,1,6-6A6.006,6.006,0,0,1,42,55Z"></path><path d="M55,43a2.993,2.993,0,0,0-1,5.816v3.77l-2.707,2.707,1.414,1.414,3-3A1,1,0,0,0,56,53V48.816A2.993,2.993,0,0,0,55,43Zm0,4a1,1,0,1,1,1-1A1,1,0,0,1,55,47Z"></path><rect x="34" y="40" width="2" height="2"></rect><rect x="56" y="40" width="2" height="2"></rect><rect x="56" y="56" width="2" height="2"></rect><path d="M42,46a3,3,0,1,0,3,3A3,3,0,0,0,42,46Zm0,4a1,1,0,1,1,1-1A1,1,0,0,1,42,50Z"></path><path d="M48,32a3,3,0,0,0,3-3V21.781l6-1.5v3.9A2.966,2.966,0,0,0,56,24a3,3,0,1,0,3,3V19a1,1,0,0,0-1.242-.97l-8,2A1,1,0,0,0,49,21v5.184A2.966,2.966,0,0,0,48,26a3,3,0,0,0,0,6Zm8-4a1,1,0,1,1,1-1A1,1,0,0,1,56,28Zm-8,0a1,1,0,1,1-1,1A1,1,0,0,1,48,28Z"></path><rect x="34" y="56" width="2" height="2"></rect></g></svg>