<svg xmlns="http://www.w3.org/2000/svg" viewBox="0 0 64 64" x="0px" y="0px"><g data-name="Sync-Synchronize-Arrow-Arrows-Direction-User Interface"><path d="M55.38,18.5a3,3,0,0,0,1.1-4.1l-6-10.39a4,4,0,0,0-7.19,3.46A27,27,0,0,0,8.62,45.5a3,3,0,0,0-1.1,4.1l6,10.39a3.975,3.975,0,0,0,2.43,1.87,4.061,4.061,0,0,0,1.04.13,3.916,3.916,0,0,0,1.99-.54,4,4,0,0,0,1.73-4.92A27,27,0,0,0,55.38,18.5ZM19.5,10.35a24.949,24.949,0,0,1,25.83.5A1,1,0,0,0,46.72,9.5L45.29,7.01a2,2,0,1,1,3.46-2l6,10.39a1,1,0,0,1-.37,1.37l-10.39,6a2.06,2.06,0,0,1-1.52.2,2.016,2.016,0,0,1-1.21-.93,1.98,1.98,0,0,1-.2-1.52,2.008,2.008,0,0,1,.93-1.22l3.24-1.87a1,1,0,0,0,.5-.78,1.017,1.017,0,0,0-.36-.85A21,21,0,0,0,13.81,42.5l-3.46,2A25.027,25.027,0,0,1,19.5,10.35Zm4.97,30.61a4,4,0,0,0-5.46-1.46l-3.46,2A19.008,19.008,0,0,1,42.93,16.45l-1.94,1.12a4,4,0,0,0,.97,7.33,3.962,3.962,0,0,0,3.03-.4l3.46-2A19.008,19.008,0,0,1,21.07,47.55l1.94-1.12a3.985,3.985,0,0,0,1.46-5.47ZM44.5,53.65a24.949,24.949,0,0,1-25.83-.5.984.984,0,0,0-1.22.13,1,1,0,0,0-.17,1.22l1.43,2.49a2,2,0,1,1-3.46,2l-6-10.39a1,1,0,0,1,.37-1.37l10.39-6a2.074,2.074,0,0,1,.99-.27,2.41,2.41,0,0,1,.53.07,2.016,2.016,0,0,1,1.21.93,1.98,1.98,0,0,1,.2,1.52,2.008,2.008,0,0,1-.93,1.22l-3.24,1.87a1,1,0,0,0-.06,1.69A21,21,0,0,0,50.19,21.5l3.46-2A25.027,25.027,0,0,1,44.5,53.65Z"></path></g></svg>