<svg xmlns="http://www.w3.org/2000/svg" viewBox="0 0 64 64" x="0px" y="0px"><g data-name="Mobile App-Hand-Smartphone-Taxi-Technology"><rect x="16" y="13" width="6" height="2"></rect><rect x="14" y="19" width="2" height="2"></rect><rect x="18" y="19" width="6" height="2"></rect><rect x="14" y="23" width="10" height="2"></rect><rect x="14" y="27" width="10" height="2"></rect><rect x="40" y="18" width="2" height="2"></rect><rect x="50" y="18" width="2" height="2"></rect><path d="M53.105,13.553l-.1.211L50.9,9.553A1,1,0,0,0,50,9V6a1,1,0,0,0-1-1H43a1,1,0,0,0-1,1V9a1,1,0,0,0-.9.553L39,13.764l-.1-.211A1,1,0,0,0,38,13H36v2h1.382l.189.379A2.989,2.989,0,0,0,36,18v2a3,3,0,0,0,2,2.816V25a2,2,0,0,0,2,2h2a2,2,0,0,0,2-2V23h4v2a2,2,0,0,0,2,2h2a2,2,0,0,0,2-2V22.816A3,3,0,0,0,56,20V18a2.989,2.989,0,0,0-1.571-2.621L54.618,15H56V13H54A1,1,0,0,0,53.105,13.553ZM44,7h4V9H44Zm-1.382,4h6.764l2,4H40.618ZM42,25H40V23h2Zm8,0V23h2v2Zm4-5a1,1,0,0,1-1,1H39a1,1,0,0,1-1-1V18a1,1,0,0,1,1-1H53a1,1,0,0,1,1,1Z"></path><path d="M51.47,1.96A15.995,15.995,0,0,0,30,16.92V14a5,5,0,0,0-5-5H13a5,5,0,0,0-5,5V26.08A7,7,0,0,0,2,33V44.53a2.971,2.971,0,0,0,.32,1.34L4,49.24V52H3a1,1,0,0,0-1,1v8a1,1,0,0,0,1,1H17a1,1,0,0,0,1-1V53a1,1,0,0,0-1-1H16v-.67l2.8-3.73A.984.984,0,0,0,19,47V44.79a5.074,5.074,0,0,1,.17-1.29l.13-.5H25a5,5,0,0,0,5-5V29H28v9a3.009,3.009,0,0,1-3,3H19.84l.53-2H22V37H20.91l.13-.47a3.032,3.032,0,0,0-.3-2.28,3.007,3.007,0,0,0-5.5.73l-1.15,4.3a1.045,1.045,0,0,1-.97.73.953.953,0,0,1-.83-.48L10,35.72V14a3.009,3.009,0,0,1,3-3H25a3.009,3.009,0,0,1,3,3v5h2V17.01a15.532,15.532,0,0,0,.34,3.25l-4.33,5.05a1.011,1.011,0,0,0-.14,1.08,1,1,0,0,0,.91.57l6.65-.06A16,16,0,1,0,51.47,1.96ZM16,60H4V54H16ZM10.57,40.56a2.956,2.956,0,0,0,2.53,1.45h.04a2.974,2.974,0,0,0,2.88-2.21l1.15-4.3a1,1,0,0,1,.47-.61,1,1,0,0,1,1.36.36.974.974,0,0,1,.1.76l-1.86,6.97A6.922,6.922,0,0,0,17,44.79v1.88L14.2,50.4a.984.984,0,0,0-.2.6v1H6V49a1,1,0,0,0-.11-.45L4.11,44.97A.956.956,0,0,1,4,44.53V33a5.009,5.009,0,0,1,4-4.9V36a1,1,0,0,0,.14.51ZM59.16,21.79A13.993,13.993,0,0,1,34.73,25.3a1.014,1.014,0,0,0-.8-.4h-.01l-4.96.04,3.22-3.76a1.017,1.017,0,0,0,.22-.89,14,14,0,1,1,26.76,1.5Z"></path></g></svg>