<svg xmlns="http://www.w3.org/2000/svg" viewBox="0 0 64 64" x="0px" y="0px"><title>Book</title><g><path d="M55,2H9A2,2,0,0,0,7,4V60a2,2,0,0,0,2,2H55a2,2,0,0,0,2-2V4A2,2,0,0,0,55,2ZM40,4V6H24V4ZM23,12H41a1,1,0,0,0,1-1V8h9V56H13V8h9v3A1,1,0,0,0,23,12Zm17-2H24V8H40ZM9,60V4H22V6H12a1,1,0,0,0-1,1V57a1,1,0,0,0,1,1H52a1,1,0,0,0,1-1V7a1,1,0,0,0-1-1H42V4H55V60Z"></path><path d="M22,27H20v2h2v4H20v2h2v4H20v2h2v5a1,1,0,0,0,1,1H39a3,3,0,0,0,3-3V24a3,3,0,0,0-3-3H23a1,1,0,0,0-1,1Zm17-4a1,1,0,0,1,1,1V44a1,1,0,0,1-1,1H24V41h2V39H24V35h2V33H24V29h2V27H24V23Z"></path></g></svg>