<svg xmlns="http://www.w3.org/2000/svg" viewBox="0 0 64 64" x="0px" y="0px"><g><path d="M35,19V14H29v5a3,3,0,0,0,6,0Z"></path><path d="M6,52H58V21a3,3,0,0,0-3-3H53v1a5.009,5.009,0,0,1-4,4.9V40h7v2H8V40h7V23.9A5.009,5.009,0,0,1,11,19V18H9a3,3,0,0,0-3,3Z"></path><path d="M27,19V14H21v5a3,3,0,0,0,6,0Z"></path><path d="M29,38a2.99,2.99,0,0,0,.769,2h4.462A3,3,0,1,0,29,38Z"></path><path d="M47,40V30a1,1,0,0,0-1-1H18a1,1,0,0,0-1,1V40h2V35.9a1,1,0,0,1,.8-.98,4,4,0,0,0,3.121-3.12A1,1,0,0,1,23.9,31H27v2H24.658A5.984,5.984,0,0,1,21,36.658V39.34a5.87,5.87,0,0,1,1.288.66h5.134a5,5,0,1,1,9.156,0h5.134A5.87,5.87,0,0,1,43,39.34V36.658A5.984,5.984,0,0,1,39.342,33H37V31h3.1a1,1,0,0,1,.979.8A4,4,0,0,0,44.2,34.92a1,1,0,0,1,.8.98V40Z"></path><path d="M47,23.9a4.994,4.994,0,0,1-3-1.93,4.954,4.954,0,0,1-8,0,4.954,4.954,0,0,1-8,0,4.954,4.954,0,0,1-8,0,4.994,4.994,0,0,1-3,1.93v3.285A2.966,2.966,0,0,1,18,27H46a2.966,2.966,0,0,1,1,.184Z"></path><path d="M43,19V14H37v5a3,3,0,0,0,6,0Z"></path><path d="M14,14a1,1,0,0,0-1,1v4a3,3,0,0,0,6,0V14H14Z"></path><path d="M4,57a1,1,0,0,0,1,1H59a1,1,0,0,0,1-1V54H39v1a2,2,0,0,1-2,2H27a2,2,0,0,1-2-2V54H4Z"></path><rect x="27" y="54" width="10.001" height="1"></rect><polygon points="18.693 6 16.443 12 47.557 12 45.307 6 18.693 6"></polygon><path d="M51,19V15a1,1,0,0,0-1-1H45v5a3,3,0,0,0,6,0Z"></path></g></svg>