<svg xmlns="http://www.w3.org/2000/svg" viewBox="0 0 64 64" x="0px" y="0px"><g><circle cx="32" cy="32" r="1"></circle><path d="M33,29.184a3,3,0,1,1-2,0V20.766L25.153,31c.856,1.5,2.847,5.2,2.847,7v4h8V38c0-1.808,1.991-5.5,2.847-7L33,20.766Z"></path><rect x="28" y="44" width="8" height="10"></rect><path d="M60,12H4V57a3,3,0,0,0,3,3H57a3,3,0,0,0,3-3ZM16,16H28v2H16Zm-6,0h4v2H10Zm0,6H24v2H10Zm0,12h2v2H10Zm6,8H10V40h6Zm6,0H18V40h4Zm0-6H14V34h8Zm0-6H10V28H22Zm18.862,1.507C39.674,33.527,38,36.876,38,38V55a1,1,0,0,1-1,1H27a1,1,0,0,1-1-1V38c0-1.124-1.674-4.473-2.862-6.493a1,1,0,0,1-.006-1l8-14a1.04,1.04,0,0,1,1.736,0l8,14A1,1,0,0,1,40.862,31.507ZM44,56H42V46h2Zm0-12H42V42h2Zm0-4H42V38h2Zm4,11H46V41h2Zm0-12H46V37h2Zm0-4H46V33h2Z"></path><path d="M60,7a3,3,0,0,0-3-3H7A3,3,0,0,0,4,7v3H60ZM10,8H8V6h2Zm4,0H12V6h2Zm4,0H16V6h2Z"></path></g></svg>