<svg xmlns="http://www.w3.org/2000/svg" viewBox="0 0 64 64" x="0px" y="0px"><g data-name="Cloud-Server-Storage-Cloud Computing-Data"><rect x="6" y="49" width="2" height="2"></rect><rect x="10" y="50" width="2" height="2"></rect><rect x="6" y="56" width="2" height="2"></rect><rect x="10" y="57" width="2" height="2"></rect><rect x="27" y="49" width="2" height="2"></rect><rect x="31" y="50" width="2" height="2"></rect><rect x="27" y="56" width="2" height="2"></rect><rect x="31" y="57" width="2" height="2"></rect><path d="M54,40.03V36a1,1,0,0,0-1-1H41V31h4a9,9,0,0,0,2-17.77V13a7.008,7.008,0,0,0-7-7,6.775,6.775,0,0,0-2.23.37A11,11,0,0,0,18,13v.05A9,9,0,0,0,19,31h4v4H11a1,1,0,0,0-1,1v4.03c-4.12.18-8,1.54-8,3.97V58c0,2.63,4.53,4,9,4s9-1.37,9-4V44c0-2.43-3.88-3.79-8-3.97V37H24a1,1,0,0,0,1-1V31h6v9.03c-4.12.18-8,1.54-8,3.97V58c0,2.63,4.53,4,9,4s9-1.37,9-4V44c0-2.43-3.88-3.79-8-3.97V31h6v5a1,1,0,0,0,1,1H52v3.03c-4.12.18-8,1.54-8,3.97V58c0,2.63,4.53,4,9,4s9-1.37,9-4V44C62,41.57,58.12,40.21,54,40.03ZM18,58c0,.58-2.45,2-7,2s-7-1.42-7-2V53.6A15.9,15.9,0,0,0,11,55a15.9,15.9,0,0,0,7-1.4Zm0-7c0,.58-2.45,2-7,2s-7-1.42-7-2V46.6A15.9,15.9,0,0,0,11,48a15.9,15.9,0,0,0,7-1.4Zm0-7c0,.58-2.45,2-7,2s-7-1.42-7-2,2.45-2,7-2S18,43.42,18,44Zm6-20a1,1,0,1,1,1-1A1,1,0,0,1,24,24ZM39,58c0,.58-2.45,2-7,2s-7-1.42-7-2V53.6A15.9,15.9,0,0,0,32,55a15.9,15.9,0,0,0,7-1.4Zm0-7c0,.58-2.45,2-7,2s-7-1.42-7-2V46.6A15.9,15.9,0,0,0,32,48a15.9,15.9,0,0,0,7-1.4Zm0-7c0,.58-2.45,2-7,2s-7-1.42-7-2,2.45-2,7-2S39,43.42,39,44ZM32,24a1,1,0,1,1,1-1A1,1,0,0,1,32,24Zm7,5H33V25.82a3,3,0,1,0-2,0V29H25V25.82a3,3,0,1,0-2,0V29H19a7,7,0,1,1,.05-14,1,1,0,0,0,.74-.33,1.036,1.036,0,0,0,.26-.77c-.03-.3-.05-.6-.05-.9A9,9,0,0,1,36.57,8.14a1.009,1.009,0,0,0,1.27.36A4.921,4.921,0,0,1,40,8a5,5,0,0,1,5,5,5.532,5.532,0,0,1-.08.88.966.966,0,0,0,.18.77.986.986,0,0,0,.69.4A7,7,0,0,1,45,29H41V25.82a3,3,0,1,0-2,0Zm1-5a1,1,0,1,1,1-1A1,1,0,0,1,40,24ZM60,58c0,.58-2.45,2-7,2s-7-1.42-7-2V53.6A15.9,15.9,0,0,0,53,55a15.9,15.9,0,0,0,7-1.4Zm0-7c0,.58-2.45,2-7,2s-7-1.42-7-2V46.6A15.9,15.9,0,0,0,53,48a15.9,15.9,0,0,0,7-1.4Zm-7-5c-4.55,0-7-1.42-7-2s2.45-2,7-2,7,1.42,7,2S57.55,46,53,46Z"></path><rect x="48" y="49" width="2" height="2"></rect><rect x="52" y="50" width="2" height="2"></rect><rect x="48" y="56" width="2" height="2"></rect><rect x="52" y="57" width="2" height="2"></rect><path d="M50,22H48a3,3,0,0,1-3,3v2A5.006,5.006,0,0,0,50,22Z"></path><path d="M22,13h2a5.006,5.006,0,0,1,5-5V6A7.008,7.008,0,0,0,22,13Z"></path></g></svg>