<svg xmlns="http://www.w3.org/2000/svg" viewBox="0 0 64 64" x="0px" y="0px"><g data-name="Interface"><path d="M56,12H46V7a5.006,5.006,0,0,0-5-5H21a5.006,5.006,0,0,0-5,5v6.01H14.654a3.005,3.005,0,0,0-2.6,1.5L6.474,24.18A11.012,11.012,0,0,0,5,29.68V52a1,1,0,0,0-1,1v8a1,1,0,0,0,1,1H19a1,1,0,0,0,1-1V53a1,1,0,0,0-1-1v-.724l.851-1.421A4.881,4.881,0,0,0,21,50H41a5.006,5.006,0,0,0,5-5V42H56a3,3,0,0,0,3-3V15A3,3,0,0,0,56,12ZM26,4H36V5a1,1,0,0,1-1,1H27a1,1,0,0,1-1-1ZM18,60H6V54H18ZM7,52V29.68a9.006,9.006,0,0,1,1.206-4.5l5.583-9.67a1,1,0,0,1,.865-.5H16V27.189L12.934,32.5l1.732,1,7.5-12.991a2,2,0,0,1,3.468,2L18.764,34.4a1,1,0,0,0-.082.819l.65,1.94A12.91,12.91,0,0,1,20,41.27v.85a13.051,13.051,0,0,1-1.507,6.067c-.112.215-.233.429-.351.629l-1,1.67A1,1,0,0,0,17,51v1Zm37-7a3,3,0,0,1-3,3H21c-.077,0-.146-.017-.221-.023A15.019,15.019,0,0,0,22,42.12v-.85a14.931,14.931,0,0,0-.771-4.748l-.507-1.512,6.645-11.5a4.013,4.013,0,0,0,.533-2,4,4,0,0,0-7.466-2L18,23.725V7a3,3,0,0,1,3-3h3V5a3,3,0,0,0,3,3h8a3,3,0,0,0,3-3V4h3a3,3,0,0,1,3,3v5H34a3,3,0,0,0-3,3V39a3,3,0,0,0,3,3H44Zm13-6a1,1,0,0,1-1,1H34a1,1,0,0,1-1-1V20H57ZM33,18V15a1,1,0,0,1,1-1H56a1,1,0,0,1,1,1v3Z"></path><path d="M37,31h6a1,1,0,0,0,1-1V24a1,1,0,0,0-1-1H37a1,1,0,0,0-1,1v6A1,1,0,0,0,37,31Zm1-6h4v4H38Z"></path><rect x="36" y="33" width="18" height="2"></rect><rect x="46" y="29" width="8" height="2"></rect><rect x="46" y="25" width="8" height="2"></rect></g></svg>