<svg xmlns="http://www.w3.org/2000/svg" viewBox="0 0 64 64" x="0px" y="0px"><g data-name="Road Pointer"><path d="M50,20a1,1,0,0,0,.707-.293l6-6a1,1,0,0,0,0-1.414l-6-6A1,1,0,0,0,50,6H35V3a1,1,0,0,0-1-1H30a1,1,0,0,0-1,1V6H12a1,1,0,0,0-1,1V19a1,1,0,0,0,1,1H29v4H14a1,1,0,0,0-.707.293l-6,6a1,1,0,0,0,0,1.414l6,6A1,1,0,0,0,14,38H29V56H24a1,1,0,0,0-1,1v3H18v2H46V60H41V57a1,1,0,0,0-1-1H35V38H52a1,1,0,0,0,1-1V25a1,1,0,0,0-1-1H35V20Zm4.586-7-5,5H17V8H49.586ZM31,4h2V6H31ZM13,18V8h2V18ZM9.414,31l5-5H47V36H14.414ZM39,60H25V58H39Zm-6-4H31V38h2ZM51,26V36H49V26ZM33,24H31V20h2Z"></path><rect x="31" y="12" width="2" height="2"></rect><rect x="35" y="12" width="2" height="2"></rect><rect x="27" y="12" width="2" height="2"></rect><rect x="31" y="30" width="2" height="2"></rect><rect x="35" y="30" width="2" height="2"></rect><rect x="27" y="30" width="2" height="2"></rect></g></svg>