<svg xmlns="http://www.w3.org/2000/svg" viewBox="0 0 64 64" x="0px" y="0px"><g><rect x="30" y="46" width="4" height="4"></rect><rect x="30" y="40" width="4" height="4"></rect><rect x="30" y="34" width="4" height="4"></rect><rect x="36" y="46" width="4" height="4"></rect><rect x="24" y="46" width="4" height="4"></rect><rect x="24" y="34" width="4" height="4"></rect><rect x="18" y="34" width="4" height="16"></rect><rect x="24" y="40" width="4" height="4"></rect><rect x="36" y="34" width="4" height="4"></rect><rect x="42" y="34" width="4" height="4"></rect><rect x="36" y="40" width="4" height="4"></rect><path d="M49.2,7.6,47,4.667,44.8,7.6a1.036,1.036,0,0,1-1.6,0L41,4.667,38.8,7.6a1.036,1.036,0,0,1-1.6,0L35,4.667,32.8,7.6a1.036,1.036,0,0,1-1.6,0L29,4.667,26.8,7.6a1.036,1.036,0,0,1-1.6,0L23,4.667,20.8,7.6a1.036,1.036,0,0,1-1.6,0L17,4.667,14.8,7.6a1.036,1.036,0,0,1-1.6,0L12,6V58l1.2-1.6a1.036,1.036,0,0,1,1.6,0L17,59.333,19.2,56.4a1.036,1.036,0,0,1,1.6,0L23,59.333,25.2,56.4a1.036,1.036,0,0,1,1.6,0L29,59.333,31.2,56.4a1.036,1.036,0,0,1,1.6,0L35,59.333,37.2,56.4a1.036,1.036,0,0,1,1.6,0L41,59.333,43.2,56.4a1,1,0,0,1,1.6,0L47,59.333,49.2,56.4a1.036,1.036,0,0,1,1.6,0L52,58V6L50.8,7.6A1.036,1.036,0,0,1,49.2,7.6ZM36,16h8v2H36Zm-4,0h2v2H32Zm0,4H44v2H32Zm-5-2H25a3,3,0,0,1,0-6V10h2v2a3,3,0,0,1,3,3H28a1,1,0,0,0-1-1H25a1,1,0,0,0,0,2h2a3,3,0,0,1,0,6v2H25V22a3,3,0,0,1-3-3h2a1,1,0,0,0,1,1h2a1,1,0,0,0,0-2ZM48,51a1,1,0,0,1-1,1H17a1,1,0,0,1-1-1V27a1,1,0,0,1,1-1H47a1,1,0,0,1,1,1Z"></path><rect x="18" y="28" width="28" height="4"></rect><rect x="42" y="46" width="4" height="4"></rect><rect x="42" y="40" width="4" height="4"></rect></g></svg>