<svg xmlns="http://www.w3.org/2000/svg" viewBox="0 0 64 64" x="0px" y="0px"><g><rect x="27" y="32" width="4" height="3"></rect><rect x="27" y="27" width="4" height="3"></rect><rect x="33" y="37" width="4" height="3"></rect><rect x="27" y="37" width="4" height="3"></rect><path d="M21,39a1,1,0,0,0,1,1h3V37H21Z"></path><path d="M34,54H30a1,1,0,0,0,0,2h4a1,1,0,0,0,0-2Z"></path><rect x="21" y="32" width="4" height="3"></rect><rect x="21" y="27" width="4" height="3"></rect><rect x="33" y="27" width="4" height="3"></rect><rect x="33" y="32" width="4" height="3"></rect><rect x="39" y="27" width="4" height="3"></rect><path d="M50,8a4,4,0,0,0-4-4H18a4,4,0,0,0-4,4V56a4,4,0,0,0,4,4H46a4,4,0,0,0,4-4ZM29,6h6V8H29ZM25,6h2V8H25Zm9,52H30a3,3,0,0,1,0-6h4a3,3,0,0,1,0,6ZM45,39a3,3,0,0,1-3,3H22a3,3,0,0,1-3-3V23a3,3,0,0,1,3-3h3V19h2v1h2V19h2v1h2V19h2v1h2V19h2v1h3a3,3,0,0,1,3,3Z"></path><path d="M42,22H39v1H37V22H35v1H33V22H31v1H29V22H27v1H25V22H22a1,1,0,0,0-1,1v2H43V23A1,1,0,0,0,42,22Z"></path><path d="M39,40h3a1,1,0,0,0,1-1V37H39Z"></path><rect x="39" y="32" width="4" height="3"></rect></g></svg>