<svg xmlns="http://www.w3.org/2000/svg" viewBox="0 0 48 48" x="0px" y="0px"><title>Order_1</title><g data-name="Order"><path d="M45,13H43V12a2,2,0,0,0-2-2H39a2,2,0,0,0-2,2V41a1,1,0,0,0,.094.423l1.869,4a1,1,0,0,0,.88.577h.026a1,1,0,0,0,.883-.53l2.131-4A1.01,1.01,0,0,0,43,41V15h1v8h2V14A1,1,0,0,0,45,13Zm-4-1v5H39V12ZM39.928,42.763,39,40.778V19h2V40.75Z"></path><rect x="18" y="26" width="2" height="2"></rect><rect x="26" y="26" width="4" height="2"></rect><rect x="8" y="16" width="18" height="2"></rect><rect x="28" y="16" width="2" height="2"></rect><rect x="8" y="21" width="22" height="2"></rect><rect x="8" y="26" width="8" height="2"></rect><rect x="22" y="26" width="2" height="2"></rect><rect x="8" y="31" width="22" height="2"></rect><rect x="8" y="36" width="18" height="2"></rect><rect x="28" y="36" width="2" height="2"></rect><path d="M32,7H28V6a1,1,0,0,0-1-1H24.781L23.97,1.757A1,1,0,0,0,23,1H15a1,1,0,0,0-.97.757L13.219,5H11a1,1,0,0,0-1,1V7H6a3,3,0,0,0-3,3V43a3,3,0,0,0,3,3H32a3,3,0,0,0,3-3V10A3,3,0,0,0,32,7ZM12,7h2a1,1,0,0,0,.97-.757L15.781,3h6.438l.811,3.243A1,1,0,0,0,24,7h2V9H12ZM33,43a1,1,0,0,1-1,1H6a1,1,0,0,1-1-1V10A1,1,0,0,1,6,9h4v1a1,1,0,0,0,1,1H27a1,1,0,0,0,1-1V9h4a1,1,0,0,1,1,1Z"></path><circle cx="19" cy="6" r="2"></circle></g></svg>