<svg xmlns="http://www.w3.org/2000/svg" viewBox="0 0 48 48" x="0px" y="0px"><g data-name="Cocktail"><path d="M30.385,6H17.615c-.163,1.056-.3,2.5-.4,4h13.57C30.682,8.5,30.548,7.056,30.385,6Z"></path><path d="M25,31.793c3.057-1.146,6-7.393,6-16.293,0-.942-.034-2.186-.1-3.5H17.1c-.063,1.314-.1,2.558-.1,3.5,0,8.9,2.943,15.147,6,16.293V44H17v2H31V44H25Zm-1.356-3.739h0a2.46,2.46,0,0,0,.521-.567h0A12.542,12.542,0,0,0,25.9,23.709l1.915.582a15.009,15.009,0,0,1-2.038,4.384h0a3.476,3.476,0,0,1-1.417,1.247l-.712-1.869h0Z"></path></g></svg>