<svg xmlns="http://www.w3.org/2000/svg" viewBox="0 0 64 64" x="0px" y="0px"><title>Brain-Chip-Cpu-Artificial Intelligence</title><g><rect x="34" y="47" width="1" height="2"></rect><rect x="34" y="51" width="1" height="2"></rect><path d="M7,42H28a5.006,5.006,0,0,0,5-5V33H31v4a3,3,0,0,1-3,3H7a5.006,5.006,0,0,0-5,5v1a5.006,5.006,0,0,0,5,5H26.185A2.963,2.963,0,0,0,29,53h3V47H29a2.986,2.986,0,0,0-2.817,2H7a3,3,0,0,1-3-3V45A3,3,0,0,1,7,42Z"></path><rect x="49" y="49" width="2" height="2"></rect><path d="M55,45H45V55H55Zm-2,7a1,1,0,0,1-1,1H48a1,1,0,0,1-1-1V48a1,1,0,0,1,1-1h4a1,1,0,0,1,1,1Z"></path><path d="M55,43H53V42a1,1,0,0,1,.293-.707L55,39.588V38h2v2a1,1,0,0,1-.293.707L55,42.417Z"></path><path d="M47,43H45v-.554l-1.707-1.707A1,1,0,0,1,43,40.032V38h2v1.618l1.707,1.707a1,1,0,0,1,.293.707Z"></path><rect x="49" y="38" width="2" height="5"></rect><path d="M57,62H55V60.412l-1.707-1.707A1,1,0,0,1,53,58V57h2v.583l1.707,1.708A1,1,0,0,1,57,60Z"></path><path d="M45,62H43V59.968a1,1,0,0,1,.293-.707L45,57.554V57h2v.968a1,1,0,0,1-.293.707L45,60.382Z"></path><rect x="49" y="57" width="2" height="5"></rect><path d="M57.987,47H57V45h.573l1.707-1.707A1,1,0,0,1,59.987,43H62v2H60.4l-1.707,1.707A1,1,0,0,1,57.987,47Z"></path><path d="M62,57H59.987a1,1,0,0,1-.707-.293L57.573,55H57V53h.987a1,1,0,0,1,.707.293L60.4,55H62Z"></path><rect x="57" y="49" width="5" height="2"></rect><path d="M43,47H41.013a1,1,0,0,1-.895-.553L39.4,45H38V43h2.013a1,1,0,0,1,.894.553L41.631,45H43Z"></path><path d="M40.013,57H38V55h1.4l.723-1.447A1,1,0,0,1,41.013,53H43v2H41.631l-.724,1.447A1,1,0,0,1,40.013,57Z"></path><rect x="38" y="49" width="5" height="2"></rect><path d="M55.649,31,60,27.52V21.266L56.42,15H53.414L51,17.414v.77a3,3,0,1,1-2,0V17a1,1,0,0,1,.293-.707l2.345-2.345L48.79,10.624l-2.083,2.083A1,1,0,0,1,46,13H42V11h3.586l1.9-1.9L46.54,8H37.481L34,12.351v2.235L35.715,16.3A2.951,2.951,0,0,1,37,16a3,3,0,1,1-3,3,2.951,2.951,0,0,1,.3-1.285l-2.008-2.008A1,1,0,0,1,32,15V12a1,1,0,0,1,.219-.625L35.735,6.98,33.5,4H24.454l-6.2,7.082,1.575,2.363A1.006,1.006,0,0,1,20,14v3.184a3,3,0,1,1-2,0V14.3L16.465,12H9.414L4,17.414V21H8.586l1.707-1.707,1.414,1.414-2,2A1,1,0,0,1,9,23H4v2.638l3.959,4.751L10.2,27.4A1,1,0,0,1,11,27h6v2H11.5L10,31H34V29.386L32.614,28H29.057a1,1,0,0,1-.707-.293l-2.029-2.028,1.414-1.414L29.471,26h3.557a1,1,0,0,1,.707.293l1.972,1.972a1,1,0,0,1,.293.707V31ZM49,27h5.586l1.707-1.707,1.414,1.414-2,2A1,1,0,0,1,55,29H49Zm-2,0v2H45V27Zm-7.707-3.707A1,1,0,0,1,40,23h6v2H40.414l-1.707,1.707-1.414-1.414ZM21,29H19V27h2Zm6-7H25V20h2Zm1.293-4.293L26.586,16H23V14h4a1,1,0,0,1,.707.293l2,2ZM30,10H26V8h4Zm3,14H31V22h2Z"></path><circle cx="19" cy="20" r="1"></circle><circle cx="50" cy="21" r="1"></circle><circle cx="37" cy="19" r="1"></circle></g></svg>