<svg xmlns="http://www.w3.org/2000/svg" viewBox="0 0 64 64" x="0px" y="0px"><g><rect x="17" y="56" width="28" height="2"></rect><rect x="47" y="56" width="4" height="2"></rect><rect x="13" y="56" width="2" height="2"></rect><rect x="17" y="52" width="2" height="2"></rect><rect x="13" y="52" width="2" height="2"></rect><rect x="21" y="52" width="2" height="2"></rect><rect x="25" y="52" width="2" height="2"></rect><rect x="29" y="52" width="2" height="2"></rect><rect x="33" y="52" width="2" height="2"></rect><rect x="37" y="52" width="2" height="2"></rect><rect x="41" y="52" width="2" height="2"></rect><rect x="45" y="52" width="2" height="2"></rect><rect x="49" y="52" width="2" height="2"></rect><rect x="17" y="48" width="2" height="2"></rect><rect x="13" y="48" width="2" height="2"></rect><rect x="21" y="48" width="2" height="2"></rect><rect x="25" y="48" width="2" height="2"></rect><rect x="29" y="48" width="2" height="2"></rect><rect x="33" y="48" width="2" height="2"></rect><rect x="37" y="48" width="2" height="2"></rect><rect x="41" y="48" width="2" height="2"></rect><rect x="45" y="48" width="2" height="2"></rect><rect x="49" y="48" width="2" height="2"></rect><path d="M34,42H51a11,11,0,0,0,0-22H46.949A14.993,14.993,0,0,0,28.787,6.346L29.213,8.3A13.018,13.018,0,0,1,31,8.053V20H25a1,1,0,0,0-1,1,26.591,26.591,0,0,0,.855,6.822,15.106,15.106,0,0,0-2.58,1.784,12.9,12.9,0,0,1-3.242-7.676l-2,.14A14.991,14.991,0,0,0,46.949,22H51a9,9,0,0,1,0,18H34a3,3,0,0,0-3,3v1H11a2,2,0,0,0-2,2V60a2,2,0,0,0,2,2H53a2,2,0,0,0,2-2V46a2,2,0,0,0-2-2H33V43A1,1,0,0,1,34,42ZM44.949,20H39.983a26.033,26.033,0,0,0-.836-5.823A15.029,15.029,0,0,0,41.72,12.4,12.932,12.932,0,0,1,44.949,20Zm-8.216-6.9A12.9,12.9,0,0,1,33,13.952V8.206C34.414,8.773,35.785,10.507,36.733,13.1Zm.061-4.174A13.055,13.055,0,0,1,40.29,11a13.062,13.062,0,0,1-1.765,1.229A14.372,14.372,0,0,0,36.794,8.927ZM33,15.952a14.914,14.914,0,0,0,4.314-.937A24.379,24.379,0,0,1,37.982,20H33ZM31,33.794c-1.414-.567-2.785-2.3-3.733-4.895A12.9,12.9,0,0,1,31,28.048Zm2,0V28.048a12.9,12.9,0,0,1,3.733.851C35.785,31.493,34.414,33.227,33,33.794Zm5.525-4.018a13.062,13.062,0,0,1,1.765,1.229,13.055,13.055,0,0,1-3.5,2.068A14.372,14.372,0,0,0,38.525,29.776ZM33,26.048V22h4.982a24.379,24.379,0,0,1-.668,4.985A14.914,14.914,0,0,0,33,26.048ZM26.018,22H31v4.048a14.874,14.874,0,0,0-4.314.937A24.379,24.379,0,0,1,26.018,22Zm1.2,11.081a13.08,13.08,0,0,1-3.493-2.088,13,13,0,0,1,1.756-1.22A14.29,14.29,0,0,0,27.217,33.081ZM41.72,29.6a15.029,15.029,0,0,0-2.573-1.78A26.033,26.033,0,0,0,39.983,22h4.966A12.932,12.932,0,0,1,41.72,29.6ZM53,60H11V46H53Z"></path><path d="M19,14a1,1,0,0,1-1-1H16a3,3,0,0,0,2,2.816V17h2V15.816A2.993,2.993,0,0,0,19,10a1,1,0,1,1,1-1h2a3,3,0,0,0-2-2.816V5H18V6.184A2.993,2.993,0,0,0,19,12a1,1,0,0,1,0,2Z"></path><path d="M19,20a9,9,0,1,0-9-9A9.01,9.01,0,0,0,19,20ZM19,4a7,7,0,1,1-7,7A7.008,7.008,0,0,1,19,4Z"></path><rect x="3" y="10" width="4" height="2"></rect><rect x="5.5" y="4.379" width="2" height="4.243" transform="translate(-2.692 6.5) rotate(-45)"></rect><rect x="4.379" y="14.5" width="4.243" height="2" transform="translate(-9.056 9.136) rotate(-45)"></rect><path d="M20.388,36.04l1.224-1.582A16.9,16.9,0,0,1,15,21H13A18.884,18.884,0,0,0,20.388,36.04Z"></path><path d="M32,4A16.918,16.918,0,0,1,48.785,18.285l1.975-.316A19.02,19.02,0,0,0,27.842,2.457l.437,1.951A17.155,17.155,0,0,1,32,4Z"></path><path d="M22.533,41.967l.824-1.822A21.05,21.05,0,0,1,11,21H9A23.052,23.052,0,0,0,22.533,41.967Z"></path><path d="M52.823,18.256,54.806,18A23.052,23.052,0,0,0,45.227,2.181L44.074,3.815A21.05,21.05,0,0,1,52.823,18.256Z"></path></g></svg>