<svg xmlns="http://www.w3.org/2000/svg" viewBox="0 0 64 64" x="0px" y="0px"><g data-name="Racing-Car-Race car-Automobile-Vehicle"><polygon points="26.7 26 36 26 36 22 31.37 22 26.7 26"></polygon><circle cx="17" cy="41" r="1"></circle><path d="M47,36a5,5,0,1,0,5,5A5,5,0,0,0,47,36Zm0,8a3,3,0,1,1,3-3A3,3,0,0,1,47,44Z"></path><polygon points="42.53 22 38 22 38 26 45.87 26 42.53 22"></polygon><path d="M59.21,42.35a.986.986,0,0,0,.79-.97V37.83a1.017,1.017,0,0,0-.3-.71l-.82-.83A3.01,3.01,0,0,1,58.13,35H56a1,1,0,0,1-.83-.45l-2-3a.963.963,0,0,1-.05-1.02A.984.984,0,0,1,54,30h3.83a2.9,2.9,0,0,0-.7-1.13A2.935,2.935,0,0,0,55.04,28a4.962,4.962,0,0,1-3.87-1.84L45.42,19.1A2.97,2.97,0,0,0,43.1,18H31.47a2.993,2.993,0,0,0-1.94.71L18.64,27.77a.947.947,0,0,1-.44.21L6.41,30.34A2.953,2.953,0,0,0,5.06,31H8a1,1,0,0,1,1,1v3a1,1,0,0,1-.8.98L4,36.82v.29a7.1,7.1,0,0,0,.74,3.13l1.6,3.21a.992.992,0,0,0,.9.55h3.44a7,7,0,1,1,12.64,0H40.69A6.884,6.884,0,0,1,40,41a7,7,0,1,1,13.51,2.55ZM36,32H32V30h4Zm-9.3-4a2,2,0,0,1-1.3-3.52l4.67-4a1.988,1.988,0,0,1,1.3-.48H42.53a1.985,1.985,0,0,1,1.54.72l3.33,4A2,2,0,0,1,45.87,28ZM48,32H44V30h4Z"></path><circle cx="47" cy="41" r="1"></circle><path d="M4.02,33c0,.09-.02.18-.02.28v1.5l3-.6V33Z"></path><path d="M17,36a5,5,0,1,0,5,5A5,5,0,0,0,17,36Zm0,8a3,3,0,1,1,3-3A3,3,0,0,1,17,44Z"></path><path d="M55.01,26h.03a4.941,4.941,0,0,1,2.75.83L58.52,25H56.33Z"></path><polygon points="56.54 33 58 33 58 32 55.87 32 56.54 33"></polygon></g></svg>