<svg xmlns="http://www.w3.org/2000/svg" viewBox="0 0 64 64" x="0px" y="0px"><g><path d="M48.305,41.684,39,39.229V36.106A14.029,14.029,0,0,0,45.668,27H46a3.994,3.994,0,0,0,2.17-7.351l.619-12.4A5.007,5.007,0,0,0,43.8,2H16a1,1,0,0,0-1,1,13.907,13.907,0,0,0,1.439,6.163A2.955,2.955,0,0,0,14.4,12.5l1.22,7.305A3.988,3.988,0,0,0,18,27h.332A14.029,14.029,0,0,0,25,36.106v3.123l-9.3,2.454A12.991,12.991,0,0,0,6,54.25V61a1,1,0,0,0,1,1H57a1,1,0,0,0,1-1V54.25A12.989,12.989,0,0,0,48.305,41.684Zm-7.536.08L42.784,45.8l-2.491,2.491a1,1,0,0,0,.152,1.539l2.385,1.59L40.256,60H39V41.3ZM23.707,48.293,21.216,45.8l2.015-4.038L25,41.3V60H23.744L21.17,51.422l2.385-1.59a1,1,0,0,0,.152-1.539ZM27,44.889a6.977,6.977,0,0,0,10,0V60H27ZM46,25V21a2,2,0,0,1,0,4ZM43.8,4a3.008,3.008,0,0,1,2.992,3.15L46.2,19.02c-.067,0-.131-.02-.2-.02V17.994h0v0a14.023,14.023,0,0,0-2.161-6.536,1,1,0,0,0-1.546-.162C38.635,14.951,29.1,15,29,15a11.92,11.92,0,0,1-8.483-3.517A11.916,11.916,0,0,1,17.041,4ZM16.375,12.16a.978.978,0,0,1,.22-.8A1,1,0,0,1,17.36,11h.167A14.17,14.17,0,0,0,19,12.8,13.948,13.948,0,0,0,18,18v1a3.886,3.886,0,0,0-.473.048ZM18,25a2,2,0,0,1,0-4v4Zm2-1V18a11.963,11.963,0,0,1,.613-3.791A13.882,13.882,0,0,0,29,17c.395,0,9.09-.042,13.724-3.453A10.579,10.579,0,0,1,44,18.006V24a12,12,0,0,1-24,0ZM32,38a13.894,13.894,0,0,0,5-.939V40a5,5,0,0,1-10,0V37.061A13.894,13.894,0,0,0,32,38ZM8,54.25a10.99,10.99,0,0,1,8.2-10.633l4.453-1.174-1.553,3.111a1,1,0,0,0,.188,1.153l2.137,2.138-1.985,1.323a1,1,0,0,0-.4,1.119L21.656,60H8ZM56,60H42.344l2.614-8.713a1,1,0,0,0-.4-1.119L42.57,48.845l2.137-2.138a1,1,0,0,0,.188-1.153l-1.553-3.111L47.8,43.618A10.989,10.989,0,0,1,56,54.25Z"></path><path d="M32,27a3,3,0,0,0,3-3V20H33v4a1,1,0,0,1-2,0V20H29v4A3,3,0,0,0,32,27Z"></path><path d="M39,21a1,1,0,0,1,1,1h2a3,3,0,0,0-6,0h2A1,1,0,0,1,39,21Z"></path><path d="M25,19a3,3,0,0,0-3,3h2a1,1,0,0,1,2,0h2A3,3,0,0,0,25,19Z"></path><path d="M37.953,29.655l-1.511-1.31A5.992,5.992,0,0,1,32,30a5.992,5.992,0,0,1-4.442-1.655l-1.511,1.31A7.9,7.9,0,0,0,32,32,7.9,7.9,0,0,0,37.953,29.655Z"></path></g></svg>