<svg xmlns="http://www.w3.org/2000/svg" viewBox="0 0 64 64" x="0px" y="0px"><g data-name="Real Estate"><path d="M4,53V12H56V36h2V5a3,3,0,0,0-3-3H5A3,3,0,0,0,2,5V53a3,3,0,0,0,3,3h5V54H5A1,1,0,0,1,4,53ZM5,4H55a1,1,0,0,1,1,1v5H4V5A1,1,0,0,1,5,4Z"></path><rect x="8" y="6" width="2" height="2"></rect><rect x="12" y="6" width="2" height="2"></rect><rect x="16" y="6" width="2" height="2"></rect><rect x="26" y="6" width="22" height="2"></rect><path d="M61,38H46V34h1a1,1,0,0,0,1-1V29a1,1,0,0,0-1-1H27a1,1,0,0,0-1,1v4a1,1,0,0,0,1,1h1v4H13a1,1,0,0,0-1,1V61a1,1,0,0,0,1,1H61a1,1,0,0,0,1-1V39A1,1,0,0,0,61,38ZM28,30H46v2H28ZM14,40H28V60H14ZM39,60H35V54h4Zm2,0V53a1,1,0,0,0-1-1H34a1,1,0,0,0-1,1v7H30V34H44V60Zm19,0H46V40H60Z"></path><rect x="32" y="36" width="2" height="2"></rect><rect x="36" y="36" width="2" height="2"></rect><rect x="40" y="36" width="2" height="2"></rect><rect x="32" y="40" width="2" height="2"></rect><rect x="36" y="40" width="2" height="2"></rect><rect x="40" y="40" width="2" height="2"></rect><rect x="32" y="44" width="2" height="2"></rect><rect x="36" y="44" width="2" height="2"></rect><rect x="40" y="44" width="2" height="2"></rect><rect x="32" y="48" width="2" height="2"></rect><rect x="36" y="48" width="2" height="2"></rect><rect x="40" y="48" width="2" height="2"></rect><rect x="48" y="50" width="2" height="2"></rect><rect x="52" y="50" width="2" height="2"></rect><rect x="56" y="50" width="2" height="2"></rect><rect x="48" y="46" width="2" height="2"></rect><rect x="52" y="46" width="2" height="2"></rect><rect x="56" y="46" width="2" height="2"></rect><rect x="48" y="42" width="2" height="2"></rect><rect x="52" y="42" width="2" height="2"></rect><rect x="56" y="42" width="2" height="2"></rect><rect x="16" y="42" width="2" height="2"></rect><rect x="20" y="42" width="2" height="2"></rect><rect x="24" y="42" width="2" height="2"></rect><rect x="16" y="46" width="2" height="2"></rect><rect x="20" y="46" width="2" height="2"></rect><rect x="24" y="46" width="2" height="2"></rect><rect x="16" y="50" width="2" height="2"></rect><rect x="20" y="50" width="2" height="2"></rect><rect x="24" y="50" width="2" height="2"></rect><rect x="48" y="54" width="2" height="2"></rect><rect x="52" y="54" width="2" height="2"></rect><rect x="56" y="54" width="2" height="2"></rect><rect x="16" y="54" width="2" height="2"></rect><rect x="20" y="54" width="2" height="2"></rect><rect x="24" y="54" width="2" height="2"></rect><rect x="23" y="19" width="2" height="2"></rect><rect x="27" y="19" width="2" height="2"></rect><rect x="31" y="19" width="2" height="2"></rect><rect x="35" y="19" width="2" height="2"></rect><path d="M9,15a1,1,0,0,0-1,1v8a1,1,0,0,0,1,1H51a1,1,0,0,0,1-1V16a1,1,0,0,0-1-1Zm41,8H10V17H50Z"></path></g></svg>