<svg xmlns="http://www.w3.org/2000/svg" viewBox="0 0 64 64" x="0px" y="0px"><g><rect x="44" y="30" width="2" height="2"></rect><rect x="52" y="37" width="2" height="2"></rect><rect x="52" y="30" width="2" height="2"></rect><rect x="44" y="37" width="2" height="2"></rect><rect x="52" y="44" width="2" height="2"></rect><rect x="36" y="37" width="2" height="2"></rect><rect x="36" y="44" width="2" height="2"></rect><rect x="36" y="30" width="2" height="2"></rect><rect x="44" y="44" width="2" height="2"></rect><path d="M5,50H8V14H5a1,1,0,0,0-1,1V49A1,1,0,0,0,5,50Z"></path><path d="M60,15a1,1,0,0,0-1-1H22V50H59a1,1,0,0,0,1-1ZM32,47a1,1,0,0,1-1,1H27a1,1,0,0,1-1-1V43a1,1,0,0,1,1-1h4a1,1,0,0,1,1,1Zm0-7a1,1,0,0,1-1,1H27a1,1,0,0,1-1-1V36a1,1,0,0,1,1-1h4a1,1,0,0,1,1,1Zm0-7a1,1,0,0,1-1,1H27a1,1,0,0,1-1-1V29a1,1,0,0,1,1-1h4a1,1,0,0,1,1,1Zm8,14a1,1,0,0,1-1,1H35a1,1,0,0,1-1-1V43a1,1,0,0,1,1-1h4a1,1,0,0,1,1,1Zm0-7a1,1,0,0,1-1,1H35a1,1,0,0,1-1-1V36a1,1,0,0,1,1-1h4a1,1,0,0,1,1,1Zm0-7a1,1,0,0,1-1,1H35a1,1,0,0,1-1-1V29a1,1,0,0,1,1-1h4a1,1,0,0,1,1,1Zm8,14a1,1,0,0,1-1,1H43a1,1,0,0,1-1-1V43a1,1,0,0,1,1-1h4a1,1,0,0,1,1,1Zm0-7a1,1,0,0,1-1,1H43a1,1,0,0,1-1-1V36a1,1,0,0,1,1-1h4a1,1,0,0,1,1,1Zm0-7a1,1,0,0,1-1,1H43a1,1,0,0,1-1-1V29a1,1,0,0,1,1-1h4a1,1,0,0,1,1,1Zm8,14a1,1,0,0,1-1,1H51a1,1,0,0,1-1-1V43a1,1,0,0,1,1-1h4a1,1,0,0,1,1,1Zm0-7a1,1,0,0,1-1,1H51a1,1,0,0,1-1-1V36a1,1,0,0,1,1-1h4a1,1,0,0,1,1,1Zm0-7a1,1,0,0,1-1,1H51a1,1,0,0,1-1-1V29a1,1,0,0,1,1-1h4a1,1,0,0,1,1,1Zm0-8a1,1,0,0,1-1,1H27a1,1,0,0,1-1-1V17a1,1,0,0,1,1-1H55a1,1,0,0,1,1,1Z"></path><path d="M28,24H54V18H28Zm22-3h2v2H50Zm-4,0h2v2H46Zm-4,0h2v2H42Z"></path><rect x="10" y="10" width="10" height="44" rx="1"></rect><rect x="28" y="30" width="2" height="2"></rect><rect x="28" y="44" width="2" height="2"></rect><rect x="28" y="37" width="2" height="2"></rect></g></svg>