<svg xmlns="http://www.w3.org/2000/svg" viewBox="0 0 64 64" x="0px" y="0px"><g data-name="Business-Woman-Avatar-Long-Hair"><path d="M38,13H26v7a4,4,0,0,0,4,4h4a4,4,0,0,0,4-4Zm-8.08,2.38a1.169,1.169,0,0,1-.21.33,1.155,1.155,0,0,1-.33.21.942.942,0,0,1-.76,0,1.155,1.155,0,0,1-.33-.21,1.169,1.169,0,0,1-.21-.33.942.942,0,0,1,0-.76,1.032,1.032,0,0,1,.21-.33,1.155,1.155,0,0,1,.33-.21,1,1,0,0,1,1.09.21,1.032,1.032,0,0,1,.21.33A1,1,0,0,1,30,15,.838.838,0,0,1,29.92,15.38Zm6,0a1.169,1.169,0,0,1-.21.33,1.155,1.155,0,0,1-.33.21.942.942,0,0,1-.76,0,1.155,1.155,0,0,1-.33-.21,1.169,1.169,0,0,1-.21-.33.942.942,0,0,1,0-.76,1.032,1.032,0,0,1,.21-.33,1.155,1.155,0,0,1,.33-.21,1,1,0,0,1,1.09.21,1.032,1.032,0,0,1,.21.33A1,1,0,0,1,36,15,.838.838,0,0,1,35.92,15.38Z"></path><polygon points="27.124 32.117 28.444 35.417 30.575 33.819 28.073 30.692 27.124 32.117"></polygon><path d="M42.307,29.642a4.909,4.909,0,0,0,.285-1.968l-.94-14.47a9.837,9.837,0,0,0-19.607-.317L20.636,27.516a4.933,4.933,0,0,0,.416,2.516A12.969,12.969,0,0,1,23,29V25h2v3.363a12.92,12.92,0,0,1,2-.312V25.188A6,6,0,0,1,24,20V12a1,1,0,0,1,1-1h1V10h2v1h1V8h2v3h3V9h2v2h1V10h2v1a1,1,0,0,1,1,1v8a6,6,0,0,1-3,5.188v2.863a12.92,12.92,0,0,1,2,.312V26h2v3A12.741,12.741,0,0,1,42.307,29.642Z"></path><path d="M43,60h4V41a11.013,11.013,0,0,0-9.005-10.81l.837,1.255a1,1,0,0,1,.1.926L32.914,46.406a1,1,0,0,1-1.828,0L25.071,32.371a1,1,0,0,1,.1-.926l.837-1.255A11.013,11.013,0,0,0,17,41V60h4V50.447a8.417,8.417,0,0,1,0-10.894V38h2v2a1,1,0,0,1-.4.8c-.9.679-1.6,2.815-1.6,4.2s.7,3.522,1.6,4.2a1,1,0,0,1,.4.8V60H41V50a1,1,0,0,1,.4-.8c.9-.679,1.6-2.815,1.6-4.2s-.7-3.522-1.6-4.2A1,1,0,0,1,41,40V38h2v1.553a8.417,8.417,0,0,1,0,10.894Z"></path><path d="M35,28.649V25.91A6,6,0,0,1,34,26H30a6,6,0,0,1-1-.09v2.739l3,3.75Z"></path><polygon points="34.763 37.322 32 35.25 29.237 37.322 32 43.538 34.763 37.322"></polygon><polygon points="36.876 32.117 35.927 30.692 33.425 33.819 35.556 35.417 36.876 32.117"></polygon></g></svg>