<svg xmlns="http://www.w3.org/2000/svg" viewBox="0 0 64 64" x="0px" y="0px"><g><path d="M53,56H50V8h2a1,1,0,0,0,1-1V3a1,1,0,0,0-1-1H12a1,1,0,0,0-1,1V7a1,1,0,0,0,1,1h2V56H11a1,1,0,0,0-1,1v4a1,1,0,0,0,1,1H53a1,1,0,0,0,1-1V57A1,1,0,0,0,53,56ZM13,4H51V6H13ZM48,8V50H16V8ZM16,52H48v4H16Zm36,8H12V58H52Z"></path><path d="M19,26h1V47a1,1,0,0,0,1,1H43a1,1,0,0,0,1-1V26h1a1,1,0,0,0,1-1V21a1,1,0,0,0-1-1H19a1,1,0,0,0-1,1v4A1,1,0,0,0,19,26ZM42,46H22V26H42ZM20,22H44v2H20Z"></path><path d="M25,38h8a1,1,0,0,0,1-1V29a1,1,0,0,0-1-1H25a1,1,0,0,0-1,1v8A1,1,0,0,0,25,38Zm1-8h6v6H26Z"></path><rect x="25" y="40" width="8" height="2"></rect><rect x="36" y="30" width="4" height="2"></rect><rect x="36" y="33" width="4" height="2"></rect><path d="M31,19h2V18h1a1,1,0,0,0,1-1V14a1,1,0,0,0-1-1H31V12h4V10H33V9H31v1H30a1,1,0,0,0-1,1v3a1,1,0,0,0,1,1h3v1H29v2h2Z"></path></g></svg>