<svg xmlns="http://www.w3.org/2000/svg" viewBox="0 0 64 64" x="0px" y="0px"><g><path d="M45,57a3,3,0,0,1-3,3H14a3,3,0,0,1-3-3V7a3,3,0,0,1,3-3h5V6a3,3,0,0,0,3,3H34a3,3,0,0,0,3-3V4h5a3,3,0,0,1,3,3v4h2V7a5.006,5.006,0,0,0-5-5H14A5.006,5.006,0,0,0,9,7V57a5.006,5.006,0,0,0,5,5H42a5.006,5.006,0,0,0,5-5V53H45ZM35,6a1,1,0,0,1-1,1H22a1,1,0,0,1-1-1V4H35Z"></path><path d="M38.573,18.042A3.915,3.915,0,0,0,38,18a4,4,0,0,0-4,4,6,6,0,0,0,0,12H56a6,6,0,0,0,0-12H53.937a8,8,0,0,0-15.364-3.958ZM52,21a6.013,6.013,0,0,1-.252,1.714A1,1,0,0,0,52.706,24H56a4,4,0,0,1,0,8H34a4,4,0,0,1,0-8h1.184a1,1,0,0,0,.942-1.333A1.973,1.973,0,0,1,38,20a2,2,0,0,1,.815.179,1,1,0,0,0,1.379-.665A6,6,0,0,1,52,21Z"></path><path d="M23,49a3,3,0,1,0-3-3A3,3,0,0,0,23,49Zm0-4a1,1,0,1,1-1,1A1,1,0,0,1,23,45Z"></path><path d="M41,46V40H39v5H28v2H40A1,1,0,0,0,41,46Z"></path><path d="M56,47a3,3,0,1,0,3,3A3,3,0,0,0,56,47Zm0,4a1,1,0,1,1,1-1A1,1,0,0,1,56,51Z"></path><path d="M46,40H44V50a1,1,0,0,0,1,1h2V49H46Z"></path><rect x="39" y="36" width="2" height="2"></rect><rect x="44" y="36" width="2" height="2"></rect><rect x="49" y="49" width="2" height="2"></rect><rect x="48" y="22" width="2" height="2"></rect><rect x="44" y="22" width="2" height="2"></rect><path d="M61,39H57a1,1,0,0,0-1,1v4a1,1,0,0,0,1,1h4a1,1,0,0,0,1-1V40A1,1,0,0,0,61,39Zm-1,4H58V41h2Z"></path><path d="M54,41H52.414L51,39.586V36H49v4a1,1,0,0,0,.293.707l2,2A1,1,0,0,0,52,43h2Z"></path><rect x="15" y="13" width="2" height="2"></rect><rect x="19" y="13" width="2" height="2"></rect><rect x="23" y="13" width="2" height="2"></rect><rect x="27" y="13" width="2" height="2"></rect></g></svg>