<svg xmlns="http://www.w3.org/2000/svg" viewBox="0 0 64 64" x="0px" y="0px"><g><path d="M34,54H30a1,1,0,0,0,0,2h4a1,1,0,0,0,0-2Z"></path><path d="M39,10H50V8a4,4,0,0,0-4-4H18a4,4,0,0,0-4,4v4H25a3.009,3.009,0,0,1,3,3v8a3.009,3.009,0,0,1-3,3H22v3a.987.987,0,0,1-.62.92A.838.838,0,0,1,21,30a1.007,1.007,0,0,1-.71-.29L16.59,26H14v6H25a3.009,3.009,0,0,1,3,3v8a3.009,3.009,0,0,1-3,3H22v3a.987.987,0,0,1-.62.92A.838.838,0,0,1,21,50a1.007,1.007,0,0,1-.71-.29L16.59,46H14V56a4,4,0,0,0,4,4H46a4,4,0,0,0,4-4V44H47.41l-3.7,3.71A1.007,1.007,0,0,1,43,48a.838.838,0,0,1-.38-.08A.987.987,0,0,1,42,47V44H39a3.009,3.009,0,0,1-3-3V33a3.009,3.009,0,0,1,3-3H50V24H47.41l-3.7,3.71A1.007,1.007,0,0,1,43,28a.838.838,0,0,1-.38-.08A.987.987,0,0,1,42,27V24H39a3.009,3.009,0,0,1-3-3V13A3.009,3.009,0,0,1,39,10ZM27,8H25V6h2Zm2-2h6V8H29Zm8,49a3.009,3.009,0,0,1-3,3H30a3,3,0,0,1,0-6h4A3.009,3.009,0,0,1,37,55Z"></path><path d="M25,34H7a1,1,0,0,0-1,1v8a1,1,0,0,0,1,1H17a1.033,1.033,0,0,1,.71.29L20,46.59V45a1,1,0,0,1,1-1h4a1,1,0,0,0,1-1V35A1,1,0,0,0,25,34Zm-3,8H10V40H22Zm0-4H10V36H22Z"></path><path d="M25,14H7a1,1,0,0,0-1,1v8a1,1,0,0,0,1,1H17a1.033,1.033,0,0,1,.71.29L20,26.59V25a1,1,0,0,1,1-1h4a1,1,0,0,0,1-1V15A1,1,0,0,0,25,14ZM10,16h2v2H10Zm12,6H10V20H22Zm0-4H14V16h8Z"></path><path d="M57,32H39a1,1,0,0,0-1,1v8a1,1,0,0,0,1,1h4a1,1,0,0,1,1,1v1.59l2.29-2.3A1.033,1.033,0,0,1,47,42H57a1,1,0,0,0,1-1V33A1,1,0,0,0,57,32ZM42,34h2v2H42Zm12,6H42V38H54Zm0-4H46V34h8Z"></path><path d="M57,12H39a1,1,0,0,0-1,1v8a1,1,0,0,0,1,1h4a1,1,0,0,1,1,1v1.59l2.29-2.3A1.033,1.033,0,0,1,47,22H57a1,1,0,0,0,1-1V13A1,1,0,0,0,57,12Zm-3,8H42V18H54Zm0-4H42V14H54Z"></path></g></svg>