<svg xmlns="http://www.w3.org/2000/svg" viewBox="0 0 64 64" x="0px" y="0px"><g><rect x="6" y="26" width="16" height="2"></rect><rect x="6" y="22" width="6" height="2"></rect><rect x="14" y="22" width="6" height="2"></rect><rect x="6" y="32" width="10" height="2"></rect><rect x="18" y="32" width="16" height="2"></rect><rect x="6" y="36" width="16" height="2"></rect><rect x="24" y="36" width="10" height="2"></rect><rect x="6" y="40" width="28" height="2"></rect><rect x="6" y="44" width="10" height="2"></rect><rect x="18" y="44" width="6" height="2"></rect><rect x="26" y="44" width="8" height="2"></rect><rect x="6" y="48" width="8" height="2"></rect><rect x="16" y="48" width="18" height="2"></rect><path d="M59,2H29a3,3,0,0,0-3,3V16H5a3,3,0,0,0-3,3V59a3,3,0,0,0,3,3H35a3,3,0,0,0,3-3V48H59a3,3,0,0,0,3-3V5A3,3,0,0,0,59,2ZM54,4h2V6.764l-.1-.211a1.042,1.042,0,0,0-1.79,0l-.1.211ZM30,18h2v2.764l-.105-.211a1.042,1.042,0,0,0-1.79,0L30,20.764Zm6,41a1,1,0,0,1-1,1H5a1,1,0,0,1-1-1V19a1,1,0,0,1,1-1H28v7a1,1,0,0,0,1.895.447L31,23.236l1.1,2.211A1,1,0,0,0,34,25V18h1a1,1,0,0,1,1,1ZM60,45a1,1,0,0,1-1,1H38V19a3,3,0,0,0-3-3H28V5a1,1,0,0,1,1-1H52v7a1,1,0,0,0,1.9.447L55,9.236l1.1,2.211A1,1,0,0,0,58,11V4h1a1,1,0,0,1,1,1Z"></path><rect x="30" y="12" width="16" height="2"></rect><rect x="30" y="8" width="6" height="2"></rect><rect x="38" y="8" width="6" height="2"></rect><rect x="40" y="18" width="18" height="2"></rect><rect x="48" y="22" width="10" height="2"></rect><rect x="40" y="26" width="18" height="2"></rect><rect x="40" y="30" width="8" height="2"></rect><rect x="50" y="30" width="8" height="2"></rect><rect x="40" y="34" width="18" height="2"></rect><rect x="40" y="22" width="6" height="2"></rect></g></svg>