<svg xmlns="http://www.w3.org/2000/svg" viewBox="0 0 64 64" x="0px" y="0px"><title>Sock</title><g><path d="M55,2H21a3,3,0,0,0-3,3V19a3,3,0,0,0,3,3v9.769C10.2,33.89,3,39.945,3,47c0,8.822,11.663,16,26,16s26-7.178,26-16V22a3,3,0,0,0,3-3V5A3,3,0,0,0,55,2ZM53,47c0,7.72-10.767,14-24,14S5,54.72,5,47c0-6.131,7.062-11.648,17.172-13.415A1,1,0,0,0,23,32.6V22H53Zm3-28a1,1,0,0,1-1,1H21a1,1,0,0,1-1-1V5a1,1,0,0,1,1-1H55a1,1,0,0,1,1,1Z"></path><path d="M41.464,10A1,1,0,0,0,40.1,9.634l-1.1.634V9a1,1,0,0,0-2,0v1.268l-1.1-.634a1,1,0,0,0-1,1.732L36,12l-1.1.634a1,1,0,1,0,1,1.732l1.1-.634V15a1,1,0,0,0,2,0V13.732l1.1.634a1,1,0,0,0,1-1.732L40,12l1.1-.634A1,1,0,0,0,41.464,10Z"></path><path d="M51.464,10A1,1,0,0,0,50.1,9.634l-1.1.634V9a1,1,0,0,0-2,0v1.268l-1.1-.634a1,1,0,1,0-1,1.732L46,12l-1.1.634a1,1,0,1,0,1,1.732l1.1-.634V15a1,1,0,0,0,2,0V13.732l1.1.634a1,1,0,0,0,1-1.732L50,12l1.1-.634A1,1,0,0,0,51.464,10Z"></path><path d="M31.464,10A1,1,0,0,0,30.1,9.634l-1.1.634V9a1,1,0,0,0-2,0v1.268l-1.1-.634a1,1,0,0,0-1,1.732L26,12l-1.1.634a1,1,0,1,0,1,1.732l1.1-.634V15a1,1,0,0,0,2,0V13.732l1.1.634a1,1,0,1,0,1-1.732L30,12l1.1-.634A1,1,0,0,0,31.464,10Z"></path><path d="M29,29a.99.99,0,1,0-.71-.29A1.052,1.052,0,0,0,29,29Z"></path><path d="M44.62,26.92A1,1,0,0,0,45,27a1,1,0,1,0-.38-1.92.933.933,0,0,0-.33.21,1.014,1.014,0,0,0,0,1.42A1.032,1.032,0,0,0,44.62,26.92Z"></path><path d="M39.29,36.71a1.7,1.7,0,0,0,.149.12.782.782,0,0,0,.181.09.636.636,0,0,0,.18.06A1.487,1.487,0,0,0,40,37a1.2,1.2,0,0,0,.189-.02.609.609,0,0,0,.191-.06.568.568,0,0,0,.17-.09.628.628,0,0,0,.15-.12.99.99,0,0,0,0-1.42,1.035,1.035,0,0,0-.15-.12.568.568,0,0,0-.17-.09.609.609,0,0,0-.191-.06.852.852,0,0,0-.389,0,.636.636,0,0,0-.18.06.782.782,0,0,0-.181.09l-.149.12a1.032,1.032,0,0,0-.21.33.943.943,0,0,0,0,.76A.933.933,0,0,0,39.29,36.71Z"></path><path d="M29.29,45.29A1,1,0,0,0,30,47a1.2,1.2,0,0,0,.189-.02.609.609,0,0,0,.191-.06.568.568,0,0,0,.17-.09,1.035,1.035,0,0,0,.15-.12A1.038,1.038,0,0,0,31,46a1.017,1.017,0,0,0-.3-.71,1.035,1.035,0,0,0-.15-.12.568.568,0,0,0-.17-.09.609.609,0,0,0-.191-.06A1,1,0,0,0,29.29,45.29Z"></path><path d="M27.08,39.38a.757.757,0,0,0,.09.18,1.576,1.576,0,0,0,.12.15,1.7,1.7,0,0,0,.149.12.782.782,0,0,0,.181.09.636.636,0,0,0,.18.06A1.487,1.487,0,0,0,28,40a1,1,0,1,0-1-1,1.5,1.5,0,0,0,.02.2A.636.636,0,0,0,27.08,39.38Z"></path><path d="M17.29,40.29a1,1,0,1,0,1.42,0A1.047,1.047,0,0,0,17.29,40.29Z"></path><path d="M13.92,48.62a.8.8,0,0,0-.09-.18l-.12-.15a1.01,1.01,0,0,0-.91-.27.636.636,0,0,0-.18.06.782.782,0,0,0-.181.09l-.149.12a1.576,1.576,0,0,0-.12.15.757.757,0,0,0-.09.18.636.636,0,0,0-.06.18A1.355,1.355,0,0,0,12,49a1,1,0,0,0,.08.38,1.032,1.032,0,0,0,.21.33l.149.12a.782.782,0,0,0,.181.09.636.636,0,0,0,.18.06A1.355,1.355,0,0,0,13,50a1.2,1.2,0,0,0,.189-.02.609.609,0,0,0,.191-.06.568.568,0,0,0,.17-.09c.059-.04.11-.08.16-.12a1.032,1.032,0,0,0,.21-.33A1,1,0,0,0,14,49a1.234,1.234,0,0,0-.021-.2A.6.6,0,0,0,13.92,48.62Z"></path><path d="M22.29,55.29a1.155,1.155,0,0,0-.21.33A1,1,0,0,0,22,56a1.047,1.047,0,0,0,.29.71l.149.12a.782.782,0,0,0,.181.09.636.636,0,0,0,.18.06A1.487,1.487,0,0,0,23,57a.99.99,0,0,0,1-1,1,1,0,0,0-.08-.38,1.032,1.032,0,0,0-.21-.33A1.047,1.047,0,0,0,22.29,55.29Z"></path><path d="M33,54a1.052,1.052,0,0,0,.71-.29A1.033,1.033,0,0,0,34,53a1,1,0,0,0-.08-.38.933.933,0,0,0-.21-.33A1,1,0,1,0,33,54Z"></path><path d="M42.62,53.92A1,1,0,0,0,43,54a1,1,0,0,0,.71-1.71,1,1,0,0,0-1.09-.21,1.032,1.032,0,0,0-.33.21,1.014,1.014,0,0,0,0,1.42A1.032,1.032,0,0,0,42.62,53.92Z"></path><path d="M43,44a1.052,1.052,0,0,0,.71-.29A1.033,1.033,0,0,0,44,43a1.052,1.052,0,0,0-.29-.71,1.017,1.017,0,0,0-1.09-.21,1.032,1.032,0,0,0-.33.21A1,1,0,0,0,43,44Z"></path><path d="M48.29,33.71l.149.12a.782.782,0,0,0,.181.09.942.942,0,0,0,.76,0,1.169,1.169,0,0,0,.33-.21,1.155,1.155,0,0,0,.21-.33A1,1,0,0,0,50,33a1.052,1.052,0,0,0-.29-.71,1.169,1.169,0,0,0-.33-.21.956.956,0,0,0-.76,0,.782.782,0,0,0-.181.09,1.7,1.7,0,0,0-.149.12A1.047,1.047,0,0,0,48,33a1,1,0,0,0,.08.38A1.155,1.155,0,0,0,48.29,33.71Z"></path></g></svg>