<svg xmlns="http://www.w3.org/2000/svg" viewBox="0 0 64 64" x="0px" y="0px"><g><path d="M48,6H60V5a1,1,0,0,0-1-1H49a1,1,0,0,0-1,1Z"></path><path d="M49,16H59a1,1,0,0,0,1-1V8H48v7A1,1,0,0,0,49,16Zm6-5h2v2H55Zm-4,0h2v2H51Z"></path><path d="M4,6H16V5a1,1,0,0,0-1-1H5A1,1,0,0,0,4,5Z"></path><path d="M5,16H15a1,1,0,0,0,1-1V8H4v7A1,1,0,0,0,5,16Zm6-5h2v2H11ZM7,11H9v2H7Z"></path><path d="M48,50H60V49a1,1,0,0,0-1-1H49a1,1,0,0,0-1,1Z"></path><path d="M49,60H59a1,1,0,0,0,1-1V52H48v7A1,1,0,0,0,49,60Zm6-5h2v2H55Zm-4,0h2v2H51Z"></path><path d="M4,50H16V49a1,1,0,0,0-1-1H5a1,1,0,0,0-1,1Z"></path><path d="M5,60H15a1,1,0,0,0,1-1V52H4v7A1,1,0,0,0,5,60Zm6-5h2v2H11ZM7,55H9v2H7Z"></path><circle cx="36" cy="36" r="1"></circle><path d="M44.637,35a12.578,12.578,0,0,0,0-6H42V27h2A13,13,0,0,0,20,27h2v2H19.363a12.578,12.578,0,0,0,0,6H22v2H20A13,13,0,0,0,44,37H42V35ZM28,25a3,3,0,1,1-3,3A3,3,0,0,1,28,25ZM26.707,38.707l-1.414-1.414,12-12,1.414,1.414ZM36,39a3,3,0,1,1,3-3A3,3,0,0,1,36,39Z"></path><circle cx="28" cy="28" r="1"></circle><path d="M55,20v4a1.033,1.033,0,0,1-.29.71l-4,4A1.033,1.033,0,0,1,50,29H44.65A12.3,12.3,0,0,0,44,27h5.59L53,23.59V20Z"></path><path d="M55,40v4H53V40.41L49.59,37H44a12.3,12.3,0,0,0,.65-2H50a1.033,1.033,0,0,1,.71.29l4,4A1.033,1.033,0,0,1,55,40Z"></path><path d="M20,27a12.3,12.3,0,0,0-.65,2H14a1.033,1.033,0,0,1-.71-.29l-4-4A1.033,1.033,0,0,1,9,24V20h2v3.59L14.41,27Z"></path><path d="M20,37H14.41L11,40.41V44H9V40a1.033,1.033,0,0,1,.29-.71l4-4A1.033,1.033,0,0,1,14,35h5.35A12.3,12.3,0,0,0,20,37Z"></path></g></svg>