<svg xmlns="http://www.w3.org/2000/svg" viewBox="0 0 64 64" x="0px" y="0px"><g><polygon points="42 58 22 58 22 60 18 60 18 62 46 62 46 60 42 60 42 58"></polygon><polygon points="25.883 50 25.133 56 38.867 56 38.117 50 25.883 50"></polygon><path d="M4,42v3a3.009,3.009,0,0,0,3,3H57a3.009,3.009,0,0,0,3-3V42Zm53,4H55V44h2Z"></path><path d="M57,12H45.97l-1.39,1.85a14.937,14.937,0,0,1,.66,1.6l3.9.56A1,1,0,0,1,50,17v4H48V17.87l-3.67-.53a.987.987,0,0,1-.82-.71,12.353,12.353,0,0,0-.98-2.39,1.023,1.023,0,0,1,.07-1.09l2.22-2.96L41.81,7.18,38.84,9.4a1.006,1.006,0,0,1-1.08.08,12.021,12.021,0,0,0-2.39-.99.987.987,0,0,1-.71-.82L34.13,4H29.87l-.53,3.67a.987.987,0,0,1-.71.82,12.021,12.021,0,0,0-2.39.99,1.026,1.026,0,0,1-1.08-.08L22.19,7.18l-3.01,3.01,2.22,2.96a1.023,1.023,0,0,1,.07,1.09,12.353,12.353,0,0,0-.98,2.39.987.987,0,0,1-.82.71L16,17.87V21H14V17a1,1,0,0,1,.86-.99l3.9-.56a14.937,14.937,0,0,1,.66-1.6L18,11.96V12H7a3.009,3.009,0,0,0-3,3V40H60V15A3.009,3.009,0,0,0,57,12ZM41.19,9.39l1.42,1.42-1.42,1.41-1.41-1.41ZM31,6h2V8H31Zm1,6a8.011,8.011,0,0,1,8,8H38a6,6,0,0,0-12,0H24A8.011,8.011,0,0,1,32,12ZM21.39,10.81l1.42-1.42,1.41,1.42-1.41,1.41ZM44.72,30h3.47a1,1,0,0,1,.87.5.993.993,0,0,1,0,1,6.994,6.994,0,0,1-11.8.5H26.74a6.994,6.994,0,0,1-11.8-.5.993.993,0,0,1,0-1,1,1,0,0,1,.87-.5h3.47l.67-2-.67-2H15.81a1,1,0,0,1-.87-.5.993.993,0,0,1,0-1,6.994,6.994,0,0,1,11.8-.5H37.26a6.994,6.994,0,0,1,11.8.5.993.993,0,0,1,0,1,1,1,0,0,1-.87.5H44.72l-.67,2Z"></path><path d="M43.052,24.684A1,1,0,0,1,44,24h1.99a4.983,4.983,0,0,0-7.315,1.5,1,1,0,0,1-.865.5H26.19a1,1,0,0,1-.865-.5A4.983,4.983,0,0,0,18.01,24H20a1,1,0,0,1,.948.684l1,3a.977.977,0,0,1,0,.632l-1,3A1,1,0,0,1,20,32H18.01a4.983,4.983,0,0,0,7.315-1.5,1,1,0,0,1,.865-.5H37.81a1,1,0,0,1,.865.5A4.983,4.983,0,0,0,45.99,32H44a1,1,0,0,1-.948-.684l-1-3a.977.977,0,0,1,0-.632Z"></path></g></svg>