<svg xmlns="http://www.w3.org/2000/svg" viewBox="0 0 64 64" x="0px" y="0px"><title>Presentaion award</title><g data-name="Presentaion award"><path d="M23,24h1v2a3,3,0,0,0,3,3h4v6H27v4H25v2H39V39H37V35H33V29h4a3,3,0,0,0,3-3V24h1a3,3,0,0,0,3-3V16H40V15H24v1H20v5A3,3,0,0,0,23,24ZM35,39H29V37h6Zm7-21v3a1,1,0,0,1-1,1H40V18Zm-4,8a1,1,0,0,1-1,1H27a1,1,0,0,1-1-1V17H38ZM22,18h2v4H23a1,1,0,0,1-1-1Z"></path><polygon points="42 28 43.586 28 48.293 32.707 49.707 31.293 44.414 26 42 26 42 28"></polygon><rect x="50" y="33" width="4" height="2"></rect><rect x="50" y="37" width="4" height="2"></rect><rect x="10" y="20" width="2" height="2"></rect><rect x="14" y="20" width="4" height="2"></rect><rect x="10" y="24" width="8" height="2"></rect><path d="M62,12V6H36V2H28V6H2v6H4V44H2v6H28v6H21v6H43V56H36V50H62V44H60V12ZM30,4h4V6H30ZM4,8H60v2H4ZM41,58v2H23V58Zm-7-2H30V50h4Zm26-8H4V46H60Zm-2-4H6V12H58Z"></path></g></svg>