<svg xmlns="http://www.w3.org/2000/svg" viewBox="0 0 64 64" x="0px" y="0px"><g data-name="Time Management-Tablet-Time-Schedule-Clock"><path d="M51,2H13A5.006,5.006,0,0,0,8,7V57a5.006,5.006,0,0,0,5,5H51a5.006,5.006,0,0,0,5-5V7A5.006,5.006,0,0,0,51,2Zm3,55a3,3,0,0,1-3,3H13a3,3,0,0,1-3-3V7a3,3,0,0,1,3-3H51a3,3,0,0,1,3,3Z"></path><path d="M50,6H14a2,2,0,0,0-2,2V48a2,2,0,0,0,2,2H50a2,2,0,0,0,2-2V8A2,2,0,0,0,50,6Zm0,42H14V8H50Z"></path><path d="M34,52H30a3,3,0,0,0,0,6h4a3,3,0,0,0,0-6Zm0,4H30a1,1,0,0,1,0-2h4a1,1,0,0,1,0,2Z"></path><path d="M32,39A11,11,0,1,0,21,28,11.013,11.013,0,0,0,32,39ZM23.059,27a8.956,8.956,0,0,1,1.916-4.611l1.368,1.368,1.414-1.414-1.368-1.368A8.956,8.956,0,0,1,31,19.059V21h2V19.059a8.956,8.956,0,0,1,4.611,1.916l-1.368,1.368,1.414,1.414,1.368-1.368A8.956,8.956,0,0,1,40.941,27H39v2h1.941a8.956,8.956,0,0,1-1.916,4.611l-1.368-1.368-1.414,1.414,1.368,1.368A8.956,8.956,0,0,1,33,36.941V35H31v1.941a8.956,8.956,0,0,1-4.611-1.916l1.368-1.368-1.414-1.414-1.368,1.368A8.956,8.956,0,0,1,23.059,29H25V27Z"></path><path d="M32.707,28.707A1,1,0,0,0,33,28V23H31v4.586l-1.707,1.707,1.414,1.414Z"></path><path d="M32,43A15,15,0,1,0,17,28,15.017,15.017,0,0,0,32,43Zm0-28A13,13,0,1,1,19,28,13.015,13.015,0,0,1,32,15Z"></path></g></svg>