<svg xmlns="http://www.w3.org/2000/svg" viewBox="0 0 64 64" x="0px" y="0px"><title>Algorithm-Coding-Code-Chart-Laptop</title><g><path d="M50,5a1,1,0,0,0-1-1H15a1,1,0,0,0-1,1V8H50ZM18,7H16V5h2Zm4,0H20V5h2Zm4,0H24V5h2Z"></path><path d="M24,27v4a1,1,0,0,1-1,1H21v2h7V33a1,1,0,0,1,1-1h2V27.414L28.586,25H21v1h2A1,1,0,0,1,24,27Z"></path><rect x="18" y="28" width="4" height="2"></rect><path d="M14,39a1,1,0,0,0,1,1H49a1,1,0,0,0,1-1V10H14Zm2-12a1,1,0,0,1,1-1h2V24a1,1,0,0,1,1-1h8.586L31,20.586V18H28a1,1,0,0,1-1-1V13a1,1,0,0,1,1-1h8a1,1,0,0,1,1,1v4a1,1,0,0,1-1,1H33v2.586L35.414,23H44a1,1,0,0,1,1,1v2h2a1,1,0,0,1,1,1v4a1,1,0,0,1-1,1H45v3a1,1,0,0,1-1,1H36v1a1,1,0,0,1-1,1H29a1,1,0,0,1-1-1V36H20a1,1,0,0,1-1-1V32H17a1,1,0,0,1-1-1Z"></path><path d="M11,14a1,1,0,0,0-1,1V44H54V15a1,1,0,0,0-1-1H52V39a3,3,0,0,1-3,3H15a3,3,0,0,1-3-3V14Z"></path><rect x="30.879" y="22.879" width="2.243" height="2.243" transform="translate(-7.598 29.657) rotate(-45)"></rect><rect x="42" y="28" width="4" height="2"></rect><rect x="29" y="14" width="6" height="2"></rect><path d="M33,32h2a1,1,0,0,1,1,1v1h7V32H41a1,1,0,0,1-1-1V27a1,1,0,0,1,1-1h2V25H35.414L33,27.414Z"></path><polygon points="26.618 54 25.618 56 38.382 56 37.382 54 26.618 54"></polygon><rect x="30" y="34" width="4" height="2"></rect><rect x="4" y="58" width="56" height="2"></rect><path d="M23.382,56l1.723-3.447A1,1,0,0,1,26,52H38a1,1,0,0,1,.9.553L40.618,56H59.382l-5-10H9.618l-5,10ZM54,54H52V52h2Zm-3-6h2v2H51Zm-1,6H48V52h2Zm-3-6h2v2H47Zm-4,0h2v2H43Zm-1,4h4v2H42Zm-3-4h2v2H39Zm-4,0h2v2H35Zm-4,0h2v2H31Zm-4,0h2v2H27Zm-4,0h2v2H23Zm-4,0h2v2H19Zm-1,4h4v2H18Zm-3-4h2v2H15Zm-1,4h2v2H14Zm-3-4h2v2H11Zm-1,4h2v2H10Z"></path></g></svg>