<svg xmlns="http://www.w3.org/2000/svg" viewBox="0 0 64 64" x="0px" y="0px"><g data-name="Alternative Medicine"><path d="M36,16v-.94L34.68,16H33V3H31v9H29.32L28,11.06V12H25.89l2.53,1.81A1,1,0,0,0,29,14h2V25h2V18h2a1,1,0,0,0,.58-.19L38.11,16Z"></path><path d="M21,4H16V5a7.009,7.009,0,0,0,7,7h2.88L21.419,8.813l1.162-1.626L28,11.057V11A7.009,7.009,0,0,0,21,4Z"></path><path d="M48,8H43a7.009,7.009,0,0,0-7,7v.057l5.419-3.87,1.162,1.626L38.12,16H41a7.009,7.009,0,0,0,7-7Z"></path><path d="M31,25H28a1,1,0,0,0,0,2h3Z"></path><path d="M43.066,55.958,38.232,42.906a7.409,7.409,0,0,0-2.9-.506,7.352,7.352,0,0,0-2.33.315V56H31V43.354a10.038,10.038,0,0,1-2.34.246,9.36,9.36,0,0,1-2.991-.427L20.934,55.958A3,3,0,0,0,23.747,60H40.253a3,3,0,0,0,2.813-4.042Z"></path><path d="M33,40.645a9.977,9.977,0,0,1,2.33-.245,10.407,10.407,0,0,1,2.042.183l-2.31-6.235A1.013,1.013,0,0,1,35,34V29H33Z"></path><path d="M33,25v2h3a1,1,0,0,0,0-2Z"></path><path d="M28.937,34.348l-2.572,6.946a7.376,7.376,0,0,0,2.3.306A7.4,7.4,0,0,0,31,41.284V29H29v5A.991.991,0,0,1,28.937,34.348Z"></path></g></svg>