<svg xmlns="http://www.w3.org/2000/svg" viewBox="0 0 64 64" x="0px" y="0px"><g data-name="Payment-Smartphone-Truck-Online Payment-Banking"><path d="M15,33A11,11,0,1,0,4,22,11.013,11.013,0,0,0,15,33Zm0-20a9,9,0,1,1-9,9A9.011,9.011,0,0,1,15,13Z"></path><rect x="28" y="16" width="2" height="2"></rect><rect x="32" y="16" width="4" height="2"></rect><rect x="28" y="20" width="8" height="2"></rect><path d="M16,25H14a1,1,0,0,1-1-1H11a3,3,0,0,0,3,3v2h2V27a3,3,0,0,0,0-6H14a1,1,0,0,1,0-2h2a1,1,0,0,1,1,1h2a3,3,0,0,0-3-3V15H14v2a3,3,0,0,0,0,6h2a1,1,0,0,1,0,2Z"></path><rect x="18" y="52" width="8" height="2"></rect><rect x="14" y="52" width="2" height="2"></rect><rect x="20" y="48" width="6" height="2"></rect><rect x="22" y="44" width="4" height="2"></rect><rect x="16" y="48" width="2" height="2"></rect><rect x="51.995" y="52.006" width="2" height="2"></rect><rect x="36.995" y="51.994" width="2" height="2"></rect><path d="M61.665,44.263l-8.99-8a1,1,0,0,0-.665-.253H49V27a1,1,0,0,0-1-1H40V7a5.006,5.006,0,0,0-5-5H7A5.006,5.006,0,0,0,2,7V57a5.006,5.006,0,0,0,5,5H35a4.989,4.989,0,0,0,4.939-4.4A5.016,5.016,0,0,0,42.893,54l5.2,0a5.006,5.006,0,0,0,4.894,4h0a5.007,5.007,0,0,0,4.9-4h1.1a3.009,3.009,0,0,0,3.01-3v-6A1,1,0,0,0,61.665,44.263ZM53.008,41.01H55l3.372,3H53ZM47,37v7H30V28H47ZM14,4H28V6H14ZM35,60H7a3,3,0,0,1-3-3V7A3,3,0,0,1,7,4h5V6a2,2,0,0,0,2,2H28a2,2,0,0,0,2-2V4h5a3,3,0,0,1,3,3V26H29a1,1,0,0,0-1,1V50.99a3,3,0,0,0,2.99,3H33.1a5,5,0,0,0,4.728,3.987A3,3,0,0,1,35,60Zm5.114-4.883a2.981,2.981,0,0,1-2.119.877h0a3,3,0,0,1,0-6h0a3,3,0,0,1,2.117,5.123Zm15,.012A2.977,2.977,0,0,1,53,56.006h0a3,3,0,0,1,0-6h0a3,3,0,0,1,2.117,5.123ZM58.99,52.01H57.9a5.011,5.011,0,0,0-4.9-4h-.005a5.007,5.007,0,0,0-4.9,4l-5.2,0a5.009,5.009,0,0,0-4.9-4h-.005a5.007,5.007,0,0,0-4.9,4H30.99a1,1,0,0,1-.99-1V46H48a1,1,0,0,0,1-1V38.01h2.629l1.15,1.023a2,2,0,0,0-1.771,1.972l-.008,3a2,2,0,0,0,2,2h7v5A1.019,1.019,0,0,1,58.99,52.01Z"></path><path d="M40,39H38a1,1,0,0,1-1-1H35a3,3,0,0,0,3,3v2h2V41a3,3,0,0,0,0-6H38a1,1,0,0,1,0-2h2a1,1,0,0,1,1,1h2a3,3,0,0,0-3-3V29H38v2a3,3,0,0,0,0,6h2a1,1,0,0,1,0,2Z"></path></g></svg>