<svg xmlns="http://www.w3.org/2000/svg" viewBox="0 0 64 64" x="0px" y="0px"><g><path d="M28,14.1V4H27a1,1,0,0,0-1,1v9h1A5,5,0,0,1,28,14.1Z"></path><rect x="13" y="16" width="8" height="2"></rect><path d="M32,19v3H56V4H30V15.026A4.977,4.977,0,0,1,32,19ZM32,8a1,1,0,0,1,1-1H53a1,1,0,0,1,1,1V18a1,1,0,0,1-1,1H33a1,1,0,0,1-1-1Z"></path><path d="M17,29a9,9,0,1,0,9,9A9.01,9.01,0,0,0,17,29ZM13.379,39.805A1,1,0,0,1,11.8,38.576a.935.935,0,0,0,.034-1.121,1,1,0,1,1,1.65-1.131A2.942,2.942,0,0,1,13.379,39.805ZM15,42a1,1,0,0,1-.8-1.6,3.988,3.988,0,0,0,.128-4.612,1,1,0,1,1,1.662-1.111A5.992,5.992,0,0,1,15.8,41.6,1,1,0,0,1,15,42Zm2.4,1.8a1,1,0,0,1-.8-1.6,7.02,7.02,0,0,0,.226-8.087,1,1,0,0,1,1.666-1.107A9.02,9.02,0,0,1,18.2,43.4,1,1,0,0,1,17.4,43.8Zm3.2,1.4A1,1,0,0,1,19,44a10,10,0,0,0,.318-11.544,1,1,0,1,1,1.664-1.109A12,12,0,0,1,20.6,45.2Z"></path><path d="M30,19a3,3,0,0,0-3-3H23v2a2,2,0,0,1-2,2H13a2,2,0,0,1-2-2V16H7a3,3,0,0,0-3,3V57a3,3,0,0,0,3,3H27a3,3,0,0,0,3-3ZM17,49A11,11,0,1,1,28,38,11.013,11.013,0,0,1,17,49Z"></path><path d="M52,9H34v8H52ZM40,14H38V12h2Zm4,0H42V12h2Zm4,0H46V12h2Z"></path><path d="M60,43V5a1,1,0,0,0-1-1H58V23a1,1,0,0,1-1,1H32V44H59A1,1,0,0,0,60,43ZM39.379,35.805A1,1,0,0,1,37.8,34.576a.935.935,0,0,0,.034-1.121,1,1,0,1,1,1.65-1.131A2.942,2.942,0,0,1,39.379,35.805ZM41,38a1,1,0,0,1-.8-1.6,3.988,3.988,0,0,0,.128-4.612,1,1,0,1,1,1.662-1.111A5.992,5.992,0,0,1,41.8,37.6,1,1,0,0,1,41,38Zm2.4,1.8a1,1,0,0,1-.8-1.6,7.02,7.02,0,0,0,.226-8.087,1,1,0,0,1,1.666-1.107A9.02,9.02,0,0,1,44.2,39.4,1,1,0,0,1,43.4,39.8Zm3.2,1.4A1,1,0,0,1,45,40a10,10,0,0,0,.318-11.544,1,1,0,1,1,1.664-1.109A12,12,0,0,1,46.6,41.2Z"></path></g></svg>