<svg xmlns="http://www.w3.org/2000/svg" viewBox="0 0 64 64" x="0px" y="0px"><g data-name="Meter-Water Meter-Water-Measurement-Gauge"><path d="M32,16A16,16,0,1,0,48,32,16.019,16.019,0,0,0,32,16Zm0,30A14,14,0,1,1,46,32,14.015,14.015,0,0,1,32,46Z"></path><path d="M41,25H23a1,1,0,0,0-1,1v4a1,1,0,0,0,1,1H41a1,1,0,0,0,1-1V26A1,1,0,0,0,41,25Zm-1,4H24V27H40Z"></path><path d="M38,35.184V33H36v2.184a3,3,0,1,0,2,0ZM37,39a1,1,0,1,1,1-1A1,1,0,0,1,37,39Z"></path><rect x="22" y="33" width="2" height="2"></rect><rect x="26" y="33" width="2" height="2"></rect><rect x="30" y="33" width="2" height="2"></rect><rect x="22" y="37" width="2" height="2"></rect><rect x="26" y="37" width="2" height="2"></rect><rect x="30" y="37" width="2" height="2"></rect><rect x="31" y="21" width="2" height="2"></rect><rect x="35" y="21" width="2" height="2"></rect><rect x="27" y="21" width="2" height="2"></rect><path d="M61,22H55a1,1,0,0,0-1,1v1H50.32a19.984,19.984,0,0,0-36.64,0H10V23a1,1,0,0,0-1-1H3a1,1,0,0,0-1,1V41a1,1,0,0,0,1,1H9a1,1,0,0,0,1-1V40h3.68a19.984,19.984,0,0,0,36.64,0H54v1a1,1,0,0,0,1,1h6a1,1,0,0,0,1-1V23A1,1,0,0,0,61,22ZM8,40H4V24H8Zm4.92-2H10V26h2.92a20.025,20.025,0,0,0,0,12ZM32,50A18,18,0,1,1,50,32,18.014,18.014,0,0,1,32,50ZM54,38H51.08a20.025,20.025,0,0,0,0-12H54Zm6,2H56V24h4Z"></path></g></svg>