<svg xmlns="http://www.w3.org/2000/svg" viewBox="0 0 64 64" x="0px" y="0px"><g><polygon points="54.434 38 26.766 38 31.566 46 59.234 46 54.434 38"></polygon><path d="M54,48H31a1,1,0,0,1-.857-.485L26,40.61V60H54ZM46,58H44V56h2Zm6,0H48V56h4Z"></path><rect x="10" y="38" width="14" height="22"></rect><polygon points="8 40.61 4.766 46 8 46 8 40.61"></polygon><circle cx="32" cy="19" r="5"></circle><path d="M25.794,27.592a1,1,0,0,1,1.07-.025,9.873,9.873,0,0,0,2.71,1.123,1,1,0,0,1,.738.774L30.82,32h2.36l.508-2.536a1,1,0,0,1,.738-.774,9.873,9.873,0,0,0,2.71-1.123,1,1,0,0,1,1.07.025l2.152,1.435,1.669-1.669-1.435-2.152a1,1,0,0,1-.025-1.07,9.922,9.922,0,0,0,1.123-2.71,1,1,0,0,1,.774-.738L45,20.18V17.82l-2.536-.508a1,1,0,0,1-.774-.738,9.873,9.873,0,0,0-1.123-2.71,1,1,0,0,1,.025-1.07l1.435-2.152L40.358,8.973l-2.152,1.435a1,1,0,0,1-1.07.025,9.873,9.873,0,0,0-2.71-1.123,1,1,0,0,1-.738-.774L33.18,6H30.82l-.508,2.536a1,1,0,0,1-.738.774,9.873,9.873,0,0,0-2.71,1.123,1,1,0,0,1-1.07-.025L23.642,8.973l-1.669,1.669,1.435,2.152a1,1,0,0,1,.025,1.07,9.873,9.873,0,0,0-1.123,2.71,1,1,0,0,1-.774.738L19,17.82v2.36l2.536.508a1,1,0,0,1,.774.738,9.922,9.922,0,0,0,1.123,2.71,1,1,0,0,1-.025,1.07l-1.435,2.152,1.669,1.669ZM32,12a7,7,0,1,1-7,7A7.008,7.008,0,0,1,32,12Z"></path><path d="M52,17a1,1,0,0,0,.707-.293l3-3-1.414-1.414L53,13.586V6H51v7.586l-1.293-1.293-1.414,1.414,3,3A1,1,0,0,0,52,17Z"></path><rect x="51" y="2" width="2" height="2"></rect><path d="M12,17a1,1,0,0,0,.707-.293l3-3-1.414-1.414L13,13.586V6H11v7.586L9.707,12.293,8.293,13.707l3,3A1,1,0,0,0,12,17Z"></path><rect x="11" y="2" width="2" height="2"></rect><rect x="11" y="20" width="2" height="6"></rect><rect x="11" y="28" width="2" height="2"></rect><rect x="11" y="32" width="2" height="2"></rect><rect x="5" y="18" width="2" height="4"></rect><rect x="5" y="24" width="2" height="2"></rect><rect x="5" y="28" width="2" height="2"></rect><rect x="51" y="20" width="2" height="6"></rect><rect x="51" y="28" width="2" height="2"></rect><rect x="51" y="32" width="2" height="2"></rect><rect x="57" y="18" width="2" height="4"></rect><rect x="57" y="24" width="2" height="2"></rect><rect x="57" y="28" width="2" height="2"></rect></g></svg>