<svg xmlns="http://www.w3.org/2000/svg" viewBox="0 0 64 64" x="0px" y="0px"><title>Hospital_1</title><g><rect x="24" y="24" width="16" height="2"></rect><rect x="24" y="30" width="16" height="2"></rect><rect x="24" y="36" width="16" height="2"></rect><polygon points="33 6 31 6 31 8 29 8 29 10 31 10 31 12 33 12 33 10 35 10 35 8 33 8 33 6"></polygon><path d="M59,60V32h1a1,1,0,0,0,1-1V27a1,1,0,0,0-1-1H47V20h2a1,1,0,0,0,1-1V15a1,1,0,0,0-1-1H47V3a1,1,0,0,0-1-1H18a1,1,0,0,0-1,1V14H15a1,1,0,0,0-1,1v4a1,1,0,0,0,1,1h2v6H4a1,1,0,0,0-1,1v4a1,1,0,0,0,1,1H5V60H2v2H62V60Zm0-32v2H47V28ZM19,4H45V14H19ZM16,16H48v2H16ZM5,28H17v2H5ZM7,56h6V54H7V50h6V48H7V44h6V42H7V38h6V36H7V32H17V60H7ZM19,20H45V60H40V43a1,1,0,0,0-1-1H25a1,1,0,0,0-1,1V60H19Zm7,24h5V60H26Zm7,16V44h5V60Zm14,0V32H57v4H51v2h6v4H51v2h6v4H51v2h6v4H51v2h6v4Z"></path></g></svg>