<svg xmlns="http://www.w3.org/2000/svg" viewBox="0 0 64 64" x="0px" y="0px"><g data-name="Solar Energy"><path d="M61.944,56.669l-7-20A1,1,0,0,0,54,36H10a1,1,0,0,0-.944.669l-7,20A1.014,1.014,0,0,0,2,57v4a1,1,0,0,0,1,1H61a1,1,0,0,0,1-1V57A1.014,1.014,0,0,0,61.944,56.669ZM57.14,49H47.03l-1.25-5h9.61ZM44.97,49H33V44H43.72ZM33,42V38h9.22l1,4Zm-2,0H20.78l1-4H31Zm0,2v5H19.03l1.25-5ZM16.97,49H6.86l1.75-5h9.61Zm-.5,2-1.25,5H4.409L6.16,51Zm2.06,0H31v5H17.28ZM33,51H45.47l1.25,5H33Zm15.78,5-1.25-5H57.84l1.751,5Zm5.91-14H45.28l-1-4h9.01ZM10.71,38h9.01l-1,4H9.31ZM4,60V58H60v2Z"></path><path d="M4.64,31H59.36a1,1,0,0,0,.585-1.812L53.188,24.32l3.42-7.593a1,1,0,0,0-.812-1.406l-8.287-.829L46.68,6.2a1,1,0,0,0-1.406-.812L37.681,8.811,32.812,2.056a1.037,1.037,0,0,0-1.624,0L26.32,8.811,18.726,5.392A1,1,0,0,0,17.32,6.2l-.829,8.287L8.2,15.32a1,1,0,0,0-.812,1.406l3.42,7.594L4.055,29.188A1,1,0,0,0,4.64,31Zm12.411-2a14.981,14.981,0,0,1,29.9,0Zm-4.407-3.535a1,1,0,0,0,.327-1.222L9.786,17.172l7.719-.772a1,1,0,0,0,.895-.9l.772-7.718,7.072,3.184a1,1,0,0,0,1.222-.327L32,4.351l4.535,6.292a1,1,0,0,0,1.222.327l7.071-3.184.772,7.719a1,1,0,0,0,.895.9l7.719.772-3.185,7.071a1,1,0,0,0,.327,1.222L56.262,29H48.949a16.977,16.977,0,0,0-33.9,0H7.738Z"></path></g></svg>