<svg xmlns="http://www.w3.org/2000/svg" viewBox="0 0 64 64" x="0px" y="0px"><g><path d="M50,27.027V19a3,3,0,0,0,0-6H38a3,3,0,0,0,0,6v8.028a17.989,17.989,0,0,0-11.433,12.5L26,38.691V30a3,3,0,0,0,0-6H17V8a3,3,0,0,0,0-6H5A3,3,0,0,0,5,8V51.891L3.437,54.183A5,5,0,0,0,7.568,62H32.432a4.982,4.982,0,0,0,3.8-1.765A18,18,0,1,0,50,27.027ZM37,16a1,1,0,0,1,1-1H50a1,1,0,0,1,0,2H38A1,1,0,0,1,37,16Zm2.3,12.706a1,1,0,0,0,.7-.956V19h8v8.75a1,1,0,0,0,.706.956,15.907,15.907,0,0,1,11.1,12.852c-.516.163-1.011.332-1.48.5a17.633,17.633,0,0,1-6.991,1.26,17.652,17.652,0,0,1-6.991-1.26,19.585,19.585,0,0,0-7.679-1.38A19.564,19.564,0,0,0,29,42.059c-.185.067-.379.131-.567.2l-.274-.4A15.976,15.976,0,0,1,39.3,28.706ZM24.174,39.563l5.672,8.319A13.361,13.361,0,0,0,25,47.1a13.614,13.614,0,0,0-5.339.959A11.757,11.757,0,0,1,15,48.9a11.81,11.81,0,0,1-4.644-.833c-.085-.031-.177-.062-.265-.093l5.735-8.411A1,1,0,0,0,16,39V30h8v9A1,1,0,0,0,24.174,39.563ZM27,27a1,1,0,0,1-1,1H14a1,1,0,0,1,0-2H26A1,1,0,0,1,27,27ZM4,5A1,1,0,0,1,5,4H17a1,1,0,0,1,0,2H5A1,1,0,0,1,4,5ZM15,8v4H12v2h3v3.973H12v2h3v1.2c-.11-.034-.218-.07-.33-.11a5.233,5.233,0,0,0-2.005-.359,5.249,5.249,0,0,0-2.007.359A3.291,3.291,0,0,1,9.33,21.3,3.28,3.28,0,0,1,8,21.059a5.677,5.677,0,0,0-1-.273V8ZM7,22.832c.109.033.215.069.326.109a5.235,5.235,0,0,0,2,.359,5.233,5.233,0,0,0,2.005-.359,3.3,3.3,0,0,1,1.33-.241,3.291,3.291,0,0,1,1.328.241A5.773,5.773,0,0,0,15,23.215V24H14a3,3,0,0,0,0,6v8.691L7,48.958ZM35.084,58.4A2.957,2.957,0,0,1,32.432,60H7.568A3,3,0,0,1,5.09,55.31l3.833-5.622c.255.083.505.171.761.262A13.639,13.639,0,0,0,15,50.9a13.614,13.614,0,0,0,5.339-.959A11.757,11.757,0,0,1,25,49.1a11.787,11.787,0,0,1,4.669.842,17,17,0,0,0,2,.616l3.24,4.752A2.954,2.954,0,0,1,35.084,58.4ZM44,60a16.035,16.035,0,0,1-6.8-1.518,4.976,4.976,0,0,0-.635-4.3L29.6,43.968l.077-.027a17.63,17.63,0,0,1,7-1.261,17.692,17.692,0,0,1,7,1.261A19.567,19.567,0,0,0,51.34,45.32a19.552,19.552,0,0,0,7.669-1.379c.328-.118.649-.233.975-.343,0,.134.016.267.016.4A16.019,16.019,0,0,1,44,60Z"></path><path d="M49,40a3,3,0,1,0-3-3A3,3,0,0,0,49,40Zm0-4a1,1,0,1,1-1,1A1,1,0,0,1,49,36Z"></path><path d="M23,21a3,3,0,1,0-3-3A3,3,0,0,0,23,21Zm0-4a1,1,0,1,1-1,1A1,1,0,0,1,23,17Z"></path><path d="M38.29,34.71A1.014,1.014,0,1,0,38,34a.838.838,0,0,0,.08.38A1.155,1.155,0,0,0,38.29,34.71Z"></path><path d="M40.29,48.29a1,1,0,1,0,1.42,0A1.047,1.047,0,0,0,40.29,48.29Z"></path><path d="M51.92,52.62a.8.8,0,0,0-.09-.18l-.12-.15A1,1,0,0,0,50,53a1,1,0,0,0,.08.38,1.155,1.155,0,0,0,.21.33l.149.12a.782.782,0,0,0,.181.09.636.636,0,0,0,.18.06A1.487,1.487,0,0,0,51,54a1.369,1.369,0,0,0,.2-.02.646.646,0,0,0,.18-.06.776.776,0,0,0,.18-.09l.15-.12a1.155,1.155,0,0,0,.21-.33A1,1,0,0,0,52,53a1.234,1.234,0,0,0-.021-.2A.6.6,0,0,0,51.92,52.62Z"></path><path d="M22.56,43.17a.776.776,0,0,0-.18-.09.609.609,0,0,0-.191-.06,1,1,0,0,0-.9.27,1.014,1.014,0,0,0,0,1.42l.149.12a.782.782,0,0,0,.181.09.636.636,0,0,0,.18.06A1.487,1.487,0,0,0,22,45a1.2,1.2,0,0,0,.189-.02.609.609,0,0,0,.191-.06.776.776,0,0,0,.18-.09l.15-.12a1.014,1.014,0,0,0,0-1.42Z"></path><path d="M19.71,37.29a1.712,1.712,0,0,0-.15-.12.776.776,0,0,0-.18-.09.609.609,0,0,0-.191-.06.852.852,0,0,0-.389,0,.636.636,0,0,0-.18.06.782.782,0,0,0-.181.09,1.7,1.7,0,0,0-.149.12,1.155,1.155,0,0,0-.21.33A.838.838,0,0,0,18,38a1.047,1.047,0,0,0,.29.71l.149.12a.782.782,0,0,0,.181.09.636.636,0,0,0,.18.06A1.487,1.487,0,0,0,19,39a1.2,1.2,0,0,0,.189-.02.609.609,0,0,0,.191-.06.776.776,0,0,0,.18-.09l.15-.12A1.052,1.052,0,0,0,20,38a1,1,0,0,0-.08-.38A1.155,1.155,0,0,0,19.71,37.29Z"></path><path d="M11.29,36.29A1.047,1.047,0,0,0,11,37a.838.838,0,0,0,.08.38,1.155,1.155,0,0,0,.21.33,1,1,0,1,0,0-1.42Z"></path><path d="M9.7,30.29a1.034,1.034,0,0,0-1.41,0,1.014,1.014,0,0,0,0,1.42l.149.12a.782.782,0,0,0,.181.09.636.636,0,0,0,.18.06A1.355,1.355,0,0,0,9,32a1.007,1.007,0,0,0,1-1,1,1,0,0,0-.08-.38A.911.911,0,0,0,9.7,30.29Z"></path><path d="M46,9v2h2V9a1,1,0,0,1,1-1h4a3,3,0,0,0,3-3H54a1,1,0,0,1-1,1H49A3,3,0,0,0,46,9Z"></path><path d="M42,6a1,1,0,0,1,1-1h4a3,3,0,0,0,3-3H48a1,1,0,0,1-1,1H43a3,3,0,0,0-3,3V8h2Z"></path></g></svg>