<svg xmlns="http://www.w3.org/2000/svg" viewBox="0 0 64 64" x="0px" y="0px"><g data-name="Home-House-Protect-Stay at Home-Virus"><path d="M27.29,4.12a1.027,1.027,0,0,1,1.42,0L51.79,27.21l1.42-1.42L30.12,2.71a3.056,3.056,0,0,0-4.24,0L2.79,25.79a3.125,3.125,0,0,0,4.42,4.42L9,28.41V61a1,1,0,0,0,1,1H35V60H28V40a1,1,0,0,0-1-1H15a1,1,0,0,0-1,1V60H11V26.41L27.29,10.12a1.027,1.027,0,0,1,1.42,0L48.29,29.71l1.42-1.42L30.12,8.71a3.056,3.056,0,0,0-4.24,0L5.79,28.79a1.117,1.117,0,1,1-1.58-1.58ZM16,41H26V60H16Z"></path><rect x="18" y="48" width="2" height="4"></rect><path d="M21,26a7,7,0,1,0,7-7A7.008,7.008,0,0,0,21,26Zm12,0a5,5,0,1,1-5-5A5.006,5.006,0,0,1,33,26Z"></path><path d="M46,30A16,16,0,1,0,62,46,16.021,16.021,0,0,0,46,30Zm0,30A13.978,13.978,0,0,1,35.43,36.85l5.68,5.68A5.949,5.949,0,0,0,40.09,45H37.72a2,2,0,1,0,0,2h2.37a5.949,5.949,0,0,0,1.02,2.47l-1.67,1.68a2,2,0,1,0,1.41,1.41l1.68-1.67A5.949,5.949,0,0,0,45,51.91v2.37a2,2,0,1,0,2,0V51.91a5.949,5.949,0,0,0,2.47-1.02l5.68,5.68A13.909,13.909,0,0,1,46,60Zm2.71-15.29.72-.73a3.864,3.864,0,0,1,0,4.04l-5.45-5.45a3.864,3.864,0,0,1,4.04,0l-.73.72Zm-.69,4.72a3.864,3.864,0,0,1-4.04,0l.73-.72-1.42-1.42-.72.73a3.864,3.864,0,0,1,0-4.04Zm8.55,5.72-5.68-5.68A5.949,5.949,0,0,0,51.91,47h2.37a2,2,0,1,0,0-2H51.91a5.949,5.949,0,0,0-1.02-2.47l1.67-1.68a1.807,1.807,0,0,0,.51.08,2.016,2.016,0,0,0,1.42-.59,2.016,2.016,0,0,0,0-2.83,2.022,2.022,0,0,0-2.83,0,2,2,0,0,0-.51,1.93l-1.68,1.67A5.949,5.949,0,0,0,47,40.09V37.72a2,2,0,1,0-2,0v2.37a5.949,5.949,0,0,0-2.47,1.02l-5.68-5.68A13.978,13.978,0,0,1,56.57,55.15Z"></path></g></svg>