<svg xmlns="http://www.w3.org/2000/svg" viewBox="0 0 64 64" x="0px" y="0px"><title>Bussiness Idea</title><g data-name="Bussiness Idea"><path d="M48,46H40V43a1,1,0,0,0-1-1H37V40h3V38H38V34.649a14,14,0,1,0-12,0V38H24v2h3v2H25a1,1,0,0,0-1,1v3H16A13.015,13.015,0,0,0,3,59v2a1,1,0,0,0,1,1H60a1,1,0,0,0,1-1V59A13.015,13.015,0,0,0,48,46ZM27.385,33.078a12,12,0,1,1,9.23,0A1,1,0,0,0,36,34v4H33V30.941a9,9,0,1,0-2,0V38H28V34A1,1,0,0,0,27.385,33.078ZM32,29a7,7,0,1,1,7-7A7.008,7.008,0,0,1,32,29ZM29,40h6v2H29Zm-3,4H38v2H26Zm5,7h2l0,2H31Zm1.6-2.8a1,1,0,0,0-1.2,0L29,50V48h6v2ZM5,59A11.013,11.013,0,0,1,16,48H27v4a1,1,0,0,0,1.6.8l.4-.3v1.427L28.132,60H15V55H13v5H5Zm25.153,1,.714-5h2.266l.714,5ZM59,60H51V55H49v5H35.868L35,53.927V52.5l.4.3A1,1,0,0,0,37,52V48H48A11.013,11.013,0,0,1,59,59Z"></path><path d="M32,19a1,1,0,0,1,1,1h2a3,3,0,0,0-2-2.816V16H31v1.184A2.993,2.993,0,0,0,32,23a1,1,0,1,1-1,1H29a3,3,0,0,0,2,2.816V28h2V26.816A2.993,2.993,0,0,0,32,21a1,1,0,0,1,0-2Z"></path><rect x="36" y="21" width="2" height="2"></rect><rect x="26" y="21" width="2" height="2"></rect><rect x="31" y="2" width="2" height="4"></rect><rect x="18.272" y="7.272" width="2" height="4.001" transform="translate(-0.911 16.345) rotate(-45.005)"></rect><rect x="12" y="21" width="4" height="2"></rect><rect x="17.272" y="33.728" width="4.001" height="2" transform="translate(-18.912 23.799) rotate(-45)"></rect><rect x="42.728" y="8.272" width="4.001" height="2" transform="translate(6.544 34.343) rotate(-45)"></rect><rect x="48" y="21" width="4" height="2"></rect><rect x="43.728" y="32.727" width="2" height="4.001" transform="translate(-11.455 41.804) rotate(-45.005)"></rect></g></svg>