<svg xmlns="http://www.w3.org/2000/svg" viewBox="0 0 64 64" x="0px" y="0px"><g data-name="Car Cleaning"><path d="M46,48a4,4,0,1,0,4,4A4,4,0,0,0,46,48Zm0,6a2,2,0,1,1,2-2A2,2,0,0,1,46,54Z"></path><path d="M22,33v2h7V29H26A4,4,0,0,0,22,33Z"></path><path d="M38,29H31v6H42V33A4,4,0,0,0,38,29Z"></path><path d="M55,47h1V46a9.01,9.01,0,0,0-9-9,1,1,0,0,1-1-1V32a7.009,7.009,0,0,0-7-7H25a7.009,7.009,0,0,0-7,7v4a1,1,0,0,1-1,1,9.01,9.01,0,0,0-9,9v1.171c.035.012.066.031.1.044.054.022.1.046.156.07a2.956,2.956,0,0,1,.328.178c.048.03.1.058.142.091a3.017,3.017,0,0,1,.338.279c.021.021.045.037.066.058a3.14,3.14,0,0,1,.333.4c.028.04.05.084.076.125a3.065,3.065,0,0,1,.184.338c.025.055.047.111.069.168a2.781,2.781,0,0,1,.112.36c.014.055.03.108.04.164A2.941,2.941,0,0,1,10,50a3.014,3.014,0,0,1-.055.557c-.011.061-.031.118-.046.177A2.661,2.661,0,0,1,9.83,51h2.253c0-.023.013-.044.018-.067a5.987,5.987,0,0,1,.232-.887c.018-.052.038-.1.057-.156a5.892,5.892,0,0,1,.383-.825c.021-.038.045-.074.067-.111a5.965,5.965,0,0,1,.539-.776l.017-.019a5.976,5.976,0,0,1,.661-.67c.027-.024.051-.049.078-.071a6.01,6.01,0,0,1,.743-.532c.044-.027.087-.054.132-.08a5.933,5.933,0,0,1,.815-.392l.149-.055a6.03,6.03,0,0,1,.9-.249c.04-.008.08-.012.12-.019a5.617,5.617,0,0,1,2.014,0c.04.007.08.011.12.019a6.03,6.03,0,0,1,.9.249l.149.055a5.933,5.933,0,0,1,.815.392c.045.026.088.053.132.08a6.01,6.01,0,0,1,.743.532c.027.022.051.047.078.071a5.976,5.976,0,0,1,.661.67l.017.019a6.053,6.053,0,0,1,.539.775c.022.038.046.074.068.112a6.058,6.058,0,0,1,.382.825c.019.052.039.1.057.156a5.987,5.987,0,0,1,.232.887c0,.023.014.044.018.067H29V40a1,1,0,0,1,2,0V51h9.083c0-.023.013-.044.018-.067a5.987,5.987,0,0,1,.232-.887c.018-.052.038-.1.057-.156a5.892,5.892,0,0,1,.383-.825c.021-.038.045-.074.067-.111a5.965,5.965,0,0,1,.539-.776l.017-.019a5.976,5.976,0,0,1,.661-.67c.027-.024.051-.049.078-.071a6.01,6.01,0,0,1,.743-.532c.044-.027.087-.054.132-.08a5.933,5.933,0,0,1,.815-.392l.149-.055a6.03,6.03,0,0,1,.9-.249c.04-.008.08-.012.12-.019a5.617,5.617,0,0,1,2.014,0c.04.007.08.011.12.019a6.03,6.03,0,0,1,.9.249l.149.055a5.933,5.933,0,0,1,.815.392c.045.026.088.053.132.08a6.01,6.01,0,0,1,.743.532c.027.022.051.047.078.071a5.976,5.976,0,0,1,.661.67l.017.019a6.053,6.053,0,0,1,.539.775c.022.038.046.074.068.112a6.058,6.058,0,0,1,.382.825c.019.052.039.1.057.156a5.987,5.987,0,0,1,.232.887c.005.023.014.044.018.067h.252c-.03-.085-.046-.175-.068-.263-.015-.06-.035-.119-.047-.181A3.1,3.1,0,0,1,52,50,3,3,0,0,1,55,47ZM44,36a1,1,0,0,1-1,1H21a1,1,0,0,1-1-1V33a6.006,6.006,0,0,1,6-6H38a6.006,6.006,0,0,1,6,6Zm8,9V43a1,1,0,0,1,2,0v2a1,1,0,0,1-2,0Z"></path><path d="M5,51H7a.959.959,0,0,0,.693-.287A.977.977,0,0,0,8,50a1,1,0,0,0-1-1H5a.959.959,0,0,0-.693.287A.977.977,0,0,0,4,50,1,1,0,0,0,5,51Z"></path><path d="M18,48a4,4,0,1,0,4,4A4,4,0,0,0,18,48Zm0,6a2,2,0,1,1,2-2A2,2,0,0,1,18,54Z"></path><path d="M55,51h4a1,1,0,0,0,1-1,.959.959,0,0,0-.287-.693A.977.977,0,0,0,59,49H55a1,1,0,0,0-1,1,.959.959,0,0,0,.287.693A.977.977,0,0,0,55,51Z"></path><circle cx="40" cy="10" r="1"></circle><circle cx="59" cy="26" r="1"></circle><path d="M27,14a1,1,0,0,0,1-1V12a1,1,0,0,0-2,0v1A1,1,0,0,0,27,14Z"></path><path d="M24,16h1a1,1,0,0,0,0-2H24a1,1,0,0,0,0,2Z"></path><path d="M27,16a1,1,0,0,0-1,1v1a1,1,0,0,0,2,0V17A1,1,0,0,0,27,16Z"></path><path d="M29,16h1a1,1,0,0,0,0-2H29a1,1,0,0,0,0,2Z"></path><path d="M50,18a1,1,0,0,0,1-1V16a1,1,0,0,0-2,0v1A1,1,0,0,0,50,18Z"></path><path d="M47,20h1a1,1,0,0,0,0-2H47a1,1,0,0,0,0,2Z"></path><path d="M50,20a1,1,0,0,0-1,1v1a1,1,0,0,0,2,0V21A1,1,0,0,0,50,20Z"></path><path d="M52,20h1a1,1,0,0,0,0-2H52a1,1,0,0,0,0,2Z"></path><path d="M9,19a1,1,0,0,0,1-1V17a1,1,0,0,0-2,0v1A1,1,0,0,0,9,19Z"></path><path d="M6.172,19.586a1,1,0,0,0,1.414-1.414l-.707-.707a1,1,0,0,0-1.414,1.414Z"></path><path d="M5,22H6a1,1,0,0,0,0-2H5a1,1,0,0,0,0,2Z"></path><path d="M6.172,22.414l-.707.707a1,1,0,1,0,1.414,1.414l.707-.707a1,1,0,0,0-1.414-1.414Z"></path><path d="M9,26a1,1,0,0,0,1-1V24a1,1,0,0,0-2,0v1A1,1,0,0,0,9,26Z"></path><path d="M11.121,24.535a1,1,0,0,0,1.414-1.414l-.707-.707a1,1,0,0,0-1.414,1.414Z"></path><path d="M11,21a1,1,0,0,0,1,1h1a1,1,0,0,0,0-2H12A1,1,0,0,0,11,21Z"></path><path d="M11.121,19.879a1,1,0,0,0,.707-.293l.707-.707a1,1,0,0,0-1.414-1.414l-.707.707a1,1,0,0,0,.707,1.707Z"></path></g></svg>