<svg xmlns="http://www.w3.org/2000/svg" viewBox="0 0 64 64" x="0px" y="0px"><g data-name="Smart Rice Cooker-Internet of Things-App-Internet-Smartphone"><path d="M61,24H58V22h1a1,1,0,0,0,1-1V19a3.009,3.009,0,0,0-3-3H55.72l-.4-1.21A7,7,0,0,0,48.68,10H46.94a9,9,0,0,0-17.88,0H27.32a7,7,0,0,0-6.64,4.79L20.28,16H19a3.009,3.009,0,0,0-3,3v2a1,1,0,0,0,1,1h1v2H15a1,1,0,0,0-1,1v1H7a5,5,0,0,0-5,5V57a5,5,0,0,0,5,5H21a5,5,0,0,0,5-5V56h1a.977.977,0,0,0,.89-.55L29.62,52H45.38l1.73,3.45A.977.977,0,0,0,48,56h4a1,1,0,0,0,1-1V52a5,5,0,0,0,5-5V30.78l3.24-.81A1,1,0,0,0,62,29V25A1,1,0,0,0,61,24ZM38,4a7,7,0,0,1,6.92,6H42.9a5,5,0,0,0-9.8,0H31.08A7,7,0,0,1,38,4Zm2.82,6H35.18a2.988,2.988,0,0,1,5.64,0ZM22.58,15.42A4.987,4.987,0,0,1,27.32,12H48.68a4.987,4.987,0,0,1,4.74,3.42l.19.58H22.39ZM24,57a3.009,3.009,0,0,1-3,3H7a3.009,3.009,0,0,1-3-3V54H24Zm0-5H4V34H24Zm0-20H4V31a3.009,3.009,0,0,1,3-3H21a3.009,3.009,0,0,1,3,3Zm2.38,22H26V52h1.38ZM51,54H48.62l-1-2H51Zm5-7a3.009,3.009,0,0,1-3,3H26V31a5,5,0,0,0-5-5H20V22H56ZM18,20V19a1,1,0,0,1,1-1H57a1,1,0,0,1,1,1v1Zm42,8.22-2,.5V26h2Z"></path><path d="M44,28H32a3,3,0,0,0-3,3V43a3,3,0,0,0,3,3H44a3,3,0,0,0,3-3V31A3,3,0,0,0,44,28Zm1,15a1,1,0,0,1-1,1H32a1,1,0,0,1-1-1V31a1,1,0,0,1,1-1H44a1,1,0,0,1,1,1Z"></path><path d="M42,36H34a1,1,0,0,0-1,1v4a1,1,0,0,0,1,1h8a1,1,0,0,0,1-1V37A1,1,0,0,0,42,36Zm-1,4H35V38h6Z"></path><rect x="33" y="32" width="10" height="2"></rect><rect x="13" y="56" width="2" height="2"></rect><path d="M14,50a7,7,0,1,0-7-7A7.008,7.008,0,0,0,14,50Zm0-12a5,5,0,1,1-5,5A5.006,5.006,0,0,1,14,38Z"></path><path d="M15.293,45.707l1.414-1.414L15,42.586V40H13v3a1,1,0,0,0,.293.707Z"></path></g></svg>