<svg xmlns="http://www.w3.org/2000/svg" viewBox="0 0 64 64" x="0px" y="0px"><g><rect x="45" y="36" width="15" height="16"></rect><path d="M46,60H59a1,1,0,0,0,1-1V54H45v5A1,1,0,0,0,46,60Zm4-4h4v2H50Z"></path><path d="M60,33a1,1,0,0,0-1-1H46a1,1,0,0,0-1,1v1H60Z"></path><circle cx="36" cy="20" r="2"></circle><rect x="8" y="12" width="20" height="14"></rect><rect x="33.999" y="4" width="4.001" height="2"></rect><path d="M5,30H41a1,1,0,0,0,1-1V9a1,1,0,0,0-1-1H24a1,1,0,0,1-.895-.553L21.382,4H14.618L12.9,7.447A1,1,0,0,1,12,8H5A1,1,0,0,0,4,9V29A1,1,0,0,0,5,30ZM36,10a2,2,0,1,1-2,2A2,2,0,0,1,36,10Zm0,6a4,4,0,1,1-4,4A4,4,0,0,1,36,16ZM6,11a1,1,0,0,1,1-1H29a1,1,0,0,1,1,1V27a1,1,0,0,1-1,1H7a1,1,0,0,1-1-1Z"></path><path d="M23,42a8.009,8.009,0,0,0-8,8h2a6,6,0,0,1,12,0h2A8.009,8.009,0,0,0,23,42Z"></path><path d="M23,46a4,4,0,0,0-4,4h2a2,2,0,0,1,4,0h2A4,4,0,0,0,23,46Z"></path><path d="M23,38A12.013,12.013,0,0,0,11,50h2a10,10,0,0,1,20,0h2A12.013,12.013,0,0,0,23,38Z"></path></g></svg>