<svg xmlns="http://www.w3.org/2000/svg" viewBox="0 0 64 64" x="0px" y="0px"><title>Drone-Delivery-Remote Control-Transportation-Fly</title><g><path d="M45,6H59a1,1,0,0,0,0-2H45a1,1,0,0,0,0,2Z"></path><path d="M19,4H5A1,1,0,0,0,5,6H19a1,1,0,0,0,0-2Z"></path><rect x="28" y="32" width="8" height="10"></rect><path d="M50,40H38v3a1,1,0,0,1-1,1H27a1,1,0,0,1-1-1V40H14V60H50Z"></path><rect x="38" y="32" width="12" height="6"></rect><path d="M41,24V19a1,1,0,0,0-1-1H35.974a4.9,4.9,0,0,1,0,6Z"></path><rect x="14" y="32" width="12" height="6"></rect><path d="M35,21a3,3,0,1,0-3,3A3,3,0,0,0,35,21Zm-4-1h2v2H31Z"></path><rect x="19" y="26" width="2" height="4"></rect><rect x="43" y="26" width="2" height="4"></rect><path d="M24,18a1,1,0,0,0-1,1v5h5.026a4.9,4.9,0,0,1,0-6Z"></path><polygon points="25.781 8 25.281 10 38.719 10 38.219 8 25.781 8"></polygon><path d="M51,9v1h2V9a1,1,0,0,0-2,0Z"></path><path d="M13,9a1,1,0,0,0-2,0v1h2Z"></path><path d="M59,12H5v6h7.611a4.983,4.983,0,0,1,4.932,4.178l.3,1.822H21V19a3,3,0,0,1,3-3H40a3,3,0,0,1,3,3v5h3.153l.3-1.822A4.984,4.984,0,0,1,51.389,18H59ZM11,16H7V14h4Zm4,0H13V14h2Zm4,0H17V14h2Zm28,0H45V14h2Zm4,0H49V14h2Zm6,0H53V14h4Z"></path></g></svg>