<svg xmlns="http://www.w3.org/2000/svg" viewBox="0 0 64 64" x="0px" y="0px"><g><path d="M26.973,50.04A2,2,0,0,0,28.436,48.9L30.8,43.7a3.015,3.015,0,0,0-.359-3.068l1.874-1.875a10.724,10.724,0,0,0,3.019-5.667c.328-1.8.122-3.043-.629-3.793s-1.991-.955-3.793-.629a10.724,10.724,0,0,0-5.667,3.019l-1.875,1.874A3.014,3.014,0,0,0,20.3,33.2l-5.2,2.364a2,2,0,0,0-.587,3.235l2.515,2.515a1,1,0,0,0,.707.293.981.981,0,0,0,.316-.051l1.1-.368L18.47,42.56a3,3,0,0,0-2.148.875c-.823.824-2.873,4.2-1.414,5.657a1.885,1.885,0,0,0,1.385.511,7.671,7.671,0,0,0,4.272-1.925h0a2.992,2.992,0,0,0,.875-2.148l1.373-.686-.368,1.1a1,1,0,0,0,.242,1.023L25.2,49.486a2,2,0,0,0,1.414.586A2.06,2.06,0,0,0,26.973,50.04ZM26.661,33.1a8.733,8.733,0,0,1,4.61-2.465c1.3-.237,1.883-.064,2.022.075s.311.722.075,2.021A8.732,8.732,0,0,1,30.9,37.339l-6.095,6.1-1.415-1.414,4.243-4.243-1.414-1.414-4.243,4.243-1.414-1.415Zm-8.655,6.365-2.077-2.078,5.2-2.364a.99.99,0,0,1,.786-.007l-3.473,3.472a.983.983,0,0,0-.253.916Zm1.145,6.8a6.206,6.206,0,0,1-2.769,1.354,6.2,6.2,0,0,1,1.354-2.768,1,1,0,1,1,1.415,1.414Zm1.414-2.829,0,0-.194-.194.471-.943.866.866-.943.471-.2-.2Zm3.973,2.559.061-.185a1.014,1.014,0,0,0,.209.04,1,1,0,0,0,.707-.293l3.472-3.472a1,1,0,0,1-.006.785l-2.365,5.2Z"></path><path d="M30.223,35.973l1.9-.633-.707-2.121a1,1,0,0,0-.632-.632L28.66,31.88l-.633,1.9,1.647.549Z"></path><rect x="19.979" y="50.92" width="4" height="2" transform="translate(-30.276 30.749) rotate(-45)"></rect><rect x="10.08" y="41.021" width="4" height="2" transform="translate(-26.175 20.849) rotate(-45)"></rect><rect x="34.828" y="41.728" width="4" height="2" transform="translate(-19.426 38.556) rotate(-45)"></rect><rect x="32.293" y="45.264" width="2" height="2" transform="translate(-22.963 37.102) rotate(-45.01)"></rect><rect x="19.272" y="26.172" width="4" height="2" transform="translate(-12.983 23) rotate(-45)"></rect><rect x="16.737" y="29.707" width="2" height="2" transform="translate(-16.518 21.536) rotate(-45)"></rect><path d="M37,24A11,11,0,1,0,26,13,11.013,11.013,0,0,0,37,24Zm2-2.232V20.414l.707-.707A1,1,0,0,0,40,19V18h.649l2.239,1.791A8.965,8.965,0,0,1,39,21.768ZM46,13H43.162L41,12.279V10.618L42.447,9.9A1,1,0,0,0,43,9V7.236l.318-.636A8.97,8.97,0,0,1,46,13ZM41.709,5.345l-.6,1.208A1,1,0,0,0,41,7V8.382l-1.447.723A1,1,0,0,0,39,10v3a1,1,0,0,0,.684.949l3,1A1,1,0,0,0,43,15h2.768a8.948,8.948,0,0,1-1.523,3.316l-2.62-2.1A1,1,0,0,0,41,16H39a1,1,0,0,0-1,1v1.586l-.707.707A1,1,0,0,0,37,20v2a8.957,8.957,0,0,1-6.061-2.366l.667.285A.993.993,0,0,0,32,20h3a1,1,0,0,0,1-1V17a1,1,0,0,0-.553-.895L34,15.382v-.847l2.555-1.7A1,1,0,0,0,37,12V10a1,1,0,0,0-.293-.707L36,8.586V6a1,1,0,0,0-.2-.6l-.864-1.152a8.856,8.856,0,0,1,6.773,1.1Zm-8.737-.382L34,6.333V9a1,1,0,0,0,.293.707l.707.707v1.051l-2.555,1.7A1,1,0,0,0,32,14v2a1,1,0,0,0,.553.895L34,17.618V18h-1.8L28.71,16.5a8.985,8.985,0,0,1,4.262-11.54Z"></path><path d="M53,27a6,6,0,1,0,6,6A6.006,6.006,0,0,0,53,27Zm0,10a4,4,0,1,1,4-4A4,4,0,0,1,53,37Z"></path><rect x="52" y="31" width="2" height="2"></rect><rect x="53" y="34" width="2" height="2"></rect><path d="M52.663,55.42l.407-.8a2,2,0,0,0-2.689-2.689l-.8.407-.635-.634a2,2,0,0,0-3.39,1.727l.141.886-.8.408a2,2,0,0,0,.595,3.758l.887.14.14.887a1.97,1.97,0,0,0,1.663,1.662,2.044,2.044,0,0,0,.328.027A1.966,1.966,0,0,0,50.276,60.1l.408-.8.887.141a2,2,0,0,0,1.726-3.39Zm-2.384,1.8a1.008,1.008,0,0,0-1.048.534L48.494,59.2l-.254-1.6a1,1,0,0,0-.832-.832l-1.6-.254,1.447-.737a1,1,0,0,0,.534-1.048l-.254-1.6,1.149,1.148a1,1,0,0,0,1.16.184l1.453-.75-.005.012h0l-.737,1.448a1,1,0,0,0,.184,1.16l1.149,1.149Z"></path><path d="M5.43,16.445l.886-.141.408.8A1.965,1.965,0,0,0,8.491,18.2a2.034,2.034,0,0,0,.328-.027,1.97,1.97,0,0,0,1.663-1.662l.14-.887.887-.14a2,2,0,0,0,.595-3.758l-.8-.408.141-.887A2,2,0,0,0,8.055,8.7l-.635.634-.8-.407A2,2,0,0,0,3.93,11.619l.407.8-.634.635a2,2,0,0,0,1.727,3.39Zm.835-3.125a1,1,0,0,0,.184-1.16L5.7,10.707l.012,0h0l1.448.737a1,1,0,0,0,1.16-.184l1.149-1.149-.254,1.605a1,1,0,0,0,.534,1.048l1.447.737-1.6.254a1,1,0,0,0-.832.832l-.254,1.6-.737-1.447a1,1,0,0,0-.891-.546,1.038,1.038,0,0,0-.157.012l-1.6.254Z"></path><rect x="29.757" y="53" width="8.485" height="2" transform="translate(-28.225 39.858) rotate(-45)"></rect><rect x="26.586" y="59" width="2.828" height="2" transform="translate(-34.225 37.373) rotate(-45)"></rect><rect x="5.964" y="28.5" width="7.071" height="2" transform="translate(-18.077 15.358) rotate(-45)"></rect><rect x="3.189" y="33.75" width="2.121" height="2" transform="translate(-23.327 13.183) rotate(-45)"></rect><rect x="16.586" y="55" width="2.828" height="2" transform="translate(-34.326 29.13) rotate(-45)"></rect><rect x="6.586" y="45" width="2.828" height="2" transform="translate(-30.184 19.13) rotate(-45)"></rect><rect x="53" y="10" width="2" height="2"></rect><rect x="58" y="16" width="2" height="2"></rect><rect x="18" y="4" width="2" height="2"></rect><rect x="19" y="15" width="2" height="2"></rect></g></svg>