<svg xmlns="http://www.w3.org/2000/svg" viewBox="0 0 64 64" x="0px" y="0px"><title>Calendar-Book</title><g><path d="M60,55H33V54a3,3,0,0,1,3-3H57a1,1,0,0,0,1-1V34H56V49H36a4.967,4.967,0,0,0-3,1.012V18a3,3,0,0,1,3-3h2V13H36a5,5,0,0,0-4,2,5,5,0,0,0-4-2H7a1,1,0,0,0-1,1v5H3a1,1,0,0,0-1,1V56a1,1,0,0,0,1,1H61a1,1,0,0,0,1-1V32H60ZM8,15H28a3,3,0,0,1,3,3V50.012A4.967,4.967,0,0,0,28,49H8ZM4,21H6V50a1,1,0,0,0,1,1H28a3,3,0,0,1,3,3v1H4Z"></path><rect x="12" y="23" width="14" height="2"></rect><rect x="12" y="31" width="14" height="2"></rect><rect x="12" y="39" width="14" height="2"></rect><rect x="38" y="39" width="14" height="2"></rect><path d="M61,8H58V7H56V8H53V7H51V8H48V7H46V8H43a1,1,0,0,0-1,1V25a3,3,0,0,0,3,3H59a3,3,0,0,0,3-3V9A1,1,0,0,0,61,8ZM46,10v1h2V10h3v1h2V10h3v1h2V10h2v2H44V10ZM59,26H45a1,1,0,0,1-1-1V14H60V25A1,1,0,0,1,59,26Z"></path><rect x="46" y="16" width="2" height="2"></rect><rect x="51" y="16" width="2" height="2"></rect><rect x="56" y="16" width="2" height="2"></rect><rect x="46" y="21" width="2" height="2"></rect><rect x="51" y="21" width="2" height="2"></rect><rect x="56" y="21" width="2" height="2"></rect></g></svg>