<svg xmlns="http://www.w3.org/2000/svg" viewBox="0 0 64 64" x="0px" y="0px"><g><path d="M54,2H16A7.008,7.008,0,0,0,9,9V55a7.009,7.009,0,0,0,7,7H52a1,1,0,0,0,1-1V50h1a1,1,0,0,0,1-1V3A1,1,0,0,0,54,2ZM11,50.105V9a5.006,5.006,0,0,1,5-5h1V48H16a7.141,7.141,0,0,0-.72.037c-.078.008-.153.025-.231.035-.157.022-.314.041-.467.073-.1.02-.189.049-.284.073-.13.033-.262.062-.39.1-.1.032-.2.073-.3.11-.116.042-.234.081-.347.129s-.2.094-.293.141-.217.1-.322.158-.188.114-.282.171-.2.119-.3.184-.18.134-.27.2-.183.133-.27.206-.17.154-.255.231-.166.147-.244.226C11.02,50.088,11.009,50.1,11,50.105ZM51,54H16v2H51v4H16a5.009,5.009,0,0,1-5-5,5.006,5.006,0,0,1,5-5H51Zm2-6H19V4H53Z"></path><path d="M35.521,35.878a1,1,0,0,0,.958,0C36.949,35.621,48,29.519,48,23a7,7,0,0,0-12-4.9A7,7,0,0,0,24,23C24,29.519,35.051,35.621,35.521,35.878ZM31,18a4.992,4.992,0,0,1,4.167,2.239,1.038,1.038,0,0,0,1.666,0A5,5,0,0,1,46,23c0,4.2-6.815,9.013-10,10.853C32.814,32.016,26,27.209,26,23A5.006,5.006,0,0,1,31,18Z"></path></g></svg>