<svg xmlns="http://www.w3.org/2000/svg" viewBox="0 0 64 64" x="0px" y="0px"><g data-name="Smartphone-Mobile Store-Ecommerce-Shopping Bag-Buy"><path d="M55,25H53a1,1,0,0,1,0-2h2a1,1,0,0,1,1,1h2a3,3,0,0,0-3-3V20H53v1a3,3,0,0,0,0,6h2a1,1,0,0,1,0,2H53a1,1,0,0,1-1-1H50a3,3,0,0,0,3,3v1h2V31a3,3,0,0,0,0-6Z"></path><path d="M25.584,31.682a.994.994,0,0,0,.266-.753L25.069,20H23v2H21V20H17v2H15V20H12.931L12.15,30.929a1,1,0,0,0,1,1.071h11.7A.99.99,0,0,0,25.584,31.682Z"></path><path d="M21,16a2,2,0,0,0-4,0v2h4Z"></path><path d="M21,44H17a1,1,0,0,0,0,2h4a1,1,0,0,0,0-2Z"></path><path d="M46,48a2.006,2.006,0,0,0-2,2v2a1,1,0,0,1-2,0V49a2,2,0,0,0-4,0v3a1,1,0,0,1-2,0V48a2,2,0,0,0-4,0v4a1,1,0,0,1-2,0V38a2,2,0,0,0-4,0V55a1,1,0,0,1-.74.97,1.022,1.022,0,0,1-1.13-.47l-2-3.46a2,2,0,1,0-3.46,2l4.31,7.46-.865.5H48V50A2.006,2.006,0,0,0,46,48Z"></path><path d="M22.98,50H24V45a3,3,0,0,1-3,3H17a3,3,0,0,1,0-6h4a3,3,0,0,1,3,3V38a4,4,0,0,1,8,0v6.54A3.989,3.989,0,0,1,34,44V30H31V28H43v2l4-4-4-4v2H31V22h3V9a5,5,0,0,0-5-5H9A5,5,0,0,0,4,9V45a5,5,0,0,0,5,5h8.81a4.247,4.247,0,0,1,.59-.43A4.008,4.008,0,0,1,22.98,50ZM15,6h8V8H15ZM11,6h2V8H11Zm-.047,27.044a3.008,3.008,0,0,1-.8-2.258L11,18.929A1,1,0,0,1,12,18h3V16a4,4,0,0,1,8,0v2h3a1,1,0,0,1,1,.929l.847,11.857A3,3,0,0,1,24.852,34h-11.7A3.005,3.005,0,0,1,10.953,33.044Z"></path></g></svg>