<svg xmlns="http://www.w3.org/2000/svg" viewBox="0 0 64 64" x="0px" y="0px"><g data-name="Gear-Light Bulb-Idea-Business-Management"><rect x="31" y="2" width="2" height="2"></rect><rect x="24.5" y="3.742" width="2" height="2" transform="translate(1.045 13.383) rotate(-29.995)"></rect><rect x="19.742" y="8.5" width="2" height="2" transform="translate(2.145 22.715) rotate(-60.005)"></rect><rect x="42.258" y="8.5" width="2" height="2" transform="translate(1.044 22.898) rotate(-29.995)"></rect><rect x="37.5" y="3.742" width="2" height="2" transform="translate(15.146 35.715) rotate(-60.005)"></rect><path d="M31,32h2a2,2,0,0,0,2-2V28H29v2A2,2,0,0,0,31,32Z"></path><path d="M36.953,22.276A8,8,0,0,0,32,8c-.1,0-.2,0-.3.005A8.053,8.053,0,0,0,24,16.07a7.922,7.922,0,0,0,3.107,6.254A4.929,4.929,0,0,1,28.987,26h6.026A5.02,5.02,0,0,1,36.953,22.276ZM33,22H31V21a3,3,0,0,1-3-3h2a1,1,0,0,0,1,1h2a1,1,0,0,0,0-2H31a3,3,0,0,1,0-6V10h2v1a3,3,0,0,1,3,3H34a1,1,0,0,0-1-1H31a1,1,0,0,0,0,2h2a3,3,0,0,1,0,6Z"></path><path d="M13.915,11.058l-1.207-1.6a31.974,31.974,0,0,0-8.357,9.423L6.078,19.9A29.979,29.979,0,0,1,13.915,11.058Z"></path><path d="M3.486,20.467q-.447.878-.842,1.782l1.834.8q.369-.849.79-1.67Z"></path><path d="M49.69,59.23l1.18,1.615a32.3,32.3,0,0,0,9.009-10.122l-1.741-.983A30.314,30.314,0,0,1,49.69,59.23Z"></path><path d="M60.031,45.712c-.248.649-.522,1.3-.814,1.928l1.814.841c.312-.671.6-1.363.868-2.055Z"></path><rect x="42.258" y="21.5" width="2" height="2" transform="translate(2.146 48.717) rotate(-60.005)" style="" fill="none"></rect><rect x="19.742" y="21.5" width="2" height="2" transform="translate(-8.47 13.383) rotate(-29.995)" style="" fill="none"></rect><path d="M40.2,27.667a11,11,0,1,1-16.4,0l-1.49-1.334a13,13,0,1,0,19.378,0Z" style="" fill="none"></path><path d="M50.442,30.5a18.875,18.875,0,0,0-2.224-5.363A1,1,0,0,1,48.291,24l3.425-4.28-5.14-5.14L46,15.035V17H44v-.367l-1.62,1.3c-.171-.106-.354-.192-.528-.292a9.88,9.88,0,0,1-3.665,6.213A3.02,3.02,0,0,0,37.027,26H39v2H37v2a4,4,0,0,1-4,4H31a4,4,0,0,1-4-4V28H25V26h1.974a2.9,2.9,0,0,0-1.085-2.09,9.876,9.876,0,0,1-3.741-6.271c-.175.1-.357.185-.528.291L20,16.633V17H18V15.035l-.576-.459-5.14,5.14L15.709,24a1,1,0,0,1,.073,1.145A18.875,18.875,0,0,0,13.558,30.5a1,1,0,0,1-.861.758L7,31.9V38.1l5.7.633a1,1,0,0,1,.861.758,18.892,18.892,0,0,0,2.224,5.363A1,1,0,0,1,15.709,46l-3.583,4.478,4.392,4.392L21,51.291a1,1,0,0,1,1.145-.073A18.875,18.875,0,0,0,27.5,53.442a1,1,0,0,1,.758.861L28.9,60H35.1l.633-5.7a1,1,0,0,1,.758-.861,18.875,18.875,0,0,0,5.363-2.224A1,1,0,0,1,43,51.291l4.478,3.583,4.392-4.392L48.291,46a1,1,0,0,1-.073-1.145A18.892,18.892,0,0,0,50.442,39.5a1,1,0,0,1,.861-.758L57,38.1V31.9l-5.7-.633A1,1,0,0,1,50.442,30.5Zm-7.55-9.37,1.733,1-1,1.732-1.733-1Zm-21.784,0,1,1.732-1.733,1-1-1.732ZM32,48a13,13,0,0,1-9.689-21.667l1.49,1.334a11,11,0,1,0,16.4,0l1.49-1.334A13,13,0,0,1,32,48Z"></path><polygon points="20 15 18 15 18 15.035 20 16.634 20 15"></polygon><polygon points="44 15 46 15 46 15.035 44 16.634 44 15"></polygon></g></svg>