<svg xmlns="http://www.w3.org/2000/svg" viewBox="0 0 64 64" x="0px" y="0px"><path d="M17,18.06a1,1,0,0,1-.877.992A6.991,6.991,0,0,0,12.945,31.69,12.954,12.954,0,0,1,21,28.051V25.188A6,6,0,0,1,18,20V14h2v6a4,4,0,0,0,4,4h4a4,4,0,0,0,4-4V14h2v6a6,6,0,0,1-3,5.188V28.06A13,13,0,0,1,39.046,31.7a6.991,6.991,0,0,0-3.169-12.644A1,1,0,0,1,35,18.06V13a9,9,0,0,0-18,0ZM23,17a1,1,0,1,1,1-1A1,1,0,0,1,23,17Zm6,0a1,1,0,1,1,1-1A1,1,0,0,1,29,17ZM19,10.58a3.339,3.339,0,0,1,1.913.563,1.551,1.551,0,0,0,1.769,0,3.533,3.533,0,0,1,3.827,0,1.4,1.4,0,0,0,.885.277,1.421,1.421,0,0,0,.887-.278,3.545,3.545,0,0,1,3.831,0A1.422,1.422,0,0,0,33,11.42v2a3.353,3.353,0,0,1-1.915-.562,1.557,1.557,0,0,0-1.776,0,3.541,3.541,0,0,1-3.83,0,1.549,1.549,0,0,0-1.768,0,3.533,3.533,0,0,1-3.827,0A1.4,1.4,0,0,0,19,12.58Z"></path><path d="M49.7,39.061a3.949,3.949,0,0,0-3,.679,2.924,2.924,0,0,1-3.405,0,3.959,3.959,0,0,0-3-.679,3.995,3.995,0,0,0-2.837,5.794,18.111,18.111,0,0,1,2.115,6.705l.238,2.449A1.1,1.1,0,0,0,42,53.9V51a3,3,0,0,1,6,0v2.9a1.1,1.1,0,0,0,2.188.106l.238-2.449a18.111,18.111,0,0,1,2.115-6.705A3.995,3.995,0,0,0,49.7,39.061ZM45,43a8.356,8.356,0,0,1-3.409-.688l.822-1.823a6.933,6.933,0,0,0,5.177,0l.82,1.823A8.364,8.364,0,0,1,45,43Z"></path><path d="M45,34A13,13,0,1,0,58,47,13.015,13.015,0,0,0,45,34Zm7.416,17.752-.237,2.45A3.1,3.1,0,0,1,46,53.9V51a1,1,0,0,0-2,0v2.9a3.1,3.1,0,0,1-6.179.3l-.237-2.449a16.112,16.112,0,0,0-1.893-5.961,5.99,5.99,0,0,1,8.772-7.678.937.937,0,0,0,1.075,0,5.952,5.952,0,0,1,4.5-1.025,5.995,5.995,0,0,1,4.269,8.7A16.123,16.123,0,0,0,52.416,51.752Z"></path><path d="M37.548,60a14.971,14.971,0,0,1,.633-26.344,11,11,0,0,0-6.176-3.451l.827,1.24a1,1,0,0,1,.1.927L26.914,46.406a1,1,0,0,1-1.828,0L19.071,32.372a1,1,0,0,1,.1-.927l.837-1.255A11.013,11.013,0,0,0,11,41V60h4V50.447a8.417,8.417,0,0,1,0-10.894V38h2v2a1,1,0,0,1-.4.8c-.9.679-1.6,2.815-1.6,4.2s.7,3.522,1.6,4.2a1,1,0,0,1,.4.8V60Z"></path><polygon points="30.876 32.117 29.927 30.693 27.426 33.819 29.556 35.417 30.876 32.117"></polygon><polygon points="21.124 32.117 22.444 35.417 24.574 33.819 22.073 30.693 21.124 32.117"></polygon><polygon points="28.763 37.321 26 35.25 23.237 37.321 26 43.538 28.763 37.321"></polygon><path d="M29,28.649V25.91A6,6,0,0,1,28,26H24a6,6,0,0,1-1-.09v2.739l3,3.75Z"></path></svg>