<svg xmlns="http://www.w3.org/2000/svg" viewBox="0 0 64 64" x="0px" y="0px"><g data-name="Pickup Truck-Vehicle-Truck-Transpoet-Pickup"><path d="M62.08,38.95a1.962,1.962,0,0,0-1.7-.95H60V30a3.009,3.009,0,0,0-3-3H41a1,1,0,0,1-1-1V19a3.009,3.009,0,0,0-3-3H28.03a2.974,2.974,0,0,0-2.44,1.27l-5.96,8.4a.958.958,0,0,1-.7.47L8.34,27.55A5.018,5.018,0,0,0,4,32.5V38H3.62a2,2,0,0,0-1.79,2.89l1.13,2.26a2.016,2.016,0,0,0,.89.89l2.26,1.13a2.005,2.005,0,0,0,.89.21,1.968,1.968,0,0,0,1.05-.3.392.392,0,0,0,.1-.08h3.53a6.993,6.993,0,0,0,12.64,0H39.68a6.993,6.993,0,0,0,12.64,0h3.53a.392.392,0,0,0,.1.08,1.968,1.968,0,0,0,1.05.3,2.005,2.005,0,0,0,.89-.21l2.26-1.13a2.016,2.016,0,0,0,.89-.89l1.13-2.26A1.975,1.975,0,0,0,62.08,38.95ZM6,33H8v2H6ZM7,43.38,4.75,42.25,3.62,40H7ZM18,47a5,5,0,1,1,5-5A5,5,0,0,1,18,47Zm28,0a5,5,0,1,1,5-5A5,5,0,0,1,46,47Zm9-7v3H52.92A6.634,6.634,0,0,0,53,42a7,7,0,0,0-14,0,6.634,6.634,0,0,0,.08,1H24.92A6.634,6.634,0,0,0,25,42a7,7,0,0,0-14,0,6.634,6.634,0,0,0,.08,1H9V40a2.006,2.006,0,0,0-2-2H6V37H8a2.006,2.006,0,0,0,2-2V33a2.006,2.006,0,0,0-2-2H6.41A3.024,3.024,0,0,1,8.6,29.53l10.6-1.41a2.909,2.909,0,0,0,2.11-1.36l5.91-8.34a1.009,1.009,0,0,1,.81-.42H37a1,1,0,0,1,1,1v7a3.009,3.009,0,0,0,3,3H57a1,1,0,0,1,1,1H56a2.006,2.006,0,0,0-2,2v2a2.006,2.006,0,0,0,2,2h2v2H57A2.006,2.006,0,0,0,55,40Zm3-8v2H56V32Zm1.25,10.25L57,43.38V40h3.38Z"></path><path d="M34,20H30.025a3,3,0,0,0-2.435,1.248l-2.678,3.721a1.051,1.051,0,0,0-.083.136A2,2,0,0,0,26.618,28H34a2,2,0,0,0,2-2V22A2,2,0,0,0,34,20Zm-7.366,6,2.579-3.584A1,1,0,0,1,30.025,22H34v4Z"></path><rect x="32" y="30" width="4" height="2"></rect><path d="M18,39a3,3,0,1,0,3,3A3,3,0,0,0,18,39Zm0,4a1,1,0,1,1,1-1A1,1,0,0,1,18,43Z"></path><path d="M46,39a3,3,0,1,0,3,3A3,3,0,0,0,46,39Zm0,4a1,1,0,1,1,1-1A1,1,0,0,1,46,43Z"></path></g></svg>