<svg xmlns="http://www.w3.org/2000/svg" viewBox="0 0 64 64" x="0px" y="0px"><g data-name="Delivery"><path d="M61,36H57.975A26.036,26.036,0,0,0,34.769,11.149,2.972,2.972,0,0,0,35,10a3,3,0,0,0-6,0,2.972,2.972,0,0,0,.231,1.149A26.035,26.035,0,0,0,6.025,36H3a1,1,0,0,0-1,1v4a3,3,0,0,0,3,3h6.111a7,7,0,1,0,9.778,0H42.111a7,7,0,1,0,9.778,0H59a3,3,0,0,0,3-3V37A1,1,0,0,0,61,36ZM31,10a1,1,0,1,1,1,1A1,1,0,0,1,31,10Zm1,3A24.027,24.027,0,0,1,55.975,36H8.025A24.027,24.027,0,0,1,32,13ZM21,49a5,5,0,1,1-5-5A5.006,5.006,0,0,1,21,49Zm31,0a5,5,0,1,1-5-5A5.006,5.006,0,0,1,52,49Zm8-8a1,1,0,0,1-1,1H5a1,1,0,0,1-1-1V38H60Z"></path><path d="M44.386,21.3a20.352,20.352,0,0,1,1.885,1.692l1.425-1.4a22.29,22.29,0,0,0-2.07-1.858Z"></path><path d="M32,17a19.958,19.958,0,0,1,10.428,2.93l1.045-1.706A21.965,21.965,0,0,0,32,15Z"></path><path d="M16,52a3,3,0,1,0-3-3A3,3,0,0,0,16,52Zm0-4a1,1,0,1,1-1,1A1,1,0,0,1,16,48Z"></path><path d="M47,52a3,3,0,1,0-3-3A3,3,0,0,0,47,52Zm0-4a1,1,0,1,1-1,1A1,1,0,0,1,47,48Z"></path><rect x="6" y="11" width="2" height="2"></rect><rect x="10" y="11" width="8" height="2"></rect><rect x="4" y="15" width="8" height="2"></rect><rect x="2" y="19" width="6" height="2"></rect></g></svg>