<svg xmlns="http://www.w3.org/2000/svg" viewBox="0 0 64 64" x="0px" y="0px"><g data-name="coffee cup-coffee mug-espresso-drink-coffee"><path d="M21,16h2a2.258,2.258,0,0,1,.759-1.681,4.208,4.208,0,0,0,0-5.967,2.246,2.246,0,0,1,0-3.368A4.167,4.167,0,0,0,25,2H23a2.264,2.264,0,0,1-.76,1.684,4.21,4.21,0,0,0,0,5.968,2.243,2.243,0,0,1,0,3.365A4.162,4.162,0,0,0,21,16Z"></path><path d="M29,16h2a2.258,2.258,0,0,1,.759-1.681,4.208,4.208,0,0,0,0-5.967,2.246,2.246,0,0,1,0-3.368A4.167,4.167,0,0,0,33,2H31a2.264,2.264,0,0,1-.76,1.684,4.21,4.21,0,0,0,0,5.968,2.243,2.243,0,0,1,0,3.365A4.162,4.162,0,0,0,29,16Z"></path><path d="M49.47,20H9a.984.984,0,0,0-.88.53.963.963,0,0,0,.05,1.02A10.9,10.9,0,0,1,10,27.61V47a11.014,11.014,0,0,0,6,9.79V60a2.006,2.006,0,0,0,2,2H38a2.006,2.006,0,0,0,2-2V56.79a11.025,11.025,0,0,0,5.83-7.93A4.994,4.994,0,0,0,54,45H52a3.022,3.022,0,0,1-3.06,3,2.934,2.934,0,0,1-1.67-5.35l7.62-5.28A9.531,9.531,0,0,0,49.47,20ZM38,60H18V57.57A11.04,11.04,0,0,0,21,58H35a11.04,11.04,0,0,0,3-.43Zm6-32.39V47a9.014,9.014,0,0,1-9,9H21a9.014,9.014,0,0,1-9-9V27.61A12.879,12.879,0,0,0,10.72,22H45.28A12.879,12.879,0,0,0,44,27.61Zm9.76,8.11L46.13,41a1.47,1.47,0,0,0-.13.1V27.61A10.831,10.831,0,0,1,47.56,22h1.91a7.531,7.531,0,0,1,4.29,13.72Z"></path></g></svg>