<svg xmlns="http://www.w3.org/2000/svg" viewBox="0 0 64 64" x="0px" y="0px"><g data-name="Bomb"><path d="M59,12H58V10a2,2,0,0,0-2-2H53V5a3,3,0,0,0-3-3H34a2.981,2.981,0,0,0-2,.78A2.981,2.981,0,0,0,30,2H14a3,3,0,0,0-3,3V8H8a2,2,0,0,0-2,2v2H5a2,2,0,0,0-2,2V60a2,2,0,0,0,2,2H19a2,2,0,0,0,2-2V54h2v6a2,2,0,0,0,2,2H39a2,2,0,0,0,2-2V54h2v6a2,2,0,0,0,2,2H59a2,2,0,0,0,2-2V14A2,2,0,0,0,59,12Zm0,18H48V25a3,3,0,0,0-3-3V14H59ZM48,32H59V44H48ZM18,51V25a1,1,0,0,1,1-1H45a1,1,0,0,1,1,1V51a1,1,0,0,1-1,1H19A1,1,0,0,1,18,51ZM36,10v2H28V10Zm3,4v8H25V14Zm17-2H48V10h8ZM34,4H50a1,1,0,0,1,1,1V8H48a2,2,0,0,0-2,2v2H45a2,2,0,0,0-2,2v8H41V14a2,2,0,0,0-2-2H38V10a2,2,0,0,0-2-2H33V5A1,1,0,0,1,34,4ZM13,5a1,1,0,0,1,1-1H30a1,1,0,0,1,1,1V8H28a2,2,0,0,0-2,2v2H25a2,2,0,0,0-2,2v8H21V14a2,2,0,0,0-2-2H18V10a2,2,0,0,0-2-2H13ZM8,10h8v2H8Zm11,4v8a3,3,0,0,0-3,3v5H5V14ZM16,44H5V32H16Zm3,16H5V46H16v5a3,3,0,0,0,3,3Zm20,0H25V54H39Zm6,0V54a3,3,0,0,0,3-3V46H59V60Z"></path><path d="M33,33.1V28H31v5.1A5,5,0,1,0,36.9,39H40V37H36.9A5.016,5.016,0,0,0,33,33.1ZM32,41a3,3,0,1,1,3-3A3,3,0,0,1,32,41Z"></path><rect x="31" y="37" width="2" height="2"></rect></g></svg>