<svg xmlns="http://www.w3.org/2000/svg" viewBox="0 0 64 64" x="0px" y="0px"><g data-name="Smartphone-Mobilephone-Payment-Online Payment-Money"><path d="M52,2H28a7.008,7.008,0,0,0-7,7v3h2V9a5.006,5.006,0,0,1,5-5H52a5.006,5.006,0,0,1,5,5V55a5.006,5.006,0,0,1-5,5H28a5.006,5.006,0,0,1-5-5V48H21v7a7.008,7.008,0,0,0,7,7H52a7.008,7.008,0,0,0,7-7V9A7.008,7.008,0,0,0,52,2Z"></path><rect x="31" y="6" width="2" height="2"></rect><rect x="35" y="6" width="10" height="2"></rect><path d="M38,52a3,3,0,0,0,0,6h4a3,3,0,0,0,0-6Zm5,3a1,1,0,0,1-1,1H38a1,1,0,0,1,0-2h4A1,1,0,0,1,43,55Z"></path><path d="M39,12v2H19a2.006,2.006,0,0,0-2,2v4H15a1.138,1.138,0,0,0-.45.1L10.77,22H6a1,1,0,0,0-1,1V39a1,1,0,0,0,1,1H17v4a2.006,2.006,0,0,0,2,2H39v2h2V12ZM25,16h2.87A4.013,4.013,0,0,1,25,18.86Zm-3,0h1v4H22Zm-3,0h1v4H19Zm1,28H19V29.87a6.761,6.761,0,0,0,.83-1.01c.07-.09.11-.19.17-.28Zm3,0H22V26h1Zm1-19.99L21,24H20a1,1,0,0,0-1,1,4.935,4.935,0,0,1-.58,2.33c-.08.15-.16.29-.25.43A4.938,4.938,0,0,1,14,30l-.01,2h.05a7.056,7.056,0,0,0,2.64-.52c.11-.05.21-.12.32-.17V38H7V24h4a1,1,0,0,0,.45-.11L15.23,22H24a.957.957,0,0,1,.71.29.984.984,0,0,1,.29.7.954.954,0,0,1-.31.72A1,1,0,0,1,24,24.01ZM25,44V41.14A4.017,4.017,0,0,1,27.86,44Zm14,0H36.14A4.017,4.017,0,0,1,39,41.14Zm0-4.91A5.992,5.992,0,0,0,34.09,44H29.91A5.992,5.992,0,0,0,25,39.09V25.82a2.873,2.873,0,0,0,1.11-.7,2.982,2.982,0,0,0,.01-4.24,2.11,2.11,0,0,0-.23-.19A6,6,0,0,0,29.91,16h4.18A5.992,5.992,0,0,0,39,20.91Zm0-20.23A4.017,4.017,0,0,1,36.14,16H39Z"></path><path d="M32,35a5,5,0,1,0-5-5A5.006,5.006,0,0,0,32,35Zm0-8a3,3,0,1,1-3,3A3,3,0,0,1,32,27Z"></path></g></svg>