<svg xmlns="http://www.w3.org/2000/svg" viewBox="0 0 64 64" x="0px" y="0px"><title>Tube</title><g data-name="Tube"><path d="M50.911,44.445,39.1,19.978a1,1,0,0,1-.1-.435V8h1a1,1,0,0,0,1-1V3a1,1,0,0,0-1-1H24a1,1,0,0,0-1,1V7a1,1,0,0,0,1,1h1V19.543a1,1,0,0,1-.1.435L13.089,44.445A21.125,21.125,0,0,0,11,53.575V57a5.006,5.006,0,0,0,5,5H48a5.006,5.006,0,0,0,5-5V53.575A21.125,21.125,0,0,0,50.911,44.445ZM25,4H39V6H25ZM48,60H16a3,3,0,0,1-3-3V53.575a19.1,19.1,0,0,1,1.89-8.261L26.7,20.847a3.032,3.032,0,0,0,.3-1.3V8H37V19.543a3.032,3.032,0,0,0,.3,1.3L38.821,24H36v2h3.787l1.93,4H39v2h3.683l1.931,4H42v2h3.579l1.931,4H45v2h3.476l.634,1.314A18.9,18.9,0,0,1,50.155,48H47v2h3.651A19.016,19.016,0,0,1,51,53.575V54H48v2h3v1A3,3,0,0,1,48,60Z"></path></g></svg>