<svg xmlns="http://www.w3.org/2000/svg" viewBox="0 0 64 64" x="0px" y="0px"><path d="M36,15a4,4,0,1,0-4,4A4,4,0,0,0,36,15Zm-4,2a2,2,0,1,1,2-2A2,2,0,0,1,32,17Z"></path><rect x="26" y="43" width="2" height="2"></rect><rect x="36" y="43" width="2" height="2"></rect><rect x="23" y="54" width="4" height="2"></rect><rect x="29" y="54" width="12" height="2"></rect><path d="M53.71,9.29l-7-7A1.033,1.033,0,0,0,46,2H13a3.009,3.009,0,0,0-3,3V59a3.009,3.009,0,0,0,3,3H51a3.009,3.009,0,0,0,3-3V10A1.033,1.033,0,0,0,53.71,9.29ZM46,4.41,51.59,10H47a1,1,0,0,1-1-1ZM52,59a1,1,0,0,1-1,1H13a1,1,0,0,1-1-1V5a1,1,0,0,1,1-1H44V9a3.009,3.009,0,0,0,3,3h5Z"></path><path d="M44.3,21.54l-4.15-4.79.34-.34a1.992,1.992,0,0,0,0-2.82L39,12.1V10a2.006,2.006,0,0,0-2-2H34.9L33.41,6.51a2.01,2.01,0,0,0-2.82,0L29.1,8H27a2.006,2.006,0,0,0-2,2v2.1l-1.49,1.49a1.992,1.992,0,0,0,0,2.82l.34.34L19.7,21.54a.971.971,0,0,0-.17,1.03,1,1,0,0,0,.85.62l4.24.3.89,4.16a1.009,1.009,0,0,0,.73.76,1.068,1.068,0,0,0,.25.03,1.017,1.017,0,0,0,.76-.34l3.74-4.31a1.962,1.962,0,0,0,2.02,0l3.74,4.31a1.017,1.017,0,0,0,.76.34,1.068,1.068,0,0,0,.25-.03,1.009,1.009,0,0,0,.73-.76l.89-4.16,4.24-.3a1,1,0,0,0,.85-.62A.971.971,0,0,0,44.3,21.54Zm-18.79.01-2.99-.21L25,18.47V20a2.022,2.022,0,0,0,.86,1.65A.878.878,0,0,0,25.51,21.55Zm1.54,3.72-.63-2.93a.95.95,0,0,0-.37-.58A2.028,2.028,0,0,0,27,22h2.1l.42.42ZM32,22.07l-1.49-1.48A1.966,1.966,0,0,0,29.1,20H27V17.9a1.966,1.966,0,0,0-.59-1.41L24.93,15l1.48-1.49A1.966,1.966,0,0,0,27,12.1V10h2.1a1.966,1.966,0,0,0,1.41-.59L32,7.93l1.49,1.48A1.966,1.966,0,0,0,34.9,10H37v2.1a1.966,1.966,0,0,0,.59,1.41L39.07,15l-1.48,1.49A1.966,1.966,0,0,0,37,17.9V20H34.9a1.966,1.966,0,0,0-1.41.59Zm5.58.27-.63,2.93-2.47-2.85L34.9,22H37a2.028,2.028,0,0,0,.95-.24A.95.95,0,0,0,37.58,22.34Zm.91-.79a.878.878,0,0,0-.35.1A2.022,2.022,0,0,0,39,20V18.47l2.48,2.87Z"></path><path d="M42,40V38H40a.988.988,0,0,0-.89.55l-.11.21-2.11-4.21A.988.988,0,0,0,36,34V31a1,1,0,0,0-1-1H29a1,1,0,0,0-1,1v3a.988.988,0,0,0-.89.55L25,38.76l-.11-.21A.988.988,0,0,0,24,38H22v2h1.38l.19.38A2.994,2.994,0,0,0,22,43v2a3.01,3.01,0,0,0,2,2.82V50a2.006,2.006,0,0,0,2,2h2a2.006,2.006,0,0,0,2-2V48h4v2a2.006,2.006,0,0,0,2,2h2a2.006,2.006,0,0,0,2-2V47.82A3.01,3.01,0,0,0,42,45V43a2.994,2.994,0,0,0-1.57-2.62l.19-.38ZM30,32h4v2H30Zm-1.38,4h6.76l2,4H26.62ZM28,50H26V48h2Zm10,0H36V48h2Zm2-5a1,1,0,0,1-1,1H25a1,1,0,0,1-1-1V43a1,1,0,0,1,1-1H39a1,1,0,0,1,1,1Z"></path></svg>