<svg xmlns="http://www.w3.org/2000/svg" viewBox="0 0 64 64" x="0px" y="0px"><g data-name="Push pin"><path d="M49,32A11.013,11.013,0,0,0,38,43a1,1,0,0,0,1,1h6.153l2.861,17.165a1,1,0,0,0,1.972,0L52.847,44H59a1,1,0,0,0,1-1A11.013,11.013,0,0,0,49,32Zm0,22.917L47.181,44h3.638ZM40.056,42a9,9,0,0,1,17.888,0Z"></path><path d="M38.581,26.814,52.741,16.7l4.351,4.35a1,1,0,0,0,1.414,0A11,11,0,0,0,42.95,5.494a1,1,0,0,0,0,1.414L47.3,11.259,37.187,25.419a1,1,0,0,0,1.394,1.395ZM57.092,6.908A9.015,9.015,0,0,1,57.76,18.89l-4.2-4.2L45.11,6.24A9.013,9.013,0,0,1,57.092,6.908Zm-8.358,5.785,2.574,2.573L42.3,21.7Z"></path><path d="M6.908,21.05l4.351-4.35,14.16,10.114a1,1,0,0,0,1.394-1.395L16.7,11.259,21.05,6.908a1,1,0,0,0,0-1.414A11,11,0,0,0,5.494,21.05a1,1,0,0,0,1.414,0Zm5.784-5.784,2.574-2.573L21.7,21.7ZM6.908,6.908A9.013,9.013,0,0,1,18.89,6.24l-8.447,8.447-4.2,4.2A9.015,9.015,0,0,1,6.908,6.908Z"></path><path d="M17,32A11.013,11.013,0,0,0,6,43a1,1,0,0,0,1,1h6.153l2.861,17.165a1,1,0,0,0,1.972,0L20.847,44H27a1,1,0,0,0,1-1A11.013,11.013,0,0,0,17,32Zm0,22.917L15.181,44h3.638ZM8.056,42a9,9,0,0,1,17.888,0Z"></path></g></svg>