<svg xmlns="http://www.w3.org/2000/svg" viewBox="0 0 64 64" x="0px" y="0px"><g><polygon points="30.41 28 32 29.59 33.59 28 30.41 28"></polygon><path d="M29,33a3.01,3.01,0,0,0,2,2.82V31.41l-2-2Z"></path><path d="M33,25a1,1,0,0,0-2,0v1h2Z"></path><path d="M50,8a4,4,0,0,0-4-4H18a4,4,0,0,0-4,4V56a4,4,0,0,0,4,4H46a4,4,0,0,0,4-4ZM29,6h6V8H29ZM25,6h2V8H25Zm9,52H30a3,3,0,0,1,0-6h4a3,3,0,0,1,0,6Zm7-33a3.009,3.009,0,0,1-3,3H37v2h4v2H37v1a5.468,5.468,0,0,1-.1,1H38a3.009,3.009,0,0,1,3,3v3H39V37a1,1,0,0,0-1-1H36v-.03a4.956,4.956,0,0,1-8,0V36H26a1,1,0,0,0-1,1v3H23V37a3.009,3.009,0,0,1,3-3h1.1a5.468,5.468,0,0,1-.1-1V32H23V30h4V28H26a3.009,3.009,0,0,1-3-3V23h2v2a1,1,0,0,0,1,1h3V25a3,3,0,0,1,1.85-2.77A2.02,2.02,0,0,0,29,21V19a3.967,3.967,0,0,1,3,1.38A3.967,3.967,0,0,1,35,19v2a2.02,2.02,0,0,0-1.85,1.23A3,3,0,0,1,35,25v1h3a1,1,0,0,0,1-1V23h2Z"></path><path d="M33,35.82A3.01,3.01,0,0,0,35,33V29.41l-2,2Z"></path><path d="M34,54H30a1,1,0,0,0,0,2h4a1,1,0,0,0,0-2Z"></path></g></svg>