<svg xmlns="http://www.w3.org/2000/svg" viewBox="0 0 64 64" x="0px" y="0px"><g data-name="Laptop-Money-Money Bag-Coin-Currency"><rect x="29" y="13" width="6" height="1"></rect><path d="M21,25V35a1,1,0,0,1-1,1,1,1,0,0,0,0,2H44a1,1,0,0,0,0-2,1,1,0,0,1-1-1V25a9.01,9.01,0,0,0-9-9H30A9.01,9.01,0,0,0,21,25Zm17,1h2v2H38Zm-5,2H31a3,3,0,0,1,0-6V21h2v1a3,3,0,0,1,3,3H34a1,1,0,0,0-1-1H31a1,1,0,0,0,0,2h2a3,3,0,0,1,0,6v1H31V32a3,3,0,0,1-3-3h2a1,1,0,0,0,1,1h2a1,1,0,0,0,0-2Zm-9-2h2v2H24Z"></path><path d="M11,26a7.026,7.026,0,0,1-1-.08V44H54V21.92A6.932,6.932,0,0,1,46.08,16H40.305A10.99,10.99,0,0,1,45,25v9.171A3,3,0,0,1,44,40H20a3,3,0,0,1-1-5.829V25a10.99,10.99,0,0,1,4.7-9h-6.38A6.984,6.984,0,0,1,11,26Z"></path><path d="M53,20a5,5,0,1,0-5-5A5.006,5.006,0,0,0,53,20Zm0-9a4,4,0,0,1,4,4H55a2,2,0,0,0-2-2Zm-2,4a2,2,0,0,0,2,2v2a4,4,0,0,1-4-4Z"></path><polygon points="29.677 11 34.323 11 35.523 8 28.477 8 29.677 11"></polygon><rect x="4" y="58" width="56" height="2"></rect><polygon points="26.618 54 25.618 56 38.382 56 37.382 54 26.618 54"></polygon><path d="M38.9,52.553,40.618,56H59.382l-5-10H9.618l-5,10H23.382l1.723-3.447A1,1,0,0,1,26,52H38A1,1,0,0,1,38.9,52.553ZM54,54H52V52h2Zm-3-6h2v2H51Zm-1,6H48V52h2Zm-3-6h2v2H47Zm-4,0h2v2H43Zm-1,4h4v2H42Zm-3-4h2v2H39ZM19,48h2v2H19Zm-7,6H10V52h2Zm1-4H11V48h2Zm3,4H14V52h2Zm1-4H15V48h2Zm5,4H18V52h4Zm3-4H23V48h2Zm4,0H27V48h2Zm4,0H31V48h2Zm4,0H35V48h2Z"></path><path d="M11,24a5,5,0,1,0-5-5A5.006,5.006,0,0,0,11,24Zm0-9a4,4,0,0,1,4,4H13a2,2,0,0,0-2-2ZM9,19a2,2,0,0,0,2,2v2a4,4,0,0,1-4-4Z"></path><rect x="4" y="8" width="2" height="4"></rect><rect x="4" y="4" width="2" height="2"></rect><rect x="16" y="8" width="2" height="4"></rect><rect x="16" y="4" width="2" height="2"></rect><rect x="10" y="6" width="2" height="4"></rect><rect x="10" y="2" width="2" height="2"></rect><rect x="46" y="5" width="2" height="4"></rect><rect x="52" y="2" width="2" height="4"></rect><rect x="58" y="2" width="2" height="4"></rect></g></svg>