<svg xmlns="http://www.w3.org/2000/svg" viewBox="0 0 64 64" x="0px" y="0px"><title>Chart-Report_5</title><g data-name="Chart-Report"><path d="M23,31H22a1,1,0,0,0-1,1v3H16a1,1,0,0,0-1,1v4a1,1,0,0,0,1,1h3v3a1,1,0,0,0,1,1h3v3a1,1,0,0,0,1,1H40a1,1,0,0,0,1-1V45h3a1,1,0,0,0,1-1V41h3a1,1,0,0,0,1-1V36a1,1,0,0,0-1-1H43V32a1,1,0,0,0-1-1H41V28a1,1,0,0,0-1-1H39V24a1,1,0,0,0-1-1H26a1,1,0,0,0-1,1v3H24a1,1,0,0,0-1,1Zm0,2h8v2H23Zm-6,4H31v2H17Zm4,4H31v2H21Zm4,6V45h6v2Zm14,0H33V45h6Zm4-4H33V41H43Zm4-4H33V37H47ZM33,35V33h8v2Zm0-4V29h6v2Zm4-6v2H33V25ZM27,25h4v2H27Zm-2,4h6v2H25Z"></path><rect x="15" y="18" width="2" height="2"></rect><rect x="19" y="18" width="4" height="2"></rect><rect x="15" y="22" width="8" height="2"></rect><rect x="45" y="19" width="4" height="2"></rect><rect x="45" y="23" width="4" height="2"></rect><path d="M55,2H9A2,2,0,0,0,7,4V60a2,2,0,0,0,2,2H55a2,2,0,0,0,2-2V4A2,2,0,0,0,55,2ZM40,4V6H24V4ZM23,12H41a1,1,0,0,0,1-1V8h9V56H13V8h9v3A1,1,0,0,0,23,12Zm17-2H24V8H40ZM9,60V4H22V6H12a1,1,0,0,0-1,1V57a1,1,0,0,0,1,1H52a1,1,0,0,0,1-1V7a1,1,0,0,0-1-1H42V4H55V60Z"></path></g></svg>