<svg xmlns="http://www.w3.org/2000/svg" viewBox="0 0 64 64" x="0px" y="0px"><g><circle cx="31" cy="51" r="1"></circle><circle cx="41" cy="47" r="1"></circle><path d="M47,26H15a1,1,0,0,0-1,1v5H48V27A1,1,0,0,0,47,26ZM18,30H16V28h2Zm4,0H20V28h2Zm4,0H24V28h2Z"></path><path d="M14,34V57a1,1,0,0,0,1,1H47a1,1,0,0,0,1-1V34Zm16,3h2v9H30ZM21,50a3,3,0,1,1,3-3A3.009,3.009,0,0,1,21,50Zm6-8a1.033,1.033,0,0,1-.29.71l-2,2-1.42-1.42L25,41.59V37h2Zm4,12a3,3,0,1,1,3-3A3.009,3.009,0,0,1,31,54Zm4.29-11.29A1.033,1.033,0,0,1,35,42V37h2v4.59l1.71,1.7-1.42,1.42ZM41,50a3,3,0,1,1,3-3A3.009,3.009,0,0,1,41,50Z"></path><circle cx="21" cy="47" r="1"></circle><path d="M52,16a1,1,0,0,1-1-1,5,5,0,0,0-5-5,4.946,4.946,0,0,0-3.58,1.52,1.018,1.018,0,0,1-.86.29.982.982,0,0,1-.74-.52,9.992,9.992,0,0,0-18.73,3.45,1,1,0,0,1-1.67.61A5,5,0,0,0,12,19a1.1,1.1,0,0,1-.35.8,1.056,1.056,0,0,1-.81.27A4.842,4.842,0,0,0,10,20a6,6,0,0,0,0,12h2V27a3.009,3.009,0,0,1,3-3H47a3.009,3.009,0,0,1,3,3v5h2a8,8,0,0,0,0-16ZM32,10a5,5,0,0,0-5,5H25a7.008,7.008,0,0,1,7-7Zm13,6H43V14h2Zm4,0H47V14h2Z"></path></g></svg>