<svg xmlns="http://www.w3.org/2000/svg" viewBox="0 0 64 64" x="0px" y="0px"><title>Logistic-Idea</title><g><path d="M50,60H18V36a1,1,0,0,0-1-1H8.271L15.786,4H50V8h2V3a1,1,0,0,0-1-1H15a1,1,0,0,0-.972.765l-8,33A1,1,0,0,0,7,37h9V61a1,1,0,0,0,1,1H51a1,1,0,0,0,1-1V28H50Z"></path><path d="M22,15a2,2,0,0,1-4,0,1,1,0,0,0-2,0,4,4,0,0,0,8,0,1,1,0,0,0-2,0Z"></path><path d="M57,10H41a1,1,0,0,0-1,1V25a1,1,0,0,0,1,1H57a1,1,0,0,0,1-1V11A1,1,0,0,0,57,10Zm-1,3.975H52V12h4ZM50,12v1.975H48V12Zm-2,3.975h2V18H48ZM46,12v1.975H42V12ZM42,24V15.975h4V19a1,1,0,0,0,1,1h4a1,1,0,0,0,1-1V15.975h4V24Z"></path></g></svg>