<svg xmlns="http://www.w3.org/2000/svg" viewBox="0 0 64 64" x="0px" y="0px"><g><circle cx="19" cy="21" r="2"></circle><circle cx="27" cy="21" r="2"></circle><path d="M26.307,27.75l-1.323-1.5a3.076,3.076,0,0,1-3.968,0l-1.323,1.5a5,5,0,0,0,6.614,0Z"></path><path d="M23,5a3,3,0,1,0,3,3A3,3,0,0,0,23,5Zm0,4a1,1,0,1,1,1-1A1,1,0,0,1,23,9Z"></path><rect x="14" y="49" width="6" height="2"></rect><path d="M59,42H40.78a8.891,8.891,0,0,0-3.09-1.7L28,37.26V33.79A11.028,11.028,0,0,0,33.95,25H34a3.993,3.993,0,0,0,.61-7.94A2.47,2.47,0,0,0,36,14.83V13a1,1,0,0,0-1-1h-.28l2.27-3.97a3.014,3.014,0,0,0-.8-3.89L35.2,3.4A7.042,7.042,0,0,0,31,2H15a7.042,7.042,0,0,0-4.2,1.4l-.99.74a3,3,0,0,0-.8,3.89L11.28,12H11a1,1,0,0,0-1,1v1.83a2.47,2.47,0,0,0,1.39,2.23A3.993,3.993,0,0,0,12,25h.05a10.919,10.919,0,0,0,3.17,6.78A11.064,11.064,0,0,0,18,33.79v3.47L8.31,40.29A8.963,8.963,0,0,0,2,48.88V61a1,1,0,0,0,1,1H59a3.009,3.009,0,0,0,3-3V45A3.009,3.009,0,0,0,59,42Zm0,2a.988.988,0,0,1,.84.49L48,50.86,36.16,44.49A.988.988,0,0,1,37,44ZM28.73,39.59l-1.17,3.55-2.87-2.87,2.4-1.2ZM36,21a2.015,2.015,0,0,1-2,2V19A2.006,2.006,0,0,1,36,21ZM10.74,7.04a1.008,1.008,0,0,1,.27-1.3L12,5a5.053,5.053,0,0,1,3-1H31a5.053,5.053,0,0,1,3,1l.99.74a1.02,1.02,0,0,1,.27,1.3L32.42,12H13.58ZM12,23a2.015,2.015,0,0,1-2-2,2.006,2.006,0,0,1,2-2Zm0-8.17V14H34v.83a.483.483,0,0,1-.38.48,22.723,22.723,0,0,1-5.57.69H17.95a22.723,22.723,0,0,1-5.57-.69A.483.483,0,0,1,12,14.83Zm4.64,15.53A8.942,8.942,0,0,1,14,24V17.67a24.966,24.966,0,0,0,3.95.33h10.1A24.966,24.966,0,0,0,32,17.67V24a8.994,8.994,0,0,1-15.36,6.36Zm2.27,8.71,2.4,1.2-2.87,2.87-1.17-3.55ZM22,60H12V49H10V60H4V48.88A6.964,6.964,0,0,1,8.91,42.2l6.45-2.01,1.69,5.12a1,1,0,0,0,.72.66A.908.908,0,0,0,18,46a1.007,1.007,0,0,0,.71-.29L22,42.41ZM20,37.38v-2.8a10.8,10.8,0,0,0,6-.01v2.81l-3,1.5ZM34,45V60H24V42.41l3.29,3.3A1.007,1.007,0,0,0,28,46a.908.908,0,0,0,.23-.03,1,1,0,0,0,.72-.66l1.69-5.12,5.94,1.85A3,3,0,0,0,34,45Zm2,1.67,8.47,4.57L36,57.09ZM59,60H37a.978.978,0,0,1-.88-.56L46.45,52.3l1.08.58a.98.98,0,0,0,.94,0l1.21-.65,10.21,7.21A1,1,0,0,1,59,60Zm1-2.93-8.36-5.9L60,46.67Z"></path></g></svg>