<svg xmlns="http://www.w3.org/2000/svg" viewBox="0 0 64 64" x="0px" y="0px"><g data-name="Cloud-Cloud Computing-Cpu-Processor-Chip"><path d="M50.83,20.17a1.007,1.007,0,0,1-.84-.99c0-.03.01-.14.01-.17a8.008,8.008,0,0,0-10.35-7.66.984.984,0,0,1-1.18-.48A13,13,0,0,0,14,17a12.177,12.177,0,0,0,.17,2,1.021,1.021,0,0,1-.18.74,1,1,0,0,1-.66.4A10.993,10.993,0,0,0,15,42h1.53a15.972,15.972,0,0,1,30.94,0H49a10.991,10.991,0,0,0,1.83-21.83ZM27,9a8.009,8.009,0,0,0-8,8H17A10.011,10.011,0,0,1,27,7ZM49,39V37a6.006,6.006,0,0,0,6-6h2A8.009,8.009,0,0,1,49,39Z"></path><path d="M28,50h8V42H28Zm3-5h2v2H31Z"></path><path d="M32,32A14,14,0,1,0,46,46,14.015,14.015,0,0,0,32,32Zm9.32,18.73L39.59,49H38v2a1,1,0,0,1-1,1H35v1.59l1.73,1.73-1.41,1.41-2.03-2.02A1.033,1.033,0,0,1,33,54V52H31v2a1.033,1.033,0,0,1-.29.71l-2.03,2.02-1.41-1.41L29,53.59V52H27a1,1,0,0,1-1-1V49H24.41l-1.73,1.73-1.41-1.41,2.02-2.03A1.033,1.033,0,0,1,24,47h2V45H24a1.033,1.033,0,0,1-.71-.29l-2.02-2.03,1.41-1.41L24.41,43H26V41a1,1,0,0,1,1-1h2V38.41l-1.73-1.73,1.41-1.41,2.03,2.02A1.033,1.033,0,0,1,31,38v2h2V38a1.033,1.033,0,0,1,.29-.71l2.03-2.02,1.41,1.41L35,38.41V40h2a1,1,0,0,1,1,1v2h1.59l1.73-1.73,1.41,1.41-2.02,2.03A1.033,1.033,0,0,1,40,45H38v2h2a1.033,1.033,0,0,1,.71.29l2.02,2.03Z"></path></g></svg>