<svg xmlns="http://www.w3.org/2000/svg" viewBox="0 0 64 64" x="0px" y="0px"><g><path d="M47.916,51.434a6,6,0,1,0-9.837-.007,5.365,5.365,0,0,0,.628.755,5.978,5.978,0,0,0,8.575.012A5.437,5.437,0,0,0,47.916,51.434ZM43,53a5,5,0,1,1,5-5A5.006,5.006,0,0,1,43,53Z"></path><path d="M60,16a3,3,0,0,0-3-3H7a3,3,0,0,0-3,3V48a3,3,0,0,0,3,3H35.583c-.065-.16-.117-.325-.171-.489-.018-.054-.04-.107-.057-.162a7.923,7.923,0,0,1-.238-1.024c-.013-.08-.024-.159-.035-.239,0-.029-.009-.057-.012-.086H8a2,2,0,0,1-2-2V17a2,2,0,0,1,2-2H56a2,2,0,0,1,2,2V47a2,2,0,0,1-2,2H50.93c0,.029-.009.058-.013.087-.01.079-.021.158-.034.237a7.985,7.985,0,0,1-.239,1.028c-.016.052-.037.1-.054.153-.055.166-.108.333-.173.495H57a3,3,0,0,0,3-3Z"></path><path d="M39.07,54.958c-.023-.013-.048-.021-.07-.034v4.6l3.628-1.452a1.01,1.01,0,0,1,.744,0L47,59.523v-4.6c-.018.011-.039.017-.057.028a7.937,7.937,0,0,1-7.873.006Z"></path><circle cx="43" cy="48" r="3"></circle><path d="M49.224,42.985c.09.112.174.228.258.344.06.084.124.166.181.252.087.131.166.268.246.4.045.078.095.154.138.233.11.2.21.413.3.627.007.017.016.033.023.05.1.228.183.463.258.7.025.078.042.159.064.238.047.165.093.33.129.5.02.095.033.194.05.29.022.125.049.248.065.375H56V17L8,17V47H35.062c.016-.127.043-.25.065-.375.017-.1.03-.2.05-.29.036-.17.082-.335.129-.5.022-.079.039-.16.064-.238.075-.239.161-.474.258-.7.007-.017.016-.033.023-.05.092-.214.192-.423.3-.627.043-.079.093-.155.138-.233.08-.136.159-.273.246-.4.057-.086.121-.168.181-.252.084-.116.168-.232.258-.344.069-.085.142-.165.214-.247.09-.1.182-.207.278-.306.077-.08.158-.156.239-.233.1-.093.2-.185.3-.273.085-.073.173-.144.262-.213q.159-.126.324-.243c.092-.065.185-.128.28-.189.114-.074.231-.144.349-.212.1-.057.2-.112.295-.164.123-.064.248-.123.374-.18.1-.046.2-.093.3-.135.133-.054.269-.1.405-.148.1-.035.2-.072.307-.1.145-.044.293-.079.441-.114.1-.024.2-.051.3-.071.166-.033.337-.055.507-.078.086-.011.171-.028.258-.036a7.762,7.762,0,0,1,1.574,0c.087.008.172.025.258.036.17.023.341.045.507.078.1.02.2.047.3.071.148.035.3.07.441.114.1.031.2.068.307.1.136.047.272.094.405.148.1.042.2.089.3.135.126.057.251.116.374.18.1.052.2.107.295.164.118.068.235.138.349.212.095.061.188.124.28.189q.165.117.324.243c.089.069.177.14.262.213.1.088.2.18.3.273.081.077.162.153.239.233.1.1.188.2.278.306C49.082,42.82,49.155,42.9,49.224,42.985ZM22,23H42v2H22ZM48,33H16V31H48Z"></path></g></svg>