<svg xmlns="http://www.w3.org/2000/svg" viewBox="0 0 64 64" x="0px" y="0px"><g><path d="M58.68,42.37,45.05,50.24a16.807,16.807,0,0,1-10.38,2.17l-12.68-1.4L2.1,53l-.2-2,20-2a1.477,1.477,0,0,1,.21.01l12.78,1.42a14.956,14.956,0,0,0,9.16-1.92l13.63-7.88a1.986,1.986,0,0,0,.73-2.73,2,2,0,0,0-2.73-.73L45.01,43.33a5.009,5.009,0,0,1-2.5.67H32V42H42a2,2,0,0,0,0-4H35a.937.937,0,0,1-.37-.07l-3.21-1.29A9.149,9.149,0,0,0,28.07,36h-1.3a9,9,0,0,0-4.63,1.28l-2.63,1.58A1,1,0,0,1,19,39H2V37H18.72l2.39-1.43A10.974,10.974,0,0,1,26.77,34h1.3a10.825,10.825,0,0,1,4.09.79L35.19,36H42a4,4,0,0,1,4,4,3.906,3.906,0,0,1-.05.48l8.73-5.04a4.008,4.008,0,0,1,5.47,1.46A4.018,4.018,0,0,1,58.68,42.37Z"></path><path d="M42,24H40a1,1,0,0,1-1-1H37a3,3,0,0,0,3,3v1h2V26a3,3,0,0,0,0-6H40a1,1,0,0,1,0-2h2a1,1,0,0,1,1,1h2a3,3,0,0,0-3-3V15H40v1a3,3,0,0,0,0,6h2a1,1,0,0,1,0,2Z"></path><path d="M57,10H25a2.006,2.006,0,0,0-2,2V30a2.006,2.006,0,0,0,2,2H57a2.006,2.006,0,0,0,2-2V12A2.006,2.006,0,0,0,57,10ZM33,30H25V28h8Zm0-4H25V24h8Zm0-4H25V20h8Zm0-4H25V16h8Zm0-4H25V12h8ZM47,30H35V12H47Zm10,0H49V28h8Zm0-4H49V24h8Zm0-4H49V20h8Zm0-4H49V16h8Zm0-4H49V12h8Z"></path><rect x="44" y="6" width="12" height="2"></rect><rect x="40" y="6" width="2" height="2"></rect></g></svg>