<svg xmlns="http://www.w3.org/2000/svg" viewBox="0 0 64 64" x="0px" y="0px"><g><rect x="43" y="14" width="2" height="2"></rect><rect x="49" y="14" width="2" height="2"></rect><path d="M58.01,29.16a5.973,5.973,0,0,0,.76-9.83A3.956,3.956,0,0,0,59,18a4,4,0,0,0-3-3.87V11a9,9,0,0,0-18,0v3.13A4,4,0,0,0,35,18a3.956,3.956,0,0,0,.23,1.33,5.973,5.973,0,0,0,.76,9.83A9,9,0,0,0,32,36.6a9.01,9.01,0,0,0-5.92-8.45L21,26.3V23.92A8.06,8.06,0,0,0,24.74,19H25a3,3,0,0,0,0-6V10A8,8,0,0,0,9,10v3a3,3,0,0,0,0,6h.26A8.06,8.06,0,0,0,13,23.92V26.3L7.92,28.15A9.01,9.01,0,0,0,2,36.6V47H12.27a1.094,1.094,0,0,0,.5-.13L23.96,40.4a1.019,1.019,0,0,1,.76-.1,1.006,1.006,0,0,1,.71,1.23.971.971,0,0,1-.47.6l-3.46,2a1.022,1.022,0,0,0-.47,1.13A1,1,0,0,0,22,46H34a1,1,0,0,1,0,2H25a1,1,0,0,0,0,2H38a1,1,0,0,1,0,2H25a1,1,0,0,0,0,2h9a1,1,0,0,1,0,2H25a1,1,0,0,0,0,2h5a1,1,0,0,1,0,2H16.24l-3.79-1.89A1,1,0,0,0,12,58H2v2h9.76l3.79,1.89A1,1,0,0,0,16,62H30a3,3,0,0,0,2.83-4H48a1,1,0,0,0,.45-.11L52.24,56H62V54H52a1,1,0,0,0-.45.11L47.76,56H36.82a2.945,2.945,0,0,0,.01-2H38a3,3,0,0,0,0-6H36.83a2.945,2.945,0,0,0-.01-2H39a1,1,0,0,0,0-2H30a1,1,0,0,1,0-2H41.12A5,5,0,0,0,46,46h1V44H46a3.009,3.009,0,0,1-3-3,1,1,0,0,0-.5-.87l-3.46-2a.971.971,0,0,1-.47-.6,1,1,0,0,1,1.47-1.13l11.19,6.47a1.094,1.094,0,0,0,.5.13H62V36.6A9,9,0,0,0,58.01,29.16ZM25,15a1,1,0,0,1,0,2ZM9,17a1,1,0,0,1,0-2Zm2-7a6,6,0,0,1,12,0v.97a2.006,2.006,0,0,1-1.6-1.49l-.43-1.72A1,1,0,0,0,19,8a3.009,3.009,0,0,1-3,3H11Zm0,7V13h5a5.012,5.012,0,0,0,3.93-1.91A3.99,3.99,0,0,0,23,12.98V17a6,6,0,0,1-12,0Zm3.01,26.84L12,45H10V35H8V45H4V36.6a7.03,7.03,0,0,1,4.61-6.58l1.54-.56,2.01,3.09a1.015,1.015,0,0,0,.74.44A.34.34,0,0,0,13,33a1.007,1.007,0,0,0,.71-.29l.53-.54.73,1.09Zm-.85-13.42-1.08-1.66,1.86-.67,1.04.52Zm2.97,12.2L16.91,34h.18l.7,7.66ZM17.46,32h-.92l-.85-1.27L17,29.41l1.31,1.32ZM19,26.38,17.76,27H16.24L15,26.38V24.74a7.822,7.822,0,0,0,4,0Zm1.06,1.71,1.86.67-1.08,1.66-1.82-1.81ZM25.73,44l.23-.13a3.046,3.046,0,0,0,1.06-1.05A1.1,1.1,0,0,0,27,43a3.01,3.01,0,0,0,.19,1ZM30,40a2.969,2.969,0,0,0-2.54,1.43,2.945,2.945,0,0,0-.4-1.66A2.912,2.912,0,0,0,26,38.71V35H24v3.31a3.068,3.068,0,0,0-1.04.36l-3.27,1.89-.66-7.3.73-1.09.53.54A1.007,1.007,0,0,0,21,33a.34.34,0,0,0,.1-.01,1.015,1.015,0,0,0,.74-.44l2.01-3.09,1.54.56A7.03,7.03,0,0,1,30,36.6ZM55,16a2.006,2.006,0,0,1,2,2,2.13,2.13,0,0,1-.34,1.13.958.958,0,0,0-.13.77.988.988,0,0,0,.47.64,3.987,3.987,0,0,1-1.47,7.41L51,26.3V23.92A8.005,8.005,0,0,0,55,17ZM49.66,27.94l.7.25a7.374,7.374,0,0,1-6.72,0l.7-.25A.992.992,0,0,0,45,27V24.74A7.9,7.9,0,0,0,47,25a8.242,8.242,0,0,0,2-.26V27A.992.992,0,0,0,49.66,27.94ZM47,23a6.009,6.009,0,0,1-6-6V12.94A7.792,7.792,0,0,0,42,13a10.362,10.362,0,0,0,4.39-1.08A8.622,8.622,0,0,1,50,11a3.237,3.237,0,0,1,2.4.8c.18.13.38.28.6.42V17A6,6,0,0,1,47,23ZM47,4a7,7,0,0,1,6.97,6.47c-.12-.09-.24-.18-.37-.27A5.178,5.178,0,0,0,50,9a10.362,10.362,0,0,0-4.39,1.08A8.622,8.622,0,0,1,42,11a3.589,3.589,0,0,1-1.58-.28.953.953,0,0,0-.4-.08A7,7,0,0,1,47,4ZM35,24a4.015,4.015,0,0,1,2-3.46.988.988,0,0,0,.47-.64.958.958,0,0,0-.13-.77A2.13,2.13,0,0,1,37,18a2.006,2.006,0,0,1,2-2v1a7.949,7.949,0,0,0,2.34,5.66A7.74,7.74,0,0,0,43,23.92V26.3l-4.53,1.65A4.007,4.007,0,0,1,35,24ZM46,37.54l-4.96-2.87a3,3,0,0,0-4.1,1.1,3,3,0,0,0,1.1,4.1l.23.13H34V36.6a7.03,7.03,0,0,1,4.61-6.58l2.09-.76L46,36.33Zm-1.81-6.96a9.61,9.61,0,0,0,5.62,0L47,34.33ZM60,41H58a5.866,5.866,0,0,0-2-4.41V35H54v2a1.033,1.033,0,0,0,.29.71c.96.95,1.71,1.7,1.71,3.29H52l-4-2.31V36.33l5.3-7.07,2.09.76A7.03,7.03,0,0,1,60,36.6Z"></path><path d="M47,19a1,1,0,0,1-1-1H44a3,3,0,0,0,6,0H48A1,1,0,0,1,47,19Z"></path><rect x="13" y="14" width="2" height="2"></rect><rect x="19" y="14" width="2" height="2"></rect><path d="M20,18H18a1,1,0,0,1-2,0H14a3,3,0,0,0,6,0Z"></path></g></svg>