<svg xmlns="http://www.w3.org/2000/svg" viewBox="0 0 64 64" x="0px" y="0px"><title>Power-Book</title><g><path d="M15,12H53V38h2V3a1,1,0,0,0-1-1H14A5.006,5.006,0,0,0,9,7V57a5.006,5.006,0,0,0,5,5H40V60H15ZM14,4H53V6H15V8H53v2H14a3,3,0,0,1,0-6ZM11,57V10.974a4.954,4.954,0,0,0,2,.925V59.816A3,3,0,0,1,11,57Z"></path><path d="M49,27V17a1,1,0,0,0-1-1H20a1,1,0,0,0-1,1V27a1,1,0,0,0,1,1H48A1,1,0,0,0,49,27Zm-2-1H21V18H47Z"></path><path d="M52.3,40.5l-.6,1.908a9,9,0,1,1-5.4,0L45.7,40.5a11,11,0,1,0,6.6,0Z"></path><rect x="48" y="38" width="2" height="14"></rect></g></svg>