<svg xmlns="http://www.w3.org/2000/svg" viewBox="0 0 64 64" x="0px" y="0px"><g data-name="Banker"><polygon points="18.531 38.194 17.687 38.458 17.134 42.175 21.192 42.851 18.531 38.194"></polygon><path d="M28,18a2,2,0,1,0,2,2A2,2,0,0,0,28,18Zm1,3H27V19h2Z"></path><path d="M18,18a2,2,0,1,0,2,2A2,2,0,0,0,18,18Zm1,3H17V19h2Z"></path><path d="M14,14.739c1.314-.633,2.43-2.44,2.824-4.785a1,1,0,0,1,1.334-.771,15.009,15.009,0,0,0,9.684,0,1,1,0,0,1,1.334.771c.394,2.345,1.51,4.152,2.824,4.785V13a9,9,0,0,0-18,0Z"></path><path d="M11,19a1,1,0,0,0,1,1V18A1,1,0,0,0,11,19Z"></path><path d="M14,20a3.987,3.987,0,0,1,7.2-2.381,2.941,2.941,0,0,1,3.61,0A3.987,3.987,0,0,1,32,20V16.867c-2.052-.513-3.784-2.573-4.553-5.457a17.281,17.281,0,0,1-8.894,0c-.769,2.884-2.5,4.944-4.553,5.457Z"></path><polygon points="28.313 38.458 27.469 38.194 24.808 42.851 28.866 42.175 28.313 38.458"></polygon><polygon points="24.279 60 24.967 57.936 23.18 49 22.82 49 21.033 57.936 21.721 60 24.279 60"></polygon><path d="M4,60H9V48h2V60h8.612l-.561-1.684a.989.989,0,0,1-.031-.512l1.895-9.475-1.622-1.622a1,1,0,0,1,0-1.414l.626-.626-4.084-.681a1,1,0,0,1-.824-1.133l.555-3.731-5.247,1.642A8.951,8.951,0,0,0,4,49.35Z"></path><path d="M26,33.574a10.776,10.776,0,0,1-6,0v3.161l3,5.249,3-5.249Z"></path><path d="M34,18v2a1,1,0,0,0,0-2Z"></path><path d="M28,24a4,4,0,0,1-4-4,1,1,0,0,0-2,0,4,4,0,0,1-8,0v3a9,9,0,0,0,18,0V20A4,4,0,0,1,28,24Zm-5,5a4,4,0,0,1-4-4h2a2,2,0,0,0,4,0h2A4,4,0,0,1,23,29Z"></path><path d="M54,56V53.141A4.007,4.007,0,0,0,51.126,56Z"></path><rect x="56" y="30" width="1" height="9"></rect><rect x="56" y="41" width="1" height="4"></rect><rect x="59" y="30" width="1" height="9"></rect><rect x="56" y="47" width="1" height="9"></rect><path d="M42.858,30H40v2.858A4,4,0,0,0,42.858,30Z"></path><rect x="59" y="47" width="1" height="9"></rect><rect x="59" y="41" width="1" height="4"></rect><path d="M42,60V58H40a2,2,0,0,1-2-2V41.907a8.888,8.888,0,0,0-2.321-1.144l-5.245-1.641.555,3.731a1,1,0,0,1-.824,1.133l-4.084.681.626.626a1,1,0,0,1,0,1.414l-1.622,1.622L26.98,57.8a.989.989,0,0,1-.031.512L26.388,60H35V48h2V60Z"></path><circle cx="47" cy="43" r="3"></circle><path d="M40,53.142V56h2.858A4,4,0,0,0,40,53.142Z"></path><polygon points="21.414 46 22.414 47 23.586 47 24.586 46 23.586 45 22.414 45 21.414 46"></polygon><path d="M44.91,56h4.18A6.008,6.008,0,0,1,54,51.09V34.91A6.006,6.006,0,0,1,49.091,30H44.91A6.007,6.007,0,0,1,40,34.91V51.09A6.008,6.008,0,0,1,44.91,56ZM47,38a5,5,0,1,1-5,5A5.006,5.006,0,0,1,47,38Z"></path><path d="M54,32.858V30H51.143A3.993,3.993,0,0,0,54,32.858Z"></path></g></svg>