<svg xmlns="http://www.w3.org/2000/svg" viewBox="0 0 64 64" x="0px" y="0px"><g><path d="M24,19V18H17V56H47V18H40v1a1,1,0,0,1-1,1H25A1,1,0,0,1,24,19ZM43,51H21V49H43Zm0-6H21V43H43Zm0-6H21V37H43Zm0-6H21V31H43Zm0-8v2H21V25Z"></path><path d="M51,17a3.009,3.009,0,0,0-3-3H40v2h7a2.006,2.006,0,0,1,2,2V56a2.006,2.006,0,0,1-2,2H17a2.006,2.006,0,0,1-2-2V18a2.006,2.006,0,0,1,2-2h7V14H16a3.009,3.009,0,0,0-3,3V57a3.009,3.009,0,0,0,3,3H48a3.009,3.009,0,0,0,3-3Z"></path><polygon points="26 12 26 18 28.08 18 28.58 12 26 12"></polygon><polygon points="38 18 38 12 35.42 12 35.92 18 38 18"></polygon><polygon points="30.59 12 30.09 18 33.91 18 33.41 12 30.59 12"></polygon><path d="M36.96,4.5A3.086,3.086,0,0,0,33.89,2H30.11a3.086,3.086,0,0,0-3.07,2.5,3,3,0,0,0,1.34,3.02,1.052,1.052,0,0,1,.49.95L28.58,12h2.01l.28-3.37a3.04,3.04,0,0,0-1.41-2.79,1.015,1.015,0,0,1-.45-1.02A1.093,1.093,0,0,1,30.11,4h3.78a1.093,1.093,0,0,1,1.1.82,1.015,1.015,0,0,1-.45,1.02,3.04,3.04,0,0,0-1.41,2.79L33.41,12h2.01l-.29-3.53a1.052,1.052,0,0,1,.49-.95A2.985,2.985,0,0,0,37,4.99,2.7,2.7,0,0,0,36.96,4.5Z"></path></g></svg>