<svg xmlns="http://www.w3.org/2000/svg" viewBox="0 0 48 48" x="0px" y="0px"><title>Money-Exchange_1</title><g data-name="Money-Exchange"><path d="M6,8H42V25h2V7a1,1,0,0,0-1-1H5A1,1,0,0,0,4,7V27a1,1,0,0,0,1,1h8V26H6Z"></path><path d="M31,17a7,7,0,1,0-7,7A7.008,7.008,0,0,0,31,17Zm-7,5a5,5,0,1,1,5-5A5.006,5.006,0,0,1,24,22Z"></path><path d="M11,23a1,1,0,0,0,1,1h6V22H12.874A4.015,4.015,0,0,0,10,19.127V14.873A4.015,4.015,0,0,0,12.874,12H18V10H12a1,1,0,0,0-1,1,2,2,0,0,1-2,2,1,1,0,0,0-1,1v6a1,1,0,0,0,1,1A2,2,0,0,1,11,23Z"></path><path d="M40,14a1,1,0,0,0-1-1,2,2,0,0,1-2-2,1,1,0,0,0-1-1H30v2h5.126A4.015,4.015,0,0,0,38,14.873v4.254A4.015,4.015,0,0,0,35.126,22H30v2h6a1,1,0,0,0,1-1,2,2,0,0,1,2-2,1,1,0,0,0,1-1Z"></path><rect x="38" y="10" width="2" height="2"></rect><rect x="38" y="22" width="2" height="2"></rect><rect x="8" y="22" width="2" height="2"></rect><rect x="8" y="10" width="2" height="2"></rect><path d="M36,25a10.931,10.931,0,0,0-7.778,3.222l1.414,1.414A9,9,0,1,1,30.6,43.2l-1.2,1.6A11,11,0,1,0,36,25Z"></path><path d="M32,38v1a2,2,0,0,0,2,2h1v2h2V41h1a2,2,0,0,0,2-2V37a2,2,0,0,0-2-2H34V33h4v1h2V33a2,2,0,0,0-2-2H37V29H35v2H34a2,2,0,0,0-2,2v2a2,2,0,0,0,2,2h4v2H34V38Z"></path><rect x="41" y="35" width="2" height="2"></rect><rect x="29" y="35" width="2" height="2"></rect><path d="M24.464,36.051,23.05,37.465,25.586,40H19a3,3,0,0,1-3-3H14a5.006,5.006,0,0,0,5,5h6.586L23.05,44.535l1.414,1.414,4.243-4.242a1,1,0,0,0,0-1.414Z"></path><path d="M28,36V34a5.006,5.006,0,0,0-5-5H17.414l2.536-2.535-1.414-1.414-4.243,4.242a1,1,0,0,0,0,1.414l4.243,4.242,1.414-1.414L17.414,31H23a3,3,0,0,1,3,3v2Z"></path><rect x="22" y="26" width="4" height="2"></rect></g></svg>