<svg xmlns="http://www.w3.org/2000/svg" viewBox="0 0 64 64" x="0px" y="0px"><title>Newspaper</title><g><path d="M61,10H50V3a1,1,0,0,0-1-1H3A1,1,0,0,0,2,3V55a7.008,7.008,0,0,0,7,7H55a7.008,7.008,0,0,0,7-7V11A1,1,0,0,0,61,10ZM50.089,60H9a5.006,5.006,0,0,1-5-5V4H48V55a6.364,6.364,0,0,0,.1,1.164,6.884,6.884,0,0,0,.251,1.011c.013.041.024.084.038.125a6.929,6.929,0,0,0,.379.888c.025.05.05.1.077.149a6.784,6.784,0,0,0,.5.8c.031.043.064.084.1.126a6.808,6.808,0,0,0,.625.719C50.077,59.985,50.082,59.993,50.089,60ZM60,55a5,5,0,0,1-9.927.817A4.515,4.515,0,0,1,50,55V12h4V55a1,1,0,0,0,2,0V12h4Z"></path><path d="M29,8H7A1,1,0,0,0,6,9V27a1,1,0,0,0,1,1H29a1,1,0,0,0,1-1V9A1,1,0,0,0,29,8ZM28,26H8V10H28Z"></path><path d="M45,11H33a1,1,0,0,0,0,2H45a1,1,0,0,0,0-2Z"></path><path d="M45,17H33a1,1,0,0,0,0,2H45a1,1,0,0,0,0-2Z"></path><path d="M45,23H33a1,1,0,0,0,0,2H45a1,1,0,0,0,0-2Z"></path><path d="M29,36H7a1,1,0,0,0-1,1V55a1,1,0,0,0,1,1H29a1,1,0,0,0,1-1V37A1,1,0,0,0,29,36ZM28,54H8V38H28Z"></path><path d="M45,39H33a1,1,0,0,0,0,2H45a1,1,0,0,0,0-2Z"></path><path d="M45,45H33a1,1,0,0,0,0,2H45a1,1,0,0,0,0-2Z"></path><path d="M45,51H33a1,1,0,0,0,0,2H45a1,1,0,0,0,0-2Z"></path></g></svg>