<svg xmlns="http://www.w3.org/2000/svg" viewBox="0 0 64 64" x="0px" y="0px"><g><path d="M57,10H49v2h8a3,3,0,0,1,3,3V40H4V15a3,3,0,0,1,3-3h8V10H7a5.006,5.006,0,0,0-5,5V45a5.006,5.006,0,0,0,5,5H23.867l-.75,6H22a2,2,0,0,0-2,2v2H18v2H46V60H44V58a2,2,0,0,0-2-2H40.883l-.75-6H57a5.006,5.006,0,0,0,5-5V15A5.006,5.006,0,0,0,57,10ZM42,60H22V58H42Zm-3.133-4H25.133l.75-6H38.117ZM57,48H7a3,3,0,0,1-3-3V42H60v3A3,3,0,0,1,57,48Z"></path><rect x="55" y="44" width="2" height="2"></rect><path d="M48.19,26a1,1,0,0,0,.866-1.5A6.989,6.989,0,0,0,37.262,24H26.738a6.989,6.989,0,0,0-11.794.5A1,1,0,0,0,15.81,26h3.469l.667,2-.667,2H15.81a1,1,0,0,0-.866,1.5,6.989,6.989,0,0,0,11.794.5H37.262a6.989,6.989,0,0,0,11.794-.5A1,1,0,0,0,48.19,30H44.721l-.667-2,.667-2Zm-6.138,2.316,1,3A1,1,0,0,0,44,32h1.99a4.983,4.983,0,0,1-7.315-1.5,1,1,0,0,0-.865-.5H26.19a1,1,0,0,0-.865.5A4.983,4.983,0,0,1,18.01,32H20a1,1,0,0,0,.948-.684l1-3a.977.977,0,0,0,0-.632l-1-3A1,1,0,0,0,20,24H18.01a4.983,4.983,0,0,1,7.315,1.5,1,1,0,0,0,.865.5H37.81a1,1,0,0,0,.865-.5A4.983,4.983,0,0,1,45.99,24H44a1,1,0,0,0-.948.684l-1,3A.977.977,0,0,0,42.052,28.316Z"></path><path d="M19.422,13.853a14,14,0,0,0-.657,1.6l-3.907.558A1,1,0,0,0,14,17v4h2V17.867l3.67-.524a1,1,0,0,0,.818-.71,11.939,11.939,0,0,1,.987-2.4,1,1,0,0,0-.077-1.081l-2.22-2.961,3.016-3.016L25.155,9.4a1,1,0,0,0,1.081.077,12,12,0,0,1,2.4-.987,1,1,0,0,0,.71-.819L29.867,4h4.266l.523,3.669a1,1,0,0,0,.71.819,12,12,0,0,1,2.4.987A1,1,0,0,0,38.845,9.4l2.961-2.22,3.016,3.016L42.6,13.155a1,1,0,0,0-.077,1.081,11.939,11.939,0,0,1,.987,2.4,1,1,0,0,0,.818.71l3.67.524V21h2V17a1,1,0,0,0-.858-.99l-3.907-.558a14,14,0,0,0-.657-1.6L46.942,10.7a1,1,0,0,0-.092-1.307L42.606,5.151A1,1,0,0,0,41.3,5.058L38.146,7.422a13.905,13.905,0,0,0-1.6-.657L35.99,2.859A1,1,0,0,0,35,2H29a1,1,0,0,0-.99.859l-.558,3.906a13.905,13.905,0,0,0-1.6.657L22.7,5.058a1,1,0,0,0-1.306.093L17.15,9.394a1,1,0,0,0-.092,1.307Z"></path><rect x="31" y="6" width="2" height="2"></rect><rect x="21.808" y="9.808" width="2" height="2" transform="translate(-0.962 19.293) rotate(-45)"></rect><rect x="40.192" y="9.808" width="2" height="2" transform="translate(4.423 32.293) rotate(-45)"></rect><path d="M24,20h2a6,6,0,0,1,12,0h2a8,8,0,0,0-16,0Z"></path></g></svg>