<svg xmlns="http://www.w3.org/2000/svg" viewBox="0 0 64 64" x="0px" y="0px"><g data-name="Solar Cell Light"><polygon points="22.9 4.51 16 11.41 4.51 22.9 3.1 21.49 21.49 3.1 22.9 4.51"></polygon><polygon points="32 14.8 32 16.98 17 23.65 17 21.46 32 14.8"></polygon><path d="M34,15v2a1,1,0,0,0,1,1H53a1,1,0,0,0,1-1V15Z"></path><rect x="43" y="21" width="2" height="4"></rect><rect x="48.5" y="20.938" width="1.999" height="4.123" transform="translate(-4.1 12.692) rotate(-14.036)"></rect><rect x="36.438" y="22" width="4.123" height="1.999" transform="translate(6.857 54.78) rotate(-75.977)"></rect><polygon points="15 60 15 14.824 13 16.824 13 60 15 60"></polygon></g></svg>