<svg xmlns="http://www.w3.org/2000/svg" viewBox="0 0 48 48" x="0px" y="0px"><g data-name="Chat Order"><path d="M25,7h7V6a3.009,3.009,0,0,0-3-3H11A3.009,3.009,0,0,0,8,6V42a3.009,3.009,0,0,0,3,3H29a3.009,3.009,0,0,0,3-3V21H30.5l-2.7,3.6a.985.985,0,0,1-.8.4,1.185,1.185,0,0,1-.32-.05A1.014,1.014,0,0,1,26,24V21H25a3.009,3.009,0,0,1-3-3V10A3.009,3.009,0,0,1,25,7ZM17,5h4V7H17ZM10,9H20v2H10Zm0,5a1,1,0,0,1,1-1h4v2H12v3H10ZM21,43H19V41h2Zm9-6v2H10V37Z"></path><path d="M39,9H25a1,1,0,0,0-1,1v8a1,1,0,0,0,1,1h2a1,1,0,0,1,1,1v1l1.2-1.6A1.014,1.014,0,0,1,30,19h9a1,1,0,0,0,1-1V10A1,1,0,0,0,39,9ZM26,10h2v2H26Zm6,8H26V16h6Zm6,0H34V16h4Zm0-3H26V13H38Zm0-3H30V10h8Z"></path></g></svg>