<svg xmlns="http://www.w3.org/2000/svg" viewBox="0 0 48 48" x="0px" y="0px"><title>Hot Tea_3</title><g data-name="Hot Tea"><path d="M39,8H36.72L34.948,2.684A1,1,0,0,0,34,2H14a1,1,0,0,0-.948.684L11.28,8H9A1,1,0,0,0,8,9v6a1,1,0,0,0,1,1h2.064l.348,5.216a1.08,1.08,0,0,0-.141.1,1,1,0,0,0-.269.747l1,16a1,1,0,0,0,.589.843l.348,5.228a2.007,2.007,0,0,0,2,1.867H33.064a2.007,2.007,0,0,0,2-1.867l.348-5.228A1,1,0,0,0,36,38.062l1-16a1,1,0,0,0-.269-.747,1.08,1.08,0,0,0-.141-.1L36.936,16H39a1,1,0,0,0,1-1V9A1,1,0,0,0,39,8ZM14.721,4H33.279l1.333,4H13.388ZM29,24.414l3,3V34H26V27.414Zm-1-1.828-3.707,3.707A1,1,0,0,0,24,27v8a1,1,0,0,0,1,1h8a1,1,0,0,0,1-1V27a1,1,0,0,0-.293-.707L30,22.586v-.579a9.974,9.974,0,0,1,.863.72A1,1,0,0,0,31.55,23h3.386l-.875,14H31.55a1,1,0,0,0-.687.273,10,10,0,0,1-13.726,0A1,1,0,0,0,16.45,37H13.939l-.875-14H16.45a1,1,0,0,0,.687-.273A9.973,9.973,0,0,1,28,20.842ZM24,18a11.951,11.951,0,0,0-7.938,3H13.4l-.334-5H28v2.692A12,12,0,0,0,24,18ZM14.936,44,14.6,39h1.46a12,12,0,0,0,15.875,0H33.4l-.334,5ZM34.6,21h-2.66A11.98,11.98,0,0,0,30,19.613V16h4.931ZM38,14H10V10H38Z"></path></g></svg>