<svg xmlns="http://www.w3.org/2000/svg" viewBox="0 0 64 64" x="0px" y="0px"><g><path d="M50,47a6,6,0,1,0,6,6A6.006,6.006,0,0,0,50,47Zm0,10a4,4,0,1,1,4-4A4,4,0,0,1,50,57Z"></path><path d="M16,47a6,6,0,1,0,6,6A6.006,6.006,0,0,0,16,47Zm0,10a4,4,0,1,1,4-4A4,4,0,0,1,16,57Z"></path><path d="M61.243,41.03l-7.365-1.841L51.986,27.835A1,1,0,0,0,51,27H37a1,1,0,0,0-1,1V41H3a1,1,0,0,0-1,1V52a1,1,0,0,0,1,1H8.06a1,1,0,0,0,.992-.877,7,7,0,0,1,13.9,0A1,1,0,0,0,23.94,53H42.06a1,1,0,0,0,.992-.877,7,7,0,0,1,13.9,0A1,1,0,0,0,57.94,53H61a1,1,0,0,0,1-1V42A1,1,0,0,0,61.243,41.03ZM16,44a9.01,9.01,0,0,0-8.779,7H4V43H36v8H24.779A9.01,9.01,0,0,0,16,44Zm42.779,7a9.005,9.005,0,0,0-17.558,0H38V29H50.153l1.861,11.165a1,1,0,0,0,.743.8L60,42.781V44H58v2h2v5Z"></path><path d="M48,30H42a1,1,0,0,0-1,1V41a1,1,0,0,0,1,1h8a1,1,0,0,0,.98-1.2l-2-10A1,1,0,0,0,48,30ZM43,40V32h4.18l1.6,8Z"></path><circle cx="50" cy="53" r="2"></circle><circle cx="16" cy="53" r="2"></circle><path d="M3,40H33a1,1,0,0,0,1-1V15a1,1,0,0,0-1-1H3a1,1,0,0,0-1,1V39A1,1,0,0,0,3,40ZM4,16H32V38H4Z"></path><rect x="40" y="43" width="4" height="2"></rect><rect x="6" y="21" width="2" height="2"></rect><rect x="10" y="21" width="4" height="2"></rect><rect x="12" y="26" width="2" height="2"></rect><rect x="8" y="26" width="2" height="2"></rect><path d="M23.707,18.293a1,1,0,0,0-1.414,0l-7,7A1,1,0,0,0,16,27h1v6a1,1,0,0,0,1,1H28a1,1,0,0,0,1-1V27h1a1,1,0,0,0,.707-1.707ZM23,20.414,27.586,25H18.414ZM22,32V30h2v2Zm5,0H26V29a1,1,0,0,0-1-1H21a1,1,0,0,0-1,1v3H19V27h8Z"></path><rect x="11" y="31" width="4" height="2"></rect></g></svg>