<svg xmlns="http://www.w3.org/2000/svg" viewBox="0 0 64 64" x="0px" y="0px"><g><polygon points="40 38 40 42 56 42 56 38 55 38 55 40 53 40 53 38 51 38 51 40 49 40 49 38 47 38 47 40 45 40 45 38 43 38 43 40 41 40 41 38 40 38"></polygon><polygon points="40 60 56 60 56 56 55 56 55 58 53 58 53 56 51 56 51 58 49 58 49 56 47 56 47 58 45 58 45 56 43 56 43 58 41 58 41 56 40 56 40 60"></polygon><polygon points="40 54 56 54 56 50 55 50 55 52 53 52 53 50 51 50 51 52 49 52 49 50 47 50 47 52 45 52 45 50 43 50 43 52 41 52 41 50 40 50 40 54"></polygon><polygon points="40 48 56 48 56 44 55 44 55 46 53 46 53 44 51 44 51 46 49 46 49 44 47 44 47 46 45 46 45 44 43 44 43 46 41 46 41 44 40 44 40 48"></polygon><polygon points="22 56 22 60 38 60 38 56 37 56 37 58 35 58 35 56 33 56 33 58 31 58 31 56 29 56 29 58 27 58 27 56 25 56 25 58 23 58 23 56 22 56"></polygon><path d="M30,38a8,8,0,1,0,8,8A8.009,8.009,0,0,0,30,38Zm0,7a2.993,2.993,0,0,1,1,5.816V52H29V50.816A3,3,0,0,1,27,48h2a1,1,0,1,0,1-1,2.993,2.993,0,0,1-1-5.816V40h2v1.184A3,3,0,0,1,33,44H31a1,1,0,1,0-1,1Z"></path><path d="M38,54V51.974A10.077,10.077,0,0,1,35.974,54Z"></path><path d="M22,54h2.026A9.987,9.987,0,1,1,38,40.026V38a2,2,0,0,1,2-2h4V4.325a5.5,5.5,0,0,0-.652.623,4.012,4.012,0,0,1-3.1,1.572,3.9,3.9,0,0,1-3.167-1.9C36.5,3.87,36.162,3.48,35.49,3.48s-1.008.39-1.593,1.138a3.888,3.888,0,0,1-3.157,1.9,3.9,3.9,0,0,1-3.169-1.907c-.581-.744-.916-1.133-1.581-1.133s-1,.389-1.581,1.133A3.9,3.9,0,0,1,21.24,6.52a3.89,3.89,0,0,1-3.159-1.9C17.5,3.869,17.166,3.48,16.5,3.48s-1.008.39-1.593,1.138a3.889,3.889,0,0,1-3.157,1.9A4.019,4.019,0,0,1,8.642,4.944,5.674,5.674,0,0,0,8,4.33V60H20V56A2,2,0,0,1,22,54Zm4.932-19.644-.7-3.939,1.969-.348.694,3.939ZM40,29H34V27h6Zm0-4H34V23h6Zm0-4H34V19h6ZM30,9H40v2H30Zm0,4H40v2H30ZM12,19H32v2H12Zm0,4H32v2H12Zm0,4H32v2H12Zm6.009,17.9-3.94-.694.348-1.97,3.939.694Zm-.03-9.507,1.415-1.415,2.828,2.829-1.414,1.414Z"></path></g></svg>