<svg xmlns="http://www.w3.org/2000/svg" viewBox="0 0 64 64" x="0px" y="0px"><g data-name="Discount-Percentage-Open Box-Box-Commerce"><path d="M28,19a1,1,0,1,0,1,1A1,1,0,0,0,28,19Zm0,0a1,1,0,1,0,1,1A1,1,0,0,0,28,19Zm4-5A10,10,0,1,0,42,24,9.991,9.991,0,0,0,32,14Zm-7,6a3,3,0,1,1,3,3A3.009,3.009,0,0,1,25,20Zm2.71,9.71-1.42-1.42,10-10,1.42,1.42ZM36,31a3,3,0,1,1,3-3A3.009,3.009,0,0,1,36,31Zm0-4a1,1,0,1,0,1,1A1,1,0,0,0,36,27Zm-7-7a1,1,0,1,0-1,1A1,1,0,0,0,29,20Z"></path><rect x="31" y="2" width="2" height="8"></rect><rect x="40.5" y="8.01" width="8" height="2" transform="translate(14.45 43.046) rotate(-60.005)"></rect><rect x="47" y="1.947" width="2" height="2" transform="translate(21.451 43.045) rotate(-60.005)"></rect><rect x="45.99" y="13.5" width="8" height="2" transform="translate(-0.552 26.939) rotate(-30.002)"></rect><rect x="55.053" y="10" width="2" height="2" transform="translate(2.008 29.495) rotate(-29.995)"></rect><rect x="48" y="21" width="8" height="2"></rect><rect x="58" y="21" width="2" height="2"></rect><rect x="18.5" y="5.01" width="2" height="8" transform="translate(-1.893 10.955) rotate(-29.995)"></rect><rect x="15" y="1.947" width="2" height="2" transform="translate(0.669 8.393) rotate(-29.995)"></rect><rect x="13.009" y="10.5" width="2" height="8" transform="translate(-5.553 19.383) rotate(-60)"></rect><rect x="6.947" y="10" width="2" height="2" transform="translate(-5.553 12.382) rotate(-59.998)"></rect><rect x="48.99" y="25.5" width="2" height="8" transform="translate(-0.553 58.041) rotate(-59.998)"></rect><rect x="55.053" y="32" width="2" height="2" transform="translate(-0.549 65.048) rotate(-60.005)"></rect><rect x="10.01" y="28.5" width="8" height="2" transform="translate(-12.871 10.955) rotate(-29.995)"></rect><rect x="6.948" y="32" width="2" height="2" transform="translate(-15.433 8.393) rotate(-29.995)"></rect><rect x="8" y="21" width="8" height="2"></rect><rect x="4" y="21" width="2" height="2"></rect><polygon points="43.38 42 46.38 36 17.62 36 20.62 42 43.38 42"></polygon><path d="M17,60H47V39.24l-2.11,4.21A.988.988,0,0,1,44,44H20a.977.977,0,0,1-.89-.55L17,39.24Zm26-8h2v6H43Zm-4,0h2v6H39Zm-4,0h2v6H35Z"></path><polygon points="54.77 40.36 53.23 41.64 48.53 36 51.14 36 54.77 40.36"></polygon><polygon points="15.47 36 10.77 41.64 9.23 40.36 12.86 36 15.47 36"></polygon></g></svg>