<svg xmlns="http://www.w3.org/2000/svg" viewBox="0 0 64 64" x="0px" y="0px"><g data-name="Health Checkup-Smartphone-Stethoscope-Medical-Doctor"><rect x="16" y="6" width="2" height="2"></rect><rect x="20" y="6" width="6" height="2"></rect><path d="M48,16a6,6,0,0,0-1,11.91V48.5a11.5,11.5,0,0,1-23,0V46h8a5,5,0,0,0,5-5V7a5,5,0,0,0-5-5H14A5,5,0,0,0,9,7V41a5,5,0,0,0,5,5h8v2.5a13.5,13.5,0,0,0,27,0V27.91A6,6,0,0,0,48,16ZM22,44H14a3.009,3.009,0,0,1-3-3V7a3.009,3.009,0,0,1,3-3H32a3.009,3.009,0,0,1,3,3V41a3.009,3.009,0,0,1-3,3H24V36a2.006,2.006,0,0,0,2-2V32a5,5,0,0,0,5-5V17a.988.988,0,0,0-.55-.89l-1.58-.79a1.995,1.995,0,1,0-.4,2.03l.53.27V27a3.009,3.009,0,0,1-3,3H20a3.009,3.009,0,0,1-3-3V17.62l.53-.27a2,2,0,1,0-.4-2.03l-1.58.79A.988.988,0,0,0,15,17V27a5,5,0,0,0,5,5v2a2.006,2.006,0,0,0,2,2Zm0-12h2v2H22Zm26-6a4,4,0,1,1,4-4A4,4,0,0,1,48,26Z"></path><circle cx="48" cy="22" r="2"></circle></g></svg>