<svg xmlns="http://www.w3.org/2000/svg" viewBox="0 0 64 64" x="0px" y="0px"><g><path d="M34.6,60h1.954a5.475,5.475,0,0,1,.543-1.6,3.78,3.78,0,0,0,0-3.469,5.77,5.77,0,0,1,0-5.2A4.384,4.384,0,0,0,37.4,49H35.444a5.475,5.475,0,0,1-.543,1.6,3.78,3.78,0,0,0,0,3.469,5.77,5.77,0,0,1,0,5.2A4.384,4.384,0,0,0,34.6,60Z"></path><path d="M18.6,60h1.954a5.475,5.475,0,0,1,.543-1.6,3.78,3.78,0,0,0,0-3.469,5.77,5.77,0,0,1,0-5.2A4.384,4.384,0,0,0,21.4,49H19.444a5.475,5.475,0,0,1-.543,1.6,3.78,3.78,0,0,0,0,3.469,5.77,5.77,0,0,1,0,5.2A4.384,4.384,0,0,0,18.6,60Z"></path><path d="M60,24H48v3h3a1,1,0,0,1,1,1v4a1,1,0,0,1-1,1H13a1,1,0,0,1-1-1V28a1,1,0,0,1,1-1h3V24H4V36H60ZM9,33H7V31H9Zm0-4H7V27H9Zm48,4H55V31h2Zm0-4H55V27h2Z"></path><rect x="14" y="29" width="2" height="2"></rect><path d="M26.6,60h1.954a5.475,5.475,0,0,1,.543-1.6,3.78,3.78,0,0,0,0-3.469,5.77,5.77,0,0,1,0-5.2A4.384,4.384,0,0,0,29.4,49H27.444a5.475,5.475,0,0,1-.543,1.6,3.78,3.78,0,0,0,0,3.469,5.77,5.77,0,0,1,0,5.2A4.384,4.384,0,0,0,26.6,60Z"></path><path d="M14,50h2.977c.041-.089.082-.183.122-.266A3.385,3.385,0,0,0,17.52,48a1,1,0,0,1,1-1h4a1,1,0,0,1,1,1,5.189,5.189,0,0,1-.358,2h1.815c.041-.089.082-.183.122-.266A3.385,3.385,0,0,0,25.52,48a1,1,0,0,1,1-1h4a1,1,0,0,1,1,1,5.189,5.189,0,0,1-.358,2h1.815c.041-.089.082-.183.122-.266A3.385,3.385,0,0,0,33.52,48a1,1,0,0,1,1-1h4a1,1,0,0,1,1,1,5.189,5.189,0,0,1-.358,2h1.815c.041-.089.082-.183.122-.266A3.385,3.385,0,0,0,41.52,48a1,1,0,0,1,1-1h4a1,1,0,0,1,1,1,5.189,5.189,0,0,1-.358,2H50V46H14Z"></path><path d="M18,4V31H46V4Zm4,3h4V9H22Zm0,6H32v2H22Zm0,6h6v2H22Zm20,8H22V25H42Zm0-6H30V19H42Zm0-6H34V13h8Zm0-6H28V7H42Z"></path><path d="M42.6,60h1.954a5.475,5.475,0,0,1,.543-1.6,3.78,3.78,0,0,0,0-3.469,5.77,5.77,0,0,1,0-5.2A4.384,4.384,0,0,0,45.4,49H43.444a5.475,5.475,0,0,1-.543,1.6,3.78,3.78,0,0,0,0,3.469,5.77,5.77,0,0,1,0,5.2A4.384,4.384,0,0,0,42.6,60Z"></path><rect x="48" y="29" width="2" height="2"></rect><path d="M60,50V38H4V50h8V45a1,1,0,0,1,1-1H51a1,1,0,0,1,1,1v5Z"></path></g></svg>