<svg xmlns="http://www.w3.org/2000/svg" viewBox="0 0 64 64" x="0px" y="0px"><g data-name="Cloud-Upload-Arrow up-Cloud Computing-Storage"><path d="M42,50H40.86a1,1,0,0,1-.97-1.243A3.082,3.082,0,0,0,40,48a3,3,0,0,0-3-3,2.838,2.838,0,0,0-1,.21V50H34V26a1,1,0,0,1,1-1h.586L32,21.414,28.414,25H29a1,1,0,0,1,1,1V50H28V42.09A6.006,6.006,0,0,0,23,48a5.519,5.519,0,0,0,.069.85A1,1,0,0,1,22.08,50,5,5,0,1,0,22,60H42a5,5,0,0,0,0-10Zm-2,8H38V56h2Zm2,0V56a1,1,0,0,0,1-1h2A3,3,0,0,1,42,58Z"></path><path d="M45.788,15.043a1,1,0,0,1-.873-1.167A4.961,4.961,0,0,0,40,8a4.879,4.879,0,0,0-2.152.5,1,1,0,0,1-1.279-.358A9,9,0,0,0,20,13c0,.309.019.61.046.91a1,1,0,0,1-1,1.09A7,7,0,1,0,19,29h9V27H26a1,1,0,0,1-.707-1.707l6-6a1,1,0,0,1,1.414,0l6,6A1,1,0,0,1,38,27H36v2h9a7,7,0,0,0,.788-13.957ZM29,8a5.006,5.006,0,0,0-5,5H22a7.008,7.008,0,0,1,7-7ZM45,27V25a3,3,0,0,0,3-3h2A5.006,5.006,0,0,1,45,27Z"></path></g></svg>