<svg xmlns="http://www.w3.org/2000/svg" viewBox="0 0 64 64" x="0px" y="0px"><g><path d="M36,25.929h0a3,3,0,0,0-4.243,4.244l3.536,3.535a1,1,0,0,0,1.414,0l3.536-3.535A3,3,0,1,0,36,25.929Zm2.829,2.829L36,31.586l-2.828-2.828a1,1,0,1,1,1.414-1.414l.707.706a1,1,0,0,0,1.414,0l.707-.707a1,1,0,0,1,1.415,1.415Z"></path><path d="M47,13.22V13a7.008,7.008,0,0,0-7-7,6.732,6.732,0,0,0-2.23.37A11,11,0,0,0,18,13v.05A9,9,0,0,0,19,31h7v2H15a3.009,3.009,0,0,0-3,3V49a3.009,3.009,0,0,0,3,3v3h2V52h9v7a3.009,3.009,0,0,0,3,3H43a3.009,3.009,0,0,0,3-3V46a3.009,3.009,0,0,0-3-3H32V39H43a3.009,3.009,0,0,0,3-3V30.94a9,9,0,0,0,1-17.72ZM15,50a1,1,0,0,1-1-1V36a1,1,0,0,1,1-1H26v1a3.009,3.009,0,0,0,3,3h1V49a1,1,0,0,1-1,1Zm28-5a1,1,0,0,1,1,1V59a1,1,0,0,1-1,1H29a1,1,0,0,1-1-1V52h1a2.959,2.959,0,0,0,1.9-.7,3,3,0,0,0,.86,1.87l3.53,3.54a1.014,1.014,0,0,0,1.42,0l3.53-3.54A3,3,0,1,0,36,48.93a2.961,2.961,0,0,0-2.1-.87,3,3,0,0,0-1.9.67V45Zm-9.83,5.34a1.024,1.024,0,0,1,.71-.29,1.042,1.042,0,0,1,.71.29l.7.71a1.008,1.008,0,0,0,1.42,0l.7-.71a1,1,0,1,1,1.42,1.42L36,54.59l-2.83-2.83A1.008,1.008,0,0,1,33.17,50.34ZM44,36a1,1,0,0,1-1,1H29a1,1,0,0,1-1-1V23a1,1,0,0,1,1-1H43a1,1,0,0,1,1,1Zm2-7.08V23a3.009,3.009,0,0,0-3-3H29a3.009,3.009,0,0,0-3,3v6H19a7,7,0,1,1,.05-14,1.01,1.01,0,0,0,1-1.09A8.964,8.964,0,0,1,29,4a8.981,8.981,0,0,1,7.57,4.14,1,1,0,0,0,1.28.36A4.879,4.879,0,0,1,40,8a5,5,0,0,1,5,5,5.858,5.858,0,0,1-.08.88.985.985,0,0,0,.87,1.16A7,7,0,0,1,46,28.92Z"></path><path d="M22,38.929h0a3,3,0,0,0-4.243,4.244l3.536,3.535a1,1,0,0,0,1.414,0l3.536-3.535A3,3,0,1,0,22,38.929Zm2.829,2.829L22,44.586l-2.828-2.828a1,1,0,1,1,1.414-1.414l.707.706a1,1,0,0,0,1.414,0l.707-.707a1,1,0,0,1,1.415,1.415Z"></path><rect x="21" y="54" width="2" height="4"></rect><rect x="21" y="60" width="2" height="2"></rect><rect x="50" y="35" width="2" height="4"></rect><rect x="50" y="41" width="2" height="2"></rect><rect x="50" y="47" width="2" height="4"></rect><rect x="50" y="53" width="2" height="2"></rect><rect x="15" y="57" width="2" height="2"></rect></g></svg>