<svg xmlns="http://www.w3.org/2000/svg" viewBox="0 0 64 64" x="0px" y="0px"><g><path d="M60,11.96H4V57a3.009,3.009,0,0,0,3,3H57a3.009,3.009,0,0,0,3-3ZM44,22h2v2H44Zm0,15h6v2H44ZM30,21a2,2,0,0,1,2-2h4V18h2v1a2,2,0,0,1-2,2H32v1H30ZM19,20h2v2H19Zm-4-1h2v2H15ZM41.32,52.58A2.99,2.99,0,0,1,38.76,54H23.24a2.959,2.959,0,0,1-1.8-.63A9.8,9.8,0,0,1,18,54a10,10,0,0,1-4-19.16V29.82A3,3,0,0,1,15,24h6a3,3,0,0,1,1,5.82v5.02a10.026,10.026,0,0,1,4.22,3.48L27,36.76V29.82A3,3,0,0,1,28,24h6a3,3,0,0,1,1,5.82v6.94l6.45,12.9A2.98,2.98,0,0,1,41.32,52.58ZM56,54H44V52H56Zm0-5H44V47H56Zm0-5H44V42H56Zm0-5H52V37h4Zm0-5H44V32H56Zm0-5H44V27H56Zm0-5H48V22h8Z"></path><path d="M24,41.94a8.394,8.394,0,0,0-3.34-.6,8.32,8.32,0,0,0-3.32.6,10.316,10.316,0,0,1-4.01.72,10.262,10.262,0,0,1-3.11-.42A7.926,7.926,0,0,0,10,44a8.011,8.011,0,0,0,8,8,7.922,7.922,0,0,0,2.33-.35,2.988,2.988,0,0,1,.22-1.99l3.8-7.59A3.616,3.616,0,0,1,24,41.94ZM15,47H13V45h2Zm5,3H18V48h2Zm1-5H19V43h2Z"></path><path d="M15,28h6a1,1,0,0,0,0-2H15a1,1,0,0,0,0,2Z"></path><path d="M28,28h6a1,1,0,0,0,0-2H28a1,1,0,0,0,0,2Z"></path><path d="M33.11,37.45A1,1,0,0,1,33,37V30H29v7a1,1,0,0,1-.11.45L26.12,43h9.76ZM33,41H31V39h2Z"></path><path d="M60,7a3.009,3.009,0,0,0-3-3H7A3.009,3.009,0,0,0,4,7V9.96H60ZM10,8H8V6h2Zm4,0H12V6h2Zm4,0H16V6h2Z"></path><path d="M16.66,40.06a10.3,10.3,0,0,1,4-.72,10.375,10.375,0,0,1,4.02.72c.11.05.23.08.34.12a8.015,8.015,0,0,0-4.35-3.72,1,1,0,0,1-.67-.94V30H16v5.52a1,1,0,0,1-.67.94,8.053,8.053,0,0,0-4.44,3.9,8.682,8.682,0,0,0,2.44.3A8.338,8.338,0,0,0,16.66,40.06ZM16,37h2v2H16Z"></path><path d="M36.88,45H25.12l-2.78,5.55a1.008,1.008,0,0,0,.05.98.966.966,0,0,0,.85.47H38.76a.966.966,0,0,0,.85-.47,1.008,1.008,0,0,0,.05-.98ZM31,50H29V48h2Zm4-1H33V47h2Z"></path></g></svg>