<svg xmlns="http://www.w3.org/2000/svg" viewBox="0 0 64 64" x="0px" y="0px"><g><path d="M60.615,38.9a4.028,4.028,0,0,0-5.465-1.464L46.615,42.36a3.8,3.8,0,0,0-.788-1.187A3.969,3.969,0,0,0,43,40H28a1,1,0,0,0-.486.126L20.9,43.806l-1.115-3.062a1,1,0,0,0-1.281-.6l-9.4,3.42a1,1,0,0,0-.6,1.282l.342.939-6.578,2.4a1,1,0,0,0-.6,1.281L6.461,62.619a1,1,0,0,0,1.282.6l6.579-2.395.342.94a1,1,0,0,0,1.281.6l9.4-3.42a1,1,0,0,0,.6-1.281L25.7,57H37a1,1,0,0,0,.5-.134l21.649-12.5a3.957,3.957,0,0,0,2-3.466A4.018,4.018,0,0,0,60.615,38.9ZM8,61,3.9,49.719l5.638-2.053,4.105,11.277Zm8.2-.856L10.729,45.1l7.517-2.737L23.718,57.4ZM58.15,42.634,36.732,55H24.972l-3.381-9.29L28.259,42H43a1.983,1.983,0,0,1,1.413.587,1.912,1.912,0,0,1,.471.77A1.686,1.686,0,0,1,45,44a2,2,0,0,1-2,2H32v2H43a3.992,3.992,0,0,0,3.952-3.525l9.193-5.306a2,2,0,0,1,3,1.731A1.981,1.981,0,0,1,58.15,42.634Z"></path><path d="M10.542,17.111A1,1,0,0,0,11,19h3.026a4.91,4.91,0,0,0,.264,6.321A4.989,4.989,0,0,0,16,35H56a.994.994,0,0,0,.962-.759,1.009,1.009,0,0,0-.5-1.129A3.394,3.394,0,0,1,55,30a3.527,3.527,0,0,1,1.292-3H58a.994.994,0,0,0,.962-.759,1.009,1.009,0,0,0-.5-1.129A3.394,3.394,0,0,1,57,22,3.4,3.4,0,0,1,58.447,18.9,1,1,0,0,0,58,17H54.974A4.948,4.948,0,0,0,56,14a5.006,5.006,0,0,0-5-5H11a.994.994,0,0,0-.962.759,1.009,1.009,0,0,0,.5,1.129A3.394,3.394,0,0,1,12,14,3.4,3.4,0,0,1,10.542,17.111ZM20,33H19V27h1Zm2-8H21V19h1Zm-3,0H18a3,3,0,0,1,0-6h1Zm-6,5a3,3,0,0,1,3-3h1v6H16A3,3,0,0,1,13,30Zm40.72,3H22V31H51V29H22V27H53.72a6.61,6.61,0,0,0,0,6Zm2-8H24V23H53V21H24V19H55.72A6.114,6.114,0,0,0,55,22,6.114,6.114,0,0,0,55.72,25ZM47,11h1v6H47Zm7,3a3,3,0,0,1-3,3H50V11h1A3,3,0,0,1,54,14ZM13.28,11H45v2H16v2H45v2H13.28A6.114,6.114,0,0,0,14,14,6.114,6.114,0,0,0,13.28,11Z"></path></g></svg>