<svg xmlns="http://www.w3.org/2000/svg" viewBox="0 0 48 48" x="0px" y="0px"><g><path d="M36,35a5.008,5.008,0,0,0,4.9-4H31.1A5.008,5.008,0,0,0,36,35Z"></path><polygon points="22 45 19 45 19 46 29 46 29 45 26 45 22 45"></polygon><polygon points="32.582 29 39.382 29 35.996 22.228 32.582 29"></polygon><path d="M34,9h4.586L33,3.414V8A1,1,0,0,0,34,9Z"></path><path d="M34,11a3.009,3.009,0,0,1-3-3V2H9A1,1,0,0,0,8,3V25.72l3.11-6.17A.988.988,0,0,1,12,19h9.18a3,3,0,1,1,5.64,0H36a.986.986,0,0,1,.85.48c.02.02.02.04.04.07L40,25.76V11ZM12,6h2V8H12Zm8,6H12V10h8Zm0-4H16V6h4Z"></path><path d="M12,35a5.008,5.008,0,0,0,4.9-4H7.1A5.008,5.008,0,0,0,12,35Z"></path><path d="M21,21V43H18a1,1,0,0,0-1,1v2H9a1,1,0,0,1-1-1V35.74A7,7,0,0,0,19,30a1,1,0,0,0-1-1h-.38l-4-8Z"></path><path d="M40,35.74V45a1,1,0,0,1-1,1H31V44a1,1,0,0,0-1-1H27V21h7.38l-4.04,8H30a1,1,0,0,0-1,1,7,7,0,0,0,11,5.74Z"></path><circle cx="24" cy="18" r="1"></circle><polygon points="8.582 29 15.382 29 11.996 22.228 8.582 29"></polygon><rect x="23" y="21" width="2" height="22"></rect></g></svg>