<svg xmlns="http://www.w3.org/2000/svg" viewBox="0 0 64 64" x="0px" y="0px"><g><rect x="25" y="6" width="2" height="2"></rect><rect x="29" y="6" width="6" height="2"></rect><rect x="31" y="56" width="2" height="2"></rect><path d="M54.5,21.08a2.98,2.98,0,0,0-2.5-.21V8a6,6,0,0,0-6-6H18a6,6,0,0,0-6,6V18a1.014,1.014,0,0,0-.95.68L10.28,21H9.72l-.77-2.32A1.014,1.014,0,0,0,8,18H5a1,1,0,0,0-1,1v4a1,1,0,0,0,.11.45l1.46,2.93A2.989,2.989,0,0,0,7,32h.78l-.73,3.63L4.14,40.49A1,1,0,0,0,4,41v3a2.006,2.006,0,0,0,2,2h6V56a6,6,0,0,0,6,6H46a6,6,0,0,0,6-6V31.41l3.6-6.23A3.007,3.007,0,0,0,54.5,21.08ZM14,8a4,4,0,0,1,4-4H46a4,4,0,0,1,4,4v2H14ZM6,20H7.28l.77,2.32A1.014,1.014,0,0,0,9,23h2a1.014,1.014,0,0,0,.95-.68L12.72,20h.56l.77,2.32A1.014,1.014,0,0,0,15,23h2a1.014,1.014,0,0,0,.95-.68L18.72,20H20v2.76L18.38,26H7.62L6,22.76ZM7,30a1,1,0,0,1,0-2H19a1,1,0,0,1,0,2Zm9.78,5H9.22l.6-3h6.36ZM8.57,37h8.86l1.8,3H6.77ZM6,44V42H20v2ZM50,56a4,4,0,0,1-4,4H18a4,4,0,0,1-4-4V54H50Zm0-4H14V46h6a2.006,2.006,0,0,0,2-2V41a1,1,0,0,0-.14-.51l-2.91-4.86L18.22,32H19a2.989,2.989,0,0,0,1.43-5.62l1.46-2.93A1,1,0,0,0,22,23V19a1,1,0,0,0-1-1H18a1.014,1.014,0,0,0-.95.68L16.28,21h-.56l-.77-2.32A1.014,1.014,0,0,0,14,18V12H50V22.87l-2,3.47V19a3.009,3.009,0,0,0-3-3H27a3.009,3.009,0,0,0-3,3V45a3.009,3.009,0,0,0,3,3H45a3.009,3.009,0,0,0,3-3V38.34l2-3.46ZM42.5,41.87a1,1,0,0,0,1.05-.04L46,40.22V45a1,1,0,0,1-1,1H27a1,1,0,0,1-1-1V19a1,1,0,0,1,1-1H45a1,1,0,0,1,1,1V29.8l-3.6,6.24a.942.942,0,0,0-.13.44L42,40.94A1.008,1.008,0,0,0,42.5,41.87Zm3.48-4.04-1.86,1.23.13-2.23,6.38-11.05,1.74,1Zm7.89-13.65-.5.87-1.74-1,.5-.87a1,1,0,0,1,1.74,1Z"></path><rect x="28" y="22" width="7" height="2"></rect><rect x="35" y="40" width="5" height="2"></rect><rect x="28" y="26" width="14" height="2"></rect><rect x="28" y="30" width="14" height="2"></rect><rect x="28" y="34" width="12" height="2"></rect></g></svg>