<svg xmlns="http://www.w3.org/2000/svg" viewBox="0 0 64 64" x="0px" y="0px"><g data-name="Reading-Book-Eye Glasses-Time-Clock"><path d="M59.36,37.63a8.91,8.91,0,0,0-5.94-2.61A15,15,0,1,0,38.55,35H3a1,1,0,0,0-1,1v4a1,1,0,0,0,1,1H4a3,3,0,0,1,0,6H3a1,1,0,0,0-1,1v4a1,1,0,0,0,1,1H40v3a.987.987,0,0,0,.62.92,1,1,0,0,0,1.09-.21L44,54.41l2.29,2.3A1.007,1.007,0,0,0,47,57a.838.838,0,0,0,.38-.08A.987.987,0,0,0,48,56V53h5a9,9,0,0,0,6.36-15.37ZM33,22A13,13,0,1,1,46,35,13.012,13.012,0,0,1,33,22ZM4,39V37H50v2ZM40,51H4V49H40Zm0-4H7.97a4.84,4.84,0,0,0,.93-2H40Zm6,6.59-1.29-1.3a1.014,1.014,0,0,0-1.42,0L42,53.59V45h4ZM8.9,43a4.84,4.84,0,0,0-.93-2H53a3,3,0,1,1,0,6H48V45h5V43ZM50,51H48V49h2Zm3,0H52V49h1a5,5,0,0,0,0-10H52V37h1a7,7,0,0,1,0,14Z"></path><path d="M27,20v4.54A5.984,5.984,0,0,0,17.09,28H14.91A5.984,5.984,0,0,0,5,24.54V20H3v9a6,6,0,0,0,11.91,1h2.18A6,6,0,0,0,29,29V20ZM9,33a4,4,0,1,1,4-4A4,4,0,0,1,9,33Zm14,0a4,4,0,1,1,4-4A4,4,0,0,1,23,33Z"></path><path d="M24,29h2a3,3,0,0,0-3-3v2A1,1,0,0,1,24,29Z"></path><path d="M9,26v2a1,1,0,0,1,1,1h2A3,3,0,0,0,9,26Z"></path><path d="M46,11A11,11,0,1,0,57,22,11.013,11.013,0,0,0,46,11Zm8.941,12a8.956,8.956,0,0,1-1.916,4.611l-1.368-1.368-1.414,1.414,1.368,1.368A8.956,8.956,0,0,1,47,30.941V29H45v1.941a8.956,8.956,0,0,1-4.611-1.916l1.368-1.368-1.414-1.414-1.368,1.368A8.956,8.956,0,0,1,37.059,23H39V21H37.059a8.956,8.956,0,0,1,1.916-4.611l1.368,1.368,1.414-1.414-1.368-1.368A8.956,8.956,0,0,1,45,13.059V15h2V13.059a8.956,8.956,0,0,1,4.611,1.916l-1.368,1.368,1.414,1.414,1.368-1.368A8.956,8.956,0,0,1,54.941,21H53v2Z"></path><path d="M45,21.586l-1.707,1.707,1.414,1.414,2-2A1,1,0,0,0,47,22V17H45Z"></path></g></svg>