<svg xmlns="http://www.w3.org/2000/svg" viewBox="0 0 64 64" x="0px" y="0px"><g><path d="M60,24H40.939c.02.022.038.047.057.07.065.073.122.151.184.225q.327.388.618.8c.08.114.157.228.233.345.173.265.334.536.486.814.058.105.119.209.174.316a11.9,11.9,0,0,1,.523,1.171c.023.06.039.122.061.182q.188.519.327,1.054c.035.13.063.262.093.394.069.307.126.616.171.929.018.129.04.258.054.388a10.782,10.782,0,0,1,0,2.622c-.014.13-.036.259-.054.388-.045.313-.1.622-.171.929-.03.132-.058.263-.093.394q-.139.537-.328,1.057c-.022.059-.037.12-.06.178a11.961,11.961,0,0,1-.524,1.174c-.054.105-.114.207-.171.311q-.229.42-.491.821-.111.171-.228.339-.3.418-.626.811c-.06.071-.115.146-.176.216-.021.023-.038.048-.059.071H60ZM50,37H48V35h2Zm0-4H48V31h2Zm0-4H48V27h2Zm4,8H52V35h2Zm0-4H52V31h2Zm0-4H52V27h2Zm4,8H56V35h2Zm0-4H56V31h2Zm0-4H56V27h2Z"></path><path d="M41.926,33.208A9.9,9.9,0,0,0,42,32a10.016,10.016,0,0,0-4.255-8.182,9.988,9.988,0,0,0-11.488,0A10.023,10.023,0,0,0,22.4,29.26,9.359,9.359,0,0,0,22,32a10.016,10.016,0,0,0,4.255,8.182,9.988,9.988,0,0,0,11.488,0A10.023,10.023,0,0,0,41.926,33.208ZM32,40a8,8,0,1,1,8-8A8.009,8.009,0,0,1,32,40Z"></path><path d="M23,39.93c-.065-.073-.122-.151-.184-.225q-.327-.389-.618-.8c-.08-.114-.157-.228-.233-.345-.173-.265-.334-.536-.486-.814-.058-.1-.119-.209-.174-.316a11.9,11.9,0,0,1-.523-1.171c-.023-.06-.039-.122-.061-.182q-.187-.519-.327-1.054c-.035-.13-.063-.262-.093-.394-.069-.307-.126-.616-.171-.929-.018-.129-.04-.258-.054-.388a10.782,10.782,0,0,1,0-2.622c.014-.13.036-.259.054-.388.045-.313.1-.622.171-.929.03-.132.058-.264.093-.395.093-.357.2-.71.328-1.056.022-.059.037-.12.06-.178a11.961,11.961,0,0,1,.524-1.174c.054-.105.114-.207.171-.311q.229-.42.491-.821.111-.171.228-.339.3-.417.626-.81c.06-.072.115-.147.177-.217.02-.023.037-.048.058-.071H4V40H23.061C23.041,39.978,23.023,39.953,23,39.93ZM8,37H6V35H8Zm0-4H6V31H8Zm0-4H6V27H8Zm4,8H10V35h2Zm0-4H10V31h2Zm0-4H10V27h2Zm4,8H14V35h2Zm0-4H14V31h2Zm0-4H14V27h2Z"></path><rect x="7" y="42" width="4" height="2"></rect><circle cx="32" cy="32" r="6"></circle><rect x="53" y="42" width="4" height="2"></rect></g></svg>