<svg xmlns="http://www.w3.org/2000/svg" viewBox="0 0 64 64" x="0px" y="0px"><g><path d="M37.8,44.4A1,1,0,0,0,37,44H27a1,1,0,0,0-.8.4l-3,4a1,1,0,0,0-.2.6v2a2.985,2.985,0,0,0,1,2.22V60a2,2,0,0,0,2,2H38a2,2,0,0,0,2-2V53.22A2.985,2.985,0,0,0,41,51V49a1,1,0,0,0-.2-.6ZM27.5,46h9L38,48H26ZM38,52a1,1,0,0,1-1-1H35a1,1,0,0,1-2,0H31a1,1,0,0,1-2,0H27a1,1,0,0,1-2,0V50H39v1A1,1,0,0,1,38,52Zm-5,8H31V58h2Zm5,0H35V57a1,1,0,0,0-1-1H30a1,1,0,0,0-1,1v3H26V54a2.981,2.981,0,0,0,2-.78,2.954,2.954,0,0,0,4,0,2.954,2.954,0,0,0,4,0A2.981,2.981,0,0,0,38,54Z"></path><path d="M61.8,37.4l-3-4A1,1,0,0,0,58,33H48a1,1,0,0,0-.8.4l-3,4a1,1,0,0,0-.2.6v2a2.985,2.985,0,0,0,1,2.22V49a2,2,0,0,0,2,2H59a2,2,0,0,0,2-2V42.22A2.985,2.985,0,0,0,62,40V38A1,1,0,0,0,61.8,37.4ZM48.5,35h9L59,37H47ZM59,41a1,1,0,0,1-1-1H56a1,1,0,0,1-2,0H52a1,1,0,0,1-2,0H48a1,1,0,0,1-2,0V39H60v1A1,1,0,0,1,59,41Zm-5,8H52V47h2Zm5,0H56V46a1,1,0,0,0-1-1H51a1,1,0,0,0-1,1v3H47V43a2.981,2.981,0,0,0,2-.78,2.954,2.954,0,0,0,4,0,2.954,2.954,0,0,0,4,0A2.981,2.981,0,0,0,59,43Z"></path><path d="M16.8,33.4A1,1,0,0,0,16,33H6a1,1,0,0,0-.8.4l-3,4A1,1,0,0,0,2,38v2a2.985,2.985,0,0,0,1,2.22V49a2,2,0,0,0,2,2H17a2,2,0,0,0,2-2V42.22A2.985,2.985,0,0,0,20,40V38a1,1,0,0,0-.2-.6ZM6.5,35h9L17,37H5ZM17,41a1,1,0,0,1-1-1H14a1,1,0,0,1-2,0H10a1,1,0,0,1-2,0H6a1,1,0,0,1-2,0V39H18v1A1,1,0,0,1,17,41Zm-5,8H10V47h2Zm5,0H14V46a1,1,0,0,0-1-1H9a1,1,0,0,0-1,1v3H5V43a2.981,2.981,0,0,0,2-.78,2.954,2.954,0,0,0,4,0,2.954,2.954,0,0,0,4,0A2.981,2.981,0,0,0,17,43Z"></path><path d="M33,34.184V31H45a9,9,0,0,0,2-17.774c0-.076,0-.151,0-.226a7.008,7.008,0,0,0-7-7,6.886,6.886,0,0,0-2.231.369A10.995,10.995,0,0,0,18,13v.055A9,9,0,0,0,19,31H31v3.184A3,3,0,0,0,29.184,36H22v2h7.184A3,3,0,0,0,31,39.816V42h2V39.816A3,3,0,0,0,34.816,38H42V36H34.816A3,3,0,0,0,33,34.184ZM12,22a7.019,7.019,0,0,1,7.051-7,1,1,0,0,0,1-1.1A8.884,8.884,0,0,1,20,13,8.994,8.994,0,0,1,36.565,8.138,1,1,0,0,0,37.84,8.5,4.94,4.94,0,0,1,40,8a5.006,5.006,0,0,1,5,5,4.893,4.893,0,0,1-.083.877,1,1,0,0,0,.873,1.171A7,7,0,0,1,45,29H19A7.008,7.008,0,0,1,12,22ZM32,38a1,1,0,1,1,1-1A1,1,0,0,1,32,38Z"></path><path d="M50,22H48a3,3,0,0,1-3,3v2A5.006,5.006,0,0,0,50,22Z"></path><rect x="41" y="25" width="2" height="2"></rect></g></svg>