<svg xmlns="http://www.w3.org/2000/svg" viewBox="0 0 64 64" x="0px" y="0px"><g data-name="CD-Compact Disc-Computer-Music-Data"><path d="M55.707,56.293l-6-6A1,1,0,0,0,49,50H19V48a3,3,0,0,0-3-3H10a1,1,0,0,1,0-2h6a3,3,0,0,0,3-3V38h7v4H22a1,1,0,0,0-1,1v4a1,1,0,0,0,1,1H42a1,1,0,0,0,1-1V43a1,1,0,0,0-1-1H38V38H52a3,3,0,0,0,3-3V9a3,3,0,0,0-3-3H45V8h7a1,1,0,0,1,1,1V30H11V9a1,1,0,0,1,1-1h7V6H12A3,3,0,0,0,9,9V35a3,3,0,0,0,3,3h5v2a1,1,0,0,1-1,1H10a3,3,0,0,0,0,6h6a1,1,0,0,1,1,1v2H15a1,1,0,0,0-.707.293l-6,6A1,1,0,0,0,8,57v3a2,2,0,0,0,2,2H54a2,2,0,0,0,2-2V57A1,1,0,0,0,55.707,56.293ZM41,46H23V44H41Zm-5-4H28V38h8ZM11,35V32H53v3a1,1,0,0,1-1,1H12A1,1,0,0,1,11,35Zm4.414,17H48.586l4,4H11.414ZM10,60V58H54v2Z"></path><rect x="16" y="53" width="2" height="2"></rect><rect x="20" y="53" width="2" height="2"></rect><rect x="42" y="53" width="2" height="2"></rect><rect x="24" y="53" width="16" height="2"></rect><rect x="46" y="53" width="2" height="2"></rect><rect x="47" y="33" width="2" height="2"></rect><path d="M32,28A13,13,0,1,0,19,15,13.015,13.015,0,0,0,32,28ZM32,4A11,11,0,1,1,21,15,11.013,11.013,0,0,1,32,4Z"></path><path d="M32,18a3,3,0,1,0-3-3A3,3,0,0,0,32,18Zm0-4a1,1,0,1,1-1,1A1,1,0,0,1,32,14Z"></path><path d="M32,22v2a8.991,8.991,0,0,0,2.249-.284l-.5-1.936A7.043,7.043,0,0,1,32,22Z"></path><path d="M40.346,18.375l-1.854-.75A7.055,7.055,0,0,1,35.5,21.064l1,1.731A9.061,9.061,0,0,0,40.346,18.375Z"></path></g></svg>