<svg xmlns="http://www.w3.org/2000/svg" viewBox="0 0 64 64" x="0px" y="0px"><title>Wifi Synchronize</title><g data-name="Wifi Synchronize"><path d="M57,8H50v2h7a3,3,0,0,1,3,3V38H4V13a3,3,0,0,1,3-3h7V8H7a5.006,5.006,0,0,0-5,5V43a5.006,5.006,0,0,0,5,5H25v8H22a1,1,0,0,0-1,1v3H19v2H45V60H43V57a1,1,0,0,0-1-1H39V48H57a5.006,5.006,0,0,0,5-5V13A5.006,5.006,0,0,0,57,8ZM41,60H23V58H41Zm-4-4H27V48H37ZM57,46H7a3,3,0,0,1-3-3V40H60v3A3,3,0,0,1,57,46Z"></path><path d="M17.867,9.867a19.956,19.956,0,0,1,28.266,0,1,1,0,1,0,1.414-1.414,21.955,21.955,0,0,0-31.094,0,1,1,0,0,0,1.414,1.414Z"></path><path d="M42.6,14.4a1,1,0,0,0,.707-1.707,15.968,15.968,0,0,0-22.614,0,1,1,0,1,0,1.414,1.414,13.969,13.969,0,0,1,19.786,0A.993.993,0,0,0,42.6,14.4Z"></path><path d="M38.36,18.64a1,1,0,0,0,.709-1.705,9.98,9.98,0,0,0-14.138,0,1,1,0,0,0,1.419,1.41,7.979,7.979,0,0,1,11.3,0A1,1,0,0,0,38.36,18.64Z"></path><circle cx="32" cy="22" r="2"></circle><rect x="31" y="28" width="2" height="2"></rect><rect x="39" y="28" width="2" height="2"></rect><rect x="23" y="28" width="2" height="2"></rect></g></svg>