<svg xmlns="http://www.w3.org/2000/svg" viewBox="0 0 64 64" x="0px" y="0px"><g><rect x="15" y="18" width="2" height="2"></rect><rect x="21" y="18" width="2" height="2"></rect><path d="M62.6,34.49A3,3,0,0,0,59.64,31H43.54a3.986,3.986,0,0,0-3.94,3.34L37.82,45H33.7l-2.89-7.95a7.083,7.083,0,0,0-3.73-4L21,30.35v-.88A8.991,8.991,0,0,0,27,21V8a1,1,0,0,0-1-1H14a5,5,0,0,0-5,5v4.05a3.482,3.482,0,0,0,.22,6.92A9.109,9.109,0,0,0,13,28.48V30.3L7.93,32.15A8.986,8.986,0,0,0,2,40.6V46a4.924,4.924,0,0,0,1.03,3H3a1,1,0,0,0-1,1v4a1,1,0,0,0,1,1H5v6a1,1,0,0,0,1,1H58a1,1,0,0,0,1-1V55h2a1,1,0,0,0,1-1V50a1,1,0,0,0-1-1h-.87a2.121,2.121,0,0,0,.13-.51ZM9,20.91a1.494,1.494,0,0,1,0-2.82ZM41.57,34.67A1.989,1.989,0,0,1,43.54,33h.28L41.15,49H39.18ZM37.49,47l-.34,2H30a1,1,0,0,1-1-1V47ZM11,12a3.009,3.009,0,0,1,3-3H25v3.21c-.59.09-1.13.2-1.65.3A20.562,20.562,0,0,1,19,13a6.157,6.157,0,0,1-2.65-.44A8.214,8.214,0,0,0,13,12a1,1,0,0,0-1,1v2a1,1,0,0,1-1,1Zm0,9V18a3.009,3.009,0,0,0,3-3v-.96a5.222,5.222,0,0,1,1.65.4A8.214,8.214,0,0,0,19,15a22.337,22.337,0,0,0,4.73-.53c.41-.08.83-.16,1.27-.24V21a7,7,0,0,1-14,0Zm8,8.94V31a2,2,0,0,1-4,0V29.47A8.805,8.805,0,0,0,18,30,8.262,8.262,0,0,0,19,29.94ZM4,40.6a6.988,6.988,0,0,1,4.61-6.57l4.64-1.69a3.98,3.98,0,0,0,7.48.08l5.53,2.46a5.006,5.006,0,0,1,2.67,2.86L31.57,45h-3.5l-2.14-5.37a1.027,1.027,0,0,0-.95-.63,1,1,0,0,0-1,1v9H20a4.979,4.979,0,0,0-2.53-4.32l-.48-3.8-1.98.24.36,2.92c-.12-.01-.24-.04-.37-.04H9V39H7v6a1,1,0,0,0,1,1h5v3H7a3.009,3.009,0,0,1-3-3ZM27.18,49h-1.2V45.15L27,47.71V48A3,3,0,0,0,27.18,49ZM18,49H15V46A3.009,3.009,0,0,1,18,49ZM57,60H7V55H57Zm3-7H4V51H60Zm-1.71-4.84a.989.989,0,0,1-.98.84H43.18l2.67-16H59.64a1,1,0,0,1,.99,1.16Z"></path><path d="M52,38a3,3,0,1,0,3,3A3,3,0,0,0,52,38Zm0,4a1,1,0,1,1,1-1A1,1,0,0,1,52,42Z"></path><path d="M59,2H35a3.009,3.009,0,0,0-3,3V21a3.009,3.009,0,0,0,3,3h6.5l2.7,3.6a1,1,0,0,0,1.6,0L48.5,24H59a3.009,3.009,0,0,0,3-3V5A3.009,3.009,0,0,0,59,2Zm1,19a1,1,0,0,1-1,1H48a1.014,1.014,0,0,0-.8.4L45,25.33,42.8,22.4A1.014,1.014,0,0,0,42,22H35a1,1,0,0,1-1-1V5a1,1,0,0,1,1-1H59a1,1,0,0,1,1,1Z"></path><rect x="38" y="8" width="18" height="2"></rect><rect x="38" y="12" width="18" height="2"></rect><rect x="38" y="16" width="18" height="2"></rect></g></svg>