<svg xmlns="http://www.w3.org/2000/svg" viewBox="0 0 48 48" x="0px" y="0px"><g><polygon points="25 31.414 25 38.586 28.586 35 25 31.414"></polygon><polygon points="25 19.414 25 26.586 28.586 23 25 19.414"></polygon><path d="M9,46H39a1,1,0,0,0,1-1V11H34a3,3,0,0,1-3-3V2H9A1,1,0,0,0,8,3V45A1,1,0,0,0,9,46ZM23,17a1,1,0,0,1,1.707-.707l6,6a1,1,0,0,1,0,1.414L25.414,29l5.293,5.293a1,1,0,0,1,0,1.414l-6,6A1,1,0,0,1,23,41V31.414l-5.293,5.293-1.414-1.414L22.586,29l-6.293-6.293,1.414-1.414L23,26.586ZM16,6h4V8H16ZM12,6h2V8H12Zm0,4h8v2H12Z"></path><path d="M38.586,9,33,3.414V8a1,1,0,0,0,1,1Z"></path></g></svg>