<svg xmlns="http://www.w3.org/2000/svg" viewBox="0 0 64 64" x="0px" y="0px"><g data-name="Lap-Check Up"><path d="M32,2A30,30,0,1,0,62,32,30.034,30.034,0,0,0,32,2Zm0,58A28,28,0,1,1,60,32,28.032,28.032,0,0,1,32,60Z"></path><path d="M32,6A26,26,0,1,0,58,32,26.029,26.029,0,0,0,32,6Zm0,50A24,24,0,1,1,56,32,24.028,24.028,0,0,1,32,56Z"></path><path d="M46,31a3,3,0,1,0,3,3A3,3,0,0,0,46,31Zm0,4a1,1,0,1,1,1-1A1,1,0,0,1,46,35Z"></path><circle cx="28" cy="16" r="2"></circle><path d="M22,44a3,3,0,1,0,3,3A3,3,0,0,0,22,44Zm0,4a1,1,0,1,1,1-1A1,1,0,0,1,22,48Z"></path><circle cx="41" cy="47" r="2"></circle><path d="M20,30c0-1.118-.972-1.6-1.553-1.895-.062-.031-.135-.067-.207-.105.072-.038.145-.074.207-.105C19.027,27.6,20,27.118,20,26a1,1,0,0,0-1.989-.146,4.35,4.35,0,0,1-.458.25C16.973,26.4,16,26.88,16,28s.972,1.605,1.553,1.895l.209.106-.209.106C16.972,30.4,16,30.882,16,32a1,1,0,0,0,1.989.145,4.346,4.346,0,0,1,.458-.251C19.028,31.6,20,31.117,20,30Z"></path><path d="M43,27a1,1,0,0,0,1.989.145,4.346,4.346,0,0,1,.458-.251C46.028,26.6,47,26.117,47,25s-.972-1.6-1.553-1.895c-.062-.031-.135-.067-.207-.105.072-.038.145-.074.207-.105C46.027,22.6,47,22.118,47,21a1,1,0,0,0-1.989-.146,4.35,4.35,0,0,1-.458.25C43.973,21.4,43,21.88,43,23s.972,1.605,1.553,1.895l.209.106-.209.106C43.972,25.4,43,25.882,43,27Z"></path><path d="M31.083,27.2a2.423,2.423,0,0,0-2.5.387,1.013,1.013,0,0,0-.022,1.425.974.974,0,0,0,1.393.011,2.345,2.345,0,0,1,.624.114,4.378,4.378,0,0,0,1.1.176,1.9,1.9,0,0,0,1.4-.562,2.421,2.421,0,0,0,.388-2.5,3.025,3.025,0,0,0-.176-.563,2.473,2.473,0,0,1,.625.114,2.417,2.417,0,0,0,2.5-.388,1.013,1.013,0,0,0,.021-1.425.976.976,0,0,0-1.394-.01,2.464,2.464,0,0,1-.625-.113,2.424,2.424,0,0,0-2.5.388,2.421,2.421,0,0,0-.387,2.5,2.967,2.967,0,0,0,.177.562A2.345,2.345,0,0,1,31.083,27.2Z"></path><path d="M36,41c-.113,0-.241-.164-.5-.555a2.346,2.346,0,0,0-4.332,0c-.52.78-.478.786-1,0A2.572,2.572,0,0,0,28,39a1,1,0,0,0,0,2c.112,0,.239.164.5.554a2.344,2.344,0,0,0,4.33,0c.522-.783.482-.783,1,0A2.576,2.576,0,0,0,36,43a1,1,0,0,0,0-2Z"></path></g></svg>