<svg xmlns="http://www.w3.org/2000/svg" viewBox="0 0 64 64" x="0px" y="0px"><g data-name="Drinking"><path d="M62,56H58.117l1.85-16.648,1.865-2.8A1.006,1.006,0,0,0,62,36V19a1,1,0,0,0-1-1H56V10.414l3.707-3.707a1,1,0,0,0,0-1.414l-3-3a1,1,0,0,0-1.414,0l-5,5A1,1,0,0,0,50,8V18H45.928A8,8,0,1,0,36,24.734V36a1.006,1.006,0,0,0,.168.555l1.865,2.8L39.883,56H32V25a1,1,0,0,0-.2-.6L26,16.667V10a2,2,0,0,0,2-2V4a2,2,0,0,0-2-2H10A2,2,0,0,0,8,4V8a2,2,0,0,0,2,2v6.667L4.2,24.4A1,1,0,0,0,4,25V56H3a1,1,0,0,0-1,1v2a3,3,0,0,0,3,3H60a3,3,0,0,0,3-3V57A1,1,0,0,0,62,56ZM60,20v7.051l-.089-.021A20.179,20.179,0,0,0,56,26.409V20ZM56,4.414,57.586,6,54.293,9.293A1,1,0,0,0,54,10V26.365c-.763.008-1.421.042-2,.094V8.414ZM50,26.75c-.435.088-.838.183-1.233.277a18.661,18.661,0,0,1-5.107.613,18.6,18.6,0,0,1-5.1-.614q-.277-.067-.559-.132V20H50ZM32,17a6,6,0,0,1,12,0,6.126,6.126,0,0,1-.09,1H37a1,1,0,0,0-1,1v3.644A6.017,6.017,0,0,1,32,17Zm7.994,21.89a1,1,0,0,0-.162-.445L38,35.7V28.949l.091.021a20.547,20.547,0,0,0,5.569.67,20.619,20.619,0,0,0,5.574-.668,18.611,18.611,0,0,1,5.1-.612,18.65,18.65,0,0,1,5.113.615l.557.131V35.7l-1.832,2.748a1,1,0,0,0-.162.445L56.105,56H41.9ZM10,4H26V8H10ZM6,25.333,11.8,17.6A1,1,0,0,0,12,17V10H24v7a1,1,0,0,0,.2.6L30,25.333V56H6ZM61,59a1,1,0,0,1-1,1H5a1,1,0,0,1-1-1V58H61Z"></path><path d="M47.707,46.464a1,1,0,0,0-1.414,0l-2.829,2.829a1,1,0,0,0,0,1.414l2.829,2.829a1,1,0,0,0,1.414,0l2.829-2.829a1,1,0,0,0,0-1.414ZM47,51.415,45.585,50,47,48.585,48.415,50Z"></path><path d="M55,39H51a1,1,0,0,0-1,1v4a1,1,0,0,0,1,1h4a1,1,0,0,0,1-1V40A1,1,0,0,0,55,39Zm-1,4H52V41h2Z"></path><path d="M47,41a1,1,0,0,0,1-1V36a1,1,0,0,0-1-1H43a1,1,0,0,0-1,1v4a1,1,0,0,0,1,1Zm-3-4h2v2H44Z"></path><path d="M53.293,36.536a1,1,0,0,0,1.414,0l2.829-2.829a1,1,0,0,0,0-1.414l-2.829-2.829a1,1,0,0,0-1.414,0l-2.829,2.829a1,1,0,0,0,0,1.414ZM54,31.585,55.415,33,54,34.415,52.585,33Z"></path><path d="M27,27H9a1,1,0,0,0-1,1V50a1,1,0,0,0,1,1H27a1,1,0,0,0,1-1V28A1,1,0,0,0,27,27ZM26,49H10V29H26Z"></path><rect x="52" y="48" width="2" height="2"></rect><rect x="47" y="31" width="2" height="2"></rect><rect x="40" y="32" width="2" height="2"></rect><rect x="43" y="43" width="2" height="2"></rect></g></svg>