<svg xmlns="http://www.w3.org/2000/svg" viewBox="0 0 64 64" x="0px" y="0px"><g><rect x="42" y="6" width="2" height="2"></rect><rect x="38" y="6" width="2" height="2"></rect><rect x="34" y="6" width="2" height="2"></rect><rect x="20" y="6" width="10" height="2"></rect><path d="M38,24v3a1,1,0,0,0,1,1h4a1,1,0,0,0,1-1V24h2a2,2,0,0,0,2-2V16a2,2,0,0,0-2-2H44V12h2a2,2,0,0,0,2-2V4a2,2,0,0,0-2-2H18a2,2,0,0,0-2,2v6a2,2,0,0,0,2,2h2v2H18a2,2,0,0,0-2,2v6a2,2,0,0,0,2,2h2v3a1,1,0,0,0,1,1h4a1,1,0,0,0,1-1V24Zm4,2H40V24h2Zm0-12H40V12h2ZM26,14V12H38v2ZM18,4H46v6H18Zm4,8h2v2H22Zm-4,4H46v6H18Zm6,10H22V24h2Z"></path><rect x="42" y="18" width="2" height="2"></rect><rect x="38" y="18" width="2" height="2"></rect><rect x="34" y="18" width="2" height="2"></rect><rect x="20" y="18" width="10" height="2"></rect><path d="M23,38H5a3,3,0,0,0-3,3V53a3,3,0,0,0,3,3h5v4H8v2H20V60H18V56h5a3,3,0,0,0,3-3V41A3,3,0,0,0,23,38ZM5,40H23a1,1,0,0,1,1,1v9H4V41A1,1,0,0,1,5,40ZM16,60H12V56h4Zm7-6H5a1,1,0,0,1-1-1V52H24v1A1,1,0,0,1,23,54Z"></path><path d="M59,38H41a3,3,0,0,0-3,3V53a3,3,0,0,0,3,3h5v4H44v2H56V60H54V56h5a3,3,0,0,0,3-3V41A3,3,0,0,0,59,38ZM41,40H59a1,1,0,0,1,1,1v9H40V41A1,1,0,0,1,41,40ZM52,60H48V56h4Zm7-6H41a1,1,0,0,1-1-1V52H60v1A1,1,0,0,1,59,54Z"></path><rect x="50" y="18" width="2" height="2"></rect><rect x="54" y="18" width="2" height="2"></rect><rect x="54" y="22" width="2" height="2"></rect><rect x="54" y="26" width="2" height="2"></rect><rect x="54" y="30" width="2" height="2"></rect><rect x="54" y="34" width="2" height="2"></rect><rect x="12" y="18" width="2" height="2"></rect><rect x="8" y="18" width="2" height="2"></rect><rect x="8" y="22" width="2" height="2"></rect><rect x="8" y="26" width="2" height="2"></rect><rect x="8" y="30" width="2" height="2"></rect><rect x="8" y="34" width="2" height="2"></rect></g></svg>