<svg xmlns="http://www.w3.org/2000/svg" viewBox="0 0 64 64" x="0px" y="0px"><g><rect x="5.766" y="47.331" width="6" height="12" transform="translate(-17.711 6.214) rotate(-19.999)"></rect><rect x="13.223" y="42.253" width="8" height="16" transform="translate(-16.148 8.921) rotate(-19.999)"></rect><path d="M36.732,54,58.15,41.634a1.983,1.983,0,0,0,1-1.734,2,2,0,0,0-3-1.731l-9.194,5.306A3.992,3.992,0,0,1,43,47H32V45H43a2,2,0,0,0,2-2,1.661,1.661,0,0,0-.116-.641,1.919,1.919,0,0,0-.472-.773A1.985,1.985,0,0,0,43,41H28.259l-6.668,3.71L24.972,54Z"></path><circle cx="27" cy="15" r="1"></circle><circle cx="37" cy="25" r="1"></circle><path d="M32,8A12,12,0,1,0,44,20,12.013,12.013,0,0,0,32,8Zm-8,7a3,3,0,1,1,3,3A3,3,0,0,1,24,15Zm2.707,11.707-1.414-1.414,12-12,1.414,1.414ZM37,28a3,3,0,1,1,3-3A3,3,0,0,1,37,28Z"></path><rect x="31" y="2" width="2" height="2"></rect><rect x="26.6" y="2.579" width="2" height="2" transform="matrix(0.966, -0.259, 0.259, 0.966, 0.014, 7.264)"></rect><rect x="22.5" y="4.278" width="2" height="2" transform="translate(0.51 12.458) rotate(-30.002)"></rect><rect x="18.979" y="6.979" width="2" height="2" transform="translate(0.21 16.465) rotate(-45)"></rect><rect x="16.277" y="10.5" width="2" height="2" transform="translate(-1.321 20.712) rotate(-59.998)"></rect><rect x="14.579" y="14.6" width="2" height="2" transform="matrix(0.259, -0.966, 0.966, 0.259, -3.521, 26.612)"></rect><rect x="14" y="19" width="2" height="2"></rect><rect x="14.579" y="23.4" width="2" height="2" transform="translate(-5.784 4.864) rotate(-15)"></rect><rect x="16.278" y="27.5" width="2" height="2" transform="translate(-11.934 12.454) rotate(-29.995)"></rect><rect x="18.979" y="31.021" width="2" height="2" transform="translate(-16.79 23.506) rotate(-45)"></rect><rect x="22.5" y="33.722" width="2" height="2" transform="translate(-18.321 37.712) rotate(-59.998)"></rect><rect x="26.6" y="35.421" width="2" height="2" transform="matrix(0.259, -0.966, 0.966, 0.259, -14.722, 53.657)"></rect><rect x="31" y="36" width="2" height="2"></rect><rect x="35.4" y="35.42" width="2" height="2.001" transform="translate(-8.198 10.683) rotate(-15.027)"></rect><rect x="39.5" y="33.722" width="2" height="2" transform="translate(-11.934 24.897) rotate(-29.995)"></rect><rect x="43.021" y="31.021" width="2" height="2" transform="translate(-9.75 40.497) rotate(-44.99)"></rect><rect x="45.722" y="27.5" width="2" height="2" transform="translate(-1.318 54.717) rotate(-60.005)"></rect><rect x="47.421" y="23.4" width="2" height="2" transform="translate(12.32 64.856) rotate(-75)"></rect><rect x="48" y="19" width="2" height="2"></rect><rect x="47.421" y="14.6" width="2" height="2" transform="translate(-2.388 13.064) rotate(-15)"></rect><rect x="45.722" y="10.5" width="2" height="2" transform="translate(0.508 24.898) rotate(-29.995)"></rect><rect x="43.02" y="6.979" width="2" height="2" transform="translate(7.251 33.464) rotate(-45)"></rect><rect x="39.5" y="4.277" width="2" height="2" transform="translate(15.682 37.715) rotate(-60.005)"></rect><rect x="35.4" y="2.579" width="2.001" height="2" transform="translate(23.505 37.806) rotate(-74.973)"></rect></g></svg>