<svg xmlns="http://www.w3.org/2000/svg" viewBox="0 0 64 64" x="0px" y="0px"><g><path d="M60,2H30a2,2,0,0,0-2,2v8H5a3,3,0,0,0-3,3V35a3,3,0,0,0,3,3H28V50a2,2,0,0,0,2,2H60a2,2,0,0,0,2-2V4A2,2,0,0,0,60,2ZM5,14H39a1,1,0,0,1,1,1v1.184A2.966,2.966,0,0,0,39,16H5a2.966,2.966,0,0,0-1,.184V15A1,1,0,0,1,5,14ZM4,35V19a1,1,0,0,1,1-1H39a1,1,0,0,1,1,1V35a1,1,0,0,1-1,1H5A1,1,0,0,1,4,35ZM60,50H30V38h9a3,3,0,0,0,3-3V15a3,3,0,0,0-3-3H30V4h2V6h2V4h2V6h2V4h2V6h2V4h2V6h2V4h2V6h2V4h2V6h2V4h2V6h2V4h2Z"></path><rect x="44" y="22" width="6" height="2"></rect><rect x="52" y="22" width="4" height="2"></rect><rect x="44" y="26" width="6" height="2"></rect><rect x="52" y="26" width="4" height="2"></rect><rect x="44" y="30" width="6" height="2"></rect><rect x="52" y="30" width="4" height="2"></rect><rect x="44" y="34" width="6" height="2"></rect><rect x="52" y="34" width="4" height="2"></rect><rect x="44" y="38" width="6" height="2"></rect><rect x="52" y="38" width="4" height="2"></rect><rect x="46" y="16" width="10" height="2"></rect><rect x="46" y="12" width="10" height="2"></rect><rect x="52" y="42" width="4" height="2"></rect><rect x="44" y="42" width="6" height="2"></rect><path d="M22,20a7,7,0,1,0,7,7A7.008,7.008,0,0,0,22,20Zm0,12a5,5,0,1,1,5-5A5.006,5.006,0,0,1,22,32Z"></path><path d="M8,22h3V20H7a1,1,0,0,0-1,1v4H8Z"></path><path d="M37,20H33v2h3v3h2V21A1,1,0,0,0,37,20Z"></path><path d="M8,29H6v4a1,1,0,0,0,1,1h4V32H8Z"></path><path d="M36,32H33v2h4a1,1,0,0,0,1-1V29H36Z"></path><rect x="31" y="26" width="2" height="2"></rect><rect x="11" y="26" width="2" height="2"></rect><path d="M34,54H22V50a2,2,0,0,0-2-2V44a2,2,0,0,0-2-2H4a2,2,0,0,0-2,2v4a2,2,0,0,0,2,2v4a2,2,0,0,0-2,2v4a2,2,0,0,0,2,2H18a1.978,1.978,0,0,0,1-.278A1.978,1.978,0,0,0,20,62H34a2,2,0,0,0,2-2V56A2,2,0,0,0,34,54ZM4,44H6v2H8V44h2v2h2V44h2v2h2V44h2v4H4Zm2,6H8v2h2V50h2v2h2V50h2v2h2V50h2v4H6ZM4,60V56H6v2H8V56h2v2h2V56h2v2h2V56h2v4Zm30,0H20V56h2v2h2V56h2v2h2V56h2v2h2V56h2Z"></path></g></svg>