<svg xmlns="http://www.w3.org/2000/svg" viewBox="0 0 64 64" x="0px" y="0px"><g data-name="Goal-On top-Success-Business-Mountain-Trophy"><path d="M61.94,60.66l-9-25a1,1,0,0,0-.92-.66.961.961,0,0,0-.95.63L46.91,46.02l-7.99-19.4A.977.977,0,0,0,38,26H37V25a3.009,3.009,0,0,0-3-3H33V16h1a5,5,0,0,0,5-5V9.9A5.017,5.017,0,0,0,43,5V3a1,1,0,0,0-1-1H22a1,1,0,0,0-1,1V5a5.017,5.017,0,0,0,4,4.9V11a5,5,0,0,0,5,5h1v6H30a3.009,3.009,0,0,0-3,3v1H26a.977.977,0,0,0-.92.62l-7.99,19.4L12.93,35.63a.979.979,0,0,0-.95-.63,1,1,0,0,0-.92.66l-9,25A.994.994,0,0,0,3,62H61a.994.994,0,0,0,.94-1.34ZM39,4h2V5a3.014,3.014,0,0,1-2,2.83ZM25,7.83A3.014,3.014,0,0,1,23,5V4h2ZM51.95,38.82l2.6,7.22-.55.55-1.29-1.3a1.008,1.008,0,0,0-1.42,0L50,46.59l-.83-.83ZM30,14a3.009,3.009,0,0,1-3-3V4H37v7a3.009,3.009,0,0,1-3,3ZM29,25a1,1,0,0,1,1-1h4a1,1,0,0,1,1,1v1H29Zm-2.33,3H37.33l2.12,5.15-2.52,2.51-4.31-3.44a.992.992,0,0,0-1.24,0l-4.31,3.44-2.52-2.52ZM12.05,38.82l2.78,6.94-.83.83-1.29-1.3a1.008,1.008,0,0,0-1.42,0L10,46.59l-.55-.55ZM11.33,60H4.42L8.7,48.12l.59.59a1.008,1.008,0,0,0,1.42,0L12,47.41l1.29,1.3a1.014,1.014,0,0,0,1.42,0l.92-.93.36.9Zm2.16,0L23.73,35.14l2.56,2.57a1,1,0,0,0,1.33.07L32,34.28l4.38,3.5A.961.961,0,0,0,37,38a1.024,1.024,0,0,0,.71-.29l2.56-2.56L50.51,60Zm39.18,0L48.01,48.68l.36-.9.92.93a1.008,1.008,0,0,0,1.42,0L52,47.41l1.29,1.3a1.014,1.014,0,0,0,1.42,0l.59-.59L59.58,60Z"></path><path d="M5,16h8a3,3,0,0,0,0-6,4,4,0,0,0-8,0,3,3,0,0,0,0,6Zm0-4H6.184a1,1,0,0,0,.942-1.334,2,2,0,1,1,3.748,0A1,1,0,0,0,11.816,12H13a1,1,0,0,1,0,2H5a1,1,0,0,1,0-2Z"></path><path d="M51,22h8a3,3,0,0,0,0-6,4,4,0,0,0-8,0,3,3,0,0,0,0,6Zm0-4h1.184a1,1,0,0,0,.942-1.334A1.979,1.979,0,0,1,53,16a2,2,0,0,1,4,0,1.979,1.979,0,0,1-.126.666A1,1,0,0,0,57.816,18H59a1,1,0,0,1,0,2H51a1,1,0,0,1,0-2Z"></path></g></svg>