<svg xmlns="http://www.w3.org/2000/svg" viewBox="0 0 64 64" x="0px" y="0px"><g><path d="M4,10H56V5a1,1,0,0,0-1-1H5A1,1,0,0,0,4,5ZM16,6h2V8H16ZM12,6h2V8H12ZM8,6h2V8H8Z"></path><rect x="30" y="24" width="2" height="7"></rect><rect x="30" y="33" width="2" height="7"></rect><rect x="22" y="36" width="2" height="4"></rect><rect x="22" y="30" width="2" height="4"></rect><path d="M5,56H55a1,1,0,0,0,1-1V12H4V55A1,1,0,0,0,5,56Zm25-2H12V52H30Zm0-4H12V48H30ZM12,46V44h4v2Zm18,0H18V44H30Zm22,8H34V52H52Zm0-4H34V48H52Zm0-4H40V44H52ZM44,18h8v2H44Zm-6,0h4v2H38Zm0,4H52v2H38Zm0,4H52v2H38Zm0,20H34V44h4ZM18.293,20.293a1,1,0,0,1,1.414,0L22,22.586,28.586,16H27V14h4a1,1,0,0,1,1,1v4H30V17.414l-7.293,7.293a1,1,0,0,1-1.414,0L19,22.414l-3.293,3.293-1.414-1.414ZM8,18h2V40h2V33a1,1,0,0,1,1-1h4a1,1,0,0,1,1,1v7h2V29a1,1,0,0,1,1-1h4a1,1,0,0,1,1,1V40h2V23a1,1,0,0,1,1-1h4a1,1,0,0,1,1,1V40h2v2H9a1,1,0,0,1-1-1Z"></path><path d="M9,60H59a1,1,0,0,0,1-1V9a1,1,0,0,0-1-1H58V55a3,3,0,0,1-3,3H8v1A1,1,0,0,0,9,60Z"></path><rect x="14" y="34" width="2" height="2"></rect><rect x="14" y="38" width="2" height="2"></rect></g></svg>