<svg xmlns="http://www.w3.org/2000/svg" viewBox="0 0 64 64" x="0px" y="0px"><g data-name="Compound Medicine"><path d="M44.765,44.142a3.962,3.962,0,0,0-3.059-.136l-4.343,1.581A4.988,4.988,0,0,0,38.466,40L36.2,34.8a.855.855,0,0,0-.061-.116L34,29.791V24.816A2.993,2.993,0,0,0,33,19H27a2.993,2.993,0,0,0-1,5.816v4.975L21.535,40a4.922,4.922,0,0,0-.4,2.139l-2.114-.373a.981.981,0,0,0-.515.046l-6.531,2.377-.342-.94a1,1,0,0,0-1.281-.6L2.833,45.385a1,1,0,0,0-.6,1.281L7.708,61.7a1,1,0,0,0,1.282.6l7.517-2.737a1,1,0,0,0,.6-1.281l-.342-.939.611-.223,5.733,1.937a1.011,1.011,0,0,0,.663-.008l20.672-7.525a4,4,0,0,0,.323-7.381ZM9.246,60.078,4.457,46.922,10.1,44.869l.343.941h0l.262.721,4.184,11.494ZM28,30V25h4v5a1,1,0,0,0,.083.4l1.424,3.261a8.016,8.016,0,0,0-1.177-.081,6.878,6.878,0,0,0-2.668.479,5.02,5.02,0,0,1-2,.361,4.952,4.952,0,0,1-1.425-.177L27.917,30.4A1,1,0,0,0,28,30Zm-1-9h6a1,1,0,0,1,0,2H27a1,1,0,0,1,0-2ZM23.366,40.8l2.061-4.71a6.79,6.79,0,0,0,2.233.328,6.911,6.911,0,0,0,2.679-.48,5.681,5.681,0,0,1,3.975,0c.074.027.155.05.23.076L36.633,40.8a2.965,2.965,0,0,1-2.284,4.136,3.982,3.982,0,0,0-1.738-.776l-9.453-1.668A2.942,2.942,0,0,1,23.366,40.8Zm21.523,7.809a2,2,0,0,1-1.13,1.034l-20.344,7.4-5.734-1.937a1,1,0,0,0-.662.008l-.94.342-3.42-9.4,6.279-2.286L32.264,46.13A1.983,1.983,0,0,1,33.8,47.416a1.278,1.278,0,0,1,.069.25c0,.034.009.068.016.1a1.822,1.822,0,0,1,.008.676,2.011,2.011,0,0,1-2.319,1.628L20.312,48.088l-.347,1.969,11.259,1.986a4.016,4.016,0,0,0,4.636-3.259,4.113,4.113,0,0,0,.042-.537l6.488-2.362a2,2,0,0,1,2.5,2.726Z"></path><rect x="27" y="40" width="2" height="2"></rect><rect x="31" y="38" width="2" height="2"></rect><path d="M61.509,9.051a3.97,3.97,0,0,0-2.582-1.645L41.021,4.249a2.994,2.994,0,0,0-5.9-.026l-1.042,5.91a2.991,2.991,0,0,0,5.556,1.993l17.906,3.157a4,4,0,0,0,3.971-6.232Zm-21.232.464.045-.254.531-3.012,9.47,1.67a28.341,28.341,0,0,1-2.875.839,23.443,23.443,0,0,1-6.2.743C40.935,9.5,40.611,9.507,40.277,9.515ZM37.6,11.472a.994.994,0,0,1-.747.166h0a1,1,0,0,1-.811-1.158L37.087,4.57a1,1,0,0,1,.982-.826.963.963,0,0,1,.177.016,1,1,0,0,1,.811,1.157l-1.042,5.909A.992.992,0,0,1,37.6,11.472Zm22.6.22a2,2,0,0,1-2.317,1.622l-12.2-2.152c.662-.111,1.4-.259,2.234-.46A25.365,25.365,0,0,0,53.9,8.549l4.685.826A2,2,0,0,1,60.2,11.692Z"></path><rect x="31" y="15" width="2" height="2"></rect><rect x="27" y="13" width="2" height="2"></rect><rect x="30" y="10" width="2" height="2"></rect></g></svg>