<svg xmlns="http://www.w3.org/2000/svg" viewBox="0 0 64 64" x="0px" y="0px"><g data-name="Money Time"><path d="M32,47A14.981,14.981,0,0,1,55.562,34.7,26.057,26.057,0,1,0,34.7,55.562,14.9,14.9,0,0,1,32,47Zm1.536-16.293-2.829,2.828a1,1,0,0,1-1.414,0L26.757,31H17V29h9.757L29,26.758V15h2V26.758l2.536,2.535a1,1,0,0,1,0,1.414ZM31,48v2H29V48ZM16.564,42.021l1.415,1.414L16.565,44.85,15.15,43.436ZM15.15,16.564l1.415-1.414,1.414,1.415-1.415,1.414ZM29,12V10h2v2Zm14.436,5.979-1.415-1.414,1.414-1.415,1.415,1.414ZM50,31H48V29h2ZM30,54A24,24,0,1,1,54,30c0,.35-.008.7-.022,1.043l-2-.086C51.993,30.64,52,30.32,52,30A22,22,0,1,0,30,52q.48,0,.956-.021l.088,2Q30.525,54,30,54ZM12,29v2H10V29Z"></path><rect x="29" y="29" width="2" height="2" transform="translate(-12.426 30) rotate(-45)"></rect><path d="M47,34A13,13,0,1,0,60,47,13.015,13.015,0,0,0,47,34ZM40,48H38V46h2Zm6-2h2a4,4,0,0,1,0,8v2H46V54a4,4,0,0,1-4-4h2a2,2,0,0,0,2,2h2a2,2,0,0,0,0-4H46a4,4,0,0,1,0-8V38h2v2a4,4,0,0,1,4,4H50a2,2,0,0,0-2-2H46a2,2,0,0,0,0,4Zm10,2H54V46h2Z"></path></g></svg>