<svg xmlns="http://www.w3.org/2000/svg" viewBox="0 0 64 64" x="0px" y="0px"><g><path d="M25,40.662V39.106A14.029,14.029,0,0,1,18.332,30H18a4,4,0,0,1,0-8h1a1,1,0,0,0,1-1V17a5.006,5.006,0,0,1,5-5H39a5.006,5.006,0,0,1,5,5v4a1,1,0,0,0,1,1h1a4,4,0,0,1,0,8h-.332A14.029,14.029,0,0,1,39,39.106v1.556a19,19,0,1,0-14,0Z"></path><polygon points="26.542 44.956 25.375 49.626 30.044 48.458 26.542 44.956"></polygon><path d="M56,60V57.25a10.989,10.989,0,0,0-8.2-10.632L39.38,44.4l1.59,6.36A1,1,0,0,1,40,52a1.01,1.01,0,0,1-.243-.03L33,50.281V60H45V53h2v7ZM35.92,58.38a1.169,1.169,0,0,1-.21.33,1.155,1.155,0,0,1-.33.21.943.943,0,0,1-.76,0,1.155,1.155,0,0,1-.33-.21,1.169,1.169,0,0,1-.21-.33A.838.838,0,0,1,34,58a1.05,1.05,0,0,1,.29-.71,1.155,1.155,0,0,1,.33-.21,1.037,1.037,0,0,1,1.09.21A1.05,1.05,0,0,1,36,58,1,1,0,0,1,35.92,58.38Zm-.21-3.67a.99.99,0,0,1-1.09.21,1.155,1.155,0,0,1-.33-.21A.99.99,0,0,1,34,54a1.05,1.05,0,0,1,.29-.71,1,1,0,0,1,1.09-.21,1.155,1.155,0,0,1,.33.21A1.05,1.05,0,0,1,36,54,.99.99,0,0,1,35.71,54.71Z"></path><path d="M31,60V50.281L24.243,51.97a1,1,0,0,1-1.213-1.212l1.59-6.36L16.2,46.617A10.99,10.99,0,0,0,8,57.25V60h9V53h2v7Z"></path><path d="M46,24v4a2,2,0,0,0,0-4Z"></path><path d="M44,27V23.816A3,3,0,0,1,42,21V17a3,3,0,0,0-3-3H25a3,3,0,0,0-3,3v4a3,3,0,0,1-2,2.816V27a12,12,0,0,0,24,0Zm-6.92-4.38a1.155,1.155,0,0,1,.21-.33,1.576,1.576,0,0,1,.15-.12.757.757,0,0,1,.18-.09.636.636,0,0,1,.18-.06.949.949,0,0,1,.58.06,1.155,1.155,0,0,1,.33.21,1.032,1.032,0,0,1,.21.33,1,1,0,1,1-1.84,0ZM29,23h2v4a1,1,0,0,0,2,0V23h2v4a3,3,0,0,1-6,0Zm-3.38.92a1.155,1.155,0,0,1-.33-.21,1.169,1.169,0,0,1-.21-.33.943.943,0,0,1,0-.76,1.032,1.032,0,0,1,.21-.33,1.155,1.155,0,0,1,.33-.21,1,1,0,0,1,1.09.21,1.032,1.032,0,0,1,.21.33.99.99,0,0,1-.21,1.09,1.155,1.155,0,0,1-.33.21.943.943,0,0,1-.76,0Zm.427,8.735,1.511-1.31A5.992,5.992,0,0,0,32,33a5.992,5.992,0,0,0,4.442-1.655l1.511,1.31A7.9,7.9,0,0,1,32,35,7.9,7.9,0,0,1,26.047,32.655Z"></path><polygon points="33.956 48.458 38.625 49.626 37.458 44.956 33.956 48.458"></polygon><path d="M37,42.586V40.061a13.782,13.782,0,0,1-10,0v2.525l5,5Z"></path><path d="M18,28V24a2,2,0,0,0,0,4Z"></path></g></svg>