<svg xmlns="http://www.w3.org/2000/svg" viewBox="0 0 64 64" x="0px" y="0px"><g data-name="avatar-man-young-account-profile"><path d="M29,21h2a3,3,0,0,0-6,0h2a1,1,0,0,1,2,0Z"></path><path d="M36,20a1,1,0,0,1,1,1h2a3,3,0,0,0-6,0h2A1,1,0,0,1,36,20Z"></path><path d="M36.33,26.5l-1.73-1a3,3,0,0,1-5.2,0l-1.732,1a5,5,0,0,0,8.661,0Z"></path><path d="M46.92,37.32l-7.14-.96L38,34.59V32.21A11.029,11.029,0,0,0,42.95,24H43a3.995,3.995,0,0,0,4-4V17a15,15,0,0,0-30,0v3a3.995,3.995,0,0,0,4,4h.05A11.029,11.029,0,0,0,26,32.21v2.38l-1.78,1.77-7.14.96A7,7,0,0,0,11,44.25V61a1,1,0,0,0,1,1H52a1,1,0,0,0,1-1V44.25A7,7,0,0,0,46.92,37.32ZM19,48V60H13V44.25a5,5,0,0,1,4.34-4.95l4.55-.61-1.6,1.6a1.008,1.008,0,0,0,0,1.42l2.14,2.13-1.98,1.33a1,1,0,0,0-.38,1.2L20.72,48Zm2,12V48.69L25.52,60Zm5-4.19-3.77-9.43,2.32-1.55A.989.989,0,0,0,25,44.1a1.046,1.046,0,0,0-.29-.81L22.41,41,26,37.41Zm18.41-34.4A1.983,1.983,0,0,1,43,22V18a2.006,2.006,0,0,1,2,2A1.983,1.983,0,0,1,44.41,21.41ZM21,22a2.015,2.015,0,0,1-2-2,2.006,2.006,0,0,1,2-2Zm0-6a4.047,4.047,0,0,0-1.98.54,12.988,12.988,0,0,1,25.96,0A4.047,4.047,0,0,0,43,16a.992.992,0,0,0-.36-.77l-6-5a.993.993,0,0,0-1.24-.03C31.56,13.08,27.81,15,22,15A1,1,0,0,0,21,16Zm2,7V16.98a22.33,22.33,0,0,0,12.96-4.71L41,16.47V23a9,9,0,0,1-18,0ZM36,60H28V43.06a8.981,8.981,0,0,0,8,0Zm0-19.31a6.762,6.762,0,0,1-8,0V33.24a10.906,10.906,0,0,0,8,0Zm2-3.28L41.59,41l-2.3,2.29a1.046,1.046,0,0,0-.29.81.989.989,0,0,0,.45.73l2.32,1.55L38,55.81ZM43,60H38.48L43,48.69Zm8,0H45V48H43.28l.65-1.63a1,1,0,0,0-.38-1.2l-1.98-1.33,2.14-2.13a1.008,1.008,0,0,0,0-1.42l-1.6-1.6,4.55.61A5,5,0,0,1,51,44.25Z"></path></g></svg>