<svg xmlns="http://www.w3.org/2000/svg" viewBox="0 0 64 64" x="0px" y="0px"><g data-name="avatar-man-young-account-profile"><path d="M29,22h2a3,3,0,0,0-6,0h2a1,1,0,0,1,2,0Z"></path><path d="M36,21a1,1,0,0,1,1,1h2a3,3,0,0,0-6,0h2A1,1,0,0,1,36,21Z"></path><path d="M36.33,27.5l-1.73-1a3,3,0,0,1-5.2,0l-1.73,1a5,5,0,0,0,8.66,0Z"></path><path d="M46.92,38.32l-6.05-.81a1.122,1.122,0,0,0-.16-.22L38,34.59V33.21A11.966,11.966,0,0,0,39.53,32h.4A7.036,7.036,0,0,0,47,25c0-1-.05-2.01-.13-3.03a3.8,3.8,0,0,0-.37-2.87C44.78,9.03,38.83,2,32,2S19.22,9.03,17.5,19.1a3.8,3.8,0,0,0-.37,2.87c-.08,1.02-.13,2.04-.13,3.09A7.024,7.024,0,0,0,24.07,32h.4A11.966,11.966,0,0,0,26,33.21v1.38l-2.71,2.7a1.122,1.122,0,0,0-.16.22l-6.05.81A7,7,0,0,0,11,45.25V61a1,1,0,0,0,1,1H52a1,1,0,0,0,1-1V45.25A7,7,0,0,0,46.92,38.32Zm-8.03-.01-1.52,6.07-3.96-2.64,3.72-5.2Zm-2.65,7.72C35.1,48.52,33.55,50,32,50s-3.1-1.48-4.24-3.97L32,43.2ZM28,34.68v-.44a10.906,10.906,0,0,0,8,0v.44l-4,5.6Zm13.34-4.9A10.912,10.912,0,0,0,42.95,25H43a3.944,3.944,0,0,0,1.99-.55c0,.2.01.4.01.61A4.974,4.974,0,0,1,41.34,29.78ZM45,21a2.015,2.015,0,0,1-2,2V19A2.006,2.006,0,0,1,45,21ZM21,19v4a2.015,2.015,0,0,1-2-2A2.006,2.006,0,0,1,21,19Zm-2,6c0-.18.01-.37.01-.55A3.944,3.944,0,0,0,21,25h.05a10.956,10.956,0,0,0,1.61,4.78A5,5,0,0,1,19,25Zm3-9a1,1,0,0,0-1,1,3.588,3.588,0,0,0-1.04.16C21.92,9.3,26.67,4,32,4S42.08,9.3,44.04,17.16A3.588,3.588,0,0,0,43,17a1,1,0,0,0-1-1h-.76a8.034,8.034,0,0,1-7.49-5.19l-.81-2.16a1,1,0,0,0-1.88,0l-.81,2.16A8.034,8.034,0,0,1,22.76,16Zm1,8V18a10.065,10.065,0,0,0,9-6.17A10.065,10.065,0,0,0,41,18v6a9,9,0,0,1-18,0Zm3.87,12.54,3.72,5.2-3.96,2.64-1.52-6.07ZM51,60H45V50H43V60H21V50H19V60H13V45.25a5,5,0,0,1,4.34-4.95l6-.8,1.69,6.74a.987.987,0,0,0,.61.69A.922.922,0,0,0,26,47h.01c1.49,3.18,3.63,5,5.99,5s4.5-1.82,5.99-5H38a.922.922,0,0,0,.36-.07.987.987,0,0,0,.61-.69l1.69-6.74,6,.8A5,5,0,0,1,51,45.25Z"></path></g></svg>