<svg xmlns="http://www.w3.org/2000/svg" viewBox="0 0 64 64" x="0px" y="0px"><g data-name="Tooth Whitening"><path d="M48.912,23.59a10.991,10.991,0,0,0-15.528-8.569,3.221,3.221,0,0,1-2.769,0,10.992,10.992,0,0,0-13.661,16.23,20.893,20.893,0,0,1,3.379,8.272l1.394,8A2.992,2.992,0,0,0,24.682,50h1.56a3.007,3.007,0,0,0,2.975-2.614l1.105-8.515A1,1,0,0,1,31.313,38h1.374a1,1,0,0,1,.992.871l1.1,8.515A3.009,3.009,0,0,0,37.758,50h1.56a2.992,2.992,0,0,0,2.955-2.481l1.394-8a20.893,20.893,0,0,1,3.379-8.272,11.019,11.019,0,0,0,1.866-7.66ZM45.4,30.111A22.909,22.909,0,0,0,41.7,39.18L40.3,47.175a1,1,0,0,1-.985.825h-1.56a1,1,0,0,1-.992-.871l-1.1-8.515A3.008,3.008,0,0,0,32.687,36H31.313a3.006,3.006,0,0,0-2.974,2.614l-1.106,8.515a1,1,0,0,1-.991.871h-1.56a1,1,0,0,1-.985-.825L22.3,39.18A22.909,22.909,0,0,0,18.6,30.111,8.992,8.992,0,0,1,29.771,16.834a5.263,5.263,0,0,0,4.458,0A8.992,8.992,0,0,1,45.4,30.111Z"></path><path d="M32,20a7.625,7.625,0,0,1-4.411-1.309l-1.178,1.616A9.524,9.524,0,0,0,32,22a9.524,9.524,0,0,0,5.589-1.693l-1.178-1.616A7.625,7.625,0,0,1,32,20Z"></path><rect x="31" y="2" width="2" height="4"></rect><rect x="37.247" y="3.954" width="4" height="2" transform="translate(24.304 41.582) rotate(-75)"></rect><rect x="44" y="6.751" width="4" height="2" transform="translate(16.291 43.716) rotate(-60.005)"></rect><rect x="49.799" y="11.201" width="4" height="2" transform="translate(6.544 40.201) rotate(-45)"></rect><rect x="54.249" y="17" width="4" height="2" transform="translate(-1.465 30.53) rotate(-29.995)"></rect><rect x="57.046" y="23.753" width="4" height="2" transform="translate(-4.395 16.126) rotate(-15)"></rect><rect x="58" y="31" width="4" height="2"></rect><rect x="58.046" y="37.247" width="2" height="4" transform="translate(5.854 86.123) rotate(-75)"></rect><rect x="55.248" y="44" width="2" height="4" transform="translate(-11.714 71.711) rotate(-59.998)"></rect><rect x="50.799" y="49.799" width="2" height="4" transform="translate(-21.456 51.793) rotate(-44.995)"></rect><rect x="45" y="54.249" width="2" height="4" transform="translate(-21.961 30.534) rotate(-29.998)"></rect><rect x="38.247" y="57.046" width="2" height="4" transform="translate(-13.945 12.17) rotate(-15)"></rect><rect x="31" y="58" width="2" height="4"></rect><rect x="22.753" y="58.046" width="4" height="2" transform="translate(-38.688 67.673) rotate(-75)"></rect><rect x="16" y="55.249" width="4" height="2" transform="translate(-39.714 43.718) rotate(-60.005)"></rect><rect x="10.201" y="50.799" width="4" height="2" transform="translate(-33.054 23.799) rotate(-45)"></rect><rect x="5.752" y="45" width="4" height="2" transform="translate(-21.958 10.036) rotate(-29.995)"></rect><rect x="2.954" y="38.247" width="4" height="2" transform="translate(-9.989 2.62) rotate(-15)"></rect><rect x="2" y="31" width="4" height="2"></rect><rect x="3.954" y="22.753" width="2" height="4" transform="translate(-20.238 23.132) rotate(-75)"></rect><rect x="6.751" y="16" width="2" height="4" transform="translate(-11.713 15.712) rotate(-59.998)"></rect><rect x="11.201" y="10.201" width="2" height="4" transform="translate(-5.054 12.2) rotate(-44.995)"></rect><rect x="17" y="5.751" width="2" height="4" transform="translate(-1.464 10.038) rotate(-29.998)"></rect><rect x="23.753" y="2.954" width="2" height="4" transform="translate(-0.439 6.575) rotate(-15)"></rect></g></svg>