<svg xmlns="http://www.w3.org/2000/svg" viewBox="0 0 64 64" x="0px" y="0px"><g><path d="M61,28H53a4.952,4.952,0,0,0-3.97,2h-.06A4.952,4.952,0,0,0,45,28H40.96A4.98,4.98,0,0,0,38,19V17A15,15,0,1,0,8,17v2a4.989,4.989,0,0,0-2.67,9.21A4.9,4.9,0,0,0,5,30a5,5,0,0,0,5,5,5.058,5.058,0,0,0,1.78-.32A5,5,0,0,0,16,37h.03a4.957,4.957,0,0,0-1.2,1.26L8.31,40.29A8.963,8.963,0,0,0,2,48.88V61a1,1,0,0,0,1,1H61a1,1,0,0,0,1-1V53a1,1,0,0,0-1-1H44V50H61a1,1,0,0,0,1-1V29A1,1,0,0,0,61,28ZM36,17v3.15a1.014,1.014,0,0,0,.4.8.97.97,0,0,0,.87.16A2.876,2.876,0,0,1,38,21a3.009,3.009,0,0,1,3,3,2.968,2.968,0,0,1-2.02,2.81,1.011,1.011,0,0,0-.62.64.937.937,0,0,0,0,.55H37a1,1,0,0,0-1,1v3.99a3.136,3.136,0,0,1-1.67-.5,1,1,0,0,0-.87-.12,1.035,1.035,0,0,0-.64.62A2.963,2.963,0,0,1,28,34.21v-.42A11.014,11.014,0,0,0,34,24V16a1,1,0,0,0-1-1,7.75,7.75,0,0,1-6.22-2.71c.15-.16.29-.31.42-.47a15.167,15.167,0,0,0,3.13-5.54A12.975,12.975,0,0,1,36,17ZM23,33a9.014,9.014,0,0,1-9-9V17.97a19.161,19.161,0,0,0,11.31-4.31A9.468,9.468,0,0,0,32,16.96V24A9.014,9.014,0,0,1,23,33Zm3,1.57V39.7l-3,4.5-3-4.5V34.57a10.68,10.68,0,0,0,6,0Zm2,3.6A3.014,3.014,0,0,1,30,41v1.17a3.026,3.026,0,0,0-2,0ZM29.97,37H30a5,5,0,0,0,4.22-2.32,5.131,5.131,0,0,0,1.78.31v4.78l-4.83-1.51A4.957,4.957,0,0,0,29.97,37ZM16,35a2.985,2.985,0,0,1-2.82-2.01,1.035,1.035,0,0,0-.64-.62.993.993,0,0,0-.87.12A2.911,2.911,0,0,1,10,33a3.009,3.009,0,0,1-3-3,2.964,2.964,0,0,1,.51-1.67.99.99,0,0,0,.13-.88,1.035,1.035,0,0,0-.62-.64A2.968,2.968,0,0,1,5,24a3.009,3.009,0,0,1,3-3,2.876,2.876,0,0,1,.73.11.97.97,0,0,0,.87-.16,1.014,1.014,0,0,0,.4-.8V17A12.974,12.974,0,0,1,28.53,5.25a13.332,13.332,0,0,1-2.84,5.26,11.815,11.815,0,0,1-.86.9A17.117,17.117,0,0,1,13,16a1,1,0,0,0-1,1v7a11.014,11.014,0,0,0,6,9.79v.42A2.982,2.982,0,0,1,16,35Zm0,6a3.014,3.014,0,0,1,2-2.83v4a3.026,3.026,0,0,0-2,0ZM36.78,57A2.974,2.974,0,0,0,36,59a3,3,0,0,0,.18,1H11.97a4.756,4.756,0,0,0-.8-2.36A6.794,6.794,0,0,1,10,54a6.609,6.609,0,0,1,1.71-4.29l-1.42-1.42A8.723,8.723,0,0,0,8,54a8.855,8.855,0,0,0,1.52,4.77A2.655,2.655,0,0,1,9.97,60H4V48.88A6.964,6.964,0,0,1,8.91,42.2l5.13-1.6c-.01.13-.04.26-.04.4v4a1,1,0,0,0,2,0,1,1,0,0,1,2,0,1,1,0,0,0,2,0V43.3l2.17,3.25a.99.99,0,0,0,1.66,0L26,43.3V45a1,1,0,0,0,2,0,1,1,0,0,1,2,0,1,1,0,0,0,2,0V41c0-.14-.03-.27-.04-.4L36,41.86V49a1,1,0,0,0,1,1h5v2H39a3.009,3.009,0,0,0-3,3A2.974,2.974,0,0,0,36.78,57ZM40,60H39a1,1,0,0,1,0-2h1Zm0-4H39a1,1,0,0,1,0-2h1Zm20,4H42V58H60Zm0-6v2H42V54ZM38,48V46h7a3.014,3.014,0,0,1,2.83,2Zm10-2.97A4.924,4.924,0,0,0,45,44H38V30h7a3.009,3.009,0,0,1,3,3ZM60,48H50.17A3.014,3.014,0,0,1,53,46h7Zm0-4H53a4.924,4.924,0,0,0-3,1.03V33a3.009,3.009,0,0,1,3-3h7Z"></path><rect x="52" y="32" width="6" height="2"></rect><rect x="52" y="36" width="6" height="2"></rect><rect x="52" y="40" width="6" height="2"></rect><rect x="40" y="32" width="6" height="2"></rect><rect x="40" y="36" width="6" height="2"></rect><rect x="40" y="40" width="6" height="2"></rect><circle cx="19" cy="21" r="2"></circle><circle cx="27" cy="21" r="2"></circle><path d="M20.872,26.118l-1.4,1.424a5.007,5.007,0,0,0,7.064,0l-1.4-1.424A3.082,3.082,0,0,1,20.872,26.118Z"></path><rect x="22" y="49" width="2" height="2"></rect><rect x="22" y="53" width="2" height="2"></rect></g></svg>