<svg xmlns="http://www.w3.org/2000/svg" viewBox="0 0 64 64" x="0px" y="0px"><g><path d="M18,14a3,3,0,0,0-3,3V33H33.4l2.2-4.121A3.013,3.013,0,0,1,38.386,27H47V22H42a3,3,0,0,1-3-3V14Zm7,4h8v2H25Zm-6,0h4v2H19Zm0,4H33v2H19Zm16,6H19V26H35Zm2-4H35V22h2Z"></path><path d="M4,54.09,9.606,35.128A2.99,2.99,0,0,1,12.477,33H13V17a5.006,5.006,0,0,1,5-5H40a2.224,2.224,0,0,1,.322.064c.031.011.061.019.091.033a.97.97,0,0,1,.294.2l8,8a1,1,0,0,1,.2.293c.014.031.022.062.033.094A2.133,2.133,0,0,1,49,21v6h5V13a3,3,0,0,0-3-3H25a1,1,0,0,1-.94-.66L22.438,4.855c-.011-.032-.021-.064-.029-.1A1,1,0,0,0,21.438,4H7A3,3,0,0,0,4,7Z"></path><path d="M59.187,32.519A3,3,0,0,0,56.232,29H38.386a1.007,1.007,0,0,0-.937.649.918.918,0,0,1-.054.12l-2.513,4.7A1,1,0,0,1,34,35H12.477a1,1,0,0,0-.956.706L4.339,60H54.166Z"></path><path d="M45.586,20,41,15.414V19a1,1,0,0,0,1,1Z"></path></g></svg>