<svg xmlns="http://www.w3.org/2000/svg" viewBox="0 0 64 64" x="0px" y="0px"><g><path d="M49,52.026v-.719a7.029,7.029,0,0,1-2.744-2.315H44.992a1,1,0,0,1-.707-.293l-1.7-1.7H42v.951a1,1,0,0,1-1,1H38.951a1,1,0,0,1-.707-.293L36.586,47H36v6a1,1,0,0,1-1,1H29a1,1,0,0,1-1-1V37a1,1,0,0,1,1-1h6a1,1,0,0,1,1,1v4H46.262A7.024,7.024,0,0,1,49,38.693V32H15V55.348A6.013,6.013,0,0,1,18.911,60h24.2A5.007,5.007,0,0,1,47,56.1c0-.033,0-.067,0-.1A4.977,4.977,0,0,1,49,52.026ZM24,53a1,1,0,0,1-1,1H17a1,1,0,0,1-1-1V47a1,1,0,0,1,1-1h6a1,1,0,0,1,1,1Z"></path><rect x="18" y="48" width="4" height="4"></rect><path d="M31.293,15.122,16.414,30H47.586L32.707,15.121A1,1,0,0,0,31.293,15.122Z"></path><path d="M52,40a5.016,5.016,0,0,0-4.325,2.5,1,1,0,0,1-.865.5H30v4h1.586l1.707-1.707A1,1,0,0,1,34,45h3a1,1,0,0,1,.707.293l1.658,1.658H40V46a1,1,0,0,1,1-1h2a1,1,0,0,1,.707.293l1.7,1.7h1.4a1,1,0,0,1,.866.5A5,5,0,1,0,52,40Zm1,8a3,3,0,1,1,3-3A3,3,0,0,1,53,48Z"></path><path d="M8.207,33.793a1.148,1.148,0,0,0,1.586,0L29.879,13.707a3,3,0,0,1,4.242,0L54.207,33.793a1.148,1.148,0,0,0,1.586,0,1.125,1.125,0,0,0,0-1.586L32.707,9.121a1,1,0,0,0-1.414,0L8.207,32.207A1.125,1.125,0,0,0,8.207,33.793Z"></path><circle cx="53" cy="45" r="1"></circle><path d="M34,47.414l-1.293,1.293A1,1,0,0,1,32,49H30v3h4Z"></path><path d="M13,57a.506.506,0,0,1-.138.017.979.979,0,0,1-.984-.67A1.993,1.993,0,0,0,8,57a1.972,1.972,0,0,0,.214.875,1,1,0,0,1-1.34,1.338,1.992,1.992,0,0,0-2.6.787h12.6A4.006,4.006,0,0,0,13,57Z"></path><path d="M56,57a1,1,0,0,1-1-1,3,3,0,0,0-6,0,2.962,2.962,0,0,0,.113.759,1,1,0,0,1-1.006,1.255c-.034,0-.135-.012-.169-.016a2.977,2.977,0,0,0-2.767,2h14.7A4.006,4.006,0,0,0,56,57Z"></path><polygon points="49 22.586 49 12 43 12 43 16.586 49 22.586"></polygon><rect x="30" y="38" width="4" height="3"></rect><rect x="41" y="8" width="10" height="2"></rect></g></svg>