<svg xmlns="http://www.w3.org/2000/svg" viewBox="0 0 64 64" x="0px" y="0px"><g data-name="Espresso-Coffee Maker-Coffee-Hot Drink-Machine"><path d="M46,56V21.82A3.01,3.01,0,0,0,48,19V5a3.009,3.009,0,0,0-3-3H19a3.009,3.009,0,0,0-3,3V19a3.01,3.01,0,0,0,2,2.82V28H14a2.006,2.006,0,0,0-2,2v2a2.006,2.006,0,0,0,2,2h4V56a3.009,3.009,0,0,0-3,3v2a1,1,0,0,0,1,1H48a1,1,0,0,0,1-1V59A3.009,3.009,0,0,0,46,56ZM18,5a1,1,0,0,1,1-1H45a1,1,0,0,1,1,1V19a1,1,0,0,1-1,1H19a1,1,0,0,1-1-1ZM39.87,52.53A3.356,3.356,0,0,0,42,49.39,3.393,3.393,0,0,0,38.61,46H28.11a2.007,2.007,0,0,0-1.49.66,1.979,1.979,0,0,0-.5,1.54l.61,6.2a3.986,3.986,0,0,0,.53,1.6H20V34h6.18A3.01,3.01,0,0,0,29,36v2a2.006,2.006,0,0,0,2,2h2a2.006,2.006,0,0,0,2-2V36a3.009,3.009,0,0,0,3-3V29a1,1,0,0,0-1-1V26h1a1,1,0,0,0,.97-.76L39.78,22H44V56H36.74a3.986,3.986,0,0,0,.53-1.6l.08-.87Zm-2.29-1.24L37.91,48h.7A1.387,1.387,0,0,1,40,49.39a1.366,1.366,0,0,1-.87,1.28ZM35.9,48l-.62,6.2A2,2,0,0,1,33.29,56H30.71a2,2,0,0,1-1.99-1.8L28.11,48ZM29,34a1,1,0,0,1-1-1V30h8v3a1,1,0,0,1-1,1Zm4,2v2H31V36Zm-4-8V26h6v2Zm-2.22-4-.5-2H37.72l-.5,2ZM27,26v2H20V22h4.22l.81,3.24A1,1,0,0,0,26,26ZM14,32V30H26v2ZM47,60H17V59a1,1,0,0,1,1-1H46a1,1,0,0,1,1,1Z"></path><path d="M38,16a4,4,0,1,0-4-4A4,4,0,0,0,38,16Zm-1-5.722V12h2V10.278a2,2,0,1,1-2,0Z"></path><path d="M23,16h8a1,1,0,0,0,1-1V9a1,1,0,0,0-1-1H23a1,1,0,0,0-1,1v6A1,1,0,0,0,23,16Zm1-6h6v4H24Z"></path></g></svg>