<svg xmlns="http://www.w3.org/2000/svg" viewBox="0 0 64 64" x="0px" y="0px"><title>Creative</title><g><path d="M61,25H54.958a23.927,23.927,0,0,0-1.777-4.281l4.275-4.276a1,1,0,0,0,0-1.414L48.971,6.544a1,1,0,0,0-1.414,0l-4.276,4.275A23.927,23.927,0,0,0,39,9.042V3a1,1,0,0,0-1-1H26a1,1,0,0,0-1,1V9.042a23.927,23.927,0,0,0-4.281,1.777L16.443,6.544a1.029,1.029,0,0,0-1.414,0L6.544,15.029a1,1,0,0,0,0,1.414l4.275,4.276A23.927,23.927,0,0,0,9.042,25H3a1,1,0,0,0-1,1V38a1,1,0,0,0,1,1H9.042a23.927,23.927,0,0,0,1.777,4.281L6.544,47.557a1,1,0,0,0,0,1.414l8.485,8.485a1,1,0,0,0,1.414,0l4.276-4.275A23.927,23.927,0,0,0,25,54.958V61a1,1,0,0,0,1,1H38a1,1,0,0,0,1-1V54.958a23.927,23.927,0,0,0,4.281-1.777l4.276,4.275a1,1,0,0,0,1.414,0l8.485-8.485a1,1,0,0,0,0-1.414l-4.275-4.276A23.927,23.927,0,0,0,54.958,39H61a1,1,0,0,0,1-1V26A1,1,0,0,0,61,25ZM60,37H54.2a1,1,0,0,0-.965.74,21.866,21.866,0,0,1-2.165,5.217,1,1,0,0,0,.16,1.206l4.1,4.1-7.07,7.07-4.1-4.1a1,1,0,0,0-1.206-.16,21.866,21.866,0,0,1-5.217,2.165A1,1,0,0,0,37,54.2V60H27V54.2a1,1,0,0,0-.74-.965,21.866,21.866,0,0,1-5.217-2.165,1,1,0,0,0-1.206.16l-4.1,4.1-7.07-7.07,4.1-4.1a1,1,0,0,0,.16-1.206,21.866,21.866,0,0,1-2.165-5.217A1,1,0,0,0,9.8,37H4V27H9.8a1,1,0,0,0,.965-.74,21.866,21.866,0,0,1,2.165-5.217,1,1,0,0,0-.16-1.206l-4.1-4.1,7.07-7.071,4.1,4.1a1,1,0,0,0,1.206.16,21.866,21.866,0,0,1,5.217-2.165A1,1,0,0,0,27,9.8V4H37V9.8a1,1,0,0,0,.74.965,21.866,21.866,0,0,1,5.217,2.165,1,1,0,0,0,1.206-.16l4.1-4.1,7.07,7.071-4.1,4.1a1,1,0,0,0-.16,1.206,21.866,21.866,0,0,1,2.165,5.217A1,1,0,0,0,54.2,27H60Z"></path><path d="M32,17A15,15,0,1,0,47,32,15.017,15.017,0,0,0,32,17Zm0,28A13,13,0,1,1,45,32,13.015,13.015,0,0,1,32,45Z"></path><rect x="39" y="31" width="2" height="2"></rect><rect x="23" y="31" width="2" height="2"></rect><path d="M32,27a2,2,0,0,1,2,2h2a4,4,0,0,0-3-3.858V23H31v2.142A3.992,3.992,0,0,0,32,33a2,2,0,1,1-2,2H28a4,4,0,0,0,3,3.858V41h2V38.858A3.992,3.992,0,0,0,32,31a2,2,0,0,1,0-4Z"></path></g></svg>