<svg xmlns="http://www.w3.org/2000/svg" viewBox="0 0 64 64" x="0px" y="0px"><g><path d="M33,7.14V5.86A4,4,0,0,0,36,2H34a2,2,0,0,1-4,0H28a4,4,0,0,0,3,3.86V7.14a3.983,3.983,0,0,0,0,7.72V17h2V14.86a3.983,3.983,0,0,0,0-7.72ZM32,13a2,2,0,1,1,2-2A2.006,2.006,0,0,1,32,13Z"></path><path d="M32,33a5,5,0,1,0-5-5A5.006,5.006,0,0,0,32,33Zm-1-5.414V25h2v3a1,1,0,0,1-.293.707l-2,2-1.414-1.414Z"></path><path d="M60,59V49H53V59H51V37H41V59H39V37a2.006,2.006,0,0,1,2-2V19H23V35a2.006,2.006,0,0,1,2,2V59H23V37H13V59H11V49H4V59H2v2H62V59Zm-5-8h3v2H55Zm0,4h3v2H55ZM47,39h2v2H47Zm0,4h2v2H47Zm0,4h2v2H47Zm0,4h2v2H47Zm0,4h2v2H47ZM43,39h2v2H43Zm0,4h2v2H43Zm0,4h2v2H43Zm0,4h2v2H43Zm0,4h2v2H43ZM29,51v2H27V51Zm-2-2V39h2V49Zm2,6v2H27V55Zm4-4v2H31V51Zm-2-2V39h2V49Zm2,6v2H31V55Zm4-4v2H35V51Zm-2-2V39h2V49Zm2,6v2H35V55ZM32,21a7,7,0,1,1-7,7A7.008,7.008,0,0,1,32,21ZM19,39h2v2H19Zm0,4h2v2H19Zm0,4h2v2H19Zm0,4h2v2H19Zm0,4h2v2H19ZM15,39h2v2H15Zm0,4h2v2H15Zm0,4h2v2H15Zm0,4h2v2H15Zm0,4h2v2H15ZM6,51H9v2H6Zm0,4H9v2H6Z"></path></g></svg>