<svg xmlns="http://www.w3.org/2000/svg" viewBox="0 0 64 64" x="0px" y="0px"><g data-name="Shipping"><path d="M56,32H49v2h7v4H39V32H37V43H27V26h4V24H9a3,3,0,0,0-3,3V59a3,3,0,0,0,3,3H55a3,3,0,0,0,3-3V31H56ZM25,37.956H8v-4H25ZM9,26H25v5.956H8V27A1,1,0,0,1,9,26ZM55,60H9a1,1,0,0,1-1-1V39.956H25V43a2,2,0,0,0,2,2H37a2,2,0,0,0,2-2V40H56V59A1,1,0,0,1,55,60Z"></path><path d="M60.378,23.945,54.49,15.439l2.945-2.945a5,5,0,1,0-7.071-7.071L47.419,8.368,38.913,2.479a1,1,0,0,0-1.277.116L34.808,5.423a1,1,0,0,0,0,1.414l7.071,7.071-3.806,3.806L32.3,15.788a1,1,0,0,0-1.023.241l-2.121,2.122a1,1,0,0,0,0,1.414L43.293,33.707a1,1,0,0,0,1.414,0l2.121-2.121a1,1,0,0,0,.242-1.024l-1.926-5.777,3.806-3.806,7.071,7.071a1,1,0,0,0,1.414,0l2.828-2.828A1,1,0,0,0,60.378,23.945ZM36.929,6.13,38.46,4.6l7.521,5.207-2.688,2.688Zm-4.68,11.75,4.494,1.5-.658.921L34.68,22.266l-3.408-3.408Zm5.964,2.88.9-1.254L51.778,6.837a3,3,0,1,1,4.243,4.243L43.352,23.748l-1.254.9-2.94,2.1L36.114,23.7ZM44,31.586l-3.408-3.408,1.967-1.405.921-.658,1.5,4.494Zm12.728-5.657-6.364-6.364,2.688-2.689L58.259,24.4Z"></path><rect x="52.9" y="6.958" width="2" height="4" transform="translate(9.45 40.733) rotate(-44.995)"></rect><rect x="42" y="54" width="8" height="2"></rect><rect x="42" y="50" width="2" height="2"></rect><rect x="46" y="50" width="4" height="2"></rect></g></svg>