<svg xmlns="http://www.w3.org/2000/svg" viewBox="0 0 64 64" x="0px" y="0px"><g><path d="M54,32v7H50V32l-4,2v6.93a1.981,1.981,0,0,0,.89,1.66L49,44V58a2.006,2.006,0,0,0,2,2h2a2.006,2.006,0,0,0,2-2V44l2.11-1.41A1.981,1.981,0,0,0,58,40.93V34Z"></path><path d="M28,5.23v4.8A5.013,5.013,0,0,1,29.9,13h5.05a8.94,8.94,0,0,0-2.59-5.36c-.11-.12-.24-.21-.36-.32V11H30V5.95A9.024,9.024,0,0,0,28,5.23Z"></path><path d="M6,58v2h5.97a2.673,2.673,0,0,0-.44-1.23,7.373,7.373,0,0,1-.45-.77Z"></path><path d="M24,52H22a5,5,0,0,1-5-5V41.3l-3,.94V49a1.033,1.033,0,0,1-.29.71A6.609,6.609,0,0,0,12,54H24Z"></path><path d="M13.97,60H24V56H12.37a6.678,6.678,0,0,0,.8,1.63A4.664,4.664,0,0,1,13.97,60Z"></path><path d="M12,42.86l-1.09.34A6.964,6.964,0,0,0,6,49.88V56h4.29A8.261,8.261,0,0,1,10,54a8.824,8.824,0,0,1,2-5.39Z"></path><circle cx="25" cy="14" r="3"></circle><path d="M38.48,58.76A2.652,2.652,0,0,0,38.03,60H44V58H38.92C38.78,58.26,38.64,58.52,38.48,58.76Z"></path><path d="M44,49.88a6.964,6.964,0,0,0-4.91-6.68L38,42.86v5.75A8.824,8.824,0,0,1,40,54a8.261,8.261,0,0,1-.29,2H44Z"></path><path d="M15.06,13H20.1A5.013,5.013,0,0,1,22,10.03V5.23a9.209,9.209,0,0,0-2,.72V11H18V7.31A9,9,0,0,0,15.06,13Z"></path><path d="M24,9.1a5.05,5.05,0,0,1,2,0V4.05A1.015,1.015,0,0,0,25,3a1,1,0,0,0-1,1Z"></path><path d="M26,56v4H36.03a4.759,4.759,0,0,1,.8-2.37,6.337,6.337,0,0,0,.8-1.63Z"></path><path d="M9.02,27.81a1.035,1.035,0,0,1,.62.64.99.99,0,0,1-.13.88A2.964,2.964,0,0,0,9,31a3.009,3.009,0,0,0,3,3,2.911,2.911,0,0,0,1.67-.51,1,1,0,0,1,1.5.5A3.007,3.007,0,0,0,18,36a2.963,2.963,0,0,0,2-.79v-.42A11.014,11.014,0,0,1,14,25V19H12v2.15a1.014,1.014,0,0,1-.4.8.97.97,0,0,1-.87.16A2.876,2.876,0,0,0,10,22a3.009,3.009,0,0,0-3,3A2.968,2.968,0,0,0,9.02,27.81Z"></path><path d="M31,47V40.67l-2.3-.72A.987.987,0,0,1,28,39V35.57a10.68,10.68,0,0,1-6,0V39a.987.987,0,0,1-.7.95l-2.3.72V47a3.009,3.009,0,0,0,3,3h6A3.009,3.009,0,0,0,31,47Z"></path><path d="M11,17H21.03a4.84,4.84,0,0,1-.93-2H11Z"></path><path d="M36.29,49.71A1.033,1.033,0,0,1,36,49V42.24l-3-.94V47a5,5,0,0,1-5,5H26v2H38A6.609,6.609,0,0,0,36.29,49.71Z"></path><path d="M16,25a9,9,0,0,0,18,0V19H16Zm13-5a2,2,0,1,1-2,2A2,2,0,0,1,29,20Zm-1.872,7.118,1.4,1.424a5.007,5.007,0,0,1-7.064,0l1.4-1.424A3.082,3.082,0,0,0,27.128,27.118ZM21,20a2,2,0,1,1-2,2A2,2,0,0,1,21,20Z"></path><path d="M28.97,17H39V15H29.9A4.84,4.84,0,0,1,28.97,17Z"></path><path d="M40,22a2.876,2.876,0,0,0-.73.11.97.97,0,0,1-.87-.16,1.014,1.014,0,0,1-.4-.8V19H36v6a11.014,11.014,0,0,1-6,9.79v.42a2.963,2.963,0,0,0,4.82-1.22,1.035,1.035,0,0,1,.64-.62,1,1,0,0,1,.87.12A2.911,2.911,0,0,0,38,34a3.009,3.009,0,0,0,3-3,2.964,2.964,0,0,0-.51-1.67.99.99,0,0,1-.13-.88,1.035,1.035,0,0,1,.62-.64A2.968,2.968,0,0,0,43,25,3.009,3.009,0,0,0,40,22Z"></path></g></svg>