<svg xmlns="http://www.w3.org/2000/svg" viewBox="0 0 64 64" x="0px" y="0px"><g><circle cx="18" cy="43" r="2"></circle><path d="M21.87,42a3.911,3.911,0,0,1,0,2H30V42ZM9,42v2h5.13a3.911,3.911,0,0,1,0-2Z"></path><rect x="5" y="41" width="2" height="4"></rect><rect x="2" y="41" width="2" height="4"></rect><path d="M21,15a7,7,0,1,0,7,7A7.009,7.009,0,0,0,21,15Zm3.307,8.664-3.2,2.132A2,2,0,0,1,18,24.132V19.868A2,2,0,0,1,21.109,18.2l3.2,2.132a2,2,0,0,1,0,3.328Z"></path><path d="M60,19a3,3,0,0,0-3-3H54v2a2,2,0,0,1-2,2H42a2,2,0,0,1-2-2V16H37a3,3,0,0,0-3,3V57a3,3,0,0,0,3,3H57a3,3,0,0,0,3-3ZM47,48a9,9,0,1,1,9-9A9.01,9.01,0,0,1,47,48Z"></path><polygon points="46 41.138 49.197 39 46 36.868 46 41.138"></polygon><path d="M37,14h1V10H4V33a1,1,0,0,0,1,1H32V19A5.006,5.006,0,0,1,37,14ZM9,27H7V25H9Zm0-4H7V21H9Zm0-4H7V17H9ZM21,31a9,9,0,1,1,9-9A9.01,9.01,0,0,1,21,31Z"></path><path d="M47,32a7,7,0,1,0,7,7A7.009,7.009,0,0,0,47,32Zm3.307,8.664-3.2,2.132A2,2,0,0,1,44,41.132V36.868A2,2,0,0,1,47.109,35.2l3.2,2.132a2,2,0,0,1,0,3.328Z"></path><polygon points="20 24.138 23.197 22 20 19.868 20 24.138"></polygon><rect x="42" y="16" width="10" height="2"></rect><path d="M4,8H38V5a1,1,0,0,0-1-1H5A1,1,0,0,0,4,5ZM14,5h2V7H14ZM10,5h2V7H10ZM6,5H8V7H6Z"></path></g></svg>