<svg xmlns="http://www.w3.org/2000/svg" viewBox="0 0 64 64" x="0px" y="0px"><g data-name="Shop-Online Shopping-Ecommerce-Basket-Buy"><path d="M51,2H13A6,6,0,0,0,7,8V56a6,6,0,0,0,6,6H51a6,6,0,0,0,6-6V8A6,6,0,0,0,51,2Zm4,54a4,4,0,0,1-4,4H13a4,4,0,0,1-4-4V54H55Zm0-4H9V12H55Zm0-42H9V8a4,4,0,0,1,4-4H51a4,4,0,0,1,4,4Z"></path><rect x="25" y="6" width="2" height="2"></rect><rect x="29" y="6" width="6" height="2"></rect><rect x="29" y="56" width="6" height="2"></rect><path d="M47.2,37.95l-2.22-2.21A2.018,2.018,0,0,0,46,34V32a2.006,2.006,0,0,0-2-2H40.62a3.932,3.932,0,0,0-5.24,0H28.62a3.932,3.932,0,0,0-5.24,0H20a2.006,2.006,0,0,0-2,2v2a2.018,2.018,0,0,0,1.02,1.74L16.8,37.95a3.021,3.021,0,0,0,.01,4.25,3.006,3.006,0,0,0,4.21.02l.74,5.21A3,3,0,0,0,24.73,50H39.27a3,3,0,0,0,2.97-2.58l.74-5.2a3,3,0,0,0,4.22-4.27ZM44,32v2h-.76l-1.27-1.26a3.673,3.673,0,0,0-.11-.74Zm-6-1a2,2,0,1,1-2,2A2.006,2.006,0,0,1,38,31Zm-8.14,1h4.28a3.641,3.641,0,0,0,0,2H29.86a3.641,3.641,0,0,0,0-2ZM26,31a2,2,0,1,1-2,2A2.006,2.006,0,0,1,26,31Zm-6,1h2.14a3.673,3.673,0,0,0-.11.74L20.76,34H20Zm-.37,8.78a1,1,0,1,1-1.41-1.41l4.35-4.35a3.969,3.969,0,0,0,1.41,1.41Zm20.63,6.35a1.009,1.009,0,0,1-.99.87H24.73a1,1,0,0,1-.99-.86l-.95-6.69,3.47-3.48A3.971,3.971,0,0,0,28.62,36h6.76a3.971,3.971,0,0,0,2.36.97l3.47,3.48Zm5.53-6.35a.99.99,0,0,1-1.42,0l-4.35-4.35a3.969,3.969,0,0,0,1.41-1.41l4.35,4.35A1,1,0,0,1,45.79,40.78Z"></path><rect x="31" y="38" width="2" height="8"></rect><rect x="32.469" y="41" width="8.062" height="2" transform="translate(-9.703 73.009) rotate(-82.875)"></rect><rect x="26.5" y="37.969" width="2" height="8.062" transform="translate(-4.997 3.735) rotate(-7.125)"></rect><path d="M25.293,26.707a1,1,0,0,0,1.414,0l4-4A1,1,0,0,0,30,21H29V14H27v8a1,1,0,0,0,.649.937L26,24.586l-1.649-1.649A1,1,0,0,0,25,22V14H23v7H22a1,1,0,0,0-.707,1.707Z"></path><path d="M37.293,26.707a1,1,0,0,0,1.414,0l4-4A1,1,0,0,0,42,21H41V14H39v8a1,1,0,0,0,.649.937L38,24.586l-1.649-1.649A1,1,0,0,0,37,22V14H35v7H34a1,1,0,0,0-.707,1.707Z"></path></g></svg>