<svg xmlns="http://www.w3.org/2000/svg" viewBox="0 0 64 64" x="0px" y="0px"><g data-name="Robot-Smartphone-Robotic-Automation-Artificial Intelligence"><path d="M46,2H18a6.006,6.006,0,0,0-6,6V56a6.006,6.006,0,0,0,6,6H46a6.006,6.006,0,0,0,6-6V8A6.006,6.006,0,0,0,46,2Zm4,54a4,4,0,0,1-4,4H18a4,4,0,0,1-4-4V8a4,4,0,0,1,4-4H46a4,4,0,0,1,4,4Z"></path><path d="M34,52H30a3,3,0,0,0,0,6h4a3,3,0,0,0,0-6Zm0,4H30a1,1,0,0,1,0-2h4a1,1,0,0,1,0,2Z"></path><rect x="25" y="6" width="2" height="2"></rect><rect x="29" y="6" width="6" height="2"></rect><path d="M46,37.184V37a5.006,5.006,0,0,0-5-5h-.586l-1.707-1.707A1,1,0,0,0,38,30H37V28h2a1,1,0,0,0,1-1V21a8,8,0,0,0-8.246-8A8.215,8.215,0,0,0,24,21.294V27a1,1,0,0,0,1,1h2v2H26a1,1,0,0,0-.707.293L23.586,32H23a5.006,5.006,0,0,0-5,5v.184A3,3,0,0,0,16,40h2a1,1,0,0,1,2,0h2a3,3,0,0,0-2-2.816V37a3,3,0,0,1,3-3v8a.984.984,0,0,0,.03.242l1,4A1,1,0,0,0,25,47H39a1,1,0,0,0,.97-.758l1-4A.984.984,0,0,0,41,42V34a3,3,0,0,1,3,3v.184A3,3,0,0,0,42,40h2a1,1,0,0,1,2,0h2A3,3,0,0,0,46,37.184ZM26,21.294A6.2,6.2,0,0,1,31.814,15,6,6,0,0,1,38,21v5H36a1,1,0,0,0-.447.105L32,27.882l-3.553-1.777A1,1,0,0,0,28,26H26Zm3,7.324L31.553,29.9a1,1,0,0,0,.894,0L35,28.618V30H29ZM26.414,32H37.586L39,33.414V41H36V39a4,4,0,0,0-8,0v2H25V33.414ZM34,41H30V39a2,2,0,0,1,4,0Zm-8.219,4-.5-2H38.719l-.5,2Z"></path><path d="M29,24h6a1,1,0,0,0,1-1V20a1,1,0,0,0-.684-.948l-3-1a.991.991,0,0,0-.632,0l-3,1A1,1,0,0,0,28,20v3A1,1,0,0,0,29,24Zm1-3.279,2-.667,2,.667V22H30Z"></path></g></svg>