<svg xmlns="http://www.w3.org/2000/svg" viewBox="0 0 64 64" x="0px" y="0px"><g data-name="Weight Luggage"><path d="M45,52H37V50H35v3a1,1,0,0,0,1,1H46a1,1,0,0,0,1-1V50H45Z"></path><path d="M32,26v8a1,1,0,0,0,1,1h3V33H34V27h2V25H33A1,1,0,0,0,32,26Z"></path><path d="M48,26v8a1,1,0,0,0,1,1h3V33H50V27h2V25H49A1,1,0,0,0,48,26Z"></path><path d="M21,14h2A9,9,0,0,0,5,14H7a7,7,0,0,1,14,0Z"></path><path d="M15,14.278V10H13v4.278a2,2,0,1,0,2,0Z"></path><path d="M61,56H60V45a1,1,0,0,0-1-1H58V15a1,1,0,0,0-1-1H45a1,1,0,0,0-1,1V44H42V15a1,1,0,0,0-1-1H29a1,1,0,0,0-1,1V44H23a1,1,0,0,0-1,1V56H17V24h6a3,3,0,0,0,3-3V5a3,3,0,0,0-3-3H5A3,3,0,0,0,2,5V21a3,3,0,0,0,3,3h6V56H3a1,1,0,0,0-1,1v4a1,1,0,0,0,1,1H61a1,1,0,0,0,1-1V57A1,1,0,0,0,61,56ZM46,16H56V44H46ZM30,16H40V44H30ZM24,46H58V56H24ZM4,21V5A1,1,0,0,1,5,4H23a1,1,0,0,1,1,1V21a1,1,0,0,1-1,1H5A1,1,0,0,1,4,21Zm9,3h2V56H13ZM60,60H4V58H60Z"></path></g></svg>