<svg xmlns="http://www.w3.org/2000/svg" viewBox="0 0 64 64" x="0px" y="0px"><g><path d="M33.98,14.31l.64-.1-.23-.61a5.028,5.028,0,0,0-5.45-3.15l-.64.1.23.61A5.021,5.021,0,0,0,33.98,14.31Z"></path><path d="M43.47,11.16l.23-.61-.64-.1a5.021,5.021,0,0,0-5.45,3.15l-.23.61.64.1A5.021,5.021,0,0,0,43.47,11.16Z"></path><path d="M28,28a8,8,0,1,0,8-8A8.011,8.011,0,0,0,28,28Zm9,1H35a3,3,0,0,1,0-6V22h2v1a3,3,0,0,1,3,3H38a1,1,0,0,0-1-1H35a1,1,0,0,0,0,2h2a3,3,0,0,1,0,6v1H35V33a3,3,0,0,1-3-3h2a1,1,0,0,0,1,1h2a1,1,0,0,0,0-2Z"></path><path d="M47.92,60V41.87a1.022,1.022,0,0,1,.33-.75A22.95,22.95,0,0,0,55.92,24a20,20,0,0,0-40,0,.977.977,0,0,1-.22.62L9,33h3.92a1,1,0,0,1,1,1V45a3.009,3.009,0,0,0,3,3h6a1,1,0,0,1,1,1V60ZM26.05,9.26a1.052,1.052,0,0,1,.71-.49l1.87-.3A7.019,7.019,0,0,1,36,12.35a7.033,7.033,0,0,1,7.37-3.88l1.87.3a1.052,1.052,0,0,1,.71.49,1,1,0,0,1,.06.86l-.67,1.76a7.057,7.057,0,0,1-6.55,4.49,6.559,6.559,0,0,1-1.08-.09L37,16.17v1.88a10,10,0,1,1-2,0V16.17l-.71.11a6.559,6.559,0,0,1-1.08.09,7.057,7.057,0,0,1-6.55-4.49l-.67-1.76A1,1,0,0,1,26.05,9.26Z"></path></g></svg>