<svg xmlns="http://www.w3.org/2000/svg" viewBox="0 0 64 64" x="0px" y="0px"><g data-name="Graphic Design-Sketch-Editor-Tools-Blueprint"><path d="M4,60H26.59L4,37.41ZM6,44.656a1,1,0,0,1,1.707-.707L20.05,56.293A1,1,0,0,1,19.343,58H7a1,1,0,0,1-1-1Z"></path><polygon points="16.93 56 11 56 11 50.07 16.93 56"></polygon><path d="M46,31a3,3,0,1,0-3,3A3.009,3.009,0,0,0,46,31Zm-4-1h2v2H42Z"></path><polygon points="26 56.59 29.41 60 32 60 32 58 28 58 28 56 32 56 32 54 30 54 30 52 32 52 32 50 30 50 30 48 32 48 32 46 28 46 28 44 32 44 32 42 30 42 30 40 32 40 32 38 30 38 30 36 32 36 32 34 28 34 28 32 32 32 32 30 26 30 26 56.59"></polygon><rect x="38" y="36" width="10" height="2"></rect><path d="M48,10h3.59L47,5.41V9A1,1,0,0,0,48,10Z"></path><polygon points="57.68 57 56.32 57 57 58.54 57.68 57"></polygon><polygon points="59.46 53 54.54 53 55.43 55 58.57 55 59.46 53"></polygon><rect x="54" y="32" width="2" height="19"></rect><polygon points="48 54.5 48 40 46 40 46 56 48 54.5"></polygon><rect x="58" y="32" width="2" height="19"></rect><rect x="54" y="26" width="6" height="4"></rect><polygon points="38 54.5 40 56 40 40 38 40 38 54.5"></polygon><rect x="42" y="40" width="2" height="20"></rect><path d="M53,24V12H48a3.009,3.009,0,0,1-3-3V4H14a3.009,3.009,0,0,0-3,3V41.58L24,54.59V29a1,1,0,0,1,1-1h8a1,1,0,0,1,1,1V60h6V58.5l-3.6-2.7A1,1,0,0,1,36,55V35a1,1,0,0,1,1-1h2.03A4.924,4.924,0,0,1,38,31a5.017,5.017,0,0,1,4-4.9V24h2v2.1A5.017,5.017,0,0,1,48,31a4.924,4.924,0,0,1-1.03,3H49a1,1,0,0,1,1,1V55a1,1,0,0,1-.4.8L46,58.5V60h4a3,3,0,0,0,3-3V54.46l-.91-2.05a1.053,1.053,0,0,1-.09-.425V25A1,1,0,0,1,53,24ZM25,23H23V21h2Zm0-4H23V17h2Zm0-4H23V13h2Zm4,8H27V21h2Zm0-8H27V13h2Zm0-4H27V10H19v8h2v2H18a1,1,0,0,1-1-1V9a1,1,0,0,1,1-1H28a1,1,0,0,1,1,1Zm4,12H31V21h2Zm0-4H31V17h2Zm0-4H31V13h2Z"></path></g></svg>