<svg xmlns="http://www.w3.org/2000/svg" viewBox="0 0 64 64" x="0px" y="0px"><g data-name="Exchange"><path d="M61,22H55.645A8.954,8.954,0,0,0,51,20.059V11a3,3,0,0,0-3-3H22a3,3,0,0,0-3,3v9.059A8.954,8.954,0,0,0,14.355,22H10V21a1,1,0,0,0-1-1H3a1,1,0,0,0-1,1V41a1,1,0,0,0,1,1H9a1,1,0,0,0,1-1V40h4.355A8.954,8.954,0,0,0,19,41.941V53a3,3,0,0,0,3,3H48a3,3,0,0,0,3-3V41.941A8.954,8.954,0,0,0,55.645,40H61a1,1,0,0,0,1-1V23A1,1,0,0,0,61,22ZM49,11v9H41a3.964,3.964,0,0,0-2.434.848l8.141-8.141-1.414-1.414L32.962,23.624a3.991,3.991,0,0,0-2.37-3.289L23.847,10H48A1,1,0,0,1,49,11Zm-27.46-.874L27.984,20H21V11A.991.991,0,0,1,21.54,10.126ZM8,40H4V22H8Zm2-16h2.522A8.947,8.947,0,0,0,11,29v4a8.947,8.947,0,0,0,1.522,5H10Zm3,9V29a7.009,7.009,0,0,1,7-7h9a2,2,0,0,1,0,4H23a1,1,0,0,0-1,1,3,3,0,0,1-3,3v9.92A7.006,7.006,0,0,1,13,33Zm8-1.436A5.005,5.005,0,0,0,23.9,28H29a3.979,3.979,0,0,0,3.163-1.58L35.806,32,21.541,53.874A.992.992,0,0,1,21,53ZM48,54H23.846l8.976-13.764L45.293,52.707l1.414-1.414L33.939,38.525l3.9-5.979a1,1,0,0,0,0-1.093l-3.9-5.976,3.911-3.911A3.964,3.964,0,0,0,37,24a4,4,0,0,0,4,4h5.1A5.005,5.005,0,0,0,49,31.564V53A1,1,0,0,1,48,54Zm3-14.08V30a3,3,0,0,1-3-3,1,1,0,0,0-1-1H41a2,2,0,0,1,0-4h9a7.009,7.009,0,0,1,7,7v4A7.006,7.006,0,0,1,51,39.92ZM60,38H57.478A8.947,8.947,0,0,0,59,33V29a8.947,8.947,0,0,0-1.522-5H60Z"></path></g></svg>