<svg xmlns="http://www.w3.org/2000/svg" viewBox="0 0 64 64" x="0px" y="0px"><g><path d="M10,21a2.015,2.015,0,0,0,2,2V19A2.006,2.006,0,0,0,10,21Z"></path><path d="M18,41.17v-4A3.014,3.014,0,0,0,16,40v1.17a3.026,3.026,0,0,1,2,0Z"></path><path d="M34,19v4a2.015,2.015,0,0,0,2-2A2.006,2.006,0,0,0,34,19Z"></path><path d="M30,41.17V40a3.014,3.014,0,0,0-2-2.83v4a3.026,3.026,0,0,1,2,0Z"></path><path d="M4,54h6V49h2V60H34V53.82A3.01,3.01,0,0,1,32,51V44a1,1,0,0,1-2,0,1,1,0,0,0-2,0,.992.992,0,0,1-1.97.17l-2.14,4.28a1,1,0,0,1-1.78,0l-2.14-4.28A.992.992,0,0,1,18,44a1,1,0,0,0-2,0,1,1,0,0,1-2,0V40c0-.14.03-.27.04-.4L8.91,41.2A6.964,6.964,0,0,0,4,47.88Z"></path><path d="M16.47,5.33A3.03,3.03,0,0,0,14,8.28v4.09l6.41-.98a16.6,16.6,0,0,1,5.17,0l6.42.98V8.28a3.016,3.016,0,0,0-2.42-2.94L24.37,4.29a7.478,7.478,0,0,0-2.75,0Z"></path><path d="M32,24V18.65l-7.03-1.27a11.1,11.1,0,0,0-3.94-.01L14,18.65V24a9,9,0,0,0,18,0ZM17,21a2,2,0,1,1,2,2A2,2,0,0,1,17,21Zm6,8a4.994,4.994,0,0,1-3.307-1.25l1.323-1.5a3.076,3.076,0,0,0,3.968,0l1.323,1.5A4.994,4.994,0,0,1,23,29Zm4-6a2,2,0,1,1,2-2A2,2,0,0,1,27,23Z"></path><path d="M20,34.58v5.18l3,6,3-6V34.57a10.8,10.8,0,0,1-6,.01Z"></path><path d="M12.13,15.1a1.006,1.006,0,0,0-.01.91l.1.2a1.013,1.013,0,0,0,1.08.54l7.37-1.34a13.031,13.031,0,0,1,4.66,0l7.37,1.34a1.02,1.02,0,0,0,1.08-.54l.1-.2a1.006,1.006,0,0,0-.01-.91.978.978,0,0,0-.73-.53l-7.86-1.21a15.374,15.374,0,0,0-4.56,0l-7.86,1.21A.978.978,0,0,0,12.13,15.1Z"></path><circle cx="47" cy="42" r="2"></circle><path d="M51.824,40.706a5,5,0,0,0-.5-1.2,1,1,0,0,1,.008-1.016l.769-1.283L51.8,36.9l-1.283.77a1,1,0,0,1-1.016.008,4.983,4.983,0,0,0-1.2-.5,1,1,0,0,1-.71-.724L47.219,35h-.438l-.364,1.452a1,1,0,0,1-.71.724,4.983,4.983,0,0,0-1.2.5,1,1,0,0,1-1.016-.008l-1.283-.77-.309.31.769,1.283a1,1,0,0,1,.008,1.016,5,5,0,0,0-.5,1.2,1,1,0,0,1-.723.711L40,41.78v.44l1.453.363a1,1,0,0,1,.723.711,5,5,0,0,0,.5,1.2,1,1,0,0,1-.008,1.016L41.9,46.8l.31.309,1.282-.769a1,1,0,0,1,1.016-.008,4.983,4.983,0,0,0,1.2.5,1,1,0,0,1,.71.724L46.781,49h.438l.364-1.452a1,1,0,0,1,.71-.724,4.983,4.983,0,0,0,1.2-.5,1,1,0,0,1,1.016.008l1.282.769.31-.309-.769-1.283a1,1,0,0,1-.008-1.016,5,5,0,0,0,.5-1.2,1,1,0,0,1,.723-.711L54,42.22v-.44l-1.453-.363A1,1,0,0,1,51.824,40.706ZM47,46a4,4,0,1,1,4-4A4,4,0,0,1,47,46Z"></path><path d="M60,51V33a1,1,0,0,0-1-1H35a1,1,0,0,0-1,1V51a1,1,0,0,0,1,1H59A1,1,0,0,0,60,51Zm-4-8a1,1,0,0,1-.757.97l-1.668.418c-.071.194-.15.386-.238.574l.884,1.473a1,1,0,0,1-.15,1.221l-1.414,1.415a1,1,0,0,1-1.222.151l-1.473-.884c-.188.087-.379.166-.575.237l-.417,1.667A1,1,0,0,1,48,51H46a1,1,0,0,1-.97-.758l-.417-1.667c-.2-.071-.387-.15-.575-.237l-1.473.884a1,1,0,0,1-1.222-.151l-1.414-1.415a1,1,0,0,1-.15-1.221l.884-1.473c-.088-.188-.167-.38-.238-.574l-1.668-.418A1,1,0,0,1,38,43V41a1,1,0,0,1,.757-.97l1.668-.418q.107-.292.238-.574l-.884-1.474a1,1,0,0,1,.15-1.221l1.414-1.414a1,1,0,0,1,1.222-.151l1.473.884c.188-.087.379-.166.575-.237l.417-1.667A1,1,0,0,1,46,33h2a1,1,0,0,1,.97.758l.417,1.667c.2.071.387.15.575.237l1.473-.884a1,1,0,0,1,1.222.151l1.414,1.414a1,1,0,0,1,.15,1.221l-.884,1.474q.132.282.238.574l1.668.418A1,1,0,0,1,56,41Z"></path><path d="M36,60h3.18A2.98,2.98,0,0,1,42,56h1V54H36Z"></path><path d="M53,59a1,1,0,0,0-1-1H42a1,1,0,0,0,0,2H52A1,1,0,0,0,53,59Z"></path><rect x="45" y="54" width="4" height="2"></rect><rect x="4" y="56" width="6" height="4"></rect></g></svg>