<svg xmlns="http://www.w3.org/2000/svg" viewBox="0 0 64 64" x="0px" y="0px"><g><path d="M7,50.105a6.988,6.988,0,0,1,4-2.025V36.1A5.009,5.009,0,0,0,7,41Z"></path><path d="M39.808,25.981a1,1,0,0,1-.665-.466L37,21.943l-2.143,3.572A1,1,0,0,1,33.4,25.8l-1.747-1.31L32.781,29h8.438l1.128-4.51L40.6,25.8A.99.99,0,0,1,39.808,25.981Z"></path><path d="M57,50H12a5,5,0,0,0,0,10H57V58H13a3,3,0,0,1,0-6H57Z"></path><path d="M7,36.111a6.975,6.975,0,0,1,4-2.031V19.1A5.009,5.009,0,0,0,7,24Z"></path><path d="M7,19.111a6.975,6.975,0,0,1,4-2.031V4.1A5.009,5.009,0,0,0,7,9Z"></path><path d="M12,55a1,1,0,0,0,1,1H57V54H13A1,1,0,0,0,12,55Z"></path><rect x="13" y="4" width="2" height="44"></rect><path d="M37,10A16,16,0,1,0,53,26,16.019,16.019,0,0,0,37,10Zm0,30A14,14,0,1,1,51,26,14.015,14.015,0,0,1,37,40Z"></path><path d="M37,14A12,12,0,1,0,49,26,12.013,12.013,0,0,0,37,14Zm6,20H31V32H43Zm1.97-11.758-2,8A1,1,0,0,1,42,31H32a1,1,0,0,1-.97-.758l-2-8A1,1,0,0,1,30.6,21.2l3.113,2.335,2.43-4.05a1.04,1.04,0,0,1,1.714,0l2.43,4.05L43.4,21.2a1,1,0,0,1,1.57,1.042Z"></path><path d="M57,4H17V48H57ZM37,44A18,18,0,1,1,55,26,18.021,18.021,0,0,1,37,44Z"></path></g></svg>