<svg xmlns="http://www.w3.org/2000/svg" viewBox="0 0 64 64" x="0px" y="0px"><title>Ignition</title><g><path d="M42,31H38V11a3,3,0,0,0-3-3V4a2,2,0,0,0-2-2H31a2,2,0,0,0-2,2V8a3,3,0,0,0-3,3V31H22a1,1,0,0,0-1,1v6a1,1,0,0,0,1,1h2v5a1,1,0,0,0,1,1h1v9a3,3,0,0,0,3,3h2v1a1,1,0,0,0,2,0V57h1v2a1,1,0,0,1-1,1H32a1,1,0,0,0,0,2h1a3,3,0,0,0,3-3V56.816A3,3,0,0,0,38,54V45h1a1,1,0,0,0,1-1V39h2a1,1,0,0,0,1-1V32A1,1,0,0,0,42,31ZM31,4h2V8H31Zm-3,7a1,1,0,0,1,1-1h6a1,1,0,0,1,1,1V31H28Zm8,40H28V49h8Zm-1,4H29a1,1,0,0,1-1-1V53h8v1A1,1,0,0,1,35,55Zm1-8H28V45h8Zm2-4H26V39H38Zm3-6H23V33H41Z"></path></g></svg>