<svg xmlns="http://www.w3.org/2000/svg" viewBox="0 0 64 64" x="0px" y="0px"><g><path d="M60,32A12.01,12.01,0,0,1,48,44H45.85A13.266,13.266,0,0,0,46,42,15.019,15.019,0,0,0,33.67,27.25l2.73-2.04-1.19-1.6L30.4,27.2a1,1,0,0,0-.2,1.4l3.59,4.8,1.6-1.19-2.25-3.02A13.015,13.015,0,0,1,44,42a12.17,12.17,0,0,1-.16,2H18.17A12,12,0,0,1,18,42a13.067,13.067,0,0,1,8.34-12.14l-.71-1.87A15.093,15.093,0,0,0,16,42a14.6,14.6,0,0,0,.14,2H13a9,9,0,0,1-2.6-17.62.987.987,0,0,0,.71-.82A11.007,11.007,0,0,1,22,16c.15,0,.3.01.45.02l.21.01a1,1,0,0,0,.95-.53,13.985,13.985,0,0,1,26.15,3.98.994.994,0,0,0,.77.79A12.053,12.053,0,0,1,60,32Z"></path><path d="M45.86,44a15.1,15.1,0,0,1-9.53,12.02l-.71-1.86A13.129,13.129,0,0,0,43.85,44Z"></path><path d="M31.98,56.19a1,1,0,0,1-.42.64l-4.99,3.34-1.11-1.66,2.67-1.79A15.026,15.026,0,0,1,16.14,44h2.02A13.01,13.01,0,0,0,29.01,54.83l-2.18-3.26,1.66-1.11,3.34,4.98A.994.994,0,0,1,31.98,56.19Z"></path></g></svg>