<svg xmlns="http://www.w3.org/2000/svg" viewBox="0 0 64 64" x="0px" y="0px"><title>Browser-Protect</title><g><rect x="6" y="6" width="2" height="2"></rect><rect x="10" y="6" width="2" height="2"></rect><rect x="14" y="6" width="2" height="2"></rect><path d="M59,2H5A3,3,0,0,0,2,5V59a3,3,0,0,0,3,3H59a3,3,0,0,0,3-3V5A3,3,0,0,0,59,2ZM4,5A1,1,0,0,1,5,4H59a1,1,0,0,1,1,1v5H55c-1.513,0-4.763-1.741-6.456-2.839a1,1,0,0,0-1.088,0C45.763,8.259,42.513,10,41,10H4Zm50,6.888v9.791a3.009,3.009,0,0,1-1.512,2.605L48,26.848l-4.488-2.564A3.009,3.009,0,0,1,42,21.679V11.888a22.139,22.139,0,0,0,6-2.707A22.139,22.139,0,0,0,54,11.888ZM59,60H5a1,1,0,0,1-1-1V12H40v9.679a5.01,5.01,0,0,0,2.52,4.341L47.5,28.868a1,1,0,0,0,.992,0L53.48,26.02A5.01,5.01,0,0,0,56,21.679V12h4V59A1,1,0,0,1,59,60Z"></path><path d="M44.878,17.464l-1.414,1.414,2.829,2.829a1,1,0,0,0,1.414,0l5.657-5.657L51.95,14.636,47,19.586Z"></path><path d="M32,41a1,1,0,0,1,1,1h2a3,3,0,0,0-2-2.816V38H31v1.184A2.993,2.993,0,0,0,32,45a1,1,0,1,1-1,1H29a3,3,0,0,0,2,2.816V50h2V48.816A2.993,2.993,0,0,0,32,43a1,1,0,0,1,0-2Z"></path><path d="M32,35a9,9,0,1,0,9,9A9.011,9.011,0,0,0,32,35Zm0,16a7,7,0,1,1,7-7A7.008,7.008,0,0,1,32,51Z"></path><rect x="36" y="43" width="2" height="2"></rect><rect x="26" y="43" width="2" height="2"></rect><path d="M54,32H10a2,2,0,0,0-2,2V54a2,2,0,0,0,2,2H54a2,2,0,0,0,2-2V34A2,2,0,0,0,54,32ZM10,54V34H54V54Z"></path><path d="M12,37v4h2V38h3V36H13A1,1,0,0,0,12,37Z"></path><path d="M14,47H12v4a1,1,0,0,0,1,1h4V50H14Z"></path><path d="M51,36H47v2h3v3h2V37A1,1,0,0,0,51,36Z"></path><path d="M50,50H47v2h4a1,1,0,0,0,1-1V47H50Z"></path></g></svg>