<svg xmlns="http://www.w3.org/2000/svg" viewBox="0 0 64 64" x="0px" y="0px"><g data-name="Music Player-Podcast-Headphone-Home-Office"><path d="M32,42a5,5,0,1,0,5,5A5.006,5.006,0,0,0,32,42Zm0,8a3,3,0,1,1,3-3A3,3,0,0,1,32,50Z"></path><path d="M37,32H27a1,1,0,0,0-1,1v6a1,1,0,0,0,1,1H37a1,1,0,0,0,1-1V33A1,1,0,0,0,37,32Zm-1,6H28V34h8Z"></path><path d="M60.99,24.89h-.01L33.93,2.31a2.981,2.981,0,0,0-3.85,0L3.1,24.95a3.071,3.071,0,0,0-.74,3.89,2.976,2.976,0,0,0,2.08,1.43,2.921,2.921,0,0,0,.5.05,2.986,2.986,0,0,0,1.93-.71L8,28.66V59a3.009,3.009,0,0,0,3,3H53a3.009,3.009,0,0,0,3-3V28.54l1.13.95a3,3,0,0,0,3.86-4.6ZM54,59a1,1,0,0,1-1,1H11a1,1,0,0,1-1-1V26.96L32,8.31,54,26.85Zm5.82-31.17a.988.988,0,0,1-1.4.13L32.64,6.24a.987.987,0,0,0-1.29,0L5.58,28.08a.986.986,0,0,1-.81.22,1,1,0,0,1-.7-.49,1.083,1.083,0,0,1,.31-1.33L31.36,3.84A1.025,1.025,0,0,1,32,3.61a1,1,0,0,1,.64.23L59.7,26.43A.987.987,0,0,1,59.82,27.83Z"></path><path d="M48,39a3.01,3.01,0,0,0-2-2.82V34a14,14,0,0,0-28,0v2.18A3.01,3.01,0,0,0,16,39a3,3,0,0,0,0,6,3.009,3.009,0,0,0,3,3h3v5a3.009,3.009,0,0,0,3,3H39a3.009,3.009,0,0,0,3-3V48h3a3.009,3.009,0,0,0,3-3,3,3,0,0,0,0-6ZM16,43a1,1,0,0,1,0-2Zm6,3H19a1,1,0,0,1-1-1V39a1,1,0,0,1,1-1h3Zm18,7a1,1,0,0,1-1,1H25a1,1,0,0,1-1-1V31a1,1,0,0,1,1-1H39a1,1,0,0,1,1,1ZM39,28H25a3.009,3.009,0,0,0-3,3v5H20V34a12,12,0,0,1,24,0v2H42V31A3.009,3.009,0,0,0,39,28Zm7,17a1,1,0,0,1-1,1H42V38h3a1,1,0,0,1,1,1Zm2-2V41a1,1,0,0,1,0,2Z"></path></g></svg>