<svg xmlns="http://www.w3.org/2000/svg" viewBox="0 0 64 64" x="0px" y="0px"><g data-name="Energy Development"><path d="M31.035,30.737l1.622-5.946-5.138,6.851L32.447,34.1a1,1,0,0,1,.53,1.112l-1.066,4.794,4.535-5.67L31.553,31.9A1,1,0,0,1,31.035,30.737Z"></path><path d="M32,15A17,17,0,1,0,49,32,17.019,17.019,0,0,0,32,15Zm6.781,19.625-8,10a1,1,0,0,1-1.758-.842l1.831-8.238-5.3-2.65a1,1,0,0,1-.353-1.5l9-12a1,1,0,0,1,1.765.863L33.181,30.472,38.447,33.1a1,1,0,0,1,.334,1.52Z"></path><path d="M54.339,26.526a22.812,22.812,0,0,0-2.67-6.454,1,1,0,0,1,.065-1.134l2.977-3.826L48.888,9.29l-3.826,2.976a1,1,0,0,1-1.134.065,22.812,22.812,0,0,0-6.454-2.67,1,1,0,0,1-.755-.848L36.117,4H27.883l-.6,4.813a1,1,0,0,1-.755.848,22.812,22.812,0,0,0-6.454,2.67,1,1,0,0,1-1.134-.065L15.112,9.29,9.29,15.112l2.976,3.826a1,1,0,0,1,.065,1.134,22.812,22.812,0,0,0-2.67,6.454,1,1,0,0,1-.848.755L4,27.883v8.234l4.813.6a1,1,0,0,1,.848.755,22.812,22.812,0,0,0,2.67,6.454,1,1,0,0,1-.065,1.134L9.289,48.888l5.823,5.822,3.826-2.976a1,1,0,0,1,1.134-.065,22.812,22.812,0,0,0,6.454,2.67,1,1,0,0,1,.755.848l.6,4.813h8.234l.6-4.813a1,1,0,0,1,.755-.848,22.812,22.812,0,0,0,6.454-2.67,1.006,1.006,0,0,1,1.134.065l3.826,2.976,5.822-5.822-2.976-3.826a1,1,0,0,1-.065-1.134,22.812,22.812,0,0,0,2.67-6.454,1,1,0,0,1,.848-.755l4.813-.6V27.883l-4.813-.6A1,1,0,0,1,54.339,26.526ZM11,33H9V31h2ZM47.557,15.029l1.414,1.414-1.414,1.415-1.414-1.414ZM31,9h2v2H31ZM16.443,15.029l1.414,1.415-1.414,1.414-1.414-1.415Zm0,33.942-1.414-1.414,1.414-1.415,1.414,1.414ZM33,55H31V53h2Zm14.557-6.029-1.414-1.415,1.414-1.414,1.414,1.415ZM32,51A19,19,0,1,1,51,32,19.021,19.021,0,0,1,32,51ZM55,33H53V31h2Z"></path></g></svg>