<svg xmlns="http://www.w3.org/2000/svg" viewBox="0 0 64 64" x="0px" y="0px"><title>Smartphone-Artificial Intelligence-Robot-Mobile-Technology</title><g data-name="Smartphone-Artificial Intelligence"><rect x="28" y="18" width="2" height="2"></rect><rect x="34" y="18" width="2" height="2"></rect><path d="M43,17V12H41v5H40a3,3,0,0,0-3-3H27a3,3,0,0,0-3,3H23V12H21v5a1,1,0,0,0-1,1v6a1,1,0,0,0,1,1h3a3,3,0,0,0,3,3v2H22a1,1,0,0,0-1,1V41a1,1,0,0,0,.052.316l2,6A1,1,0,0,0,24,48H40a1,1,0,0,0,.948-.684l2-6A1,1,0,0,0,43,41V31a1,1,0,0,0-1-1H37V28a3,3,0,0,0,3-3h3a1,1,0,0,0,1-1V18A1,1,0,0,0,43,17ZM22,23V19h2v4Zm12,3H30V24h4Zm5.279,20H24.721L23,40.838V40h4v1a1,1,0,0,0,1,1h8a1,1,0,0,0,1-1V40h4v.838ZM29,40V36h6v4Zm12-2H37V35a1,1,0,0,0-1-1H28a1,1,0,0,0-1,1v3H23V32H41Zm-6-8H29V28h6Zm3-5a1,1,0,0,1-1,1H36V24a2,2,0,0,0-2-2H30a2,2,0,0,0-2,2v2H27a1,1,0,0,1-1-1V17a1,1,0,0,1,1-1H37a1,1,0,0,1,1,1Zm4-2H40V19h2Z"></path><path d="M7,20a3,3,0,1,0-3-3A3,3,0,0,0,7,20Zm0-4a1,1,0,1,1-1,1A1,1,0,0,1,7,16Z"></path><path d="M8,31a3,3,0,1,0-3,3A3,3,0,0,0,8,31ZM4,31a1,1,0,1,1,1,1A1,1,0,0,1,4,31Z"></path><path d="M7,42a3,3,0,1,0,3,3A3,3,0,0,0,7,42Zm0,4a1,1,0,1,1,1-1A1,1,0,0,1,7,46Z"></path><path d="M54.707,41.293l-3-3A1,1,0,0,0,51,38V32h3V30H51V24a1,1,0,0,0,.707-.293l3-3-1.414-1.414L51,21.586V7a5.006,5.006,0,0,0-5-5H18a5.006,5.006,0,0,0-5,5V21.586l-2.293-2.293L9.293,20.707l3,3A1,1,0,0,0,13,24v6H10v2h3v6a1,1,0,0,0-.707.293l-3,3,1.414,1.414L13,40.414V57a5.006,5.006,0,0,0,5,5H46a5.006,5.006,0,0,0,5-5V40.414l2.293,2.293ZM25,4H39V6H25ZM46,60H18a3,3,0,0,1-3-3V40h3V38H15V32h3V30H15V24h3V22H15V7a3,3,0,0,1,3-3h5V6a2,2,0,0,0,2,2H39a2,2,0,0,0,2-2V4h5a3,3,0,0,1,3,3V22H46v2h3v6H46v2h3v6H46v2h3V57A3,3,0,0,1,46,60Z"></path><path d="M57,20a3,3,0,1,0-3-3A3,3,0,0,0,57,20Zm0-4a1,1,0,1,1-1,1A1,1,0,0,1,57,16Z"></path><path d="M59,28a3,3,0,1,0,3,3A3,3,0,0,0,59,28Zm0,4a1,1,0,1,1,1-1A1,1,0,0,1,59,32Z"></path><path d="M57,42a3,3,0,1,0,3,3A3,3,0,0,0,57,42Zm0,4a1,1,0,1,1,1-1A1,1,0,0,1,57,46Z"></path><rect x="29" y="52" width="2" height="2"></rect><rect x="25" y="52" width="2" height="2"></rect><rect x="21" y="52" width="2" height="2"></rect><rect x="33" y="52" width="2" height="2"></rect><rect x="37" y="52" width="2" height="2"></rect><rect x="41" y="52" width="2" height="2"></rect></g></svg>