<svg xmlns="http://www.w3.org/2000/svg" viewBox="0 0 64 64" x="0px" y="0px"><g data-name="Audio Book-Ebook-Elearning-Smartphone-Study"><path d="M62,28V56a6,6,0,0,1-6,6H8a6,6,0,0,1-6-6V28a6,6,0,0,1,6-6H9v2H8a4,4,0,0,0-4,4V56a4,4,0,0,0,4,4h2V36h2V60H52V36h2V60h2a4,4,0,0,0,4-4V28a4,4,0,0,0-4-4H55V22h1A6,6,0,0,1,62,28Z"></path><rect x="6" y="45" width="2" height="2"></rect><rect x="6" y="37" width="2" height="6"></rect><rect x="56" y="41" width="2" height="2"></rect><path d="M52,6H49V3a1,1,0,0,0-1-1H36a4.994,4.994,0,0,0-4,2.03A4.994,4.994,0,0,0,28,2H16a1,1,0,0,0-1,1V6H12a1,1,0,0,0-1,1V33a1,1,0,0,0,1,1H52a1,1,0,0,0,1-1V7A1,1,0,0,0,52,6ZM15,32H13V8h2Zm2,0V30H28a3.014,3.014,0,0,1,2.83,2Zm14-2.97A4.924,4.924,0,0,0,28,28H17V4H28a3.009,3.009,0,0,1,3,3ZM47,32H33.17A3.014,3.014,0,0,1,36,30H47Zm0-4H36a4.924,4.924,0,0,0-3,1.03V7a3.009,3.009,0,0,1,3-3H47Zm4,4H49V8h2Z"></path><rect x="19" y="7" width="10" height="2"></rect><rect x="19" y="11" width="10" height="2"></rect><rect x="19" y="15" width="10" height="2"></rect><rect x="35" y="7" width="10" height="2"></rect><rect x="35" y="11" width="10" height="2"></rect><rect x="35" y="15" width="10" height="2"></rect><rect x="19" y="19" width="10" height="2"></rect><rect x="35" y="19" width="10" height="2"></rect><rect x="19" y="23" width="10" height="2"></rect><rect x="35" y="23" width="10" height="2"></rect><path d="M39,44a3,3,0,0,0-2.816,2H32v2h4.184a2.982,2.982,0,0,0,5.632,0H50V46H41.816A3,3,0,0,0,39,44Zm0,4a1,1,0,1,1,1-1A1,1,0,0,1,39,48Z"></path><path d="M20.057,43.105A2,2,0,0,0,19,44.869v4.262A2,2,0,0,0,22.109,50.8l3.2-2.131a2,2,0,0,0,0-3.328l-3.2-2.131A1.994,1.994,0,0,0,20.057,43.105ZM24.2,47,21,49.138V44.869Z"></path><path d="M14,47a8,8,0,1,0,8-8A8.009,8.009,0,0,0,14,47Zm14,0a6,6,0,1,1-6-6A6.006,6.006,0,0,1,28,47Z"></path></g></svg>