<svg xmlns="http://www.w3.org/2000/svg" viewBox="0 0 64 64" x="0px" y="0px"><g data-name="Ticket"><path d="M61,23a1,1,0,0,0,1-1V18a1,1,0,0,0-1-1H3a1,1,0,0,0-1,1v4a1,1,0,0,0,1,1,2,2,0,0,1,0,4,1,1,0,0,0-1,1v8a1,1,0,0,0,1,1,2,2,0,0,1,0,4,1,1,0,0,0-1,1v4a1,1,0,0,0,1,1H61a1,1,0,0,0,1-1V42a1,1,0,0,0-1-1,2,2,0,0,1,0-4,1,1,0,0,0,1-1V28a1,1,0,0,0-1-1,2,2,0,0,1,0-4Zm-1,5.874v6.252a4,4,0,0,0,0,7.748V45H16V42H14v3H4V42.874a4,4,0,0,0,0-7.748V28.874a4,4,0,0,0,0-7.748V19H14v3h2V19H60v2.126a4,4,0,0,0,0,7.748Z"></path><rect x="14" y="25" width="2" height="2"></rect><rect x="14" y="29" width="2" height="2"></rect><rect x="14" y="33" width="2" height="2"></rect><rect x="14" y="38" width="2" height="2"></rect><path d="M48.243,29.03,41,27.219V24a3,3,0,0,0-6,0v3.219L27.757,29.03A1,1,0,0,0,27,30v2a1,1,0,0,0,1,1h7v5.18l-4.2.84A1,1,0,0,0,30,40v2a1,1,0,0,0,1,1H45a1,1,0,0,0,1-1V40a1,1,0,0,0-.8-.98L41,38.18V33h7a1,1,0,0,0,1-1V30A1,1,0,0,0,48.243,29.03ZM37,24a1,1,0,0,1,2,0V38.837L38.279,41h-.558L37,38.837Zm-8,7v-.219l6-1.5V31Zm3,9.82,3.33-.666.282.846H32ZM44,41H40.388l.282-.846L44,40.82Zm3-10H41V29.281l6,1.5Z"></path></g></svg>