<svg xmlns="http://www.w3.org/2000/svg" viewBox="0 0 64 64" x="0px" y="0px"><g><rect x="15" y="38" width="6" height="2"></rect><rect x="23" y="38" width="20" height="2"></rect><rect x="15" y="42" width="16" height="2"></rect><rect x="33" y="42" width="10" height="2"></rect><rect x="15" y="46" width="10" height="2"></rect><rect x="27" y="46" width="8" height="2"></rect><rect x="37" y="46" width="6" height="2"></rect><rect x="15" y="50" width="28" height="2"></rect><rect x="15" y="54" width="28" height="2"></rect><path d="M52,2H18a3,3,0,0,0-3,3V8H12a3,3,0,0,0-3,3V59a3,3,0,0,0,3,3H46a3,3,0,0,0,3-3V56h3a3,3,0,0,0,3-3V5A3,3,0,0,0,52,2ZM47,59a1,1,0,0,1-1,1H12a1,1,0,0,1-1-1V11a1,1,0,0,1,1-1H39v7a1,1,0,0,0,1.9.447L42,15.236l1.1,2.211A1,1,0,0,0,45,17V10h1a1,1,0,0,1,1,1ZM41,10h2v2.764l-.1-.211a1.042,1.042,0,0,0-1.79,0l-.1.211ZM53,53a1,1,0,0,1-1,1H49V11a3,3,0,0,0-3-3H17V5a1,1,0,0,1,1-1H52a1,1,0,0,1,1,1Z"></path><path d="M21.186,30.118A6.946,6.946,0,0,0,20,34v1a1,1,0,0,0,1,1H37a1,1,0,0,0,1-1V34a6.946,6.946,0,0,0-1.186-3.882A4.985,4.985,0,0,0,36,21.42V19a7.008,7.008,0,0,0-7-7,7.008,7.008,0,0,0-7,7v2.422a4.984,4.984,0,0,0-.814,8.7ZM22,34a4.991,4.991,0,0,1,4.624-4.962l1.669,1.669a1,1,0,0,0,1.414,0l1.669-1.669A4.991,4.991,0,0,1,36,34Zm7-9a3,3,0,0,1-3-3V21h.343a4.968,4.968,0,0,0,3.536-1.464L30,19.415l.707.706A2.981,2.981,0,0,0,32,20.885V22A3,3,0,0,1,29,25Zm0,2a5,5,0,0,0,1-.1v.687l-1,1-1-1V26.9A5,5,0,0,0,29,27Zm8-1a2.987,2.987,0,0,1-1.54,2.613A6.977,6.977,0,0,0,32,27.071v-1.1a4.992,4.992,0,0,0,1.9-2.96,2.745,2.745,0,0,1,.858.085A2.987,2.987,0,0,1,37,26ZM24,19a5.009,5.009,0,0,1,5-5,5.006,5.006,0,0,1,5,5v1a1,1,0,0,0-1-1h-.172a1.009,1.009,0,0,1-.707-.293l-1.414-1.414a1.029,1.029,0,0,0-1.414,0l-.828.829A2.983,2.983,0,0,1,26.343,19H25a1,1,0,0,0-1,1Zm-.729,4.093a2.681,2.681,0,0,1,.834-.077A4.989,4.989,0,0,0,26,25.974v1.1a6.977,6.977,0,0,0-3.46,1.542,2.992,2.992,0,0,1,.731-5.52Z"></path></g></svg>