<svg xmlns="http://www.w3.org/2000/svg" viewBox="0 0 64 64" x="0px" y="0px"><g data-name="Work Time-Worker-Workinng-Clock-Time"><polygon points="16.68 39.74 14.96 36.87 14.06 38.21 14.67 41.25 16.68 39.74"></polygon><path d="M11,25a7,7,0,0,0,14,0V19a1,1,0,0,0-1-1H12a1,1,0,0,0-1,1Zm9-4h2v2H20Zm-.016,5.25,1.323,1.5a5,5,0,0,1-6.614,0l1.323-1.5A3.076,3.076,0,0,0,19.984,26.25ZM14,21h2v2H14Z"></path><path d="M29.17,54.17a5,5,0,0,0,7.37-2.58L40.59,40H36.7l-3.08,8.47a1,1,0,0,1-1.94-.26l-.25-3.03a7.01,7.01,0,0,0-4.58-5.99l-2.87-1.04v.05l-1,5a1,1,0,0,1-.62.73A.922.922,0,0,1,22,44a1.029,1.029,0,0,1-.6-.2L18,41.25,14.6,43.8a1.029,1.029,0,0,1-.6.2.922.922,0,0,1-.36-.07,1,1,0,0,1-.62-.73l-1-5v-.05l-2.41.88A6.988,6.988,0,0,0,5,45.6V60H8V45h2V60H26V45h2v8.44Z"></path><path d="M11,16.18A3,3,0,0,1,12,16h6a3.009,3.009,0,0,0,3-3V11H14a3.009,3.009,0,0,0-3,3Z"></path><path d="M20,34.72v-.95a8.811,8.811,0,0,1-4,0v.95l2,3.34Z"></path><polygon points="21.94 38.21 21.04 36.87 19.32 39.74 21.33 41.25 21.94 38.21"></polygon><path d="M43,37V36H38a1,1,0,0,0-1,1v1h5A1,1,0,0,0,43,37Z"></path><path d="M8,22a1,1,0,0,0,1,1V21A1,1,0,0,0,8,22Z"></path><path d="M21.97,16H24a3,3,0,0,1,1,.18V14H22.9A4.84,4.84,0,0,1,21.97,16Z"></path><path d="M27,23a1,1,0,0,0,0-2Z"></path><path d="M47,4A13,13,0,1,0,60,17,13.015,13.015,0,0,0,47,4Zm0,24A11,11,0,1,1,58,17,11.013,11.013,0,0,1,47,28Z"></path><path d="M54,16h1.941a8.956,8.956,0,0,0-1.916-4.611l-1.368,1.368-1.414-1.414,1.368-1.368A8.956,8.956,0,0,0,48,8.059V10H46V8.059a8.956,8.956,0,0,0-4.611,1.916l1.368,1.368-1.414,1.414-1.368-1.368A8.956,8.956,0,0,0,38.059,16H40v2H38.059a8.956,8.956,0,0,0,1.916,4.611l1.368-1.368,1.414,1.414-1.368,1.368A8.956,8.956,0,0,0,46,25.941V24h2v1.941a8.956,8.956,0,0,0,4.611-1.916l-1.368-1.368,1.414-1.414,1.368,1.368A8.956,8.956,0,0,0,55.941,18H54Zm-6,1a1,1,0,0,1-.293.707l-2,2-1.414-1.414L46,16.586V12h2Z"></path></g></svg>