<svg xmlns="http://www.w3.org/2000/svg" viewBox="0 0 64 64" x="0px" y="0px"><g data-name="Car"><path d="M59.493,28.735l-9.86-1.643-5.461-9.557A9.02,9.02,0,0,0,36.357,13H21A19.021,19.021,0,0,0,2,32V42a3,3,0,0,0,3,3H8.08a6.991,6.991,0,0,0,13.84,0H42.08a6.991,6.991,0,0,0,13.84,0H59a3,3,0,0,0,3-3V31.694A2.991,2.991,0,0,0,59.493,28.735ZM47.277,27H34V19h8.706ZM4,42V41H7V39H4V32A17.019,17.019,0,0,1,21,15h8V43H21.92A6.991,6.991,0,0,0,8.08,43H5A1,1,0,0,1,4,42Zm11,7a5,5,0,1,1,5-5A5.006,5.006,0,0,1,15,49Zm34,0a5,5,0,1,1,5-5A5.006,5.006,0,0,1,49,49Zm10-6H55.92a6.991,6.991,0,0,0-13.84,0H31V15h5.357a7.015,7.015,0,0,1,4.891,2H34a2,2,0,0,0-2,2v8a2,2,0,0,0,2,2H48.918l10.247,1.708a.989.989,0,0,1,.542.292H56a2,2,0,0,0-2,2v2a2,2,0,0,0,2,2h4v2H57v2h3v1A1,1,0,0,1,59,43Zm1-10v2H56V33Z"></path><path d="M12.344,29H27a1,1,0,0,0,1-1V19a2,2,0,0,0-2-2H16.977a4.969,4.969,0,0,0-4.79,3.563l-1.759,5.863A2,2,0,0,0,12.344,29ZM14.1,21.138A2.981,2.981,0,0,1,16.977,19H26v8H12.344Z"></path><rect x="36" y="31" width="4" height="2"></rect><rect x="14" y="43" width="2" height="2"></rect><rect x="48" y="43" width="2" height="2"></rect></g></svg>