<svg xmlns="http://www.w3.org/2000/svg" viewBox="0 0 64 64" x="0px" y="0px"><g data-name="Time Management-Smartphone-Hand-Timetable-Clock"><rect x="16" y="19" width="6" height="2"></rect><rect x="12" y="19" width="2" height="2"></rect><rect x="13" y="25" width="12" height="2"></rect><rect x="13" y="29" width="12" height="2"></rect><rect x="13" y="33" width="12" height="2"></rect><path d="M45,2A17.006,17.006,0,0,0,28.25,16.23,4.958,4.958,0,0,0,25,15H13a5,5,0,0,0-5,5V32.08A7,7,0,0,0,2,39V51a.986.986,0,0,0,.03.24L3,55.12V61a1,1,0,0,0,1,1H15a1,1,0,0,0,1-1V57.33l2.8-3.73A.984.984,0,0,0,19,53V50.79a5.074,5.074,0,0,1,.17-1.29l.13-.5H25a5,5,0,0,0,5-5V26.98A17,17,0,1,0,45,2ZM19.1,42.01l-1.86,6.97A6.922,6.922,0,0,0,17,50.79v1.88L14.2,56.4a.984.984,0,0,0-.2.6v3H5V55a.986.986,0,0,0-.03-.24L4,50.88V39a5.009,5.009,0,0,1,4-4.9V42a1,1,0,0,0,.14.51l2.43,4.05a2.956,2.956,0,0,0,2.53,1.45,2.987,2.987,0,0,0,2.92-2.21l1.15-4.3a1.006,1.006,0,0,1,1.23-.71.963.963,0,0,1,.6.46A.974.974,0,0,1,19.1,42.01ZM28,44a3.009,3.009,0,0,1-3,3H19.84l.53-2H22V43H20.91l.13-.47a3.032,3.032,0,0,0-.3-2.28,3.007,3.007,0,0,0-5.5.73l-1.15,4.3a.982.982,0,0,1-.97.73.953.953,0,0,1-.83-.48L10,41.72V20a3.009,3.009,0,0,1,3-3H25a3.009,3.009,0,0,1,3,3ZM45,34A15,15,0,1,1,60,19,15.018,15.018,0,0,1,45,34Z"></path><path d="M45,6A13,13,0,1,0,58,19,13.015,13.015,0,0,0,45,6Zm6.337,21.976-.971-1.682-1.732,1,.971,1.682a10.9,10.9,0,0,1-3.6.973V28H44v1.949a10.9,10.9,0,0,1-3.6-.973l.971-1.682-1.732-1-.971,1.682a11.1,11.1,0,0,1-2.639-2.639l1.682-.971-1-1.732-1.682.971A10.9,10.9,0,0,1,34.051,20H36V18H34.051a10.9,10.9,0,0,1,.973-3.605l1.682.971,1-1.732-1.682-.971a11.1,11.1,0,0,1,2.639-2.639l.971,1.682,1.732-1L40.4,9.024A10.9,10.9,0,0,1,44,8.051V10h2V8.051a10.9,10.9,0,0,1,3.6.973l-.971,1.682,1.732,1,.971-1.682a11.1,11.1,0,0,1,2.639,2.639l-1.682.971,1,1.732,1.682-.971A10.9,10.9,0,0,1,55.949,18H54v2h1.949a10.9,10.9,0,0,1-.973,3.605l-1.682-.971-1,1.732,1.682.971A11.1,11.1,0,0,1,51.337,27.976Z"></path><path d="M46,16.184V12H44v4.184A3,3,0,0,0,42,19a2.951,2.951,0,0,0,.3,1.285l-2.008,2.008,1.414,1.414L43.715,21.7A2.951,2.951,0,0,0,45,22a2.993,2.993,0,0,0,1-5.816ZM45,20a1,1,0,1,1,1-1A1,1,0,0,1,45,20Z"></path></g></svg>