<svg xmlns="http://www.w3.org/2000/svg" viewBox="0 0 64 64" x="0px" y="0px"><g data-name="Smart Boiler-Internet of Things-App-Internet-Smartphone"><path d="M54,26H52V25a7.008,7.008,0,0,0-7-7H42V15a7.008,7.008,0,0,0-7-7H30.28l.69-2.76a.978.978,0,0,0-.08-.69l-.1-.21a4.239,4.239,0,0,0-7.58,0l-.1.21a.978.978,0,0,0-.08.69L23.72,8H19a7.008,7.008,0,0,0-7,7v1H7.41a1.98,1.98,0,0,0-1.84,1.23A2,2,0,0,0,6,19.41l6,6V54.18A3.01,3.01,0,0,0,10,57v2a3.009,3.009,0,0,0,3,3H54a5,5,0,0,0,5-5V31A5,5,0,0,0,54,26ZM42,20h3a5,5,0,0,1,5,5v1H48V25a3.009,3.009,0,0,0-3-3H42Zm0,4h3a1,1,0,0,1,1,1v1H42ZM27,4a2.235,2.235,0,0,1,1.94,1.12L28.22,8H25.78l-.72-2.88A2.235,2.235,0,0,1,27,4ZM14,15a5,5,0,0,1,5-5H35a5,5,0,0,1,5,5v1H14ZM7.41,18H12v4.59ZM13,60a1,1,0,0,1-1-1V57a1,1,0,0,1,1-1H35v1a4.924,4.924,0,0,0,1.03,3ZM35,31V54H14V18H40v8A5,5,0,0,0,35,31ZM57,57a3.009,3.009,0,0,1-3,3H40a3.009,3.009,0,0,1-3-3V54H57Zm0-5H37V34H57Zm0-20H37V31a3.009,3.009,0,0,1,3-3H54a3.009,3.009,0,0,1,3,3Z"></path><path d="M27,22a3.009,3.009,0,0,0-3,3V47a3,3,0,0,0,6,0V25A3.009,3.009,0,0,0,27,22Zm1,25a1,1,0,0,1-2,0V44h2Zm0-5H26V37h2Zm0-7H26V30h2Zm0-7H26V25a1,1,0,0,1,2,0Z"></path><rect x="46" y="56" width="2" height="2"></rect><path d="M47,36a7,7,0,1,0,7,7A7.008,7.008,0,0,0,47,36Zm0,12a5,5,0,1,1,5-5A5.006,5.006,0,0,1,47,48Z"></path><path d="M48,40H46v3a1,1,0,0,0,.293.707l2,2,1.414-1.414L48,42.586Z"></path></g></svg>