<svg xmlns="http://www.w3.org/2000/svg" viewBox="0 0 64 64" x="0px" y="0px"><g><path d="M11.414,56H52.586l-4-4H15.414ZM46,53h2v2H46Zm-4,0h2v2H42ZM24,53H40v2H24Zm-4,0h2v2H20Zm-4,0h2v2H16Z"></path><rect x="10" y="58" width="44" height="2"></rect><path d="M19,50H17V48a1,1,0,0,0-1-1H10a3,3,0,0,1,0-6h6a1,1,0,0,0,1-1V38h2v2a3,3,0,0,1-3,3H10a1,1,0,0,0,0,2h6a3,3,0,0,1,3,3Z"></path><path d="M32,24a1,1,0,0,0,1-1V7H31V23A1,1,0,0,0,32,24Z"></path><path d="M53,9V30H11V9a1,1,0,0,1,1-1h3V25a1,1,0,0,0,1,1H48a1,1,0,0,0,1-1V8h3A1,1,0,0,1,53,9Z"></path><path d="M28,20a3,3,0,0,1,1,.18V5a1,1,0,0,0-1-1H20V20ZM22,7h5V9H22Zm0,4h5v2H22Zm0,4h5v2H22Z"></path><rect x="28" y="38" width="8" height="4"></rect><rect x="23" y="44" width="18" height="2"></rect><path d="M29,23a1,1,0,0,0-1-1H19a1,1,0,0,1-1-1V8H17V24H29.18A3,3,0,0,1,29,23Z"></path><path d="M11,35a1,1,0,0,0,1,1H52a1,1,0,0,0,1-1V32H11Zm36-2h2v2H47Z"></path><path d="M47,8H46V21a1,1,0,0,1-1,1H36a1,1,0,0,0-1,1,3,3,0,0,1-.18,1H47Z"></path><path d="M35,5V20.18A3,3,0,0,1,36,20h8V4H36A1,1,0,0,0,35,5Zm2,2h5V9H37Zm0,4h5v2H37Zm0,4h5v2H37Z"></path></g></svg>