<svg xmlns="http://www.w3.org/2000/svg" viewBox="0 0 64 64" x="0px" y="0px"><g><path d="M5,42.18A3,3,0,0,1,6,42H7V38H5Z"></path><polygon points="17.36 17.77 13.59 14 10.41 14 16.56 20.15 17.36 17.77"></polygon><path d="M5,45v1h6V44H6A1,1,0,0,0,5,45Z"></path><path d="M6,54h5V48H5v5A1,1,0,0,0,6,54Z"></path><path d="M25,12h2V4.17A3.014,3.014,0,0,0,25,7Z"></path><rect x="29" y="4" width="6" height="2"></rect><path d="M39,46a1,1,0,0,1,.97.76l1,4a1.022,1.022,0,0,1-.18.86A1,1,0,0,1,40,52H36a1,1,0,0,1-.79-.38,1.022,1.022,0,0,1-.18-.86l1-4A1,1,0,0,1,37,46V44H20v7a3.009,3.009,0,0,0,3,3H41a3.009,3.009,0,0,0,3-3V44H39Z"></path><path d="M5,20H7V14H6a1,1,0,0,0-1,1Z"></path><polygon points="37.78 48 37.28 50 38.72 50 38.22 48 37.78 48"></polygon><path d="M43,38H21a1,1,0,0,0-1,1v3H44V39A1,1,0,0,0,43,38Z"></path><path d="M51,37.16l-7-21-2.59,7.79A3.019,3.019,0,0,1,38.56,26H36v1a1,1,0,0,1-1,1v1a3,3,0,0,1-6,0V28a1,1,0,0,1-1-1V26H25.44a3.019,3.019,0,0,1-2.85-2.05L20,16.16l-7,21V57a3.009,3.009,0,0,0,3,3H48a3.009,3.009,0,0,0,3-3ZM46,51a5,5,0,0,1-5,5H23a5,5,0,0,1-5-5V39a3.009,3.009,0,0,1,3-3H43a3.009,3.009,0,0,1,3,3Z"></path><rect x="4" y="22" width="4" height="14"></rect><path d="M59,53V48H53v6h5A1,1,0,0,0,59,53Z"></path><polygon points="46.64 17.77 47.44 20.15 53.59 14 50.41 14 46.64 17.77"></polygon><rect x="56" y="22" width="4" height="14"></rect><path d="M59,42.18V38H57v4h1A3,3,0,0,1,59,42.18Z"></path><path d="M59,15a1,1,0,0,0-1-1H57v6h2Z"></path><rect x="30" y="24" width="4" height="2"></rect><path d="M32,30a1,1,0,0,0,1-1V28H31v1A1,1,0,0,0,32,30Z"></path><path d="M24.49,23.31a1.009,1.009,0,0,0,.95.69H28V23a1,1,0,0,1,1-1V19a1,1,0,0,1,1-1h4a1,1,0,0,1,1,1v3a1,1,0,0,1,1,1v1h2.56a1.009,1.009,0,0,0,.95-.69L42.61,14H21.39Z"></path><path d="M53,46h6V45a1,1,0,0,0-1-1H53Z"></path><rect x="31" y="20" width="2" height="2"></rect><path d="M37,4.17V12h2V7A3.014,3.014,0,0,0,37,4.17Z"></path></g></svg>