<svg xmlns="http://www.w3.org/2000/svg" viewBox="0 0 64 64" x="0px" y="0px"><g data-name="Payment-Online Payment-Payment Method-Mobile Payment-Smartphone"><rect x="21" y="6" width="2" height="2"></rect><rect x="25" y="6" width="8" height="2"></rect><path d="M57,46a3.94,3.94,0,0,0-2.57.94A4.012,4.012,0,0,0,51,45a3.94,3.94,0,0,0-2.57.94A4,4,0,0,0,47,44.54V9a7.008,7.008,0,0,0-7-7H18a7.008,7.008,0,0,0-7,7V27.26A4.983,4.983,0,0,0,8.02,29.9L4.01,38.59A10.843,10.843,0,0,0,3,43.2V62H5V43.2a8.863,8.863,0,0,1,.83-3.77l4.01-8.69A2.853,2.853,0,0,1,11,29.47V47a6.5,6.5,0,0,0,.08.99l-.64,1.11,1.73,1,6-10.39a2,2,0,1,1,3.46,2l-4.5,7.79a1.031,1.031,0,0,0,.01,1.02l2.14,3.56A4.987,4.987,0,0,1,20,56.65v5.34h2V56.65A7.078,7.078,0,0,0,21.47,54h6.07a4,4,0,0,0,.4,1.04l4.31,7.46,1.73-1-4.31-7.46a1.98,1.98,0,0,1-.2-1.52,2.008,2.008,0,0,1,.93-1.22,2.066,2.066,0,0,1,1.52-.2,1.942,1.942,0,0,1,1.21.94l2,3.46a1.022,1.022,0,0,0,1.13.47A1,1,0,0,0,37,55V38a2,2,0,0,1,4,0V52a1,1,0,0,0,2,0V48a2,2,0,0,1,4,0v4a1,1,0,0,0,2,0V49a2,2,0,0,1,4,0v3a1,1,0,0,0,2,0V50a2,2,0,0,1,4,0V62h2V50A4,4,0,0,0,57,46ZM31,48H27a1,1,0,0,1,0-2h4a1,1,0,0,1,0,2Zm14-4a3.989,3.989,0,0,0-2,.54V38a4,4,0,0,0-8,0V51.27l-.13-.23a3.955,3.955,0,0,0-2.01-1.71A2.968,2.968,0,0,0,34,47a3.009,3.009,0,0,0-3-3H27a3,3,0,0,0,0,6h1.8a3.952,3.952,0,0,0-1.26,2H20.37l-1.21-2.01,4.21-7.28a4,4,0,1,0-6.93-4L13,44.66V9a5,5,0,0,1,5-5H40a5,5,0,0,1,5,5Z"></path><path d="M41,15H17a2.006,2.006,0,0,0-2,2V31a2.006,2.006,0,0,0,2,2H41a2.006,2.006,0,0,0,2-2V17A2.006,2.006,0,0,0,41,15ZM17,17h2.86A4.017,4.017,0,0,1,17,19.86Zm0,14V28.14A4.017,4.017,0,0,1,19.86,31Zm24,0H38.14A4.017,4.017,0,0,1,41,28.14Zm0-4.91A5.992,5.992,0,0,0,36.09,31H21.91A5.992,5.992,0,0,0,17,26.09V21.91A5.992,5.992,0,0,0,21.91,17H36.09A5.992,5.992,0,0,0,41,21.91Zm0-6.23A4.017,4.017,0,0,1,38.14,17H41Z"></path><path d="M29,20a4,4,0,1,0,4,4A4,4,0,0,0,29,20Zm0,6a2,2,0,1,1,2-2A2,2,0,0,1,29,26Z"></path></g></svg>