<svg xmlns="http://www.w3.org/2000/svg" viewBox="0 0 64 64" x="0px" y="0px"><g><path d="M59.493,35.735l-9.86-1.643L43.02,22.52A5.009,5.009,0,0,0,38.679,20H37V18a2,2,0,0,0-2-2V15a3,3,0,0,0-6,0v1a2,2,0,0,0-2,2v2H20.472A4.973,4.973,0,0,0,16,22.764l-5.655,11.31-5.717.715A3,3,0,0,0,2,37.766V49a3,3,0,0,0,3,3H8.08a6.991,6.991,0,0,0,13.84,0H42.08a6.991,6.991,0,0,0,13.84,0H59a3,3,0,0,0,3-3V38.694A2.991,2.991,0,0,0,59.493,35.735ZM34,26h8.7l4.572,8H34Zm-2,8H18.348l2.392-8H32ZM31,15a1,1,0,0,1,2,0v1H31Zm-2,3h6v2H29ZM4,49V48H7V46H4V37.766a1,1,0,0,1,.876-.993l6.248-.781a1,1,0,0,0,.771-.545l5.894-11.789A2.983,2.983,0,0,1,20.472,22H38.679a3,3,0,0,1,2.6,1.512l.279.488H20.74a1.99,1.99,0,0,0-1.908,1.422l-2.4,7.991A1.994,1.994,0,0,0,18.34,36H32V50H21.92A6.991,6.991,0,0,0,8.08,50H5A1,1,0,0,1,4,49Zm11,7a5,5,0,1,1,5-5A5.006,5.006,0,0,1,15,56Zm34,0a5,5,0,1,1,5-5A5.006,5.006,0,0,1,49,56Zm10-6H55.92a6.991,6.991,0,0,0-13.84,0H34V36H48.918l10.247,1.708a.989.989,0,0,1,.542.292H56a2,2,0,0,0-2,2v2a2,2,0,0,0,2,2h4v2H57v2h3v1A1,1,0,0,1,59,50Zm1-10v2H56V40Z"></path><rect x="36" y="38" width="4" height="2"></rect><rect x="19" y="38" width="4" height="2"></rect><rect x="14" y="50" width="2" height="2"></rect><rect x="48" y="50" width="2" height="2"></rect><rect x="31" y="8" width="2" height="2"></rect><rect x="35.242" y="9.757" width="2" height="2" transform="translate(3.002 28.767) rotate(-44.98)"></rect><rect x="26.757" y="9.757" width="2" height="2" transform="translate(0.528 22.788) rotate(-45.02)"></rect><rect x="37" y="14" width="2" height="2"></rect><rect x="25" y="14" width="2" height="2"></rect></g></svg>