<svg xmlns="http://www.w3.org/2000/svg" viewBox="0 0 64 64" x="0px" y="0px"><g data-name="Wish List"><path d="M15,13a1,1,0,0,0,1,1H36a1,1,0,0,0,1-1V8H15Z"></path><path d="M46,31a9,9,0,1,0,9,9A9.01,9.01,0,0,0,46,31Zm5.727,10.167-5.02,5.021a1,1,0,0,1-1.414,0l-5.02-5.021a4,4,0,0,1,0-5.654A4.026,4.026,0,0,1,43.1,34.34a3.971,3.971,0,0,1,2.827,1.173l.073.073.073-.073A3.971,3.971,0,0,1,48.9,34.34a4.027,4.027,0,0,1,2.828,1.174,4,4,0,0,1,0,5.653Z"></path><path d="M46,28A12,12,0,1,0,58,40,12.013,12.013,0,0,0,46,28Zm0,23A11,11,0,1,1,57,40,11.013,11.013,0,0,1,46,51Z"></path><rect x="16" y="37" width="6" height="6"></rect><path d="M43,10H39v2h2a3.009,3.009,0,0,1,3,3v9H42V15a1,1,0,0,0-1-1H38.82A3.01,3.01,0,0,1,36,16H16a3.01,3.01,0,0,1-2.82-2H11a1,1,0,0,0-1,1V55a1,1,0,0,0,1,1H41a1.016,1.016,0,0,0,.87-.5l1.72,1A2.99,2.99,0,0,1,41,58H11a3.009,3.009,0,0,1-3-3V15a3.009,3.009,0,0,1,3-3h2V10H9a3.009,3.009,0,0,0-3,3V57a3.009,3.009,0,0,0,3,3H43a3.009,3.009,0,0,0,3-3V54a14,14,0,0,1,0-28V13A3.009,3.009,0,0,0,43,10ZM28,23h2v2H28ZM24,44a1,1,0,0,1-1,1H15a1,1,0,0,1-1-1V36a1,1,0,0,1,1-1h8a1,1,0,0,1,1,1Zm0-19.59V30a1,1,0,0,1-1,1H15a1,1,0,0,1-1-1V22a1,1,0,0,1,1-1h8a.983.983,0,0,1,.93.66l.36-.37,1.42,1.42ZM35,29H28V27h7Zm1-4H32V23h4Z"></path><path d="M47.487,36.927l-.78.78a1,1,0,0,1-1.414,0l-.78-.78A1.986,1.986,0,0,0,43.1,36.34a2.012,2.012,0,0,0-1.412.586,2,2,0,0,0,0,2.827L46,44.066l4.312-4.313a2,2,0,0,0,0-2.826A2.052,2.052,0,0,0,47.487,36.927Z"></path><path d="M16,29h6V26.414l-1.293,1.293a1,1,0,0,1-1.414,0l-3-3,1.414-1.414L20,25.586l2-2V23H16Z"></path><circle cx="26" cy="6" r="2"></circle></g></svg>