<svg xmlns="http://www.w3.org/2000/svg" viewBox="0 0 64 64" x="0px" y="0px"><g><path d="M11.414,56H52.586l-4-4H15.414ZM46,53h2v2H46Zm-4,0h2v2H42ZM24,53H40v2H24Zm-4,0h2v2H20Zm-4,0h2v2H16Z"></path><rect x="10" y="58" width="44" height="2"></rect><path d="M19,50H17V48a1,1,0,0,0-1-1H10a3,3,0,0,1,0-6h6a1,1,0,0,0,1-1V38h2v2a3,3,0,0,1-3,3H10a1,1,0,0,0,0,2h6a3,3,0,0,1,3,3Z"></path><rect x="23" y="44" width="18" height="2"></rect><path d="M53,9V30H11V9a1,1,0,0,1,1-1H23V25a3.009,3.009,0,0,0,3,3H38a3.009,3.009,0,0,0,3-3V8H52A1,1,0,0,1,53,9Z"></path><rect x="30" y="4" width="4" height="1"></rect><path d="M26,26H38a1,1,0,0,0,1-1V5a1,1,0,0,0-1-1H36V5a2,2,0,0,1-2,2H30a2,2,0,0,1-2-2V4H26a1,1,0,0,0-1,1V25A1,1,0,0,0,26,26Zm9-12h2v2H35Zm-4,0h2v2H31Zm-4,0h2v2H27Z"></path><path d="M11,35a1,1,0,0,0,1,1H52a1,1,0,0,0,1-1V32H11Zm36-2h2v2H47Z"></path><rect x="28" y="38" width="8" height="4"></rect></g></svg>