<svg xmlns="http://www.w3.org/2000/svg" viewBox="0 0 64 64" x="0px" y="0px"><g><path d="M4,49V18H20v4a2,2,0,0,0,2,2H32a2,2,0,0,0,2-2V18H50v7h2V5a3,3,0,0,0-3-3H5A3,3,0,0,0,2,5V49a3,3,0,0,0,3,3H25V50H5A1,1,0,0,1,4,49ZM4,16V12H20v4Zm30,0V12H50v4ZM50,5v5H34V4H49A1,1,0,0,1,50,5ZM32,4V22H22V4ZM5,4H20v6H4V5A1,1,0,0,1,5,4Z"></path><path d="M44,26A18,18,0,1,0,62,44,18.021,18.021,0,0,0,44,26Zm0,34A16,16,0,1,1,60,44,16.019,16.019,0,0,1,44,60Z"></path><path d="M44,30A14,14,0,1,0,58,44,14.015,14.015,0,0,0,44,30Zm0,26A12,12,0,1,1,56,44,12.013,12.013,0,0,1,44,56Z"></path><path d="M45,41.184V34H43v7.184A3,3,0,0,0,41.184,43H36v2h5.184A2.993,2.993,0,1,0,45,41.184ZM44,45a1,1,0,1,1,1-1A1,1,0,0,1,44,45Z"></path><rect x="10" y="44" width="8" height="2"></rect><rect x="10" y="40" width="2" height="2"></rect><rect x="14" y="40" width="4" height="2"></rect></g></svg>