<svg xmlns="http://www.w3.org/2000/svg" viewBox="0 0 64 64" x="0px" y="0px"><g><path d="M33,22.414l-.293.293-1.414-1.414.437-.437A6.967,6.967,0,0,0,28,19.08V25h5.92A6.94,6.94,0,0,0,33,22.414Z"></path><path d="M27,33a6.953,6.953,0,0,0,4.184-1.4l-.891-.891,1.414-1.414.891.891A6.947,6.947,0,0,0,33.92,27H27a1,1,0,0,1-1-1V19.08A7,7,0,0,0,27,33Z"></path><path d="M20,14H16V56H48V14H44a1,1,0,0,1-1,1H21A1,1,0,0,1,20,14ZM44,53H20V51H44Zm0-6H20V45H44Zm0-8v2H20V39ZM39,18h4v2H39ZM38,32h4v2H38ZM33.144,19.442l1.149-1.149A1,1,0,0,1,35,18h2v2H35.414l-.961.961a8.968,8.968,0,0,1-.428,10.65l.389.389H36v2H34a1,1,0,0,1-.707-.293l-.682-.682a9,9,0,1,1,.533-13.583Z"></path><path d="M28,4V7a1,1,0,0,1-1,1H22v5H42V8H37a1,1,0,0,1-1-1V4Z"></path><path d="M12,60H52V10H44v2h5a1,1,0,0,1,1,1V57a1,1,0,0,1-1,1H15a1,1,0,0,1-1-1V13a1,1,0,0,1,1-1h5V10H12Z"></path></g></svg>