<svg xmlns="http://www.w3.org/2000/svg" viewBox="0 0 64 64" x="0px" y="0px"><g data-name="Bloger-Working At Home-Writer-Smartphone-Home Office"><rect x="22" y="33" width="5" height="2"></rect><rect x="22" y="37" width="12" height="2"></rect><rect x="22" y="41" width="12" height="2"></rect><rect x="27" y="50" width="2" height="2"></rect><path d="M60.99,24.89h-.01L33.93,2.31a2.981,2.981,0,0,0-3.85,0L3.1,24.95a3.071,3.071,0,0,0-.74,3.89,2.976,2.976,0,0,0,2.08,1.43,2.921,2.921,0,0,0,.5.05,2.986,2.986,0,0,0,1.93-.71L8,28.66V59a3.009,3.009,0,0,0,3,3H53a3.009,3.009,0,0,0,3-3V28.54l1.13.95a3,3,0,0,0,3.86-4.6ZM54,59a1,1,0,0,1-1,1H11a1,1,0,0,1-1-1V26.96L32,8.31,54,26.85Zm5.82-31.17a.988.988,0,0,1-1.4.13L32.64,6.24a.987.987,0,0,0-1.29,0L5.58,28.08a.986.986,0,0,1-.81.22,1,1,0,0,1-.7-.49,1.083,1.083,0,0,1,.31-1.33L31.36,3.84A1.025,1.025,0,0,1,32,3.61a1,1,0,0,1,.64.23L59.7,26.43A.987.987,0,0,1,59.82,27.83Z"></path><path d="M44,26a3.009,3.009,0,0,0-3,3V49a1,1,0,0,0,.11.45l2,4a1,1,0,0,0,1.78,0l2-4A1,1,0,0,0,47,49V29A3.009,3.009,0,0,0,44,26Zm1,22.76-1,2-1-2V32h2ZM45,30H43V29a1,1,0,0,1,2,0Z"></path><path d="M34,24H22a5,5,0,0,0-5,5V51a5,5,0,0,0,5,5H34a5,5,0,0,0,5-5V29A5,5,0,0,0,34,24ZM22,26H34a3.01,3.01,0,0,1,2.82,2H19.18A3.01,3.01,0,0,1,22,26ZM37,51a3.009,3.009,0,0,1-3,3H22a3.009,3.009,0,0,1-3-3V48H37Zm0-5H19V30H37Z"></path></g></svg>