<svg xmlns="http://www.w3.org/2000/svg" viewBox="0 0 64 64" x="0px" y="0px"><g><path d="M10,19a2,2,0,0,0-2,2v2a2,2,0,0,0,4,0V21A2,2,0,0,0,10,19Z"></path><path d="M49,16a1,1,0,0,1-1-1V4H22V26h7a1,1,0,0,1,1,1v4a1,1,0,0,1-1,1H22V60H61V16ZM26,8H44v2H26Zm0,6H44v2H26ZM56,52H26V50H56Zm0-6H26V44H56Zm0-6H26V38H56Zm0-6H32V32H56Zm0-6H32V26H56Zm0-6H26V20H56Z"></path><polygon points="58.586 14 50 5.414 50 14 58.586 14"></polygon><path d="M4,46H16V31a1,1,0,0,1,1-1H28V28H9a5.006,5.006,0,0,0-5,5Z"></path></g></svg>