<svg xmlns="http://www.w3.org/2000/svg" viewBox="0 0 64 64" x="0px" y="0px"><g data-name="Cloud-Smartphone-Transfer-Cloud Computing-Data"><rect x="19" y="56" width="2" height="2"></rect><path d="M22.122,47.879l1.414-1.414a5.008,5.008,0,0,0-7.072,0l1.414,1.414A3,3,0,0,1,22.122,47.879Z"></path><path d="M18.586,49.586,20,51l1.414-1.414A2,2,0,0,0,18.586,49.586Z"></path><rect x="17" y="38" width="6" height="2"></rect><rect x="43" y="56" width="2" height="2"></rect><path d="M40.465,46.465l1.414,1.414a3.072,3.072,0,0,1,4.242,0l1.414-1.414a5,5,0,0,0-7.07,0Z"></path><path d="M42.586,49.586,44,51l1.414-1.414A2,2,0,0,0,42.586,49.586Z"></path><path d="M49,34H45V32a1.011,1.011,0,0,0-.35-.76L44.37,31H45a9,9,0,0,0,2-17.77V13a7.008,7.008,0,0,0-7-7,6.775,6.775,0,0,0-2.23.37A11,11,0,0,0,18,13v.05A9,9,0,0,0,19,31h.63l-.28.24A1.011,1.011,0,0,0,19,32v2H15a5,5,0,0,0-5,5V57a5,5,0,0,0,5,5H25a5,5,0,0,0,5-5V39a5,5,0,0,0-5-5H21V32.46L22.7,31H41.3L43,32.46V34H39a5,5,0,0,0-5,5V57a5,5,0,0,0,5,5H49a5,5,0,0,0,5-5V39A5,5,0,0,0,49,34ZM25,36a3.009,3.009,0,0,1,3,3V57a3.009,3.009,0,0,1-3,3H15a3.009,3.009,0,0,1-3-3V39a3.009,3.009,0,0,1,3-3Zm17.04-7L38,25.54V23.82a3,3,0,1,0-2,0V26a1.011,1.011,0,0,0,.35.76L38.96,29H25.04l2.61-2.24A1.011,1.011,0,0,0,28,26V23.82a3,3,0,1,0-2,0v1.72L21.96,29H19a7,7,0,1,1,.05-14,1,1,0,0,0,.74-.33,1.036,1.036,0,0,0,.26-.77c-.03-.3-.05-.6-.05-.9A9,9,0,0,1,36.57,8.14a1,1,0,0,0,1.27.36A4.921,4.921,0,0,1,40,8a5,5,0,0,1,5,5,5.532,5.532,0,0,1-.08.88.966.966,0,0,0,.18.77.986.986,0,0,0,.69.4A7,7,0,0,1,45,29ZM37,22a1,1,0,1,1,1-1A1,1,0,0,1,37,22ZM26,21a1,1,0,1,1,1,1A1,1,0,0,1,26,21ZM52,57a3.009,3.009,0,0,1-3,3H39a3.009,3.009,0,0,1-3-3V39a3.009,3.009,0,0,1,3-3H49a3.009,3.009,0,0,1,3,3Z"></path><rect x="41" y="38" width="6" height="2"></rect><path d="M50,22H48a3,3,0,0,1-3,3v2A5.006,5.006,0,0,0,50,22Z"></path><path d="M22,13h2a5.006,5.006,0,0,1,5-5V6A7.008,7.008,0,0,0,22,13Z"></path></g></svg>