<svg xmlns="http://www.w3.org/2000/svg" viewBox="0 0 64 64" x="0px" y="0px"><g data-name="Personal Computer"><rect x="19" y="36" width="6" height="4"></rect><polygon points="17 42 17 43 27 43 27 42 26 42 18 42 17 42"></polygon><rect x="4" y="31" width="36" height="3"></rect><rect x="4" y="11" width="36" height="18"></rect><path d="M60,18H46V30H60ZM53,28a4,4,0,1,1,4-4A4,4,0,0,1,53,28Z"></path><circle cx="53" cy="24" r="2"></circle><rect x="46" y="4" width="14" height="12"></rect><path d="M46,44H60V32H46Zm6-3h6v2H52Zm-4,0h2v2H48Z"></path><path d="M35,50H33V45a1,1,0,0,1,1-1h3V39a1,1,0,0,1,1-1h6v2H39v5a1,1,0,0,1-1,1H35Z"></path><path d="M38,60V52H6v8Zm-6-7h4v2H32Zm0,4h4v2H32Zm-6-4h4v2H26Zm-6,0h4v2H20Zm-6,0h4v2H14Zm0,4H30v2H14ZM8,53h4v2H8Zm0,4h4v2H8Z"></path></g></svg>