<svg xmlns="http://www.w3.org/2000/svg" viewBox="0 0 64 64" x="0px" y="0px"><title>Cactus_7</title><g data-name="Cactus"><path d="M42,41H37V36h3V34H37V30h3V28H37V24h3V22H37V18h3V16H37V12h3V10H37a4.969,4.969,0,0,0-.833-2.753l2.2-2.2L36.95,3.636l-2.2,2.2A4.961,4.961,0,0,0,33,5.1V2H31V5.1a4.961,4.961,0,0,0-1.753.732l-2.2-2.2L25.636,5.05l2.2,2.2A4.969,4.969,0,0,0,27,10H24v2h3v4H24v2h3v4H24v2h3v4H24v2h3v4H24v2h3v5H22a1,1,0,0,0-1,1v4a1,1,0,0,0,1,1h1V61a1,1,0,0,0,1,1H40a1,1,0,0,0,1-1V47h1a1,1,0,0,0,1-1V42A1,1,0,0,0,42,41ZM29,10a3,3,0,0,1,6,0V41H29ZM39,60H25V47H39Zm2-15H23V43H41Z"></path><rect x="31" y="10" width="2" height="2"></rect><rect x="31" y="16" width="2" height="2"></rect><rect x="31" y="22" width="2" height="2"></rect><rect x="31" y="28" width="2" height="2"></rect><rect x="31" y="34" width="2" height="2"></rect><rect x="35" y="56" width="2" height="2"></rect><rect x="35" y="53" width="2" height="2"></rect><rect x="32" y="56" width="2" height="2"></rect></g></svg>