<svg xmlns="http://www.w3.org/2000/svg" viewBox="0 0 64 64" x="0px" y="0px"><g data-name="Dental Clinic"><rect x="32" y="50" width="16" height="6"></rect><path d="M48,4H16V28H48ZM41.309,14.791a16.123,16.123,0,0,0-1.893,5.961l-.237,2.45A3.1,3.1,0,0,1,33,22.9V20a1,1,0,0,0-2,0v2.9a3.1,3.1,0,0,1-6.179.3l-.237-2.449a16.112,16.112,0,0,0-1.893-5.961,5.99,5.99,0,0,1,8.772-7.678.937.937,0,0,0,1.075,0,5.952,5.952,0,0,1,4.5-1.025,5.995,5.995,0,0,1,4.269,8.7Z"></path><path d="M53.382,21H50v8a1,1,0,0,1-1,1H15a1,1,0,0,1-1-1V21H10.618l-5,10H58.382Z"></path><path d="M36.7,8.061a3.954,3.954,0,0,0-3,.679,2.924,2.924,0,0,1-3.405,0,3.957,3.957,0,0,0-3-.679,3.995,3.995,0,0,0-2.837,5.794,18.111,18.111,0,0,1,2.115,6.7l.238,2.449A1.1,1.1,0,0,0,29,22.9V20a3,3,0,0,1,6,0v2.9a1.1,1.1,0,0,0,2.188.106l.238-2.449a18.111,18.111,0,0,1,2.115-6.7A3.995,3.995,0,0,0,36.7,8.061ZM32,12a8.356,8.356,0,0,1-3.409-.688l.822-1.823a6.933,6.933,0,0,0,5.177,0l.82,1.823A8.364,8.364,0,0,1,32,12Z"></path><rect x="5" y="33" width="54" height="2"></rect><path d="M48,41a3,3,0,0,0,3-3V37H45v1A3,3,0,0,0,48,41Z"></path><path d="M40,41a3,3,0,0,0,3-3V37H37v1A3,3,0,0,0,40,41Z"></path><path d="M56,41a3,3,0,0,0,3-3V37H53v1A3,3,0,0,0,56,41Z"></path><path d="M8,41a3,3,0,0,0,3-3V37H5v1A3,3,0,0,0,8,41Z"></path><path d="M16,41a3,3,0,0,0,3-3V37H13v1A3,3,0,0,0,16,41Z"></path><path d="M24,41a3,3,0,0,0,3-3V37H21v1A3,3,0,0,0,24,41Z"></path><path d="M32,41a3,3,0,0,0,3-3V37H29v1A3,3,0,0,0,32,41Z"></path><path d="M55,60V42.9a4.994,4.994,0,0,1-3-1.93,4.954,4.954,0,0,1-8,0,4.954,4.954,0,0,1-8,0,4.954,4.954,0,0,1-8,0,4.954,4.954,0,0,1-8,0,4.954,4.954,0,0,1-8,0A4.994,4.994,0,0,1,9,42.9V60H2v2H62V60ZM30,49a1,1,0,0,1,1-1H49a1,1,0,0,1,1,1v8a1,1,0,0,1-1,1H31a1,1,0,0,1-1-1ZM23,60V50H15V60H13V49a1,1,0,0,1,1-1H24a1,1,0,0,1,1,1V60Z"></path></g></svg>