<svg xmlns="http://www.w3.org/2000/svg" viewBox="0 0 64 64" x="0px" y="0px"><title>Sound-Microphone-Reporter-Book</title><g><path d="M15,12H53V35h2V3a1,1,0,0,0-1-1H14A5.006,5.006,0,0,0,9,7V57a5.006,5.006,0,0,0,5,5H36V60H15ZM14,4H53V6H15V8H53v2H14a3,3,0,0,1,0-6ZM11,57V10.974a4.954,4.954,0,0,0,2,.925V59.816A3,3,0,0,1,11,57Z"></path><path d="M20,16a1,1,0,0,0-1,1V27a1,1,0,0,0,1,1H48a1,1,0,0,0,1-1V17a1,1,0,0,0-1-1ZM47,26H21V18H47Z"></path><path d="M57.268,39.947a4.987,4.987,0,0,0-7.479,3.946.989.989,0,0,0-.852.483l-3,5.2a1,1,0,0,0,.367,1.366l.866.5L43.67,57.5a1,1,0,0,0,.366,1.366l.706.408A3,3,0,0,1,41.3,59.6l-1,1.732a4.983,4.983,0,0,0,6.233-1.02l.963.556a1,1,0,0,0,1.366-.366l3.5-6.062.866.5a1,1,0,0,0,.5.134,1,1,0,0,0,.866-.5l3-5.2a.989.989,0,0,0-.01-.985,4.977,4.977,0,0,0,1.51-1.614h0A5.007,5.007,0,0,0,57.268,39.947ZM50.634,53.438l-3,5.2-1.732-1,3-5.195,1.559.9Zm2.732-.732-.866-.5h0l-3.464-2h0l-.866-.5,2-3.464.311.18,4.573,2.639h0l.312.179Zm4-6.929A2.994,2.994,0,0,1,55.7,47.125l-3.865-2.231a3,3,0,1,1,5.531.883Z"></path></g></svg>