<svg xmlns="http://www.w3.org/2000/svg" viewBox="0 0 64 64" x="0px" y="0px"><title>Typewriter-Tool-Writing-Technology</title><g data-name="Typewriter"><path d="M61.9,54.553l-6-12A1,1,0,0,0,55,42H52V40h3v1a1,1,0,0,0,1,1h4a1,1,0,0,0,1-1V33a1,1,0,0,0-1-1H56a1,1,0,0,0-1,1v1H52V4a2,2,0,0,0-2-2H14a2,2,0,0,0-2,2V34H9V33a1,1,0,0,0-1-1H4a1,1,0,0,0-1,1v8a1,1,0,0,0,1,1H8a1,1,0,0,0,1-1V40h3v2H9a1,1,0,0,0-.895.553l-6,12A1,1,0,0,0,2,55v5a2,2,0,0,0,2,2H60a2,2,0,0,0,2-2V55A1,1,0,0,0,61.9,54.553ZM57,34h2v6H57ZM7,40H5V34H7ZM14,4H50V34H44a1,1,0,0,0-.9.553L41.382,38H22.618L20.9,34.553A1,1,0,0,0,20,34H14ZM13,38H9V36H19.382l1,2H18v2H46V38H43.618l1-2H55v2H51a1,1,0,0,0-1,1v3H14V39A1,1,0,0,0,13,38ZM9.618,44H54.382l5,10H4.618ZM4,60V56H60v4Z"></path><rect x="10" y="50" width="2" height="2"></rect><rect x="14" y="50" width="2" height="2"></rect><rect x="18" y="50" width="28" height="2"></rect><rect x="48" y="50" width="2" height="2"></rect><rect x="52" y="50" width="2" height="2"></rect><rect x="15" y="46" width="2" height="2"></rect><rect x="11" y="46" width="2" height="2"></rect><rect x="19" y="46" width="2" height="2"></rect><rect x="23" y="46" width="2" height="2"></rect><rect x="27" y="46" width="2" height="2"></rect><rect x="31" y="46" width="2" height="2"></rect><rect x="35" y="46" width="2" height="2"></rect><rect x="39" y="46" width="2" height="2"></rect><rect x="43" y="46" width="2" height="2"></rect><rect x="47" y="46" width="2" height="2"></rect><rect x="51" y="46" width="2" height="2"></rect><rect x="18" y="10" width="6" height="2"></rect><rect x="26" y="10" width="14" height="2"></rect><rect x="42" y="10" width="4" height="2"></rect><rect x="18" y="26" width="6" height="2"></rect><rect x="26" y="26" width="14" height="2"></rect><rect x="42" y="26" width="4" height="2"></rect><rect x="18" y="30" width="8" height="2"></rect><rect x="28" y="30" width="10" height="2"></rect><rect x="40" y="30" width="6" height="2"></rect><rect x="18" y="14" width="2" height="2"></rect><rect x="22" y="14" width="10" height="2"></rect><rect x="34" y="14" width="12" height="2"></rect><rect x="18" y="18" width="22" height="2"></rect><rect x="42" y="18" width="4" height="2"></rect><rect x="18" y="22" width="28" height="2"></rect></g></svg>