<svg xmlns="http://www.w3.org/2000/svg" viewBox="0 0 64 64" x="0px" y="0px"><g><path d="M46,46a10.207,10.207,0,0,1-3.995-.927,8.832,8.832,0,0,1-1.068,1.616L39.409,45.4a6.782,6.782,0,0,0,.8-1.209c-1.272-.7-2.528-1.534-3.766-2.359C33.7,40,27.861,40,24,40c-4.158,0-9.333,0-13.6-3.2A15.382,15.382,0,0,0,4,34.393V56H50.756A25.144,25.144,0,0,0,52,50.075C51.632,49.146,48.282,46,46,46ZM14.828,50.414l-1.414,1.414L12,50.414l-1.414,1.414L9.172,50.414,10.586,49,9.172,47.586l1.414-1.414L12,47.586l1.414-1.414,1.414,1.414L13.414,49ZM19,50H17V48h2Zm4,0H21V48h2Zm4.01,0h-2V48h2Zm4.009,0h-2V48h2Zm2.727,0h-.723V48h.723a7.482,7.482,0,0,0,1.127-.085l.3,1.977A9.492,9.492,0,0,1,33.75,50Zm3.583-.7-.755-1.852a7.4,7.4,0,0,0,1.543-.854l1.17,1.623A9.516,9.516,0,0,1,37.333,49.3ZM48,54a2,2,0,1,1,2-2A2,2,0,0,1,48,54Z"></path><path d="M50.392,35.055a4.216,4.216,0,0,0-1.5,1.392,2.886,2.886,0,0,0-.382,2.3,2.741,2.741,0,0,0,1.8,1.3c.465.154.881.285,1.256.4,2.121.666,3.289,1.033,4.323,3.1A7.252,7.252,0,0,0,60,46.676V26.629c-3.485.835-5.66,2.128-6.03,3.612A7.569,7.569,0,0,1,50.392,35.055ZM55,35a2,2,0,1,1-2,2A2,2,0,0,1,55,35Z"></path><path d="M8.949,12.686c.445,1.334,2.069,2.263,3.639,3.162.428.245.846.487,1.24.735a9.256,9.256,0,0,1,.926-.3l.312,1.221a3.7,3.7,0,0,1,.829,1.05,5.731,5.731,0,0,1,.036,3.652c-.359,1.858-.7,3.614.776,5.088,2.617,2.616,8.15,2.7,10.977,1.759a26.34,26.34,0,0,0,4.045-2.067C34.277,25.518,36.913,24,39,24a8.582,8.582,0,0,1,4.771,1.9A5.138,5.138,0,0,0,46,27c.352,0,.951-.395,1.5-1.275a3.924,3.924,0,0,0,.609-3.278,6.832,6.832,0,0,0-1.763-1.876C45.245,19.647,44,18.6,44,17c0-1.414,1.166-2.58,2.293-3.707C47.053,12.532,48,11.586,48,11a8.989,8.989,0,0,1,.325-2.027c.076-.323.154-.65.214-.973H10.768C9.285,10.011,8.624,11.7,8.949,12.686Zm27.223,2.9,1.414-1.414L39,15.586l1.414-1.414,1.414,1.414L40.414,17l1.414,1.414-1.414,1.414L39,18.414l-1.414,1.414-1.414-1.414L37.586,17ZM33,16h2v2H33Zm-3.988,0h2v2h-2ZM25,16h2v2H25Zm-4.009,0h2v2h-2ZM21,22a2,2,0,1,1-2,2A2,2,0,0,1,21,22Zm-4.015-4.918V16h2v2H17a.978.978,0,0,1-.179-.017Z"></path><path d="M60,8H54.354c-.841,2.189-.938,4.6-.461,5.551A10.019,10.019,0,0,1,55,19a12.024,12.024,0,0,0,.09,2c.314.012.756.059,1.385.125.936.1,2.251.237,3.525.292Z"></path><path d="M60,23.418c-1.364-.054-2.751-.2-3.735-.3C55.706,23.056,55.178,23,55,23c-2,0-2-1.943-2-4a8.056,8.056,0,0,0-.9-4.553c-.809-1.607-.553-4.254.144-6.447H50.561c-.075.5-.184.986-.29,1.434A7.72,7.72,0,0,0,50,11c0,1.414-1.166,2.58-2.293,3.707C46.947,15.468,46,16.414,46,17c0,.67.755,1.3,1.63,2.04A8.394,8.394,0,0,1,49.9,21.553c.781,1.563.212,3.75-.7,5.223A4.029,4.029,0,0,1,46,29a6.252,6.252,0,0,1-3.347-1.444A6.823,6.823,0,0,0,39,26c-1.552,0-4.061,1.444-6.273,2.719a27.341,27.341,0,0,1-4.411,2.229,14.907,14.907,0,0,1-4.553.657c-2.994,0-6.338-.766-8.47-2.9-2.225-2.225-1.7-4.916-1.325-6.882a4.768,4.768,0,0,0,.137-2.378,7.148,7.148,0,0,0-2.51-1.863c-1.808-1.035-3.857-2.208-4.544-4.268C6.582,11.9,7.032,10.114,8.357,8H4V32.367A17.735,17.735,0,0,1,11.6,35.2C15.333,38,20.139,38,24,38c4.1,0,10.3,0,13.555,2.168,1.1.735,2.219,1.476,3.332,2.111l.038-.237A7.294,7.294,0,0,0,41,41q0-.234-.015-.465L42.98,40.4q.02.3.02.6a9.294,9.294,0,0,1-.1,1.329c-.015.107-.032.211-.051.314l-1.942-.351A10.76,10.76,0,0,0,46,44c3.266,0,8,4.213,8,6a26.445,26.445,0,0,1-1.135,6H60V48.742a9.272,9.272,0,0,1-5.9-4.295c-.653-1.306-1.178-1.471-3.132-2.085-.385-.12-.812-.255-1.289-.414a4.573,4.573,0,0,1-3.018-2.433,4.716,4.716,0,0,1,.439-3.962,5.892,5.892,0,0,1,2.147-2.142,5.646,5.646,0,0,0,2.778-3.653c.729-2.929,4.571-4.424,7.97-5.18ZM10.843,18.434l1.369,1.459a7.056,7.056,0,0,0-1.118,1.346L9.408,20.165A9.043,9.043,0,0,1,10.843,18.434ZM8.445,22.2l1.9.621a7.01,7.01,0,0,0-.33,1.718l-2-.131A9.015,9.015,0,0,1,8.445,22.2Zm-.3,4.448,1.968-.357a6.546,6.546,0,0,0,.532,1.65l-1.807.86A8.622,8.622,0,0,1,8.148,26.646Zm3.564,5.57a9.207,9.207,0,0,1-1.647-1.523L11.592,29.4a7.158,7.158,0,0,0,1.289,1.191Zm4.113,1.676A9.485,9.485,0,0,1,13.67,33.3l.756-1.852a7.492,7.492,0,0,0,1.7.469ZM19.98,34h-2V32h2Zm4.009,0h-2V32h2ZM28,34h-2V32h2Zm4.008,0H30V32h2Zm3.739.22A6.958,6.958,0,0,0,34.011,34l0-2a9.015,9.015,0,0,1,2.23.282Zm1.624.643.965-1.752a9.04,9.04,0,0,1,1.818,1.322l-1.367,1.459A7.078,7.078,0,0,0,37.37,34.863Zm3.283,3.955a7.025,7.025,0,0,0-.748-1.579l1.685-1.076a8.987,8.987,0,0,1,.964,2.032Z"></path></g></svg>