<svg xmlns="http://www.w3.org/2000/svg" viewBox="0 0 64 64" x="0px" y="0px"><g><path d="M56,60V54.25a10.989,10.989,0,0,0-8.2-10.632L46.96,43.4a2.99,2.99,0,0,1-.842,1.724A4.971,4.971,0,0,1,48,49a5.672,5.672,0,0,1-1,2.77v1.491A7.009,7.009,0,0,1,50,59a6.931,6.931,0,0,1-.086,1Z"></path><path d="M41,43a1,1,0,0,0,1,1h2a1,1,0,0,0,0-2H42A1,1,0,0,0,41,43Z"></path><path d="M18.5,54.677A5,5,0,0,0,16,59a4.827,4.827,0,0,0,.114,1H47.886A4.827,4.827,0,0,0,48,59a5,5,0,0,0-2.5-4.324,1,1,0,0,1-.391-.423c-.631.707-1.184,1.247-1.422,1.473a1,1,0,0,1-1.376,0C41.592,55.043,38,51.512,38,49a5,5,0,0,1,.09-.888A20.71,20.71,0,0,1,32,49c-6.077,0-11.338-2.451-13.24-6.057l-2.555.674A10.99,10.99,0,0,0,8,54.25V60h6.086A6.931,6.931,0,0,1,14,59a7.009,7.009,0,0,1,3-5.739V51h2v2.81A1,1,0,0,1,18.5,54.677Z"></path><path d="M17,19.142A3.939,3.939,0,0,1,18,19V17a1,1,0,0,1,.344-.754.984.984,0,0,1,.8-.236A23.2,23.2,0,0,0,37.293,9.293a1,1,0,0,1,1.668.431C38.979,9.787,40.82,16,45,16a1,1,0,0,1,1,1v2a3.939,3.939,0,0,1,1,.142V19a15,15,0,0,0-30,0Z"></path><path d="M41.665,39.932A.985.985,0,0,0,42,40h2a1,1,0,0,0,0-2H42a1,1,0,0,0-.4,1.916Z"></path><path d="M42,34a1,1,0,0,0-.286.06q-.3.293-.623.565A.89.89,0,0,0,41,35a1,1,0,0,0,1,1h2a.965.965,0,0,0,.694-.287A.978.978,0,0,0,45,35a1,1,0,0,0-1-1Z"></path><path d="M44,32a2.994,2.994,0,0,0,3-3,2,2,0,0,0-1.361-1.886A13.918,13.918,0,0,1,43.473,32Z"></path><path d="M46,49a3,3,0,0,0-6,0c0,1.051,1.583,3.107,3,4.588C44.417,52.105,46,50.049,46,49Z"></path><path d="M46,21v4a2,2,0,0,0,0-4Z"></path><path d="M32,47a17.779,17.779,0,0,0,7.536-1.591c.108-.1.23-.192.346-.286a2.974,2.974,0,0,1-.421-3.7l-1.716-.452A1,1,0,0,1,37,40V37.061a13.782,13.782,0,0,1-10,0V40a1,1,0,0,1-.745.967l-5.488,1.447C22.5,45.122,26.972,47,32,47Z"></path><path d="M37.584,11.767A24.993,24.993,0,0,1,20,18.087V24a12,12,0,0,0,24,0V17.921C40.458,17.351,38.463,13.83,37.584,11.767ZM29,20h2v4a1,1,0,0,0,2,0V20h2v4a3,3,0,0,1-6,0Zm-3.38.92a1.155,1.155,0,0,1-.33-.21,1.169,1.169,0,0,1-.21-.33.943.943,0,0,1,0-.76,1.032,1.032,0,0,1,.21-.33,1.155,1.155,0,0,1,.33-.21.916.916,0,0,1,.76,0,1.155,1.155,0,0,1,.33.21,1.032,1.032,0,0,1,.21.33.942.942,0,0,1,0,.76,1.169,1.169,0,0,1-.21.33,1.155,1.155,0,0,1-.33.21.942.942,0,0,1-.76,0ZM32,32a7.9,7.9,0,0,1-5.953-2.345l1.511-1.31A5.992,5.992,0,0,0,32,30a5.992,5.992,0,0,0,4.442-1.655l1.511,1.31A7.9,7.9,0,0,1,32,32Zm6.92-11.62a1.169,1.169,0,0,1-.21.33,1.014,1.014,0,0,1-1.42,0,1.169,1.169,0,0,1-.21-.33.943.943,0,0,1,0-.76,1.155,1.155,0,0,1,.21-.33,1,1,0,0,1,1.09-.21,1.155,1.155,0,0,1,.33.21,1.032,1.032,0,0,1,.21.33.942.942,0,0,1,0,.76Z"></path><path d="M16,23a2,2,0,0,0,2,2V21A2,2,0,0,0,16,23Z"></path></g></svg>