<svg xmlns="http://www.w3.org/2000/svg" viewBox="0 0 64 64" x="0px" y="0px"><g><path d="M56.323,46l3.2-8H30.477l3.2,8H42V44a1,1,0,0,1,1-1h4a1,1,0,0,1,1,1v2Z"></path><path d="M4,56H28V37a1,1,0,0,1,1-1h9V31a1,1,0,0,1,1-1h1V11a4.948,4.948,0,0,1,1.026-3H7a3,3,0,0,0-3,3ZM26,38H16V36H26Zm10-6H16V30H36Zm0-6H32V24h4ZM14,12H36v2H14ZM8,12h4v2H8Zm0,6H36v2H8Zm0,6H30v2H8Zm0,6h6v2H8Zm0,6h6v2H8Zm0,9a3.079,3.079,0,0,1,2.1.7,1.158,1.158,0,0,0,.9.3c.441,0,.8-.288,1.349-.759A3.992,3.992,0,0,1,15,44a3.069,3.069,0,0,1,2.1.7,1.161,1.161,0,0,0,.9.3v2a3.069,3.069,0,0,1-2.1-.7A1.161,1.161,0,0,0,15,46c-.441,0-.8.288-1.349.759A3.992,3.992,0,0,1,11,48a3.079,3.079,0,0,1-2.1-.7A1.158,1.158,0,0,0,8,47Zm0,5H18v2H8Z"></path><rect x="44" y="45" width="2" height="4"></rect><path d="M12,6H45a4.995,4.995,0,0,1,5,5v5a3,3,0,0,0,6,0V4H12Z"></path><path d="M31,60H59a1,1,0,0,0,1-1V42.193l-2.071,5.178A1,1,0,0,1,57,48H48v2a1,1,0,0,1-1,1H43a1,1,0,0,1-1-1V48H33a1,1,0,0,1-.929-.629L30,42.193V59A1,1,0,0,0,31,60Z"></path><path d="M47.118,8.872A3,3,0,0,0,42,11v8h7a4.98,4.98,0,0,1-1-3V11A3.018,3.018,0,0,0,47.118,8.872Z"></path><rect x="40" y="32" width="10" height="4"></rect></g></svg>