<svg xmlns="http://www.w3.org/2000/svg" viewBox="0 0 64 64" x="0px" y="0px"><g><rect x="42" y="24" width="8" height="4"></rect><path d="M10.168,18.445a1,1,0,0,1,1.664,0L12,18.7V16H10v2.7Z"></path><polygon points="60 30 32 30 32 34.256 41.146 37 50.854 37 60 34.256 60 30"></polygon><path d="M59,36.644l-7.713,2.314A1.027,1.027,0,0,1,51,39H41a1.027,1.027,0,0,1-.287-.042L33,36.644V51a1,1,0,0,0,1,1H58a1,1,0,0,0,1-1Z"></path><path d="M28.168,6.445a1,1,0,0,1,1.664,0L30,6.7V4H28V6.7Z"></path><path d="M55,4H32v6a1.008,1.008,0,0,1-.71.96A.967.967,0,0,1,31,11a.984.984,0,0,1-.83-.45L29,8.8l-1.17,1.75a.992.992,0,0,1-1.12.41A1.008,1.008,0,0,1,26,10V4H23a1,1,0,0,0-1,1v9H37a3.009,3.009,0,0,1,3,3v3H38V17a1,1,0,0,0-1-1H14v6a1.008,1.008,0,0,1-.71.96A.967.967,0,0,1,13,23a.984.984,0,0,1-.83-.45L11,20.8,9.83,22.55a.992.992,0,0,1-1.12.41A1.008,1.008,0,0,1,8,22V16H5a1,1,0,0,0-1,1V59a1,1,0,0,0,1,1H37a1,1,0,0,0,1-1V54H34a3.009,3.009,0,0,1-3-3V36.04l-.29-.08A1.008,1.008,0,0,1,30,35V29a1,1,0,0,1,1-1h9V23a1,1,0,0,1,1-1H51a1,1,0,0,1,1,1v5h4V5A1,1,0,0,0,55,4ZM16,26h8v2H16ZM8,26h6v2H8Zm0,4H28v2H8ZM29,47a1,1,0,0,1-1,1H26.48q-.165.45-.36.87l1.07,1.08a1,1,0,0,1,0,1.41l-2.83,2.83a1,1,0,0,1-1.41,0l-1.08-1.07q-.42.2-.87.36V55a1,1,0,0,1-1,1H16a1,1,0,0,1-1-1V53.48q-.45-.165-.87-.36l-1.08,1.07a1,1,0,0,1-1.41,0L8.81,51.36a1,1,0,0,1,0-1.41l1.07-1.08q-.2-.42-.36-.87H8a1,1,0,0,1-1-1V43a1,1,0,0,1,1-1H9.52q.165-.45.36-.87L8.81,40.05a1,1,0,0,1,0-1.41l2.83-2.83a1,1,0,0,1,1.41,0l1.08,1.07q.42-.2.87-.36V35a1,1,0,0,1,1-1h4a1,1,0,0,1,1,1v1.52q.45.165.87.36l1.08-1.07a1,1,0,0,1,1.41,0l2.83,2.83a1,1,0,0,1,0,1.41l-1.07,1.08q.195.42.36.87H28a1,1,0,0,1,1,1Z"></path><circle cx="18" cy="45" r="3"></circle><path d="M25.74,44a1,1,0,0,1-.97-.75,6.6,6.6,0,0,0-.75-1.8,1,1,0,0,1,.16-1.21l.89-.9-1.41-1.41-.9.89a1,1,0,0,1-1.21.16,6.6,6.6,0,0,0-1.8-.75,1,1,0,0,1-.75-.97V36H17v1.26a1,1,0,0,1-.75.97,6.6,6.6,0,0,0-1.8.75,1,1,0,0,1-1.21-.16l-.9-.89-1.41,1.41.89.9a1,1,0,0,1,.16,1.21,6.6,6.6,0,0,0-.75,1.8,1,1,0,0,1-.97.75H9v2h1.26a1,1,0,0,1,.97.75,6.6,6.6,0,0,0,.75,1.8,1,1,0,0,1-.16,1.21l-.89.9,1.41,1.41.9-.89a1,1,0,0,1,1.21-.16,6.6,6.6,0,0,0,1.8.75,1,1,0,0,1,.75.97V54h2V52.74a1,1,0,0,1,.75-.97,6.6,6.6,0,0,0,1.8-.75,1,1,0,0,1,1.21.16l.9.89,1.41-1.41-.89-.9a1,1,0,0,1-.16-1.21,6.6,6.6,0,0,0,.75-1.8,1,1,0,0,1,.97-.75H27V44ZM18,50a5,5,0,1,1,5-5A5,5,0,0,1,18,50Z"></path></g></svg>