<svg xmlns="http://www.w3.org/2000/svg" viewBox="0 0 64 64" x="0px" y="0px"><g data-name="Budget-Calculator-Cost-Money Bag-Finance"><rect x="50" y="44" width="6" height="5"></rect><path d="M33,51a1,1,0,0,0-1-1H31v2H29V50H27v2H25V50H24a1,1,0,0,0-1,1v2a1,1,0,0,0,1,1h8a1,1,0,0,0,1-1Z"></path><path d="M21,51a1,1,0,0,0-1-1H19v2H17V50H15v2H13V50H12a1,1,0,0,0-1,1v2a1,1,0,0,0,1,1h8a1,1,0,0,0,1-1Z"></path><path d="M12,56a1,1,0,0,0-1,1v2a1,1,0,0,0,1,1h8a1,1,0,0,0,1-1V57a1,1,0,0,0-1-1H19v2H17V56H15v2H13V56Z"></path><path d="M24,60h8a1,1,0,0,0,1-1V57a1,1,0,0,0-1-1H31v2H29V56H27v2H25V56H24a1,1,0,0,0-1,1v2A1,1,0,0,0,24,60Z"></path><rect x="42" y="44" width="6" height="5"></rect><path d="M30,40a8,8,0,1,0-8,8A8.011,8.011,0,0,0,30,40ZM18,42h2a1,1,0,0,0,1,1h2a1,1,0,0,0,0-2H21a3,3,0,0,1,0-6V34h2v1a3,3,0,0,1,3,3H24a1,1,0,0,0-1-1H21a1,1,0,0,0,0,2h2a3,3,0,0,1,0,6v1H21V45A3,3,0,0,1,18,42Z"></path><rect x="42" y="51" width="6" height="5"></rect><rect x="50" y="51" width="6.001" height="5"></rect><path d="M60,59V29a1,1,0,0,0-1-1H39a1,1,0,0,0-1,1V59a1,1,0,0,0,1,1H59A1,1,0,0,0,60,59Zm-2-3a2,2,0,0,1-2,2H42a2,2,0,0,1-2-2V44a2,2,0,0,1,2-2H56a2,2,0,0,1,2,2Zm0-18a2,2,0,0,1-2,2H42a2,2,0,0,1-2-2V32a2,2,0,0,1,2-2H56a2,2,0,0,1,2,2Z"></path><path d="M6.17,60H9.18A3,3,0,0,1,9,59V57a2.974,2.974,0,0,1,.78-2A2.974,2.974,0,0,1,9,53V51a3.009,3.009,0,0,1,3-3h4.03a10,10,0,1,1,11.94,0H32a3.009,3.009,0,0,1,3,3v2a2.974,2.974,0,0,1-.78,2A2.974,2.974,0,0,1,35,57v2a3,3,0,0,1-.18,1h1.36A3,3,0,0,1,36,59V29a3.009,3.009,0,0,1,3-3h3.94A13.059,13.059,0,0,0,32,20H20A13.012,13.012,0,0,0,7,33V52.38a5,5,0,0,1-2.16,4A2,2,0,0,0,4,58.11,2.127,2.127,0,0,0,6.17,60Z"></path><path d="M42,38H56V32H42Zm10-4h2v2H52Zm-4,0h2v2H48Zm-4,0h2v2H44Z"></path><path d="M30,18a1,1,0,0,0,0-2H22a1,1,0,0,0,0,2Z"></path><path d="M31,4a2.591,2.591,0,0,0-1.87.78,4.612,4.612,0,0,1-6.25,0A2.6,2.6,0,0,0,21,4a2.557,2.557,0,0,0-1.87.78,5.568,5.568,0,0,1-1.53.95L22.57,14h6.86L34.4,5.73a5.357,5.357,0,0,1-1.52-.95A2.6,2.6,0,0,0,31,4Z"></path></g></svg>