<svg xmlns="http://www.w3.org/2000/svg" viewBox="0 0 64 64" x="0px" y="0px"><g data-name="Video Player-Smartphone-Streaming-Technology-Recording"><path d="M46,2H18a6.006,6.006,0,0,0-6,6V56a6.006,6.006,0,0,0,6,6H46a6.006,6.006,0,0,0,6-6V8A6.006,6.006,0,0,0,46,2Zm4,54a4,4,0,0,1-4,4H18a4,4,0,0,1-4-4V8a4,4,0,0,1,4-4H46a4,4,0,0,1,4,4Z"></path><path d="M34,52H30a3,3,0,0,0,0,6h4a3,3,0,0,0,0-6Zm0,4H30a1,1,0,0,1,0-2h4a1,1,0,0,1,0,2Z"></path><rect x="25" y="6" width="2" height="2"></rect><rect x="29" y="6" width="6" height="2"></rect><path d="M46,37H42a1,1,0,0,0-.708.294L39.586,39H39V36a2,2,0,0,0-2-2H35.974A4.948,4.948,0,0,0,37,31a4.99,4.99,0,0,0-9.516-2.111A3.975,3.975,0,0,0,21.556,34H19a2,2,0,0,0-2,2V48a2,2,0,0,0,2,2H37a2,2,0,0,0,2-2V45h.586l1.706,1.706A1,1,0,0,0,42,47h4a1,1,0,0,0,1-1V38A1,1,0,0,0,46,37ZM32,28a3,3,0,1,1-3,3A3,3,0,0,1,32,28Zm-9,4a2,2,0,1,1,2,2A2,2,0,0,1,23,32ZM37,48H19V36H37Zm3-5H39V41h1a1,1,0,0,0,.707-.293L41,40.414v3.172l-.293-.293A1,1,0,0,0,40,43Zm5,2H43V39h2Z"></path><rect x="31" y="30" width="2" height="2"></rect><path d="M21,39v6a1,1,0,0,0,1,1H34a1,1,0,0,0,1-1V39a1,1,0,0,0-1-1H22A1,1,0,0,0,21,39Zm6,5V40h2v4Zm6,0H31V40h2ZM23,40h2v4H23Z"></path><path d="M23.056,21.9a2,2,0,0,0,2.053-.1l3.2-2.132a2,2,0,0,0,0-3.328l-3.2-2.132A2,2,0,0,0,22,15.868v4.264A2,2,0,0,0,23.056,21.9ZM24,15.868,27.2,18,24,20.138Z"></path><path d="M25,26a8,8,0,1,0-8-8A8.009,8.009,0,0,0,25,26Zm0-14a6,6,0,1,1-6,6A6.006,6.006,0,0,1,25,12Z"></path><path d="M40,14a3,3,0,0,0-2.816,2H35v2h2.184a2.982,2.982,0,0,0,5.632,0H47V16H42.816A3,3,0,0,0,40,14Zm0,4a1,1,0,1,1,1-1A1,1,0,0,1,40,18Z"></path></g></svg>