<svg xmlns="http://www.w3.org/2000/svg" viewBox="0 0 64 64" x="0px" y="0px"><g data-name="Investment-Startup-Smartphone-Money tree-Online"><path d="M12.68,44.12,12,46l1.88.68a4,4,0,0,0,5.13-2.39l.68-1.88-1.88-.68A4,4,0,0,0,12.68,44.12Z"></path><path d="M6.19,41.73l-1.88.68.68,1.88a4,4,0,0,0,5.13,2.39L12,46l-.68-1.88A4,4,0,0,0,6.19,41.73Z"></path><path d="M12,38a6,6,0,1,0-6-6A6.006,6.006,0,0,0,12,38Zm0-10a4,4,0,0,1,4,4H14a2,2,0,0,0-2-2Zm-2,4a2,2,0,0,0,2,2v2a4,4,0,0,1-4-4Z"></path><polygon points="7.82 60 16.18 60 17.78 52 6.22 52 7.82 60"></polygon><path d="M44,32a8,8,0,1,0-8-8A8.009,8.009,0,0,0,44,32Zm1-7H43a3,3,0,0,1,0-6V18h2v1a3,3,0,0,1,3,3H46a1,1,0,0,0-1-1H43a1,1,0,0,0,0,2h2a3,3,0,0,1,0,6v1H43V29a3,3,0,0,1-3-3h2a1,1,0,0,0,1,1h2a1,1,0,0,0,0-2Z"></path><path d="M46,54H42a1,1,0,0,0,0,2h4a1,1,0,0,0,0-2Z"></path><path d="M60,7a3,3,0,0,0-3-3H31a3,3,0,0,0-3,3V57a3,3,0,0,0,3,3H57a3,3,0,0,0,3-3ZM39,6H49V8H39ZM35,6h2V8H35Zm9,8A10,10,0,1,1,34,24,10.011,10.011,0,0,1,44,14ZM35,39.586l2.793-2.793,1.414,1.414-3.5,3.5a1,1,0,0,1-1.414,0l-2-2,1.414-1.414ZM31,6h2V8H31Zm4,42a1,1,0,0,1-.707-.293l-2-2,1.414-1.414L35,45.586l2.793-2.793,1.414,1.414-3.5,3.5A1,1,0,0,1,35,48ZM46,58H42a3,3,0,0,1,0-6h4a3,3,0,0,1,0,6ZM56,47H42V45H56Zm0-6H42V39H56Z"></path><polygon points="6 22 8 22 8 20 10 20 10 18 8 18 8 16 6 16 6 18 4 18 4 20 6 20 6 22"></polygon><polygon points="20 11 18 11 18 13 16 13 16 15 18 15 18 17 20 17 20 15 22 15 22 13 20 13 20 11"></polygon><rect x="11" y="40" width="2" height="10"></rect></g></svg>