<svg xmlns="http://www.w3.org/2000/svg" viewBox="0 0 64 64" x="0px" y="0px"><title>Mobile Payment</title><g data-name="Mobile Payment"><path d="M17,12H43V10H17V7a3,3,0,0,1,3-3H44a3,3,0,0,1,3,3v7h2V7a5.006,5.006,0,0,0-5-5H20a5.006,5.006,0,0,0-5,5v7h2Z"></path><path d="M21,50v2H47v5a3,3,0,0,1-3,3H20a3,3,0,0,1-3-3V40H15V57a5.006,5.006,0,0,0,5,5H44a5.006,5.006,0,0,0,5-5V50Z"></path><rect x="31" y="55" width="2" height="2"></rect><rect x="24" y="6" width="2" height="2"></rect><rect x="28" y="6" width="2" height="2"></rect><path d="M52,26H26a2,2,0,0,0-2,2V46a2,2,0,0,0,2,2H52a2,2,0,0,0,2-2V28A2,2,0,0,0,52,26ZM26,46V28H52l0,18Z"></path><path d="M49,38H29a1,1,0,0,0-1,1v4a1,1,0,0,0,1,1H49a1,1,0,0,0,1-1V39A1,1,0,0,0,49,38Zm-1,4H30V40H48Z"></path><path d="M30,36h5a1,1,0,0,0,1-1V31a1,1,0,0,0-1-1H30a1,1,0,0,0-1,1v4A1,1,0,0,0,30,36Zm1-4h3v2H31Z"></path><path d="M45,37a4,4,0,1,0-4-4A4,4,0,0,0,45,37Zm0-6a2,2,0,1,1-2,2A2,2,0,0,1,45,31Z"></path><path d="M48,25V18a2,2,0,0,0-2-2H20a2,2,0,0,0-2,2V36a2,2,0,0,0,2,2h3V36H20V25ZM20,23V21H46v2Zm26-5v1H20V18Z"></path></g></svg>