<svg xmlns="http://www.w3.org/2000/svg" viewBox="0 0 64 64" x="0px" y="0px"><g data-name="Photo Camera-Photograph-Picture-Vintage-Photography"><path d="M16.91,58.69a.949.949,0,0,0-.11.75.964.964,0,0,0,.47.61,1,1,0,0,0,1.36-.36l3.5-6.06-1.72-1Z"></path><path d="M43.59,52.63l-1.72,1,3.5,6.06a1,1,0,0,0,1.36.36.984.984,0,0,0,.37-1.35Z"></path><path d="M54,40a1,1,0,0,1-1,1H43.82a2.868,2.868,0,0,0,0-2H53A1,1,0,0,1,54,40Z"></path><polygon points="21.41 50.9 23.13 51.89 28.27 43 25.97 43 21.41 50.9"></polygon><path d="M40.27,39h2.09l-.41,1.3h-.01a.988.988,0,1,1-1.88-.6h-.01Z"></path><polygon points="41.86 34 43.95 34 43 37 40.91 37 41.86 34"></polygon><polygon points="38.03 43 35.73 43 40.87 51.89 42.59 50.9 38.03 43"></polygon><path d="M38,40a3,3,0,0,1,.18-1H13a1,1,0,0,0,0,2H38.18A3,3,0,0,1,38,40Z"></path><path d="M21,24.18a2.868,2.868,0,0,1,2,0V11H21Z"></path><path d="M22,30a3,3,0,0,0,1-.18V33H21V31.62L18.55,37H16.36l4.73-10.41A1,1,0,0,1,23,27a1.072,1.072,0,0,1-.09.41l-1.16,2.56A1.9,1.9,0,0,0,22,30Z"></path><path d="M47.48,22.95,45,30.73V32h6V21.97A4.924,4.924,0,0,1,48,23,4.363,4.363,0,0,1,47.48,22.95Z"></path><rect x="9" y="15" width="2" height="6"></rect><polygon points="13 20.72 15 20.22 15 15.78 13 15.28 13 20.72"></polygon><rect x="17" y="16" width="2" height="4"></rect><rect x="25" y="14" width="2" height="8"></rect><path d="M45,4V14.03a4.884,4.884,0,0,1,6,0V4Z"></path><rect x="29" y="12" width="2" height="12"></rect><path d="M48,15a2.992,2.992,0,0,0-1.81,5.38l.86-2.68,1.9.6-.85,2.69A3,3,0,0,0,48,15Z"></path><path d="M45,21.97v2.16l.57-1.79A4.276,4.276,0,0,1,45,21.97Z"></path><rect x="41" y="6" width="2" height="24"></rect><rect x="33" y="10" width="2" height="16"></rect><rect x="37" y="8" width="2" height="20"></rect></g></svg>