<svg xmlns="http://www.w3.org/2000/svg" viewBox="0 0 64 64" x="0px" y="0px"><g><path d="M53,2H11A3,3,0,0,0,8,5V59a3,3,0,0,0,3,3H53a3,3,0,0,0,3-3V5A3,3,0,0,0,53,2Zm1,57a1,1,0,0,1-1,1H11a1,1,0,0,1-1-1V5a1,1,0,0,1,1-1H53a1,1,0,0,1,1,1Z"></path><path d="M50,6H14a1,1,0,0,0-1,1V21a1,1,0,0,0,1,1H50a1,1,0,0,0,1-1V7A1,1,0,0,0,50,6ZM49,20H15V8H49Z"></path><path d="M22,24H14a1,1,0,0,0-1,1v8a1,1,0,0,0,1,1h8a1,1,0,0,0,1-1V25A1,1,0,0,0,22,24Zm-1,8H15V26h6Z"></path><path d="M36,24H28a1,1,0,0,0-1,1v8a1,1,0,0,0,1,1h8a1,1,0,0,0,1-1V25A1,1,0,0,0,36,24Zm-1,8H29V26h6Z"></path><path d="M50,24H42a1,1,0,0,0-1,1v8a1,1,0,0,0,1,1h8a1,1,0,0,0,1-1V25A1,1,0,0,0,50,24Zm-1,8H43V26h6Z"></path><path d="M22,36H14a1,1,0,0,0-1,1v8a1,1,0,0,0,1,1h8a1,1,0,0,0,1-1V37A1,1,0,0,0,22,36Zm-1,8H15V38h6Z"></path><path d="M36,36H28a1,1,0,0,0-1,1v8a1,1,0,0,0,1,1h8a1,1,0,0,0,1-1V37A1,1,0,0,0,36,36Zm-1,8H29V38h6Z"></path><path d="M50,36H42a1,1,0,0,0-1,1v8a1,1,0,0,0,1,1h8a1,1,0,0,0,1-1V37A1,1,0,0,0,50,36Zm-1,8H43V38h6Z"></path><path d="M22,48H14a1,1,0,0,0-1,1v8a1,1,0,0,0,1,1h8a1,1,0,0,0,1-1V49A1,1,0,0,0,22,48Zm-1,8H15V50h6Z"></path><path d="M36,48H28a1,1,0,0,0-1,1v8a1,1,0,0,0,1,1h8a1,1,0,0,0,1-1V49A1,1,0,0,0,36,48Zm-1,8H29V50h6Z"></path><path d="M50,48H42a1,1,0,0,0-1,1v8a1,1,0,0,0,1,1h8a1,1,0,0,0,1-1V49A1,1,0,0,0,50,48Zm-1,8H43V50h6Z"></path><rect x="33" y="16" width="2" height="2"></rect><rect x="37" y="16" width="2" height="2"></rect><rect x="41" y="16" width="2" height="2"></rect><rect x="45" y="16" width="2" height="2"></rect></g></svg>