<svg xmlns="http://www.w3.org/2000/svg" viewBox="0 0 64 64" x="0px" y="0px"><g><polygon points="33 38 35.72 38 35.22 36 33 36 33 38"></polygon><path d="M25.75,24.58l1.88-3.26-1.72-1L23.78,24H24A2.94,2.94,0,0,1,25.75,24.58Z"></path><polygon points="14.2 34 15.24 34.79 15.7 34 14.2 34"></polygon><polygon points="41 30.5 38 28.25 35 30.5 35 34 41 34 41 30.5"></polygon><polygon points="41 38 41 36 37.28 36 37.78 38 41 38"></polygon><path d="M22,38h3V29.88l-4,6.93V37A1,1,0,0,0,22,38Z"></path><path d="M15.5,24.69A4.962,4.962,0,0,1,18,24h3.47l1.64-2.84L10.1,15.67,3.99,26.28l9.03,6.83c0-.04-.02-.07-.02-.11V31.13L6.2,26.25l1.16-1.62,5.67,4.06a4.961,4.961,0,0,1,.91-2.59L8.28,22.84l1-1.74ZM11.188,17.6l9.161,4.134-.823,1.823-9.16-4.134Z"></path><path d="M20.97,32.86l3.77-6.52A.994.994,0,0,0,24,26H18a3.009,3.009,0,0,0-3,3v3h5A.99.99,0,0,1,20.97,32.86ZM19,30H17V28h2Z"></path><polygon points="58.08 34 56.5 32.78 56.79 34 58.08 34"></polygon><polygon points="15.91 37.63 17.63 38.63 19 36.27 19 34 18.01 34 16.41 36.77 15.91 37.63"></polygon><path d="M53.2,27.48A10.984,10.984,0,0,0,47,19.95V26.5l3.14,2.35,3.08-1.32Z"></path><polygon points="51 36 48.78 36 48.28 38 51 38 51 36"></polygon><polygon points="53.68 29.51 51 30.66 51 34 54.74 34 53.68 29.51"></polygon><path d="M45,26.5V19.29A11.474,11.474,0,0,0,42.5,19H41.49a10.87,10.87,0,0,0-2.49.29V26.5l3,2.25Z"></path><path d="M56,43h2a1,1,0,0,0,1-1V41H56a1,1,0,0,1-1-1V36H53v4A3.009,3.009,0,0,0,56,43Z"></path><polygon points="49 30.5 46 28.25 43 30.5 43 34 49 34 49 30.5"></polygon><path d="M30.68,27.59l3.17,1.27L37,26.5V19.97a11,11,0,0,0-5.88,6.37Z"></path><polygon points="28.41 34 33 34 33 30.68 30.01 29.48 28.41 34"></polygon><path d="M30,48h6a1,1,0,0,0,1-1V44H32a1,1,0,0,1-1-1V36H27v9A3.009,3.009,0,0,0,30,48Z"></path><polygon points="43 38 46.22 38 46.72 36 43 36 43 38"></polygon></g></svg>