<svg xmlns="http://www.w3.org/2000/svg" viewBox="0 0 64 64" x="0px" y="0px"><g><path d="M17.488,24h2.03l-1.3-7.367a1,1,0,0,0-.414-.651.965.965,0,0,0-.729-.159,1,1,0,0,0-.842.977,1.1,1.1,0,0,0,.017.189Z"></path><path d="M15.1,22H13a.957.957,0,0,0-.694.288A.974.974,0,0,0,12,23a1,1,0,0,0,1,1h2.457Z"></path><polygon points="28.452 24 28.805 22 21.195 22 21.548 24 28.452 24"></polygon><path d="M49,4H5A1,1,0,0,0,4,5v5.03H50V5A1,1,0,0,0,49,4ZM10,8H8V6h2Zm4,0H12V6h2Zm4,0H16V6h2Z"></path><path d="M33.756,16.976a1.152,1.152,0,0,0,.014-.176.994.994,0,0,0-.832-.975.97.97,0,0,0-.739.157,1,1,0,0,0-.414.65L30.482,24h2.029Z"></path><path d="M50,36.06,40,39.7v6.61a12.942,12.942,0,0,0,6.02,10.97L50,59.81l3.98-2.53A12.942,12.942,0,0,0,60,46.31V39.7Zm-.29,14.65a1.014,1.014,0,0,1-1.42,0l-4-4,1.42-1.42L49,48.59l6.29-6.3,1.42,1.42Z"></path><path d="M37,22H34.9l-.355,2H37a.957.957,0,0,0,.694-.288A.978.978,0,0,0,38,23,1,1,0,0,0,37,22Z"></path><path d="M15.08,26l.71,9.14A3,3,0,0,0,18.78,38H31.22a2.994,2.994,0,0,0,2.99-2.83L34.92,26ZM21,36H19V28h2Zm5,0H24V28h2Zm5,0H29V28h2Z"></path><path d="M53,8H52V32H50V12.03H4V49a1,1,0,0,0,1,1H37v2H8v1a1,1,0,0,0,1,1H40.11A14.976,14.976,0,0,1,38,46.31V39a.992.992,0,0,1,.66-.94l11-4a.993.993,0,0,1,.68,0L54,35.39V9A1,1,0,0,0,53,8ZM39.11,25.13A2.954,2.954,0,0,1,37,26h-.07l-.72,9.3A5,5,0,0,1,31.22,40H18.78a5,5,0,0,1-4.99-4.72L13.07,26H13a3.009,3.009,0,0,1-3-3,3,3,0,0,1,3-3h1.75l-.48-2.68a3.027,3.027,0,0,1,2.45-3.47,2.931,2.931,0,0,1,2.22.49,3,3,0,0,1,1.25,1.95L20.84,20h8.32l.65-3.71a3,3,0,0,1,1.25-1.95,2.9,2.9,0,0,1,2.23-.48,2.992,2.992,0,0,1,2.48,2.94,2.848,2.848,0,0,1-.04.51L35.25,20H37a3.009,3.009,0,0,1,3,3A2.971,2.971,0,0,1,39.11,25.13Z"></path></g></svg>