<svg xmlns="http://www.w3.org/2000/svg" viewBox="0 0 64 64" x="0px" y="0px"><g><path d="M11,53V7a3,3,0,0,1,3-3h2V5a3,3,0,0,0,3,3H33a3,3,0,0,0,3-3V4h2a3,3,0,0,1,3,3V30h2V7a5.006,5.006,0,0,0-5-5H14A5.006,5.006,0,0,0,9,7V53a5.006,5.006,0,0,0,5,5H30V56H14A3,3,0,0,1,11,53ZM34,5a1,1,0,0,1-1,1H19a1,1,0,0,1-1-1V4H34Z"></path><path d="M44,32A15,15,0,1,0,59,47,15.017,15.017,0,0,0,44,32Zm0,28A13,13,0,1,1,57,47,13.015,13.015,0,0,1,44,60Z"></path><rect x="35.515" y="46" width="16.971" height="2" transform="translate(-20.347 44.879) rotate(-45)"></rect><path d="M48,48a3,3,0,1,0,3,3A3,3,0,0,0,48,48Zm0,4a1,1,0,1,1,1-1A1,1,0,0,1,48,52Z"></path><path d="M40,46a3,3,0,1,0-3-3A3,3,0,0,0,40,46Zm0-4a1,1,0,1,1-1,1A1,1,0,0,1,40,42Z"></path><rect x="25" y="24" width="2" height="2"></rect><rect x="29" y="24" width="2" height="2"></rect><rect x="21" y="24" width="2" height="2"></rect></g></svg>