<svg xmlns="http://www.w3.org/2000/svg" viewBox="0 0 64 64" x="0px" y="0px"><g data-name="Car"><path d="M59,27H51.515l-9.1-12.744A3.008,3.008,0,0,0,39.971,13H13a5.006,5.006,0,0,0-5,5v2H4a2,2,0,0,0-2,2V32a2,2,0,0,0,2,2H8v8a3,3,0,0,0,3,3h3.08a6.991,6.991,0,0,0,13.84,0H42.08a6.991,6.991,0,0,0,13.84,0H59a3,3,0,0,0,3-3V30A3,3,0,0,0,59,27ZM36,19h7.342l5.715,8H36Zm-2,8H14V19H34ZM4,32V29H5V27H4V25H5V23H4V22H8v3H7v2H8v2H7v2H8v1Zm6,10V41h3V39H10V18a3,3,0,0,1,3-3H39.971a1,1,0,0,1,.813.418L41.914,17H13a1,1,0,0,0-1,1V28a1,1,0,0,0,1,1H34V43H27.92a6.991,6.991,0,0,0-13.84,0H11A1,1,0,0,1,10,42Zm11,7a5,5,0,1,1,5-5A5.006,5.006,0,0,1,21,49Zm28,0a5,5,0,1,1,5-5A5.006,5.006,0,0,1,49,49Zm10-6H55.92a6.991,6.991,0,0,0-13.84,0H36V29H59a1,1,0,0,1,1,1v1H56a2,2,0,0,0-2,2v2a2,2,0,0,0,2,2h4v2H57v2h3v1A1,1,0,0,1,59,43Zm1-10v2H56V33Z"></path><rect x="38" y="31" width="4" height="2"></rect><rect x="20" y="43" width="2" height="2"></rect><rect x="48" y="43" width="2" height="2"></rect></g></svg>