<svg xmlns="http://www.w3.org/2000/svg" viewBox="0 0 64 64" x="0px" y="0px"><g data-name="Smartphone-Money Bag-App-Saving-Investment"><path d="M46,2H18a6,6,0,0,0-6,6V56a6,6,0,0,0,6,6H46a6,6,0,0,0,6-6V8A6,6,0,0,0,46,2Zm4,54a4,4,0,0,1-4,4H18a4,4,0,0,1-4-4V50H50Zm0-8H14V12H50Zm0-38H14V8a4,4,0,0,1,4-4H46a4,4,0,0,1,4,4Z"></path><path d="M34,52H30a3,3,0,0,0,0,6h4a3,3,0,0,0,0-6Zm0,4H30a1,1,0,0,1,0-2h4a1,1,0,0,1,0,2Z"></path><rect x="25" y="6" width="2" height="2"></rect><rect x="29" y="6" width="6" height="2"></rect><path d="M45.88,39.46l-1.34-1.34A1.783,1.783,0,0,1,44,36.83V33a9.01,9.01,0,0,0-7.24-8.82A3.108,3.108,0,0,0,37,23a3,3,0,0,0-1.33-2.49l3.11-3.89a.981.981,0,0,0,.12-1.05A1,1,0,0,0,38,15c-.59,0-.65-.07-.79-.21A2.687,2.687,0,0,0,35,14a2.687,2.687,0,0,0-2.21.79c-.14.14-.2.21-.79.21s-.65-.07-.79-.21A2.687,2.687,0,0,0,29,14a2.687,2.687,0,0,0-2.21.79c-.14.14-.2.21-.79.21a1,1,0,0,0-.9.57.981.981,0,0,0,.12,1.05l3.11,3.89A3,3,0,0,0,27,23a3.108,3.108,0,0,0,.24,1.18A9.01,9.01,0,0,0,20,33v3.83a1.783,1.783,0,0,1-.54,1.29l-1.34,1.34A3.833,3.833,0,0,0,20.83,46H43.17a3.833,3.833,0,0,0,2.71-6.54ZM27.75,16.59a3.579,3.579,0,0,0,.46-.38c.14-.14.2-.21.79-.21s.65.07.79.21A2.687,2.687,0,0,0,32,17a2.687,2.687,0,0,0,2.21-.79c.14-.14.2-.21.79-.21s.65.07.79.21a3.579,3.579,0,0,0,.46.38L33.52,20H30.48ZM35,23a1,1,0,0,1-1,1H30a1,1,0,0,1,0-2h4A1,1,0,0,1,35,23Zm8.17,21H20.83A1.831,1.831,0,0,1,19,42.17a1.783,1.783,0,0,1,.54-1.29l1.34-1.34A3.838,3.838,0,0,0,22,36.83V33a7.008,7.008,0,0,1,7-7h6a7.008,7.008,0,0,1,7,7v3.83a3.838,3.838,0,0,0,1.12,2.71l1.34,1.34A1.783,1.783,0,0,1,45,42.17,1.831,1.831,0,0,1,43.17,44Z"></path><path d="M33,38H31a1,1,0,0,1-1-1H28a3,3,0,0,0,3,3v1h2V40a3,3,0,0,0,0-6H31a1,1,0,0,1,0-2h2a1,1,0,0,1,1,1h2a3,3,0,0,0-3-3V29H31v1a3,3,0,0,0,0,6h2a1,1,0,0,1,0,2Z"></path></g></svg>