<svg xmlns="http://www.w3.org/2000/svg" viewBox="0 0 64 64" x="0px" y="0px"><g><circle cx="48" cy="45" r="1"></circle><path d="M56,36a4.94,4.94,0,0,0-1.97-3.97,3,3,0,0,1-.97-3.59,5,5,0,0,0-3.98-6.9A3.263,3.263,0,0,1,48,21.19v1.99a3,3,0,1,1-2,0V21h1.69a2.987,2.987,0,0,1-1.23-2.08,5.037,5.037,0,0,0-.93-2.29,3.036,3.036,0,0,1-.85.9,3,3,0,0,1-1.68.52,2.854,2.854,0,0,1-1.11-.22l-.77-.3a7.627,7.627,0,0,1,.42,1.16,7.955,7.955,0,0,1-.8,6.07,7.573,7.573,0,0,1-.72,1.03,13,13,0,1,1-16.04,0,7.573,7.573,0,0,1-.72-1.03,7.955,7.955,0,0,1-.8-6.07,7.627,7.627,0,0,1,.42-1.16l-.77.3a2.854,2.854,0,0,1-1.11.22,3,3,0,0,1-1.68-.52,3.036,3.036,0,0,1-.85-.9,5.037,5.037,0,0,0-.93,2.29,3,3,0,0,1-2.62,2.62,5,5,0,0,0-3.98,6.89,3.023,3.023,0,0,1-.96,3.6,4.978,4.978,0,0,0-.01,7.94,3,3,0,0,1,.97,3.59,5,5,0,0,0,3.98,6.9,3,3,0,0,1,2.62,2.62,5,5,0,0,0,6.89,3.98,3.026,3.026,0,0,1,3.6.96,4.978,4.978,0,0,0,7.94.01,3,3,0,0,1,3.59-.97,5,5,0,0,0,6.9-3.98,3,3,0,0,1,2.62-2.62,5,5,0,0,0,3.98-6.89,3.023,3.023,0,0,1,.96-3.6A4.921,4.921,0,0,0,56,36ZM13,25a1,1,0,0,1,1-1h4a1,1,0,0,1,1,1v4a1,1,0,0,1-1,1H14a1,1,0,0,1-1-1Zm3,8v2H14V33Zm-4,4H10V35h2Zm4,12a2.993,2.993,0,0,1-1-5.816V41h2v2.184A2.993,2.993,0,0,1,16,49Zm7,2H21V49h2Zm3,4H24V53h2Zm13,0a1,1,0,0,1-1,1H34a1,1,0,0,1-1-1V51a1,1,0,0,1,1-1h4a1,1,0,0,1,1,1Zm5-4H42V49h2Zm3-16h2v2H47Zm1,13a2.993,2.993,0,0,1-1-5.816V40h2v2.184A2.993,2.993,0,0,1,48,48Zm3-15H49V31h2Zm3,4H52V35h2Z"></path><path d="M20,4.95v10.1a1,1,0,0,0,1.37.92L28,13.32V11H24V9h4V6.68L21.37,4.03A.986.986,0,0,0,21,3.95a.957.957,0,0,0-.56.18A.968.968,0,0,0,20,4.95Z"></path><rect x="15" y="26" width="2" height="2"></rect><circle cx="16" cy="46" r="1"></circle><rect x="35" y="52" width="2" height="2"></rect><rect x="30" y="7" width="4" height="6"></rect><path d="M30.6,23.08a13.1,13.1,0,0,1,2.8,0L32,17.87Z"></path><path d="M36,11v2.32l6.63,2.65A1,1,0,0,0,44,15.05V4.95a1,1,0,0,0-1.37-.92L36,6.68V9h4v2Z"></path><circle cx="47" cy="26" r="1"></circle><path d="M26.43,16.11A5.888,5.888,0,0,0,24.88,18H28v2H24.25a5.833,5.833,0,0,0,.07,2H27v2H25.16a5.973,5.973,0,0,0,2.53,2.22L30.7,15H29.19Z"></path><path d="M33.3,15l3.01,11.22A5.973,5.973,0,0,0,38.84,24H37V22h2.68a5.833,5.833,0,0,0,.07-2H36V18h3.12a5.888,5.888,0,0,0-1.55-1.89L34.81,15Z"></path></g></svg>