<svg xmlns="http://www.w3.org/2000/svg" viewBox="0 0 64 64" x="0px" y="0px"><title>Personal Profile</title><g data-name="Personal Profile"><path d="M48,47H40V44.05A9,9,0,0,0,45,36v-.1A5.009,5.009,0,0,0,49,31V19a16.916,16.916,0,0,0-2-8h4V9H46V4H44V6.965A16.993,16.993,0,0,0,15,19V31a5.009,5.009,0,0,0,4,4.9V36a9,9,0,0,0,5,8.05V47H16C8.542,47,2,53.075,2,60v1a1,1,0,0,0,1,1H61a1,1,0,0,0,1-1V60C62,53.075,55.458,47,48,47ZM33,54H31V51.516l1-.428,1,.428Zm-7-5h6a1,1,0,0,0-.393.081L26,51.483Zm6.394.081A1,1,0,0,0,32,49h6v2.483ZM45,33.829V28.171a3,3,0,0,1,0,5.658Zm2-6.8a4.954,4.954,0,0,0-2-.925V20a.993.993,0,0,0-.071-.354,1.012,1.012,0,0,0-.047-.093,1.111,1.111,0,0,0-.061-.125c.039-.085.066-.175.1-.261.073-.168.136-.339.2-.511.124-.323.235-.649.332-.981.054-.182.1-.363.15-.547.087-.35.153-.7.211-1.061.026-.164.059-.326.079-.491A13.142,13.142,0,0,0,46,14v-.41A14.982,14.982,0,0,1,47,19ZM20.75,9.072A15.015,15.015,0,0,1,44,9.989V14a11.06,11.06,0,0,1-.163,1.794,10.943,10.943,0,0,1-.669,2.421,10.711,10.711,0,0,1-.514,1.042c-.043.079-.075.164-.12.243A11.045,11.045,0,0,1,33,25H20a1,1,0,0,0-1,1v.1a4.954,4.954,0,0,0-2,.925V19A14.985,14.985,0,0,1,20.75,9.072ZM17,31a3.006,3.006,0,0,1,2-2.829v5.658A3.006,3.006,0,0,1,17,31Zm4,5V27h3.278A1.978,1.978,0,0,0,24,28a2,2,0,0,0,4,0,1.978,1.978,0,0,0-.278-1H33a12.856,12.856,0,0,0,1.3-.073c.077-.008.154-.014.231-.023q.619-.075,1.225-.208c.078-.016.154-.036.231-.054.265-.063.526-.134.785-.213A1.989,1.989,0,1,0,38,26h-.013c.145-.06.286-.129.429-.2.064-.029.129-.057.193-.087q.556-.267,1.086-.586c.067-.04.132-.082.2-.123.358-.224.708-.46,1.043-.717L41,24.244c.324-.252.635-.522.935-.8.047-.045.1-.088.144-.134.3-.288.579-.593.849-.91.024-.029.053-.054.077-.083V36a7.008,7.008,0,0,1-7,7H28A7.008,7.008,0,0,1,21,36Zm7,9h8a8.971,8.971,0,0,0,2-.232V47H26V44.768A8.971,8.971,0,0,0,28,45ZM16,49h8v4a1,1,0,0,0,1.394.919L29,52.374v2.543L28.153,60H14V56H12v4H4C4,54.14,9.607,49,16,49ZM30.181,60l.666-4h2.306l.666,4ZM52,60V56H50v4H35.847L35,54.917V52.374l3.606,1.545A1,1,0,0,0,40,53V49h8c6.393,0,12,5.14,12,11Z"></path></g></svg>