<svg xmlns="http://www.w3.org/2000/svg" viewBox="0 0 64 64" x="0px" y="0px"><g data-name="Medical Report-Report-Medical History-Medical-Hospital"><path d="M58,16H54a3.009,3.009,0,0,0-3,3V44a.978.978,0,0,0,.09.41l4,9a1,1,0,0,0,1.82,0l4-9A.978.978,0,0,0,61,44V19A3.009,3.009,0,0,0,58,16Zm-5,8h2V43H53Zm3,26.54L55.32,49h1.36ZM57.57,47H54.43l-.89-2h4.92ZM59,43H57V24h2Zm0-21H53V19a1,1,0,0,1,1-1h4a1,1,0,0,1,1,1Z"></path><path d="M48.71,12.29l-10-10A1.033,1.033,0,0,0,38,2H8A5,5,0,0,0,3,7V57a5,5,0,0,0,5,5H44a5,5,0,0,0,5-5V13A1.033,1.033,0,0,0,48.71,12.29ZM39,5.41,45.59,12H40a1,1,0,0,1-1-1ZM47,57a3.009,3.009,0,0,1-3,3H8a3.009,3.009,0,0,1-3-3V7A3.009,3.009,0,0,1,8,4H37v7a3.009,3.009,0,0,0,3,3h7Z"></path><rect x="9" y="8" width="2" height="2"></rect><rect x="13" y="8" width="4" height="2"></rect><rect x="9" y="12" width="8" height="2"></rect><path d="M28.9,24.34a4.026,4.026,0,0,0-2.827,1.173L26,25.586l-.073-.073A4.026,4.026,0,0,0,23.1,24.34a4,4,0,0,0-2.827,6.827l5.02,5.021a1,1,0,0,0,1.414,0l5.02-5.021A4,4,0,0,0,28.9,24.34Zm1.413,5.413L26,34.066l-4.313-4.313a2,2,0,1,1,2.826-2.826l.78.78a1,1,0,0,0,1.414,0l.781-.78a2.063,2.063,0,0,1,2.825,0A2,2,0,0,1,30.313,29.753Z"></path><path d="M38,30A12,12,0,1,0,26,42,12.013,12.013,0,0,0,38,30ZM26,40A10,10,0,1,1,36,30,10.011,10.011,0,0,1,26,40Z"></path><rect x="10" y="54" width="12" height="2"></rect><rect x="10" y="50" width="12" height="2"></rect><rect x="10" y="46" width="2" height="2"></rect><rect x="14" y="46" width="8" height="2"></rect><rect x="30" y="46" width="12" height="2"></rect><rect x="30" y="50" width="12" height="2"></rect><rect x="30" y="54" width="12" height="2"></rect></g></svg>