<svg xmlns="http://www.w3.org/2000/svg" viewBox="0 0 64 64" x="0px" y="0px"><g data-name="Battery Power-Charge"><path d="M33,35V22.487L25.8,34H30a1,1,0,0,1,1,1V47.513L38.2,36H34A1,1,0,0,1,33,35Z"></path><rect x="25" y="4" width="14" height="4"></rect><path d="M47,13a3,3,0,0,0-3-3H20a3,3,0,0,0-3,3V57a3,3,0,0,0,3,3H44a3,3,0,0,0,3-3ZM40.848,35.53l-10,16A1,1,0,0,1,30,52a1.011,1.011,0,0,1-.276-.039A1,1,0,0,1,29,51V36H24a1,1,0,0,1-.848-1.53l10-16A1,1,0,0,1,35,19V34h5a1,1,0,0,1,.848,1.53Z"></path></g></svg>