<svg xmlns="http://www.w3.org/2000/svg" viewBox="0 0 64 64" x="0px" y="0px"><g data-name="Database-Files Server"><path d="M10,41a2.006,2.006,0,0,0,2-2,2.015,2.015,0,0,0-2-2,2,2,0,0,0,0,4Z"></path><path d="M54,41a2,2,0,0,0,0-4,2.015,2.015,0,0,0-2,2A2.006,2.006,0,0,0,54,41Z"></path><path d="M54,27a2,2,0,1,0-2-2,2.015,2.015,0,0,0,2,2Z"></path><path d="M10,27a2.015,2.015,0,0,0,2-2,2,2,0,1,0-2,2Z"></path><path d="M25,39H39a1,1,0,0,0,1-1V34a1,1,0,0,0-1-1H25a1,1,0,0,0-1,1v4A1,1,0,0,0,25,39Zm11-4h2v2H36Zm-4,0h2v2H32Zm-6,0h2v2H26Z"></path><path d="M39,25H25a1,1,0,0,0-1,1v4a1,1,0,0,0,1,1H39a1,1,0,0,0,1-1V26A1,1,0,0,0,39,25ZM28,29H26V27h2Zm6,0H32V27h2Zm4,0H36V27h2Z"></path><rect x="53" y="18" width="2" height="3"></rect><polygon points="50.293 27.293 46.586 31 44 31 44 33 46.586 33 50.293 36.707 51.707 35.293 48.414 32 51.707 28.707 50.293 27.293"></polygon><rect x="53" y="43" width="2" height="3"></rect><rect x="9" y="18" width="2" height="3"></rect><polygon points="13.707 27.293 12.293 28.707 15.586 32 12.293 35.293 13.707 36.707 17.414 33 20 33 20 31 17.414 31 13.707 27.293"></polygon><rect x="9" y="43" width="2" height="3"></rect><rect x="4" y="54" width="12" height="6"></rect><polygon points="16 50 10.618 50 9.618 52 16 52 16 50"></polygon><rect x="48" y="54" width="12" height="6"></rect><polygon points="60 50 54.618 50 53.618 52 60 52 60 50"></polygon><rect x="48" y="8" width="12" height="6"></rect><polygon points="60 4 54.618 4 53.618 6 60 6 60 4"></polygon><polygon points="16 4 10.618 4 9.618 6 16 6 16 4"></polygon><rect x="4" y="8" width="12" height="6"></rect><rect x="31" y="19" width="2" height="2"></rect><rect x="35" y="19" width="2" height="2"></rect><rect x="27" y="19" width="2" height="2"></rect><rect x="31" y="43" width="2" height="2"></rect><rect x="35" y="43" width="2" height="2"></rect><rect x="27" y="43" width="2" height="2"></rect><rect x="3" y="36" width="2" height="2"></rect><rect x="3" y="40" width="2" height="2"></rect><rect x="3" y="44" width="2" height="2"></rect><rect x="59" y="36" width="2" height="2"></rect><rect x="59" y="40" width="2" height="2"></rect><rect x="59" y="44" width="2" height="2"></rect><rect x="3" y="26" width="2" height="2"></rect><rect x="3" y="22" width="2" height="2"></rect><rect x="3" y="18" width="2" height="2"></rect><rect x="59" y="26" width="2" height="2"></rect><rect x="59" y="22" width="2" height="2"></rect><rect x="59" y="18" width="2" height="2"></rect></g></svg>