<svg xmlns="http://www.w3.org/2000/svg" viewBox="0 0 64 64" x="0px" y="0px"><g data-name="Student"><path d="M48.305,41.683,39,39.229V36.106A14.029,14.029,0,0,0,45.668,27H46a3.987,3.987,0,0,0,2-7.444V18a16,16,0,0,0-32,0v1.556A3.987,3.987,0,0,0,18,27h.332A14.029,14.029,0,0,0,25,36.106v3.123l-9.3,2.454A12.989,12.989,0,0,0,6,54.25V61a1,1,0,0,0,1,1H57a1,1,0,0,0,1-1V54.25A12.989,12.989,0,0,0,48.305,41.683ZM46,25V21a2,2,0,0,1,0,4ZM18,18a14,14,0,0,1,28,0v.889c-4.725-1.051-8.037-9.173-8.072-9.261a1,1,0,0,0-.809-.621A.95.95,0,0,0,37,9a1,1,0,0,0-.814.419C32.274,14.9,21.593,17.877,18,18.747Zm0,7a2,2,0,0,1,0-4v4Zm2-1V20.308c4.3-1.149,12.45-3.82,16.753-8.435C37.9,14.2,40.438,18.56,44,20.274V24a12,12,0,0,1-24,0Zm7,13.061a13.782,13.782,0,0,0,10,0V39c0,1.626-2.29,3-5,3s-5-1.374-5-3Zm-1.35,4.065C26.75,42.837,29.147,44,32,44s5.25-1.163,6.35-2.874l1.4.368C38.881,44.113,35.735,46,32,46s-6.881-1.887-7.746-4.506ZM56,60H48V51H46v9H18V51H16v9H8V54.25a10.99,10.99,0,0,1,8.2-10.633l6.112-1.612C23.4,45.535,27.266,48,32,48s8.6-2.465,9.683-5.995L47.8,43.617A10.99,10.99,0,0,1,56,54.25Z"></path><path d="M32,27a3,3,0,0,0,3-3V20H33v4a1,1,0,0,1-2,0V20H29v4A3,3,0,0,0,32,27Z"></path><path d="M37.62,20.92A1,1,0,0,0,38,21a.99.99,0,0,0,1-1,1,1,0,0,0-.08-.38,1.032,1.032,0,0,0-.21-.33,1,1,0,0,0-1.09-.21,1.032,1.032,0,0,0-.33.21.933.933,0,0,0-.21.33A1,1,0,0,0,37,20a.96.96,0,0,0,.62.92Z"></path><path d="M26.71,20.71A1.052,1.052,0,0,0,27,20a1,1,0,0,0-.08-.38,1.032,1.032,0,0,0-.21-.33,1.155,1.155,0,0,0-.33-.21,1.017,1.017,0,0,0-1.09.21,1.155,1.155,0,0,0-.21.33A1,1,0,0,0,25,20a.99.99,0,0,0,1,1,1,1,0,0,0,.38-.08A1.155,1.155,0,0,0,26.71,20.71Z"></path><path d="M37.953,29.655l-1.511-1.31A5.988,5.988,0,0,1,32,30a5.988,5.988,0,0,1-4.442-1.655l-1.511,1.31A7.892,7.892,0,0,0,32,32,7.892,7.892,0,0,0,37.953,29.655Z"></path></g></svg>