<svg xmlns="http://www.w3.org/2000/svg" viewBox="0 0 64 64" x="0px" y="0px"><g data-name="File Chart Check List"><polygon points="17.464 43.879 18.878 42.465 21 44.586 21 42 17 42 17 46 19.586 46 17.464 43.879"></polygon><polygon points="17.464 33.879 18.878 32.465 21 34.586 21 32 17 32 17 36 19.586 36 17.464 33.879"></polygon><polygon points="17.464 23.879 18.878 22.465 21 24.586 21 22 17 22 17 26 19.586 26 17.464 23.879"></polygon><polygon points="17.464 53.879 18.878 52.465 21 54.586 21 52 17 52 17 56 19.586 56 17.464 53.879"></polygon><path d="M12,60H52a1,1,0,0,0,1-1V12.846a.99.99,0,0,0-.292-.7L46,5.418V11a1,1,0,0,0,1,1h4v2H47a3,3,0,0,1-3-3V4H12a1,1,0,0,0-1,1V59A1,1,0,0,0,12,60Zm37-3H29V55H49Zm0-4H29V51H49Zm0-6H29V45H49ZM31,41v2H29V41Zm-2-4V35h4v2Zm20,6H33V41H49Zm0-6H35V35H49Zm0-4H29V31H49Zm0-6H29V25H49ZM29,23V21h2v2Zm20-2v2H33V21ZM19,8H39v2H19ZM15,8h2v2H15Zm0,4H39v2H15Zm0,9a1,1,0,0,1,1-1h6a1,1,0,0,1,1,1v1.586l2.95-2.95,1.414,1.414L23,25.414V27a1,1,0,0,1-1,1H16a1,1,0,0,1-1-1Zm0,10a1,1,0,0,1,1-1h6a1,1,0,0,1,1,1v1.586l2.95-2.95,1.414,1.414L23,35.414V37a1,1,0,0,1-1,1H16a1,1,0,0,1-1-1Zm0,10a1,1,0,0,1,1-1h6a1,1,0,0,1,1,1v1.586l2.95-2.95,1.414,1.414L23,45.414V47a1,1,0,0,1-1,1H16a1,1,0,0,1-1-1Zm0,10a1,1,0,0,1,1-1h6a1,1,0,0,1,1,1v1.586l2.95-2.95,1.414,1.414L23,55.414V57a1,1,0,0,1-1,1H16a1,1,0,0,1-1-1Z"></path></g></svg>