<svg xmlns="http://www.w3.org/2000/svg" viewBox="0 0 64 64" x="0px" y="0px"><g data-name="Crane Truck"><polygon points="7 26 5 26 3 26 3 30 7 30 7 26"></polygon><path d="M34,42V33H30.414l-1.707,1.707A1,1,0,0,1,28,35H4v7H6.09a5.993,5.993,0,0,1,11.82,0h2.18a5.993,5.993,0,0,1,11.82,0Z"></path><rect x="4" y="17" width="26" height="2"></rect><path d="M26,39a4,4,0,1,0,4,4A4,4,0,0,0,26,39Zm1,5H25V42h2Z"></path><path d="M12,39a4,4,0,1,0,4,4A4,4,0,0,0,12,39Zm1,5H11V42h2Z"></path><rect x="36" y="38" width="2" height="4"></rect><rect x="56" y="32" width="4" height="2"></rect><path d="M49,39a4,4,0,1,0,4,4A4,4,0,0,0,49,39Zm1,5H48V42h2Z"></path><path d="M56,30h4V28.11c0-.04-.01-.07-.01-.11H43a1,1,0,0,1-1-1V17H40V42h3.09a5.993,5.993,0,0,1,11.82,0H59a1,1,0,0,0,1-1V40H57V38h3V36H56a2.006,2.006,0,0,1-2-2V32A2.006,2.006,0,0,1,56,30ZM46,32H42V30h4Z"></path><path d="M54.687,17.524A1,1,0,0,0,53.808,17H44v9H59.267Z"></path><rect x="32" y="21" width="2" height="10"></rect><rect x="32" y="17" width="2" height="2"></rect><rect x="4" y="21" width="2" height="3"></rect></g></svg>