<svg xmlns="http://www.w3.org/2000/svg" viewBox="0 0 64 64" x="0px" y="0px"><g><path d="M31,11.051V7.025A25.028,25.028,0,0,0,7.025,31h4.026A20.992,20.992,0,0,1,31,11.051Z"></path><path d="M32,35a1,1,0,0,1-.359-.066L26,32.764v4.6A17.2,17.2,0,0,0,32,39a17.163,17.163,0,0,0,6-1.636v-4.6l-5.641,2.17A1,1,0,0,1,32,35Z"></path><polygon points="42.214 29 32 25.071 21.786 29 32 32.929 42.214 29"></polygon><path d="M31,56.975V52.949A20.992,20.992,0,0,1,11.051,33H7.025A25.028,25.028,0,0,0,31,56.975Z"></path><path d="M56.975,33H52.949A20.992,20.992,0,0,1,33,52.949v4.026A25.028,25.028,0,0,0,56.975,33Z"></path><path d="M33,7.025v4.026A20.992,20.992,0,0,1,52.949,31h4.026A25.028,25.028,0,0,0,33,7.025Z"></path><path d="M33,50.949A18.993,18.993,0,0,0,50.949,33H48V31h2.949A18.993,18.993,0,0,0,33,13.051V16H31V13.051A18.993,18.993,0,0,0,13.051,31H16v2H13.051A18.993,18.993,0,0,0,31,50.949V48h2ZM32,41c-3.2,0-7.275-2.02-7.447-2.1A1,1,0,0,1,24,38V32l-4-1.539v3.13l2.707,2.707-1.414,1.414L20,36.414V38H18V36.414l-1.293,1.293-1.414-1.414L18,33.586V29a1,1,0,0,1,.641-.934l13-5a1.009,1.009,0,0,1,.718,0l13,5a1,1,0,0,1,0,1.868L40,32v6a1,1,0,0,1-.553.9C39.275,38.98,35.2,41,32,41Z"></path><path d="M33,2V7.02c-.33-.01-.67-.02-1-.02s-.67.01-1,.02V2Z"></path><path d="M62,31v2H56.98c.01-.33.02-.67.02-1s-.01-.67-.02-1Z"></path><path d="M7,32c0,.33.01.67.02,1H2V31H7.02C7.01,31.33,7,31.67,7,32Z"></path><path d="M33,56.98V62H31V56.98c.33.01.67.02,1,.02S32.67,56.99,33,56.98Z"></path></g></svg>