<svg xmlns="http://www.w3.org/2000/svg" viewBox="0 0 64 64" x="0px" y="0px"><g data-name="Shopping-Smartphone-Application-Online Shopping-Shopping Bag"><path d="M46,2H18a6,6,0,0,0-6,6v7h2V12H50V23h2V8A6,6,0,0,0,46,2Zm4,8H14V8a4,4,0,0,1,4-4H46a4,4,0,0,1,4,4Z"></path><path d="M50,49v3H14V37H12V56a6,6,0,0,0,6,6H46a6,6,0,0,0,6-6V49Zm0,7a4,4,0,0,1-4,4H18a4,4,0,0,1-4-4V54H50Z"></path><rect x="25" y="6" width="2" height="2"></rect><rect x="29" y="6" width="6" height="2"></rect><rect x="31" y="56" width="2" height="2"></rect><path d="M61,28H50V26a1,1,0,0,0-1-1H46V24a7,7,0,0,0-14,0v1H30V20a3.009,3.009,0,0,0-3-3H5a3.009,3.009,0,0,0-3,3V32a3.009,3.009,0,0,0,3,3H27a3,3,0,0,0,1-.18V44a3.009,3.009,0,0,0,3,3H59a3.009,3.009,0,0,0,3-3V29A1,1,0,0,0,61,28ZM28,32a1,1,0,0,1-1,1H5a1,1,0,0,1-1-1V20a1,1,0,0,1,1-1H27a1,1,0,0,1,1,1Zm18-5h2v1H46ZM34,24a5,5,0,0,1,10,0v1H34Zm-4,3h2v3h2V27H44V41H30Zm1,18a1,1,0,0,1-1-1V43H44v1a3,3,0,0,0,.18,1Zm29-1a1,1,0,0,1-1,1H47a1,1,0,0,1-1-1V43H60Zm0-3H46V30H60Z"></path><path d="M53,39a5.006,5.006,0,0,0,5-5V32H56v2a3,3,0,0,1-6,0V32H48v2A5.006,5.006,0,0,0,53,39Z"></path><path d="M14,22a1,1,0,0,0-1-1H7a1,1,0,0,0-1,1v4a1,1,0,0,0,1,1h6a1,1,0,0,0,1-1Zm-2,3H8V23h4Z"></path><path d="M23,25H21a3,3,0,0,0,0,6h2a3,3,0,0,0,0-6Zm0,4H21a1,1,0,0,1,0-2h2a1,1,0,0,1,0,2Z"></path><rect x="24" y="21" width="2" height="2"></rect><rect x="20" y="21" width="2" height="2"></rect><rect x="16" y="21" width="2" height="2"></rect><rect x="6" y="29" width="2" height="2"></rect><rect x="10" y="29" width="2" height="2"></rect><rect x="14" y="29" width="2" height="2"></rect></g></svg>