<svg xmlns="http://www.w3.org/2000/svg" viewBox="0 0 64 64" x="0px" y="0px"><g><path d="M46.68,37.29l-2.55-.79c1.72-.37,3.23-.75,4.39-1.05a3,3,0,0,0,2.21-3.35L48.11,14.66A1.99,1.99,0,0,0,49,13V11a2.006,2.006,0,0,0-2-2H42.78A9.017,9.017,0,0,0,34,2H30a9.017,9.017,0,0,0-8.78,7H17a2.006,2.006,0,0,0-2,2v2a1.99,1.99,0,0,0,.89,1.66L13.27,32.1a3,3,0,0,0,2.21,3.35c1.16.3,2.67.68,4.39,1.05l-2.55.79A8.959,8.959,0,0,0,11,45.88V61a1,1,0,0,0,1,1H52a1,1,0,0,0,1-1V45.88A8.959,8.959,0,0,0,46.68,37.29Zm2.07-4.89a1,1,0,0,1-.74,1.11c-1.59.42-4.57,1.16-7.93,1.72L37,34.26V30.78a11.166,11.166,0,0,0,2.78-2,10.914,10.914,0,0,0,1.26-1.52,10.65,10.65,0,0,0,1.75-4.11c.07-.39.13-.77.16-1.15H43a4,4,0,0,0,2.83-1.17,4.168,4.168,0,0,0,.95-1.57ZM29.89,25.01l-5.6.62a8.825,8.825,0,0,1-.87-1.9l6.82-1.36a9.065,9.065,0,0,1,3.52,0l6.82,1.36a8.825,8.825,0,0,1-.87,1.9l-5.6-.62-.22,1.98,4.35.49a8.98,8.98,0,0,1-9.84,1.76,8.779,8.779,0,0,1-2.62-1.77l4.33-.48Zm-6.85-3.24c-.02-.26-.04-.52-.04-.77V15H41v6c0,.25-.02.51-.04.77l-6.8-1.36a11.021,11.021,0,0,0-4.32,0ZM35,31.57V35a2.85,2.85,0,0,1-.15.88c-.96.07-1.92.12-2.85.12s-1.89-.05-2.85-.12A2.85,2.85,0,0,1,29,35V31.57a10.68,10.68,0,0,0,6,0ZM32,40a4.974,4.974,0,0,0,4.15-2.22c.8-.08,1.6-.18,2.39-.29a7,7,0,0,1-13.08,0c.79.11,1.59.21,2.39.29A4.974,4.974,0,0,0,32,40ZM43,20V16a2.006,2.006,0,0,1,2,2,2.015,2.015,0,0,1-2,2Zm2.62-5h.52l.1.67A3.944,3.944,0,0,0,45.62,15ZM30,4h4a7.005,7.005,0,0,1,6.71,5H23.29A7.005,7.005,0,0,1,30,4ZM17,11H47v2H17Zm4,5v4a2.015,2.015,0,0,1-2-2A2.006,2.006,0,0,1,21,16Zm-2.62-1a3.944,3.944,0,0,0-.62.67l.1-.67ZM15.99,33.51a1,1,0,0,1-.74-1.11l1.97-13.14a4.168,4.168,0,0,0,.95,1.57A4,4,0,0,0,21,22h.05a11.35,11.35,0,0,0,.16,1.15,10.65,10.65,0,0,0,1.75,4.11A10.85,10.85,0,0,0,27,30.77v3.49l-3.08.97C20.56,34.67,17.58,33.93,15.99,33.51ZM19,60H13V56h6Zm0-6H13V52h6Zm32,6H45V56h6Zm0-6H45V52h6Zm0-4H45V46H43V60H21V46H19v4H13V45.88a6.964,6.964,0,0,1,4.91-6.68l5.45-1.7a8.992,8.992,0,0,0,17.28,0l5.45,1.7A6.964,6.964,0,0,1,51,45.88Z"></path><circle cx="27" cy="18" r="2"></circle><circle cx="37" cy="18" r="2"></circle></g></svg>