<svg xmlns="http://www.w3.org/2000/svg" viewBox="0 0 64 64" x="0px" y="0px"><g data-name="Manufacturing-Communicate-App-Smartphone-Internet of Things"><rect x="13" y="48" width="2" height="2"></rect><path d="M10.464,35.465l1.414,1.414a3,3,0,0,1,4.244,0l1.414-1.414A5.008,5.008,0,0,0,10.464,35.465Z"></path><path d="M7.636,32.636,9.05,34.05a7.009,7.009,0,0,1,9.9,0l1.414-1.414A9.009,9.009,0,0,0,7.636,32.636Z"></path><path d="M12.586,38.586,14,40l1.414-1.414A2,2,0,0,0,12.586,38.586Z"></path><path d="M31,50a2.934,2.934,0,0,0-1.47.39A3,3,0,0,0,27,49a2.839,2.839,0,0,0-1.01.2c0-.07.01-.13.01-.2V23a5,5,0,0,0-5-5H7a5,5,0,0,0-5,5V49a5,5,0,0,0,5,5h3.31a3.068,3.068,0,0,0,.36,1.04l4.5,7.79,1.73-1-4.5-7.79a1.01,1.01,0,0,1,.37-1.37.988.988,0,0,1,1.36.37l2,3.46A1,1,0,0,0,18,56V43a1,1,0,0,1,2,0V54a1,1,0,0,0,2,0V51a1,1,0,0,1,2,0v3a1,1,0,0,0,2,0V52a1,1,0,0,1,2,0v2a1,1,0,0,0,2,0V53a1,1,0,0,1,2,0v9h2V53A3.009,3.009,0,0,0,31,50ZM16,52h-.16a3,3,0,0,0-4.07-1.06A2.911,2.911,0,0,0,10.71,52H7a3.009,3.009,0,0,1-3-3V46H16Zm8-3.81A3.06,3.06,0,0,0,23,48a3,3,0,0,0-1,.17V46h2ZM24,44H22V43a3,3,0,0,0-6,0v1H4V26H24Zm0-20H4V23a3.009,3.009,0,0,1,3-3H21a3.009,3.009,0,0,1,3,3Z"></path><rect x="43" y="31" width="4" height="2"></rect><rect x="43" y="35" width="4" height="2"></rect><rect x="53" y="35" width="4" height="2"></rect><path d="M37.8,5.6a18.311,18.311,0,0,0,2.108-3.294L38.1,1.46A16.488,16.488,0,0,1,36.2,4.4,12.843,12.843,0,0,0,33,13h2C35,9.333,36.36,7.52,37.8,5.6Z"></path><path d="M40,13c0-3.667,1.36-5.48,2.8-7.4a18.311,18.311,0,0,0,2.108-3.294L43.1,1.46A16.488,16.488,0,0,1,41.2,4.4,12.843,12.843,0,0,0,38,13Z"></path><path d="M61,41V32a1,1,0,0,0-1-1H51V28a1,1,0,0,0-1-1H42.32l-.28-6.2A2.992,2.992,0,0,0,41,15H31a2.992,2.992,0,0,0-1.04,5.8L29.04,41H27v2H62V41ZM31.05,41l.91-20h8.08l.91,20ZM41,19H31a1,1,0,0,1,0-2H41a1,1,0,0,1,0,2Zm8,22H42.96l-.55-12H49Zm10,0H51V33h8Z"></path><path d="M58.122,23.879l1.414-1.414a5.008,5.008,0,0,0-7.072,0l1.414,1.414A3,3,0,0,1,58.122,23.879Z"></path><path d="M54.586,25.586,56,27l1.414-1.414A2,2,0,0,0,54.586,25.586Z"></path><path d="M45.878,13.879a3,3,0,0,1,4.244,0l1.414-1.414a5.008,5.008,0,0,0-7.072,0Z"></path><path d="M46.586,15.586,48,17l1.414-1.414A2,2,0,0,0,46.586,15.586Z"></path></g></svg>