<svg xmlns="http://www.w3.org/2000/svg" viewBox="0 0 64 64" x="0px" y="0px"><g><path d="M34,60h9.83A3.014,3.014,0,0,0,41,58H34Z"></path><path d="M20,22a3,3,0,0,0,3-3,2.951,2.951,0,0,0-.3-1.285l-2.992,2.992-1.414-1.414L21.285,16.3A2.951,2.951,0,0,0,20,16a3,3,0,0,0,0,6Z"></path><path d="M41,38H34V56h7a4.924,4.924,0,0,1,3,1.03V41A3.009,3.009,0,0,0,41,38Zm1,16H36V52h6Zm0-4H36V48h6Zm0-4H36V44h6Zm0-4H36V40h6Z"></path><path d="M19.707,32.707l-1.414-1.414L21.285,28.3A2.951,2.951,0,0,0,20,28a3,3,0,1,0,3,3,2.951,2.951,0,0,0-.3-1.285Z"></path><rect x="58" y="42" width="2" height="18"></rect><path d="M19.63,42.71a1.98,1.98,0,0,0,.2-1.52,1.938,1.938,0,0,0-.93-1.22,2,2,0,0,0-2.73.74L11.39,49H9V31.38L4.83,40.43A9.038,9.038,0,0,0,4,44.19V60H18V57.65a4.987,4.987,0,0,0-.72-2.57l-2.14-3.56a1.031,1.031,0,0,1-.01-1.02ZM24,46a1,1,0,0,0,0,2h4V46ZM36,4H16a5,5,0,0,0-5,5V45.67l3.44-5.96a4,4,0,1,1,6.93,4l-4.21,7.28L17.77,52H28V50H24a3,3,0,0,1,0-6h4V41a1,1,0,0,1,1-1h3V37a1,1,0,0,1,1-1h8V9A5,5,0,0,0,36,4ZM18,6h2V8H18Zm7,25a5.013,5.013,0,1,1-2.25-4.17l1.54-1.54,1.42,1.42-1.54,1.54A4.979,4.979,0,0,1,25,31Zm-.83-14.75a5.013,5.013,0,1,1-1.42-1.42l1.54-1.54,1.42,1.42ZM22,8V6h8V8ZM37,34H29V32h8Zm0-4H29V28h8Zm0-8H29V20h8Zm0-4H29V16h8Z"></path><rect x="30" y="42" width="2" height="18"></rect><path d="M49,38a3.009,3.009,0,0,0-3,3V57.03A4.924,4.924,0,0,1,49,56h7V38Zm5,16H48V52h6Zm0-4H48V48h6Zm0-4H48V44h6Zm0-4H48V40h6Z"></path><path d="M49,58a3.014,3.014,0,0,0-2.83,2H56V58Z"></path><rect x="49" y="32" width="2" height="2"></rect><rect x="49" y="28" width="2" height="2"></rect><rect x="49" y="24" width="2" height="2"></rect><rect x="49" y="20" width="2" height="2"></rect><rect x="53" y="28" width="2" height="2"></rect><rect x="53" y="24" width="2" height="2"></rect><rect x="53" y="20" width="2" height="2"></rect><rect x="53" y="32" width="2" height="2"></rect><rect x="53" y="16" width="2" height="2"></rect><rect x="49" y="16" width="2" height="2"></rect><rect x="45" y="16" width="2" height="2"></rect><rect x="45" y="20" width="2" height="2"></rect></g></svg>