<svg xmlns="http://www.w3.org/2000/svg" viewBox="0 0 64 64" x="0px" y="0px"><g><path d="M28,38H12a2,2,0,0,0-2,2V56a2,2,0,0,0,2,2H28a2,2,0,0,0,2-2V40A2,2,0,0,0,28,38Zm0,6H24V40h4ZM18,50V46h4v4Zm4,2v4H18V52Zm-6-2H12V46h4Zm2-6V40h4v4Zm6,2h4v4H24Zm-8-6v4H12V40ZM12,52h4v4H12Zm12,4V52h4v4Z"></path><path d="M28,26H12a2,2,0,0,0-2,2v6a2,2,0,0,0,2,2H28a2,2,0,0,0,2-2V28A2,2,0,0,0,28,26Zm0,8H12V28H28Z"></path><rect x="23" y="30" width="2" height="2"></rect><rect x="19" y="30" width="2" height="2"></rect><rect x="15" y="30" width="2" height="2"></rect><path d="M58.86,24.06l-6.29-2.51L52,20.7v-.96A7.073,7.073,0,0,0,54.71,16H55a3,3,0,0,0,0-6,2.974,2.974,0,0,0-.78-2A2.974,2.974,0,0,0,55,6V3a1,1,0,0,0-1-1H45a4,4,0,0,0-4,4v4a3,3,0,0,0,0,6h.29A7.073,7.073,0,0,0,44,19.74v.96l-.57.85-6.29,2.51A5,5,0,0,0,34,28.71V25a3,3,0,0,0-.18-1H36a2.006,2.006,0,0,0,2-2V4a2.006,2.006,0,0,0-2-2H4A2.006,2.006,0,0,0,2,4V22a2.006,2.006,0,0,0,2,2H6.18A3,3,0,0,0,6,25V59a3.009,3.009,0,0,0,3,3H31a3.009,3.009,0,0,0,3-3V36a6.007,6.007,0,0,0,5,5.91V61a1,1,0,0,0,1,1H56a1,1,0,0,0,1-1V41.91A6.007,6.007,0,0,0,62,36V28.71A5,5,0,0,0,58.86,24.06ZM55,12a1,1,0,0,1,0,2ZM41,14a1,1,0,0,1,0-2ZM28,4h8V6H28Zm0,4h8v2H28Zm0,4h8v2H28Zm0,4h8v2H28ZM14,4H26V22H14ZM4,4h8V6H4ZM4,8h8v2H4Zm0,4h8v2H4Zm0,4h8v2H4Zm0,6V20h8v2ZM32,59a1,1,0,0,1-1,1H9a1,1,0,0,1-1-1V25a1,1,0,0,1,1-1H31a1,1,0,0,1,1,1ZM28,22V20h8v2ZM43,6a2.006,2.006,0,0,1,2-2h8V6a1,1,0,0,1-1,1H44a3,3,0,0,0-1,.18Zm0,8V10a1,1,0,0,1,1-1h8a1,1,0,0,1,1,1v4a5,5,0,0,1-10,0Zm3,6.72v-.01a7.042,7.042,0,0,0,4,0v.01l-2,3.34Zm.59,4.87-1.92.96-.59-2.36.88-1.32Zm4.45-2.72.88,1.32-.59,2.36-1.92-.96ZM55,60H49V48H47V60H41V45a1,1,0,0,0,1,1H54a1,1,0,0,0,1-1ZM44,42a3,3,0,0,0,0-6H43V31H53v5H52a3,3,0,0,0,0,6h1v2H43V42Zm-1-2V38h1a1,1,0,0,1,0,2Zm10-2v2H52a1,1,0,0,1,0-2Zm7-2a4,4,0,0,1-4,4H55V38a3.009,3.009,0,0,0,3-3V30H56v5a1,1,0,0,1-1,1V30a1,1,0,0,0-1-1H42a1,1,0,0,0-1,1v6a1,1,0,0,1-1-1V30H38v5a3.009,3.009,0,0,0,3,3v2H40a4,4,0,0,1-4-4V28.71a3,3,0,0,1,1.88-2.79l4.15-1.66,1,3.98a1,1,0,0,0,.55.67,1,1,0,0,0,.87-.02L48,27.12l3.55,1.77a1,1,0,0,0,.87.02,1,1,0,0,0,.55-.67l1-3.98,4.15,1.66A3,3,0,0,1,60,28.71Z"></path><path d="M50.5,16.33l-1-1.73a3.057,3.057,0,0,1-3,0l-1,1.73a5.007,5.007,0,0,0,5,0Z"></path><path d="M21,16H19a1,1,0,0,1-1-1H16a3,3,0,0,0,3,3v1h2V18a3,3,0,0,0,0-6H19a1,1,0,0,1,0-2h2a1,1,0,0,1,1,1h2a3,3,0,0,0-3-3V7H19V8a3,3,0,0,0,0,6h2a1,1,0,0,1,0,2Z"></path></g></svg>