<svg xmlns="http://www.w3.org/2000/svg" viewBox="0 0 64 64" x="0px" y="0px"><g><path d="M57.713,45.6l-5.638-2.052a1,1,0,0,0-1.281.6l-.342.939-6.531-2.377a.97.97,0,0,0-.514-.045l-13.592,2.4a4.007,4.007,0,0,0-2.861,2.114L20.72,44.9a3.969,3.969,0,0,0-3.058.135,4.014,4.014,0,0,0-2.269,3.041,4.088,4.088,0,0,0,2.729,4.391l20.535,7.474a.983.983,0,0,0,.342.061,1,1,0,0,0,.32-.053l5.734-1.936.61.222-.342.94a1,1,0,0,0,.6,1.281l5.639,2.052a.978.978,0,0,0,.341.061.992.992,0,0,0,.423-.094,1,1,0,0,0,.517-.564l5.472-15.036A1,1,0,0,0,57.713,45.6ZM45.407,56.016a1,1,0,0,0-.662-.007l-5.733,1.936L18.806,50.59a2.114,2.114,0,0,1-1.437-2.208,2,2,0,0,1,1.139-1.532,1.978,1.978,0,0,1,1.528-.068l6.491,2.362a4.339,4.339,0,0,0,.042.55A4.018,4.018,0,0,0,31.2,52.939l11.258-1.985-.348-1.97L30.857,50.969a2,2,0,0,1-2.317-1.613,2.112,2.112,0,0,1,.021-.791,1.26,1.26,0,0,1,.069-.251,2.008,2.008,0,0,1,1.533-1.288l13.325-2.35,6.28,2.285-3.42,9.4Zm5.9,4.274-3.76-1.368,4.789-13.156,3.759,1.368Z"></path><rect x="31" y="29" width="2" height="2"></rect><rect x="35" y="29" width="2" height="2"></rect><rect x="27" y="29" width="2" height="2"></rect><rect x="31" y="25" width="2" height="2"></rect><rect x="35" y="25" width="2" height="2"></rect><rect x="27" y="25" width="2" height="2"></rect><rect x="31" y="21" width="2" height="2"></rect><rect x="35" y="21" width="2" height="2"></rect><rect x="27" y="21" width="2" height="2"></rect><rect x="31" y="17" width="2" height="2"></rect><rect x="35" y="17" width="2" height="2"></rect><rect x="27" y="17" width="2" height="2"></rect><rect x="31" y="13" width="2" height="2"></rect><rect x="35" y="13" width="2" height="2"></rect><rect x="27" y="13" width="2" height="2"></rect><rect x="43" y="22" width="4" height="2"></rect><rect x="43" y="26" width="4" height="2"></rect><rect x="43" y="30" width="4" height="2"></rect><rect x="43" y="34" width="4" height="2"></rect><rect x="17" y="26" width="4" height="2"></rect><rect x="17" y="30" width="4" height="2"></rect><rect x="17" y="34" width="4" height="2"></rect><path d="M55,41V39H51V19a1,1,0,0,0-1-1H41V10a1,1,0,0,0-1-1H38V6a1,1,0,0,0-1-1H33V2H31V5H27a1,1,0,0,0-1,1V9H24a1,1,0,0,0-1,1V22H14a1,1,0,0,0-1,1V39H9v2ZM30,39V35h4v4ZM49,20V39H41V20ZM28,7h8V9H28Zm-3,4H39V39H36V34a1,1,0,0,0-1-1H29a1,1,0,0,0-1,1v5H25ZM15,24h8V39H15Z"></path></g></svg>