<svg xmlns="http://www.w3.org/2000/svg" viewBox="0 0 64 64" x="0px" y="0px"><g data-name="Trash Can-Trash-Garbage-Bin-Recycle"><rect x="25" y="52" width="14" height="2"></rect><path d="M39,49a3.009,3.009,0,0,0-3-3H28a3.009,3.009,0,0,0-3,3v1H39Z"></path><path d="M13.04,14l1.88,45.04a1,1,0,0,0,1,.96H23V49a5,5,0,0,1,5-5h8a5,5,0,0,1,5,5V60h7.08a1,1,0,0,0,1-.96L50.96,14ZM29,36v2H22a1,1,0,0,1-.874-1.485l3.855-6.939L23.4,30l-.518-1.932,3.864-1.035a1,1,0,0,1,1.225.707L29,31.6l-1.932.518-.395-1.476L23.7,36ZM27.792,24.515l3.334-6a1.04,1.04,0,0,1,1.748,0l3.8,6.839.4-1.476L39,24.4l-1.035,3.863A1,1,0,0,1,37,29a1.015,1.015,0,0,1-.26-.034l-3.863-1.035L33.4,26l1.584.425L32,21.06l-2.459,4.425Zm15.07,12.992A1,1,0,0,1,42,38H34.414l1.293,1.293-1.414,1.414-3-3a1,1,0,0,1,0-1.414l3-3,1.414,1.414L34.414,36H40.3l-2.508-4.515,1.748-.97,3.333,6A1,1,0,0,1,42.862,37.507Z"></path><path d="M12,8H52V7a3.009,3.009,0,0,0-3-3H15a3.009,3.009,0,0,0-3,3Z"></path><path d="M55,11a1,1,0,0,0-1-1H10a1,1,0,0,0,0,2H54A1,1,0,0,0,55,11Z"></path><rect x="25" y="56" width="14" height="4"></rect></g></svg>