<svg xmlns="http://www.w3.org/2000/svg" viewBox="0 0 64 64" x="0px" y="0px"><g><path d="M61,38H51.883l-.891-7.124A1,1,0,0,0,50,30H42V27a1,1,0,0,0-1-1H39v2h1V42H38V23a1,1,0,0,0-1-1H3a1,1,0,0,0-1,1V49a1,1,0,0,0,1,1H5.114A4.874,4.874,0,0,0,5,51a5,5,0,0,0,10,0,4.943,4.943,0,0,0-.113-1h1.227A4.874,4.874,0,0,0,16,51a5,5,0,0,0,10,0,4.943,4.943,0,0,0-.113-1H47.114A4.874,4.874,0,0,0,47,51a5,5,0,0,0,10,0,4.943,4.943,0,0,0-.113-1H61a1,1,0,0,0,1-1V39A1,1,0,0,0,61,38ZM49.117,32l.75,6H46V32ZM4,40H36v2H4ZM4,24H36V38H4ZM4,44H40v4H25l-.022-.026c-.038-.049-.08-.093-.12-.141-.092-.113-.186-.224-.288-.328-.054-.055-.112-.105-.168-.157-.1-.088-.19-.174-.291-.255-.065-.051-.131-.1-.2-.146-.1-.073-.2-.142-.308-.206-.072-.044-.144-.085-.218-.126-.108-.058-.218-.112-.33-.163-.076-.035-.152-.069-.23-.1-.117-.047-.237-.086-.359-.123-.076-.024-.151-.05-.228-.069-.134-.035-.271-.06-.409-.083-.067-.011-.133-.027-.2-.036a4.686,4.686,0,0,0-1.252,0c-.069.009-.135.025-.2.036-.138.023-.275.048-.409.083-.077.019-.152.045-.228.069-.122.037-.242.076-.36.123-.077.03-.153.064-.229.1-.112.051-.221.1-.329.163q-.111.06-.219.126c-.105.064-.206.133-.306.2-.068.048-.135.1-.2.148-.1.079-.193.164-.286.251-.058.053-.118.105-.173.162-.1.1-.192.21-.283.321-.041.049-.085.095-.124.147-.007.009-.015.016-.022.025H14l-.022-.026c-.038-.049-.08-.093-.12-.141-.092-.113-.186-.224-.288-.328-.054-.055-.112-.105-.168-.157-.095-.088-.19-.174-.291-.255-.065-.051-.131-.1-.2-.146-.1-.073-.2-.142-.308-.206-.072-.044-.144-.085-.218-.126-.108-.058-.218-.112-.33-.163-.076-.035-.152-.069-.23-.1-.117-.047-.237-.086-.359-.123-.076-.024-.151-.05-.228-.069-.134-.035-.271-.06-.409-.083-.067-.011-.133-.027-.2-.036a4.686,4.686,0,0,0-1.252,0c-.069.009-.135.025-.2.036-.138.023-.275.048-.409.083-.077.019-.152.045-.228.069-.122.037-.242.076-.36.123-.077.03-.153.064-.229.1-.112.051-.221.1-.329.163q-.111.06-.219.126c-.1.064-.206.133-.306.2-.068.048-.135.1-.2.148-.1.079-.193.164-.286.251-.058.053-.118.105-.173.162-.1.1-.192.21-.283.321-.041.049-.085.095-.124.147-.007.009-.015.016-.022.025H4Zm6,10a2.994,2.994,0,1,1,3-3A3,3,0,0,1,10,54Zm11,0a2.994,2.994,0,1,1,3-3A3,3,0,0,1,21,54Zm31,0a2.994,2.994,0,1,1,3-3A3,3,0,0,1,52,54Zm4-6-.022-.026c-.038-.049-.08-.093-.12-.141-.092-.113-.186-.224-.288-.328-.054-.055-.112-.105-.168-.157-.095-.088-.19-.174-.291-.255-.065-.051-.131-.1-.2-.146-.1-.073-.2-.142-.308-.206-.072-.044-.144-.085-.218-.126-.108-.058-.218-.112-.33-.163-.076-.035-.152-.069-.23-.1-.117-.047-.237-.086-.359-.123-.076-.024-.151-.05-.228-.069-.134-.035-.271-.06-.409-.083-.067-.011-.133-.027-.2-.036a4.686,4.686,0,0,0-1.252,0c-.069.009-.135.025-.2.036-.138.023-.275.048-.409.083-.077.019-.152.045-.228.069-.122.037-.242.076-.36.123-.077.03-.153.064-.229.1-.112.051-.221.1-.329.163q-.111.06-.219.126c-.105.064-.206.133-.306.2-.068.048-.135.1-.2.148-.1.079-.193.164-.286.251-.058.053-.118.105-.173.162-.1.1-.192.21-.283.321-.041.049-.085.095-.124.147-.007.009-.015.016-.022.025H42V32h2v7a1,1,0,0,0,1,1H60v2H58v2h2v4Z"></path><rect x="44" y="41" width="4" height="2"></rect><path d="M52.71,50.29a1.037,1.037,0,0,0-1.09-.21,1.155,1.155,0,0,0-.33.21,1.032,1.032,0,0,0-.21.33,1,1,0,1,0,1.84,0A1.032,1.032,0,0,0,52.71,50.29Z"></path><path d="M21.71,50.29a1.041,1.041,0,0,0-1.09-.21,1.155,1.155,0,0,0-.33.21,1.032,1.032,0,0,0-.21.33,1,1,0,1,0,1.84,0A1.032,1.032,0,0,0,21.71,50.29Z"></path><path d="M10.71,50.29a1.032,1.032,0,0,0-.33-.21,1.021,1.021,0,0,0-1.09.21,1.032,1.032,0,0,0-.21.33A1,1,0,1,0,11,51a.838.838,0,0,0-.08-.38A1.155,1.155,0,0,0,10.71,50.29Z"></path></g></svg>