<svg xmlns="http://www.w3.org/2000/svg" viewBox="0 0 64 64" x="0px" y="0px"><g><path d="M17.35,46H14V57H40.113a3.022,3.022,0,0,0,1.269-.281l17.325-8.075A3.017,3.017,0,0,0,60.43,45.92a3.064,3.064,0,0,0-.281-1.276,2.986,2.986,0,0,0-3.973-1.439L42.585,49.533a5.04,5.04,0,0,1-2.11.467H29V48h9a3,3,0,1,0,0-6H23a4.978,4.978,0,0,0-4.706,3.329A1,1,0,0,1,17.35,46Z"></path><rect x="4" y="42" width="8" height="18"></rect><path d="M40,5.64a4.194,4.194,0,0,1-2.537-.8,2.457,2.457,0,0,0-2.923,0A4.208,4.208,0,0,1,32,5.64a3.81,3.81,0,0,1-2.635-1.046c-.134-.11-.251-.206-.368-.288V11a1,1,0,0,0,1,1h2.78l-.76-3.8L33.98,7.8l.84,4.2h2.36l.84-4.2,1.96.392L39.22,12H42a1,1,0,0,0,1-1V4.308c-.115.081-.231.177-.363.285A3.8,3.8,0,0,1,40,5.64Z"></path><path d="M47,23a5.006,5.006,0,0,0-5-5H30a5.006,5.006,0,0,0-5,5V33a3,3,0,0,0,3,3H44a3,3,0,0,0,3-3ZM35,26h2a3,3,0,0,1,0,6v1H35V32a3,3,0,0,1-3-3h2a1,1,0,0,0,1,1h2a1,1,0,0,0,0-2H35a3,3,0,0,1,0-6V21h2v1a3,3,0,0,1,3,3H38a1,1,0,0,0-1-1H35a1,1,0,0,0,0,2Z"></path><rect x="32" y="14" width="8" height="2"></rect></g></svg>