<svg xmlns="http://www.w3.org/2000/svg" viewBox="0 0 64 64" x="0px" y="0px"><g><path d="M59,50H5a3.009,3.009,0,0,0-3,3v8a1,1,0,0,0,1,1H61a1,1,0,0,0,1-1V53A3.009,3.009,0,0,0,59,50Zm1,10H57V58H55v2H51V58H49v2H45V58H43v2H39V58H37v2H33V56H31v4H27V58H25v2H21V58H19v2H15V58H13v2H9V58H7v2H4V53a1,1,0,0,1,1-1H59a1,1,0,0,1,1,1Z"></path><path d="M7,40H41a1,1,0,0,0,1-1V3a1,1,0,0,0-1-1H7A5,5,0,0,0,2,7V43a5,5,0,0,0,5,5H42V46H7a3,3,0,0,1,0-6ZM4,7A3.009,3.009,0,0,1,7,4H40V38H7a4.985,4.985,0,0,0-3,1Z"></path><rect x="8" y="42" width="33" height="2"></rect><path d="M35,7H11a1,1,0,0,0-1,1v8a1,1,0,0,0,1,1H35a1,1,0,0,0,1-1V8A1,1,0,0,0,35,7Zm-1,8H12V9H34Z"></path><rect x="15" y="23" width="16" height="2"></rect><rect x="13" y="27" width="20" height="2"></rect><path d="M56,6V3a1,1,0,0,0-1-1H51a1,1,0,0,0-1,1V6a2.006,2.006,0,0,0-2,2V39a.984.984,0,0,0,.2.6l3,4a1.014,1.014,0,0,0,.8.4v3a1,1,0,0,0,2,0V44a1.014,1.014,0,0,0,.8-.4l3-4A.984.984,0,0,0,58,39V8A2.006,2.006,0,0,0,56,6ZM52,4h2V6H52Zm1.5,38h-1L51,40h4ZM56,38H50V12h2v7h2V12h2Zm0-28H50V8h6Z"></path></g></svg>