<svg xmlns="http://www.w3.org/2000/svg" viewBox="0 0 64 64" x="0px" y="0px"><g data-name="Hand shake"><path d="M35.568,42.124l1.423-1.389a1.992,1.992,0,0,1,1.418-.588h0a1.99,1.99,0,0,1,1.418.586l.7.694,1.408-1.4a2,2,0,0,1,1.42-.587h0a1.99,1.99,0,0,1,1.417.586l.7.693,1.41-1.394L36.585,29H34.074l-2.617,2.607a2.867,2.867,0,0,1-2.121.865,1.053,1.053,0,0,1-.367-.025,2.952,2.952,0,0,1-2.6-2.614,1.714,1.714,0,0,1-.03-.353,2.979,2.979,0,0,1,.884-2.118L29.586,25H17V35h5.37a1,1,0,0,1,.707.293l7.56,7.56a1.016,1.016,0,0,0,1.406,0l.71-.71A2.047,2.047,0,0,1,35.568,42.124Z"></path><path d="M53,35V25H49V35Zm-3-9h2v2H50Z"></path><path d="M28.357,29.6a.936.936,0,0,0,.281.59.9.9,0,0,0,.579.269l.073.008s.038,0,.057,0a.91.91,0,0,0,.7-.28l2.91-2.9A1,1,0,0,1,33.66,27H37a1,1,0,0,1,.707.293L45.414,35H47V25H32.414l-3.777,3.777a.993.993,0,0,0-.3.694A.993.993,0,0,1,28.357,29.6Z"></path><rect x="4" y="21" width="5" height="18"></rect><path d="M15,35V25H11V35Zm-3-9h2v2H12Z"></path><rect x="55" y="21" width="5" height="18"></rect><rect x="21.828" y="39.829" width="2" height="8" transform="translate(-24.305 28.977) rotate(-44.998)"></rect><rect x="20.414" y="41.657" width="2" height="10" transform="translate(-26.719 28.806) rotate(-44.998)"></rect><rect x="34" y="18" width="8" height="2"></rect><rect x="34" y="15" width="10" height="2"></rect></g></svg>