<svg xmlns="http://www.w3.org/2000/svg" viewBox="0 0 64 64" x="0px" y="0px"><title>Rocotic Arm-Robotics-Artificial Intelligence-Technology</title><g><rect x="55.928" y="20.66" width="2" height="2" transform="translate(9.709 60.135) rotate(-60.005)"></rect><rect x="49.428" y="26.722" width="8" height="2" transform="translate(2.709 60.136) rotate(-60.005)"></rect><path d="M37.5,39.311a5,5,0,1,0-1.83-6.83A5.005,5.005,0,0,0,37.5,39.311Zm-.1-5.83a3,3,0,0,1,5.2,3h0a3,3,0,0,1-5.2-3Z"></path><path d="M39.5,35.847a1,1,0,0,0,1-1.732.988.988,0,0,0-.5-.134,1,1,0,0,0-.5,1.866Z"></path><path d="M36.5,41.043A6.981,6.981,0,0,1,35,39.871V46H45V39.87a6.993,6.993,0,0,1-8.5,1.173Z"></path><path d="M48.685,12a6.912,6.912,0,0,1,0-6H18.315a6.912,6.912,0,0,1,0,6Z"></path><polygon points="50.382 54 47.382 48 32.618 48 29.618 54 50.382 54"></polygon><path d="M54.435,15.971A6.974,6.974,0,0,1,50.111,14H48.647L40.541,28.011a6.906,6.906,0,0,1,5.215,3Z"></path><path d="M12,14A5,5,0,1,0,7,9,5.006,5.006,0,0,0,12,14Zm0-8A3,3,0,1,1,9,9,3,3,0,0,1,12,6Z"></path><polygon points="5.618 52 18.382 52 19.382 50 4.618 50 5.618 52"></polygon><path d="M20,41.535,17.7,40H6.3L4,41.535V48H6.09a5.993,5.993,0,0,1,11.82,0H20Z"></path><circle cx="12" cy="9" r="1"></circle><path d="M12,45a4,4,0,0,0-3.858,3h7.716A4,4,0,0,0,12,45Z"></path><rect x="7" y="20" width="10" height="2"></rect><rect x="29" y="56" width="22" height="4"></rect><circle cx="55" cy="9" r="1"></circle><path d="M14.913,15.357a6.92,6.92,0,0,1-5.826,0A2.991,2.991,0,0,0,9,16v2h6V16A2.991,2.991,0,0,0,14.913,15.357Z"></path><rect x="10" y="37" width="4" height="1"></rect><path d="M60,9a5,5,0,1,0-5,5A5.006,5.006,0,0,0,60,9Zm-5,3a3,3,0,1,1,3-3A3,3,0,0,1,55,12Z"></path><path d="M17,38a1,1,0,0,0,1-1V31a1,1,0,0,0-1-1H7a1,1,0,0,0-1,1v6a1,1,0,0,0,1,1H8V36a1,1,0,0,1,1-1h6a1,1,0,0,1,1,1v2Zm-7-4H8V32h2Zm4,0V32h2v2Z"></path><path d="M9.293,29.707l-2-2A1,1,0,0,1,7,27V24H9v2.586l1.707,1.707Z"></path><path d="M14.707,29.707l-1.414-1.414L15,26.586V24h2v3a1,1,0,0,1-.293.707Z"></path><path d="M29,34H27a1,1,0,0,1-2,0H23a3,3,0,0,0,2,2.816V37a3,3,0,0,1-3,3v2a5.006,5.006,0,0,0,5-5v-.184A3,3,0,0,0,29,34Z"></path></g></svg>