<svg xmlns="http://www.w3.org/2000/svg" viewBox="0 0 64 64" x="0px" y="0px"><g><path d="M33.385,46.582A11.06,11.06,0,0,0,35.526,45H33.78Z"></path><path d="M24.827,40.759l-1.614-4.035L20,35.118l-2.98,1.49c0,.131-.02.26-.02.392a10.93,10.93,0,0,0,1.755,5.939l3.837.055Z"></path><path d="M45,49V43H42V41h3V35H42V33h3V27H41V25h4V19H39v5H37V19H30v4H28V19H22v5H20V19H14V49h7a1,1,0,0,1,1,1v7h6V52h2v5h7V51H35V49ZM28,50A13,13,0,1,1,41,37,13.015,13.015,0,0,1,28,50Z"></path><rect x="6" y="27" width="6" height="6"></rect><path d="M26.414,42l-2.307,2.307.811,3.246a10.848,10.848,0,0,0,6.164,0l.811-3.246L29.586,42Z"></path><rect x="6" y="35" width="6" height="6"></rect><rect x="39" y="51" width="6" height="6"></rect><rect x="14" y="51" width="6" height="6"></rect><path d="M20.433,44.964a11.113,11.113,0,0,0,2.182,1.618l-.4-1.593Z"></path><path d="M31.173,40.759,33.414,43h3.794a10.934,10.934,0,0,0,1.768-5.519L35.938,35.2,32.593,37.21Z"></path><path d="M18.5,31.482a10.9,10.9,0,0,0-1.122,2.712l1.5-.75Z"></path><path d="M29,32.5l3.358,2.519L35.1,33.373l.772-4.038A11.036,11.036,0,0,0,32.4,26.922l-3.4,1.8Z"></path><path d="M37.5,31.481l-.4,2.094,1.684,1.264A10.9,10.9,0,0,0,37.5,31.481Z"></path><polygon points="28 34.25 25.213 36.34 26.677 40 29.323 40 30.714 36.523 30.485 36.143 30.507 36.13 28 34.25"></polygon><path d="M23.9,34.829,27,32.5V28.726l-3.395-1.8a11.032,11.032,0,0,0-3.48,2.414l.765,3.99Z"></path><path d="M29.619,26.133a9.92,9.92,0,0,0-3.238,0L28,26.992Z"></path><polygon points="55.586 7 2 7 2 17 45.586 17 55.586 7"></polygon><rect x="14" y="59" width="6" height="3"></rect><rect x="22" y="59" width="6" height="3"></rect><rect x="6" y="59" width="6" height="3"></rect><rect x="30" y="59" width="7" height="3"></rect><rect x="39" y="59" width="6" height="3"></rect><path d="M2,3V5H58a1,1,0,0,1,1,1V62h2V3Z"></path><rect x="2" y="59" width="2" height="3"></rect><polygon points="47 18.414 47 62 57 62 57 8.414 47 18.414"></polygon><rect x="6" y="51" width="6" height="6"></rect><rect x="2" y="19" width="2" height="6"></rect><rect x="6" y="19" width="6" height="6"></rect><rect x="6" y="43" width="6" height="6"></rect><rect x="2" y="43" width="2" height="6"></rect><rect x="2" y="35" width="2" height="6"></rect><rect x="2" y="51" width="2" height="6"></rect><rect x="2" y="27" width="2" height="6"></rect></g></svg>