<svg xmlns="http://www.w3.org/2000/svg" viewBox="0 0 64 64" x="0px" y="0px"><g data-name="Taxi-Smartphone-Application-Transportation-Chat Box"><polygon points="35.38 29 28.62 29 26.62 33 37.38 33 35.38 29"></polygon><rect x="26" y="41" width="2" height="2"></rect><rect x="36" y="41" width="2" height="2"></rect><path d="M39,35H25a1,1,0,0,0-1,1v2a1,1,0,0,0,1,1H39a1,1,0,0,0,1-1V36A1,1,0,0,0,39,35ZM28,38H26V36h2Zm10,0H36V36h2Z"></path><path d="M50,54H14v2a4,4,0,0,0,4,4H46a4,4,0,0,0,4-4ZM33,58H31V56h2Z"></path><path d="M16.29,24.71A1.033,1.033,0,0,1,16,24V18a1,1,0,0,0-1-1H5a1,1,0,0,0-1,1v8a1,1,0,0,0,1,1H18.59ZM14,25H6V23h8Zm0-4H6V19h8Z"></path><rect x="30" y="25" width="4" height="2"></rect><path d="M50,29H43a.987.987,0,0,1-.92-.62,1,1,0,0,1,.21-1.09L46,23.59V18a3.009,3.009,0,0,1,3-3h1V12H14v3h1a3.009,3.009,0,0,1,3,3v5.59l3.71,3.7a1,1,0,0,1,.21,1.09A.987.987,0,0,1,21,29H14V52H50Zm-8,4H40.62l-.19.38A2.994,2.994,0,0,1,42,36v2a3.01,3.01,0,0,1-2,2.82V43a2.006,2.006,0,0,1-2,2H36a2.006,2.006,0,0,1-2-2V41H30v2a2.006,2.006,0,0,1-2,2H26a2.006,2.006,0,0,1-2-2V40.82A3.01,3.01,0,0,1,22,38V36a2.994,2.994,0,0,1,1.57-2.62L23.38,33H22V31h2a.988.988,0,0,1,.89.55l.11.21,2.11-4.21A.988.988,0,0,1,28,27V24a1,1,0,0,1,1-1h6a1,1,0,0,1,1,1v3a.988.988,0,0,1,.89.55L39,31.76l.11-.21A.988.988,0,0,1,40,31h2Z"></path><path d="M60,26V18a1,1,0,0,0-1-1H49a1,1,0,0,0-1,1v6a1.033,1.033,0,0,1-.29.71L45.41,27H59A1,1,0,0,0,60,26Zm-2-1H50V23h8Zm0-4H50V19h8Z"></path><path d="M14,10H50V8a4,4,0,0,0-4-4H18a4,4,0,0,0-4,4ZM29,6h6V8H29ZM25,6h2V8H25Z"></path></g></svg>