<svg xmlns="http://www.w3.org/2000/svg" viewBox="0 0 64 64" x="0px" y="0px"><g data-name="avatar-man-young-account-profile"><path d="M46.92,37.32l-5.58-.75A4.974,4.974,0,0,0,38,34.1V32.21A11.029,11.029,0,0,0,42.95,24H43a3.981,3.981,0,0,0,3-6.62V13C46,6.63,41.79,2,36,2H29A11.007,11.007,0,0,0,18,13v4.38A3.986,3.986,0,0,0,21,24h.05a10.919,10.919,0,0,0,3.17,6.78A12.194,12.194,0,0,0,26,32.22V34.1a4.974,4.974,0,0,0-3.34,2.47l-5.58.75A7,7,0,0,0,11,44.25V61a1,1,0,0,0,1,1H52a1,1,0,0,0,1-1V44.25A7,7,0,0,0,46.92,37.32ZM19,60H13V55h6Zm7,0H21V48H19v5H13V44.25a5.01,5.01,0,0,1,4.34-4.95l4.69-.63c0,.11-.03.22-.03.33v4a1,1,0,0,0,2,0,1,1,0,0,1,2,0Zm0-19.83a3.026,3.026,0,0,0-2,0V39a3.014,3.014,0,0,1,2-2.83ZM40,39v1.17a3.026,3.026,0,0,0-2,0v-4A3.014,3.014,0,0,1,40,39Zm5-19a2.015,2.015,0,0,1-2,2V18A2.006,2.006,0,0,1,45,20ZM21,22a2.015,2.015,0,0,1-2-2,2.006,2.006,0,0,1,2-2Zm.43-6H21a4.091,4.091,0,0,0-1,.14V13a9.014,9.014,0,0,1,9-9h7c4.71,0,8,3.7,8,9v3.14A4.091,4.091,0,0,0,43,16h-.43a4.913,4.913,0,0,0-.91-1.39A4.145,4.145,0,0,0,42,13V11H40v2a2.006,2.006,0,0,1-2,2H26a2.006,2.006,0,0,1-2-2V11H22v2a4.145,4.145,0,0,0,.34,1.61A4.913,4.913,0,0,0,21.43,16Zm4.21,13.36A8.942,8.942,0,0,1,23,23V18a2.971,2.971,0,0,1,.62-1.8A4.031,4.031,0,0,0,26,17H38a4.031,4.031,0,0,0,2.38-.8A2.971,2.971,0,0,1,41,18v5a8.994,8.994,0,0,1-15.36,6.36ZM36,60H28V40.73a10.775,10.775,0,0,0,8,0Zm0-21.47a8.938,8.938,0,0,1-8,0V33.24a10.906,10.906,0,0,0,8,0ZM51,60H45V55h6Zm0-7H45V48H43V60H38V43a1,1,0,0,1,2,0,1,1,0,0,0,2,0V39c0-.11-.03-.22-.03-.33l4.69.63A5.01,5.01,0,0,1,51,44.25Z"></path><path d="M29,21h2a3,3,0,0,0-6,0h2a1,1,0,0,1,2,0Z"></path><path d="M36,20a1,1,0,0,1,1,1h2a3,3,0,0,0-6,0h2A1,1,0,0,1,36,20Z"></path><path d="M36.331,26.5l-1.732-1a3,3,0,0,1-5.2,0l-1.732,1a5,5,0,0,0,8.662,0Z"></path></g></svg>