<svg xmlns="http://www.w3.org/2000/svg" viewBox="0 0 64 64" x="0px" y="0px"><title>Artificial Intelligence-Inovation-Idea-Chip-Light Bulb</title><g data-name="Artificial Intelligence-Inovation"><path d="M44,54a2,2,0,0,0-2-2H22a2,2,0,0,0,0,4H42A2,2,0,0,0,44,54Z"></path><polygon points="35 24.412 32.586 22 29 22 29 28 35 28 35 24.412"></polygon><path d="M26,60H38a3,3,0,0,0,2.816-2H23.184A3,3,0,0,0,26,60Z"></path><path d="M53,25A21,21,0,0,0,30.656,4.042,21.129,21.129,0,0,0,11.009,24.364a20.861,20.861,0,0,0,7.77,16.945A11.156,11.156,0,0,1,23,49.967V50H41v-.033a11.156,11.156,0,0,1,4.223-8.659A20.917,20.917,0,0,0,53,25ZM27,48H25V46h2Zm0-4H25V42h2Zm6,4H31V46h2Zm0-4H31V42h2Zm6,4H37V46h2Zm0-4H37V42h2Zm6-12a1,1,0,0,1-.707-.293L42.586,30H41v3a1,1,0,0,1-1,1H37v1.586l1.707,1.707A1,1,0,0,1,39,38v2H37V38.414l-1.707-1.707A1,1,0,0,1,35,36V34H33v6H31V34H29v2a1,1,0,0,1-.293.707L27,38.414V40H25V38a1,1,0,0,1,.293-.707L27,35.586V34H24a1,1,0,0,1-1-1V30H21.414l-1.707,1.707A1,1,0,0,1,19,32H17V30h1.586l1.707-1.707A1,1,0,0,1,21,28h2V26H17V24h6V22H21a1,1,0,0,1-.707-.293L18.586,20H17V18h2a1,1,0,0,1,.707.293L21.414,20H23V17a1,1,0,0,1,1-1h3V14.414l-1.707-1.707A1,1,0,0,1,25,12V10h2v1.586l1.707,1.707A1,1,0,0,1,29,14v2h2V10h2v6h2V14a1,1,0,0,1,.293-.707L37,11.586V10h2v2a1,1,0,0,1-.293.707L37,14.414V16h3a1,1,0,0,1,1,1v3h1.586l1.707-1.707A1,1,0,0,1,45,18h2v2H45.414l-1.707,1.707A1,1,0,0,1,43,22H41v2h6v2H41v2h2a1,1,0,0,1,.707.293L45.414,30H47v2Z"></path><path d="M25,32H39V18H25Zm2-11a1,1,0,0,1,1-1h5a1,1,0,0,1,.707.292l3,3A1,1,0,0,1,37,24v5a1,1,0,0,1-1,1H28a1,1,0,0,1-1-1Z"></path></g></svg>