<svg xmlns="http://www.w3.org/2000/svg" viewBox="0 0 64 64" x="0px" y="0px"><g><rect x="2" y="26" width="2" height="34"></rect><rect x="60" y="26" width="2" height="34"></rect><path d="M40,4a7,7,0,0,0-6.92,6H40v2H31v2H24V12h6.92A7,7,0,0,0,24,6H15V9a7.008,7.008,0,0,0,7,7h9v8h2V14h9a7.008,7.008,0,0,0,7-7V4Z"></path><rect x="37" y="32" width="6" height="4"></rect><path d="M28,26H7V60H31V29A3,3,0,0,0,28,26ZM9,30h4v2H9ZM27,56H9V54H27Zm0-6H9V48H27Zm0-6H9V42H27Zm0-6H9V36H27Zm0-6H15V30H27Z"></path><path d="M57,26H36a3,3,0,0,0-3,3V60H57ZM47,30h6v2H47Zm0,6h6v2H47ZM35,37V31a1,1,0,0,1,1-1h8a1,1,0,0,1,1,1v6a1,1,0,0,1-1,1H36A1,1,0,0,1,35,37ZM55,56H37V54H55Zm0-6H37V48H55Zm0-6H37V42H55Z"></path></g></svg>