<svg xmlns="http://www.w3.org/2000/svg" viewBox="0 0 64 64" x="0px" y="0px"><g><path d="M9,51V44H7v7a5.006,5.006,0,0,0,5,5H28V54H12A3,3,0,0,1,9,51Z"></path><rect x="13" y="6" width="2" height="2"></rect><rect x="17" y="6" width="2" height="2"></rect><rect x="21" y="6" width="2" height="2"></rect><path d="M52,2H12A5,5,0,0,0,7,7v5H55V36h2V7A5,5,0,0,0,52,2Zm3,8H9V7a3.009,3.009,0,0,1,3-3H52a3.009,3.009,0,0,1,3,3Z"></path><path d="M22,39V17a3,3,0,0,0-3-3H5a3,3,0,0,0-3,3V39a3,3,0,0,0,3,3H19A3,3,0,0,0,22,39ZM4,39V17a1,1,0,0,1,1-1H19a1,1,0,0,1,1,1V39a1,1,0,0,1-1,1H5A1,1,0,0,1,4,39Z"></path><path d="M17,26H7a1,1,0,0,0-1,1V37a1,1,0,0,0,1,1H17a1,1,0,0,0,1-1V27A1,1,0,0,0,17,26Zm-1,5H13V28h3Zm-5-3v3H8V28ZM8,33h3v3H8Zm5,3V33h3v3Z"></path><path d="M17,18H7a1,1,0,0,0-1,1v4a1,1,0,0,0,1,1H17a1,1,0,0,0,1-1V19A1,1,0,0,0,17,18Zm-1,4H8V20h8Z"></path><path d="M60,38H32a2.006,2.006,0,0,0-2,2V60a2.006,2.006,0,0,0,2,2H60a2.006,2.006,0,0,0,2-2V40A2.006,2.006,0,0,0,60,38ZM32,40h2.86A4.017,4.017,0,0,1,32,42.86Zm0,11.13A4,4,0,0,1,34.86,54H32ZM42,60H32V59H42Zm0-3H32V56H42Zm6,3H44V56h4Zm12,0H50V59H60Zm0-3H50V56H60Zm0-3H57.14A4.017,4.017,0,0,1,60,51.14Zm0-4.91A5.992,5.992,0,0,0,55.09,54H36.91A5.992,5.992,0,0,0,32,49.09V44.91A5.992,5.992,0,0,0,36.91,40H55.09A5.992,5.992,0,0,0,60,44.91Zm0-6.23A4.017,4.017,0,0,1,57.14,40H60Z"></path><path d="M46,42a5,5,0,1,0,5,5A5.006,5.006,0,0,0,46,42Zm0,8a3,3,0,1,1,3-3A3,3,0,0,1,46,50Z"></path><path d="M30,19h2a1,1,0,0,1,1,1h2a3,3,0,0,0-3-3V16H30v1a3,3,0,0,0,0,6h2a1,1,0,0,1,0,2H30a1,1,0,0,1-1-1H27a3,3,0,0,0,3,3v1h2V27a3,3,0,0,0,0-6H30a1,1,0,0,1,0-2Z"></path><rect x="37" y="25" width="14" height="2"></rect><rect x="37" y="21" width="14" height="2"></rect><rect x="37" y="17" width="2" height="2"></rect><rect x="41" y="17" width="10" height="2"></rect></g></svg>