<svg xmlns="http://www.w3.org/2000/svg" viewBox="0 0 64 64" x="0px" y="0px"><g data-name="Heart Rate"><path d="M44,42V22a3,3,0,0,0-3-3H23a3,3,0,0,0-3,3V42a3,3,0,0,0,3,3H41A3,3,0,0,0,44,42ZM21,22a2,2,0,0,1,2-2h1v2H23v1H21ZM32.727,41.687a1,1,0,0,1-1.454,0l-7.736-8.2a5.784,5.784,0,0,1,0-7.838,5.146,5.146,0,0,1,7.556,0l.907.961.907-.961a5.146,5.146,0,0,1,7.556,0,5.784,5.784,0,0,1,0,7.838Z"></path><path d="M38.249,4h-12.5a1,1,0,0,0-.991.868L23.142,17H40.858L39.24,4.868A1,1,0,0,0,38.249,4Z"></path><path d="M34.361,27.025l-1.634,1.731a1.029,1.029,0,0,1-1.454,0l-1.634-1.731a3.147,3.147,0,0,0-4.648,0,3.758,3.758,0,0,0,0,5.092L32,39.543l7.009-7.426a3.758,3.758,0,0,0,0-5.092A3.219,3.219,0,0,0,34.361,27.025Z"></path><path d="M25.751,60h12.5a1,1,0,0,0,.991-.868L40.858,47H23.142L24.76,59.132A1,1,0,0,0,25.751,60Z"></path></g></svg>