<svg xmlns="http://www.w3.org/2000/svg" viewBox="0 0 64 64" x="0px" y="0px"><g><path d="M37.589,16.307l-1.178-1.616a8.088,8.088,0,0,1-8.823,0L26.41,16.307A9.527,9.527,0,0,0,32,18,9.524,9.524,0,0,0,37.589,16.307Z"></path><path d="M61,36H54.96a5,5,0,0,1-3.846-1.8l-.546-.667A6.989,6.989,0,0,0,45.18,31H45a20.511,20.511,0,0,1,2.048-3.749,11.019,11.019,0,0,0,1.866-7.66h0a10.991,10.991,0,0,0-15.528-8.569,3.221,3.221,0,0,1-2.769,0,10.991,10.991,0,0,0-13.66,16.23A20.573,20.573,0,0,1,19,31H18.82a6.994,6.994,0,0,0-5.394,2.537l-.534.653A5,5,0,0,1,9.04,36H3a1,1,0,0,0-1,1V53a1,1,0,0,0,1,1H61a1,1,0,0,0,1-1V37A1,1,0,0,0,61,36ZM46.928,19.838A9.027,9.027,0,0,1,45.4,26.111c-.32.461-.617.941-.9,1.428C41.761,26.705,41,24.962,41,24c0-.562.217-.8.707-1.293A3.563,3.563,0,0,0,43,20a3.787,3.787,0,0,0-1.074-2.571A3.259,3.259,0,0,1,41,15a4.262,4.262,0,0,1,.771-2.17A9.011,9.011,0,0,1,46.928,19.838Zm-29.855,0a8.992,8.992,0,0,1,12.7-7,5.263,5.263,0,0,0,4.458,0,8.986,8.986,0,0,1,4.64-.792,8.683,8.683,0,0,1,.958.15A5.819,5.819,0,0,0,39,15a5.209,5.209,0,0,0,1.376,3.694c.433.529.624.785.624,1.306,0,.562-.217.8-.707,1.293A3.563,3.563,0,0,0,39,24c0,1.954,1.427,4.227,4.553,5.323A23.03,23.03,0,0,0,41.7,35.18L40.3,43.175a1,1,0,0,1-.985.825h-1.56a1,1,0,0,1-.992-.871l-1.1-8.515A3.007,3.007,0,0,0,32.687,32H31.313a3.008,3.008,0,0,0-2.975,2.614l-1.1,8.514a1,1,0,0,1-.991.872H24.682a1,1,0,0,1-.985-.825L22.3,35.18A22.894,22.894,0,0,0,18.6,26.111,9.017,9.017,0,0,1,17.073,19.838ZM60,52H4V38H9.04a7,7,0,0,0,5.394-2.537l.535-.653A5,5,0,0,1,18.82,33h.9a21.017,21.017,0,0,1,.61,2.523l1.394,8A2.992,2.992,0,0,0,24.682,46h1.561a3.009,3.009,0,0,0,2.975-2.614l1.1-8.514A1,1,0,0,1,31.313,34h1.374a1,1,0,0,1,.992.871l1.1,8.515A3.009,3.009,0,0,0,37.758,46h1.56a2.992,2.992,0,0,0,2.955-2.481l1.394-8A21.017,21.017,0,0,1,44.277,33h.9a4.993,4.993,0,0,1,3.845,1.8l.546.667A7,7,0,0,0,54.96,38H60Z"></path><rect x="51" y="19" width="4" height="2"></rect><rect x="48.764" y="12" width="4.472" height="2" transform="translate(-0.43 24.18) rotate(-26.565)"></rect><rect x="51" y="24.764" width="2" height="4.472" transform="translate(4.595 61.435) rotate(-63.435)"></rect></g></svg>