<svg xmlns="http://www.w3.org/2000/svg" viewBox="0 0 64 64" x="0px" y="0px"><g><circle cx="39" cy="37" r="1"></circle><circle cx="47" cy="44" r="1"></circle><circle cx="47" cy="51" r="1"></circle><path d="M4,49A11.013,11.013,0,0,0,15,60H33a11.026,11.026,0,0,0,6.329-2H35a3,3,0,0,1-3-3V50.927a12,12,0,1,1,0-17.854V24.038c-.335-.025-.67-.038-1-.038H17A13.015,13.015,0,0,0,4,37Z"></path><circle cx="39" cy="51" r="1"></circle><path d="M60,55V23a1,1,0,0,0-1-1H35a1,1,0,0,0-1,1V55a1,1,0,0,0,1,1H59A1,1,0,0,0,60,55ZM39,54a3,3,0,1,1,3-3A3,3,0,0,1,39,54Zm0-7a3,3,0,1,1,3-3A3,3,0,0,1,39,47Zm0-7a3,3,0,1,1,3-3A3,3,0,0,1,39,40Zm8,14a3,3,0,1,1,3-3A3,3,0,0,1,47,54Zm0-7a3,3,0,1,1,3-3A3,3,0,0,1,47,47Zm0-7a3,3,0,1,1,3-3A3,3,0,0,1,47,40Zm8,14a3,3,0,1,1,3-3A3,3,0,0,1,55,54Zm0-7a3,3,0,1,1,3-3A3,3,0,0,1,55,47Zm0-7a3,3,0,1,1,3-3A3,3,0,0,1,55,40Zm3-9a1,1,0,0,1-1,1H37a1,1,0,0,1-1-1V25a1,1,0,0,1,1-1H57a1,1,0,0,1,1,1Z"></path><path d="M14,42a9.987,9.987,0,0,0,18,5.973V36.027A9.987,9.987,0,0,0,14,42Zm4,1H16V41h2Zm10-3H26a1,1,0,0,0-1-1H23a1,1,0,0,0,0,2h2a3,3,0,0,1,0,6v1H23V47a3,3,0,0,1-3-3h2a1,1,0,0,0,1,1h2a1,1,0,0,0,0-2H23a3,3,0,0,1,0-6V36h2v1A3,3,0,0,1,28,40Z"></path><circle cx="39" cy="44" r="1"></circle><circle cx="47" cy="37" r="1"></circle><circle cx="55" cy="37" r="1"></circle><rect x="38" y="26" width="18" height="4"></rect><rect x="17" y="20" width="14" height="2"></rect><circle cx="55" cy="51" r="1"></circle><path d="M30.5,6.04a6.217,6.217,0,0,1-3.791-1.2,4.61,4.61,0,0,0-5.424,0,6.212,6.212,0,0,1-3.788,1.2,6.283,6.283,0,0,1-3.78-1.173A4.77,4.77,0,0,0,12,4.09V15a3,3,0,0,0,3,3h1.867l-.859-6.876,1.984-.248L18.883,18H23V11h2v7h4.117l.891-7.124,1.984.248L31.133,18H33a3,3,0,0,0,3-3V4.089a4.815,4.815,0,0,0-1.721.778A6.288,6.288,0,0,1,30.5,6.04Z"></path><circle cx="55" cy="44" r="1"></circle></g></svg>