<svg xmlns="http://www.w3.org/2000/svg" viewBox="0 0 64 64" x="0px" y="0px"><g data-name="Stationary Box"><rect x="16" y="19" width="6" height="7"></rect><polygon points="48.074 60 49.92 36 14.08 36 15.926 60 48.074 60"></polygon><path d="M16,17h6V10a3,3,0,0,0-6,0Z"></path><rect x="11" y="28" width="42" height="6"></rect><polygon points="48 6 48 3 40 3 40 26 48 26 48 24 45 24 45 22 48 22 48 20 45 20 45 18 48 18 48 16 45 16 45 14 48 14 48 12 45 12 45 10 48 10 48 8 45 8 45 6 48 6"></polygon><polygon points="28.868 8 33.132 8 31 4.803 28.868 8"></polygon><rect x="28" y="10" width="2" height="16"></rect><rect x="32" y="10" width="2" height="16"></rect><path d="M12,23H10V13a1,1,0,0,1,1-1h3v2H12Z"></path></g></svg>