<svg xmlns="http://www.w3.org/2000/svg" viewBox="0 0 64 64" x="0px" y="0px"><g data-name="Video Game-Gaming-Portable-Vintage-Console"><path d="M50.89,32.83,50,32.38V7a5,5,0,0,0-5-5H19a5,5,0,0,0-5,5V32.38l-.89.45A1.971,1.971,0,0,0,12,34.62v2.76a1.971,1.971,0,0,0,1.11,1.79l.89.45V57a5,5,0,0,0,5,5H45a5,5,0,0,0,5-5V39.62l.89-.45A1.971,1.971,0,0,0,52,37.38V34.62A1.971,1.971,0,0,0,50.89,32.83ZM16,7a3.009,3.009,0,0,1,3-3H45a3.009,3.009,0,0,1,3,3V32H16ZM48,57a3.009,3.009,0,0,1-3,3H19a3.009,3.009,0,0,1-3-3V40H48Zm2-19.62L48.76,38H15.24L14,37.38V34.62L15.24,34H48.76l1.24.62Z"></path><circle cx="25" cy="46" r="2"></circle><circle cx="29" cy="50" r="2"></circle><circle cx="25" cy="54" r="2"></circle><circle cx="21" cy="50" r="2"></circle><circle cx="43" cy="50" r="2"></circle><rect x="33" y="44" width="2" height="2"></rect><rect x="37" y="44" width="2" height="2"></rect><path d="M21,30H43a1,1,0,0,0,1-1V9a1,1,0,0,0-1-1H21a1,1,0,0,0-1,1V29A1,1,0,0,0,21,30Zm1-20H42V28H22Z"></path><path d="M24,13v4h2V14h3V12H25A1,1,0,0,0,24,13Z"></path><rect x="24" y="19" width="2" height="2"></rect></g></svg>