<svg xmlns="http://www.w3.org/2000/svg" viewBox="0 0 64 64" x="0px" y="0px"><g><rect x="24" y="54" width="2" height="2"></rect><rect x="24" y="38" width="2" height="2"></rect><rect x="24" y="46" width="2" height="2"></rect><rect x="16" y="46" width="2" height="2"></rect><rect x="16" y="38" width="2" height="2"></rect><path d="M60,18H54V47a3,3,0,0,0,6,0Z"></path><path d="M53.03,50A4.924,4.924,0,0,1,52,47V5.24a2.116,2.116,0,0,1-.11.21C51.36,6.52,50.62,8,49,8s-2.35-1.47-2.88-2.55C45.69,4.6,45.37,4,45.01,4s-.68.6-1.11,1.45C43.37,6.52,42.63,8,41.01,8s-2.36-1.48-2.89-2.55C37.69,4.6,37.36,4,37.01,4s-.68.6-1.11,1.45C35.37,6.52,34.63,8,33.01,8s-2.36-1.48-2.89-2.55C29.69,4.6,29.36,4,29.01,4s-.68.6-1.11,1.45C27.37,6.52,26.63,8,25.01,8s-2.36-1.48-2.89-2.55C21.69,4.6,21.36,4,21.01,4s-.68.6-1.11,1.45C19.37,6.52,18.63,8,17.01,8s-2.36-1.48-2.9-2.56c-.04-.07-.08-.14-.11-.2V20H29a3.009,3.009,0,0,1,3,3V50ZM42,34v2H34V34Zm-8-2V30h8v2Zm8,6v2H34V38Zm6,8H40V44h8Zm0-6H44V38h4Zm0-4H44V34h4Zm0-4H44V30h4Zm0-4H44V26h4ZM45,17H43a3,3,0,0,1,0-6V10h2v1a3,3,0,0,1,3,3H46a1,1,0,0,0-1-1H43a1,1,0,0,0,0,2h2a3,3,0,0,1,0,6v1H43V21a3,3,0,0,1-3-3h2a1,1,0,0,0,1,1h2a1,1,0,0,0,0-2Zm-3,9v2H34V26ZM22,12H36v2H22Zm-4,0h2v2H18Zm0,6V16H36v2Z"></path><rect x="16" y="54" width="2" height="2"></rect><rect x="8" y="46" width="2" height="2"></rect><rect x="8" y="38" width="2" height="2"></rect><path d="M26,26H8v6H26ZM14,30H12V28h2Zm4,0H16V28h2Zm4,0H20V28h2Z"></path><path d="M5,60H29a1,1,0,0,0,1-1V23a1,1,0,0,0-1-1H5a1,1,0,0,0-1,1V59A1,1,0,0,0,5,60Zm15-3a1,1,0,0,1-1,1H15a1,1,0,0,1-1-1V53a1,1,0,0,1,1-1h4a1,1,0,0,1,1,1Zm0-8a1,1,0,0,1-1,1H15a1,1,0,0,1-1-1V45a1,1,0,0,1,1-1h4a1,1,0,0,1,1,1Zm0-8a1,1,0,0,1-1,1H15a1,1,0,0,1-1-1V37a1,1,0,0,1,1-1h4a1,1,0,0,1,1,1Zm8,16a1,1,0,0,1-1,1H23a1,1,0,0,1-1-1V53a1,1,0,0,1,1-1h4a1,1,0,0,1,1,1Zm0-8a1,1,0,0,1-1,1H23a1,1,0,0,1-1-1V45a1,1,0,0,1,1-1h4a1,1,0,0,1,1,1Zm0-8a1,1,0,0,1-1,1H23a1,1,0,0,1-1-1V37a1,1,0,0,1,1-1h4a1,1,0,0,1,1,1ZM6,26a2,2,0,0,1,2-2H26a2,2,0,0,1,2,2v6a2,2,0,0,1-2,2H8a2,2,0,0,1-2-2ZM6,37a1,1,0,0,1,1-1h4a1,1,0,0,1,1,1v4a1,1,0,0,1-1,1H7a1,1,0,0,1-1-1Zm0,8a1,1,0,0,1,1-1h4a1,1,0,0,1,1,1v4a1,1,0,0,1-1,1H7a1,1,0,0,1-1-1Zm0,8a1,1,0,0,1,1-1h4a1,1,0,0,1,1,1v4a1,1,0,0,1-1,1H7a1,1,0,0,1-1-1Z"></path><rect x="8" y="54" width="2" height="2"></rect></g></svg>