<svg xmlns="http://www.w3.org/2000/svg" data-name="Layer 38" viewBox="0 0 64 64" x="0px" y="0px"><g><rect x="12" y="22" width="4" height="2"></rect><path d="M60,29a3,3,0,0,0-3-3H7a3,3,0,0,0-3,3V57a3,3,0,0,0,3,3H57a3,3,0,0,0,3-3ZM18,56A12,12,0,1,1,30,44,12.013,12.013,0,0,1,18,56Zm40-3a3,3,0,0,1-3,3H37a3,3,0,0,1-3-3V35a3,3,0,0,1,3-3H55a3,3,0,0,1,3,3Z"></path><path d="M55,34H37a1,1,0,0,0-1,1V53a1,1,0,0,0,1,1H55a1,1,0,0,0,1-1V35A1,1,0,0,0,55,34ZM54,51H38V49H54Zm0-6H38V43H54Zm0-6H38V37H54Z"></path><circle cx="18" cy="44" r="10"></circle><rect x="22" y="22" width="4" height="2"></rect><rect x="48" y="22" width="6" height="2"></rect><path d="M50,20h2V5a1,1,0,0,0-2,0Z"></path><rect x="32" y="22" width="4" height="2"></rect></g></svg>