<svg xmlns="http://www.w3.org/2000/svg" viewBox="0 0 64 64" x="0px" y="0px"><g><rect x="38" y="38" width="4" height="2"></rect><path d="M26.618,52.912l.944-.546-1-1.732-.941.543a6.139,6.139,0,0,0-.8-.8l.543-.941-1.732-1-.546.944A5.992,5.992,0,0,0,22,49.09V48H20v1.09a5.992,5.992,0,0,0-1.088.292l-.546-.944-1.732,1,.543.941a6.139,6.139,0,0,0-.8.8l-.942-.543-1,1.732.945.546A5.992,5.992,0,0,0,15.09,54H14v2h1.09a5.992,5.992,0,0,0,.292,1.088l-.945.546,1,1.732.942-.543a6.139,6.139,0,0,0,.8.8l-.543.941,1.732,1,.546-.944A5.992,5.992,0,0,0,20,60.91V62h2V60.91a5.992,5.992,0,0,0,1.088-.292l.546.944,1.732-1-.543-.941a6.139,6.139,0,0,0,.8-.8l.941.543,1-1.732-.944-.546A5.992,5.992,0,0,0,26.91,56H28V54H26.91A5.992,5.992,0,0,0,26.618,52.912ZM25,55a4,4,0,1,1-4-4A4,4,0,0,1,25,55Z"></path><rect x="20" y="54" width="2" height="2"></rect><path d="M54.618,52.912l.944-.546-1-1.732-.941.543a6.139,6.139,0,0,0-.8-.8l.543-.941-1.732-1-.546.944A5.992,5.992,0,0,0,50,49.09V48H48v1.09a5.992,5.992,0,0,0-1.088.292l-.546-.944-1.732,1,.543.941a6.139,6.139,0,0,0-.8.8l-.942-.543-1,1.732.945.546A5.992,5.992,0,0,0,43.09,54H42v2h1.09a5.992,5.992,0,0,0,.292,1.088l-.945.546,1,1.732.942-.543a6.139,6.139,0,0,0,.8.8l-.543.941,1.732,1,.546-.944A5.992,5.992,0,0,0,48,60.91V62h2V60.91a5.992,5.992,0,0,0,1.088-.292l.546.944,1.732-1-.543-.941a6.139,6.139,0,0,0,.8-.8l.941.543,1-1.732-.944-.546A5.992,5.992,0,0,0,54.91,56H56V54H54.91A5.992,5.992,0,0,0,54.618,52.912ZM53,55a4,4,0,1,1-4-4A4,4,0,0,1,53,55Z"></path><rect x="48" y="54" width="2" height="2"></rect><path d="M61.6,38.671A6.979,6.979,0,0,0,55,34H51.535L43.022,21.225A4.992,4.992,0,0,0,38.86,19H30.078a3.189,3.189,0,0,0,.423-2.766,3.741,3.741,0,0,1-.072-1.155,3.893,3.893,0,0,1,.828-.715c.759-.555,1.7-1.246,1.7-2.364s-.944-1.809-1.7-2.364a3.871,3.871,0,0,1-.828-.713A3.714,3.714,0,0,1,30.5,7.766a3.129,3.129,0,0,0-.458-2.809A3.128,3.128,0,0,0,27.234,4.5a3.708,3.708,0,0,1-1.156.071,3.871,3.871,0,0,1-.715-.828c-.554-.758-1.246-1.7-2.363-1.7s-1.809.944-2.363,1.7a3.871,3.871,0,0,1-.715.828A3.707,3.707,0,0,1,18.767,4.5a3.131,3.131,0,0,0-2.811.459A3.129,3.129,0,0,0,15.5,7.766a3.741,3.741,0,0,1,.072,1.155,3.893,3.893,0,0,1-.828.715c-.759.555-1.7,1.246-1.7,2.364s.944,1.809,1.7,2.364a3.871,3.871,0,0,1,.828.713,3.714,3.714,0,0,1-.071,1.157A3.19,3.19,0,0,0,15.922,19H13a5.006,5.006,0,0,0-5,5v2H4a2,2,0,0,0-2,2V38a2,2,0,0,0,2,2H8v9a3,3,0,0,0,3,3h.84a1,1,0,0,0,.917-.6,8.991,8.991,0,0,1,16.486,0,1,1,0,0,0,.917.6h9.68a1,1,0,0,0,.917-.6,8.991,8.991,0,0,1,16.486,0,1,1,0,0,0,.917.6H59a3,3,0,0,0,3-3V41A6.8,6.8,0,0,0,61.6,38.671ZM59.886,40A4.827,4.827,0,0,1,60,41v1H56V40ZM41.358,22.334,49.132,34H36V21h2.86A3,3,0,0,1,41.358,22.334ZM19,19.467a2.757,2.757,0,0,1,.922-.037,3.871,3.871,0,0,1,.715.828c.554.758,1.246,1.7,2.363,1.7s1.809-.944,2.363-1.7a3.871,3.871,0,0,1,.715-.828,2.711,2.711,0,0,1,.922.038v6.766l-3.485-2.091a1,1,0,0,0-1.03,0L19,26.234Zm-3.965-7.432a3.676,3.676,0,0,1,.889-.785,4.05,4.05,0,0,0,1.494-1.562,4.173,4.173,0,0,0,.059-2.218,4.939,4.939,0,0,1-.089-1.082,4.784,4.784,0,0,1,1.082.089,4.161,4.161,0,0,0,2.218-.06A4.04,4.04,0,0,0,22.25,4.924a6.859,6.859,0,0,1,.715-.889,3.719,3.719,0,0,1,.785.889,4.037,4.037,0,0,0,1.561,1.493,4.182,4.182,0,0,0,2.218.06,5.069,5.069,0,0,1,1.083-.089,4.939,4.939,0,0,1-.089,1.082,4.177,4.177,0,0,0,.059,2.219,4.054,4.054,0,0,0,1.494,1.561,4.372,4.372,0,0,1,.872.75,4.372,4.372,0,0,1-.872.75,4.05,4.05,0,0,0-1.494,1.562,4.173,4.173,0,0,0-.059,2.218,4.939,4.939,0,0,1,.089,1.082,4.793,4.793,0,0,1-1.082-.089,4.162,4.162,0,0,0-2.218.06,4.033,4.033,0,0,0-1.562,1.493,6.859,6.859,0,0,1-.715.889,3.719,3.719,0,0,1-.785-.889,4.044,4.044,0,0,0-1.561-1.493,2.61,2.61,0,0,0-1.012-.181,8.227,8.227,0,0,0-1.206.121,5,5,0,0,1-1.083.089,4.939,4.939,0,0,1,.089-1.082,4.177,4.177,0,0,0-.059-2.219,4.054,4.054,0,0,0-1.494-1.561A6.775,6.775,0,0,1,15.035,12.035ZM10,24a3,3,0,0,1,3-3h4v7a1,1,0,0,0,1.515.857L23,26.166l4.485,2.691A1,1,0,0,0,29,28V21h5V34H10Zm1,16v2H10V40ZM4,38V35H5V33H4V31H5V29H4V28H8v3H7v2H8v2H7v2H8v1Zm7.207,12H11a1,1,0,0,1-1-1V48h2.551A10.967,10.967,0,0,0,11.207,50ZM21,44a10.985,10.985,0,0,0-8,3.462V46H10V44h1a2,2,0,0,0,2-2V40a2,2,0,0,0-2-2H10V36H34V50H30.793A10.994,10.994,0,0,0,21,44Zm28,0a10.994,10.994,0,0,0-9.793,6H36V36H55a4.99,4.99,0,0,1,4,2H56a2,2,0,0,0-2,2v2a2,2,0,0,0,2,2h4v2H57v1.462A10.985,10.985,0,0,0,49,44Zm10,6h-.207a10.967,10.967,0,0,0-1.344-2H60v1A1,1,0,0,1,59,50Z"></path><path d="M23,17a5,5,0,1,0-5-5A5.006,5.006,0,0,0,23,17Zm0-8a3,3,0,1,1-3,3A3,3,0,0,1,23,9Z"></path></g></svg>