<svg xmlns="http://www.w3.org/2000/svg" viewBox="0 0 64 64" x="0px" y="0px"><g data-name="Avatar-Man-Men-Profile-Bow Tie"><path d="M46.69,37.3l-3.74-1.17c-.02-.13-.04-.25-.07-.38,2.23-.44,4.2-.92,5.64-1.3a3,3,0,0,0,2.21-3.35L48.11,13.66A1.99,1.99,0,0,0,49,12V10a2.006,2.006,0,0,0-2-2H42.19c-.07-.12-.15-.24-.23-.36.02-.2.04-.42.04-.64V5a3.009,3.009,0,0,0-3-3H22a1,1,0,0,0-1,1V7a5.566,5.566,0,0,0,.11,1H17a2.006,2.006,0,0,0-2,2v2a1.99,1.99,0,0,0,.89,1.66L13.27,31.1a3,3,0,0,0,2.21,3.35c1.44.38,3.41.86,5.64,1.3-.03.13-.05.25-.07.38L17.31,37.3A8.941,8.941,0,0,0,11,45.88V61a1,1,0,0,0,1,1H52a1,1,0,0,0,1-1V45.88A8.941,8.941,0,0,0,46.69,37.3Zm2.06-5.9a1,1,0,0,1-.74,1.11c-1.36.36-3.75.95-6.52,1.47a2.964,2.964,0,0,0-2.22-.33L37,34.22V30.79a11.064,11.064,0,0,0,2.78-2.01A10.919,10.919,0,0,0,42.95,22H43a3.964,3.964,0,0,0,3.88-3.07ZM29.89,25.01l-5.6.62a9.3,9.3,0,0,1-.86-1.9l6.81-1.36a9.065,9.065,0,0,1,3.52,0l6.81,1.36a8.791,8.791,0,0,1-.86,1.9l-5.6-.62-.22,1.98,4.35.49a8.973,8.973,0,0,1-12.47,0l4.34-.49Zm-6.85-3.24c-.02-.25-.04-.51-.04-.77V14H41v7c0,.26-.02.52-.04.77l-6.8-1.36a11.214,11.214,0,0,0-4.32,0ZM29,31.57A10.665,10.665,0,0,0,32,32a11.09,11.09,0,0,0,3-.42v3.14l-.84.21c-.73.04-1.46.07-2.16.07s-1.43-.03-2.16-.07L29,34.72Zm6,5.31c1.99-.15,4-.43,5.9-.76a1.129,1.129,0,0,1,.1.44v2.88a1,1,0,0,1-.38.79,1.022,1.022,0,0,1-.86.18L35,39.22ZM45,18a2.015,2.015,0,0,1-2,2V16A2.006,2.006,0,0,1,45,18Zm-2-4h3.14l.3,1.99A3.984,3.984,0,0,0,43,14ZM23,4H39a1,1,0,0,1,1,1V7a2.317,2.317,0,0,1-.08.65,2.3,2.3,0,0,1-.1.35H23.2A2.829,2.829,0,0,1,23,7Zm-6,6H47v2H17Zm.56,5.99.3-1.99H21A3.984,3.984,0,0,0,17.56,15.99ZM21,16v4a2.015,2.015,0,0,1-2-2A2.006,2.006,0,0,1,21,16ZM15.99,32.51a1,1,0,0,1-.74-1.11l1.87-12.47A3.964,3.964,0,0,0,21,22h.05A11.028,11.028,0,0,0,27,30.79v3.43l-2.27-.57a2.964,2.964,0,0,0-2.22.33C19.74,33.46,17.35,32.87,15.99,32.51ZM29,36.88v2.34l-4.76,1.19a1.022,1.022,0,0,1-.86-.18,1,1,0,0,1-.38-.79V36.56a1.129,1.129,0,0,1,.1-.44C25,36.45,27.01,36.73,29,36.88ZM31,60H21V45H19V60H13V45.88a6.964,6.964,0,0,1,4.91-6.68L21,38.24v1.2a3,3,0,0,0,2.99,3,3.121,3.121,0,0,0,.74-.09L30.12,41H31Zm0-23h2v2H31ZM51,60H45V45H43V60H33V41h.88l5.39,1.35a3.121,3.121,0,0,0,.74.09,3,3,0,0,0,2.99-3v-1.2l3.09.96A6.964,6.964,0,0,1,51,45.88Z"></path><circle cx="28" cy="17" r="2"></circle><circle cx="36" cy="17" r="2"></circle></g></svg>