<svg xmlns="http://www.w3.org/2000/svg" viewBox="0 0 64 64" x="0px" y="0px"><g><polygon points="9.557 6.23 8.62 7.167 15.408 11.692 17.944 9.156 9.557 6.23"></polygon><path d="M12,23.586,28.971,6.615,26.85,4.494a1,1,0,0,0-1.415,0L11.293,18.636a1,1,0,0,1-1.288.106L5.744,15.7l-.815.816ZM25.436,5.908,26.85,7.322,25.435,8.736,24.021,7.322Z"></path><path d="M40.171,6.682C39.5,6.53,38.812,6.4,38.131,6.3L37.84,8.281c.631.093,1.267.211,1.891.352Z"></path><path d="M44.134,7.891c-.647-.251-1.306-.48-1.959-.678l-.584,1.912c.606.186,1.219.4,1.82.631Z"></path><path d="M36.069,6.075C35.385,6.025,34.688,6,34,6V8c.641,0,1.288.023,1.925.069Z"></path><path d="M57.305,22.457l1.791-.891c-.309-.62-.642-1.232-.991-1.821l-1.72,1.02C56.709,21.312,57.019,21.881,57.305,22.457Z"></path><path d="M54.369,14.787c-.47-.5-.967-.987-1.477-1.454l-1.35,1.477c.475.433.936.887,1.372,1.35Z"></path><path d="M47.876,9.676c-.6-.342-1.216-.665-1.837-.962l-.861,1.8c.577.275,1.15.576,1.706.893Z"></path><path d="M55.343,19.146,56.983,18c-.391-.563-.811-1.119-1.247-1.655l-1.552,1.261C54.589,18.106,54.979,18.624,55.343,19.146Z"></path><path d="M51.311,11.99c-.544-.428-1.108-.839-1.675-1.22l-1.117,1.658c.526.355,1.049.736,1.555,1.134Z"></path><path d="M58.751,26.018l1.9-.612c-.207-.645-.445-1.3-.708-1.948l-1.853.752C58.338,24.811,58.559,25.419,58.751,26.018Z"></path><path d="M13.544,53.118c.47.5.964.995,1.471,1.462l1.355-1.471c-.47-.432-.929-.889-1.365-1.356Z"></path><path d="M16.588,55.931c.539.427,1.1.84,1.669,1.228l1.127-1.652c-.53-.361-1.051-.745-1.552-1.143Z"></path><path d="M12.592,48.758l-1.647,1.135c.386.56.8,1.12,1.241,1.662L13.742,50.3C13.337,49.8,12.95,49.277,12.592,48.758Z"></path><path d="M23.747,60.063c.639.251,1.3.483,1.957.687l.592-1.91c-.613-.191-1.225-.4-1.817-.638Z"></path><path d="M20.014,58.262c.6.345,1.215.672,1.833.969l.869-1.8c-.574-.278-1.147-.58-1.7-.9Z"></path><path d="M10.643,45.438l-1.795.88c.3.624.636,1.239.982,1.828l1.725-1.014C11.233,46.586,10.927,46.016,10.643,45.438Z"></path><path d="M6.054,32.241l2,.125c.04-.635.1-1.28.19-1.919L6.258,30.18C6.165,30.864,6.1,31.559,6.054,32.241Z"></path><path d="M9.212,41.868l-1.906.6c.205.65.441,1.306.7,1.952l1.855-.744C9.621,43.08,9.4,42.471,9.212,41.868Z"></path><path d="M8,34.292l-2,.02c.007.685.04,1.381.1,2.071l1.992-.168C8.039,35.574,8.009,34.928,8,34.292Z"></path><path d="M9.01,26.8l-1.922-.553c-.181.627-.339,1.262-.473,1.888l1.957.416Q8.761,27.665,9.01,26.8Z"></path><path d="M8.326,38.126l-1.974.314c.107.676.243,1.361.4,2.034L8.7,40.015C8.552,39.389,8.427,38.753,8.326,38.126Z"></path><rect x="53" y="50" width="2" height="4"></rect><path d="M29.75,51.55A36.522,36.522,0,0,1,28.027,41H20.05l0,.03q.045.9.169,1.784c0,.034.01.068.015.1q.123.85.316,1.683c.018.074.039.147.057.22.126.514.268,1.021.434,1.521.043.128.093.252.138.379.158.446.325.889.514,1.322.075.171.162.334.242.5.184.389.368.779.578,1.156.088.159.19.309.282.465.227.384.454.768.708,1.138.025.036.054.069.079.1a20.054,20.054,0,0,0,2.306,2.75A21.908,21.908,0,0,1,29.75,51.55Z"></path><path d="M41,20.105v8.849a19.921,19.921,0,0,0,6.712-1.515C46.064,23.427,43.669,20.664,41,20.105Z"></path><rect x="48" y="50" width="3" height="2"></rect><rect x="57" y="50" width="3" height="2"></rect><path d="M48,60H60V54H57v1a1,1,0,0,1-1,1H52a1,1,0,0,1-1-1V54H48Z"></path><path d="M28.027,39A36.522,36.522,0,0,1,29.75,28.45a21.854,21.854,0,0,1-3.86-2.607,20.031,20.031,0,0,0-2.319,2.767c-.02.03-.044.057-.065.087-.258.375-.488.765-.718,1.154-.089.151-.187.3-.272.448-.212.381-.4.773-.583,1.166-.078.165-.164.326-.237.493-.191.435-.358.88-.516,1.328-.045.125-.095.247-.137.373-.165.5-.308,1.009-.434,1.523-.018.073-.039.145-.057.219q-.194.833-.316,1.684c0,.034-.011.067-.015.1q-.123.883-.169,1.784l0,.03Z"></path><path d="M50.25,28.45A36.522,36.522,0,0,1,51.973,39H59.95l0-.03q-.045-.9-.169-1.784c0-.034-.01-.068-.015-.1q-.123-.85-.316-1.683c-.018-.074-.039-.147-.057-.22-.126-.514-.268-1.021-.434-1.521-.043-.128-.093-.252-.138-.379-.158-.446-.325-.889-.514-1.322-.075-.17-.162-.334-.241-.5-.184-.39-.369-.78-.579-1.158-.088-.158-.189-.307-.281-.462-.228-.385-.455-.77-.709-1.14-.025-.036-.054-.069-.079-.105a20.054,20.054,0,0,0-2.306-2.75A21.908,21.908,0,0,1,50.25,28.45Z"></path><path d="M41,39h8.974a34.677,34.677,0,0,0-1.581-9.677A21.918,21.918,0,0,1,41,30.954Z"></path><path d="M33.937,20.946a19.824,19.824,0,0,0-6.552,3.542,19.82,19.82,0,0,0,3.069,2.066A18.41,18.41,0,0,1,33.937,20.946Z"></path><path d="M39,30.954a21.918,21.918,0,0,1-7.393-1.631A34.677,34.677,0,0,0,30.026,39H39Z"></path><path d="M39,20.105c-2.669.559-5.064,3.322-6.712,7.334A19.921,19.921,0,0,0,39,28.954Z"></path><path d="M46,50a2,2,0,0,1,2-2H58.314a19.989,19.989,0,0,0,1.328-4.27c.014-.077.032-.153.045-.231.026-.144.044-.292.067-.438.1-.681.176-1.368.21-2.061H51.981a39.848,39.848,0,0,1-.448,5.153l-1.976-.306A37.85,37.85,0,0,0,49.962,41H41v8.047a22.3,22.3,0,0,1,3.188.35l-.376,1.965A20.315,20.315,0,0,0,41,51.047v8.906c.407-.021.814-.054,1.219-.094A19.993,19.993,0,0,0,46,59.043Z"></path><path d="M39,41H30.026a34.677,34.677,0,0,0,1.581,9.677A21.918,21.918,0,0,1,39,49.046Z"></path><path d="M39,59.9V51.046a19.921,19.921,0,0,0-6.712,1.515C33.936,56.573,36.331,59.336,39,59.9Z"></path><path d="M27.385,55.511a19.808,19.808,0,0,0,6.552,3.543,18.41,18.41,0,0,1-3.483-5.608A19.885,19.885,0,0,0,27.385,55.511Z"></path><path d="M46.063,20.946a18.41,18.41,0,0,1,3.483,5.608,19.885,19.885,0,0,0,3.069-2.065A19.808,19.808,0,0,0,46.063,20.946Z"></path></g></svg>