<svg xmlns="http://www.w3.org/2000/svg" viewBox="0 0 64 64" x="0px" y="0px"><g data-name="Presentaion circle report"><path d="M24,29a7.98,7.98,0,0,1,.4-2.494A5.993,5.993,0,0,0,18.066,36.52l1.227-1.227,1.414,1.414-.88.88a5.97,5.97,0,0,0,7.2-2.329A7.98,7.98,0,0,1,24,29Z"></path><rect x="4" y="46" width="56" height="2"></rect><path d="M26,29a5.982,5.982,0,0,0,1.848,4.322,5.946,5.946,0,0,0-1.7-5.644A5.94,5.94,0,0,0,26,29Z"></path><rect x="23" y="58" width="18" height="2"></rect><rect x="30" y="50" width="4" height="6"></rect><rect x="30" y="4" width="4" height="2"></rect><path d="M40,29a7.98,7.98,0,0,1-.4,2.494,5.967,5.967,0,0,0,1.4.416V31h2v.91a6,6,0,1,0-6.031-9.168A7.98,7.98,0,0,1,40,29Z"></path><rect x="4" y="8" width="56" height="2"></rect><path d="M6,44H58V12H6Zm48-2H46V40h8Zm-8-4V36h2v2Zm8,0H50V36h4ZM25,18h2.414l3.138,3.138A8.032,8.032,0,0,1,32,21a7.943,7.943,0,0,1,3.263.7A7.995,7.995,0,1,1,43,33.931V36h1v2H41V33.931a7.937,7.937,0,0,1-2.263-.634,7.964,7.964,0,0,1-10,3,7.967,7.967,0,0,1-10.418,2.8L16.414,41H14V39h1.586l1.067-1.067a7.987,7.987,0,0,1,8.61-13.23,8.041,8.041,0,0,1,3.172-2.854L26.586,20H25Zm-8-3h6v2H17Zm-4,0h2v2H13Zm0,4H23v2H13ZM8,36h4v2H8Zm0,4h4v2H8Z"></path><path d="M38,29a5.982,5.982,0,0,0-1.848-4.322,5.946,5.946,0,0,0,1.7,5.644A5.94,5.94,0,0,0,38,29Z"></path><path d="M26.969,25.742A7.962,7.962,0,0,1,29.6,34.494a5.979,5.979,0,0,0,7.434-2.236A7.962,7.962,0,0,1,34.4,23.506a5.932,5.932,0,0,0-1.967-.484l.271.271-1.414,1.414-1.34-1.34A6.023,6.023,0,0,0,26.969,25.742Z"></path></g></svg>