<svg xmlns="http://www.w3.org/2000/svg" viewBox="0 0 64 64" x="0px" y="0px"><title>Chart-Report</title><g data-name="Chart-Report"><path d="M15,20v8a1,1,0,0,0,1,1H26v3H20a1,1,0,0,0-1,1v5.1a5,5,0,1,0,2,0V34h6a1,1,0,0,0,1-1V29h3v9.1a5,5,0,1,0,2,0V29h3v4a1,1,0,0,0,1,1h6v4.1a5,5,0,1,0,2,0V33a1,1,0,0,0-1-1H38V29H48a1,1,0,0,0,1-1V20a1,1,0,0,0-1-1H16A1,1,0,0,0,15,20Zm8,23a3,3,0,1,1-3-3A3,3,0,0,1,23,43Zm12,0a3,3,0,1,1-3-3A3,3,0,0,1,35,43Zm12,0a3,3,0,1,1-3-3A3,3,0,0,1,47,43ZM17,21H47v6H17Z"></path><path d="M55,2H9A2,2,0,0,0,7,4V60a2,2,0,0,0,2,2H55a2,2,0,0,0,2-2V4A2,2,0,0,0,55,2ZM40,4V6H24V4ZM23,12H41a1,1,0,0,0,1-1V8h9V56H13V8h9v3A1,1,0,0,0,23,12Zm17-2H24V8H40ZM9,60V4H22V6H12a1,1,0,0,0-1,1V57a1,1,0,0,0,1,1H52a1,1,0,0,0,1-1V7a1,1,0,0,0-1-1H42V4H55V60Z"></path></g></svg>