<svg xmlns="http://www.w3.org/2000/svg" viewBox="0 0 64 64" x="0px" y="0px"><title>Communication</title><g><path d="M56.849,7.15a17.842,17.842,0,0,0-12.7-5.256,1.027,1.027,0,0,0-1.027,1,1,1,0,0,0,1,1c.008-.005.018,0,.027,0A15.946,15.946,0,0,1,60.106,19.877a1,1,0,0,0,1,1h0a1,1,0,0,0,1-1A17.841,17.841,0,0,0,56.849,7.15Z"></path><path d="M44.119,9.876A10.01,10.01,0,0,1,54.124,19.882a1,1,0,0,0,1,1h0a1,1,0,0,0,1-1,12.011,12.011,0,0,0-12-12h0a1,1,0,0,0,0,2Z"></path><path d="M44.115,15.872a4.022,4.022,0,0,1,4.012,4.012,1,1,0,0,0,1,1h.006a1,1,0,0,0,.994-1.005,6.021,6.021,0,0,0-6-6,.962.962,0,0,0-1.006.994A1,1,0,0,0,44.115,15.872Z"></path><path d="M42,25a2.978,2.978,0,0,0,2.121-.879h0a3,3,0,0,0,0-4.242,3.073,3.073,0,0,0-4.243,0A3,3,0,0,0,42,25Zm-.707-3.707a1,1,0,0,1,1.414,1.414h0a1.021,1.021,0,0,1-1.414,0A1,1,0,0,1,41.293,21.293Z"></path><path d="M17.5,24A2.5,2.5,0,0,1,15,21.5H13a4.5,4.5,0,0,0,9,0H20A2.5,2.5,0,0,1,17.5,24Z"></path><path d="M58,40a9.01,9.01,0,0,1-9,9,1,1,0,0,0-1,1V60H26V51h5V49H17a5.006,5.006,0,0,1-5-5V36a1,1,0,0,0-1-1H6.385l6.539-19.748A17.9,17.9,0,0,1,29.391,4H35V2H29.391a19.913,19.913,0,0,0-18.34,12.555l-7,21.131A1,1,0,0,0,5,37h5v7a7.008,7.008,0,0,0,7,7h7V61a1,1,0,0,0,1,1H49a1,1,0,0,0,1-1V50.955A11.015,11.015,0,0,0,60,40V29H58Z"></path></g></svg>