<svg xmlns="http://www.w3.org/2000/svg" viewBox="0 0 64 64" x="0px" y="0px"><g><path d="M26,35.78A3.009,3.009,0,1,0,30.816,37h2.368A2.966,2.966,0,0,0,33,38a3,3,0,0,0,6,0,2.966,2.966,0,0,0-.184-1H40a1,1,0,0,1,1,1h2a3,3,0,0,0-3-3H28V33H39a1,1,0,0,0,.992-.876l1-8A1,1,0,0,0,40,23H28V22a1,1,0,0,0-.293-.707l-2-2A1,1,0,0,0,25,19H22v2h2.586L26,22.414ZM29,38a1,1,0,1,1-1-1A1,1,0,0,1,29,38Zm8,0a1,1,0,1,1-1-1A1,1,0,0,1,37,38Zm-3-9v2H32V29Zm-2-2V25h2v2Zm-2,4H28V29h2Zm6,0V29h2.367l-.25,2Zm2.617-4H36V25h2.867ZM30,25v2H28V25Z"></path><path d="M44,2H20a7.008,7.008,0,0,0-7,7V31.152l-6.238,10.8A16.893,16.893,0,0,0,4.586,52.332L5.673,62.11l1.988-.22L6.574,52.111a14.9,14.9,0,0,1,1.92-9.16L13,35.151V48.124l-.563.974,1.733,1,5-8.66a2,2,0,0,1,3.464,2l-3.5,6.062a1,1,0,0,0-.063.872l1.285,3.211A8.975,8.975,0,0,1,21,56.926v1.3a8.96,8.96,0,0,1-.664,3.393l1.851.754c.051-.124.088-.252.134-.377H44a7.008,7.008,0,0,0,7-7V9A7.008,7.008,0,0,0,44,2ZM20,4H44a5.006,5.006,0,0,1,5,5v1H15V9A5.006,5.006,0,0,1,20,4Zm4.366,40.438a4,4,0,0,0-6.929-4L15,44.66V12H49V52H21.877l-.769-1.92ZM44,60H22.846A10.985,10.985,0,0,0,23,58.23v-1.3A10.96,10.96,0,0,0,22.6,54H49v1A5.006,5.006,0,0,1,44,60Z"></path><rect x="25" y="6" width="2" height="2"></rect><rect x="29" y="6" width="6" height="2"></rect><rect x="30" y="56" width="4" height="2"></rect><path d="M22,14H18a1,1,0,0,0-1,1v4h2V16h3Z"></path><rect x="17" y="21" width="2" height="2"></rect></g></svg>