<svg xmlns="http://www.w3.org/2000/svg" viewBox="0 0 64 64" x="0px" y="0px"><g><path d="M55,11v3H53V11a5,5,0,0,0-5-5H46a5,5,0,0,0-5,5V31a7.008,7.008,0,0,1-7,7H26a7.005,7.005,0,0,1-6.71-5h2.12A5.029,5.029,0,0,0,26,36h8a5,5,0,0,0,5-5V11a7.008,7.008,0,0,1,7-7h2A7.008,7.008,0,0,1,55,11Z"></path><path d="M25.019,53.12a.989.989,0,0,1,.662-.008l5.734,1.937,20.344-7.405a2,2,0,0,0-1.367-3.759L43.9,46.247a3.949,3.949,0,0,1-.043.537,4.007,4.007,0,0,1-4.635,3.258L27.965,48.057l.347-1.97L39.57,48.073a2.018,2.018,0,0,0,2.319-1.627,1.827,1.827,0,0,0-.008-.677c-.007-.035-.013-.071-.017-.106a1.115,1.115,0,0,0-.067-.243,2.007,2.007,0,0,0-1.534-1.29L26.938,41.78l-6.279,2.285,3.42,9.4Z"></path><polygon points="22.884 56.025 18.437 43.809 18.437 43.809 18.096 42.87 12.457 44.922 17.245 58.078 22.884 56.025"></polygon><rect x="7.153" y="47.21" width="6" height="12" transform="translate(-17.587 6.682) rotate(-20.001)"></rect><path d="M58,23V17.554A9.378,9.378,0,0,0,54,16a9.383,9.383,0,0,0-4,1.556l0,0V23a1,1,0,0,0,1,1h6A1,1,0,0,0,58,23Zm-4-3a1,1,0,1,1,1-1A1,1,0,0,1,54,20Z"></path><polygon points="54 37.882 55 37.382 55 26 53 26 53 37.382 54 37.882"></polygon><rect x="24" y="24" width="2" height="2"></rect><circle cx="20" cy="16" r="2"></circle><path d="M20,4.224,5,14.814a.785.785,0,0,0,.316,1.415.771.771,0,0,0,.6-.14l13.494-9.9a1,1,0,0,1,1.184,0l13.494,9.9A.786.786,0,1,0,35,14.814Z"></path><path d="M29,30V14.841l-9-6.6-9,6.6V30h2V23a1,1,0,0,1,1-1h6a1,1,0,0,1,1,1v7Zm-1-7v4a1,1,0,0,1-1,1H23a1,1,0,0,1-1-1V23a1,1,0,0,1,1-1h4A1,1,0,0,1,28,23Zm-8-3a4,4,0,1,1,4-4A4,4,0,0,1,20,20Z"></path><rect x="15" y="24" width="4" height="6"></rect></g></svg>