<svg xmlns="http://www.w3.org/2000/svg" viewBox="0 0 64 64" x="0px" y="0px"><g data-name="Development"><path d="M61.9,51.553,56,39.764V8a3,3,0,0,0-3-3H11A3,3,0,0,0,8,8V39.764L2.105,51.553A1,1,0,0,0,2,52v5a2,2,0,0,0,2,2H60a2,2,0,0,0,2-2V52A1,1,0,0,0,61.9,51.553ZM29,53h6v1H29ZM4.618,51l5-10H54.382l5,10ZM10,15H54V39H10Zm1-8H53a1,1,0,0,1,1,1v5H10V8A1,1,0,0,1,11,7ZM4,57V53H27v1a2,2,0,0,0,2,2h6a2,2,0,0,0,2-2V53H60v4Z"></path><rect x="10" y="47" width="2" height="2"></rect><rect x="14" y="47" width="2" height="2"></rect><rect x="18" y="47" width="28" height="2"></rect><rect x="48" y="47" width="2" height="2"></rect><rect x="52" y="47" width="2" height="2"></rect><rect x="15" y="43" width="2" height="2"></rect><rect x="11" y="43" width="2" height="2"></rect><rect x="19" y="43" width="2" height="2"></rect><rect x="23" y="43" width="2" height="2"></rect><rect x="27" y="43" width="2" height="2"></rect><rect x="31" y="43" width="2" height="2"></rect><rect x="35" y="43" width="2" height="2"></rect><rect x="39" y="43" width="2" height="2"></rect><rect x="43" y="43" width="2" height="2"></rect><rect x="47" y="43" width="2" height="2"></rect><rect x="51" y="43" width="2" height="2"></rect><rect x="12" y="9" width="2" height="2"></rect><rect x="16" y="9" width="2" height="2"></rect><rect x="20" y="9" width="2" height="2"></rect><path d="M25.293,21.293l-5,5a1,1,0,0,0,0,1.414l5,5,1.414-1.414L22.414,27l4.293-4.293Z"></path><path d="M38.707,21.293l-1.414,1.414L41.586,27l-4.293,4.293,1.414,1.414,5-5a1,1,0,0,0,0-1.414Z"></path><rect x="24.72" y="26" width="14.56" height="2" transform="matrix(0.275, -0.961, 0.961, 0.275, -2.757, 50.344)"></rect></g></svg>