<svg xmlns="http://www.w3.org/2000/svg" viewBox="0 0 64 64" x="0px" y="0px"><g><path d="M59,16H58a3.009,3.009,0,0,0-3-3H53.9A5.017,5.017,0,0,0,49,9H39V6a1,1,0,0,0-1-1H32a1,1,0,0,0-1,1V9H29A25.02,25.02,0,0,0,4.01,33.75l-1.9,3.8A1,1,0,0,0,3,39H46a1,1,0,0,0,1-1V34.51l6.58-4.7A1,1,0,0,0,54,29V21h1a3.009,3.009,0,0,0,3-3h1a1,1,0,0,1,1,1V38a5,5,0,0,1-5,5H21a7,7,0,0,0,0,14H42a3.009,3.009,0,0,0,3,3h4a1,1,0,0,0,1-1h2V57H50V55h2V53H50a1,1,0,0,0-1-1H45a3.009,3.009,0,0,0-3,3H21a5,5,0,0,1,0-10H55a7.008,7.008,0,0,0,7-7V19A3.009,3.009,0,0,0,59,16ZM33,7h4V9H33ZM45,37H4.62l1-2H45Zm7-8.51L45.68,33H6.02A23.031,23.031,0,0,1,29,11H49a3.009,3.009,0,0,1,3,3ZM56,18a1,1,0,0,1-1,1H54V15h1a1,1,0,0,1,1,1ZM44,55a1,1,0,0,1,1-1h3v4H45a1,1,0,0,1-1-1Z"></path><path d="M47,13H32A10.016,10.016,0,0,0,22,23v1a3.009,3.009,0,0,0,3,3H47a3.009,3.009,0,0,0,3-3V16A3.009,3.009,0,0,0,47,13ZM39,25H31V24a1,1,0,0,1,1-1h6a1,1,0,0,1,1,1Zm9-1a1,1,0,0,1-1,1H41V24a3.009,3.009,0,0,0-3-3H32a3.009,3.009,0,0,0-3,3v1H25a1,1,0,0,1-1-1V23a8.011,8.011,0,0,1,8-8H47a1,1,0,0,1,1,1Z"></path></g></svg>