<svg xmlns="http://www.w3.org/2000/svg" viewBox="0 0 64 64" x="0px" y="0px"><g data-name="Business Desk"><path d="M46,44H4a2,2,0,0,0-2,2V60a2,2,0,0,0,2,2H46a2,2,0,0,0,2-2V46A2,2,0,0,0,46,44Zm0,16H4V46H46Z"></path><rect x="10" y="56" width="28" height="2"></rect><rect x="40" y="56" width="4" height="2"></rect><rect x="6" y="56" width="2" height="2"></rect><rect x="10" y="52" width="2" height="2"></rect><rect x="6" y="52" width="2" height="2"></rect><rect x="14" y="52" width="2" height="2"></rect><rect x="18" y="52" width="2" height="2"></rect><rect x="22" y="52" width="2" height="2"></rect><rect x="26" y="52" width="2" height="2"></rect><rect x="30" y="52" width="2" height="2"></rect><rect x="34" y="52" width="2" height="2"></rect><rect x="38" y="52" width="2" height="2"></rect><rect x="42" y="52" width="2" height="2"></rect><rect x="10" y="48" width="2" height="2"></rect><rect x="6" y="48" width="2" height="2"></rect><rect x="14" y="48" width="2" height="2"></rect><rect x="18" y="48" width="2" height="2"></rect><rect x="22" y="48" width="2" height="2"></rect><rect x="26" y="48" width="2" height="2"></rect><rect x="30" y="48" width="2" height="2"></rect><rect x="34" y="48" width="2" height="2"></rect><rect x="38" y="48" width="2" height="2"></rect><rect x="42" y="48" width="2" height="2"></rect><path d="M59,46H55a3,3,0,0,0-3,3v6a5,5,0,0,0,10,0V49A3,3,0,0,0,59,46Zm1,9a3,3,0,0,1-6,0V49a1,1,0,0,1,1-1h4a1,1,0,0,1,1,1Z"></path><rect x="56" y="50" width="2" height="2"></rect><rect x="25" y="6" width="4" height="2"></rect><rect x="25" y="10" width="8" height="2"></rect><path d="M53,32V10a3,3,0,0,0-3-3H46V9h4a1,1,0,0,1,1,1V29H13V10a1,1,0,0,1,1-1h4V7H14a3,3,0,0,0-3,3V32a3,3,0,0,0,3,3H26v5H23v2H41V40H38V35H50A3,3,0,0,0,53,32ZM36,40H28V35h8Zm14-7H14a1,1,0,0,1-1-1V31H51v1A1,1,0,0,1,50,33Z"></path><path d="M17,24v2H47V24H44V8a1,1,0,0,0-.293-.708l-5.009-5A1,1,0,0,0,37.991,2H22a2,2,0,0,0-2,2V24ZM39,5.42,40.583,7H39ZM22,4H37V7a2,2,0,0,0,2,2h3V24H22Z"></path><rect x="25" y="14" width="14" height="2"></rect><rect x="25" y="18" width="14" height="2"></rect></g></svg>