<svg xmlns="http://www.w3.org/2000/svg" viewBox="0 0 64 64" x="0px" y="0px"><g data-name="Robot Controller"><path d="M51,7a5.006,5.006,0,0,0-5-5H18a5.006,5.006,0,0,0-5,5v7H10v2h3V28H10v2h3V42H10v2h3V57a5.006,5.006,0,0,0,5,5H46a5.006,5.006,0,0,0,5-5V44h3V42H51V30h3V28H51V16h3V14H51ZM25,4H39V6H25Zm-.029,50.074L24.1,52.767l1.67-1.669,1.307.874a1,1,0,0,0,1.056.034,7.378,7.378,0,0,1,1.673-.694,1,1,0,0,0,.708-.766L30.82,49h2.36l.309,1.546a1,1,0,0,0,.708.766,7.378,7.378,0,0,1,1.673.694,1,1,0,0,0,1.056-.034l1.307-.874,1.67,1.669-.874,1.307a1,1,0,0,0-.035,1.055,7.4,7.4,0,0,1,.694,1.674,1,1,0,0,0,.766.707L42,57.82V60H37.91A6.075,6.075,0,0,0,38,59a6,6,0,0,0-12,0,6.075,6.075,0,0,0,.09,1H22V57.82l1.546-.31a1,1,0,0,0,.766-.707,7.4,7.4,0,0,1,.694-1.674A1,1,0,0,0,24.971,54.074ZM28,59a4,4,0,0,1,8,0,4.068,4.068,0,0,1-.14,1H28.14A4.068,4.068,0,0,1,28,59ZM49,28H47v2h2V42H46.414l-1.707-1.707-1.414,1.414,2,2A1,1,0,0,0,46,44h3V57a3,3,0,0,1-3,3H44V57a1,1,0,0,0-.8-.98l-1.771-.355a9.291,9.291,0,0,0-.4-.974l1-1.5a1,1,0,0,0-.124-1.263l-2.83-2.83a1,1,0,0,0-1.262-.124l-1.495,1a9.623,9.623,0,0,0-.975-.4L34.98,47.8A1,1,0,0,0,34,47H30a1,1,0,0,0-.98.8l-.355,1.771a9.623,9.623,0,0,0-.975.4l-1.5-1a1,1,0,0,0-1.262.124l-2.83,2.83a1,1,0,0,0-.124,1.263l1,1.5a9.291,9.291,0,0,0-.4.974L20.8,56.02A1,1,0,0,0,20,57v3H18a3,3,0,0,1-3-3V44h3a1,1,0,0,0,.707-.293l3-3-1.414-1.414L17.586,42H15V30h2V28H15V16h2.586l2.707,2.707,1.414-1.414-3-3A1,1,0,0,0,18,14H15V7a3,3,0,0,1,3-3h5V6a2,2,0,0,0,2,2H39a2,2,0,0,0,2-2V4h5a3,3,0,0,1,3,3v7H46a1,1,0,0,0-.707.293l-2,2,1.414,1.414L46.414,16H49Z"></path><path d="M59,18a3,3,0,1,0-3-3A3,3,0,0,0,59,18Zm0-4a1,1,0,1,1-1,1A1,1,0,0,1,59,14Z"></path><path d="M59,40a3,3,0,1,0,3,3A3,3,0,0,0,59,40Zm0,4a1,1,0,1,1,1-1A1,1,0,0,1,59,44Z"></path><path d="M59,26a3,3,0,1,0,3,3A3,3,0,0,0,59,26Zm0,4a1,1,0,1,1,1-1A1,1,0,0,1,59,30Z"></path><path d="M5,12a3,3,0,1,0,3,3A3,3,0,0,0,5,12Zm0,4a1,1,0,1,1,1-1A1,1,0,0,1,5,16Z"></path><path d="M5,40a3,3,0,1,0,3,3A3,3,0,0,0,5,40Zm0,4a1,1,0,1,1,1-1A1,1,0,0,1,5,44Z"></path><path d="M5,26a3,3,0,1,0,3,3A3,3,0,0,0,5,26Zm0,4a1,1,0,1,1,1-1A1,1,0,0,1,5,30Z"></path><path d="M32,32a3,3,0,1,0-3-3A3,3,0,0,0,32,32Zm0-4a1,1,0,1,1-1,1A1,1,0,0,1,32,28Z"></path><rect x="28" y="19" width="2" height="2"></rect><rect x="34" y="19" width="2" height="2"></rect><path d="M44,22a1,1,0,0,1-1-1H41a3,3,0,0,0,2,2.816V24a3,3,0,0,1-3,3H38a1,1,0,0,0-.1-.447L36.618,24H37a3,3,0,0,0,3-3V19a3,3,0,0,0-3-3V13H35v3H29V13H27v3a3,3,0,0,0-3,3v2a3,3,0,0,0,3,3h.382l-1.277,2.553A1,1,0,0,0,26,27H24a3,3,0,0,1-3-3v-.184A3,3,0,0,0,23,21H21a1,1,0,0,1-2,0H17a3,3,0,0,0,2,2.816V24a5.006,5.006,0,0,0,5,5h2v5a1,1,0,0,0,.052.316l.574,1.722A2.992,2.992,0,0,0,27,42H37a2.992,2.992,0,0,0,.374-5.962l.574-1.722A1,1,0,0,0,38,34V29h2a5.006,5.006,0,0,0,5-5v-.184A3,3,0,0,0,47,21H45A1,1,0,0,1,44,22ZM26,21V19a1,1,0,0,1,1-1H37a1,1,0,0,1,1,1v2a1,1,0,0,1-1,1H27A1,1,0,0,1,26,21Zm8.382,3L36,27.236v6.6L35.279,36H28.721L28,33.838v-6.6L29.618,24ZM38,39a1,1,0,0,1-1,1H27a1,1,0,0,1,0-2H37A1,1,0,0,1,38,39Z"></path></g></svg>