<svg xmlns="http://www.w3.org/2000/svg" viewBox="0 0 64 64" x="0px" y="0px"><path d="M32,36A11.013,11.013,0,0,0,43,25V21a11,11,0,0,0-22,0v4A11.013,11.013,0,0,0,32,36ZM23,21a9,9,0,0,1,18,0v4a9,9,0,0,1-18,0Z"></path><path d="M46.689,41.3,45.4,40.891a5.948,5.948,0,0,0-1.439-2.874A14.9,14.9,0,0,0,47,29V17a15,15,0,0,0-30,0V29a14.9,14.9,0,0,0,3.041,9.017A5.948,5.948,0,0,0,18.6,40.891l-1.289.4A8.949,8.949,0,0,0,11,49.88V61a1,1,0,0,0,1,1H52a1,1,0,0,0,1-1V49.88A8.948,8.948,0,0,0,46.689,41.3ZM19,17a13,13,0,0,1,26,0V29a13,13,0,0,1-26,0ZM32,44a14.949,14.949,0,0,0,10.638-4.438,3.863,3.863,0,0,1,.247,4.558,13.017,13.017,0,0,1-21.767,0,3.865,3.865,0,0,1,.244-4.562A14.949,14.949,0,0,0,32,44ZM51,60H45.917a8.12,8.12,0,0,0-1.21-9.707l-1.414,1.414A6.625,6.625,0,0,1,45,56a6.719,6.719,0,0,1-1.177,3.638c-.08.118-.147.24-.215.362H20.391c-.068-.123-.135-.245-.216-.364A6.721,6.721,0,0,1,19,56a6.625,6.625,0,0,1,1.707-4.293l-1.414-1.414A8.122,8.122,0,0,0,18.082,60H13V49.88A6.958,6.958,0,0,1,17.91,43.2l.673-.211a5.865,5.865,0,0,0,.862,2.228,15.015,15.015,0,0,0,25.113,0,5.855,5.855,0,0,0,.86-2.223l.675.212A6.957,6.957,0,0,1,51,49.88Z"></path><circle cx="28" cy="21" r="2"></circle><circle cx="36" cy="21" r="2"></circle><path d="M32,30a4.994,4.994,0,0,0,3.307-1.25l-1.323-1.5a3.076,3.076,0,0,1-3.968,0l-1.323,1.5A4.994,4.994,0,0,0,32,30Z"></path></svg>