<svg xmlns="http://www.w3.org/2000/svg" viewBox="0 0 64 64" x="0px" y="0px"><title>Bag-Business</title><g><path d="M20,25v9a1,1,0,0,0,1,1H43a1,1,0,0,0,1-1V25a1,1,0,0,0,1-1V16a1,1,0,0,0-1-1H37V12a1,1,0,0,0-1-1H28a1,1,0,0,0-1,1v3H20a1,1,0,0,0-1,1v8A1,1,0,0,0,20,25Zm2,0h6v1a1,1,0,0,0,1,1v6H22Zm9-8h2v4H31Zm-1,6h4v2H30Zm1,10V27h2v6Zm11,0H35V27a1,1,0,0,0,1-1V25h6Zm1-10H36V22a1,1,0,0,0-1-1V17h8ZM29,13h6v2H29Zm-8,4h8v4a1,1,0,0,0-1,1v1H21Z"></path><path d="M59,2H5A3,3,0,0,0,2,5V45a3,3,0,0,0,3,3H22.9l-.8,8H19a1,1,0,0,0-1,1v3H16v2H48V60H46V57a1,1,0,0,0-1-1H41.905l-.8-8H59a3,3,0,0,0,3-3V5A3,3,0,0,0,59,2ZM44,58v2H20V58ZM24.105,56l.8-8H39.1l.8,8ZM60,45a1,1,0,0,1-1,1H5a1,1,0,0,1-1-1V5A1,1,0,0,1,5,4H59a1,1,0,0,1,1,1Z"></path><path d="M56,6H8A2,2,0,0,0,6,8V39a1,1,0,0,0,1,1H57a1,1,0,0,0,1-1V8A2,2,0,0,0,56,6Zm0,32H8V8H56Z"></path><rect x="31" y="42" width="2" height="2"></rect></g></svg>