<svg xmlns="http://www.w3.org/2000/svg" viewBox="0 0 64 64" x="0px" y="0px"><g><circle cx="32" cy="10" r="2"></circle><circle cx="54" cy="32" r="2"></circle><circle cx="32" cy="54" r="2"></circle><circle cx="10" cy="32" r="2"></circle><rect x="8" y="4" width="4" height="1"></rect><path d="M5,4A1,1,0,0,0,4,5V22a1,1,0,0,0,1,1H15a1,1,0,0,0,1-1V5a1,1,0,0,0-1-1H14V6a1,1,0,0,1-1,1H7A1,1,0,0,1,6,6V4Zm6,9h2v2H11ZM7,13H9v2H7Z"></path><path d="M49,4a1,1,0,0,0-1,1V22a1,1,0,0,0,1,1H59a1,1,0,0,0,1-1V5a1,1,0,0,0-1-1H58V6a1,1,0,0,1-1,1H51a1,1,0,0,1-1-1V4Zm6,9h2v2H55Zm-4,0h2v2H51Z"></path><rect x="52" y="4" width="4" height="1"></rect><path d="M5,60H15a1,1,0,0,0,1-1V42a1,1,0,0,0-1-1H14v2a1,1,0,0,1-1,1H7a1,1,0,0,1-1-1V41H5a1,1,0,0,0-1,1V59A1,1,0,0,0,5,60Zm6-10h2v2H11ZM7,50H9v2H7Z"></path><rect x="8" y="41" width="4" height="1"></rect><rect x="52" y="41" width="4" height="1"></rect><path d="M49,60H59a1,1,0,0,0,1-1V42a1,1,0,0,0-1-1H58v2a1,1,0,0,1-1,1H51a1,1,0,0,1-1-1V41H49a1,1,0,0,0-1,1V59A1,1,0,0,0,49,60Zm6-10h2v2H55Zm-4,0h2v2H51Z"></path><circle cx="32" cy="26" r="1"></circle><path d="M39,21H25V43H39Zm-7,2a3,3,0,1,1-3,3A3,3,0,0,1,32,23Zm4,16H28V37h8Zm0-4H28V33h8Z"></path><rect x="31" y="14" width="2" height="5"></rect><rect x="36" y="9" width="10" height="2"></rect><rect x="18" y="9" width="10" height="2"></rect><rect x="31" y="45" width="2" height="5"></rect><rect x="18" y="53" width="10" height="2"></rect><rect x="36" y="53" width="10" height="2"></rect><rect x="9" y="36" width="2" height="3"></rect><rect x="9" y="25" width="2" height="3"></rect><rect x="53" y="25" width="2" height="3"></rect><rect x="53" y="36" width="2" height="3"></rect><rect x="41" y="31" width="9" height="2"></rect><rect x="14" y="31" width="9" height="2"></rect></g></svg>