<svg xmlns="http://www.w3.org/2000/svg" viewBox="0 0 64 64" x="0px" y="0px"><g data-name="Cash"><rect x="14.223" y="42.253" width="8" height="16" transform="translate(-16.088 9.263) rotate(-19.999)"></rect><path d="M37.732,54,59.15,41.634a1.983,1.983,0,0,0,1-1.734,2,2,0,0,0-3-1.731l-9.193,5.306A3.992,3.992,0,0,1,44,47H33V45H44a2,2,0,0,0,2-2,1.691,1.691,0,0,0-.116-.644,1.915,1.915,0,0,0-.471-.769A1.983,1.983,0,0,0,44,41H29.259l-6.668,3.71L25.972,54Z"></path><rect x="6.766" y="47.331" width="6" height="12" transform="translate(-17.65 6.556) rotate(-19.999)"></rect><path d="M10,8A1,1,0,0,0,9,9v1.184A2.966,2.966,0,0,1,10,10H54a2.966,2.966,0,0,1,1,.184V9a1,1,0,0,0-1-1Z"></path><path d="M55,5a1,1,0,0,0-1-1H10A1,1,0,0,0,9,5V6.184A2.966,2.966,0,0,1,10,6H54a2.966,2.966,0,0,1,1,.184Z"></path><circle cx="32" cy="23" r="5"></circle><path d="M10,34H54a1,1,0,0,0,1-1V13a1,1,0,0,0-1-1H10a1,1,0,0,0-1,1V33A1,1,0,0,0,10,34ZM47,15h4a1,1,0,0,1,1,1v4H50V17H47Zm0,14h3V26h2v4a1,1,0,0,1-1,1H47Zm-5-7h2v2H42ZM32,16a7,7,0,1,1-7,7A7.008,7.008,0,0,1,32,16ZM20,22h2v2H20Zm-8-6a1,1,0,0,1,1-1h4v2H14v3H12Zm0,10h2v3h3v2H13a1,1,0,0,1-1-1Z"></path></g></svg>