<svg xmlns="http://www.w3.org/2000/svg" viewBox="0 0 64 64" x="0px" y="0px"><g><path d="M34.062,20a8,8,0,0,1,2.652-5H12a6.01,6.01,0,0,0-5.917,5Z"></path><rect x="6" y="22" width="28" height="2"></rect><path d="M42,15a6.006,6.006,0,0,0-6,6v3h6Z"></path><path d="M31.99,44a5.765,5.765,0,0,1,4.481,2.316C37.353,47.257,38.05,48,39.492,48A3.278,3.278,0,0,0,42,46.847V26H14V44.951a4.88,4.88,0,0,1,2-.854V30a1,1,0,0,1,1-1H27a1,1,0,0,1,1,1V45.808A5.3,5.3,0,0,1,31.99,44ZM30,30a1,1,0,0,1,1-1h8a1,1,0,0,1,1,1V40a1,1,0,0,1-1,1H31a1,1,0,0,1-1-1Z"></path><path d="M46.991,44a5.767,5.767,0,0,1,4.482,2.316C52.355,47.257,53.052,48,54.5,48A3.028,3.028,0,0,0,56,47.633V11H44V44.948A4.939,4.939,0,0,1,46.991,44Z"></path><rect x="32" y="31" width="6" height="8"></rect><rect x="14" y="11" width="28" height="2"></rect><path d="M21.472,46.316C22.354,47.257,23.05,48,24.491,48A3.02,3.02,0,0,0,26,47.629V31H18V44.1A6.222,6.222,0,0,1,21.472,46.316Z"></path><path d="M5.019,59.684C4.137,58.743,3.44,58,2,58v3H6.434A10.524,10.524,0,0,1,5.019,59.684Z"></path><path d="M58.978,53.684a5.495,5.495,0,0,1-8.964,0C49.131,52.743,48.435,52,46.991,52s-2.138.743-3.02,1.684a5.49,5.49,0,0,1-8.959,0C34.13,52.743,33.433,52,31.99,52s-2.138.743-3.02,1.684A5.76,5.76,0,0,1,24.491,56a5.758,5.758,0,0,1-4.478-2.316C19.131,52.743,18.435,52,16.994,52s-2.138.743-3.019,1.684A5.758,5.758,0,0,1,9.5,56a5.757,5.757,0,0,1-4.478-2.316C4.137,52.743,3.44,52,2,52v4a5.758,5.758,0,0,1,4.478,2.316C7.359,59.257,8.056,60,9.5,60s2.137-.743,3.019-1.684A5.758,5.758,0,0,1,16.994,56a5.758,5.758,0,0,1,4.478,2.316C22.354,59.257,23.05,60,24.491,60s2.138-.743,3.02-1.684a5.491,5.491,0,0,1,8.96,0C37.353,59.257,38.05,60,39.492,60s2.138-.743,3.02-1.684a5.492,5.492,0,0,1,8.961,0C52.355,59.257,53.052,60,54.5,60s2.141-.743,3.024-1.685A5.765,5.765,0,0,1,62,56V52C60.558,52,59.86,52.743,58.978,53.684Z"></path><path d="M58.978,47.684a5.495,5.495,0,0,1-8.964,0C49.131,46.743,48.435,46,46.991,46s-2.138.743-3.02,1.684a5.49,5.49,0,0,1-8.959,0C34.13,46.743,33.433,46,31.99,46s-2.138.743-3.02,1.684A5.76,5.76,0,0,1,24.491,50a5.758,5.758,0,0,1-4.478-2.316C19.131,46.743,18.435,46,16.994,46s-2.138.743-3.019,1.684A5.758,5.758,0,0,1,9.5,50a5.757,5.757,0,0,1-4.478-2.316C4.137,46.743,3.44,46,2,46v4a5.758,5.758,0,0,1,4.478,2.316C7.359,53.257,8.056,54,9.5,54s2.137-.743,3.019-1.684A5.758,5.758,0,0,1,16.994,50a5.758,5.758,0,0,1,4.478,2.316C22.354,53.257,23.05,54,24.491,54s2.138-.743,3.02-1.684a5.491,5.491,0,0,1,8.96,0C37.353,53.257,38.05,54,39.492,54s2.138-.743,3.02-1.684a5.492,5.492,0,0,1,8.961,0C52.355,53.257,53.052,54,54.5,54s2.141-.743,3.024-1.685A5.765,5.765,0,0,1,62,50V46C60.558,46,59.86,46.743,58.978,47.684Z"></path><path d="M58.978,59.684A10.482,10.482,0,0,1,57.561,61H62V58C60.558,58,59.86,58.743,58.978,59.684Z"></path><path d="M50.014,59.684C49.131,58.743,48.435,58,46.991,58s-2.138.743-3.02,1.684A10.471,10.471,0,0,1,42.555,61H51.43A10.471,10.471,0,0,1,50.014,59.684Z"></path><path d="M35.012,59.684C34.13,58.743,33.433,58,31.99,58s-2.138.743-3.02,1.684A10.471,10.471,0,0,1,27.554,61h8.874A10.411,10.411,0,0,1,35.012,59.684Z"></path><path d="M20.013,59.684C19.131,58.743,18.435,58,16.994,58s-2.138.743-3.019,1.684A10.52,10.52,0,0,1,12.56,61h8.868A10.524,10.524,0,0,1,20.013,59.684Z"></path></g></svg>