<svg xmlns="http://www.w3.org/2000/svg" viewBox="0 0 64 64" x="0px" y="0px"><title>DNA-Artificial Intelligence-Robotics-Engineering</title><g data-name="DNA Artificial Intelligence"><path d="M5.053,4.164c.011.119.031.232.045.349.03.253.062.5.106.748.026.14.06.276.09.413.046.206.094.41.149.609.045.158.1.313.147.468s.108.319.168.474c.071.184.145.366.225.544.046.1.1.207.144.309.108.223.22.444.342.659l.051.088c1.582,2.731,4.271,4.864,7.455,7.093l2.418-1.713c.072-.055.143-.112.215-.168C19.956,11.443,23,8.292,23,3H5C5,3.4,5.02,3.787,5.053,4.164ZM18,11H10V9h8Zm3-7V6H7V4Z"></path><path d="M41.054,4.164c.01.118.029.23.043.345.03.255.063.509.108.754.025.138.058.271.088.406.046.209.095.416.151.617.045.155.094.308.145.459s.11.326.171.485c.069.18.142.358.22.532.049.109.1.217.151.324.106.217.215.433.334.643.02.036.042.071.062.107,1.583,2.725,4.269,4.856,7.448,7.082l2.418-1.713c.072-.055.143-.112.215-.168C55.956,11.443,59,8.292,59,3H41C41,3.4,41.02,3.787,41.054,4.164ZM54,11H46V9h8Zm3-7V6H43V4Z"></path><path d="M59.879,59.25a11.693,11.693,0,0,0-3.241-6.589A27.586,27.586,0,0,0,52,48.833l-2-1.326q-.675.438-1.336.878l-.028.019q-.474.316-.938.638l-.071.049q-.461.321-.905.646l-.04.029c-.307.227-.61.456-.905.689l-.005,0a16.3,16.3,0,0,0-4.387,4.9l-.013.024c-.162.3-.309.608-.444.924-.011.024-.023.047-.033.071-.126.3-.235.609-.336.924-.014.046-.032.088-.046.134-.09.3-.163.6-.231.918-.014.069-.035.134-.049.2-.059.3-.1.62-.136.94-.01.084-.027.163-.035.248C40.021,60.148,40,60.567,40,61H60A12.939,12.939,0,0,0,59.879,59.25ZM46,53h8v2H46Zm-3,7V58H57v2Z"></path><path d="M23.879,59.25a11.693,11.693,0,0,0-3.241-6.589A27.586,27.586,0,0,0,16,48.833l-2-1.324c-3.862,2.51-7.471,5-9.1,8.839l-.009.019c-.131.312-.246.635-.351.966-.01.032-.023.063-.033.095-.093.306-.169.624-.238.947-.012.06-.03.117-.042.178-.061.309-.1.631-.14.956-.009.079-.025.153-.032.233C4.021,60.148,4,60.567,4,61H24A12.939,12.939,0,0,0,23.879,59.25ZM10,53h8v2H10ZM7,60V58H21v2Z"></path><path d="M59.905,30.5c-.035-.3-.07-.591-.125-.873-.021-.11-.054-.213-.078-.321-.058-.256-.113-.513-.186-.759-.034-.111-.078-.215-.114-.324-.078-.234-.154-.469-.245-.694-.039-.094-.087-.182-.128-.275-.1-.231-.2-.463-.319-.685-.04-.076-.087-.147-.128-.221-.128-.233-.257-.465-.4-.689-.034-.052-.072-.1-.106-.152-.159-.24-.322-.479-.5-.709-.026-.034-.055-.066-.081-.1-.19-.245-.384-.486-.589-.72-.012-.014-.026-.027-.038-.041a37.467,37.467,0,0,0-6.886-5.581l-2.052,1.452c-.022.016-.043.033-.065.048.284.371.559.749.818,1.14H52v2H49.836a19.891,19.891,0,0,1,1.242,3H56v2H51.6a19.99,19.99,0,0,1,.352,3H58v2H51.949a19.99,19.99,0,0,1-.352,3H56v2H51.078a19.891,19.891,0,0,1-1.242,3H52v2H48.686c-.192.289-.394.57-.6.849l1.918,1.266q.931-.6,1.837-1.208l.219-.149c.228-.154.453-.31.676-.466.114-.079.226-.16.339-.241q.28-.2.557-.4c.132-.1.26-.2.39-.3.161-.123.323-.246.481-.372.139-.11.273-.223.409-.335s.288-.238.428-.359.273-.244.407-.367.259-.235.384-.355.265-.266.4-.4c.115-.118.232-.235.343-.356.129-.141.25-.286.372-.43.1-.121.208-.24.3-.363.12-.151.23-.307.342-.462.089-.125.183-.247.268-.375.108-.161.205-.329.3-.5.077-.128.159-.255.23-.387.095-.173.177-.355.262-.534.064-.134.133-.264.191-.4.08-.188.146-.385.215-.58.049-.137.1-.271.149-.412.065-.209.113-.427.166-.643.033-.138.074-.27.1-.411.049-.242.079-.495.112-.747.017-.126.042-.246.055-.375C59.98,32.807,60,32.41,60,32s-.019-.827-.056-1.221C59.935,30.684,59.916,30.6,59.905,30.5Z"></path><polygon points="29 29 29 35 35 35 35 31.411 32.586 29 29 29"></polygon><path d="M39,25H25V39H39ZM37,36a1,1,0,0,1-1,1H28a1,1,0,0,1-1-1V28a1,1,0,0,1,1-1h5a1,1,0,0,1,.707.293l3,3A1,1,0,0,1,37,31Z"></path><path d="M11.558,43.5l2.447,1.615.277-.181c.478-.313.957-.626,1.432-.946l.209-.142c-.207-.28-.417-.556-.609-.846H12V41h2.164a19.891,19.891,0,0,1-1.242-3H8V36h4.4a19.99,19.99,0,0,1-.352-3H6V31h6.051a19.99,19.99,0,0,1,.352-3H8V26h4.922a19.891,19.891,0,0,1,1.242-3H12V21h3.314c.257-.388.537-.758.819-1.127-.711-.512-1.434-1.019-2.148-1.512l-2.049,1.45h0A26.853,26.853,0,0,0,6.7,24.451l-.045.055c-.135.166-.26.336-.385.506-.084.115-.168.23-.248.348-.06.087-.117.176-.174.264-.13.2-.256.4-.374.614l-.039.07A11.178,11.178,0,0,0,4.18,29.86l0,.022c-.051.3-.088.611-.117.927,0,.041-.011.08-.014.122C4.016,31.278,4,31.634,4,32,4,37.21,7.021,40.367,11.558,43.5Z"></path><path d="M32,50A18,18,0,1,0,14,32,18.021,18.021,0,0,0,32,50ZM17,33V31h6V29H21a1,1,0,0,1-.707-.293L18.586,27H17V25h2a1,1,0,0,1,.707.293L21.414,27H23V24a1,1,0,0,1,1-1h3V21.414l-1.707-1.707A1,1,0,0,1,25,19V17h2v1.586l1.707,1.707A1,1,0,0,1,29,21v2h2V17h2v6h2V21a1,1,0,0,1,.293-.707L37,18.586V17h2v2a1,1,0,0,1-.293.707L37,21.414V23h3a1,1,0,0,1,1,1v3h1.586l1.707-1.707A1,1,0,0,1,45,25h2v2H45.414l-1.707,1.707A1,1,0,0,1,43,29H41v2h6v2H41v2h2a1,1,0,0,1,.707.293L45.414,37H47v2H45a1,1,0,0,1-.707-.293L42.586,37H41v3a1,1,0,0,1-1,1H37v1.586l1.707,1.707A1,1,0,0,1,39,45v2H37V45.414l-1.707-1.707A1,1,0,0,1,35,43V41H33v6H31V41H29v2a1,1,0,0,1-.293.707L27,45.414V47H25V45a1,1,0,0,1,.293-.707L27,42.586V41H24a1,1,0,0,1-1-1V37H21.414l-1.707,1.707A1,1,0,0,1,19,39H17V37h1.586l1.707-1.707A1,1,0,0,1,21,35h2V33Z"></path></g></svg>