<svg xmlns="http://www.w3.org/2000/svg" viewBox="0 0 64 64" x="0px" y="0px"><g data-name="Chichen Itza Pyramid-Landmark-Mexico-Pyramids-Chichen Itza"><path d="M61,54H60V49a1,1,0,0,0-1-1H58V43a1,1,0,0,0-1-1H56V37a1,1,0,0,0-1-1H54V31a1,1,0,0,0-1-1H52V25a1,1,0,0,0-1-1H50V19a1,1,0,0,0-1-1H42V8h2V6H42V4h2V2H20V4h2V6H20V8h2V18H15a1,1,0,0,0-1,1v5H13a1,1,0,0,0-1,1v5H11a1,1,0,0,0-1,1v5H9a1,1,0,0,0-1,1v5H7a1,1,0,0,0-1,1v5H5a1,1,0,0,0-1,1v5H3a1,1,0,0,0-1,1v6a1,1,0,0,0,1,1H61a1,1,0,0,0,1-1V55A1,1,0,0,0,61,54ZM54,38v4H41.75l-.48-4Zm-2-6v4H41.03l-.48-4Zm-2-6v4H40.32l-.48-4Zm-2-6v4H39.6l-.47-4ZM24,4H40V6H24Zm0,4H40V18H37V15a5,5,0,0,0-10,0v3H24Zm3.65,44,.14-2h8.42l.14,2Zm8.85,2,.14,2H27.36l.14-2Zm-8.57-6,.14-2h7.86l.14,2ZM34.5,26l.14,2H29.36l.14-2Zm-4.85-2,.28-4h4.14l.28,4Zm5.13,6,.15,2H29.07l.15-2ZM29,18V15a3,3,0,0,1,6,0v3Zm6.07,16,.14,2H28.79l.14-2Zm.28,4,.15,2h-7l.15-2Zm.29,4,.14,2H28.22l.14-2ZM16,20h8.87l-.47,4H16Zm-2,6H24.16l-.48,4H14Zm-2,6H23.45l-.48,4H12Zm-2,6H22.73l-.48,4H10ZM20.11,60H4V56H20.59Zm.72-6H6V50H21.3Zm.71-6H8V44H22.02Zm3.53,12H22.13l4.76-40h1.04Zm2,0,.15-2h9.56l.15,2Zm11.86,0L36.07,20h1.04l4.76,40Zm3.05-16H56v4H42.46Zm.72,6H58v4H43.17ZM60,60H43.89l-.48-4H60Z"></path></g></svg>