<svg xmlns="http://www.w3.org/2000/svg" viewBox="0 0 64 64" x="0px" y="0px"><g><path d="M59.9,54.553,54,42.764V17a2.978,2.978,0,0,0-.467-1.58l5.049-3.607a1,1,0,0,0,0-1.626l-7-5A1,1,0,0,0,51,5H42a3,3,0,0,0-3-3H27a3,3,0,0,0-3,3H11a6,6,0,0,0-.988,11.911c0,.03-.012.059-.012.089V42.764L4.105,54.553A1,1,0,0,0,4,55v4a3,3,0,0,0,3,3H57a3,3,0,0,0,3-3V55A1,1,0,0,0,59.9,54.553ZM29,56h6v1H29ZM6.618,54l5-10H52.382l5,10ZM52,17V42H12V17H22v2a1,1,0,0,0,.105.447L24,23.236V37a1,1,0,0,0,1,1H41a1,1,0,0,0,1-1V17h9a1,1,0,0,0,.581-.186l.32-.229A.982.982,0,0,1,52,17ZM16,15V7h2v8Zm9-6a.978.978,0,0,1,.713.306A.965.965,0,0,1,26,10v4a1,1,0,0,0,1,1,4.919,4.919,0,0,1,2.765.838,4.8,4.8,0,0,1,.954.833A4.95,4.95,0,0,1,32,20h2a6.958,6.958,0,0,0-.681-3H40v9H26V23a1,1,0,0,0-.105-.447L24,18.764V10A1,1,0,0,1,25,9Zm4.162,4.351c-.077-.025-.153-.052-.231-.074.024-.021.049-.039.072-.06C29.055,13.264,29.108,13.307,29.162,13.351ZM26,28H40v8H26ZM55,11.914V10.086L56.28,11ZM53,8.657v4.686L50.68,15h-.406A1.979,1.979,0,0,1,50,14a2,2,0,0,1,2-2V10a2,2,0,0,1-2-2,1.979,1.979,0,0,1,.274-1h.406ZM48.143,7A3.992,3.992,0,0,0,48,8a3.959,3.959,0,0,0,.556,2H44v2h4.556a3.771,3.771,0,0,0-.413,3H31.868a6.515,6.515,0,0,0-1-.829c-.119-.081-.246-.148-.37-.22A3.071,3.071,0,0,0,31,14a2.977,2.977,0,0,0,2-.783A2.936,2.936,0,0,0,35,14a2.977,2.977,0,0,0,2-.783A2.936,2.936,0,0,0,39,14a3,3,0,0,0,3-3V7ZM40,5v6a1,1,0,0,1-1,1,.978.978,0,0,1-.713-.306A.965.965,0,0,1,38,11V4h1A1,1,0,0,1,40,5Zm-4,6a1,1,0,0,1-1,1,.978.978,0,0,1-.713-.306A.965.965,0,0,1,34,11V4h2Zm-4,0a1,1,0,0,1-1,1,.978.978,0,0,1-.713-.306A.965.965,0,0,1,30,11V4h2ZM27,4h1v6a2.994,2.994,0,0,0-2-2.818V5A1,1,0,0,1,27,4ZM24,7.184A3,3,0,0,0,22,10v5H20V7h4ZM7,11a3.984,3.984,0,0,1,4-4h3v8H11A4,4,0,0,1,7,11ZM57,60H7a1,1,0,0,1-1-1V56H27v1a2,2,0,0,0,2,2h6a2,2,0,0,0,2-2V56H58v3A1,1,0,0,1,57,60Z"></path><rect x="12" y="50" width="2" height="2"></rect><rect x="16" y="50" width="32" height="2"></rect><rect x="50" y="50" width="2" height="2"></rect><rect x="13" y="46" width="2" height="2"></rect><rect x="17" y="46" width="4" height="2"></rect><rect x="23" y="46" width="2" height="2"></rect><rect x="27" y="46" width="2" height="2"></rect><rect x="31" y="46" width="2" height="2"></rect><rect x="35" y="46" width="2" height="2"></rect><rect x="39" y="46" width="2" height="2"></rect><rect x="45" y="46" width="2" height="2"></rect><rect x="49" y="46" width="2" height="2"></rect><path d="M47,34a3,3,0,1,0,3,3A3,3,0,0,0,47,34Zm0,4a1,1,0,1,1,1-1A1,1,0,0,1,47,38Z"></path><rect x="46" y="26" width="2" height="6"></rect><rect x="46" y="22" width="2" height="2"></rect><path d="M17,22a3,3,0,1,0,3,3A3,3,0,0,0,17,22Zm0,4a1,1,0,1,1,1-1A1,1,0,0,1,17,26Z"></path><rect x="16" y="30" width="2" height="6"></rect><rect x="16" y="38" width="2" height="2"></rect><rect x="28" y="30" width="2" height="2"></rect></g></svg>