<svg xmlns="http://www.w3.org/2000/svg" viewBox="0 0 64 64" x="0px" y="0px"><title>VDO-Book</title><g><path d="M15,12H53V42h2V3a1,1,0,0,0-1-1H14A5.006,5.006,0,0,0,9,7V57a5.006,5.006,0,0,0,5,5H32V60H15ZM14,4H53V6H15V8H53v2H14a3,3,0,0,1,0-6ZM11,57V10.974a4.954,4.954,0,0,0,2,.925V59.816A3,3,0,0,1,11,57Z"></path><path d="M20,16a1,1,0,0,0-1,1V27a1,1,0,0,0,1,1H48a1,1,0,0,0,1-1V17a1,1,0,0,0-1-1ZM47,26H21V18H47Z"></path><path d="M59.585,49.188a.994.994,0,0,0-.9-.136L54,50.613V48a2,2,0,0,0-2-2H38a2,2,0,0,0-2,2V60a2,2,0,0,0,2,2H52a2,2,0,0,0,2-2V57.387l4.684,1.561A.983.983,0,0,0,59,59a1,1,0,0,0,1-1V50A1,1,0,0,0,59.585,49.188ZM52,60H38l0-12H52Zm6-3.388-4-1.333V52.721l4-1.333Z"></path></g></svg>