<svg xmlns="http://www.w3.org/2000/svg" viewBox="0 0 64 64" x="0px" y="0px"><title>Grape</title><g><path d="M47,27a7,7,0,0,0-8.261-6.885A6.992,6.992,0,0,0,33,15.079V10.166l9.485,5.691a1,1,0,0,0,1.41-1.3l-1.553-3.106L45.447,9.9a1,1,0,0,0,0-1.79L42.342,6.553,43.9,3.447a1,1,0,0,0-1.41-1.3L33,7.834V3a1,1,0,0,0-2,0V15.073a6.968,6.968,0,0,0-4.481,2.594,6.962,6.962,0,0,0-10.828,2.349A6.99,6.99,0,0,0,14.013,33.7c0,.1-.013.194-.013.3a7.007,7.007,0,0,0,5.733,6.879A7,7,0,0,0,24.4,50.808a7,7,0,1,0,12.486,2.927,6.978,6.978,0,0,0,4.492-9.609,6.98,6.98,0,0,0,1.743-10.887A6.986,6.986,0,0,0,47,27Zm-2,0a4.985,4.985,0,0,1-3.731,4.817,6.6,6.6,0,0,0-1.446-.575,8.9,8.9,0,0,0-2.534-4.673,6.969,6.969,0,0,0,1.7-4.457A4.852,4.852,0,0,1,40,22,5.006,5.006,0,0,1,45,27ZM32.492,39.841a7.091,7.091,0,0,1-1.3.159H31a7,7,0,0,1-5.174-2.286c-.064-.072-.13-.145-.206-.241a6.986,6.986,0,0,1-.6-8.108,3.5,3.5,0,0,1,.19-.3,6.92,6.92,0,0,1,2.017-1.95,6.937,6.937,0,0,0,8.541.755A6.94,6.94,0,0,1,38,33a6.87,6.87,0,0,1-.106,1.2A7.042,7.042,0,0,1,32.492,39.841ZM40.553,7.9,42.764,9l-2.211,1.105a1,1,0,0,0-.448,1.342l.464.928L36.61,10H38a1,1,0,0,0,0-2H36.61l3.959-2.375-.464.928A1,1,0,0,0,40.553,7.9ZM32,17a5,5,0,0,1,4.975,4.457c.017.178.025.356.025.543a5,5,0,0,1-8.8,3.262.446.446,0,0,0-.035-.044.823.823,0,0,0-.065-.09A4.893,4.893,0,0,1,27,22a4.994,4.994,0,0,1,5-5ZM22,18a4.957,4.957,0,0,1,3.493,1.428A7.015,7.015,0,0,0,25,22a6.876,6.876,0,0,0,.977,3.544,9.03,9.03,0,0,0-2.163,2.069,6.771,6.771,0,0,0-1.745-.529,7.023,7.023,0,0,0-2.74.132A5.008,5.008,0,0,1,17,23a4.925,4.925,0,0,1,.285-1.653A4.988,4.988,0,0,1,22,18ZM11,27a5,5,0,0,1,4.077-4.907A6.879,6.879,0,0,0,15,23a7,7,0,0,0,2.226,5.111c-.094.059-.181.124-.271.188-.146.1-.289.21-.426.324-.095.078-.186.159-.276.242q-.186.173-.358.357c-.087.093-.173.185-.255.282-.106.127-.2.259-.3.394-.075.1-.153.2-.222.311-.1.151-.182.309-.267.468-.053.1-.114.192-.162.294a6.875,6.875,0,0,0-.309.758A5.031,5.031,0,0,1,11,27Zm5,7a4.4,4.4,0,0,1,.084-.894,5.036,5.036,0,0,1,.166-.664,4.98,4.98,0,0,1,3.222-3.2,4.926,4.926,0,0,1,3.317.1,8.914,8.914,0,0,0,.473,8.239,7,7,0,0,0-2.118,1.413c-.048,0-.095.008-.144.008A5.006,5.006,0,0,1,16,34Zm5,10a4.976,4.976,0,0,1,3.525-4.764,9,9,0,0,0,5.634,2.72,6.945,6.945,0,0,0-2.029,6.37,9.425,9.425,0,0,0-1.636.636A4.123,4.123,0,0,1,26,49,5.006,5.006,0,0,1,21,44Zm9,16a5,5,0,0,1-2.757-9.169.878.878,0,0,0,.094-.054,7.065,7.065,0,0,1,1.453-.56,7,7,0,0,0,6.1,3.777A4.852,4.852,0,0,1,35,55,5.006,5.006,0,0,1,30,60Zm5-8a5,5,0,1,1,5-5A5.006,5.006,0,0,1,35,52Zm5.3-9.565a7,7,0,0,0-3.851-2.284,9.121,9.121,0,0,0,3.484-6.157c.025,0,.047.006.072.006a7.116,7.116,0,0,0,.888-.065,4.979,4.979,0,0,1-.593,8.5Z"></path></g></svg>