<svg xmlns="http://www.w3.org/2000/svg" viewBox="0 0 64 64" x="0px" y="0px"><g data-name="Handcuff"><rect x="6" y="44" width="18.001" height="6"></rect><rect x="8" y="52" width="15" height="8"></rect><path d="M8,36v6H23V36a1,1,0,0,1,.105-.447L26,29.764V12.5a1.5,1.5,0,0,0-3,0V22H21V8.5a1.5,1.5,0,0,0-3,0V22H16V5.5a1.5,1.5,0,0,0-3,0V22H11V9.5a1.5,1.5,0,0,0-3,0v4.041a4.037,4.037,0,0,1,.827.632A3.973,3.973,0,0,1,10,17v4.764L11.9,25.553A1,1,0,0,1,12,26v3H10V26.236L8.105,22.447A1,1,0,0,1,8,22V17a1.983,1.983,0,0,0-.587-1.413,1.846,1.846,0,0,0-.722-.456A1.965,1.965,0,0,0,4,17V29.7l3.832,5.748A1.006,1.006,0,0,1,8,36Z"></path><rect x="40" y="44" width="18.001" height="6"></rect><rect x="41" y="52" width="15" height="8"></rect><path d="M41,36v6H56V36a1.006,1.006,0,0,1,.168-.555L60,29.7V17a2,2,0,0,0-2-2,1.758,1.758,0,0,0-.639.113,1.912,1.912,0,0,0-.774.474A1.983,1.983,0,0,0,56,17v5a1,1,0,0,1-.1.447L54,26.236V29H52V26a1,1,0,0,1,.1-.447L54,21.764V17a3.92,3.92,0,0,1,2-3.448V9.5a1.5,1.5,0,1,0-3,0V22H51V5.5a1.5,1.5,0,0,0-3,0V22H46V8.5a1.5,1.5,0,0,0-3,0V22H41V12.5a1.5,1.5,0,1,0-3,0V29.764l2.9,5.789A1,1,0,0,1,41,36Z"></path><path d="M38,46H36.858A4,4,0,0,0,33,43H31a4,4,0,0,0-3.858,3H26v2h1.142A4,4,0,0,0,31,51h2a4,4,0,0,0,3.858-3H38Zm-5,3H31a1.993,1.993,0,0,1-1.722-1H31V46H29.278A1.993,1.993,0,0,1,31,45h2a1.993,1.993,0,0,1,1.722,1H33v2h1.722A1.993,1.993,0,0,1,33,49Z"></path></g></svg>