<svg xmlns="http://www.w3.org/2000/svg" viewBox="0 0 64 64" x="0px" y="0px"><g><path d="M60,30A12.01,12.01,0,0,1,48,42H41V37H39v5H33V37H31v5H25V37H23v5H13a9,9,0,0,1-2.6-17.62.987.987,0,0,0,.71-.82A11.007,11.007,0,0,1,22,14c.16,0,.31.01.46.02l.2.01a.99.99,0,0,0,.95-.53,13.985,13.985,0,0,1,26.15,3.98.994.994,0,0,0,.77.79A12.053,12.053,0,0,1,60,30Z"></path><path d="M36.95,53.46l-4.24,4.25a1.014,1.014,0,0,1-1.42,0l-4.24-4.25,1.41-1.41L31,54.59V42h2V54.59l2.54-2.54Z"></path><path d="M25,42v5a5,5,0,0,1-5,5H14.41l2.54,2.54-1.41,1.41-4.25-4.24a1.008,1.008,0,0,1,0-1.42l4.25-4.24,1.41,1.41L14.41,50H20a3.009,3.009,0,0,0,3-3V42Z"></path><path d="M52.71,55.71l-4.25,4.24-1.41-1.41L49.59,56H44a5,5,0,0,1-5-5V42h2v9a3.009,3.009,0,0,0,3,3h5.59l-2.54-2.54,1.41-1.41,4.25,4.24A1.008,1.008,0,0,1,52.71,55.71Z"></path></g></svg>