<svg xmlns="http://www.w3.org/2000/svg" viewBox="0 0 64 64" x="0px" y="0px"><g data-name="Online Store"><path d="M4,51v3a1,1,0,0,0,1,1H59a1,1,0,0,0,1-1V51H37v1a1,1,0,0,1-1,1H28a1,1,0,0,1-1-1V51Z"></path><circle cx="46" cy="28" r="1"></circle><path d="M57,15H47.89l-.9,8.11A.989.989,0,0,1,46,24H29a1,1,0,0,1-.98-.79L26.26,15H7a1,1,0,0,0-1,1V49H58V16A1,1,0,0,0,57,15ZM21,18h4v2H21Zm-4,0h2v2H17Zm-2,6H13V22h2Zm2-2h8v2H17ZM27,37H25V35h2Zm6,0H31V35h2Zm6,0H37V35h2ZM49,47H47V45h2ZM46,31a3.01,3.01,0,0,1-2.82-2H32.82a3,3,0,1,1,0-2H43.18A3,3,0,1,1,46,31ZM56,46a1,1,0,0,1-1,1H51V45h3V42h2Z"></path><circle cx="30" cy="28" r="1"></circle><polygon points="45.105 22 45.216 21 29.594 21 29.809 22 45.105 22"></polygon><polygon points="45.883 15 28.309 15 28.523 16 45.772 16 45.883 15"></polygon><polygon points="45.549 18 28.951 18 29.166 19 45.438 19 45.549 18"></polygon><path d="M28.31,15H26.26l-1.07-5H22V8h4a1,1,0,0,1,.98.79Z"></path></g></svg>