<svg xmlns="http://www.w3.org/2000/svg" viewBox="0 0 64 64" x="0px" y="0px"><g data-name="Global-Business"><rect x="48" y="24" width="2" height="6"></rect><path d="M16,53V5a1,1,0,0,1,1-1H40v7a1,1,0,0,0,1.832.555L43,9.8l1.168,1.752A1,1,0,0,0,46,11V4h1a1,1,0,0,1,1,1v9h2V5a3,3,0,0,0-3-3H17a3,3,0,0,0-3,3V53a3,3,0,0,0,3,3H32V54H17A1,1,0,0,1,16,53ZM44,7.7l-.168-.252a1.039,1.039,0,0,0-1.664,0L42,7.7V4h2Z"></path><path d="M43,31V25a1,1,0,0,0-1-1H22a1,1,0,0,0-1,1v8a1,1,0,0,0,1,1H38V32H23V26H41v5Z"></path><rect x="31" y="28" width="2" height="2"></rect><rect x="35" y="28" width="2" height="2"></rect><rect x="27" y="28" width="2" height="2"></rect><rect x="20" y="8" width="6" height="2"></rect><rect x="20" y="12" width="6" height="2"></rect><rect x="20" y="38" width="10" height="2"></rect><rect x="20" y="42" width="10" height="2"></rect><path d="M12,42V25a2,2,0,0,0-2-2H8V12H9a1,1,0,0,0,1-1V9a.984.984,0,0,0-.03-.242l-1-4A1,1,0,0,0,8,4H6a1,1,0,0,0-.97.758l-1,4A.984.984,0,0,0,4,9v2a1,1,0,0,0,1,1H6V23H4a2,2,0,0,0-2,2V42a2,2,0,0,0,2,2h6A2,2,0,0,0,12,42ZM6,9.123,6.781,6h.438L8,9.123V10H6ZM4,25h6V42H8V30H6V42H4Z"></path><path d="M24.628,16.071l-5,2a1,1,0,0,0,0,1.858l5,2A1.012,1.012,0,0,0,25,22H57a3,3,0,0,0,0-6H25A1.012,1.012,0,0,0,24.628,16.071ZM27,18H54v2H27Zm-4.308,1L25,18.077v1.846ZM58,19a1,1,0,0,1-1,1H56V18h1A1,1,0,0,1,58,19Z"></path><path d="M47,32A15,15,0,1,0,62,47,15.017,15.017,0,0,0,47,32ZM59.949,46H54.974a26.1,26.1,0,0,0-.829-5.822A15.011,15.011,0,0,0,56.72,38.4,12.932,12.932,0,0,1,59.949,46ZM48,34.21c1.413.567,2.78,2.3,3.728,4.893A12.936,12.936,0,0,1,48,39.952Zm3.787.715a12.992,12.992,0,0,1,3.5,2.07,13.133,13.133,0,0,1-1.77,1.232A14.3,14.3,0,0,0,51.787,34.925ZM46,34.21v5.742a12.936,12.936,0,0,1-3.728-.849C43.22,36.512,44.587,34.777,46,34.21Zm-5.52,4.017a13.133,13.133,0,0,1-1.77-1.232,12.992,12.992,0,0,1,3.5-2.07A14.3,14.3,0,0,0,40.48,38.227ZM46,41.952V46H41.025a24.411,24.411,0,0,1,.667-4.982A14.937,14.937,0,0,0,46,41.952ZM46,48v4.048a14.937,14.937,0,0,0-4.308.934A24.411,24.411,0,0,1,41.025,48Zm0,6.048V59.79c-1.413-.567-2.78-2.3-3.728-4.893A12.936,12.936,0,0,1,46,54.048Zm-3.787,5.027a12.992,12.992,0,0,1-3.5-2.07,13.133,13.133,0,0,1,1.77-1.232A14.3,14.3,0,0,0,42.213,59.075ZM48,59.79V54.048a12.936,12.936,0,0,1,3.728.849C50.78,57.488,49.413,59.223,48,59.79Zm5.52-4.017a13.133,13.133,0,0,1,1.77,1.232,12.992,12.992,0,0,1-3.5,2.07A14.3,14.3,0,0,0,53.52,55.773ZM48,52.048V48h4.975a24.411,24.411,0,0,1-.667,4.982A14.937,14.937,0,0,0,48,52.048ZM48,46V41.952a14.937,14.937,0,0,0,4.308-.934A24.411,24.411,0,0,1,52.975,46ZM37.28,38.4a15.011,15.011,0,0,0,2.575,1.781A26.1,26.1,0,0,0,39.026,46H34.051A12.932,12.932,0,0,1,37.28,38.4ZM34.051,48h4.975a26.1,26.1,0,0,0,.829,5.822A15.011,15.011,0,0,0,37.28,55.6,12.932,12.932,0,0,1,34.051,48ZM56.72,55.6a15.011,15.011,0,0,0-2.575-1.781A26.1,26.1,0,0,0,54.974,48h4.975A12.932,12.932,0,0,1,56.72,55.6Z"></path><rect x="6" y="46" width="2" height="2"></rect><rect x="6" y="50" width="2" height="2"></rect><path d="M8,54H6v6a1,1,0,0,0,1,1H21V59H8Z"></path><rect x="23" y="59" width="2" height="2"></rect><rect x="27" y="59" width="2" height="2"></rect></g></svg>