<svg xmlns="http://www.w3.org/2000/svg" viewBox="0 0 64 64" x="0px" y="0px"><g><path d="M61.9,54.553,56,42.764V11a3,3,0,0,0-3-3H40V5a3,3,0,0,0-3-3H27a3,3,0,0,0-3,3V8H11a3,3,0,0,0-3,3V42.764L2.105,54.553A1,1,0,0,0,2,55v5a2,2,0,0,0,2,2H60a2,2,0,0,0,2-2V55A1,1,0,0,0,61.9,54.553ZM29,56h6v1H29ZM4.618,54l5-10H54.382l5,10ZM37,24H27a1,1,0,0,1-1-1V20H38v3A1,1,0,0,1,37,24Zm-4,9a1,1,0,1,1-1-1A1,1,0,0,1,33,33Zm-7-7.184v2.77L23.586,31h-1.77a3,3,0,1,0,0,2H24a1,1,0,0,0,.707-.293l3-3A1,1,0,0,0,28,29V26h3v4.184a3,3,0,1,0,2,0V26h3v3a1,1,0,0,0,.293.707l3,3A1,1,0,0,0,40,33h2.184a3,3,0,1,0,0-2h-1.77L38,28.586v-2.77A3,3,0,0,0,40,23V14H50V38H14V14H24v9A3,3,0,0,0,26,25.816ZM20,32a1,1,0,1,1-1-1A1,1,0,0,1,20,32Zm24,0a1,1,0,1,1,1,1A1,1,0,0,1,44,32ZM27,4H37a1,1,0,0,1,1,1V18H26V5A1,1,0,0,1,27,4ZM10,11a1,1,0,0,1,1-1H24v2H13a1,1,0,0,0-1,1V39a1,1,0,0,0,1,1H51a1,1,0,0,0,1-1V13a1,1,0,0,0-1-1H40V10H53a1,1,0,0,1,1,1V42H10ZM4,60V56H27v1a2,2,0,0,0,2,2h6a2,2,0,0,0,2-2V56H60v4Z"></path><rect x="10" y="50" width="2" height="2"></rect><rect x="14" y="50" width="2" height="2"></rect><rect x="18" y="50" width="28" height="2"></rect><rect x="48" y="50" width="2" height="2"></rect><rect x="52" y="50" width="2" height="2"></rect><rect x="15" y="46" width="2" height="2"></rect><rect x="11" y="46" width="2" height="2"></rect><rect x="19" y="46" width="2" height="2"></rect><rect x="23" y="46" width="2" height="2"></rect><rect x="27" y="46" width="2" height="2"></rect><rect x="31" y="46" width="2" height="2"></rect><rect x="35" y="46" width="2" height="2"></rect><rect x="39" y="46" width="2" height="2"></rect><rect x="43" y="46" width="2" height="2"></rect><rect x="47" y="46" width="2" height="2"></rect><rect x="51" y="46" width="2" height="2"></rect><rect x="31" y="21" width="2" height="2"></rect><rect x="44" y="25" width="2" height="2"></rect><rect x="44" y="21" width="2" height="2"></rect><rect x="44" y="17" width="2" height="2"></rect><rect x="18" y="25" width="2" height="2"></rect><rect x="18" y="21" width="2" height="2"></rect><rect x="18" y="17" width="2" height="2"></rect><rect x="58" y="30" width="2" height="2"></rect><rect x="4" y="30" width="2" height="2"></rect><rect x="4" y="24" width="2" height="2"></rect><rect x="4" y="18" width="2" height="2"></rect><rect x="58" y="24" width="2" height="2"></rect><rect x="58" y="18" width="2" height="2"></rect><rect x="57" y="5" width="2" height="2"></rect><rect x="5" y="5" width="2" height="2"></rect></g></svg>