<svg xmlns="http://www.w3.org/2000/svg" viewBox="0 0 64 64" x="0px" y="0px"><g data-name="Spaceship"><path d="M60,48a5.006,5.006,0,0,0-5-5H9a5.006,5.006,0,0,0-5,5v3H60ZM19,50a3,3,0,1,1,3-3A3,3,0,0,1,19,50Zm13,0a3,3,0,1,1,3-3A3,3,0,0,1,32,50Zm13,0a3,3,0,1,1,3-3A3,3,0,0,1,45,50Z"></path><polygon points="49.465 57 52.132 53 11.868 53 14.535 57 49.465 57"></polygon><circle cx="19" cy="47" r="1"></circle><circle cx="45" cy="47" r="1"></circle><path d="M11,35H25V34a1,1,0,0,1,.105-.447L26.382,31H26a3,3,0,0,1-3-3V26a3,3,0,0,1,2-2.816V19.5a2.5,2.5,0,0,1,5,0V23h4V19.5a2.5,2.5,0,0,1,5,0v3.684A3,3,0,0,1,41,26v2a3,3,0,0,1-3,3h-.382L38.9,33.553A1,1,0,0,1,39,34v1H53V32a21,21,0,0,0-42,0Z"></path><circle cx="32" cy="47" r="1"></circle><polygon points="28.618 31 27 34.236 27 35 37 35 37 34.236 35.382 31 28.618 31"></polygon><path d="M36.5,19a.5.5,0,0,0-.5.5V23h1V19.5A.5.5,0,0,0,36.5,19Z"></path><rect x="11" y="37" width="42" height="4"></rect><path d="M27.5,19a.5.5,0,0,0-.5.5V23h1V19.5A.5.5,0,0,0,27.5,19Z"></path><path d="M39,28V26a1,1,0,0,0-1-1H26a1,1,0,0,0-1,1v2a1,1,0,0,0,1,1H38A1,1,0,0,0,39,28ZM29,28H27V26h2Zm8,0H35V26h2Z"></path><polygon points="57 11 59 11 59 9 61 9 61 7 59 7 59 5 57 5 57 7 55 7 55 9 57 9 57 11"></polygon><polygon points="4 19 6 19 6 17 8 17 8 15 6 15 6 13 4 13 4 15 2 15 2 17 4 17 4 19"></polygon><rect x="13" y="2" width="2" height="2"></rect><rect x="40" y="4" width="2" height="2"></rect><rect x="17" y="8" width="2" height="2"></rect><rect x="57" y="13" width="2" height="2"></rect><rect x="57" y="17" width="2" height="2"></rect><rect x="57" y="21" width="2" height="2"></rect><rect x="4" y="21" width="2" height="2"></rect><rect x="4" y="25" width="2" height="2"></rect><rect x="27" y="4" width="2" height="2"></rect><rect x="4" y="29" width="2" height="2"></rect></g></svg>