<svg xmlns="http://www.w3.org/2000/svg" viewBox="0 0 64 64" x="0px" y="0px"><g><path d="M27.377,7.936A12.056,12.056,0,0,0,20,19v6a12,12,0,0,0,24,0V19A11.964,11.964,0,0,0,36.623,7.94L36,16.077A1,1,0,0,1,35,17H29a1,1,0,0,1-1-.923ZM25.29,21.71A.99.99,0,0,1,25,21a1.045,1.045,0,0,1,.29-.71.933.933,0,0,1,.33-.21,1,1,0,0,1,1.09.21A1.05,1.05,0,0,1,27,21a.994.994,0,0,1-.29.71,1.2,1.2,0,0,1-.33.22A1,1,0,0,1,26,22,.991.991,0,0,1,25.29,21.71Zm11.79-1.09a1.155,1.155,0,0,1,.21-.33,1.032,1.032,0,0,1,.33-.21,1,1,0,0,1,1.09.21,1.155,1.155,0,0,1,.21.33.942.942,0,0,1,0,.76.9.9,0,0,1-.54.54.99.99,0,0,1-1.09-.21,1.523,1.523,0,0,1-.221-.33A1,1,0,0,1,37,21,.838.838,0,0,1,37.08,20.62ZM29,21h2v4a1,1,0,0,0,2,0V21h2v4a3,3,0,0,1-6,0Zm3,10a5.992,5.992,0,0,0,4.442-1.655l1.51,1.31A7.893,7.893,0,0,1,32,33a7.893,7.893,0,0,1-5.952-2.345l1.51-1.31A5.992,5.992,0,0,0,32,31Z"></path><path d="M56,60V55.25a10.989,10.989,0,0,0-8.2-10.632l-8.918-2.352a6.993,6.993,0,0,1-13.758,0L16.2,44.617A10.99,10.99,0,0,0,8,55.25V60h9V53h2v7h2.072c.61-4.493,5.276-8,10.928-8s10.318,3.507,10.928,8H45V53h2v7Z"></path><path d="M32,54c-4.525,0-8.27,2.614-8.9,6H40.9C40.27,56.614,36.525,54,32,54Z"></path><path d="M18,26V22a2,2,0,0,0,0,4Z"></path><path d="M27,38.07V41a5,5,0,0,0,10,0V38.07a13.906,13.906,0,0,1-10,0Z"></path><path d="M46,22v4a2,2,0,0,0,0-4Z"></path><polygon points="34.811 5.422 34.92 4 29.08 4 29.189 5.422 30.758 5.03 31.242 6.97 29.345 7.444 29.416 8.364 30.759 8.029 31.241 9.971 29.571 10.387 29.642 11.311 30.755 11.03 31.245 12.97 29.798 13.335 29.926 15 34.074 15 34.202 13.335 32.755 12.97 33.245 11.03 34.358 11.311 34.429 10.387 32.759 9.971 33.241 8.029 34.584 8.364 34.655 7.444 32.758 6.97 33.242 5.03 34.811 5.422"></polygon></g></svg>