<svg xmlns="http://www.w3.org/2000/svg" viewBox="0 0 64 64" x="0px" y="0px"><title>Scanner</title><g><path d="M56.328,14.912,11.9,3.006A2,2,0,0,0,9.446,4.42l-.776,2.9a1,1,0,0,0,.707,1.225L48.4,19H8a1,1,0,0,0-1,1V56a2,2,0,0,0,2,2h1v3a1,1,0,0,0,1,1H53a1,1,0,0,0,1-1V58h1a2,2,0,0,0,2-2V20.131l.742-2.771A2,2,0,0,0,56.328,14.912ZM11.377,4.938,55.811,16.844l-.518,1.931L10.86,6.87ZM52,60H12V58H52ZM9,56V21H55l0,35Z"></path><path d="M29,26H15a2,2,0,0,0-2,2V42a2,2,0,0,0,2,2H29a2,2,0,0,0,2-2V28A2,2,0,0,0,29,26ZM15,42V28H29l0,14Z"></path><rect x="17" y="30" width="2" height="2"></rect><rect x="21" y="30" width="2" height="2"></rect><rect x="25" y="30" width="2" height="2"></rect><rect x="17" y="34" width="2" height="2"></rect><rect x="21" y="34" width="2" height="2"></rect><rect x="25" y="34" width="2" height="2"></rect><rect x="17" y="38" width="2" height="2"></rect><rect x="21" y="38" width="2" height="2"></rect><rect x="25" y="38" width="2" height="2"></rect><path d="M50,26H36a1,1,0,0,0-1,1v6a1,1,0,0,0,1,1H50a1,1,0,0,0,1-1V27A1,1,0,0,0,50,26Zm-1,6H37V28H49Z"></path><rect x="45" y="29" width="2" height="2"></rect><rect x="41" y="29" width="2" height="2"></rect><path d="M50,36H36a1,1,0,0,0-1,1v6a1,1,0,0,0,1,1H50a1,1,0,0,0,1-1V37A1,1,0,0,0,50,36Zm-1,6H37V38H49Z"></path></g></svg>