<svg xmlns="http://www.w3.org/2000/svg" viewBox="0 0 64 64" x="0px" y="0px"><g data-name="Envelope"><circle cx="32" cy="27" r="1"></circle><path d="M16,4a1,1,0,0,0-1,1V20H49V5a1,1,0,0,0-1-1H45v6a1,1,0,0,1-1.832.555L42,8.8l-1.168,1.752A1,1,0,0,1,39,10V4Zm9,4h6v2H25ZM19,8h4v2H19Zm0,4H33v2H19Zm8,6H19V16h8Zm18-2v2H29V16Z"></path><path d="M40,36H24V46H40Zm-2,8H26V42H38Zm0-4H26V38H38Z"></path><path d="M41.168,6.445a1.039,1.039,0,0,1,1.664,0L43,6.7V4H41V6.7Z"></path><path d="M12,56.591l3.728-3.716A2.977,2.977,0,0,1,17.845,52H46.172a2.978,2.978,0,0,1,2.121.879L52,56.586V22H12ZM32,24a3,3,0,1,1-3,3A3,3,0,0,1,32,24ZM22,35a1,1,0,0,1,1-1H41a1,1,0,0,1,1,1V47a1,1,0,0,1-1,1H23a1,1,0,0,1-1-1Z"></path><path d="M13,60H51a.993.993,0,0,0,.93-.656l-5.051-5.051A1.009,1.009,0,0,0,46.172,54H17.845a1,1,0,0,0-.7.291L12.07,59.345A1,1,0,0,0,13,60Z"></path></g></svg>