<svg xmlns="http://www.w3.org/2000/svg" viewBox="0 0 64 64" x="0px" y="0px"><title>Trophy-Best</title><g><path d="M26,25.685V35a1,1,0,0,0,1.515.857L32,33.166l4.485,2.691A1,1,0,0,0,38,35V25.685a9,9,0,1,0-12,0Zm10,7.549-3-1.8V29H31v2.434l-3,1.8V27.058a9.14,9.14,0,0,0,8,0ZM32,12a7,7,0,0,1,4.376,12.458h0a6.982,6.982,0,0,1-8.748,0h0A7,7,0,0,1,32,12Z"></path><path d="M32,24a5,5,0,1,0-5-5A5.006,5.006,0,0,0,32,24Zm0-8a3,3,0,1,1-3,3A3,3,0,0,1,32,16Z"></path><path d="M59,2H5A3,3,0,0,0,2,5V45a3,3,0,0,0,3,3H22.9l-.8,8H19a1,1,0,0,0-1,1v3H16v2H48V60H46V57a1,1,0,0,0-1-1H41.905l-.8-8H59a3,3,0,0,0,3-3V5A3,3,0,0,0,59,2ZM44,58v2H20V58ZM24.105,56l.8-8H39.1l.8,8ZM60,45a1,1,0,0,1-1,1H5a1,1,0,0,1-1-1V5A1,1,0,0,1,5,4H59a1,1,0,0,1,1,1Z"></path><path d="M56,6H8A2,2,0,0,0,6,8V39a1,1,0,0,0,1,1H57a1,1,0,0,0,1-1V8A2,2,0,0,0,56,6Zm0,32H8V8H56Z"></path><rect x="31" y="42" width="2" height="2"></rect></g></svg>