<svg xmlns="http://www.w3.org/2000/svg" viewBox="0 0 64 64" x="0px" y="0px"><g data-name="Video Player-Smartphone-Lesson-Online-Hand"><path d="M58,46a3.983,3.983,0,0,0-2.572.939,4,4,0,0,0-6-1A4,4,0,0,0,44,44.537V36a4,4,0,0,0-8,0v2H28.816a2.982,2.982,0,0,0-5.632,0H19v2h4.184a2.982,2.982,0,0,0,5.632,0H36V51.268l-.134-.232a4,4,0,0,0-6.929,4l4.31,7.464,1.732-1L30.67,54.036a2,2,0,1,1,3.464-2l2,3.464A1,1,0,0,0,38,55V36a2,2,0,0,1,4,0V52a1,1,0,0,0,2,0V48a2,2,0,0,1,4,0v4a1,1,0,0,0,2,0V49a2,2,0,0,1,4,0v3a1,1,0,0,0,2,0V50a2,2,0,0,1,4,0V62h2V50A4,4,0,0,0,58,46ZM26,40a1,1,0,1,1,1-1A1,1,0,0,1,26,40Z"></path><path d="M10,56V8a4,4,0,0,1,4-4H42a4,4,0,0,1,4,4V42h2V8a6.006,6.006,0,0,0-6-6H14A6.006,6.006,0,0,0,8,8V56a6.006,6.006,0,0,0,6,6H30V60H14A4,4,0,0,1,10,56Z"></path><path d="M26,54h1V52H26a3,3,0,0,0,0,6h2V56H26a1,1,0,0,1,0-2Z"></path><rect x="21" y="6" width="2" height="2"></rect><rect x="25" y="6" width="6" height="2"></rect><path d="M26.057,28.9a1.994,1.994,0,0,0,2.052-.1l3.2-2.131a2,2,0,0,0,0-3.328l-3.2-2.131A2,2,0,0,0,25,22.869v4.262A2,2,0,0,0,26.057,28.9ZM30.2,25,27,27.138V22.869Z"></path><path d="M28,34a9,9,0,1,0-9-9A9.011,9.011,0,0,0,28,34Zm0-16a7,7,0,1,1-7,7A7.008,7.008,0,0,1,28,18Z"></path></g></svg>