<svg xmlns="http://www.w3.org/2000/svg" viewBox="0 0 64 64" x="0px" y="0px"><g data-name="Mirror"><path d="M32,37A15,15,0,1,0,17,22,15.017,15.017,0,0,0,32,37ZM32,9v2A11.013,11.013,0,0,0,21,22H19A13.015,13.015,0,0,1,32,9Z"></path><path d="M32,40A18,18,0,1,0,14,22,18.021,18.021,0,0,0,32,40ZM32,5A17,17,0,1,1,15,22,17.019,17.019,0,0,1,32,5Z"></path><rect x="18" y="58" width="28" height="2"></rect><path d="M57,22A25.02,25.02,0,0,1,35.12,46.8c-.36.05-.73.09-1.12.12V56H30V46.92c-.03,0-.06-.01-.09-.01l-.11-.01c-.31-.03-.62-.06-.92-.1A25.005,25.005,0,0,1,7,22a1,1,0,0,1,1-1h3V20h2v4H11V23H9.02a23.017,23.017,0,0,0,20.1,21.82c.28.03.58.06.86.08l.11.01a21.7,21.7,0,0,0,4.78-.09A23.025,23.025,0,0,0,54.98,23H53v1H51V20h2v1h3A1,1,0,0,1,57,22Z"></path></g></svg>