<svg xmlns="http://www.w3.org/2000/svg" viewBox="0 0 64 64" x="0px" y="0px"><g data-name="Ocaen liner"><path d="M2,57a3.972,3.972,0,0,0,3-1.38,3.951,3.951,0,0,0,6,0,3.951,3.951,0,0,0,6,0,3.951,3.951,0,0,0,6,0,3.951,3.951,0,0,0,6,0,3.951,3.951,0,0,0,6,0,3.951,3.951,0,0,0,6,0,3.951,3.951,0,0,0,6,0,3.951,3.951,0,0,0,6,0,3.951,3.951,0,0,0,6,0A3.972,3.972,0,0,0,62,57"></path><rect x="23" y="16" width="37" height="3"></rect><rect x="50" y="8" width="4" height="1"></rect><path d="M59,56.981c-.009.008-.02.012-.029.019h.058C59.02,56.993,59.009,56.988,59,56.981Z"></path><path d="M60,51V41H24a1,1,0,0,1-.832-.445L22.132,39H6.922l6.666,12Zm-5-8h2v2H55Zm-4,0h2v2H51Zm-4,0h2v2H47Zm-4,0h2v2H43Zm-4,0h2v2H39Zm-4,0h2v2H35Zm-4,0h2v2H31Zm-4,0h2v2H27Zm-4,0h2v2H23Z"></path><polygon points="19.465 35 4.7 35 5.811 37 20.798 37 19.465 35"></polygon><path d="M56,39V21H28V39ZM51,23h2v2H51Zm0,4h2v2H51Zm0,4h2v2H51Zm0,4h2v2H51ZM47,23h2v2H47Zm0,4h2v2H47Zm0,4h2v2H47Zm0,4h2v2H47ZM43,23h2v2H43Zm0,4h2v2H43Zm0,4h2v2H43Zm0,4h2v2H43ZM39,23h2v2H39Zm0,4h2v2H39Zm0,4h2v2H39Zm0,4h2v2H39ZM35,23h2v2H35Zm0,4h2v2H35Zm0,4h2v2H35Zm0,4h2v2H35ZM31,23h2v2H31Zm0,4h2v2H31Zm0,4h2v2H31Zm0,4h2v2H31Z"></path><path d="M17.753,54.962a3.017,3.017,0,0,0,4.494,0,1.034,1.034,0,0,1,1.506,0,3.017,3.017,0,0,0,4.494,0,1.034,1.034,0,0,1,1.506,0,3.017,3.017,0,0,0,4.494,0,1.034,1.034,0,0,1,1.506,0,3.017,3.017,0,0,0,4.494,0,1.034,1.034,0,0,1,1.506,0,3.017,3.017,0,0,0,4.494,0,1.034,1.034,0,0,1,1.506,0,3.017,3.017,0,0,0,4.494,0,1.034,1.034,0,0,1,1.506,0,3.017,3.017,0,0,0,4.494,0,1.034,1.034,0,0,1,1.506,0,2.964,2.964,0,0,0,.247.23V53H14.22l.569,2.849a2.91,2.91,0,0,0,1.458-.887A1.034,1.034,0,0,1,17.753,54.962Z"></path><path d="M17,56.981c-.009.008-.02.012-.029.019h.058C17.02,56.993,17.009,56.989,17,56.981Z"></path><rect x="50" y="11" width="4" height="3"></rect><path d="M47,56.981c-.009.008-.02.012-.029.019h.058C47.02,56.993,47.009,56.989,47,56.981Z"></path><path d="M53,56.981c-.009.008-.02.012-.029.019h.058C53.02,56.993,53.009,56.989,53,56.981Z"></path><path d="M41,56.981c-.009.008-.02.012-.029.019h.058C41.02,56.993,41.009,56.989,41,56.981Z"></path><path d="M35,56.981c-.009.008-.02.012-.029.019h.058C35.02,56.993,35.009,56.989,35,56.981Z"></path><path d="M23,56.981c-.009.008-.02.012-.029.019h.058C23.02,56.993,23.009,56.989,23,56.981Z"></path><path d="M29,56.981c-.009.008-.02.012-.029.019h.058C29.02,56.993,29.009,56.989,29,56.981Z"></path></g></svg>