<svg xmlns="http://www.w3.org/2000/svg" viewBox="0 0 64 64" x="0px" y="0px"><g data-name="Call Center-Logistics-Customer-Phone-Service-Support"><path d="M61,48H57.13a2.121,2.121,0,0,0,.13-.51l2.34-14A3,3,0,0,0,56.64,30H40.54a3.986,3.986,0,0,0-3.94,3.34L34.82,44H34V39.6a8.986,8.986,0,0,0-5.93-8.45L23,29.3v-.83A8.991,8.991,0,0,0,29,20V7a1,1,0,0,0-1-1H16a5,5,0,0,0-5,5v3.14a3.991,3.991,0,0,0,.21,7.78,9.2,9.2,0,0,0,2.42,4.45A10.32,10.32,0,0,0,15,27.49V29.3L9.93,31.15A8.986,8.986,0,0,0,4,39.6V45a4.924,4.924,0,0,0,1.03,3H3a1,1,0,0,0-1,1v4a1,1,0,0,0,1,1H5v7a1,1,0,0,0,1,1H58a1,1,0,0,0,1-1V54h2a1,1,0,0,0,1-1V49A1,1,0,0,0,61,48ZM56.64,32a1,1,0,0,1,.99,1.16l-2.34,14a.989.989,0,0,1-.98.84H40.18l2.67-16ZM38.57,33.67A1.989,1.989,0,0,1,40.54,32h.28L38.15,48H36.18ZM34.49,46l-.34,2H27a1,1,0,0,1-1-1V46ZM13,11a3.009,3.009,0,0,1,3-3H27v3.21c-.65.12-1.16.24-1.63.36A11.485,11.485,0,0,1,22,12a9.157,9.157,0,0,1-3.28-.52A7.905,7.905,0,0,0,16,11a1,1,0,0,0-1,1v2H13Zm-3,7a2,2,0,1,1,2,2A2.006,2.006,0,0,1,10,18Zm3.25,3.78a3.57,3.57,0,0,0,.77-.35l2.27,2.28A1.033,1.033,0,0,0,17,24h3V22H17.41l-1.98-1.98A3.987,3.987,0,0,0,16,18a3.906,3.906,0,0,0-.56-2H16a1,1,0,0,0,1-1V13.08a7.332,7.332,0,0,1,1.11.31A11.336,11.336,0,0,0,22,14a13.541,13.541,0,0,0,3.86-.49c.35-.09.72-.18,1.14-.26V20a6.984,6.984,0,0,1-13.75,1.78ZM21,28.94V30a2,2,0,0,1-4,0V28.48A9.138,9.138,0,0,0,20,29,8.262,8.262,0,0,0,21,28.94ZM6,39.6a6.988,6.988,0,0,1,4.61-6.57l4.64-1.69a3.973,3.973,0,0,0,7.5,0l4.64,1.69A6.988,6.988,0,0,1,32,39.6V44H29V38H27v6H25a1,1,0,0,0-1,1v2a3,3,0,0,0,.18,1H19a5,5,0,0,0-5-5H11V38H9v6a1,1,0,0,0,1,1h2v3H9a3.009,3.009,0,0,1-3-3ZM17,48H14V45A3.009,3.009,0,0,1,17,48ZM57,60H7V54H57Zm3-8H4V50H60Z"></path><path d="M49,43a3,3,0,1,0-3-3A3,3,0,0,0,49,43Zm0-4a1,1,0,1,1-1,1A1,1,0,0,1,49,39Z"></path><rect x="18" y="16" width="2" height="2"></rect><rect x="23" y="16" width="2" height="2"></rect><path d="M53,8H41a1,1,0,0,0-1,1V21a1,1,0,0,0,1,1H53a1,1,0,0,0,1-1V9A1,1,0,0,0,53,8Zm-7,2h2v2.59l-.29-.3a1.014,1.014,0,0,0-1.42,0l-.29.3Zm-4,0h2v2H42ZM52,20H42V14h2v1a.987.987,0,0,0,.62.92,1,1,0,0,0,1.09-.21L47,14.41l1.29,1.3A1.007,1.007,0,0,0,49,16a.838.838,0,0,0,.38-.08A.987.987,0,0,0,50,15V14h2Zm0-8H50V10h2Z"></path><rect x="46" y="2" width="2" height="2"></rect><rect x="37.515" y="5.515" width="2" height="2" transform="translate(6.674 29.142) rotate(-45)"></rect><rect x="34" y="14" width="2" height="2"></rect><rect x="37.515" y="22.485" width="2" height="2" transform="translate(-5.326 34.113) rotate(-45)"></rect><rect x="46" y="26" width="2" height="2"></rect><rect x="54.485" y="22.485" width="2" height="2" transform="translate(-0.355 46.113) rotate(-45)"></rect><rect x="58" y="14" width="2" height="2"></rect><rect x="54.485" y="5.515" width="2" height="2" transform="translate(11.645 41.142) rotate(-45)"></rect></g></svg>