<svg xmlns="http://www.w3.org/2000/svg" viewBox="0 0 64 64" x="0px" y="0px"><g data-name="Customer Service-Telephone-Help-Call Center-Shopping Cart"><path d="M37.621,42.207a3,3,0,0,0-4.242,0L28.1,47.491a4.983,4.983,0,0,1-5.719.971,15.088,15.088,0,0,1-6.838-6.838,4.983,4.983,0,0,1,.971-5.719l5.284-5.284a3,3,0,0,0,0-4.242l-8.99-8.99a3,3,0,0,0-4.405.163A27.117,27.117,0,0,0,2,35,26.7,26.7,0,0,0,4.388,46.111a26.982,26.982,0,0,0,13.5,13.5A27.049,27.049,0,0,0,46.448,55.6a2.977,2.977,0,0,0,1.044-2.144,3.025,3.025,0,0,0-.881-2.26ZM9.924,18.845a.966.966,0,0,1,.7-.339h.041a1.022,1.022,0,0,1,.721.3l8.989,8.99a1,1,0,0,1,0,1.414L18,31.586,7.96,21.546A24.766,24.766,0,0,1,9.924,18.845Zm8.787,38.944a24.991,24.991,0,0,1-12.5-12.5,24.959,24.959,0,0,1,.7-21.964L16.586,33,15.1,34.491a6.98,6.98,0,0,0-1.351,8.016,17.1,17.1,0,0,0,7.749,7.75,6.979,6.979,0,0,0,8.016-1.352L31,47.414l9.676,9.676a24.956,24.956,0,0,1-21.965.7Zm26.444-3.714a24.786,24.786,0,0,1-2.7,1.965L32.414,46l2.379-2.379a1,1,0,0,1,1.414,0l8.99,8.99a1.024,1.024,0,0,1,.3.763A.964.964,0,0,1,45.155,54.075Z"></path><path d="M43,2A17.993,17.993,0,0,0,28.79,31.04l-1.73,4.61a1.033,1.033,0,0,0,.23,1.06,1.017,1.017,0,0,0,1.06.23l4.88-1.83A18,18,0,1,0,43,2Zm0,34a15.939,15.939,0,0,1-9.08-2.83.957.957,0,0,0-.56-.18.922.922,0,0,0-.36.07l-3.29,1.23,1.15-3.08a.991.991,0,0,0-.16-.99A15.993,15.993,0,1,1,43,36Z"></path><path d="M51,25H39V23H50a1,1,0,0,0,.99-.88l1-8a.968.968,0,0,0-.24-.78A.981.981,0,0,0,51,13H39V12a1.033,1.033,0,0,0-.29-.71l-2-2A1.033,1.033,0,0,0,36,9H33v2h2.59L37,12.41V25.78A3,3,0,1,0,41.82,27h2.36a3,3,0,1,0,5.64,0H51a1,1,0,0,1,1,1h2A3.009,3.009,0,0,0,51,25ZM47,15h2.87l-.25,2H47Zm0,4h2.37l-.25,2H47Zm-4-4h2v2H43Zm0,4h2v2H43Zm-4-4h2v2H39Zm0,4h2v2H39Zm0,10a1,1,0,1,1,1-1A1,1,0,0,1,39,29Zm8,0a1,1,0,1,1,1-1A1,1,0,0,1,47,29Z"></path></g></svg>