<svg xmlns="http://www.w3.org/2000/svg" viewBox="0 0 64 64" x="0px" y="0px"><g data-name="Application Development"><rect x="29" y="50" width="6" height="2"></rect><rect x="24" y="12" width="2" height="2"></rect><rect x="28" y="12" width="4" height="2"></rect><path d="M36.167,29.247l1.49-1.49-1.414-1.414-1.49,1.49A4.969,4.969,0,0,0,33,27.1V25H31v2.1a4.969,4.969,0,0,0-1.753.732l-1.49-1.49-1.414,1.414,1.49,1.49A4.961,4.961,0,0,0,27.1,31H25v2h2.1a4.961,4.961,0,0,0,.732,1.753l-1.49,1.49,1.414,1.414,1.49-1.49A4.969,4.969,0,0,0,31,36.9V39h2V36.9a4.969,4.969,0,0,0,1.753-.732l1.49,1.49,1.414-1.414-1.49-1.49A4.961,4.961,0,0,0,36.9,33H39V31H36.9A4.961,4.961,0,0,0,36.167,29.247ZM32,35a3,3,0,1,1,3-3A3,3,0,0,1,32,35Z"></path><path d="M59,9H53a3,3,0,0,0-3,3v6a3,3,0,0,0,3,3h6a3,3,0,0,0,3-3V12A3,3,0,0,0,59,9Zm1,9a1,1,0,0,1-1,1H53a1,1,0,0,1-1-1V12a1,1,0,0,1,1-1h6a1,1,0,0,1,1,1Z"></path><path d="M59,26H53a3,3,0,0,0-3,3v6a3,3,0,0,0,3,3h6a3,3,0,0,0,3-3V29A3,3,0,0,0,59,26Zm1,9a1,1,0,0,1-1,1H53a1,1,0,0,1-1-1V29a1,1,0,0,1,1-1h6a1,1,0,0,1,1,1Z"></path><path d="M59,43H53a3,3,0,0,0-3,3v6a3,3,0,0,0,3,3h6a3,3,0,0,0,3-3V46A3,3,0,0,0,59,43Zm1,9a1,1,0,0,1-1,1H53a1,1,0,0,1-1-1V46a1,1,0,0,1,1-1h6a1,1,0,0,1,1,1Z"></path><path d="M11,9H5a3,3,0,0,0-3,3v6a3,3,0,0,0,3,3h6a3,3,0,0,0,3-3V12A3,3,0,0,0,11,9Zm1,9a1,1,0,0,1-1,1H5a1,1,0,0,1-1-1V12a1,1,0,0,1,1-1h6a1,1,0,0,1,1,1Z"></path><path d="M11,26H5a3,3,0,0,0-3,3v6a3,3,0,0,0,3,3h6a3,3,0,0,0,3-3V29A3,3,0,0,0,11,26Zm1,9a1,1,0,0,1-1,1H5a1,1,0,0,1-1-1V29a1,1,0,0,1,1-1h6a1,1,0,0,1,1,1Z"></path><path d="M11,43H5a3,3,0,0,0-3,3v6a3,3,0,0,0,3,3h6a3,3,0,0,0,3-3V46A3,3,0,0,0,11,43Zm1,9a1,1,0,0,1-1,1H5a1,1,0,0,1-1-1V46a1,1,0,0,1,1-1h6a1,1,0,0,1,1,1Z"></path><path d="M48.707,16.707l-1.414-1.414L46,16.586V14a5.006,5.006,0,0,0-5-5H23a5.006,5.006,0,0,0-5,5v2.586l-1.293-1.293-1.414,1.414L18,19.414V31H16v2h2V44.586l-2.707,2.707,1.414,1.414L18,47.414V50a5.006,5.006,0,0,0,5,5H41a5.006,5.006,0,0,0,5-5V47.414l1.293,1.293,1.414-1.414L46,44.586V33h2V31H46V19.414ZM23,11H41a3,3,0,0,1,3,3v1H20V14A3,3,0,0,1,23,11ZM41,53H23a3,3,0,0,1-3-3V49H44v1A3,3,0,0,1,41,53Zm3-22H41v2h3v9.586l-4.293-4.293-1.414,1.414L44,45.414V47H20V45.414l5.707-5.707-1.414-1.414L20,42.586V33h3V31H20V21.414l4.293,4.293,1.414-1.414L20,18.586V17H44v1.586l-5.707,5.707,1.414,1.414L44,21.414Z"></path></g></svg>