<svg xmlns="http://www.w3.org/2000/svg" viewBox="0 0 64 64" x="0px" y="0px"><g data-name="Saving-Money Bag-Money-Currency-Coins"><path d="M43.9,38.89a9.748,9.748,0,0,1,3.1-.84v-2a11.873,11.873,0,0,0-4.11,1.11Z"></path><path d="M42.17,39.9l-1.01-1.75a12.3,12.3,0,0,0-3.01,3.01l1.75,1.01A9.783,9.783,0,0,1,42.17,39.9Z"></path><path d="M36.05,47h2a9.748,9.748,0,0,1,.84-3.1l-1.73-1.01A11.873,11.873,0,0,0,36.05,47Z"></path><path d="M28,44a1,1,0,0,0-1,1v2a1,1,0,0,0,1,1h6a14.713,14.713,0,0,1,.16-2H33V44H31v2H29V44Z"></path><path d="M25,45a1,1,0,0,0-1-1H23v2H21V44H19v2H17V44H15v2H13V44H12a1,1,0,0,0-1,1v2a1,1,0,0,0,1,1H24a1,1,0,0,0,1-1Z"></path><path d="M12,50a1,1,0,0,0-1,1v2a1,1,0,0,0,1,1H24a1,1,0,0,0,1-1V51a1,1,0,0,0-1-1H23v2H21V50H19v2H17V50H15v2H13V50Z"></path><path d="M56,48a8,8,0,1,0-8,8A8.011,8.011,0,0,0,56,48ZM44,50h2a1,1,0,0,0,1,1h2a1,1,0,0,0,0-2H47a3,3,0,0,1,0-6V42h2v1a3,3,0,0,1,3,3H50a1,1,0,0,0-1-1H47a1,1,0,0,0,0,2h2a3,3,0,0,1,0,6v1H47V53A3,3,0,0,1,44,50Z"></path><path d="M39.9,53.83l-1.75,1.01a12.3,12.3,0,0,0,3.01,3.01l1.01-1.75A9.783,9.783,0,0,1,39.9,53.83Z"></path><path d="M31,4a2.591,2.591,0,0,0-1.87.78,4.612,4.612,0,0,1-6.25,0A2.6,2.6,0,0,0,21,4a2.557,2.557,0,0,0-1.87.78,5.568,5.568,0,0,1-1.53.95L22.57,14h6.86L34.4,5.72a5.132,5.132,0,0,1-1.52-.94A2.6,2.6,0,0,0,31,4Z"></path><path d="M6.17,54H9.18A3,3,0,0,1,9,53V51a2.974,2.974,0,0,1,.78-2A2.974,2.974,0,0,1,9,47V45a2.974,2.974,0,0,1,.78-2A2.974,2.974,0,0,1,9,41V39a2.974,2.974,0,0,1,.78-2A2.974,2.974,0,0,1,9,35V33a3.009,3.009,0,0,1,3-3H24a3.009,3.009,0,0,1,3,3v2a2.923,2.923,0,0,1-.32,1.32A2.923,2.923,0,0,1,28,36H40a2.724,2.724,0,0,1,.69.09A13.837,13.837,0,0,1,45,34.33V33A13.012,13.012,0,0,0,32,20H30.46A5.979,5.979,0,0,1,32,24v1H30V24a4,4,0,0,0-8,0v1H20V24a5.979,5.979,0,0,1,1.54-4H20A13.012,13.012,0,0,0,7,33V46.38a5,5,0,0,1-2.16,4A2,2,0,0,0,4,52.11,2.127,2.127,0,0,0,6.17,54Z"></path><path d="M30,18a1,1,0,0,0,0-2H22a1,1,0,0,0,0,2Z"></path><path d="M47,59.95v-2a9.748,9.748,0,0,1-3.1-.84l-1.01,1.73A11.873,11.873,0,0,0,47,59.95Z"></path><path d="M56.1,42.17l1.75-1.01a12.3,12.3,0,0,0-3.01-3.01L53.83,39.9A9.783,9.783,0,0,1,56.1,42.17Z"></path><path d="M49,59.95a11.873,11.873,0,0,0,4.11-1.11L52.1,57.11a9.748,9.748,0,0,1-3.1.84Z"></path><path d="M57.11,43.9a9.748,9.748,0,0,1,.84,3.1h2a11.873,11.873,0,0,0-1.11-4.11Z"></path><path d="M56.1,53.83a9.783,9.783,0,0,1-2.27,2.27l1.01,1.75a12.3,12.3,0,0,0,3.01-3.01Z"></path><path d="M59.95,49h-2a9.748,9.748,0,0,1-.84,3.1l1.73,1.01A11.873,11.873,0,0,0,59.95,49Z"></path><path d="M38.89,52.1a9.748,9.748,0,0,1-.84-3.1h-2a11.873,11.873,0,0,0,1.11,4.11Z"></path><path d="M35.37,54a13.818,13.818,0,0,1-.78-2H33V50H31v2H29V50H28a1,1,0,0,0-1,1v2a1,1,0,0,0,1,1Z"></path><path d="M25,33a1,1,0,0,0-1-1H23v2H21V32H19v2H17V32H15v2H13V32H12a1,1,0,0,0-1,1v2a1,1,0,0,0,1,1H24a1,1,0,0,0,1-1Z"></path><path d="M37,39.37V38H35v2H33V38H31v2H29V38H28a1,1,0,0,0-1,1v2a1,1,0,0,0,1,1h7.37A13.919,13.919,0,0,1,37,39.37Z"></path><path d="M25,39a1,1,0,0,0-1-1H23v2H21V38H19v2H17V38H15v2H13V38H12a1,1,0,0,0-1,1v2a1,1,0,0,0,1,1H24a1,1,0,0,0,1-1Z"></path><path d="M49,36.05v2a9.748,9.748,0,0,1,3.1.84l1.01-1.73A11.873,11.873,0,0,0,49,36.05Z"></path></g></svg>