<svg xmlns="http://www.w3.org/2000/svg" viewBox="0 0 64 64" x="0px" y="0px"><title>Startup_1</title><g data-name="Startup"><path d="M59.59,39.706l-1.41-1.42,0,0a5.02,5.02,0,0,0-7.081.007l-9.261,9.433A5.011,5.011,0,0,0,37,44H30.321A6.986,6.986,0,0,0,24,40H19a6.973,6.973,0,0,0-5,2.111V39a1,1,0,0,0-1-1H5a1,1,0,0,0-1,1V61a1,1,0,0,0,1,1h8a1,1,0,0,0,1-1V59l27.269.019h0a1,1,0,0,0,.707-.293l17.61-17.61A1,1,0,0,0,59.59,39.706ZM12,60H6V40h6V60Zm28.855-2.98L14,57V47a5.006,5.006,0,0,1,5-5h5a4.977,4.977,0,0,1,4.706,3.329A1,1,0,0,0,29.65,46H37a3,3,0,0,1,3,3H25v2H41v-.009a1,1,0,0,0,.714-.29l10.8-11a3.014,3.014,0,0,1,4.246-.005l.707.713Z"></path><rect x="7" y="42" width="2" height="2"></rect><path d="M38,14a1,1,0,0,1-1-1H35a3,3,0,0,0,2,2.816V17h2V15.816A2.993,2.993,0,0,0,38,10a1,1,0,1,1,1-1h2a3,3,0,0,0-2-2.816V5H37V6.184A2.993,2.993,0,0,0,38,12a1,1,0,0,1,0,2Z"></path><path d="M37,19.941v2.09A4.982,4.982,0,0,0,33,20H31a1,1,0,0,0-1,1v2a5.006,5.006,0,0,0,5,5h2v4H31a1,1,0,0,0-.97,1.243l2,8A1,1,0,0,0,33,42H43a1,1,0,0,0,.97-.757l2-8A1,1,0,0,0,45,32H39V30h2a5.006,5.006,0,0,0,5-5V23a1,1,0,0,0-1-1H43a4.982,4.982,0,0,0-4,2.031v-4.09a9,9,0,1,0-2,0ZM36,26H35a3,3,0,0,1-3-3V22h1a3,3,0,0,1,3,3Zm6.219,14H33.781l-1.5-6H43.719ZM40,27a3,3,0,0,1,3-3h1v1a3,3,0,0,1-3,3H40ZM38,4a7,7,0,1,1-7,7A7.008,7.008,0,0,1,38,4Z"></path><rect x="42" y="10" width="2" height="2"></rect><rect x="32" y="10" width="2" height="2"></rect></g></svg>