<svg xmlns="http://www.w3.org/2000/svg" viewBox="0 0 64 64" x="0px" y="0px"><title>Cargo-Shipping-Global Distribution-Delivery-Ship</title><g><path d="M61.035,44,58,43.9V27.618l.9-.447A1.99,1.99,0,0,0,60,25.382V23a1,1,0,0,0-1-1V19a1,1,0,0,0-1-1H54a1,1,0,0,0-1,1v3H52V19a1,1,0,0,0-1-1H47a1,1,0,0,0-1,1v3H45a1,1,0,0,0-1,1v1H15a1,1,0,0,0-1,1v9H11a1,1,0,0,0-1,1v7.241L3.035,42a.972.972,0,0,0-.836.4,1,1,0,0,0-.148.915L7.509,59.69A5.449,5.449,0,0,1,6.1,58.36C5.224,57.309,4.134,56,2,56v2c1.142,0,1.69.593,2.562,1.64S6.528,62,8.662,62H62V45A1,1,0,0,0,61.035,44Zm-1.6,14.359C58.555,57.308,57.463,56,55.327,56s-3.227,1.308-4.1,2.359S49.8,60,48.653,60s-1.692-.593-2.565-1.64S44.121,56,41.985,56s-3.224,1.309-4.1,2.36S36.464,60,35.322,60s-1.692-.593-2.565-1.64S30.791,56,28.656,56s-3.225,1.309-4.1,2.36S23.133,60,21.991,60s-1.691-.593-2.564-1.64S17.461,56,15.326,56s-3.224,1.309-4.1,2.36a4.8,4.8,0,0,1-1.58,1.416L7.721,54H60v5.012C59.819,58.819,59.635,58.6,59.431,58.359ZM58.2,60H52.454c.1-.121.206-.242.3-.359C53.632,58.593,54.183,58,55.327,58s1.694.593,2.569,1.64C57.993,59.757,58.1,59.878,58.2,60ZM44.855,60H39.118c.1-.122.206-.243.3-.36.872-1.047,1.422-1.64,2.563-1.64s1.693.593,2.566,1.64C44.649,59.757,44.75,59.878,44.855,60ZM31.524,60H25.788c.1-.122.206-.243.3-.36.873-1.047,1.423-1.64,2.565-1.64s1.692.593,2.565,1.64C31.318,59.757,31.42,59.878,31.524,60Zm-13.33,0H12.459c.1-.122.206-.243.3-.36.872-1.047,1.421-1.64,2.563-1.64s1.692.593,2.565,1.64C17.988,59.757,18.09,59.878,18.194,60ZM55,20h2v2H55Zm-7,0h2v2H48Zm-2,4H58v1.382l-1.447.723A1,1,0,0,0,56,27V43.827l-8-.276V27a1,1,0,0,0-.553-.895L46,25.382Zm0,12v7.482l-18-.621V36Zm-.9-8.829.9.447V34H32V26h12.1A1.986,1.986,0,0,0,45.105,27.171ZM16,26H30v8H16ZM12,36H26v6.792L12,42.31Zm48,9.966V52H7.054L4.4,44.05Z"></path><rect x="50" y="26" width="4" height="2"></rect><rect x="50" y="30" width="4" height="2"></rect><rect x="50" y="34" width="4" height="2"></rect><rect x="50" y="38" width="4" height="2"></rect><rect x="9" y="48" width="2" height="2"></rect><rect x="13" y="48" width="2" height="2"></rect><rect x="17" y="48" width="2" height="2"></rect><rect x="21" y="48" width="2" height="2"></rect><rect x="25" y="48" width="2" height="2"></rect><rect x="29" y="48" width="2" height="2"></rect><rect x="33" y="48" width="2" height="2"></rect><rect x="37" y="48" width="2" height="2"></rect><rect x="14" y="38" width="2" height="4"></rect><rect x="18" y="38" width="2" height="4"></rect><rect x="22" y="38" width="2" height="4"></rect><rect x="34" y="28" width="2" height="4"></rect><rect x="38" y="28" width="2" height="4"></rect><rect x="42" y="28" width="2" height="4"></rect><rect x="18" y="28" width="2" height="4"></rect><rect x="22" y="28" width="2" height="4"></rect><rect x="26" y="28" width="2" height="4"></rect><rect x="30" y="38" width="2" height="4"></rect><rect x="34" y="38" width="2" height="4"></rect><rect x="38" y="38" width="2" height="4"></rect><rect x="42" y="38" width="2" height="4"></rect><path d="M60,8v2a1,1,0,0,1-1,1H58a3,3,0,0,0-3,3v2h2V14a1,1,0,0,1,1-1h1a3,3,0,0,0,3-3V8Z"></path><path d="M50,14a1,1,0,0,1,1-1,3,3,0,0,0,3-3V8H52v2a1,1,0,0,1-1,1,3,3,0,0,0-3,3v2h2Z"></path></g></svg>