<svg xmlns="http://www.w3.org/2000/svg" viewBox="0 0 64 64" x="0px" y="0px"><g><path d="M52.935,12.043A7.01,7.01,0,0,0,46,6a6.928,6.928,0,0,0-4.051,1.292,11.994,11.994,0,0,0-21.533,3.6A6.984,6.984,0,0,0,10.083,16H10a8,8,0,0,0,0,16h8V30H10a6,6,0,0,1,0-12,5.914,5.914,0,0,1,.861.07,1.023,1.023,0,0,0,.8-.274A1.086,1.086,0,0,0,12,17a4.993,4.993,0,0,1,8.412-3.646,1,1,0,0,0,1.675-.606A9.993,9.993,0,0,1,40.82,9.29a1,1,0,0,0,1.6.226A5,5,0,0,1,51,13a1,1,0,0,0,1,1,8,8,0,0,1,0,16H46v2h6a10,10,0,0,0,.935-19.957Z"></path><rect x="23" y="48" width="2" height="2"></rect><rect x="27" y="49" width="2" height="2"></rect><rect x="23" y="55" width="2" height="2"></rect><rect x="27" y="56" width="2" height="2"></rect><rect x="26" y="41" width="12" height="2"></rect><path d="M39.35,37.21l-.7,1.87C40.72,39.86,42,40.97,42,42c0,1.89-4.28,4-10,4s-10-2.11-10-4c0-1.19,1.68-2.46,4.28-3.23l-.56-1.92C22.08,37.93,20,39.8,20,42V56c0,3.42,5.16,6,12,6s12-2.58,12-6V42C44,40.06,42.31,38.32,39.35,37.21ZM42,56c0,1.89-4.28,4-10,4s-10-2.11-10-4V52.41C24.11,53.99,27.73,55,32,55s7.89-1.01,10-2.59Zm0-7c0,1.89-4.28,4-10,4s-10-2.11-10-4V45.41C24.11,46.99,27.73,48,32,48s7.89-1.01,10-2.59Z"></path><path d="M29,31h4a1,1,0,0,0,.707-.293l2-2A1,1,0,0,0,36,28V24a1,1,0,0,0-1-1H29a1,1,0,0,0-1,1v6A1,1,0,0,0,29,31Zm1-6h4v2.586L32.588,29H30Z"></path><path d="M42,30H40V28h4V26H40V24h2a1.033,1.033,0,0,0,.71-.29l2-2-1.42-1.42L41.59,22H40V20a1,1,0,0,0-1-1H37V15H35v4H33V15H31v4H29V15H27v4H25a1,1,0,0,0-1,1v2H22.41l-1.7-1.71-1.42,1.42,2,2A1.033,1.033,0,0,0,22,24h2v2H20v2h4v2H22a1.033,1.033,0,0,0-.71.29l-2,2,1.42,1.42L22.41,32H24v2a1,1,0,0,0,1,1h2v3h2V35h2v3h2V35h2v3h2V35h2a1,1,0,0,0,1-1V32h1.59l1.7,1.71,1.42-1.42-2-2A1.033,1.033,0,0,0,42,30Zm-4,3H26V21H38Z"></path></g></svg>