<svg xmlns="http://www.w3.org/2000/svg" viewBox="0 0 64 64" x="0px" y="0px"><g data-name="Man-Worker"><path d="M32,7a11.031,11.031,0,0,0,5.6-1.466,1.035,1.035,0,0,1,.15-.063,11.97,11.97,0,0,0-11.5,0,1.035,1.035,0,0,1,.15.063A11.031,11.031,0,0,0,32,7Z"></path><path d="M20,22a12,12,0,0,0,24,0V18.54A16.681,16.681,0,0,1,37.311,7.918,13.15,13.15,0,0,1,32,9a13.15,13.15,0,0,1-5.311-1.082A16.681,16.681,0,0,1,20,18.54Zm17.29-4.71a1.032,1.032,0,0,1,.33-.21,1,1,0,0,1,1.09.21A1.052,1.052,0,0,1,39,18a1.116,1.116,0,0,1-.021.19.577.577,0,0,1-.059.19.8.8,0,0,1-.09.18l-.12.15A1.052,1.052,0,0,1,38,19a1,1,0,0,1-.38-.08,1.032,1.032,0,0,1-.33-.21,1.576,1.576,0,0,1-.12-.15.757.757,0,0,1-.09-.18.6.6,0,0,1-.06-.19A1.225,1.225,0,0,1,37,18,1.047,1.047,0,0,1,37.29,17.29ZM29,18h2v4a1,1,0,0,0,2,0V18h2v4a3,3,0,0,1-6,0Zm3,10a5.982,5.982,0,0,0,4.441-1.655l1.512,1.31A7.89,7.89,0,0,1,32,30a7.89,7.89,0,0,1-5.953-2.345l1.512-1.31A5.982,5.982,0,0,0,32,28ZM25.29,17.29a1.025,1.025,0,0,1,.9-.27.609.609,0,0,1,.191.06.776.776,0,0,1,.18.09l.15.12c.04.05.08.1.12.16a1.054,1.054,0,0,1,.149.36A1.116,1.116,0,0,1,27,18a1,1,0,0,1-.08.38,1.155,1.155,0,0,1-.21.33l-.15.12a.776.776,0,0,1-.18.09.609.609,0,0,1-.191.06A1.2,1.2,0,0,1,26,19a1.05,1.05,0,0,1-.71-.29,1.032,1.032,0,0,1-.21-.33A1,1,0,0,1,25,18,1.047,1.047,0,0,1,25.29,17.29Z"></path><path d="M24.9,6.349A11.979,11.979,0,0,0,20,16,14.9,14.9,0,0,0,24.9,6.349Z"></path><path d="M18,23V19a2,2,0,0,0,0,4Z"></path><path d="M44,16a11.979,11.979,0,0,0-4.9-9.648A14.9,14.9,0,0,0,44,16Z"></path><path d="M56,60V52.25a10.99,10.99,0,0,0-8.2-10.633l-4.088-1.078A85.836,85.836,0,0,1,45.985,60Z"></path><path d="M41.5,39.956,38.3,39.113l-5.594,5.594a1,1,0,0,1-1.414,0L25.7,39.113l-3.195.843A82.257,82.257,0,0,0,20.015,60h23.97A82.257,82.257,0,0,0,41.5,39.956Z"></path><path d="M8,60H18.015a85.836,85.836,0,0,1,2.276-19.461L16.2,41.617A10.99,10.99,0,0,0,8,52.25Z"></path><path d="M46,19v4a2,2,0,0,0,0-4Z"></path><path d="M27,35.061v2.525l5,5,5-5V35.061a13.782,13.782,0,0,1-10,0Z"></path></g></svg>