<svg xmlns="http://www.w3.org/2000/svg" viewBox="0 0 64 64" x="0px" y="0px"><g><path d="M16,33h1V25H16a4,4,0,0,0,0,8Z"></path><rect x="25" y="55" width="14" height="5"></rect><path d="M21.78,25H19v8h2V27A2.981,2.981,0,0,1,21.78,25Z"></path><path d="M45,32a1.979,1.979,0,0,0,.274,1h.406L48,31.343V26.657L45.68,25h-.406A1.979,1.979,0,0,0,45,26a2,2,0,0,0,2,2v2A2,2,0,0,0,45,32Z"></path><path d="M41,45H23v8H41ZM27,49H25V47h2Z"></path><path d="M25,24.182A2.994,2.994,0,0,1,27,27V21H26a1,1,0,0,0-1,1Z"></path><polygon points="50 29.914 51.28 29 50 28.086 50 29.914"></polygon><path d="M30,29a1,1,0,0,0,1-1V21H29v7A1,1,0,0,0,30,29Z"></path><path d="M27.931,30.277c.076.021.15.047.225.072-.053-.042-.106-.084-.156-.129C27.978,30.24,27.954,30.257,27.931,30.277Z"></path><path d="M23,27v8.764L24.9,39.553A1,1,0,0,1,25,40v3H39V35H32.7a6.924,6.924,0,0,1,.3,2H31a4.743,4.743,0,0,0-.677-2.484A4.966,4.966,0,0,0,26,32a1,1,0,0,1-1-1V27a.957.957,0,0,0-.288-.694A.974.974,0,0,0,24,26,1,1,0,0,0,23,27Z"></path><path d="M43,26a3.992,3.992,0,0,1,.143-1H41v3a2.987,2.987,0,0,1-5,2.22,2.954,2.954,0,0,1-4,0,2.864,2.864,0,0,1-2.5.729c.125.073.252.14.373.221A6.9,6.9,0,0,1,31.721,33H43.143a3.858,3.858,0,0,1,1.239-4A3.975,3.975,0,0,1,43,26Z"></path><path d="M38,29a1,1,0,0,0,1-1V22a1,1,0,0,0-1-1H37v7A1,1,0,0,0,38,29Z"></path><path d="M34,29a1,1,0,0,0,1-1V21H33v7A1,1,0,0,0,34,29Z"></path><rect x="31" y="2" width="2" height="4"></rect><rect x="18" y="5.483" width="2" height="4" transform="translate(-1.196 10.503) rotate(-30.002)"></rect><rect x="8.483" y="15" width="2" height="4" transform="translate(-9.981 16.712) rotate(-59.998)"></rect><rect x="4" y="29" width="4" height="2"></rect><rect x="7.483" y="42" width="4" height="2" transform="translate(-20.226 10.5) rotate(-29.995)"></rect><rect x="17" y="51.516" width="4" height="2" transform="translate(-35.982 42.718) rotate(-60.005)"></rect><rect x="44" y="50.517" width="2" height="4" transform="translate(-20.23 29.538) rotate(-30.002)"></rect><rect x="53.516" y="41" width="2" height="4.001" transform="translate(-9.978 68.719) rotate(-60.005)"></rect><rect x="56" y="29" width="4" height="2"></rect><rect x="52.516" y="16" width="4.001" height="2" transform="translate(-1.197 29.531) rotate(-29.995)"></rect><rect x="43" y="6.483" width="4" height="2" transform="translate(16.022 42.716) rotate(-60.005)"></rect><rect x="24.53" y="4.852" width="2" height="2" transform="translate(-0.644 6.811) rotate(-15.01)"></rect><rect x="13.322" y="11.322" width="2" height="2" transform="translate(-4.518 13.736) rotate(-45)"></rect><rect x="6.852" y="22.529" width="2" height="2" transform="translate(-16.908 25.02) rotate(-74.99)"></rect><rect x="6.852" y="35.471" width="2" height="2" transform="translate(-9.177 3.278) rotate(-15.01)"></rect><rect x="13.322" y="46.678" width="2" height="2" transform="translate(-29.518 24.092) rotate(-45)"></rect><rect x="48.678" y="46.678" width="2" height="2" transform="translate(-19.163 49.092) rotate(-45)"></rect><rect x="55.149" y="35.471" width="2" height="2" transform="translate(6.378 81.255) rotate(-74.987)"></rect><rect x="55.148" y="22.53" width="2" height="2" transform="translate(-4.179 15.348) rotate(-15.013)"></rect><rect x="48.678" y="11.322" width="2" height="2" transform="translate(5.837 38.737) rotate(-45)"></rect><rect x="37.471" y="4.852" width="2" height="2" transform="translate(22.861 41.497) rotate(-75)"></rect></g></svg>