<svg xmlns="http://www.w3.org/2000/svg" viewBox="0 0 64 64" x="0px" y="0px"><g data-name="Law Book"><path d="M28,39a3,3,0,0,0,2.815-2h-5.63A3,3,0,0,0,28,39Z"></path><polygon points="25.618 35 30.382 35 28 30.236 25.618 35"></polygon><path d="M44,39a3,3,0,0,0,2.815-2h-5.63A3,3,0,0,0,44,39Z"></path><polygon points="46.382 35 44 30.236 41.618 35 46.382 35"></polygon><path d="M54,59V5a1,1,0,0,0-1-1H50v9a1,1,0,0,1-.684.949A1.019,1.019,0,0,1,49,14a1,1,0,0,1-.8-.4L46,10.667,43.8,13.6A1,1,0,0,1,42,13V4H18V60H53A1,1,0,0,0,54,59ZM41,18h2v2H41Zm-4,0h2v2H37Zm1.816,9H47v2H45.618L48.9,35.553A1,1,0,0,1,49,36a5,5,0,0,1-10,0,1,1,0,0,1,.1-.447L42.382,29H38.816A3,3,0,0,1,37,30.816V43h5v2H30V43h5V30.816A3,3,0,0,1,33.184,29H29.618L32.9,35.553A1,1,0,0,1,33,36a5,5,0,0,1-10,0,1,1,0,0,1,.105-.447L26.382,29H25V27h8.184A3,3,0,0,1,35,25.184V24h2v1.184A3,3,0,0,1,38.816,27ZM46,43v2H44V43ZM28,43v2H26V43Zm1-23V18h2v2Zm4,0V18h2v2ZM22,8H36v2H22Zm0,4H36v2H22ZM50,56H22V54H50Zm0-4H22V50H50Z"></path><path d="M45.2,8.4a1.036,1.036,0,0,1,1.6,0L48,10V4H44v6Z"></path><circle cx="36" cy="28" r="1"></circle><rect x="10" y="4" width="6" height="56"></rect></g></svg>