<svg xmlns="http://www.w3.org/2000/svg" viewBox="0 0 64 64" x="0px" y="0px"><g><polygon points="45.422 34 47.732 30 16.268 30 18.578 34 45.422 34"></polygon><path d="M32,54a2,2,0,0,0,2-2V44a2,2,0,0,0-4,0v8A2,2,0,0,0,32,54Z"></path><path d="M44,54a2,2,0,0,0,2-2V44a2,2,0,0,0-4,0v8A2,2,0,0,0,44,54Z"></path><path d="M6,34H9.339L7.03,30H6a2,2,0,0,0,0,4Z"></path><path d="M16.634,34.634l-9-15.588a2,2,0,1,0-3.464,2l9,15.588Z"></path><path d="M60,32a2,2,0,0,0-2-2H56.97l-2.309,4H58A2,2,0,0,0,60,32Z"></path><path d="M18.41,60H45.59a7.034,7.034,0,0,0,6.983-6.466L53.92,36h-.414l-1.444,2.5a1,1,0,0,1-1.366.366L45.732,36H18.268L13.3,38.866a1,1,0,0,1-1.366-.366L10.494,36H10.08l1.347,17.534A7.035,7.035,0,0,0,18.41,60ZM40,44a4,4,0,0,1,8,0v8a4,4,0,0,1-8,0ZM28,44a4,4,0,0,1,8,0v8a4,4,0,0,1-8,0ZM16,44a4,4,0,0,1,8,0v8a4,4,0,0,1-8,0Z"></path><path d="M20,54a2,2,0,0,0,2-2V44a2,2,0,0,0-4,0v8A2,2,0,0,0,20,54Z"></path><path d="M60.03,19.527a2,2,0,0,0-3.664-.481l-9,15.588,3.464,2,9-15.588A1.987,1.987,0,0,0,60.03,19.527Z"></path><rect x="30" y="20" width="4" height="4"></rect><rect x="18" y="23" width="10" height="1"></rect><rect x="18" y="20" width="10" height="1"></rect><circle cx="32" cy="11" r="3"></circle><path d="M18,15.127V18h2.859A4,4,0,0,0,18,15.127Z"></path><path d="M20.858,4H18V6.858A4,4,0,0,0,20.858,4Z"></path><path d="M43.142,4A3.993,3.993,0,0,0,46,6.858V4Z"></path><path d="M43.142,18H46V15.143A3.993,3.993,0,0,0,43.142,18Z"></path><rect x="36" y="23" width="10" height="1"></rect><rect x="36" y="20" width="10" height="1"></rect><path d="M46,13.091V8.91A6.007,6.007,0,0,1,41.09,4H22.91A6.008,6.008,0,0,1,18,8.91v4.18A6.008,6.008,0,0,1,22.91,18H41.09A6.006,6.006,0,0,1,46,13.091ZM32,16a5,5,0,1,1,5-5A5.006,5.006,0,0,1,32,16Z"></path><rect x="58" y="6" width="2" height="4"></rect><rect x="54" y="4" width="2" height="2"></rect><rect x="54" y="8" width="2" height="4"></rect><rect x="50" y="10" width="2" height="4"></rect><rect x="50" y="6" width="2" height="2"></rect><rect x="58" y="2" width="2" height="2"></rect><rect x="4" y="6" width="2" height="4"></rect><rect x="8" y="4" width="2" height="2"></rect><rect x="8" y="8" width="2" height="4"></rect><rect x="12" y="10" width="2" height="4"></rect><rect x="12" y="6" width="2" height="2"></rect><rect x="4" y="2" width="2" height="2"></rect></g></svg>