<svg xmlns="http://www.w3.org/2000/svg" viewBox="0 0 64 64" x="0px" y="0px"><g data-name="Waiting Room-Airport-Seats-Travel-Tiime"><path d="M58.69,45.11l3.73-16.44A3,3,0,0,0,59.49,25H28.94a4.969,4.969,0,0,0-4.77,3.51L22.76,33H17a3,3,0,0,0-3,3,3.009,3.009,0,0,0,3,3h3.89l-.63,2H8a4,4,0,0,0,0,8h.38l-4,8H2v2H62V57H59.68l-3.45-8.62A5.035,5.035,0,0,0,58.69,45.11ZM44.94,27h9.84a3.382,3.382,0,0,0-.11.34L53.39,33H49a3,3,0,0,0,0,6h3.02l-.27,1.22a1.024,1.024,0,0,1-.98.78H38.36l3.72-11.9A2.986,2.986,0,0,1,44.94,27Zm10.78,8-.5,2H49a1,1,0,0,1,0-2ZM26.08,29.1A2.986,2.986,0,0,1,28.94,27H40.95a4.815,4.815,0,0,0-.78,1.51L38.77,33H32a3,3,0,0,0-3,3,3.009,3.009,0,0,0,3,3h4.89l-.63,2H23a3.6,3.6,0,0,0-.66.07ZM38.14,35l-.63,2H32a1,1,0,0,1-1-1,.949.949,0,0,1,.31-.71A.928.928,0,0,1,32,35ZM34.55,47H23a2,2,0,0,1,0-4H34.56A3.906,3.906,0,0,0,34,45,3.953,3.953,0,0,0,34.55,47ZM17,37a1,1,0,0,1-1-1,.949.949,0,0,1,.31-.71A.928.928,0,0,1,17,35h5.14l-.63,2ZM8,47a2,2,0,0,1,0-4H19.56a3.851,3.851,0,0,0,0,4Zm.38,10H6.62l4-8h1.76Zm2.24,0,4-8h4.7l3.2,8Zm14.06,0-3.2-8h1.84l3.2,8Zm10.7,0h-6.7l-3.2-8h13.9Zm4,0H37.62l4-8h1.76Zm2.24,0,4-8h4.7l3.2,8Zm15.9,0H55.68l-3.2-8h1.84ZM53.81,47H38a2.015,2.015,0,0,1-2-2,2.006,2.006,0,0,1,2-2H50.77a2.984,2.984,0,0,0,2.92-2.34L54.08,39H56a1,1,0,0,0,.97-.76l1-4a1.022,1.022,0,0,0-.18-.86A1,1,0,0,0,57,33H55.44l1.19-5.23A1,1,0,0,1,57.6,27h1.89a1,1,0,0,1,.79.38.935.935,0,0,1,.18.84L56.74,44.67A3,3,0,0,1,53.81,47Z"></path><path d="M13,5A11,11,0,1,0,24,16,11.007,11.007,0,0,0,13,5Zm1,19.94V23H12v1.94A9.013,9.013,0,0,1,4.06,17H6V15H4.06A9.013,9.013,0,0,1,12,7.06V9h2V7.06A9.013,9.013,0,0,1,21.94,15H20v2h1.94A9.013,9.013,0,0,1,14,24.94Z"></path><path d="M15.293,19.707l1.414-1.414L14,15.586V11H12v5a1,1,0,0,0,.293.707Z"></path></g></svg>