<svg xmlns="http://www.w3.org/2000/svg" viewBox="0 0 64 64" x="0px" y="0px"><g><path d="M53.184,9.5a1,1,0,1,0,.707.292A1,1,0,0,0,53.184,9.5Z"></path><path d="M56.719,6.967a7,7,0,0,0-9.9,0L5.1,48.687l9.9,9.9,1.414-1.414-2.828-2.829L15,52.929l2.828,2.829,1.415-1.415-2.829-2.828L17.828,50.1l2.829,2.828,1.414-1.414-2.828-2.828,1.414-1.415L23.485,50.1,24.9,48.687,19.95,43.736l1.414-1.414,4.949,4.95,1.415-1.414L24.9,43.029l1.414-1.414,2.829,2.829,1.415-1.415L27.728,40.2l1.414-1.414,2.829,2.828L33.385,40.2l-2.828-2.829,1.414-1.414L34.8,38.787l1.414-1.414-4.949-4.95,1.414-1.414,4.949,4.949,1.415-1.414-2.829-2.828L37.627,30.3l2.829,2.828,1.414-1.414-2.828-2.828,1.414-1.414L43.284,30.3,44.7,28.887,41.87,26.059l1.414-1.414,2.828,2.828,1.415-1.414-4.95-4.95L43.991,19.7l4.95,4.95,1.414-1.415L47.527,20.4l1.414-1.414,2.828,2.828L53.184,20.4l-2.829-2.829,1.415-1.414L54.6,18.988l2.121-2.122a7,7,0,0,0,0-9.9Zm-1.413,5.657h0a3,3,0,1,1,0-4.244A2.99,2.99,0,0,1,55.305,12.624Z"></path></g></svg>