<svg xmlns="http://www.w3.org/2000/svg" viewBox="0 0 64 64" x="0px" y="0px"><g><path d="M28.16,49.162a21.076,21.076,0,0,0-4.97-8.438L16.1,33.377a4.009,4.009,0,0,0-2.815-1.216,3.746,3.746,0,0,0-1.4.235L9.5,22.854a4,4,0,0,0-4.835-2.909A3.994,3.994,0,0,0,1.742,24.8L7.013,45.932a12.988,12.988,0,0,0,3.261,5.885l1.261,1.312A9.643,9.643,0,0,1,14,60v1a1,1,0,0,0,1,1H28a1,1,0,0,0,1-1V56.02a21.849,21.849,0,0,0-.8-6.745ZM27,60H16a11.591,11.591,0,0,0-3.023-8.258l-1.262-1.314a10.992,10.992,0,0,1-2.762-4.98L3.683,24.31a1.971,1.971,0,0,1,.554-1.925,1.948,1.948,0,0,1,.91-.5,2,2,0,0,1,2.416,1.455l2.565,10.28a4.02,4.02,0,0,0,.23,5.333l7.628,7.893,1.438-1.39L11.8,37.564a2,2,0,0,1-.113-2.683,1.863,1.863,0,0,1,.767-.55,1.641,1.641,0,0,1,.8-.17,2.012,2.012,0,0,1,1.41.61l7.088,7.342a19.118,19.118,0,0,1,4.507,7.669l.039.11A19.938,19.938,0,0,1,27,56Z"></path><path d="M61.157,20.95a3.935,3.935,0,0,0-1.816-1,4.009,4.009,0,0,0-4.846,2.91L52.116,32.4a3.971,3.971,0,0,0-4.22.983l-7.085,7.341a21.032,21.032,0,0,0-4.96,8.405l-.063.184A21.789,21.789,0,0,0,35,56v5a1,1,0,0,0,1,1H49a1,1,0,0,0,1-1V60a9.644,9.644,0,0,1,2.467-6.873l1.256-1.307a13,13,0,0,0,3.265-5.888L62.257,24.8A3.952,3.952,0,0,0,61.157,20.95Zm-.841,3.362L55.048,45.448a11.006,11.006,0,0,1-2.766,4.983L51.025,51.74A11.592,11.592,0,0,0,48,60H37V55.98a19.885,19.885,0,0,1,.69-6.051l.062-.18a19.072,19.072,0,0,1,4.5-7.637l7.082-7.337a2.019,2.019,0,0,1,1.412-.614,2.069,2.069,0,0,1,.893.207,1.738,1.738,0,0,1,.676.507,2,2,0,0,1-.108,2.69l-7.628,7.893,1.438,1.39,7.628-7.892a4.022,4.022,0,0,0,.23-5.334l2.564-10.277a2,2,0,0,1,2.426-1.456,1.991,1.991,0,0,1,1.454,2.423Z"></path><path d="M31,28h2a1,1,0,0,1,1,1h2a3,3,0,0,0-3-3V25H31v1a3,3,0,0,0,0,6h2a1,1,0,0,1,0,2H31a1,1,0,0,1-1-1H28a3,3,0,0,0,3,3v1h2V36a3,3,0,0,0,0-6H31a1,1,0,0,1,0-2Z"></path><path d="M42,31a10.013,10.013,0,0,0-9-9.949v-.8a21.954,21.954,0,0,1,2.782-4.144,4.956,4.956,0,0,0,6.582-.4c2.347-2.346,2.414-7.864,2.414-8.485a1,1,0,0,0-1-1c-.621,0-6.139.068-8.485,2.414a4.934,4.934,0,0,0-.833,5.925A24.9,24.9,0,0,0,32.534,17.1a6.6,6.6,0,0,0-.6-1.231,20.9,20.9,0,0,0-2.071-2.7,7.008,7.008,0,0,0-1.159-8.355C25.674,1.774,17.6,1.687,16.687,1.687a1,1,0,0,0-1,1c0,.91.087,8.986,3.121,12.02a6.992,6.992,0,0,0,9.815.076,18.43,18.43,0,0,1,1.628,2.161A4.893,4.893,0,0,1,31,19.59v1.461A10,10,0,1,0,42,31ZM20.222,13.293c-1.815-1.815-2.393-6.844-2.511-9.582,2.738.118,7.768.7,9.582,2.511a5.007,5.007,0,0,1,1.087,5.436,23.606,23.606,0,0,0-4.933-3.553L22.553,9.9a22.062,22.062,0,0,1,4.688,3.44,4.99,4.99,0,0,1-7.019-.042ZM36.707,10.05c1.221-1.221,4.189-1.666,6.032-1.789-.123,1.843-.568,4.811-1.789,6.032a3,3,0,0,1-3.819.345,20.454,20.454,0,0,1,3.385-2.781l-1.031-1.714a21.541,21.541,0,0,0-3.532,2.839,2.916,2.916,0,0,1,.754-2.932ZM32,39a8,8,0,1,1,8-8A8.009,8.009,0,0,1,32,39Z"></path><path d="M11,10A3,3,0,1,0,8,7,3,3,0,0,0,11,10Zm0-4a1,1,0,1,1-1,1A1,1,0,0,1,11,6Z"></path><rect x="10" y="12" width="2" height="2"></rect><rect x="10" y="16" width="2" height="2"></rect><path d="M50,14a3,3,0,1,0-3-3A3,3,0,0,0,50,14Zm0-4a1,1,0,1,1-1,1A1,1,0,0,1,50,10Z"></path><rect x="49" y="16" width="2" height="2"></rect><rect x="49" y="20" width="2" height="2"></rect></g></svg>