<svg xmlns="http://www.w3.org/2000/svg" viewBox="0 0 64 64" x="0px" y="0px"><g data-name="Post Card"><path d="M59,11H5a3,3,0,0,0-3,3V50a3,3,0,0,0,3,3H59a3,3,0,0,0,3-3V14A3,3,0,0,0,59,11Zm1,39a1,1,0,0,1-1,1H28V48H26v3H5a1,1,0,0,1-1-1V14a1,1,0,0,1,1-1H26V30h2V13H59a1,1,0,0,1,1,1Z"></path><path d="M23,33H7a1,1,0,0,0-1,1V48a1,1,0,0,0,1,1H23a1,1,0,0,0,1-1V34A1,1,0,0,0,23,33ZM22,47H8V35H22Z"></path><rect x="26" y="32" width="2" height="2"></rect><rect x="26" y="36" width="2" height="2"></rect><rect x="26" y="40" width="2" height="2"></rect><rect x="26" y="44" width="2" height="2"></rect><path d="M50,16a5.966,5.966,0,0,0-4.016,1.555,5.045,5.045,0,0,0-1.652-.255,4.937,4.937,0,0,0-2.849.843,3.245,3.245,0,0,1-3.636,0A4.93,4.93,0,0,0,35,17.3v2a2.979,2.979,0,0,1,1.817.557,5.232,5.232,0,0,0,5.7,0,2.983,2.983,0,0,1,1.819-.557c.117,0,.206.014.307.022a5.933,5.933,0,0,0-.6,1.99,4.954,4.954,0,0,0-2.56.831,3.245,3.245,0,0,1-3.636,0A4.93,4.93,0,0,0,35,21.3v2a2.979,2.979,0,0,1,1.817.557,5.232,5.232,0,0,0,5.7,0,3.037,3.037,0,0,1,1.636-.544A6,6,0,1,0,50,16Zm0,10a3.993,3.993,0,0,1-3.373-1.869A4.76,4.76,0,0,0,49,24.7v-2a2.983,2.983,0,0,1-1.819-.557,6.112,6.112,0,0,0-1.138-.569,3.971,3.971,0,0,1,.475-1.5A4.748,4.748,0,0,0,49,20.7v-2a3.013,3.013,0,0,1-1-.146A3.955,3.955,0,0,1,50,18a4,4,0,0,1,0,8Z"></path><rect x="32" y="31" width="18" height="2"></rect><rect x="32" y="35" width="18" height="2"></rect><rect x="32" y="39" width="18" height="2"></rect><rect x="32" y="45" width="2" height="4"></rect><rect x="36" y="45" width="2" height="4"></rect><rect x="40" y="45" width="2" height="4"></rect><rect x="44" y="45" width="2" height="4"></rect><rect x="48" y="45" width="2" height="4"></rect><rect x="8" y="18" width="12" height="2"></rect><rect x="8" y="22" width="12" height="2"></rect></g></svg>