<svg xmlns="http://www.w3.org/2000/svg" viewBox="0 0 64 64" x="0px" y="0px"><g><path d="M33.24,59.03l3.88.97H51a1,1,0,0,0,0-2H46a1,1,0,0,1,0-2h9a1,1,0,0,0,0-2H46a1,1,0,0,1,0-2H59a1,1,0,0,0,0-2H46a1,1,0,0,1,0-2h9a1,1,0,0,0,0-2H43.88A5,5,0,0,1,39,50H38V48h1a3.009,3.009,0,0,0,3-3,1,1,0,0,1,.5-.87l3.46-2a.988.988,0,0,0,.37-1.36,1.01,1.01,0,0,0-1.37-.37L33.77,46.87a1.094,1.094,0,0,1-.5.13H22v2h1v2H19V49h1V47H2V59H33A.986.986,0,0,1,33.24,59.03Z"></path><rect x="19" y="8" width="4" height="4"></rect><polygon points="17 36 25 36 25 34 23 34 23 32 25 32 25 30 23 30 23 28 25 28 25 26 23 26 23 24 25 24 25 22 23 22 23 20 25 20 25 18 23 18 23 16 25 16 25 14 17 14 17 36"></polygon><rect x="16" y="4" width="10" height="2"></rect><polygon points="22.28 42 23.61 38 18.39 38 19.72 42 22.28 42"></polygon><circle cx="46" cy="17" r="2"></circle><path d="M46,6A11.013,11.013,0,0,0,35,17a10.886,10.886,0,0,0,2.256,6.652,1,1,0,0,1,.123,1L35.9,28.1l3.747-1.606a1,1,0,0,1,.892.052A11,11,0,1,0,46,6Zm6,12H49.858a3.915,3.915,0,0,1-.425,1.019l1.517,1.516-1.414,1.414-1.517-1.516A3.915,3.915,0,0,1,47,20.858V23H45V20.858a3.915,3.915,0,0,1-1.019-.425l-1.517,1.516L41.05,20.535l1.517-1.516A3.915,3.915,0,0,1,42.142,18H40V16h2.142a3.915,3.915,0,0,1,.425-1.019L41.05,13.465l1.414-1.414,1.517,1.516A3.915,3.915,0,0,1,45,13.142V11h2v2.142a3.915,3.915,0,0,1,1.019.425l1.517-1.516,1.414,1.414-1.517,1.516A3.915,3.915,0,0,1,49.858,16H52Z"></path><rect x="20" y="44" width="2" height="3"></rect></g></svg>