<svg xmlns="http://www.w3.org/2000/svg" viewBox="0 0 64 64" x="0px" y="0px"><title>Money-Document</title><g><path d="M59,10H33.618L30.447,3.658A2.984,2.984,0,0,0,27.764,2H5A3,3,0,0,0,2,5V59a3,3,0,0,0,3,3H59a3,3,0,0,0,3-3V13A3,3,0,0,0,59,10Zm1,49a1,1,0,0,1-1,1H5a1,1,0,0,1-1-1V5A1,1,0,0,1,5,4H27.764a.994.994,0,0,1,.894.553L31.382,10H21v2H59a1,1,0,0,1,1,1Z"></path><path d="M32,33a1,1,0,0,1,1,1h2a3,3,0,0,0-2-2.816V30H31v1.184A2.993,2.993,0,0,0,32,37a1,1,0,1,1-1,1H29a3,3,0,0,0,2,2.816V42h2V40.816A2.993,2.993,0,0,0,32,35a1,1,0,0,1,0-2Z"></path><path d="M32,27a9,9,0,1,0,9,9A9.01,9.01,0,0,0,32,27Zm0,16a7,7,0,1,1,7-7A7.008,7.008,0,0,1,32,43Z"></path><rect x="36" y="35" width="2" height="2"></rect><rect x="26" y="35" width="2" height="2"></rect><path d="M54,24H10a2,2,0,0,0-2,2V46a2,2,0,0,0,2,2H54a2,2,0,0,0,2-2V26A2,2,0,0,0,54,24ZM10,46V26H54V46Z"></path><path d="M12,29v4h2V30h3V28H13A1,1,0,0,0,12,29Z"></path><path d="M14,39H12v4a1,1,0,0,0,1,1h4V42H14Z"></path><path d="M51,28H47v2h3v3h2V29A1,1,0,0,0,51,28Z"></path><path d="M50,42H47v2h4a1,1,0,0,0,1-1V39H50Z"></path></g></svg>