<svg xmlns="http://www.w3.org/2000/svg" viewBox="0 0 64 64" x="0px" y="0px"><g><path d="M57,22a1,1,0,0,0,1-1V19a7.008,7.008,0,0,0-7-7H15a1,1,0,0,1-.937-.649L11.307,4H6V19a3,3,0,0,0,3,3H26V18h2V31h6.246l3.793-13.275,1.922.55L38.9,22ZM19,16H17V14h2Zm4,0H21V14h2Zm4,0H25V14h2Zm4,0H29V14h2Zm4,0H33V14h2Zm4,0H37V14h2Zm11-2h4v2H50Zm-5,0h2v2H45Zm-4,0h2v2H41Z"></path><polygon points="28 4 28 10 35.593 10 34.205 4 28 4"></polygon><path d="M27.227,51.809,32,54.991l4.773-3.182A4.994,4.994,0,0,0,39,47.648V40H25v7.648A5,5,0,0,0,27.227,51.809Zm1.48-6.516L31,47.586l4.293-4.293,1.414,1.414-5,5a1,1,0,0,1-1.414,0l-3-3Z"></path><path d="M25.008,55.137,32,59.8l6.992-4.661A8.983,8.983,0,0,0,43,47.648V36H21V47.648A8.983,8.983,0,0,0,25.008,55.137ZM23,39a1,1,0,0,1,1-1H40a1,1,0,0,1,1,1v8.648a6.989,6.989,0,0,1-3.117,5.825l-5.328,3.551a1,1,0,0,1-1.11,0l-5.328-3.551A6.989,6.989,0,0,1,23,47.648Z"></path><path d="M54.91,24,53,44.09a.979.979,0,0,1-.45.74l-7.8,5.2c.03-.14.05-.28.08-.42A12.368,12.368,0,0,0,45,47.65v-.18l6.05-4.04L52.9,24Z"></path><path d="M49,24V41a1.033,1.033,0,0,1-.29.71L45,45.42V42.58l2-1.99V24Z"></path><path d="M19.29,50.14l-8.8-5.28a1.007,1.007,0,0,1-.49-.77L8.15,24h2.02l1.78,19.4L19,47.63v.02a10.989,10.989,0,0,0,.19,2.04C19.22,49.84,19.25,49.99,19.29,50.14Z"></path><path d="M19,43.03v2.61l-4.64-3.87A.992.992,0,0,1,14,41V24h2V40.53Z"></path></g></svg>