<svg xmlns="http://www.w3.org/2000/svg" viewBox="0 0 64 64" x="0px" y="0px"><g><path d="M40,17H37v2a2,2,0,0,1-2,2H29a2,2,0,0,1-2-2V17H24a1,1,0,0,0-1,1V42a1,1,0,0,0,1,1H40a1,1,0,0,0,1-1V18A1,1,0,0,0,40,17ZM29,30H27V28h2Zm4,0H31V28h2Zm4,0H35V28h2Z"></path><rect x="29" y="17" width="6" height="2"></rect><path d="M34,54H30a1,1,0,0,0,0,2h4a1,1,0,0,0,0-2Z"></path><path d="M50,8a4,4,0,0,0-4-4H18a4,4,0,0,0-4,4V56a4,4,0,0,0,4,4H46a4,4,0,0,0,4-4ZM29,6h6V8H29ZM25,6h2V8H25Zm9,52H30a3,3,0,0,1,0-6h4a3,3,0,0,1,0,6Zm9-16a3,3,0,0,1-3,3H24a3,3,0,0,1-3-3V18a3,3,0,0,1,3-3H40a3,3,0,0,1,3,3Z"></path></g></svg>