<svg xmlns="http://www.w3.org/2000/svg" viewBox="0 0 64 64" x="0px" y="0px"><g data-name="Online Shopping-Smart Phone"><path d="M41,39a1,1,0,0,0-1,1V50.649l3.781,4.726A1,1,0,0,1,44,56v4H56V56a1.012,1.012,0,0,1,.071-.372L58,50.808V40a1,1,0,0,0-2,0v2H54V39a1,1,0,0,0-2,0v3H50V38a1,1,0,0,0-2,0v4H46V28a1,1,0,0,0-2,0V46H42V40A1,1,0,0,0,41,39Z"></path><rect x="4" y="14" width="2" height="14"></rect><path d="M24.18,17l1.53,9.16a.989.989,0,0,0,.98.84H37.31a.989.989,0,0,0,.98-.84L39.82,17ZM29,25H27V19h2Zm4,0H31V19h2Zm4,0H35V19h2Z"></path><path d="M57,4H7A3.009,3.009,0,0,0,4,7v5H6a2.006,2.006,0,0,1,2,2V28a2.006,2.006,0,0,1-2,2H4v6a3.009,3.009,0,0,0,3,3H38.18A2.964,2.964,0,0,1,42,37.18V28a3,3,0,0,1,6,0v7.18a2.957,2.957,0,0,1,3.53,1.22A2.942,2.942,0,0,1,53,36a2.983,2.983,0,0,1,2.53,1.4A2.942,2.942,0,0,1,57,37a3.006,3.006,0,0,1,2.78,1.88,2.5,2.5,0,0,0,.22-.24V7A3.009,3.009,0,0,0,57,4ZM14,8h2v2H14ZM10,8h2v2H10Zm0,17h2v2H10ZM20,35H10V33H20Zm0-4H10V29H20Zm0-4H14V25h6Zm0-17H18V8h2ZM40.26,26.49A2.978,2.978,0,0,1,37.31,29H26.69a2.978,2.978,0,0,1-2.95-2.51L22.01,16.16a1.039,1.039,0,0,1,.23-.81A1.011,1.011,0,0,1,23,15h2.82l-.81-4.84,1.98-.32L27.85,15h8.3l.86-5.16,1.98.32L38.18,15H41a1,1,0,0,1,.99,1.16ZM46,11h2v2H46ZM56,21H46V19H56Zm0-4H46V15H56Zm0-4H50V11h6Z"></path></g></svg>