<svg xmlns="http://www.w3.org/2000/svg" viewBox="0 0 64 64" x="0px" y="0px"><g data-name="Web Server-Data-Graph-Smartphone-Report"><path d="M56,16.08V7a5,5,0,0,0-5-5H7A5,5,0,0,0,2,7V37a5,5,0,0,0,5,5H20.87l-.75,6H19a3.009,3.009,0,0,0-3,3,3,3,0,0,0,3,3H30v1a7.008,7.008,0,0,0,7,7H55a7.008,7.008,0,0,0,7-7V23A7,7,0,0,0,56,16.08ZM30,52H19a.949.949,0,0,1-.71-.31A.928.928,0,0,1,18,51a1,1,0,0,1,1-1H30Zm0-4H22.13l.75-6H30Zm0-8H7a3.009,3.009,0,0,1-3-3V34H30Zm0-8H4V7A3.009,3.009,0,0,1,7,4H51a3.009,3.009,0,0,1,3,3v9H37a7.008,7.008,0,0,0-7,7ZM60,55a5,5,0,0,1-5,5H37a5,5,0,0,1-5-5V54H60Zm0-3H32V26H60Zm0-28H32V23a5,5,0,0,1,5-5H55a5,5,0,0,1,5,5Z"></path><rect x="38" y="20" width="2" height="2"></rect><rect x="42" y="20" width="8" height="2"></rect><path d="M46,28c-4.47,0-9,1.37-9,4V46c0,2.63,4.53,4,9,4s9-1.37,9-4V32C55,29.37,50.47,28,46,28Zm7,18c0,.58-2.45,2-7,2s-7-1.42-7-2V41.6A15.9,15.9,0,0,0,46,43a15.9,15.9,0,0,0,7-1.4Zm0-7c0,.58-2.45,2-7,2s-7-1.42-7-2V34.6A15.9,15.9,0,0,0,46,36a15.9,15.9,0,0,0,7-1.4Zm-7-5c-4.55,0-7-1.42-7-2s2.45-2,7-2,7,1.42,7,2S50.55,34,46,34Z"></path><rect x="41" y="37" width="2" height="2"></rect><rect x="45" y="38" width="2" height="2"></rect><rect x="41" y="44" width="2" height="2"></rect><rect x="45" y="45" width="2" height="2"></rect><rect x="43" y="56" width="6" height="2"></rect><path d="M16,28A10,10,0,1,0,6,18,10.011,10.011,0,0,0,16,28Zm0-2a7.948,7.948,0,0,1-4.9-1.688l1.426-1.427A5.984,5.984,0,0,0,21.91,19h2.021A8.008,8.008,0,0,1,16,26Zm0-12a4,4,0,1,1-4,4A4,4,0,0,1,16,14Zm7.931,3H21.91A6.008,6.008,0,0,0,17,12.09V10.069A8.008,8.008,0,0,1,23.931,17ZM15,10.069V12.09a5.984,5.984,0,0,0-3.885,9.381L9.688,22.9A7.981,7.981,0,0,1,15,10.069Z"></path><rect x="25" y="8" width="6" height="2"></rect><rect x="27" y="12" width="4" height="2"></rect><rect x="24" y="28" width="4" height="2"></rect><rect x="26" y="24" width="2" height="2"></rect><rect x="48" y="8" width="2" height="2"></rect><rect x="40" y="8" width="6" height="2"></rect><rect x="40" y="12" width="10" height="2"></rect></g></svg>