<svg xmlns="http://www.w3.org/2000/svg" viewBox="0 0 64 64" x="0px" y="0px"><g data-name="Growth up-House"><path d="M48.157,43.18,43,39.54V34a1,1,0,0,0-1-1H38a1,1,0,0,0-1,1v1.3l-4.424-3.122a1,1,0,0,0-1.152,0l-15.581,11A2.786,2.786,0,1,0,19.1,47.7L21,46.307V60a2,2,0,0,0,2,2H41a2,2,0,0,0,2-2V46.307L44.9,47.7a2.786,2.786,0,1,0,3.255-4.522ZM39,35h2v3.128l-2-1.411ZM27,60V54h4v6Zm14,0H33V53a1,1,0,0,0-1-1H26a1,1,0,0,0-1,1v7H23V44.84l9-6.6,9,6.6Zm6.2-14.108a.783.783,0,0,1-.517.337.77.77,0,0,1-.6-.14l-13.494-9.9a1,1,0,0,0-1.184,0l-13.494,9.9a.772.772,0,0,1-.6.14A.785.785,0,0,1,17,44.814l15-10.59L47,44.813A.784.784,0,0,1,47.2,45.892Z"></path><path d="M34,53v4a1,1,0,0,0,1,1h4a1,1,0,0,0,1-1V53a1,1,0,0,0-1-1H35A1,1,0,0,0,34,53Zm2,1h2v2H36Z"></path><path d="M28,46a4,4,0,1,0,4-4A4,4,0,0,0,28,46Zm6,0a2,2,0,1,1-2-2A2,2,0,0,1,34,46Z"></path><path d="M17.586,26H17a1,1,0,0,0-1,1V39h2V28h2a1,1,0,0,0,.707-1.707l-6-6a1,1,0,0,0-1.414,0l-6,6A1,1,0,0,0,8,28h2V39h2V27a1,1,0,0,0-1-1h-.586L14,22.414Z"></path><path d="M26,10h2V21h2V9a1,1,0,0,0-1-1h-.586L32,4.414,35.586,8H35a1,1,0,0,0-1,1V21h2V10h2a1,1,0,0,0,.707-1.707l-6-6a1,1,0,0,0-1.414,0l-6,6A1,1,0,0,0,26,10Z"></path><path d="M58.707,18.293l-6-6a1,1,0,0,0-1.414,0l-6,6A1,1,0,0,0,46,20h2V31h2V19a1,1,0,0,0-1-1h-.586L52,14.414,55.586,18H55a1,1,0,0,0-1,1V31h2V20h2a1,1,0,0,0,.707-1.707Z"></path><rect x="28" y="23" width="2" height="2"></rect><rect x="28" y="27" width="2" height="2"></rect><rect x="34" y="23" width="2" height="4"></rect><rect x="48" y="33" width="2" height="4"></rect><rect x="48" y="39" width="2" height="2"></rect><rect x="54" y="35" width="2" height="2"></rect><rect x="54" y="41" width="2" height="2"></rect><rect x="10" y="41" width="2" height="2"></rect><rect x="10" y="45" width="2" height="2"></rect><rect x="10" y="49" width="2" height="2"></rect></g></svg>