<svg xmlns="http://www.w3.org/2000/svg" viewBox="0 0 64 64" x="0px" y="0px"><g><path d="M60.53,3.456a5.05,5.05,0,0,0-2.259-1.289A4.659,4.659,0,0,0,57,2H17a7.008,7.008,0,0,0-7,7V52H3a1,1,0,0,0-1,1v2a7.008,7.008,0,0,0,7,7H49a5.006,5.006,0,0,0,5-5V12h7a1,1,0,0,0,1-1V7A5.016,5.016,0,0,0,60.53,3.456ZM9,60a5.006,5.006,0,0,1-5-5V54H42v1a6.98,6.98,0,0,0,2.1,5Zm43-3a3,3,0,0,1-3,3,5.006,5.006,0,0,1-5-5V53a1,1,0,0,0-1-1H12V9a5.006,5.006,0,0,1,5-5H53c-.028.038-.049.083-.077.122-.059.083-.11.171-.164.258a4.917,4.917,0,0,0-.283.52c-.046.1-.089.2-.129.3a5.1,5.1,0,0,0-.184.593c-.024.094-.053.186-.071.282A4.964,4.964,0,0,0,52,7Zm8-47H54V7a3,3,0,0,1,3-3,2.713,2.713,0,0,1,.751.1,3.063,3.063,0,0,1,1.367.774A3.018,3.018,0,0,1,60,7Z"></path><rect x="28" y="11" width="8" height="2"></rect><rect x="32" y="7" width="4" height="2"></rect><rect x="28" y="7" width="2" height="2"></rect><rect x="22" y="47" width="4" height="2"></rect><rect x="18" y="47" width="2" height="2"></rect><rect x="42" y="47" width="4" height="2"></rect><rect x="38" y="47" width="2" height="2"></rect><path d="M43,33.09V32a3,3,0,0,0-3-3H33V26.91a6,6,0,1,0-2,0V29H24a3,3,0,0,0-3,3v1.09a6,6,0,1,0,2,0V32a1,1,0,0,1,1-1H40a1,1,0,0,1,1,1v1.09a6,6,0,1,0,2,0ZM28,21a4,4,0,1,1,4,4A4,4,0,0,1,28,21ZM26,39a4,4,0,1,1-4-4A4,4,0,0,1,26,39Zm16,4a4,4,0,1,1,4-4A4,4,0,0,1,42,43Z"></path></g></svg>