<svg xmlns="http://www.w3.org/2000/svg" viewBox="0 0 64 64" x="0px" y="0px"><title>Checklist-Delivery-Clipboard-Package-Order</title><g data-name="Checklist"><path d="M25,12a3,3,0,1,0-3-3A3,3,0,0,0,25,12Zm0-4a1,1,0,1,1-1,1A1,1,0,0,1,25,8Z"></path><path d="M59.832,30.445l-4-6A1,1,0,0,0,55,24H46V17a5.006,5.006,0,0,0-5-5H35.969A4.952,4.952,0,0,0,33,11H31V7a5.006,5.006,0,0,0-5-5H24a5.006,5.006,0,0,0-5,5v4H17a4.952,4.952,0,0,0-2.969,1H9a5.006,5.006,0,0,0-5,5V57a5.006,5.006,0,0,0,5,5H41a5.006,5.006,0,0,0,5-5V54H58a2,2,0,0,0,2-2V31A1.006,1.006,0,0,0,59.832,30.445ZM57.132,30H32.868l2.667-4h18.93ZM41,35H32V32h9ZM10,51.414,14.586,56H10ZM11.414,50H15a1,1,0,0,1,1,1v3.586ZM15,48H10V18h2v3a1,1,0,0,0,1,1H37a1,1,0,0,0,1-1V18h2v6H35a1,1,0,0,0-.832.445l-4,6A1.006,1.006,0,0,0,30,31V52a2,2,0,0,0,2,2h8v2H18V51A3,3,0,0,0,15,48ZM14,19H36v1H14ZM43,32h4v7.131l-1.445-.963a1,1,0,0,0-1.11,0L43,39.131Zm6,0h9v3H49ZM44,17v7H42V18a2,2,0,0,0-2-2H38a4.95,4.95,0,0,0-.424-2H41A3,3,0,0,1,44,17ZM17,13h3a1,1,0,0,0,1-1V7a3,3,0,0,1,3-3h2a3,3,0,0,1,3,3v5a1,1,0,0,0,1,1h3a3,3,0,0,1,3,3v1H14V16A3,3,0,0,1,17,13ZM44,57a3,3,0,0,1-3,3H9a3,3,0,0,1-3-3V17a3,3,0,0,1,3-3h3.424A4.95,4.95,0,0,0,12,16H10a2,2,0,0,0-2,2V56a2,2,0,0,0,2,2H40a2,2,0,0,0,2-2V54h2ZM32,52V37h9v4a1,1,0,0,0,1.555.832L45,40.2l2.445,1.63A1,1,0,0,0,49,41V37h9V52Z"></path><path d="M14,36h6a2,2,0,0,0,2-2V32H20v2H14V28h6V26H14a2,2,0,0,0-2,2v6A2,2,0,0,0,14,36Z"></path><path d="M16.707,29.293l-1.414,1.414,2,2a1,1,0,0,0,1.414,0l4-4-1.414-1.414L18,30.586Z"></path><rect x="24" y="27" width="4" height="2"></rect><rect x="24" y="30" width="4" height="2"></rect><rect x="12" y="38" width="2" height="2"></rect><rect x="16" y="38" width="10" height="2"></rect><rect x="12" y="42" width="14" height="2"></rect></g></svg>