<svg xmlns="http://www.w3.org/2000/svg" viewBox="0 0 64 64" x="0px" y="0px"><g><path d="M36.732,55,58.15,42.634a1.983,1.983,0,0,0,1-1.734,2,2,0,0,0-3-1.731l-9.194,5.306A3.992,3.992,0,0,1,43,48H32V46H43a2,2,0,0,0,2-2,1.661,1.661,0,0,0-.116-.641,1.919,1.919,0,0,0-.472-.773A1.985,1.985,0,0,0,43,42H28.259l-6.668,3.71L24.972,55Z"></path><rect x="13.223" y="43.253" width="8" height="16" transform="translate(-16.49 8.981) rotate(-19.999)"></rect><rect x="5.766" y="48.331" width="6" height="12" transform="translate(-18.053 6.274) rotate(-19.999)"></rect><path d="M51,30V4H35V30ZM45,8h4v2H45ZM37,8h6v2H37Zm0,4H49v2H37Zm0,4H49v2H37Zm0,4H49v2H37Zm0,4H49v2H37Z"></path><path d="M29,32v1H10V5.03h1V31a1,1,0,0,0,1,1Z"></path><path d="M33,6H31V33a1,1,0,0,0,2,0Z"></path><path d="M54,5.03V33H35V32H52a1,1,0,0,0,1-1V5.03Z"></path><path d="M29,30V4H13V30ZM19,8h8v2H19ZM15,8h2v2H15Zm0,4H27v2H15Zm0,4H27v2H15Zm0,4H27v2H15Zm0,4H27v2H15Z"></path><rect x="58" y="29" width="2" height="2"></rect><rect x="58" y="25" width="2" height="2"></rect><rect x="58" y="13" width="2" height="10"></rect><rect x="4" y="29" width="2" height="2"></rect><rect x="4" y="25" width="2" height="2"></rect><rect x="4" y="13" width="2" height="10"></rect></g></svg>