<svg xmlns="http://www.w3.org/2000/svg" viewBox="0 0 64 64" x="0px" y="0px"><g data-name="Wardrobe"><path d="M25,7V57H39V7ZM37,32H35V24h2Z"></path><path d="M9,49H23V43H9Zm5-4h4v2H14Z"></path><path d="M9,41H23V7H9ZM10,8H22V40H10Z"></path><rect x="7" y="3" width="50" height="2"></rect><path d="M9,57H23V51H9Zm5-4h4v2H14Z"></path><path d="M12,38h8V10H12Zm2.707-17.293-1.414-1.414,4-4,1.414,1.414Zm1.586-9.414,1.414,1.414-4,4-1.414-1.414Z"></path><path d="M55,7H41V57H55ZM45,32H43V24h2Z"></path><rect x="10" y="59" width="44" height="2"></rect></g></svg>