<svg xmlns="http://www.w3.org/2000/svg" viewBox="0 0 64 64" x="0px" y="0px"><g data-name="SEO Performance"><path d="M8,38H56V12H8Zm27-4a3,3,0,1,1-3-3,2.963,2.963,0,0,1,1.286.3l5.007-5.007,1.414,1.414L34.7,32.713A2.982,2.982,0,0,1,35,34ZM32,14A20.023,20.023,0,0,1,52,34a1,1,0,0,1-1,1H46V33h3.973a17.844,17.844,0,0,0-1.925-7.11l-3.423,1.976-1-1.732,3.418-1.974a18.121,18.121,0,0,0-5.2-5.216l-1.981,3.431-1.732-1,1.98-3.43A17.851,17.851,0,0,0,33,16.049V20H31V16.049a17.851,17.851,0,0,0-7.114,1.9l1.98,3.43-1.732,1-1.981-3.431a18.121,18.121,0,0,0-5.2,5.216l3.418,1.974-1,1.732L15.952,25.89A17.844,17.844,0,0,0,14.027,33H18v2H13a1,1,0,0,1-1-1A20.023,20.023,0,0,1,32,14Z"></path><path d="M32,33a1,1,0,1,0,1,1,.957.957,0,0,0-.288-.694A.974.974,0,0,0,32,33Z"></path><rect x="22" y="58" width="20" height="2"></rect><path d="M60,11a3,3,0,0,0-3-3H7a3,3,0,0,0-3,3V43a3,3,0,0,0,3,3H57a3,3,0,0,0,3-3ZM33,44H31V42h2Zm25-5a1,1,0,0,1-1,1H7a1,1,0,0,1-1-1V11a1,1,0,0,1,1-1H57a1,1,0,0,1,1,1Z"></path><rect x="26" y="48" width="12" height="8"></rect></g></svg>