<svg xmlns="http://www.w3.org/2000/svg" viewBox="0 0 64 64" x="0px" y="0px"><g><path d="M54,59a1,1,0,0,1-1,1H15a1,1,0,0,1-1-1V58H12v1a3,3,0,0,0,3,3H53a3,3,0,0,0,3-3V52H54Z"></path><path d="M14,5a1,1,0,0,1,1-1H46v7a1,1,0,0,0,1.832.555L49,9.8l1.168,1.752A1,1,0,0,0,52,11V4h1a1,1,0,0,1,1,1V26h2V5a3,3,0,0,0-3-3H15a3,3,0,0,0-3,3V18h2ZM50,7.7l-.168-.252a1.039,1.039,0,0,0-1.664,0L48,7.7V4h2Z"></path><rect x="21" y="8" width="6" height="2"></rect><rect x="21" y="12" width="6" height="2"></rect><path d="M61,36H60V33a5.006,5.006,0,0,0-5-5H53a5.006,5.006,0,0,0-5,5v3H47a1,1,0,0,0-1,1V47a3,3,0,0,0,3,3H59a3,3,0,0,0,3-3V37A1,1,0,0,0,61,36ZM50,33a3,3,0,0,1,3-3h2a3,3,0,0,1,3,3v3H50ZM60,47a1,1,0,0,1-1,1H49a1,1,0,0,1-1-1V38H60Z"></path><path d="M53,43.722V46h2V43.722a2,2,0,1,0-2,0Z"></path><path d="M49,56a3,3,0,0,0,3-3V52H50v1a1,1,0,0,1-1,1H5a1,1,0,0,1-1-1v-.587L22.072,34.284l4.424,2.58a1,1,0,0,0,1.008,0l4.387-2.559,11.4,11.4,1.414-1.414-11.03-11.03L50,23.741V26h2V22a2,2,0,0,0-2-2H4a2,2,0,0,0-2,2V53a3,3,0,0,0,3,3ZM4,49.581V23.741l16.287,9.5ZM27,34.843,4.985,22h44.03Z"></path><rect x="8" y="58" width="2" height="2"></rect><rect x="4" y="58" width="2" height="2"></rect><rect x="8" y="16" width="2" height="2"></rect><rect x="8" y="12" width="2" height="2"></rect><rect x="8" y="8" width="2" height="2"></rect></g></svg>