<svg xmlns="http://www.w3.org/2000/svg" viewBox="0 0 64 64" x="0px" y="0px"><title>Fix-Repair-Idea</title><g><path d="M48,60H16V36a1,1,0,0,0-1-1H6.271L13.787,4H48V8h2V3a1,1,0,0,0-1-1H13a1,1,0,0,0-.972.764l-8,33A1,1,0,0,0,5,37h9V61a1,1,0,0,0,1,1H49a1,1,0,0,0,1-1V40H48Z"></path><path d="M20,15a2,2,0,0,1-4,0,1,1,0,0,0-2,0,4,4,0,0,0,8,0,1,1,0,0,0-2,0Z"></path><path d="M51.405,9.5A1,1,0,0,0,50,10.41v2.972l-1,.5-1-.5V10.41A1,1,0,0,0,46.6,9.5,6.005,6.005,0,0,0,45,19.471V35a3,3,0,0,0,3,3h2a3,3,0,0,0,3-3V19.471A6.005,6.005,0,0,0,51.405,9.5ZM51.4,18.2a1,1,0,0,0-.4.8V35a1,1,0,0,1-1,1H48a1,1,0,0,1-1-1V19a1,1,0,0,0-.4-.8,4,4,0,0,1-.6-5.845V14a1,1,0,0,0,.553.895l2,1a1,1,0,0,0,.894,0l2-1A1,1,0,0,0,52,14V12.356a4,4,0,0,1-.6,5.845Z"></path><rect x="48" y="33" width="2" height="2"></rect></g></svg>