<svg xmlns="http://www.w3.org/2000/svg" viewBox="0 0 64 64" x="0px" y="0px"><g><path d="M36,10H28V22h8Zm-4,7a3,3,0,1,1,3-3A3,3,0,0,1,32,17Z"></path><path d="M26,22V20H5a1,1,0,0,0-1,1v5H60V21a1,1,0,0,0-1-1H38v2h2v2H24V22Z"></path><circle cx="32" cy="14" r="1"></circle><path d="M18,43a4,4,0,0,0-4,4v.917a7.928,7.928,0,0,0,8,0V47a3.984,3.984,0,0,0-4-4Z"></path><circle cx="18" cy="39" r="2"></circle><path d="M15.107,41.747a4,4,0,1,1,5.788,0,5.928,5.928,0,0,1,3.063,4.575,8,8,0,1,0-11.917,0A6.009,6.009,0,0,1,15.107,41.747Z"></path><path d="M5,54H59a1,1,0,0,0,1-1V28H4V53A1,1,0,0,0,5,54Zm33-6H36V46h2Zm4,0H40V46h2Zm4,0H44V46h2Zm4,0H48V46h2Zm4,0H52V46h2Zm-3-6V40h2v2ZM41,34H53v2H41Zm-8,0h6v2H33Zm0,6H49v2H33Zm-1,6h2v2H32ZM18,31A10,10,0,1,1,8,41,10.011,10.011,0,0,1,18,31Z"></path></g></svg>