<svg xmlns="http://www.w3.org/2000/svg" viewBox="0 0 64 64" x="0px" y="0px"><g data-name="Game Console"><rect x="13" y="29" width="2" height="2"></rect><rect x="17" y="29" width="2" height="2"></rect><rect x="15" y="27" width="2" height="2"></rect><rect x="15" y="31" width="2" height="2"></rect><rect x="45" y="29" width="2" height="2"></rect><rect x="49" y="29" width="2" height="2"></rect><rect x="47" y="27" width="2" height="2"></rect><rect x="47" y="31" width="2" height="2"></rect><rect x="15" y="13" width="2" height="2"></rect><rect x="47" y="13" width="2" height="2"></rect><path d="M61.707,20.293l-4-4A1,1,0,0,0,57,16H55V12a3,3,0,0,0-3-3H12a3,3,0,0,0-3,3v4H7a1,1,0,0,0-.707.293l-4,4A1,1,0,0,0,2,21V53a1,1,0,0,0,1,1h8a1,1,0,0,0,1-1V44.3l1.832-2.748A1.006,1.006,0,0,0,14,41V37H50v4a1.006,1.006,0,0,0,.168.555L52,44.3V53a1,1,0,0,0,1,1h8a1,1,0,0,0,1-1V21A1,1,0,0,0,61.707,20.293ZM12,40.7l-1.832,2.748A1.006,1.006,0,0,0,10,44v8H4V21.414L7.414,18H9v6.34a1,1,0,0,0,1.707.707l3.241-3.24a1.026,1.026,0,0,1,1.414,0,.991.991,0,0,1,0,1.416l-6.07,6.07a1,1,0,0,0-.15,1.222L12,35.277Zm4.855-20.209c-.028-.031-.048-.066-.078-.095a2.923,2.923,0,0,0-1.68-.809A1,1,0,0,1,17,20,.972.972,0,0,1,16.855,20.488Zm-3,14-2.6-4.33,5.519-5.518a2.98,2.98,0,0,0,.882-2.117c0-.011,0-.021,0-.032A3,3,0,1,0,13,20v.018a2.83,2.83,0,0,0-.468.375L11,21.926V12a1,1,0,0,1,1-1h9V35H14A1,1,0,0,0,13.857,34.485ZM23,11H41V35H23ZM50.143,34.485A1,1,0,0,0,50,35H43V11h9a1,1,0,0,1,1,1v9.926l-1.532-1.532A2.85,2.85,0,0,0,51,20.017V20a3,3,0,1,0-4.657,2.488c0,.011,0,.021,0,.032a2.977,2.977,0,0,0,.883,2.117l5.518,5.518ZM47.222,20.394c-.029.029-.05.063-.077.093A.969.969,0,0,1,47,20a1,1,0,0,1,1.9-.417A2.931,2.931,0,0,0,47.222,20.394ZM60,52H54V44a1.006,1.006,0,0,0-.168-.555L52,40.7v-5.42l2.857-4.762a1,1,0,0,0-.15-1.222l-6.069-6.069a.99.99,0,0,1-.3-.7,1,1,0,0,1,.3-.713,1.027,1.027,0,0,1,1.416,0l3.24,3.24A1,1,0,0,0,55,24.34V18h1.586L60,21.414Z"></path></g></svg>