<svg xmlns="http://www.w3.org/2000/svg" viewBox="0 0 64 64" x="0px" y="0px"><g><rect x="4" y="35" width="6" height="18" rx="1"></rect><path d="M22.03,11.4a1.024,1.024,0,0,0-.71-.29,1,1,0,0,0-.7.29L9.3,22.72a1,1,0,0,0,0,1.41l2.83,2.83a1,1,0,0,0,1.41,0L24.86,15.64a1,1,0,0,0,0-1.41Z"></path><rect x="54" y="34" width="6" height="20" rx="1"></rect><path d="M52,38H44.8a1.033,1.033,0,0,1-.71-.29L24.86,18.47l-8.49,8.49,9.34,9.33a1,1,0,0,1,.21,1.09A.987.987,0,0,1,25,38H12V50H52ZM25,45H19.414l1.293,1.293-1.414,1.414-3-3a1,1,0,0,1,0-1.414l3-3,1.414,1.414L19.414,43H25Zm6.293-10.293L27,30.414V32H25V28a1,1,0,0,1,1-1h4v2H28.414l4.293,4.293ZM45,45H39.414l1.293,1.293-1.414,1.414-3-3a1,1,0,0,1,0-1.414l3-3,1.414,1.414L39.414,43H45Z"></path></g></svg>