<svg xmlns="http://www.w3.org/2000/svg" viewBox="0 0 64 64" x="0px" y="0px"><g data-name="Folder"><path d="M22,46H8V56H22ZM10,48h2v2H10Zm10,6H10V52H20Zm0-4H14V48h6Z"></path><path d="M43.2,14.4a1.036,1.036,0,0,1,1.6,0L46,16V10H42v6Z"></path><path d="M13,10a1,1,0,0,0-1,1v7h7a1,1,0,0,1,.707.293L32.414,31H52V11a1,1,0,0,0-1-1H48v9a1,1,0,0,1-.684.949A1.019,1.019,0,0,1,47,20a1,1,0,0,1-.8-.4L44,16.667,41.8,19.6A1,1,0,0,1,40,19V10Zm17,4h8v2H30Zm-6,0h4v2H24Zm0,4H38v2H24ZM48,28H34V26H48Zm0-6v2H30V22Z"></path><path d="M5,4A1,1,0,0,0,4,5V18h6V11a3,3,0,0,1,3-3h9.586l-4-4Z"></path><path d="M60,18a1,1,0,0,0-1-1H54V31h6Z"></path><path d="M5,60H59a1,1,0,0,0,1-1V33H32a1,1,0,0,1-.707-.293L18.586,20H4V59A1,1,0,0,0,5,60ZM6,45a1,1,0,0,1,1-1H23a1,1,0,0,1,1,1V57a1,1,0,0,1-1,1H7a1,1,0,0,1-1-1Z"></path></g></svg>