<svg xmlns="http://www.w3.org/2000/svg" viewBox="0 0 64 64" x="0px" y="0px"><g data-name="Paper Work"><path d="M50,2H14A5.006,5.006,0,0,0,9,7V57a5.006,5.006,0,0,0,5,5H50a5.006,5.006,0,0,0,5-5V7A5.006,5.006,0,0,0,50,2ZM43,4h4v6.586L45.707,9.293a1,1,0,0,0-1.414,0L43,10.586ZM53,57a3,3,0,0,1-3,3H14a3,3,0,0,1-3-3V7a3,3,0,0,1,3-3H41v9a1,1,0,0,0,1.707.707L45,11.414l2.293,2.293A1,1,0,0,0,48,14a.987.987,0,0,0,.383-.076A1,1,0,0,0,49,13V4h1a3,3,0,0,1,3,3Z"></path><path d="M48,16H16a1,1,0,0,0-1,1V38a1,1,0,0,0,1,1H48a1,1,0,0,0,1-1V17A1,1,0,0,0,48,16Zm-1,7H41V18h6ZM25,25h6v5H25Zm-2,5H17V25h6Zm8-7H25V18h6Zm2-5h6v5H33ZM31,32v5H25V32Zm2,0h6v5H33Zm0-2V25h6v5Zm8-5h6v5H41ZM23,18v5H17V18ZM17,32h6v5H17Zm24,5V32h6v5Z"></path><rect x="16" y="10" width="2" height="2"></rect><rect x="20" y="10" width="2" height="2"></rect><rect x="24" y="10" width="8" height="2"></rect><path d="M32,42H16a1,1,0,0,0-1,1V55a1,1,0,0,0,1,1H32a1,1,0,0,0,1-1V43A1,1,0,0,0,32,42ZM31,54H17V44H31Z"></path><rect x="37" y="43" width="12" height="2"></rect><rect x="37" y="48" width="12" height="2"></rect><rect x="37" y="53" width="12" height="2"></rect></g></svg>