<svg xmlns="http://www.w3.org/2000/svg" viewBox="0 0 64 64" x="0px" y="0px"><g><path d="M16,44h2V42H16a4,4,0,0,1,0-8h2V32H16a6.009,6.009,0,0,0-6,6A6,6,0,0,0,16,44Z"></path><path d="M16,36a2.006,2.006,0,0,0-2,2,2.015,2.015,0,0,0,2,2H54.56a3.851,3.851,0,0,1,0-4Z"></path><path d="M29.57,43.8l1.11.2H60V42H20v2h2.03A19.133,19.133,0,0,1,29.57,43.8Z"></path><rect x="20" y="32" width="40" height="2"></rect><path d="M56.02,50a2.006,2.006,0,0,1-1.13,1.03L36.61,57.69a10.863,10.863,0,0,1-4.52.63L27.34,58a12.789,12.789,0,0,0-5.34.75L15.82,61H4V52.53l16.45-5.99a17.113,17.113,0,0,1,8.77-.77l11.01,1.94a2.017,2.017,0,0,1,1.62,2.32,1.975,1.975,0,0,1-.82,1.29,1.952,1.952,0,0,1-1.5.33L28.7,49.74l-.35,1.97,10.84,1.91a3.26,3.26,0,0,0,.7.07,3.939,3.939,0,0,0,2.28-.73,3.994,3.994,0,0,0,1.52-2.1l9.67-3.53a2.137,2.137,0,0,1,2.67,1A2.027,2.027,0,0,1,56.02,50Z"></path><path d="M46.66,17.2a5.306,5.306,0,0,0-3.71-2.94,4.751,4.751,0,0,0-2.87.41,7.235,7.235,0,0,1-2.008.6,11.912,11.912,0,0,0-.233-3.157,4.671,4.671,0,0,0,3.4-1.522,4.362,4.362,0,0,0,1.42-4.25,4.362,4.362,0,0,0-4.25,1.42,5.135,5.135,0,0,0-1.348,2.179A5.429,5.429,0,0,0,33.2,7.02L32.8,8.98c3.325.666,3.363,4.785,3.26,6.312a7.248,7.248,0,0,1-2.144-.622,4.751,4.751,0,0,0-2.87-.41c-3.26.57-5.29,4.57-4.52,8.92a9.367,9.367,0,0,0,2.81,5.34,5.346,5.346,0,0,0,4.49,1.5,4.447,4.447,0,0,0,1.07-.34,5.125,5.125,0,0,1,4.2,0,4.447,4.447,0,0,0,1.07.34,5.346,5.346,0,0,0,4.49-1.5,9.367,9.367,0,0,0,2.81-5.34A9.374,9.374,0,0,0,46.66,17.2Z"></path></g></svg>