<svg xmlns="http://www.w3.org/2000/svg" data-name="Credit Card-Payment Method-Mobile Payment-Payment-Smartphone" viewBox="0 0 64 64" x="0px" y="0px"><path d="M40,11H24a3.009,3.009,0,0,0-3,3V40a3.009,3.009,0,0,0,3,3H40a3.009,3.009,0,0,0,3-3V14A3.009,3.009,0,0,0,40,11Zm1,29a1,1,0,0,1-1,1H24a1,1,0,0,1-1-1V14a1,1,0,0,1,1-1H40a1,1,0,0,1,1,1Z"></path><path d="M33,36a3,3,0,0,0,6,0V33a3,3,0,0,0-6,0Zm2-3a1,1,0,0,1,2,0v3a1,1,0,0,1-2,0Z"></path><path d="M26,25h6a1,1,0,0,0,1-1V16a1,1,0,0,0-1-1H26a1,1,0,0,0-1,1v8A1,1,0,0,0,26,25Zm1-2V21h4v2Zm4-6v2H27V17Z"></path><rect x="25" y="37" width="2" height="2"></rect><rect x="25" y="33" width="2" height="2"></rect><rect x="25" y="29" width="2" height="2"></rect><rect x="35" y="15" width="2" height="2"></rect><rect x="35" y="19" width="2" height="2"></rect><rect x="35" y="23" width="2" height="2"></rect><rect x="29" y="29" width="2" height="10"></rect><path d="M54.62,29A3.985,3.985,0,0,0,52,22H50V9a7.008,7.008,0,0,0-7-7H21a7.008,7.008,0,0,0-7,7v5.56A3.906,3.906,0,0,0,12,14H9a1,1,0,0,0-1,1V46.59l-6.71,6.7,1.42,1.42,7-7A1.033,1.033,0,0,0,10,47V16h2a2.006,2.006,0,0,1,2,2v8a1,1,0,0,0,.14.51l1.01,1.68A13.013,13.013,0,0,1,17,34.88v1.45a9.92,9.92,0,0,1-1.43,5.15l1.72,1.04A12.047,12.047,0,0,0,19,36.33V34.88a14.993,14.993,0,0,0-2.14-7.72L16,25.72V9a5,5,0,0,1,5-5H43a5,5,0,0,1,5,5V22a3.985,3.985,0,0,0-2.62,7,3.951,3.951,0,0,0,0,6,3.951,3.951,0,0,0,0,6A3.985,3.985,0,0,0,48,48v1a5,5,0,0,1-5,5H21a5,5,0,0,1-5-5V44H14v5a7.008,7.008,0,0,0,7,7H33.59l-5.3,5.29,1.42,1.42L36.41,56H43a7.008,7.008,0,0,0,7-7V48h2a3.985,3.985,0,0,0,2.62-7,3.951,3.951,0,0,0,0-6,3.951,3.951,0,0,0,0-6ZM52,46H48a2,2,0,0,1,0-4h4a2,2,0,0,1,0,4Zm0-6H48a2,2,0,0,1,0-4h4a2,2,0,0,1,0,4Zm0-6H48a2,2,0,0,1,0-4h4a2,2,0,0,1,0,4Zm0-6H48a2,2,0,0,1,0-4h4a2,2,0,0,1,0,4Z"></path><rect x="25" y="6" width="2" height="2"></rect><rect x="29" y="6" width="6" height="2"></rect><path d="M30,46a3,3,0,0,0,0,6h4a3,3,0,0,0,0-6Zm5,3a1,1,0,0,1-1,1H30a1,1,0,0,1,0-2h4A1,1,0,0,1,35,49Z"></path></svg>