<svg xmlns="http://www.w3.org/2000/svg" viewBox="0 0 64 64" x="0px" y="0px"><g><circle cx="46" cy="47" r="5"></circle><path d="M44,12H43v7a1.008,1.008,0,0,1-.71.96A.967.967,0,0,1,42,20a.984.984,0,0,1-.83-.45L40,17.8l-1.17,1.75a.992.992,0,0,1-1.12.41A1.008,1.008,0,0,1,37,19V12H14a1,1,0,0,0-1,1V57a1,1,0,0,0,1,1H35.79l-1.81-1.81a1,1,0,0,1-.13-1.26l1.55-2.32a12.154,12.154,0,0,1-.86-2.08l-2.74-.55A1,1,0,0,1,31,49V45a1,1,0,0,1,.8-.98l2.74-.55a12.154,12.154,0,0,1,.86-2.08l-1.55-2.32a1,1,0,0,1,.13-1.26l2.83-2.83a1,1,0,0,1,1.26-.13l2.32,1.55a12.154,12.154,0,0,1,2.08-.86l.55-2.74A1,1,0,0,1,44,32h1V13A1,1,0,0,0,44,12ZM18,16h6v2H18Zm0,4h6v2H18ZM29,50H18V48H29Zm0-4H18V44H29Zm0-4H18V40H29Zm5-10H32V30h2Zm6,1H38V28H20v6H34v2H19a1,1,0,0,1-1-1V27a1,1,0,0,1,1-1H39a1,1,0,0,1,1,1ZM30,30v2H28V30Zm-4,0v2H24V30Z"></path><path d="M41,9v1H14a3.009,3.009,0,0,0-3,3V54H10a1,1,0,0,1-1-1V9a1,1,0,0,1,1-1H40A1,1,0,0,1,41,9Z"></path><path d="M40.832,15.445,41,15.7V12H39v3.7l.168-.252A1.039,1.039,0,0,1,40.832,15.445Z"></path><path d="M41.23,58H39.79l.6-.4C40.67,57.74,40.95,57.88,41.23,58Z"></path><path d="M37,5V6H10A3.009,3.009,0,0,0,7,9V50H6a1,1,0,0,1-1-1V5A1,1,0,0,1,6,4H36A1,1,0,0,1,37,5Z"></path><path d="M56.46,45.31a.975.975,0,0,1-.77-.74,10.344,10.344,0,0,0-1.12-2.71,1.008,1.008,0,0,1,.02-1.07l1.44-2.15-1.67-1.67-2.15,1.44a1.008,1.008,0,0,1-1.07.02,10.344,10.344,0,0,0-2.71-1.12.975.975,0,0,1-.74-.77L47.18,34H44.82l-.51,2.54a.975.975,0,0,1-.74.77,10.344,10.344,0,0,0-2.71,1.12,1.008,1.008,0,0,1-1.07-.02l-2.15-1.44-1.67,1.67,1.44,2.15a1.008,1.008,0,0,1,.02,1.07,10.344,10.344,0,0,0-1.12,2.71.975.975,0,0,1-.77.74L33,45.82v2.36l2.54.51a.975.975,0,0,1,.77.74,10.344,10.344,0,0,0,1.12,2.71,1.008,1.008,0,0,1-.02,1.07l-1.44,2.15,1.67,1.67,2.15-1.44a1.008,1.008,0,0,1,1.07-.02,10.344,10.344,0,0,0,2.71,1.12.975.975,0,0,1,.74.77L44.82,60h2.36l.51-2.54a.975.975,0,0,1,.74-.77,10.344,10.344,0,0,0,2.71-1.12,1.008,1.008,0,0,1,1.07.02l2.15,1.44,1.67-1.67-1.44-2.15a1.008,1.008,0,0,1-.02-1.07,10.344,10.344,0,0,0,1.12-2.71.975.975,0,0,1,.77-.74L59,48.18V45.82ZM46,54a7,7,0,1,1,7-7A7.008,7.008,0,0,1,46,54Z"></path></g></svg>