<svg xmlns="http://www.w3.org/2000/svg" viewBox="0 0 64 64" x="0px" y="0px"><g data-name="Lamp"><rect x="46.218" y="23.696" width="2" height="5.042" transform="translate(-4.71 41.063) rotate(-44.996)"></rect><rect x="50.653" y="18.7" width="2" height="4.106" transform="translate(17.588 64.779) rotate(-74.158)"></rect><rect x="40.753" y="28.6" width="2" height="4.105" transform="translate(-6.784 12.567) rotate(-15.848)"></rect><path d="M36.07,6.07a9.008,9.008,0,0,0-4.6,1.259,9.2,9.2,0,0,0-1.764,1.378,8.989,8.989,0,0,0,0,12.725l3.534,3.534L37.6,20.6l4-4,4.361-4.361L42.433,8.707A8.91,8.91,0,0,0,36.07,6.07Z"></path><path d="M39.6,21.43A1.971,1.971,0,0,0,41,22a2,2,0,0,0,2-2,1.971,1.971,0,0,0-.57-1.4Z"></path><path d="M9,54h2V20A13.015,13.015,0,0,1,24,7h.127c-.015-.058-.022-.119-.034-.178s-.024-.114-.033-.171A3.921,3.921,0,0,1,24,6a4.033,4.033,0,0,1,.06-.652c.009-.056.021-.112.032-.167s.02-.122.035-.181H24A15.017,15.017,0,0,0,9,20Z"></path><rect x="4" y="56" width="25" height="4"></rect><path d="M27.667,7.973q.294-.348.625-.68a11.275,11.275,0,0,1,.943-.833c.1-.08.205-.152.308-.228.152-.113.3-.232.455-.336A2,2,0,0,0,28,4a1.949,1.949,0,0,0-1.476.657,1.983,1.983,0,0,0-.013,2.672A1.952,1.952,0,0,0,27.667,7.973Z"></path><rect x="22" y="53" width="2" height="1"></rect></g></svg>