<svg xmlns="http://www.w3.org/2000/svg" viewBox="0 0 64 64" x="0px" y="0px"><g data-name="Planet Earth"><path d="M33,3A29,29,0,1,0,62,32,29.032,29.032,0,0,0,33,3ZM17.377,10h3.209L23,12.414v3.172l-3.707,3.707A1,1,0,0,0,19,20v3.586L15.586,27H13a1,1,0,0,0-1,1v3a1,1,0,0,0,.293.707L17,36.414v2.172l-2.707,2.707A1,1,0,0,0,14,42v2.586L10.985,47.6A26.939,26.939,0,0,1,17.377,10ZM12.209,49.205l3.5-3.5A1,1,0,0,0,16,45V42.414l2.707-2.707A1,1,0,0,0,19,39V36a1,1,0,0,0-.293-.707L14,30.586V29h2a1,1,0,0,0,.707-.293l4-4A1,1,0,0,0,21,24V20.414l3.707-3.707A1,1,0,0,0,25,16V12a1,1,0,0,0-.293-.707l-3-3A1,1,0,0,0,21,8h-.345A26.784,26.784,0,0,1,29,5.3V12a1,1,0,0,0,.293.707l4,4A1,1,0,0,0,34,17h4.586L43,21.414v5.172l-1.707,1.707A1,1,0,0,0,41,29v4a1,1,0,0,0,.293.707L45,37.414V42a1,1,0,0,0,.293.707L50,47.414v5.542a26.863,26.863,0,0,1-15,5.962v-3.5l2.707-2.707A1,1,0,0,0,38,52V48.414l1.707-1.707A1,1,0,0,0,40,46V42a1,1,0,0,0-.293-.707l-5-5A1,1,0,0,0,34,36H26a1,1,0,0,0-.707.293l-4,4A1,1,0,0,0,21,41v3a1,1,0,0,0,.293.707l2,2A1,1,0,0,0,24,47h3v3a1,1,0,0,0,.293.707L29,52.414V58.7A27,27,0,0,1,12.209,49.205ZM31,58.918V52a1,1,0,0,0-.293-.707L29,49.586V46a1,1,0,0,0-1-1H24.414L23,43.586V41.414L26.414,38h7.172L38,42.414v3.172l-1.707,1.707A1,1,0,0,0,36,48v3.586l-2.707,2.707A1,1,0,0,0,33,55v4C32.327,59,31.661,58.967,31,58.918Zm21-7.756V47a1,1,0,0,0-.293-.707L47,41.586V37a1,1,0,0,0-.293-.707L43,32.586V29.414l1.707-1.707A1,1,0,0,0,45,27V21a1,1,0,0,0-.293-.707l-5-5A1,1,0,0,0,39,15H34.414L31,11.586v-6.5C31.661,5.033,32.327,5,33,5A26.985,26.985,0,0,1,52,51.162Z"></path><path d="M34,26.414V30a1,1,0,0,0,1,1h2a1,1,0,0,0,.707-.293l2-2A1,1,0,0,0,40,28V22a1,1,0,0,0-1-1H33a1,1,0,0,0-1,1v2a1,1,0,0,0,.293.707ZM34,23h4v4.586L36.586,29H36V26a1,1,0,0,0-.293-.707L34,23.586Z"></path><rect x="16" y="3.287" width="2" height="2" transform="translate(0.134 9.075) rotate(-30.002)"></rect><rect x="9.373" y="8.373" width="2" height="2" transform="translate(-3.589 10.08) rotate(-45)"></rect><rect x="4.287" y="15" width="2" height="2" transform="translate(-11.213 12.578) rotate(-59.998)"></rect><rect x="4.287" y="47" width="2" height="2" transform="translate(-23.288 9.072) rotate(-29.995)"></rect><rect x="9.373" y="53.628" width="2" height="2" transform="translate(-35.589 23.335) rotate(-45)"></rect><rect x="16" y="58.712" width="2" height="2" transform="translate(-43.214 44.584) rotate(-60.005)"></rect><rect x="48" y="58.713" width="2" height="2" transform="translate(-23.292 32.502) rotate(-30.002)"></rect><rect x="54.628" y="53.628" width="2" height="2" transform="translate(-22.335 55.335) rotate(-45)"></rect><rect x="59.712" y="47" width="2" height="2" transform="translate(-11.214 76.577) rotate(-59.998)"></rect><rect x="59.713" y="15" width="2" height="2" transform="translate(0.132 32.494) rotate(-29.995)"></rect><rect x="54.628" y="8.373" width="2" height="2" transform="translate(9.666 42.08) rotate(-45)"></rect><rect x="48" y="3.287" width="2" height="2" transform="translate(20.791 44.582) rotate(-60.005)"></rect></g></svg>