<svg xmlns="http://www.w3.org/2000/svg" viewBox="0 0 64 64" x="0px" y="0px"><g data-name="Gps"><path d="M46,2H18a5.006,5.006,0,0,0-5,5V57a5.006,5.006,0,0,0,5,5H46a5.006,5.006,0,0,0,5-5V7A5.006,5.006,0,0,0,46,2ZM25,4H39V6a1,1,0,0,1-1,1H26a1,1,0,0,1-1-1ZM49,57a3,3,0,0,1-3,3H18a3,3,0,0,1-3-3V7a3,3,0,0,1,3-3h5V6a3,3,0,0,0,3,3H38a3,3,0,0,0,3-3V4h5a3,3,0,0,1,3,3Z"></path><path d="M32,17A13.015,13.015,0,0,0,19,30c0,9.392,11.894,18.42,12.4,18.8a1,1,0,0,0,1.2,0C33.106,48.42,45,39.392,45,30A13.015,13.015,0,0,0,32,17Zm0,29.725C29.622,44.792,21,37.281,21,30a11,11,0,0,1,22,0C43,37.271,34.377,44.791,32,46.725Z"></path><path d="M32,24a6,6,0,1,0,6,6A6.006,6.006,0,0,0,32,24Zm0,10a4,4,0,1,1,4-4A4,4,0,0,1,32,34Z"></path></g></svg>