<svg xmlns="http://www.w3.org/2000/svg" viewBox="0 0 64 64" x="0px" y="0px"><g data-name="Online Support-Merchant-Seller-Operator-Ecommerce"><path d="M34,52H30a3,3,0,0,0,0,6h4a3,3,0,0,0,0-6Zm0,4H30a1,1,0,0,1,0-2h4a1,1,0,0,1,0,2Z"></path><rect x="25" y="6" width="2" height="2"></rect><rect x="29" y="6" width="6" height="2"></rect><path d="M58,14H52V8a6,6,0,0,0-6-6H18a6,6,0,0,0-6,6V22h-.18A3,3,0,0,0,6,23v1.12A7,7,0,0,0,4,29v2.71a5.971,5.971,0,0,0,4,9.2v4.55L4.23,47.98A4.974,4.974,0,0,0,2,52.14V61a1,1,0,0,0,1,1H46a6,6,0,0,0,6-6V42h6a3.009,3.009,0,0,0,3-3V17A3.009,3.009,0,0,0,58,14ZM14,8a4,4,0,0,1,4-4H46a4,4,0,0,1,4,4v2H14ZM12,24h9v1a3.009,3.009,0,0,1-3,3H12Zm-.85,16.6a6.086,6.086,0,0,0,2.21-1.49l1.09.72A.967.967,0,0,0,15,40h3V38H15.3l-.83-.55A5.922,5.922,0,0,0,15,35a6,6,0,0,0-2.7-5H19a2.006,2.006,0,0,1,2,2v4a6,6,0,0,1-9.85,4.6ZM14,43.93v1.89l-4-.67V42.24A7.9,7.9,0,0,0,14,43.93ZM8,23a1,1,0,0,1,2,0v6.09a6.1,6.1,0,0,0-2,0ZM5,35a3.959,3.959,0,0,1,.8-2.4,4.032,4.032,0,0,1,4.79-1.28A4.024,4.024,0,0,1,13,35a3.849,3.849,0,0,1-.24,1.31L9.55,34.17l-1.1,1.66,3.2,2.14A3.979,3.979,0,0,1,5,35ZM8,60H4V58H8Zm0-4H4V52.14a3.008,3.008,0,0,1,1.33-2.5L6,49.2V51a2.006,2.006,0,0,1,2,2Zm13,4H10V53a3.985,3.985,0,0,0-3.74-3.97l2.97-1.98,5.43.91,2.81,1.61A7,7,0,0,1,21,55.64Zm29-4a4,4,0,0,1-4,4H23V55.64A9.015,9.015,0,0,0,20.99,50H50Zm0-8H18.72c-.09-.05-.16-.12-.25-.17L16,46.42V43.93A8,8,0,0,0,23,36V32a4.007,4.007,0,0,0-1.71-3.27A4.949,4.949,0,0,0,23,25V23a1,1,0,0,0-1-1H14V12H50v2H34a3.009,3.009,0,0,0-3,3v7.38l-5.45,2.73a1,1,0,0,0,0,1.78L31,31.62V39a3.009,3.009,0,0,0,3,3H50Zm9-9a1,1,0,0,1-1,1H34a1,1,0,0,1-1-1V31a.977.977,0,0,0-.55-.89L28.24,28l4.21-2.11A.977.977,0,0,0,33,25V17a1,1,0,0,1,1-1H58a1,1,0,0,1,1,1Z"></path><path d="M53,24.92A1.01,1.01,0,0,0,52,24H50V22a4,4,0,0,0-8,0v2H40a1.01,1.01,0,0,0-1,.92l-.82,9.83A3.014,3.014,0,0,0,41.17,38h9.66a3.014,3.014,0,0,0,2.99-3.25ZM44,22a2,2,0,0,1,4,0v2H44Zm7.56,13.68a.97.97,0,0,1-.73.32H41.17a.994.994,0,0,1-.99-1.08L40.92,26H42v2h2V26h4v2h2V26h1.08l.74,8.92A.975.975,0,0,1,51.56,35.68Z"></path></g></svg>