<svg xmlns="http://www.w3.org/2000/svg" viewBox="0 0 64 64" x="0px" y="0px"><g><rect x="57" y="48" width="3" height="6"></rect><path d="M61,24V46H49a1,1,0,0,1-1-1V25a1,1,0,0,1,1-1Z"></path><rect x="57" y="16" width="3" height="6"></rect><path d="M49,22h6V16H7a3.009,3.009,0,0,0-3,3V51a3.009,3.009,0,0,0,3,3H55V48H49a3.009,3.009,0,0,1-3-3V25A3.009,3.009,0,0,1,49,22ZM38,18h2v2H38ZM18,20h2v2H18Zm-7,2a3,3,0,1,1-3,3A3.009,3.009,0,0,1,11,22ZM9,35H7V33H9Zm5,15H10V48h4Zm15-4v2a.99.99,0,0,1-1,1,.986.986,0,0,1-.24-.03A6.683,6.683,0,0,1,23.79,46H18.28a5,5,0,0,1-4.9-4.03l-.88-4.39A3,3,0,0,1,15.44,34H26.79a4.959,4.959,0,0,1,2.77.84l1.49.99a1.023,1.023,0,0,0,.56.17H33a1,1,0,0,0,1-1V31a1,1,0,0,0-1-1H31.83A3.014,3.014,0,0,1,29,32H27a1,1,0,0,1-1-1V21a1,1,0,0,1,1-1h2a3.009,3.009,0,0,1,3,3v1h1a7.008,7.008,0,0,1,7,7v6a9.014,9.014,0,0,1-9,9Zm9,5H34V49h4Zm4,0H40V49h2Z"></path><circle cx="42" cy="9" r="1"></circle><path d="M57.85,4.9a7.08,7.08,0,0,0-3.3-.9,4.4,4.4,0,0,0-2.7.85A6.272,6.272,0,0,1,48.1,6a6.272,6.272,0,0,1-3.75-1.15,4.7,4.7,0,0,0-5.39,0A6.272,6.272,0,0,1,35.21,6a6.3,6.3,0,0,1-3.75-1.15,4.7,4.7,0,0,0-5.39,0A6.247,6.247,0,0,1,22.32,6a6.237,6.237,0,0,1-3.74-1.15A4.4,4.4,0,0,0,15.88,4a4.372,4.372,0,0,0-2.69.85A6.272,6.272,0,0,1,9.44,6,8.882,8.882,0,0,1,5.29,4.9,8.792,8.792,0,0,0,3,4.08V16a5.01,5.01,0,0,1,4-2H61V5.93A9.328,9.328,0,0,1,57.85,4.9ZM16,10H8V8h8Zm5,0H19V8h2Zm21,2a3,3,0,1,1,3-3A3.009,3.009,0,0,1,42,12Z"></path><path d="M33,26H31a1,1,0,0,1-1-1V23a1,1,0,0,0-1-1H28v8h1a1,1,0,0,0,1-1,1,1,0,0,1,1-1h2a3.009,3.009,0,0,1,3,3v4a3.009,3.009,0,0,1-3,3H31.61a2.952,2.952,0,0,1-1.68-.52l-1.47-.98a3,3,0,0,0-1.67-.5H15.44a.971.971,0,0,0-.77.37.936.936,0,0,0-.21.82l.16.81H20v2H15.02l.32,1.58A3.007,3.007,0,0,0,18.28,44h4.81A5.391,5.391,0,0,1,23,43h2a3.949,3.949,0,0,0,2,3.48V43h2v1h2a7.008,7.008,0,0,0,7-7V31A5,5,0,0,0,33,26ZM24,40H22V38h2Z"></path><circle cx="11" cy="25" r="1"></circle><path d="M7,56a5.01,5.01,0,0,1-4-2v7H20V60h6v1h2V60h2v1H61V56Zm2,4H7V58H9Zm40,0H45V58h4Z"></path></g></svg>