<svg xmlns="http://www.w3.org/2000/svg" viewBox="0 0 64 64" x="0px" y="0px"><g><path d="M61.813,50.419l-10-14A1,1,0,0,0,51,36H50V34h7a1,1,0,0,0,1-1V29a1,1,0,0,0-1-1H46.816A2.966,2.966,0,0,0,47,27V24a2,2,0,0,0,2-2V20a2,2,0,0,0-2-2H42.4a4,4,0,0,0,.495-7.828L35.172,8.1a4,4,0,0,0-4.893,2.811A7,7,0,0,0,17,14a6.92,6.92,0,0,0,1.264,4H17a2,2,0,0,0-2,2v2a2,2,0,0,0,2,2v3a2.966,2.966,0,0,0,.184,1H7a1,1,0,0,0-1,1v4a1,1,0,0,0,1,1h7v2H13a1,1,0,0,0-.813.419l-10,14A.994.994,0,0,0,2,51v6a1,1,0,0,0,1,1H61a1,1,0,0,0,1-1V51A.994.994,0,0,0,61.813,50.419ZM43.8,14.553a2,2,0,0,1-2.45,1.414l-2.9-.777,1.035-3.863,2.9.777A2,2,0,0,1,43.8,14.553ZM32.2,11.447a2,2,0,0,1,1.928-1.483,2.023,2.023,0,0,1,.522.069l2.9.777-1.035,3.863-2.9-.777A2,2,0,0,1,32.2,11.447Zm.9,4.381,7.727,2.07a3.924,3.924,0,0,0,.507.1h-11.6a6.911,6.911,0,0,0,1.244-3.6A3.959,3.959,0,0,0,33.1,15.828ZM29,14a4.951,4.951,0,0,1-1.469,3.533,4.892,4.892,0,0,1-.546.467H21.414l6.756-6.756A4.94,4.94,0,0,1,29,14Zm-8.533-3.534a4.977,4.977,0,0,1,6.287-.636L19.83,16.756a4.981,4.981,0,0,1,.639-6.29ZM17,20H47v2H17Zm2,7V24H45v3a1,1,0,0,1-1,1H20A1,1,0,0,1,19,27ZM8,30H56v2H8Zm8,4H48v2H16Zm-2.485,4h36.97l8.572,12H4.943ZM4,56V52H60v4Z"></path><path d="M18,48H46a1,1,0,0,0,1-1V41a1,1,0,0,0-1-1H18a1,1,0,0,0-1,1v6A1,1,0,0,0,18,48Zm1-6H45v4H19Z"></path><rect x="31" y="43" width="2" height="2"></rect><rect x="35" y="43" width="2" height="2"></rect><rect x="27" y="43" width="2" height="2"></rect></g></svg>