<svg xmlns="http://www.w3.org/2000/svg" viewBox="0 0 64 64" x="0px" y="0px"><g><path d="M51,2H13a3,3,0,0,0-3,3V59a3,3,0,0,0,3,3H51a3,3,0,0,0,3-3V5A3,3,0,0,0,51,2ZM42,4h4v6L44.8,8.4a1.036,1.036,0,0,0-1.6,0L42,10ZM52,59a1,1,0,0,1-1,1H13a1,1,0,0,1-1-1V5a1,1,0,0,1,1-1H40v9a1,1,0,0,0,1.8.6L44,10.667,46.2,13.6a1,1,0,0,0,.8.4,1.019,1.019,0,0,0,.316-.051A1,1,0,0,0,48,13V4h3a1,1,0,0,1,1,1Z"></path><rect x="16" y="12" width="16" height="2"></rect><rect x="16" y="8" width="4" height="2"></rect><rect x="22" y="8" width="10" height="2"></rect><path d="M47,20H17a1,1,0,0,0-1,1V43a1,1,0,0,0,1,1H47a1,1,0,0,0,1-1V21A1,1,0,0,0,47,20Zm-1,2V36.586l-7.293-7.293a1,1,0,0,0-1.414,0L29.5,37.086l-4.793-4.793a1,1,0,0,0-1.414,0L18,37.586V22ZM41.086,34.5,40,35.586l-1.293-1.293a1,1,0,0,0-1.414,0L36,35.586,34.914,34.5,38,31.414Zm-14.32,2.68-.671.5-1.388-1.388a1,1,0,0,0-1.414,0l-1.388,1.388-.671-.5L24,34.414ZM18,40.414l1.8-1.8L21.4,39.8a1,1,0,0,0,1.3-.094L24,38.414l1.293,1.293a1,1,0,0,0,1.3.094l1.6-1.192L31.586,42H18ZM34.414,42l-3.5-3.5L33.5,35.914l1.793,1.793a1,1,0,0,0,1.414,0L38,36.414l1.293,1.293a1,1,0,0,0,1.414,0L42.5,35.914l3.5,3.5V42Z"></path><path d="M30,30a3,3,0,1,0-3-3A3,3,0,0,0,30,30Zm0-4a1,1,0,1,1-1,1A1,1,0,0,1,30,26Z"></path><rect x="20" y="28" width="6" height="2"></rect><rect x="34" y="28" width="2" height="2"></rect></g></svg>