<svg xmlns="http://www.w3.org/2000/svg" viewBox="0 0 64 64" x="0px" y="0px"><g data-name="Payment-Online Payment-Smartphone-Money-Currency"><rect x="16" y="48" width="6" height="2"></rect><path d="M55,8H35.92A7,7,0,0,0,29,2H9A7.008,7.008,0,0,0,2,9V47a7.008,7.008,0,0,0,7,7H28.08A7,7,0,0,0,35,60H55a7.008,7.008,0,0,0,7-7V15A7.008,7.008,0,0,0,55,8ZM36,10H55a5.017,5.017,0,0,1,4.9,4H36Zm2,11V39H26V21ZM9,4H29a5.017,5.017,0,0,1,4.9,4H4.1A5.017,5.017,0,0,1,9,4ZM4,10H34v9H16a2.006,2.006,0,0,0-2,2V39a2.006,2.006,0,0,0,2,2H34v3H4ZM16,35V33h8v2Zm8,2v2H16V37Zm-8-6V29h8v2Zm0-4V25h8v2Zm0-4V21h8v2ZM29,52H9a5,5,0,0,1-5-5V46H34v1A5,5,0,0,1,29,52Zm31,1a5,5,0,0,1-5,5H35a5,5,0,0,1-4.91-4.09A7.075,7.075,0,0,0,33.89,52H60Zm0-3H35.32A7.02,7.02,0,0,0,36,47V41H48a2.006,2.006,0,0,0,2-2V21a2.006,2.006,0,0,0-2-2H36V16H60ZM48,25v2H40V25Zm-8-2V21h8v2Zm8,6v2H40V29Zm0,4v2H40V33Zm0,4v2H40V37Z"></path><rect x="42" y="54" width="6" height="2"></rect><path d="M33,33H31a1,1,0,0,1-1-1H28a3,3,0,0,0,3,3v1h2V35a3,3,0,0,0,0-6H31a1,1,0,0,1,0-2h2a1,1,0,0,1,1,1h2a3,3,0,0,0-3-3V24H31v1a3,3,0,0,0,0,6h2a1,1,0,0,1,0,2Z"></path></g></svg>