<svg xmlns="http://www.w3.org/2000/svg" viewBox="0 0 64 64" x="0px" y="0px"><g><path d="M56,35.028V3a1,1,0,0,0-1-1H3A1,1,0,0,0,2,3V51a1,1,0,0,0,1,1H32.875A14.988,14.988,0,1,0,56,35.028ZM54,12H38V4H54ZM36,13v5H22V4H36ZM4,4H20v8H4ZM4,50V14H20v5a1,1,0,0,0,1,1H37a1,1,0,0,0,1-1V14H54V33.744A14.984,14.984,0,0,0,32,47a15.059,15.059,0,0,0,.3,3ZM47,60A13,13,0,1,1,60,47,13.015,13.015,0,0,1,47,60Z"></path><path d="M47,35A12,12,0,1,0,59,47,12.013,12.013,0,0,0,47,35Zm0,22A10,10,0,1,1,57,47,10.011,10.011,0,0,1,47,57Z"></path><path d="M46,44h2a1,1,0,0,1,1,1h2a3,3,0,0,0-3-3V41H46v1a3,3,0,0,0,0,6h2a1,1,0,0,1,0,2H46a1,1,0,0,1-1-1H43a3,3,0,0,0,3,3v1h2V52a3,3,0,0,0,0-6H46a1,1,0,0,1,0-2Z"></path><rect x="8" y="35" width="2" height="6"></rect><rect x="8" y="43" width="2" height="2"></rect><rect x="12" y="35" width="2" height="8"></rect><rect x="16" y="35" width="2" height="4"></rect><rect x="16" y="41" width="2" height="4"></rect><rect x="20" y="35" width="2" height="8"></rect><rect x="24" y="35" width="2" height="10"></rect></g></svg>