<svg xmlns="http://www.w3.org/2000/svg" viewBox="0 0 64 64" x="0px" y="0px"><g><rect x="7" y="48" width="2" height="2"></rect><rect x="11" y="49" width="2" height="2"></rect><rect x="7" y="55" width="2" height="2"></rect><rect x="11" y="56" width="2" height="2"></rect><rect x="10" y="41" width="12" height="2"></rect><rect x="39" y="48" width="2" height="2"></rect><rect x="43" y="49" width="2" height="2"></rect><rect x="39" y="55" width="2" height="2"></rect><rect x="43" y="56" width="2" height="2"></rect><rect x="42" y="41" width="12" height="2"></rect><path d="M49,36.02V31a1,1,0,0,0-1-1H34.82A3.035,3.035,0,0,0,33,28.18V25H43a7,7,0,0,0,0-14A9,9,0,0,0,26.41,6.17a6,6,0,0,0-7.37,5.11A7,7,0,0,0,21,25H31v3.18A3.035,3.035,0,0,0,29.18,30H16a1,1,0,0,0-1,1v5.02C8.66,36.26,4,38.75,4,42V56c0,3.42,5.16,6,12,6s12-2.58,12-6V42c0-3.25-4.66-5.74-11-5.98V32H29.18a2.988,2.988,0,0,0,5.64,0H47v4.02c-6.34.24-11,2.73-11,5.98V56c0,3.42,5.16,6,12,6s12-2.58,12-6V42C60,38.75,55.34,36.26,49,36.02ZM26,56c0,1.89-4.28,4-10,4S6,57.89,6,56V52.41C8.11,53.99,11.73,55,16,55s7.89-1.01,10-2.59Zm0-7c0,1.89-4.28,4-10,4S6,50.89,6,49V45.41C8.11,46.99,11.73,48,16,48s7.89-1.01,10-2.59Zm0-7c0,1.89-4.28,4-10,4S6,43.89,6,42s4.28-4,10-4S26,40.11,26,42ZM21,23a4.994,4.994,0,0,1-.83-9.92,1.011,1.011,0,0,0,.84-1.01c0-.02-.01-.07-.01-.11A4,4,0,0,1,25,8a3.936,3.936,0,0,1,1.5.3,1.012,1.012,0,0,0,1.27-.47A6.993,6.993,0,0,1,41,11a8.477,8.477,0,0,1-.06.88.968.968,0,0,0,.24.78.981.981,0,0,0,.75.34H43a5,5,0,0,1,0,10Zm11,9a1,1,0,1,1,1-1A1,1,0,0,1,32,32ZM58,56c0,1.89-4.28,4-10,4s-10-2.11-10-4V52.41C40.11,53.99,43.73,55,48,55s7.89-1.01,10-2.59Zm0-7c0,1.89-4.28,4-10,4s-10-2.11-10-4V45.41C40.11,46.99,43.73,48,48,48s7.89-1.01,10-2.59ZM48,46c-5.72,0-10-2.11-10-4s4.28-4,10-4,10,2.11,10,4S53.72,46,48,46Z"></path><rect x="37" y="11" width="2" height="2"></rect><rect x="33" y="11" width="2" height="2"></rect><path d="M55,24.816V27h2V24.816a3,3,0,1,0-2,0ZM56,21a1,1,0,1,1-1,1A1,1,0,0,1,56,21Z"></path><rect x="55" y="29" width="2" height="2"></rect><rect x="55" y="33" width="2" height="2"></rect><path d="M7,24.816V27H9V24.816a3,3,0,1,0-2,0ZM8,21a1,1,0,1,1-1,1A1,1,0,0,1,8,21Z"></path><rect x="7" y="29" width="2" height="2"></rect><rect x="7" y="33" width="2" height="2"></rect></g></svg>