<svg xmlns="http://www.w3.org/2000/svg" viewBox="0 0 64 64" x="0px" y="0px"><g data-name="Web Server-Data-Data Center-Browser-Report"><path d="M57,2H7A5,5,0,0,0,2,7V57a5,5,0,0,0,5,5H57a5,5,0,0,0,5-5V7A5,5,0,0,0,57,2Zm3,55a3.009,3.009,0,0,1-3,3H7a3.009,3.009,0,0,1-3-3V11.96H60ZM60,9.96H4V7A3.009,3.009,0,0,1,7,4H57a3.009,3.009,0,0,1,3,3Z"></path><rect x="8" y="6" width="2" height="2"></rect><rect x="12" y="6" width="2" height="2"></rect><rect x="16" y="6" width="2" height="2"></rect><rect x="9" y="28" width="2" height="2"></rect><rect x="13" y="29" width="2" height="2"></rect><rect x="9" y="35" width="2" height="2"></rect><rect x="13" y="36" width="2" height="2"></rect><rect x="12" y="21" width="12" height="2"></rect><path d="M18,16c-6.84,0-12,2.58-12,6V43c0,3.42,5.16,6,12,6s12-2.58,12-6V22C30,18.58,24.84,16,18,16ZM28,43c0,1.89-4.28,4-10,4S8,44.89,8,43V39.41C10.11,40.99,13.73,42,18,42s7.89-1.01,10-2.59Zm0-7c0,1.89-4.28,4-10,4S8,37.89,8,36V32.41C10.11,33.99,13.73,35,18,35s7.89-1.01,10-2.59Zm0-7c0,1.89-4.28,4-10,4S8,30.89,8,29V25.41C10.11,26.99,13.73,28,18,28s7.89-1.01,10-2.59ZM18,26c-5.72,0-10-2.11-10-4s4.28-4,10-4,10,2.11,10,4S23.72,26,18,26Z"></path><rect x="9" y="42" width="2" height="2"></rect><rect x="13" y="43" width="2" height="2"></rect><path d="M33,31A10,10,0,1,0,43,21,10.011,10.011,0,0,0,33,31Zm10,8a7.953,7.953,0,0,1-4.9-1.688l1.427-1.427A5.984,5.984,0,0,0,48.91,32h2.021A8.008,8.008,0,0,1,43,39Zm0-12a4,4,0,1,1-4,4A4,4,0,0,1,43,27Zm7.931,3H48.91A6.008,6.008,0,0,0,44,25.09V23.069A8.008,8.008,0,0,1,50.931,30ZM42,23.069V25.09a5.984,5.984,0,0,0-3.885,9.381L36.688,35.9A7.981,7.981,0,0,1,42,23.069Z"></path><rect x="54" y="21" width="4" height="2"></rect><rect x="54" y="25" width="4" height="2"></rect><rect x="53" y="41" width="4" height="2"></rect><rect x="53" y="37" width="4" height="2"></rect><rect x="32" y="19" width="4" height="2"></rect><rect x="32" y="46" width="4" height="2"></rect><rect x="38" y="46" width="14" height="2"></rect><rect x="32" y="50" width="20" height="2"></rect><rect x="32" y="54" width="20" height="2"></rect></g></svg>