<svg xmlns="http://www.w3.org/2000/svg" viewBox="0 0 64 64" x="0px" y="0px"><g data-name="Scale"><path d="M14,5a9.01,9.01,0,0,0-9,9H7a7,7,0,0,1,14,0h2A9.01,9.01,0,0,0,14,5Z"></path><path d="M15,14.278V10H13v4.278a2,2,0,1,0,2,0Z"></path><rect x="49" y="44" width="4" height="2"></rect><rect x="45" y="44" width="2" height="2"></rect><path d="M61,54a1,1,0,0,0,1-1V49a1,1,0,0,0-1-1H57V25a2,2,0,0,0-2-2H29a2,2,0,0,0-2,2V48H23a1,1,0,0,0-1,1v4a1,1,0,0,0,1,1h5v2H17V24h6a3,3,0,0,0,3-3V5a3,3,0,0,0-3-3H5A3,3,0,0,0,2,5V21a3,3,0,0,0,3,3h6V56H3a1,1,0,0,0-1,1v4a1,1,0,0,0,1,1H61a1,1,0,0,0,1-1V57a1,1,0,0,0-1-1H56V54ZM47,29h8v2H47Zm8-2H47V25h8ZM45,25V35H39V25Zm-8,6H29V29h8Zm0-6v2H29V25Zm-8,8h8v2a2,2,0,0,0,2,2h6a2,2,0,0,0,2-2V33h8V48H29ZM24,50H60v2H24ZM4,21V5A1,1,0,0,1,5,4H23a1,1,0,0,1,1,1V21a1,1,0,0,1-1,1H5A1,1,0,0,1,4,21Zm9,3h2V56H13ZM60,60H4V58H60Zm-6-4H30V54H54Z"></path></g></svg>