<svg xmlns="http://www.w3.org/2000/svg" viewBox="0 0 64 64" x="0px" y="0px"><g data-name="Solar Energy"><circle cx="47" cy="16" r="5"></circle><path d="M54.152,12.435l.905-4.492-4.492.9a1,1,0,0,1-1.03-.427L47,4.606,44.465,8.42a1,1,0,0,1-1.03.427l-4.492-.9.905,4.492a1,1,0,0,1-.427,1.03L35.606,16l3.815,2.535a1,1,0,0,1,.427,1.03l-.905,4.492,4.492-.9a1,1,0,0,1,1.03.427L47,27.394l2.535-3.814a1,1,0,0,1,1.03-.427l4.492.9-.905-4.492a1,1,0,0,1,.427-1.03L58.394,16l-3.815-2.535A1,1,0,0,1,54.152,12.435ZM47,23a7,7,0,1,1,7-7A7.008,7.008,0,0,1,47,23Z"></path><path d="M21,60V56a1,1,0,0,1,1-1h.764L24,54.382V52.414L22.586,51H19.414L18,52.414V54.7l1.832,2.748A1.006,1.006,0,0,1,20,58v1.949C20.333,59.969,20.662,60,21,60Z"></path><path d="M19.187,30.419l3.107-4.353C21.865,26.033,21.437,26,21,26a16.877,16.877,0,0,0-8.515,2.309l1.139.91a1,1,0,0,1,.271.334l2,4A1,1,0,0,1,16,34v3.586l2.707,2.707A1,1,0,0,1,19,41v4a1,1,0,0,1-.485.857l-4.683,2.81L13,51.162V55a1,1,0,0,1-.293.707L11.4,57.016a16.907,16.907,0,0,0,6.6,2.7V58.3l-1.832-2.748A1.006,1.006,0,0,1,16,55V52a1,1,0,0,1,.293-.707l2-2A1,1,0,0,1,19,49h4a1,1,0,0,1,.707.293l2,2A1,1,0,0,1,26,52v3a1,1,0,0,1-.553.9l-2,1A1,1,0,0,1,23,57v2.872a16.881,16.881,0,0,0,8.173-3.284l-3.88-3.881A1,1,0,0,1,27.2,51.4L30,47.667V44.5l-3.6-2.7A1,1,0,0,1,26,41V38.659l-6.394-2.74A1,1,0,0,1,19,35V31A.994.994,0,0,1,19.187,30.419Z"></path><path d="M24.53,26.374,21,31.32v3.021l6.394,2.74A1,1,0,0,1,28,38v2.5l3.6,2.7a1,1,0,0,1,.4.8v4a1,1,0,0,1-.2.6l-2.48,3.306,3.388,3.388a16.972,16.972,0,0,0-8.178-28.92Z"></path><path d="M9.816,55.771,11,54.586V51a1,1,0,0,1,.052-.316l1-3a1,1,0,0,1,.433-.541L17,44.434v-3.02l-2.707-2.707A1,1,0,0,1,14,38V34.236l-1.8-3.592-1.462-1.168a16.932,16.932,0,0,0-.926,26.3Z"></path><path d="M43.293,49.293l-3,3a1,1,0,0,0,0,1.414l3,3,1.414-1.414L42.414,53l2.293-2.293Z"></path><path d="M60,21V44H58V29H56V44H49v2h7v6H45v2H57a1,1,0,0,0,1-1V46h3a1,1,0,0,0,1-1V21Z"></path><path d="M47.293,41.293l-3,3a1,1,0,0,0,0,1.414l3,3,1.414-1.414L46.414,45l2.293-2.293Z"></path><path d="M13.707,17.293l-1.414,1.414,3,3a1,1,0,0,0,1.414,0l3-3-1.414-1.414L16,19.586Z"></path><path d="M9,8h6v9h2V8H32V6H17V4H35V2H16a1,1,0,0,0-1,1V6H8A1,1,0,0,0,7,7V21H9Z"></path><path d="M8,26a1,1,0,0,0,.707-.293l3-3-1.414-1.414L8,23.586,5.707,21.293,4.293,22.707l3,3A1,1,0,0,0,8,26Z"></path></g></svg>