<svg xmlns="http://www.w3.org/2000/svg" viewBox="0 0 32 32" x="0px" y="0px"><g data-name="Smartphone-WIFI"><path d="M24.361,9.639a1,1,0,0,0-1.414,1.414,6.987,6.987,0,0,1,0,9.894,1,1,0,1,0,1.414,1.414,8.986,8.986,0,0,0,0-12.722Z"></path><path d="M21.534,20.534a1,1,0,0,0,.707-.293,5.992,5.992,0,0,0,0-8.482,1,1,0,1,0-1.414,1.414,3.993,3.993,0,0,1,0,5.654,1,1,0,0,0,.707,1.707Z"></path><path d="M18.707,18.121a1,1,0,0,0,1.414,0,3,3,0,0,0,0-4.244,1,1,0,1,0-1.413,1.415,1,1,0,0,1,0,1.414A1,1,0,0,0,18.707,18.121Z"></path><path d="M23,3a1,1,0,0,0-1-1H10A1,1,0,0,0,9,3V4H23Z"></path><path d="M18.65,11.7a2.846,2.846,0,0,1,.76-1.35,2.944,2.944,0,0,1,1.36-.77A2.879,2.879,0,0,1,23,7.43V6H9V24H21.78a2.622,2.622,0,0,1-.25-.22,2.925,2.925,0,0,1-.76-1.36,2.944,2.944,0,0,1-1.36-.77,2.846,2.846,0,0,1-.76-1.35,2.944,2.944,0,0,1-1.36-.77A2.974,2.974,0,0,1,16.77,16a2.974,2.974,0,0,1,.52-3.53A2.944,2.944,0,0,1,18.65,11.7ZM13,16H11V14h2Z"></path><path d="M9,26v3a1,1,0,0,0,1,1H22a1,1,0,0,0,1-1V26Zm8,3H15V27h2Z"></path></g></svg>