<svg xmlns="http://www.w3.org/2000/svg" viewBox="0 0 64 64" x="0px" y="0px"><title>Hair dryer</title><g data-name="Hair dryer"><path d="M62,20V18H60a1,1,0,0,0-1-1H55a1,1,0,0,0-1,1v2H53a3,3,0,0,0-3,3V59a1,1,0,0,1-1,1H41a1,1,0,0,1-1-1V58h2a1,1,0,0,0,1-1V54a5.006,5.006,0,0,0,5-5V19A13.015,13.015,0,0,0,35,6H13.1L3.2,4.02A1,1,0,0,0,2,5V25a1,1,0,0,0,1.2.98L13.1,24H26v9a1,1,0,0,0,1,1h3V49a5.006,5.006,0,0,0,5,5v3a1,1,0,0,0,1,1h2v1a3,3,0,0,0,3,3h8a3,3,0,0,0,3-3V23a1,1,0,0,1,1-1h1v2a1,1,0,0,0,1,1h4a1,1,0,0,0,1-1V23h2V21H60V20ZM45.949,18H41a3,3,0,0,1-3-3V8.426A11.016,11.016,0,0,1,45.949,18ZM4,6.22l8,1.6V22.181l-8,1.6ZM14,8h2V22H14ZM28,32V24h1a1,1,0,0,1,1,1v7Zm4,17V25a3,3,0,0,0-3-3H18V8H35c.338,0,.67.021,1,.051V15a5.006,5.006,0,0,0,5,5h5V49a3,3,0,0,1-3,3H35A3,3,0,0,1,32,49Zm5,5h4v2H37ZM58,23H56V19h2Z"></path></g></svg>