<svg xmlns="http://www.w3.org/2000/svg" viewBox="0 0 64 64" x="0px" y="0px"><g data-name="Intelligence-App-Smartphone-Internet of Things-Data"><path d="M60,19V7a3.009,3.009,0,0,0-3-3H51a3.009,3.009,0,0,0-3,3v8.5a22.942,22.942,0,0,0-32,0V7a3.009,3.009,0,0,0-3-3H7A3.009,3.009,0,0,0,4,7V19a3.009,3.009,0,0,0,3,3h4.291a22.97,22.97,0,0,0,0,20H7a3.009,3.009,0,0,0-3,3V57a3.009,3.009,0,0,0,3,3h6a3.009,3.009,0,0,0,3-3V48.5a22.942,22.942,0,0,0,32,0V57a3.009,3.009,0,0,0,3,3h6a3.009,3.009,0,0,0,3-3V45a3.009,3.009,0,0,0-3-3H52.709a22.97,22.97,0,0,0,0-20H57A3.009,3.009,0,0,0,60,19ZM6.465,10.464a5,5,0,0,1,7.07,0l-1.414,1.414a3.074,3.074,0,0,0-4.242,0Zm4.949,2.122L10,14,8.586,12.586A2,2,0,0,1,11.414,12.586ZM11,20H9V18h2Zm0,38H9V56h2Zm-1-6L8.586,50.586a2,2,0,0,1,2.828,0Zm2.121-2.122a3.074,3.074,0,0,0-4.242,0L6.465,48.464a5,5,0,0,1,7.07,0ZM55,58H53V56h2Zm-1-6-1.414-1.414a2,2,0,0,1,2.828,0Zm3.535-3.536-1.414,1.414a3.074,3.074,0,0,0-4.242,0l-1.414-1.414a5,5,0,0,1,7.07,0Zm-7.108-6.406A3.01,3.01,0,0,0,48,45v.569a20.941,20.941,0,0,1-32,0V45a3.01,3.01,0,0,0-2.427-2.942,20.945,20.945,0,0,1,0-20.116A3.01,3.01,0,0,0,16,19v-.569a20.941,20.941,0,0,1,32,0V19a3.01,3.01,0,0,0,2.427,2.942,20.945,20.945,0,0,1,0,20.116ZM55,20H53V18h2Zm-1-6-1.414-1.414a2,2,0,0,1,2.828,0Zm-2.121-2.122-1.414-1.414a5,5,0,0,1,7.07,0l-1.414,1.414A3.074,3.074,0,0,0,51.879,11.878Z"></path><path d="M29,35H27v3a1,1,0,0,0,.293.707l1,1,1.414-1.414L29,37.586Z"></path><path d="M27.293,25.293A1,1,0,0,0,27,26v3h2V26.414l.707-.707-1.414-1.414Z"></path><path d="M35,37.586l-.707.707,1.414,1.414,1-1A1,1,0,0,0,37,38V35H35Z"></path><path d="M44.316,27.051,42,26.279V24a1,1,0,0,0-.293-.707l-1-1A1,1,0,0,0,40,22H38.535l-1.7-2.555A1,1,0,0,0,36,19H34a1,1,0,0,0-.707.293L32,20.586l-1.293-1.293A1,1,0,0,0,30,19H28a1,1,0,0,0-.832.445L25.465,22H24a1,1,0,0,0-.707.293l-1,1A1,1,0,0,0,22,24v2.279l-2.316.772A1,1,0,0,0,19,28v8a1,1,0,0,0,.684.949L22,37.721V40a1,1,0,0,0,.293.707l1,1A1,1,0,0,0,24,42h1.465l1.7,2.555A1,1,0,0,0,28,45h2a1,1,0,0,0,.707-.293L32,43.414l1.293,1.293A1,1,0,0,0,34,45h2a1,1,0,0,0,.832-.445L38.535,42H40a1,1,0,0,0,.707-.293l1-1A1,1,0,0,0,42,40V37.721l2.316-.772A1,1,0,0,0,45,36V28A1,1,0,0,0,44.316,27.051ZM31,41.586,29.586,43H28.535l-1.7-2.555A1,1,0,0,0,26,40H24.414L24,39.586V37.414l1.707-1.707A1,1,0,0,0,26,35V33H24v1.586l-1.27,1.27L21,35.279V28.721l1.73-.577L24,29.414V31h2V29a1,1,0,0,0-.293-.707L24,26.586V24.414L24.414,24H26a1,1,0,0,0,.832-.445L28.535,21h1.051L31,22.414Zm12-6.307-1.73.577L40,34.586V33H38v2a1,1,0,0,0,.293.707L40,37.414v2.172L39.586,40H38a1,1,0,0,0-.832.445L35.465,43H34.414L33,41.586V22.414L34.414,21h1.051l1.7,2.555A1,1,0,0,0,38,24h1.586l.414.414v2.172l-1.707,1.707A1,1,0,0,0,38,29v2h2V29.414l1.27-1.27,1.73.577Z"></path><path d="M35.707,24.293l-1.414,1.414.707.707V29h2V26a1,1,0,0,0-.293-.707Z"></path></g></svg>