<svg xmlns="http://www.w3.org/2000/svg" viewBox="0 0 64 64" x="0px" y="0px"><g data-name="Book"><rect x="25" y="20" width="22" height="8"></rect><path d="M43.4,11.2a1,1,0,0,1,1.2,0L47,13V4H41v9Z"></path><path d="M51,54V50H16a5.006,5.006,0,0,0-5,5,5.009,5.009,0,0,0,5,5H51V56H16V54Z"></path><path d="M53,48V4H49V15a1,1,0,0,1-1.6.8L44,13.25,40.6,15.8A1,1,0,0,1,39,15V4H19V45H17V4H16a5.006,5.006,0,0,0-5,5V50.105c.009-.009.02-.017.029-.027.078-.079.163-.151.244-.226s.167-.158.255-.231.179-.138.27-.206.177-.138.27-.2.2-.123.3-.184.185-.118.282-.171.214-.106.322-.158.193-.1.293-.141.231-.087.347-.129c.1-.037.2-.078.3-.11.128-.04.26-.069.39-.1.1-.024.187-.053.284-.073.153-.032.31-.051.467-.073.078-.01.153-.027.231-.035A7.141,7.141,0,0,1,16,48H53Zm-5-6H24V40H48ZM28,36V34H44v2Zm21-7a1,1,0,0,1-1,1H24a1,1,0,0,1-1-1V19a1,1,0,0,1,1-1H48a1,1,0,0,1,1,1Z"></path></g></svg>