<svg xmlns="http://www.w3.org/2000/svg" viewBox="0 0 64 64" x="0px" y="0px"><g data-name="Search-Magnifying Glass-Smartphone-Mobile-App"><path d="M49,54H22.6a10.954,10.954,0,0,1,.4,2.926v1.3A10.985,10.985,0,0,1,22.846,60H44a5.006,5.006,0,0,0,5-5ZM34,58H30V56h4Z"></path><path d="M49,12H15V44.659l2.437-4.221a4,4,0,1,1,6.929,4l-3.257,5.641L21.877,52H49ZM19,23H17V21h2Zm3-7H19v3H17V15a1,1,0,0,1,1-1h4ZM33,32.931v2.253A3,3,0,0,1,35,38v6a3,3,0,0,1-6,0V38a3,3,0,0,1,2-2.816V32.931a8,8,0,1,1,2,0Z"></path><path d="M32,19a6,6,0,1,0,6,6A6.006,6.006,0,0,0,32,19Zm0,4a2,2,0,0,0-2,2H28a4,4,0,0,1,4-4Z"></path><path d="M32,37a1,1,0,0,0-1,1v6a1,1,0,0,0,2,0V38A1,1,0,0,0,32,37Z"></path><path d="M49,9a5.006,5.006,0,0,0-5-5H20a5.006,5.006,0,0,0-5,5v1H49ZM27,8H25V6h2Zm8,0H29V6h6Z"></path><path d="M21,58.23v-1.3a8.967,8.967,0,0,0-.644-3.343l-1.285-3.212a1,1,0,0,1,.063-.871l3.5-6.062a2,2,0,0,0-3.465-2l-5,8.66-1.733-1L13,48.123V35.15l-4.506,7.8a14.9,14.9,0,0,0-1.92,9.16L7.561,61H20.555A8.923,8.923,0,0,0,21,58.23Z"></path></g></svg>