<svg xmlns="http://www.w3.org/2000/svg" viewBox="0 0 64 64" x="0px" y="0px"><g data-name="Time"><path d="M28.9,49.014a1,1,0,0,0-1.225-.707l-.966.259-1.8-6.713a1.016,1.016,0,0,0-.258-.448l-9.759-9.758a4.02,4.02,0,0,0-3.374-1.132L9.8,24.108a4,4,0,1,0-7.727,2.07L7.765,47.429a1.009,1.009,0,0,0,.373.547l4.876,3.586.168.627-.966.259a1,1,0,0,0-.707,1.224L13.58,61.4a1,1,0,0,0,1.224.707l15.455-4.141a1,1,0,0,0,.707-1.225ZM9.606,46.572,4,25.661a2,2,0,0,1,3.864-1.036L9.654,31.3a4.194,4.194,0,0,0-.425.352,4.012,4.012,0,0,0,0,5.658l8.083,8.083,1.415-1.414-8.083-8.083a2.005,2.005,0,0,1-.008-2.823,1.86,1.86,0,0,1,.57-.393.979.979,0,0,0,.092-.045,1.132,1.132,0,0,1,.244-.086,2.008,2.008,0,0,1,1.933.518l9.568,9.566,1.73,6.455-9.66,2.588-.259-.965a.991.991,0,0,0-.373-.547Zm5.646,13.345-1.553-5.8L27.223,50.5l1.552,5.8Z"></path><path d="M61.531,23.142a4,4,0,0,0-7.329.966l-1.717,6.407a4.017,4.017,0,0,0-3.374,1.131l-9.759,9.759a1.016,1.016,0,0,0-.258.448l-1.8,6.713-.966-.259a1,1,0,0,0-1.225.707l-2.07,7.727a1,1,0,0,0,.707,1.225L49.2,62.107a1.015,1.015,0,0,0,.259.035,1,1,0,0,0,.965-.742l2.071-7.728a1,1,0,0,0-.707-1.224l-.966-.259.168-.627,4.876-3.586a1.009,1.009,0,0,0,.373-.547l5.694-21.251A3.977,3.977,0,0,0,61.531,23.142ZM48.748,59.917,35.225,56.293l1.552-5.8L50.3,54.121ZM60,25.661l-5.6,20.911-4.875,3.587a.991.991,0,0,0-.373.547l-.259.965-9.66-2.588,1.73-6.455,9.568-9.567a2,2,0,0,1,1.934-.517,1.14,1.14,0,0,1,.243.086.979.979,0,0,0,.092.045,1.826,1.826,0,0,1,.56.384,2.008,2.008,0,0,1,0,2.832l-8.084,8.083,1.414,1.414,8.084-8.083a4.015,4.015,0,0,0-.009-5.667,4.157,4.157,0,0,0-.416-.343l1.787-6.67A2,2,0,1,1,60,25.661Z"></path><path d="M47,19A15,15,0,1,0,32,34,15.017,15.017,0,0,0,47,19ZM32,32A13,13,0,1,1,45,19,13.015,13.015,0,0,1,32,32Z"></path><path d="M33,16.184V11H31v5.184A3,3,0,0,0,29.184,18H26v2h3.184A2.993,2.993,0,1,0,33,16.184ZM32,20a1,1,0,1,1,1-1A1,1,0,0,1,32,20Z"></path><rect x="20" y="18" width="2" height="2"></rect><rect x="31" y="29" width="2" height="2"></rect><rect x="42" y="18" width="2" height="2"></rect><rect x="31" y="7" width="2" height="2"></rect></g></svg>