<svg xmlns="http://www.w3.org/2000/svg" viewBox="0 0 64 64" x="0px" y="0px"><g><path d="M32,19a8,8,0,1,0,8,8A8.009,8.009,0,0,0,32,19Zm1,13H31V30h2Zm1.122-3.121a3,3,0,0,0-4.244,0l-1.414-1.414a5.008,5.008,0,0,1,7.072,0ZM36.95,26.05a7.009,7.009,0,0,0-9.9,0l-1.414-1.414a9.009,9.009,0,0,1,12.728,0Z"></path><path d="M52,14a1,1,0,0,1-1-1,5,5,0,0,0-8.583-3.482,1,1,0,0,1-1.6-.226,9.988,9.988,0,0,0-18.725,3.451,1,1,0,0,1-1.672.611A5,5,0,0,0,12,17a1.088,1.088,0,0,1-.35.8,1.047,1.047,0,0,1-.8.268A5.423,5.423,0,0,0,10,18a6,6,0,0,0,0,12H22.461a10,10,0,1,1,19.078,0H52a8,8,0,0,0,0-16Zm-7,0H43V12h2Zm2-2h2v2H47Zm3,16H48V26h2Zm2,0V26a4,4,0,0,0,4-4h2A6.006,6.006,0,0,1,52,28Z"></path><rect x="31" y="37" width="2" height="7"></rect><rect x="35" y="40" width="2" height="2"></rect><rect x="39" y="40" width="2" height="2"></rect><rect x="43" y="40" width="2" height="2"></rect><rect x="27" y="40" width="2" height="2"></rect><rect x="23" y="40" width="2" height="2"></rect><rect x="19" y="40" width="2" height="2"></rect><path d="M53,46H11V60H53Zm-8,2h2v2H45Zm-4,0h2v2H41Zm0,4h2v2H41Zm-4-4h2v2H37Zm0,4h2v2H37Zm-4-4h2v2H33Zm0,4h2v2H33Zm-4-4h2v2H29Zm0,4h2v2H29Zm-4-4h2v2H25Zm0,4h2v2H25Zm-4-4h2v2H21Zm0,4h2v2H21Zm-4-4h2v2H17Zm0,4h2v2H17Zm-2,6H13V56h2Zm0-4H13V52h2Zm0-4H13V48h2Zm30,8H17V56H45Zm0-6h2v2H45Zm6,6H47V56h4Zm0-4H49V52h2Zm0-4H49V48h2Z"></path></g></svg>