<svg xmlns="http://www.w3.org/2000/svg" viewBox="0 0 64 64" x="0px" y="0px"><g><path d="M53,12H50v2h3a3,3,0,0,1,3,3V40H8V17a3,3,0,0,1,3-3h3V12H11a5.006,5.006,0,0,0-5,5V45a5.006,5.006,0,0,0,5,5H23.867l-.75,6H22a3,3,0,0,0,0,6H42a3,3,0,0,0,0-6H40.883l-.75-6H53a5.006,5.006,0,0,0,5-5V17A5.006,5.006,0,0,0,53,12ZM43,59a1,1,0,0,1-1,1H22a1,1,0,0,1,0-2H42A1,1,0,0,1,43,59Zm-4.133-3H25.133l.75-6H38.117ZM53,48H11a3,3,0,0,1-3-3V42H56v3A3,3,0,0,1,53,48Z"></path><rect x="50" y="44" width="2" height="2"></rect><rect x="35" y="11" width="2" height="2"></rect><rect x="31" y="11" width="2" height="2"></rect><path d="M24,19V33a2,2,0,0,0,2,2H38a2,2,0,0,0,2-2V22a1,1,0,0,0-.293-.707l-4-4A1,1,0,0,0,35,17H26A2,2,0,0,0,24,19Zm2,14V19h7v2a2,2,0,0,0,2,2h3V33ZM36.586,21H35V19.414Z"></path><rect x="28" y="25" width="8" height="2"></rect><rect x="28" y="29" width="8" height="2"></rect><rect x="28" y="21" width="2" height="2"></rect><rect x="46" y="25" width="6" height="2"></rect><rect x="46" y="29" width="6" height="2"></rect><rect x="46" y="33" width="6" height="2"></rect><rect x="12" y="25" width="6" height="2"></rect><rect x="12" y="29" width="6" height="2"></rect><rect x="12" y="33" width="6" height="2"></rect><path d="M21,23h1V21H21a4,4,0,0,1,0-8h1.184a1,1,0,0,0,.942-1.334,1.985,1.985,0,0,1,2.689-2.487,1,1,0,0,0,1.379-.665,6,6,0,1,1,11.554,3.2A1,1,0,0,0,39.706,13H43a4,4,0,0,1,0,8H42v2h1a6,6,0,0,0,0-12H40.937A8,8,0,0,0,25.573,7.042,3.915,3.915,0,0,0,25,7a4,4,0,0,0-4,4,6,6,0,0,0,0,12Z"></path></g></svg>