<svg xmlns="http://www.w3.org/2000/svg" viewBox="0 0 64 64" x="0px" y="0px"><g><path d="M15.122,20.121a3,3,0,1,0-4.244,0A2.979,2.979,0,0,0,15.122,20.121ZM12,17h2v2H12Z"></path><path d="M30,38V36a4,4,0,0,1,4-4,3.939,3.939,0,0,1,1,.142V30H23v8Z"></path><path d="M40,44a4,4,0,0,1,3.427,1.939A3.988,3.988,0,0,1,46,45V24H31a5,5,0,0,1,0-10H46V5a1,1,0,0,0-1-1H13a1,1,0,0,0-1,1V7.051c.33-.03.662-.051,1-.051a11,11,0,0,1,0,22c-.338,0-.67-.021-1-.051V59a1,1,0,0,0,1,1H25.8l-2.865-4.964a4,4,0,1,1,6.928-4l.134.233V40H22a1,1,0,0,1-1-1V29a1,1,0,0,1,1-1H36a1,1,0,0,1,1,1v4.382A3.966,3.966,0,0,1,38,36v8.537A3.97,3.97,0,0,1,40,44Z"></path><path d="M4,18a9,9,0,1,0,9-9A9.01,9.01,0,0,0,4,18Zm4.757-5.657,1.486,1.486A4.972,4.972,0,0,1,12,13.108V11h2v2.107a4.974,4.974,0,0,1,1.757.722l1.486-1.486,1.414,1.414-1.486,1.486A4.935,4.935,0,0,1,17.9,17H20v2H17.9a4.935,4.935,0,0,1-.728,1.757l1.486,1.486-1.414,1.414-1.486-1.486A4.974,4.974,0,0,1,14,22.893V25H12V22.893a4.974,4.974,0,0,1-1.757-.722L8.757,23.657,7.343,22.243l1.486-1.486A4.935,4.935,0,0,1,8.1,19H6V17H8.1a4.935,4.935,0,0,1,.728-1.757L7.343,13.757Z"></path><path d="M60,19a3,3,0,0,0-3-3H31a3,3,0,0,0,0,6H57A3,3,0,0,0,60,19Z"></path><path d="M52,48a2,2,0,0,0-2,2v2a1,1,0,0,1-2,0V49a2,2,0,0,0-4,0v3a1,1,0,0,1-2,0V48a2,2,0,0,0-4,0v4a1,1,0,0,1-2,0V36a2,2,0,0,0-4,0V55a1,1,0,0,1-1.866.5l-2-3.464a2,2,0,1,0-3.464,2l4.5,7.794-.294.17H54V50A2,2,0,0,0,52,48Z"></path></g></svg>