<svg xmlns="http://www.w3.org/2000/svg" viewBox="0 0 64 64" x="0px" y="0px"><g><path d="M31,47h2v2a1,1,0,0,0,1,1h4a1,1,0,0,0,1-1V47h2a1,1,0,0,0,1-1V42a1,1,0,0,0-1-1H39V39a1,1,0,0,0-1-1H34a1,1,0,0,0-1,1v2H31a1,1,0,0,0-1,1v4A1,1,0,0,0,31,47Zm1-4h2a1,1,0,0,0,1-1V40h2v2a1,1,0,0,0,1,1h2v2H38a1,1,0,0,0-1,1v2H35V46a1,1,0,0,0-1-1H32Z"></path><path d="M47.86,34.16,41,22.72V18h3a1,1,0,0,0,1-1V15a7.008,7.008,0,0,0-7-7H20a1,1,0,0,0-1,1v4a1,1,0,0,0,1,1h3v9a1,1,0,0,0,1,1,5,5,0,0,0,5-5V18h2v4.72L24.14,34.16A14.993,14.993,0,0,0,22,41.88V57a5,5,0,0,0,5,5H45a5,5,0,0,0,5-5V41.88A14.993,14.993,0,0,0,47.86,34.16ZM23,12H21V10h2Zm4,7a3.014,3.014,0,0,1-2,2.83V18h2Zm-2-3V10H38a5,5,0,0,1,5,5v1Zm14,2v4H33V18Zm-6.43,6h6.86l6,10H26.57ZM48,57a3.009,3.009,0,0,1-3,3H27a3.009,3.009,0,0,1-3-3V54H48Zm0-5H24V41.88A12.9,12.9,0,0,1,25.41,36H46.59A12.9,12.9,0,0,1,48,41.88Z"></path><rect x="15" y="10" width="2" height="2"></rect><rect x="11" y="10" width="2" height="2"></rect><rect x="7" y="10" width="2" height="2"></rect><rect x="14.536" y="6" width="2" height="2" transform="translate(1.707 16.956) rotate(-60.005)"></rect><rect x="11.072" y="4" width="2" height="1.999" transform="matrix(0.5, -0.866, 0.866, 0.5, 1.705, 12.953)"></rect><rect x="7.607" y="2" width="2" height="2" transform="translate(1.706 8.955) rotate(-60.005)"></rect><rect x="14.536" y="14" width="2" height="2" transform="translate(-5.418 9.776) rotate(-29.995)"></rect><rect x="11.072" y="16" width="1.999" height="2" transform="translate(-6.882 8.312) rotate(-29.995)"></rect><rect x="7.607" y="18" width="2" height="2" transform="translate(-8.346 6.848) rotate(-29.995)"></rect></g></svg>