<svg xmlns="http://www.w3.org/2000/svg" viewBox="0 0 64 64" x="0px" y="0px"><g data-name="Online Learning-Elearning-Book-Laptop-Computer"><path d="M50.17,22H60V20H53A3.014,3.014,0,0,0,50.17,22Z"></path><path d="M45,20H38v2h9.83A3.014,3.014,0,0,0,45,20Z"></path><path d="M60,4H53a3.009,3.009,0,0,0-3,3V19.03A4.924,4.924,0,0,1,53,18h7ZM58,16H52V14h6Zm0-4H52V10h6Zm0-4H52V6h6Z"></path><path d="M45,4H38V18h7a4.924,4.924,0,0,1,3,1.03V7A3.009,3.009,0,0,0,45,4Zm1,12H40V14h6Zm0-4H40V10h6Zm0-4H40V6h6Z"></path><path d="M11,20H4v2h9.83A3.014,3.014,0,0,0,11,20Z"></path><path d="M16.17,22H26V20H19A3.014,3.014,0,0,0,16.17,22Z"></path><path d="M26,4H19a3.009,3.009,0,0,0-3,3V19.03A4.924,4.924,0,0,1,19,18h7ZM24,16H18V14h6Zm0-4H18V10h6Zm0-4H18V6h6Z"></path><path d="M11,4H4V18h7a4.924,4.924,0,0,1,3,1.03V7A3.009,3.009,0,0,0,11,4Zm1,12H6V14h6Zm0-4H6V10h6Zm0-4H6V6h6Z"></path><path d="M26.22,56l.81-3.24A1,1,0,0,1,28,52h8a1,1,0,0,1,.97.76L37.78,56h8.78l-2.25-6H19.69l-2.25,6Z"></path><path d="M20,48H44V35a1,1,0,0,0-1-1H21a1,1,0,0,0-1,1Zm15-8h2v2H35Zm-4,0h2v2H31Zm-4,0h2v2H27Z"></path><polygon points="28.28 56 35.72 56 35.22 54 28.78 54 28.28 56"></polygon><path d="M17,59a1,1,0,0,0,1,1H46a1,1,0,0,0,1-1V58H17Z"></path><rect x="52" y="26" width="2" height="2"></rect><rect x="52" y="30" width="2" height="2"></rect><rect x="52" y="34" width="2" height="2"></rect><rect x="10" y="26" width="2" height="2"></rect><rect x="10" y="30" width="2" height="2"></rect><rect x="10" y="34" width="2" height="2"></rect><path d="M47.707,39.707l-1.414-1.414L48,36.586V26h2V37a1,1,0,0,1-.293.707Z"></path><path d="M16.293,39.707l-2-2A1,1,0,0,1,14,37V26h2V36.586l1.707,1.707Z"></path></g></svg>