<svg xmlns="http://www.w3.org/2000/svg" viewBox="0 0 64 64" x="0px" y="0px"><path d="M37,11H31a1,1,0,0,0-1,1v3h8V12A1,1,0,0,0,37,11Z"></path><path d="M38,18V17H30v1a1,1,0,0,0,1,1h6A1,1,0,0,0,38,18Z"></path><path d="M20.98,29.44l-3.45-8.89a.87.87,0,0,0-.81-.55H8.46l4.67,12h6.95A7.046,7.046,0,0,1,20.98,29.44Z"></path><rect x="33" y="24" width="2" height="2"></rect><path d="M22,33v3H41V28H27A5,5,0,0,0,22,33Z"></path><path d="M11.51,33.36,6.53,20.55a.9.9,0,0,0-1.52-.17.846.846,0,0,0-.09.8L10.68,36H20V34H12.44A.994.994,0,0,1,11.51,33.36Z"></path><rect x="32" y="21" width="4" height="1"></rect><rect x="4" y="38" width="56" height="2"></rect><path d="M43,36h2V25a1,1,0,0,0-2,0Z"></path><path d="M57,36V25a1,1,0,0,0-1-1H46.82A3,3,0,0,1,47,25V36Z"></path><rect x="47" y="48" width="6" height="2"></rect><rect x="20" y="48" width="21" height="2"></rect><rect x="21" y="42" width="2" height="4"></rect><polygon points="21 7 21 4 22 4 22 2 4 2 4 4 12 4 12 18 14 18 14 4 19 4 19 7 17 7 17 15 23 15 23 7 21 7"></polygon><path d="M10.709,54.136,11,53.7V42H9V53.7l.291.436a2,2,0,1,0,1.418,0Z"></path><path d="M22.709,54.136,23,53.7V52H21v1.7l.291.436a2,2,0,1,0,1.418,0Z"></path><path d="M44.709,54.136,45,53.7V42H43V53.7l.291.436a2,2,0,1,0,1.418,0Z"></path><path d="M56.709,54.136,57,53.7V42H55V53.7l.291.436a2,2,0,1,0,1.418,0Z"></path></svg>