<svg xmlns="http://www.w3.org/2000/svg" viewBox="0 0 64 64" x="0px" y="0px"><g><rect x="18" y="43" width="10" height="1"></rect><path d="M18,35.127V38h2.859A4,4,0,0,0,18,35.127Z"></path><rect x="18" y="40" width="10" height="1"></rect><path d="M20.858,24H18v2.858A4,4,0,0,0,20.858,24Z"></path><rect x="30" y="40" width="4" height="4"></rect><path d="M22.91,38H41.09A6.006,6.006,0,0,1,46,33.091V28.91A6.007,6.007,0,0,1,41.09,24H22.91A6.008,6.008,0,0,1,18,28.91v4.18A6.008,6.008,0,0,1,22.91,38ZM32,26a5,5,0,1,1-5,5A5.006,5.006,0,0,1,32,26Z"></path><path d="M46,38V35.143A3.993,3.993,0,0,0,43.142,38Z"></path><circle cx="32" cy="31" r="3"></circle><rect x="13" y="4" width="12" height="2"></rect><rect x="36" y="43" width="10" height="1"></rect><rect x="39" y="8" width="12" height="2"></rect><path d="M60,11a3,3,0,0,0-3-3H53v2a2,2,0,0,1-2,2H39a2,2,0,0,1-2-2V8H33a3,3,0,0,0-3,3v5H28V11a5.006,5.006,0,0,1,5-5h.816A3,3,0,0,0,31,4H27V6a2,2,0,0,1-2,2H13a2,2,0,0,1-2-2V4H7A3,3,0,0,0,4,7V53a3,3,0,0,0,3,3H28V52h2v5a3,3,0,0,0,3,3H57a3,3,0,0,0,3-3ZM23,18H38.586l-1.293-1.293,1.414-1.414,3,3A1,1,0,0,1,41,20H23ZM39,50H23.414l1.293,1.293-1.414,1.414-3-3A1,1,0,0,1,21,48H39Zm9-6a2,2,0,0,1-2,2H18a2,2,0,0,1-2-2V24a2,2,0,0,1,2-2H46a2,2,0,0,1,2,2Z"></path><path d="M46,26.858V24H43.142A4,4,0,0,0,46,26.858Z"></path><rect x="36" y="40" width="10" height="1"></rect></g></svg>