<svg xmlns="http://www.w3.org/2000/svg" viewBox="0 0 64 64" x="0px" y="0px"><g data-name="Cactus"><path d="M43,45H21v8a7.008,7.008,0,0,0,7,7h8a7.008,7.008,0,0,0,7-7Zm-5,4H36V47h2Zm3,3H39V50h2Zm0-3H39V47h2Z"></path><path d="M27.362,27.49A2.974,2.974,0,0,0,26,30V43h6V30a3,3,0,0,0-3-3,2.91,2.91,0,0,0-1.515.417h0c-.015.009-.031.012-.046.02l0,0-.075.048Z"></path><path d="M24,43V30a5.022,5.022,0,0,1,.1-.937c.011-.056.02-.113.032-.169a5,5,0,0,1,.272-.846c.022-.052.047-.1.071-.153a4.959,4.959,0,0,1,.447-.786l.009-.014a4.926,4.926,0,0,1,.607-.686c.026-.025.044-.056.07-.08-1.56-3.589-3.557-5.117-5.942-4.546l-.109.024c-4,1.05-3.466,6.529-2.316,10.941.236.906.524,1.857.858,2.827A24.076,24.076,0,0,0,22.069,43Z"></path><path d="M41.991,23.622c-.082,7.883-1.7,15.437-4.061,19.378h3.735l3.64-15.731a2.976,2.976,0,0,0-3.314-3.647Z"></path><path d="M27.86,23c0,.685.014,1.395.041,2.123.094-.021.191-.033.287-.048.065-.011.128-.025.194-.033A4.884,4.884,0,0,1,29,25a5.006,5.006,0,0,1,5,5V43h1.512C38.089,39.978,40,31.542,40,23v-.16C39.97,11.956,36.833,7,33.93,7,31.006,7,27.86,12.007,27.86,23Z"></path><rect x="17.94" y="16.905" width="2" height="4" transform="matrix(0.968, -0.252, 0.252, 0.968, -4.154, 5.385)"></rect><rect x="13.057" y="20.598" width="1.999" height="4" transform="translate(-12.548 23.289) rotate(-59.604)"></rect><rect x="23.005" y="18.746" width="4" height="1.999" transform="translate(-4.679 31.322) rotate(-59.603)"></rect><rect x="11.478" y="28.262" width="4" height="2" transform="translate(-2.108 1.066) rotate(-4.201)"></rect><rect x="13.233" y="35.405" width="4" height="2" transform="translate(-8.695 5.023) rotate(-14.62)"></rect><rect x="33" y="2" width="2" height="4"></rect><rect x="26.331" y="8.009" width="2" height="4" transform="translate(5.555 29.322) rotate(-61.683)"></rect><rect x="38.669" y="9.009" width="4" height="2" transform="translate(0.116 20.48) rotate(-28.305)"></rect><rect x="41.736" y="19.742" width="4" height="2" transform="translate(13.68 58.685) rotate(-76.989)"></rect><rect x="45.474" y="22.41" width="4" height="2" transform="translate(-5.192 28.706) rotate(-31.991)"></rect><rect x="47.005" y="26.914" width="2" height="4" transform="translate(9.017 69.168) rotate(-76.977)"></rect><rect x="45.653" y="32.759" width="2" height="4" transform="translate(2.274 72.379) rotate(-76.977)"></rect><rect x="44.301" y="38.605" width="2" height="4" transform="translate(-4.468 75.59) rotate(-76.977)"></rect></g></svg>