<svg xmlns="http://www.w3.org/2000/svg" viewBox="0 0 64 64" x="0px" y="0px"><g data-name="Satellite"><path d="M14,50a4,4,0,1,0,4,4A4,4,0,0,0,14,50Zm0,6a2,2,0,1,1,2-2A2,2,0,0,1,14,56Z"></path><path d="M24,50a4,4,0,1,0,4,4A4,4,0,0,0,24,50Zm0,6a2,2,0,1,1,2-2A2,2,0,0,1,24,56Z"></path><path d="M34,50a4,4,0,1,0,4,4A4,4,0,0,0,34,50Zm0,6a2,2,0,1,1,2-2A2,2,0,0,1,34,56Z"></path><path d="M14,44V42A12.013,12.013,0,0,0,2,54H4A10.011,10.011,0,0,1,14,44Z"></path><path d="M2.2,56.181a11.892,11.892,0,0,0,.623,2.184l1.862-.73a9.879,9.879,0,0,1-.518-1.816Z"></path><path d="M34,46H29.722L27.4,38.974a8.976,8.976,0,0,0,5.969-2.6,1,1,0,0,0,0-1.416L30.434,32.02A3.952,3.952,0,0,0,31,30a4,4,0,0,0-4-4,3.952,3.952,0,0,0-2.02.566l-2.933-2.933a1,1,0,0,0-.707-.293h0a1,1,0,0,0-.707.294,9.031,9.031,0,0,0-1,11.522L17.2,46H14a8,8,0,0,0,0,16H34a8,8,0,0,0,0-16ZM27,28a2,2,0,0,1,1.932,2.518l-2.45-2.45A1.99,1.99,0,0,1,27,28Zm-5.608-2.194,9.8,9.8a7,7,0,0,1-9.8-9.8Zm-.114,11.143a8.96,8.96,0,0,0,3.962,1.87L27.616,46H19.249ZM34,60H14a6,6,0,0,1,0-12H34a6,6,0,0,1,0,12Z"></path><path d="M33,30h2a8.009,8.009,0,0,0-8-8v2A6.006,6.006,0,0,1,33,30Z"></path><path d="M38,29h2A12.013,12.013,0,0,0,28,17v2A10.011,10.011,0,0,1,38,29Z"></path><path d="M56.484,13.148a1,1,0,0,0-1.414-.024L52.193,15.9,50.8,14.463l.72-.694a1,1,0,0,0,.024-1.415L48.769,9.477a1,1,0,0,0-1.415-.024l-.719.694L45.246,8.709,48.124,5.93a1,1,0,0,0,.024-1.414L45.369,1.639a1,1,0,0,0-1.414-.025L36.762,8.561a1,1,0,0,0-.025,1.414l2.779,2.877a1,1,0,0,0,1.414.024L43.807,10.1l1.39,1.439-.72.694a1,1,0,0,0-.024,1.415l2.778,2.877a1,1,0,0,0,1.415.024l.719-.694,1.389,1.438L47.876,20.07a1,1,0,0,0-.024,1.414l2.779,2.877a1,1,0,0,0,1.414.025l7.193-6.947a1,1,0,0,0,.025-1.414Zm-11.859-9.4,1.39,1.438L43.857,7.27l-1.39-1.439Zm-4.365,7L38.871,9.305l2.158-2.084,1.389,1.438Zm7.715,3.671-1.389-1.439,1.439-1.389,1.389,1.439Zm3.4,7.838-1.39-1.438,2.158-2.084,1.39,1.439Zm3.6-3.473-1.389-1.438,2.158-2.084L57.129,16.7Z"></path><rect x="41" y="60" width="2" height="2"></rect><rect x="45" y="60" width="2" height="2"></rect><rect x="49" y="60" width="2" height="2"></rect><rect x="53" y="60" width="2" height="2"></rect><polygon points="6 8 8 8 8 6 10 6 10 4 8 4 8 2 6 2 6 4 4 4 4 6 6 6 6 8"></polygon><rect x="12" y="4" width="2" height="2"></rect><rect x="16" y="4" width="2" height="2"></rect><rect x="20" y="4" width="2" height="2"></rect><rect x="6" y="17" width="2" height="2"></rect><rect x="18" y="12" width="2" height="2"></rect><rect x="52" y="2" width="2" height="2"></rect><rect x="56" y="2" width="2" height="2"></rect><rect x="60" y="2" width="2" height="2"></rect><polygon points="57 36 57 34 55 34 55 32 53 32 53 34 51 34 51 36 53 36 53 38 55 38 55 36 57 36"></polygon><rect x="43" y="39" width="2" height="2"></rect><rect x="57" y="42" width="2" height="2"></rect><rect x="60" y="52" width="2" height="2"></rect></g></svg>