<svg xmlns="http://www.w3.org/2000/svg" viewBox="0 0 64 64" x="0px" y="0px"><title>Speech Bubble_32</title><g data-name="Speech Bubble"><path d="M32,2A30,30,0,1,0,62,32,30.034,30.034,0,0,0,32,2Zm0,58A28,28,0,1,1,60,32,28.032,28.032,0,0,1,32,60Z"></path><path d="M54.5,39.132,48,35.42V28a3,3,0,0,0-3-3H44V21a3,3,0,0,0-3-3H21a3,3,0,0,0-3,3v7.42l-6.5,3.712A1,1,0,0,0,12,34H22v4a3,3,0,0,0,3,3H54a1,1,0,0,0,.5-1.868ZM15.766,32l3.73-2.132A1,1,0,0,0,20,29V21a1,1,0,0,1,1-1H41a1,1,0,0,1,1,1v4H25a3,3,0,0,0-3,3v4ZM25,39a1,1,0,0,1-1-1V28a1,1,0,0,1,1-1H45a1,1,0,0,1,1,1v8a1,1,0,0,0,.5.868L50.234,39Z"></path><path d="M43,30H27a1,1,0,0,0,0,2H43a1,1,0,0,0,0-2Z"></path><path d="M43,34H27a1,1,0,0,0,0,2H43a1,1,0,0,0,0-2Z"></path></g></svg>