<svg xmlns="http://www.w3.org/2000/svg" viewBox="0 0 64 64" x="0px" y="0px"><g><polygon points="25.939 38 25.064 52 38.936 52 38.061 38 37 38 37 40 35 40 35 38 29 38 29 40 27 40 27 38 25.939 38"></polygon><path d="M35,32a3,3,0,0,0-6,0v4h6Z"></path><path d="M60,32A12.01,12.01,0,0,1,48,44H40.44L40,36.94A1,1,0,0,0,39,36H37V32a5,5,0,0,0-10,0v4H25a1,1,0,0,0-1,.94L23.56,44H13a9,9,0,0,1-2.6-17.62.987.987,0,0,0,.71-.82A11.007,11.007,0,0,1,22,16c.15,0,.3.01.45.02l.21.01a1.017,1.017,0,0,0,.95-.53,13.985,13.985,0,0,1,26.15,3.98.994.994,0,0,0,.77.79A12.053,12.053,0,0,1,60,32Z"></path></g></svg>