<svg xmlns="http://www.w3.org/2000/svg" viewBox="0 0 64 64" x="0px" y="0px"><path d="M17,16H37V13a3,3,0,0,0-3-3H31a1,1,0,0,1-1-1V5a1,1,0,0,0-1-1H25a1,1,0,0,0-1,1V9a1,1,0,0,1-1,1H20a3,3,0,0,0-3,3ZM27,5a2,2,0,1,1-2,2A2,2,0,0,1,27,5Z"></path><path d="M45,58a14,14,0,1,1,2-27.84V17a3,3,0,0,0-3-3H39v3a1,1,0,0,1-1,1H16a1,1,0,0,1-1-1V14H10a3,3,0,0,0-3,3V57a3,3,0,0,0,3,3H44a3,3,0,0,0,2.859-2.138A14.071,14.071,0,0,1,45,58ZM31,26h6v2H31Zm-6,0h4v2H25Zm0,4h8v2H25ZM23,46a2,2,0,0,1-2,2H15a2,2,0,0,1-2-2V40a2,2,0,0,1,2-2h6a2,2,0,0,1,2,2Zm0-19.586V32a2,2,0,0,1-2,2H15a2,2,0,0,1-2-2V26a2,2,0,0,1,2-2h6a1.985,1.985,0,0,1,1.187.4l1.106-1.106,1.414,1.414ZM29,46H25V44h4Zm0-4H25V40h4Z"></path><rect x="15" y="40" width="6.001" height="6"></rect><path d="M18.707,30.707a1,1,0,0,1-1.414,0l-2-2,1.414-1.414L18,28.586,20.586,26H15v6h6V28.413Z"></path><path d="M45,36a8,8,0,1,0,8,8A8.009,8.009,0,0,0,45,36Zm-5,9H38V43h2Zm5-2a2.993,2.993,0,0,1,1,5.816V50H44V48.816A3,3,0,0,1,42,46h2a1,1,0,1,0,1-1,2.993,2.993,0,0,1-1-5.816V38h2v1.184A3,3,0,0,1,48,42H46a1,1,0,1,0-1,1Zm5,2V43h2v2Z"></path><path d="M57,44A12,12,0,1,0,45,56,12.013,12.013,0,0,0,57,44ZM45,54A10,10,0,1,1,55,44,10.011,10.011,0,0,1,45,54Z"></path></svg>