<svg xmlns="http://www.w3.org/2000/svg" viewBox="0 0 64 64" x="0px" y="0px"><g><path d="M57,10H7a5.006,5.006,0,0,0-5,5V49a5.006,5.006,0,0,0,5,5H57a5.006,5.006,0,0,0,5-5V15A5.006,5.006,0,0,0,57,10Zm3,39a3,3,0,0,1-3,3H7a3,3,0,0,1-3-3V15a3,3,0,0,1,3-3H57a3,3,0,0,1,3,3Z"></path><path d="M57,14H7a1,1,0,0,0-1,1V49a1,1,0,0,0,1,1H57a1,1,0,0,0,1-1V15A1,1,0,0,0,57,14ZM8,16H31V48H8ZM56,48H33V16H56Z"></path><path d="M25.8,35.4l-6-8a1.036,1.036,0,0,0-1.6,0l-6,8A1,1,0,0,0,13,37h2v7a1,1,0,0,0,1,1h6a1,1,0,0,0,1-1V37h2a1,1,0,0,0,.8-1.6ZM22,35a1,1,0,0,0-1,1v7H17V36a1,1,0,0,0-1-1H15l4-5.333L23,35Z"></path><rect x="13" y="23" width="4" height="2"></rect><rect x="13" y="19" width="4" height="2"></rect><rect x="21" y="23" width="4" height="2"></rect><rect x="21" y="19" width="4" height="2"></rect><path d="M37,39.816V42h2V39.816a3,3,0,1,0-2,0ZM38,36a1,1,0,1,1-1,1A1,1,0,0,1,38,36Z"></path><path d="M50,23.816V26h2V23.816a3,3,0,1,0-2,0ZM51,20a1,1,0,1,1-1,1A1,1,0,0,1,51,20Z"></path><path d="M46,38h1a3,3,0,0,1,0,6H37v2H47a5,5,0,0,0,0-10H46a2,2,0,0,1,0-4h3a3,3,0,0,0,3-3V28H50v1a1,1,0,0,1-1,1H46a4,4,0,0,0,0,8Z"></path></g></svg>