<svg xmlns="http://www.w3.org/2000/svg" viewBox="0 0 64 64" x="0px" y="0px"><g data-name="Bull Arab-Dog"><polygon points="38 56 38 48 34.22 48 35.82 56 38 56"></polygon><path d="M8,20.586l7.293-7.293A1,1,0,0,1,16,13h3a1,1,0,0,1,.832.445l6,9A1.006,1.006,0,0,1,26,23v5h2V16H24a1,1,0,0,1-.707-.293l-6-6A1,1,0,0,1,17,9V4H16V5a1,1,0,0,1-.293.707L15,6.414V12a1,1,0,0,1-.293.707l-3,3A1,1,0,0,1,11,16H8Z"></path><path d="M13,6a1,1,0,0,1,.293-.707L14,4.586V4H8V14h2.586L13,11.586Zm-1,6H10V10h2Z"></path><path d="M31.01,11.142,30.133,5H30v8.664L32.5,17H34v-.723l-2.857-4.762A1.006,1.006,0,0,1,31.01,11.142Z"></path><path d="M56,40H53a1,1,0,0,1-.781-.375L50,36.85v4.615L52.3,43h3.42L60,40.434V34h-.382L56.9,39.447A1,1,0,0,1,56,40Z"></path><path d="M43.986,46.835,45.847,58H48V33.48L43.649,30H12V60h2.133L16.01,46.858A1,1,0,0,1,17,46h4a1,1,0,0,1,1,.929L22.931,60h2.138L26,46.929A1,1,0,0,1,27,46H43A1,1,0,0,1,43.986,46.835ZM16,44H14V42h2Zm1-5H15V37h2Zm0-7h2v2H17Zm3,10H18V40h2Zm4-5H22V35h2Zm3,6H25V41h2Zm0-9H25V32h2Zm3,0h2v2H30Zm3,6H31V38h2Zm5,0H36V38h2Zm0-5H36V33h2Zm4,3H40V36h2Zm0-5h2v2H42Z"></path><path d="M6,12.764V6.618l-1.87.935L4.98,11.8a.989.989,0,0,1-.031.512L4,15.162V16h.382Z"></path><path d="M8,25h4.764L16,23.382V21a1,1,0,0,1-.707-.293L13,18.414l-5,5Z"></path><path d="M8,28H24V27H20a1.006,1.006,0,0,1-.555-.168l-2.517-1.678L13.447,26.9A1,1,0,0,1,13,27H8Z"></path><path d="M24,25V23.3L20.845,18.57l-2.138,2.137A1,1,0,0,1,18,21v2.465L20.3,25Z"></path><polygon points="18.465 15 16.414 15 14.414 17 16.414 19 17.586 19 19.713 16.873 18.465 15"></polygon><path d="M24.414,14H28V4H19V8.586ZM23,10h2v2H23Z"></path></g></svg>