<svg xmlns="http://www.w3.org/2000/svg" viewBox="0 0 64 64" x="0px" y="0px"><g><path d="M52,22H48V5a3,3,0,0,0-3-3H19a3,3,0,0,0-3,3V22H12a2,2,0,0,0-2,2v4a2,2,0,0,0,2,2h1V59a3,3,0,0,0,3,3H48a3,3,0,0,0,3-3V30h1a2,2,0,0,0,2-2V24A2,2,0,0,0,52,22ZM38,4h2V6.764l-.1-.211a1.042,1.042,0,0,0-1.79,0l-.1.211ZM18,5a1,1,0,0,1,1-1H36v7a1,1,0,0,0,1.9.447L39,9.236l1.1,2.211A1,1,0,0,0,42,11V4h3a1,1,0,0,1,1,1V22H18ZM49,59a1,1,0,0,1-1,1H16a1,1,0,0,1-1-1V30H49Zm3-31H12V24H52Z"></path><rect x="22" y="6" width="2" height="2"></rect><rect x="26" y="6" width="4" height="2"></rect><rect x="22" y="10" width="8" height="2"></rect><rect x="22" y="14" width="14" height="2"></rect><rect x="38" y="14" width="4" height="2"></rect><rect x="22" y="18" width="20" height="2"></rect><path d="M30,56h4a1,1,0,0,0,1-1V35a1,1,0,0,0-1-1H30a1,1,0,0,0-1,1V55A1,1,0,0,0,30,56Zm1-20h2V54H31Z"></path><path d="M40,56h4a1,1,0,0,0,1-1V35a1,1,0,0,0-1-1H40a1,1,0,0,0-1,1V55A1,1,0,0,0,40,56Zm1-20h2V54H41Z"></path><path d="M20,56h4a1,1,0,0,0,1-1V35a1,1,0,0,0-1-1H20a1,1,0,0,0-1,1V55A1,1,0,0,0,20,56Zm1-20h2V54H21Z"></path></g></svg>