<svg xmlns="http://www.w3.org/2000/svg" viewBox="0 0 64 64" x="0px" y="0px"><g><rect x="10" y="47" width="2" height="2"></rect><rect x="14" y="47" width="10" height="2"></rect><path d="M49.521,37.894A4,4,0,1,0,44.7,44.269,2.994,2.994,0,0,1,45.916,46h2.167a2.945,2.945,0,0,1,1.19-1.714,4,4,0,0,0,.248-6.392ZM48,42.618V44H46V42.618L44.553,41.9l.894-1.79L47,40.882l1.553-.777.894,1.79Z"></path><path d="M4,12.371,25.836,22.853a4.985,4.985,0,0,0,4.328,0L52,12.371V10a1,1,0,0,0-1-1H5a1,1,0,0,0-1,1Z"></path><rect x="46" y="48" width="2" height="1"></rect><path d="M47,29A13,13,0,1,0,60,42,13.015,13.015,0,0,0,47,29Zm-1,2h2v2H46ZM39,42H37V40h2Zm.222-7.364,1.414-1.414,1.414,1.414L40.636,36.05ZM52,46v2H50v2a1,1,0,0,1-1,1H45a1,1,0,0,1-1-1V48H42V46h1.664a1.272,1.272,0,0,0-.11-.095,6,6,0,0,1,2.164-10.771,6,6,0,0,1,4.694,10.8c-.028.019-.04.049-.065.07Zm1.364-9.95L51.95,34.636l1.414-1.414,1.414,1.414ZM55,42V40h2v2Z"></path><path d="M5,41H32.051A14.941,14.941,0,0,1,52,27.875V14.589L31.029,24.655a6.966,6.966,0,0,1-6.058,0L4,14.589V40A1,1,0,0,0,5,41ZM6,30H8v2H6Zm0,4H8v2a1,1,0,0,0,1,1h2v2H9a3,3,0,0,1-3-3Z"></path></g></svg>