<svg xmlns="http://www.w3.org/2000/svg" viewBox="0 0 64 64" x="0px" y="0px"><g><path d="M60,52H59V19a5,5,0,0,0-5-5H51V5a1,1,0,0,0-1-1H42a1,1,0,0,0-1,1v9H10a5,5,0,0,0-5,5V52H4a2.006,2.006,0,0,0-2,2v3a5,5,0,0,0,5,5H57a5,5,0,0,0,5-5V54A2.006,2.006,0,0,0,60,52ZM51,16h3a3.009,3.009,0,0,1,3,3V52H55V20a2.006,2.006,0,0,0-2-2H51ZM43,6h6v4H43Zm1.43,33-.89-2h4.92l-.89,2Zm2.25,2L46,42.54,45.32,41ZM47,35V12h2V35ZM43,12h2V35H43ZM41.09,36.41l4,9a1,1,0,0,0,1.82,0l4-9A.978.978,0,0,0,51,36V20h2V52H11V20H41V36A.978.978,0,0,0,41.09,36.41ZM36,54v2H28V54ZM7,19a3.009,3.009,0,0,1,3-3H41v2H11a2.006,2.006,0,0,0-2,2V52H7ZM60,57a3.009,3.009,0,0,1-3,3H7a3.009,3.009,0,0,1-3-3V54H26v2a2.006,2.006,0,0,0,2,2h8a2.006,2.006,0,0,0,2-2V54H60Z"></path><path d="M16,36H32a1,1,0,0,0,1-1V25a1,1,0,0,0-1-1H16a1,1,0,0,0-1,1V35A1,1,0,0,0,16,36Zm1-10H31v8H17Z"></path><rect x="35" y="25" width="4" height="2"></rect><rect x="35" y="29" width="4" height="2"></rect><rect x="35" y="33" width="4" height="2"></rect><rect x="19" y="38" width="20" height="2"></rect><rect x="15" y="42" width="24" height="2"></rect><rect x="15" y="46" width="20" height="2"></rect><rect x="15" y="38" width="2" height="2"></rect><rect x="37" y="46" width="2" height="2"></rect></g></svg>