<svg xmlns="http://www.w3.org/2000/svg" viewBox="0 0 64 64" x="0px" y="0px"><path d="M50,54H14v2a4,4,0,0,0,4,4H46a4,4,0,0,0,4-4ZM33,58H31V56h2Z"></path><polygon points="25 35.38 31 38.38 31 30.69 25 28.44 25 35.38"></polygon><polygon points="33 38.38 39 35.38 39 28.44 33 30.69 33 38.38"></polygon><path d="M50,12H14V52H50ZM18,19a1,1,0,0,1,1-1h6v2H20v5H18Zm7,27H19a1,1,0,0,1-1-1V39h2v5h5Zm7-5a1.03,1.03,0,0,1-.45-.11l-8-4A.988.988,0,0,1,23,36V27a1.007,1.007,0,0,1,.65-.94l8-3a1.051,1.051,0,0,1,.7,0l8,3A1.007,1.007,0,0,1,41,27v9a.988.988,0,0,1-.55.89l-8,4A1.03,1.03,0,0,1,32,41Zm14,4a1,1,0,0,1-1,1H39V44h5V39h2Zm0-20H44V20H39V18h6a1,1,0,0,1,1,1Z"></path><path d="M50,8a4,4,0,0,0-4-4H18a4,4,0,0,0-4,4v2H50ZM27,8H25V6h2Zm8,0H29V6h6Z"></path><polygon points="32 25.07 26.85 27 32 28.93 37.15 27 32 25.07"></polygon></svg>