<svg xmlns="http://www.w3.org/2000/svg" viewBox="0 0 64 64" x="0px" y="0px"><g><rect x="17" y="38" width="2" height="7"></rect><path d="M22,4H45V9a3,3,0,0,0,3,3h5V32h2V11a1,1,0,0,0-.293-.707l-8-8A1,1,0,0,0,46,2H22a5,5,0,0,0-4.842,3.751l1.936.5A3,3,0,0,1,22,4ZM47,9V5.414L51.586,10H48A1,1,0,0,1,47,9Z"></path><path d="M59,34H45a3.009,3.009,0,0,0-3,3V59a3.009,3.009,0,0,0,3,3H59a3.009,3.009,0,0,0,3-3V37A3.009,3.009,0,0,0,59,34Zm1,25a1,1,0,0,1-1,1H45a1,1,0,0,1-1-1V37a1,1,0,0,1,1-1H59a1,1,0,0,1,1,1Z"></path><path d="M57,46H47a1,1,0,0,0-1,1V57a1,1,0,0,0,1,1H57a1,1,0,0,0,1-1V47A1,1,0,0,0,57,46Zm-1,5H53V48h3Zm-5-3v3H48V48Zm-3,5h3v3H48Zm5,3V53h3v3Z"></path><path d="M57,38H47a1,1,0,0,0-1,1v4a1,1,0,0,0,1,1H57a1,1,0,0,0,1-1V39A1,1,0,0,0,57,38Zm-1,4H48V40h8Z"></path><path d="M2.858,24.99l2.682.383a10.96,10.96,0,0,0,.678,1.639L4.594,29.178a1,1,0,0,0,.093,1.307l2.828,2.828a1,1,0,0,0,1.307.093l2.166-1.624a10.96,10.96,0,0,0,1.639.678l.383,2.682A1,1,0,0,0,14,36h4a1,1,0,0,0,.99-.858l.383-2.682a10.96,10.96,0,0,0,1.639-.678l2.166,1.624a1,1,0,0,0,1.307-.093l2.828-2.828a1,1,0,0,0,.093-1.307l-1.624-2.166a10.96,10.96,0,0,0,.678-1.639l2.682-.383A1,1,0,0,0,30,24V20a1,1,0,0,0-.858-.99l-2.682-.383a10.96,10.96,0,0,0-.678-1.639l1.624-2.166a1,1,0,0,0-.093-1.307l-2.828-2.828a1,1,0,0,0-1.307-.093l-2.166,1.624a10.96,10.96,0,0,0-1.639-.678L18.99,8.858A1,1,0,0,0,18,8H14a1,1,0,0,0-.99.858l-.383,2.682a10.96,10.96,0,0,0-1.639.678L8.822,10.594a1,1,0,0,0-1.307.093L4.687,13.515a1,1,0,0,0-.093,1.307l1.624,2.166a10.96,10.96,0,0,0-.678,1.639l-2.682.383A1,1,0,0,0,2,20v4A1,1,0,0,0,2.858,24.99ZM4,20.867l2.463-.352a1,1,0,0,0,.828-.743,8.892,8.892,0,0,1,.975-2.356,1,1,0,0,0-.06-1.111l-1.492-1.99,1.6-1.6,1.99,1.492a1,1,0,0,0,1.111.06,8.892,8.892,0,0,1,2.356-.975,1,1,0,0,0,.743-.828L14.867,10h2.266l.352,2.463a1,1,0,0,0,.743.828,8.892,8.892,0,0,1,2.356.975,1,1,0,0,0,1.111-.06l1.99-1.492,1.6,1.6-1.492,1.99a1,1,0,0,0-.06,1.111,8.892,8.892,0,0,1,.975,2.356,1,1,0,0,0,.828.743L28,20.867v2.266l-2.463.352a1,1,0,0,0-.828.743,8.892,8.892,0,0,1-.975,2.356,1,1,0,0,0,.06,1.111l1.492,1.99-1.6,1.6L21.7,29.794a1,1,0,0,0-1.111-.06,8.892,8.892,0,0,1-2.356.975,1,1,0,0,0-.743.828L17.133,34H14.867l-.352-2.463a1,1,0,0,0-.743-.828,8.892,8.892,0,0,1-2.356-.975,1,1,0,0,0-1.111.06l-1.99,1.492-1.6-1.6L8.206,27.7a1,1,0,0,0,.06-1.111,8.892,8.892,0,0,1-.975-2.356,1,1,0,0,0-.828-.743L4,23.133Z"></path><path d="M16,28a6,6,0,1,0-6-6A6.006,6.006,0,0,0,16,28Zm0-10a4,4,0,1,1-4,4A4,4,0,0,1,16,18Z"></path><path d="M39.406,51.086l-9-4A1,1,0,0,0,30,47H7A5,5,0,0,0,7,57H30a1,1,0,0,0,.406-.086l9-4a1,1,0,0,0,0-1.828ZM29,51H14V49H29ZM12,55H10V49h2Zm2-2H29v2H14Zm17-3.461,2,.889v3.144l-2,.889ZM4,52a3,3,0,0,1,3-3H8v6H7A3,3,0,0,1,4,52Zm31,.683V51.317L36.538,52Z"></path><rect x="12" y="38" width="2" height="2"></rect><rect x="12" y="42" width="2" height="2"></rect><rect x="33" y="16" width="2" height="2"></rect><rect x="37" y="16" width="12" height="2"></rect><rect x="33" y="20" width="16" height="2"></rect><rect x="33" y="24" width="16" height="2"></rect><rect x="23" y="36" width="14" height="2"></rect><rect x="23" y="40" width="14" height="2"></rect></g></svg>