<svg xmlns="http://www.w3.org/2000/svg" viewBox="0 0 64 64" x="0px" y="0px"><g><path d="M61.5,38.13,57,35.56V28a3.009,3.009,0,0,0-3-3H44a2.006,2.006,0,0,0-2,2V41H40V30a1,1,0,0,0-1-1H34V18a1,1,0,0,0-1-1H9a1,1,0,0,0-1,1V29H3a1,1,0,0,0-1,1V50a1,1,0,0,0,1,1H6.1a4.988,4.988,0,0,0,9.4,1.14A4.988,4.988,0,0,0,24.9,51H48.1a5,5,0,0,0,9.8,0H61a1,1,0,0,0,1-1V39A1,1,0,0,0,61.5,38.13ZM36,31h2v2H36Zm-1.71,5.71A1.007,1.007,0,0,0,35,37a.838.838,0,0,0,.38-.08A.987.987,0,0,0,36,36V35h2v6H28V35h2v1a.987.987,0,0,0,.62.92,1,1,0,0,0,1.09-.21L33,35.41ZM28,33V31h2v2Zm6-2v2.59l-.29-.3a1.014,1.014,0,0,0-1.42,0l-.29.3V31ZM30,19h2v2H30Zm-4,0h2v2.59l-.29-.3a1.014,1.014,0,0,0-1.42,0l-.29.3Zm-4,0h2v2H22Zm0,4h2v1a.987.987,0,0,0,.62.92,1,1,0,0,0,1.09-.21L27,23.41l1.29,1.3A1.007,1.007,0,0,0,29,25a.838.838,0,0,0,.38-.08A.987.987,0,0,0,30,24V23h2v6H22ZM18,35v1a.987.987,0,0,0,.62.92,1,1,0,0,0,1.09-.21L21,35.41l1.29,1.3A1.007,1.007,0,0,0,23,37a.838.838,0,0,0,.38-.08A.987.987,0,0,0,24,36V35h2v6H16V35Zm-2-2V31h2v2Zm8,0V31h2v2Zm-2-2v2.59l-.29-.3a1.014,1.014,0,0,0-1.42,0l-.29.3V31ZM18,19h2v2H18Zm-4,0h2v2.59l-.29-.3a1.014,1.014,0,0,0-1.42,0l-.29.3Zm-4,0h2v2H10Zm0,4h2v1a.987.987,0,0,0,.62.92,1,1,0,0,0,1.09-.21L15,23.41l1.29,1.3A1.007,1.007,0,0,0,17,25a.838.838,0,0,0,.38-.08A.987.987,0,0,0,18,24V23h2v6H10Zm4,8v2H12V31ZM8,31h2v2.59l-.29-.3a1.014,1.014,0,0,0-1.42,0l-.29.3ZM4,31H6v2H4Zm0,4H6v1a.987.987,0,0,0,.62.92,1,1,0,0,0,1.09-.21L9,35.41l1.29,1.3A1.007,1.007,0,0,0,11,37a.838.838,0,0,0,.38-.08A.987.987,0,0,0,12,36V35h2v6H4Zm7,18a3,3,0,1,1,3-3A3.009,3.009,0,0,1,11,53Zm9,0a3,3,0,1,1,3-3A3.009,3.009,0,0,1,20,53Zm22-4H24.9a4.988,4.988,0,0,0-9.4-1.14A4.988,4.988,0,0,0,6.1,49H4V43H42Zm9-22h3a1,1,0,0,1,1,1v7H51Zm2,26a3,3,0,1,1,3-3A3.009,3.009,0,0,1,53,53Zm7-9H58V42h2Zm0-4H57a1,1,0,0,0-1,1v4a1,1,0,0,0,1,1h3v3H57.9a5,5,0,0,0-9.8,0H44V27h5v9a1,1,0,0,0,1,1h5.49a.01.01,0,0,1,.01.01L60,39.58Z"></path><rect x="50" y="39" width="4" height="2"></rect><polygon points="11 55 2 55 2 57 62 57 62 55 53 55 20 55 11 55"></polygon><rect x="20" y="13" width="12" height="2"></rect><rect x="16" y="9" width="12" height="2"></rect><rect x="12" y="9" width="2" height="2"></rect><rect x="52" y="49" width="2" height="2"></rect><rect x="19" y="49" width="2" height="2"></rect><rect x="10" y="49" width="2" height="2"></rect></g></svg>