<svg xmlns="http://www.w3.org/2000/svg" viewBox="0 0 64 64" x="0px" y="0px"><g data-name="Money-Envelope"><rect x="17" y="8" width="30" height="2"></rect><path d="M46.17,56H17.85a1.044,1.044,0,0,0-.722.3L13.417,60H50.586l-3.7-3.7A1,1,0,0,0,46.17,56Z"></path><path d="M24,50H40V40H24Zm2-8H38v2H26Zm0,4H38v2H26Z"></path><circle cx="32" cy="33" r="1"></circle><path d="M52,26l-1.2,1.6a1,1,0,0,1-.8.4H14a1,1,0,0,1-.8-.4L12,26V58.588l3.724-3.716A3.027,3.027,0,0,1,17.85,54H46.17a2.987,2.987,0,0,1,2.127.883l3.7,3.7ZM32,30a3,3,0,1,1-3,3A3,3,0,0,1,32,30ZM42,51a1,1,0,0,1-1,1H23a1,1,0,0,1-1-1V39a1,1,0,0,1,1-1H41a1,1,0,0,1,1,1Z"></path><rect x="17" y="4" width="30" height="2"></rect><polygon points="15 26 15 24 13 24 14.5 26 15 26"></polygon><circle cx="32" cy="19" r="3"></circle><path d="M47,12H17V26H47ZM23,24H20a1,1,0,0,1-1-1V20h2v2h2Zm0-8H21v2H19V15a1,1,0,0,1,1-1h3Zm9,8a5,5,0,1,1,5-5A5.006,5.006,0,0,1,32,24Zm14-1a1,1,0,0,1-1,1H42V22h2V20h2Zm0-5H44V16H42V14h3a1,1,0,0,1,1,1Z"></path><polygon points="49 24 49 26 49.5 26 51 24 49 24"></polygon></g></svg>