<svg xmlns="http://www.w3.org/2000/svg" viewBox="0 0 64 64" x="0px" y="0px"><g><circle cx="32" cy="34" r="1"></circle><path d="M31,42H23a5.006,5.006,0,0,1-5-5V20H8V50H28a4.948,4.948,0,0,1,3,1.026Z"></path><circle cx="32" cy="27" r="1"></circle><path d="M30.816,54A3,3,0,0,0,28,52H8v6H31V56H12V54Z"></path><circle cx="25" cy="27" r="1"></circle><circle cx="25" cy="34" r="1"></circle><rect x="24" y="13" width="16.001" height="6"></rect><circle cx="39" cy="34" r="1"></circle><path d="M56,20H46V37a5.006,5.006,0,0,1-5,5H33v9.026A4.948,4.948,0,0,1,36,50H56Z"></path><circle cx="39" cy="27" r="1"></circle><path d="M56,52H36a3,3,0,0,0-2.816,2H52v2H33v2H56Z"></path><rect x="4" y="24" width="2" height="34"></rect><path d="M44,37V11a3,3,0,0,0-3-3H23a3,3,0,0,0-3,3V37a3,3,0,0,0,3,3H41A3,3,0,0,0,44,37ZM22,13a2,2,0,0,1,2-2H40a2,2,0,0,1,2,2v6a2,2,0,0,1-2,2H24a2,2,0,0,1-2-2ZM42,27a3,3,0,1,1-3-3A3,3,0,0,1,42,27ZM25,37a3,3,0,1,1,3-3A3,3,0,0,1,25,37Zm0-7a3,3,0,1,1,3-3A3,3,0,0,1,25,30Zm7,7a3,3,0,1,1,3-3A3,3,0,0,1,32,37Zm0-7a3,3,0,1,1,3-3A3,3,0,0,1,32,30Zm4,4a3,3,0,1,1,3,3A3,3,0,0,1,36,34Z"></path><rect x="58" y="24" width="2" height="34"></rect></g></svg>