<svg xmlns="http://www.w3.org/2000/svg" viewBox="0 0 64 64" x="0px" y="0px"><g><path d="M13.474,37.428a4.968,4.968,0,0,0,3.036,2.33,5.042,5.042,0,0,0,1.3.173,4.979,4.979,0,0,0,2.492-.672l39.837-23a3.005,3.005,0,0,0,1.1-4.1l-1-1.732A9.009,9.009,0,0,0,47.945,7.134l-9.937,5.737L20.957,4.741a1,1,0,0,0-.931.036l-7.794,4.5a1,1,0,0,0-.05,1.7l13.576,8.964-6.582,3.8-8.055-8.331A1,1,0,0,0,9.9,15.241l-6.062,3.5a1,1,0,0,0-.366,1.366ZM14.634,10.2l5.937-3.428,15.335,7.313L27.7,18.825Zm-4.407,7.164L18.281,25.7a1,1,0,0,0,1.219.171l29.445-17a7.009,7.009,0,0,1,9.562,2.562l1,1.732a1,1,0,0,1-.366,1.366l-39.837,23a3,3,0,0,1-4.1-1.1l-9.5-16.454Z"></path><rect x="49.311" y="9.964" width="4" height="2" transform="translate(1.391 27.12) rotate(-29.995)"></rect><rect x="45.98" y="12.464" width="2" height="2" transform="translate(-0.439 25.29) rotate(-29.995)"></rect><rect x="42.516" y="14.464" width="2" height="2" transform="translate(-1.903 23.826) rotate(-29.995)"></rect><rect x="39.053" y="16.464" width="2" height="2" transform="translate(-3.366 22.362) rotate(-29.995)"></rect><rect x="35.589" y="18.464" width="1.999" height="2" transform="translate(-4.83 20.898) rotate(-29.995)"></rect><rect x="32.125" y="20.464" width="1.999" height="2" transform="translate(-6.294 19.434) rotate(-29.995)"></rect><rect x="28.66" y="22.464" width="2" height="2" transform="translate(-7.758 17.97) rotate(-29.995)"></rect><rect x="25.196" y="24.464" width="2" height="2" transform="translate(-9.221 16.506) rotate(-29.995)"></rect><rect x="2" y="58" width="60" height="2"></rect><path d="M55,31H53A21.024,21.024,0,0,1,32,52H8v2H32A23.025,23.025,0,0,0,55,31Z"></path><path d="M49,31H47A15.017,15.017,0,0,1,32,46H4v2H32A17.019,17.019,0,0,0,49,31Z"></path></g></svg>