<svg xmlns="http://www.w3.org/2000/svg" viewBox="0 0 64 64" x="0px" y="0px"><g data-name="Pencil Case-Design Tools-Art-Design-Editor"><rect x="9" y="17" width="2" height="19"></rect><rect x="13" y="17" width="2" height="19"></rect><polygon points="20.16 14.09 21.62 17 26.38 17 27.84 14.09 25 10.12 25 14 23 14 23 10.12 20.16 14.09"></polygon><rect x="9" y="38" width="6" height="4"></rect><path d="M22,54H42a1,1,0,0,0,0-2H22a1,1,0,0,0,0,2Z"></path><rect x="17" y="38" width="3" height="4"></rect><path d="M4,59a1,1,0,0,0,1,1H59a1,1,0,0,0,1-1V44H42.62l-.73,1.45A.988.988,0,0,1,41,46H23a.988.988,0,0,1-.89-.55L21.38,44H4Zm18-9H42a3,3,0,0,1,0,6H22a3,3,0,0,1,0-6Z"></path><polygon points="11.32 11 12.68 11 12 9.46 11.32 11"></polygon><path d="M28,20a1,1,0,0,0-1-1H21a1,1,0,0,0,0,2h6A1,1,0,0,0,28,20Z"></path><polygon points="9.54 15 14.46 15 13.57 13 10.43 13 9.54 15"></polygon><polygon points="5.63 42 7 42 7 40.79 5.63 42"></polygon><rect x="37" y="22" width="2" height="12"></rect><rect x="37" y="36" width="2" height="8"></rect><polygon points="33 36.5 35 38 35 22 33 22 33 36.5"></polygon><polygon points="49 38 49 42 55 42 55 8 49 8 49 12 53 12 53 14 49 14 49 16 51 16 51 18 49 18 49 20 51 20 51 22 49 22 49 24 53 24 53 26 49 26 49 28 51 28 51 30 49 30 49 32 51 32 51 34 49 34 49 36 53 36 53 38 49 38"></polygon><polygon points="57 42 58.37 42 57 40.79 57 42"></polygon><path d="M47,38v4H42a.988.988,0,0,0-.89.55l-.11.21V40.5L44.33,38Z"></path><polygon points="35 40.5 35 44 28 44 28 38 31.67 38 35 40.5"></polygon><path d="M22.89,42.55,23.62,44H26V23H22V42A.988.988,0,0,1,22.89,42.55Z"></path><polygon points="41 22 41 38 43 36.5 43 22 41 22"></polygon><rect x="33" y="18" width="10" height="2"></rect><path d="M39,10.185V8H37v2.185a3,3,0,1,0,2,0ZM39,14H37V12h2Z"></path></g></svg>