<svg xmlns="http://www.w3.org/2000/svg" viewBox="0 0 64 64" x="0px" y="0px"><g><path d="M38,34V31a5.006,5.006,0,0,0-5-5H31a5.006,5.006,0,0,0-5,5v3a6,6,0,0,0,12,0Zm-7-6h2a3,3,0,0,1,3,3H34.236A2.6,2.6,0,0,1,31.9,29.553a1.042,1.042,0,0,0-1.79,0l-.447.894a.994.994,0,0,1-.894.553H28A3,3,0,0,1,31,28Zm1,10a4,4,0,0,1-4-4V33h.764a2.98,2.98,0,0,0,2.385-1.179A4.594,4.594,0,0,0,34.236,33H36v1A4,4,0,0,1,32,38Z"></path><path d="M35,40H29a7.008,7.008,0,0,0-7,7V60a2,2,0,0,0,2,2H40a2,2,0,0,0,2-2V47A7.009,7.009,0,0,0,35,40Zm-1.517,2L32,45.461,30.517,42ZM24,47a4.99,4.99,0,0,1,4.368-4.936L31,48.2V60H24ZM40,60H33V48.2l2.632-6.14A4.99,4.99,0,0,1,40,47Z"></path><rect x="36" y="47" width="2" height="2"></rect><path d="M26,17V5a3,3,0,0,0-3-3H5A3,3,0,0,0,2,5V17a3,3,0,0,0,3,3h8.586l5.707,5.707A1,1,0,0,0,20,26a.987.987,0,0,0,.383-.076A1,1,0,0,0,21,25V20h2A3,3,0,0,0,26,17Zm-6,1a1,1,0,0,0-1,1v3.586l-4.293-4.293A1,1,0,0,0,14,18H5a1,1,0,0,1-1-1V5A1,1,0,0,1,5,4H23a1,1,0,0,1,1,1V17a1,1,0,0,1-1,1Z"></path><path d="M58,7H38a3,3,0,0,0-3,3V22a3,3,0,0,0,3,3h3v5a1,1,0,0,0,.617.924A.987.987,0,0,0,42,31a1,1,0,0,0,.707-.293L48.414,25H58a3,3,0,0,0,3-3V10A3,3,0,0,0,58,7Zm1,15a1,1,0,0,1-1,1H48a1,1,0,0,0-.707.293L43,27.586V24a1,1,0,0,0-1-1H38a1,1,0,0,1-1-1V10a1,1,0,0,1,1-1H58a1,1,0,0,1,1,1Z"></path><rect x="47" y="15" width="2" height="2"></rect><rect x="51" y="15" width="2" height="2"></rect><rect x="43" y="15" width="2" height="2"></rect><rect x="7" y="8" width="2" height="2"></rect><rect x="11" y="8" width="10" height="2"></rect><rect x="7" y="12" width="14" height="2"></rect></g></svg>