<svg xmlns="http://www.w3.org/2000/svg" viewBox="0 0 64 64" x="0px" y="0px"><g><path d="M29.618,31H33a1,1,0,0,0,.9-.553l.52-1.04.636,1.909A1,1,0,0,0,36,32h2a1,1,0,0,0,.949-.684l.636-1.909.52,1.04A1,1,0,0,0,41,31h3.382a2,2,0,0,0,1.789-2.895L43.9,23.553A1,1,0,0,0,43,23H42V20.379a10.724,10.724,0,0,0-1.873-6.142q-3.128-4.516-6.254,0A10.724,10.724,0,0,0,32,20.379V23H31a1,1,0,0,0-.895.553l-2.276,4.552A2,2,0,0,0,29.618,31Zm7.1-1-.334-1h1.226l-.334,1Zm5.661-5,2,4H41.618l-.087-.174A.982.982,0,0,0,42,28V25ZM34,20.379a8.734,8.734,0,0,1,1.518-5C36.27,14.29,36.8,14,37,14s.73.29,1.482,1.376a8.734,8.734,0,0,1,1.518,5V27H38V22H36v5H34ZM31.618,25H32v3a.982.982,0,0,0,.469.826L32.382,29H29.618Z"></path><path d="M37,19.118l1.553.777.894-1.79-2-1a1,1,0,0,0-.894,0l-2,1,.894,1.79Z"></path><path d="M39,33v2a1,1,0,0,1,0,2,1,1,0,0,0-1,1,1,1,0,0,1-2,0,1,1,0,0,0-1-1,1,1,0,0,1,0-2V33a3,3,0,0,0-.871,5.871,3,3,0,0,0,5.742,0A3,3,0,0,0,39,33Z"></path><path d="M22,46H52a3,3,0,0,0,3-3V9a3,3,0,0,0-3-3H22a3,3,0,0,0-3,3V43A3,3,0,0,0,22,46ZM21,9a1,1,0,0,1,1-1H52a1,1,0,0,1,1,1V43a1,1,0,0,1-1,1H22a1,1,0,0,1-1-1Z"></path><path d="M58,2H12A7.008,7.008,0,0,0,5,9V55a7.008,7.008,0,0,0,7,7H58a1,1,0,0,0,1-1V3A1,1,0,0,0,58,2ZM57,48H17V4H57ZM13,4h2V48H13ZM7,9a5.009,5.009,0,0,1,4-4.9V17.08a6.975,6.975,0,0,0-4,2.031ZM7,24a5.009,5.009,0,0,1,4-4.9V34.08a6.975,6.975,0,0,0-4,2.031Zm4,12.1V48.08a6.988,6.988,0,0,0-4,2.025V41A5.009,5.009,0,0,1,11,36.1ZM12,60a5,5,0,0,1,0-10H57v2H13a3,3,0,0,0,0,6H57v2Zm45-6v2H13a1,1,0,0,1,0-2Z"></path></g></svg>