<svg xmlns="http://www.w3.org/2000/svg" data-name="Program Editor" viewBox="0 0 64 64" x="0px" y="0px"><path d="M54,52H53V50h1a5.006,5.006,0,0,0,5-5V42a5.006,5.006,0,0,0-5-5H46a5,5,0,0,1,0-10H56a3,3,0,0,0,0-6H38V19H56a5,5,0,0,1,0,10H46a3,3,0,0,0,0,6h8a7.009,7.009,0,0,1,7,7v3A7.009,7.009,0,0,1,54,52Z"></path><path d="M5,60H47a1,1,0,0,0,1-1V48a1,1,0,0,0-1-1H5a1,1,0,0,0-1,1V59A1,1,0,0,0,5,60Zm35-1H12V57H40Zm2-2h2V54h2v4a1,1,0,0,1-1,1H42Zm-3-8h2v2H39Zm0,4h2v2H39Zm-4-4h2v2H35Zm0,4h2v2H35Zm-4-4h2v2H31Zm0,4h2v2H31Zm-4-4h2v2H27Zm0,4h2v2H27Zm-4-4h2v2H23Zm0,4h2v2H23Zm-4-4h2v2H19Zm0,4h2v2H19Zm-4-4h2v2H15Zm0,4h2v2H15Zm-4-4h2v2H11Zm0,4h2v2H11ZM7,49H9v2H7Zm0,4H9v2H7ZM6,57h4v2H6Z"></path><rect x="50" y="50" width="1" height="2"></rect><path d="M26.845,9.4a1,1,0,0,1-1.081.078,11.825,11.825,0,0,0-2.4-.988,1,1,0,0,1-.71-.818L22.133,4H17.867l-.523,3.67a1,1,0,0,1-.71.818,11.825,11.825,0,0,0-2.4.988A1,1,0,0,1,13.155,9.4l-2.961-2.22L7.178,10.194,9.4,13.155a1,1,0,0,1,.078,1.081,11.825,11.825,0,0,0-.988,2.4,1,1,0,0,1-.818.71L4,17.867v4.266l3.67.523a1,1,0,0,1,.818.71,11.9,11.9,0,0,0,.987,2.4A1,1,0,0,1,9.4,26.845l-2.22,2.961,3.016,3.016,2.961-2.22a1,1,0,0,1,1.081-.077,11.9,11.9,0,0,0,2.4.987,1,1,0,0,1,.71.818L17.867,36h4.266l.523-3.67a1,1,0,0,1,.71-.818,11.9,11.9,0,0,0,2.4-.987,1,1,0,0,1,1.081.077l2.961,2.22,3.016-3.016L30.6,26.845a1,1,0,0,1-.077-1.081,11.9,11.9,0,0,0,.987-2.4,1,1,0,0,1,.818-.71L36,22.133V17.867l-3.67-.523a1,1,0,0,1-.818-.71,11.825,11.825,0,0,0-.988-2.4,1,1,0,0,1,.078-1.081l2.22-2.961L29.806,7.178ZM8,21H6V19H8ZM9.394,10.808l1.414-1.414,1.414,1.414-1.414,1.414Zm1.414,19.8L9.394,29.192l1.414-1.414,1.414,1.414Zm3.9-8.313-1.414,1.414-3-3a1,1,0,0,1,0-1.414l3-3,1.414,1.414L12.414,20ZM19,6h2V8H19Zm2,28H19V32h2Zm-2.071-8.629-1.858-.742,4-10,1.858.742ZM32,19h2v2H32Zm-5.293,4.707-1.414-1.414L27.586,20l-2.293-2.293,1.414-1.414,3,3a1,1,0,0,1,0,1.414Zm3.9,5.485-1.414,1.414-1.414-1.414,1.414-1.414Zm-1.414-16.97-1.414-1.414,1.414-1.414,1.414,1.414Z"></path></svg>