<svg xmlns="http://www.w3.org/2000/svg" viewBox="0 0 64 64" x="0px" y="0px"><g><circle cx="38" cy="59" r="2"></circle><circle cx="11" cy="59" r="2"></circle><path d="M51,6h8a1,1,0,0,0,0-2H51a1,1,0,0,0,0,2Z"></path><circle cx="21" cy="14" r="1"></circle><path d="M35.08,20.01l.92-.6.63-.41,1.54-1-3.09-2.01a.988.988,0,0,1-.34-1.29l1.66-3.28-3.67-.2a1,1,0,0,1-.95-.95l-.2-3.67L28.3,8.26a1,1,0,0,1-1.29-.34L25,4.83,22.99,7.92a.985.985,0,0,1-1.29.34L18.42,6.6l-.2,3.67a1,1,0,0,1-.95.95l-3.67.2,1.66,3.28a.988.988,0,0,1-.34,1.29L11.83,18l1.54,1,.63.41.92.6a.988.988,0,0,1,.34,1.29L13.6,24.58l3.67.2a1,1,0,0,1,.95.95l.2,3.67,3.28-1.66a.908.908,0,0,1,.45-.11,1,1,0,0,1,.84.45L25,31.17l2.01-3.09a1.009,1.009,0,0,1,1.29-.34l3.28,1.66.2-3.67a1,1,0,0,1,.95-.95l3.67-.2L34.74,21.3A.988.988,0,0,1,35.08,20.01ZM18,14a3,3,0,1,1,3,3A3.009,3.009,0,0,1,18,14Zm2.71,9.71-1.42-1.42,10-10,1.42,1.42ZM29,25a3,3,0,1,1,3-3A3.009,3.009,0,0,1,29,25Z"></path><circle cx="29" cy="22" r="1"></circle><rect x="16" y="41" width="4" height="4"></rect><polygon points="14 35 6.903 35 7.672 39 14 39 14 35"></polygon><polygon points="14 45 14 41 8.057 41 8.826 45 14 45"></polygon><rect x="28" y="41" width="4" height="4"></rect><rect x="22" y="41" width="4" height="4"></rect><rect x="34" y="41" width="4" height="4"></rect><path d="M48,4V6H46.62L46,7.24V50a1,1,0,0,1-1,1H7a1,1,0,0,0,0,2H45v2H7a3,3,0,0,1,0-6H44V45H40V41h4V39H40V35h4V33H40V32H38v1H35v2h3v4H34V35H32v4H28V36H26v3H22V34H20v5H16V34a1,1,0,0,0-1-1H6.52L4.21,21h8.56l.3.2-1.95,3.85a.974.974,0,0,0,.02.95,1.024,1.024,0,0,0,.82.5l4.31.23.23,4.31a1,1,0,0,0,.5.82.974.974,0,0,0,.95.02l3.85-1.95,2.36,3.62a1.009,1.009,0,0,0,1.68,0l2.36-3.62,3.85,1.95a.974.974,0,0,0,.95-.02,1.024,1.024,0,0,0,.5-.82l.23-4.31,4.31-.23a1,1,0,0,0,.82-.5.974.974,0,0,0,.02-.95L36.93,21.2l.31-.2H44V7a1,1,0,0,1,.11-.45l1-2A.988.988,0,0,1,46,4Z"></path></g></svg>