<svg xmlns="http://www.w3.org/2000/svg" viewBox="0 0 64 64" x="0px" y="0px"><g><rect x="37" y="38" width="2" height="4"></rect><rect x="37" y="44" width="2" height="4"></rect><rect x="29" y="42" width="2" height="2"></rect><rect x="29" y="46" width="2" height="2"></rect><path d="M57,54H54v6h3a3,3,0,0,0,0-6Z"></path><path d="M60,13a3,3,0,0,0-3-3H12V45a1,1,0,0,1-1,1H7a3,3,0,0,0,0,6H57a4.948,4.948,0,0,1,3,1.026ZM38,17h6v2H38Zm-6,0h4v2H32Zm0,4H44v2H32Zm5.586,8H36V27h4a1,1,0,0,1,1,1v4H39V30.414l-7.293,7.293-1.414-1.414ZM20,20h2a1,1,0,0,0,1,1h2a1,1,0,0,0,0-2H23a3,3,0,0,1,0-6V12h2v1a3,3,0,0,1,3,3H26a1,1,0,0,0-1-1H23a1,1,0,0,0,0,2h2a3,3,0,0,1,0,6v1H23V23A3,3,0,0,1,20,20ZM52,50H24a1,1,0,0,1-1-1V27h2V48h2V41a1,1,0,0,1,1-1h4a1,1,0,0,1,1,1v7h2V37a1,1,0,0,1,1-1h4a1,1,0,0,1,1,1V48h2V31a1,1,0,0,1,1-1h4a1,1,0,0,1,1,1V48h3Z"></path><rect x="45" y="41" width="2" height="7"></rect><path d="M4,45a4.98,4.98,0,0,1,3-1h3V4H7A3,3,0,0,0,4,7Z"></path><rect x="45" y="32" width="2" height="7"></rect></g></svg>