<svg xmlns="http://www.w3.org/2000/svg" viewBox="0 0 64 64" x="0px" y="0px"><g data-name="Web Promotion"><path d="M34,40H32.816A3,3,0,0,0,32,38.78V36h2a1,1,0,0,0,1-1V29a1,1,0,0,0-1-1V26h2V24H34V19a7,7,0,0,0-14,0v5H18v2h2v2a1,1,0,0,0-1,1v6a1,1,0,0,0,1,1h2v2H21a1,1,0,0,0-.447.1L18,39.382V39a1,1,0,0,0-1-1H9a1,1,0,0,0-1,1v2H3a1,1,0,0,0-1,1V56a1,1,0,0,0,1,1H8v1a1,1,0,0,0,1,1h8a1,1,0,0,0,1-1h4.1a5,5,0,0,0,9.8,0H34a3,3,0,0,0,3-3V43A3,3,0,0,0,34,40ZM4,55V43H8V55Zm31-7H29a1,1,0,0,1,0-2h6Zm-8.22-3c-.042.047-.081.1-.12.146.023-.071.041-.144.062-.216C26.742,44.953,26.76,44.977,26.78,45ZM28,51a1,1,0,0,1,1-1h6v2H29A1,1,0,0,1,28,51Zm7-8v1H30a3,3,0,0,0,2.816-2H34A1,1,0,0,1,35,43ZM22,22h2V20H22V19a5,5,0,0,1,.1-1H24V16h-.974a4.948,4.948,0,0,1,7.948,0H30v2h1.9a5,5,0,0,1,.1,1v1H30v2h2v2H22Zm0,4H32v2H22Zm-1,4H33v4H21Zm3,6h6v2H24ZM10,57V40h6V57Zm8-15.382L21.236,40H30a1,1,0,0,1,0,2H26a1,1,0,0,0-1,1,5.006,5.006,0,0,1-5,5v2a6.956,6.956,0,0,0,2-.3V56H18ZM27,60a3,3,0,0,1-3-3V48.736a7.048,7.048,0,0,0,2.05-2.228A2.849,2.849,0,0,0,26.78,49a2.954,2.954,0,0,0,0,4A2.987,2.987,0,0,0,29,58h.816A3,3,0,0,1,27,60Zm8-5a1,1,0,0,1-1,1H29a1,1,0,0,1,0-2h6Z"></path><rect x="6" y="16" width="10" height="2"></rect><rect x="2" y="16" width="2" height="2"></rect><rect x="10" y="22" width="6" height="2"></rect><rect x="6" y="22" width="2" height="2"></rect><rect x="12" y="28" width="4" height="2"></rect><rect x="8" y="28" width="2" height="2"></rect><rect x="26" y="16" width="2" height="2"></rect><rect x="26" y="20" width="2" height="2"></rect><path d="M59,2H27a3,3,0,0,0-3,3v5H60V33a1,1,0,0,1-1,1H37v2H59a3,3,0,0,0,3-3V5A3,3,0,0,0,59,2ZM26,8V5a1,1,0,0,1,1-1H59a1,1,0,0,1,1,1V8Z"></path><rect x="28" y="5" width="2" height="2"></rect><rect x="32" y="5" width="2" height="2"></rect><rect x="36" y="5" width="2" height="2"></rect><path d="M56,13a1,1,0,0,0-1-1H34v2H54v4H36v2H55a1,1,0,0,0,1-1Z"></path><rect x="46" y="22" width="10" height="2"></rect><rect x="38" y="22" width="6" height="2"></rect><rect x="46" y="26" width="10" height="2"></rect><rect x="38" y="26" width="6" height="2"></rect><rect x="46" y="30" width="10" height="2"></rect><rect x="38" y="30" width="6" height="2"></rect></g></svg>