<svg xmlns="http://www.w3.org/2000/svg" viewBox="0 0 64 64" x="0px" y="0px"><g><polygon points="23 21 21 21 21 22 17 22 17 21 15 21 15 22 11 22 11 21 9 21 9 22 8 22 8 24 10 24 10 26 12 26 12 24 20 24 20 26 22 26 22 24 24 24 24 22 23 22 23 21"></polygon><polygon points="56 22 55 22 55 21 53 21 53 22 49 22 49 21 47 21 47 22 43 22 43 21 41 21 41 22 40 22 40 24 42 24 42 26 44 26 44 24 52 24 52 26 54 26 54 24 56 24 56 22"></polygon><path d="M10.58,19h2a.792.792,0,0,1,.232-.58,2.825,2.825,0,0,0,0-3.5.85.85,0,0,1,0-1.167A2.749,2.749,0,0,0,13.42,12h-2a.8.8,0,0,1-.232.583,2.827,2.827,0,0,0,0,3.5.846.846,0,0,1,0,1.164A2.745,2.745,0,0,0,10.58,19Z"></path><path d="M14.58,19h2a.792.792,0,0,1,.232-.58,2.825,2.825,0,0,0,0-3.5.85.85,0,0,1,0-1.167A2.749,2.749,0,0,0,17.42,12h-2a.8.8,0,0,1-.232.583,2.827,2.827,0,0,0,0,3.5.846.846,0,0,1,0,1.164A2.745,2.745,0,0,0,14.58,19Z"></path><path d="M18.58,19h2a.792.792,0,0,1,.232-.58,2.825,2.825,0,0,0,0-3.5.85.85,0,0,1,0-1.167A2.749,2.749,0,0,0,21.42,12h-2a.8.8,0,0,1-.232.583,2.827,2.827,0,0,0,0,3.5.846.846,0,0,1,0,1.164A2.745,2.745,0,0,0,18.58,19Z"></path><path d="M50.58,19h2a.792.792,0,0,1,.232-.58,2.825,2.825,0,0,0,0-3.5.85.85,0,0,1,0-1.167A2.749,2.749,0,0,0,53.42,12h-2a.8.8,0,0,1-.232.583,2.827,2.827,0,0,0,0,3.5.846.846,0,0,1,0,1.164A2.745,2.745,0,0,0,50.58,19Z"></path><path d="M46.58,19h2a.792.792,0,0,1,.232-.58,2.825,2.825,0,0,0,0-3.5.85.85,0,0,1,0-1.167A2.749,2.749,0,0,0,49.42,12h-2a.8.8,0,0,1-.232.583,2.827,2.827,0,0,0,0,3.5.846.846,0,0,1,0,1.164A2.745,2.745,0,0,0,46.58,19Z"></path><path d="M42.58,19h2a.792.792,0,0,1,.232-.58,2.825,2.825,0,0,0,0-3.5.85.85,0,0,1,0-1.167A2.749,2.749,0,0,0,45.42,12h-2a.8.8,0,0,1-.232.583,2.827,2.827,0,0,0,0,3.5.846.846,0,0,1,0,1.164A2.745,2.745,0,0,0,42.58,19Z"></path><circle cx="16" cy="33" r="2"></circle><path d="M55,54H50V52h5V51H48V49h7V46H9v9H55Zm-7,0H46V52h2Z"></path><rect x="29" y="32" width="6" height="2"></rect><path d="M4,60H60V40H4ZM7,45a1,1,0,0,1,1-1H56a1,1,0,0,1,1,1V56a1,1,0,0,1-1,1H8a1,1,0,0,1-1-1Z"></path><path d="M5.847,28,4.181,38H59.819L58.153,28ZM16,37a4,4,0,1,1,4-4A4,4,0,0,1,16,37Zm21-2a1,1,0,0,1-1,1H28a1,1,0,0,1-1-1V31a1,1,0,0,1,1-1h8a1,1,0,0,1,1,1Zm11,2a4,4,0,1,1,4-4A4,4,0,0,1,48,37Z"></path><circle cx="48" cy="33" r="2"></circle></g></svg>