<svg xmlns="http://www.w3.org/2000/svg" viewBox="0 0 64 64" x="0px" y="0px"><g data-name="Christ The Redeemer-Brazil-Landmark-Rio De Janeiro-Statue"><path d="M36,20h-.69A10.95,10.95,0,0,1,29,22c-.29,0-.57-.02-.85-.04L36,25.88Z"></path><path d="M25,21.24A11.313,11.313,0,0,1,22.7,20H21v8.15l4,.67Z"></path><polygon points="35 54 35 38.78 33 38.28 33 54 35 54"></polygon><polygon points="27 36.78 25 36.28 25 54 27 54 27 36.78"></polygon><polygon points="31 54 31 37.78 29 37.28 29 54 31 54"></polygon><path d="M53.69,12l-.75,2H55a3.03,3.03,0,0,0,2.13-.88,3.117,3.117,0,0,0,.7-1.12Z"></path><polygon points="44 29.87 44 12 38 12 38 29.12 40 29.37 40 16 42 16 42 29.62 44 29.87"></polygon><polygon points="39 54 39 39.78 37 39.28 37 54 39 54"></polygon><path d="M39,36.53,27,28.28V30a1,1,0,0,1-1,1,.86.86,0,0,1-.16-.01L25,30.85v3.37l14,3.5Z"></path><path d="M39,31.26l-2.12-.27A1,1,0,0,1,36,30V28.12l-9-4.5v2.23L39,34.1Z"></path><path d="M20.52,18a11,11,0,0,1-2.47-6H12.44l2.25,6Z"></path><path d="M36,8a3.906,3.906,0,0,1-.56,2H37V9a4.939,4.939,0,0,0-1-2.97Z"></path><rect x="21" y="56" width="22" height="4"></rect><path d="M6.17,12a3.131,3.131,0,0,0,.71,1.13A3,3,0,0,0,9,14h2.06l-.75-2Z"></path><polygon points="51.56 12 46 12 46 18 49.31 18 51.56 12"></polygon><path d="M23.09,12H20.06a8.991,8.991,0,0,0,15.3,5.36,7.548,7.548,0,0,0,.64-.74V12H34.91a5.993,5.993,0,0,1-11.82,0Z"></path><path d="M30.28,5h3.44a1.979,1.979,0,0,0-3.44,0Z"></path><path d="M30,8a2,2,0,0,0,4,0V7H30Z"></path><path d="M29,15a4,4,0,0,0,3.86-3H25.14A4,4,0,0,0,29,15Z"></path><path d="M27,9v1h1.56A3.906,3.906,0,0,1,28,8V6.03A4.939,4.939,0,0,0,27,9Z"></path></g></svg>