<svg xmlns="http://www.w3.org/2000/svg" viewBox="0 0 64 64" x="0px" y="0px"><g data-name="Stapler-Tool-Office Material-School Material-Material"><path d="M62,30V27.05a6.978,6.978,0,0,0-5.81-6.89L14.87,13.03A11,11,0,0,0,2,23.87V30a1,1,0,0,0,1,1H5v5a1,1,0,0,0,1,1H37.61l-1.33,4H5a1.033,1.033,0,0,0-.71.29l-2,2A1.033,1.033,0,0,0,2,44v6a1,1,0,0,0,1,1H61a1,1,0,0,0,1-1V44a1.033,1.033,0,0,0-.29-.71l-1.78-1.77-.83-5A8.948,8.948,0,0,0,55.88,31H61A1,1,0,0,0,62,30ZM7,35V31H39.61l-1.33,4Zm53,9.41V49H4V44.41L5.41,43H58.59Zm-2.87-7.56L57.82,41H38.39l3.33-10h8.5A6.984,6.984,0,0,1,57.13,36.85ZM60,29H4V23.87A9,9,0,0,1,14.53,15l41.32,7.13A4.983,4.983,0,0,1,60,27.05Z"></path><path d="M47,39a3,3,0,1,0-3-3A3,3,0,0,0,47,39Zm0-4a1,1,0,1,1-1,1A1,1,0,0,1,47,35Z"></path></g></svg>