<svg xmlns="http://www.w3.org/2000/svg" data-name="Layer 38" viewBox="0 0 64 64" x="0px" y="0px"><title>Microphone</title><g data-name="Microphone"><path d="M32,40A13.015,13.015,0,0,0,45,27V15a13,13,0,0,0-26,0V27A13.015,13.015,0,0,0,32,40ZM32,4A11.01,11.01,0,0,1,42.949,14H39v2h4v4H39v2h4v4H39v2h3.949a10.994,10.994,0,0,1-21.9,0H25V26H21V22h4V20H21V16h4V14H21.051A11.01,11.01,0,0,1,32,4Z"></path><path d="M33,45.949A19.007,19.007,0,0,0,51,27H49a17,17,0,0,1-34,0H13A19.007,19.007,0,0,0,31,45.949V60H14v2H50V60H33Z"></path></g></svg>