<svg xmlns="http://www.w3.org/2000/svg" viewBox="0 0 64 64" x="0px" y="0px"><g><path d="M61.707,30.293l-10-10A1,1,0,0,0,51,20H30v2H50v7a3,3,0,0,0,3,3h7V59a1,1,0,0,1-1,1H5a1,1,0,0,1-1-1V23a1,1,0,0,1,1-1h7V20H5a3,3,0,0,0-3,3V59a3,3,0,0,0,3,3H59a3,3,0,0,0,3-3V31A1,1,0,0,0,61.707,30.293ZM52,29V23.414L58.586,30H53A1,1,0,0,1,52,29Z"></path><path d="M16,22.24V24a1,1,0,0,0,1,1h8a1,1,0,0,0,1-1V22.24a8,8,0,1,0-10,0ZM21,10a6,6,0,0,1,3.427,10.92,1,1,0,0,0-.427.82V23H18V21.74a1,1,0,0,0-.427-.82A6,6,0,0,1,21,10Z"></path><path d="M25,26H17a1,1,0,0,0-1,1v3a1,1,0,0,0,1,1h1v2a1,1,0,0,0,1,1h4a1,1,0,0,0,1-1V31h1a1,1,0,0,0,1-1V27A1,1,0,0,0,25,26Zm-3,6H20V31h2Zm2-3H18V28h6Z"></path><path d="M20.2,20.6a1,1,0,0,0,1.6,0l3-4A1,1,0,0,0,24,15H18a1,1,0,0,0-.8,1.6ZM22,17l-1,1.333L20,17Z"></path><rect x="20" y="2" width="2" height="4"></rect><rect x="11.515" y="5.515" width="2" height="4" transform="translate(-1.648 11.05) rotate(-45)"></rect><rect x="7" y="15" width="4" height="2"></rect><rect x="10.515" y="23.485" width="4" height="2" transform="translate(-13.648 16.021) rotate(-45)"></rect><rect x="28.485" y="22.486" width="2" height="4" transform="translate(-8.678 28.021) rotate(-45)"></rect><rect x="31" y="15" width="4" height="2"></rect><rect x="27.486" y="6.515" width="4" height="2" transform="translate(3.322 23.05) rotate(-45)"></rect><path d="M9,53h3a1,1,0,0,0,.684.948l3,1A1,1,0,0,0,16,55H53a3,3,0,0,0,0-6H16a1,1,0,0,0-.316.052l-3,1A1,1,0,0,0,12,51H9Zm9-2H48v2H18Zm36,1a1,1,0,0,1-1,1H50V51h3A1,1,0,0,1,54,52Zm-40-.279,2-.667v1.892l-2-.667Z"></path><path d="M31.293,30.293l-3,3a1,1,0,0,0,0,1.414l3,3,1.414-1.414L30.414,34l2.293-2.293Z"></path><path d="M44.707,37.707l3-3a1,1,0,0,0,0-1.414l-3-3-1.414,1.414L45.586,34l-2.293,2.293Z"></path><rect x="32.615" y="33" width="10.77" height="2" transform="translate(-7.673 56.671) rotate(-68.219)"></rect><rect x="30" y="41" width="6" height="2"></rect><rect x="28" y="45" width="4" height="2"></rect><rect x="34" y="45" width="4" height="2"></rect><rect x="26" y="41" width="2" height="2"></rect><rect x="40" y="45" width="4" height="2"></rect><rect x="38" y="41" width="8" height="2"></rect></g></svg>