<svg xmlns="http://www.w3.org/2000/svg" viewBox="0 0 64 64" x="0px" y="0px"><g><rect x="17.67" y="43.474" width="6" height="14" transform="translate(-16.017 10.114) rotate(-20.001)"></rect><rect x="10.153" y="47.21" width="6" height="12" transform="translate(-17.405 7.707) rotate(-19.999)"></rect><path d="M28.019,53.12a1,1,0,0,1,.662-.008l5.734,1.937,20.344-7.4a2,2,0,0,0-1.368-3.76L46.9,46.247a4.113,4.113,0,0,1-.042.537,4.01,4.01,0,0,1-4.636,3.258L30.965,48.057l.347-1.97L42.57,48.073a2.009,2.009,0,0,0,2.319-1.627,1.833,1.833,0,0,0-.008-.678c-.007-.034-.012-.068-.016-.1a1.211,1.211,0,0,0-.069-.249,1.982,1.982,0,0,0-1.532-1.287L29.938,41.78l-6.279,2.285,3.42,9.4Z"></path><rect x="26" y="7" width="2" height="4"></rect><rect x="26" y="3" width="2" height="2"></rect><rect x="31" y="4" width="2" height="2"></rect><rect x="36" y="10" width="2" height="6"></rect><rect x="36" y="6" width="2" height="2"></rect><rect x="31" y="8" width="2" height="6"></rect><rect x="41" y="6" width="2" height="8"></rect><rect x="41" y="2" width="2" height="2"></rect><rect x="46" y="9" width="2" height="2"></rect><rect x="46" y="5" width="2" height="2"></rect><rect x="28" y="20" width="6" height="2"></rect><path d="M46,24H40v3a1,1,0,0,1-1,1H35a1,1,0,0,1-1-1V24H28V36H46ZM38,34H36V32h2Zm6,0H40V32h4Z"></path><rect x="40" y="20" width="6" height="2"></rect><rect x="36" y="20" width="2" height="6"></rect></g></svg>