<svg xmlns="http://www.w3.org/2000/svg" viewBox="0 0 64 64" x="0px" y="0px"><g><polygon points="49 26 55 26 55 17 58 17 52 11 46 17 49 17 49 26"></polygon><path d="M32,3,20,13h3V26h8V23.91l-.99-.09a4,4,0,0,1-3.57-3.21l-.39-1.96,2,.18a3.972,3.972,0,0,1,3.56,3.21l.19.96.2,1,.2-1,.19-.96a3.972,3.972,0,0,1,3.56-3.21l2-.18-.39,1.96a4,4,0,0,1-3.57,3.21l-.99.09V26h8V13h3Z"></path><polygon points="9 26 15 26 15 17 18 17 12 11 6 17 9 17 9 26"></polygon><path d="M46,30a1,1,0,0,0-1,1v2a1,1,0,0,0,1,1H58a1,1,0,0,0,1-1V31a1,1,0,0,0-1-1H57v2H55V30H53v2H51V30H49v2H47V30Z"></path><path d="M18,40a1,1,0,0,0,1-1V37a1,1,0,0,0-1-1H17v2H15V36H13v2H11V36H9v2H7V36H6a1,1,0,0,0-1,1v2a1,1,0,0,0,1,1Z"></path><path d="M58,40a1,1,0,0,0,1-1V37a1,1,0,0,0-1-1H57v2H55V36H53v2H51V36H49v2H47V36H46a1,1,0,0,0-1,1v2a1,1,0,0,0,1,1Z"></path><path d="M6,30a1,1,0,0,0-1,1v2a1,1,0,0,0,1,1H18a1,1,0,0,0,1-1V31a1,1,0,0,0-1-1H17v2H15V30H13v2H11V30H9v2H7V30Z"></path><rect x="42" y="42" width="18" height="2"></rect><rect x="42" y="58" width="18" height="2"></rect><rect x="42" y="46" width="18" height="2"></rect><rect x="42" y="54" width="18" height="2"></rect><rect x="42" y="50" width="18" height="2"></rect><rect x="4" y="46" width="18" height="2"></rect><path d="M26,30a1,1,0,0,0-1,1v2a1,1,0,0,0,1,1H38a1,1,0,0,0,1-1V31a1,1,0,0,0-1-1H37v2H35V30H33v2H31V30H29v2H27V30Z"></path><path d="M38,40a1,1,0,0,0,1-1V37a1,1,0,0,0-1-1H37v2H35V36H33v2H31V36H29v2H27V36H26a1,1,0,0,0-1,1v2a1,1,0,0,0,1,1Z"></path><path d="M24,60H40V42H24Zm9-8H31a3,3,0,0,1,0-6V45h2v1a3,3,0,0,1,3,3H34a1,1,0,0,0-1-1H31a1,1,0,0,0,0,2h2a3,3,0,0,1,0,6v1H31V56a3,3,0,0,1-3-3h2a1,1,0,0,0,1,1h2a1,1,0,0,0,0-2Z"></path><rect x="4" y="54" width="18" height="2"></rect><rect x="4" y="42" width="18" height="2"></rect><rect x="4" y="50" width="18" height="2"></rect><rect x="4" y="58" width="18" height="2"></rect><rect x="31" y="26" width="2" height="2"></rect></g></svg>