<svg xmlns="http://www.w3.org/2000/svg" viewBox="0 0 64 64" x="0px" y="0px"><title>Target</title><g><path d="M32,37a5,5,0,1,0-5-5,.987.987,0,0,0,.856.971L2.781,47.129A1,1,0,0,0,3.272,49H15V60.728a1,1,0,0,0,.746.966.964.964,0,0,0,.254.034,1,1,0,0,0,.871-.509L31.029,36.144A.987.987,0,0,0,32,37Zm-3-5a3,3,0,1,1,3,3,1,1,0,0,0-.367.074l1.744-3.089a1,1,0,0,0-1.362-1.362l-3.089,1.744A1,1,0,0,0,29,32ZM7.077,47,26.62,35.966,15.586,47ZM17,48.414,28.034,37.38,17,56.923Z"></path><path d="M32,43a1,1,0,0,0,0,2A13,13,0,1,0,19,32a1,1,0,0,0,2,0A11,11,0,1,1,32,43Z"></path><path d="M32,10A22.025,22.025,0,0,0,10,32a1,1,0,0,0,2,0A20,20,0,1,1,32,52a1,1,0,0,0,0,2,22,22,0,0,0,0-44Z"></path></g></svg>