<svg xmlns="http://www.w3.org/2000/svg" viewBox="0 0 64 64" x="0px" y="0px"><g data-name="Payment"><path d="M11,54H53V19.386l-2.573,6.691A3.02,3.02,0,0,1,47.626,28H16.374a3.02,3.02,0,0,1-2.8-1.923L11,19.386ZM32,30a2.993,2.993,0,0,1,1,5.816V41H31V35.816A2.993,2.993,0,0,1,32,30Z"></path><circle cx="32" cy="33" r="1"></circle><path d="M16,25.917V15H11.456L15.44,25.359A1,1,0,0,0,16,25.917Z"></path><path d="M11,59a1,1,0,0,0,1,1H52a1,1,0,0,0,1-1V56H11Z"></path><path d="M52.544,15H48V25.917a1,1,0,0,0,.56-.558Z"></path><path d="M44.8,7.6a1.037,1.037,0,0,1-1.6,0l-2.2-2.935L38.789,7.6a1.036,1.036,0,0,1-1.6,0l-2.2-2.933L32.789,7.6a1,1,0,0,1-1.6,0l-2.2-2.933L26.794,7.6a1,1,0,0,1-1.6,0L23,4.667,20.8,7.6a1,1,0,0,1-1.6,0L18,6V26H46V6ZM26,18H24V16h2Zm5-2h2a3,3,0,0,1,0,6v2H31V22a3,3,0,0,1-3-3h2a1,1,0,0,0,1,1h2a1,1,0,0,0,0-2H31a3,3,0,0,1,0-6V10h2v2a3,3,0,0,1,3,3H34a1,1,0,0,0-1-1H31a1,1,0,0,0,0,2Zm9,2H38V16h2Z"></path></g></svg>