<svg xmlns="http://www.w3.org/2000/svg" viewBox="0 0 64 64" x="0px" y="0px"><g><path d="M60,32A12.01,12.01,0,0,1,48,44H41V36a1.007,1.007,0,0,0-.65-.94l-8-3a1.051,1.051,0,0,0-.7,0l-8,3A1.007,1.007,0,0,0,23,36v8H13a9,9,0,0,1-2.6-17.62.987.987,0,0,0,.71-.82A11.007,11.007,0,0,1,22,16c.16,0,.31.01.46.02l.2.01a1.009,1.009,0,0,0,.95-.53,13.985,13.985,0,0,1,26.15,3.98.994.994,0,0,0,.77.79A12.053,12.053,0,0,1,60,32Z"></path><path d="M27.764,51.764,32,53.882l4.236-2.118A4.972,4.972,0,0,0,39,47.292v-10.6l-7-2.625-7,2.625v10.6A4.972,4.972,0,0,0,27.764,51.764Zm.115-8.3L30,45.586l6.364-6.364,1.414,1.414-7.071,7.071a1,1,0,0,1-1.414,0l-2.828-2.829Z"></path></g></svg>