<svg xmlns="http://www.w3.org/2000/svg" viewBox="0 0 64 64" x="0px" y="0px"><g><path d="M10.18,26l1.53,9.16a.989.989,0,0,0,.98.84H23.31a.989.989,0,0,0,.98-.84L25.82,26ZM15,34H13V28h2Zm4,0H17V28h2Zm4,0H21V28h2Z"></path><path d="M33,24a3.009,3.009,0,0,1-3-3V10H7a3.009,3.009,0,0,0-3,3V40H52V24ZM15.71,14.29,17,15.59V12h2v3.59l1.29-1.3,1.42,1.42-3,3a1.014,1.014,0,0,1-1.42,0l-3-3Zm10.55,21.2A2.978,2.978,0,0,1,23.31,38H12.69a2.978,2.978,0,0,1-2.95-2.51L8.01,25.16a1.039,1.039,0,0,1,.23-.81A1.011,1.011,0,0,1,9,24h2.82l-.81-4.84,1.98-.32L13.85,24h8.3l.86-5.16,1.98.32L24.18,24H27a1.011,1.011,0,0,1,.76.35,1.039,1.039,0,0,1,.23.81ZM32,28h4v2H32ZM42,38H32V36H42Zm4,0H44V36h2Zm0-4H32V32H46Zm0-4H38V28h8Z"></path><path d="M55,18a1,1,0,0,0,0-2,.928.928,0,0,0-.172.038,2.769,2.769,0,0,1,0,1.924A.956.956,0,0,0,55,18Z"></path><path d="M4,42v3a3.009,3.009,0,0,0,3,3H49a3.009,3.009,0,0,0,3-3V42Zm44,4H46V44h2Z"></path><circle cx="52" cy="17" r="1"></circle><polygon points="22.883 50 22.133 56 33.867 56 33.117 50 22.883 50"></polygon><path d="M18,59a1,1,0,0,0,1,1H37a1,1,0,0,0,0-2H19A1,1,0,0,0,18,59Z"></path><path d="M59,4H33a1,1,0,0,0-1,1V21a1,1,0,0,0,1,1H59a1,1,0,0,0,1-1V5A1,1,0,0,0,59,4ZM52,7h2v4H52ZM34,7a1,1,0,0,1,1-1h6a1,1,0,0,1,1,1v4a1,1,0,0,1-1,1H35a1,1,0,0,1-1-1Zm2,13H34V18h2Zm4,0H38V18h2Zm4,0H42V18h2Zm0-4H34V14H44Zm4-9h2v4H48Zm7,13a2.988,2.988,0,0,1-1.49-.42,3,3,0,1,1,0-5.16A2.991,2.991,0,1,1,55,20Zm3-9H56V7h2Z"></path><rect x="36" y="8" width="4" height="2"></rect></g></svg>