<svg xmlns="http://www.w3.org/2000/svg" viewBox="0 0 64 64" x="0px" y="0px"><g><path d="M53,2H11a9.01,9.01,0,0,0-9,9V53a9.01,9.01,0,0,0,9,9H53a9.01,9.01,0,0,0,9-9V11A9.01,9.01,0,0,0,53,2Zm7,51a7.008,7.008,0,0,1-7,7H11a7.008,7.008,0,0,1-7-7V11a7.008,7.008,0,0,1,7-7H53a7.008,7.008,0,0,1,7,7Z"></path><path d="M53,6H37.341A14.763,14.763,0,0,0,26.659,6H11a5.006,5.006,0,0,0-5,5V53a5.006,5.006,0,0,0,5,5H53a5.006,5.006,0,0,0,5-5V11A5.006,5.006,0,0,0,53,6ZM41.526,14.5a1,1,0,0,0,1.367.366l.828-.478A12.922,12.922,0,0,1,44.962,19H33V12a1,1,0,0,0-2,0v7H19.038a12.922,12.922,0,0,1,1.241-4.612l.828.478a1,1,0,1,0,1-1.732l-.817-.472A13.088,13.088,0,0,1,24.662,9.29l.472.818a1,1,0,1,0,1.732-1l-.474-.822A12.9,12.9,0,0,1,31,7.048V8a1,1,0,0,0,2,0V7.048a12.9,12.9,0,0,1,4.608,1.238l-.474.822a1,1,0,1,0,1.732,1l.472-.818a13.088,13.088,0,0,1,3.372,3.372l-.817.472A1,1,0,0,0,41.526,14.5ZM56,53a3,3,0,0,1-3,3H11a3,3,0,0,1-3-3V11a3,3,0,0,1,3-3H23.038A14.97,14.97,0,0,0,17,20a1,1,0,0,0,1,1H46a1,1,0,0,0,1-1A14.97,14.97,0,0,0,40.962,8H53a3,3,0,0,1,3,3Z"></path><rect x="13" y="25" width="2" height="2"></rect><rect x="19" y="25" width="2" height="2"></rect><rect x="25" y="25" width="2" height="2"></rect><rect x="49" y="25" width="2" height="2"></rect><rect x="43" y="25" width="2" height="2"></rect><rect x="37" y="25" width="2" height="2"></rect><rect x="31" y="25" width="2" height="2"></rect><rect x="13" y="31" width="2" height="2"></rect><rect x="19" y="31" width="2" height="2"></rect><rect x="25" y="31" width="2" height="2"></rect><rect x="49" y="31" width="2" height="2"></rect><rect x="43" y="31" width="2" height="2"></rect><rect x="37" y="31" width="2" height="2"></rect><rect x="31" y="31" width="2" height="2"></rect><rect x="13" y="37" width="2" height="2"></rect><rect x="19" y="37" width="2" height="2"></rect><rect x="25" y="37" width="2" height="2"></rect><rect x="49" y="37" width="2" height="2"></rect><rect x="43" y="37" width="2" height="2"></rect><rect x="37" y="37" width="2" height="2"></rect><rect x="31" y="37" width="2" height="2"></rect><rect x="13" y="43" width="2" height="2"></rect><rect x="19" y="43" width="2" height="2"></rect><rect x="25" y="43" width="2" height="2"></rect><rect x="49" y="43" width="2" height="2"></rect><rect x="43" y="43" width="2" height="2"></rect><rect x="37" y="43" width="2" height="2"></rect><rect x="31" y="43" width="2" height="2"></rect><rect x="13" y="49" width="2" height="2"></rect><rect x="19" y="49" width="2" height="2"></rect><rect x="25" y="49" width="2" height="2"></rect><rect x="49" y="49" width="2" height="2"></rect><rect x="43" y="49" width="2" height="2"></rect><rect x="37" y="49" width="2" height="2"></rect><rect x="31" y="49" width="2" height="2"></rect></g></svg>