<svg xmlns="http://www.w3.org/2000/svg" viewBox="0 0 64 64" x="0px" y="0px"><g data-name="Fingerprint Scan-Smartphone-Scan-Security"><path d="M43,56a4,4,0,0,1-4,4H11a4,4,0,0,1-4-4V8a4,4,0,0,1,4-4H39a4,4,0,0,1,4,4h2a6.006,6.006,0,0,0-6-6H11A6.006,6.006,0,0,0,5,8V56a6.006,6.006,0,0,0,6,6H39a6.006,6.006,0,0,0,6-6V50H43Z"></path><path d="M23,58h4a3,3,0,0,0,0-6H23a3,3,0,0,0,0,6Zm0-4h4a1,1,0,0,1,0,2H23a1,1,0,0,1,0-2Z"></path><rect x="18" y="6" width="2" height="2"></rect><rect x="22" y="6" width="6" height="2"></rect><path d="M31,32V26a8.917,8.917,0,0,1,1.8-5.4l-1.6-1.2A10.913,10.913,0,0,0,29,26v6a10.956,10.956,0,0,0,9.9,10.945l.2-1.99A8.963,8.963,0,0,1,31,32Z"></path><path d="M49,32a8.963,8.963,0,0,1-8.1,8.955l.2,1.99A10.956,10.956,0,0,0,51,32V28H49Z"></path><path d="M40,15a10.913,10.913,0,0,0-6.6,2.2l1.2,1.6A8.917,8.917,0,0,1,40,17a9.01,9.01,0,0,1,9,9h2A11.013,11.013,0,0,0,40,15Z"></path><path d="M47,32V26a7,7,0,0,0-14,0h2a5,5,0,0,1,10,0v6Z"></path><path d="M46.6,34.333l-1.887-.666A5,5,0,0,1,35,32V28H33v4a7,7,0,0,0,13.6,2.333Z"></path><path d="M40,33a1,1,0,0,1-1-1H37a3,3,0,0,0,6,0V26a3,3,0,0,0-6,0v4h2V26a1,1,0,0,1,2,0v6A1,1,0,0,1,40,33Z"></path><path d="M40,10A19.021,19.021,0,0,0,21,29V47a1,1,0,0,0,1,1H40a19,19,0,0,0,0-38Zm0,36H23V29A17,17,0,1,1,40,46Z"></path></g></svg>