<svg xmlns="http://www.w3.org/2000/svg" viewBox="0 0 64 64" x="0px" y="0px"><g><path d="M9,26H7V12a1,1,0,0,1,1-1h3v2H9Z"></path><rect x="13" y="8" width="4" height="12"></rect><rect x="10" y="32" width="40" height="6"></rect><rect x="12" y="40" width="36" height="20"></rect><rect x="14" y="4" width="2" height="2"></rect><polygon points="24.414 7 29.586 7 27 4.414 24.414 7"></polygon><polygon points="47 6 47 4 37 4 37 30 47 30 47 28 43 28 43 26 47 26 47 24 45 24 45 22 47 22 47 20 43 20 43 18 47 18 47 16 45 16 45 14 47 14 47 12 43 12 43 10 47 10 47 8 45 8 45 6 47 6"></polygon><rect x="23" y="9" width="3" height="21"></rect><rect x="28" y="9" width="3" height="21"></rect><rect x="13" y="22" width="4" height="8"></rect></g></svg>