<svg xmlns="http://www.w3.org/2000/svg" viewBox="0 0 64 64" x="0px" y="0px"><g><path d="M59.493,38.735l-9.86-1.643-5.462-9.557A9,9,0,0,0,37,23.043V21h4V19H37V4a1,1,0,0,0-1-1H16a1,1,0,0,0-1,1V19H11v2h3v3.353A19.019,19.019,0,0,0,2,42V52a3,3,0,0,0,3,3H8.08a6.991,6.991,0,0,0,13.84,0H42.08a6.991,6.991,0,0,0,13.84,0H59a3,3,0,0,0,3-3V41.694A2.991,2.991,0,0,0,59.493,38.735ZM47.277,37H34V29h8.7ZM35,7H29V5h6ZM25,5h2V9H25ZM23,5V7H17V5ZM17,9h6v1a1,1,0,0,0,1,1h4a1,1,0,0,0,1-1V9h6V19H17ZM16,21H35v2H21a18.886,18.886,0,0,0-5,.69ZM4,52V51H7V49H4V42A17.019,17.019,0,0,1,21,25h8V53H21.92A6.991,6.991,0,0,0,8.08,53H5A1,1,0,0,1,4,52Zm11,7a5,5,0,1,1,5-5A5.006,5.006,0,0,1,15,59Zm34,0a5,5,0,1,1,5-5A5.006,5.006,0,0,1,49,59Zm10-6H55.92a6.991,6.991,0,0,0-13.84,0H31V25h5.357a7.011,7.011,0,0,1,4.89,2H34a2,2,0,0,0-2,2v8a2,2,0,0,0,2,2H48.917l10.247,1.708a.992.992,0,0,1,.543.292H56a2,2,0,0,0-2,2v2a2,2,0,0,0,2,2h4v2H57v2h3v1A1,1,0,0,1,59,53Zm1-10v2H56V43Z"></path><path d="M12.344,39H27a1,1,0,0,0,1-1V29a2,2,0,0,0-2-2H16.976a4.969,4.969,0,0,0-4.789,3.563l-1.759,5.863A2,2,0,0,0,12.344,39ZM14.1,31.138A2.98,2.98,0,0,1,16.976,29H26v8H12.344Z"></path><rect x="36" y="41" width="4" height="2"></rect><rect x="14" y="53" width="2" height="2"></rect><rect x="48" y="53" width="2" height="2"></rect></g></svg>