<svg xmlns="http://www.w3.org/2000/svg" viewBox="0 0 64 64" x="0px" y="0px"><path d="M43,4H21a1,1,0,0,0-1,1V33a1,1,0,0,0,1,1H43a1,1,0,0,0,1-1V5A1,1,0,0,0,43,4ZM41,29a2,2,0,0,1-2,2H25a2,2,0,0,1-2-2V9a2,2,0,0,1,2-2H39a2,2,0,0,1,2,2Z"></path><rect x="25" y="9" width="14" height="20"></rect><path d="M18,37a1,1,0,0,0,1,1H45a1,1,0,0,0,0-2H19A1,1,0,0,0,18,37Z"></path><path d="M19.014,54.835A1,1,0,0,1,20,54H44a1,1,0,0,1,.986.835L45.847,60h2.9L44.2,40H19.8L15.253,60h2.9Zm1.016-4.078,2-8A1,1,0,0,1,23,42H41a1,1,0,0,1,.97.757l2,8A1,1,0,0,1,43,52H21a1,1,0,0,1-.97-1.243Z"></path></svg>