<svg xmlns="http://www.w3.org/2000/svg" viewBox="0 0 64 64" x="0px" y="0px"><g><path d="M61,23a1,1,0,0,0,1-1V16a1,1,0,0,0-1-1H59V12a1,1,0,0,0-1-1H55.414L46.707,2.293A1,1,0,0,0,46,2H18a1,1,0,0,0-.707.293L8.586,11H6a1,1,0,0,0-1,1v3H3a1,1,0,0,0-1,1v6a1,1,0,0,0,1,1H7V49H6a1,1,0,0,0-1,1v3H3a1,1,0,0,0-1,1v6a1,1,0,0,0,1,1H61a1,1,0,0,0,1-1V54a1,1,0,0,0-1-1H59V50a1,1,0,0,0-1-1H57V23Zm-1-2H41.786a10.9,10.9,0,0,0,1.163-4H60ZM23,16a9,9,0,1,1,9,9A9.01,9.01,0,0,1,23,16Zm34-1H42.949a10.9,10.9,0,0,0-.375-2H57ZM18.414,4H45.586l7,7h-10.8a10.98,10.98,0,0,0-19.572,0h-10.8ZM7,13H21.426a10.9,10.9,0,0,0-.375,2H7ZM4,17H21.051a10.9,10.9,0,0,0,1.163,4H4ZM4,55H18V53H7V51H19.78l-1.6,8H4Zm16.22,4,1.6-8H42.181l1.6,8ZM39,49H33V35h6Zm-8,0H25V35h6Zm15,4v2H60v4H45.82l-1.6-8H57v2Zm9-4H41V34a1,1,0,0,0-1-1H24a1,1,0,0,0-1,1V49H9V23H23.521a10.987,10.987,0,0,0,16.958,0H55Z"></path><rect x="24" y="52" width="16" height="2"></rect><rect x="23" y="56" width="18" height="2"></rect><path d="M44,41h8a1,1,0,0,0,1-1V34a1,1,0,0,0-1-1H44a1,1,0,0,0-1,1v6A1,1,0,0,0,44,41Zm1-6h6v4H45Z"></path><path d="M20,33H12a1,1,0,0,0-1,1v6a1,1,0,0,0,1,1h8a1,1,0,0,0,1-1V34A1,1,0,0,0,20,33Zm-1,6H13V35h6Z"></path><path d="M29,19v3a1,1,0,0,0,1,1h4a1,1,0,0,0,1-1V19h3a1,1,0,0,0,1-1V14a1,1,0,0,0-1-1H35V10a1,1,0,0,0-1-1H30a1,1,0,0,0-1,1v3H26a1,1,0,0,0-1,1v4a1,1,0,0,0,1,1Zm-2-4h3a1,1,0,0,0,1-1V11h2v3a1,1,0,0,0,1,1h3v2H34a1,1,0,0,0-1,1v3H31V18a1,1,0,0,0-1-1H27Z"></path></g></svg>