<svg xmlns="http://www.w3.org/2000/svg" viewBox="0 0 64 64" x="0px" y="0px"><title>Asset-House-Loan</title><g><path d="M56.828,52h-11A3,3,0,0,0,46,51V49a5.006,5.006,0,0,0-5-5H23.414l-5.121-5.121A2.978,2.978,0,0,0,16.171,38H14a2,2,0,0,0-2-2H4a2,2,0,0,0-2,2V60a2,2,0,0,0,2,2h8a2,2,0,0,0,2-2V57.467l3.778,3.893a1.013,1.013,0,0,0,.164.136,2.988,2.988,0,0,0,1.663.5H57a5,5,0,0,0,4.977-5.487A5.133,5.133,0,0,0,56.828,52ZM4,60V38h8V60Zm55.221-.982A3.009,3.009,0,0,1,57,60H19.605a1,1,0,0,1-.479-.122L14,54.6V40h2.171a1,1,0,0,1,.708.293l5.414,5.414A1,1,0,0,0,23,46H41a3,3,0,0,1,3,3v2a1,1,0,0,1-1,1H29v2H56.828a3.12,3.12,0,0,1,3.158,2.7A2.983,2.983,0,0,1,59.221,59.018Z"></path><path d="M38,19v1.184A3,3,0,0,0,36,23c0,1.618,1.476,2.355,2.553,2.895C39.4,26.318,40,26.646,40,27a1,1,0,0,1-2,0H36a3,3,0,0,0,2,2.816V31h2V29.816A3,3,0,0,0,42,27c0-1.618-1.476-2.355-2.553-2.895C38.6,23.682,38,23.354,38,23a1,1,0,0,1,2,0h2a3,3,0,0,0-2-2.816V19Z"></path><path d="M39.524,8.148a1,1,0,0,0-1.048,0l-13,8A1,1,0,0,0,25,17V37a1,1,0,0,0,1,1H52a1,1,0,0,0,1-1V17a1,1,0,0,0-.476-.852ZM51,36H27V17.559l12-7.385,12,7.385Z"></path><path d="M39,7.172,56.479,17.854l1.042-1.708-18-11a1,1,0,0,0-1.042,0l-18,11,1.042,1.708Z"></path></g></svg>