<svg xmlns="http://www.w3.org/2000/svg" viewBox="0 0 64 64" x="0px" y="0px"><g data-name="Checkup"><path d="M17.3,35.18,18.7,43.175a1,1,0,0,0,.985.825h1.561a1,1,0,0,0,.991-.872l1.1-8.514A3.008,3.008,0,0,1,26.313,32h1.374a3.008,3.008,0,0,1,2.975,2.614l1.1,8.515a1,1,0,0,0,.991.871h1.561a1,1,0,0,0,.985-.825L36.7,35.18A22.894,22.894,0,0,1,40.4,26.111,8.992,8.992,0,0,0,29.229,12.834a5.263,5.263,0,0,1-4.458,0A8.992,8.992,0,0,0,13.6,26.111,22.894,22.894,0,0,1,17.3,35.18Zm5.284-20.489A7.626,7.626,0,0,0,27,16a7.625,7.625,0,0,0,4.411-1.309l1.178,1.616A9.522,9.522,0,0,1,27,18a9.527,9.527,0,0,1-5.59-1.693Z"></path><path d="M27,50A23,23,0,1,0,4,27,23.026,23.026,0,0,0,27,50ZM19.941,10.05a10.989,10.989,0,0,1,5.674.971,3.223,3.223,0,0,0,2.77,0,10.991,10.991,0,0,1,13.66,16.23,20.9,20.9,0,0,0-3.378,8.272l-1.394,8A2.992,2.992,0,0,1,34.318,46H32.757a3.009,3.009,0,0,1-2.975-2.614l-1.1-8.515A1,1,0,0,0,27.687,34H26.313a1,1,0,0,0-.992.872l-1.1,8.514A3.009,3.009,0,0,1,21.243,46H19.682a2.992,2.992,0,0,1-2.955-2.481l-1.394-8a20.9,20.9,0,0,0-3.378-8.272,10.991,10.991,0,0,1,7.986-17.2Z"></path><path d="M50.336,46.09l-3.675-3.676a25.172,25.172,0,0,1-4.247,4.247l3.676,3.675Z"></path><path d="M54.577,46.092a1.022,1.022,0,0,0-1.413,0l-7.072,7.071a1,1,0,0,0,0,1.414l5.655,5.656,8.486-8.486Z"></path></g></svg>