<svg xmlns="http://www.w3.org/2000/svg" viewBox="0 0 64 64" x="0px" y="0px"><g><path d="M50,20H49V18a2.02,2.02,0,0,0-1.23-1.85A2.915,2.915,0,0,0,48,15V13h2V11H48a1,1,0,0,0-1-1H37a1,1,0,0,0-1,1H34v2h2v2a2.915,2.915,0,0,0,.23,1.15A2.02,2.02,0,0,0,35,18v2H29V18a2.02,2.02,0,0,0-1.23-1.85A2.915,2.915,0,0,0,28,15V13h2V11H28a1,1,0,0,0-1-1H17a1,1,0,0,0-1,1H14v2h2v2a2.915,2.915,0,0,0,.23,1.15A2.02,2.02,0,0,0,15,18v2H14a3.009,3.009,0,0,0-3,3V55a3.009,3.009,0,0,0,3,3h1v3a1,1,0,0,0,1,1h4a.977.977,0,0,0,.89-.55L22.62,58H41.38l1.73,3.45A.977.977,0,0,0,44,62h4a1,1,0,0,0,1-1V58h1a3.009,3.009,0,0,0,3-3V23A3.009,3.009,0,0,0,50,20ZM38,12h8v3a1,1,0,0,1-1,1H39a1,1,0,0,1-1-1Zm-1,6H47v2H37ZM18,12h8v3a1,1,0,0,1-1,1H19a1,1,0,0,1-1-1Zm-1,6H27v2H17Zm2.38,42H17V58h3.38ZM47,60H44.62l-1-2H47Zm4-5a1,1,0,0,1-1,1H14a1,1,0,0,1-1-1V30H51Zm0-27H13V23a1,1,0,0,1,1-1H50a1,1,0,0,1,1,1Z"></path><rect x="17" y="24" width="2" height="2"></rect><rect x="21" y="24" width="2" height="2"></rect><rect x="25" y="24" width="2" height="2"></rect><rect x="37" y="24" width="2" height="2"></rect><rect x="41" y="24" width="2" height="2"></rect><rect x="45" y="24" width="2" height="2"></rect><path d="M46,32H18a3,3,0,0,0-3,3V51a3,3,0,0,0,3,3H46a3,3,0,0,0,3-3V35A3,3,0,0,0,46,32Zm1,19a1,1,0,0,1-1,1H18a1,1,0,0,1-1-1V35a1,1,0,0,1,1-1H46a1,1,0,0,1,1,1Z"></path><rect x="28" y="36" width="8" height="2"></rect><path d="M21.832,5.555A5.744,5.744,0,0,0,23,2H21a3.78,3.78,0,0,1-.832,2.445A5.744,5.744,0,0,0,19,8h2A3.78,3.78,0,0,1,21.832,5.555Z"></path><path d="M25,8a3.78,3.78,0,0,1,.832-2.445A5.744,5.744,0,0,0,27,2H25a3.78,3.78,0,0,1-.832,2.445A5.744,5.744,0,0,0,23,8Z"></path><path d="M41.832,5.555A5.744,5.744,0,0,0,43,2H41a3.78,3.78,0,0,1-.832,2.445A5.744,5.744,0,0,0,39,8h2A3.78,3.78,0,0,1,41.832,5.555Z"></path><path d="M45,8a3.78,3.78,0,0,1,.832-2.445A5.744,5.744,0,0,0,47,2H45a3.78,3.78,0,0,1-.832,2.445A5.744,5.744,0,0,0,43,8Z"></path></g></svg>