<svg xmlns="http://www.w3.org/2000/svg" viewBox="0 0 64 64" x="0px" y="0px"><g><path d="M60,8.41l1.71-1.7A1.033,1.033,0,0,0,62,6V4a1,1,0,0,0-1-1H3A1,1,0,0,0,2,4V6a1.033,1.033,0,0,0,.29.71L4,8.41V51.59l-1.71,1.7A1.033,1.033,0,0,0,2,54v2a1,1,0,0,0,1,1H6v3a1,1,0,0,0,1,1h4a.977.977,0,0,0,.89-.55L13.62,57H50.38l1.73,3.45A.988.988,0,0,0,53,61h4a1,1,0,0,0,1-1V57h3a1,1,0,0,0,1-1V54a1.033,1.033,0,0,0-.29-.71L60,51.59ZM10.38,59H8V57h3.38ZM56,59H53.62l-1-2H56Zm4-4H4v-.59L5.41,53H58.59L60,54.41ZM55,19H54V16a1,1,0,0,0-1-1H42V14a1,1,0,0,0-1-1H30V12a1,1,0,0,0-1-1H25a1,1,0,0,0-1,1v1H19a1,1,0,0,0-1,1v1H16V12a1,1,0,0,0-1-1H9a1,1,0,0,0-1,1V27H6V9H58V27H56V20A1,1,0,0,0,55,19ZM44,21v2H42V21Zm-2-2V17H52v2Zm12,6v2H42V25Zm-8-2V21h8v2Zm-6-8V27H36V15ZM30,23V21h4v2Zm4,2v2H30V25Zm-4-6V15h4v4Zm-4-2V13h2v4Zm2,2v8H26V19Zm-8,4V15h4v8Zm4,2v2H20V25Zm-6-8V27H16V17Zm-8,6V21h4v2Zm4,2v2H10V25Zm-4-6V13h4v6ZM58,29v2H6V29Zm0,4V51H56V38a1,1,0,0,0-1-1H50V36a1,1,0,0,0-1-1H45a1,1,0,0,0-1,1v1H39a1,1,0,0,0-1,1v1H36V36a1,1,0,0,0-1-1H25a1,1,0,0,0-1,1v1H19a1,1,0,0,0-1,1v1H16V36a1,1,0,0,0-1-1H9a1,1,0,0,0-1,1V51H6V33ZM50,47V39h4v8Zm4,2v2H50V49Zm-8-8V37h2v4Zm2,2v8H46V43Zm-8,4V39h4v8Zm4,2v2H40V49Zm-6-8V51H36V41Zm-8,6V45h4v2Zm4,2v2H30V49Zm-4-6V37h4v6Zm-4-2V37h2v4Zm2,2v8H26V43Zm-8,4V39h4v8Zm4,2v2H20V49Zm-6-8V51H16V41Zm-8,6V45h4v2Zm4,2v2H10V49Zm-4-6V37h4v6ZM58.59,7H5.41L4,5.59V5H60v.59Z"></path></g></svg>