<svg xmlns="http://www.w3.org/2000/svg" viewBox="0 0 64 64" x="0px" y="0px"><g data-name="Travel"><circle cx="22" cy="59" r="1"></circle><circle cx="42" cy="59" r="1"></circle><polygon points="38.781 38 38.281 40 39.719 40 39.219 38 38.781 38"></polygon><path d="M47,56a1,1,0,0,0,1-1V25a1,1,0,0,0-1-1H17a1,1,0,0,0-1,1V55a1,1,0,0,0,1,1h1V29a3,3,0,0,1,3-3H43a3,3,0,0,1,3,3V56Z"></path><path d="M37.03,36.757A1,1,0,0,1,38,36V34H20V56H44V34H40v2a1,1,0,0,1,.97.757l1,4A1,1,0,0,1,41,42H37a1,1,0,0,1-.97-1.243ZM40,47v2H38v2H36V49H24V47Z"></path><path d="M44,29a1,1,0,0,0-1-1H21a1,1,0,0,0-1,1v3H44Z"></path><rect x="26" y="8" width="2" height="14"></rect><rect x="24" y="4" width="16" height="2"></rect><rect x="36" y="8" width="2" height="14"></rect></g></svg>