<svg xmlns="http://www.w3.org/2000/svg" viewBox="0 0 64 64" x="0px" y="0px"><g><path d="M58,9H52a1,1,0,0,0-1,1V51a.989.989,0,0,0,.081.394l3,7a1,1,0,0,0,1.838,0l3-7A.989.989,0,0,0,59,51V10A1,1,0,0,0,58,9Zm-1,2v4H53V11ZM53,49V20h4V49Zm0-31V17h4v1Zm2,37.461L53.088,51h3.824Z"></path><path d="M46,4H39V2H37V4H33V2H31V4H27V2H25V4H21V2H19V4H15V2H13V4H6A1,1,0,0,0,5,5V61a1,1,0,0,0,1,1H46a1,1,0,0,0,1-1V5A1,1,0,0,0,46,4ZM7,6h6V8h2V6h4V8h2V6h4V8h2V6h4V8h2V6h4V8h2V6h6v6H7ZM45,60H7V14H45Z"></path><rect x="11" y="18" width="30" height="2"></rect><rect x="11" y="24" width="30" height="2"></rect><rect x="11" y="30" width="30" height="2"></rect><rect x="11" y="36" width="30" height="2"></rect><rect x="11" y="42" width="30" height="2"></rect><rect x="11" y="48" width="30" height="2"></rect><rect x="11" y="54" width="30" height="2"></rect></g></svg>