<svg xmlns="http://www.w3.org/2000/svg" viewBox="0 0 64 64" x="0px" y="0px"><title>Trophy-Love</title><g><path d="M36.005,12h-.014A5.884,5.884,0,0,0,32,13.545,5.9,5.9,0,0,0,28.018,12H28a5.976,5.976,0,0,0-6,5.993c0,2.375,1.2,4.829,3.567,7.3a28.44,28.44,0,0,0,5.946,4.586,1,1,0,0,0,.97,0C32.874,29.658,42,24.516,42,18a5.994,5.994,0,0,0-5.992-6ZM32,27.838a26.679,26.679,0,0,1-4.99-3.937C25.011,21.823,24,19.837,24,18A3.974,3.974,0,0,1,28,14h.012A3.97,3.97,0,0,1,31.2,15.628a1,1,0,0,0,1.6-.005A3.94,3.94,0,0,1,35.993,14H36A3.993,3.993,0,0,1,40,18C40,22.587,33.8,26.73,32,27.838Z"></path><path d="M54,6H51V5a3,3,0,0,0-3-3H16a3,3,0,0,0-3,3V6H10a5.006,5.006,0,0,0-5,5v6a5.006,5.006,0,0,0,5,5h3.047A18.944,18.944,0,0,0,29,39.742V54H22a5.006,5.006,0,0,0-5,5v2a1,1,0,0,0,1,1H46a1,1,0,0,0,1-1V59a5.006,5.006,0,0,0-5-5H35V39.743A18.945,18.945,0,0,0,50.953,22H54a5.006,5.006,0,0,0,5-5V11A5.006,5.006,0,0,0,54,6ZM15,5a1,1,0,0,1,1-1H48a1,1,0,0,1,1,1V6H15ZM7,17V11a3,3,0,0,1,3-3h3V20H10A3,3,0,0,1,7,17ZM45,59v1H19V59a3,3,0,0,1,3-3H42A3,3,0,0,1,45,59ZM31,54V39.974c.018,0,.035,0,.053,0,.319.016.634.026.947.026s.628-.01.948-.026c.017,0,.034,0,.052,0V54Zm2.894-16.1A17.819,17.819,0,0,1,32,38c-.307,0-.615-.009-.929-.026s-.631-.044-.96-.079A16.977,16.977,0,0,1,15,21V8H49V21A16.977,16.977,0,0,1,33.894,37.9ZM57,17a3,3,0,0,1-3,3H51V8h3a3,3,0,0,1,3,3Z"></path></g></svg>