<svg xmlns="http://www.w3.org/2000/svg" viewBox="0 0 64 64" x="0px" y="0px"><g><path d="M60.63,44.43a2.835,2.835,0,0,0-2.11-1.51,3.194,3.194,0,0,0-2.52.76V34.97A4.952,4.952,0,0,0,58,31c0-2.4-3.48-7.56-4.18-8.57a1.033,1.033,0,0,0-1.64,0C51.48,23.44,48,28.6,48,31a4.952,4.952,0,0,0,2,3.97v8.66a4.065,4.065,0,0,1-.85-1.55,4.991,4.991,0,0,1-.11-.53,3.135,3.135,0,0,0-1.61-2.31,2.821,2.821,0,0,0-2.59-.06,11.957,11.957,0,0,0-4.86,4.22,8.643,8.643,0,0,0-2.29-1.1L32,40.52V38a1.005,1.005,0,0,0-1.35-.94l-2.65,1v-.17a4.984,4.984,0,0,0,3.22-2.21A5.058,5.058,0,0,0,33,36a5,5,0,0,0,5-5,4.9,4.9,0,0,0-.33-1.79A4.989,4.989,0,0,0,35,20V15h.3a3.7,3.7,0,0,0,.59-7.35L25.8,6.02A2.984,2.984,0,0,0,26,5a3,3,0,0,0-6,0c0,.03.01.06.01.09L12.49,3.87A5.6,5.6,0,1,0,11,14.97V20a4.989,4.989,0,0,0-2.67,9.21A4.9,4.9,0,0,0,8,31a5,5,0,0,0,5,5,5.058,5.058,0,0,0,1.78-.32A4.984,4.984,0,0,0,18,37.89v.17l-2.65-1A1.005,1.005,0,0,0,14,38v2.52L8.31,42.29A8.963,8.963,0,0,0,2,50.88V61a1,1,0,0,0,1,1H43a1,1,0,0,0,1-1v-.65a11.817,11.817,0,0,0,5.53,1.64c.14,0,.28.01.42.01A12.6,12.6,0,0,0,52,61.82a2.973,2.973,0,0,0,3.49-1.14,12.013,12.013,0,0,0,5.14-16.25ZM10,60H4V50.88A6.964,6.964,0,0,1,8.91,44.2L10,43.86Zm4,0H12V43.24l2-.63Zm9-26a9.014,9.014,0,0,1-9-9V19H32v6A9.014,9.014,0,0,1,23,34Zm-3,4.81V35.57a10.68,10.68,0,0,0,6,0v3.24l-3,1.12Zm9.36,7.64L23,54.4l-6.36-7.95L23,44.07ZM13,17V15H33v2Zm25,8a2.968,2.968,0,0,1-2.02,2.81,1.035,1.035,0,0,0-.62.64.99.99,0,0,0,.13.88A2.964,2.964,0,0,1,36,31a3.009,3.009,0,0,1-3,3,2.911,2.911,0,0,1-1.67-.51,1,1,0,0,0-1.5.5A2.991,2.991,0,0,1,28,35.82V34.79A11.014,11.014,0,0,0,34,25V22.12a.817.817,0,0,0,.27-.01A2.876,2.876,0,0,1,35,22,3.009,3.009,0,0,1,38,25ZM23,4a1,1,0,0,1,1,1,.97.97,0,0,1-.28.68l-1.61-.26A.821.821,0,0,1,22,5,1,1,0,0,1,23,4ZM8,9.4a3.608,3.608,0,0,1,3.6-3.6,3.657,3.657,0,0,1,.57.05l23.4,3.77A1.7,1.7,0,0,1,35.3,13H11.6A3.6,3.6,0,0,1,8,9.4Zm8.17,24.59a1,1,0,0,0-1.5-.5A2.911,2.911,0,0,1,13,34a3.009,3.009,0,0,1-3-3,2.964,2.964,0,0,1,.51-1.67.99.99,0,0,0,.13-.88,1.035,1.035,0,0,0-.62-.64A2.968,2.968,0,0,1,8,25a3.009,3.009,0,0,1,3-3,2.876,2.876,0,0,1,.73.11.817.817,0,0,0,.27.01V25a11.014,11.014,0,0,0,6,9.79v1.03A2.991,2.991,0,0,1,16.17,33.99ZM16,39.44l6,2.25v.62l-6,2.25ZM30,60H16V48.85l6.22,7.77a.991.991,0,0,0,1.56,0L30,48.85Zm0-15.44-6-2.25v-.62l6-2.25ZM34,60H32V42.61l2,.63Zm8,0H36V43.86l1.09.35a6.608,6.608,0,0,1,1.94.95A11.857,11.857,0,0,0,42,58.88Zm7.6-.01a10.082,10.082,0,0,1-9.57-9.26,9.955,9.955,0,0,1,5.67-9.75.85.85,0,0,1,.79.03,1.093,1.093,0,0,1,.57.82,5.754,5.754,0,0,0,.17.78A6.048,6.048,0,0,0,50,46.19V59a2.934,2.934,0,0,0,.18.98C49.98,59.98,49.79,60,49.6,59.99ZM54,59a1,1,0,0,1-2,0V40h2Zm0-21H52V35.9a5.05,5.05,0,0,0,2,0Zm-1-4a3.009,3.009,0,0,1-3-3c0-1.09,1.56-3.94,3-6.19,1.44,2.25,3,5.1,3,6.19A3.009,3.009,0,0,1,53,34Zm3,23.98V46.16a5.871,5.871,0,0,0,1.22-.91,1.19,1.19,0,0,1,1-.35.828.828,0,0,1,.64.46A10.043,10.043,0,0,1,60,50,9.913,9.913,0,0,1,56,57.98Z"></path><path d="M45,45a3,3,0,1,0,3,3A3,3,0,0,0,45,45Zm0,4a1,1,0,1,1,1-1A1,1,0,0,1,45,49Z"></path><rect x="22" y="46" width="2" height="2"></rect><rect x="22" y="50" width="2" height="2"></rect><circle cx="19" cy="22" r="2"></circle><circle cx="27" cy="22" r="2"></circle><path d="M26.532,28.542l-1.4-1.424a3.082,3.082,0,0,1-4.256,0l-1.4,1.424a5.007,5.007,0,0,0,7.064,0Z"></path></g></svg>