<svg xmlns="http://www.w3.org/2000/svg" viewBox="0 0 64 64" x="0px" y="0px"><g data-name="Book"><path d="M22,34a2,2,0,0,1,2,2,1,1,0,0,0,1,1H49a1,1,0,0,0,1-1,2,2,0,0,1,2-2,1,1,0,0,0,1-1V19a1,1,0,0,0-1-1,2,2,0,0,1-2-2,1,1,0,0,0-1-1H25a1,1,0,0,0-1,1,2,2,0,0,1-2,2,1,1,0,0,0-1,1V33A1,1,0,0,0,22,34Zm1-14.126A4.016,4.016,0,0,0,25.874,17H48.127A4.015,4.015,0,0,0,51,19.874V32.126A4.015,4.015,0,0,0,48.127,35H25.874A4.016,4.016,0,0,0,23,32.126Z"></path><rect x="27" y="21" width="20" height="2"></rect><rect x="27" y="25" width="20" height="2"></rect><rect x="27" y="29" width="20" height="2"></rect><path d="M58,2H12A7.008,7.008,0,0,0,5,9V55a7.008,7.008,0,0,0,7,7H58a1,1,0,0,0,1-1V3A1,1,0,0,0,58,2ZM57,48H17V4H57ZM13,4h2V48H13ZM7,9a5.009,5.009,0,0,1,4-4.9V17.08a6.98,6.98,0,0,0-4,2.03ZM7,24a5.009,5.009,0,0,1,4-4.9V34.08a6.98,6.98,0,0,0-4,2.03Zm4,12.1V48.08a6.988,6.988,0,0,0-4,2.025V41A5.009,5.009,0,0,1,11,36.1ZM12,60a5,5,0,0,1,0-10H57v2H13a3,3,0,0,0,0,6H57v2Zm45-6v2H13a1,1,0,0,1,0-2Z"></path></g></svg>