<svg xmlns="http://www.w3.org/2000/svg" viewBox="0 0 64 64" x="0px" y="0px"><title>Wireless Keyboard</title><g data-name="Wireless Keyboard"><path d="M59,22H5a3,3,0,0,0-3,3V47a3,3,0,0,0,3,3H59a3,3,0,0,0,3-3V25A3,3,0,0,0,59,22Zm1,25a1,1,0,0,1-1,1H5a1,1,0,0,1-1-1V25a1,1,0,0,1,1-1H59a1,1,0,0,1,1,1Z"></path><path d="M51,40H13a1,1,0,0,0-1,1v4a1,1,0,0,0,1,1H51a1,1,0,0,0,1-1V41A1,1,0,0,0,51,40Zm-1,4H14V42H50Z"></path><path d="M10,40H6a1,1,0,0,0-1,1v4a1,1,0,0,0,1,1h4a1,1,0,0,0,1-1V41A1,1,0,0,0,10,40ZM9,44H7V42H9Z"></path><path d="M6,39h7a1,1,0,0,0,1-1V34a1,1,0,0,0-1-1H6a1,1,0,0,0-1,1v4A1,1,0,0,0,6,39Zm1-4h5v2H7Z"></path><path d="M16,39h4a1,1,0,0,0,1-1V34a1,1,0,0,0-1-1H16a1,1,0,0,0-1,1v4A1,1,0,0,0,16,39Zm1-4h2v2H17Z"></path><path d="M23,39h4a1,1,0,0,0,1-1V34a1,1,0,0,0-1-1H23a1,1,0,0,0-1,1v4A1,1,0,0,0,23,39Zm1-4h2v2H24Z"></path><path d="M30,39h4a1,1,0,0,0,1-1V34a1,1,0,0,0-1-1H30a1,1,0,0,0-1,1v4A1,1,0,0,0,30,39Zm1-4h2v2H31Z"></path><path d="M37,39h4a1,1,0,0,0,1-1V34a1,1,0,0,0-1-1H37a1,1,0,0,0-1,1v4A1,1,0,0,0,37,39Zm1-4h2v2H38Z"></path><path d="M44,39h4a1,1,0,0,0,1-1V34a1,1,0,0,0-1-1H44a1,1,0,0,0-1,1v4A1,1,0,0,0,44,39Zm1-4h2v2H45Z"></path><path d="M58,33H51a1,1,0,0,0-1,1v4a1,1,0,0,0,1,1h7a1,1,0,0,0,1-1V34A1,1,0,0,0,58,33Zm-1,4H52V35h5Z"></path><path d="M9,32h4a1,1,0,0,0,1-1V27a1,1,0,0,0-1-1H9a1,1,0,0,0-1,1v4A1,1,0,0,0,9,32Zm1-4h2v2H10Z"></path><path d="M16,32h4a1,1,0,0,0,1-1V27a1,1,0,0,0-1-1H16a1,1,0,0,0-1,1v4A1,1,0,0,0,16,32Zm1-4h2v2H17Z"></path><path d="M23,32h4a1,1,0,0,0,1-1V27a1,1,0,0,0-1-1H23a1,1,0,0,0-1,1v4A1,1,0,0,0,23,32Zm1-4h2v2H24Z"></path><path d="M30,32h4a1,1,0,0,0,1-1V27a1,1,0,0,0-1-1H30a1,1,0,0,0-1,1v4A1,1,0,0,0,30,32Zm1-4h2v2H31Z"></path><path d="M37,32h4a1,1,0,0,0,1-1V27a1,1,0,0,0-1-1H37a1,1,0,0,0-1,1v4A1,1,0,0,0,37,32Zm1-4h2v2H38Z"></path><path d="M44,32h4a1,1,0,0,0,1-1V27a1,1,0,0,0-1-1H44a1,1,0,0,0-1,1v4A1,1,0,0,0,44,32Zm1-4h2v2H45Z"></path><path d="M51,32h4a1,1,0,0,0,1-1V27a1,1,0,0,0-1-1H51a1,1,0,0,0-1,1v4A1,1,0,0,0,51,32Zm1-4h2v2H52Z"></path><path d="M58,40H54a1,1,0,0,0-1,1v4a1,1,0,0,0,1,1h4a1,1,0,0,0,1-1V41A1,1,0,0,0,58,40Zm-1,4H55V42h2Z"></path><path d="M32,13a5.006,5.006,0,0,0-5,5h2a3,3,0,0,1,6,0h2A5.006,5.006,0,0,0,32,13Z"></path><path d="M41,18a9,9,0,0,0-18,0h2a7,7,0,0,1,14,0Z"></path><path d="M32,7A11.013,11.013,0,0,1,43,18h2a13,13,0,0,0-26,0h2A11.013,11.013,0,0,1,32,7Z"></path></g></svg>