<svg xmlns="http://www.w3.org/2000/svg" viewBox="0 0 64 64" x="0px" y="0px"><g><path d="M38,49V39a1,1,0,0,1,1-1H49V33H37.535l-1.7,2.555a1.013,1.013,0,0,1-.979.434,1,1,0,0,1-.811-.7L31.95,28.312l-3,9A1,1,0,0,1,28,38h-.052a1,1,0,0,1-.925-.782l-1.388-6.25-.74,1.48A1,1,0,0,1,24,33H15v5H25a1,1,0,0,1,1,1V49Z"></path><path d="M49,26H39a1,1,0,0,1-1-1V15H26V25a1,1,0,0,1-1,1H15v5h8.382l1.723-3.447a.988.988,0,0,1,1.017-.545,1,1,0,0,1,.855.775l1.216,5.476,2.859-8.575A1,1,0,0,1,32,24h.016a1,1,0,0,1,.942.713l2.389,7.964.821-1.232A1,1,0,0,1,37,31H49Z"></path><rect x="4" y="31" width="11" height="2"></rect><rect x="49" y="31" width="11" height="2"></rect></g></svg>