<svg xmlns="http://www.w3.org/2000/svg" viewBox="0 0 64 64" x="0px" y="0px"><g><path d="M19,32A13,13,0,1,0,32,45,13.015,13.015,0,0,0,19,32Zm0,24A11,11,0,1,1,30,45,11.013,11.013,0,0,1,19,56Z"></path><path d="M18,42h2a1,1,0,0,1,1,1h2a3,3,0,0,0-3-3V39H18v1a3,3,0,0,0,0,6h2a1,1,0,0,1,0,2H18a1,1,0,0,1-1-1H15a3,3,0,0,0,3,3v1h2V50a3,3,0,0,0,0-6H18a1,1,0,0,1,0-2Z"></path><path d="M61,2H19a1,1,0,0,0-1,1V20H15a1,1,0,0,0-1,1v4a1,1,0,0,0,1,1h1v2.28a16.806,16.806,0,0,0-6.7,2.78L6.98,28.73a1.008,1.008,0,0,0-1.42,0L2.73,31.56a1.008,1.008,0,0,0,0,1.42L5.06,35.3A16.985,16.985,0,1,0,35.95,46H61a1,1,0,0,0,1-1V3A1,1,0,0,0,61,2ZM36,4h8V17.23l-3.49-2.09a1,1,0,0,0-1.02,0L36,17.23ZM20,4H34v8H20ZM16,22h6v2H16Zm4,4v2.05c-.33-.02-.66-.05-1-.05s-.67.03-1,.05V26ZM4.85,32.27l1.42-1.42,1.46,1.46a15.858,15.858,0,0,0-1.42,1.42ZM19,60A15,15,0,1,1,34,45,15.018,15.018,0,0,1,19,60ZM30.27,32.31l1.46-1.46,1.42,1.42-1.46,1.46A15.858,15.858,0,0,0,30.27,32.31ZM60,44H35.95a16.931,16.931,0,0,0-3.01-8.7l2.33-2.32a1.008,1.008,0,0,0,0-1.42l-2.83-2.83a1.008,1.008,0,0,0-1.42,0L28.7,31.06A16.806,16.806,0,0,0,22,28.28V26h1a1,1,0,0,0,1-1V21a1,1,0,0,0-1-1H20V14H34v5a1,1,0,0,0,1.51.86L40,17.17l4.49,2.69A1,1,0,0,0,45,20a.947.947,0,0,0,.49-.13A.992.992,0,0,0,46,19V14H60Zm0-32H46V4H60Z"></path><rect x="56" y="36" width="2" height="6"></rect><rect x="52" y="36" width="2" height="6"></rect><rect x="48" y="36" width="2" height="6"></rect><rect x="44" y="40" width="2" height="2"></rect><rect x="44" y="36" width="2" height="2"></rect></g></svg>