<svg xmlns="http://www.w3.org/2000/svg" viewBox="0 0 64 64" x="0px" y="0px"><g data-name="Team"><rect x="8.9" y="42.824" width="10" height="16" transform="translate(-26.638 17.164) rotate(-35)"></rect><path d="M60.4,40.818a1.964,1.964,0,0,0-.092-1.03,2.005,2.005,0,0,0-2.565-1.2l-9.961,3.625A4.011,4.011,0,0,1,43.235,45L32.426,43.1l.348-1.97,10.81,1.91a2,2,0,0,0,2.29-1.414,1.719,1.719,0,0,0,.042-.844,1.889,1.889,0,0,0-.327-.857,2.017,2.017,0,0,0-1.3-.826L34.246,37.325a19.055,19.055,0,0,0-8.845.542l-.183.05a18.922,18.922,0,0,0-5.313,2.6l-3.138,2.2,6.314,9.018a10.907,10.907,0,0,1,8.093-1.747l1.786.309a10.986,10.986,0,0,0,5.679-.494l20.469-7.45A1.97,1.97,0,0,0,60.4,40.818Z"></path><path d="M28,17V15.885a2.981,2.981,0,0,1-1.293-.764L26,14.414l-.122.122A4.966,4.966,0,0,1,22.343,16H22v1a3,3,0,0,0,6,0Z"></path><path d="M29.9,18.015A4.992,4.992,0,0,1,28,20.974v1.1a6.977,6.977,0,0,1,3.46,1.542,2.992,2.992,0,0,0-.707-5.514A2.759,2.759,0,0,0,29.9,18.015Z"></path><path d="M20,15a1,1,0,0,1,1-1h1.343a3.02,3.02,0,0,0,2.121-.878l.829-.829a1,1,0,0,1,1.414,0l1.414,1.414a1,1,0,0,0,.708.293H29a1,1,0,0,1,1,1V14a5.006,5.006,0,0,0-5-5,5.009,5.009,0,0,0-5,5Z"></path><path d="M24,21.9v.687l1,1,1-1V21.9a5,5,0,0,1-2,0Z"></path><path d="M32,29a4.991,4.991,0,0,0-4.624-4.962l-1.669,1.669a1,1,0,0,1-1.414,0l-1.669-1.669A4.991,4.991,0,0,0,18,29v2H32Z"></path><path d="M17,21a2.987,2.987,0,0,0,1.54,2.613A6.977,6.977,0,0,1,22,22.071v-1.1a4.992,4.992,0,0,1-1.9-2.966,2.653,2.653,0,0,0-.831.085A2.994,2.994,0,0,0,17,21Z"></path><path d="M41,14h1.343a2.983,2.983,0,0,0,2.122-.878l.828-.829a1,1,0,0,1,1.414,0l1.414,1.414a1.009,1.009,0,0,0,.707.293H49V13a4,4,0,0,0-8,0Z"></path><path d="M48,17V15.87a2.96,2.96,0,0,1-1.293-.749L46,14.415l-.121.121A4.968,4.968,0,0,1,42.343,16H42v1a3,3,0,0,0,6,0Z"></path><path d="M38,31H52V29a4.991,4.991,0,0,0-4.624-4.962l-1.669,1.669a1,1,0,0,1-1.414,0l-1.669-1.669A4.991,4.991,0,0,0,38,29Z"></path><path d="M44,21.9v.687l1,1,1-1V21.9a5,5,0,0,1-2,0Z"></path></g></svg>