<svg xmlns="http://www.w3.org/2000/svg" viewBox="0 0 64 64" x="0px" y="0px"><g><path d="M29.392,4A17.9,17.9,0,0,0,12.934,15.229L6.385,35H12v9a5.006,5.006,0,0,0,5,5H31v2H26v9H48V49h1a9.011,9.011,0,0,0,9-9V25.315A6.984,6.984,0,0,1,48,19a1,1,0,0,1,1-1h.343l4.033-8H46V32h3a1,1,0,0,1,1,1v2h3v2H33V35h3V33a1,1,0,0,1,1-1h3V10H32.618l4,8H37a1,1,0,0,1,1,1,7,7,0,0,1-14,0,1,1,0,0,1,1-1h.343l4.764-9.45A1,1,0,0,1,31,8h9.184A2.966,2.966,0,0,1,40,7a3,3,0,0,1,3-3H29.392ZM17.5,26A4.505,4.505,0,0,1,13,21.5h2a2.5,2.5,0,0,0,5,0h2A4.505,4.505,0,0,1,17.5,26Z"></path><path d="M46,7a2.966,2.966,0,0,1-.184,1h7.339A14.9,14.9,0,0,0,43,4,3,3,0,0,1,46,7Z"></path><path d="M55,24a5.008,5.008,0,0,0,4.9-4H50.1A5.008,5.008,0,0,0,55,24Z"></path><path d="M57.956,18c-.024-.364-.064-.723-.114-1.08L55,11.228,51.582,18Z"></path><rect x="38" y="34" width="10" height="1"></rect><path d="M31,24a5.008,5.008,0,0,0,4.9-4H26.1A5.008,5.008,0,0,0,31,24Z"></path><polygon points="27.582 18 34.382 18 30.996 11.228 27.582 18"></polygon><rect x="42" y="10" width="2" height="22"></rect><circle cx="43" cy="7" r="1"></circle></g></svg>