<svg xmlns="http://www.w3.org/2000/svg" viewBox="0 0 64 64" x="0px" y="0px"><g><circle cx="59" cy="22" r="2"></circle><circle cx="48" cy="10" r="2"></circle><path d="M60,18H58V14a3,3,0,0,0-3-3H52V9h3a5.006,5.006,0,0,1,5,5Z"></path><path d="M47.8,44.687a1,1,0,0,1,.706.765L48.819,47h2.362l.309-1.548a1,1,0,0,1,.706-.765,7.946,7.946,0,0,0,1.688-.7,1,1,0,0,1,1.042.041l1.31.874,1.669-1.67-.873-1.31a1,1,0,0,1-.042-1.04,7.951,7.951,0,0,0,.7-1.69,1,1,0,0,1,.765-.706L60,38.18V35.82l-1.548-.31a1,1,0,0,1-.765-.706,7.951,7.951,0,0,0-.7-1.69,1,1,0,0,1,.042-1.04l.873-1.31-1.669-1.67-1.31.874a1,1,0,0,1-1.042.041,7.946,7.946,0,0,0-1.688-.7,1,1,0,0,1-.706-.765L51.181,27H48.819l-.309,1.548a1,1,0,0,1-.706.765,7.946,7.946,0,0,0-1.688.7,1,1,0,0,1-1.042-.041l-1.31-.874L42.1,30.764l.873,1.31a1,1,0,0,1,.042,1.04,7.951,7.951,0,0,0-.7,1.69,1,1,0,0,1-.765.706L40,35.82v2.36l1.548.31a1,1,0,0,1,.765.706,7.951,7.951,0,0,0,.7,1.69,1,1,0,0,1-.042,1.04l-.873,1.31,1.669,1.67,1.31-.874a1,1,0,0,1,1.042-.041A7.946,7.946,0,0,0,47.8,44.687ZM44,37a6,6,0,1,1,6,6A6.006,6.006,0,0,1,44,37Z"></path><path d="M42.929,46.9,40.1,44.071a1,1,0,0,1-.125-1.262l1-1.5a9.7,9.7,0,0,1-.4-.971L38.8,39.98A1,1,0,0,1,38,39V35a1,1,0,0,1,.8-.98l1.774-.355a9.7,9.7,0,0,1,.4-.971l-1-1.5a1,1,0,0,1,.125-1.262L42.929,27.1a1,1,0,0,1,1.261-.125l1.5,1a10.076,10.076,0,0,1,.97-.4L47.02,25.8A1,1,0,0,1,48,25h.227A17.107,17.107,0,0,0,44,18.007a1,1,0,0,1-.2.593l-3,4a1,1,0,0,1-.8.4H16.536a16.613,16.613,0,0,0-1.015,2.849c-.034.137-.072.273-.1.412q-.177.788-.277,1.6c-.017.135-.029.272-.043.408-.057.573-.1,1.15-.1,1.736v.351L13.784,31.87,8.081,39H13v8a3,3,0,0,0,3,3h7V60H43V46.949A.7.7,0,0,1,42.929,46.9ZM33,40a3,3,0,0,1-2.816-2H28a5.006,5.006,0,0,1-5-5V30.816a3,3,0,1,1,2,0V33a3,3,0,0,0,3,3h2.184A2.995,2.995,0,1,1,33,40Z"></path><circle cx="33" cy="37" r="1"></circle><circle cx="24" cy="28" r="1"></circle><circle cx="15" cy="14" r="1"></circle><path d="M39.5,21,42,17.667V14.333L39.5,11H37.414L35,13.414v.77a3,3,0,1,1-2,0V13a1,1,0,0,1,.293-.707l2.49-2.49L34.382,7H26.414L25,8.414v.968l.923.462A2.994,2.994,0,1,1,25,12a2.9,2.9,0,0,1,.037-.363L23.553,10.9A1,1,0,0,1,23,10V8a1,1,0,0,1,.293-.707l1.42-1.42L23.465,4H18V5.382l1.447.723L18.553,7.9l-2-1A1,1,0,0,1,16,6V4H14.677L13.23,7.618l2.325,1.55A1,1,0,0,1,16,10v1.184a3,3,0,1,1-2,0v-.649L11.7,9H8.351L4,12.48V13H6.586l.707-.707,1.414,1.414-1,1A1,1,0,0,1,7,15H4v2.667l2,2.666L8.2,17.4A1,1,0,0,1,9,17h2v2H9.5L8,21H26V19.386L24.614,18H21.057a1,1,0,0,1-.707-.293l-1.015-1.014,1.415-1.414.721.721h3.557a1,1,0,0,1,.707.293l1.972,1.972a1,1,0,0,1,.293.707V21Z"></path><circle cx="28" cy="12" r="1"></circle><circle cx="50" cy="37" r="4"></circle><circle cx="34" cy="17" r="1"></circle></g></svg>