<svg xmlns="http://www.w3.org/2000/svg" viewBox="0 0 64 64" x="0px" y="0px"><g data-name="Tow Truck-Crane-Vehicle-Car-Crane Truck"><path d="M31,25H29.512a2.005,2.005,0,0,0-1.623.832l-2.977,4.137a1.051,1.051,0,0,0-.083.136A2,2,0,0,0,26.618,33H31a2,2,0,0,0,2-2V27A2,2,0,0,0,31,25Zm0,6H26.634l2.878-4H31Z"></path><rect x="29" y="35" width="4" height="2"></rect><path d="M18,44a3,3,0,1,0,3,3A3,3,0,0,0,18,44Zm0,4a1,1,0,1,1,1-1A1,1,0,0,1,18,48Z"></path><path d="M46,44a3,3,0,1,0,3,3A3,3,0,0,0,46,44Zm0,4a1,1,0,1,1,1-1A1,1,0,0,1,46,48Z"></path><path d="M60.8,44.4l-5.41-2.32A1.006,1.006,0,0,0,55,42H50.89a6.968,6.968,0,0,0-4.52-1.98l-3.91-3.14,9.59-10.89a2.734,2.734,0,0,0,.5-.05l2.61,4.53-.37,1.36-1.36-.36-.79-1.37-1.74,1,1,1.73a1.056,1.056,0,0,0,.61.47l1.75.46a2.017,2.017,0,0,0,.54.08,1.914,1.914,0,0,0,.99-.27,1.968,1.968,0,0,0,.94-1.21l.47-1.77a1.055,1.055,0,0,0-.1-.76l-2.83-4.89a2.991,2.991,0,1,0-5.26-1.99L37,33.54V24a3.009,3.009,0,0,0-3-3V20a3,3,0,0,0-3-3,3.009,3.009,0,0,0-3,3v1a3.051,3.051,0,0,0-2.42,1.26l-5.95,8.41a.986.986,0,0,1-.7.47L8.34,32.55A5,5,0,0,0,4,37.5V43H3.62a2,2,0,0,0-1.79,2.89l1.13,2.26a2.016,2.016,0,0,0,.89.89l2.26,1.13a2.005,2.005,0,0,0,.89.21,1.968,1.968,0,0,0,1.05-.3.392.392,0,0,0,.1-.08h3.53a6.993,6.993,0,0,0,12.64,0H39.68a6.993,6.993,0,0,0,12.64,0H58a.984.984,0,0,0,.6-.2l2.62-1.96a2,2,0,0,0-.42-3.44ZM30,20a1,1,0,0,1,1-1,.949.949,0,0,1,.71.31A.928.928,0,0,1,32,20v1H30ZM6,38H8v2H6ZM7,48.38,4.75,47.25,3.62,45H7ZM18,52a5,5,0,1,1,5-5A5,5,0,0,1,18,52Zm17-4H24.92A6.634,6.634,0,0,0,25,47a7,7,0,0,0-14,0,6.634,6.634,0,0,0,.08,1H9V45a2.006,2.006,0,0,0-2-2H6V42H8a2.006,2.006,0,0,0,2-2V38a2.006,2.006,0,0,0-2-2H6.41A3.005,3.005,0,0,1,8.6,34.53l10.59-1.41a2.957,2.957,0,0,0,2.12-1.36l5.9-8.34a1.028,1.028,0,0,1,.82-.42H34a1,1,0,0,1,1,1ZM52,22a1,1,0,1,1-1,1A1,1,0,0,1,52,22Zm-2.25,2.96a3.967,3.967,0,0,0,.29.29L40.57,36H37.23ZM39,47a6.634,6.634,0,0,0,.08,1H37V44h2.68A7.02,7.02,0,0,0,39,47Zm-2-5V38h3.65l3.01,2.41A7.042,7.042,0,0,0,41.11,42Zm9,10a5,5,0,1,1,5-5A5,5,0,0,1,46,52Zm11.67-4H52.92A6.634,6.634,0,0,0,53,47a7.02,7.02,0,0,0-.68-3h2.47l5.23,2.24Z"></path><rect x="30" y="12" width="2" height="3"></rect><rect x="24.697" y="14.197" width="2" height="3" transform="translate(-3.573 22.768) rotate(-45)"></rect><rect x="34.803" y="14.697" width="3" height="2" transform="translate(-0.466 30.268) rotate(-45)"></rect></g></svg>