<svg xmlns="http://www.w3.org/2000/svg" viewBox="0 0 64 64" x="0px" y="0px"><g data-name="Garbage Truck"><path d="M61.288,28.535,56.44,20.457A3.013,3.013,0,0,0,53.868,19H40V12a1,1,0,0,0-1-1H34a1,1,0,0,0-.97.757l-.857,3.429L4.227,22.638A3,3,0,0,0,2,25.537V41a1,1,0,0,0,.143.515l3,5A1,1,0,0,0,6,47H8.08a6.991,6.991,0,0,0,13.84,0H42.08a6.991,6.991,0,0,0,13.84,0H59a3,3,0,0,0,3-3V31.108A5.009,5.009,0,0,0,61.288,28.535Zm-6.563-7.049L59.234,29H44V21h9.868A1,1,0,0,1,54.725,21.486ZM4,40.723V25.537a1,1,0,0,1,.743-.967l28.515-7.6a1,1,0,0,0,.712-.723L34.781,13H38V45H21.92A6.991,6.991,0,0,0,8.08,45H6.566ZM15,51a5,5,0,1,1,5-5A5.006,5.006,0,0,1,15,51Zm34,0a5,5,0,1,1,5-5A5.006,5.006,0,0,1,49,51Zm10-6H55.92a6.991,6.991,0,0,0-13.84,0H40V21h2v9a1,1,0,0,0,1,1H59.985c0,.036.015.071.015.108V33H56a2,2,0,0,0-2,2v2a2,2,0,0,0,2,2h4v2H57v2h3v1A1,1,0,0,1,59,45Zm1-10v2H56V35Z"></path><rect x="42" y="33" width="4" height="2"></rect><rect x="14" y="45" width="2" height="2"></rect><rect x="48" y="45" width="2" height="2"></rect><rect x="25" y="23" width="2" height="14"></rect><rect x="30" y="23" width="2" height="14"></rect><rect x="15" y="23" width="2" height="14"></rect><rect x="20" y="23" width="2" height="14"></rect></g></svg>