<svg xmlns="http://www.w3.org/2000/svg" viewBox="0 0 64 64" x="0px" y="0px"><g data-name="Setting"><polygon points="22.884 56.025 18.095 42.869 12.457 44.922 12.458 44.922 17.246 58.078 22.884 56.025"></polygon><rect x="7.153" y="47.21" width="6" height="12" transform="translate(-17.586 6.681) rotate(-19.999)"></rect><path d="M25.019,53.12a1,1,0,0,1,.662-.008l5.734,1.937,20.344-7.4a2,2,0,0,0-1.369-3.76L43.9,46.247a4.113,4.113,0,0,1-.042.537,4.016,4.016,0,0,1-4.636,3.259L27.965,48.057l.347-1.969L39.57,48.073a2.011,2.011,0,0,0,2.319-1.628,1.822,1.822,0,0,0-.008-.676c-.007-.035-.012-.069-.016-.1a1.278,1.278,0,0,0-.069-.25,1.983,1.983,0,0,0-1.532-1.286L26.938,41.779l-6.279,2.286,3.42,9.4Z"></path><circle cx="36" cy="20" r="6"></circle><path d="M29.155,30.6a1,1,0,0,1,1.081-.077,11.939,11.939,0,0,0,2.4.987,1,1,0,0,1,.71.818L33.867,36h4.266l.524-3.67a1,1,0,0,1,.71-.818,11.939,11.939,0,0,0,2.4-.987,1,1,0,0,1,1.081.077l2.961,2.22,3.016-3.016L46.6,26.845a1,1,0,0,1-.077-1.081,11.9,11.9,0,0,0,.987-2.4,1,1,0,0,1,.819-.71L52,22.133V17.867l-3.669-.523a1,1,0,0,1-.819-.71,12,12,0,0,0-.987-2.4,1,1,0,0,1,.077-1.081l2.22-2.961L45.806,7.178,42.845,9.4a1,1,0,0,1-1.081.077,11.939,11.939,0,0,0-2.4-.987,1,1,0,0,1-.71-.818L38.133,4H33.867l-.524,3.67a1,1,0,0,1-.71.818,11.939,11.939,0,0,0-2.4.987A1,1,0,0,1,29.155,9.4l-2.961-2.22-3.016,3.016,2.22,2.961a1,1,0,0,1,.077,1.081,12,12,0,0,0-.987,2.4,1,1,0,0,1-.819.71L20,17.867v4.266l3.669.523a1,1,0,0,1,.819.71,11.9,11.9,0,0,0,.987,2.4,1,1,0,0,1-.077,1.081l-2.22,2.961,3.016,3.016ZM48,19h2v2H48ZM24,21H22V19h2ZM37,34H35V32h2Zm9.606-4.808-1.414,1.414-1.414-1.414,1.414-1.414Zm-1.414-19.8,1.414,1.414-1.414,1.414-1.414-1.414ZM35,6h2V8H35Zm1,6a8,8,0,1,1-8,8A8.009,8.009,0,0,1,36,12ZM25.394,10.808l1.414-1.414,1.414,1.414-1.414,1.414Zm1.414,16.97,1.414,1.414-1.414,1.414-1.414-1.414Z"></path></g></svg>