<svg xmlns="http://www.w3.org/2000/svg" viewBox="0 0 64 64" x="0px" y="0px"><g data-name="Cashier"><rect x="33" y="16" width="10" height="2"></rect><rect x="45" y="16" width="2" height="2"></rect><rect x="33" y="20" width="10" height="2"></rect><rect x="45" y="20" width="2" height="2"></rect><rect x="33" y="24" width="10" height="2"></rect><rect x="45" y="24" width="2" height="2"></rect><rect x="33" y="28" width="10" height="2"></rect><rect x="45" y="28" width="2" height="2"></rect><path d="M61.9,50.553l-6-12A1,1,0,0,0,55,38H53V3a1,1,0,0,0-1.8-.6L49,5.333,46.8,2.4a1.036,1.036,0,0,0-1.6,0L43,5.335,40.789,2.4a1,1,0,0,0-.8-.4h0a1,1,0,0,0-.8.4L37,5.332,34.8,2.4a1.036,1.036,0,0,0-1.6,0L31,5.333,28.8,2.4A1,1,0,0,0,27,3V20H3a1,1,0,0,0-1,1V33a1,1,0,0,0,1,1H13v4H9a1,1,0,0,0-.895.553l-6,12A1,1,0,0,0,2,51v9a2,2,0,0,0,2,2H60a2,2,0,0,0,2-2V51A1,1,0,0,0,61.9,50.553ZM29,6l1.2,1.6a1.036,1.036,0,0,0,1.6,0L34,4.667,36.2,7.6A1,1,0,0,0,37,8h0a1,1,0,0,0,.8-.4l2.192-2.932L42.2,7.6A1,1,0,0,0,43,8h0a1,1,0,0,0,.8-.4L46,4.667,48.2,7.6a1.036,1.036,0,0,0,1.6,0L51,6V38H29V34h2a1,1,0,0,0,1-1V21a1,1,0,0,0-1-1H29ZM27,34v4H21V34ZM4,22H30V32H4ZM15,34h4v4H15ZM9.618,40H54.382l5,10H4.618ZM27,52H37v2H27ZM4,60V52H25v2a2,2,0,0,0,2,2H37a2,2,0,0,0,2-2V52H60v8Z"></path><rect x="10" y="46" width="2" height="2"></rect><rect x="14" y="46" width="2" height="2"></rect><rect x="18" y="46" width="28" height="2"></rect><rect x="48" y="46" width="2" height="2"></rect><rect x="52" y="46" width="2" height="2"></rect><rect x="15" y="42" width="2" height="2"></rect><rect x="11" y="42" width="2" height="2"></rect><rect x="19" y="42" width="2" height="2"></rect><rect x="23" y="42" width="2" height="2"></rect><rect x="27" y="42" width="2" height="2"></rect><rect x="31" y="42" width="2" height="2"></rect><rect x="35" y="42" width="2" height="2"></rect><rect x="39" y="42" width="2" height="2"></rect><rect x="43" y="42" width="2" height="2"></rect><rect x="47" y="42" width="2" height="2"></rect><rect x="51" y="42" width="2" height="2"></rect><rect x="14" y="26" width="2" height="2"></rect><rect x="18" y="26" width="2" height="2"></rect><rect x="22" y="26" width="2" height="2"></rect><rect x="10" y="26" width="2" height="2"></rect><rect x="33" y="12" width="10" height="2"></rect><rect x="45" y="12" width="2" height="2"></rect><rect x="33" y="32" width="10" height="2"></rect><rect x="45" y="32" width="2" height="2"></rect></g></svg>