<svg xmlns="http://www.w3.org/2000/svg" viewBox="0 0 64 64" x="0px" y="0px"><g data-name="QR Code-Smartphone-Scan-Code-QR Scan"><rect x="23" y="37" width="2" height="2"></rect><path d="M34,54H30a1,1,0,0,0,0,2h4a1,1,0,0,0,0-2Z"></path><rect x="23" y="21" width="2" height="2"></rect><path d="M50,8a4,4,0,0,0-4-4H18a4,4,0,0,0-4,4V56a4,4,0,0,0,4,4H46a4,4,0,0,0,4-4ZM37,28h2v5H37ZM29,6h6V8H29Zm0,13h6v2H33v2h2v2H33v1H31V21H29Zm6,9v2H32V28ZM25,6h2V8H25ZM21,20a1,1,0,0,1,1-1h4a1,1,0,0,1,1,1v4a1,1,0,0,1-1,1H22a1,1,0,0,1-1-1Zm0,7h2v2h3V27h2v2h2v2H27v2H25V31H23v2H21Zm5,14H22a1,1,0,0,1-1-1V36a1,1,0,0,1,1-1h4a1,1,0,0,1,1,1v4A1,1,0,0,1,26,41Zm8,17H30a3,3,0,0,1,0-6h4a3,3,0,0,1,0,6Zm3-17H29V39h3V37H29V35h3V32h2v3h1v2H34v2h3Zm0-6h2v2H37Zm6,5a1,1,0,0,1-1,1H39V39h2V37h2Zm0-5H41V27h2Zm0-11a1,1,0,0,1-1,1H38a1,1,0,0,1-1-1V20a1,1,0,0,1,1-1h4a1,1,0,0,1,1,1Z"></path><rect x="39" y="21" width="2" height="2"></rect></g></svg>