<svg xmlns="http://www.w3.org/2000/svg" viewBox="0 0 64 64" x="0px" y="0px"><g data-name="Marina Bay Sands-Singapore-Landmark-Marina-Monuments"><rect x="50" y="13" width="4" height="2"></rect><path d="M56,51V23H48V51Zm-2-4H52V45h2Zm0-8H52V37h2Zm0-8H52V29h2Zm-4-6h2v2H50Zm0,8h2v2H50Zm0,8h2v2H50Z"></path><rect x="14" y="13" width="4" height="2"></rect><polygon points="4 20.62 4 21 60 21 60 17 40 17 40 19 38 19 38 17 36 17 36 19 34 19 34 17 32 17 32 19 30 19 30 17 28 17 28 19 26 19 26 17 11.24 17 4 20.62"></polygon><path d="M30,23V43.14L28.33,51H38V23Zm2,2h2v2H32Zm0,8h2v2H32Zm0,8h2v2H32Zm4,6H34V45h2Zm0-8H34V37h2Zm0-8H34V29h2Z"></path><path d="M12,23V43.14L10.33,51H20V23Zm2,2h2v2H14Zm0,8h2v2H14Zm0,8h2v2H14Zm4,6H16V45h2Zm0-8H16V37h2Zm0-8H16V29h2Z"></path><rect x="3" y="51" width="58" height="2"></rect></g></svg>