<svg xmlns="http://www.w3.org/2000/svg" viewBox="0 0 64 64" x="0px" y="0px"><g data-name="Business-Woman-Avatar-Long-Hair-Braid"><path d="M42.952,30.021A2.473,2.473,0,0,0,42.487,29a2.449,2.449,0,0,0,0-3A2.471,2.471,0,0,0,43,24.5a2.5,2.5,0,0,0-1.641-2.338A8.971,8.971,0,0,0,43,17V13a11,11,0,0,0-22,0v4a9.008,9.008,0,0,0,6,8.475v2.576A13.008,13.008,0,0,0,15,41V61a1,1,0,0,0,1,1H48a1,1,0,0,0,1-1V41A13.038,13.038,0,0,0,42.952,30.021ZM26,20V12.955c1.969-.149,6.363-.788,9.076-3.519A19.107,19.107,0,0,0,38,11.6V20a4,4,0,0,1-4,4H30A4,4,0,0,1,26,20Zm14.5,5h-1a.5.5,0,0,1,0-1h1a.5.5,0,0,1,0,1Zm.5,2.5a.5.5,0,0,1-.5.5h-1a.5.5,0,0,1,0-1h1A.5.5,0,0,1,41,27.5Zm0,3a.5.5,0,0,1-.5.5h-1a.5.5,0,0,1,0-1h1A.5.5,0,0,1,41,30.5Zm0,3a.5.5,0,0,1-.5.5h-1a.5.5,0,0,1,0-1h1A.5.5,0,0,1,41,33.5Zm-3.825-8.1a2.473,2.473,0,0,0,.338.6A2.471,2.471,0,0,0,37,27.5a2.515,2.515,0,0,0,.068.559l-.068,0v-2.59C37.058,25.445,37.117,25.425,37.175,25.4Zm-9.1,5.29,2.5,3.126-2.13,1.6-1.32-3.3ZM32,35.25l2.763,2.071L32,43.538l-2.763-6.217Zm3.556.167-2.13-1.6,2.5-3.126.949,1.424ZM40,36a1,1,0,0,1,1,1,7.515,7.515,0,0,1-1,2.147A7.443,7.443,0,0,1,39,37,1,1,0,0,1,40,36ZM23,17V13a9,9,0,0,1,18,0v4a6.979,6.979,0,0,1-1.037,3.655A6.161,6.161,0,0,0,40,20V11a1,1,0,0,0-.553-.895,17.678,17.678,0,0,1-3.74-2.813A.986.986,0,0,0,34.929,7a1,1,0,0,0-.729.4C31.54,10.946,25.064,11,25,11a1,1,0,0,0-1,1v8a5.993,5.993,0,0,0,.036.646A6.942,6.942,0,0,1,23,17Zm6.387,8.969A5.92,5.92,0,0,0,30,26h4a6.055,6.055,0,0,0,.742-.051c.086-.007.172-.008.258-.017v2.717L32,32.4l-3-3.75V25.941C29.128,25.955,29.258,25.96,29.387,25.969ZM17,41a11.013,11.013,0,0,1,9-10.81l-.837,1.255a1,1,0,0,0-.1.927l6.015,14.034a1,1,0,0,0,1.828,0l4.1-9.259c.1,1.3,1.526,3.507,2.158,4.421a1,1,0,0,0,1.646,0c.145-.209.335-.494.539-.813.014.013.021.032.036.044.9.679,1.6,2.815,1.6,4.2s-.7,3.522-1.6,4.2a1,1,0,0,0-.4.8V60H23V50a1,1,0,0,0-.4-.8c-.9-.679-1.6-2.815-1.6-4.2s.7-3.522,1.6-4.2A1,1,0,0,0,23,40V38H21v1.553a8.417,8.417,0,0,0,0,10.894V60H17ZM47,60H43V50.447a8.417,8.417,0,0,0,0-10.894V38h-.212A3.237,3.237,0,0,0,43,37a2.975,2.975,0,0,0-.646-1.838,2.446,2.446,0,0,0,.293-2.922A11.037,11.037,0,0,1,47,41Z"></path><path d="M34.29,14.71l.149.12a.782.782,0,0,0,.181.09.6.6,0,0,0,.19.06A1.213,1.213,0,0,0,35,15a1.052,1.052,0,0,0,.71-.29,1.155,1.155,0,0,0,.21-.33A1,1,0,0,0,36,14a1.234,1.234,0,0,0-.021-.2.6.6,0,0,0-.059-.18.8.8,0,0,0-.09-.18l-.12-.15a1.047,1.047,0,0,0-1.42,0A1.028,1.028,0,0,0,34,14a1,1,0,0,0,.08.38A1.032,1.032,0,0,0,34.29,14.71Z"></path><path d="M29.92,13.62a.8.8,0,0,0-.09-.18l-.12-.15a1,1,0,0,0-1.09-.21,1.032,1.032,0,0,0-.33.21,1.576,1.576,0,0,0-.12.15.757.757,0,0,0-.09.18.636.636,0,0,0-.06.18A1.355,1.355,0,0,0,28,14a.838.838,0,0,0,.08.38,1.155,1.155,0,0,0,.21.33,1.032,1.032,0,0,0,.33.21A1,1,0,0,0,29,15a1.052,1.052,0,0,0,.71-.29,1.155,1.155,0,0,0,.21-.33A1,1,0,0,0,30,14a1.234,1.234,0,0,0-.021-.2A.6.6,0,0,0,29.92,13.62Z"></path></g></svg>