<svg xmlns="http://www.w3.org/2000/svg" viewBox="0 0 64 64" x="0px" y="0px"><g data-name="Charger"><path d="M61,2H3A1,1,0,0,0,2,3V29a1,1,0,0,0,1,1H28v2a1,1,0,0,0,1,1h2V45.184A3,3,0,0,0,29.184,47H25V37a3,3,0,0,0-3-3H10a3,3,0,0,0-3,3V59a3,3,0,0,0,3,3H22a3,3,0,0,0,3-3V49h4.184a2.982,2.982,0,0,0,5.632,0H39V59a3,3,0,0,0,3,3H54a3,3,0,0,0,3-3V37a3,3,0,0,0-3-3H42a3,3,0,0,0-3,3V47H34.816A3,3,0,0,0,33,45.184V33h2a1,1,0,0,0,1-1V30H61a1,1,0,0,0,1-1V3A1,1,0,0,0,61,2ZM13,36h6v1H13ZM23,59a1,1,0,0,1-1,1H10a1,1,0,0,1-1-1V37a1,1,0,0,1,1-1h1v1a2,2,0,0,0,2,2h6a2,2,0,0,0,2-2V36h1a1,1,0,0,1,1,1ZM45,36h6v1H45Zm-4,1a1,1,0,0,1,1-1h1v1a2,2,0,0,0,2,2h6a2,2,0,0,0,2-2V36h1a1,1,0,0,1,1,1V59a1,1,0,0,1-1,1H42a1,1,0,0,1-1-1ZM32,49a1,1,0,1,1,1-1A1,1,0,0,1,32,49ZM60,10H47.722A2.015,2.015,0,0,0,47,9.278V4H60ZM47.722,20A2.015,2.015,0,0,0,47,19.278V12.722A2.015,2.015,0,0,0,47.722,12H60v8ZM4,20V12H16.278a2.015,2.015,0,0,0,.722.722v6.556a2.015,2.015,0,0,0-.722.722Zm29.722,0A2.015,2.015,0,0,0,33,19.278V12.722A2.015,2.015,0,0,0,33.722,12H44.278a2.015,2.015,0,0,0,.722.722v6.556a2.015,2.015,0,0,0-.722.722Zm-14,0A2.015,2.015,0,0,0,19,19.278V12.722A2.015,2.015,0,0,0,19.722,12H30.278a2.015,2.015,0,0,0,.722.722v6.556a2.015,2.015,0,0,0-.722.722ZM45,9.278a2.015,2.015,0,0,0-.722.722H33.722A2.015,2.015,0,0,0,33,9.278V4H45Zm-14,0a2.015,2.015,0,0,0-.722.722H19.722A2.015,2.015,0,0,0,19,9.278V4H31ZM19,22.722A2.015,2.015,0,0,0,19.722,22H30.278a2.015,2.015,0,0,0,.722.722V28H19Zm14,0A2.015,2.015,0,0,0,33.722,22H44.278a2.015,2.015,0,0,0,.722.722V28H33ZM17,4V9.278a2.015,2.015,0,0,0-.722.722H4V4ZM4,22H16.278a2.015,2.015,0,0,0,.722.722V28H4Zm30,9H30V30h4Zm13-3V22.722A2.015,2.015,0,0,0,47.722,22H60v6Z"></path><path d="M18,47H16.414l2.293-2.293-1.414-1.414-4,4A1,1,0,0,0,14,49h1.586l-2.293,2.293,1.414,1.414,4-4A1,1,0,0,0,18,47Z"></path><path d="M46,49h1.586l-2.293,2.293,1.414,1.414,4-4A1,1,0,0,0,50,47H48.414l2.293-2.293-1.414-1.414-4,4A1,1,0,0,0,46,49Z"></path></g></svg>