<svg xmlns="http://www.w3.org/2000/svg" viewBox="0 0 64 64" x="0px" y="0px"><g><path d="M42,9a2.006,2.006,0,0,0,2-2c0-1.1-.9-4-2-4s-2,2.9-2,4A2.006,2.006,0,0,0,42,9Z"></path><path d="M32,9a2.006,2.006,0,0,0,2-2c0-1.1-.9-4-2-4s-2,2.9-2,4A2.006,2.006,0,0,0,32,9Z"></path><path d="M22,9a2.006,2.006,0,0,0,2-2c0-1.1-.9-4-2-4s-2,2.9-2,4A2.006,2.006,0,0,0,22,9Z"></path><path d="M21,24a2,2,0,0,0,2,2h8v4H26v2H38V30H33V26h8a2,2,0,0,0,2-2V21h2V17H44V11H40v6H39v4h2v3H33V21h2V17H34V11H30v6H29v4h2v3H23V21h2V17H24V11H20v6H19v4h2Z"></path><path d="M39,50a2.006,2.006,0,0,1-2,2H27a2.006,2.006,0,0,1-2-2V48H15v7a1,1,0,0,0,1,1H48a1,1,0,0,0,1-1V48H39Z"></path><polygon points="44.62 60 47 60 47 58 43.62 58 44.62 60"></polygon><rect x="12" y="34" width="40" height="2"></rect><polygon points="17 60 19.38 60 20.38 58 17 58 17 60"></polygon><rect x="27" y="38" width="10" height="2"></rect><rect x="27" y="48" width="10" height="2"></rect><path d="M39,40a2.006,2.006,0,0,1-2,2H27a2.006,2.006,0,0,1-2-2V38H15v8H49V38H39Z"></path></g></svg>