<svg xmlns="http://www.w3.org/2000/svg" viewBox="0 0 64 64" x="0px" y="0px"><title>Avocado</title><g><path d="M44.31,32.418C43.122,29.392,42,26.533,42,25c0-1.455.245-3.86.481-6.186.255-2.5.519-5.09.519-6.814C43,6.276,37.192,2,32,2S21,6.276,21,12c0,1.724.264,4.311.519,6.814C21.755,21.14,22,23.545,22,25c0,1.533-1.122,4.392-2.31,7.418C17.961,36.827,16,41.824,16,46c0,9.429,8.433,16,16,16s16-6.571,16-16C48,41.824,46.039,36.827,44.31,32.418ZM32,60c-6.622,0-14-5.75-14-14,0-3.8,1.888-8.607,3.553-12.851C22.866,29.8,24,26.911,24,25c0-1.556-.239-3.9-.492-6.389C23.258,16.158,23,13.622,23,12c0-4.579,4.752-8,9-8s9,3.421,9,8c0,1.622-.258,4.158-.508,6.611C40.239,21.1,40,23.444,40,25c0,1.911,1.134,4.8,2.447,8.149C44.112,37.393,46,42.2,46,46,46,54.25,38.622,60,32,60Z"></path><path d="M32,33A11,11,0,1,0,43,44,11.013,11.013,0,0,0,32,33Zm0,20a9,9,0,1,1,9-9A9.01,9.01,0,0,1,32,53Z"></path></g></svg>