<svg xmlns="http://www.w3.org/2000/svg" viewBox="0 0 64 64" x="0px" y="0px"><g><path d="M42,12H36.969A4.952,4.952,0,0,0,34,11H32V7a5.006,5.006,0,0,0-5-5H25a5.006,5.006,0,0,0-5,5v4H18a4.952,4.952,0,0,0-2.969,1H10a5.006,5.006,0,0,0-5,5V57a5.006,5.006,0,0,0,5,5H42a5.006,5.006,0,0,0,5-5V17A5.006,5.006,0,0,0,42,12ZM11,51.414,15.586,56H11ZM12.414,50H16a1,1,0,0,1,1,1v3.586ZM16,48H11V18h2v3a1,1,0,0,0,1,1H38a1,1,0,0,0,1-1V18h2V56H19V51A3,3,0,0,0,16,48ZM15,19H37v1H15Zm3-6h3a1,1,0,0,0,1-1V7a3,3,0,0,1,3-3h2a3,3,0,0,1,3,3v5a1,1,0,0,0,1,1h3a3,3,0,0,1,3,3v1H15V16A3,3,0,0,1,18,13ZM45,57a3,3,0,0,1-3,3H10a3,3,0,0,1-3-3V17a3,3,0,0,1,3-3h3.424A4.95,4.95,0,0,0,13,16H11a2,2,0,0,0-2,2V56a2,2,0,0,0,2,2H41a2,2,0,0,0,2-2V18a2,2,0,0,0-2-2H39a4.95,4.95,0,0,0-.424-2H42a3,3,0,0,1,3,3Z"></path><path d="M26,12a3,3,0,1,0-3-3A3,3,0,0,0,26,12Zm0-4a1,1,0,1,1-1,1A1,1,0,0,1,26,8Z"></path><path d="M54,14a5.006,5.006,0,0,0-5,5V50a1,1,0,0,0,.1.447L51,54.236V57a3,3,0,0,0,6,0V54.236l1.9-3.789A1,1,0,0,0,59,50V19A5.006,5.006,0,0,0,54,14Zm0,2a3,3,0,0,1,3,3v1H51V19A3,3,0,0,1,54,16Zm1.382,37H52.618l-1.584-3.168A.988.988,0,0,1,52,49a1,1,0,0,1,1,1,1,1,0,0,0,2,0,1,1,0,0,1,1-1,.988.988,0,0,1,.966.832ZM56,47a2.963,2.963,0,0,0-1,.179V27H53V47.179a2.846,2.846,0,0,0-2,0V25h6V47.184A2.966,2.966,0,0,0,56,47Zm1-24H51V22h6ZM55,57a1,1,0,0,1-2,0V55h2Z"></path><path d="M19,44A10,10,0,1,0,29,34,10.011,10.011,0,0,0,19,44Zm10-8a8,8,0,1,1-8,8A8.009,8.009,0,0,1,29,36Z"></path><rect x="15" y="24" width="2" height="2"></rect><rect x="19" y="24" width="8" height="2"></rect><rect x="15" y="28" width="12" height="2"></rect><rect x="29" y="28" width="2" height="2"></rect><rect x="33" y="28" width="4" height="2"></rect><rect x="15" y="32" width="4" height="2"></rect><path d="M24.747,44.618l.726.528L25.2,46a1.973,1.973,0,0,0,.728,2.237,1.971,1.971,0,0,0,2.35,0L29,47.708l.727.528A2,2,0,0,0,32.805,46l-.278-.854.726-.528A2,2,0,0,0,32.078,41h-.9l-.278-.854h0a2,2,0,0,0-3.8,0L26.82,41h-.9a2,2,0,0,0-1.175,3.618ZM27.547,43a1,1,0,0,0,.951-.691l.5-1.557,0,.012.5,1.545a1,1,0,0,0,.951.691h1.624l-1.313.956a1,1,0,0,0-.364,1.117l.5,1.545-1.314-.955a1,1,0,0,0-1.176,0l-1.314.955.5-1.545a1,1,0,0,0-.364-1.117L25.922,43Z"></path></g></svg>