<svg xmlns="http://www.w3.org/2000/svg" viewBox="0 0 64 64" x="0px" y="0px"><g data-name="Delivery Truck"><path d="M59.95,36.536,49.464,26.05A6.954,6.954,0,0,0,44.515,24H41V22h3a1,1,0,0,0,1-1V3a1,1,0,0,0-1-1H12a1,1,0,0,0-1,1V21a1,1,0,0,0,1,1h3v2H13.924a7,7,0,0,0-6.413,4.194L3.425,37.533A16.891,16.891,0,0,0,2,44.347V51a5.006,5.006,0,0,0,5,5H8.08a6.991,6.991,0,0,0,13.84,0H42.08a6.991,6.991,0,0,0,13.84,0H59a3,3,0,0,0,3-3V41.485A6.954,6.954,0,0,0,59.95,36.536ZM58.577,38H40V30H50.586l7.95,7.95C58.551,37.965,58.562,37.984,58.577,38ZM34,38H32V36h2Zm1-4H31a1,1,0,0,0-1,1v3H27V35a3,3,0,0,0-3-3H16a3,3,0,0,0-3,3v3H9.477l3.2-8H38v8H36V35A1,1,0,0,0,35,34ZM15,37H25v1H15Zm0-2a1,1,0,0,1,1-1h8a1,1,0,0,1,1,1ZM13,4H43V20H13Zm4,18H39v2H17ZM4.184,52H7V50H4V44.347a14.924,14.924,0,0,1,1.257-6.013L9.343,29a5,5,0,0,1,4.581-3H44.515a4.967,4.967,0,0,1,3.535,1.464l.536.536H12.677a1.99,1.99,0,0,0-1.857,1.257l-3.2,8A2,2,0,0,0,9.477,40H38V54H21.92A6.991,6.991,0,0,0,8.08,54H7A3,3,0,0,1,4.184,52ZM15,60a5,5,0,1,1,5-5A5.006,5.006,0,0,1,15,60Zm34,0a5,5,0,1,1,5-5A5.006,5.006,0,0,1,49,60Zm10-6H55.92a6.991,6.991,0,0,0-13.84,0H40V40H59.752A5,5,0,0,1,60,41.485V42H57a3,3,0,0,0,0,6h3v2H57v2h3v1A1,1,0,0,1,59,54Zm1-10v2H57a1,1,0,0,1,0-2Z"></path><rect x="42" y="42" width="4" height="2"></rect><rect x="18" y="42" width="4" height="2"></rect><rect x="24" y="42" width="4" height="2"></rect><rect x="12" y="42" width="4" height="2"></rect><rect x="14" y="54" width="2" height="2"></rect><rect x="48" y="54" width="2" height="2"></rect><path d="M29,7.09V6H27V7.09A6.008,6.008,0,0,0,22.09,12H20v2h1.382l1.723,3.447A1,1,0,0,0,24,18h8a1,1,0,0,0,.9-.558L34.6,14H36V12H33.91A6.008,6.008,0,0,0,29,7.09ZM28,9a4,4,0,0,1,3.858,3H24.142A4,4,0,0,1,28,9Zm3.378,7h-6.76l-1-2h8.747Z"></path></g></svg>