<svg xmlns="http://www.w3.org/2000/svg" viewBox="0 0 64 64" x="0px" y="0px"><g data-name="Shoulder bag"><rect x="13" y="7" width="38" height="2"></rect><path d="M4.029,50.963l1.519,5.311A1,1,0,0,0,6.509,57H57.491a1,1,0,0,0,.961-.725l1.519-5.312L58,41.6V46a5.006,5.006,0,0,1-5,5H38a1,1,0,0,1-1,1H27a1,1,0,0,1-1-1H11a5.006,5.006,0,0,1-5-5V41.6Z"></path><path d="M9,31h2V7.171A3.006,3.006,0,0,0,9,10Z"></path><rect x="28" y="48" width="8" height="2"></rect><path d="M8,46a3,3,0,0,0,3,3H26V47a1,1,0,0,1,1-1H37a1,1,0,0,1,1,1v2H53a3,3,0,0,0,3-3V33H8Z"></path><path d="M53,7.171V31h2V10A3.006,3.006,0,0,0,53,7.171Z"></path></g></svg>