<svg xmlns="http://www.w3.org/2000/svg" viewBox="0 0 64 64" x="0px" y="0px"><g><path d="M42.021,26.837a3.073,3.073,0,0,0-4.243,0L25.108,39.506l-1.788,2.5L22.113,43.7l3.045,3.045,1.69-1.207,2.5-1.788L42.021,31.08A3.005,3.005,0,0,0,42.021,26.837Zm-4.243,1.414,1.414-1.414,2.829,2.829L40.606,31.08Z"></path><polygon points="36.364 39.565 42.728 45.929 44.26 44.397 39.053 36.877 36.364 39.565"></polygon><polygon points="26.592 48.178 30 51.586 30.977 50.608 29.479 46.115 26.592 48.178"></polygon><polygon points="18.249 37.881 17.271 38.857 20.68 42.266 22.742 39.378 18.249 37.881"></polygon><polygon points="30.526 31.261 31.98 29.806 24.46 24.599 22.929 26.13 29.293 32.494 30.526 31.261"></polygon><path d="M60,20H4V52a5.006,5.006,0,0,0,5,5H55a5.006,5.006,0,0,0,5-5ZM46.264,45.222,43.435,48.05a1,1,0,0,1-1.414,0L34.95,40.979l-3.806,3.806,1.925,5.777a1,1,0,0,1-.241,1.024l-2.121,2.121a1,1,0,0,1-1.414,0L15.15,39.564a1,1,0,0,1,0-1.414l2.122-2.121a1,1,0,0,1,1.024-.241l5.777,1.926,3.806-3.806-7.071-7.071a1,1,0,0,1,0-1.414L23.636,22.6a1,1,0,0,1,1.276-.116l8.507,5.889,2.945-2.945a5,5,0,1,1,7.071,7.071L40.49,35.439l5.889,8.506A1,1,0,0,1,46.264,45.222Z"></path><rect x="29.001" y="9.001" width="5.999" height="2" transform="translate(21.952 41.986) rotate(-89.916)"></rect><rect x="39.001" y="9.001" width="5.999" height="2" transform="translate(31.938 51.986) rotate(-89.916)"></rect><path d="M60,17a5.006,5.006,0,0,0-5-5v1a2,2,0,0,1-2,2H51a2,2,0,0,1-2-2V12H45v1a2,2,0,0,1-2,2H41a2,2,0,0,1-2-2V12H35v1a2,2,0,0,1-2,2H31a2,2,0,0,1-2-2V12H25v1a2,2,0,0,1-2,2H21a2,2,0,0,1-2-2V12H15v1a2,2,0,0,1-2,2H11a2,2,0,0,1-2-2V12a5.006,5.006,0,0,0-5,5v1H60Z"></path><rect x="49.001" y="9.001" width="5.999" height="2" transform="translate(41.923 61.986) rotate(-89.916)"></rect><rect x="9.001" y="9.001" width="5.999" height="2" transform="translate(1.982 21.986) rotate(-89.916)"></rect><rect x="19.001" y="9.001" width="5.999" height="2" transform="translate(11.967 31.986) rotate(-89.916)"></rect></g></svg>