<svg xmlns="http://www.w3.org/2000/svg" viewBox="0 0 64 64" x="0px" y="0px"><g><path d="M53,48H39.591L28.876,28.519A1,1,0,0,0,28,28H19a1,1,0,0,0-.929,1.371L25.523,48H13.781L10.97,36.758A1,1,0,0,0,10,36H3a1,1,0,0,0-1,1V57a5.006,5.006,0,0,0,5,5H59a3,3,0,0,0,3-3V57A9.01,9.01,0,0,0,53,48ZM20.477,30h6.932l9.9,18H27.677ZM60,59a1,1,0,0,1-1,1H7a3,3,0,0,1-3-3V38H9.219L12.03,49.242A1,1,0,0,0,13,50H53a7.008,7.008,0,0,1,7,7Z"></path><path d="M40,23h5v7a1,1,0,0,0,1.832.555l8-12A1,1,0,0,0,54,17H49V10a1,1,0,0,0-1.832-.555l-8,12A1,1,0,0,0,40,23Zm7-9.7V18a1,1,0,0,0,1,1h4.131L47,26.7V22a1,1,0,0,0-1-1H41.869Z"></path><path d="M16,16h5v7a1,1,0,0,0,1.832.555l8-12A1,1,0,0,0,30,10H25V3a1,1,0,0,0-1.832-.555l-8,12A1,1,0,0,0,16,16Zm7-9.7V11a1,1,0,0,0,1,1h4.131L23,19.7V15a1,1,0,0,0-1-1H17.869Z"></path><rect x="52" y="52" width="4" height="2"></rect><rect x="46" y="52" width="2" height="2"></rect><rect x="42" y="52" width="2" height="2"></rect><rect x="38" y="52" width="2" height="2"></rect><rect x="34" y="52" width="2" height="2"></rect><rect x="30" y="52" width="2" height="2"></rect><rect x="26" y="52" width="2" height="2"></rect><rect x="22" y="52" width="2" height="2"></rect><rect x="18" y="52" width="2" height="2"></rect></g></svg>