<svg xmlns="http://www.w3.org/2000/svg" viewBox="0 0 64 64" x="0px" y="0px"><g data-name="Hand Washing-Washing-Hand-Hygiene-Water"><path d="M10,31V45h6V31Zm4,4H12V33h2Z"></path><rect x="3" y="32" width="5" height="12"></rect><path d="M48,46V62H44V46a4.982,4.982,0,0,0-1.02-3H45A3.009,3.009,0,0,1,48,46Z"></path><path d="M50,47a2,2,0,0,0,0-4H48.97A4.924,4.924,0,0,1,50,46Z"></path><path d="M37.62,45.6a4.034,4.034,0,0,1-2-.54l-8.66-5,1-1.73,8.66,5a2,2,0,1,0,2-3.46L26.73,33H18V43h3a.977.977,0,0,1,.62.22L26.35,47H42V46a2.958,2.958,0,0,0-1.02-2.24A4,4,0,0,1,37.62,45.6Z"></path><rect x="56" y="4" width="4" height="8"></rect><rect x="38" y="13" width="6" height="2"></rect><path d="M54,6.06l-13.17.73A3,3,0,0,0,38,9.78V11H54Z"></path><rect x="47.585" y="32.5" width="5.831" height="2" transform="translate(-4.208 59.568) rotate(-59.036)"></rect><rect x="51" y="37" width="6" height="2"></rect><rect x="38" y="19" width="6" height="17"></rect><polygon points="31 56 31 58 31 62 35 62 35 58 35 56 35 49 31 49 31 56"></polygon></g></svg>