<svg xmlns="http://www.w3.org/2000/svg" viewBox="0 0 64 64" x="0px" y="0px"><g><path d="M26,42a7,7,0,1,0,7,7A7.009,7.009,0,0,0,26,42Zm0,12a5,5,0,1,1,5-5A5.006,5.006,0,0,1,26,54Z"></path><path d="M47,32H5a3,3,0,0,0-3,3V59a3,3,0,0,0,3,3H47a3,3,0,0,0,3-3V35A3,3,0,0,0,47,32ZM5,34H47a1,1,0,0,1,1,1v1.184A2.966,2.966,0,0,0,47,36H5a2.966,2.966,0,0,0-1,.184V35A1,1,0,0,1,5,34ZM48,59a1,1,0,0,1-1,1H5a1,1,0,0,1-1-1V39a1,1,0,0,1,1-1H47a1,1,0,0,1,1,1Z"></path><path d="M7,42v4H9V43h3V41H8A1,1,0,0,0,7,42Z"></path><path d="M44,41H40v2h3v3h2V42A1,1,0,0,0,44,41Z"></path><path d="M9,52H7v4a1,1,0,0,0,1,1h4V55H9Z"></path><path d="M43,55H40v2h4a1,1,0,0,0,1-1V52H43Z"></path><rect x="36" y="48" width="2" height="2"></rect><rect x="14" y="48" width="2" height="2"></rect><path d="M61,2a4.019,4.019,0,0,0-3.108,1.576c-.584.62-.923.944-1.642.944-.672,0-1.008-.39-1.593-1.136a3.585,3.585,0,0,0-6.335,0c-.582.744-.917,1.133-1.582,1.133s-1.009-.39-1.593-1.138a3.571,3.571,0,0,0-6.314,0c-.584.748-.921,1.138-1.593,1.138s-1-.389-1.582-1.135A3.888,3.888,0,0,0,32.5,1.48a3.9,3.9,0,0,0-3.168,1.907c-.582.744-.917,1.133-1.582,1.133-.726,0-1.065-.326-1.652-.948A4.009,4.009,0,0,0,23,2a1,1,0,0,0-1,1V30h2V4.329a5.764,5.764,0,0,1,.642.614A4.019,4.019,0,0,0,27.75,6.52a3.889,3.889,0,0,0,3.157-1.9c.584-.748.921-1.138,1.593-1.138s1,.389,1.582,1.135a3.888,3.888,0,0,0,3.158,1.9,3.9,3.9,0,0,0,3.168-1.907c.582-.744.917-1.133,1.582-1.133s1,.389,1.582,1.133a3.578,3.578,0,0,0,6.325,0c.584-.748.921-1.138,1.593-1.138s1.008.39,1.593,1.136a3.9,3.9,0,0,0,3.167,1.9,4.01,4.01,0,0,0,3.1-1.573A5.566,5.566,0,0,1,60,4.325V56H52v2h9a1,1,0,0,0,1-1V3A1,1,0,0,0,61,2Z"></path><rect x="46" y="9" width="10" height="2"></rect><rect x="46" y="13" width="10" height="2"></rect><rect x="28" y="19" width="20" height="2"></rect><rect x="50" y="19" width="6" height="2"></rect><rect x="28" y="23" width="20" height="2"></rect><rect x="50" y="23" width="6" height="2"></rect><rect x="28" y="27" width="20" height="2"></rect><rect x="50" y="27" width="6" height="2"></rect></g></svg>