<svg xmlns="http://www.w3.org/2000/svg" viewBox="0 0 64 64" x="0px" y="0px"><g data-name="Protect Email"><path d="M31,37.722V40h2V37.722a2,2,0,1,0-2,0Z"></path><path d="M62,34a5.006,5.006,0,0,0-5-5V16a2,2,0,0,0-2-2H9a2,2,0,0,0-2,2V29A5,5,0,0,0,7,39v8a3,3,0,0,0,3,3H54a3,3,0,0,0,3-3V39a4.995,4.995,0,0,0,5-5ZM39,30H38V27a5.006,5.006,0,0,0-5-5H31a5.006,5.006,0,0,0-5,5v3H25a1,1,0,0,0-1,1v6H9V17.741l13.925,8.123,1.008-1.728L9.986,16H54.014L40.067,24.136l1.008,1.728L55,17.741V37H40V31A1,1,0,0,0,39,30Zm-3,0H28V27a3,3,0,0,1,3-3h2a3,3,0,0,1,3,3Zm2,2v9a1,1,0,0,1-1,1H27a1,1,0,0,1-1-1V32ZM4,34a2.994,2.994,0,0,1,3-3v6A3,3,0,0,1,4,34ZM55,47a1,1,0,0,1-1,1H10a1,1,0,0,1-1-1V39H24v2a3,3,0,0,0,3,3H37a3,3,0,0,0,3-3V39H55Zm4.128-10.882A3.018,3.018,0,0,1,57,37V31a3,3,0,0,1,2.128,5.118Z"></path><rect x="3" y="25" width="2" height="2"></rect><rect x="3" y="21" width="2" height="2"></rect><rect x="3" y="17" width="2" height="2"></rect><rect x="3" y="41" width="2" height="2"></rect><rect x="3" y="45" width="2" height="2"></rect><rect x="59" y="25" width="2" height="2"></rect><rect x="59" y="21" width="2" height="2"></rect><rect x="59" y="17" width="2" height="2"></rect><rect x="59" y="41" width="2" height="2"></rect><rect x="59" y="45" width="2" height="2"></rect></g></svg>