<svg xmlns="http://www.w3.org/2000/svg" viewBox="0 0 64 64" x="0px" y="0px"><g><path d="M61.707,10.293l-8-8A1,1,0,0,0,53,2H23a3,3,0,0,0-3,3v8a13,13,0,1,0-9,24.361V58a4,4,0,0,0,8,0V37.364c.339-.11.674-.23,1-.367V55a3,3,0,0,0,3,3H59a3,3,0,0,0,3-3V11A1,1,0,0,0,61.707,10.293ZM54,5.414,58.586,10H55a1,1,0,0,1-1-1ZM4,25A11,11,0,1,1,15,36,11.013,11.013,0,0,1,4,25ZM17,58a2,2,0,0,1-4,0V37.83A13.056,13.056,0,0,0,15,38a13.056,13.056,0,0,0,2-.17Zm42-2H23a1,1,0,0,1-1-1V35.937a12.968,12.968,0,0,0,0-21.874V5a1,1,0,0,1,1-1H52V9a3,3,0,0,0,3,3h5V55A1,1,0,0,1,59,56Z"></path><rect x="26" y="8" width="2" height="2"></rect><rect x="30" y="8" width="6" height="2"></rect><rect x="26" y="12" width="10" height="2"></rect><path d="M24,25a9,9,0,1,0-9,9A9.01,9.01,0,0,0,24,25ZM12,25a3,3,0,1,1,3,3A3,3,0,0,1,12,25Zm-1.783,1.377A14.664,14.664,0,0,1,8.43,25a14.664,14.664,0,0,1,1.787-1.377,4.477,4.477,0,0,0,0,2.754Zm9.566-2.754A14.664,14.664,0,0,1,21.57,25a14.664,14.664,0,0,1-1.787,1.377,4.477,4.477,0,0,0,0-2.754ZM15,18a7.009,7.009,0,0,1,6.478,4.357A11.376,11.376,0,0,0,15,20a11.376,11.376,0,0,0-6.478,2.357A7.009,7.009,0,0,1,15,18ZM8.522,27.643A11.376,11.376,0,0,0,15,30a11.376,11.376,0,0,0,6.478-2.357,6.994,6.994,0,0,1-12.956,0Z"></path><polygon points="47 24 47 34 45 34 45 26 43 26 43 34 41 34 41 28 39 28 39 34 37 34 37 30 35 30 35 34 33 34 33 36 51 36 51 34 49 34 49 24 47 24"></polygon><path d="M35.5,24.136,36.5,25.864l9.9-5.775L46,21.6l1.932.518,1.035-3.863a1,1,0,0,0-.707-1.225L44.4,16l-.518,1.932,1.546.414Z"></path><rect x="26" y="40" width="2" height="2"></rect><rect x="30" y="40" width="2" height="2"></rect><rect x="34" y="40" width="22" height="2"></rect><rect x="26" y="44" width="30" height="2"></rect><rect x="26" y="48" width="30" height="2"></rect></g></svg>