<svg xmlns="http://www.w3.org/2000/svg" viewBox="0 0 64 64" x="0px" y="0px"><g><path d="M57,2H7A5.006,5.006,0,0,0,2,7V43a5.006,5.006,0,0,0,5,5H22.9l-.8,8H21a1,1,0,0,0-1,1v3H17v2H47V60H44V57a1,1,0,0,0-1-1H41.905l-.8-8H57a5.006,5.006,0,0,0,5-5V7A5.006,5.006,0,0,0,57,2ZM7,4H57a3,3,0,0,1,3,3V38H4V7A3,3,0,0,1,7,4ZM42,60H22V58H42Zm-2.1-4H24.105l.8-8H39.1ZM57,46H7a3,3,0,0,1-3-3V40H60v3A3,3,0,0,1,57,46Z"></path><rect x="54" y="42" width="2" height="2"></rect><path d="M32,31a9,9,0,1,0-9-9A9.01,9.01,0,0,0,32,31Zm0-16a7,7,0,1,1-7,7A7.008,7.008,0,0,1,32,15Z"></path><path d="M32,25a1,1,0,0,1-1-1H29a3,3,0,0,0,2,2.816V28h2V26.816A2.993,2.993,0,0,0,32,21a1,1,0,1,1,1-1h2a3,3,0,0,0-2-2.816V16H31v1.184A2.993,2.993,0,0,0,32,23a1,1,0,0,1,0,2Z"></path><path d="M43.414,12H48V10H43a1,1,0,0,0-.707.293l-3,3,1.414,1.414Z"></path><path d="M53,14a3,3,0,1,0-3-3A3,3,0,0,0,53,14Zm0-4a1,1,0,1,1-1,1A1,1,0,0,1,53,10Z"></path><rect x="42" y="28" width="8" height="2"></rect><path d="M23.293,14.707l1.414-1.414-3-3A1,1,0,0,0,21,10H14v2h6.586Z"></path><rect x="15" y="28" width="7" height="2"></rect><rect x="52" y="26" width="4" height="2"></rect><rect x="52" y="30" width="4" height="2"></rect><path d="M11,32a3,3,0,1,0-3-3A3,3,0,0,0,11,32Zm0-4a1,1,0,1,1-1,1A1,1,0,0,1,11,28Z"></path><rect x="8" y="8" width="4" height="2"></rect><rect x="8" y="12" width="4" height="2"></rect></g></svg>