<svg xmlns="http://www.w3.org/2000/svg" viewBox="0 0 64 64" x="0px" y="0px"><g data-name="Online Shopping-Payment"><path d="M59.694,27.712A.978.978,0,0,0,60,27a1,1,0,0,0-1-1H55.545l-.353,2H59A.957.957,0,0,0,59.694,27.712Z"></path><path d="M38.868,28l-1.653-9.367a1,1,0,0,0-.414-.651.966.966,0,0,0-.73-.159,1,1,0,0,0-.841.977,1.1,1.1,0,0,0,.017.189L36.839,28Z"></path><path d="M33.06,30l.73,13.17A2.994,2.994,0,0,0,36.78,46H53.22a2.994,2.994,0,0,0,2.99-2.83L56.94,30ZM40,44H38V32h2Zm6,0H44V32h2Zm6,0H50V32h2Z"></path><polygon points="49.454 26 40.546 26 40.898 28 49.102 28 49.454 26"></polygon><path d="M53.938,17.825a.98.98,0,0,0-.739.157,1,1,0,0,0-.414.65L51.132,28h2.029l1.595-9.023a1.177,1.177,0,0,0,.014-.177A.994.994,0,0,0,53.938,17.825Z"></path><path d="M15,16a7,7,0,1,0,7,7A7.008,7.008,0,0,0,15,16Zm-1,6h2a3,3,0,0,1,0,6v1H14V28a3.009,3.009,0,0,1-3-3h2a1,1,0,0,0,1,1h2a1,1,0,0,0,0-2H14a3,3,0,0,1,0-6V17h2v1a3.009,3.009,0,0,1,3,3H17a1,1,0,0,0-1-1H14a1,1,0,0,0,0,2Z"></path><rect x="14" y="4" width="14" height="2"></rect><rect x="11" y="48" width="14" height="2"></rect><path d="M35.72,15.85a2.921,2.921,0,0,1,2.22.49.265.265,0,0,1,.06.05V7a3.009,3.009,0,0,0-3-3H30V6a2.006,2.006,0,0,1-2,2H14a2.006,2.006,0,0,1-2-2V4H7A3.009,3.009,0,0,0,4,7V57a3.009,3.009,0,0,0,3,3H35a3.009,3.009,0,0,0,3-3V48H36.78a5,5,0,0,1-4.99-4.72L31.05,30H31a3.009,3.009,0,0,1-3-3,3,3,0,0,1,3-3h3.1l-.82-4.68a2.292,2.292,0,0,1-.05-.52A3.01,3.01,0,0,1,35.72,15.85ZM15,14a9,9,0,1,1-9,9A9.014,9.014,0,0,1,15,14ZM27,51a1,1,0,0,1-1,1H10a1,1,0,0,1-1-1V48H8a1,1,0,0,1-1-1V43a1,1,0,0,1,1-1V40H7a1,1,0,0,1-1-1V35a1,1,0,0,1,1-1H23a1,1,0,0,1,1,1v3h1a1,1,0,0,1,1,1v4a1,1,0,0,1-1,1v2h1a1,1,0,0,1,1,1Z"></path><rect x="9" y="44" width="14" height="2"></rect><rect x="10" y="40" width="14" height="2"></rect><path d="M31,26a.957.957,0,0,0-.694.288A.978.978,0,0,0,30,27a1,1,0,0,0,1,1h3.808l-.353-2Z"></path><rect x="8" y="36" width="14" height="2"></rect></g></svg>