<svg xmlns="http://www.w3.org/2000/svg" viewBox="0 0 64 64" x="0px" y="0px"><g><path d="M30.293,52.707,28.586,51H26V49h3a1,1,0,0,1,.707.293l2,2Z"></path><path d="M9.707,52.707,8.293,51.293l2-2A1,1,0,0,1,11,49h3v2H11.414Z"></path><path d="M30.293,47.707,28.586,46H26V44h3a1,1,0,0,1,.707.293l2,2Z"></path><path d="M9.707,47.707,8.293,46.293l2-2A1,1,0,0,1,11,44h3v2H11.414Z"></path><path d="M50,38a4,4,0,1,0-2.073-7.415,5.971,5.971,0,0,1,0,6.83A3.988,3.988,0,0,0,50,38Z"></path><circle cx="43" cy="34" r="4"></circle><path d="M24,39a3,3,0,0,0-3-3H19a3,3,0,0,0-3,3v1h8Z"></path><rect x="4" y="10" width="56" height="4"></rect><rect x="4" y="16" width="56" height="4"></rect><path d="M4,22V42H14V41H11a1.033,1.033,0,0,1-.71-.29l-2-2,1.42-1.42L11.41,39H14a5.014,5.014,0,0,1,3-4.58V32.41l-1.71-1.7,1.42-1.42,2,2A1.033,1.033,0,0,1,19,32v2h2V32a1.033,1.033,0,0,1,.29-.71l2-2,1.42,1.42L23,32.41v2.01A5.014,5.014,0,0,1,26,39h2.59l1.7-1.71,1.42,1.42-2,2A1.033,1.033,0,0,1,29,41H26v1H60V22ZM50,40a5.976,5.976,0,0,1-3.5-1.14,6,6,0,1,1,0-9.72A6,6,0,1,1,50,40Z"></path><path d="M16,51a3,3,0,0,0,3,3h2a3,3,0,0,0,3-3V42H16Z"></path></g></svg>