<svg xmlns="http://www.w3.org/2000/svg" viewBox="0 0 64 64" x="0px" y="0px"><g><path d="M30,24h2v3h2V24H50v3h2V24h2v9h2V23a1,1,0,0,0-1-1H52V17a9.01,9.01,0,0,0-9-9H41a8.949,8.949,0,0,0-3.5.708A8.949,8.949,0,0,0,34,8H32a9.01,9.01,0,0,0-9,9v5H19a1,1,0,0,0-1,1V61a1,1,0,0,0,1,1H38V60H30Zm7.5-13.053A7,7,0,0,1,41,17v5H34V17A7,7,0,0,1,37.5,10.947ZM41,10h2a7.009,7.009,0,0,1,7,7v5H43V17a8.982,8.982,0,0,0-3.217-6.887A6.973,6.973,0,0,1,41,10ZM25,17a7.009,7.009,0,0,1,7-7h2a6.973,6.973,0,0,1,1.217.113A8.982,8.982,0,0,0,32,17v5H25Zm-.231,37.359a1.037,1.037,0,0,0-1.538,0L20,58.237V25.763l3.231,3.878a1,1,0,0,0,1.538,0L28,25.763V58.237ZM26.864,60H21.136L24,56.562ZM21.136,24h5.728L24,27.438Z"></path><path d="M14,20h7V18H18V11a7,7,0,0,1,3.5-6.05,6.969,6.969,0,0,1,3,3.425l1.854-.75a8.99,8.99,0,0,0-2.568-3.511A6.945,6.945,0,0,1,25,4h2a7,7,0,0,1,5.25,2.371l1.5-1.324A9,9,0,0,0,27,2H25a8.947,8.947,0,0,0-3.518.717A9.014,9.014,0,0,0,18,2H16a9.01,9.01,0,0,0-9,9v7H3a1,1,0,0,0-1,1V61a1,1,0,0,0,1,1H16V60H14ZM9,11a7.009,7.009,0,0,1,7-7h2a7.076,7.076,0,0,1,1.215.115A8.981,8.981,0,0,0,16,11v7H9ZM8.769,54.359a1.037,1.037,0,0,0-1.538,0L4,58.237V21.763l3.231,3.878a1,1,0,0,0,1.538,0L12,21.763V58.237ZM10.864,60H5.136L8,56.562ZM5.136,20h5.728L8,23.438Z"></path><path d="M53.728,43.514A4.027,4.027,0,0,0,50.9,42.34a3.971,3.971,0,0,0-2.827,1.173L48,43.586l-.073-.073A3.971,3.971,0,0,0,45.1,42.34a4.026,4.026,0,0,0-2.827,1.173,4,4,0,0,0,0,5.654l5.02,5.021a1,1,0,0,0,1.414,0l5.02-5.021a4,4,0,0,0,0-5.653Zm-1.416,4.239L48,52.066l-4.313-4.313a2,2,0,0,1,0-2.827A2.012,2.012,0,0,1,45.1,44.34a1.986,1.986,0,0,1,1.413.587l.78.78a1,1,0,0,0,1.414,0l.78-.78a2.05,2.05,0,0,1,2.825,0,2,2,0,0,1,0,2.826Z"></path><path d="M48,37A11,11,0,1,0,59,48,11.013,11.013,0,0,0,48,37Zm0,20a9,9,0,1,1,9-9A9.01,9.01,0,0,1,48,57Z"></path><path d="M48,34A14,14,0,1,0,62,48,14.015,14.015,0,0,0,48,34Zm0,26A12,12,0,1,1,60,48,12.013,12.013,0,0,1,48,60Z"></path></g></svg>