<svg xmlns="http://www.w3.org/2000/svg" viewBox="0 0 64 64" x="0px" y="0px"><g><rect x="28" y="31" width="2" height="2"></rect><rect x="32" y="31" width="2" height="2"></rect><rect x="24" y="31" width="2" height="2"></rect><rect x="28" y="35" width="2" height="2"></rect><rect x="32" y="35" width="2" height="2"></rect><rect x="24" y="35" width="2" height="2"></rect><rect x="28" y="39" width="2" height="2"></rect><rect x="32" y="39" width="2" height="2"></rect><rect x="24" y="39" width="2" height="2"></rect><rect x="28" y="43" width="2" height="2"></rect><rect x="32" y="43" width="2" height="2"></rect><rect x="24" y="43" width="2" height="2"></rect><rect x="28" y="27" width="2" height="2"></rect><rect x="32" y="27" width="2" height="2"></rect><rect x="24" y="27" width="2" height="2"></rect><rect x="28" y="23" width="2" height="2"></rect><rect x="32" y="23" width="2" height="2"></rect><rect x="24" y="23" width="2" height="2"></rect><rect x="28" y="19" width="2" height="2"></rect><rect x="32" y="19" width="2" height="2"></rect><rect x="24" y="19" width="2" height="2"></rect><rect x="28" y="15" width="2" height="2"></rect><rect x="32" y="15" width="2" height="2"></rect><rect x="24" y="15" width="2" height="2"></rect><rect x="40" y="25" width="8" height="2"></rect><rect x="40" y="29" width="8" height="2"></rect><rect x="40" y="33" width="8" height="2"></rect><rect x="10" y="29" width="8" height="2"></rect><rect x="10" y="33" width="8" height="2"></rect><rect x="10" y="37" width="8" height="2"></rect><rect x="10" y="41" width="8" height="2"></rect><rect x="10" y="45" width="8" height="2"></rect><rect x="10" y="49" width="8" height="2"></rect><path d="M49,46a1,1,0,0,1,1,1h2a3,3,0,0,0-2-2.816V43H48v1.184A2.993,2.993,0,0,0,49,50a1,1,0,1,1-1,1H46a3,3,0,0,0,2,2.816V55h2V53.816A2.993,2.993,0,0,0,49,48a1,1,0,0,1,0-2Z"></path><path d="M49,39A10,10,0,1,0,59,49,10.011,10.011,0,0,0,49,39Zm0,18a8,8,0,1,1,8-8A8.009,8.009,0,0,1,49,57Z"></path><path d="M52,36.363V23h2V21H38V12a1,1,0,0,0-1-1H35V8a1,1,0,0,0-1-1H30V2H28V7H24a1,1,0,0,0-1,1v3H21a1,1,0,0,0-1,1V25H4v2H6V57H2v2H40.705A12.993,12.993,0,1,0,52,36.363ZM50,23V36.051c-.331-.026-.662-.051-1-.051a12.993,12.993,0,0,0-11,6.1V23ZM25,9h8v2H25ZM8,27H20V57H8ZM22,13H36V57H34V50a1,1,0,0,0-1-1H25a1,1,0,0,0-1,1v7H22Zm4,44V51h6v6Zm12-1.1a12.861,12.861,0,0,0,.775,1.1H38ZM49,60A11,11,0,1,1,60,49,11.013,11.013,0,0,1,49,60Z"></path><rect x="54" y="48" width="2" height="2"></rect><rect x="42" y="48" width="2" height="2"></rect></g></svg>