<svg xmlns="http://www.w3.org/2000/svg" viewBox="0 0 64 64" x="0px" y="0px"><g data-name="Bone Fracture"><path d="M36.485,32a1,1,0,0,1,.9.553l.794,1.587L47.8,24.515a1,1,0,0,1,1.414,0,5.83,5.83,0,0,0,4.293,1.756,5.954,5.954,0,0,0,4.265-1.83,6.069,6.069,0,0,0,.082-8.253,6.007,6.007,0,0,0-6.408-1.562,1,1,0,0,1-1.042-.235l-.966-.965a1,1,0,0,1-.235-1.042A6,6,0,0,0,47.64,5.977a6.067,6.067,0,0,0-8.253.082,6,6,0,0,0-.074,8.556,1,1,0,0,1,0,1.414L29,26.343v1.3l5.254-.585a1.011,1.011,0,0,1,.828.3,1,1,0,0,1,.272.837L34.811,32Z"></path><path d="M28.242,37a1,1,0,0,1-.948-1.316l.838-2.514-3.89.972A1,1,0,0,1,23,33.172V31.343l-6.778,6.778a1,1,0,0,1-1.414,0,6,6,0,0,0-8.557.073,6.066,6.066,0,0,0-.082,8.252,6,6,0,0,0,6.407,1.564,1,1,0,0,1,1.042.235l.965.966a1,1,0,0,1,.235,1.042,6.005,6.005,0,0,0,1.564,6.408,6.071,6.071,0,0,0,8.253-.084,6,6,0,0,0,.072-8.556,1,1,0,0,1,0-1.415l7.976-7.975L31.867,37Z"></path></g></svg>