<svg xmlns="http://www.w3.org/2000/svg" data-name="Cutlery Set" viewBox="0 0 64 64" x="0px" y="0px"><path d="M32,2A30,30,0,1,0,62,32,30.034,30.034,0,0,0,32,2Zm0,58A28,28,0,1,1,60,32,28.032,28.032,0,0,1,32,60Z"></path><path d="M50.179,21.518A7.857,7.857,0,0,0,51,18c0-3.86-2.691-7-6-7a5.571,5.571,0,0,0-4.171,1.978,20.623,20.623,0,0,0-6.53-1.831,3.039,3.039,0,0,0-4.764.01A20.616,20.616,0,0,0,25,12.2V11H23v2.036a20.632,20.632,0,0,0-2,1.086V11H19v4.523a21.239,21.239,0,0,0-2,1.789V11H15v8.689a20.937,20.937,0,0,0,2.236,27.216l-.169,5.063a2.935,2.935,0,1,0,5.866,0L22.9,50.917a20.6,20.6,0,0,0,6.286,1.89A2.924,2.924,0,0,0,32.033,55a2.964,2.964,0,0,0,2.857-2.209,21.073,21.073,0,0,0,7.226-2.4l-.051,1.578a2.936,2.936,0,1,0,5.87,0l-.2-6.1a20.9,20.9,0,0,0,2.441-24.354ZM45,13c2.206,0,4,2.243,4,5s-1.794,5-4,5-4-2.243-4-5S42.794,13,45,13ZM31.923,12A1.078,1.078,0,0,1,33,13.077V36H29.08l1.77-23.006A1.082,1.082,0,0,1,31.923,12ZM23,15.275V21a2,2,0,0,1-2,2V16.518A19.3,19.3,0,0,1,23,15.275Zm-4,2.884V23a2,2,0,0,1-2-2v-.648A18.975,18.975,0,0,1,19,18.159ZM13,32a18.824,18.824,0,0,1,2.417-9.256,4,4,0,0,0,2.555,2.105l-.641,19.206A18.773,18.773,0,0,1,13,32Zm7.672,20.715a.956.956,0,0,1-1.344,0,.931.931,0,0,1-.263-.681L19.967,25h.066l.9,27.034A.931.931,0,0,1,20.672,52.715Zm1.356-27.866A4,4,0,0,0,25,21V14.351a18.6,18.6,0,0,1,3.823-1.082L27,36.923A1,1,0,0,0,28,38h1.537l-.428,12.754a18.584,18.584,0,0,1-6.288-2.147ZM32.033,53a.967.967,0,0,1-.966-1l.47-14H33V52.034A.968.968,0,0,1,32.033,53ZM35,50.76v-37.5a18.575,18.575,0,0,1,4.724,1.412A7.879,7.879,0,0,0,39,18a7.033,7.033,0,0,0,3.947,6.569l-.755,23.456A19.048,19.048,0,0,1,35,50.76Zm10.673,1.955a.959.959,0,0,1-1.346,0,.935.935,0,0,1-.264-.682L44.934,25c.022,0,.044,0,.066,0s.044,0,.066,0l.871,27.037A.935.935,0,0,1,45.673,52.715Zm1.38-28.146a5.874,5.874,0,0,0,1.84-1.253A18.9,18.9,0,0,1,47.638,42.75Z"></path></svg>