<svg xmlns="http://www.w3.org/2000/svg" viewBox="0 0 64 64" x="0px" y="0px"><path d="M46.2,39.748a2.989,2.989,0,0,0-.416-5.632A2.984,2.984,0,0,0,46,33V5a3,3,0,0,0-3-3H21a3,3,0,0,0-3,3V33a2.984,2.984,0,0,0,.22,1.116,2.989,2.989,0,0,0-.416,5.632l-4.78,21.03A1,1,0,0,0,14,62h5a1,1,0,0,0,.986-.835L20.847,56H43.153l.861,5.165A1,1,0,0,0,45,62h5a1,1,0,0,0,.976-1.222ZM20,5a1,1,0,0,1,1-1H43a1,1,0,0,1,1,1V33a1,1,0,0,1-1,1H21a1,1,0,0,1-1-1ZM19,36H45a1,1,0,0,1,0,2H19a1,1,0,0,1,0-2ZM45.847,60l-.861-5.165A1,1,0,0,0,44,54H20a1,1,0,0,0-.986.835L18.153,60h-2.9L19.8,40H44.2l4.545,20Z"></path><path d="M41.97,42.757A1,1,0,0,0,41,42H23a1,1,0,0,0-.97.757l-2,8A1,1,0,0,0,21,52H43a1,1,0,0,0,.97-1.243ZM22.281,50l1.5-6H40.219l1.5,6Z"></path><path d="M25,31H39a2,2,0,0,0,2-2V9a2,2,0,0,0-2-2H25a2,2,0,0,0-2,2V29A2,2,0,0,0,25,31ZM25,9H39V29H25Z"></path></svg>