<svg xmlns="http://www.w3.org/2000/svg" viewBox="0 0 64 64" x="0px" y="0px"><g><path d="M26,33.14V29a2.993,2.993,0,0,0-5.9-.72L10.81,32H5a3.009,3.009,0,0,0-3,3v4a3.009,3.009,0,0,0,3,3V52a2.006,2.006,0,0,0,2,2h4a2.006,2.006,0,0,0,2-2V42.88l7.1,2.84A2.993,2.993,0,0,0,26,45V40.86a3.983,3.983,0,0,0,0-7.72ZM6,40H5a1,1,0,0,1-1-1V35a1,1,0,0,1,1-1H6Zm2-6h2v6H8Zm3,18H7V42h3.81l.19.08Zm9-8.48-8-3.2V33.68l8-3.2ZM24,45a1,1,0,0,1-2,0V29a1,1,0,0,1,2,0Zm2-6.28V35.28a1.979,1.979,0,0,1,0,3.44Z"></path><path d="M53,57a3,3,0,0,1-3,3H14a3,3,0,0,1-3-3V56H9v1a5.006,5.006,0,0,0,5,5H50a5.006,5.006,0,0,0,5-5V45H53Z"></path><path d="M11,7a3,3,0,0,1,3-3H45V9a3,3,0,0,0,3,3h5V26h2V11a1,1,0,0,0-.293-.707l-8-8A1,1,0,0,0,46,2H14A5.006,5.006,0,0,0,9,7V30h2ZM47,9V5.414L51.586,10H48A1,1,0,0,1,47,9Z"></path><rect x="15" y="8" width="2" height="2"></rect><rect x="19" y="8" width="6" height="2"></rect><rect x="15" y="12" width="10" height="2"></rect><rect x="15" y="18" width="2" height="2"></rect><rect x="19" y="18" width="2" height="2"></rect><rect x="23" y="18" width="2" height="2"></rect><rect x="27" y="18" width="20" height="2"></rect><rect x="15" y="22" width="32" height="2"></rect><rect x="31" y="26" width="16" height="2"></rect><rect x="31" y="30" width="16" height="2"></rect><rect x="31" y="34" width="12" height="2"></rect><rect x="20" y="54" width="10" height="2"></rect><rect x="20" y="50" width="10" height="2"></rect><path d="M60.87,28.13a5.006,5.006,0,0,0-7.071,0L36.121,45.808a1,1,0,0,0-.273.51L35.2,49.557l-1.907,1.907a3,3,0,1,0,4.242,4.243L39.443,53.8l3.239-.648a1,1,0,0,0,.51-.274L60.87,35.2A5.006,5.006,0,0,0,60.87,28.13ZM37.207,49.722l.471-2.358,3.957,3.957-2.357.472Zm1.742-3.914L50.97,33.786,52.385,35.2,40.364,47.222Zm2.829,2.828L53.8,36.615l1.414,1.415L43.192,50.05ZM52.385,32.372l.707-.707,4.243,4.243-.708.708ZM36.12,54.293a1.023,1.023,0,0,1-1.413,0,1,1,0,0,1,0-1.415l1.414-1.414,1.415,1.415ZM59.456,33.787l-.707.707-4.243-4.243.707-.707a3,3,0,1,1,4.243,4.243Z"></path></g></svg>