<svg xmlns="http://www.w3.org/2000/svg" viewBox="0 0 64 64" x="0px" y="0px"><g data-name="Online Order-Smartphone"><path d="M53,54h-.82l.806-4.835A1.021,1.021,0,0,0,53,49V28a5.006,5.006,0,0,0-5-5H47V7a5.006,5.006,0,0,0-5-5H22a5.006,5.006,0,0,0-5,5V17.556A3.959,3.959,0,0,0,15,17a3.983,3.983,0,0,0-2.618,7,3.947,3.947,0,0,0,0,6,3.947,3.947,0,0,0,0,6A3.983,3.983,0,0,0,15,43h2v2a5.006,5.006,0,0,0,5,5h1.28l1.333,4H23a2,2,0,0,0-2,2v4a2,2,0,0,0,2,2H53a2,2,0,0,0,2-2V56A2,2,0,0,0,53,54ZM26,4H38V5a1,1,0,0,1-1,1H27a1,1,0,0,1-1-1ZM13,21a2,2,0,1,1,2,2A2,2,0,0,1,13,21Zm0,6a2,2,0,0,1,2-2h6a2,2,0,0,1,0,4H15A2,2,0,0,1,13,27Zm0,6a2,2,0,0,1,2-2h6a2,2,0,0,1,0,4H15A2,2,0,0,1,13,33Zm0,6a2,2,0,0,1,2-2h6a2,2,0,0,1,0,4H15A2,2,0,0,1,13,39Zm6,6V43h2a3.983,3.983,0,0,0,2.618-7,3.947,3.947,0,0,0,0-6A3.983,3.983,0,0,0,21,23H19V7a3,3,0,0,1,3-3h2V5a3,3,0,0,0,3,3H37a3,3,0,0,0,3-3V4h2a3,3,0,0,1,3,3V23H44a5,5,0,0,0,0,10h1V45a3,3,0,0,1-3,3H22A3,3,0,0,1,19,45Zm6.388,5H42a5.006,5.006,0,0,0,5-5V32a1,1,0,0,0-1-1H44a3,3,0,0,1,0-6h4a3,3,0,0,1,3,3V48.917L50.153,54H26.721ZM23,60V56H53v4Z"></path><rect x="31" y="32" width="2" height="2"></rect><rect x="35" y="32" width="2" height="2"></rect><rect x="27" y="32" width="2" height="2"></rect><path d="M27.105,25.447A1,1,0,0,0,28,26h8a1,1,0,0,0,.9-.558L38.6,22H40V20H37.91A6.008,6.008,0,0,0,33,15.09V14H31v1.09A6.008,6.008,0,0,0,26.09,20H24v2h1.382ZM35.378,24h-6.76l-1-2h8.747ZM32,17a4,4,0,0,1,3.858,3H28.142A4,4,0,0,1,32,17Z"></path></g></svg>