<svg xmlns="http://www.w3.org/2000/svg" viewBox="0 0 64 64" x="0px" y="0px"><g><path d="M52,30.363V5a3,3,0,0,0-3-3H5A3,3,0,0,0,2,5V49a3,3,0,0,0,3,3H39.129A43.747,43.747,0,0,0,48.4,61.8a1,1,0,0,0,1.2,0C50.106,61.42,62,52.392,62,43A13.014,13.014,0,0,0,52,30.363ZM35,12H50v6H35ZM50,5v5H35V4H49A1,1,0,0,1,50,5ZM33,4V23a1,1,0,0,1-1,1H22a1,1,0,0,1-1-1V4ZM19,18H4V12H19ZM5,4H19v6H4V5A1,1,0,0,1,5,4ZM5,50a1,1,0,0,1-1-1V20H19v3a3,3,0,0,0,3,3H32a3,3,0,0,0,3-3V20H50V30.051c-.331-.026-.662-.051-1-.051A13.015,13.015,0,0,0,36,43a15.193,15.193,0,0,0,1.95,7Zm44,9.725C46.622,57.792,38,50.281,38,43a11,11,0,0,1,22,0C60,50.271,51.377,57.791,49,59.725Z"></path><path d="M49,37a6,6,0,1,0,6,6A6.006,6.006,0,0,0,49,37Zm0,10a4,4,0,1,1,4-4A4,4,0,0,1,49,47Z"></path></g></svg>