<svg xmlns="http://www.w3.org/2000/svg" viewBox="0 0 64 64" x="0px" y="0px"><title>Ruler</title><g data-name="Ruler"><path d="M60.134,16.867,47.405,4.139a1,1,0,0,0-1.414,0L3.565,46.565a1,1,0,0,0,0,1.414L16.293,60.707a1,1,0,0,0,1.414,0L60.134,18.281a1,1,0,0,0,0-1.414ZM17,58.586,5.687,47.272l2.828-2.828,1.414,1.414,1.414-1.414L9.929,43.03,12.758,40.2l1.414,1.414L15.586,40.2l-1.414-1.414L17,35.958l1.414,1.415,1.414-1.415-1.414-1.414,2.828-2.828,1.415,1.414,1.414-1.414L22.657,30.3l2.828-2.829L26.9,28.887l1.414-1.414L26.9,26.059l2.829-2.829,1.415,1.415,1.414-1.415-1.415-1.414,2.829-2.828L35.385,20.4,36.8,18.988l-1.414-1.414,2.828-2.829,1.415,1.414,1.414-1.414-1.415-1.414L42.456,10.5l1.414,1.415L45.284,10.5,43.87,9.088,46.7,6.26,58.013,17.574Z"></path><path d="M45,16a3,3,0,1,0,3-3A3,3,0,0,0,45,16Zm3-1a1,1,0,1,1-1,1A1,1,0,0,1,48,15Z"></path></g></svg>