<svg xmlns="http://www.w3.org/2000/svg" viewBox="0 0 64 64" x="0px" y="0px"><g data-name="Cloud Computting"><path d="M52.935,15.043A7.01,7.01,0,0,0,46,9a6.939,6.939,0,0,0-4.053,1.293,11.99,11.99,0,0,0-21.529,3.6A6.987,6.987,0,0,0,10.08,19,8,8,0,1,0,10,35h6V46a3,3,0,0,0,3,3h8.82l-.667,4H27a3,3,0,0,0,0,6H37a3,3,0,0,0,0-6h-.153l-.667-4H45a3,3,0,0,0,3-3V35h4a10,10,0,0,0,.935-19.957ZM38,56a1,1,0,0,1-1,1H27a1,1,0,0,1,0-2H37A1,1,0,0,1,38,56Zm-3.18-3H29.18l.667-4h4.306ZM45,47H19a1,1,0,0,1-1-1V45H46v1A1,1,0,0,1,45,47Zm7-14H48V30a3,3,0,0,0-3-3H43v2h2a1,1,0,0,1,1,1V43H18V30a1,1,0,0,1,1-1h4V27H19a3,3,0,0,0-3,3v3H10a6,6,0,0,1,0-12,5.475,5.475,0,0,1,.845.068,1.03,1.03,0,0,0,.8-.268A1.086,1.086,0,0,0,12,20a5,5,0,0,1,8.421-3.646,1,1,0,0,0,1.672-.611,9.988,9.988,0,0,1,18.725-3.451,1,1,0,0,0,1.6.226A5,5,0,0,1,51,16a1,1,0,0,0,1,1,8,8,0,0,1,0,16Z"></path><rect x="47" y="15" width="2" height="2"></rect><rect x="43" y="15" width="2" height="2"></rect><path d="M56,25a4,4,0,0,1-4,4v2a6.006,6.006,0,0,0,6-6Z"></path><path d="M38.707,18.293a1,1,0,0,0-1.414,0l-4,4A1,1,0,0,0,34,24h1v7h2V23a1,1,0,0,0-.649-.937L38,20.414l1.649,1.649A1,1,0,0,0,39,23V33h2V24h1a1,1,0,0,0,.707-1.707Z"></path><rect x="39" y="35" width="2" height="2"></rect><rect x="39" y="39" width="2" height="2"></rect><rect x="35" y="33" width="2" height="2"></rect><rect x="35" y="37" width="2" height="2"></rect><path d="M32,32H31V27H29v6a1,1,0,0,0,.649.937L28,35.586l-1.649-1.649A1,1,0,0,0,27,33V23H25v9H24a1,1,0,0,0-.707,1.707l4,4a1,1,0,0,0,1.414,0l4-4A1,1,0,0,0,32,32Z"></path><rect x="29" y="23" width="2" height="2"></rect><rect x="25" y="19" width="2" height="2"></rect><rect x="25" y="15" width="2" height="2"></rect></g></svg>