<svg xmlns="http://www.w3.org/2000/svg" viewBox="0 0 64 64" x="0px" y="0px"><g><path d="M22,23a2,2,0,0,0-2,2v2a2,2,0,0,0,2,2h1.522a9.266,9.266,0,0,0,.362.873L22.808,30.95a2,2,0,0,0,0,2.828l1.414,1.414a2,2,0,0,0,2.828,0l1.077-1.076a9.266,9.266,0,0,0,.873.362V36a2,2,0,0,0,2,2h2a2,2,0,0,0,2-2V34.478a9.266,9.266,0,0,0,.873-.362l1.077,1.076a2,2,0,0,0,2.828,0l1.414-1.414a2,2,0,0,0,0-2.828l-1.076-1.077A9.266,9.266,0,0,0,40.478,29H42a2,2,0,0,0,2-2V25a2,2,0,0,0-2-2H40.478a9.266,9.266,0,0,0-.362-.873l1.076-1.077a2,2,0,0,0,0-2.828l-1.414-1.414a2,2,0,0,0-2.828,0l-1.077,1.076A9.266,9.266,0,0,0,35,17.522V16a2,2,0,0,0-2-2H31a2,2,0,0,0-2,2v1.522a9.266,9.266,0,0,0-.873.362L27.05,16.808a2,2,0,0,0-2.828,0l-1.414,1.414a2,2,0,0,0,0,2.828l1.076,1.077a9.266,9.266,0,0,0-.362.873Zm3.821-1.765-1.6-1.6,1.414-1.414,1.6,1.6a1,1,0,0,0,1.216.154,7,7,0,0,1,1.8-.745,1,1,0,0,0,.75-.968V16h2v2.262a1,1,0,0,0,.75.968,7,7,0,0,1,1.8.745,1,1,0,0,0,1.216-.154l1.6-1.6,1.414,1.414-1.6,1.6a1,1,0,0,0-.154,1.216,7,7,0,0,1,.745,1.8,1,1,0,0,0,.968.75H42v2H39.738a1,1,0,0,0-.968.75,7,7,0,0,1-.745,1.8,1,1,0,0,0,.154,1.216l1.6,1.6-1.414,1.414-1.6-1.6a1,1,0,0,0-1.216-.154,7,7,0,0,1-1.8.745,1,1,0,0,0-.75.968V36H31V33.738a1,1,0,0,0-.75-.968,7,7,0,0,1-1.8-.745,1,1,0,0,0-1.216.154l-1.6,1.6-1.414-1.414,1.6-1.6a1,1,0,0,0,.154-1.216,7,7,0,0,1-.745-1.8,1,1,0,0,0-.968-.75H22V25h2.262a1,1,0,0,0,.968-.75,7,7,0,0,1,.745-1.8A1,1,0,0,0,25.821,21.235Z"></path><path d="M32,31a5,5,0,1,0-5-5A5.006,5.006,0,0,0,32,31Zm0-8a3,3,0,1,1-3,3A3,3,0,0,1,32,23Z"></path><path d="M47.414,18H49V16H47a1,1,0,0,0-.707.293l-3,3,1.414,1.414Z"></path><rect x="51" y="16" width="5" height="2"></rect><rect x="51" y="20" width="5" height="2"></rect><rect x="51" y="30" width="5" height="2"></rect><rect x="51" y="34" width="5" height="2"></rect><rect x="45" y="32" width="4" height="2"></rect><path d="M19.293,20.707l1.414-1.414-3-3A1,1,0,0,0,17,16H15v2h1.586Z"></path><rect x="8" y="16" width="5" height="2"></rect><rect x="8" y="20" width="5" height="2"></rect><rect x="8" y="30" width="5" height="2"></rect><rect x="8" y="34" width="5" height="2"></rect><rect x="15" y="32" width="4" height="2"></rect><path d="M57,2H7A5.006,5.006,0,0,0,2,7V45a5.006,5.006,0,0,0,5,5H23.867l-.75,6H21a3,3,0,0,0,0,6H43a3,3,0,0,0,0-6H40.883l-.75-6H57a5.006,5.006,0,0,0,5-5V7A5.006,5.006,0,0,0,57,2ZM7,4H57a3,3,0,0,1,3,3v3H4V7A3,3,0,0,1,7,4Zm53,8V40H4V12ZM44,59a1,1,0,0,1-1,1H21a1,1,0,0,1,0-2H43A1,1,0,0,1,44,59Zm-5.133-3H25.133l.75-6H38.117ZM57,48H7a3,3,0,0,1-3-3V42H60v3A3,3,0,0,1,57,48Z"></path><rect x="54" y="44" width="2" height="2"></rect><rect x="8" y="6" width="2" height="2"></rect><rect x="12" y="6" width="2" height="2"></rect><rect x="16" y="6" width="2" height="2"></rect></g></svg>