<svg xmlns="http://www.w3.org/2000/svg" viewBox="0 0 64 64" x="0px" y="0px"><g><path d="M61.713,45.6l-5.638-2.052a1,1,0,0,0-1.281.6l-.342.939L47.92,42.705a.968.968,0,0,0-.514-.045l-13.59,2.4a4.008,4.008,0,0,0-2.862,2.114L24.72,44.9a3.962,3.962,0,0,0-3.057.135,4.01,4.01,0,0,0-2.27,3.041,4.088,4.088,0,0,0,2.729,4.391l20.535,7.474a.979.979,0,0,0,.342.061,1,1,0,0,0,.32-.053l5.735-1.936.61.222-.342.94a1,1,0,0,0,.6,1.281l5.639,2.052a.978.978,0,0,0,.341.061,1,1,0,0,0,.94-.658l5.472-15.036A1,1,0,0,0,61.713,45.6ZM48.746,56.009l-5.735,1.936L22.806,50.59a2.113,2.113,0,0,1-1.436-2.208,2,2,0,0,1,2.666-1.6l6.488,2.361a4.352,4.352,0,0,0,.045.551A4.017,4.017,0,0,0,35.2,52.939l11.258-1.985-.348-1.97L34.857,50.969a2.014,2.014,0,0,1-2.317-1.615,1.853,1.853,0,0,1,.005-.69.9.9,0,0,0,.017-.1,1.107,1.107,0,0,1,.069-.249,2.008,2.008,0,0,1,1.533-1.287l13.324-2.35,6.28,2.285-3.42,9.4-.94-.341A1,1,0,0,0,48.746,56.009ZM55.3,60.29l-3.759-1.368,4.788-13.156,3.759,1.368Z"></path><path d="M25.293,18.131a7.834,7.834,0,0,0,1.738,3.181,1.952,1.952,0,0,0-.031.242V27a3,3,0,0,0,3,3V40a1,1,0,0,0,.553.9l2,1a1,1,0,0,0,.894,0l2-1A1,1,0,0,0,36,40V30a3,3,0,0,0,3-3V21.554a2.053,2.053,0,0,0-.033-.26A7.742,7.742,0,0,0,40.5,18.771a3.653,3.653,0,0,0,3.73-1.711,3.947,3.947,0,0,0-.628-4.874L35.464,4.05A6.954,6.954,0,0,0,30.515,2H20a.989.989,0,0,0-.394.081L12.8,5H12V3a1,1,0,0,0-1-1H3A1,1,0,0,0,2,3V19a1,1,0,0,0,1,1h8a1,1,0,0,0,1-1V17h.146c.716,2.4,3.932,4,6.854,4A7.979,7.979,0,0,0,25.293,18.131ZM10,18H4V4h6ZM34,39.382l-1,.5-1-.5V30h2ZM37,27a1,1,0,0,1-1,1H30a1,1,0,0,1-1-1V22.918a7.868,7.868,0,0,0,2.157.86,2.013,2.013,0,1,0,.28-2.01,5.935,5.935,0,0,1-1.6-.683A7.849,7.849,0,0,1,33,20a9.374,9.374,0,0,1,4,1.554Zm.745-7.327A10.915,10.915,0,0,0,33,18a10.891,10.891,0,0,0-4.737,1.669A5.862,5.862,0,0,1,27.089,17H32a3.9,3.9,0,0,0,3.494-2.091l2.8,2.8a3.622,3.622,0,0,0,.354.291A5.752,5.752,0,0,1,37.745,19.673Zm-1.792-7.134a3.962,3.962,0,0,0-.991-2.2,6,6,0,0,1,4.016,5.228ZM24,16c0,1.514-2.477,3-5,3s-5-1.486-5-3a1,1,0,0,0-1-1H12V7h1a.989.989,0,0,0,.394-.081L20.2,4h10.31A4.967,4.967,0,0,1,34.05,5.464L42.186,13.6a1.936,1.936,0,0,1,.357,2.381A1.8,1.8,0,0,1,41,16.82c-.016,0-.031,0-.047,0A7.839,7.839,0,0,0,41,16a8.009,8.009,0,0,0-8-8,7.918,7.918,0,0,0-3.839,1H21v2H32a2,2,0,0,1,0,4H25A1,1,0,0,0,24,16Z"></path></g></svg>