<svg xmlns="http://www.w3.org/2000/svg" viewBox="0 0 64 64" x="0px" y="0px"><g><rect x="40" y="33" width="9" height="2"></rect><rect x="40" y="37" width="9" height="2"></rect><rect x="40" y="41" width="9" height="2"></rect><path d="M49,18.09A5.992,5.992,0,0,0,44.09,23H49Z"></path><rect x="40" y="29" width="9" height="2"></rect><rect x="40" y="25" width="9" height="2"></rect><path d="M49,11.91V7H44.09A5.992,5.992,0,0,0,49,11.91Z"></path><path d="M6,49H8V19a2.006,2.006,0,0,1,2-2h3V15H9a3.009,3.009,0,0,0-3,3Z"></path><circle cx="32" cy="15" r="3"></circle><path d="M15,16.07A8,8,0,0,1,21.93,23H42.07A8,8,0,0,1,49,16.07V13.93A8,8,0,0,1,42.07,7H21.93A8,8,0,0,1,15,13.93ZM32,10a5,5,0,1,1-5,5A5.006,5.006,0,0,1,32,10Z"></path><path d="M15,7v4.91A5.992,5.992,0,0,0,19.91,7Z"></path><path d="M38,43V25H26V43Zm-5-8H31a3,3,0,0,1,0-6V28h2v1a3,3,0,0,1,3,3H34a1,1,0,0,0-1-1H31a1,1,0,0,0,0,2h2a3,3,0,0,1,0,6v1H31V39a3,3,0,0,1-3-3h2a1,1,0,0,0,1,1h2a1,1,0,0,0,0-2Z"></path><rect x="15" y="41" width="9" height="2"></rect><path d="M13,44V19H10V49H54V19H51V44a1,1,0,0,1-1,1H14A1,1,0,0,1,13,44Z"></path><rect x="15" y="37" width="9" height="2"></rect><path d="M58,49V18a3.009,3.009,0,0,0-3-3H51v2h3a2.006,2.006,0,0,1,2,2V49Z"></path><rect x="28" y="51" width="8" height="2"></rect><rect x="15" y="29" width="9" height="2"></rect><path d="M60,51H38v2a2.006,2.006,0,0,1-2,2H28a2.006,2.006,0,0,1-2-2V51H4v3a3.009,3.009,0,0,0,3,3H57a3.009,3.009,0,0,0,3-3Z"></path><rect x="15" y="33" width="9" height="2"></rect><path d="M15,23h4.91A5.992,5.992,0,0,0,15,18.09Z"></path><rect x="15" y="25" width="9" height="2"></rect></g></svg>