<svg xmlns="http://www.w3.org/2000/svg" viewBox="0 0 64 64" x="0px" y="0px"><g data-name="Delivery"><path d="M61.707,28.293,49.293,15.879A2.978,2.978,0,0,0,47.171,15H13a3,3,0,0,0-3,3V40a3,3,0,0,0,3,3h2.08a6.98,6.98,0,0,0,2.03,4H2v2H50a7,7,0,0,0,6.92-6H59a3,3,0,0,0,3-3V29A1,1,0,0,0,61.707,28.293ZM60,30H45V21h6.586L60,29.414ZM17,42a5,5,0,1,1,5,5A5.006,5.006,0,0,1,17,42Zm9.89,5a6.98,6.98,0,0,0,2.03-4H43.08a6.98,6.98,0,0,0,2.03,4ZM50,47a5,5,0,1,1,5-5A5.006,5.006,0,0,1,50,47Zm9-6H56.92a6.991,6.991,0,0,0-13.84,0H28.92a6.991,6.991,0,0,0-13.84,0H13a1,1,0,0,1-1-1V18a1,1,0,0,1,1-1H47.171a1,1,0,0,1,.708.293L49.586,19H45a2,2,0,0,0-2,2v9a2,2,0,0,0,2,2H60v8A1,1,0,0,1,59,41Z"></path><rect x="21" y="41" width="2" height="2"></rect><rect x="49" y="41" width="2" height="2"></rect><rect x="6" y="39" width="2" height="2"></rect><rect x="2" y="39" width="2" height="2"></rect><rect x="7" y="43" width="2" height="2"></rect><rect x="3" y="43" width="2" height="2"></rect><path d="M21,21H17a1,1,0,0,0-1,1v2h2V23h2v2H17a1,1,0,0,0-1,1v4a1,1,0,0,0,1,1h5V29H18V27h3a1,1,0,0,0,1-1V22A1,1,0,0,0,21,21Z"></path><path d="M28,25H26V21H24v5a1,1,0,0,0,1,1h3v4h2V21H28Z"></path><polygon points="37 25 35 25 35 21 33 21 33 31 35 31 35 27 37 27 37 31 39 31 39 21 37 21 37 25"></polygon></g></svg>