<svg xmlns="http://www.w3.org/2000/svg" viewBox="0 0 64 64" x="0px" y="0px"><g data-name="Handshake-Deal-Smartphone-Agreement-Mobile Phone"><path d="M57,6H35.9A5.009,5.009,0,0,0,31,2H7A5.006,5.006,0,0,0,2,7V53a5.006,5.006,0,0,0,5,5H28.1A5.009,5.009,0,0,0,33,62H57a5.006,5.006,0,0,0,5-5V11A5.006,5.006,0,0,0,57,6ZM39,8H51v2H39ZM13,4H25V6H13ZM60,57a3,3,0,0,1-3,3H33a3,3,0,0,1-3-3V52H28v4H7a3,3,0,0,1-3-3V7A3,3,0,0,1,7,4h4V6a2,2,0,0,0,2,2H25a2,2,0,0,0,2-2V4h4a3,3,0,0,1,2.816,2H33a5.006,5.006,0,0,0-5,5v8h2V11a3,3,0,0,1,3-3h4v2a2,2,0,0,0,2,2H51a2,2,0,0,0,2-2V8h4a3,3,0,0,1,3,3Z"></path><path d="M45.652,42.309a2.972,2.972,0,0,0,1.965-.864,3,3,0,0,0,0-4.242l-1.058-1.058.708-.707c.006-.006.008-.015.014-.021l2.811-2.811a1,1,0,0,0,0-1.414l-9.9-9.9a1,1,0,0,0-1.414,0L36.161,23.91l-1.532.3-2.922-2.922A1,1,0,0,0,31,21H27.171l-2.535-2.535a1,1,0,0,0-1.414,0l-9.9,9.9a1,1,0,0,0,0,1.414l7.2,7.2a2.974,2.974,0,0,0,2.545,4.269,2.955,2.955,0,0,0,2.828,2.83A2.952,2.952,0,0,0,28.724,46.9a2.994,2.994,0,0,0,5.1,1.964l1.063,1.063a2.988,2.988,0,0,0,5.106-1.966,2.953,2.953,0,0,0,2.828-2.829,2.955,2.955,0,0,0,2.829-2.827Zm.55-2.278a1.02,1.02,0,0,1-1.413,0l-1.414-1.414A1,1,0,1,1,44.789,37.2L46.2,38.617A1,1,0,0,1,46.2,40.031ZM39.485,23.414,47.971,31.9l-1.414,1.414-8.485-8.486ZM23.929,20.586,25.343,22l-8.485,8.485-1.415-1.414ZM27.171,23h3.415l7.838,7.839a1,1,0,1,1-1.414,1.414l-4.242-4.242a1,1,0,0,0-1.414,0,3,3,0,0,1-4.243,0L25.7,29.425a4.972,4.972,0,0,0,1.231.886l-5.121,5.124L18.272,31.9ZM31.7,47.74a.993.993,0,0,1-.714-1.687L31,46.042l2.826-2.824v0l0,0L32.414,41.8l-2.835,2.828-.009.011a1,1,0,0,1-1.4-1.425L31,40.385l-1.414-1.414L26.757,41.8a1.021,1.021,0,0,1-1.414,0,1,1,0,0,1,0-1.414l2.828-2.828-1.414-1.414-2.828,2.828a1,1,0,0,1-1.707-.707.991.991,0,0,1,.293-.707L29.2,30.869a4.982,4.982,0,0,0,2.793-.808L35.6,33.667a3,3,0,1,0,4.243-4.242l-3.51-3.51h0l8.815,8.816-.311.311a3.052,3.052,0,0,0-2.873.746,2.968,2.968,0,0,0-.864,1.967,2.954,2.954,0,0,0-2.828,2.827,2.957,2.957,0,0,0-2.831,2.857,2.923,2.923,0,0,0-2.731,3.72l-.293.293A.993.993,0,0,1,31.7,47.74Zm6.018.777a1,1,0,0,1-1.415,0L34.889,47.1A1,1,0,0,1,36.3,45.688h0L37.718,47.1a1,1,0,0,1,0,1.414Zm2.828-2.829a1,1,0,0,1-1.414,0l-1.414-1.414a1,1,0,1,1,1.414-1.415l1.414,1.414A1,1,0,0,1,40.546,45.688Zm2.829-2.829a1,1,0,0,1-1.415,0l-1.414-1.414a1,1,0,0,1,1.414-1.414l1.414,1.414a1,1,0,0,1,0,1.414Z"></path><path d="M47.293,20.293l1.414,1.414,3-3a1,1,0,0,0,0-1.414l-3-3-1.414,1.414L48.586,17H36v2H48.586Z"></path><path d="M16.707,47.707l-1.414-1.414-3,3a1,1,0,0,0,0,1.414l3,3,1.414-1.414L15.414,51H26V49H15.414Z"></path><rect x="50" y="46" width="6" height="2"></rect><rect x="46" y="46" width="2" height="2"></rect><rect x="46" y="50" width="10" height="2"></rect><rect x="46" y="54" width="10" height="2"></rect><rect x="12" y="12" width="6" height="2"></rect><rect x="8" y="12" width="2" height="2"></rect><rect x="8" y="16" width="10" height="2"></rect></g></svg>