<svg xmlns="http://www.w3.org/2000/svg" viewBox="0 0 64 64" x="0px" y="0px"><g data-name="Project"><polygon points="33.279 38 33.613 37 30.387 37 30.721 38 33.279 38"></polygon><path d="M26.469,36.826A.982.982,0,0,1,26,36V31.089a1,1,0,0,0-.551.56L23.443,37h2.939Z"></path><path d="M31,29h2v6h3V23.185a2.951,2.951,0,0,0-.511-1.676C33.59,18.733,32.376,18,32,18s-1.59.733-3.489,3.508A2.959,2.959,0,0,0,28,23.185V35h3Zm-2-6a3,3,0,1,1,3,3A3,3,0,0,1,29,23Z"></path><path d="M44.168,7.445a1.039,1.039,0,0,1,1.664,0L46,7.7V4H44V7.7Z"></path><circle cx="32" cy="23" r="1"></circle><path d="M13,60H51a1,1,0,0,0,1-1V36H44V34h8V18H44.414l-3.707,3.707-1.414-1.414,4-4A1,1,0,0,1,44,16h8V5a1,1,0,0,0-1-1H48v7a1,1,0,0,1-1.832.555L45,9.8l-1.168,1.752A1,1,0,0,1,42,11V4H13a1,1,0,0,0-1,1V16h8a1,1,0,0,1,.707.293l4,4-1.414,1.414L19.586,18H12V34h8v2H12V59A1,1,0,0,0,13,60ZM22,8h6v2H22ZM16,8h4v2H16Zm0,6V12H28v2Zm5.57,22.3,2.007-5.351A3.012,3.012,0,0,1,26,29.03V23.185a4.949,4.949,0,0,1,.861-2.807C29.856,16,31.47,16,32,16s2.143,0,5.139,4.379A4.937,4.937,0,0,1,38,23.185V29.03a3.011,3.011,0,0,1,2.423,1.918L42.43,36.3A2,2,0,0,1,40.557,39H37a1,1,0,0,1-.9-.553l-.52-1.041-.637,1.91v0A3.969,3.969,0,0,1,36,42c0,2.06-1.558,6-4,6s-4-3.94-4-6a3.971,3.971,0,0,1,1.052-2.681v0l-.636-1.909-.52,1.04A1,1,0,0,1,27,39H23.443a2,2,0,0,1-1.873-2.7ZM40,41v4H38V41ZM26,41v4H24V41ZM16,54h3.184A2.966,2.966,0,0,1,19,53a3.022,3.022,0,0,1,3.169-2.995A3,3,0,0,1,28,51H26a1,1,0,0,0-2,0,1.253,1.253,0,0,0,.014.167,1,1,0,0,1-1.508.971A.974.974,0,0,0,22,52a1,1,0,0,0,0,2H42a1,1,0,0,0,0-2,.976.976,0,0,0-.506.138,1,1,0,0,1-1.508-.966A1.516,1.516,0,0,0,40,51a1,1,0,0,0-2,0H36a3,3,0,0,1,5.83-.995A3.008,3.008,0,0,1,45,53a2.966,2.966,0,0,1-.184,1H48v2H16Z"></path><path d="M40.557,37,38.55,31.649a.993.993,0,0,0-.55-.56V36a.982.982,0,0,1-.469.826l.087.174Z"></path><path d="M32,40a2,2,0,0,0-2,2c0,1.495,1.252,4,2,4s2-2.505,2-4A2,2,0,0,0,32,40Z"></path><rect x="58" y="16" width="4" height="2"></rect><rect x="58" y="20" width="4" height="2"></rect><rect x="58" y="34" width="4" height="2"></rect><rect x="58" y="38" width="4" height="2"></rect><rect x="2" y="16" width="4" height="2"></rect><rect x="2" y="20" width="4" height="2"></rect><rect x="2" y="34" width="4" height="2"></rect><rect x="2" y="38" width="4" height="2"></rect><rect x="52" y="16" width="4" height="2"></rect><rect x="52" y="34" width="4" height="2"></rect><rect x="8" y="16" width="4" height="2"></rect><rect x="8" y="34" width="4" height="2"></rect></g></svg>