<svg xmlns="http://www.w3.org/2000/svg" viewBox="0 0 64 64" x="0px" y="0px"><g><path d="M54,28.744V10a3,3,0,0,0-3-3H5a3,3,0,0,0-3,3V40a3,3,0,0,0,3,3H32.051A14.991,14.991,0,1,0,54,28.744ZM5,9H51a1,1,0,0,1,1,1v2.371L30.164,22.853a4.985,4.985,0,0,1-4.328,0L4,12.371V10A1,1,0,0,1,5,9ZM4,40V14.589L24.971,24.655a6.966,6.966,0,0,0,6.058,0L52,14.589V27.875A14.941,14.941,0,0,0,32.051,41H5A1,1,0,0,1,4,40ZM47,55A13,13,0,1,1,60,42,13.015,13.015,0,0,1,47,55Z"></path><rect x="10" y="47" width="2" height="2"></rect><rect x="14" y="47" width="10" height="2"></rect><path d="M8,36V34H6v2a3,3,0,0,0,3,3h2V37H9A1,1,0,0,1,8,36Z"></path><rect x="6" y="30" width="2" height="2"></rect><path d="M47,33a4,4,0,0,0-4,4c0,1.14,1.152,8,4,8s4-6.86,4-8A4,4,0,0,0,47,33Zm0,9.979c-.79-.485-2-4.331-2-5.979a2,2,0,0,1,4,0C49,38.648,47.79,42.494,47,42.979Z"></path><circle cx="47" cy="49" r="2"></circle></g></svg>