<svg xmlns="http://www.w3.org/2000/svg" viewBox="0 0 64 64" x="0px" y="0px"><g><path d="M43,38H21V48H43Zm-4,8H25V44H39Zm0-4H25V40H39Z"></path><path d="M17.35,16a4.985,4.985,0,0,1-4.366-2.577L11,9.855V54H53V9.855l-1.986,3.571A4.983,4.983,0,0,1,46.65,16H42v4.939A13.006,13.006,0,0,1,35.313,32.3l-2.827,1.571a1,1,0,0,1-.972,0L28.687,32.3A13.006,13.006,0,0,1,22,20.939V16ZM44,36a1,1,0,0,1,1,1V49a1,1,0,0,1-1,1H20a1,1,0,0,1-1-1V37a1,1,0,0,1,1-1Z"></path><path d="M29.658,30.555,32,31.856l2.342-1.3A11.007,11.007,0,0,0,40,20.939V15.65l-8-3.556L24,15.65v5.289A11.007,11.007,0,0,0,29.658,30.555Zm-.951-10.262L31,22.586l4.293-4.293,1.414,1.414-5,5a1,1,0,0,1-1.414,0l-3-3Z"></path><path d="M12,60H52a1,1,0,0,0,1-1V56H11v3A1,1,0,0,0,12,60Z"></path><path d="M53,5a1,1,0,0,0-1-1H12a1,1,0,0,0-1,1v.741l3.734,6.713A2.985,2.985,0,0,0,17.35,14h5.438l8.806-3.914a1,1,0,0,1,.812,0L41.212,14H46.65a2.986,2.986,0,0,0,2.615-1.543L53,5.741Z"></path></g></svg>