<svg xmlns="http://www.w3.org/2000/svg" viewBox="0 0 64 64" x="0px" y="0px"><title>Order Papers</title><g data-name="Order Papers"><path d="M61,2H15a1,1,0,0,0-1,1V16H3a1,1,0,0,0-1,1V55a7.009,7.009,0,0,0,7,7H55a7.009,7.009,0,0,0,7-7V3A1,1,0,0,0,61,2ZM4,55V18H8V56h2V18h4V55a5.006,5.006,0,0,1-5,5,5.009,5.009,0,0,1-5-5Zm56,0a5.006,5.006,0,0,1-5,5H13.9c.009-.01.018-.021.028-.031.074-.073.143-.153.214-.23s.166-.175.244-.268.124-.164.187-.246c.074-.1.151-.194.221-.3.057-.085.108-.175.162-.262.065-.106.133-.209.193-.318.05-.091.092-.188.138-.282.054-.11.112-.218.16-.332s.077-.207.116-.311.087-.22.122-.334.063-.237.093-.355.06-.211.082-.319c.029-.14.046-.284.067-.427.013-.091.032-.179.041-.271A7.106,7.106,0,0,0,16,55V4H60Z"></path><path d="M29,44H49a1,1,0,0,0,1-.958l1-24A1,1,0,0,0,50,18H46V13a5.006,5.006,0,0,0-5-5H37a5.006,5.006,0,0,0-5,5v5H28a1,1,0,0,0-1,1.042l1,24A1,1,0,0,0,29,44Zm5-31a3,3,0,0,1,3-3h4a3,3,0,0,1,3,3v5H34Zm-2,7v5h2V20H44v5h2V20h2.957l-.916,22H29.959l-.916-22Z"></path><rect x="22" y="48" width="2" height="2"></rect><rect x="26" y="48" width="30" height="2"></rect><rect x="22" y="52" width="34" height="2"></rect></g></svg>