<svg xmlns="http://www.w3.org/2000/svg" viewBox="0 0 64 64" x="0px" y="0px"><g><path d="M53,2H11A2.006,2.006,0,0,0,9,4V9a1,1,0,0,0,1,1h1.04L13,61.04A1,1,0,0,0,14,62H50a1,1,0,0,0,1-.96L52.96,10H54a1,1,0,0,0,1-1V4A2.006,2.006,0,0,0,53,2ZM39,60H25V56H39Zm0-6H25V52H39Zm0-4H25V49a3.009,3.009,0,0,1,3-3h8a3.009,3.009,0,0,1,3,3ZM49.04,60H41V49a5,5,0,0,0-5-5H28a5,5,0,0,0-5,5V60H14.96L13.04,10H50.96ZM53,8H11V4H53Z"></path><path d="M32,19a6.975,6.975,0,0,1,6.491,4.375l1.854-.75a8.961,8.961,0,0,0-6.189-5.367l1.551-1.551-1.414-1.414-3,3A1,1,0,0,0,32,19Z"></path><path d="M39.617,25.076A1,1,0,0,0,39,26a6.975,6.975,0,0,1-4.375,6.491l.75,1.854a8.961,8.961,0,0,0,5.367-6.189l1.551,1.551,1.414-1.414-3-3A1,1,0,0,0,39.617,25.076Z"></path><path d="M32,33a6.975,6.975,0,0,1-6.491-4.375l-1.854.75a8.961,8.961,0,0,0,6.189,5.367l-1.551,1.551,1.414,1.414,3-3A1,1,0,0,0,32,33Z"></path><path d="M24,27a.987.987,0,0,0,.383-.076A1,1,0,0,0,25,26a6.975,6.975,0,0,1,4.375-6.491l-.75-1.854a8.961,8.961,0,0,0-5.367,6.189l-1.551-1.551-1.414,1.414,3,3A1,1,0,0,0,24,27Z"></path></g></svg>