<svg xmlns="http://www.w3.org/2000/svg" viewBox="0 0 64 64" x="0px" y="0px"><g><path d="M38,24H14V54H38ZM16,29a1,1,0,0,1,1-1H27a1,1,0,0,1,1,1v6a1,1,0,0,1-1,1H17a1,1,0,0,1-1-1ZM36,50H16V48H36Zm0-4H16V44H36Zm0-4H16V40H36Zm0-7H30V33h6Zm0-4H30V29h6Z"></path><rect x="14" y="18" width="24" height="4"></rect><rect x="18" y="30" width="8" height="4"></rect><polygon points="32.219 6 32.719 4 19.28 4 19.78 6 32.219 6"></polygon><path d="M11,60H41a1,1,0,0,0,1-1V5a1,1,0,0,0-1-1H34.78l-.621,2.485A2,2,0,0,1,32.219,8H19.781a2,2,0,0,1-1.94-1.515L17.22,4H11a1,1,0,0,0-1,1V59A1,1,0,0,0,11,60ZM31,12h2v2H31Zm-4,0h2v2H27Zm-4,0h2v2H23Zm-4,0h2v2H19Zm-7,6a2,2,0,0,1,2-2H38a2,2,0,0,1,2,2V54a2,2,0,0,1-2,2H14a2,2,0,0,1-2-2Z"></path><path d="M54,51H48v1a3,3,0,0,0,6,0Z"></path><rect x="48" y="48" width="6" height="1"></rect><polygon points="51 9.803 48.868 13 53.132 13 51 9.803"></polygon><polygon points="54 15 52 15 52 44 50 44 50 15 48 15 48 46 54 46 54 15"></polygon></g></svg>