<svg xmlns="http://www.w3.org/2000/svg" viewBox="0 0 64 64" x="0px" y="0px"><g data-name="Cloud Networking"><path d="M33,44h3.944a15.657,15.657,0,0,0-1.3-5.373A17.8,17.8,0,0,1,33,38.969Z"></path><path d="M33,51.034a18.033,18.033,0,0,1,2.649.34A15.673,15.673,0,0,0,36.944,46H33Z"></path><path d="M28.351,51.374A18.033,18.033,0,0,1,31,51.034V46H27.056A15.685,15.685,0,0,0,28.351,51.374Z"></path><path d="M33,36.967a16.113,16.113,0,0,0,1.708-.2A15.788,15.788,0,0,0,33,34.445Z"></path><path d="M33,55.555a15.645,15.645,0,0,0,1.708-2.322,16.378,16.378,0,0,0-1.708-.2Z"></path><path d="M34.659,56.685c.159-.036.318-.071.474-.113.13-.035.259-.071.388-.11.217-.067.432-.141.645-.22.115-.042.231-.082.345-.128.25-.1.5-.214.739-.332.043-.021.087-.039.13-.061.027-.013.055-.024.082-.038.25-.128.491-.27.731-.415.067-.041.136-.076.2-.118s.121-.084.183-.124q.264-.176.52-.365a16.039,16.039,0,0,0-2.383-.933A17.739,17.739,0,0,1,34.659,56.685Z"></path><path d="M37.623,38.1A17.653,17.653,0,0,1,38.972,44h4.976a12.031,12.031,0,0,0-3.26-7.25A17.926,17.926,0,0,1,37.623,38.1Z"></path><path d="M38.57,34.968c-.054-.036-.107-.075-.162-.11-.1-.064-.206-.119-.309-.18-.2-.12-.4-.241-.61-.348-.127-.066-.259-.121-.388-.182-.192-.09-.383-.182-.579-.261-.058-.024-.118-.044-.177-.067-.09-.035-.182-.066-.273-.1-.176-.064-.351-.127-.529-.182-.082-.025-.165-.048-.247-.071s-.188-.05-.281-.075c-.121-.031-.243-.06-.365-.088a17.7,17.7,0,0,1,2.066,2.968,16.087,16.087,0,0,0,2.383-.934l-.02-.014C38.911,35.2,38.743,35.082,38.57,34.968Z"></path><path d="M43.948,46H38.972a17.688,17.688,0,0,1-1.348,5.9,17.955,17.955,0,0,1,3.064,1.35A12.033,12.033,0,0,0,43.948,46Z"></path><path d="M20.052,44h4.976a17.688,17.688,0,0,1,1.348-5.9,17.955,17.955,0,0,1-3.064-1.35A12.033,12.033,0,0,0,20.052,44Z"></path><path d="M28.479,33.538c-.217.067-.432.141-.645.22-.115.042-.231.082-.345.128-.251.1-.5.215-.741.333-.036.017-.072.032-.107.05s-.069.031-.1.048c-.25.128-.491.27-.731.415-.067.041-.136.076-.2.118s-.121.084-.183.124q-.264.176-.52.365a16.039,16.039,0,0,0,2.383.933,17.739,17.739,0,0,1,2.057-2.957c-.159.036-.318.071-.474.113C28.737,33.463,28.608,33.5,28.479,33.538Z"></path><path d="M23.312,53.25A17.926,17.926,0,0,1,26.377,51.9,17.653,17.653,0,0,1,25.028,46H20.052A12.031,12.031,0,0,0,23.312,53.25Z"></path><path d="M60,32a12.005,12.005,0,0,1-9.06,11.63A18.742,18.742,0,0,0,48.72,36H50V34H46a1,1,0,0,0-1,1v4h2V37.01a16.9,16.9,0,0,1,1.97,6.95c-.32.03-.64.04-.97.04H45.95a14.077,14.077,0,0,0-4.4-9.23,13.446,13.446,0,0,0-2.08-1.61A13.88,13.88,0,0,0,32.05,31h-.1a11.674,11.674,0,0,0-1.32.07,13.855,13.855,0,0,0-8.18,3.7A14.077,14.077,0,0,0,18.05,44H15.03a16.969,16.969,0,0,1,2.83-8.44L16.2,34.44A18.811,18.811,0,0,0,13.03,44H13a9,9,0,0,1-2.6-17.62.987.987,0,0,0,.71-.82A11.007,11.007,0,0,1,22,16c.16,0,.31.01.46.02l.2.01a.974.974,0,0,0,.95-.53,13.985,13.985,0,0,1,26.15,3.98.994.994,0,0,0,.77.79A12.053,12.053,0,0,1,60,32Z"></path><path d="M31,36.967V34.445a15.645,15.645,0,0,0-1.708,2.322A16.378,16.378,0,0,0,31,36.967Z"></path><path d="M31,53.033a16.113,16.113,0,0,0-1.708.2A15.788,15.788,0,0,0,31,55.555Z"></path><path d="M24.924,54.677c.166.122.334.242.506.355.054.036.107.075.162.11.1.065.208.12.311.182.2.119.4.239.608.346.127.066.259.121.388.182.192.09.383.182.579.261.058.024.118.044.177.067.09.035.182.066.273.1.176.064.351.127.529.182.082.025.164.048.247.071s.188.05.283.075c.12.031.242.06.363.088a17.7,17.7,0,0,1-2.066-2.968,16.087,16.087,0,0,0-2.383.934Z"></path><path d="M31,38.969a17.8,17.8,0,0,1-2.649-.342A15.662,15.662,0,0,0,27.056,44H31Z"></path><path d="M51,45a18.953,18.953,0,0,1-3.2,10.56l-1.66-1.11A16.964,16.964,0,0,0,49,45c0-.35-.01-.69-.03-1.04a10.808,10.808,0,0,0,1.97-.33C50.98,44.08,51,44.54,51,45Z"></path><path d="M19,52v4a1,1,0,0,1-1,1H14V55h1.86A18.84,18.84,0,0,1,13,45c0-.33.01-.67.03-1h2c-.02.33-.03.66-.03,1a16.9,16.9,0,0,0,2,7.99V52Z"></path></g></svg>