<svg xmlns="http://www.w3.org/2000/svg" viewBox="0 0 64 64" x="0px" y="0px"><title>Cactus_30</title><g data-name="Cactus"><path d="M50,32H45V11a9,9,0,0,0-18,0v3.3a6.86,6.86,0,0,0-4-.006V11H21v1.586l-1.122-1.121-1.414,1.414L19.586,14H18v2h2.111A6.973,6.973,0,0,0,18,21V32H14a1,1,0,0,0-1,1v4a1,1,0,0,0,1,1h2V61a1,1,0,0,0,1,1H47a1,1,0,0,0,1-1V38h2a1,1,0,0,0,1-1V33A1,1,0,0,0,50,32ZM29,11a7,7,0,0,1,14,0V32H32V21a7.114,7.114,0,0,0-.059-.89c-.013-.1-.038-.2-.056-.3-.033-.191-.066-.382-.114-.568-.031-.117-.072-.23-.108-.345-.052-.162-.1-.325-.166-.483-.048-.121-.105-.238-.16-.356-.068-.145-.135-.289-.212-.429-.066-.119-.138-.234-.211-.349s-.164-.258-.254-.381-.17-.225-.259-.334-.192-.227-.294-.336-.2-.207-.3-.306-.223-.2-.339-.3-.218-.179-.333-.263c-.045-.033-.086-.073-.133-.105ZM20,21a5.006,5.006,0,0,1,5-5,4.841,4.841,0,0,1,2.5.677A5,5,0,0,1,30,21V32H20ZM46,60H18V38H46Zm3-24H15V34H49Z"></path><rect x="33" y="9" width="2" height="2"></rect><rect x="37" y="9" width="2" height="2"></rect><rect x="33" y="15" width="2" height="2"></rect><rect x="37" y="15" width="2" height="2"></rect><rect x="33" y="21" width="2" height="2"></rect><rect x="37" y="21" width="2" height="2"></rect><rect x="33" y="27" width="2" height="2"></rect><rect x="37" y="27" width="2" height="2"></rect><rect x="22" y="19" width="2" height="2"></rect><rect x="26" y="19" width="2" height="2"></rect><rect x="22" y="25" width="2" height="2"></rect><rect x="26" y="25" width="2" height="2"></rect><rect x="42" y="56" width="2" height="2"></rect><rect x="42" y="53" width="2" height="2"></rect><rect x="39" y="56" width="2" height="2"></rect></g></svg>