<svg xmlns="http://www.w3.org/2000/svg" viewBox="0 0 64 64" x="0px" y="0px"><g data-name="Server Analytics"><path d="M57,16H54V15a1,1,0,0,0-1-1H45.816A2.966,2.966,0,0,0,46,13a3,3,0,0,0-3-3,2.966,2.966,0,0,0-1,.184V8a1,1,0,0,0-1-1H38V4a2,2,0,0,0-2-2H8A2,2,0,0,0,6,4V7H3A1,1,0,0,0,2,8v8a1,1,0,0,0,1,1H6v2H3a1,1,0,0,0-1,1v8a1,1,0,0,0,1,1H6v3a2,2,0,0,0,2,2H24V57a5.006,5.006,0,0,0,5,5H57a5.006,5.006,0,0,0,5-5V21A5.006,5.006,0,0,0,57,16ZM32.184,22A3,3,0,0,0,35,24H51a3,3,0,0,0,2.816-2H55a1,1,0,0,1,1,1V55a1,1,0,0,1-1,1H31a1,1,0,0,1-1-1V23a1,1,0,0,1,1-1ZM52,21a1,1,0,0,1-1,1H35a1,1,0,0,1-1-1V16H52Zm-9-9a1,1,0,1,1-1,1A1,1,0,0,1,43,12ZM8,4H36v6H8ZM4,15V9H6v1a2,2,0,0,0,2,2H36a2,2,0,0,0,2-2V9h2v5H37.722A1.993,1.993,0,0,0,36,13H8a2,2,0,0,0-2,2ZM6,26v1H4V21H6a2,2,0,0,0,2,2H24v1H8A2,2,0,0,0,6,26Zm2,6V26H24v6ZM24,21H8V15H32v1H29A5.006,5.006,0,0,0,24,21ZM60,57a3,3,0,0,1-3,3H29a3,3,0,0,1-3-3V21a3,3,0,0,1,3-3h3v2H31a3,3,0,0,0-3,3V55a3,3,0,0,0,3,3H55a3,3,0,0,0,3-3V23a3,3,0,0,0-3-3H54V18h3a3,3,0,0,1,3,3Z"></path><path d="M35,38h2V36H36V32h5V30H35a1,1,0,0,0-1,1v6A1,1,0,0,0,35,38Z"></path><path d="M37.707,33.293l-1.414,1.414,2,2a1,1,0,0,0,1.414,0l4-4-1.414-1.414L39,34.586Z"></path><rect x="46" y="35" width="6" height="2"></rect><rect x="46" y="31" width="6" height="2"></rect><rect x="46" y="45" width="6" height="2"></rect><rect x="46" y="41" width="6" height="2"></rect><rect x="12" y="6" width="2" height="2"></rect><rect x="30" y="6" width="2" height="2"></rect><rect x="26" y="6" width="2" height="2"></rect><rect x="22" y="6" width="2" height="2"></rect><rect x="12" y="17" width="2" height="2"></rect><rect x="22" y="17" width="2" height="2"></rect><rect x="12" y="28" width="2" height="2"></rect><path d="M35,48h2V46H36V42h5V40H35a1,1,0,0,0-1,1v6A1,1,0,0,0,35,48Z"></path><path d="M39,44.586l-1.293-1.293-1.414,1.414,2,2a1,1,0,0,0,1.414,0l4-4-1.414-1.414Z"></path></g></svg>