<svg xmlns="http://www.w3.org/2000/svg" viewBox="0 0 64 64" x="0px" y="0px"><g data-name="Time Process"><path d="M36.974,55.358l1.669,1.669,2.151-1.435a1,1,0,0,1,1.07-.025,9.873,9.873,0,0,0,2.71,1.123,1,1,0,0,1,.738.774L45.819,60h2.362l.506-2.536a1,1,0,0,1,.739-.774,9.873,9.873,0,0,0,2.71-1.123,1,1,0,0,1,1.07.025l2.151,1.435,1.669-1.669-1.433-2.152a1,1,0,0,1-.026-1.07,9.9,9.9,0,0,0,1.122-2.71,1,1,0,0,1,.775-.738L60,48.18V45.82l-2.536-.508a1,1,0,0,1-.775-.738,9.9,9.9,0,0,0-1.122-2.71,1,1,0,0,1,.026-1.07l1.433-2.152-1.669-1.669-2.151,1.435a1,1,0,0,1-1.07.025,9.873,9.873,0,0,0-2.71-1.123,1,1,0,0,1-.739-.774L48.181,34H45.819l-.507,2.536a1,1,0,0,1-.738.774,9.873,9.873,0,0,0-2.71,1.123,1,1,0,0,1-1.07-.025l-2.151-1.435-1.669,1.669,1.433,2.152a1,1,0,0,1,.026,1.07,9.9,9.9,0,0,0-1.122,2.71,1,1,0,0,1-.775.738L34,45.82v2.36l2.536.508a1,1,0,0,1,.775.738,9.9,9.9,0,0,0,1.122,2.71,1,1,0,0,1-.026,1.07ZM38,47a9,9,0,1,1,9,9A9.01,9.01,0,0,1,38,47Z"></path><path d="M47,54a7,7,0,1,0-7-7A7.008,7.008,0,0,0,47,54Zm0-6a2.993,2.993,0,0,1-1-5.816V41h2v1.184A3,3,0,0,1,50,45H48a1,1,0,1,0-1,1,2.993,2.993,0,0,1,1,5.816V53H46V51.816A3,3,0,0,1,44,49h2a1,1,0,1,0,1-1Z"></path><path d="M34.854,54.931,36.4,52.608a12.073,12.073,0,0,1-.861-2.08L32.8,49.98A1,1,0,0,1,32,49V45a1,1,0,0,1,.8-.98l2.737-.548a12.073,12.073,0,0,1,.861-2.08l-1.548-2.323a1,1,0,0,1,.125-1.261l2.829-2.829a1,1,0,0,1,1.261-.125L41.393,36.4a11.879,11.879,0,0,1,2.079-.862L44.02,32.8A1,1,0,0,1,45,32h4a1,1,0,0,1,.98.8l.548,2.737a11.879,11.879,0,0,1,2.079.862l2.324-1.549a.994.994,0,0,1,.633-.162A26.061,26.061,0,1,0,34.693,55.563.994.994,0,0,1,34.854,54.931ZM33.536,30.707l-2.829,2.829a1,1,0,0,1-1.414,0L26.757,31H17V29h9.757L29,26.757V15h2V26.757l2.536,2.536A1,1,0,0,1,33.536,30.707ZM31,48v2H29V48ZM16.565,42.021l1.414,1.414-1.414,1.414-1.414-1.414ZM15.151,16.565l1.414-1.414,1.414,1.414-1.414,1.414ZM29,12V10h2v2Zm14.435,5.979-1.414-1.415,1.415-1.414,1.414,1.415ZM50,31H48V29h2ZM6,30a24,24,0,1,1,47.8,3.129l-1.983-.258A22.372,22.372,0,0,0,52,30,21.983,21.983,0,1,0,32.871,51.814l.258,1.984A24.345,24.345,0,0,1,30,54,24.028,24.028,0,0,1,6,30Zm6-1v2H10V29Z"></path><rect x="29" y="29" width="2" height="2" transform="translate(-12.426 30) rotate(-45)"></rect></g></svg>