<svg xmlns="http://www.w3.org/2000/svg" viewBox="0 0 64 64" x="0px" y="0px"><g><rect x="52" y="46" width="4.001" height="4"></rect><rect x="52" y="52" width="4.001" height="4"></rect><rect x="52" y="40" width="4" height="4"></rect><path d="M36.81,22.02c.06,0,.12-.02.19-.02h6.22a16.37,16.37,0,0,0-1.51-3.49,1,1,0,0,1,.1-1.13l3.64-4.45L41.07,8.55l-4.45,3.64a1,1,0,0,1-1.13.1A16.492,16.492,0,0,0,31.4,10.6a1,1,0,0,1-.73-.87L30.09,4H23.91l-.58,5.73a1,1,0,0,1-.73.87,16.492,16.492,0,0,0-4.09,1.69.981.981,0,0,1-1.13-.1L12.93,8.55,8.55,12.93l3.64,4.45a1,1,0,0,1,.1,1.13A16.492,16.492,0,0,0,10.6,22.6a1,1,0,0,1-.87.73L4,23.91v6.18l5.73.58a1,1,0,0,1,.87.73,16.492,16.492,0,0,0,1.69,4.09,1,1,0,0,1-.1,1.13L8.55,41.07l4.38,4.38,4.45-3.64a1,1,0,0,1,1.13-.1A16.492,16.492,0,0,0,22.6,43.4a1,1,0,0,1,.73.87L23.91,50h6.18l.58-5.73a1,1,0,0,1,.73-.87,17.075,17.075,0,0,0,2.6-.94V35.47a10.991,10.991,0,1,1,2.81-13.45Zm2.918-9.162,1.414,1.414L38.313,17.1,36.9,15.687ZM12,28H8V26h4ZM26,42h2v4H26Zm-8.9-3.687-2.829,2.829-1.414-1.414L15.687,36.9ZM15.687,17.1l-2.829-2.829,1.414-1.414L17.1,15.687ZM28,12H26V8h2Z"></path><path d="M56,28H40v6H56ZM45,32H43V30h2Zm4,0H47V30h2Zm4,0H51V30h2Z"></path><path d="M37,60H59a1,1,0,0,0,1-1V25a1,1,0,0,0-1-1H37a1,1,0,0,0-1,1V59A1,1,0,0,0,37,60Zm1-32a2,2,0,0,1,2-2H56a2,2,0,0,1,2,2v6a2,2,0,0,1-2,2H40a2,2,0,0,1-2-2Zm0,12a2,2,0,0,1,2-2H56a2,2,0,0,1,2,2V56a2,2,0,0,1-2,2H40a2,2,0,0,1-2-2Z"></path><path d="M18,27a8.985,8.985,0,0,0,16,5.63V25a2.988,2.988,0,0,1,.94-2.17A8.978,8.978,0,0,0,18,27Z"></path><rect x="46" y="40" width="4" height="4"></rect><rect x="40" y="46" width="4" height="4"></rect><rect x="46" y="46" width="4" height="4"></rect><rect x="40" y="52" width="4" height="4"></rect><rect x="46" y="52" width="4" height="4"></rect><rect x="40" y="40" width="4" height="4"></rect></g></svg>