<svg xmlns="http://www.w3.org/2000/svg" viewBox="0 0 64 64" x="0px" y="0px"><g data-name="Emergency Call"><path d="M31,32v4h2V32a1,1,0,0,1,1-1h4V29H34a1,1,0,0,1-1-1V24H31v4a1,1,0,0,1-1,1H26v2h4A1,1,0,0,1,31,32Z"></path><path d="M18,60H46a1,1,0,0,0,1-1V52H21V50H47V5a1,1,0,0,0-1-1H18a1,1,0,0,0-1,1v5H43v2H17V59A1,1,0,0,0,18,60Zm13-5h2v2H31ZM24,8H22V6h2Zm6,0H28V6h2ZM25,27h4V23a1,1,0,0,1,1-1h4a1,1,0,0,1,1,1v4h4a1,1,0,0,1,1,1v4a1,1,0,0,1-1,1H35v4a1,1,0,0,1-1,1H30a1,1,0,0,1-1-1V33H25a1,1,0,0,1-1-1V28A1,1,0,0,1,25,27ZM19,15a1,1,0,0,1,1-1h4v2H21v3H19Z"></path></g></svg>