<svg xmlns="http://www.w3.org/2000/svg" viewBox="0 0 64 64" x="0px" y="0px"><g><polygon points="48.868 16 53.131 16 51 12.803 48.868 16"></polygon><polygon points="45.219 26.875 52.826 18 47.754 18 45.219 26.875"></polygon><path d="M36,34.98C33.18,36.84,27.53,38,21,38c-5.97,0-11.98-1.04-15-3.03V40c0,1.63,5.84,4,15,4s15-2.37,15-4ZM10,40H8V38h2Zm4,1H12V39h2Zm4,1H16V40h2Z"></path><path d="M43,4A15,15,0,1,0,58,19,15.018,15.018,0,0,0,43,4Zm.759,27.651a1,1,0,0,1-1.518,0l-12-14a1,1,0,0,1-.073-1.206l4-6A1,1,0,0,1,35,10H51a1,1,0,0,1,.832.445l4,6a1,1,0,0,1-.073,1.206Z"></path><polygon points="40.326 18 43 27.36 45.674 18 40.326 18"></polygon><path d="M26.49,23a17.329,17.329,0,0,1-.43-2.72A48.713,48.713,0,0,0,21,20c-9.16,0-15,2.37-15,4s5.84,4,15,4a44.819,44.819,0,0,0,7.26-.57A16.6,16.6,0,0,1,27,24.69V25H15V23Z"></path><polygon points="41.132 12 36.868 12 39 15.197 41.132 12"></polygon><polygon points="33.174 18 40.781 26.875 38.246 18 33.174 18"></polygon><polygon points="49.132 12 44.868 12 47 15.197 49.132 12"></polygon><polygon points="35 12.803 32.869 16 37.132 16 35 12.803"></polygon><polygon points="45.132 16 43 12.803 40.868 16 45.132 16"></polygon><path d="M29.47,29.25A46.581,46.581,0,0,1,21,30c-5.97,0-11.98-1.04-15-3.03V32c0,1.63,5.84,4,15,4,6.14,0,10.97-1.1,13.37-2.38A17.088,17.088,0,0,1,29.47,29.25ZM10,32H8V30h2Zm4,1H12V31h2Zm4,1H16V32h2Z"></path><path d="M6,42.97V48c0,1.63,5.84,4,15,4s15-2.37,15-4V42.97C32.98,44.96,26.97,46,21,46S9.02,44.96,6,42.97ZM10,48H8V46h2Zm4,1H12V47h2Zm4,1H16V48h2Z"></path><path d="M21,60c9.16,0,15-2.37,15-4V50.97C32.98,52.96,26.97,54,21,54S9.02,52.96,6,50.97V56C6,57.63,11.84,60,21,60Zm-5-4h2v2H16Zm-4-1h2v2H12ZM8,54h2v2H8Z"></path></g></svg>