<svg xmlns="http://www.w3.org/2000/svg" viewBox="0 0 64 64" x="0px" y="0px"><g><path d="M61,14H59V12a1,1,0,0,0-1-1H34a1,1,0,0,0-1,1v1H31V12a1,1,0,0,0-1-1H6a1,1,0,0,0-1,1v2H3a1,1,0,0,0-1,1V52a1,1,0,0,0,1,1H61a1,1,0,0,0,1-1V15A1,1,0,0,0,61,14Zm-8-1v2.586l-.293-.293a1,1,0,0,0-1.414,0L51,15.586V13ZM35,13H49v5a1,1,0,0,0,1.707.707L52,17.414l1.293,1.293A1,1,0,0,0,55,18V13h2V47H35ZM7,13H29V47H7ZM4,16H5V48a1,1,0,0,0,1,1H29v1a2.966,2.966,0,0,0,.184,1H4ZM31,50V15h2V50a1,1,0,0,1-2,0Zm29,1H34.816A2.966,2.966,0,0,0,35,50V49H58a1,1,0,0,0,1-1V16h1Z"></path><path d="M19,26H17a1,1,0,0,1-1-1H14a3,3,0,0,0,3,3v1h2V28a3,3,0,0,0,0-6H17a1,1,0,0,1,0-2h2a1,1,0,0,1,1,1h2a3,3,0,0,0-3-3V17H17v1a3,3,0,0,0,0,6h2a1,1,0,0,1,0,2Z"></path><path d="M44.127,31.287l2.318,1.545a1,1,0,0,0,1.262-.125L52,28.414V30h2V26a1,1,0,0,0-1-1H49v2h1.586l-3.713,3.713-2.318-1.545a1,1,0,0,0-1.262.125l-3,3,1.414,1.414Z"></path><path d="M38,38H55V36H39V23H37V37A1,1,0,0,0,38,38Z"></path><rect x="11" y="32" width="4" height="2"></rect><rect x="17" y="32" width="8" height="2"></rect><rect x="11" y="36" width="14" height="2"></rect><rect x="11" y="40" width="14" height="2"></rect></g></svg>