<svg xmlns="http://www.w3.org/2000/svg" viewBox="0 0 64 64" x="0px" y="0px"><g data-name="Phone-Call Center"><path d="M34.722,24.93c-.021.072-.039.145-.062.216.039-.05.078-.1.12-.146C34.76,24.977,34.742,24.953,34.722,24.93Z"></path><rect x="47" y="4" width="1" height="12"></rect><path d="M32,28.736V49a3,3,0,0,0,3,3h7a1,1,0,0,1,1,1,1,1,0,0,0,1,1h1V42H44a1,1,0,0,0-1,1,1,1,0,0,1-1,1H39a1,1,0,0,1-1-1V38H37a2.987,2.987,0,0,1-2.22-5,2.954,2.954,0,0,1,0-4,2.849,2.849,0,0,1-.73-2.492A7.048,7.048,0,0,1,32,28.736Z"></path><path d="M32,18h6V15a1,1,0,0,1,1-1h3a1,1,0,0,1,1,1,1,1,0,0,0,1,1h1V4H44a1,1,0,0,0-1,1,1,1,0,0,1-1,1H35a3,3,0,0,0-3,3Z"></path><rect x="4" y="23" width="12" height="12"></rect><path d="M26,21.618V36h4v-6.3a6.956,6.956,0,0,1-2,.3V28a5.006,5.006,0,0,0,5-5,1,1,0,0,1,1-1h4a1,1,0,0,0,0-2H29.236Z"></path><rect x="18" y="20" width="6" height="17"></rect><path d="M37,32h6V30H37a1,1,0,0,0,0,2Z"></path><path d="M37,36h5a1,1,0,0,0,1-1V34H37a1,1,0,0,0,0,2Z"></path><path d="M36,27a1,1,0,0,0,1,1h6V26H37A1,1,0,0,0,36,27Z"></path><path d="M43,24V23a1,1,0,0,0-1-1H40.816A3,3,0,0,1,38,24Z"></path><rect x="47" y="42" width="1" height="12"></rect><path d="M50,62H14a3,3,0,0,1,0-6H36a1,1,0,0,0,1-1V54h2v1a3,3,0,0,1-3,3H14a1,1,0,0,0,0,2H50Z"></path><rect x="52" y="47" width="2" height="2"></rect><rect x="52" y="43" width="2" height="2"></rect><rect x="52" y="51" width="2" height="2"></rect><rect x="52" y="9" width="2" height="2"></rect><rect x="52" y="5" width="2" height="2"></rect><rect x="52" y="13" width="2" height="2"></rect><rect x="52" y="60" width="2" height="2"></rect><rect x="56" y="60" width="2" height="2"></rect><rect x="60" y="60" width="2" height="2"></rect><rect x="15" y="6" width="12" height="2"></rect><rect x="11" y="6" width="2" height="2"></rect><rect x="19" y="12" width="8" height="2"></rect><rect x="15" y="12" width="2" height="2"></rect><rect x="15" y="43" width="12" height="2"></rect><rect x="11" y="43" width="2" height="2"></rect><rect x="19" y="49" width="8" height="2"></rect><rect x="15" y="49" width="2" height="2"></rect></g></svg>