<svg xmlns="http://www.w3.org/2000/svg" viewBox="0 0 64 64" x="0px" y="0px"><g data-name="Mobile Shopping"><path d="M24.18,28l1.67,10h14.3l1.67-10ZM30,33H28V31h2Zm4,0H32V31h2Zm4,0H36V31h2Z"></path><path d="M47,50V7a3.009,3.009,0,0,0-3-3H20a3.009,3.009,0,0,0-3,3v3H43v2H17v8h3a1,1,0,0,1,1,.91L21.48,26H45v2H43.85L41.99,39.16A1,1,0,0,1,41,40H25a1,1,0,0,1-.99-.84L22.15,28h-.48l1.24,13H46v2H41a3,3,0,1,1-3,3,3.009,3.009,0,0,1,3-3H26a3,3,0,1,1-3,3,3.009,3.009,0,0,1,3-3H22a1,1,0,0,1-1-.91L19.09,22H17v2h2V42H17V57a3.009,3.009,0,0,0,3,3H44a3.009,3.009,0,0,0,3-3V52H21V50ZM26,8H24V6h2Zm4,0H28V6h2ZM45,19H43V16H40V14h4a1,1,0,0,1,1,1ZM31,55h2v2H31Z"></path><circle cx="41" cy="46" r="1"></circle><circle cx="26" cy="46" r="1"></circle><rect x="11" y="26" width="6" height="2"></rect><rect x="7" y="26" width="2" height="2"></rect><rect x="5" y="30" width="12" height="2"></rect><rect x="13" y="34" width="4" height="2"></rect><rect x="9" y="34" width="2" height="2"></rect><rect x="5" y="34" width="2" height="2"></rect><rect x="3" y="38" width="14" height="2"></rect></g></svg>