<svg xmlns="http://www.w3.org/2000/svg" viewBox="0 0 64 64" x="0px" y="0px"><g data-name="Valve-Water-Pipes-Industry-Gas Pipe"><path d="M61,37H51V35a1,1,0,0,0-1-1H44a1,1,0,0,0-1,1v2H41V33.86A3.993,3.993,0,0,0,40,26H38V21a1,1,0,0,0-1-1H36V18h5a.977.977,0,0,0,.89-.55L43.62,14H55a1,1,0,0,0,1-1V9a1,1,0,0,0-1-1H41a.977.977,0,0,0-.89.55L38.38,12H36V9a1,1,0,0,0-1-1H29a1,1,0,0,0-1,1v3H25a1,1,0,0,0-1,1v4a1,1,0,0,0,1,1h3v2H27a1,1,0,0,0-1,1v5H24a3.993,3.993,0,0,0-1,7.86V37H21V35a1,1,0,0,0-1-1H14a1,1,0,0,0-1,1v2H3a1,1,0,0,0-1,1V52a1,1,0,0,0,1,1H13v2a1,1,0,0,0,1,1h6a1,1,0,0,0,1-1V53H43v2a1,1,0,0,0,1,1h6a1,1,0,0,0,1-1V53H61a1,1,0,0,0,1-1V38A1,1,0,0,0,61,37ZM13,51H4V39h9Zm6,3H15V36h4Zm4-3H21V39h2Zm7-41h4v2H30Zm-4,6V14H39a.977.977,0,0,0,.89-.55L41.62,10H54v2H43a.977.977,0,0,0-.89.55L40.38,16Zm8,2v2H30V18Zm-6,4h8v4H28ZM39,51H25V34H39ZM24,32a2,2,0,0,1,0-4H40a2,2,0,0,1,0,4ZM43,51H41V39h2Zm6,3H45V36h4Zm11-3H51V39h9Z"></path><rect x="6" y="41" width="2" height="2"></rect><rect x="53" y="41" width="5" height="2"></rect><rect x="27" y="47" width="2" height="2"></rect><rect x="31" y="47" width="4" height="2"></rect></g></svg>