<svg xmlns="http://www.w3.org/2000/svg" viewBox="0 0 64 64" x="0px" y="0px"><g data-name="Mobile App-Browser-Smartphone-Taxi-Technology"><path d="M57.66,56.25l-9-8A.985.985,0,0,0,48,48H16a.985.985,0,0,0-.66.25l-9,8A.981.981,0,0,0,6,57v3a2.006,2.006,0,0,0,2,2H56a2.006,2.006,0,0,0,2-2V57A.981.981,0,0,0,57.66,56.25ZM47.62,50l6.75,6H16.41l6-6ZM16.38,50h3.21l-6,6H9.63ZM56,60H8V58H56Z"></path><rect x="15" y="6" width="2" height="2"></rect><rect x="19" y="6" width="2" height="2"></rect><rect x="23" y="6" width="2" height="2"></rect><path d="M50,2H14a3.009,3.009,0,0,0-3,3V37a3.009,3.009,0,0,0,3,3H27.46l3.71,5.55a.99.99,0,0,0,1.66,0L36.54,40H50a3.009,3.009,0,0,0,3-3V5A3.009,3.009,0,0,0,50,2Zm1,35a1,1,0,0,1-1,1H36a1,1,0,0,0-.83.45L32,43.2l-3.17-4.75A1,1,0,0,0,28,38H14a1,1,0,0,1-1-1V12H51Zm0-27H13V5a1,1,0,0,1,1-1H50a1,1,0,0,1,1,1Z"></path><rect x="26" y="27" width="2" height="2"></rect><rect x="36" y="27" width="2" height="2"></rect><path d="M39.1,22.553l-.1.211-2.1-4.211A1,1,0,0,0,36,18V15a1,1,0,0,0-1-1H29a1,1,0,0,0-1,1v3a1,1,0,0,0-.895.553L25,22.764l-.105-.211A1,1,0,0,0,24,22H22v2h1.382l.189.379A2.989,2.989,0,0,0,22,27v2a3,3,0,0,0,2,2.816V34a2,2,0,0,0,2,2h2a2,2,0,0,0,2-2V32h4v2a2,2,0,0,0,2,2h2a2,2,0,0,0,2-2V31.816A3,3,0,0,0,42,29V27a2.989,2.989,0,0,0-1.571-2.621L40.618,24H42V22H40A1,1,0,0,0,39.1,22.553ZM30,16h4v2H30Zm-1.382,4h6.764l2,4H26.618ZM28,34H26V32h2Zm8,0V32h2v2Zm4-5a1,1,0,0,1-1,1H25a1,1,0,0,1-1-1V27a1,1,0,0,1,1-1H39a1,1,0,0,1,1,1Z"></path></g></svg>