<svg xmlns="http://www.w3.org/2000/svg" viewBox="0 0 64 64" x="0px" y="0px"><g><path d="M59,8H57.251l.476-2.689A3.047,3.047,0,0,0,57.77,4.8a2.99,2.99,0,0,0-2.478-2.944,2.988,2.988,0,0,0-3.477,2.431L51.159,8H42.841l-.656-3.712A2.981,2.981,0,0,0,40.942,2.34a2.93,2.93,0,0,0-2.224-.485A2.991,2.991,0,0,0,36.23,4.8a3.109,3.109,0,0,0,.045.524L36.749,8H35a3.015,3.015,0,0,0-3,3,3,3,0,0,0,3,3h.074l.718,9.277a4.989,4.989,0,0,0,4.5,4.676l-2.93,2.93a1,1,0,0,0,0,1.414l.706.706-1.907,1.906-1.533.306-2.922-2.922A1,1,0,0,0,31,32H27.171l-1.828-1.828h0a1,1,0,0,0,0-1.414L19.686,23.1a1,1,0,0,0-1.414,0L6.958,34.414a1,1,0,0,0,0,1.414l5.657,5.657a1,1,0,0,0,1.414,0h0l2.122,2.121,4.373,4.373a2.972,2.972,0,0,0,2.541,4.268,2.959,2.959,0,0,0,2.83,2.83A2.952,2.952,0,0,0,28.724,57.9a2.994,2.994,0,0,0,5.1,1.964l1.063,1.063a2.987,2.987,0,0,0,5.1-1.965,2.957,2.957,0,0,0,2.83-2.83,2.952,2.952,0,0,0,2.827-2.827A2.991,2.991,0,0,0,47.617,48.2l-1.058-1.058.708-.708s.007-.012.012-.017l2.107-2.108.707.706a1,1,0,0,0,1.413,0l5.661-5.65a1,1,0,0,0,0-1.415L47.214,28H53.22a5,5,0,0,0,4.987-4.7l.719-9.3H59a3.015,3.015,0,0,0,3-3A3,3,0,0,0,59,8ZM53.785,4.632a1,1,0,0,1,.414-.65.971.971,0,0,1,.739-.157.994.994,0,0,1,.832.975,1.032,1.032,0,0,1-.015.176L54.512,12h-2.03ZM50.805,10l-.353,2h-6.9L43.2,10ZM39.072,3.823a.971.971,0,0,1,.729.159,1,1,0,0,1,.414.651L41.518,12h-2.03L38.247,4.989A1.1,1.1,0,0,1,38.23,4.8,1,1,0,0,1,39.072,3.823ZM34,11a.974.974,0,0,1,.306-.712A.957.957,0,0,1,35,10h2.1l.354,2H35A1,1,0,0,1,34,11ZM9.08,35.121l9.9-9.9,4.243,4.242-9.9,9.9Zm14.849-3.535L25.343,33l-8.485,8.485-1.415-1.414ZM27.171,34h3.415l7.839,7.839a1,1,0,1,1-1.415,1.414L32.768,39.01a1.029,1.029,0,0,0-1.414,0,3.07,3.07,0,0,1-4.243,0L25.7,40.424a4.948,4.948,0,0,0,1.236.881l-5.125,5.13L18.272,42.9ZM31.7,58.74a.993.993,0,0,1-.713-1.688l.013-.01,2.826-2.824h0l0,0L32.414,52.8l-2.835,2.828-.009.011a1,1,0,0,1-1.4-1.425L31,51.385l-1.414-1.414L26.757,52.8a1.022,1.022,0,0,1-1.414,0,1,1,0,0,1,0-1.413l2.828-2.829-1.414-1.414L23.929,49.97a1,1,0,1,1-1.414-1.414l2.121-2.121,0,0,4.543-4.553c.017,0,.034.005.051.005a4.968,4.968,0,0,0,2.758-.827L35.6,44.667a3,3,0,0,0,4.243-4.242l5.307,5.305-.294.294a2.966,2.966,0,0,0-3.754,2.73,2.957,2.957,0,0,0-2.83,2.829,2.955,2.955,0,0,0-2.83,2.855,2.926,2.926,0,0,0-2.73,3.72l-.294.3A1,1,0,0,1,31.7,58.74Zm6.018.777a1,1,0,0,1-1.415,0L34.889,58.1a1,1,0,0,1,0-1.415,1,1,0,0,1,1.412,0h0L37.717,58.1A1,1,0,0,1,37.718,59.517Zm2.827-2.829a1.022,1.022,0,0,1-1.413,0l-1.414-1.414a1,1,0,1,1,1.414-1.415l1.414,1.415a1,1,0,0,1,0,1.414Zm2.83-2.829a1,1,0,0,1-1.415,0l-1.414-1.415a1,1,0,0,1,1.414-1.414l1.414,1.414A1,1,0,0,1,43.375,53.859ZM46.2,51.031a1.022,1.022,0,0,1-1.413,0l-1.414-1.414a1,1,0,0,1,0-1.414,1,1,0,0,1,1.414,0L46.2,49.617a1,1,0,0,1,0,1.414Zm.355-6.718-8.485-8.485,1.411-1.412L47.972,42.9Zm8.488-5.653L50.8,42.9,39.484,31.59,43.074,28h1.312Zm1.166-15.5A3,3,0,0,1,53.22,26H40.78a3.007,3.007,0,0,1-2.993-2.857L37.08,14H56.92Zm3.483-11.452A.957.957,0,0,1,59,12H56.542l.355-2H59a1,1,0,0,1,1,1A.974.974,0,0,1,59.694,11.712Z"></path><rect x="46" y="16" width="2" height="8"></rect><rect x="51" y="16" width="2" height="8"></rect><rect x="41" y="16" width="2" height="8"></rect><path d="M21.293,11.293l1.414,1.414,4-4a1,1,0,0,0,0-1.414l-4-4L21.293,4.707,23.586,7H8V9H23.586Z"></path><path d="M10.707,21.293,8.414,19H24V17H8.414l2.293-2.293L9.293,13.293l-4,4a1,1,0,0,0,0,1.414l4,4Z"></path></g></svg>