<svg xmlns="http://www.w3.org/2000/svg" viewBox="0 0 64 64" x="0px" y="0px"><g data-name="Cloud-Cloud Computing-Private-Personal-Data"><path d="M50,38.05V35a1,1,0,0,0-1-1H33V31H45a9,9,0,0,0,2-17.77V13a7.008,7.008,0,0,0-7-7,6.775,6.775,0,0,0-2.23.37A11,11,0,0,0,18,13v.06A9,9,0,0,0,19,31H31v3H15a1,1,0,0,0-1,1v3.05a12,12,0,1,0,2,0V36H48v2.05a12,12,0,1,0,2,0ZM25,50A10,10,0,1,1,15,40,10.016,10.016,0,0,1,25,50Zm6-21H19a7,7,0,1,1,.05-14,1,1,0,0,0,.74-.33,1.036,1.036,0,0,0,.26-.77c-.03-.3-.05-.6-.05-.9A8.99,8.99,0,0,1,36.56,8.14a1.011,1.011,0,0,0,1.28.36A4.984,4.984,0,0,1,45,13a5.532,5.532,0,0,1-.08.88,1.006,1.006,0,0,0,.18.77,1.029,1.029,0,0,0,.69.4A7,7,0,0,1,45,29H33V26.82a3,3,0,1,0-2,0Zm1-4a1,1,0,1,1,1-1A1,1,0,0,1,32,25ZM49,60A10,10,0,1,1,59,50,10.016,10.016,0,0,1,49,60Z"></path><path d="M18.4,50.07A3.945,3.945,0,0,0,19,48V46a4,4,0,0,0-8,0v2a3.945,3.945,0,0,0,.6,2.07A5.961,5.961,0,0,0,9,55v2a1,1,0,0,0,1,1H20a1,1,0,0,0,1-1V55A5.961,5.961,0,0,0,18.4,50.07ZM13,46a2,2,0,0,1,4,0v2a2,2,0,0,1-4,0Zm6,10H11V55a3.992,3.992,0,0,1,2.09-3.51,3.832,3.832,0,0,0,3.82,0A3.992,3.992,0,0,1,19,55Z"></path><path d="M52.4,50.07A3.945,3.945,0,0,0,53,48V46a4,4,0,0,0-8,0v2a3.945,3.945,0,0,0,.6,2.07A5.961,5.961,0,0,0,43,55v2a1,1,0,0,0,1,1H54a1,1,0,0,0,1-1V55A5.961,5.961,0,0,0,52.4,50.07ZM47,46a2,2,0,0,1,4,0v2a2,2,0,0,1-4,0Zm6,10H45V55a3.992,3.992,0,0,1,2.09-3.51,3.832,3.832,0,0,0,3.82,0A3.992,3.992,0,0,1,53,55Z"></path><path d="M50,22H48a3,3,0,0,1-3,3v2A5.006,5.006,0,0,0,50,22Z"></path><rect x="41" y="25" width="2" height="2"></rect><path d="M29,6a7.008,7.008,0,0,0-7,7h2a5.006,5.006,0,0,1,5-5Z"></path></g></svg>