<svg xmlns="http://www.w3.org/2000/svg" viewBox="0 0 64 64" x="0px" y="0px"><g><path d="M31,21a1,1,0,0,0-1-1v2A1,1,0,0,0,31,21Z"></path><path d="M28,16a1,1,0,0,0,0,2Z"></path><path d="M22.11,42.08l1.1,2.76A10.907,10.907,0,0,1,24,48.93v1.3a11.014,11.014,0,0,1-.86,4.25l.06-.08a1.041,1.041,0,0,1,1.6,0L27,57.33l2.2-2.93a1.041,1.041,0,0,1,1.6,0L33,57.33l2.2-2.93a1.041,1.041,0,0,1,1.6,0L39,57.33l2.2-2.93a1.041,1.041,0,0,1,1.6,0L45,57.33l2.2-2.93a1.041,1.041,0,0,1,1.6,0L51,57.33l2.2-2.93a1.041,1.041,0,0,1,1.6,0L56,56V6L54.8,7.6a1.041,1.041,0,0,1-1.6,0L51,4.67,48.8,7.6a1.041,1.041,0,0,1-1.6,0L45,4.67,42.8,7.6a1.041,1.041,0,0,1-1.6,0L39,4.67,36.8,7.6a1.041,1.041,0,0,1-1.6,0L33,4.67,30.8,7.6a1.041,1.041,0,0,1-1.6,0L27,4.67,24.8,7.6a1.041,1.041,0,0,1-1.6,0L21,4.67,18.8,7.6a1.041,1.041,0,0,1-1.6,0L16,6V36.65l2.43-4.21a4.005,4.005,0,0,1,6.94,4ZM46,46H25V44H46Zm0-8H27V36H46Zm0-4H27V32H46Zm6,12H48V44h4Zm0-4H48V40h4Zm0-4H48V36h4Zm0-4H48V32h4Zm0-4H48V28h4ZM42,18H52v2H42Zm-6,0h4v2H36Zm0,4H52v2H36ZM25,17a3,3,0,0,1,3-3V12h2v2a3,3,0,0,1,3,3H31a1,1,0,0,0-1-1v2a3,3,0,0,1,0,6v2H28V24a3,3,0,0,1-3-3h2a1,1,0,0,0,1,1V20A3,3,0,0,1,25,17Zm0,13V28H46v2ZM46,40v2H25V40Z"></path><path d="M19.13,57.5l.11-.19,1.47-2.44A8.919,8.919,0,0,0,22,50.23v-1.3a8.793,8.793,0,0,0-.65-3.34l-1.28-3.22a1.021,1.021,0,0,1,.06-.87l3.5-6.06a1.949,1.949,0,0,0,.27-1,1.97,1.97,0,0,0-1-1.73,2.016,2.016,0,0,0-1.52-.21,1.968,1.968,0,0,0-1.21.94l-5,8.66-1.74-1,.57-.98V27.15l-4.5,7.8a14.908,14.908,0,0,0-1.93,9.16L8.99,56.89a.81.81,0,0,1-.01.31L8.02,62H19V58A1.063,1.063,0,0,1,19.13,57.5Z"></path></g></svg>