<svg xmlns="http://www.w3.org/2000/svg" viewBox="0 0 64 64" x="0px" y="0px"><g><path d="M57,2H7A5.006,5.006,0,0,0,2,7V29a5.006,5.006,0,0,0,5,5H17V59a3,3,0,0,0,3,3H44a3,3,0,0,0,3-3V34H57a5.006,5.006,0,0,0,5-5V7A5.006,5.006,0,0,0,57,2Zm3,27a3,3,0,0,1-3,3H46a1,1,0,0,0-1,1V59a1,1,0,0,1-1,1H20a1,1,0,0,1-1-1V33a1,1,0,0,0-1-1H7a3,3,0,0,1-3-3V7A3,3,0,0,1,7,4H57a3,3,0,0,1,3,3Z"></path><path d="M12,6a6,6,0,1,0,6,6A6.006,6.006,0,0,0,12,6Zm0,10a4,4,0,1,1,4-4A4,4,0,0,1,12,16Z"></path><path d="M52,6a6,6,0,1,0,6,6A6.006,6.006,0,0,0,52,6Zm0,10a4,4,0,1,1,4-4A4,4,0,0,1,52,16Z"></path><path d="M23.293,23.707A1,1,0,0,0,24,24h1v4h2V24h1a1,1,0,0,0,.707-.293l1-1A1,1,0,0,0,30,22V20a1,1,0,0,0-.293-.707l-1-1A1,1,0,0,0,28,18H27V8H25V18H24a1,1,0,0,0-.707.293l-1,1A1,1,0,0,0,22,20v2a1,1,0,0,0,.293.707ZM24,20.414,24.414,20h3.172l.414.414v1.172L27.586,22H24.414L24,21.586Z"></path><path d="M35.293,18.707A1,1,0,0,0,36,19h1v9h2V19h1a1,1,0,0,0,.707-.293l1-1A1,1,0,0,0,42,17V15a1,1,0,0,0-.293-.707l-1-1A1,1,0,0,0,40,13H39V8H37v5H36a1,1,0,0,0-.707.293l-1,1A1,1,0,0,0,34,15v2a1,1,0,0,0,.293.707ZM36,15.414,36.414,15h3.172l.414.414v1.172L39.586,17H36.414L36,16.586Z"></path><path d="M41.707,37.293A1,1,0,0,0,41,37H39V33H37v4H35a1,1,0,0,0-.707.293l-1,1A1,1,0,0,0,33,39v2a1,1,0,0,0,.293.707l1,1A1,1,0,0,0,35,43h2v7.184a3,3,0,1,0,2,0V43h2a1,1,0,0,0,.707-.293l1-1A1,1,0,0,0,43,41V39a1,1,0,0,0-.293-.707ZM38,54a1,1,0,1,1,1-1A1,1,0,0,1,38,54Zm3-13.414L40.586,41H35.414L35,40.586V39.414L35.414,39h5.172l.414.414Z"></path><path d="M29.707,41.293A1,1,0,0,0,29,41H27V33H25v8H23a1,1,0,0,0-.707.293l-1,1A1,1,0,0,0,21,43v2a1,1,0,0,0,.293.707l1,1A1,1,0,0,0,23,47h2v3.184a3,3,0,1,0,2,0V47h2a1,1,0,0,0,.707-.293l1-1A1,1,0,0,0,31,45V43a1,1,0,0,0-.293-.707ZM26,54a1,1,0,1,1,1-1A1,1,0,0,1,26,54Zm3-9.414L28.586,45H23.414L23,44.586V43.414L23.414,43h5.172l.414.414Z"></path><rect x="6" y="28" width="2" height="2"></rect><rect x="56" y="28" width="2" height="2"></rect><path d="M52,9a3,3,0,1,0,3,3A3,3,0,0,0,52,9Zm0,4a1,1,0,1,1,1-1A1,1,0,0,1,52,13Z"></path><path d="M12,9a3,3,0,1,0,3,3A3,3,0,0,0,12,9Zm0,4a1,1,0,1,1,1-1A1,1,0,0,1,12,13Z"></path></g></svg>