<svg xmlns="http://www.w3.org/2000/svg" viewBox="0 0 64 64" x="0px" y="0px"><g><path d="M58.707,10.293l-8-8A1,1,0,0,0,50,2H18a5.006,5.006,0,0,0-5,5V19h2V7a3,3,0,0,1,3-3H49V9a3,3,0,0,0,3,3h5V57a3,3,0,0,1-3,3H18a3,3,0,0,1-3-3V45H13V57a5.006,5.006,0,0,0,5,5H54a5.006,5.006,0,0,0,5-5V11A1,1,0,0,0,58.707,10.293ZM51,9V5.414L55.586,10H52A1,1,0,0,1,51,9Z"></path><rect x="19" y="8" width="2" height="2"></rect><rect x="23" y="8" width="6" height="2"></rect><rect x="19" y="12" width="10" height="2"></rect><path d="M35,43a3,3,0,0,0-6,0,2.972,2.972,0,0,0,.224,1.126l-4.783,4.259A2.961,2.961,0,0,0,23,48a3,3,0,1,0,3,3,2.972,2.972,0,0,0-.224-1.126l4.783-4.259a2.925,2.925,0,0,0,3.433-.389l6.056,3.3A2.925,2.925,0,0,0,40,49a3,3,0,0,0,6,0,2.969,2.969,0,0,0-.694-1.9L48.4,41.939A2.964,2.964,0,0,0,49,42a3,3,0,1,0-3-3,2.969,2.969,0,0,0,.694,1.9L43.6,46.061a2.957,2.957,0,0,0-2.592.713l-6.056-3.3A2.925,2.925,0,0,0,35,43ZM23,52a1,1,0,1,1,1-1A1,1,0,0,1,23,52Zm9-8a1,1,0,1,1,1-1A1,1,0,0,1,32,44Zm17-6a1,1,0,1,1-1,1A1,1,0,0,1,49,38ZM43,48a1,1,0,1,1-1,1A1,1,0,0,1,43,48Z"></path><rect x="41" y="20" width="12" height="2"></rect><rect x="23" y="20" width="16" height="2"></rect><rect x="41" y="24" width="12" height="2"></rect><rect x="23" y="24" width="16" height="2"></rect><rect x="41" y="28" width="12" height="2"></rect><rect x="23" y="28" width="16" height="2"></rect><rect x="41" y="32" width="12" height="2"></rect><rect x="23" y="32" width="16" height="2"></rect><path d="M19.549,26.914A2,2,0,0,0,21,25V23a2,2,0,0,0-2-2H7a2,2,0,0,0-2,2v2a2,2,0,0,0,1.451,1.914L10,31.351v1.3L6.451,37.086A2,2,0,0,0,5,39v2a2,2,0,0,0,2,2H19a2,2,0,0,0,2-2V39a2,2,0,0,0-1.451-1.914L16,32.649v-1.3ZM7,23H19v2H7ZM7,41V39H19v2Zm7.438-7.1L16.92,37H9.08l2.481-3.1A2,2,0,0,0,12,32.649v-1.3a2,2,0,0,0-.438-1.249L9.08,27h7.84l-2.481,3.1A2,2,0,0,0,14,31.351v1.3A2,2,0,0,0,14.438,33.9Z"></path></g></svg>