<svg xmlns="http://www.w3.org/2000/svg" viewBox="0 0 64 64" x="0px" y="0px"><g><rect x="10" y="26" width="14" height="2"></rect><rect x="10" y="34" width="14" height="2"></rect><rect x="10" y="38" width="14" height="2"></rect><rect x="10" y="30" width="10" height="2"></rect><rect x="22" y="30" width="2" height="2"></rect><rect x="34" y="18" width="14" height="2"></rect><path d="M18,21H16a1,1,0,0,1-1-1H13a3,3,0,0,0,3,3v1h2V23a3,3,0,0,0,0-6H16a1,1,0,0,1,0-2h2a1,1,0,0,1,1,1h2a3,3,0,0,0-3-3V12H16v1a3,3,0,0,0,0,6h2a1,1,0,0,1,0,2Z"></path><path d="M56,38H40a2,2,0,0,0-2,2V56a2,2,0,0,0,2,2H56a2,2,0,0,0,2-2V40A2,2,0,0,0,56,38Zm0,6H52V40h4ZM46,50V46h4v4Zm4,2v4H46V52Zm-6-2H40V46h4Zm2-6V40h4v4Zm6,2h4v4H52Zm-8-6v4H40V40ZM40,52h4v4H40Zm12,4V52h4v4Z"></path><path d="M59,22H56V5a3.009,3.009,0,0,0-3-3H5A3.009,3.009,0,0,0,2,5V47a3.009,3.009,0,0,0,3,3H34v9a3.009,3.009,0,0,0,3,3H59a3.009,3.009,0,0,0,3-3V25A3.009,3.009,0,0,0,59,22ZM30,4H53a1,1,0,0,1,1,1V22H52V8a2.006,2.006,0,0,0-2-2H30ZM46,8v4.59l-.29-.3a1.014,1.014,0,0,0-1.42,0l-.29.3V8ZM28,14H26v2h2v4H26v2h2v4H26v2h2v4H26v2h2v4H26v2h2v4H8V8H28Zm0-8H8A2.006,2.006,0,0,0,6,8V44a2.006,2.006,0,0,0,2,2H28v2H5a1,1,0,0,1-1-1V5A1,1,0,0,1,5,4H28Zm6,42H30V46h4Zm0-23V44H30V40h2V38H30V34h2V32H30V28h2V26H30V22h2V20H30V16h2V14H30V8H42v7a.987.987,0,0,0,.62.92,1,1,0,0,0,1.09-.21L45,14.41l1.29,1.3A1.007,1.007,0,0,0,47,16a.838.838,0,0,0,.38-.08A.987.987,0,0,0,48,15V8h2V22H37A3.009,3.009,0,0,0,34,25ZM60,59a1,1,0,0,1-1,1H37a1,1,0,0,1-1-1V25a1,1,0,0,1,1-1H59a1,1,0,0,1,1,1Z"></path><path d="M56,26H40a2,2,0,0,0-2,2v6a2,2,0,0,0,2,2H56a2,2,0,0,0,2-2V28A2,2,0,0,0,56,26Zm0,8H40V28H56Z"></path><rect x="51" y="30" width="2" height="2"></rect><rect x="47" y="30" width="2" height="2"></rect><rect x="43" y="30" width="2" height="2"></rect></g></svg>