<svg xmlns="http://www.w3.org/2000/svg" viewBox="0 0 64 64" x="0px" y="0px"><g><path d="M55,60V48H9V60H2v2H62V60ZM25,60V55H23a1,1,0,0,1-1,1H18a1,1,0,0,1-1-1H15v5H13V52a2,2,0,0,1,2-2H25a2,2,0,0,1,2,2v8Zm24,0V56H43v4H41V55H39a1,1,0,0,1-1,1H34a1,1,0,0,1-1-1H31v5H29V52a2,2,0,0,1,2-2H41a2,2,0,0,1,2,2v2h6a2,2,0,0,1,2,2v4Z"></path><rect x="39" y="52" width="2" height="1"></rect><rect x="35" y="52" width="2" height="2"></rect><rect x="31" y="52" width="2" height="1"></rect><rect x="15" y="52" width="2" height="1"></rect><rect x="19" y="52" width="2" height="2"></rect><rect x="5" y="22" width="54" height="2"></rect><polygon points="53.382 10 10.618 10 5.618 20 58.382 20 53.382 10"></polygon><rect x="23" y="52" width="2" height="1"></rect><path d="M27,27V26H21v1a3,3,0,0,0,6,0Z"></path><path d="M43,27V26H37v1a3,3,0,0,0,6,0Z"></path><path d="M51,27V26H45v1a3,3,0,0,0,6,0Z"></path><path d="M35,27V26H29v1a3,3,0,0,0,6,0Z"></path><path d="M8,30a3,3,0,0,0,3-3V26H5v1A3,3,0,0,0,8,30Z"></path><path d="M20,46H36V40H31v1a1,1,0,0,1-1,1H26a1,1,0,0,1-1-1V40H20Z"></path><path d="M19,27V26H13v1a3,3,0,0,0,6,0Z"></path><path d="M59,27V26H53v1a3,3,0,0,0,6,0Z"></path><rect x="20" y="36" width="5" height="2"></rect><path d="M55,46V31.9a4.994,4.994,0,0,1-3-1.93,4.954,4.954,0,0,1-8,0,4.954,4.954,0,0,1-8,0,4.954,4.954,0,0,1-8,0,4.954,4.954,0,0,1-8,0,4.954,4.954,0,0,1-8,0A4.994,4.994,0,0,1,9,31.9V46h9V36a2,2,0,0,1,2-2H36a2,2,0,0,1,2,2v2H48a2,2,0,0,1,2,2v6Z"></path><rect x="27" y="36" width="2" height="4"></rect><rect x="38" y="40" width="10" height="6"></rect><rect x="31" y="36" width="5" height="2"></rect></g></svg>