<svg xmlns="http://www.w3.org/2000/svg" viewBox="0 0 48 48" x="0px" y="0px"><title>Warm-Sun</title><g><path d="M24,0A24,24,0,1,0,48,24,24.028,24.028,0,0,0,24,0Zm0,46A22,22,0,1,1,46,24,22.025,22.025,0,0,1,24,46Z"></path><path d="M36,21a7,7,0,0,0-12.269-4.608A10.176,10.176,0,0,0,20.963,16a9.68,9.68,0,0,0-9.814,9.335A6.021,6.021,0,0,0,7,31a6.1,6.1,0,0,0,6.185,6H29.259c.2,0,.378-.01.591-.022A7.622,7.622,0,0,0,37,29.5a7.332,7.332,0,0,0-1.97-4.975A6.918,6.918,0,0,0,36,21Zm-7-5a5.006,5.006,0,0,1,5,5,4.95,4.95,0,0,1-.53,2.224,7.786,7.786,0,0,0-3.358-1.171,9.543,9.543,0,0,0-4.374-4.837A5,5,0,0,1,29,16Zm.714,18.982c-.154.009-.3.018-.455.018H13.185A4.1,4.1,0,0,1,9,31a4.047,4.047,0,0,1,3.355-3.917,1.028,1.028,0,0,0,.811-1.062c-.009-.173-.018-.347-.018-.521A7.671,7.671,0,0,1,20.963,18a7.851,7.851,0,0,1,7.478,5.313,1,1,0,0,0,.936.7,5.489,5.489,0,0,1,.337,10.972Z"></path><rect x="29" y="8" width="2" height="4"></rect><rect x="22.636" y="10.636" width="2" height="4" transform="translate(-2.012 20.414) rotate(-45)"></rect><rect x="37" y="18" width="4" height="2"></rect><rect x="34.364" y="11.636" width="4" height="2" transform="translate(1.716 29.414) rotate(-45)"></rect></g></svg>