<svg xmlns="http://www.w3.org/2000/svg" viewBox="0 0 64 64" x="0px" y="0px"><g data-name="Cloud-Cloud Computing-Email-Mail-Message"><polygon points="16.84 38.92 19 40.19 19 37.4 16.84 38.92"></polygon><polygon points="16 54.88 26.01 46.64 16 40.75 16 54.88"></polygon><path d="M60,33a10.949,10.949,0,0,0-9.17-10.83,1,1,0,0,1-.84-.99c0-.03.01-.14.01-.17a8.008,8.008,0,0,0-10.35-7.66,1,1,0,0,1-1.18-.48,12.977,12.977,0,0,0-24.3,8.12,1.035,1.035,0,0,1-.18.75,1,1,0,0,1-.66.4A10.99,10.99,0,0,0,14,43.95V39a1.028,1.028,0,0,1,.42-.82L19,34.95V31a1,1,0,0,1,1-1h6.01l4.26-3.01a3.025,3.025,0,0,1,3.45,0L37.99,30H44a1,1,0,0,1,1,1v3.95l4.58,3.23A1.028,1.028,0,0,1,50,39v4.95A11.011,11.011,0,0,0,60,33Zm-5,0h2a8.039,8.039,0,0,1-4.571,7.229l-.858-1.806A6.031,6.031,0,0,0,55,33ZM27,11a8.009,8.009,0,0,0-8,8H17A10.011,10.011,0,0,1,27,9Z"></path><path d="M21,41.37l11,6.47,11-6.47V32H21ZM37,44H27V42H37ZM25,34H39v2H25Zm0,4H39v2H25Z"></path><polygon points="45 40.19 47.16 38.92 45 37.4 45 40.19"></polygon><path d="M31.42,28.63,29.48,30h5.04l-1.95-1.37A1.008,1.008,0,0,0,31.42,28.63Z"></path><polygon points="48 54.88 48 40.75 37.99 46.64 48 54.88"></polygon><path d="M16,58H48v-.53L36.15,47.72l-3.64,2.14a1,1,0,0,1-1.02,0l-3.64-2.14L16,57.47Z"></path></g></svg>