<svg xmlns="http://www.w3.org/2000/svg" viewBox="0 0 64 64" x="0px" y="0px"><g><path d="M14,17.071v-1.1A4.977,4.977,0,0,0,16,12V11a1,1,0,0,0,1-1V8A6,6,0,0,0,5,8v2a1,1,0,0,0,1,1v1a4.977,4.977,0,0,0,2,3.974v1.1A7.011,7.011,0,0,0,2,24V35a1,1,0,0,0,1,1H5V56a3,3,0,0,0-3,3v2a1,1,0,0,0,1,1H9a1,1,0,0,0,.447-.1L11,61.118l1.553.777A1,1,0,0,0,13,62h6a1,1,0,0,0,1-1V59a3,3,0,0,0-3-3V36h2a1,1,0,0,0,1-1V24A7.011,7.011,0,0,0,14,17.071ZM7,8a4,4,0,0,1,8,0V9h-.171a1,1,0,0,1-.708-.293L12.707,7.293a1,1,0,0,0-1.414,0l-.829.829A3.02,3.02,0,0,1,8.343,9H7Zm1.343,3a4.966,4.966,0,0,0,3.535-1.464L12,9.414l.707.707A2.96,2.96,0,0,0,14,10.87V12a3,3,0,0,1-6,0V11ZM11,17a5,5,0,0,0,1-.1v.687l-1,1-1-1V16.9A5,5,0,0,0,11,17ZM8.764,60H4V59a1,1,0,0,1,1-1h5v1.382ZM18,59v1H13.236L12,59.382V58h5A1,1,0,0,1,18,59Zm-3-3H12V40H10V56H7V36h8Zm3-22H17V23H15V34H7V23H5V34H4V24a4.991,4.991,0,0,1,4.624-4.962L10,20.414V30h2V20.414l1.376-1.376A4.991,4.991,0,0,1,18,24Z"></path><path d="M42,38a7,7,0,1,0,7,7A7.008,7.008,0,0,0,42,38Zm0,12a5,5,0,1,1,5-5A5.006,5.006,0,0,1,42,50Z"></path><path d="M59,26H49.252a15,15,0,1,0-26.129.678A2.985,2.985,0,0,0,22,29V53a3,3,0,0,0,3,3H59a3,3,0,0,0,3-3V29A3,3,0,0,0,59,26Zm1,3v1.184A2.966,2.966,0,0,0,59,30H25a2.966,2.966,0,0,0-1,.184V29a1,1,0,0,1,1-1H59A1,1,0,0,1,60,29ZM43.974,18a26.092,26.092,0,0,0-.829-5.822A15.111,15.111,0,0,0,45.728,10.4,12.824,12.824,0,0,1,48.951,18ZM37,6.21c1.411.566,2.777,2.3,3.725,4.885A13.053,13.053,0,0,1,37,11.94Zm-2,5.73a13.023,13.023,0,0,1-3.725-.845C32.223,8.508,33.588,6.776,35,6.21Zm-4.307,1.076a14.856,14.856,0,0,0,4.307.93V18H30.025A24.349,24.349,0,0,1,30.693,13.016ZM35,20v4.06a15.08,15.08,0,0,0-4.288.919A24.861,24.861,0,0,1,30.034,20Zm6.288,4.979A15.065,15.065,0,0,0,37,24.06V20h4.966A24.861,24.861,0,0,1,41.288,24.979ZM37,18V13.946a14.845,14.845,0,0,0,4.307-.931A24.369,24.369,0,0,1,41.975,18Zm5.527-7.757a14.332,14.332,0,0,0-1.746-3.327,12.978,12.978,0,0,1,3.511,2.091A13.26,13.26,0,0,1,42.527,10.243Zm-13.054,0a13.042,13.042,0,0,1-1.765-1.236,13,13,0,0,1,3.511-2.09A14.324,14.324,0,0,0,29.473,10.242Zm-.618,1.936A26.092,26.092,0,0,0,28.026,18H23.049a12.824,12.824,0,0,1,3.223-7.6A15.146,15.146,0,0,0,28.855,12.178ZM28.035,20a26.567,26.567,0,0,0,.827,5.806c-.114.063-.222.129-.332.194H25.067a12.788,12.788,0,0,1-2.029-6ZM43.47,26c-.11-.065-.218-.131-.332-.194A26.619,26.619,0,0,0,43.965,20h5a12.863,12.863,0,0,1-2.026,6ZM60,53a1,1,0,0,1-1,1H25a1,1,0,0,1-1-1V37a1,1,0,0,1,1-1H59a1,1,0,0,1,1,1Zm0-18.816A2.966,2.966,0,0,0,59,34H25a2.966,2.966,0,0,0-1,.184V33a1,1,0,0,1,1-1H59a1,1,0,0,1,1,1Z"></path><path d="M28,40h3V38H27a1,1,0,0,0-1,1v4h2Z"></path><path d="M57,38H53v2h3v3h2V39A1,1,0,0,0,57,38Z"></path><path d="M28,47H26v4a1,1,0,0,0,1,1h4V50H28Z"></path><path d="M56,50H53v2h4a1,1,0,0,0,1-1V47H56Z"></path><rect x="51" y="44" width="2" height="2"></rect><rect x="31" y="44" width="2" height="2"></rect></g></svg>