<svg xmlns="http://www.w3.org/2000/svg" viewBox="0 0 64 64" x="0px" y="0px"><g><path d="M52,25H48a1,1,0,0,0-1,1v.26L37.85,29H32a4.994,4.994,0,0,0-2.05,9.55,2.8,2.8,0,0,0-.69.64,2.956,2.956,0,0,0-.49,2.63l1.15,4.02L25,53.57V48.09a6.968,6.968,0,0,0-2.93-5.69L18,39.49V36.93A8,8,0,0,0,25,29V25a4.028,4.028,0,0,0-1.68-3.26A5,5,0,0,0,25,18V16a1,1,0,0,0-1-1H14a7.008,7.008,0,0,0-7,7v2.54a3.87,3.87,0,0,0-.83.63A4,4,0,0,0,9,32h.58a8.064,8.064,0,0,0,.42.83v5.63L6.23,40.98A4.974,4.974,0,0,0,4,45.14V61a1,1,0,0,0,1,1H30a1.016,1.016,0,0,0,.91-.58L34.79,53H38a1,1,0,0,0,1-1V48a3.009,3.009,0,0,0,3-3V41a2.9,2.9,0,0,0-.12-.79L47,41.74V42a1,1,0,0,0,1,1h4a1,1,0,0,0,1-1V26A1,1,0,0,0,52,25ZM9,22a5,5,0,0,1,5-5h9v1a3.009,3.009,0,0,1-3,3H13a2.006,2.006,0,0,0-2,2,1,1,0,0,1-1,1H9Zm0,8a2.006,2.006,0,0,1-2-2,2.015,2.015,0,0,1,2-2h1a3.009,3.009,0,0,0,3-3h8a2.006,2.006,0,0,1,2,2v4a6,6,0,0,1-6,6,5.928,5.928,0,0,1-4.24-1.76,5.682,5.682,0,0,1-.91-1.16,5.811,5.811,0,0,1-.6-1.37,1.008,1.008,0,0,0-.96-.71Zm7,6.93v1.89l-4-.67V35.24A7.9,7.9,0,0,0,16,36.93ZM23,60H12V48a1.185,1.185,0,0,0-.05-.32l-1-3-1.9.64L10,48.16V60H6V45.14a3.008,3.008,0,0,1,1.33-2.5l3.89-2.59,5.39.9,4.3,3.07A5.018,5.018,0,0,1,23,48.09Zm6-26a3.009,3.009,0,0,1,3-3h1v6H32A3.009,3.009,0,0,1,29,34Zm.36,26H25V57.29l6.4-10.05,1.6.64V52c0,.03.01.05.01.07ZM33,42H32v2h1v1.72l-1.17-.47-1.14-3.97a.985.985,0,0,1,.16-.88.972.972,0,0,1,.8-.4H33a1,1,0,0,1,0,2Zm2-11h2v6H35Zm.78,8a2.387,2.387,0,0,0-.28.35,2.387,2.387,0,0,0-.28-.35ZM37,51H35V45a3.01,3.01,0,0,0,2,2.82Zm3-6a1,1,0,0,1-1,1H38a1,1,0,0,1-1-1V41a1,1,0,0,1,1-1h1a1,1,0,0,1,1,1Zm7-5.34-8-2.4V30.74l8-2.4ZM51,41H49V27h2Z"></path><rect x="55" y="33" width="4" height="2"></rect><rect x="54.764" y="28" width="4.472" height="2" transform="translate(-6.952 28.553) rotate(-26.565)"></rect><rect x="56" y="36.764" width="2" height="4.472" transform="translate(-3.374 72.541) rotate(-63.435)"></rect><rect x="32.929" y="13" width="14.142" height="2" transform="translate(1.816 32.385) rotate(-45)"></rect><path d="M40,26A12,12,0,1,0,28,14,12.013,12.013,0,0,0,40,26ZM40,4A10,10,0,1,1,30,14,10.011,10.011,0,0,1,40,4Z"></path><path d="M36,13a3,3,0,1,0-3-3A3,3,0,0,0,36,13Zm0-4a1,1,0,1,1-1,1A1,1,0,0,1,36,9Z"></path><path d="M41,18a3,3,0,1,0,3-3A3,3,0,0,0,41,18Zm4,0a1,1,0,1,1-1-1A1,1,0,0,1,45,18Z"></path></g></svg>