<svg xmlns="http://www.w3.org/2000/svg" viewBox="0 0 64 64" x="0px" y="0px"><g data-name="Working Time-Time Management-Office-Work At Home-Woman"><rect x="16" y="30" width="2" height="2"></rect><rect x="22" y="30" width="2" height="2"></rect><path d="M51,60V59a3.009,3.009,0,0,0-3-3V54h8a3.009,3.009,0,0,0,3-3V37a3.009,3.009,0,0,0-3-3H32c-.05,0-.1.01-.15.01A3.857,3.857,0,0,0,32,33a3.975,3.975,0,0,0-2-3.46V27A10.016,10.016,0,0,0,20,17,10,10,0,0,0,10,27v2.54A3.975,3.975,0,0,0,8,33a4.058,4.058,0,0,0,.23,1.34A6.024,6.024,0,0,0,6,39a5.91,5.91,0,0,0,2.99,5.16A8.989,8.989,0,0,0,5,51.6V55a6.97,6.97,0,0,0,2.11,5H2v2H62V60ZM31,37a1,1,0,0,1,1-1H56a1,1,0,0,1,1,1V51a1,1,0,0,1-1,1H48V47a1,1,0,0,0-1-1H41a1,1,0,0,0-1,1v5H32a1,1,0,0,1-1-1ZM46,48v8H42V48ZM28.68,31.13A1.966,1.966,0,0,1,30,33a2.13,2.13,0,0,1-.34,1.13.974.974,0,0,0-.13.78.823.823,0,0,0,.12.25A2.964,2.964,0,0,0,29,37v5.87a3.545,3.545,0,0,1-.47.08L24,41.3V38.92A8.005,8.005,0,0,0,28,32V30.18A1,1,0,0,0,28.68,31.13ZM22.66,42.94l.69.25a7.332,7.332,0,0,1-6.7,0l.69-.25A.992.992,0,0,0,18,42V39.74A7.9,7.9,0,0,0,20,40a8.242,8.242,0,0,0,2-.26V42A.992.992,0,0,0,22.66,42.94ZM20,38a6.009,6.009,0,0,1-6-6V28.94A7.792,7.792,0,0,0,15,29a10.362,10.362,0,0,0,4.39-1.08A8.622,8.622,0,0,1,23,27a3.237,3.237,0,0,1,2.4.8c.18.13.38.28.6.42V32A6,6,0,0,1,20,38ZM12,27a8.024,8.024,0,0,1,8-8,8.011,8.011,0,0,1,8,8v.63a1,1,0,0,0-.58-.91,5.131,5.131,0,0,1-.82-.52A5.178,5.178,0,0,0,23,25a10.362,10.362,0,0,0-4.39,1.08A8.622,8.622,0,0,1,15,27a3.589,3.589,0,0,1-1.58-.28,1.023,1.023,0,0,0-.96.07.985.985,0,0,0-.46.84ZM8,39a3.961,3.961,0,0,1,2-3.46.988.988,0,0,0,.47-.64.958.958,0,0,0-.13-.77A2.13,2.13,0,0,1,10,33a1.966,1.966,0,0,1,1.32-1.87,1,1,0,0,0,.68-.95V32a7.949,7.949,0,0,0,2.34,5.66A7.74,7.74,0,0,0,16,38.92V41.3l-4.53,1.65A3.959,3.959,0,0,1,8,39Zm5,21H12a5,5,0,0,1-5-5V54h3.1c.33,1.74,1.48,3,2.9,3Zm2,0V57h1a3.009,3.009,0,0,1,3,3Zm5-2.97A4.994,4.994,0,0,0,16,55H13c-.41,0-1-.78-1-2s.59-2,1-2V49c-1.42,0-2.57,1.26-2.9,3H7v-.4a6.988,6.988,0,0,1,4.61-6.57l2.78-1.01A8.3,8.3,0,0,0,20,46a8.3,8.3,0,0,0,5.61-1.98l2.78,1.01a4.656,4.656,0,0,1,.61.26v4.73A2.615,2.615,0,0,0,27,49v2c.41,0,1,.78,1,2s-.59,2-1,2H24A4.994,4.994,0,0,0,20,57.03ZM25,60H21a3.009,3.009,0,0,1,3-3h1Zm3,0H27V57c1.42,0,2.57-1.26,2.9-3H33v1A5,5,0,0,1,28,60Zm9-1v1H32.89A6.97,6.97,0,0,0,35,55V54h5v2A3.009,3.009,0,0,0,37,59Zm12,1H39V59a1,1,0,0,1,1-1h8a1,1,0,0,1,1,1Z"></path><path d="M47,28A11,11,0,1,0,36,17,11.013,11.013,0,0,0,47,28ZM38.059,16a8.956,8.956,0,0,1,1.916-4.611l1.368,1.368,1.414-1.414L41.389,9.975A8.956,8.956,0,0,1,46,8.059V10h2V8.059a8.956,8.956,0,0,1,4.611,1.916l-1.368,1.368,1.414,1.414,1.368-1.368A8.956,8.956,0,0,1,55.941,16H54v2h1.941a8.956,8.956,0,0,1-1.916,4.611l-1.368-1.368-1.414,1.414,1.368,1.368A8.956,8.956,0,0,1,48,25.941V24H46v1.941a8.956,8.956,0,0,1-4.611-1.916l1.368-1.368-1.414-1.414-1.368,1.368A8.956,8.956,0,0,1,38.059,18H40V16Z"></path><path d="M47.707,17.707A1,1,0,0,0,48,17V12H46v4.586l-1.707,1.707,1.414,1.414Z"></path><path d="M47,32A15,15,0,1,0,32,17,15.017,15.017,0,0,0,47,32ZM47,4A13,13,0,1,1,34,17,13.015,13.015,0,0,1,47,4Z"></path></g></svg>