<svg xmlns="http://www.w3.org/2000/svg" viewBox="0 0 64 64" x="0px" y="0px"><g data-name="Mobile App-App-Smartphone-Taxi-Technology"><path d="M46,2H18a6,6,0,0,0-6,6V56a6,6,0,0,0,6,6H46a6,6,0,0,0,6-6V8A6,6,0,0,0,46,2Zm4,54a4,4,0,0,1-4,4H18a4,4,0,0,1-4-4V8a4,4,0,0,1,4-4H46a4,4,0,0,1,4,4Z"></path><path d="M34,52H30a3,3,0,0,0,0,6h4a3,3,0,0,0,0-6Zm0,4H30a1,1,0,0,1,0-2h4a1,1,0,0,1,0,2Z"></path><rect x="25" y="6" width="2" height="2"></rect><rect x="29" y="6" width="6" height="2"></rect><rect x="29" y="35" width="6" height="2"></rect><path d="M48,30a3.009,3.009,0,0,0-3-3,2.949,2.949,0,0,0-1.99.78l-1.07-2.13-.78-3.14A1.992,1.992,0,0,0,39.22,21H37V18a1,1,0,0,0-1-1H28a1,1,0,0,0-1,1v3H24.78a1.992,1.992,0,0,0-1.94,1.51l-.78,3.14-1.07,2.13A2.949,2.949,0,0,0,19,27a3,3,0,0,0-1.6,5.53A2.942,2.942,0,0,0,17,34v9a2.006,2.006,0,0,0,2,2h4a2.006,2.006,0,0,0,2-2V41H39v2a2.006,2.006,0,0,0,2,2h4a2.006,2.006,0,0,0,2-2V34a2.942,2.942,0,0,0-.4-1.47A2.983,2.983,0,0,0,48,30ZM29,19h6v2H29Zm-4.22,4H39.22l.5,2H24.28Zm-1.16,4H40.38l2,4H21.62ZM18,30a.992.992,0,0,1,1.97-.17l-.53,1.05A.933.933,0,0,1,19,31,1,1,0,0,1,18,30Zm5,13H19V40.82A3,3,0,0,0,20,41h3Zm22,0H41V41h3a3,3,0,0,0,1-.18Zm0-5a1,1,0,0,1-1,1H20a1,1,0,0,1-1-1V34a1,1,0,0,1,1-1H44a1,1,0,0,1,1,1Zm0-7a.933.933,0,0,1-.44-.12l-.53-1.05A.993.993,0,1,1,45,31Z"></path><circle cx="41" cy="36" r="2"></circle><circle cx="23" cy="36" r="2"></circle></g></svg>