<svg xmlns="http://www.w3.org/2000/svg" viewBox="0 0 64 64" x="0px" y="0px"><g data-name="Identity Card"><path d="M16,42a3.006,3.006,0,0,0-2.829,2h5.658A3.006,3.006,0,0,0,16,42Z"></path><path d="M23,32H9V48H23ZM20,46H12a1,1,0,0,1-1-1,4.983,4.983,0,0,1,2.52-4.315A2.981,2.981,0,0,1,13,39V38a3,3,0,0,1,6,0v1a2.981,2.981,0,0,1-.52,1.685A4.983,4.983,0,0,1,21,45,1,1,0,0,1,20,46Z"></path><path d="M16,40a1,1,0,0,0,1-1V38a1,1,0,0,0-2,0v1A1,1,0,0,0,16,40Z"></path><path d="M4,21V57H60V21H45v4a1,1,0,0,1-1,1H20a1,1,0,0,1-1-1V21ZM36,31H54v2H36Zm-6,0h4v2H30Zm0,5H54v2H30Zm0,5H54v2H30Zm0,5H54v2H30ZM24,30a1,1,0,0,1,1,1V49a1,1,0,0,1-1,1H8a1,1,0,0,1-1-1V31a1,1,0,0,1,1-1Z"></path><circle cx="32" cy="12" r="1"></circle><path d="M26.09,14H21V24H43V14H37.91a1,1,0,0,1-.989-1.149A5.725,5.725,0,0,0,37,12a5,5,0,0,0-10,0,5.725,5.725,0,0,0,.079.851A1,1,0,0,1,26.09,14ZM32,9a3,3,0,1,1-3,3A3,3,0,0,1,32,9Z"></path></g></svg>