<svg xmlns="http://www.w3.org/2000/svg" viewBox="0 0 64 64" x="0px" y="0px"><g data-name="Security Man-Avatar-Occupation-Man-Guard"><path d="M52,52h4v7a2.015,2.015,0,0,1-2,2,2.006,2.006,0,0,1-2-2Z"></path><path d="M56.88,28l-.84,22H51.96l-.84-22a2.882,2.882,0,1,1,5.76,0Z"></path><path d="M16,19a2.006,2.006,0,0,0-2,2,2.015,2.015,0,0,0,2,2Z"></path><path d="M41.04,42.77l2.82,1.03a1.016,1.016,0,0,0,1.28-.6,1,1,0,0,0-.6-1.28l-2.82-1.03Z"></path><path d="M38,19v4a2.015,2.015,0,0,0,2-2A2.006,2.006,0,0,0,38,19Z"></path><path d="M18,12.37l6.41-.98a16.6,16.6,0,0,1,5.17,0l6.42.98V7a3.009,3.009,0,0,0-3-3H21a3.009,3.009,0,0,0-3,3ZM27,5a3,3,0,1,1-3,3A3,3,0,0,1,27,5Z"></path><path d="M25.03,17.37,18,18.65V24a9,9,0,0,0,18,0V18.65l-7.03-1.27A11.1,11.1,0,0,0,25.03,17.37ZM21,21a2,2,0,1,1,2,2A2,2,0,0,1,21,21Zm10-2a2,2,0,1,1-2,2A2,2,0,0,1,31,19Zm-.693,8.75a5,5,0,0,1-6.614,0l1.323-1.5a3.076,3.076,0,0,0,3.968,0Z"></path><path d="M16.13,15.1a1.006,1.006,0,0,0-.01.91l.1.2a1.006,1.006,0,0,0,1.08.54l7.37-1.34a13.031,13.031,0,0,1,4.66,0l7.37,1.34a1.02,1.02,0,0,0,1.08-.54l.1-.2a1.006,1.006,0,0,0-.01-.91.978.978,0,0,0-.73-.53l-7.86-1.21a15.374,15.374,0,0,0-4.56,0l-7.86,1.21A.978.978,0,0,0,16.13,15.1Z"></path><circle cx="27" cy="8" r="1"></circle><rect x="34" y="50" width="4" height="4"></rect><path d="M46,60V48.88a6.989,6.989,0,0,0-.79-3.21,2.874,2.874,0,0,1-1.01.19,3,3,0,0,1-1.02-.18l-7.52-2.74a1,1,0,0,1-.6-1.28l.44-1.21-.86-.27-1.69,5.13a1,1,0,0,1-.72.66A.908.908,0,0,1,32,46a1.007,1.007,0,0,1-.71-.29l-1.68-1.69-.58,1.16L30.88,60H39V57h2v3Zm-6-5a1,1,0,0,1-1,1H33a1,1,0,0,1-1-1V49a1,1,0,0,1,1-1h6a1,1,0,0,1,1,1Z"></path><path d="M30,34.57a10.8,10.8,0,0,1-6,.01v2.8l3,1.5,3-1.5Z"></path><path d="M8.86,43.2a.956.956,0,0,0,.52.56.9.9,0,0,0,.42.1.974.974,0,0,0,.34-.06l2.82-1.03-.68-1.88L9.46,41.92A1,1,0,0,0,8.86,43.2Z"></path><rect x="37.564" y="39.804" width="2.003" height="2.003" transform="translate(-13.029 62.949) rotate(-69.846)"></rect><polygon points="25.88 42.54 26.62 44 27.38 44 28.12 42.54 27 41.41 25.88 42.54"></polygon><rect x="14.434" y="39.804" width="2.003" height="2.003" transform="translate(-13.114 7.817) rotate(-20.154)"></rect><path d="M8,48.88V60h5V57h2v3h8.12l1.85-14.82-.58-1.16-1.68,1.69A1.007,1.007,0,0,1,22,46a.908.908,0,0,1-.23-.03,1,1,0,0,1-.72-.66l-1.69-5.13-.86.27.44,1.21a1,1,0,0,1-.6,1.28l-7.52,2.74a3,3,0,0,1-1.02.18,2.874,2.874,0,0,1-1.01-.19A6.989,6.989,0,0,0,8,48.88ZM14,49a1,1,0,0,1,1-1h6a1,1,0,0,1,1,1v6a1,1,0,0,1-1,1H15a1,1,0,0,1-1-1Z"></path><rect x="16" y="50" width="4" height="4"></rect><polygon points="32.73 39.59 31.09 39.07 28.69 40.27 31.56 43.14 32.73 39.59"></polygon><polygon points="25.31 40.27 22.91 39.07 21.27 39.59 22.44 43.14 25.31 40.27"></polygon><polygon points="27.12 46 26.88 46 25.13 60 28.87 60 27.12 46"></polygon></g></svg>