<svg xmlns="http://www.w3.org/2000/svg" viewBox="0 0 64 64" x="0px" y="0px"><g><path d="M15.25,30.4a1,1,0,0,0,.74,1.11A83.941,83.941,0,0,0,27,33.67V30.79A11.028,11.028,0,0,1,21.05,22H21a3.963,3.963,0,0,1-3.96-3.55Z"></path><path d="M33.89,26.99l.22-1.98,5.6.62a8.791,8.791,0,0,0,.86-1.9l-6.81-1.36a9.065,9.065,0,0,0-3.52,0l-6.81,1.36a9.3,9.3,0,0,0,.86,1.9l5.6-.62.22,1.98-4.34.49a8.973,8.973,0,0,0,12.47,0Z"></path><path d="M21,13H17.86l-.5,3.37A4,4,0,0,1,21,14Z"></path><path d="M19.59,19.41A1.983,1.983,0,0,0,21,20V16a2.006,2.006,0,0,0-2,2A1.983,1.983,0,0,0,19.59,19.41Z"></path><path d="M29,41a.887.887,0,0,1-.07.28,7.175,7.175,0,0,0,6.14,0A.887.887,0,0,1,35,41V38.97a4.884,4.884,0,0,1-6,0Z"></path><path d="M40.56,7A4.949,4.949,0,0,0,36,4H28a4.949,4.949,0,0,0-4.56,3Z"></path><path d="M51,60V45.88a6.943,6.943,0,0,0-4.91-6.67l-5.33-1.67A5.016,5.016,0,0,1,41,39v5a.988.988,0,0,1-.55.89.99.99,0,0,1-1.05-.09l-2.8-2.1a8.788,8.788,0,0,1-9.2,0l-2.8,2.1a.99.99,0,0,1-1.05.09A.988.988,0,0,1,23,44V39a5.14,5.14,0,0,1,.24-1.47L17.91,39.2A6.964,6.964,0,0,0,13,45.88V60h6V46h2V60H43V46h2V60Z"></path><rect x="17" y="9" width="30" height="2"></rect><path d="M29.15,35.89a2.98,2.98,0,0,0,5.7,0c-.96.07-1.92.11-2.85.11S30.11,35.96,29.15,35.89Z"></path><path d="M35,31.58A11.09,11.09,0,0,1,32,32a10.665,10.665,0,0,1-3-.43v2.3c1.02.08,2.03.13,3,.13s1.98-.05,3-.13Z"></path><path d="M41,13.83V13H39.77A2.986,2.986,0,0,0,41,13.83Z"></path><path d="M46.64,16.37,46.14,13H43v1A4,4,0,0,1,46.64,16.37Z"></path><path d="M42.95,22a10.919,10.919,0,0,1-3.17,6.78A11.064,11.064,0,0,1,37,30.79v2.88a83.941,83.941,0,0,0,11.01-2.16,1,1,0,0,0,.74-1.11L46.96,18.45A3.963,3.963,0,0,1,43,22Z"></path><path d="M27,36.17A3.014,3.014,0,0,0,25,39v3l2-1.5Z"></path><path d="M39,39a3.014,3.014,0,0,0-2-2.83V40.5L39,42Z"></path><path d="M43,20a2.015,2.015,0,0,0,2-2,2.006,2.006,0,0,0-2-2Z"></path><path d="M23,13.83A2.986,2.986,0,0,0,24.23,13H23Z"></path><path d="M23,21c0,.26.02.52.04.77l6.8-1.36a11.214,11.214,0,0,1,4.32,0l6.8,1.36c.02-.25.04-.51.04-.77V15.89A5.006,5.006,0,0,1,37.42,13H26.58A5.006,5.006,0,0,1,23,15.89Zm13-6a2,2,0,1,1-2,2A2,2,0,0,1,36,15Zm-8,0a2,2,0,1,1-2,2A2,2,0,0,1,28,15Z"></path></g></svg>