<svg xmlns="http://www.w3.org/2000/svg" viewBox="0 0 64 64" x="0px" y="0px"><g data-name="Road Sign"><path d="M48,23V17a1,1,0,0,1,1-1h.586L46,12.414,42.414,16H43a1,1,0,0,1,1,1v3a2,2,0,0,1-2,2H28v4H45A3,3,0,0,0,48,23Z"></path><path d="M8,30H56V8H8Zm18-9a1,1,0,0,1,1-1H42V18H40a1,1,0,0,1-.707-1.707l6-6a1,1,0,0,1,1.414,0l6,6A1,1,0,0,1,52,18H50v5a5.006,5.006,0,0,1-5,5H27a1,1,0,0,1-1-1Zm-6,0h2v2H20Zm0,4h2v2H20Zm-4-4h2v2H16Zm0,4h2v2H16Zm-4-4h2v2H12Zm0,4h2v2H12Z"></path><path d="M60,33V5a1,1,0,0,0-1-1H5A1,1,0,0,0,4,5V33a1,1,0,0,0,1,1H59A1,1,0,0,0,60,33Zm-2-2a1,1,0,0,1-1,1H7a1,1,0,0,1-1-1V7A1,1,0,0,1,7,6H57a1,1,0,0,1,1,1Z"></path><rect x="5" y="58" width="10" height="2"></rect><rect x="49" y="58" width="10" height="2"></rect><rect x="9" y="36" width="2" height="20"></rect><rect x="53" y="36" width="2" height="20"></rect></g></svg>