<svg xmlns="http://www.w3.org/2000/svg" viewBox="0 0 64 64" x="0px" y="0px"><g data-name="Playground"><path d="M61,8H3A1,1,0,0,0,2,9V61a1,1,0,0,0,1,1H21a1,1,0,0,0,1-1V36h5.822a6.475,6.475,0,0,1-.723,2.232,9.075,9.075,0,0,0,0,8.2,7.084,7.084,0,0,1,0,6.469A8.315,8.315,0,0,0,26.12,57a1,1,0,0,0,2,0,6.355,6.355,0,0,1,.782-3.235,9.081,9.081,0,0,0,0-8.2,7.082,7.082,0,0,1,0-6.466,8.308,8.308,0,0,0,.928-3.1h5.993a6.475,6.475,0,0,1-.723,2.232,9.075,9.075,0,0,0,0,8.2,7.084,7.084,0,0,1,0,6.469A8.315,8.315,0,0,0,34.12,57a1,1,0,0,0,2,0,6.355,6.355,0,0,1,.782-3.235,9.081,9.081,0,0,0,0-8.2,7.082,7.082,0,0,1,0-6.466,8.308,8.308,0,0,0,.928-3.1H42V61a1,1,0,0,0,1,1H61a1,1,0,0,0,1-1V9A1,1,0,0,0,61,8ZM4,34V32H60v2ZM26,14V30H22V14Zm6,0V30H28V14Zm6,0V30H34V14Zm6,0V30H40V14Zm16,0V30H46V14ZM20,30H4V14H20ZM4,10H60v2H4ZM20,60H4V36H20Zm40,0H44V36H60Z"></path><path d="M7,58H9a1,1,0,0,0,0-2H7a1,1,0,0,0,0,2Z"></path><path d="M15,54h2a1,1,0,0,0,0-2H15a1,1,0,0,0,0,2Z"></path><path d="M7,50H9a1,1,0,0,0,0-2H7a1,1,0,0,0,0,2Z"></path><path d="M15,46h2a1,1,0,0,0,0-2H15a1,1,0,0,0,0,2Z"></path><path d="M7,42H9a1,1,0,0,0,0-2H7a1,1,0,0,0,0,2Z"></path><path d="M47,54h2a1,1,0,0,0,0-2H47a1,1,0,0,0,0,2Z"></path><path d="M55,50h2a1,1,0,0,0,0-2H55a1,1,0,0,0,0,2Z"></path><path d="M55,58h2a1,1,0,0,0,0-2H55a1,1,0,0,0,0,2Z"></path><path d="M47,46h2a1,1,0,0,0,0-2H47a1,1,0,0,0,0,2Z"></path><path d="M55,42h2a1,1,0,0,0,0-2H55a1,1,0,0,0,0,2Z"></path></g></svg>