<svg xmlns="http://www.w3.org/2000/svg" viewBox="0 0 64 64" x="0px" y="0px"><g data-name="File"><path d="M54,2H16a3,3,0,0,0-3,3V52H8a1,1,0,0,0-1,1v4a5.006,5.006,0,0,0,5,5H52a5.006,5.006,0,0,0,5-5V5A3,3,0,0,0,54,2ZM45,4h4v6L47.8,8.4a1.036,1.036,0,0,0-1.6,0L45,10ZM12,60a3,3,0,0,1-3-3V54H47v3a4.973,4.973,0,0,0,1,3Zm43-3a3,3,0,0,1-6,0V53a1,1,0,0,0-1-1H15V5a1,1,0,0,1,1-1H43v9a1,1,0,0,0,1.8.6L47,10.667,49.2,13.6a1,1,0,0,0,.8.4,1.019,1.019,0,0,0,.316-.051A1,1,0,0,0,51,13V4h3a1,1,0,0,1,1,1Z"></path><rect x="19" y="18" width="12" height="2"></rect><rect x="33" y="18" width="4" height="2"></rect><rect x="39" y="18" width="12" height="2"></rect><rect x="19" y="22" width="6" height="2"></rect><rect x="27" y="22" width="6" height="2"></rect><rect x="35" y="22" width="16" height="2"></rect><rect x="19" y="26" width="12" height="2"></rect><rect x="33" y="26" width="6" height="2"></rect><rect x="41" y="26" width="6" height="2"></rect><rect x="49" y="26" width="2" height="2"></rect><rect x="19" y="30" width="32" height="2"></rect><rect x="19" y="34" width="6" height="2"></rect><rect x="27" y="34" width="14" height="2"></rect><rect x="43" y="34" width="8" height="2"></rect><rect x="19" y="38" width="2" height="2"></rect><rect x="23" y="38" width="10" height="2"></rect><rect x="35" y="38" width="16" height="2"></rect><rect x="19" y="42" width="22" height="2"></rect><rect x="43" y="42" width="8" height="2"></rect><rect x="19" y="46" width="32" height="2"></rect><rect x="19" y="12" width="11" height="2"></rect><rect x="19" y="8" width="2" height="2"></rect><rect x="23" y="8" width="7" height="2"></rect></g></svg>