<svg xmlns="http://www.w3.org/2000/svg" viewBox="0 0 64 64" x="0px" y="0px"><g><path d="M26,5.23V13h6.95a8.94,8.94,0,0,0-2.59-5.36c-.11-.12-.24-.23-.36-.34V11H28V5.94A9.527,9.527,0,0,0,26,5.23Z"></path><path d="M22,13h2V4a1,1,0,0,0-2,0Z"></path><path d="M31.64,45.95l-4.03-4.7L24.56,58.03l6.87-6.87-1.98-1.33A.989.989,0,0,1,29,49.1a1.046,1.046,0,0,1,.29-.81Z"></path><rect x="9" y="15" width="28" height="2"></rect><path d="M10.17,58.64A4.444,4.444,0,0,1,10.8,60h9.79l-8.3-8.29A1.046,1.046,0,0,1,12,50.9a.989.989,0,0,1,.45-.73l1.98-1.33-2.14-2.13a1,1,0,0,1-.05-1.36l3.73-4.36L8.91,43.2A6.964,6.964,0,0,0,4,49.88V60H8.64a1.665,1.665,0,0,0-.12-.23A8.855,8.855,0,0,1,7,55a8.723,8.723,0,0,1,2.29-5.71l1.42,1.42A6.609,6.609,0,0,0,9,55,6.794,6.794,0,0,0,10.17,58.64Z"></path><path d="M42.09,57.24l1.67,1.67,1.31-.88a1.017,1.017,0,0,1,1.05-.04,8.044,8.044,0,0,0,1.68.7.984.984,0,0,1,.71.76L48.82,61h2.36l.31-1.55a.984.984,0,0,1,.71-.76,8.044,8.044,0,0,0,1.68-.7,1.017,1.017,0,0,1,1.05.04l1.31.88,1.67-1.67-.88-1.31a1,1,0,0,1-.04-1.04,8.359,8.359,0,0,0,.7-1.69.984.984,0,0,1,.76-.71L60,52.18V49.82l-1.55-.31a.984.984,0,0,1-.76-.71,8.359,8.359,0,0,0-.7-1.69,1,1,0,0,1,.04-1.04l.88-1.31-1.67-1.67-1.31.88a1.017,1.017,0,0,1-1.05.04,8.044,8.044,0,0,0-1.68-.7.984.984,0,0,1-.71-.76L51.18,41H48.82l-.31,1.55a.984.984,0,0,1-.71.76,8.044,8.044,0,0,0-1.68.7,1.017,1.017,0,0,1-1.05-.04l-1.31-.88-1.67,1.67.88,1.31a1,1,0,0,1,.04,1.04,8.359,8.359,0,0,0-.7,1.69.984.984,0,0,1-.76.71L40,49.82v2.36l1.55.31a.984.984,0,0,1,.76.71,8.359,8.359,0,0,0,.7,1.69,1,1,0,0,1-.04,1.04ZM50,45a6,6,0,1,1-6,6A6.006,6.006,0,0,1,50,45Z"></path><circle cx="50" cy="51" r="4"></circle><path d="M20,13V5.23a9.118,9.118,0,0,0-2,.7V11H16V7.28A9.034,9.034,0,0,0,13.05,13Z"></path><path d="M38,51.13V49a1,1,0,0,1,.8-.98l1.78-.36a9,9,0,0,1,.4-.97l-1-1.5a.934.934,0,0,1-.15-.34,6.857,6.857,0,0,0-2.74-1.65l-7.06-2.21,3.73,4.36a1,1,0,0,1-.05,1.36l-2.14,2.13,1.98,1.33a.989.989,0,0,1,.45.73,1.046,1.046,0,0,1-.29.81L25.41,60H35.2a4.61,4.61,0,0,1,.63-1.37A6.735,6.735,0,0,0,37,55a6.609,6.609,0,0,0-1.71-4.29l1.42-1.42A7.9,7.9,0,0,1,38,51.13Z"></path><path d="M42,59.97l-1.9-1.9a.986.986,0,0,1-.12-1.26l1-1.5a9,9,0,0,1-.4-.97L38.93,54A8.258,8.258,0,0,1,39,55a8.855,8.855,0,0,1-1.52,4.77,1.665,1.665,0,0,0-.12.23H42Z"></path><path d="M18.39,41.25l-4.03,4.7,2.35,2.34a1.046,1.046,0,0,1,.29.81.989.989,0,0,1-.45.73l-1.98,1.33,6.87,6.87Z"></path><path d="M38,22a2.942,2.942,0,0,0-.73.11.965.965,0,0,1-.87-.16,1.014,1.014,0,0,1-.4-.8V19H34v6a11.014,11.014,0,0,1-6,9.79v.42a2.963,2.963,0,0,0,4.82-1.22,1.035,1.035,0,0,1,.64-.62.993.993,0,0,1,.87.12,3,3,0,0,0,4.16-4.16.99.99,0,0,1-.13-.88,1.035,1.035,0,0,1,.62-.64A2.968,2.968,0,0,0,41,25,3.009,3.009,0,0,0,38,22Z"></path><path d="M24.95,44.68a6.1,6.1,0,0,1-3.9,0L23,55.41Z"></path><path d="M7.02,27.81a1.035,1.035,0,0,1,.62.64.99.99,0,0,1-.13.88A2.964,2.964,0,0,0,7,31a3,3,0,0,0,4.67,2.49.993.993,0,0,1,.87-.12,1.035,1.035,0,0,1,.64.62A2.963,2.963,0,0,0,18,35.21v-.42A11.014,11.014,0,0,1,12,25V19H10v2.15a1.014,1.014,0,0,1-.4.8.97.97,0,0,1-.87.16A2.942,2.942,0,0,0,8,22a3.009,3.009,0,0,0-3,3A2.968,2.968,0,0,0,7.02,27.81Z"></path><path d="M20,35.57v3.34l.59,3.23a3.807,3.807,0,0,0,4.82,0L26,38.91V35.57a10.68,10.68,0,0,1-6,0Z"></path><path d="M32,25V19H14v6a9,9,0,0,0,18,0ZM17,22a2,2,0,1,1,2,2A2,2,0,0,1,17,22Zm6,8a5.01,5.01,0,0,1-3.532-1.458l1.4-1.424a3.082,3.082,0,0,0,4.256,0l1.4,1.424A5.01,5.01,0,0,1,23,30Zm4-6a2,2,0,1,1,2-2A2,2,0,0,1,27,24Z"></path></g></svg>