<svg xmlns="http://www.w3.org/2000/svg" viewBox="0 0 64 64" x="0px" y="0px"><g><path d="M46.68,43.29,37,40.26V36.79a11.064,11.064,0,0,0,2.78-2.01A10.919,10.919,0,0,0,42.95,28H43a3.989,3.989,0,0,0,2.76-6.88A6.976,6.976,0,0,0,44.57,9.99,4.968,4.968,0,0,0,40,3a4.97,4.97,0,0,0-4.6,3.1A13.987,13.987,0,0,0,17.02,24.24a3.985,3.985,0,0,0,1.15,2.59,4.7,4.7,0,0,0,.55.45,14.374,14.374,0,0,0,2.72,2.79A11.089,11.089,0,0,0,27,36.79v3.47l-9.68,3.03A8.959,8.959,0,0,0,11,51.88V61a1,1,0,0,0,1,1H52a1,1,0,0,0,1-1V51.88A8.959,8.959,0,0,0,46.68,43.29ZM44.41,25.41A1.983,1.983,0,0,1,43,26V22a2.006,2.006,0,0,1,2,2A1.983,1.983,0,0,1,44.41,25.41ZM46,16a5.034,5.034,0,0,1-2.04,4.03c.02-.34.04-.68.04-1.03a13.921,13.921,0,0,0-2.49-7.95A5,5,0,0,1,46,16ZM40,5a3.009,3.009,0,0,1,3,3,2.977,2.977,0,0,1-.27,1.22A7.07,7.07,0,0,0,41,9a6.983,6.983,0,0,0-1.13.1A14.33,14.33,0,0,0,37.18,7,3,3,0,0,1,40,5ZM21,26a2.015,2.015,0,0,1-2-2,2.006,2.006,0,0,1,2-2Zm.03-6H21a3.979,3.979,0,0,0-2.8,1.15A11.779,11.779,0,0,1,18,19a12,12,0,1,1,24,0v.07c-4.68-1.82-6.16-3.09-7.04-5.97a1,1,0,0,0-1.77-.29c-3.48,4.88-5.16,5.19-10.15,6.13l-1.23.23A.977.977,0,0,0,21.03,20ZM23,27V20.98l.41-.08c4.63-.86,6.98-1.3,10.31-5.48,1.17,2.35,3.14,3.77,7.28,5.41V27c0,.26-.02.52-.04.77l-6.8-1.36a11.214,11.214,0,0,0-4.32,0l-6.8,1.36C23.02,27.52,23,27.26,23,27Zm2.77,6.48,4.34-.49-.22-1.98-5.6.62a9.3,9.3,0,0,1-.86-1.9l6.81-1.36a9.065,9.065,0,0,1,3.52,0l6.81,1.36a8.791,8.791,0,0,1-.86,1.9l-5.6-.62-.22,1.98,4.35.49a8.973,8.973,0,0,1-12.47,0Zm2.53,8.47A.987.987,0,0,0,29,41V37.57a10.8,10.8,0,0,0,6,.01V41a.987.987,0,0,0,.7.95l3.04.95a7.011,7.011,0,0,1-11.69,3.06,7.067,7.067,0,0,1-1.77-3.06ZM13,60V51.88a6.964,6.964,0,0,1,4.91-6.68L19,44.86v3.76a2.823,2.823,0,0,1-.47,1.61,8.2,8.2,0,0,0,0,9.54c.04.07.07.15.11.23Zm30.83-1.37A4.61,4.61,0,0,0,43.2,60H20.8a4.61,4.61,0,0,0-.63-1.37,6.216,6.216,0,0,1,0-7.26A4.846,4.846,0,0,0,21,48.62V44.24l2.37-.75a8.984,8.984,0,0,0,17.27.01l2.36.74v4.38a4.791,4.791,0,0,0,.83,2.74,6.232,6.232,0,0,1,0,7.27ZM51,60H45.36c.04-.08.07-.16.12-.24a8.207,8.207,0,0,0-.01-9.53A2.823,2.823,0,0,1,45,48.62V44.86l1.09.34A6.964,6.964,0,0,1,51,51.88Z"></path><circle cx="28" cy="24" r="2"></circle><circle cx="36" cy="24" r="2"></circle></g></svg>