<svg xmlns="http://www.w3.org/2000/svg" viewBox="0 0 64 64" x="0px" y="0px"><g data-name="Process File"><path d="M51.293,7.293a1,1,0,0,1,1.414,0L54,8.586V4H50V8.586Z"></path><circle cx="22" cy="44" r="6"></circle><path d="M33.51,47.37a.987.987,0,0,1,.82-.71L38,46.13V41.87l-3.67-.53a.987.987,0,0,1-.82-.71,12.353,12.353,0,0,0-.98-2.39,1.023,1.023,0,0,1,.07-1.09l2.22-2.96-3.01-3.01L28.84,33.4a1.026,1.026,0,0,1-1.08.08,12.021,12.021,0,0,0-2.39-.99.987.987,0,0,1-.71-.82L24.13,28H19.87l-.53,3.67a.987.987,0,0,1-.71.82,12.021,12.021,0,0,0-2.39.99,1.026,1.026,0,0,1-1.08-.08l-2.97-2.22L9.18,34.19l2.22,2.96a1.023,1.023,0,0,1,.07,1.09,12.353,12.353,0,0,0-.98,2.39.987.987,0,0,1-.82.71L6,41.87v4.26l3.67.53a.987.987,0,0,1,.82.71,12.353,12.353,0,0,0,.98,2.39,1.023,1.023,0,0,1-.07,1.09L9.18,53.81l3.01,3.01,2.97-2.22a1.026,1.026,0,0,1,1.08-.08,11.78,11.78,0,0,0,2.39.99.987.987,0,0,1,.71.82L19.87,60h4.26l.53-3.67a.987.987,0,0,1,.71-.82,11.78,11.78,0,0,0,2.39-.99,1.026,1.026,0,0,1,1.08.08l2.97,2.22,3.01-3.01L32.6,50.85a1.023,1.023,0,0,1-.07-1.09A12.353,12.353,0,0,0,33.51,47.37ZM34,43h2v2H34ZM10,45H8V43h2ZM21,30h2v2H21Zm-9.61,4.81,1.42-1.42,1.41,1.42-1.41,1.41Zm1.42,19.8-1.42-1.42,1.42-1.41,1.41,1.41ZM23,58H21V56h2Zm-1-6a8,8,0,1,1,8-8A8.011,8.011,0,0,1,22,52Zm10.61,1.19-1.42,1.42-1.41-1.42,1.41-1.41ZM31.19,36.22l-1.41-1.41,1.41-1.42,1.42,1.42Z"></path><path d="M57,4H56v7a.987.987,0,0,1-.62.92A.838.838,0,0,1,55,12a1.007,1.007,0,0,1-.71-.29L52,9.41l-2.29,2.3a1,1,0,0,1-1.09.21A.987.987,0,0,1,48,11V4H25a1,1,0,0,0-1,1V26h1a1,1,0,0,1,.99.86l.56,3.9a14.937,14.937,0,0,1,1.6.66l3.15-2.36a1,1,0,0,1,1.31.09l4.24,4.24a1,1,0,0,1,.09,1.31l-2.36,3.15a14.937,14.937,0,0,1,.66,1.6l3.9.56A1,1,0,0,1,40,41v6a1,1,0,0,1-.86.99l-3.9.56a14.937,14.937,0,0,1-.66,1.6L36.72,53H57a1,1,0,0,0,1-1V5A1,1,0,0,0,57,4ZM36,8h4v2H36ZM28,8h6v2H28Zm0,6H44v2H28ZM54,42H42V40H54Zm0-6H42V34H54Zm0-6H42V28H54Zm0-6H28V22H54Z"></path></g></svg>