<svg xmlns="http://www.w3.org/2000/svg" viewBox="0 0 64 64" x="0px" y="0px"><title>Global Networking</title><g data-name="Global Networking"><path d="M61,45H60V12a3,3,0,0,0-3-3H7a3,3,0,0,0-3,3V45H3a1,1,0,0,0-1,1v4a3,3,0,0,0,3,3H59a3,3,0,0,0,3-3V46A1,1,0,0,0,61,45ZM6,12a1,1,0,0,1,1-1H57a1,1,0,0,1,1,1V45H6ZM60,50a1,1,0,0,1-1,1H5a1,1,0,0,1-1-1V47H27v1a1,1,0,0,0,1,1h8a1,1,0,0,0,1-1V47H60Z"></path><path d="M31.95,42h.1a14,14,0,0,0,0-28h-.106a14,14,0,0,0-9.5,24.23q.486.455,1.007.857A13.914,13.914,0,0,0,31.947,42ZM23.312,19.749a17.955,17.955,0,0,0,3.064,1.35A17.682,17.682,0,0,0,25.028,27H20.052A12.033,12.033,0,0,1,23.312,19.749Zm17.376,16.5a17.955,17.955,0,0,0-3.064-1.35A17.663,17.663,0,0,0,38.972,29h4.976A12.033,12.033,0,0,1,40.688,36.251ZM33,36.033a15.856,15.856,0,0,1,1.708.2A15.645,15.645,0,0,1,33,38.555Zm-2,2.522a15.788,15.788,0,0,1-1.708-2.322,15.856,15.856,0,0,1,1.708-.2Zm5.716-1.827a16.039,16.039,0,0,1,2.383.933l-.021.015c-.163.12-.328.237-.5.348-.061.04-.12.084-.182.123-.078.049-.16.092-.24.139-.227.137-.455.273-.692.394-.076.039-.155.071-.233.109-.238.115-.479.226-.726.326-.111.045-.225.084-.338.125-.216.08-.433.156-.654.223-.126.038-.252.073-.379.108-.158.042-.319.078-.479.114A17.68,17.68,0,0,0,36.716,36.728Zm-1.067-2.354A17.917,17.917,0,0,0,33,34.033V29h3.944A15.673,15.673,0,0,1,35.649,34.374ZM33,27V21.969a17.832,17.832,0,0,0,2.649-.342A15.662,15.662,0,0,1,36.944,27Zm-2-7.033a15.856,15.856,0,0,1-1.708-.2A15.645,15.645,0,0,1,31,17.445Zm2,0V17.445a15.788,15.788,0,0,1,1.708,2.322A15.856,15.856,0,0,1,33,19.967Zm-5.716-.7a16.039,16.039,0,0,1-2.383-.933l.021-.015c.163-.12.328-.237.5-.348.061-.04.12-.084.182-.123.078-.049.16-.092.24-.139.227-.137.455-.273.692-.394.076-.039.155-.071.233-.109.238-.115.479-.226.726-.326.111-.045.225-.084.338-.125.216-.08.433-.156.654-.223.126-.038.252-.073.379-.108.158-.042.319-.078.48-.114A17.744,17.744,0,0,0,27.284,19.272Zm1.067,2.355A17.832,17.832,0,0,0,31,21.969V27H27.056A15.662,15.662,0,0,1,28.351,21.627ZM31,29v5.033a18.068,18.068,0,0,0-2.649.34A15.674,15.674,0,0,1,27.056,29Zm-3.715,7.727A17.591,17.591,0,0,0,29.35,39.7c-.116-.026-.232-.054-.347-.084s-.218-.055-.326-.086c-.072-.021-.144-.04-.216-.062-.171-.053-.339-.114-.507-.175-.117-.042-.234-.081-.35-.127-.041-.016-.084-.03-.125-.047-.185-.075-.364-.162-.545-.246-.143-.067-.288-.128-.429-.2-.191-.1-.375-.211-.561-.32-.118-.069-.239-.133-.355-.206-.058-.038-.115-.08-.173-.118-.153-.1-.3-.208-.45-.316l-.065-.046A16.122,16.122,0,0,1,27.285,36.727ZM38.972,27a17.677,17.677,0,0,0-1.348-5.9,17.955,17.955,0,0,0,3.064-1.35A12.039,12.039,0,0,1,43.948,27Zm-2.256-7.728a17.687,17.687,0,0,0-2.066-2.967c.116.026.232.054.347.084s.218.055.326.086c.072.021.144.04.216.062.171.053.339.114.507.175.117.042.234.081.35.127.041.016.084.03.125.047.185.075.364.162.545.246.143.067.288.128.429.2.191.1.375.211.561.32.118.069.239.133.355.206.058.038.115.08.173.118.153.1.3.208.45.316l.065.046A16.039,16.039,0,0,1,36.716,19.272ZM25.028,29a17.637,17.637,0,0,0,1.349,5.9,18.013,18.013,0,0,0-3.065,1.351A12.039,12.039,0,0,1,20.052,29Z"></path><path d="M47,20.015a16.98,16.98,0,0,1-.862,17.429L47.8,38.557A18.977,18.977,0,0,0,48.724,19H50V17H46a1,1,0,0,0-1,1v4h2Z"></path><path d="M17,35.984a16.978,16.978,0,0,1,.862-17.428L16.2,17.444A18.971,18.971,0,0,0,15.857,38H14v2h4a1,1,0,0,0,1-1V35H17Z"></path><path d="M13,13H9a1,1,0,0,0-1,1v4h2V15h3Z"></path><path d="M51,43h4a1,1,0,0,0,1-1V38H54v3H51Z"></path></g></svg>