<svg xmlns="http://www.w3.org/2000/svg" viewBox="0 0 64 64" x="0px" y="0px"><g><path d="M35,60H7a3,3,0,0,1-3-3V7A3,3,0,0,1,7,4h5V6a2,2,0,0,0,2,2H28a2,2,0,0,0,2-2V4h5a3,3,0,0,1,3,3V28h2V7a5.006,5.006,0,0,0-5-5H7A5.006,5.006,0,0,0,2,7V57a5.006,5.006,0,0,0,5,5H35a5.006,5.006,0,0,0,5-5H38A3,3,0,0,1,35,60ZM28,6H14V4H28Z"></path><rect x="51.995" y="50.006" width="2" height="2"></rect><rect x="37.995" y="49.994" width="2" height="2"></rect><path d="M61.665,42.263l-8.991-8a1,1,0,0,0-.664-.253h-3.8A1.024,1.024,0,0,0,47,34.988V42H46V31a1,1,0,0,0-1-1H31a1,1,0,0,0-1,1V48.99a3,3,0,0,0,2.99,3h1.1a5,5,0,0,0,4.9,4h0a5.009,5.009,0,0,0,4.9-4l4.2,0a5.008,5.008,0,0,0,4.9,4h0a5.008,5.008,0,0,0,4.9-4h1.1a3.008,3.008,0,0,0,3.01-3v-6A1,1,0,0,0,61.665,42.263ZM53.007,39.01H55l3.371,3H53ZM32,36h3v1a1,1,0,0,0,1.707.707L38,36.414l1.293,1.293A1,1,0,0,0,41,37V36h3v6H32Zm5-4h2v2.586l-.293-.293a1,1,0,0,0-1.414,0L37,34.586Zm7,2H41V32h3Zm-9-2v2H32V32Zm6.114,21.117a2.977,2.977,0,0,1-2.119.877h0a3,3,0,0,1,0-6h0a3,3,0,0,1,2.117,5.123Zm14,.012A2.979,2.979,0,0,1,53,54.006h0a3,3,0,0,1,0-6h0a3,3,0,0,1,2.117,5.123ZM58.99,50.01h-1.1a5,5,0,0,0-4.895-4h0a5.007,5.007,0,0,0-4.9,4l-4.2,0a5.007,5.007,0,0,0-4.895-4h0a5.009,5.009,0,0,0-4.9,4H32.99a1,1,0,0,1-.99-1V44H48a1,1,0,0,0,1-1V36.01h2.629l1.15,1.023a2,2,0,0,0-1.772,1.972l-.007,3a2,2,0,0,0,2,2h7v5A1.018,1.018,0,0,1,58.99,50.01Z"></path><rect x="20" y="50" width="8" height="2"></rect><rect x="16" y="50" width="2" height="2"></rect><rect x="22" y="46" width="6" height="2"></rect><rect x="24" y="42" width="4" height="2"></rect><rect x="18" y="46" width="2" height="2"></rect><path d="M24,22a9,9,0,1,0-9,9A9.011,9.011,0,0,0,24,22Zm-9,7a7,7,0,1,1,7-7A7.008,7.008,0,0,1,15,29Z"></path><path d="M14,22.586l-2.293-2.293-1.414,1.414,3,3a1,1,0,0,0,1.414,0l5-5-1.414-1.414Z"></path><rect x="26" y="17" width="2" height="2"></rect><rect x="30" y="17" width="4" height="2"></rect><rect x="26" y="21" width="8" height="2"></rect><rect x="26" y="25" width="8" height="2"></rect></g></svg>