<svg xmlns="http://www.w3.org/2000/svg" viewBox="0 0 64 64" x="0px" y="0px"><g><path d="M48.3,39.683l-6.312-1.661A4.99,4.99,0,0,0,39,36.1V34.106A14.029,14.029,0,0,0,45.668,25H46a3.982,3.982,0,0,0,2.969-6.655A2.817,2.817,0,0,0,49,18V13a3,3,0,0,0-3-3H44.63a13.97,13.97,0,0,0-25.26,0H18a3,3,0,0,0-3,3v5a2.817,2.817,0,0,0,.031.345A3.982,3.982,0,0,0,18,25h.332A14.029,14.029,0,0,0,25,34.106V36.1a4.99,4.99,0,0,0-2.992,1.921L15.7,39.683A12.989,12.989,0,0,0,6,52.25V61a1,1,0,0,0,1,1H57a1,1,0,0,0,1-1V52.25A12.989,12.989,0,0,0,48.3,39.683ZM41,41v1.171a3.009,3.009,0,0,0-2,0v-4A3.006,3.006,0,0,1,41,41Zm5-18V19a2,2,0,0,1,0,4Zm0-11a1,1,0,0,1,1,1v4.142A3.939,3.939,0,0,0,46,17V16a13.917,13.917,0,0,0-.59-4ZM18,12h.59A13.917,13.917,0,0,0,18,16v1a3.939,3.939,0,0,0-1,.142V13A1,1,0,0,1,18,12Zm0,11a2,2,0,0,1,0-4v4Zm2-1V16a12,12,0,0,1,24,0v6a12,12,0,0,1-24,0ZM32,36a13.894,13.894,0,0,0,5-.939v6.525l-5,5-5-5V35.061A13.894,13.894,0,0,0,32,36Zm-9,5a3.006,3.006,0,0,1,2-2.829v4a3.009,3.009,0,0,0-2,0ZM56,60H47V53H45v7H19V53H17v7H8V52.25a10.99,10.99,0,0,1,8.2-10.633l4.862-1.279A4.981,4.981,0,0,0,21,41v4a1,1,0,0,0,2,0,1,1,0,0,1,2,0,1,1,0,0,0,2,0v-.586l4.293,4.293a1,1,0,0,0,1.414,0L37,44.414V45a1,1,0,0,0,2,0,1,1,0,0,1,2,0,1,1,0,0,0,2,0V41a5,5,0,0,0-.067-.663l4.864,1.28A10.99,10.99,0,0,1,56,52.25Z"></path><path d="M37.29,17.29a1.576,1.576,0,0,0-.12.15.757.757,0,0,0-.09.18.636.636,0,0,0-.06.18A1.355,1.355,0,0,0,37,18a1,1,0,0,0,.08.38,1.155,1.155,0,0,0,.21.33A1.052,1.052,0,0,0,38,19a1,1,0,0,0,.38-.08.9.9,0,0,0,.54-.54A1,1,0,0,0,39,18a1.052,1.052,0,0,0-.29-.71,1.155,1.155,0,0,0-.33-.21A1.041,1.041,0,0,0,37.29,17.29Z"></path><path d="M25.29,17.29a1,1,0,1,0,1.42,0A1.052,1.052,0,0,0,25.29,17.29Z"></path><path d="M39,28V26a5.009,5.009,0,0,0-4-4.9V18H33v4a1,1,0,0,1-2,0V18H29v3.1A5.009,5.009,0,0,0,25,26v2a1,1,0,0,0,1,1H38A1,1,0,0,0,39,28Zm-2-1H27V26a3,3,0,0,1,2.22-2.884,2.993,2.993,0,0,0,5.56,0A3,3,0,0,1,37,26Z"></path><rect x="24" y="13" width="16" height="2"></rect><rect x="28" y="10" width="8" height="2"></rect></g></svg>