<svg xmlns="http://www.w3.org/2000/svg" viewBox="0 0 64 64" x="0px" y="0px"><g data-name="Cactus"><rect x="18.979" y="6.98" width="2" height="4" transform="translate(-0.497 16.759) rotate(-45.005)"></rect><rect x="13" y="20" width="4" height="2"></rect><rect x="47" y="20" width="4" height="2"></rect><rect x="31" y="2" width="2" height="4"></rect><rect x="13" y="32" width="38" height="2"></rect><path d="M15,53a7.008,7.008,0,0,0,7,7H42a7.008,7.008,0,0,0,7-7V36H15ZM45,38h2v2H45Zm0,3h2v2H45Zm-3-3h2v2H42Z"></path><path d="M26.122,16.465l1.414,1.414L25.019,20.4A14.9,14.9,0,0,0,28.837,30h6.345A14.93,14.93,0,0,0,39,20c0-.207-.022-.41-.03-.616l-2.506-2.5,1.414-1.414.584.583a14.947,14.947,0,0,0-3.851-6.662A15.307,15.307,0,0,0,32.02,7.327a15.263,15.263,0,0,0-2.636,2.064,14.915,14.915,0,0,0-4.139,7.95Z"></path><path d="M40.707,16.88l1.415-1.415,1.414,1.414-2.563,2.562c.006.187.027.371.027.559a16.9,16.9,0,0,1-3.27,10h4.985A14,14,0,0,0,36.769,7.83c-.435-.157-.876-.284-1.322-.4.194.176.389.35.576.536A16.935,16.935,0,0,1,40.707,16.88Z"></path><path d="M26.27,30a16.88,16.88,0,0,1-3.249-9.565l-2.557-2.556,1.414-1.414,1.287,1.286a16.9,16.9,0,0,1,4.807-9.777c.188-.187.383-.361.578-.538-.079.02-.159.034-.238.056q-.548.147-1.083.339A14,14,0,0,0,21.285,30Z"></path><path d="M43,11h4V9H45.414l.728-.728L44.728,6.858,44,7.586V6H42v4A1,1,0,0,0,43,11Z"></path></g></svg>