<svg xmlns="http://www.w3.org/2000/svg" viewBox="0 0 64 64" x="0px" y="0px"><title>Wine</title><g><path d="M45,60H33V39.969C45.006,39.331,53,27.28,53,16a22.5,22.5,0,0,0-.218-2.962c0-.013.008-.024.008-.038a.918.918,0,0,0-.037-.182,19.281,19.281,0,0,0-4.7-10.512A1,1,0,0,0,47.33,2H16.67a1,1,0,0,0-.72.306,19.281,19.281,0,0,0-4.7,10.512A.918.918,0,0,0,11.21,13c0,.014.007.025.008.038A22.5,22.5,0,0,0,11,16c0,11.28,7.994,23.331,20,23.969V60H19a1,1,0,0,0,0,2H45a1,1,0,0,0,0-2ZM17.105,4H46.9a17.023,17.023,0,0,1,3.7,8H17.5a13.74,13.74,0,0,1,1.891-4.436,1,1,0,1,0-1.651-1.128A16.037,16.037,0,0,0,15.44,12H13.405A17.023,17.023,0,0,1,17.105,4ZM13,16c0-.67.042-1.337.107-2h2.014A18.618,18.618,0,0,0,15,16a1,1,0,0,0,2,0,16.514,16.514,0,0,1,.13-2H50.893c.065.663.107,1.33.107,2,0,10.625-7.635,22-19,22S13,26.625,13,16Z"></path><path d="M15.62,18.08a1.032,1.032,0,0,0-.33.21A1.047,1.047,0,0,0,15,19a.96.96,0,0,0,.62.92A1,1,0,0,0,16,20a1,1,0,0,0,.71-1.71A1,1,0,0,0,15.62,18.08Z"></path><path d="M28,30H27V29a1,1,0,0,0-2,0v1H24a1,1,0,0,0,0,2h1v1a1,1,0,0,0,2,0V32h1a1,1,0,0,0,0-2Z"></path><path d="M30.71,27.29a1.047,1.047,0,0,0-1.42,0,1.155,1.155,0,0,0-.21.33A.838.838,0,0,0,29,28a1.355,1.355,0,0,0,.02.2.636.636,0,0,0,.06.18.757.757,0,0,0,.09.18,1.576,1.576,0,0,0,.12.15,1.014,1.014,0,0,0,1.42,0l.12-.15a.8.8,0,0,0,.09-.18.6.6,0,0,0,.059-.18A1.234,1.234,0,0,0,31,28a1,1,0,0,0-.08-.38A1.155,1.155,0,0,0,30.71,27.29Z"></path><path d="M45.439,22.83a.782.782,0,0,0,.181.09.636.636,0,0,0,.18.06A1.355,1.355,0,0,0,46,23a1.2,1.2,0,0,0,.189-.02.609.609,0,0,0,.191-.06.776.776,0,0,0,.18-.09l.15-.12A1.052,1.052,0,0,0,47,22a1,1,0,0,0-.08-.38,1.032,1.032,0,0,0-.21-.33,1.712,1.712,0,0,0-.15-.12.776.776,0,0,0-.18-.09.609.609,0,0,0-.191-.06.852.852,0,0,0-.389,0,.636.636,0,0,0-.18.06.782.782,0,0,0-.181.09,1.7,1.7,0,0,0-.149.12,1.032,1.032,0,0,0-.21.33A.838.838,0,0,0,45,22a1.047,1.047,0,0,0,.29.71Z"></path><path d="M42.29,18.71a1.014,1.014,0,0,0,1.42,0,1.155,1.155,0,0,0,.21-.33.942.942,0,0,0,0-.76,1.032,1.032,0,0,0-.21-.33,1.047,1.047,0,0,0-1.42,0,1.032,1.032,0,0,0-.21.33.943.943,0,0,0,0,.76A1.155,1.155,0,0,0,42.29,18.71Z"></path></g></svg>