<svg xmlns="http://www.w3.org/2000/svg" viewBox="0 0 64 64" x="0px" y="0px"><g data-name="Cloud-Image-Cloud Computing-Storage-Data"><circle cx="30" cy="42" r="1"></circle><path d="M27.41,57H46V54.41l-3.5-3.5-1.79,1.8a1.014,1.014,0,0,1-1.42,0L38,51.41l-1.29,1.3a1.008,1.008,0,0,1-1.42,0l-1.79-1.8Z"></path><path d="M37.29,49.29a1.008,1.008,0,0,1,1.42,0L40,50.59l1.09-1.09L38,46.41,34.91,49.5,36,50.59Z"></path><path d="M26.6,54.8a1.008,1.008,0,0,1-1.31-.09L24,53.41l-1.29,1.3a1,1,0,0,1-1.31.09l-1.6-1.19L18,55.41V57h6.59l2.74-2.75Z"></path><path d="M50.83,23.17a1.007,1.007,0,0,1-.84-.99c0-.03.01-.14.01-.17a8.008,8.008,0,0,0-10.35-7.66.984.984,0,0,1-1.18-.48A13,13,0,0,0,14,20a13.276,13.276,0,0,0,.17,2,1.021,1.021,0,0,1-.18.74,1,1,0,0,1-.66.4A10.993,10.993,0,0,0,15,45h1V36a1,1,0,0,1,1-1H47a1,1,0,0,1,1,1v9h1a10.991,10.991,0,0,0,1.83-21.83ZM27,12a8.009,8.009,0,0,0-8,8H17A10.011,10.011,0,0,1,27,10ZM50.142,41.919l-.284-1.981A6.022,6.022,0,0,0,55,34h2A8.035,8.035,0,0,1,50.142,41.919Z"></path><path d="M23.29,51.29a1.008,1.008,0,0,1,1.42,0l1.39,1.39.67-.5L24,49.41l-2.77,2.77.67.5Z"></path><path d="M46,37H18V52.59l5.29-5.3a1.008,1.008,0,0,1,1.42,0l4.79,4.8,7.79-7.8a1.008,1.008,0,0,1,1.42,0L46,51.59ZM26,45H20V43h6Zm4,0a3,3,0,1,1,3-3A3,3,0,0,1,30,45Zm6,0H34V43h2Z"></path></g></svg>