<svg xmlns="http://www.w3.org/2000/svg" viewBox="0 0 64 64" x="0px" y="0px"><g><path d="M58,4H14V8H47a4.995,4.995,0,0,1,5,5v5a3,3,0,0,0,6,0Z"></path><path d="M19,26a7,7,0,1,0,7,7A7.009,7.009,0,0,0,19,26Zm-1,6h2a3,3,0,0,1,0,6v1H18V38a3,3,0,0,1-3-3h2a1,1,0,0,0,1,1h2a1,1,0,0,0,0-2H18a3,3,0,0,1,0-6V27h2v1a3,3,0,0,1,3,3H21a1,1,0,0,0-1-1H18a1,1,0,0,0,0,2Z"></path><path d="M49.118,10.872A3,3,0,0,0,44,13v8h7a4.973,4.973,0,0,1-1-3V13A3.018,3.018,0,0,0,49.118,10.872Z"></path><path d="M9,10a3,3,0,0,0-3,3V46H30V39a5,5,0,0,1,10,0v7h2V13a4.948,4.948,0,0,1,1.026-3Zm1,4h4v2H10Zm9,28a9,9,0,1,1,9-9A9.01,9.01,0,0,1,19,42ZM38,20H10V18H38Zm0-4H16V14H38Z"></path><path d="M32,39v8a1,1,0,0,1-1,1H14v5.343a2.98,2.98,0,0,0,.879,2.122L19.414,60H34.382L38,52.764V39a3,3,0,0,0-6,0Z"></path></g></svg>