<svg xmlns="http://www.w3.org/2000/svg" viewBox="0 0 64 64" x="0px" y="0px"><g><path d="M42.958,45.334a3.061,3.061,0,0,0-.661.69,4.77,4.77,0,0,0,.661.642A3.934,3.934,0,0,1,44.1,48.028a4.076,4.076,0,0,1,.167,1.818,3.236,3.236,0,0,0,.018.924c.078.009.57-.021.866-.039.212-.013.436-.027.661-.027a3.012,3.012,0,0,1,1.158.194,3.934,3.934,0,0,1,1.362,1.144,3.081,3.081,0,0,0,.689.661,4.707,4.707,0,0,0,.643-.661A3.934,3.934,0,0,1,51.028,50.9a4.061,4.061,0,0,1,1.819-.167,3.185,3.185,0,0,0,.923-.019c.009-.079-.021-.572-.039-.866a4.076,4.076,0,0,1,.167-1.818,3.934,3.934,0,0,1,1.144-1.362A3.474,3.474,0,0,0,55.693,46a3.474,3.474,0,0,0-.651-.666A3.934,3.934,0,0,1,53.9,43.972a4.076,4.076,0,0,1-.167-1.818,3.236,3.236,0,0,0-.018-.924c-.08-.012-.571.02-.866.039a4.065,4.065,0,0,1-1.819-.167,3.934,3.934,0,0,1-1.362-1.144,3.081,3.081,0,0,0-.689-.661,4.707,4.707,0,0,0-.643.661A3.934,3.934,0,0,1,46.972,41.1a4.061,4.061,0,0,1-1.819.167,3.185,3.185,0,0,0-.923.019c-.009.079.021.572.039.866a4.076,4.076,0,0,1-.167,1.818A3.934,3.934,0,0,1,42.958,45.334ZM49,42a4,4,0,1,1-4,4A4,4,0,0,1,49,42Z"></path><path d="M51.172,53.358A3,3,0,0,1,49,54.7a3,3,0,0,1-2.172-1.342,3.255,3.255,0,0,0-.622-.612A.75.75,0,0,0,46,52.711V59l2.4-1.8a1,1,0,0,1,1.2,0L52,59V52.711a.75.75,0,0,0-.206.035A3.255,3.255,0,0,0,51.172,53.358Z"></path><path d="M33.17,30H45V28H36A3.014,3.014,0,0,0,33.17,30Z"></path><path d="M55.33,36H8.67L4.5,46H38v2H4v3a1,1,0,0,0,1,1H42.72a3.168,3.168,0,0,1-.45-2.28,3.055,3.055,0,0,0-.02-.93,3.438,3.438,0,0,0-.61-.62A2.984,2.984,0,0,1,40.3,46a2.984,2.984,0,0,1,1.34-2.17,3.438,3.438,0,0,0,.61-.62,3.055,3.055,0,0,0,.02-.93,2.973,2.973,0,0,1,.58-2.43,2.965,2.965,0,0,1,2.43-.58,3.069,3.069,0,0,0,.93-.02,3.438,3.438,0,0,0,.62-.61A2.984,2.984,0,0,1,49,37.3a2.984,2.984,0,0,1,2.17,1.34,3.438,3.438,0,0,0,.62.61,3.055,3.055,0,0,0,.93.02,2.965,2.965,0,0,1,2.43.58,2.973,2.973,0,0,1,.58,2.43,3.055,3.055,0,0,0,.02.93,3.438,3.438,0,0,0,.61.62A2.984,2.984,0,0,1,57.7,46a2.984,2.984,0,0,1-1.34,2.17,3.438,3.438,0,0,0-.61.62,3.055,3.055,0,0,0-.02.93A3.168,3.168,0,0,1,55.28,52H59a1,1,0,0,0,1-1V47.2ZM35,38h2v2H35Zm-4,0h2v2H31Zm-4,0h2v2H27Zm-8,0h2v2H19Zm-7,6H10V42h2Zm1-4H11V38h2Zm3,4H14V42h2Zm1-4H15V38h2Zm5,4H18V42h4Zm1-6h2v2H23Zm17,6H24V42H40Zm1-4H39V38h2Z"></path><path d="M28,8H19V26h9a4.924,4.924,0,0,1,3,1.03V11A3.009,3.009,0,0,0,28,8Zm1,16H21V22h8Zm0-4H21V18h8Zm0-4H21V14h8Zm0-4H21V10h8Z"></path><path d="M28,28H19v2H30.83A3.014,3.014,0,0,0,28,28Z"></path><rect x="15" y="12" width="2" height="18"></rect><rect x="47" y="12" width="2" height="18"></rect><path d="M55,5a1,1,0,0,0-1-1H10A1,1,0,0,0,9,5V34H55ZM51,31a1,1,0,0,1-1,1H14a1,1,0,0,1-1-1V11a1,1,0,0,1,1-1h3V7a1,1,0,0,1,1-1H28a4.994,4.994,0,0,1,4,2.03A4.994,4.994,0,0,1,36,6H46a1,1,0,0,1,1,1v3h3a1,1,0,0,1,1,1Z"></path><circle cx="49" cy="46" r="2"></circle><path d="M33,11V27.03A4.924,4.924,0,0,1,36,26h9V8H36A3.009,3.009,0,0,0,33,11ZM43,24H35V22h8Zm0-4H35V18h8Zm0-4H35V14h8Zm0-4H35V10h8Z"></path></g></svg>