<svg xmlns="http://www.w3.org/2000/svg" viewBox="0 0 64 64" x="0px" y="0px"><g><path d="M4.618,56H59.382l-5-10H9.618ZM54,54H52V52h2Zm-3-6h2v2H51Zm-1,6H48V52h2Zm-3-6h2v2H47Zm-4,0h2v2H43Zm-4,0h2v2H39Zm-4,0h2v2H35Zm-4,0h2v2H31Zm-4,0h2v2H27Zm-4,0h2v2H23Zm-4,0h2v2H19Zm-1,4H46v2H18Zm-3-4h2v2H15Zm-1,4h2v2H14Zm-3-4h2v2H11Zm-1,4h2v2H10Z"></path><rect x="4" y="58" width="56" height="2"></rect><path d="M27.14,35.99l-2.679.379a10.859,10.859,0,0,1-.682,1.64L25.275,40H30V12H10V22.78c.21-.083.415-.173.631-.242l.379-2.678A1,1,0,0,1,12,19h4a1,1,0,0,1,.99.86l.379,2.679a10.757,10.757,0,0,1,1.64.682L21.18,21.59a1,1,0,0,1,1.307.093l2.83,2.83a1,1,0,0,1,.093,1.307l-1.631,2.171a10.859,10.859,0,0,1,.682,1.64l2.679.379A1,1,0,0,1,28,31v4A1,1,0,0,1,27.14,35.99Z"></path><circle cx="14" cy="33" r="4"></circle><path d="M11,40H22.773l-.983-1.31a1,1,0,0,1-.058-1.115,8.773,8.773,0,0,0,.979-2.352,1,1,0,0,1,.829-.744L26,34.132V31.868l-2.46-.347a1,1,0,0,1-.829-.744,8.773,8.773,0,0,0-.979-2.352,1,1,0,0,1,.058-1.115l1.5-2-1.6-1.6-2,1.5a1,1,0,0,1-1.115.058,8.722,8.722,0,0,0-2.352-.979,1,1,0,0,1-.744-.829L15.131,21H12.869l-.348,2.46a1,1,0,0,1-.746.83A8.46,8.46,0,0,0,10,24.976V28.54a6,6,0,1,1,0,8.92V39A1,1,0,0,0,11,40Z"></path><path d="M54,39V5a1,1,0,0,0-1-1H32V40H53A1,1,0,0,0,54,39ZM43.051,8.684l1.9.632-2,6-1.9-.632Zm-7.758,2.609,3-3,1.414,1.414L37.414,12l2.293,2.293-1.414,1.414-3-3A1,1,0,0,1,35.293,11.293ZM43,25H37V23h6Zm4,2v2H41V27ZM35,19h4v2H35Zm0,8h4v2H35Zm10,6H37V31h8Zm4,0H47V31h2Zm0-8H45V23h4Zm0-4H41V19h8Zm1.707-8.293-3,3-1.414-1.414L48.586,12,46.293,9.707l1.414-1.414,3,3A1,1,0,0,1,50.707,12.707Z"></path><path d="M10,5v5H30V4H11A1,1,0,0,0,10,5ZM20,6h2V8H20ZM16,6h2V8H16ZM12,6h2V8H12Z"></path></g></svg>