<svg xmlns="http://www.w3.org/2000/svg" viewBox="0 0 64 64" x="0px" y="0px"><g><path d="M35,20a2.015,2.015,0,0,0,2-2,2.006,2.006,0,0,0-2-2Z"></path><path d="M11,18a2.015,2.015,0,0,0,2,2V16A2.006,2.006,0,0,0,11,18Z"></path><path d="M27,35V31.57a10.68,10.68,0,0,1-6,0V35c0,.25,1.06,1,3,1S27,35.25,27,35Z"></path><path d="M15,21a9,9,0,0,0,18,0V13a1,1,0,0,0-1-1H16a1,1,0,0,0-1,1Zm13-5a2,2,0,1,1-2,2A2,2,0,0,1,28,16Zm-2.016,7.25,1.323,1.5a5,5,0,0,1-6.614,0l1.323-1.5A3.076,3.076,0,0,0,25.984,23.25ZM20,16a2,2,0,1,1-2,2A2,2,0,0,1,20,16Z"></path><path d="M28.89,10H32a3,3,0,0,1,1,.18V7H30.71A7.065,7.065,0,0,1,28.89,10Z"></path><path d="M23,47v2a1,1,0,0,1-1,1H19v2h3a1,1,0,0,1,1,1v4h2V53a1,1,0,0,1,1-1h3V50H26a1,1,0,0,1-1-1V47Z"></path><path d="M30.4,36.8l-1.82-.57C27.83,37.29,26.11,38,24,38s-3.83-.71-4.58-1.77l-1.82.57a6.976,6.976,0,0,0,12.8,0Z"></path><path d="M59,42H52a3.009,3.009,0,0,0-3,3V57.03A4.924,4.924,0,0,1,52,56h7Zm-2,7H55v4H53V49H51V47h2V45h2v2h2Z"></path><path d="M5,60h6V46h2V60H35V41a1,1,0,0,1,1-1h3.77a6.8,6.8,0,0,0-1.68-.79L32.32,37.4A9.037,9.037,0,0,1,25,42.94V45h1a1,1,0,0,1,1,1v2h3a1,1,0,0,1,1,1v4a1,1,0,0,1-1,1H27v4a1,1,0,0,1-1,1H22a1,1,0,0,1-1-1V54H18a1,1,0,0,1-1-1V49a1,1,0,0,1,1-1h3V46a1,1,0,0,1,1-1h1V42.94a9.037,9.037,0,0,1-7.32-5.54L9.91,39.2A6.964,6.964,0,0,0,5,45.88Z"></path><path d="M44,42H37V56h7a4.924,4.924,0,0,1,3,1.03V45A3.009,3.009,0,0,0,44,42Zm1,12H39V52h6Zm0-4H39V48h6Zm0-4H39V44h6Z"></path><path d="M49.17,60H59V58H52A3.014,3.014,0,0,0,49.17,60Z"></path><path d="M44,58H37v2h9.83A3.014,3.014,0,0,0,44,58Z"></path><path d="M15,10.18A3,3,0,0,1,16,10h8a5,5,0,0,0,5-5V4H20a5,5,0,0,0-5,5Z"></path></g></svg>