<svg xmlns="http://www.w3.org/2000/svg" viewBox="0 0 64 64" x="0px" y="0px"><g><rect x="26" y="31" width="12" height="2"></rect><path d="M49,12H15V44.66l2.437-4.222a4,4,0,0,1,6.929,4L21.108,50.08,21.877,52H49ZM19,23H17V21h2Zm0-7v3H17V15a1,1,0,0,1,1-1h4v2ZM42,30a1,1,0,0,1-1,1H40v2h1a1,1,0,0,1,1,1v3a2,2,0,0,1-2,2H24a2,2,0,0,1-2-2V34a1,1,0,0,1,1-1h1V31H23a1,1,0,0,1-1-1V28a5.006,5.006,0,0,1,5-5H37a5.006,5.006,0,0,1,5,5Z"></path><path d="M37,25v2H35V25H33v2H31V25H29v2H27V25a3,3,0,0,0-3,3v1H40V28A3,3,0,0,0,37,25Z"></path><rect x="24" y="35" width="16" height="2"></rect><path d="M21,58.23v-1.3a8.975,8.975,0,0,0-.644-3.343l-1.285-3.211a1,1,0,0,1,.063-.872l3.5-6.062a2,2,0,1,0-3.464-2l-5,8.66-1.733-1L13,48.124V35.151l-4.506,7.8a14.9,14.9,0,0,0-1.92,9.16L7.562,61H20.555A8.923,8.923,0,0,0,21,58.23Z"></path><path d="M49,54H22.6a10.96,10.96,0,0,1,.4,2.926v1.3A10.985,10.985,0,0,1,22.846,60H44a5.006,5.006,0,0,0,5-5ZM34,58H30V56h4Z"></path><path d="M49,9a5.006,5.006,0,0,0-5-5H20a5.006,5.006,0,0,0-5,5v1H49ZM27,8H25V6h2Zm8,0H29V6h6Z"></path></g></svg>