<svg xmlns="http://www.w3.org/2000/svg" viewBox="0 0 64 64" x="0px" y="0px"><g><rect x="34" y="43" width="2" height="4"></rect><path d="M52.646,46.553c.035.053.065.109.1.163.125.2.243.4.35.6.035.067.066.136.1.2q.145.3.267.612c.027.072.054.144.079.217.074.209.138.422.194.639.02.075.041.149.058.225.051.221.09.447.122.675.01.071.024.141.032.212A8.046,8.046,0,0,1,54,51h5a1,1,0,0,0,1-1V44a5.006,5.006,0,0,0-5-5H13a4,4,0,0,0-4,4v4.084l.027.007c.043.007.083.021.126.03a5.9,5.9,0,0,1,.78.209c.1.033.187.071.28.109a6,6,0,0,1,.587.271c.09.048.179.095.267.147a5.9,5.9,0,0,1,.6.414c.05.039.1.072.153.112a5.97,5.97,0,0,1,.657.635c.054.061.1.127.152.189a6.135,6.135,0,0,1,.406.553c.057.088.109.177.162.268a5.805,5.805,0,0,1,.294.591c.039.089.081.175.115.266.015.04.036.075.05.115H38a7.911,7.911,0,0,1,.086-1.107c.016-.123.034-.245.056-.366.041-.221.094-.438.154-.652A7.718,7.718,0,0,1,43.429,43.4a8.747,8.747,0,0,1,1.254-.284c.2-.033.4-.063.6-.082.094-.008.186-.009.279-.014.146-.008.291-.022.439-.022.064,0,.126.008.189.01.106,0,.21.009.315.016.192.012.383.029.571.055.114.015.227.032.34.052.174.031.345.07.516.112.12.03.24.058.359.093.161.048.317.107.474.165q.3.109.588.243c.161.075.323.148.478.233.135.074.264.159.4.241.113.07.226.14.335.216.056.039.116.07.171.111.075.055.14.12.213.177.1.077.193.157.287.238.12.1.239.209.352.32s.192.2.286.3.193.2.283.311Q52.416,46.21,52.646,46.553ZM22,48a1,1,0,0,1-1,1H17a1,1,0,0,1-1-1V42a1,1,0,0,1,1-1h4a1,1,0,0,1,1,1Zm8,0a1,1,0,0,1-1,1H25a1,1,0,0,1-1-1V42a1,1,0,0,1,1-1h4a1,1,0,0,1,1,1Zm8,0a1,1,0,0,1-1,1H33a1,1,0,0,1-1-1V42a1,1,0,0,1,1-1h4a1,1,0,0,1,1,1Z"></path><rect x="26" y="43" width="2" height="4"></rect><circle cx="46" cy="51" r="1"></circle><rect x="18" y="43" width="2" height="4"></rect><path d="M52,51a6.033,6.033,0,0,0-.04-.673c-.006-.054-.017-.106-.025-.159-.024-.17-.052-.34-.091-.507-.013-.056-.029-.112-.043-.168-.042-.162-.09-.321-.146-.479-.019-.055-.039-.109-.06-.164-.059-.154-.126-.306-.2-.455-.025-.053-.049-.106-.075-.158-.079-.151-.167-.3-.258-.443-.027-.043-.051-.089-.08-.132a5.983,5.983,0,0,0-.366-.489c-.073-.087-.152-.169-.229-.252s-.127-.139-.2-.2c-.089-.088-.183-.171-.279-.253-.064-.056-.129-.11-.2-.163-.1-.079-.2-.155-.3-.227-.078-.054-.158-.1-.239-.154-.1-.063-.2-.128-.3-.186a5.828,5.828,0,0,0-.54-.261c-.067-.029-.137-.05-.205-.076-.143-.054-.287-.106-.434-.149-.066-.02-.134-.035-.2-.052-.157-.04-.315-.075-.475-.1-.059-.01-.117-.019-.176-.027-.176-.025-.353-.041-.532-.05-.049,0-.1-.007-.146-.008-.192-.005-.385,0-.578.013-.041,0-.083,0-.123.006-.164.014-.328.041-.492.068a6.009,6.009,0,0,0-4.775,4.421c-.034.141-.069.281-.094.426-.017.094-.031.19-.044.286a6.615,6.615,0,0,0-.053.838c0,.092,0,.178.009.261,0,.044,0,.093.007.135a3.353,3.353,0,0,0,.045.353,5.991,5.991,0,0,0,11.867.045A4.672,4.672,0,0,0,52,51Zm-6,3a3,3,0,1,1,3-3A3,3,0,0,1,46,54Z"></path><path d="M14,37H38V32a1,1,0,0,0-1-1H15a1,1,0,0,0-1,1Z"></path><path d="M11.923,52.213A4,4,0,1,0,11.2,55.4,3.924,3.924,0,0,0,12,53,3.737,3.737,0,0,0,11.923,52.213ZM8,55a2,2,0,1,1,2-2A2,2,0,0,1,8,55Z"></path><path d="M49.659,9.8,44.22,37h1.954l4.844-25.188A1,1,0,0,1,52,11h8V9H50.64A1,1,0,0,0,49.659,9.8Z"></path><path d="M38.478,53.656c-.049-.14-.1-.278-.139-.42-.023-.08-.058-.156-.078-.236H14a6.1,6.1,0,0,1-.083,1c-.018.11-.055.214-.079.322a5.894,5.894,0,0,1-.164.634c0,.015-.007.031-.012.046H39.078c-.041-.071-.069-.148-.108-.22-.07-.132-.133-.265-.2-.4C38.663,54.143,38.565,53.9,38.478,53.656Z"></path></g></svg>