<svg xmlns="http://www.w3.org/2000/svg" viewBox="0 0 64 64" x="0px" y="0px"><title>Folder</title><g><path d="M23,34a3.028,3.028,0,0,0,.567-.057,1.114,1.114,0,0,0,.338.057H41a3,3,0,0,0,3-3V18a1,1,0,0,0-1-1H41V15a1,1,0,0,0-1-1H34.414l-1.707-1.707A1,1,0,0,0,32,12H21a1,1,0,0,0-1,1V31A3,3,0,0,0,23,34Zm19-3a1,1,0,0,1-1,1H25.825c.025-.068.037-.141.056-.21s.048-.155.063-.237A2.905,2.905,0,0,0,26,31V19H42ZM22,14h9.586l1.707,1.707A1,1,0,0,0,34,16h5v1H25a1,1,0,0,0-1,1V31a.986.986,0,0,1-.069.34.972.972,0,0,1-.047.1,1.024,1.024,0,0,1-.133.2c-.024.027-.043.057-.07.082A.994.994,0,0,1,22,31Z"></path><path d="M59,2H5A3,3,0,0,0,2,5V45a3,3,0,0,0,3,3H22.9l-.8,8H19a1,1,0,0,0-1,1v3H16v2H48V60H46V57a1,1,0,0,0-1-1H41.905l-.8-8H59a3,3,0,0,0,3-3V5A3,3,0,0,0,59,2ZM44,58v2H20V58ZM24.105,56l.8-8H39.1l.8,8ZM60,45a1,1,0,0,1-1,1H5a1,1,0,0,1-1-1V5A1,1,0,0,1,5,4H59a1,1,0,0,1,1,1Z"></path><path d="M56,6H8A2,2,0,0,0,6,8V39a1,1,0,0,0,1,1H57a1,1,0,0,0,1-1V8A2,2,0,0,0,56,6Zm0,32H8V8H56Z"></path><rect x="31" y="42" width="2" height="2"></rect></g></svg>