<svg xmlns="http://www.w3.org/2000/svg" viewBox="0 0 64 64" x="0px" y="0px"><g><path d="M36,5.35A6,6,0,0,1,38,5a6.058,6.058,0,0,1,1,.093V5a1,1,0,0,0-1-1H37a1,1,0,0,0-1,1Z"></path><circle cx="40" cy="21" r="1"></circle><path d="M57,22V19a3.009,3.009,0,0,0-3-3H45.61l.53,1.64A6.935,6.935,0,0,1,47,21a7,7,0,0,1-13.95.8,2.856,2.856,0,0,1-2.1,0A7,7,0,0,1,17,21a6.935,6.935,0,0,1,.86-3.36L18.39,16H10a3.009,3.009,0,0,0-3,3v3h8v2H7V54H57V24H49V22ZM32,53A13,13,0,1,1,45,40,13.012,13.012,0,0,1,32,53Z"></path><path d="M35,9v7.111a6.956,6.956,0,0,1,8.091-1.382L41.235,9.007a1.925,1.925,0,0,0-.523-.946,4,4,0,0,0-5.77.362A3.043,3.043,0,0,1,35,9Z"></path><path d="M32,29A11,11,0,1,0,43,40,11.013,11.013,0,0,0,32,29Zm-4,4a3,3,0,1,1-3,3A3,3,0,0,1,28,33ZM26.707,46.707l-1.414-1.414,12-12,1.414,1.414ZM36,47a3,3,0,1,1,3-3A3,3,0,0,1,36,47Z"></path><circle cx="36" cy="44" r="1"></circle><path d="M4,56v3a1,1,0,0,0,1,1H59a1,1,0,0,0,1-1V56H38v1a2,2,0,0,1-2,2H28a2,2,0,0,1-2-2V56Z"></path><circle cx="28" cy="36" r="1"></circle><rect x="28" y="56" width="8" height="1"></rect><circle cx="24" cy="21" r="1"></circle><path d="M19,21a5,5,0,1,0,5-5A5.006,5.006,0,0,0,19,21Zm8,0a3,3,0,1,1-3-3A3,3,0,0,1,27,21Z"></path><path d="M25,5.093A6.058,6.058,0,0,1,26,5a6,6,0,0,1,2,.35V5a1,1,0,0,0-1-1H26a1,1,0,0,0-1,1Z"></path><path d="M29,9a3.043,3.043,0,0,1,.058-.577,4,4,0,0,0-5.77-.361,1.85,1.85,0,0,0-.509.894L20.908,14.73A6.954,6.954,0,0,1,29,16.111Z"></path><path d="M33,9a1,1,0,0,0-2,0v7.184a2.809,2.809,0,0,1,2,0Z"></path><circle cx="32" cy="19" r="1"></circle><path d="M40,26a5,5,0,1,0-5-5A5.006,5.006,0,0,0,40,26Zm0-8a3,3,0,1,1-3,3A3,3,0,0,1,40,18Z"></path></g></svg>