<svg xmlns="http://www.w3.org/2000/svg" viewBox="0 0 64 64" x="0px" y="0px"><g><path d="M58.13,29.45l-4.68-2.34a.956.956,0,0,0-.9,0l-4.68,2.34A6.95,6.95,0,0,0,44,35.71V42a3.009,3.009,0,0,0,3,3h3V59a3,3,0,0,0,6,0V45h3a3.009,3.009,0,0,0,3-3V35.71A6.95,6.95,0,0,0,58.13,29.45ZM54,59a1,1,0,0,1-2,0V49h2Zm0-12H52V45h2Zm6-5a1,1,0,0,1-1,1H54V34H52v9H47a1,1,0,0,1-1-1V35.71a4.968,4.968,0,0,1,2.76-4.47L53,29.12l4.24,2.12A4.968,4.968,0,0,1,60,35.71Z"></path><path d="M38.69,40.3l-1.71-.54a2.978,2.978,0,0,0-5.29-1.65L29,37.26v-1.4A4.231,4.231,0,0,0,30,36a3.979,3.979,0,0,0,3.48-2.04,4,4,0,0,0,4.04-5.86A3.987,3.987,0,0,0,39,25a5.629,5.629,0,0,0-.05-.59C42.86,22.75,45,20.49,45,18c0-3.15-3.59-5.87-9.14-7.47C35,5.7,29.95,2,24,2S13,5.7,12.14,10.53C6.59,12.13,3,14.85,3,18c0,2.49,2.14,4.75,6.05,6.41A5.629,5.629,0,0,0,9,25a3.987,3.987,0,0,0,1.48,3.1,4,4,0,0,0,4.04,5.86A3.979,3.979,0,0,0,18,36a4.231,4.231,0,0,0,1-.14v1.4l-2.69.85a2.978,2.978,0,0,0-5.29,1.65l-1.71.53A8.963,8.963,0,0,0,3,48.88V61a1,1,0,0,0,1,1H44a1,1,0,0,0,1-1V48.88A8.941,8.941,0,0,0,38.69,40.3ZM33,40a1,1,0,0,1,2,0V50a1,1,0,0,1-2,0Zm2.7-13.13a1,1,0,0,0-.33,1.68A1.965,1.965,0,0,1,36,30a2,2,0,0,1-2.73,1.86,1.016,1.016,0,0,0-.82.02,1.053,1.053,0,0,0-.53.64A1.99,1.99,0,0,1,30,34a2.05,2.05,0,0,1-.94-.24A11.042,11.042,0,0,0,34.95,25H35a3.961,3.961,0,0,0,1.92-.51A1.7,1.7,0,0,1,37,25,1.991,1.991,0,0,1,35.7,26.87Zm.71-4.46A1.983,1.983,0,0,1,35,23V19a2.006,2.006,0,0,1,2,2A1.983,1.983,0,0,1,36.41,22.41ZM24,4c4.63,0,8.59,2.57,9.69,5.99A45.827,45.827,0,0,0,24,9a45.8,45.8,0,0,0-9.68.99C15.45,6.54,19.4,4,24,4ZM9,21a3.978,3.978,0,0,0,.23,1.29C6.53,21.03,5,19.51,5,18c0-3.31,7.8-7,19-7s19,3.69,19,7c0,1.51-1.53,3.03-4.23,4.29A3.96,3.96,0,0,0,35,17c0-2.75-5.7-4-11-4s-11,1.25-11,4A4,4,0,0,0,9,21Zm4-2v4a2.015,2.015,0,0,1-2-2A2.006,2.006,0,0,1,13,19Zm5,15a1.99,1.99,0,0,1-1.92-1.48,1.053,1.053,0,0,0-.53-.64,1.016,1.016,0,0,0-.82-.02A2,2,0,0,1,12,30a1.938,1.938,0,0,1,.64-1.45,1.012,1.012,0,0,0,.3-.93,1,1,0,0,0-.64-.75A1.991,1.991,0,0,1,11,25a1.7,1.7,0,0,1,.08-.51A3.961,3.961,0,0,0,13,25h.05a11.042,11.042,0,0,0,5.89,8.76A2.05,2.05,0,0,1,18,34ZM15,24V17.01c.15-.55,3.15-2.01,9-2.01,5.83,0,8.83,1.45,9,2.01V24a9,9,0,0,1-18,0ZM27,34.57V38a3,3,0,0,1-6,0V34.57a10.68,10.68,0,0,0,6,0ZM17,40v-.02l2.19-.68a4.977,4.977,0,0,0,9.62,0l2.19.68V47H17Zm-4,0a1,1,0,0,1,2,0V50a1,1,0,0,1-2,0ZM5,48.88A6.964,6.964,0,0,1,9.91,42.2L11,41.86v6.76A8.794,8.794,0,0,0,9,54a8.261,8.261,0,0,0,.29,2H5ZM5,60V58h5.08c.14.26.28.53.44.77A2.655,2.655,0,0,1,10.97,60Zm30.82-2.36A4.846,4.846,0,0,0,35.03,60H12.97a4.846,4.846,0,0,0-.79-2.36A6.723,6.723,0,0,1,11,54a6.314,6.314,0,0,1,.5-2.36A2.968,2.968,0,0,0,14,53a3.009,3.009,0,0,0,3-3V49H31v1a3,3,0,0,0,5.51,1.64A6.507,6.507,0,0,1,37,54,6.723,6.723,0,0,1,35.82,57.64ZM43,60H37.03a2.655,2.655,0,0,1,.45-1.23c.16-.24.3-.51.44-.77H43Zm0-4H38.71A8.261,8.261,0,0,0,39,54a8.794,8.794,0,0,0-2-5.38V41.86l1.09.35A6.943,6.943,0,0,1,43,48.88Z"></path><circle cx="20" cy="21" r="2"></circle><circle cx="28" cy="21" r="2"></circle><path d="M21.872,26.118l-1.4,1.424a5.007,5.007,0,0,0,7.064,0l-1.4-1.424A3.082,3.082,0,0,1,21.872,26.118Z"></path></g></svg>