<svg xmlns="http://www.w3.org/2000/svg" viewBox="0 0 64 64" x="0px" y="0px"><g><path d="M47.157,46.742c-.215.254-.433.505-.672.743s-.49.457-.743.672l1.45,1.45,1.415-1.415Z"></path><path d="M36,12a1,1,0,0,1,.707.293l5,5A1,1,0,0,1,42,18v6a1,1,0,0,1-.293.707L40,26.414v.769a11.916,11.916,0,0,1,9.421,8.169A22.981,22.981,0,0,0,28,4V8.586L31.414,12Z"></path><path d="M26,47.414l-1.707-1.707A1,1,0,0,1,24,45V42H21a1,1,0,0,1-.707-.293l-2-2A1,1,0,0,1,18,39V36a1,1,0,0,1,.293-.707l4-4A1,1,0,0,1,23,31h6.076c.146-.162.283-.329.439-.485A11.959,11.959,0,0,1,38,27.006V26a1,1,0,0,1,.293-.707L40,23.586V18.414L35.586,14H31a1,1,0,0,1-.707-.293l-4-4A1,1,0,0,1,26,9V4.111A22.788,22.788,0,0,0,20.634,5.22l2.073,2.073A1,1,0,0,1,23,8v4a1,1,0,0,1-.293.707L19,16.414V20a1,1,0,0,1-.293.707l-4,4A1,1,0,0,1,14,25H12v1.586l4.707,4.707A1,1,0,0,1,17,32v3a1,1,0,0,1-.293.707L14,38.414V41a1,1,0,0,1-.293.707l-1.741,1.741A22.786,22.786,0,0,0,26,49.887ZM27,18a1,1,0,0,1,1-1h6a1,1,0,0,1,1,1v6a1,1,0,0,1-.293.707l-2,2A1,1,0,0,1,32,27H30a1,1,0,0,1-1-1V22.414l-1.707-1.707A1,1,0,0,1,27,20Z"></path><path d="M29.515,47.485A12.009,12.009,0,0,1,27.623,33H23.414L20,36.414v2.172L21.414,40H25a1,1,0,0,1,1,1v3.586l1.707,1.707A1,1,0,0,1,28,47v2.994a22.873,22.873,0,0,0,2.869-.175c.5-.062.986-.146,1.474-.239A11.95,11.95,0,0,1,29.515,47.485Z"></path><path d="M11,23h2.586L17,19.586V16a1,1,0,0,1,.293-.707L21,11.586V8.414L18.605,6.019A22.942,22.942,0,0,0,10.6,41.99l1.4-1.4V38a1,1,0,0,1,.293-.707L15,34.586V32.414l-4.707-4.707A1,1,0,0,1,10,27V24A1,1,0,0,1,11,23Z"></path><path d="M31,22v3h.586L33,23.586V19H29v.586l1.707,1.707A1,1,0,0,1,31,22Z"></path><path d="M45.071,46.071a10,10,0,1,0-14.142,0A10.009,10.009,0,0,0,45.071,46.071ZM32.343,33.343a8,8,0,1,1,0,11.314A8.01,8.01,0,0,1,32.343,33.343Z"></path><path d="M42.243,43.243a6,6,0,1,0-8.486,0A6.008,6.008,0,0,0,42.243,43.243Z"></path><rect x="48.021" y="50.021" width="4" height="2" transform="translate(-21.427 50.32) rotate(-45.005)"></rect><polygon points="59.213 57.385 59.214 57.384 53.556 51.728 50.728 54.556 56.385 60.213 59.213 57.385"></polygon></g></svg>