<svg xmlns="http://www.w3.org/2000/svg" viewBox="0 0 64 64" x="0px" y="0px"><g><path d="M49,29H47.708A15.894,15.894,0,0,0,45,22.708V15a1,1,0,0,0-1-1H43V3a1,1,0,0,0-1-1H22a1,1,0,0,0-1,1V14H20a1,1,0,0,0-1,1v7.708a15.89,15.89,0,0,0,0,18.584V49a1,1,0,0,0,1,1h1V61a1,1,0,0,0,1,1H42a1,1,0,0,0,1-1V50h1a1,1,0,0,0,1-1V41.292A15.894,15.894,0,0,0,47.708,35H49a2,2,0,0,0,2-2V31A2,2,0,0,0,49,29ZM43,16v4.411a16.052,16.052,0,0,0-2-1.629V16ZM23,4H41V14H40a1,1,0,0,0-1,1v2.635a15.8,15.8,0,0,0-14,0V15a1,1,0,0,0-1-1H23Zm0,12v2.782a16.052,16.052,0,0,0-2,1.629V16ZM21,48V43.589a16.052,16.052,0,0,0,2,1.629V48ZM41,60H23V50h1a1,1,0,0,0,1-1V46.365a15.8,15.8,0,0,0,14,0V49a1,1,0,0,0,1,1h1Zm0-12V45.218a16.052,16.052,0,0,0,2-1.629V48Zm-9-2A14,14,0,1,1,46,32,14.015,14.015,0,0,1,32,46ZM49,33H47.949c.021-.332.051-.662.051-1s-.03-.668-.051-1H49Z"></path><path d="M33,29.184V24H31v5.184A3,3,0,0,0,29,32a2.951,2.951,0,0,0,.3,1.285l-3.008,3.008,1.414,1.414L30.715,34.7A2.951,2.951,0,0,0,32,35a2.993,2.993,0,0,0,1-5.816ZM32,33a1,1,0,1,1,1-1A1,1,0,0,1,32,33Z"></path><path d="M32,19A13,13,0,1,0,45,32,13.015,13.015,0,0,0,32,19Zm0,24A11,11,0,1,1,43,32,11.013,11.013,0,0,1,32,43Z"></path><rect x="26" y="8" width="12" height="2"></rect><rect x="26" y="54" width="12" height="2"></rect></g></svg>