<svg xmlns="http://www.w3.org/2000/svg" viewBox="0 0 64 64" x="0px" y="0px"><g data-name="Hotel Bell-Hotel-Lobby-Reservation-Ring Bell"><path d="M57,48H37V46H58a1,1,0,0,0,1-1,5.017,5.017,0,0,0-4-4.9V39A19.017,19.017,0,0,0,36,20V17a1,1,0,0,0-1-1H33V14h3a1,1,0,0,0,1-1,5,5,0,0,0-10,0,1,1,0,0,0,1,1h3v2H29a1,1,0,0,0-1,1v3A19.017,19.017,0,0,0,9,39v1.1A5.017,5.017,0,0,0,5,45a1,1,0,0,0,1,1H27v2H7a5,5,0,0,0-5,5v1a2.006,2.006,0,0,0,2,2H60a2.006,2.006,0,0,0,2-2V53A5,5,0,0,0,57,48ZM29.17,12a3,3,0,0,1,5.66,0ZM30,18h4v2H30ZM11,39A17.024,17.024,0,0,1,28,22h8A17.024,17.024,0,0,1,53,39v1H11ZM7.17,44A3.014,3.014,0,0,1,10,42H54a3.014,3.014,0,0,1,2.83,2ZM35,46v2H29V46Zm25,8H4V53a3.009,3.009,0,0,1,3-3H57a3.009,3.009,0,0,1,3,3Z"></path><path d="M14.69,17.846l-1.068-1.692A26.987,26.987,0,0,0,3.077,28.614l1.846.772A24.981,24.981,0,0,1,14.69,17.846Z"></path><path d="M6.574,30.635l1.862.73a21.279,21.279,0,0,1,8.111-9.96l-1.094-1.674A23.293,23.293,0,0,0,6.574,30.635Z"></path><path d="M59.077,29.386l1.846-.772a26.987,26.987,0,0,0-10.545-12.46L49.31,17.846A24.981,24.981,0,0,1,59.077,29.386Z"></path><path d="M55.564,31.365l1.862-.73a23.293,23.293,0,0,0-8.879-10.9l-1.094,1.674A21.279,21.279,0,0,1,55.564,31.365Z"></path></g></svg>