<svg xmlns="http://www.w3.org/2000/svg" viewBox="0 0 64 64" x="0px" y="0px"><g><path d="M19,30.9v.687l1,1,1-1V30.9a5,5,0,0,1-2,0Z"></path><path d="M16,23h1.343a3.02,3.02,0,0,0,2.121-.878l.829-.829a1,1,0,0,1,1.414,0l1.414,1.414a1,1,0,0,0,.708.293H24a1,1,0,0,1,1,1V23a5.006,5.006,0,0,0-5-5,5.009,5.009,0,0,0-5,5v1A1,1,0,0,1,16,23Z"></path><path d="M23,26V24.885a2.981,2.981,0,0,1-1.293-.764L21,23.414l-.122.122A4.966,4.966,0,0,1,17.343,25H17v1a3,3,0,0,0,6,0Z"></path><path d="M22.376,33.038l-1.669,1.669a1,1,0,0,1-1.414,0l-1.669-1.669A4.991,4.991,0,0,0,13,38v2H27V38A4.991,4.991,0,0,0,22.376,33.038Z"></path><rect x="9" y="4" width="38" height="6"></rect><path d="M41.105,14.553a1.042,1.042,0,0,1,1.79,0l.1.211V12H41v2.764Z"></path><path d="M23,29.974v1.1a6.977,6.977,0,0,1,3.46,1.542,2.992,2.992,0,0,0-.707-5.514,2.759,2.759,0,0,0-.857-.084A4.992,4.992,0,0,1,23,29.974Z"></path><rect x="49" y="4" width="2" height="6"></rect><path d="M51,59V12H49V59a2.966,2.966,0,0,1-.184,1H50A1,1,0,0,0,51,59Z"></path><rect x="53" y="4" width="2" height="6"></rect><path d="M55,59V12H53V59a2.966,2.966,0,0,1-.184,1H54A1,1,0,0,0,55,59Z"></path><path d="M13.54,32.613A6.977,6.977,0,0,1,17,31.071v-1.1a4.992,4.992,0,0,1-1.9-2.966,2.653,2.653,0,0,0-.831.085,2.992,2.992,0,0,0-.731,5.52Z"></path><path d="M9,59a1,1,0,0,0,1,1H46a1,1,0,0,0,1-1V12H45v7a1,1,0,0,1-1.9.447L42,17.236l-1.1,2.211A1,1,0,0,1,39,19V12H9Zm18-3H11V54H27Zm-8-6v2H11V50Zm-8-2V46h4v2Zm10,4V50h2v2Zm6,0H25V50h2Zm0-4H17V46H27Zm18,4H41V50h4Zm0-10H39V40h6ZM35,32H45v2H35Zm-4,0h2v2H31Zm0,4H45v2H31Zm0,4h6v2H31Zm0,6H45v2H31Zm0,4h8v2H31Zm0,4H45v2H31ZM13,25.422V23a7.008,7.008,0,0,1,7-7,7.008,7.008,0,0,1,7,7v2.42a4.985,4.985,0,0,1,.814,8.7A6.946,6.946,0,0,1,29,38v3a1,1,0,0,1-1,1H12a1,1,0,0,1-1-1V38a6.946,6.946,0,0,1,1.186-3.882,4.984,4.984,0,0,1,.814-8.7Z"></path></g></svg>