<svg xmlns="http://www.w3.org/2000/svg" viewBox="0 0 64 64" x="0px" y="0px"><g><path d="M55.707,56.293l-6-6A1,1,0,0,0,49,50H19V48a3,3,0,0,0-3-3H10a1,1,0,0,1,0-2h6a3,3,0,0,0,3-3V38h7v4H22a1,1,0,0,0-1,1v4a1,1,0,0,0,1,1H42a1,1,0,0,0,1-1V43a1,1,0,0,0-1-1H38V38H52a3,3,0,0,0,3-3V9a3,3,0,0,0-3-3H48V8h4a1,1,0,0,1,1,1V30H11V9a1,1,0,0,1,1-1h4V6H12A3,3,0,0,0,9,9V35a3,3,0,0,0,3,3h5v2a1,1,0,0,1-1,1H10a3,3,0,0,0,0,6h6a1,1,0,0,1,1,1v2H15a1,1,0,0,0-.707.293l-6,6A1,1,0,0,0,8,57v3a2,2,0,0,0,2,2H54a2,2,0,0,0,2-2V57A1,1,0,0,0,55.707,56.293ZM41,46H23V44H41Zm-5-4H28V38h8ZM11,35V32H53v3a1,1,0,0,1-1,1H12A1,1,0,0,1,11,35Zm4.414,17H48.586l4,4H11.414ZM10,60V58H54v2Z"></path><rect x="16" y="53" width="2" height="2"></rect><rect x="20" y="53" width="2" height="2"></rect><rect x="42" y="53" width="2" height="2"></rect><rect x="24" y="53" width="16" height="2"></rect><rect x="46" y="53" width="2" height="2"></rect><rect x="47" y="33" width="2" height="2"></rect><path d="M35,10H29a1,1,0,0,0-1,1v6a1,1,0,0,0,1,1h4a1,1,0,0,0,.708-.293l2-2A1,1,0,0,0,36,15V11A1,1,0,0,0,35,10Zm-1,4.586L32.588,16H30V12h4Z"></path><path d="M20.707,20.707,22.414,19H24v2a1,1,0,0,0,1,1h2v4h2V22h2v4h2V22h2v4h2V22h2a1,1,0,0,0,1-1V19h1.586l1.707,1.707A1,1,0,0,0,44,21h2V19H44.414l-1.707-1.707A1,1,0,0,0,42,17H40V15h6V13H40V11h2a1,1,0,0,0,.707-.293L44.414,9H46V7H44a1,1,0,0,0-.707.293L41.586,9H40V7a1,1,0,0,0-1-1H37V2H35V6H33V2H31V6H29V2H27V6H25a1,1,0,0,0-1,1V9H22.414L20.707,7.293A1,1,0,0,0,20,7H18V9h1.586l1.707,1.707A1,1,0,0,0,22,11h2v2H18v2h6v2H22a1,1,0,0,0-.707.293L19.586,19H18v2h2A1,1,0,0,0,20.707,20.707ZM26,8H38V20H26Z"></path></g></svg>