<svg xmlns="http://www.w3.org/2000/svg" viewBox="0 0 64 64" x="0px" y="0px"><g><path d="M32,60h6V30H32Zm1-4h2v2H33Z"></path><rect x="40" y="30" width="2" height="30"></rect><path d="M50,8V28h4V8Zm3,4H51V10h2Z"></path><path d="M50,60h6V30H50Zm1-4h2v2H51Z"></path><path d="M32,8V28h4V8Zm3,4H33V10h2Z"></path><path d="M60,12V4H4v8H6V7A1,1,0,0,1,7,6h6a1,1,0,0,1,1,1v5H30V7a1,1,0,0,1,1-1h6a1,1,0,0,1,1,1v5H48V7a1,1,0,0,1,1-1h6a1,1,0,0,1,1,1v5Z"></path><path d="M8,60H20V30H8Zm2-4h2v2H10Z"></path><path d="M8,8V28h4V8Zm3,4H9V10h2Z"></path><rect x="22" y="30" width="2" height="30"></rect></g></svg>