<svg xmlns="http://www.w3.org/2000/svg" viewBox="0 0 64 64" x="0px" y="0px"><g><polygon points="4 52.586 22.812 33.773 4 22.746 4 52.586"></polygon><path d="M6.682,22,32,36.841,57.318,22H41v1.292a6.963,6.963,0,0,1-3.87,6.261L32.447,31.9a1,1,0,0,1-.894,0L26.87,29.553A6.963,6.963,0,0,1,23,23.292V22Z"></path><path d="M27.764,27.764,32,29.882l4.236-2.118A4.972,4.972,0,0,0,39,23.292v-10.6l-7-2.625-7,2.625v10.6A4.972,4.972,0,0,0,27.764,27.764Zm.114-8.3L30,21.586l6.364-6.364,1.414,1.414-7.071,7.071a1,1,0,0,1-1.414,0l-2.829-2.829Z"></path><path d="M39.405,34.819l-6.9,4.044a1,1,0,0,1-1.01,0l-6.9-4.044L5.414,54H58.586Z"></path><polygon points="60 22.746 41.188 33.773 60 52.586 60 22.746"></polygon></g></svg>