<svg xmlns="http://www.w3.org/2000/svg" viewBox="0 0 64 64" x="0px" y="0px"><title>Caution-Danger-Book</title><g><path d="M41,29H61a1,1,0,0,0,.9-1.447l-10-20a1.042,1.042,0,0,0-1.79,0l-10,20A1,1,0,0,0,41,29ZM51,10.236,59.382,27H42.618Z"></path><rect x="50" y="15" width="2" height="6"></rect><rect x="50" y="23" width="2" height="2"></rect><path d="M60,33V55H33V54a3,3,0,0,1,3-3H57a1,1,0,0,0,1-1V35H56V49H36a4.967,4.967,0,0,0-3,1.012V18a3,3,0,0,1,3-3h2V13H36a5,5,0,0,0-4,2,5,5,0,0,0-4-2H7a1,1,0,0,0-1,1v5H3a1,1,0,0,0-1,1V56a1,1,0,0,0,1,1H61a1,1,0,0,0,1-1V33ZM8,15H28a3,3,0,0,1,3,3V50.012A4.967,4.967,0,0,0,28,49H8ZM4,21H6V50a1,1,0,0,0,1,1H28a3,3,0,0,1,3,3v1H4Z"></path><rect x="12" y="23" width="14" height="2"></rect><rect x="12" y="31" width="14" height="2"></rect><rect x="12" y="39" width="14" height="2"></rect><rect x="38" y="39" width="14" height="2"></rect></g></svg>