<svg xmlns="http://www.w3.org/2000/svg" viewBox="0 0 64 64" x="0px" y="0px"><g><path d="M38.9,52.553,40.618,56H59.5L55.333,46H8.667L4.5,56H23.382l1.723-3.447A1,1,0,0,1,26,52H38A1,1,0,0,1,38.9,52.553ZM54,54H52V52h2Zm-3-6h2v2H51Zm-1,6H48V52h2Zm-3-6h2v2H47Zm-4,0h2v2H43Zm-1,4h4v2H42Zm-3-4h2v2H39ZM19,48h2v2H19Zm-7,6H10V52h2Zm1-4H11V48h2Zm3,4H14V52h2Zm1-4H15V48h2Zm5,4H18V52h4Zm3-4H23V48h2Zm4,0H27V48h2Zm4,0H31V48h2Zm4,0H35V48h2Z"></path><polygon points="26.618 54 25.618 56 38.382 56 37.382 54 26.618 54"></polygon><path d="M5,17a3,3,0,0,0,6,0h2a3,3,0,0,0,6,0h2a3,3,0,0,0,6,0h2a3,3,0,0,0,6,0h2a3,3,0,0,0,6,0h2a3,3,0,0,0,6,0h2a3,3,0,0,0,6,0V12H5Z"></path><polygon points="12.414 4 6.414 10 57.586 10 51.586 4 12.414 4"></polygon><rect x="14" y="30" width="8" height="6"></rect><rect x="42" y="30" width="8" height="6"></rect><path d="M55,44V21.9a4.994,4.994,0,0,1-3-1.93,4.954,4.954,0,0,1-8,0,4.954,4.954,0,0,1-8,0,4.954,4.954,0,0,1-8,0,4.954,4.954,0,0,1-8,0,4.954,4.954,0,0,1-8,0A4.994,4.994,0,0,1,9,21.9V44H26V29a1,1,0,0,1,1-1H37a1,1,0,0,1,1,1V44ZM24,37a1,1,0,0,1-1,1H13a1,1,0,0,1-1-1V29a1,1,0,0,1,1-1H23a1,1,0,0,1,1,1Zm16-8a1,1,0,0,1,1-1H51a1,1,0,0,1,1,1v8a1,1,0,0,1-1,1H41a1,1,0,0,1-1-1Z"></path><rect x="28" y="30" width="8" height="14"></rect><rect x="4" y="58" width="56" height="2"></rect></g></svg>