<svg xmlns="http://www.w3.org/2000/svg" viewBox="0 0 64 64" x="0px" y="0px"><g data-name="Online Payment-Online Shopping-Smartphone-Shopping Cart-Money"><path d="M4,43V23H2V43a5.006,5.006,0,0,0,5,5H32V46H7A3,3,0,0,1,4,43Z"></path><path d="M43,2H7A5,5,0,0,0,2,7v6H4V12H46v6h2V7A5,5,0,0,0,43,2Zm3,8H4V7A3.009,3.009,0,0,1,7,4H43a3.009,3.009,0,0,1,3,3Z"></path><rect x="6" y="6" width="2" height="2"></rect><rect x="10" y="6" width="2" height="2"></rect><rect x="14" y="6" width="2" height="2"></rect><path d="M57,20H39a5,5,0,0,0-5,5V57a5,5,0,0,0,5,5H57a5,5,0,0,0,5-5V25A5,5,0,0,0,57,20Zm3,37a3.009,3.009,0,0,1-3,3H39a3.009,3.009,0,0,1-3-3V25a3.009,3.009,0,0,1,3-3H57a3.009,3.009,0,0,1,3,3Z"></path><rect x="43" y="24" width="2" height="2"></rect><rect x="47" y="24" width="6" height="2"></rect><rect x="45" y="56" width="6" height="2"></rect><path d="M29,35H14V33H29a1.01,1.01,0,0,0,1-.92l1-12a1.055,1.055,0,0,0-.26-.76A1.029,1.029,0,0,0,30,19H13.41l-1.7-1.71A1.033,1.033,0,0,0,11,17H9.82A3.01,3.01,0,0,0,7,15H5a3,3,0,0,0,0,6H7a3.01,3.01,0,0,0,2.82-2h.77L12,20.41V36a1,1,0,0,0,1,1h1.18a3,3,0,1,0,5.64,0h2.36a3,3,0,1,0,5.64,0H29a1,1,0,0,1,1,1h2A3.009,3.009,0,0,0,29,35ZM26,21h2.91l-.16,2H26Zm0,4h2.58l-.17,2H26Zm0,4h2.25l-.17,2H26Zm-4-8h2v2H22Zm0,4h2v2H22Zm0,4h2v2H22Zm-4-8h2v2H18Zm0,4h2v2H18Zm0,4h2v2H18Zm-4-8h2v2H14Zm0,4h2v2H14Zm0,4h2v2H14ZM7,19H5a1,1,0,0,1,0-2H7a1,1,0,0,1,0,2ZM17,39a1,1,0,1,1,1-1A1,1,0,0,1,17,39Zm8,0a1,1,0,1,1,1-1A1,1,0,0,1,25,39Z"></path><path d="M47,38h2a1,1,0,0,1,1,1h2a3,3,0,0,0-3-3V35H47v1a3,3,0,0,0,0,6h2a1,1,0,0,1,0,2H47a1,1,0,0,1-1-1H44a3,3,0,0,0,3,3v1h2V46a3,3,0,0,0,0-6H47a1,1,0,0,1,0-2Z"></path><path d="M48,31A10,10,0,1,0,58,41,10.011,10.011,0,0,0,48,31Zm0,18a8,8,0,1,1,8-8A8.009,8.009,0,0,1,48,49Z"></path></g></svg>