<svg xmlns="http://www.w3.org/2000/svg" viewBox="0 0 64 64" x="0px" y="0px"><g data-name="Investment-Startup-Smartphone-Money tree-Online"><path d="M57,2H31a5.006,5.006,0,0,0-5,5V57a5.006,5.006,0,0,0,5,5H57a5.006,5.006,0,0,0,5-5V7A5.006,5.006,0,0,0,57,2Zm3,55a3,3,0,0,1-3,3H31a3,3,0,0,1-3-3V7a3,3,0,0,1,3-3H57a3,3,0,0,1,3,3Z"></path><rect x="35" y="6" width="2" height="2"></rect><rect x="31" y="6" width="2" height="2"></rect><rect x="39" y="6" width="10" height="2"></rect><path d="M46,52H42a3,3,0,0,0,0,6h4a3,3,0,0,0,0-6Zm0,4H42a1,1,0,0,1,0-2h4a1,1,0,0,1,0,2Z"></path><path d="M20.032,41.475l-1.879-.684A4.9,4.9,0,0,0,13,41.889V39.931a8,8,0,1,0-2,0v1.958a4.9,4.9,0,0,0-5.153-1.1l-1.879.684a1,1,0,0,0-.6,1.281l.684,1.88a5,5,0,0,0,6.408,2.988l.538-.2V50H5a1,1,0,0,0-.98,1.2l2,10A1,1,0,0,0,7,62H17a1,1,0,0,0,.98-.8l2-10A1,1,0,0,0,19,50H13V47.428l.538.2a5,5,0,0,0,6.408-2.989l.684-1.879A1,1,0,0,0,20.032,41.475ZM9.779,45.744a3,3,0,0,1-3.846-1.792l-.342-.94.94-.343a3,3,0,0,1,3.845,1.793l.342.94ZM16.18,60H7.82l-1.6-8H17.78ZM6,32a6,6,0,1,1,6,6A6.006,6.006,0,0,1,6,32ZM18.067,43.951a3,3,0,0,1-3.846,1.794l-.939-.343.342-.94a3,3,0,0,1,3.845-1.793l.94.343Z"></path><path d="M45,27H43a1,1,0,0,1-1-1H40a3,3,0,0,0,3,3v1h2V29a3,3,0,0,0,0-6H43a1,1,0,0,1,0-2h2a1,1,0,0,1,1,1h2a3,3,0,0,0-3-3V18H43v1a3,3,0,0,0,0,6h2a1,1,0,0,1,0,2Z"></path><path d="M44,34A10,10,0,1,0,34,24,10.011,10.011,0,0,0,44,34Zm0-18a8,8,0,1,1-8,8A8.009,8.009,0,0,1,44,16Z"></path><path d="M12,34a2,2,0,0,1-2-2H8a4,4,0,0,0,4,4Z"></path><path d="M14,32h2a4,4,0,0,0-4-4v2A2,2,0,0,1,14,32Z"></path><path d="M34.293,41.707a1,1,0,0,0,1.414,0l3.5-3.5-1.414-1.414L35,39.586l-1.293-1.293-1.414,1.414Z"></path><path d="M37.793,42.793,35,45.586l-1.293-1.293-1.414,1.414,2,2a1,1,0,0,0,1.414,0l3.5-3.5Z"></path><rect x="42" y="39" width="14" height="2"></rect><rect x="42" y="45" width="14" height="2"></rect><polygon points="6 22 8 22 8 20 10 20 10 18 8 18 8 16 6 16 6 18 4 18 4 20 6 20 6 22"></polygon><polygon points="20 11 18 11 18 13 16 13 16 15 18 15 18 17 20 17 20 15 22 15 22 13 20 13 20 11"></polygon></g></svg>