<svg xmlns="http://www.w3.org/2000/svg" viewBox="0 0 64 64" x="0px" y="0px"><g data-name="Coding-Smartphone-Software Developer-Web Programming-Code"><path d="M45,17H19a1,1,0,0,0-1,1v3H46V18A1,1,0,0,0,45,17ZM22,20H20V18h2Zm4,0H24V18h2Zm4,0H28V18h2Z"></path><path d="M34,54H30a1,1,0,0,0,0,2h4a1,1,0,0,0,0-2Z"></path><path d="M50,8a4,4,0,0,0-4-4H18a4,4,0,0,0-4,4V56a4,4,0,0,0,4,4H46a4,4,0,0,0,4-4ZM29,6h6V8H29ZM25,6h2V8H25Zm9,52H30a3,3,0,0,1,0-6h4a3,3,0,0,1,0,6ZM48,42a3,3,0,0,1-3,3H19a3,3,0,0,1-3-3V18a3,3,0,0,1,3-3H45a3,3,0,0,1,3,3Z"></path><path d="M18,42a1,1,0,0,0,1,1H45a1,1,0,0,0,1-1V23H18Zm14-1H26V39h6Zm6,0H34V39h4ZM35.293,26.707l1.414-1.414,3,3a1,1,0,0,1,0,1.414l-3,3-1.414-1.414L37.586,29Zm-3.241-1.023,1.9.632-2,6-1.9-.632ZM30,35h8v2H30Zm-5.707-6.707,3-3,1.414,1.414L26.414,29l2.293,2.293-1.414,1.414-3-3A1,1,0,0,1,24.293,28.293ZM24,35h4v2H24Z"></path></g></svg>