<svg xmlns="http://www.w3.org/2000/svg" viewBox="0 0 64 64" x="0px" y="0px"><title>Papers-Report-Planner</title><g><path d="M59.988,12.938a1,1,0,0,0-.052-.259c-.011-.032-.019-.062-.033-.093a1,1,0,0,0-.2-.293l-10-10a1,1,0,0,0-.293-.2c-.031-.014-.061-.022-.093-.033a1,1,0,0,0-.259-.052C49.04,2.011,49.021,2,49,2H27a5.006,5.006,0,0,0-5,5H17a5.006,5.006,0,0,0-5,5H7a5.006,5.006,0,0,0-5,5V57a5.006,5.006,0,0,0,5,5H35a5.006,5.006,0,0,0,5-5h5a5.006,5.006,0,0,0,5-5h5a5.006,5.006,0,0,0,5-5V13C60,12.979,59.989,12.96,59.988,12.938ZM56.586,12H51a1,1,0,0,1-1-1V5.414ZM35,60H7a3,3,0,0,1-3-3V17a3,3,0,0,1,3-3H28v7a3,3,0,0,0,3,3h7V57A3,3,0,0,1,35,60ZM30,15.414,36.586,22H31a1,1,0,0,1-1-1ZM45,55H40V23c0-.021-.011-.04-.012-.062a1,1,0,0,0-.052-.259c-.011-.032-.019-.062-.033-.093a1,1,0,0,0-.2-.293l-10-10a1,1,0,0,0-.293-.2c-.031-.014-.061-.022-.093-.033a1,1,0,0,0-.259-.052c-.022,0-.041-.012-.062-.012H14a3,3,0,0,1,3-3H38v7a3,3,0,0,0,3,3h7V52A3,3,0,0,1,45,55ZM40,10.414,46.586,17H41a1,1,0,0,1-1-1ZM55,50H50V18c0-.021-.011-.04-.012-.062a1,1,0,0,0-.052-.259c-.011-.032-.019-.062-.033-.093a1,1,0,0,0-.2-.293l-10-10a.97.97,0,0,0-.294-.2c-.03-.014-.06-.022-.091-.033a1.008,1.008,0,0,0-.261-.052C39.04,7.011,39.021,7,39,7H24a3,3,0,0,1,3-3H48v7a3,3,0,0,0,3,3h7V47A3,3,0,0,1,55,50Z"></path><rect x="7" y="28" width="4" height="2"></rect><rect x="13" y="28" width="2" height="2"></rect><rect x="17" y="28" width="18" height="2"></rect><rect x="7" y="34" width="12" height="2"></rect><rect x="21" y="34" width="4" height="2"></rect><rect x="27" y="34" width="8" height="2"></rect><rect x="7" y="40" width="8" height="2"></rect><rect x="17" y="40" width="8" height="2"></rect><rect x="27" y="40" width="2" height="2"></rect><rect x="31" y="40" width="4" height="2"></rect><rect x="7" y="52" width="8" height="2"></rect><rect x="17" y="52" width="8" height="2"></rect><rect x="27" y="52" width="2" height="2"></rect><rect x="31" y="52" width="4" height="2"></rect><rect x="7" y="46" width="12" height="2"></rect><rect x="21" y="46" width="6" height="2"></rect><rect x="29" y="46" width="6" height="2"></rect></g></svg>