<svg xmlns="http://www.w3.org/2000/svg" viewBox="0 0 64 64" x="0px" y="0px"><title>Tree-Love</title><g><path d="M47,36H33V29.428l.537.2a7,7,0,0,0,8.972-4.184l.684-1.878a1,1,0,0,0-.6-1.282l-1.88-.684A7,7,0,0,0,33,23.639V19.573C35,18.361,42,13.708,42,8a5.994,5.994,0,0,0-5.992-6h-.014A5.884,5.884,0,0,0,32,3.545,5.9,5.9,0,0,0,28.018,2H28a5.976,5.976,0,0,0-6,5.993c0,2.375,1.2,4.829,3.567,7.3A28.382,28.382,0,0,0,31,19.572v6.066A7.008,7.008,0,0,0,23.283,23.6l-1.879.684a1,1,0,0,0-.6,1.282l.683,1.878a6.984,6.984,0,0,0,8.973,4.184l.537-.2V36H17a2,2,0,0,0-2,2v4a2,2,0,0,0,2,2V59a3,3,0,0,0,3,3H44a3,3,0,0,0,3-3V44a2,2,0,0,0,2-2V38A2,2,0,0,0,47,36ZM33.624,26.463a5.009,5.009,0,0,1,6.408-2.989l.94.342-.342.94a5,5,0,0,1-6.408,2.988h0l-.939-.342Zm-3.845,3.281h0a5,5,0,0,1-6.408-2.988l-.342-.94.939-.342a5.008,5.008,0,0,1,6.409,2.989l.342.939ZM24,8A3.974,3.974,0,0,1,28,4h.012A3.97,3.97,0,0,1,31.2,5.628a1,1,0,0,0,.8.4h0a1,1,0,0,0,.8-.4A3.94,3.94,0,0,1,35.993,4H36A3.993,3.993,0,0,1,40,8c0,4.586-6.2,8.729-8,9.837a26.679,26.679,0,0,1-4.99-3.937C25.011,11.823,24,9.837,24,8ZM45,59a1,1,0,0,1-1,1H20a1,1,0,0,1-1-1V44H45Zm2-17H17V38H47Z"></path><path d="M9.29,4.71a.99.99,0,0,0,1.09.21,1.155,1.155,0,0,0,.33-.21A1.024,1.024,0,0,0,11,4a.838.838,0,0,0-.08-.38,1.155,1.155,0,0,0-.21-.33,1.155,1.155,0,0,0-.33-.21.949.949,0,0,0-.58-.06.636.636,0,0,0-.18.06.757.757,0,0,0-.18.09,1.576,1.576,0,0,0-.15.12,1.155,1.155,0,0,0-.21.33A1,1,0,0,0,9,4a.838.838,0,0,0,.08.38A1.169,1.169,0,0,0,9.29,4.71Z"></path><path d="M16.29,12.71a1.155,1.155,0,0,0,.33.21.99.99,0,0,0,1.09-.21,1.169,1.169,0,0,0,.21-.33A1,1,0,0,0,18,12a1.05,1.05,0,0,0-.29-.71,1.032,1.032,0,0,0-.33-.21.916.916,0,0,0-.76,0,1.155,1.155,0,0,0-.33.21A1.05,1.05,0,0,0,16,12a1,1,0,0,0,.08.38A1.169,1.169,0,0,0,16.29,12.71Z"></path><path d="M6.38,18.08a.952.952,0,0,0-.76,0,1.155,1.155,0,0,0-.33.21,1.032,1.032,0,0,0-.21.33.942.942,0,0,0,0,.76,1.169,1.169,0,0,0,.21.33,1.155,1.155,0,0,0,.33.21.943.943,0,0,0,.76,0,1.155,1.155,0,0,0,.33-.21,1.169,1.169,0,0,0,.21-.33A.838.838,0,0,0,7,19a1.05,1.05,0,0,0-.29-.71A1.032,1.032,0,0,0,6.38,18.08Z"></path><path d="M14.29,19.71a1.155,1.155,0,0,0,.33.21.943.943,0,0,0,.76,0,1.155,1.155,0,0,0,.33-.21,1.169,1.169,0,0,0,.21-.33.943.943,0,0,0,0-.76,1.032,1.032,0,0,0-.21-.33,1.047,1.047,0,0,0-1.42,0,1.032,1.032,0,0,0-.21.33.942.942,0,0,0,0,.76A1.169,1.169,0,0,0,14.29,19.71Z"></path><path d="M44.29,19.71a1.155,1.155,0,0,0,.33.21.942.942,0,0,0,.76,0,1.155,1.155,0,0,0,.33-.21,1.169,1.169,0,0,0,.21-.33A.838.838,0,0,0,46,19a1.05,1.05,0,0,0-.29-.71,1,1,0,0,0-1.09-.21,1.155,1.155,0,0,0-.33.21,1.032,1.032,0,0,0-.21.33.943.943,0,0,0,0,.76A1.169,1.169,0,0,0,44.29,19.71Z"></path><path d="M46.29,9.71a1.014,1.014,0,0,0,1.42,0,1.169,1.169,0,0,0,.21-.33A1,1,0,0,0,48,9a1.05,1.05,0,0,0-.29-.71,1.032,1.032,0,0,0-.33-.21,1,1,0,0,0-1.09.21A1.05,1.05,0,0,0,46,9a1,1,0,0,0,.08.38A1.169,1.169,0,0,0,46.29,9.71Z"></path><path d="M56.92,24.62a.782.782,0,0,0-.09-.181l-.12-.149a1.018,1.018,0,0,0-.91-.27.636.636,0,0,0-.18.06.757.757,0,0,0-.18.09,1.576,1.576,0,0,0-.15.12A1.05,1.05,0,0,0,55,25a.99.99,0,0,0,.29.71,1.155,1.155,0,0,0,.33.21.942.942,0,0,0,.76,0,1.155,1.155,0,0,0,.33-.21A.99.99,0,0,0,57,25a1.487,1.487,0,0,0-.02-.2A.636.636,0,0,0,56.92,24.62Z"></path><path d="M59.92,4.62a1.032,1.032,0,0,0-.21-.33.955.955,0,0,0-.16-.12.556.556,0,0,0-.17-.09.6.6,0,0,0-.19-.06.925.925,0,0,0-.57.06,1.155,1.155,0,0,0-.33.21,1.032,1.032,0,0,0-.21.33.943.943,0,0,0,0,.76,1.169,1.169,0,0,0,.21.33,1.014,1.014,0,0,0,1.42,0,1.169,1.169,0,0,0,.21-.33.942.942,0,0,0,0-.76Z"></path><path d="M10,10H9V9A1,1,0,0,0,7,9v1H6a1,1,0,0,0,0,2H7v1a1,1,0,0,0,2,0V12h1a1,1,0,0,0,0-2Z"></path><path d="M15,27h1a1,1,0,0,0,0-2H15V24a1,1,0,0,0-2,0v1H12a1,1,0,0,0,0,2h1v1a1,1,0,0,0,2,0Z"></path><path d="M56,15H55V14a1,1,0,0,0-2,0v1H52a1,1,0,0,0,0,2h1v1a1,1,0,0,0,2,0V17h1a1,1,0,0,0,0-2Z"></path></g></svg>