<svg xmlns="http://www.w3.org/2000/svg" viewBox="0 0 64 64" x="0px" y="0px"><g><path d="M60.615,41.9a4.027,4.027,0,0,0-5.465-1.464L46.634,45.35A4,4,0,0,0,43,43H31.162l-3.691-1.23A14.968,14.968,0,0,0,22.728,41h-.85a15,15,0,0,0-7.718,2.138L12.723,44H12a1,1,0,0,0-1-1H3a1,1,0,0,0-1,1V58a1,1,0,0,0,1,1h8a1,1,0,0,0,1-1h7.531a7,7,0,0,1,.818.048l11.921,1.4a14.7,14.7,0,0,0,1.729.1,15.1,15.1,0,0,0,7.523-2.008L59.15,47.366a3.962,3.962,0,0,0,2-3.466A4.03,4.03,0,0,0,60.615,41.9ZM10,57H4V45h6ZM58.15,45.634,40.522,55.812A13.087,13.087,0,0,1,32.5,57.464l-11.92-1.4A9.026,9.026,0,0,0,19.531,56H12V46h1a1,1,0,0,0,.515-.143l1.674-1A13,13,0,0,1,21.878,43h.85a13,13,0,0,1,4.111.667l3.845,1.282A1,1,0,0,0,31,45H43a2,2,0,0,1,0,4H28v2H43a3.992,3.992,0,0,0,3.952-3.525l9.194-5.306a2,2,0,0,1,3,1.731A1.983,1.983,0,0,1,58.15,45.634Z"></path><path d="M31,18h2a1,1,0,0,1,1,1h2a3,3,0,0,0-3-3V15H31v1a3,3,0,0,0,0,6h2a1,1,0,0,1,0,2H31a1,1,0,0,1-1-1H28a3,3,0,0,0,3,3v1h2V26a3,3,0,0,0,0-6H31a1,1,0,0,1,0-2Z"></path><path d="M32,11A10,10,0,1,0,42,21,10.011,10.011,0,0,0,32,11Zm0,18a8,8,0,1,1,8-8A8.009,8.009,0,0,1,32,29Z"></path><path d="M33.962,9.893l1.531-1.286-1.173-1.4a13.993,13.993,0,0,1,1.35,27.305l.523,1.931a15.991,15.991,0,0,0-1.7-31.231l1.4-1.175L34.607,2.507l-3.25,2.727a1,1,0,0,0-.123,1.409Z"></path><path d="M29.508,36.786l-1.4,1.175,1.286,1.532,3.25-2.727a1,1,0,0,0,.123-1.409l-2.727-3.25-1.532,1.286,1.173,1.4a13.993,13.993,0,0,1-1.35-27.3l-.524-1.931a15.991,15.991,0,0,0,1.7,31.231Z"></path><rect x="50" y="20" width="2" height="2"></rect><rect x="49.353" y="15.083" width="2" height="2" transform="translate(-2.447 13.58) rotate(-15)"></rect><rect x="47.455" y="10.5" width="1.999" height="1.999" transform="translate(0.744 25.775) rotate(-30.009)"></rect><rect x="44.435" y="6.565" width="2" height="2" transform="translate(7.949 34.33) rotate(-44.98)"></rect><rect x="40.5" y="3.545" width="2" height="2" transform="translate(16.816 38.215) rotate(-60.005)"></rect><rect x="49.353" y="24.918" width="2" height="2" transform="translate(12.286 67.846) rotate(-75)"></rect><rect x="47.455" y="29.5" width="1.999" height="1.999" transform="translate(-2.191 57.205) rotate(-59.991)"></rect><rect x="44.435" y="33.435" width="2" height="2" transform="translate(-11.039 42.233) rotate(-45.02)"></rect><rect x="40.5" y="36.454" width="2" height="2" transform="translate(-13.166 25.763) rotate(-29.995)"></rect><rect x="12" y="20" width="2" height="2"></rect><rect x="12.648" y="15.083" width="2" height="2" transform="translate(-5.419 25.103) rotate(-75)"></rect><rect x="14.545" y="10.5" width="2" height="2" transform="translate(-2.187 19.212) rotate(-59.998)"></rect><rect x="17.565" y="6.565" width="2" height="2" transform="translate(0.088 15.343) rotate(-45)"></rect><rect x="21.5" y="3.546" width="2" height="2" transform="translate(0.742 11.86) rotate(-30.002)"></rect><rect x="12.648" y="24.918" width="2" height="2" transform="translate(-6.243 4.415) rotate(-15)"></rect><rect x="14.546" y="29.5" width="2" height="2" transform="translate(-13.166 11.856) rotate(-29.995)"></rect><rect x="17.565" y="33.435" width="2" height="2" transform="translate(-18.912 23.213) rotate(-45)"></rect><rect x="21.5" y="36.454" width="2" height="2" transform="translate(-21.186 38.211) rotate(-59.998)"></rect></g></svg>