<svg xmlns="http://www.w3.org/2000/svg" viewBox="0 0 64 64" x="0px" y="0px"><g data-name="Shopping Bag"><path d="M39,6H25a3,3,0,0,0,0,6H39a3,3,0,0,0,0-6Zm0,4H25a1,1,0,0,1,0-2H39a1,1,0,0,1,0,2Z"></path><path d="M39,29H25a5.006,5.006,0,0,0-5,5v4a1,1,0,0,0,1,1h1v2H21a1,1,0,0,0-1,1v4a3,3,0,0,0,3,3H41a3,3,0,0,0,3-3V42a1,1,0,0,0-1-1H42V39h1a1,1,0,0,0,1-1V34A5.006,5.006,0,0,0,39,29Zm3,17a1,1,0,0,1-1,1H23a1,1,0,0,1-1-1V43H42Zm-2-5H24V39H40Zm2-4H22V34a3,3,0,0,1,3-3v2h2V31h4v2h2V31h4v2h2V31a3,3,0,0,1,3,3Z"></path><path d="M53.958,26.713l-3-10A1,1,0,0,0,50,16H48V5a3,3,0,0,0-3-3H19a3,3,0,0,0-3,3V16H14a1,1,0,0,0-.958.713l-3,10A1,1,0,0,0,10,27V57a5.006,5.006,0,0,0,5,5H49a5.006,5.006,0,0,0,5-5V27A1,1,0,0,0,53.958,26.713ZM18,5a1,1,0,0,1,1-1H45a1,1,0,0,1,1,1V16H18ZM52,57a3,3,0,0,1-3,3H15a3,3,0,0,1-3-3V27.147L14.744,18H49.256L52,27.147Z"></path></g></svg>