<svg xmlns="http://www.w3.org/2000/svg" viewBox="0 0 64 64" x="0px" y="0px"><g data-name="Heart Rate-Echo"><path d="M26.832,35.555A1,1,0,0,1,26,36c-.034,0-.069,0-.1-.005a1,1,0,0,1-.825-.623L23.9,32.439l0,.008A1,1,0,0,1,23,33H19.768L25,38.543,30.232,33h-1.7Z"></path><path d="M60,55V11H4V55ZM50,20a1,1,0,0,1,1-1h4a1,1,0,0,1,1,1v4a1,1,0,0,1-1,1H51a1,1,0,0,1-1-1Zm0,10a1,1,0,0,1,1-1h4a1,1,0,0,1,1,1v4a1,1,0,0,1-1,1H51a1,1,0,0,1-1-1Zm3,9a5,5,0,1,1-5,5A5.006,5.006,0,0,1,53,39ZM6,14a1,1,0,0,1,1-1H45a1,1,0,0,1,1,1V52a1,1,0,0,1-1,1H7a1,1,0,0,1-1-1Z"></path><rect x="52" y="31" width="2" height="2"></rect><circle cx="53" cy="44" r="3"></circle><rect x="52" y="21" width="2" height="2"></rect><path d="M27.361,26.025l-1.634,1.731a1.029,1.029,0,0,1-1.454,0l-1.634-1.731a3.147,3.147,0,0,0-4.648,0A3.754,3.754,0,0,0,17.9,31h4.482l.723-1.447a1,1,0,0,1,1.824.075l1.294,3.236.945-1.419A1,1,0,0,1,28,31h4.1a3.754,3.754,0,0,0-.091-4.975A3.219,3.219,0,0,0,27.361,26.025Z"></path><path d="M44,15H8V51H44ZM10,18a1,1,0,0,1,1-1h4v2H12v3H10Zm8,31H12V47h6Zm0-4H12V43h6Zm24,4H30V47H42ZM30,45V43h2v2Zm12,0H34V43h8Zm0-12H32.982l-7.255,7.687a1,1,0,0,1-1.454,0L17.018,33H10V31h5.559a5.779,5.779,0,0,1,.978-6.348,5.146,5.146,0,0,1,7.556,0l.907.961.907-.961a5.146,5.146,0,0,1,7.556,0A5.779,5.779,0,0,1,34.441,31H42Z"></path></g></svg>