<svg xmlns="http://www.w3.org/2000/svg" viewBox="0 0 64 64" x="0px" y="0px"><g><path d="M51,30H49V3a1,1,0,0,0-1-1H36a1,1,0,0,0-1,1V30H33V8a1,1,0,0,0-.293-.707l-5-5a1,1,0,0,0-1.414,0l-5,5A1,1,0,0,0,21,8V30H19V7a1,1,0,0,0-1-1V3a1,1,0,0,0-1-1H13a1,1,0,0,0-1,1V6a1,1,0,0,0-1,1v4H8a1,1,0,0,0-1,1V26H9V13h2V30H9a1,1,0,0,0-1,1v8a1,1,0,0,0,1,1h1V61a1,1,0,0,0,1,1H49a1,1,0,0,0,1-1V40h1a1,1,0,0,0,1-1V31A1,1,0,0,0,51,30ZM37,4H47V6H45V8h2v2H43v2h4v2H45v2h2v2H43v2h4v2H45v2h2v2H43v2h4v2H37ZM31,9V30H28V9ZM27,4.414,29.586,7H24.414ZM23,9h3V30H23ZM13,8h4V20H13Zm1-4h2V6H14ZM13,22h4v8H13ZM48,60H12V40H48Zm2-22H10V32H50Z"></path></g></svg>