<svg xmlns="http://www.w3.org/2000/svg" viewBox="0 0 64 64" x="0px" y="0px"><g><path d="M60,43V39H30v4a3,3,0,0,0,6,0h2a3,3,0,0,0,6,0h2a3,3,0,0,0,6,0h2a3,3,0,0,0,6,0Z"></path><rect x="36" y="52" width="4" height="8"></rect><path d="M58,60V47.9a4.962,4.962,0,0,1-5-1.93,4.954,4.954,0,0,1-8,0,4.954,4.954,0,0,1-8,0,4.962,4.962,0,0,1-5,1.93V60h2V51a1,1,0,0,1,1-1h6a1,1,0,0,1,1,1v9ZM44,51a1,1,0,0,1,1-1H55a1,1,0,0,1,1,1v6a1,1,0,0,1-1,1H45a1,1,0,0,1-1-1Z"></path><rect x="46" y="52" width="8" height="4"></rect><path d="M30,22v3h.586L32,23.586V19H28v.586l1.707,1.707A1,1,0,0,1,30,22Z"></path><path d="M28.132,37.5,30.3,33.712,29.586,33H22.414L19,36.414v2.172L20.414,40H24a1,1,0,0,1,1,1v3.586l1.707,1.707A1,1,0,0,1,27,47v3a22.411,22.411,0,0,0,3-.217V46.974A4.977,4.977,0,0,1,28,43V38A1,1,0,0,1,28.132,37.5Z"></path><polygon points="30.723 37 59.277 37 56.42 32 33.58 32 30.723 37"></polygon><path d="M35,12a1,1,0,0,1,.707.293l5,5A1,1,0,0,1,41,18v6a1,1,0,0,1-.293.707L39,26.414v3.172l.414.414H49.783A22.411,22.411,0,0,0,50,27,23.025,23.025,0,0,0,27,4V8.586L30.414,12Z"></path><path d="M4,27A22.894,22.894,0,0,0,9.586,42L11,40.586V38a1,1,0,0,1,.293-.707L14,34.586V32.414L9.293,27.707A1,1,0,0,1,9,27V24a1,1,0,0,1,1-1h2.586L16,19.586V16a1,1,0,0,1,.293-.707L20,11.586V8.414L17.588,6A22.94,22.94,0,0,0,4,27Z"></path><path d="M19.622,5.208l2.085,2.085A1,1,0,0,1,22,8v4a1,1,0,0,1-.293.707L18,16.414V20a1,1,0,0,1-.293.707l-4,4A1,1,0,0,1,13,25H11v1.586l4.707,4.707A1,1,0,0,1,16,32v3a1,1,0,0,1-.293.707L13,38.414V41a1,1,0,0,1-.293.707l-1.751,1.751A22.927,22.927,0,0,0,25,49.908V47.414l-1.707-1.707A1,1,0,0,1,23,45V42H20a1,1,0,0,1-.707-.293l-2-2A1,1,0,0,1,17,39V36a1,1,0,0,1,.293-.707l4-4A1,1,0,0,1,22,31h8a1,1,0,0,1,.707.293l.62.62.8-1.409A1,1,0,0,1,33,30h4V26a1,1,0,0,1,.293-.707L39,23.586V18.414L34.586,14H30a1,1,0,0,1-.707-.293l-4-4A1,1,0,0,1,25,9V4.113A23.025,23.025,0,0,0,19.622,5.208ZM26,18a1,1,0,0,1,1-1h6a1,1,0,0,1,1,1v6a1,1,0,0,1-.293.707l-2,2A1,1,0,0,1,31,27H29a1,1,0,0,1-1-1V22.414l-1.707-1.707A1,1,0,0,1,26,20Z"></path><rect x="55" y="26" width="2" height="2"></rect><rect x="54.559" y="20.965" width="2" height="1.999" transform="translate(-2.966 9.963) rotate(-9.982)"></rect><rect x="53.251" y="16.082" width="2" height="2" transform="translate(-2.57 19.604) rotate(-20.019)"></rect><rect x="51.115" y="11.5" width="1.999" height="2" transform="translate(0.731 27.727) rotate(-29.995)"></rect><rect x="48.215" y="7.359" width="2" height="2.001" transform="translate(6.128 33.568) rotate(-39.97)"></rect><rect x="44.641" y="3.784" width="2" height="2.001" transform="translate(12.655 36.689) rotate(-50.03)"></rect><rect x="7.359" y="3.785" width="2.001" height="2" transform="translate(-1.12 6.491) rotate(-39.988)"></rect><rect x="3.784" y="7.359" width="2.001" height="2" transform="translate(-4.695 6.653) rotate(-50.012)"></rect><rect x="3.785" y="44.64" width="2" height="2.001" transform="translate(-28.201 13.736) rotate(-39.97)"></rect><rect x="7.359" y="48.215" width="2" height="2.001" transform="translate(-34.728 24.006) rotate(-50.03)"></rect><rect x="11.5" y="51.115" width="1.999" height="2" transform="translate(-38.884 36.887) rotate(-60.005)"></rect><rect x="16.082" y="53.251" width="2" height="2" transform="translate(-39.738 51.703) rotate(-69.955)"></rect><rect x="20.965" y="54.559" width="2" height="1.999" transform="translate(-36.562 67.555) rotate(-80.013)"></rect><rect x="26" y="55" width="2" height="2"></rect></g></svg>