<svg xmlns="http://www.w3.org/2000/svg" viewBox="0 0 64 64" x="0px" y="0px"><g data-name="Education Tools-Ruler-Pencil-Edit Tools"><path d="M56,26H53V12a.978.978,0,0,0-.09-.41l-4-9a1,1,0,0,0-1.82,0l-4,9A.978.978,0,0,0,43,12V26H41V13a1,1,0,0,0-1-1H37.97A4.924,4.924,0,0,0,39,9a5.017,5.017,0,0,0-4-4.9V2H33V4.1A5.017,5.017,0,0,0,29,9a4.924,4.924,0,0,0,1.03,3H28a1,1,0,0,0-1,1V26H25V3a1,1,0,0,0-1-1H16a1,1,0,0,0-1,1V26H12a1,1,0,0,0-1,1V61a1,1,0,0,0,1,1H56a1,1,0,0,0,1-1V27A1,1,0,0,0,56,26ZM34,6a3,3,0,1,1-3,3A3.009,3.009,0,0,1,34,6Zm-5,8H39v2H29Zm10,4v8H37V18Zm-4,0v8H33V18Zm-6,0h2v8H29ZM17,4h6V6H19V8h4v2H21v2h2v2H21v2h2v2H19v2h4v2H21v2h2v2H17ZM43,60H13V28H43ZM48,5.46,48.68,7H47.32ZM46.43,9h3.14l.89,2H45.54ZM51,13V26H49V13Zm-6,0h2V26H45Zm0,15h4V55.53l-4,3.33Zm1.76,32L50,57.3,53.24,60ZM55,58.86l-4-3.33V28h4Z"></path><path d="M36,30H32a1,1,0,0,0-1,1v8H25V31a1,1,0,0,0-1-1H20a1,1,0,0,0-1,1v9a5,5,0,0,0,5,5h8a5,5,0,0,0,5-5V31A1,1,0,0,0,36,30ZM23,42.83A3.014,3.014,0,0,1,21,40V32h2ZM31,43H25V41h6Zm4-3a3.014,3.014,0,0,1-2,2.83V32h2Z"></path><rect x="33" y="8" width="2" height="2"></rect></g></svg>