<svg xmlns="http://www.w3.org/2000/svg" viewBox="0 0 64 64" x="0px" y="0px"><g><path d="M57,2H7A5.006,5.006,0,0,0,2,7V43a5.006,5.006,0,0,0,5,5H23.9l-.8,8H22a3,3,0,0,0,0,6H42a3,3,0,0,0,0-6H40.905l-.8-8H57a5.006,5.006,0,0,0,5-5V7A5.006,5.006,0,0,0,57,2ZM7,4H57a3,3,0,0,1,3,3V38H4V7A3,3,0,0,1,7,4ZM43,59a1,1,0,0,1-1,1H22a1,1,0,0,1,0-2H42A1,1,0,0,1,43,59Zm-4.1-3H25.105l.8-8H38.1ZM57,46H7a3,3,0,0,1-3-3V40H60v3A3,3,0,0,1,57,46Z"></path><rect x="54" y="42" width="2" height="2"></rect><path d="M7.86,24.99l2.679.38a10.848,10.848,0,0,0,.682,1.639L9.59,29.179a1,1,0,0,0,.093,1.308l2.83,2.83a1,1,0,0,0,1.308.093l2.17-1.631a10.848,10.848,0,0,0,1.639.682l.38,2.679A1,1,0,0,0,19,36h4a1,1,0,0,0,.99-.86l.38-2.679a10.848,10.848,0,0,0,1.639-.682l2.17,1.631a1,1,0,0,0,1.308-.093l2.83-2.83a1,1,0,0,0,.093-1.308l-1.631-2.171,0-.008H51a6,6,0,0,0,0-12H48.937a8,8,0,0,0-15.364-3.958A3.915,3.915,0,0,0,33,11a3.966,3.966,0,0,0-2.387.809l-1.126-1.126a1,1,0,0,0-1.308-.093l-2.17,1.631a10.848,10.848,0,0,0-1.639-.682L23.99,8.86A1,1,0,0,0,23,8H19a1,1,0,0,0-.99.86l-.38,2.679a10.848,10.848,0,0,0-1.639.682l-2.17-1.631a1,1,0,0,0-1.308.093l-2.83,2.83a1,1,0,0,0-.093,1.308l1.631,2.17a10.848,10.848,0,0,0-.682,1.639l-2.679.38A1,1,0,0,0,7,20v4A1,1,0,0,0,7.86,24.99ZM33,13a1.96,1.96,0,0,1,.813.179,1.006,1.006,0,0,0,.845-.011,1,1,0,0,0,.535-.654,6,6,0,1,1,11.555,3.2A1,1,0,0,0,47.706,17H51a4,4,0,0,1,0,8H29a4,4,0,0,1,0-8h1.184a1,1,0,0,0,.942-1.333A1.973,1.973,0,0,1,33,13ZM24.128,24.488A4,4,0,1,1,21,18a3.95,3.95,0,0,1,2.414.825,5.943,5.943,0,0,0,.714,5.663ZM9,20.868l2.46-.348a1,1,0,0,0,.829-.743,8.773,8.773,0,0,1,.979-2.352,1,1,0,0,0-.058-1.115l-1.5-2,1.6-1.6,2,1.5a1,1,0,0,0,1.115.058,8.773,8.773,0,0,1,2.352-.979,1,1,0,0,0,.743-.829L19.868,10h2.264l.348,2.46a1,1,0,0,0,.743.829,8.773,8.773,0,0,1,2.352.979,1,1,0,0,0,1.115-.058l2-1.5.665.665A3.975,3.975,0,0,0,29,15a5.984,5.984,0,0,0-4.547,2.1,6,6,0,1,0,1.094,8.8,5.953,5.953,0,0,0,3.059,1.082.993.993,0,0,0,.184.71l1.5,2-1.6,1.6-2-1.5a1,1,0,0,0-1.115-.058,8.773,8.773,0,0,1-2.352.979,1,1,0,0,0-.743.829L22.132,34H19.868l-.348-2.46a1,1,0,0,0-.743-.829,8.773,8.773,0,0,1-2.352-.979,1,1,0,0,0-1.115.058l-2,1.5-1.6-1.6,1.5-2a1,1,0,0,0,.058-1.115,8.773,8.773,0,0,1-.979-2.352,1,1,0,0,0-.829-.743L9,23.132Z"></path><rect x="20" y="12" width="2" height="2"></rect><rect x="13.636" y="14.636" width="2" height="2" transform="translate(-6.77 14.929) rotate(-45)"></rect><rect x="11" y="21" width="2" height="2"></rect><rect x="13.636" y="27.364" width="2" height="2" transform="translate(-15.77 18.657) rotate(-45)"></rect><rect x="20" y="30" width="2" height="2"></rect><rect x="26.364" y="27.364" width="2" height="2" transform="translate(-12.042 27.657) rotate(-45)"></rect><rect x="34" y="31" width="2" height="2"></rect><rect x="38" y="31" width="2" height="2"></rect><rect x="42" y="31" width="2" height="2"></rect><rect x="43" y="15" width="2" height="2"></rect><rect x="39" y="15" width="2" height="2"></rect></g></svg>