<svg xmlns="http://www.w3.org/2000/svg" viewBox="0 0 64 64" x="0px" y="0px"><g><path d="M55,52.71v3.42l-1.45-.96a.975.975,0,0,0-1.1,0L51,56.13V52.71c.03.01.05.01.08.02q.36.09.72.15a1.6,1.6,0,0,0,.21.05,7.036,7.036,0,0,0,1.98,0c.07-.01.13-.03.2-.04.25-.05.49-.1.73-.16C54.95,52.72,54.97,52.72,55,52.71Z"></path><path d="M53,41a4.994,4.994,0,0,0-2.5,9.32,4.581,4.581,0,0,0,1.21.51A5.134,5.134,0,0,0,53,51a4.846,4.846,0,0,0,2.49-.67A5,5,0,0,0,53,41Zm0,9a4,4,0,1,1,4-4A4,4,0,0,1,53,50Z"></path><path d="M60,51V46a6.948,6.948,0,0,1-2.13,5ZM4,13V51H48.13A6.992,6.992,0,1,1,60,46V13ZM50,37H20V35H50Zm0-5H14V30H50ZM18,35v2H14V35Zm32-8H14V25H50Zm6,10H54V23.41A8.006,8.006,0,0,1,49.58,19H14.42A8.006,8.006,0,0,1,10,23.41V40.59A8.006,8.006,0,0,1,14.42,45H44v2H13.71a.99.99,0,0,1-.96-.71,5.979,5.979,0,0,0-4.04-4.04A.99.99,0,0,1,8,41.29V22.71a.99.99,0,0,1,.71-.96,5.979,5.979,0,0,0,4.04-4.04.99.99,0,0,1,.96-.71H50.29a.99.99,0,0,1,.96.71,5.979,5.979,0,0,0,4.04,4.04.99.99,0,0,1,.71.96Z"></path><circle cx="53" cy="46" r="2"></circle></g></svg>