<svg xmlns="http://www.w3.org/2000/svg" viewBox="0 0 64 64" x="0px" y="0px"><title>Content-Marketing-Megaphone-Blog-Webpage</title><g><rect x="35" y="38" width="6" height="2"></rect><rect x="32.364" y="31.636" width="6" height="2" transform="translate(-12.719 34.565) rotate(-45)"></rect><rect x="34.364" y="42.364" width="2" height="6" transform="translate(-21.72 38.296) rotate(-45.003)"></rect><path d="M57,2H13a1,1,0,0,0-1,1V34H9a3,3,0,0,0-3,3v4a3,3,0,0,0,3,3v9a1,1,0,0,0,1,1h2v7a1,1,0,0,0,1,1H57a3,3,0,0,0,3-3V5A3,3,0,0,0,57,2ZM48,4h4v6L50.8,8.4a1.036,1.036,0,0,0-1.6,0L48,10ZM24,45.523l-8-3.2V35.677l8-3.2ZM14,4h6V31.923L14.807,34H14ZM12,36h2v6H12ZM8,41V37a1,1,0,0,1,1-1h1v6H9A1,1,0,0,1,8,41Zm3,3h3.807l.193.077V52H11Zm3,10h2a1,1,0,0,0,1-1V44.877l3,1.2V60H14Zm44,5a1,1,0,0,1-1,1H22V46.877l2.1.839A2.995,2.995,0,0,0,30,47V42.858a3.981,3.981,0,0,0,0-7.716V31a2.995,2.995,0,0,0-5.9-.716l-2.1.839V4H46v9a1,1,0,0,0,1.8.6L50,10.667,52.2,13.6a1,1,0,0,0,.8.4,1.019,1.019,0,0,0,.316-.051A1,1,0,0,0,54,13V4h3a1,1,0,0,1,1,1ZM26,47V31a1,1,0,0,1,2,0V47a1,1,0,0,1-2,0Zm4-9.722a1.983,1.983,0,0,1,0,3.444Z"></path><rect x="26" y="12" width="16" height="2"></rect><rect x="26" y="8" width="4" height="2"></rect><rect x="32" y="8" width="10" height="2"></rect><rect x="26" y="18" width="10" height="2"></rect><rect x="38" y="18" width="16" height="2"></rect><rect x="26" y="22" width="16" height="2"></rect><rect x="44" y="22" width="10" height="2"></rect><rect x="30" y="26" width="24" height="2"></rect><rect x="44" y="30" width="10" height="2"></rect><rect x="44" y="34" width="10" height="2"></rect><rect x="44" y="38" width="10" height="2"></rect><rect x="44" y="42" width="10" height="2"></rect><rect x="44" y="46" width="10" height="2"></rect><rect x="32" y="50" width="16" height="2"></rect><rect x="50" y="50" width="4" height="2"></rect><rect x="26" y="54" width="28" height="2"></rect></g></svg>