<svg xmlns="http://www.w3.org/2000/svg" viewBox="0 0 64 64" x="0px" y="0px"><g><path d="M46.69,37.3l-4.5-1.41c2.51-.48,4.74-1.02,6.33-1.44a3,3,0,0,0,2.21-3.35L48.11,13.66A1.99,1.99,0,0,0,49,12V10a2.006,2.006,0,0,0-2-2H43V6a1,1,0,0,0-1-1H39V3a1,1,0,0,0-1-1H28a7,7,0,0,0-6.92,6H17a2.006,2.006,0,0,0-2,2v2a1.99,1.99,0,0,0,.89,1.66L13.27,31.1a3,3,0,0,0,2.21,3.35c1.59.42,3.82.96,6.33,1.44l-4.5,1.41A8.941,8.941,0,0,0,11,45.88V61a1,1,0,0,0,1,1H52a1,1,0,0,0,1-1V45.88A8.941,8.941,0,0,0,46.69,37.3ZM38.7,7H41V8H38.32A7.1,7.1,0,0,0,38.7,7ZM28,4h9V5a4.971,4.971,0,0,1-1.03,3H23.1A5.017,5.017,0,0,1,28,4ZM17,10H47v2H17Zm26,4h3.14l.3,1.99A3.984,3.984,0,0,0,43,14Zm2,4a2.015,2.015,0,0,1-2,2V16A2.006,2.006,0,0,1,45,18Zm-4-4v7c0,.26-.02.52-.04.77l-6.8-1.36a11.214,11.214,0,0,0-4.32,0l-6.8,1.36c-.02-.25-.04-.51-.04-.77V14ZM17.56,15.99l.3-1.99H21A3.984,3.984,0,0,0,17.56,15.99ZM21,16v4a2.015,2.015,0,0,1-2-2A2.006,2.006,0,0,1,21,16Zm2,44H21V45H19V60H13V45.88a6.964,6.964,0,0,1,4.91-6.68L23,37.61Zm4,0H25V37a2.6,2.6,0,0,1,.06-.56c.64.09,1.29.17,1.94.25Zm0-25.33-.76-.09a3.1,3.1,0,0,1,.76-.41Zm0-2.57a5.025,5.025,0,0,0-3.15,2.12c-3.33-.56-6.28-1.29-7.86-1.71a1,1,0,0,1-.74-1.11l1.87-12.47A3.964,3.964,0,0,0,21,22h.05A11.028,11.028,0,0,0,27,30.79ZM35,60H29V45.41l2.29,2.3a1.014,1.014,0,0,0,1.42,0L35,45.41Zm0-17.41-3,3-3-3V40.41l2.29,2.3a1.014,1.014,0,0,0,1.42,0L35,40.41Zm0-5-3,3-3-3v-.71c1.01.07,2.02.12,3,.12s1.99-.05,3-.12Zm0-2.72c-1.02.08-2.03.13-3,.13s-1.98-.05-3-.13v-3.3A10.665,10.665,0,0,0,32,32a11.09,11.09,0,0,0,3-.42ZM32,30a8.928,8.928,0,0,1-6.23-2.52l4.34-.49-.22-1.98-5.6.62a9.3,9.3,0,0,1-.86-1.9l6.81-1.36a9.065,9.065,0,0,1,3.52,0l6.81,1.36a8.791,8.791,0,0,1-.86,1.9l-5.6-.62-.22,1.98,4.35.49A8.958,8.958,0,0,1,32,30Zm5,4.17a3.1,3.1,0,0,1,.76.41l-.76.09ZM39,60H37V36.69c.65-.08,1.3-.16,1.94-.25A2.6,2.6,0,0,1,39,37ZM37,32.1V30.79a11.064,11.064,0,0,0,2.78-2.01A10.919,10.919,0,0,0,42.95,22H43a3.964,3.964,0,0,0,3.88-3.07L48.75,31.4a1,1,0,0,1-.74,1.11c-1.58.42-4.53,1.15-7.86,1.71A5.025,5.025,0,0,0,37,32.1ZM51,60H45V45H43V60H41V37.61l5.09,1.59A6.964,6.964,0,0,1,51,45.88Z"></path><circle cx="28" cy="17" r="2"></circle><circle cx="36" cy="17" r="2"></circle></g></svg>