<svg xmlns="http://www.w3.org/2000/svg" viewBox="0 0 64 64" x="0px" y="0px"><g data-name="Online Shopping-Ecommerce-Online Shop-Shopping Cart-Smartphone"><rect x="40" y="31" width="2" height="2"></rect><rect x="40" y="27" width="2" height="2"></rect><rect x="40" y="23" width="2" height="2"></rect><rect x="36" y="27" width="2" height="2"></rect><rect x="36" y="23" width="2" height="2"></rect><circle cx="43" cy="40" r="1"></circle><polygon points="46.25 31 44 31 44 33 46.08 33 46.25 31"></polygon><polygon points="46.91 23 44 23 44 25 46.75 25 46.91 23"></polygon><rect x="36" y="31" width="2" height="2"></rect><polygon points="46.58 27 44 27 44 29 46.41 29 46.58 27"></polygon><circle cx="35" cy="40" r="1"></circle><path d="M53,4H25a4,4,0,0,0-4,4v9.77A2.984,2.984,0,0,1,23,17h2a3.01,3.01,0,0,1,2.82,2H29a1.033,1.033,0,0,1,.71.29L31.41,21H48a1.029,1.029,0,0,1,.74.32,1.055,1.055,0,0,1,.26.76l-1,12A1.01,1.01,0,0,1,47,35H32v2H47a3.009,3.009,0,0,1,3,3H48a1,1,0,0,0-1-1H45.82a3,3,0,1,1-5.64,0H37.82a3,3,0,1,1-5.64,0H31a1,1,0,0,1-1-1V22.41L28.59,21h-.77A3.01,3.01,0,0,1,25,23H23a2.984,2.984,0,0,1-2-.77V29h5v2H21v2h2v2H21v2h7v2H21V56a4,4,0,0,0,4,4H53a4,4,0,0,0,4-4V8A4,4,0,0,0,53,4ZM34,8H32V6h2Zm8,0H36V6h6ZM41,58H37a3,3,0,0,1,0-6h4a3,3,0,0,1,0,6Z"></path><path d="M23,21h2a1,1,0,0,0,0-2H23a1,1,0,0,0,0,2Z"></path><rect x="32" y="23" width="2" height="2"></rect><rect x="32" y="31" width="2" height="2"></rect><rect x="32" y="27" width="2" height="2"></rect><path d="M37,56h4a1,1,0,0,0,0-2H37a1,1,0,0,0,0,2Z"></path><rect x="6" y="37" width="2" height="2"></rect><rect x="10" y="37" width="4" height="2"></rect><rect x="16" y="37" width="5" height="2"></rect><rect x="13" y="33" width="8" height="2"></rect><rect x="18" y="29" width="3" height="2"></rect><rect x="14" y="29" width="2" height="2"></rect><rect x="9" y="33" width="2" height="2"></rect></g></svg>