<svg xmlns="http://www.w3.org/2000/svg" viewBox="0 0 64 64" x="0px" y="0px"><g data-name="No Plastic Bottles-Pollution-Plastics-Bottle-Waste"><polygon points="26.758 31 24 28.242 24 29.586 25.414 31 26.758 31"></polygon><polygon points="37.242 33 40 35.758 40 34.414 38.586 33 37.242 33"></polygon><path d="M27,50H37a3,3,0,0,0,3-3V44.242L36.758,41H25.414L24,42.414V47A3,3,0,0,0,27,50Zm-1-6h2v2h2v2H28a2,2,0,0,1-2-2Z"></path><path d="M42,47a5.006,5.006,0,0,1-5,5H27a5.006,5.006,0,0,1-5-5V42a1,1,0,0,1,.293-.707L23.586,40l-1.293-1.293A1,1,0,0,1,22,38V34a1,1,0,0,1,.293-.707L23.586,32l-1.293-1.293A1,1,0,0,1,22,30V26.243l-8.955-8.955A23.994,23.994,0,0,0,46.713,50.955L42,46.242Z"></path><path d="M32,8a24,24,0,0,0-14.713,5.045l7.405,7.4a4.742,4.742,0,0,1,.745-.313L28,19.28V15a3,3,0,0,1,3-3h2a3,3,0,0,1,3,3v4.28l2.577.862A4.977,4.977,0,0,1,42,24.88V30a1,1,0,0,1-.293.707L40.414,32l1.293,1.293A1,1,0,0,1,42,34v3.757l8.955,8.955A23.993,23.993,0,0,0,32,8Z"></path><path d="M32,4A28,28,0,1,0,60,32,28.032,28.032,0,0,0,32,4ZM48.852,51.792A25.993,25.993,0,0,1,12.208,15.149a1,1,0,0,1,1.468-.059L48.91,50.324a1,1,0,0,1-.058,1.468Zm2.219-2.59h-.04a1,1,0,0,1-.707-.293L15.09,13.676a1,1,0,0,1,.058-1.468A25.993,25.993,0,0,1,51.792,48.851,1,1,0,0,1,51.071,49.2Z"></path><path d="M37.947,22.04l-3.264-1.092A1,1,0,0,1,34,20V18H30v2a1,1,0,0,1-.683.948l-3.092,1.034L35.242,31h3.344L40,29.586V24.88A2.983,2.983,0,0,0,37.947,22.04ZM38,29H36V25h2Z"></path><polygon points="34.758 39 28.758 33 25.414 33 24 34.414 24 37.586 25.414 39 34.758 39"></polygon><path d="M34,15a1,1,0,0,0-1-1H31a1,1,0,0,0-1,1v1h4Z"></path></g></svg>