<svg xmlns="http://www.w3.org/2000/svg" viewBox="0 0 64 64" x="0px" y="0px"><g data-name="Content Marketing"><path d="M25,43a1,1,0,0,0,1-1V35.077L25.807,35H22v7a1,1,0,0,0,1,1Z"></path><path d="M19,28v4a1,1,0,0,0,1,1h1V27H20A1,1,0,0,0,19,28Z"></path><rect x="23" y="27" width="2" height="6"></rect><path d="M38,39a1,1,0,0,0,1-1V22a1,1,0,0,0-2,0V38A1,1,0,0,0,38,39Z"></path><polygon points="35 23.477 27 26.677 27 33.323 35 36.523 35 23.477"></polygon><path d="M42,30a1,1,0,0,0-1-1v2A1,1,0,0,0,42,30Z"></path><path d="M19.414,51.163a2.975,2.975,0,0,1,3.207-.375,20.814,20.814,0,0,0,2.732,1.132,2.973,2.973,0,0,1,2,2.533L27.905,60H36.1l.687-6.872a1,1,0,0,1,.734-.865,20.854,20.854,0,0,0,3.863-1.475,2.977,2.977,0,0,1,3.208.375L48.9,54.694,54.7,48.9l-3.533-4.317a2.975,2.975,0,0,1-.375-3.206,20.816,20.816,0,0,0,1.133-2.732,2.972,2.972,0,0,1,2.532-2L60,36.1v-8.19l-5.548-.555a2.971,2.971,0,0,1-2.531-2,20.871,20.871,0,0,0-1.134-2.734,2.975,2.975,0,0,1,.375-3.206L54.7,15.1,48.9,9.306l-4.317,3.531a2.967,2.967,0,0,1-3.206.375,20.941,20.941,0,0,0-2.733-1.132,2.977,2.977,0,0,1-2-2.532L36.1,4h-8.19L27.35,9.548a2.973,2.973,0,0,1-2,2.532,20.814,20.814,0,0,0-2.732,1.132,2.973,2.973,0,0,1-3.207-.375L15.1,9.306,9.306,15.1l3.531,4.317a2.971,2.971,0,0,1,.375,3.207,20.814,20.814,0,0,0-1.132,2.732,2.973,2.973,0,0,1-2.533,2L4,27.905V36.1l5.548.555a2.973,2.973,0,0,1,2.532,2,20.814,20.814,0,0,0,1.132,2.732,2.973,2.973,0,0,1-.375,3.207L9.306,48.9,15.1,54.694ZM54,31h2v2H54ZM10,33H8V31h2Zm10,9V35a3,3,0,0,1-3-3V28a3,3,0,0,1,3-3h5.807L35.1,21.285A2.995,2.995,0,0,1,41,22v5a3,3,0,0,1,0,6v5a2.995,2.995,0,0,1-5.9.715L28,35.877V42a3,3,0,0,1-3,3H23A3,3,0,0,1,20,42ZM33,56H31V54h2Zm-1-6a17.952,17.952,0,0,1-9.494-2.7l1.056-1.7a16.01,16.01,0,0,0,22.56-6.068l1.764.943A17.986,17.986,0,0,1,32,50ZM45.707,33.293l3,3-1.414,1.414-3-3Zm-1.414-8,3-3,1.414,1.414-3,3Zm3.971,24.385L46.85,48.263l1.414-1.414,1.414,1.415ZM50,31H46V29h4ZM48.264,14.322l1.414,1.414-1.414,1.415L46.85,15.737ZM31,8h2v2H31ZM15.736,14.322l1.415,1.415-1.414,1.414-1.415-1.415ZM32,14a17.978,17.978,0,0,1,13.767,6.4l-1.53,1.289A16,16,0,0,0,19.174,41.566l-1.6,1.2A18,18,0,0,1,32,14ZM15.737,46.849l1.414,1.414-1.415,1.415-1.414-1.414Z"></path></g></svg>