<svg xmlns="http://www.w3.org/2000/svg" viewBox="0 0 64 64" x="0px" y="0px"><g><path d="M60,50V19a5,5,0,0,0-5-5H35a10,10,0,0,0-20,0H9a5,5,0,0,0-5,5V50a2.006,2.006,0,0,0-2,2v3a5,5,0,0,0,5,5H57a5,5,0,0,0,5-5V52A2.006,2.006,0,0,0,60,50ZM34.8,16H55a3.009,3.009,0,0,1,3,3V50H56V20a2.006,2.006,0,0,0-2-2H34.16A9.722,9.722,0,0,0,34.8,16ZM10,50V20h7.02a10.024,10.024,0,0,0,2.01,2H18a3.009,3.009,0,0,0-3,3v2a2.974,2.974,0,0,0,.78,2A2.974,2.974,0,0,0,15,31v2a2.974,2.974,0,0,0,.78,2A2.974,2.974,0,0,0,15,37v2a2.974,2.974,0,0,0,.78,2A2.974,2.974,0,0,0,15,43v2a3.009,3.009,0,0,0,3,3H30a2.974,2.974,0,0,0,2-.78A2.974,2.974,0,0,0,34,48H46a3.009,3.009,0,0,0,3-3V43a2.974,2.974,0,0,0-.78-2A2.974,2.974,0,0,0,49,39V37a2.974,2.974,0,0,0-.78-2A2.974,2.974,0,0,0,49,33V31a3.009,3.009,0,0,0-3-3H34a2.923,2.923,0,0,0-1.32.32A2.923,2.923,0,0,0,33,27V25a3.006,3.006,0,0,0-2.19-2.88A9.919,9.919,0,0,0,32.98,20H54V50Zm26,2v2H28V52ZM25,26V24h2v2h2V24h1a1,1,0,0,1,1,1v2a1,1,0,0,1-1,1H18a1,1,0,0,1-1-1V25a1,1,0,0,1,1-1h1v2h2V24h2v2ZM21,44V42h2v2h2V42h2v2h2V42h1a1,1,0,0,1,1,1v2a1,1,0,0,1-1,1H18a1,1,0,0,1-1-1V43a1,1,0,0,1,1-1h1v2Zm9-4H18a1,1,0,0,1-1-1V37a1,1,0,0,1,1-1h1v2h2V36h2v2h2V36h2v2h2V36h1a1,1,0,0,1,1,1v2A1,1,0,0,1,30,40Zm0-6H18a1,1,0,0,1-1-1V31a1,1,0,0,1,1-1h1v2h2V30h2v2h2V30h2v2h2V30h1a1,1,0,0,1,1,1v2A1,1,0,0,1,30,34Zm7-2V30h2v2h2V30h2v2h2V30h1a1,1,0,0,1,1,1v2a1,1,0,0,1-1,1H34a1,1,0,0,1-1-1V31a1,1,0,0,1,1-1h1v2Zm-3,4h1v2h2V36h2v2h2V36h2v2h2V36h1a1,1,0,0,1,1,1v2a1,1,0,0,1-1,1H34a1,1,0,0,1-1-1V37A1,1,0,0,1,34,36Zm0,6h1v2h2V42h2v2h2V42h2v2h2V42h1a1,1,0,0,1,1,1v2a1,1,0,0,1-1,1H34a1,1,0,0,1-1-1V43A1,1,0,0,1,34,42ZM25,6a8,8,0,1,1-8,8A8.011,8.011,0,0,1,25,6ZM6,19a3.009,3.009,0,0,1,3-3h6.2a9.722,9.722,0,0,0,.64,2H10a2.006,2.006,0,0,0-2,2V50H6ZM60,55a3.009,3.009,0,0,1-3,3H7a3.009,3.009,0,0,1-3-3V52H26v2a2.006,2.006,0,0,0,2,2h8a2.006,2.006,0,0,0,2-2V52H60Z"></path><path d="M26,17H24a1,1,0,0,1-1-1H21a3,3,0,0,0,3,3v1h2V19a3,3,0,0,0,0-6H24a1,1,0,0,1,0-2h2a1,1,0,0,1,1,1h2a3,3,0,0,0-3-3V8H24V9a3,3,0,0,0,0,6h2a1,1,0,0,1,0,2Z"></path></g></svg>