<svg xmlns="http://www.w3.org/2000/svg" viewBox="0 0 64 64" x="0px" y="0px"><g data-name="Factory"><path d="M16,12v2h2V12a1,1,0,0,1,1-1h4a3,3,0,0,0,3-3V6H24V8a1,1,0,0,1-1,1H19A3,3,0,0,0,16,12Z"></path><path d="M13,8a1,1,0,0,1,1-1h4a3,3,0,0,0,3-3V2H19V4a1,1,0,0,1-1,1H14a3,3,0,0,0-3,3v2h2Z"></path><path d="M29,21v2h2V21a1,1,0,0,1,1-1h4a3,3,0,0,0,3-3V15H37v2a1,1,0,0,1-1,1H32A3,3,0,0,0,29,21Z"></path><path d="M24,17v2h2V17a1,1,0,0,1,1-1h4a3,3,0,0,0,3-3V11H32v2a1,1,0,0,1-1,1H27A3,3,0,0,0,24,17Z"></path><rect x="36" y="46" width="2" height="4"></rect><rect x="45" y="46" width="2" height="4"></rect><path d="M33,34V27H22.009l3.982,29.868A.976.976,0,0,1,26,57v3h4V35a1,1,0,0,1,1-1Z"></path><path d="M20,18H8v9a.976.976,0,0,1-.009.132L4,57.066V60H24V57.066L20.009,27.132A.976.976,0,0,1,20,27V18Z"></path><path d="M60,42H51a1,1,0,0,1-.948-.684L48.279,36H44v5a1,1,0,0,1-1,1H39a1,1,0,0,1-.948-.684L36.279,36H32V60H60ZM40,51a1,1,0,0,1-1,1H35a1,1,0,0,1-1-1V45a1,1,0,0,1,1-1h4a1,1,0,0,1,1,1Zm9,0a1,1,0,0,1-1,1H44a1,1,0,0,1-1-1V45a1,1,0,0,1,1-1h4a1,1,0,0,1,1,1Zm9,0a1,1,0,0,1-1,1H53a1,1,0,0,1-1-1V45a1,1,0,0,1,1-1h4a1,1,0,0,1,1,1Z"></path><rect x="54" y="46" width="2" height="4"></rect><rect x="37" y="11" width="2" height="2"></rect></g></svg>